<svg xmlns="http://www.w3.org/2000/svg" viewBox="0 0 497.778 497.778"><path d="M64 497.777c-15.701 0-28.445-12.742-28.445-28.445V28.445C35.555 12.742 48.299 0 64 0s28.445 12.742 28.445 28.445v440.889c0 15.701-12.744 28.444-28.445 28.444" fill="#8899a6"/><path d="M64 0C48.285 0 35.555 12.729 35.555 28.445v440.889c0 3.925 3.186 7.111 7.111 7.111s7.112-3.186 7.112-7.111V48.555c0-11.107 9.002-20.11 20.11-20.11h22.556C92.445 12.729 79.715 0 64 0" fill="#aab8c2"/><path d="M64 497.777c-15.701 0-28.445-12.742-28.445-28.445V28.445C35.555 12.742 48.299 0 64 0s28.445 12.742 28.445 28.445v440.889c0 15.701-12.744 28.444-28.445 28.444" fill="#8899a6"/><path d="M64 0C48.285 0 35.555 12.729 35.555 28.445v440.889c0 3.925 3.186 7.111 7.111 7.111s7.112-3.186 7.112-7.111V48.555c0-11.107 9.002-20.11 20.11-20.11h22.556C92.445 12.729 79.715 0 64 0" fill="#aab8c2"/><path d="M453.903 29.725c-24.918-11.364-51.414-16.881-81.04-16.881-35.81 0-71.394 8.106-105.798 15.957-34.39 7.835-66.872 15.232-99.485 15.232-25.457 0-48.1-4.68-69.234-14.308-4.395-2.02-9.528-1.635-13.596.968a14.233 14.233 0 0 0-6.527 11.975V312.89a14.228 14.228 0 0 0 8.32 12.942C111.46 337.196 137.97 342.7 167.58 342.7c35.812 0 71.395-8.106 105.799-15.957 34.389-7.837 66.873-15.233 99.485-15.233 25.457 0 48.114 4.679 69.234 14.321 4.409 1.978 9.529 1.635 13.596-.995a14.184 14.184 0 0 0 6.528-11.946V42.666a14.22 14.22 0 0 0-8.32-12.941" fill="#292f33"/></svg>