<svg xmlns="http://www.w3.org/2000/svg" viewBox="0 0 512 512"><path d="M0 384c0 31.417 25.472 56.889 56.889 56.889h398.222C486.528 440.889 512 415.417 512 384v-5.02H0V384z" fill="#880082"/><path fill="#3558a0" d="M0 376.889v2.091h512v-61.071H0z"/><path fill="#138f3e" d="M0 313.884v4.025h512V256H0z"/><path fill="#fad220" d="M0 253.582V256h512v-61.908H0z"/><path fill="#ff5000" d="M0 192v2.092h512V133.02H0z"/><path d="M455.111 71.111H56.889C25.472 71.111 0 96.583 0 128v5.02h512V128c0-31.417-25.472-56.889-56.889-56.889z" fill="#ff000e"/></svg>