<svg xmlns="http://www.w3.org/2000/svg" viewBox="0 0 512 512"><path d="M455.111 71.111H56.89C25.472 71.111 0 96.584 0 128v256c0 31.416 25.472 56.889 56.889 56.889H455.11C486.527 440.889 512 415.416 512 384V128c0-31.416-25.473-56.889-56.889-56.889z" fill="#eee"/><g fill="#d42e11"><path d="M124.823 156.444V115.72h8.11l9.64 28.834a291.835 291.835 0 0 1 1.943 6.027c.463-1.48 1.185-3.656 2.168-6.527l9.75-28.334h7.25v40.723h-5.195V122.36l-11.833 34.084h-4.861l-11.778-34.666v34.666h-5.195zM173.597 156.444l15.64-40.723h5.805l16.667 40.723h-6.139l-4.75-12.334h-17.028l-4.472 12.334h-5.723zm11.75-16.721h13.807l-4.25-11.278c-1.297-3.426-2.259-6.24-2.889-8.444a51.857 51.857 0 0 1-2.195 7.778l-4.472 11.944zM223.275 156.444v-17.25L207.58 115.72h6.556L222.164 128a123.283 123.283 0 0 1 4.139 6.889c1.222-2.13 2.703-4.528 4.445-7.194l7.888-11.973h6.278l-16.25 23.473v17.25h-5.389zM248.11 136.611c0-6.759 1.815-12.051 5.444-15.875 3.63-3.824 8.315-5.736 14.055-5.736 3.759 0 7.149.899 10.167 2.694 3.018 1.796 5.319 4.301 6.903 7.513 1.582 3.214 2.375 6.858 2.375 10.932 0 4.13-.833 7.823-2.5 11.083-1.668 3.26-4.028 5.728-7.083 7.403-3.056 1.676-6.352 2.514-9.889 2.514-3.833 0-7.26-.927-10.278-2.778s-5.306-4.38-6.861-7.582a22.997 22.997 0 0 1-2.333-10.168zm5.555.083c0 4.907 1.319 8.774 3.958 11.597s5.948 4.236 9.93 4.236c4.057 0 7.394-1.426 10.014-4.277 2.62-2.851 3.932-6.897 3.932-12.139 0-3.315-.56-6.207-1.682-8.68-1.12-2.472-2.758-4.388-4.916-5.75-2.159-1.361-4.579-2.042-7.265-2.042-3.815 0-7.096 1.31-9.846 3.931-2.75 2.62-4.125 6.995-4.125 13.124zM304.369 156.444v-35.916H290.95v-4.807h32.279v4.806h-13.473v35.917h-5.388zM341.404 156.444v-35.916h-13.416v-4.807h32.278v4.806h-13.472v35.917h-5.39zM369.331 156.444V115.72h29.444v4.806h-24.056V133h22.529v4.777h-22.53v13.862h25v4.806h-30.387v-.001z"/></g><path d="M213.33 338.406h28.444c7.278 0 10.721 3.825 12.328 7.034 1.748 3.489 1.77 7.029 1.77 7.064 0 .069.055.125.124.125a.125.125 0 0 0 .125-.125c0-.141.161-14.098 14.098-14.098h28.444c7.483 0 13.737-2.899 18.087-8.381 4.016-5.065 6.23-12.235 6.23-20.188V189.674a.125.125 0 0 0-.125-.125H188.84a.125.125 0 0 0-.125.125v120.163c0 7.923 2.268 15.093 6.385 20.19 4.43 5.48 10.734 8.38 18.23 8.38zM188.965 189.8h133.766v120.039c0 16.938-9.672 28.318-24.066 28.318h-28.444c-11.39 0-13.739 9.159-14.222 12.842-.484-3.683-2.833-12.842-14.223-12.842h-28.444c-14.573 0-24.366-11.381-24.366-28.318l-.001-120.04z" fill="#231f20"/><path d="M310.614 263.116c.305.46.577.943.826 1.438.919-2.04 1.449-4.239 1.449-6.416 0-4.38-2.219-9.018-5.49-11.563 3.271-2.531 5.49-7.168 5.49-11.549 0-4.38-2.219-8.121-5.49-10.666 3.271-2.546 5.49-6.286 5.49-10.666 0-7.651-6.371-13.866-14.223-13.866-4.181 0-7.851 1.834-10.453 4.622-2.603-3.186-6.414-5.334-10.88-5.334-4.338 0-8.08 2.02-10.695 5.035-2.603-3.029-6.33-5.035-10.64-5.035-4.323 0-8.063 2.02-10.665 5.063-2.618-3.044-6.358-5.063-10.667-5.063-4.323 0-8.063 2.02-10.666 5.063-2.617-3.044-6.357-5.063-10.666-5.063-7.865 0-14.223 6.358-14.223 14.223 0 4.308 2.034 8.05 5.063 10.666-3.029 2.602-5.063 6.344-5.063 10.666 0 4.309 2.034 8.05 5.063 10.666-3.029 2.603-5.063 6.343-5.063 10.667 0 2.528.663 5.271 1.82 7.83.142-.244.287-.485.442-.719l109.24.001zM256 241.777c13.241 0 24.263-9.087 27.435-21.333.598 2.29 1.01 4.636 1.01 7.111C284.445 243.256 271.716 256 256 256c-15.701 0-28.445-12.743-28.445-28.445 0-2.475.413-4.821.995-7.111 3.186 12.246 14.209 21.333 27.45 21.333z" fill="#171796"/><path d="M199.096 313.25c0 7.651 6.371 13.866 14.236 13.866 4.267 0 8.05-1.877 10.667-4.779 2.602 2.902 6.386 4.78 10.666 4.78 4.266 0 8.05-1.878 10.666-4.78 2.603 2.902 6.386 4.78 10.666 4.78 4.267 0 8.05-1.878 10.667-4.78 2.602 2.902 6.386 4.78 10.666 4.78 4.266 0 8.05-1.878 10.666-4.78 2.603 2.902 6.386 4.78 10.666 4.78 7.852 0 14.223-6.216 14.223-13.867 0-4.324-2.063-8.121-5.248-10.666 3.187-2.546 5.248-6.344 5.248-10.666s-2.063-8.122-5.248-10.667c3.187-2.546 5.248-6.342 5.248-10.666 0-2.169-.533-4.21-1.449-6.029a14.32 14.32 0 0 0-.826-1.437H201.369c-.155.234-.3.475-.442.719a13.414 13.414 0 0 0-1.833 6.747c0 4.324 2.076 8.121 5.247 10.666-3.171 2.547-5.247 6.344-5.247 10.667s2.076 8.12 5.247 10.666c-3.167 2.545-5.245 6.342-5.245 10.666zm40.82-19.889c4.081 2.346 6.755 5.361 5.974 6.728-.796 1.351-4.736.555-8.818-1.793a22.006 22.006 0 0 1-3.583-2.631c.27 1.309.468 2.759.468 4.422 0 4.722-1.28 8.534-2.845 8.534-1.578 0-2.845-3.811-2.845-8.534 0-1.663.2-3.115.47-4.422-.996.881-2.162 1.792-3.6 2.617-4.08 2.362-8.035 3.158-8.817 1.807s1.891-4.367 5.974-6.728a21.43 21.43 0 0 1 4.067-1.806 21.43 21.43 0 0 1-4.067-1.806c-4.082-2.362-6.755-5.362-5.974-6.728.782-1.351 4.736-.555 8.818 1.806 1.436.825 2.602 1.735 3.598 2.618a21.544 21.544 0 0 1-.469-4.423c0-4.72 1.267-8.533 2.845-8.533 1.565 0 2.845 3.811 2.845 8.533 0 1.664-.198 3.115-.468 4.423a20.66 20.66 0 0 1 3.583-2.618c4.082-2.36 8.022-3.157 8.818-1.806.782 1.365-1.891 4.38-5.974 6.728a21.338 21.338 0 0 1-4.054 1.806c1.267.412 2.618.981 4.054 1.806zm55.751 6.728c-.796 1.351-4.736.555-8.817-1.793a22.824 22.824 0 0 1-3.584-2.617c.27 1.309.469 2.759.469 4.409 0 4.72-1.28 8.533-2.845 8.533s-2.845-3.811-2.845-8.534c0-1.663.199-3.115.469-4.422-.995.881-2.162 1.792-3.599 2.617-4.081 2.362-8.035 3.158-8.818 1.807s1.892-4.367 5.974-6.728a21.056 21.056 0 0 1 4.068-1.806 21.056 21.056 0 0 1-4.068-1.806c-4.081-2.362-6.755-5.362-5.974-6.728.783-1.351 4.737-.555 8.818 1.806 1.436.825 2.602 1.735 3.599 2.618a21.544 21.544 0 0 1-.469-4.423c0-4.72 1.28-8.533 2.845-8.533s2.845 3.811 2.845 8.533c0 1.65-.199 3.115-.469 4.423a21.201 21.201 0 0 1 3.584-2.618c4.081-2.36 8.021-3.157 8.818-1.806.782 1.365-1.892 4.38-5.974 6.728a20.963 20.963 0 0 1-4.054 1.806c1.266.412 2.631.981 4.054 1.806 4.082 2.348 6.77 5.363 5.974 6.728z" fill="#d42e11"/><path d="M227.555 227.555C227.555 243.256 240.298 256 256 256c15.715 0 28.445-12.743 28.445-28.445 0-2.475-.413-4.821-1.01-7.111-3.171 12.245-14.194 21.334-27.435 21.334s-24.264-9.088-27.449-21.334c-.583 2.29-.996 4.637-.996 7.111z" fill="#eee"/><g fill="#ffac33"><path d="M245.89 283.023c-.796-1.352-4.736-.555-8.818 1.806a20.66 20.66 0 0 0-3.583 2.617c.27-1.309.468-2.759.468-4.422 0-4.721-1.28-8.534-2.845-8.534-1.578 0-2.845 3.811-2.845 8.534 0 1.664.2 3.115.47 4.422-.996-.881-2.162-1.792-3.6-2.617-4.08-2.361-8.035-3.158-8.817-1.806-.782 1.365 1.891 4.366 5.974 6.727a21.43 21.43 0 0 0 4.067 1.806 21.43 21.43 0 0 0-4.067 1.807c-4.082 2.36-6.755 5.376-5.974 6.727.782 1.351 4.736.555 8.818-1.806 1.436-.825 2.602-1.735 3.598-2.618a21.544 21.544 0 0 0-.469 4.423c0 4.721 1.267 8.534 2.845 8.534 1.565 0 2.845-3.812 2.845-8.534 0-1.664-.198-3.115-.468-4.423a22.006 22.006 0 0 0 3.583 2.632c4.082 2.346 8.022 3.143 8.818 1.792.782-1.365-1.891-4.38-5.974-6.727a21.338 21.338 0 0 0-4.054-1.807 21.338 21.338 0 0 0 4.054-1.806c4.082-2.347 6.755-5.362 5.974-6.727zM289.694 293.361a20.963 20.963 0 0 0-4.054-1.806 20.963 20.963 0 0 0 4.054-1.806c4.081-2.346 6.755-5.361 5.974-6.728-.797-1.351-4.737-.555-8.818 1.806a21.201 21.201 0 0 0-3.584 2.618c.27-1.309.469-2.774.469-4.422 0-4.722-1.28-8.534-2.845-8.534s-2.845 3.811-2.845 8.534c0 1.663.199 3.114.469 4.422-.995-.881-2.162-1.792-3.599-2.617-4.081-2.362-8.035-3.158-8.818-1.807-.782 1.365 1.892 4.366 5.974 6.728a21.056 21.056 0 0 0 4.068 1.806c-1.28.413-2.632.981-4.068 1.806-4.081 2.361-6.755 5.376-5.974 6.728.783 1.351 4.737.555 8.818-1.806 1.436-.825 2.602-1.735 3.599-2.618a21.544 21.544 0 0 0-.469 4.422c0 4.722 1.28 8.534 2.845 8.534s2.845-3.811 2.845-8.533c0-1.65-.199-3.1-.469-4.41a22.984 22.984 0 0 0 3.584 2.618c4.081 2.347 8.021 3.144 8.818 1.793.796-1.365-1.892-4.38-5.974-6.728z"/></g><path d="M175.611 386.634c-10.951 2.489-45.041 20.949-45.041 20.949l8.121 17.222s9.714-5.02 16.285-7.822c6.07-2.615 21.746-9.75 30.258-10.084.215.694.448 1.441.707 2.257 2.19 6.884 8.149 6.572 15.019 3.129 6.884-3.456 16.896-5.632 26.297-5.632h62.25c9.402 0 19.414 2.176 26.283 5.632 6.884 3.441 12.829 3.755 15.032-3.129.258-.816.49-1.563.704-2.257 8.516.329 24.179 7.469 30.264 10.084 6.571 2.8 16.285 7.822 16.285 7.822l8.121-17.222s-34.091-18.46-45.07-20.95c-7.956-1.82-16.74-2.478-19.02.182.337.637 1.758 2.954 5.418 4.619 3.726 1.692 7.41 4.693 6.414 6.77l-.002.002c-4.15.12-9.035-3.241-14.535-6.209-2.246-1.212-4.592-2.36-7.037-3.177-8.463-2.816-31.601-4.395-39.125-4.395h-29.725c-7.509 0-30.649 1.579-39.112 4.395-2.45.816-4.8 1.965-7.05 3.177-5.507 2.968-10.392 6.328-14.52 6.21 0-.002-.002-.002-.002-.003-.995-2.077 2.687-5.078 6.414-6.77 3.663-1.668 5.073-3.987 5.405-4.622-2.283-2.657-11.063-1.998-19.038-.178zm82.92 4.477h41.941v11.648h-41.94V391.11zm-36.877 0h24.59v11.648h-24.59V391.11z" fill="#ccd6dd"/><g fill="#66757f"><path d="M189.241 391.434c-3.726 1.692-7.41 4.693-6.414 6.77l.002.002c4.13.119 9.015-3.24 14.521-6.209-1.386-3.022-2.62-5.357-2.62-5.357s-.029.065-.085.171c-.33.636-1.74 2.955-5.404 4.623zM333.935 398.206l.001-.002c.995-2.076-2.687-5.078-6.413-6.77-3.66-1.666-5.082-3.981-5.418-4.619-.057-.107-.086-.174-.086-.174s-1.234 2.334-2.619 5.357c5.5 2.968 10.384 6.328 14.535 6.208z"/></g><g fill="#99aab5"><path d="M218.575 389.652h30.738v14.56h-30.738zM253.287 389.652h52.427v14.56h-52.426z"/></g><g fill="#ccd6dd"><path d="M66.601 247.993c-2.716-2.134-4.152 17.493 10.666 32.896 14.806 15.402 40.89 19.115 40.89 19.115l6.654-12.879c-2.662-2.141-5.367-3.951-7.996-5.35-14.11-7.492-23.836-22.428-32.239-33.94 1.783 3.109 3.059 5.79 3.059 5.79s-14.819-.74-21.034-5.633zM116.674 364.449c9.441 0 17.6-4.719 23.145-12.103-5.978 7.673-14.858 12.098-23.141 12.098-14.223 0-25.63-15.246-25.63-25.33 0-4.913 1.374-9.889 4.013-13.755-2.267 2.771-4.471 6.786-4.471 11.967 0 10.668 8.448 27.123 26.084 27.123zM143.074 310.146c2.474 6.13 3.826 13.045 3.826 21.118 0 3.617-.522 7.001-1.451 10.126a41.967 41.967 0 0 0 2.03-12.951c0-6.229-1.673-12.454-4.405-18.293z"/><path d="M87.49 240.004c7.553 7.992 23.993 21.773 35.996 33.777s29.782 34.219 29.782 54.656c0 20.452-10.227 39.125-37.774 39.125-18.674 0-29.98-19.285-28.004-31.118 1.828-10.987 9.081-14.428 11.585-15.3 2.328-1.713 5.14-2.788 8.416-2.923 5.319-.227 9.772 3.996 7.553 6.67-3.414 4.096.867 10.254 5.334 1.336 1.336-2.673-2.22-13.34-13.34-13.34-9.33 0-23.993 9.928-23.993 26.227 0 16.285 12.004 32.881 34.219 32.881 37.931 0 47.402-22.656 51.555-56.434 4.152-33.792-8.889-58.226-25.473-71.41-14.037-11.15-16.1-4.963-32.753-13.923-11.55-6.23-5.774-24.605-5.774-24.605-2.361 16.597 16 20.75 16 20.75 1.777 3.555 9.486-1.778 9.486-1.778s14.961 11.25 23.851 11.848c8.889.597 9.928-8.292.442-11.264-9.473-2.959-8.89-17.778-8.89-17.778l1.196-6.513c1.18-6.514-10.525-12.445-10.084-9.785 1.024 6.115-7.111 5.788-9.771 1.777-1.82-2.702-.299-9.771 6.812-11.549 7.112-1.777 13.625-1.18 5.932-5.333-7.71-4.153-21.932 1.18-21.932 1.18l-11.847 9.486-14.08-3.555s3.115 3.256 4.892 7.992c1.778 4.737-4.451 8.008-6.812 3.272-2.375-4.737-12.004-.3-18.518 14.506-6.527 14.82 1.92 27.562 6.073 29.937 2.139 1.224 4.745 5.114 6.77 8.6-.408-1.47-3.996-14.99 3.151-7.412z"/></g><path d="M116.816 281.775c2.629 1.399 5.334 3.209 7.996 5.35 7.156 5.754 14.002 13.916 18.263 23.021 2.732 5.839 4.405 12.064 4.405 18.291 0 4.542-.719 8.912-2.03 12.952-1.313 4.042-3.222 7.751-5.63 10.956-5.546 7.382-13.704 12.103-23.145 12.103-17.635 0-26.084-16.455-26.084-27.122 0-5.18 2.205-9.195 4.472-11.967 2.4-2.935 4.872-4.474 4.872-4.474s-.323.071-.86.259c-2.504.872-9.758 4.314-11.585 15.3-1.977 11.832 9.33 31.119 28.004 31.119 27.549 0 37.774-18.674 37.774-39.125 0-20.438-17.778-42.653-29.782-54.657s-28.445-25.785-35.996-33.777c-7.146-7.578-3.559 5.941-3.152 7.415l.037.136.201.278c8.403 11.515 18.129 26.45 32.24 33.942z" fill="#99aab5"/><g fill="#ccd6dd"><path d="M444.58 247.993c-6.215 4.892-21.035 5.632-21.035 5.632s1.279-2.686 3.066-5.8c-8.404 11.514-18.132 26.456-32.246 33.95-2.629 1.399-5.334 3.209-7.996 5.35l6.655 12.879s26.069-3.713 40.889-19.115 13.383-35.029 10.667-32.897zM365.836 341.708c-.989-3.212-1.541-6.704-1.541-10.444 0-8.155 1.381-15.129 3.902-21.305-2.785 5.894-4.495 12.185-4.495 18.48a41.9 41.9 0 0 0 2.134 13.269zM366.006 342.224l.04.117-.04-.117z"/><path d="M423.691 336.445c1.976 11.832-9.33 31.119-28.004 31.119-27.548 0-37.773-18.674-37.773-39.125 0-20.438 17.777-42.653 29.781-54.657 12.004-12.003 28.445-25.785 35.996-33.777 7.156-7.589 3.549 5.979 3.151 7.421 2.028-3.487 4.64-7.381 6.787-8.606 4.138-2.375 12.586-15.119 6.058-29.938-6.5-14.805-16.142-19.242-18.502-14.506-2.375 4.736-8.605 1.465-6.826-3.271 1.777-4.736 4.892-7.992 4.892-7.992l-14.066 3.554-11.861-9.486s-14.223-5.334-21.917-1.18c-7.708 4.153-1.195 3.555 5.917 5.334 7.111 1.777 8.632 8.846 6.812 11.549-2.66 4.011-10.78 4.337-9.771-1.778.441-2.66-11.264 3.271-10.069 9.785l1.18 6.514s.598 14.82-8.889 17.777c-9.486 2.973-8.447 11.862.442 11.264S380.88 224.6 380.88 224.6s7.709 5.333 9.486 1.777c0 0 18.375-4.152 16-20.75 0 0 5.774 18.375-5.774 24.605-16.653 8.96-18.716 2.774-32.74 13.924-16.597 13.184-29.638 37.617-25.486 71.41 4.153 33.777 13.625 56.434 51.555 56.434 22.215 0 34.219-16.598 34.219-32.882 0-16.298-14.663-26.226-23.993-26.226-11.12 0-14.677 10.666-13.34 13.34 4.467 8.918 8.747 2.759 5.334-1.336-2.219-2.674 2.233-6.898 7.553-6.67 3.276.135 6.088 1.21 8.416 2.922 2.501.87 9.754 4.312 11.581 15.298z"/><path d="M394.521 364.449c17.621 0 26.069-16.455 26.069-27.121 0-5.18-2.205-9.195-4.471-11.967 2.639 3.867 4.012 8.843 4.012 13.754 0 10.084-11.392 25.33-25.613 25.33-8.355 0-17.32-4.5-23.298-12.296 5.55 7.495 13.77 12.3 23.301 12.3z"/></g><path d="M426.611 247.825l.195-.269.036-.131c.398-1.441 4.007-15.009-3.15-7.421-7.553 7.992-23.993 21.773-35.997 33.777S357.914 308 357.914 328.437c0 20.452 10.226 39.125 37.773 39.125 18.674 0 29.98-19.285 28.004-31.118-1.827-10.987-9.08-14.428-11.585-15.3-.536-.188-.86-.259-.86-.259s2.471 1.539 4.873 4.475c2.267 2.771 4.471 6.786 4.471 11.966 0 10.666-8.447 27.121-26.069 27.121-9.532 0-17.751-4.805-23.301-12.3-2.153-2.906-3.906-6.212-5.174-9.807l-.04-.118c-.06-.17-.112-.345-.17-.516a41.9 41.9 0 0 1-2.135-13.269c0-6.295 1.71-12.586 4.495-18.48 4.268-9.03 11.068-17.12 18.173-22.833 2.662-2.142 5.367-3.952 7.996-5.35 14.114-7.494 23.843-22.435 32.246-33.949z" fill="#99aab5"/></svg>