<svg xmlns="http://www.w3.org/2000/svg" viewBox="0 0 512 512"><path d="M455.111 71.111H227.555v156.445H0V384c0 31.416 25.473 56.889 56.889 56.889H455.11C486.527 440.889 512 415.416 512 384V128c0-31.416-25.473-56.889-56.889-56.889z" fill="#ed2939"/><g fill="#fff"><path d="M346.736 317.441h88.747l-44.374-44.373-44.373 44.373zM435.485 199.111h-88.746l44.374 44.374 44.372-44.374zM450.275 302.649v-88.746l-44.374 44.373 44.374 44.373zM331.946 213.903v88.746l44.374-44.374-44.374-44.372z"/></g><path d="M85.334 71.111H56.889C25.472 71.111 0 96.584 0 128v113.778h85.334V71.11z" fill="#002395"/><path d="M85.334 71.111v170.666H0V256h270.222V71.111H85.334z" fill="#eee"/><path d="M256 241.778h-85.334V71.11H256v170.666z" fill="#ed2939"/><path d="M170.666 241.778H85.334V71.11h85.334v170.666z" fill="#eee"/></svg>