<svg xmlns="http://www.w3.org/2000/svg" viewBox="0 0 512 512"><path d="M455.112 71.113H56.894C25.477 71.113.006 96.585.006 128.001v255.997c0 31.417 25.472 56.888 56.888 56.888h398.218c31.417 0 56.888-25.472 56.888-56.888V128.001c0-31.416-25.472-56.888-56.888-56.888z" fill="#00247d"/><path d="M270.225 256v-28.857l-100.977-70.698H94.881L237.059 256h33.166z" fill="#eee"/><path d="M270.225 235.833l-113.364-79.388h-24.789l138.153 96.738v-17.35z" fill="#cf1b2b"/><path d="M115.199 156.446L0 238.45V256h47.388l142.192-99.554h-74.381z" fill="#eee"/><path d="M152.379 156.446L10.443 256h24.561l142.178-99.554h-24.803z" fill="#cf1b2b"/><path d="M237.072 71.113L94.894 170.668h74.367L270.223 99.97V71.113h-33.151z" fill="#eee"/><path d="M249.447 71.113l-142.164 99.554h24.789l138.153-96.738v-2.816h-20.778z" fill="#cf1b2b"/><path d="M9.432 96.649l132.795 92.949v-18.93h47.331L48.315 71.758c-16.227 2.456-30.198 11.77-38.883 24.891z" fill="#eee"/><path d="M13.785 90.906l128.441 90.031v-10.268h10.155L24.589 81.185a57.209 57.209 0 0 0-10.804 9.721z" fill="#cf1b2b"/><path d="M270.225 128.001h-99.554V71.113H99.56v56.888H.006v71.11H99.56V256h71.11v-56.888h99.554v-71.111z" fill="#eee"/><g fill="#cf1b2b"><path d="M156.449 256h-42.666V71.113h42.666V256z"/><path d="M270.225 184.89H.006v-42.666h270.219v42.666z"/></g><path d="M382.821 165.633h-71.708v131.255c0 21.646 71.708 52.735 71.708 52.735s71.708-31.089 71.708-52.735V165.633h-71.708z" fill="#fff"/><path d="M382.821 341.86c-31.715-14.151-64.597-35.128-64.597-44.97V172.746h129.193V296.89c.001 9.856-32.881 30.834-64.596 44.97" fill="#006129"/><path d="M356.669 254.445c-2.901 1.124-3.783-6.67 0-12.217 3.783-5.561 14.891-16.896 17.337-27.335 2.446-10.453 6.741-8.889 8.818-11.776 2.062-2.901 2.375-6.229 0-6.898-2.375-.668-5.717-1.55-3.484-10.211 2.219-8.675 11.776-7.779 11.776-1.778 0 5.987-2.219 11.321 0 15.986 2.219 4.679 7.339 3.556 10.439 12.444 3.115 8.889 4.224 17.564 2.233 21.347-2.005 3.769-3.115 18.218-5.788 21.987-2.66 3.783-6.215 2.233-5.547-4.665.668-6.883 5.106-16.213 6.443-21.106 1.337-4.892-2.005-14.891-6.898-16-4.878-1.109-13.767 10.226-17.778 14.89-3.996 4.665-12.658 8.22-13.113 12.003-.441 3.772-1.551 12.219-4.438 13.329" fill="#ffc6b5"/><path d="M409.112 311.106c-5.106 1.109-16.441 5.333-22.67 3.783-6.215-1.564-17.337 2.432-18.887.327s1.55-13.667 2.005-19.001c.441-5.333 1.109-10.667.213-10.667-.882 0-4.636 0-2.645-9.557 1.977-9.557 5.319-27.107 5.319-27.107s-3.342-1.337-1.337-6.67 4.452-17.991 3.783-20.878c-.668-2.901-5.561-2.005-3.783-6.457 1.778-4.437 3.115-5.333 4.452-8.661 1.323-3.328 4.068-5.959 6.002-5.106 1.92.839 4.11 3.328 6.272 1.991 2.162-1.323 2.389-3.328 5.276-3.1 2.887.213 9.074 6.016 7.779 7.324-1.294 1.308-3.641 5.831-4.039 11.477-.412 5.632-3.968 19.413-5.077 23.865-1.109 4.437 3.783 15.104 6.443 25.102 2.673 9.999 10.894 43.335 10.894 43.335" fill="#fff"/><path d="M379.473 179.606c1.294-3.428 7.637-6.272 12.971-2.048 5.333 4.224 7.552 12.003 3.783 16.668-3.783 4.665-5.973 3.556-7.438 0-1.451-3.556.1-6.741-1.906-7.808-1.991-1.081-.213-4.195-1.991-4.864-1.778-.668-7.282 2.987-5.419-1.948" fill="#9c5100"/><path d="M328.735 177.558c-.91-.996-3.172 3.129-2.276 6.016.882 2.901.654 5.618 2.404 5.191 1.749-.441 1.323-2.972 2.475-4.992.882-1.55-2.674-1.109-1.564-2.887l-1.039-3.328z" fill="red"/><path d="M325.113 187.778h11.776s1.55-5.333 3.996-5.561c2.446-.213 3.115 5.333 3.115 5.333s5.561 1.337 8.007-.213c2.446-1.564 8.434.213 3.769 2.887-4.665 2.66-1.991-2.887-4.665 0-2.66 2.887-5.106 3.996-4.665 5.106.441 1.109-1.394 1.991-5.134 1.991-3.755 0-6.201-.882-5.76-2.66.455-1.778-2.446-2.446-5.774-3.1-3.328-.668-4.665-3.783-4.665-3.783" fill="#f8c600"/><path d="M328.735 200.141c-.91-.996-3.172 3.129-2.276 6.016.882 2.901.654 5.618 2.404 5.191 1.749-.441 1.323-2.972 2.475-4.992.882-1.55-2.674-1.109-1.564-2.887l-1.039-3.328z" fill="red"/><path d="M325.113 210.362h11.776s1.55-5.333 3.996-5.561c2.446-.213 3.115 5.333 3.115 5.333s5.561 1.337 8.007-.213c2.446-1.564 8.434.213 3.769 2.887-4.665 2.66-1.991-2.887-4.665 0-2.66 2.887-5.106 3.996-4.665 5.106.441 1.109-1.394 1.991-5.134 1.991-3.755 0-6.201-.882-5.76-2.66.455-1.778-2.446-2.446-5.774-3.1-3.328-.668-4.665-3.783-4.665-3.783" fill="#f8c600"/><path d="M328.735 225.249c-.91-.996-3.172 3.129-2.276 6.016.882 2.901.654 5.618 2.404 5.191 1.749-.441 1.323-2.972 2.475-4.992.882-1.55-2.674-1.109-1.564-2.887l-1.039-3.328z" fill="red"/><path d="M325.113 235.472h11.776s1.55-5.333 3.996-5.561c2.446-.213 3.115 5.333 3.115 5.333s5.561 1.337 8.007-.213c2.446-1.564 8.434.213 3.769 2.887-4.665 2.66-1.991-2.887-4.665 0-2.66 2.887-5.106 3.996-4.665 5.106.441 1.109-1.394 1.991-5.134 1.991-3.755 0-6.201-.882-5.76-2.66.455-1.778-2.446-2.446-5.774-3.1-3.328-.669-4.665-3.783-4.665-3.783" fill="#f8c600"/><path d="M342.957 249.694c-.91-.996-3.172 3.129-2.276 6.016.882 2.901.654 5.618 2.404 5.191 1.749-.441 1.323-2.972 2.475-4.992.882-1.55-2.674-1.109-1.564-2.887l-1.039-3.328z" fill="red"/><path d="M339.335 259.918h11.776s1.55-5.333 3.996-5.561c2.446-.213 3.115 5.333 3.115 5.333s5.561 1.337 8.007-.213c2.446-1.564 8.434.213 3.769 2.887-4.665 2.66-1.991-2.887-4.665 0-2.66 2.887-5.106 3.996-4.665 5.106s-1.394 1.991-5.134 1.991c-3.755 0-6.201-.882-5.76-2.66.455-1.778-2.446-2.446-5.774-3.1-3.328-.669-4.665-3.783-4.665-3.783" fill="#f8c600"/><path d="M327.909 269.608c-.896-.996-3.172 3.129-2.276 6.03.882 2.887.654 5.603 2.404 5.163 1.749-.427 1.323-2.958 2.475-4.978.882-1.55-2.674-1.109-1.564-2.887l-1.039-3.328z" fill="red"/><path d="M324.281 279.834h11.776s1.55-5.333 3.996-5.561c2.446-.213 3.115 5.333 3.115 5.333s5.561 1.337 8.007-.213c2.446-1.564 8.434.213 3.769 2.887-4.665 2.66-1.991-2.887-4.665 0-2.66 2.887-5.106 3.996-4.665 5.106s-1.394 1.991-5.134 1.991c-3.755 0-6.201-.882-5.76-2.66.455-1.778-2.446-2.446-5.774-3.1-3.329-.669-4.665-3.783-4.665-3.783" fill="#f8c600"/><path d="M327.909 293.389c-.896-.996-3.172 3.129-2.276 6.03.882 2.887.654 5.603 2.404 5.163 1.749-.427 1.323-2.958 2.475-4.978.882-1.55-2.674-1.109-1.564-2.887l-1.039-3.328z" fill="red"/><path d="M324.281 303.611h11.776s1.55-5.333 3.996-5.561c2.446-.213 3.115 5.333 3.115 5.333s5.561 1.337 8.007-.213c2.446-1.564 8.434.213 3.769 2.887-4.665 2.66-1.991-2.887-4.665 0-2.66 2.887-5.106 3.996-4.665 5.106s-1.394 1.991-5.134 1.991c-3.755 0-6.201-.882-5.76-2.66.455-1.778-2.446-2.446-5.774-3.1-3.329-.668-4.665-3.783-4.665-3.783" fill="#f8c600"/><path d="M412.737 293.389c-.91-.996-3.172 3.129-2.276 6.03.882 2.887.654 5.603 2.404 5.163 1.749-.427 1.323-2.958 2.475-4.978.882-1.55-2.674-1.109-1.564-2.887l-1.039-3.328z" fill="red"/><path d="M409.112 303.611h11.776s1.55-5.333 3.996-5.561c2.446-.213 3.115 5.333 3.115 5.333s5.561 1.337 8.007-.213c2.446-1.564 8.434.213 3.769 2.887-4.665 2.66-1.991-2.887-4.665 0-2.66 2.887-5.106 3.996-4.665 5.106s-1.394 1.991-5.134 1.991c-3.755 0-6.201-.882-5.76-2.66.455-1.778-2.446-2.446-5.774-3.1-3.328-.668-4.665-3.783-4.665-3.783" fill="#f8c600"/><path d="M412.737 271.055c-.91-.996-3.172 3.129-2.276 6.03.882 2.887.654 5.603 2.404 5.163 1.749-.427 1.323-2.958 2.475-4.978.882-1.55-2.674-1.109-1.564-2.887l-1.039-3.328z" fill="red"/><path d="M409.112 281.278h11.776s1.55-5.333 3.996-5.561c2.446-.213 3.115 5.333 3.115 5.333s5.561 1.337 8.007-.213c2.446-1.564 8.434.213 3.769 2.887-4.665 2.659-1.991-2.887-4.665 0-2.66 2.887-5.106 3.996-4.665 5.106s-1.394 1.991-5.134 1.991c-3.755 0-6.201-.882-5.76-2.66.455-1.778-2.446-2.446-5.774-3.1-3.328-.669-4.665-3.783-4.665-3.783" fill="#f8c600"/><path d="M412.737 248.202c-.91-.996-3.172 3.129-2.276 6.03.882 2.887.654 5.603 2.404 5.163 1.749-.427 1.323-2.958 2.475-4.978.882-1.55-2.674-1.109-1.564-2.887l-1.039-3.328z" fill="red"/><path d="M409.112 258.424h11.776s1.55-5.333 3.996-5.561c2.446-.213 3.115 5.333 3.115 5.333s5.561 1.337 8.007-.213c2.446-1.564 8.434.213 3.769 2.887-4.665 2.66-1.991-2.887-4.665 0-2.66 2.887-5.106 3.996-4.665 5.106s-1.394 1.991-5.134 1.991c-3.755 0-6.201-.882-5.76-2.659.455-1.778-2.446-2.446-5.774-3.1-3.328-.669-4.665-3.784-4.665-3.784" fill="#f8c600"/><path d="M412.737 225.249c-.91-.996-3.172 3.129-2.276 6.03.882 2.887.654 5.603 2.404 5.163 1.749-.427 1.323-2.958 2.475-4.978.882-1.55-2.674-1.109-1.564-2.887l-1.039-3.328z" fill="red"/><path d="M409.112 235.472h11.776s1.55-5.333 3.996-5.561c2.446-.213 3.115 5.333 3.115 5.333s5.561 1.337 8.007-.213c2.446-1.564 8.434.213 3.769 2.887-4.665 2.66-1.991-2.887-4.665 0-2.66 2.887-5.106 3.996-4.665 5.106s-1.394 1.991-5.134 1.991c-3.755 0-6.201-.882-5.76-2.66.455-1.778-2.446-2.446-5.774-3.1-3.328-.669-4.665-3.783-4.665-3.783" fill="#f8c600"/><path d="M412.737 201.584c-.91-.996-3.172 3.129-2.276 6.03.882 2.887.654 5.603 2.404 5.163 1.749-.427 1.323-2.958 2.475-4.978.882-1.55-2.674-1.109-1.564-2.887l-1.039-3.328z" fill="red"/><path d="M409.112 211.809h11.776s1.55-5.333 3.996-5.561c2.446-.213 3.115 5.333 3.115 5.333s5.561 1.337 8.007-.213c2.446-1.564 8.434.213 3.769 2.887-4.665 2.66-1.991-2.887-4.665 0-2.66 2.887-5.106 3.996-4.665 5.106s-1.394 1.991-5.134 1.991c-3.755 0-6.201-.882-5.76-2.66.455-1.778-2.446-2.446-5.774-3.1-3.328-.669-4.665-3.783-4.665-3.783" fill="#f8c600"/><path d="M412.737 177.558c-.91-.996-3.172 3.129-2.276 6.03.882 2.887.654 5.603 2.404 5.163 1.749-.427 1.323-2.958 2.475-4.978.882-1.55-2.674-1.109-1.564-2.887l-1.039-3.328z" fill="red"/><path d="M382.821 376.444c-25.657 0-49.706-9.5-73.329-29.013-2.489 2.034-5.66 3.726-9.358 3.726-2.745 0-5.362-.967-7.58-2.816-5.404-4.494-8.661-11.065-8.334-16.739.242-4.039 2.19-7.438 5.461-9.557 3.996-2.617 9.87-8.206 10.894-9.87 4.011-6.656 8.604-8.05 11.762-8.05 2.304 0 5.717.768 8.846 4.409.27.299 29.397 31.246 61.638 31.246s61.368-30.947 61.638-31.246c3.129-3.641 6.542-4.409 8.846-4.409 3.157 0 7.751 1.394 11.762 8.05 1.01 1.664 6.898 7.253 10.894 9.87 3.271 2.119 5.219 5.518 5.461 9.557.327 5.675-2.93 12.245-8.334 16.739-2.219 1.849-4.836 2.816-7.595 2.816-3.684 0-6.855-1.692-9.344-3.726-23.622 19.513-47.671 29.013-73.328 29.013" fill="#fff"/><g fill="#f8c600"><path d="M409.112 187.778h11.776s1.55-5.333 3.996-5.561c2.446-.213 3.115 5.333 3.115 5.333s5.561 1.337 8.007-.213c2.446-1.564 8.434.213 3.769 2.887-4.665 2.66-1.991-2.887-4.665 0-2.66 2.887-5.106 3.996-4.665 5.106.441 1.109-1.394 1.991-5.134 1.991-3.755 0-6.201-.882-5.76-2.66.455-1.778-2.446-2.446-5.774-3.1-3.328-.668-4.665-3.783-4.665-3.783M472.081 328c-4.437-2.887-11.335-9.187-13.113-12.16-1.778-2.944-5.333-7.097-9.102-2.688-3.783 4.409-33.863 33.735-67.043 33.735s-63.274-29.326-67.043-33.735c-3.783-4.409-7.339-.256-9.116 2.688-1.778 2.972-8.661 9.273-13.113 12.16-4.437 2.887-1.778 10.439 3.556 14.891 5.333 4.437 11.776-5.333 11.776-5.333 18.446 16.441 42.453 31.772 73.94 31.772s55.48-15.331 73.926-31.772c0 0 6.443 9.771 11.776 5.333 5.334-4.452 7.993-12.004 3.556-14.891"/></g></svg>