<svg xmlns="http://www.w3.org/2000/svg" viewBox="0 0 512 512"><path d="M455.111 71.111H56.89C25.472 71.111 0 96.584 0 128v256c0 31.416 25.472 56.889 56.889 56.889H455.11C486.527 440.889 512 415.416 512 384V128c0-31.416-25.473-56.889-56.889-56.889z" fill="#eee"/><path d="M56.889 71.111C25.472 71.111 0 96.584 0 128v256c0 31.416 25.473 56.889 56.889 56.889H256V71.11H56.889z" fill="#ffe000"/><g fill="#a3a3a3"><path d="M445.67 202.444l4.665-8.675-9.557 4.337 4.892 4.338z"/><path d="M446.084 194.589c0 1.949 1.565 3.527 3.512 3.527s3.513-1.579 3.513-3.527a3.512 3.512 0 1 0-7.025 0M437.903 196.65c-1.65 1.635-.81 5.149 1.863 7.807 2.659 2.674 6.159 3.513 7.808 1.864 1.65-1.65.81-5.149-1.864-7.807-2.66-2.675-6.172-3.514-7.807-1.864"/></g><g fill="#ce9d0a"><path d="M356.694 278.222c5.39 5.105 9.97-1.493 18.575-9.116 7.85-6.954 59.549-55.04 65.11-59.932 5.546-4.879.399-12.288-6.045-6.287-6.443 6.002-68.281 57.785-72.918 62.01-4.636 4.208-10.695 7.664-4.722 13.326"/><path d="M439 207.049l6.215 6.941-3.1 2.674 3.1 2.659 3.114-2.66 4.451 4.893v4.879l-8.675 7.339-5.105-3.328v-4.01h-4.224v3.784l2.219.228 2.006 2.218.228 5.12-7.68 6.215-15.773-14.947L439 207.049zM329.01 293.86c-3.797-.056-6.855-3.129-6.855-6.913a6.954 6.954 0 0 1 6.954-6.953c3.825 0 6.941 3.113 6.941 6.953 0 .03-.015.072-.015.1.199-.016.37-.128.584-.128.015-3.825 3.129-6.926 6.941-6.926a6.954 6.954 0 0 1 6.954 6.953c0 3.784-3.058 6.855-6.855 6.913 3.797.071 6.855 3.144 6.855 6.926a6.954 6.954 0 0 1-6.954 6.954c-3.825 0-6.926-3.114-6.941-6.941-.214 0-.384-.114-.598-.114 0 .029.029.056.029.099 0 3.84-3.114 6.953-6.941 6.953a6.954 6.954 0 0 1-6.954-6.953c0-3.78 3.058-6.852 6.855-6.923m-13.568-.014c0 11.69 9.487 21.177 21.177 21.177s21.176-9.487 21.176-21.177-9.486-21.176-21.176-21.176-21.177 9.486-21.177 21.176"/></g><g fill="#a3a3a3"><path d="M350.459 273.736c-1.65 1.635-.81 5.149 1.864 7.808 2.658 2.674 6.158 3.512 7.807 1.864 1.65-1.65.81-5.15-1.864-7.808-2.66-2.675-6.172-3.514-7.807-1.864M316.403 276.404a3.626 3.626 0 0 0 3.64 3.626 3.632 3.632 0 0 0 3.627-3.626 3.636 3.636 0 0 0-3.626-3.641 3.63 3.63 0 0 0-3.641 3.64M348.029 311.408a3.626 3.626 0 0 0 3.641 3.626 3.632 3.632 0 0 0 3.626-3.626 3.636 3.636 0 0 0-3.626-3.642 3.629 3.629 0 0 0-3.641 3.642M315.445 310.236a3.626 3.626 0 0 0 3.641 3.626 3.632 3.632 0 0 0 3.626-3.626 3.636 3.636 0 0 0-3.626-3.641 3.63 3.63 0 0 0-3.641 3.641"/></g><g fill="#b5b5b5"><path d="M416.558 242.951c1.976-1.295 3.485-3.057 4.495-5.262 4.252-9.273-1.024-24.178-4.253-29.953-3.939-7.055-1.521-11.676.384-13.881a5.647 5.647 0 0 0-1.864-.341c-1.55 0-3.057.753-4.451 2.247-4.139 4.424-2.19 10.326 3.599 23.736 4.35 10.042 6.042 17.31 2.09 23.454"/><path d="M408.611 199.722c2.048-2.958 5.163-4.607 9.003-4.607 3.114 0 6.329 1.166 9.031 3.215l3.983-6.001c-1.764-1.465-6.017-4.509-10.824-4.509-1.265 0-2.489.214-3.67.64-5.447 1.932-7.267 6.954-7.523 11.262"/></g><g fill="#ce9d0a"><path d="M322.889 202.444l-4.665-8.675 9.557 4.337-4.892 4.338z"/><path d="M322.473 194.589c0 1.949-1.565 3.527-3.513 3.527s-3.512-1.579-3.512-3.527a3.513 3.513 0 0 1 7.025 0M330.652 196.65c1.65 1.635.81 5.149-1.863 7.807-2.66 2.674-6.159 3.513-7.808 1.864-1.65-1.65-.81-5.149 1.864-7.807 2.66-2.675 6.172-3.514 7.807-1.864"/></g><g fill="#a3a3a3"><path d="M411.861 278.222c-5.39 5.105-9.97-1.493-18.575-9.116-7.85-6.954-59.549-55.04-65.11-59.932-5.546-4.879-.399-12.288 6.045-6.287 6.443 6.002 68.281 57.785 72.918 62.01 4.637 4.208 10.695 7.664 4.722 13.326"/><path d="M329.554 207.049l-6.215 6.941 3.101 2.674-3.101 2.659-3.114-2.66-4.451 4.893v4.879l8.675 7.339 5.105-3.328v-4.01h4.224v3.784l-2.22.228-2.005 2.218-.228 5.12 7.68 6.215 15.773-14.947-23.224-22.005zM446.389 300.79a6.941 6.941 0 0 1-6.942 6.941c-3.84 0-6.953-3.101-6.953-6.941 0-.043.028-.071.028-.114-.198.015-.383.128-.597.128-.015 3.825-3.101 6.926-6.941 6.926a6.943 6.943 0 0 1-6.942-6.941c0-3.798 3.058-6.855 6.842-6.926-3.784-.057-6.842-3.13-6.842-6.927 0-3.825 3.114-6.941 6.942-6.941s6.926 3.101 6.941 6.913c.214 0 .399.113.584.127 0-.029-.015-.071-.015-.099 0-3.825 3.113-6.941 6.953-6.941 3.825 0 6.942 3.114 6.942 6.941 0 3.798-3.058 6.87-6.842 6.927 3.784.073 6.842 3.13 6.842 6.927m-14.464-28.116c-11.69 0-21.176 9.472-21.176 21.176 0 11.69 9.486 21.176 21.176 21.176 11.705 0 21.191-9.486 21.191-21.176 0-11.704-9.486-21.176-21.191-21.176"/></g><g fill="#ce9d0a"><path d="M418.099 273.736c1.65 1.635.81 5.149-1.864 7.808-2.659 2.674-6.159 3.512-7.808 1.864-1.65-1.65-.81-5.15 1.864-7.808 2.659-2.675 6.173-3.514 7.808-1.864M452.152 276.404a3.626 3.626 0 0 1-3.64 3.626 3.632 3.632 0 0 1-3.627-3.626 3.636 3.636 0 0 1 3.626-3.641 3.63 3.63 0 0 1 3.641 3.64M420.528 311.408a3.626 3.626 0 0 1-3.642 3.626 3.632 3.632 0 0 1-3.626-3.626 3.636 3.636 0 0 1 3.626-3.642 3.63 3.63 0 0 1 3.642 3.642M453.11 310.236a3.626 3.626 0 0 1-3.641 3.626 3.632 3.632 0 0 1-3.626-3.626 3.636 3.636 0 0 1 3.626-3.641 3.629 3.629 0 0 1 3.641 3.641"/></g><path d="M404.445 195.113c0 20.863-9.087 20.295-20.31 20.295-11.207 0-20.281.568-20.281-20.295s9.074-43.407 20.281-43.407c11.221 0 20.31 22.543 20.31 43.407"/><path d="M383.235 213.986c-6.03 0-10.24-.185-13.128-2.417-3.298-2.575-4.85-7.808-4.85-16.455 0-21.192 9.344-41.984 18.873-41.984s18.901 20.793 18.901 41.984c0 18.872-7.594 18.872-17.181 18.872h-2.615z" fill="#fff"/><g fill="#ce9d0a"><path d="M394.75 199.701c-7.111-2.076-5.959-8.889-10.61-8.889s-3.499 6.813-10.61 8.89c-7.096 2.062-10.61-1.182-10.61-1.182l3.314 13.625s5.959-5.034 17.905-5.034 17.905 5.034 17.905 5.034l3.313-13.625c.003 0-3.51 3.242-10.607 1.181"/><path d="M395.917 181.675c-7.893-2.176-6.613-9.359-11.776-9.359s-3.896 7.183-11.776 9.359c-7.879 2.176-11.761-1.238-11.761-1.238l3.655 14.337s6.627-5.29 19.882-5.29 19.869 5.29 19.869 5.29l3.67-14.336c-.001 0-3.884 3.413-11.763 1.237"/><path d="M394.055 162.777c-6.641-1.833-5.575-7.878-9.912-7.878-4.353 0-3.287 6.045-9.928 7.878-6.614 1.834-9.899-1.038-9.899-1.038l3.102 12.061s5.575-3.358 16.726-3.358c11.15 0 16.726 3.358 16.726 3.358l3.086-12.061c-.002 0-3.274 2.872-9.901 1.038M381.61 149.305c0 2.105 1.137 3.825 2.531 3.825 1.379 0 2.518-1.721 2.518-3.825 0-2.119-1.138-3.825-2.518-3.825-1.392-.001-2.531 1.705-2.531 3.825"/><path d="M377.75 145.154c0 1.45 2.859 2.646 6.385 2.646s6.385-1.194 6.385-2.646c0-1.465-2.859-2.646-6.385-2.646s-6.385 1.18-6.385 2.646"/><path d="M381.61 141.304c0 1.465 1.137 2.646 2.531 2.646 1.379 0 2.518-1.181 2.518-2.646s-1.138-2.646-2.518-2.646c-1.392 0-2.531 1.18-2.531 2.646"/></g><g fill="#b5b5b5"><path d="M351.721 242.951c-1.976-1.295-3.485-3.057-4.495-5.262-4.252-9.273 1.024-24.178 4.239-29.953 3.954-7.055 1.536-11.676-.37-13.881a5.647 5.647 0 0 1 1.864-.341c1.55 0 3.057.753 4.437 2.247 4.153 4.424 2.205 10.326-3.599 23.736-4.336 10.042-6.03 17.31-2.076 23.454"/><path d="M359.667 199.722c-2.047-2.958-5.162-4.607-9.002-4.607-3.114 0-6.329 1.166-9.031 3.215l-3.983-6.001c1.763-1.465 6.016-4.509 10.824-4.509 1.265 0 2.489.214 3.67.64 5.431 1.932 7.266 6.954 7.523 11.262"/></g><g fill="#fa0204"><path d="M384.139 241.778c2.845 2.19 3.498 10.666 3.498 20.665v77.993s4.367 1.124 3.03 12.673c-.383 3.314-6.883 2.674-8.007 0-1.11-2.659-.569-11.25 1.479-12.445V263.11c0-11.563-1.935-16.029-2.532-18.219s1.153-4.18 2.532-3.114"/><path d="M410.945 295.805c-2.788-1.949-6.699-6.855-10.055-11.549-4.451-6.23-5.561-10.481-9.97-15.815-4.424-5.333-15.958-16.383-18.703-16-1.08.157-2.218 2.674-1.18 3.555 1.052.897 4.294 4.452 11.633 9.999 7.325 5.561 8.434 11.776 14.562 20.665 5.662 8.221 10.525 13.81 14.92 14.578-.638-1.707-1.022-3.54-1.207-5.433"/><path d="M396.515 249.611c-2.603 2.489-10.652 10.368-15.032 15.488-4.367 5.12-9.928 17.351-14.82 22.897-3.128 3.555-6.542 6.599-9.116 8.476-.24 1.935-.655 3.798-1.378 5.533 3.527-1.181 8.576-4.424 14.876-13.567 8.732-12.658 12.957-21.988 17.181-25.544 4.224-3.555 5.916-4.623 8.291-7.083 2.373-2.474 2.614-8.703-.002-6.2"/><path d="M378.931 260v82.219c-4.707 3.784-3.37 10.055-2.489 13.141.897 3.086 8.577 3.073 9.77 1.521 1.194-1.536 1.522-11.99-2.887-15.545v-76.231c.001-1.99-4.394-8.163-4.394-5.105"/><path d="M350.07 298.414c-4.224 2.944-7.85 8.021 1.593 11.805 9.443 3.784 21.944 8.889 32.47 8.889 10.538 0 30.193-7.14 34.816-10.34 4.607-3.214 6.598-7.054-.739-9.215-3.855-1.138-4.438 1.777-2.433 2.446 2.005.669 4.338 2.745-.726 4.594-5.049 1.848-16.611 7.267-31.715 7.267-15.119 0-29.341-6.442-31.672-7.268-2.333-.81-2.973-3.484-1.309-4.593 1.649-1.11 1.606-4.908-.285-3.585"/></g><g fill="#ce9d0a"><path d="M389.348 337.904a3.005 3.005 0 0 1-3.015 3.001 3.001 3.001 0 0 1-3.002-3.001 3.014 3.014 0 0 1 3.001-3.015 3.017 3.017 0 0 1 3.016 3.015"/><path d="M384.279 339.902a3.005 3.005 0 0 1-3.015 3.002 3.001 3.001 0 0 1-3.001-3.001 3.013 3.013 0 0 1 3-3.016 3.017 3.017 0 0 1 3.016 3.015"/></g></svg>