<svg xmlns="http://www.w3.org/2000/svg" viewBox="0 0 512 512"><path d="M512 384c0 31.418-25.473 56.889-56.889 56.889H56.89C25.472 440.889 0 415.417 0 384V128c0-31.418 25.472-56.889 56.889-56.889H455.11C486.53 71.111 512 96.584 512 128v256z" fill="#4b92db"/><g fill="#fff"><path d="M190.961 162.745c-6.429 5.646-10.724 12.9-15.659 19.427-4.11 5.433-9.742 8.804-14.592 13.356 2.617-5.433 3.1-11.648 6.414-16.897 5.69-8.989 15.077-12.472 23.837-15.886M155.79 182.4c3.356-3.713 7.098-6.599 11.563-7.751-8.662 5.959-8.193 16.611-10.852 25.515-.967 3.257-2.388 6.3-3.157 9.671l.227.171c1.437-3.797 3.912-7.452 7.14-10.496 6.088-5.746 15.246-9.23 18.261-17.635-.127 11.676-10.097 20.565-19.2 27.435-4.08 3.086-7.537 7.225-9.657 11.562.355-3.228.512-5.916.227-9.06-.937-10.212-1.55-21.66 5.448-29.412zm-17.521 34.888c0-10.354 4.025-18.788 10.069-26.482.17-.1.298-.27.526-.227-6.656 10.112-.598 22.884-1.451 34.361l-.882 11.776c.128.085.128.442.442.299.398-1.309.512-2.702.74-4.067 1.607-9.487 9.94-16.1 17.01-22.8a15.333 15.333 0 0 0 3.683-5.474c-.582 4.736-1.906 9.571-4.025 13.881-5.447 11.008-15.957 19.898-17.848 32.426-.912-12.005-8.264-20.922-8.264-33.693m-5.035 14.69c.754-3.228 1.322-6.57 2.716-9.542-2.66 13.668 6.429 23.538 9.543 35.372 1.166 4.45 1.565 9.187 3.37 13.34.172.1.313-.085.413-.214-4.48-12.586 2.091-24.22 8.505-34.134 1.679-2.617 2.489-5.646 3.271-8.719.698 5.703-.512 12.288-1.564 18.177-1.365 7.566-3.954 14.662-6.002 21.958-1.351 4.565-.995 9.714-.298 14.493l-.654-.526c-4.779-8.804-14.18-15.688-17.024-25.288-2.276-7.679-3.841-16.554-2.276-24.916zm-.427 26.696c1.053 14.492 16.47 22.229 23.823 34.147 1.579 2.531 3.2 5.163 5.475 7.211-.355-1.536-1.621-2.9-2.319-4.422-2.361-5.106-3.427-11.022-2.845-17.095.711-7.395 3.798-14.265 2.618-22.059 6.342 13.681 4.295 30.791 7.965 45.596.811 3.272 2.801 6.13 4.025 9.23-6.229-4.736-14.393-8.946-21.234-14.336-6.599-5.205-12.345-11.321-15.331-19.271-2.149-5.718-2.703-12.559-2.177-19.001zm7.78 33.28c7.267 16.441 25.514 17.721 37.646 27.819 2.303 1.92 4.593 3.683 7.125 4.863l.127-.142c-2.801-2.531-5.831-5.546-7.992-8.69-6.94-10.084-4.623-23.851-9.97-34.546 4.85 5.817 9.415 11.818 12.202 18.475 4.509 10.708 6.03 22.94 16.128 31.09-10.923-3.613-23.524-2.888-33.365-9.33-10.353-6.784-19.94-17.48-21.902-29.54zm18.66 30.677c11.647 13.255 30.634 8.989 46.18 12.303 2.176.455 4.194 1.166 6.527.811-1.849-1.166-4.295-1.294-6.443-2.105-12.06-4.537-13.937-17.451-20.537-26.34 8.434 5.604 15.417 13.284 23.296 20.494 5.49 5.02 12.331 7.167 19.414 8.605-1.706.626-3.925.484-5.76.939-12.743 3.157-26.851 8.148-40.405 3.668-8.748-2.887-17.85-9.714-22.273-18.375m129.991 36.523c-1.422 1.635-3.27 3.157-5.006 4.565-11.25-11.62-24.447-24.491-36.977-24.491-7.78 0-13.383 5.916-19.925 10.097-9.06 5.789-21.504 9.06-32.157 4.808-5.73-2.177-11.292-5.39-15.445-10.595 8.392 5.788 20.964 6.556 30.422 2.63 10.481-4.337 21.133-10.112 33.066-10.112 17.577.002 34.289 11.905 46.022 23.098"/><path d="M321.066 162.745c6.429 5.646 10.724 12.9 15.659 19.427 4.11 5.433 9.742 8.804 14.592 13.356-2.617-5.433-3.1-11.648-6.413-16.897-5.69-8.989-15.076-12.472-23.838-15.886M356.24 182.4c-3.356-3.713-7.098-6.599-11.563-7.751 8.661 5.959 8.193 16.611 10.851 25.515.968 3.257 2.39 6.3 3.158 9.671l-.227.171c-1.437-3.797-3.912-7.452-7.14-10.496-6.088-5.746-15.247-9.23-18.262-17.635.128 11.676 10.098 20.565 19.2 27.435 4.081 3.086 7.538 7.225 9.658 11.562-.355-3.228-.513-5.916-.228-9.06.938-10.212 1.549-21.66-5.447-29.412zm17.521 34.888c0-10.354-4.025-18.788-10.069-26.482-.171-.1-.299-.27-.526-.227 6.656 10.112.597 22.884 1.451 34.361l.881 11.776c-.127.085-.127.442-.44.299-.4-1.309-.513-2.702-.74-4.067-1.608-9.487-9.942-16.1-17.01-22.8a15.333 15.333 0 0 1-3.685-5.474c.583 4.736 1.907 9.571 4.025 13.881 5.448 11.008 15.958 19.898 17.85 32.426.91-12.005 8.263-20.922 8.263-33.693m5.035 14.69c-.754-3.228-1.323-6.57-2.716-9.542 2.66 13.668-6.429 23.538-9.543 35.372-1.166 4.45-1.565 9.187-3.371 13.34-.171.1-.313-.085-.413-.214 4.48-12.586-2.09-24.22-8.505-34.134-1.678-2.617-2.488-5.646-3.27-8.719-.698 5.703.512 12.288 1.564 18.177 1.365 7.566 3.954 14.662 6.001 21.958 1.352 4.565.996 9.714.3 14.493l.653-.526c4.779-8.804 14.18-15.688 17.024-25.288 2.276-7.679 3.84-16.554 2.276-24.916zm.426 26.696c-1.052 14.492-16.468 22.229-23.822 34.147-1.579 2.531-3.2 5.163-5.475 7.211.355-1.536 1.621-2.9 2.319-4.422 2.36-5.106 3.427-11.022 2.845-17.095-.712-7.395-3.798-14.265-2.618-22.059-6.342 13.681-4.295 30.791-7.965 45.596-.811 3.272-2.801 6.13-4.025 9.23 6.229-4.736 14.393-8.946 21.234-14.336 6.599-5.205 12.345-11.321 15.331-19.271 2.148-5.718 2.703-12.559 2.176-19.001zm-7.78 33.28c-7.267 16.441-25.515 17.721-37.646 27.819-2.304 1.92-4.594 3.683-7.125 4.863l-.127-.142c2.8-2.531 5.83-5.546 7.992-8.69 6.94-10.084 4.623-23.851 9.97-34.546-4.85 5.817-9.415 11.818-12.202 18.475-4.51 10.708-6.03 22.94-16.128 31.09 10.923-3.613 23.524-2.888 33.365-9.33 10.354-6.784 19.939-17.48 21.901-29.54zm-18.658 30.677c-11.648 13.255-30.635 8.989-46.18 12.303-2.177.455-4.195 1.166-6.528.811 1.849-1.166 4.295-1.294 6.443-2.105 12.06-4.537 13.937-17.451 20.537-26.34-8.434 5.604-15.417 13.284-23.296 20.494-5.49 5.02-12.331 7.167-19.414 8.605 1.706.626 3.925.484 5.76.939 12.743 3.157 26.851 8.148 40.405 3.668 8.748-2.887 17.849-9.714 22.273-18.375M222.79 359.154c1.423 1.635 3.272 3.157 5.007 4.565 11.25-11.62 24.447-24.491 36.977-24.491 7.78 0 13.383 5.916 19.925 10.097 9.06 5.789 21.504 9.06 32.156 4.808 5.732-2.177 11.293-5.39 15.445-10.595-8.391 5.788-20.963 6.556-30.421 2.63-10.481-4.337-21.134-10.112-33.066-10.112-17.579.002-34.289 11.905-46.023 23.098M334.535 279.566l-1.906-1.039a85.674 85.674 0 0 1-15.73 22.4l-11.094-11.093c5.432-5.604 9.814-11.962 13.041-18.83l-1.891-1.039a67.584 67.584 0 0 1-12.658 18.361l-10.055-10.055a53.046 53.046 0 0 0 10.212-15.132l-1.878-1.024a50.882 50.882 0 0 1-9.841 14.649l-11.108-11.108a34.915 34.915 0 0 0 7.098-11.107l-1.878-1.024a33.197 33.197 0 0 1-6.712 10.639l-10.084-10.084a18.727 18.727 0 0 0 4.779-11.52h14.265a32.674 32.674 0 0 1-2.248 10.965l1.878 1.024a34.897 34.897 0 0 0 2.475-11.989h15.73a50.697 50.697 0 0 1-4.353 19.555l1.878 1.024a52.984 52.984 0 0 0 4.58-20.58h14.236a66.733 66.733 0 0 1-6.315 27.406l1.891 1.039c4.14-8.804 6.387-18.447 6.528-28.445h15.73c-.156 12.871-3.186 25.073-8.476 35.967l1.906 1.04c5.689-11.719 8.704-24.647 8.704-38.059 0-11.392-2.176-22.457-6.329-32.71l-1.949.838a84.883 84.883 0 0 1 6.159 30.82h-15.73a69.37 69.37 0 0 0-4.893-24.605l-1.933.825a67.124 67.124 0 0 1 4.721 23.78h-14.251a52.827 52.827 0 0 0-3.57-18.148l-1.934.825a50.852 50.852 0 0 1 3.399 17.323H291.2a35.21 35.21 0 0 0-2.134-11.108l-1.934.84a32.4 32.4 0 0 1 1.963 10.268H274.83c-.228-4.295-1.906-8.306-4.779-11.52l10.098-10.084c3.115 3.314 5.475 7.154 6.982 11.335l1.934-.839a35.085 35.085 0 0 0-7.439-11.988l11.136-11.122a51.03 51.03 0 0 1 10.767 16.897l1.933-.825c-2.502-6.458-6.286-12.417-11.22-17.55l10.068-10.084c6.244 6.442 11.036 13.909 14.251 22.001l1.934-.825a69.346 69.346 0 0 0-14.691-22.656l11.121-11.121c7.865 8.05 13.937 17.407 18.034 27.562l1.948-.839c-4.337-10.708-10.808-20.55-19.228-28.97-8.448-8.448-18.333-14.935-29.085-19.272l-.783 1.977c10.183 4.097 19.555 10.17 27.62 18.048l-11.121 11.121c-6.514-6.3-14.051-11.192-22.244-14.506l-.767 1.949c7.921 3.213 15.217 7.95 21.532 14.066l-10.069 10.069a53.112 53.112 0 0 0-16.668-10.867l-.768 1.95a50.65 50.65 0 0 1 15.944 10.41l-11.121 11.122a35.347 35.347 0 0 0-10.568-6.884l-.767 1.962c3.599 1.508 6.926 3.67 9.856 6.414l-10.098 10.084a18.727 18.727 0 0 0-11.52-4.779v-14.265c4.097.128 8.064.995 11.762 2.546l.767-1.962a35.307 35.307 0 0 0-12.53-2.688v-15.73a50.84 50.84 0 0 1 18.275 3.77l.768-1.95a52.893 52.893 0 0 0-19.044-3.925v-14.25a67.109 67.109 0 0 1 24.249 4.905l.767-1.962a69.416 69.416 0 0 0-25.017-5.035v-15.744c10.709.143 21.106 2.248 30.762 6.144l.783-1.978c-10.226-4.125-21.248-6.286-32.598-6.286a86.696 86.696 0 0 0-39.026 9.245l.953 1.835a84.812 84.812 0 0 1 37.02-8.96v15.744a69.062 69.062 0 0 0-29.71 7.196l.967 1.835c8.846-4.38 18.603-6.784 28.743-6.94v14.251a52.77 52.77 0 0 0-22.13 5.334l.952 1.835a50.626 50.626 0 0 1 21.178-5.062v15.73a34.913 34.913 0 0 0-13.867 3.3l.968 1.848a32.783 32.783 0 0 1 12.9-3.043v14.265a18.797 18.797 0 0 0-6.273 1.451l.968 1.849a16.558 16.558 0 0 1 6.357-1.252c4.48 0 8.69 1.75 11.862 4.922s4.92 7.381 4.92 11.861c0 9.259-7.523 16.782-16.782 16.782-4.48 0-8.704-1.748-11.861-4.92-3.171-3.172-4.921-7.382-4.921-11.862s1.749-8.704 4.921-11.861a16.428 16.428 0 0 1 5.504-3.669l-.968-1.849a18.922 18.922 0 0 0-5.247 3.328l-10.098-10.098c2.618-2.446 5.546-4.437 8.719-5.902l-.968-1.849a35.323 35.323 0 0 0-9.216 6.272l-11.136-11.136a51.187 51.187 0 0 1 13.041-9.102l-.952-1.835a53.124 53.124 0 0 0-13.554 9.472l-10.098-10.084a66.996 66.996 0 0 1 17.024-12.032l-.952-1.835a69.841 69.841 0 0 0-17.536 12.401l-11.15-11.15a85.47 85.47 0 0 1 21.376-15.232l-.953-1.835c-16.995 8.547-30.82 22.457-39.238 39.508l1.82.982a85.611 85.611 0 0 1 15.516-21.945l11.15 11.15a69.62 69.62 0 0 0-12.786 18.29l1.82.995a67.617 67.617 0 0 1 12.416-17.82l10.097 10.097a52.95 52.95 0 0 0-9.927 14.521l1.82.982a51.028 51.028 0 0 1 9.571-14.038l11.136 11.136a35.44 35.44 0 0 0-6.812 10.412l1.848.995a32.71 32.71 0 0 1 6.443-9.942l10.097 10.098a18.781 18.781 0 0 0-4.778 11.52h-14.279a33.12 33.12 0 0 1 2.517-11.676l-1.848-.995a34.864 34.864 0 0 0-2.759 12.672h-15.744a50.794 50.794 0 0 1 4.608-20.181l-1.82-.981a52.723 52.723 0 0 0-4.879 21.162h-14.251c.156-9.841 2.403-19.327 6.542-27.961l-1.82-.995a68.898 68.898 0 0 0-6.812 28.956h-15.744c.156-12.842 3.157-25.23 8.675-36.451l-1.82-.981c-5.746 11.62-8.974 24.675-8.974 38.485a87.62 87.62 0 0 0 3.513 24.59l2.047-.527a85.607 85.607 0 0 1-3.441-23.01h15.73a69.688 69.688 0 0 0 2.986 19.17l2.034-.512a67.55 67.55 0 0 1-2.915-18.66h14.251a52.66 52.66 0 0 0 2.518 15.175l2.034-.513a51.183 51.183 0 0 1-2.447-14.662h15.73c.1 3.74.797 7.367 2.02 10.809l2.048-.527a32.934 32.934 0 0 1-1.978-10.282h14.279a18.626 18.626 0 0 0 4.765 11.52l-10.084 10.097a32.864 32.864 0 0 1-6.982-11.335l-2.048.527a34.904 34.904 0 0 0 7.538 12.287l-11.121 11.121c-5.405-5.632-9.373-12.302-11.705-19.555l-2.048.513c2.433 7.622 6.585 14.62 12.274 20.537l-10.069 10.07c-7.538-7.766-12.971-17.04-16.058-27.122l-2.033.512c3.171 10.454 8.789 20.054 16.597 28.103l-11.121 11.121c-9.841-10.084-16.867-22.201-20.736-35.371l-2.063.512c4.054 13.882 11.534 26.595 22.045 37.107 7.111 7.111 15.246 12.842 24.064 17.066l1.039-1.863c-8.334-3.967-16.058-9.33-22.855-15.97l11.121-11.122a69.479 69.479 0 0 0 19.499 13.355l1.039-1.849a67.425 67.425 0 0 1-19.058-12.985l10.084-10.069a53.22 53.22 0 0 0 16 10.595l1.039-1.848c-5.703-2.389-10.966-5.832-15.56-10.24l11.122-11.122c3.584 3.372 7.738 5.917 12.26 7.538l1.039-1.863a33.04 33.04 0 0 1-11.805-7.153l10.083-10.098a18.764 18.764 0 0 0 11.534 4.779v14.265a32.991 32.991 0 0 1-9.814-1.793l-1.038 1.863c3.441 1.237 7.097 1.92 10.851 2.034v15.73a50.813 50.813 0 0 1-18.66-3.925l-1.039 1.835a52.754 52.754 0 0 0 19.698 4.195v14.251c-9.373-.156-18.433-2.205-26.738-5.974l-1.039 1.835c8.62 3.94 18.034 6.088 27.777 6.229v15.73c-12.502-.143-24.562-2.973-35.528-8.206l-1.052 1.848c11.605 5.562 24.391 8.492 37.632 8.492 13.881 0 27.264-3.243 39.31-9.344l-.995-1.92a84.484 84.484 0 0 1-37.276 9.131v-15.73c10.624-.156 20.85-2.702 30.08-7.339l-.981-1.906a66.919 66.919 0 0 1-29.099 7.154v-14.251c7.979-.157 15.645-2.063 22.585-5.533l-.968-1.891a50.666 50.666 0 0 1-21.617 5.319v-15.73a34.881 34.881 0 0 0 14.407-3.542l-.967-1.89a32.58 32.58 0 0 1-13.44 3.327v-14.265a18.764 18.764 0 0 0 11.534-4.779l10.069 10.084a33.151 33.151 0 0 1-8.164 5.632l.967 1.891a35.173 35.173 0 0 0 8.704-6.03l11.107 11.108a51.218 51.218 0 0 1-12.6 8.875l.967 1.891a53.181 53.181 0 0 0 13.127-9.259l10.055 10.055a67.046 67.046 0 0 1-16.668 11.833l.98 1.906a69.684 69.684 0 0 0 17.196-12.231l11.094 11.094c-6.187 6.045-13.313 11.121-21.092 15.075l.995 1.92a87.265 87.265 0 0 0 22.371-16.214 87.428 87.428 0 0 0 16.854-23.638l-.011-.016z"/><path d="M185.743 282.311l-.355-.811-.612-1.607 1.309.626.455 1.251.611.455.612 1.338-.342.626-.967-.896-.711-.982zM253.269 227.129h-.968l-.171-1.963.526-.355v-.981h-3.086l-.085-.981.441-.27-.711-.27-.526.711-.171.811-.882.172v.455h-.611v1.152l-2.475 2.063-4.921-.185c-.355.81-1.238-.085-1.238-.085-.171-.54-1.407 0-1.407 0 0 .98-1.664-.455-1.664-.455l-3.086-2.233c-1.764-1.607-4.395.455-4.48.896.085 1.252-2.034.27-2.034.27s-1.749-.54-2.02.185c-.256.712-1.407.527-1.407.527l-.172.355-.881.185-.185.54-1.052.17 2.645-.084c.697-.085-.27 1.521-.712 1.422l-1.222.1-.441.441h-1.153l-.526.712-1.664-.085s-.981.811-.881 1.066c.085.27-.185 1.081-.441 1.081-.27 0-.797.796-.627 1.066.185.27-.526 1.167-.526 1.167l-.171.896-.526.171v2.418l-1.053.711v1.066l-1.592 1.706.185 1.423-1.323 1.436.171 1.423-.796.27-.171.626-.355 1.878.881.085c.441-.185.355 1.166 0 1.337-.355.185-1.322.54-.782.896.526.355-1.408.27-1.408-.27 0-.526-1.066-.981-1.322-.796-.27.171-.712-.811-.712-.811-.967-.981-3.953.085-3.953.085l-.442 1.436c-.967.171-1.592 1.778-1.592 1.778-.783.27-1.408 1.25-1.138 1.52s-.441.356-.441.356v1.977l-.441.612.085 2.147c.526 0 .441.981.441.981-.881.1-.697 1.251-.697 1.251l-1.85.627-.353.536-2.29-.1-.611.626-.611-.626h-4.41l-.17-.441-.882-.185-.085-.982-1.322.1-.27.527-1.408.1c.1.881-1.407 2.232-1.578 1.877-.172-.37-1.138-1.351-.697-1.521.427-.185 1.579-.355 1.579-.355v-.626l-3.257-.1-.355.54-1.323.085v1.436l-.611.171c-.441.27.085 1.251.085 1.251.626.627-.085 1.608-.085 1.608-.526.54.441 1.521.441 1.521.711.185-.441.711-.441.711.171.897.711 1.167.711 1.167-.54.896.341 1.337.341 1.337l.1 1.521.612.355v.982l.355.626h1.407l-.1-2.233c-1.222-1.422 1.066-1.792 1.153-1.25s1.052.81 1.052.81c.185 1.338 1.679 2.134 2.119.797.441-1.338.782-.54 1.052.085.257.626 1.934 2.147 1.934 2.147h1.323l.17 1.251c1.495-.085 1.935.1 2.56 2.148.612 2.047 2.276 2.589 2.276 2.589l1.237-.085c0-1.082 1.238.171 1.238.711s2.375 2.589 2.375 2.589l2.375.54 2.205 1.777 1.664-.171h.71c.442-1.521 2.547.085 2.717.626.185.526 1.593 1.423 1.764.981.185-.455 1.152-.185 1.322 1.153.172 1.351.797 1.081.797 1.081l5.006-.1 1.764-1.507 4.493-.1c2.29-.085.882-3.214.442-3.214-.797-.626.256-3.214.256-3.214l-6.414-5.974c-1.507 0-.185-2.147-.185-2.147 1.153-.725-.256-1.878-.256-1.878.171-1.066-.626-2.318-.626-2.318-1.58-1.082-1.138-3.129-1.138-3.129v-1.436c-1.322-1.252.526-1.423.526-1.423.612-1.066-.441-1.877-.441-1.877l-.085-1.167-1.407-.17-.185-4.196-3.158-4.565c-.626-.171-.185-1.251-.185-1.251.796-.441-.171-1.508-.171-1.508l-.085-1.962 1.849-.185.44-.711h.868l-.085-2.333c.442-1.152 1.494-.526 1.494-.526l1.238.085.71-1.338.172-1.08-.967-.086c-1.053-.626-.527-2.944-.527-2.944 1.664-2.502 3.599-1.066 3.599-1.066l1.238-.1c1.848 1.251.17 3.584.17 3.584-.34.526-.17 2.232-.17 2.232l.44 2.845-1.137.995c-.981.527-.981 1.778.085 2.048.698.085.442 1.792-.626.626-1.579 0 .881 1.423.185 1.066 1.579.812 1.223-.71 1.223-.71l2.118-1.693c.797-.627 2.205 1.337 2.205 1.607s3.513.085 3.513.085c.967.626 1.322 2.233 1.322 2.233.968-1.252 2.987-.085 1.494.626 1.408.896 1.408 1.692 1.408 1.692 1.152-.355 1.152.54 1.152.812 0 .27.341-1.338.341-1.338-1.308-.981 1.764-1.351.882.441l-.527.812.882.711.085 2.047c1.933-.17 1.407-2.588 1.407-2.588l.881-.172c0-.81.612-.37.612-.37-.612-3.028 1.407-3.57 1.407-3.57 1.153-.27 1.238-2.673 1.238-2.673-.797-.355-.355-1.608.526-.54.881 1.066-.526-2.148-.526-2.148l-.712-.626-.967-.085-.085-.981h-1.579l-.27 1.251-.611.185-.171-.37-.27.995h-1.58l-.084-1.081.967-.27.342-.527.27-1.436h1.137l1.508-.441c.085-1.521.867-1.166.867-1.166l.526.455.797.626.085.526-.527.27-.085.711.27.982h.698c.27-1.423 2.119-1.423 2.645-.527l.526-1.25c-1.237-.627-.029-1.608.328-1.167.355.455 1.166-1.153 1.166-1.153s.611.797 0-.27c-.611-1.08.441-1.607.441-1.607-.171-1.081 1.138-.896 1.138-.896l.1-1.437-1.238-.085c-.256 1.252-1.322.185-.796-.085.54-.27 1.066-.81 1.066-.81v-.897l.526-.171.085-.897h1.323l1.137-.54.27-.44 1.223-.086 1.764-1.607-.172-.712c-1.066 0 0-.81 0-.81l.173-1.333z"/><path d="M217.814 244.765l-1.579-.185.085.626h.441c.698 1.252.085 4.295.085 4.295s-1.052.085-1.237-.455c-.172-.526-.612 1.166-.257 1.436.342.27 1.58 0 1.664.982s.796-.627.796-.627v-6.072zM217.102 252.544l-.88-.54v2.147l1.407 1.878.526-1.251.185-.812-.626-.256.1-1.338.526-.1.085-.626-1.322.898zM248.263 242.801l.185-1.066.057-.811.37-.54 1.066-.441v-1.693h-.54l-.085-.626-.967-.1-.171.455h-.442l-.085.711h.527l.085.54-.355.355-.172.441-.711.185-1.579 1.522-.085.71-.441.627-.526 1.338-1.849.085-.355 1.607.256 1.338 1.593.64.171-.897.526-.27.1-.896.342-.626.54-.626.17-.712.882-.54 1.052-.171.44-.539zM251.776 243.697v-1.25l-.171-1.167-1.322-.626-.968.896-.185 1.251v.812l-.867.17-.185 2.418-.698.27.085.896-.967.257-.968.27-.185 1.166-.697.441-.355 1.081-.442 2.59s.797 1.507 1.238.796a1.7 1.7 0 0 1 1.137-.797l.27-.626 2.375.085c.172-.981 1.323-.626 1.323-.185 0 .455.881.1.881.1l.611-.981h.968l.085-1.081.441-.27v-1.608c1.408-.441 1.238-1.777 1.238-1.777l.34-.455-.17-.612c-.712-.27-.355-.896.085-.725.44.185-.612-.796-.612-.796-.526.441-.967-.54-.967-.54h-1.318zM253.184 254.435c-.085 1.066-1.408 1.422-1.408 1.422l-.967-.256-.526-.455-.085-1.251.782-.085.185.54 2.019.085zM257.991 248.789c.185.782.171-1.251.526-1.166.355.1.085-1.252.085-1.252l-1.578 1.166c.796.086.882.897.967 1.252zM262.599 244.139c.355.811.27 1.962 1.579 2.859.455.298-.257.896-.698.626-.441-.27-1.679-2.233-1.679-2.233v-1.166c.271-.712.642-.427.798-.086zM298.595 287.189l.796.355.085 1.521c1.053 1.066 4.48.171 4.48-.085 0-.27-.171-3.314-.171-3.314l-.441-.441-.085-2.232c.355-1.167-1.679-2.86-1.849-2.503-.171.355-1.323.085-1.323.441 0 .355-.697 2.148-.354 2.774.355.626-.257.626-.342 1.251-.085.627-.966 1.693-.796 2.233zM301.654 250.041c-.384-.526 1.764-1.422 2.105-.355.355 1.066 0 .896-.341.796-.357-.086-1.238.27-1.764-.44zM304.399 217.885h-1.323s.441.185-.782-.981c-1.238-1.166-2.034.27-2.034.27l-1.407.171v1.436l-.698.27.085.882.967-.085s0 1.08.27.626c.257-.441 2.46.085 2.275 1.166-.07.441 2.205 1.607 1.95 3.029 1.137.185.867 1.337.867 1.337l1.507.185.441-.896.427.1v-.54l-.968-.27-.171-2.859-.611-.441.171-.725-.698-.27.342-1.153-.61-1.252zM308.266 226.986l-.697-.085-1.593.27-.881 1.693s.441.27.796.896c.355.626.526 4.281-.526 4.906-1.052.626.085.27.085.27l-.171 1.963c.256.896.697.455.967 0 .256-.441.526-.54.881-.981.342-.442.868-1.252.968-1.878.085-.626.526-1.607.256-1.877-.256-.27.27-1.508.27-1.508s.341-.725 0-1.436c-.355-.711.085-1.521.341-1.878l-.696-.355zM308.538 225.991l-.355-.811s0-.711.185-1.066c.17-.355-.355-.711-.627-.796-.256-.1-.171-.812-.256-1.167s-.711-.626-.711-.626-.172-1.337-.172-1.607-.796-.627-.526-.897c.256-.27.441-.626.698-.796.27-.185-.257-1.436.185-1.166.441.27.441.711.611 1.066s-.085 1.608.355 1.878c.441.27-.1 1.166.611 1.166.698 0 .27 1.692.27 1.692s-.185 1.252.256 1.338c.442.1.172 2.232.172 2.232l-.697-.44zM302.82 211.485c.256.355.796.626.796.981s-.185.626.341.711c.54.1.882-.085 1.067.355.171.455.171 1.167.085 1.522-.085.355.085.896.526.896s.526.085.526.355c0 .27.526-.981.526-.981-.44-.355-.796-1.167-.796-1.167s-.426-1.25-.426-1.422c0-.185-.626-.355-.881-.455-.27-.085-.711-.881-.711-.881l-1.053.086zM303.701 210.774c-.27-.355-.526-.626-.881-.811-.355-.172-.611-.355-.968-.355s-.697-.355-.526-.797c.171-.455-.27-.626-.27-.981s.27-.355.712-.1c.44.27.355.37.697.811.355.442.526.897.881.797.355-.085.627.81.968.54.355-.27.27.626.27.626l-.883.27zM293.405 220.829c.484.497-2.645.355-2.645 0s.27-1.608 1.066-1.338c.783.27.868-1.607.868-1.607s-.698.085-.085-.27c.626-.355 0-.896-.256-1.166-.27-.27-.527-.712-.527-.712h1.223c.526-.355.711-2.047.711-2.047 1.053.355 1.579-.37 1.579-.37s.185.54.526.995c.355.441-.881.626-.441.881.441.27.626 1.081.441 1.351-.171.256-1.137.085-1.137-.27 0-.355-.355.441 0 .896.34.442-.442 1.067-.627 1.067-.171 0-1.308.171-.341.711.968.54 2.02.27 2.02.27s.796-.085 1.053.355c.27.441-.085.54-.527.54s-2.546-.185-2.546-.185-.626.629-.355.899zM299.094 214.144c.697-.355 2.205-.355 2.105-.896-.085-.527.881-.712.881-.712l.27 1.066.796.54.085.982s.256-.172-.711.085c-.968.27-.341.725-.341.725l-2.119.085-.27-.897-.696-.978zM295.694 209.322c.54 0-.171 2.048 1.237 1.878 1.408-.185.085.626 1.138.711 1.052.085.796-.796 1.137-1.422.355-.627.185-.982-.426-1.167-.626-.185-.626-.185-.796-.896-.171-.711-.881-.896-.881-.896l-.27-1.066-1.138.711-1.137 1.521c-.002 1.168.61.627 1.136.627zM270.165 219.051l-.085.627.968.085s.44.355.44.626c0 .27.612.54.968.54s1.323-.711 1.323-.711.441-1.252.085-1.167c-.355.085-1.053.627-1.153.085-.085-.526-1.137-.27-1.137-.27l-1.409.185zM274.56 218.069c0 .27-.171.626.355.711s1.494-.355 1.579.185c.085.526.085.896.796 1.166.698.257 1.137.355 1.664.355s1.679-.185 1.679-.185 1.25.199 1.493.442c.968.98 1.593 1.25 1.849.81.27-.44-.085-1.435-.171-1.792-.085-.355-1.323-2.047-1.764-1.692s-.526 0-1.323.27c-.796.27-2.46.085-2.546-.27s-1.322-.54-1.322-.896c0-.355-.881-.797-.796-.27.085.54-.612.81-.797.626-.17-.17-.696.54-.696.54zM294.813 206.635l.61-1.963c-.867-.185-.697-1.166-.697-1.166-.085-.796-1.322-1.692-1.764-1.422s-.256-1.878-.256-1.878.783-.54 1.138-.27c.355.27-2.987-4.466-3.698-4.011-.697.441-2.29-.455-2.19-1.251.085-.812-3.171-3.485-3.171-3.485s-1.066-.725-1.238-.185-.526.896 0 1.166c.527.27.442-.455 1.053.171.626.626 1.764 1.436 1.322 1.963-.44.54-.967.725-.967.725l.611.711h.968l.185 1.521s1.052.526 1.322 1.153c.256.626.256.981 0 1.351-.27.355-.796.981-.711 1.607.085.612.796.882.796.882l.698.1.54.27v1.152c.697-.171 1.835.811 1.748 1.436s.185.257 1.053.882c.881.626.626.725 1.237 1.166.614.441 1.154.185 1.41-.625z"/><path d="M280.291 194.489c-.085-.355-.27-1.608.27-1.522.526.1.171 0 .783.27.626.27.711-.44.711-.44h.968l1.222.98-.171.797-.881.085c-.442-.712-1.323-.442-1.138.185.171.626-.441 1.792-.796 1.877s-1.494.085-1.408-.441c.085-.54.44-1.791.44-1.791zM279.58 192.071v-.711s-.085-.711-.526-.711-1.238-.54-1.053-.897c.171-.355-1.507-.71-1.507-.71s-1.494-1.437-.968-1.252c.54.171.27-.626.27-.626s-1.052.171-1.322.085c-.256-.085-.171-.897-.171-.897s-1.053-.27-1.053 0 .341.27.526.812c.171.526.085 1.422.881 1.607.783.171.968.355 1.053.711s1.053.442 1.053.442l.71.355 2.107 1.792zM269.81 179.214c-.925-.698 1.238.54 1.238.54.697 0 1.137.526 1.137.796s.968.185.968.185l.084-.626-.697-.897-.626-.44s-.968-.1-.968-.356c.001-.268-.781 1.069-1.136.798zM286.009 179.755c-.257.782-.355 1.877-.797 1.877s-.256 1.167-.256 1.167 1.138 0 1.494.085.355.981.355.981c1.322-.085 1.849 1.692 1.664 2.147-.172.442.526.442.526.442s0 1.422-.171 1.792c-.172.355 1.137.626 1.493 1.153.355.54-.17 2.318-.44 2.417-.257.085.71.355.625.796-.1.455.257 0 .342.725.085.712.27 2.22.27 2.22l1.223.1c.185-1.167 2.447-1.21 2.817-1.082 1.507.54 2.645 2.859 2.645 3.399s-.968.626-.968.626l.171 2.589c1.508.455 2.732 2.588 2.56 2.943-.17.355 1.053.27 1.053.27.185-1.607 1.679-1.066 1.764-.526.085.526.355 1.693.355 1.693l.441.796.611.626.968-.085.256.54 1.153.171s.967 1.082 1.052 1.352c.085.256 1.407.171 1.764.256.355.1.881.355.967.811.085.441.611 1.166.611 1.166s1.067.257 1.153.612c.085.37.526 1.166.526 1.166l.881.711.085.811.968.085.27 1.067 1.579-.085.881-.627c1.137-.626 1.934-1.422 2.02-1.777.085-.355.27-1.706 1.152-1.436.868.27.257-1.963.257-1.963s-1.223-.896-1.138-1.337c.085-.455-1.237-1.338-1.152-1.707.085-.355-1.138-1.066-1.053-1.422.085-.355-.611-1.338-.611-1.338l-1.323-1.25-.185-.812-1.052-.085-2.105-2.589.085-.711-.611-.1v-.981l-.627-.355-.967-.085-1.934-2.148-.171-.981h-.968l.172-1.878c.611-.796.27-2.318.27-2.318s-1.238.626-1.849.355c-.626-.27.256-.897.256-.897v-.71l-.526-.54s-1.494.184-1.579-.086-.355-1.422-.355-1.422l-.085-1.522-.611-.27-.1-.54-.968.1v-1.08l-.526-.172-.526-.27-.085-1.066-1.934-.1-.626-.882-.698-1.08-2.205-.172-.526-.54-.881-.185-.611-.256-.27.441-1.664.085-.085.54c-.884.44-4.411.085-4.496.355zM295.254 177.436c-.143-.711 1.764-1.337 2.205-.811.441.54 1.664.64 1.849 3.314.057.952-1.593-.981-1.593-.981l-1.322-.455c-.7-.17-1.054-.625-1.14-1.067zM264.889 169.814l-1.153-1.166v-.982l-.341-.355-.355-1.251-1.137-.355-1.153.441-1.237.812-1.31.185-.71.796 2.816.27.526.896 2.034.171 1.309 1.338c1.152.366 1.408-.175.71-.8zM264.719 165.376c-.199-.782-1.323.981-.171 1.338 1.137.355 2.275 0 2.275 0l.27-.54 4.394.1c.355-.355.527-.896.527-.896s1.066-.355 1.507-.185c.441.184.085-1.252-.355-1.067-.441.185-1.322.085-1.322.085h-1.579c-.085-.626-1.494-.355-1.593 0-.085.355-.61.455-.61.455l-2.02.172c-.186.538-1.238.893-1.323.538zM256 180.438c1.351.426 1.849.113 1.934-.242.085-.355.171-.455.711-.54.526-.085-.1-1.166-.626-1.066-.527.085-1.053-.185-1.138-.626-.085-.455-.967-1.608-1.052-.711-.1.88-.627.88-.54 1.507.1.625.356 1.564.711 1.677zM245.888 181.475c-.058-.312 1.763-.355 2.02-.085.27.27.085.711.88.711.797 0 .442.54.356.797-.085.27-.968.185-1.053-.085-.1-.27-1.407-.355-1.407-.355s-.71-.542-.796-.983M304.754 229.76c-.355.355-1.138.54-1.138.54l-.27.981-.441.355s.085.27 0 .896c-.085.627-.881.982-.881.982l-.355.441s-2.119.114-2.375 0c-.783-.355-.257-1.423.27-1.338s-.085-1.52-.085-1.52l.697-.086s.085-1.607.355-1.607c.27 0-.085-.54-.441-.812-.355-.256-.796-1.152-1.138-1.066-.355.085-1.763 0-1.763 0l-.27.54-.968.171s.085.698-.085.897c-.526.626-2.546 1.962-1.679-.27l.27-.527v-.81l-1.578-.086s-.797-.27-.797-.626c0-.355-.085-.811-.085-.811l-1.848-2.048-2.205-.27-.171-.441-1.323-.185c-1.579-.796-2.986-.085-2.731 1.251.27 1.338.711 1.878-.171 1.878s-1.053-.712-1.053-.712-.711-.27-.711.085-.256 1.067 0 1.423c.27.37-.355.896-.611.626-.27-.27-.968-1.066-.797-1.337.172-.27-1.237-1.963.172-2.233 1.407-.27-.085-1.066.44-1.251l.712-.355h.698l.44-.355-1.137-.171-.711-.1-1.309-.085c-1.322.896-1.592 1.962-1.592 1.962-.698 1.338-2.375-.54-1.749-1.251.611-.711-1.949-.085-2.389.27-.441.355-1.748.185-1.748.185-.27.796-1.508-.1-1.153-.626.355-.54.355-.897.355-.897l-.441-.085-.526.982c-1.238 0-1.58.711-1.323 1.152.27.455-.355-.085-.526.54s.085.626.611.896-.256.27.085.712c.355.441 1.408 0 .796.626-.611.626-1.848.355-1.848.355-.085.811-1.764.626-1.934.355-.171-.27-1.494-1.878-1.494-1.878l-1.679-.085c-.171-1.25.797-.626 1.153-1.607.355-.981.526-2.589.526-2.589s-1.407-.085-1.494.355c-.085.441-.967.711-.967.711s-.711.27-.441.627c.256.355-.527.54-.527.54s.128.568-.1.796c-.697.725-2.46.1-2.716-.171l-1.066-.455-1.053-.712-1.237.54-.341.355h-1.323l-.085 1.067 2.375.27.171 2.205-.967-.328h-.611l-.27-.54-.527-.085v1.963l.527.455.44.441.882.085.185 1.081 2.19.085.27.441 1.323.1 2.546 2.59-.171.795-.442.27c.172.627-1.152.27-1.152.27v.527l.611.1.626.355.882-1.522c.967-.626 1.407.27 1.493.812.085.526-.441.441-.441.441v1.251l.526.171c.882 1.082-.355 1.707-.355 1.707l-.256.896c-.27.796-1.237.626-1.237.626l-.355.526-1.053.27 2.091.27c.199-.71.725-.896.995-.54.257.355.257.982.257.982l.526.1-.085.981.526.171v2.859l.626.711c1.053-.441 1.053.27.527.626-.527.355-.185 1.978-.185 1.978l-.442.441v.711l-.526.355v.982c-.881-.442-1.934-.27-2.205 0-.782-.527-2.46-.355-2.46.1.526.711-.611.881-.611.881l-.611.725c.44.896-.442.981-.442.981v1.693l-1.052.981.085 2.319c0 .626 1.322.725 1.579.37.27-.37 1.322.711 1.322.711h.796l.172-1.608-.527-.27v-2.588l.882-.982c1.052-.355.697 2.32.697 2.59.085.98.526.895.968.71.88-.355.185.982-.527.897-.697-.085-.256.896-.256.896l.441.171-.796.626-.711.812-.881-.27-1.053-.085-.355-.627-.611-.1-.085 1.252-.441.54-1.053 1.066c1.408 0-.185.981-.526.981.782.27-.1 1.081-2.119.455v.626l-.697.085.61.712.698.085-.256 1.521c0 1.166-2.901.355-3.171.085l-.085 1.621-.526.085.085 1.066-.085 1.522.967-.185v.626l2.375.1 3.428-3.669 2.033-.441c.172-.896 1.053.171 1.053.171.881-.085 1.052.54 1.052.54l1.153.185c.952.256.37.355.426.711.1.527.526.355.526.355l.185-1.166.527.1-.527-.626-.967-.455-1.053-.441c-.711-.981.172-.811.882-.711h1.137s1.323 1.777 1.323 2.232c0 .441.61.526.61.526l.797-.085.256.627h.797l.27.526h1.578l.085-.796-1.494-.27-.084-.897-1.053-.256c-.355-1.521.256-1.976.698-1.251l.526.085-.171-1.338.61-.185-.17-1.877-.527-.171v-.627l2.19.085c-.171-1.166.085-1.692.085-1.692h.627l.085.441 2.687.256 1.906-2.176c-.1-.171.185-.27-.013-.484-.27-.27-.627 0-1.067-.27-.441-.27 0-1.792-.085-2.147-.085-.355 1.494-.896 1.238-.085-.27.796 0 1.152 0 1.152 1.137-1.066 2.105.1 2.02.37-.085.257.611.527 1.052.257.441-.257.968.81.796 1.35-.17.527-1.763.442-1.848-.1-.085-.525-.355-.354-.526-.084-.172.27-.968.441-1.408.185a.542.542 0 0 1-.156-.143l-1.907 2.177.128.013c1.052.627.526 1.423.171 1.608-.355.185-.967.185-.967.185l-.171.355-2.29.171-.172.896c-1.152-.185-1.592 1.067-1.322 1.693.256.626 0 1.166 0 1.166l.967.441 1.224-.355c.185-.896.967-1.066 1.679-1.607.697-.526 1.848.981 1.493 1.706-.355.711-.355.981-.355.981l.1.797-.88.355-.712.355-.085.455h-2.375l-.441.44-1.138.1-.355.527-.796.085s-1.323.626-.796 1.351c.54.712-2.19.627-2.817-.355-.17.882-1.137.085-1.137.085l-.968-.27-.085-1.337c-.185-.896-1.848-.896-1.763-.27.085.626-3.172.27-3.172.27l-1.052.512-.968.555-.085.455-1.592.172-.698.355-.27-.527h-.697l-.711.982c-1.849.085-3.599 1.152-3.428 1.607.171.441-.697.896-.697.896l-.797.257-.526.81-1.052.356-.185 1.877-.527.355v.812l-.61.17v.442l-.882.1.526 1.338.698.355c1.237.185.711 1.692.711 1.692l.697.1.355.981.712 1.423c.256 1.081 1.052.811 1.407.711.341-.085.698 1.081.698 1.081l3.527.085s-.185.355.441.54c.612.172 4.652.355 4.835.085-.185-.796 2.19-.981 3.172-.27.967.712 2.29.27 2.29.27l1.308 1.608.882 1.962 1.493.455 1.067.257.341 1.52.796.1.27.982c.968.711-.27 2.233-.27 2.233v1.962l.711.355-.1.711 1.153 1.167 1.322.085 3.343 3.57 2.631.81.441 1.423.712-.085.526-.441 2.105-.1 1.066-.981 1.138-.171 9.771-8.307-.881-.54v-1.962c1.578-1.166 1.678-3.214.171-3.399-1.124-.127-.611-1.337.441-1.521l.626-.256v-.812l2.02-1.877v-1.423l-4.395-3.668c-1.933-.712 0-4.993 1.31-4.907 1.322.085-.086-6.613-.086-6.613l-.697-.355.171-2.148h-.968l-1.578 2.063-.442 1.422c-.185 1.878-5.632 1.521-5.902 1.251-.256-.27-2.105-1.066-2.105-1.066s-1.408-1.166-1.679-.811c-.256.355-1.494-.441-1.494-.171s-1.137-.627-1.137-.627l-1.764-.626 1.323-.27-.27-1.066 2.29 1.152c.256.355 1.407.27 1.407.27l.355.455s.698-.1 1.138.442 2.731.085 2.731.085l.611.54.968.355 2.731.085.085-1.693.526-.54-.085-1.066.626-.54v-.881l.527-.185.085-1.963.441-.085v-4.295l-1.323-1.251c-.085.455-1.493.455-1.493.455s-.355.626-.626.626c-.257 0 .354.796.184 1.338-.185.526-.88.526-.88.526l-1.323.37-.355.441h-1.408l-.171-1.166 1.579-.441.881-.442.441-.896c.085-.896 1.153-.811 1.153-.811s2.02-1.693 2.105-2.503c.085-.796.796-3.028 2.02-3.028h2.29c.881-.355.626-1.522.626-1.522l1.137-.171.172.626s1.592.172 1.764-.1c.185-.27.526-.896.967-.626.441.27 1.849-.626 1.849-.626.085-.626 2.29-.355 2.29-.355l.27-.796s-1.494-2.063-1.764-2.063-1.679-1.251-1.849-.796c-1.407-.355-1.322-2.333-1.322-2.333l-.527-1.237c0-.725-1.322-2.233-1.578-2.063-1.323-.981-.355-2.147 0-2.232.341-.085 1.222-1.338 1.222-1.338l.441-1.251 1.494-.441.185-1.166-.796-.085s.881-1.608 1.323-1.608 3.342 0 3.612-.185c.256-.171.782-1.607.782-1.877s.712-.355.968-.442c.27-.085.881-.811 1.066-1.166.16-.357-.452-2.59-.807-2.235z"/><path d="M256 261.959c.128-.128.27.399.526.341.27-.071.399.469.128.469-.256 0-.256.327-.256.469 0 .127 0 .455-.2.668-.198.199-.398.058-.668-.071-.256-.128-.384-.128-.725-.128-.328 0-.058.527-.058.527s-1.393-.058-1.123-.27c.256-.199.526-.27.327-.399-.199-.128 0-.27 0-.54 0-.256.669-.128.469-.328-.199-.198 0-.98.327-.54l.2-.468c-.2-.199-.072-.27-.47-.399s-.057-.939-.057-.939l.057-.54c.143-.669 1.452-.725 1.522-.127s0 1.01 0 1.01l.398.127s-.07.399-.398.399 0 .199-.199.399l.2.34zM251.648 262.641c.198-.399.653-2.147 1.195-1.607.526.54.853 0 .853 0s.256.27.128.811c-.128.526-.257 1.066-.598 1.137-.327.058-.582.257-.981.328-.397.071-.597-.669-.597-.669z"/></g></svg>