<svg xmlns="http://www.w3.org/2000/svg" viewBox="0 0 512 512"><path d="M512 384c0 31.418-25.473 56.889-56.889 56.889H56.89C25.472 440.889 0 415.417 0 384V128c0-31.418 25.472-56.889 56.889-56.889H455.11C486.53 71.111 512 96.584 512 128v256z" fill="#00247d"/><g fill="#fff"><path d="M47.701 158.521l4.864 15.673 16.413-.114-13.412 9.457 5.178 15.574-13.142-9.813-13.198 9.727 5.276-15.531-13.34-9.543 16.399.214 4.962-15.644zM115.214 256l6.257 20.152 21.106-.142-17.25 12.189 6.67 20.011-16.91-12.615-16.982 12.501 6.77-19.967-17.153-12.288 21.107.27L115.214 256zM117.86 92.715l4.864 15.672 16.412-.113-13.411 9.457 5.178 15.574-13.142-9.814-13.198 9.728 5.276-15.531-13.34-9.558 16.399.227 4.962-15.642zM185.743 155.306l3.44 11.094 11.62-.085-9.485 6.699 3.654 11.022-9.3-6.94-9.345 6.884 3.74-10.994-9.457-6.755 11.62.143 3.513-11.068z"/></g><g fill="#fed100"><path d="M455.111 412.445h-384s-3.782-2.446-3.782-7.111c0-4.665 3.782-7.111 3.782-7.111h384l21.106 7.11-21.106 7.112zM71.111 384s71.111-28.445 156.445-113.778S369.777 128 398.222 113.777c-24.93 24.932-53.617 199.112 17.494 256 0 0 39.395 7.41 39.395 14.223h-384z"/></g></svg>