<svg xmlns="http://www.w3.org/2000/svg" viewBox="0 0 512 512"><path d="M512 384c0 31.418-25.473 56.889-56.889 56.889H56.89C25.472 440.889 0 415.417 0 384V128c0-31.418 25.472-56.889 56.889-56.889H455.11C486.53 71.111 512 96.584 512 128v256z" fill="#002395"/><path d="M85.334 71.111v170.666H0V256h270.222V71.111H85.334z" fill="#eee"/><path d="M256 241.778h-85.334V71.11H256v170.666z" fill="#ed2939"/><path d="M170.666 241.778H85.334V71.11h85.334v170.666z" fill="#eee"/><g fill="#fff"><path d="M426.155 285.781L401.963 323.2v-67.74h32.256l11.919-13.668H335.786l11.904 13.668h32.27v67.74l-24.192-37.419-35.2 54.998h17.592l17.608-28.943 35.186 61.953 35.2-61.953 17.608 28.943h17.607l-35.215-54.998z"/><path d="M384.143 270.294H428.5l-9.771 13.382h-32.27l-2.317-13.382zM373.361 336.228h-35.213v-8.775h35.213v8.775zM443.761 336.228h-35.2v-8.775h35.2v8.775zM390.955 386.93l4.253 14.606h14.706l-11.605 9.386 4.239 14.435-11.592-8.817-11.605 8.59 4.253-14.223-11.605-9.372h14.321l4.635-14.605zM315.022 256l4.253 14.592h14.706l-11.591 8.99 4.239 14.222-11.605-8.918-11.592 8.534 4.24-13.839-11.592-8.989h14.307L315.022 256zM466.845 256l4.266 14.592h14.692l-11.592 8.99 4.239 14.222-11.605-8.918-11.578 8.534 4.224-13.839-11.591-8.989h14.321L466.845 256zM349.313 357.689l4.238 14.592h14.706l-11.59 9.131 4.223 14.294-11.578-8.889-11.605 8.534 4.253-13.952-11.605-9.116h14.307l4.65-14.594zM432.611 357.689l4.266 14.592h14.692l-11.605 9.131 4.252 14.294-11.605-8.889-11.577 8.534 4.224-13.952-11.592-9.116h14.321l4.624-14.594z"/></g></svg>