<svg xmlns="http://www.w3.org/2000/svg" viewBox="0 0 512 512"><path d="M455.112 71.113H56.894C25.477 71.113.006 96.585.006 128.001v255.997c0 31.417 25.472 56.888 56.888 56.888h398.218c31.417 0 56.888-25.472 56.888-56.888V128.001c0-31.416-25.472-56.888-56.888-56.888z" fill="#00247d"/><path d="M270.225 256v-28.857l-100.977-70.698H94.881L237.059 256h33.166z" fill="#eee"/><path d="M270.225 235.833l-113.364-79.388h-24.789l138.153 96.738v-17.35z" fill="#cf1b2b"/><path d="M115.199 156.446L0 238.45V256h47.388l142.192-99.554h-74.381z" fill="#eee"/><path d="M152.379 156.446L10.443 256h24.561l142.178-99.554h-24.803z" fill="#cf1b2b"/><path d="M237.072 71.113L94.894 170.668h74.367L270.223 99.97V71.113h-33.151z" fill="#eee"/><path d="M249.447 71.113l-142.164 99.554h24.789l138.153-96.738v-2.816h-20.778z" fill="#cf1b2b"/><path d="M9.432 96.649l132.795 92.949v-18.93h47.331L48.315 71.758c-16.227 2.456-30.198 11.77-38.883 24.891z" fill="#eee"/><path d="M13.785 90.906l128.441 90.031v-10.268h10.155L24.589 81.185a57.209 57.209 0 0 0-10.804 9.721z" fill="#cf1b2b"/><path d="M270.225 128.001h-99.554V71.113H99.56v56.888H.006v71.11H99.56V256h71.11v-56.888h99.554v-71.111z" fill="#eee"/><g fill="#cf1b2b"><path d="M156.449 256h-42.666V71.113h42.666V256z"/><path d="M270.225 184.89H.006v-42.666h270.219v42.666z"/></g><path d="M400.45 170.668h-73.329v52.991c0 73.67 41.045 100.578 73.329 118.114 32.284-17.536 68.294-44.444 68.294-118.114v-52.991H400.45z" fill="#fff"/><path d="M400.45 333.222c-31.317-17.493-67.398-42.78-67.398-109.567V180.15h130.786v43.505c-.001 66.787-32.071 92.073-63.388 109.567" fill="#fec400"/><path d="M426 298.449c-.882-7.779-7.339-32.227-14.891-39.552-7.552-7.339-10.667-1.678-10.667-1.678s-3.115-5.66-10.667 1.678c-7.552 7.324-13.995 31.772-14.891 39.552-.882 7.779.896 9.557 4.892 9.557 1.778 3.769 8.661 4.437 8.661 4.437s7.779 5.12 12.003 0c4.224 5.12 12.003 0 12.003 0s6.883-.668 8.661-4.437c4.014 0 5.778-1.778 4.896-9.557" fill="#00a728"/><path d="M411.778 249.973c0 6.77 1.792 12.245-11.107 12.245s-11.107-5.475-11.107-12.245 4.964-12.259 11.107-12.259c6.129 0 11.107 5.489 11.107 12.259" fill="#f0082d"/><path d="M376.668 241.114c-3.556 6.002-9.116 1.778-11.548-5.333-2.446-7.111-12.231-9.116-15.786-11.107-3.556-2.005-4.437-5.333 0-7.779 4.452-2.446 1.778-5.561 4.892-6.443-3.996-.896-7.58 1.323-7.907 0-.313-1.337 2.802-5.049 7.907-5.632-4.224-5.262-1.778-16.37 0-16.597 1.778-.213 5.419 3.115 7.267 6.443 1.849 3.342 7.182 2.674 6.727 7.339 1.109 1.109 4.892.441 8.448 6.215 3.555 5.786 0 32.894 0 32.894" fill="#ff9f3e"/><path d="M378.252 240.223c-5.049.384-6.912-3.996-7.808-10.439-.882-6.443-9.998-4.039-5.774-13.696 4.224-9.643 5.803-3.797 6.229-11.278.441-7.481 2.887-13.696 5.106-13.696s5.106 6.883 6.215 9.771c1.109 2.887 5.39 2.233 7.253 12.231s-.356 17.337-2.802 19.555-3.556 2.546-3.996 5.049c-.455 2.503-1.124 2.247-4.423 2.503" fill="#ff927f"/><path d="M378.252 197.777c1.522 1.109 1.579 2.66 0 5.333-1.579 2.66 1.024 5.333 1.166 9.771.142 4.452-2.162 6.002-1.678 8.235.484 2.219 4.039 6.443 3.598 11.548-.441 5.12-1.508 6.67-3.086 7.552-1.579.896-.91-2.66-.583-5.988.327-3.342-1.892-7.111-3.001-10.453-1.109-3.328 1.508-5.774 2.19-9.116.697-3.328-1.081-6.371-1.294-9.842-.228-3.485 2.688-7.04 2.688-7.04" fill="#fe9de0"/><g fill="#ba5b1f"><path d="M429.781 206.223c.668-4.892.441-12.444-1.109-15.104-1.55-2.674-3.996-4.224-2.446-4.679 1.55-.441 8.889 7.339 4.892 23.111-3.997 15.786-1.337-3.328-1.337-3.328"/><path d="M428.998 204.863c-3.001-1.749-6.883-6.201-6.499-8.633.384-2.446 3.271-6.898 3.726-6.002.441.882-1.337 3.641 0 7.253 1.323 3.627 1.977 3.84 3.783 6.258 1.806 2.418-1.01 1.124-1.01 1.124M427.363 208.222c-1.792-2.162-21.589-14.891-19.584-15.772 2.005-.896 19.029 9.771 21.731 15.772 2.717 6.002-2.147 0-2.147 0"/><path d="M426.224 211.999c-7.239-7.182-25.116-8.448-24.22-9.557.882-1.109 23.808.996 27.008 7.609 3.214 6.612-2.788 1.948-2.788 1.948"/><path d="M425.723 215.799c-8.163-4.238-22.442-5.134-23.751-4.907-1.308.228 13.781-4.238 24.576 2.432 10.78 6.685-.825 2.475-.825 2.475M426.224 221.779c-8.448-3.783-20.892-2.66-23.111-1.337-2.219 1.337 6.443-5.02 12.444-4.395 6.002.626 11.804 1.877 13.454 3.029 1.651 1.153.157 4.026-2.787 2.703"/><path d="M431.137 204.814c-1.024-5.461-1.038-10.069-8.363-9.515s-8.633 14.265-6.812 33.365c1.82 19.114-.412 25.372-.74 26.467-.341 1.095 4.082-3.797 3.769-12.245-.327-8.434-2.19-27.008-1.593-33.834.597-6.827 3.925-11.947 8.32-10.61 4.409 1.351 3.413 4.779 3.3 8.946-.128 4.167 2.119-2.574 2.119-2.574"/><path d="M436.001 240.362s2.219-1.252 5.106-16.355c2.887-15.118-3.328-21.561-8.889-21.561-5.547 0-11.776 6.443-8.889 21.561 2.901 15.104 5.12 16.355 5.12 16.355s-6.812 6.471-5.845 9.614c.953 3.129 9.614 3.2 9.614 3.2s8.675-.071 9.628-3.2c.968-3.143-5.845-9.614-5.845-9.614"/><path d="M434.737 206.223c-.668-4.892-.441-12.444 1.109-15.104 1.55-2.674 3.996-4.224 2.446-4.679-1.55-.441-8.889 7.339-4.892 23.111 3.996 15.786 1.337-3.328 1.337-3.328"/><path d="M435.515 204.863c3.001-1.749 6.883-6.201 6.499-8.633-.384-2.446-3.271-6.898-3.726-6.002-.441.882 1.337 3.641 0 7.253-1.323 3.627-1.977 3.84-3.783 6.258-1.806 2.418 1.01 1.124 1.01 1.124M437.153 208.222c1.792-2.162 21.589-14.891 19.584-15.772-2.005-.896-19.029 9.771-21.731 15.772-2.716 6.002 2.147 0 2.147 0"/><path d="M438.292 211.999c7.239-7.182 25.116-8.448 24.22-9.557-.882-1.109-23.808.996-27.008 7.609-3.214 6.612 2.788 1.948 2.788 1.948"/><path d="M438.792 215.799c8.163-4.238 22.442-5.134 23.751-4.907 1.308.228-13.781-4.238-24.576 2.432-10.781 6.685.825 2.475.825 2.475M438.292 221.779c8.448-3.783 20.892-2.66 23.111-1.337 2.219 1.337-6.443-5.02-12.444-4.395-6.002.626-11.804 1.877-13.454 3.029-1.65 1.153-.157 4.026 2.787 2.703"/><path d="M433.376 204.814c1.024-5.461 1.038-10.069 8.363-9.515s8.633 14.265 6.812 33.365c-1.82 19.114.412 25.372.74 26.467.341 1.095-4.082-3.797-3.755-12.245.313-8.434 2.176-27.008 1.579-33.834-.597-6.827-3.925-11.947-8.32-10.61-4.409 1.351-3.413 4.779-3.3 8.946.128 4.167-2.119-2.574-2.119-2.574"/></g></svg>