<svg xmlns="http://www.w3.org/2000/svg" viewBox="0 0 512 512"><path d="M455.111 71.111H56.89C25.472 71.111 0 96.584 0 128v256c0 31.416 25.472 56.889 56.889 56.889H455.11C486.527 440.889 512 415.416 512 384V128c0-31.416-25.473-56.889-56.889-56.889z" fill="#eee"/><path d="M0 384c0 31.416 25.473 56.889 56.889 56.889H455.11C486.527 440.889 512 415.416 512 384V255.164H0V384z" fill="#5eb6e4"/><path d="M256 202.224c-34.602 0-37.775-13.994 0-13.994s34.602 13.994 0 13.994" fill="#f4900c"/><g fill="#ffac33"><path d="M282.666 198.225c-8.661 0-15.559 5.334-21.775 8.661-1.777-2.219-4.892-1.991-4.892-1.991s-3.114-.228-4.893 1.991c-6.215-3.327-13.112-8.661-21.775-8.661-8.661 0-29.112 8.447-29.112 51.328 0 56.447 55.779 74.453 55.779 74.453s55.778-18.006 55.778-74.453c.003-42.88-20.449-51.328-29.11-51.328M237.335 159.111c3.626-.64 8.064-2.219 11.705-4.437-.071.655-.227 1.251-.227 1.935 0 3.298.782 6.286 2.062 8.462-.767 1.01-1.479 2.19-1.991 3.599-1.323-3.342-5.546-4.665-5.546-4.665s-2.106 1.366-3.343 5.775c-2.888-2.674-6.443-3.114-6.443-3.114s-1.777 2.674-1.55 6.001c-14.45-9.56-2.22-12.22 5.333-13.556m37.332 0c7.553 1.336 19.784 3.996 5.334 13.554.228-3.327-1.55-6.001-1.55-6.001s-3.555.441-6.442 3.114c-1.238-4.41-3.343-5.775-3.343-5.775s-4.224 1.322-5.561 4.665a12.671 12.671 0 0 0-2.034-3.656c1.251-2.176 2.034-5.135 2.034-8.406 0-.711-.156-1.309-.227-1.976 3.653 2.234 8.133 3.841 11.79 4.481M216 179.335c5.561 1.11 12.856 11.335 12.856 15.886 5.15-5.661 27.137-6.115 27.137-6.115s22.001.455 27.15 6.115c0-4.551 7.296-14.776 12.856-15.886-1.11-2.219-4.224-1.565-4.224-1.565s6.884-11.776 4.224-17.323c-2.659-5.56-13.113-5.333-21.561-6.23-8.434-.88-9.999-4.664-9.999-4.664l2.232-2.66s-4.223-.895-3.342-3.783c.896-2.887-2.659-2.659-2.659-2.659s2.659-2.673 1.55-5.12c-1.11-2.446-3.555-3.113-3.555-3.113s-1.55-3.555 0-4.665c1.55-1.11 5.105 3.113 5.105-1.11s-3.996-.67-5.105-2.22c-1.11-1.564 2.007-5.56-2.673-5.56-4.665 0-1.55 3.996-2.66 5.56-1.11 1.55-5.104-2.005-5.104 2.22s3.555 0 5.105 1.11c1.55 1.11 0 4.665 0 4.665s-2.446.668-3.555 3.113c-1.11 2.447 1.55 5.12 1.55 5.12s-3.555-.227-2.659 2.659c.881 2.888-3.342 3.784-3.342 3.784l2.232 2.659s-1.565 3.783-9.999 4.665c-8.447.896-18.887.668-21.561 6.23-2.659 5.546 4.224 17.322 4.224 17.322s-3.114-.654-4.223 1.565"/></g><path d="M297.055 255.114c0-33.11-9.557-36.893-9.557-36.893s-4.608 5.561-11.193 3.343c-6.585-2.233-15.914-9.558-15.914-9.558s-1.635 2.076-4.637 2.19c-3.001-.114-4.636-2.19-4.636-2.19s-9.344 7.325-15.914 9.558c-6.585 2.219-11.208-3.343-11.208-3.343s-9.557 3.784-9.557 36.893c0 31.317 37.105 60.815 41.116 63.913v.313s.143-.114.199-.156c.071.042.199.156.199.156v-.313c4.025-3.1 41.102-32.596 41.102-63.913" fill="#a0cfeb"/><g fill="#ccd6dd"><path d="M246.224 286.666c2.219-6.442 3.555-10.666 3.555-14.45v-16.214s-3.555-1.777-3.555-3.783v-6.001l3.555-1.337v4.01l3.555-1.336V244h2.659v3.784l3.113.655v-3.328l3.997 1.11v5.561S260 255.11 260 256.007v16.214c0 1.565 4.665 14.45 4.665 14.45H246.22v-.004zM255.444 240.892s-.995-4.223-3.441-7.778c-2.447-3.555-1.635-10.212 3.74-10.225 10.042-.015 3.37 9.002 3.37 9.002s-2.218-4.551-3.113-3.215c-.881 1.323 2.332 6.443.896 9.33l-1.452 2.887zM233 244.89s-.995-4.224-3.441-7.779c-2.446-3.555-1.635-10.211 3.741-10.225 10.041-.015 3.37 9.003 3.37 9.003s-2.219-4.551-3.114-3.215c-.881 1.322 2.333 6.442.896 9.33L233 244.89zM277.529 244.89s-.995-4.224-3.441-7.779c-2.447-3.555-1.636-10.211 3.74-10.225 10.042-.015 3.37 9.003 3.37 9.003s-2.218-4.551-3.113-3.215c-.881 1.322 2.333 6.442.896 9.33l-1.452 2.886zM225.451 285.639c1.194-3.812 1.878-6.728 1.878-9.415v-16.228s-3.555-1.777-3.555-3.769v-6l3.555-1.337v3.996l3.555-1.322v-3.555h2.674v3.768l3.1.67v-3.328l4.01 1.11v5.546s-3.113 3.342-3.113 4.224v16.227c0 1.55 4.665 14.45 4.665 14.45s-17.251-3.515-16.769-5.037M268.305 290.666c2.219-6.442 3.555-10.666 3.555-14.45v-16.214s-3.555-1.777-3.555-3.783v-6.001l3.555-1.337v4.01l3.555-1.336V248h2.659v3.784l3.114.655v-3.328l3.996 1.11v5.561s-3.102 3.328-3.102 4.224v16.214c0 .981 1.864 6.499 3.23 10.439.8 2.272-17.007 4.007-17.007 4.007"/></g><g fill="#99aab5"><path d="M233 248h-2.105v3.555l-3.555 1.336v-4.01l-3.555 1.337v6c0 2.007 3.555 3.785 3.555 3.785v16.213c0 2.703-.683 5.618-1.891 9.415-.228.727 3.541 1.892 7.552 2.93V248zM255.299 244h-2.105v3.555l-3.555 1.336v-4.01l-3.555 1.337v6c0 2.007 3.555 3.785 3.555 3.785v16.213c0 2.703-.683 5.618-1.891 9.415-.228.727 3.54 1.892 7.552 2.93V244zM278.07 248.666l-2.788-.669v3.555l-3.555 1.337v-3.996l-3.57 1.322v6.001c0 2.006 3.57 3.784 3.57 3.784v16.214c0 2.702-.696 5.617-1.89 9.43-.228.711 3.527 1.877 8.233 3.584v-40.562z"/></g><path d="M270 284.331s-4.665-6.001-13.994-6.001c-9.343 0-13.341 6.23-13.341 6.23s-8.234-3.256-17.792 1.309c11.292 17.762 28.06 31.132 30.677 33.152v.313l.199-.157c.071.043.214.157.214.157v-.313c2.63-2.019 19.498-15.487 30.79-33.336-10.197-4.326-16.753-1.354-16.753-1.354" fill="#8bb273"/><g fill="#658d5c"><path d="M268.16 348.445c-6.286-10.283-11.933-22.001-27.264-29.112-15.345-7.112-17.777-9.117-22.23-16.442-4.437-7.339-13.112-12.216-13.112-12.216s.227-6.898-2.659-11.335c-2.888-4.451-2.674-9.999-2.674-9.999s-3.555 1.878-2.659-5.064c.882-6.94-3.555-11.606-3.555-11.606s5.547-7.339.882-16.782c5.333-9.23 2.887-19.67 2.887-19.67s4.665-8.661 0-18.006c-14.89 6.23-15.772 26.012-15.772 26.012l-8.448-12.231s-7.111 4.665-5.334 13.341c1.778 8.661 1.337 10.553 1.337 10.553l-8.008-6.784s-5.775 9.557 2.233 17.124c7.992 7.552 9.33 9.77 9.33 9.77s-3.997-2.22-3.997 1.336.882 5.105.882 5.105l-10.468-8.661s-3.086 11.776 4.253 18.446c7.325 6.656 11.776 9.102 11.776 9.102s-14.009-3.996-13.781-3.001c.227 1.01 2.887 8.335 9.998 12.345 7.112 3.996 12.445 5.546 12.445 5.546l-14.435 2.617s3.555 10.268 11.99 10.268c8.448 0 16.455-2.658 16.455-2.658s-6 4.892-7.778 8.66c-1.778 3.785-6.898 4.225-6.898 4.225s4.665 4.892 13.341 3.342c8.662-1.565 9.77-13.341 20.438-9.557 10.666 3.768 29.781 10.666 36.01 20.223 6.215 9.544 8.434 11.776 9.77 15.104 1.332 3.332 6.879 3.006 5.045.005"/><path d="M242.169 348.445c6.272-10.283 11.932-22.001 27.264-29.112 15.33-7.112 17.777-9.117 22.23-16.442 4.437-7.339 13.098-12.216 13.098-12.216s-.214-6.898 2.674-11.335c2.888-4.451 2.659-9.999 2.659-9.999s3.555 1.878 2.674-5.064c-.897-6.94 3.555-11.606 3.555-11.606s-5.562-7.339-.897-16.782c-5.334-9.23-2.887-19.67-2.887-19.67s-4.665-8.661 0-18.006c14.89 6.23 15.786 26.012 15.786 26.012l8.434-12.231s7.111 4.665 5.333 13.341c-1.777 8.661-1.322 10.553-1.322 10.553l7.992-6.784s5.775 9.557-2.218 17.124c-8.008 7.552-9.33 9.77-9.33 9.77s3.996-2.22 3.996 1.336-.896 5.105-.896 5.105l10.467-8.661s3.101 11.776-4.239 18.446c-7.338 6.656-11.776 9.102-11.776 9.102s13.994-3.996 13.781-3.001c-.227 1.01-2.9 8.335-10.012 12.345-7.111 3.996-12.445 5.546-12.445 5.546l14.45 2.617s-3.555 10.268-12.004 10.268c-8.434 0-16.441-2.658-16.441-2.658s6.001 4.892 7.779 8.66c1.777 3.785 6.883 4.225 6.883 4.225s-4.665 4.892-13.326 3.342c-8.675-1.565-9.785-13.341-20.451-9.557-10.666 3.768-29.768 10.666-35.996 20.223-6.215 9.544-8.448 11.776-9.77 15.104-1.333 3.332-6.879 3.006-5.045.005"/></g><g fill="#e1e8ed"><path d="M222.222 328.569c-10.438 1.208-13.112 8.092-27.776 1.65-.669 3.342 4.665 8.447 4.665 8.447s-8.007.228-11.776-1.11c1.991 8.221 11.335 11.335 19.114 10.666 7.778-.668 12.657-6.442 21.661-4.45 9.002 2.005 15.474 4.764 13.681-11.322-6.015-6.456-19.569-3.881-19.569-3.881M289.778 328.569c10.438 1.208 13.112 8.092 27.776 1.65.669 3.342-4.665 8.447-4.665 8.447s8.007.228 11.776-1.11c-1.991 8.221-11.335 11.335-19.114 10.666-7.778-.668-12.657-6.442-21.661-4.45-9.002 2.005-15.474 4.764-13.681-11.322 6.015-6.456 19.569-3.881 19.569-3.881"/></g><path d="M290.445 318.223c-6.001-2.66-19.114 3.996-34.446 3.996s-28.445-6.656-34.446-3.996-4.88 3.555-4.438 5.775c.441 2.218 1.11 8.22 1.55 11.562.441 3.327 3.996 5.546 8.221 2.659 4.224-2.888 9.558-4.224 16.897-1.991 7.325 2.218 11.86 2.076 11.86 2.076s5.248.142 12.587-2.076c7.325-2.233 12.657-.897 16.881 1.99s7.779.67 8.222-2.658c.44-3.342 1.11-9.344 1.55-11.563.455-2.22 1.563-3.116-4.438-5.775" fill="#f5f8fa"/><path d="M282.14 324c0 1.366-2.716 6.826-27.761 6.826-25.031 0-26.909-5.461-26.909-6.826s4.081 3.015 29.127 3.015 25.543-4.38 25.543-3.015" fill="#99aab5"/></svg>