<svg xmlns="http://www.w3.org/2000/svg" viewBox="0 0 512 512"><path d="M455.111 71.111H56.889C25.472 71.111 0 96.583 0 128v256c0 31.417 25.472 56.889 56.889 56.889h398.222C486.528 440.889 512 415.417 512 384V128c0-31.417-25.472-56.889-56.889-56.889z" fill="#eee"/><path d="M512 327.111H0V184.889h512v142.222z" fill="#0a4ea2"/><path d="M0 384c0 31.417 25.472 56.889 56.889 56.889h398.222C486.528 440.889 512 415.417 512 384v-56.889H0V384z" fill="#ee2024"/><path d="M168.353 356.832c-16.057-9.173-51.74-32.398-64.782-63.829-13.156-31.673-10.226-77.141-6.855-129.764l.853-13.312h170.14l.868 13.298c3.385 52.622 6.315 98.062-6.841 129.764-13.056 31.445-48.725 54.67-64.782 63.844l-14.279 8.135-14.322-8.136z" fill="#fff"/><path d="M254.381 164.146H110.922c-3.399 52.708-6.002 95.004 5.788 123.392 14.521 34.987 64.228 60.018 65.863 60.828v.071l.085-.028.071.028v-.071c1.636-.811 51.342-25.842 65.877-60.828 11.777-28.387 9.174-70.684 5.775-123.392" fill="#ee2024"/><g fill="#fff"><path d="M191.557 295.861a6.354 6.354 0 0 1-6.357 6.357h-8.619a6.354 6.354 0 0 1-6.357-6.357s3.996-57.643 3.996-73.643-3.996-44.743-3.996-44.743a6.354 6.354 0 0 1 6.357-6.357h8.619a6.354 6.354 0 0 1 6.357 6.357s-3.556 26.951-3.556 44.302c0 17.337 3.556 74.084 3.556 74.084"/><path d="M150.139 216.667a6.354 6.354 0 0 1-6.357-6.357v-8.619a6.354 6.354 0 0 1 6.357-6.357s14.905 2.887 29.867 2.887c14.948 0 31.63-2.887 31.63-2.887a6.354 6.354 0 0 1 6.357 6.357v8.619a6.354 6.354 0 0 1-6.357 6.357s-13.426-3.783-31.644-3.783-29.853 3.783-29.853 3.783M135.694 250.445a6.354 6.354 0 0 1-6.357-6.357v-8.619a6.354 6.354 0 0 1 6.357-6.357s26.965 2.446 45.639 2.446c18.66 0 44.302-2.446 44.302-2.446a6.354 6.354 0 0 1 6.357 6.357v8.619a6.354 6.354 0 0 1-6.357 6.357s-26.197-1.892-46.635-1.892-43.306 1.892-43.306 1.892"/></g><path d="M242.904 298.17c-7.225-15.445-27.093-19.812-36.523-.939-6.229-22.67-23.908-22.67-23.908-22.67s-17.692 0-23.922 22.67c-9.358-18.731-29.013-14.578-36.366.583 18.688 29.497 58.923 49.835 60.388 50.546v.085l.085-.043.071.043v-.085c1.466-.711 41.387-20.878 60.175-50.19" fill="#0a4ea2"/></svg>