<svg xmlns="http://www.w3.org/2000/svg" viewBox="0 0 512 512"><path d="M455.111 71.111H56.89c-14.336 0-27.393 5.334-37.39 14.08l78.961 57.031H512V128c0-31.418-25.473-56.889-56.889-56.889" fill="#ea0b19"/><path d="M196.921 213.334H512v-71.111H98.46l98.461 71.11z" fill="#eee"/><path d="M256 256l-59.079 42.666H512v-85.334H196.921L256 256z" fill="#ea0b19"/><path d="M98.46 369.778H512v-71.112H196.921L98.46 369.778z" fill="#eee"/><path d="M19.499 426.809c9.999 8.746 23.054 14.08 37.39 14.08H455.11C486.53 440.889 512 415.416 512 384v-14.223H98.46L19.499 426.81z" fill="#ea0b19"/><path d="M196.921 298.666L256 256l-59.079-42.666-98.461-71.111L19.499 85.19C7.566 95.63 0 110.92 0 128v256c0 17.081 7.566 32.37 19.499 42.809l78.961-57.031 98.461-71.112z" fill="#0f55ec"/><path d="M116.438 267.946l32.896-23.822h-40.662l-12.628-38.77-12.659 38.771H42.666l32.925 23.851-12.657 38.728L96 282.754l33.066 23.95-12.628-38.758z" fill="#fff"/></svg>