<svg xmlns="http://www.w3.org/2000/svg" viewBox="0 0 512 512"><path d="M455.112 71.113H56.894C25.477 71.113.006 96.585.006 128.001v255.997c0 31.417 25.472 56.888 56.888 56.888h398.218c31.417 0 56.888-25.472 56.888-56.888V128.001c0-31.416-25.472-56.888-56.888-56.888z" fill="#00247d"/><path d="M270.225 256v-28.857l-100.977-70.698H94.881L237.059 256h33.166z" fill="#eee"/><path d="M270.225 235.833l-113.364-79.388h-24.789l138.153 96.738v-17.35z" fill="#cf1b2b"/><path d="M115.199 156.446L0 238.45V256h47.388l142.192-99.554h-74.381z" fill="#eee"/><path d="M152.379 156.446L10.443 256h24.561l142.178-99.554h-24.803z" fill="#cf1b2b"/><path d="M237.072 71.113L94.894 170.668h74.367L270.223 99.97V71.113h-33.151z" fill="#eee"/><path d="M249.447 71.113l-142.164 99.554h24.789l138.153-96.738v-2.816h-20.778z" fill="#cf1b2b"/><path d="M9.432 96.649l132.795 92.949v-18.93h47.331L48.315 71.758c-16.227 2.456-30.198 11.77-38.883 24.891z" fill="#eee"/><path d="M13.785 90.906l128.441 90.031v-10.268h10.155L24.589 81.185a57.209 57.209 0 0 0-10.804 9.721z" fill="#cf1b2b"/><path d="M270.225 128.001h-99.554V71.113H99.56v56.888H.006v71.11H99.56V256h71.11v-56.888h99.554v-71.111z" fill="#eee"/><g fill="#cf1b2b"><path d="M156.449 256h-42.666V71.113h42.666V256z"/><path d="M270.225 184.89H.006v-42.666h270.219v42.666z"/></g><path d="M433.266 286.623c0 6.969-7.979 12.629-17.82 12.629-9.828 0-17.806-5.661-17.806-12.629 0-6.983 7.979-12.643 17.806-12.643 9.841 0 17.82 5.661 17.82 12.643" fill="#dd2e44"/><path d="M351.918 266.958c0 5.988 18.019 13.028 32.512-4.637 14.507-17.65 10.283 6.372 4.338 10.098-5.945 3.726-12.302 12.714-25.13 11.335-12.814-1.394-16.086-6.456-19.043-13.852-2.96-7.381 7.323-2.944 7.323-2.944" fill="#009a67"/><g fill="#fff100"><path d="M354.505 229.284c1.493 3.641-.256 7.779-3.883 9.273l-13.17 5.376a7.112 7.112 0 0 1-9.287-3.883 7.116 7.116 0 0 1 3.896-9.273l13.17-5.376c3.641-1.493 7.794.242 9.274 3.883M467.886 269.348c-2.133 3.299-5.959 4.608-8.548 2.944l-18.616-12.089c-2.575-1.664-2.93-5.674-.797-8.975 2.148-3.299 5.959-4.622 8.548-2.958l18.616 12.089c2.575 1.678 2.93 5.69.797 8.989"/><path d="M470.31 264.966c1.052 3.783-1.152 7.708-4.935 8.761a7.108 7.108 0 0 1-8.761-4.949l-7.637-27.392c-1.052-3.783 1.152-7.708 4.935-8.761 3.784-1.052 7.708 1.152 8.761 4.935l7.637 27.406z"/><path d="M476.139 268.119a7.092 7.092 0 0 1-7.111 7.096 7.092 7.092 0 0 1-7.111-7.096 7.113 7.113 0 0 1 7.111-7.111 7.113 7.113 0 0 1 7.111 7.111"/></g><g fill="#009a67"><path d="M355.557 264.882c0 2.958-3.185 5.333-7.111 5.333-3.926 0-7.111-2.375-7.111-5.333v-31.985c0-2.958 3.185-5.333 7.111-5.333 3.926 0 7.111 2.375 7.111 5.333v31.985z"/><path d="M365.781 250.126c2.361 3.143 2.375 7.096.043 8.846l-16.853 12.643c-2.318 1.75-6.115.612-8.477-2.532-2.361-3.157-2.375-7.111-.043-8.861l16.839-12.643c2.319-1.734 6.131-.611 8.491 2.547"/><path d="M348.947 264.75c0 3.868-3.399 7.012-7.609 7.012s-7.623-3.143-7.623-7.012 3.413-7.012 7.623-7.012 7.609 3.143 7.609 7.012M481.363 241.792c-1.55 3.669-9.344 3.855-17.422.412-8.05-3.428-13.312-9.188-11.748-12.856 1.564-3.669 9.344-3.855 17.422-.412 8.051 3.428 13.313 9.188 11.748 12.856"/></g><g fill="#d4d5d6"><path d="M395.446 245.403c-8.249 5.348-19.299 15.303-19.299 15.303l6.144.782s7.523 7.879 8.832 15.345c1.308 7.452-1.678 2.403-2.304 8.178-.625 5.775 2.631 9.671 2.631 9.671s8.932-3.015 14.791-7.509c5.859-4.508 9.77-11.25 13.127-7.779 3.342 3.456 2.958 5.049 2.958 5.049h4.338s-7.197-7.025-7.083-11.05c.114-4.025-6.301-24.021-6.301-24.021l-17.834-3.969zM385.765 227.472s6.755-5.135 6.044-4.495c-.711.625 7.637 3.555 12.701 1.465 5.077-2.077 14.961-12.061 17.394-10.595 2.432 1.479-12.274 10.098-6.13 11.449 6.158 1.366 8.092-3.797 11.875-5.689 3.797-1.877 9.742-2.105 4.01 1.692-5.745 3.797-13.639 20.224-13.639 20.224l-23.182-1.821-6.073-4.452-3-7.778z"/></g><g fill="#009a67"><path d="M425.319 244.659c0 3.271-8.561 5.93-19.114 5.93-10.539 0-19.1-2.659-19.1-5.93s8.561-5.93 19.1-5.93c10.553 0 19.114 2.66 19.114 5.93M362.182 314.972c-.981 3.129-8.107 3.627-15.929 1.152-7.807-2.474-13.34-6.983-12.359-10.098.996-3.129 8.121-3.641 15.943-1.166 7.808 2.474 13.326 6.997 12.345 10.112M470.349 338.042c-.427 2.418-7.481 3.2-15.758 1.735-8.277-1.45-14.663-4.579-14.222-6.983.412-2.403 7.467-3.185 15.744-1.721 8.276 1.437 14.648 4.579 14.236 6.969"/><path d="M456.276 339.207c-2.233 10.766-6.016 19.058-8.419 18.56-2.403-.498-2.532-9.615-.284-20.366 2.233-10.752 6.002-19.058 8.406-18.56 2.401.513 2.53 9.629.297 20.366M420.543 246.577c3.883 10.169 14.919 30.278 25.429 30.421 10.51.142 11.904-4.394 11.904-4.394s.384 7.979-9.173 9.472c-9.543 1.479-14.976-3.243-13.227-1.621 1.75 1.636 5.603 5.319 14.507 7.652 8.903 2.347 24.135 5.092 23.665 13.597-.455 8.519-6.4 11.833-5.803 8.078.597-3.754-6.101-10.581-17.863-13.227-11.761-2.631-25.059-9.059-30.89-28.117-5.816-19.072-1.081-1.75-1.081-1.75s-11.505 3.513-11.434-2.233c.056-5.76 8.917-2.745 7.111-10.041-1.821-7.31-6.144-12.302-1.849-10.752a220.803 220.803 0 0 0 8.704 2.915M391.558 272.598c-5.775 8.874-22.542 21.361-27.946 27.221s-9.315 16.952-10.468 24.292c-1.152 7.353 1.052 18.687 5.148 5.959 4.096-12.714 11.349-17.65 18.687-25.856 7.324-8.206 12.317-13.639 14.99-19.114 2.689-5.477-.411-12.502-.411-12.502"/></g><g fill="#fff100"><path d="M426.029 278.598c1.806 5.959 1.621 11.278-.412 11.89-2.034.612-5.148-3.712-6.941-9.671-1.806-5.959-1.607-11.292.441-11.904 2.019-.613 5.12 3.725 6.912 9.685M375.696 278.515c0 1.806-4.381 3.271-9.785 3.271s-9.785-1.465-9.785-3.271 4.381-3.256 9.785-3.256c5.404-.001 9.785 1.449 9.785 3.256M360.042 337.457c2.105 10.994 1.806 20.266-.683 20.736-2.474.47-6.187-8.021-8.292-19.015-2.105-10.979-1.806-20.281.683-20.75 2.476-.469 6.202 8.049 8.292 19.029"/><path d="M367.241 335.431c0 2.219-6.286 3.997-14.023 3.997-7.751 0-14.052-1.778-14.052-3.997 0-2.204 6.301-3.997 14.052-3.997 7.737 0 14.023 1.792 14.023 3.997M370.432 366.621c2.688 5.433 3.413 10.581 1.579 11.477-1.806.896-5.447-2.802-8.163-8.221-2.674-5.433-3.399-10.61-1.579-11.477 1.82-.923 5.474 2.788 8.163 8.221M447.672 370.096c-3.939 5.632-9.244 8.732-11.861 6.912-2.631-1.834-1.536-7.879 2.403-13.526 3.939-5.646 9.244-8.747 11.875-6.912 2.602 1.822 1.522 7.866-2.417 13.526M480.08 304.694c1.763 2.887-3.598 9.387-12.003 14.521-8.391 5.148-16.625 6.954-18.389 4.068-1.778-2.901 3.584-9.401 11.975-14.549 8.404-5.135 16.639-6.941 18.417-4.04M336.252 301.708c3.997-9.415 16.398-14.45 24.604-16.612 8.192-2.162 10.027-4.622 16.64-9.841 6.628-5.219 5.049-8.761 8.263-6.4 3.228 2.361 5.93 3.47 2.83 7.865-3.114 4.409-13.994 13.739-21.034 16.455-7.04 2.73-20.892 8.548-21.774 10.126-.897 1.593-10.866 1.55-9.529-1.593"/></g><path d="M368.071 287.18h67.91v51.654c0 22.001-33.948 44.856-33.948 44.856s-33.962-22.428-33.962-45.923V287.18z" fill="#4d8fcc"/><path d="M431.709 352.97l-29.283-57.998-31.53 54.47c7.922 18.717 31.132 34.247 31.132 34.247s20.65-14.051 29.681-30.719" fill="#009a67"/><g fill="#fff100"><path d="M370.807 345.777l2.219 5.49 29.411-53.205 28.515 52.749 2.318-5.859-30.222-57.77-32.241 58.595zM434.378 292.639c4.736 7.807 13.397 5.49 17.123 18.659 3.726 13.184 1.75 27.463-2.148 16.17-3.911-11.292-5.049-17.635-16.086-20.551-11.049-2.915 1.111-14.278 1.111-14.278M363.612 360.86l-2.759 16.469 14.847-7.552-12.088-8.917zM442.32 363.471l-13.98 6.499 15.345 9.216-1.365-15.715z"/><path d="M416.015 338.681a2.662 2.662 0 0 1-2.659 2.646h-20.708a2.66 2.66 0 0 1-2.646-2.646 2.66 2.66 0 0 1 2.646-2.659h20.708a2.663 2.663 0 0 1 2.659 2.659"/><path d="M404.306 366.052c0 2.062-.541 3.726-1.194 3.726h-2.19c-.655 0-1.194-1.664-1.194-3.726v-35.228c0-2.048.541-3.712 1.194-3.712h2.19c.655 0 1.194 1.664 1.194 3.712v35.228z"/><path d="M384.695 353.14l8.305 8.661-1.45 1.792 9.372 6.187 12.814-6.172-2.717-1.721 9.273-6.997-1.336 11.833-3.399-.981-13.397 11.321-14.108-11.961-2.688.284-.669-12.246z"/></g></svg>