<svg xmlns="http://www.w3.org/2000/svg" viewBox="0 0 512 512"><path d="M512 384c0 31.418-25.473 56.889-56.889 56.889H56.89C25.472 440.889 0 415.417 0 384V128c0-31.418 25.472-56.889 56.889-56.889H455.11C486.53 71.111 512 96.584 512 128v256z" fill="#ce1126"/><path d="M512 341.334H0V170.668h512v170.666z" fill="#eee"/><g fill="#ff9d11"><path d="M267.563 202.666s8.29.299 6.513.598c-.611.1-.767 5.873-.711 13.326l12.942-24.69c-4.707-2.233-9.6-4.054-14.805-5.205l-3.94 15.971zM300.089 215.794v17.237l18.93-9.33c-2.845-5.561-6.329-10.695-10.481-15.275l-8.45 7.368zM286.294 227.811l-12.445 10.851c.1 2.745.185 5.192.256 7.183l12.189-6.016V227.81zM286.294 216.235c0-3.115 6.03-4.466 10.112-3.584l8.32-8.22c-4.139-3.911-8.804-7.167-13.781-9.999l-17.479 30.237c.058 3.485.156 7.011.27 10.34l12.559-12.388v-6.386zM237.34 218.809l-.867-30.876a71.082 71.082 0 0 0-12.687 5.006l13.554 25.87z"/></g><g fill="#083e9d"><path d="M212.793 281.116c-1.85-4.977-2.347-9.33-2.347-9.33s-1.123-1.565-4.537 0c-3.414 1.55-7.026 4.438-12.131 5.547-2.39.526-4.423-.683-5.974-2.092.569 2.034 1.436 3.912 2.176 5.874h22.813zM263.58 281.116c-1.407-2.872-3.142-5.106-7.58-5.106-4.295 0-6.215 2.503-7.623 5.106h15.203zM322.034 281.116c.839-2.161 1.764-4.295 2.375-6.556-4.708 4.793-11.946 2.959-14.18.114-2.446-3.115-8.008-3.584-8.008-3.584s-.654 4.466-2.134 9.799c-.013.071-.07.156-.1.227h22.047zM316.971 291.782c1.124-1.92 2.29-3.81 3.243-5.845-1.38-.697-3.058-1.337-5.106-1.38-4.893-.113-5.362 3.385-12.218 3.442-3.257.028-4.977-.783-5.916-1.835-1.65 2.005-3.883 3.967-6.329 5.617h26.326zM240.54 291.782h29.398a15.322 15.322 0 0 1-1.68-1.906l.058.171S262.23 284.23 256 284.23c-8.008 0-13.511 5.817-13.511 5.817l.185-.34a24.455 24.455 0 0 1-2.134 2.075M220.075 291.782a21.932 21.932 0 0 1-4.949-5.83c-2.105 1.435-4.48 2.673-6.897 2.503-6.002-.455-9.814-6.841-13.34-5.12-1.195.597-2.347 1.18-3.442 1.693 1.053 2.36 2.333 4.564 3.613 6.754h25.015zM204.515 304.441h102.998c1.692-1.835 3.327-3.726 4.82-5.717-2.388-2.048-6-4.509-10.112-4.509-6.884 0-9.827 6.229-15.915 6.229s-6.755-5.562-14.307-5.562-10.88 6.443-16.783 6.443c-5.887 0-10.097-6.442-15.659-6.442-5.56 0-9.785 6.442-15.772 6.442-6.001 0-9.344-7.111-14.678-7.111-3.356 0-7.31 2.147-9.94 3.769 1.665 2.262 3.457 4.396 5.348 6.458M294.913 314.894c1.635-1.109 3.356-2.091 4.906-3.328-3.57-1.706-9.486-4.223-13.511-4.223-6.088 0-7.652 3.327-14.308 3.327-6.67 0-9.614-3.769-16.256-3.769-6.641 0-8.889 4.879-15.204 4.879-6.329 0-8.989-5.334-16.767-5.334-4.565 0-9.928 1.906-13.612 3.485 2.105 1.849 4.48 3.385 6.813 4.964h77.939zM272.214 318.663c-7.553 0-11.108 6.442-16.228 6.442-5.106 0-9.571-6.67-15.445-6.67-3.541 0-7.666 1.963-10.525 3.555 8.022 3.242 16.754 5.12 25.97 5.12 9.273 0 17.992-1.978 26.055-5.248-2.589-1.606-6.074-3.2-9.827-3.2"/></g><path d="M210.161 251.377l-24.704-.995c-.156 1.878-.568 3.684-.568 5.618 0 3.142.526 6.144.925 9.188h24.349v-13.81z" fill="#ff9d11"/><path d="M180.75 247.183l45.326 4.352-2.29 3.214-45.112-1.195 2.076-6.372z" fill="#eee"/><g fill="#ff9d11"><path d="M210.161 237.184l-19.897-8.164c-2.092 5.049-3.399 10.454-4.267 16.014l24.164 1.735v-9.585zM224.669 243.143v4.665l13.497.967v-.085l-13.497-5.547zM224.669 240.498l13.454 6.64-.172-6.527-13.283-11.591v11.478zM210.161 216.42l-7.709-6.727c-3.94 4.537-7.296 9.528-9.983 14.976l17.692 8.718V216.42zM224.669 213.561v10.481l13.17 13-.27-9.757-18.404-31.829c-4.779 2.915-9.301 6.186-13.241 10.098l6.755 6.67c4.153-1.722 11.99-1.607 11.99 1.337M326.542 250.282l-26.453 1.067v13.839h26.097c.399-3.03.925-6.03.925-9.188 0-1.963-.412-3.798-.568-5.718"/></g><path d="M298.666 254.72l33.18-1.195v-4.977l-33.18 1.706v4.466z" fill="#eee"/><g fill="#ff9d11"><path d="M300.089 246.728l25.899-1.863c-.91-5.817-2.32-11.463-4.565-16.74l-21.334 8.761v9.841zM286.294 242.546l-12.131 4.978c.013.37.028.74.042 1.052l12.089-.867v-5.163z"/></g><g fill="#eee"><path d="M189.924 218.809l50.617 26.737v3.029l-50.617-20.765v-9.001zM271.929 248.576l52.437-25.174-2.915-6.812-49.521 25.955v6.031zM207.701 201.642l30.678 33.365v4.395l-34.531-33.18 3.853-4.58zM271.929 237.426l37.589-32.085-4.822-5.632L271.93 233.7v3.726zM226.986 189.326l13.155 29.483-2.816 2.731-14.45-30.138 4.111-2.076zM284.445 187.946l-12.473 26.496v7.098l17.138-30.72-4.665-2.874zM331.848 268.004H182.812v-3.783h149.035v3.783z"/></g><g fill="#ce1126"><path d="M214.045 217.558v50.887c0 6.884 3.782 23.339 14.663 23.339 14.89 0 19.712-18.446 19.712-18.446s-10.738 9.443-18.361 6.442c-7.609-3.001-8.135-7.553-8.135-17.55v-43.42c0-3.913-7.879-4.809-7.879-1.253M297.273 217.558v50.887c0 6.884-3.783 23.339-14.663 23.339-14.891 0-19.712-18.446-19.712-18.446s10.737 9.443 18.346 6.442c7.622-3.001 8.149-7.553 8.149-17.55v-43.42c0-3.913 7.88-4.809 7.88-1.253M267.563 245.959l-25.558-7.836v-40.79c0-12.003 9.201-17.92 25.558-12.217-14.223 1.338-18.745 13.313 0 22.215v38.628z"/></g><g fill="#630810"><path d="M284.445 266.112a1.9 1.9 0 0 1-1.891 1.892H227.67a1.9 1.9 0 0 1-1.891-1.892 1.9 1.9 0 0 1 1.891-1.89h54.884a1.899 1.899 0 0 1 1.891 1.89M242.063 276.096h-12.7l5.447-7.211h12.7l-5.448 7.211zM268.359 276.096h12.7l-5.448-7.211h-12.715l5.463 7.211z"/></g><path d="M252.877 235.851a.938.938 0 0 1-.938.939.94.94 0 0 1-.953-.939v-6.826c0-.526.427-.953.953-.953a.95.95 0 0 1 .939.953v6.826z" fill="#630810"/><g fill="#630810"><path d="M228.694 262.286c-.611.654-1.806.839-2.688.413-.867-.441-1.108-1.323-.512-1.963l8.106-8.817c.598-.64 1.806-.825 2.674-.399.896.426 1.109 1.323.512 1.963l-8.092 8.803z"/><path d="M233.657 262.286c.612.654 1.807.839 2.688.413.867-.441 1.109-1.323.512-1.963l-8.107-8.817c-.598-.64-1.806-.825-2.674-.399-.896.426-1.109 1.322-.512 1.962l8.093 8.804z"/></g><path d="M266.602 235.851a.938.938 0 0 1-.938.939.94.94 0 0 1-.953-.939v-6.826c0-.526.426-.953.953-.953a.95.95 0 0 1 .938.953v6.826z" fill="#630810"/><path d="M262.579 240.339c-.611.654-1.806.839-2.688.412-.867-.441-1.109-1.322-.512-1.962l8.106-8.818c.597-.64 1.806-.825 2.674-.399.896.427 1.109 1.323.512 1.963l-8.092 8.804zM246.273 262.286c.61.654 1.806.839 2.673.413.882-.441 1.124-1.323.527-1.963l-8.107-8.817c-.597-.64-1.806-.825-2.673-.399-.897.426-1.11 1.323-.513 1.963l8.093 8.803zM279.582 235.851a.938.938 0 0 1-.938.939.94.94 0 0 1-.953-.939v-6.826c0-.526.426-.953.953-.953a.95.95 0 0 1 .938.953v6.826z" fill="#630810"/><path d="M275.56 240.339c-.611.654-1.806.839-2.688.412-.867-.441-1.108-1.322-.512-1.962l8.106-8.818c.598-.64 1.806-.825 2.674-.399.896.427 1.109 1.323.512 1.963l-8.092 8.804z" fill="#630810"/><path d="M280.975 240.339c.611.654 1.806.839 2.674.412.881-.441 1.123-1.322.526-1.962l-8.106-8.818c-.598-.64-1.807-.825-2.674-.399-.896.427-1.109 1.323-.512 1.963l8.092 8.804zM292.425 235.851a.938.938 0 0 1-.939.939.94.94 0 0 1-.952-.939v-6.826c0-.526.426-.953.952-.953a.95.95 0 0 1 .939.953v6.826zM265.102 262.286c-.61.654-1.806.839-2.673.413-.881-.441-1.124-1.323-.526-1.963l8.106-8.817c.597-.64 1.806-.825 2.673-.399.897.426 1.11 1.323.513 1.963l-8.093 8.803z" fill="#630810"/><path d="M293.74 240.339c.611.654 1.806.839 2.674.412.881-.441 1.124-1.322.526-1.962l-8.106-8.818c-.598-.64-1.806-.825-2.674-.399-.896.427-1.109 1.323-.512 1.963l8.092 8.804zM280.476 258.161a.929.929 0 0 1-.939.939.932.932 0 0 1-.952-.939v-6.826c0-.526.413-.953.953-.953a.94.94 0 0 1 .938.953v6.826z" fill="#630810"/><path d="M301.09 240.339c-.611.654-1.806.839-2.688.412-.867-.441-1.108-1.322-.512-1.962l8.106-8.818c.598-.64 1.806-.825 2.674-.399.896.427 1.109 1.323.512 1.963l-8.092 8.804z" fill="#630810"/><path d="M306.442 240.339c.612.654 1.807.839 2.674.412.881-.441 1.124-1.322.526-1.962l-8.106-8.818c-.597-.64-1.806-.825-2.674-.399-.896.427-1.108 1.323-.512 1.963l8.093 8.804z" fill="#630810"/></svg>