<svg xmlns="http://www.w3.org/2000/svg" viewBox="0 0 511.999 511.999"><path d="M455.111 71.112H56.894c-31.417 0-56.889 25.473-56.889 56.89v255.997c0 31.416 25.472 56.888 56.889 56.888H455.11C486.527 440.887 512 415.416 512 384V128c-.001-31.417-25.471-56.889-56.889-56.889z" fill="#ffe150"/><path d="M270.224 71.112H56.894c-31.416 0-56.889 25.473-56.889 56.89V256h270.219V71.112z" fill="#00247d"/><path d="M270.224 256v-28.856l-100.977-70.699H94.882L237.06 256h33.165z" fill="#eee"/><path d="M270.224 235.825L156.86 156.451h-24.789l138.153 96.725v-17.351z" fill="#cf1b2b"/><path d="M115.199 156.445L0 238.449v17.55h47.387l142.193-99.555-74.381.001z" fill="#eee"/><path d="M152.38 156.445L10.444 256h24.561l142.178-99.555H152.38z" fill="#cf1b2b"/><path d="M237.072 71.112L94.895 170.668h74.366l100.963-70.684V71.113h-33.151z" fill="#eee"/><path d="M249.455 71.112l-142.178 99.556h24.803l138.139-96.74v-2.815h-20.764z" fill="#cf1b2b"/><path d="M9.431 96.647l132.794 92.95v-18.93h47.345L48.314 71.757c-16.227 2.455-30.197 11.77-38.883 24.89z" fill="#eee"/><path d="M13.785 90.905l128.441 90.03v-10.268h10.154L24.589 81.184a57.243 57.243 0 0 0-10.804 9.721z" fill="#cf1b2b"/><path d="M270.224 128.001h-99.555V71.112H99.56v56.89H.005v71.11H99.56V256h71.11v-56.889h99.555v-71.11z" fill="#eee"/><g fill="#cf1b2b"><path d="M156.447 256h-42.666V71.112h42.666V256z"/><path d="M270.224 184.889H.005v-42.666h270.219v42.666z"/></g><path d="M170.67 163.556c0 19.641-15.914 35.555-35.555 35.555S99.56 183.198 99.56 163.556s15.914-35.555 35.555-35.555 35.555 15.914 35.555 35.555" fill="#004a77"/><g fill="#ffe150"><path d="M135.115 127.519l8.519 22.77 25.94.526-20.679 17.423 7.523 24.832-21.304-14.82-21.305 14.819 7.522-24.833-20.677-17.421 25.94-.526 8.521-22.77zM54.393 149.126l3.498 10.055 10.639.228-8.49 6.429 3.086 10.183-8.732-6.087-8.733 6.087 3.086-10.183-8.49-6.43 10.64-.227 3.496-10.055zM215.837 149.126l3.5 10.055 10.638.228-8.476 6.429 3.072 10.183-8.732-6.087-8.733 6.087 3.086-10.183-8.49-6.43 10.64-.227 3.495-10.055zM135.115 82.791l3.499 10.055 10.639.228-8.477 6.429 3.073 10.183-8.733-6.087-8.732 6.087 3.086-10.184-8.49-6.428 10.639-.228 3.496-10.055zM135.115 217.431l3.499 10.055 10.639.214-8.477 6.429 3.073 10.197-8.733-6.087-8.732 6.087 3.086-10.197-8.49-6.429 10.639-.214 3.496-10.055z"/></g></svg>