<svg xmlns="http://www.w3.org/2000/svg" viewBox="0 0 512 512"><path d="M455.111 71.111H256V440.89h199.111C486.53 440.889 512 415.416 512 384V128c0-31.417-25.473-56.889-56.889-56.889" fill="#cf142b"/><path d="M56.889 71.111C25.472 71.111 0 96.582 0 128v256c0 31.418 25.473 56.889 56.889 56.889H256V71.11H56.889z" fill="#eee"/><g fill="#cf142b"><path d="M147.142 175.559H23.537V137.33h123.605v38.229z"/><path d="M104.448 218.254h-38.23V94.649h38.23v123.605z"/><path d="M80.058 174.521c0 7.239-5.86 13.113-13.1 13.113-7.224 0-13.098-5.874-13.098-13.113 0-7.225 5.874-13.098 13.099-13.098 7.238 0 13.099 5.873 13.099 13.098M117.703 174.08c0 7.239-5.874 13.112-13.1 13.112-7.238 0-13.098-5.873-13.098-13.112 0-7.225 5.86-13.099 13.099-13.099 7.225 0 13.099 5.874 13.099 13.099M80.085 139.663c0 7.238-5.86 13.098-13.113 13.098-7.224 0-13.084-5.86-13.084-13.098 0-7.225 5.86-13.1 13.084-13.1 7.254 0 13.113 5.875 13.113 13.1M117.703 139.663c0 7.238-5.874 13.098-13.1 13.098-7.238 0-13.098-5.86-13.098-13.098 0-7.225 5.86-13.1 13.099-13.1 7.225 0 13.099 5.875 13.099 13.1"/></g><path d="M77.041 174.521c0 5.562-4.508 10.069-10.068 10.069-5.575 0-10.084-4.509-10.084-10.069 0-5.561 4.509-10.068 10.084-10.068 5.56-.002 10.068 4.507 10.068 10.068" fill="#99aab5"/><g fill="#99aab5"><path d="M114.631 174.08c0 5.561-4.509 10.069-10.069 10.069-5.574 0-10.083-4.509-10.083-10.069 0-5.561 4.509-10.084 10.084-10.084 5.56 0 10.068 4.523 10.068 10.084M77.056 139.663c0 5.56-4.508 10.068-10.083 10.068-5.562 0-10.07-4.508-10.07-10.068 0-5.562 4.51-10.07 10.07-10.07 5.575 0 10.083 4.508 10.083 10.07"/></g><path d="M117.996 136.66c0 5.561-4.508 10.069-10.068 10.069-5.575 0-10.084-4.509-10.084-10.069 0-5.561 4.509-10.069 10.084-10.069 5.56 0 10.068 4.509 10.068 10.069" fill="#99aab5"/><g fill="#ccd6dd"><path d="M111.63 156.9c0 14.265-11.563 25.841-25.841 25.841-14.265 0-25.842-11.577-25.842-25.841s11.578-25.841 25.842-25.841c14.278-.002 25.841 11.576 25.841 25.841"/><path d="M99.555 213.334H71.111V99.556h28.445v113.778z"/><path d="M142.222 170.666H28.445v-28.445h113.778v28.445z"/></g><path d="M102.201 156.9c0 9.06-7.352 16.412-16.412 16.412-9.074 0-16.427-7.352-16.427-16.412 0-9.06 7.353-16.413 16.427-16.413 9.058 0 16.412 7.353 16.412 16.413" fill="#99aab5" opacity=".5"/><path d="M94.535 156.771c.214-.241.455-.455.683-.668.042-.043.084-.072.127-.114.611.299 1.18.682 1.749 1.039 1.137.697 4.75-.94 3.1-1.95-1.394-.867-2.802-1.877-4.552-1.578-1.293.227-2.403.896-3.384 1.749-.114-.881-.214-1.764-.4-2.631.257-.285.427-.598.356-.982-.157-.825.285-1.721.568-2.488.143-.37-.042-.627-.34-.783.113-.185.227-.355.34-.526.498.171 1.01.341 1.537.441.896.185 2.076-.185 2.787-.74.654-.526.426-1.039-.327-1.195-1.338-.256-2.574-.953-3.812-1.494-.825-.355-2.033.014-2.773.413-.469.27-1.195.952-.442 1.322-.085.085-.185 3.115-.227 3.214-.626 1.365-1.693-7.58-2.404 6.641h-.27c-.227 0-2.005-4.906-1.906-5.887 1.052-.214.384-3.755.384-4.48v-.413c0-.199 1.607-.355 1.493-.469.427-.27 1.65-.64 1.28-.952-.597-.498-1.422-.171-2.076.085-.199-.1-.199-.171-.399-.199-.142-.013-.198 0-.34 0 .767-.312 1.422-.825 1.237-1.393-.114-.37-.199-.654 0-1.01.952-1.635-2.987-1.267-3.655-.114-.413.725-.484 1.365-.228 2.176.171.54.854.711 1.608.64-.399.214-.754.526-.968.939-.014.042-.014.085-.042.127-.598 0-1.28.185-1.693.355-2.29.981-4.694 1.693-6.855 2.973-.341.214-1.322.896-.426 1.18.54.171 1.237.085 1.862-.1.03.085.03.185.085.27a6.527 6.527 0 0 0 2.19 1.792c.868.426 2.02.185 2.802-.327.512-.328 1.066-1.138.426-1.593.241-.341.611-.611.967-.867.043.91.157 1.82.384 2.617.058.228.185.399.328.54-.469.1-.925.285-1.28.498-.469.285-1.024.925-.583 1.365-1.01.185-1.991.441-2.915.881-.355.156-1.137.611-1.222 1.095-.455.058-.91.1-1.365.185-.725.114-1.907.455-2.177 1.28-.34.014-.74.085-1.023.156-.839.114-2.418.484-2.489 1.223-.114 1.309.555 2.361 1.124 3.485-.527.512-.897 1.095-1.067 1.877-.34 1.693 3.655 1.082 3.954-.412.043-.228.071-.455.27-.611.484-.355.995-1.04.54-1.537.171-.127.285-.256.228-.355-.498-.967-1.024-1.906-1.095-2.986.213.071.455.128.682.143.27 1.45 1.365 2.73 2.433 3.697.256.214.725.241 1.237.171-.199.172-.384.37-.484.598-.483 1.222-.682 2.46-.838 3.755-.058.526.341 1.039.853 1.152 1.65.384 2.973 1.18 4.31 2.19 1.38 1.053 4.82-.881 3.028-2.247-1.266-.968-2.603-1.764-4.096-2.275.1-.725.213-1.451.497-2.119.1-.256.128-.484.1-.683.328-.127.64-.256.925-.44 2.531-1.522 5.633-1.863 8.349-3.1-.128.412.127.782.697.924 1.153.27 3.285.241 3.67 1.593.383 1.351-.072 2.972.795 4.167.797 1.109 4.594-.227 3.642-1.55-.342-.455-.27-1.351-.299-1.891-.058-.839-.085-1.706-.484-2.489-.811-1.521-3.456-1.65-4.935-2.005-.497-.114-1.081-.767-1.621-.611 0-.1-.1-1.01-.341-1.01h-.085c.013 0 .013.682.028.669.87-.044 1.708.326 2.263-.343" fill="#99aab5"/></svg>