<svg xmlns="http://www.w3.org/2000/svg" viewBox="0 0 511.999 511.999"><path d="M455.111 71.112H56.894c-31.417 0-56.889 25.473-56.889 56.89v255.997c0 31.416 25.472 56.888 56.889 56.888H455.11C486.527 440.887 512 415.416 512 384V128c-.001-31.417-25.471-56.889-56.889-56.889z" fill="#00247d"/><path d="M270.224 256v-28.856l-100.977-70.699H94.882L237.06 256h33.165z" fill="#eee"/><path d="M270.224 235.832L156.86 156.445h-24.789l138.153 96.739v-17.352z" fill="#cf1b2b"/><path d="M115.199 156.445L0 238.449v17.55h47.387l142.193-99.555-74.381.001z" fill="#eee"/><path d="M152.38 156.445L10.444 256h24.561l142.178-99.555H152.38z" fill="#cf1b2b"/><path d="M237.072 71.112L94.895 170.668h74.366l100.963-70.7V71.114h-33.151z" fill="#eee"/><path d="M249.447 71.112l-142.163 99.556h24.788l138.153-96.74v-2.815h-20.778z" fill="#cf1b2b"/><path d="M9.431 96.647l132.794 92.95v-18.93h47.331L48.314 71.757c-16.227 2.455-30.197 11.77-38.883 24.89z" fill="#eee"/><path d="M13.785 90.905l128.441 90.03v-10.268h10.154L24.589 81.184a57.243 57.243 0 0 0-10.804 9.721z" fill="#cf1b2b"/><path d="M270.224 128.001h-99.555V71.112H99.56v56.89H.005v71.11H99.56V256h71.11v-56.889h99.555v-71.11z" fill="#eee"/><g fill="#cf1b2b"><path d="M156.447 256h-42.666V71.112h42.666V256z"/><path d="M270.224 184.889H.005v-42.666h270.219v42.666z"/></g><path d="M468.598 288.249c.383-3.299.553-6.728.553-10.339V177.744H327.116V277.91c0 3.612.17 7.04.554 10.339h140.927z" fill="#55acee"/><path d="M468.598 288.249c-2.007 17.422-9.244 30.307-21.007 40.802-20.337 18.176-49.45 22.171-49.45 26.496 0-4.322-29.127-8.32-49.477-26.496-11.748-10.496-18.986-23.381-20.993-40.802h140.927z" fill="#9f1d22"/><path d="M468.668 288.637H327.555l-.441-3.938h142.22l-.667 3.938z" fill="#9f1d22"/><path d="M403.085 209.826h26.936v-8.931h-26.936v-12.003h-9.43v12.003H366.25v8.931h27.406v113.121h9.43v-113.12z"/><path d="M403.085 223.139c1.621-1.408 2.489-2.248 3.47-2.105 1.01.17 2.361.086 3.356-.214 1.01-.313 5.988-.925 8.035-.241.683.086 1.608.455 3.03 1.663 1.437 1.194 3.528 3.287 2.817 9.06-.712 5.774-.47 8.248-.768 11.463-.526 5.704-1.821 10.41-4.081 10.026 3.086 5.39 3.385 10.013 5.376 13.71 2.006 3.698 3.271 11.25 2.474 19.413-.783 8.162-2.93 26.496 3.541 38.841-1.081.754-3.697 0-6.016-2.474-2.29-2.474-3.314-2.375-5.234-.925-5.831 4.451-11.321 9.87-19.412 4.451-1.85-1.223-2.418-2.702-1.082-6.456 3.399-9.401 5.034-22.286 4.495-28.345l-.001-67.867z" fill="#77b253"/><path d="M370.096 292.889c4.935 5.077 20.338 21.376 22.314 23.225 2.006 1.849 2.944 1.706 3.726-.143 5.575-13.411 4.168-30.491-9.642-47.316-2.233 8.264-7.979 13.639-17.01 15.574-4.594.981-5.39 3.939-4.551 5.077 1.25-2.218 4.01-2.303 5.333.242 1.053 2.09-.341 4.707-2.646 5.405-2.304.668-5.704.597-7.083-1.793-1.393-2.375-2.53-7.936 3.856-10.681 6.4-2.801 13.255-5.646 14.548-11.35 1.323-5.704 3.087-8.477 6.94-8.847 21.333 19.642 24.035 41.6 15.175 61.227-2.161 4.765-5.546 6.016-7.865 3.1-2.303-2.944-18.446-22.03-26.766-31.431 1.909-.127 3.174-1.194 3.671-2.29" fill="#faaa34"/><g fill="#f6ddcd"><path d="M408.653 217.346c.426 1.323.655 3.015-.043 4.536-.711 1.55-.839 3.4.313 5.647 1.848-2.631 4.465-2.09 5.987-3.626 1.565-1.55 1.864-3.015 3.03-3.314-1.166-.995-2.944-2.076-2.545-5.006.384-2.93 4.465-5.32.754-9.785-2.375-2.888-5.846-2.077-7.339-.968-.711.526-1.309 1.28-1.565 1.777-.199.498.071 1.622-.498 2.304-.37.47-.825.925-1.366 1.309-.355.256-.568.611-.198 1.039.142.185.412.214.71.312-.155.355-.37.697-.553.953-.185.227-.114.455.114.64-.299.925.285 1.039-.114 1.721-.327.597-.782 1.309.455 2.006.341.2 1.991.569 2.858.455M393.654 232.688c-2.134.54-5.59-.384-8.249-.072-1.137.128-2.063-.47-1.92-1.621.156-1.166.327-2.944.086-4.551-.341-2.518.854-6.001 2.545-9.856 1.706-3.855 2.545-6.017 2.545-7.823 0-1.209.099-2.545 1.181-3.242.81-.513.968-.995 1.252-1.423.64-.968 1.265-1.194 1.322-.625.071.355-.056.669-.355 1.137.696-.583 1.849-1.265 2.148-1.465.256-.185 1.607-1.137 1.678-.24.554-.27.94-.242 1.04.028.155.327.055.47-.186.696.37-.099.825.584.071 1.194.384-.143.783.526.087 1.137-.739.64-1.608 1.082-1.878 1.593-.256.497-2.105 1.891-2.816 2.205s-.754.726-.754 1.806c0 11.875-1.45 10.908-1.45 13.753 0 .782-.156 1.478.611 1.223.797-.213 1.905-.568 3.043-.568l-.001 6.713zM394.14 258.264c3.485-1.763 7.452-2.375 9.544-2.944 2.076-.526 5.405-2.134 7.011-2.986s2.915-2.007 3.855-2.319c.925-.299 1.963-.939 2.531-2.09 3.015-5.846 4.623-10.539 4.623-14.62 0-2.688-.696-5.689-3.314-3.555-2.446 2.034-5.12 5.945-5.846 8.79-1.095 4.322-1.991 5.234-2.233 6.101-.227.839-1.095.839-2.176 1.066-4.522 1.01-5.603 1.693-8.989 4.24-3.414 2.544-7.082 4.778-9.571 6.158-2.46 1.379-2.901 1.536-3.456 2.659-.554 1.122-1.039 1.962-1.508 2.473-.47.484-.611 1.082-.497 1.693.086.497-.143 2.801-.199 3.584-.029.753.156.967.47.995.299.028.726-.114.896-1.039-.17.925 1.124.611 1.194-.071-.043.995 1.309.412 1.394-.513 0 .64 1.01.199 1.095-.114.227-.782.441-1.607.739-2.232.44-.896.938-2.063 1.806-2.703 1.011-.74.555-1.536 2.631-2.573M419.084 321.36c.256.839.655 1.806.825 2.361.156.584-.128.768-.285 1.11-.81 1.664-1.664 4.366-1.793 5.831-.099.868-.669 1.68-.939 2.162-.298.541-.198.995.498 1.521.327.241 1.394-.086 1.494-.611.412.37 1.11.214 1.393-.37.342.37.925.114 1.31-.47.354.241.853-.199 1.052-.541.526.285 1.11-.043 1.122-1.11 0-.185.143-.584.313-.797.113-.256.185-.754.17-1.181-.015-.441.256-1.265.625-1.877.37-.584 1.01-1.635.711-2.647-.228-.938-.655-.853-.981-2.205-.854-.896-2.007-2.118-3.2-2.176-1.205-.081-1.902.701-2.315 1M397.183 327.97c1.066 1.081 3.485 1.124 5.206-.696-.625-.27-1.976-.881-2.589-1.379-.854.837-1.821 1.805-2.617 2.075"/></g><path d="M408.084 205.492c.412-2.745 2.346-2.658 3.583-2.39.498.114 1.722.228 2.873-.086 2.275-.597 4.01.199 3.797 2.404.612.441 1.252 1.536 1.138 2.446-.099.925.086 1.323.91 1.436.854.114 2.674 1.153 1.479 2.617 1.166.696 2.034 2.46 1.422 3.67-.611 1.181-2.474 1.366-3.215.298-.867.384-2.232.455-3.1-.426-.584.683-2.062.611-2.332 0-.256-.611-.696-.939-1.251-1.11-.612-.199-.67-1.891.285-2.09-.143-.497-.087-1.081.142-1.336.214-.285.043-.783-.512-1.194-.527-.426-.995-2.047-.47-2.93-.91.299-2.96-.584-3.386-1.194-.396-.612-.98-.655-1.363-.115" fill="#955c0f"/><path d="M421.525 216.599c-.613 0-1.143-.256-1.454-.701-.394.173-.857.27-1.305.27-.505 0-1.225-.12-1.794-.694-.26.302-.726.482-1.245.482-.533 0-.962-.192-1.093-.49-.234-.557-.643-.918-1.248-1.105-.327-.106-.472-.605-.45-1.04.024-.442.228-.952.728-1.06-.144-.508-.08-1.081.145-1.335a.469.469 0 0 0 .08-.362c-.04-.273-.255-.573-.593-.823-.547-.443-.985-2.048-.479-2.923-.118.036-.26.055-.42.055-1.032 0-2.59-.733-2.954-1.258-.207-.315-.465-.489-.733-.489-.23 0-.451.133-.623.375l-.01-.003c.252-1.674 1.103-2.522 2.533-2.522.32 0 .666.042 1.059.127.12.027.566.117 1.24.117a6.21 6.21 0 0 0 1.628-.202 5.445 5.445 0 0 1 1.375-.193c.835 0 1.5.246 1.924.714.413.455.584 1.089.506 1.885.64.464 1.25 1.557 1.138 2.45-.106.972.114 1.321.905 1.43.576.076 1.521.554 1.797 1.251.174.44.07.9-.31 1.369 1.163.7 2.035 2.454 1.418 3.674-.314.606-1.006 1-1.765 1zm-1.449-.718l.003.004c.308.445.835.701 1.446.701.752 0 1.444-.392 1.756-.999.615-1.216-.259-2.966-1.42-3.66l-.006-.004.005-.005c.381-.467.486-.925.312-1.363-.273-.694-1.215-1.167-1.787-1.245-.79-.109-1.021-.473-.916-1.444.111-.89-.498-1.98-1.135-2.441l-.004-.003v-.003c.076-.795-.093-1.426-.503-1.879-.422-.464-1.085-.71-1.915-.71-.426 0-.886.065-1.372.191a6.232 6.232 0 0 1-1.633.203c-.675 0-1.122-.09-1.243-.118a4.866 4.866 0 0 0-1.055-.126c-1.415 0-2.263.836-2.518 2.486.173-.231.39-.359.618-.359.272 0 .535.177.742.494.365.523 1.918 1.252 2.945 1.252.166 0 .313-.022.434-.06l.016-.005-.009.015c-.517.867-.08 2.478.468 2.92.339.253.556.556.596.832a.488.488 0 0 1-.084.372c-.225.254-.285.826-.14 1.332l.002.006-.007.001c-.498.105-.7.612-.725 1.05-.023.433.12.925.44 1.028.61.187 1.022.552 1.257 1.112.13.293.553.483 1.082.483.518 0 .981-.181 1.239-.484l.005-.005.004.005c.566.575 1.286.695 1.788.695.447 0 .91-.096 1.305-.271l.01.002zM408.654 217.353l-.003-.013c.734-.097 1.233-.365 1.673-.601.437-.235.82-.44 1.332-.44.041 0 .083.001.125.004v.012a2.118 2.118 0 0 0-.125-.004c-.509 0-.891.205-1.327.439-.439.238-.939.505-1.675.603zM406.478 246.094l-.01-.01c1.098-1.005 1.633-2.603 1.636-4.885.002-1.949-.39-4.074-.705-5.779l-.036-.196c-.53-3.008-.008-5.598 1.552-7.7l.01.007c-1.558 2.099-2.079 4.687-1.549 7.689l.035.196c.317 1.707.708 3.83.707 5.782-.005 2.287-.54 3.887-1.64 4.896zM410.35 254.235c-.831 0-1.665-.171-2.359-.521l.005-.011c1.589.802 3.898.663 5.258-.312 1.342-.965 3.891-.987 5.693-.598l-.003.012c-1.795-.388-4.343-.367-5.684.596-.767.55-1.838.834-2.91.834z"/></svg>