<svg xmlns="http://www.w3.org/2000/svg" viewBox="0 0 512 512"><path d="M512 384c0 31.418-25.473 56.889-56.889 56.889H56.89C25.472 440.889 0 415.417 0 384V128c0-31.418 25.472-56.889 56.889-56.889H455.11C486.53 71.111 512 96.584 512 128v256z" fill="#265fb5"/><path d="M337.735 269.795c.241.725-1.949.256-4.85 4.395-2.93 4.11-.968 9.7-.968 9.7s-3.398 2.674-5.603 5.134c-2.176 2.404-2.176 7.04-2.176 7.04s-2.915.227-7.054 3.626c-4.125 3.399-4.125 9.473-4.125 9.473s-2.915-.725-7.296 2.943c-4.38 3.627-4.38 8.492-4.38 8.492s-3.158-2.447-9.728.725-12.387 8.518-12.387 8.518-49.337-.497-52.993-5.845c-3.655-5.318-13.369-2.901-13.369-2.901s.968-3.186-3.897-6.329c-4.85-3.142-9.473-1.692-9.473-1.692s2.674-1.451 1.452-3.911c-1.21-2.418-4.608-2.177-4.608-2.177s1.934-.725.711-5.106c-1.195-4.366-8.248-3.897-8.248-3.897s3.157-1.92.967-6.06c-2.19-4.152-7.296-3.413-7.296-3.413s.981-3.641 0-7.267c-.968-3.67-4.85-4.395-4.85-4.395s3.157-.484 2.417-4.88c-.725-4.365-5.588-6.555-5.588-6.555s.98-2.902.98-7.78c0-4.85-2.93-6.073-2.93-6.073s3.656-1.706 4.14-5.831c.483-4.125-2.19-8.505-2.19-8.505s2.432-1.949 3.413-5.106c.968-3.172-.497-4.864-.497-4.864s3.171-1.949 4.38-5.348c1.224-3.398.725-7.04.725-7.04s2.674-.74 5.106-3.655 1.224-5.588 1.224-5.588 5.589.24 8.249-2.674c2.687-2.915 2.93-6.571 2.93-6.571s3.398.497 7.78-2.674c4.38-3.143 3.882-6.073 3.882-6.073s4.125 1.223 7.538-.967c3.398-2.19 5.106-6.073 5.106-6.073s1.208 1.693 6.315 0c5.106-1.721 7.053-3.398 7.053-3.398s1.95 2.9 6.813 1.933c4.85-.967 8.732-4.125 8.732-4.125s.754 3.399 6.088 2.433c5.347-.981 7.524-2.688 7.524-2.688s-.469 3.655 3.413 4.637c3.883.967 7.538-.513 7.538-.513s.484 2.688 3.157 3.171c2.674.484 4.608-1.451 4.608-1.451s.484 3.883 4.636 6.073c4.125 2.19 10.923.967 10.923.967s-.241 1.949 2.674 3.399c2.93 1.479 5.845 1.962 5.845 1.962s-.982 4.125 3.655 5.575c4.607 1.465 7.28 1.465 7.28 1.465s.485 3.414 2.177 6.799c1.721 3.414 6.088 4.879 6.088 4.879s-1.465 2.176-.725 6.059c.724 3.897 6.314 5.588 6.314 5.588s-1.45 2.688-.483 6.329c.967 3.655 3.641 6.315 3.641 6.315s-1.706 3.655-1.934 6.813c-.241 3.157 3.655 11.662 3.655 11.662s-3.896 2.19-3.655 6.571c.225 4.369 1.933 8.024 2.174 8.749m31.119-9.23c-.241-4.622-3.143-8.262-3.143-8.262s4.367-4.125 4.125-10.227c-.256-6.072-6.087-10.438-6.087-10.438s1.962-2.19 2.19-6.813c.256-4.607-3.641-6.315-3.641-6.315s1.45-3.882-.725-6.329c-2.205-2.432-5.604-2.19-5.604-2.19s3.171-3.157.981-7.523c-2.19-4.38-6.072-5.348-6.072-5.348s.967-5.347-2.915-9.245c-3.898-3.882-10.695-3.399-10.695-3.399s1.195-8.021-2.19-11.42c-3.414-3.398-10.938-1.208-10.938-1.208 1.209-2.93-.981-8.278-4.622-10.71-3.655-2.417-13.853-1.45-13.853-1.45.725-2.674-2.19-6.073-6.571-7.538-4.366-1.451-8.746.725-8.746.725s-4.125-4.864-7.78-5.106c-3.642-.241-6.315 1.465-6.315 1.465s-1.963-4.38-6.343-4.38c-4.352 0-13.112 5.845-13.112 5.845s-9.97-4.623-14.82-4.38c-4.864.241-7.553 3.399-7.553 3.399s-5.091-2.915-10.937-.242c-5.818 2.674-6.315 6.572-6.315 6.572s-3.642-1.95-9.473-.74c-5.831 1.222-6.571 7.296-6.571 7.296s-4.608-1.949-9.23 1.209c-4.623 3.17-3.399 6.328-3.399 6.328s-3.414-2.673-9.002.242c-5.59 2.915-5.59 8.02-5.59 8.02s-3.64-.967-8.02 4.865c-4.38 5.83-3.642 8.262-3.642 8.262s-4.622.241-7.296 7.04c-2.674 6.813 0 10.211 0 10.211s-3.897 1.707-6.812 7.538-.968 11.676-.968 11.676-5.347 2.433-4.864 9.473c.484 7.053 5.107 8.746 5.107 8.746s-4.125 2.19-4.623 7.78c-.484 5.589 3.171 7.78 3.171 7.78s-3.655 2.19-3.897 6.812c-.241 4.594 7.78 7.297 7.78 7.297s-2.915 1.692-2.915 6.072c0 4.366 5.831 6.3 5.831 6.3s-2.432 2.205-.967 7.808a7.048 7.048 0 0 0 6.556 5.56c-1.451 4.14 3.414 5.605 3.414 5.605s-2.19 1.45 1.692 6.1c3.898 4.58 7.78 2.888 7.78 2.888-1.692 5.107 3.158 6.799 3.158 6.799.497 9.003 10.453 6.826 10.453 6.826 1.707 8.263 8.022 6.315 8.022 6.315s-2.674 3.642 1.465 8.022c4.138 4.395 10.695 2.915 10.695 2.915 3.64 5.845 11.662 8.007 20.665 6.556 8.973-1.451 18.716-1.934 23.325-3.143 4.622-1.208 35.257.228 35.257.228s11.663 2.674 17.978-.711c6.315-3.428 5.83-6.572 5.83-6.572s3.4 2.177 9.97-.967c6.557-3.171 5.348-9.999 5.348-9.999s6.073 0 9.487-3.142c3.398-3.13 2.19-5.107 2.19-5.107s5.333-2.66 7.267-5.077c1.963-2.446.27-4.879.27-4.879s2.418 1.209 6.784-2.66c4.395-3.911 3.897-10.226 3.897-10.226s3.158.484 5.845-3.883c2.674-4.38.953-8.262.953-8.262s3.655-2.688 5.845-8.263c2.19-5.588.256-11.448.256-11.448s2.9-4.364 2.659-8.973" fill="#fff"/><path d="M254.934 344.505c-51.726 0-93.867-39.097-95.616-90.425a85.597 85.597 0 0 0-.072 3.314c0 52.85 42.851 95.701 95.688 95.701 52.864 0 95.701-42.851 95.701-95.701 0-1.109-.029-2.219-.057-3.314-1.75 51.327-43.904 90.425-95.644 90.425" fill="#ffb636"/><path d="M282.553 153.6s-3.073-4.694-9.387-3.882c-6.329.81-14.592-2.433-19.612-5.02-5.02-2.603-12.8 1.28-12.8 7.608 0 6.315 4.053 9.401 9.885 9.401s13.781-2.602 19.271-6.315c4.579-3.1 12.642-1.792 12.642-1.792" fill="#b58fe5"/><path d="M282.553 153.6s-3.073-4.694-9.387-3.882c-6.329.81-14.592-2.433-19.612-5.02-5.02-2.603-12.8 1.28-12.8 7.608 0 6.315 4.053 9.401 9.885 9.401s13.781-2.602 19.271-6.315c4.579-3.1 12.642-1.792 12.642-1.792z" fill="none" stroke="#6b26b5" stroke-width=".01" stroke-miterlimit="10"/><path d="M344.746 193.635c8.59 0 8.733 7.609 8.918 10.681.156 3.086 1.465 9.571 3.555 12.16 2.105 2.589 4.551 8.746 4.879 11.335.312 2.603 0 5.205-2.275 1.793-2.29-3.399-7.638-10.212-12.8-13.128-5.192-2.915-11.507-7.14-11.507-13.625 0-6.471 5.348-9.216 9.23-9.216" fill="#b58fe5"/><path d="M344.746 193.635c8.59 0 8.733 7.609 8.918 10.681.156 3.086 1.465 9.571 3.555 12.16 2.105 2.589 4.551 8.746 4.879 11.335.312 2.603 0 5.205-2.275 1.793-2.29-3.399-7.638-10.212-12.8-13.128-5.192-2.915-11.507-7.14-11.507-13.625 0-6.471 5.348-9.216 9.23-9.216z" fill="none" stroke="#6b26b5" stroke-width=".01" stroke-miterlimit="10"/><path d="M359.111 248.405c5.988 0 8.434 4.537 8.434 9.557s-2.93 9.245-4.224 14.252c-1.294 5.035-.811 12.16-1.792 14.592-.968 2.446-2.262 3.74-2.262 3.74s-1.45-2.105-1.777-5.519c-.341-3.398 0-8.746-2.418-12.985-2.446-4.195-5.845-9.528-5.845-14.407 0-4.849 6.002-9.23 9.884-9.23" fill="#b58fe5"/><path d="M359.111 248.405c5.988 0 8.434 4.537 8.434 9.557s-2.93 9.245-4.224 14.252c-1.294 5.035-.811 12.16-1.792 14.592-.968 2.446-2.262 3.74-2.262 3.74s-1.45-2.105-1.777-5.519c-.341-3.398 0-8.746-2.418-12.985-2.446-4.195-5.845-9.528-5.845-14.407 0-4.849 6.002-9.23 9.884-9.23z" fill="none" stroke="#6b26b5" stroke-width=".01" stroke-miterlimit="10"/><path d="M147.086 221.995s2.433 2.589 3.726 5.675c1.294 3.073 1.95 8.42 4.694 11.819 2.759 3.414 8.605 13.284 8.605 17.507 0 4.21-3.086 8.42-8.605 8.42-5.504 0-11.691-4.693-11.975-9.885-.497-8.902 4.708-7.751 4.054-14.093-.498-4.694-.171-5.348-.328-7.78-.213-3.173-.17-11.663-.17-11.663" fill="#b58fe5"/><g stroke="#6b26b5" stroke-width=".008" stroke-miterlimit="10"><path d="M147.086 221.995s2.433 2.589 3.726 5.675c1.294 3.073 1.95 8.42 4.694 11.819 2.759 3.414 8.605 13.284 8.605 17.507 0 4.21-3.086 8.42-8.605 8.42-5.504 0-11.691-4.693-11.975-9.885-.497-8.902 4.708-7.751 4.054-14.093-.498-4.694-.171-5.348-.328-7.78-.213-3.173-.17-11.663-.17-11.663z" fill="none" stroke-width=".01"/><path d="M202.838 162.034s-5.66 5.02-8.59 12.8c-2.915 7.78-5.988 19.925-14.892 19.925-7.466 0-9.415-6.315-9.415-10.211 0-3.883 5.02-8.093 10.055-9.714 5.02-1.621 8.178-3.983 10.695-7.14 3.883-4.85 11.506-5.818 11.506-5.818" fill="#b58fe5" stroke-width=".01"/></g><g fill="#8c8a8c"><path d="M239.303 185.216c12.472 0 21.717.313 28.188.313 6.5 0 12.972 2.105 12.972 8.106s-3.23 8.106-3.23 8.106 1.28 4.523-.81 9.401c-2.134 4.85-5.845 7.453-12.502 7.453-6.627 0-18.46.156-21.702.156-3.229 0-6.286-.782-8.434-8.106-6.315-21.702-1.124-25.429 5.518-25.429M243.058 218.909h24.462c2.759 0 5.205 0 5.504 7.78.341 7.78 13.952 116.039 14.762 124.131.796 8.106-6.001 9.074-6.001 9.074s-1.934 3.726-10.851 6.315c-8.918 2.589-12.16 1.621-15.233.811-3.086-.811-6.485-1.777-10.866 0-4.38 1.777-8.263 1.294-11.989-.64-3.726-1.934-4.054-4.879-4.054-4.879s-2.432-.654-5.347-2.901-2.759-7.78-1.949-11.52c.811-3.713 13.128-108.885 14.109-116.352.968-7.44 2.105-11.82 7.452-11.82"/></g><path d="M255.36 189.199l14.592 45.638 48.37.1-39.338 28.147 15.302 45.881-38.926-28.729-38.913 28.729 15.303-45.881-39.367-28.147 48.398-.1L255.36 189.2z" fill="#fff"/><g fill="#ffb636"><path d="M172.231 245.803s-2.872-9.202-9.401-7.937c-5.035.981-3.57 3.57-1.949 5.02 1.621 1.452 1.621 2.433 3.073 1.452 1.465-.968 3.74-.797 4.863.327 1.138 1.137 3.414 1.137 3.414 1.137M151.794 220.033s.967.98 2.105 2.93c1.137 1.933 5.518 2.915 7.296 2.26 1.777-.64 2.261 4.708.64 6.16-1.608 1.45-3.485 2.176-6.641-.654-4.538-4.041-3.4-10.696-3.4-10.696M167.026 220.858c2.433-.825 4.708 1.293 4.38 4.537s-3.726 9.727-3.726 9.727-.654-1.293-1.137-2.93c-.484-1.607 1.777-2.417.327-5.02-1.465-2.59.156-6.315.156-6.315M160.058 197.546s3.398 3.243 5.347 3.898c1.934.654 5.831-.981 6.955 1.621 1.137 2.589 1.465 8.106-3.073 6.641-4.537-1.465-6.314-4.21-7.452-6.641-1.137-2.432-1.777-5.519-1.777-5.519M184.206 190.222c1.949-2.105 6.813-2.275 7.125 1.778.328 4.054-3.072 11.506-3.072 11.506s-.981-2.602-1.138-3.726c-.156-1.137-1.137-4.707-3.242-5.504-2.105-.825.327-4.053.327-4.053M192.952 180.181c2.76-1.949 5.832-.327 6.657 2.105.796 2.446-.995 11.349-2.447 13.284 0 0-.64-2.105-.967-3.229-.313-1.137.156-5.504-3.57-6.485-3.725-.967.328-5.675.328-5.675M208.341 155.165s-9.074 8.263-3.726 14.593c5.347 6.315 6.159 0 5.504-1.95-.64-1.948-.156-2.104-1.294-3.897-1.124-1.777-1.124-3.712-.484-5.177.654-1.465 0-3.569 0-3.569"/><path d="M202.026 175.645c-.327 2.433.484 3.57 1.949 4.694 1.451 1.137.64 5.675.64 5.675s2.915-.64 3.57-6.001c.654-5.348-1.451-8.093-2.915-8.093-1.451-.001-3.244 3.725-3.244 3.725M214.329 167.822c-1.465 1.793-1.793 5.988.64 7.78 2.432 1.778 1.465 7.297 1.465 7.297s3.555-2.105 3.882-7.14c.328-5.02-2.759-8.59-2.759-8.59l-3.228.653zM225.849 150.201s-7.95 6.983-3.898 12.8c4.054 5.845 7.95-1.293 6.485-2.745-1.465-1.465-3.882-2.758-2.915-5.347.968-2.603.328-4.708.328-4.708"/><path d="M226.502 165.276c2.59-.811 4.21.981 4.708 3.726.484 2.76-3.57 10.852-3.57 10.852s-1.777-1.622-.981-4.039c.811-2.433-.796-4.054-2.261-5.504-1.464-1.478-.483-4.223 2.105-5.035M245.134 160.256c-3.029.711-4.694 3.57-2.105 5.675s2.432 3.229 1.792 4.85c-.654 1.635.156 3.57.156 3.57s3.4-1.777 4.367-6.812c.981-5.008-1.45-7.938-4.21-7.283M285.014 150.528s-2.901 6.485.484 10.695c3.413 4.21 6.656.967 6.485-1.466-.157-2.417-2.433-2.9-3.883-3.882-1.451-.968-2.261-.968-1.949-2.417.341-1.466-1.137-2.93-1.137-2.93M285.155 163.968c-1.479.653-2.105 5.347-1.309 6.812.825 1.451-1.124 3.242-1.621 5.02l-.484 1.792s4.054-1.308 6.657-5.19c2.588-3.898 2.745-7.14 1.123-8.263-1.621-1.138-4.366-.171-4.366-.171M299.094 153.315s-7.14 5.987-6.485 11.676c.654 5.66 6.001 4.366 6.969 1.621.967-2.758-.812-5.034-1.124-6.656-.328-1.621.312-2.588.796-3.882.484-1.294 0-2.759-.156-2.759"/><path d="M297.159 169.102c-1.479 1.793-.654 5.348-.654 7.453 0 2.105-2.417 4.21-2.261 6.172 0 0 7.296-1.792 8.262-9.415.968-7.623-5.347-4.21-5.347-4.21M307.84 165.433c3.058-2.433 8.434-2.105 12.488-.64 0 0-1.153 2.588-3.4 2.417-2.274-.156-1.152 4.537-6.812 5.347-5.675.826-4.709-5.176-2.276-7.124M311.41 177.749c-2.859 1.137-4.38 5.035-1.621 6.485 2.745 1.451 2.417 2.275 2.261 4.366-.171 2.119 1.153 3.726 1.153 3.726s2.076-3.072 2.573-7.936c.498-4.862-1.123-7.935-4.366-6.641M320.825 181.475c.313-3.086 4.38-6.001 8.249-6.001 3.897 0 6.329 1.465 6.329 1.465s-.157 1.451-3.073 1.607c-2.915.172-3.086 5.832-7.95 6.173-4.864.312-3.555-3.244-3.555-3.244M349.81 237.382s1.792-1.792 4.551-1.933c2.745-.172 5.334 2.573 6.983 4.693 1.592 2.105 2.404 5.02 2.404 5.02s-2.262 0-3.073-1.293c-.811-1.294-7.14-.328-10.211-2.603 0 0-1.294 1.465-2.901 2.433-1.635.981-4.552.171-5.69 2.275-1.123 2.105-3.057 3.555-3.057 3.555s-.654-6.471 2.248-9.714c2.93-3.242 4.223-3.57 6.158-3.242 1.948.327 2.588.81 2.588.81"/></g><path d="M181.291 193.309s2.915 1.949 1.465 7.936c-1.465 6.001-3.257 13.44-2.105 18.475 0 0-4.054-4.864-3.57-9.727.484-4.864 4.054-8.263 2.915-11.99-1.137-3.728 1.295-4.694 1.295-4.694" fill="#207900"/><path d="M181.291 193.309s2.915 1.949 1.465 7.936c-1.465 6.001-3.257 13.44-2.105 18.475 0 0-4.054-4.864-3.57-9.727.484-4.864 4.054-8.263 2.915-11.99-1.137-3.728 1.295-4.694 1.295-4.694z" fill="none" stroke="#103800" stroke-width=".0425" stroke-miterlimit="10"/><path d="M173.995 204.814c.968 4.537 2.105 12.316 1.621 16.37s-4.537 7.281-4.537 7.281 2.432-5.178 1.777-11.335c-.553-5.319 1.139-12.316 1.139-12.316" fill="#207900"/><path d="M173.995 204.814c.968 4.537 2.105 12.316 1.621 16.37s-4.537 7.281-4.537 7.281 2.432-5.178 1.777-11.335c-.553-5.319 1.139-12.316 1.139-12.316z" fill="none" stroke="#103800" stroke-width=".0425" stroke-miterlimit="10"/><path d="M158.435 240.498s-2.147 3.213-2.105 5.518c.029 2.304 2.261 3.727 3.57 3.727 5.334 0 4.537-6.16 2.745-8.762 0 0 1.792-1.451 2.433-4.366.653-2.915-1.934-5.191-1.934-5.191s3.072 0 4.039-3.243c.98-3.242-.654-6.471-.654-6.471s2.93-.484 4.224-3.897c1.293-3.4-.172-6.002-.172-6.002s2.603-.156 4.38-3.072c1.793-2.915.968-5.675.968-5.675s1.949.327 4.21-2.589c2.275-2.93 1.635-5.675 1.635-5.675s2.261-.156 4.366-2.105c2.119-1.934 2.275-5.504 2.275-5.504s2.105.156 4.538-1.949c2.432-2.104 2.26-4.21 2.26-4.21s2.603.812 5.52-1.137c2.915-1.949 2.915-5.035 2.915-5.035s1.948 1.137 5.503-.796c3.57-1.949 3.414-4.551 3.414-4.551s2.105 1.465 5.66-.47c3.57-1.962 3.726-3.74 3.726-3.74s1.635 1.31 4.864.172c3.242-1.137 4.38-3.74 4.38-3.74s1.137 2.446 5.02 1.479c3.897-.982 5.02-4.068 5.02-4.068s1.621 2.759 4.707 2.759c3.073 0 5.676-2.275 5.676-2.275s1.293 1.949 4.366 1.949c3.086 0 5.347-1.949 5.347-1.949s.982 1.309 4.864 1.635c3.898.312 5.361-.811 5.361-.811s1.437 2.417 3.883 3.072c2.417.654 5.504-.484 5.504-.484s.796 2.433 3.726 3.57c2.915 1.124 5.845 0 5.845 0s-.171 2.745 3.229 3.883c3.398 1.137 5.83 0 5.83 0s.968 2.93 4.04 4.366c3.086 1.465 5.36 1.138 5.36 1.138s.172 2.432 2.746 4.21c2.589 1.792 5.361 1.635 5.361 1.635s0 2.915 2.433 4.85c2.432 1.948 5.02 2.432 5.02 2.432s-1.138 2.759.653 4.864c1.778 2.105 5.163 3.555 5.163 3.555s-.484 2.774.995 5.035c1.451 2.275 4.366 3.399 4.366 3.399s.171 1.948.968 4.38c.81 2.432 4.707 3.882 4.707 3.882s-1.465 2.603-.811 5.035c.654 2.433 3.896 4.523 3.896 4.523s-1.153 1.308-.825 3.911c.328 2.574 3.086 5.334 3.086 5.334s-.64 1.465-.825 5.347c-.156 3.898 2.275 5.348 2.275 5.348s-1.607 1.792-1.777 4.707c-.143 2.915 2.432 5.66 4.864 5.504 2.446-.156 3.555-1.778 3.256-4.694-.341-2.93-2.788-5.845-2.788-5.845s2.134-2.261 1.978-5.02c-.199-2.759-3.74-6.159-3.74-6.159s1.465-.81 1.294-4.522c-.172-3.74-3.4-5.035-3.4-5.035s1.125-.968.313-4.864c-.796-3.882-3.712-4.85-3.712-4.85s.796-2.105-.498-5.361c-1.28-3.229-4.707-4.054-4.707-4.054s0-2.589-1.124-5.504c-1.137-2.915-4.537-2.758-4.537-2.758s.483-3.898-1.95-6.159c-2.432-2.261-5.347-2.433-5.347-2.433s.968-2.588-1.948-5.347c-2.915-2.745-5.504-1.608-5.504-1.608s0-3.74-3.256-6c-3.214-2.276-5.178-1.295-5.178-1.295s-.156-2.275-3.243-3.897c-3.072-1.621-5.817-1.138-5.817-1.138s-.156-2.745-3.57-4.053c-3.414-1.28-6.159-.313-6.159-.313s0-2.432-3.726-3.726c-3.74-1.309-6.016-.328-6.016-.328s-.953-1.777-3.869-2.915c-2.915-1.137-6.329.654-6.329.654s-2.261-2.432-5.504-2.759c-3.242-.327-5.177 1.294-5.177 1.294s-.981-1.621-4.708-1.949c-3.726-.312-5.347 1.793-5.347 1.793s-.654-1.137-4.054-1.465c-3.399-.328-6.144 3.242-6.144 3.242s-2.93-2.26-6-1.777c-3.087.469-4.865 3.073-4.865 3.073s-1.792-1.294-5.19-.484c-3.415.811-4.85 3.399-4.85 3.399s-1.466-.812-4.708.483c-3.243 1.294-4.054 4.708-4.054 4.708s-2.105-1.465-6.001.796c-3.883 2.275-3.713 4.224-3.713 4.224s-1.635-.654-4.864 1.137c-3.257 1.778-2.758 5.504-2.758 5.504s-2.589-1.124-5.832 1.294c-3.242 2.432-2.275 5.347-2.275 5.347s-3.882-.156-5.675 2.603c-1.777 2.745-1.45 5.831-1.45 5.831s-3.4.327-5.02 2.915c-1.622 2.589-.655 5.675-.655 5.675s-3.072 0-4.693 3.072c-1.635 3.087-.654 5.832-.654 5.832s-3.073.811-4.224 4.223c-1.124 3.4.171 5.66.171 5.66s-3.555.982-4.366 4.224c-.811 3.229.64 5.988.64 5.988s-2.105 1.293-2.759 4.537c-.63 3.247 1.473 5.352 1.473 5.352" fill="#de200f"/><g fill="#ffe301"><path d="M158.435 244.195s1.664 1.365 3.555 0c0 0 1.294 4.622-2.091 4.054-2.957-.511-1.464-4.054-1.464-4.054M159.418 235.364s.725.682 1.82.767c1.095.085 2.02-.327 2.02-.327s.085 1.222-.4 2.346c-.483 1.137-1.25 2.389-2.715 1.906-1.452-.484-1.338-2.389-1.167-3.2.156-.81.441-1.492.441-1.492M161.962 224.854s.968.811 1.907.896c.925.071 2.062-.171 2.062-.171s-.114 1.351-.697 2.531c-.555 1.166-1.608 1.934-2.774 1.65-1.18-.285-1.18-1.862-1.138-2.801.043-.925.64-2.105.64-2.105M165.66 215.026s.64.839 1.494 1.095c.854.241 2.147.285 2.147.285s-.327 1.536-.853 2.304c-.527.767-1.664 1.777-2.76 1.294-1.094-.484-1.208-1.82-.967-2.987a4.849 4.849 0 0 1 .939-1.99M170.468 205.583s.597.98 1.62 1.25c1.01.286 2.106.286 2.106.286s-.455 1.18-1.095 2.119c-.654.925-1.835 1.45-3.044 1.01-.981-.37-1.052-1.907-.725-2.83.328-.954 1.138-1.836 1.138-1.836M176.27 196.551s.441.982 1.209 1.494c.981.654 2.105.725 2.105.725s-1.323 1.706-1.934 2.19c-.611.498-2.389 1.338-3.285-.156-.698-1.153 0-2.346.441-2.915.454-.57 1.464-1.338 1.464-1.338M182.542 188.046s.313 1.18 1.167 1.693c.853.54 2.076.725 2.076.725s-1.323 3.285-3.698 2.93c-2.388-.37-1.777-2.56-1.293-3.414.497-.839 1.748-1.934 1.748-1.934M189.995 180.906s.569 1.238 1.095 1.664c.698.569 1.835 1.01 1.835 1.01s-1.451 2.02-3.129 2.319c-1.621.285-2.716-.854-2.631-2.105.099-1.622 2.83-2.888 2.83-2.888M198.215 174.18s.299 1.222.939 1.792c.654.555 1.891 1.21 1.891 1.21s-1.536 2.147-3.356 2.147c-1.806 0-2.389-.768-2.389-1.778 0-1.023.698-1.991 1.223-2.361s1.692-1.01 1.692-1.01M207.175 168.249s.114 1.365.767 2.232c.442.583 1.736 1.166 1.736 1.166s-1.494 1.863-3.357 1.863c-1.862 0-2.432-.939-2.432-2.034s.854-1.934 1.465-2.389c.599-.44 1.821-.838 1.821-.838M216.605 163.641s-.071 1.465.37 2.148c.441.697 1.664 1.494 1.664 1.494s-1.508 1.066-2.732 1.222c-1.195.171-2.26-.042-2.617-1.422-.37-1.365.597-2.304 1.166-2.674.57-.355 2.149-.768 2.149-.768M226.176 159.389s-.042 1.337.598 2.502c.426.768 1.222 1.508 1.222 1.508s-1.166 1.095-3.2.981c-1.977-.128-2.332-1.735-2.02-2.845.484-1.734 3.4-2.146 3.4-2.146M236.786 156.8s-.441 1.664-.042 2.631c.412.968 1.222 1.579 1.222 1.579s-1.465.811-3.086.811c-1.607 0-2.759-1.123-2.433-2.758.5-2.334 4.34-2.263 4.34-2.263M247.111 155.875s-.327 1.18-.285 1.863c.071 1.465.881 2.232.881 2.232s-1.407.725-3.072.328c-1.65-.413-2.232-.926-2.19-2.32.043-1.364 1.422-1.99 2.389-2.176.968-.21 2.277.073 2.277.073M253.313 157.654c-.072-.854 1.25-2.219 3.925-2.19-.043.085-.2 1.507.042 2.232.241.725-3.967-.042-3.967-.042M263.609 157.411c.682-1.494 3.769-1.579 4.864-.967 0 0-.868 1.735-.442 2.674.399.925-4.422-1.707-4.422-1.707M278.998 158.421s-1.138.811-1.294 1.735c-.171.939.327 2.319.327 2.319s-1.621-.128-2.816-.569c-1.166-.455-1.934-1.664-1.65-2.986.241-1.109 1.507-1.465 2.645-1.507 1.124-.044 2.787 1.008 2.787 1.008M288.854 161.864s-.654.241-1.039 1.451c-.426 1.222-.1 2.404-.1 2.404-1.222-.257-2.134-.569-3.171-1.423-.968-.825-1.081-1.749-.598-2.801.484-1.039 1.693-1.01 2.774-.839 1.039.155 2.134 1.208 2.134 1.208M293.504 165.063c.64-1.138 3.271-.598 4.053 0 .768.61.982 1.137.982 1.137s-.897.199-1.309 1.137c-.413.925-.114 2.275-.114 2.275s-1.209-.34-2.275-1.023c-1.052-.682-2.218-1.89-1.337-3.527M302.734 170.097c.682-1.465 2.56-1.18 3.485-.568.939.611 1.536 1.494 1.536 1.494s-.968.285-1.407 1.137c-.442.854-.484 2.361-.484 2.361s-1.423-.455-2.389-1.351c-.983-.882-1.224-2.02-.741-3.072M311.566 175.36c.854-1.053 2.105-.811 3.044-.085.925.725 1.521 2.119 1.521 2.119s-.952.241-1.479.881c-.526.654-.526 1.934-.526 1.934s-1.209-.355-2.205-1.494c-.952-1.123-.995-2.559-.355-3.355M319.331 182.045c.953-1.081 2.418-.597 3.143.114.711.74 1.451 2.475 1.451 2.475s-1.323.085-1.82.654c-.484.568-.796 1.948-.796 1.948s-.825-.484-1.635-1.706c-.811-1.224-1.096-2.59-.343-3.485M326.826 189.454c1.066-1.01 2.816-.043 3.285.555.683.896.897 2.205.897 2.205s-.925.156-1.508.555c-.555.412-1.124 1.749-1.124 1.749s-.938-.484-1.55-1.58c-.597-1.094-.952-2.56 0-3.484M334.734 198.257c2.232-.085 3.414 2.674 3.414 2.674s-2.262-.042-3.058 1.778c-.754 1.82-.953-2.46-.953-3.001 0-.525.597-1.45.597-1.45M338.46 206.635c1.338-1.066 2.731-.285 3.256.569.526.853 1.01 2.645 1.01 2.645s-1.38.114-2.219.597c-.853.484-1.55 1.494-1.55 1.494s-.697-.881-1.222-2.417c-.511-1.552.127-2.404.725-2.888M343.183 215.865c1.322-.796 2.432.328 3 .981.57.64.94 2.389.94 2.389s-1.465.029-2.12.441c-.64.399-1.493 1.693-1.493 1.693s-.767-1.338-1.109-2.433c-.313-1.08-.143-2.502.782-3.071M347.022 225.138c1.423-.598 2.532.767 2.717 1.792.156 1.01.27 2.502.27 2.502s-.683-.327-1.907 0c-1.266.342-1.777.94-1.777.94s-.654-1.138-.825-2.39c-.141-1.266.1-2.247 1.523-2.844M349.313 235.563c1.977-.498 2.63 1.095 2.66 2.417.028 1.394-.03 2.034-.03 2.034s-.895-.285-1.92 0c-1.01.27-1.607 1.137-1.607 1.137s-.582-1.309-.782-2.56c-.199-1.251.171-2.659 1.678-3.029M350.009 245.66c1.436-.37 2.816 1.052 2.887 2.19.085 1.124.043 2.417.043 2.417s-.968-.355-1.864-.198c-.881.156-2.02 1.095-2.02 1.095s-.384-1.18-.526-2.304c-.155-1.123-.07-2.801 1.48-3.2"/></g><path d="M325.348 192.981c3.768-1.081 3.882 2.915 4.707 4.694.796 1.777-.981 7.296-2.774 9.23 0 0-1.124-.64-.796-2.589.313-1.934-3.74-5.987-3.882-7.78-.186-1.777 1.607-3.242 2.744-3.555" fill="#ffb636"/><path d="M271.217 175.317s4.538-1.28 4.538-8.42-10.197-11.676-15.559-8.917l1.793 3.898s-.171-.328 2.915-.328 6.585 2.333 7.296 5.675c.966 4.523-.982 8.093-.982 8.093" fill="#207900"/><path d="M271.217 175.317s4.538-1.28 4.538-8.42-10.197-11.676-15.559-8.917l1.793 3.898s-.171-.328 2.915-.328 6.585 2.333 7.296 5.675c.966 4.523-.982 8.093-.982 8.093z" fill="none" stroke="#103800" stroke-width=".0425" stroke-miterlimit="10"/><path d="M250.639 159.431s3.57-3.242 7.95-3.242c4.366 0 7.452 5.02 7.452 8.434 0 3.398-1.137 11.022-8.59 11.022 0 0 4.21-2.915 4.21-8.605 0-5.66-3.399-8.249-5.504-8.249-2.12 0-5.518.64-5.518.64" fill="#207900"/><path d="M250.639 159.431s3.57-3.242 7.95-3.242c4.366 0 7.452 5.02 7.452 8.434 0 3.398-1.137 11.022-8.59 11.022 0 0 4.21-2.915 4.21-8.605 0-5.66-3.399-8.249-5.504-8.249-2.12 0-5.518.64-5.518.64z" fill="none" stroke="#103800" stroke-width=".0425" stroke-miterlimit="10"/><path d="M335.886 195.257s-1.479 5.832.484 10.368c1.949 4.537 5.66 17.024-1.792 21.717 0 0 .98-5.83.825-10.525-.172-4.707-3.087-9.727-3.257-13.952-.142-4.209 3.74-7.607 3.74-7.607" fill="#207900"/><path d="M335.886 195.257s-1.479 5.832.484 10.368c1.949 4.537 5.66 17.024-1.792 21.717 0 0 .98-5.83.825-10.525-.172-4.707-3.087-9.727-3.257-13.952-.142-4.209 3.74-7.607 3.74-7.607z" fill="none" stroke="#103800" stroke-width=".0425" stroke-miterlimit="10"/><path d="M343.04 210.915s-.37 4.978-.171 8.918c.341 6.158 10.211 14.264 7.14 23.338 0 0-1.465-5.347-3.399-9.074-1.963-3.726-6.001-11.022-5.831-14.918.156-3.883 2.261-8.264 2.261-8.264" fill="#207900"/><path d="M343.04 210.915s-.37 4.978-.171 8.918c.341 6.158 10.211 14.264 7.14 23.338 0 0-1.465-5.347-3.399-9.074-1.963-3.726-6.001-11.022-5.831-14.918.156-3.883 2.261-8.264 2.261-8.264z" fill="none" stroke="#103800" stroke-width=".0425" stroke-miterlimit="10"/><path d="M352.399 256.498s5.518 7.125 5.191 12.657c-.313 5.504-3.869 11.634-2.275 16.355 0 0-3.57-4.395-2.261-12.004s-.655-17.009-.655-17.009" fill="#207900"/><path d="M352.399 256.498s5.518 7.125 5.191 12.657c-.313 5.504-3.869 11.634-2.275 16.355 0 0-3.57-4.395-2.261-12.004s-.655-17.009-.655-17.009z" fill="none" stroke="#103800" stroke-width=".0425" stroke-miterlimit="10"/><path d="M351.601 255.715s3.84 6.627 3.726 10.866c-.156 6.94-4.366 14.393-5.83 18.944-1.466 4.538-2.106 12.644-2.106 12.644s-1.621-5.035-1.294-9.415c.328-4.366 4.552-13.753 5.348-20.893.796-7.14.156-12.146.156-12.146" fill="#207900"/><path d="M351.601 255.715s3.84 6.627 3.726 10.866c-.156 6.94-4.366 14.393-5.83 18.944-1.466 4.538-2.106 12.644-2.106 12.644s-1.621-5.035-1.294-9.415c.328-4.366 4.552-13.753 5.348-20.893.796-7.14.156-12.146.156-12.146z" fill="none" stroke="#103800" stroke-width=".0425" stroke-miterlimit="10"/><path d="M155.52 257.806s0 7.936.327 11.193c.328 3.213 7.297 13.937 8.263 19.257.967 5.361-3.073 11.036-3.073 11.036s.484-6.158 0-9.4-7.936-14.565-7.78-20.41c.158-5.845 2.263-11.676 2.263-11.676" fill="#207900"/><path d="M155.52 257.806s0 7.936.327 11.193c.328 3.213 7.297 13.937 8.263 19.257.967 5.361-3.073 11.036-3.073 11.036s.484-6.158 0-9.4-7.936-14.565-7.78-20.41c.158-5.845 2.263-11.676 2.263-11.676z" fill="none" stroke="#103800" stroke-width=".0425" stroke-miterlimit="10"/><path d="M156.445 294.414s2.433-2.105 2.275-5.49c-.171-3.414-1.963-8.448-3.57-12.644-1.621-4.239-2.275-10.709-1.465-12.971.811-2.275 1.777-5.519 1.777-5.519s-4.366 4.879-4.85 9.415c-.497 4.522.556 11.534 3.073 16.199 3.242 5.99 2.76 11.01 2.76 11.01" fill="#207900"/><path d="M156.445 294.414s2.433-2.105 2.275-5.49c-.171-3.414-1.963-8.448-3.57-12.644-1.621-4.239-2.275-10.709-1.465-12.971.811-2.275 1.777-5.519 1.777-5.519s-4.366 4.879-4.85 9.415c-.497 4.522.556 11.534 3.073 16.199 3.242 5.99 2.76 11.01 2.76 11.01z" fill="none" stroke="#103800" stroke-width=".0425" stroke-miterlimit="10"/></svg>