<svg xmlns="http://www.w3.org/2000/svg" viewBox="0 0 512 512"><path d="M512 384c0 31.418-25.473 56.889-56.889 56.889H56.89C25.472 440.889 0 415.417 0 384V128c0-31.418 25.472-56.889 56.889-56.889H455.11C486.53 71.111 512 96.584 512 128v256z" fill="#003893"/><path d="M491.989 85.049L11.875 418.46c.37.469.754.91 1.137 1.394L512 156.488v-28.445c0-17.265-7.865-32.555-20.011-42.994" fill="#f4900c"/><path d="M14.392 421.475L512 241.777v-85.333L13.014 419.81c.468.555.895 1.124 1.378 1.664" fill="#eee"/><path d="M128 98.418l4.353 73.33 14.534-30.707-6.286 33.38 23.31-24.704-16.299 29.824 29.81-16.299-24.703 23.31 33.38-6.286-30.691 14.535 73.33 4.353-73.33 4.337 30.69 14.535-33.38-6.272 24.705 23.31-29.81-16.299 16.298 29.81-23.31-24.704 6.287 33.38-14.535-30.691L128 299.875l-4.352-73.315-14.535 30.691 6.286-33.38-23.31 24.704 16.299-29.81-29.81 16.299 24.703-23.31-33.38 6.272 30.692-14.535-73.33-4.337 73.33-4.353L69.9 180.266l33.38 6.286-24.704-23.31 29.81 16.3-16.298-29.825 23.31 24.704-6.287-33.38 14.535 30.706L128 98.417z" fill="#fff"/></svg>