<svg xmlns="http://www.w3.org/2000/svg" viewBox="0 0 512 512"><path d="M512 384c0 31.418-25.473 56.889-56.889 56.889H56.89C25.472 440.889 0 415.417 0 384V128c0-31.418 25.472-56.889 56.889-56.889H455.11C486.53 71.111 512 96.584 512 128v256z" fill="#ffcc4d"/><path d="M497.777 384c0 23.566-19.1 42.666-42.666 42.666H56.89c-23.566 0-42.666-19.1-42.666-42.666V128c0-23.566 19.1-42.666 42.666-42.666H455.11c23.566 0 42.666 19.1 42.666 42.666v256z" fill="#dd2e44"/><path d="M325.475 247.481c8.59-34.275-19.258-64.582-19.258-64.582l-7.296 35.57-15.005 19.755 6.229 11.079-6.215 3.456-14.749-20.438 5.462-12.373 19-9.8-21.034-6.954-12.743 14.834L256 234.424l-4.864-16.399-13.767-14.834-19.74 4.51 16.555 11.035 6.614 13.583-13.554 21.091-7.41-4.11 6.229-11.079-14.99-19.755-7.31-35.57s-27.833 30.308-19.258 64.583c8.59 34.275 45.525 39.082 45.525 39.082l-23.495 15.887-13.752 1.108-2.347 15.09 12.459 5.803 10.951-12.004 27.264-9.999-15.545 22.67L256 341.331l29.44-16.214-15.217-21.46v-.897l26.168 9.685 10.823 12.004 12.401-5.803-2.389-15.09-13.781-1.109-23.495-15.886c0 .003 36.935-4.805 45.525-39.08" fill="#ffcc4d"/><g fill="#5c913b"><path d="M256 277.334v18.446s-2.574-3.869-10.666-6.229c-10.666-3.1-12.445-12.217-12.445-12.217H256zM256 277.334v18.446s2.574-3.869 10.666-6.229c10.666-3.1 12.445-12.217 12.445-12.217H256z"/></g><g fill="#269"><path d="M237.995 238.934s10.439 4.223 18.005.441v36.224h-23.111s-.897-7.78 2.218-18.005c1.95-6.371-1.777-11.549-1.777-11.549l4.665-7.111zM274.034 238.934s-10.439 4.223-18.005.441v36.224h23.111s.896-7.78-2.219-18.005c-1.949-6.371 1.778-11.549 1.778-11.549l-4.665-7.111zM328.249 301.112c0 6.258-5.064 11.335-11.335 11.335-6.258 0-11.335-5.077-11.335-11.335 0-6.272 5.077-11.335 11.335-11.335a11.32 11.32 0 0 1 11.335 11.336"/></g><g fill="#ffcc4d"><path d="M270.649 199.439c0 3.129-6.215 5.675-13.895 5.675-7.666 0-13.881-2.546-13.881-5.675s6.215-5.66 13.88-5.66c7.68-.001 13.896 2.53 13.896 5.66"/><path d="M271.502 192.042c-2.66 1.167-3.782-.938-1.607-3.242s-.399-7.694-.399-7.694 3.783 2.219 4.224 4.451c.441 2.22.441 5.334-2.218 6.485m-7.495-3.356c-.61 1.793-.725 2.859-1.692 3.158-.968.298-4.58-1.267-4.58-1.267s1.764-2.36 2.219-4.58c.441-2.218-1.109-6.74-1.109-6.74s5.546 1.848 5.987 4.067c.455 2.233-.213 3.556-.825 5.362m-13.767 3.158c-.953-.299-1.066-1.365-1.679-3.158-.611-1.806-1.28-3.129-.839-5.361.442-2.219 6.002-4.068 6.002-4.068s-1.55 4.523-1.109 6.742c.441 2.218 2.219 4.58 2.219 4.58s-3.627 1.563-4.594 1.265m-9.187.198c-2.66-1.152-2.66-4.266-2.22-6.485.442-2.232 4.225-4.45 4.225-4.45s-2.574 5.39-.4 7.693 1.068 4.409-1.605 3.242m15.346-17.82c-12.033 0-21.789 5.618-21.789 12.544 0 6.94 9.756 12.559 21.789 12.559 12.017 0 21.774-5.618 21.774-12.559 0-6.926-9.757-12.544-21.774-12.544M328.249 302.336c-.384 1.55-1.978 2.475-3.513 2.076l-15.701-4.08c-1.536-.4-2.446-1.992-2.063-3.528.4-1.55 1.978-2.46 3.513-2.076l15.701 4.08c1.537.413 2.489 1.978 2.063 3.528"/><path d="M319.929 300.53c-.341 1.365-1.721 2.19-3.115 1.835-1.365-.355-2.176-1.735-1.82-3.129l3.512-16.085a2.556 2.556 0 0 1 3.115-1.82 2.543 2.543 0 0 1 1.82 3.115l-3.512 16.084zM210.986 339.626c-.854.328-2.361-1.451-3.342-3.954l-27.677-70.286c-.995-2.517-1.095-4.835-.24-5.162l1.393-.569c.867-.328 4.48.611 5.461 3.129l27.663 70.272c.995 2.518-.995 5.66-1.863 6.016l-1.395.554zM267.577 275.555h-23.196v-16.029h23.196v16.029z"/></g></svg>