<svg xmlns="http://www.w3.org/2000/svg" viewBox="0 0 512 512"><path d="M455.11 71.111H56.884C25.542 71.111.122 96.463 0 127.777v256.452c.121 31.257 25.451 56.57 56.715 56.661H455.28c31.339-.093 56.72-25.525 56.72-56.886V128c0-31.417-25.472-56.889-56.89-56.889z" fill="#6cf"/><path fill="#fff" d="M166.098 367.477l89.899-222.409.002.005.004-.009 89.9 222.409 21.443 26.601 11.903 14.76-123.246-304.447L132.74 408.841z"/><path d="M255.997 145.068l-89.899 222.409 89.899-111.475 89.9 111.475-89.898-222.404z"/><path fill="#fcd116" d="M367.346 394.074l-21.449-26.597-89.9-111.475-89.899 111.475-33.358 41.364-.008.01h246.53l-.013-.017z"/></svg>