<svg xmlns="http://www.w3.org/2000/svg" viewBox="0 0 512 512"><path d="M512 127.946c0-31.392-25.49-56.835-56.889-56.835h-78.267L36.599 319.236 376.832 71.111H56.889C25.472 71.111 0 96.583 0 128v256c0 31.417 25.472 56.889 56.889 56.889h67.798l348.348-253.44-348.341 253.44h330.417C486.528 440.889 512 415.417 512 384V132.444L284.59 297.925 512 132.437v-4.491z" fill="#fcd116"/><path d="M36.599 319.236L376.832 71.111H56.889C25.472 71.111 0 96.583 0 128v217.926l36.599-26.69z" fill="#009e49"/><path d="M455.111 440.889C486.528 440.889 512 415.417 512 384V159.096L124.694 440.889h330.417z" fill="#ce1126"/><path d="M0 384c0 31.417 25.472 56.889 56.889 56.889h31.245L512 132.437v-4.492c0-31.392-25.49-56.835-56.889-56.835h-41.73L0 372.579V384z" fill="#141414"/><g fill="#fff"><path d="M356.797 229.316l11.221-34.745 36.494-.057-29.568-21.404 11.221-34.745-29.497 21.518-29.568-21.404 11.349 34.702-29.497 21.504 36.494-.071 11.351 34.702zM176.304 317.976l11.221-34.731-29.497 21.504-29.568-21.404 11.335 34.702-29.483 21.504 36.494-.071 11.349 34.702 11.207-34.731 36.508-.071-29.566-21.404z"/></g></svg>