<svg xmlns="http://www.w3.org/2000/svg" viewBox="0 0 512 512"><path d="M512 384c0 31.418-25.473 56.889-56.889 56.889H56.89C25.472 440.889 0 415.417 0 384V128c0-31.418 25.472-56.889 56.889-56.889H455.11C486.53 71.111 512 96.584 512 128v256z" fill="#fc0"/><path d="M56.889 71.111C25.472 71.111 0 96.582 0 128v256c0 31.418 25.473 56.889 56.889 56.889h113.777V71.11H56.89z" fill="#eee"/><path d="M341.334 440.889H170.666V71.11h170.666V440.89z" fill="#0868a9"/><g fill="#c09b5a"><path d="M298.951 231.822c-3.954-4.125-8.732 0-10.837-1.25-2.063-1.252-4.779-2.19-4.565 2.19.214 4.38 3.541 6.4 5.419 7.864 1.877 1.451.825 5.803.825 5.803s-3.115-3.555-4.367-5.845c-1.251-2.29-2.29-4.38-4.58-4.38-2.303 0-4.593 3.115-3.128 4.366 1.45 1.251 6.67 2.503 6.67 5.831 0 3.343 2.076 6.67 2.076 6.67l-.626 2.29s-2.077-1.038-2.703-2.29c-.626-1.251.626-5.205-2.29-5.205-2.93 0-3.755 6.458-1.877 7.495 1.877 1.039 7.28 7.083 7.28 7.083s2.29 4.366 5.832 6.457c3.541 2.063 8.135 6.67 8.135 6.67s-6.045 4.366-6.457 7.083c-.427 2.687 2.076 3.726 1.862 6.045-.214 2.275-2.915 1.109-5.205 2.361-2.304 1.238.043 4.438.043 4.438h6.257l3.086-5.76v-4.182l6.585-1.465s-.597 2.503.654 3.968c1.251 1.465 6.059 3.541 6.059 7.082s-1.863 3.655-3.954 3.854c-2.076.227-3.115 2.645-3.115 2.645h8.135s2.275-5.334 3.541-7.822c1.238-2.518.413-4.24-1.052-4.88-1.451-.626-2.901-3.868-2.489-6.584 0 0 2.901 2.332 6.244 1.706 3.327-.626 6.244-3.428 6.457-6.955.199-3.555 0-7.04-3.327-8.277-3.343-1.238-2.703 2.332-1.465 3.356 1.251 1.052 1.251 5.646-.413 6.685-1.679 1.052-4.366 2.304-5.22-.611-.825-2.915-2.645-7.482-6.186-8.733-3.541-1.251-8.377-9.174-8.164-14.791.203-5.632 1.668-17.92-3.14-22.912M212.765 231.822c3.954-4.125 8.746 0 10.822-1.25 2.092-1.252 4.793-2.19 4.58 2.19-.198 4.38-3.54 6.4-5.405 7.864-1.877 1.451-.838 5.803-.838 5.803s3.128-3.555 4.38-5.845c1.251-2.29 2.29-4.38 4.58-4.38s4.58 3.115 3.129 4.366c-1.466 1.251-6.67 2.503-6.67 5.831 0 3.343-2.092 6.67-2.092 6.67l.64 2.29s2.076-1.038 2.703-2.29c.626-1.251-.627-5.205 2.29-5.205s3.755 6.458 1.877 7.495c-1.877 1.039-7.296 7.083-7.296 7.083s-2.29 4.366-5.831 6.457c-3.542 2.063-8.122 6.67-8.122 6.67s6.045 4.366 6.458 7.083c.412 2.687-2.076 3.726-1.878 6.045.214 2.275 2.915 1.109 5.22 2.361 2.275 1.238 1.68 4.353 1.68 4.353h-6.273l-4.793-5.675v-4.182l-6.485-1.465s.54 2.503-.711 3.968c-1.251 1.465-6.088 3.541-6.088 7.082s1.85 3.655 3.94 3.854c2.092.227 3.1 2.645 3.1 2.645h-8.12s-2.29-5.334-3.542-7.822c-1.251-2.518-.426-4.24 1.039-4.88 1.451-.626 2.915-3.868 2.502-6.584 0 0-2.915 2.332-6.244 1.706-3.342-.626-6.257-3.428-6.457-6.955-.214-3.555 0-7.04 3.314-8.277 3.342-1.238 2.716 2.332 1.465 3.356-1.238 1.052-1.238 5.646.412 6.685 1.664 1.052 4.38 2.304 5.22-.611.839-2.915 2.645-7.482 6.186-8.733 3.542-1.251 8.378-9.174 8.178-14.791-.212-5.632-1.664-17.92 3.13-22.912"/></g><path d="M301.938 245.263c-3.03.512-7.894.127-11.45-.1-1.25-.085-1.734 3.54-.824 3.74 2.787.653 10.14 1.08 12.445-.257.852-.497 1.193-3.597-.171-3.383" fill="#8c8d8f"/><path d="M287.005 229.959s-1.222 1.862-3.399 2.19c0 0-.241-1.764 1.024-2.446 1.279-.683 2.375.256 2.375.256M291.983 233.074c-1.82-.37-3.23.725-1.465 1.351 1.777.626 2.602-1.124 1.465-1.351M299.805 237.355s-.214 6.656-3.84 6.556c-3.655-.1-2.205-5.717 0-8.121 0 0-2.631 6.685-.227 6.884 2.402.185 4.067-5.319 4.067-5.319"/><path d="M209.835 245.263c3.029.512 7.894.127 11.462-.1 1.252-.085 1.722 3.54.825 3.74-2.787.653-10.14 1.08-12.445-.257-.866-.497-1.193-3.597.158-3.383" fill="#8c8d8f"/><path d="M224.782 229.959s1.21 1.862 3.4 2.19c0 0 .24-1.764-1.024-2.446-1.267-.683-2.375.256-2.375.256M219.734 233.074c1.835-.37 3.229.725 1.465 1.351s-2.604-1.124-1.465-1.351M211.925 237.355s.214 6.656 3.854 6.556c3.641-.1 2.19-5.717 0-8.121 0 0 2.617 6.685.213 6.884-2.417.185-4.067-5.319-4.067-5.319"/><path d="M255.971 207.146v35.428h-13.81s-4.48-11.136-5.319-12.046c-.825-.897-4.72-3.23-4.72-8.35 0-5.148 6.5-9.6 13.254-6.897 0 0 4.224-4.038 8.761-3.015l.982-.653-.085-4.467h.937z" fill="#ebd11b"/><g fill="#be1827"><path d="M253.369 219.748v3.327l-2.319 2.589s-2.248.199-3.271-.569c-1.039-.782-1.934-2.645-1.934-2.645s2.375-1.607 3.755-2.005c1.394-.385 3.769-.697 3.769-.697M245.006 223.545s-.384 2.703-2.389 3.414c-1.99.711-3.982.384-3.982.384s.513-1.408 2.176-2.574c1.692-1.153 4.195-1.224 4.195-1.224"/></g><g fill="#0868a9"><path d="M248.989 216.846c2.076-.497 4.38 0 4.38 0s-.058 2.93-2.774 3.371c-2.702.427-3.797-.796-3.797-.796s.57-2.191 2.19-2.575M236.16 222.45c-.74-3.57 4.152-4.864 6.599-2.147 0 0 .484 3.683-2.404 4.807-2.873 1.137-3.91-1.253-4.195-2.66M242.774 217.5c.626-1.365 3.371-.114 2.546 1.351-.84 1.48-3.614.968-2.546-1.351"/><path d="M243.343 220.971c1.293-1.351 3.228 1.338 1.635 2.063-1.593.71-2.617-1.039-1.636-2.063"/></g><path d="M255.971 207.146v35.428h13.995s4.494-11.136 5.334-12.046c.825-.897 4.721-3.23 4.721-8.35 0-5.148-6.5-9.6-13.269-6.897 0 0-4.21-4.038-8.746-3.015l-.981-.653.085-4.467h-1.139z" fill="#ebd11b"/><g fill="#be1827"><path d="M258.418 219.748v3.327l2.517 2.589s2.361.199 3.385-.569c1.039-.782 1.991-2.645 1.991-2.645s-2.56-1.607-3.954-2.005c-1.38-.385-3.94-.697-3.94-.697M267.15 223.545s.384 2.703 2.375 3.414c2.005.711 3.996.384 3.996.384s-.512-1.408-2.19-2.574c-1.664-1.153-4.181-1.224-4.181-1.224"/></g><g fill="#0868a9"><path d="M263.154 216.846c-2.063-.497-4.366 0-4.366 0s.042 2.93 2.758 3.371c2.703.427 3.798-.796 3.798-.796s-.569-2.191-2.19-2.575M275.996 222.45c.74-3.57-4.152-4.864-6.599-2.147 0 0-.483 3.683 2.404 4.807 2.873 1.137 3.896-1.253 4.195-2.66M269.369 217.5c-.627-1.365-3.372-.114-2.547 1.351.84 1.48 3.628.968 2.547-1.351"/><path d="M268.771 220.971c-1.28-1.351-3.229 1.338-1.621 2.063 1.594.71 2.618-1.039 1.621-2.063"/></g><path d="M242.205 240.64c0-2.645 6.13-4.793 13.696-4.793s13.696 2.148 13.696 4.793-6.13 4.793-13.696 4.793-13.696-2.148-13.696-4.793" fill="#be1827"/><path d="M255.971 239.645H229.32v43.578c0 17.166 26.666 17.166 26.666 17.166s26.382 0 26.382-17.166v-43.578h-26.396z" fill="#020202"/><g fill="#4c86c7"><path d="M255.971 242.589v54.641s-23.622.214-23.622-13.953v-40.69h23.622z"/><path d="M255.971 242.589v54.641s23.623.214 23.623-13.953v-40.69H255.97z"/></g><g fill="#a5a7a9"><path d="M255.971 202.113V191.43s-9.344.256-15.474.953c-7.893.939-12.102 3.612-9.6 8.064 0 0-2.63 2.502-6.114 3.2-3.485.682-9.032 0-9.032 0s2.801 4.72 6.244 5.958c0 0-.981 3.2-5.291 3.883 0 0 9.031 1.536 15.559-1.238 6.527-2.774 10.126-5.134 11.093-6.115.982-.967-2.573-3.186.072-3.47 2.63-.27 12.543-.554 12.543-.554"/><path d="M255.971 202.113V191.43s9.174.256 15.303.953c7.894.939 12.017 3.612 9.515 8.064 0 0 2.574 2.502 6.059 3.2 3.498.682 9.03 0 9.03 0s-2.816 4.72-6.257 5.958c0 0 .968 3.2 5.276 3.883 0 0-9.017 1.536-15.545-1.238-6.527-2.774-10.14-5.134-11.107-6.115-.981-.967 2.745-3.186.114-3.47-2.645-.27-12.388-.554-12.388-.554"/></g><path d="M287.118 272.907h-16.1l8.05-8.05 8.05 8.05zM274.431 243.912h-16.1l8.05-8.05 8.05 8.05zM252.26 253.07h-16.1l8.05-8.064 8.05 8.064zM274.431 258.395h-16.1l8.05-8.05 8.05 8.05zM298.892 243.912h-16.1l8.05-8.05 8.05 8.05z" fill="#fff"/><path d="M274.745 253.07h-16.1l8.05-8.064 8.05 8.064zM298.892 258.395h-16.1l8.05-8.05 8.05 8.05z" fill="#fff"/></svg>