<svg xmlns="http://www.w3.org/2000/svg" viewBox="0 0 512 512"><path d="M455.111 71.111H213.334V256H512V128c0-31.418-25.473-56.889-56.889-56.889" fill="#fcd116"/><path d="M213.334 440.889H455.11C486.53 440.889 512 415.416 512 384V256H213.334v184.889z" fill="#009e49"/><path d="M142.222 312.889L106 286.564l-36.224 26.325 13.839-42.581-36.224-26.325h44.771L106 201.4l13.839 42.581h44.771l-36.224 26.326 13.837 42.58zM213.334 71.11H56.889C25.473 71.111 0 96.582 0 128v256c0 31.418 25.473 56.889 56.889 56.889h156.445V71.11z" fill="#ce1126"/><path d="M119.836 243.983L105.998 201.4l-13.84 42.581h-44.77l36.224 26.326-13.838 42.58 36.223-26.324 36.224 26.325-13.839-42.581 36.224-26.325h-44.77z"/></svg>