<svg xmlns="http://www.w3.org/2000/svg" viewBox="0 0 512 512"><path d="M512 384c0 31.418-25.473 56.889-56.889 56.889H56.89C25.472 440.889 0 415.417 0 384V128c0-31.418 25.472-56.889 56.889-56.889H455.11C486.53 71.111 512 96.584 512 128v256z" fill="#dd2e44"/><path d="M497.777 384c0 23.566-19.1 42.666-42.666 42.666H56.89c-23.566 0-42.666-19.1-42.666-42.666V128c0-23.566 19.1-42.666 42.666-42.666H455.11c23.566 0 42.666 19.1 42.666 42.666v256z" fill="#00297b"/><path d="M249.159 378.666c38.001-31.574 80.057-68.195 80.057-119.95 0-51.769-42.055-88.391-80.057-119.965-38.016 31.574-80.072 68.195-80.072 119.965 0 51.755 42.055 88.378 80.072 119.95" fill="#dd2e44"/><path d="M181.006 279.125c8.747 36.422 39.738 63.957 68.153 88.206 28.43-24.249 59.435-51.782 68.152-88.206H181.006z" fill="#017bdd"/><path d="M317.313 279.125a86.242 86.242 0 0 0 2.446-20.409c0-46.876-37.091-80.042-70.599-108.629-33.494 28.587-70.571 61.753-70.571 108.63a87.02 87.02 0 0 0 2.417 20.408h136.307z" fill="#66afeb"/><path d="M319.474 265.444a84.214 84.214 0 0 1-2.161 13.681h-81.907c1.01-2.731 2.433-6.94 3.641-10.113 23.054 3.173 59.35 2.32 80.427-3.568" fill="#9c8431"/><g fill="#fff100"><path d="M212.451 333.127c-6.272-6.812-12.06-13.966-17.01-21.546 12.885.583 38.059 3.271 48.058 11.946 2.432 2.106 2.432 3.158-.598 2.746-6.072-.84-22.286 2.56-30.45 6.855"/><path d="M309.887 299.377c-13.255 26.738-37.83 48.413-60.728 67.954-7.125-6.072-14.408-12.359-21.461-18.93 9.727-15.402 36.834-5.931 36.834-19.612 0-7.154-6.868-13.411-16.582-14.109-3.029-.199-3.769-.328-1.423-2.091 11.122-8.405 22.443.626 41.444-7.993 13.839-6.271 20.168-5.801 21.916-5.218"/></g><path d="M263.723 205.511c-.257-.312-.555-1.195-.654-1.407.597.526 3.242 1.208 4.195 1.365-.399-.256-1.109-1.309-1.365-1.521.754.312 3.584 1.308 4.195 1.01-.498-.527-1.934-2.006-2.518-2.433 1.053.37 3.57 1.792 4.239 1.792-.143-.568-.37-1.465-.698-2.218.897.64 2.56 1.38 3.414 1.692-.085-.682-.299-1.792-.582-2.417.896.626 2.531 1.891 3.612 2.318-.27-.426-.185-1.792-.697-2.432.697.526 2.845 2.219 3.755 2.531-.526-.626-.611-1.891-1.024-2.417.611.526 2.631 1.478 3.555 2.105-.227-.427-.611-1.38-1.039-2.005.612.626 3.343 2.218 4.153 2.845-.199-.627-.611-2.005-.896-2.532 1.195.427 4.337 2.32 5.36 2.745-3.64-7.28-19.996-9.727-29.34-6.77 1.48-.725 2.276-2.176 5.078-2.858-.682-.214-2.446-1.109-2.631-1.423.896.214 4.239-.426 4.935-.526-.611-.526-1.721-1.365-2.219-1.891 1.323.1 4.451-.214 5.376-.527-.526-.213-1.65-.64-2.247-.952.91.114 3.044.312 3.94.114-.583-.527-1.608-1.793-2.418-2.319 1.31.312 3.94.312 5.66.1-.796-.526-1.906-1.053-2.63-1.479.824.114 4.252-.839 5.162-1.052-.498-.513-1.835-.825-2.632-1.153 1.408-.1 3.74-1.465 4.438-2.105-11.264.171-20.623 5.646-25.5 13.681.142-2.602-.725-5.802-.854-7.65-.441.54-1.152 1.464-1.407 1.763.426-1.436.412-5.305.185-6.471-.257.753-.953 1.891-1.267 2.475.114-1.38-.27-5.234-.697-6.742-.313.783-1.109 1.878-1.436 2.475.256-1.748-.854-6.243-1.394-7.965.014.825-.754 2.845-.995 3.357-.029-1.565-1.294-6.599-1.891-7.667.256.84-.199 3.058-.228 3.84-.384-1.108-1.906-4.01-2.432-4.85.185.598.013 1.735.013 2.347-.896-1.267-3.228-3.627-4.266-4.38.91 1.393 1.693 3.583 2.19 4.537-.285-.156-.967-.455-1.322-.512.796.952 2.303 3.598 2.858 4.537-.497-.156-1.536-.241-2.047-.241 1.052.825 3.142 3.171 3.854 4.139-.455-.199-1.863-.114-2.233.057.925.484 3.044 2.433 3.669 3.314-.484-.341-1.693-.64-2.176-.598 1.066 1.11 2.631 3.087 3.327 3.84-.611-.37-2.602-.91-3.285-.838.825.811 3.285 3.427 3.925 4.308-.626-.227-2.076-.013-2.589-.013.925.853 3.343 3.612 3.925 4.308-.582-.327-2.19-.582-2.745-.64 1.053 1.195 2.574 3.584 3.258 4.58-.555-.028-1.749-.198-2.205-.398-5.276-8.719-14.805-14.094-21.419-14.593.91.426 4.039 2.433 5.049 3.47-.711 0-1.721-.214-2.319-.214 1.109.953 3.428 2.32 4.338 2.745-.299 0-1.622 0-2.02.257.91.91 3.342 1.592 4.906 2.745-.611 0-1.621.1-2.219.1 1.351.526 3.726 2.218 4.538 3.427a44.76 44.76 0 0 0-2.077-.214c1.323.74 3.143 2.048 3.954 2.902-.497-.172-1.664-.172-2.119-.172.797.64 3.285 1.735 4.04 2.688a29.253 29.253 0 0 0-2.22-.156c.854.682 3.243 2.531 4.565 3.94-15.417-7.439-34.176-4.082-44.102 9.628 1.209-.412 5.461-2.943 6.869-3.37-.612.74-.413 1.692-.797 2.432 1.21-.74 3.13-2.319 4.552-3.272-.313.527-.513 1.68-1.01 2.632 1.01-.627 4.138-2.732 5.646-3.997-.199.953-.598 1.793-.91 2.433 1.621-.953 4.651-3.058 5.675-3.798-.498.94-.91 2.005-1.423 2.632 1.423-.527 4.652-2.632 6.572-3.684-.299.74-.498 1.792-1.01 2.417 1.521-.838 3.94-1.578 5.561-1.465-.313.527-.811 1.465-1.423 1.878a13.892 13.892 0 0 1 6.115-.598c-10.425 3.442-20.85 14.678-20.565 22.073.968-1.679 2.888-3.94 4.097-5.049-.257.783-.1 2.048-.058 2.788.498-1.579 1.579-3.47 2.531-5.163-.156.953.157 2.161.355 2.788.498-1.508 2.333-4.623 3.13-5.888-.257.896.057 2.589.255 3.47.754-1.579 2.333-3.996 3.6-5.419-.313.953-.257 2.574-.215 3.158.812-1.423 2.83-3.94 4.054-5.263-.37 1.11-.37 2.802-.412 3.584.967-1.521 3.697-4.366 5.262-5.731-.455.995-.611 2.617-.754 3.314 1.153-1.267 4.552-3.372 5.803-3.74-2.02 1.422-4.139 5.048-5.348 6.783.598-.1 1.608-.312 1.963-.37-1.109.74-3.285 3.428-3.798 4.367.612-.355 1.722-.725 2.29-.939-.867.896-2.787 3.782-3.342 5.091.654-.355 1.82-.626 2.375-.825-1.166 1.053-2.93 4.835-3.541 6.358.455-.569 2.118-1.522 2.573-1.735-.853 1.108-2.83 5.361-3.028 6.471.312-.74 1.877-2.005 2.332-2.531-.355 1.01-.967 3.953-1.066 4.85.199-.527.952-1.209 1.309-1.635-.1 1.422.156 4.48.455 5.632.156-1.521.867-3.527 1.066-4.48.1.27.412.896.597 1.166 0-1.166.47-3.897.612-4.892.256.412.91 1.095 1.266 1.422-.256-1.222-.355-4.11-.299-5.205.199.413 1.209 1.21 1.565 1.31-.355-.897-.697-3.528-.654-4.523.143.526.812 1.465 1.167 1.735-.1-1.423-.058-3.74-.1-4.679.185.626 1.251 2.205 1.763 2.574-.113-1.053-.312-4.367-.256-5.362.313.527 1.423 1.252 1.764 1.58-.143-1.153-.241-4.538-.241-5.377.198.582 1.152 1.735 1.521 2.105-.058-1.465.241-4.054.341-5.149.355.37 1.124 1.209 1.323 1.635.185-2.219 1.521-4.537 3.228-6.641 1.82 1.906 3.4 6.101 3.684 6.471.214-.469.455-1.465.669-1.679.042 1.053.497 3.783.597 4.523.214-.526.812-1.635 1.024-1.793 0 1.267.143 3.372.299 4.324.199-.526.697-1.365 1.01-1.592-.256 1.066-.143 3.897 0 4.963.199-.426.867-1.322 1.209-1.65-.313.953.711 4.324.811 5.803.1-.54.825-1.38 1.109-1.891 0 1.152.398 4.522.497 6.201.214-.683.925-1.679 1.28-2.105-.256 1.521.498 4.422 1.053 5.731.1-.74.412-1.949.711-2.417.497 1.01 1.862 3.84 1.92 5.418.611-1.52.512-4.636-.199-6.57.455.37.91.625 1.209.724-.341-1.365-1.408-3.996-1.963-4.466.513.27 1.252.626 1.565.896-.355-1.579-1.52-4.21-2.16-5.319.597.157 1.45.313 2.004.627-.555-1.153-2.489-3.827-3.342-4.565.512.156 1.792.582 2.232.74-.555-.953-3.142-3.214-4.707-4.224.825-.1 2.218-.1 2.887-.1-.952-1.209-3.229-2.845-4.651-3.57.455.057 1.664.312 2.261.469-.384-1.153-2.617-3.372-3.684-4.309.925.469 3.854 1.934 4.75 2.887.214-.74.058-2.475-.24-3.2.895.57 3.085 2.618 3.484 3.414.214-.74.214-2.005.156-2.475 2.32 1.635 3.783 3.584 4.395 4.636.1-.74.143-2.475-.057-3.37.711.625 2.389 2.573 2.745 3.413.029-.683.142-1.778-.058-2.361.498.626 1.863 3.371 2.063 3.94.171-.569.526-2.418.355-2.944.555.796 2.417 3.57 2.702 4.522.185-.838.555-2.147.498-2.63.611.895 1.721 4.11 1.806 5.005.241-.426.74-2.588.669-3.37.497.938 1.962 4.778 2.275 5.574.185-.582.497-2.319.441-2.787.355.582 2.034 4.736 2.091 5.418.242-.626.384-2.218.328-2.745.227.953 1.465 3.485 3.086 5.263 1.354-13.658-13.167-22.29-24.758-24.054" fill="#029270"/><g fill="#7b4800"><path d="M226.047 296.064c-.085-23.68.043-31.886-.64-31.886-.682 0-.568 8.206-.64 31.886"/><path d="M220.757 300.743c14.863 0 19.812-3.285 19.513-6.572-7.083 0-9.003 1.679-19.513 1.679-10.525 0-12.445-1.679-19.527-1.679-.299 3.287 4.651 6.572 19.528 6.572"/><path d="M220.757 304.796c6.927 0 12.53-.569 12.075-2.944-.626.228-1.848.4-2.958.442l-.355-2.248c-.128-.611-1.793-.441-1.693.171l.299 2.248c-2.46.341-5.604.341-7.367.341-1.793 0-4.907 0-7.396-.341l.3-2.248c.113-.61-1.55-.782-1.68-.17l-.355 2.247c-1.108-.043-2.332-.214-2.958-.441-.455 2.374 5.162 2.943 12.088 2.943M251.179 209.166c.91 25.955-10.211 88.519 29.099 107.933 3.755 1.692.98 8.775-5.405 5.49-37.42-21.22-25.458-85.789-26.113-113.579l2.419.156zM247.979 202.752c-3.626 0-3.626 5.69 0 5.69 3.641 0 3.641-5.69 0-5.69"/></g><path d="M275.22 176.546c-3.641 0-3.641 5.689 0 5.689 3.641.001 3.641-5.689 0-5.689M269.975 180.507c-3.641 0-3.641 5.69 0 5.69s3.641-5.69 0-5.69" fill="#7b4800"/><path d="M273.673 179.425c-3.642 0-3.642 5.689 0 5.689 3.64 0 3.64-5.689 0-5.689" fill="#7b4800"/><path d="M210.845 265.87c2.417 8.832-.214 20.494-4.551 28.615 9.301-.953 24.262-1.891 29.326 0-4.453-11.776-14.664-26.197-24.775-28.615" fill="#fff"/><g fill="#dd2e44"><path d="M211.129 249.841c-.683-1.92-1.949-3.1-3.655-3.1-2.56 0-4.21 2.618-4.21 6.514 0 3.897 1.692 6.614 4.266 6.571 2.161-.014 3.599-1.55 3.755-4.096h-3.328v-3.057h6.144v9.94h-1.962c0-.653-.1-1.578-.285-2.19-.939 1.65-2.489 2.59-4.38 2.703-3.954.242-7.268-4.096-7.268-9.885s2.801-9.613 7.268-9.613c3.512 0 6.386 2.63 6.386 6.215h-2.731zM234.041 259.925c2.346 0 2.959-1.764 2.959-3.414v-12.885h3.285v12.829c0 3.171-1.451 6.699-6.244 6.699-4.792 0-6.244-3.528-6.244-6.699v-12.829h3.285v12.885c0 1.65.64 3.414 2.96 3.414M263.751 255.858c-.582 0-2.062 0-2.062.013l2.147-7.936 2.134 7.936c0 .002-1.451-.014-2.219-.014v3.258h3.129l1.053 3.967h3.2l-5.42-19.527h-3.782l-5.418 19.527h3.2l1.066-3.967h2.972v-3.257zM289.081 263.125l-3.029-14.876v14.876h-3.17v-19.527h4.92l2.915 14.976 2.915-14.976h4.922v19.527h-3.171v-14.876l-3.03 14.876h-3.272z"/></g></svg>