<svg xmlns="http://www.w3.org/2000/svg" viewBox="0 0 512 512"><path d="M56.889 440.889H455.11a56.602 56.602 0 0 0 27.52-7.111H29.37a56.602 56.602 0 0 0 27.52 7.11" fill="#0d5eb0"/><g fill="#eee"><path d="M120.889 277.334H0v35.555h512v-35.555H120.889zM0 384c0 2.417.199 4.779.498 7.111h511.005c.298-2.332.497-4.694.497-7.111v-28.445H0V384zM199.111 234.666H512v-35.555H199.111v35.555zM199.111 120.889v35.555H512V128c0-2.417-.199-4.779-.498-7.111h-312.39z"/></g><g fill="#0d5eb0"><path d="M199.111 199.111H512v-42.666H199.111v42.666zM0 355.555h512v-42.666H0v42.666zM29.369 433.777H482.63c15.532-8.605 26.582-24.277 28.872-42.666H.483C2.789 409.5 13.84 425.174 29.37 433.777M0 277.334h78.222V199.11H0v78.223zM199.111 234.666v-35.555H120.89v78.223H512v-42.666H199.111zM482.631 78.222a56.602 56.602 0 0 0-27.52-7.11H56.89a56.602 56.602 0 0 0-27.52 7.11C13.839 86.826 2.788 102.5.498 120.89.198 123.22 0 125.582 0 128v28.445h78.223V78.223h42.666v78.222h78.222V120.89h312.405c-2.303-18.39-13.355-34.064-28.885-42.668"/></g><path d="M120.889 156.445V71.111H78.223v85.334H0v42.666h78.223v78.223h42.666V199.11h78.222v-42.666H120.89z" fill="#eee"/></svg>