<svg xmlns="http://www.w3.org/2000/svg" viewBox="0 0 512 512"><path d="M455.111 71.111H56.889a56.6 56.6 0 0 0-29.832 8.451C10.824 89.582 0 107.525 0 128v256c0 20.475 10.824 38.418 27.057 48.438a56.612 56.612 0 0 0 29.832 8.451h398.222C486.528 440.889 512 415.417 512 384V128c0-31.417-25.472-56.889-56.889-56.889z" fill="#eee"/><path d="M27.057 432.438a56.612 56.612 0 0 0 29.832 8.451h398.222C486.528 440.889 512 415.417 512 384v-56.889H104.297l-77.24 105.327z" fill="#e32118"/><path d="M455.111 71.111H56.889a56.6 56.6 0 0 0-29.832 8.451l77.24 105.327H512V128c0-31.417-25.472-56.889-56.889-56.889z" fill="#3e9a00"/><path d="M156.444 256l-52.148-71.111L27.057 79.562C10.824 89.582 0 107.525 0 128v256c0 20.475 10.824 38.418 27.057 48.438l77.24-105.327L156.444 256z" fill="#0173ce"/><path d="M262.305 213.333h-34.076v67.556c0 13.781 7.765 16 11.776 16h13.113c8.22 0 9.188 6.812 9.188 6.812s.967-6.812 9.188-6.812h13.113c4.011 0 11.776-2.219 11.776-16v-67.556h-34.078z"/><path d="M262.305 297.667c-1.892-2.005-4.821-3.627-9.188-3.627h-13.113c-2.688 0-8.932-1.28-8.932-13.156v-64.711h62.464v64.711c0 11.876-6.244 13.156-8.932 13.156h-13.113c-4.364 0-7.294 1.622-9.186 3.627" fill="#fff"/><path d="M212.222 266s3.541 6.244 7.993 10.439c8.235 7.78-4.992 14.009-4.992 14.009s-4.11-2.674-5.447-5.788c-1.337-3.101 3.328-12.445 2.446-18.66"/><path d="M215.445 287.07c-1.209-.981-2.546-2.332-3.058-3.527-.213-.796.583-3.883 1.095-5.945.299-1.109.583-2.276.853-3.456 1.166 1.479 2.503 3.029 3.925 4.366 2.034 1.92 1.835 3.129 1.778 3.527-.284 1.877-2.687 3.854-4.593 5.035" fill="#fff"/><path d="M216.208 280.612s.014 11.036 10.908 15.374c13.412 5.348 22.656 3.129 23.765 3.57 1.124.441 0 11.335 0 11.335s-14.82 2.446-27.961-3.783c-13.141-6.215-12.473-11.122-11.79-12.459s1.564-2.29 2.204-5.76c.598-3.228 2.874-8.277 2.874-8.277"/><path d="M243.678 308.514c-5.077 0-12.615-.683-19.541-3.968-9.5-4.508-10.667-7.964-10.453-8.661.939-1.636 1.735-3.015 2.332-5.888 1.82 3.257 4.864 6.571 10.041 8.633 6.428 2.56 12.985 3.854 19.484 3.854a58.42 58.42 0 0 0 3.001-.071c.014 1.508-.1 3.726-.284 5.916a53.77 53.77 0 0 1-4.58.185" fill="#fff"/><path d="M312.389 266s-3.541 6.244-7.993 10.439c-8.235 7.78 4.992 14.009 4.992 14.009s4.11-2.674 5.447-5.788c1.337-3.101-3.328-12.445-2.446-18.66"/><path d="M309.167 287.07c1.209-.981 2.546-2.332 3.058-3.527.213-.796-.569-3.883-1.095-5.945a93.506 93.506 0 0 1-.853-3.456c-1.166 1.479-2.503 3.029-3.925 4.366-2.034 1.92-1.835 3.129-1.778 3.527.284 1.877 2.687 3.854 4.593 5.035" fill="#fff"/><path d="M308.404 280.612s-.014 11.036-10.908 15.374c-13.412 5.348-22.656 3.129-23.78 3.57-1.109.441 0 11.335 0 11.335s14.848 2.446 27.975-3.783c13.141-6.215 12.473-11.122 11.79-12.459-.683-1.337-1.564-2.29-2.204-5.76-.598-3.228-2.873-8.277-2.873-8.277"/><path d="M280.93 308.514c5.077 0 12.615-.683 19.541-3.968 9.5-4.508 10.667-7.964 10.453-8.661-.939-1.636-1.735-3.015-2.332-5.888-1.82 3.257-4.864 6.571-10.041 8.633-6.428 2.56-12.985 3.854-19.484 3.854a58.42 58.42 0 0 1-3.001-.071c-.014 1.508.1 3.726.284 5.916 1.152.1 2.717.185 4.58.185" fill="#fff"/><path d="M280.389 303.709s-.171 4.807-18.076 4.807c-17.92 0-18.091-4.807-18.091-4.807s-.668 7.652 0 10.738 5.333 4.892 18.091 4.892c12.743 0 17.408-1.806 18.076-4.892s0-10.738 0-10.738"/><path d="M262.305 316.485c-14.322 0-15.246-2.375-15.303-2.645-.213-.953-.256-2.688-.228-4.537 3.115 1.18 7.979 2.062 15.531 2.062 7.552 0 12.416-.882 15.531-2.062.028 1.849-.014 3.584-.228 4.537-.056.27-.981 2.645-15.303 2.645" fill="#fff"/><g fill="#ffd701"><path d="M253.931 191.653l2.404 4.167h4.821l-2.418 4.181 2.418 4.167h-4.821l-2.404 4.181-2.418-4.181h-4.821l2.404-4.167-2.404-4.181h4.821l2.418-4.167zM234.875 193.861l3.271 3.527 4.708-1.081-1.422 4.608 3.285 3.527-4.693 1.081-1.394 4.608-3.3-3.527-4.693 1.081 1.408-4.608-3.285-3.527 4.693-1.081 1.422-4.608zM216.973 200l3.883 2.844 4.409-1.948-.526 4.793 3.897 2.844-4.395 1.948-.512 4.779-3.897-2.83-4.395 1.948.498-4.793-3.897-2.83 4.409-1.963.526-4.792zM271.905 191.653l-2.404 4.167h-4.821l2.418 4.181-2.418 4.167h4.821l2.404 4.181 2.418-4.181h4.821l-2.404-4.167 2.404-4.181h-4.821l-2.418-4.167zM290.958 193.861l-3.271 3.527-4.708-1.081 1.422 4.608-3.285 3.527 4.693 1.081 1.394 4.608 3.3-3.527 4.693 1.081-1.408-4.608 3.285-3.527-4.693-1.081-1.422-4.608zM308.861 200l-3.883 2.844-4.409-1.948.526 4.793-3.897 2.844 4.395 1.948.512 4.779 3.897-2.83 4.395 1.948-.498-4.793 3.897-2.83-4.409-1.963-.526-4.792z"/></g><path d="M262.305 293.333c-8.533 0-9.856-3.115-6.969-9.771 2.887-6.67 4.437-15.716 4.437-26.638 0-10.923-3.883-13.369-8.391-17.593-4.494-4.224 2.318-2.66 5.461 0 3.157 2.674 4.309 5.106 4.309 5.106v-10.212l3.527 1.109v7.78s5.12-4.452 8.548-4.892c3.442-.441 5.433 2.219.996 3.556-4.452 1.337-9.543 3.627-9.543 15.147s1.764 23.524 3.982 27.748c2.234 4.223 2.177 8.66-6.357 8.66" fill="#a36629"/><path d="M252.444 249.556c-4.523 2.375-7.723-2.887-7.723-2.887s-4.11 2.887-7.979.882c-3.854-1.991-3.243-3.769 0-5.547 3.257-1.778 7.182-2.219 7.182-2.219s1.024-4.892 2.773-8.235c1.749-3.328 4.693-4.665 4.693-4.665s3.584-7.78 9.756-8.22c6.187-.441 6.187 6.002 6.187 6.002s3.826 0 4.58 2.219c3.413-3.556 9.415-3.1 10.752-1.55 1.337 1.55 0 4.892 0 4.892s5.276-1.564 6.414.213c1.138 1.778 0 4.068 0 4.068s4.252.825 2.247 5.49c-1.991 4.665-8.22 3.342-8.22 3.342s-2.517 2.66-5.262 2.432c-2.731-.213-3.627-3.996-3.627-3.996s-4.238 1.109-6.884-2.66c-2.66 3.996-7.552 1.778-8.22.213-.667 5.12-2.004 7.779-6.669 10.226" fill="#009a3b"/></svg>