<svg xmlns="http://www.w3.org/2000/svg" viewBox="0 0 512 512"><path d="M455.111 71.111H56.889C25.472 71.111 0 96.583 0 128v256c0 31.417 25.472 56.889 56.889 56.889h398.222C486.528 440.889 512 415.417 512 384V128c0-31.417-25.472-56.889-56.889-56.889z" fill="#ce1126"/><path d="M49.778 120.889h412.444v270.222H49.778V120.889z" fill="#007a5e"/><path d="M49.778 120.889h412.444L49.778 391.111h412.444L49.778 120.889z" fill="#fcd116"/><path d="M305.778 256c0 27.492-22.286 49.778-49.778 49.778S206.222 283.492 206.222 256s22.286-49.778 49.778-49.778 49.778 22.286 49.778 49.778" fill="#ce1126"/><g fill="#fcd116"><path d="M256 210.465l10.226 31.46h33.081l-26.766 19.442 10.226 31.474L256 273.384l-26.766 19.456 10.226-31.474-26.766-19.442h33.081L256 210.465zM256 73.7l5.49 16.896h17.764l-14.364 10.439 5.49 16.896L256 107.492l-14.379 10.439 5.49-16.896-14.364-10.439h17.764L256 73.7zM370.064 73.7l5.49 16.896h17.764l-14.364 10.439 5.49 16.896-14.379-10.439-14.379 10.439 5.49-16.896-14.364-10.439h17.764l5.488-16.896zM141.936 73.7l5.49 16.896h17.764l-14.364 10.439 5.49 16.896-14.379-10.439-14.379 10.439 5.49-16.896-14.364-10.439h17.764l5.488-16.896zM256 393.701l5.49 16.896h17.764l-14.364 10.439 5.49 16.896L256 427.493l-14.379 10.439 5.49-16.896-14.364-10.439h17.764L256 393.701zM370.064 393.701l5.49 16.896h17.764l-14.364 10.439 5.49 16.896-14.379-10.439-14.379 10.439 5.49-16.896-14.364-10.439h17.764l5.488-16.896zM141.936 393.701l5.49 16.896h17.764l-14.364 10.439 5.49 16.896-14.379-10.439-14.379 10.439 5.49-16.896-14.364-10.439h17.764l5.488-16.896z"/></g><path d="M87.01 271.173c4.324 4.48 9.173 8.235 13.682 10.126.071-4.964-.811-10.638-2.332-16.327-3.812-3.57-8.121-6.599-12.345-8.206-.612 4.523-.171 9.572.995 14.407" fill="#ce1126"/><path d="M108.695 278.231c11.42-41.472-29.298-38.94-39.865-52.196 7.282 15.189-18.901 51.442 24.732 59.932-2.887-3.925-5.205-9.23-6.556-14.791-1.166-4.85-1.607-9.884-.996-14.407 4.224 1.607 8.533 4.636 12.359 8.206 4.453 4.168 8.222 9.06 10.326 13.256" fill="#fcd116"/></svg>