<svg xmlns="http://www.w3.org/2000/svg" viewBox="0 0 512 512"><g fill="#eee"><path d="M134.315 71.111H56.889C25.457 71.111 0 96.582 0 128v78.222h134.315V71.112zM512 206.223V128c0-31.417-25.473-56.889-56.889-56.889H234.666v135.112H512z"/></g><g fill="#0065bd"><path d="M512 227.555v-21.334H234.666V71.11h-21.334v156.445H512zM156.445 71.111h-22.13v135.111H0v21.334h156.445V71.111z"/></g><g fill="#eee"><path d="M0 305.778V384c0 31.418 25.473 56.889 56.889 56.889h77.426V305.779H0zM234.666 305.778v135.11h220.445C486.53 440.889 512 415.417 512 384v-78.222H234.666z"/></g><path d="M213.334 227.555V71.11h-56.889v156.445H0v56.889h156.445v156.445h56.889V284.444H512v-56.889H213.334z" fill="#ed2939"/><g fill="#0065bd"><path d="M213.334 284.445V440.89h21.334V305.779H512v-21.334H213.334zM156.445 284.445H0v21.334h134.315V440.89h22.13V284.445z"/></g></svg>