<svg xmlns="http://www.w3.org/2000/svg" viewBox="0 0 512 512"><path d="M455.111 71.111H56.889C25.548 71.111 0 96.462 0 127.774v256.452c0 31.256 25.458 56.663 56.722 56.663h398.557C486.618 440.889 512 415.361 512 384V128c0-31.417-25.472-56.889-56.889-56.889z" fill="#75b2dd"/><g fill="#fff"><path d="M260.267 108.089l-8.306 25.557h-26.866l21.732 15.787-8.292 25.543 21.732-15.787 21.732 15.787-8.292-25.543 21.732-15.787h-26.866l-8.306-25.557zM382.625 247.698v-26.866l-15.787 21.732-25.557-8.306 15.787 21.746-15.787 21.732 25.557-8.306 15.787 21.732v-26.866l25.557-8.292-25.557-8.306zM273.699 362.569l8.306-25.557-21.746 15.801-21.732-15.801 8.306 25.557-21.732 15.787h26.866l8.292 25.557 8.306-25.557h26.866l-21.732-15.787zM153.698 242.568l-15.787-21.732v26.866l-25.557 8.306 25.557 8.292v26.866l15.787-21.732 25.557 8.306-15.801-21.732 15.801-21.746-25.557 8.306z"/></g></svg>