<svg xmlns="http://www.w3.org/2000/svg" viewBox="0 0 512 512"><path d="M455.111 71.111H256v142.223h256V128c0-31.418-25.473-56.889-56.889-56.889" fill="#edecec"/><path d="M156.445 71.111H56.889C25.472 71.111 0 96.582 0 128v85.334h156.445V71.11z" fill="#eee"/><g fill="#edecec"><path d="M455.111 440.889H256V298.666h256V384c0 31.418-25.473 56.889-56.889 56.889M156.445 440.889H56.889C25.472 440.889 0 415.417 0 384v-85.334h156.445V440.89z"/></g><path d="M256 71.111h-99.555v142.223H0v85.334h156.445V440.89H256V298.668h256v-85.334H256V71.11z" fill="#003580"/></svg>