<svg xmlns="http://www.w3.org/2000/svg" viewBox="0 0 512 512"><path d="M512 384c0 31.418-25.473 56.889-56.889 56.889H56.89C25.472 440.889 0 415.417 0 384V128c0-31.418 25.472-56.889 56.889-56.889H455.11C486.53 71.111 512 96.584 512 128v256z" fill="#ed1c23"/><path d="M512 341.334H0v-99.555h512v99.555z" fill="#034ea2"/><g fill="#fd0"><path d="M512 241.778V128c0-31.418-25.473-56.889-56.889-56.889H56.89C25.472 71.111 0 96.582 0 128v113.778h512z"/><path d="M327.111 270.222c0 15.702-12.728 28.445-28.445 28.445h-85.333c-15.702 0-28.445-12.742-28.445-28.445v-42.666c0-15.715 12.742-28.445 28.445-28.445h85.333c15.715 0 28.445 12.729 28.445 28.445v42.666z"/></g><path d="M312.889 256c0 15.701-12.729 42.666-28.445 42.666h-56.889c-15.701 0-28.445-26.965-28.445-42.666v-14.223c0-15.714 12.743-28.444 28.445-28.444h56.889c15.715 0 28.445 12.728 28.445 28.445V256z" fill="#034ea2"/><path d="M298.666 256c0 15.701-12.729 42.666-28.445 42.666h-28.445c-15.701 0-28.445-26.965-28.445-42.666v-14.223c0-15.714 12.743-28.444 28.445-28.444h28.445c15.715 0 28.445 12.728 28.445 28.445V256z" fill="#ed1c23"/><path d="M284.06 201.031c-1.891 6.94-13.667 12.303-28.06 12.303s-26.169-5.361-28.046-12.303c-17.153 2.446-14.62 7.011-14.62 12.303 0 7.851 11.25 14.222 42.666 14.222s42.666-6.371 42.666-14.222c0-5.292 2.533-9.857-14.606-12.303" fill="#6dbe46"/><path d="M270.222 270.222c0 7.865-6.37 14.223-14.222 14.223s-14.223-6.357-14.223-14.223v-42.666c0-7.851 6.372-14.222 14.223-14.222s14.222 6.371 14.222 14.222v42.667z" fill="#a6d388"/><path d="M305.778 170.666c6.257 0 12.202.74 17.72 1.949-8.86-15.303-39.053-30.393-67.498-1.949-28.445-28.445-58.639-13.355-67.499 1.949 5.519-1.209 11.463-1.949 17.721-1.949 27.492 0 49.778 12.729 49.778 28.445 0-15.716 22.272-28.445 49.777-28.445" fill="#662113"/><path d="M284.445 248.889c0 27.491-12.729 49.777-28.445 49.777-15.701 0-28.445-22.286-28.445-49.777S240.298 199.11 256 199.11c15.715 0 28.445 22.287 28.445 49.778" fill="#8ed2e7"/><path d="M248.889 241.778c-7.623 0-14.749 1.848-21.205 4.906-.014.74-.128 1.451-.128 2.205 0 27.491 12.743 49.777 28.445 49.777 14.265 0 25.955-18.417 28.018-42.367-9.004-8.96-21.42-14.522-35.13-14.522" fill="#6dbe46"/><path d="M298.666 312.889c0 7.865-19.1 14.222-42.666 14.222s-42.666-6.357-42.666-14.222c0-7.865 19.1-14.223 42.666-14.223s42.666 6.358 42.666 14.223" fill="#ffcc4d"/><path d="M284.445 327.111c0 11.776-12.729 14.223-28.445 14.223-15.701 0-28.445-2.446-28.445-14.223 0-11.776 12.743-28.445 28.445-28.445 15.715 0 28.445 16.669 28.445 28.445" fill="#034ea2"/><path d="M241.778 327.111c0-11.776 6.37-28.445 14.222-28.445s14.223 16.669 14.223 28.445-6.372 14.223-14.223 14.223-14.223-2.446-14.223-14.223" fill="#ed1c23"/><path d="M241.778 156.445c0-7.851 6.37 0 14.222 0s14.223-7.851 14.223 0-6.372 14.223-14.223 14.223-14.223-6.373-14.223-14.223" fill="#ccd6dd"/><path d="M293.972 225.764c0 3.925-6.37 7.111-14.222 7.111s-14.223-3.186-14.223-7.111 6.372-7.112 14.223-7.112 14.222 3.187 14.222 7.112" fill="#fff"/><path d="M216.611 194.82c0 3.925-6.371 7.111-14.222 7.111s-14.223-3.186-14.223-7.111 6.371-7.111 14.223-7.111 14.222 3.185 14.222 7.111M232.084 163.875c0 3.925-6.371 7.111-14.223 7.111s-14.222-3.186-14.222-7.111 6.371-7.111 14.222-7.111 14.223 3.186 14.223 7.111M341.334 220.445c0 3.925-6.358 7.111-14.223 7.111-7.865 0-14.222-3.186-14.222-7.111s6.357-7.111 14.222-7.111c7.865 0 14.223 3.185 14.223 7.111M327.111 192c0 3.925-6.357 7.111-14.222 7.111-7.865 0-14.223-3.186-14.223-7.111s6.358-7.111 14.223-7.111c7.865 0 14.222 3.186 14.222 7.111" fill="#c1694f"/></svg>