<svg xmlns="http://www.w3.org/2000/svg" viewBox="0 0 512 512"><path d="M512 384c0 31.418-25.473 56.889-56.889 56.889H56.89C25.472 440.889 0 415.417 0 384V128c0-31.418 25.472-56.889 56.889-56.889H455.11C486.53 71.111 512 96.584 512 128v256z" fill="#c60a1d"/><path d="M512 341.334H0V170.668h512v170.666z" fill="#ffc400"/><path d="M128 241.778v42.666c0 23.566 19.1 42.666 42.666 42.666s42.666-19.1 42.666-42.666v-42.666H128z" fill="#ea596e"/><path d="M170.666 270.222h42.666v-42.666h-42.666v42.666z" fill="#f4a2b2"/><path d="M170.666 270.222H128v-42.666h42.666v42.666z" fill="#dd2e44"/><path d="M213.334 206.223c0 11.79-19.1 21.333-42.666 21.333S128 218.012 128 206.223s19.1-21.334 42.666-21.334 42.668 9.544 42.668 21.334" fill="#ea596e"/><path d="M213.334 195.555c0-5.888-19.1-10.666-42.666-10.666S128 189.668 128 195.555c0 5.888 19.1 10.666 42.667 10.666s42.666-4.777 42.666-10.666" fill="#ffac33"/><g fill="#99aab5"><path d="M99.555 327.111h14.223v-99.555H99.555v99.555zM241.778 327.111h-14.223v-99.555h14.223v99.555z"/></g><g fill="#66757f"><path d="M128 327.111H85.334V312.89H128v14.222zM256 327.111h-42.666V312.89H256v14.222zM113.778 227.555H99.555v-14.223h14.223v14.223zM241.778 227.555h-14.223v-14.223h14.223v14.223z"/></g></svg>