<svg xmlns="http://www.w3.org/2000/svg" viewBox="0 0 512 512"><path d="M512 384c0 31.418-25.473 56.889-56.889 56.889H56.89C25.472 440.889 0 415.417 0 384V128c0-31.418 25.472-56.889 56.889-56.889H455.11C486.53 71.111 512 96.584 512 128v256z" fill="#006b3f"/><path d="M512 213.334H298.666V71.11h-85.334v142.223H0v85.334h213.334V440.89h85.334V298.668H512v-85.334z" fill="#eee"/><g fill="#fcd116"><path d="M241.778 440.889h-28.445V71.11h28.445V440.89z"/><path d="M512 241.778H0v-28.445h512v28.445z"/></g><g fill="#141414"><path d="M270.222 440.889h-28.445V71.11h28.445V440.89z"/><path d="M512 270.222H0v-28.445h512v28.445z"/></g><path d="M341.319 256c0 47.133-38.215 85.334-85.334 85.334-47.133 0-85.334-38.201-85.334-85.334 0-47.119 38.201-85.319 85.334-85.319 47.119 0 85.334 38.2 85.334 85.319" fill="#dd2e44"/><g fill="#006000"><path d="M256 179.769l-2.404 7.452h-7.894l6.414 4.636-2.46 7.44 6.343-4.623 6.328 4.622-2.432-7.509 6.386-4.537h-7.851l-2.43-7.481zM212.195 193.991l2.433 7.439-6.372 4.636 7.894-.014 2.389 7.467 2.404-7.466 7.85.013-6.37-4.651 2.488-7.41-6.357 4.607-6.359-4.62zM185.174 231.268l6.342 4.58-2.432 7.495 6.4-4.652 6.315 4.637-2.446-7.453 6.357-4.607h-7.879l-2.361-7.467-2.417 7.467h-7.88zM185.174 277.334l7.836-.029 2.433 7.495 2.432-7.524 7.836.029-6.357-4.58 2.446-7.466-6.386 4.622-6.3-4.651 2.432 7.466-6.372 4.638zM212.195 314.581l6.315-4.607 6.386 4.636-2.46-7.524 6.371-4.594-7.85.03-2.418-7.467-2.446 7.495-7.808-.057 6.342 4.622-2.432 7.466zM256 328.804l2.404-7.439h7.879l-6.4-4.651 2.446-7.439-6.329 4.636-6.329-4.636 2.418 7.495-6.371 4.565h7.85l2.432 7.469zM299.805 314.581l-2.446-7.439 6.371-4.65-7.894.028-2.389-7.466-2.403 7.466-7.852-.029 6.372 4.651-2.489 7.44 6.371-4.637 6.359 4.636zM326.869 277.305l-6.343-4.58 2.433-7.495-6.4 4.651-6.3-4.636 2.432 7.452-6.342 4.608h7.865l2.361 7.466 2.433-7.466h7.86zM326.855 231.254l-7.823.013-2.432-7.495-2.433 7.524-7.836-.029 6.358 4.594-2.447 7.466 6.387-4.636 6.3 4.651-2.433-7.466 6.359-4.622zM299.805 193.991l-6.315 4.623-6.386-4.636 2.446 7.508-6.357 4.58 7.85-.013 2.418 7.466 2.446-7.495 7.808.071-6.342-4.622 2.432-7.482z"/></g><g fill="#fff"><path d="M241.621 215.907c0 1.38 0 3.727 3.385 4.153 2.105-.767 1.38-5.433.74-6.713-1.48.1-3.57 1.735-4.125 2.56"/><path d="M245.746 214.627c-2.29 1.195-5.22 3.385-4.949 6.955-4.024-2.83-4.28-11.064.186-12.26 1.648-.084 5.033 2.19 4.763 5.306"/></g><path d="M243.911 222.749c2.091 1.82 6.088 1.494 8.021.399 3.47 2.005 7.212 2.275 12.06.725.925.285 3.372.64 4.295.285.556-.555 1.096-.925 1.65-1.294-1.095-.91-2.19-2.546-2.745-4.195 0 0 .91-1.109 1.28-1.65-.91-.91-2.745-2.375-3.655-2.93.555-.54 1.095-2.19 1.095-2.19-1.834-.555-3.654-1.835-4.394-2.56l.185-1.109c-2.987-.171-2.86-3.84-9.315-4.935-4.395-.74-10.98 1.095-11.35 6.045 2.447 2.375 6.16 5.546 4.026 10.724-.555.74-1.579 1.706-2.19 2.02.355.422.611.48 1.037.665" fill="#7d76b6"/><g fill="#00693f"><path d="M261.717 276.58c1.58 6.699 5.718 19.258 6.827 22.059 1.095 2.801 2.674 8.519 6.215 9.529 1.578.825 3.782.213 2.801-7.083 1.095-.256 1.337-3.057 1.095-5.006-.241-1.949-.854-9.273-.981-15.104-.113-5.875-16.085-15.02-15.957-4.395"/><path d="M246.841 263.651c-.611 4.395.484 12.943 2.56 16.214l9.629 2.19c.981-.611 2.076-2.047 2.433-3.271 2.318-.754 4.152-2.589 4.75-6.115-2.79-6.699-12.787-15.603-19.372-9.018"/></g><path d="M268.231 224.142c.185 1.452 1.095 2.93 2.19 3.84a3.949 3.949 0 0 0-1.28 1.82c-4.025 3.485-13.34 27.62-13.525 32.925-.64 2.83-1.92 7.31-3.029 9.245-6.2-5.575-12.6-16.013-11.533-20.707-.37-.058-.925-.114-1.536-.299.127-.426.37-2.56.44-3.84-.383 0-1.052 0-1.607-.185.128-.796.384-3.115.384-4.152-.611-.172-1.351-.783-1.891-1.394.412-1.095 1.507-3.229 2.062-4.523-.91-.113-1.579-1.023-1.877-1.578.782-.484 1.835-1.892 2.247-2.745-.669-.54-1.465-1.338-1.579-1.707.854-.796 3.357-3.527 4.452-5.048-.683 0-.91-.072-1.465-.199.91-.355 1.948-1.706 3.171-2.859 2.105 1.835 6.087 1.494 8.021.399 3.47 2.005 7.211 2.29 12.06.725.924.282 3.385.637 4.295.282" fill="#7d76b6"/><path d="M282.14 290.531c.725-25.785-3.669-49.38-10.425-57.97-6.77-8.605-19.186-6.685-22.67.725-1.479 3.115-1.679 10.539-.199 13.725 2.574 5.49 12.445 22.855 19.214 29.44 6.756 6.585 11.506 10.966 14.08 14.08" fill="#00693f"/><g fill="#ffd420"><path d="M271.929 284.445c-1.949.228-4.266-.256-6.101-1.109-1.835-.867-3.414-1.692-5.362-1.692s-12.558-.754-14.265-1.365c-1.706-.611-6.471-1.451-8.405-1.338-1.948.114-5.006 1.479-6.228 1.479s-1.82.968-1.82 1.949c0 .967.24 2.801 1.692 3.769 2.574-.114 6.229-.355 6.713-.854 3.54.967 8.29 1.962 11.22 2.076 2.93.114 8.165.355 10.127.256 1.949-.142 2.304-.753 4.879.1 2.546.868 5.974 2.703 7.552 3.172 1.579.497 2.56-1.082 2.915-2.802.368-1.693-.855-3.783-2.917-3.641"/><path d="M271.929 290.83c1.579.498 2.56-1.081 2.915-2.801.37-1.693-.854-3.783-2.915-3.641-1.521.298-3.499 4.11 0 6.442"/></g><g fill="#fff"><path d="M251.349 278.884c-2.076-1.693-5.675-.085-6.215 4.025-.484 3.782 1.465 6.471 4.266 6.342-.611-2.062-.128-9.5 1.949-10.367"/><path d="M254.521 278.884c-1.962-1.579-4.48-.029-5.617 1.478-1.579 2.048-1.465 5.96-.484 7.908.981 1.949 3.911 1.222 4.522.256-.383-1.949 0-8.42 1.58-9.642"/><path d="M258.418 280.391c-1.38-2.304-5.178-1.607-6.4.085-1.21 1.721-1.465 5.361 0 7.196s3.057 1.58 4.38.612c-.355-1.692.2-6.058 2.02-7.893"/><path d="M260.623 281.444c-1.352-2.304-3.87-1.309-4.893.142-1.451 2.048-1.323 6.799 1.835 7.553 1.607.355 2.801-.968 3.3-1.579-1.222-.143-2.433-1.479-2.433-2.56 0-1.11.114-3.3 2.19-3.556"/></g><path d="M249.756 207.502c-3.285 0-3.2 4.935 0 4.935 3.215 0 3.285-4.935 0-4.935" fill="#ffd420"/><path d="M249.756 209.351c-.825 0-.796 1.224 0 1.224.812-.001.839-1.224 0-1.224"/></svg>