<svg xmlns="http://www.w3.org/2000/svg" viewBox="0 0 512.001 512.001"><path d="M455.111 71.114H56.894C25.477 71.114.005 96.586.005 128.002V384c0 31.416 25.472 56.889 56.889 56.889H455.11C486.527 440.889 512 415.416 512 384V128.002c-.001-31.417-25.471-56.888-56.889-56.888z" fill="#00247d"/><path d="M270.224 256.001v-28.856l-100.977-70.699H94.882l142.178 99.555h33.165z" fill="#eee"/><path d="M270.224 235.834L156.86 156.446h-24.789l138.153 96.739v-17.351z" fill="#cf1b2b"/><path d="M115.199 156.446L0 238.45V256h47.387l142.193-99.555-74.381.001z" fill="#eee"/><path d="M152.38 156.446L10.444 256.001h24.561l142.178-99.555H152.38z" fill="#cf1b2b"/><path d="M237.072 71.114L94.895 170.669h74.366L270.224 99.97V71.114h-33.151z" fill="#eee"/><path d="M249.447 71.114l-142.163 99.555h24.788L270.226 73.93v-2.816h-20.778z" fill="#cf1b2b"/><path d="M9.431 96.649l132.794 92.95v-18.93h47.331L48.314 71.759C32.087 74.214 18.117 83.527 9.43 96.649z" fill="#eee"/><path d="M13.785 90.906l128.441 90.03V170.67h10.154L24.589 81.185a57.243 57.243 0 0 0-10.804 9.721z" fill="#cf1b2b"/><path d="M270.224 128.002h-99.555V71.114H99.56v56.888H.005v71.11H99.56v56.89h71.11v-56.89h99.555v-71.11z" fill="#eee"/><g fill="#cf1b2b"><path d="M156.447 256.001h-42.666V71.115h42.666v184.886z"/><path d="M270.224 184.89H.005v-42.666h270.219v42.666z"/></g><g fill="#eee"><path d="M270.224 73.931l-.837.587v26.038l.837-.586zM436.993 171.156c-25.842 0-25.842 14.223-51.754 14.223-25.799 0-25.799-14.223-51.769-14.223-25.743 0-25.743 14.223-51.611 14.223-4.604 0-8.378-.458-11.634-1.198v32.105c3.256.741 7.03 1.198 11.634 1.198 25.87 0 25.87-14.223 51.314-14.223 26.267 0 26.267 14.223 51.313 14.223 26.667 0 26.667-14.223 52.537-14.223 25.856 0 25.856 15.104 51.697 15.104 11.25 0 17.564-2.873 23.281-6.101v-32.902c-5.717 2.944-12.032 5.575-23.281 5.575-25.844 0-25.844-13.78-51.727-13.78zM270.224 73.931V95.2c3.257.742 7.034 1.2 11.641 1.2 25.856 0 25.856-14.223 51.299-14.223 26.267 0 26.267 14.223 51.327 14.223 26.666 0 26.666-14.223 52.523-14.223 25.856 0 25.856 15.104 51.711 15.104 5.319 0 9.486-.682 13.056-1.692 4.821 6.912 7.979 14.96 9.33 23.65-5.504 2.76-11.69 5.15-22.385 5.15-25.856 0-25.856-13.768-51.74-13.768-25.827 0-25.827 14.223-51.754 14.223-25.798 0-25.798-14.223-51.753-14.223-25.756 0-25.756 14.223-51.611 14.223-4.608 0-8.383-.458-11.642-1.2v32.093c3.256.742 7.03 1.198 11.634 1.198 25.87 0 25.87-14.223 51.314-14.223 26.267 0 26.267 14.223 51.314 14.223 26.666 0 26.666-14.223 52.536-14.223 25.856 0 25.856 15.104 51.697 15.104 11.25 0 17.564-2.873 23.282-6.101V128c0-31.416-25.473-56.889-56.89-56.889H270.227v2.818h-.002zM436.993 352.794c-25.842 0-25.842 14.222-51.754 14.222-25.799 0-25.799-14.222-51.769-14.222-25.743 0-25.743 14.222-51.611 14.222-25.856 0-25.856-14.222-51.711-14.222s-25.857 14.222-51.726 14.222c-25.856 0-25.856-14.222-51.71-14.222S100.854 367.016 75 367.016s-25.856-14.222-51.725-14.222c-11.235 0-17.55 2.702-23.268 5.745V384c0 31.416 25.473 56.889 56.89 56.889h398.217c31.416 0 56.889-25.473 56.889-56.889v-23c-5.718 2.944-12.033 5.575-23.282 5.575-25.845-.001-25.845-13.781-51.729-13.781zm73.945 41.63c-2.39 12.97-9.273 24.22-18.86 32.482-1.122.057-2.104.199-3.355.199-25.842 0-25.842-13.781-51.74-13.781-25.828 0-25.828 14.222-51.74 14.222-25.813 0-25.813-14.222-51.77-14.222-25.756 0-25.756 14.222-51.61 14.222-25.857 0-25.857-14.222-51.725-14.222-25.842 0-25.842 14.222-51.712 14.222-25.856 0-25.856-14.222-51.711-14.222s-25.856 14.222-51.711 14.222c-25.87 0-25.87-14.222-51.725-14.222-5.732 0-10.169.711-13.923 1.806-4.765-7.254-7.695-15.73-8.704-24.802 5.547-2.915 11.79-5.433 22.628-5.433 25.856 0 25.856 14.223 51.725 14.223 25.856 0 25.856-14.223 51.711-14.223s25.857 14.223 51.712 14.223c25.87 0 25.87-14.223 51.71-14.223 25.87 0 25.87 14.223 51.726 14.223s25.856-14.223 51.299-14.223c26.267 0 26.267 14.223 51.327 14.223 26.666 0 26.666-14.223 52.523-14.223 25.87 0 25.87 15.104 51.71 15.104 10.58 0 16.768-2.574 22.214-5.575zM436.993 231.705c-25.842 0-25.842 14.223-51.754 14.223-25.799 0-25.799-14.223-51.769-14.223-25.743 0-25.743 14.223-51.611 14.223-4.604 0-8.378-.458-11.634-1.198v8.456l-.836-.585v2.565h-33.524l1.195.837H47.387l1.195-.837H36.2l-1.195.836h-24.56l1.193-.836H.005v14.39c5.717-3.042 12.032-5.76 23.267-5.76 25.87 0 25.87 14.236 51.725 14.236s25.857-14.236 51.712-14.236 25.856 14.236 51.711 14.236c25.87 0 25.87-14.236 51.725-14.236s25.856 14.236 51.711 14.236c25.87 0 25.87-14.236 51.314-14.236 26.267 0 26.267 14.236 51.314 14.236 26.666 0 26.666-14.236 52.536-14.236 25.856 0 25.856 15.119 51.697 15.119 11.25 0 17.564-2.873 23.282-6.101v-32.9c-5.718 2.943-12.033 5.575-23.282 5.575-25.84-.003-25.84-13.784-51.725-13.784zM436.993 292.252c-25.842 0-25.842 14.223-51.754 14.223-25.799 0-25.799-14.223-51.769-14.223-25.743 0-25.743 14.223-51.611 14.223-25.856 0-25.856-14.223-51.711-14.223s-25.857 14.223-51.726 14.223c-25.856 0-25.856-14.223-51.71-14.223s-25.858 14.223-51.713 14.223-25.856-14.223-51.725-14.223c-11.235 0-17.55 2.703-23.268 5.745v32.097c5.718-3.043 12.033-5.745 23.268-5.745 25.87 0 25.87 14.222 51.725 14.222s25.856-14.222 51.711-14.222 25.856 14.222 51.711 14.222c25.87 0 25.87-14.222 51.725-14.222s25.857 14.222 51.712 14.222c25.87 0 25.87-14.222 51.313-14.222 26.268 0 26.268 14.222 51.314 14.222 26.666 0 26.666-14.222 52.536-14.222 25.856 0 25.856 15.103 51.698 15.103 11.25 0 17.564-2.872 23.281-6.1v-32.893c-5.717 2.943-12.032 5.575-23.281 5.575-25.843 0-25.843-13.782-51.726-13.782z"/></g><path d="M387.53 407.846c0 2.545-2.034 4.594-4.579 4.594s-4.607-2.047-4.607-4.594V182.27a4.607 4.607 0 0 1 4.607-4.608c2.545 0 4.579 2.063 4.579 4.608v225.576z" fill="#c1694f"/><path d="M350.669 289.625s1.976-4.75 8.917-4.75c6.969 0 8.633 3.626 12.815 5.29 4.182 1.679 9.473 2.517 9.473 2.517v34.802h-37.319S343.161 314.4 340.929 308c-2.233-6.385-4.181-15.047.554-17.834 4.748-2.76 9.186-.541 9.186-.541" fill="#dd2e44"/><g fill="#ffcc4d"><path d="M381.724 280.569v5.006s-9.6-.839-17.963-6.684c-5.091-3.555-15.872-7.95-24.22-.825-5.432 4.579-5.006 16.299-1.65 20.879 3.314 4.594 6.67 15.048-.441 7.95-7.096-7.111-9.201-17.976-7.096-25.074 2.09-7.096 6.67-14.193 17.536-14.193 10.88 0 17.976 5.846 22.984 8.775 4.35 2.53 11.291 3.327 10.85 4.166"/><path d="M339.835 305.764l5.831-.257-1.664 8.89s5.847-4.438 6.13-3.343c.257 1.137 1.11 9.201 1.11 9.201l-7.522-1.679 4.451 6.429-5.831 2.759s-2.232-7.51-2.787-11.108c-.584-3.64.282-10.892.282-10.892M352.071 310.514l5.561-.554s-4.807-10.865 2.233-10.595c7.807.285 2.504 10.311 2.504 10.311h5.858l.825 8.079-5.546-3.356v4.75l6.101 5.859-16.142 1.65 4.168-6.954-.27-5.007-3.897 4.452-1.395-8.635z"/></g><path d="M415.367 289.625s-1.962-4.75-8.917-4.75c-6.954 0-8.619 3.626-12.8 5.29-4.181 1.679-9.473 2.517-9.473 2.517v34.802h37.333s1.366-13.084 3.612-19.484c2.233-6.385 4.168-15.047-.553-17.834-4.764-2.76-9.202-.541-9.202-.541" fill="#dd2e44"/><g fill="#ffcc4d"><path d="M384.305 280.569v5.006s9.615-.839 17.962-6.684c5.092-3.555 15.873-7.95 24.234-.825 5.433 4.579 4.993 16.299 1.65 20.879-3.327 4.594-6.656 15.048.426 7.95 7.097-7.111 9.217-17.976 7.097-25.074-2.077-7.096-6.67-14.193-17.537-14.193-10.88 0-17.976 5.846-22.968 8.775-4.335 2.53-11.275 3.327-10.864 4.166"/><path d="M426.224 305.764l-5.846-.257 1.663 8.89s-5.846-4.438-6.13-3.343c-.256 1.137-1.11 9.201-1.11 9.201l7.51-1.679-4.465 6.429 5.846 2.759s2.233-7.51 2.817-11.108c.54-3.64-.285-10.892-.285-10.892M413.963 310.514l-5.575-.554s4.82-10.865-2.233-10.595c-7.779.285-2.489 10.311-2.489 10.311h-5.846l-.854 8.079 5.575-3.356v4.75l-6.115 5.859 16.157 1.65-4.195-6.954.298-5.007 3.897 4.452 1.38-8.635zM392.695 266.5c0 5.546-4.38 10.012-9.756 10.012-5.377 0-9.743-4.465-9.743-10.012 0-5.533 4.366-10.026 9.743-10.026s9.756 4.494 9.756 10.026M391.71 251.477h-17.521v-6.968h17.521v6.968z"/><path d="M387.116 304.114h-8.335v-64.326h8.335v64.326z"/><path d="M376.029 301.32h13.083l-3.626 9.188 8.363-4.452v12.231l-8.093-2.758 6.969 10.567H374.62l5.575-10.567-8.064 1.935v-10.865l7.523 3.626-3.625-8.905z"/><path d="M382.972 321.916c17.28 0 28.132 1.423 40.392 5.846 0 0 .839 7.268-.839 10.88-1.65 3.627-39.821-2.517-39.821-2.517l.268-14.209z"/><path d="M383.474 321.916c-17.265 0-28.131 1.423-40.363 5.846 0 0-.854 7.268.81 10.88 1.679 3.627 39.808-2.517 39.808-2.517l-.255-14.209z"/></g><path d="M427.781 346.028c0 5.46-20.081 9.856-44.827 9.856-24.761 0-44.856-4.394-44.856-9.856 0-5.475 20.096-9.9 44.856-9.9 24.745 0 44.827 4.425 44.827 9.9" fill="#eee"/><path d="M413.054 349.625c0 3.015-13.483 5.461-30.108 5.461-16.64 0-30.136-2.446-30.136-5.461 0-2.986 13.496-5.433 30.136-5.433 16.625 0 30.108 2.447 30.108 5.433" fill="#99aab5"/><path d="M364.876 97.749l9.174 11.42s6.429-3.911 6.699-3.073c.285.839-.554 9.473-.554 9.473l4.465 1.11-3.626 11.42s5.575-3.073 5.29-1.949c-.285 1.11-1.664 10.865-1.664 10.865l2.232 1.379-.284 10.88s2.247 3.882 2.247 3.042c0-.825 2.219-14.194 2.219-14.194l3.072 2.504 1.081-6.954 2.518-11.975 2.788 4.452 5.846-19.784 3.072 6.969 6.954-8.079 4.736-.27 6.954-1.949 1.407 4.181h6.4s-3.327 2.788-3.057 3.613c.27.839 6.115 3.896 5.276 4.181-.825.27-15.032-1.122-15.032-1.122l-8.064 8.078 5.006 1.68-7.537 4.45 6.415 1.95-5.847 4.453 5.007-.554-8.079 6.13 8.079 1.679-10.851 5.561 2.488 2.788-10.837 6.4-1.408 4.465 10.311-8.079s8.363-5.575 12.516-8.079c4.18-2.504 7.537-7.239 14.506-9.187 6.969-1.949 20.322.285 20.322.285l-12.543 6.67 2.517 3.896-8.079 2.517 1.11 4.722-13.368 1.962.27 5.006-11.407 1.95-1.393 4.735-7.794 2.788 3.626 3.057s-6.699 2.233-5.846 2.504c.839.285 9.756 1.124 9.756 1.124s-4.48 3.896-3.641 3.896c.839 0 11.961.554 11.961.554l-4.736 3.342 11.179.554-5.05 3.896s9.202.84 9.202 1.68c0 .824-3.896 5.006-3.896 5.006l8.064.838s-3.883 4.182-3.058 4.465c.854.27 11.42 7.51 11.42 7.51l-12.53-1.663s-3.057 4.167-3.356 3.327c-.256-.825-3.314-5.846-3.314-5.846l-3.072 3.342-3.328-6.67s-3.911 2.219-3.641 1.379c.27-.84-4.465-6.13-4.465-6.13l-1.11 2.518-3.058-7.523-2.773 3.911-5.305-7.253-1.95 3.057-7.238-6.4s-.27 4.181 0 5.006c.285.839 5.305 4.465 5.305 4.465s-3.356 1.394-3.356 2.219c0 .839 6.699 6.13 6.699 6.13l-3.073 2.233 7.239 6.13s-6.685 1.378-5.859 1.948c.854.554 4.181 5.006 4.181 5.006l-2.787 6.685-5.546-8.632-3.073.839-.569-7.239-3.042-.285 1.65-8.064-3.328.541-.285-6.683-1.393-6.67-2.788-4.465s-1.935 3.356-1.679 4.181c.299.839 2.532 6.13 2.532 6.13s-3.073 1.664-2.532 2.504c.569.838 3.627 6.953 3.627 6.953s-6.685 1.394-5.847 1.394c.854 0 3.073 3.897 3.073 3.897l-3.626 1.393-1.664 4.182s-4.168-4.737-3.911-3.897c.285.839-2.504 8.633-2.504 8.633l-4.153-4.736L365.714 198l-5.02-1.394-3.613 7.523s-3.057-3.613-3.342-2.788c-.285.825-3.356 6.4-3.356 6.4s-3.584-6.13-3.314-5.29c.27.84-4.195 9.757-4.195 9.757s-3.896-7.808-3.896-6.684c0 1.11-2.788 10.851-2.788 10.851s-4.437-7.522-4.181-6.13c.299 1.394-3.043 7.808-3.043 7.808l-.853-6.969-6.115 3.626 6.968-10.026 11.705-10.865 8.918-6.67-5.874-.839s8.476-2.959 9.458-3.072c2.517-.285-3.883-2.504-3.883-2.504l15.588-4.736s-6.954-3.626-7.794-2.788c-.84.839-9.188 2.504-9.188 2.504l-1.122-6.4-8.619 3.626s-1.407-5.859-1.679-5.02c-.285.839-6.968 4.451-6.968 4.451l-3.328-3.612-3.911 6.13-4.465-3.356-8.05 2.517 3.882-5.846-4.451-2.518 9.188-5.846 1.948-3.896 12.544.839s-3.356-4.465-2.787-3.627c.568.84 12.8 2.788 12.8 2.788l3.64-.554 12.246 4.451-10.026-8.078-8.633-1.664 5.561-4.451-13.083-4.737 2.8-4.45-17.294-4.466 10.61-2.787-7.254-12.245 15.033 8.917 6.685-2.232 3.356 8.632 6.13 3.626 1.095 6.4 3.072-1.393 2.774 7.51 3.641-1.11 1.935 5.29 5.305.285-1.407-6.969 2.219-3.343-6.115-5.006 5.305-2.504-7.808-6.415 6.67-.838-9.472-9.188 7.552.285-7.552-8.632 6.143-1.394-1.13-11.136z" fill="#77b255"/></svg>