<svg xmlns="http://www.w3.org/2000/svg" viewBox="0 0 512 512"><path d="M512 384c0 31.418-25.473 56.889-56.889 56.889H56.89C25.472 440.889 0 415.417 0 384V128c0-31.418 25.472-56.889 56.889-56.889H455.11C486.53 71.111 512 96.584 512 128v256z" fill="#0021ad"/><path d="M492.345 426.695C504.291 416.27 512 401.095 512 384V128c0-31.418-25.473-56.889-56.889-56.889H56.89c-14.321 0-27.235 5.461-37.234 14.194l472.69 341.39z" fill="#1b8a42"/><g fill="#fff"><path d="M121.174 316.615l2.417 8.306h8.349L125.341 330l2.433 8.063-6.599-5.09-6.599 4.863 2.418-7.836-6.599-5.078h8.135l2.644-8.306zM99.385 224.114l-9.658 8.917.968-13.099-12.999-1.99 10.838-7.425-6.543-11.392 12.573 3.84 4.821-12.218 4.821 12.218 12.573-3.84-6.543 11.392 10.823 7.424-12.985 1.991.967 13.1-9.656-8.918zM47.858 299.663L38.2 308.58l.968-13.099-13-1.991 10.838-7.41-6.542-11.406 12.572 3.854 4.822-12.232 4.82 12.232 12.573-3.854-6.542 11.406 10.822 7.41-12.985 1.991.968 13.099-9.657-8.917zM148.993 293.433l-9.658 8.917.968-13.099-13-1.991 10.838-7.424-6.542-11.392 12.572 3.84 4.822-12.216 4.82 12.216 12.573-3.84-6.542 11.392 10.822 7.41-12.985 2.005.968 13.099-9.657-8.917zM98.546 403.528l-9.657 8.917.967-13.112-12.998-1.978 10.837-7.439-6.542-11.392 12.572 3.84 4.821-12.231 4.822 12.23 12.572-3.84-6.542 11.393 10.822 7.41-12.985 2.005.968 13.113-9.657-8.916z"/></g><path d="M205.326 256c0-27.989 22.685-50.674 50.674-50.674s50.688 22.685 50.688 50.674-22.7 50.688-50.688 50.688-50.674-22.7-50.674-50.688" fill="#ffc639"/><path d="M225.592 232.661s15.432 14.308 23.368 14.919c12.942.995 25.272-9.785 25.272-17.735l12.16-5.149v15.929l11.605 7.95-21.73 19.897v23.88l-12.986-3.143-.939-16.598s-.568-6.286-8.533-6.286-14.194-.512-15.844-4.821c-.455-1.18-21.533 2.986-21.533 2.986l13.64-19.015-4.48-4.85v-7.964z" fill="#1b8a42"/><path d="M421.22 92.7c3.3-2.589 34.261 28.004 37.945 33.906 3.684 5.888 2.219 28.004 5.903 37.959 3.683 9.941 6.982 12.16 10.68 9.941 3.684-2.205 16.598 0 18.433 4.793 0 0-10.325 6.272-11.065 10.695 0 0-32.782 11.42-51.584 20.992-18.8 9.586-13.923 4.665-29.482 11.435-22.855 9.941-43.491 5.149-58.595 2.944-15.119-2.205-10.709-5.533 0-4.054 10.681 1.479 42.724-1.849 51.214-4.792 8.476-2.93 25.06-16.214 32.071-19.528 6.997-3.314 15.844-15.474 8.106-22.841-7.751-7.381-30.961-17.693-40.177-27.648-9.23-9.955-9.217-11.42 5.162-9.216 14.379 2.219 27.008 9.814 33.891 16.698 7.382 7.367 13.938-2.063 9.515-13.867s-10.595-10.567-14.662-21.262c-4.056-10.681-10.684-23.58-7.355-26.155" fill="#ffc639"/></svg>