<svg xmlns="http://www.w3.org/2000/svg" viewBox="0 0 512 512"><path d="M455.111 71.111H56.889C25.472 71.111 0 96.583 0 128v35.137h213.333v.836H0V384c0 31.417 25.472 56.889 56.889 56.889H455.11c31.418 0 56.89-25.472 56.89-56.889V128c0-31.417-25.472-56.889-56.889-56.889zM72.44 126.632l-9.618 29.784-.009.007 9.623-29.792.004.001zm40.998 29.701l-9.591-29.701 9.626 29.727-.035-.026z" fill="#d21034"/><g fill="#003082"><path d="M455.111 71.111H298.667v92.863H512V128c0-31.417-25.472-56.889-56.889-56.889zM213.333 163.137V71.111H56.889C25.472 71.111 0 96.583 0 128v35.137h213.333zM78.472 107.922l9.671-29.781 9.671 29.781h31.317l-25.33 18.572 9.671 29.866-25.33-18.362-25.33 18.424 9.671-29.939-25.33-18.561h31.319z"/></g><g fill="#eee"><path d="M298.667 163.974H512V256H298.667zM0 163.974h213.333V256H0z"/></g><g fill="#289728"><path d="M0 256h213.333v92.863H0zM298.667 256H512v92.863H298.667z"/></g><g fill="#ffce00"><path d="M298.667 440.889h156.444C486.528 440.889 512 415.417 512 384v-35.137H298.667v92.026zM0 348.863V384c0 31.417 25.472 56.889 56.889 56.889h156.444v-92.026H0zM129.133 108.261H97.815L88.144 78.48l-9.671 29.781H47.156l25.33 18.404-9.671 29.781 25.33-18.404 25.33 18.404-9.671-29.781 25.329-18.404z"/></g></svg>