<svg xmlns="http://www.w3.org/2000/svg" viewBox="0 0 512 512"><path d="M278.784 269.384l14.08 43.349L256 285.938l-36.879 26.795 14.08-43.35-18.432-13.397H0v128c0 31.417 25.472 56.889 56.889 56.889H455.11c31.418 0 56.889-25.473 56.889-56.889v-128H297.216l-18.432 13.398z" fill="#009e49"/><path d="M455.111 71.125H56.89C25.472 71.125 0 96.598 0 128.014v128h214.77l-18.433-13.398h45.583L256 199.267l14.08 43.35h45.583l-18.433 13.397H512v-128c0-31.416-25.473-56.889-56.889-56.889" fill="#ef2b2d"/><path d="M219.136 312.761l36.879-26.795 36.864 26.795-14.08-43.349 18.432-13.397 18.433-13.382h-45.568l-14.08-43.35-14.094 43.35h-45.567l18.433 13.382 18.432 13.398-14.084 43.348z" fill="#fcd116"/></svg>