<svg xmlns="http://www.w3.org/2000/svg" viewBox="0 0 512 512"><path d="M512 384c0 31.418-25.473 56.889-56.889 56.889H56.89C25.472 440.889 0 415.417 0 384V128c0-31.418 25.472-56.889 56.889-56.889H455.11C486.53 71.111 512 96.584 512 128v256z" fill="#265fb5"/><path d="M391.566 269.226c-.725-7.466 11.393-25.999 1.664-24.661-11.904 1.621-21.205-6.571-25.23-6.386 12.885-18.219 3.314-22.855.441-34.66-5.064-20.736 11.108-30.891-17.777-35.343-18.788-2.887-31.744-.925-37.405-22.386-8.292 5.818-18.134 7.268-27.463 3.186-5.974-2.602-7.836-7.566-13.469-9.97-4.252-1.806-13.155-1.792-17.92-2.546-13.127-2.076-19.897 3.755-31.672 1.806 1.124 1.722 1.294 3.912 2.076 5.732-7.254.256-11.676 5.12-12.459 11.903-10.623-1.066-13.326 12.772-12.13 21.504-.37.1-.74.228-1.11.328l.442.455c-2.233 23.11-11.634 34.673-35.314 38.3-15.588 2.388-29.44-7.98-42.909-16.313-2.944-1.82-8.121-5.803-10.894-8.889-3.982-4.408-6.798-10.623-10.666-13.767-1.777-1.451-5.546-2.674-5.035.285-2.446 15.331 8.761 34.432 21.646 41.814-17.663 8.148 4.48 13.027 7.652 15.8.057.058 7.666 10.526 7.722 10.91 1.209 7.48-3.94 6.627-4.48 12.615-.569 6.2-.555 11.192 1.521 17.38-.156.142-.298.298-.44.44.084 4.978-3.698 3.2-8.577 2.092.669 15.104 15.047 16.413 17.465 19.371 7.751 9.515 5.077 23.353 14.109 32.214 22.243 21.789 47.601 8.931 72.775 12.572 14.137 2.063 26.253 13.924 39.068.54 15.062 16.498-11.59 36.054-5.077 41.614 1.862 1.608 3.826 2.261 5.831 2.375-.37 1.024-.952 1.934-1.222 3.001 18.105 1.707 37.162 6.03 54.072-2.872-.029 2.716 1.793 6.016 1.891 7.466 4.153-4.964 7.395-4.694 12.687-7.325 6.613-3.313 18.29-7.267 22.67-13.881 5.233-7.865-2.987-18.759 13.497-15.389 1.266-5.689 1.806-5.091 4.821-8.875-4.536-11.377 8.947-19.057 13-27.192.81-1.65.88-9.273 1.948-12.146 2.062-5.475 7.907-8.52 9.529-15.374 2.985-12.614-4.225-14.79-5.278-25.728" fill="#fff"/></svg>