<svg xmlns="http://www.w3.org/2000/svg" viewBox="0 0 512 512"><path d="M455.112 71.113H56.894C25.477 71.113.006 96.585.006 128.001v255.997c0 31.417 25.472 56.888 56.888 56.888h398.218c31.417 0 56.888-25.472 56.888-56.888V128.001c0-31.416-25.472-56.888-56.888-56.888z" fill="#00247d"/><path d="M270.225 256v-28.857l-100.977-70.698H94.881L237.059 256h33.166z" fill="#eee"/><path d="M270.225 235.833l-113.364-79.388h-24.789l138.153 96.738v-17.35z" fill="#cf1b2b"/><path d="M115.199 156.446L0 238.45V256h47.388l142.192-99.554h-74.381z" fill="#eee"/><path d="M152.379 156.446L10.443 256h24.561l142.178-99.554h-24.803z" fill="#cf1b2b"/><path d="M237.072 71.113L94.894 170.668h74.367L270.223 99.97V71.113h-33.151z" fill="#eee"/><path d="M249.447 71.113l-142.164 99.554h24.789l138.153-96.738v-2.816h-20.778z" fill="#cf1b2b"/><path d="M9.432 96.649l132.795 92.949v-18.93h47.331L48.315 71.758c-16.227 2.456-30.198 11.77-38.883 24.891z" fill="#eee"/><path d="M13.785 90.906l128.441 90.031v-10.268h10.155L24.589 81.185a57.209 57.209 0 0 0-10.804 9.721z" fill="#cf1b2b"/><path d="M270.225 128.001h-99.554V71.113H99.56v56.888H.006v71.11H99.56V256h71.11v-56.888h99.554v-71.111z" fill="#eee"/><g fill="#cf1b2b"><path d="M156.449 256h-42.666V71.113h42.666V256z"/><path d="M270.225 184.89H.006v-42.666h270.219v42.666z"/></g><path d="M482.667 175.271s-20.878 7.253-44.259 7.253c-23.367 0-40.945-12.146-40.945-12.146s-17.536 12.146-40.917 12.146c-23.395 0-45.439-7.253-45.439-7.253-2.19 58.609 1.422 120.29 22.897 152.603 23.097 34.759 63.459 56.12 63.459 56.12s39.168-21.362 62.264-56.12c21.49-32.312 25.131-93.993 22.94-152.603" fill="#cccc32"/><path d="M475.25 182.21s-16.711 6.243-38.883 6.243c-22.229 0-38.912-11.107-38.912-11.107s-16.654 11.107-38.84 11.107c-22.215 0-38.855-6.243-38.855-6.243-2.091 55.48 0 112.368 21.504 142.192 21.518 29.852 56.191 50.659 56.191 50.659s34.759-20.807 56.262-50.659c21.491-29.823 23.61-86.712 21.533-142.192" fill="#fff"/><path d="M378.029 190.536s.697 9.714 4.85 13.17c0 0 10.411-2.076 18.73 1.394 6.585 2.745 18.745 7.623 24.974 5.547 6.243-2.076 11.79-4.153 13.198-2.773 1.38 1.38-6.955 3.47-8.348 4.85-1.394 1.394-6.229 2.788-3.456 6.94 2.788 4.167 7.637 7.623 6.243 11.79 0 0-6.243-4.85-9.017-9.003-2.788-4.167-9.017-7.637-19.442-6.258-10.396 1.394-18.702 6.94-20.096 13.184-1.394 6.243 6.243 5.547 12.473 6.94 0 0-9.017 3.47-13.867 3.47 0 0-4.153 7.623-8.32 14.563-4.153 6.94-4.864 11.107-6.94 10.411-2.076-.697-2.788-10.411-1.38-15.957 0 0-4.85-2.788-4.167-16.654.597-11.847 9.003-22.898 9.003-22.898s-.668-4.153 0-9.003c.712-4.863 5.562-9.713 5.562-9.713" fill="#f90"/><path d="M370.4 239.427a2.422 2.422 0 0 1-2.432 2.432 2.422 2.422 0 0 1-2.432-2.432 2.419 2.419 0 0 1 2.432-2.418 2.419 2.419 0 0 1 2.432 2.418" fill="#fff"/><path d="M355.9 309.013s7.097-6.684 7.139-12.089c0 0-8.178-6.741-10.766-15.402-2.034-6.827-5.931-19.314-11.477-22.841-5.575-3.527-10.681-6.514-10.51-8.462.213-1.948 7.083 3.172 9.045 3.385 1.948.185 6.087 3.086 7.566-1.707 1.479-4.779 1.081-10.738 5.191-12.288 0 0 .185 7.907-1.28 12.686-1.479 4.779-.213 11.804 7.424 19.001 7.666 7.182 17.223 10.126 22.94 7.239 5.732-2.873.37-8.334-2.517-14.051 0 0 8.391 4.793 11.463 8.576 0 0 8.562-1.621 16.54-2.788 8.021-1.152 11.676-3.243 12.444-1.195.782 2.048-6.3 8.732-11.491 11.179 0 0 .939 5.49-10.254 13.724-9.571 7.054-23.438 7.509-23.438 7.509s-2.773 3.157-6.997 5.689c-4.195 2.532-11.022 1.835-11.022 1.835" fill="#f90"/><path d="M398.614 284c1.038-.839 2.588-.683 3.413.356.868 1.038.697 2.574-.341 3.428a2.43 2.43 0 0 1-3.399-.356c-.867-1.039-.697-2.575.327-3.428" fill="#fff"/><path d="M466.223 267.806s-9.059-3.641-13.98-1.422c0 0-2.688 10.254-9.443 16.227-5.362 4.75-15.061 13.511-15.943 20.025-.839 6.528-1.408 12.43-3.257 13.07-1.849.64-.085-7.751-.725-9.614-.64-1.835.242-6.827-4.722-6.144-4.949.668-10.211 3.513-13.326.455 0 0 7.111-3.499 12.046-4.181 4.949-.654 10.809-4.764 14.122-14.706 3.314-9.984 1.963-19.897-3.044-23.865-4.992-3.982-7.723 3.186-11.719 8.206 0 0 .839-9.657 2.958-14.023 0 0-5.02-7.083-9.443-13.852-4.409-6.784-7.851-9.23-6.315-10.795 1.522-1.564 10.581 2.062 14.947 5.746 0 0 4.636-3.157 16.796 3.527 10.411 5.746 16.611 18.147 16.611 18.147s4.068 1.195 8.135 3.954c4.055 2.746 6.302 9.245 6.302 9.245" fill="#f90"/><path d="M425.598 239.523a2.425 2.425 0 0 1-1.124-3.257c.583-1.195 2.02-1.692 3.243-1.109a2.418 2.418 0 0 1 1.109 3.243c-.582 1.208-2.047 1.72-3.228 1.123" fill="#fff"/><path d="M338.071 319.568a64.64 64.64 0 0 0 3.2 4.835c21.504 29.852 56.191 50.645 56.191 50.645s34.744-20.793 56.262-50.645a69.4 69.4 0 0 0 3.172-4.835H338.071z" fill="#9cf"/></svg>