<?xml version="1.0" encoding="utf-8"?>
<!-- Generator: Adobe Illustrator 19.1.0, SVG Export Plug-In . SVG Version: 6.00 Build 0)  -->
<svg version="1.1" id="Layer_1" xmlns="http://www.w3.org/2000/svg" xmlns:xlink="http://www.w3.org/1999/xlink" x="0px" y="0px"
	 viewBox="0 0 100 100" enable-background="new 0 0 100 100" xml:space="preserve">
<g>
	<g>
		<linearGradient id="SVGID_1_" gradientUnits="userSpaceOnUse" x1="53.3169" y1="89.6995" x2="53.3169" y2="17.4988">
			<stop  offset="0" style="stop-color:#F6921E"/>
			<stop  offset="0.3442" style="stop-color:#F7951D"/>
			<stop  offset="0.5983" style="stop-color:#F89E1A"/>
			<stop  offset="0.8228" style="stop-color:#FBAE14"/>
			<stop  offset="1" style="stop-color:#FFC10E"/>
		</linearGradient>
		<path fill="url(#SVGID_1_)" d="M64.9,33c-1,0-1.9,0.1-2.8,0.2c-2.7-1.6-5.8-2.5-9.1-2.5c-3.3,0-6.3-0.1-9,1.4
			C43.2,32,42.5,33,41.8,33C29,33,18.7,43.6,18.7,56.8S29,80.6,41.8,80.6c0.5,0,0.9,0,1.4,0c2.8,1.8,6.2,2.9,9.8,2.9
			c3.6,0,3-1.1,5.9-2.9c0.7,0.1,5.4,0.1,6.1,0.1C77.6,80.6,88,69.9,88,56.8S77.6,33,64.9,33z"/>
	</g>
	<g>
		<path fill="#8BC53F" d="M50.2,29.7c0.4,0,0.7,0,1.1,0c0.4-8.5,5.7-9.8,7.7-11.3c0.7-0.5,1.1-1.5,0.7-2.3c-0.3-0.5-0.7-0.8-1.2-0.9
			c-0.6-0.2-1.3,0.1-1.8,0.5c-8.4,5.8-7.7,12-7.6,14.1C49.4,29.7,49.8,29.7,50.2,29.7z"/>
	</g>
	<path fill="#231F20" d="M48.8,32.2c3.2,0,6.2,0.8,8.8,2.3c0.9-0.1,1.8-0.2,2.7-0.2c12.3,0,22.3,10,22.3,22.2
		c0,12.3-10,22.3-22.3,22.3c-0.7,0-1.4,0-2-0.1c-2.8,1.7-6,2.7-9.5,2.7c-3.4,0-6.7-1-9.4-2.7c-0.4,0-0.9,0-1.3,0
		c-12.3,0-22.3-10-22.3-22.3c0-12.3,10-22.2,22.3-22.2c0.7,0,1.4,0,2.1,0.1C42.8,33,45.7,32.2,48.8,32.2 M48.8,29.2
		c-3.2,0-6.4,0.7-9.3,2.2c-0.5,0-1,0-1.4,0c-13.9,0-25.3,11.3-25.3,25.2s11.3,25.3,25.3,25.3c0.2,0,0.4,0,0.6,0
		c3.1,1.7,6.6,2.6,10.1,2.6c3.6,0,7.1-0.9,10.2-2.7c0.4,0,0.9,0,1.3,0c13.9,0,25.2-11.3,25.2-25.3S74.3,31.3,60.4,31.3
		c-0.7,0-1.4,0-2.1,0.1C55.3,29.9,52.1,29.2,48.8,29.2L48.8,29.2z"/>
	<path fill="#231F20" d="M56.2,15.5c0.1,0,0.3,0,0.4,0.1c0.4,0.1,0.9,0.4,1.1,0.9c0.4,0.7,0.1,1.7-0.6,2.2
		c-1.9,1.4-6.8,2.6-7.2,10.6c-0.3,0-0.7,0-1,0c-0.4,0-0.7,0-1.1,0c-0.1-2-0.7-7.8,7.1-13.2C55.3,15.7,55.7,15.5,56.2,15.5
		 M56.2,12.5L56.2,12.5c-1,0-2,0.3-3,1c-9,6.2-8.6,13.3-8.4,15.6l0,0.2l0.2,3l3-0.2c0.3,0,0.6,0,0.9,0c0.3,0,0.6,0,0.9,0l3,0.2
		l0.2-3c0.3-5,2.6-6.3,4.6-7.4c0.5-0.3,1-0.5,1.4-0.8c1.9-1.4,2.6-3.9,1.6-6c-0.6-1.1-1.6-2-2.9-2.4C57.1,12.6,56.6,12.5,56.2,12.5
		L56.2,12.5z"/>
	<g>
		<path fill="#231F20" d="M36.5,43.1c-0.2,0-0.3,0-0.5-0.1c-0.5-0.3-0.6-0.9-0.4-1.4c1.5-2.6,2.9-4.2,2.9-4.3c0.4-0.4,1-0.5,1.4-0.1
			c0.4,0.4,0.5,1,0.1,1.4c0,0-1.3,1.5-2.7,4C37.2,42.9,36.9,43.1,36.5,43.1z"/>
		<path fill="#231F20" d="M36,42.9c-0.5-0.3-0.6-0.9-0.4-1.4l0,0c0.3-0.5,0.9-0.6,1.4-0.4l0,0c0.5,0.3,0.6,0.9,0.4,1.4l0,0
			c0,0,0,0,0,0l0,0c-0.2,0.3-0.5,0.5-0.9,0.5l0,0C36.3,43.1,36.2,43,36,42.9z"/>
		<path fill="#231F20" d="M34,67.4c-0.4,0-0.8-0.2-0.9-0.6c-1.3-2.9-1.9-6-2-9.2c0-0.6,0.4-1,1-1h0c0.5,0,1,0.4,1,1
			c0.1,2.9,0.7,5.7,1.8,8.4c0,0.1,0.1,0.3,0.1,0.4c0,0.4-0.2,0.8-0.6,0.9C34.3,67.3,34.2,67.4,34,67.4z M32.3,55c0,0-0.1,0-0.1,0
			c-0.5-0.1-0.9-0.5-0.9-1c0,0,0-0.1,0-0.1c0.4-3,1.3-6,2.6-9c0.2-0.5,0.8-0.7,1.3-0.5c0.3,0.1,0.4,0.3,0.5,0.6
			c0.1,0.3,0.1,0.5,0,0.8c-1.3,2.8-2.1,5.6-2.4,8.4C33.3,54.6,32.8,55,32.3,55z"/>
		<path fill="#231F20" d="M38.6,74.7c-0.3,0-0.6-0.1-0.8-0.4c-1.1-1.3-2.2-2.8-3-4.2c-0.3-0.5-0.1-1.1,0.3-1.4
			c0.5-0.3,1.1-0.1,1.4,0.3c0.8,1.3,1.8,2.6,2.8,3.9c0.4,0.4,0.3,1.1-0.1,1.4C39.1,74.6,38.8,74.7,38.6,74.7z"/>
	</g>
	<g>
		<path fill="#231F20" d="M61.2,43.1c-0.3,0-0.7-0.2-0.9-0.5c-1.4-2.5-2.7-3.9-2.7-4c-0.4-0.4-0.3-1,0.1-1.4c0.4-0.4,1-0.3,1.4,0.1
			c0.1,0.1,1.4,1.6,2.9,4.3c0.3,0.5,0.1,1.1-0.4,1.4C61.6,43,61.4,43.1,61.2,43.1z"/>
		<path fill="#231F20" d="M60.4,42.6L60.4,42.6c-0.3-0.5-0.1-1.1,0.4-1.4l0,0c0.5-0.3,1.1-0.1,1.4,0.4l0,0l0,0l0,0
			c0.3,0.5,0.1,1.1-0.4,1.4l0,0c-0.2,0.1-0.3,0.1-0.5,0.1l0,0C60.9,43.1,60.6,42.9,60.4,42.6z"/>
		<path fill="#231F20" d="M63.7,67.4c-0.1,0-0.3,0-0.4-0.1c-0.4-0.2-0.6-0.5-0.6-0.9c0-0.1,0-0.3,0.1-0.4c1.1-2.7,1.7-5.5,1.8-8.4
			c0-0.5,0.5-1,1-1h0c0.3,0,0.5,0.1,0.7,0.3c0.2,0.2,0.3,0.4,0.3,0.7c-0.1,3.2-0.7,6.2-2,9.2C64.5,67.1,64.1,67.4,63.7,67.4z
			 M65.4,55c-0.5,0-0.9-0.4-1-0.9c-0.4-2.8-1.2-5.6-2.4-8.4l0-0.1h0c-0.2-0.5,0-1,0.5-1.3c0.5-0.2,1.1,0,1.3,0.5c1.4,3,2.2,6,2.6,9
			c0,0,0,0.1,0,0.1c0,0.5-0.4,0.9-0.9,1C65.5,55,65.5,55,65.4,55z"/>
		<path fill="#231F20" d="M59.1,74.7c-0.2,0-0.5-0.1-0.6-0.2c-0.4-0.4-0.5-1-0.1-1.4c1.1-1.3,2-2.6,2.8-3.9c0.3-0.5,0.9-0.6,1.4-0.3
			c0.5,0.3,0.6,0.9,0.3,1.4c-0.9,1.4-1.9,2.8-3,4.2C59.7,74.5,59.4,74.7,59.1,74.7z"/>
	</g>
	<g>
		<path fill="#FFF100" d="M43.8,43.9c-3.9,0-7.2-2.1-9.1-5.2c-3.4,1.3-5.9,4.2-6.6,7.8c1.9,2.7,5,4.5,8.6,4.5
			c4.8,0,8.8-3.2,10.1-7.5C45.8,43.7,44.8,43.9,43.8,43.9z"/>
		<path fill="#FFF100" d="M56.7,43.9c3.9,0,7.2-2.1,9.1-5.2c3.4,1.3,5.9,4.2,6.6,7.8c-1.9,2.7-5,4.5-8.6,4.5
			c-4.8,0-8.8-3.2-10.1-7.5C54.6,43.7,55.6,43.9,56.7,43.9z"/>
	</g>
	<g>
		<path fill="#FFF100" d="M49.2,68.1C37.8,68.1,28,62.3,23.5,54c0.7,11.6,12,20.9,25.7,20.9c13.8,0,25-9.3,25.8-20.9
			C70.5,62.3,60.6,68.1,49.2,68.1z"/>
	</g>
	<g>
		<path fill="#231F20" d="M35.7,52.4c-3.9,0-7.6-1.9-9.8-5.1c-0.2-0.3-0.3-0.7-0.2-1.1c0.8-4,3.7-7.5,7.6-8.9c0.7-0.3,1.5,0,1.8,0.6
			c1.6,2.8,4.6,4.5,7.8,4.5c0.9,0,1.7-0.1,2.6-0.4c0.5-0.2,1.1,0,1.5,0.4c0.4,0.4,0.5,1,0.4,1.5C45.7,48.9,41,52.4,35.7,52.4z
			 M28.8,46.1c1.7,2.1,4.3,3.3,7,3.3c3.1,0,5.9-1.6,7.5-4.1c-3.9,0.2-7.7-1.7-10-4.8C31,41.7,29.4,43.7,28.8,46.1z"/>
		<path fill="#231F20" d="M62.7,52.4c-5.3,0-10-3.5-11.5-8.6c-0.2-0.5,0-1.1,0.4-1.5c0.4-0.4,1-0.5,1.5-0.4c0.8,0.2,1.7,0.4,2.6,0.4
			c3.2,0,6.1-1.7,7.8-4.5c0.4-0.6,1.1-0.9,1.8-0.6c3.9,1.5,6.8,4.9,7.6,8.9c0.1,0.4,0,0.8-0.2,1.1C70.3,50.5,66.6,52.4,62.7,52.4z
			 M55.2,45.4c1.6,2.5,4.5,4.1,7.5,4.1c2.7,0,5.3-1.2,7-3.3c-0.7-2.4-2.3-4.4-4.5-5.6C62.9,43.7,59.1,45.5,55.2,45.4z"/>
	</g>
	<path fill="#231F20" d="M75,54L75,54 M75,54c-0.7,11.6-12,20.9-25.8,20.9c-13.8,0-25-9.3-25.7-20.9c4.5,8.3,14.3,14.1,25.7,14.1
		C60.6,68.1,70.5,62.3,75,54 M75,51c-0.1,0-0.2,0-0.3,0c-0.5,0.1-1,0.3-1.4,0.6c-0.2,0.2-0.5,0.4-0.6,0.6c-0.1,0.1-0.2,0.3-0.3,0.4
		c-4.1,7.6-13.2,12.4-23.1,12.4c-9.9,0-19-4.9-23.1-12.5c-0.5-1-1.6-1.6-2.6-1.6c-0.3,0-0.6,0-0.8,0.1c-1.4,0.4-2.3,1.7-2.2,3.1
		c0.8,13.3,13.4,23.7,28.7,23.7c15.2,0,27.8-10.3,28.7-23.6c0-0.1,0-0.2,0-0.3c0-1.6-1.3-2.9-2.9-3C75.1,51,75,51,75,51L75,51z"/>
</g>
</svg>
