<?xml version="1.0" encoding="utf-8"?>
<!-- Generator: Adobe Illustrator 19.1.0, SVG Export Plug-In . SVG Version: 6.00 Build 0)  -->
<svg version="1.1" id="Layer_1" xmlns="http://www.w3.org/2000/svg" xmlns:xlink="http://www.w3.org/1999/xlink" x="0px" y="0px"
	 viewBox="0 0 100 100" enable-background="new 0 0 100 100" xml:space="preserve">
<g>
	<g>
		<path fill="#8BC53F" d="M54.3,31.6c0,0,3.6-6.4-2.1-10.7c-0.3-0.2-0.6-0.3-0.9-0.3h-0.1c-1.1,0-1.8,1.2-1.4,2.2
			c0.9,2,1.2,4.9-2.8,7.3L54.3,31.6z"/>
	</g>
	<path fill="#231F20" d="M49.3,20.6c0.3,0,0.6,0.1,0.9,0.3c5.7,4.3,2.1,10.7,2.1,10.7l-7.3-1.5c4-2.4,3.7-5.3,2.8-7.3
		c-0.5-1,0.2-2.2,1.4-2.2H49.3 M49.3,17.6h-0.1c-1.5,0-3,0.8-3.8,2.1c-0.8,1.3-1,2.9-0.3,4.4c0.5,1,0.7,2.1-1.6,3.5
		c-1.1,0.6-1.6,1.9-1.4,3.1c0.2,1.2,1.1,2.2,2.3,2.4l7.3,1.5c0.2,0,0.4,0.1,0.6,0.1c1.1,0,2.1-0.6,2.6-1.5c1.7-3,3.2-10-2.9-14.6
		C51.2,17.9,50.3,17.6,49.3,17.6L49.3,17.6z"/>
	<g>
		<linearGradient id="SVGID_1_" gradientUnits="userSpaceOnUse" x1="52.3752" y1="84.3013" x2="52.3752" y2="25.1558">
			<stop  offset="0" style="stop-color:#F6921E"/>
			<stop  offset="0.3442" style="stop-color:#F7951D"/>
			<stop  offset="0.5983" style="stop-color:#F89E1A"/>
			<stop  offset="0.8228" style="stop-color:#FBAE14"/>
			<stop  offset="1" style="stop-color:#FFC10E"/>
		</linearGradient>
		<path fill="url(#SVGID_1_)" d="M83.5,50.4c0-11.1-10.1-21.3-21.7-21.3c-3.7,0-9.5,0.9-12.5,2.5c-3-1.6-5.4-1.3-9-1.3
			c-11.6,0-19.1,9-19.1,20.1c0,5.5,2.3,10.4,6,14.1c-0.1,0.7-0.2,1.3-0.2,2c0,7.2,6.2,13.1,13.8,13.1c1.9,0,4.8,1.7,6.5,1.1
			c2.1,0.7,2.4,0,4.8,0c2.2,0,5.5,0.8,7.5,0.3c1.6,0.6,3-1.3,4.7-1.3c7.6,0,13.8-5.9,13.8-13.1c0-0.8-0.1-1.6-0.2-2.3
			C81.4,60.5,83.5,55.7,83.5,50.4z"/>
	</g>
	<path fill="#231F20" d="M59.2,76.1c-0.3,0-0.6-0.1-0.8-0.4c-0.3-0.4-0.2-1.1,0.2-1.4c1.3-1,2.3-2.3,3-3.8c0.2-0.5,0.8-0.7,1.3-0.5
		c0.5,0.2,0.7,0.8,0.5,1.3c-0.8,1.9-2.1,3.4-3.6,4.6C59.6,76,59.4,76.1,59.2,76.1z M63.7,67.1C63.7,67.1,63.6,67.1,63.7,67.1
		c-0.6,0-1-0.5-1-1.1c0-0.4,0-0.9,0-1.3c0-2.5-0.5-4.3-0.5-4.4c-0.1-0.5,0.2-1.1,0.7-1.2s1.1,0.2,1.2,0.7c0,0.1,0.6,2.1,0.6,4.9
		c0,0.5,0,0.9-0.1,1.4C64.6,66.7,64.2,67.1,63.7,67.1z"/>
	<path fill="#231F20" d="M38.7,76.1c-0.2,0-0.4-0.1-0.6-0.2c-1.6-1.2-2.8-2.7-3.6-4.6c-0.2-0.5,0-1.1,0.5-1.3c0.5-0.2,1.1,0,1.3,0.5
		c0.7,1.5,1.7,2.8,3,3.8c0.4,0.3,0.5,1,0.2,1.4C39.3,76,39,76.1,38.7,76.1z M34.2,67.1c-0.5,0-1-0.4-1-0.9c0-0.5-0.1-1-0.1-1.4
		c0-2.7,0.5-4.8,0.6-4.9c0.1-0.5,0.7-0.9,1.2-0.7c0.5,0.1,0.9,0.7,0.7,1.2c0,0-0.5,1.9-0.5,4.4c0,0.4,0,0.8,0,1.3
		C35.3,66.5,34.9,67,34.2,67.1C34.3,67.1,34.3,67.1,34.2,67.1z"/>
	<path fill="#231F20" d="M58.5,30.3c11.1,0,20.1,9,20.1,20.1c0,5.3-2.1,10.1-5.5,13.7c0.1,0.8,0.2,1.5,0.2,2.3
		c0,7.2-5.9,13.1-13.1,13.1c-1.7,0-3.3-0.3-4.8-0.9c-1.9,0.6-3.9,0.9-6,0.9c-2.2,0-4.4-0.4-6.4-1.1c-1.6,0.7-3.3,1.1-5.1,1.1
		c-7.2,0-13.1-5.9-13.1-13.1c0-0.7,0.1-1.3,0.2-2c-3.6-3.6-5.8-8.6-5.8-14.1c0-11.1,9-20.1,20.1-20.1c3.5,0,6.7,0.9,9.6,2.4
		C51.7,31.2,55,30.3,58.5,30.3 M58.5,27.3c-3.3,0-6.6,0.7-9.6,2.1c-3-1.4-6.3-2.1-9.6-2.1c-12.7,0-23.1,10.3-23.1,23.1
		c0,5.6,2,10.9,5.6,15.1c0,0.3,0,0.7,0,1c0,8.9,7.2,16.1,16.1,16.1c1.8,0,3.6-0.3,5.2-0.9c2.1,0.6,4.2,0.9,6.3,0.9
		c2,0,4-0.3,5.9-0.8c1.6,0.5,3.2,0.8,4.9,0.8c8.9,0,16.1-7.2,16.1-16.1c0-0.5,0-0.9-0.1-1.4c3.4-4.1,5.3-9.3,5.3-14.7
		C81.5,37.7,71.2,27.3,58.5,27.3L58.5,27.3z"/>
	<g>
		<path fill="#FFF100" d="M63.6,43.2c0,6.9-4.9,12.7-11.4,14.1c0.1,1.3,0.4,2.6,0.9,3.8c1.7,0.7,3.5,1.1,5.4,1.1
			c7.9,0,14.4-6.4,14.4-14.4c0-1.8-0.3-3.5-0.9-5.1c-1.7-0.7-3.5-1.1-5.4-1.1c-1,0-2,0.1-3,0.3C63.5,42.3,63.6,42.8,63.6,43.2z"/>
		<path fill="#FFF100" d="M34.2,43.2c0,6.9,4.9,12.7,11.4,14.1c-0.1,1.3-0.4,2.6-0.9,3.8c-1.7,0.7-3.5,1.1-5.4,1.1
			c-7.9,0-14.4-6.4-14.4-14.4c0-1.8,0.3-3.5,0.9-5.1c1.7-0.7,3.5-1.1,5.4-1.1c1,0,2,0.1,3,0.3C34.2,42.3,34.2,42.8,34.2,43.2z"/>
	</g>
	<circle fill="#FFF100" cx="49.1" cy="70.9" r="4.4"/>
	<g>
		<path fill="#231F20" d="M58.5,63.6c-2.1,0-4.1-0.4-6-1.2c-0.4-0.2-0.7-0.5-0.8-0.9c-0.5-1.4-0.8-2.8-1-4.2
			c-0.1-0.8,0.4-1.5,1.2-1.6c5.9-1.2,10.2-6.5,10.2-12.6c0-0.4,0-0.8-0.1-1.2c-0.1-0.8,0.4-1.4,1.2-1.6c3.1-0.7,6.4-0.4,9.3,0.8
			c0.4,0.2,0.7,0.5,0.8,0.9c0.7,1.8,1,3.7,1,5.6C74.4,56.5,67.2,63.6,58.5,63.6z M54.2,59.9c1.4,0.5,2.8,0.7,4.3,0.7
			c7.1,0,12.9-5.8,12.9-12.9c0-1.3-0.2-2.6-0.6-3.9c-1.8-0.6-3.7-0.9-5.7-0.6c0,0,0,0,0,0c0,7-4.6,13.2-11.2,15.2
			C53.9,58.9,54.1,59.4,54.2,59.9z"/>
		<path fill="#231F20" d="M39.3,63.6c-8.8,0-15.9-7.1-15.9-15.9c0-1.9,0.4-3.8,1-5.6c0.1-0.4,0.5-0.7,0.8-0.9
			c2.9-1.2,6.2-1.5,9.3-0.8c0.7,0.2,1.3,0.8,1.2,1.6c0,0.4-0.1,0.8-0.1,1.2c0,6.1,4.3,11.4,10.2,12.6c0.7,0.2,1.3,0.8,1.2,1.6
			c-0.1,1.4-0.5,2.8-1,4.2c-0.1,0.4-0.4,0.7-0.8,0.9C43.4,63.2,41.3,63.6,39.3,63.6z M27,43.8c-0.4,1.3-0.6,2.6-0.6,3.9
			c0,7.1,5.8,12.9,12.9,12.9c1.5,0,2.9-0.2,4.3-0.7c0.2-0.5,0.3-1,0.4-1.5c-6.6-2-11.2-8.2-11.2-15.2c0,0,0,0,0,0
			C30.8,42.9,28.8,43.2,27,43.8z"/>
	</g>
	<path fill="#231F20" d="M49.1,76.9c-3.3,0-5.9-2.7-5.9-5.9s2.7-5.9,5.9-5.9c3.3,0,5.9,2.7,5.9,5.9S52.3,76.9,49.1,76.9z M49.1,68
		c-1.6,0-2.9,1.3-2.9,2.9s1.3,2.9,2.9,2.9c1.6,0,2.9-1.3,2.9-2.9S50.7,68,49.1,68z"/>
	<path fill="#231F20" d="M30.7,43.1c-0.6,0-1-0.4-1-1c0-1.3,0.2-2.5,0.6-3.6c0.2-0.5,0.8-0.8,1.3-0.6c0.5,0.2,0.8,0.8,0.6,1.3
		c-0.3,0.9-0.5,1.8-0.5,2.9C31.7,42.7,31.3,43.1,30.7,43.1z M34.2,36c-0.3,0-0.6-0.2-0.8-0.4c-0.3-0.5-0.2-1.1,0.3-1.4
		c2.8-1.9,6-2,6.2-2.1c0.5,0,1,0.4,1,1c0,0.6-0.4,1-1,1c-0.1,0-2.8,0.1-5.1,1.7C34.6,35.9,34.4,36,34.2,36z"/>
	<path fill="#231F20" d="M67.2,43.1C67.2,43.1,67.2,43.1,67.2,43.1c-0.6,0-1-0.4-1-1c0-1.1-0.2-2.1-0.5-3c-0.2-0.5,0.1-1.1,0.6-1.3
		c0.5-0.2,1.1,0.1,1.3,0.6c0.4,1.1,0.6,2.3,0.6,3.7C68.2,42.7,67.8,43.1,67.2,43.1z M63.6,36c-0.2,0-0.4-0.1-0.5-0.2
		c-2.3-1.5-5.1-1.5-5.2-1.5c-0.6,0-1-0.5-1-1c0-0.6,0.4-1,1-1c0.1,0,3.4,0,6.2,1.8c0.5,0.3,0.6,0.9,0.3,1.4
		C64.2,35.8,63.9,36,63.6,36z"/>
	<path fill="#231F20" d="M48.7,51.1c-0.6,0-1-0.4-1-1v-2c0-0.6,0.4-1,1-1s1,0.4,1,1v2C49.7,50.7,49.3,51.1,48.7,51.1z M48.7,44.1
		c-0.6,0-1-0.4-1-1v-6c0-0.6,0.4-1,1-1s1,0.4,1,1v6C49.7,43.7,49.3,44.1,48.7,44.1z"/>
</g>
</svg>
