<?xml version="1.0" encoding="utf-8"?>
<!-- Generator: Adobe Illustrator 19.1.0, SVG Export Plug-In . SVG Version: 6.00 Build 0)  -->
<svg version="1.1" id="Layer_1" xmlns="http://www.w3.org/2000/svg" xmlns:xlink="http://www.w3.org/1999/xlink" x="0px" y="0px"
	 viewBox="0 0 100 100" enable-background="new 0 0 100 100" xml:space="preserve">
<g>
	<path fill="#AA90C3" d="M84.8,47.7c0-2-0.4-3.8-1.1-5.6c-2.6-2.1-6-3.4-9.7-3.4c-2.5,0-4.9,0.6-7,1.7c-4.2-1.8-9.1-2.8-14.4-2.8
		c-5.4,0-10.3,1-14.5,2.8c-2.4-1.6-5.4-2.6-8.6-2.6c-2,0-3.8,0.4-5.6,1.1c-2.1,2.6-3.4,6-3.4,9.7c0,4.6,2.1,8.8,5.3,11.6
		c1,12.7,12.6,22.7,26.7,22.7c14.5,0,26.3-10.5,26.8-23.6C82.8,56.5,84.8,52.3,84.8,47.7z"/>
	<path fill="#231F20" d="M48.8,84.4c-14.6,0-26.8-10.3-28.2-23.5c-3.4-3.2-5.4-7.7-5.4-12.3c0-3.8,1.3-7.6,3.7-10.6
		c0.2-0.2,0.4-0.4,0.6-0.5c4.9-1.9,10.4-1.4,14.8,1.3c4.2-1.7,9.1-2.6,14.4-2.6c5.2,0,10.2,0.9,14.3,2.6c2.2-1,4.6-1.5,7-1.5
		c3.8,0,7.6,1.3,10.6,3.7c0.2,0.2,0.4,0.4,0.5,0.6c0.8,2,1.2,4,1.2,6.1c0,4.6-1.9,9.1-5.3,12.3C76.2,73.7,63.9,84.4,48.8,84.4z
		 M21.1,40.2c-1.9,2.4-2.8,5.3-2.8,8.4c0,4,1.7,7.8,4.8,10.5c0.3,0.3,0.5,0.6,0.5,1c0.9,12,12,21.3,25.3,21.3
		c13.7,0,24.9-9.7,25.3-22.2c0-0.4,0.2-0.8,0.5-1.1c3-2.6,4.8-6.4,4.8-10.4c0-1.6-0.3-3.1-0.8-4.7c-2.4-1.9-5.3-2.8-8.4-2.8
		c-2.2,0-4.3,0.5-6.3,1.5c-0.4,0.2-0.9,0.2-1.3,0c-3.9-1.7-8.7-2.6-13.8-2.6c-5.1,0-10,0.9-13.9,2.7c-0.5,0.2-1,0.2-1.4-0.1
		C29.8,39.3,25.2,38.7,21.1,40.2z"/>
	<g>
		<path fill="#FFF100" d="M52.8,55.8c0,1,0.2,2,0.5,2.9c1.4,1.1,3.1,1.8,5,1.8c4.4,0,8-3.6,8-8c0-1-0.2-2-0.5-2.9
			c-1.4-1.1-3.1-1.8-5-1.8C56.3,47.9,52.8,51.4,52.8,55.8z"/>
		<path fill="#FFF100" d="M44.8,55.8c0,1-0.2,2-0.5,2.9c-1.4,1.1-3.1,1.8-5,1.8c-4.4,0-8-3.6-8-8c0-1,0.2-2,0.5-2.9
			c1.4-1.1,3.1-1.8,5-1.8C41.2,47.9,44.8,51.4,44.8,55.8z"/>
	</g>
	<g>
		<path fill="#231F20" d="M58.3,62c-2.1,0-4.3-0.7-5.9-2.1c-0.2-0.2-0.4-0.4-0.5-0.6c-0.4-1.1-0.6-2.3-0.6-3.4
			c0-5.2,4.2-9.5,9.5-9.5c2.1,0,4.3,0.7,5.9,2.1c0.2,0.2,0.4,0.4,0.5,0.6c0.4,1.1,0.6,2.3,0.6,3.4C67.8,57.7,63.5,62,58.3,62z
			 M54.6,57.8c1.1,0.8,2.4,1.2,3.7,1.2c3.6,0,6.5-2.9,6.5-6.5c0-0.7-0.1-1.3-0.3-2c-1.1-0.8-2.4-1.2-3.7-1.2c-3.6,0-6.5,2.9-6.5,6.5
			C54.3,56.5,54.4,57.1,54.6,57.8z"/>
		<path fill="#231F20" d="M39.3,62c-5.2,0-9.5-4.2-9.5-9.5c0-1.2,0.2-2.3,0.6-3.4c0.1-0.2,0.3-0.5,0.5-0.6c1.7-1.4,3.8-2.1,5.9-2.1
			c5.2,0,9.5,4.2,9.5,9.5c0,1.2-0.2,2.3-0.6,3.4c-0.1,0.2-0.3,0.5-0.5,0.6C43.5,61.2,41.4,62,39.3,62z M33.1,50.6
			c-0.2,0.6-0.3,1.3-0.3,2c0,3.6,2.9,6.5,6.5,6.5c1.4,0,2.6-0.4,3.7-1.2c0.2-0.6,0.3-1.3,0.3-2c0-3.6-2.9-6.5-6.5-6.5
			C35.5,49.4,34.2,49.8,33.1,50.6z"/>
	</g>
	<g>
		<path fill="#231F20" d="M44.2,76.5c-3.3,0-6-2.7-6-6c0-0.8,0.7-1.5,1.5-1.5s1.5,0.7,1.5,1.5c0,1.7,1.3,3,3,3c1.7,0,3.1-1.4,3.1-3
			c0-0.8,0.7-1.5,1.5-1.5s1.5,0.7,1.5,1.5C50.3,73.8,47.5,76.5,44.2,76.5z"/>
		<path fill="#231F20" d="M53.4,76.5c-3.3,0-6.1-2.7-6.1-6v-3c0-0.8,0.7-1.5,1.5-1.5s1.5,0.7,1.5,1.5v3c0,1.6,1.4,3,3.1,3
			c1.7,0,3-1.3,3-3c0-0.8,0.7-1.5,1.5-1.5s1.5,0.7,1.5,1.5C59.4,73.8,56.7,76.5,53.4,76.5z"/>
	</g>
	<path fill="#231F20" d="M52.7,65.6c0,2.1-1.7,3.9-3.9,3.9s-3.9-1.7-3.9-3.9s1.7-2.5,3.9-2.5S52.7,63.5,52.7,65.6z"/>
	<g>
		<path fill="#231F20" d="M29.2,45.2c-0.4,0-0.7-0.2-0.9-0.5c-0.9-1.7-3-1.5-3.1-1.5c-0.6,0.1-1-0.3-1.1-0.9c-0.1-0.5,0.3-1,0.9-1.1
			c0.1,0,3.6-0.4,5.1,2.5c0.3,0.5,0.1,1.1-0.4,1.3C29.5,45.1,29.3,45.2,29.2,45.2z"/>
		<path fill="#231F20" d="M68.4,46.2c-0.2,0-0.3,0-0.5-0.1c-0.5-0.3-0.7-0.9-0.4-1.3c1.5-2.9,5-2.6,5.1-2.5c0.5,0.1,0.9,0.6,0.9,1.1
			c-0.1,0.5-0.6,0.9-1.1,0.9c-0.1,0-2.2-0.2-3.1,1.5C69.1,46,68.8,46.2,68.4,46.2z"/>
	</g>
	<g>
		<path fill="#231F20" d="M31.9,70.2c-0.4,0-0.7-0.2-0.9-0.6c-0.2-0.5,0-1.1,0.5-1.3l4.5-2l-5-1.5c-0.5-0.2-0.8-0.7-0.7-1.2
			c0.2-0.5,0.7-0.8,1.2-0.7l7.6,2.2c0.4,0.1,0.7,0.5,0.7,0.9s-0.2,0.8-0.6,1l-7,3.1C32.2,70.1,32,70.2,31.9,70.2z"/>
		<path fill="#231F20" d="M65.7,70.2c-0.1,0-0.3,0-0.4-0.1l-7-3.1c-0.4-0.2-0.6-0.6-0.6-1s0.3-0.8,0.7-0.9l7.6-2.2
			c0.5-0.2,1.1,0.1,1.2,0.7c0.2,0.5-0.1,1.1-0.7,1.2l-5,1.5l4.5,2c0.5,0.2,0.7,0.8,0.5,1.3C66.4,69.9,66,70.2,65.7,70.2z"/>
	</g>
</g>
</svg>
