<?xml version="1.0" encoding="utf-8"?>
<!-- Generator: Adobe Illustrator 19.1.0, SVG Export Plug-In . SVG Version: 6.00 Build 0)  -->
<svg version="1.1" id="Layer_1" xmlns="http://www.w3.org/2000/svg" xmlns:xlink="http://www.w3.org/1999/xlink" x="0px" y="0px"
	 viewBox="0 0 100 100" enable-background="new 0 0 100 100" xml:space="preserve">
<g>
	<linearGradient id="SVGID_1_" gradientUnits="userSpaceOnUse" x1="52.1252" y1="83.0818" x2="52.1252" y2="22.4142">
		<stop  offset="0" style="stop-color:#F6921E"/>
		<stop  offset="0.3442" style="stop-color:#F7951D"/>
		<stop  offset="0.5983" style="stop-color:#F89E1A"/>
		<stop  offset="0.8228" style="stop-color:#FBAE14"/>
		<stop  offset="1" style="stop-color:#FFC10E"/>
	</linearGradient>
	<path fill="url(#SVGID_1_)" d="M84.8,57.5c0-12.7-10.2-23-23.1-23.9c-2.9-1.2-6.1-1.9-9.4-1.9c-3.3,0-6.5,0.7-9.4,1.9
		c-13,0.8-23.4,11.2-23.4,23.9c0,13.1,10.9,23.7,24.4,24c2.6,0.9,5.4,1.5,8.3,1.5c2.9,0,5.7-0.5,8.3-1.5C74,81,84.8,70.5,84.8,57.5z
		"/>
	<path fill="#231F20" d="M34.1,60.1c-0.5,0-0.9-0.4-1-0.9c-1.4-11.8,6.5-21.1,6.8-21.5c0.4-0.4,1-0.5,1.4-0.1s0.5,1,0.1,1.4
		c-0.1,0.1-7.7,9-6.4,19.9c0.1,0.5-0.3,1-0.9,1.1C34.2,60.1,34.1,60.1,34.1,60.1z"/>
	<path fill="#231F20" d="M62.7,64.4C62.7,64.4,62.7,64.4,62.7,64.4c-0.6,0-1-0.5-1-1C62,48.7,50.8,37.7,50.6,37.6
		c-0.4-0.4-0.4-1,0-1.4c0.4-0.4,1-0.4,1.4,0c0.5,0.5,12,11.7,11.7,27.3C63.7,64,63.2,64.4,62.7,64.4z"/>
	<g>
		<path fill="#8BC53F" d="M49,30.4c0.4,0,0.7,0,1.1,0c0.4-8.5,3.7-6.8,5.7-8.3c0.7-0.5,1.1-1.5,0.7-2.3c-0.3-0.5-0.7-0.8-1.2-0.9
			c-0.6-0.2-1.3,0.1-1.8,0.5c-9.4,6.2-5.7,9-5.6,11.1C48.2,30.5,48.6,30.4,49,30.4z"/>
	</g>
	<path fill="#231F20" d="M53,19.3c0.1,0,0.3,0,0.4,0.1c0.4,0.1,0.9,0.4,1.1,0.9c0.4,0.7,0.1,1.7-0.6,2.2C52,23.8,49.1,22,48.7,30
		c-0.3,0-0.7,0-1,0c-0.4,0-0.7,0-1.1,0c-0.8-2.1-2.7-4.8,5.1-10.2C52.1,19.5,52.5,19.3,53,19.3 M53,16.3L53,16.3c-1,0-2,0.3-3,1
		c-8.1,5.6-7.9,9.7-6.4,13.3c0.1,0.1,0.1,0.3,0.2,0.4l0.8,2.1l2.2-0.1c0.3,0,0.6,0,0.9,0c0.3,0,0.6,0,0.9,0l3,0.2l0.2-3
		c0.2-3.3,0.8-4,0.8-4c0.1-0.1,0.4-0.2,0.7-0.2c0.7-0.2,1.6-0.4,2.5-1.1c1.9-1.4,2.6-3.9,1.6-6c-0.6-1.1-1.6-2-2.9-2.4
		C53.9,16.4,53.4,16.3,53,16.3L53,16.3z"/>
	<path fill="#231F20" d="M49.2,84.4c-2.9,0-5.8-0.5-8.6-1.5C26.5,82.5,15,71.1,15,57.5C15,44.1,25.7,33,39.5,32.1
		c6.2-2.5,13.3-2.5,19.5,0c13.6,1.1,24.3,12.2,24.3,25.4c0,13.8-11.1,24.9-25.4,25.5C55.1,83.9,52.2,84.4,49.2,84.4z M49.2,33.2
		c-3,0-6,0.6-8.8,1.8L40.2,35l-0.3,0C27.6,35.8,18,45.6,18,57.5c0,12.1,10.3,22.2,22.9,22.5l0.2,0l0.2,0.1c5,1.8,10.6,1.8,15.7,0
		l0.2-0.1l0.2,0c12.7-0.4,22.7-10.2,22.7-22.5c0-11.7-9.5-21.6-21.7-22.4l-0.2,0l-0.2-0.1C55.2,33.8,52.3,33.2,49.2,33.2z"/>
	<g>
		<path fill="#FFF100" d="M49.5,70.2c-13.9,0-25.4-6.4-26.8-17.3c-0.1,0.8-0.2,1.6-0.2,2.4c0,11.9,12.1,21.6,27,21.6s27-9.7,27-21.6
			c0-0.8-0.1-1.6-0.2-2.4C74.9,63.7,63.4,70.2,49.5,70.2z"/>
	</g>
	<g>
		<path fill="#231F20" d="M49.5,78.4C33.8,78.4,21,68,21,55.3c0-0.8,0.1-1.7,0.2-2.6c0.1-0.7,0.7-1.3,1.5-1.3s1.4,0.6,1.5,1.3
			c1.3,9.5,11.5,16,25.3,16s24-6.4,25.3-16c0.1-0.7,0.7-1.3,1.5-1.3l0,0c0.8,0,1.4,0.6,1.5,1.3c0.1,0.9,0.2,1.7,0.2,2.6
			C78,68,65.2,78.4,49.5,78.4z M26,63.1c3.9,7.2,12.9,12.3,23.5,12.3S69.1,70.3,73,63.1c-5,5.3-13.4,8.5-23.5,8.5S31,68.5,26,63.1z"
			/>
	</g>
	<ellipse transform="matrix(0.9546 0.2978 -0.2978 0.9546 16.4013 -8.8112)" fill="#FFF100" cx="37.1" cy="49.4" rx="6" ry="7.6"/>
	
		<ellipse transform="matrix(0.9521 -0.3058 0.3058 0.9521 -12.3366 20.0773)" fill="#FFF100" cx="57.9" cy="49.4" rx="9.2" ry="11.6"/>
	<path fill="#231F20" d="M36.3,58.4c-0.6,0-1.3-0.1-1.9-0.3c-2-0.6-3.5-2.1-4.3-4.3c-0.8-2-0.8-4.4-0.1-6.6c0.7-2.2,2.1-4.2,3.9-5.4
		c1.9-1.3,4-1.7,6-1c2,0.6,3.5,2.1,4.3,4.3c0.8,2,0.8,4.4,0.1,6.6c-0.7,2.2-2.1,4.2-3.9,5.4C39.1,57.9,37.7,58.4,36.3,58.4z
		 M37.9,43.5c-0.8,0-1.6,0.3-2.4,0.8c-1.2,0.8-2.2,2.2-2.7,3.8s-0.5,3.3,0,4.6c0.5,1.3,1.3,2.1,2.4,2.5c1.1,0.3,2.3,0.1,3.4-0.7
		c1.2-0.8,2.2-2.2,2.7-3.8l0,0c0.5-1.6,0.5-3.3,0-4.6c-0.5-1.3-1.3-2.1-2.4-2.5C38.6,43.5,38.3,43.5,37.9,43.5z"/>
	<path fill="#231F20" d="M59.2,62.4c-2,0-3.9-0.6-5.8-1.9c-2.6-1.7-4.6-4.5-5.7-7.8c-2.2-6.9,0.6-14,6.2-15.8
		c5.6-1.8,12,2.3,14.2,9.2c0,0,0,0,0,0c2.2,6.9-0.6,14-6.2,15.8C61,62.2,60.1,62.4,59.2,62.4z M56.6,39.5c-0.6,0-1.2,0.1-1.8,0.3
		c-4.1,1.3-6,6.7-4.2,12c0.8,2.6,2.4,4.9,4.5,6.2c1.9,1.3,4.1,1.7,6,1.1c4.1-1.3,6-6.7,4.2-12C63.8,42.5,60.2,39.5,56.6,39.5z"/>
</g>
</svg>
