<?xml version="1.0" encoding="utf-8"?>
<!-- Generator: Adobe Illustrator 19.2.1, SVG Export Plug-In . SVG Version: 6.00 Build 0)  -->
<!DOCTYPE svg PUBLIC "-//W3C//DTD SVG 1.1//EN" "http://www.w3.org/Graphics/SVG/1.1/DTD/svg11.dtd">
<svg version="1.1" id="Food_Icons" xmlns="http://www.w3.org/2000/svg" xmlns:xlink="http://www.w3.org/1999/xlink" x="0px" y="0px"
	 width="800px" height="600px" viewBox="0 0 800 600" enable-background="new 0 0 800 600" xml:space="preserve">
<g id="_x31_">
	<g>
		<path fill="#B9DA95" d="M209.734,142.412v2.605c0,0.843-0.68,1.523-1.513,1.523H141.65c-0.841,0-1.523-0.682-1.523-1.523v-2.606
			c0-0.833,0.68-1.513,1.523-1.513h66.571C209.053,140.898,209.734,141.579,209.734,142.412z"/>
	</g>
	<g>
		<path d="M208.221,148.479H141.65c-1.909,0-3.462-1.553-3.462-3.462v-2.605c0-1.904,1.553-3.452,3.462-3.452h66.571
			c1.904,0,3.452,1.549,3.452,3.452v2.605C211.673,146.926,210.124,148.479,208.221,148.479z M142.066,144.602h65.73v-1.765h-65.73
			V144.602z"/>
	</g>
	<g>
		<path fill="#F47A59" d="M209.673,108.778v2.605c0,0.843-0.68,1.523-1.513,1.523h-66.571c-0.841,0-1.523-0.682-1.523-1.523v-2.606
			c0-0.833,0.68-1.513,1.523-1.513h66.571C208.992,107.265,209.673,107.946,209.673,108.778z"/>
	</g>
	<g>
		<path fill="#F47A59" d="M205.141,108.778v2.605c0,0.843-0.68,1.523-1.513,1.523H146.12c-0.841,0-1.523-0.682-1.523-1.523v-2.606
			c0-0.833,0.68-1.513,1.523-1.513h57.508C204.46,107.265,205.141,107.946,205.141,108.778z"/>
	</g>
	<g>
		<path d="M208.159,114.845h-66.571c-1.908,0-3.461-1.553-3.461-3.461v-2.606c0-1.904,1.553-3.452,3.461-3.452h66.571
			c1.904,0,3.452,1.549,3.452,3.452v2.606C211.611,113.292,210.063,114.845,208.159,114.845z M142.004,110.968h65.729v-1.765
			h-65.729V110.968z"/>
	</g>
	<g>
		<path fill="#A56452" d="M145.81,112.907h58.117c2.643,0,4.785,2.143,4.785,4.785v1.604c0,2.643-2.143,4.785-4.785,4.785H145.81
			c-2.643,0-4.785-2.143-4.785-4.785v-1.604C141.025,115.049,143.168,112.907,145.81,112.907z"/>
	</g>
	<g>
		<path fill="#B2705B" d="M155.098,112.906h39.666c2.643,0,4.785,2.143,4.785,4.785v1.604c0,2.643-2.143,4.785-4.785,4.785h-39.666
			c-2.643,0-4.785-2.143-4.785-4.785v-1.604C150.312,115.049,152.455,112.906,155.098,112.906z"/>
	</g>
	<g>
		<path d="M203.412,126.02h-57.085c-3.993,0-7.24-3.248-7.24-7.24v-0.572c0-3.993,3.248-7.24,7.24-7.24h57.085
			c3.992,0,7.24,3.248,7.24,7.24v0.572C210.652,122.773,207.404,126.02,203.412,126.02z M146.327,114.845
			c-1.854,0-3.363,1.509-3.363,3.363v0.572c0,1.854,1.509,3.363,3.363,3.363h57.085c1.854,0,3.362-1.509,3.362-3.363v-0.572
			c0-1.854-1.508-3.363-3.362-3.363H146.327z"/>
	</g>
	<g>
		<path fill="#F1BA7B" d="M202.078,157.715h-54.294c-2.508,0-4.542-2.033-4.542-4.542v-4.321c0-1.277,1.035-2.312,2.312-2.312
			h58.753c1.277,0,2.312,1.035,2.312,2.312v4.321C206.62,155.682,204.586,157.715,202.078,157.715z"/>
	</g>
	<g>
		<path fill="#FDC784" d="M194.831,157.376h-39.925c-2.508,0-4.542-2.033-4.542-4.542v-3.642c0-1.277,1.035-2.312,2.312-2.312
			h44.383c1.277,0,2.312,1.035,2.312,2.312v3.642C199.373,155.342,197.34,157.376,194.831,157.376z"/>
	</g>
	<g>
		<path d="M201.588,159.654h-53.315c-3.843,0-6.971-3.127-6.971-6.97v-3.582c0-2.482,2.019-4.501,4.501-4.501h58.254
			c2.482,0,4.501,2.019,4.501,4.501v3.582C208.558,156.527,205.432,159.654,201.588,159.654z M145.803,148.479
			c-0.344,0-0.623,0.28-0.623,0.623v3.582c0,1.705,1.388,3.093,3.093,3.093h53.315c1.705,0,3.093-1.387,3.093-3.093v-3.582
			c0-0.344-0.28-0.623-0.623-0.623H145.803z"/>
	</g>
	<g>
		<path fill="#F1BA7B" d="M164.451,80.285h20.958c11.714,0,21.21,9.496,21.21,21.21v3.873c0,1.048-0.849,1.897-1.897,1.897h-59.584
			c-1.048,0-1.897-0.849-1.897-1.897v-3.873C143.242,89.781,152.738,80.285,164.451,80.285z"/>
	</g>
	<g>
		<path fill="#FDC784" d="M174.96,84.894h-0.182c12.977,0,23.497,5.911,23.497,18.888v1.381c0,1.161-0.941,2.102-2.102,2.102
			h-42.608c-1.161,0-2.102-0.941-2.102-2.102v-1.381C151.463,90.805,161.983,84.894,174.96,84.894z"/>
	</g>
	<g>
		<path d="M204.518,109.203h-59.175c-2.228,0-4.04-1.813-4.04-4.04v-1.38c0-14.025,11.411-25.436,25.436-25.436h16.383
			c14.025,0,25.436,11.411,25.436,25.436v1.38C208.558,107.39,206.746,109.203,204.518,109.203z M166.739,82.224
			c-11.888,0-21.559,9.671-21.559,21.559v1.38c0,0.09,0.073,0.163,0.163,0.163h59.175c0.09,0,0.163-0.073,0.163-0.163v-1.38
			c0-11.888-9.671-21.559-21.559-21.559H166.739z"/>
	</g>
	<g>
		<path fill="#A56452" d="M208.71,135.068v0.479c0,2.952-2.393,5.345-5.345,5.345h-6.053c-0.869,0-1.683,0.365-2.315,0.962
			c-0.679,0.643-1.6,1.04-2.609,1.04c-1.446,0-2.701-0.814-3.343-2.002c-0.287-0.536-0.45-1.149-0.45-1.791v3.592
			c0,2.086-1.707,3.793-3.793,3.793h0c-2.09,0-3.784-1.694-3.784-3.784v0c0-1-0.811-1.81-1.81-1.81h-32.835
			c-2.952,0-5.345-2.393-5.345-5.345v-0.479c0-2.952,2.393-5.345,5.345-5.345h56.992C206.317,129.723,208.71,132.116,208.71,135.068
			z"/>
	</g>
	<g>
		<path fill="#FFF2BC" d="M196.146,97.53c-0.497,0-0.993-0.189-1.371-0.568l-1.197-1.198c-0.757-0.757-0.757-1.985,0.001-2.742
			c0.758-0.756,1.986-0.756,2.742,0.001l1.197,1.198c0.757,0.757,0.757,1.985-0.001,2.742
			C197.139,97.34,196.643,97.53,196.146,97.53z"/>
	</g>
	<g>
		<path fill="#FFF2BC" d="M153.711,97.53c-0.496,0-0.992-0.189-1.371-0.568c-0.757-0.757-0.757-1.985,0-2.741l1.198-1.198
			c0.757-0.757,1.984-0.757,2.741,0c0.757,0.757,0.757,1.985,0,2.741l-1.198,1.198C154.704,97.34,154.208,97.53,153.711,97.53z"/>
	</g>
	<g>
		<path fill="#FFF2BC" d="M175.529,90.746c-0.497,0-0.993-0.189-1.371-0.568l-1.197-1.198c-0.757-0.757-0.757-1.985,0.001-2.742
			c0.758-0.756,1.985-0.756,2.742,0.001l1.197,1.198c0.757,0.757,0.757,1.985-0.001,2.742
			C176.521,90.557,176.025,90.746,175.529,90.746z"/>
	</g>
	<g>
		<path fill="#FFF2BC" d="M183.598,102.477c-0.496,0-0.992-0.189-1.371-0.568c-0.757-0.757-0.757-1.985,0-2.741l1.197-1.197
			c0.757-0.757,1.984-0.757,2.741,0c0.757,0.757,0.757,1.985,0,2.741l-1.197,1.197C184.59,102.288,184.094,102.477,183.598,102.477z
			"/>
	</g>
	<g>
		<path fill="#FFF2BC" d="M166.26,102.477c-0.496,0-0.992-0.189-1.371-0.568l-1.197-1.197c-0.757-0.757-0.757-1.985,0-2.741
			c0.757-0.757,1.984-0.757,2.741,0l1.197,1.197c0.757,0.757,0.757,1.985,0,2.741C167.252,102.288,166.756,102.477,166.26,102.477z"
			/>
	</g>
	<g>
		<path d="M162.908,126.02c-0.496,0-0.992-0.189-1.371-0.568c-0.757-0.757-0.757-1.985,0-2.741l2.714-2.714
			c0.757-0.757,1.984-0.757,2.741,0c0.757,0.757,0.757,1.985,0,2.741l-2.714,2.714C163.9,125.831,163.404,126.02,162.908,126.02z"/>
	</g>
	<g>
		<path d="M184.117,126.02c-0.496,0-0.992-0.189-1.371-0.568c-0.757-0.757-0.757-1.985,0-2.741l2.714-2.714
			c0.757-0.757,1.984-0.757,2.741,0c0.757,0.757,0.757,1.985,0,2.741l-2.714,2.714C185.109,125.831,184.613,126.02,184.117,126.02z"
			/>
	</g>
	<g>
		<path d="M155.017,117.559c-0.496,0-0.992-0.189-1.371-0.568l-2.714-2.714c-0.757-0.757-0.757-1.985,0-2.741
			c0.757-0.757,1.984-0.757,2.741,0l2.714,2.714c0.757,0.757,0.757,1.985,0,2.741C156.009,117.37,155.513,117.559,155.017,117.559z"
			/>
	</g>
	<g>
		<path d="M176.226,117.559c-0.496,0-0.992-0.189-1.371-0.568l-2.714-2.714c-0.757-0.757-0.757-1.985,0-2.741
			c0.757-0.757,1.984-0.757,2.741,0l2.714,2.714c0.757,0.757,0.757,1.985,0,2.741C177.218,117.37,176.722,117.559,176.226,117.559z"
			/>
	</g>
	<g>
		<path d="M197.435,117.559c-0.496,0-0.992-0.189-1.371-0.568l-2.714-2.714c-0.757-0.757-0.757-1.985,0-2.741
			c0.757-0.757,1.984-0.757,2.741,0l2.714,2.714c0.757,0.757,0.757,1.985,0,2.741C198.427,117.37,197.931,117.559,197.435,117.559z"
			/>
	</g>
	<g>
		<path d="M184.117,134.376c-0.496,0-0.992-0.189-1.371-0.568c-0.757-0.757-0.757-1.985,0-2.741l2.714-2.714
			c0.757-0.757,1.984-0.757,2.741,0c0.757,0.757,0.757,1.985,0,2.741l-2.714,2.714C185.109,134.187,184.613,134.376,184.117,134.376
			z"/>
	</g>
	<g>
		<path fill="#B2705B" d="M155.552,129.723h38.634c2.928,0,5.302,2.374,5.302,5.302v0.572c0,2.928-2.374,5.301-5.302,5.301h-5.591
			l0.046,1.471c0.07,2.257-1.732,4.129-3.99,4.144h0c-2.246,0.015-4.068-1.813-4.045-4.059l0.015-1.556h-25.068
			c-2.928,0-5.302-2.374-5.302-5.301v-0.572C150.25,132.097,152.624,129.723,155.552,129.723z"/>
	</g>
	<g>
		<path d="M176.226,142.837c-0.496,0-0.992-0.189-1.371-0.568l-2.714-2.714c-0.757-0.757-0.757-1.985,0-2.741
			c0.757-0.757,1.984-0.757,2.741,0l2.714,2.714c0.757,0.757,0.757,1.985,0,2.741C177.218,142.648,176.722,142.837,176.226,142.837z
			"/>
	</g>
	<g>
		<path d="M155.017,142.837c-0.496,0-0.992-0.189-1.371-0.568l-2.714-2.714c-0.757-0.757-0.757-1.985,0-2.741
			c0.757-0.757,1.984-0.757,2.741,0l2.714,2.714c0.757,0.757,0.757,1.985,0,2.741C156.009,142.648,155.513,142.837,155.017,142.837z
			"/>
	</g>
	<g>
		<path d="M184.802,148.424c-3.113,0-5.652-2.498-5.72-5.594h-32.708c-4.016,0-7.284-3.267-7.284-7.284v-0.479
			c0-4.016,3.267-7.283,7.284-7.283h56.992c4.016,0,7.283,3.267,7.283,7.283v0.479c0,4.016-3.267,7.283-7.283,7.283h-6.054
			c-0.339,0-0.688,0.153-0.981,0.431c-1.071,1.014-2.47,1.571-3.943,1.571c-0.739,0-1.458-0.142-2.122-0.408
			C189.53,146.741,187.359,148.424,184.802,148.424z M146.373,131.662c-1.878,0-3.406,1.528-3.406,3.406v0.479
			c0,1.878,1.528,3.406,3.406,3.406h32.835c2.067,0,3.749,1.682,3.749,3.749c0,1.017,0.828,1.845,1.845,1.845
			c1.022,0,1.854-0.832,1.854-1.854v-3.592c0-1.071,0.868-1.939,1.939-1.939c1.071,0,1.939,0.868,1.939,1.939
			c0,0.303,0.076,0.606,0.22,0.874c0.554,1.026,2.069,1.269,2.911,0.471c1.016-0.962,2.311-1.493,3.647-1.493h6.054
			c1.878,0,3.406-1.528,3.406-3.406v-0.479c0-1.878-1.528-3.406-3.406-3.406H146.373z"/>
	</g>
	<g>
		<path fill="#FFD074" d="M209.673,125.595v2.605c0,0.843-0.68,1.523-1.513,1.523h-40.43c-1.742,0-3.413,0.692-4.645,1.924
			l-1.603,1.603c-1.078,1.078-2.826,1.079-3.906,0.002l-1.612-1.609c-1.232-1.229-2.901-1.92-4.641-1.92h-9.735
			c-0.841,0-1.523-0.682-1.523-1.523v-2.606c0-0.833,0.68-1.513,1.523-1.513h66.571
			C208.992,124.081,209.673,124.762,209.673,125.595z"/>
	</g>
	<g>
		<path d="M159.527,135.996c-1.202,0-2.406-0.457-3.321-1.372l-1.611-1.609c-0.874-0.873-2.036-1.353-3.271-1.353h-9.735
			c-1.908,0-3.461-1.553-3.461-3.462v-2.606c0-1.903,1.553-3.452,3.461-3.452h66.571c1.904,0,3.452,1.549,3.452,3.452v2.605
			c0,1.909-1.549,3.462-3.452,3.462h-40.43c-1.237,0-2.4,0.481-3.274,1.356l-1.603,1.603
			C161.935,135.538,160.731,135.996,159.527,135.996z M142.004,127.785h9.319c2.27,0,4.404,0.883,6.01,2.487l1.611,1.609
			c0.322,0.322,0.845,0.32,1.165-0.001l1.603-1.603c1.607-1.607,3.743-2.492,6.015-2.492h40.005v-1.765h-65.729V127.785z"/>
	</g>
</g>
<g id="_x32_">
	<g>
		<g>
			<path fill="#FFDB92" d="M312.044,104.019c-0.496,0-0.992-0.189-1.371-0.568c-0.757-0.757-0.757-1.985,0-2.741
				c0.195-0.195,0.376-0.4,0.541-0.612c0.659-0.845,1.878-0.995,2.721-0.338c0.844,0.658,0.996,1.876,0.338,2.721
				c-0.263,0.337-0.552,0.664-0.858,0.97C313.036,103.829,312.54,104.019,312.044,104.019z"/>
		</g>
	</g>
	<g>
		<g>
			<path fill="#B3D08B" d="M301.385,117.645c1.897,3.774,0.375,8.37-3.398,10.267s-8.37,0.375-10.267-3.398
				c-1.897-3.774-2.688-12.972,1.086-14.869C292.579,107.748,299.489,113.871,301.385,117.645z"/>
		</g>
		<g>
			<path d="M294.568,130.664c-3.511,0-6.899-1.934-8.58-5.28c-2.021-4.022-3.382-14.793,1.947-17.472
				c5.332-2.682,13.162,4.84,15.183,8.861v0.001c1.15,2.288,1.34,4.886,0.536,7.317c-0.805,2.43-2.508,4.403-4.796,5.552
				C297.48,130.336,296.013,130.664,294.568,130.664z M290.462,111.211c-0.296,0-0.56,0.053-0.786,0.166
				c-2.201,1.107-2.033,8.667-0.224,12.266c1.415,2.813,4.855,3.95,7.664,2.536c2.813-1.413,3.951-4.852,2.538-7.665v0.001
				C298.029,115.285,293.056,111.211,290.462,111.211z"/>
		</g>
	</g>
	<g>
		<g>
			<path d="M297.988,129.851c-0.71,0-1.393-0.391-1.734-1.069l-4.59-9.133c-0.481-0.956-0.095-2.122,0.862-2.602
				c0.955-0.482,2.122-0.095,2.602,0.862l4.59,9.133c0.481,0.956,0.095,2.122-0.862,2.602
				C298.578,129.785,298.281,129.851,297.988,129.851z"/>
		</g>
	</g>
	<g>
		<g>
			<path fill="#FFE0AE" d="M325.667,116.682c-35.137,0-49.676,18.416-49.676,18.416h99.352
				C375.343,135.098,360.804,116.682,325.667,116.682z"/>
		</g>
		<g>
			<path d="M375.343,137.037h-99.352c-0.743,0-1.421-0.425-1.745-1.093c-0.324-0.669-0.237-1.464,0.223-2.047
				c0.617-0.782,15.531-19.154,51.197-19.154s50.58,18.371,51.198,19.154c0.46,0.583,0.547,1.378,0.223,2.047
				C376.764,136.612,376.086,137.037,375.343,137.037z M280.711,133.159h89.913c-5.9-5.08-20.209-14.539-44.957-14.539
				C300.921,118.621,286.613,128.077,280.711,133.159z"/>
		</g>
	</g>
	<g>
		<g>
			<path fill="#EDEDED" d="M375.749,135.098l-0.766,2.872c-1.551,5.817-6.82,9.865-12.84,9.865h-72.894
				c-5.97,0-11.207-3.981-12.804-9.732l-0.809-2.912L375.749,135.098z"/>
		</g>
	</g>
	<g>
		<g>
			<path fill="#FCFAFB" d="M360.028,135.098l-0.766,2.872c-1.551,5.817-6.82,9.865-12.84,9.865h-41.426
				c-5.97,0-11.207-3.981-12.804-9.732l-0.809-2.912L360.028,135.098z"/>
		</g>
	</g>
	<g>
		<g>
			<path d="M362.143,149.774h-72.894c-6.815,0-12.848-4.586-14.672-11.152l-0.809-2.912c-0.162-0.584-0.042-1.209,0.324-1.692
				c0.366-0.482,0.936-0.765,1.542-0.766l100.114-0.093h0.002c0.602,0,1.17,0.28,1.537,0.757c0.367,0.478,0.492,1.099,0.336,1.682
				l-0.766,2.872C375.082,145.126,369.031,149.774,362.143,149.774z M278.186,137.127l0.127,0.457
				c1.36,4.894,5.857,8.312,10.937,8.312h72.894c5.135,0,9.644-3.465,10.968-8.426l0.115-0.432L278.186,137.127z"/>
		</g>
	</g>
	<g>
		<g>
			<path d="M378.739,137.037H271.788c-1.071,0-1.939-0.868-1.939-1.939c0-1.071,0.868-1.939,1.939-1.939h106.951
				c1.07,0,1.939,0.868,1.939,1.939C380.677,136.169,379.809,137.037,378.739,137.037z"/>
		</g>
	</g>
	<g>
		<g>
			<path fill="#B9DA95" d="M341.648,123.829c-0.552,3.815,2.093,7.355,5.908,7.906c3.815,0.552,7.355-2.093,7.906-5.908
				c0.552-3.815-1.42-12.006-5.235-12.558C346.412,112.717,342.2,120.014,341.648,123.829z"/>
		</g>
		<g>
			<path d="M348.56,133.746c-0.423,0-0.851-0.03-1.282-0.092c-2.357-0.341-4.441-1.58-5.867-3.488
				c-1.426-1.908-2.023-4.257-1.682-6.615c0.332-2.291,1.669-5.341,3.408-7.769c2.302-3.213,4.92-4.786,7.367-4.432
				c5.492,0.794,7.472,10.638,6.876,14.755C356.739,130.54,352.917,133.746,348.56,133.746z M349.82,115.179
				c-0.711,0-2.007,0.736-3.53,2.862c-1.362,1.901-2.482,4.396-2.724,6.066v0.001c-0.193,1.332,0.144,2.66,0.95,3.738
				c0.806,1.078,1.984,1.779,3.316,1.971c2.753,0.398,5.313-1.516,5.711-4.267c0.505-3.49-1.489-10.057-3.594-10.362
				C349.909,115.181,349.866,115.179,349.82,115.179z"/>
		</g>
	</g>
	<g>
		<g>
			<path d="M347.558,133.674c-0.092,0-0.186-0.006-0.28-0.02c-1.06-0.153-1.795-1.137-1.641-2.196l1.336-9.233
				c0.153-1.06,1.139-1.789,2.196-1.641c1.06,0.153,1.795,1.137,1.641,2.196l-1.336,9.233
				C349.335,132.978,348.506,133.674,347.558,133.674z"/>
		</g>
	</g>
	<g>
		<g>
			<path fill="#FFDB92" d="M325.263,125.89c-33.44,0-49.272,9.208-49.272,9.208h98.544
				C374.535,135.098,358.704,125.89,325.263,125.89z"/>
		</g>
		<g>
			<path d="M374.535,137.037h-98.544c-0.876,0-1.644-0.588-1.872-1.434c-0.228-0.846,0.14-1.74,0.897-2.181
				c0.665-0.387,16.67-9.471,50.247-9.471s49.582,9.084,50.247,9.471c0.757,0.44,1.125,1.334,0.897,2.181
				C376.179,136.449,375.412,137.037,374.535,137.037z M286.015,133.159h78.497c-7.854-2.482-20.87-5.33-39.249-5.33
				C306.887,127.829,293.87,130.677,286.015,133.159z"/>
		</g>
	</g>
	<g>
		<g>
			<path fill="#F47A59" d="M355.832,127.714c-0.496,0-0.992-0.189-1.371-0.568l-1.71-1.71c-0.757-0.757-0.757-1.985,0-2.741
				c0.757-0.757,1.984-0.757,2.741,0l1.71,1.71c0.757,0.757,0.757,1.985,0,2.741C356.824,127.525,356.328,127.714,355.832,127.714z"
				/>
		</g>
	</g>
	<g>
		<g>
			<path fill="#F47A59" d="M295.226,127.714c-0.496,0-0.992-0.189-1.371-0.568c-0.757-0.757-0.757-1.985,0-2.741l1.71-1.71
				c0.757-0.757,1.984-0.757,2.741,0c0.757,0.757,0.757,1.985,0,2.741l-1.71,1.71C296.218,127.525,295.722,127.714,295.226,127.714z
				"/>
		</g>
	</g>
	<g>
		<g>
			<path fill="#F47A59" d="M326.387,122.458c-0.496,0-0.992-0.189-1.371-0.568l-1.71-1.71c-0.757-0.757-0.757-1.985,0-2.741
				c0.757-0.757,1.984-0.757,2.741,0l1.71,1.71c0.757,0.757,0.757,1.985,0,2.741C327.379,122.268,326.883,122.458,326.387,122.458z"
				/>
		</g>
	</g>
	<g>
		<g>
			<path fill="#F47A59" d="M337.91,131.457c-0.496,0-0.992-0.189-1.371-0.568c-0.757-0.757-0.757-1.985,0-2.741l1.71-1.71
				c0.757-0.757,1.984-0.757,2.741,0c0.757,0.757,0.757,1.985,0,2.741l-1.71,1.71C338.902,131.268,338.406,131.457,337.91,131.457z"
				/>
		</g>
	</g>
	<g>
		<g>
			<path fill="#F47A59" d="M313.149,131.457c-0.496,0-0.992-0.189-1.371-0.567l-1.71-1.71c-0.757-0.757-0.757-1.985-0.001-2.742
				c0.757-0.757,1.985-0.757,2.742-0.001l1.71,1.71c0.757,0.757,0.757,1.985,0.001,2.742
				C314.141,131.268,313.645,131.457,313.149,131.457z"/>
		</g>
	</g>
	<g>
		<g>
			
				<path fill="none" stroke="#F3EBC9" stroke-width="3.5" stroke-linecap="round" stroke-linejoin="round" stroke-miterlimit="10" d="
				M329.51,103.438"/>
		</g>
	</g>
	<g>
		<g>
			<path d="M347.269,101.605h-44.011c-1.071,0-1.939-0.868-1.939-1.939s0.868-1.939,1.939-1.939h44.011
				c1.071,0,1.939,0.868,1.939,1.939S348.339,101.605,347.269,101.605z"/>
		</g>
	</g>
	<g>
		<g>
			<path d="M313.267,107.767h-10.009c-1.071,0-1.939-0.868-1.939-1.939s0.868-1.939,1.939-1.939h10.009
				c0.834,0,1.511-0.678,1.511-1.512v-5.423c0-0.834-0.678-1.512-1.511-1.512h-10.009c-1.071,0-1.939-0.868-1.939-1.939
				s0.868-1.939,1.939-1.939h10.009c2.971,0,5.389,2.417,5.389,5.389v5.423C318.655,105.35,316.238,107.767,313.267,107.767z"/>
		</g>
	</g>
	<g>
		<g>
			<path fill="#FFDB92" d="M314.54,98c-1.07,0-1.939-0.868-1.939-1.938c-0.001-1.756-0.684-3.406-1.925-4.647
				c-0.757-0.757-0.757-1.985-0.001-2.742c0.757-0.757,1.985-0.757,2.742-0.001c1.973,1.973,3.061,4.597,3.061,7.388
				C316.479,97.131,315.611,98,314.54,98L314.54,98z"/>
		</g>
	</g>
	<g>
		<g>
			<path fill="#FFDB92" d="M307.533,111.228c-0.496,0-0.992-0.189-1.371-0.568c-1.974-1.973-3.061-4.597-3.061-7.388
				c0-1.071,0.868-1.939,1.939-1.939s1.939,0.868,1.939,1.939c0,1.755,0.684,3.405,1.925,4.647c0.757,0.757,0.757,1.985,0,2.741
				C308.525,111.038,308.029,111.228,307.533,111.228z"/>
		</g>
	</g>
	<g>
		<g>
			<path fill="#FFDB92" d="M306.835,99.983c-0.418,0-0.838-0.134-1.192-0.411c-0.844-0.659-0.994-1.878-0.335-2.721
				c0.265-0.339,0.553-0.665,0.857-0.969c0.757-0.757,1.984-0.757,2.741,0c0.757,0.757,0.757,1.985,0,2.741
				c-0.196,0.196-0.376,0.401-0.543,0.614C307.982,99.727,307.411,99.983,306.835,99.983z"/>
		</g>
	</g>
</g>
<g id="_x33_">
	<g>
		<path fill="#FEF1EE" d="M510.004,113.854c0-3.325-2.699-6.024-6.024-6.024c-3.325,0-6.024,2.699-6.024,6.024h-16.018v10.293
			h16.018c0,3.325,2.699,6.024,6.024,6.024c3.325,0,6.024-2.699,6.024-6.024c0-2.179-1.155-4.093-2.893-5.151
			C508.848,117.946,510.004,116.032,510.004,113.854z"/>
	</g>
	<g>
		<path fill="#EFE2E0" d="M481.937,118.95v5.147h16.018c0,3.325,2.699,6.024,6.024,6.024c3.325,0,6.024-2.699,6.024-6.024
			c0-2.179-1.155-4.093-2.893-5.151L481.937,118.95z"/>
	</g>
	<g>
		<path d="M511.942,113.854c0,1.898-0.689,3.719-1.884,5.137c1.205,1.416,1.884,3.225,1.884,5.156c0,4.391-3.572,7.963-7.963,7.963
			c-3.723,0-6.857-2.567-7.725-6.024h-14.318c-1.071,0-1.939-0.868-1.939-1.939v-10.293c0-1.071,0.868-1.939,1.939-1.939h14.318
			c0.868-3.457,4.002-6.024,7.725-6.024C508.37,105.891,511.942,109.463,511.942,113.854z M483.876,122.208h14.078
			c1.071,0,1.939,0.868,1.939,1.939c0,2.253,1.833,4.086,4.086,4.086c2.252,0,4.085-1.833,4.085-4.086
			c0-1.439-0.734-2.746-1.963-3.495c-0.579-0.353-0.931-0.982-0.93-1.66c0.001-0.678,0.356-1.305,0.937-1.656
			c1.225-0.74,1.956-2.042,1.956-3.483c0-2.253-1.833-4.086-4.085-4.086c-2.254,0-4.086,1.833-4.086,4.086
			c0,1.071-0.868,1.939-1.939,1.939h-14.078V122.208z"/>
	</g>
	<g>
		<path fill="#EDB072" d="M489.341,118.996c0,6.831-4.755,12.54-11.127,14.014c-1.795,0.415-3.484,1.181-4.889,2.373
			c-4.035,3.422-9.353,5.375-15.128,5.046c-10.734-0.613-19.494-9.336-20.158-20.068c-0.771-12.473,9.111-22.825,21.418-22.825
			c5.274,0,10.106,1.901,13.841,5.059c1.416,1.197,3.111,1.978,4.917,2.396C484.587,106.465,489.341,112.173,489.341,118.996z"/>
	</g>
	<g>
		<path fill="#F1BA7B" d="M458.197,140.447c-10.734-0.613-19.494-9.336-20.158-20.068c-0.771-12.473,9.111-22.825,21.418-22.825
			c0,0,8.881,8.683,8.881,21.446S458.197,140.447,458.197,140.447z"/>
	</g>
	<g>
		<path d="M459.454,142.403c-0.454,0-0.91-0.013-1.366-0.039c-11.802-0.674-21.252-10.081-21.983-21.883
			c-0.404-6.539,1.834-12.757,6.301-17.51c4.405-4.686,10.621-7.374,17.053-7.374c5.523,0,10.883,1.959,15.092,5.518
			c1.122,0.948,2.502,1.617,4.102,1.987c7.435,1.72,12.627,8.256,12.627,15.894c0,7.644-5.193,14.183-12.628,15.903
			c-1.604,0.371-2.974,1.031-4.072,1.963C470.335,140.461,465.008,142.403,459.454,142.403z M459.458,99.475
			c-5.445,0-10.497,2.185-14.227,6.152c-3.727,3.965-5.594,9.155-5.256,14.615c0.598,9.682,8.651,17.698,18.332,18.251
			c5.046,0.29,9.934-1.34,13.764-4.588c1.573-1.336,3.493-2.272,5.706-2.784c5.667-1.311,9.624-6.297,9.624-12.125
			c0-5.823-3.957-10.805-9.623-12.116c-2.207-0.511-4.135-1.455-5.732-2.804C468.537,101.109,464.066,99.475,459.458,99.475z"/>
	</g>
	<g>
		<path fill="#FFF2BC" d="M459.374,111.258c-0.497,0-0.992-0.189-1.371-0.567l-1.198-1.197c-0.757-0.757-0.757-1.985,0-2.742
			c0.755-0.757,1.984-0.757,2.741-0.001l1.198,1.197c0.757,0.757,0.757,1.985,0,2.742
			C460.367,111.069,459.87,111.258,459.374,111.258z"/>
	</g>
	<g>
		<path fill="#FFF2BC" d="M467.442,122.99c-0.497,0-0.992-0.189-1.371-0.567c-0.757-0.757-0.757-1.985,0-2.742l1.197-1.197
			c0.755-0.757,1.984-0.757,2.741-0.001c0.757,0.757,0.757,1.985,0,2.742l-1.197,1.197C468.435,122.8,467.939,122.99,467.442,122.99
			z"/>
	</g>
	<g>
		<path fill="#FFF2BC" d="M450.104,122.99c-0.497,0-0.992-0.189-1.371-0.568l-1.197-1.197c-0.757-0.757-0.757-1.985,0-2.742
			c0.758-0.757,1.985-0.756,2.741,0.001l1.197,1.197c0.757,0.757,0.757,1.985,0,2.742C451.096,122.8,450.599,122.99,450.104,122.99z
			"/>
	</g>
</g>
<g id="_x34_">
	<g>
		<path fill="#ECB67C" d="M620.487,157.19l-26.191-64.576l-1.422-3.505c-1.188-2.928,0.355-6.24,3.352-7.242
			c18.822-6.288,39.734-6.555,59.654,0.448c2.971,1.044,4.448,4.382,3.221,7.282l-1.305,3.086l-27.312,64.581
			C628.607,161.704,622.299,161.658,620.487,157.19z"/>
	</g>
	<g>
		<path fill="#E1AC77" d="M593.569,90.831l-0.698-1.722c-1.188-2.928,0.355-6.24,3.352-7.242
			c18.822-6.288,39.734-6.555,59.654,0.448c2.971,1.044,4.448,4.382,3.221,7.282l-0.623,1.474c0,0-17.76-6.176-32.475-6.176
			S593.569,90.831,593.569,90.831z"/>
	</g>
	<g>
		<path d="M625.505,162.48c-0.02,0-0.039,0-0.058,0c-3.019-0.022-5.598-1.774-6.733-4.571l0,0l-27.612-68.082
			c-0.772-1.904-0.724-3.981,0.136-5.848c0.851-1.849,2.449-3.28,4.383-3.926c19.99-6.678,41.048-6.519,60.895,0.457
			c1.913,0.672,3.48,2.122,4.3,3.977c0.82,1.854,0.837,3.988,0.048,5.854l-28.616,67.667
			C631.079,160.771,628.499,162.48,625.505,162.48z M622.26,156.471c0.55,1.356,1.752,2.172,3.216,2.184
			c1.483,0.017,2.678-0.787,3.248-2.136l28.616-67.666c0.386-0.911,0.377-1.912-0.023-2.818c-0.401-0.906-1.136-1.587-2.07-1.915
			c-19.039-6.693-39.238-6.844-58.414-0.438c-0.95,0.317-1.703,0.991-2.12,1.898c-0.413,0.898-0.437,1.895-0.065,2.811
			L622.26,156.471z"/>
	</g>
	<g>
		<path fill="#F8CC77" d="M621.041,157.829l-23.323-57.505c-0.088-0.217,0.017-0.466,0.235-0.553
			c17.448-6.961,37.52-7.365,56.208,0.415c0.216,0.09,0.319,0.342,0.228,0.557l-24.171,57.153
			C628.494,161.972,622.704,161.929,621.041,157.829z"/>
	</g>
	<g>
		<path fill="#E9BB6D" d="M599.096,103.856l-1.433-3.532c-0.088-0.217,0.017-0.466,0.235-0.553
			c17.448-6.961,37.52-7.365,56.208,0.415c0.216,0.09,0.319,0.342,0.228,0.557l-1.469,3.472c0,0-13.743-4.883-26.865-4.883
			S599.096,103.856,599.096,103.856z"/>
	</g>
	<g>
		<path d="M625.647,162.841c-0.018,0-0.036,0-0.055,0c-2.835-0.021-5.259-1.666-6.324-4.293l-23.323-57.506
			c-0.235-0.581-0.229-1.219,0.017-1.796c0.246-0.577,0.702-1.022,1.283-1.253c18.645-7.439,39.121-7.289,57.65,0.427
			c0.576,0.239,1.026,0.691,1.264,1.272c0.238,0.581,0.234,1.219-0.01,1.796l-24.17,57.153
			C630.882,161.236,628.459,162.841,625.647,162.841z M622.813,157.11c0.48,1.184,1.529,1.897,2.807,1.906
			c1.254-0.026,2.338-0.688,2.836-1.865l23.582-55.76c-16.77-6.587-35.112-6.723-51.979-0.384L622.813,157.11z"/>
	</g>
	<g>
		<circle fill="#E9785A" cx="634.133" cy="109.829" r="8.129"/>
	</g>
	<g>
		<path d="M634.133,119.871c-5.537,0-10.042-4.505-10.042-10.042s4.505-10.042,10.042-10.042c5.537,0,10.042,4.505,10.042,10.042
			S639.67,119.871,634.133,119.871z M634.133,103.613c-3.428,0-6.216,2.789-6.216,6.216c0,3.428,2.789,6.216,6.216,6.216
			s6.216-2.789,6.216-6.216C640.35,106.402,637.561,103.613,634.133,103.613z"/>
	</g>
	<g>
		<path fill="#EC6D57" d="M620.256,126.733c0,4.49-3.64,8.129-8.129,8.129c-0.233,0-0.465-0.01-0.693-0.029l-5.458-13.415
			c1.491-1.724,3.694-2.814,6.151-2.814C616.616,118.604,620.256,122.243,620.256,126.733z"/>
	</g>
	<g>
		<path d="M612.127,136.775c-0.289,0-0.574-0.012-0.857-0.036c-0.716-0.062-1.337-0.519-1.608-1.185l-5.458-13.414
			c-0.271-0.666-0.146-1.428,0.325-1.972c1.91-2.209,4.68-3.476,7.599-3.476c5.537,0,10.042,4.505,10.042,10.042
			C622.168,132.27,617.664,136.775,612.127,136.775z M608.232,121.888l4.49,11.033c3.15-0.3,5.622-2.961,5.622-6.188
			c0-3.428-2.789-6.216-6.216-6.216C610.698,120.517,609.327,121.007,608.232,121.888z"/>
	</g>
	<g>
		<path fill="#E9785A" d="M633.283,150.65c-3.745-0.727-6.572-4.023-6.572-7.98c0-4.49,3.64-8.129,8.129-8.129
			c1.684,0,3.248,0.512,4.545,1.388L633.283,150.65z"/>
	</g>
	<g>
		<path d="M633.284,152.562c-0.121,0-0.243-0.011-0.365-0.035c-4.705-0.912-8.12-5.058-8.12-9.857
			c0-5.537,4.505-10.042,10.042-10.042c2.012,0,3.954,0.594,5.616,1.716c0.753,0.509,1.044,1.478,0.696,2.318l-6.102,14.721
			C634.75,152.106,634.045,152.562,633.284,152.562z M634.84,136.453c-3.428,0-6.216,2.789-6.216,6.217
			c0,2.447,1.433,4.619,3.564,5.625l4.758-11.477C636.276,136.577,635.566,136.453,634.84,136.453z"/>
	</g>
</g>
<g id="_x35_">
	<g>
		<path fill="#EDEDED" d="M167.515,330.419l1.97-0.247c1.023-0.128,1.748-1.062,1.619-2.084l-9.017-70.404l-5.674,0.712
			l9.017,70.404C165.559,329.823,166.492,330.548,167.515,330.419z"/>
		<path d="M167.274,332.435c-0.854,0-1.678-0.282-2.364-0.814c-0.815-0.634-1.335-1.547-1.464-2.571l-9.017-70.399
			c-0.067-0.527,0.078-1.059,0.403-1.479c0.326-0.42,0.805-0.693,1.332-0.759l5.674-0.712c1.093-0.142,2.093,0.637,2.233,1.73
			l9.017,70.405c0.129,1.029-0.149,2.043-0.782,2.858c-0.634,0.815-1.547,1.336-2.573,1.464l-1.969,0.247
			C167.6,332.424,167.437,332.435,167.274,332.435z M158.652,260.13l8.746,68.288l1.705-0.214l-8.746-68.288L158.652,260.13z"/>
	</g>
	<g>
		<path fill="#E9785A" d="M152.311,294.825l2.71,36.605c0.28,4.422,3.949,7.866,8.38,7.866h22.995c4.432,0,8.1-3.444,8.38-7.867
			l2.705-36.621c0,0-9.527-4.496-22.585,0.008S152.311,294.825,152.311,294.825z"/>
	</g>
	<g>
		<polygon fill="#EDEDED" points="174.904,280.126 174.904,280.361 151.252,280.361 151.234,280.126 		"/>
		<path d="M174.904,282.361h-23.652c-1.045,0-1.914-0.805-1.994-1.847l-0.018-0.235c-0.042-0.555,0.148-1.104,0.527-1.512
			c0.378-0.409,0.91-0.641,1.467-0.641h23.67c1.104,0,2,0.896,2,2v0.235C176.904,281.465,176.009,282.361,174.904,282.361z"/>
	</g>
	<g>
		<polygon fill="#EDEDED" points="198.575,280.126 198.557,280.361 174.904,280.361 174.904,280.126 		"/>
		<path d="M198.557,282.361h-23.653c-1.104,0-2-0.896-2-2v-0.235c0-1.104,0.896-2,2-2h23.671c0.557,0,1.089,0.232,1.467,0.641
			c0.379,0.409,0.569,0.957,0.527,1.512l-0.018,0.235C200.471,281.556,199.602,282.361,198.557,282.361z"/>
	</g>
	<g opacity="0.1">
		<path fill="#FFFFFF" d="M192.24,280.361l-3.779,51.053c-0.28,4.422-3.949,7.866-8.38,7.866h-16.696c-4.432,0-8.1-3.444-8.38-7.867
			l-3.771-51.052H192.24z"/>
	</g>
	<g>
		<path d="M186.398,341.085h-22.995c-5.37,0-9.842-4.198-10.181-9.558l-3.77-51.033c-0.037-0.501,0.136-0.994,0.478-1.362
			c0.342-0.367,0.82-0.576,1.322-0.576h47.305c0.502,0,0.981,0.209,1.322,0.577c0.342,0.367,0.515,0.861,0.478,1.361l-3.779,51.053
			C196.239,336.888,191.767,341.085,186.398,341.085z M153.195,282.166l3.628,49.114c0.22,3.483,3.11,6.195,6.58,6.195h22.995
			c3.47,0,6.359-2.713,6.579-6.176l3.637-49.134H153.195z"/>
	</g>
	<g>
		<path fill="#EDEDED" d="M201.002,275.767v4.593h-52.205v-4.593c0-2.572,2.085-4.656,4.666-4.656h42.883
			C198.918,271.111,201.002,273.195,201.002,275.767z"/>
	</g>
	<g>
		<path fill="#FCFAFB" d="M191.235,275.76v4.593h-32.671v-4.593c0-2.572,1.305-4.656,2.92-4.656h26.837
			C189.931,271.104,191.235,273.188,191.235,275.76z"/>
	</g>
	<g>
		<path d="M146.797,280.361v-4.593c0-3.67,2.986-6.657,6.657-6.657h42.883c3.675,0,6.666,2.986,6.666,6.657v4.593
			c0,1.104-0.896,2-2,2h-52.205C147.693,282.361,146.797,281.465,146.797,280.361z M199.003,275.768
			c0-1.465-1.196-2.657-2.666-2.657h-42.883c-1.465,0-2.657,1.192-2.657,2.657v2.593h48.205V275.768z"/>
	</g>
	<g>
		<path fill="#DA654A" d="M181.38,330.229h0.961c1.944,0,3.519-1.576,3.519-3.519v-0.961c0-1.944-1.576-3.519-3.519-3.519h-0.961
			c-1.944,0-3.519,1.576-3.519,3.519v0.961C177.86,328.653,179.436,330.229,181.38,330.229z"/>
	</g>
	<g>
		<path fill="#DA654A" d="M166.286,318.055h0.961c1.944,0,3.519-1.576,3.519-3.519v-0.961c0-1.944-1.576-3.519-3.519-3.519h-0.961
			c-1.944,0-3.519,1.576-3.519,3.519v0.961C162.766,316.479,164.342,318.055,166.286,318.055z"/>
	</g>
	<g>
		<path fill="#DA654A" d="M183.38,308.805h0.961c1.944,0,3.519-1.576,3.519-3.519v-0.961c0-1.944-1.576-3.519-3.519-3.519h-0.961
			c-1.944,0-3.519,1.576-3.519,3.519v0.961C179.86,307.229,181.436,308.805,183.38,308.805z"/>
	</g>
</g>
<g id="_x36_">
	<g>
		<g>
			<path fill="#9AC97F" d="M346.926,299.987l0.002,49.767c0,2.603-2.105,4.708-4.708,4.708h-33.91c-2.592,0-4.708-2.105-4.708-4.708
				l-0.002-49.767c0-8.829,5.65-16.352,13.527-19.143v-23.043h16.273v23.043C341.276,283.635,346.926,291.158,346.926,299.987z"/>
		</g>
	</g>
	<g>
		<g>
			<path fill="#AB5063" d="M346.954,300.273l0.002,49.767c0,2.603-2.105,4.708-4.708,4.708h-33.91c-2.592,0-4.708-2.105-4.708-4.708
				l-0.002-50.982C310.004,305.436,341.016,294.335,346.954,300.273z"/>
		</g>
	</g>
	<g opacity="0.15">
		<g>
			<path fill="#FFFFFF" d="M340.894,299.987l0.002,49.767c0,2.603-2.105,4.708-4.708,4.708h-27.878
				c-2.592,0-4.708-2.105-4.708-4.708l-0.002-49.767c0-8.829,5.65-16.352,13.527-19.143v-23.043h10.241v23.043
				C335.244,283.636,340.894,291.158,340.894,299.987z"/>
		</g>
	</g>
	<g>
		<g>
			<path d="M342.219,356.401h-33.91c-3.665,0-6.647-2.982-6.647-6.647l-0.001-49.767c0-8.938,5.381-16.995,13.527-20.467v-23.657
				h20.15v23.657c8.145,3.473,13.527,11.53,13.527,20.467l0.002,49.767C348.866,353.42,345.884,356.401,342.219,356.401z
				 M319.065,259.74v22.474l-1.291,0.458c-7.319,2.594-12.236,9.552-12.236,17.316l0.001,49.767c0,1.527,1.242,2.77,2.77,2.77h33.91
				c1.528,0,2.77-1.243,2.77-2.77l-0.002-49.767c0-7.764-4.917-14.722-12.236-17.316l-1.291-0.458V259.74H319.065z"/>
		</g>
	</g>
	<g>
		<g>
			<rect x="314.891" y="250.6" fill="#F3E5E5" width="20.745" height="8.309"/>
		</g>
		<g>
			<path d="M335.636,260.847h-20.745c-1.071,0-1.939-0.868-1.939-1.939V250.6c0-1.071,0.868-1.939,1.939-1.939h20.745
				c1.071,0,1.939,0.868,1.939,1.939v8.309C337.574,259.979,336.707,260.847,335.636,260.847z M316.829,256.97h16.868v-4.431
				h-16.868V256.97z"/>
		</g>
	</g>
	<g>
		<g>
			<path d="M335.636,260.847h-20.745c-1.071,0-1.939-0.868-1.939-1.939V250.6c0-1.071,0.868-1.939,1.939-1.939h20.745
				c1.071,0,1.939,0.868,1.939,1.939v8.309C337.574,259.979,336.707,260.847,335.636,260.847z M316.829,256.97h16.868v-4.431
				h-16.868V256.97z"/>
		</g>
	</g>
	<g>
		<g>
			<rect x="318.401" y="243.537" fill="#FFE0AE" width="13.725" height="7.062"/>
		</g>
		<g>
			<path d="M332.126,252.539H318.4c-1.071,0-1.939-0.868-1.939-1.939v-7.062c0-1.071,0.868-1.939,1.939-1.939h13.726
				c1.071,0,1.939,0.868,1.939,1.939v7.062C334.065,251.67,333.197,252.539,332.126,252.539z M320.339,248.661h9.848v-3.185h-9.848
				V248.661z"/>
		</g>
	</g>
	<g>
		<g>
			<path d="M332.126,252.539H318.4c-1.071,0-1.939-0.868-1.939-1.939v-7.062c0-1.071,0.868-1.939,1.939-1.939h13.726
				c1.071,0,1.939,0.868,1.939,1.939v7.062C334.065,251.67,333.197,252.539,332.126,252.539z M320.339,248.661h9.848v-3.185h-9.848
				V248.661z"/>
		</g>
	</g>
	<g>
		<g>
			<path d="M319.02,282.782h-1.894c-1.071,0-1.939-0.868-1.939-1.939c0-1.07,0.868-1.939,1.939-1.939h1.894
				c1.071,0,1.939,0.868,1.939,1.939C320.959,281.914,320.091,282.782,319.02,282.782z"/>
		</g>
	</g>
	<g>
		<g>
			<path d="M333.444,282.782h-1.798c-1.071,0-1.939-0.868-1.939-1.939c0-1.07,0.868-1.939,1.939-1.939h1.798
				c1.071,0,1.939,0.868,1.939,1.939C335.383,281.914,334.515,282.782,333.444,282.782z"/>
		</g>
	</g>
	<g>
		<g>
			<rect x="303.599" y="305.159" fill="#FFFEFE" width="43.329" height="30.506"/>
		</g>
	</g>
	<g>
		<g>
			<path d="M346.927,337.604h-43.328c-1.071,0-1.939-0.868-1.939-1.939v-30.506c0-1.07,0.868-1.939,1.939-1.939h43.328
				c1.071,0,1.939,0.868,1.939,1.939v30.506C348.866,336.736,347.998,337.604,346.927,337.604z M305.538,333.726h39.451v-26.629
				h-39.451V333.726z"/>
		</g>
	</g>
	<g>
		<g>
			<circle fill="#71638C" cx="318.881" cy="314.863" r="4.198"/>
		</g>
	</g>
	<g>
		<g>
			<circle fill="#71638C" cx="331.646" cy="314.863" r="4.173"/>
		</g>
	</g>
	<g>
		<g>
			<circle fill="#71638C" cx="325.263" cy="325.96" r="4.179"/>
		</g>
	</g>
	<g>
		<g>
			<path d="M328.162,349.57h-5.798c-1.071,0-1.939-0.868-1.939-1.939s0.868-1.939,1.939-1.939h5.798
				c1.071,0,1.939,0.868,1.939,1.939S329.233,349.57,328.162,349.57z"/>
		</g>
	</g>
	<g>
		<g>
			<rect x="317.184" y="259.004" fill="#FFFEFE" width="16.215" height="11.817"/>
		</g>
		<g>
			<path d="M335.337,272.759h-20.092v-15.694h20.092V272.759z M319.123,268.882h12.337v-7.939h-12.337V268.882z"/>
		</g>
	</g>
</g>
<g id="_x37_">
	<g>
		<g>
			<path fill="#E3ECE9" d="M497.659,294.685v49.912c0,3.536-2.862,6.398-6.387,6.398h-35.103c-3.526,0-6.387-2.862-6.387-6.398
				v-49.912c0-4.657,3.776-8.433,8.433-8.433h0.01c1.311,0,2.411-0.991,2.546-2.295l2.526-24.364h20.849l2.536,24.365
				c0.136,1.304,1.235,2.294,2.546,2.294h0C493.883,286.252,497.659,290.028,497.659,294.685z"/>
		</g>
	</g>
	<g>
		<g>
			<path fill="#E19E2C" d="M497.682,294.685v49.912c0,3.536-2.862,6.398-6.387,6.398h-35.103c-3.526,0-6.387-2.862-6.387-6.398
				v-49.912C458.593,303.474,489.151,286.154,497.682,294.685z"/>
		</g>
	</g>
	<g opacity="0.2">
		<g>
			<path fill="#E3ECE9" d="M491.221,294.685v49.912c0,3.536-2.862,6.398-6.387,6.398h-28.665c-3.526,0-6.387-2.862-6.387-6.398
				v-49.912c0-4.657,3.776-8.433,8.433-8.433l0,0c1.311,0,2.42-0.991,2.556-2.295l2.526-24.364h14.411l2.536,24.365
				c0.136,1.304,1.235,2.294,2.546,2.294h0C487.445,286.252,491.221,290.028,491.221,294.685z"/>
		</g>
	</g>
	<g>
		<g>
			<path d="M491.272,352.9h-35.103c-4.572,0-8.292-3.724-8.292-8.302v-49.913c0-5.7,4.637-10.337,10.337-10.337
				c0.347,0,0.627-0.252,0.661-0.587l2.526-24.364c0.1-0.97,0.919-1.708,1.894-1.708h20.849c0.975,0,1.793,0.737,1.894,1.707
				l2.536,24.365c0.035,0.335,0.315,0.587,0.651,0.587c5.7,0,10.337,4.637,10.337,10.337v49.913
				C499.563,349.175,495.844,352.9,491.272,352.9z M465.013,261.497l-2.349,22.656c-0.236,2.282-2.145,4.003-4.44,4.003
				c-3.61,0-6.539,2.929-6.539,6.529v49.913c0,2.478,2.011,4.494,4.483,4.494h35.103c2.472,0,4.483-2.016,4.483-4.494v-49.913
				c0-3.6-2.929-6.529-6.529-6.529c-2.294,0-4.203-1.72-4.44-4.002l-2.358-22.657H465.013z"/>
		</g>
	</g>
	<g>
		<g>
			<rect x="449.781" y="301.622" fill="#666766" width="47.878" height="34.004"/>
		</g>
		<g>
			<path d="M497.659,337.53h-47.878c-1.051,0-1.904-0.853-1.904-1.904v-34.004c0-1.051,0.853-1.904,1.904-1.904h47.878
				c1.051,0,1.904,0.853,1.904,1.904v34.004C499.563,336.677,498.71,337.53,497.659,337.53z M451.686,333.722h44.069v-30.196
				h-44.069V333.722z"/>
		</g>
	</g>
	<g>
		<g>
			<path fill="#454545" d="M486.908,250.91v8.683h-26.376v-8.683c0-1.713,1.388-3.101,3.101-3.101h20.174
				C485.52,247.809,486.908,249.197,486.908,250.91z"/>
		</g>
		<g>
			<path d="M486.908,261.497h-26.376c-1.051,0-1.904-0.853-1.904-1.904v-8.683c0-2.76,2.245-5.005,5.005-5.005h20.174
				c2.76,0,5.005,2.245,5.005,5.005v8.683C488.813,260.644,487.96,261.497,486.908,261.497z M462.436,257.689h22.568v-6.779
				c0-0.66-0.537-1.197-1.197-1.197h-20.174c-0.66,0-1.197,0.537-1.197,1.197V257.689z"/>
		</g>
	</g>
	<g>
		<g>
			<polygon fill="#666766" points="484.145,259.593 463.296,259.593 461.616,275.801 485.871,275.801 			"/>
		</g>
		<g>
			<path d="M485.871,277.705h-24.255c-0.539,0-1.053-0.228-1.414-0.629c-0.361-0.401-0.536-0.935-0.48-1.472l1.68-16.208
				c0.1-0.97,0.919-1.708,1.894-1.708h20.849c0.973,0,1.791,0.734,1.894,1.702l1.726,16.208c0.057,0.537-0.116,1.073-0.478,1.475
				S486.411,277.705,485.871,277.705z M463.728,273.897h20.025l-1.321-12.4h-17.419L463.728,273.897z"/>
		</g>
	</g>
	<g>
		<g>
			<line fill="#FFFFFF" x1="458.214" y1="286.252" x2="462.567" y2="286.252"/>
		</g>
		<g>
			<path d="M462.567,288.156h-4.353c-1.051,0-1.904-0.853-1.904-1.904c0-1.051,0.853-1.904,1.904-1.904h4.353
				c1.051,0,1.904,0.853,1.904,1.904C464.471,287.304,463.618,288.156,462.567,288.156z"/>
		</g>
	</g>
	<g>
		<g>
			<line fill="#FFFFFF" x1="489.226" y1="286.252" x2="484.783" y2="286.252"/>
		</g>
		<g>
			<path d="M489.226,288.156h-4.443c-1.051,0-1.904-0.853-1.904-1.904c0-1.051,0.853-1.904,1.904-1.904h4.443
				c1.051,0,1.904,0.853,1.904,1.904C491.13,287.304,490.277,288.156,489.226,288.156z"/>
		</g>
	</g>
	<g>
		<g>
			<path fill="#FFFFFF" d="M485.848,318.446c-0.514,0-1.025-0.206-1.401-0.614c-2.795-3.032-6.604-4.702-10.728-4.702
				c-4.124,0-7.933,1.67-10.728,4.702c-0.711,0.774-1.917,0.822-2.691,0.109c-0.773-0.712-0.822-1.917-0.109-2.691
				c3.473-3.768,8.403-5.929,13.528-5.929c5.125,0,10.055,2.161,13.528,5.929c0.713,0.774,0.664,1.978-0.109,2.691
				C486.772,318.279,486.31,318.446,485.848,318.446z"/>
		</g>
	</g>
	<g>
		<g>
			<path fill="#FFFFFF" d="M479.07,321.942h-10.7c-1.051,0-1.904-0.853-1.904-1.904s0.853-1.904,1.904-1.904h10.7
				c1.051,0,1.904,0.853,1.904,1.904S480.121,321.942,479.07,321.942z"/>
		</g>
	</g>
	<g>
		<g>
			<path fill="#FFFFFF" d="M479.07,327.927h-10.7c-1.051,0-1.904-0.853-1.904-1.904c0-1.051,0.853-1.904,1.904-1.904h10.7
				c1.051,0,1.904,0.853,1.904,1.904C480.974,327.074,480.121,327.927,479.07,327.927z"/>
		</g>
	</g>
	<g>
		<g>
			<path fill="#FFFFFF" d="M476.668,269.601h-5.849c-1.051,0-1.904-0.853-1.904-1.904c0-1.051,0.853-1.904,1.904-1.904h5.849
				c1.051,0,1.904,0.853,1.904,1.904C478.572,268.749,477.719,269.601,476.668,269.601z"/>
		</g>
	</g>
</g>
<g id="_x38_">
	<g>
		<path fill="#EDEDED" d="M649.181,278.396l-4.272,51.053c-0.317,4.422-4.464,7.866-9.473,7.866h-18.874
			c-5.01,0-9.157-3.444-9.473-7.867l-4.263-51.052H649.181z"/>
	</g>
	<g>
		<polygon fill="#EDEDED" points="626.004,277.927 626.004,278.161 602.352,278.161 602.334,277.927 		"/>
		<path d="M626.005,280.162h-23.653c-1.047,0-1.916-0.807-1.994-1.851l-0.018-0.235c-0.042-0.555,0.149-1.102,0.528-1.51
			c0.378-0.408,0.909-0.64,1.466-0.64h23.671c1.104,0,2,0.896,2,2v0.235C628.005,279.266,627.109,280.162,626.005,280.162z"/>
	</g>
	<g>
		<polygon fill="#EDEDED" points="649.675,277.927 649.657,278.161 626.004,278.161 626.004,277.927 		"/>
		<path d="M649.657,280.162h-23.652c-1.104,0-2-0.896-2-2v-0.235c0-1.104,0.896-2,2-2h23.67c0.557,0,1.088,0.232,1.466,0.64
			c0.379,0.408,0.57,0.955,0.528,1.51l-0.018,0.235C651.573,279.354,650.704,280.162,649.657,280.162z"/>
	</g>
	<g>
		<path fill="#FCFAFB" d="M643.034,278.396l-3.141,51.053c-0.233,4.422-3.281,7.866-6.964,7.866h-13.875
			c-3.683,0-6.732-3.444-6.964-7.867l-3.134-51.052H643.034z"/>
	</g>
	<g>
		<path d="M637.498,338.886h-22.995c-5.37,0-9.842-4.198-10.181-9.558l-3.77-51.033c-0.037-0.501,0.136-0.994,0.478-1.362
			c0.341-0.367,0.82-0.576,1.322-0.576h47.305c0.502,0,0.981,0.209,1.322,0.577c0.341,0.367,0.515,0.861,0.478,1.361l-3.779,51.053
			C647.339,334.688,642.867,338.886,637.498,338.886z M604.295,279.967l3.628,49.114c0.22,3.483,3.11,6.195,6.58,6.195h22.995
			c3.47,0,6.359-2.713,6.579-6.176l3.637-49.134H604.295z"/>
	</g>
	<g>
		<path fill="#EDEDED" d="M652.102,273.568v4.593h-52.205v-4.593c0-2.572,2.085-4.656,4.666-4.656h42.883
			C650.018,268.912,652.102,270.996,652.102,273.568z"/>
	</g>
	<g>
		<path fill="#FCFAFB" d="M642.335,273.561v4.593h-32.671v-4.593c0-2.572,1.305-4.656,2.92-4.656h26.837
			C641.031,268.905,642.335,270.989,642.335,273.561z"/>
	</g>
	<g>
		<path d="M597.897,278.162v-4.593c0-3.67,2.986-6.657,6.657-6.657h42.883c3.675,0,6.666,2.986,6.666,6.657v4.593
			c0,1.104-0.896,2-2,2h-52.205C598.793,280.162,597.897,279.266,597.897,278.162z M650.103,273.568
			c0-1.465-1.196-2.657-2.666-2.657h-42.883c-1.465,0-2.657,1.192-2.657,2.657v2.593h48.205V273.568z"/>
	</g>
	<g>
		<path fill="#EDEDED" d="M641.236,259.882H610.81c-1.527,0-2.862,1.031-3.249,2.508l-1.705,6.514h40.297l-1.664-6.497
			C644.108,260.922,642.769,259.882,641.236,259.882z"/>
		<path d="M646.153,270.905h-40.298c-0.62,0-1.204-0.287-1.583-0.778s-0.509-1.129-0.352-1.729l1.705-6.515
			c0.616-2.356,2.748-4.001,5.184-4.001h30.426c2.448,0,4.583,1.657,5.191,4.028l1.664,6.498c0.153,0.599,0.021,1.234-0.357,1.722
			C647.354,270.619,646.771,270.905,646.153,270.905z M608.446,266.905h35.13l-1.024-4.001c-0.154-0.601-0.695-1.021-1.316-1.021
			H610.81c-0.617,0-1.158,0.417-1.314,1.014L608.446,266.905z"/>
	</g>
	<g>
		<polygon fill="#9AC97F" points="647.546,322.147 604.463,322.147 602.58,292.774 649.429,292.774 		"/>
		<path d="M647.546,324.147h-43.083c-1.055,0-1.929-0.819-1.996-1.872l-1.883-29.374c-0.035-0.552,0.159-1.093,0.537-1.496
			c0.378-0.403,0.906-0.632,1.459-0.632h46.849c0.553,0,1.081,0.229,1.459,0.632c0.378,0.403,0.572,0.944,0.537,1.496l-1.883,29.374
			C649.475,323.328,648.601,324.147,647.546,324.147z M606.339,320.147h39.331l1.627-25.374h-42.585L606.339,320.147z"/>
	</g>
	<g>
		<path fill="#FFFFFF" d="M637.84,310.355h-23.671c-1.381,0-2.5-1.119-2.5-2.5s1.119-2.5,2.5-2.5h23.671c1.381,0,2.5,1.119,2.5,2.5
			S639.221,310.355,637.84,310.355z"/>
	</g>
	<g>
		<circle fill="#FFFFFF" cx="625.996" cy="307.855" r="7.5"/>
	</g>
</g>
<g id="_x39_">
	<g>
		<path fill="#E7AE76" d="M138.648,482.665c0.13,1.06,0.32,2.11,0.55,3.15c0.21,0.96,0.47,1.92,0.76,2.87
			c1.68,5.41,4.67,10.52,8.96,14.81s9.39,7.28,14.81,8.95c0.95,0.3,1.9,0.55,2.87,0.77c1.04,0.23,2.09,0.42,3.15,0.55
			c3.16,0.41,6.36,0.41,9.51-0.01c1.07-0.14,2.14-0.33,3.2-0.58c0.98-0.22,1.95-0.48,2.91-0.79c5.35-1.68,10.38-4.65,14.62-8.89
			c4.23-4.24,7.2-9.26,8.89-14.6c0.31-0.97,0.57-1.94,0.79-2.92c0.24-1.06,0.43-2.13,0.58-3.2c0.43-3.22,0.43-6.5-0.01-9.72
			c-0.15-1.11-0.36-2.22-0.61-3.31c-0.24-1.02-0.52-2.02-0.84-3.01c-1.71-5.24-4.64-10.16-8.8-14.32c-4.16-4.16-9.07-7.09-14.31-8.8
			c-0.99-0.32-2-0.6-3.01-0.84c-1.1-0.26-2.21-0.46-3.33-0.61c-3.27-0.45-6.58-0.44-9.85,0.01c-1.14,0.16-2.28,0.37-3.4,0.64
			c-1.03,0.24-2.05,0.53-3.06,0.87c-5.16,1.71-10.01,4.62-14.11,8.73c-4.11,4.1-7.02,8.95-8.74,14.11
			c-0.33,1.01-0.62,2.03-0.86,3.06c-0.27,1.11-0.48,2.24-0.63,3.37C138.238,476.175,138.218,479.445,138.648,482.665z
			 M166.208,486.195c-4.56-4.55-4.56-11.94,0-16.49c4.55-4.55,11.94-4.55,16.49,0c4.56,4.55,4.56,11.94,0,16.49
			C178.148,490.755,170.758,490.755,166.208,486.195z"/>
	</g>
	<g>
		<path fill="#FDC784" d="M143.988,486.335c0.25,0.9,0.53,1.79,0.87,2.67c0.35,0.96,0.75,1.9,1.21,2.82
			c1.49,3.06,3.51,5.93,6.05,8.47c2.55,2.55,5.42,4.57,8.49,6.05c0.92,0.46,1.86,0.86,2.81,1.21c0.88,0.33,1.78,0.62,2.68,0.86
			c5.54,1.52,11.42,1.5,16.95-0.06c0.92-0.26,1.83-0.56,2.73-0.9c0.97-0.37,1.93-0.8,2.87-1.28c2.94-1.47,5.7-3.43,8.15-5.88
			c2.44-2.44,4.4-5.19,5.86-8.12c0.49-0.94,0.92-1.9,1.29-2.88c0.35-0.9,0.65-1.81,0.9-2.73c1.63-5.74,1.59-11.85-0.09-17.57
			c-0.28-0.96-0.61-1.9-0.98-2.83c-0.42-1.03-0.89-2.05-1.43-3.04c-1.42-2.7-3.28-5.24-5.55-7.51s-4.79-4.12-7.48-5.55
			c-0.99-0.53-2.01-1-3.04-1.42c-0.94-0.38-1.89-0.71-2.85-1c-5.93-1.74-12.28-1.72-18.2,0.08c-0.98,0.3-1.95,0.65-2.9,1.05
			c-1.07,0.44-2.11,0.94-3.13,1.52c-2.54,1.39-4.93,3.17-7.08,5.32c-2.16,2.16-3.94,4.55-5.34,7.1c-0.57,1.02-1.07,2.06-1.51,3.13
			c-0.4,0.95-0.74,1.91-1.04,2.89C142.488,474.455,142.408,480.575,143.988,486.335z M166.208,486.195
			c-4.56-4.55-4.56-11.94,0-16.49c4.55-4.55,11.94-4.55,16.49,0c4.56,4.55,4.56,11.94,0,16.49
			C178.148,490.755,170.758,490.755,166.208,486.195z"/>
	</g>
	<g>
		<path d="M136.338,477.955c0,1.87,0.13,3.73,0.4,5.55c0.17,1.16,0.39,2.3,0.66,3.43c1.62,6.75,5.07,12.94,10.1,17.97
			c5.03,5.03,11.22,8.48,17.96,10.1c1.12,0.27,2.26,0.49,3.41,0.66c1.83,0.26,3.7,0.4,5.59,0.4c1.91,0,3.8-0.14,5.65-0.41
			c0.01,0.01,0.01,0.01,0.01,0c1.17-0.18,2.33-0.4,3.47-0.69c6.69-1.63,12.83-5.07,17.82-10.06c4.99-4.99,8.43-11.12,10.06-17.81
			c0.29-1.15,0.51-2.31,0.69-3.49v-0.01c0.27-1.85,0.41-3.73,0.41-5.64c0-1.93-0.14-3.83-0.42-5.7c-0.18-1.22-0.42-2.43-0.72-3.61
			v-0.01c-1.65-6.62-5.07-12.69-10.02-17.64s-11.02-8.37-17.64-10.02c-1.2-0.3-2.42-0.54-3.65-0.73h-0.01
			c-1.85-0.27-3.74-0.41-5.65-0.41c-1.95,0-3.88,0.15-5.77,0.43c-1.25,0.19-2.48,0.44-3.69,0.75c-6.57,1.66-12.59,5.07-17.5,9.98
			c-4.91,4.91-8.31,10.93-9.98,17.49c-0.31,1.21-0.56,2.44-0.75,3.68C136.488,474.065,136.338,475.995,136.338,477.955z
			 M141.638,487.355c-0.25-0.9-0.47-1.81-0.65-2.74c-0.43-2.17-0.65-4.4-0.65-6.66c0-2.45,0.26-4.85,0.76-7.19
			c0.21-0.99,0.46-1.98,0.76-2.94c0.31-1,0.66-1.98,1.06-2.94v-0.01c1.69-4.08,4.19-7.82,7.41-11.05c3.26-3.26,7-5.71,11.01-7.36
			c0.97-0.41,1.95-0.76,2.95-1.06c0.97-0.31,1.95-0.57,2.94-0.78c2.38-0.51,4.8-0.77,7.23-0.77c2.36,0,4.73,0.24,7.05,0.74
			c0.98,0.2,1.95,0.44,2.9,0.74c0.98,0.29,1.94,0.63,2.89,1.01c4.11,1.66,7.96,4.15,11.28,7.48c3.33,3.33,5.83,7.19,7.49,11.31
			c0.39,0.95,0.73,1.91,1.02,2.89c0.29,0.95,0.54,1.92,0.73,2.89c0.96,4.56,0.98,9.29,0.05,13.87c-0.19,0.94-0.42,1.87-0.69,2.8
			c-0.28,0.94-0.59,1.88-0.96,2.8c-0.01-0.01-0.01,0-0.01,0c-1.65,4.26-4.2,8.26-7.63,11.69c-3.44,3.44-7.45,6-11.72,7.65
			c-0.91,0.36-1.84,0.68-2.78,0.96c-0.93,0.27-1.87,0.5-2.81,0.68c-4.44,0.9-9.03,0.91-13.47,0.04c-0.93-0.18-1.84-0.41-2.75-0.67
			c-0.92-0.26-1.83-0.56-2.73-0.91c-4.38-1.65-8.47-4.23-11.99-7.75c-3.46-3.46-6.08-7.53-7.77-11.97
			C142.218,489.205,141.908,488.285,141.638,487.355z"/>
	</g>
	<g>
		<g>
			<path fill="#D5618D" d="M134.888,477.985c0,2.27,0.69,4.05,1.85,5.52c0.67,0.86,1.51,1.61,2.46,2.31
				c0.74,0.54,1.57,1.05,2.44,1.54c1.01,0.57,2.1,1.11,3.22,1.65c3.91,1.9,8.24,3.83,11.5,7.09c3.24,3.24,5.17,7.56,7.06,11.46
				c0.54,1.11,1.07,2.18,1.63,3.18c0.49,0.89,1.01,1.72,1.55,2.48c0.69,0.94,1.43,1.77,2.27,2.45c1.49,1.19,3.28,1.9,5.59,1.9
				c2.32,0,4.14-0.71,5.65-1.91c0.01,0.01,0.01,0.01,0.01,0c0.87-0.68,1.64-1.52,2.34-2.48c0.57-0.76,1.1-1.6,1.62-2.49
				c0.57-1.02,1.13-2.11,1.7-3.23c1.89-3.78,3.85-7.94,7.02-11.11c3.18-3.19,7.35-5.15,11.15-7.05c1.12-0.57,2.21-1.12,3.23-1.71
				c0.89-0.51,1.73-1.04,2.49-1.61c0.96-0.71,1.81-1.49,2.49-2.37v-0.01c1.17-1.5,1.86-3.3,1.86-5.59c0-2.34-0.7-4.2-1.87-5.75
				c-0.68-0.93-1.54-1.75-2.52-2.51c-0.78-0.61-1.63-1.17-2.54-1.72c-1.05-0.63-2.16-1.24-3.31-1.86
				c-3.58-1.92-7.47-3.92-10.52-6.97c-3.06-3.06-5.06-6.96-6.98-10.55c-0.62-1.15-1.23-2.26-1.87-3.31
				c-0.55-0.92-1.13-1.78-1.74-2.56c-0.77-0.99-1.61-1.85-2.55-2.53h-0.01c-1.54-1.14-3.36-1.81-5.65-1.81
				c-2.33,0-4.2,0.68-5.77,1.83c-0.96,0.69-1.82,1.56-2.6,2.55c-0.64,0.79-1.24,1.66-1.8,2.59c-0.68,1.07-1.31,2.21-1.96,3.37
				c-1.92,3.47-3.93,7.2-6.91,10.18c-2.97,2.97-6.69,4.97-10.15,6.89c-1.18,0.66-2.33,1.31-3.41,1.98c-0.9,0.56-1.76,1.14-2.54,1.76
				c-0.99,0.78-1.86,1.62-2.55,2.58C135.588,473.745,134.888,475.625,134.888,477.985z M166.208,486.195
				c-4.56-4.55-4.56-11.94,0-16.49c4.55-4.55,11.94-4.55,16.49,0c4.56,4.55,4.56,11.94,0,16.49
				C178.148,490.755,170.758,490.755,166.208,486.195z"/>
		</g>
	</g>
	<g>
		<g>
			<path fill="#EC6F93" d="M143.738,477.945c0,7.86,10.66,8.06,16.66,14.06c0.83,0.83,1.54,1.74,2.18,2.71
				c0.25,0.37,0.49,0.75,0.71,1.14c3.47,5.84,4.81,12.81,11.17,12.81c7.86,0,8.24-10.47,14.24-16.47c5.99-6,16.47-6.38,16.47-14.24
				c0-7.86-10.12-8.6-16.12-14.6c-5.99-6-6.73-16.12-14.59-16.12c-7.86,0-8.79,9.94-14.78,15.94
				C153.678,469.165,143.738,470.085,143.738,477.945z M166.208,486.195c-4.56-4.55-4.56-11.94,0-16.49
				c4.55-4.55,11.94-4.55,16.49,0c4.56,4.55,4.56,11.94,0,16.49C178.148,490.755,170.758,490.755,166.208,486.195z"/>
		</g>
	</g>
	<g>
		<g>
			<path d="M132.888,477.985c0,4.11,1.85,6.85,4.51,8.95c0.79,0.64,1.65,1.22,2.56,1.75c0.83,0.5,1.71,0.97,2.6,1.42
				c0.8,0.4,1.62,0.8,2.43,1.19c0.36,0.17,0.72,0.35,1.08,0.53c3.2,1.55,6.41,3.22,8.87,5.69c1.37,1.37,2.5,2.97,3.5,4.67
				c0.79,1.34,1.49,2.75,2.17,4.16c0.19,0.37,0.37,0.75,0.55,1.12c0.38,0.79,0.76,1.58,1.16,2.36c0.44,0.9,0.91,1.78,1.41,2.62
				c0.53,0.91,1.1,1.77,1.73,2.56c2.12,2.68,4.87,4.56,9,4.56c4.17,0,6.97-1.9,9.13-4.6c0.65-0.8,1.23-1.67,1.78-2.58
				c0.52-0.86,1.01-1.75,1.49-2.66c0.37-0.73,0.74-1.46,1.1-2.19c0.23-0.45,0.45-0.9,0.69-1.36c1.53-3.03,3.19-6.05,5.56-8.42
				c2.37-2.37,5.41-4.04,8.45-5.58c0.44-0.22,0.89-0.45,1.33-0.67c0.74-0.37,1.48-0.74,2.22-1.12c0,0,0-0.01,0.01,0
				c0.91-0.48,1.8-0.97,2.66-1.49c0.92-0.55,1.79-1.15,2.59-1.8c2.68-2.16,4.55-4.95,4.55-9.1c0-4.22-1.89-7.09-4.59-9.35v-0.01
				c-0.82-0.68-1.71-1.31-2.64-1.9c-0.88-0.56-1.79-1.09-2.72-1.6c-0.65-0.36-1.3-0.71-1.95-1.06c-0.59-0.32-1.18-0.63-1.77-0.95
				c-2.75-1.51-5.47-3.14-7.68-5.35c-2.21-2.21-3.85-4.94-5.35-7.71c-0.32-0.57-0.63-1.15-0.94-1.73c-0.36-0.66-0.71-1.33-1.08-1.99
				c-0.51-0.93-1.04-1.85-1.62-2.73c-0.58-0.93-1.22-1.82-1.91-2.64c-2.25-2.67-5.12-4.54-9.31-4.54c-4.25,0-7.16,1.89-9.46,4.58
				c-0.72,0.82-1.37,1.73-1.97,2.67c-0.6,0.9-1.15,1.83-1.69,2.78c-0.35,0.6-0.68,1.21-1.02,1.81c-0.37,0.67-0.74,1.35-1.12,2.02
				c-1.48,2.59-3.09,5.15-5.19,7.25c-2.1,2.1-4.65,3.7-7.23,5.17c-0.68,0.39-1.36,0.76-2.04,1.14c-0.61,0.34-1.22,0.68-1.82,1.02
				v0.01c-0.93,0.52-1.86,1.07-2.74,1.64c-0.94,0.61-1.83,1.26-2.66,1.96C134.808,470.795,132.888,473.715,132.888,477.985z
				 M146.728,487.695c-0.98-0.47-1.89-0.92-2.74-1.36c-1.12-0.58-2.12-1.14-3-1.72c-0.93-0.62-1.71-1.26-2.34-1.95
				c-1.15-1.28-1.76-2.75-1.76-4.68c0-2.04,0.63-3.63,1.8-5.03c0.64-0.78,1.45-1.5,2.41-2.19c0.91-0.68,1.96-1.34,3.13-2.03
				c0.76-0.44,1.58-0.9,2.45-1.38c3.33-1.84,7.11-3.94,10.15-6.98c3.05-3.05,5.14-6.82,6.99-10.16c0.49-0.88,0.95-1.71,1.41-2.49
				c0.68-1.16,1.33-2.2,2-3.1c0.72-0.98,1.45-1.8,2.26-2.45c1.38-1.13,2.96-1.74,4.97-1.74c1.98,0,3.53,0.61,4.88,1.73
				c0.78,0.65,1.49,1.46,2.17,2.43c0.65,0.89,1.28,1.91,1.92,3.05c0.46,0.8,0.93,1.67,1.42,2.58c1.83,3.42,3.9,7.29,7,10.38
				c3.09,3.09,6.96,5.17,10.38,7c0.9,0.48,1.74,0.94,2.53,1.39c1.14,0.65,2.16,1.27,3.06,1.92c0.96,0.67,1.77,1.38,2.42,2.14
				c1.15,1.36,1.78,2.93,1.78,4.94c0,1.96-0.62,3.47-1.77,4.78c-0.65,0.71-1.44,1.37-2.38,2.01c-0.88,0.6-1.89,1.19-3.02,1.78
				c-0.82,0.44-1.7,0.89-2.64,1.36c-3.59,1.79-7.64,3.82-10.82,7c-3.18,3.18-5.21,7.24-7,10.82c-0.46,0.93-0.91,1.8-1.34,2.61
				c-0.6,1.12-1.18,2.13-1.78,3.01c-0.63,0.95-1.29,1.75-2.01,2.39c-1.31,1.18-2.83,1.81-4.8,1.81c-1.94,0-3.42-0.63-4.71-1.8
				c-0.69-0.63-1.33-1.42-1.95-2.36c-0.57-0.88-1.13-1.88-1.7-2.99c-0.44-0.84-0.88-1.73-1.34-2.69c-1.76-3.66-3.77-7.82-6.99-11.04
				c-1.61-1.61-3.45-2.92-5.35-4.05C150.518,489.515,148.558,488.575,146.728,487.695z"/>
		</g>
	</g>
	<g>
		<path d="M164.792,487.608L164.792,487.608c-2.582-2.578-4.004-6.008-4.004-9.658c0-3.651,1.423-7.082,4.006-9.659
			c2.578-2.578,6.009-3.998,9.659-3.998s7.081,1.42,9.658,3.996c2.584,2.579,4.007,6.01,4.007,9.661s-1.423,7.082-4.004,9.658
			c-2.579,2.584-6.01,4.007-9.661,4.007S167.371,490.192,164.792,487.608z M167.621,471.121c-1.827,1.822-2.833,4.248-2.833,6.829
			s1.006,5.007,2.833,6.829l0.003,0.003c1.822,1.827,4.248,2.833,6.829,2.833s5.007-1.006,6.832-2.836
			c1.827-1.822,2.833-4.248,2.833-6.829s-1.006-5.007-2.834-6.831c-1.884-1.883-4.356-2.824-6.83-2.824
			C171.979,468.295,169.504,469.236,167.621,471.121z"/>
	</g>
	<g>
		<path fill="#FFF2BC" d="M173.855,455.489c0.497,0,0.993-0.189,1.371-0.568l1.197-1.198c0.757-0.757,0.757-1.985-0.001-2.742
			c-0.758-0.756-1.985-0.756-2.742,0.001l-1.197,1.198c-0.757,0.757-0.757,1.985,0.001,2.742
			C172.863,455.299,173.359,455.489,173.855,455.489z"/>
	</g>
	<g>
		<path fill="#FFF2BC" d="M173.855,505.489c0.497,0,0.993-0.189,1.371-0.568l1.197-1.198c0.757-0.757,0.757-1.985-0.001-2.742
			c-0.758-0.756-1.985-0.756-2.742,0.001l-1.197,1.198c-0.757,0.757-0.757,1.985,0.001,2.742
			C172.863,505.299,173.359,505.489,173.855,505.489z"/>
	</g>
	<g>
		<path fill="#FFF2BC" d="M193.275,468.221c0-0.497-0.189-0.993-0.568-1.371l-1.198-1.197c-0.757-0.757-1.985-0.757-2.742,0.001
			c-0.756,0.758-0.756,1.985,0.001,2.742l1.198,1.197c0.757,0.757,1.985,0.757,2.742-0.001
			C193.086,469.213,193.275,468.717,193.275,468.221z"/>
	</g>
	<g>
		<path fill="#FFF2BC" d="M158.588,467.455c-0.351-0.351-0.836-0.568-1.371-0.568l-1.693,0c-1.071,0-1.939,0.869-1.939,1.939
			c0.002,1.07,0.869,1.939,1.939,1.939l1.693,0c1.071,0,1.939-0.869,1.939-1.939C159.156,468.291,158.939,467.806,158.588,467.455z"
			/>
	</g>
	<g>
		<path fill="#FFF2BC" d="M151.074,479.591c0-0.497-0.189-0.993-0.568-1.371l-1.198-1.197c-0.757-0.757-1.985-0.757-2.742,0.001
			c-0.756,0.758-0.756,1.985,0.001,2.742l1.198,1.197c0.757,0.757,1.985,0.757,2.742-0.001
			C150.885,480.584,151.074,480.087,151.074,479.591z"/>
	</g>
	<g>
		<path fill="#FFF2BC" d="M167.546,492.955c-0.351-0.351-0.836-0.568-1.371-0.568l-1.693,0c-1.071,0-1.939,0.869-1.939,1.939
			c0.002,1.07,0.869,1.939,1.939,1.939l1.693,0c1.071,0,1.939-0.869,1.939-1.939C168.113,493.791,167.897,493.306,167.546,492.955z"
			/>
	</g>
	<g>
		<path fill="#FFF2BC" d="M200.943,480.534c0.497,0,0.993-0.189,1.371-0.568l1.197-1.198c0.757-0.757,0.757-1.985-0.001-2.742
			c-0.758-0.756-1.985-0.756-2.742,0.001l-1.197,1.198c-0.757,0.757-0.757,1.985,0.001,2.742
			C199.95,480.344,200.446,480.534,200.943,480.534z"/>
	</g>
</g>
<g id="_x31_0">
	<g>
		<circle fill="#D66C53" cx="325.301" cy="450.46" r="22.302"/>
	</g>
	<g>
		<path fill="#E9785A" d="M325.301,472.762c12.317,0,12.317-44.605,0-44.605C312.983,428.157,312.983,472.762,325.301,472.762z"/>
	</g>
	<g>
		<path d="M300.998,450.459c0-13.4,10.902-24.302,24.303-24.302s24.303,10.901,24.303,24.302s-10.902,24.303-24.303,24.303
			S300.998,463.86,300.998,450.459z M304.998,450.459c0,11.195,9.107,20.303,20.303,20.303s20.303-9.107,20.303-20.303
			c0-11.194-9.107-20.302-20.303-20.302S304.998,439.265,304.998,450.459z"/>
	</g>
	<g>
		<path fill="#E9785A" d="M347.348,444.461h-44.121c-0.889,0-1.678,0.568-1.959,1.411l0,0c-0.995,2.978-0.995,6.198,0,9.176l0,0
			c0.282,0.843,1.071,1.411,1.959,1.411h44.121c0.901,0,1.698-0.584,1.969-1.442l0.059-0.188c0.9-2.843,0.9-5.895,0-8.738
			l-0.059-0.188C349.046,445.044,348.249,444.461,347.348,444.461z"/>
	</g>
	<g>
		<path fill="#D66C53" d="M347.348,444.461h-44.121c-0.889,0-1.678,0.284-1.959,0.706l0,0c-0.995,1.489-0.995,3.099,0,4.588l0,0
			c0.282,0.421,1.071,0.706,1.959,0.706h44.121c0.901,0,1.698-0.292,1.969-0.721l0.059-0.094c0.9-1.422,0.9-2.947,0-4.369
			l-0.059-0.094C349.046,444.753,348.249,444.461,347.348,444.461z"/>
	</g>
	<g>
		<path d="M299.37,455.681c-1.124-3.367-1.124-7.075,0.001-10.443c0.556-1.66,2.105-2.776,3.856-2.776h44.121
			c1.781,0,3.339,1.142,3.875,2.837l0.06,0.189c1.03,3.253,1.03,6.691,0,9.946l-0.059,0.185c-0.537,1.698-2.095,2.84-3.876,2.84
			h-44.121C301.477,458.458,299.927,457.343,299.37,455.681z M303.165,446.506c-0.852,2.55-0.852,5.357,0.062,7.952l44.184-0.048
			l0.06-0.186c0.779-2.463,0.779-5.067,0-7.528l-0.061-0.19c-0.009-0.027-0.033-0.045-0.062-0.045L303.165,446.506z"/>
	</g>
	<g>
		<path fill="#EDEDED" d="M324.201,529.74h2.2c1.142,0,2.068-0.926,2.068-2.068v-54.909h-6.336v54.909
			C322.132,528.814,323.058,529.74,324.201,529.74z"/>
		<path d="M326.4,531.74h-2.2c-2.243,0-4.068-1.825-4.068-4.068v-56.909h10.336v56.909C330.469,529.915,328.644,531.74,326.4,531.74
			z M324.132,474.763v52.909l0.068,0.068h2.2l0.066-52.978H324.132z"/>
	</g>
</g>
<g id="_x31_1">
	<g>
		<path fill="#FDC784" d="M439.523,479.628c0,1.634,0.665,3.122,1.742,4.198c1.076,1.076,2.564,1.742,4.208,1.742h57.064
			c3.278,0,5.94-2.662,5.94-5.94c0-1.644-0.665-3.132-1.742-4.208c-0.714-0.714-1.595-1.243-2.593-1.517v-1.84
			c0-15.815-12.82-28.645-28.645-28.645h-3.22c-15.824,0-28.645,12.83-28.645,28.645v1.908
			C441.245,474.744,439.523,476.985,439.523,479.628z"/>
	</g>
	<g>
		<path fill="#F1BA7B" d="M438.975,479.559c-0.088,3.357,2.838,6.097,6.195,6.097h6.439c0,0-0.01-0.049-0.02-0.137h44.596
			c-0.02,0.049-0.02,0.078-0.02,0.078h6.439c3.357,0,6.283-2.74,6.195-6.097c-0.039-1.585-0.695-3.004-1.742-4.051
			c-0.714-0.714-1.595-1.243-2.593-1.517v-1.84c0-15.825-12.82-28.645-28.645-28.645h-3.22c0.078,0.02,0.166,0.039,0.245,0.059
			h-0.891c-15.825,0-28.645,12.83-28.645,28.645v1.84c-0.998,0.274-1.879,0.802-2.593,1.517
			C439.67,476.555,439.014,477.974,438.975,479.559z M457.365,476.457c-3.404,0-5.983-3.055-5.431-6.414
			c0.324-1.969,0.78-4.009,1.417-6.044c6.273-20.072,34.888-20.042,41.103,0.049c0.63,2.025,1.081,4.05,1.4,6.004
			c0.548,3.356-2.032,6.405-5.432,6.405H457.365z"/>
	</g>
	<g>
		<path fill="#FFFFFF" d="M445.541,485.568c4.12,10.736,14.533,18.359,26.736,18.359h3.22c12.204,0,22.616-7.624,26.736-18.359
			H445.541z"/>
		<path d="M475.497,505.927h-3.22c-12.6,0-24.095-7.894-28.604-19.643c-0.236-0.615-0.154-1.307,0.219-1.85s0.99-0.867,1.648-0.867
			h56.692c0.658,0,1.275,0.324,1.648,0.867s0.455,1.234,0.219,1.85C499.592,498.033,488.097,505.927,475.497,505.927z
			 M448.633,487.567c4.532,8.695,13.691,14.359,23.645,14.359h3.22c9.953,0,19.112-5.664,23.645-14.359H448.633z"/>
	</g>
	<g>
		<path fill="#EDEDED" d="M445.332,487.976l7.011,21.897c0.647,2.022,2.527,3.393,4.65,3.393h34.02c2.123,0,4.002-1.372,4.649-3.393
			l7.011-21.897c0.38-1.188-0.506-2.403-1.754-2.403h-53.833C445.838,485.573,444.951,486.788,445.332,487.976z"/>
	</g>
	<g>
		<path fill="#FCFAFB" d="M456.921,487.921l5.974,21.897c0.552,2.022,2.153,3.393,3.962,3.393h14.06c1.809,0,3.41-1.372,3.962-3.393
			l5.974-21.897c0.324-1.188-0.431-2.403-1.494-2.403h-30.943C457.353,485.518,456.597,486.732,456.921,487.921z"/>
	</g>
	<g>
		<path d="M450.478,510.47l-7.011-21.897c-0.368-1.152-0.163-2.422,0.55-3.398c0.713-0.976,1.86-1.559,3.069-1.559h53.833
			c1.209,0,2.356,0.583,3.069,1.56s0.918,2.247,0.549,3.398l-7.011,21.896c-0.91,2.844-3.527,4.754-6.514,4.754h-34.02
			C454.006,515.224,451.389,513.313,450.478,510.47z M447.244,487.53l6.963,21.746c0.389,1.216,1.509,2.033,2.785,2.033h34.02
			c1.277,0,2.396-0.817,2.785-2.033l6.963-21.746H447.244z"/>
	</g>
	<g>
		<path d="M504.144,475.676h-4.435c-1.104,0-2-0.896-2-2s0.896-2,2-2h4.435c1.104,0,2,0.896,2,2S505.248,475.676,504.144,475.676z"
			/>
	</g>
	<g>
		<path d="M448.178,475.976h-4.435c-1.104,0-2-0.896-2-2s0.896-2,2-2h4.435c1.104,0,2,0.896,2,2S449.282,475.976,448.178,475.976z"
			/>
	</g>
	<g>
		<path d="M463.952,515.267c-0.958,0-1.804-0.689-1.97-1.665l-2.909-17.128c-0.185-1.089,0.548-2.122,1.637-2.307
			c1.097-0.191,2.121,0.549,2.307,1.637l2.909,17.128c0.185,1.089-0.548,2.122-1.637,2.307
			C464.176,515.258,464.062,515.267,463.952,515.267z"/>
	</g>
	<g>
		<path d="M484.07,515.267c-0.111,0-0.224-0.009-0.337-0.028c-1.089-0.185-1.822-1.218-1.637-2.307l2.91-17.128
			c0.186-1.089,1.217-1.826,2.307-1.637c1.089,0.185,1.822,1.218,1.637,2.307l-2.91,17.128
			C485.874,514.577,485.028,515.267,484.07,515.267z"/>
	</g>
	<g>
		<path d="M474.002,514.754c-1.104,0-2-0.896-2-2v-18.021c0-1.104,0.896-2,2-2s2,0.896,2,2v18.021
			C476.002,513.858,475.106,514.754,474.002,514.754z"/>
	</g>
	<g>
		<path d="M481.604,475.976H466.4c-1.104,0-2-0.896-2-2s0.896-2,2-2h15.203c1.104,0,2,0.896,2,2S482.708,475.976,481.604,475.976z"
			/>
	</g>
	<g>
		<path fill="#E07659" d="M454.121,463.616c0.486,0,0.971-0.185,1.342-0.556l1.172-1.172c0.741-0.741,0.741-1.943-0.001-2.683
			c-0.742-0.74-1.943-0.74-2.683,0.001l-1.172,1.172c-0.741,0.741-0.741,1.943,0.001,2.683
			C453.15,463.431,453.636,463.616,454.121,463.616z"/>
	</g>
	<g>
		<path fill="#E07659" d="M466.402,468.458c0.485,0,0.971-0.185,1.341-0.556c0.741-0.741,0.741-1.942,0-2.683l-1.172-1.172
			c-0.741-0.741-1.942-0.741-2.683,0c-0.741,0.741-0.741,1.942,0,2.683l1.172,1.172
			C465.431,468.273,465.916,468.458,466.402,468.458z"/>
	</g>
	<g>
		<path fill="#E07659" d="M493.883,463.554c-0.486,0-0.971-0.185-1.342-0.556l-1.172-1.172c-0.741-0.741-0.741-1.943,0.001-2.683
			c0.742-0.74,1.943-0.74,2.683,0.001l1.172,1.172c0.741,0.741,0.741,1.943-0.001,2.683
			C494.854,463.369,494.368,463.554,493.883,463.554z"/>
	</g>
	<g>
		<path fill="#E07659" d="M481.602,468.396c-0.485,0-0.971-0.185-1.341-0.556c-0.741-0.741-0.741-1.942,0-2.683l1.172-1.172
			c0.741-0.741,1.942-0.741,2.683,0c0.741,0.741,0.741,1.942,0,2.683l-1.172,1.172C482.573,468.211,482.088,468.396,481.602,468.396
			z"/>
	</g>
	<g>
		<path fill="#E07659" d="M476.485,454.733c0,0.485-0.185,0.971-0.556,1.341c-0.741,0.741-1.942,0.741-2.683,0l-1.172-1.172
			c-0.741-0.741-0.741-1.942,0-2.683c0.741-0.741,1.942-0.741,2.683,0l1.172,1.172C476.3,453.763,476.485,454.248,476.485,454.733z"
			/>
	</g>
	<g>
		<path d="M439.881,485.21c-1.493-1.493-2.316-3.475-2.316-5.582c0-2.939,1.604-5.573,4.11-6.937v-0.628
			c0-16.874,13.728-30.602,30.601-30.602h3.22c16.874,0,30.602,13.728,30.602,30.602v0.508c0.741,0.375,1.424,0.869,2.02,1.465
			c1.493,1.493,2.315,3.479,2.315,5.592c0,4.355-3.543,7.897-7.897,7.897h-57.064C443.359,487.525,441.373,486.702,439.881,485.21z
			 M472.277,445.375c-14.715,0-26.687,11.972-26.687,26.687v3.332l-1.354,0.439c-1.649,0.534-2.756,2.059-2.756,3.794
			c0,1.061,0.415,2.06,1.169,2.815c0.753,0.754,1.756,1.168,2.824,1.168h57.064c2.196,0,3.983-1.787,3.983-3.983
			c0-1.068-0.415-2.071-1.168-2.824c-0.493-0.493-1.075-0.834-1.728-1.014l-1.438-0.395v-3.332
			c0-14.715-11.972-26.687-26.688-26.687H472.277z"/>
	</g>
</g>
<g id="_x31_2">
	<g>
		<path fill="#F7C48D" d="M622.084,528.775h7.683c3.007,0,5.599-2.114,6.203-5.059l7.301-35.555H608.58l7.301,35.555
			C616.486,526.661,619.078,528.775,622.084,528.775z"/>
	</g>
	<g>
		<path fill="#EBB886" d="M608.462,488.157l7.307,35.563c0.426,2.065,1.825,3.723,3.667,4.519c0.778,0.352,1.639,0.537,2.538,0.537
			h7.881c0.695,0,1.38-0.111,2.01-0.333c2.102-0.695,3.732-2.463,4.195-4.723l7.307-35.563h-6.298l-5.899,33.214
			c-0.337,1.9-1.989,3.284-3.919,3.284h-2.674c-1.93,0-3.581-1.384-3.919-3.284l-5.899-33.214H608.462z"/>
	</g>
	<g>
		<path fill="#F6C484" d="M608.928,488.161h33.917c1.501,0,2.762-1.129,2.928-2.621l1.404-12.621
			c0.052-0.467-0.314-0.876-0.784-0.876h-40.939c-0.468,0-0.833,0.406-0.784,0.871l1.328,12.609
			C606.156,487.023,607.42,488.161,608.928,488.161z"/>
	</g>
	<g>
		<path fill="#E9B47A" d="M604.563,472.922l1.408,12.614c0.167,1.5,1.426,2.621,2.927,2.621h5.649l-0.635-6.647
			c-0.191-1.993,1.376-3.717,3.378-3.717h17.251c2.002,0,3.569,1.724,3.378,3.717l-0.636,6.647h5.649c1.5,0,2.76-1.127,2.926-2.618
			l1.408-12.617c0.046-0.472-0.315-0.88-0.787-0.88h-41.129c-0.056,0-0.12,0.009-0.167,0.018
			C604.795,472.144,604.526,472.506,604.563,472.922z"/>
	</g>
	<g>
		<path d="M604.156,485.718l-1.328-12.608c-0.079-0.743,0.163-1.488,0.662-2.044c0.5-0.556,1.216-0.875,1.963-0.875h40.939
			c0.751,0,1.468,0.321,1.968,0.88c0.5,0.559,0.739,1.307,0.657,2.053l-1.404,12.621c-0.271,2.434-2.321,4.269-4.769,4.269h-33.917
			C606.465,490.014,604.414,488.167,604.156,485.718z M606.635,473.896l1.204,11.434c0.059,0.558,0.527,0.979,1.088,0.979h33.917
			c0.558,0,1.026-0.419,1.088-0.973l1.272-11.44H606.635z"/>
	</g>
	<g>
		<path d="M641.059,499.804h-21.622c-1.104,0-2-0.896-2-2s0.896-2,2-2h21.622c1.104,0,2,0.896,2,2S642.163,499.804,641.059,499.804z
			"/>
	</g>
	<g>
		<path d="M630.248,510.468h-8.667c-1.104,0-2-0.896-2-2s0.896-2,2-2h8.667c1.104,0,2,0.896,2,2S631.353,510.468,630.248,510.468z"
			/>
	</g>
	<g>
		<path d="M628.391,521.133h-12.956c-1.104,0-2-0.896-2-2s0.896-2,2-2h12.956c1.104,0,2,0.896,2,2S629.495,521.133,628.391,521.133z
			"/>
	</g>
	<g>
		<path d="M612.372,499.804h-1.812c-1.104,0-2-0.896-2-2s0.896-2,2-2h1.812c1.104,0,2,0.896,2,2S613.477,499.804,612.372,499.804z"
			/>
	</g>
	<g>
		<path d="M636.814,521.607h-1.906c-1.104,0-2-0.896-2-2s0.896-2,2-2h1.906c1.104,0,2,0.896,2,2S637.919,521.607,636.814,521.607z"
			/>
	</g>
	<g>
		<path d="M614.456,510.468h-1.706c-1.104,0-2-0.896-2-2s0.896-2,2-2h1.706c1.104,0,2,0.896,2,2S615.561,510.468,614.456,510.468z"
			/>
	</g>
	<g>
		<path d="M639.102,510.468h-1.878c-1.104,0-2-0.896-2-2s0.896-2,2-2h1.878c1.104,0,2,0.896,2,2S640.206,510.468,639.102,510.468z"
			/>
	</g>
	<g>
		<path fill="#EC6F93" d="M600.642,468.319c0,1.028,0.417,1.963,1.093,2.63c0.676,0.676,1.602,1.093,2.63,1.093h6.576
			c1.815,0,3.287,1.472,3.287,3.287l0,0c0,1.777,1.183,3.416,2.923,3.776c1.294,0.267,2.526-0.178,3.356-0.997
			c0.667-0.667,1.074-1.584,1.074-2.602v-0.176c0-1.816,1.472-3.287,3.287-3.287h22.596c1.787,0,3.431-1.189,3.799-2.938
			c0.276-1.314-0.164-2.571-1.01-3.406c-0.667-0.676-1.602-1.093-2.63-1.093h-0.519c1.269-2.112,2-4.575,2-7.214
			c0-6.149-3.992-11.373-9.521-13.206c0.213-0.942,0.324-1.919,0.333-2.922c0.056-6.63-4.353-12.327-10.837-13.715
			c-9.042-1.935-17.011,4.898-17.011,13.589c0,1.028,0.111,2.028,0.324,2.991c-5.612,1.797-9.669,7.057-9.669,13.262
			c0,2.639,0.732,5.103,2,7.214h-0.361C602.309,464.606,600.642,466.273,600.642,468.319z"/>
	</g>
	<g>
		<path fill="#D5618D" d="M600.734,468.319c0,1.028,0.417,1.963,1.093,2.63c0.676,0.676,1.602,1.093,2.63,1.093h2.223v0.102h4.871
			c1.602,0,2.908,1.297,2.908,2.908v0.426c0,2.047,1.658,3.704,3.704,3.704c1.01,0,1.926-0.407,2.593-1.065
			c0.667-0.658,1.093-1.574,1.102-2.584l0.009-0.528c0.028-1.584,1.315-2.862,2.908-2.862h17.522v-0.102h5.233
			c1.028,0,1.954-0.417,2.63-1.093c0.676-0.667,1.093-1.602,1.093-2.63c0-2.047-1.667-3.714-3.723-3.714h-0.361
			c1.269-2.112,2-4.575,2-7.214c0-6.205-4.056-11.465-9.669-13.262c0.213-0.963,0.324-1.963,0.324-2.991
			c0-6.446-4.39-11.873-10.336-13.456c-1.093-0.287-2.232-0.445-3.408-0.463h-0.176c-1.176,0.018-2.315,0.176-3.408,0.463
			c-5.946,1.584-10.335,7.011-10.335,13.456c0,1.028,0.111,2.028,0.324,2.991c-5.612,1.797-9.669,7.057-9.669,13.262
			c0,2.639,0.732,5.103,2,7.214h-0.361C602.401,464.605,600.734,466.272,600.734,468.319z M615.814,464.688
			c-3.349,0-6.064-2.786-5.907-6.132c0.284-6.065,2.832-10.593,4.413-13.465c1.019-1.871,1.908-4.39,3.417-6.872
			c3.76-6.186,12.743-6.186,16.513,0c1.51,2.482,2.399,5.001,3.417,6.872c1.581,2.872,4.129,7.4,4.413,13.465
			c0.157,3.346-2.557,6.132-5.907,6.132H615.814z"/>
	</g>
	<g>
		<path fill="#F3B346" d="M626.082,427.218c1.176,0.018,2.315,0.176,3.408,0.463c-0.111-0.065-0.222-0.111-0.324-0.13
			C628.119,427.329,627.091,427.218,626.082,427.218z"/>
	</g>
	<g>
		<path fill="#F3B346" d="M622.498,427.681c1.093-0.287,2.232-0.445,3.408-0.463c-1.009,0-2.037,0.111-3.084,0.333
			C622.72,427.569,622.609,427.616,622.498,427.681z"/>
	</g>
	<g>
		<g>
			<path d="M608.972,448.121c0.043-0.037,0.347-0.327,0.888-0.703c-0.458,0.31-0.899,0.642-1.305,1.009
				C608.703,448.352,608.842,448.251,608.972,448.121z"/>
		</g>
		<g>
			<path d="M610.87,446.797c-0.401,0.216-0.734,0.429-1.011,0.621C610.187,447.196,610.519,446.982,610.87,446.797z"/>
		</g>
	</g>
	<g>
		<path d="M647.626,466.603h-1.722c-1.104,0-2-0.896-2-2s0.896-2,2-2h1.722c1.104,0,2,0.896,2,2S648.73,466.603,647.626,466.603z"/>
	</g>
	<g>
		<path d="M606.004,466.603h-1.642c-1.104,0-2-0.896-2-2s0.896-2,2-2h1.642c1.104,0,2,0.896,2,2S607.108,466.603,606.004,466.603z"
			/>
	</g>
	<g>
		<g>
			<path d="M598.794,468.319c0,1.5,0.583,2.899,1.639,3.945c1.047,1.047,2.445,1.63,3.936,1.63h6.576
				c0.787,0,1.435,0.639,1.435,1.435c0,2.714,1.843,5.066,4.399,5.594c0.37,0.074,0.75,0.111,1.121,0.111
				c1.445,0,2.852-0.565,3.908-1.602c1.056-1.056,1.63-2.445,1.63-3.927v-0.176c0-0.796,0.639-1.435,1.426-1.435h22.597
				c2.723,0,5.075-1.852,5.612-4.408c0.398-1.871-0.176-3.779-1.519-5.103c-0.491-0.5-1.074-0.898-1.704-1.176
				c0.732-1.843,1.111-3.816,1.111-5.816c0-6.27-3.677-11.864-9.298-14.383c0.065-0.574,0.102-1.148,0.102-1.732
				c0.065-7.585-4.992-13.975-12.299-15.54c-4.779-1.019-9.659,0.12-13.392,3.13c-3.723,3.019-5.853,7.483-5.853,12.271
				c0,0.602,0.028,1.204,0.102,1.797c-5.714,2.491-9.446,8.113-9.446,14.457c0,2.028,0.38,4.019,1.13,5.89
				C600.109,464.161,598.794,466.088,598.794,468.319z M602.498,468.319c0-1.028,0.833-1.862,1.871-1.862h0.361
				c0.667,0,1.278-0.361,1.611-0.945c0.308-0.545,0.315-1.215,0.022-1.773c-0.366-0.696-0.798-1.361-1.055-2.104
				c-1.749-5.058-0.215-10.098,3.246-13.21c0.695-0.63,1.473-1.185,2.315-1.63c1.175-0.633,2.878-1.267,5.054-1.359
				c0.935-0.04,1.76-0.753,1.839-1.686c0.096-1.124-0.806-2.071-1.911-2.012c-0.349,0.015-0.688,0.039-1.018,0.073
				c-0.365-0.343-0.542-0.508-0.907-0.851c0.051-3.592,1.675-6.946,4.481-9.215c2.852-2.306,6.603-3.177,10.289-2.389
				c5.566,1.195,9.419,6.085,9.363,11.891c0,0.871-0.102,1.723-0.287,2.528c-0.204,0.926,0.324,1.862,1.232,2.167
				c6.249,2.079,9.921,8.911,7.5,15.733c-0.252,0.71-0.644,1.359-1.014,2.016c-0.319,0.567-0.32,1.26-0.004,1.829
				c0.333,0.574,0.945,0.935,1.621,0.935h0.519c0.5,0,0.963,0.194,1.306,0.537c0.463,0.463,0.648,1.102,0.519,1.732
				c-0.176,0.834-1.028,1.463-1.991,1.463h-22.588c-2.839,0-5.14,2.301-5.14,5.14v0.176c0,0.491-0.194,0.954-0.537,1.297
				c-0.435,0.426-1.065,0.621-1.667,0.491c-0.824-0.176-1.445-1.019-1.445-1.963c0-2.834-2.306-5.14-5.14-5.14h-6.576
				c-0.5,0-0.972-0.194-1.324-0.546C602.683,469.292,602.498,468.82,602.498,468.319z"/>
		</g>
	</g>
	<g>
		<path fill="#E9B47A" d="M605.184,472.042v0.018c0.046-0.009,0.111-0.018,0.167-0.018H605.184z"/>
	</g>
	<g>
		<path fill="#EBB886" d="M628.953,526.516h2.17v-0.36C630.443,526.396,629.703,526.516,628.953,526.516z"/>
	</g>
	<g>
		<path fill="#EBB886" d="M617.703,525.936v0.58h2.74C619.473,526.516,618.543,526.316,617.703,525.936z"/>
	</g>
	<g>
		<path d="M614.067,524.089l-7.301-35.555c-0.112-0.545,0.027-1.112,0.379-1.543c0.352-0.431,0.879-0.682,1.435-0.682h34.691
			c0.557,0,1.083,0.251,1.435,0.682c0.352,0.431,0.491,0.998,0.379,1.543l-7.301,35.555c-0.778,3.789-4.15,6.539-8.018,6.539h-7.683
			C618.217,530.628,614.845,527.878,614.067,524.089z M610.852,490.014l6.844,33.33c0.426,2.074,2.272,3.58,4.389,3.58h7.683
			c2.117,0,3.963-1.506,4.389-3.58l6.844-33.33H610.852z"/>
	</g>
	<g>
		<path d="M638.606,466.69h-13.482c-1.104,0-2-0.896-2-2s0.896-2,2-2h13.482c1.104,0,2,0.896,2,2S639.711,466.69,638.606,466.69z"/>
	</g>
</g>
</svg>
