<?xml version="1.0" encoding="UTF-8" standalone="no"?>
<svg width="64px" height="64px" viewBox="0 0 64 64" version="1.1" xmlns="http://www.w3.org/2000/svg" xmlns:xlink="http://www.w3.org/1999/xlink" xmlns:sketch="http://www.bohemiancoding.com/sketch/ns">
    <!-- Generator: Sketch 3.0.3 (7891) - http://www.bohemiancoding.com/sketch -->
    <title>35mm-film</title>
    <desc>Created with Sketch.</desc>
    <defs></defs>
    <g id="Page-1" stroke="none" stroke-width="1" fill="none" fill-rule="evenodd" sketch:type="MSPage">
        <g id="35mm-film" sketch:type="MSLayerGroup" transform="translate(1.000000, 1.000000)" stroke="#6B6C6E" stroke-width="2">
            <path d="M7,12 L2,12 C0.9,12 0,11.1 0,10 L0,6 C0,4.9 0.9,4 2,4 L39,4 C40.1,4 41,4.9 41,6 L41,10 C41,11.1 40.1,12 39,12 L34.1,12.1" id="Shape" sketch:type="MSShapeGroup"></path>
            <path d="M34.1,54.1 L39,54 C40.1,54 41,54.9 41,56 L41,60 C41,61.1 40.1,62 39,62 L2,62 C0.9,62 0,61.1 0,60 L0,56 C0,54.9 0.9,54 2,54 L7,54" id="Shape" sketch:type="MSShapeGroup"></path>
            <path d="M3,54 L3,12" id="Shape" sketch:type="MSShapeGroup"></path>
            <path d="M38,12 L38,54" id="Shape" sketch:type="MSShapeGroup"></path>
            <path d="M29,48 C29,49.1 28.1,50 27,50 L5,50 C3.9,50 3,49.1 3,48 L3,18 C3,16.9 3.9,16 5,16 L27,16 C28.1,16 29,16.9 29,18 L29,48 L29,48 Z" id="Shape" sketch:type="MSShapeGroup"></path>
            <path d="M14,5 L14,2 C14,0.9 14.8,0 15.8,0 L26.3,0 C27.3,0 28,0.9 28,2 L28,5" id="Shape" sketch:type="MSShapeGroup"></path>
            <path d="M49.5,15 L38,15 L38,51 L60,51 C61.1,51 62,50.1 62,49 L62,27.5 C55.8,26 51,21.2 49.5,15 L49.5,15 Z" id="Shape" sketch:type="MSShapeGroup"></path>
            <path d="M41,19 L43,19" id="Shape" sketch:type="MSShapeGroup"></path>
            <path d="M45,19 L47,19" id="Shape" sketch:type="MSShapeGroup"></path>
            <path d="M41,47 L43,47" id="Shape" sketch:type="MSShapeGroup"></path>
            <path d="M45,47 L47,47" id="Shape" sketch:type="MSShapeGroup"></path>
            <path d="M49,47 L51,47" id="Shape" sketch:type="MSShapeGroup"></path>
            <path d="M53,47 L55,47" id="Shape" sketch:type="MSShapeGroup"></path>
            <path d="M57,47 L59,47" id="Shape" sketch:type="MSShapeGroup"></path>
        </g>
    </g>
</svg>