<?xml version="1.0" encoding="UTF-8" standalone="no"?>
<svg width="64px" height="63px" viewBox="0 0 64 63" version="1.1" xmlns="http://www.w3.org/2000/svg" xmlns:xlink="http://www.w3.org/1999/xlink" xmlns:sketch="http://www.bohemiancoding.com/sketch/ns">
    <!-- Generator: Sketch 3.0.3 (7891) - http://www.bohemiancoding.com/sketch -->
    <title>Acoustic-guitar</title>
    <desc>Created with Sketch.</desc>
    <defs></defs>
    <g id="Page-1" stroke="none" stroke-width="1" fill="none" fill-rule="evenodd" sketch:type="MSPage">
        <g id="Acoustic-guitar" sketch:type="MSLayerGroup" transform="translate(1.000000, 1.000000)" stroke="#6B6C6E" stroke-width="2">
            <path d="M33.5,45.2 C33.4,44.6 34.4,43.4 35,43.3 C37.1,43 39.1,42.2 40.6,40.7 C44.4,36.9 44.1,30.4 40.3,25.1 L52.6,12.2 C53.3,12.9 54.5,12.9 55.3,12.2 L60.6,7 C61.3,6.3 61.3,5.1 60.6,4.4 L56.6,0.5 C55.9,-0.2 54.7,-0.2 53.9,0.5 L48.6,5.8 C47.9,6.5 47.9,7.7 48.6,8.4 L36.3,21.3 C31,17.5 24.3,17.2 20.5,21 C19,22.5 18.1,24.4 17.9,26.5 C17.8,27.1 16.6,28.1 16,28 C11.3,27.1 6.8,28.2 3.6,31.2 C-2.1,36.9 -0.9,47.4 6.5,54.6 C13.8,61.8 24.5,63.1 30.2,57.4 C33.3,54.4 34.3,49.9 33.5,45.2 L33.5,45.2 Z" id="Shape" sketch:type="MSShapeGroup"></path>
            <ellipse id="Oval" sketch:type="MSShapeGroup" cx="28.7" cy="32.6" rx="4.7" ry="4.6"></ellipse>
        </g>
    </g>
</svg>