<?xml version="1.0" encoding="UTF-8" standalone="no"?>
<svg width="64px" height="46px" viewBox="0 0 64 46" version="1.1" xmlns="http://www.w3.org/2000/svg" xmlns:xlink="http://www.w3.org/1999/xlink" xmlns:sketch="http://www.bohemiancoding.com/sketch/ns">
    <!-- Generator: Sketch 3.0.3 (7891) - http://www.bohemiancoding.com/sketch -->
    <title>Adjustment-horizol</title>
    <desc>Created with Sketch.</desc>
    <defs></defs>
    <g id="Page-1" stroke="none" stroke-width="1" fill="none" fill-rule="evenodd" sketch:type="MSPage">
        <g id="Adjustment-horizol" sketch:type="MSLayerGroup" transform="translate(1.000000, 1.000000)" stroke="#6B6C6E" stroke-width="2">
            <path d="M38,35 L60,35 C61.1,35 62,35.9 62,37 L62,39 C62,40.1 61.1,41 60,41 L38,41" id="Shape" sketch:type="MSShapeGroup"></path>
            <path d="M27.8,41 L2,41 C0.9,41 0,40.1 0,39 L0,37 C0,35.9 0.9,35 2,35 L27.8,35" id="Shape" sketch:type="MSShapeGroup"></path>
            <path d="M20.5,19 L60,19 C61.1,19 62,19.9 62,21 L62,23 C62,24.1 61.1,25 60,25 L20.5,25" id="Shape" sketch:type="MSShapeGroup"></path>
            <path d="M10,25 L2,25 C0.9,25 0,24.1 0,23 L0,21 C0,19.9 0.9,19 2,19 L10,19" id="Shape" sketch:type="MSShapeGroup"></path>
            <path d="M52.1,3 L60,3 C61.1,3 62,3.9 62,5 L62,7 C62,8.1 61.1,9 60,9 L52.1,9" id="Shape" sketch:type="MSShapeGroup"></path>
            <path d="M41.7,9 L2,9 C0.9,9 0,8.1 0,7 L0,5 C0,3.9 0.9,3 2,3 L41.7,3" id="Shape" sketch:type="MSShapeGroup"></path>
            <circle id="Oval" sketch:type="MSShapeGroup" cx="33" cy="38" r="6"></circle>
            <circle id="Oval" sketch:type="MSShapeGroup" cx="15" cy="22" r="6"></circle>
            <circle id="Oval" sketch:type="MSShapeGroup" cx="47" cy="6" r="6"></circle>
        </g>
    </g>
</svg>