<?xml version="1.0" encoding="UTF-8" standalone="no"?>
<svg width="46px" height="63px" viewBox="0 0 46 63" version="1.1" xmlns="http://www.w3.org/2000/svg" xmlns:xlink="http://www.w3.org/1999/xlink" xmlns:sketch="http://www.bohemiancoding.com/sketch/ns">
    <!-- Generator: Sketch 3.0.3 (7891) - http://www.bohemiancoding.com/sketch -->
    <title>Adjustment-vertical</title>
    <desc>Created with Sketch.</desc>
    <defs></defs>
    <g id="Page-1" stroke="none" stroke-width="1" fill="none" fill-rule="evenodd" sketch:type="MSPage">
        <g id="Adjustment-vertical" sketch:type="MSLayerGroup" transform="translate(1.000000, 1.000000)" stroke="#6B6C6E" stroke-width="2">
            <path d="M9,52 L9,59 C9,60.1 8.1,61 7,61 L5,61 C3.9,61 3,60.1 3,59 L3,52" id="Shape" sketch:type="MSShapeGroup"></path>
            <path d="M3,41.8 L3,2 C3,0.9 3.9,0 5,0 L7,0 C8.1,0 9,0.9 9,2 L9,41.8" id="Shape" sketch:type="MSShapeGroup"></path>
            <path d="M25,20.4 L25,59 C25,60.1 24.1,61 23,61 L21,61 C19.9,61 19,60.1 19,59 L19,20.4" id="Shape" sketch:type="MSShapeGroup"></path>
            <path d="M19,10 L19,2 C19,0.9 19.9,0 21,0 L23,0 C24.1,0 25,0.9 25,2 L25,10" id="Shape" sketch:type="MSShapeGroup"></path>
            <path d="M41,38.1 L41,59 C41,60.1 40.1,61 39,61 L37,61 C35.9,61 35,60.1 35,59 L35,38.1" id="Shape" sketch:type="MSShapeGroup"></path>
            <path d="M35,27.9 L35,2 C35,0.9 35.9,0 37,0 L39,0 C40.1,0 41,0.9 41,2 L41,27.9" id="Shape" sketch:type="MSShapeGroup"></path>
            <circle id="Oval" sketch:type="MSShapeGroup" cx="6" cy="47" r="6"></circle>
            <circle id="Oval" sketch:type="MSShapeGroup" cx="22" cy="15" r="6"></circle>
            <circle id="Oval" sketch:type="MSShapeGroup" cx="38" cy="33" r="6"></circle>
        </g>
    </g>
</svg>