<?xml version="1.0" encoding="UTF-8" standalone="no"?>
<svg width="63px" height="63px" viewBox="0 0 63 63" version="1.1" xmlns="http://www.w3.org/2000/svg" xmlns:xlink="http://www.w3.org/1999/xlink" xmlns:sketch="http://www.bohemiancoding.com/sketch/ns">
    <!-- Generator: Sketch 3.0.3 (7891) - http://www.bohemiancoding.com/sketch -->
    <title>Airplane</title>
    <desc>Created with Sketch.</desc>
    <defs></defs>
    <g id="Page-1" stroke="none" stroke-width="1" fill="none" fill-rule="evenodd" sketch:type="MSPage">
        <g id="Airplane" sketch:type="MSLayerGroup" transform="translate(1.000000, 1.000000)" stroke="#6B6C6E" stroke-width="2">
            <path d="M52,25.1 L60.4,47 C60.4,47 61.4,49.7 60.4,50.7 L56.5,54.6 C55.5,55.6 53.8,55.6 52.8,54.6 L38.7,36.7 L38.5,36.6 C34.4,39.7 29.9,42.9 25.8,45.5 L30.5,55.9 C30.5,55.9 31.1,57.4 30.5,57.9 L27.8,60.5 C27.2,61.1 26.3,61.1 25.8,60.5 L17.6,49.9 C13.8,51.6 11,52.3 9.8,51.1 C8.6,49.9 9.2,47 11,43.3 L0.5,35.2 C-0.1,34.6 -0.1,33.7 0.5,33.2 L2.3,31.4 C2.9,30.8 4.3,31.4 4.3,31.4 L15.3,35.6 C18,31.3 21.2,26.7 24.4,22.5 L24.4,22.2 L6.6,8 C5.6,7 5.6,5.3 6.6,4.3 L8.8,2.1 C9.8,1.1 12.5,2.1 12.5,2.1 L35.4,9.5" id="Shape" sketch:type="MSShapeGroup"></path>
            <path d="M49.1,27.9 C50.2,26.9 51.2,26 52,25.1 C60.6,16.5 63.3,6.5 58.9,2.1 C54.4,-2.4 44.5,0.3 35.9,9 C35.1,9.8 34.1,10.8 33.1,11.9" id="Shape" sketch:type="MSShapeGroup"></path>
        </g>
    </g>
</svg>