<?xml version="1.0" encoding="UTF-8" standalone="no"?>
<svg width="63px" height="35px" viewBox="0 0 63 35" version="1.1" xmlns="http://www.w3.org/2000/svg" xmlns:xlink="http://www.w3.org/1999/xlink" xmlns:sketch="http://www.bohemiancoding.com/sketch/ns">
    <!-- Generator: Sketch 3.0.3 (7891) - http://www.bohemiancoding.com/sketch -->
    <title>Ambulancer</title>
    <desc>Created with Sketch.</desc>
    <defs></defs>
    <g id="Page-1" stroke="none" stroke-width="1" fill="none" fill-rule="evenodd" sketch:type="MSPage">
        <g id="Ambulancer" sketch:type="MSLayerGroup" transform="translate(1.000000, 1.000000)" stroke-width="2" stroke="#6B6C6E">
            <g id="Group" sketch:type="MSShapeGroup">
                <path d="M53.5,28 L59,28 C60.1,28 61,27.1 61,26 L61,5 C61,3.9 60.1,3 59,3 L15,3 C13.9,3 13,3.9 13,5 L9,13 L2,16 C0.9,16 0,16.9 0,18 L0,26 C0,27.1 0.9,28 2,28 L10.1,28" id="Shape"></path>
                <path d="M21.1,28 L41.9,28" id="Shape"></path>
                <circle id="Oval" cx="47.5" cy="27.5" r="5.5"></circle>
                <circle id="Oval" cx="15.5" cy="27.5" r="5.5"></circle>
                <path d="M1,24 L8,24" id="Shape"></path>
                <path d="M23,17 L26,17" id="Shape"></path>
                <rect id="Rectangle-path" x="25" y="0" width="6" height="3"></rect>
                <path d="M46,12 L42,12 L42,8 L38,8 L38,12 L34,12 L34,16 L38,16 L38,20 L42,20 L42,16 L46,16 L46,12 Z" id="Shape"></path>
            </g>
            <path d="M26,13 C26,13.6 25.6,14 25,14 L14,14 C13.4,14 13,13.6 13,13 L16,7 C16,6.4 16.4,6 17,6 L25,6 C25.6,6 26,6.4 26,7 L26,13 L26,13 Z" id="Shape" sketch:type="MSShapeGroup"></path>
        </g>
    </g>
</svg>