<?xml version="1.0" encoding="UTF-8" standalone="no"?>
<svg width="59px" height="66px" viewBox="0 0 59 66" version="1.1" xmlns="http://www.w3.org/2000/svg" xmlns:xlink="http://www.w3.org/1999/xlink" xmlns:sketch="http://www.bohemiancoding.com/sketch/ns">
    <!-- Generator: Sketch 3.0.3 (7891) - http://www.bohemiancoding.com/sketch -->
    <title>Anchor</title>
    <desc>Created with Sketch.</desc>
    <defs></defs>
    <g id="Page-1" stroke="none" stroke-width="1" fill="none" fill-rule="evenodd" sketch:type="MSPage">
        <g id="Anchor" sketch:type="MSLayerGroup" transform="translate(1.000000, 1.000000)" stroke="#6B6C6E" stroke-width="2">
            <path d="M57,29.2 C57,28.3 56.9,29.9 56.7,29 C55.9,32.4 50.5,25.2 50.5,37.1 C46.2,40.1 39.7,41.7 31.9,42.1 L30.5,19 L35,19 L35,15 L30.3,15 L30,11.3 C32.3,10.5 34,8.4 34,5.8 C34,2.6 31.2,-2.84217094e-14 28,-2.84217094e-14 C24.8,-2.84217094e-14 22,2.6 22,5.8 C22,8.4 23.7,10.5 26,11.3 L25.7,15 L21,15 L21,19 L25.9,19 L24.5,42 C17,41.6 10.9,39.9 6.7,37 C6.7,25.2 1.2,32.2 0.4,28.8 C0.2,29.7 0.1,28.1 0.1,29 C0.1,32 1.6,35.1 3.4,38 C7.2,44.1 14.6,49.1 24.1,50 L28.2,61.8 L32.3,50.1 C42.2,49.3 49.9,44.2 53.8,38 C55.6,35.3 57,32.2 57,29.2 L57,29.2 Z" id="Shape" sketch:type="MSShapeGroup"></path>
            <circle id="Oval" sketch:type="MSShapeGroup" cx="28.1" cy="6.1" r="1.1"></circle>
        </g>
    </g>
</svg>