<?xml version="1.0" encoding="UTF-8" standalone="no"?>
<svg width="62px" height="62px" viewBox="0 0 62 62" version="1.1" xmlns="http://www.w3.org/2000/svg" xmlns:xlink="http://www.w3.org/1999/xlink" xmlns:sketch="http://www.bohemiancoding.com/sketch/ns">
    <!-- Generator: Sketch 3.0.3 (7891) - http://www.bohemiancoding.com/sketch -->
    <title>Arrow-big-top-left</title>
    <desc>Created with Sketch.</desc>
    <defs></defs>
    <g id="Page-1" stroke="none" stroke-width="1" fill="none" fill-rule="evenodd" sketch:type="MSPage">
        <g id="Arrow-big-top-left" sketch:type="MSLayerGroup" transform="translate(1.000000, 1.000000)" stroke="#6B6C6E" stroke-width="2">
            <path d="M16,34.6 L40.8,59.5 C41.5,60.2 42.5,60.2 43.2,59.5 L58.7,43.9 C59.4,43.2 59.4,42.2 58.7,41.5 L33.9,16.6" id="Shape" sketch:type="MSShapeGroup"></path>
            <path d="M37.2,20 L44.9,12.3 C45.6,11.6 45.6,10.6 44.9,9.9 L3.6,0.5 C2.9,-0.2 1.9,-0.2 1.2,0.5 L0.6,1.1 C-0.1,1.8 -0.1,2.8 0.6,3.5 L9.4,45.6 C10.1,46.3 11.1,46.3 11.8,45.6 L19.5,37.9" id="Shape" sketch:type="MSShapeGroup"></path>
        </g>
    </g>
</svg>