<?xml version="1.0" encoding="utf-8"?>
<!-- Generator: Adobe Illustrator 17.0.0, SVG Export Plug-In . SVG Version: 6.00 Build 0)  -->
<!DOCTYPE svg PUBLIC "-//W3C//DTD SVG 1.1//EN" "http://www.w3.org/Graphics/SVG/1.1/DTD/svg11.dtd">
<svg version="1.1" id="Layer_1" xmlns:sketch="http://www.bohemiancoding.com/sketch/ns"
	 xmlns="http://www.w3.org/2000/svg" xmlns:xlink="http://www.w3.org/1999/xlink" x="0px" y="0px" width="64px" height="65px"
	 viewBox="0 0 64 65" enable-background="new 0 0 64 65" xml:space="preserve">
<title>Arrow-big-four-way-1</title>
<desc>Created with Sketch.</desc>
<g id="Page-1" sketch:type="MSPage">
	<g id="Arrow-big-four-way-1" transform="translate(1.000000, 1.000000)" sketch:type="MSLayerGroup">
		<path id="Shape_2_" sketch:type="MSShapeGroup" fill="none" stroke="#6B6C6E" stroke-width="2" d="M47.9,25h-11V14.1"/>
		<path id="Shape_3_" sketch:type="MSShapeGroup" fill="none" stroke="#6B6C6E" stroke-width="2" d="M14.1,25H25V14.1"/>
		<path id="Shape_4_" sketch:type="MSShapeGroup" fill="none" stroke="#6B6C6E" stroke-width="2" d="M25,47.9V37H14.1"/>
		<path id="Shape_5_" sketch:type="MSShapeGroup" fill="none" stroke="#6B6C6E" stroke-width="2" d="M47.9,37.1h-11l0,0v10.8"/>
		<path id="Shape" sketch:type="MSShapeGroup" fill="none" stroke="#6B6C6E" stroke-width="2" d="M25,17.1h-5.2
			c-0.4,0-0.8-0.3-0.8-0.7L29.7,0.7c0-0.4,0.4-0.7,0.8-0.7h0.4c0.4,0,0.8,0.3,0.8,0.7l11.1,15.7c0,0.4-0.4,0.7-0.8,0.7h-5.2"/>
		<path id="Shape_1_" sketch:type="MSShapeGroup" fill="none" stroke="#6B6C6E" stroke-width="2" d="M37,45.1h5.2
			c0.4,0,0.8,0.3,0.8,0.7L32.2,61.4c0,0.4-0.4,0.7-0.8,0.7H31c-0.4,0-0.8-0.3-0.8-0.7L19,45.8c0-0.4,0.4-0.7,0.8-0.7H25"/>
		<path id="Shape_6_" sketch:type="MSShapeGroup" fill="none" stroke="#6B6C6E" stroke-width="2" d="M44.9,25v-5.2
			c0-0.4,0.3-0.8,0.7-0.8l15.7,10.7c0.4,0,0.7,0.4,0.7,0.8v0.4c0,0.4-0.3,0.8-0.7,0.8L45.6,42.8c-0.4,0-0.7-0.4-0.7-0.8v-5"/>
		<path id="Shape_7_" sketch:type="MSShapeGroup" fill="none" stroke="#6B6C6E" stroke-width="2" d="M17,37v5.2
			c0,0.4-0.3,0.8-0.7,0.8L0.8,32.3c-0.4,0-0.7-0.4-0.7-0.8V31c0-0.4,0.3-0.8,0.7-0.8l15.5-11.1c0.4,0,0.7,0.4,0.7,0.8v5.2"/>
	</g>
</g>
</svg>
