<?xml version="1.0" encoding="UTF-8" standalone="no"?>
<svg width="64px" height="30px" viewBox="0 0 64 30" version="1.1" xmlns="http://www.w3.org/2000/svg" xmlns:xlink="http://www.w3.org/1999/xlink" xmlns:sketch="http://www.bohemiancoding.com/sketch/ns">
    <!-- Generator: Sketch 3.0.3 (7891) - http://www.bohemiancoding.com/sketch -->
    <title>Arrow-big-left-right</title>
    <desc>Created with Sketch.</desc>
    <defs></defs>
    <g id="Page-1" stroke="none" stroke-width="1" fill="none" fill-rule="evenodd" sketch:type="MSPage">
        <g id="Arrow-big-left-right" sketch:type="MSLayerGroup" transform="translate(1.000000, 1.000000)" stroke="#6B6C6E" stroke-width="2">
            <path d="M44,21.1 L18.1,21.1" id="Shape" sketch:type="MSShapeGroup"></path>
            <path d="M18.1,7 L44,7" id="Shape" sketch:type="MSShapeGroup"></path>
            <path d="M21.1,21 L21.1,27.1 C21.1,27.6 20.7,28 20.2,28 L0.9,15.4 C0.4,15.4 1.13686838e-13,15 1.13686838e-13,14.5 L1.13686838e-13,14 C1.13686838e-13,13.5 0.4,13.1 0.9,13.1 L20.2,0 C20.7,0 21.1,0.4 21.1,0.9 L21.1,7" id="Shape" sketch:type="MSShapeGroup"></path>
            <path d="M41,7 L41,0.9 C41,0.4 41.4,0 41.9,0 L61.1,12.6 C61.6,12.6 62,13 62,13.5 L62,14 C62,14.5 61.6,14.9 61.1,14.9 L41.9,28 C41.4,28 41,27.6 41,27.1 L41,21" id="Shape" sketch:type="MSShapeGroup"></path>
        </g>
    </g>
</svg>