<?xml version="1.0" encoding="UTF-8" standalone="no"?>
<svg width="62px" height="63px" viewBox="0 0 62 63" version="1.1" xmlns="http://www.w3.org/2000/svg" xmlns:xlink="http://www.w3.org/1999/xlink" xmlns:sketch="http://www.bohemiancoding.com/sketch/ns">
    <!-- Generator: Sketch 3.0.3 (7891) - http://www.bohemiancoding.com/sketch -->
    <title>arrow-big-top-right</title>
    <desc>Created with Sketch.</desc>
    <defs></defs>
    <g id="Page-1" stroke="none" stroke-width="1" fill="none" fill-rule="evenodd" sketch:type="MSPage">
        <g id="arrow-big-top-right" sketch:type="MSLayerGroup" transform="translate(1.000000, 2.000000)" stroke="#6B6C6E" stroke-width="2">
            <path d="M25.3,16.6 L0.5,41.5 C-0.2,42.2 -0.2,43.2 0.5,43.9 L16,59.5 C16.7,60.2 17.7,60.2 18.4,59.5 L43.2,34.6" id="Shape" sketch:type="MSShapeGroup"></path>
            <path d="M39.7,37.8 L47.4,45.5 C48.1,46.2 49.1,46.2 49.8,45.5 L58.6,3.4 C59.3,2.7 59.2,1.7 58.6,1 L58.6,1 L58,0.4 C57.3,-0.3 56.3,-0.3 55.6,0.4 L14.3,9.8 C13.6,10.5 13.7,11.5 14.3,12.2 L22,19.9" id="Shape" sketch:type="MSShapeGroup"></path>
        </g>
    </g>
</svg>