<?xml version="1.0" encoding="UTF-8" standalone="no"?>
<svg width="62px" height="62px" viewBox="0 0 62 62" version="1.1" xmlns="http://www.w3.org/2000/svg" xmlns:xlink="http://www.w3.org/1999/xlink" xmlns:sketch="http://www.bohemiancoding.com/sketch/ns">
    <!-- Generator: Sketch 3.0.3 (7891) - http://www.bohemiancoding.com/sketch -->
    <title>Arrow-big-bottom-left</title>
    <desc>Created with Sketch.</desc>
    <defs></defs>
    <g id="Page-1" stroke="none" stroke-width="1" fill="none" fill-rule="evenodd" sketch:type="MSPage">
        <g id="Arrow-big-bottom-left" sketch:type="MSLayerGroup" transform="translate(2.000000, 1.000000)" stroke="#6B6C6E" stroke-width="2">
            <path d="M15.8,25.4 L40.6,0.5 C41.3,-0.2 42.3,-0.2 43,0.5 L58.5,16.1 C59.2,16.8 59.2,17.8 58.5,18.5 L33.7,43.4" id="Shape" sketch:type="MSShapeGroup"></path>
            <path d="M36.8,40.3 L44.5,48 C45.2,48.7 45.2,49.7 44.5,50.4 L3.4,59.5 C2.8,60.1 1.7,60.1 1,59.5 L0.4,58.9 C-0.3,58.2 -0.3,57.2 0.4,56.5 L8.9,14.6 C9.5,14 10.6,14 11.3,14.6 L19,22.3" id="Shape" sketch:type="MSShapeGroup"></path>
        </g>
    </g>
</svg>