<?xml version="1.0" encoding="UTF-8" standalone="no"?>
<svg width="65px" height="47px" viewBox="0 0 65 47" version="1.1" xmlns="http://www.w3.org/2000/svg" xmlns:xlink="http://www.w3.org/1999/xlink" xmlns:sketch="http://www.bohemiancoding.com/sketch/ns">
    <!-- Generator: Sketch 3.0.3 (7891) - http://www.bohemiancoding.com/sketch -->
    <title>Arrow-big-left</title>
    <desc>Created with Sketch.</desc>
    <defs></defs>
    <g id="Page-1" stroke="none" stroke-width="1" fill="none" fill-rule="evenodd" sketch:type="MSPage">
        <g id="Arrow-big-left" sketch:type="MSLayerGroup" transform="translate(2.000000, 1.000000)" stroke="#6B6C6E" stroke-width="2">
            <path d="M30,33 L60.5,33 C61.3,33 62,32.3 62,31.5 L62,12.6 C62,11.8 61.3,11.1 60.5,11.1 L30,11.1" id="Shape" sketch:type="MSShapeGroup"></path>
            <path d="M34.1,11.1 L34.1,1.6 C34.1,0.8 33.4,0.1 32.6,0.1 L1.4,19.9 C0.6,19.9 -0.1,20.6 -0.1,21.4 L-0.1,22.1 C-0.1,22.9 0.6,23.6 1.4,23.6 L32.6,44.1 C33.4,44.1 34.1,43.4 34.1,42.6 L34.1,32.8" id="Shape" sketch:type="MSShapeGroup"></path>
        </g>
    </g>
</svg>