<?xml version="1.0" encoding="UTF-8" standalone="no"?>
<svg width="46px" height="64px" viewBox="0 0 46 64" version="1.1" xmlns="http://www.w3.org/2000/svg" xmlns:xlink="http://www.w3.org/1999/xlink" xmlns:sketch="http://www.bohemiancoding.com/sketch/ns">
    <!-- Generator: Sketch 3.0.3 (7891) - http://www.bohemiancoding.com/sketch -->
    <title>Arrow-big-down</title>
    <desc>Created with Sketch.</desc>
    <defs></defs>
    <g id="Page-1" stroke="none" stroke-width="1" fill="none" fill-rule="evenodd" sketch:type="MSPage">
        <g id="Arrow-big-down" sketch:type="MSLayerGroup" transform="translate(1.000000, 1.000000)" stroke="#6B6C6E" stroke-width="2">
            <path d="M10.9,32 L10.9,1.5 C10.9,0.7 11.6,0 12.4,0 L31.5,0 C32.3,0 33,0.7 33,1.5 L33,32" id="Shape" sketch:type="MSShapeGroup"></path>
            <path d="M33,28.1 L42.5,28.1 C43.3,28.1 44,28.7 44,29.5 L24.2,60.6 C24.2,61.4 23.5,62 22.7,62 L22,62 C21.2,62 20.5,61.4 20.5,60.6 L0,29.6 C0,28.8 0.7,28.2 1.5,28.2 L11,28.2" id="Shape" sketch:type="MSShapeGroup"></path>
        </g>
    </g>
</svg>