<?xml version="1.0" encoding="utf-8"?>
<!-- Generator: Adobe Illustrator 17.0.0, SVG Export Plug-In . SVG Version: 6.00 Build 0)  -->
<!DOCTYPE svg PUBLIC "-//W3C//DTD SVG 1.1//EN" "http://www.w3.org/Graphics/SVG/1.1/DTD/svg11.dtd">
<svg version="1.1" id="Layer_1" xmlns:sketch="http://www.bohemiancoding.com/sketch/ns"
	 xmlns="http://www.w3.org/2000/svg" xmlns:xlink="http://www.w3.org/1999/xlink" x="0px" y="0px" width="66px" height="65px"
	 viewBox="0 0 66 65" enable-background="new 0 0 66 65" xml:space="preserve">
<title>Arrow-big-four-way-2</title>
<desc>Created with Sketch.</desc>
<g id="Page-1" sketch:type="MSPage">
	<g id="Arrow-big-four-way-2" transform="translate(2.000000, 2.000000)" sketch:type="MSLayerGroup">
		<path id="Shape_2_" sketch:type="MSShapeGroup" fill="none" stroke="#6B6C6E" stroke-width="2" d="M54.5,44.4L41.1,31L41,30.9
			l13.4-13.4"/>
		<path id="Shape_3_" sketch:type="MSShapeGroup" fill="none" stroke="#6B6C6E" stroke-width="2" d="M17.5,7.5L31,20.9L44.4,7.5"/>
		<path id="Shape_4_" sketch:type="MSShapeGroup" fill="none" stroke="#6B6C6E" stroke-width="2" d="M7.5,44.5l13.2-13.3l0.1-0.2
			L7.4,17.6"/>
		<path id="Shape_5_" sketch:type="MSShapeGroup" fill="none" stroke="#6B6C6E" stroke-width="2" d="M44.3,54.5L30.9,41.1L17.5,54.5
			"/>
		<path id="Shape_6_" sketch:type="MSShapeGroup" fill="none" stroke="#6B6C6E" stroke-width="2" d="M52,42.2l4.4-4.4
			c0.4-0.4,0.9-0.4,1.3-0.1L61.9,60c0.3,0.3,0.3,0.9-0.1,1.3l-0.3,0.3c-0.4,0.4-0.9,0.4-1.3,0.1l-22.6-3.8c-0.3-0.3-0.3-0.9,0.1-1.3
			l4.4-4.4"/>
		<path id="Shape_7_" sketch:type="MSShapeGroup" fill="none" stroke="#6B6C6E" stroke-width="2" d="M9.9,19.7l-4.4,4.4
			c-0.4,0.4-0.9,0.4-1.3,0.1L0.1,2c-0.3-0.3-0.3-0.9,0.1-1.3l0.3-0.3C0.9,0,1.4,0,1.8,0.3L24.3,4c0.3,0.3,0.3,0.9-0.1,1.3l-4.4,4.4"
			/>
		<path id="Shape" sketch:type="MSShapeGroup" fill="none" stroke="#6B6C6E" stroke-width="2" d="M42.2,10l-4.4-4.4
			c-0.4-0.4-0.4-0.9-0.1-1.3L60,0.1c0.3-0.3,0.9-0.3,1.3,0.1l0.3,0.3C62,0.9,62,1.4,61.7,1.8l-3.8,22.6c-0.3,0.3-0.9,0.3-1.3-0.1
			l-4.4-4.4"/>
		<path id="Shape_1_" sketch:type="MSShapeGroup" fill="none" stroke="#6B6C6E" stroke-width="2" d="M19.5,52.2l4.4,4.4
			c0.4,0.4,0.4,0.9,0.1,1.3L2,61.8c-0.3,0.3-0.9,0.3-1.3-0.1l-0.3-0.3C0,61,0,60.5,0.3,60.1l3.6-22.4c0.3-0.3,0.9-0.3,1.3,0.1
			l4.4,4.4"/>
	</g>
</g>
</svg>
