<?xml version="1.0" encoding="utf-8"?>
<!-- Generator: Adobe Illustrator 17.0.0, SVG Export Plug-In . SVG Version: 6.00 Build 0)  -->
<!DOCTYPE svg PUBLIC "-//W3C//DTD SVG 1.1//EN" "http://www.w3.org/Graphics/SVG/1.1/DTD/svg11.dtd">
<svg version="1.1" id="Layer_1" xmlns:sketch="http://www.bohemiancoding.com/sketch/ns"
	 xmlns="http://www.w3.org/2000/svg" xmlns:xlink="http://www.w3.org/1999/xlink" x="0px" y="0px" width="64px" height="64px"
	 viewBox="0 0 64 64" enable-background="new 0 0 64 64" xml:space="preserve">
<title>Arrow-big-three-ways</title>
<desc>Created with Sketch.</desc>
<g id="Page-1" sketch:type="MSPage">
	<g id="Arrow-big-three-ways" transform="translate(1.000000, 1.000000)" sketch:type="MSLayerGroup">
		<path id="Shape_2_" sketch:type="MSShapeGroup" fill="none" stroke="#6B6C6E" stroke-width="2" d="M56,34.6L37.1,53v9H25v-9.2
			L6.5,34.7"/>
		<path id="Shape_3_" sketch:type="MSShapeGroup" fill="none" stroke="#6B6C6E" stroke-width="2" d="M37.1,14.2V37l10.5-10.8"/>
		<path id="Shape_4_" sketch:type="MSShapeGroup" fill="none" stroke="#6B6C6E" stroke-width="2" d="M14.9,26.2L25,36.8V14.2"/>
		<path id="Shape" sketch:type="MSShapeGroup" fill="none" stroke="#6B6C6E" stroke-width="2" d="M25,17.1h-6
			c-0.4,0-0.8-0.3-0.8-0.7L29.9,0.9c0-0.4,0.4-0.7,0.8-0.7h0.4c0.4,0,0.8,0.3,0.8,0.7L44,16.4c0,0.4-0.4,0.7-0.8,0.7H37"/>
		<path id="Shape_1_" sketch:type="MSShapeGroup" fill="none" stroke="#6B6C6E" stroke-width="2" d="M45.5,28.3l-4.4-4.4
			c-0.3-0.3-0.3-0.8,0-1.1l19.3-2.7c0.3-0.3,0.8-0.3,1.1,0.1l0.3,0.3c0.3,0.3,0.3,0.8,0.1,1.1l-2.4,19.6c-0.3,0.3-0.8,0.3-1.1-0.1
			L54,36.7"/>
		<path id="Shape_5_" sketch:type="MSShapeGroup" fill="none" stroke="#6B6C6E" stroke-width="2" d="M8.6,36.8l-4.4,4.4
			c-0.3,0.3-0.8,0.3-1.1,0L0.3,21.8C0,21.5,0,21,0.3,20.7l0.3-0.3c0.3-0.3,0.8-0.3,1.1,0l19.6,2.5c0.3,0.3,0.3,0.8,0,1.1l-4.4,4.4"
			/>
	</g>
</g>
</svg>
