<?xml version="1.0" encoding="UTF-8" standalone="no"?>
<svg width="65px" height="47px" viewBox="0 0 65 47" version="1.1" xmlns="http://www.w3.org/2000/svg" xmlns:xlink="http://www.w3.org/1999/xlink" xmlns:sketch="http://www.bohemiancoding.com/sketch/ns">
    <!-- Generator: Sketch 3.0.3 (7891) - http://www.bohemiancoding.com/sketch -->
    <title>Arrow-big-right</title>
    <desc>Created with Sketch.</desc>
    <defs></defs>
    <g id="Page-1" stroke="none" stroke-width="1" fill="none" fill-rule="evenodd" sketch:type="MSPage">
        <g id="Arrow-big-right" sketch:type="MSLayerGroup" transform="translate(1.000000, 2.000000)" stroke="#6B6C6E" stroke-width="2">
            <path d="M32,33.1 L1.5,33.1 C0.7,33.1 0,32.4 0,31.6 L0,12.4 C0,11.6 0.7,10.9 1.5,10.9 L32,10.9" id="Shape" sketch:type="MSShapeGroup"></path>
            <path d="M27.9,10.9 L27.9,1.4 C27.9,0.6 28.6,-0.1 29.4,-0.1 L60.6,19.7 C61.4,19.7 62.1,20.4 62.1,21.2 L62.1,21.9 C62.1,22.7 61.4,23.4 60.6,23.4 L29.4,43.9 C28.6,43.9 27.9,43.2 27.9,42.4 L27.9,32.9" id="Shape" sketch:type="MSShapeGroup"></path>
        </g>
    </g>
</svg>