<?xml version="1.0" encoding="UTF-8" standalone="no"?>
<svg width="62px" height="61px" viewBox="0 0 62 61" version="1.1" xmlns="http://www.w3.org/2000/svg" xmlns:xlink="http://www.w3.org/1999/xlink" xmlns:sketch="http://www.bohemiancoding.com/sketch/ns">
    <!-- Generator: Sketch 3.0.3 (7891) - http://www.bohemiancoding.com/sketch -->
    <title>Arrow-big-bottom-right</title>
    <desc>Created with Sketch.</desc>
    <defs></defs>
    <g id="Page-1" stroke="none" stroke-width="1" fill="none" fill-rule="evenodd" sketch:type="MSPage">
        <g id="Arrow-big-bottom-right" sketch:type="MSLayerGroup" transform="translate(1.000000, 1.000000)" stroke="#6B6C6E" stroke-width="2">
            <path d="M25.4,43.2 L0.5,18.4 C-0.2,17.7 -0.2,16.7 0.5,16 L16.1,0.5 C16.8,-0.2 17.8,-0.2 18.5,0.5 L43.4,25.3" id="Shape" sketch:type="MSShapeGroup"></path>
            <path d="M40,21.9 L47.7,14.2 C48.4,13.5 49.4,13.5 50.1,14.2 L59.5,55.5 C60.2,56.2 60.1,57.2 59.5,57.9 L58.9,58.5 C58.2,59.2 57.2,59.2 56.5,58.5 L14.4,49.7 C13.7,49 13.7,48 14.4,47.3 L22.1,39.6" id="Shape" sketch:type="MSShapeGroup"></path>
        </g>
    </g>
</svg>