<?xml version="1.0" encoding="UTF-8" standalone="no"?>
<svg width="30px" height="63px" viewBox="0 0 30 63" version="1.1" xmlns="http://www.w3.org/2000/svg" xmlns:xlink="http://www.w3.org/1999/xlink" xmlns:sketch="http://www.bohemiancoding.com/sketch/ns">
    <!-- Generator: Sketch 3.0.3 (7891) - http://www.bohemiancoding.com/sketch -->
    <title>Arrow-big-up-down</title>
    <desc>Created with Sketch.</desc>
    <defs></defs>
    <g id="Page-1" stroke="none" stroke-width="1" fill="none" fill-rule="evenodd" sketch:type="MSPage">
        <g id="Arrow-big-up-down" sketch:type="MSLayerGroup" transform="translate(1.000000, 1.000000)" stroke="#6B6C6E" stroke-width="2">
            <path d="M7,43 L7,18.1" id="Shape" sketch:type="MSShapeGroup"></path>
            <path d="M20.9,18.1 L20.9,43" id="Shape" sketch:type="MSShapeGroup"></path>
            <path d="M7,21.1 L0.9,21.1 C0.4,21.1 0,20.7 0,20.2 L12.6,0.9 C12.6,0.4 13,-2.84217094e-14 13.5,-2.84217094e-14 L14,-2.84217094e-14 C14.5,-2.84217094e-14 14.9,0.4 14.9,0.9 L28,20.2 C28,20.7 27.6,21.1 27.1,21.1 L21,21.1" id="Shape" sketch:type="MSShapeGroup"></path>
            <path d="M21,40 L27.1,40 C27.6,40 28,40.4 28,40.9 L15.4,60.1 C15.4,60.6 15,61 14.5,61 L14,61 C13.5,61 13.1,60.6 13.1,60.1 L0,40.9 C0,40.4 0.4,40 0.9,40 L7,40" id="Shape" sketch:type="MSShapeGroup"></path>
        </g>
    </g>
</svg>