<?xml version="1.0" encoding="UTF-8" standalone="no"?>
<svg width="57px" height="63px" viewBox="0 0 57 63" version="1.1" xmlns="http://www.w3.org/2000/svg" xmlns:xlink="http://www.w3.org/1999/xlink" xmlns:sketch="http://www.bohemiancoding.com/sketch/ns">
    <!-- Generator: Sketch 3.0.3 (7891) - http://www.bohemiancoding.com/sketch -->
    <title>Atomic</title>
    <desc>Created with Sketch.</desc>
    <defs></defs>
    <g id="Page-1" stroke="none" stroke-width="1" fill="none" fill-rule="evenodd" sketch:type="MSPage">
        <g id="Atomic" sketch:type="MSLayerGroup" transform="translate(1.000000, 1.000000)" stroke="#6B6C6E" stroke-width="2">
            <path d="M37,8 C39.4,13.7 41,21.9 41,31 C41,39.8 39.6,46.7 37.3,52.4 C35.1,57.8 32.2,61 29,61 C25.8,61 22.8,57.7 20.6,52.3 C18.4,46.7 17,39.8 17,31 C17,13.9 22.4,0 29,0 C29.7,0 30.4,0.2 31.1,0.5" id="Shape" sketch:type="MSShapeGroup"></path>
            <path d="M44.2,10.4 C48.8,9.5 52.4,10.2 54,12.5 C56.1,15.4 54.8,20.5 50.9,26.1" id="Shape" sketch:type="MSShapeGroup"></path>
            <path d="M6,37.7 C6.4,37.1 6.7,36.5 7.2,35.9" id="Shape" sketch:type="MSShapeGroup"></path>
            <path d="M14.2,51.6 C9.4,52.6 5.7,52 4,49.6 C3.1,48.4 2.8,46.8 3.1,45" id="Shape" sketch:type="MSShapeGroup"></path>
            <path d="M44.4,51.7 C38.7,50.7 31.5,47.5 24.2,42.5" id="Shape" sketch:type="MSShapeGroup"></path>
            <path d="M40.7,24.9 C51.7,34.3 57.5,44.8 54,49.6 C53.8,49.8 53.6,50.1 53.4,50.3" id="Shape" sketch:type="MSShapeGroup"></path>
            <path d="M17.3,37.1 C6.4,27.7 0.5,17.2 4,12.4 C5.9,9.8 10.3,9.3 16,10.8 C21,12.1 26.9,14.9 32.9,18.9" id="Shape" sketch:type="MSShapeGroup"></path>
            <circle id="Oval" sketch:type="MSShapeGroup" cx="4" cy="41" r="4"></circle>
            <circle id="Oval" sketch:type="MSShapeGroup" cx="49" cy="52" r="4"></circle>
            <circle id="Oval" sketch:type="MSShapeGroup" cx="34" cy="4" r="4"></circle>
        </g>
    </g>
</svg>