<?xml version="1.0" encoding="UTF-8" standalone="no"?>
<svg width="63px" height="56px" viewBox="0 0 63 56" version="1.1" xmlns="http://www.w3.org/2000/svg" xmlns:xlink="http://www.w3.org/1999/xlink" xmlns:sketch="http://www.bohemiancoding.com/sketch/ns">
    <!-- Generator: Sketch 3.0.3 (7891) - http://www.bohemiancoding.com/sketch -->
    <title>Bag-add</title>
    <desc>Created with Sketch.</desc>
    <defs></defs>
    <g id="Page-1" stroke="none" stroke-width="1" fill="none" fill-rule="evenodd" sketch:type="MSPage">
        <g id="Bag-add" sketch:type="MSLayerGroup" transform="translate(1.000000, 1.000000)" stroke="#6B6C6E" stroke-width="2">
            <path d="M47.3,53.1 L8.9,53.1 C7.8,53.1 6.9,52.2 6.9,51.2 C6.9,51.2 -2.9,33.7 3,22 L0.1,18.1 C0.1,17 1,16.1 2.1,16.1 L20.4,16.1" id="Shape" sketch:type="MSShapeGroup"></path>
            <path d="M32.5,16 L59,16 C60.1,16 61,16.9 61,18 L58.1,21.9 C61.6,28.2 59.4,36.8 57.1,42.9" id="Shape" sketch:type="MSShapeGroup"></path>
            <path d="M13,34 L48,34" id="Shape" sketch:type="MSShapeGroup"></path>
            <path d="M13,40.1 L39.9,40.1" id="Shape" sketch:type="MSShapeGroup"></path>
            <path d="M13,46.1 L39.9,46.1" id="Shape" sketch:type="MSShapeGroup"></path>
            <path d="M35.3,18.4 C36.2,19.3 36.2,20.8 35.3,21.8 L32.8,24.3 C31.9,25.2 30.4,25.2 29.4,24.3 L11.7,6.6 C10.8,5.7 10.8,4.2 11.7,3.2 L14.2,0.7 C15.1,-0.2 16.6,-0.2 17.6,0.7 L35.3,18.4 L35.3,18.4 Z" id="Shape" sketch:type="MSShapeGroup"></path>
            <circle id="Oval" sketch:type="MSShapeGroup" cx="31.1" cy="20.1" r="1.1"></circle>
            <path d="M54.1,54 L54.1,49 L59,49 L59,43 L54,43 L54,38 L48.1,38 L48.1,43 L43.1,43 L43.1,49 L48,49 L48,54 L54.1,54 Z" id="Shape" sketch:type="MSShapeGroup"></path>
        </g>
    </g>
</svg>