<?xml version="1.0" encoding="UTF-8" standalone="no"?>
<svg width="64px" height="61px" viewBox="0 0 64 61" version="1.1" xmlns="http://www.w3.org/2000/svg" xmlns:xlink="http://www.w3.org/1999/xlink" xmlns:sketch="http://www.bohemiancoding.com/sketch/ns">
    <!-- Generator: Sketch 3.0.3 (7891) - http://www.bohemiancoding.com/sketch -->
    <title>Bag-next</title>
    <desc>Created with Sketch.</desc>
    <defs></defs>
    <g id="Page-1" stroke="none" stroke-width="1" fill="none" fill-rule="evenodd" sketch:type="MSPage">
        <g id="Bag-next" sketch:type="MSLayerGroup" transform="translate(1.000000, 1.000000)" stroke="#6B6C6E" stroke-width="2">
            <g id="Group" transform="translate(40.000000, 40.000000)" sketch:type="MSShapeGroup">
                <path d="M8,13.8 L8,17.5 C8,17.8 8.2,18.1 8.6,18.1 L20.5,10.4 C20.8,10.2 21.1,10.1 21.1,9.8 L21.1,8.7 C21.1,8.5 20.9,8.3 20.5,8.1 L8.6,0.3 C8.3,0.3 8,0.6 8,0.9 L8,4.2" id="Shape"></path>
                <path d="M9.9,5.1 L0,5.1" id="Shape"></path>
                <path d="M9.9,13 L0,13" id="Shape"></path>
            </g>
            <path d="M38,53 L9,53 C7.9,53.3 7,52.4 7,51.3 C7,51.3 -3,33.3 3,21.3 L0,17.3 C0,16.2 0.9,15.3 2,15 L20,15" id="Shape" sketch:type="MSShapeGroup"></path>
            <path d="M33,15 L60,15 C61.1,15.3 62,16.2 62,17.3 L59,21.3 C63.1,28.8 59.9,38.9 57.1,45.3" id="Shape" sketch:type="MSShapeGroup"></path>
            <path d="M13,32 L49,32" id="Shape" sketch:type="MSShapeGroup"></path>
            <path d="M13,38.1 L49,38.1" id="Shape" sketch:type="MSShapeGroup"></path>
            <path d="M13,44 L38,44" id="Shape" sketch:type="MSShapeGroup"></path>
            <path d="M36,18.7 C37,19.6 37,21.2 36,22.1 L33.4,24.7 C32.4,25.6 30.9,25.6 29.9,24.7 L11.7,6.7 C10.7,5.8 10.7,4.2 11.7,3.3 L14.3,0.7 C15.3,-0.2 16.8,-0.2 17.8,0.7 L36,18.7 L36,18.7 Z" id="Shape" sketch:type="MSShapeGroup"></path>
            <circle id="Oval" sketch:type="MSShapeGroup" cx="32" cy="21" r="1"></circle>
        </g>
    </g>
</svg>