<?xml version="1.0" encoding="UTF-8" standalone="no"?>
<svg width="63px" height="61px" viewBox="0 0 63 61" version="1.1" xmlns="http://www.w3.org/2000/svg" xmlns:xlink="http://www.w3.org/1999/xlink" xmlns:sketch="http://www.bohemiancoding.com/sketch/ns">
    <!-- Generator: Sketch 3.0.3 (7891) - http://www.bohemiancoding.com/sketch -->
    <title>Bag-down</title>
    <desc>Created with Sketch.</desc>
    <defs></defs>
    <g id="Page-1" stroke="none" stroke-width="1" fill="none" fill-rule="evenodd" sketch:type="MSPage">
        <g id="Bag-down" sketch:type="MSLayerGroup" transform="translate(1.000000, 2.000000)" stroke="#6B6C6E" stroke-width="2">
            <path d="M43.9,54.1 L9,54.1 C7.9,54.1 7,53.2 7,52.1 C7,52.1 -3.2,33.9 3,22 L0,18 C0,16.9 0.9,16 2,16 L20.9,16" id="Shape" sketch:type="MSShapeGroup"></path>
            <path d="M33.2,15.9 L59,15.9 C60.1,15.9 61,16.8 61,17.9 L58,21.9 C62.5,29.8 58.6,40.5 55.8,46.8" id="Shape" sketch:type="MSShapeGroup"></path>
            <path d="M13.1,35 L43.9,35" id="Shape" sketch:type="MSShapeGroup"></path>
            <path d="M13.1,41 L39.9,41" id="Shape" sketch:type="MSShapeGroup"></path>
            <path d="M13.1,47 L36.9,47" id="Shape" sketch:type="MSShapeGroup"></path>
            <path d="M36.4,19.2 C37.4,20.2 37.4,21.8 36.4,22.7 L33.8,25.3 C32.8,26.3 31.2,26.3 30.3,25.3 L11.8,6.8 C10.8,5.8 10.8,4.2 11.8,3.3 L14.4,0.7 C15.4,-0.3 17,-0.3 17.9,0.7 L36.4,19.2 L36.4,19.2 Z" id="Shape" sketch:type="MSShapeGroup"></path>
            <circle id="Oval" sketch:type="MSShapeGroup" cx="32" cy="21" r="1"></circle>
            <g id="Group" transform="translate(48.000000, 47.000000) rotate(-180.000000) translate(-48.000000, -47.000000) translate(39.000000, 37.000000)" sketch:type="MSShapeGroup">
                <path d="M13.8,13 L17.6,13 C17.9,13 18.2,12.8 18.2,12.4 L10.3,0.5 C10.1,0.2 10,-0.1 9.7,-0.1 L8.6,-0.1 C8.4,-0.1 8.2,0.1 8,0.5 L0,12.4 C0,12.7 0.3,13 0.6,13 L4.6,13" id="Shape"></path>
                <path d="M4.9,11 L4.9,20" id="Shape"></path>
                <path d="M13,11 L13,20" id="Shape"></path>
            </g>
        </g>
    </g>
</svg>