<?xml version="1.0" encoding="UTF-8" standalone="no"?>
<svg width="63px" height="58px" viewBox="0 0 63 58" version="1.1" xmlns="http://www.w3.org/2000/svg" xmlns:xlink="http://www.w3.org/1999/xlink" xmlns:sketch="http://www.bohemiancoding.com/sketch/ns">
    <!-- Generator: Sketch 3.0.3 (7891) - http://www.bohemiancoding.com/sketch -->
    <title>Bag-check</title>
    <desc>Created with Sketch.</desc>
    <defs></defs>
    <g id="Page-1" stroke="none" stroke-width="1" fill="none" fill-rule="evenodd" sketch:type="MSPage">
        <g id="Bag-check" sketch:type="MSLayerGroup" transform="translate(1.000000, 1.000000)" stroke="#6B6C6E" stroke-width="2">
            <path d="M46.2,53.1 L8.8,53.1 C7.7,53.1 6.8,52.2 6.8,51.1 C6.8,51.1 -3,33.6 2.9,21.9 L-2.27373675e-13,18 C-2.27373675e-13,16.9 0.9,16.1 2,16.1 L20.7,16.1" id="Shape" sketch:type="MSShapeGroup"></path>
            <path d="M32.4,16 L59,16 C60.1,16 61,16.9 61,17.9 L58.1,21.8 C61.2,27.4 60.1,34.5 58.1,40.3" id="Shape" sketch:type="MSShapeGroup"></path>
            <path d="M13,34 L47.8,34" id="Shape" sketch:type="MSShapeGroup"></path>
            <path d="M13,39.9 L47.8,39.9" id="Shape" sketch:type="MSShapeGroup"></path>
            <path d="M13,46 L41,46" id="Shape" sketch:type="MSShapeGroup"></path>
            <path d="M35.3,18.4 C36.2,19.3 36.2,20.8 35.3,21.8 L32.8,24.3 C31.9,25.2 30.4,25.2 29.4,24.3 L11.7,6.6 C10.8,5.7 10.8,4.2 11.7,3.2 L14.2,0.7 C15.1,-0.2 16.6,-0.2 17.6,0.7 L35.3,18.4 L35.3,18.4 Z" id="Shape" sketch:type="MSShapeGroup"></path>
            <circle id="Oval" sketch:type="MSShapeGroup" cx="31" cy="20" r="1"></circle>
            <path d="M60.7,42.3 L57.9,39.5 C57.5,39.1 56.9,39.1 56.5,39.5 L48.9,47.2 L45.4,43.7 C45,43.3 44.4,43.3 44,43.7 L41.2,46.5 C40.8,46.9 40.8,47.5 41.2,47.9 L48.2,54.9 C48.6,55.3 49.2,55.3 49.6,54.9 L60.7,43.7 C61.1,43.4 61.1,42.7 60.7,42.3 L60.7,42.3 Z" id="Shape" sketch:type="MSShapeGroup"></path>
        </g>
    </g>
</svg>