<?xml version="1.0" encoding="UTF-8" standalone="no"?>
<svg width="64px" height="57px" viewBox="0 0 64 57" version="1.1" xmlns="http://www.w3.org/2000/svg" xmlns:xlink="http://www.w3.org/1999/xlink" xmlns:sketch="http://www.bohemiancoding.com/sketch/ns">
    <!-- Generator: Sketch 3.0.3 (7891) - http://www.bohemiancoding.com/sketch -->
    <title>Bag-heart</title>
    <desc>Created with Sketch.</desc>
    <defs></defs>
    <g id="Page-1" stroke="none" stroke-width="1" fill="none" fill-rule="evenodd" sketch:type="MSPage">
        <g id="Bag-heart" sketch:type="MSLayerGroup" transform="translate(1.000000, 1.000000)" stroke="#6B6C6E" stroke-width="2">
            <path d="M46.3,53.9 L9,53.9 C7.9,53.9 7,53 7,51.9 C7,51.9 -3,34 3,22 L0,18 C0,16.9 0.9,16 2,16 L19.9,16" id="Shape" sketch:type="MSShapeGroup"></path>
            <path d="M32.9,16.1 L59.1,16.1 C60.2,16.1 61.1,17 61.1,18.1 L58.1,22.1 C61.6,28.6 59.8,37 57.4,43.2" id="Shape" sketch:type="MSShapeGroup"></path>
            <path d="M13,35 L48,35" id="Shape" sketch:type="MSShapeGroup"></path>
            <path d="M13,41 L37,41" id="Shape" sketch:type="MSShapeGroup"></path>
            <path d="M13,47 L37,47" id="Shape" sketch:type="MSShapeGroup"></path>
            <path d="M36.3,19.2 C37.3,20.2 37.3,21.7 36.3,22.7 L33.7,25.3 C32.7,26.3 31.2,26.3 30.2,25.3 L11.8,6.9 C10.8,5.9 10.8,4.4 11.8,3.4 L14.4,0.8 C15.4,-0.2 16.9,-0.2 17.9,0.8 L36.3,19.2 L36.3,19.2 Z" id="Shape" sketch:type="MSShapeGroup"></path>
            <circle id="Oval" sketch:type="MSShapeGroup" cx="32" cy="21" r="1"></circle>
            <path d="M49,43.1 C47.6,40 40,39.8 40,45.3 C40,49.6 47.4,55 49,55 C50.6,55 58,49.5 58,45.3 C58,39.5 48,39.4 48,45.9" id="Shape" sketch:type="MSShapeGroup"></path>
        </g>
    </g>
</svg>