<?xml version="1.0" encoding="UTF-8" standalone="no"?>
<svg width="63px" height="60px" viewBox="0 0 63 60" version="1.1" xmlns="http://www.w3.org/2000/svg" xmlns:xlink="http://www.w3.org/1999/xlink" xmlns:sketch="http://www.bohemiancoding.com/sketch/ns">
    <!-- Generator: Sketch 3.0.3 (7891) - http://www.bohemiancoding.com/sketch -->
    <title>Bag-previous</title>
    <desc>Created with Sketch.</desc>
    <defs></defs>
    <g id="Page-1" stroke="none" stroke-width="1" fill="none" fill-rule="evenodd" sketch:type="MSPage">
        <g id="Bag-previous" sketch:type="MSLayerGroup" transform="translate(1.000000, 2.000000)" stroke="#6B6C6E" stroke-width="2">
            <path d="M45.6,53 L9,53 C7.9,53 7,52.1 7,51 C7,51 -2.9,33.1 3,21.2 L0,17.2 C0,16.1 0.9,16 2,16 L20.2,16" id="Shape" sketch:type="MSShapeGroup"></path>
            <path d="M32.4,16 L59,16 C60.1,16 61,16.1 61,17.2 L58,21.2 C61.7,27.9 59,37.6 56.4,43.9" id="Shape" sketch:type="MSShapeGroup"></path>
            <path d="M12.9,34 L47.9,34" id="Shape" sketch:type="MSShapeGroup"></path>
            <path d="M12.9,40.1 L47.9,40.1" id="Shape" sketch:type="MSShapeGroup"></path>
            <path d="M12.9,46.1 L41.4,46.1" id="Shape" sketch:type="MSShapeGroup"></path>
            <path d="M35.4,18.4 C36.4,19.4 36.4,20.9 35.4,21.8 L32.8,24.4 C31.8,25.4 30.3,25.4 29.4,24.4 L11.3,6.3 C10.3,5.3 10.3,3.8 11.3,2.9 L13.9,0.3 C14.9,-0.7 16.4,-0.7 17.3,0.3 L35.4,18.4 L35.4,18.4 Z" id="Shape" sketch:type="MSShapeGroup"></path>
            <circle id="Oval" sketch:type="MSShapeGroup" cx="31" cy="20" r="1"></circle>
            <g id="Group" transform="translate(39.000000, 39.000000)" sketch:type="MSShapeGroup">
                <path d="M12.9,13.7 L12.9,17.4 C12.9,17.7 12.7,18 12.3,18 L0.4,10.2 C0.1,10 -0.2,9.9 -0.2,9.6 L-0.2,8.5 C-0.2,8.3 0,8.1 0.4,7.9 L12.3,0 C12.6,0 12.9,0.3 12.9,0.6 L12.9,4.5" id="Shape"></path>
                <path d="M11,5 L21.9,5" id="Shape"></path>
                <path d="M11,13 L21.9,13" id="Shape"></path>
            </g>
        </g>
    </g>
</svg>