<?xml version="1.0" encoding="UTF-8" standalone="no"?>
<svg width="64px" height="55px" viewBox="0 0 64 55" version="1.1" xmlns="http://www.w3.org/2000/svg" xmlns:xlink="http://www.w3.org/1999/xlink" xmlns:sketch="http://www.bohemiancoding.com/sketch/ns">
    <!-- Generator: Sketch 3.0.3 (7891) - http://www.bohemiancoding.com/sketch -->
    <title>Bag-remove</title>
    <desc>Created with Sketch.</desc>
    <defs></defs>
    <g id="Page-1" stroke="none" stroke-width="1" fill="none" fill-rule="evenodd" sketch:type="MSPage">
        <g id="Bag-remove" sketch:type="MSLayerGroup" transform="translate(1.000000, 1.000000)" stroke="#6B6C6E" stroke-width="2">
            <path d="M40.4,51.9 L9,51.9 C7.9,51.9 7,51 7,50 C7,50 -2.8,32.5 3.1,20.8 L0.2,16.9 C0.2,15.8 1.1,15 2.2,15 L20.6,15" id="Shape" sketch:type="MSShapeGroup"></path>
            <path d="M32.6,15 L59.1,15 C60.2,15 61.1,15.9 61.1,16.9 L58.2,20.8 C62.7,29 58.1,40.7 55.2,46.6" id="Shape" sketch:type="MSShapeGroup"></path>
            <path d="M13.1,32.9 L47.9,32.9" id="Shape" sketch:type="MSShapeGroup"></path>
            <path d="M13.1,39 L47.9,39" id="Shape" sketch:type="MSShapeGroup"></path>
            <path d="M13.1,45 L37,45" id="Shape" sketch:type="MSShapeGroup"></path>
            <path d="M35.4,18.4 C36.3,19.3 36.3,20.8 35.4,21.8 L32.9,24.3 C32,25.2 30.4,25.2 29.5,24.3 L11.7,6.7 C10.8,5.8 10.8,4.3 11.7,3.3 L14.2,0.8 C15.1,-0.1 16.7,-0.1 17.6,0.8 L35.4,18.4 L35.4,18.4 Z" id="Shape" sketch:type="MSShapeGroup"></path>
            <circle id="Oval" sketch:type="MSShapeGroup" cx="31" cy="20" r="1"></circle>
            <rect id="Rectangle-path" sketch:type="MSShapeGroup" x="40" y="47" width="15.9" height="6"></rect>
        </g>
    </g>
</svg>