<?xml version="1.0" encoding="UTF-8" standalone="no"?>
<svg width="63px" height="56px" viewBox="0 0 63 56" version="1.1" xmlns="http://www.w3.org/2000/svg" xmlns:xlink="http://www.w3.org/1999/xlink" xmlns:sketch="http://www.bohemiancoding.com/sketch/ns">
    <!-- Generator: Sketch 3.0.3 (7891) - http://www.bohemiancoding.com/sketch -->
    <title>Bag</title>
    <desc>Created with Sketch.</desc>
    <defs></defs>
    <g id="Page-1" stroke="none" stroke-width="1" fill="none" fill-rule="evenodd" sketch:type="MSPage">
        <g id="Bag" sketch:type="MSLayerGroup" transform="translate(1.000000, 1.000000)" stroke="#6B6C6E" stroke-width="2">
            <path d="M32,16 L59,16 C60.1,16 61,16.9 61,18 L58,22 C64.4,33.8 53,52 53,52 C53,53.1 52.1,54 51,54 L9,54 C7.9,54 7,53.1 7,52 C7,52 -3,34 3,22 L0,18 C0,16.9 0.9,16 2,16 L19,16" id="Shape" sketch:type="MSShapeGroup"></path>
            <path d="M12,35 L48,35" id="Shape" sketch:type="MSShapeGroup"></path>
            <path d="M12,41 L48,41" id="Shape" sketch:type="MSShapeGroup"></path>
            <path d="M12,47 L48,47" id="Shape" sketch:type="MSShapeGroup"></path>
            <path d="M35,19.2 C36,20.2 36,21.7 35,22.7 L32.4,25.3 C31.4,26.3 29.9,26.3 28.9,25.3 L10.7,7.1 C9.7,6.1 9.7,4.6 10.7,3.6 L13.3,1 C14.3,0 15.8,0 16.8,1 L35,19.2 L35,19.2 Z" id="Shape" sketch:type="MSShapeGroup"></path>
            <circle id="Oval" sketch:type="MSShapeGroup" cx="31.1" cy="21.1" r="1.1"></circle>
        </g>
    </g>
</svg>