<?xml version="1.0" encoding="utf-8"?>
<!-- Generator: Adobe Illustrator 17.0.0, SVG Export Plug-In . SVG Version: 6.00 Build 0)  -->
<!DOCTYPE svg PUBLIC "-//W3C//DTD SVG 1.1//EN" "http://www.w3.org/Graphics/SVG/1.1/DTD/svg11.dtd">
<svg version="1.1" id="Layer_1" xmlns:sketch="http://www.bohemiancoding.com/sketch/ns"
	 xmlns="http://www.w3.org/2000/svg" xmlns:xlink="http://www.w3.org/1999/xlink" x="0px" y="0px" width="65px" height="45px"
	 viewBox="0 0 65 45" enable-background="new 0 0 65 45" xml:space="preserve">
<title>Barrier</title>
<desc>Created with Sketch.</desc>
<g id="Page-1" sketch:type="MSPage">
	<g id="Barrier" transform="translate(2.000000, 1.000000)" sketch:type="MSLayerGroup">
		<path id="Shape_1_" sketch:type="MSShapeGroup" fill="none" stroke="#6B6C6E" stroke-width="2" d="M10,28.5V43H4V11h6v9.3"/>
		<path id="Shape_2_" sketch:type="MSShapeGroup" fill="none" stroke="#6B6C6E" stroke-width="2" d="M52,20.3V11h6v32h-6V28.5"/>
		<path id="Shape" sketch:type="MSShapeGroup" fill="none" stroke="#6B6C6E" stroke-width="2" d="M62,9c0,1.1-0.9,2-2.1,2H2
			c-1.1,0-2.1-0.9-2.1-2V2c0-1.1,0.9-2,2.1-2h57.9C61,0,62,0.9,62,2V9L62,9z"/>
		<path id="Shape_3_" sketch:type="MSShapeGroup" fill="none" stroke="#6B6C6E" stroke-width="2" d="M54,28H8"/>
		<path id="Shape_4_" sketch:type="MSShapeGroup" fill="none" stroke="#6B6C6E" stroke-width="2" d="M8,20h46"/>
		<path id="Shape_5_" sketch:type="MSShapeGroup" fill="none" stroke="#6B6C6E" stroke-width="2" d="M12.4,0L8.3,11.3"/>
		<path id="Shape_6_" sketch:type="MSShapeGroup" fill="none" stroke="#6B6C6E" stroke-width="2" d="M17.6,0l-4.2,11.3"/>
		<path id="Shape_7_" sketch:type="MSShapeGroup" fill="none" stroke="#6B6C6E" stroke-width="2" d="M32,0l-4.1,11.3"/>
		<path id="Shape_8_" sketch:type="MSShapeGroup" fill="none" stroke="#6B6C6E" stroke-width="2" d="M37.2,0l-4.1,11.3"/>
		<path id="Shape_9_" sketch:type="MSShapeGroup" fill="none" stroke="#6B6C6E" stroke-width="2" d="M50.6,0l-4.1,11.3"/>
		<path id="Shape_10_" sketch:type="MSShapeGroup" fill="none" stroke="#6B6C6E" stroke-width="2" d="M55.8,0l-4.1,11.3"/>
		<path id="Shape_11_" sketch:type="MSShapeGroup" fill="none" stroke="#6B6C6E" stroke-width="2" d="M15,20.6l-2.2,7.9"/>
		<path id="Shape_12_" sketch:type="MSShapeGroup" fill="none" stroke="#6B6C6E" stroke-width="2" d="M20.3,20.6l-2.1,7.9"/>
		<path id="Shape_13_" sketch:type="MSShapeGroup" fill="none" stroke="#6B6C6E" stroke-width="2" d="M29.9,20.6l-2.1,7.9"/>
		<path id="Shape_14_" sketch:type="MSShapeGroup" fill="none" stroke="#6B6C6E" stroke-width="2" d="M35.3,20.6l-2.2,7.9"/>
		<path id="Shape_15_" sketch:type="MSShapeGroup" fill="none" stroke="#6B6C6E" stroke-width="2" d="M44.9,20.6l-2.2,7.9"/>
		<path id="Shape_16_" sketch:type="MSShapeGroup" fill="none" stroke="#6B6C6E" stroke-width="2" d="M50.2,20.6l-2.1,7.9"/>
	</g>
</g>
</svg>
