<?xml version="1.0" encoding="UTF-8" standalone="no"?>
<svg width="64px" height="64px" viewBox="0 0 64 64" version="1.1" xmlns="http://www.w3.org/2000/svg" xmlns:xlink="http://www.w3.org/1999/xlink" xmlns:sketch="http://www.bohemiancoding.com/sketch/ns">
    <!-- Generator: Sketch 3.0.3 (7891) - http://www.bohemiancoding.com/sketch -->
    <title>Base-ball</title>
    <desc>Created with Sketch.</desc>
    <defs></defs>
    <g id="Page-1" stroke="none" stroke-width="1" fill="none" fill-rule="evenodd" sketch:type="MSPage">
        <g id="Base-ball" sketch:type="MSLayerGroup" transform="translate(1.000000, 1.000000)" stroke="#6B6C6E" stroke-width="2">
            <circle id="Oval" sketch:type="MSShapeGroup" cx="31" cy="31" r="31"></circle>
            <path d="M15.2,4 C17.6,11.5 19,20.9 19,31 C19,41.1 17.6,50.5 15.2,58" id="Shape" sketch:type="MSShapeGroup"></path>
            <path d="M46.5,57 C44.3,49.7 43,40.7 43,31 C43,20.9 44.4,11.5 46.8,4" id="Shape" sketch:type="MSShapeGroup"></path>
            <path d="M16,31 L23,31" id="Shape" sketch:type="MSShapeGroup"></path>
            <path d="M15,38 L22,39" id="Shape" sketch:type="MSShapeGroup"></path>
            <path d="M14,47 L21,48" id="Shape" sketch:type="MSShapeGroup"></path>
            <path d="M15,23 L22,22" id="Shape" sketch:type="MSShapeGroup"></path>
            <path d="M14,15 L21,14" id="Shape" sketch:type="MSShapeGroup"></path>
            <path d="M41,14 L48,15" id="Shape" sketch:type="MSShapeGroup"></path>
            <path d="M40,22 L47,23" id="Shape" sketch:type="MSShapeGroup"></path>
            <path d="M40,39 L47,38" id="Shape" sketch:type="MSShapeGroup"></path>
            <path d="M41,48 L48,47" id="Shape" sketch:type="MSShapeGroup"></path>
            <path d="M39,31 L46,31" id="Shape" sketch:type="MSShapeGroup"></path>
        </g>
    </g>
</svg>