<?xml version="1.0" encoding="UTF-8" standalone="no"?>
<svg width="34px" height="64px" viewBox="0 0 34 64" version="1.1" xmlns="http://www.w3.org/2000/svg" xmlns:xlink="http://www.w3.org/1999/xlink" xmlns:sketch="http://www.bohemiancoding.com/sketch/ns">
    <!-- Generator: Sketch 3.0.3 (7891) - http://www.bohemiancoding.com/sketch -->
    <title>Battery-full</title>
    <desc>Created with Sketch.</desc>
    <defs></defs>
    <g id="Page-1" stroke="none" stroke-width="1" fill="none" fill-rule="evenodd" sketch:type="MSPage">
        <g id="Battery-full" sketch:type="MSLayerGroup" transform="translate(1.000000, 1.000000)" stroke="#6B6C6E" stroke-width="2">
            <path d="M30,5 L24,5 L24,2 C24,0.9 23.1,0 22,0 L11,0 C9.9,0 9,0.9 9,2 L9,5 L2,5 C0.9,5 0,5.9 0,7 L0,60 C0,61.1 0.9,62 2,62 L30,62 C31.1,62 32,61.1 32,60 L32,7 C32,5.9 31.1,5 30,5 L30,5 Z" id="Shape" sketch:type="MSShapeGroup"></path>
            <path d="M6,15 L26,15" id="Shape" sketch:type="MSShapeGroup"></path>
            <path d="M6,26 L26,26" id="Shape" sketch:type="MSShapeGroup"></path>
            <path d="M6,38 L26,38" id="Shape" sketch:type="MSShapeGroup"></path>
            <path d="M6,50 L26,50" id="Shape" sketch:type="MSShapeGroup"></path>
        </g>
    </g>
</svg>