<?xml version="1.0" encoding="utf-8"?>
<!-- Generator: Adobe Illustrator 17.0.0, SVG Export Plug-In . SVG Version: 6.00 Build 0)  -->
<!DOCTYPE svg PUBLIC "-//W3C//DTD SVG 1.1//EN" "http://www.w3.org/Graphics/SVG/1.1/DTD/svg11.dtd">
<svg version="1.1" id="Layer_1" xmlns:sketch="http://www.bohemiancoding.com/sketch/ns"
	 xmlns="http://www.w3.org/2000/svg" xmlns:xlink="http://www.w3.org/1999/xlink" x="0px" y="0px" width="57px" height="64px"
	 viewBox="0 0 57 64" enable-background="new 0 0 57 64" xml:space="preserve">
<title>Beer</title>
<desc>Created with Sketch.</desc>
<g id="Page-1" sketch:type="MSPage">
	<g id="Beer" transform="translate(2.000000, 1.000000)" sketch:type="MSLayerGroup">
		<path id="Shape_1_" sketch:type="MSShapeGroup" fill="none" stroke="#6B6C6E" stroke-width="2" stroke-linejoin="round" d="M40,15
			h9.8c5.5,0,4,6.8,4,6.8l-4,24.1l-9.9,4.3"/>
		<path id="Shape" sketch:type="MSShapeGroup" fill="none" stroke="#6B6C6E" stroke-width="2" stroke-linejoin="round" d="M39.4,21
			h8.3l-2.1,22l-6.3,2"/>
		<path id="Shape_7_" sketch:type="MSShapeGroup" fill="none" stroke="#6B6C6E" stroke-width="2" d="M40,5v54.936
			C40,61.017,39.1,62,38,62H2c-1.1,0-2-0.885-2-2.064V6.163"/>
		<path id="Shape_6_" sketch:type="MSShapeGroup" fill="none" stroke="#6B6C6E" stroke-width="2" d="M0.7,55l38.383-0.025"/>
		<path id="Shape_3_" sketch:type="MSShapeGroup" fill="none" stroke="#6B6C6E" stroke-width="2" d="M0.7,19h5.08"/>
		<path id="Shape_8_" sketch:type="MSShapeGroup" fill="none" stroke="#6B6C6E" stroke-width="2" d="M40,5c0,1.8-2.4,14.8-8.4,8
			c-1.8,1-2,8.1-5.1,8.1s-3.3-4.9-4.6-4.7c-1.3,0.2,2,9.8-5.1,9.7c-5.2,0-2-9-3.1-9c-2.8,0-2.2,5.1-5.8,4.9c-4.3-0.2-0.5-7-2.1-7.9
			c-2.5-1.4-5.9-6.037-5.9-7.937c0-4.4,3.6-4.063,9.9-4.063c3-2.1,15-3.1,17,0C34-0.4,40,3.3,40,5L40,5z"/>
		<path id="Shape_2_" sketch:type="MSShapeGroup" fill="none" stroke="#6B6C6E" stroke-width="2" d="M29.033,19l10.05-0.025"/>
	</g>
</g>
</svg>
