<?xml version="1.0" encoding="UTF-8" standalone="no"?>
<svg width="66px" height="64px" viewBox="0 0 66 64" version="1.1" xmlns="http://www.w3.org/2000/svg" xmlns:xlink="http://www.w3.org/1999/xlink" xmlns:sketch="http://www.bohemiancoding.com/sketch/ns">
    <!-- Generator: Sketch 3.0.3 (7891) - http://www.bohemiancoding.com/sketch -->
    <title>Bomb</title>
    <desc>Created with Sketch.</desc>
    <defs></defs>
    <g id="Page-1" stroke="none" stroke-width="1" fill="none" fill-rule="evenodd" sketch:type="MSPage">
        <g id="Bomb" sketch:type="MSLayerGroup" transform="translate(2.000000, 1.000000)" stroke="#6B6C6E" stroke-width="2">
            <path d="M48.7,29.1 C48.9,28.9 49.1,28.8 49.3,28.6 C52.1,25.9 50.8,20.3 46.5,16 C42.2,11.8 36.5,10.6 33.8,13.3 C33.6,13.5 33.4,13.7 33.3,13.9 C27.7,11.3 13.7,13.5 7.2,19.6 C-2.6,28.9 -2.5,44.9 7.4,54.6 C17.2,64.3 33.1,64.4 42.9,54.8 C50,47.9 51.6,37.1 48.7,29.1 L48.7,29.1 Z" id="Shape" sketch:type="MSShapeGroup"></path>
            <path d="M46.2,15.3 C46.2,15.3 46.2,9.4 54.7,7.1 C63.2,4.8 62,-0.1 62,-0.1" id="Shape" sketch:type="MSShapeGroup"></path>
            <path d="M45,37.4 C45,47.7 36.5,56.1 26,56.1" id="Shape" sketch:type="MSShapeGroup"></path>
        </g>
    </g>
</svg>