<?xml version="1.0" encoding="utf-8"?>
<!-- Generator: Adobe Illustrator 17.0.0, SVG Export Plug-In . SVG Version: 6.00 Build 0)  -->
<!DOCTYPE svg PUBLIC "-//W3C//DTD SVG 1.1//EN" "http://www.w3.org/Graphics/SVG/1.1/DTD/svg11.dtd">
<svg version="1.1" id="Layer_1" xmlns:sketch="http://www.bohemiancoding.com/sketch/ns"
	 xmlns="http://www.w3.org/2000/svg" xmlns:xlink="http://www.w3.org/1999/xlink" x="0px" y="0px" width="54px" height="64px"
	 viewBox="0 0 54 64" enable-background="new 0 0 54 64" xml:space="preserve">
<title>Book-1</title>
<desc>Created with Sketch.</desc>
<g id="Page-1" sketch:type="MSPage">
	<g id="Book-1" transform="translate(1.000000, 1.000000)" sketch:type="MSLayerGroup">
		<path id="Shape_1_" sketch:type="MSShapeGroup" fill="none" stroke="#6B6C6E" stroke-width="2" d="M47,7h3c1.1,0,2,0.9,2,2v8
			c0,1.1-0.9,2-2,2h-3"/>
		<path id="Shape_2_" sketch:type="MSShapeGroup" fill="none" stroke="#6B6C6E" stroke-width="2" d="M47,24h3c1.1,0,2,0.9,2,2v8
			c0,1.1-0.9,2-2,2h-3"/>
		<path id="Shape_3_" sketch:type="MSShapeGroup" fill="none" stroke="#6B6C6E" stroke-width="2" d="M47,41h3c1.1,0,2,0.9,2,2v8
			c0,1.1-0.9,2-2,2h-3"/>
		<path id="Shape" sketch:type="MSShapeGroup" fill="none" stroke="#6B6C6E" stroke-width="2" d="M0,2c0-1.1,0.9-2,2-2h44
			c1.1,0,2,0.9,2,2v58c0,1.1-0.9,2-2,2H2c-1.1,0-2-0.9-2-2V2L0,2z"/>
		<path id="Shape_4_" sketch:type="MSShapeGroup" fill="none" stroke="#6B6C6E" stroke-width="2" d="M6,3v56"/>
	</g>
</g>
</svg>
