<?xml version="1.0" encoding="UTF-8" standalone="no"?>
<svg width="24px" height="64px" viewBox="0 0 24 64" version="1.1" xmlns="http://www.w3.org/2000/svg" xmlns:xlink="http://www.w3.org/1999/xlink" xmlns:sketch="http://www.bohemiancoding.com/sketch/ns">
    <!-- Generator: Sketch 3.0.3 (7891) - http://www.bohemiancoding.com/sketch -->
    <title>Bottle</title>
    <desc>Created with Sketch.</desc>
    <defs></defs>
    <g id="Page-1" stroke="none" stroke-width="1" fill="none" fill-rule="evenodd" sketch:type="MSPage">
        <g id="Bottle" sketch:type="MSLayerGroup" transform="translate(1.000000, 1.000000)" stroke="#6B6C6E" stroke-width="2">
            <path d="M7,6 L7,13 C7,13 0,23.9 0,25 L0,60 C0,61.1 0.9,62 2,62 L20,62 C21.1,62 22,61.1 22,60 L22,25 C22,23.9 15,13 15,13 L15,6" id="Shape" sketch:type="MSShapeGroup"></path>
            <path d="M17,4 C17,5.1 16.1,6 15,6 L7,6 C5.9,6 5,5.1 5,4 L5,2 C5,0.9 5.9,0 7,0 L15,0 C16.1,0 17,0.9 17,2 L17,4 L17,4 Z" id="Shape" sketch:type="MSShapeGroup"></path>
        </g>
    </g>
</svg>