<?xml version="1.0" encoding="UTF-8" standalone="no"?>
<svg width="64px" height="36px" viewBox="0 0 64 36" version="1.1" xmlns="http://www.w3.org/2000/svg" xmlns:xlink="http://www.w3.org/1999/xlink" xmlns:sketch="http://www.bohemiancoding.com/sketch/ns">
    <!-- Generator: Sketch 3.0.3 (7891) - http://www.bohemiancoding.com/sketch -->
    <title>Bowl</title>
    <desc>Created with Sketch.</desc>
    <defs></defs>
    <g id="Page-1" stroke="none" stroke-width="1" fill="none" fill-rule="evenodd" sketch:type="MSPage">
        <g id="Bowl" sketch:type="MSLayerGroup" transform="translate(1.000000, 1.000000)" stroke="#58595B" stroke-width="2">
            <path d="M62,0 L0,0 C0,13.498 8.631,26.219 20.673,31 L20.5,31 C19.671,31 19,31.672 19,32.5 C19,33.328 19.671,34 20.5,34 L41.5,34 C42.329,34 43,33.328 43,32.5 C43,31.672 42.329,31 41.5,31 L41.327,31 C53.369,26.219 62,13.498 62,0 L62,0 Z" id="Shape" sketch:type="MSShapeGroup"></path>
            <path d="M1,8 L61,8" id="Shape" sketch:type="MSShapeGroup"></path>
            <path d="M3,12 L59,12" id="Shape" sketch:type="MSShapeGroup"></path>
        </g>
    </g>
</svg>