<?xml version="1.0" encoding="UTF-8" standalone="no"?>
<svg width="45px" height="64px" viewBox="0 0 45 64" version="1.1" xmlns="http://www.w3.org/2000/svg" xmlns:xlink="http://www.w3.org/1999/xlink" xmlns:sketch="http://www.bohemiancoding.com/sketch/ns">
    <!-- Generator: Sketch 3.0.3 (7891) - http://www.bohemiancoding.com/sketch -->
    <title>Bowling</title>
    <desc>Created with Sketch.</desc>
    <defs></defs>
    <g id="Page-1" stroke="none" stroke-width="1" fill="none" fill-rule="evenodd" sketch:type="MSPage">
        <g id="Bowling" sketch:type="MSLayerGroup" transform="translate(1.000000, 1.000000)" stroke="#6B6C6E" stroke-width="2">
            <path d="M22.9,32.4 C20.6,26 17.8,19.2 17.8,16.9 C17.8,13 20,8.5 20,6.4 C20,2.3 16.9,5.68434189e-14 13,5.68434189e-14 C9.1,5.68434189e-14 6,2.3 6,6.4 C6,8.5 8.2,12.9 8.2,17 C8.2,21.2 4.54747351e-13,38.5 4.54747351e-13,43.9 C4.54747351e-13,53.9 4.7,57.9 8.6,57.9 L18.1,57.9" id="Shape" sketch:type="MSShapeGroup"></path>
            <path d="M8.3,14.9 L17.6,14.9" id="Shape" sketch:type="MSShapeGroup"></path>
            <path d="M8,19 L18,19" id="Shape" sketch:type="MSShapeGroup"></path>
            <circle id="Oval" sketch:type="MSShapeGroup" cx="28" cy="47" r="15"></circle>
            <circle id="Oval" sketch:type="MSShapeGroup" cx="32" cy="41" r="1"></circle>
            <circle id="Oval" sketch:type="MSShapeGroup" cx="35.9" cy="46.9" r="0.9"></circle>
            <circle id="Oval" sketch:type="MSShapeGroup" cx="38" cy="41" r="1"></circle>
        </g>
    </g>
</svg>