<?xml version="1.0" encoding="utf-8"?>
<!-- Generator: Adobe Illustrator 17.0.0, SVG Export Plug-In . SVG Version: 6.00 Build 0)  -->
<!DOCTYPE svg PUBLIC "-//W3C//DTD SVG 1.1//EN" "http://www.w3.org/Graphics/SVG/1.1/DTD/svg11.dtd">
<svg version="1.1" id="Layer_1" xmlns:sketch="http://www.bohemiancoding.com/sketch/ns"
	 xmlns="http://www.w3.org/2000/svg" xmlns:xlink="http://www.w3.org/1999/xlink" x="0px" y="0px" width="64px" height="63px"
	 viewBox="0 0 64 63" enable-background="new 0 0 64 63" xml:space="preserve">
<title>Brush</title>
<desc>Created with Sketch.</desc>
<g id="Page-1" sketch:type="MSPage">
	<g id="Brush" transform="translate(2.000000, 1.000000)" sketch:type="MSLayerGroup">
		<path id="Shape_1_" fill="none" stroke="#6B6C6E" stroke-width="2" stroke-linejoin="round" d="M5.5,38.3C0.8,39.9,0,37.5,0,37.5
			c-0.9-0.9,6.2-9.3,7-10.2l4.7-4.7c0.9-0.9,2.3-0.9,3.1,0l3.1,3.1l18,18l2.3,2.3c0.9,0.9,0.9,2.3,0,3.1l-3.1,3.1
			c-0.9,0.9-10.8,9.5-11.7,8.6L22.6,60l1.6-3.1h-4.7L15.6,53L14,48.3l-0.8,2.3l-4.7-4.7l1.6-3.1l-3.9,0.8l-4.7-4.7L5.5,38.3z"/>
		<path id="Shape" fill="none" stroke="#6B6C6E" stroke-width="2" stroke-linejoin="round" d="M36,43.8l3.9,3.9
			c0.9,0.9,1.5,1.6,2.3,0.8l4.7-4.7c0.9-0.9,0.9-2.3,0-3.1L35.058,28.858L37.2,31C48,22.5,57.5,14.5,59,13c2.8-2.8,2.6-7.5-0.4-10.5
			s-7.7-3.2-10.5-0.4c-1.5,1.5-9.5,11-18,21.8l2.042,2.042L20.4,14.2c-0.9-0.9-2.3-0.9-3.1,0l-4.7,4.7c-0.9,0.9-0.1,1.5,0.8,2.3
			l3.9,3.9"/>
	</g>
</g>
</svg>
