<?xml version="1.0" encoding="UTF-8" standalone="no"?>
<svg width="64px" height="64px" viewBox="0 0 64 64" version="1.1" xmlns="http://www.w3.org/2000/svg" xmlns:xlink="http://www.w3.org/1999/xlink" xmlns:sketch="http://www.bohemiancoding.com/sketch/ns">
    <!-- Generator: Sketch 3.0.3 (7891) - http://www.bohemiancoding.com/sketch -->
    <title>Button-circle-arrow-down</title>
    <desc>Created with Sketch.</desc>
    <defs></defs>
    <g id="Page-1" stroke="none" stroke-width="1" fill="none" fill-rule="evenodd" sketch:type="MSPage">
        <g id="Button-circle-arrow-down" sketch:type="MSLayerGroup" transform="translate(1.000000, 1.000000)" stroke="#6B6C6E" stroke-width="2">
            <circle id="Oval" sketch:type="MSShapeGroup" cx="31" cy="31" r="31"></circle>
            <path d="M31,57 C16.6,57 5,45.4 5,31" id="Shape" sketch:type="MSShapeGroup"></path>
            <path d="M31,5 C45.4,5 57,16.6 57,31" id="Shape" sketch:type="MSShapeGroup"></path>
            <path d="M25.9,30 L20.6,30 C20.2,30 19.9,30.3 19.9,30.7 L30,46.2 C30.3,46.6 31.1,46.9 31.4,46.9 L31.4,46.9 C31.4,46.9 32.6,46.6 32.9,46.2 L43.1,30.7 C43.1,30.3 42.8,30 42.4,30 L37.1,30" id="Shape" sketch:type="MSShapeGroup"></path>
            <path d="M36.9,32.5 L36.9,19" id="Shape" sketch:type="MSShapeGroup"></path>
            <path d="M26.1,32.8 L26.1,19" id="Shape" sketch:type="MSShapeGroup"></path>
        </g>
    </g>
</svg>