<?xml version="1.0" encoding="UTF-8" standalone="no"?>
<svg width="64px" height="64px" viewBox="0 0 64 64" version="1.1" xmlns="http://www.w3.org/2000/svg" xmlns:xlink="http://www.w3.org/1999/xlink" xmlns:sketch="http://www.bohemiancoding.com/sketch/ns">
    <!-- Generator: Sketch 3.0.3 (7891) - http://www.bohemiancoding.com/sketch -->
    <title>Button-circle-arrow-right</title>
    <desc>Created with Sketch.</desc>
    <defs></defs>
    <g id="Page-1" stroke="none" stroke-width="1" fill="none" fill-rule="evenodd" sketch:type="MSPage">
        <g id="Button-circle-arrow-right" sketch:type="MSLayerGroup" transform="translate(1.000000, 1.000000)" stroke="#6B6C6E" stroke-width="2">
            <circle id="Oval" sketch:type="MSShapeGroup" cx="31" cy="31" r="31"></circle>
            <path d="M31,5 C45.4,5 57,16.6 57,31" id="Shape" sketch:type="MSShapeGroup"></path>
            <path d="M31,57 C16.6,57 5,45.4 5,31" id="Shape" sketch:type="MSShapeGroup"></path>
            <path d="M31,37 L31,42.3 C31,42.7 31.3,43 31.7,43 L47.2,32.9 C47.6,32.6 47.9,31.8 47.9,31.5 L47.9,31.5 C47.9,31.5 47.6,30.3 47.2,30 L31.7,19.8 C31.3,19.8 31,20.1 31,20.5 L31,25.8" id="Shape" sketch:type="MSShapeGroup"></path>
            <path d="M33.9,26.1 L21,26.1" id="Shape" sketch:type="MSShapeGroup"></path>
            <path d="M33.9,37.1 L21,37.1" id="Shape" sketch:type="MSShapeGroup"></path>
        </g>
    </g>
</svg>