<?xml version="1.0" encoding="UTF-8" standalone="no"?>
<svg width="64px" height="64px" viewBox="0 0 64 64" version="1.1" xmlns="http://www.w3.org/2000/svg" xmlns:xlink="http://www.w3.org/1999/xlink" xmlns:sketch="http://www.bohemiancoding.com/sketch/ns">
    <!-- Generator: Sketch 3.0.3 (7891) - http://www.bohemiancoding.com/sketch -->
    <title>Button-circle-paurse</title>
    <desc>Created with Sketch.</desc>
    <defs></defs>
    <g id="Page-1" stroke="none" stroke-width="1" fill="none" fill-rule="evenodd" sketch:type="MSPage">
        <g id="Button-circle-paurse" sketch:type="MSLayerGroup" transform="translate(1.000000, 1.000000)" stroke="#6B6C6E" stroke-width="2">
            <circle id="Oval" sketch:type="MSShapeGroup" cx="31" cy="31" r="31"></circle>
            <path d="M31,5 C45.4,5 57,16.6 57,31" id="Shape" sketch:type="MSShapeGroup"></path>
            <path d="M31,57 C16.6,57 5,45.4 5,31" id="Shape" sketch:type="MSShapeGroup"></path>
            <path d="M29,39.2 C29,40.2 28.2,41 27.2,41 L22.8,41 C21.8,41 21,40.2 21,39.2 L21,22.8 C21,21.8 21.8,21 22.8,21 L27.2,21 C28.2,21 29,21.8 29,22.8 L29,39.2 L29,39.2 Z" id="Shape" sketch:type="MSShapeGroup"></path>
            <path d="M41,39.2 C41,40.2 40.2,41 39.2,41 L34.8,41 C33.8,41 33,40.2 33,39.2 L33,22.8 C33,21.8 33.8,21 34.8,21 L39.2,21 C40.2,21 41,21.8 41,22.8 L41,39.2 L41,39.2 Z" id="Shape" sketch:type="MSShapeGroup"></path>
        </g>
    </g>
</svg>