<?xml version="1.0" encoding="UTF-8" standalone="no"?>
<svg width="64px" height="64px" viewBox="0 0 64 64" version="1.1" xmlns="http://www.w3.org/2000/svg" xmlns:xlink="http://www.w3.org/1999/xlink" xmlns:sketch="http://www.bohemiancoding.com/sketch/ns">
    <!-- Generator: Sketch 3.0.3 (7891) - http://www.bohemiancoding.com/sketch -->
    <title>Button-circle-next</title>
    <desc>Created with Sketch.</desc>
    <defs></defs>
    <g id="Page-1" stroke="none" stroke-width="1" fill="none" fill-rule="evenodd" sketch:type="MSPage">
        <g id="Button-circle-next" sketch:type="MSLayerGroup" transform="translate(1.000000, 1.000000)" stroke="#6B6C6E" stroke-width="2">
            <circle id="Oval" sketch:type="MSShapeGroup" cx="31" cy="31" r="31"></circle>
            <path d="M31,5 C45.4,5 57,16.6 57,31" id="Shape" sketch:type="MSShapeGroup"></path>
            <path d="M31,57 C16.6,57 5,45.4 5,31" id="Shape" sketch:type="MSShapeGroup"></path>
            <path d="M46.2,29.6 L33.7,19.1 C33.3,19.1 33,19.4 33,19.9 L33,26.8 L22.8,19.1 C22.4,19.1 22.1,19.4 22.1,19.9 L22.1,42.3 C22.1,42.7 22.4,43.1 22.8,43.1 L33,35.6 L33,42.4 C33,42.8 33.3,43.2 33.7,43.2 L46.2,32.8 C46.6,32.5 46.9,31.7 46.9,31.4 C46.9,31.2 46.7,29.9 46.2,29.6 L46.2,29.6 Z" id="Shape" sketch:type="MSShapeGroup"></path>
        </g>
    </g>
</svg>