<?xml version="1.0" encoding="UTF-8" standalone="no"?>
<svg width="64px" height="64px" viewBox="0 0 64 64" version="1.1" xmlns="http://www.w3.org/2000/svg" xmlns:xlink="http://www.w3.org/1999/xlink" xmlns:sketch="http://www.bohemiancoding.com/sketch/ns">
    <!-- Generator: Sketch 3.0.3 (7891) - http://www.bohemiancoding.com/sketch -->
    <title>Button-circle-previous</title>
    <desc>Created with Sketch.</desc>
    <defs></defs>
    <g id="Page-1" stroke="none" stroke-width="1" fill="none" fill-rule="evenodd" sketch:type="MSPage">
        <g id="Button-circle-previous" sketch:type="MSLayerGroup" transform="translate(1.000000, 1.000000)" stroke="#6B6C6E" stroke-width="2">
            <circle id="Oval" sketch:type="MSShapeGroup" cx="31" cy="31" r="31"></circle>
            <path d="M31,5 C45.4,5 57,16.6 57,31" id="Shape" sketch:type="MSShapeGroup"></path>
            <path d="M31,57 C16.6,57 5,45.4 5,31" id="Shape" sketch:type="MSShapeGroup"></path>
            <path d="M17.7,29.6 L30.2,19.1 C30.6,19.1 30.9,19.4 30.9,19.9 L30.9,26.8 L41.1,19.1 C41.5,19.1 41.8,19.4 41.8,19.9 L41.8,42.3 C41.8,42.7 41.5,43.1 41.1,43.1 L30.9,35.6 L30.9,42.4 C30.9,42.8 30.6,43.2 30.2,43.2 L17.7,32.8 C17.3,32.5 17,31.7 17,31.4 C17,31.2 17.3,29.9 17.7,29.6 L17.7,29.6 Z" id="Shape" sketch:type="MSShapeGroup"></path>
        </g>
    </g>
</svg>