<?xml version="1.0" encoding="UTF-8" standalone="no"?>
<svg width="52px" height="64px" viewBox="0 0 52 64" version="1.1" xmlns="http://www.w3.org/2000/svg" xmlns:xlink="http://www.w3.org/1999/xlink" xmlns:sketch="http://www.bohemiancoding.com/sketch/ns">
    <!-- Generator: Sketch 3.0.3 (7891) - http://www.bohemiancoding.com/sketch -->
    <title>Cabinet</title>
    <desc>Created with Sketch.</desc>
    <defs></defs>
    <g id="Page-1" stroke="none" stroke-width="1" fill="none" fill-rule="evenodd" sketch:type="MSPage">
        <g id="Cabinet" sketch:type="MSLayerGroup" transform="translate(1.000000, 1.000000)" stroke="#6B6C6E" stroke-width="2">
            <path d="M50,60 C50,61.1 49.1,62 48,62 L2,62 C0.9,62 0,61.1 0,60 L0,2 C0,0.9 0.9,0 2,0 L48,0 C49.1,0 50,0.9 50,2 L50,60 L50,60 Z" id="Shape" sketch:type="MSShapeGroup"></path>
            <path d="M45,18 C45,19.1 44.1,20 43,20 L7,20 C5.9,20 5,19.1 5,18 L5,7 C5,5.9 5.9,5 7,5 L43,5 C44.1,5 45,5.9 45,7 L45,18 L45,18 Z" id="Shape" sketch:type="MSShapeGroup"></path>
            <path d="M45,37 C45,38.1 44.1,39 43,39 L7,39 C5.9,39 5,38.1 5,37 L5,26 C5,24.9 5.9,24 7,24 L43,24 C44.1,24 45,24.9 45,26 L45,37 L45,37 Z" id="Shape" sketch:type="MSShapeGroup"></path>
            <path d="M45,56 C45,57.1 44.1,58 43,58 L7,58 C5.9,58 5,57.1 5,56 L5,45 C5,43.9 5.9,43 7,43 L43,43 C44.1,43 45,43.9 45,45 L45,56 L45,56 Z" id="Shape" sketch:type="MSShapeGroup"></path>
            <path d="M20,49 L20,47 L30,47 L30,49" id="Shape" sketch:type="MSShapeGroup"></path>
            <path d="M20,30 L20,28 L30,28 L30,30" id="Shape" sketch:type="MSShapeGroup"></path>
            <path d="M20,11 L20,9 L30,9 L30,11" id="Shape" sketch:type="MSShapeGroup"></path>
        </g>
    </g>
</svg>