<?xml version="1.0" encoding="UTF-8" standalone="no"?>
<svg width="45px" height="65px" viewBox="0 0 45 65" version="1.1" xmlns="http://www.w3.org/2000/svg" xmlns:xlink="http://www.w3.org/1999/xlink" xmlns:sketch="http://www.bohemiancoding.com/sketch/ns">
    <!-- Generator: Sketch 3.0.3 (7891) - http://www.bohemiancoding.com/sketch -->
    <title>Call-reply</title>
    <desc>Created with Sketch.</desc>
    <defs></defs>
    <g id="Page-1" stroke="none" stroke-width="1" fill="none" fill-rule="evenodd" sketch:type="MSPage">
        <g id="Call-reply" sketch:type="MSLayerGroup" transform="translate(1.000000, 2.000000)" stroke="#6B6C6E" stroke-width="2">
            <path d="M0.1,17.4 C0.1,17.4 2.6,24.4 8.9,37.7 C8.9,37.7 8.9,37.7 8.9,37.8 C15.3,51.1 19.5,57.2 19.5,57.2 C23.7,61.7 30.8,63.8 38.2,60.1 C42.3,58 41.6,53.2 37.8,45.3 L37.8,45.3 C37.8,45.3 37.8,45.3 37.8,45.2 C34.4,38.1 30.6,37.9 28.1,40.1 C27.6,40.5 26,42.1 25.9,42.5 C25.9,42.5 24.4,45 18.7,33 C13,21 15.3,21.6 15.3,21.6 C15.7,21.8 17.9,22 18.5,21.8 C21.7,21.1 24.3,17.7 20.6,9.9 L20.6,9.9 C16.8,2 13.6,-1.6 9.5,0.5 C3.2,3.6 -0.8,11.3 0.1,17.4 L0.1,17.4 Z" id="Shape" sketch:type="MSShapeGroup"></path>
            <g id="Group" transform="translate(24.000000, 18.000000)" sketch:type="MSShapeGroup">
                <path d="M12,4.3 L12,0.6 C12,0.3 11.8,-1.13686838e-13 11.5,-1.13686838e-13 L0.5,7.8 C0.2,8 0,8.1 0,8.4 L0,9.5 C0,9.7 0.2,9.9 0.5,10.1 L11.5,18 C11.8,18 12,17.7 12,17.4 L12,14" id="Shape"></path>
                <path d="M10,13 L20,13" id="Shape"></path>
                <path d="M10,5 L20,5" id="Shape"></path>
            </g>
        </g>
    </g>
</svg>