<?xml version="1.0" encoding="UTF-8" standalone="no"?>
<svg width="47px" height="65px" viewBox="0 0 47 65" version="1.1" xmlns="http://www.w3.org/2000/svg" xmlns:xlink="http://www.w3.org/1999/xlink" xmlns:sketch="http://www.bohemiancoding.com/sketch/ns">
    <!-- Generator: Sketch 3.0.3 (7891) - http://www.bohemiancoding.com/sketch -->
    <title>Call-remove</title>
    <desc>Created with Sketch.</desc>
    <defs></defs>
    <g id="Page-1" stroke="none" stroke-width="1" fill="none" fill-rule="evenodd" sketch:type="MSPage">
        <g id="Call-remove" sketch:type="MSLayerGroup" transform="translate(1.000000, 2.000000)" stroke="#6B6C6E" stroke-width="2">
            <path d="M0.2,17.4 C0.2,17.4 2.7,24.4 9.2,37.7 C9.2,37.7 9.2,37.7 9.2,37.8 C15.7,51.1 20,57.2 20,57.2 C24.3,61.7 31.5,63.8 39.1,60.1 C43.3,58 42.5,53.2 38.7,45.3 L38.7,45.3 C38.7,45.3 38.7,45.3 38.7,45.2 C35.2,38.1 31.3,37.9 28.7,40.1 C28.2,40.5 26.6,42.1 26.4,42.5 C26.4,42.5 24.9,45 19,33 C13.1,21 15.5,21.6 15.5,21.6 C15.9,21.8 18.2,22 18.8,21.8 C22.1,21.1 24.7,17.7 20.9,9.9 L20.9,9.9 C17,2 13.8,-1.6 9.5,0.5 C3.3,3.6 -0.8,11.2 0.2,17.4 L0.2,17.4 Z" id="Shape" sketch:type="MSShapeGroup"></path>
            <path d="M31.4,34.9 L35.6,30.7 L39.8,34.9 L44,30.7 L39.8,26.5 L44,22.3 L39.8,18 L35.6,22.2 L31.3,17.9 L27.1,22.2 L31.3,26.4 L27.1,30.6 L31.4,34.9 Z" id="Shape" sketch:type="MSShapeGroup"></path>
        </g>
    </g>
</svg>