<?xml version="1.0" encoding="UTF-8" standalone="no"?>
<svg width="47px" height="65px" viewBox="0 0 47 65" version="1.1" xmlns="http://www.w3.org/2000/svg" xmlns:xlink="http://www.w3.org/1999/xlink" xmlns:sketch="http://www.bohemiancoding.com/sketch/ns">
    <!-- Generator: Sketch 3.0.3 (7891) - http://www.bohemiancoding.com/sketch -->
    <title>Call-forward</title>
    <desc>Created with Sketch.</desc>
    <defs></defs>
    <g id="Page-1" stroke="none" stroke-width="1" fill="none" fill-rule="evenodd" sketch:type="MSPage">
        <g id="Call-forward" sketch:type="MSLayerGroup" transform="translate(1.000000, 2.000000)" stroke="#6B6C6E" stroke-width="2">
            <path d="M0.1,17.4 C0.1,17.4 2.6,24.4 9.1,37.7 C9.1,37.7 9.1,37.7 9.1,37.8 C15.6,51.1 19.9,57.2 19.9,57.2 C24.2,61.7 31.4,63.8 39,60.1 C43.2,58 42.4,53.2 38.6,45.3 L38.6,45.3 C38.6,45.3 38.6,45.3 38.6,45.2 C35.1,38.1 31.2,37.9 28.6,40.1 C28.1,40.5 26.5,42.1 26.3,42.5 C26.3,42.5 24.8,45 18.9,33 C13,21 15.4,21.6 15.4,21.6 C15.8,21.7 18.1,22 18.7,21.8 C22,21.1 24.6,17.7 20.8,9.9 L20.8,9.9 C16.9,2 13.7,-1.6 9.4,0.5 C3.3,3.6 -0.8,11.3 0.1,17.4 L0.1,17.4 Z" id="Shape" sketch:type="MSShapeGroup"></path>
            <g id="Group" transform="translate(24.000000, 18.000000)" sketch:type="MSShapeGroup">
                <path d="M7.9,13.7 L7.9,17.4 C7.9,17.7 8.2,18 8.5,18 L20.4,10.2 C20.7,10 21,9.9 21,9.6 L21,8.5 C21,8.3 20.8,8.1 20.4,7.9 L8.5,1.13686838e-13 C8.2,1.13686838e-13 7.9,0.3 7.9,0.6 L7.9,4.6" id="Shape"></path>
                <path d="M9.9,5 L0,5" id="Shape"></path>
                <path d="M9.9,13 L0,13" id="Shape"></path>
            </g>
        </g>
    </g>
</svg>