<?xml version="1.0" encoding="UTF-8" standalone="no"?>
<svg width="64px" height="49px" viewBox="0 0 64 49" version="1.1" xmlns="http://www.w3.org/2000/svg" xmlns:xlink="http://www.w3.org/1999/xlink" xmlns:sketch="http://www.bohemiancoding.com/sketch/ns">
    <!-- Generator: Sketch 3.0.3 (7891) - http://www.bohemiancoding.com/sketch -->
    <title>Camera</title>
    <desc>Created with Sketch.</desc>
    <defs></defs>
    <g id="Page-1" stroke="none" stroke-width="1" fill="none" fill-rule="evenodd" sketch:type="MSPage">
        <g id="Camera" sketch:type="MSLayerGroup" transform="translate(1.000000, 1.000000)" stroke="#6B6C6E" stroke-width="2">
            <path d="M24,7 L27,0 L45,0 L48,7" id="Shape" sketch:type="MSShapeGroup"></path>
            <path d="M7,7 L7,3 L17,3 L17,7" id="Shape" sketch:type="MSShapeGroup"></path>
            <path d="M62,45 C62,46.1 61.1,47 60,47 L2,47 C0.9,47 0,46.1 0,45 L0,9 C0,7.9 0.9,7 2,7 L60,7 C61.1,7 62,7.9 62,9 L62,45 L62,45 Z" id="Shape" sketch:type="MSShapeGroup"></path>
            <path d="M12,16 L12,47" id="Shape" sketch:type="MSShapeGroup"></path>
            <path d="M30,4 L42,4" id="Shape" sketch:type="MSShapeGroup"></path>
            <path d="M1,15 L29,15" id="Shape" sketch:type="MSShapeGroup"></path>
            <path d="M44,15 L61,15" id="Shape" sketch:type="MSShapeGroup"></path>
            <path d="M3,11 L5,11" id="Shape" sketch:type="MSShapeGroup"></path>
            <path d="M7,11 L9,11" id="Shape" sketch:type="MSShapeGroup"></path>
            <circle id="Oval" sketch:type="MSShapeGroup" cx="36" cy="28" r="15"></circle>
            <circle id="Oval" sketch:type="MSShapeGroup" cx="36" cy="28" r="11"></circle>
        </g>
    </g>
</svg>