<?xml version="1.0" encoding="UTF-8" standalone="no"?>
<svg width="30px" height="66px" viewBox="0 0 30 66" version="1.1" xmlns="http://www.w3.org/2000/svg" xmlns:xlink="http://www.w3.org/1999/xlink" xmlns:sketch="http://www.bohemiancoding.com/sketch/ns">
    <!-- Generator: Sketch 3.0.3 (7891) - http://www.bohemiancoding.com/sketch -->
    <title>Candle</title>
    <desc>Created with Sketch.</desc>
    <defs></defs>
    <g id="Page-1" stroke="none" stroke-width="1" fill="none" fill-rule="evenodd" sketch:type="MSPage">
        <g id="Candle" sketch:type="MSLayerGroup" transform="translate(1.000000, 3.000000)" stroke="#6B6C6E" stroke-width="2">
            <path d="M28,60 C28,61.1 27.1,62 26,62 L2,62 C0.9,62 0,61.1 0,60 L0,29.2 C0,28.1 0.9,27.2 2,27.2 C2,27.2 5.1,29 14.1,29 C23,29 26,24.2 26,24.2 C27.1,24.2 28,25.1 28,26.2 L28,60 L28,60 Z" id="Shape" sketch:type="MSShapeGroup"></path>
            <path d="M14.1,21.2 L14.1,28.2" id="Shape" sketch:type="MSShapeGroup"></path>
            <path d="M21,15.3 C21,19.1 17.9,22.3 14,22.3 C10.2,22.3 7,19.2 7,15.3 C14,11.3 14,0.4 14,0.4 C14,0.4 21,11.4 21,15.3 L21,15.3 Z" id="Shape" sketch:type="MSShapeGroup"></path>
        </g>
    </g>
</svg>