<?xml version="1.0" encoding="UTF-8" standalone="no"?>
<svg width="64px" height="46px" viewBox="0 0 64 46" version="1.1" xmlns="http://www.w3.org/2000/svg" xmlns:xlink="http://www.w3.org/1999/xlink" xmlns:sketch="http://www.bohemiancoding.com/sketch/ns">
    <!-- Generator: Sketch 3.0.3 (7891) - http://www.bohemiancoding.com/sketch -->
    <title>Cart-heart</title>
    <desc>Created with Sketch.</desc>
    <defs></defs>
    <g id="Page-1" stroke="none" stroke-width="1" fill="none" fill-rule="evenodd" sketch:type="MSPage">
        <g id="Cart-heart" sketch:type="MSLayerGroup" transform="translate(1.000000, 1.000000)" stroke="#6B6C6E" stroke-width="2">
            <path d="M26.1,36.9 L24.1,36.9 C23.1,36.9 22.3,36.1 22.3,35.1 L13.1,5.8 C13.1,4.8 8.9,4 0,4 L0,7" id="Shape" sketch:type="MSShapeGroup"></path>
            <path d="M43.4,36.9 L36.3,36.9" id="Shape" sketch:type="MSShapeGroup"></path>
            <path d="M53.5,36.9 L55.5,36.9 C56.5,36.9 57.2,36.1 57.2,35.1 L61.9,8.8 C61.9,7.8 61.1,7 60.2,7 L59.4,7" id="Shape" sketch:type="MSShapeGroup"></path>
            <path d="M14.2,7.1 L42.1,7.1" id="Shape" sketch:type="MSShapeGroup"></path>
            <circle id="Oval" sketch:type="MSShapeGroup" cx="31" cy="39" r="5"></circle>
            <circle id="Oval" sketch:type="MSShapeGroup" cx="48" cy="39" r="5"></circle>
            <path d="M25,16 L47,16" id="Shape" sketch:type="MSShapeGroup"></path>
            <path d="M27,21 L52,21" id="Shape" sketch:type="MSShapeGroup"></path>
            <path d="M29,26 L51,26" id="Shape" sketch:type="MSShapeGroup"></path>
            <path d="M50.8,2.2 C49.4,-0.9 41.7,-1.1 41.7,4.4 C41.7,8.7 49.2,14.2 50.8,14.2 C52.4,14.2 59.9,8.7 59.9,4.4 C59.9,-1.7 49.9,-1.3 49.9,5.2" id="Shape" sketch:type="MSShapeGroup"></path>
        </g>
    </g>
</svg>