<?xml version="1.0" encoding="UTF-8" standalone="no"?>
<svg width="64px" height="53px" viewBox="0 0 64 53" version="1.1" xmlns="http://www.w3.org/2000/svg" xmlns:xlink="http://www.w3.org/1999/xlink" xmlns:sketch="http://www.bohemiancoding.com/sketch/ns">
    <!-- Generator: Sketch 3.0.3 (7891) - http://www.bohemiancoding.com/sketch -->
    <title>Cart-upload</title>
    <desc>Created with Sketch.</desc>
    <defs></defs>
    <g id="Page-1" stroke="none" stroke-width="1" fill="none" fill-rule="evenodd" sketch:type="MSPage">
        <g id="Cart-upload" sketch:type="MSLayerGroup" transform="translate(1.000000, 2.000000)" stroke="#6B6C6E" stroke-width="2">
            <path d="M25.9,42.9 L23.9,42.9 C22.9,42.9 22.1,42.1 22.1,41.1 L12.9,11.7 C12.9,10.7 9,9.9 0,9.9 L0,12.9" id="Shape" sketch:type="MSShapeGroup"></path>
            <path d="M43.2,42.9 L36,42.9" id="Shape" sketch:type="MSShapeGroup"></path>
            <path d="M53.3,42.9 L55.3,42.9 C56.3,42.9 57.1,42.1 57.1,41.1 L62,14.7 C62,13.7 61.2,12.9 60.2,12.9 L56.8,12.9" id="Shape" sketch:type="MSShapeGroup"></path>
            <path d="M13.5,13 L41.4,13" id="Shape" sketch:type="MSShapeGroup"></path>
            <ellipse id="Oval" sketch:type="MSShapeGroup" cx="31.1" cy="45" rx="5.1" ry="5"></ellipse>
            <ellipse id="Oval" sketch:type="MSShapeGroup" cx="48.1" cy="45" rx="5.1" ry="5"></ellipse>
            <path d="M25.1,22 L53.6,22" id="Shape" sketch:type="MSShapeGroup"></path>
            <path d="M26.1,27 L52.6,27" id="Shape" sketch:type="MSShapeGroup"></path>
            <path d="M28.2,32 L51.5,32" id="Shape" sketch:type="MSShapeGroup"></path>
            <g id="Group" transform="translate(41.000000, 0.000000)" sketch:type="MSShapeGroup">
                <path d="M13,20 L13,11" id="Shape"></path>
                <path d="M5,11 L5,20" id="Shape"></path>
                <path d="M13.6,12.9 L17.4,12.9 C17.7,12.9 18,12.7 18,12.3 L10,0.5 C9.8,0.2 9.7,-0.1 9.4,-0.1 L8.3,-0.1 C8.1,-0.1 7.9,0.1 7.7,0.5 L-0.4,12.3 C-0.4,12.6 -0.1,12.9 0.2,12.9 L4,12.9" id="Shape"></path>
            </g>
        </g>
    </g>
</svg>