<?xml version="1.0" encoding="UTF-8" standalone="no"?>
<svg width="65px" height="43px" viewBox="0 0 65 43" version="1.1" xmlns="http://www.w3.org/2000/svg" xmlns:xlink="http://www.w3.org/1999/xlink" xmlns:sketch="http://www.bohemiancoding.com/sketch/ns">
    <!-- Generator: Sketch 3.0.3 (7891) - http://www.bohemiancoding.com/sketch -->
    <title>Cart</title>
    <desc>Created with Sketch.</desc>
    <defs></defs>
    <g id="Page-1" stroke="none" stroke-width="1" fill="none" fill-rule="evenodd" sketch:type="MSPage">
        <g id="Cart" sketch:type="MSLayerGroup" transform="translate(1.000000, 2.000000)" stroke="#6B6C6E" stroke-width="2">
            <path d="M26.1,32.9 L24.1,32.9 C23.1,32.9 22.3,32.1 22.3,31.1 L13.1,1.7 C13.1,0.7 8.9,-0.1 -1.13686838e-13,-0.1 L-1.13686838e-13,2.9" id="Shape" sketch:type="MSShapeGroup"></path>
            <path d="M43.3,32.9 L36.2,32.9" id="Shape" sketch:type="MSShapeGroup"></path>
            <path d="M14.2,3 L60.3,3 C61.3,3 62.1,3.8 62.1,4.8 L57.3,31.2 C57.3,32.2 56.5,33 55.5,33 L53.5,33" id="Shape" sketch:type="MSShapeGroup"></path>
            <ellipse id="Oval" sketch:type="MSShapeGroup" cx="31.1" cy="35" rx="5.1" ry="5"></ellipse>
            <ellipse id="Oval" sketch:type="MSShapeGroup" cx="48.1" cy="35" rx="5.1" ry="5"></ellipse>
            <path d="M25,12 L54,12" id="Shape" sketch:type="MSShapeGroup"></path>
            <path d="M27,17 L53,17" id="Shape" sketch:type="MSShapeGroup"></path>
            <path d="M29,22 L52,22" id="Shape" sketch:type="MSShapeGroup"></path>
        </g>
    </g>
</svg>