<?xml version="1.0" encoding="UTF-8" standalone="no"?>
<svg width="64px" height="43px" viewBox="0 0 64 43" version="1.1" xmlns="http://www.w3.org/2000/svg" xmlns:xlink="http://www.w3.org/1999/xlink" xmlns:sketch="http://www.bohemiancoding.com/sketch/ns">
    <!-- Generator: Sketch 3.0.3 (7891) - http://www.bohemiancoding.com/sketch -->
    <title>Cart-remove</title>
    <desc>Created with Sketch.</desc>
    <defs></defs>
    <g id="Page-1" stroke="none" stroke-width="1" fill="none" fill-rule="evenodd" sketch:type="MSPage">
        <g id="Cart-remove" sketch:type="MSLayerGroup" transform="translate(1.000000, 1.000000)" stroke="#6B6C6E" stroke-width="2">
            <path d="M26.1,33.9 L24.1,33.9 C23.1,33.9 22.3,33.1 22.3,32.1 L13.1,2.8 C13.1,1.8 8.9,1 0,1 L0,4" id="Shape" sketch:type="MSShapeGroup"></path>
            <path d="M43.4,33.9 L36.3,33.9" id="Shape" sketch:type="MSShapeGroup"></path>
            <path d="M53.5,33.9 L55.5,33.9 C56.5,33.9 57.2,33.1 57.2,32.1 L61.9,5.8 C61.9,4.8 61.1,4 60.2,4 L57.8,4" id="Shape" sketch:type="MSShapeGroup"></path>
            <path d="M14.2,4 L41.6,4" id="Shape" sketch:type="MSShapeGroup"></path>
            <circle id="Oval" sketch:type="MSShapeGroup" cx="31" cy="36" r="5"></circle>
            <circle id="Oval" sketch:type="MSShapeGroup" cx="48" cy="36" r="5"></circle>
            <path d="M25,13 L52.8,13" id="Shape" sketch:type="MSShapeGroup"></path>
            <path d="M27,18 L51,18" id="Shape" sketch:type="MSShapeGroup"></path>
            <path d="M29,23 L49,23" id="Shape" sketch:type="MSShapeGroup"></path>
            <rect id="Rectangle-path" sketch:type="MSShapeGroup" x="41" y="0" width="16" height="6"></rect>
        </g>
    </g>
</svg>