<?xml version="1.0" encoding="UTF-8" standalone="no"?>
<svg width="64px" height="46px" viewBox="0 0 64 46" version="1.1" xmlns="http://www.w3.org/2000/svg" xmlns:xlink="http://www.w3.org/1999/xlink" xmlns:sketch="http://www.bohemiancoding.com/sketch/ns">
    <!-- Generator: Sketch 3.0.3 (7891) - http://www.bohemiancoding.com/sketch -->
    <title>Cart-download</title>
    <desc>Created with Sketch.</desc>
    <defs></defs>
    <g id="Page-1" stroke="none" stroke-width="1" fill="none" fill-rule="evenodd" sketch:type="MSPage">
        <g id="Cart-download" sketch:type="MSLayerGroup" transform="translate(1.000000, 0.000000)" stroke="#6B6C6E" stroke-width="2">
            <path d="M26.1,37.9 L24.1,37.9 C23.1,37.9 22.3,37.1 22.3,36.1 L13.1,6.7 C13.1,5.7 8.9,4.9 0,4.9 L0,7.9" id="Shape" sketch:type="MSShapeGroup"></path>
            <path d="M43.2,37.9 L36.2,37.9" id="Shape" sketch:type="MSShapeGroup"></path>
            <path d="M53.4,37.9 L55.4,37.9 C56.4,37.9 57.2,37.1 57.2,36.1 L62,9.7 C62,8.7 61.2,7.9 60.2,7.9 L58,7.9" id="Shape" sketch:type="MSShapeGroup"></path>
            <path d="M14.2,8 L42.8,8" id="Shape" sketch:type="MSShapeGroup"></path>
            <ellipse id="Oval" sketch:type="MSShapeGroup" cx="31.1" cy="40" rx="5.1" ry="5"></ellipse>
            <ellipse id="Oval" sketch:type="MSShapeGroup" cx="48.1" cy="40" rx="5.1" ry="5"></ellipse>
            <path d="M25,17 L42,17" id="Shape" sketch:type="MSShapeGroup"></path>
            <path d="M27,22 L45,22" id="Shape" sketch:type="MSShapeGroup"></path>
            <path d="M28,27 L52,27" id="Shape" sketch:type="MSShapeGroup"></path>
            <g id="Group" transform="translate(41.000000, 0.000000)" sketch:type="MSShapeGroup">
                <path d="M6.05615225,8 L1,8 C0.7,8 0.4,8.3 0.4,8.6 L8.3,20.5 C8.5,20.8 8.6,21.1 8.9,21.1 L10,21.1 C10.2,21.1 10.4,20.9 10.6,20.5 L18.6,8.6 C18.6,8.3 18.3,8 18,8 L14,8" id="Shape"></path>
                <path d="M14,9.9 L14,0" id="Shape"></path>
                <path d="M6,9.9 L6,0" id="Shape"></path>
            </g>
        </g>
    </g>
</svg>