<?xml version="1.0" encoding="UTF-8" standalone="no"?>
<svg width="64px" height="42px" viewBox="0 0 64 42" version="1.1" xmlns="http://www.w3.org/2000/svg" xmlns:xlink="http://www.w3.org/1999/xlink" xmlns:sketch="http://www.bohemiancoding.com/sketch/ns">
    <!-- Generator: Sketch 3.0.3 (7891) - http://www.bohemiancoding.com/sketch -->
    <title>Cassette</title>
    <desc>Created with Sketch.</desc>
    <defs></defs>
    <g id="Page-1" stroke="none" stroke-width="1" fill="none" fill-rule="evenodd" sketch:type="MSPage">
        <g id="Cassette" sketch:type="MSLayerGroup" transform="translate(1.000000, 1.000000)" stroke="#6B6C6E" stroke-width="2">
            <path d="M62,38 C62,39.1 61.1,40 60,40 L2,40 C0.9,40 0,39.1 0,38 L0,2 C0,0.9 0.9,0 2,0 L12,0 L19.2,7 L43.9,7 L51.2,0 L60,0 C61.1,0 62,0.9 62,2 L62,38 L62,38 Z" id="Shape" sketch:type="MSShapeGroup"></path>
            <path d="M15,30 L47.7,30" id="Shape" sketch:type="MSShapeGroup"></path>
            <path d="M18,1 L45,1" id="Shape" sketch:type="MSShapeGroup"></path>
            <circle id="Oval" sketch:type="MSShapeGroup" cx="15" cy="23" r="7"></circle>
            <circle id="Oval" sketch:type="MSShapeGroup" cx="47" cy="23" r="7"></circle>
        </g>
    </g>
</svg>