<?xml version="1.0" encoding="utf-8"?>
<!-- Generator: Adobe Illustrator 17.0.0, SVG Export Plug-In . SVG Version: 6.00 Build 0)  -->
<!DOCTYPE svg PUBLIC "-//W3C//DTD SVG 1.1//EN" "http://www.w3.org/Graphics/SVG/1.1/DTD/svg11.dtd">
<svg version="1.1" id="Layer_1" xmlns:sketch="http://www.bohemiancoding.com/sketch/ns"
	 xmlns="http://www.w3.org/2000/svg" xmlns:xlink="http://www.w3.org/1999/xlink" x="0px" y="0px" width="58px" height="64px"
	 viewBox="0 0 58 64" enable-background="new 0 0 58 64" xml:space="preserve">
<title>Char-column-1</title>
<desc>Created with Sketch.</desc>
<g id="Page-1" sketch:type="MSPage">
	<g id="Char-column-1" transform="translate(0.000000, 1.000000)" sketch:type="MSLayerGroup">
		<path id="Shape" sketch:type="MSShapeGroup" fill="none" stroke="#6B6C6E" stroke-width="2" d="M0,62h58"/>
		<path id="Shape_1_" sketch:type="MSShapeGroup" fill="none" stroke="#6B6C6E" stroke-width="2" d="M38,18c-1.1,0-2,0.9-2,2.1v5.4
			V2.1C36,1,35.1,0,34,0H24c-1.1,0-2,0.9-2,3.1v38.4v-5.2c0-2.2-0.9-3.3-2-3.3H10c-1.1,0-2,1.1-2,2.3V55c0,1.1,0.9,2,2,2h10
			c1.032,0,1.888-0.704,1.99-1.782c0.004-0.047,0.009-4.968,0.009-4.968S22,55.025,22,55c0,1.1,0.9,2,2,2h10
			c1.05,0,1.918-0.729,1.995-1.84c0.002-0.035,0.005-4.91,0.005-4.91S36,55.018,36,55c0,1.1,0.9,2,2,2h10c1.1,0,2-0.8,2-2V20.1
			c0-1.1-0.9-2.1-2-2.1H38z"/>
	</g>
</g>
</svg>
