<?xml version="1.0" encoding="utf-8"?>
<!-- Generator: Adobe Illustrator 17.0.0, SVG Export Plug-In . SVG Version: 6.00 Build 0)  -->
<!DOCTYPE svg PUBLIC "-//W3C//DTD SVG 1.1//EN" "http://www.w3.org/Graphics/SVG/1.1/DTD/svg11.dtd">
<svg version="1.1" id="Layer_1" xmlns:sketch="http://www.bohemiancoding.com/sketch/ns"
	 xmlns="http://www.w3.org/2000/svg" xmlns:xlink="http://www.w3.org/1999/xlink" x="0px" y="0px" width="61px" height="64px"
	 viewBox="0 0 61 64" enable-background="new 0 0 61 64" xml:space="preserve">
<title>Chart-column-2</title>
<desc>Created with Sketch.</desc>
<g id="Page-1" sketch:type="MSPage">
	<g id="Chart-column-2" transform="translate(0.000000, 1.000000)" sketch:type="MSLayerGroup">
		<path id="Shape" sketch:type="MSShapeGroup" fill="none" stroke="#6B6C6E" stroke-width="2" d="M0,62h61"/>
		<path id="Shape_1_" sketch:type="MSShapeGroup" fill="none" stroke="#6B6C6E" stroke-width="2" d="M49,0H39c-1.1,0-2,0.9-2,2
			v23.625V21c0-1.1-0.9-2-2-2H25c-1.1,0-2,0.9-2,2v18.125V36c0-1.1-0.9-2-2-2H11c-1.1,0-2,0.9-2,2v19c0,1.1,0.9,2,2,2h10
			c1.052,0,1.921-0.823,1.995-1.856c0.001-0.016,0.003-6.003,0.003-6.003S23,55.032,23,55c0,1.1,0.9,2,2,2h10
			c1.047,0,1.913-0.816,1.994-1.844c0.003-0.034,0.005-6.016,0.005-6.016S37,55.018,37,55c0,1.1,0.9,2,2,2h10c1.1,0,2-0.9,2-2V2
			C51,0.9,50.1,0,49,0L49,0z"/>
	</g>
</g>
</svg>
