<?xml version="1.0" encoding="utf-8"?>
<!-- Generator: Adobe Illustrator 17.0.0, SVG Export Plug-In . SVG Version: 6.00 Build 0)  -->
<!DOCTYPE svg PUBLIC "-//W3C//DTD SVG 1.1//EN" "http://www.w3.org/Graphics/SVG/1.1/DTD/svg11.dtd">
<svg version="1.1" id="Layer_1" xmlns:sketch="http://www.bohemiancoding.com/sketch/ns"
	 xmlns="http://www.w3.org/2000/svg" xmlns:xlink="http://www.w3.org/1999/xlink" x="0px" y="0px" width="56px" height="64px"
	 viewBox="0 0 56 64" enable-background="new 0 0 56 64" xml:space="preserve">
<title>Chimney</title>
<desc>Created with Sketch.</desc>
<g id="Page-1" sketch:type="MSPage">
	<g id="Chimney" transform="translate(1.000000, 2.000000)" sketch:type="MSLayerGroup">
		<path id="Shape_1_" sketch:type="MSShapeGroup" fill="none" stroke="#6B6C6E" stroke-width="2" stroke-linejoin="round" d="
			M27.5,46.2l2.5-9.1c0,0-1.5-5.1-2-6.9s5.1-3.2,9-3.2l0,0c3.9,0,9.9,0.9,9,3.2S44,37,44,37l5,20.1c0,3.1-8.2,3.9-12,3.9l0,0
			c-2.6,0-7.2-0.4-9.9-1.6"/>
		<path id="Shape" sketch:type="MSShapeGroup" fill="none" stroke="#6B6C6E" stroke-width="2" stroke-linejoin="round" d="M30,56.3
			C30,60,19.8,61,15,61l0,0c-4.8,0-15-1-15-4.7l6.3-24.2c0,0-2.5-5.8-3.1-8C2.6,22,10.2,20,15,20l0,0c4.8,0,13.1,1.4,11.9,4.2
			s-3.2,7.9-3.2,7.9L30,56.3L30,56.3z"/>
		
			<path id="Shape_2_" sketch:type="MSShapeGroup" fill="none" stroke="#6B6C6E" stroke-width="2" stroke-linecap="round" stroke-linejoin="round" d="
			M3.356,24.1c0,0,10.281,6.4,23.5,0"/>
		
			<path id="Shape_3_" sketch:type="MSShapeGroup" fill="none" stroke="#6B6C6E" stroke-width="2" stroke-linecap="round" stroke-linejoin="round" d="
			M28.2,30.1c0,0,7.706,4.4,17.656,0"/>
		<path id="Shape_4_" sketch:type="MSShapeGroup" fill="none" stroke="#6B6C6E" stroke-width="2" stroke-linejoin="round" d="
			M30.3-0.1c-2.6,0-4.8,1.5-5.9,3.7h-0.5c-2.3,0-4.3,1.7-4.5,3.9c-1.8,0.5-3.1,2-3.1,3.9c0,0.4,0.1,0.8,0.2,1.1h-0.2
			c-1.2,0-2.2,1-2.2,2.2s1,2.2,2.2,2.2c1.1,0,2-0.8,2.2-1.9c0.6,0.3,1.3,0.5,2,0.5c1.6,0,3-0.9,3.7-2.3c0.7,0.5,1.5,0.7,2.4,0.7
			c2.3,0,4.1-1.8,4-2.2c3.5-0.1,6.2-2.1,6.2-5.6C36.7,2.8,33.9-0.1,30.3-0.1L30.3-0.1z"/>
		<path id="Shape_5_" sketch:type="MSShapeGroup" fill="none" stroke="#6B6C6E" stroke-width="2" stroke-linejoin="round" d="
			M48.6,9c-2.2,0-4.1,1.3-4.9,3.1h-0.4c-2,0-3.6,1.4-3.8,3.3c-1.5,0.4-2.6,1.7-2.6,3.3c0,0.3,0.1,0.6,0.1,0.9h-0.1
			c-1,0-1.9,0.8-1.9,1.8s0.8,1.8,1.9,1.8c0.9,0,1.7-0.7,1.8-1.6c0.5,0.3,1.1,0.4,1.7,0.4c1.4,0,2.6-0.8,3.1-1.9
			c0.6,0.4,1.2,0.6,2,0.6c1.9,0,3.4-1.5,3.3-1.8c2.9-0.1,5.2-1.8,5.2-4.6C54,11.3,51.6,9,48.6,9L48.6,9z"/>
	</g>
</g>
</svg>
