<?xml version="1.0" encoding="utf-8"?>
<!-- Generator: Adobe Illustrator 17.0.0, SVG Export Plug-In . SVG Version: 6.00 Build 0)  -->
<!DOCTYPE svg PUBLIC "-//W3C//DTD SVG 1.1//EN" "http://www.w3.org/Graphics/SVG/1.1/DTD/svg11.dtd">
<svg version="1.1" id="Layer_1" xmlns:sketch="http://www.bohemiancoding.com/sketch/ns"
	 xmlns="http://www.w3.org/2000/svg" xmlns:xlink="http://www.w3.org/1999/xlink" x="0px" y="0px" width="54px" height="62px"
	 viewBox="0 0 54 62" enable-background="new 0 0 54 62" xml:space="preserve">
<title>Church</title>
<desc>Created with Sketch.</desc>
<g id="Page-1" sketch:type="MSPage">
	<g id="Church" transform="translate(1.000000, 0.000000)" sketch:type="MSLayerGroup">
		<path id="Shape" sketch:type="MSShapeGroup" fill="none" stroke="#6B6C6E" stroke-width="2" stroke-linejoin="round" d="M3,42
			l18-7"/>
		<path id="Shape_1_" sketch:type="MSShapeGroup" fill="none" stroke="#6B6C6E" stroke-width="2" stroke-linejoin="round" d="M49,42
			l-18-7"/>
		<path id="Shape_2_" sketch:type="MSShapeGroup" fill="none" stroke="#6B6C6E" stroke-width="2" stroke-linejoin="round" d="M21,62
			V51c0-1.1,0.9-2,2-2h6c1.1,0,2,0.9,2,2v11"/>
		
			<circle id="Oval" sketch:type="MSShapeGroup" fill="none" stroke="#6B6C6E" stroke-width="2" stroke-linejoin="round" cx="26" cy="35" r="5">
		</circle>
		<path id="Shape_3_" sketch:type="MSShapeGroup" fill="none" stroke="#6B6C6E" stroke-width="2" stroke-linejoin="round" d="M35,28
			l-1.8-8L26.1,8l-7.3,12L17,28c0,0-17,9.9-17,11l3,3v17c0,1.1,0.9,2,2,2h42c1.1,0,2-0.9,2-2V42.5l3-3.5C52,37.9,35,28,35,28z"/>
		<path id="Shape_4_" sketch:type="MSShapeGroup" fill="none" stroke="#6B6C6E" stroke-width="2" stroke-linejoin="round" d="M26,0
			v9"/>
		<path id="Shape_5_" sketch:type="MSShapeGroup" fill="none" stroke="#6B6C6E" stroke-width="2" stroke-linejoin="round" d="
			M22.1,3H30"/>
		<path id="Shape_6_" sketch:type="MSShapeGroup" fill="none" stroke="#6B6C6E" stroke-width="2" stroke-linejoin="round" d="
			M22,26.9l1-5.8l3-4.9l3,4.9l1,5.8H22z"/>
	</g>
</g>
</svg>
