<?xml version="1.0" encoding="UTF-8" standalone="no"?>
<svg width="61px" height="65px" viewBox="0 0 61 65" version="1.1" xmlns="http://www.w3.org/2000/svg" xmlns:xlink="http://www.w3.org/1999/xlink" xmlns:sketch="http://www.bohemiancoding.com/sketch/ns">
    <!-- Generator: Sketch 3.0.3 (7891) - http://www.bohemiancoding.com/sketch -->
    <title>Clap-board</title>
    <desc>Created with Sketch.</desc>
    <defs></defs>
    <g id="Page-1" stroke="none" stroke-width="1" fill="none" fill-rule="evenodd" sketch:type="MSPage">
        <g id="Clap-board" sketch:type="MSLayerGroup" transform="translate(1.000000, 1.000000)" stroke="#6B6C6E" stroke-width="2">
            <path d="M58,31 L58,60.9 C58,62.1 57.1,63 55.9,63 L3,63 C1.9,63 0.9,62.1 0.9,60.9 L0.9,31" id="Shape" sketch:type="MSShapeGroup"></path>
            <path d="M13,37 L13,54.9" id="Shape" sketch:type="MSShapeGroup"></path>
            <path d="M47,37 L47,54.9" id="Shape" sketch:type="MSShapeGroup"></path>
            <path d="M8,41 L52,41" id="Shape" sketch:type="MSShapeGroup"></path>
            <path d="M8,51 L52,51" id="Shape" sketch:type="MSShapeGroup"></path>
            <path d="M58,30.9 L1,30.9 L1,24.2 C1,23.1 1.9,22.1 3.1,22.1 L56,22.1 C57.1,22.1 58.1,23 58.1,24.2 L58.1,30.9 L58,30.9 Z" id="Shape" sketch:type="MSShapeGroup"></path>
            <path d="M6.5,30.3 L11.7,22.1" id="Shape" sketch:type="MSShapeGroup"></path>
            <path d="M18.9,30.3 L24,22.1" id="Shape" sketch:type="MSShapeGroup"></path>
            <path d="M32.3,30.3 L37.4,22.1" id="Shape" sketch:type="MSShapeGroup"></path>
            <path d="M44.6,30.3 L49.8,22.1" id="Shape" sketch:type="MSShapeGroup"></path>
            <path d="M55.4,1.6 C55.2,0.5 54.1,-0.2 53,-2.73114864e-14 L1.7,11 C0.6,11.2 -0.1,12.3 0.1,13.4 L1.6,20.4 C1.8,21.5 2.9,22.2 4,22 L55.3,11 C56.4,10.8 57.1,9.7 56.9,8.6 L55.4,1.6 L55.4,1.6 Z" id="Shape" sketch:type="MSShapeGroup"></path>
            <path d="M12.6,8.4 L8.4,20.7" id="Shape" sketch:type="MSShapeGroup"></path>
            <path d="M24,5.7 L19.9,18" id="Shape" sketch:type="MSShapeGroup"></path>
            <path d="M36.2,3.6 L32.1,15.9" id="Shape" sketch:type="MSShapeGroup"></path>
            <path d="M48.7,0.6 L44.6,12.9" id="Shape" sketch:type="MSShapeGroup"></path>
        </g>
    </g>
</svg>