<?xml version="1.0" encoding="utf-8"?>
<!-- Generator: Adobe Illustrator 17.0.0, SVG Export Plug-In . SVG Version: 6.00 Build 0)  -->
<!DOCTYPE svg PUBLIC "-//W3C//DTD SVG 1.1//EN" "http://www.w3.org/Graphics/SVG/1.1/DTD/svg11.dtd">
<svg version="1.1" id="Layer_1" xmlns:sketch="http://www.bohemiancoding.com/sketch/ns"
	 xmlns="http://www.w3.org/2000/svg" xmlns:xlink="http://www.w3.org/1999/xlink" x="0px" y="0px" width="59px" height="65px"
	 viewBox="0 0 59 65" enable-background="new 0 0 59 65" xml:space="preserve">
<title>Clipboard-edit</title>
<desc>Created with Sketch.</desc>
<g id="Page-1" sketch:type="MSPage">
	<g id="Clipboard-edit" transform="translate(1.000000, 1.000000)" sketch:type="MSLayerGroup">
		<g id="Group" sketch:type="MSShapeGroup">
			<path id="Shape" fill="none" stroke="#6B6C6E" stroke-width="2" stroke-linejoin="round" d="M44,51v9c0,1.1-0.9,2-2,2H2
				c-1.1,0-2-0.9-2-2V9c0-1.1,0.9-2,2-2h11"/>
			<path id="Shape_1_" fill="none" stroke="#6B6C6E" stroke-width="2" stroke-linejoin="round" d="M31,7h11c1.1,0,2,0.9,2,2v30"/>
			<path id="Shape_3_" fill="none" stroke="#6B6C6E" stroke-width="2" stroke-linejoin="round" d="M29,56H7c-1.1,0-2-0.9-2-2V14
				c0-1.1,0.9-2,2-2h6"/>
			<path id="Shape_4_" fill="none" stroke="#6B6C6E" stroke-width="2" stroke-linejoin="round" d="M31,12h6c1.1,0,2,0.9,2,2v30"/>
			<path id="Shape_2_" fill="none" stroke="#6B6C6E" stroke-width="2" stroke-linejoin="round" d="M29,5c0,0-3-0.7-3-1
				c0-2.2-1.8-4-4-4s-4,1.8-4,4c0,0.3-3,1-3,1c-1.1,0-2,0.9-2,2v5c0,1.1,0.9,2,2,2h14c1.1,0,2-0.9,2-2V7C31,5.9,30.1,5,29,5L29,5z"
				/>
			<path id="Shape_5_" fill="none" stroke="#6B6C6E" stroke-width="2" stroke-linejoin="round" d="M10,22h21"/>
			<path id="Shape_6_" fill="none" stroke="#6B6C6E" stroke-width="2" stroke-linejoin="round" d="M10,28h12"/>
			<path id="Shape_7_" fill="none" stroke="#6B6C6E" stroke-width="2" stroke-linejoin="round" d="M10,33h23"/>
			<path id="Shape_8_" fill="none" stroke="#6B6C6E" stroke-width="2" stroke-linejoin="round" d="M10,40h17"/>
			<path id="Shape_9_" fill="none" stroke="#6B6C6E" stroke-width="2" stroke-linejoin="round" d="M23,48h10"/>
		</g>
		<g id="Group_1_" transform="translate(27.000000, 32.000000)" sketch:type="MSShapeGroup">
			<path id="Shape_11_" fill="none" stroke="#6B6C6E" stroke-width="2" stroke-linejoin="round" d="M9,26.5L0,30l3.5-9l0.4-0.4
				L24.2,0.3c0.4-0.4,1.1-0.4,1.6,0l3.9,3.9c0.4,0.4,0.4,1.1,0,1.6L9.4,26.1l0,0L9,26.5z"/>
			<path id="Shape_12_" fill="none" stroke="#6B6C6E" stroke-width="2" stroke-linejoin="round" d="M21.9,2.7l5.4,5.4"/>
			<path id="Shape_14_" fill="none" stroke="#6B6C6E" stroke-width="2" stroke-linejoin="round" d="M24.5,5.5"/>
		</g>
	</g>
</g>
</svg>
