<?xml version="1.0" encoding="UTF-8" standalone="no"?>
<svg width="64px" height="45px" viewBox="0 0 64 45" version="1.1" xmlns="http://www.w3.org/2000/svg" xmlns:xlink="http://www.w3.org/1999/xlink" xmlns:sketch="http://www.bohemiancoding.com/sketch/ns">
    <!-- Generator: Sketch 3.0.3 (7891) - http://www.bohemiancoding.com/sketch -->
    <title>Cloud-upload</title>
    <desc>Created with Sketch.</desc>
    <defs></defs>
    <g id="Page-1" stroke="none" stroke-width="1" fill="none" fill-rule="evenodd" sketch:type="MSPage">
        <g id="Cloud-upload" sketch:type="MSLayerGroup" transform="translate(1.000000, 2.000000)" stroke-width="2" stroke="#6B6C6E">
            <g id="Group" sketch:type="MSShapeGroup">
                <path d="M14.7,8.8 C17.6,3.5 23.3,-0.1 29.8,-0.1 C39.3,-0.1 47,7.5 47,17 C47,18.3 46.8,19.6 46.6,20.8" id="Shape"></path>
                <path d="M29,36 L13.6,36 C6.1,36 0,29.9 0,22.5 C0,15 6.1,9 13.6,9 C17.1,9 20.3,10.3 22.7,12.4" id="Shape"></path>
                <path d="M47.4,14.5 C48.5,14.1 49.7,14 50.9,14 C57,14 62,18.9 62,25 C62,31.1 57,36 50.9,36 L37,36" id="Shape"></path>
            </g>
            <g id="Group" transform="translate(24.000000, 23.000000)" sketch:type="MSShapeGroup">
                <path d="M4.3,13 L0.6,13 C0.3,13 0,12.8 0,12.4 L7.8,0.5 C8,0.2 8.1,-0.1 8.4,-0.1 L9.5,-0.1 C9.7,-0.1 9.9,0.1 10.1,0.5 L18.1,12.4 C18.1,12.7 17.8,13 17.5,13 L14.1,13" id="Shape"></path>
                <path d="M13,11.1 L13,19.9" id="Shape"></path>
                <path d="M5,11.1 L5,19.9" id="Shape"></path>
            </g>
        </g>
    </g>
</svg>