<?xml version="1.0" encoding="utf-8"?>
<!-- Generator: Adobe Illustrator 17.0.0, SVG Export Plug-In . SVG Version: 6.00 Build 0)  -->
<!DOCTYPE svg PUBLIC "-//W3C//DTD SVG 1.1//EN" "http://www.w3.org/Graphics/SVG/1.1/DTD/svg11.dtd">
<svg version="1.1" id="Layer_1" xmlns:sketch="http://www.bohemiancoding.com/sketch/ns"
	 xmlns="http://www.w3.org/2000/svg" xmlns:xlink="http://www.w3.org/1999/xlink" x="0px" y="0px" width="64px" height="48px"
	 viewBox="0 0 64 48" enable-background="new 0 0 64 48" xml:space="preserve">
<title>Cloud-arrow-right</title>
<desc>Created with Sketch.</desc>
<g id="Page-1" sketch:type="MSPage">
	<g id="Cloud-arrow-right" transform="translate(1.000000, 1.000000)" sketch:type="MSLayerGroup">
		<g id="Group_1_" sketch:type="MSShapeGroup">
			<path id="Shape_3_" fill="none" stroke="#6B6C6E" stroke-width="2" d="M14.7,8.9C17.6,3.6,23.3,0,29.8,0C39.3,0,47,7.6,47,17.1
				c0,1.3-0.2,2.6-0.4,3.8"/>
			<path id="Shape_4_" fill="none" stroke="#6B6C6E" stroke-width="2" d="M23,36h-9.4C6.1,36,0,29.9,0,22.5S6.1,9,13.6,9
				c3.5,0,6.7,1.3,9.1,3.4"/>
			<path id="Shape_5_" fill="none" stroke="#6B6C6E" stroke-width="2" d="M47.4,14.6c1.1-0.4,2.3-0.6,3.5-0.6C57,14,62,18.9,62,25
				s-5,11-11.1,11h-7.567"/>
		</g>
		<g id="Group" transform="translate(23.000000, 27.000000)" sketch:type="MSShapeGroup">
			<path id="Shape" fill="none" stroke="#6B6C6E" stroke-width="2" d="M6.9,4.3V0.6C6.9,0.3,7.1,0,7.5,0l11.9,7.8
				C19.7,8,20,8.1,20,8.4v1.1c0,0.2-0.2,0.4-0.6,0.6l-11.9,8c-0.3,0-0.6-0.3-0.6-0.6v-4"/>
			<path id="Shape_1_" fill="none" stroke="#6B6C6E" stroke-width="2" d="M8.8,13H0"/>
			<path id="Shape_2_" fill="none" stroke="#6B6C6E" stroke-width="2" d="M8.8,5H0"/>
		</g>
	</g>
</g>
</svg>
