<?xml version="1.0" encoding="UTF-8" standalone="no"?>
<svg width="64px" height="51px" viewBox="0 0 64 51" version="1.1" xmlns="http://www.w3.org/2000/svg" xmlns:xlink="http://www.w3.org/1999/xlink" xmlns:sketch="http://www.bohemiancoding.com/sketch/ns">
    <!-- Generator: Sketch 3.0.3 (7891) - http://www.bohemiancoding.com/sketch -->
    <title>Cloud-download</title>
    <desc>Created with Sketch.</desc>
    <defs></defs>
    <g id="Page-1" stroke="none" stroke-width="1" fill="none" fill-rule="evenodd" sketch:type="MSPage">
        <g id="Cloud-download" sketch:type="MSLayerGroup" transform="translate(1.000000, 1.000000)" stroke-width="2" stroke="#6B6C6E">
            <g id="Group" sketch:type="MSShapeGroup">
                <path d="M14.7,8.9 C17.6,3.6 23.3,0 29.8,0 C39.3,0 47,7.6 47,17.1 C47,18.4 46.8,19.7 46.6,20.9" id="Shape"></path>
                <path d="M29,36 L13.6,36 C6.1,36 0,29.9 0,22.5 C0,15 6.1,9 13.6,9 C17.1,9 20.3,10.3 22.7,12.4" id="Shape"></path>
                <path d="M47.4,14.5 C48.5,14.1 49.7,14 50.9,14 C57,14 62,18.9 62,25 C62,31.1 57,36 50.9,36 L37,36" id="Shape"></path>
            </g>
            <g id="Group" transform="translate(23.000000, 29.000000)" sketch:type="MSShapeGroup">
                <path d="M13.7,6.9 L17.4,6.9 C17.7,6.9 18,7.1 18,7.5 L10.2,19.4 C10,19.7 9.9,20 9.6,20 L8.5,20 C8.3,20 8.1,19.8 7.9,19.4 L-0.1,7.5 C-0.1,7.2 0.2,6.9 0.5,6.9 L4.2,6.9" id="Shape"></path>
                <path d="M5,8.9 L5,0" id="Shape"></path>
                <path d="M13,8.9 L13,0" id="Shape"></path>
            </g>
        </g>
    </g>
</svg>