<?xml version="1.0" encoding="utf-8"?>
<!-- Generator: Adobe Illustrator 17.0.0, SVG Export Plug-In . SVG Version: 6.00 Build 0)  -->
<!DOCTYPE svg PUBLIC "-//W3C//DTD SVG 1.1//EN" "http://www.w3.org/Graphics/SVG/1.1/DTD/svg11.dtd">
<svg version="1.1" id="Layer_1" xmlns:sketch="http://www.bohemiancoding.com/sketch/ns"
	 xmlns="http://www.w3.org/2000/svg" xmlns:xlink="http://www.w3.org/1999/xlink" x="0px" y="0px" width="43px" height="64px"
	 viewBox="0 0 43 64" enable-background="new 0 0 43 64" xml:space="preserve">
<title>Coffee-cup</title>
<desc>Created with Sketch.</desc>
<g id="Page-1" sketch:type="MSPage">
	<g id="Coffee-cup" transform="translate(1.000000, 1.000000)" sketch:type="MSLayerGroup">
		<path id="Shape_2_" sketch:type="MSShapeGroup" fill="none" stroke="#6B6C6E" stroke-width="2" d="M20.2,10l1-6l7-4"/>
		<path id="Shape_3_" sketch:type="MSShapeGroup" fill="none" stroke="#6B6C6E" stroke-width="2" d="M14.2,13v-1c0-1.1,0.7-2,1.5-2
			h9c0.8,0,1.5,0.9,1.5,2v1"/>
		<path id="Shape_4_" sketch:type="MSShapeGroup" fill="none" stroke="#6B6C6E" stroke-width="2" d="M38.2,21l-5,39c0,1.1-0.9,2-2,2
			h-22c-1.1,0-2-0.9-2-2l-5-39"/>
		<path id="Shape" sketch:type="MSShapeGroup" fill="none" stroke="#6B6C6E" stroke-width="2" d="M4,31h10.2h0.3
			c1.3-1.8,3.4-3,5.7-3c2.4,0,4.5,1.2,5.7,3h0.3h10.05"/>
		<path id="Shape_1_" sketch:type="MSShapeGroup" fill="none" stroke="#6B6C6E" stroke-width="2" d="M5.167,39H14.2h0.3
			c1.3,1.8,3.4,3,5.7,3s4.5-1.2,5.7-3h0.3h8.967"/>
		<path id="Shape_5_" sketch:type="MSShapeGroup" fill="none" stroke="#6B6C6E" stroke-width="2" d="M2.2,21c-1.1,0-2-0.9-2-2v-3
			c0-1.1,0.9-2,2-2h36c1.1,0,2,0.9,2,2v3c0,1.1-0.9,2-2,2H2.2L2.2,21z"/>
	</g>
</g>
</svg>
