<?xml version="1.0" encoding="UTF-8" standalone="no"?>
<svg width="44px" height="64px" viewBox="0 0 44 64" version="1.1" xmlns="http://www.w3.org/2000/svg" xmlns:xlink="http://www.w3.org/1999/xlink" xmlns:sketch="http://www.bohemiancoding.com/sketch/ns">
    <!-- Generator: Sketch 3.0.3 (7891) - http://www.bohemiancoding.com/sketch -->
    <title>Coffin</title>
    <desc>Created with Sketch.</desc>
    <defs></defs>
    <g id="Page-1" stroke="none" stroke-width="1" fill="none" fill-rule="evenodd" sketch:type="MSPage">
        <g id="Coffin" sketch:type="MSLayerGroup" transform="translate(2.000000, 1.000000)" stroke="#6B6C6E" stroke-width="2">
            <path d="M29,0 L11,0 C9.9,0 9,0.9 9,2 L0,19 L9,60 C9,61.1 9.9,62 11,62 L29,62 C30.1,62 32,61.1 32,60 L40,19 L31,2 C31,0.9 30.1,0 29,0 L29,0 Z" id="Shape" sketch:type="MSShapeGroup"></path>
            <path d="M29,0 L11,0 C9.9,0 9,0.9 9,2 L0,19 L9,60 C9,61.1 9.9,62 11,62 L29,62 C30.1,62 32,61.1 32,60 L40,19 L31,2 C31,0.9 30.1,0 29,0 L29,0 Z" id="Shape" sketch:type="MSShapeGroup"></path>
            <path d="M27,18 L22,18 L22,13 L18,13 L18,18 L13,18 L13,22 L18,22 L18,32 L22,32 L22,22 L27,22 L27,18 Z" id="Shape" sketch:type="MSShapeGroup"></path>
        </g>
    </g>
</svg>