<?xml version="1.0" encoding="utf-8"?>
<!-- Generator: Adobe Illustrator 17.0.0, SVG Export Plug-In . SVG Version: 6.00 Build 0)  -->
<!DOCTYPE svg PUBLIC "-//W3C//DTD SVG 1.1//EN" "http://www.w3.org/Graphics/SVG/1.1/DTD/svg11.dtd">
<svg version="1.1" id="Layer_1" xmlns:sketch="http://www.bohemiancoding.com/sketch/ns"
	 xmlns="http://www.w3.org/2000/svg" xmlns:xlink="http://www.w3.org/1999/xlink" x="0px" y="0px" width="65px" height="65px"
	 viewBox="0 0 65 65" enable-background="new 0 0 65 65" xml:space="preserve">
<title>Cog</title>
<desc>Created with Sketch.</desc>
<g id="Page-1" sketch:type="MSPage">
	<g id="Cog" transform="translate(2.000000, 1.000000)" sketch:type="MSLayerGroup">
		<path id="Shape" sketch:type="MSShapeGroup" fill="none" stroke="#6B6C6E" stroke-width="2" d="M60,25H49.75h3.45
			c-0.5-1.9-1.3-3.8-2.3-5.5l-2.169,2.169L55.7,14.7c0.8-0.8,0.8-2,0-2.8L50,6.2c-0.8-0.8-2-0.8-2.8,0l-7.062,7.063L42.4,11
			c-1.7-1-3.5-1.7-5.5-2.3V12V2c0-1.1-0.9-2-2-2h-8c-1.1,0-2,0.9-2,2v10V8.8c-1.9,0.5-3.8,1.3-5.5,2.3l2.344,2.344L14.6,6.3
			c-0.8-0.8-2-0.8-2.8,0L6.1,12c-0.8,0.8-0.8,2,0,2.8l7.144,7.144L10.9,19.6c-1,1.7-1.7,3.5-2.3,5.5H12H1.8c-1.1,0-2,0.9-2,2v8
			c0,1.1,0.9,2,2,2H12H8.6c0.5,1.9,1.3,3.8,2.3,5.5l2.319-2.319L6.1,47.4c-0.8,0.8-0.8,2,0,2.8l5.7,5.7c0.8,0.8,2,0.8,2.8,0
			l7.212-7.213L19.4,51.1c1.7,1,3.5,1.7,5.5,2.3v-3.525V60.2c0,1.1,0.9,2,2,2h8c1.1,0,2-0.9,2-2V49.875V53.4
			c1.9-0.5,3.8-1.3,5.5-2.3l-2.562-2.562L47.2,55.9c0.8,0.8,2,0.8,2.8,0l5.7-5.7c0.8-0.8,0.8-2,0-2.8l-7.081-7.081L50.9,42.6
			c1-1.7,1.7-3.5,2.3-5.5h-3.45H60c1.1,0,2-0.9,2-2v-8C62,25.9,61.1,25,60,25L60,25z"/>
		<circle id="Oval" sketch:type="MSShapeGroup" fill="none" stroke="#6B6C6E" stroke-width="2" cx="31" cy="31" r="10">
		</circle>
	</g>
</g>
</svg>
