<?xml version="1.0" encoding="UTF-8" standalone="no"?>
<svg width="64px" height="48px" viewBox="0 0 64 48" version="1.1" xmlns="http://www.w3.org/2000/svg" xmlns:xlink="http://www.w3.org/1999/xlink" xmlns:sketch="http://www.bohemiancoding.com/sketch/ns">
    <!-- Generator: Sketch 3.0.3 (7891) - http://www.bohemiancoding.com/sketch -->
    <title>Cone</title>
    <desc>Created with Sketch.</desc>
    <defs></defs>
    <g id="Page-1" stroke="none" stroke-width="1" fill="none" fill-rule="evenodd" sketch:type="MSPage">
        <g id="Cone" sketch:type="MSLayerGroup" transform="translate(1.000000, 1.000000)" stroke="#6B6C6E" stroke-width="2">
            <path d="M44.3,40 L60.5,40 C61.9,40 62,41.5 62,43.1 L62,43.1 C62,44.7 61.9,46 60.5,46 L1.5,46 C0.1,46 0,44.7 0,43.1 L0,43.1 C0,41.5 0.1,40 1.5,40 L18.8,40" id="Shape" sketch:type="MSShapeGroup"></path>
            <path d="M14.5,39.7 L23.6,2 C23.6,0.9 24.3,0 25.2,0 L38,0 C38.9,0 39.6,0.9 39.6,2 L48.7,39.7" id="Shape" sketch:type="MSShapeGroup"></path>
            <path d="M22.7,8 L40.4,8" id="Shape" sketch:type="MSShapeGroup"></path>
            <path d="M19.3,21 L43.7,21" id="Shape" sketch:type="MSShapeGroup"></path>
            <path d="M17.7,28 L45.3,28" id="Shape" sketch:type="MSShapeGroup"></path>
        </g>
    </g>
</svg>