<?xml version="1.0" encoding="UTF-8" standalone="no"?>
<svg width="52px" height="64px" viewBox="0 0 52 64" version="1.1" xmlns="http://www.w3.org/2000/svg" xmlns:xlink="http://www.w3.org/1999/xlink" xmlns:sketch="http://www.bohemiancoding.com/sketch/ns">
    <!-- Generator: Sketch 3.0.3 (7891) - http://www.bohemiancoding.com/sketch -->
    <title>Constroller</title>
    <desc>Created with Sketch.</desc>
    <defs></defs>
    <g id="Page-1" stroke="none" stroke-width="1" fill="none" fill-rule="evenodd" sketch:type="MSPage">
        <g id="Constroller" sketch:type="MSLayerGroup" transform="translate(1.000000, 1.000000)" stroke="#6B6C6E" stroke-width="2">
            <path d="M50,61 C50,61.6 49.6,62 49,62 L1,62 C0.4,62 0,61.6 0,61 L0,1 C0,0.4 0.4,0 1,0 L49,0 C49.6,0 50,0.4 50,1 L50,61 L50,61 Z" id="Shape" sketch:type="MSShapeGroup"></path>
            <path d="M32,31 L26,31 L26,24 L37,24 C37.6,24 38,23.6 38,23 L38,21 C38,20.4 37.6,20 37,20 L26,20 L26,9 C26,8.4 25.6,8 25,8 L17,8" id="Shape" sketch:type="MSShapeGroup"></path>
            <path d="M17,12 L22,12 L22,39 L11,39 C10.4,39 10,39.4 10,40 L10,42 C10,42.6 10.4,43 11,43 L22,43 L22,52 C22,52.6 22.4,53 23,53 L36,53 C36.6,53 37,52.6 37,52 L37,50 C37,49.4 36.6,49 36,49 L26,49 L26,35 L32,35" id="Shape" sketch:type="MSShapeGroup"></path>
            <circle id="Oval" sketch:type="MSShapeGroup" cx="13" cy="10" r="4"></circle>
            <circle id="Oval" sketch:type="MSShapeGroup" cx="36" cy="33" r="4"></circle>
        </g>
    </g>
</svg>