<?xml version="1.0" encoding="utf-8"?>
<!-- Generator: Adobe Illustrator 17.0.0, SVG Export Plug-In . SVG Version: 6.00 Build 0)  -->
<!DOCTYPE svg PUBLIC "-//W3C//DTD SVG 1.1//EN" "http://www.w3.org/Graphics/SVG/1.1/DTD/svg11.dtd">
<svg version="1.1" id="Layer_1" xmlns:sketch="http://www.bohemiancoding.com/sketch/ns"
	 xmlns="http://www.w3.org/2000/svg" xmlns:xlink="http://www.w3.org/1999/xlink" x="0px" y="0px" width="64px" height="62px"
	 viewBox="0 0 64 62" enable-background="new 0 0 64 62" xml:space="preserve">
<title>Cooking</title>
<desc>Created with Sketch.</desc>
<g id="Page-1" sketch:type="MSPage">
	<g id="Cooking" transform="translate(1.000000, 0.000000)" sketch:type="MSLayerGroup">
		<path id="Shape_6_" sketch:type="MSShapeGroup" fill="none" stroke="#6B6C6E" stroke-width="2" d="M13.2,51.1h35.7"/>
		<path id="Shape_1_" sketch:type="MSShapeGroup" fill="none" stroke="#6B6C6E" stroke-width="2" d="M50,62c0-15.206-5-21.9-5-21.9"
			/>
		<path id="Shape_2_" sketch:type="MSShapeGroup" fill="none" stroke="#6B6C6E" stroke-width="2" d="M17,40.1c0,0-5,6.694-5,21.9"/>
		<path id="Shape" sketch:type="MSShapeGroup" fill="none" stroke="#6B6C6E" stroke-width="2" d="M59,20.2h-0.2c0.1-1,0.2-2,0.2-3.2
			H3c0,1.2,0.1,2.2,0.2,3.2H3c-1.7,0-3,1.3-3,3c0,1.6,1.3,3,3,3c0.5,0,1-0.1,1.4-0.3C8,37.1,18.6,43.2,31,43.2s23-6.1,26.6-17.3
			c0.4,0.2,0.9,0.3,1.4,0.3c1.7,0,3-1.3,3-3C62,21.6,60.7,20.2,59,20.2L59,20.2z"/>
		
			<path id="Shape_3_" sketch:type="MSShapeGroup" fill="none" stroke="#6B6C6E" stroke-width="2" stroke-linecap="round" stroke-miterlimit="10" d="
			M24.503,13.53c2.03-1.147,3.177-2.56,2.648-4.943c-0.441-1.942-2.56-4.678-0.706-6.443"/>
		
			<path id="Shape_4_" sketch:type="MSShapeGroup" fill="none" stroke="#6B6C6E" stroke-width="2" stroke-linecap="round" stroke-miterlimit="10" d="
			M29.503,13.53c2.03-1.147,3.177-2.56,2.648-4.943c-0.441-1.942-2.56-4.678-0.706-6.443"/>
		
			<path id="Shape_5_" sketch:type="MSShapeGroup" fill="none" stroke="#6B6C6E" stroke-width="2" stroke-linecap="round" stroke-miterlimit="10" d="
			M34.503,13.53c2.03-1.147,3.177-2.56,2.648-4.943c-0.441-1.942-2.56-4.678-0.706-6.443"/>
	</g>
</g>
</svg>
