<?xml version="1.0" encoding="utf-8"?>
<!-- Generator: Adobe Illustrator 17.0.0, SVG Export Plug-In . SVG Version: 6.00 Build 0)  -->
<!DOCTYPE svg PUBLIC "-//W3C//DTD SVG 1.1//EN" "http://www.w3.org/Graphics/SVG/1.1/DTD/svg11.dtd">
<svg version="1.1" id="Layer_1" xmlns:sketch="http://www.bohemiancoding.com/sketch/ns"
	 xmlns="http://www.w3.org/2000/svg" xmlns:xlink="http://www.w3.org/1999/xlink" x="0px" y="0px" width="64px" height="64px"
	 viewBox="0 0 64 64" enable-background="new 0 0 64 64" xml:space="preserve">
<title>Crop</title>
<desc>Created with Sketch.</desc>
<g id="Page-1" sketch:type="MSPage">
	<g id="Crop" transform="translate(1.000000, 1.000000)" sketch:type="MSLayerGroup">
		<path id="Shape" sketch:type="MSShapeGroup" fill="none" stroke="#6B6C6E" stroke-width="2" d="M60,45h-9V15v-2c0-1.1-0.9-2-2-2
			h-2H17V2c0-1.1-0.9-2-2-2h-2c-1.1,0-2,0.9-2,2v9H2c-1.1,0-2,0.9-2,2v2c0,1.1,0.9,2,2,2h9V9.125V47v2c0,1.1,0.9,2,2,2h2h36h-6v9
			c0,1.1,0.9,2,2,2h2c1.1,0,2-0.9,2-2v-9h9c1.1,0,2-0.9,2-2v-2C62,45.9,61.1,45,60,45L60,45z M17,45V9.625V17h28v28h6.5H17L17,45z"
			/>
		<path id="Shape_1_" sketch:type="MSShapeGroup" fill="none" stroke="#6B6C6E" stroke-width="2" d="M18,44L60,2"/>
	</g>
</g>
</svg>
