<?xml version="1.0" encoding="UTF-8" standalone="no"?>
<svg width="53px" height="64px" viewBox="0 0 53 64" version="1.1" xmlns="http://www.w3.org/2000/svg" xmlns:xlink="http://www.w3.org/1999/xlink" xmlns:sketch="http://www.bohemiancoding.com/sketch/ns">
    <!-- Generator: Sketch 3.0.3 (7891) - http://www.bohemiancoding.com/sketch -->
    <title>Database-previous</title>
    <desc>Created with Sketch.</desc>
    <defs></defs>
    <g id="Page-1" stroke="none" stroke-width="1" fill="none" fill-rule="evenodd" sketch:type="MSPage">
        <g id="Database-previous" sketch:type="MSLayerGroup" transform="translate(1.000000, 1.000000)" stroke="#6B6C6E" stroke-width="2">
            <path d="M44,40 L44,2 C44,0.9 43.1,0 42,0 L2,0 C0.9,0 0,0.9 0,2 L0,60 C0,61.1 0.9,62 2,62 L42,62 C43.1,62 44,61.1 44,60 L44,57" id="Shape" sketch:type="MSShapeGroup"></path>
            <path d="M0,20 L44,20" id="Shape" sketch:type="MSShapeGroup"></path>
            <path d="M0,42 L40,42" id="Shape" sketch:type="MSShapeGroup"></path>
            <g id="Group" transform="translate(31.000000, 40.000000)" sketch:type="MSShapeGroup">
                <path d="M13,13.7 L13,17.4 C13,17.7 12.7,18 12.4,18 L0.5,10.2 C0.2,10 -0.1,9.9 -0.1,9.6 L-0.1,8.5 C-0.1,8.3 0.1,8.1 0.5,7.9 L12.4,1.13686838e-13 C12.7,1.13686838e-13 13,0.3 13,0.6 L13,4.7" id="Shape"></path>
                <path d="M11.1,5 L21,5" id="Shape"></path>
                <path d="M11.1,13 L21,13" id="Shape"></path>
            </g>
        </g>
    </g>
</svg>