<?xml version="1.0" encoding="UTF-8" standalone="no"?>
<svg width="59px" height="64px" viewBox="0 0 59 64" version="1.1" xmlns="http://www.w3.org/2000/svg" xmlns:xlink="http://www.w3.org/1999/xlink" xmlns:sketch="http://www.bohemiancoding.com/sketch/ns">
    <!-- Generator: Sketch 3.0.3 (7891) - http://www.bohemiancoding.com/sketch -->
    <title>Database-next</title>
    <desc>Created with Sketch.</desc>
    <defs></defs>
    <g id="Page-1" stroke="none" stroke-width="1" fill="none" fill-rule="evenodd" sketch:type="MSPage">
        <g id="Database-next" sketch:type="MSLayerGroup" transform="translate(1.000000, 1.000000)" stroke="#6B6C6E" stroke-width="2">
            <path d="M45,42 L45,2 C45,0.9 44.1,0 43,0 L2,0 C0.9,0 0,0.9 0,2 L0,60 C0,61.1 0.9,62 2,62 L43.1,62 C44.2,62 45.1,61.1 45.1,60 L45.1,58" id="Shape" sketch:type="MSShapeGroup"></path>
            <path d="M0,20 L45,20" id="Shape" sketch:type="MSShapeGroup"></path>
            <path d="M0,42 L43,42" id="Shape" sketch:type="MSShapeGroup"></path>
            <g id="Group" transform="translate(36.000000, 40.000000)" sketch:type="MSShapeGroup">
                <path d="M7.9,13.7 L7.9,17.4 C7.9,17.7 8.1,18 8.5,18 L20.4,10.2 C20.7,10 21,9.9 21,9.6 L21,8.5 C21,8.3 20.8,8.1 20.4,7.9 L8.5,1.13686838e-13 C8.2,1.13686838e-13 7.9,0.3 7.9,0.6 L7.9,4" id="Shape"></path>
                <path d="M9.8,5 L0,5" id="Shape"></path>
                <path d="M9.8,13 L0,13" id="Shape"></path>
            </g>
        </g>
    </g>
</svg>