<?xml version="1.0" encoding="UTF-8" standalone="no"?>
<svg width="56px" height="64px" viewBox="0 0 56 64" version="1.1" xmlns="http://www.w3.org/2000/svg" xmlns:xlink="http://www.w3.org/1999/xlink" xmlns:sketch="http://www.bohemiancoding.com/sketch/ns">
    <!-- Generator: Sketch 3.0.3 (7891) - http://www.bohemiancoding.com/sketch -->
    <title>Database-upload</title>
    <desc>Created with Sketch.</desc>
    <defs></defs>
    <g id="Page-1" stroke="none" stroke-width="1" fill="none" fill-rule="evenodd" sketch:type="MSPage">
        <g id="Database-upload" sketch:type="MSLayerGroup" transform="translate(1.000000, 1.000000)" stroke="#6B6C6E" stroke-width="2">
            <path d="M45.1,60 C45.1,61.1 44.2,62 43.1,62 L2,62 C0.9,62 0,61.1 0,60 L0,2 C0,0.9 0.9,0 2,0 L43.1,0 C44.2,0 45.1,0.9 45.1,2 L45.1,40" id="Shape" sketch:type="MSShapeGroup"></path>
            <path d="M0.1,20 L45.1,20" id="Shape" sketch:type="MSShapeGroup"></path>
            <path d="M0.1,42 L42.1,42" id="Shape" sketch:type="MSShapeGroup"></path>
            <path d="M49.7,52.9 L53.4,52.9 C53.7,52.9 54,52.7 54,52.4 L46.2,40.5 C46,40.2 45.9,40 45.6,40 L44.5,40 C44.3,40 44.1,40.2 43.9,40.5 L36,52.4 C36,52.7 36.3,52.9 36.6,52.9 L40,52.9" id="Shape" sketch:type="MSShapeGroup"></path>
            <path d="M41,51 L41,60" id="Shape" sketch:type="MSShapeGroup"></path>
            <path d="M49,51 L49,60" id="Shape" sketch:type="MSShapeGroup"></path>
            <path d="M45.1,60 C45.1,61.1 44.2,62 43.1,62 L2,62 C0.9,62 0,61.1 0,60 L0,2 C0,0.9 0.9,0 2,0 L43.1,0 C44.2,0 45.1,0.9 45.1,2 L45.1,40" id="Shape" sketch:type="MSShapeGroup"></path>
            <path d="M0.1,20 L45.1,20" id="Shape" sketch:type="MSShapeGroup"></path>
            <path d="M0.1,42 L42.1,42" id="Shape" sketch:type="MSShapeGroup"></path>
            <g id="Group" transform="translate(36.000000, 40.000000)" sketch:type="MSShapeGroup">
                <path d="M13.7,12.9 L17.4,12.9 C17.7,12.9 18,12.7 18,12.4 L10.2,0.5 C10,0.2 9.9,0 9.6,0 L8.5,0 C8.3,0 8.1,0.2 7.9,0.5 L0,12.4 C0,12.7 0.3,12.9 0.6,12.9 L4,12.9" id="Shape"></path>
                <path d="M5,11 L5,20" id="Shape"></path>
                <path d="M13,11 L13,20" id="Shape"></path>
            </g>
        </g>
    </g>
</svg>