<?xml version="1.0" encoding="UTF-8" standalone="no"?>
<svg width="57px" height="64px" viewBox="0 0 57 64" version="1.1" xmlns="http://www.w3.org/2000/svg" xmlns:xlink="http://www.w3.org/1999/xlink" xmlns:sketch="http://www.bohemiancoding.com/sketch/ns">
    <!-- Generator: Sketch 3.0.3 (7891) - http://www.bohemiancoding.com/sketch -->
    <title>Database-error</title>
    <desc>Created with Sketch.</desc>
    <defs></defs>
    <g id="Page-1" stroke="none" stroke-width="1" fill="none" fill-rule="evenodd" sketch:type="MSPage">
        <g id="Database-error" sketch:type="MSLayerGroup" transform="translate(1.000000, 1.000000)" stroke="#6B6C6E" stroke-width="2">
            <path d="M45,46 L45,2 C45,0.9 44.1,0 43,0 L2,0 C0.9,0 0,0.9 0,2 L0,60 C0,61.1 0.9,62 2,62 L43.1,62 C44.2,62 45.1,61.1 45.1,60 L45.1,56.1" id="Shape" sketch:type="MSShapeGroup"></path>
            <path d="M0,20 L45,20" id="Shape" sketch:type="MSShapeGroup"></path>
            <path d="M0,42 L41,42" id="Shape" sketch:type="MSShapeGroup"></path>
            <path d="M41.4,59.4 L45.6,55.2 L49.8,59.4 L54,55.2 L49.8,51 L54,46.8 L49.8,42.6 L45.6,46.8 L41.4,42.5 L37.2,46.7 L41.4,50.9 L37.2,55.2 L41.4,59.4 Z" id="Shape" sketch:type="MSShapeGroup"></path>
        </g>
    </g>
</svg>