<?xml version="1.0" encoding="UTF-8" standalone="no"?>
<svg width="56px" height="65px" viewBox="0 0 56 65" version="1.1" xmlns="http://www.w3.org/2000/svg" xmlns:xlink="http://www.w3.org/1999/xlink" xmlns:sketch="http://www.bohemiancoding.com/sketch/ns">
    <!-- Generator: Sketch 3.0.3 (7891) - http://www.bohemiancoding.com/sketch -->
    <title>Database-add</title>
    <desc>Created with Sketch.</desc>
    <defs></defs>
    <g id="Page-1" stroke="none" stroke-width="1" fill="none" fill-rule="evenodd" sketch:type="MSPage">
        <g id="Database-add" sketch:type="MSLayerGroup" transform="translate(1.000000, 1.000000)" stroke="#6B6C6E" stroke-width="2">
            <path d="M45.1,41 L45.1,2.1 C45.1,1 44.2,0.1 43.1,0.1 L2,0.1 C0.9,0.1 0,1 0,2.1 L0,60.1 C0,61.2 0.9,62.1 2,62.1 L43.1,62.1 C44.2,62.1 45.1,61.2 45.1,60.1 L45.1,60" id="Shape" sketch:type="MSShapeGroup"></path>
            <path d="M0,20.1 L45.2,20.1" id="Shape" sketch:type="MSShapeGroup"></path>
            <path d="M0,42.1 L42.2,42.1" id="Shape" sketch:type="MSShapeGroup"></path>
            <path d="M48,59 L48,53 L54,53 L54,47 L48.1,47 L48.1,41 L42.1,41 L42.1,47 L36,47 L36,53 L42,53 L42,59 L48,59 Z" id="Shape" sketch:type="MSShapeGroup"></path>
        </g>
    </g>
</svg>