<?xml version="1.0" encoding="UTF-8" standalone="no"?>
<svg width="55px" height="64px" viewBox="0 0 55 64" version="1.1" xmlns="http://www.w3.org/2000/svg" xmlns:xlink="http://www.w3.org/1999/xlink" xmlns:sketch="http://www.bohemiancoding.com/sketch/ns">
    <!-- Generator: Sketch 3.0.3 (7891) - http://www.bohemiancoding.com/sketch -->
    <title>Database-download</title>
    <desc>Created with Sketch.</desc>
    <defs></defs>
    <g id="Page-1" stroke="none" stroke-width="1" fill="none" fill-rule="evenodd" sketch:type="MSPage">
        <g id="Database-download" sketch:type="MSLayerGroup" transform="translate(1.000000, 1.000000)" stroke="#6B6C6E" stroke-width="2">
            <path d="M44,60 C44,61.1 43.1,62 42,62 L2,62 C0.9,62 0,61.1 0,60 L0,2 C0,0.9 0.9,0 2,0 L42,0 C43.1,0 44,0.9 44,2 L44,38" id="Shape" sketch:type="MSShapeGroup"></path>
            <path d="M0,20 L44,20" id="Shape" sketch:type="MSShapeGroup"></path>
            <path d="M0,42 L39,42" id="Shape" sketch:type="MSShapeGroup"></path>
            <g id="Group" transform="translate(35.000000, 38.000000)" sketch:type="MSShapeGroup">
                <path d="M13.7,7.9 L17.4,7.9 C17.7,7.9 18,8.1 18,8.5 L10.2,20.4 C10,20.7 9.9,21 9.6,21 L8.5,21 C8.3,21 8.1,20.8 7.9,20.4 L0,8.5 C0,8.2 0.3,7.9 0.6,7.9 L4,7.9" id="Shape"></path>
                <path d="M5,9.8 L5,0" id="Shape"></path>
                <path d="M13,9.8 L13,0" id="Shape"></path>
            </g>
            <path d="M44,60 C44,61.1 43.1,62 42,62 L2,62 C0.9,62 0,61.1 0,60 L0,2 C0,0.9 0.9,0 2,0 L42,0 C43.1,0 44,0.9 44,2 L44,38" id="Shape" sketch:type="MSShapeGroup"></path>
            <path d="M0,20 L44,20" id="Shape" sketch:type="MSShapeGroup"></path>
            <path d="M0,42 L39,42" id="Shape" sketch:type="MSShapeGroup"></path>
            <g id="Group" transform="translate(35.000000, 38.000000)" sketch:type="MSShapeGroup">
                <path d="M13.7,7.9 L17.4,7.9 C17.7,7.9 18,8.1 18,8.5 L10.2,20.4 C10,20.7 9.9,21 9.6,21 L8.5,21 C8.3,21 8.1,20.8 7.9,20.4 L0,8.5 C0,8.2 0.3,7.9 0.6,7.9 L4,7.9" id="Shape"></path>
                <path d="M5,9.8 L5,0" id="Shape"></path>
                <path d="M13,9.8 L13,0" id="Shape"></path>
            </g>
        </g>
    </g>
</svg>