<?xml version="1.0" encoding="UTF-8" standalone="no"?>
<svg width="64px" height="64px" viewBox="0 0 64 64" version="1.1" xmlns="http://www.w3.org/2000/svg" xmlns:xlink="http://www.w3.org/1999/xlink" xmlns:sketch="http://www.bohemiancoding.com/sketch/ns">
    <!-- Generator: Sketch 3.0.3 (7891) - http://www.bohemiancoding.com/sketch -->
    <title>Disc-download</title>
    <desc>Created with Sketch.</desc>
    <defs></defs>
    <g id="Page-1" stroke="none" stroke-width="1" fill="none" fill-rule="evenodd" sketch:type="MSPage">
        <g id="Disc-download" sketch:type="MSLayerGroup" transform="translate(1.000000, 1.000000)" stroke-width="2" stroke="#6B6C6E">
            <g id="Group" sketch:type="MSShapeGroup">
                <path d="M49.1,56.2 C44,59.9 37.7,62 31,62 C13.9,62 0,48.1 0,31 C0,13.9 13.9,0 31,0 C48.1,0 62,13.9 62,31 C62,36.9 60.4,42.4 57.5,47.1" id="Shape"></path>
                <circle id="Oval" cx="31" cy="31" r="9"></circle>
                <circle id="Oval" cx="31" cy="31" r="3"></circle>
                <path d="M31,55 C17.7,55 7,44.3 7,31" id="Shape"></path>
                <path d="M31,7 C44.3,7 55,17.7 55,31" id="Shape"></path>
                <path d="M31,49 C21.1,49 13,40.9 13,31" id="Shape"></path>
                <path d="M31,13 C40.9,13 49,21.1 49,31" id="Shape"></path>
            </g>
            <g id="Group" transform="translate(44.000000, 40.000000)" sketch:type="MSShapeGroup">
                <path d="M4.3,8 L0.6,8 C0.3,8 0,8.2 0,8.6 L7.8,20.5 C8,20.8 8.1,21.1 8.4,21.1 L9.5,21.1 C9.7,21.1 9.9,20.9 10.1,20.5 L18,8.6 C18,8.3 17.7,8 17.4,8 L14,8" id="Shape"></path>
                <path d="M13,9.9 L13,0" id="Shape"></path>
                <path d="M5,9.9 L5,0" id="Shape"></path>
            </g>
        </g>
    </g>
</svg>