<?xml version="1.0" encoding="UTF-8" standalone="no"?>
<svg width="64px" height="64px" viewBox="0 0 64 64" version="1.1" xmlns="http://www.w3.org/2000/svg" xmlns:xlink="http://www.w3.org/1999/xlink" xmlns:sketch="http://www.bohemiancoding.com/sketch/ns">
    <!-- Generator: Sketch 3.0.3 (7891) - http://www.bohemiancoding.com/sketch -->
    <title>Disc-play</title>
    <desc>Created with Sketch.</desc>
    <defs></defs>
    <g id="Page-1" stroke="none" stroke-width="1" fill="none" fill-rule="evenodd" sketch:type="MSPage">
        <g id="Disc-play" sketch:type="MSLayerGroup" transform="translate(1.000000, 1.000000)" stroke-width="2" stroke="#6B6C6E">
            <g id="Group" sketch:type="MSShapeGroup">
                <path d="M48,56.9 C43.1,60.1 37.3,62 31,62 C13.9,62 0,48.1 0,31 C0,13.9 13.9,0 31,0 C48.1,0 62,13.9 62,31 C62,37.7 59.9,43.9 56.2,49" id="Shape"></path>
                <circle id="Oval" cx="31" cy="31" r="9"></circle>
                <circle id="Oval" cx="31" cy="31" r="3"></circle>
                <path d="M31,55 C17.7,55 7,44.3 7,31" id="Shape"></path>
                <path d="M31,7 C44.3,7 55,17.7 55,31" id="Shape"></path>
                <path d="M31,49 C21.1,49 13,40.9 13,31" id="Shape"></path>
                <path d="M31,13 C40.9,13 49,21.1 49,31" id="Shape"></path>
            </g>
            <path d="M47.9,44.6 C47.9,44.3 48.1,44 48.5,44 L60.4,51.8 C60.7,52 61,52.1 61,52.4 L61,53.5 C61,53.7 60.8,53.9 60.4,54.1 L48.5,62 C48.2,62 47.9,61.7 47.9,61.4 L47.9,44.6 L47.9,44.6 Z" id="Shape" sketch:type="MSShapeGroup"></path>
        </g>
    </g>
</svg>