<?xml version="1.0" encoding="utf-8"?>
<!-- Generator: Adobe Illustrator 17.0.0, SVG Export Plug-In . SVG Version: 6.00 Build 0)  -->
<!DOCTYPE svg PUBLIC "-//W3C//DTD SVG 1.1//EN" "http://www.w3.org/Graphics/SVG/1.1/DTD/svg11.dtd">
<svg version="1.1" id="Layer_1" xmlns:sketch="http://www.bohemiancoding.com/sketch/ns"
	 xmlns="http://www.w3.org/2000/svg" xmlns:xlink="http://www.w3.org/1999/xlink" x="0px" y="0px" width="64px" height="64px"
	 viewBox="0 0 64 64" enable-background="new 0 0 64 64" xml:space="preserve">
<title>Disc-checked</title>
<desc>Created with Sketch.</desc>
<g id="Page-1" sketch:type="MSPage">
	<g id="Disc-checked" transform="translate(1.000000, 1.000000)" sketch:type="MSLayerGroup">
		<g id="Group" sketch:type="MSShapeGroup">
			<path id="Shape_1_" fill="none" stroke="#6B6C6E" stroke-width="2" d="M43.4,59.2c-3.5,1.3-8.5,2.7-12.4,2.7
				C13.9,61.9,0,48.1,0,31S13.9,0.1,31,0.1S62,13.9,62,31c0,5.6-1.8,11.4-4.4,15.9"/>
			<circle id="Oval" fill="none" stroke="#6B6C6E" stroke-width="2" cx="31" cy="31" r="9"/>
			<circle id="Oval_1_" fill="none" stroke="#6B6C6E" stroke-width="2" cx="31" cy="31" r="3"/>
			<path id="Shape_2_" fill="none" stroke="#6B6C6E" stroke-width="2" d="M31,54.8c-13.3,0-24-10.7-24-23.9"/>
			<path id="Shape_3_" fill="none" stroke="#6B6C6E" stroke-width="2" d="M31,7c13.3,0,24,10.7,24,23.9"/>
			<path id="Shape_4_" fill="none" stroke="#6B6C6E" stroke-width="2" d="M31,48.8c-9.9,0-18-8-18-17.9"/>
			<path id="Shape_5_" fill="none" stroke="#6B6C6E" stroke-width="2" d="M31,13c9.9,0,18,8,18,17.9"/>
		</g>
		<path id="Shape" sketch:type="MSShapeGroup" fill="none" stroke="#6B6C6E" stroke-width="2" d="M59.1,49l-2.8-2.8
			c-0.4-0.4-1-0.4-1.4,0L47.1,54l-3.5-3.5c-0.4-0.4-1-0.4-1.4,0l-2.8,2.8c-0.4,0.4-0.4,1,0,1.4l7.1,7c0.4,0.4,1,0.4,1.4,0l11.3-11.3
			C59.5,50,59.5,49.4,59.1,49L59.1,49z"/>
	</g>
</g>
</svg>
