<?xml version="1.0" encoding="UTF-8" standalone="no"?>
<svg width="64px" height="64px" viewBox="0 0 64 64" version="1.1" xmlns="http://www.w3.org/2000/svg" xmlns:xlink="http://www.w3.org/1999/xlink" xmlns:sketch="http://www.bohemiancoding.com/sketch/ns">
    <!-- Generator: Sketch 3.0.3 (7891) - http://www.bohemiancoding.com/sketch -->
    <title>Disc-heart</title>
    <desc>Created with Sketch.</desc>
    <defs></defs>
    <g id="Page-1" stroke="none" stroke-width="1" fill="none" fill-rule="evenodd" sketch:type="MSPage">
        <g id="Disc-heart" sketch:type="MSLayerGroup" transform="translate(1.000000, 1.000000)" stroke-width="2" stroke="#6B6C6E">
            <g id="Group" sketch:type="MSShapeGroup">
                <path d="M47.8,57.1 C43,60.2 37.2,62 31,62 C13.9,62 0,48.1 0,31 C0,13.9 13.9,0 31,0 C48.1,0 62,13.9 62,31 C62,36.9 60.4,42.4 57.5,47.1" id="Shape"></path>
                <circle id="Oval" cx="31" cy="31" r="9"></circle>
                <circle id="Oval" cx="31" cy="31" r="3"></circle>
                <path d="M31,55 C17.8,55 7,44.3 7,31" id="Shape"></path>
                <path d="M31,7 C44.2,7 55,17.7 55,31" id="Shape"></path>
                <path d="M31,49 C21.1,49 13,40.9 13,31" id="Shape"></path>
                <path d="M31,13 C40.9,13 49,21.1 49,31" id="Shape"></path>
            </g>
            <path d="M53,49.1 C51.6,46 44,45.8 44,51.3 C44,55.6 51.4,61.1 53,61.1 C54.6,61.1 62,55.6 62,51.3 C62,45.2 52.2,45.6 52.2,52.1" id="Shape" sketch:type="MSShapeGroup"></path>
        </g>
    </g>
</svg>