<?xml version="1.0" encoding="UTF-8" standalone="no"?>
<svg width="64px" height="64px" viewBox="0 0 64 64" version="1.1" xmlns="http://www.w3.org/2000/svg" xmlns:xlink="http://www.w3.org/1999/xlink" xmlns:sketch="http://www.bohemiancoding.com/sketch/ns">
    <!-- Generator: Sketch 3.0.3 (7891) - http://www.bohemiancoding.com/sketch -->
    <title>Disc-upload</title>
    <desc>Created with Sketch.</desc>
    <defs></defs>
    <g id="Page-1" stroke="none" stroke-width="1" fill="none" fill-rule="evenodd" sketch:type="MSPage">
        <g id="Disc-upload" sketch:type="MSLayerGroup" transform="translate(1.000000, 1.000000)" stroke-width="2" stroke="#6B6C6E">
            <g id="Group" sketch:type="MSShapeGroup">
                <path d="M48.7,56.2 C43.7,59.8 37.5,62 30.8,62 C13.8,62 2.27373675e-13,48.1 2.27373675e-13,31 C2.27373675e-13,13.9 13.8,0 30.8,0 C47.8,0 61.6,13.9 61.6,31 C61.6,36.9 60,42.3 57.2,47" id="Shape"></path>
                <circle id="Oval" cx="31" cy="31" r="9"></circle>
                <circle id="Oval" cx="31" cy="31" r="3"></circle>
                <path d="M30.8,55 C17.6,55 6.9,44.3 6.9,31" id="Shape"></path>
                <path d="M31,6 C44.3,6 55,16.7 55,30" id="Shape"></path>
                <path d="M30.8,49 C20.9,49 12.9,40.9 12.9,31" id="Shape"></path>
                <path d="M31,12 C40.9,12 49,20.1 49,30" id="Shape"></path>
            </g>
            <g id="Group" transform="translate(44.000000, 42.000000)" sketch:type="MSShapeGroup">
                <path d="M13,19.9 L13,11.2" id="Shape"></path>
                <path d="M6,11.2 L6,20" id="Shape"></path>
                <path d="M13.7,13.1 L17.4,13.1 C17.7,13.1 18,12.9 18,12.5 L10.2,0.6 C10,0.3 9.9,0 9.6,0 L8.5,0 C8.3,0 8.1,0.2 7.9,0.6 L3.41060513e-13,12.5 C3.41060513e-13,12.8 0.3,13.1 0.6,13.1 L5.7,13.1" id="Shape"></path>
            </g>
        </g>
    </g>
</svg>