<?xml version="1.0" encoding="utf-8"?>
<!-- Generator: Adobe Illustrator 17.0.0, SVG Export Plug-In . SVG Version: 6.00 Build 0)  -->
<!DOCTYPE svg PUBLIC "-//W3C//DTD SVG 1.1//EN" "http://www.w3.org/Graphics/SVG/1.1/DTD/svg11.dtd">
<svg version="1.1" id="Layer_1" xmlns:sketch="http://www.bohemiancoding.com/sketch/ns"
	 xmlns="http://www.w3.org/2000/svg" xmlns:xlink="http://www.w3.org/1999/xlink" x="0px" y="0px" width="58px" height="64px"
	 viewBox="0 0 58 64" enable-background="new 0 0 58 64" xml:space="preserve">
<title>Document-next</title>
<desc>Created with Sketch.</desc>
<g id="Page-1" sketch:type="MSPage">
	<g id="Document-next" transform="translate(1.000000, 1.000000)" sketch:type="MSLayerGroup">
		<path id="Shape_1_" sketch:type="MSShapeGroup" fill="none" stroke="#6B6C6E" stroke-width="2" d="M47.1,57.3V60c0,1.1-0.9,2-2,2
			h-43c-1.1,0-2-0.9-2-2V2c0-1.1,0.9-2,2-2H28l19.1,18.1v26.6"/>
		<path id="Shape" sketch:type="MSShapeGroup" fill="none" stroke="#6B6C6E" stroke-width="2" d="M47.1,18.9h-17c-1.1,0-2-0.9-2-2V1
			"/>
		<path id="Shape_2_" sketch:type="MSShapeGroup" fill="none" stroke="#6B6C6E" stroke-width="2" d="M9.1,17h13"/>
		<path id="Shape_3_" sketch:type="MSShapeGroup" fill="none" stroke="#6B6C6E" stroke-width="2" d="M9.1,27h31"/>
		<path id="Shape_4_" sketch:type="MSShapeGroup" fill="none" stroke="#6B6C6E" stroke-width="2" d="M9.1,34h31"/>
		<path id="Shape_5_" sketch:type="MSShapeGroup" fill="none" stroke="#6B6C6E" stroke-width="2" d="M9.1,43h24"/>
		<path id="Shape_6_" sketch:type="MSShapeGroup" fill="none" stroke="#6B6C6E" stroke-width="2" d="M9.1,49h15"/>
		<g id="Group" transform="translate(35.000000, 42.000000)" sketch:type="MSShapeGroup">
			<path id="Shape_7_" fill="none" stroke="#6B6C6E" stroke-width="2" d="M0.1,13L9,12.9"/>
			<path id="Shape_8_" fill="none" stroke="#6B6C6E" stroke-width="2" d="M8.9,4.9L0.1,5"/>
			<path id="Shape_9_" fill="none" stroke="#6B6C6E" stroke-width="2" d="M7,13.6v3.7c0,0.3,0.2,0.6,0.6,0.6l11.9-7.8
				c0.3-0.2,0.6-0.3,0.6-0.6V8.4c0-0.2-0.2-0.4-0.6-0.6L7.6-0.1C7.3-0.1,7,0.2,7,0.5v4"/>
		</g>
	</g>
</g>
</svg>
