<?xml version="1.0" encoding="UTF-8" standalone="no"?>
<svg width="48px" height="64px" viewBox="0 0 48 64" version="1.1" xmlns="http://www.w3.org/2000/svg" xmlns:xlink="http://www.w3.org/1999/xlink" xmlns:sketch="http://www.bohemiancoding.com/sketch/ns">
    <!-- Generator: Sketch 3.0.3 (7891) - http://www.bohemiancoding.com/sketch -->
    <title>Document-signal</title>
    <desc>Created with Sketch.</desc>
    <defs></defs>
    <g id="Page-1" stroke="none" stroke-width="1" fill="none" fill-rule="evenodd" sketch:type="MSPage">
        <g id="Document-signal" sketch:type="MSLayerGroup" transform="translate(1.000000, 1.000000)" stroke="#6B6C6E" stroke-width="2">
            <path d="M46,18.1 L46,60 C46,61.1 45.1,62 44,62 L2,62 C0.9,62 0,61.1 0,60 L0,2 C0,0.9 0.9,0 2,0 L27,0 L46,18.1 L46,18.1 Z" id="Shape" sketch:type="MSShapeGroup"></path>
            <path d="M19,46.1 L14.5,46.1 C14.1,46.1 13.9,45.8 13.9,45.5 L13.9,41" id="Shape" sketch:type="MSShapeGroup"></path>
            <path d="M13,37 C18.5,37 23,41.5 23,47" id="Shape" sketch:type="MSShapeGroup"></path>
            <path d="M13,31 C21.8,31 29,38.2 29,47" id="Shape" sketch:type="MSShapeGroup"></path>
            <path d="M35,47 C35,34.8 25.2,25 13,25" id="Shape" sketch:type="MSShapeGroup"></path>
            <path d="M46,18.9 L29,18.9 C27.9,18.9 27,18 27,16.9 L27,1" id="Shape" sketch:type="MSShapeGroup"></path>
        </g>
    </g>
</svg>