<?xml version="1.0" encoding="utf-8"?>
<!-- Generator: Adobe Illustrator 17.0.0, SVG Export Plug-In . SVG Version: 6.00 Build 0)  -->
<!DOCTYPE svg PUBLIC "-//W3C//DTD SVG 1.1//EN" "http://www.w3.org/Graphics/SVG/1.1/DTD/svg11.dtd">
<svg version="1.1" id="Layer_1" xmlns:sketch="http://www.bohemiancoding.com/sketch/ns"
	 xmlns="http://www.w3.org/2000/svg" xmlns:xlink="http://www.w3.org/1999/xlink" x="0px" y="0px" width="54px" height="64px"
	 viewBox="0 0 54 64" enable-background="new 0 0 54 64" xml:space="preserve">
<title>Document-locked</title>
<desc>Created with Sketch.</desc>
<g id="Page-1" sketch:type="MSPage">
	<g id="Document-locked" transform="translate(1.000000, 1.000000)" sketch:type="MSLayerGroup">
		<path id="Shape_1_" sketch:type="MSShapeGroup" fill="none" stroke="#6B6C6E" stroke-width="2" d="M46.1,41L46,18.1L27.8,0H2
			C0.9,0,0,0.9,0,2v58c0,1.1,0.9,2,2,2h42.2c1.7,0,1.7-1.7,1.7-1.7"/>
		<path id="Shape" sketch:type="MSShapeGroup" fill="none" stroke="#6B6C6E" stroke-width="2" d="M46.1,18.9H30c-1.1,0-2-0.9-2.1-2
			V1"/>
		<path id="Shape_2_" sketch:type="MSShapeGroup" fill="none" stroke="#6B6C6E" stroke-width="2" d="M9,17h13"/>
		<path id="Shape_3_" sketch:type="MSShapeGroup" fill="none" stroke="#6B6C6E" stroke-width="2" d="M9,27h31"/>
		<path id="Shape_4_" sketch:type="MSShapeGroup" fill="none" stroke="#6B6C6E" stroke-width="2" d="M9,34h31"/>
		<path id="Shape_5_" sketch:type="MSShapeGroup" fill="none" stroke="#6B6C6E" stroke-width="2" d="M9,43h29.7"/>
		<path id="Shape_6_" sketch:type="MSShapeGroup" fill="none" stroke="#6B6C6E" stroke-width="2" d="M9,49h28.3"/>
		<path id="Shape_7_" sketch:type="MSShapeGroup" fill="none" stroke="#6B6C6E" stroke-width="2" d="M38,47.7v-2.4
			c0-2.9,2.9-5.3,6.5-5.3s6.5,2.4,6.5,5.3V48"/>
		<path id="Shape_8_" sketch:type="MSShapeGroup" fill="none" stroke="#6B6C6E" stroke-width="2" d="M52,59.4c0,0.4-0.3,0.6-0.7,0.6
			H37.7c-0.4,0-0.7-0.3-0.7-0.6V48.7c0-0.4,0.3-0.6,0.7-0.6h13.6c0.4,0,0.7,0.3,0.7,0.6V59.4L52,59.4z"/>
		<path id="Shape_9_" sketch:type="MSShapeGroup" fill="none" stroke="#6B6C6E" stroke-width="2" d="M44.5,51
			c-0.7,0-1.2,0.6-1.2,1.3c0,0.4,0.2,0.8,0.4,1c0.1,0.1-0.7,1.5-0.7,2.7h3c0-1.2-0.9-2.5-0.7-2.7c0.3-0.2,0.4-0.6,0.4-1
			C45.7,51.6,45.2,51,44.5,51L44.5,51z"/>
	</g>
</g>
</svg>
