<?xml version="1.0" encoding="utf-8"?>
<!-- Generator: Adobe Illustrator 17.0.0, SVG Export Plug-In . SVG Version: 6.00 Build 0)  -->
<!DOCTYPE svg PUBLIC "-//W3C//DTD SVG 1.1//EN" "http://www.w3.org/Graphics/SVG/1.1/DTD/svg11.dtd">
<svg version="1.1" id="Layer_1" xmlns:sketch="http://www.bohemiancoding.com/sketch/ns"
	 xmlns="http://www.w3.org/2000/svg" xmlns:xlink="http://www.w3.org/1999/xlink" x="0px" y="0px" width="56px" height="64px"
	 viewBox="0 0 56 64" enable-background="new 0 0 56 64" xml:space="preserve">
<title>Document-coppy</title>
<desc>Created with Sketch.</desc>
<g id="Page-1" sketch:type="MSPage">
	<g id="Document-coppy" transform="translate(1.000000, 1.000000)" sketch:type="MSLayerGroup">
		<g id="Group_1_" transform="translate(0.000000, 7.000000)" sketch:type="MSShapeGroup">
			<path id="Shape_7_" fill="none" stroke="#6B6C6E" stroke-width="2" d="M42,47.1V53c0,1.1-0.9,2-2,2H2c-1.1,0-2-0.9-2-2V2
				c0-1.1,0.9-2,2-2h9.9"/>
			<path id="Shape_8_" fill="none" stroke="#6B6C6E" stroke-width="2" d="M7,13h5"/>
			<path id="Shape_9_" fill="none" stroke="#6B6C6E" stroke-width="2" d="M7,22h5"/>
			<path id="Shape_10_" fill="none" stroke="#6B6C6E" stroke-width="2" d="M7,29h5"/>
			<path id="Shape_11_" fill="none" stroke="#6B6C6E" stroke-width="2" d="M7,38h5"/>
			<path id="Shape_12_" fill="none" stroke="#6B6C6E" stroke-width="2" d="M7,44h5"/>
		</g>
		<g id="Group" transform="translate(12.000000, 0.000000)" sketch:type="MSShapeGroup">
			<path id="Shape_1_" fill="none" stroke="#6B6C6E" stroke-width="2" d="M42,14.1V52c0,1.1-0.9,2-2,2H2c-1.1,0-2-0.9-2-2V2
				c0-1.1,0.9-2,2-2h23.9L42,14.1L42,14.1z"/>
			<path id="Shape" fill="none" stroke="#6B6C6E" stroke-width="2" d="M42,14.9H28c-1.1,0-2-0.9-2-2V1"/>
			<path id="Shape_2_" fill="none" stroke="#6B6C6E" stroke-width="2" d="M7,13h13"/>
			<path id="Shape_3_" fill="none" stroke="#6B6C6E" stroke-width="2" d="M7,22h28"/>
			<path id="Shape_4_" fill="none" stroke="#6B6C6E" stroke-width="2" d="M7,29h28"/>
			<path id="Shape_5_" fill="none" stroke="#6B6C6E" stroke-width="2" d="M7,38h28"/>
			<path id="Shape_6_" fill="none" stroke="#6B6C6E" stroke-width="2" d="M7,44h28"/>
		</g>
	</g>
</g>
</svg>
