<?xml version="1.0" encoding="utf-8"?>
<!-- Generator: Adobe Illustrator 17.0.0, SVG Export Plug-In . SVG Version: 6.00 Build 0)  -->
<!DOCTYPE svg PUBLIC "-//W3C//DTD SVG 1.1//EN" "http://www.w3.org/Graphics/SVG/1.1/DTD/svg11.dtd">
<svg version="1.1" id="Layer_1" xmlns:sketch="http://www.bohemiancoding.com/sketch/ns"
	 xmlns="http://www.w3.org/2000/svg" xmlns:xlink="http://www.w3.org/1999/xlink" x="0px" y="0px" width="55px" height="64px"
	 viewBox="0 0 55 64" enable-background="new 0 0 55 64" xml:space="preserve">
<title>Document-previous</title>
<desc>Created with Sketch.</desc>
<g id="Page-1" sketch:type="MSPage">
	<g id="Document-previous" transform="translate(1.000000, 1.000000)" sketch:type="MSLayerGroup">
		<path id="Shape_1_" sketch:type="MSShapeGroup" fill="none" stroke="#58595B" stroke-width="2" d="M47,57.333V60
			c0,1.104-0.896,2-2,2H2c-1.104,0-2-0.896-2-2V2c0-1.104,0.896-2,2-2h25.917L47,18.084v28.25"/>
		<path id="Shape" sketch:type="MSShapeGroup" fill="none" stroke="#58595B" stroke-width="2" d="M47,18.917H30
			c-1.104,0-2-0.896-2-2V1"/>
		<path id="Shape_2_" sketch:type="MSShapeGroup" fill="none" stroke="#58595B" stroke-width="2" d="M9,17h13"/>
		<path id="Shape_3_" sketch:type="MSShapeGroup" fill="none" stroke="#58595B" stroke-width="2" d="M9,27h31"/>
		<path id="Shape_4_" sketch:type="MSShapeGroup" fill="none" stroke="#58595B" stroke-width="2" d="M9,34h31"/>
		<path id="Shape_5_" sketch:type="MSShapeGroup" fill="none" stroke="#58595B" stroke-width="2" d="M9,43h24"/>
		<path id="Shape_6_" sketch:type="MSShapeGroup" fill="none" stroke="#58595B" stroke-width="2" d="M9,49h15"/>
		<g id="Group" transform="translate(34.000000, 41.000000)" sketch:type="MSShapeGroup">
			<path id="Shape_7_" fill="none" stroke="#58595B" stroke-width="2" d="M19.882,12.966l-8.867-0.07"/>
			<path id="Shape_8_" fill="none" stroke="#58595B" stroke-width="2" d="M11.078,4.925l8.867,0.072"/>
			<path id="Shape_9_" fill="none" stroke="#58595B" stroke-width="2" d="M13.054,13.604l0.001,3.726
				c0,0.315-0.25,0.572-0.559,0.572L0.563,10.08C0.251,9.87,0.004,9.745,0.004,9.507V8.414C0,8.214,0.205,8.035,0.563,7.84
				l11.934-7.938c0.309,0.001,0.558,0.258,0.559,0.574L13.055,3.84"/>
		</g>
	</g>
</g>
</svg>
