<?xml version="1.0" encoding="utf-8"?>
<!-- Generator: Adobe Illustrator 17.0.0, SVG Export Plug-In . SVG Version: 6.00 Build 0)  -->
<!DOCTYPE svg PUBLIC "-//W3C//DTD SVG 1.1//EN" "http://www.w3.org/Graphics/SVG/1.1/DTD/svg11.dtd">
<svg version="1.1" id="Layer_1" xmlns:sketch="http://www.bohemiancoding.com/sketch/ns"
	 xmlns="http://www.w3.org/2000/svg" xmlns:xlink="http://www.w3.org/1999/xlink" x="0px" y="0px" width="58px" height="64px"
	 viewBox="0 0 58 64" enable-background="new 0 0 58 64" xml:space="preserve">
<title>Document-upload</title>
<desc>Created with Sketch.</desc>
<g id="Page-1" sketch:type="MSPage">
	<g id="Document-upload" transform="translate(1.000000, 1.000000)" sketch:type="MSLayerGroup">
		<path id="Shape_1_" sketch:type="MSShapeGroup" fill="none" stroke="#6B6C6E" stroke-width="2" d="M47,59.2V60c0,1.1-0.9,2-2,2H2
			c-1.1,0-2-0.9-2-2V2c0-1.1,0.9-2,2-2h25.9L47,18.1V39"/>
		<path id="Shape" sketch:type="MSShapeGroup" fill="none" stroke="#6B6C6E" stroke-width="2" d="M47,18.9H30c-1.1,0-2-0.9-2-2V1"/>
		<path id="Shape_2_" sketch:type="MSShapeGroup" fill="none" stroke="#6B6C6E" stroke-width="2" d="M9,17h13"/>
		<path id="Shape_3_" sketch:type="MSShapeGroup" fill="none" stroke="#6B6C6E" stroke-width="2" d="M9,27h31"/>
		<path id="Shape_4_" sketch:type="MSShapeGroup" fill="none" stroke="#6B6C6E" stroke-width="2" d="M9,34h31"/>
		<path id="Shape_5_" sketch:type="MSShapeGroup" fill="none" stroke="#6B6C6E" stroke-width="2" d="M9,43h24"/>
		<path id="Shape_6_" sketch:type="MSShapeGroup" fill="none" stroke="#6B6C6E" stroke-width="2" d="M9,49h15"/>
		<g id="Group" transform="translate(38.000000, 39.000000)" sketch:type="MSShapeGroup">
			<path id="Shape_7_" fill="none" stroke="#6B6C6E" stroke-width="2" d="M13.1,19.8L13,11"/>
			<path id="Shape_8_" fill="none" stroke="#6B6C6E" stroke-width="2" d="M5,11.1l0.1,8.8"/>
			<path id="Shape_9_" fill="none" stroke="#6B6C6E" stroke-width="2" d="M13.7,13h3.7c0.3,0,0.6-0.2,0.6-0.6L10.2,0.5
				C10,0.2,9.9-0.1,9.6-0.1H8.5c-0.2,0-0.4,0.2-0.6,0.6L0,12.4C0,12.7,0.3,13,0.6,13h4"/>
		</g>
	</g>
</g>
</svg>
