<?xml version="1.0" encoding="UTF-8" standalone="no"?>
<svg width="40px" height="64px" viewBox="0 0 40 64" version="1.1" xmlns="http://www.w3.org/2000/svg" xmlns:xlink="http://www.w3.org/1999/xlink" xmlns:sketch="http://www.bohemiancoding.com/sketch/ns">
    <!-- Generator: Sketch 3.0.3 (7891) - http://www.bohemiancoding.com/sketch -->
    <title>Dress</title>
    <desc>Created with Sketch.</desc>
    <defs></defs>
    <g id="Page-1" stroke="none" stroke-width="1" fill="none" fill-rule="evenodd" sketch:type="MSPage">
        <g id="Dress" sketch:type="MSLayerGroup" transform="translate(1.000000, 1.000000)" stroke="#6B6C6E" stroke-width="2">
            <path d="M25.9,26 C29,21.7 31,16 31,12 C31,9.4 30.8,5.6 29,4.8 L29,1 C29,-0.1 28.2,1.32005084e-13 27.1,1.32005084e-13 L26.9,1.32005084e-13 C25.9,1.32005084e-13 25,-0.1 25,1 L25,6.4 C23.3,6.7 19,7.5 19,12 C19,7.7 14.7,6.5 13,6.2 L13,1 C13,-0.1 12.2,1.32005084e-13 11.1,1.32005084e-13 L10.9,1.32005084e-13 C9.9,1.32005084e-13 9,-0.1 9,1 L9,4.6 C7.2,5.4 7,9.3 7,12 C7,16 9,21.7 12.1,26 C5,31.9 1.13686838e-13,48.1 1.13686838e-13,56 C1.13686838e-13,58.6 8.5,62 19,62 C29.5,62 38,58.5 38,56 C38,48.1 33,31.9 25.9,26 L25.9,26 Z" id="Shape" sketch:type="MSShapeGroup"></path>
            <path d="M11.1,25.9 C11.1,25.9 17.5,28.5 27,25.9" id="Shape" sketch:type="MSShapeGroup"></path>
        </g>
    </g>
</svg>