<?xml version="1.0" encoding="utf-8"?>
<!-- Generator: Adobe Illustrator 17.0.0, SVG Export Plug-In . SVG Version: 6.00 Build 0)  -->
<!DOCTYPE svg PUBLIC "-//W3C//DTD SVG 1.1//EN" "http://www.w3.org/Graphics/SVG/1.1/DTD/svg11.dtd">
<svg version="1.1" id="Layer_1" xmlns:sketch="http://www.bohemiancoding.com/sketch/ns"
	 xmlns="http://www.w3.org/2000/svg" xmlns:xlink="http://www.w3.org/1999/xlink" x="0px" y="0px" width="65px" height="51px"
	 viewBox="0 0 65 51" enable-background="new 0 0 65 51" xml:space="preserve">
<title>Driller</title>
<desc>Created with Sketch.</desc>
<g id="Driller" transform="translate(1.000000, 1.000000)" sketch:type="MSLayerGroup">
	<path id="Shape" sketch:type="MSShapeGroup" fill="none" stroke="#6B6C6E" stroke-width="2" stroke-linejoin="round" d="M28,22
		l-1,5h-4"/>
	<path id="Shape_3_" sketch:type="MSShapeGroup" fill="none" stroke="#6B6C6E" stroke-width="2" stroke-linejoin="round" d="M45,9
		h16l-2,3.9H45"/>
	<path id="Shape_4_" sketch:type="MSShapeGroup" fill="none" stroke="#6B6C6E" stroke-width="2" d="M41,7h2c1.1,0,2,0.8,2,1.7v3.5
		c0,1-0.9,1.8-2,1.8h-2"/>
	<path id="Shape_5_" sketch:type="MSShapeGroup" fill="none" stroke="#6B6C6E" stroke-width="2" d="M34.1,5H39c1.1,0,2,0.8,2,1.8
		v7.4c0,1-0.9,1.8-2,1.8h-4.9"/>
	<path id="Shape_6_" sketch:type="MSShapeGroup" fill="none" stroke="#6B6C6E" stroke-width="2" stroke-linejoin="round" d="M32,0H2
		C0.9,0,0,0.9,0,2v18c0,1.1,0.9,2,2,2h4.8L4.3,39.2H4c-1.1,0-2,0.9-2,2v4.9c0,1.1,0.9,2,2,2h13c1.1,0,2-0.9,2-2v-4.9
		c0-1-0.7-1.8-1.6-1.9l1.3-3l3.2-3.9L24.1,22h8c1.1,0,2-0.9,2-2V2C34,0.9,33.1,0,32,0L32,0z"/>
	<path id="Shape_7_" sketch:type="MSShapeGroup" fill="none" stroke="#6B6C6E" stroke-width="2" stroke-linejoin="round" d="M22,3
		v5.8"/>
	<path id="Shape_8_" sketch:type="MSShapeGroup" fill="none" stroke="#6B6C6E" stroke-width="2" stroke-linejoin="round" d="M26,3
		v5.8"/>
	<path id="Shape_9_" sketch:type="MSShapeGroup" fill="none" stroke="#6B6C6E" stroke-width="2" d="M30,3v5.8"/>
	<path id="Shape_10_" sketch:type="MSShapeGroup" fill="none" stroke="#6B6C6E" stroke-width="2" stroke-linejoin="round" d="
		M11,24.9L9,36.2"/>
	<path id="Shape_1_" sketch:type="MSShapeGroup" fill="none" stroke="#6B6C6E" stroke-width="2" stroke-linejoin="round" d="M51,9
		l-2,3.9"/>
	<path id="Shape_2_" sketch:type="MSShapeGroup" fill="none" stroke="#6B6C6E" stroke-width="2" stroke-linejoin="round" d="M56,9
		l-2,3.9"/>
</g>
</svg>
