<?xml version="1.0" encoding="UTF-8" standalone="no"?>
<svg width="50px" height="64px" viewBox="0 0 50 64" version="1.1" xmlns="http://www.w3.org/2000/svg" xmlns:xlink="http://www.w3.org/1999/xlink" xmlns:sketch="http://www.bohemiancoding.com/sketch/ns">
    <!-- Generator: Sketch 3.0.3 (7891) - http://www.bohemiancoding.com/sketch -->
    <title>Drum</title>
    <desc>Created with Sketch.</desc>
    <defs></defs>
    <g id="Page-1" stroke="none" stroke-width="1" fill="none" fill-rule="evenodd" sketch:type="MSPage">
        <g id="Drum" sketch:type="MSLayerGroup" transform="translate(1.000000, 1.000000)" stroke="#6B6C6E" stroke-width="2">
            <path d="M3,54.7 L3,30.1" id="Shape" sketch:type="MSShapeGroup"></path>
            <path d="M45,30.1 L45,54.7" id="Shape" sketch:type="MSShapeGroup"></path>
            <path d="M13,45.5 L13,54.8" id="Shape" sketch:type="MSShapeGroup"></path>
            <path d="M13,30 L13,39.3" id="Shape" sketch:type="MSShapeGroup"></path>
            <path d="M24,45.5 L24,54.8" id="Shape" sketch:type="MSShapeGroup"></path>
            <path d="M24,30 L24,39.3" id="Shape" sketch:type="MSShapeGroup"></path>
            <path d="M36,45.5 L36,54.8" id="Shape" sketch:type="MSShapeGroup"></path>
            <path d="M36,30 L36,39.3" id="Shape" sketch:type="MSShapeGroup"></path>
            <circle id="Oval" sketch:type="MSShapeGroup" cx="13" cy="43" r="3"></circle>
            <circle id="Oval" sketch:type="MSShapeGroup" cx="24" cy="43" r="3"></circle>
            <circle id="Oval" sketch:type="MSShapeGroup" cx="36" cy="43" r="3"></circle>
            <path d="M1,0 L12.8,11.7" id="Shape" sketch:type="MSShapeGroup"></path>
            <path d="M46,0 L34.2,11.7" id="Shape" sketch:type="MSShapeGroup"></path>
            <circle id="Oval" sketch:type="MSShapeGroup" cx="16" cy="15" r="4"></circle>
            <circle id="Oval" sketch:type="MSShapeGroup" cx="32" cy="15" r="4"></circle>
            <path d="M48,28.9 C48,29.5 47.5,29.9 47,29.9 L1,29.9 C0.4,29.9 0,29.5 0,28.9 L0,23.9 C0,23.3 0.5,22.9 1,22.9 L47,22.9 C47.6,22.9 48,23.3 48,23.9 L48,28.9 L48,28.9 Z" id="Shape" sketch:type="MSShapeGroup"></path>
            <path d="M48,60.9 C48,61.5 47.5,61.9 47,61.9 L1,61.9 C0.4,61.9 0,61.5 0,60.9 L0,55.9 C0,55.3 0.5,54.9 1,54.9 L47,54.9 C47.6,54.9 48,55.3 48,55.9 L48,60.9 L48,60.9 Z" id="Shape" sketch:type="MSShapeGroup"></path>
        </g>
    </g>
</svg>