<?xml version="1.0" encoding="UTF-8" standalone="no"?>
<svg width="65px" height="62px" viewBox="0 0 65 62" version="1.1" xmlns="http://www.w3.org/2000/svg" xmlns:xlink="http://www.w3.org/1999/xlink" xmlns:sketch="http://www.bohemiancoding.com/sketch/ns">
    <!-- Generator: Sketch 3.0.3 (7891) - http://www.bohemiancoding.com/sketch -->
    <title>Egg-1</title>
    <desc>Created with Sketch.</desc>
    <defs></defs>
    <g id="Page-1" stroke="none" stroke-width="1" fill="none" fill-rule="evenodd" sketch:type="MSPage">
        <g id="Egg-1" sketch:type="MSLayerGroup" transform="translate(1.000000, 1.000000)" stroke="#6B6C6E" stroke-width="2">
            <path d="M60.4,35.2 C60.4,30.7 63.7,20.9 57.4,13 C53.8,8.5 48.9,6.2 42.7,6.2 C41.6,6.2 40.5,0.1 35.7,0 C32.8,0 23.7,1.6 21,1.6 C13.8,1.6 7.9,5.6 7.9,10.5 C7.9,13.2 6.6,18 4.9,19.7 C2.1,22.4 0.9,27 0.3,32.1 C-1.1,43.7 5.2,47.1 11.2,47 C12.7,47 14.3,47.3 14.3,48.1 C14.3,51.3 21.2,57.1 34.6,53.9 C38.6,52.9 44.2,59.9 49.9,59.9 C68.1,60.1 60.4,38.2 60.4,35.2 L60.4,35.2 Z" id="Shape" sketch:type="MSShapeGroup"></path>
            <circle id="Oval" sketch:type="MSShapeGroup" cx="26" cy="25" r="11"></circle>
            <path d="M19.2,25.3 C19.2,21.3 22.4,18.1 26.4,18.1" id="Shape" sketch:type="MSShapeGroup"></path>
        </g>
    </g>
</svg>