<?xml version="1.0" encoding="utf-8"?>
<!-- Generator: Adobe Illustrator 17.0.0, SVG Export Plug-In . SVG Version: 6.00 Build 0)  -->
<!DOCTYPE svg PUBLIC "-//W3C//DTD SVG 1.1//EN" "http://www.w3.org/Graphics/SVG/1.1/DTD/svg11.dtd">
<svg version="1.1" id="Layer_1" xmlns:sketch="http://www.bohemiancoding.com/sketch/ns"
	 xmlns="http://www.w3.org/2000/svg" xmlns:xlink="http://www.w3.org/1999/xlink" x="0px" y="0px" width="64px" height="41px"
	 viewBox="0 0 64 41" enable-background="new 0 0 64 41" xml:space="preserve">
<title>Evelator-up</title>
<desc>Created with Sketch.</desc>
<g id="Page-1" sketch:type="MSPage">
	<g id="Evelator-up" transform="translate(1.000000, 1.000000)" sketch:type="MSLayerGroup">
		<g id="Group" sketch:type="MSShapeGroup">
			<path id="Shape_1_" fill="none" stroke="#6B6C6E" stroke-width="2" d="M23.8,21.6c0-5.2,0.7-10.9,4-10.9c2.2,0,4.2,2.6,5.2,5.9"
				/>
			<ellipse id="Oval" fill="none" stroke="#6B6C6E" stroke-width="2" cx="29.1" cy="4" rx="4.1" ry="4"/>
			<path id="Shape" fill="none" stroke="#6B6C6E" stroke-width="2" d="M58,8H46L15,28L4,30c-2.2,0-4,1.8-4,4v1c0,2.2,1.8,4,4,4h11
				l31-20l12-2c2.2,0,4-1.8,4-4v-1C62,9.8,60.2,8,58,8L58,8z"/>
		</g>
		<path id="Shape_2_" sketch:type="MSShapeGroup" fill="none" stroke="#6B6C6E" stroke-width="2" d="M34,36.8L44.2,29"/>
		<path id="Shape_3_" sketch:type="MSShapeGroup" fill="none" stroke="#6B6C6E" stroke-width="2" d="M38.2,28H45v7"/>
	</g>
</g>
</svg>
