<?xml version="1.0" encoding="UTF-8" standalone="no"?>
<svg width="58px" height="64px" viewBox="0 0 58 64" version="1.1" xmlns="http://www.w3.org/2000/svg" xmlns:xlink="http://www.w3.org/1999/xlink" xmlns:sketch="http://www.bohemiancoding.com/sketch/ns">
    <!-- Generator: Sketch 3.0.3 (7891) - http://www.bohemiancoding.com/sketch -->
    <title>Eyedropper</title>
    <desc>Created with Sketch.</desc>
    <defs></defs>
    <g id="Page-1" stroke="none" stroke-width="1" fill="none" fill-rule="evenodd" sketch:type="MSPage">
        <g id="Eyedropper" sketch:type="MSLayerGroup" transform="translate(2.000000, 1.000000)" stroke-width="2" stroke="#6B6C6E">
            <g id="Group" sketch:type="MSShapeGroup">
                <path d="M49.3,27.4 C45.2,31.5 38.5,27.5 34.7,31.3 C25.9,40.1 19.6,45 15.3,47.9 C10.3,51.3 4.4,49.5 4.4,49.5 C4.4,49.5 2.7,43.5 6.2,38.4 C9.1,34.1 14,27.9 22.7,19.3 C26.5,15.5 22.5,8.7 26.6,4.7 C32.9,-1.5 43,-1.5 49.3,4.8 C55.6,11 55.6,21.2 49.3,27.4 L49.3,27.4 Z" id="Shape"></path>
                <path d="M22.7,19 L35,31.2" id="Shape"></path>
                <path d="M8.1,57.8 C8.1,60.1 6.3,62 4,62 C1.8,62 -0.1,60.1 -0.1,57.8 C-0.1,55.5 4,49.4 4,49.4 C4,49.4 8.1,55.5 8.1,57.8 L8.1,57.8 Z" id="Shape"></path>
            </g>
            <path d="M20.4,22.5 L31.6,33.7" id="Shape" sketch:type="MSShapeGroup"></path>
        </g>
    </g>
</svg>