<?xml version="1.0" encoding="utf-8"?>
<!-- Generator: Adobe Illustrator 17.0.0, SVG Export Plug-In . SVG Version: 6.00 Build 0)  -->
<!DOCTYPE svg PUBLIC "-//W3C//DTD SVG 1.1//EN" "http://www.w3.org/Graphics/SVG/1.1/DTD/svg11.dtd">
<svg version="1.1" id="Layer_1" xmlns:sketch="http://www.bohemiancoding.com/sketch/ns"
	 xmlns="http://www.w3.org/2000/svg" xmlns:xlink="http://www.w3.org/1999/xlink" x="0px" y="0px" width="50px" height="64px"
	 viewBox="0 0 50 64" enable-background="new 0 0 50 64" xml:space="preserve">
<title>Faucet</title>
<desc>Created with Sketch.</desc>
<g id="Page-1" sketch:type="MSPage">
	<g id="Faucet" transform="translate(1.000000, 1.000000)" sketch:type="MSLayerGroup">
		<path id="Shape" sketch:type="MSShapeGroup" fill="none" stroke="#6B6C6E" stroke-width="2" d="M44,37h4v-4h-4"/>
		<path id="Shape_3_" sketch:type="MSShapeGroup" fill="none" stroke="#6B6C6E" stroke-width="2" d="M37,27c0,0,4.1,1.5,5.1,4.1h2.8
			V39H42c-1,2.6-5.1,5-5.1,5"/>
		<path id="Shape_4_" sketch:type="MSShapeGroup" fill="none" stroke="#6B6C6E" stroke-width="2" d="M4,37H0v-4h4"/>
		<path id="Shape_7_" sketch:type="MSShapeGroup" fill="none" stroke="#6B6C6E" stroke-width="2" d="M11,27c0,0-4.1,1.5-5.1,4.1H3.1
			V39H6c1,2.6,5.1,5,5.1,5"/>
		<path id="Shape_8_" sketch:type="MSShapeGroup" fill="none" stroke="#6B6C6E" stroke-width="2" d="M11,23v32.1h4H6
			c-1.1,0-2,0.9-2,2V60c0,1.1,0.9,2,2,2h37c1.1,0,2-0.9,2-2v-2.9c0-1.1-0.9-2-2-2H33h4V23"/>
		<path id="Shape_11_" sketch:type="MSShapeGroup" fill="none" stroke="#6B6C6E" stroke-width="2" d="M22,4.9V0h4v4.9"/>
		<circle id="Oval" sketch:type="MSShapeGroup" fill="none" stroke="#6B6C6E" stroke-width="2" cx="24" cy="35" r="8">
		</circle>
		<circle id="Oval_1_" sketch:type="MSShapeGroup" fill="none" stroke="#6B6C6E" stroke-width="2" cx="24" cy="35" r="3">
		</circle>
		<path id="Shape_1_" sketch:type="MSShapeGroup" fill="none" stroke="#6B6C6E" stroke-width="2" d="M38,18c0-6-3.8-10.1-9-12.1l0,0
			v-2H19v2c-5.3,2-9,6.1-9,12.1"/>
		<path id="Shape_12_" sketch:type="MSShapeGroup" fill="none" stroke="#6B6C6E" stroke-width="2" d="M40,18c2.2,0,2,1.4,2,2.1v0.7
			c0,0.8,0.2,2.1-2,2.1H8c-2.2,0-2-1.4-2-2.1v-0.7C6,19.3,5.8,18,8,18H40z"/>
	</g>
</g>
</svg>
