<?xml version="1.0" encoding="UTF-8" standalone="no"?>
<svg width="54px" height="62px" viewBox="0 0 54 62" version="1.1" xmlns="http://www.w3.org/2000/svg" xmlns:xlink="http://www.w3.org/1999/xlink" xmlns:sketch="http://www.bohemiancoding.com/sketch/ns">
    <!-- Generator: Sketch 3.0.3 (7891) - http://www.bohemiancoding.com/sketch -->
    <title>Film</title>
    <desc>Created with Sketch.</desc>
    <defs></defs>
    <g id="Page-1" stroke="none" stroke-width="1" fill="none" fill-rule="evenodd" sketch:type="MSPage">
        <g id="Film" sketch:type="MSLayerGroup" transform="translate(1.000000, 0.000000)" stroke-width="2" stroke="#6B6C6E">
            <g id="Shape" sketch:type="MSShapeGroup">
                <path d="M0,62 L0,0"></path>
                <path d="M52,0 L52,62"></path>
                <path d="M42,25 C42,26.1 41,27 39.9,27 L12.2,27 C11,27 10.1,26.1 10.1,25 L10.1,8 C10.1,6.9 11.1,6 12.2,6 L39.9,6 C41.1,6 42,6.9 42,8 L42,25 L42,25 Z"></path>
                <path d="M42,54 C42,55.1 41,56 39.9,56 L12.2,56 C11,56 10.1,55.1 10.1,54 L10.1,36 C10.1,34.9 11.1,34 12.2,34 L39.9,34 C41.1,34 42,34.9 42,36 L42,54 L42,54 Z"></path>
            </g>
            <path d="M5,4 L5,9.9" id="Shape" sketch:type="MSShapeGroup"></path>
            <path d="M47,4 L47,10" id="Shape" sketch:type="MSShapeGroup"></path>
            <path d="M5,15.2 L5,21" id="Shape" sketch:type="MSShapeGroup"></path>
            <path d="M47,15 L47,21" id="Shape" sketch:type="MSShapeGroup"></path>
            <path d="M5,27 L5,32.9" id="Shape" sketch:type="MSShapeGroup"></path>
            <path d="M47,27 L47,33" id="Shape" sketch:type="MSShapeGroup"></path>
            <path d="M5,39.2 L5,45" id="Shape" sketch:type="MSShapeGroup"></path>
            <path d="M47,40 L47,46" id="Shape" sketch:type="MSShapeGroup"></path>
            <path d="M5,51.1 L5,57" id="Shape" sketch:type="MSShapeGroup"></path>
            <path d="M47,51 L47,57" id="Shape" sketch:type="MSShapeGroup"></path>
        </g>
    </g>
</svg>