<?xml version="1.0" encoding="UTF-8" standalone="no"?>
<svg width="60px" height="66px" viewBox="0 0 60 66" version="1.1" xmlns="http://www.w3.org/2000/svg" xmlns:xlink="http://www.w3.org/1999/xlink" xmlns:sketch="http://www.bohemiancoding.com/sketch/ns">
    <!-- Generator: Sketch 3.0.3 (7891) - http://www.bohemiancoding.com/sketch -->
    <title>Fire</title>
    <desc>Created with Sketch.</desc>
    <defs></defs>
    <g id="Page-1" stroke="none" stroke-width="1" fill="none" fill-rule="evenodd" sketch:type="MSPage">
        <path d="M59,42.8 C59,58.9 46,65 30,65 C14,65 1,58.9 1,42.8 C1,38.6 1.9,35.9 3.5,32.2 C4.6,29.8 7.1,40.7 8.9,38.8 C13.2,34.1 4.2,23.3 20.8,15.2 C17.8,23.5 20.2,26.8 23.4,26.8 C30.4,26.8 30.5,16.3 29.7,3 C51.1,19.6 39.3,26 41.7,28.1 C53.6,29.4 45.7,3.1 56.3,28.3 C58.3,32.8 59,37.5 59,42.8 L59,42.8 Z" id="Fire" stroke="#6B6C6E" stroke-width="2" sketch:type="MSShapeGroup"></path>
    </g>
</svg>