<?xml version="1.0" encoding="utf-8"?>
<!-- Generator: Adobe Illustrator 17.0.0, SVG Export Plug-In . SVG Version: 6.00 Build 0)  -->
<!DOCTYPE svg PUBLIC "-//W3C//DTD SVG 1.1//EN" "http://www.w3.org/Graphics/SVG/1.1/DTD/svg11.dtd">
<svg version="1.1" id="Layer_1" xmlns:sketch="http://www.bohemiancoding.com/sketch/ns"
	 xmlns="http://www.w3.org/2000/svg" xmlns:xlink="http://www.w3.org/1999/xlink" x="0px" y="0px" width="60px" height="64px"
	 viewBox="0 0 60 64" enable-background="new 0 0 60 64" xml:space="preserve">
<title>Fire-alarm</title>
<desc>Created with Sketch.</desc>
<g id="Page-1" sketch:type="MSPage">
	<g id="Fire-alarm" transform="translate(1.000000, 1.000000)" sketch:type="MSLayerGroup">
		<path id="Shape_1_" sketch:type="MSShapeGroup" fill="none" stroke="#6B6C6E" stroke-width="2" d="M32,42c1.1,0,2,0.9,2,2v16
			c0,1.1-0.9,2-2,2H12c-1.1,0-2-0.9-2-2V44c0-1.1,0.9-2,2-2"/>
		<circle id="Oval" sketch:type="MSShapeGroup" fill="none" stroke="#6B6C6E" stroke-width="2" cx="22" cy="22" r="22">
		</circle>
		<path id="Shape" sketch:type="MSShapeGroup" fill="none" stroke="#6B6C6E" stroke-width="2" d="M4,22c0-9.9,8.1-18,18-18"/>
		<circle id="Oval_1_" sketch:type="MSShapeGroup" fill="none" stroke="#6B6C6E" stroke-width="2" cx="22" cy="22" r="4">
		</circle>
		<path id="Shape_2_" sketch:type="MSShapeGroup" fill="none" stroke="#6B6C6E" stroke-width="2" d="M14,58h16"/>
		<path id="Shape_3_" sketch:type="MSShapeGroup" fill="none" stroke="#6B6C6E" stroke-width="2" d="M14,53h16"/>
		<path id="Shape_4_" sketch:type="MSShapeGroup" fill="none" stroke="#6B6C6E" stroke-width="2" d="M14,48h16"/>
		
			<ellipse id="Oval_2_" sketch:type="MSShapeGroup" fill="none" stroke="#6B6C6E" stroke-width="2" cx="52.9" cy="25" rx="4.9" ry="5">
		</ellipse>
		<path id="Shape_5_" sketch:type="MSShapeGroup" fill="none" stroke="#6B6C6E" stroke-width="2" d="M33.4,54c0,0,19.7,0,19.7-24"/>
	</g>
</g>
</svg>
