<?xml version="1.0" encoding="UTF-8" standalone="no"?>
<svg width="64px" height="63px" viewBox="0 0 64 63" version="1.1" xmlns="http://www.w3.org/2000/svg" xmlns:xlink="http://www.w3.org/1999/xlink" xmlns:sketch="http://www.bohemiancoding.com/sketch/ns">
    <!-- Generator: Sketch 3.0.3 (7891) - http://www.bohemiancoding.com/sketch -->
    <title>Flip-flop</title>
    <desc>Created with Sketch.</desc>
    <defs></defs>
    <g id="Page-1" stroke="none" stroke-width="1" fill="none" fill-rule="evenodd" sketch:type="MSPage">
        <g id="Flip-flop" sketch:type="MSLayerGroup" transform="translate(1.000000, 2.000000)" stroke="#6B6C6E" stroke-width="2">
            <path d="M32.4,51.7 C32.8,52.6 32.1,55.5 25.1,58.3 C18.1,61.2 15.6,59.6 15.3,58.7 L0.6,27.4 C0.2,26.5 -0.9,21.6 8.5,17.8 C17.8,14 20.5,18.2 20.9,19.1 L32.4,51.7 L32.4,51.7 Z" id="Shape" sketch:type="MSShapeGroup"></path>
            <path d="M9.4,40.2 C8.8,38.7 5.8,27.1 11.3,24.9 C16.8,22.7 22.8,33 23.4,34.5" id="Shape" sketch:type="MSShapeGroup"></path>
            <path d="M52.8,42 C52.6,42.9 50.4,44.9 43,43.3 C35.6,41.7 34.5,38.9 34.7,38 L40.5,3.9 C40.7,3 42.6,-1.7 52.5,0.5 C62.4,2.7 62.1,7.7 61.9,8.6 L52.8,42 L52.8,42 Z" id="Shape" sketch:type="MSShapeGroup"></path>
            <path d="M40.6,19.5 C41,17.9 45.2,6.7 50.9,8 C56.7,9.3 55.7,21.2 55.4,22.8" id="Shape" sketch:type="MSShapeGroup"></path>
        </g>
    </g>
</svg>