<?xml version="1.0" encoding="UTF-8" standalone="no"?>
<svg width="64px" height="59px" viewBox="0 0 64 59" version="1.1" xmlns="http://www.w3.org/2000/svg" xmlns:xlink="http://www.w3.org/1999/xlink" xmlns:sketch="http://www.bohemiancoding.com/sketch/ns">
    <!-- Generator: Sketch 3.0.3 (7891) - http://www.bohemiancoding.com/sketch -->
    <title>Floppy-disc</title>
    <desc>Created with Sketch.</desc>
    <defs></defs>
    <g id="Page-1" stroke="none" stroke-width="1" fill="none" fill-rule="evenodd" sketch:type="MSPage">
        <g id="Floppy-disc" sketch:type="MSLayerGroup" transform="translate(1.000000, 1.000000)" stroke="#6B6C6E" stroke-width="2">
            <path d="M62,55 C62,56.1 61.1,57 60,57 L2,57 C0.9,57 0,56.1 0,55 L0,2 C0,0.9 0.9,0 2,0 L55,0 C56.1,0 62,8.7 62,9.8 L62,55 L62,55 Z" id="Shape" sketch:type="MSShapeGroup"></path>
            <path d="M11,56 L11,38 C11,36.9 11.9,36 13,36 L49,36 C50.1,36 51,36.9 51,38 L51,56.1" id="Shape" sketch:type="MSShapeGroup"></path>
            <path d="M48,19 C48,20.1 47.1,21 46,21 L16,21 C14.9,21 14,20.1 14,19 L14,2 C14,0.9 14.9,0 16,0 L46,0 C47.1,0 48,0.9 48,2 L48,19 L48,19 Z" id="Shape" sketch:type="MSShapeGroup"></path>
            <rect id="Rectangle-path" sketch:type="MSShapeGroup" x="18" y="5" width="6" height="11.2"></rect>
            <path d="M17,41.1 L45,41.1" id="Shape" sketch:type="MSShapeGroup"></path>
            <path d="M17,46 L45,46" id="Shape" sketch:type="MSShapeGroup"></path>
            <path d="M17,51.1 L45,51.1" id="Shape" sketch:type="MSShapeGroup"></path>
            <rect id="Rectangle-path" sketch:type="MSShapeGroup" x="4" y="50" width="3" height="2.9"></rect>
        </g>
    </g>
</svg>