<?xml version="1.0" encoding="UTF-8" standalone="no"?>
<svg width="64px" height="56px" viewBox="0 0 64 56" version="1.1" xmlns="http://www.w3.org/2000/svg" xmlns:xlink="http://www.w3.org/1999/xlink" xmlns:sketch="http://www.bohemiancoding.com/sketch/ns">
    <!-- Generator: Sketch 3.0.3 (7891) - http://www.bohemiancoding.com/sketch -->
    <title>Folder-search</title>
    <desc>Created with Sketch.</desc>
    <defs></defs>
    <g id="Page-1" stroke="none" stroke-width="1" fill="none" fill-rule="evenodd" sketch:type="MSPage">
        <g id="Folder-search" sketch:type="MSLayerGroup" transform="translate(1.000000, 1.000000)" stroke="#6B6C6E" stroke-width="2">
            <path d="M34,44 L2.9,44 C1.3,44 0,42.7 0,41.1 L0,3 C0,1.4 1.3,0.1 2.9,0.1 L17.7,0.1 L26.9,9.1 L22.9,5.1 L58.5,5.1 C61.7,5.1 62,6.5 62,8.1 L62,30.1 L62,41.1 C62,42.8 61.7,44.1 58.5,44.1 L54.2,44.1" id="Shape" sketch:type="MSShapeGroup"></path>
            <path d="M49.8,43.9 C47.8,45.8 45.1,47 42.1,47 C36,47 31,42.1 31,36 C31,29.9 35.9,25 42.1,25 C48.2,25 53.2,29.9 53.2,36 C53.2,38 52.6,40 51.7,41.6 L60.8,50.7 C61.2,51.1 60.8,52.1 59.9,52.9 L59.9,52.9 C59,53.8 58,54.2 57.7,53.8 L48.7,44.8" id="Shape" sketch:type="MSShapeGroup"></path>
        </g>
    </g>
</svg>