<?xml version="1.0" encoding="UTF-8" standalone="no"?>
<svg width="64px" height="52px" viewBox="0 0 64 52" version="1.1" xmlns="http://www.w3.org/2000/svg" xmlns:xlink="http://www.w3.org/1999/xlink" xmlns:sketch="http://www.bohemiancoding.com/sketch/ns">
    <!-- Generator: Sketch 3.0.3 (7891) - http://www.bohemiancoding.com/sketch -->
    <title>Folder-upload</title>
    <desc>Created with Sketch.</desc>
    <defs></defs>
    <g id="Page-1" stroke="none" stroke-width="1" fill="none" fill-rule="evenodd" sketch:type="MSPage">
        <g id="Folder-upload" sketch:type="MSLayerGroup" transform="translate(1.000000, 1.000000)" stroke="#6B6C6E" stroke-width="2">
            <path d="M45,44 L2.9,44 C1.3,44 0,42.7 0,41.1 L0,3 C0,1.4 1.3,0.1 2.9,0.1 L17.7,0.1 L26.9,9.1 L22.9,5.1 L58.5,5.1 C61.7,5.1 62,6.5 62,8.1 L62,30.1 L62,41.1 C62,42.8 61.7,44.1 58.5,44.1 L52,44.1" id="Shape" sketch:type="MSShapeGroup"></path>
            <g id="Group" transform="translate(39.000000, 31.000000)" sketch:type="MSShapeGroup">
                <path d="M4.3,13.1 L0.6,13.1 C0.3,13.1 0,12.9 0,12.5 L7.8,0.5 C8,0.2 8.1,-0.1 8.4,-0.1 L9.5,-0.1 C9.7,-0.1 9.9,0.1 10.1,0.5 L18.1,12.4 C18.1,12.7 17.8,13 17.5,13 L14.1,13" id="Shape"></path>
                <path d="M13,11.1 L13,20" id="Shape"></path>
                <path d="M5,11.1 L5,20" id="Shape"></path>
            </g>
        </g>
    </g>
</svg>