<?xml version="1.0" encoding="utf-8"?>
<!-- Generator: Adobe Illustrator 17.0.0, SVG Export Plug-In . SVG Version: 6.00 Build 0)  -->
<!DOCTYPE svg PUBLIC "-//W3C//DTD SVG 1.1//EN" "http://www.w3.org/Graphics/SVG/1.1/DTD/svg11.dtd">
<svg version="1.1" id="Layer_1" xmlns:sketch="http://www.bohemiancoding.com/sketch/ns"
	 xmlns="http://www.w3.org/2000/svg" xmlns:xlink="http://www.w3.org/1999/xlink" x="0px" y="0px" width="64px" height="55px"
	 viewBox="0 0 64 55" enable-background="new 0 0 64 55" xml:space="preserve">
<title>Folder-previous</title>
<desc>Created with Sketch.</desc>
<g id="Page-1" sketch:type="MSPage">
	<g id="Folder-previous" transform="translate(1.000000, 1.000000)" sketch:type="MSLayerGroup">
		<path id="Shape_3_" sketch:type="MSShapeGroup" fill="none" stroke="#6B6C6E" stroke-width="2" d="M37,44.1H3
			c-1.6,0-2.9-1.3-2.9-2.9V3c0-1.6,1.3-2.9,2.9-2.9h14l9.2,9l-4-4.1h36.3C61.7,5,62,6.4,62,8.1v22.1v11c0,1.7-0.3,3.1-3.5,3.1h-1.4"
			/>
		<path id="Shape" sketch:type="MSShapeGroup" fill="none" stroke="#6B6C6E" stroke-width="2" d="M56.9,48.1L48,48"/>
		<path id="Shape_1_" sketch:type="MSShapeGroup" fill="none" stroke="#6B6C6E" stroke-width="2" d="M48.1,40l8.8,0.1"/>
		<path id="Shape_2_" sketch:type="MSShapeGroup" fill="none" stroke="#6B6C6E" stroke-width="2" d="M50,48.7v3.7
			c0,0.3-0.3,0.6-0.6,0.6l-11.9-7.8c-0.3-0.2-0.6-0.3-0.6-0.6v-1.1c0-0.2,0.2-0.4,0.6-0.6l12-8c0.3,0,0.6,0.3,0.6,0.6v4.4"/>
	</g>
</g>
</svg>
