<?xml version="1.0" encoding="UTF-8" standalone="no"?>
<svg width="64px" height="53px" viewBox="0 0 64 53" version="1.1" xmlns="http://www.w3.org/2000/svg" xmlns:xlink="http://www.w3.org/1999/xlink" xmlns:sketch="http://www.bohemiancoding.com/sketch/ns">
    <!-- Generator: Sketch 3.0.3 (7891) - http://www.bohemiancoding.com/sketch -->
    <title>Folder-error</title>
    <desc>Created with Sketch.</desc>
    <defs></defs>
    <g id="Page-1" stroke="none" stroke-width="1" fill="none" fill-rule="evenodd" sketch:type="MSPage">
        <g id="Folder-error" sketch:type="MSLayerGroup" transform="translate(1.000000, 1.000000)" stroke="#6B6C6E" stroke-width="2">
            <path d="M43.1,45 L2.9,45 C1.3,45 0,43.7 0,42.1 L0,3 C0,1.4 1.3,0.1 2.9,0.1 L17.7,0.1 L26.9,9.1 L22.9,5 L58.5,5 C61.7,5 62,6.4 62,8.1 L62,42 C62,43.7 61.7,45.1 58.5,45.1 L55.2,45.1" id="Shape" sketch:type="MSShapeGroup"></path>
            <path d="M56.8,45.6 L53.3,42.1 L56.7,38.6 L52.5,34.4 L49,37.9 L45.5,34.4 L41.3,38.6 L44.8,42.2 L41.3,45.7 L45.5,49.9 L49,46.5 L52.5,50 L56.8,45.6 Z" id="Shape" sketch:type="MSShapeGroup"></path>
        </g>
    </g>
</svg>