<?xml version="1.0" encoding="utf-8"?>
<!-- Generator: Adobe Illustrator 17.0.0, SVG Export Plug-In . SVG Version: 6.00 Build 0)  -->
<!DOCTYPE svg PUBLIC "-//W3C//DTD SVG 1.1//EN" "http://www.w3.org/Graphics/SVG/1.1/DTD/svg11.dtd">
<svg version="1.1" id="Layer_1" xmlns:sketch="http://www.bohemiancoding.com/sketch/ns"
	 xmlns="http://www.w3.org/2000/svg" xmlns:xlink="http://www.w3.org/1999/xlink" x="0px" y="0px" width="64px" height="56px"
	 viewBox="0 0 64 56" enable-background="new 0 0 64 56" xml:space="preserve">
<title>Folder-next</title>
<desc>Created with Sketch.</desc>
<g id="Page-1" sketch:type="MSPage">
	<g id="Folder-next" transform="translate(1.000000, 1.000000)" sketch:type="MSLayerGroup">
		<path id="Shape_3_" sketch:type="MSShapeGroup" fill="none" stroke="#6B6C6E" stroke-width="2" d="M36.9,44h-34
			C1.3,44,0,42.7,0,41.1V3c0-1.6,1.3-2.9,2.9-2.9h14.8l9.2,9l-4-4h35.6c3.2,0,3.5,1.4,3.5,3v22v11c0,1.7-0.3,3-3.5,3h-1.4"/>
		<path id="Shape" sketch:type="MSShapeGroup" fill="none" stroke="#6B6C6E" stroke-width="2" d="M37.2,40h8.7"/>
		<path id="Shape_1_" sketch:type="MSShapeGroup" fill="none" stroke="#6B6C6E" stroke-width="2" d="M45.9,48h-8.8"/>
		<path id="Shape_2_" sketch:type="MSShapeGroup" fill="none" stroke="#6B6C6E" stroke-width="2" d="M44,39.3v-3.7
			c0-0.3,0.3-0.6,0.6-0.6l11.9,7.9c0.3,0.2,0.6,0.3,0.6,0.6v1.1c0,0.2-0.2,0.4-0.6,0.6l-12,7.9c-0.3,0-0.6-0.3-0.6-0.6v-4.6"/>
	</g>
</g>
</svg>
