<?xml version="1.0" encoding="UTF-8" standalone="no"?>
<svg width="62px" height="59px" viewBox="0 0 62 59" version="1.1" xmlns="http://www.w3.org/2000/svg" xmlns:xlink="http://www.w3.org/1999/xlink" xmlns:sketch="http://www.bohemiancoding.com/sketch/ns">
    <!-- Generator: Sketch 3.0.3 (7891) - http://www.bohemiancoding.com/sketch -->
    <title>Folder-share</title>
    <desc>Created with Sketch.</desc>
    <defs></defs>
    <g id="Page-1" stroke="none" stroke-width="1" fill="none" fill-rule="evenodd" sketch:type="MSPage">
        <g id="Folder-share" sketch:type="MSLayerGroup" transform="translate(0.000000, 1.000000)" stroke="#6B6C6E" stroke-width="2">
            <path d="M22.8,3 L51,3 C53.8,3 55,4.2 55,5.6 L55,10.1" id="Shape" sketch:type="MSShapeGroup"></path>
            <g id="Group" transform="translate(0.000000, 40.000000)" sketch:type="MSShapeGroup">
                <path d="M31,0 L31,7.9" id="Shape"></path>
                <path d="M0,13.9 L22.9,13.9" id="Shape"></path>
                <path d="M39.2,13.9 L62,13.9" id="Shape"></path>
                <path d="M37,10.9 L34.1,10.9 L34.1,9.9 C34.1,8.8 33.2,7.9 32.1,7.9 L29.9,7.9 C28.8,7.9 27.9,8.8 27.9,9.9 L27.9,10.9 L25,10.9 C23.9,10.9 23,11.8 23,12.8 L23,15 C23,16.1 23.9,16.9 25,16.9 L36.9,16.9 C38,16.9 38.9,16 38.9,15 L38.9,12.8 C39,11.8 38.1,10.9 37,10.9 L37,10.9 Z" id="Shape"></path>
            </g>
            <path d="M6,36.4 L6,2.6 C6,1.2 7.2,4.54747351e-13 8.6,4.54747351e-13 L20,4.54747351e-13 L26,6" id="Shape" sketch:type="MSShapeGroup"></path>
            <path d="M55,36.4 C55,37.8 53.8,39 52.4,39 L8.6,39 C7.2,39 6,37.8 6,36.4 L12,12.6 C12,11.2 13.2,10 14.6,10 L58.4,10 C59.8,10 61,11.2 61,12.6 L55,36.4 L55,36.4 Z" id="Shape" sketch:type="MSShapeGroup"></path>
        </g>
    </g>
</svg>