<?xml version="1.0" encoding="UTF-8" standalone="no"?>
<svg width="64px" height="52px" viewBox="0 0 64 52" version="1.1" xmlns="http://www.w3.org/2000/svg" xmlns:xlink="http://www.w3.org/1999/xlink" xmlns:sketch="http://www.bohemiancoding.com/sketch/ns">
    <!-- Generator: Sketch 3.0.3 (7891) - http://www.bohemiancoding.com/sketch -->
    <title>Folder-add</title>
    <desc>Created with Sketch.</desc>
    <defs></defs>
    <g id="Page-1" stroke="none" stroke-width="1" fill="none" fill-rule="evenodd" sketch:type="MSPage">
        <g id="Folder-add" sketch:type="MSLayerGroup" transform="translate(1.000000, 1.000000)" stroke="#6B6C6E" stroke-width="2">
            <path d="M39.9,45 L2.9,45 C1.3,45 0,43.7 0,42.1 L0,3 C0,1.4 1.3,0.1 2.9,0.1 L17.7,0.1 L26.9,9.1 L22.9,5 L58.5,5 C61.7,5 62,6.4 62,8.1 L62,30.2 L62,42.1 C62,43.8 61.7,45.2 58.5,45.2 L56.1,45.2" id="Shape" sketch:type="MSShapeGroup"></path>
            <path d="M51.1,49.9 L51.1,44.9 L56,44.9 L56,39 L51,39 L51,34 L45,34 L45,39 L40.1,39 L40.1,44.9 L45,44.9 L45,49.9 L51.1,49.9 Z" id="Shape" sketch:type="MSShapeGroup"></path>
        </g>
    </g>
</svg>