<?xml version="1.0" encoding="UTF-8" standalone="no"?>
<svg width="64px" height="46px" viewBox="0 0 64 46" version="1.1" xmlns="http://www.w3.org/2000/svg" xmlns:xlink="http://www.w3.org/1999/xlink" xmlns:sketch="http://www.bohemiancoding.com/sketch/ns">
    <!-- Generator: Sketch 3.0.3 (7891) - http://www.bohemiancoding.com/sketch -->
    <title>Folder-signal</title>
    <desc>Created with Sketch.</desc>
    <defs></defs>
    <g id="Page-1" stroke="none" stroke-width="1" fill="none" fill-rule="evenodd" sketch:type="MSPage">
        <g id="Folder-signal" sketch:type="MSLayerGroup" transform="translate(1.000000, 1.000000)" stroke="#6B6C6E" stroke-width="2">
            <path d="M26.5,9 L17.4,0 L2.9,0 C1.3,0 0,1.3 0,2.9 L0,41 C0,42.6 1.3,43.9 2.9,43.9 L58.6,43.9 C61.7,43.9 62,42.5 62,40.9 L62,7.9 C62,6.2 61.7,4.9 58.6,4.9 L22.6,4.9" id="Shape" sketch:type="MSShapeGroup"></path>
            <path d="M27,36 L22.5,36 C22.1,36 21.9,35.7 21.9,35.3 L21.9,31" id="Shape" sketch:type="MSShapeGroup"></path>
            <path d="M21,28 C25.8,28 30,31.9 30,37" id="Shape" sketch:type="MSShapeGroup"></path>
            <path d="M21,21 C29.4,21 36,28.1 36,37" id="Shape" sketch:type="MSShapeGroup"></path>
            <path d="M43,37 C43,24.3 33.2,14 21,14" id="Shape" sketch:type="MSShapeGroup"></path>
        </g>
    </g>
</svg>