<?xml version="1.0" encoding="UTF-8" standalone="no"?>
<svg width="64px" height="60px" viewBox="0 0 64 60" version="1.1" xmlns="http://www.w3.org/2000/svg" xmlns:xlink="http://www.w3.org/1999/xlink" xmlns:sketch="http://www.bohemiancoding.com/sketch/ns">
    <!-- Generator: Sketch 3.0.3 (7891) - http://www.bohemiancoding.com/sketch -->
    <title>Folder-download</title>
    <desc>Created with Sketch.</desc>
    <defs></defs>
    <g id="Page-1" stroke="none" stroke-width="1" fill="none" fill-rule="evenodd" sketch:type="MSPage">
        <g id="Folder-download" sketch:type="MSLayerGroup" transform="translate(1.000000, 1.000000)" stroke="#6B6C6E" stroke-width="2">
            <path d="M43.1,44 L2.9,44 C1.3,44 0,42.7 0,41.1 L0,3 C0,1.4 1.3,0.1 2.9,0.1 L17.7,0.1 L26.9,9.1 L22.9,5.1 L58.5,5.1 C61.7,5.1 62,6.5 62,8.1 L62,30.1 L62,41.1 C62,42.8 61.7,44.1 58.5,44.1 L51.2,44.1" id="Shape" sketch:type="MSShapeGroup"></path>
            <g id="Group" transform="translate(38.000000, 37.000000)" sketch:type="MSShapeGroup">
                <path d="M13,0.3 L13,8.8" id="Shape"></path>
                <path d="M5,8.8 L5,0" id="Shape"></path>
                <path d="M13.7,7 L17.4,7 C17.7,7 18,7.2 18,7.6 L10.2,19.5 C10,19.8 9.9,20.1 9.6,20.1 L8.5,20.1 C8.3,20.1 8.1,19.9 7.9,19.5 L1.13686838e-13,7.6 C1.13686838e-13,7.3 0.3,7 0.6,7 L4,7" id="Shape"></path>
            </g>
        </g>
    </g>
</svg>