<?xml version="1.0" encoding="UTF-8" standalone="no"?>
<svg width="64px" height="46px" viewBox="0 0 64 46" version="1.1" xmlns="http://www.w3.org/2000/svg" xmlns:xlink="http://www.w3.org/1999/xlink" xmlns:sketch="http://www.bohemiancoding.com/sketch/ns">
    <!-- Generator: Sketch 3.0.3 (7891) - http://www.bohemiancoding.com/sketch -->
    <title>Folder-open</title>
    <desc>Created with Sketch.</desc>
    <defs></defs>
    <g id="Page-1" stroke="none" stroke-width="1" fill="none" fill-rule="evenodd" sketch:type="MSPage">
        <g id="Folder-open" sketch:type="MSLayerGroup" transform="translate(1.000000, 1.000000)" stroke-width="2" stroke="#6B6C6E">
            <g id="Group" sketch:type="MSShapeGroup">
                <path d="M18.8,3 L50.6,3 C53.8,3 55.1,4.4 55.1,6 L55.1,10.7" id="Shape"></path>
                <path d="M0,41 L0,2.9 C0,1.3 1.3,0 2.9,0 L15.8,0 L22.6,6.8" id="Shape"></path>
            </g>
            <path d="M55.2,41 C55.2,42.6 53.9,43.9 52.3,43.9 L2.9,43.9 C1.3,43.9 0,42.6 0,41 L6.8,13.9 C6.8,12.3 8.1,11 9.7,11 L59.1,11 C60.7,11 62,12.3 62,13.9 L55.2,41 L55.2,41 Z" id="Shape" sketch:type="MSShapeGroup"></path>
        </g>
    </g>
</svg>