<?xml version="1.0" encoding="UTF-8" standalone="no"?>
<svg width="46px" height="64px" viewBox="0 0 46 64" version="1.1" xmlns="http://www.w3.org/2000/svg" xmlns:xlink="http://www.w3.org/1999/xlink" xmlns:sketch="http://www.bohemiancoding.com/sketch/ns">
    <!-- Generator: Sketch 3.0.3 (7891) - http://www.bohemiancoding.com/sketch -->
    <title>Game-boy</title>
    <desc>Created with Sketch.</desc>
    <defs></defs>
    <g id="Page-1" stroke="none" stroke-width="1" fill="none" fill-rule="evenodd" sketch:type="MSPage">
        <g id="Game-boy" sketch:type="MSLayerGroup" transform="translate(1.000000, 1.000000)" stroke="#6B6C6E" stroke-width="2">
            <path d="M44,60 C44,61.1 43.1,62 42,62 L2,62 C0.9,62 0,61.1 0,60 L0,2 C0,0.9 0.9,0 2,0 L42,0 C43.1,0 44,0.9 44,2 L44,60 L44,60 Z" id="Shape" sketch:type="MSShapeGroup"></path>
            <path d="M38,31 C38,32.1 37.1,33 36,33 L8,33 C6.9,33 6,32.1 6,31 L6,9 C6,7.9 6.9,7 8,7 L36,7 C37.1,7 38,7.9 38,9 L38,31 L38,31 Z" id="Shape" sketch:type="MSShapeGroup"></path>
            <path d="M12,42 L12,52" id="Shape" sketch:type="MSShapeGroup"></path>
            <path d="M7,47 L17,47" id="Shape" sketch:type="MSShapeGroup"></path>
            <circle id="Oval" sketch:type="MSShapeGroup" cx="35" cy="45" r="3"></circle>
            <circle id="Oval" sketch:type="MSShapeGroup" cx="28" cy="53" r="3"></circle>
        </g>
    </g>
</svg>