<?xml version="1.0" encoding="UTF-8" standalone="no"?>
<svg width="54px" height="63px" viewBox="0 0 54 63" version="1.1" xmlns="http://www.w3.org/2000/svg" xmlns:xlink="http://www.w3.org/1999/xlink" xmlns:sketch="http://www.bohemiancoding.com/sketch/ns">
    <!-- Generator: Sketch 3.0.3 (7891) - http://www.bohemiancoding.com/sketch -->
    <title>Gas-station</title>
    <desc>Created with Sketch.</desc>
    <defs></defs>
    <g id="Page-1" stroke="none" stroke-width="1" fill="none" fill-rule="evenodd" sketch:type="MSPage">
        <g id="Gas-station" sketch:type="MSLayerGroup" transform="translate(0.000000, 1.000000)" stroke="#6B6C6E" stroke-width="2">
            <path d="M0,61 L45,61" id="Shape" sketch:type="MSShapeGroup"></path>
            <path d="M50.6,19.5 C50.6,19.5 51.8,25.5 47.1,27.8" id="Shape" sketch:type="MSShapeGroup"></path>
            <path d="M39,12.1 L42,12.1 L42,50.1 L46,50.1 L46,23.4 L52,18 L54,18" id="Shape" sketch:type="MSShapeGroup"></path>
            <path d="M39,55.9 C39,57.1 38.1,58 36.9,58 L7,58 C5.9,58 4.9,57.1 4.9,55.9 L4.9,2.1 C4.9,0.9 5.8,0 7,0 L36.9,0 C38,0 39,0.9 39,2.1 L39,55.9 L39,55.9 Z" id="Shape" sketch:type="MSShapeGroup"></path>
            <path d="M35,20 C35,21.1 34.1,22 32.9,22 L11.1,22 C10,22 9,21.1 9,20 L9,12 C9,10.9 9.9,10 11.1,10 L32.9,10 C34,10 35,10.9 35,12 L35,20 L35,20 Z" id="Shape" sketch:type="MSShapeGroup"></path>
        </g>
    </g>
</svg>