<?xml version="1.0" encoding="UTF-8" standalone="no"?>
<svg width="64px" height="64px" viewBox="0 0 64 64" version="1.1" xmlns="http://www.w3.org/2000/svg" xmlns:xlink="http://www.w3.org/1999/xlink" xmlns:sketch="http://www.bohemiancoding.com/sketch/ns">
    <!-- Generator: Sketch 3.0.3 (7891) - http://www.bohemiancoding.com/sketch -->
    <title>Globe-pin-location</title>
    <desc>Created with Sketch.</desc>
    <defs></defs>
    <g id="Page-1" stroke="none" stroke-width="1" fill="none" fill-rule="evenodd" sketch:type="MSPage">
        <g id="Globe-pin-location" sketch:type="MSLayerGroup" transform="translate(1.000000, 1.000000)" stroke="#6B6C6E" stroke-width="2">
            <g id="Group" sketch:type="MSShapeGroup">
                <circle id="Oval" cx="31" cy="31" r="31"></circle>
                <path d="M32.1,0.2 C32.1,0.2 30,2 29,3 C28,4 26,4 27,5 C28,6 28,7 28,7 L27,8 C27,8 27,9 25,10 C23,11 23,10 22,11 C21,12 21,12 20,12 C19,12 19,13 18,13 C17,13 18,9 18,9 L20,8 L22,7 L23,7 C23,7 23,5 22,5 L21,5 C21,5 21,4 20,3 L19,2" id="Shape"></path>
                <path d="M10.4,8.2 L12,14 L11,16 C11,16 9,16 9,18 C9,20 8,18 9,20 C10,22 9,23 9,23 L9,24 L9,26 L6,26 C6,26 6,26 5,26 C4,26 4,26 3,27 C2,28 2,28 2,29 L2,30 L0,33" id="Shape"></path>
                <path d="M0.6,36.2 C1.6,37.2 5,37 5,37 C5,37 7,36 8,37 C9,38 9,40 9,40 L9,41 C9,41 11,44 12,44 L13,44 C13,44 14,45 15,45 C16,45 17,46 17,46 C17,46 18,49 17,49 C16,49 16,50 16,50 C16,50 16,54 18,55 C20,56 22,57 23,58 C24,59 25,58 25,59 C25,60 27,62 31,62" id="Shape"></path>
                <path d="M40,18 C40,17 41,15 42,15 L44,15 L48,11 C48,11 44,10 44,9 C44,8 44,7 45,6 C46,5 48,5 48,5" id="Shape"></path>
                <path d="M62,34 C62,34 59,31 59,32 C59,33 58,34 58,36 C58,38 57,41 57,41 L55,39 L56,34 L53,31 L51,31 C51,31 52,33 52,34 L52,38 C52,38 50,42 50,43 C50,44 49,43 48,45 C47,47 46,47 45,49 C44,51 42,52 41,54 C40,56 39,55 39,54 C39,53 37,51 38,50 C39,49 38,48 39,47 C40,46 41,46 40,45 C39,44 38,44 38,43 L38,39 C38,39 36,36 35,37 C34,38 33,39 33,39 L29,36 L31.6,29" id="Shape"></path>
            </g>
            <path d="M40,19.1 C40,23 35.4,31 34,31 C32.6,31 28,23 28,19.1 C28,15.7 30.7,13 34,13 C37.3,13 40,15.7 40,19.1 L40,19.1 Z" id="Shape" sketch:type="MSShapeGroup"></path>
            <circle id="Oval" sketch:type="MSShapeGroup" cx="34" cy="19" r="1"></circle>
        </g>
    </g>
</svg>