<?xml version="1.0" encoding="utf-8"?>
<!-- Generator: Adobe Illustrator 17.0.0, SVG Export Plug-In . SVG Version: 6.00 Build 0)  -->
<!DOCTYPE svg PUBLIC "-//W3C//DTD SVG 1.1//EN" "http://www.w3.org/Graphics/SVG/1.1/DTD/svg11.dtd">
<svg version="1.1" id="Layer_1" xmlns:sketch="http://www.bohemiancoding.com/sketch/ns"
	 xmlns="http://www.w3.org/2000/svg" xmlns:xlink="http://www.w3.org/1999/xlink" x="0px" y="0px" width="65px" height="53px"
	 viewBox="0 0 65 53" enable-background="new 0 0 65 53" xml:space="preserve">
<title>Hack</title>
<desc>Created with Sketch.</desc>
<g id="Page-1" sketch:type="MSPage">
	<g id="Hack" transform="translate(2.000000, 1.000000)" sketch:type="MSLayerGroup">
		<path id="Shape" sketch:type="MSShapeGroup" fill="none" stroke="#6B6C6E" stroke-width="2" d="M28.1,24.5l4.5,4.4l4.3,9.6
			c0.6,0.6,8.6,2.2,17.7-6.8s7.5-16.8,6.9-17.4l-9.8-4.2l-4.5-4.4"/>
		<path id="Shape_1_" sketch:type="MSShapeGroup" fill="none" stroke="#6B6C6E" stroke-width="2" d="M45.1,3.6L42,0.5
			c-0.6-0.6-1.5-0.7-2-0.2l-17.3,17c-0.5,0.5-0.4,1.4,0.2,2l3.1,3.1"/>
		<path id="Shape_2_" sketch:type="MSShapeGroup" fill="none" stroke="#6B6C6E" stroke-width="2" d="M48.6,7.1L50,5.7
			c0.8-0.8,0.9-1.9,0.3-2.5l-2.7-2.7C47-0.1,45.9,0,45.1,0.8l-1.4,1.4"/>
		<path id="Shape_3_" sketch:type="MSShapeGroup" fill="none" stroke="#6B6C6E" stroke-width="2" d="M24.6,21l-24,23.5
			c-0.8,0.8-0.9,1.9-0.3,2.5L3,49.7c0.6,0.6,1.7,0.5,2.5-0.3l24-23.5"/>
	</g>
</g>
</svg>
