<?xml version="1.0" encoding="UTF-8" standalone="no"?>
<svg width="64px" height="52px" viewBox="0 0 64 52" version="1.1" xmlns="http://www.w3.org/2000/svg" xmlns:xlink="http://www.w3.org/1999/xlink" xmlns:sketch="http://www.bohemiancoding.com/sketch/ns">
    <!-- Generator: Sketch 3.0.3 (7891) - http://www.bohemiancoding.com/sketch -->
    <title>Heart-add</title>
    <desc>Created with Sketch.</desc>
    <defs></defs>
    <g id="Page-1" stroke="none" stroke-width="1" fill="none" fill-rule="evenodd" sketch:type="MSPage">
        <g id="Heart-add" sketch:type="MSLayerGroup" transform="translate(1.000000, 1.000000)" stroke="#6B6C6E" stroke-width="2">
            <path d="M48,39 C55.3,32.2 62,23.2 62,15.4 C62,-6.2 28.1,-4.7 28.1,18.3" id="Shape" sketch:type="MSShapeGroup"></path>
            <path d="M31,7.7 C26.1,-3.2 0,-4 0,15.4 C0,30.6 25.4,50 31,50 C32.8,50 36.5,48.1 40.8,45" id="Shape" sketch:type="MSShapeGroup"></path>
            <path d="M47.1,49.9 L47.1,44.9 L52,44.9 L52,39 L47,39 L47,34 L41,34 L41,39 L36.1,39 L36.1,44.9 L41,44.9 L41,49.9 L47.1,49.9 Z" id="Shape" sketch:type="MSShapeGroup"></path>
        </g>
    </g>
</svg>