<?xml version="1.0" encoding="UTF-8" standalone="no"?>
<svg width="64px" height="46px" viewBox="0 0 64 46" version="1.1" xmlns="http://www.w3.org/2000/svg" xmlns:xlink="http://www.w3.org/1999/xlink" xmlns:sketch="http://www.bohemiancoding.com/sketch/ns">
    <!-- Generator: Sketch 3.0.3 (7891) - http://www.bohemiancoding.com/sketch -->
    <title>Humberger </title>
    <desc>Created with Sketch.</desc>
    <defs></defs>
    <g id="Page-1" stroke="none" stroke-width="1" fill="none" fill-rule="evenodd" sketch:type="MSPage">
        <g id="Humberger-" sketch:type="MSLayerGroup" transform="translate(1.000000, 1.000000)" stroke="#6B6C6E" stroke-width="2">
            <path d="M58.1,26 C55,36.3 53,44 31,44 C9,44 6.9,36.3 3.9,26" id="Shape" sketch:type="MSShapeGroup"></path>
            <path d="M3.9,18 C7.1,7.6 6,0 31,0 C56,0 54.9,7.6 58.1,18" id="Shape" sketch:type="MSShapeGroup"></path>
            <path d="M62,22 C62,24.2 61,26 58,26 L4,26 C1,26 0,24.2 0,22 L0,22 C0,19.8 1,18 4,18 L58,18 C61,18 62,19.8 62,22 L62,22 L62,22 Z" id="Shape" sketch:type="MSShapeGroup"></path>
            <path d="M3.9,18 C3.9,18 5,15 9,15 C13,15 18,13 20,13 C22,13 25,15 27,15 C29,15 33,13 39,13 C45,13 48,15 50,15 C52,15 55,12 59,18" id="Shape" sketch:type="MSShapeGroup"></path>
            <path d="M3.9,26 C3.9,26 5,30 9,30 C15,30 17,28 22,30 C26.7,31.9 25,32 33,32 C41,32 38,29 41,29 C44,29 46,30 49,30 C52,30 53.3,29 58.1,26" id="Shape" sketch:type="MSShapeGroup"></path>
        </g>
    </g>
</svg>