<?xml version="1.0" encoding="UTF-8" standalone="no"?>
<svg width="38px" height="64px" viewBox="0 0 38 64" version="1.1" xmlns="http://www.w3.org/2000/svg" xmlns:xlink="http://www.w3.org/1999/xlink" xmlns:sketch="http://www.bohemiancoding.com/sketch/ns">
    <!-- Generator: Sketch 3.0.3 (7891) - http://www.bohemiancoding.com/sketch -->
    <title>Ice-cream-1</title>
    <desc>Created with Sketch.</desc>
    <defs></defs>
    <g id="Page-1" stroke="none" stroke-width="1" fill="none" fill-rule="evenodd" sketch:type="MSPage">
        <g id="Ice-cream-1" sketch:type="MSLayerGroup" transform="translate(1.000000, 1.000000)" stroke="#6B6C6E" stroke-width="2">
            <path d="M10.7,5.2 C12.5,2 15.5,0 19,0 C24.5,0 29,5.3 29,11.8" id="Shape" sketch:type="MSShapeGroup"></path>
            <path d="M6.6,24.3 C3,23.4 0,18.9 0,14.4 C0,9.3 3.6,5.1 8,5.1 C9.7,5.1 11.2,5.7 12.5,6.7" id="Shape" sketch:type="MSShapeGroup"></path>
            <path d="M29,8.4 C33,9.3 36,13.5 36,18.5 C36,23.1 33.5,27 29.9,28.3" id="Shape" sketch:type="MSShapeGroup"></path>
            <path d="M17.7,62 C10.7,62 5.5,26.2 5.5,26.2 C5.5,25.2 6.3,24.5 7.2,24.5 C7.2,24.5 9,21.1 18.2,21.1 C27.3,21.1 29,24.5 29,24.5 C30,24.5 30.7,25.3 30.7,26.2 C30.8,26.2 24.7,62 17.7,62 L17.7,62 Z" id="Shape" sketch:type="MSShapeGroup"></path>
        </g>
    </g>
</svg>