<?xml version="1.0" encoding="utf-8"?>
<!-- Generator: Adobe Illustrator 17.0.0, SVG Export Plug-In . SVG Version: 6.00 Build 0)  -->
<!DOCTYPE svg PUBLIC "-//W3C//DTD SVG 1.1//EN" "http://www.w3.org/Graphics/SVG/1.1/DTD/svg11.dtd">
<svg version="1.1" id="Layer_1" xmlns:sketch="http://www.bohemiancoding.com/sketch/ns"
	 xmlns="http://www.w3.org/2000/svg" xmlns:xlink="http://www.w3.org/1999/xlink" x="0px" y="0px" width="64px" height="61px"
	 viewBox="0 0 64 61" enable-background="new 0 0 64 61" xml:space="preserve">
<title>Inbox-download</title>
<desc>Created with Sketch.</desc>
<g id="Page-1" sketch:type="MSPage">
	<g id="Inbox-download" transform="translate(2.000000, 0.000000)" sketch:type="MSLayerGroup">
		<path id="Shape_1_" sketch:type="MSShapeGroup" fill="none" stroke="#6B6C6E" stroke-width="2" d="M37,1h14c1.3,0,2.3,1,2.3,2.3
			L61,33.2"/>
		<path id="Shape_2_" sketch:type="MSShapeGroup" fill="none" stroke="#6B6C6E" stroke-width="2" d="M-0.1,33.3L8,3.3
			C8,2,9,1,10.3,1H24"/>
		<path id="Shape_3_" sketch:type="MSShapeGroup" fill="none" stroke="#6B6C6E" stroke-width="2" d="M5.1,25H56"/>
		<path id="Shape_4_" sketch:type="MSShapeGroup" fill="none" stroke="#6B6C6E" stroke-width="2" d="M6,19h18"/>
		<path id="Shape_5_" sketch:type="MSShapeGroup" fill="none" stroke="#6B6C6E" stroke-width="2" d="M8.1,13.1H20"/>
		<path id="Shape_6_" sketch:type="MSShapeGroup" fill="none" stroke="#6B6C6E" stroke-width="2" d="M37,19h17"/>
		<path id="Shape_7_" sketch:type="MSShapeGroup" fill="none" stroke="#6B6C6E" stroke-width="2" d="M41,14.1h12"/>
		<path id="Shape_8_" sketch:type="MSShapeGroup" fill="none" stroke="#6B6C6E" stroke-width="2" d="M10,7h8"/>
		<path id="Shape_9_" sketch:type="MSShapeGroup" fill="none" stroke="#6B6C6E" stroke-width="2" d="M43,8h9"/>
		<g id="Group" transform="translate(22.000000, 0.000000)" sketch:type="MSShapeGroup">
			<path id="Shape_10_" fill="none" stroke="#6B6C6E" stroke-width="2" d="M4.2,8H0.5C0.2,8-0.1,8.2-0.1,8.5l7.8,11.7
				c0.2,0.3,0.3,0.5,0.6,0.5h1.1c0.2,0,0.4-0.2,0.6-0.5l7.9-11.7c0-0.3-0.3-0.5-0.6-0.5h-3.2"/>
			<path id="Shape_11_" fill="none" stroke="#6B6C6E" stroke-width="2" d="M13,10V0"/>
			<path id="Shape_12_" fill="none" stroke="#6B6C6E" stroke-width="2" d="M5,10V0"/>
		</g>
		<path id="Shape" sketch:type="MSShapeGroup" fill="none" stroke="#6B6C6E" stroke-width="2" d="M61,57.7c0,1.3-1,2.3-2.3,2.3H2.2
			c-1.2,0-2.3-1-2.3-2.3V33.3c0-1.3,1-2.3,2.3-2.3h56.5c1.2,0,2.3,1,2.3,2.3V57.7L61,57.7z"/>
		<path id="Shape_13_" sketch:type="MSShapeGroup" fill="none" stroke="#6B6C6E" stroke-width="2" d="M40.8,46c0,3.3-4.4,6-9.9,6
			S21,49.3,21,46"/>
	</g>
</g>
</svg>
