<?xml version="1.0" encoding="utf-8"?>
<!-- Generator: Adobe Illustrator 17.0.0, SVG Export Plug-In . SVG Version: 6.00 Build 0)  -->
<!DOCTYPE svg PUBLIC "-//W3C//DTD SVG 1.1//EN" "http://www.w3.org/Graphics/SVG/1.1/DTD/svg11.dtd">
<svg version="1.1" id="Layer_1" xmlns:sketch="http://www.bohemiancoding.com/sketch/ns"
	 xmlns="http://www.w3.org/2000/svg" xmlns:xlink="http://www.w3.org/1999/xlink" x="0px" y="0px" width="64px" height="62px"
	 viewBox="0 0 64 62" enable-background="new 0 0 64 62" xml:space="preserve">
<title>Inbox-upload</title>
<desc>Created with Sketch.</desc>
<g id="Page-1" sketch:type="MSPage">
	<g id="Inbox-upload" transform="translate(2.000000, 1.000000)" sketch:type="MSLayerGroup">
		<path id="Shape_1_" sketch:type="MSShapeGroup" fill="none" stroke="#6B6C6E" stroke-width="2" d="M36,1h14.9
			c1.3,0,2.3,0.6,2.3,1.9L61,33.3"/>
		<path id="Shape_2_" sketch:type="MSShapeGroup" fill="none" stroke="#6B6C6E" stroke-width="2" d="M0.2,32.16l8-29.26
			C8.2,1.97,9,1,10.3,1h14.8"/>
		<path id="Shape_3_" sketch:type="MSShapeGroup" fill="none" stroke="#6B6C6E" stroke-width="2" d="M5.1,25h50.7"/>
		<path id="Shape_4_" sketch:type="MSShapeGroup" fill="none" stroke="#6B6C6E" stroke-width="2" d="M7,19h16"/>
		<path id="Shape_5_" sketch:type="MSShapeGroup" fill="none" stroke="#6B6C6E" stroke-width="2" d="M8,12.9h10"/>
		<path id="Shape_6_" sketch:type="MSShapeGroup" fill="none" stroke="#6B6C6E" stroke-width="2" d="M38,19h16"/>
		<path id="Shape_7_" sketch:type="MSShapeGroup" fill="none" stroke="#6B6C6E" stroke-width="2" d="M42,13h11"/>
		<path id="Shape_8_" sketch:type="MSShapeGroup" fill="none" stroke="#6B6C6E" stroke-width="2" d="M10,7h10"/>
		<path id="Shape_9_" sketch:type="MSShapeGroup" fill="none" stroke="#6B6C6E" stroke-width="2" d="M41,7h10"/>
		<g id="Group" transform="translate(22.000000, 0.000000)" sketch:type="MSShapeGroup">
			<path id="Shape_10_" fill="none" stroke="#6B6C6E" stroke-width="2" d="M13.7,12h3.7c0.3,0,0.6-0.2,0.6-0.5l-7.8-11
				C10,0.2,9.9,0,9.6,0H8.5C8.3,0,8.1,0.2,7.9,0.5L0,11.5C0,11.8,0.3,12,0.6,12H4"/>
			<path id="Shape_11_" fill="none" stroke="#6B6C6E" stroke-width="2" d="M5,10v10"/>
			<path id="Shape_12_" fill="none" stroke="#6B6C6E" stroke-width="2" d="M13,10v10"/>
		</g>
		<path id="Shape" sketch:type="MSShapeGroup" fill="none" stroke="#6B6C6E" stroke-width="2" d="M60.9,57.7c0,1.3-1,2.3-2.3,2.3
			H2.2c-1.2,0-2.3-1-2.3-2.3V33.3c0-1.3,1-2.3,2.3-2.3h56.4c1.2,0,2.3,1,2.3,2.3V57.7L60.9,57.7z"/>
		<path id="Shape_13_" sketch:type="MSShapeGroup" fill="none" stroke="#6B6C6E" stroke-width="2" d="M41,46c0,3.3-4.4,6-9.9,6
			S21,49.3,21,46"/>
	</g>
</g>
</svg>
