<?xml version="1.0" encoding="utf-8"?>
<!-- Generator: Adobe Illustrator 17.0.0, SVG Export Plug-In . SVG Version: 6.00 Build 0)  -->
<!DOCTYPE svg PUBLIC "-//W3C//DTD SVG 1.1//EN" "http://www.w3.org/Graphics/SVG/1.1/DTD/svg11.dtd">
<svg version="1.1" id="Layer_1" xmlns:sketch="http://www.bohemiancoding.com/sketch/ns"
	 xmlns="http://www.w3.org/2000/svg" xmlns:xlink="http://www.w3.org/1999/xlink" x="0px" y="0px" width="64px" height="62px"
	 viewBox="0 0 64 62" enable-background="new 0 0 64 62" xml:space="preserve">
<title>Inbox</title>
<desc>Created with Sketch.</desc>
<g id="Page-1" sketch:type="MSPage">
	<g id="Inbox" transform="translate(2.000000, 1.000000)" sketch:type="MSLayerGroup">
		<path id="Shape_2_" sketch:type="MSShapeGroup" fill="none" stroke="#6B6C6E" stroke-width="2" d="M0.3,31.9L8.1,2.3
			C8.1,1,9.1,0,10.4,0h40.7c1.3,0,2.3,1,2.3,2.3l7.5,30.3"/>
		<path id="Shape_3_" sketch:type="MSShapeGroup" fill="none" stroke="#6B6C6E" stroke-width="2" d="M5.1,24h50.8"/>
		<path id="Shape_4_" sketch:type="MSShapeGroup" fill="none" stroke="#6B6C6E" stroke-width="2" d="M6.9,18h47.2"/>
		<path id="Shape_5_" sketch:type="MSShapeGroup" fill="none" stroke="#6B6C6E" stroke-width="2" d="M8,12.1h45"/>
		<path id="Shape_6_" sketch:type="MSShapeGroup" fill="none" stroke="#6B6C6E" stroke-width="2" d="M10,5.9h41.2"/>
		<path id="Shape" sketch:type="MSShapeGroup" fill="none" stroke="#6B6C6E" stroke-width="2" d="M61,57.7c0,1.3-1,2.3-2.3,2.3H2.2
			c-1.2,0-2.3-1-2.3-2.3V33.4c0-1.3,1-2.3,2.3-2.3h56.5c1.2,0,2.3,1,2.3,2.3V57.7L61,57.7z"/>
		<path id="Shape_1_" sketch:type="MSShapeGroup" fill="none" stroke="#6B6C6E" stroke-width="2" d="M40.4,45c0,3.4-4.4,6.1-9.9,6.1
			s-9.9-2.7-9.9-6.1"/>
	</g>
</g>
</svg>
