<?xml version="1.0" encoding="UTF-8" standalone="no"?>
<svg width="64px" height="39px" viewBox="0 0 64 39" version="1.1" xmlns="http://www.w3.org/2000/svg" xmlns:xlink="http://www.w3.org/1999/xlink" xmlns:sketch="http://www.bohemiancoding.com/sketch/ns">
    <!-- Generator: Sketch 3.0.3 (7891) - http://www.bohemiancoding.com/sketch -->
    <title>Iron</title>
    <desc>Created with Sketch.</desc>
    <defs></defs>
    <g id="Page-1" stroke="none" stroke-width="1" fill="none" fill-rule="evenodd" sketch:type="MSPage">
        <g id="Iron" sketch:type="MSLayerGroup" transform="translate(1.000000, 2.000000)" stroke="#6B6C6E" stroke-width="2">
            <path d="M54,28 L56,28 C57.1,28 58,27.1 58,26 L58,7.2 L54.2,3.3 L20,8 C20,8 0,31.9 0,33 L0,34 C0,35.1 0.9,36 2,36 L47.9,36 C47.9,32 49,28 54,28 L54,28 Z" id="Shape" sketch:type="MSShapeGroup"></path>
            <path d="M0,33 L47.6,33" id="Shape" sketch:type="MSShapeGroup"></path>
            <path d="M51,16 C51,17.1 50.1,17 49,17 L21.4,17 C21.2,17.2 26,11 26,11 L49,8 C50.1,8 51,7.7 51,8.8 L51,16 L51,16 Z" id="Shape" sketch:type="MSShapeGroup"></path>
            <path d="M33,15 L41,15" id="Shape" sketch:type="MSShapeGroup"></path>
            <path d="M56.4,4.8 L59.1,1.7 C59.1,1.7 61.9,-1.5 61.9,0.6 C61.9,2.8 62,20.1 62,20.1" id="Shape" sketch:type="MSShapeGroup"></path>
        </g>
    </g>
</svg>