<?xml version="1.0" encoding="utf-8"?>
<!-- Generator: Adobe Illustrator 17.0.0, SVG Export Plug-In . SVG Version: 6.00 Build 0)  -->
<!DOCTYPE svg PUBLIC "-//W3C//DTD SVG 1.1//EN" "http://www.w3.org/Graphics/SVG/1.1/DTD/svg11.dtd">
<svg version="1.1" id="Layer_1" xmlns:sketch="http://www.bohemiancoding.com/sketch/ns"
	 xmlns="http://www.w3.org/2000/svg" xmlns:xlink="http://www.w3.org/1999/xlink" x="0px" y="0px" width="39px" height="63px"
	 viewBox="0 0 39 63" enable-background="new 0 0 39 63" xml:space="preserve">
<title>Joystick</title>
<desc>Created with Sketch.</desc>
<g id="Page-1" sketch:type="MSPage">
	<g id="Joystick" transform="translate(2.000000, 1.000000)" sketch:type="MSLayerGroup">
		<path id="Shape_3_" sketch:type="MSShapeGroup" fill="none" stroke="#6B6C6E" stroke-width="2" d="M14.9,3V0H19v3"/>
		<path id="Shape" sketch:type="MSShapeGroup" fill="none" stroke="#6B6C6E" stroke-width="2" d="M24,48c7.9,0.4,11.8,0.3,11.8,7.8
			c0,6.9-35.9,6.9-35.9,0c0-7.6,4-7.5,12.1-7.8"/>
		<path id="Shape_2_" sketch:type="MSShapeGroup" fill="none" stroke="#6B6C6E" stroke-width="2" d="M14.9,43.4v-7.7
			c0-4.7-3-8.8-3-11.8c0-10.1-3-11.6-3-15.6c0-2,3-3.4,3-3.4c0-1.1,0.9-2,2-2H19c1.1,0,2,0.9,2,2c0,0-0.5,17.1,2,20.9
			c2.6,4-2,16.5-2,16.5v1.2"/>
		<path id="Shape_1_" sketch:type="MSShapeGroup" fill="none" stroke="#6B6C6E" stroke-width="2" d="M9,47.9c0-2.7,4-5,9-5
			s9,2.2,9,5"/>
	</g>
</g>
</svg>
