<?xml version="1.0" encoding="utf-8"?>
<!-- Generator: Adobe Illustrator 17.0.0, SVG Export Plug-In . SVG Version: 6.00 Build 0)  -->
<!DOCTYPE svg PUBLIC "-//W3C//DTD SVG 1.1//EN" "http://www.w3.org/Graphics/SVG/1.1/DTD/svg11.dtd">
<svg version="1.1" id="Layer_1" xmlns:sketch="http://www.bohemiancoding.com/sketch/ns"
	 xmlns="http://www.w3.org/2000/svg" xmlns:xlink="http://www.w3.org/1999/xlink" x="0px" y="0px" width="64px" height="64px"
	 viewBox="0.5 -13.5 64 64" enable-background="new 0.5 -13.5 64 64" xml:space="preserve">
<title>Keyboard</title>
<desc>Created with Sketch.</desc>
<path id="Shape" sketch:type="MSShapeGroup" fill="none" stroke="#6B6C6E" stroke-width="2" d="M63.5,33.5c0,1.1-0.9,2-2,2h-58
	c-1.1,0-2-0.9-2-2v-35c0-1.1,0.9-2,2-2h58c1.1,0,2,0.9,2,2V33.5L63.5,33.5z"/>
<path id="Shape_2_" sketch:type="MSShapeGroup" fill="none" stroke="#6B6C6E" stroke-width="2" d="M11.5,19.5v15"/>
<path id="Shape_3_" sketch:type="MSShapeGroup" fill="none" stroke="#6B6C6E" stroke-width="2" d="M25.5,19.5v15"/>
<path id="Shape_4_" sketch:type="MSShapeGroup" fill="none" stroke="#6B6C6E" stroke-width="2" d="M39.5,19.5v15"/>
<path id="Shape_5_" sketch:type="MSShapeGroup" fill="none" stroke="#6B6C6E" stroke-width="2" d="M53.5,19.5v15"/>
<polyline id="Rectangle-path_2_" sketch:type="MSShapeGroup" fill="none" stroke="#6B6C6E" stroke-width="2" points="14.5,-2.5 
	14.5,20.5 8.5,20.5 8.5,-2.5 ">
</polyline>
<polyline id="Rectangle-path_3_" sketch:type="MSShapeGroup" fill="none" stroke="#6B6C6E" stroke-width="2" points="28.5,-2.5 
	28.5,20.5 22.5,20.5 22.5,-2.5 ">
</polyline>
<polyline id="Rectangle-path_4_" sketch:type="MSShapeGroup" fill="none" stroke="#6B6C6E" stroke-width="2" points="42.5,-2.5 
	42.5,20.5 36.5,20.5 36.5,-2.5 ">
</polyline>
<polyline id="Rectangle-path_5_" sketch:type="MSShapeGroup" fill="none" stroke="#6B6C6E" stroke-width="2" points="56.5,-2.5 
	56.5,20.5 50.5,20.5 50.5,-2.5 ">
</polyline>
</svg>
