<?xml version="1.0" encoding="UTF-8" standalone="no"?>
<svg width="51px" height="64px" viewBox="0 0 51 64" version="1.1" xmlns="http://www.w3.org/2000/svg" xmlns:xlink="http://www.w3.org/1999/xlink" xmlns:sketch="http://www.bohemiancoding.com/sketch/ns">
    <!-- Generator: Sketch 3.0.3 (7891) - http://www.bohemiancoding.com/sketch -->
    <title>Lamp-desk</title>
    <desc>Created with Sketch.</desc>
    <defs></defs>
    <g id="Page-1" stroke="none" stroke-width="1" fill="none" fill-rule="evenodd" sketch:type="MSPage">
        <g id="Lamp-desk" sketch:type="MSLayerGroup" transform="translate(1.000000, 1.000000)" stroke="#6B6C6E" stroke-width="2">
            <path d="M49,28.4 C49,29.9 47.8,31 46.4,31 L2.7,31 C1.2,31 0.1,29.8 0.1,28.4 L8,2.7 C8,1.2 9.2,0.1 10.6,0.1 L38.4,0.1 C39.9,0.1 41,1.3 41,2.7 L49,28.4 L49,28.4 Z" id="Shape" sketch:type="MSShapeGroup"></path>
            <path d="M24,32.1 L24,59.2" id="Shape" sketch:type="MSShapeGroup"></path>
            <path d="M5,63 C5,60.8 13.5,59 24,59 C34.5,59 43,60.8 43,63" id="Shape" sketch:type="MSShapeGroup"></path>
            <path d="M33,31 L33,43" id="Shape" sketch:type="MSShapeGroup"></path>
        </g>
    </g>
</svg>