<?xml version="1.0" encoding="UTF-8" standalone="no"?>
<svg width="64px" height="50px" viewBox="0 0 64 50" version="1.1" xmlns="http://www.w3.org/2000/svg" xmlns:xlink="http://www.w3.org/1999/xlink" xmlns:sketch="http://www.bohemiancoding.com/sketch/ns">
    <!-- Generator: Sketch 3.0.3 (7891) - http://www.bohemiancoding.com/sketch -->
    <title>Laptop</title>
    <desc>Created with Sketch.</desc>
    <defs></defs>
    <g id="Page-1" stroke="none" stroke-width="1" fill="none" fill-rule="evenodd" sketch:type="MSPage">
        <g id="Laptop" sketch:type="MSLayerGroup" transform="translate(1.000000, 1.000000)" stroke="#6B6C6E" stroke-width="2">
            <path d="M56,27 C56,28.1 55.1,29 54,29 L8,29 C6.9,29 6,28.1 6,27 L6,2 C6,0.9 6.9,0 8,0 L54,0 C55.1,0 56,0.9 56,2 L56,26.5 L56,27 L56,27 Z" id="Shape" sketch:type="MSShapeGroup"></path>
            <path d="M57,31 C57,29.9 56.1,29 55,29 L7,29 C5.9,29 5,29.9 5,31 L0,46 C0,47.1 0.9,48 2,48 L60,48 C61.1,48 62,47.1 62,46 L57,31 L57,31 Z" id="Shape" sketch:type="MSShapeGroup"></path>
            <path d="M2,42.9 L61,42.9" id="Shape" sketch:type="MSShapeGroup"></path>
            <path d="M52.1,24 C52.1,25.1 51.2,26 50.1,26 L12,26 C10.9,26 10,25.1 10,24 L10,6 C10,4.9 10.9,4 12,4 L50,4 C51.1,4 52,4.9 52,6 L52.1,24 L52.1,24 Z" id="Shape" sketch:type="MSShapeGroup"></path>
            <path d="M22,39 L40,39" id="Shape" sketch:type="MSShapeGroup"></path>
            <path d="M17.2,39 L20,39" id="Shape" sketch:type="MSShapeGroup"></path>
            <path d="M12.1,39 L15,39" id="Shape" sketch:type="MSShapeGroup"></path>
            <path d="M7,39 L10,39" id="Shape" sketch:type="MSShapeGroup"></path>
            <path d="M9.2,35 L12,35" id="Shape" sketch:type="MSShapeGroup"></path>
            <path d="M14,35 L17,35" id="Shape" sketch:type="MSShapeGroup"></path>
            <path d="M19,35 L22,35" id="Shape" sketch:type="MSShapeGroup"></path>
            <path d="M24,35 L27,35" id="Shape" sketch:type="MSShapeGroup"></path>
            <path d="M29,35 L32,35" id="Shape" sketch:type="MSShapeGroup"></path>
            <path d="M34,35 L37,35" id="Shape" sketch:type="MSShapeGroup"></path>
            <path d="M39,35 L42,35" id="Shape" sketch:type="MSShapeGroup"></path>
            <path d="M45,35 L48,35" id="Shape" sketch:type="MSShapeGroup"></path>
            <path d="M50,35 L53,35" id="Shape" sketch:type="MSShapeGroup"></path>
            <path d="M47,32 L50,32" id="Shape" sketch:type="MSShapeGroup"></path>
            <path d="M42,32 L45,32" id="Shape" sketch:type="MSShapeGroup"></path>
            <path d="M37,32 L40,32" id="Shape" sketch:type="MSShapeGroup"></path>
            <path d="M32,32 L35,32" id="Shape" sketch:type="MSShapeGroup"></path>
            <path d="M27,32 L30,32" id="Shape" sketch:type="MSShapeGroup"></path>
            <path d="M22,32 L25,32" id="Shape" sketch:type="MSShapeGroup"></path>
            <path d="M17.1,32 L20,32" id="Shape" sketch:type="MSShapeGroup"></path>
            <path d="M12,32 L15,32" id="Shape" sketch:type="MSShapeGroup"></path>
            <path d="M42,39 L44.8,39" id="Shape" sketch:type="MSShapeGroup"></path>
            <path d="M47,39 L49.9,39" id="Shape" sketch:type="MSShapeGroup"></path>
            <path d="M52,39 L55,39" id="Shape" sketch:type="MSShapeGroup"></path>
            <path d="M26.5,9.2 L17.3,18.4" id="Shape" sketch:type="MSShapeGroup"></path>
            <path d="M20.4,9.2 L14.7,13.8" id="Shape" sketch:type="MSShapeGroup"></path>
        </g>
    </g>
</svg>