<?xml version="1.0" encoding="utf-8"?>
<!-- Generator: Adobe Illustrator 17.0.0, SVG Export Plug-In . SVG Version: 6.00 Build 0)  -->
<!DOCTYPE svg PUBLIC "-//W3C//DTD SVG 1.1//EN" "http://www.w3.org/Graphics/SVG/1.1/DTD/svg11.dtd">
<svg version="1.1" id="Layer_1" xmlns:sketch="http://www.bohemiancoding.com/sketch/ns"
	 xmlns="http://www.w3.org/2000/svg" xmlns:xlink="http://www.w3.org/1999/xlink" x="0px" y="0px" width="52px" height="64px"
	 viewBox="0 0 52 64" enable-background="new 0 0 52 64" xml:space="preserve">
<title>Lifer-jacket</title>
<desc>Created with Sketch.</desc>
<g id="Page-1" sketch:type="MSPage">
	<g id="Lifer-jacket" transform="translate(1.000000, 2.000000)" sketch:type="MSLayerGroup">
		<g id="Shape-_x2B_-Shape" sketch:type="MSShapeGroup">
			<path id="Shape_6_" fill="none" stroke="#6B6C6E" stroke-width="2" stroke-linejoin="round" d="M39.8,0c0,0-8.2,18-14.3,18
				S10.2,0,10.2,0s-2,1.3-2,2c0,11.1,1.3,20.9-8.2,25.7V59c0,1.1,0.9,2,2,2h46c1.1,0,2-0.9,2-2V28.1C40.8,24,41.8,13.6,41.8,2
				C41.8,1.3,39.8,0,39.8,0L39.8,0z"/>
			<path id="Shape_7_" fill="none" stroke="#6B6C6E" stroke-width="2" stroke-linejoin="round" d="M25,53v9"/>
		</g>
		<path id="Shape" sketch:type="MSShapeGroup" fill="none" stroke="#6B6C6E" stroke-width="2" stroke-linejoin="round" d="M10.2,0
			c0,0,8.2,6,15.3,6s14.3-6,14.3-6"/>
		<path id="Shape_1_" sketch:type="MSShapeGroup" fill="none" stroke="#6B6C6E" stroke-width="2" stroke-linejoin="round" d="M0,50
			h20.5"/>
		<path id="Shape_2_" sketch:type="MSShapeGroup" fill="none" stroke="#6B6C6E" stroke-width="2" stroke-linejoin="round" d="
			M30.6,50H50"/>
		<path id="Shape_3_" sketch:type="MSShapeGroup" fill="none" stroke="#6B6C6E" stroke-width="2" stroke-linejoin="round" d="M0,35
			h20.5"/>
		<path id="Shape_4_" sketch:type="MSShapeGroup" fill="none" stroke="#6B6C6E" stroke-width="2" stroke-linejoin="round" d="
			M30.6,35H50"/>
		<path id="Shape_5_" sketch:type="MSShapeGroup" fill="none" stroke="#6B6C6E" stroke-width="2" stroke-linejoin="round" d="
			M25,18.4v14.5"/>
		<path id="Shape_8_" sketch:type="MSShapeGroup" fill="none" stroke="#6B6C6E" stroke-width="2" stroke-linejoin="round" d="M25,38
			v10.2"/>
		
			<rect id="Rectangle-path" x="20" y="48" sketch:type="MSShapeGroup" fill="none" stroke="#6B6C6E" stroke-width="2" stroke-linejoin="round" width="10" height="5">
		</rect>
		
			<rect id="Rectangle-path_1_" x="20" y="33" sketch:type="MSShapeGroup" fill="none" stroke="#6B6C6E" stroke-width="2" stroke-linejoin="round" width="10" height="5">
		</rect>
	</g>
</g>
</svg>
