<?xml version="1.0" encoding="utf-8"?>
<!-- Generator: Adobe Illustrator 17.0.0, SVG Export Plug-In . SVG Version: 6.00 Build 0)  -->
<!DOCTYPE svg PUBLIC "-//W3C//DTD SVG 1.1//EN" "http://www.w3.org/Graphics/SVG/1.1/DTD/svg11.dtd">
<svg version="1.1" id="Layer_1" xmlns:sketch="http://www.bohemiancoding.com/sketch/ns"
	 xmlns="http://www.w3.org/2000/svg" xmlns:xlink="http://www.w3.org/1999/xlink" x="0px" y="0px" width="65px" height="65px"
	 viewBox="0 0 65 65" enable-background="new 0 0 65 65" xml:space="preserve">
<title>Lifer-saver</title>
<desc>Created with Sketch.</desc>
<g id="Page-1" sketch:type="MSPage">
	<g id="Lifer-saver" transform="translate(2.000000, 2.000000)" sketch:type="MSLayerGroup">
		<path id="Shape" sketch:type="MSShapeGroup" fill="none" stroke="#6B6C6E" stroke-width="2" stroke-linejoin="round" d="M16.6,3.1
			c8.696-4.1,18.722-4.3,27.725,0"/>
		<path id="Shape_1_" sketch:type="MSShapeGroup" fill="none" stroke="#6B6C6E" stroke-width="2" stroke-linejoin="round" d="
			M3.1,45.2c-4.1-8.5-4.2-18.5-0.2-27"/>
		<path id="Shape_2_" sketch:type="MSShapeGroup" fill="none" stroke="#6B6C6E" stroke-width="2" stroke-linejoin="round" d="
			M43.7,59c-8.3,4-18.1,4-26.4,0.1"/>
		<path id="Shape_3_" sketch:type="MSShapeGroup" fill="none" stroke="#6B6C6E" stroke-width="2" stroke-linejoin="round" d="
			M59.1,17.8c4,8.6,3.6,18.8,0.1,27.6"/>
		<path id="Shape_8_" sketch:type="MSShapeGroup" fill="none" stroke="#6B6C6E" stroke-width="2" stroke-linejoin="round" d="
			M15.1,35.3c-0.5-1.4-0.7-2.9-0.7-4.4c0-1.1,0.1-2.1,0.3-3.1"/>
		<path id="Shape_9_" sketch:type="MSShapeGroup" fill="none" stroke="#6B6C6E" stroke-width="2" stroke-linejoin="round" d="
			M34.2,47.1c-1,0.3-2.1,0.4-3.2,0.4c-1.3,0-2.6-0.2-3.9-0.6"/>
		<path id="Shape_10_" sketch:type="MSShapeGroup" fill="none" stroke="#6B6C6E" stroke-width="2" stroke-linejoin="round" d="
			M47.2,28.1c0.2,0.9,0.3,1.8,0.3,2.8c0,1.4-0.2,2.8-0.6,4.2"/>
		<path id="Shape_11_" sketch:type="MSShapeGroup" fill="none" stroke="#6B6C6E" stroke-width="2" stroke-linejoin="round" d="
			M25.9,15.3c1.6-0.5,3.3-0.8,5.1-0.8c1.4,0,2.8,0.2,4.2,0.5"/>
		<path id="Shape_4_" sketch:type="MSShapeGroup" fill="none" stroke="#6B6C6E" stroke-width="2" stroke-linejoin="round" d="
			M41.4,21.2c2.3,2.3,3.7,5.1,4.4,8l15.5-13.4c-1.6-3-3.6-5.9-6.2-8.4c-2.5-2.5-5.4-4.6-8.4-6.2L33.3,16.8
			C36.3,17.5,39.1,18.9,41.4,21.2L41.4,21.2z"/>
		<path id="Shape_5_" sketch:type="MSShapeGroup" fill="none" stroke="#6B6C6E" stroke-width="2" stroke-linejoin="round" d="
			M20.8,41.9c-2.1-2.1-4-4.5-4.5-7.4L1.1,47.7c1.4,2.9,3.4,5.6,5.8,8s5,4.2,7.8,5.7l13.2-15.3C25.1,45.6,23,44,20.8,41.9L20.8,41.9z
			"/>
		<path id="Shape_6_" sketch:type="MSShapeGroup" fill="none" stroke="#6B6C6E" stroke-width="2" stroke-linejoin="round" d="
			M61,47.8L45.3,34.2c-0.6,2.9-1.9,5.6-4.1,7.7c-2.2,2.2-4.9,3.5-7.7,4.1l13.6,15.7c2.9-1.5,5.6-3.4,8-5.8
			C57.6,53.4,59.5,50.7,61,47.8L61,47.8z"/>
		<path id="Shape_7_" sketch:type="MSShapeGroup" fill="none" stroke="#6B6C6E" stroke-width="2" stroke-linejoin="round" d="
			M20.7,21.3c2.2-2.2,4.6-3.8,7.4-4.4L14.9,1.6C12,3.1,9.3,5,6.9,7.5c-2.4,2.4-4.3,5.1-5.8,8l15.3,13.3C17,25.9,18.6,23.5,20.7,21.3
			L20.7,21.3z"/>
	</g>
</g>
</svg>
