<?xml version="1.0" encoding="utf-8"?>
<!-- Generator: Adobe Illustrator 17.0.0, SVG Export Plug-In . SVG Version: 6.00 Build 0)  -->
<!DOCTYPE svg PUBLIC "-//W3C//DTD SVG 1.1//EN" "http://www.w3.org/Graphics/SVG/1.1/DTD/svg11.dtd">
<svg version="1.1" id="Layer_1" xmlns:sketch="http://www.bohemiancoding.com/sketch/ns"
	 xmlns="http://www.w3.org/2000/svg" xmlns:xlink="http://www.w3.org/1999/xlink" x="0px" y="0px" width="65px" height="55px"
	 viewBox="0 0 65 55" enable-background="new 0 0 65 55" xml:space="preserve">
<title>Line-chart-decrease</title>
<desc>Created with Sketch.</desc>
<g id="Page-1" sketch:type="MSPage">
	<g id="Line-chart-decrease" transform="translate(2.000000, 1.000000)" sketch:type="MSLayerGroup">
		<path id="Shape" sketch:type="MSShapeGroup" fill="none" stroke="#6B6C6E" stroke-width="2" d="M61,42.1H9.9V1c0-0.5-0.4-1-1-1h-3
			c-0.5,0-1,0.4-1,1v41.1h-4c-0.5,0-1,0.4-1,1v3c0,0.5,0.4,1,1,1h4v4c0,0.5,0.4,1,1,1h3c0.5,0,1-0.4,1-1v-4H61c0.5,0,1-0.4,1-1v-3
			C62,42.5,61.5,42.1,61,42.1L61,42.1z"/>
		<path id="Shape_1_" sketch:type="MSShapeGroup" fill="none" stroke="#6B6C6E" stroke-width="2" d="M55,28l-9.5-9.5"/>
		<path id="Shape_2_" sketch:type="MSShapeGroup" fill="none" stroke="#6B6C6E" stroke-width="2" d="M41,18l-7.5,9.5"/>
		<path id="Shape_3_" sketch:type="MSShapeGroup" fill="none" stroke="#6B6C6E" stroke-width="2" d="M29,27L17.5,15.5"/>
		<circle id="Oval" sketch:type="MSShapeGroup" fill="none" stroke="#6B6C6E" stroke-width="2" cx="57" cy="30" r="3">
		</circle>
		<circle id="Oval_1_" sketch:type="MSShapeGroup" fill="none" stroke="#6B6C6E" stroke-width="2" cx="43" cy="16" r="3">
		</circle>
		<circle id="Oval_2_" sketch:type="MSShapeGroup" fill="none" stroke="#6B6C6E" stroke-width="2" cx="31" cy="30" r="3">
		</circle>
		<circle id="Oval_3_" sketch:type="MSShapeGroup" fill="none" stroke="#6B6C6E" stroke-width="2" cx="16" cy="14" r="3">
		</circle>
	</g>
</g>
</svg>
