<?xml version="1.0" encoding="UTF-8" standalone="no"?>
<svg width="44px" height="64px" viewBox="0 0 44 64" version="1.1" xmlns="http://www.w3.org/2000/svg" xmlns:xlink="http://www.w3.org/1999/xlink" xmlns:sketch="http://www.bohemiancoding.com/sketch/ns">
    <!-- Generator: Sketch 3.0.3 (7891) - http://www.bohemiancoding.com/sketch -->
    <title>Lock-unlock</title>
    <desc>Created with Sketch.</desc>
    <defs></defs>
    <g id="Page-1" stroke="none" stroke-width="1" fill="none" fill-rule="evenodd" sketch:type="MSPage">
        <g id="Lock-unlock" sketch:type="MSLayerGroup" transform="translate(1.000000, 1.000000)" stroke="#6B6C6E" stroke-width="2">
            <path d="M42,60 C42,61.1 41.1,62 40,62 L2,62 C0.9,62 0,61.1 0,60 L0,30 C0,28.9 0.9,28 2,28 L40,28 C41.1,28 42,28.9 42,30 L42,60 L42,60 Z" id="Shape" sketch:type="MSShapeGroup"></path>
            <path d="M40,18 C40,7.8 31.7,0 21.5,0 C11.3,0 3,8.3 3,18.5 L3,27" id="Shape" sketch:type="MSShapeGroup"></path>
            <path d="M25.2,43 C25.2,44.2 24.6,45.4 23.7,46.1 C23.3,46.5 26,50.4 26.1,54.1 L16.1,54.2 C16.1,50.5 18.9,46.5 18.5,46.1 C17.6,45.4 17.1,44.3 17.1,43.1 C17.1,40.9 18.9,39.1 21.2,39.1 C23.5,39.1 25.2,40.8 25.2,43 L25.2,43 Z" id="Shape" sketch:type="MSShapeGroup"></path>
        </g>
    </g>
</svg>