<?xml version="1.0" encoding="utf-8"?>
<!-- Generator: Adobe Illustrator 17.0.0, SVG Export Plug-In . SVG Version: 6.00 Build 0)  -->
<!DOCTYPE svg PUBLIC "-//W3C//DTD SVG 1.1//EN" "http://www.w3.org/Graphics/SVG/1.1/DTD/svg11.dtd">
<svg version="1.1" id="Layer_1" xmlns:sketch="http://www.bohemiancoding.com/sketch/ns"
	 xmlns="http://www.w3.org/2000/svg" xmlns:xlink="http://www.w3.org/1999/xlink" x="0px" y="0px" width="44px" height="65px"
	 viewBox="0 0 44 65" enable-background="new 0 0 44 65" xml:space="preserve">
<title>Lock</title>
<desc>Created with Sketch.</desc>
<g id="Page-1" sketch:type="MSPage">
	<g id="Lock" transform="translate(1.000000, 2.000000)" sketch:type="MSLayerGroup">
		<path id="Shape_1_" sketch:type="MSShapeGroup" fill="none" stroke="#6B6C6E" stroke-width="2" d="M3,27v-8.3
			C3,8.8,11.1-0.1,21-0.1s18,8.8,18,18.8v9.2"/>
		<path id="Shape" sketch:type="MSShapeGroup" fill="none" stroke="#6B6C6E" stroke-width="2" d="M42,60c0,1.1-0.9,2-2,2H2
			c-1.1,0-2-0.9-2-2V29c0-1.1,0.9-2,2-2h38c1.1,0,2,0.9,2,2V60L42,60z"/>
		<path id="Shape_2_" sketch:type="MSShapeGroup" fill="none" stroke="#6B6C6E" stroke-width="2" d="M25.2,43c0,1.2-0.6,2.4-1.5,3.1
			c-0.4,0.4,2.3,4.3,2.4,8l-10,0.1c0-3.7,2.8-7.7,2.4-8.1c-0.9-0.7-1.4-1.8-1.4-3c0-2.2,1.8-4,4.1-4C23.3,39,25.2,40.8,25.2,43
			L25.2,43z"/>
	</g>
</g>
</svg>
