<?xml version="1.0" encoding="UTF-8" standalone="no"?>
<svg width="64px" height="50px" viewBox="0 0 64 50" version="1.1" xmlns="http://www.w3.org/2000/svg" xmlns:xlink="http://www.w3.org/1999/xlink" xmlns:sketch="http://www.bohemiancoding.com/sketch/ns">
    <!-- Generator: Sketch 3.0.3 (7891) - http://www.bohemiancoding.com/sketch -->
    <title>Loud-speaker</title>
    <desc>Created with Sketch.</desc>
    <defs></defs>
    <g id="Page-1" stroke="none" stroke-width="1" fill="none" fill-rule="evenodd" sketch:type="MSPage">
        <g id="Loud-speaker" sketch:type="MSLayerGroup" transform="translate(1.000000, 1.000000)" stroke="#6B6C6E" stroke-width="2">
            <path d="M16,34.6 L16,39.6 L28.5,43.6 L30.5,38.6" id="Shape" sketch:type="MSShapeGroup"></path>
            <path d="M62,44.5 C62,46 60.8,47.3 59.2,47.3 L4.2,30.6 C2.7,30.6 0,35.1 0,31 L0,16.3 C0,12.3 2.6,16.7 4.2,16.7 L59.2,0 C60.7,0 62,1.2 62,2.8 L62,44.5 L62,44.5 Z" id="Shape" sketch:type="MSShapeGroup"></path>
            <path d="M7,16.3 L7,21" id="Shape" sketch:type="MSShapeGroup"></path>
            <path d="M7,31.6 L7,26" id="Shape" sketch:type="MSShapeGroup"></path>
            <path d="M56,1.4 L56,8.8" id="Shape" sketch:type="MSShapeGroup"></path>
            <path d="M56,45.9 L56,38" id="Shape" sketch:type="MSShapeGroup"></path>
        </g>
    </g>
</svg>