<?xml version="1.0" encoding="UTF-8" standalone="no"?>
<svg width="64px" height="63px" viewBox="0 0 64 63" version="1.1" xmlns="http://www.w3.org/2000/svg" xmlns:xlink="http://www.w3.org/1999/xlink" xmlns:sketch="http://www.bohemiancoding.com/sketch/ns">
    <!-- Generator: Sketch 3.0.3 (7891) - http://www.bohemiancoding.com/sketch -->
    <title>Magnifier-zoom-out</title>
    <desc>Created with Sketch.</desc>
    <defs></defs>
    <g id="Page-1" stroke="none" stroke-width="1" fill="none" fill-rule="evenodd" sketch:type="MSPage">
        <g id="Magnifier-zoom-out" sketch:type="MSLayerGroup" transform="translate(1.000000, 1.000000)" stroke="#6B6C6E" stroke-width="2">
            <path d="M39.1,39.5 C35,43.5 29.3,46 23.1,46 C10.4,46 0.1,35.7 0.1,23 C0.1,10.3 10.4,0 23.1,0 C35.8,0 46.1,10.3 46.1,23 C46.1,27.4 44.9,31.5 42.7,35 L42.8,35.1 L61.7,54 C62.5,54.8 61.6,56.9 59.8,58.7 L59.8,58.7 C58,60.5 55.8,61.4 55.1,60.6 L36.1,41.6" id="Shape" sketch:type="MSShapeGroup"></path>
            <path d="M15.2,23 L31.1,23" id="Shape" sketch:type="MSShapeGroup"></path>
        </g>
    </g>
</svg>