<?xml version="1.0" encoding="UTF-8" standalone="no"?>
<svg width="64px" height="53px" viewBox="0 0 64 53" version="1.1" xmlns="http://www.w3.org/2000/svg" xmlns:xlink="http://www.w3.org/1999/xlink" xmlns:sketch="http://www.bohemiancoding.com/sketch/ns">
    <!-- Generator: Sketch 3.0.3 (7891) - http://www.bohemiancoding.com/sketch -->
    <title>Mail-download</title>
    <desc>Created with Sketch.</desc>
    <defs></defs>
    <g id="Page-1" stroke="none" stroke-width="1" fill="none" fill-rule="evenodd" sketch:type="MSPage">
        <g id="Mail-download" sketch:type="MSLayerGroup" transform="translate(1.000000, 1.000000)" stroke-width="2" stroke="#6B6C6E">
            <g id="Group" sketch:type="MSShapeGroup">
                <path d="M60,38 C61.1,38 62,37.1 62,36 L62,2 C62,0.9 61.1,0 60,0 L2,0 C0.9,0 0,0.9 0,2 L0,36 C0,37.1 0.9,38 2,38 L43,38" id="Shape"></path>
                <path d="M62,2 L31,24 C22.6,17.8 0,2 0,2" id="Shape"></path>
                <path d="M53,30 L37,20" id="Shape"></path>
                <path d="M1,37 L25,20" id="Shape"></path>
            </g>
            <g id="Group" transform="translate(42.000000, 31.000000)" sketch:type="MSShapeGroup">
                <path d="M13.7,7 L17.4,7 C17.7,7 18,7.2 18,7.6 L10.2,19.4 C10,19.7 9.9,20 9.6,20 L8.5,20 C8.3,20 8.1,19.8 7.9,19.4 L0,7.6 C0,7.3 0.3,7 0.6,7 L4.5,7" id="Shape"></path>
                <path d="M5,0.1 L5,9" id="Shape"></path>
                <path d="M13,0.1 L13,9" id="Shape"></path>
            </g>
        </g>
    </g>
</svg>