<?xml version="1.0" encoding="UTF-8" standalone="no"?>
<svg width="64px" height="47px" viewBox="0 0 64 47" version="1.1" xmlns="http://www.w3.org/2000/svg" xmlns:xlink="http://www.w3.org/1999/xlink" xmlns:sketch="http://www.bohemiancoding.com/sketch/ns">
    <!-- Generator: Sketch 3.0.3 (7891) - http://www.bohemiancoding.com/sketch -->
    <title>Mail-checked</title>
    <desc>Created with Sketch.</desc>
    <defs></defs>
    <g id="Page-1" stroke="none" stroke-width="1" fill="none" fill-rule="evenodd" sketch:type="MSPage">
        <g id="Mail-checked" sketch:type="MSLayerGroup" transform="translate(1.000000, 1.000000)" stroke-width="2" stroke="#6B6C6E">
            <g id="Group" sketch:type="MSShapeGroup">
                <path d="M55,37.9 L60,37.9 C61.1,37.9 62,37 62,35.9 L62,2 C62,0.9 61.1,0 60,0 L2,0 C0.9,0 0,0.9 0,2 L0,35.9 C0,37 0.9,37.9 2,37.9 L39,37.9" id="Shape"></path>
                <path d="M0,2 C0,2 22.6,17.8 31,24 L31,24 L62,2.1" id="Shape"></path>
                <path d="M53,29.9 L37,19.9" id="Shape"></path>
                <path d="M1,36.9 L25,19.9" id="Shape"></path>
            </g>
            <path d="M59.1,32 L56.3,29.2 C55.9,28.8 55.3,28.8 54.9,29.2 L47.1,37 L43.6,33.5 C43.2,33.1 42.6,33.1 42.2,33.5 L39.4,36.3 C39,36.7 39,37.3 39.4,37.7 L46.5,44.7 C46.9,45.1 47.5,45.1 47.9,44.7 L59.2,33.4 C59.5,33 59.5,32.4 59.1,32 L59.1,32 Z" id="Shape" sketch:type="MSShapeGroup"></path>
        </g>
    </g>
</svg>