<?xml version="1.0" encoding="utf-8"?>
<!-- Generator: Adobe Illustrator 17.0.0, SVG Export Plug-In . SVG Version: 6.00 Build 0)  -->
<!DOCTYPE svg PUBLIC "-//W3C//DTD SVG 1.1//EN" "http://www.w3.org/Graphics/SVG/1.1/DTD/svg11.dtd">
<svg version="1.1" id="Layer_1" xmlns:sketch="http://www.bohemiancoding.com/sketch/ns"
	 xmlns="http://www.w3.org/2000/svg" xmlns:xlink="http://www.w3.org/1999/xlink" x="0px" y="0px" width="62px" height="49px"
	 viewBox="0 0 62 49" enable-background="new 0 0 62 49" xml:space="preserve">
<title>Mail-forward</title>
<desc>Created with Sketch.</desc>
<g id="Page-1" sketch:type="MSPage">
	<g id="Mail-forward" transform="translate(1.000000, 1.000000)" sketch:type="MSLayerGroup">
		<g id="Group_1_" sketch:type="MSShapeGroup">
			<path id="Shape_3_" fill="none" stroke="#6B6C6E" stroke-width="2" d="M58,38c1.1,0,2-0.9,2-2V2c0-1.1-0.9-2-2-2H2
				C0.9,0,0,0.9,0,2v34c0,1.1,0.9,2,2,2h36"/>
			<path id="Shape_4_" fill="none" stroke="#6B6C6E" stroke-width="2" d="M60,2c0-1.1-30.1,22-30.1,22l0,0C21.4,17.8,0,1.1,0,2"/>
			<path id="Shape_5_" fill="none" stroke="#6B6C6E" stroke-width="2" d="M47.2,29.8L35.9,20"/>
			<path id="Shape_6_" fill="none" stroke="#6B6C6E" stroke-width="2" d="M1,37l22.8-17"/>
		</g>
		<g id="Group" transform="translate(38.000000, 29.000000)" sketch:type="MSShapeGroup">
			<path id="Shape" fill="none" stroke="#6B6C6E" stroke-width="2" d="M0.2,13L9,12.9"/>
			<path id="Shape_1_" fill="none" stroke="#6B6C6E" stroke-width="2" d="M8.9,4.9L0.1,5"/>
			<path id="Shape_2_" fill="none" stroke="#6B6C6E" stroke-width="2" d="M7.7,13.6v3.7c0,0.3,0.3,0.6,0.6,0.6l12.1-7.8
				C20.7,9.9,21,9.8,21,9.5V8.4c0-0.2-0.2-0.4-0.6-0.6L8.3-0.1C8-0.1,7.7,0.2,7.7,0.5v3.8"/>
		</g>
	</g>
</g>
</svg>
