<?xml version="1.0" encoding="UTF-8" standalone="no"?>
<svg width="64px" height="46px" viewBox="0 0 64 46" version="1.1" xmlns="http://www.w3.org/2000/svg" xmlns:xlink="http://www.w3.org/1999/xlink" xmlns:sketch="http://www.bohemiancoding.com/sketch/ns">
    <!-- Generator: Sketch 3.0.3 (7891) - http://www.bohemiancoding.com/sketch -->
    <title>Mail-upload</title>
    <desc>Created with Sketch.</desc>
    <defs></defs>
    <g id="Page-1" stroke="none" stroke-width="1" fill="none" fill-rule="evenodd" sketch:type="MSPage">
        <g id="Mail-upload" sketch:type="MSLayerGroup" transform="translate(1.000000, 1.000000)" stroke-width="2" stroke="#6B6C6E">
            <g id="Group" sketch:type="MSShapeGroup">
                <path d="M60,38 C61.1,38 62,37.1 62,36 L62,2 C62,0.9 61.1,0 60,0 L2,0 C0.9,0 0,0.9 0,2 L0,36 C0,37.1 0.9,38 2,38 L43,38" id="Shape"></path>
                <path d="M62,2 L31,24 C22.6,17.8 0,2 0,2" id="Shape"></path>
                <path d="M48.4,27.1 L37,20" id="Shape"></path>
                <path d="M1,37 L25,20" id="Shape"></path>
            </g>
            <g id="Group" transform="translate(42.000000, 25.000000)" sketch:type="MSShapeGroup">
                <path d="M4.3,13 L0.6,13 C0.3,13 -1.13686838e-13,12.8 -1.13686838e-13,12.4 L7.8,0.6 C8,0.3 8.1,0 8.4,0 L9.5,0 C9.7,0 9.9,0.2 10.1,0.6 L18,12.4 C18,12.7 17.7,13 17.4,13 L13.5,13" id="Shape"></path>
                <path d="M13,19.9 L13,11" id="Shape"></path>
                <path d="M5,19.9 L5,11" id="Shape"></path>
            </g>
        </g>
    </g>
</svg>