<?xml version="1.0" encoding="UTF-8" standalone="no"?>
<svg width="64px" height="50px" viewBox="0 0 64 50" version="1.1" xmlns="http://www.w3.org/2000/svg" xmlns:xlink="http://www.w3.org/1999/xlink" xmlns:sketch="http://www.bohemiancoding.com/sketch/ns">
    <!-- Generator: Sketch 3.0.3 (7891) - http://www.bohemiancoding.com/sketch -->
    <title>Mail-backward</title>
    <desc>Created with Sketch.</desc>
    <defs></defs>
    <g id="Page-1" stroke="none" stroke-width="1" fill="none" fill-rule="evenodd" sketch:type="MSPage">
        <g id="Mail-backward" sketch:type="MSLayerGroup" transform="translate(1.000000, 1.000000)" stroke-width="2" stroke="#6B6C6E">
            <g id="Group" sketch:type="MSShapeGroup">
                <g>
                    <path d="M60,38.1 C61.1,38.1 62,37.2 62,36.1 L62,2.1 C62,1 61.1,0.1 60,0.1 L2,0.1 C0.9,0.1 0,1 0,2.1 L0,36.1 C0,37.2 0.9,38.1 2,38.1 L40.8,38.1" id="Shape"></path>
                    <path d="M62,2.1 L31,24.1 C22.6,17.9 0,2.1 0,2.1" id="Shape"></path>
                    <path d="M51,29.9 L37,20.1" id="Shape"></path>
                    <path d="M1,37.1 L25,20.1" id="Shape"></path>
                </g>
                <g transform="translate(40.000000, 29.000000)">
                    <path d="M20,5 L11,5.1" id="Shape"></path>
                    <path d="M11.1,13.1 L20,13" id="Shape"></path>
                    <path d="M13.1,4.4 L13.1,0.7 C13.1,0.4 12.9,0.1 12.5,0.1 L0.6,7.9 C0.3,8.1 0,8.2 0,8.5 L0,9.6 C0,9.8 0.2,10 0.6,10.2 L12.5,18.1 C12.8,18.1 13.1,17.8 13.1,17.5 L13.1,13.1" id="Shape"></path>
                </g>
            </g>
        </g>
    </g>
</svg>