<?xml version="1.0" encoding="utf-8"?>
<!-- Generator: Adobe Illustrator 17.0.0, SVG Export Plug-In . SVG Version: 6.00 Build 0)  -->
<!DOCTYPE svg PUBLIC "-//W3C//DTD SVG 1.1//EN" "http://www.w3.org/Graphics/SVG/1.1/DTD/svg11.dtd">
<svg version="1.1" id="Layer_1" xmlns:sketch="http://www.bohemiancoding.com/sketch/ns"
	 xmlns="http://www.w3.org/2000/svg" xmlns:xlink="http://www.w3.org/1999/xlink" x="0px" y="0px" width="64px" height="64px"
	 viewBox="0 0 64 64" enable-background="new 0 0 64 64" xml:space="preserve">
<title>Male</title>
<desc>Created with Sketch.</desc>
<g id="Page-1" sketch:type="MSPage">
	<g id="Male" transform="translate(2.000000, 1.000000)" sketch:type="MSLayerGroup">
		<path id="Shape" sketch:type="MSShapeGroup" fill="none" stroke="#6B6C6E" stroke-width="2" d="M44.8,21.8
			C48,26,49.9,31.3,49.9,37c0,13.8-11.2,25-25,25s-25-11.2-25-25s11.2-25,25-25c4.3,0,8.6,1.3,12.2,3.2"/>
		<circle id="Oval" sketch:type="MSShapeGroup" fill="none" stroke="#6B6C6E" stroke-width="2" cx="25" cy="37" r="16">
		</circle>
		<g id="Group" transform="translate(35.000000, 0.000000)" sketch:type="MSShapeGroup">
			<path id="Shape_1_" fill="none" stroke="#6B6C6E" stroke-width="2" d="M17.9,15.5l3,3c0.3,0.3,0.7,0.3,0.9,0l3.4-16.1
				c0.1-0.4,0.2-0.7,0-0.9l-0.9-0.9c-0.2-0.2-0.5-0.1-0.9,0L7.2,3.9C6.9,4.2,7,4.6,7.2,4.8l3.3,3.3"/>
			<path id="Shape_2_" fill="none" stroke="#6B6C6E" stroke-width="2" d="M12.3,6.8L-0.4,18.3"/>
			<path id="Shape_3_" fill="none" stroke="#6B6C6E" stroke-width="2" d="M18.8,13.3L6.2,24.9"/>
		</g>
	</g>
</g>
</svg>
