<?xml version="1.0" encoding="UTF-8" standalone="no"?>
<svg width="64px" height="38px" viewBox="0 0 64 38" version="1.1" xmlns="http://www.w3.org/2000/svg" xmlns:xlink="http://www.w3.org/1999/xlink" xmlns:sketch="http://www.bohemiancoding.com/sketch/ns">
    <!-- Generator: Sketch 3.0.3 (7891) - http://www.bohemiancoding.com/sketch -->
    <title>Mask</title>
    <desc>Created with Sketch.</desc>
    <defs></defs>
    <g id="Page-1" stroke="none" stroke-width="1" fill="none" fill-rule="evenodd" sketch:type="MSPage">
        <g id="Mask" sketch:type="MSLayerGroup" transform="translate(1.000000, 2.000000)" stroke="#6B6C6E" stroke-width="2">
            <path d="M52.9,0.3 C47.6,-1.3 38.4,4.7 31.2,4.7 L31.1,4.7 C23.9,4.7 14.5,-1.4 9.2,0.3 C1.5,2.7 0.2,-2 0.2,2.2 C0.2,2.2 -1.6,25.8 12.6,29.1 C20.6,30.2 26.4,34.9 31.1,34.9 L31.2,34.9 C35.9,34.8 39.9,30.7 49.8,29 C62.7,27.3 62,2.1 62,2.1 C62,-2 60.6,2.7 52.9,0.3 L52.9,0.3 Z" id="Shape" sketch:type="MSShapeGroup"></path>
            <path d="M23.5,13.8 C22.1,12.6 21.5,12.2 19.2,11.4 C14.2,9.6 7,10.2 7,10.2 C7,10.2 9.7,18.2 14.6,20 C17.7,21.1 20.7,21.3 22.8,20.6 C24.1,20.2 25,20.9 25.7,21.2 C26.3,21.4 26.3,16.2 23.5,13.8 L23.5,13.8 Z" id="Shape" sketch:type="MSShapeGroup"></path>
            <path d="M38.4,13.8 C39.8,12.6 40.4,12.2 42.7,11.4 C47.7,9.6 54.9,10.2 54.9,10.2 C54.9,10.2 52.3,18.2 47.3,20 C44.2,21.1 41.2,21.3 39.1,20.6 C37.8,20.2 36.9,20.9 36.2,21.2 C35.6,21.4 35.6,16.2 38.4,13.8 L38.4,13.8 Z" id="Shape" sketch:type="MSShapeGroup"></path>
        </g>
    </g>
</svg>