<?xml version="1.0" encoding="UTF-8" standalone="no"?>
<svg width="65px" height="46px" viewBox="0 0 65 46" version="1.1" xmlns="http://www.w3.org/2000/svg" xmlns:xlink="http://www.w3.org/1999/xlink" xmlns:sketch="http://www.bohemiancoding.com/sketch/ns">
    <!-- Generator: Sketch 3.0.3 (7891) - http://www.bohemiancoding.com/sketch -->
    <title>Meat</title>
    <desc>Created with Sketch.</desc>
    <defs></defs>
    <g id="Page-1" stroke="none" stroke-width="1" fill="none" fill-rule="evenodd" sketch:type="MSPage">
        <g id="Meat" sketch:type="MSLayerGroup" transform="translate(1.000000, 1.000000)" stroke="#6B6C6E" stroke-width="2">
            <path d="M35.1,43 C14.1,42 1.8,29.5 0.2,20.7 C-0.5,17 1.4,13.8 5.2,12.4 C8,11.3 10.4,11.1 12.8,11.1 L14.2,11.1 C17.8,11.1 22.5,11.3 30.2,5.5 C35,1.9 39.8,2.27373675e-13 44.4,2.27373675e-13 C49.1,2.27373675e-13 53.5,2 56.7,5.7 C60.6,10 62.6,16.2 61.9,21.9 C61,31.1 56.1,44 35.1,43 L35.1,43 Z" id="Shape" sketch:type="MSShapeGroup"></path>
            <path d="M37.4,39.1 L35.3,39.1 C16.3,38.2 5.7,27.5 4.4,20.3 C4,18 5.3,16.7 6.7,16.2 C8.8,15.4 10.8,15.1 12.9,15.1 L14.3,15.1 C18.3,15.1 23.9,15.3 32.7,8.7 C36.8,5.6 40.8,4 44.5,4 C48,4 51.4,5.5 53.9,8.3 C57,11.8 58.7,16.8 58.2,21.4 C56.7,33.3 50,39.1 37.4,39.1 L37.4,39.1 Z" id="Shape" sketch:type="MSShapeGroup"></path>
            <circle id="Oval" sketch:type="MSShapeGroup" cx="17" cy="23" r="3"></circle>
        </g>
    </g>
</svg>