<?xml version="1.0" encoding="utf-8"?>
<!-- Generator: Adobe Illustrator 17.0.0, SVG Export Plug-In . SVG Version: 6.00 Build 0)  -->
<!DOCTYPE svg PUBLIC "-//W3C//DTD SVG 1.1//EN" "http://www.w3.org/Graphics/SVG/1.1/DTD/svg11.dtd">
<svg version="1.1" id="Layer_1" xmlns:sketch="http://www.bohemiancoding.com/sketch/ns"
	 xmlns="http://www.w3.org/2000/svg" xmlns:xlink="http://www.w3.org/1999/xlink" x="0px" y="0px" width="43px" height="64px"
	 viewBox="0 0 43 64" enable-background="new 0 0 43 64" xml:space="preserve">
<title>Medicine</title>
<desc>Created with Sketch.</desc>
<g id="Page-1" sketch:type="MSPage">
	<g id="Medicine" transform="translate(1.000000, 1.000000)" sketch:type="MSLayerGroup">
		<path id="Shape_4_" sketch:type="MSShapeGroup" fill="none" stroke="#6B6C6E" stroke-width="2" stroke-linejoin="round" d="
			M16.102,55.791L24.8,46.8c0.9-0.9,0.9-2.3,0-3.2l0,0c-0.9-0.9-2.3-0.9-3.2,0L12,53.3c-1.2,1.2-3.1,1.2-4.3,0l0,0
			c-1.2-1.2-1.2-3.1,0-4.3l5.1-5.2L37.6,19c3.7-4.1,2.9-12.5,0-15.4l0,0c-2.9-2.9-10.6,0-10.6,0s-5.8,1.5-7.8-0.5
			c-1-1,2.7-6.2,17.7-0.1"/>
		<path id="Shape_2_" sketch:type="MSShapeGroup" fill="none" stroke="#6B6C6E" stroke-width="2" stroke-linejoin="round" d="
			M16.1,33.5v22.8"/>
		<path id="Shape" sketch:type="MSShapeGroup" fill="none" stroke="#6B6C6E" stroke-width="2" stroke-linejoin="round" d="
			M16.7,33.3h-1.4C14.5,33.3,0,18.5,0,18.5c0-0.8,0.6-1.4,1.4-1.4h29.2c0.8,0,1.4,0.65,1.4,1.4C32,18.5,17.5,33.3,16.7,33.3
			L16.7,33.3z"/>
		<path id="Shape_3_" sketch:type="MSShapeGroup" fill="none" stroke="#6B6C6E" stroke-width="2" stroke-linejoin="round" d="
			M16.1,56.175L23.9,62H7.8l8.3-5.795V56.175z"/>
	</g>
</g>
</svg>
