<?xml version="1.0" encoding="utf-8"?>
<!-- Generator: Adobe Illustrator 17.0.0, SVG Export Plug-In . SVG Version: 6.00 Build 0)  -->
<!DOCTYPE svg PUBLIC "-//W3C//DTD SVG 1.1//EN" "http://www.w3.org/Graphics/SVG/1.1/DTD/svg11.dtd">
<svg version="1.1" id="Layer_1" xmlns:sketch="http://www.bohemiancoding.com/sketch/ns"
	 xmlns="http://www.w3.org/2000/svg" xmlns:xlink="http://www.w3.org/1999/xlink" x="0px" y="0px" width="34px" height="62px"
	 viewBox="0 0 34 62" enable-background="new 0 0 34 62" xml:space="preserve">
<title>Medicine-pot</title>
<desc>Created with Sketch.</desc>
<g id="Page-1" sketch:type="MSPage">
	<g id="Medicine-pot" transform="translate(1.000000, 1.000000)" sketch:type="MSLayerGroup">
		<path id="Shape" sketch:type="MSShapeGroup" fill="none" stroke="#6B6C6E" stroke-width="2" d="M22.1,8c0,0,9.9,12.7,9.9,13.8V58
			c0,1.1-0.9,2-2,2H2c-1.1,0-2-0.9-2-2V21.8C0,20.7,10,8,10,8"/>
		<path id="Shape_1_" sketch:type="MSShapeGroup" fill="none" stroke="#6B6C6E" stroke-width="2" d="M12.1,8h-5c-1.1,0-2-0.9-2-2V2
			c0-1.1,0.9-2,2-2H25c1.1,0,2,0.9,2,2v4c0,1.1-0.9,2-2,2h-4.9"/>
		<path id="Shape_2_" sketch:type="MSShapeGroup" fill="none" stroke="#6B6C6E" stroke-width="2" d="M0,29h32"/>
		<path id="Shape_3_" sketch:type="MSShapeGroup" fill="none" stroke="#6B6C6E" stroke-width="2" d="M0,53h32"/>
		<path id="Shape_4_" sketch:type="MSShapeGroup" fill="none" stroke="#6B6C6E" stroke-width="2" stroke-linejoin="round" d="
			M18.1,47.9v-5H23v-4h-4.9v-5h-4v5H9v4h5v5H18.1z"/>
	</g>
</g>
</svg>
