<?xml version="1.0" encoding="UTF-8" standalone="no"?>
<svg width="64px" height="54px" viewBox="0 0 64 54" version="1.1" xmlns="http://www.w3.org/2000/svg" xmlns:xlink="http://www.w3.org/1999/xlink" xmlns:sketch="http://www.bohemiancoding.com/sketch/ns">
    <!-- Generator: Sketch 3.0.3 (7891) - http://www.bohemiancoding.com/sketch -->
    <title>Message-text</title>
    <desc>Created with Sketch.</desc>
    <defs></defs>
    <g id="Page-1" stroke="none" stroke-width="1" fill="none" fill-rule="evenodd" sketch:type="MSPage">
        <g id="Message-text" sketch:type="MSLayerGroup" transform="translate(1.000000, 1.000000)" stroke="#6B6C6E" stroke-width="2">
            <path d="M18.2,39.3 C16.8,38.9 15.4,38.4 14.2,37.8 C5.7,34.2 0.1,27.8 0.1,20.5 C0.1,9.2 13.7,0 30.6,0 C47.5,0 61.1,9.2 61.1,20.5 C61.1,31.8 47.5,41 30.6,41 C29.8,41 28.9,41 28.1,40.9 L28.1,40.9 L8.2,50 L14.2,37.9" id="Shape" sketch:type="MSShapeGroup"></path>
            <path d="M16.2,13 L34,13" id="Shape" sketch:type="MSShapeGroup"></path>
            <path d="M16.2,20 L44,20" id="Shape" sketch:type="MSShapeGroup"></path>
            <path d="M16.2,27 L47,27" id="Shape" sketch:type="MSShapeGroup"></path>
        </g>
    </g>
</svg>