<?xml version="1.0" encoding="utf-8"?>
<!-- Generator: Adobe Illustrator 17.0.0, SVG Export Plug-In . SVG Version: 6.00 Build 0)  -->
<!DOCTYPE svg PUBLIC "-//W3C//DTD SVG 1.1//EN" "http://www.w3.org/Graphics/SVG/1.1/DTD/svg11.dtd">
<svg version="1.1" id="Layer_1" xmlns:sketch="http://www.bohemiancoding.com/sketch/ns"
	 xmlns="http://www.w3.org/2000/svg" xmlns:xlink="http://www.w3.org/1999/xlink" x="0px" y="0px" width="48px" height="63px"
	 viewBox="0 0 48 63" enable-background="new 0 0 48 63" xml:space="preserve">
<title>Microphone-1</title>
<desc>Created with Sketch.</desc>
<g id="Page-1" sketch:type="MSPage">
	<g id="Microphone-1" transform="translate(2.000000, 1.000000)" sketch:type="MSLayerGroup">
		<path id="Shape_3_" sketch:type="MSShapeGroup" fill="none" stroke="#6B6C6E" stroke-width="2" stroke-linecap="round" d="
			M3.4,41.6c0,0-8.2,12.8-0.8,18c12.1,8.5,24.5-24.1,38.1-18.2"/>
		<path id="Shape_1_" sketch:type="MSShapeGroup" fill="none" stroke="#6B6C6E" stroke-width="2" d="M24.3,10.5
			C18,16.8,4.8,33.2,2.3,40.1L5,42.8c6.9-2.5,23.3-15.7,29.6-22"/>
		<path id="Shape_2_" sketch:type="MSShapeGroup" fill="none" stroke="#6B6C6E" stroke-width="2" d="M25,20.1l-4.4,4.4"/>
		<path id="Shape" sketch:type="MSShapeGroup" fill="none" stroke="#6B6C6E" stroke-width="2" d="M27.2,3.1c-2,2-3,4.6-3.1,7.3
			c2.1,4,6.2,8.3,10.5,10.5c2.6,0,5.3-1,7.3-3.1c4.1-4.1,4.1-10.7,0-14.7C37.9-1,31.3-1,27.2,3.1L27.2,3.1z"/>
	</g>
</g>
</svg>
