<?xml version="1.0" encoding="utf-8"?>
<!-- Generator: Adobe Illustrator 17.0.0, SVG Export Plug-In . SVG Version: 6.00 Build 0)  -->
<!DOCTYPE svg PUBLIC "-//W3C//DTD SVG 1.1//EN" "http://www.w3.org/Graphics/SVG/1.1/DTD/svg11.dtd">
<svg version="1.1" id="Layer_1" xmlns:sketch="http://www.bohemiancoding.com/sketch/ns"
	 xmlns="http://www.w3.org/2000/svg" xmlns:xlink="http://www.w3.org/1999/xlink" x="0px" y="0px" width="48px" height="64px"
	 viewBox="0 0 48 64" enable-background="new 0 0 48 64" xml:space="preserve">
<title>Microscope</title>
<desc>Created with Sketch.</desc>
<g id="Page-1" sketch:type="MSPage">
	<g id="Microscope" transform="translate(1.000000, 2.000000)" sketch:type="MSLayerGroup">
		<g id="Group" transform="translate(10.000000, 0.000000)" sketch:type="MSShapeGroup">
			<path id="Shape_4_" fill="none" stroke="#6B6C6E" stroke-width="2" stroke-linejoin="round" d="M0.2,19.7l-0.7,2.8l2,0.5
				l-0.8,2.9l0.9,0.3L0.3,31l3.9,1.1l1.3-4.9l1,0.3l0.8-2.9l1.9,0.5l0.7-2.4"/>
			<path id="Shape_5_" fill="none" stroke="#6B6C6E" stroke-width="2" stroke-linejoin="round" d="M11.2,17.6l2.5-9l1.9,0.5l1.6-5.9
				L3.6-0.4L2,5.4l1.9,0.5l-2.3,8.8"/>
			<path id="Shape_6_" fill="none" stroke="#6B6C6E" stroke-width="2" stroke-linejoin="round" d="M6.9,6.7l-1.1,3.9"/>
			<path id="Shape_7_" fill="none" stroke="#6B6C6E" stroke-width="2" stroke-linejoin="round" d="M10.8,7.8l-1.1,3.9"/>
		</g>
		<path id="Shape" sketch:type="MSShapeGroup" fill="none" stroke="#6B6C6E" stroke-width="2" stroke-linejoin="round" d="
			M42.3,52.9H40V23L9.1,13.9l-2,5L28,24.6c1.5,3.9,4,18.2-8.8,18.2H3.1c-1.1,0-1,0.9-1,2v1c0,1.1-0.1,2,1,2h16.3h-5.2v5H40H6.1
			c-1.1,0-3,6-3,6c0,1.1,0.9,2,2,2h38.3c1.1,0,2-0.44,2-2C45.4,58.8,43.4,52.9,42.3,52.9L42.3,52.9z"/>
	</g>
</g>
</svg>
