<?xml version="1.0" encoding="utf-8"?>
<!-- Generator: Adobe Illustrator 17.0.0, SVG Export Plug-In . SVG Version: 6.00 Build 0)  -->
<!DOCTYPE svg PUBLIC "-//W3C//DTD SVG 1.1//EN" "http://www.w3.org/Graphics/SVG/1.1/DTD/svg11.dtd">
<svg version="1.1" id="Layer_1" xmlns:sketch="http://www.bohemiancoding.com/sketch/ns"
	 xmlns="http://www.w3.org/2000/svg" xmlns:xlink="http://www.w3.org/1999/xlink" x="0px" y="0px" width="53px" height="64px"
	 viewBox="0 0 53 64" enable-background="new 0 0 53 64" xml:space="preserve">
<title>Mill</title>
<desc>Created with Sketch.</desc>
<g id="Page-1" sketch:type="MSPage">
	<g id="Mill" transform="translate(2.000000, 1.000000)" sketch:type="MSLayerGroup">
		<path id="Shape_4_" sketch:type="MSShapeGroup" fill="none" stroke="#6B6C6E" stroke-width="2" d="M32.9,41.9l2.9,18
			c0,1.1-0.9,2-2,2H16.1c-1.1,0-2-0.9-2-2l2.9-18"/>
		<path id="Shape_13_" sketch:type="MSShapeGroup" fill="none" stroke="#6B6C6E" stroke-width="2" d="M28.9,59.4
			c0,3.5-1.8,2.4-4,2.4s-4,1.1-4-2.4c0-7.4,1.8-8.4,4-8.4S28.9,52.1,28.9,59.4L28.9,59.4z"/>
		<path id="Shape" sketch:type="MSShapeGroup" fill="none" stroke="#6B6C6E" stroke-width="2" d="M24.9,25.1L22.8,23
			c-0.8-0.8-0.8-2,0-2.8L39.5,0.6c0.8-0.8,2-0.8,2.8,0l7,7c0.8,0.8,0.8,2,0,2.8L31.9,25"/>
		<path id="Shape_1_" sketch:type="MSShapeGroup" fill="none" stroke="#6B6C6E" stroke-width="2" d="M24.9,25.1l2.1,2.1
			c0.8,0.8,0.8,2,0,2.8L10.3,49.6c-0.8,0.8-2,0.8-2.8,0l-7-7c-0.8-0.8-0.8-2,0-2.8l17.4-14.7"/>
		<path id="Shape_2_" sketch:type="MSShapeGroup" fill="none" stroke="#6B6C6E" stroke-width="2" d="M24.9,25.1L27,23
			c0.8-0.8,2-0.8,2.8,0l19.5,16.8c0.8,0.8,0.8,2,0,2.8l-6.9,7c-0.8,0.8-2,0.8-2.8,0L24.8,32.2"/>
		<path id="Shape_3_" sketch:type="MSShapeGroup" fill="none" stroke="#6B6C6E" stroke-width="2" d="M24.9,25.1l-2.1,2.1
			c-0.8,0.8-2,0.8-2.8,0L0.5,10.4c-0.8-0.8-0.8-2,0-2.8l7-7c0.8-0.8,2-0.8,2.8,0l13.5,17.7"/>
		<path id="Shape_5_" sketch:type="MSShapeGroup" fill="none" stroke="#6B6C6E" stroke-width="2" d="M34.5,6.8l8.5,8.6"/>
		<path id="Shape_6_" sketch:type="MSShapeGroup" fill="none" stroke="#6B6C6E" stroke-width="2" d="M29.7,13.2l7,7.1"/>
		<path id="Shape_7_" sketch:type="MSShapeGroup" fill="none" stroke="#6B6C6E" stroke-width="2" d="M42.8,35.1l-8.2,8.3"/>
		<path id="Shape_8_" sketch:type="MSShapeGroup" fill="none" stroke="#6B6C6E" stroke-width="2" d="M36.8,30L29,37.7"/>
		<path id="Shape_9_" sketch:type="MSShapeGroup" fill="none" stroke="#6B6C6E" stroke-width="2" d="M13.8,5.6L5.5,14"/>
		<path id="Shape_10_" sketch:type="MSShapeGroup" fill="none" stroke="#6B6C6E" stroke-width="2" d="M18.4,12.1L11.6,19"/>
		<path id="Shape_11_" sketch:type="MSShapeGroup" fill="none" stroke="#6B6C6E" stroke-width="2" d="M10.9,32.1l7.6,7.7"/>
		<path id="Shape_12_" sketch:type="MSShapeGroup" fill="none" stroke="#6B6C6E" stroke-width="2" d="M5.4,36.2l8.4,8.5"/>
	</g>
</g>
</svg>
