<?xml version="1.0" encoding="UTF-8" standalone="no"?>
<svg width="48px" height="66px" viewBox="0 0 48 66" version="1.1" xmlns="http://www.w3.org/2000/svg" xmlns:xlink="http://www.w3.org/1999/xlink" xmlns:sketch="http://www.bohemiancoding.com/sketch/ns">
    <!-- Generator: Sketch 3.0.3 (7891) - http://www.bohemiancoding.com/sketch -->
    <title>Money-bag-pound</title>
    <desc>Created with Sketch.</desc>
    <defs></defs>
    <g id="Page-1" stroke="none" stroke-width="1" fill="none" fill-rule="evenodd" sketch:type="MSPage">
        <g id="Money-bag-pound" sketch:type="MSLayerGroup" transform="translate(1.000000, 3.000000)" stroke-width="2" stroke="#6B6C6E">
            <g id="Group" sketch:type="MSShapeGroup">
                <path d="M14.7,2.4 C14.7,2.4 24.4,-4.4 26.1,5.9" id="Shape"></path>
                <path d="M25.4,3 C25.4,3 27.2,-0.4 36,1.86073379e-13 C36,2.8 33.4,9.9 29.5,11.2 C39,16.8 46,33.4 46,43.4 C46,55.5 35.7,62 23,62 C10.3,62 0,55.5 0,43.4 C0,33.5 6.9,16.8 16.5,11.2 C12.6,9.9 10,2.8 10,1.86073379e-13 C10,1.86073379e-13 14.4,3.9 20,3.9" id="Shape"></path>
                <path d="M15.7,11 L31.1,11" id="Shape"></path>
                <path d="M31.1,12.3 C31.1,12.3 42.3,12 42.3,18.3" id="Shape"></path>
                <path d="M31.2,10.4 C31.2,10.4 40,10.9 45.1,7.6" id="Shape"></path>
            </g>
            <path d="M28.1,33.1 C28.1,30.3 25.8,28 23,28 C20.2,28 16.8,29.8 18.3,35.1 C18.3,35.1 20.8,43.7 16,48 C16,48 24,43.4 33,47.9" id="Shape" sketch:type="MSShapeGroup"></path>
            <path d="M15.1,40 L27,40" id="Shape" sketch:type="MSShapeGroup"></path>
        </g>
    </g>
</svg>