<?xml version="1.0" encoding="UTF-8" standalone="no"?>
<svg width="48px" height="67px" viewBox="0 0 48 67" version="1.1" xmlns="http://www.w3.org/2000/svg" xmlns:xlink="http://www.w3.org/1999/xlink" xmlns:sketch="http://www.bohemiancoding.com/sketch/ns">
    <!-- Generator: Sketch 3.0.3 (7891) - http://www.bohemiancoding.com/sketch -->
    <title>Money-bag-dollar</title>
    <desc>Created with Sketch.</desc>
    <defs></defs>
    <g id="Page-1" stroke="none" stroke-width="1" fill="none" fill-rule="evenodd" sketch:type="MSPage">
        <g id="Money-bag-dollar" sketch:type="MSLayerGroup" transform="translate(1.000000, 3.000000)" stroke="#6B6C6E" stroke-width="2">
            <path d="M14.2,2.5 C14.2,2.5 24.4,-4.4 26.1,5.9" id="Shape" sketch:type="MSShapeGroup"></path>
            <path d="M25.2,3.1 C25.2,3.1 27.2,-0.3 36,0.1 C36,2.9 33.4,10 29.5,11.3 C39,16.9 46,33.5 46,43.5 C46,55.6 35.7,62.1 23,62.1 C10.3,62.1 0,55.6 0,43.5 C0,33.6 6.9,16.9 16.5,11.3 C12.6,10 10,2.9 10,0.1 C10,0.1 14.4,4 20,4" id="Shape" sketch:type="MSShapeGroup"></path>
            <path d="M15.8,11 L31.1,11" id="Shape" sketch:type="MSShapeGroup"></path>
            <path d="M31.1,12.3 C31.1,12.3 42.3,12 42.3,18.3" id="Shape" sketch:type="MSShapeGroup"></path>
            <path d="M31.3,10.4 C31.3,10.4 40.1,10.9 45.2,7.6" id="Shape" sketch:type="MSShapeGroup"></path>
            <path d="M19,44.2 C19,46.8 21.2,48.8 24,48.8 C26.7,48.8 29,46.7 29,44.2 C29,40.4 24,38.7 24,38.7 C24,38.7 19,36.8 19,33.2 C19,30.6 21.2,28.6 24,28.6 C26.7,28.6 29,30.7 29,33.2" id="Shape" sketch:type="MSShapeGroup"></path>
            <path d="M24.1,23.5 L24.1,53.9" id="Shape" sketch:type="MSShapeGroup"></path>
        </g>
    </g>
</svg>