<?xml version="1.0" encoding="UTF-8" standalone="no"?>
<svg width="48px" height="67px" viewBox="0 0 48 67" version="1.1" xmlns="http://www.w3.org/2000/svg" xmlns:xlink="http://www.w3.org/1999/xlink" xmlns:sketch="http://www.bohemiancoding.com/sketch/ns">
    <!-- Generator: Sketch 3.0.3 (7891) - http://www.bohemiancoding.com/sketch -->
    <title>Money-bag-euro</title>
    <desc>Created with Sketch.</desc>
    <defs></defs>
    <g id="Page-1" stroke="none" stroke-width="1" fill="none" fill-rule="evenodd" sketch:type="MSPage">
        <g id="Money-bag-euro" sketch:type="MSLayerGroup" transform="translate(1.000000, 3.000000)" stroke="#6B6C6E" stroke-width="2">
            <path d="M14.4,2.6 C14.4,2.6 24.5,-4.3 26.1,6" id="Shape" sketch:type="MSShapeGroup"></path>
            <path d="M25.4,3.2 C25.4,3.2 27.2,-0.4 36,0.1 C36,2.9 33.4,10 29.5,11.3 C39,16.9 46,33.5 46,43.5 C46,55.6 36.7,62.1 24,62.1 C11.3,62.1 0,55.6 0,43.5 C0,33.6 6.9,16.9 16.5,11.3 C12.6,10 10,2.9 10,0.1 C10,0.1 14.4,4 20,4" id="Shape" sketch:type="MSShapeGroup"></path>
            <path d="M16.4,11 L31.1,11" id="Shape" sketch:type="MSShapeGroup"></path>
            <path d="M31.1,12.3 C31.1,12.3 42.3,12 42.3,18.3" id="Shape" sketch:type="MSShapeGroup"></path>
            <path d="M31.3,10.4 C31.3,10.4 40,10.9 45.2,7.6" id="Shape" sketch:type="MSShapeGroup"></path>
            <path d="M29.9,48.5 C28.5,50.1 26.7,51 24.7,51 C20.4,51 17,46.7 17,41.3 C17,36 20.5,32 24.7,32 C26.7,32 28.4,32.6 29.8,34.1" id="Shape" sketch:type="MSShapeGroup"></path>
            <path d="M14.1,38.9 L26,38.9" id="Shape" sketch:type="MSShapeGroup"></path>
            <path d="M13.1,43 L25,43" id="Shape" sketch:type="MSShapeGroup"></path>
        </g>
    </g>
</svg>