<?xml version="1.0" encoding="utf-8"?>
<!-- Generator: Adobe Illustrator 17.0.0, SVG Export Plug-In . SVG Version: 6.00 Build 0)  -->
<!DOCTYPE svg PUBLIC "-//W3C//DTD SVG 1.1//EN" "http://www.w3.org/Graphics/SVG/1.1/DTD/svg11.dtd">
<svg version="1.1" id="Layer_1" xmlns:sketch="http://www.bohemiancoding.com/sketch/ns"
	 xmlns="http://www.w3.org/2000/svg" xmlns:xlink="http://www.w3.org/1999/xlink" x="0px" y="0px" width="64px" height="44px"
	 viewBox="0 0 64 44" enable-background="new 0 0 64 44" xml:space="preserve">
<title>Network-2</title>
<desc>Created with Sketch.</desc>
<g id="Page-1" sketch:type="MSPage">
	<g id="Network-2" transform="translate(1.000000, 2.000000)" sketch:type="MSLayerGroup">
		<path id="Shape" sketch:type="MSShapeGroup" fill="none" stroke="#6B6C6E" stroke-width="2" d="M14,23.9V31"/>
		<path id="Shape_1_" sketch:type="MSShapeGroup" fill="none" stroke="#6B6C6E" stroke-width="2" d="M0,38h5.9"/>
		<path id="Shape_2_" sketch:type="MSShapeGroup" fill="none" stroke="#6B6C6E" stroke-width="2" d="M48,23.9V31"/>
		<path id="Shape_3_" sketch:type="MSShapeGroup" fill="none" stroke="#6B6C6E" stroke-width="2" d="M21,38h18.9"/>
		<path id="Shape_4_" sketch:type="MSShapeGroup" fill="none" stroke="#6B6C6E" stroke-width="2" d="M56.2,38H62"/>
		<path id="Shape_5_" sketch:type="MSShapeGroup" fill="none" stroke="#6B6C6E" stroke-width="2" d="M28,21.9c0,1.1-0.9,2-2,2H2
			c-1.1,0-2-0.9-2-2v-20c0-1.1,0.9-2,2-2h24c1.1,0,2,0.9,2,2V21.9L28,21.9z"/>
		<path id="Shape_6_" sketch:type="MSShapeGroup" fill="none" stroke="#6B6C6E" stroke-width="2" d="M0,17.9h28"/>
		
			<rect id="Rectangle-path" x="3" y="4" sketch:type="MSShapeGroup" fill="none" stroke="#6B6C6E" stroke-width="2" width="22" height="13.9">
		</rect>
		<path id="Shape_8_" sketch:type="MSShapeGroup" fill="none" stroke="#6B6C6E" stroke-width="2" d="M62,21.9c0,1.1-0.9,2-2,2H36
			c-1.1,0-2-0.9-2-2v-20c0-1.1,0.9-2,2-2h24c1.1,0,2,0.9,2,2V21.9L62,21.9z"/>
		
			<rect id="Rectangle-path_1_" x="37" y="4" sketch:type="MSShapeGroup" fill="none" stroke="#6B6C6E" stroke-width="2" width="22" height="13.9">
		</rect>
		<path id="Shape_7_" sketch:type="MSShapeGroup" fill="none" stroke="#6B6C6E" stroke-width="2" d="M34,17.9h28"/>
		<path id="Shape_9_" sketch:type="MSShapeGroup" fill="none" stroke="#6B6C6E" stroke-width="2" d="M53.9,35H51v-2c0-1.1-0.9-2-2-2
			h-2.2c-1.1,0-2,0.9-2,2v2H42c-1.1,0-2,0.9-2,1.9v2.2c0,1.1,0.9,1.9,2,1.9h11.9c1.1,0,2-0.9,2-1.9v-2.2C55.9,35.8,55,35,53.9,35
			L53.9,35z"/>
		<path id="Shape_10_" sketch:type="MSShapeGroup" fill="none" stroke="#6B6C6E" stroke-width="2" d="M19.9,35H17v-2
			c0-1.1-0.9-2-2-2h-2.2c-1.1,0-2,0.9-2,2v2H8c-1.1,0-2,0.9-2,1.9v2.2C6,40.2,6.9,41,8,41h11.9c1.1,0,2-0.9,2-1.9v-2.2
			C21.9,35.8,21,35,19.9,35L19.9,35z"/>
	</g>
</g>
</svg>
