<?xml version="1.0" encoding="utf-8"?>
<!-- Generator: Adobe Illustrator 17.0.0, SVG Export Plug-In . SVG Version: 6.00 Build 0)  -->
<!DOCTYPE svg PUBLIC "-//W3C//DTD SVG 1.1//EN" "http://www.w3.org/Graphics/SVG/1.1/DTD/svg11.dtd">
<svg version="1.1" id="Layer_1" xmlns:sketch="http://www.bohemiancoding.com/sketch/ns"
	 xmlns="http://www.w3.org/2000/svg" xmlns:xlink="http://www.w3.org/1999/xlink" x="0px" y="0px" width="64px" height="52px"
	 viewBox="0 0 64 52" enable-background="new 0 0 64 52" xml:space="preserve">
<title>Network-1</title>
<desc>Created with Sketch.</desc>
<g id="Page-1" sketch:type="MSPage">
	<g id="Network-1" transform="translate(1.000000, 1.000000)" sketch:type="MSLayerGroup">
		<path id="Shape" sketch:type="MSShapeGroup" fill="none" stroke="#6B6C6E" stroke-width="2" d="M28,48c0,1.1-0.9,2-2,2H2
			c-1.1,0-2-0.9-2-2V28c0-1.1,0.9-2,2-2h24c1.1,0,2,0.9,2,2V48L28,48z"/>
		
			<rect id="Rectangle-path" x="3" y="30" sketch:type="MSShapeGroup" fill="none" stroke="#6B6C6E" stroke-width="2" width="22" height="14">
		</rect>
		<path id="Shape_3_" sketch:type="MSShapeGroup" fill="none" stroke="#6B6C6E" stroke-width="2" d="M62,22c0,1.1-0.9,2-2,2H36
			c-1.1,0-2-0.9-2-2V2c0-1.1,0.9-2,2-2h24c1.1,0,2,0.9,2,2V22L62,22z"/>
		
			<rect id="Rectangle-path_1_" x="37" y="4" sketch:type="MSShapeGroup" fill="none" stroke="#6B6C6E" stroke-width="2" width="22" height="14">
		</rect>
		<path id="Shape_1_" sketch:type="MSShapeGroup" fill="none" stroke="#6B6C6E" stroke-width="2" d="M0,44h28"/>
		<path id="Shape_2_" sketch:type="MSShapeGroup" fill="none" stroke="#6B6C6E" stroke-width="2" d="M34,18h28"/>
		<path id="Shape_4_" sketch:type="MSShapeGroup" fill="none" stroke="#6B6C6E" stroke-width="2" d="M16,10h15"/>
		<path id="Shape_5_" sketch:type="MSShapeGroup" fill="none" stroke="#6B6C6E" stroke-width="2" d="M13,13v10"/>
		<path id="Shape_6_" sketch:type="MSShapeGroup" fill="none" stroke="#6B6C6E" stroke-width="2" d="M47,43H31"/>
		<path id="Shape_7_" sketch:type="MSShapeGroup" fill="none" stroke="#6B6C6E" stroke-width="2" d="M50,40V27"/>
		<circle id="Oval" sketch:type="MSShapeGroup" fill="none" stroke="#6B6C6E" stroke-width="2" cx="13" cy="10" r="3">
		</circle>
		<circle id="Oval_1_" sketch:type="MSShapeGroup" fill="none" stroke="#6B6C6E" stroke-width="2" cx="50" cy="43" r="3">
		</circle>
	</g>
</g>
</svg>
