<?xml version="1.0" encoding="UTF-8" standalone="no"?>
<svg width="65px" height="64px" viewBox="0 0 65 64" version="1.1" xmlns="http://www.w3.org/2000/svg" xmlns:xlink="http://www.w3.org/1999/xlink" xmlns:sketch="http://www.bohemiancoding.com/sketch/ns">
    <!-- Generator: Sketch 3.0.3 (7891) - http://www.bohemiancoding.com/sketch -->
    <title>Person-heart</title>
    <desc>Created with Sketch.</desc>
    <defs></defs>
    <g id="Page-1" stroke="none" stroke-width="1" fill="none" fill-rule="evenodd" sketch:type="MSPage">
        <g id="Person-heart" sketch:type="MSLayerGroup" transform="translate(2.000000, 1.000000)" stroke="#6B6C6E" stroke-width="2">
            <path d="M54.9,49 C50,45.3 43.6,44.5 41.1,43.2 C38.5,41.9 35,39.5 35,37.4 C35,36.3 35.5,35.6 35.8,35.4 C40.9,32.6 42.6,23.5 43,23.5 C44.7,23.5 45.9,19.2 45.9,16.4 C45.9,14.1 45.2,14.2 44,13.5 L44,13.2 C44,5.8 37.9,0 30.5,0 C23,0 16.6,6 16.6,13.4 L16.6,13.7 C15.4,14.4 14.9,14.8 14.9,17 C14.9,19.9 15.9,23.9 17.6,23.9 C17.9,23.9 20.1,32.7 25,35.7 C25.3,35.9 25.8,36.4 25.8,37.4 C25.8,39.8 22.5,41.9 19.7,43.3 C16.3,45 -0.1,46.4 -0.1,62 L52.9,62" id="Shape" sketch:type="MSShapeGroup"></path>
            <path d="M53,50 C51.6,46.9 44,46.7 44,52.2 C44,56.5 51.4,62 53,62 C54.6,62 62,56.5 62,52.2 C62,46.1 52.1,46.5 52.1,53" id="Shape" sketch:type="MSShapeGroup"></path>
        </g>
    </g>
</svg>