<?xml version="1.0" encoding="UTF-8" standalone="no"?>
<svg width="63px" height="65px" viewBox="0 0 63 65" version="1.1" xmlns="http://www.w3.org/2000/svg" xmlns:xlink="http://www.w3.org/1999/xlink" xmlns:sketch="http://www.bohemiancoding.com/sketch/ns">
    <!-- Generator: Sketch 3.0.3 (7891) - http://www.bohemiancoding.com/sketch -->
    <title>Person-previous</title>
    <desc>Created with Sketch.</desc>
    <defs></defs>
    <g id="Page-1" stroke="none" stroke-width="1" fill="none" fill-rule="evenodd" sketch:type="MSPage">
        <g id="Person-previous" sketch:type="MSLayerGroup" transform="translate(2.000000, 1.000000)" stroke="#6B6C6E" stroke-width="2">
            <path d="M49.1,46 C46,44.9 42.6,44 41.1,43.3 C38.5,42 35,39.6 35,37.5 C35,36.4 35.4,35.7 35.8,35.5 C40.9,32.7 42.6,23.6 42.9,23.6 C44.6,23.6 45.8,19.3 45.8,16.5 C45.8,14.2 45.1,14.3 43.9,13.6 L43.9,13.3 C43.9,5.9 37.9,0.1 30.4,0.1 C23,0.1 16.6,6 16.6,13.5 L16.6,13.8 C15.4,14.5 14.9,14.9 14.9,17.1 C14.9,20 15.9,24 17.6,24 C17.9,24 20.1,32.8 25,35.8 C25.3,36 25.8,36.5 25.8,37.5 C25.8,39.9 22.5,42 19.8,43.4 C16.5,45.1 -0.1,46.5 -0.1,62.1 L52.8,62.1" id="Shape" sketch:type="MSShapeGroup"></path>
            <g id="Group" transform="translate(40.000000, 44.000000)" sketch:type="MSShapeGroup">
                <path d="M12.9,13.7 L12.9,17.4 C12.9,17.7 12.7,18 12.3,18 L0.4,10.2 C0.1,10 -0.2,9.9 -0.2,9.6 L-0.2,8.5 C-0.2,8.3 -5.68434189e-14,8.1 0.4,7.9 L12.3,0 C12.6,0 12.9,0.3 12.9,0.6 L12.9,4" id="Shape"></path>
                <path d="M11,5 L20.9,5" id="Shape"></path>
                <path d="M11,13 L20.9,13" id="Shape"></path>
            </g>
        </g>
    </g>
</svg>