<?xml version="1.0" encoding="utf-8"?>
<!-- Generator: Adobe Illustrator 17.0.0, SVG Export Plug-In . SVG Version: 6.00 Build 0)  -->
<!DOCTYPE svg PUBLIC "-//W3C//DTD SVG 1.1//EN" "http://www.w3.org/Graphics/SVG/1.1/DTD/svg11.dtd">
<svg version="1.1" id="Layer_1" xmlns:sketch="http://www.bohemiancoding.com/sketch/ns"
	 xmlns="http://www.w3.org/2000/svg" xmlns:xlink="http://www.w3.org/1999/xlink" x="0px" y="0px" width="64px" height="64px"
	 viewBox="0 0 64 64" enable-background="new 0 0 64 64" xml:space="preserve">
<title>Person-next</title>
<desc>Created with Sketch.</desc>
<g id="Page-1" sketch:type="MSPage">
	<g id="Person-next" transform="translate(1.000000, 1.000000)" sketch:type="MSLayerGroup">
		<path id="Shape" sketch:type="MSShapeGroup" fill="none" stroke="#6B6C6E" stroke-width="2" d="M47.1,45.3
			c-2.4-0.8-4.5-1.3-5.7-1.9c-2.6-1.3-6.1-3.7-6.1-5.7c0-1.1,0.4-1.8,0.8-2c5.1-2.8,6.8-11.9,7.1-11.9c1.7,0,2.9-4.2,2.9-7.1
			c0-2.2-0.7-2.2-1.9-2.9v-0.3c0-7.4-6-13.5-13.4-13.5S17.7,6.3,17.7,13.7V14c-1.2,0.7-1.7,1-1.7,3.3c0,2.9,1,6.9,2.7,6.9
			c0.3,0,1.9,8.8,6.7,11.7c0.3,0.2,0.8,0.7,0.8,1.6c0,2.4-3.3,4.5-6,5.9C16.9,45.1,0,46.5,0,62h48.1"/>
		<g id="Group" transform="translate(40.000000, 44.000000)" sketch:type="MSShapeGroup">
			<path id="Shape_1_" fill="none" stroke="#6B6C6E" stroke-width="2" d="M8,13.7v3.7C8,17.7,8.2,18,8.6,18l11.9-7.8
				c0.3-0.2,0.6-0.3,0.6-0.6V8.5c0-0.2-0.2-0.4-0.6-0.6L8.6,0C8.3,0,8,0.3,8,0.6v3.65"/>
			<path id="Shape_2_" fill="none" stroke="#6B6C6E" stroke-width="2" d="M9.9,5H0.1"/>
			<path id="Shape_3_" fill="none" stroke="#6B6C6E" stroke-width="2" d="M9.9,13H0.1"/>
		</g>
	</g>
</g>
</svg>
