<?xml version="1.0" encoding="utf-8"?>
<!-- Generator: Adobe Illustrator 17.0.0, SVG Export Plug-In . SVG Version: 6.00 Build 0)  -->
<!DOCTYPE svg PUBLIC "-//W3C//DTD SVG 1.1//EN" "http://www.w3.org/Graphics/SVG/1.1/DTD/svg11.dtd">
<svg version="1.1" id="Layer_1" xmlns:sketch="http://www.bohemiancoding.com/sketch/ns"
	 xmlns="http://www.w3.org/2000/svg" xmlns:xlink="http://www.w3.org/1999/xlink" x="0px" y="0px" width="61px" height="64px"
	 viewBox="0 0 61 64" enable-background="new 0 0 61 64" xml:space="preserve">
<title>Person-error</title>
<desc>Created with Sketch.</desc>
<g id="Page-1" sketch:type="MSPage">
	<g id="Person-error" transform="translate(1.000000, 1.000000)" sketch:type="MSLayerGroup">
		<path id="Shape" sketch:type="MSShapeGroup" fill="none" stroke="#6B6C6E" stroke-width="2" stroke-linejoin="round" d="
			M44.9,44.8c-1.6-0.5-3.9-1.1-4.7-1.5c-2.5-1.3-6-3.7-6-5.8c0-1.1,0.4-1.8,0.8-2c5-2.8,6.7-12,7-12c1.7,0,2.9-4.3,2.9-7.1
			c0-2.3-0.7-2.2-1.9-2.9v-0.3C43,5.7,37.1,0,29.8,0S16.2,6,16.2,13.4v0.3c-1.2,0.7-1.7,1.1-1.7,3.3c0,2.9,1,6.9,2.7,6.9
			c0.3,0,2.5,8.8,7.3,11.8c0.3,0.2,0.8,0.7,0.8,1.7c0,2.4-3.2,4.5-5.9,5.9C16.1,45,0.1,46.4,0.1,62h45.7"/>
		<path id="Shape_1_" sketch:type="MSShapeGroup" fill="none" stroke="#6B6C6E" stroke-width="2" stroke-linejoin="round" d="
			M45.6,61.4l4.1-4.2l4.2,4.2l4.1-4.2L53.9,53l4.1-4.2l-4.1-4.2l-4.2,4.2l-4.2-4.3l-4.1,4.2l4.2,4.2l-4.2,4.3L45.6,61.4z"/>
	</g>
</g>
</svg>
