<?xml version="1.0" encoding="UTF-8" standalone="no"?>
<svg width="63px" height="64px" viewBox="0 0 63 64" version="1.1" xmlns="http://www.w3.org/2000/svg" xmlns:xlink="http://www.w3.org/1999/xlink" xmlns:sketch="http://www.bohemiancoding.com/sketch/ns">
    <!-- Generator: Sketch 3.0.3 (7891) - http://www.bohemiancoding.com/sketch -->
    <title>Person-upload</title>
    <desc>Created with Sketch.</desc>
    <defs></defs>
    <g id="Page-1" stroke="none" stroke-width="1" fill="none" fill-rule="evenodd" sketch:type="MSPage">
        <g id="Person-upload" sketch:type="MSLayerGroup" transform="translate(1.000000, 2.000000)" stroke="#6B6C6E" stroke-width="2">
            <path d="M47.1,44.8 C44.3,43.8 41.9,43.3 40.6,42.6 C38,41.3 34.6,39 34.6,36.9 C34.6,35.8 35,35.1 35.4,34.9 C40.4,32.1 42.1,23.1 42.4,23.1 C44.1,23.1 45.3,18.9 45.3,16.1 C45.3,13.9 44.6,13.9 43.4,13.2 L43.4,12.9 C43.4,5.6 37.5,-0.1 30.1,-0.1 C22.7,-0.1 16.5,5.8 16.5,13.1 L16.5,13.4 C15.3,14.1 14.8,14.4 14.8,16.7 C14.8,19.5 15.8,23.5 17.5,23.5 C17.8,23.5 20,32.2 24.8,35.1 C25.1,35.3 25.6,35.8 25.6,36.7 C25.6,39.1 22.4,41.2 19.7,42.5 C16.4,44.1 -1.13686838e-13,45.6 -1.13686838e-13,60.9 L48,60.9" id="Shape" sketch:type="MSShapeGroup"></path>
            <g id="Group" transform="translate(42.000000, 40.000000)" sketch:type="MSShapeGroup">
                <path d="M13.8,14 L17.5,14 C17.8,14 18.1,13.8 18.1,13.5 L10.3,0.6 C10.1,0.3 10,0.1 9.7,0.1 L8.6,0.1 C8.4,0.1 8.2,0.3 8,0.6 L0.3,13.5 C0.3,13.8 0.6,14 0.9,14 L4.2,14" id="Shape"></path>
                <path d="M5,12 L5,22" id="Shape"></path>
                <path d="M13,12 L13,22" id="Shape"></path>
            </g>
        </g>
    </g>
</svg>