<?xml version="1.0" encoding="UTF-8" standalone="no"?>
<svg width="62px" height="64px" viewBox="0 0 62 64" version="1.1" xmlns="http://www.w3.org/2000/svg" xmlns:xlink="http://www.w3.org/1999/xlink" xmlns:sketch="http://www.bohemiancoding.com/sketch/ns">
    <!-- Generator: Sketch 3.0.3 (7891) - http://www.bohemiancoding.com/sketch -->
    <title>Person-remove</title>
    <desc>Created with Sketch.</desc>
    <defs></defs>
    <g id="Page-1" stroke="none" stroke-width="1" fill="none" fill-rule="evenodd" sketch:type="MSPage">
        <g id="Person-remove" sketch:type="MSLayerGroup" transform="translate(1.000000, 1.000000)" stroke="#6B6C6E" stroke-width="2">
            <path d="M59.1,56 C55.7,46.1 44,45.1 40.5,43.3 C37.9,42 34.5,39.6 34.5,37.5 C34.5,36.4 34.9,35.7 35.3,35.5 C40.4,32.7 42,23.5 42.3,23.5 C44,23.5 45.2,19.2 45.2,16.4 C45.2,14.1 44.5,14.2 43.3,13.5 L43.3,13.2 C43.3,5.7 37.3,0 30,0 C22.6,0 16,6 16,13.4 L16,13.7 C14.8,14.4 14.3,14.8 14.3,17 C14.3,19.9 15.3,23.9 17,23.9 C17.3,23.9 19.8,32.7 24.7,35.7 C25,35.9 25.5,36.4 25.5,37.4 C25.5,39.8 22.2,41.9 19.5,43.3 C16.2,45 0,46.4 0,62 L44.3,62" id="Shape" sketch:type="MSShapeGroup"></path>
            <rect id="Rectangle-path" sketch:type="MSShapeGroup" x="44" y="56" width="16" height="6"></rect>
        </g>
    </g>
</svg>