<?xml version="1.0" encoding="UTF-8" standalone="no"?>
<svg width="63px" height="64px" viewBox="0 0 63 64" version="1.1" xmlns="http://www.w3.org/2000/svg" xmlns:xlink="http://www.w3.org/1999/xlink" xmlns:sketch="http://www.bohemiancoding.com/sketch/ns">
    <!-- Generator: Sketch 3.0.3 (7891) - http://www.bohemiancoding.com/sketch -->
    <title>Person-download</title>
    <desc>Created with Sketch.</desc>
    <defs></defs>
    <g id="Page-1" stroke="none" stroke-width="1" fill="none" fill-rule="evenodd" sketch:type="MSPage">
        <g id="Person-download" sketch:type="MSLayerGroup" transform="translate(1.000000, 1.000000)" stroke="#6B6C6E" stroke-width="2">
            <path d="M47.2,45.5 C44.4,44.5 41.9,43.9 40.6,43.3 C38,42 34.6,39.6 34.6,37.5 C34.6,36.4 35,35.7 35.4,35.5 C40.4,32.7 42.1,23.5 42.4,23.5 C44.1,23.5 45.3,19.2 45.3,16.4 C45.3,14.1 44.6,14.2 43.4,13.5 L43.4,13.2 C43.4,5.7 37.5,0 30.1,0 C22.8,0 16.5,6 16.5,13.4 L16.5,13.7 C15.3,14.4 14.8,14.8 14.8,17 C14.8,19.9 15.8,23.9 17.5,23.9 C17.8,23.9 20,32.7 24.8,35.7 C25.1,35.9 25.6,36.4 25.6,37.4 C25.6,39.8 22.4,41.9 19.7,43.3 C16.4,45 0,46.4 0,62 L50.1,62" id="Shape" sketch:type="MSShapeGroup"></path>
            <g id="Group" transform="translate(42.000000, 41.000000)" sketch:type="MSShapeGroup">
                <path d="M13.8,7.9 L17.5,7.9 C17.8,7.9 18.1,8.2 18.1,8.5 L10.4,20.4 C10.2,20.7 10.1,21 9.8,21 L8.7,21 C8.5,21 8.3,20.8 8.1,20.4 L0.3,8.5 C0.3,8.2 0.6,7.9 0.9,7.9 L4.2,7.9" id="Shape"></path>
                <path d="M5,9.9 L5,0" id="Shape"></path>
                <path d="M13,9.9 L13,0" id="Shape"></path>
            </g>
        </g>
    </g>
</svg>