<?xml version="1.0" encoding="utf-8"?>
<!-- Generator: Adobe Illustrator 17.0.0, SVG Export Plug-In . SVG Version: 6.00 Build 0)  -->
<!DOCTYPE svg PUBLIC "-//W3C//DTD SVG 1.1//EN" "http://www.w3.org/Graphics/SVG/1.1/DTD/svg11.dtd">
<svg version="1.1" id="Layer_1" xmlns:sketch="http://www.bohemiancoding.com/sketch/ns"
	 xmlns="http://www.w3.org/2000/svg" xmlns:xlink="http://www.w3.org/1999/xlink" x="0px" y="0px" width="54px" height="64px"
	 viewBox="0 0 54 64" enable-background="new 0 0 54 64" xml:space="preserve">
<title>Phone-book</title>
<desc>Created with Sketch.</desc>
<g id="Page-1" sketch:type="MSPage">
	<g id="Phone-book" transform="translate(1.000000, 1.000000)" sketch:type="MSLayerGroup">
		<path id="Shape_1_" sketch:type="MSShapeGroup" fill="none" stroke="#6B6C6E" stroke-width="2" d="M48,7h2c1.1,0,2,0.9,2,2v8
			c0,1.1-0.9,2-2,2h-2"/>
		<path id="Shape_2_" sketch:type="MSShapeGroup" fill="none" stroke="#6B6C6E" stroke-width="2" d="M48,24h2c1.1,0,2,0.9,2,2v8
			c0,1.1-0.9,2-2,2h-2"/>
		<path id="Shape_3_" sketch:type="MSShapeGroup" fill="none" stroke="#6B6C6E" stroke-width="2" d="M48,41h2c1.1,0,2,0.9,2,2v8
			c0,1.1-0.9,2-2,2h-2"/>
		<path id="Shape" sketch:type="MSShapeGroup" fill="none" stroke="#6B6C6E" stroke-width="2" d="M0,2c0-1.1,0.9-2,2-2h44
			c1.1,0,2,0.9,2,2v58c0,1.1-0.9,2-2,2H2c-1.1,0-2-0.9-2-2V2L0,2z"/>
		<path id="Shape_4_" sketch:type="MSShapeGroup" fill="none" stroke="#6B6C6E" stroke-width="2" d="M6,3v56"/>
		<path id="Shape_5_" sketch:type="MSShapeGroup" fill="none" stroke="#6B6C6E" stroke-width="2" d="M29.9,21.5c0,0-3.5,2.7-8.4,7.6
			l0,0c-4.9,4.9-7.7,8.5-7.7,8.5c-1.4,2.6-0.8,5.7,2,8.6c1.6,1.6,3.2,0.8,6.1-2.1l0,0c2.6-2.6,2.2-4.6,0.8-5.4
			c-0.3-0.2-1.3-0.4-1.5-0.4c0,0-0.9-1.4,3.6-5.8c4.4-4.4,5.7-3.5,5.7-3.5c0,0.2,0.2,1.2,0.4,1.5c0.8,1.4,2.8,1.8,5.4-0.8l0,0
			c2.9-2.9,3.6-4.5,2.1-6.1C36.1,21.2,32.4,20.2,29.9,21.5L29.9,21.5z"/>
	</g>
</g>
</svg>
