<?xml version="1.0" encoding="UTF-8" standalone="no"?>
<svg width="63px" height="58px" viewBox="0 0 63 58" version="1.1" xmlns="http://www.w3.org/2000/svg" xmlns:xlink="http://www.w3.org/1999/xlink" xmlns:sketch="http://www.bohemiancoding.com/sketch/ns">
    <!-- Generator: Sketch 3.0.3 (7891) - http://www.bohemiancoding.com/sketch -->
    <title>Phone</title>
    <desc>Created with Sketch.</desc>
    <defs></defs>
    <g id="Page-1" stroke="none" stroke-width="1" fill="none" fill-rule="evenodd" sketch:type="MSPage">
        <g id="Phone" sketch:type="MSLayerGroup" transform="translate(1.000000, 1.000000)" stroke="#6B6C6E" stroke-width="2">
            <path d="M51.1,1 C51.1,1 44.2,0.1 30.5,-7.72186134e-14 C30.5,-7.72186134e-14 30.5,-7.72186134e-14 30.4,-7.72186134e-14 C16.7,-0.1 10.3,1 10.3,1 C4.8,2.8 0.1,8.2 0,16.5 C0,21.1 4.2,21.9 12.3,22 L12.3,22 L12.4,22 C19.6,22.1 21.9,19.1 21.2,15.9 C21.1,15.3 20,13.4 19.7,13.1 C19.7,13.1 18.3,10.9 30.6,11 C42.9,11.1 41.4,13.3 41.4,13.3 C41.1,13.6 40,15.5 39.8,16.1 C39,19.3 41.6,22 48.8,22 L48.9,22 L48.9,22 C57,22.1 60.9,21.7 61,17.1 C61.1,10.2 56.6,2.9 51.1,1 L51.1,1 Z" id="Shape" sketch:type="MSShapeGroup"></path>
            <path d="M17,32.8 C17,33.9 16.1,34.8 15,34.8 L9.1,34.8 C8,34.8 7.1,33.9 7.1,32.8 L7.1,30 C7.1,28.9 8,28 9.1,28 L15,28 C16.1,28 17,28.9 17,30 L17,32.8 L17,32.8 Z" id="Shape" sketch:type="MSShapeGroup"></path>
            <path d="M35,32.8 C35,33.9 34.1,34.8 33,34.8 L27.1,34.8 C26,34.8 25.1,33.9 25.1,32.8 L25.1,30 C25.1,28.9 26,28 27.1,28 L33,28 C34.1,28 35,28.9 35,30 L35,32.8 L35,32.8 Z" id="Shape" sketch:type="MSShapeGroup"></path>
            <path d="M53,32.8 C53,33.9 52.1,34.8 51,34.8 L45.1,34.8 C44,34.8 43.1,33.9 43.1,32.8 L43.1,30 C43.1,28.9 44,28 45.1,28 L51,28 C52.1,28 53,28.9 53,30 L53,32.8 L53,32.8 Z" id="Shape" sketch:type="MSShapeGroup"></path>
            <path d="M17,43.8 C17,44.9 16.1,45.8 15,45.8 L9.1,45.8 C8,45.8 7.1,44.9 7.1,43.8 L7.1,41 C7.1,39.9 8,39 9.1,39 L15,39 C16.1,39 17,39.9 17,41 L17,43.8 L17,43.8 Z" id="Shape" sketch:type="MSShapeGroup"></path>
            <path d="M35,43.8 C35,44.9 34.1,45.8 33,45.8 L27.1,45.8 C26,45.8 25.1,44.9 25.1,43.8 L25.1,41 C25.1,39.9 26,39 27.1,39 L33,39 C34.1,39 35,39.9 35,41 L35,43.8 L35,43.8 Z" id="Shape" sketch:type="MSShapeGroup"></path>
            <path d="M53,43.8 C53,44.9 52.1,45.8 51,45.8 L45.1,45.8 C44,45.8 43.1,44.9 43.1,43.8 L43.1,41 C43.1,39.9 44,39 45.1,39 L51,39 C52.1,39 53,39.9 53,41 L53,43.8 L53,43.8 Z" id="Shape" sketch:type="MSShapeGroup"></path>
            <path d="M17,54 C17,55.1 16.1,56 15,56 L9.1,56 C8,56 7.1,55.1 7.1,54 L7.1,51.2 C7.1,50.1 8,49.2 9.1,49.2 L15,49.2 C16.1,49.2 17,50.1 17,51.2 L17,54 L17,54 Z" id="Shape" sketch:type="MSShapeGroup"></path>
            <path d="M35,54 C35,55.1 34.1,56 33,56 L27.1,56 C26,56 25.1,55.1 25.1,54 L25.1,51.2 C25.1,50.1 26,49.2 27.1,49.2 L33,49.2 C34.1,49.2 35,50.1 35,51.2 L35,54 L35,54 Z" id="Shape" sketch:type="MSShapeGroup"></path>
            <path d="M53,54 C53,55.1 52.1,56 51,56 L45.1,56 C44,56 43.1,55.1 43.1,54 L43.1,51.2 C43.1,50.1 44,49.2 45.1,49.2 L51,49.2 C52.1,49.2 53,50.1 53,51.2 L53,54 L53,54 Z" id="Shape" sketch:type="MSShapeGroup"></path>
        </g>
    </g>
</svg>