<?xml version="1.0" encoding="utf-8"?>
<!-- Generator: Adobe Illustrator 17.0.0, SVG Export Plug-In . SVG Version: 6.00 Build 0)  -->
<!DOCTYPE svg PUBLIC "-//W3C//DTD SVG 1.1//EN" "http://www.w3.org/Graphics/SVG/1.1/DTD/svg11.dtd">
<svg version="1.1" id="Layer_1" xmlns:sketch="http://www.bohemiancoding.com/sketch/ns"
	 xmlns="http://www.w3.org/2000/svg" xmlns:xlink="http://www.w3.org/1999/xlink" x="0px" y="0px" width="68px" height="68px"
	 viewBox="0 0 68 68" enable-background="new 0 0 68 68" xml:space="preserve">
<title>Pin</title>
<desc>Created with Sketch.</desc>
<g id="Page-1" sketch:type="MSPage">
	<g id="Pin" transform="translate(5.000000, 2.000000)" sketch:type="MSLayerGroup">
		<path id="Shape_2_" sketch:type="MSShapeGroup" fill="none" stroke="#6B6C6E" stroke-width="2" d="M0,61l19.9-27.4l7.4,7.4L0,61z"
			/>
		<path id="Shape_1_" sketch:type="MSShapeGroup" fill="none" stroke="#6B6C6E" stroke-width="2" stroke-linejoin="round" d="
			M34.9,6.4c-9.75,9.75-16.693,12.537-18,13l4.233,4.129L16.9,19.4c-0.6-0.6-1.6-0.6-2.2,0l-3.4,3.4c-0.6,0.6-0.6,1.6,0,2.2L36,49.7
			c0.6,0.6,1.6,0.6,2.2,0l2.7-2.7c0.6-0.6,0.6-1.6,0-2.2L30.805,34.528L40.9,44.8c0.611-1.385,4.383-9.373,13.8-18.7"/>
		<path id="Shape" sketch:type="MSShapeGroup" fill="none" stroke="#6B6C6E" stroke-width="2" stroke-linecap="round" d="M38.3,9.7
			L34,5.4c-0.6-0.6-0.6-1.6,0-2.2l2.8-2.8c0.6-0.6,1.6-0.6,2.2,0L60.6,22c0.6,0.6,0.6,1.6,0,2.2L57.8,27c-0.6,0.6-1.6,0.6-2.2,0
			l-5-5"/>
	</g>
</g>
</svg>
