<?xml version="1.0" encoding="UTF-8" standalone="no"?>
<svg width="63px" height="62px" viewBox="0 0 63 62" version="1.1" xmlns="http://www.w3.org/2000/svg" xmlns:xlink="http://www.w3.org/1999/xlink" xmlns:sketch="http://www.bohemiancoding.com/sketch/ns">
    <!-- Generator: Sketch 3.0.3 (7891) - http://www.bohemiancoding.com/sketch -->
    <title>Ping-pong</title>
    <desc>Created with Sketch.</desc>
    <defs></defs>
    <g id="Page-1" stroke="none" stroke-width="1" fill="none" fill-rule="evenodd" sketch:type="MSPage">
        <g id="Ping-pong" sketch:type="MSLayerGroup" transform="translate(1.000000, 1.000000)" stroke="#6B6C6E" stroke-width="2">
            <path d="M12.4,27.7 C12.4,37.4 15.6,39.5 12.4,44.4" id="Shape" sketch:type="MSShapeGroup"></path>
            <path d="M33.3,48.7 C23.6,48.7 22.2,44.9 17.3,48" id="Shape" sketch:type="MSShapeGroup"></path>
            <path d="M55,38.4 C63.8,29.6 62.5,16.3 53.6,7.4 C44.7,-1.5 31.3,-2.8 22.6,6 C17,11.6 11.2,20.1 12.1,28 L33,49 C41,49.8 49.4,44.1 55,38.4 L55,38.4 Z" id="Shape" sketch:type="MSShapeGroup"></path>
            <path d="M25.6,41 C25.6,41 15.5,47.2 10.6,54.9 C5.7,62.6 6.4,59.1 6.4,59.1 C5.6,59.9 4.3,59.8 3.4,58.9 L1,56.5 C0.1,55.6 -5.06483744e-13,54.3 0.8,53.5 C0.8,53.5 -2.7,54.2 5,49.3 C12.7,44.4 20,35.4 20,35.4" id="Shape" sketch:type="MSShapeGroup"></path>
            <circle id="Oval" sketch:type="MSShapeGroup" cx="40" cy="37" r="5"></circle>
        </g>
    </g>
</svg>