<?xml version="1.0" encoding="UTF-8" standalone="no"?>
<svg width="52px" height="64px" viewBox="0 0 52 64" version="1.1" xmlns="http://www.w3.org/2000/svg" xmlns:xlink="http://www.w3.org/1999/xlink" xmlns:sketch="http://www.bohemiancoding.com/sketch/ns">
    <!-- Generator: Sketch 3.0.3 (7891) - http://www.bohemiancoding.com/sketch -->
    <title>Playlist</title>
    <desc>Created with Sketch.</desc>
    <defs></defs>
    <g id="Page-1" stroke="none" stroke-width="1" fill="none" fill-rule="evenodd" sketch:type="MSPage">
        <g id="Playlist" sketch:type="MSLayerGroup" transform="translate(1.000000, 2.000000)" stroke="#6B6C6E" stroke-width="2">
            <path d="M25.6,46.6 C27.4,50.6 23.2,56.2 16.2,59.2 C9.2,62.2 2.2,61.4 0.4,57.5 C-1.4,53.5 2.8,47.9 9.8,44.9 C15.9,42.3 22.1,42.5 24.7,45.3 C25.1,45.6 25.4,46.1 25.6,46.6 L25.6,46.6 Z" id="Shape" sketch:type="MSShapeGroup"></path>
            <path d="M26,48.2 L26,0.2 C26,0.2 31.1,3 36.3,7.1 C46.1,14.8 51.5,25.6 48.1,34.5" id="Shape" sketch:type="MSShapeGroup"></path>
            <path d="M49,59 C49,60.1 48.1,61 47,61 L33,61 C31.9,61 31,60.1 31,59 L31,37 C31,35.9 31.9,35 33,35 L47,35 C48.1,35 49,35.9 49,37 L49,59 L49,59 Z" id="Shape" sketch:type="MSShapeGroup"></path>
            <path d="M34,40 L42,40" id="Shape" sketch:type="MSShapeGroup"></path>
            <path d="M34,47 L43,47" id="Shape" sketch:type="MSShapeGroup"></path>
            <path d="M34,44 L46,44" id="Shape" sketch:type="MSShapeGroup"></path>
            <path d="M34,51 L45,51" id="Shape" sketch:type="MSShapeGroup"></path>
            <path d="M34,56.1 L45.9,56.1" id="Shape" sketch:type="MSShapeGroup"></path>
        </g>
    </g>
</svg>