<?xml version="1.0" encoding="UTF-8" standalone="no"?>
<svg width="64px" height="42px" viewBox="0 0 64 42" version="1.1" xmlns="http://www.w3.org/2000/svg" xmlns:xlink="http://www.w3.org/1999/xlink" xmlns:sketch="http://www.bohemiancoding.com/sketch/ns">
    <!-- Generator: Sketch 3.0.3 (7891) - http://www.bohemiancoding.com/sketch -->
    <title>Plug</title>
    <desc>Created with Sketch.</desc>
    <defs></defs>
    <g id="Page-1" stroke="none" stroke-width="1" fill="none" fill-rule="evenodd" sketch:type="MSPage">
        <g id="Plug" sketch:type="MSLayerGroup" transform="translate(1.000000, 1.000000)" stroke="#6B6C6E" stroke-width="2">
            <path d="M20.1,33.7 L14.4,39.4 C14,39.8 13.4,39.8 13,39.4 L11.6,38 C11.2,37.6 11.2,37 11.6,36.6 L17.3,30.9" id="Shape" sketch:type="MSShapeGroup"></path>
            <path d="M8.8,22.4 L3.1,28.1 C2.7,28.5 2.1,28.5 1.7,28.1 L0.3,26.7 C-0.1,26.3 -0.1,25.7 0.3,25.3 L6,19.6" id="Shape" sketch:type="MSShapeGroup"></path>
            <path d="M31.4,12.5 L33.6,10.3 C34,9.9 34,9.3 33.6,8.9 L30.8,6.1 C30.4,5.7 29.8,5.7 29.4,6.1 L27.2,8.3 C20.9,3 13.9,3.2 1.7,15.4 L24.3,38 C36.5,25.8 37.4,19.3 31.4,12.5 L31.4,12.5 Z" id="Shape" sketch:type="MSShapeGroup"></path>
            <path d="M32.2,7.5 L38.5,1.2 C38.5,1.2 42,-2.3 47,2.6 C51.9,7.5 55.9,7.9 62.1,1.6" id="Shape" sketch:type="MSShapeGroup"></path>
            <path d="M12.3,17.5 L22.2,27.4" id="Shape" sketch:type="MSShapeGroup"></path>
            <path d="M15.1,14.7 L25,24.6" id="Shape" sketch:type="MSShapeGroup"></path>
        </g>
    </g>
</svg>