<?xml version="1.0" encoding="UTF-8" standalone="no"?>
<svg width="48px" height="65px" viewBox="0 0 48 65" version="1.1" xmlns="http://www.w3.org/2000/svg" xmlns:xlink="http://www.w3.org/1999/xlink" xmlns:sketch="http://www.bohemiancoding.com/sketch/ns">
    <!-- Generator: Sketch 3.0.3 (7891) - http://www.bohemiancoding.com/sketch -->
    <title>Pocket-bag</title>
    <desc>Created with Sketch.</desc>
    <defs></defs>
    <g id="Page-1" stroke="none" stroke-width="1" fill="none" fill-rule="evenodd" sketch:type="MSPage">
        <g id="Pocket-bag" sketch:type="MSLayerGroup" transform="translate(1.000000, 3.000000)" stroke="#6B6C6E" stroke-width="2">
            <path d="M14.7,2.4 C14.7,2.4 24.5,-4.2 26.1,5.8" id="Shape" sketch:type="MSShapeGroup"></path>
            <path d="M25.5,3 C25.5,3 27.1,-0.4 36,-2.68673972e-13 C36,2.7 33.4,9.6 29.5,10.9 C39,16.4 46,32.5 46,42.2 C46,54 35.7,60.9 23,60.9 C10.3,60.9 0,54 0,42.2 C0,32.5 6.9,16.3 16.5,10.9 C12.6,9.6 10,2.8 10,-2.68673972e-13 C10,-2.68673972e-13 14.4,3.8 20,3.8" id="Shape" sketch:type="MSShapeGroup"></path>
            <path d="M16.3,11 L31.1,11" id="Shape" sketch:type="MSShapeGroup"></path>
            <path d="M31.1,12 C31.1,12 42.3,11.7 42.3,17.9" id="Shape" sketch:type="MSShapeGroup"></path>
            <path d="M31.3,10.1 C31.3,10.1 40,10.6 45.2,7.4" id="Shape" sketch:type="MSShapeGroup"></path>
        </g>
    </g>
</svg>