<?xml version="1.0" encoding="UTF-8" standalone="no"?>
<svg width="64px" height="59px" viewBox="0 0 64 59" version="1.1" xmlns="http://www.w3.org/2000/svg" xmlns:xlink="http://www.w3.org/1999/xlink" xmlns:sketch="http://www.bohemiancoding.com/sketch/ns">
    <!-- Generator: Sketch 3.0.3 (7891) - http://www.bohemiancoding.com/sketch -->
    <title>Printer</title>
    <desc>Created with Sketch.</desc>
    <defs></defs>
    <g id="Page-1" stroke="none" stroke-width="1" fill="none" fill-rule="evenodd" sketch:type="MSPage">
        <g id="Printer" sketch:type="MSLayerGroup" transform="translate(1.000000, 1.000000)" stroke="#6B6C6E" stroke-width="2">
            <path d="M13.7,48 L2,48 C0.9,48 0,47.1 0,46 L0,19 C0,17.9 0.9,17 2,17 L60,17 C61.1,17 62,17.9 62,19 L62,46 C62,47.1 61.1,48 60,48 L48.4,48" id="Shape" sketch:type="MSShapeGroup"></path>
            <path d="M49,55 C49,56.1 48.1,57 47,57 L15,57 C13.9,57 13,56.1 13,55 L15,43 C15,41.9 15.9,41 17,41 L45,41 C46.1,41 47,41.9 47,43 L49,55 L49,55 Z" id="Shape" sketch:type="MSShapeGroup"></path>
            <path d="M13,8 L13,18" id="Shape" sketch:type="MSShapeGroup"></path>
            <path d="M49,8 L49,18" id="Shape" sketch:type="MSShapeGroup"></path>
            <rect id="Rectangle-path" sketch:type="MSShapeGroup" x="15" y="0" width="32" height="17"></rect>
            <path d="M52,23 L58,23" id="Shape" sketch:type="MSShapeGroup"></path>
            <path d="M21,46 L41,46" id="Shape" sketch:type="MSShapeGroup"></path>
            <path d="M18,51 L44,51" id="Shape" sketch:type="MSShapeGroup"></path>
        </g>
    </g>
</svg>