<?xml version="1.0" encoding="UTF-8" standalone="no"?>
<svg width="64px" height="57px" viewBox="0 0 64 57" version="1.1" xmlns="http://www.w3.org/2000/svg" xmlns:xlink="http://www.w3.org/1999/xlink" xmlns:sketch="http://www.bohemiancoding.com/sketch/ns">
    <!-- Generator: Sketch 3.0.3 (7891) - http://www.bohemiancoding.com/sketch -->
    <title>Radio</title>
    <desc>Created with Sketch.</desc>
    <defs></defs>
    <g id="Page-1" stroke="none" stroke-width="1" fill="none" fill-rule="evenodd" sketch:type="MSPage">
        <g id="Radio" sketch:type="MSLayerGroup" transform="translate(1.000000, 1.000000)" stroke="#6B6C6E" stroke-width="2">
            <path d="M62,53 C62,54.1 61.1,55 60,55 L2,55 C0.9,55 0,54.1 0,53 L0,16 C0,14.9 0.9,14 2,14 L60,14 C61.1,14 62,14.9 62,16 L62,53 L62,53 Z" id="Shape" sketch:type="MSShapeGroup"></path>
            <circle id="Oval" sketch:type="MSShapeGroup" cx="18" cy="35" r="13"></circle>
            <path d="M8,27 L28.1,27" id="Shape" sketch:type="MSShapeGroup"></path>
            <path d="M5,32 L30,32" id="Shape" sketch:type="MSShapeGroup"></path>
            <path d="M5,38 L30,38" id="Shape" sketch:type="MSShapeGroup"></path>
            <path d="M7.8,43 L28,43" id="Shape" sketch:type="MSShapeGroup"></path>
            <path d="M36,26 L58,26" id="Shape" sketch:type="MSShapeGroup"></path>
            <path d="M51,23 L51,29" id="Shape" sketch:type="MSShapeGroup"></path>
            <circle id="Oval" sketch:type="MSShapeGroup" cx="51" cy="45" r="4"></circle>
            <path d="M2,14 L57,0" id="Shape" sketch:type="MSShapeGroup"></path>
        </g>
    </g>
</svg>