<?xml version="1.0" encoding="UTF-8" standalone="no"?>
<svg width="64px" height="54px" viewBox="0 0 64 54" version="1.1" xmlns="http://www.w3.org/2000/svg" xmlns:xlink="http://www.w3.org/1999/xlink" xmlns:sketch="http://www.bohemiancoding.com/sketch/ns">
    <!-- Generator: Sketch 3.0.3 (7891) - http://www.bohemiancoding.com/sketch -->
    <title>Rice-cooker</title>
    <desc>Created with Sketch.</desc>
    <defs></defs>
    <g id="Page-1" stroke="none" stroke-width="1" fill="none" fill-rule="evenodd" sketch:type="MSPage">
        <g id="Rice-cooker" sketch:type="MSLayerGroup" transform="translate(1.000000, 1.000000)" stroke="#6B6C6E" stroke-width="2">
            <path d="M60,17 C58.9,17 58,17.9 58,19 L58,14 L4,14 L4,19 C4,17.9 3.1,17 2,17 C0.9,17 0,17.9 0,19 L0,26 C0,27.1 0.9,28 2,28 C3.1,28 4,27.1 4,26 L4,46 C4,49.3 6.7,52 10,52 L52,52 C55.3,52 58,49.3 58,46 L58,26 C58,27.1 58.9,28 60,28 C61.1,28 62,27.1 62,26 L62,19 C62,17.9 61.1,17 60,17 L60,17 Z" id="Shape" sketch:type="MSShapeGroup"></path>
            <path d="M58,14 C58,9.3 47.4,4.8 33.8,4.1 C33.9,3.8 34,3.4 34,3 C34,1.3 32.7,0 31,0 C29.3,0 28,1.3 28,3 C28,3.4 28.1,3.7 28.2,4.1 C14.6,4.8 4,9.3 4,14" id="Shape" sketch:type="MSShapeGroup"></path>
        </g>
    </g>
</svg>