<?xml version="1.0" encoding="UTF-8" standalone="no"?>
<svg width="56px" height="65px" viewBox="0 0 56 65" version="1.1" xmlns="http://www.w3.org/2000/svg" xmlns:xlink="http://www.w3.org/1999/xlink" xmlns:sketch="http://www.bohemiancoding.com/sketch/ns">
    <!-- Generator: Sketch 3.0.3 (7891) - http://www.bohemiancoding.com/sketch -->
    <title>Road-sign-right</title>
    <desc>Created with Sketch.</desc>
    <defs></defs>
    <g id="Page-1" stroke="none" stroke-width="1" fill="none" fill-rule="evenodd" sketch:type="MSPage">
        <g id="Road-sign-right" sketch:type="MSLayerGroup" transform="translate(1.000000, 2.000000)" stroke="#6B6C6E" stroke-width="2">
            <path d="M22,9.9 L43,9.9 C44.1,9.9 53,16.9 53,16.9 C53,16.9 44.1,23.9 43,23.9 L25,23.9" id="Shape" sketch:type="MSShapeGroup"></path>
            <path d="M23,23.9 L2,23.9 C0.9,23.9 0,23 0,21.9 L0,11.9 C0,10.8 0.9,9.9 2,9.9 L20,9.9" id="Shape" sketch:type="MSShapeGroup"></path>
            <path d="M19,9.9 L19,1.9 C19,0.8 19.9,-0.1 21,-0.1 L24,-0.1 C25.1,-0.1 26,0.8 26,1.9 L26,9.9" id="Shape" sketch:type="MSShapeGroup"></path>
            <path d="M26,23.9 L26,59.9 C26,61 25.1,61.9 24,61.9 L21,61.9 C19.9,61.9 19,61 19,59.9 L19,23.9" id="Shape" sketch:type="MSShapeGroup"></path>
        </g>
    </g>
</svg>