<?xml version="1.0" encoding="UTF-8" standalone="no"?>
<svg width="64px" height="64px" viewBox="0 0 64 64" version="1.1" xmlns="http://www.w3.org/2000/svg" xmlns:xlink="http://www.w3.org/1999/xlink" xmlns:sketch="http://www.bohemiancoding.com/sketch/ns">
    <!-- Generator: Sketch 3.0.3 (7891) - http://www.bohemiancoding.com/sketch -->
    <title>Roller</title>
    <desc>Created with Sketch.</desc>
    <defs></defs>
    <g id="Page-1" stroke="none" stroke-width="1" fill="none" fill-rule="evenodd" sketch:type="MSPage">
        <g id="Roller" sketch:type="MSLayerGroup" transform="translate(2.000000, 1.000000)" stroke="#6B6C6E" stroke-width="2">
            <path d="M53.3,46.8 C52.5,47.6 51.2,47.6 50.5,46.8 L14.3,10.6 C13.5,9.8 13.5,8.5 14.3,7.8 L21.4,0.7 C22.2,-0.1 23.5,-0.1 24.2,0.7 L60.4,36.9 C61.2,37.7 61.2,39 60.4,39.7 L53.3,46.8 L53.3,46.8 Z" id="Shape" sketch:type="MSShapeGroup"></path>
            <path d="M15.7,2.1 L17.8,4.2" id="Shape" sketch:type="MSShapeGroup"></path>
            <path d="M56.9,43.2 L59.7,46.1 L51.2,54.6 L25.6,36.1 L20.6,41.1" id="Shape" sketch:type="MSShapeGroup"></path>
            <path d="M6,61.4 C5.1,62.3 3.3,62.1 2,60.8 L0.9,59.7 C-0.4,58.4 -0.6,56.7 0.3,55.7 L16.8,39.2 C17.7,38.3 19.5,38.5 20.8,39.8 L21.9,40.9 C23.2,42.2 23.4,43.9 22.5,44.9 L6,61.4 L6,61.4 Z" id="Shape" sketch:type="MSShapeGroup"></path>
            <path d="M22.8,4.9 L56.9,39" id="Shape" sketch:type="MSShapeGroup"></path>
        </g>
    </g>
</svg>