<?xml version="1.0" encoding="utf-8"?>
<!-- Generator: Adobe Illustrator 17.0.0, SVG Export Plug-In . SVG Version: 6.00 Build 0)  -->
<!DOCTYPE svg PUBLIC "-//W3C//DTD SVG 1.1//EN" "http://www.w3.org/Graphics/SVG/1.1/DTD/svg11.dtd">
<svg version="1.1" id="Layer_1" xmlns:sketch="http://www.bohemiancoding.com/sketch/ns"
	 xmlns="http://www.w3.org/2000/svg" xmlns:xlink="http://www.w3.org/1999/xlink" x="0px" y="0px" width="64px" height="52px"
	 viewBox="0 0 64 52" enable-background="new 0 0 64 52" xml:space="preserve">
<title>Saver-box</title>
<desc>Created with Sketch.</desc>
<g id="Page-1" sketch:type="MSPage">
	<g id="Saver-box" transform="translate(1.000000, 1.000000)" sketch:type="MSLayerGroup">
		<path id="Shape_4_" sketch:type="MSShapeGroup" fill="none" stroke="#6B6C6E" stroke-width="2" d="M62,47V2c0-1.1-0.9-2-2-2H2
			C0.9,0,0,0.9,0,2v45c0,1.1,0.9,2,2,2h5v1h7v-1h32v1h8v-1h6C61.1,49,62,48.1,62,47L62,47L62,47z"/>
		<path id="Shape" sketch:type="MSShapeGroup" fill="none" stroke="#6B6C6E" stroke-width="2" d="M54,40c0,1.1-0.9,2-2,2H10
			c-1.1,0-2-0.9-2-2V10.1c0-1.1,0.9-2,2-2h42c1.1,0,2,0.9,2,2V40L54,40z"/>
		<circle id="Oval" sketch:type="MSShapeGroup" fill="none" stroke="#6B6C6E" stroke-width="2" cx="31" cy="25" r="6">
		</circle>
		<path id="Shape_1_" sketch:type="MSShapeGroup" fill="none" stroke="#6B6C6E" stroke-width="2" d="M30.9,12.1v7"/>
		<path id="Shape_2_" sketch:type="MSShapeGroup" fill="none" stroke="#6B6C6E" stroke-width="2" d="M25.9,28.1l-5,4.9"/>
		<path id="Shape_3_" sketch:type="MSShapeGroup" fill="none" stroke="#6B6C6E" stroke-width="2" d="M35.9,28.1l5,4.9"/>
	</g>
</g>
</svg>
