<?xml version="1.0" encoding="UTF-8" standalone="no"?>
<svg width="64px" height="46px" viewBox="0 0 64 46" version="1.1" xmlns="http://www.w3.org/2000/svg" xmlns:xlink="http://www.w3.org/1999/xlink" xmlns:sketch="http://www.bohemiancoding.com/sketch/ns">
    <!-- Generator: Sketch 3.0.3 (7891) - http://www.bohemiancoding.com/sketch -->
    <title>Scale</title>
    <desc>Created with Sketch.</desc>
    <defs></defs>
    <g id="Page-1" stroke="none" stroke-width="1" fill="none" fill-rule="evenodd" sketch:type="MSPage">
        <g id="Scale" sketch:type="MSLayerGroup" transform="translate(1.000000, 1.000000)" stroke="#6B6C6E" stroke-width="2">
            <path d="M62,42 C62,43.1 61.1,44 60,44 L2,44 C0.9,44 0,43.1 0,42 L0,2 C0,0.9 0.9,0 2,0 L60,0 C61.1,0 62,0.9 62,2 L62,42 L62,42 Z" id="Shape" sketch:type="MSShapeGroup"></path>
            <g id="Group" transform="translate(49.000000, 31.000000)" sketch:type="MSShapeGroup">
                <path d="M1,1 L9,9" id="Shape"></path>
                <path d="M0,7 L0,0 L7,0" id="Shape"></path>
            </g>
            <g id="Group" transform="translate(49.000000, 4.000000)" sketch:type="MSShapeGroup">
                <path d="M1,8 L9,0" id="Shape"></path>
                <path d="M0,2 L0,9 L7,9" id="Shape"></path>
            </g>
            <g id="Group" transform="translate(4.000000, 4.000000)" sketch:type="MSShapeGroup">
                <path d="M8,8 L0,0" id="Shape"></path>
                <path d="M9,2 L9,9 L2,9" id="Shape"></path>
            </g>
            <g id="Group" transform="translate(4.000000, 31.000000)" sketch:type="MSShapeGroup">
                <path d="M8,1 L0,9" id="Shape"></path>
                <path d="M9,7 L9,0 L2,0" id="Shape"></path>
            </g>
        </g>
    </g>
</svg>