<?xml version="1.0" encoding="utf-8"?>
<!-- Generator: Adobe Illustrator 17.0.0, SVG Export Plug-In . SVG Version: 6.00 Build 0)  -->
<!DOCTYPE svg PUBLIC "-//W3C//DTD SVG 1.1//EN" "http://www.w3.org/Graphics/SVG/1.1/DTD/svg11.dtd">
<svg version="1.1" id="Layer_1" xmlns:sketch="http://www.bohemiancoding.com/sketch/ns"
	 xmlns="http://www.w3.org/2000/svg" xmlns:xlink="http://www.w3.org/1999/xlink" x="0px" y="0px" width="64px" height="51px"
	 viewBox="0 0 64 51" enable-background="new 0 0 64 51" xml:space="preserve">
<title>Scooter</title>
<desc>Created with Sketch.</desc>
<g id="Page-1" sketch:type="MSPage">
	<g id="Scooter" transform="translate(1.000000, 1.000000)" sketch:type="MSLayerGroup">
		<path id="Shape_1_" sketch:type="MSShapeGroup" fill="none" stroke="#6B6C6E" stroke-width="2" d="M21.3,39c0,5-3.9,9-8.6,9
			s-8.6-4-8.6-9"/>
		<path id="Shape_5_" sketch:type="MSShapeGroup" fill="none" stroke="#6B6C6E" stroke-width="2" d="M59.5,37.6
			c0.3,0.8,0.5,1.7,0.5,2.7c0,4.3-3.6,7.8-7.9,7.8c-4.4,0-8.2-3.4-8.2-8.4"/>
		<path id="Shape_6_" sketch:type="MSShapeGroup" fill="none" stroke="#6B6C6E" stroke-width="2" d="M47.6,28.5c1.3-0.6,2.8-1,4.3-1
			c5.6,0,10.1,4.6,10.1,10.3c-6.6,0.2-17.2,3.3-21.7-0.5"/>
		<path id="Shape" sketch:type="MSShapeGroup" fill="none" stroke="#6B6C6E" stroke-width="2" d="M11.7,19.9c0,0-11.2,2.3-11.7,17.3
			c-0.1,1.1,1.2,1.9,7.9,1.9h24.8c0,0,11.4-0.3,16.1-13.3c6.1-4-1.8-15.5-1.8-15.5s2,0.5,2.8-1.8s3.1-8.3-1.3-8.4
			c-3-0.1-11,2.9-11,2.9s-6.3,0.9-4.1,3c2.3,2.2,2.8-0.1,3.9,0c1.1,0.1,5.3,2.1,5.7,11s-5.5,15.6-18.1,13.6c-2.9-0.9-3.2-8-0.3-10.7
			c0,0,1.9-1.8,2.2-3c0.3-1.3-0.5-1.6-2-1.5c-1.5,0.1-11.2-0.8-14.8-1.5c-3.7-0.8-4.3,2.9-3.9,4.2C6.4,19.4,7.6,20.6,11.7,19.9
			L11.7,19.9z"/>
		<path id="Shape_2_" sketch:type="MSShapeGroup" fill="none" stroke="#6B6C6E" stroke-width="2" d="M6.1,29.1h7.7"/>
		<path id="Shape_3_" sketch:type="MSShapeGroup" fill="none" stroke="#6B6C6E" stroke-width="2" d="M5.1,32h9.8"/>
		<path id="Shape_4_" sketch:type="MSShapeGroup" fill="none" stroke="#6B6C6E" stroke-width="2" d="M6.1,34.9h7.8"/>
	</g>
</g>
</svg>
