<?xml version="1.0" encoding="UTF-8" standalone="no"?>
<svg width="64px" height="65px" viewBox="0 0 64 65" version="1.1" xmlns="http://www.w3.org/2000/svg" xmlns:xlink="http://www.w3.org/1999/xlink" xmlns:sketch="http://www.bohemiancoding.com/sketch/ns">
    <!-- Generator: Sketch 3.0.3 (7891) - http://www.bohemiancoding.com/sketch -->
    <title>Screw-driver</title>
    <desc>Created with Sketch.</desc>
    <defs></defs>
    <g id="Page-1" stroke="none" stroke-width="1" fill="none" fill-rule="evenodd" sketch:type="MSPage">
        <g id="Screw-driver" sketch:type="MSLayerGroup" transform="translate(2.000000, 2.000000)" stroke="#6B6C6E" stroke-width="2">
            <path d="M38.6,32 L60.4,10.2 C61.2,9.4 61.2,8.2 60.4,7.4 L53.4,0.4 C52.6,-0.4 51.4,-0.4 50.6,0.4 L28.8,22.2 C28.2,22.8 28.1,23.7 28.4,24.5 C28,24.6 27.7,24.8 27.4,25 L25.3,25.7 C24.5,26.5 24.5,27.7 25.3,28.5 L32.3,35.5 C33.1,36.3 34.3,36.3 35.1,35.5 L35.8,33.4 C36.1,33.1 36.3,32.8 36.3,32.4 C37.1,32.7 38,32.6 38.6,32 L38.6,32 Z" id="Shape" sketch:type="MSShapeGroup"></path>
            <path d="M51.3,5.2 L33.7,22.8" id="Shape" sketch:type="MSShapeGroup"></path>
            <path d="M55.5,9.5 L37.9,27" id="Shape" sketch:type="MSShapeGroup"></path>
            <path d="M2.8,60.8 L-0.1,58 L5.6,49.6 L9.1,47.4 L26.7,29.9 L30.9,34.1 L13.3,51.7 L11.2,55.2 L2.8,60.8 Z" id="Shape" sketch:type="MSShapeGroup"></path>
        </g>
    </g>
</svg>