<?xml version="1.0" encoding="utf-8"?>
<!-- Generator: Adobe Illustrator 17.0.0, SVG Export Plug-In . SVG Version: 6.00 Build 0)  -->
<!DOCTYPE svg PUBLIC "-//W3C//DTD SVG 1.1//EN" "http://www.w3.org/Graphics/SVG/1.1/DTD/svg11.dtd">
<svg version="1.1" id="Layer_1" xmlns:sketch="http://www.bohemiancoding.com/sketch/ns"
	 xmlns="http://www.w3.org/2000/svg" xmlns:xlink="http://www.w3.org/1999/xlink" x="0px" y="0px" width="50px" height="64px"
	 viewBox="0 0 50 64" enable-background="new 0 0 50 64" xml:space="preserve">
<title>SD-card</title>
<desc>Created with Sketch.</desc>
<g id="Page-1" sketch:type="MSPage">
	<g id="SD-card" transform="translate(1.000000, 1.000000)" sketch:type="MSLayerGroup">
		<path id="Shape" sketch:type="MSShapeGroup" fill="none" stroke="#6B6C6E" stroke-width="2" d="M48,0H6C4.9,0,4,0.9,4,2v21l-4,9
			v28c0,1.1,0.9,2,2,2h44c1.1,0,2-0.9,2-2V11V0L48,0z"/>
		
			<rect id="Rectangle-path_5_" x="6" y="32" sketch:type="MSShapeGroup" fill="none" stroke="#6B6C6E" stroke-width="2" width="36" height="23">
		</rect>
		
			<line id="Rectangle-path_6_" sketch:type="MSShapeGroup" fill="none" stroke="#6B6C6E" stroke-width="2" x1="14" y1="14" x2="14" y2="5">
		</line>
		
			<line id="Rectangle-path_7_" sketch:type="MSShapeGroup" fill="none" stroke="#6B6C6E" stroke-width="2" x1="20" y1="7" x2="20" y2="14">
		</line>
		
			<line id="Rectangle-path_1_" sketch:type="MSShapeGroup" fill="none" stroke="#6B6C6E" stroke-width="2" x1="26" y1="7" x2="26" y2="14">
		</line>
		
			<line id="Rectangle-path_2_" sketch:type="MSShapeGroup" fill="none" stroke="#6B6C6E" stroke-width="2" x1="32" y1="5" x2="32" y2="14">
		</line>
		
			<line id="Rectangle-path_3_" sketch:type="MSShapeGroup" fill="none" stroke="#6B6C6E" stroke-width="2" x1="38" y1="9" x2="38" y2="13.9">
		</line>
	</g>
</g>
</svg>
