<?xml version="1.0" encoding="UTF-8" standalone="no"?>
<svg width="56px" height="64px" viewBox="0 0 56 64" version="1.1" xmlns="http://www.w3.org/2000/svg" xmlns:xlink="http://www.w3.org/1999/xlink" xmlns:sketch="http://www.bohemiancoding.com/sketch/ns">
    <!-- Generator: Sketch 3.0.3 (7891) - http://www.bohemiancoding.com/sketch -->
    <title>Shield-cross</title>
    <desc>Created with Sketch.</desc>
    <defs></defs>
    <g id="Page-1" stroke="none" stroke-width="1" fill="none" fill-rule="evenodd" sketch:type="MSPage">
        <g id="Shield-cross" sketch:type="MSLayerGroup" transform="translate(1.000000, 1.000000)" stroke="#6B6C6E" stroke-width="2">
            <path d="M54,12.1 C54,46 32.4,62 27,62 C21.6,62 0,46 0,12.1 C0,1.2 16.8,0 27,0 C37.2,0 54,1.1 54,12.1 L54,12.1 Z" id="Shape" sketch:type="MSShapeGroup"></path>
            <path d="M27,58 C23.2,57.2 4.1,43.4 4.1,12.1 C4.1,8.3 9.4,4 27,4 C44.6,4 49.9,8.3 49.9,12.1 C49.9,43.4 30.8,57.2 27,58 L27,58 Z" id="Shape" sketch:type="MSShapeGroup"></path>
            <path d="M27.1,4 L27.1,57.8" id="Shape" sketch:type="MSShapeGroup"></path>
            <path d="M48.1,29 L6.1,29" id="Shape" sketch:type="MSShapeGroup"></path>
        </g>
    </g>
</svg>