<?xml version="1.0" encoding="UTF-8" standalone="no"?>
<svg width="51px" height="64px" viewBox="0 0 51 64" version="1.1" xmlns="http://www.w3.org/2000/svg" xmlns:xlink="http://www.w3.org/1999/xlink" xmlns:sketch="http://www.bohemiancoding.com/sketch/ns">
    <!-- Generator: Sketch 3.0.3 (7891) - http://www.bohemiancoding.com/sketch -->
    <title>Shopping-bag</title>
    <desc>Created with Sketch.</desc>
    <defs></defs>
    <g id="Page-1" stroke="none" stroke-width="1" fill="none" fill-rule="evenodd" sketch:type="MSPage">
        <g id="Shopping-bag" sketch:type="MSLayerGroup" transform="translate(1.000000, 1.000000)" stroke="#6B6C6E" stroke-width="2">
            <path d="M11.8,10.9 C12.9,4.8 18.4,0.1 25,0.1 C31.7,0.1 37.2,4.9 38.2,11.1" id="Shape" sketch:type="MSShapeGroup"></path>
            <path d="M11,18 C11,10.8 17.6,5 25,5 C32.4,5 39,10.8 39,18" id="Shape" sketch:type="MSShapeGroup"></path>
            <path d="M48.9,60 C48.9,61.1 48,62 46.9,62 L2,62 C0.9,62 0,61.1 0,60 L0,13.1 C0,12 0.9,11.1 2,11.1 L46.9,11.1 C48,11.1 48.9,12 48.9,13.1 L48.9,60 L48.9,60 Z" id="Shape" sketch:type="MSShapeGroup"></path>
            <path d="M3,56 L45.9,56" id="Shape" sketch:type="MSShapeGroup"></path>
        </g>
    </g>
</svg>