<?xml version="1.0" encoding="UTF-8" standalone="no"?>
<svg width="64px" height="64px" viewBox="0 0 64 64" version="1.1" xmlns="http://www.w3.org/2000/svg" xmlns:xlink="http://www.w3.org/1999/xlink" xmlns:sketch="http://www.bohemiancoding.com/sketch/ns">
    <!-- Generator: Sketch 3.0.3 (7891) - http://www.bohemiancoding.com/sketch -->
    <title>Shovel</title>
    <desc>Created with Sketch.</desc>
    <defs></defs>
    <g id="Page-1" stroke="none" stroke-width="1" fill="none" fill-rule="evenodd" sketch:type="MSPage">
        <g id="Shovel" sketch:type="MSLayerGroup" transform="translate(2.000000, 2.000000)" stroke="#6B6C6E" stroke-width="2">
            <path d="M24.5,39.2 C32.3,47.3 32.5,45 20.9,56.6 C16.8,60.7 6.8,63.1 2.1,58.4 C-2.6,53.7 -0.2,43.7 3.9,39.6 C15.5,28 13.2,28.2 21.3,36" id="Shape" sketch:type="MSShapeGroup"></path>
            <path d="M22.2,41.2 L49.1,14.2 C52.2,15.7 59.7,13.6 60.4,12.9 C61.2,12.1 61.2,10.7 60.3,9.8 L50.7,0.2 C49.8,-0.7 48.4,-0.7 47.6,0.1 C46.9,0.8 45.1,8.2 46.3,11.3 L19.3,38.4" id="Shape" sketch:type="MSShapeGroup"></path>
            <path d="M47.3,2.5 L58.8,14" id="Shape" sketch:type="MSShapeGroup"></path>
            <path d="M9.6,33.8 L27,51.2" id="Shape" sketch:type="MSShapeGroup"></path>
        </g>
    </g>
</svg>