<?xml version="1.0" encoding="UTF-8" standalone="no"?>
<svg width="62px" height="64px" viewBox="0 0 62 64" version="1.1" xmlns="http://www.w3.org/2000/svg" xmlns:xlink="http://www.w3.org/1999/xlink" xmlns:sketch="http://www.bohemiancoding.com/sketch/ns">
    <!-- Generator: Sketch 3.0.3 (7891) - http://www.bohemiancoding.com/sketch -->
    <title>Slideshow</title>
    <desc>Created with Sketch.</desc>
    <defs></defs>
    <g id="Page-1" stroke="none" stroke-width="1" fill="none" fill-rule="evenodd" sketch:type="MSPage">
        <g id="Slideshow" sketch:type="MSLayerGroup" transform="translate(1.000000, 1.000000)" stroke="#6B6C6E" stroke-width="2">
            <path d="M2,6.9 C0.9,6.9 0,6 0,4.9 L0,4.9 C0,3.8 0.9,2.9 2,2.9 L58,2.9 C59.1,2.9 60,3.8 60,4.9 L60,4.9 C60,6 59.1,6.9 58,6.9 L2,6.9 L2,6.9 Z" id="Shape" sketch:type="MSShapeGroup"></path>
            <path d="M2.9,42 L2.9,6.9" id="Shape" sketch:type="MSShapeGroup"></path>
            <path d="M57,6.9 L57,42" id="Shape" sketch:type="MSShapeGroup"></path>
            <path d="M10.8,41 L2,41 C0.9,41 0,41.9 0,43 L0,43 C0,44.1 0.9,45 2,45 L58,45 C59.1,45 60,44.1 60,43 L60,43 C60,41.9 59.1,41 58,41 L49.1,41" id="Shape" sketch:type="MSShapeGroup"></path>
            <path d="M28,44.9 L28,53 L12.5,57.7 C11.7,57.7 11,58.6 11,59.7 C11,60.8 11.7,62 12.5,62 L30,57 L47.5,62 C48.3,62 49,60.8 49,59.7 C49,58.6 48.3,57.7 47.5,57.7 L32,53 L32,44.9" id="Shape" sketch:type="MSShapeGroup"></path>
            <rect id="Rectangle-path" sketch:type="MSShapeGroup" x="28" y="0" width="4" height="3"></rect>
        </g>
    </g>
</svg>