<?xml version="1.0" encoding="UTF-8" standalone="no"?>
<svg width="64px" height="57px" viewBox="0 0 64 57" version="1.1" xmlns="http://www.w3.org/2000/svg" xmlns:xlink="http://www.w3.org/1999/xlink" xmlns:sketch="http://www.bohemiancoding.com/sketch/ns">
    <!-- Generator: Sketch 3.0.3 (7891) - http://www.bohemiancoding.com/sketch -->
    <title>Sock</title>
    <desc>Created with Sketch.</desc>
    <defs></defs>
    <g id="Page-1" stroke="none" stroke-width="1" fill="none" fill-rule="evenodd" sketch:type="MSPage">
        <g id="Sock" sketch:type="MSLayerGroup" transform="translate(1.000000, 1.000000)" stroke="#6B6C6E" stroke-width="2">
            <path d="M26,2.8 C26,1.3 24.6,0 23,0 L3,0 C1.4,0 0.2,1.2 0.2,2.8 L0.2,32.6 C0.2,38.6 -1,55 21.4,55 C46.2,55 61.1,53.4 61.1,44.1 C61.1,34.8 42.5,32 32.1,32 C25.5,32 26,2.8 26,2.8 L26,2.8 Z" id="Shape" sketch:type="MSShapeGroup"></path>
            <path d="M7,0 L7,11" id="Shape" sketch:type="MSShapeGroup"></path>
            <path d="M13,0 L13,11" id="Shape" sketch:type="MSShapeGroup"></path>
            <path d="M19,0 L19,11" id="Shape" sketch:type="MSShapeGroup"></path>
            <path d="M45,33.4 L45,54" id="Shape" sketch:type="MSShapeGroup"></path>
            <path d="M0,39.2 C0.7,39.1 1.4,39 2.1,39 C9.6,39 16.7,45.2 16.7,52.7 C16.7,53.5 16.6,54.2 16.5,55" id="Shape" sketch:type="MSShapeGroup"></path>
        </g>
    </g>
</svg>