<?xml version="1.0" encoding="UTF-8" standalone="no"?>
<svg width="54px" height="63px" viewBox="0 0 54 63" version="1.1" xmlns="http://www.w3.org/2000/svg" xmlns:xlink="http://www.w3.org/1999/xlink" xmlns:sketch="http://www.bohemiancoding.com/sketch/ns">
    <!-- Generator: Sketch 3.0.3 (7891) - http://www.bohemiancoding.com/sketch -->
    <title>Speaker-louder</title>
    <desc>Created with Sketch.</desc>
    <defs></defs>
    <g id="Page-1" stroke="none" stroke-width="1" fill="none" fill-rule="evenodd" sketch:type="MSPage">
        <g id="Speaker-louder" sketch:type="MSLayerGroup" transform="translate(1.000000, 1.000000)" stroke-width="2" stroke="#6B6C6E">
            <g id="Group" sketch:type="MSShapeGroup">
                <path d="M16,48 L2,48 C0.9,48 0,47.1 0,46 L0,15 C0,13.9 0.9,13 2,13 L16,13" id="Shape"></path>
                <path d="M11,17 C11,17 29.9,0 31,0 L34,0 C35.1,0 36,0.9 36,2 L36,59 C36,60.1 35.1,61 34,61 L31,61 C29.9,61 11,44 11,44" id="Shape"></path>
            </g>
            <path d="M40,24 C42.2,24 44,26.7 44,30 C44,33.3 42.2,36 40,36" id="Shape" sketch:type="MSShapeGroup"></path>
            <path d="M42,15 C47.5,15 52,21.7 52,30 C52,38.3 47.5,45 42,45" id="Shape" sketch:type="MSShapeGroup"></path>
            <path d="M5,20.1 L5,41" id="Shape" sketch:type="MSShapeGroup"></path>
            <path d="M10,20.1 L10,41" id="Shape" sketch:type="MSShapeGroup"></path>
        </g>
    </g>
</svg>