<?xml version="1.0" encoding="UTF-8" standalone="no"?>
<svg width="63px" height="64px" viewBox="0 0 63 64" version="1.1" xmlns="http://www.w3.org/2000/svg" xmlns:xlink="http://www.w3.org/1999/xlink" xmlns:sketch="http://www.bohemiancoding.com/sketch/ns">
    <!-- Generator: Sketch 3.0.3 (7891) - http://www.bohemiancoding.com/sketch -->
    <title>Speaker-full</title>
    <desc>Created with Sketch.</desc>
    <defs></defs>
    <g id="Page-1" stroke="none" stroke-width="1" fill="none" fill-rule="evenodd" sketch:type="MSPage">
        <g id="Speaker-full" sketch:type="MSLayerGroup" transform="translate(1.000000, 1.000000)" stroke-width="2" stroke="#6B6C6E">
            <g id="Group" sketch:type="MSShapeGroup">
                <path d="M16,49 L2,49 C0.9,49 0,48.1 0,47 L0,15 C0,13.9 0.9,13 2,13 L16,13" id="Shape"></path>
                <path d="M11,17 C11,17 29.9,0 31,0 L34,0 C35.1,0 36,0.9 36,2 L36,60 C36,61.1 35.1,62 34,62 L31,62 C29.9,62 11,45 11,45" id="Shape"></path>
            </g>
            <path d="M40,25 C42.2,25 44,27.7 44,31 C44,34.3 42.2,37 40,37" id="Shape" sketch:type="MSShapeGroup"></path>
            <path d="M42,16 C47.5,16 52,22.7 52,31 C52,39.3 47.5,46 42,46" id="Shape" sketch:type="MSShapeGroup"></path>
            <path d="M44,8 C53.4,8 61,18.3 61,31 C61,43.7 53.4,54 44,54" id="Shape" sketch:type="MSShapeGroup"></path>
            <path d="M5,20.1 L5,42" id="Shape" sketch:type="MSShapeGroup"></path>
            <path d="M10,20.1 L10,42" id="Shape" sketch:type="MSShapeGroup"></path>
        </g>
    </g>
</svg>