<?xml version="1.0" encoding="UTF-8" standalone="no"?>
<svg width="65px" height="44px" viewBox="0 0 65 44" version="1.1" xmlns="http://www.w3.org/2000/svg" xmlns:xlink="http://www.w3.org/1999/xlink" xmlns:sketch="http://www.bohemiancoding.com/sketch/ns">
    <!-- Generator: Sketch 3.0.3 (7891) - http://www.bohemiancoding.com/sketch -->
    <title>Stamp</title>
    <desc>Created with Sketch.</desc>
    <defs></defs>
    <g id="Page-1" stroke="none" stroke-width="1" fill="none" fill-rule="evenodd" sketch:type="MSPage">
        <g id="Stamp" sketch:type="MSLayerGroup" transform="translate(2.000000, 2.000000)" stroke="#6B6C6E" stroke-width="2">
            <path d="M59,19.5 C59,17.7 60.3,16.2 62,15.7 L62,10.5 C60.3,10.1 59,8.6 59,6.7 C59,4.9 60.3,3.4 62,2.9 L62,1.8 C62,0.7 61.1,-0.2 60,-0.2 L58.9,-0.2 C58.5,1.5 56.9,2.7 55,2.7 C53.1,2.7 51.6,1.5 51.1,-0.2 L46.8,-0.2 C46.4,1.5 44.8,2.7 42.9,2.7 C41,2.7 39.5,1.5 39,-0.2 L34.7,-0.2 C34.3,1.5 32.7,2.7 30.8,2.7 C28.9,2.7 27.4,1.5 26.9,-0.2 L22.6,-0.2 C22.2,1.5 20.6,2.7 18.7,2.7 C16.8,2.7 15.3,1.5 14.8,-0.2 L10.5,-0.2 C10.1,1.5 8.5,2.7 6.6,2.7 C4.7,2.7 3.2,1.5 2.7,-0.2 L1.6,-0.2 C0.5,-0.2 -0.4,0.7 -0.4,1.8 L-0.4,2.9 C1.3,3.3 2.6,4.8 2.6,6.7 C2.6,8.5 1.3,10 -0.4,10.5 L-0.4,15.7 C1.3,16.1 2.6,17.6 2.6,19.5 C2.6,21.3 1.3,22.8 -0.4,23.3 L-0.4,28.5 C1.3,28.9 2.6,30.4 2.6,32.3 C2.6,34.1 1.3,35.6 -0.4,36.1 L-0.4,38.2 C-0.4,39.3 0.5,40.2 1.6,40.2 L2.7,40.2 C3.1,38.5 4.7,37.3 6.6,37.3 C8.5,37.3 10,38.5 10.5,40.2 L14.8,40.2 C15.2,38.5 16.8,37.3 18.7,37.3 C20.6,37.3 22.1,38.5 22.6,40.2 L26.9,40.2 C27.3,38.5 28.9,37.3 30.8,37.3 C32.7,37.3 34.2,38.5 34.7,40.2 L39,40.2 C39.4,38.5 41,37.3 42.9,37.3 C44.8,37.3 46.3,38.5 46.8,40.2 L51.1,40.2 C51.5,38.5 53.1,37.3 55,37.3 C56.9,37.3 58.4,38.5 58.9,40.2 L60,40.2 C61.1,40.2 62,39.3 62,38.2 L62,36.1 C60.3,35.7 59,34.2 59,32.3 C59,30.5 60.3,29 62,28.5 L62,23.3 C60.3,22.8 59,21.3 59,19.5 L59,19.5 Z" id="Shape" sketch:type="MSShapeGroup"></path>
            <rect id="Rectangle-path" sketch:type="MSShapeGroup" x="7" y="7" width="48" height="26"></rect>
            <path d="M7,27.3 C7,27.3 19,18.5 25,18.5 C31,18.5 39,33.1 44,33.1" id="Shape" sketch:type="MSShapeGroup"></path>
            <path d="M34,24.4 C38,26.4 46,15.6 55,15.6" id="Shape" sketch:type="MSShapeGroup"></path>
            <circle id="Oval" sketch:type="MSShapeGroup" cx="35" cy="13" r="1"></circle>
        </g>
    </g>
</svg>