<?xml version="1.0" encoding="UTF-8" standalone="no"?>
<svg width="64px" height="47px" viewBox="0 0 64 47" version="1.1" xmlns="http://www.w3.org/2000/svg" xmlns:xlink="http://www.w3.org/1999/xlink" xmlns:sketch="http://www.bohemiancoding.com/sketch/ns">
    <!-- Generator: Sketch 3.0.3 (7891) - http://www.bohemiancoding.com/sketch -->
    <title>Suitcase</title>
    <desc>Created with Sketch.</desc>
    <defs></defs>
    <g id="Page-1" stroke="none" stroke-width="1" fill="none" fill-rule="evenodd" sketch:type="MSPage">
        <g id="Suitcase" sketch:type="MSLayerGroup" transform="translate(2.000000, 1.000000)" stroke="#6B6C6E" stroke-width="2">
            <path d="M60.9,43 C60.9,44.1 60,45 58.9,45 L1.9,45 C0.8,45 -0.1,44.1 -0.1,43 L-0.1,8.8 C-0.1,7.7 0.8,6.8 1.9,6.8 L58.9,6.8 C60,6.8 60.9,7.7 60.9,8.8 L60.9,43 L60.9,43 Z" id="Shape" sketch:type="MSShapeGroup"></path>
            <path d="M23,6.9 L23,2 C23,0.9 23.8,0 24.8,0 L37.1,0 C38.1,0 39,0.9 39,2 L39,6.9" id="Shape" sketch:type="MSShapeGroup"></path>
            <path d="M13,28.4 L13,45 L9.1,45 L9.1,28.4" id="Shape" sketch:type="MSShapeGroup"></path>
            <path d="M9.1,23.5 L9.1,6.9 L13,6.9 L13,23.5" id="Shape" sketch:type="MSShapeGroup"></path>
            <path d="M51,28.2 L51,45 L47.1,45 L47.1,28.2" id="Shape" sketch:type="MSShapeGroup"></path>
            <path d="M47.1,23.3 L47.1,6.9 L51,6.9 L51,23.3" id="Shape" sketch:type="MSShapeGroup"></path>
            <rect id="Rectangle-path" sketch:type="MSShapeGroup" x="45" y="24" width="8" height="4.9"></rect>
            <rect id="Rectangle-path" sketch:type="MSShapeGroup" x="7" y="24" width="8" height="4.9"></rect>
        </g>
    </g>
</svg>