<?xml version="1.0" encoding="UTF-8" standalone="no"?>
<svg width="65px" height="55px" viewBox="0 0 65 55" version="1.1" xmlns="http://www.w3.org/2000/svg" xmlns:xlink="http://www.w3.org/1999/xlink" xmlns:sketch="http://www.bohemiancoding.com/sketch/ns">
    <!-- Generator: Sketch 3.0.3 (7891) - http://www.bohemiancoding.com/sketch -->
    <title>Sync</title>
    <desc>Created with Sketch.</desc>
    <defs></defs>
    <g id="Page-1" stroke="none" stroke-width="1" fill="none" fill-rule="evenodd" sketch:type="MSPage">
        <g id="Sync" sketch:type="MSLayerGroup" transform="translate(2.000000, 1.000000)" stroke="#6B6C6E" stroke-width="2">
            <path d="M5.8,26 L0.6,26 C0.2,26 -0.1,26.3 -0.1,26.7 L9.8,42 C10.1,42.4 10.9,42.7 11.2,42.7 L11.2,42.7 C11.2,42.7 12.4,42.4 12.7,42 L22.8,26.7 C22.8,26.3 22.5,26 22.1,26 L16.8,26" id="Shape" sketch:type="MSShapeGroup"></path>
            <path d="M5.9,27.8 C5.9,13.1 13.2,0.1 33,0.1 L33,11 C23.1,11 16.8,17.1 16.8,27.9" id="Shape" sketch:type="MSShapeGroup"></path>
            <path d="M55.2,26.9 L60.4,26.9 C60.8,26.9 61.1,26.6 61.1,26.2 L51.2,10.9 C50.9,10.5 50.1,10.2 49.8,10.2 L49.8,10.2 C49.8,10.2 48.6,10.5 48.3,10.9 L38.2,26.2 C38.2,26.6 38.5,26.9 38.9,26.9 L44.2,26.9" id="Shape" sketch:type="MSShapeGroup"></path>
            <path d="M55.2,25.1 C55.2,39.8 47.8,52.9 28,52.9 L28,42 C37.9,42 44.3,35.8 44.3,25" id="Shape" sketch:type="MSShapeGroup"></path>
        </g>
    </g>
</svg>