<?xml version="1.0" encoding="UTF-8" standalone="no"?>
<svg width="64px" height="64px" viewBox="0 0 64 64" version="1.1" xmlns="http://www.w3.org/2000/svg" xmlns:xlink="http://www.w3.org/1999/xlink" xmlns:sketch="http://www.bohemiancoding.com/sketch/ns">
    <!-- Generator: Sketch 3.0.3 (7891) - http://www.bohemiancoding.com/sketch -->
    <title>Syringe</title>
    <desc>Created with Sketch.</desc>
    <defs></defs>
    <g id="Page-1" stroke="none" stroke-width="1" fill="none" fill-rule="evenodd" sketch:type="MSPage">
        <g id="Syringe" sketch:type="MSLayerGroup" transform="translate(2.000000, 2.000000)" stroke="#6B6C6E" stroke-width="2">
            <path d="M24,14.5 L17.7,8.2 C17.4,7.9 16.4,8.5 16.1,8.4 L21.2,3.3 C22,2.5 22,1.3 21.2,0.5 C20.4,-0.3 19.2,-0.3 18.4,0.5 L0.3,18.6 C-0.5,19.4 -0.5,20.6 0.3,21.4 C1.1,22.2 2.3,22.2 3.1,21.4 L8.2,16.3 C8.3,16.6 7.8,17.6 8,17.9 L14.3,24.2" id="Shape" sketch:type="MSShapeGroup"></path>
            <path d="M28.2,10.3 L23.3,15.2 L19.1,19.4 L14.9,23.6 L10,28.5 C9.2,29.3 9.2,30.5 10,31.3 C10.8,32.1 12,32.1 12.8,31.3 L14.9,29.2 L37.9,52.2 C38.7,53 39.9,53 40.7,52.2 L42.8,50.1 L44.2,51.5 C45,52.3 46.2,52.3 47,51.5 L51.2,47.3 C52,46.5 52,45.3 51.2,44.5 L49.8,43.1 L51.9,41 C52.7,40.2 52.7,39 51.9,38.2 L28.9,15.2 L31,13.1 C31.8,12.3 31.8,11.1 31,10.3 C30.2,9.6 29,9.6 28.2,10.3 L28.2,10.3 Z" id="Shape" sketch:type="MSShapeGroup"></path>
            <path d="M50.5,47.9 L60.8,58.1 C61.6,58.9 60.2,58.7 59.4,59.5 L59.4,59.5 C58.6,60.3 57.4,60.3 56.6,59.5 L47.7,50.7" id="Shape" sketch:type="MSShapeGroup"></path>
            <path d="M8,16.6 L10.1,14.5" id="Shape" sketch:type="MSShapeGroup"></path>
            <path d="M14.3,10.3 L17.8,6.8" id="Shape" sketch:type="MSShapeGroup"></path>
            <path d="M20.5,30.5 L26.8,24.3" id="Shape" sketch:type="MSShapeGroup"></path>
            <path d="M23.3,33.3 L26.8,29.8" id="Shape" sketch:type="MSShapeGroup"></path>
            <path d="M26.1,36.1 L32.4,29.8" id="Shape" sketch:type="MSShapeGroup"></path>
            <path d="M28.9,38.9 L32.4,35.4" id="Shape" sketch:type="MSShapeGroup"></path>
            <path d="M31.7,41.7 L38,35.4" id="Shape" sketch:type="MSShapeGroup"></path>
            <path d="M34.5,44.5 L38,41" id="Shape" sketch:type="MSShapeGroup"></path>
            <path d="M37.3,47.2 L43.5,41" id="Shape" sketch:type="MSShapeGroup"></path>
        </g>
    </g>
</svg>