<?xml version="1.0" encoding="UTF-8" standalone="no"?>
<svg width="50px" height="64px" viewBox="0 0 50 64" version="1.1" xmlns="http://www.w3.org/2000/svg" xmlns:xlink="http://www.w3.org/1999/xlink" xmlns:sketch="http://www.bohemiancoding.com/sketch/ns">
    <!-- Generator: Sketch 3.0.3 (7891) - http://www.bohemiancoding.com/sketch -->
    <title>Tablet</title>
    <desc>Created with Sketch.</desc>
    <defs></defs>
    <g id="Page-1" stroke="none" stroke-width="1" fill="none" fill-rule="evenodd" sketch:type="MSPage">
        <g id="Tablet" sketch:type="MSLayerGroup" transform="translate(1.000000, 1.000000)" stroke="#6B6C6E" stroke-width="2">
            <path d="M48,60 C48,61.1 47.1,62 46,62 L2,62 C0.9,62 0,61.1 0,60 L0,2 C0,0.9 0.9,0 2,0 L46,0 C47.1,0 48,0.9 48,2 L48,60 L48,60 Z" id="Shape" sketch:type="MSShapeGroup"></path>
            <path d="M42,50 C42,51.1 41.1,52 40.1,52 L8,52 C6.9,52 6.1,51.1 6.1,50 L6.1,9 C6.1,7.9 7,7 8,7 L40,7 C41.1,7 41.9,7.9 41.9,9 L41.9,50 L42,50 Z" id="Shape" sketch:type="MSShapeGroup"></path>
            <path d="M17.5,10 L11.5,16" id="Shape" sketch:type="MSShapeGroup"></path>
            <path d="M23.5,11 L11,23.5" id="Shape" sketch:type="MSShapeGroup"></path>
            <path d="M22,4 L26,4" id="Shape" sketch:type="MSShapeGroup"></path>
            <circle id="Oval" sketch:type="MSShapeGroup" cx="24" cy="57" r="3"></circle>
        </g>
    </g>
</svg>