<?xml version="1.0" encoding="UTF-8" standalone="no"?>
<svg width="65px" height="65px" viewBox="0 0 65 65" version="1.1" xmlns="http://www.w3.org/2000/svg" xmlns:xlink="http://www.w3.org/1999/xlink" xmlns:sketch="http://www.bohemiancoding.com/sketch/ns">
    <!-- Generator: Sketch 3.0.3 (7891) - http://www.bohemiancoding.com/sketch -->
    <title>Tag-price</title>
    <desc>Created with Sketch.</desc>
    <defs></defs>
    <g id="Page-1" stroke="none" stroke-width="1" fill="none" fill-rule="evenodd" sketch:type="MSPage">
        <g id="Tag-price" sketch:type="MSLayerGroup" transform="translate(1.000000, 2.000000)" stroke-width="2" stroke="#6B6C6E">
            <g id="Group" sketch:type="MSShapeGroup">
                <path d="M38.9,61.4 C38.1,62.2 36.9,62.2 36.1,61.4 L10.6,35.9 C7.8,33.1 2.8,14.1 8.5,8.4 C14.1,2.8 33.2,7.7 36,10.5 L61.5,36 C62.3,36.8 62.3,38 61.5,38.8 L38.9,61.4 L38.9,61.4 Z" id="Shape"></path>
                <circle id="Oval" cx="15" cy="15" r="4"></circle>
                <path d="M4.9,10.5 L3.5,9.1 C-3.4,2.2 2.1,2 2.1,2 C2.1,2 2.2,-3.6 9.2,3.4 C15.8,10 15.7,12.4 14.1,14" id="Shape"></path>
            </g>
            <path d="M33.9,41.3 C35.7,43.1 38.6,43 40.3,41.3 C42.1,39.5 42.1,36.6 40.3,34.9 C37.7,32.3 33.2,34.3 33.2,34.3 C33.2,34.3 28.7,36.3 26.1,33.7 C24.3,31.9 24.4,29 26.1,27.3 C27.9,25.5 30.8,25.5 32.5,27.3" id="Shape" sketch:type="MSShapeGroup"></path>
            <path d="M22.8,23.7 L43.9,44.7" id="Shape" sketch:type="MSShapeGroup"></path>
        </g>
    </g>
</svg>