<?xml version="1.0" encoding="UTF-8" standalone="no"?>
<svg width="66px" height="65px" viewBox="0 0 66 65" version="1.1" xmlns="http://www.w3.org/2000/svg" xmlns:xlink="http://www.w3.org/1999/xlink" xmlns:sketch="http://www.bohemiancoding.com/sketch/ns">
    <!-- Generator: Sketch 3.0.3 (7891) - http://www.bohemiancoding.com/sketch -->
    <title>Tag-plus-one</title>
    <desc>Created with Sketch.</desc>
    <defs></defs>
    <g id="Page-1" stroke="none" stroke-width="1" fill="none" fill-rule="evenodd" sketch:type="MSPage">
        <g id="Tag-plus-one" sketch:type="MSLayerGroup" transform="translate(2.000000, 2.000000)" stroke-width="2" stroke="#6B6C6E">
            <g id="Group" sketch:type="MSShapeGroup">
                <path d="M38.9,61.4 C38.1,62.2 36.9,62.2 36.1,61.4 L10.6,35.9 C7.8,33.1 2.8,14.1 8.5,8.4 C14.1,2.8 33.2,7.7 36,10.5 L61.5,36 C62.3,36.8 62.3,38 61.5,38.8 L38.9,61.4 L38.9,61.4 Z" id="Shape"></path>
                <circle id="Oval" cx="15" cy="15" r="4"></circle>
                <path d="M6.6,11.8 C5.3,11 3.9,9.7 3.4,9.2 C-3.5,2.3 2,2.1 2,2.1 C2,2.1 2.1,-3.5 9.1,3.5 C15.7,10.1 15.6,12.5 14,14.1" id="Shape"></path>
            </g>
            <path d="M31.9,45.7 L47.2,31 L39,31" id="Shape" sketch:type="MSShapeGroup"></path>
            <path d="M27,25.1 L34.9,33" id="Shape" sketch:type="MSShapeGroup"></path>
            <path d="M34.8,25.2 L27,33" id="Shape" sketch:type="MSShapeGroup"></path>
        </g>
    </g>
</svg>