<?xml version="1.0" encoding="UTF-8" standalone="no"?>
<svg width="64px" height="64px" viewBox="0 0 64 64" version="1.1" xmlns="http://www.w3.org/2000/svg" xmlns:xlink="http://www.w3.org/1999/xlink" xmlns:sketch="http://www.bohemiancoding.com/sketch/ns">
    <!-- Generator: Sketch 3.0.3 (7891) - http://www.bohemiancoding.com/sketch -->
    <title>Tag</title>
    <desc>Created with Sketch.</desc>
    <defs></defs>
    <g id="Page-1" stroke="none" stroke-width="1" fill="none" fill-rule="evenodd" sketch:type="MSPage">
        <g id="Tag" sketch:type="MSLayerGroup" transform="translate(2.000000, 1.000000)" stroke="#6B6C6E" stroke-width="2">
            <path d="M38.1,60.9 C37.3,61.7 36.1,61.7 35.3,60.9 L10,35.6 C7.2,32.8 2.3,13.9 7.9,8.3 C13.5,2.7 32.4,7.6 35.1,10.4 L60.4,35.7 C61.2,36.5 61.2,37.7 60.4,38.5 L38.1,60.9 L38.1,60.9 Z" id="Shape" sketch:type="MSShapeGroup"></path>
            <circle id="Oval" sketch:type="MSShapeGroup" cx="14" cy="15" r="4"></circle>
            <path d="M4.4,10.4 C4,10 3.5,9.5 3,9.1 C-3.9,2.3 1.6,2.1 1.6,2.1 C1.6,2.1 1.7,-3.4 8.6,3.5 C15.2,10.1 15,12.4 13.5,14" id="Shape" sketch:type="MSShapeGroup"></path>
        </g>
    </g>
</svg>