<?xml version="1.0" encoding="utf-8"?>
<!-- Generator: Adobe Illustrator 17.0.0, SVG Export Plug-In . SVG Version: 6.00 Build 0)  -->
<!DOCTYPE svg PUBLIC "-//W3C//DTD SVG 1.1//EN" "http://www.w3.org/Graphics/SVG/1.1/DTD/svg11.dtd">
<svg version="1.1" id="Layer_1" xmlns:sketch="http://www.bohemiancoding.com/sketch/ns"
	 xmlns="http://www.w3.org/2000/svg" xmlns:xlink="http://www.w3.org/1999/xlink" x="0px" y="0px" width="68px" height="54px"
	 viewBox="0 0 68 54" enable-background="new 0 0 68 54" xml:space="preserve">
<title>Tent-2</title>
<desc>Created with Sketch.</desc>
<g id="Page-1" sketch:type="MSPage">
	<g id="Tent-2" transform="translate(3.000000, 4.000000)" sketch:type="MSLayerGroup">
		<g id="Group" sketch:type="MSShapeGroup">
			<path id="Shape_2_" fill="none" stroke="#6B6C6E" stroke-width="2" stroke-linejoin="round" d="M51,49c0,0-3-10.998-4-22.498
				C35.25,19.502,31,1,31,1s-5.125,22-16,25.502C14,37.502,11,49,11,49"/>
			<path id="Shape_3_" fill="none" stroke="#6B6C6E" stroke-width="2" stroke-linejoin="round" d="M24.279,35.25
				C24.029,46.5,23,49,23,49H0c4.25-14.75,5-28,5-28s21-2,26-20c0,0,4,15,26,20c0,0,1.125,14.125,5,28H40
				c-1.364-7.202-1.721-13.75-1.721-13.75H24.279z"/>
		</g>
		<path id="Shape_6_" sketch:type="MSShapeGroup" fill="none" stroke="#6B6C6E" stroke-width="2" stroke-linejoin="round" d="
			M4.909,21c0,0,21.966,19.625,52.741,0"/>
	</g>
</g>
</svg>
