<?xml version="1.0" encoding="UTF-8" standalone="no"?>
<svg width="64px" height="61px" viewBox="0 0 64 61" version="1.1" xmlns="http://www.w3.org/2000/svg" xmlns:xlink="http://www.w3.org/1999/xlink" xmlns:sketch="http://www.bohemiancoding.com/sketch/ns">
    <!-- Generator: Sketch 3.0.3 (7891) - http://www.bohemiancoding.com/sketch -->
    <title>Tent-1</title>
    <desc>Created with Sketch.</desc>
    <defs></defs>
    <g id="Page-1" stroke="none" stroke-width="1" fill="none" fill-rule="evenodd" sketch:type="MSPage">
        <g id="Tent-1" sketch:type="MSLayerGroup" transform="translate(1.000000, 1.000000)" stroke-width="2" stroke="#6B6C6E">
            <g id="Group" sketch:type="MSShapeGroup">
                <path d="M60.9,57 C60.9,58.1 60,59 58.9,59 L2.9,59 C1.8,59 0.9,58.1 0.9,57 L30.9,7.6 L60.9,57 L60.9,57 Z" id="Shape"></path>
                <path d="M40.9,59 L20.9,59 L30.9,37.2 L40.9,59 Z" id="Shape"></path>
                <path d="M30.9,7.5 L25.9,-0.4" id="Shape"></path>
                <path d="M30.9,7.5 L35.9,-0.4" id="Shape"></path>
                <path d="M0,59.6 L0,51.2" id="Shape"></path>
                <path d="M62,59.6 L62,51.2" id="Shape"></path>
            </g>
            <path d="M19.9,27.3 L24.9,30.3 L30.9,27.3 L36.9,30.3 L41.9,26.8" id="Shape" sketch:type="MSShapeGroup"></path>
            <path d="M21.9,22.4 L24.9,24.3 L30.9,21.4 L36.9,24.3 L39.9,22.4" id="Shape" sketch:type="MSShapeGroup"></path>
            <path d="M30.9,-0.4 L30.9,8.5" id="Shape" sketch:type="MSShapeGroup"></path>
        </g>
    </g>
</svg>