<?xml version="1.0" encoding="UTF-8" standalone="no"?>
<svg width="24px" height="64px" viewBox="0 0 24 64" version="1.1" xmlns="http://www.w3.org/2000/svg" xmlns:xlink="http://www.w3.org/1999/xlink" xmlns:sketch="http://www.bohemiancoding.com/sketch/ns">
    <!-- Generator: Sketch 3.0.3 (7891) - http://www.bohemiancoding.com/sketch -->
    <title>Tie</title>
    <desc>Created with Sketch.</desc>
    <defs></defs>
    <g id="Page-1" stroke="none" stroke-width="1" fill="none" fill-rule="evenodd" sketch:type="MSPage">
        <g id="Tie" sketch:type="MSLayerGroup" transform="translate(2.000000, 1.000000)" stroke="#6B6C6E" stroke-width="2">
            <path d="M7.9,16 L0,48.7 L5,49.7" id="Shape" sketch:type="MSShapeGroup"></path>
            <path d="M8.9,9 C7.8,9 6.9,8.1 6.9,7 L5.9,2 C5.9,0.9 6.8,0 7.9,0 L17.8,0 C18.9,0 19.8,0.9 19.8,2 L18.8,7 C18.8,8.1 17.9,9 16.8,9" id="Shape" sketch:type="MSShapeGroup"></path>
            <path d="M15.9,13 C17,13 17.9,13.9 17.9,15 L20.9,55.7 C20.9,56.8 20,57.7 18.9,57.7 L12.9,61.7 L6.9,57.7 C5.8,57.7 4.9,56.8 4.9,55.7 L7.9,15 C7.9,13.9 8.8,13 9.9,13" id="Shape" sketch:type="MSShapeGroup"></path>
            <path d="M10.9,14 C9.4,14 8.9,13.3 8.9,12.5 L8.9,9.5 C8.9,8.7 9.4,8 10.9,8" id="Shape" sketch:type="MSShapeGroup"></path>
            <path d="M14.9,8 C16.4,8 16.9,8.7 16.9,9.5 L16.9,12.5 C16.9,13.3 16.4,14 14.9,14" id="Shape" sketch:type="MSShapeGroup"></path>
        </g>
    </g>
</svg>