<?xml version="1.0" encoding="utf-8"?>
<!-- Generator: Adobe Illustrator 17.0.0, SVG Export Plug-In . SVG Version: 6.00 Build 0)  -->
<!DOCTYPE svg PUBLIC "-//W3C//DTD SVG 1.1//EN" "http://www.w3.org/Graphics/SVG/1.1/DTD/svg11.dtd">
<svg version="1.1" id="Layer_1" xmlns:sketch="http://www.bohemiancoding.com/sketch/ns"
	 xmlns="http://www.w3.org/2000/svg" xmlns:xlink="http://www.w3.org/1999/xlink" x="0px" y="0px" width="56px" height="64px"
	 viewBox="0 0 56 64" enable-background="new 0 0 56 64" xml:space="preserve">
<title>Timer</title>
<desc>Created with Sketch.</desc>
<g id="Page-1" sketch:type="MSPage">
	<g id="Timer" transform="translate(1.000000, 1.000000)" sketch:type="MSLayerGroup">
		<circle id="Oval_1_" sketch:type="MSShapeGroup" fill="none" stroke="#6B6C6E" stroke-width="2" cx="27" cy="35" r="27">
		</circle>
		<circle id="Oval" sketch:type="MSShapeGroup" fill="none" stroke="#6B6C6E" stroke-width="2" cx="27" cy="35" r="23">
		</circle>
		<path id="Shape" sketch:type="MSShapeGroup" fill="none" stroke="#6B6C6E" stroke-width="2" d="M45,35c0,1.7-16.3,3-18,3
			s-3-1.3-3-3s1.3-3,3-3S45,33.3,45,35L45,35z"/>
		<path id="Shape_1_" sketch:type="MSShapeGroup" fill="none" stroke="#6B6C6E" stroke-width="2" d="M27,12v5"/>
		<path id="Shape_2_" sketch:type="MSShapeGroup" fill="none" stroke="#6B6C6E" stroke-width="2" d="M27,53v5"/>
		<path id="Shape_3_" sketch:type="MSShapeGroup" fill="none" stroke="#6B6C6E" stroke-width="2" d="M4,35h5"/>
		<path id="Shape_4_" sketch:type="MSShapeGroup" fill="none" stroke="#6B6C6E" stroke-width="2" d="M45,35h5"/>
		
			<rect id="Rectangle-path" x="24" y="4" sketch:type="MSShapeGroup" fill="none" stroke="#6B6C6E" stroke-width="2" width="6" height="4">
		</rect>
		<path id="Shape_5_" sketch:type="MSShapeGroup" fill="none" stroke="#6B6C6E" stroke-width="2" d="M34,2c0,1.1-0.9,2-2,2H22
			c-1.1,0-2-0.9-2-2l0,0c0-1.1,0.9-2,2-2h10C33.1,0,34,0.9,34,2L34,2L34,2z"/>
	</g>
</g>
</svg>
