<?xml version="1.0" encoding="UTF-8" standalone="no"?>
<svg width="64px" height="61px" viewBox="0 0 64 61" version="1.1" xmlns="http://www.w3.org/2000/svg" xmlns:xlink="http://www.w3.org/1999/xlink" xmlns:sketch="http://www.bohemiancoding.com/sketch/ns">
    <!-- Generator: Sketch 3.0.3 (7891) - http://www.bohemiancoding.com/sketch -->
    <title>Toilet-paper</title>
    <desc>Created with Sketch.</desc>
    <defs></defs>
    <g id="Page-1" stroke="none" stroke-width="1" fill="none" fill-rule="evenodd" sketch:type="MSPage">
        <g id="Toilet-paper" sketch:type="MSLayerGroup" transform="translate(1.000000, 1.000000)" stroke="#6B6C6E" stroke-width="2">
            <path d="M11.2,41 L21.9,41" id="Shape" sketch:type="MSShapeGroup"></path>
            <path d="M10.9,0 C16.9,0 21.8,9 21.8,20.3 C21.8,31.6 16.9,40.8 10.9,40.8 C4.9,40.8 0,31.6 0,20.3 C0,9 4.9,0 10.9,0 L10.9,0 Z" id="Shape" sketch:type="MSShapeGroup"></path>
            <ellipse id="Oval" sketch:type="MSShapeGroup" cx="11" cy="20.5" rx="3" ry="5.5"></ellipse>
            <path d="M10.9,0 L51.1,0 C56.7,0 62,7.6 62,17 C62,26.4 60.2,55.6 60.2,55.6 C60.2,55.6 55.4,54.9 46.7,57.5 C36.8,60.5 35.8,55.5 30.8,52.5 C25.8,49.5 22.9,51.5 21.9,51.5 L21.9,21.7 C21.8,0 10.9,0 10.9,0 L10.9,0 Z" id="Shape" sketch:type="MSShapeGroup"></path>
        </g>
    </g>
</svg>