<?xml version="1.0" encoding="utf-8"?>
<!-- Generator: Adobe Illustrator 17.0.0, SVG Export Plug-In . SVG Version: 6.00 Build 0)  -->
<!DOCTYPE svg PUBLIC "-//W3C//DTD SVG 1.1//EN" "http://www.w3.org/Graphics/SVG/1.1/DTD/svg11.dtd">
<svg version="1.1" id="Layer_1" xmlns:sketch="http://www.bohemiancoding.com/sketch/ns"
	 xmlns="http://www.w3.org/2000/svg" xmlns:xlink="http://www.w3.org/1999/xlink" x="0px" y="0px" width="27px" height="66px"
	 viewBox="0 0 27 66" enable-background="new 0 0 27 66" xml:space="preserve">
<title>Torch</title>
<desc>Created with Sketch.</desc>
<g id="Page-1" sketch:type="MSPage">
	<g id="Torch" transform="translate(1.000000, 4.000000)" sketch:type="MSLayerGroup">
		
			<path id="Shape" sketch:type="MSShapeGroup" fill="none" stroke="#6B6C6E" stroke-width="2" stroke-linecap="round" stroke-linejoin="round" d="
			M7.9,37.9h-3c-1.1,0-4-5.9-4-5.9c0-1.1,0.9-2,2-2h17.8c1.1,0,2,0.9,2,2c0,0-2.9,5.9-4,5.9h-3"/>
		
			<path id="Shape_1_" sketch:type="MSShapeGroup" fill="none" stroke="#6B6C6E" stroke-width="2" stroke-linecap="round" stroke-linejoin="round" d="
			M18.8,37.9l-3,21.1c0,1.1-0.9,2-2,2h-4c-1.1,0-2-0.9-2-2l-3-21.1"/>
		
			<path id="Shape_2_" sketch:type="MSShapeGroup" fill="none" stroke="#6B6C6E" stroke-width="2" stroke-linecap="round" stroke-linejoin="round" d="
			M5.9,14.1C2.7,15.8,0,18.6,0,21c0,6.6,5.3,5.9,11.9,5.9s11.9,0.6,11.9-5.9c0-1.4-0.3-0.6-0.8-3c0,0,1.8-5,1.8-5.9
			c0,0-4.5-0.4-6.5,2.5"/>
		
			<path id="Shape_3_" sketch:type="MSShapeGroup" fill="none" stroke="#6B6C6E" stroke-width="2" stroke-linecap="round" stroke-linejoin="round" d="
			M4,19.1c0,0,5,0,2-6.9c-2-4.6,5-3,5.9-7.9c1-5,4-1.7,4-4c0,0,2.4,4,0.4,6.9"/>
		
			<path id="Shape_4_" sketch:type="MSShapeGroup" fill="none" stroke="#6B6C6E" stroke-width="2" stroke-linecap="round" stroke-linejoin="round" d="
			M11.9,12.1c0,0,4-2,5-6.9c1-5,3,0,4,1s-1,3-2,5.9c-1,3,0,5.9-3,7.9"/>
	</g>
</g>
</svg>
