<?xml version="1.0" encoding="utf-8"?>
<!-- Generator: Adobe Illustrator 17.0.0, SVG Export Plug-In . SVG Version: 6.00 Build 0)  -->
<!DOCTYPE svg PUBLIC "-//W3C//DTD SVG 1.1//EN" "http://www.w3.org/Graphics/SVG/1.1/DTD/svg11.dtd">
<svg version="1.1" id="Layer_1" xmlns:sketch="http://www.bohemiancoding.com/sketch/ns"
	 xmlns="http://www.w3.org/2000/svg" xmlns:xlink="http://www.w3.org/1999/xlink" x="0px" y="0px" width="64px" height="65px"
	 viewBox="0 0 64 65" enable-background="new 0 0 64 65" xml:space="preserve">
<title>Trompet</title>
<desc>Created with Sketch.</desc>
<g id="Page-1" sketch:type="MSPage">
	<g id="Trompet" transform="translate(1.000000, 2.000000)" sketch:type="MSLayerGroup">
		<path id="Shape_1_" sketch:type="MSShapeGroup" fill="none" stroke="#6B6C6E" stroke-width="2" d="M31.2,41.6
			c-1.7,1.7-4.5,1.6-6.4-0.3L7.4,23.9c-1.8-1.8-2-4.7-0.3-6.4l0.8-0.8c1.7-1.7,4.5-1.6,6.4,0.3l17.4,17.4c1.8,1.8,2,4.7,0.3,6.4
			L31.2,41.6L31.2,41.6z"/>
		<path id="Shape" sketch:type="MSShapeGroup" fill="none" stroke="#6B6C6E" stroke-width="2" d="M38.5,35.7L7.9,5.3L5.1,8.1
			l30.6,30.4c7.6,8.9,7.7,15.3,4.8,22.7c0,0,3.4-0.7,11.7-8.9s8.9-11.7,8.9-11.7C53.6,43.8,47.4,43.3,38.5,35.7L38.5,35.7z"/>
		<path id="Shape_2_" sketch:type="MSShapeGroup" fill="none" stroke="#6B6C6E" stroke-width="2" d="M5.7,7.2
			C4.6,8.3,2.6,7.7,1.5,6.6L0.8,6.1C-0.3,5-0.3,3.2,0.8,2l1.4-1.4c1.1-1.1,3.1-0.7,4.2,0.5l0.7,0.7c1.1,1.1,1.1,2.9,0,4.1L5.7,7.2
			L5.7,7.2z"/>
		<path id="Shape_3_" sketch:type="MSShapeGroup" fill="none" stroke="#6B6C6E" stroke-width="2" d="M21.3,13L6.8,27.5"/>
		<path id="Shape_4_" sketch:type="MSShapeGroup" fill="none" stroke="#6B6C6E" stroke-width="2" d="M26.1,17.8L11.7,32.3"/>
		<path id="Shape_5_" sketch:type="MSShapeGroup" fill="none" stroke="#6B6C6E" stroke-width="2" d="M30.9,22.7L16.5,37.1"/>
		<path id="Shape_6_" sketch:type="MSShapeGroup" fill="none" stroke="#6B6C6E" stroke-width="2" d="M35.7,27.5L21.3,41.9"/>
		<path id="Shape_7_" sketch:type="MSShapeGroup" fill="none" stroke="#6B6C6E" stroke-width="2" d="M20.6,11l2.7,2.7"/>
		<path id="Shape_8_" sketch:type="MSShapeGroup" fill="none" stroke="#6B6C6E" stroke-width="2" d="M25.4,15.8l2.8,2.7"/>
		<path id="Shape_9_" sketch:type="MSShapeGroup" fill="none" stroke="#6B6C6E" stroke-width="2" d="M30.2,20.6l2.8,2.7"/>
		<path id="Shape_10_" sketch:type="MSShapeGroup" fill="none" stroke="#6B6C6E" stroke-width="2" d="M35,25.4l2.8,2.8"/>
	</g>
</g>
</svg>
