<?xml version="1.0" encoding="UTF-8" standalone="no"?>
<svg width="64px" height="59px" viewBox="0 0 64 59" version="1.1" xmlns="http://www.w3.org/2000/svg" xmlns:xlink="http://www.w3.org/1999/xlink" xmlns:sketch="http://www.bohemiancoding.com/sketch/ns">
    <!-- Generator: Sketch 3.0.3 (7891) - http://www.bohemiancoding.com/sketch -->
    <title>Tshirt</title>
    <desc>Created with Sketch.</desc>
    <defs></defs>
    <g id="Page-1" stroke="none" stroke-width="1" fill="none" fill-rule="evenodd" sketch:type="MSPage">
        <g id="Tshirt" sketch:type="MSLayerGroup" transform="translate(1.000000, 2.000000)" stroke="#6B6C6E" stroke-width="2">
            <path d="M16.8,0 C16.8,0 29.2,8.7 45.3,0.1" id="Shape" sketch:type="MSShapeGroup"></path>
            <path d="M53.1,24.6 C57.9,21.8 62,20.6 62,20.6 C62,8.2 54.3,2.9 45,0.2 C43.9,5.9 38.1,8.8 31.1,8.8 C24.1,8.8 18.2,5.8 17.2,0.1 C7.8,2.7 0.1,6.9 0.1,20.5 C0.1,20.5 4.3,21.7 9,24.5 C9,35.1 9.6,49.7 13.7,55.9 L48.5,55.9 C52.5,49.8 53.1,35.1 53.1,24.6 L53.1,24.6 Z" id="Shape" sketch:type="MSShapeGroup"></path>
        </g>
    </g>
</svg>