<?xml version="1.0" encoding="UTF-8" standalone="no"?>
<svg width="43px" height="64px" viewBox="0 0 43 64" version="1.1" xmlns="http://www.w3.org/2000/svg" xmlns:xlink="http://www.w3.org/1999/xlink" xmlns:sketch="http://www.bohemiancoding.com/sketch/ns">
    <!-- Generator: Sketch 3.0.3 (7891) - http://www.bohemiancoding.com/sketch -->
    <title>Tulip</title>
    <desc>Created with Sketch.</desc>
    <defs></defs>
    <g id="Page-1" stroke="none" stroke-width="1" fill="none" fill-rule="evenodd" sketch:type="MSPage">
        <g id="Tulip" sketch:type="MSLayerGroup" transform="translate(1.000000, 1.000000)" stroke="#6B6C6E" stroke-width="2">
            <path d="M19.9,15.2 C19.9,2.9 26.3,-2.8 29.1,1.4 C34.9,10.2 36,26.1 19.9,26.1 C3.8,26.1 5.4,10.3 10.7,1.4 C12.8,-2 19.9,4.5 19.9,13.2" id="Shape" sketch:type="MSShapeGroup"></path>
            <path d="M19.9,26.1 L19.9,55.8" id="Shape" sketch:type="MSShapeGroup"></path>
            <path d="M19.9,56.8 C19.9,56.8 20.9,38.6 41,23.2 C41,23.2 31.4,33.8 26.6,48.1 C24,55.9 21.8,56.8 19.9,56.8 L19.9,56.8 Z" id="Shape" sketch:type="MSShapeGroup"></path>
            <path d="M20.9,61.6 C20.9,61.6 19.9,43.4 -0.2,28 C-0.2,28 9.4,38.5 14.2,52.9 C16.7,60.7 18.9,61.6 20.9,61.6 L20.9,61.6 Z" id="Shape" sketch:type="MSShapeGroup"></path>
        </g>
    </g>
</svg>