<?xml version="1.0" encoding="UTF-8" standalone="no"?>
<svg width="64px" height="64px" viewBox="0 0 64 64" version="1.1" xmlns="http://www.w3.org/2000/svg" xmlns:xlink="http://www.w3.org/1999/xlink" xmlns:sketch="http://www.bohemiancoding.com/sketch/ns">
    <!-- Generator: Sketch 3.0.3 (7891) - http://www.bohemiancoding.com/sketch -->
    <title>Two-column</title>
    <desc>Created with Sketch.</desc>
    <defs></defs>
    <g id="Page-1" stroke="none" stroke-width="1" fill="none" fill-rule="evenodd" sketch:type="MSPage">
        <g id="Two-column" sketch:type="MSLayerGroup" transform="translate(1.000000, 1.000000)" stroke="#6B6C6E" stroke-width="2">
            <path d="M26,60 C26,61.1 25.1,62 24,62 L2,62 C0.9,62 0,61.1 0,60 L0,2 C0,0.9 0.9,0 2,0 L24,0 C25.1,0 26,0.9 26,2 L26,60 L26,60 Z" id="Shape" sketch:type="MSShapeGroup"></path>
            <path d="M62,60 C62,61.1 61.1,62 60,62 L38,62 C36.9,62 36,61.1 36,60 L36,2 C36,0.9 36.9,0 38,0 L60,0 C61.1,0 62,0.9 62,2 L62,60 L62,60 Z" id="Shape" sketch:type="MSShapeGroup"></path>
        </g>
    </g>
</svg>