<?xml version="1.0" encoding="UTF-8" standalone="no"?>
<svg width="60px" height="65px" viewBox="0 0 60 65" version="1.1" xmlns="http://www.w3.org/2000/svg" xmlns:xlink="http://www.w3.org/1999/xlink" xmlns:sketch="http://www.bohemiancoding.com/sketch/ns">
    <!-- Generator: Sketch 3.0.3 (7891) - http://www.bohemiancoding.com/sketch -->
    <title>Umbrella</title>
    <desc>Created with Sketch.</desc>
    <defs></defs>
    <g id="Page-1" stroke="none" stroke-width="1" fill="none" fill-rule="evenodd" sketch:type="MSPage">
        <g id="Umbrella" sketch:type="MSLayerGroup" transform="translate(2.000000, 0.000000)" stroke="#6B6C6E" stroke-width="2">
            <path d="M-0.1,29.5 C-0.1,29.5 4.9,27 9.8,29.5 C9.8,29.5 14.8,27 21,29.5 C21,29.5 27.2,27 35.9,29.5 C35.9,29.5 40.9,27 47.1,29.5 C47.1,29.5 52.1,27 57,29.5 C57,16.5 44.2,3.4 28.5,3.4 C12.7,3.5 -0.1,16.5 -0.1,29.5 L-0.1,29.5 Z" id="Shape" sketch:type="MSShapeGroup"></path>
            <path d="M28.1,28.3 L28.1,58.1 C28.1,59.4 28.1,63.1 33.1,63.1 C38.1,63.1 38.1,57.1 38.1,57.1" id="Shape" sketch:type="MSShapeGroup"></path>
            <path d="M28.1,0 L28.1,3.5" id="Shape" sketch:type="MSShapeGroup"></path>
            <path d="M9.8,29.5 C9.8,16.5 18.1,3.4 28.4,3.4 C38.7,3.4 47,16.4 47,29.5" id="Shape" sketch:type="MSShapeGroup"></path>
            <path d="M21,29.5 C21,16.5 24.3,3.4 28.4,3.4 C32.5,3.4 35.8,16.4 35.8,29.5" id="Shape" sketch:type="MSShapeGroup"></path>
        </g>
    </g>
</svg>