<?xml version="1.0" encoding="UTF-8" standalone="no"?>
<svg width="64px" height="39px" viewBox="0 0 64 39" version="1.1" xmlns="http://www.w3.org/2000/svg" xmlns:xlink="http://www.w3.org/1999/xlink" xmlns:sketch="http://www.bohemiancoding.com/sketch/ns">
    <!-- Generator: Sketch 3.0.3 (7891) - http://www.bohemiancoding.com/sketch -->
    <title>Underwear</title>
    <desc>Created with Sketch.</desc>
    <defs></defs>
    <g id="Page-1" stroke="none" stroke-width="1" fill="none" fill-rule="evenodd" sketch:type="MSPage">
        <g id="Underwear" sketch:type="MSLayerGroup" transform="translate(1.000000, 1.000000)" stroke="#6B6C6E" stroke-width="2">
            <path d="M24.2,37 L36.9,37 C39.7,22.5 47.9,18.7 60.1,13.7 C60.7,13.4 62,12.2 62,10 L62,2 C62,0.9 61.1,0 60,0 L2,0 C0.9,0 2.27373675e-13,0.9 2.27373675e-13,2 L2.27373675e-13,10 C2.27373675e-13,12.9 1.3,13.6 2,13.9 C13.2,19.4 21.6,23.3 24.2,37 L24.2,37 Z" id="Shape" sketch:type="MSShapeGroup"></path>
            <path d="M26.2,4 L36.1,4" id="Shape" sketch:type="MSShapeGroup"></path>
            <path d="M0.1,11.1 C0.1,11.1 24.2,9.8 24.2,37" id="Shape" sketch:type="MSShapeGroup"></path>
            <path d="M61.2,11.1 C61.2,11.1 37.1,9.5 37.1,37" id="Shape" sketch:type="MSShapeGroup"></path>
        </g>
    </g>
</svg>