<?xml version="1.0" encoding="UTF-8" standalone="no"?>
<svg width="40px" height="63px" viewBox="0 0 40 63" version="1.1" xmlns="http://www.w3.org/2000/svg" xmlns:xlink="http://www.w3.org/1999/xlink" xmlns:sketch="http://www.bohemiancoding.com/sketch/ns">
    <!-- Generator: Sketch 3.0.3 (7891) - http://www.bohemiancoding.com/sketch -->
    <title>USB</title>
    <desc>Created with Sketch.</desc>
    <defs></defs>
    <g id="Page-1" stroke="none" stroke-width="1" fill="none" fill-rule="evenodd" sketch:type="MSPage">
        <g id="USB" sketch:type="MSLayerGroup" transform="translate(1.000000, 1.000000)" stroke="#6B6C6E" stroke-width="2">
            <circle id="Oval" sketch:type="MSShapeGroup" cx="19" cy="55" r="6"></circle>
            <circle id="Oval" sketch:type="MSShapeGroup" cx="4" cy="23" r="4"></circle>
            <rect id="Rectangle-path" sketch:type="MSShapeGroup" x="30" y="13" width="8" height="8"></rect>
            <path d="M25.6,9.9 C25.9,9.9 26.1,9.7 26.1,9.4 L20.1,0.6 C19.9,0.3 19.4,0.1 19.2,0.1 L19.2,0.1 C19.2,0.1 18.4,0.3 18.2,0.6 L12,9.2 C12,9.5 12.4,9.9 12.7,9.9 L25.6,9.9 L25.6,9.9 Z" id="Shape" sketch:type="MSShapeGroup"></path>
            <path d="M19.1,40 L4,30 L4,27" id="Shape" sketch:type="MSShapeGroup"></path>
            <path d="M19.1,33 L34.1,24 L34.1,21" id="Shape" sketch:type="MSShapeGroup"></path>
            <path d="M19.1,10 L19.1,49" id="Shape" sketch:type="MSShapeGroup"></path>
        </g>
    </g>
</svg>