<?xml version="1.0" encoding="UTF-8" standalone="no"?>
<svg width="64px" height="64px" viewBox="0 0 64 64" version="1.1" xmlns="http://www.w3.org/2000/svg" xmlns:xlink="http://www.w3.org/1999/xlink" xmlns:sketch="http://www.bohemiancoding.com/sketch/ns">
    <!-- Generator: Sketch 3.0.3 (7891) - http://www.bohemiancoding.com/sketch -->
    <title>Valley-ball</title>
    <desc>Created with Sketch.</desc>
    <defs></defs>
    <g id="Page-1" stroke="none" stroke-width="1" fill="none" fill-rule="evenodd" sketch:type="MSPage">
        <g id="Valley-ball" sketch:type="MSLayerGroup" transform="translate(1.000000, 1.000000)" stroke="#6B6C6E" stroke-width="2">
            <circle id="Oval" sketch:type="MSShapeGroup" cx="31" cy="31" r="31"></circle>
            <path d="M47.9,5.5 C49.3,27.2 31,31 31,31 C31,31 28,48 41.7,59.5" id="Shape" sketch:type="MSShapeGroup"></path>
            <path d="M21.9,26.8 C21.9,26.8 17,46.6 32,61.5" id="Shape" sketch:type="MSShapeGroup"></path>
            <path d="M11,26.8 C11,26.8 6.7,44.4 18.8,58.9" id="Shape" sketch:type="MSShapeGroup"></path>
            <path d="M31.4,42.1 C31.4,42.1 51.6,36.2 57.1,15" id="Shape" sketch:type="MSShapeGroup"></path>
            <path d="M36.1,51.8 C36.1,51.8 54.7,46.2 61.7,27" id="Shape" sketch:type="MSShapeGroup"></path>
            <path d="M41.3,24 C41.3,24 24.4,11.4 2.5,19.8" id="Shape" sketch:type="MSShapeGroup"></path>
            <path d="M47,13.9 C47,13.9 31.6,1.3 11,7.9" id="Shape" sketch:type="MSShapeGroup"></path>
            <path d="M31,31 C31,31 15.8,19.5 0.6,32.1" id="Shape" sketch:type="MSShapeGroup"></path>
        </g>
    </g>
</svg>