<?xml version="1.0" encoding="utf-8"?>
<!-- Generator: Adobe Illustrator 17.0.0, SVG Export Plug-In . SVG Version: 6.00 Build 0)  -->
<!DOCTYPE svg PUBLIC "-//W3C//DTD SVG 1.1//EN" "http://www.w3.org/Graphics/SVG/1.1/DTD/svg11.dtd">
<svg version="1.1" id="Layer_1" xmlns:sketch="http://www.bohemiancoding.com/sketch/ns"
	 xmlns="http://www.w3.org/2000/svg" xmlns:xlink="http://www.w3.org/1999/xlink" x="0px" y="0px" width="64px" height="41px"
	 viewBox="0 0 64 41" enable-background="new 0 0 64 41" xml:space="preserve">
<title>Van</title>
<desc>Created with Sketch.</desc>
<g id="Page-1" sketch:type="MSPage">
	<g id="Van" transform="translate(1.000000, 1.000000)" sketch:type="MSLayerGroup">
		<g id="Group" sketch:type="MSShapeGroup">
			<path id="Shape_5_" fill="none" stroke="#6B6C6E" stroke-width="2" d="M55.2,34H60c1.1,0,2-0.9,2-2V2c0-1.1-0.9-2-2-2H30
				c-1.1,0-2,0.9-2,2v31.7"/>
			<path id="Shape" fill="none" stroke="#6B6C6E" stroke-width="2" d="M29,8H14c-1.1,0-2,2-2,2L7,20l-5,1c-1.1,0-2,1.9-2,3v8
				c0,1.1,0.9,2,2,2h6.8"/>
			<path id="Shape_1_" fill="none" stroke="#6B6C6E" stroke-width="2" d="M20,34h24"/>
			<path id="Shape_3_" fill="none" stroke="#6B6C6E" stroke-width="2" d="M0.3,30H7"/>
			<path id="Shape_4_" fill="none" stroke="#6B6C6E" stroke-width="2" d="M21,23h3"/>
			<path id="Shape_6_" fill="none" stroke="#6B6C6E" stroke-width="2" d="M31,6h29"/>
			<path id="Shape_7_" fill="none" stroke="#6B6C6E" stroke-width="2" d="M31,14h29"/>
			<path id="Shape_8_" fill="none" stroke="#6B6C6E" stroke-width="2" d="M31,22h29"/>
			<circle id="Oval" fill="none" stroke="#6B6C6E" stroke-width="2" cx="49.5" cy="33.5" r="5.5"/>
			<circle id="Oval_1_" fill="none" stroke="#6B6C6E" stroke-width="2" cx="14.5" cy="33.5" r="5.5"/>
		</g>
		<path id="Shape_9_" sketch:type="MSShapeGroup" fill="none" stroke="#6B6C6E" stroke-width="2" d="M25,19c0,0.6-0.4,1-1,1H13
			c-0.6,0-1-0.4-1-1l3-6c0,0,0.4-1,1-1h8c0.6,0,1,0.4,1,1V19L25,19z"/>
	</g>
</g>
</svg>
