<?xml version="1.0" encoding="UTF-8" standalone="no"?>
<svg width="64px" height="42px" viewBox="0 0 64 42" version="1.1" xmlns="http://www.w3.org/2000/svg" xmlns:xlink="http://www.w3.org/1999/xlink" xmlns:sketch="http://www.bohemiancoding.com/sketch/ns">
    <!-- Generator: Sketch 3.0.3 (7891) - http://www.bohemiancoding.com/sketch -->
    <title>Wacom-tablet</title>
    <desc>Created with Sketch.</desc>
    <defs></defs>
    <g id="Page-1" stroke="none" stroke-width="1" fill="none" fill-rule="evenodd" sketch:type="MSPage">
        <g id="Wacom-tablet" sketch:type="MSLayerGroup" transform="translate(1.000000, 1.000000)" stroke="#58595B" stroke-width="2">
            <path d="M62,38 C62,39.104 61.104,40 60,40 L2,40 C0.896,40 0,39.104 0,38 L0,2 C0,0.896 0.896,0 2,0 L60,0 C61.104,0 62,0.896 62,2 L62,38 L62,38 Z" id="Shape" sketch:type="MSShapeGroup"></path>
            <path d="M57,33 C57,34.104 56.104,35 55,35 L17,35 C15.896,35 15,34.104 15,33 L15,7 C15,5.896 15.896,5 17,5 L55,5 C56.104,5 57,5.896 57,7 L57,33 L57,33 Z" id="Shape" sketch:type="MSShapeGroup"></path>
            <circle id="Oval" sketch:type="MSShapeGroup" cx="7" cy="20" r="3"></circle>
            <path d="M4,9 L10,9" id="Shape" sketch:type="MSShapeGroup"></path>
            <path d="M4,13 L10,13" id="Shape" sketch:type="MSShapeGroup"></path>
            <path d="M4,27 L10,27" id="Shape" sketch:type="MSShapeGroup"></path>
            <path d="M4,31 L10,31" id="Shape" sketch:type="MSShapeGroup"></path>
        </g>
    </g>
</svg>