<?xml version="1.0" encoding="UTF-8" standalone="no"?>
<svg width="63px" height="46px" viewBox="0 0 63 46" version="1.1" xmlns="http://www.w3.org/2000/svg" xmlns:xlink="http://www.w3.org/1999/xlink" xmlns:sketch="http://www.bohemiancoding.com/sketch/ns">
    <!-- Generator: Sketch 3.0.3 (7891) - http://www.bohemiancoding.com/sketch -->
    <title>Wallet</title>
    <desc>Created with Sketch.</desc>
    <defs></defs>
    <g id="Page-1" stroke="none" stroke-width="1" fill="none" fill-rule="evenodd" sketch:type="MSPage">
        <g id="Wallet" sketch:type="MSLayerGroup" transform="translate(1.000000, 1.000000)" stroke="#6B6C6E" stroke-width="2">
            <path d="M37,3 L57,3 C58.1,3 59,3.9 59,5 L59,11" id="Shape" sketch:type="MSShapeGroup"></path>
            <path d="M0,6.1 L0,42 C0,43.1 0.9,44 2,44 L59,44 C60.1,44 61,43.1 61,42 L61,14 C61,11.7 59.4,10 57.5,10 L3.5,10 C1.6,10 0,8.4 0,6.5 L0,6.5 C0,4.6 1.6,3 3.5,3 L6,3" id="Shape" sketch:type="MSShapeGroup"></path>
            <circle id="Oval" sketch:type="MSShapeGroup" cx="52" cy="27" r="3"></circle>
            <path d="M6,10 L6,2 C6,0.9 6.9,0 8,0 L35,0 C36.1,0 37,0.9 37,2 L37,6" id="Shape" sketch:type="MSShapeGroup"></path>
            <path d="M21.9,10 L21.9,8 C21.9,6.9 22.8,6 23.9,6 L50.1,6 C51.2,6 52.1,6.9 52.1,8 L52.1,10" id="Shape" sketch:type="MSShapeGroup"></path>
        </g>
    </g>
</svg>