<?xml version="1.0" encoding="utf-8"?>
<!-- Generator: Adobe Illustrator 17.0.0, SVG Export Plug-In . SVG Version: 6.00 Build 0)  -->
<!DOCTYPE svg PUBLIC "-//W3C//DTD SVG 1.1//EN" "http://www.w3.org/Graphics/SVG/1.1/DTD/svg11.dtd">
<svg version="1.1" id="Layer_1" xmlns:sketch="http://www.bohemiancoding.com/sketch/ns"
	 xmlns="http://www.w3.org/2000/svg" xmlns:xlink="http://www.w3.org/1999/xlink" x="0px" y="0px" width="46px" height="63px"
	 viewBox="0 0 46 63" enable-background="new 0 0 46 63" xml:space="preserve">
<title>Washing-machine</title>
<desc>Created with Sketch.</desc>
<g id="Page-1" sketch:type="MSPage">
	<g id="Washing-machine" transform="translate(1.000000, 1.000000)" sketch:type="MSLayerGroup">
		<path id="Shape_1_" sketch:type="MSShapeGroup" fill="none" stroke="#6B6C6E" stroke-width="2" d="M41.9,0H2C0.9,0,0,0.9,0,2v55
			c0,1.1,0.9,2,2,2h2v2h7.9v-2h20v2h8v-2h1.9c1.1,0,2-0.9,2-2V2C44,0.9,43.1,0,41.9,0L41.9,0z"/>
		<path id="Shape" sketch:type="MSShapeGroup" fill="none" stroke="#6B6C6E" stroke-width="2" d="M0,10h43"/>
		<path id="Shape_2_" sketch:type="MSShapeGroup" fill="none" stroke="#6B6C6E" stroke-width="2" d="M37,35c0,8.3-6.7,15-15,15
			S7,43.3,7,35s6.7-15,15-15S37,26.7,37,35L37,35z"/>
		<path id="Shape_3_" sketch:type="MSShapeGroup" fill="none" stroke="#6B6C6E" stroke-width="2" d="M33,35c0,6.1-7,5-11,0
			c-3.8-4.7-11,6.1-11,0s4.9-11,11-11S33,28.9,33,35L33,35z"/>
		<path id="Shape_4_" sketch:type="MSShapeGroup" fill="none" stroke="#6B6C6E" stroke-width="2" d="M4.1,5H17"/>
		<path id="Shape_5_" sketch:type="MSShapeGroup" fill="none" stroke="#6B6C6E" stroke-width="2" d="M19,5h5"/>
	</g>
</g>
</svg>
