<?xml version="1.0" encoding="utf-8"?>
<!-- Generator: Adobe Illustrator 17.0.0, SVG Export Plug-In . SVG Version: 6.00 Build 0)  -->
<!DOCTYPE svg PUBLIC "-//W3C//DTD SVG 1.1//EN" "http://www.w3.org/Graphics/SVG/1.1/DTD/svg11.dtd">
<svg version="1.1" id="Layer_1" xmlns:sketch="http://www.bohemiancoding.com/sketch/ns"
	 xmlns="http://www.w3.org/2000/svg" xmlns:xlink="http://www.w3.org/1999/xlink" x="0px" y="0px" width="48px" height="64px"
	 viewBox="0 0 48 64" enable-background="new 0 0 48 64" xml:space="preserve">
<title>Wave-signal-1</title>
<desc>Created with Sketch.</desc>
<g id="Page-1" sketch:type="MSPage">
	<g id="Wave-signal-1" transform="translate(1.000000, 2.000000)" sketch:type="MSLayerGroup">
		<path id="Shape" sketch:type="MSShapeGroup" fill="none" stroke="#6B6C6E" stroke-width="2" d="M25,27.9c1.7-0.9,2.9-2.7,2.9-4.7
			c0-2.9-2.3-5.3-5.1-5.3s-4.9,2.4-4.9,5.3c0,2.1,1.3,4,2.9,4.8c-3.8,4.7-6.9,19.5-6.9,23.8c0,5.1,4.2,9.2,9.1,9.2s8.9-4,8.9-9.1
			C32,47.6,28.8,32.6,25,27.9L25,27.9z"/>
		<path id="Shape_2_" sketch:type="MSShapeGroup" fill="none" stroke="#6B6C6E" stroke-width="2" d="M4,35.9c-2.5-3.7-4-8.2-4-13
			c0-12.7,10.3-23,23-23s23,10.3,23,23c0,4.9-1.5,9.4-4.1,13.1"/>
		<path id="Shape_1_" sketch:type="MSShapeGroup" fill="none" stroke="#6B6C6E" stroke-width="2" d="M10.3,29.9
			c-1.2-2.2-2-4.7-2-7.3c0-8.1,6.6-14.7,14.7-14.7s14.7,6.6,14.7,14.7c0,2.7-0.7,5.2-2,7.3"/>
	</g>
</g>
</svg>
