<?xml version="1.0" encoding="UTF-8" standalone="no"?>
<svg width="64px" height="64px" viewBox="0 0 64 64" version="1.1" xmlns="http://www.w3.org/2000/svg" xmlns:xlink="http://www.w3.org/1999/xlink" xmlns:sketch="http://www.bohemiancoding.com/sketch/ns">
    <!-- Generator: Sketch 3.0.3 (7891) - http://www.bohemiancoding.com/sketch -->
    <title>Weather-cloud-sun-snow</title>
    <desc>Created with Sketch.</desc>
    <defs></defs>
    <g id="Page-1" stroke="none" stroke-width="1" fill="none" fill-rule="evenodd" sketch:type="MSPage">
        <g id="Weather-cloud-sun-snow" sketch:type="MSLayerGroup" transform="translate(1.000000, 0.000000)" stroke-width="2" stroke="#6B6C6E">
            <g id="Group" sketch:type="MSShapeGroup">
                <g transform="translate(0.000000, 10.000000)" id="Shape">
                    <path d="M14.7,8.9 C17.6,3.6 23.3,0 29.8,0 C39.3,0 47,7.6 47,17.1 C47,18.4 46.8,19.7 46.6,20.9"></path>
                    <path d="M47.4,14.5 C48.5,14.1 49.7,14 50.9,14 C57,14 62,18.9 62,25 C62,31.1 57,36 50.9,36 L13.6,36 C6.1,36 0,29.9 0,22.5 C0,15 6.1,9 13.6,9 C17.1,9 20.3,10.3 22.7,12.4"></path>
                </g>
                <path d="M37.2,11 C39.2,8.6 42.3,7 45.7,7 C51.8,7 56.7,11.9 56.7,18 C56.7,20.2 56,22.3 54.9,24" id="Shape"></path>
                <path d="M46,0 L46,4" id="Shape"></path>
                <path d="M33,5.3 L35.8,8.1" id="Shape"></path>
                <path d="M63,18 L59,18" id="Shape"></path>
                <path d="M58.5,5.3 L55.6,8.1" id="Shape"></path>
            </g>
            <path d="M23,52.1 L23,64" id="Shape" sketch:type="MSShapeGroup"></path>
            <path d="M28.9,58 L17,58" id="Shape" sketch:type="MSShapeGroup"></path>
            <path d="M27,54 L19,62" id="Shape" sketch:type="MSShapeGroup"></path>
            <path d="M27,62 L19,54" id="Shape" sketch:type="MSShapeGroup"></path>
            <path d="M41,49.1 L41,63" id="Shape" sketch:type="MSShapeGroup"></path>
            <path d="M48,56 L34,56" id="Shape" sketch:type="MSShapeGroup"></path>
            <path d="M46,51.1 L36,61" id="Shape" sketch:type="MSShapeGroup"></path>
            <path d="M46,61 L36,51.1" id="Shape" sketch:type="MSShapeGroup"></path>
        </g>
    </g>
</svg>