<?xml version="1.0" encoding="UTF-8" standalone="no"?>
<svg width="64px" height="50px" viewBox="0 0 64 50" version="1.1" xmlns="http://www.w3.org/2000/svg" xmlns:xlink="http://www.w3.org/1999/xlink" xmlns:sketch="http://www.bohemiancoding.com/sketch/ns">
    <!-- Generator: Sketch 3.0.3 (7891) - http://www.bohemiancoding.com/sketch -->
    <title>Weather-cloud-heavy-rain</title>
    <desc>Created with Sketch.</desc>
    <defs></defs>
    <g id="Page-1" stroke="none" stroke-width="1" fill="none" fill-rule="evenodd" sketch:type="MSPage">
        <g id="Weather-cloud-heavy-rain" sketch:type="MSLayerGroup" transform="translate(1.000000, 1.000000)" stroke-width="2" stroke="#6B6C6E">
            <g id="Group" sketch:type="MSShapeGroup">
                <path d="M14.7,8.9 C17.6,3.6 23.3,0 29.8,0 C39.3,0 47,7.6 47,17.1 C47,18.4 46.8,19.7 46.6,20.9" id="Shape"></path>
                <path d="M47.4,14.6 C48.5,14.2 49.7,14.1 50.9,14.1 C57,14.1 62,19 62,25.1 C62,31.2 57,36.1 50.9,36.1 L13.6,36.1 C6.1,36.1 0,30 0,22.6 C0,15.1 6.1,9.1 13.6,9.1 C17.1,9.1 20.3,10.4 22.7,12.5" id="Shape"></path>
            </g>
            <path d="M8,40.1 L4,48.1" id="Shape" sketch:type="MSShapeGroup"></path>
            <path d="M16,40.1 L13,46.1" id="Shape" sketch:type="MSShapeGroup"></path>
            <path d="M24,40.1 L20,48.1" id="Shape" sketch:type="MSShapeGroup"></path>
            <path d="M38,40.1 L34,48.1" id="Shape" sketch:type="MSShapeGroup"></path>
            <path d="M46,40.1 L43,46.1" id="Shape" sketch:type="MSShapeGroup"></path>
            <path d="M31,40.1 L28,46.1" id="Shape" sketch:type="MSShapeGroup"></path>
            <path d="M54,40.1 L50,48.1" id="Shape" sketch:type="MSShapeGroup"></path>
        </g>
    </g>
</svg>