<?xml version="1.0" encoding="UTF-8" standalone="no"?>
<svg width="65px" height="56px" viewBox="0 0 65 56" version="1.1" xmlns="http://www.w3.org/2000/svg" xmlns:xlink="http://www.w3.org/1999/xlink" xmlns:sketch="http://www.bohemiancoding.com/sketch/ns">
    <!-- Generator: Sketch 3.0.3 (7891) - http://www.bohemiancoding.com/sketch -->
    <title>Weather-clouds-moon</title>
    <desc>Created with Sketch.</desc>
    <defs></defs>
    <g id="Page-1" stroke="none" stroke-width="1" fill="none" fill-rule="evenodd" sketch:type="MSPage">
        <g id="Weather-clouds-moon" sketch:type="MSLayerGroup" transform="translate(2.000000, 2.000000)" stroke="#6B6C6E" stroke-width="2">
            <g id="Group" transform="translate(0.000000, 23.000000)" sketch:type="MSShapeGroup">
                <g transform="translate(25.000000, 0.000000)" id="Shape">
                    <path d="M6.5,5.9 C8.4,2.4 12,-0.1 16.2,-0.1 C22.3,-0.1 27.3,5 27.3,11.3 C27.3,12.2 27.2,13 27,13.9"></path>
                    <path d="M0.2,8.1 C1.7,6.8 3.7,6 5.8,6 C8,6 10.1,6.9 11.7,8.3"></path>
                    <path d="M27.6,9.5 C28.3,9.3 29.1,9.1 29.8,9.1 C33.8,9.1 37,12.5 37,16.6 C37,20.7 33.8,24.1 29.8,24.1 L15,24.1"></path>
                </g>
                <g transform="translate(0.000000, 6.000000)" id="Shape">
                    <path d="M9.5,5.7 C11.4,2.3 15,0 19.2,0 C25.3,0 30.3,4.9 30.3,10.9 C30.3,11.7 30.2,12.6 30,13.4"></path>
                    <path d="M30.6,9.4 C31.3,9.2 32.1,9.1 32.8,9.1 C36.8,9.1 40,12.2 40,16.1 C40,20 36.8,23.1 32.8,23.1 L8.7,23.1 C3.9,23.1 -0.1,19.3 -0.1,14.5 C-0.1,9.8 3.8,5.9 8.7,5.9 C10.9,5.9 13,6.7 14.6,8.1"></path>
                </g>
            </g>
            <path d="M28.9,18 C21.7,18.5 15.5,13 15.1,5.8 C15,3.9 15.3,2.1 15.9,0.4 C11.5,2.7 8.7,7.5 9,12.8 C9.5,20 15.7,25.4 22.8,25 C28.1,24.7 32.4,21.2 34.2,16.6 C32.6,17.4 30.8,17.9 28.9,18 L28.9,18 Z" id="Shape" sketch:type="MSShapeGroup"></path>
        </g>
    </g>
</svg>