<?xml version="1.0" encoding="UTF-8" standalone="no"?>
<svg width="65px" height="45px" viewBox="0 0 65 45" version="1.1" xmlns="http://www.w3.org/2000/svg" xmlns:xlink="http://www.w3.org/1999/xlink" xmlns:sketch="http://www.bohemiancoding.com/sketch/ns">
    <!-- Generator: Sketch 3.0.3 (7891) - http://www.bohemiancoding.com/sketch -->
    <title>Weather-clouds-snow</title>
    <desc>Created with Sketch.</desc>
    <defs></defs>
    <g id="Page-1" stroke="none" stroke-width="1" fill="none" fill-rule="evenodd" sketch:type="MSPage">
        <g id="Weather-clouds-snow" sketch:type="MSLayerGroup" transform="translate(2.000000, 1.000000)" stroke-width="2" stroke="#6B6C6E">
            <g id="Group" sketch:type="MSShapeGroup">
                <g transform="translate(25.000000, 0.000000)" id="Shape">
                    <path d="M6.5,6 C8.4,2.5 12,0 16.2,0 C22.3,0 27.3,5.1 27.3,11.4 C27.3,12.3 27.2,13.1 27,14"></path>
                    <path d="M0.2,8.1 C1.7,6.8 3.7,6 5.8,6 C8,6 10.1,6.9 11.7,8.3"></path>
                    <path d="M27.6,9.5 C28.3,9.3 29.1,9.1 29.8,9.1 C33.8,9.1 37,12.5 37,16.6 C37,20.7 33.8,24.1 29.8,24 L15,24"></path>
                </g>
                <g transform="translate(0.000000, 6.000000)" id="Shape">
                    <path d="M9.5,5.7 C11.4,2.3 15,0 19.2,0 C25.3,0 30.3,4.9 30.3,10.9 C30.3,11.7 30.2,12.6 30,13.4"></path>
                    <path d="M30.6,9.4 C31.3,9.2 32.1,9.1 32.8,9.1 C36.8,9.1 40,12.2 40,16.1 C40,20 36.8,23.1 32.8,23.1 L8.7,23.1 C3.9,23.1 -0.1,19.3 -0.1,14.5 C-0.1,9.8 3.8,5.9 8.7,5.9 C10.9,5.9 13,6.7 14.6,8.1"></path>
                </g>
            </g>
            <path d="M47,39.9 L47,28.1" id="Shape" sketch:type="MSShapeGroup"></path>
            <path d="M41.1,34.1 L53,34.1" id="Shape" sketch:type="MSShapeGroup"></path>
            <path d="M43,38.1 L51,30.2" id="Shape" sketch:type="MSShapeGroup"></path>
            <path d="M43,30.2 L51,38.1" id="Shape" sketch:type="MSShapeGroup"></path>
            <path d="M19,43.9 L19,32.1" id="Shape" sketch:type="MSShapeGroup"></path>
            <path d="M13.1,38.1 L25,38.1" id="Shape" sketch:type="MSShapeGroup"></path>
            <path d="M15,42.1 L23,34.2" id="Shape" sketch:type="MSShapeGroup"></path>
            <path d="M15,34.2 L23,42.1" id="Shape" sketch:type="MSShapeGroup"></path>
        </g>
    </g>
</svg>