<?xml version="1.0" encoding="utf-8"?>
<!-- Generator: Adobe Illustrator 17.0.0, SVG Export Plug-In . SVG Version: 6.00 Build 0)  -->
<!DOCTYPE svg PUBLIC "-//W3C//DTD SVG 1.1//EN" "http://www.w3.org/Graphics/SVG/1.1/DTD/svg11.dtd">
<svg version="1.1" id="Layer_1" xmlns:sketch="http://www.bohemiancoding.com/sketch/ns"
	 xmlns="http://www.w3.org/2000/svg" xmlns:xlink="http://www.w3.org/1999/xlink" x="0px" y="0px" width="64px" height="30px"
	 viewBox="0 0 64 30" enable-background="new 0 0 64 30" xml:space="preserve">
<title>Weather-cloud-rainbow</title>
<desc>Created with Sketch.</desc>
<g id="Page-1" sketch:type="MSPage">
	<g id="Weather-cloud-rainbow" transform="translate(1.000000, 1.000000)" sketch:type="MSLayerGroup">
		<path id="Shape_2_" sketch:type="MSShapeGroup" fill="none" stroke="#6B6C6E" stroke-width="2" d="M14,6.3C18.9,1.3,25.3,0,32,0
			c17.1,0,30,12.4,30,27.8"/>
		<path id="Shape_3_" sketch:type="MSShapeGroup" fill="none" stroke="#6B6C6E" stroke-width="2" d="M26.9,7.6
			c1.6-0.4,3.3-0.5,5.1-0.5c12.3,0,23,9.3,23,20.7"/>
		<path id="Shape_4_" sketch:type="MSShapeGroup" fill="none" stroke="#6B6C6E" stroke-width="2" d="M32.1,13.8c8.3,0,15,6.3,15,14"
			/>
		<g id="Group" transform="translate(0.000000, 5.000000)" sketch:type="MSShapeGroup">
			<path id="Shape" fill="none" stroke="#6B6C6E" stroke-width="2" d="M9.5,5.6c1.9-3.4,5.5-5.7,9.7-5.7c6.1,0,11.1,4.8,11.1,10.8
				c0,0.8-0.1,1.7-0.3,2.5"/>
			<path id="Shape_1_" fill="none" stroke="#6B6C6E" stroke-width="2" d="M30.6,9.1c0.7-0.2,1.5-0.4,2.2-0.4c4,0,7.2,3.1,7.2,7
				s-3.2,7.1-7.1,7.1H8.8C4,22.8,0,19,0,14.2s3.9-8.6,8.8-8.7c2.2,0,4.3,0.8,5.9,2.2"/>
		</g>
	</g>
</g>
</svg>
