<?xml version="1.0" encoding="UTF-8" standalone="no"?>
<svg width="64px" height="55px" viewBox="0 0 64 55" version="1.1" xmlns="http://www.w3.org/2000/svg" xmlns:xlink="http://www.w3.org/1999/xlink" xmlns:sketch="http://www.bohemiancoding.com/sketch/ns">
    <!-- Generator: Sketch 3.0.3 (7891) - http://www.bohemiancoding.com/sketch -->
    <title>Weather-cloud-moon</title>
    <desc>Created with Sketch.</desc>
    <defs></defs>
    <g id="Page-1" stroke="none" stroke-width="1" fill="none" fill-rule="evenodd" sketch:type="MSPage">
        <g id="Weather-cloud-moon" sketch:type="MSLayerGroup" transform="translate(1.000000, 2.000000)" stroke="#6B6C6E" stroke-width="2">
            <path d="M44.7,24.7 C45.7,24.9 46.7,24.9 47.8,24.9 C53.1,24.6 57.4,21.1 59.2,16.5 C57.6,17.3 55.8,17.9 53.9,18 C46.7,18.5 40.5,13 40.1,5.8 C40,3.9 40.3,2.1 40.9,0.4 C36.5,2.7 33.7,7.5 34,12.8 C34.1,14 34.3,15.2 34.7,16.3" id="Shape" sketch:type="MSShapeGroup"></path>
            <g id="Group" transform="translate(0.000000, 16.000000)" sketch:type="MSShapeGroup">
                <path d="M14.7,8.9 C17.6,3.6 23.3,0 29.8,0 C39.3,0 47,7.6 47,17.1 C47,18.4 46.8,19.7 46.6,20.9" id="Shape"></path>
                <path d="M47.4,14.5 C48.5,14.1 49.7,14 50.9,14 C57,14 62,18.9 62,25 C62,31.1 57,36 50.9,36 L13.6,36 C6.1,36 0,29.9 0,22.5 C0,15 6.1,9 13.6,9 C17.1,9 20.3,10.3 22.7,12.4" id="Shape"></path>
            </g>
        </g>
    </g>
</svg>