<?xml version="1.0" encoding="utf-8"?>
<!-- Generator: Adobe Illustrator 17.0.0, SVG Export Plug-In . SVG Version: 6.00 Build 0)  -->
<!DOCTYPE svg PUBLIC "-//W3C//DTD SVG 1.1//EN" "http://www.w3.org/Graphics/SVG/1.1/DTD/svg11.dtd">
<svg version="1.1" id="Layer_1" xmlns:sketch="http://www.bohemiancoding.com/sketch/ns"
	 xmlns="http://www.w3.org/2000/svg" xmlns:xlink="http://www.w3.org/1999/xlink" x="0px" y="0px" width="65px" height="37px"
	 viewBox="0 0 65 37" enable-background="new 0 0 65 37" xml:space="preserve">
<title>Wheel-barrow</title>
<desc>Created with Sketch.</desc>
<g id="Page-1" sketch:type="MSPage">
	<g id="Wheel-barrow" transform="translate(1.000000, 1.000000)" sketch:type="MSLayerGroup">
		<circle id="Oval" sketch:type="MSShapeGroup" fill="none" stroke="#6B6C6E" stroke-width="2" cx="56" cy="28" r="7">
		</circle>
		<path id="Shape" sketch:type="MSShapeGroup" fill="none" stroke="#6B6C6E" stroke-width="2" d="M44.951,23.792l11.1,4.2"/>
		<path id="Shape_1_" sketch:type="MSShapeGroup" fill="none" stroke="#6B6C6E" stroke-width="2" stroke-linecap="round" d="M19,2.7
			L0.036,0.696"/>
		<path id="Shape_4_" sketch:type="MSShapeGroup" fill="none" stroke="#6B6C6E" stroke-width="2" d="M38.452,21.465L22.7,32
			c-0.8,0.3-1.6-0.1-1.8-0.9c0,0,3.205-13.162,3.605-14.862"/>
		<path id="Shape_3_" sketch:type="MSShapeGroup" fill="none" stroke="#6B6C6E" stroke-width="2" d="M45.5,24
			c0,0-28.5-10.1-28.5-11.2V4.7c0-1.1,0.9-2,2-2l41.8,5.1c1.158,0.221,2,0.842,2,2C62.8,9.8,46.6,24,45.5,24L45.5,24z"/>
	</g>
</g>
</svg>
