<?xml version="1.0" encoding="UTF-8" standalone="no"?>
<svg width="39px" height="64px" viewBox="0 0 39 64" version="1.1" xmlns="http://www.w3.org/2000/svg" xmlns:xlink="http://www.w3.org/1999/xlink" xmlns:sketch="http://www.bohemiancoding.com/sketch/ns">
    <!-- Generator: Sketch 3.0.3 (7891) - http://www.bohemiancoding.com/sketch -->
    <title>Wine-glass</title>
    <desc>Created with Sketch.</desc>
    <defs></defs>
    <g id="Page-1" stroke="none" stroke-width="1" fill="none" fill-rule="evenodd" sketch:type="MSPage">
        <g id="Wine-glass" sketch:type="MSLayerGroup" transform="translate(2.000000, 1.000000)" stroke="#6B6C6E" stroke-width="2">
            <path d="M21,56.3 L32,61 C32,61.6 31.2,62 30.2,62 L5.7,62 C4.7,62 3.9,61.6 3.9,61 L14.9,56.3 L14.9,33.8 C6.4,32.6 -0.1,29.2 -0.1,19 C-0.1,14.5 1.2,3.9 3.4,0 L32.4,0 C34.6,3.9 35.9,14.5 35.9,19 C35.9,29.2 29.4,32.6 20.9,33.8 L20.9,56.3 L21,56.3 Z" id="Shape" sketch:type="MSShapeGroup"></path>
            <path d="M0.6,11.1 C0.6,11.1 3.7,8.3 12.4,12.2 C20,15.6 20.4,15.5 26.7,13.2 C33.5,10.7 35.6,14 35.6,14" id="Shape" sketch:type="MSShapeGroup"></path>
        </g>
    </g>
</svg>