<?xml version="1.0" encoding="UTF-8" standalone="no"?>
<svg width="64px" height="64px" viewBox="0 0 64 64" version="1.1" xmlns="http://www.w3.org/2000/svg" xmlns:xlink="http://www.w3.org/1999/xlink" xmlns:sketch="http://www.bohemiancoding.com/sketch/ns">
    <!-- Generator: Sketch 3.0.3 (7891) - http://www.bohemiancoding.com/sketch -->
    <title>Wrench</title>
    <desc>Created with Sketch.</desc>
    <defs></defs>
    <g id="Page-1" stroke="none" stroke-width="1" fill="none" fill-rule="evenodd" sketch:type="MSPage">
        <g id="Wrench" sketch:type="MSLayerGroup" transform="translate(1.000000, 1.000000)" stroke="#6B6C6E" stroke-width="2">
            <path d="M44.1,25 C48.8,26.9 52,28.4 58.2,22.2 C60.8,19.6 62.1,16.1 62,12.7 L56.9,17.8 L46.9,15.1 L44.2,5.1 L49.3,-1.8233505e-13 C45.9,-0.1 42.5,1.2 39.8,3.8 C33.6,10 35,13.2 37,17.9" id="Shape" sketch:type="MSShapeGroup"></path>
            <path d="M17.9,37 C13.2,35.1 10.1,33.6 3.8,39.8 C1.2,42.4 -0.1,45.8 2.95319325e-13,49.3 L4.9,44.4 L14.9,47.1 L17.6,57.1 L12.7,62 C16.1,62.1 19.6,60.8 22.2,58.2 C28.4,52 27,48.8 25.1,44.2" id="Shape" sketch:type="MSShapeGroup"></path>
            <path d="M15.9,39 L39.1,15.8" id="Shape" sketch:type="MSShapeGroup"></path>
            <path d="M46.2,22.9 L22.9,46.1" id="Shape" sketch:type="MSShapeGroup"></path>
            <path d="M38.4,23.7 L24.5,37.6" id="Shape" sketch:type="MSShapeGroup"></path>
        </g>
    </g>
</svg>