<?xml version="1.0" encoding="UTF-8" standalone="no"?>
<svg width="64px" height="72px" viewBox="0 0 64 72" version="1.1" xmlns="http://www.w3.org/2000/svg" xmlns:xlink="http://www.w3.org/1999/xlink" xmlns:sketch="http://www.bohemiancoding.com/sketch/ns">
    <!-- Generator: Sketch 3.0.3 (7891) - http://www.bohemiancoding.com/sketch -->
    <title>Yacth</title>
    <desc>Created with Sketch.</desc>
    <defs></defs>
    <g id="Page-1" stroke="none" stroke-width="1" fill="none" fill-rule="evenodd" sketch:type="MSPage">
        <g id="Yacth" sketch:type="MSLayerGroup" transform="translate(1.000000, 10.000000)" stroke="#6B6C6E" stroke-width="2">
            <path d="M55.3,61 L12,61 C11,61 11,61 10,60 C3.1,56.1 0,44.9 0,44.9 C0,43.8 0.9,42.9 2,42.9 C2,42.9 11.8,50.9 59.1,49.9 C62.1,49.9 61.1,50.8 61.1,51.9 C61,52 60.2,59.1 55.3,61 L55.3,61 Z" id="Shape" sketch:type="MSShapeGroup"></path>
            <path d="M37,0 L37,45.3 C37,45.3 41.9,43.3 58.6,44.3 C58.6,44.3 42.9,27.6 37,0 L37,0 Z" id="Shape" sketch:type="MSShapeGroup"></path>
            <path d="M32.6,5 C32.6,5 24.7,27.3 30.6,44 C31.6,44 11.9,43.3 9,39.4 C9,39.4 6.1,25.6 32.6,5 L32.6,5 Z" id="Shape" sketch:type="MSShapeGroup"></path>
        </g>
    </g>
</svg>