<?xml version="1.0" encoding="iso-8859-1"?>
<!-- Generator: Adobe Illustrator 19.2.1, SVG Export Plug-In . SVG Version: 6.00 Build 0)  -->
<svg version="1.1" xmlns="http://www.w3.org/2000/svg" xmlns:xlink="http://www.w3.org/1999/xlink" x="0px" y="0px"
	 viewBox="0 0 16.068 16.077" style="enable-background:new 0 0 16.068 16.077;" xml:space="preserve">
<g id="Layer_9">
	
		<line style="fill:none;stroke:#66CCFF;stroke-linecap:round;stroke-linejoin:round;" x1="2.603" y1="7.574" x2="8.503" y2="13.474"/>
	<circle style="fill:none;stroke:#66CCFF;stroke-linecap:round;stroke-linejoin:round;" cx="8.553" cy="4.524" r="2"/>
	<path style="fill:none;stroke:#4E5F80;stroke-linecap:round;stroke-linejoin:round;stroke-miterlimit:10;" d="M13.667,11.602
		c2.837-2.837,2.498-7.667-1.018-10.028c-2.182-1.465-5.129-1.426-7.28,0.085C2.804,3.462,2.01,6.603,2.975,9.241
		c0.276,0.753,0.146,1.593-0.421,2.161l-1.615,1.615c-0.586,0.586-0.586,1.536,0,2.121c0.586,0.586,1.536,0.586,2.121,0l1.661-1.661
		c0.541-0.541,1.344-0.663,2.06-0.394C9.096,13.952,11.808,13.461,13.667,11.602z"/>
</g>
<g id="Layer_1">
</g>
</svg>
