<?xml version="1.0" encoding="iso-8859-1"?>
<!-- Generator: Adobe Illustrator 19.2.1, SVG Export Plug-In . SVG Version: 6.00 Build 0)  -->
<svg version="1.1" xmlns="http://www.w3.org/2000/svg" xmlns:xlink="http://www.w3.org/1999/xlink" x="0px" y="0px"
	 viewBox="0 0 15.997 15.997" style="enable-background:new 0 0 15.997 15.997;" xml:space="preserve">
<g id="Layer_19">
	<path style="fill:none;stroke:#66CCFF;stroke-linecap:round;stroke-linejoin:round;" d="M15.423,6.931
		c-0.962-2.029-3.029-3.432-5.424-3.432c-1.678,0-3.195,0.689-4.284,1.799"/>
	<path style="fill:none;stroke:#66CCFF;stroke-linecap:round;stroke-linejoin:round;" d="M7.999,7.998
		C5.016,6.507,4.732,2.514,7.147,0.547"/>
	<path style="fill:none;stroke:#66CCFF;stroke-linecap:round;stroke-linejoin:round;" d="M3.362,2.103
		c-1.276,1.848-1.457,4.34-0.26,6.413c0.839,1.453,2.194,2.422,3.7,2.81"/>
	<path style="fill:none;stroke:#66CCFF;stroke-linecap:round;stroke-linejoin:round;" d="M7.999,7.999
		c2.783-1.837,6.383-0.087,6.879,2.988"/>
	<path style="fill:none;stroke:#66CCFF;stroke-linecap:round;stroke-linejoin:round;" d="M7.998,7.999
		c0.2,3.329-3.116,5.571-6.028,4.463"/>
	<path style="fill:none;stroke:#66CCFF;stroke-linecap:round;stroke-linejoin:round;" d="M5.212,14.962
		c2.238,0.181,4.487-0.908,5.684-2.981c0.839-1.453,1.001-3.111,0.584-4.609"/>
	
		<ellipse transform="matrix(0.5 -0.866 0.866 0.5 -2.9277 10.9263)" style="fill:none;stroke:#4E5F80;stroke-linecap:round;stroke-linejoin:round;stroke-miterlimit:10;" cx="7.999" cy="7.999" rx="7.5" ry="7.5"/>
</g>
<g id="Layer_1">
</g>
</svg>
