<?xml version="1.0" encoding="iso-8859-1"?>
<!-- Generator: Adobe Illustrator 19.2.1, SVG Export Plug-In . SVG Version: 6.00 Build 0)  -->
<svg version="1.1" xmlns="http://www.w3.org/2000/svg" xmlns:xlink="http://www.w3.org/1999/xlink" x="0px" y="0px"
	 viewBox="0 0 16 15.015" style="enable-background:new 0 0 16 15.015;" xml:space="preserve">
<g id="Layer_23">
	<circle style="fill:#66CCFF;" cx="8" cy="11.998" r="1"/>
	<path style="fill:none;stroke:#4E5F80;stroke-linecap:round;stroke-linejoin:round;stroke-miterlimit:10;" d="M8,9.498
		c-0.171,0-0.338-0.033-0.5,0c-0.552,0-1-0.44-1-0.992c0-0.552,0.448-0.992,1-0.992h7c0-4-3.134-7.008-7-7.008s-7,3.13-7,6.996
		s3.134,6.998,7,6.998c0.162,0.033,0.329-0.001,0.5-0.001c1.381,0,2.5-1.12,2.5-2.501S9.381,9.498,8,9.498z"/>
	
		<line style="fill:none;stroke:#4E5F80;stroke-linecap:round;stroke-linejoin:round;stroke-miterlimit:10;" x1="13.5" y1="7.498" x2="15.5" y2="7.498"/>
</g>
<g id="Layer_1">
</g>
</svg>
