<?xml version="1.0" encoding="iso-8859-1"?>
<!-- Generator: Adobe Illustrator 19.2.1, SVG Export Plug-In . SVG Version: 6.00 Build 0)  -->
<svg version="1.1" xmlns="http://www.w3.org/2000/svg" xmlns:xlink="http://www.w3.org/1999/xlink" x="0px" y="0px"
	 viewBox="0 0 15.778 15.778" style="enable-background:new 0 0 15.778 15.778;" xml:space="preserve">
<g id="Layer_5">
	<g>
		<line style="fill:none;stroke:#66CCFF;" x1="3.936" y1="9.593" x2="6.121" y2="11.778"/>
		
			<rect x="5.828" y="11.485" transform="matrix(-0.7071 0.7071 -0.7071 -0.7071 20.4853 16.4853)" style="fill:none;stroke:#66CCFF;stroke-linecap:round;stroke-linejoin:round;" width="2" height="2"/>
		
			<rect x="2.293" y="7.95" transform="matrix(-0.7071 0.7071 -0.7071 -0.7071 11.9499 12.9495)" style="fill:none;stroke:#66CCFF;stroke-linecap:round;stroke-linejoin:round;" width="2" height="2"/>
		<line style="fill:none;stroke:#66CCFF;" x1="9.657" y1="4" x2="11.778" y2="6.121"/>
		
			<rect x="11.485" y="5.828" transform="matrix(-0.7071 0.7071 -0.7071 -0.7071 26.1422 2.8284)" style="fill:none;stroke:#66CCFF;stroke-linecap:round;stroke-linejoin:round;" width="2" height="2"/>
		
			<rect x="7.95" y="2.293" transform="matrix(-0.7071 0.7071 -0.7071 -0.7071 17.6068 -0.7068)" style="fill:none;stroke:#66CCFF;stroke-linecap:round;stroke-linejoin:round;" width="2" height="2"/>
	</g>
	<path style="fill:none;stroke:#4E5F80;stroke-linecap:round;stroke-linejoin:round;stroke-miterlimit:10;" d="M1.525,9.303
		l7.778-7.778c1.367-1.367,3.583-1.367,4.95,0l0,0c1.367,1.367,1.367,3.583,0,4.95l-7.778,7.778c-1.367,1.367-3.583,1.367-4.95,0
		l0,0C0.158,12.886,0.158,10.67,1.525,9.303z"/>
</g>
<g id="Layer_1">
</g>
</svg>
