<?xml version="1.0" encoding="iso-8859-1"?>
<!-- Generator: Adobe Illustrator 19.2.1, SVG Export Plug-In . SVG Version: 6.00 Build 0)  -->
<svg version="1.1" xmlns="http://www.w3.org/2000/svg" xmlns:xlink="http://www.w3.org/1999/xlink" x="0px" y="0px"
	 viewBox="0 0 16.118 16.115" style="enable-background:new 0 0 16.118 16.115;" xml:space="preserve">
<g id="Layer_3">
	<g>
		
			<line style="fill:none;stroke:#66CCFF;stroke-linecap:round;stroke-linejoin:round;" x1="4.81" y1="8.807" x2="7.31" y2="11.307"/>
		
			<line style="fill:none;stroke:#66CCFF;stroke-linecap:round;stroke-linejoin:round;" x1="7.81" y1="14.807" x2="1.31" y2="8.307"/>
		
			<line style="fill:none;stroke:#66CCFF;stroke-linecap:round;stroke-linejoin:round;" x1="2.31" y1="9.307" x2="6.81" y2="13.807"/>
		
			<line style="fill:none;stroke:#66CCFF;stroke-linecap:round;stroke-linejoin:round;" x1="5.31" y1="15.307" x2="0.81" y2="10.807"/>
		
			<line style="fill:none;stroke:#66CCFF;stroke-linecap:round;stroke-linejoin:round;" x1="8.31" y1="1.307" x2="14.81" y2="7.807"/>
		
			<line style="fill:none;stroke:#66CCFF;stroke-linecap:round;stroke-linejoin:round;" x1="11.31" y1="7.307" x2="8.81" y2="4.807"/>
		
			<line style="fill:none;stroke:#66CCFF;stroke-linecap:round;stroke-linejoin:round;" x1="13.81" y1="6.807" x2="9.31" y2="2.307"/>
		
			<line style="fill:none;stroke:#66CCFF;stroke-linecap:round;stroke-linejoin:round;" x1="10.81" y1="0.807" x2="15.31" y2="5.307"/>
	</g>
	<g>
		<path style="fill:none;stroke:#4E5F80;stroke-linecap:round;stroke-linejoin:round;stroke-miterlimit:10;" d="M1.842,12.861
			c-0.391,0.391-0.391,1.024,0,1.414h0c0.391,0.39,1.024,0.39,1.414,0l0.507-0.507L2.35,12.354L1.842,12.861z"/>
		<path style="fill:none;stroke:#4E5F80;stroke-linecap:round;stroke-linejoin:round;stroke-miterlimit:10;" d="M15.31,6.807
			c0.41-0.41,0.41-1.09,0-1.5l-1.543-1.543l0.5-0.5c0.391-0.39,0.391-1.024,0-1.414c-0.391-0.391-1.024-0.391-1.414,0l-0.5,0.5
			L10.81,0.807c-0.41-0.41-1.09-0.41-1.5,0C9.1,1.017,9,1.287,9,1.557s0.1,0.54,0.31,0.75l-1-1c-0.41-0.41-1.09-0.41-1.5,0
			C6.6,1.517,6.5,1.787,6.5,2.057s0.1,0.54,0.31,0.75l2.55,2.55l-4,4l-2.55-2.55c-0.41-0.41-1.09-0.41-1.5,0
			C1.1,7.017,1,7.287,1,7.557s0.1,0.54,0.31,0.75l1,1c-0.41-0.41-1.09-0.41-1.5,0c-0.21,0.21-0.31,0.48-0.31,0.75
			c0,0.27,0.1,0.54,0.31,0.75l4.5,4.5c0.41,0.41,1.09,0.41,1.5,0c0.41-0.41,0.41-1.09,0-1.5l1,1c0.41,0.41,1.09,0.41,1.5,0
			c0.41-0.41,0.41-1.09,0-1.5l-2.54-2.54l4-4l2.54,2.54c0.41,0.41,1.09,0.41,1.5,0c0.41-0.41,0.41-1.09,0-1.5l-1-1
			C14.22,7.217,14.9,7.217,15.31,6.807z"/>
	</g>
</g>
<g id="Layer_1">
</g>
</svg>
