<?xml version="1.0" encoding="iso-8859-1"?>
<!-- Generator: Adobe Illustrator 19.2.1, SVG Export Plug-In . SVG Version: 6.00 Build 0)  -->
<svg version="1.1" xmlns="http://www.w3.org/2000/svg" xmlns:xlink="http://www.w3.org/1999/xlink" x="0px" y="0px"
	 viewBox="0 0 16 16" style="enable-background:new 0 0 16 16;" xml:space="preserve">
<g id="Layer_20">
	<g>
		<polygon style="fill:none;stroke:#66CCFF;" points="5.997,10.025 5.23,7.235 7.236,5.229 10.014,5.986 10.772,8.764 8.763,10.773 
					"/>
		<line style="fill:none;stroke:#66CCFF;" x1="6.545" y1="2.483" x2="8.551" y2="0.476"/>
		<polyline style="fill:none;stroke:#66CCFF;" points="3.721,1.771 6.499,2.528 7.257,5.306 		"/>
		<line style="fill:none;stroke:#66CCFF;" x1="12.291" y1="14.279" x2="9.525" y2="13.532"/>
		<polyline style="fill:none;stroke:#66CCFF;" points="8.712,10.787 9.47,13.564 7.461,15.573 		"/>
		<polyline style="fill:none;stroke:#66CCFF;" points="4.695,14.826 3.928,12.036 5.934,10.029 		"/>
		<line style="fill:none;stroke:#66CCFF;" x1="13.542" y1="9.493" x2="14.299" y2="12.27"/>
		<polyline style="fill:none;stroke:#66CCFF;" points="15.601,7.47 13.593,9.479 10.827,8.731 		"/>
		<line style="fill:none;stroke:#66CCFF;" x1="3.933" y1="12.067" x2="1.167" y2="11.319"/>
		<line style="fill:none;stroke:#66CCFF;" x1="0.4" y1="8.529" x2="2.407" y2="6.523"/>
		<polyline style="fill:none;stroke:#66CCFF;" points="5.248,7.315 2.482,6.567 1.715,3.777 		"/>
		<polyline style="fill:none;stroke:#66CCFF;" points="10.059,5.941 12.066,3.935 14.844,4.692 		"/>
		<line style="fill:none;stroke:#66CCFF;" x1="11.329" y1="1.234" x2="12.087" y2="4.012"/>
	</g>
	<path style="fill:none;stroke:#4E5F80;stroke-miterlimit:10;" d="M0.756,6.059c0.693-2.588,2.715-4.61,5.303-5.303
		c2.588-0.693,5.35,0.046,7.244,1.941s2.635,4.656,1.941,7.244c-0.694,2.588-2.715,4.61-5.303,5.303
		c-2.588,0.693-5.35-0.047-7.244-1.941S0.062,8.647,0.756,6.059z"/>
</g>
<g id="Layer_1">
</g>
</svg>
