<?xml version="1.0" encoding="iso-8859-1"?>
<!-- Generator: Adobe Illustrator 19.2.1, SVG Export Plug-In . SVG Version: 6.00 Build 0)  -->
<svg version="1.1" xmlns="http://www.w3.org/2000/svg" xmlns:xlink="http://www.w3.org/1999/xlink" x="0px" y="0px"
	 viewBox="0 0 15.926 15.952" style="enable-background:new 0 0 15.926 15.952;" xml:space="preserve">
<g id="Layer_22">
	<g>
		<path style="fill:none;stroke:#66CCFF;stroke-linejoin:round;" d="M15.464,6.485L9.482,6.466c-2.217,0-3.982,1.787-3.982,3.992
			v1.494"/>
		<circle style="fill:#66CCFF;" cx="4.882" cy="11.952" r="1"/>
		<line style="fill:none;stroke:#66CCFF;stroke-linejoin:round;" x1="7.882" y1="11.452" x2="5.882" y2="11.452"/>
		<line style="fill:none;stroke:#66CCFF;stroke-linejoin:round;" x1="9.382" y1="6.452" x2="9.382" y2="8.452"/>
		<line style="fill:none;stroke:#66CCFF;stroke-linejoin:round;" x1="10" y1="13.452" x2="15" y2="13.452"/>
		<line style="fill:none;stroke:#66CCFF;stroke-linejoin:round;" x1="12.5" y1="14.952" x2="12.5" y2="11.952"/>
	</g>
	<g>
		<path style="fill:none;stroke:#4E5F80;stroke-linecap:round;stroke-linejoin:round;stroke-miterlimit:10;" d="M5.065,14.446
			c1.328-0.092,2.316-1.285,2.316-2.617v-1.371c0-1.107,0.899-2.003,2.006-2l5.028,0.015c0.606,0.002,1.089-0.534,1.001-1.134
			C14.871,3.663,11.753,0.5,8,0.5c-4.136,0-7.5,3.34-7.5,7.476C0.5,10.643,2.359,14.633,5.065,14.446z"/>
		<path style="fill:none;stroke:#4E5F80;stroke-linecap:round;stroke-linejoin:round;stroke-miterlimit:10;" d="M7.382,11.452
			c2.343,0,6.736,0,8,0v3c0,0.552-0.448,1-1,1h-3c-1.105,0-2-0.895-2-2V8.458v0.494"/>
	</g>
</g>
<g id="Layer_1">
</g>
</svg>
