<?xml version="1.0" encoding="iso-8859-1"?>
<!-- Generator: Adobe Illustrator 19.2.1, SVG Export Plug-In . SVG Version: 6.00 Build 0)  -->
<svg version="1.1" xmlns="http://www.w3.org/2000/svg" xmlns:xlink="http://www.w3.org/1999/xlink" x="0px" y="0px"
	 viewBox="0 0 14 16" style="enable-background:new 0 0 14 16;" xml:space="preserve">
<g id="Layer_8">
	<g>
		<path style="fill:none;stroke:#66CCFF;stroke-linecap:round;stroke-linejoin:round;stroke-miterlimit:10;" d="M2.332,6.736
			C2.691,6.584,3.086,6.5,3.5,6.5c1.402,0,1.097,0,2.5,0c0.828,0,1.5,0.672,1.5,1.5c0,0.829-0.672,1.5-1.5,1.5
			c-0.511,0-1.989,0-2.5,0"/>
		<path style="fill:none;stroke:#66CCFF;stroke-linecap:round;stroke-linejoin:round;stroke-miterlimit:10;" d="M12.5,12.5
			c-0.209,0-9.169,0-9,0"/>
		<path style="fill:none;stroke:#66CCFF;stroke-linecap:round;stroke-linejoin:round;stroke-miterlimit:10;" d="M2.5,6.671"/>
		<path style="fill:none;stroke:#66CCFF;stroke-linecap:round;stroke-linejoin:round;stroke-miterlimit:10;" d="M7.5,7.5h3
			c1.657,0,3-1.343,3-3"/>
	</g>
	<path style="fill:none;stroke:#4E5F80;stroke-linecap:round;stroke-linejoin:round;stroke-miterlimit:10;" d="M10.5,0.5h-5
		c-1.657,0-3,1.343-3,3v3.171l0.004,0.012C1.339,7.095,0.5,8.194,0.5,9.5c0,1.657,1.343,3,3,3v2c0,0.552,0.448,1,1,1h7
		c0.552,0,1-0.448,1-1v-2c0.552,0,1-0.448,1-1v-8C13.5,1.843,12.157,0.5,10.5,0.5z"/>
</g>
<g id="Layer_1">
</g>
</svg>
