<?xml version="1.0" encoding="utf-8"?>
<!-- Generator: Adobe Illustrator 14.0.0, SVG Export Plug-In . SVG Version: 6.00 Build 43363)  -->
<!DOCTYPE svg PUBLIC "-//W3C//DTD SVG 1.1//EN" "http://www.w3.org/Graphics/SVG/1.1/DTD/svg11.dtd">
<svg version="1.1" id="Layer_1" xmlns="http://www.w3.org/2000/svg" xmlns:xlink="http://www.w3.org/1999/xlink" x="0px" y="0px"
	 width="50px" height="50px" viewBox="0 0 50 50" enable-background="new 0 0 50 50" xml:space="preserve">
<g>
	<g>
		<path fill="none" stroke="#FFFFFF" stroke-linejoin="round" d="M12.584,34.418c0,1.658,1.343,3,3,3h18.832c1.658,0,3-1.342,3-3
			V15.585c0-1.656-1.342-3-3-3H15.584c-1.657,0-3,1.344-3,3V34.418z"/>
		<path fill="none" stroke="#FFFFFF" stroke-linejoin="round" d="M14.688,37.502c0.625,0.25,0.959,8.5,0.959,8.5
			c0,1.658,1.342,3,3,3h12.832c1.658,0,3-1.342,3-3c0,0,0.396-8.062,0.834-8.5"/>
		<path fill="none" stroke="#FFFFFF" stroke-linejoin="round" d="M35.311,12.498c-0.625-0.25-0.958-8.5-0.958-8.5
			c0-1.657-1.343-3-3-3H18.52c-1.658,0-3,1.343-3,3c0,0-0.396,8.062-0.834,8.5"/>
	</g>
	<polyline fill="none" stroke="#F45389" stroke-linecap="round" stroke-linejoin="round" points="29.25,20.05 25.25,27.201 
		20.75,27.201 	"/>
</g>
</svg>
