<?xml version="1.0" encoding="utf-8"?>
<!-- Generator: Adobe Illustrator 14.0.0, SVG Export Plug-In . SVG Version: 6.00 Build 43363)  -->
<!DOCTYPE svg PUBLIC "-//W3C//DTD SVG 1.1//EN" "http://www.w3.org/Graphics/SVG/1.1/DTD/svg11.dtd">
<svg version="1.1" id="Layer_1" xmlns="http://www.w3.org/2000/svg" xmlns:xlink="http://www.w3.org/1999/xlink" x="0px" y="0px"
	 width="50px" height="50px" viewBox="0 0 50 50" enable-background="new 0 0 50 50" xml:space="preserve">
<g>
	<path fill="none" stroke="#F45389" stroke-linecap="round" stroke-linejoin="round" d="M41.155,8.212c0.771,0,1.538,0,2.308,0"/>
	<path fill="none" stroke="#F45389" stroke-linecap="round" stroke-linejoin="round" d="M28.774,8.212c2.854,0,5.709,0,8.563,0"/>
	<path fill="none" stroke="#FFFFFF" d="M49,36.027c0,0.984-0.668,1.781-1.494,1.781H2.495C1.67,37.809,1,37.012,1,36.027V3.362
		C1,2.377,1.67,1.58,2.495,1.58h45.011C48.332,1.58,49,2.377,49,3.362V36.027z"/>
	<line fill="none" stroke="#FFFFFF" x1="1" y1="28.625" x2="49" y2="28.625"/>
	<polyline fill="none" stroke="#FFFFFF" stroke-linecap="round" stroke-linejoin="round" points="14.52,44.709 14.52,48.42 
		35.48,48.42 35.48,44.709 	"/>
	<path fill="none" stroke="#FFFFFF" stroke-linecap="round" stroke-linejoin="round" d="M35.412,44.637
		c-0.905-0.475-6.453-1.578-6.853-6.514h-7.118c-0.4,4.936-5.949,6.039-6.854,6.514"/>
	
		<line fill="none" stroke="#FFFFFF" stroke-linecap="round" stroke-linejoin="round" x1="35.125" y1="44.781" x2="14.875" y2="44.781"/>
</g>
</svg>
