<?xml version="1.0" encoding="utf-8"?>
<!-- Generator: Adobe Illustrator 14.0.0, SVG Export Plug-In . SVG Version: 6.00 Build 43363)  -->
<!DOCTYPE svg PUBLIC "-//W3C//DTD SVG 1.1//EN" "http://www.w3.org/Graphics/SVG/1.1/DTD/svg11.dtd">
<svg version="1.1" id="Layer_1" xmlns="http://www.w3.org/2000/svg" xmlns:xlink="http://www.w3.org/1999/xlink" x="0px" y="0px"
	 width="50px" height="50px" viewBox="0 0 50 50" enable-background="new 0 0 50 50" xml:space="preserve">
<g>
	<path fill="none" stroke="#F45389" stroke-linecap="round" stroke-linejoin="round" d="M30.818,12c0.77,0,1.538,0,2.308,0"/>
	<path fill="none" stroke="#F45389" stroke-linecap="round" stroke-linejoin="round" d="M18.437,12c2.854,0,5.709,0,8.563,0"/>
	<path fill="none" stroke="#FFFFFF" stroke-linecap="round" stroke-linejoin="round" d="M37.5,46.5c0,1.658-1.343,3-3,3h-19
		c-1.656,0-3-1.342-3-3v-43c0-1.657,1.344-3,3-3h19c1.657,0,3,1.343,3,3V46.5z"/>
	<line fill="none" stroke="#FFFFFF" stroke-linejoin="round" x1="37.084" y1="6.5" x2="12.916" y2="6.5"/>
	<line fill="none" stroke="#FFFFFF" stroke-linejoin="round" x1="37.25" y1="40" x2="12.75" y2="40"/>
	<circle fill="none" stroke="#FFFFFF" stroke-linejoin="round" cx="25" cy="44.666" r="2"/>
	
		<line fill="none" stroke="#FFFFFF" stroke-linecap="round" stroke-linejoin="round" x1="27.167" y1="3.167" x2="22.833" y2="3.167"/>
</g>
</svg>
