<?xml version="1.0" encoding="utf-8"?>
<!-- Generator: Adobe Illustrator 14.0.0, SVG Export Plug-In . SVG Version: 6.00 Build 43363)  -->
<!DOCTYPE svg PUBLIC "-//W3C//DTD SVG 1.1//EN" "http://www.w3.org/Graphics/SVG/1.1/DTD/svg11.dtd">
<svg version="1.1" id="Layer_1" xmlns="http://www.w3.org/2000/svg" xmlns:xlink="http://www.w3.org/1999/xlink" x="0px" y="0px"
	 width="50px" height="50px" viewBox="0 0 50 50" enable-background="new 0 0 50 50" xml:space="preserve">
<g>
	<path fill="none" stroke="#F45389" stroke-linecap="round" stroke-linejoin="round" d="M31.359,10.958c0.77,0,1.539,0,2.309,0"/>
	<path fill="none" stroke="#F45389" stroke-linecap="round" stroke-linejoin="round" d="M18.978,10.958c2.854,0,5.709,0,8.563,0"/>
	<path fill="none" stroke="#FFFFFF" d="M8.668,49c-0.984,0-1.782-0.668-1.782-1.494V2.495C6.886,1.67,7.684,1,8.668,1h32.664
		c0.986,0,1.783,0.67,1.783,1.495v45.011c0,0.826-0.797,1.494-1.783,1.494H8.668z"/>
	<rect x="11.459" y="4.958" fill="none" stroke="#FFFFFF" stroke-linejoin="round" width="27.082" height="36.501"/>
	<path fill="none" stroke="#FFFFFF" stroke-linejoin="round" d="M28.5,45.416c0,0.656-0.447,1.188-1,1.188h-5
		c-0.553,0-1-0.531-1-1.188l0,0c0-0.654,0.447-1.188,1-1.188h5C28.053,44.229,28.5,44.762,28.5,45.416L28.5,45.416z"/>
</g>
</svg>
