<?xml version="1.0" encoding="utf-8"?>
<!-- Generator: Adobe Illustrator 19.0.1, SVG Export Plug-In . SVG Version: 6.00 Build 0)  -->
<!DOCTYPE svg PUBLIC "-//W3C//DTD SVG 1.1//EN" "http://www.w3.org/Graphics/SVG/1.1/DTD/svg11.dtd">
<svg version="1.1" id="Layer_1" xmlns="http://www.w3.org/2000/svg" xmlns:xlink="http://www.w3.org/1999/xlink" x="0px" y="0px"
	 width="1176.8px" height="896.6px" viewBox="0 0 1176.8 896.6" enable-background="new 0 0 1176.8 896.6" xml:space="preserve">
<path fill="#444444" d="M658.8,72c-14.5,0-26.2,11.7-26.2,26.2s11.7,26.2,26.2,26.2S685,112.8,685,98.3S673.2,72,658.8,72z
	 M664.1,55.3c0-2.9-2.4-5.3-5.3-5.3l0,0c-2.9,0-5.3,2.4-5.3,5.3V67h10.6V55.3z M694.7,72.9c2.1-2.1,2.1-5.5,0-7.5
	c-2.1-2.1-5.5-2.1-7.5,0l-8.2,8.2l7.5,7.5L694.7,72.9z M631,81.2l7.5-7.5l-8.2-8.2c-2.1-2.1-5.5-2.1-7.5,0c-2.1,2.1-2.1,5.5,0,7.5
	L631,81.2z M653.3,141.3c0,2.9,2.4,5.3,5.3,5.3s5.3-2.4,5.3-5.3v-11.7h-10.6V141.3z M622.7,123.7c-2.1,2.1-2.1,5.5,0,7.5
	c2.1,2.1,5.5,2.1,7.5,0l8.2-8.2l-7.5-7.5L622.7,123.7z M686.4,115.4l-7.5,7.5l8.2,8.2c2.1,2.1,5.5,2.1,7.5,0c2.1-2.1,2.1-5.5,0-7.5
	L686.4,115.4z M627.4,93h-11.7c-2.9,0-5.3,2.4-5.3,5.3s2.4,5.3,5.3,5.3h11.7V93z M701.5,93h-11.7v10.6h11.7c2.9,0,5.3-2.4,5.3-5.3
	S704.4,93,701.5,93z"/>
<path fill="#444444" d="M265.6,192.8l-2.5-1.7l-15.5,15.5h4.2L265.6,192.8z M253.9,247.9c0-2.3-0.4-4.5-1.1-6.5h0c0,0,0-0.1-0.1-0.1
	c0-0.1,0-0.1-0.1-0.2c-0.6-1.6-3.5-9.5-3.5-16.6c0-6,3-13.9,3-13.9h-30.9c1.2-2.9,4.1-4,8-4h11l3.2-3.2c-7.3-7.3-19.3-7.3-26.6,0
	c-7.3,7.3-7.3,19.3,0,26.6l8.6-8.8c0.2,1.2,0.3,2.3,0.3,3.4c0,7.1-2.8,15-3.4,16.6c0,0.1,0,0.1-0.1,0.2c0,0.1,0,0.1,0,0.1h0
	c-0.7,2-1.1,4.2-1.1,6.5c0,5.9,2.6,11.9,6.8,15.6h0c0,0,0,0,0,0c0.8,0.7,1.7,1.4,2.7,1.9c4.4,3.6,3.7,6,3.7,10.1v0.9
	c0,2.8-0.8,4.8-3,4.8h-2.7c-2.9,0-5.3,2.4-5.3,5.3h28.1c0-2.9-2.4-5.3-5.3-5.3h-2.7c-2.2,0-3-2-3-4.8v-0.9c0-4.1-0.6-6.5,3.8-10.1
	c1-0.5,1.9-1.2,2.7-1.9c0,0,0,0,0,0h0C251.3,259.8,253.9,253.9,253.9,247.9z M247.5,243.4c-0.1,0-0.2,0.1-0.4,0.1
	c-0.4,0-0.8-0.2-0.9-0.6c-0.1-0.4-3.5-8.8-3.5-15.9c0-6.5,1.5-10.6,1.5-10.8c0.2-0.5,0.8-0.8,1.3-0.6c0.5,0.2,0.8,0.8,0.6,1.3
	c0,0-1.4,4-1.4,10.1c0,6.7,3.4,15.1,3.4,15.2C248.2,242.6,248,243.2,247.5,243.4z"/>
<path fill="#444444" d="M414.5,52.8l-2.5-1.7l-15.5,15.5h4.2L414.5,52.8z M402.9,70.5c-3.5,0-24.3,0-24.3,0s-6.4,0-12.8,0h-17.5
	c1.2-2.9,4.1-4,8-4h14l3.2-3.2c-7.3-7.3-19.3-7.3-26.6,0s-7.3,19.3,0,26.6l8.3-8.5c3.6,3.6,10,10,13.8,13.8
	c5.5,5.5,7.5,8.4,7.5,12.4c0,7.7,0,28.9,0,28.9c0,2.8-1.8,4.8-4,4.8h-9.7c-2.9,0-5.3,2.4-5.3,5.3h42.1c0-2.9-2.4-5.3-5.3-5.3h-9.7
	c-2.2,0-4-2-4-4.8c0,0,0-21.2,0-28.9c0-3.9,1.9-6.8,7.5-12.4c5.6-5.6,16.6-16.6,16.6-16.6C409.1,74.2,407.8,70.5,402.9,70.5z
	 M398.3,77.2l-15.6,15.6c-0.2,0.2-0.5,0.3-0.7,0.3c-0.3,0-0.5-0.1-0.7-0.3c-0.4-0.4-0.4-1,0-1.4l15.6-15.6c0.4-0.4,1-0.4,1.4,0
	C398.7,76.1,398.7,76.8,398.3,77.2z"/>
<path fill="#444444" d="M211,81.2l7.5-7.5l-8.2-8.2c-2.1-2.1-5.5-2.1-7.5,0c-2.1,2.1-2.1,5.5,0,7.5L211,81.2z M207.4,93h-11.7
	c-2.9,0-5.3,2.4-5.3,5.3c0,2.9,2.4,5.3,5.3,5.3h11.7V93z M262.8,87.8c-4-9.3-13.3-15.7-24-15.7c-10.8,0-20,6.5-24,15.7H262.8z
	 M244.1,55.3c0-2.9-2.4-5.3-5.3-5.3c-2.9,0-5.3,2.4-5.3,5.3V67h10.6V55.3z M202.7,123.7c-2.1,2.1-2.1,5.5,0,7.5
	c2.1,2.1,5.5,2.1,7.5,0l8.2-8.2l-7.5-7.5L202.7,123.7z M233.3,141.3c0,2.9,2.4,5.3,5.3,5.3c2.9,0,5.3-2.4,5.3-5.3v-11.7h-10.6V141.3
	z M266.4,115.4l-7.5,7.5l8.2,8.2c2.1,2.1,5.5,2.1,7.5,0c2.1-2.1,2.1-5.5,0-7.5L266.4,115.4z M281.5,93h-11.7v10.6h11.7
	c2.9,0,5.3-2.4,5.3-5.3C286.8,95.4,284.4,93,281.5,93z M274.7,72.9c2.1-2.1,2.1-5.5,0-7.5c-2.1-2.1-5.5-2.1-7.5,0l-8.2,8.2l7.5,7.5
	L274.7,72.9z M264.3,92.3l-8.5,0v3.2c0,4-3,7.2-6.6,7.2c-3.7,0-6.6-3.2-6.6-7.2v-3.2c0-1.6-1.7-2.8-3.9-2.8c-2.3,0-3.9,1.1-3.9,2.8
	v3.2c0,4-3,7.2-6.6,7.2c-3.7,0-6.6-3.2-6.6-7.2v-3.2h-8.2c-0.5,1.9-0.7,3.9-0.7,6c0,14.5,11.7,26.2,26.2,26.2
	c14.5,0,26.2-11.7,26.2-26.2C265,96.2,264.7,94.2,264.3,92.3z M246.4,109.3c-1.4,3-4.4,4.9-7.7,4.9h-2.7c-0.6,0-1-0.4-1-1
	c0-0.6,0.4-1,1-1h2.7c2.5,0,4.8-1.5,5.9-3.8c0.2-0.5,0.8-0.7,1.3-0.5C246.4,108.3,246.6,108.8,246.4,109.3z"/>
<path fill="#444444" d="M821.1,68.8h-1.2c-8.3,0-15.1,6.8-15.1,15.1c0,1.7,1.3,3,3,3c1.7,0,3-1.3,3-3c0-4.2,2.9-9,8-9.6l20.4,20.5
	h-81l20.4-20.5c5,0.6,8,5.4,8,9.6c0,1.7,1.3,3,3,3s3-1.3,3-3c0-8.3-6.8-15.1-15.1-15.1h-1.2l-25.7,26.1v14.3h6.1v7.9
	c0,9.7,8.3,17.6,17.3,17.6c9,0,17.3-7.9,17.3-17.6v-7.9h0c0-4.1,1.9-6.9,7.6-6.9c5,0,7.3,2.5,7.6,6.1v8.7c0,9.7,8.3,17.6,17.3,17.6
	c9,0,17.3-7.9,17.3-17.6v-7.9l6.1,0V94.9L821.1,68.8z M783.7,116.3c0,8-4.4,13.3-11,13.3c-0.6,0-1-0.4-1-1c0-0.6,0.4-1,1-1
	c5.4,0,9-4.6,9-11.3v-3.8c0-0.6,0.4-1,1-1c0.6,0,1,0.4,1,1V116.3z M835.4,116.3c0,8-4.4,13.3-11,13.3c-0.6,0-1-0.4-1-1
	c0-0.6,0.4-1,1-1c5.4,0,9-4.6,9-11.3v-3.8c0-0.6,0.4-1,1-1c0.6,0,1,0.4,1,1V116.3z"/>
<path fill="#444444" d="M981.2,84.7l-27.7,1.7c-1.9,0.1-3.6-1.1-4.1-3l-7-26.9c-1-4-6.6-4-7.7,0l-7,26.9c-0.5,1.8-2.2,3.1-4.1,3
	L896,84.7c-4.1-0.2-5.8,5.1-2.4,7.3l23.4,14.9c1.6,1,2.2,3,1.6,4.8l-10.2,25.9c-1.5,3.8,3,7.1,6.2,4.5l21.4-17.7
	c1.5-1.2,3.6-1.2,5,0l21.4,17.7c3.2,2.6,7.7-0.7,6.2-4.5l-10.2-25.9c-0.7-1.8,0-3.8,1.6-4.8L983.6,92
	C987,89.8,985.3,84.5,981.2,84.7z M917.2,134.8l-0.6,0.8c-0.3,0.4-0.8,0.6-1.2,0.6c-0.3,0-0.6-0.1-0.9-0.3c-0.7-0.5-0.9-1.4-0.4-2.1
	l0.6-0.8c0.5-0.7,1.4-0.9,2.1-0.4C917.5,133.2,917.7,134.1,917.2,134.8z M901.9,90.5c-0.2,0.6-0.8,1-1.4,1c-0.2,0-0.3,0-0.5-0.1
	l-1-0.3c-0.8-0.3-1.2-1.1-1-1.9c0.3-0.8,1.1-1.2,1.9-1l1,0.3C901.7,88.9,902.2,89.7,901.9,90.5z M910.5,93.2c-0.2,0.6-0.8,1-1.4,1
	c-0.2,0-0.3,0-0.5-0.1l-1-0.3c-0.8-0.3-1.2-1.1-1-1.9c0.3-0.8,1.1-1.2,1.9-1l1,0.3C910.3,91.6,910.8,92.4,910.5,93.2z M917.6,97
	c-0.2,0-0.3,0-0.5-0.1l-1-0.3c-0.8-0.3-1.2-1.1-1-1.9c0.3-0.8,1.1-1.2,1.9-1l1,0.3c0.8,0.3,1.2,1.1,1,1.9
	C918.9,96.6,918.3,97,917.6,97z M922.3,127.4l-0.6,0.8c-0.3,0.4-0.8,0.6-1.2,0.6c-0.3,0-0.6-0.1-0.8-0.3c-0.7-0.5-0.9-1.4-0.4-2.1
	l0.6-0.8c0.5-0.7,1.4-0.9,2.1-0.4C922.6,125.8,922.8,126.7,922.3,127.4z M927.4,120l-0.6,0.8c-0.3,0.4-0.8,0.6-1.2,0.6
	c-0.3,0-0.6-0.1-0.9-0.3c-0.7-0.5-0.9-1.4-0.4-2.1l0.6-0.8c0.5-0.7,1.4-0.9,2.1-0.4C927.7,118.4,927.9,119.3,927.4,120z M927.7,98.7
	c-0.2,0.6-0.8,1-1.4,1c-0.2,0-0.3,0-0.5-0.1l-1-0.3c-0.8-0.3-1.2-1.1-1-1.9c0.3-0.8,1.1-1.2,1.9-1l1,0.3
	C927.5,97.1,927.9,97.9,927.7,98.7z M932.5,112.6l-0.6,0.8c-0.3,0.4-0.8,0.7-1.2,0.7c-0.3,0-0.6-0.1-0.8-0.3
	c-0.7-0.5-0.9-1.4-0.4-2.1l0.6-0.8c0.5-0.7,1.4-0.9,2.1-0.4C932.8,110.9,933,111.9,932.5,112.6z M940.3,88.5c0,0.8-0.7,1.5-1.5,1.5
	c-0.8,0-1.5-0.7-1.5-1.5v-1c0-0.8,0.7-1.5,1.5-1.5c0.8,0,1.5,0.7,1.5,1.5V88.5z M940.3,79.5c0,0.8-0.7,1.5-1.5,1.5
	c-0.8,0-1.5-0.7-1.5-1.5v-1c0-0.8,0.7-1.5,1.5-1.5c0.8,0,1.5,0.7,1.5,1.5V79.5z M940.3,70.5c0,0.8-0.7,1.5-1.5,1.5
	c-0.8,0-1.5-0.7-1.5-1.5v-1c0-0.8,0.7-1.5,1.5-1.5c0.8,0,1.5,0.7,1.5,1.5V70.5z M940.3,61.5c0,0.8-0.7,1.5-1.5,1.5
	c-0.8,0-1.5-0.7-1.5-1.5v-1c0-0.8,0.7-1.5,1.5-1.5c0.8,0,1.5,0.7,1.5,1.5V61.5z M947.3,113.8c-0.3,0.2-0.6,0.3-0.8,0.3
	c-0.5,0-0.9-0.2-1.2-0.7l-0.6-0.8c-0.5-0.7-0.3-1.6,0.4-2.1c0.7-0.5,1.6-0.3,2.1,0.4l0.6,0.8C948.1,112.4,948,113.3,947.3,113.8z
	 M960.3,132.7c0.7-0.5,1.6-0.3,2.1,0.4l0.6,0.8c0.5,0.7,0.3,1.6-0.4,2.1c-0.3,0.2-0.6,0.3-0.9,0.3c-0.5,0-0.9-0.2-1.2-0.6l-0.6-0.8
	C959.5,134.1,959.6,133.2,960.3,132.7z M952.4,121.2c-0.3,0.2-0.6,0.3-0.9,0.3c-0.5,0-0.9-0.2-1.2-0.6l-0.6-0.8
	c-0.5-0.7-0.3-1.6,0.4-2.1c0.7-0.5,1.6-0.3,2.1,0.4l0.6,0.8C953.2,119.8,953.1,120.7,952.4,121.2z M952.9,99.4l-1,0.3
	c-0.2,0-0.3,0.1-0.5,0.1c-0.6,0-1.2-0.4-1.4-1c-0.3-0.8,0.2-1.6,1-1.9l1-0.3c0.8-0.3,1.6,0.2,1.9,1
	C954.2,98.3,953.7,99.1,952.9,99.4z M957.5,128.6c-0.3,0.2-0.6,0.3-0.8,0.3c-0.5,0-0.9-0.2-1.2-0.6l-0.6-0.8
	c-0.5-0.7-0.3-1.6,0.4-2.1c0.7-0.5,1.6-0.3,2.1,0.4l0.6,0.8C958.3,127.2,958.2,128.1,957.5,128.6z M961.5,96.6l-1,0.3
	c-0.2,0-0.3,0.1-0.5,0.1c-0.6,0-1.2-0.4-1.4-1c-0.3-0.8,0.2-1.6,1-1.9l1-0.3c0.8-0.3,1.6,0.2,1.9,1
	C962.7,95.5,962.3,96.4,961.5,96.6z M970.1,93.9l-1,0.3c-0.2,0-0.3,0.1-0.5,0.1c-0.6,0-1.2-0.4-1.4-1c-0.3-0.8,0.2-1.6,1-1.9l1-0.3
	c0.8-0.3,1.6,0.2,1.9,1C971.3,92.8,970.9,93.6,970.1,93.9z M978.7,91.2l-1,0.3c-0.2,0-0.3,0.1-0.5,0.1c-0.6,0-1.2-0.4-1.4-1
	c-0.3-0.8,0.2-1.6,1-1.9l1-0.3c0.8-0.3,1.6,0.2,1.9,1C979.9,90.1,979.5,90.9,978.7,91.2z"/>
<path fill="#444444" d="M1073.6,141.6c0,2.8,2.2,5,5,5s5-2.2,5-5v-16.1h-10V141.6z M1078.6,50c-10.6,0-19.3,8.7-19.3,19.3v51.3h38.6
	V69.3C1097.9,58.7,1089.2,50,1078.6,50z M1072.4,110.2c0,0.6-0.4,1-1,1c-0.6,0-1-0.4-1-1V67.8c0-0.6,0.4-1,1-1c0.6,0,1,0.4,1,1
	V110.2z M1086.7,110.2c0,0.6-0.4,1-1,1c-0.6,0-1-0.4-1-1V67.8c0-0.6,0.4-1,1-1c0.6,0,1,0.4,1,1V110.2z"/>
<path fill="#444444" d="M98.2,206.2l0.5-0.4c2.5-1.8,5.3-2.9,8.2-3.4c-0.6-4.1-4.1-7.3-8.3-7.3c-0.6,0-1-0.4-1-1c0-0.6,0.4-1,1-1
	c5.3,0,9.7,4,10.3,9.1c0.2,0,0.4,0,0.6,0c1.1,0,2.2,0.1,3.3,0.3c-0.9-7.1-6.9-12.6-14.2-12.6c-7.3,0-13.3,5.4-14.2,12.5
	c0.8-0.1,1.6-0.2,2.5-0.2C91.2,202.3,95.1,203.8,98.2,206.2z M106.3,248.4c0,1.1-0.9,2-2,2s-2-0.9-2-2v-10.1h-2.8v20.1
	c0,1.1-0.9,2-2,2s-2-0.9-2-2v-20.1h-13l12.2,45.3c1,4,6.6,4,7.7,0l12.4-45.3h-8.5V248.4z M101.2,220.6c0-7.9-6.4-14.3-14.3-14.3
	c-7.9,0-14.3,6.4-14.3,14.3c0,5.7,3.3,10.5,8.1,12.9h12.6C97.9,231.2,101.2,226.3,101.2,220.6z M86.9,212c-0.6,0-1-0.4-1-1
	c0-0.6,0.4-1,1-1c5.7,0,10.4,4.7,10.4,10.4c0,0.6-0.4,1-1,1c-0.6,0-1-0.4-1-1C95.3,215.7,91.5,212,86.9,212z M109.5,206.3
	c-3.2,0-6.1,1-8.5,2.8c2.6,3.2,4.1,7.2,4.1,11.6c0,4.3-1.5,8.4-4.1,11.6c0,0-0.6,0.7-1.6,1.3h16.3c4.8-2.3,8.1-7.2,8.1-12.9
	C123.9,212.7,117.5,206.3,109.5,206.3z M119.5,221.4c-0.6,0-1-0.4-1-1c0-4.6-3.8-8.4-8.4-8.4c-0.6,0-1-0.4-1-1c0-0.6,0.4-1,1-1
	c5.7,0,10.4,4.7,10.4,10.4C120.5,220.9,120.1,221.4,119.5,221.4z"/>
<path fill="#444444" d="M85.9,112.4c-0.1,1.8-1.3,3.6-2.8,5.1c4.4,3.4,9.8,5.3,15.5,5.3c5.7,0,11.1-1.9,15.6-5.3
	c-1.4-1.5-2.6-3.2-2.6-5c9.5-4.7,16.1-14.5,16.1-25.9c0-10.5-5.6-19.6-13.9-24.7v11.5c0,1.7-1.3,3-3,3c-1.7,0-3-1.3-3-3V59
	c-1.5-0.5-3.1-0.9-4.7-1.1v31.1c0,1.7-1.3,3-3,3c-1.7,0-3-1.3-3-3V57.7c-15.1,0.9-27.1,13.5-27.1,28.8
	C69.8,97.8,76.4,107.6,85.9,112.4z M120.2,121.9c0,0-1.4-0.7-3-1.9c-5.2,4.3-11.8,6.7-18.6,6.7c-6.9,0-13.4-2.3-18.6-6.6
	c-1.6,1.1-2.8,1.8-2.8,1.8v0c-8.3,5.3-14.6,15-17.3,25.5h77.4C134.6,136.9,128.4,127.2,120.2,121.9z"/>
<path fill="#444444" d="M543.9,66.1c1.5-1.5,1.5-3.8,0-5.3c-1.5-1.5-3.8-1.5-5.3,0l-5.8,5.8l5.3,5.3L543.9,66.1z M522.4,53.7
	c0-2.1-1.7-3.7-3.7-3.7c-2.1,0-3.7,1.7-3.7,3.7v8.2h7.5V53.7z M540.5,87.7h8.2c2.1,0,3.7-1.7,3.7-3.7s-1.7-3.7-3.7-3.7h-8.2V87.7z
	 M518.7,102.3c10.2,0,18.4-8.3,18.4-18.4s-8.3-18.4-18.4-18.4c-10.2,0-18.4,8.3-18.4,18.4S508.5,102.3,518.7,102.3z M532.9,101.2
	l5.8,5.8c1.5,1.5,3.8,1.5,5.3,0c1.5-1.5,1.5-3.8,0-5.3l-5.8-5.8L532.9,101.2z M514.9,114.1c0,2.1,1.7,3.7,3.7,3.7
	c2.1,0,3.7-1.7,3.7-3.7v-8.2h-7.5V114.1z M488.5,87.7h8.2v-7.5h-8.2c-2.1,0-3.7,1.7-3.7,3.7S486.4,87.7,488.5,87.7z M499.2,71.9
	l5.3-5.3l-5.8-5.8c-1.5-1.5-3.8-1.5-5.3,0h0c-1.5,1.5-1.5,3.8,0,5.3L499.2,71.9z M493.4,101.7c-1.5,1.5-1.5,3.8,0,5.3h0
	c1.5,1.5,3.8,1.5,5.3,0l5.8-5.8l-5.3-5.3L493.4,101.7z M562.2,141.7h-4.5l-16-17.5c-1.4-1.4-3.7-1.4-5.1,0l-11.9,11.9
	c-0.2,0.2-0.3,0.3-0.5,0.4v-0.1l-16.6-1.6l0,0c-1.2-1.9-3.2-3.1-5.6-3.1c-2.8,0-5.2,1.8-6.2,4.3l0,0c-0.8,1.7-2.4,2.3-6.1,2.3h-0.3
	c-1.3-3.6-4.7-6.3-8.8-6.3c-5.1,0-9.3,4.2-9.3,9.3c0,1.9,0.6,3.6,1.5,5.1h57.8c2.8,0,4.9-1.9,5.9-4.4l3.7-9.3l3.6,3.7l8.9,9
	c0.7,0.7,1.6,1,2.5,1c0,0,0.1,0,0.1,0v0h10.5v-1.2C565.8,143.4,564.2,141.7,562.2,141.7z"/>
<path fill="#444444" d="M425.4,277.5l-7.9-78.5h-77.8l-7.9,78.5h43.4v-18.7c0-10.9,1-15.1,3.4-15.1c2.5,0,3.5,4.5,3.5,15.4v18.4
	H425.4z M412.8,209.8c0.6-0.1,1,0.3,1.1,0.9l6,60.2c0.1,0.5-0.3,1-0.9,1.1c0,0-0.1,0-0.1,0c-0.5,0-0.9-0.4-1-0.9l-6-60.2
	C411.8,210.3,412.2,209.8,412.8,209.8z M339.2,271.1c-0.1,0.5-0.5,0.9-1,0.9c0,0-0.1,0-0.1,0c-0.5-0.1-1-0.5-0.9-1.1l6-60.2
	c0.1-0.5,0.5-1,1.1-0.9c0.5,0.1,1,0.5,0.9,1.1L339.2,271.1z M378.6,213.2c-1.4,3.1-4.5,5.2-8.1,5.2c-0.6,0-1-0.4-1-1
	c0-0.6,0.4-1,1-1c3.8,0,6.9-3.1,6.9-6.9v-0.6c-1.1,1.3-2.7,2.6-4.8,3.4c-1.4,0.5-2.6,0.8-3.7,0.8c-1.9,0-3.2-0.9-3.8-2.6
	c-0.7-1.8-0.4-4.4,4.7-6.2c1.1-0.4,2.4-0.6,3.7-0.6c2.4,0,4.5,0.7,5.1,0.9c0.7-0.3,2.7-0.9,5.1-0.9c1.3,0,2.6,0.2,3.7,0.6
	c2.1,0.8,3.5,1.6,4.2,2.7c0.7,1,0.9,2.2,0.4,3.4c-0.6,1.7-1.9,2.6-3.8,2.6h0c-1,0-2.2-0.3-3.7-0.8c-2.3-0.8-4-2.5-5.2-3.8v0.3
	c0.2,0.2,0.4,0.5,0.4,0.8c0,3.8,3.1,6.9,6.9,6.9c0.6,0,1,0.4,1,1c0,0.6-0.4,1-1,1C383.1,218.4,380,216.2,378.6,213.2z M385.2,210.4
	c1.2,0.4,2.2,0.6,3,0.6h0c1.3,0,1.7-0.6,2-1.2c0.2-0.6,0.2-1.1-0.2-1.6c-0.4-0.5-1.2-1.2-3.3-2c-0.9-0.3-1.9-0.5-3-0.5
	c-1.4,0-2.7,0.3-3.5,0.5C381.1,207.5,382.8,209.5,385.2,210.4z M370.4,206.2c-4.2,1.5-3.7,3-3.5,3.6c0.2,0.6,0.6,1.2,2,1.2
	c0.8,0,1.8-0.2,3-0.6c2.4-0.9,4.2-2.9,5-4.2c-0.9-0.2-2.1-0.5-3.5-0.5C372.3,205.7,371.3,205.9,370.4,206.2z"/>
<path fill="#444444" d="M547.9,219.9c0,0-5.3-6.3-5.3-16.4v-5.6c0-4.1-1.8-8.6-5.8-8.6V200c0,0-0.5,20.6-18.2,20.6
	c-17.7,0-18.2-20.6-18.2-20.6v-10c-4.1,0-5.8,3.8-5.8,7.8v5.6c0,10.1-5.3,16.4-5.3,16.4s5,4.2,5,29.8s-2,36.9-2,36.9h52.6
	c0,0-2-11.3-2-36.9S547.9,219.9,547.9,219.9z M499.6,281.6c0,0.5-0.5,0.9-1,0.9c0,0-0.1,0-0.1,0c-0.6,0-1-0.5-0.9-1.1
	c2-23.3,0.9-51-2.4-60.3c-0.2-0.5,0.1-1.1,0.6-1.3c0.5-0.2,1.1,0.1,1.3,0.6C500.6,230.2,501.7,257.6,499.6,281.6z M542,221.1
	c-3.4,9.4-4.5,37-2.4,60.3c0,0.5-0.4,1-0.9,1.1c0,0-0.1,0-0.1,0c-0.5,0-1-0.4-1-0.9c-2.1-24-1-51.4,2.6-61.2
	c0.2-0.5,0.8-0.8,1.3-0.6C541.9,220,542.2,220.6,542,221.1z"/>
<path fill="#444444" d="M685.9,219.9c0,0-5.3-6.3-5.3-16.4v-5.6c0-4.1-1.8-8.6-5.8-8.6V200c0,0,1.5,20.6-16.2,20.6
	c-17.7,0-16.2-20.6-16.2-20.6v-10c-4.1,0-5.8,3.8-5.8,7.8v5.6c0,10.1-5.3,16.4-5.3,16.4s5,4.2,5,29.8c0,5.4-0.2,12.1-0.6,16.3
	c11.1,2,17.6,9.2,18.6,20.6h8.7c0.9-11.4,7.5-18.7,18.6-20.6c-0.3-4.1-0.6-10.9-0.6-16.3C680.9,224.1,685.9,219.9,685.9,219.9z
	 M642.3,262c0,0.5-0.5,0.9-1,0.9c0,0,0,0-0.1,0c-0.6,0-1-0.5-0.9-1.1c1.6-25.1-3.1-40.7-3.1-40.8c-0.2-0.5,0.1-1.1,0.7-1.2
	c0.5-0.2,1.1,0.1,1.2,0.7C639.1,220.7,643.9,236.5,642.3,262z M680.3,221.1c0,0.2-4.7,15.7-3.1,40.8c0,0.6-0.4,1-0.9,1.1
	c0,0,0,0-0.1,0c-0.5,0-1-0.4-1-0.9c-1.6-25.5,3.1-41.4,3.2-41.5c0.2-0.5,0.7-0.8,1.2-0.7C680.1,220,680.4,220.6,680.3,221.1z"/>
<path fill="#444444" d="M836.4,233.6c-0.9-3-2.6-7.5-5.3-12.2c-1.8-3.2-3.9-6-5.8-8.3c2.5-1.7,6.8-5.2,8.6-10.4
	c2.4-6.7,1.5-10.9-2.7-12.4c-0.8-0.3-1.5-0.4-2.2-0.4c-3.2,0-5.8,2.7-7.8,8.3c-1.4,3.9-1.2,7.9-0.6,10.9c-1.3-0.2-2.6,0.2-3.5,1.2
	c-2.3,2.6-5.5,6.6-8.2,11.2c-2.7,4.6-4.3,9.1-5.3,12.2c0,0.1-0.1,0.3-0.1,0.4h-10.1c0-0.1,0-0.3-0.1-0.4c-0.9-3-2.6-7.5-5.3-12.2
	c-2.7-4.6-5.9-8.6-8.2-11.2c-0.9-1-2.3-1.4-3.5-1.2c0.6-3,0.8-7-0.6-10.9c-2-5.6-4.5-8.3-7.8-8.3c-0.7,0-1.4,0.1-2.2,0.4
	c-4.2,1.5-5.1,5.7-2.7,12.4c1.9,5.2,6.1,8.7,8.6,10.4c-1.9,2.3-4,5.2-5.8,8.3c-2.7,4.6-4.3,9.1-5.3,12.2c-0.7,2.1,0.6,4.4,2.8,4.9
	c2.8,0.7,7.2,1.4,13.6,1.4s10.8-0.7,13.6-1.4c1.3-0.3,2.3-1.3,2.7-2.5h10.3c0.4,1.2,1.4,2.2,2.7,2.5c2.8,0.7,7.2,1.4,13.6,1.4
	c6.4,0,10.8-0.7,13.6-1.4C835.8,238,837.1,235.7,836.4,233.6z M774.1,210.4c-0.3,0.4-0.6,0.7-1,1.1c-2.2-1.5-6.3-4.8-8-9.6
	c-2.7-7.4-0.4-9.2,1.5-9.8c0.5-0.2,1-0.3,1.5-0.3c2.3,0,4.3,2.3,5.9,6.9C775.5,203.1,774.8,207.7,774.1,210.4z M787.8,233.6
	c-0.1,0-0.2,0-0.3,0c-0.4,0-0.8-0.3-1-0.7c-0.7-2.3-2-5.8-4-9.3c-2.1-3.5-4.6-6.6-6.3-8.6c-0.4-0.4-0.3-1,0.1-1.4
	c0.4-0.4,1-0.3,1.4,0.1c1.8,2,4.4,5.2,6.5,8.9c2.1,3.7,3.5,7.3,4.2,9.7C788.6,232.8,788.3,233.4,787.8,233.6z M823.2,198.8
	c1.6-4.6,3.6-6.9,5.9-6.9c0.5,0,1,0.1,1.5,0.3c1.9,0.7,4.2,2.5,1.5,9.8c-1.7,4.8-5.8,8.1-8,9.6c-0.3-0.4-0.7-0.8-1-1.1
	C822.3,207.7,821.6,203.1,823.2,198.8z M831.1,233.6c-0.1,0-0.2,0-0.3,0c-0.4,0-0.8-0.3-1-0.7c-0.7-2.3-2-5.8-4-9.3
	c-2.1-3.5-4.6-6.6-6.3-8.6c-0.4-0.4-0.3-1,0.1-1.4c0.4-0.4,1-0.3,1.4,0.1c1.8,2,4.4,5.2,6.5,8.9c2.1,3.7,3.5,7.3,4.2,9.7
	C831.9,232.8,831.6,233.4,831.1,233.6z M769.1,260c14.3,2.5,22.7,11.9,23.9,26.6h11.2c1.2-14.7,9.6-24.1,23.9-26.6v-10.5h-59V260z"
	/>
<path fill="#444444" d="M974.8,219.6c-1.8-1.8-3.8-2.8-8-4.1c0,0,0-25.9-20.4-25.9c-7.2,0-13.9,1.7-19.9,4.7
	c-2.3-1.1-11.5-4.8-22.2-2.1c-1.9,0.5-2.2,3.1-0.4,3.9c3.3,1.6,6.8,4.8,6.8,11.3c-5.7,7.5-9.1,16.8-9.1,27c0,24.7,20,44.6,44.7,44.6
	c0,0,7.1,2.2,10.7,6.9c1.1,1.4,3.3,0.6,3.2-1.1c-0.2-3.2-1.6-7.2-5.6-11.3c4.1-4.1,5.4-8.1,5.6-11.3c0.1-1.7-2.1-2.5-3.2-1.1
	c-3.6,4.8-10.6,7.2-10.6,7.2c-12.4,0-22.3-10-22-22.5c0.3-12.1,10.6-21.5,22.6-21.5h25.5C975.1,224.3,976.5,221.4,974.8,219.6z
	 M919.5,238c0,0-9.6,0.3-9.6-9.3V227c0-3.3,2.7-6,6-6h3.6V238z M940.8,245.9v-16c-4,1.5-7.4,4.3-9.5,7.9
	C932,246.2,940.8,245.9,940.8,245.9z"/>
<path fill="#444444" d="M1106.5,256.1c-7.4,0-8.9,5-13.8,7.1c0-0.5-0.1-1,0-1.6c0.2-7.4,6.5-13.2,13.8-13.2h15.6
	c1.5,0,2.4-1.8,1.3-2.9c-1.1-1.1-2.3-1.7-4.9-2.5c0,0,0-15.9-12.5-15.9c-4.4,0-8.5,1-12.2,2.9c-1.4-0.7-7-3-13.6-1.3
	c-1.2,0.3-1.3,1.9-0.2,2.4c2,1,4.1,2.9,4.2,6.9c-3.5,4.6-5.5,10.3-5.5,16.5c0,2.1,0.2,4.1,0.7,6.1c-2.6-2.2-4.9-4.6-10-4.6
	c-9.3,0-9.3,8-18.6,8c-0.1,0-0.2,0-0.3,0c-0.4-1-0.6-2.2-0.6-3.4c0.1-4.9,4.3-8.8,9.2-8.8h10.4c1,0,1.6-1.2,0.9-1.9
	c-0.7-0.7-1.6-1.1-3.3-1.7c0,0,0-10.5-8.3-10.5c-2.9,0-5.7,0.7-8.1,1.9c-0.9-0.4-4.7-2-9-0.9c-0.8,0.2-0.9,1.3-0.2,1.6
	c1.4,0.6,2.8,1.9,2.8,4.6c-2.3,3.1-3.7,6.9-3.7,11c0,1.6,0.2,3.1,0.6,4.5c-3-2.1-5.8-4.4-10.8-4.4v24.4c0,3.4,2.7,6.1,6.1,6.1h84.2
	c3.4,0,6.1-2.7,6.1-6.1v-16.4C1117.5,264.1,1115.8,256.1,1106.5,256.1z M1053.9,192.3c0-1.3-1-2.3-2.3-2.3c-1.3,0-2.3,1-2.3,2.3v5.1
	h4.7V192.3z M1067.3,200c0.9-0.9,0.9-2.4,0-3.3c-0.9-0.9-2.4-0.9-3.3,0l-3.6,3.6l3.3,3.3L1067.3,200z M1060.4,221.9l3.6,3.6
	c0.9,0.9,2.4,0.9,3.3,0c0.9-0.9,0.9-2.4,0-3.3l-3.6-3.6L1060.4,221.9z M1065.1,213.5h5.1c1.3,0,2.3-1,2.3-2.3c0-1.3-1-2.3-2.3-2.3
	h-5.1V213.5z M1032.7,213.5h5.1v-4.7h-5.1c-1.3,0-2.3,1-2.3,2.3C1030.4,212.4,1031.4,213.5,1032.7,213.5z M1035.8,222.2
	c-0.9,0.9-0.9,2.4,0,3.3c0.9,0.9,2.4,0.9,3.3,0l3.6-3.6l-3.3-3.3L1035.8,222.2z M1051.6,222.6c6.3,0,11.5-5.1,11.5-11.5
	c0-6.3-5.1-11.5-11.5-11.5c-6.3,0-11.5,5.1-11.5,11.5C1040.1,217.5,1045.2,222.6,1051.6,222.6z M1039.4,203.6l3.3-3.3l-3.6-3.6
	c-0.9-0.9-2.4-0.9-3.3,0c-0.9,0.9-0.9,2.4,0,3.3L1039.4,203.6z M1049.2,230c0,1.3,1,2.3,2.3,2.3c1.3,0,2.3-1,2.3-2.3v-5.1h-4.7V230z
	"/>
<path fill="#444444" d="M98.4,332c-25.5,0-46.3,20.8-46.3,46.3c0,25.5,20.8,46.3,46.3,46.3s46.3-20.8,46.3-46.3
	C144.7,352.7,124,332,98.4,332z M140.7,378.3c0,1.8-0.1,3.6-0.4,5.4c-8.5,7-17.6,7.6-23.9,6.7c-0.8,2.7-3.2,4.8-6.1,5.2v23.2
	c-3.8,1.1-7.8,1.7-12,1.7c-9.5,0-18.4-3.2-25.4-8.5c15.6-1.5,26.2-11.7,31.5-18.3c-1.5-1.4-2.5-3.3-2.5-5.5c0-1.9,0.7-3.6,1.9-4.9
	c-7-6.7-22.2-17.9-45.5-18.9c3.2-9.2,9.5-17,17.6-22.1c23.4,2.5,29.9,26.4,31.7,38.7c0.5-0.1,1.1-0.2,1.7-0.2c2.8,0,5.3,1.6,6.5,3.9
	c6.2-4.3,14.1-13.7,15-33.5C137.1,358.6,140.7,368,140.7,378.3z"/>
<path fill="#444444" d="M250.2,417.1c5.5,0,10-4.5,10-10v-50c0-5.5-4.5-10-10-10h-34c-5.5,0-10,4.5-10,10v50c0,5.5,4.5,10,10,10
	H250.2z M211.8,359.6c0-3.7,3-6.7,6.7-6.7h29.3c3.7,0,6.7,3,6.7,6.7v1.6c0,0.6-0.4,1-1,1c-0.6,0-1-0.4-1-1v-1.6
	c0-2.6-2.1-4.7-4.7-4.7h-29.3c-2.6,0-4.7,2.1-4.7,4.7v1.6c0,0.6-0.4,1-1,1c-0.6,0-1-0.4-1-1V359.6z M213.8,389.3v1.6
	c0,0.6-0.4,1-1,1c-0.6,0-1-0.4-1-1v-1.6c0-3.7,3-6.7,6.7-6.7h29.3c3.7,0,6.7,3,6.7,6.7v1.6c0,0.6-0.4,1-1,1c-0.6,0-1-0.4-1-1v-1.6
	c0-2.6-2.1-4.7-4.7-4.7h-29.3C215.9,384.7,213.8,386.8,213.8,389.3z M231.8,335.8c0-1.4,1.1-2.5,2.5-2.5h5.7c1.4,0,2.5,1.1,2.5,2.5
	v7.4h4v-7.4c0-3.6-2.9-6.5-6.5-6.5h-5.7c-3.6,0-6.5,2.9-6.5,6.5v7.4h4V335.8z M261,347h-1.2c2.7,2.6,4.4,6.2,4.4,10.2v49.7
	c0,4-1.7,7.6-4.4,10.2h1.2c5.5,0,10-4.5,10-10v-50C271,351.5,266.5,347,261,347z M251.7,426.6c3.1,0,5.7-2.5,5.7-5.7H246
	C246,424.1,248.5,426.6,251.7,426.6z M221.7,426.6c3.1,0,5.7-2.5,5.7-5.7H216C216,424.1,218.5,426.6,221.7,426.6z"/>
<path fill="#444444" d="M416.8,354.6h-1.2c2.7,2.6,4.4,6.2,4.4,10.2v40.7c0,4-1.7,7.6-4.4,10.2h1.2c5.5,0,10-4.5,10-10v-41
	C426.8,359.1,422.3,354.6,416.8,354.6z M416,364.6c0-5.5-4.5-10-10-10h-65.6c-5.5,0-10,4.5-10,10v41c0,5.5,4.5,10,10,10H406
	c5.5,0,10-4.5,10-10V364.6z M371.7,347.5c0-1.4,1.1-2.5,2.5-2.5h8.7c1.4,0,2.5,1.1,2.5,2.5v3.4h4v-3.4c0-3.6-2.9-6.5-6.5-6.5h-8.7
	c-3.6,0-6.5,2.9-6.5,6.5v3.4h4V347.5z"/>
<path fill="#444444" d="M564.9,423.3l-5-5l4.5-1.2c0.9-0.2,1.2-1.4,0.6-2.1l-4.6-4.6c-0.7-0.7-1.8-0.4-2.1,0.6l-1.2,4.5l-9.7-9.7
	l4.5-1.2c0.9-0.2,1.2-1.4,0.6-2.1l-4.6-4.6c-0.7-0.7-1.8-0.4-2.1,0.6l-1.2,4.5l-1.3-1.3c-2.5-2.5-2.5-6.6,0-9.1
	c1.5-1.5,2.5-3.3,2.9-5.3l4.1,2.4c0.8,0.5,1.9-0.1,1.9-1.1v-6.5c0-1-1-1.6-1.9-1.1l-4.1,2.4c-0.1-0.7-0.3-1.5-0.6-2.2
	c-1.6-4-5.3-6.4-9.6-6.4h-6.7l2.5-4.3c0.5-0.8-0.1-1.9-1.1-1.9H524c-1,0-1.6,1-1.1,1.9l2.5,4.3h-6.8c0.6-1.2,0.7-2.7,0.4-4.1
	l-7.4-35.4c-0.7-3.2-3.5-5.4-6.8-5.3l-27.2,0.7c-3.6,0.1-6.5,3-6.5,6.5l-0.7,27.2c-0.1,3.3,2.2,6.1,5.3,6.8l35.4,7.4
	c0.3,0.1,0.7,0.1,1,0.1c0.1,0,0.1,0,0.2,0h13.1l-2.5,4.3c-0.5,0.8,0.1,1.9,1.1,1.9h6.5c1,0,1.6-1,1.1-1.9l-2.5-4.3h6.7
	c3.2,0,5.1,2,5.9,4c0.1,0.2,0.2,0.5,0.3,0.8l-4.4-2.5c-0.8-0.5-1.9,0.1-1.9,1.1v6.5c0,1,1,1.6,1.9,1.1l4.3-2.5
	c-0.3,0.9-0.8,1.7-1.6,2.5c-4.1,4.1-4.1,10.7,0,14.7l1.4,1.4l-5,1.3c-0.9,0.2-1.2,1.4-0.6,2.1l4.6,4.6c0.7,0.7,1.8,0.4,2.1-0.6
	l1.3-5l10.1,10.1l-5,1.3c-0.9,0.2-1.2,1.4-0.6,2.1l4.6,4.6c0.7,0.7,1.8,0.4,2.1-0.6l1.3-5l5.2,5.2c0.4,0.4,0.9,0.6,1.4,0.6
	c0.5,0,1-0.2,1.4-0.6C565.6,425.4,565.6,424.1,564.9,423.3z M515,374.4c-0.2,0.2-0.5,0.3-0.7,0.3c-0.3,0-0.5-0.1-0.7-0.3l-22.8-22.8
	l-15.2,15.2c-0.2,0.2-0.5,0.3-0.7,0.3c-0.3,0-0.5-0.1-0.7-0.3c-0.4-0.4-0.4-1,0-1.4l15.2-15.2L475.2,336c-0.4-0.4-0.4-1,0-1.4
	c0.4-0.4,1-0.4,1.4,0l14.2,14.2l14.9-14.9c0.4-0.4,1-0.4,1.4,0c0.4,0.4,0.4,1,0,1.4l-14.9,14.9l22.8,22.8
	C515.4,373.3,515.4,374,515,374.4z"/>
<path fill="#444444" d="M622.7,374.3v-4h65.9c-4.2-15-19.9-26.2-38.6-26.2c-21.9,0-39.7,15.3-39.7,34.2c0,18.3,16.6,33.2,37.5,34.2
	C633,405.7,622.7,391.1,622.7,374.3z M625.1,358.6c1.7-1.9,3.7-3.6,5.9-5c5.5-3.6,12-5.5,18.9-5.5c0.6,0,1,0.4,1,1c0,0.6-0.4,1-1,1
	c-6.5,0-12.7,1.8-17.8,5.2c-2.1,1.4-3.9,2.9-5.5,4.7c-0.2,0.2-0.5,0.3-0.7,0.3c-0.2,0-0.5-0.1-0.7-0.3
	C624.8,359.7,624.7,359,625.1,358.6z M626.7,374.3c0,21.1,17.9,38.2,40,38.2s40-17.1,40-38.2H626.7z M689,381.1c1.1,0,2,0.5,2,1.2
	c0,0.7-0.9,1.2-2,1.2c-1.1,0-3-1.2-3-1.2S687.9,381.1,689,381.1z M680.8,391.7c0.8,0.8,1,1.8,0.6,2.3c-0.5,0.5-1.5,0.2-2.3-0.6
	c-0.8-0.8-1.3-3-1.3-3S680,390.9,680.8,391.7z M667,394.5c0,0,1.2,1.9,1.2,3s-0.5,2-1.2,2s-1.2-0.9-1.2-2S667,394.5,667,394.5z
	 M653.1,391.7c0.8-0.8,3-1.3,3-1.3s-0.5,2.2-1.3,3c-0.8,0.8-1.8,1.1-2.3,0.6C652,393.5,652.3,392.4,653.1,391.7z M644.9,381.1
	c1.1,0,3,1.2,3,1.2s-1.9,1.2-3,1.2c-1.1,0-2-0.5-2-1.2C642.9,381.6,643.8,381.1,644.9,381.1z M666.7,406.7
	c-16.1,0-30.3-10.6-33.8-25.3c-0.1-0.5,0.2-1.1,0.7-1.2c0.5-0.1,1.1,0.2,1.2,0.7c3.3,13.8,16.7,23.8,31.9,23.8s28.6-10,31.9-23.8
	c0.1-0.5,0.7-0.9,1.2-0.7c0.5,0.1,0.9,0.7,0.7,1.2C697,396,682.8,406.7,666.7,406.7z"/>
<path fill="#444444" d="M802.7,382.3l-24.4-14.4c-6.5-3.8-14.8-2.8-20.2,2.6l-0.6,0.6c-4.2,4.2-3.2,11.4,2,14.3
	c10,5.5,23,13.4,31.3,19.2c9.6,6.6,27.3,18.6,45.5,10.8c6.9-2.9,7.8-11.6,2.5-16.9C829.3,388.9,812.9,389,802.7,382.3z M783.6,376.7
	c-0.2,0.2-0.5,0.3-0.8,0.3c-0.2,0-0.5-0.1-0.7-0.2c-0.1-0.1-11.8-10.2-18.9-3.1c-0.4,0.4-1,0.4-1.4,0c-0.4-0.4-0.4-1,0-1.4
	c8.4-8.4,21.5,2.9,21.6,3C783.9,375.6,784,376.3,783.6,376.7z M826.8,407.4c-0.6,0-1-0.4-1-1c0-2.4-2.8-3.1-3.3-3.2
	c-32.6,0-35.3-6.3-35.5-7.6c-0.1-0.5,0.3-1.1,0.8-1.1c0.5-0.1,1,0.2,1.1,0.8c0.1,0.2,2.8,5.7,31.8,6c-2.6-3.7-10.4-13.2-24-13.2
	c-0.6,0-1-0.4-1-1c0-0.6,0.4-1,1-1c16.4,0,25,12.9,26.5,15.4c1.8,0.5,4.6,2,4.6,5.1C827.8,406.9,827.3,407.4,826.8,407.4z
	 M759.5,352c7,3.8,15.4,8.9,22.7,13.5l22.6,13.3l0.1,0.1c3.2,2.1,7.4,3.6,11.8,4.9c6.2,1.3,12.9,1.1,19.6-1.8
	c6.9-2.9,7.8-11.6,2.5-16.9c-9.5-9.5-26-9.5-36.1-16.2l-24.4-14.4c-6.5-3.8-14.8-2.8-20.2,2.6l-0.6,0.6
	C753.3,342,754.3,349.1,759.5,352z M787.8,361.1c0.5-0.1,1,0.2,1.1,0.8c0.1,0.2,2.8,5.7,31.8,6c-2.6-3.7-10.4-13.2-24-13.2
	c-0.6,0-1-0.4-1-1c0-0.6,0.4-1,1-1c16.4,0,25,12.9,26.5,15.4c1.8,0.5,4.6,2,4.6,5.1c0,0.6-0.4,1-1,1c-0.6,0-1-0.4-1-1
	c0-2.4-2.9-3.1-3.3-3.2c-32.6,0-35.3-6.3-35.5-7.6C786.8,361.7,787.2,361.2,787.8,361.1z M761.9,338.8c8.4-8.4,21.5,2.9,21.6,3
	c0.4,0.4,0.5,1,0.1,1.4c-0.2,0.2-0.5,0.3-0.8,0.3c-0.2,0-0.5-0.1-0.7-0.2c-0.1-0.1-11.8-10.2-18.9-3.1c-0.4,0.4-1,0.4-1.4,0
	C761.5,339.8,761.5,339.2,761.9,338.8z M837.7,385c-3,1.3-6.1,2.1-9.4,2.5c1.7,0.6,3.4,1.4,5.1,2.2c1.5-0.4,2.9-0.9,4.3-1.5
	c4-1.7,6.8-5.1,7.6-9.3c0.3-1.4,0.3-2.8,0.1-4.2c0,0.3-0.1,0.6-0.1,0.9C844.4,379.9,841.7,383.3,837.7,385z M758,358.1
	c2.3,1.3,4.7,2.6,7.2,4.1c1.5-0.3,3-0.5,4.5-0.6c-4-2.4-8-4.7-11.7-6.8c-3.4-1.9-5.7-5.1-6.2-9c0,0,0-0.1,0-0.1
	c-0.1,1.1-0.2,2.2,0,3.3C752.3,352.9,754.6,356.2,758,358.1z M845.3,409c-0.8,4.2-3.6,7.6-7.6,9.3c-4.4,1.9-9,2.8-13.7,2.8
	c-14.8,0-27.9-9.1-34.9-13.9c-8.1-5.6-20.8-13.4-31.1-19.1c-3.4-1.9-5.7-5.1-6.2-9c0,0,0-0.1,0-0.1c-0.1,1.1-0.2,2.2,0,3.3
	c0.5,3.8,2.8,7.1,6.2,9c10.2,5.6,23,13.5,31.1,19.1c7,4.9,20.1,13.9,34.9,13.9c4.8,0,9.4-0.9,13.7-2.8c4-1.7,6.8-5.1,7.6-9.3
	c0.3-1.4,0.3-2.8,0.1-4.2C845.4,408.4,845.3,408.7,845.3,409z"/>
<path fill="#444444" d="M1098.2,384.1c5.8,0.9,11.9,0.6,18.2-2.1c6.9-2.9,7.8-11.6,2.5-16.9c-2.9-2.9-6.5-4.9-10.3-6.5
	c-9.2-0.5-18.5,11.1-22.5,21c1.1,0.6,2.2,1.2,3.5,1.7C1092.5,380.9,1095.4,381.7,1098.2,384.1z M1038.1,370.4l-0.6,0.6
	c-4.2,4.2-3.2,11.4,2,14.3c9.1,5,20.9,12.2,29.2,17.8c2.8-7.4,8.8-16.1,15.5-19.9c-0.5-0.3-1-0.6-1.5-0.9l-24.4-14.4
	C1051.8,364,1043.5,365.1,1038.1,370.4z M1063.6,376.7c-0.2,0.2-0.5,0.3-0.8,0.3c-0.2,0-0.5-0.1-0.7-0.2
	c-0.1-0.1-11.8-10.2-18.9-3.1c-0.4,0.4-1,0.4-1.4,0c-0.4-0.4-0.4-1,0-1.4c8.4-8.4,21.5,2.9,21.6,3
	C1063.9,375.6,1064,376.3,1063.6,376.7z M1117.7,385c-3,1.3-6.1,2.1-9.4,2.5c1.7,0.6,3.4,1.4,5.1,2.2c1.5-0.4,2.9-0.9,4.3-1.5
	c4-1.7,6.8-5.1,7.6-9.3c0.3-1.4,0.3-2.8,0.1-4.2c0,0.3-0.1,0.6-0.1,0.9C1124.4,379.9,1121.7,383.3,1117.7,385z M1116.4,415.3
	c6.9-2.9,7.8-11.6,2.5-16.9c-3-3-6.7-5.1-10.7-6.7c-9.2-0.2-18.6,11.9-22.4,21.7C1094.7,417.6,1105.4,420,1116.4,415.3z M1125.3,409
	c-0.8,4.2-3.6,7.6-7.6,9.3c-4.4,1.9-9,2.8-13.7,2.8c-14.8,0-27.9-9.1-34.9-13.9c-8.1-5.6-20.8-13.4-31.1-19.1
	c-3.4-1.9-5.7-5.1-6.2-9c0,0,0-0.1,0-0.1c-0.1,1.1-0.2,2.2,0,3.3c0.5,3.8,2.8,7.1,6.2,9c10.2,5.6,23,13.5,31.1,19.1
	c7,4.9,20.1,13.9,34.9,13.9c4.8,0,9.4-0.9,13.7-2.8c4-1.7,6.8-5.1,7.6-9.3c0.3-1.4,0.3-2.8,0.1-4.2
	C1125.4,408.4,1125.3,408.7,1125.3,409z M1038,358.1c2.3,1.3,4.7,2.6,7.2,4.1c1.5-0.3,3-0.5,4.5-0.6c-4-2.4-8-4.7-11.7-6.8
	c-3.4-1.9-5.7-5.1-6.2-9c0,0,0-0.1,0-0.1c-0.1,1.1-0.2,2.2,0,3.3C1032.3,352.9,1034.6,356.2,1038,358.1z M1039.5,352
	c7,3.8,15.4,8.9,22.7,13.5l6.6,3.9c2.9-7.3,8.8-15.8,15.5-19.5c-0.6-0.3-1.1-0.6-1.6-1l-24.4-14.4c-6.5-3.8-14.8-2.8-20.2,2.6
	l-0.6,0.6C1033.3,342,1034.3,349.1,1039.5,352z M1041.9,338.8c8.4-8.4,21.5,2.9,21.6,3c0.4,0.4,0.5,1,0.1,1.4
	c-0.2,0.2-0.5,0.3-0.8,0.3c-0.2,0-0.5-0.1-0.7-0.2c-0.1-0.1-11.8-10.2-18.9-3.1c-0.4,0.4-1,0.4-1.4,0
	C1041.5,339.8,1041.5,339.2,1041.9,338.8z"/>
<path fill="#444444" d="M74.4,503.1c-11.3,0-15.6,3.1-15.8,3.3c-0.4,0.3-0.5,1-0.2,1.4c0.3,0.4,1,0.5,1.4,0.2c0,0,4.1-2.9,14.6-2.9
	c10.5,0,14.5,2.8,14.6,2.9c0.2,0.1,0.4,0.2,0.6,0.2c0.3,0,0.6-0.1,0.8-0.4c0.3-0.4,0.2-1.1-0.2-1.4
	C89.9,506.2,85.6,503.1,74.4,503.1z M74.4,495.6c-12.7,0-16.8,4.2-16.9,4.4c-0.4,0.4-0.3,1,0.1,1.4c0.2,0.2,0.4,0.3,0.7,0.3
	c0.3,0,0.5-0.1,0.7-0.3c0,0,3.6-3.8,15.4-3.8c11.6,0,15.3,3.7,15.4,3.8c0.4,0.4,1,0.4,1.4,0.1c0.4-0.4,0.4-1,0.1-1.4
	C91.1,499.9,87.1,495.6,74.4,495.6z M122.8,503.1c-11.3,0-15.6,3.1-15.8,3.3c-0.4,0.3-0.5,1-0.2,1.4c0.3,0.4,1,0.5,1.4,0.2
	c0,0,4.1-2.9,14.6-2.9c10.5,0,14.5,2.8,14.6,2.9c0.2,0.1,0.4,0.2,0.6,0.2c0.3,0,0.6-0.1,0.8-0.4c0.3-0.4,0.2-1.1-0.2-1.4
	C138.4,506.2,134.1,503.1,122.8,503.1z M139.7,500c-0.2-0.2-4.2-4.4-16.9-4.4c-12.7,0-16.7,4.2-16.9,4.4c-0.4,0.4-0.3,1,0.1,1.4
	c0.4,0.4,1,0.4,1.4,0c0,0,3.7-3.8,15.4-3.8c11.7,0,15.4,3.7,15.4,3.8c0.2,0.2,0.5,0.3,0.7,0.3c0.2,0,0.5-0.1,0.7-0.3
	C140.1,501.1,140.1,500.4,139.7,500z M91.5,494.5c-0.1-13-2.7-16.9-6.1-20.3c-8.4-8.4-26.5,5.1-28.1,20.9c0.9-0.6,6.6-4,18.1-4
	C84.5,491.1,89.5,493.3,91.5,494.5z M139.8,494.4c-2.1-15.5-19.7-28.5-28-20.2c-3.4,3.4-6.1,7.4-6.1,20.8c0,0,0,0.1,0,0.1
	c0.2-0.1,5.9-4.1,18.2-4.1C132.8,491.1,137.7,493.2,139.8,494.4z M122.8,510c-6.7,0-11.4,1.2-14.4,2.3c1.2,4.4,2.3,8.7,2.3,13.8
	c0,11-3.2,14.5-3.2,23.8c0,9.3,3.7,15.1,14.3,15.1c10.6,0,14.3-5.8,14.3-15.1c0-9.3-1.9-7.7-1.9-18.7c0-8.2,2-12.8,3.6-18.4
	C135.4,511.6,130.6,510,122.8,510z M118.1,560.3c-0.2,0.4-0.5,0.6-0.9,0.6c-0.1,0-0.3,0-0.4-0.1c-4.2-1.8-6.2-5.6-6.2-11.9
	c0-3.6,0.6-6.1,1.2-8.8c0.3-1.4,0.6-2.7,0.9-4.3c0.1-0.5,0.6-0.9,1.1-0.8c0.5,0.1,0.9,0.6,0.8,1.1c-0.3,1.6-0.6,3.1-0.9,4.5
	c-0.6,2.5-1.2,4.9-1.2,8.3c0,5.4,1.6,8.6,5,10C118.1,559.2,118.3,559.8,118.1,560.3z M88.6,512.5c-2.6-1.1-7.2-2.5-14.3-2.5
	c-7.3,0-12.2,1.4-15.1,2.5c1.7,5.8,3.7,10.3,3.7,18.7c0,11-1.9,9.4-1.9,18.7c0,9.3,3.7,15.1,14.3,15.1c10.6,0,14.3-5.8,14.3-15.1
	c0-9.3-3.2-12.8-3.2-23.8C86.4,521,87.5,516.8,88.6,512.5z M71.1,559.7c-0.2,0.4-0.5,0.6-0.9,0.6c-0.1,0-0.3,0-0.4-0.1
	c-3.9-1.6-5.7-5.2-5.7-10.9c0-3.2,0.4-5.3,0.7-7.3c0.3-1.8,0.6-3.6,0.6-6.1c0-0.6,0.4-1,1-1c0.6,0,1,0.4,1,1c0,2.7-0.3,4.6-0.7,6.4
	c-0.3,1.9-0.7,3.9-0.7,6.9c0,4.9,1.4,7.7,4.5,9C71.1,558.6,71.3,559.2,71.1,559.7z"/>
<path fill="#444444" d="M925.4,334.2c-8.8-8.8-28.2,6.4-28.2,23.1c0,16.7,5.8,19.9,5.8,33.9c0,11-1.9,9.4-1.9,18.7
	c0,9.3,3.7,15.1,14.3,15.1c10.6,0,14.3-5.8,14.3-15.1c0-9.3-3.2-12.8-3.2-23.8c0-11,5.1-17.8,5.1-31
	C931.5,341.6,928.8,337.6,925.4,334.2z M911.1,419.7c-0.2,0.4-0.5,0.6-0.9,0.6c-0.1,0-0.3,0-0.4-0.1c-3.9-1.6-5.7-5.2-5.7-10.9
	c0-0.6,0.4-1,1-1c0.6,0,1,0.4,1,1c0,4.9,1.4,7.7,4.5,9C911.1,418.6,911.3,419.2,911.1,419.7z M921.3,385.9c-0.2,0.3-0.5,0.5-0.8,0.5
	c-0.2,0-0.4,0-0.5-0.2c-0.5-0.3-0.6-0.9-0.3-1.4c0-0.1,4.3-7,4.3-16.8c0-6.1-4.6-11-7.3-13.4c-0.7-0.6-1.5-0.8-2.3-0.9c0,0,0,0,0,0
	c0,0,0,0,0,0c-0.8,0-1.6,0.3-2.3,0.9c-2.7,2.3-7.3,7.2-7.3,13.4c0,9.7,4.3,16.7,4.3,16.8c0.3,0.5,0.2,1.1-0.3,1.4
	c-0.5,0.3-1.1,0.2-1.4-0.3c-0.2-0.3-4.7-7.5-4.7-17.9c0-7,5-12.3,8-14.9c0.8-0.7,1.8-1.1,2.9-1.3l2.5-7.1c0.2-0.5,0.8-0.8,1.3-0.6
	c0.5,0.2,0.8,0.8,0.6,1.3l-2.3,6.6c0.8,0.2,1.6,0.6,2.2,1.1c3,2.6,8,7.9,8,14.9C926,378.4,921.5,385.6,921.3,385.9z M980,357.3
	c0-16.7-19.4-31.9-28.2-23.1c-3.4,3.4-6.1,7.4-6.1,20.8c0,13.2,5.1,20.1,5.1,31c0,11-3.2,14.5-3.2,23.8c0,9.3,3.7,15.1,14.3,15.1
	c10.6,0,14.3-5.8,14.3-15.1c0-9.3-1.9-7.7-1.9-18.7C974.2,377.2,980,374,980,357.3z M958.1,420.3c-0.2,0.4-0.5,0.6-0.9,0.6
	c-0.1,0-0.3,0-0.4-0.1c-4.2-1.8-6.2-5.6-6.2-11.9c0-0.6,0.4-1,1-1c0.6,0,1,0.4,1,1c0,5.4,1.6,8.6,5,10
	C958.1,419.2,958.3,419.8,958.1,420.3z M969.8,385.9c-0.2,0.3-0.5,0.5-0.8,0.5c-0.2,0-0.4,0-0.5-0.2c-0.5-0.3-0.6-0.9-0.3-1.4
	c0-0.1,4.3-7,4.3-16.8c0-6.2-4.6-11-7.3-13.4c-0.7-0.6-1.5-0.8-2.3-0.9c0,0,0,0,0,0c0,0,0,0,0,0c-0.8,0-1.6,0.3-2.3,0.9
	c-2.7,2.3-7.3,7.2-7.3,13.4c0,9.7,4.3,16.7,4.3,16.8c0.3,0.5,0.2,1.1-0.3,1.4c-0.5,0.3-1.1,0.2-1.4-0.3c-0.2-0.3-4.7-7.5-4.7-17.9
	c0-7,5-12.3,8-14.9c0.7-0.6,1.4-0.9,2.2-1.1l-2.3-6.6c-0.2-0.5,0.1-1.1,0.6-1.3c0.5-0.2,1.1,0.1,1.3,0.6l2.5,7.1
	c1,0.1,2,0.6,2.9,1.3c3,2.6,8,7.9,8,14.9C974.4,378.4,970,385.6,969.8,385.9z"/>
<path fill="#444444" d="M230.4,496.4c0,0-11.2,11.9-11.2,40.6v24.4c0,3,2.4,5.4,5.4,5.4h27.9c3,0,5.4-2.4,5.4-5.4V537
	c0-28.7-11.2-40.6-11.2-40.6H230.4z M233.6,502.8c-3.8,3.8-8,18.2-8,34.8c0,0.6-0.4,1-1,1c-0.6,0-1-0.4-1-1c0-17.3,4.3-32,8.5-36.2
	c0.4-0.4,1-0.4,1.4,0C234,501.8,234,502.4,233.6,502.8z M255,469.7h-17.3c-1.6,0-2.9,1.3-2.9,2.9v0h0c0,0.1,0,0.1,0,0.2v7.6h-1.9
	c-1.4,0-2.6,1.2-2.6,2.6v9.3h16.5v-9.3c0-1.4-1.2-2.6-2.6-2.6h-1.9v-7.6c0-0.1,0-0.1,0-0.2H258v0C258,471.1,256.7,469.7,255,469.7z
	 M254,483.1v0.4c0,1.1,0.9,2,2,2c1.1,0,2-0.9,2-2v-0.4c0-3.6-2-7-2-7S254,479.5,254,483.1z M254,495.9v0.4c0,1.1,0.9,2,2,2
	c1.1,0,2-0.9,2-2v-0.4c0-3.6-2-7-2-7S254,492.3,254,495.9z"/>
<path fill="#444444" d="M418.8,531.7c-5-20.9-23.5-42.4-33.1-52.3c-3.9-4.1-10.4-4.1-14.3,0c-9.6,9.9-28.1,31.5-33.1,52.3
	c-1.8,7.6,1.1,13.3,7.4,18c6.8,5,19.6,10.5,32.8,10.5c13.3,0,26-5.5,32.8-10.5C417.7,545.1,420.6,539.3,418.8,531.7z M360.4,511.7
	c-8.8,10.7-11.3,25.1-11.3,25.2c-0.1,0.5-0.5,0.8-1,0.8c-0.1,0-0.1,0-0.2,0c-0.5-0.1-0.9-0.6-0.8-1.1c0.1-0.6,2.5-15.1,11.7-26.2
	c0.3-0.4,1-0.5,1.4-0.1C360.7,510.7,360.8,511.3,360.4,511.7z M368.9,516.6c-4.9,9.4-5.6,28.4-5.6,28.6c0,0.5-0.5,1-1,1c0,0,0,0,0,0
	c-0.6,0-1-0.5-1-1c0-0.8,0.8-19.7,5.9-29.4c0.3-0.5,0.9-0.7,1.3-0.4C369,515.5,369.2,516.1,368.9,516.6z M379.6,548c0,0.6-0.4,1-1,1
	c-0.6,0-1-0.4-1-1v-29c0-0.6,0.4-1,1-1c0.6,0,1,0.4,1,1V548z M395.2,546.1C395.1,546.1,395.1,546.1,395.2,546.1c-0.6,0-1-0.4-1-1
	c0-0.2-0.8-19.2-5.6-28.6c-0.3-0.5-0.1-1.1,0.4-1.3c0.5-0.3,1.1-0.1,1.3,0.4c5.1,9.8,5.8,28.6,5.9,29.4
	C396.1,545.6,395.7,546.1,395.2,546.1z M409.4,537.8c-0.1,0-0.1,0-0.2,0c-0.5,0-0.9-0.3-1-0.8c0-0.1-2.5-14.6-11.3-25.2
	c-0.4-0.4-0.3-1.1,0.1-1.4c0.4-0.4,1.1-0.3,1.4,0.1c9.2,11.1,11.6,25.6,11.7,26.2C410.3,537.2,410,537.7,409.4,537.8z"/>
<path fill="#444444" d="M626.9,533c-5.9,0-9.3,2.3-10.4,3.2c3,3,11.6,5,26.7,6.1c-1.6-1-3.1-2.1-4.6-3.2
	C634.5,536.1,630.2,533,626.9,533z M702.9,498.5h-5c0,0-4.3-6-10.3,0c0,0-6.5-8.1-14.6,0c0,0-8.4-10.3-18.8,0
	c-10.4-10.4-39.8,1.3-40.9,33.4c0,0.7,0.8,1.2,1.3,0.7c2-1.4,6.1-3.7,12.3-3.7c9.1,0,18.9,13.7,28,13.7c9.1,0,12.9-6.8,12.9-6.8
	s14.3-0.7,14.3-14.3c0,0,11.2-0.8,11.2-11.2c0,0,7.1-0.9,7.1-7.1l3-3C704.2,499.6,703.7,498.5,702.9,498.5z M644.2,500.9
	c-12.4,0-18.9,11.8-19,11.9c-0.2,0.3-0.5,0.5-0.9,0.5c-0.2,0-0.3,0-0.5-0.1c-0.5-0.3-0.7-0.9-0.4-1.4c0.3-0.5,7.2-13,20.8-13
	c0.6,0,1,0.4,1,1C645.2,500.5,644.8,500.9,644.2,500.9z M665.2,535.2c-0.1,0.4-0.5,0.7-1,0.7c-0.1,0-0.2,0-0.3,0
	c-0.5-0.2-13.4-3.9-13.4-14c0-3.3,1.2-5.6,2.3-7.8c1.5-3,3-5.9,1.7-11.6c-0.1-0.5,0.2-1.1,0.7-1.2c0.5-0.1,1.1,0.2,1.2,0.7
	c1.5,6.4-0.3,9.9-1.8,13c-1.1,2.1-2.1,4.1-2.1,6.9c0,8.6,11.8,12.1,11.9,12.1C665,534.1,665.3,534.6,665.2,535.2z M680.3,521
	c-0.1,0.4-0.5,0.7-1,0.7c-0.1,0-0.2,0-0.3,0c-0.3-0.1-7.9-2.3-7.9-8.4c0-2,0.7-3.3,1.3-4.6c0.8-1.7,1.6-3.2,0.9-6.3
	c-0.1-0.5,0.2-1.1,0.7-1.2c0.5-0.1,1.1,0.2,1.2,0.7c0.9,3.8-0.2,5.9-1.1,7.7c-0.6,1.2-1.1,2.2-1.1,3.7c0,4.6,6.4,6.4,6.5,6.5
	C680.2,519.9,680.5,520.4,680.3,521z M691.8,509.9c-0.1,0.4-0.5,0.7-1,0.7c-0.1,0-0.2,0-0.3,0c-0.2,0-4-1.2-4-4.3
	c0-1,0.4-1.7,0.7-2.3c0.4-0.7,0.6-1.3,0.4-2.5c-0.1-0.5,0.2-1.1,0.7-1.2c0.5-0.1,1.1,0.2,1.2,0.7c0.4,1.9-0.1,3-0.5,3.8
	c-0.3,0.5-0.4,0.9-0.4,1.4c0,1.6,2.5,2.4,2.5,2.4C691.7,508.9,692,509.4,691.8,509.9z"/>
<path fill="#444444" d="M550.2,506.9c-9.6-9.6-24.1-11.2-35.3-4.9l-5.4,5.4c-6.4,6.4-7,17.4-1.1,24.2c6.5,7.4,17.8,7.9,24.9,1.3
	c3.4-3.1,4.1-8.2,1.3-11.9c-3.2-4.2-9.2-4.5-12.9-1.1c-1.1,1-1.4,2.8-0.5,4c0.9,1.3,2.6,1.6,3.8,0.9c0.5-0.2,1-0.2,1.4,0.2
	c0.5,0.5,0.4,1.4-0.2,1.8c-2.3,1.3-5.3,0.7-6.9-1.6c-1.6-2.2-1-5.2,1-7.1c4.6-4.1,11.8-3.7,15.9,1.3c3.7,4.6,2.7,11.5-1.7,15.4
	c-7.9,6.9-19.9,6.5-27.3-1.2c-7.4-7.8-6.9-20.2,0.7-27.9l4.5-4.5c3.5-7.5,1.2-16.5-8-25.7l-13.6,13.6c-16.4,16.4-16.4,43.1,0,59.5
	c16.4,16.4,43.1,16.4,59.5,0C561.7,537.2,561.7,518.4,550.2,506.9z M512.9,512.7c-2.9,2.9-3.7,7.4-2,11.5c0.2,0.4,0,1-0.5,1.1
	c-0.1,0-0.2,0.1-0.3,0.1c-0.3,0-0.7-0.2-0.8-0.5c-1.9-4.8-1-10,2.4-13.4c0.3-0.3,0.9-0.3,1.2,0C513.2,511.8,513.2,512.4,512.9,512.7
	z M494.2,494.3c-9.8,9.8-12.5,25.1-6.9,38.9c0.2,0.4,0,1-0.5,1.1c-0.1,0-0.2,0.1-0.3,0.1c-0.3,0-0.7-0.2-0.8-0.5
	c-5.9-14.5-3-30.5,7.3-40.8c0.3-0.3,0.9-0.3,1.2,0C494.6,493.4,494.6,494,494.2,494.3z"/>
<path fill="#444444" d="M787.6,511.8l21.1-21.1h-33.8c-2.7,0-4.6,2.5-4,5.1C772.3,502.1,776.4,511.8,787.6,511.8z M842.2,486.3
	L842.2,486.3c-6.3-6.3-16.5-6.3-22.7,0l-34.1,34.1c-8.9,8.9-16.9,12.2-26.1,7.1l-9,9l22.6,14.9c10.9,6.8,23.5,3.5,33.7-6.7l8.3-8.3
	c2,8.4,10.1,11.6,15.5,12.9c2.6,0.6,5.1-1.4,5.1-4v-29.5l6.7-6.7C848.5,502.8,848.5,492.6,842.2,486.3z M787.1,526.8
	c-6.5,6.5-12.4,9.7-18.1,9.7c-3,0-5.9-0.8-8.9-2.5c-0.5-0.3-0.7-0.9-0.4-1.4c0.3-0.5,0.9-0.7,1.4-0.4c8,4.5,15.4,2.4,24.7-6.9
	c0.4-0.4,1-0.4,1.4,0C787.5,525.8,787.5,526.4,787.1,526.8z M830.7,495l-6.5-6.5c3.6-3.6,9.4-3.6,13,0L830.7,495z"/>
<path fill="#444444" d="M351.6,629.6l23.8,28l33.5,0L379.9,628H348l1,0.1C349.9,628.3,350.8,628.8,351.6,629.6z M397.4,628h-8.1
	l28.9,29.6l8.8,0L397.4,628z M391.2,661.6c9.2,20.5,9.2,22.3,9.2,23c0,1.4-0.4,2.5-1,3.4h2.4c0.9-0.6,1.7-1.6,1.7-3.4
	c0-0.7-0.9-4.2-9.4-23L391.2,661.6z M382.7,628l28.9,29.6l3.8,0L386.5,628H382.7z M403.4,661.6l-7,0c9.2,20.5,9.2,22.3,9.2,23
	c0,1.4-0.4,2.5-1,3.4h3.5c3-0.1,5.7-3.2,4.1-6.6L403.4,661.6z M361.2,683.5c0.1-0.1,0.1-0.2,0-0.5l-10.6-23.5h-20.4l24.5,24.5h5.8
	C360.7,684,361.1,683.8,361.2,683.5z M373.5,661.6L345,629.1c-1.5,1.2-2.3,3.3-1.3,5.5l21.1,46.8c1.6,3.5-1.5,6.8-4.7,6.6l36.5,0
	c0.9-0.6,1.7-1.6,1.7-3.4c0-0.7-0.9-4.2-9.4-23L373.5,661.6z"/>
<path fill="#444444" d="M544.9,706.6c0,0-1.8-2.8-9-2.8c-5.4,0-6-2.5-11.1-3.8c1.1-10.4,4.9-31,17.5-46.3c-0.7,1.8-1.2,3.9-1.2,6.1
	c0,6.1,3.9,11.1,3.9,11.1s3.9-5,3.9-11.1c0-0.7-0.1-1.4-0.2-2.1c0.4,0.6,0.9,1.1,1.4,1.6c4.3,4.3,10.6,5.1,10.6,5.1
	s-0.8-6.3-5.1-10.6c-0.5-0.5-0.9-0.9-1.4-1.2c0.5,0.1,1.1,0.1,1.6,0.1c6.1,0,11.1-3.9,11.1-3.9s-5-3.9-11.1-3.9
	c-0.6,0-1.2,0-1.7,0.1c0.5-0.4,1.1-0.9,1.6-1.3c4.3-4.3,5.1-10.6,5.1-10.6s-6.3,0.8-10.6,5.1c-0.6,0.6-1.2,1.3-1.7,2
	c0.1-0.8,0.2-1.6,0.2-2.5c0-6.1-3.9-11.1-3.9-11.1s-3.9,5-3.9,11.1c0,0.7,0.1,1.4,0.1,2c-0.4-0.5-0.8-1-1.3-1.5
	c-4.3-4.3-10.6-5.1-10.6-5.1s0.8,6.3,5.1,10.6c0.5,0.5,1.1,1,1.6,1.4c-0.7-0.1-1.4-0.2-2.2-0.2c-6.1,0-11.1,3.9-11.1,3.9
	s5,3.9,11.1,3.9c2.6,0,4.9-0.7,6.8-1.5c-10.8,12.7-15.6,29-17.6,40.6c-0.4-3.6-0.9-7.6-1.7-11.9c-2.9-16-7.9-28.8-14.9-38.4
	c2.1,0.7,4.5,1.2,7,1.2c7.9,0,14.3-5,14.3-5s-6.4-5-14.3-5c-0.9,0-1.8,0.1-2.7,0.2c0.7-0.5,1.4-1.1,2.1-1.8
	c5.6-5.6,6.6-13.7,6.6-13.7s-8.1,1-13.7,6.6c-0.6,0.6-1.1,1.2-1.6,1.8c0.1-0.7,0.1-1.4,0.1-2.1c0-7.9-5-14.3-5-14.3s-5,6.4-5,14.3
	c0,0.8,0.1,1.5,0.1,2.3c-0.5-0.7-1.1-1.4-1.7-2c-5.6-5.6-13.7-6.6-13.7-6.6s1,8.1,6.6,13.7c0.8,0.8,1.7,1.5,2.6,2.1
	c-1-0.2-2.1-0.3-3.2-0.3c-7.9,0-14.3,5-14.3,5s6.4,5,14.3,5c0.9,0,1.8-0.1,2.6-0.2c-0.7,0.5-1.3,1.1-2,1.7
	c-5.6,5.6-6.6,13.7-6.6,13.7s8.1-1,13.7-6.6c0.7-0.7,1.3-1.4,1.8-2.1c-0.1,0.9-0.2,1.9-0.2,2.8c0,7.9,5,14.3,5,14.3s5-6.4,5-14.3
	c0-2.6-0.5-5-1.2-7c12,17.2,14.9,41.9,15.6,54c-0.3,0-0.5,0-0.8,0c-12.4,0-14.7,7.3-14.7,7.3H544.9z M544.9,648.6
	c0,0-0.1,0.1-0.1,0.1c0-0.1,0.1-0.1,0.1-0.2C544.9,648.5,544.9,648.5,544.9,648.6z M548.6,697.6c-2.4,2.4-2.7,5.9-0.8,7.8
	c1.9,1.9,5.4,1.6,7.8-0.8c2.4-2.4,2.7-5.9,0.8-7.8C554.4,694.9,550.9,695.2,548.6,697.6z"/>
<path fill="#444444" d="M647.3,620c0.9-0.9,0.9-2.4,0-3.3c-0.9-0.9-2.4-0.9-3.3,0l-3.6,3.6l3.3,3.3L647.3,620z M633.9,612.3
	c0-1.3-1-2.3-2.3-2.3s-2.3,1-2.3,2.3v5.1h4.7V612.3z M631.6,642.6c6.3,0,11.5-5.1,11.5-11.5c0-6.3-5.1-11.5-11.5-11.5
	c-6.3,0-11.5,5.1-11.5,11.5C620.1,637.5,625.2,642.6,631.6,642.6z M645.1,633.5h5.1c1.3,0,2.3-1,2.3-2.3l0,0c0-1.3-1-2.3-2.3-2.3
	h-5.1V633.5z M640.4,641.9l3.6,3.6c0.9,0.9,2.4,0.9,3.3,0c0.9-0.9,0.9-2.4,0-3.3l-3.6-3.6L640.4,641.9z M619.4,623.6l3.3-3.3
	l-3.6-3.6c-0.9-0.9-2.4-0.9-3.3,0c-0.9,0.9-0.9,2.4,0,3.3L619.4,623.6z M629.2,650c0,1.3,1,2.3,2.3,2.3s2.3-1,2.3-2.3v-5.1h-4.7V650
	z M612.7,633.5h5.1v-4.7h-5.1c-1.3,0-2.3,1-2.3,2.3l0,0C610.4,632.4,611.4,633.5,612.7,633.5z M615.8,642.2c-0.9,0.9-0.9,2.4,0,3.3
	c0.9,0.9,2.4,0.9,3.3,0l3.6-3.6l-3.3-3.3L615.8,642.2z M686.5,656.1c-9.3,0-9.3,8-18.6,8c-9.3,0-9.3-8-18.6-8c-9.3,0-9.3,8-18.6,8
	c-9.3,0-11-8-20.3-8v44.4c0,3.4,2.7,6.1,6.1,6.1h84.2c3.4,0,6.1-2.7,6.1-6.1v-36.4C697.5,664.1,695.8,656.1,686.5,656.1z M647,677.5
	l-1.7,4.3l-0.7-0.3l-5.6-5.6L647,677.5z M621.2,676.7l-1.4,1.4c-1,1-2.6,1-3.7,0l-0.6-0.6l4.3-4.3c0.5-0.5,1.3-0.8,2.1-0.6l8,1.6
	l-4.2,0.4v2.3c0,0.3,0,0.6,0.1,0.9L621.2,676.7z M697.3,678.8c0-3.6-4.6-6.6-10-6.6c-3.9,0-7.4,1.6-9,3.8h12.4
	c2.1,0,3.9,1.7,3.8,3.8c0,0,0,0.1,0,0.1c-0.2,3.2-2.7,5.9-5.9,6.2c-3.1,0.3-5.9-1.6-6.8-4.4h-0.2c-2.3,0-3.4,0.4-4.1,1.2
	c-0.2,0.4-0.3,0.7-0.6,1c0,0,0,0,0,0.1c-2.2,3.6-7.1,6.1-12.7,6.1c-2.2,0-6.8-0.8-9.2-2.4l2.9-2.9c1.2,0.5,4,1.3,6.2,1.3
	c2,0,3.9-0.4,5.4-1.1c-0.3-0.3-0.5-0.6-0.7-0.9l0,0l-12.1-0.7l-0.5,0.4l-7.8,7.8c-1,1-2.6,1-3.6,0l-11.3-12.3h-3.2
	c-1.4,0-2.6-1.2-2.6-2.6V676h7.4v0c0,0,0.1,0,0.1,0c0.7,0,1.3,0.3,1.8,0.7l6.3,6.4l2.6,2.6l1.1-2.9l0,0l1.4-3.7
	c0-0.1,0.1-0.2,0.1-0.2l0.3-0.8c1.3-3.2,4.8-4.7,8-3.6c2.4,0.8,5.4,1.5,9.1,1.5h7.8c1.6-4.5,7.1-7.8,13.5-7.8c7.7,0,14,4.8,14,10.6
	H697.3z"/>
<path fill="#444444" d="M787.3,620c0.9-0.9,0.9-2.4,0-3.3c-0.9-0.9-2.4-0.9-3.3,0l-3.6,3.6l3.3,3.3L787.3,620z M773.9,612.3
	c0-1.3-1-2.3-2.3-2.3s-2.3,1-2.3,2.3v5.1h4.7V612.3z M771.6,642.6c6.3,0,11.5-5.1,11.5-11.5c0-6.3-5.1-11.5-11.5-11.5
	c-6.3,0-11.5,5.1-11.5,11.5C760.1,637.5,765.2,642.6,771.6,642.6z M780.4,641.9l3.6,3.6c0.9,0.9,2.4,0.9,3.3,0
	c0.9-0.9,0.9-2.4,0-3.3l-3.6-3.6L780.4,641.9z M752.7,633.5h5.1v-4.7h-5.1c-1.3,0-2.3,1-2.3,2.3l0,0
	C750.4,632.4,751.4,633.5,752.7,633.5z M785.1,633.5h5.1c1.3,0,2.3-1,2.3-2.3l0,0c0-1.3-1-2.3-2.3-2.3h-5.1V633.5z M759.4,623.6
	l3.3-3.3l-3.6-3.6c-0.9-0.9-2.4-0.9-3.3,0c-0.9,0.9-0.9,2.4,0,3.3L759.4,623.6z M755.8,642.2c-0.9,0.9-0.9,2.4,0,3.3
	c0.9,0.9,2.4,0.9,3.3,0l3.6-3.6l-3.3-3.3L755.8,642.2z M769.2,650c0,1.3,1,2.3,2.3,2.3s2.3-1,2.3-2.3v-5.1h-4.7V650z M826.5,656.1
	c-9.3,0-9.3,8-18.6,8c-9.3,0-9.3-8-18.6-8c-9.3,0-9.3,8-18.6,8c-9.3,0-11-8-20.3-8v44.4c0,3.4,2.7,6.1,6.1,6.1h84.2
	c3.4,0,6.1-2.7,6.1-6.1v-36.4C837.5,664.1,835.8,656.1,826.5,656.1z M764.2,673.4c1-1,2.4-0.6,3.1-0.4l24.4,3.6
	c-0.8,0.8-1.4,1.6-1.8,2.6l-0.1,0.4l-22.6-3.6c-0.3,0-0.5-0.1-0.8-0.1c-1,0-2,0.3-2.8,0.8c-0.1,0.1-0.2,0.2-0.3,0.2l-7.4,7.4
	l-0.7-1.8L764.2,673.4z M842.1,684.6c0,1.9-1.6,3.5-3.5,3.5h-6.5v0c0,0-0.1,0-0.1,0c-3.1,0.3-5.9-1.6-6.8-4.4H825
	c-2.3,0-3.4,0.4-4.1,1.2c-0.2,0.4-0.3,0.7-0.6,1c0,0,0,0,0,0.1c-2.2,3.6-7.1,6.1-12.7,6.1c-3.3,0-8.2-1.4-10.5-3l4.3-2.3
	c1.2,0.5,4,1.3,6.2,1.3c2,0,3.9-0.4,5.4-1.1c-0.3-0.3-0.5-0.6-0.7-0.9l0,0l-12.1-0.7l-0.5,0.4c0,0-3.8,2.5-8.4,2.5
	c-3.7,0-21-4.9-25-6l-3.5,8.8l-3.7,0.3c-1.2,0.1-2.3-0.6-2.8-1.7l-0.9-2.1l3.9-3.9c0,0,0,0,0,0l0,0l4.8-4.8c0.2-0.2,0.3-0.3,0.5-0.4
	l0,0c1.3-1.3,3.4-0.3,3.4-0.3l22.9,3.7l0.7-1.8c1.3-3.2,5.5-4.7,8.8-3.6c2.4,0.8,5.4,1.5,9.1,1.5h24.7c2.1,0,3.9,1.7,3.8,3.8
	c0,0,0,0.1,0,0.1c-0.1,1.6-0.8,3.1-1.8,4.2h2.5c0.8,0,1.5-0.7,1.5-1.5v-13.2h2V684.6z"/>
<path fill="#444444" d="M894.8,687.5c0.7-0.2,1.3-0.3,1.7-0.4c4-0.8,9.2-1.3,15.2-1.5V655c0-2.8,2.3-5.1,5.1-5.1h13.4l0.5-4.9
	c0-0.5,0.1-10.8-6.8-17.8c-3.4-3.5-8-5.3-13.5-5.3c-5.5,0-10,1.8-13.5,5.3c-6.9,7-6.8,17.3-6.8,17.8L894.8,687.5z M899,682
	c0,0-0.1,0-0.1,0c-0.5,0-0.9-0.4-1-0.9l-3.2-30.4c-0.1-0.5,0.3-1,0.9-1.1c0.6-0.1,1,0.3,1.1,0.9l3.2,30.4
	C900,681.5,899.6,682,899,682z M900,630c2.7-2.7,6.2-4.1,10.6-4.1c4.4,0,7.9,1.4,10.6,4.1c4.7,4.7,5.5,12.3,5.7,15h-32.5
	C894.5,642.4,895.3,634.8,900,630z M978,687c0-0.1,0.1-0.2,0.1-0.3l4.1-14.2l-5.4-1.6l9.5-32.8c0.5-1.7-0.5-3.4-2.1-3.9
	c-1.7-0.5-3.4,0.5-3.9,2.1l-9.5,32.8l-5.4-1.5v17.7c2.1,0.8,4.3,1.4,7.3,1.4C974.7,686.6,976.4,686.8,978,687z M972.7,690.6
	c-4.9,0-8.3-1.4-11.3-2.8v-41.8l-10.1-9.6l-9.6,9.6v37.4c0,1-0.8,1.8-1.8,1.8c-1,0-1.8-0.8-1.8-1.8V655c0-0.6-0.5-1.1-1.1-1.1h-2.6
	c-0.6,0-1.1,0.5-1.1,1.1v2.9h-4V655c0-0.6-0.5-1.1-1.1-1.1h-2.4c-0.6,0-1.1,0.5-1.1,1.1v2.9h-4V655c0-0.6-0.5-1.1-1.1-1.1h-2.6
	c-0.6,0-1.1,0.5-1.1,1.1v34.6c-15.4,0-25.4,2.2-25.4,5h96C986.4,694.6,983.2,690.6,972.7,690.6z"/>
<path fill="#444444" d="M1038.8,669.8c3.6,1.5,11.3,2.2,21.1,2.5c2.8-0.9,5.7-1.4,8.6-1.4c5.9,0,11.1,0.6,15.8,1.5
	c14.6-0.2,26.3-0.8,30.1-3.2c0.9-0.5,0.5-1.9-0.5-1.9h-26.5v0c0-1.5-1.2-2.7-2.7-2.7h-2.3l9.9-9.1c1-1,1-2.7,0-3.8l-8.8-10.8
	c-0.1-0.1-0.1-0.2-0.2-0.2l6.7-5.3l0,0c1.6,0.4,3.3-0.1,4.6-1.3c1.9-1.9,1.9-5,0-7l3.6-3.6c0.2,0,0.3,0,0.5-0.1
	c2.6-0.6,4.8-2.7,5.3-5.4c0.7-3.9-1.7-7.3-5.2-8.1l0,0c0,0-3.6-1.1-7.4,1.4c-4,2.2-6.5,0.9-7.5,0.1c-0.2-0.2-0.5,0-0.4,0.3
	c0.3,0.9,1.1,2.3,3.5,3c-2.1,1.1-3.8,0.7-4.7,0.3c-0.2-0.1-0.5,0.2-0.3,0.4c0.5,0.8,2.7,2,5.4,2c0,0-1.3,1.3-3.6,1.8
	c-0.3,0.1-0.3,0.5,0,0.6c1.4,0.3,4.8,0.3,6.7-0.8c1.6-0.9,2.5,0,3,0.7v0l-6,6h-20.7c-2.6,0-5.2,1.3-7,3.6v0.1h24l-7.9,7.9
	c-2.3,2.3-1.2,5.9,1.6,8.7l8.6,8.3l-2.7,2.7l-6.7,6.6c-0.5,0.5-0.8,1.2-0.8,1.9c0,0.7,0.2,1.3,0.5,1.8h-11.5v0
	c0-1.5-1.2-2.7-2.7-2.7h-1.8l16.4-16.4l-0.7-0.6c-1.4-1.4-2.4-2.9-2.9-4.5l-19.5,22c-0.1,0.1-0.1,0.2-0.2,0.2l-0.1,0.1l0,0
	c-0.2,0.3-0.3,0.6-0.3,1c0,0.3,0.1,0.7,0.3,0.9h-14C1038,667.5,1037.6,669.3,1038.8,669.8z M1115.9,625.9h-17.7l-1.6,1.5l1.3,2.2
	h25.1v-0.1C1121.1,627.2,1118.5,625.9,1115.9,625.9z M1105.8,688c0.9,0.2,1.4-1.4,0.6-2c-10.5-7.7-22.4-11-37.9-11
	c-14,0-28.5,12.5-38.1,31.6h41.4C1077.6,693.3,1086.1,683.8,1105.8,688z M1071.3,680c-5,0-9.3,0.9-12.8,2.7
	c-9.2,4.7-15.6,13.4-18.6,18.1c-0.2,0.3-0.5,0.5-0.8,0.5c-0.2,0-0.4,0-0.5-0.2c-0.5-0.3-0.6-0.9-0.3-1.4c3.1-4.9,9.8-14,19.4-18.9
	c3.8-1.9,8.4-2.9,13.7-2.9h0c0.6,0,1,0.4,1,1C1072.3,679.5,1071.8,680,1071.3,680z M1095.8,690.8c-8,0-16.1,6.4-19.1,15.8h20.8
	c2.9-6.7,7.2-11.4,17-9.3c0.5,0.1,0.7-0.7,0.3-1C1111.9,694.2,1105.7,690.8,1095.8,690.8z M1095.8,695.8c-4.3,0-8.9,2.8-12,7.4
	c-0.2,0.3-0.5,0.4-0.8,0.4c-0.2,0-0.4-0.1-0.6-0.2c-0.5-0.3-0.6-0.9-0.3-1.4c3.4-5.1,8.6-8.3,13.6-8.3c0.6,0,1,0.4,1,1
	C1096.8,695.3,1096.4,695.8,1095.8,695.8z"/>
<path fill="#444444" d="M73.9,752.3c0-1.3-1-2.3-2.3-2.3c-1.3,0-2.3,1-2.3,2.3v5.1h4.7V752.3z M71.6,782.6c6.3,0,11.5-5.1,11.5-11.5
	c0-6.3-5.1-11.5-11.5-11.5c-6.3,0-11.5,5.1-11.5,11.5C60.1,777.5,65.2,782.6,71.6,782.6z M87.3,760c0.9-0.9,0.9-2.4,0-3.3
	c-0.9-0.9-2.4-0.9-3.3,0l-3.6,3.6l3.3,3.3L87.3,760z M80.4,781.9l3.6,3.6c0.9,0.9,2.4,0.9,3.3,0c0.9-0.9,0.9-2.4,0-3.3l-3.6-3.6
	L80.4,781.9z M85.1,773.5h5.1c1.3,0,2.3-1,2.3-2.3c0-1.3-1-2.3-2.3-2.3h-5.1V773.5z M59.4,763.6l3.3-3.3l-3.6-3.6
	c-0.9-0.9-2.4-0.9-3.3,0c-0.9,0.9-0.9,2.4,0,3.3L59.4,763.6z M69.2,790c0,1.3,1,2.3,2.3,2.3c1.3,0,2.3-1,2.3-2.3v-5.1h-4.7V790z
	 M52.7,773.5h5.1v-4.7h-5.1c-1.3,0-2.3,1-2.3,2.3C50.4,772.4,51.4,773.5,52.7,773.5z M55.8,782.2c-0.9,0.9-0.9,2.4,0,3.3
	c0.9,0.9,2.4,0.9,3.3,0l3.6-3.6l-3.3-3.3L55.8,782.2z M132.7,842.6c-10.4,0-13.6-6-22.4-6c-1,0-2.1,0.1-3.2,0.2l11.5-29.3
	c1.6-0.2,3.5,0.1,5.5,0.9c2.9,1.1,5,2.9,5.7,4.6c0.2,0.6,0.9,0.8,1.5,0.6c1.7-0.8,4.5-0.7,7.3,0.4c2.1,0.8,3.9,2,4.9,3.3
	c0.6,0.7,1.8,0.5,2-0.4c3.7-14.9-4.2-30.6-18.9-36.3c-14.7-5.7-31.1,0.7-38.4,14.3c-0.4,0.8,0.3,1.8,1.2,1.7c1.6-0.3,3.7,0,5.8,0.8
	c2.8,1.1,4.9,2.9,5.6,4.6c0.2,0.6,0.9,0.8,1.5,0.6c1.7-0.8,4.5-0.7,7.3,0.4c2,0.8,3.7,1.9,4.7,3.1l-12.5,31.9c-2,0.4-4,0.9-6.3,1.4
	v-7.7c0-1.1-0.4-2.1-1.2-2.8l3.5-3.5c0.8-0.8,0.8-2,0-2.8c-0.8-0.8-2-0.8-2.8,0l-10.9,10.9H67.1c-2.8,0-5.1,2.3-5.1,5.1v3.9
	c-7.3,0.9-11.6,2.4-11.6,4.3h96C146.4,846.6,143.2,842.6,132.7,842.6z M113.3,798.4c-0.2,0.4-0.5,0.6-0.9,0.6c-0.1,0-0.2,0-0.4-0.1
	c-0.5-0.2-0.8-0.8-0.6-1.3c0.1-0.4,3-7.9,10.5-11.4c-12.6-1.7-20.3,7-20.6,7.4c-0.2,0.2-0.5,0.3-0.8,0.3c-0.2,0-0.5-0.1-0.7-0.2
	c-0.4-0.4-0.5-1-0.1-1.4c0.1-0.1,10.2-11.6,26.1-7.3l0,0c0,0,0.1,0,0.1,0.1c0,0,0.1,0,0.1,0c0,0,0,0,0,0
	c14.1,8.6,12.2,23.9,12.2,24.1c-0.1,0.5-0.5,0.9-1,0.9c0,0-0.1,0-0.1,0c-0.5-0.1-0.9-0.6-0.9-1.1c0.1-0.5,1.4-12-8.4-20.1
	c2.5,7.9-1.3,15.2-1.5,15.6c-0.2,0.3-0.5,0.5-0.9,0.5c-0.2,0-0.3,0-0.5-0.1c-0.5-0.3-0.7-0.9-0.4-1.4c0-0.1,4.4-8.5,0.4-16.4
	C116.7,789.7,113.4,798.3,113.3,798.4z M91.6,840c-4.5,0.9-9.5,1.6-15.3,1.6c-3.8,0-7.2,0.1-10.3,0.4v-3.5c0-0.6,0.5-1.1,1.1-1.1
	h18.7l0.6-0.6c0,0,0,0,0,0l5.2-5.2V840z"/>
<path fill="#444444" d="M120.9,647.9c-0.2,2-0.7,4-1.4,5.8c3.5,0.4,10.8,0,18.4-8.5c0.4-0.4,1-0.4,1.4-0.1c0.4,0.4,0.4,1,0.1,1.4
	c-7,7.6-13.7,9.2-18.1,9.2c-1,0-2-0.1-2.7-0.2c-0.8,1.6-1.7,3-2.8,4.3c1.6,0.2,3.3,0.4,5.2,0.4c11.6,0,26.2-11.8,26-19.3
	C138.9,641.3,129.6,644.2,120.9,647.9z M86,659.2c0.4,0.4,0.9,0.8,1.4,1.2h0c0,0-0.8,3.3-2.6,4.6c2.6,2.8,2.5,8.8,2.1,12.2
	c0.6-0.1,1.3,0.1,1.8,0.7c1.2,1.4,3,3.5,4.4,6c1.4,2.4,2.2,4.7,2.8,6.3h5.6c0.5-1.6,1.4-3.9,2.8-6.3c1.4-2.5,3.2-4.6,4.4-6
	c0.5-0.5,1.1-0.7,1.7-0.7c-0.4-3.4-0.7-9.2,2.2-12.2c-1.8-1.3-2.6-4.6-2.6-4.6h0c4.2-3.3,7-8.3,7.2-14c9.6-4.4,19.3-8.2,29.1-8.2
	c0,0-14-4.7-30.2-8.4c0-12.6-3-20.5-15.7-20.5c-12.5,0-15.6,6.6-15.7,16.5H54.7c-3.3,0-5.6,3.8-4.5,7.4
	c3.1,10.2,10.8,27.2,26.5,27.2C79.8,660.4,82.9,659.9,86,659.2z M88.9,624.8c0.7,0,16.8-0.9,23.2,2.2c0.5,0.2,0.7,0.8,0.5,1.3
	c-0.2,0.4-0.5,0.6-0.9,0.6c-0.1,0-0.3,0-0.4-0.1c-6-2.9-22.1-2-22.3-2c-0.6,0-1-0.4-1.1-0.9C87.9,625.3,88.3,624.8,88.9,624.8z
	 M59.8,644.5c-3.6-5.5-5.5-11.3-5.5-12.7c0-0.6,0.4-1,1-1c0.6,0,1,0.4,1,1c0,2,7.3,21.6,19.6,21.6c11,0,22.3-5.5,32.3-10.3
	c7.6-3.7,14.2-6.9,19.2-6.9c0.6,0,1,0.4,1,1s-0.4,1-1,1c-4.5,0-10.9,3.1-18.4,6.7c-10.2,4.9-21.7,10.5-33.1,10.5
	C68.5,655.4,63.1,649.5,59.8,644.5z M78.3,690.3c0.5-1.6,1.4-4,2.8-6.5c1.1-1.9,2.4-3.6,3.5-4.9c0.5-3.1,1.1-10.3-1.4-12.7
	c-0.1-0.1-0.2-0.3-0.3-0.5c-6.5,4.8-10.9,13.8-11.4,22.3h0v19.3h7.7c0,0,0-5.7,0-10.4c0-2.6,0.8-3.4,1.4-3.7
	c-0.3-0.1-0.5-0.1-0.8-0.2C78.6,692.7,77.9,691.5,78.3,690.3z M102.8,693c-0.5-0.1-1-0.5-1.2-0.9h-6c-0.3,0.4-0.7,0.7-1.2,0.9
	c-1.5,0.4-3.9,0.7-7.3,0.7c-2.5,0-4.5-0.2-6-0.5v14.1H116v-14c-1.5,0.3-3.4,0.5-5.9,0.5C106.7,693.7,104.3,693.3,102.8,693z
	 M114.2,665.7c0,0.2-0.1,0.4-0.3,0.5c-2.7,2.7-2,9.8-1.4,12.7c1.1,1.3,2.4,3,3.5,4.9c1.4,2.5,2.3,4.9,2.8,6.5
	c0.4,1.1-0.3,2.3-1.5,2.6c-0.2,0.1-0.5,0.1-0.8,0.2c0.6,0.3,1.4,1.2,1.4,3.7c0,4.7,0,10.4,0,10.4h7.7V688h0
	C125.1,679.4,120.7,670.5,114.2,665.7z M116.8,689.5c-0.4-1.3-1.1-3.3-2.3-5.3c-1.2-2-2.6-3.7-3.6-4.8c-0.4-0.4-1-0.5-1.4-0.1
	c-0.4,0.4-0.5,1-0.1,1.4c0.9,1,2.2,2.7,3.3,4.5c1.1,1.9,1.8,3.7,2.1,4.9c0.1,0.4,0.5,0.7,1,0.7c0.1,0,0.2,0,0.3,0
	C116.7,690.6,117,690,116.8,689.5z M87.7,679.4c-0.4-0.4-1-0.5-1.4-0.1c-0.4,0.4-0.5,1-0.1,1.4c0.9,1,2.2,2.7,3.3,4.5
	c1.1,1.9,1.8,3.7,2.1,4.9c0.1,0.4,0.5,0.7,1,0.7c0.1,0,0.2,0,0.3,0c0.5-0.2,0.8-0.7,0.7-1.3c-0.4-1.3-1.1-3.3-2.3-5.3
	C90.1,682.2,88.7,680.5,87.7,679.4z"/>
<path fill="#444444" d="M241.2,611.6c-0.1-1.2-1-2.2-2.3-2.2c-1.2,0-2.2,1-2.3,2.2c0.7,0,1.5-0.1,2.2-0.1
	C239.7,611.6,240.4,611.6,241.2,611.6z M227.2,663.5c-6.6,0-10.2-1.8-13.1-3.3c2.6,5.2,6.7,9.4,11.8,12.1h0c0,1.9-1.2,3.7-2.8,5.2
	c4.4,3.4,9.8,5.3,15.4,5.3c5.7,0,11.2-1.9,15.6-5.4c-1.5-1.5-2.7-3.3-2.7-5.1h-0.2c8.7-4.6,14.7-13.7,14.7-24.2c0-0.5,0-1,0-1.5
	c-2.3,1-7.2,2.6-15.4,3.5C244.5,656.4,235.9,663.5,227.2,663.5z M206.3,653.5c9.5,0,9.9,5.6,21,5.6c8.1,0,17-8.7,21.2-13.4
	c12.2-1,16.9-3.9,16.9-3.9c0-15.2-9.4-25.1-21.6-27.2c0,0,0,0,0.1,0.1c6.7,6.7,6.6,27.5,6.6,28.4c0,0.5-0.5,1-1,1h0
	c-0.6,0-1-0.5-1-1c0-0.2,0.1-20.9-6-27c-1.1-1.1-2.2-1.6-3.5-1.6c-14.2,0-15.2,19.9-15.2,20.1c0,0.5-0.5,1-1,1c0,0,0,0,0,0
	c-0.6,0-1-0.5-1-1c0-0.2,0.7-13.2,8.4-19.1c-10.3,3-16.7,11.3-17.6,23.6l-12.9,12.9c-1,1-0.1,2.7,1.3,2.5
	C202.4,654.4,204.3,653.5,206.3,653.5z M214.3,637.3c0.2-0.1,1.7-1.1,6-1.1c3.1,0,7,1.8,11.1,3.7c4.5,2.1,9.2,4.3,13.1,4.3
	c0.6,0,1,0.4,1,1s-0.4,1-1,1c-4.4,0-9.3-2.3-14-4.5c-3.9-1.8-7.6-3.6-10.2-3.6c-3.6,0-4.9,0.7-4.9,0.7c-0.5,0.3-1.1,0.1-1.4-0.3
	C213.8,638.2,213.9,637.6,214.3,637.3z M260.2,681.9v-0.1c0,0-1.3-0.7-2.9-1.8c-5.2,4.3-11.8,6.7-18.7,6.7c-6.9,0-13.4-2.3-18.6-6.6
	c-1.6,1.1-2.8,1.8-2.8,1.8v0c-8.3,5.3-14.6,15-17.3,25.5h77.4C274.6,696.9,268.4,687.2,260.2,681.9z"/>
<path fill="#444444" d="M955.8,513.3c0-12.6-3-20.5-15.7-20.5c-12.5,0-15.6,6.6-15.7,16.5h-29.8c-3.3,0-5.6,3.8-4.5,7.4
	c3.1,10.2,10.8,27.2,26.5,27.2c22.4,0,45.7-22.2,69.3-22.2C986,521.6,972,516.9,955.8,513.3z M928.9,508.2c0.7,0,16.8-0.9,23.2,2.2
	c0.5,0.2,0.7,0.8,0.5,1.3c-0.2,0.4-0.5,0.6-0.9,0.6c-0.1,0-0.3,0-0.4-0.1c-6-2.9-22.1-2-22.3-2c-0.6,0-1-0.4-1.1-0.9
	C927.9,508.7,928.3,508.3,928.9,508.2z M967.4,521.6c-4.5,0-10.9,3.1-18.4,6.7c-10.2,4.9-21.7,10.5-33.1,10.5
	c-7.4,0-12.8-5.9-16.1-10.9c-3.6-5.5-5.5-11.3-5.5-12.7c0-0.6,0.4-1,1-1c0.6,0,1,0.4,1,1c0,2,7.3,21.6,19.6,21.6
	c11,0,22.3-5.5,32.3-10.3c7.6-3.7,14.2-6.9,19.2-6.9c0.6,0,1,0.4,1,1C968.4,521.2,967.9,521.6,967.4,521.6z M951.4,535.6
	c-2.3,1.1-4.7,2.2-7,3.3c2.8,2,8.3,4.9,16.8,4.9c11.6,0,26.2-11.8,26-19.3C975.8,524.8,962.5,530.3,951.4,535.6z M979.5,530.1
	c-7,7.7-13.7,9.2-18.1,9.2c-2.9,0-4.7-0.7-4.9-0.7c-0.5-0.2-0.8-0.8-0.6-1.3c0.2-0.5,0.8-0.8,1.3-0.6c0.4,0.2,10.1,3.7,20.7-8
	c0.4-0.4,1-0.4,1.4-0.1C979.8,529,979.8,529.7,979.5,530.1z"/>
<path fill="#444444" d="M1094.5,489.7c0.2,0.2,0.4,0.4,0.6,0.5c9.6,9.7,9.4,39.8,9.4,41.1c0,0.5-0.5,1-1,1h0c-0.6,0-1-0.5-1-1
	c0-0.3,0.2-30.6-8.8-39.6c-1.4-1.4-2.9-2.2-4.6-2.4c-0.3,0-0.5,0-0.8,0c-0.3,0-0.6,0-0.9,0c-20.1,0.9-21.7,29.4-21.7,29.7
	c0,0.5-0.5,1-1,1c0,0,0,0,0,0c-0.6,0-1-0.5-1-1c0-0.3,1.1-20.2,13.1-28.3c-15.7,4-25.7,16.4-26.9,34.8l-18.8,18.8
	c-1.5,1.5-0.2,3.9,1.8,3.6c2.3-0.3,5-1.6,7.9-1.6c13.9,0,14.4,8.2,30.6,8.2c11.8,0,24.8-12.7,30.9-19.5c17.7-1.5,24.7-5.6,24.7-5.6
	C1126.8,506.9,1112.8,492.4,1094.5,489.7z M1096.5,535.3c-6.3,0-13.4-3.3-20.2-6.5c-5.7-2.7-11.1-5.2-15.1-5.2
	c-5.5,0-7.4,1.1-7.4,1.1c-0.5,0.3-1.1,0.2-1.4-0.3c-0.3-0.5-0.2-1.1,0.3-1.4c0.2-0.2,2.4-1.5,8.5-1.5c4.4,0,10,2.6,16,5.4
	c6.6,3.1,13.5,6.3,19.3,6.3c0.6,0,1,0.4,1,1C1097.5,534.8,1097.1,535.3,1096.5,535.3z M1091.6,485.3c-0.1-1.8-1.5-3.2-3.3-3.2
	c-1.8,0-3.2,1.4-3.3,3.1c1.1-0.1,2.2-0.1,3.3-0.1C1089.4,485.1,1090.5,485.2,1091.6,485.3z"/>
</svg>
