<?xml version="1.0" encoding="iso-8859-1"?>
<!-- Generator: Adobe Illustrator 21.1.0, SVG Export Plug-In . SVG Version: 6.00 Build 0)  -->
<svg version="1.1" id="Layer_1" xmlns="http://www.w3.org/2000/svg" xmlns:xlink="http://www.w3.org/1999/xlink" x="0px" y="0px"
	 viewBox="0 0 90 90" style="enable-background:new 0 0 90 90;" xml:space="preserve">
<g style="opacity:0.2;">
	<path style="fill-rule:evenodd;clip-rule:evenodd;fill:#662F5A;" d="M47.649,19.29c-0.049-0.093-0.109-0.178-0.178-0.254
		l-2.66-2.674v-0.001l-0.002,0.001v-0.001v0.001v-0.001v0.001l-2.658,2.674c-0.07,0.076-0.131,0.161-0.182,0.254
		c-0.293,0.576-0.059,1.275,0.529,1.566c0.369,0.182,0.791,0.158,1.123-0.031c0.012,0.635,0.539,1.143,1.188,1.143
		c0.65,0,1.176-0.509,1.189-1.143c0.334,0.189,0.754,0.213,1.123,0.031C47.709,20.565,47.943,19.866,47.649,19.29z"/>
	<path style="fill-rule:evenodd;clip-rule:evenodd;fill:#662F5A;" d="M38.156,10.888c0.211,0.411,0.58,0.663,1.004,0.71
		c0.818,0.09,1.287-0.654,1.84-1.2c0.719-0.713,2.092-0.856,3.322,1.015l0.018,0.021c0.037-0.039,0.078-0.072,0.117-0.102
		c-0.443-1.658-2.609-3.995-4.951-3.272C38.451,8.386,37.543,9.702,38.156,10.888z M44.654,11.231
		c0.049-0.014,0.102-0.021,0.154-0.021c0.055,0,0.105,0.008,0.156,0.021c0.25-0.813,0.604-1.508,1.131-2.258
		c0.434-0.621,0.328-1.769-0.316-2.359c-0.281-0.262-0.627-0.387-0.971-0.387c-0.344,0-0.688,0.125-0.971,0.387
		c-0.645,0.59-0.75,1.738-0.314,2.359C44.049,9.723,44.404,10.419,44.654,11.231z M45.277,11.434l0.02-0.021
		c1.227-1.871,2.602-1.728,3.322-1.015c0.551,0.546,1.02,1.29,1.84,1.2c0.422-0.047,0.791-0.299,1.002-0.71
		c0.613-1.187-0.295-2.502-1.348-2.827c-2.342-0.724-4.51,1.613-4.953,3.272C45.201,11.362,45.24,11.395,45.277,11.434z
		 M44.809,11.428c-0.373,0-0.676,0.468-0.676,1.043c0,0.576,0.303,1.046,0.676,1.046c0.373,0,0.678-0.47,0.678-1.046
		C45.486,11.896,45.182,11.428,44.809,11.428z"/>
	<path style="fill-rule:evenodd;clip-rule:evenodd;fill:#662F5A;" d="M18.615,42.327c-0.096,0.048-0.182,0.109-0.254,0.178
		l-2.676,2.66h-0.002h0.002h-0.002h0.002h-0.002h0.002l2.676,2.66c0.072,0.068,0.158,0.13,0.254,0.18
		c0.572,0.293,1.273,0.061,1.565-0.527c0.182-0.369,0.156-0.79-0.029-1.125c0.633-0.012,1.142-0.539,1.142-1.188
		c0-0.647-0.51-1.175-1.142-1.188c0.186-0.334,0.211-0.754,0.029-1.124C19.889,42.265,19.188,42.03,18.615,42.327z"/>
	<path style="fill-rule:evenodd;clip-rule:evenodd;fill:#662F5A;" d="M10.211,51.818c0.412-0.209,0.666-0.581,0.711-1.005
		c0.092-0.818-0.654-1.285-1.199-1.84c-0.713-0.718-0.857-2.092,1.014-3.32l0.023-0.018c-0.039-0.039-0.076-0.078-0.104-0.117
		C9,45.96,6.66,48.129,7.385,50.469C7.711,51.524,9.026,52.431,10.211,51.818z M10.557,45.319c-0.014-0.047-0.023-0.1-0.023-0.154
		c0-0.053,0.01-0.103,0.023-0.156c-0.814-0.248-1.51-0.601-2.262-1.131c-0.619-0.432-1.768-0.327-2.357,0.318
		c-0.262,0.281-0.387,0.627-0.387,0.969c0,0.344,0.125,0.69,0.387,0.971c0.59,0.644,1.738,0.75,2.357,0.316
		C9.047,45.924,9.742,45.569,10.557,45.319z M10.76,44.699l-0.023-0.021c-1.871-1.228-1.727-2.602-1.014-3.321
		c0.545-0.554,1.291-1.021,1.199-1.841c-0.045-0.422-0.299-0.791-0.711-1.004c-1.186-0.612-2.5,0.297-2.826,1.35
		C6.66,42.204,9,44.37,10.656,44.815C10.684,44.772,10.721,44.733,10.76,44.699z M10.752,45.165c0,0.374,0.467,0.676,1.045,0.676
		c0.576,0,1.043-0.302,1.043-0.676c0-0.373-0.467-0.677-1.043-0.677C11.219,44.488,10.752,44.792,10.752,45.165z"/>
	<path style="fill-rule:evenodd;clip-rule:evenodd;fill:#662F5A;" d="M41.651,71.36c0.049,0.095,0.109,0.182,0.178,0.256l2.66,2.674
		l0,0h0.002l0,0l0,0l0,0l0,0l2.658-2.674c0.07-0.074,0.131-0.161,0.182-0.256c0.293-0.573,0.059-1.275-0.527-1.564
		c-0.371-0.183-0.793-0.158-1.125,0.028c-0.012-0.633-0.539-1.142-1.188-1.142c-0.648,0-1.176,0.509-1.189,1.142
		c-0.334-0.187-0.754-0.211-1.123-0.028C41.59,70.085,41.356,70.787,41.651,71.36z"/>
	<path style="fill-rule:evenodd;clip-rule:evenodd;fill:#662F5A;" d="M51.141,79.762c-0.209-0.41-0.578-0.664-1.002-0.709
		c-0.818-0.092-1.285,0.652-1.84,1.197c-0.719,0.715-2.092,0.856-3.322-1.012l-0.02-0.023c-0.035,0.039-0.074,0.075-0.115,0.103
		c0.443,1.655,2.609,3.997,4.951,3.273C50.846,82.262,51.754,80.948,51.141,79.762z M44.645,79.419
		c-0.051,0.013-0.102,0.022-0.154,0.022c-0.055,0-0.106-0.01-0.156-0.022c-0.25,0.813-0.604,1.507-1.131,2.262
		c-0.434,0.617-0.33,1.766,0.316,2.355c0.283,0.263,0.627,0.39,0.971,0.387c0.342,0.003,0.688-0.124,0.969-0.387
		c0.645-0.59,0.752-1.738,0.316-2.355C45.248,80.925,44.895,80.231,44.645,79.419z M44.022,79.215l-0.02,0.023
		c-1.227,1.868-2.602,1.727-3.32,1.012c-0.555-0.545-1.021-1.289-1.84-1.197c-0.424,0.045-0.795,0.299-1.006,0.709
		c-0.611,1.186,0.297,2.5,1.35,2.828c2.342,0.725,4.51-1.617,4.953-3.273C44.098,79.291,44.059,79.255,44.022,79.215z M44.49,79.222
		c0.373,0,0.674-0.467,0.674-1.044c0-0.578-0.301-1.044-0.674-1.044c-0.373,0-0.678,0.466-0.678,1.044
		C43.813,78.755,44.117,79.222,44.49,79.222z"/>
	<path style="fill-rule:evenodd;clip-rule:evenodd;fill:#662F5A;" d="M70.684,48.325c0.094-0.051,0.18-0.109,0.256-0.18l2.674-2.658
		h0.002l-0.002-0.002h0.002l-0.002-0.001h0.002h-0.002l-2.674-2.657c-0.076-0.072-0.162-0.13-0.256-0.182
		c-0.574-0.294-1.275-0.058-1.564,0.529c-0.182,0.367-0.158,0.789,0.029,1.123c-0.633,0.011-1.145,0.539-1.145,1.188
		c0,0.649,0.512,1.175,1.145,1.188c-0.188,0.336-0.211,0.755-0.029,1.125C69.408,48.383,70.109,48.62,70.684,48.325z"/>
	<path style="fill-rule:evenodd;clip-rule:evenodd;fill:#662F5A;" d="M79.086,38.833c-0.41,0.211-0.664,0.581-0.709,1.002
		c-0.094,0.821,0.654,1.287,1.199,1.841c0.713,0.72,0.855,2.091-1.014,3.321l-0.023,0.021c0.041,0.033,0.074,0.074,0.102,0.115
		c1.658-0.443,3.998-2.611,3.271-4.952C81.586,39.128,80.272,38.22,79.086,38.833z M78.742,45.33
		c0.016,0.052,0.023,0.103,0.023,0.154c0,0.055-0.008,0.106-0.023,0.157c0.814,0.248,1.508,0.604,2.26,1.131
		c0.619,0.432,1.768,0.328,2.357-0.316c0.262-0.283,0.389-0.627,0.387-0.972c0.002-0.343-0.125-0.688-0.387-0.97
		c-0.59-0.645-1.738-0.751-2.357-0.315C80.25,44.726,79.557,45.081,78.742,45.33z M78.539,45.954l0.023,0.018
		c1.869,1.228,1.727,2.603,1.014,3.322c-0.545,0.553-1.293,1.02-1.199,1.841c0.045,0.421,0.299,0.792,0.709,1.004
		c1.186,0.612,2.5-0.296,2.826-1.349c0.727-2.343-1.613-4.511-3.271-4.955C78.613,45.878,78.58,45.916,78.539,45.954z
		 M78.545,45.484c0-0.374-0.467-0.676-1.043-0.676c-0.576,0-1.045,0.302-1.045,0.676c0,0.373,0.469,0.679,1.045,0.679
		C78.078,46.163,78.545,45.857,78.545,45.484z"/>
	<g>
		<path style="fill:#662F5A;" d="M69.121,20.141c0,0,2.629-4.19-0.213-7.031c-2.521-2.519-4.119-0.285-4.119-0.285
			s-1.457,1.387-0.035,2.808c1.1,1.101,1.881,0.179,1.881,0.179s0.463-0.463-0.035-0.961c-0.496-0.496-0.994,0.355-0.994,0.355
			s-0.178-0.461,0.355-0.994c0.533-0.533,0.959,0.106,1.137,0.283c0.178,0.178,0.816,0.887-0.213,1.919
			c-1.031,1.028-2.344,0.141-2.701-0.214c-0.354-0.356-1.916-1.846,0.215-3.979c2.131-2.13,4.295-0.176,4.971,0.498
			C70.045,13.393,72.496,16.554,69.121,20.141z"/>
		<path style="fill:#662F5A;" d="M67.311,22.095c0,0-0.568-0.356-0.105-1.103c0.461-0.744,0.461-1.668,0.461-1.668
			s0.992,1.35,0.531,2.095C67.736,22.166,67.559,22.131,67.311,22.095z"/>
		<path style="fill:#662F5A;" d="M63.121,26.57l7.314-7.316c0,0,2.025-2.309,2.096-2.876c0.07-0.566,1.371-0.262,1.371-0.262
			s0.307,1.301-0.262,1.371c-0.568,0.072-2.877,2.096-2.877,2.096l-7.316,7.316L63.121,26.57z"/>
		<path style="fill:#662F5A;" d="M69.877,20.897c0,0,4.189-2.629,7.029,0.213c2.523,2.522,0.285,4.12,0.285,4.12
			s-1.385,1.454-2.807,0.034c-1.1-1.101-0.176-1.883-0.176-1.883s0.461-0.463,0.959,0.035c0.496,0.496-0.355,0.996-0.355,0.996
			s0.461,0.176,0.994-0.356c0.533-0.533-0.105-0.96-0.285-1.139c-0.176-0.176-0.887-0.814-1.918,0.215
			c-1.029,1.03-0.141,2.343,0.215,2.699c0.353,0.354,1.846,1.918,3.977-0.212c2.131-2.132,0.178-4.298-0.498-4.974
			C76.623,19.973,73.463,17.522,69.877,20.897z"/>
		<path style="fill:#662F5A;" d="M67.922,22.707c0,0,0.356,0.569,1.104,0.107c0.744-0.461,1.666-0.461,1.666-0.461
			s-1.348-0.994-2.094-0.533C67.852,22.282,67.887,22.459,67.922,22.707z"/>
	</g>
	<path style="fill-rule:evenodd;clip-rule:evenodd;fill:#662F5A;" d="M88.988,1.027c0.014,0.209,0.064,0.473,0.082,0.684
		c0.063,0.753-0.037,1.538-0.586,2.067c-0.295,0.286-0.654,0.457-1.037,0.584c-1.521,0.5-1.938,0.662-2.77,1.512
		c-0.09,0.08-0.137,0.127-0.137,0.127l0.324,0.325c0.051-0.037,0.102-0.075,0.148-0.112c0.551-0.415,1.113-0.807,1.805-0.989
		c0.52-0.139,1.057-0.169,1.566,0.013c0.789,0.283,1.371,0.955,1.557,1.775c0.25,1.088-0.357,1.785-0.654,2.035
		c-0.297,0.252-0.652,0.379-1.025,0.412c-0.477,0.039-0.979-0.076-1.418-0.301c-0.014-0.004,0.072-0.053,0.094-0.07
		c0.197-0.123,0.348-0.273,0.508-0.448c0.291-0.321,0.479-0.724,0.408-1.171c-0.09-0.567-0.564-0.941-1.127-0.992
		c-0.41-0.041-0.824,0.072-1.152,0.293c-0.061,0.039-0.119,0.08-0.174,0.125c0,0,0.283,0.272,0.383,0.379
		c0.047,0.053,0.1,0.106,0.111,0.18c0.01,0.031,0.004,0.096-0.037,0.138c-0.262,0.261-0.438,0.439-0.693,0.692
		c-0.041,0.041-0.104,0.119-0.166,0.127C84.957,8.415,84.92,8.4,84.889,8.376c-0.184-0.154-0.516-0.495-0.516-0.495
		S84.1,8.194,84.063,8.496c-0.021,0.149-0.012,0.291,0.035,0.425c0.135,0.404,0.582,0.721,1.023,0.59
		c0.285-0.082,0.535-0.23,0.707-0.486c0.012-0.016,0.029-0.011,0.031,0.004c0.113,0.558,0.047,1.092-0.264,1.555
		c-0.117,0.174-0.254,0.299-0.4,0.389c-0.479,0.294-1.049,0.199-1.256,0.14c-0.441-0.134-0.832-0.579-0.967-1.028
		c-0.072-0.256-0.129-0.719,0.047-1.287c0.141-0.449,0.396-0.951,0.832-1.437l-0.334-0.334c-0.4,0.368-0.74,0.815-0.947,1.322
		c-0.014,0.033-0.027,0.067-0.039,0.1c-0.227,0.607-0.369,1.272-0.961,1.656c-0.543,0.353-1.168,0.223-1.74,0.084
		c-0.137-0.571-0.27-1.197,0.084-1.74c0.385-0.593,1.049-0.735,1.656-0.961c0.033-0.012,0.068-0.023,0.101-0.038
		c0.504-0.209,0.951-0.548,1.322-0.947l-0.332-0.333c-0.49,0.434-0.992,0.689-1.443,0.828c-0.566,0.178-1.031,0.121-1.285,0.048
		c-0.449-0.134-0.895-0.521-1.027-0.966c-0.061-0.207-0.154-0.775,0.139-1.256c0.09-0.147,0.217-0.282,0.389-0.4
		c0.463-0.311,0.998-0.377,1.557-0.264c0.016,0.004,0.018,0.019,0.004,0.031c-0.258,0.172-0.404,0.421-0.488,0.705
		c-0.131,0.443,0.184,0.892,0.592,1.027c0.131,0.045,0.273,0.055,0.424,0.035c0.301-0.037,0.613-0.315,0.613-0.315
		s-0.34-0.327-0.492-0.511c-0.025-0.031-0.041-0.068-0.037-0.109c0.01-0.063,0.086-0.127,0.127-0.168
		c0.254-0.254,0.432-0.432,0.695-0.693c0.039-0.042,0.105-0.043,0.137-0.037c0.074,0.015,0.125,0.063,0.178,0.113
		c0.107,0.098,0.379,0.381,0.379,0.381c0.045-0.055,0.086-0.113,0.125-0.172c0.223-0.328,0.334-0.743,0.295-1.154
		c-0.053-0.564-0.428-1.037-0.994-1.128c-0.449-0.068-0.85,0.119-1.172,0.412c-0.174,0.157-0.322,0.312-0.447,0.505
		c-0.016,0.021-0.064,0.109-0.07,0.094c-0.225-0.44-0.342-0.942-0.301-1.418c0.031-0.374,0.162-0.727,0.412-1.023
		c0.25-0.296,0.947-0.907,2.035-0.656c0.818,0.188,1.492,0.768,1.773,1.558c0.184,0.509,0.154,1.047,0.016,1.568
		c-0.182,0.691-0.574,1.253-0.988,1.802c-0.037,0.048-0.076,0.097-0.115,0.149l0.326,0.325c0,0,0.047-0.048,0.127-0.137
		c0.852-0.833,1.014-1.248,1.514-2.77c0.125-0.383,0.295-0.743,0.582-1.036c0.531-0.55,1.316-0.651,2.066-0.589
		C88.516,0.964,88.779,1.013,88.988,1.027z"/>
	<path style="fill:#662F5A;" d="M57.83,27.833c-3.734,3.734-7.086,11.201-7.086,11.201s7.467-3.35,11.201-7.084
		c3.736-3.734,2.322-6.44,2.322-6.44S61.565,24.098,57.83,27.833z"/>
	<g>
		<path style="fill:#662F5A;" d="M20.027,20.763c0,0-4.191-2.627-7.031,0.214c-2.521,2.521-0.283,4.119-0.283,4.119
			s1.385,1.456,2.805,0.035c1.1-1.1,0.176-1.881,0.176-1.881s-0.461-0.461-0.957,0.035c-0.498,0.498,0.354,0.994,0.354,0.994
			s-0.461,0.178-0.992-0.354c-0.533-0.532,0.105-0.96,0.283-1.136c0.178-0.179,0.887-0.818,1.918,0.213
			c1.029,1.029,0.141,2.344-0.215,2.699c-0.354,0.354-1.846,1.917-3.977-0.215c-2.131-2.129-0.178-4.295,0.498-4.971
			C13.279,19.841,16.44,17.39,20.027,20.763z"/>
		<path style="fill:#662F5A;" d="M21.981,22.575c0,0-0.355,0.569-1.1,0.107c-0.748-0.462-1.67-0.462-1.67-0.462
			s1.35-0.994,2.094-0.532C22.051,22.148,22.016,22.327,21.981,22.575z"/>
		<path style="fill:#662F5A;" d="M26.455,26.766l-7.316-7.315c0,0-2.309-2.026-2.875-2.095C15.693,17.284,16,15.983,16,15.983
			s1.301-0.306,1.371,0.264c0.072,0.568,2.096,2.875,2.096,2.875l7.316,7.316L26.455,26.766z"/>
		<path style="fill:#662F5A;" d="M20.783,20.009c0,0-2.629-4.19,0.211-7.03c2.521-2.524,4.119-0.284,4.119-0.284
			s1.457,1.385,0.035,2.806c-1.1,1.1-1.881,0.177-1.881,0.177s-0.461-0.462,0.033-0.959c0.5-0.497,0.996,0.356,0.996,0.356
			s0.178-0.462-0.354-0.994c-0.533-0.533-0.961,0.106-1.137,0.284c-0.178,0.177-0.818,0.889,0.213,1.916
			c1.029,1.031,2.342,0.145,2.699-0.212c0.354-0.355,1.918-1.847-0.215-3.976c-2.131-2.132-4.297-0.179-4.973,0.497
			C19.859,13.264,17.408,16.424,20.783,20.009z"/>
		<path style="fill:#662F5A;" d="M22.592,21.964c0,0,0.57-0.358,0.107-1.101c-0.461-0.747-0.461-1.669-0.461-1.669
			s-0.994,1.349-0.533,2.094C22.168,22.036,22.344,21.997,22.592,21.964z"/>
	</g>
	<path style="fill-rule:evenodd;clip-rule:evenodd;fill:#662F5A;" d="M1.012,1.012C1.221,0.998,1.485,0.947,1.696,0.93
		c0.752-0.062,1.537,0.038,2.066,0.589C4.049,1.814,4.221,2.17,4.348,2.553c0.5,1.522,0.66,1.938,1.512,2.772
		c0.08,0.088,0.127,0.137,0.127,0.137l0.324-0.326c-0.037-0.049-0.076-0.102-0.115-0.15C5.783,4.436,5.393,3.873,5.209,3.183
		c-0.139-0.521-0.17-1.057,0.012-1.564c0.283-0.792,0.959-1.371,1.775-1.56c1.088-0.25,1.787,0.36,2.037,0.655
		c0.252,0.296,0.379,0.653,0.41,1.024c0.041,0.477-0.076,0.981-0.299,1.419C9.139,3.17,9.09,3.085,9.074,3.063
		C8.951,2.867,8.801,2.716,8.627,2.558c-0.322-0.293-0.725-0.48-1.172-0.41c-0.568,0.09-0.943,0.563-0.994,1.126
		C6.42,3.684,6.533,4.098,6.754,4.428C6.795,4.488,6.836,4.545,6.881,4.6c0,0,0.27-0.282,0.379-0.379
		C7.313,4.168,7.365,4.12,7.44,4.106C7.469,4.097,7.533,4.1,7.574,4.141c0.262,0.264,0.439,0.442,0.693,0.696
		C8.311,4.878,8.389,4.94,8.395,5.002c0.006,0.042-0.01,0.08-0.033,0.112C8.207,5.297,7.865,5.627,7.865,5.627
		s0.316,0.274,0.615,0.312c0.148,0.02,0.291,0.013,0.424-0.036c0.406-0.133,0.721-0.58,0.592-1.024
		c-0.084-0.284-0.23-0.535-0.49-0.706C8.992,4.162,8.998,4.145,9.012,4.141c0.557-0.113,1.094-0.046,1.555,0.264
		c0.176,0.117,0.299,0.254,0.389,0.401c0.295,0.477,0.201,1.046,0.139,1.255c-0.129,0.442-0.576,0.833-1.025,0.967
		C9.813,7.1,9.348,7.158,8.781,6.979C8.332,6.84,7.83,6.585,7.342,6.148L7.008,6.483c0.369,0.4,0.816,0.74,1.324,0.947
		c0.031,0.014,0.066,0.025,0.1,0.039c0.605,0.227,1.271,0.371,1.654,0.96c0.356,0.545,0.223,1.169,0.084,1.741
		c-0.57,0.137-1.195,0.269-1.738-0.084C7.838,9.703,7.696,9.039,7.469,8.429C7.457,8.399,7.446,8.363,7.43,8.33
		C7.223,7.825,6.883,7.377,6.485,7.006L6.153,7.339C6.586,7.83,6.84,8.333,6.981,8.783c0.178,0.565,0.121,1.029,0.047,1.285
		c-0.133,0.448-0.521,0.894-0.967,1.026c-0.205,0.061-0.775,0.156-1.254-0.139c-0.148-0.09-0.283-0.216-0.4-0.389
		c-0.311-0.462-0.379-0.998-0.266-1.555c0.006-0.017,0.021-0.019,0.031-0.006c0.174,0.259,0.424,0.405,0.709,0.488
		C5.323,9.625,5.77,9.31,5.905,8.905c0.047-0.133,0.055-0.273,0.037-0.424C5.903,8.179,5.627,7.866,5.627,7.866
		s-0.328,0.34-0.512,0.495C5.082,8.385,5.045,8.4,5.006,8.395C4.942,8.387,4.879,8.309,4.838,8.268
		C4.584,8.014,4.406,7.836,4.143,7.575C4.102,7.533,4.1,7.469,4.108,7.438C4.121,7.364,4.17,7.312,4.219,7.259
		c0.1-0.108,0.383-0.38,0.383-0.38C4.545,6.836,4.489,6.794,4.43,6.752C4.1,6.532,3.684,6.42,3.274,6.459
		C2.711,6.513,2.237,6.887,2.147,7.455c-0.07,0.447,0.119,0.848,0.41,1.169c0.158,0.175,0.311,0.324,0.506,0.449
		c0.023,0.015,0.109,0.063,0.096,0.07c-0.441,0.224-0.945,0.341-1.42,0.3C1.367,9.412,1.012,9.283,0.715,9.032
		C0.418,8.783-0.191,8.084,0.059,6.996c0.189-0.819,0.77-1.49,1.559-1.775c0.508-0.182,1.047-0.152,1.568-0.014
		C3.875,5.392,4.438,5.78,4.987,6.196c0.049,0.039,0.1,0.078,0.148,0.115l0.326-0.326c0,0-0.049-0.046-0.137-0.126
		C4.49,5.008,4.076,4.845,2.555,4.346C2.172,4.221,1.813,4.049,1.518,3.762C0.969,3.231,0.867,2.447,0.93,1.697
		C0.949,1.485,0.998,1.221,1.012,1.012z"/>
	<path style="fill:#662F5A;" d="M27.719,32.056c3.734,3.733,11.201,7.086,11.201,7.086s-3.352-7.467-7.084-11.202
		c-3.736-3.734-6.439-2.322-6.439-2.322S23.984,28.321,27.719,32.056z"/>
	<g>
		<path style="fill:#662F5A;" d="M20.651,69.86c0,0-2.629,4.189,0.213,7.031c2.521,2.52,4.117,0.285,4.117,0.285
			s1.457-1.387,0.037-2.808c-1.101-1.1-1.883-0.178-1.883-0.178s-0.461,0.463,0.037,0.96c0.496,0.497,0.994-0.354,0.994-0.354
			s0.178,0.461-0.355,0.994c-0.533,0.533-0.959-0.106-1.137-0.283c-0.178-0.178-0.816-0.888,0.213-1.919
			c1.029-1.029,2.344-0.142,2.699,0.214c0.355,0.354,1.918,1.846-0.213,3.978c-2.131,2.13-4.297,0.177-4.971-0.497
			C19.727,76.607,17.276,73.446,20.651,69.86z"/>
		<path style="fill:#662F5A;" d="M22.461,67.905c0,0,0.568,0.355,0.105,1.104c-0.461,0.743-0.461,1.666-0.461,1.666
			s-0.994-1.348-0.533-2.094C22.035,67.836,22.211,67.87,22.461,67.905z"/>
		<path style="fill:#662F5A;" d="M26.651,63.43l-7.314,7.316c0,0-2.025,2.309-2.096,2.876c-0.07,0.567-1.371,0.263-1.371,0.263
			s-0.307-1.301,0.262-1.371c0.568-0.072,2.875-2.096,2.875-2.096l7.316-7.316L26.651,63.43z"/>
		<path style="fill:#662F5A;" d="M19.895,69.104c0,0-4.189,2.629-7.029-0.213c-2.523-2.521-0.285-4.12-0.285-4.12
			s1.385-1.455,2.805-0.034c1.102,1.1,0.178,1.881,0.178,1.881s-0.461,0.463-0.959-0.033c-0.496-0.499,0.356-0.996,0.356-0.996
			s-0.461-0.177-0.994,0.355c-0.533,0.532,0.105,0.959,0.285,1.137c0.176,0.178,0.887,0.816,1.916-0.213
			c1.031-1.031,0.141-2.344-0.213-2.699c-0.355-0.355-1.846-1.918-3.977,0.212c-2.133,2.132-0.178,4.298,0.498,4.974
			C13.147,70.028,16.307,72.478,19.895,69.104z"/>
		<path style="fill:#662F5A;" d="M21.848,67.294c0,0-0.354-0.568-1.101-0.105c-0.744,0.461-1.668,0.461-1.668,0.461
			s1.35,0.994,2.096,0.532C21.92,67.718,21.885,67.543,21.848,67.294z"/>
	</g>
	<path style="fill-rule:evenodd;clip-rule:evenodd;fill:#662F5A;" d="M1.012,88.991c-0.014-0.209-0.063-0.474-0.082-0.685
		c-0.063-0.752,0.039-1.537,0.588-2.068c0.295-0.284,0.654-0.456,1.035-0.583c1.521-0.5,1.938-0.661,2.771-1.511
		c0.09-0.081,0.135-0.129,0.135-0.129l-0.322-0.324c-0.051,0.037-0.102,0.076-0.152,0.115c-0.547,0.412-1.109,0.804-1.801,0.986
		c-0.521,0.139-1.057,0.17-1.566-0.012c-0.789-0.284-1.369-0.956-1.559-1.775c-0.25-1.088,0.359-1.785,0.658-2.036
		c0.293-0.251,0.65-0.378,1.021-0.411c0.477-0.039,0.98,0.075,1.42,0.3c0.014,0.005-0.072,0.054-0.094,0.071
		c-0.197,0.123-0.348,0.273-0.508,0.448c-0.291,0.32-0.479,0.724-0.408,1.171c0.09,0.566,0.564,0.941,1.127,0.992
		c0.408,0.041,0.824-0.072,1.152-0.293c0.061-0.039,0.119-0.081,0.174-0.125c0,0-0.283-0.271-0.383-0.379
		c-0.047-0.053-0.1-0.106-0.113-0.18c-0.008-0.031-0.004-0.097,0.039-0.138c0.262-0.261,0.438-0.438,0.693-0.692
		c0.041-0.041,0.104-0.12,0.166-0.127c0.041-0.006,0.078,0.011,0.109,0.035c0.184,0.154,0.514,0.495,0.514,0.495
		s0.275-0.313,0.313-0.616c0.021-0.148,0.012-0.291-0.035-0.425c-0.135-0.403-0.582-0.72-1.025-0.589
		c-0.285,0.082-0.533,0.229-0.707,0.486c-0.01,0.016-0.027,0.01-0.029-0.004c-0.113-0.559-0.047-1.094,0.264-1.557
		c0.117-0.172,0.254-0.297,0.398-0.387c0.48-0.295,1.049-0.2,1.256-0.141c0.445,0.134,0.834,0.58,0.967,1.029
		c0.074,0.254,0.131,0.719-0.045,1.287c-0.141,0.448-0.396,0.95-0.834,1.438l0.334,0.334c0.402-0.369,0.74-0.816,0.949-1.323
		c0.014-0.032,0.025-0.067,0.039-0.1c0.227-0.606,0.367-1.271,0.961-1.655c0.543-0.355,1.168-0.223,1.74-0.084
		c0.137,0.57,0.268,1.196-0.084,1.739c-0.385,0.593-1.049,0.735-1.656,0.962c-0.035,0.012-0.068,0.023-0.102,0.037
		c-0.506,0.209-0.953,0.549-1.322,0.947L7.34,83.85c0.49-0.433,0.992-0.688,1.441-0.827c0.566-0.178,1.031-0.122,1.289-0.048
		c0.447,0.134,0.893,0.521,1.025,0.966c0.059,0.205,0.154,0.775-0.141,1.256c-0.088,0.146-0.215,0.283-0.389,0.4
		c-0.461,0.309-0.996,0.377-1.553,0.264c-0.018-0.005-0.02-0.021-0.006-0.031c0.258-0.173,0.404-0.421,0.488-0.705
		c0.131-0.444-0.186-0.892-0.592-1.027c-0.131-0.046-0.273-0.055-0.424-0.036c-0.301,0.038-0.615,0.315-0.615,0.315
		s0.34,0.328,0.494,0.511c0.025,0.031,0.041,0.069,0.037,0.11c-0.01,0.063-0.086,0.127-0.127,0.168
		c-0.254,0.253-0.432,0.432-0.695,0.693c-0.041,0.041-0.105,0.043-0.137,0.036c-0.074-0.014-0.125-0.063-0.178-0.113
		c-0.109-0.098-0.379-0.38-0.379-0.38c-0.045,0.055-0.086,0.113-0.127,0.171c-0.221,0.329-0.332,0.743-0.293,1.155
		c0.053,0.564,0.428,1.037,0.994,1.127c0.449,0.069,0.85-0.115,1.172-0.41c0.174-0.158,0.322-0.311,0.447-0.506
		c0.016-0.022,0.063-0.109,0.07-0.094c0.225,0.438,0.342,0.943,0.301,1.418c-0.031,0.374-0.162,0.728-0.412,1.023
		c-0.252,0.297-0.947,0.907-2.035,0.656c-0.818-0.188-1.492-0.768-1.775-1.559c-0.184-0.508-0.154-1.047-0.016-1.566
		c0.184-0.691,0.574-1.254,0.99-1.801c0.039-0.049,0.076-0.099,0.113-0.15l-0.324-0.325c0,0-0.047,0.048-0.127,0.137
		c-0.852,0.833-1.014,1.247-1.514,2.77c-0.125,0.382-0.297,0.742-0.582,1.035c-0.531,0.548-1.316,0.651-2.066,0.59
		C1.485,89.054,1.221,89.004,1.012,88.991z"/>
	<path style="fill:#662F5A;" d="M31.942,62.168c3.734-3.733,7.084-11.201,7.084-11.201s-7.465,3.351-11.199,7.085
		c-3.736,3.734-2.322,6.438-2.322,6.438S28.207,65.902,31.942,62.168z"/>
	<g>
		<path style="fill:#662F5A;" d="M69.744,69.237c0,0,4.191,2.628,7.031-0.214c2.519-2.521,0.283-4.118,0.283-4.118
			s-1.385-1.457-2.805-0.037c-1.102,1.101-0.178,1.883-0.178,1.883s0.463,0.461,0.959-0.036c0.496-0.497-0.355-0.994-0.355-0.994
			s0.461-0.179,0.994,0.356c0.533,0.532-0.105,0.959-0.283,1.136c-0.178,0.178-0.887,0.817-1.92-0.213
			c-1.027-1.029-0.139-2.344,0.217-2.699c0.354-0.354,1.844-1.918,3.977,0.215c2.131,2.128,0.176,4.295-0.5,4.97
			C76.492,70.16,73.332,72.61,69.744,69.237z"/>
		<path style="fill:#662F5A;" d="M67.791,67.425c0,0,0.354-0.569,1.1-0.107c0.748,0.463,1.67,0.463,1.67,0.463
			s-1.35,0.994-2.096,0.531C67.721,67.852,67.756,67.674,67.791,67.425z"/>
		<path style="fill:#662F5A;" d="M63.317,63.235l7.316,7.315c0,0,2.309,2.025,2.875,2.095c0.568,0.071,0.264,1.372,0.264,1.372
			s-1.303,0.307-1.373-0.263c-0.07-0.568-2.096-2.875-2.096-2.875l-7.314-7.316L63.317,63.235z"/>
		<path style="fill:#662F5A;" d="M68.988,69.991c0,0,2.629,4.19-0.213,7.031c-2.52,2.521-4.117,0.284-4.117,0.284
			s-1.457-1.385-0.037-2.806c1.102-1.1,1.883-0.177,1.883-0.177s0.461,0.462-0.035,0.958c-0.498,0.498-0.994-0.354-0.994-0.354
			s-0.18,0.46,0.354,0.994c0.533,0.532,0.961-0.106,1.137-0.284c0.178-0.178,0.816-0.889-0.213-1.916
			c-1.029-1.032-2.344-0.145-2.699,0.212c-0.354,0.354-1.918,1.847,0.215,3.976c2.129,2.133,4.297,0.179,4.971-0.496
			C69.912,76.737,72.363,73.577,68.988,69.991z"/>
		<path style="fill:#662F5A;" d="M67.18,68.038c0,0-0.57,0.356-0.107,1.101c0.461,0.747,0.461,1.669,0.461,1.669
			s0.994-1.349,0.533-2.095C67.604,67.965,67.428,68.004,67.18,68.038z"/>
	</g>
	<path style="fill-rule:evenodd;clip-rule:evenodd;fill:#662F5A;" d="M88.988,88.988c-0.209,0.014-0.475,0.063-0.683,0.082
		c-0.754,0.062-1.539-0.038-2.068-0.59c-0.285-0.295-0.457-0.651-0.584-1.033c-0.5-1.521-0.662-1.938-1.512-2.771
		c-0.08-0.088-0.129-0.135-0.129-0.135l-0.322,0.324c0.037,0.049,0.076,0.099,0.113,0.15c0.416,0.549,0.805,1.11,0.988,1.801
		c0.141,0.521,0.168,1.058-0.014,1.564c-0.281,0.793-0.957,1.372-1.773,1.561c-1.09,0.25-1.787-0.36-2.037-0.655
		c-0.252-0.296-0.379-0.653-0.41-1.024c-0.041-0.477,0.076-0.98,0.299-1.419c0.006-0.015,0.053,0.071,0.07,0.094
		c0.123,0.197,0.274,0.349,0.447,0.505c0.322,0.296,0.723,0.48,1.172,0.41c0.566-0.089,0.941-0.563,0.992-1.126
		c0.043-0.409-0.072-0.823-0.293-1.155c-0.039-0.058-0.08-0.115-0.125-0.17c0,0-0.27,0.281-0.379,0.379
		c-0.055,0.052-0.105,0.1-0.18,0.113c-0.031,0.011-0.096,0.008-0.135-0.034c-0.266-0.264-0.441-0.442-0.695-0.696
		c-0.041-0.04-0.119-0.102-0.127-0.166c-0.004-0.041,0.012-0.076,0.035-0.109c0.154-0.184,0.496-0.514,0.496-0.514
		S81.82,84.1,81.519,84.06c-0.15-0.021-0.291-0.012-0.424,0.037c-0.406,0.133-0.723,0.58-0.592,1.024
		c0.084,0.284,0.23,0.534,0.488,0.706c0.014,0.01,0.01,0.027-0.004,0.03c-0.558,0.113-1.094,0.047-1.555-0.264
		c-0.176-0.116-0.301-0.254-0.389-0.399c-0.295-0.48-0.201-1.047-0.139-1.256c0.129-0.442,0.576-0.833,1.025-0.967
		c0.256-0.074,0.721-0.13,1.287,0.049c0.449,0.137,0.951,0.394,1.438,0.83l0.334-0.334c-0.367-0.401-0.814-0.74-1.322-0.948
		c-0.033-0.013-0.066-0.025-0.1-0.038c-0.605-0.227-1.271-0.371-1.654-0.961c-0.354-0.545-0.225-1.168-0.086-1.74
		c0.572-0.138,1.197-0.27,1.74,0.084c0.592,0.383,0.736,1.047,0.961,1.656c0.012,0.031,0.023,0.067,0.041,0.1
		c0.207,0.506,0.545,0.953,0.945,1.324l0.332-0.333c-0.434-0.491-0.689-0.994-0.83-1.443c-0.176-0.565-0.119-1.03-0.045-1.286
		c0.133-0.447,0.52-0.895,0.965-1.026c0.209-0.06,0.777-0.155,1.256,0.14c0.146,0.089,0.283,0.216,0.4,0.389
		c0.311,0.461,0.377,0.998,0.266,1.555c-0.006,0.018-0.021,0.02-0.031,0.005c-0.174-0.259-0.424-0.404-0.709-0.489
		c-0.441-0.129-0.889,0.186-1.025,0.592c-0.045,0.133-0.055,0.273-0.035,0.424c0.039,0.302,0.314,0.615,0.314,0.615
		s0.328-0.34,0.512-0.495c0.033-0.024,0.07-0.04,0.109-0.034c0.064,0.008,0.127,0.086,0.168,0.126
		c0.254,0.254,0.432,0.433,0.695,0.694c0.041,0.041,0.041,0.105,0.035,0.137c-0.014,0.074-0.063,0.126-0.111,0.179
		c-0.1,0.108-0.383,0.378-0.383,0.378c0.055,0.045,0.113,0.087,0.172,0.127c0.328,0.223,0.744,0.333,1.154,0.295
		c0.564-0.055,1.037-0.428,1.129-0.997c0.07-0.447-0.119-0.849-0.41-1.169c-0.16-0.174-0.313-0.324-0.508-0.449
		c-0.021-0.015-0.109-0.063-0.094-0.069c0.441-0.226,0.943-0.341,1.42-0.301c0.371,0.032,0.726,0.161,1.023,0.411
		c0.295,0.251,0.906,0.948,0.656,2.037c-0.188,0.818-0.771,1.49-1.559,1.775c-0.51,0.182-1.047,0.152-1.568,0.014
		c-0.691-0.186-1.252-0.573-1.801-0.988c-0.049-0.04-0.1-0.078-0.15-0.115l-0.324,0.324c0,0,0.047,0.047,0.137,0.127
		c0.832,0.853,1.248,1.014,2.77,1.512c0.383,0.127,0.742,0.299,1.037,0.584c0.549,0.533,0.648,1.317,0.588,2.066
		C89.051,88.515,89.002,88.779,88.988,88.988z"/>
	<path style="fill:#662F5A;" d="M62.053,57.945c-3.734-3.734-11.201-7.087-11.201-7.087s3.35,7.467,7.086,11.201
		c3.732,3.736,6.437,2.324,6.437,2.324S65.787,61.68,62.053,57.945z"/>
</g>
<rect x="40.734" y="41.631" transform="matrix(0.7071 -0.7071 0.7071 0.7071 -18.9828 44.5588)" style="opacity:0.2;fill:#662F5A;" width="7.126" height="7.126"/>
</svg>
