<?xml version="1.0" encoding="utf-8"?>
<!-- Generator: Adobe Illustrator 18.0.0, SVG Export Plug-In . SVG Version: 6.00 Build 0)  -->
<!DOCTYPE svg PUBLIC "-//W3C//DTD SVG 1.1//EN" "http://www.w3.org/Graphics/SVG/1.1/DTD/svg11.dtd">
<svg version="1.1" id="Layer_1" xmlns="http://www.w3.org/2000/svg" xmlns:xlink="http://www.w3.org/1999/xlink" x="0px" y="0px"
	 viewBox="0 0 128 128" enable-background="new 0 0 128 128" xml:space="preserve">
<path fill="#3E3E42" d="M77,87c0,7.7-6.3,14-14,14H34c-7.7,0-14-6.3-14-14V58c0-7.7,6.3-14,14-14h29c7.7,0,14,6.3,14,14V87z"/>
<path fill="#323235" d="M36.9,66.4c-0.3,0.1-0.6,0.1-1.1,0.2c0-1,0.3-1.9,0.8-2.7c0.5-0.7,1.4-1.3,2.6-1.5c0.1,0.5,0,1.3-0.2,1.9
	c-0.2,0.5-0.5,1-1,1.4C37.6,66,37.3,66.3,36.9,66.4z M41.5,75.2c-0.5-0.7-0.7-1.5-0.7-2.3c0-0.8,0.2-1.5,0.7-2.2
	c0.2-0.4,0.6-0.8,1.2-1.2c-0.4-0.4-0.7-0.8-1.1-1c-0.7-0.5-1.4-0.7-2.2-0.7c-0.5,0-1.1,0.1-1.8,0.4c-0.7,0.2-1.2,0.4-1.5,0.4
	c-0.2,0-0.7-0.1-1.4-0.3c-0.7-0.2-1.3-0.3-1.8-0.3c-1.2,0-2.2,0.5-3,1.5c-0.8,1-1.2,2.3-1.2,3.9c0,1.7,0.5,3.4,1.5,5.2
	c1,1.8,2.1,2.7,3.1,2.7c0.4,0,0.8-0.1,1.4-0.4c0.6-0.2,1.1-0.3,1.5-0.3c0.4,0,1,0.1,1.6,0.3c0.6,0.2,1.1,0.3,1.5,0.3
	c0.9,0,1.8-0.7,2.7-2c0.6-0.9,1-1.7,1.3-2.6C42.6,76.4,42,75.9,41.5,75.2z"/>
<path fill="#323235" d="M52.1,79.2c0.7,0,1.9-0.1,1.9-0.3v2.2c0,0.1-0.5,0.3-1,0.3c-0.5,0.1-1.2,0.1-1.7,0.1c-2.7,0-4.3-1.4-4.3-4.3
	V70h-1v-1.4l1.8-0.9l0.8-2.7H50v3h4v2h-4v7.2c0,0.7,0.3,1.2,0.6,1.5C51,79.1,51.5,79.2,52.1,79.2z"/>
<path fill="#323235" d="M60.2,82l-5.1-14h3l2.7,7.8c0.5,1.3,0.8,3.2,0.9,3.2h0.1c0.1,0,0.4-1.6,0.9-3.2l2.7-7.8h3.1l-5.2,14H60.2z"
	/>
<path fill="#3E3E42" d="M108,31c0-2.2-1.8-4-4-4H88c-2.2,0-4,1.8-4,4v67c0,2.2,1.8,4,4,4h16c2.2,0,4-1.8,4-4V31z"/>
<ellipse fill="#323235" cx="91.1" cy="61.5" rx="3.7" ry="3.7"/>
<ellipse fill="#323235" cx="91.1" cy="70.8" rx="3.7" ry="3.7"/>
<ellipse fill="#323235" cx="91.1" cy="52.2" rx="3.7" ry="3.7"/>
<ellipse fill="#323235" cx="100.3" cy="52.2" rx="3.7" ry="3.7"/>
<path fill="#323235" d="M100.5,57.8c-2,0-3.5,1.7-3.5,3.7v9.3c0,2,1.5,3.7,3.5,3.7s3.5-1.7,3.5-3.7v-9.3
	C104,59.5,102.5,57.8,100.5,57.8z"/>
</svg>
