<svg xmlns="http://www.w3.org/2000/svg" viewBox="0 0 64 64" aria-labelledby="title" aria-describedby="desc"><path data-name="layer1" d="M21.946 28.971a9.974 9.974 0 0 1 1.686-2.933 8.592 8.592 0 0 1 6.18-3.122 11.347 11.347 0 0 1 8.8 3.311 22.173 22.173 0 0 1 2.809 3.122c.187.189.281.284.468 0a24.351 24.351 0 0 1 3.746-3.879 10.162 10.162 0 0 1 5.525-2.46 9.262 9.262 0 0 1 10.582 7.663 12.607 12.607 0 0 1-.468 6.717 9.085 9.085 0 0 1-8.99 6.339 11.3 11.3 0 0 1-6.836-2.554 24.951 24.951 0 0 1-3.558-3.5c-.187-.189-.281-.284-.468 0-1.122 1.135-2.152 2.365-3.369 3.406a10.445 10.445 0 0 1-5.338 2.554 9.655 9.655 0 0 1-9.177-3.311 10.32 10.32 0 0 1-1.311-2.176c0-.095-.187-.284-.187-.284a9.324 9.324 0 0 1-1.873 2.836 9.967 9.967 0 0 1-7.211 3.311 12.587 12.587 0 0 1-5.9-1.041A8.376 8.376 0 0 1 2 35.5c0-.284.094-.378.281-.378h5.057c.281 0 .281.095.375.284a4.205 4.205 0 0 0 3.278 3.784 4.775 4.775 0 0 0 5.9-3.69 5.966 5.966 0 0 0-.936-5.3 4.407 4.407 0 0 0-3.278-1.608 4.9 4.9 0 0 0-4.589 2.081c-.094.189-.187.189-.375.189H3.124c-.094-.284-.187-.378-.094-.568.749-4.447 1.592-8.8 2.341-13.245.094-.568.187-1.23.281-1.8a.25.25 0 0 1 .281-.284H21.01c.281 0 .281.095.281.284v4.068c0 .284-.094.378-.375.378H10.147c-.281 0-.468 0-.468.378-.281 1.892-.656 3.879-1.03 5.771 0 .095-.094.189 0 .284s.187-.095.187-.095a7.54 7.54 0 0 1 5.9-1.987 7.874 7.874 0 0 1 5.431 2.46 8.212 8.212 0 0 1 1.5 2.176q.279.147.279.289z" fill="none" stroke="#202020" stroke-linecap="round" stroke-miterlimit="10" stroke-width="2" stroke-linejoin="round"/><path data-name="layer1" d="M56.782 33.134a2.374 2.374 0 0 0-.094-.757 4.272 4.272 0 0 0-4.963-3.877 7.8 7.8 0 0 0-3.465 1.608 32.249 32.249 0 0 0-3.09 3.122.178.178 0 0 0 0 .284 17.073 17.073 0 0 0 2.247 2.271 7.881 7.881 0 0 0 4.589 2.081 4.038 4.038 0 0 0 4.4-2.649 4.594 4.594 0 0 0 .376-2.083zm-30.247.284v.568a4.218 4.218 0 0 0 3.371 3.879A5.037 5.037 0 0 0 33 37.486a13.542 13.542 0 0 0 5.15-3.974.178.178 0 0 0 0-.284 26.5 26.5 0 0 0-3.371-3.122 6.611 6.611 0 0 0-2.809-1.419 3.971 3.971 0 0 0-4.214 1.135 5.728 5.728 0 0 0-1.221 3.596z" fill="none" stroke="#202020" stroke-linecap="round" stroke-miterlimit="10" stroke-width="2" stroke-linejoin="round"/></svg>