<svg xmlns="http://www.w3.org/2000/svg" viewBox="0 0 64 64" aria-labelledby="title" aria-describedby="desc"><path data-name="layer2" d="M46 32L30 62h32zm-2 12a2 2 0 1 1 4 0v6a2 2 0 1 1-4 0zm2 14a2 2 0 0 1-2-2 2 2 0 0 1 .6-1.4A2 2 0 0 1 48 56a2 2 0 0 1-.6 1.4 2 2 0 0 1-1.4.6z" fill="#202020"/><path data-name="layer1" d="M36.9 40.5h-.4c-4.3-1.6-4-3.7-4-4.8V34a14.6 14.6 0 0 0 4.2-7c2.5 0 3-5.1 3-5.8s.1-3.8-2.4-3.8C42.6 4.5 28.4-2.3 17.7 5.1c-4.4 0-4.7 5.9-3.1 12.3-2.5 0-2.4 3-2.4 3.8s.6 5.8 3 5.8a14.6 14.6 0 0 0 4.2 7v1.6c0 1.6 0 4-8.1 5.6S2 50 2 50h29.9z" fill="#202020"/></svg>