<svg xmlns="http://www.w3.org/2000/svg" viewBox="0 0 64 64" aria-labelledby="title" aria-describedby="desc"><circle data-name="layer2" cx="46" cy="46" r="16" fill="#49bcff"/><path data-name="layer1" d="M46 30a15.9 15.9 0 0 1 8 2.1V10H2v40h28.5A15.9 15.9 0 0 1 46 30z" fill="#eaeff8"/><path data-name="opacity" d="M30.5 50A15.9 15.9 0 0 1 38 32.1 15.9 15.9 0 0 0 24.1 50h6.4z" fill="#000064" opacity=".16"/><path data-name="layer1" fill="#eaeff8" d="M6 2h44v8H6z"/><path data-name="opacity" fill="#000064" opacity=".16" d="M6 2h44v8H6z"/><path data-name="stroke" fill="none" stroke="#2e4369" stroke-linecap="round" stroke-miterlimit="10" stroke-width="2" d="M30.5 50H2V10h52v22.1M6 10V2h44v8" stroke-linejoin="round"/><circle data-name="stroke" cx="46" cy="46" r="16" fill="none" stroke="#2e4369" stroke-linecap="round" stroke-miterlimit="10" stroke-width="2" stroke-linejoin="round"/><path data-name="stroke" fill="none" stroke="#2e4369" stroke-linecap="round" stroke-miterlimit="10" stroke-width="2" d="M46 38v16m-8-8h16" stroke-linejoin="round"/></svg>