<svg viewBox="0 0 64 64" xmlns="http://www.w3.org/2000/svg" aria-labelledby="title" aria-describedby="desc"><circle fill="#49bcff" r="16" cy="46" cx="46" data-name="layer2"/><path fill="#c3d6f9" d="M45.3 30a25.6 25.6 0 0 0 .5-3.1v-.4c.1-.7.1-1.4.1-2.1A22.2 22.2 0 0 0 24 2 22.2 22.2 0 0 0 2 24.4c0 .7 0 1.5.1 2.2v.3C3.9 44.5 24 58 24 58a65.2 65.2 0 0 0 7.2-5.9A16 16 0 0 1 45.3 30zM14 24a10 10 0 1 1 10 10 10 10 0 0 1-10-10z" data-name="layer1"/><path opacity=".2" fill="#000032" d="M6.1 26.8v-.3c-.1-.6-.1-1.4-.1-2.1A22.2 22.2 0 0 1 26 2.1h-2A22.2 22.2 0 0 0 2 24.4c0 .7 0 1.5.1 2.2v.3C3.9 44.5 24 58 24 58l2-1.5C20.8 52.6 7.5 41.1 6.1 26.8z" data-name="opacity"/><path opacity=".2" fill="#000032" d="M31.2 52a15.9 15.9 0 0 1 6.5-19.7A16 16 0 0 0 27 55.7c1.2-1 2.6-2.2 4.2-3.7z" data-name="opacity"/><circle stroke-width="2" stroke-miterlimit="10" stroke-linecap="round" stroke="#2e4369" fill="none" r="16" cy="46" cx="46" data-name="stroke" stroke-linejoin="round"/><path d="M46 38v16m-8-8h16" stroke-width="2" stroke-miterlimit="10" stroke-linecap="round" stroke="#2e4369" fill="none" data-name="stroke" stroke-linejoin="round"/><circle stroke-width="2" stroke-miterlimit="10" stroke-linecap="round" stroke="#2e4369" fill="none" r="10" cy="24" cx="24" data-name="stroke" stroke-linejoin="round"/><path stroke-width="2" stroke-miterlimit="10" stroke-linecap="round" stroke="#2e4369" fill="none" d="M45.3 30a25.5 25.5 0 0 0 .5-3.1v-.4c.1-.7.1-1.4.1-2.1A22.2 22.2 0 0 0 24 2 22.2 22.2 0 0 0 2 24.4c0 .7 0 1.5.1 2.2v.3C3.9 44.5 24 58 24 58a65.3 65.3 0 0 0 7.2-5.9" data-name="stroke" stroke-linejoin="round"/></svg>