<svg viewBox="0 0 64 64" xmlns="http://www.w3.org/2000/svg" aria-labelledby="title" aria-describedby="desc"><path stroke-width="2" stroke-miterlimit="10" stroke="#202020" fill="none" d="M48.455 42.519c.656.449 1.723 1.058 1.52 2.462A7.167 7.167 0 0 1 43.219 50c-4.492 0-10-3.542-14.84-8.379S20 31.273 20 26.781a7.167 7.167 0 0 1 5.02-6.755c1.4-.2 2.012.863 2.461 1.52s3.008 4.6 3.4 5.2a2.416 2.416 0 0 1-.639 3.266c-1.451 1.175-2.871 1.626 2.623 7.119s5.943 4.075 7.119 2.623a2.417 2.417 0 0 1 3.266-.639c.609.398 4.55 2.954 5.205 3.404z" data-name="layer2" stroke-linejoin="round" stroke-linecap="round"/><path d="M4 20h8M4 30h8M4 40h8M4 50h8m42-38V2H13.033A5.017 5.017 0 0 0 8 7a5.017 5.017 0 0 0 5.033 5H58v50H13a5 5 0 0 1-5-5V7a5 5 0 0 1 5-5" stroke-width="2" stroke-miterlimit="10" stroke="#202020" fill="none" data-name="layer1" stroke-linejoin="round" stroke-linecap="round"/></svg>