<svg xmlns="http://www.w3.org/2000/svg" viewBox="0 0 64 64" aria-labelledby="title" aria-describedby="desc"><path data-name="layer3" fill="#f27e7c" d="M51 8h8v42h-8"/><path data-name="layer2" fill="#9cf" d="M9 2h42v60H9z"/><path data-name="layer1" fill="#eaf7ff" d="M21 12h20v14H21z"/><path data-name="opacity" fill="#000064" opacity=".15" d="M51 8h4v42h-4zM9 2h8v60H9z"/><path data-name="stroke" fill="none" stroke="#2e4369" stroke-linecap="round" stroke-miterlimit="10" stroke-width="2" d="M51 8h8v42h-8m8-28h-8m8 14h-8M9 2h42v60H9zm4 10H3m10 10H3m10 10H3m10 10H3m10 10H3" stroke-linejoin="round"/><path data-name="stroke" fill="none" stroke="#2e4369" stroke-linecap="round" stroke-miterlimit="10" stroke-width="2" d="M21 12h20v14H21z" stroke-linejoin="round"/></svg>