<svg xmlns="http://www.w3.org/2000/svg" viewBox="0 0 64 64" aria-labelledby="title" aria-describedby="desc"><path data-name="layer2" d="M50.3 33.409L33.415 50.3l10.319 10.32a11.943 11.943 0 0 0 16.89-16.89zM20.267 3.371a11.943 11.943 0 1 0-16.89 16.89L13.7 30.58l16.885-16.889z" fill="#202020"/><path data-name="layer1" d="M60.623 3.371a11.958 11.958 0 0 0-16.89 0L3.377 43.728a11.943 11.943 0 0 0 16.89 16.89l40.356-40.357a11.959 11.959 0 0 0 0-16.89zM23.778 30.317a2 2 0 1 1 0 2.828 2 2 0 0 1 0-2.828zm5.115 14.046a1 1 0 0 1-1.414 0l-7.8-7.8a1 1 0 0 1 1.414-1.414l7.8 7.8a1 1 0 0 1 .001 1.414zm4.784-4.146a2 2 0 1 1 0-2.828 1.995 1.995 0 0 1 .001 2.827zm0-7.071a2 2 0 1 1 0-2.828 1.995 1.995 0 0 1 .001 2.827zm0-7.07a2 2 0 1 1 0-2.83 1.995 1.995 0 0 1 0 2.83zm7.071 7.07a2 2 0 1 1 0-2.828 2 2 0 0 1 .001 2.827zm3.619-4.257a1 1 0 0 1-1.414 0l-7.847-7.849a1 1 0 0 1 1.414-1.414l7.848 7.848a1 1 0 0 1 0 1.414z" fill="#202020"/></svg>