<svg xmlns="http://www.w3.org/2000/svg" viewBox="0 0 64 64" aria-labelledby="title" aria-describedby="desc"><path data-name="layer2" d="M60.725 48.949a13.123 13.123 0 0 0 0-4.032l2.9-2.8a1.03 1.03 0 0 0 .176-1.256L61 36.007a1.03 1.03 0 0 0-1.176-.475l-3.955 1.131a13.006 13.006 0 0 0-3.38-1.91l-1.01-4.039a1.03 1.03 0 0 0-1-.78h-5.6a1.031 1.031 0 0 0-1 .78L42.827 34.9a13.018 13.018 0 0 0-3.09 1.832l-4.207-1.2a1.03 1.03 0 0 0-1.176.475l-2.8 4.852a1.03 1.03 0 0 0 .176 1.256l3.2 3.1a12.753 12.753 0 0 0 0 3.443l-3.2 3.1a1.03 1.03 0 0 0-.176 1.256l2.8 4.852a1.03 1.03 0 0 0 1.176.475l4.207-1.2a13.018 13.018 0 0 0 3.09 1.832l1.047 4.19a1.03 1.03 0 0 0 1 .78h5.6a1.03 1.03 0 0 0 1-.78l1.01-4.039a13.008 13.008 0 0 0 3.38-1.91l3.955 1.131A1.03 1.03 0 0 0 61 57.859l2.8-4.852a1.03 1.03 0 0 0-.176-1.256zM48 53.333a6.4 6.4 0 1 1 6.4-6.4 6.4 6.4 0 0 1-6.4 6.4z" fill="#202020"/><path data-name="layer1" d="M32.847 46.045l-2.509-2.425a3.026 3.026 0 0 1-.518-3.694l2.8-4.852a3.061 3.061 0 0 1 3.458-1.4l3.26.933a15.028 15.028 0 0 1 1.779-1.053l.815-3.26a3.026 3.026 0 0 1 2.94-2.3h3.861l.281-1.048a1.471 1.471 0 0 0-.707-1.667l-5.135-2.851a18.577 18.577 0 0 0-1.484-5.341l3.059-5.1a1.471 1.471 0 0 0-.221-1.8L38.869 4.54a1.471 1.471 0 0 0-1.8-.221l-5.285 3.173a18.588 18.588 0 0 0-4.97-1.271L23.782.758a1.472 1.472 0 0 0-1.667-.707l-7.728 2.071A1.471 1.471 0 0 0 13.3 3.567l.107 6.36A18.222 18.222 0 0 0 9.928 13.4l-6.361-.1a1.471 1.471 0 0 0-1.446 1.09l-2.07 7.725a1.471 1.471 0 0 0 .707 1.667l5.463 3.033a18.588 18.588 0 0 0 1.271 4.97l-3.173 5.287a1.471 1.471 0 0 0 .221 1.8l5.66 5.655a1.471 1.471 0 0 0 1.8.221l5.1-3.059a18.577 18.577 0 0 0 5.341 1.484l2.851 5.135a1.471 1.471 0 0 0 1.667.707l5.877-1.575zm-15.1-14.723a9.6 9.6 0 1 1 13.576 0 9.6 9.6 0 0 1-13.578 0z" fill="#202020"/></svg>