<svg xmlns="http://www.w3.org/2000/svg" viewBox="0 0 64 64" aria-labelledby="title" aria-describedby="desc"><path data-name="layer2" d="M32 2a2 2 0 0 0-2 2v14a2 2 0 1 0 4 0V4a2 2 0 0 0-2-2zM16 2a2 2 0 0 0-2 2v14a2 2 0 1 0 4 0V4a2 2 0 0 0-2-2zm32 0a2 2 0 0 0-2 2v14a2 2 0 1 0 4 0V4a2 2 0 0 0-2-2z" fill="#202020"/><path data-name="layer1" d="M42 18a6 6 0 0 0 10 4.5V52H12V22.5A6 6 0 0 0 22 18h4a6 6 0 1 0 12 0zM22 8h4v6h-4z" fill="#202020"/><path data-name="layer1" fill="#202020" d="M54 8v6h2v42H8V14h2V8H2v54h60V8h-8z"/><path data-name="layer1" fill="#202020" d="M38 8h4v6h-4z"/></svg>