<svg xmlns="http://www.w3.org/2000/svg" viewBox="0 0 64 64" aria-labelledby="title" aria-describedby="desc"><path data-name="layer2" d="M61.5 18.3a5 5 0 0 0-6.6-2.4l-14.9 7-23.7-12a4.1 4.1 0 0 0-2.8-.1l-2.9 1.5a1.1 1.1 0 0 0-.2 1.7L24 30.3l-9.5 4.4-8.3-3.3s-1.8-.9-2.5-.3l-1.4 1.3s-.6.8 0 1.4L13.5 45c.4.4 1.1.7 2.5 0l43.1-20a5 5 0 0 0 2.4-6.7z" fill="#202020"/><path data-name="layer1" d="M54 34.6l-7.4 7.7a2 2 0 1 0 2.8 2.7l2.6-2.6v9a2 2 0 1 0 4 0v-9l2.6 2.6a2 2 0 1 0 2.9-2.8z" fill="#202020"/></svg>