<svg xmlns="http://www.w3.org/2000/svg" viewBox="0 0 64 64" aria-labelledby="title" aria-describedby="desc"><path data-name="layer1" d="M56.6 7.4a5 5 0 0 0-7.1 0L38.9 18.1l-25.6-3.4s-1.9-.3-2.7.5l-3 3a1.3 1.3 0 0 0-.4 1.4c.2.5 1.6 1.2 2 1.4L27 30l-7.2 7.2-.7.7-9.1-1.4a1.6 1.6 0 0 0-1.5.5l-2.1 2.3c-.3.3-.9 1 .4 1.6l11.6 4.8s4.2 10.3 4.8 11.6 1.3.7 1.6.4l2.2-2.2a1.6 1.6 0 0 0 .5-1.5l-1.3-9.1.7-.7L34 37l9 17.7c.2.5.9 1.9 1.4 2a1.3 1.3 0 0 0 1.4-.4l3-3c.8-.8.5-2.7.5-2.7l-3.4-25.5 10.7-10.6a5 5 0 0 0 0-7.1z" fill="#202020"/></svg>