<svg xmlns="http://www.w3.org/2000/svg" viewBox="0 0 64 64" aria-labelledby="title" aria-describedby="desc"><circle data-name="layer2" cx="16" cy="45" r="4" fill="#202020"/><circle data-name="layer2" cx="48" cy="45" r="4" fill="#202020"/><path data-name="layer1" d="M48 37h-7.5c-1.9 1.7-5.1 4-8.5 4s-6.7-2.3-8.5-4H16a8 8 0 0 1 7.4 5.1 10.5 10.5 0 0 0 1.4 2.9 8.5 8.5 0 0 0 14.4 0 10.5 10.5 0 0 0 1.4-2.9A8 8 0 0 1 48 37zm-24.9 3.5zM23 39zm18 .8V39c0-.3 0 .5-.1.8zm-.1.8zM3 37c-1.5 0-.9 1.6-.9 1.6s3.4 2.4 6.4 3.5A8 8 0 0 1 16 37zm58 0H48a8 8 0 0 1 7.4 5.1c3-1 5.5-2.3 6.4-3.5s.7-1.6-.8-1.6zm-29 0c2.7 0 5.9-2.9 7.1-4.2a8.9 8.9 0 0 0-5.1-3.5V17a2 2 0 0 0-4 0v12.3a9 9 0 0 0-5.1 3.6c1.2 1.2 4.4 4.1 7.1 4.1z" fill="#202020"/></svg>