<svg xmlns="http://www.w3.org/2000/svg" viewBox="0 0 64 64" aria-labelledby="title" aria-describedby="desc"><path data-name="layer1" d="M28 12v8c0 4-8 8-8 14v4h24v-4c0-6-8-10-8-14v-8" fill="#8caf61"/><path data-name="layer3" fill="#d5e2f4" d="M20 38h24v14H20z"/><path data-name="layer2" fill="#a41d34" d="M28 2h8v10h-8z"/><path data-name="layer1" d="M20 52v7c0 1.7 1.2 3 7 3h10c5.5 0 7-1.3 7-3v-7" fill="#8caf61"/><path data-name="opacity" d="M33 20c0 4 2 8 2 14v4h5v-4c0-6-5-10-5-14v-8h-2zm4 18h7v14h-7zM33 2h2v10h-2zm7 58v-8h-5v8a2.2 2.2 0 0 1-1.2 2h5.1a2.2 2.2 0 0 0 1.1-2z" fill="#fff" opacity=".5"/><path data-name="opacity" d="M25 34c0-6 5-10 5-14v-8h-2v8c0 4-8 8-8 14v4h5zm-5 4h5v14h-5zm8-36h2v10h-2zm-3 58v-8h-5v7c0 1.6 1.1 2.9 6.1 3a2.2 2.2 0 0 1-1.1-2z" fill="#101129" opacity=".25"/><path data-name="stroke" d="M28 12v8c0 4-8 8-8 14v4h24v-4c0-6-8-10-8-14v-8M20 38h24v14H20zm8-36h8v10h-8zm-8 50v7c0 1.7 1.2 3 7 3h10c5.5 0 7-1.3 7-3v-7" fill="none" stroke="#2f446a" stroke-linecap="round" stroke-linejoin="round" stroke-width="2"/></svg>