<svg xmlns="http://www.w3.org/2000/svg" viewBox="0 0 64 64" aria-labelledby="title" aria-describedby="desc"><path data-name="layer2" d="M9.939 25.061a1.5 1.5 0 0 0 2.121-2.121l-9-9a1.5 1.5 0 0 0-2.121 2.121zm12.638-9.586a1.5 1.5 0 0 0 2.846-.949l-4-12a1.5 1.5 0 1 0-2.846.949zM53 25.5a1.5 1.5 0 0 0 1.061-.439l9-9a1.5 1.5 0 0 0-2.121-2.121l-9 9A1.5 1.5 0 0 0 53 25.5zm-13.475-9.077a1.5 1.5 0 0 0 1.9-.948l4-12a1.5 1.5 0 1 0-2.846-.949l-4 12a1.5 1.5 0 0 0 .946 1.897zM58 56H6a6 6 0 0 0-6 6h64a6 6 0 0 0-6-6z" fill="#202020"/><circle data-name="layer1" cx="32" cy="38" r="2" fill="#202020"/><path data-name="layer1" d="M11 54h20V41.858a4 4 0 1 1 2 0V54h20V40a21 21 0 0 0-42 0z" fill="#202020"/></svg>