<svg viewBox="0 0 64 64" xmlns="http://www.w3.org/2000/svg" aria-labelledby="title" aria-describedby="desc"><path fill="#a3b8df" d="M45.894 40.3l3.077 4.663A17 17 0 0 1 36 55.731V30h8v-6h-8v-6.58a8 8 0 1 0-6 0V24h-8v6h8v25.731a17 17 0 0 1-12.971-10.77l3.077-4.661L10 33.628V39.2a23 23 0 0 0 46 0v-5.572zM33 8.009a2 2 0 1 1-2 2 2 2 0 0 1 2-2z" data-name="layer1"/><path d="M36 28h8v2h-8zm-1 32a22.926 22.926 0 0 1-23-22.8v-2.252l-2-1.32V39.2a23.027 23.027 0 0 0 40.283 15.022A23.017 23.017 0 0 1 35 60zm-5-42.58V24h2v-8.58a7.982 7.982 0 0 1-3.563-11.973A7.988 7.988 0 0 0 30 17.42z" opacity=".15" fill="#000064" data-name="opacity"/><path opacity=".15" fill="#000064" d="M30 56.245a17.049 17.049 0 0 0 2 .485V28h-8v-4h-2v6h8z" data-name="opacity"/><path stroke-width="2" stroke-miterlimit="10" stroke="#2e4369" fill="none" d="M45.894 40.292l3.077 4.663A17 17 0 0 1 36 55.725V29.994h8v-6h-8v-6.58a8 8 0 1 0-6 0v6.58h-8v6h8v25.731a17 17 0 0 1-12.971-10.77l3.077-4.663L10 33.622V39.2a23 23 0 0 0 46 0v-5.578zM33 8a2 2 0 1 1-2 2 2 2 0 0 1 2-2z" data-name="stroke" stroke-linejoin="round" stroke-linecap="round"/></svg>