<svg xmlns="http://www.w3.org/2000/svg" viewBox="0 0 64 64" aria-labelledby="title" aria-describedby="desc"><path data-name="layer2" d="M29 49.5a23.9 23.9 0 0 1-10.5-5.1L6 62h32l-9-12.5z" fill="#7b8baf"/><path data-name="layer1" d="M16.1 10A24 24 0 0 0 50 43.9z" fill="#8fa9d8"/><path data-name="opacity" d="M36.4 48a24.4 24.4 0 0 1-20.3-38A24 24 0 0 0 50 43.9 24.3 24.3 0 0 1 36.4 48z" fill="#000032" opacity=".2"/><path data-name="opacity" d="M29 55a24.1 24.1 0 0 0 3.8-.3l-3.7-5.2a23.9 23.9 0 0 1-10.5-5.1l-4.1 5.7A23.9 23.9 0 0 0 29 55z" fill="#000032" opacity=".2"/><path data-name="stroke" d="M16.1 10A24 24 0 0 0 50 43.9zM33 27l11-11M38 3.3A14 14 0 0 1 56.7 22M42 9.4a7 7 0 0 1 8.6 8.6" fill="none" stroke="#2e4369" stroke-linecap="round" stroke-linejoin="round" stroke-width="2"/><path data-name="stroke" fill="none" stroke="#2e4369" stroke-linecap="round" stroke-linejoin="round" stroke-width="2" d="M18.5 44.3L6 62h32l-9-12.5"/></svg>