<svg xmlns="http://www.w3.org/2000/svg" viewBox="0 0 64 64" aria-labelledby="title" aria-describedby="desc"><path data-name="layer2" d="M49 3C39 3 37 9 37 15c10 0 12-6 12-12z" fill="#202020"/><path data-name="layer1" d="M43 17c-2.9 0-5.2 1.3-8 1.8C34.9 9.3 28.9 5 23 5a2 2 0 0 0 0 4c3.8 0 7.9 2.6 8 9.8-2.3-.5-4.4-1.8-10-1.8-7.1 0-14 6.8-14 18s8.2 26 16.9 26c5.3 0 5.7-4 8.6-4s5.2 4 8.7 4S57 51.5 57 35 46.6 17 43 17zM27 43c-1.6.2-3.7-4.3-3.9-6.2a3.2 3.2 0 0 1 2.5-3.7 3.2 3.2 0 0 1 3.4 2.8c.2 1.8-.4 6.8-2 7.1zm16-6.2c-.3 1.8-2.3 6.4-3.9 6.2s-2.3-5.2-2-7a3 3 0 1 1 5.9.9z" fill="#202020"/></svg>