<svg xmlns="http://www.w3.org/2000/svg" viewBox="0 0 64 64" aria-labelledby="title" aria-describedby="desc"><circle data-name="layer1" cx="32" cy="32" r="30" fill="#e1f4f3"/><path data-name="opacity" d="M32 2A29.938 29.938 0 0 0 8.881 12.881a30 30 0 0 1 42.238 42.238A30 30 0 0 0 32 2z" fill="#000064" opacity=".15"/><path data-name="opacity" d="M32.166 40.663l-10.394-8.084a2 2 0 0 1 2.455-3.158l7.606 5.916 12.753-12.751a2 2 0 0 1 2.828 2.828z" fill="#000064" opacity=".15"/><circle data-name="stroke" cx="32" cy="32" r="30" fill="none" stroke="#2e4369" stroke-linecap="round" stroke-miterlimit="10" stroke-width="2" stroke-linejoin="round"/><path data-name="stroke" fill="none" stroke="#2e4369" stroke-linecap="round" stroke-miterlimit="10" stroke-width="2" d="M32 2v6m0 48v6M2 32h6m48 0h6M48 20L32 36l-11-9" stroke-linejoin="round"/></svg>