<svg xmlns="http://www.w3.org/2000/svg" viewBox="0 0 64 64" aria-labelledby="title" aria-describedby="desc"><path data-name="layer1" d="M36.327 40.007H23.416l17.042-29.518A3.99 3.99 0 0 0 33.547 6.5l-1.676 2.9-1.677-2.9a3.99 3.99 0 1 0-6.911 3.99l3.98 6.893L14.2 40.007H3.99a3.99 3.99 0 0 0 0 7.98H40.3c2.243-4.139-1.789-7.98-3.973-7.98z" fill="#1b9af9"/><path data-name="layer1" d="M60.01 40.007H49.54L37.833 19.731c-3.38 2-4.13 8.805-1.9 12.664L51.294 59a3.99 3.99 0 1 0 6.911-3.99l-4.057-7.028h5.862a3.99 3.99 0 0 0 0-7.98zm-51.53 9.91l-2.943 5.1A3.99 3.99 0 1 0 12.448 59l4-6.925C14.1 48.987 9.557 48.93 8.48 49.917z" fill="#1b9af9"/></svg>