<svg xmlns="http://www.w3.org/2000/svg" viewBox="0 0 64 64" aria-labelledby="title" aria-describedby="desc"><path data-name="layer1" d="M10 14h38v-4H20V6H2v41a3 3 0 0 0 1.1 2.3A4 4 0 0 1 6 46.1V18a4 4 0 0 1 4-4z" fill="#202020"/><path data-name="layer2" d="M58.6 45.1a11.8 11.8 0 0 0 0-4.3l3.1-1.8-4-6.9-3.1 1.8a12 12 0 0 0-3.7-2.1V28h-8v3.7a12 12 0 0 0-3.7 2.1L36 32l-4 7 3 1.7a11.6 11.6 0 0 0 0 4.4L31.7 47l4 6.9 3.3-1.8a12 12 0 0 0 3.8 2.2V58h8v-3.7a12 12 0 0 0 3.9-2.3l3.3 2 4-7zM47 48a5 5 0 1 1 5-5 5 5 0 0 1-5 5z" fill="#202020"/><path data-name="layer1" d="M28.2 49a4 4 0 0 1 1.5-5.5l1.1-.6-.8-.5a4 4 0 0 1-1.4-5.4l4-6.9a4 4 0 0 1 5.4-1.5l.8.5V28a4 4 0 0 1 4-4h8a4 4 0 0 1 3.2 1.6V18H10v29a3 3 0 0 1-3 3h21.8z" fill="#202020"/></svg>