<svg xmlns="http://www.w3.org/2000/svg" viewBox="0 0 64 64" aria-labelledby="title" aria-describedby="desc"><path data-name="layer2" d="M7 54a3 3 0 0 0 3-3V16h52v35a3 3 0 0 1-3 3H5" fill="#f8da82"/><path data-name="layer2" d="M10 51V16h44V8H20V4H2v47a3 3 0 0 0 3 3h2a3 3 0 0 0 3-3z" fill="#f8da82"/><path data-name="opacity" d="M10 51V16h44V8H20V4H2v47a3 3 0 0 0 3 3h2a3 3 0 0 0 3-3z" fill="#000064" opacity=".15"/><path data-name="opacity" fill="#fff" opacity=".2" d="M10 16h52v3H10z"/><path data-name="opacity" fill="#000064" opacity=".15" d="M42 16h6v38h-6z"/><path data-name="layer1" fill="#d6dde5" d="M44 50h8v10h-8z"/><path data-name="stroke" fill="none" stroke="#2e4369" stroke-linecap="round" stroke-miterlimit="10" stroke-width="2" d="M48 16v34m4-26h-4m0 4h-4m8 12h-4m0 4h-4m8-12h-4m0 4h-4m8 18h7a3 3 0 0 0 3-3V16H10v35a3 3 0 0 1-3 3" stroke-linejoin="round"/><path data-name="stroke" d="M54 16V8H20V4H2v47a3 3 0 0 0 3 3h39" fill="none" stroke="#2e4369" stroke-linecap="round" stroke-miterlimit="10" stroke-width="2" stroke-linejoin="round"/><path data-name="stroke" fill="none" stroke="#2e4369" stroke-linecap="round" stroke-miterlimit="10" stroke-width="2" d="M44 50h8v10h-8z" stroke-linejoin="round"/></svg>