<svg viewBox="0 0 64 64" xmlns="http://www.w3.org/2000/svg" aria-labelledby="title" aria-describedby="desc"><path fill="#f8da82" d="M55 34h-2V2H9v60h44v-8h2a2 2 0 0 0 2-2V36a2 2 0 0 0-2-2z" data-name="layer2"/><path d="M29 2h10v60H29z" opacity=".15" fill="#000064" data-name="opacity"/><path d="M35 42h8v12h-8z" fill="#d6dde5" data-name="layer1"/><path d="M39 54v8m0-20V2m-4 40h8v12h-8z" stroke-width="2" stroke-miterlimit="10" stroke-linecap="round" stroke="#2e4369" fill="none" data-name="stroke" stroke-linejoin="round"/><path stroke-width="2" stroke-miterlimit="10" stroke-linecap="round" stroke="#2e4369" fill="none" d="M55 34h-2V2H9v60h44v-8h2a2 2 0 0 0 2-2V36a2 2 0 0 0-2-2zm-16 0h-4m8-4h-4m0-4h-4m8-4h-4m0-4h-4m8-4h-4m0-4h-4" data-name="stroke" stroke-linejoin="round"/></svg>