<svg xmlns="http://www.w3.org/2000/svg" viewBox="0 0 64 64" aria-labelledby="title" aria-describedby="desc"><path data-name="layer1" d="M2.1 30a30 30 0 0 0 59.8 0z" fill="#fdefe5"/><path data-name="opacity" d="M38 56A30 30 0 0 1 8.3 30H2.1a30 30 0 0 0 42.4 25.3 30.1 30.1 0 0 1-6.5.7z" fill="#101129" opacity=".18"/><path data-name="opacity" d="M58.9 30c0 8.2-7.6 21.7-19.6 24.2C51.2 51.1 50.7 30 50.7 30z" fill="#fff" opacity=".25"/><path data-name="stroke" fill="none" stroke="#2f446a" stroke-linecap="round" stroke-linejoin="round" stroke-width="2" d="M46 2L32 30m26-20L40 30M2.1 30a30 30 0 0 0 59.8 0zM22 62h20"/></svg>