<svg xmlns="http://www.w3.org/2000/svg" viewBox="0 0 64 64" aria-labelledby="title" aria-describedby="desc"><path data-name="layer1" fill="#dcf0fd" d="M2 2h60v60H2z"/><path data-name="opacity" fill="#000064" opacity=".15" d="M8 6v52h54v4H2V2l6 4z"/><path data-name="opacity" fill="#fff" opacity=".25" d="M62 6H8L2 2h60v4z"/><path data-name="stroke" fill="none" stroke="#2e4369" stroke-linecap="round" stroke-miterlimit="10" stroke-width="2" d="M10 15h10m-7.5 4.3l5-8.6m0 8.6l-5-8.6M10 31h10m-7.5 4.3l5-8.6m0 8.6l-5-8.6M10 47h10m-7.5 4.3l5-8.6m0 8.6l-5-8.6M26 15h29M26 31h29M26 47h29M2 2h60v60H2z" stroke-linejoin="round"/></svg>