<svg xmlns="http://www.w3.org/2000/svg" viewBox="0 0 64 64" aria-labelledby="title" aria-describedby="desc"><path data-name="layer2" d="M49.211 32.105c6.619-5.805 10.036-11.46 8.189-14.63-1.832-3.153-8.406-3.061-16.712-.312C38.969 8.109 35.723 2 32 2s-6.985 6.137-8.7 15.228c-8.4-2.808-15.058-2.928-16.9.247s1.575 8.824 8.194 14.63C7.972 37.911 4.555 43.565 6.4 46.735c1.6 2.748 6.8 3.031 13.6 1.238l3.331-1C25.064 55.952 28.3 62 32 62s6.917-6.025 8.648-14.969c8.327 2.762 14.922 2.862 16.757-.3s-1.575-8.82-8.194-14.626z" fill="#b3d9ff"/><path data-name="opacity" d="M28.873 36.758C16.932 29.908 8.529 21.375 7.938 16.024A3.905 3.905 0 0 0 6.4 17.475c-2.777 4.779 6.391 15.2 20.476 23.283S54.628 51.514 57.4 46.735a4.077 4.077 0 0 0 .459-2.549c-4.671 2.571-16.669-.363-28.986-7.428z" fill="#000064" opacity=".16"/><path data-name="opacity" d="M36.929 23.453C22.843 15.373 9.173 12.7 6.4 17.475a4.077 4.077 0 0 0-.459 2.549c4.676-2.57 16.674.363 28.991 7.429C46.87 34.3 55.273 42.835 55.864 48.187a3.906 3.906 0 0 0 1.536-1.452c2.782-4.778-6.386-15.202-20.471-23.282z" fill="#fff" opacity=".5"/><circle data-name="layer1" cx="32" cy="32" r="4" fill="#f4475d"/><path data-name="opacity" d="M57.4 17.475a3.907 3.907 0 0 0-1.541-1.449c-.593 5.352-9 13.883-20.935 20.732a77.044 77.044 0 0 1-13.6 6.215l-3.331 1c-5.328 1.4-9.661 1.528-12.063.2a4.082 4.082 0 0 0 .458 2.56c1.6 2.748 6.8 3.031 13.6 1.238l3.331-1a77.044 77.044 0 0 0 13.6-6.215C51.014 32.678 60.182 22.254 57.4 17.475z" fill="#fff" opacity=".5"/><path data-name="opacity" d="M26 32l.177-5.651c.758-11.925 3.869-21.34 7.828-23.749A3.819 3.819 0 0 0 32 2c-4.879 0-8.942 10.482-9.823 24.349L22 32c0 16.569 4.477 30 10 30a3.829 3.829 0 0 0 1.981-.612C29.426 58.586 26 46.493 26 32z" fill="#000064" opacity=".16"/><path data-name="stroke" d="M36.929 23.453C22.843 15.373 9.173 12.7 6.4 17.475s6.391 15.2 20.476 23.283S54.628 51.514 57.4 46.735s-6.386-15.202-20.471-23.282z" fill="none" stroke="#2e4369" stroke-linecap="round" stroke-miterlimit="10" stroke-width="2" stroke-linejoin="round"/><circle data-name="stroke" cx="32" cy="32" r="4" fill="none" stroke="#2e4369" stroke-linecap="round" stroke-miterlimit="10" stroke-width="2" stroke-linejoin="round"/><path data-name="stroke" d="M23.333 46.973a77.044 77.044 0 0 0 13.6-6.215c14.086-8.08 23.253-18.5 20.476-23.283-1.832-3.153-8.406-3.061-16.712-.313m-3.713 1.36a81.213 81.213 0 0 0-10.111 4.93C12.787 31.533 3.62 41.957 6.4 46.735c1.6 2.748 6.8 3.031 13.6 1.238" fill="none" stroke="#2e4369" stroke-linecap="round" stroke-miterlimit="10" stroke-width="2" stroke-linejoin="round"/><path data-name="stroke" d="M22.177 26.349C23.058 12.482 27.121 2 32 2c5.523 0 10 13.431 10 30a89.7 89.7 0 0 1-.182 5.733m-.393 4.319C40.047 53.677 36.348 62 32 62c-5.523 0-10-13.431-10-30" fill="none" stroke="#2e4369" stroke-linecap="round" stroke-miterlimit="10" stroke-width="2" stroke-linejoin="round"/></svg>