<svg xmlns="http://www.w3.org/2000/svg" viewBox="0 0 64 64" aria-labelledby="title" aria-describedby="desc"><path data-name="layer1" d="M6 12.5h30.8v-4H6a2 2 0 1 0 0 4z" fill="#202020"/><path data-name="layer2" d="M49.3 22a2 2 0 1 0-2.6 3 12.7 12.7 0 0 1 0 19.1 2 2 0 0 0 2.6 3 16.7 16.7 0 0 0 0-25.1z" fill="#202020"/><path data-name="layer2" d="M54.7 17a2 2 0 0 0-2.5 3.1 18.6 18.6 0 0 1 .1 28.8 2 2 0 0 0 2.5 3.1 22.6 22.6 0 0 0-.1-35z" fill="#202020"/><path data-name="layer1" d="M1 10.5v40a5 5 0 0 0 5 5h35v-40H6a5 5 0 0 1-5-5zm12 22a1 1 0 0 1 1-1h6l9-8v24l-9-8h-6a1 1 0 0 1-1-1z" fill="#202020"/></svg>