<svg xmlns="http://www.w3.org/2000/svg" viewBox="0 0 64 64" aria-labelledby="title" aria-describedby="desc"><path data-name="layer3" fill="#d34545" d="M2 6h8v52H2z"/><path data-name="layer2" fill="#f26161" d="M10 6h52v52H10z"/><path data-name="opacity" d="M27 21.2V39h-3a5 5 0 1 0 5 5V22.8l14-3.5V35h-3a5 5 0 1 0 5 5V16.7z" fill="#000064" opacity=".2"/><path data-name="layer1" d="M46 38a4 4 0 1 1-4-4h4zm-16 0h-4a4 4 0 1 0 4 4z" fill="#fff"/><path data-name="stroke" fill="none" stroke="#2e4369" stroke-linecap="round" stroke-miterlimit="10" stroke-width="2" d="M10 6H2v52h8m20-20h-4a4 4 0 1 0 4 4V20l16-4v22a4 4 0 1 1-4-4h4" stroke-linejoin="round"/><path data-name="stroke" fill="none" stroke="#2e4369" stroke-linecap="round" stroke-miterlimit="10" stroke-width="2" d="M10 6h52v52H10z" stroke-linejoin="round"/></svg>