<svg xmlns="http://www.w3.org/2000/svg" viewBox="0 0 64 64" aria-labelledby="title" aria-describedby="desc"><path data-name="layer2" fill="none" stroke="#202020" stroke-miterlimit="10" stroke-width="2" d="M33.5 52H2V2h43.3L52 8.7v31.5" stroke-linejoin="round" stroke-linecap="round"/><path data-name="layer2" fill="none" stroke="#202020" stroke-miterlimit="10" stroke-width="2" d="M44 38.1V28H10v24m24-42v4m8-12v16.3a1.7 1.7 0 0 1-1.7 1.7H23.7a1.7 1.7 0 0 1-1.7-1.7V2" stroke-linejoin="round" stroke-linecap="round"/><path data-name="layer1" fill="none" stroke="#202020" stroke-miterlimit="10" stroke-width="2" d="M52.4 50l4.8 4.9L62 50m-24 0l-4.8-4.8-4.8 4.8" stroke-linejoin="round" stroke-linecap="round"/><path data-name="layer1" d="M50.9 60.6a11.8 11.8 0 0 1-14.1-2.1A12.1 12.1 0 0 1 34 46m5.6-6.5a11.8 11.8 0 0 1 14.1 2.1A12.1 12.1 0 0 1 56.4 54" fill="none" stroke="#202020" stroke-miterlimit="10" stroke-width="2" stroke-linejoin="round" stroke-linecap="round"/></svg>