<svg xmlns="http://www.w3.org/2000/svg" viewBox="0 0 64 64" aria-labelledby="title" aria-describedby="desc"><path data-name="layer1" d="M46 25.6c0 10-6.3 18.4-14 18.4s-14-8-14-18v-9.6C18 6 25.4 2 32 2s14 3.6 14 14z" fill="#a5d0ec"/><path data-name="layer1" d="M50 51c-10-1.9-10-5-10-7v-3h-.1a11.8 11.8 0 0 1-7.9 3.1 12.1 12.1 0 0 1-8-3.4V44c0 2-1 5.2-11 7A13.4 13.4 0 0 0 2 62h60a15.5 15.5 0 0 0-12-11z" fill="#a5d0ec"/><path data-name="opacity" d="M39.9 41a11.8 11.8 0 0 1-7.9 3.1 11.4 11.4 0 0 1-6.5-2.1 11.6 11.6 0 0 0 6.5 2 10.6 10.6 0 0 0 2.5-.3C27.9 42.2 23 34.9 23 26v-9.6c0-9.1 5.7-13.3 11.6-14.2L32 2c-6.6 0-14 4-14 14.4V26c0 6.1 2.4 11.5 6 14.8V44a4.2 4.2 0 0 1-1 2.8c-1.2 1.5-4 3.1-10 4.2A13.4 13.4 0 0 0 2 62h6a13.3 13.3 0 0 1 11-10.9c3.3-.6 5.6-1.1 7.2-2.1 6.9 3 11.3-3.1 13.8-8zm-14.8.7l-.5-.4zM24 47.5zm1.5.9zm-.8-.5z" fill="#000064" opacity=".15"/><path data-name="stroke" d="M24 40.8V44c0 2-1 5.2-11 7A13.4 13.4 0 0 0 2 62h60a15.5 15.5 0 0 0-12-11c-10-1.9-10-5-10-7v-3.2" fill="none" stroke="#2e4369" stroke-linecap="round" stroke-linejoin="round" stroke-width="2"/><path data-name="stroke" d="M46 25.6c0 10-6.3 18.4-14 18.4s-14-8-14-18v-9.6C18 6 25.4 2 32 2s14 3.6 14 14z" fill="none" stroke="#2e4369" stroke-linecap="round" stroke-linejoin="round" stroke-width="2"/></svg>