<svg xmlns="http://www.w3.org/2000/svg" viewBox="0 0 64 64" aria-labelledby="title" aria-describedby="desc"><path data-name="layer3" d="M50.8 35.7l1.2.5V8.7L45.3 2H42v16.3a1.7 1.7 0 0 1-1.7 1.7H23.7a1.7 1.7 0 0 1-1.7-1.7V2H2v50h8V28h34v4h6.8z" fill="#7f95ad"/><path data-name="layer2" d="M35 49.1a11.9 11.9 0 0 1-.2-2.1 11.7 11.7 0 0 1 .2-2.3L32 43l4-7 3.1 1.8a12 12 0 0 1 3.7-2.1V32H44v-4H10v24h22.2l-.6-1zM23.7 20h16.6a1.7 1.7 0 0 0 1.7-1.7V2H22v16.3a1.7 1.7 0 0 0 1.7 1.7z" fill="#ebf5ff"/><path data-name="opacity" d="M37.8 34v3.1l1.3.8a12 12 0 0 1 3.7-2.1V34zM35 44.7L32 43l1.9-3.3L31 38l-4 7 3 1.7a11.7 11.7 0 0 0-.2 2.3H6V2H2v50h30.2l-.6-1 3.4-1.9a11.4 11.4 0 0 1 .1-4.3z" fill="#000064" opacity=".15"/><path data-name="layer1" d="M58.6 49.1a11.6 11.6 0 0 0 0-4.3l3.1-1.8-4-6.9-3.1 1.8a12 12 0 0 0-3.7-2.1V32h-8v3.7a12 12 0 0 0-3.7 2.1L36 36l-4 7 3 1.7a11.7 11.7 0 0 0-.2 2.3 11.9 11.9 0 0 0 .2 2.1L31.7 51l4 6.9 3.3-1.8a12 12 0 0 0 3.8 2.2V62h8v-3.7a12.1 12.1 0 0 0 3.9-2.3l3.3 2 4-7zM46.8 52a5 5 0 1 1 5-5 5 5 0 0 1-5 5z" fill="#8fa9d8"/><path data-name="stroke" fill="none" stroke="#2e4369" stroke-linecap="round" stroke-miterlimit="10" stroke-width="2" d="M32.2 52H2V2h43.3L52 8.7v27.5" stroke-linejoin="round"/><path data-name="stroke" fill="none" stroke="#2e4369" stroke-linecap="round" stroke-miterlimit="10" stroke-width="2" d="M44 32v-4H10v24m24-42v4m8-12v16.3a1.7 1.7 0 0 1-1.7 1.7H23.7a1.7 1.7 0 0 1-1.7-1.7V2" stroke-linejoin="round"/><circle data-name="stroke" cx="46.8" cy="47" r="5" fill="none" stroke="#2e4369" stroke-linecap="round" stroke-miterlimit="10" stroke-width="2" stroke-linejoin="round"/><path data-name="stroke" d="M62 51l-3.4-2a11.6 11.6 0 0 0 0-4.3l3.1-1.7-4-6.9-3.1 1.8a12 12 0 0 0-3.7-2.1V32h-8v3.7a12 12 0 0 0-3.7 2.1L36 36l-4 7 3 1.7a11.7 11.7 0 0 0-.2 2.3 11.9 11.9 0 0 0 .2 2.1L31.7 51l4 6.9 3.3-1.8a12 12 0 0 0 3.8 2.2V62h8v-3.7a12.1 12.1 0 0 0 3.9-2.3l3.3 2z" fill="none" stroke="#2e4369" stroke-linecap="round" stroke-miterlimit="10" stroke-width="2" stroke-linejoin="round"/></svg>