<svg xmlns="http://www.w3.org/2000/svg" viewBox="0 0 64 64" aria-labelledby="title" aria-describedby="desc"><path data-name="layer2" d="M36.2 49.8c-5.3-2.4-14.7-9.3-17.2-17.6S13.6 18.5 11.9 17s-.5-1.1 0-2 1.4-5.5 1.7-8h3.8a2 2 0 0 0 0-4H3.9a2 2 0 0 0 0 4h2v8c0 .9-2.2 5.7-3.4 11.7S3.9 43 11.9 51s18.5 10 23.4 10c8.2 0 9.4-4 8.8-5.9s-2.7-2.8-7.9-5.3z" fill="#202020"/><path data-name="layer1" d="M57.9 37c-3.3.8-7.5.9-14 0s-9.8-4.7-13.4-7.8-5.6-6.7-8.7-9c-1.1-.8-3-1.3-3.4-3l-1.3-6.4a35.2 35.2 0 0 1-1.1 4.8c3.2 4.3 6 12.7 6.8 15.5 2 6.6 10 12.9 15 15.2l2.3 1a34.6 34.6 0 0 1 3.9 1.9 42.2 42.2 0 0 0 9.3-1.6c3.9-1.3 8-5 8.6-6.6a3.1 3.1 0 0 0-4-4z" fill="#202020"/></svg>