<svg xmlns="http://www.w3.org/2000/svg" viewBox="0 0 64 64" aria-labelledby="title" aria-describedby="desc"><rect data-name="layer1" x="21.058" y="-1.827" width="21.885" height="67.644" rx="4" ry="4" transform="rotate(45 32 31.995)" fill="#d6af9d"/><path data-name="layer1" d="M32 47.469l13.365 13.365a3.991 3.991 0 0 0 5.627 0l9.848-9.848a3.991 3.991 0 0 0 0-5.627L47.475 31.994z" fill="#d6af9d"/><path data-name="opacity" d="M32 47.469l13.365 13.365a3.991 3.991 0 0 0 5.627 0l9.848-9.848a3.991 3.991 0 0 0 0-5.627L47.475 31.994z" fill="#000064" opacity=".16"/><path data-name="layer1" d="M16.525 31.994L3.161 18.63a3.991 3.991 0 0 1 0-5.627l9.848-9.848a3.991 3.991 0 0 1 5.627 0L32 16.52z" fill="#d6af9d"/><path data-name="opacity" fill="#000064" opacity=".16" d="M13.525 28.995L29 13.52l3 3-15.475 15.475z"/><circle data-name="opacity" cx="48.263" cy="8.66" r="1" transform="rotate(-45 48.264 8.66)" fill="#000064" opacity=".16"/><circle data-name="opacity" cx="55.335" cy="15.731" r="1" transform="rotate(-45 55.335 15.73)" fill="#000064" opacity=".16"/><circle data-name="opacity" cx="41.192" cy="15.731" r="1" transform="rotate(-45 41.192 15.732)" fill="#000064" opacity=".16"/><circle data-name="opacity" cx="48.263" cy="15.731" r="1" transform="rotate(-45 48.264 15.73)" fill="#000064" opacity=".16"/><circle data-name="opacity" cx="48.263" cy="22.802" r="1" transform="rotate(-45 48.264 22.802)" fill="#000064" opacity=".16"/><circle data-name="opacity" cx="16.444" cy="40.48" r="1" transform="rotate(-45 16.444 40.48)" fill="#000064" opacity=".16"/><circle data-name="opacity" cx="23.515" cy="47.551" r="1" transform="rotate(-45 23.515 47.55)" fill="#000064" opacity=".16"/><circle data-name="opacity" cx="9.373" cy="47.551" r="1" transform="rotate(-45 9.373 47.55)" fill="#000064" opacity=".16"/><circle data-name="opacity" cx="16.444" cy="47.551" r="1" transform="rotate(-45 16.444 47.55)" fill="#000064" opacity=".16"/><circle data-name="opacity" cx="16.444" cy="54.622" r="1" transform="rotate(-45 16.444 54.622)" fill="#000064" opacity=".16"/><rect data-name="opacity" x="25.293" y="21.287" width="17.414" height="17.414" rx="2" ry="2" transform="rotate(-45 34 29.995)" fill="#fff" opacity=".25"/><path data-name="stroke" d="M47.475 31.994l13.364 13.365a3.991 3.991 0 0 1 0 5.627l-9.848 9.848a3.991 3.991 0 0 1-5.627 0L32 47.469M16.525 31.994L3.161 18.63a3.991 3.991 0 0 1 0-5.627l9.848-9.848a3.991 3.991 0 0 1 5.627 0L32 16.52" fill="none" stroke="#2e4369" stroke-linecap="round" stroke-miterlimit="10" stroke-width="2" stroke-linejoin="round"/><rect data-name="stroke" x="21.058" y="-1.827" width="21.885" height="67.644" rx="4" ry="4" transform="rotate(45 32 31.995)" fill="none" stroke="#2e4369" stroke-linecap="round" stroke-miterlimit="10" stroke-width="2" stroke-linejoin="round"/><path data-name="stroke" fill="none" stroke="#2e4369" stroke-linecap="round" stroke-miterlimit="10" stroke-width="2" d="M28.186 43.656l-7.803-7.804m15.431-15.519l7.847 7.848" stroke-linejoin="round"/><circle data-name="stroke" cx="48.263" cy="8.66" r="1" transform="rotate(-45 48.264 8.66)" fill="none" stroke="#2e4369" stroke-linecap="round" stroke-miterlimit="10" stroke-width="2" stroke-linejoin="round"/><circle data-name="stroke" cx="55.335" cy="15.731" r="1" transform="rotate(-45 55.335 15.73)" fill="none" stroke="#2e4369" stroke-linecap="round" stroke-miterlimit="10" stroke-width="2" stroke-linejoin="round"/><circle data-name="stroke" cx="41.192" cy="15.731" r="1" transform="rotate(-45 41.192 15.732)" fill="none" stroke="#2e4369" stroke-linecap="round" stroke-miterlimit="10" stroke-width="2" stroke-linejoin="round"/><circle data-name="stroke" cx="48.263" cy="15.731" r="1" transform="rotate(-45 48.264 15.73)" fill="none" stroke="#2e4369" stroke-linecap="round" stroke-miterlimit="10" stroke-width="2" stroke-linejoin="round"/><circle data-name="stroke" cx="48.263" cy="22.802" r="1" transform="rotate(-45 48.264 22.802)" fill="none" stroke="#2e4369" stroke-linecap="round" stroke-miterlimit="10" stroke-width="2" stroke-linejoin="round"/><circle data-name="stroke" cx="16.444" cy="40.48" r="1" transform="rotate(-45 16.444 40.48)" fill="none" stroke="#2e4369" stroke-linecap="round" stroke-miterlimit="10" stroke-width="2" stroke-linejoin="round"/><circle data-name="stroke" cx="23.515" cy="47.551" r="1" transform="rotate(-45 23.515 47.55)" fill="none" stroke="#2e4369" stroke-linecap="round" stroke-miterlimit="10" stroke-width="2" stroke-linejoin="round"/><circle data-name="stroke" cx="9.373" cy="47.551" r="1" transform="rotate(-45 9.373 47.55)" fill="none" stroke="#2e4369" stroke-linecap="round" stroke-miterlimit="10" stroke-width="2" stroke-linejoin="round"/><circle data-name="stroke" cx="16.444" cy="47.551" r="1" transform="rotate(-45 16.444 47.55)" fill="none" stroke="#2e4369" stroke-linecap="round" stroke-miterlimit="10" stroke-width="2" stroke-linejoin="round"/><circle data-name="stroke" cx="16.444" cy="54.622" r="1" transform="rotate(-45 16.444 54.622)" fill="none" stroke="#2e4369" stroke-linecap="round" stroke-miterlimit="10" stroke-width="2" stroke-linejoin="round"/></svg>