<svg xmlns="http://www.w3.org/2000/svg" viewBox="0 0 64 64" aria-labelledby="title" aria-describedby="desc"><path data-name="layer3" d="M36 2h-8v10h8V2z" fill="#f9d28c"/><path data-name="layer2" d="M17.8 54c.3 2.2.7 4.2.8 5.2A3.8 3.8 0 0 0 22 62h20a3.8 3.8 0 0 0 3.4-2.8c.2-1 .5-3 .8-5.2M28 12v12c0 3.6-4.3 8.5-7.4 11.4S15.8 40.3 16 42l.3 2h31.4l.3-2c.2-1.7-1.5-3.6-4.6-6.6S36 27.6 36 24V12" fill="#c66d80"/><path data-name="layer1" d="M16.3 44c.4 2.5.9 6.6 1.5 10h28.4c.5-3.4 1.1-7.5 1.5-10z" fill="#d5e2f4"/><path data-name="opacity" d="M35 12V2h-2v10zm6.4 47.2c.2-1 .5-3 .8-5.2h-6c-.3 2.2-.7 4.2-.8 5.2A3.8 3.8 0 0 1 32 62h6a3.8 3.8 0 0 0 3.4-2.8zM33 24a22.5 22.5 0 0 0 3.4 11.4c2.5 4 1.9 4.9 1.6 6.6l-.3 2h6l.3-2c.2-1.7-1.5-3.6-4.6-6.6S35 27.6 35 24V12h-2v12zm3.2 30h9c.5-3.4 1.1-7.5 1.5-10h-9c-.3 2.4-.9 6.5-1.5 10z" fill="#fff" opacity=".5"/><path data-name="opacity" d="M31 2h-3v10h3V2zM21 42c-.2-1.7 1.5-3.6 4.6-6.6S31 27.6 31 24V12h-3v12c0 3.6-4.3 8.5-7.4 11.4S15.8 40.3 16 42l.3 2h5zm-4.7 2c.4 2.5.9 6.6 1.5 10h5c-.5-3.4-1.1-7.5-1.5-10zm7.3 15.2c-.2-1-.5-3-.8-5.2h-5c.3 2.2.7 4.2.8 5.2A3.8 3.8 0 0 0 22 62h5a3.8 3.8 0 0 1-3.4-2.8z" fill="#101129" opacity=".25"/><path data-name="stroke" d="M36 2h-8v10h8V2zM17.8 54c.3 2.2.7 4.2.8 5.2A3.8 3.8 0 0 0 22 62h20a3.8 3.8 0 0 0 3.4-2.8c.2-1 .5-3 .8-5.2M28 12v12c0 3.6-4.3 8.5-7.4 11.4S15.8 40.3 16 42l.3 2h31.4l.3-2c.2-1.7-1.5-3.6-4.6-6.6S36 27.7 36 24V12M16.3 44c.4 2.5.9 6.6 1.5 10h28.4c.5-3.4 1.1-7.5 1.5-10z" fill="none" stroke="#2f446a" stroke-linecap="round" stroke-linejoin="round" stroke-width="2"/></svg>