<svg xmlns="http://www.w3.org/2000/svg" viewBox="0 0 64 64" aria-labelledby="title" aria-describedby="desc"><path data-name="layer4" d="M39.4 28.3c-1.2-1.1-1.7-3.1-1.8-6.8 0-.9-.1-2.2-.2-3.6H26.6c-.1 1.4-.2 2.7-.2 3.6-.1 3.7-.5 5.7-1.8 6.8A8.2 8.2 0 0 0 22 34v24c0 2 1.8 4 5.6 4h8.8c3.8 0 5.6-2 5.6-4V34a8.2 8.2 0 0 0-2.6-5.7z" fill="#68963f"/><path data-name="layer3" d="M38 6V4a2 2 0 0 0-2-2h-8a2 2 0 0 0-2 2v2z" fill="#f9d28c"/><path data-name="layer2" d="M28 6c-.3 1.7-1 7.6-1.4 12h10.8C37 13.6 36.3 7.7 36 6" fill="#8caf61"/><path data-name="opacity" d="M27 58V34a12.8 12.8 0 0 1 1.3-5.7c.6-1.1.8-3.1.9-6.8 0-.9.1-2.2.1-3.6h-2.7c-.1 1.4-.2 2.7-.2 3.6-.1 3.7-.5 5.7-1.8 6.8A8.2 8.2 0 0 0 22 34v24c0 2 1.8 4 5.6 4h2.2c-1.9 0-2.8-2-2.8-4z" fill="#101129" opacity=".25"/><path data-name="opacity" d="M39.4 28.3c-1.2-1.1-1.7-3.1-1.8-6.8 0-.9-.1-2.2-.2-3.6h-2.7c.1 1.4.1 2.7.1 3.6 0 3.7.3 5.7.9 6.8A12.8 12.8 0 0 1 37 34v24c0 2-.9 4-2.8 4h2.2c3.8 0 5.6-2 5.6-4V34a8.2 8.2 0 0 0-2.6-5.7z" fill="#fff" opacity=".5"/><path data-name="opacity" d="M29 4c0-1.1.4-2 1-2h-2a2 2 0 0 0-2 2v2h3z" fill="#101129" opacity=".25"/><path data-name="opacity" d="M35 4v2h3V4a2 2 0 0 0-2-2h-2c.6 0 1 .9 1 2zm-1 2c.1 1.7.5 7.6.7 12h2.7C37 13.6 36.3 7.7 36 6h-2z" fill="#fff" opacity=".5"/><path data-name="opacity" d="M30 6h-2c-.3 1.7-1 7.6-1.4 12h2.7c.2-4.4.6-10.3.7-12z" fill="#101129" opacity=".25"/><ellipse data-name="layer1" cx="32" cy="40" rx="6" ry="8" fill="#d5e2f4"/><ellipse data-name="stroke" cx="32" cy="40" rx="6" ry="8" fill="none" stroke="#2f446a" stroke-linecap="round" stroke-linejoin="round" stroke-width="2"/><path data-name="stroke" d="M38 6V4a2 2 0 0 0-2-2h-8a2 2 0 0 0-2 2v2zM28 6c-.3 1.7-1 7.6-1.4 12h10.8C37 13.6 36.3 7.7 36 6" fill="none" stroke="#2f446a" stroke-linecap="round" stroke-linejoin="round" stroke-width="2"/><path data-name="stroke" d="M39.4 28.3c-1.2-1.1-1.7-3.1-1.8-6.8 0-.9-.1-2.2-.2-3.6H26.6c-.1 1.4-.2 2.7-.2 3.6-.1 3.7-.5 5.7-1.8 6.8A8.2 8.2 0 0 0 22 34v24c0 2 1.8 4 5.6 4h8.8c3.8 0 5.6-2 5.6-4V34a8.2 8.2 0 0 0-2.6-5.7z" fill="none" stroke="#2f446a" stroke-linecap="round" stroke-linejoin="round" stroke-width="2"/></svg>