<svg xmlns="http://www.w3.org/2000/svg" viewBox="0 0 64 64" aria-labelledby="title" aria-describedby="desc"><path data-name="layer3" d="M44 7.8a7.9 7.9 0 0 0-2.3.4 6 6 0 0 0-9.1-3.1A11 11 0 0 0 15.2 8H15a9 9 0 0 0-3 17.5V22h36v.7a8 8 0 0 0-4-14.9z" fill="#fbe9c7"/><path data-name="layer2" d="M48 50h4a6 6 0 0 0 6-6V32a6 6 0 0 0-6-6h-4v4h4a2 2 0 0 1 2 2v12a2 2 0 0 1-2 2h-4z" fill="#d5e2f4"/><path data-name="layer1" d="M12 22v37a3 3 0 0 0 3 3h30a3 3 0 0 0 3-3V22z" fill="#f4d44d"/><path data-name="opacity" d="M34 22v37a3 3 0 0 1-3 3h7a3 3 0 0 0 3-3V22z" fill="#fff" opacity=".5"/><path data-name="opacity" d="M20 59V22h-8v37a3 3 0 0 0 3 3h8a3 3 0 0 1-3-3z" fill="#101129" opacity=".25"/><path data-name="stroke" d="M48 22v37a3 3 0 0 1-3 3H15a3 3 0 0 1-3-3V22zM30 32v20M20 32v20m20-20v20m8-26h4a6 6 0 0 1 6 6v12a6 6 0 0 1-6 6h-4" fill="none" stroke="#2f446a" stroke-linecap="round" stroke-linejoin="round" stroke-width="2"/><path data-name="stroke" d="M48 46h4a2 2 0 0 0 2-2V32a2 2 0 0 0-2-2h-4m0-7.3a8 8 0 0 0-4-14.9 7.9 7.9 0 0 0-2.3.4 6 6 0 0 0-9.1-3.1A11 11 0 0 0 15.2 8H15a9 9 0 0 0-3 17.5" fill="none" stroke="#2f446a" stroke-linecap="round" stroke-linejoin="round" stroke-width="2"/></svg>