<svg xmlns="http://www.w3.org/2000/svg" viewBox="0 0 64 64" aria-labelledby="title" aria-describedby="desc"><path data-name="layer2" d="M40.1 27.6c-.9-.8-1.3-2.5-1.4-6 0-.4 0-1-.1-1.5H25.4c0 .6-.1 1.1-.1 1.5-.1 3.5-.5 5.2-1.4 6A9.2 9.2 0 0 0 21 34v24c0 2.4 2.1 5 6.6 5h8.8c4.5 0 6.6-2.6 6.6-5V34a9.2 9.2 0 0 0-2.9-6.4zM32 48c-3.3 0-6-3.6-6-8s2.7-8 6-8 6 3.6 6 8-2.7 8-6 8z" fill="#202020"/><path data-name="layer1" d="M26 6.2h1c-.3 1.8-.8 6-1.2 9.8h12.4c-.4-3.8-.9-8-1.2-9.8h1a1 1 0 0 0 1-1V4a3 3 0 0 0-3-3h-8a3 3 0 0 0-3 3v1.2a1 1 0 0 0 1 1z" fill="#202020"/></svg>