<svg viewBox="0 0 64 64" xmlns="http://www.w3.org/2000/svg" aria-labelledby="title" aria-describedby="desc"><path fill="#9cf" d="M30 44h.039L27 42l12.242-1L42 32.933V18H10a8 8 0 0 1-8-8v38a8 8 0 0 0 8 8h24.442l2.473-7.448z" data-name="layer3"/><path fill="#fff" d="M41 18H10a8 8 0 0 1 0-16h31z" data-name="layer2"/><path opacity=".15" fill="#000064" d="M10 2a7.972 7.972 0 0 0-7.735 10A8 8 0 0 1 10 6h31V2z" data-name="opacity"/><path opacity=".15" fill="#000064" d="M2 10v38a8 8 0 0 0 7 7.931v-38A8 8 0 0 1 2 10z" data-name="opacity"/><path d="M43 52.885L33.113 60l3.809-11.471L27 42l12.242-1L43 30l3.758 11L59 42l-9.918 6.529L52.891 60 43 52.885z" fill="#fce349" data-name="layer1"/><path d="M34.802 41.363l4.44-.363.916-2.682L38 32l-3.198 9.363zm2.113 7.187L30 44h.039l-.888-.584L22 44l9.922 6.529-1.816 5.469h4.336l2.473-7.448z" opacity=".15" fill="#000064" data-name="opacity"/><path d="M9.997 9.999H41M34.442 56H10a8 8 0 0 1-8-8V10" stroke-width="2" stroke-miterlimit="10" stroke-linecap="round" stroke="#2e4369" fill="none" data-name="stroke" stroke-linejoin="round"/><path stroke-width="2" stroke-miterlimit="10" stroke-linecap="round" stroke="#2e4369" fill="none" d="M41.992 32.5V18H10a8 8 0 0 1 0-16h31v16" data-name="stroke" stroke-linejoin="round"/><path d="M43 52.885L33.113 60l3.809-11.471L27 42l12.242-1L43 30l3.758 11L59 42l-9.918 6.529L52.891 60 43 52.885z" stroke-width="2" stroke-miterlimit="10" stroke-linecap="round" stroke="#2e4369" fill="none" data-name="stroke" stroke-linejoin="round"/></svg>