<svg xmlns="http://www.w3.org/2000/svg" viewBox="0 0 64 64" aria-labelledby="title" aria-describedby="desc"><path data-name="layer2" fill="#c3e8a3" d="M12.2 38l5.9-16H45L32.2 38h-20z"/><path data-name="layer1" d="M12 32a6 6 0 1 1-6 6 6 6 0 0 1 6-6m0-4a10 10 0 1 0 10 10 10 10 0 0 0-10-10zm40 4a6 6 0 1 1-6 6 6 6 0 0 1 6-6m0-4a10 10 0 1 0 10 10 10 10 0 0 0-10-10z" fill="#7b8baf"/><circle data-name="stroke" cx="12" cy="38" r="10" fill="none" stroke="#2e4369" stroke-linecap="round" stroke-linejoin="round" stroke-width="2"/><circle data-name="stroke" cx="52" cy="38" r="10" fill="none" stroke="#2e4369" stroke-linecap="round" stroke-linejoin="round" stroke-width="2"/><path data-name="stroke" fill="none" stroke="#2e4369" stroke-linecap="round" stroke-linejoin="round" stroke-width="2" d="M12.2 38l5.9-16H45L32.2 38h-20zm20 0L18.1 22m-3.9-6h8"/><path data-name="stroke" fill="none" stroke="#2e4369" stroke-linecap="round" stroke-linejoin="round" stroke-width="2" d="M36.2 14h8l8 24"/></svg>