<svg xmlns="http://www.w3.org/2000/svg" viewBox="0 0 64 64" aria-labelledby="title" aria-describedby="desc"><path data-name="layer1" d="M27.96 18.247l5.7 13.105a.5.5 0 0 0 .273.265l7.341 2.939a.5.5 0 0 1 .057.9L12.986 51.2a.5.5 0 0 1-.6-.787l11.22-11.477a.5.5 0 0 0 .142-.35V8.083a.5.5 0 0 0-.312-.463L10.3 2.274a.5.5 0 0 0-.688.463v50.238a.5.5 0 0 0 .24.427l14.077 8.592 33.702-20.135a.5.5 0 0 0 .244-.429V28.015a.5.5 0 0 0-.337-.473l-28.957-9.968a.5.5 0 0 0-.621.673zm-.453-1.047" fill="none" stroke="#202020" stroke-linecap="round" stroke-miterlimit="10" stroke-width="2" stroke-linejoin="round"/></svg>