<svg xmlns="http://www.w3.org/2000/svg" viewBox="0 0 64 64" aria-labelledby="title" aria-describedby="desc"><path data-name="layer2" d="M20 42a5 5 0 0 1-5 5 2 2 0 0 0 0 4 9 9 0 0 0 9-9 2 2 0 0 0-4 0zm34 0a5 5 0 0 1-5 5 2 2 0 0 0 0 4 9 9 0 0 0 9-9 2 2 0 0 0-4 0z" fill="#202020"/><path data-name="layer1" d="M62.8 36.2L52.3 12.9l-.3-.6h-.1A9.7 9.7 0 0 0 43.5 7a9.5 9.5 0 0 0-9.4 8.2 12.2 12.2 0 0 0-4.2 0A9.5 9.5 0 0 0 20.5 7a9.7 9.7 0 0 0-8.5 5.2l-.3.6L1.2 36.2A15 15 0 1 0 30 42V31.3a8.1 8.1 0 0 1 4 0V42a15 15 0 1 0 28.8-5.8zM15 53a11 11 0 1 1 11-11 11 11 0 0 1-11 11zm34 0a11 11 0 1 1 11-11 11 11 0 0 1-11 11z" fill="#202020"/></svg>