<svg xmlns="http://www.w3.org/2000/svg" viewBox="0 0 64 64" aria-labelledby="title" aria-describedby="desc"><path data-name="layer2" fill="none" stroke="#202020" stroke-linecap="round" stroke-linejoin="round" stroke-width="2" d="M58 39.8v18.7m-52 0v-25m26-17v10m-16-10v10m32-10v10m14 32v2a2 2 0 0 1-2 2H4a2 2 0 0 1-2-2v-2z"/><path data-name="layer1" d="M6 33.5v-5a2 2 0 0 1 2-2h48a2 2 0 0 1 2 2v11.3M6 33.5a7 7 0 0 0 7 7c3.9 0 7-2.1 7-6m0 0c0 3.9 3.1 6 7 6s7-2.1 7-6m0 0c0 3.9 3.1 6 7 6s7-2.1 7-6m0 0c0 3.9 3.1 6 7 6a7 7 0 0 0 3-.7M19 7.5a7.3 7.3 0 0 0-3-6s-3 2.7-3 6a3 3 0 0 0 5.9.9 2.6 2.6 0 0 0 .1-.9zm16 0a7.3 7.3 0 0 0-3-6s-3 2.7-3 6a3 3 0 0 0 5.9.9 2.6 2.6 0 0 0 .1-.9zm16 0a7.3 7.3 0 0 0-3-6s-3 2.7-3 6a3 3 0 0 0 5.9.9 2.6 2.6 0 0 0 .1-.9z" fill="none" stroke="#202020" stroke-linecap="round" stroke-linejoin="round" stroke-width="2"/></svg>