<svg xmlns="http://www.w3.org/2000/svg" viewBox="0 0 64 64" aria-labelledby="title" aria-describedby="desc"><path data-name="layer1" d="M62 56.5h-4v-4.8a11.1 11.1 0 0 1-3.9.8 8.6 8.6 0 0 1-3.7-1.2 6.7 6.7 0 0 0-2.4-.8 5.7 5.7 0 0 0-2.2.8 8.4 8.4 0 0 1-3.8 1.2 8.2 8.2 0 0 1-3.8-1.2 5.7 5.7 0 0 0-2.2-.8 5.7 5.7 0 0 0-2.2.8 8.2 8.2 0 0 1-3.8 1.2 8.9 8.9 0 0 1-3.9-1.2 6.2 6.2 0 0 0-2.1-.8 6.2 6.2 0 0 0-2.1.8 8.9 8.9 0 0 1-3.9 1.2 9.1 9.1 0 0 1-4-1.2 6.5 6.5 0 0 0-2-.8 5.8 5.8 0 0 0-2.2.8A8.4 8.4 0 0 1 6 52.5v4H2a2 2 0 0 0 0 4h60a2 2 0 0 0 0-4zm-30-47a2 2 0 0 0 2-2v-2a2 2 0 1 0-4 0v2a2 2 0 0 0 2 2z" fill="#202020"/><path data-name="layer2" d="M12 46.5a8.8 8.8 0 0 1 3.8 1.2 6.5 6.5 0 0 0 2.2.8 6.3 6.3 0 0 0 2.1-.8 8.8 8.8 0 0 1 3.9-1.2 8.8 8.8 0 0 1 3.8 1.2 6.3 6.3 0 0 0 2.2.8 5.4 5.4 0 0 0 2-.7 8.8 8.8 0 0 1 4-1.3 8.8 8.8 0 0 1 4 1.3 5.4 5.4 0 0 0 2 .7 5.6 5.6 0 0 0 2-.8 8.7 8.7 0 0 1 4-1.2 9.5 9.5 0 0 1 4.1 1.2 6.5 6.5 0 0 0 2 .8 8.1 8.1 0 0 0 3-.8l.9-.2v-2a5 5 0 0 0-5-5H11a5 5 0 0 0-5 5v3a5.7 5.7 0 0 0 2-.8 8.7 8.7 0 0 1 4-1.2z" fill="#202020"/><path data-name="layer1" d="M52 34.5a5 5 0 0 0-5-5h-1v-4a5 5 0 0 0-5-5h-7v-7a2 2 0 1 0-4 0v7h-7a5 5 0 0 0-5 5v4h-1a5 5 0 0 0-5 5v2h40z" fill="#202020"/></svg>