<svg viewBox="0 0 64 64" xmlns="http://www.w3.org/2000/svg" aria-labelledby="title" aria-describedby="desc"><path fill="#f26950" d="M19 7.5a7.343 7.343 0 0 0-3-6s-3 2.68-3 6a2.993 2.993 0 0 0 5.859.867A2.586 2.586 0 0 0 19 7.5zm16 0a7.343 7.343 0 0 0-3-6s-3 2.68-3 6a2.993 2.993 0 0 0 5.859.867A2.589 2.589 0 0 0 35 7.5zm16 0a7.343 7.343 0 0 0-3-6s-3 2.68-3 6a2.993 2.993 0 0 0 5.859.867A2.586 2.586 0 0 0 51 7.5z" data-name="layer4"/><path fill="#c4d3e0" d="M62 58.5v2a2 2 0 0 1-2 2H4a2 2 0 0 1-2-2v-2z" data-name="layer3"/><path fill="#f6b36d" d="M48 34.5c0 3.867-3.133 6-7 6s-7-2.133-7-6c0 3.867-3.133 6-7 6s-7-2.133-7-6c0 3.867-3.133 6-7 6a7 7 0 0 1-7-6.961V58.5h52V39.83a6.982 6.982 0 0 1-3 .674c-3.865-.004-7-2.133-7-6.004z" data-name="layer2"/><path fill="#f3f7fc" d="M56 26.5H8a2 2 0 0 0-2 2v5.041a7 7 0 0 0 7 6.959c3.867 0 7-2.133 7-6 0 3.867 3.135 6 7 6s7-2.133 7-6c0 3.867 3.135 6 7 6s7-2.133 7-6c0 3.867 3.135 6 7 6a6.982 6.982 0 0 0 3-.674V28.5a2 2 0 0 0-2-2z" data-name="layer1"/><path opacity=".25" fill="#fff" d="M51.995 40.01V58.5H58V39.83a6.982 6.982 0 0 1-3 .674 8.978 8.978 0 0 1-3.005-.494z" data-name="opacity"/><path opacity=".25" fill="#fff" d="M56 26.5h-6.005a2 2 0 0 1 2 2v11.51A8.978 8.978 0 0 0 55 40.5a6.982 6.982 0 0 0 3-.674V28.5a2 2 0 0 0-2-2z" data-name="opacity"/><path opacity=".18" fill="#101129" d="M13 40.5a7 7 0 0 1-7-6.961V58.5h7.007v-18z" data-name="opacity"/><path opacity=".18" fill="#101129" d="M13 40.5h.009v-12a2 2 0 0 1 2-2H8a2 2 0 0 0-2 2v5.041a7 7 0 0 0 7 6.959z" data-name="opacity"/><path stroke-width="2" stroke-linejoin="round" stroke-linecap="round" stroke="#2f446a" fill="none" d="M6 58.5v-30a2 2 0 0 1 2-2h48a2 2 0 0 1 2 2v30" data-name="stroke"/><path stroke-width="2" stroke-linejoin="round" stroke-linecap="round" stroke="#2f446a" fill="none" d="M6 33.5a7 7 0 0 0 7 7c3.867 0 7-2.133 7-6m0 0c0 3.867 3.135 6 7 6s7-2.133 7-6m0 0c0 3.867 3.135 6 7 6s7-2.133 7-6m0 0c0 3.867 3.135 6 7 6a6.989 6.989 0 0 0 3-.676M31.999 16.496v9.998m-16.002-9.998v9.998m32.004-9.998v9.998M19 7.5a7.343 7.343 0 0 0-3-6s-3 2.68-3 6a3 3 0 0 0 6 0zm16 0a7.343 7.343 0 0 0-3-6s-3 2.68-3 6a3 3 0 0 0 6 0zm16 0a7.343 7.343 0 0 0-3-6s-3 2.68-3 6a3 3 0 0 0 6 0zm11 50.994v2a2 2 0 0 1-2 2H4a2 2 0 0 1-2-2v-2z" data-name="stroke"/></svg>