<svg xmlns="http://www.w3.org/2000/svg" viewBox="0 0 64 64" aria-labelledby="title" aria-describedby="desc"><path data-name="layer2" fill="none" stroke="#202020" stroke-linecap="round" stroke-linejoin="round" stroke-width="2" d="M58 50v9M6 59v-7.9M2 59h60M32 21v-8m0-6V5"/><path data-name="layer1" d="M12 41v-5a5 5 0 0 1 5-5h30a5 5 0 0 1 5 5v5M18 31v-5a5 5 0 0 1 5-5h18a5 5 0 0 1 5 5v5M6 51.1V46a5 5 0 0 1 5-5h42a5 5 0 0 1 5 5v4m0 0a10.2 10.2 0 0 1-3.9 1c-1.9 0-4-2-6.1-2s-4 2-6 2-3.8-2-6-2-4 2-6 2-4.1-2-6-2-4 2-6 2-4.1-2-6-2-4 2-6 2" fill="none" stroke="#202020" stroke-linecap="round" stroke-linejoin="round" stroke-width="2"/></svg>