<svg xmlns="http://www.w3.org/2000/svg" viewBox="0 0 64 64" aria-labelledby="title" aria-describedby="desc"><path data-name="layer1" d="M15.6 4.5h26a2 2 0 0 0 0-4h-26a2 2 0 0 0 0 4z" fill="#202020"/><path data-name="layer2" d="M44.6 12.5h-.2l.3-6H12.5l2 35h28.2v-1h1.8a10 10 0 0 0 10-10v-8a10 10 0 0 0-9.9-10zm-4.1-2l-.6 10H17.3l-.6-10zm10.1 20a6 6 0 0 1-6 6H43l1.1-20h.4a6 6 0 0 1 6 6z" fill="#202020"/><circle data-name="layer2" cx="28.6" cy="54.5" r="2" fill="#202020"/><path data-name="layer1" d="M44.4 45.5H12.8L9.7 58.1a4.5 4.5 0 0 0 .5 3.9 4.1 4.1 0 0 0 3.4 1.4h30A4.2 4.2 0 0 0 47 62a4.1 4.1 0 0 0 .5-3.7zm-15.8 15a6 6 0 1 1 6-6 6 6 0 0 1-6 6z" fill="#202020"/></svg>