<svg xmlns="http://www.w3.org/2000/svg" viewBox="0 0 64 64" aria-labelledby="title" aria-describedby="desc"><path data-name="layer1" d="M58.156 24.5h-3.375a4.227 4.227 0 0 1-4.031-3.75C50.75 10.063 42.125 2 31.344 2H21.5A19.405 19.405 0 0 0 2 21.406v21.282A19.386 19.386 0 0 0 21.5 62h21A19.405 19.405 0 0 0 62 42.594V28.906c0-2.156-1.687-4.406-3.844-4.406z" fill="none" stroke="#202020" stroke-linecap="round" stroke-miterlimit="10" stroke-width="2" stroke-linejoin="round"/><path data-name="layer1" d="M20.75 17H32a3.75 3.75 0 0 1 0 7.5H20.75a3.75 3.75 0 0 1 0-7.5zm22.5 30h-22.5a3.75 3.75 0 0 1 0-7.5h22.5a3.75 3.75 0 0 1 0 7.5z" fill="none" stroke="#202020" stroke-linecap="round" stroke-miterlimit="10" stroke-width="2" stroke-linejoin="round"/></svg>