<svg xmlns="http://www.w3.org/2000/svg" viewBox="0 0 64 64" aria-labelledby="title" aria-describedby="desc"><path data-name="layer2" d="M64 40a9.7 9.7 0 0 0-4.9 1.2l-.5.3h-.1l-1 .3H56a5.8 5.8 0 0 1-3.1-.8 10.5 10.5 0 0 0-9.8 0 6.5 6.5 0 0 1-6.2 0 9.7 9.7 0 0 0-4.9-1 9.7 9.7 0 0 0-4.9 1.2 5.8 5.8 0 0 1-3.1.8 5.8 5.8 0 0 1-3.1-.8A9.7 9.7 0 0 0 16 40a9.7 9.7 0 0 0-4.9 1.2A5.8 5.8 0 0 1 8 42a5.8 5.8 0 0 1-3.1-.8A9.7 9.7 0 0 0 0 40a2 2 0 0 0-2 2 2 2 0 0 0 2 2 5.8 5.8 0 0 1 3.1.8A9.7 9.7 0 0 0 8 46a9.7 9.7 0 0 0 4.9-1.2A5.8 5.8 0 0 1 16 44a5.8 5.8 0 0 1 3.1.8A9.7 9.7 0 0 0 24 46a9.7 9.7 0 0 0 4.9-1.2A5.8 5.8 0 0 1 32 44a5.8 5.8 0 0 1 3.1.8 10.5 10.5 0 0 0 9.8 0 6.5 6.5 0 0 1 6.2 0A9.7 9.7 0 0 0 56 46h.9l1.4-.2h.1l.6-.2.5-.2h.7l.7-.3A5.8 5.8 0 0 1 64 44a2 2 0 0 0 0-4zM48.5 24L44 18H31.4l3.6 6h13.5z" fill="#202020"/><path data-name="layer1" d="M3.6 36.4a14.9 14.9 0 0 1 3.1 1.2A2 2 0 0 0 8 38a2 2 0 0 0 1.3-.4A13.7 13.7 0 0 1 16 36a13.7 13.7 0 0 1 6.7 1.6 2 2 0 0 0 1.3.4 2 2 0 0 0 1.3-.4A13.7 13.7 0 0 1 32 36a13.7 13.7 0 0 1 6.7 1.6 2.6 2.6 0 0 0 2.6 0A13.7 13.7 0 0 1 48 36a13.5 13.5 0 0 1 5.9 1.3l4.9-5c1.3-1.3 1.1-2.9-.1-3.3l-2.9-1h-21a2 2 0 0 1-1.7-1l-5.5-9H19l6 10H0z" fill="#202020"/></svg>