<svg xmlns="http://www.w3.org/2000/svg" viewBox="0 0 64 64" aria-labelledby="title" aria-describedby="desc"><path data-name="layer1" d="M59 29h-2.6a24.5 24.5 0 0 0-5-12.1l2.5-2.6a3 3 0 0 0-4.2-4.2l-2.5 2.5a24.5 24.5 0 0 0-12.2-5V5a3 3 0 0 0-6 0v2.6a24.5 24.5 0 0 0-12.1 5l-2.5-2.5a3 3 0 1 0-4.3 4.2l2.5 2.6a24.5 24.5 0 0 0-5 12.1H5a3 3 0 0 0 0 6h2.6a24.5 24.5 0 0 0 5 12.1l-2.5 2.5a3 3 0 0 0 4.2 4.2l2.6-2.5a24.5 24.5 0 0 0 12.1 5V59a3 3 0 0 0 6 0v-2.6a24.5 24.5 0 0 0 12.1-5l2.6 2.5a3 3 0 0 0 4.2-4.3l-2.5-2.5a24.5 24.5 0 0 0 5-12.1H59a3 3 0 0 0 0-6zm-8.7 0h-8.8a9.9 9.9 0 0 0-.7-1.6l6.2-6.2a18.5 18.5 0 0 1 3.3 7.8zM32 36a4 4 0 1 1 4-4 4 4 0 0 1-4 4zm10.9-19.1l-6.2 6.2-1.7-.6v-8.8a18.5 18.5 0 0 1 7.9 3.2zM29 13.7v8.8l-1.7.7-6.2-6.2a18.5 18.5 0 0 1 7.9-3.3zm-12.1 7.5l6.2 6.3a9.9 9.9 0 0 0-.6 1.5h-8.8a18.5 18.5 0 0 1 3.2-7.8zM13.7 35h8.8a9.9 9.9 0 0 0 .7 1.6L17 42.8a18.5 18.5 0 0 1-3.3-7.8zm7.5 12.1l6.2-6.2 1.6.7v8.8a18.5 18.5 0 0 1-7.8-3.3zM35 50.3v-8.8l1.5-.6 6.3 6.2a18.5 18.5 0 0 1-7.8 3.2zm12.1-7.5l-6.2-6.2a9.9 9.9 0 0 0 .7-1.7h8.8a18.5 18.5 0 0 1-3.3 8z" fill="#c69483"/><path data-name="opacity" d="M47.1 21.2a18.5 18.5 0 0 1 2.8 5.8h2.4a18.5 18.5 0 0 0-3.2-7.8zm-8.5 0l6.2-6.2a18.5 18.5 0 0 0-7.8-3.3v2.4a18.5 18.5 0 0 1 5.9 2.8l-4.2 4.2zm-.1 17.7l-1.5.6v1.8l5.3 5.2 2.5-1.5zM31 11.7a18.5 18.5 0 0 0-7.9 3.3l.5.5a18.5 18.5 0 0 1 5.4-1.8v7.2l.3.3 1.7-.7zm0 36.6v-8.8l-1.6-.7-6.2 6.2 4.2-4.2 1.6.7v6.4zm-7.9-11.7l2-2a9.9 9.9 0 0 1-.7-1.6h-8.7a18.5 18.5 0 0 0 .4 2h6.4a9.9 9.9 0 0 0 .6 1.6zm2-11.1l-6.2-6.3a18.5 18.5 0 0 0-1.5 2.5l5.2 5.3h1.8a9.9 9.9 0 0 1 .7-1.5zm28.7 27.3a3 3 0 0 1-2.1-.9l-2.6-2.5a24.5 24.5 0 0 1-12.1 5v1.7a24.5 24.5 0 0 0 10.1-4.7l2.6 2.5a3 3 0 0 0 5-1.3zM34 60a3 3 0 0 1-3-3v-2.6a24.5 24.5 0 0 1-12.1-5l-2.6 2.5a3 3 0 0 1-4.3-4.2l-2 2a3 3 0 0 0 4.2 4.2l2.6-2.5a24.5 24.5 0 0 0 12.1 5V59a3 3 0 0 0 5.9.9zm15.1-19.1a18.5 18.5 0 0 0 3.2-7.9h-8.8a9.9 9.9 0 0 1-.7 1.7l.3.3h7.2a18.5 18.5 0 0 1-1.8 5.4zM61 33h-2.6c-.1.7-.2 1.3-.3 2h.9a3 3 0 0 0 2.9-2.1zM14.6 45.1a24.5 24.5 0 0 1-5-12.1H7a3 3 0 0 1-3-3 3 3 0 0 1 .1-.9A3 3 0 0 0 5 35h2.6a24.5 24.5 0 0 0 5 12.1zm-2-28.2A24.5 24.5 0 0 0 7.9 27h1.7a24.5 24.5 0 0 1 5-12.1l-2.5-2.6a3 3 0 0 1-.7-3 3 3 0 0 0-1.3 5z" fill="#000064" opacity=".15"/><path data-name="stroke" d="M59 28.8h-2.6a24.5 24.5 0 0 0-5-12.1l2.5-2.6a3 3 0 0 0-4.2-4.2l-2.5 2.5a24.5 24.5 0 0 0-12.2-5V4.8a3 3 0 1 0-6 0v2.6a24.5 24.5 0 0 0-12.1 5l-2.6-2.5a3 3 0 1 0-4.3 4.2l2.5 2.6a24.5 24.5 0 0 0-5 12.1H5a3 3 0 0 0 0 6h2.6a24.5 24.5 0 0 0 5 12.1l-2.5 2.5a3 3 0 0 0 4.2 4.2l2.6-2.5a24.5 24.5 0 0 0 12.1 5v2.6a3 3 0 0 0 6 0v-2.5a24.5 24.5 0 0 0 12.1-5l2.6 2.5a3 3 0 0 0 4.2-4.3L51.4 47a24.5 24.5 0 0 0 5-12.1H59a3 3 0 0 0 0-6zm-8.7 0h-8.8a9.9 9.9 0 0 0-.7-1.6l6.3-6.2a18.5 18.5 0 0 1 3.2 7.8zm-18.3 7a4 4 0 1 1 4-4 4 4 0 0 1-4 4zm10.9-19L36.6 23l-1.6-.7v-8.8a18.5 18.5 0 0 1 7.9 3.3zM29 13.5v8.8l-1.7.7-6.2-6.2a18.5 18.5 0 0 1 7.9-3.3zM16.9 21l6.2 6.3a9.9 9.9 0 0 0-.6 1.5h-8.8a18.5 18.5 0 0 1 3.2-7.8zm-3.2 13.8h8.8a9.9 9.9 0 0 0 .7 1.6L17 42.6a18.5 18.5 0 0 1-3.3-7.8zm7.5 12.1l6.2-6.2 1.6.7v8.8a18.5 18.5 0 0 1-7.8-3.3zM35 50.2v-8.8l1.5-.6 6.3 6.2a18.5 18.5 0 0 1-7.8 3.2zm12.1-7.5l-6.2-6.2a9.9 9.9 0 0 0 .7-1.7h8.8a18.5 18.5 0 0 1-3.3 7.9z" fill="none" stroke="#2e4369" stroke-linecap="round" stroke-linejoin="round" stroke-width="2"/></svg>