<svg viewBox="0 0 64 64" xmlns="http://www.w3.org/2000/svg" aria-labelledby="title" aria-describedby="desc"><path fill="#91aadc" d="M43.2 29.146A15.349 15.349 0 0 0 48.3 17.6 15.618 15.618 0 0 0 32.7 2H11.1v6H13v48h-1.9v6h23.4a17.645 17.645 0 0 0 8.7-32.853zM32.7 8a9.611 9.611 0 0 1 9.6 9.6A9.147 9.147 0 0 1 33 27H19V8zm1.8 48H19V33h16c6.113 0 10.9 5.095 10.9 11.6A11.413 11.413 0 0 1 34.5 56z" data-name="layer1"/><path stroke-width="2" stroke-miterlimit="10" stroke-linecap="round" stroke="#2e4369" fill="none" d="M43.2 29.146A15.349 15.349 0 0 0 48.3 17.6 15.618 15.618 0 0 0 32.7 2H11.1v6H13v48h-1.9v6h23.4a17.645 17.645 0 0 0 8.7-32.853zM32.7 8a9.611 9.611 0 0 1 9.6 9.6A9.147 9.147 0 0 1 33 27H19V8zm1.8 48H19V33h16c6.113 0 10.9 5.095 10.9 11.6A11.413 11.413 0 0 1 34.5 56z" data-name="stroke" stroke-linejoin="round"/></svg>