<svg xmlns="http://www.w3.org/2000/svg" viewBox="0 0 64 64" aria-labelledby="title" aria-describedby="desc"><path data-name="layer2" d="M42 20H10v33a3 3 0 0 1-3 3" fill="none" stroke="#202020" stroke-miterlimit="10" stroke-width="2" stroke-linejoin="round" stroke-linecap="round"/><path data-name="layer2" d="M38 12H20V8H2v45a3 3 0 0 0 3 3h54a3 3 0 0 0 3-3V20h-8" fill="none" stroke="#202020" stroke-miterlimit="10" stroke-width="2" stroke-linejoin="round" stroke-linecap="round"/><path data-name="layer1" d="M38 12h13a3 3 0 0 1 3 3v27l-6-5-6 5V15a3 3 0 0 0-3-3h-2a3 3 0 0 0-3 3v5" fill="none" stroke="#202020" stroke-miterlimit="10" stroke-width="2" stroke-linejoin="round" stroke-linecap="round"/></svg>