<svg xmlns="http://www.w3.org/2000/svg" viewBox="0 0 64 64" aria-labelledby="title" aria-describedby="desc"><path data-name="layer2" fill="#9cf" d="M42.142 10.764l9.848-1.737 9.03 51.21-9.849 1.737z"/><path data-name="opacity" fill="#000064" opacity=".15" d="M42.129 10.756l4.333-.764 9.03 51.21-4.334.764z"/><path data-name="layer2" fill="#9cf" d="M12 2h16v60H12z"/><path data-name="layer1" fill="#f27e7c" d="M2 10h10v52H2zm26 12h16v40H28z"/><path data-name="opacity" fill="#000064" opacity=".15" d="M7 10h5v52H7zm32 12h5v40h-5z"/><path data-name="opacity" fill="#fff" opacity=".25" d="M24 2h4v60h-4z"/><path data-name="stroke" fill="none" stroke="#2e4369" stroke-linecap="round" stroke-miterlimit="10" stroke-width="2" d="M42.142 10.764l9.848-1.737 9.03 51.21-9.849 1.737zM28 22h16v40H28m8-34v18M12 62H2V10h10m0-8h16v60H12zm8 8v36" stroke-linejoin="round"/></svg>