<svg xmlns="http://www.w3.org/2000/svg" viewBox="0 0 64 64" aria-labelledby="title" aria-describedby="desc"><path data-name="layer2" d="M12 32a10 10 0 1 0 10 10 10 10 0 0 0-10-10zm1.4 11.4a2 2 0 0 1-1.4.6 2 2 0 0 1-1.4-.6 2 2 0 0 1 0-2.8 2.1 2.1 0 0 1 2.8 0 2 2 0 0 1 0 2.8zM52 32a10 10 0 1 0 10 10 10 10 0 0 0-10-10zm1.4 11.4a2 2 0 0 1-2.8 0 2 2 0 0 1 0-2.8 2.1 2.1 0 0 1 2.8 0 2 2 0 0 1 0 2.8z" fill="#202020"/><path data-name="layer1" d="M52 28a13.9 13.9 0 0 1 6 1.4V27a3 3 0 0 0-3-3h-3v-7a5 5 0 0 0-5-5H17a5 5 0 0 0-5 5v7H9a3 3 0 0 0-3 3v2.4A14 14 0 0 1 21.8 52h20.4A14 14 0 0 1 52 28zm-36-4v-7a1 1 0 0 1 1-1h30a1 1 0 0 1 1 1v7zm18 18h-4a2 2 0 0 1 0-4h4a2 2 0 0 1 0 4z" fill="#202020"/></svg>