<svg viewBox="0 0 64 64" xmlns="http://www.w3.org/2000/svg" aria-labelledby="title" aria-describedby="desc"><circle fill="#536897" r="10" cy="41" cx="12" data-name="layer4"/><circle fill="#536897" r="10" cy="41" cx="52" data-name="layer4"/><circle fill="#8fa9d8" r="2" cy="41" cx="12" data-name="layer3"/><circle fill="#8fa9d8" r="2" cy="41" cx="52" data-name="layer3"/><path fill="#fbaa51" d="M42 41a10 10 0 0 1 10-10H12a10 10 0 0 1 0 20h40a10 10 0 0 1-10-10z" data-name="layer2"/><path opacity=".15" fill="#000064" d="M42 41a9.965 9.965 0 0 1 3.063-7.193A9.989 9.989 0 0 0 43.018 51H52a10 10 0 0 1-10-10z" data-name="opacity"/><path fill="#e36b5a" d="M52 31a9.941 9.941 0 0 1 6 2.014V26a3 3 0 0 0-3-3H9a3 3 0 0 0-3 3v7.014A9.941 9.941 0 0 1 12 31z" data-name="layer1"/><path opacity=".2" fill="#fff" d="M55 23H9a3 3 0 0 0-3 3v3a3 3 0 0 1 3-3h46a3 3 0 0 1 3 3v-3a3 3 0 0 0-3-3z" data-name="opacity"/><path d="M52 51H12M6 33.076V26a3 3 0 0 1 3-3h46a3 3 0 0 1 3 3v7.076M14 23v-7a3 3 0 0 1 3-3h30a3 3 0 0 1 3 3v6.854M12 31h40m-22 8h4" stroke-width="2" stroke-miterlimit="10" stroke-linecap="round" stroke="#2e4369" fill="none" data-name="stroke" stroke-linejoin="round"/><circle stroke-width="2" stroke-miterlimit="10" stroke-linecap="round" stroke="#2e4369" fill="none" r="10" cy="41" cx="12" data-name="stroke" stroke-linejoin="round"/><circle stroke-width="2" stroke-miterlimit="10" stroke-linecap="round" stroke="#2e4369" fill="none" r="10" cy="41" cx="52" data-name="stroke" stroke-linejoin="round"/><circle stroke-width="2" stroke-miterlimit="10" stroke-linecap="round" stroke="#2e4369" fill="none" r="2" cy="41" cx="12" data-name="stroke" stroke-linejoin="round"/><circle stroke-width="2" stroke-miterlimit="10" stroke-linecap="round" stroke="#2e4369" fill="none" r="2" cy="41" cx="52" data-name="stroke" stroke-linejoin="round"/></svg>