<svg xmlns="http://www.w3.org/2000/svg" viewBox="0 0 64 64" aria-labelledby="title" aria-describedby="desc"><path data-name="layer2" d="M32.526 22.775a10.787 10.787 0 0 0-9.878 6.479 10.763 10.763 0 0 0-15.5-4.891V15.5A2.574 2.574 0 0 0 2 15.5v18.045a10.77 10.77 0 0 0 20.648 4.291 10.77 10.77 0 1 0 9.878-15.062zM12.771 39.169a5.623 5.623 0 1 1 5.623-5.623 5.63 5.63 0 0 1-5.623 5.623zm19.755 0a5.623 5.623 0 1 1 5.623-5.623 5.63 5.63 0 0 1-5.623 5.623zm0 0" fill="none" stroke="#202020" stroke-linecap="round" stroke-miterlimit="10" stroke-width="2" stroke-linejoin="round"/><path data-name="layer1" d="M55.05 33.439l6.314-7.222a2.574 2.574 0 1 0-3.875-3.388l-5.858 6.7-5.858-6.7a2.574 2.574 0 1 0-3.873 3.388l6.314 7.222L41.9 40.66a2.574 2.574 0 1 0 3.875 3.388l5.858-6.7 5.858 6.7a2.574 2.574 0 1 0 3.875-3.388zm0 0" fill="none" stroke="#202020" stroke-linecap="round" stroke-miterlimit="10" stroke-width="2" stroke-linejoin="round"/></svg>