<svg xmlns="http://www.w3.org/2000/svg" viewBox="0 0 64 64" aria-labelledby="title" aria-describedby="desc"><path data-name="layer1" d="M49.9 49c-8.4-1.6-8.4-3.4-8.4-4.6v-.8a20 20 0 0 0 4.7-7.9c3.1-1 4.2-5.1 4.2-7.1 0-3.9-1.5-5.5-2.9-6.2a2 2 0 0 0 2.5-2V14c0-6.3-3.2-7.9-5.8-9.1L43 4.2A70.6 70.6 0 0 0 32.6.1h-1c-.2 0-2.6.6-10.5 4.1l-.8.3C17.3 5.9 14 7.4 14 14v6.5a2 2 0 0 0 1.2 1.8h.4c-1.4.7-2.9 2.3-2.9 6.2 0 2 1.1 6 4.2 7a20 20 0 0 0 4.7 7.8v1.2c0 .2.1 2.9-8.4 4.5C2.8 51 0 58.4 0 62v2h64v-2c0-3.6-2.9-10.9-14.1-13zM19.6 20.3C22.2 18.5 26.8 16 32 16a22.7 22.7 0 0 1 11.9 3.9l-.7 1.4C40.8 19.9 36.4 18 32 18s-9.2 2.1-11.5 3.4zM20 32h-1.6c-1.2 0-1.8-2.6-1.8-3.3s.3-2.7.9-2.7h2a2 2 0 0 0 1.5-.3c.1 0 5.7-3.7 10.9-3.7s10.8 3.6 10.9 3.7l.7.3h2c.3 0 .9 0 .9 2.6 0 .6-.6 3.3-1.8 3.3h-1.4l-.4 1.5a15.3 15.3 0 0 1-6.3 9.1 2 2 0 0 0 1 3.7h.1a5.9 5.9 0 0 0 2.9 3.9A12.5 12.5 0 0 1 32 54c-4 0-6.8-2.3-8.8-4.3a5.5 5.5 0 0 0 2.3-3.4h.1a2 2 0 0 0 1-3.7 15.3 15.3 0 0 1-6.3-9.1z" fill="#202020"/></svg>