<svg viewBox="0 0 64 64" xmlns="http://www.w3.org/2000/svg" aria-labelledby="title" aria-describedby="desc"><path fill="#f45d5d" d="M48 20.4V14c0-6-3.068-6.381-6-8a69.516 69.516 0 0 0-10-4s-2.166.425-10 4c-3.375 1.55-6 2.231-6 8v6.539S23 14 32 14s16 6.4 16 6.4z" data-name="layer2"/><path fill="#dfeef8" d="M16.743 19.905L20 24s6.105-4 12-4 12 4 12 4l2.5-4.792C43.981 17.356 38.524 14 32 14c-7.272 0-13.234 4.266-15.257 5.905z" data-name="layer4"/><path fill="#e8d4d4" d="M32 56c6.272 0 10.148-4.607 11.981-6.444C38.917 47.721 39 45.562 39 44v-.718l-.114-.166a17.4 17.4 0 0 0 5.883-9.251c3.023-.036 4.23-2.932 4.23-4.932 0-.941.014-4.88-3-4.933v-3.812l-.008-.008L44 24s-6.105-4-12-4-12 4-12 4l-2-2.513V24c-.346 0-3 .214-3 5 0 .947.393 5 3.438 5a15.322 15.322 0 0 0 5.706 9.006l-.148.1V44c0 1.482.325 3.483-3.982 5.257C22.053 51.3 25.725 56 32 56z" data-name="layer3"/><path fill="#f45d5d" d="M45.992 20.18l.008.008V24a2.792 2.792 0 0 1 1 .192c1.219-1.222 1-3.79 1-3.79s-.545-.493-1.5-1.2z" data-name="layer2"/><path opacity=".15" fill="#000064" d="M45.992 20.18l.008.008V24a2.792 2.792 0 0 1 1 .192c1.219-1.222 1-3.79 1-3.79s-.545-.493-1.5-1.2z" data-name="opacity"/><path fill="#f45d5d" d="M18.012 20.18l-.012.008V24a6.175 6.175 0 0 0-1 .192c-1.219-1.222-1-3.79-1-3.79s.544-.493 1.5-1.2z" data-name="layer2"/><path fill="#78d1f4" d="M2 62h60s0-8.659-12.422-11a36.62 36.62 0 0 1-5.6-1.445C42.148 51.392 38.272 56 32 56s-9.947-4.7-11.982-6.742A33.1 33.1 0 0 1 13.609 51C2 53.174 2 62 2 62z" data-name="layer1"/><path opacity=".15" fill="#000064" d="M16 14v6.486c-.025.436-.092 2.61 1 3.707a2.88 2.88 0 0 1 .545-.127C16.689 24.276 15 25.179 15 29c0 .947.393 5 3.438 5a15.322 15.322 0 0 0 5.706 9.006l-.148.1V44c0 1.482.325 3.483-3.982 5.257A33.1 33.1 0 0 1 13.609 51C2 53.174 2 62 2 62h8.071c.269-2.115 1.37-5.147 3.929-6a25.711 25.711 0 0 0 12-7c5 5 10 0 10-5-12 5-14-11-14-17 6-4 14-3 16-2s4-2 4-2-3-3-9-3-6 1-6 1a10.343 10.343 0 0 1-1-4c0-2 6-3 6-3V2s-2.166.425-10 4c-3.375 1.55-6 2.231-6 8z" data-name="opacity"/><path stroke-width="2" stroke-linejoin="round" stroke-linecap="round" stroke="#2e4369" fill="none" d="M18 21.485V24c-.346 0-3 .214-3 5 0 .947.393 5 3.438 5a17.212 17.212 0 0 0 7.168 10.267m11.994.002A17.21 17.21 0 0 0 44.77 34c3.023-.035 4.23-3 4.23-5 0-.94.014-4.947-3-5v-3.812" data-name="stroke"/><path stroke-width="2" stroke-linejoin="round" stroke-linecap="round" stroke="#2e4369" fill="none" d="M24 43.11V44c0 2 .6 4.942-10.391 7C2 53.174 2 62 2 62h60s0-8.659-12.422-11C38.863 48.981 39 46 39 44v-.718" data-name="stroke"/><path stroke-width="2" stroke-linejoin="round" stroke-linecap="round" stroke="#2e4369" fill="none" d="M20.018 49.257C22.049 51.287 25.707 56 32 56s10.154-4.619 11.981-6.444M48 20.4V14c0-6-3.068-6.381-6-8a69.516 69.516 0 0 0-10-4s-2.166.425-10 4c-3.375 1.55-6 2.231-6 8v6.539S23 14 32 14s16 6.4 16 6.4z" data-name="stroke"/><path stroke-width="2" stroke-linejoin="round" stroke-linecap="round" stroke="#2e4369" fill="none" d="M16.742 19.9L20 24s6.105-4 12-4 12 4 12 4l2.5-4.794M16 20.539s-.063 2.667 1 3.73M48 20.4s.221 2.571-1 3.791" data-name="stroke"/></svg>