<svg viewBox="0 0 64 64" xmlns="http://www.w3.org/2000/svg" aria-labelledby="title" aria-describedby="desc"><path fill="#f1626a" d="M55.978 16a4 4 0 0 1-4 4h-8a4 4 0 0 1-4-4 4 4 0 0 1 4-4h8a4 4 0 0 1 4 4zm0 24a4 4 0 0 1-4 4h-8a4 4 0 0 1-4-4 4 4 0 0 1 4-4h8a4 4 0 0 1 4 4zm-32-24a4 4 0 0 1-4 4h-8a4 4 0 0 1-4-4 4 4 0 0 1 4-4h8a4 4 0 0 1 4 4zm0 24a4 4 0 0 1-4 4h-8a4 4 0 0 1-4-4 4 4 0 0 1 4-4h8a4 4 0 0 1 4 4z" data-name="layer3"/><path opacity=".18" fill="#101129" d="M43.976 20h8a3.992 3.992 0 0 0 3.928-3.295A3.971 3.971 0 0 1 52.978 18h-8a3.956 3.956 0 0 1-3.929-4.705A3.987 3.987 0 0 0 43.976 20zm9.002 22h-8a3.956 3.956 0 0 1-3.929-4.7 3.987 3.987 0 0 0 2.927 6.7h8a3.992 3.992 0 0 0 3.928-3.295A3.971 3.971 0 0 1 52.978 42zm-32-24h-8a3.956 3.956 0 0 1-3.929-4.705A3.987 3.987 0 0 0 11.976 20h8a3.992 3.992 0 0 0 3.928-3.295A3.971 3.971 0 0 1 20.978 18zm0 24h-8a3.956 3.956 0 0 1-3.929-4.7 3.987 3.987 0 0 0 2.927 6.7h8a3.992 3.992 0 0 0 3.928-3.295A3.971 3.971 0 0 1 20.978 42z" data-name="opacity"/><path fill="#70bf44" d="M26.9 19.361a2 2 0 0 0-2.791.459 10 10 0 0 1-16.2.088 2 2 0 0 0-3.226 2.365 14 14 0 0 0 22.676-.121 2 2 0 0 0-.459-2.791z" data-name="layer1"/><path fill="#fdc20f" d="M26.9 43.361a2 2 0 0 0-2.791.461 10 10 0 0 1-16.2.086 2 2 0 1 0-3.226 2.367 14 14 0 0 0 22.676-.123 2 2 0 0 0-.459-2.791zm31.966-24a2 2 0 0 0-2.791.459 10 10 0 0 1-16.2.088 2 2 0 0 0-3.226 2.365 14 14 0 0 0 22.676-.121 2 2 0 0 0-.459-2.791z" data-name="layer2"/><path fill="#70bf44" d="M58.866 43.361a2 2 0 0 0-2.791.461 10 10 0 0 1-16.2.086 2 2 0 1 0-3.226 2.367 14 14 0 0 0 22.676-.123 2 2 0 0 0-.459-2.791z" data-name="layer1"/><path stroke-width="2" stroke-linejoin="round" stroke-linecap="round" stroke="#2f446a" fill="none" d="M55.978 16a4 4 0 0 1-4 4h-8a4 4 0 0 1-4-4 4 4 0 0 1 4-4h8a4 4 0 0 1 4 4zm0 24a4 4 0 0 1-4 4h-8a4 4 0 0 1-4-4 4 4 0 0 1 4-4h8a4 4 0 0 1 4 4zm-8-38.002V12m0 40v10.002m0-34.002v7.871M23.978 16a4 4 0 0 1-4 4h-8a4 4 0 0 1-4-4 4 4 0 0 1 4-4h8a4 4 0 0 1 4 4zm0 24a4 4 0 0 1-4 4h-8a4 4 0 0 1-4-4 4 4 0 0 1 4-4h8a4 4 0 0 1 4 4zm-8-38.002V12m0 40v10.002M15.98 28l-.002 7.871" data-name="stroke"/><path stroke-width="2" stroke-linejoin="round" stroke-linecap="round" stroke="#2f446a" fill="none" d="M26.9 19.361a2 2 0 0 0-2.791.459 10 10 0 0 1-16.2.088 2 2 0 0 0-3.226 2.365 14 14 0 0 0 22.676-.121 2 2 0 0 0-.459-2.791zm0 24a2 2 0 0 0-2.791.461 10 10 0 0 1-16.2.086 2 2 0 1 0-3.226 2.367 14 14 0 0 0 22.676-.123 2 2 0 0 0-.459-2.791zm31.966-24a2 2 0 0 0-2.791.459 10 10 0 0 1-16.2.088 2 2 0 0 0-3.226 2.365 14 14 0 0 0 22.676-.121 2 2 0 0 0-.459-2.791zm0 24a2 2 0 0 0-2.791.461 10 10 0 0 1-16.2.086 2 2 0 1 0-3.226 2.367 14 14 0 0 0 22.676-.123 2 2 0 0 0-.459-2.791z" data-name="stroke"/></svg>