<svg viewBox="0 0 64 64" xmlns="http://www.w3.org/2000/svg" aria-labelledby="title" aria-describedby="desc"><path d="M47.978 1.998V12m0 40v10.002m0-34.002v7.871m-32-33.873V12m0 40v10.002m0-34.002v7.871m10.925 7.49a2.001 2.001 0 0 0-2.79.461 10.002 10.002 0 0 1-16.2.086 2 2 0 1 0-3.226 2.367 14.002 14.002 0 0 0 22.675-.123 1.999 1.999 0 0 0-.459-2.79zm31.963-24a2 2 0 0 0-2.79.46 10 10 0 0 1-16.201.087 2 2 0 0 0-3.226 2.365 14 14 0 0 0 22.676-.12 1.999 1.999 0 0 0-.459-2.792zm-31.963 0a2 2 0 0 0-2.79.46 10 10 0 0 1-16.2.087 2 2 0 0 0-3.226 2.365 14 14 0 0 0 22.675-.12 1.999 1.999 0 0 0-.459-2.792zm31.963 24a2.001 2.001 0 0 0-2.79.461 10.002 10.002 0 0 1-16.201.086 2 2 0 1 0-3.226 2.367 14.002 14.002 0 0 0 22.676-.123 1.999 1.999 0 0 0-.459-2.79z" stroke-width="2" stroke-linejoin="round" stroke-linecap="round" stroke="#202020" fill="none" data-name="layer2"/><path stroke-width="2" stroke-linejoin="round" stroke-linecap="round" stroke="#202020" fill="none" d="M55.978 16a4 4 0 0 1-4 4h-8.002a4 4 0 0 1-4-4 4 4 0 0 1 4-4h8.002a4 4 0 0 1 4 4zm-32 24a4 4 0 0 1-4 4h-8.002a4 4 0 0 1-4-4 4 4 0 0 1 4-4h8.002a4 4 0 0 1 4 4zm32 0a4 4 0 0 1-4 4h-8.002a4 4 0 0 1-4-4 4 4 0 0 1 4-4h8.002a4 4 0 0 1 4 4zm-32-24a4 4 0 0 1-4 4h-8.002a4 4 0 0 1-4-4 4 4 0 0 1 4-4h8.002a4 4 0 0 1 4 4z" data-name="layer1"/></svg>