<svg xmlns="http://www.w3.org/2000/svg" viewBox="0 0 64 64" aria-labelledby="title" aria-describedby="desc"><path data-name="layer1" d="M27 41.1a4.7 4.7 0 0 1 0 6.6L18.7 56a4.7 4.7 0 0 1-6.6 0l-4-4a4.7 4.7 0 0 1 0-6.6l8.3-8.3a4.7 4.7 0 0 1 6.6 0l2.2-4.2a9.4 9.4 0 0 0-12.2.9l-8.2 8.3a9.3 9.3 0 0 0 0 13.2l4 4a9.3 9.3 0 0 0 13.2 0l8.3-8.3a9.4 9.4 0 0 0 .9-12.2zm10.2-18.2a4.7 4.7 0 0 1 0-6.6L45.5 8a4.7 4.7 0 0 1 6.6 0l4 4a4.7 4.7 0 0 1 0 6.6l-8.3 8.3a4.7 4.7 0 0 1-6.6 0L39 31.1a9.4 9.4 0 0 0 12.2-.9l8.3-8.3a9.3 9.3 0 0 0 0-13.2l-4-4a9.3 9.3 0 0 0-13.2 0L33.9 13a9.4 9.4 0 0 0-.9 12.2z" fill="#92b5e4"/><path data-name="stroke" fill="none" stroke="#2e4369" stroke-linecap="round" stroke-linejoin="round" stroke-width="2" d="M14.9 26h-13m22-11V2m-8 16L6.7 8.8M48.9 38h13m-22 11v13m8-16l9.2 9.2M27 41.1a4.7 4.7 0 0 1 0 6.6L18.7 56a4.7 4.7 0 0 1-6.6 0l-4-4a4.7 4.7 0 0 1 0-6.6l8.3-8.3a4.7 4.7 0 0 1 6.6 0l2.2-4.2a9.4 9.4 0 0 0-12.2.9l-8.2 8.3a9.3 9.3 0 0 0 0 13.2l4 4a9.3 9.3 0 0 0 13.2 0l8.3-8.3a9.4 9.4 0 0 0 .9-12.2zm10.2-18.2a4.7 4.7 0 0 1 0-6.6L45.5 8a4.7 4.7 0 0 1 6.6 0l4 4a4.7 4.7 0 0 1 0 6.6l-8.3 8.3a4.7 4.7 0 0 1-6.6 0L39 31.1a9.4 9.4 0 0 0 12.2-.9l8.3-8.3a9.3 9.3 0 0 0 0-13.2l-4-4a9.3 9.3 0 0 0-13.2 0L33.9 13a9.4 9.4 0 0 0-.9 12.2z"/></svg>