<svg xmlns="http://www.w3.org/2000/svg" viewBox="0 0 64 64" aria-labelledby="title" aria-describedby="desc"><ellipse data-name="layer1" cx="32" cy="34.9" rx="12" ry="26" fill="#a6b1c9"/><path data-name="opacity" d="M39.3 14.3c-2-3.4-4.6-5.4-7.3-5.4s-5.3 2-7.3 5.4a11.4 11.4 0 0 0 14.6 0z" fill="#fff" opacity=".2"/><path data-name="opacity" d="M30 17a12.3 12.3 0 0 1-5.8-1.9C21.6 19.9 20 27 20 34.9c0 14.4 5.4 26 12 26-8-16-2-40.9-2-43.9z" fill="#000064" opacity=".15"/><path data-name="stroke" d="M24.7 14.3a11.4 11.4 0 0 0 14.6 0M60 9C50 3.8 36-1.5 34 9.3M4 9c10-5.2 24-10.5 26 .3m12 11.3l8-5.6 4 10m-9.9 12l9.9-4 2 10m-14.5 8H52l2 10M22 20.6L14 15l-4 10m9.9 12L10 33 8 43m14.5 8H12l-2 10" fill="none" stroke="#2e4369" stroke-linecap="round" stroke-linejoin="round" stroke-width="2"/><ellipse data-name="stroke" cx="32" cy="35" rx="12" ry="26" fill="none" stroke="#2e4369" stroke-linecap="round" stroke-linejoin="round" stroke-width="2"/><path data-name="stroke" fill="none" stroke="#2e4369" stroke-linecap="round" stroke-linejoin="round" stroke-width="2" d="M20.6 27h22.8M32 27v34"/></svg>