<svg xmlns="http://www.w3.org/2000/svg" viewBox="0 0 64 64" aria-labelledby="title" aria-describedby="desc"><path data-name="layer2" d="M54 32c-1-2.9-8-26-8-26s-.6-4-6-4H24c-5.4 0-6 4-6 4s-7 23.1-8 26a33.4 33.4 0 0 0-2 10c0 3.7 1.5 6.8 6.8 10.2S26.4 56 32 56s12-.5 17.2-3.8S56 45.7 56 42a33.3 33.3 0 0 0-2-10z" fill="#dde5f4"/><path data-name="layer1" d="M42.8 21.6c-.8-3.2-2.6-9.6-2.6-9.6s-.6-2-2.2-2H26c-1.5 0-2.2 2-2.2 2l-2.7 9.6c-.9 3.2-.9 5 .8 6.4s5.9 4 10 4 8.3-2.6 10-4 1.7-3.6.9-6.4z" fill="#c3d6e0"/><path data-name="opacity" d="M40.2 12s-.6-2-2.2-2h-1.4L20.8 25.9A3.4 3.4 0 0 0 22 28l1.8 1.2 16.6-16.6zM26.5 30.7A14 14 0 0 0 32 32h.3l10.5-10.5-1.5-5.6z" fill="#fff" opacity=".5"/><path data-name="opacity" d="M41 51c-5.6 0-12-.5-17.2-3.8S17 40.7 17 37a33.4 33.4 0 0 1 2-10c.8-2.6 6.3-20.5 7.7-25H24c-5.4 0-6 4-6 4s-7 23.1-8 26a33.4 33.4 0 0 0-2 10c0 3.7 1.5 6.8 6.8 10.2S26.4 56 32 56s12-.5 17.2-3.8a22.5 22.5 0 0 0 3.3-2.5A42.1 42.1 0 0 1 41 51z" fill="#000064" opacity=".15"/><path data-name="stroke" fill="none" stroke="#2e4369" stroke-linecap="round" stroke-linejoin="round" stroke-width="2" d="M16 53L6 62m42-9l10 9m-4-30c-1-2.9-8-26-8-26s-.6-4-6-4H24c-5.4 0-6 4-6 4s-7 23.1-8 26a33.4 33.4 0 0 0-2 10c0 3.7 1.5 6.8 6.8 10.2S26.4 56 32 56s12-.5 17.2-3.8S56 45.7 56 42a33.3 33.3 0 0 0-2-10z"/><path data-name="stroke" d="M42.8 21.6c-.8-3.2-2.6-9.6-2.6-9.6s-.6-2-2.2-2H26c-1.5 0-2.2 2-2.2 2l-2.7 9.6c-.9 3.2-.9 5 .8 6.4s5.9 4 10 4 8.3-2.6 10-4 1.7-3.6.9-6.4zM16 42l8 4m24-4l-8 4" fill="none" stroke="#2e4369" stroke-linecap="round" stroke-linejoin="round" stroke-width="2"/></svg>