<svg xmlns="http://www.w3.org/2000/svg" viewBox="0 0 64 64" aria-labelledby="title" aria-describedby="desc"><path data-name="layer1" d="M59.3 59.5l-9.6-8.7c4.9-3.2 6.3-6.2 6.3-9.8a33.4 33.4 0 0 0-2-10c-1-2.9-8-26-8-26s-.6-4-6-4H24c-5.4 0-6 4-6 4s-7 23.1-8 26a33.4 33.4 0 0 0-2 10c0 3.6 1.5 6.6 6.3 9.9l-9.6 8.6a2 2 0 1 0 2.7 3l10-9a2 2 0 0 0 .5-.7C22.4 54.7 27.5 55 32 55s9.6-.3 14.2-2.2a2 2 0 0 0 .5.7l10 9a2 2 0 1 0 2.7-3zM25.8 45.9A2 2 0 0 1 24 47l-.9-.2-8-4a2 2 0 1 1 1.8-3.6l8 4a2 2 0 0 1 .9 2.7zM22 27c-1.7-1.4-1.6-3.6-.8-6.4s2.6-9.6 2.6-9.6.6-2 2.2-2h12c1.5 0 2.2 2 2.2 2l2.7 9.6c.9 3.2.9 5-.8 6.4s-5.9 4-10 4-8.4-2.6-10.1-4zm18 20a2 2 0 0 1-.9-3.8l8-4a2 2 0 1 1 1.8 3.6l-8 4z" fill="#202020"/></svg>