<svg xmlns="http://www.w3.org/2000/svg" viewBox="0 0 64 64" aria-labelledby="title" aria-describedby="desc"><path data-name="layer3" d="M52 16H5a3 3 0 0 0-3 3v11h50z" fill="#c3d6e0"/><path data-name="layer2" d="M2 30v12.5A1.5 1.5 0 0 0 3.5 44H10a4 4 0 0 1 8 0h26a4 4 0 0 1 8 0V30z" fill="#f27e7c"/><path data-name="layer3" d="M62 28l-2-9c-.6-1.7-1.3-3-3-3h-5v20h10z" fill="#c3d6e0"/><path data-name="layer2" d="M52 36v8h8.5a1.5 1.5 0 0 0 1.5-1.5V36z" fill="#f27e7c"/><circle data-name="layer1" cx="14" cy="44" r="4" fill="#7b8baf"/><circle data-name="layer1" cx="48" cy="44" r="4" fill="#7b8baf"/><path data-name="opacity" fill="#fff" opacity=".5" d="M30.2 16l-14 14h10.4l14-14H30.2zM23 16L9 30h4l14-14h-4zm32.5 0H50L36 30h5.5L52 19.5l3.5-3.5zm5.2 6.3L52 31v5h1.3l8.6-8.6-1.2-5.1z"/><path data-name="opacity" d="M7 16H5a3 3 0 0 0-3 3v11h5zm0 14H2v12.5A1.5 1.5 0 0 0 3.5 44H10a4 4 0 0 1 4-4H7zm11 14h26a4 4 0 0 1 4-4H14a4 4 0 0 1 4 4zm34 0h8.5a1.5 1.5 0 0 0 1.5-1.5V40H52z" fill="#000064" opacity=".15"/><circle data-name="opacity" cx="14" cy="44" r="2" fill="#000064" opacity=".2"/><circle data-name="opacity" cx="48" cy="44" r="2" fill="#000064" opacity=".2"/><path data-name="stroke" d="M52 44h8.5a1.5 1.5 0 0 0 1.5-1.5V28l-2-9c-.6-1.7-1.3-3-3-3H5a3 3 0 0 0-3 3v23.5A1.5 1.5 0 0 0 3.5 44H10m8 0h26M2 30h50m0-13.8V44m10-8H52m-34-6V16m16 14V16" fill="none" stroke="#2e4369" stroke-linecap="round" stroke-linejoin="round" stroke-width="2"/><circle data-name="stroke" cx="14" cy="44" r="4" fill="none" stroke="#2e4369" stroke-linecap="round" stroke-linejoin="round" stroke-width="2"/><circle data-name="stroke" cx="48" cy="44" r="4" fill="none" stroke="#2e4369" stroke-linecap="round" stroke-linejoin="round" stroke-width="2"/></svg>