<svg xmlns="http://www.w3.org/2000/svg" viewBox="0 0 64 64" aria-labelledby="title" aria-describedby="desc"><path data-name="layer1" d="M56.1 14V6a4 4 0 0 0-4-4h-40a4 4 0 0 0-4 4v8zM29.2 6h5.9a2 2 0 0 1 0 4h-5.9a2 2 0 0 1 0-4zM8.1 40v14h48V40zM22 48h-5.8a2 2 0 0 1 0-4h5.9a2 2 0 0 1 0 4zm26.1 0h-5.8a2 2 0 0 1 0-4h5.9a2 2 0 0 1 0 4z" fill="#202020"/><path data-name="layer2" d="M10.1 60a2 2 0 0 0 2 2h6a2 2 0 0 0 2-2v-3h-10z" fill="#202020"/><rect data-name="layer1" x="10.1" y="54" width="10" fill="#202020"/><path data-name="layer2" d="M44.1 60a2 2 0 0 0 2 2h6a2 2 0 0 0 2-2v-3h-10z" fill="#202020"/><rect data-name="layer1" x="44.1" y="54" width="10" fill="#202020"/><path data-name="layer1" d="M8.1 18v18h25.2l9.4-9.4a2 2 0 0 1 2.8 2.8L38.9 36h17.2V18zM62 28a2 2 0 0 0-2 2v1.2L56.1 35v5a2 2 0 0 0 1.3-.6l2.6-2.6V38a2 2 0 0 0 4 0v-8a2 2 0 0 0-2-2zM8.1 35.3L4 31.2V30a2 2 0 1 0-4 0v8a2 2 0 1 0 4 0v-1.2l2.6 2.6A2 2 0 0 0 8 40h.1z" fill="#202020"/></svg>