<svg xmlns="http://www.w3.org/2000/svg" viewBox="0 0 64 64" aria-labelledby="title" aria-describedby="desc"><path data-name="layer1" d="M64 62c0-.4-.2-10.3-14-13a32.5 32.5 0 0 1-5.2-1.4h-.1c-3.1-1.2-3.1-2.4-3.1-3.2v-2.8a20.4 20.4 0 0 0 4.7-7.9c3.9-1.6 4.2-8.9 4.2-9.1 0-3.9-1.5-5.5-2.9-6.2v-1.3a1.9 1.9 0 0 0 0-.2v-.4c0-11.3-8-16.4-16-16.4s-16 5.1-16 16.4v2c-1.4.7-2.9 2.3-2.9 6.3 0 .1.3 7.4 4.2 9a20.1 20.1 0 0 0 4.7 7.9v2.8c0 .2 0 1.8-2.3 2.8h-.1a28.7 28.7 0 0 1-6 1.7C2.8 51 0 58.4 0 62v2h64zM24.7 48.2l4.7 2.6-1.8 3.6-4.4-4.7a6.3 6.3 0 0 0 1.5-1.5zm13.9.1a7.1 7.1 0 0 0 2 1.8l-4.2 4.3-1.8-3.6zM32 54.5l2.8 5.5h-5.6zM20 30h-1.6c-.7 0-1.7-3.5-1.8-5.3 0-2.6.7-2.6.9-2.6h2v-2.2c6-.5 9-2.9 11.5-5s3.7-2.9 6.6-2.9a5.6 5.6 0 0 1 6 5v5h2c.3 0 .9 0 .9 2.6 0 1.8-1.1 5.3-1.8 5.3h-1.5l-.4 1.5a15.3 15.3 0 0 1-6.3 9.1 2 2 0 0 0 .9 3.7L32 47.7l-6.1-3.4a2 2 0 0 0 .8-3.7 15.3 15.3 0 0 1-6.3-9.1z" fill="#202020"/></svg>