<svg xmlns="http://www.w3.org/2000/svg" viewBox="0 0 64 64" aria-labelledby="title" aria-describedby="desc"><circle data-name="layer2" cx="24" cy="9" r="7" fill="#a5d0ec"/><path data-name="layer2" d="M35 22H13a3 3 0 0 0-3 3v16a3 3 0 0 0 3 3h3v15a3 3 0 0 0 3 3h10a3 3 0 0 0 3-3V44h3a3 3 0 0 0 3-3V25a3 3 0 0 0-3-3z" fill="#a5d0ec"/><path d="M24 16a7 7 0 0 0 2-.3 7 7 0 0 1 0-13.4A7 7 0 1 0 24 16zm-4 43V44h-3a3 3 0 0 1-3-3V25a3 3 0 0 1 3-3h-4a3 3 0 0 0-3 3v16a3 3 0 0 0 3 3h3v15a3 3 0 0 0 3 3h4a3 3 0 0 1-3-3z" fill="#000064" data-name="opacity" opacity=".15"/><path data-name="layer1" fill="#ff7e63" d="M46 42h8v20h-8zM24 22l-4 14 4 4 4-4-4-14z"/><circle data-name="stroke" cx="24" cy="9" r="7" fill="none" stroke="#2e4369" stroke-linecap="round" stroke-linejoin="round" stroke-width="2"/><path data-name="stroke" d="M35 22H13a3 3 0 0 0-3 3v16a3 3 0 0 0 3 3h3v15a3 3 0 0 0 3 3h10a3 3 0 0 0 3-3V44h3a3 3 0 0 0 3-3V25a3 3 0 0 0-3-3zm11 20h8v20h-8zm4-6v6" fill="none" stroke="#2e4369" stroke-linecap="round" stroke-linejoin="round" stroke-width="2"/><path data-name="stroke" fill="none" stroke="#2e4369" stroke-linecap="round" stroke-linejoin="round" stroke-width="2" d="M24 22l-4 14 4 4 4-4-4-14z"/></svg>