<svg xmlns="http://www.w3.org/2000/svg" viewBox="0 0 64 64" aria-labelledby="title" aria-describedby="desc"><path data-name="layer4" d="M23.6 45.2c-.1 1.8-1.1 4.1-10 5.8C2 53.2 2 62 2 62h60s0-8.6-12.4-11c-8.5-1.6-9.8-3.8-10-5.7" fill="#b9daf0"/><path data-name="layer3" fill="#bc5163" d="M38 62l-6-12-6 12h12z"/><path data-name="layer2" d="M45.6 17s-.5-7-8-7-8 7.8-19.6 8v2c-3 0-3.1 3.8-3.1 4.7s.6 7.3 3.7 7.3a18 18 0 0 0 5.4 9.1V44c0 .4-.2.8-.2 1.2l8.4 4.8 7.4-4.7v-4.6a18.3 18.3 0 0 0 5.2-8.7c3 0 3.9-6.3 3.9-7.3S49 20.1 46 20v-3.1z" fill="#e8d4d4"/><path data-name="layer1" d="M45.6 17h.4v-.5C46 6 38.6 2 32 2S18 6 18 16.4V18c11.6-.2 11.7-8 19.6-8s8 7 8 7z" fill="#a06b5f"/><path data-name="opacity" d="M23 52l3-5 3 1a14.9 14.9 0 0 0 6-6c-14 3-14-18-12-23 0-5 0-17 9-17-6.6 0-14 4-14 14.4V20c-3 0-3.1 3.8-3.1 4.7s.6 7.3 3.7 7.3a18 18 0 0 0 5.4 9.1V44a3.8 3.8 0 0 1-.2 1h-.2c-.1 2-1.1 4.2-10 5.9C2 53.1 2 62 2 62h7c0-2 1-6 5-6a14.5 14.5 0 0 0 6-1l6 7 2-5z" fill="#000064" opacity=".15"/><path data-name="stroke" d="M31.6 2c-6.6 0-14 4-14 14.4V20c-3 0-2.9 3.8-2.9 4.7s.7 7.3 3.8 7.3a17.2 17.2 0 0 0 7.2 10.3m11.9 0A17.2 17.2 0 0 0 44.8 32c3 0 3.7-6.3 3.7-7.3s.1-4.7-2.9-4.7v-3.6C45.6 6 38.2 2 31.6 2m-8 43.2c-.1 1.8-1.1 4.1-10 5.8C2 53.2 2 62 2 62h60s0-8.6-12.4-11c-8.5-1.6-9.8-3.8-10-5.7" fill="none" stroke="#2e4369" stroke-linecap="round" stroke-linejoin="round" stroke-width="2"/><path data-name="stroke" fill="none" stroke="#2e4369" stroke-linecap="round" stroke-linejoin="round" stroke-width="2" d="M26 62l6-12 6 12m-10-4.2l-8-8.6m15.9 8.6l8.1-8.3M17.6 18c12 0 12-8 20-8s8 7 8 7M24 41v3c0 .4-.2.8-.2 1.2l8.4 4.8 7.4-4.7v-4.4"/></svg>