<svg xmlns="http://www.w3.org/2000/svg" viewBox="0 0 64 64" aria-labelledby="title" aria-describedby="desc"><path data-name="layer2" fill="none" stroke="#202020" stroke-linecap="round" stroke-linejoin="round" stroke-width="2" d="M2 20L62 2"/><path data-name="layer1" fill="none" stroke="#202020" stroke-linecap="round" stroke-linejoin="round" stroke-width="2" d="M32 54V22"/><path data-name="layer2" fill="none" stroke="#202020" stroke-linecap="round" stroke-linejoin="round" stroke-width="2" d="M32 22V11"/><path data-name="layer1" d="M22 22v29.6a2.4 2.4 0 0 0 2.3 2.4h15.3a2.4 2.4 0 0 0 2.4-2.4V22" fill="none" stroke="#202020" stroke-linecap="round" stroke-linejoin="round" stroke-width="2"/><path data-name="layer1" d="M21 62c-5.4 0-7.4-2.4-8.7-6L9 47.3a14.5 14.5 0 0 1 0-10.6l3.3-8.7a8.6 8.6 0 0 1 8.7-6h22a8.6 8.6 0 0 1 8.7 6l3.3 8.7a14.5 14.5 0 0 1 0 10.6L51.7 56c-1.3 3.6-3.3 6-8.7 6z" fill="none" stroke="#202020" stroke-linecap="round" stroke-linejoin="round" stroke-width="2"/></svg>