<svg xmlns="http://www.w3.org/2000/svg" viewBox="0 0 64 64" aria-labelledby="title" aria-describedby="desc"><path d="M10 24h44c4.5 0 8 6.4 8 19s-2.7 19-8 19H10c-3.4 0-8-6.4-8-19s5.8-19 8-19z" fill="#dde5f4"/><rect data-name="layer1" x="14" y="32" width="36" height="18" rx="3" ry="3" fill="#c3d6e0"/><path data-name="opacity" d="M50 35a3 3 0 0 0-.7-1.8L32.5 50h5.6L50 38.1zm-27.8-3L14 40.3v4.6L26.9 32h-4.7zm12.2 0l-18 17.9h8.8l18-18z" fill="#fff" opacity=".5"/><path d="M16 59c-3.4 0-8-6.4-8-19 0-7.6 2.1-13 4.3-16H10c-2.2 0-8 6.4-8 19s4.6 19 8 19h44a5.8 5.8 0 0 0 5-3z" fill="#000064" opacity=".15"/><path fill="none" stroke="#2e4369" stroke-linecap="round" stroke-linejoin="round" stroke-width="2" d="M4 18L60 8M32 24V13.1"/><path data-name="stroke" d="M22 14.8v-4A5 5 0 0 1 26 6l12-1.9a3.2 3.2 0 0 1 4 3.3v3.9" fill="none" stroke="#2e4369" stroke-linecap="round" stroke-linejoin="round" stroke-width="2"/><path d="M10 24h44c4.5 0 8 6.4 8 19s-2.7 19-8 19H10c-3.4 0-8-6.4-8-19s5.8-19 8-19z" fill="none" stroke="#2e4369" stroke-linecap="round" stroke-linejoin="round" stroke-width="2"/><rect data-name="stroke" x="14" y="32" width="36" height="18" rx="3" ry="3" fill="none" stroke="#2e4369" stroke-linecap="round" stroke-linejoin="round" stroke-width="2"/><path data-name="stroke" fill="none" stroke="#2e4369" stroke-linecap="round" stroke-linejoin="round" stroke-width="2" d="M26 32v18m12-18v18"/></svg>