<svg xmlns="http://www.w3.org/2000/svg" viewBox="0 0 64 64" aria-labelledby="title" aria-describedby="desc"><path data-name="layer1" d="M38.262 27.342a3.327 3.327 0 0 1 1.7 3.557c-.386 2.048-2.566 3.581-5.961 4.283v-8.1c-1.333.054-2.672.06-4 .019V35.2c-3.433-.7-5.639-2.235-6.028-4.3a3.327 3.327 0 0 1 1.7-3.557 1.483 1.483 0 0 0 .549-.48 49.571 49.571 0 0 1-3.911-.539 6.351 6.351 0 0 0-1.284 5.133c.322 1.711 1.858 5.584 8.976 6.792v6.848c-2.207-.634-3.468-1.74-3.9-2.65a1.581 1.581 0 0 1 .088-1.652 1.5 1.5 0 1 0-2.512-1.643 4.607 4.607 0 0 0-.29 4.574 7.637 7.637 0 0 0 3.622 3.414 4.7 4.7 0 0 0-2.175 4.078c.119 2.149 1.944 4.405 5.163 5.078v1.783a1.5 1.5 0 0 0-2.383 1.818A6.867 6.867 0 0 0 30 61.841V62a2 2 0 0 0 4 0v-.168c2.112-1.1 3.5-3.117 3.261-5.024a3.322 3.322 0 0 0-.677-1.6 5.984 5.984 0 0 0 1.648-1.562 4.472 4.472 0 0 0 .608-4.137 1.5 1.5 0 0 0-2.816 1.035 1.5 1.5 0 0 1-.252 1.385A3.643 3.643 0 0 1 34 53.161V48.17c3.146-.721 5.536-2.311 6.543-4.446a4.6 4.6 0 0 0-.292-4.574 6.5 6.5 0 0 0-2.327-2.063c3.746-1.677 4.734-4.3 4.984-5.631a6.349 6.349 0 0 0-1.379-5.247 43.182 43.182 0 0 1-3.853.6 1.484 1.484 0 0 0 .586.533zM30 53.175c-1.317-.451-2.123-1.305-2.168-2.125-.041-.739.644-1.558 2.168-2.089zm7.829-10.73c-.425.9-1.663 2-3.829 2.633v-6.249a9.6 9.6 0 0 1 2.321.79 3.759 3.759 0 0 1 1.42 1.173 1.585 1.585 0 0 1 .088 1.652z" fill="#202020"/><path data-name="layer2" d="M34 24.947a39.4 39.4 0 0 0 6.675-.859l-3.431-3.381a1 1 0 0 1 1.414-1.414l4.284 4.222a32.761 32.761 0 0 0 5.922-2.357L42.5 17.895a1 1 0 1 1 .895-1.789l7.548 3.872a31.837 31.837 0 0 0 3.848-2.792l-7.249-3.271a1 1 0 0 1 .813-1.828l8.053 3.634a33.925 33.925 0 0 0 3.2-3.582l-6.8-1.148a1 1 0 1 1 .283-1.979l7.831 1.322a35.758 35.758 0 0 0 1.9-3.13 1.478 1.478 0 0 0-.036-1.469A1.5 1.5 0 0 0 61.492 5H41.568a1.493 1.493 0 0 0-1.5 1.351C39.881 8.35 38.714 13 32 13s-7.881-4.65-8.071-6.65A1.493 1.493 0 0 0 22.432 5H2.508a1.5 1.5 0 0 0-1.295.732A1.478 1.478 0 0 0 1.178 7.2c.465.865 1.02 1.808 1.671 2.791l8.01-.984a1 1 0 1 1 .283 1.979l-6.978.857a33.995 33.995 0 0 0 3.373 3.821l8.057-3.581a1 1 0 0 1 .813 1.828l-7.255 3.227a31.856 31.856 0 0 0 3.612 2.662l7.789-3.69a1 1 0 1 1 .895 1.789l-6.583 3.118a32.682 32.682 0 0 0 6.19 2.5l4.239-4.221a1 1 0 0 1 1.414 1.414l-3.393 3.379a39.4 39.4 0 0 0 6.685.858z" fill="#202020"/><circle data-name="layer1" cx="32" cy="5" r="5" fill="#202020"/></svg>