<svg xmlns="http://www.w3.org/2000/svg" viewBox="0 0 64 64" aria-labelledby="title" aria-describedby="desc"><path data-name="layer2" d="M55 32c-1.4-.2-2 .9-2.5 1.5l-3.4 5.2a2.4 2.4 0 0 0 .6 3.3c1.4 1.2 2.9 2.2-2.6 7.7s-6 3.5-7.2 2.1a2.4 2.4 0 0 0-3.3-.6l-5.2 3.4c-.7.4-1.7 1.1-1.5 2.5a7.2 7.2 0 0 0 6.8 5c4.5 0 10-3.5 14.8-8.4S60 43.3 60 38.8a7.2 7.2 0 0 0-5-6.8z" fill="#202020"/><path data-name="layer1" d="M33.4 48.5l1.2-.8a6.5 6.5 0 0 1 3.5-1 6.3 6.3 0 0 1 4.2 1.6l1-.4 1.1-1.1a26.5 26.5 0 0 0 2.2-2.4 6.5 6.5 0 0 1-1.4-2.4l-2.1-.6-4.4-1.1c-4.3-1.6-4-3.7-4-4.8V34a14.6 14.6 0 0 0 4.2-7c2.5 0 3-5.1 3-5.8s.1-3.8-2.4-3.8C44.6 4.5 30.4-2.3 19.8 5.1c-4.4 0-4.7 5.9-3.1 12.3-2.5 0-2.4 3-2.4 3.8s.6 5.8 3 5.8a14.6 14.6 0 0 0 4.2 7v1.6c0 1.6 0 4-8.1 5.6S4 50 4 50h27.1z" fill="#202020"/></svg>