<svg xmlns="http://www.w3.org/2000/svg" viewBox="0 0 64 64" aria-labelledby="title" aria-describedby="desc"><path data-name="layer5" d="M62 40V16a2 2 0 0 0-2-2H34a2 2 0 0 0-2 2v24z" fill="#7b8baf"/><rect data-name="layer5" x="2" y="8" width="24" height="48" rx="2" ry="2" fill="#7b8baf"/><circle data-name="layer4" cx="14" cy="28" r="12" fill="#8fa9d8"/><path data-name="opacity" d="M20.2 38.2A12 12 0 0 1 2 28v12.9a12 12 0 0 0 18.2-2.7z" fill="#000064" opacity=".18"/><circle data-name="layer3" cx="14" cy="28" r="6" fill="#78d1f4"/><path data-name="layer2" fill="#536897" d="M26 20h6v14h-6z"/><circle data-name="layer1" cx="15" cy="27" r="2" fill="#fff"/><path data-name="stroke" d="M62 40V16a2 2 0 0 0-2-2H34a2 2 0 0 0-2 2v24zM32 20h-6m6 14h-6m17.8-10.7H62" fill="none" stroke="#2e4369" stroke-linecap="round" stroke-miterlimit="10" stroke-width="2" stroke-linejoin="round"/><rect data-name="stroke" x="2" y="8" width="24" height="48" rx="2" ry="2" fill="none" stroke="#2e4369" stroke-linecap="round" stroke-miterlimit="10" stroke-width="2" stroke-linejoin="round"/><circle data-name="stroke" cx="14" cy="28" r="12" fill="none" stroke="#2e4369" stroke-linecap="round" stroke-miterlimit="10" stroke-width="2" stroke-linejoin="round"/><circle data-name="stroke" cx="14" cy="28" r="6" fill="none" stroke="#2e4369" stroke-linecap="round" stroke-miterlimit="10" stroke-width="2" stroke-linejoin="round"/><path data-name="stroke" fill="none" stroke="#2e4369" stroke-linecap="round" stroke-miterlimit="10" stroke-width="2" d="M12 48h14" stroke-linejoin="round"/></svg>