<svg xmlns="http://www.w3.org/2000/svg" viewBox="0 0 64 64" aria-labelledby="title" aria-describedby="desc"><path data-name="layer1" d="M44.5 6H43l-3.3-4h-7.9l-3.2 4H17.5A1.5 1.5 0 0 0 16 7.5v15a1.5 1.5 0 0 0 1.5 1.5h27a1.5 1.5 0 0 0 1.5-1.5v-15A1.5 1.5 0 0 0 44.5 6z" fill="#7b8baf"/><circle data-name="layer2" cx="36" cy="14" r="4" fill="#8fa9d8"/><path data-name="layer1" fill="#7b8baf" d="M36 24v16l-4 4-4-4V24h8z"/><path data-name="opacity" fill="#000064" opacity=".2" d="M28 24h8v7h-8z"/><path data-name="stroke" fill="none" stroke="#2e4369" stroke-linecap="round" stroke-miterlimit="10" stroke-width="2" d="M28 24v16l4 4 4-4V24m-4 38V44L14 62m18-18l18 18M44.5 6H43l-3.3-4h-7.9l-3.2 4H17.5A1.5 1.5 0 0 0 16 7.5v15a1.5 1.5 0 0 0 1.5 1.5h27a1.5 1.5 0 0 0 1.5-1.5v-15A1.5 1.5 0 0 0 44.5 6z" stroke-linejoin="round"/><circle data-name="stroke" cx="36" cy="14" r="4" fill="none" stroke="#2e4369" stroke-linecap="round" stroke-miterlimit="10" stroke-width="2" stroke-linejoin="round"/></svg>