<svg xmlns="http://www.w3.org/2000/svg" viewBox="0 0 64 64" aria-labelledby="title" aria-describedby="desc"><path data-name="layer3" d="M14 48v10a4 4 0 0 0 4 4h28a4 4 0 0 0 4-4V48z" fill="#536897"/><path data-name="layer4" fill="#a0d6ef" d="M14 10h36v38H14z"/><path data-name="layer3" d="M50 6a4 4 0 0 0-4-4H18a4 4 0 0 0-4 4v4h36z" fill="#536897"/><circle data-name="layer2" cx="32" cy="55" r="3" fill="#7b8baf"/><path data-name="layer2" d="M45 48a13.5 13.5 0 0 0-8.7-12.7 8.7 8.7 0 0 0 3.3-6.9c0-4.6-3.4-8.4-7.6-8.4s-7.6 3.8-7.6 8.4a8.7 8.7 0 0 0 3.3 6.9A13.5 13.5 0 0 0 19 48z" fill="#7b8baf"/><circle data-name="layer1" cx="42" cy="10" r="3" fill="#fbd94e"/><rect data-name="stroke" x="14" y="2" width="36" height="60" rx="4" ry="4" fill="none" stroke="#2e4369" stroke-linecap="round" stroke-miterlimit="10" stroke-width="2" stroke-linejoin="round"/><path data-name="stroke" fill="none" stroke="#2e4369" stroke-linecap="round" stroke-miterlimit="10" stroke-width="2" d="M14 10h25m6 0h5M14 48h36" stroke-linejoin="round"/><circle data-name="stroke" cx="32" cy="55" r="3" fill="none" stroke="#2e4369" stroke-linecap="round" stroke-miterlimit="10" stroke-width="2" stroke-linejoin="round"/><circle data-name="stroke" cx="42" cy="10" r="3" fill="none" stroke="#2e4369" stroke-linecap="round" stroke-miterlimit="10" stroke-width="2" stroke-linejoin="round"/><path data-name="stroke" d="M45 48a13.5 13.5 0 0 0-8.7-12.7 8.7 8.7 0 0 0 3.3-6.9c0-4.6-3.4-8.4-7.6-8.4s-7.6 3.8-7.6 8.4a8.7 8.7 0 0 0 3.3 6.9A13.5 13.5 0 0 0 19 48" fill="none" stroke="#2e4369" stroke-linecap="round" stroke-miterlimit="10" stroke-width="2" stroke-linejoin="round"/></svg>