<svg viewBox="0 0 64 64" xmlns="http://www.w3.org/2000/svg" aria-labelledby="title" aria-describedby="desc"><path fill="#7b8baf" d="M62 6a4 4 0 0 0-4-4H6a4 4 0 0 0-4 4v20a3.936 3.936 0 0 0 .074.731c0 5.269-.254 16.739 9.086 26.08A3.991 3.991 0 0 0 14 54h36a3.983 3.983 0 0 0 2.865-1.217c.016.008.031.02.049.028C62.254 43.471 62 32 62 26.731l-.07-.025A4.194 4.194 0 0 0 62 26z" data-name="layer2"/><path d="M10 10h44v22H10z" fill="#c3d6e0" data-name="layer3"/><path d="M20 54h24v8H20z" fill="#7b8baf" data-name="layer2"/><path d="M20 54h24v8H20z" opacity=".25" fill="#000064" data-name="opacity"/><path d="M54 25v-8l-7-7h-8l15 15zM19 10l22 22h13L32 10H19z" fill="#fff" data-name="layer1"/><path stroke-width="2" stroke-miterlimit="10" stroke-linecap="round" stroke="#2e4369" fill="none" d="M62 26.731c0 5.269.254 16.739-9.086 26.08-.018-.008-.033-.02-.049-.028A3.983 3.983 0 0 1 50 54H14a3.991 3.991 0 0 1-2.844-1.189C1.816 43.471 2.07 32 2.07 26.731A3.936 3.936 0 0 1 2 26V6a4 4 0 0 1 4-4h52a4 4 0 0 1 4 4z" data-name="stroke" stroke-linejoin="round"/><path d="M10 10h44v22H10zm12 8h20m-20 6h20M26 46h12M18 32v14m28-14v14m-26 8v8h24v-8" stroke-width="2" stroke-miterlimit="10" stroke-linecap="round" stroke="#2e4369" fill="none" data-name="stroke" stroke-linejoin="round"/></svg>