<svg xmlns="http://www.w3.org/2000/svg" viewBox="0 0 64 64" aria-labelledby="title" aria-describedby="desc"><path data-name="layer2" d="M22 20h20a2 2 0 0 0 0-4H22a2 2 0 0 0 0 4zm20 2H22a2 2 0 0 0 0 4h20a2 2 0 0 0 0-4z" fill="#202020"/><path data-name="layer1" d="M62 26.7h-.1a4.2 4.2 0 0 0 .1-.7V6a4 4 0 0 0-4-4H6a4 4 0 0 0-4 4v20a3.9 3.9 0 0 0 .1.7c0 5.3-.3 16.7 9.1 26.1A4 4 0 0 0 14 54h36a4 4 0 0 0 2.9-1.2C62.3 43.5 62 32 62 26.7zM38 48H26a2 2 0 0 1 0-4h12a2 2 0 0 1 0 4zm16-16H10V10h44zM20 58h24v4H20z" fill="#202020"/></svg>