<svg xmlns="http://www.w3.org/2000/svg" viewBox="0 0 64 64" aria-labelledby="title" aria-describedby="desc"><circle data-name="layer3" cx="32" cy="32" r="30" fill="#ff694c"/><path data-name="layer2" d="M48.2 22h-7.5l-3.9-4h-9.6l-3.9 4h-7.5a1.8 1.8 0 0 0-1.8 1.8v18.4a1.8 1.8 0 0 0 1.8 1.8h32.4a1.8 1.8 0 0 0 1.8-1.8V23.8a1.8 1.8 0 0 0-1.8-1.8z" fill="#7b8baf"/><circle data-name="layer1" cx="32" cy="32" r="7" fill="#8fa9d8"/><path data-name="opacity" d="M48.2 44H15.8a1.8 1.8 0 0 1-1.8-1.8V23.8a1.7 1.7 0 0 1 .5-1.2L2.1 34.9A30 30 0 0 0 31 62l18.3-18.4a1.8 1.8 0 0 1-1.1.4z" fill="#000064" opacity=".16"/><circle data-name="stroke" cx="32" cy="32" r="30" fill="none" stroke="#2e4369" stroke-linecap="round" stroke-miterlimit="10" stroke-width="2" stroke-linejoin="round"/><path data-name="stroke" d="M48.2 22h-7.5l-3.9-4h-9.6l-3.9 4h-7.5a1.8 1.8 0 0 0-1.8 1.8v18.4a1.8 1.8 0 0 0 1.8 1.8h32.4a1.8 1.8 0 0 0 1.8-1.8V23.8a1.8 1.8 0 0 0-1.8-1.8z" fill="none" stroke="#2e4369" stroke-linecap="round" stroke-miterlimit="10" stroke-width="2" stroke-linejoin="round"/><circle data-name="stroke" cx="32" cy="32" r="7" fill="none" stroke="#2e4369" stroke-linecap="round" stroke-miterlimit="10" stroke-width="2" stroke-linejoin="round"/></svg>