<svg xmlns="http://www.w3.org/2000/svg" viewBox="0 0 64 64" aria-labelledby="title" aria-describedby="desc"><path data-name="layer1" fill="#536897" d="M4 10h24v44H4zm24 37h22v-7q0-6 6-6h6V17H28z"/><path data-name="opacity" fill="#000064" opacity=".16" d="M4 10h6v44H4z"/><path data-name="opacity" fill="#fff" opacity=".25" d="M17 10h7v44h-7z"/><path data-name="opacity" fill="#000064" opacity=".16" d="M28 17h6v30h-6z"/><path data-name="stroke" d="M28 17h34v17h-6q-6 0-6 6v7H28M2 10h28M2 54h28M4 10v44m24-44v44m7-31v2m8-2v2m-8 14v2m8-2v2m8-18v2" fill="none" stroke="#2e4369" stroke-linecap="round" stroke-miterlimit="10" stroke-width="2" stroke-linejoin="round"/></svg>