<svg xmlns="http://www.w3.org/2000/svg" viewBox="0 0 64 64" aria-labelledby="title" aria-describedby="desc"><circle data-name="layer4" cx="10" cy="10" r="8" fill="#ffd14d"/><path data-name="layer2" fill="#996" d="M2 46h24v16H2z"/><path data-name="layer3" fill="#bfac77" d="M20.9 24L2 46h24l18.5-22H20.9z"/><path data-name="layer2" fill="#996" d="M62 46L44.5 24 26 46v16h36V46z"/><path data-name="layer1" fill="#656559" d="M32 62h24L44.5 40 32 62z"/><path data-name="opacity" fill="#000064" opacity=".15" d="M2 46h24v16H2z"/><path data-name="opacity" fill="#000064" opacity=".2" d="M32 62h24L44.5 40 32 62z"/><path data-name="stroke" fill="none" stroke="#2e4369" stroke-linecap="round" stroke-linejoin="round" stroke-width="2" d="M62 62V46L44.5 24H20.9L2 46v16h60z"/><path data-name="stroke" fill="none" stroke="#2e4369" stroke-linecap="round" stroke-linejoin="round" stroke-width="2" d="M44.5 24L26 46v16m30 0L44.5 40m0 0L32 62m-6-16H2"/><circle data-name="stroke" cx="10" cy="10" r="8" fill="none" stroke="#2e4369" stroke-linecap="round" stroke-linejoin="round" stroke-width="2"/></svg>