<svg xmlns="http://www.w3.org/2000/svg" viewBox="0 0 64 64" aria-labelledby="title" aria-describedby="desc"><path data-name="layer2" d="M47 24c0-.6-.6-1.1-.9-1.3L45 22c-1.5-1-4-3-4-6M17 56.9a2.1 2.1 0 0 0 .4 1.4l3.5 3.2c.3.3.5.5.8.5h20.5c.4 0 .6-.2.8-.5l3.5-3.2a2.1 2.1 0 0 0 .4-1.4V40M23 16c0 4-4.8 6.3-5.1 6.6s-.9.7-.9 1.3V36m4-26l6 6m-6 0h22" fill="none" stroke="#202020" stroke-linecap="round" stroke-linejoin="round" stroke-width="2"/><path data-name="layer1" d="M17 56c0-7.9 30-11.8 30-16m-2-18c-6.7 3.5-28 7.4-28 14m30 4V24c0-.6-.6-1.1-.9-1.3L45 22M17 36v20.9" fill="none" stroke="#202020" stroke-linecap="round" stroke-linejoin="round" stroke-width="2"/><circle data-name="layer1" cx="34" cy="3" r="1" fill="none" stroke="#202020" stroke-linecap="round" stroke-linejoin="round" stroke-width="2"/><circle data-name="layer1" cx="42" cy="7" r="1" fill="none" stroke="#202020" stroke-linecap="round" stroke-linejoin="round" stroke-width="2"/><circle data-name="layer1" cx="36" cy="11" r="1" fill="none" stroke="#202020" stroke-linecap="round" stroke-linejoin="round" stroke-width="2"/></svg>