<svg xmlns="http://www.w3.org/2000/svg" viewBox="0 0 64 64" aria-labelledby="title" aria-describedby="desc"><circle data-name="layer3" cx="34" cy="3" r="1" fill="#f16262"/><circle data-name="layer3" cx="42" cy="7" r="1" fill="#f16262"/><circle data-name="layer3" cx="36" cy="11" r="1" fill="#f16262"/><path data-name="layer3" d="M17 56v.9a2.1 2.1 0 0 0 .4 1.4l3.5 3.2c.3.3.5.5.8.5h20.5c.4 0 .6-.2.8-.5l3.5-3.2a2.1 2.1 0 0 0 .4-1.4V40C47 44.2 17 48.1 17 56zm28-34c-1.5-1-4-3-4-6H23c0 4-4.8 6.3-5.1 6.6s-.9.7-.9 1.3V36c0-6.7 21.3-10.5 28-14z" fill="#f16262"/><path data-name="layer2" d="M46.1 22.7L45 22c-6.7 3.5-28 7.4-28 14v20c0-7.9 30-11.8 30-16V24c0-.6-.6-1-.9-1.3z" fill="#d5e2f4"/><path data-name="layer1" d="M17.9 22.7c.3-.3 5.1-2.7 5.1-6.7 0 4-4.8 6.3-5.1 6.6s-.9.7-.9 1.3c0-.5.6-.9.9-1.2z" fill="#51853d"/><path data-name="opacity" d="M20.9 61.5c.3.3.5.5.8.5h3.4c-.2 0-.4-.2-.6-.5l-2.3-3.2a2.8 2.8 0 0 1-.3-1.4v-6.3c-3 1.6-5 3.4-5 5.4v.9a2.1 2.1 0 0 0 .4 1.4zM22 30.6V24a2.3 2.3 0 0 1 .6-1.3c.2-.4 3.4-2.7 3.4-6.7h-3c0 4-4.8 6.3-5.1 6.6s-.9.7-.9 1.3V36c0-2 2-3.8 5-5.4z" fill="#101129" opacity=".25"/><path data-name="opacity" d="M22 50.6v-20c-3 1.6-5 3.4-5 5.4v20c0-2 2-3.8 5-5.4z" fill="#101129" opacity=".25"/><path data-name="opacity" d="M36 56.9a6.5 6.5 0 0 1-.1 1.4l-.9 3.2c-.1.3-.1.5-.2.5h4.1c.3 0 .4-.2.6-.5l2.3-3.2a2.8 2.8 0 0 0 .3-1.4V43.3l-6 2zM36 24v1.3l5.8-2-.5-.7C41.2 22.3 38 20 38 16h-3.6a16.1 16.1 0 0 0 1.3 6.6A4.4 4.4 0 0 1 36 24zm0 21.3l6-2V24a1.4 1.4 0 0 0-.2-.6l-5.8 2z" fill="#fff" opacity=".5"/><path data-name="stroke" d="M47 40c0 4.2-30 8.1-30 16m28-34c-6.7 3.5-28 7.4-28 14" fill="none" stroke="#2f446a" stroke-linecap="round" stroke-linejoin="round" stroke-width="2"/><path data-name="stroke" d="M23 16c0 4-4.8 6.3-5.1 6.6s-.9.7-.9 1.3v33a2.1 2.1 0 0 0 .4 1.4l3.5 3.2c.3.3.5.5.8.5h20.6c.4 0 .6-.2.8-.5l3.5-3.2a2.1 2.1 0 0 0 .4-1.4V24c0-.6-.6-1.1-.9-1.3S41 20 41 16m-20-6l6 6m-6 0h22" fill="none" stroke="#2f446a" stroke-linecap="round" stroke-linejoin="round" stroke-width="2"/><circle data-name="stroke" cx="34" cy="3" r="1" fill="none" stroke="#2f446a" stroke-linecap="round" stroke-linejoin="round" stroke-width="2"/><circle data-name="stroke" cx="42" cy="7" r="1" fill="none" stroke="#2f446a" stroke-linecap="round" stroke-linejoin="round" stroke-width="2"/><circle data-name="stroke" cx="36" cy="11" r="1" fill="none" stroke="#2f446a" stroke-linecap="round" stroke-linejoin="round" stroke-width="2"/></svg>