<svg xmlns="http://www.w3.org/2000/svg" viewBox="0 0 64 64" aria-labelledby="title" aria-describedby="desc"><path data-name="layer2" d="M57.9 48l-10.4-6.8a4.8 4.8 0 0 0-6.5 1.3c-2.3 2.9-5.3 7.7-16.2-3.2S18.6 25.4 21.5 23a4.8 4.8 0 0 0 1.3-6.5L16 6.1c-.9-1.3-2.1-3.4-4.9-3S1 7.6 1 16.6s7.1 20 16.8 29.7S38.5 63 47.4 63s13.2-8 13.5-10-1.7-4.1-3-5z" fill="#202020"/><path data-name="layer1" d="M53.8 13l8.6-8.6a2 2 0 0 0-2.8-2.8L51 10.2l-8.6-8.6a2 2 0 0 0-2.8 2.8l8.6 8.6-8.6 8.6a2 2 0 1 0 2.8 2.8l8.6-8.6 8.6 8.6a2 2 0 0 0 2.8-2.8z" fill="#202020"/></svg>