<svg xmlns="http://www.w3.org/2000/svg" viewBox="0 0 64 64" aria-labelledby="title" aria-describedby="desc"><path data-name="layer1" d="M45 27V9a2 2 0 0 0-2-2h-6v4h3v16.7a17.9 17.9 0 0 0-4 1.7V15H10v33h17.3a17.9 17.9 0 0 0 1.8 5.4l-.7-1.4H6V11h3V7H3a2 2 0 0 0-2 2v46a2 2 0 0 0 2 2h28.6l.6.6h.2A18 18 0 1 0 45 27zm-28-8h12a2 2 0 0 1 0 4H17a2 2 0 0 1 0-4zm0 10h12a2 2 0 0 1 0 4H17a2 2 0 0 1 0-4zm10.1 14H17a2 2 0 0 1 0-4h11.1s-.6 2-1 4zm3.9 2a14 14 0 0 1 22.4-11.2L33.8 53.4A13.9 13.9 0 0 1 31 45zm14 14a13.9 13.9 0 0 1-8.4-2.8l19.6-19.6A14 14 0 0 1 45 59z" fill="#202020"/><path data-name="layer1" d="M33 7a2 2 0 0 0-2-2h-3.1a5 5 0 0 0-9.8 0H15a2 2 0 0 0-2 2v4h20z" fill="#202020"/></svg>