<svg xmlns="http://www.w3.org/2000/svg" viewBox="0 0 64 64" aria-labelledby="title" aria-describedby="desc"><path data-name="layer2" d="M34 41.9V60a2 2 0 0 1-2 2 2 2 0 0 1-2-2V41.9" fill="#fce3d6"/><path data-name="opacity" fill="#101129" opacity=".18" d="M30 41.9h4v5.09h-4z"/><circle data-name="layer1" cx="32" cy="22" r="20" fill="#f0494c"/><path data-name="opacity" d="M15 19a19.9 19.9 0 0 1 4.4-12.6 20 20 0 1 0 28.2 28.2A20 20 0 0 1 15 19z" fill="#101129" opacity=".18"/><circle data-name="stroke" cx="32" cy="22" r="20" fill="none" stroke="#2f446a" stroke-linecap="round" stroke-linejoin="round" stroke-width="2"/><path data-name="stroke" d="M38 41.1a18.7 18.7 0 0 1-16.3-6.3 14.9 14.9 0 0 1 1.5-21.1A12 12 0 0 1 40 14.9a9.6 9.6 0 0 1-.9 13.5 7.7 7.7 0 0 1-10.8-.7c-1.4-1.6-2-6.4.6-8.6s6.3-1.1 6.3 2.2M34 41.9V60a2 2 0 0 1-2 2 2 2 0 0 1-2-2V41.9" fill="none" stroke="#2f446a" stroke-linecap="round" stroke-linejoin="round" stroke-width="2"/></svg>