<svg xmlns="http://www.w3.org/2000/svg" viewBox="0 0 64 64" aria-labelledby="title" aria-describedby="desc"><path data-name="layer2" d="M32 1a20 20 0 0 0-4.6 39.4 20.7 20.7 0 0 1-7.2-5.3 17 17 0 0 1 1.7-23.9 14 14 0 0 1 19.7 1.4 11.6 11.6 0 0 1-1.1 16.3 9.7 9.7 0 0 1-13.7-.9 8.5 8.5 0 0 1-1.7-5.4 7.9 7.9 0 0 1 2.5-6 6.4 6.4 0 0 1 6.6-.9 5 5 0 0 1 3 4.7 2 2 0 0 1-4 0 1 1 0 0 0-.6-1 2.4 2.4 0 0 0-2.4.3 4 4 0 0 0-1.1 3 4.9 4.9 0 0 0 .7 2.8 5.7 5.7 0 0 0 8 .6 7.6 7.6 0 0 0 .7-10.7 10 10 0 0 0-14-1 13 13 0 0 0-1.3 18.3 16.7 16.7 0 0 0 14.6 5.6 2 2 0 0 1 2.1 1.3A20 20 0 0 0 32 1z" fill="#202020"/><path data-name="layer1" d="M32 40a2 2 0 0 0-2 2v19a2 2 0 0 0 4 0V42a2 2 0 0 0-2-2z" fill="#202020"/></svg>