<svg xmlns="http://www.w3.org/2000/svg" viewBox="0 0 64 64" aria-labelledby="title" aria-describedby="desc"><ellipse data-name="layer1" cx="32" cy="32" rx="20" ry="14" transform="rotate(-45 31.977 32.055)" fill="#f0494c"/><path data-name="layer1" d="M17.9 46.2c-7.2-1.4-13.8-.4-15.6 1.4s1.7 1.3 2.8 2.8 1.5 4.3 2.8 5.7 4.2 1.7 5.7 2.8 1.6 4 2.8 2.8 2.9-8.4 1.5-15.5zm28.3-28.3c-1.4-7.2-.4-13.8 1.4-15.6s1.3 1.7 2.8 2.8 4.3 1.5 5.7 2.8 1.7 4.2 2.8 5.7 4 1.6 2.8 2.8-8.4 2.9-15.5 1.5z" fill="#f0494c"/><path data-name="opacity" d="M17.9 46.2c5.5 5.4 16.2 3.5 24-4.3s9.7-18.5 4.3-24a27.7 27.7 0 0 1-7.9 19.5 29.2 29.2 0 0 1-20.4 8.8zM8 56.1c1.4 1.3 4.1 1.7 5.6 2.8s1.6 4 2.8 2.8 2.8-8.3 1.4-15.5zm50.9-42.5c-1.1-1.5-1.5-4.3-2.8-5.6l-9.9 9.9c7.2 1.4 13.7.3 15.5-1.4s-1.7-1.4-2.8-2.9z" fill="#101129" opacity=".18"/><ellipse data-name="opacity" cx="30.8" cy="24.5" rx="5" ry="3.5" transform="rotate(-45 30.735 24.469)" fill="#fff" opacity=".4"/><ellipse data-name="stroke" cx="32" cy="32" rx="20" ry="14" transform="rotate(-45 31.977 32.055)" fill="none" stroke="#2f446a" stroke-linecap="round" stroke-linejoin="round" stroke-width="2"/><path data-name="stroke" d="M17.8 46.2c-7.2-1.4-13.8-.4-15.6 1.4s1.8 1.3 2.9 2.8 1.5 4.3 2.8 5.7 4.2 1.7 5.7 2.8 1.6 4 2.8 2.8 2.9-8.4 1.4-15.5zm28.3-28.3c-1.4-7.2-.4-13.8 1.4-15.6s1.4 1.7 2.9 2.8 4.3 1.5 5.7 2.8 1.7 4.2 2.8 5.7 4 1.6 2.8 2.8-8.4 2.9-15.6 1.5z" fill="none" stroke="#2f446a" stroke-linecap="round" stroke-linejoin="round" stroke-width="2"/></svg>