<svg xmlns="http://www.w3.org/2000/svg" viewBox="0 0 64 64" aria-labelledby="title" aria-describedby="desc"><path data-name="layer2" d="M34 41.9V60a2 2 0 0 1-2 2 2 2 0 0 1-2-2V41.9" fill="none" stroke="#202020" stroke-linecap="round" stroke-linejoin="round" stroke-width="2"/><circle data-name="layer1" cx="32" cy="22" r="20" fill="none" stroke="#202020" stroke-linecap="round" stroke-linejoin="round" stroke-width="2"/><path data-name="layer1" d="M38 41.1a18.7 18.7 0 0 1-16.3-6.3 14.9 14.9 0 0 1 1.5-21.1A12 12 0 0 1 40 14.9a9.6 9.6 0 0 1-.9 13.5 7.7 7.7 0 0 1-10.8-.7c-1.4-1.6-2-6.4.6-8.6s6.3-1.1 6.3 2.2" fill="none" stroke="#202020" stroke-linecap="round" stroke-linejoin="round" stroke-width="2"/></svg>