<svg xmlns="http://www.w3.org/2000/svg" viewBox="0 0 64 64" aria-labelledby="title" aria-describedby="desc"><path data-name="layer2" d="M20.1 14a18 18 0 0 0 0 36H28V14z" fill="#7b8baf"/><path data-name="layer1" fill="#bacae7" d="M28 14h12v36H28z"/><path data-name="opacity" d="M35 46h-7.9a18 18 0 0 1-12.2-31.2A18 18 0 0 0 20.1 50H40v-4z" fill="#000064" opacity=".15"/><path data-name="opacity" d="M21.5 20a4.5 4.5 0 0 0 0 9H40v-9z" fill="#fff" opacity=".3"/><path data-name="stroke" d="M20.1 14H40v36H20.1a18 18 0 0 1 0-36zM48 20h14m-14 8h14m-14 8h14m-14 8h14M28 14v36" fill="none" stroke="#2e4369" stroke-linecap="round" stroke-linejoin="round" stroke-width="2"/></svg>