<svg xmlns="http://www.w3.org/2000/svg" viewBox="0 0 64 64" aria-labelledby="title" aria-describedby="desc"><path data-name="layer2" d="M56 51a2 2 0 0 0-2 2 4 4 0 0 1-8 .1 2 2 0 0 0-2-2 2 2 0 0 0-2 2 4 4 0 0 1-8-.1 2 2 0 0 0-2-2 2 2 0 0 0-2 2 4 4 0 0 1-8 .1 2 2 0 0 0-2-2 2 2 0 0 0-2 2 4 4 0 0 1-8-.1 2 2 0 1 0-4 0 8 8 0 0 0 14 5.3 8 8 0 0 0 12 0 8 8 0 0 0 12 0A8 8 0 0 0 58 53a2 2 0 0 0-2-2z" fill="#202020"/><path data-name="layer1" d="M10.4 31L32 27l21.7 4h.3a2 2 0 0 0 .4-4L46 25.5V12.9a1.9 1.9 0 0 0-1.9-1.9H36V3h-8v8h-8.1a1.9 1.9 0 0 0-1.9 1.9v12.6L9.7 27a2 2 0 1 0 .7 3.9zM26 17h12a2 2 0 0 1 0 4H26a2 2 0 0 1 0-4zM14 34.3a56.6 56.6 0 0 0 4.1 13.1 5.9 5.9 0 0 1 1.9-.3 6 6 0 0 1 6 5.9 6 6 0 0 1 5.5-6h1a6 6 0 0 1 5.5 6 6 6 0 0 1 6-5.9 5.9 5.9 0 0 1 1.9.3A56.5 56.5 0 0 0 50 34.3l-18-3.2zM24 41a2 2 0 1 1 2-2 2 2 0 0 1-2 2zm16-4a2 2 0 1 1-2 2 2 2 0 0 1 2-2z" fill="#202020"/></svg>