<svg xmlns="http://www.w3.org/2000/svg" viewBox="0 0 64 64" aria-labelledby="title" aria-describedby="desc"><path data-name="layer4" fill="#c3d6e0" d="M28 13V5h8v8"/><path data-name="layer3" d="M32 27l-18.9 3.4c1.3 13.8 6.3 21.7 6.8 22.6h.1a6 6 0 0 0 12 0 6 6 0 0 0 6 6h.6l1.7-.4.5-.2 1-.6a6 6 0 0 0 1.2-1.3l.6-1a6 6 0 0 0 .5-2.3H44c.5-.8 5.5-8.8 6.8-22.6z" fill="#7b8baf"/><circle data-name="layer2" cx="24" cy="41" r="2" fill="#536897"/><circle data-name="layer2" cx="40" cy="41" r="2" fill="#536897"/><path data-name="layer1" d="M46 29.5V14.9a1.9 1.9 0 0 0-1.9-1.9H19.9a1.9 1.9 0 0 0-1.9 1.9v14.6L32 27z" fill="#dde5f4"/><path data-name="opacity" fill="#000064" opacity=".15" d="M28 5h4v8h-4z"/><path data-name="opacity" d="M23 28V14.9a1.9 1.9 0 0 1 1.9-1.9h-5a1.9 1.9 0 0 0-1.9 1.9v14.6l5-.9z" fill="#000064" opacity=".1"/><path data-name="opacity" d="M13.1 30.4c1.3 13.8 6.3 21.7 6.8 22.6h.1a6 6 0 0 0 12 0V26.9z" fill="#000064" opacity=".15"/><path data-name="stroke" fill="none" stroke="#2e4369" stroke-linecap="round" stroke-linejoin="round" stroke-width="2" d="M28 13V5h8v8M18 28V14.9a1.9 1.9 0 0 1 1.9-1.9h24.2a1.9 1.9 0 0 1 1.9 1.9V28"/><path data-name="stroke" fill="none" stroke="#2e4369" stroke-linecap="round" stroke-linejoin="round" stroke-width="2" d="M10 31l22-4 22 4M26 21h12m-24.9 9.4C14.6 45 20 53.1 20 53.1m30.8-22.7C49.4 45 44 53.1 44 53.1"/><path data-name="stroke" d="M8 53a6 6 0 0 0 12 .1 6 6 0 0 0 12-.1" fill="none" stroke="#2e4369" stroke-linecap="round" stroke-linejoin="round" stroke-width="2"/><path data-name="stroke" d="M32 53a6 6 0 0 0 12 .1 6 6 0 0 0 12-.1" fill="none" stroke="#2e4369" stroke-linecap="round" stroke-linejoin="round" stroke-width="2"/><circle data-name="stroke" cx="24" cy="41" r="2" fill="none" stroke="#2e4369" stroke-linecap="round" stroke-linejoin="round" stroke-width="2"/><circle data-name="stroke" cx="40" cy="41" r="2" fill="none" stroke="#2e4369" stroke-linecap="round" stroke-linejoin="round" stroke-width="2"/><path data-name="stroke" d="M16.9 46.6a5 5 0 1 1-2.7-9.6m32.9 9.6a5 5 0 1 0 2.7-9.6" fill="none" stroke="#2e4369" stroke-linecap="round" stroke-linejoin="round" stroke-width="2"/></svg>