<svg viewBox="0 0 64 64" xmlns="http://www.w3.org/2000/svg" aria-labelledby="title" aria-describedby="desc"><path d="M28 12.998V5h8v7.998" stroke-width="2" stroke-linejoin="round" stroke-linecap="round" stroke="#202020" fill="none" data-name="layer2"/><path stroke-width="2" stroke-linejoin="round" stroke-linecap="round" stroke="#202020" fill="none" d="M18 29.458v-14.55a1.91 1.91 0 0 1 1.91-1.91h24.18a1.91 1.91 0 0 1 1.91 1.91v14.55" data-name="layer1"/><path d="M10 30.997l22-3.998 22 3.998m-28-9.999h12m-24.863 9.429c1.422 14.578 6.855 23.646 6.855 23.646m30.856-23.646c-1.422 14.578-6.856 23.646-6.856 23.646" stroke-width="2" stroke-linejoin="round" stroke-linecap="round" stroke="#202020" fill="none" data-name="layer1"/><path stroke-width="2" stroke-linejoin="round" stroke-linecap="round" stroke="#202020" fill="none" d="M8 52.99a5.996 5.996 0 0 0 11.992.083 5.996 5.996 0 0 0 11.992-.082M32 52.99a5.996 5.996 0 0 0 11.992.083 5.996 5.996 0 0 0 11.992-.082" data-name="layer1"/><circle stroke-width="2" stroke-linejoin="round" stroke-linecap="round" stroke="#202020" fill="none" r="2" cy="40.996" cx="24" data-name="layer1"/><circle stroke-width="2" stroke-linejoin="round" stroke-linecap="round" stroke="#202020" fill="none" r="2" cy="40.996" cx="40" data-name="layer1"/><path stroke-width="2" stroke-linejoin="round" stroke-linecap="round" stroke="#202020" fill="none" d="M16.723 46.692a5.001 5.001 0 1 1-2.604-9.62m33.141 9.614a5.001 5.001 0 1 0 2.62-9.613" data-name="layer1"/></svg>