<svg xmlns="http://www.w3.org/2000/svg" viewBox="0 0 64 64" aria-labelledby="title" aria-describedby="desc"><path data-name="layer1" d="M62.4 18.3c-1.7-1.7-5.8-3.6-9.9-4l2.9-2.9a2 2 0 0 0-2.8-2.8l-2.9 2.9a16.7 16.7 0 0 0-.2-1.9 16.7 16.7 0 0 0-3.7-8A2 2 0 0 0 43 4.4a12.9 12.9 0 0 1 2.6 5.9c.3 1.7.6 4.7-1.2 6.5h-.1c-5.1-4.3-11-5.6-15.2-1.4l-2.6 2.9 7.8 7.8a2 2 0 1 1-2.9 2.9l-7.6-7.6c-1.9 2.4-3.9 5.1-5.9 7.9l5 5a2 2 0 1 1-2.8 2.8l-4.4-4.4C7 46.1-.6 60.9 1.3 62.7s12-3.5 23.1-10.2l-6.7-6.7a2 2 0 1 1 2.8-2.8l7.3 7.3c3.4-2.2 6.8-4.4 9.9-6.6l-5.9-5.9a2 2 0 0 1 2.9-2.8l6.3 6.3a75.6 75.6 0 0 0 7.5-6.4c4.2-4.2 2.9-10.1-1.4-15.2h.1c3.1-3.1 10.5-.6 12.5 1.4a2 2 0 0 0 2.8-2.8z" fill="#202020"/></svg>