<svg xmlns="http://www.w3.org/2000/svg" viewBox="0 0 64 64" aria-labelledby="title" aria-describedby="desc"><rect data-name="layer2" x="36" y="2" width="16" height="8" rx="3" ry="3" fill="#7b8baf"/><path data-name="layer3" d="M2 50l6-18h48l6 18M2 50h60v12H2zm6-18V22a4 4 0 0 1 4-4h40a4 4 0 0 1 4 4v10" fill="#c3d6f9"/><path data-name="opacity" fill="#000064" opacity=".14" d="M2 50h60v12H2zm6-18V22a4 4 0 0 1 4-4h40a4 4 0 0 1 4 4v10"/><circle data-name="layer2" cx="32" cy="56" r="1" fill="#7b8baf"/><path data-name="layer1" fill="#e0eafc" d="M16 10h12v14H16z"/><rect data-name="stroke" x="36" y="2" width="16" height="8" rx="3" ry="3" fill="none" stroke="#2e4369" stroke-linecap="round" stroke-linejoin="round" stroke-width="2"/><path data-name="stroke" fill="none" stroke="#2e4369" stroke-linecap="round" stroke-linejoin="round" stroke-width="2" d="M44 10v8M2 50l6-18h48l6 18M2 50h60v12H2zm26-32h24a4 4 0 0 1 4 4v10M8 32V22a4 4 0 0 1 4-4h4m0-8h12v14H16zm20 16h12M15 44h4m6 0h4m6 0h4m6 0h4m-29-6h4m6 0h4m6 0h4"/><circle data-name="stroke" cx="32" cy="56" r="1" fill="none" stroke="#2e4369" stroke-linecap="round" stroke-linejoin="round" stroke-width="2"/></svg>