<svg xmlns="http://www.w3.org/2000/svg" viewBox="0 0 64 64" aria-labelledby="title" aria-describedby="desc"><circle data-name="layer2" cx="18" cy="30" r="4" fill="#202020"/><path data-name="layer2" fill="#202020" d="M23.2 46l-3 6h23.6l-3-6H23.2z"/><circle data-name="layer2" cx="46" cy="30" r="4" fill="#202020"/><path data-name="layer1" d="M58 12H6a4 4 0 0 0-4 4v32a4 4 0 0 0 4 4h10a2 2 0 0 1 .2-.9l4-8A2 2 0 0 1 22 42h20a2 2 0 0 1 1.8 1.1l4 8a2 2 0 0 1 .2.9h10a4 4 0 0 0 4-4V16a4 4 0 0 0-4-4zM46 38a8 8 0 0 1-6.9-12H24.9a7.9 7.9 0 0 1 1.1 4 8 8 0 1 1-8-8h28a8 8 0 0 1 0 16z" fill="#202020"/></svg>