<svg xmlns="http://www.w3.org/2000/svg" viewBox="0 0 64 64" aria-labelledby="title" aria-describedby="desc"><path data-name="layer2" d="M58 12H6a4 4 0 0 0-4 4v32a4 4 0 0 0 4 4h52a4 4 0 0 0 4-4V16a4 4 0 0 0-4-4zM18 36a6 6 0 1 1 6-6 6 6 0 0 1-6 6zm28 0a6 6 0 1 1 6-6 6 6 0 0 1-6 6z" fill="#aabfce"/><path data-name="opacity" d="M58 12H6a4 4 0 0 0-4 4v3a4 4 0 0 1 4-4h52a4 4 0 0 1 4 4v-3a4 4 0 0 0-4-4z" fill="#fff" opacity=".25"/><path data-name="layer1" fill="#dae3ea" d="M22 44l-4 8h28l-4-8H22z"/><circle data-name="stroke" cx="18" cy="30" r="6" fill="none" stroke="#2e4369" stroke-linecap="round" stroke-miterlimit="10" stroke-width="2" stroke-linejoin="round"/><circle data-name="stroke" cx="46" cy="30" r="6" fill="none" stroke="#2e4369" stroke-linecap="round" stroke-miterlimit="10" stroke-width="2" stroke-linejoin="round"/><path data-name="stroke" fill="none" stroke="#2e4369" stroke-linecap="round" stroke-miterlimit="10" stroke-width="2" d="M18 52l4-8h20l4 8" stroke-linejoin="round"/><rect data-name="stroke" x="2" y="12" width="60" height="40" rx="4" ry="4" fill="none" stroke="#2e4369" stroke-linecap="round" stroke-miterlimit="10" stroke-width="2" stroke-linejoin="round"/><path data-name="stroke" fill="none" stroke="#2e4369" stroke-linecap="round" stroke-miterlimit="10" stroke-width="2" d="M18 24h28" stroke-linejoin="round"/></svg>