<svg xmlns="http://www.w3.org/2000/svg" viewBox="0 0 64 64" aria-labelledby="title" aria-describedby="desc"><circle data-name="layer2" cx="32" cy="23" r="4" fill="#9cf"/><path data-name="layer1" d="M16 62h32L33.5 26.7a3.9 3.9 0 0 1-3 0z" fill="#dbf1ff"/><path data-name="opacity" d="M33.5 26.7a3.9 3.9 0 0 1-3 0L16 62h10.6l5.1-31.1a4 4 0 0 0 2.8-1.9l-.9-2.3z" fill="#000064" opacity=".14"/><circle data-name="stroke" cx="32" cy="23" r="4" fill="none" stroke="#2e4369" stroke-linecap="round" stroke-miterlimit="10" stroke-width="2" stroke-linejoin="round"/><path data-name="stroke" fill="none" stroke="#2e4369" stroke-linecap="round" stroke-miterlimit="10" stroke-width="2" d="M33.5 26.7L48 62m-32 0l14.5-35.3M12 62h40M24.2 42.1L48 62m-32 0l23.8-19.9M21 30a13 13 0 1 1 22 0m-28.9 4a21 21 0 1 1 35.8 0" stroke-linejoin="round"/></svg>