<svg xmlns="http://www.w3.org/2000/svg" viewBox="0 0 64 64" aria-labelledby="title" aria-describedby="desc"><rect data-name="layer3" x="16" y="10" width="34" height="52" rx="6" ry="6" fill="#536897"/><path data-name="opacity" d="M21 56V16a6 6 0 0 1 6-6h-5a6 6 0 0 0-6 6v40a6 6 0 0 0 6 6h5a6 6 0 0 1-6-6z" fill="#000064" opacity=".14"/><path data-name="layer2" fill="#a0d6ef" d="M22 18h22v16H22z"/><circle data-name="layer1" cx="26" cy="41" r="1" fill="#7b8baf"/><circle data-name="layer1" cx="33" cy="41" r="1" fill="#7b8baf"/><circle data-name="layer1" cx="40" cy="41" r="1" fill="#7b8baf"/><circle data-name="layer1" cx="26" cy="48" r="1" fill="#7b8baf"/><circle data-name="layer1" cx="33" cy="48" r="1" fill="#7b8baf"/><circle data-name="layer1" cx="40" cy="48" r="1" fill="#7b8baf"/><circle data-name="layer1" cx="26" cy="55" r="1" fill="#7b8baf"/><circle data-name="layer1" cx="33" cy="55" r="1" fill="#7b8baf"/><circle data-name="layer1" cx="40" cy="55" r="1" fill="#7b8baf"/><path data-name="opacity" fill="#fff" opacity=".25" d="M44 18h-2L26 34h18V18z"/><rect data-name="stroke" x="16" y="10" width="34" height="52" rx="6" ry="6" fill="none" stroke="#2e4369" stroke-linecap="round" stroke-miterlimit="10" stroke-width="2" stroke-linejoin="round"/><path data-name="stroke" fill="none" stroke="#2e4369" stroke-linecap="round" stroke-miterlimit="10" stroke-width="2" d="M22 18h22v16H22zm2-16v7.9" stroke-linejoin="round"/><circle data-name="stroke" cx="26" cy="41" r="1" fill="none" stroke="#2e4369" stroke-linecap="round" stroke-miterlimit="10" stroke-width="2" stroke-linejoin="round"/><circle data-name="stroke" cx="33" cy="41" r="1" fill="none" stroke="#2e4369" stroke-linecap="round" stroke-miterlimit="10" stroke-width="2" stroke-linejoin="round"/><circle data-name="stroke" cx="40" cy="41" r="1" fill="none" stroke="#2e4369" stroke-linecap="round" stroke-miterlimit="10" stroke-width="2" stroke-linejoin="round"/><circle data-name="stroke" cx="26" cy="48" r="1" fill="none" stroke="#2e4369" stroke-linecap="round" stroke-miterlimit="10" stroke-width="2" stroke-linejoin="round"/><circle data-name="stroke" cx="33" cy="48" r="1" fill="none" stroke="#2e4369" stroke-linecap="round" stroke-miterlimit="10" stroke-width="2" stroke-linejoin="round"/><circle data-name="stroke" cx="40" cy="48" r="1" fill="none" stroke="#2e4369" stroke-linecap="round" stroke-miterlimit="10" stroke-width="2" stroke-linejoin="round"/><circle data-name="stroke" cx="26" cy="55" r="1" fill="none" stroke="#2e4369" stroke-linecap="round" stroke-miterlimit="10" stroke-width="2" stroke-linejoin="round"/><circle data-name="stroke" cx="33" cy="55" r="1" fill="none" stroke="#2e4369" stroke-linecap="round" stroke-miterlimit="10" stroke-width="2" stroke-linejoin="round"/><circle data-name="stroke" cx="40" cy="55" r="1" fill="none" stroke="#2e4369" stroke-linecap="round" stroke-miterlimit="10" stroke-width="2" stroke-linejoin="round"/></svg>