<svg xmlns="http://www.w3.org/2000/svg" viewBox="0 0 64 64" aria-labelledby="title" aria-describedby="desc"><path data-name="layer1" d="M62 0H2a2 2 0 0 0-2 2v60a2 2 0 0 0 2 2h60a2 2 0 0 0 2-2V2a2 2 0 0 0-2-2zM14 10h36a1 1 0 0 1 0 2H14a1 1 0 0 1 0-2zm34.5 12a1 1 0 0 1 0 2h-33a1 1 0 0 1 0-2zM19 17a1 1 0 0 1 1-1h24a1 1 0 0 1 0 2H20a1 1 0 0 1-1-1zM9.5 28h45a1 1 0 0 1 0 2h-45a1 1 0 0 1 0-2zM47 46a1 1 0 0 1 0 2H17a1 1 0 0 1 0-2zm-26-5a1 1 0 0 1 1-1h20a1 1 0 0 1 0 2H22a1 1 0 0 1-1-1zm26-5H17a1 1 0 0 1 0-2h30a1 1 0 0 1 0 2zm8 18H9a1 1 0 0 1 0-2h46a1 1 0 0 1 0 2z" fill="#202020"/></svg>