<svg xmlns="http://www.w3.org/2000/svg" viewBox="0 0 64 64" aria-labelledby="title" aria-describedby="desc"><path data-name="layer1" fill="#202020" d="M31.5 4.8v12h12l-12-12z"/><path data-name="layer2" d="M58.3 38.9a5.2 5.2 0 0 1 0-4 4.9 4.9 0 0 0-3.7-6.4h-.2a3.8 3.8 0 0 1-3-1.5 4.9 4.9 0 0 0-7.9-.1h-.1a4.5 4.5 0 0 1-2.9 1.6 4.9 4.9 0 0 0-3.9 6.1.6.6 0 0 0 .1.3 4.7 4.7 0 0 1 0 4 4.9 4.9 0 0 0 3 6.2h-.2v16.1l8-5.3 8 5.3V44.9a4.9 4.9 0 0 0 2.9-5.7.8.8 0 0 0-.1-.3zm-10.8-6a4 4 0 1 1-4 4 4 4 0 0 1 4-4.1z" fill="#202020"/><path data-name="layer1" d="M35.5 47.1a8.9 8.9 0 0 1-1.9-2.2 9 9 0 0 1-.8-7.2 3.6 3.6 0 0 0 .2-.8v-.2a4.6 4.6 0 0 1-.4-1.3 8.9 8.9 0 0 1 7.2-10.7h.5l.3-.3a8.9 8.9 0 0 1 4.8-3v-.2h-18V2.8H5.5v54h30z" fill="#202020"/></svg>