<svg xmlns="http://www.w3.org/2000/svg" viewBox="0 0 64 64" aria-labelledby="title" aria-describedby="desc"><path data-name="layer1" d="M61 12a9.4 9.4 0 0 0-5.5-9 11.7 11.7 0 0 0-7.5-.6V2H16v.3a11.7 11.7 0 0 0-7.5.7A9.4 9.4 0 0 0 3 12c0 8.1 5.3 17.5 20 19.5a14.8 14.8 0 0 0 7 2.4V46H16a2 2 0 0 0-2 2v12a2 2 0 0 0 2 2h32a2 2 0 0 0 2-2V48a2 2 0 0 0-2-2H34V34a14.9 14.9 0 0 0 7-2.4C55.7 29.5 61 20.2 61 12zm-13 4.2V6.5a7.8 7.8 0 0 1 5.9.1c1.4.7 3.1 2.1 3.1 5.4 0 6.9-4.2 12-11.5 14.4A21.4 21.4 0 0 0 48 16.2zM7 12c0-3.3 1.7-4.7 3.2-5.4a7.8 7.8 0 0 1 5.8-.1V16a21.9 21.9 0 0 0 2.5 10.4C11.2 24 7 18.9 7 12zm33 40a2 2 0 0 1 0 4H24a2 2 0 0 1 0-4z" fill="#202020"/></svg>