<svg viewBox="0 0 64 64" xmlns="http://www.w3.org/2000/svg" aria-labelledby="title" aria-describedby="desc"><rect fill="#b77f6e" ry="2" rx="2" height="16" width="36" y="44.981" x="13.002" data-name="layer2"/><path opacity=".15" fill="#000064" d="M17 58V46c0-.374.107-1 .285-1H15a1.983 1.983 0 0 0-2 1.981v12A2.016 2.016 0 0 0 15 61h32a2.008 2.008 0 0 0 1.712-1H19a2 2 0 0 1-2-2z" data-name="opacity"/><path fill="#fc6" d="M30.982 32.981h.037C43.006 32.971 47 22.943 47 15.2V.981H15v14c0 7.996 4 17.99 15.982 18z" data-name="layer1"/><path opacity=".15" fill="#000064" d="M20 14.98V1h-5v13.98c0 8 4 18.02 15.981 18.02h.037a19.262 19.262 0 0 0 2.48-.171C23.441 31.532 20 22.4 20 14.98z" data-name="opacity"/><path opacity=".4" fill="#fff" d="M36.622.981V15.2c0 7.184-.326 16.325-7.124 17.623a8.983 8.983 0 0 0 1.678.162h.024C39.3 32.971 43 22.943 43 15.2V.981z" data-name="opacity"/><rect stroke-width="2" stroke-linejoin="round" stroke-linecap="round" stroke="#2e4369" fill="none" ry="2" rx="2" height="16" width="36" y="44.981" x="13.002" data-name="stroke"/><path d="M23.002 52.982h16m-8-8.001V32.982M15 4.981c-4.281-3.723-14-2.589-14 6s6 16 18.779 17.554M47.035 4.981c4.281-3.723 14-2.589 14 6s-6 16-18.779 17.554" stroke-width="2" stroke-linejoin="round" stroke-linecap="round" stroke="#2e4369" fill="none" data-name="stroke"/><path stroke-width="2" stroke-linejoin="round" stroke-linecap="round" stroke="#2e4369" fill="none" d="M30.982 32.981h.037C43.006 32.971 47 22.943 47 15.2V.981H15v14c0 7.996 4 17.99 15.982 18z" data-name="stroke"/></svg>