<svg xmlns="http://www.w3.org/2000/svg" viewBox="0 0 64 64" aria-labelledby="title" aria-describedby="desc"><path data-name="layer3" d="M49 2H37a13 13 0 0 0-12 18c3.8.3 7.8 2.6 8.7 7.5a13 13 0 0 0 3.3.5h5v7l7.6-7A13 13 0 0 0 49 2z" fill="#a6dbff"/><circle data-name="layer2" cx="43" cy="15" r="1" fill="#2e4369"/><circle data-name="layer2" cx="35" cy="15" r="1" fill="#2e4369"/><circle data-name="layer2" cx="51" cy="15" r="1" fill="#2e4369"/><path data-name="layer1" d="M37.4 54.3c-8.2-1.4-7.4-3.5-7.4-4.9v-2.5a13.9 13.9 0 0 0 4-10.1v-6.7C34 22.8 28.7 20 24 20s-10 2.8-10 10.1v6.7a13.8 13.8 0 0 0 4.1 10.1v2.5c0 1.4.7 3.5-7.4 4.9S2 60 2 62h44c0-2-1.3-6.4-8.6-7.7z" fill="#8ca0c8"/><path data-name="opacity" d="M13 56c4-1 5-4 10-4s5-5 5-5-1 1-4 1-5-4-5-7V30c0-3 0-10 5-10-4.7 0-10 2.8-10 10.1v6.7a13.8 13.8 0 0 0 4.1 10.1v2.5c0 1.4.7 3.5-7.4 4.9S2 60 2 62h6.8s.2-5 4.2-6z" fill="#000064" opacity=".15"/><path data-name="opacity" d="M53 24H41a13 13 0 0 1-13-13 12.9 12.9 0 0 1 2.1-7 13 13 0 0 0-5 16c3.8.3 7.8 2.6 8.7 7.5a13 13 0 0 0 3.2.5h5v7l7.6-7A13 13 0 0 0 60 22a12.9 12.9 0 0 1-7 2z" fill="#000064" opacity=".12"/><path data-name="stroke" d="M33.8 27.6a13 13 0 0 0 3.2.4h5v7l7.6-7A13 13 0 0 0 49 2H37a13 13 0 0 0-12 18" fill="none" stroke="#2e4369" stroke-linecap="round" stroke-miterlimit="10" stroke-width="2" stroke-linejoin="round"/><circle data-name="stroke" cx="43" cy="15" r="1" fill="none" stroke="#2e4369" stroke-linecap="round" stroke-miterlimit="10" stroke-width="2" stroke-linejoin="round"/><circle data-name="stroke" cx="35" cy="15" r="1" fill="none" stroke="#2e4369" stroke-linecap="round" stroke-miterlimit="10" stroke-width="2" stroke-linejoin="round"/><circle data-name="stroke" cx="51" cy="15" r="1" fill="none" stroke="#2e4369" stroke-linecap="round" stroke-miterlimit="10" stroke-width="2" stroke-linejoin="round"/><path data-name="stroke" d="M37.4 54.3c-8.2-1.4-7.4-3.5-7.4-4.9v-2.5a13.9 13.9 0 0 0 4-10.1v-6.7C34 22.8 28.7 20 24 20s-10 2.8-10 10.1v6.7a13.8 13.8 0 0 0 4.1 10.1v2.5c0 1.4.7 3.5-7.4 4.9S2 60 2 62h44c0-2-1.3-6.4-8.6-7.7z" fill="none" stroke="#2e4369" stroke-linecap="round" stroke-miterlimit="10" stroke-width="2" stroke-linejoin="round"/></svg>