<svg xmlns="http://www.w3.org/2000/svg" viewBox="0 0 64 64" aria-labelledby="title" aria-describedby="desc"><path data-name="layer2" d="M61.3 28L30.7 1.2a1 1 0 0 0-.8-.2c-1.1.1-26.4 3.3-28.7 18.7z" fill="#202020"/><path data-name="layer1" d="M60.5 47l1.2.2a1 1 0 0 0 1.3-1V32.3L1 23.7V54a1 1 0 0 0 .9 1l60 8h.1l.7-.2a1 1 0 0 0 .3-.8v-6.2a1 1 0 0 0-1.3-1l-1.2.2a4 4 0 1 1 0-8zM8 34a4 4 0 1 1 4 4 4 4 0 0 1-4-4zm8 14a2 2 0 1 1 2-2 2 2 0 0 1-2 2zm10.1-10a2 2 0 1 1 2-2 2 2 0 0 1-2 2zM35 52a5 5 0 1 1 5-5 5 5 0 0 1-5 5zm12-11a3 3 0 1 1 3-3 3 3 0 0 1-3 3z" fill="#202020"/></svg>