<svg xmlns="http://www.w3.org/2000/svg" viewBox="0 0 64 64" aria-labelledby="title" aria-describedby="desc"><path data-name="layer2" d="M39 36a2 2 0 0 0 1.8-2.8c-.3-1.3-1.8-5.2-5.4-5.2a5.1 5.1 0 0 0-3.4 1.3 5 5 0 0 0-3.3-1.3c-4.1 0-5.5 4.9-5.6 5.5A2 2 0 0 0 25 36z" fill="#202020"/><path data-name="layer1" d="M49.9 53c-8.4-1.6-8.4-3.4-8.4-4.6v-.8a20.1 20.1 0 0 0 4.7-7.9c3.1-1 4.2-5.1 4.2-7v-.3c0-1.1.2-3.5-1.3-5.1a4.1 4.1 0 0 0-1.2-.9v-1a2 2 0 0 0 0-.3v-6.9l1-1.1c1.2-1.3 3.1-3.2 3.1-6.1a6.9 6.9 0 0 0-3.2-5.8 9.4 9.4 0 0 0-7.9-.8 11 11 0 0 0-17.7 0 10 10 0 0 0-7.9.8 6.7 6.7 0 0 0-3.3 6 6.9 6.9 0 0 0 3.1 6.2c.9.7.9.7.9 1v8c-2.3 1-3.3 3.7-3.3 6.3s1.1 6 4.2 7a20.1 20.1 0 0 0 4.7 7.8v.7c0 .2.1 3.1-8.4 4.7C.4 55.4 0 61.3 0 62v2h30V51l-3-1.2.4-.4a2 2 0 0 0-.7-2.7 15.3 15.3 0 0 1-6.3-9.1L20 36h-1.6c-1.2 0-1.8-2.6-1.8-3.3S16.7 30 18 30h2v-4.5A46.4 46.4 0 0 1 32 24a28.2 28.2 0 0 1 12 2.6V30h2.3c.2.2.3.7.3 2.2v.5c0 .2-.7 3.3-1.9 3.3h-1.5l-.4 1.5a15.3 15.3 0 0 1-6.3 9.1 2 2 0 0 0-.7 2.7l.5.5-2.3 1.1V64h30v-2c0-1.1-.7-6.4-14.1-9z" fill="#202020"/></svg>