<svg xmlns="http://www.w3.org/2000/svg" viewBox="0 0 64 64" aria-labelledby="title" aria-describedby="desc"><path data-name="layer2" d="M55.9 8.2a21 21 0 0 0-29.7 0l-1.6 1.7-.3.4-1 1.3c-6.2 9.3-6.7 23.1-9.2 25.6l-.7.7a5 5 0 0 0 0 7.1l5.7 5.7a5 5 0 0 0 7.1 0l.7-.7c2.7-2.7 17.5-2.4 27.3-10.5l1.6-1.5a21 21 0 0 0 .1-29.8zM36 14a2 2 0 1 1 2-2 2 2 0 0 1-2 2zm6-4a2 2 0 1 1 2 2 2 2 0 0 1-2-2zm4 10a2 2 0 1 1 2-2 2 2 0 0 1-2 2z" fill="#202020"/><path data-name="layer1" d="M14.6 54.7l1.4-1.5-5.4-5.4-.4-.4-1.5 1.4a4.1 4.1 0 0 0-5.5 6.1c2.1 2.1 2.9 1.5 3.7 2.2s.4 1.9 2.2 3.7a4.1 4.1 0 1 0 5.9-5.9z" fill="#202020"/></svg>