<svg xmlns="http://www.w3.org/2000/svg" viewBox="0 0 64 64" aria-labelledby="title" aria-describedby="desc"><path data-name="layer2" fill="#202020" d="M24.4 45.8l17.1 15.5L47 30.5H7.5l15.7 14.2 1.2 1.1zm-8.5 12a2 2 0 1 1-3.1-2.6l6.9-8.3-18-16.3 5.6 32.1a1 1 0 0 0 1 .8H38L22.7 49.6z"/><path data-name="layer1" d="M40.3 18.5a2 2 0 0 0 1.5-.7l12-14a2 2 0 0 0-3-2.6l-12 14a2 2 0 0 0 1.5 3.3z" fill="#202020"/><path data-name="layer1" d="M61.9 7.2A2 2 0 0 0 59 7L41.1 21.9 31 11.8a9.8 9.8 0 0 0-6.8-2.3 9.5 9.5 0 0 0-6.6 2.3L2.9 26.5h42.8L44 24.7 61.6 10a2 2 0 0 0 .3-2.8z" fill="#202020"/></svg>