<svg xmlns="http://www.w3.org/2000/svg" viewBox="0 0 64 64" aria-labelledby="title" aria-describedby="desc"><path data-name="layer2" d="M62.2 24.8l-5.6-5.6-6.3 6.3 6.3 6.3 5.6-5.6a1 1 0 0 0 0-1.4zm-29.968.708l6.152-6.152 6.173 6.173-6.152 6.152zm9.098 9.029l6.153-6.152 6.293 6.293-6.152 6.152zm-18.096-18.2l6.151-6.152 6.294 6.293-6.152 6.152zm18.098.143l6.294-6.294 6.173 6.173-6.294 6.294zM44.8 7.4l-5.6-5.6a1 1 0 0 0-1.4 0l-5.6 5.6 6.3 6.3z" fill="#202020"/><path data-name="layer1" d="M22.8 31.5v-9.9l-2.4-2.4L1.8 37.8a1 1 0 0 0 0 1.4l23 23a1 1 0 0 0 1.4 0l18.6-18.6-7.2-7.2z" fill="#202020"/></svg>