<svg xmlns="http://www.w3.org/2000/svg" viewBox="0 0 64 64" aria-labelledby="title" aria-describedby="desc"><path data-name="layer2" d="M51.3 51.5a31.9 31.9 0 0 0-6.6-8.5A17.5 17.5 0 0 0 49 31.5a17.9 17.9 0 0 0-.2-2.6A19.9 19.9 0 0 1 33 36.5a19.9 19.9 0 0 1-15.8-7.6 18.2 18.2 0 0 0-.2 2.6A17.5 17.5 0 0 0 21.3 43a31.9 31.9 0 0 0-6.5 8.5 5 5 0 1 0 3.8 1.4 27.9 27.9 0 0 1 5.7-7.2 15.2 15.2 0 0 0 17.5 0 27.8 27.8 0 0 1 5.7 7.2 5 5 0 1 0 3.8-1.4z" fill="#202020"/><path data-name="layer1" d="M62 6.5H35v-2a2 2 0 1 0-4 0v2H2a2 2 0 0 0 0 4h29v4.1a16.1 16.1 0 0 0-12.3 9.2A15.6 15.6 0 0 0 33 32.5a15.6 15.6 0 0 0 14.3-8.7A16.1 16.1 0 0 0 35 14.6v-4.1h27a2 2 0 0 0 0-4z" fill="#202020"/></svg>