<svg xmlns="http://www.w3.org/2000/svg" viewBox="0 0 64 64" aria-labelledby="title" aria-describedby="desc"><path data-name="layer1" d="M54 35H42.4a22 22 0 1 0-3.3 4H54a6 6 0 0 1 0 12H6a6 6 0 0 0 0 12h26a2 2 0 0 0 0-4H6a2 2 0 0 1 0-4h48a10 10 0 0 0 0-20zm-38.8-8.4l-6 2.4a15.9 15.9 0 0 1 0-12l6 2.4a9.5 9.5 0 0 0 0 7.2zM24 39a15.9 15.9 0 0 1-6.3-1.3l2.5-5.9a9.5 9.5 0 0 0 7.1.2l2.3 6a15.9 15.9 0 0 1-5.6 1zm-4-16a4 4 0 1 1 4 4 4 4 0 0 1-4-4zm7.4-8.9a9.5 9.5 0 0 0-7.1.2l-2.6-6A15.9 15.9 0 0 1 29.6 8zm5.4 5.1l5.9-2.6a16 16 0 0 1 0 12.7l-5.9-2.6a9.5 9.5 0 0 0 0-7.6z" fill="#202020"/></svg>