<svg xmlns="http://www.w3.org/2000/svg" viewBox="0 0 64 64" aria-labelledby="title" aria-describedby="desc"><path data-name="layer2" fill="#c3d6f9" d="M58 62H6V2h52v60z"/><path data-name="opacity" fill="#000064" opacity=".14" d="M10 60V2H6v60h52v-2H10z"/><rect data-name="layer1" x="14" y="10" width="36" height="26" rx="2" ry="2" fill="#7b8baf"/><path data-name="opacity" fill="#fff" opacity=".25" d="M6 44h52v3H6zm44-10V12a2 2 0 0 0-2-2H20c11 0 28 9 28 26a2 2 0 0 0 2-2z"/><path data-name="stroke" fill="none" stroke="#2e4369" stroke-linecap="round" stroke-linejoin="round" stroke-width="2" d="M6 44h52m0 18H6V2h52v60zm-8-10H38"/><rect data-name="stroke" x="14" y="10" width="36" height="26" rx="2" ry="2" fill="none" stroke="#2e4369" stroke-linecap="round" stroke-linejoin="round" stroke-width="2"/></svg>