<svg xmlns="http://www.w3.org/2000/svg" viewBox="0 0 64 64" aria-labelledby="title" aria-describedby="desc"><path data-name="layer2" d="M46 30a16 16 0 1 0 16 16 16 16 0 0 0-16-16zm7.4 20.6a2 2 0 1 1-2.8 2.8L46 48.8l-4.6 4.6a2 2 0 1 1-2.8-2.8l4.6-4.6-4.6-4.6a2 2 0 1 1 2.8-2.8l4.6 4.6 4.6-4.6a2 2 0 1 1 2.8 2.8L48.8 46z" fill="#202020"/><path data-name="layer1" d="M34 8a2 2 0 0 0-2-2h-3.1a5 5 0 0 0-9.8 0H16a2 2 0 0 0-2 2v4h20zm7 4v14.7a19.9 19.9 0 0 1 5-.7V10a2 2 0 0 0-2-2h-6v4h3zM27.3 53H7V12h3V8H4a2 2 0 0 0-2 2v46a2 2 0 0 0 2 2h26a19.9 19.9 0 0 1-2.7-5z" fill="#202020"/><path data-name="layer1" d="M26 46a19.9 19.9 0 0 1 .1-2H18a2 2 0 1 1 0-4h8.9a20 20 0 0 1 3.1-6H18a2 2 0 1 1 0-4h12a2 2 0 0 1 2 1.8 20.1 20.1 0 0 1 5-3.6V16H11v33h15.2a20 20 0 0 1-.2-3zm-8-26h12a2 2 0 0 1 0 4H18a2 2 0 1 1 0-4z" fill="#202020"/></svg>