<svg viewBox="0 0 64 64" xmlns="http://www.w3.org/2000/svg" aria-labelledby="title" aria-describedby="desc"><path fill="#202020" d="M2 20v38h60V20zm35.67 26.473l-5.656-5.656-5.67 5.669a2 2 0 1 1-2.828-2.829l5.668-5.669-5.657-5.658a2 2 0 1 1 2.829-2.83l5.658 5.657 5.644-5.645a2 2 0 0 1 2.828 2.828l-5.644 5.645 5.658 5.66a2 2 0 0 1-2.828 2.828z" data-name="layer2"/><path fill="#202020" d="M2 6v10h60V6zm6 7a2 2 0 1 1 2-2 2 2 0 0 1-2 2zm6 0a2 2 0 1 1 2-2 2 2 0 0 1-2 2zm6 0a2 2 0 1 1 2-2 2 2 0 0 1-2 2z" data-name="layer1"/></svg>