<svg xmlns="http://www.w3.org/2000/svg" viewBox="0 0 64 64" aria-labelledby="title" aria-describedby="desc"><path data-name="layer2" fill="none" stroke="#202020" stroke-miterlimit="10" stroke-width="2" d="M18 45l-3 3m1 11l-2 2m22-2l-2 2m-6-16l-9 11m19-11l-3 3m13-3l-9 11" stroke-linejoin="round" stroke-linecap="round"/><path data-name="layer1" d="M47.8 38A10.1 10.1 0 0 0 58 28.1a10.1 10.1 0 0 0-10.2-9.9h-1A13.6 13.6 0 0 0 34.1 10a13.5 13.5 0 0 0-13.5 11.5h-.1a8.2 8.2 0 1 0 0 16.5zM17.7 22A10 10 0 1 1 28 11.4" fill="none" stroke="#202020" stroke-miterlimit="10" stroke-width="2" stroke-linejoin="round" stroke-linecap="round"/></svg>