<svg viewBox="0 0 64 64" xmlns="http://www.w3.org/2000/svg" aria-labelledby="title" aria-describedby="desc"><path fill="#202020" d="M30 51.5a2 2 0 0 0-2-2 2 2 0 1 0-4 0 2 2 0 0 0 0 4 2 2 0 1 0 4 0 2 2 0 0 0 2-2zm14.006 0a2 2 0 0 0-2-2 2 2 0 0 0-2-2 2 2 0 0 0-2 2 2 2 0 0 0 0 4 2 2 0 0 0 2 2 2 2 0 0 0 2-2 2 2 0 0 0 2-2zm-8.588 6a2 2 0 0 0-2-2 2 2 0 0 0-2 2 2 2 0 0 0 0 4 2 2 0 0 0 2 2 2 2 0 0 0 2-2 2 2 0 0 0 0-4zm13.172 0a2 2 0 0 0-4 0 2 2 0 0 0 0 4 2 2 0 0 0 4 0 2 2 0 0 0 0-4zm7.41-8a2 2 0 0 0-4 0 2 2 0 0 0 0 4 2 2 0 1 0 4 0 2 2 0 0 0 0-4z" data-name="layer2"/><path fill="#202020" d="M24 9.52a2 2 0 0 0 2-2V2.5a2 2 0 1 0-4 0v5.02a2 2 0 0 0 2 2zm8.812 3.68a2 2 0 0 0 2.828 0l3.548-3.548a2 2 0 1 0-2.828-2.829l-3.548 3.548a2 2 0 0 0 0 2.829zm-25 25a2 2 0 0 0 2.828 0l3.548-3.548a2 2 0 1 0-2.828-2.828l-3.548 3.547a2 2 0 0 0 0 2.829zm3.204-15.69a2 2 0 0 0-2-2H4a2 2 0 1 0 0 4h5.016a2 2 0 0 0 2-2zm1.269-8.893a2 2 0 1 0 2.828-2.828l-3.255-3.256a2 2 0 0 0-2.828 2.83zm39.732 10.867a12.992 12.992 0 0 0-24.955 4.107A7.966 7.966 0 0 0 26 28.486a8 8 0 0 0 0 16h26a10 10 0 0 0 .012-20zm-21.201-9.265a9.972 9.972 0 0 0-14.27 13.907 12 12 0 0 1 7.171-4.421 17.092 17.092 0 0 1 7.099-9.486z" data-name="layer1"/></svg>