<svg xmlns="http://www.w3.org/2000/svg" viewBox="0 0 64 64" aria-labelledby="title" aria-describedby="desc"><path data-name="layer1" d="M49 22h-.5a17 17 0 0 0-32.3 4.4A11 11 0 1 0 13 48h8.7a12 12 0 1 1 22.6 0H49a13 13 0 1 0 0-26z" fill="#cdf0f0"/><path data-name="opacity" d="M62 35a13 13 0 0 0-13-13h-.5a17 17 0 0 0-12.3-9.7l-1.2-.2h-2l-3.2.3a16.9 16.9 0 0 0-8.3 4.2A22.9 22.9 0 0 1 43 23.5a13.1 13.1 0 0 0-4.2 3.4 14.9 14.9 0 0 1 20 16.6A12.9 12.9 0 0 0 62 35z" fill="#fff" opacity=".5"/><path data-name="opacity" d="M21 44a12.1 12.1 0 0 1 .1-1.5 17.9 17.9 0 0 1-4.8-16h-.2A11 11 0 1 0 13 48h8.7a12 12 0 0 1-.7-4z" fill="#000064" opacity=".1"/><path data-name="stroke" d="M52.8 47.4A13 13 0 0 0 49 22h-.5a17 17 0 0 0-32.3 4.4A11 11 0 1 0 13 48" fill="none" stroke="#2e4369" stroke-linecap="round" stroke-linejoin="round" stroke-width="2"/><path data-name="stroke" d="M44.7 45.4a12.2 12.2 0 0 0 .1-1.4 12 12 0 1 0-3.5 8.5" fill="none" stroke="#2e4369" stroke-linecap="round" stroke-linejoin="round" stroke-width="2"/><path data-name="stroke" fill="none" stroke="#2e4369" stroke-linecap="round" stroke-linejoin="round" stroke-width="2" d="M48.4 39.8l-3.7 5.6-5.2-4.7"/></svg>