<svg xmlns="http://www.w3.org/2000/svg" viewBox="0 0 64 64" aria-labelledby="title" aria-describedby="desc"><path data-name="layer1" d="M48.012 41.995h5.99a5.999 5.999 0 1 0 0-11.998 2 2 0 0 0 0 4 1.999 1.999 0 1 1 0 3.998h-5.99a2 2 0 0 0 0 4zm9.996 1.998h-9.992a2 2 0 0 0 0 4h9.992a1.999 1.999 0 1 1 0 3.998 2 2 0 0 0 0 4 5.999 5.999 0 1 0 0-11.998z" fill="#202020"/><path data-name="layer2" d="M37.006 43.995l-22.197-.002a6.795 6.795 0 1 1 1.984-13.294l2.22.675.341-2.294a11.584 11.584 0 0 1 22.033-3.03l.557 1.237 1.664-.078a8.371 8.371 0 0 1 4.526 1.321 2 2 0 1 0 2.158-3.367 12.346 12.346 0 0 0-5.845-1.926 15.628 15.628 0 0 0-13.635-8.04 15.336 15.336 0 0 0-4.022.543A12.994 12.994 0 1 0 7.517 29.26a10.777 10.777 0 0 0 7.292 18.734l22.197.002a2.999 2.999 0 1 1 0 5.997 2 2 0 0 0 0 4 6.999 6.999 0 1 0 0-13.997z" fill="#202020"/><path data-name="layer1" d="M40.003 27.999a2 2 0 0 0 0 4 1.999 1.999 0 1 1 0 3.998h-16.67a2 2 0 1 0 0 4h16.67a5.999 5.999 0 1 0 0-11.998z" fill="#202020"/></svg>