<svg xmlns="http://www.w3.org/2000/svg" viewBox="0 0 64 64" aria-labelledby="title" aria-describedby="desc"><path data-name="layer2" d="M7.1 62a2 2 0 0 1-1.6-3.2l2.8-3.5a2 2 0 0 1 3.1 2.5l-2.7 3.4a2 2 0 0 1-1.6.8zm6.9-8.6a2 2 0 0 1-1.6-3.2l5.9-7.4a2 2 0 0 1 3.1 2.5l-5.9 7.4a2 2 0 0 1-1.5.7zM39.1 62a2 2 0 0 1-1.6-3.2l6.8-8.5a2 2 0 0 1 3.1 2.5l-6.8 8.5a2 2 0 0 1-1.5.7zm11.2-14a2 2 0 0 1-1.6-3.2l1.6-2a2 2 0 0 1 3.1 2.5l-1.6 2a2 2 0 0 1-1.5.7zm-23 12a2 2 0 0 1-1.6-3.2l7-8.7h-8l12.6-15.8a2 2 0 1 1 3.1 2.5L33 44h8L28.9 59.2a2 2 0 0 1-1.6.8z" fill="#202020"/><path data-name="layer1" d="M18.3 17.9a17.4 17.4 0 0 1 9.5-10.4 10 10 0 1 0-14.4 12.9 12.6 12.6 0 0 1 4.9-2.5zm30.4.3h-1A13.6 13.6 0 0 0 35.1 10a13.5 13.5 0 0 0-13.6 11.5h-.1a8.2 8.2 0 1 0 0 16.5h6.2l6.6-8.2a6 6 0 0 1 9.4 7.5l-.6.7h5.8A10.1 10.1 0 0 0 59 28.1a10.1 10.1 0 0 0-10.3-9.9z" fill="#202020"/></svg>