<svg viewBox="0 0 64 64" xmlns="http://www.w3.org/2000/svg" aria-labelledby="title" aria-describedby="desc"><circle fill="#202020" r="2.5" cy="51.84" cx="26" data-name="layer2"/><circle fill="#202020" r="2.5" cy="59.844" cx="32.999" data-name="layer2"/><circle fill="#202020" r="2.5" cy="51.84" cx="40" data-name="layer2"/><circle fill="#202020" r="2.5" cy="51.84" cx="53.996" data-name="layer2"/><circle fill="#202020" r="2.5" cy="59.844" cx="46.999" data-name="layer2"/><path fill="#202020" d="M24 10.675a2 2 0 0 0 2-2V3.656a2 2 0 1 0-4 0v5.019a2 2 0 0 0 2 2zm8.811 3.679a2 2 0 0 0 2.828 0l3.549-3.549a2 2 0 1 0-2.828-2.828l-3.549 3.549a2 2 0 0 0 0 2.828zm-24.5 24.5a2 2 0 0 0 2.828 0l3.549-3.549a2 2 0 1 0-2.828-2.828l-3.549 3.549a2 2 0 0 0 0 2.828zm2.705-15.19a2 2 0 0 0-2-2H4a2 2 0 0 0 0 4h5.016a2 2 0 0 0 2-2zm1.269-8.891a2 2 0 0 0 2.828-2.829l-3.255-3.255a2 2 0 0 0-2.828 2.829zM52.017 25.64a12.992 12.992 0 0 0-24.955 4.108A7.8 7.8 0 0 0 26 29.641a8 8 0 0 0 0 16h26a10 10 0 0 0 .012-20zm-21.201-9.267a9.972 9.972 0 0 0-14.27 13.908 12.01 12.01 0 0 1 7.171-4.422 17.092 17.092 0 0 1 7.099-9.486z" data-name="layer1"/></svg>