<svg xmlns="http://www.w3.org/2000/svg" viewBox="0 0 64 64" aria-labelledby="title" aria-describedby="desc"><path data-name="layer2" d="M49.5 36.4a2 2 0 0 0-2.8.6l-.7 1a14 14 0 1 0-3.4 14.2 2 2 0 1 0-2.8-2.8A10 10 0 1 1 42 38.7l-1.2-1.1a2 2 0 1 0-2.7 3l6.9 6.2 5-7.5a2 2 0 0 0-.5-2.9z" fill="#202020"/><path data-name="layer1" d="M49 17.7h-.5a17 17 0 0 0-32.3 4.4A11 11 0 1 0 13 43.7h1.8c0-.5-.1-.9-.1-1.4a18 18 0 0 1 32.9-10.1h.8a6 6 0 0 1 5 9.3l-1.3 1.9.6-.2c5.3-2 9.3-6.6 9.3-12.5a13 13 0 0 0-13-13z" fill="#202020"/></svg>