<svg xmlns="http://www.w3.org/2000/svg" viewBox="0 0 64 64" aria-labelledby="title" aria-describedby="desc"><path data-name="layer2" d="M43 40h4a9.9 9.9 0 0 0 10-9.8 10.1 10.1 0 0 0-10.2-9.9h-1A13.6 13.6 0 0 0 33.1 12a13.5 13.5 0 0 0-13.5 11.6h-.1a8.4 8.4 0 0 0-8.5 8.2c0 4.5 4.3 8.2 9 8.2h5.8m-9.1-16A10 10 0 1 1 27 13.5" fill="none" stroke="#202020" stroke-miterlimit="10" stroke-width="2" stroke-linejoin="round" stroke-linecap="round"/><path data-name="layer1" fill="none" stroke="#202020" stroke-miterlimit="10" stroke-width="2" d="M37.7 27L23 43h7.5l-3.3 14L43 40h-7.4l2.1-13z" stroke-linejoin="round" stroke-linecap="round"/></svg>