<svg xmlns="http://www.w3.org/2000/svg" viewBox="0 0 64 64" aria-labelledby="title" aria-describedby="desc"><path data-name="layer2" d="M45.9 38A10.1 10.1 0 0 0 56 28.1a10.1 10.1 0 0 0-10.2-9.9h-1A13.6 13.6 0 0 0 32.2 10a13.5 13.5 0 0 0-13.5 11.5h-.1a8.2 8.2 0 1 0 0 16.5zM15.7 22A10 10 0 1 1 26 11.4" fill="none" stroke="#202020" stroke-miterlimit="10" stroke-width="2" stroke-linejoin="round" stroke-linecap="round"/><path data-name="layer1" fill="none" stroke="#202020" stroke-miterlimit="10" stroke-width="2" d="M44 46v16m-8-16v6m-8-6v10m-8-10v16m-10-5.9A10 10 0 0 1 20 62m34-5.9A10 10 0 0 0 44 62" stroke-linejoin="round" stroke-linecap="round"/><circle data-name="layer1" cx="60" cy="56" r="1" fill="none" stroke="#202020" stroke-miterlimit="10" stroke-width="2" stroke-linejoin="round" stroke-linecap="round"/><circle data-name="layer1" cx="4" cy="56" r="1" fill="none" stroke="#202020" stroke-miterlimit="10" stroke-width="2" stroke-linejoin="round" stroke-linecap="round"/></svg>