<svg xmlns="http://www.w3.org/2000/svg" viewBox="0 0 64 64" aria-labelledby="title" aria-describedby="desc"><path data-name="layer2" d="M14.5 49.2a2 2 0 0 1-1.6-3.2l2.5-3.2a2 2 0 1 1 3.1 2.5L16 48.4a2 2 0 0 1-1.5.8zm3.4 8.1a2 2 0 0 1-1.6-3.2l9.1-11.3a2 2 0 0 1 3.1 2.5l-9 11.3a2 2 0 0 1-1.6.7zm16.6-8.2a2 2 0 0 1-1.5-3.3l2.5-3.1a2 2 0 0 1 3.1 2.5l-2.5 3.1a2 2 0 0 1-1.6.8zm3.4 8.2a2 2 0 0 1-1.6-3.2l9.1-11.3a2 2 0 0 1 3.1 2.5l-9 11.3a2 2 0 0 1-1.6.7zM10.6 54a2 2 0 0 1-1.4-3.4 2.1 2.1 0 0 1 2.8 0 2 2 0 0 1 .6 1.4 2 2 0 0 1-2 2zm3.6 8a2 2 0 0 1-1.4-.6 2 2 0 0 1 0-2.8 2.1 2.1 0 0 1 2.8 0 2 2 0 0 1-1.4 3.4zm16.4-8a2 2 0 0 1-1.4-.6 2 2 0 0 1 0-2.8 2.1 2.1 0 0 1 2.8 0 2 2 0 0 1-1.4 3.4zm3.6 8a2 2 0 0 1-1.4-3.4 2.1 2.1 0 0 1 2.8 0 2 2 0 0 1-1.4 3.4z" fill="#202020"/><path data-name="layer1" d="M46.8 18.2h-1A13.6 13.6 0 0 0 33.1 10a13.5 13.5 0 0 0-13.5 11.5h-.1a8.2 8.2 0 1 0 0 16.5h27.3A10.1 10.1 0 0 0 57 28.1a10.1 10.1 0 0 0-10.2-9.9zm-30.4-.3a17.4 17.4 0 0 1 9.5-10.4 10 10 0 1 0-14.4 12.9 12.6 12.6 0 0 1 4.9-2.5z" fill="#202020"/></svg>