<svg xmlns="http://www.w3.org/2000/svg" viewBox="0 0 64 64" aria-labelledby="title" aria-describedby="desc"><path data-name="layer2" d="M24 47a2 2 0 0 0-2-2 2 2 0 0 0-4 0 2 2 0 0 0 0 4 2 2 0 1 0 4 0 2 2 0 0 0 2-2zm14 0a2 2 0 0 0-2-2 2 2 0 0 0-2-2 2 2 0 0 0-2 2 2 2 0 0 0 0 4 2 2 0 0 0 2 2 2 2 0 0 0 2-2 2 2 0 0 0 2-2zm-8.6 8a2 2 0 0 0-2-2 2 2 0 0 0-2 2 2 2 0 0 0 0 4 2 2 0 0 0 2 2 2 2 0 0 0 2-2 2 2 0 0 0 0-4zm13.2 0a2 2 0 0 0-4 0 2 2 0 0 0 0 4 2 2 0 0 0 4 0 2 2 0 0 0 0-4zM50 45a2 2 0 0 0-4 0 2 2 0 0 0 0 4 2 2 0 1 0 4 0 2 2 0 0 0 0-4z" fill="#202020"/><path data-name="layer1" d="M46.8 19.2h-1A13.6 13.6 0 0 0 33.1 11a13.5 13.5 0 0 0-13.5 11.5h-.1a8.2 8.2 0 1 0 0 16.5h27.3A10.1 10.1 0 0 0 57 29.1a10.1 10.1 0 0 0-10.2-9.9zm-30.4-.3a17.4 17.4 0 0 1 9.5-10.4 10 10 0 1 0-14.4 12.9 12.6 12.6 0 0 1 4.9-2.5z" fill="#202020"/></svg>