<svg xmlns="http://www.w3.org/2000/svg" viewBox="0 0 64 64" aria-labelledby="title" aria-describedby="desc"><path data-name="layer3" fill="#d5e2f4" d="M47 23l7-7H14l7 7"/><path data-name="layer2" fill="#f9d28c" d="M47 23H21l13 13 13-13z"/><path data-name="layer1" d="M49.4 20.6a8 8 0 1 0-3.1-4.6H54z" fill="#ffc943"/><path data-name="opacity" fill="#101129" opacity=".18" d="M24.2 16H14l7 7h6.6l-3.4-7zM21 23l13 13-6.4-13H21z"/><path data-name="opacity" fill="#fff" opacity=".5" d="M42 23l4.3-7h-7.1l-1.8 7H42zm-4.6 0L34 36l8-13h-4.6z"/><path data-name="stroke" fill="none" stroke="#2f446a" stroke-linecap="round" stroke-linejoin="round" stroke-width="2" d="M34 36v22m-10 0h20M2 6h8a5.6 5.6 0 0 1 4 2l8 8m24.3 0a8 8 0 1 1 3.2 4.6"/><path data-name="stroke" fill="none" stroke="#2f446a" stroke-linecap="round" stroke-linejoin="round" stroke-width="2" d="M47 23l7-7H14l7 7m26 0H21l13 13 13-13z"/></svg>