<svg viewBox="0 0 64 64" xmlns="http://www.w3.org/2000/svg" aria-labelledby="title" aria-describedby="desc"><path fill="#a6b1c9" d="M47.056 24.88C43.842 18.33 38.295 14 31.986 14S20.106 18.35 16.9 24.925A24.389 24.389 0 0 0 32 30a24.329 24.329 0 0 0 15.056-5.12z" data-name="layer1"/><path fill="#a6b1c9" d="M32 30a24.389 24.389 0 0 1-15.1-5.075A29.881 29.881 0 0 0 13.986 38c0 13.255 8.059 24 18 24s18-10.745 18-24a29.872 29.872 0 0 0-2.931-13.12A24.329 24.329 0 0 1 32 30z" data-name="layer1"/><path opacity=".15" fill="#000064" d="M24.007 28.715a23.777 23.777 0 0 1-7.111-3.79A29.881 29.881 0 0 0 13.986 38c0 13.255 8.059 24 18 24-7.238-4.517-7.916-23.717-7.979-33.285z" data-name="opacity"/><path opacity=".2" fill="#fff" d="M31.986 14c-5.468 0-7.595 9.921-7.936 14.728A25.207 25.207 0 0 0 32 30a24.329 24.329 0 0 0 15.056-5.12C43.842 18.33 38.295 14 31.986 14z" data-name="opacity"/><path d="M18 2l8.033 13.249M46.039 2l-8.022 13.232M10 62c.75-2.076 3.586-7.583 8.143-8.661M54 62c-.748-2.076-3.582-7.583-8.141-8.661M13.922 40H2m60 0H50.063" stroke-width="2" stroke-linejoin="round" stroke-linecap="round" stroke="#2e4369" fill="none" data-name="stroke"/><ellipse stroke-width="2" stroke-linejoin="round" stroke-linecap="round" stroke="#2e4369" fill="none" ry="24" rx="18" cy="38" cx="31.986" data-name="stroke"/><path stroke-width="2" stroke-linejoin="round" stroke-linecap="round" stroke="#2e4369" fill="none" d="M54 16a23.843 23.843 0 0 1-22 14c-10.342 0-18.625-5.994-22-14m22 14v32" data-name="stroke"/></svg>