<svg viewBox="0 0 64 64" xmlns="http://www.w3.org/2000/svg" aria-labelledby="title" aria-describedby="desc"><path fill="#202020" d="M2 22v34h60V22zm25.543 22.685a2 2 0 1 1-3.012 2.631l-8.151-9.33 8.153-9.3a2 2 0 1 1 3.008 2.635l-5.847 6.669zm12 2.631a2 2 0 1 1-3.012-2.631l5.849-6.695-5.847-6.673a2 2 0 1 1 3.008-2.635l8.153 9.3z" data-name="layer2"/><path fill="#202020" d="M2 8v10h60V8zm6 7a2 2 0 1 1 2-2 2 2 0 0 1-2 2zm6 0a2 2 0 1 1 2-2 2 2 0 0 1-2 2zm6 0a2 2 0 1 1 2-2 2 2 0 0 1-2 2z" data-name="layer1"/></svg>