<svg viewBox="0 0 64 64" xmlns="http://www.w3.org/2000/svg" aria-labelledby="title" aria-describedby="desc"><path fill="#d5e2f4" d="M60.737 35A25.693 25.693 0 0 0 60 33c-.875-2.59-2-4.723-2-6 0-2 4-4 4-4H19.393a26.049 26.049 0 0 0-8.127 12" data-name="layer2"/><path fill="#664e4f" d="M11.266 35a25.9 25.9 0 0 0 1.684 20h46.1a25.921 25.921 0 0 0 1.686-20z" data-name="layer1"/><path opacity=".18" fill="#101129" d="M27.4 23h-8a26.049 26.049 0 0 0-8.127 12h8A26.049 26.049 0 0 1 27.4 23z" data-name="opacity"/><path opacity=".25" fill="#101129" d="M19.269 35h-8a25.9 25.9 0 0 0 1.684 20h8a25.9 25.9 0 0 1-1.684-20z" data-name="opacity"/><path opacity=".5" fill="#fff" d="M44.994 27c0 1.277 1.125 3.41 2 6 .274.654.516 1.322.736 2h8a26.1 26.1 0 0 0-.736-2c-.875-2.59-2-4.723-2-6 0-2 4-4 4-4h-8s-4 2-4 4zm2.736 8a25.915 25.915 0 0 1-1.686 20h8a25.915 25.915 0 0 0 1.686-20z" data-name="opacity"/><path stroke-width="2" stroke-linejoin="round" stroke-linecap="round" stroke="#2f446a" fill="none" d="M56 15H14S2 26.83 2 35s6 8.17 8.086 8.17M14.002 9L20 14.998" data-name="stroke"/><path stroke-width="2" stroke-linejoin="round" stroke-linecap="round" stroke="#2f446a" fill="none" d="M60 33c-.875-2.59-2-4.723-2-6 0-2 4-4 4-4H19.393a25.955 25.955 0 0 0-6.443 32h46.1a25.922 25.922 0 0 0 1.687-20A25.29 25.29 0 0 0 60 33zm-48.734 2h49.171" data-name="stroke"/></svg>