<svg xmlns="http://www.w3.org/2000/svg" viewBox="0 0 64 64" aria-labelledby="title" aria-describedby="desc"><path data-name="layer2" d="M39 36.5c-3.4-9.3-14.1-15.7-24.1-14.3S-.3 32.3 3 41.5s14.1 15.7 24.1 14.3S42.4 45.7 39 36.5zm-4.1 9.3l-.9.2a2 2 0 0 1-1.8-1.1c-1.6-3.4-4.4-4.7-10.3-4.9s-9.4-1.2-13.5-6.8a2 2 0 0 1 3.2-2.4c3.2 4.2 4.7 5 10.5 5.2s10.8 1.1 13.7 7.1a2 2 0 0 1-.9 2.7z" fill="#202020"/><path data-name="layer1" d="M49.1 8.2C40.3 7 30.8 11.9 26.4 19.5a28.2 28.2 0 0 1 7.5 4 21.3 21.3 0 0 1 8-1.5c5.7-.2 7.3-.9 10.5-5.2a2 2 0 0 1 3.2 2.4c-4.1 5.6-7.1 6.6-13.5 6.8a22.4 22.4 0 0 0-4.7.6 24.5 24.5 0 0 1 5.4 8.5 20.4 20.4 0 0 1 1.2 6.4c7.5-1.5 14.4-6.9 17-14 3.3-9.2-2-17.9-11.9-19.3z" fill="#202020"/></svg>