<svg xmlns="http://www.w3.org/2000/svg" viewBox="0 0 64 64" aria-labelledby="title" aria-describedby="desc"><path data-name="layer1" d="M61.9 32.3l-1-2.6a15.9 15.9 0 0 1-.9-2.6 7.5 7.5 0 0 1 2.9-2.3A2 2 0 0 0 62 21H19.4a2 2 0 0 0-1.3.5A27.9 27.9 0 0 0 8.1 41C5.9 40.7 4 39.4 4 35s7.3-14.4 10.8-18H56a2 2 0 0 0 0-4H20.8l-5.4-5.4a2 2 0 1 0-2.8 2.8l2.6 2.6h-2l-.6.6C11.3 14.8 0 26.2 0 35c0 4.2 1.5 9.2 8.1 10a27.6 27.6 0 0 0 3.1 10.9 2 2 0 0 0 1.7 1.1h46.2a2 2 0 0 0 1.8-1.1 27.9 27.9 0 0 0 1-23.6zM20.1 25h36.5a4 4 0 0 0-.6 2 12.2 12.2 0 0 0 1.2 4.2l.7 1.8H14.2a24 24 0 0 1 5.9-8z" fill="#202020"/></svg>