<svg xmlns="http://www.w3.org/2000/svg" viewBox="0 0 64 64" aria-labelledby="title" aria-describedby="desc"><path data-name="layer3" fill="#f16262" d="M10 10h44v12H10zm2 0l4-8h32l4 8"/><path data-name="opacity" fill="#fff" opacity=".25" d="M47 10l-4-8h-5l3 8v12h8V10h-2z"/><path data-name="opacity" fill="#101129" opacity=".25" d="M19.1 10l4-8H16l-4 8h-2v12h7.1V10h2z"/><path data-name="layer2" fill="#fdefe5" d="M14 22l.4 8h35.2l.4-8M15.2 46l.8 16h32l.8-16"/><path data-name="layer1" fill="#c59483" d="M49.6 30H14.4l.8 16h33.6l.8-16z"/><path data-name="opacity" fill="#101129" opacity=".18" d="M20 22h-6l.4 8h6l-.4-8zm-4.8 24l.8 16h6l-.8-16h-6z"/><path data-name="opacity" fill="#101129" opacity=".25" d="M20.4 30h-6l.8 16h6l-.8-16z"/><path data-name="stroke" fill="none" stroke="#2f446a" stroke-linecap="round" stroke-linejoin="round" stroke-width="2" d="M10 10h44v12H10zm2 0l4-8h32l4 8M14 22l.4 8h35.2l.4-8M15.2 46l.8 16h32l.8-16m.8-16H14.4l.8 16h33.6l.8-16z"/></svg>