<svg xmlns="http://www.w3.org/2000/svg" viewBox="0 0 64 64" aria-labelledby="title" aria-describedby="desc"><path data-name="layer2" d="M32 36C9.5 28.7 6.2 16 6.2 10.7 2.3 16.1.9 23.7 3 32c4.1 16.6 20.4 30 36.5 30a24.9 24.9 0 0 0 8.5-1.5c2.2-1.3 4.7-17.8-16-24.5z" fill="none" stroke="#202020" stroke-linecap="round" stroke-linejoin="round" stroke-width="2"/><path data-name="layer1" d="M34.1 28C56 34.2 57.8 53.2 57.8 53.2c3.9-5.4 5.3-12.9 3.2-21.2C56.9 15.4 40.6 2 24.5 2a24.9 24.9 0 0 0-8.6 1.5C13.5 4.8 11.6 21.7 34.1 28z" fill="none" stroke="#202020" stroke-linecap="round" stroke-linejoin="round" stroke-width="2"/></svg>