<svg xmlns="http://www.w3.org/2000/svg" viewBox="0 0 64 64" aria-labelledby="title" aria-describedby="desc"><path data-name="layer1" d="M46 7v40a10 10 0 0 1-10 10H12A10 10 0 0 1 2 47V7z" fill="#d5e2f4"/><path data-name="opacity" d="M32 7v40c0 5.5-3.9 10-8.6 10h8c4.8 0 8.6-4.5 8.6-10V7z" fill="#fff" opacity=".5"/><path data-name="opacity" d="M10 47V7H2v40a10 10 0 0 0 10 10h8a10 10 0 0 1-10-10z" fill="#101129" opacity=".18"/><path data-name="layer1" d="M46 45h.9C53.4 45 62 39.1 62 29s-8.8-15.4-15.1-15.4H46v4h.9C50.8 17.6 58 21 58 29s-6.5 12-11.1 12H46z" fill="#d5e2f4"/><path data-name="stroke" d="M46 13.6h.9C53.2 13.6 62 18.9 62 29s-8.6 16-15.1 16H46" fill="none" stroke="#2f446a" stroke-linecap="round" stroke-linejoin="round" stroke-width="2"/><path data-name="stroke" d="M46 41h.9C51.5 41 58 36.7 58 29s-7.2-11.4-11.1-11.4H46M46 7v40a10 10 0 0 1-10 10H12A10 10 0 0 1 2 47V7z" fill="none" stroke="#2f446a" stroke-linecap="round" stroke-linejoin="round" stroke-width="2"/></svg>