<svg xmlns="http://www.w3.org/2000/svg" viewBox="0 0 64 64" aria-labelledby="title" aria-describedby="desc"><circle data-name="layer2" cx="32" cy="32" r="13" fill="none" stroke="#202020" stroke-linecap="round" stroke-miterlimit="10" stroke-width="2" stroke-linejoin="round"/><path data-name="layer1" d="M54.725 35.558a23.163 23.163 0 0 0 0-7.116l5.113-4.942a1.818 1.818 0 0 0 .311-2.216l-4.944-8.563a1.818 1.818 0 0 0-2.075-.839l-6.979 2a22.954 22.954 0 0 0-5.965-3.37L38.4 3.377A1.818 1.818 0 0 0 36.64 2h-9.888a1.818 1.818 0 0 0-1.764 1.377l-1.848 7.394A22.975 22.975 0 0 0 17.687 14l-7.424-2.124a1.818 1.818 0 0 0-2.075.839l-4.944 8.567a1.818 1.818 0 0 0 .31 2.218l5.652 5.464a22.509 22.509 0 0 0 0 6.075L3.554 40.5a1.818 1.818 0 0 0-.311 2.216l4.944 8.563a1.818 1.818 0 0 0 2.075.839L17.687 50a22.97 22.97 0 0 0 5.454 3.232l1.848 7.394A1.818 1.818 0 0 0 26.752 62h9.888a1.818 1.818 0 0 0 1.76-1.377l1.782-7.128a22.955 22.955 0 0 0 5.965-3.371l6.979 2a1.818 1.818 0 0 0 2.075-.839l4.944-8.563a1.818 1.818 0 0 0-.311-2.216z" fill="none" stroke="#202020" stroke-linecap="round" stroke-miterlimit="10" stroke-width="2" stroke-linejoin="round"/></svg>