<svg xmlns="http://www.w3.org/2000/svg" viewBox="0 0 64 64" aria-labelledby="title" aria-describedby="desc"><path data-name="layer1" d="M54.725 35.558a23.163 23.163 0 0 0 0-7.116l5.113-4.942a1.818 1.818 0 0 0 .311-2.216l-4.944-8.563a1.818 1.818 0 0 0-2.075-.839l-6.979 2a22.954 22.954 0 0 0-5.965-3.37L38.4 3.377A1.818 1.818 0 0 0 36.64 2h-9.888a1.818 1.818 0 0 0-1.764 1.377l-1.848 7.394A22.975 22.975 0 0 0 17.687 14l-7.424-2.124a1.818 1.818 0 0 0-2.075.839l-4.944 8.567a1.818 1.818 0 0 0 .31 2.218l5.652 5.464a22.509 22.509 0 0 0 0 6.075L3.554 40.5a1.818 1.818 0 0 0-.311 2.216l4.944 8.563a1.818 1.818 0 0 0 2.075.839L17.687 50a22.97 22.97 0 0 0 5.454 3.232l1.848 7.394A1.818 1.818 0 0 0 26.752 62h9.888a1.818 1.818 0 0 0 1.76-1.377l1.782-7.128a22.955 22.955 0 0 0 5.965-3.371l6.979 2a1.818 1.818 0 0 0 2.075-.839l4.944-8.563a1.818 1.818 0 0 0-.311-2.216zM32 45a13 13 0 1 1 13-13 13 13 0 0 1-13 13z" fill="#7b8baf"/><path data-name="opacity" d="M26.14 7.771L27.583 2h-.83a1.818 1.818 0 0 0-1.764 1.377L23.57 9.051a22.7 22.7 0 0 1 2.57-1.28zm31.585 17.671c0 .029.006.06.01.089l2.1-2.033a1.778 1.778 0 0 0 .254-.344zM48 29a12.991 12.991 0 0 0-23.561-7.561 12.985 12.985 0 0 1 18.122 18.122A12.972 12.972 0 0 0 48 29zm8.131 20.121l-6.979-2a22.955 22.955 0 0 1-5.965 3.371l-.458 1.831a23.051 23.051 0 0 0 3.423-2.2l6.979 2a1.818 1.818 0 0 0 2.075-.839l1.228-2.127a1.766 1.766 0 0 1-.303-.036zM9.206 28.962a22.339 22.339 0 0 0-.006 5.985l3.009-2.91a22.509 22.509 0 0 1 0-6.075L6.554 20.5a1.818 1.818 0 0 1-.311-2.216l3.717-6.438a1.8 1.8 0 0 0-1.772.873l-4.944 8.563a1.818 1.818 0 0 0 .31 2.218zM29.752 59a1.818 1.818 0 0 1-1.764-1.377l-1.848-7.394A22.97 22.97 0 0 1 20.687 47l-7.424 2.124a1.818 1.818 0 0 1-2.075-.839l-4.944-8.567a1.8 1.8 0 0 1 .056-1.871L3.554 40.5a1.818 1.818 0 0 0-.311 2.216l4.944 8.563a1.818 1.818 0 0 0 2.075.839L17.687 50a22.97 22.97 0 0 0 5.454 3.232l1.848 7.394A1.818 1.818 0 0 0 26.752 62h9.888a1.818 1.818 0 0 0 1.76-1.377L38.81 59z" fill="#000064" opacity=".2"/><circle data-name="stroke" cx="32" cy="32" r="13" fill="none" stroke="#2e4369" stroke-linecap="round" stroke-miterlimit="10" stroke-width="2" stroke-linejoin="round"/><path data-name="stroke" d="M54.725 35.558a23.163 23.163 0 0 0 0-7.116l5.113-4.942a1.818 1.818 0 0 0 .311-2.216l-4.944-8.563a1.818 1.818 0 0 0-2.075-.839l-6.979 2a22.954 22.954 0 0 0-5.965-3.37L38.4 3.377A1.818 1.818 0 0 0 36.64 2h-9.888a1.818 1.818 0 0 0-1.764 1.377l-1.848 7.394A22.975 22.975 0 0 0 17.687 14l-7.424-2.124a1.818 1.818 0 0 0-2.075.839l-4.944 8.567a1.818 1.818 0 0 0 .31 2.218l5.652 5.464a22.509 22.509 0 0 0 0 6.075L3.554 40.5a1.818 1.818 0 0 0-.311 2.216l4.944 8.563a1.818 1.818 0 0 0 2.075.839L17.687 50a22.97 22.97 0 0 0 5.454 3.232l1.848 7.394A1.818 1.818 0 0 0 26.752 62h9.888a1.818 1.818 0 0 0 1.76-1.377l1.782-7.128a22.955 22.955 0 0 0 5.965-3.371l6.979 2a1.818 1.818 0 0 0 2.075-.839l4.944-8.563a1.818 1.818 0 0 0-.311-2.216z" fill="none" stroke="#2e4369" stroke-linecap="round" stroke-miterlimit="10" stroke-width="2" stroke-linejoin="round"/></svg>