<svg xmlns="http://www.w3.org/2000/svg" viewBox="0 0 64 64" aria-labelledby="title" aria-describedby="desc"><path data-name="layer1" d="M56.26 35.8a24.7 24.7 0 0 0 0-7.59l5.454-5.274a1.939 1.939 0 0 0 .332-2.364l-5.274-9.134a1.939 1.939 0 0 0-2.213-.895l-7.444 2.13a24.487 24.487 0 0 0-6.363-3.6l-1.9-7.6A1.94 1.94 0 0 0 36.97 0H26.423a1.939 1.939 0 0 0-1.881 1.469L22.57 9.356a24.5 24.5 0 0 0-5.817 3.444l-7.92-2.262a1.939 1.939 0 0 0-2.213.895l-5.273 9.134a1.939 1.939 0 0 0 .331 2.364l6.029 5.829a24.013 24.013 0 0 0 0 6.48l-6.029 5.829a1.94 1.94 0 0 0-.331 2.364l5.273 9.134a1.94 1.94 0 0 0 2.213.895l7.92-2.262a24.5 24.5 0 0 0 5.817 3.448l1.972 7.887A1.939 1.939 0 0 0 26.423 64H36.97a1.94 1.94 0 0 0 1.882-1.469l1.9-7.6a24.487 24.487 0 0 0 6.363-3.6l7.444 2.13a1.939 1.939 0 0 0 2.213-.895l5.274-9.134a1.94 1.94 0 0 0-.332-2.364zM32.02 46a14 14 0 1 1 14-14 14 14 0 0 1-14 14z" fill="#202020"/></svg>