<svg xmlns="http://www.w3.org/2000/svg" viewBox="0 0 64 64" aria-labelledby="title" aria-describedby="desc"><path data-name="layer5" d="M18.9 46C29 46 36 42.1 35 49.4c-.6 4.3-9 .4-9 7.5 0 3.3 3 4.9 7.1 5.1a29.8 29.8 0 0 0 14.2-4.2l.7-.5 1.3-.8a30 30 0 1 0-47-20.4C3.5 42.3 8.9 46 18.9 46z" fill="#eaa97d"/><path data-name="opacity" d="M34.9 46.8v-.4c1-7.3-6-3.4-16.1-3.4S3.5 39.3 2.3 33.1c-.1-.9-.2-1.8-.2-2.7S2 31.4 2 32a30.2 30.2 0 0 0 .3 4.1C3.5 42.3 8.9 46 18.9 46s14.9-2.8 16 .8zm14.4 6.7l-1.3.8-.7.5A29.8 29.8 0 0 1 33.1 59c-3.5-.1-6.1-1.3-6.9-3.7A6.5 6.5 0 0 0 26 57c0 3.3 3 4.9 7.1 5.1a29.8 29.8 0 0 0 14.2-4.2l.7-.5 1.3-.8A30 30 0 0 0 62 32v-1.6a30 30 0 0 1-12.7 23.1z" opacity=".2"/><circle data-name="layer4" cx="46" cy="20" r="4" transform="rotate(-45 46.003 20.045)" fill="#ed4c49"/><circle data-name="layer3" cx="32" cy="14" r="4" transform="rotate(-45 31.98 13.954)" fill="#fce349"/><circle data-name="layer2" cx="19" cy="19" r="3" transform="rotate(-45 18.985 19.036)" fill="#3db47b"/><circle data-name="layer1" cx="15" cy="33" r="5" transform="rotate(-45 15.004 33.085)" fill="#49bcff"/><circle data-name="stroke" cx="46" cy="20" r="4" transform="rotate(-45 46.003 20.045)" fill="none" stroke="#2e4369" stroke-linecap="round" stroke-linejoin="round" stroke-width="2"/><circle data-name="stroke" cx="32" cy="14" r="4" transform="rotate(-45 31.98 13.954)" fill="none" stroke="#2e4369" stroke-linecap="round" stroke-linejoin="round" stroke-width="2"/><circle data-name="stroke" cx="19" cy="19" r="3" transform="rotate(-45 18.985 19.036)" fill="none" stroke="#2e4369" stroke-linecap="round" stroke-linejoin="round" stroke-width="2"/><circle data-name="stroke" cx="15" cy="33" r="5" transform="rotate(-45 15.054 32.964)" fill="none" stroke="#2e4369" stroke-linecap="round" stroke-linejoin="round" stroke-width="2"/><path data-name="stroke" d="M18.9 46C29 46 36 42.1 35 49.4c-.6 4.3-9 .4-9 7.5 0 3.3 3 4.9 7.1 5.1a29.8 29.8 0 0 0 14.2-4.2l.7-.5 1.3-.8a30 30 0 1 0-47-20.4C3.5 42.3 8.9 46 18.9 46z" fill="none" stroke="#2e4369" stroke-linecap="round" stroke-linejoin="round" stroke-width="2"/></svg>