<svg xmlns="http://www.w3.org/2000/svg" viewBox="0 0 64 64" aria-labelledby="title" aria-describedby="desc"><path data-name="layer2" d="M35.8 17.9L15 38.7a7.3 7.3 0 0 0-1.7 7.7l-3.9 3.9a1.5 1.5 0 0 0 0 2.1l2.3 2.3a1.5 1.5 0 0 0 2.1 0l3.9-3.9a7.3 7.3 0 0 0 7.6-1.8l20.8-20.8" fill="#dde5f4"/><path data-name="opacity" d="M35.8 17.9L15 38.7a7.3 7.3 0 0 0-1.7 7.7l-3.9 3.9a1.5 1.5 0 0 0 0 2.1l2 2a1.5 1.5 0 0 1 0-2.1l3.9-3.9a7.3 7.3 0 0 1 1.7-7.7l20.8-20.8" fill="#fff" opacity=".5"/><path data-name="layer1" d="M46.1 28.2l6.8-6.8a7.3 7.3 0 0 0-10.3-10.3l-6.8 6.8" fill="#f27e7c"/><path data-name="opacity" d="M46.1 28.2l6.8-6.8a7.3 7.3 0 0 0-1.7-11.6 7.3 7.3 0 0 1-1.3 8.6l-6.8 6.8" fill="#000028" opacity=".16"/><path data-name="stroke" fill="none" stroke="#2e4369" stroke-linecap="round" stroke-linejoin="round" stroke-width="2" d="M32.5 14.7l16.8 16.8M35.8 17.9L15 38.7a7.3 7.3 0 0 0-1.7 7.7l-3.9 3.9a1.5 1.5 0 0 0 0 2.1l2.3 2.3a1.5 1.5 0 0 0 2.1 0l3.9-3.9a7.3 7.3 0 0 0 7.6-1.8l20.8-20.8m0 0l6.8-6.8a7.3 7.3 0 0 0-10.3-10.3l-6.8 6.8"/></svg>