<svg xmlns="http://www.w3.org/2000/svg" viewBox="0 0 64 64" aria-labelledby="title" aria-describedby="desc"><path data-name="layer2" d="M55 46a8.946 8.946 0 0 0-5.087 1.583l-8.089-8.712a12 12 0 1 0-20.455-1.325l-6.783 6.41a9.051 9.051 0 1 0 2.508 3.134l6.715-6.345a11.926 11.926 0 0 0 15.2.974l8.191 8.816A8.993 8.993 0 1 0 55 46zM33 26a1 1 0 0 1 0-2 7.008 7.008 0 0 1 7 7 1 1 0 0 1-2 0 5.006 5.006 0 0 0-5-5z" fill="#202020"/><path data-name="layer1" d="M45 0a7.994 7.994 0 0 0-5.625 13.681l-2.681 5.146a13.955 13.955 0 0 1 3.534 1.873l2.607-5A8 8 0 1 0 45 0zM22 14a6.008 6.008 0 1 0-3.618 5.5l3.076 3.313a14.091 14.091 0 0 1 3.033-2.613l-3.179-3.423A5.959 5.959 0 0 0 22 14z" fill="#202020"/></svg>