<svg viewBox="0 0 64 64" xmlns="http://www.w3.org/2000/svg" aria-labelledby="title" aria-describedby="desc"><path fill="#f26161" d="M22 22L12 52l30-10 10-30zm10 14a4 4 0 1 1 4-4 4 4 0 0 1-4 4z" data-name="layer1"/><path opacity=".2" fill="#000032" d="M52 12L34.8 29.2a4 4 0 1 1-5.7 5.7L12 52l30-10z" data-name="opacity"/><path d="M12 52l10-30 30-10-10 30-30 10z" stroke-width="2" stroke-miterlimit="10" stroke-linecap="round" stroke="#2e4369" fill="none" data-name="stroke" stroke-linejoin="round"/><circle stroke-width="2" stroke-miterlimit="10" stroke-linecap="round" stroke="#2e4369" fill="none" r="4" cy="32" cx="32" data-name="stroke" stroke-linejoin="round"/><path d="M32 2v8m0 44v8M2 32h8m44 0h8" stroke-width="2" stroke-miterlimit="10" stroke-linecap="round" stroke="#2e4369" fill="none" data-name="stroke" stroke-linejoin="round"/></svg>