<svg xmlns="http://www.w3.org/2000/svg" viewBox="0 0 64 64" aria-labelledby="title" aria-describedby="desc"><circle data-name="layer2" cx="50" cy="9" r="6" fill="#78d1f4"/><circle data-name="layer1" cx="14" cy="9" r="6" fill="#a5d0ec"/><circle data-name="layer3" cx="32" cy="13" r="6" fill="#3dd1fe"/><path data-name="layer3" d="M41 25H23a3 3 0 0 0-3 3v14a3 3 0 0 0 3 3h3v13a3 3 0 0 0 3 3h6a3 3 0 0 0 3-3V45h3a3 3 0 0 0 3-3V28a3 3 0 0 0-3-3z" fill="#3dd1fe"/><path data-name="opacity" d="M32 19a6 6 0 0 0 4.7-2.2L35 17a6 6 0 0 1-4.7-9.8A6 6 0 0 0 32 19zm-3 37V43h-3a3 3 0 0 1-3-3V26a3 3 0 0 1 .2-1H23a3 3 0 0 0-3 3v14a3 3 0 0 0 3 3h3v13a3 3 0 0 0 3 3h6a3 3 0 0 0 2.8-2H32a3 3 0 0 1-3-3z" fill="#000064" opacity=".15"/><path data-name="layer2" d="M59 21H41a3 3 0 0 0-3 3v1h3a3 3 0 0 1 3 3v26a3 3 0 0 0 3 3h6a3 3 0 0 0 3-3V41h3a3 3 0 0 0 3-3V24a3 3 0 0 0-3-3z" fill="#78d1f4"/><circle data-name="opacity" cx="50" cy="9" r="6" fill="#000064" opacity=".1"/><path data-name="opacity" d="M59 21H41a3 3 0 0 0-3 3v1h3a3 3 0 0 1 3 3v26a3 3 0 0 0 3 3h6a3 3 0 0 0 3-3V41h3a3 3 0 0 0 3-3V24a3 3 0 0 0-3-3z" fill="#000064" opacity=".1"/><path data-name="layer1" d="M23 25h3.3l-.3-1a3 3 0 0 0-3-3H5a3 3 0 0 0-3 3v14a3 3 0 0 0 3 3h3v13a3 3 0 0 0 3 3h6a3 3 0 0 0 3-3V28a3 3 0 0 1 3-3z" fill="#a5d0ec"/><circle data-name="opacity" cx="14" cy="9" r="6" fill="#000064" opacity=".1"/><path data-name="opacity" d="M23 25h3.3l-.3-1a3 3 0 0 0-3-3H5a3 3 0 0 0-3 3v14a3 3 0 0 0 3 3h3v13a3 3 0 0 0 3 3h6a3 3 0 0 0 3-3V28a3 3 0 0 1 3-3z" fill="#000064" opacity=".1"/><circle data-name="stroke" cx="50" cy="9" r="6" fill="none" stroke="#2e4369" stroke-linecap="round" stroke-linejoin="round" stroke-width="2"/><path data-name="stroke" d="M44 41v13a3 3 0 0 0 3 3h6a3 3 0 0 0 3-3V41h3a3 3 0 0 0 3-3V24a3 3 0 0 0-3-3H41a3 3 0 0 0-3 3v1" fill="none" stroke="#2e4369" stroke-linecap="round" stroke-linejoin="round" stroke-width="2"/><circle data-name="stroke" cx="14" cy="9" r="6" fill="none" stroke="#2e4369" stroke-linecap="round" stroke-linejoin="round" stroke-width="2"/><path data-name="stroke" d="M26 24a3 3 0 0 0-3-3H5a3 3 0 0 0-3 3v14a3 3 0 0 0 3 3h3v13a3 3 0 0 0 3 3h6a3 3 0 0 0 3-3V41" fill="none" stroke="#2e4369" stroke-linecap="round" stroke-linejoin="round" stroke-width="2"/><circle data-name="stroke" cx="32" cy="13" r="6" fill="none" stroke="#2e4369" stroke-linecap="round" stroke-linejoin="round" stroke-width="2"/><path data-name="stroke" d="M41 25H23a3 3 0 0 0-3 3v14a3 3 0 0 0 3 3h3v13a3 3 0 0 0 3 3h6a3 3 0 0 0 3-3V45h3a3 3 0 0 0 3-3V28a3 3 0 0 0-3-3z" fill="none" stroke="#2e4369" stroke-linecap="round" stroke-linejoin="round" stroke-width="2"/></svg>