<svg xmlns="http://www.w3.org/2000/svg" viewBox="0 0 64 64" aria-labelledby="title" aria-describedby="desc"><path data-name="layer2" d="M25.691 34.2L11.19 48.67a1 1 0 0 1-.522.275l-4.775.893a1 1 0 0 0-.73.577L.931 59.947a1 1 0 0 0 .208 1.114l1.177 1.175a1 1 0 0 0 1.084.218l9.811-4a1 1 0 0 0 .6-.735l.936-4.8a1 1 0 0 1 .275-.517L29.48 37.983zM50.163 2.28L35.681 16.733a7.951 7.951 0 0 0-2.238 4.42l-6.994 4.842a2.869 2.869 0 0 0-.467 4.5l7.208 7.193a2.882 2.882 0 0 0 4.511-.466l4.792-6.9a7.982 7.982 0 0 0 4.556-2.252l14.48-14.447A8.029 8.029 0 0 0 50.163 2.28z" fill="#202020"/><path data-name="layer1" d="M24.568 31.912a4.926 4.926 0 0 1-1.43-4.1 4.767 4.767 0 0 1 2.215-3.494l4.307-2.982-3.56-3.547a4.215 4.215 0 0 1-1.172-3.565A12.493 12.493 0 0 0 12.522.068c-.36 0-.714.024-1.067.054l4.7 7.423a1.386 1.386 0 0 1-.107 1.631l-2.556 3.061a1.391 1.391 0 0 1-.687.446l-3.405.971a1.392 1.392 0 0 1-1.59-.645L2.939 4.528a12.436 12.436 0 0 0-2.9 9.017 12.577 12.577 0 0 0 9.727 11.206 12.39 12.39 0 0 0 4.3.213 4.284 4.284 0 0 1 3.587 1.172l6.647 6.633.566-.565zm28.772 7.172a12.6 12.6 0 0 0-3.517-.028 4.214 4.214 0 0 1-3.56-1.148l-3.9-3.892-2.992 4.3a4.78 4.78 0 0 1-4.084 2.245 4.944 4.944 0 0 1-3.511-1.461l-.295-.294-.566.565 6.966 6.952a4.232 4.232 0 0 1 1.175 3.555 12.266 12.266 0 0 0-.1 1.56 12.437 12.437 0 0 0 14.408 12.34l-5.338-8.431a1.386 1.386 0 0 1 .107-1.631l2.556-3.061a1.391 1.391 0 0 1 .687-.446l3.409-.972a1.392 1.392 0 0 1 1.59.645l5.155 8.984a12.407 12.407 0 0 0 2.444-8.23A12.575 12.575 0 0 0 53.34 39.084z" fill="#202020"/></svg>