<svg xmlns="http://www.w3.org/2000/svg" viewBox="0 0 64 64" aria-labelledby="title" aria-describedby="desc"><path data-name="layer2" fill="none" stroke="#202020" stroke-linecap="round" stroke-linejoin="round" stroke-width="2" d="M24 31h18m-7.1-7l7.1 7-7.1 7"/><path data-name="layer1" d="M36 44v6.5a3.5 3.5 0 0 1-3.5 3.5h-21A3.5 3.5 0 0 1 8 50.5v-45A3.5 3.5 0 0 1 11.5 2h21A3.5 3.5 0 0 1 36 5.5V18M8 10h28M8 44h28" fill="none" stroke="#202020" stroke-linecap="round" stroke-linejoin="round" stroke-width="2"/><path data-name="layer1" d="M36 10h16.5a3.5 3.5 0 0 1 3.5 3.5v45a3.5 3.5 0 0 1-3.5 3.5h-21a3.5 3.5 0 0 1-3.5-3.5V54m8-36h20M36 52h20" fill="none" stroke="#202020" stroke-linecap="round" stroke-linejoin="round" stroke-width="2"/></svg>