<svg xmlns="http://www.w3.org/2000/svg" viewBox="0 0 64 64" aria-labelledby="title" aria-describedby="desc"><path data-name="layer2" d="M52 10v1a5 5 0 0 1-10 0v-1H22v1a5 5 0 1 1-10 0v-1H2v44h60V10z" fill="#fff"/><circle data-name="layer1" cx="20" cy="28" r="6" fill="#a5d0ec"/><path data-name="layer1" d="M20 34a10.1 10.1 0 0 0-10 10.3V46h20v-1.7A10.1 10.1 0 0 0 20 34z" fill="#a5d0ec"/><path data-name="opacity" fill="#000064" opacity=".15" d="M7 10v40h55v4H2V10h5z"/><path data-name="stroke" d="M52 10v1a5 5 0 0 1-10 0v-1H22v1a5 5 0 1 1-10 0v-1H2v44h60V10zM38 26h16m-16 8h16m-16 8h8" fill="none" stroke="#2e4369" stroke-linecap="round" stroke-linejoin="round" stroke-width="2"/><circle data-name="stroke" cx="20" cy="28" r="6" fill="none" stroke="#2e4369" stroke-linecap="round" stroke-linejoin="round" stroke-width="2"/><path data-name="stroke" d="M20 34a10.1 10.1 0 0 0-10 10.3V46h20v-1.7A10.1 10.1 0 0 0 20 34z" fill="none" stroke="#2e4369" stroke-linecap="round" stroke-linejoin="round" stroke-width="2"/></svg>