<svg xmlns="http://www.w3.org/2000/svg" viewBox="0 0 64 64" aria-labelledby="title" aria-describedby="desc"><path data-name="layer2" d="M14 8a4 4 0 0 0 4 4h32V4H18a4 4 0 0 0-4 4z" fill="#202020"/><path data-name="layer1" d="M18 16a8 8 0 0 1-8-8v44a8 8 0 0 0 8 8h36V16zm28 29.6a6.2 6.2 0 0 1-5.9 4.4c-3.9 0-8.7-3.1-12.9-7.3S20 33.8 20 29.9a6.2 6.2 0 0 1 4.3-5.9c1.2-.2 1.7.7 2.1 1.3l3 4.5a2.1 2.1 0 0 1-.6 2.8c-1.3 1-2.5 1.4 2.3 6.2s5.1 3.5 6.2 2.3a2.1 2.1 0 0 1 2.8-.6l4.5 2.9c.6.5 1.6 1 1.4 2.2z" fill="#202020"/></svg>