<svg viewBox="0 0 64 64" xmlns="http://www.w3.org/2000/svg" aria-labelledby="title" aria-describedby="desc"><path stroke-width="2" stroke-linejoin="round" stroke-linecap="round" stroke="#202020" fill="none" d="M28.5 19.1a4 4 0 1 1 6.8 0M2 27a4 4 0 0 1 4 4h4m52-4a4 4 0 0 0-4 4h-4" data-name="layer2"/><path stroke-width="2" stroke-linejoin="round" stroke-linecap="round" stroke="#202020" fill="none" d="M54 27v12a12 12 0 0 1-12 12H22a12 12 0 0 1-12-12V27zm-44 0c6.5-4.8 13.4-8 22-8s15.5 3.2 22 8" data-name="layer1"/></svg>