<svg viewBox="0 0 64 64" xmlns="http://www.w3.org/2000/svg" aria-labelledby="title" aria-describedby="desc"><path fill="#f26950" d="M28.609 19.121a4 4 0 1 1 6.752.043" data-name="layer2"/><path fill="#c4d3e0" d="M54.061 27v12a12 12 0 0 1-12 12h-20a12 12 0 0 1-12-12V27z" data-name="layer1"/><path opacity=".25" fill="#101129" d="M15.066 39V27h-5v12a12 12 0 0 0 12 12h5a12 12 0 0 1-12-12z" data-name="opacity"/><path fill="#c4d3e0" d="M54.061 26.683C47.568 21.855 40.775 19 32.063 19c-8.639 0-15.663 2.929-22.125 7.683l.123.319h44z" data-name="layer1"/><path d="M34.051 27.002h7.998v24.002h-7.998zM42.049 27s-2.716-8-9.986-8c4.145 0 10.793 1.638 16.4 8.005z" opacity=".5" fill="#fff" data-name="opacity"/><path stroke-width="2" stroke-linejoin="round" stroke-linecap="round" stroke="#2f446a" fill="none" d="M54 27v12a12 12 0 0 1-12 12H22a12 12 0 0 1-12-12V27zm-44 0c6.462-4.752 13.362-8 22-8 8.713 0 15.506 3.131 22 7.96m-25.452-7.839a4 4 0 1 1 6.752.043M2 27a4 4 0 0 1 4 4m3.999-.005H6.001M62 27a4 4 0 0 0-4 4m-3.999-.005h3.998" data-name="stroke"/></svg>