<svg xmlns="http://www.w3.org/2000/svg" viewBox="0 0 64 64" aria-labelledby="title" aria-describedby="desc"><path data-name="layer2" d="M54 7a5 5 0 0 1-5 5H15a5 5 0 0 1-5-5 5 5 0 0 1 5-5h34a5 5 0 0 1 5 5z" fill="#f26950"/><path data-name="opacity" d="M49 9H15a5 5 0 0 1-4.7-3.5A4.9 4.9 0 0 0 10 7a5 5 0 0 0 5 5h34a5 5 0 0 0 5-5 4.9 4.9 0 0 0-.3-1.5A5 5 0 0 1 49 9z" fill="#101129" opacity=".25"/><path data-name="layer1" d="M39.8 26a2 2 0 0 1-1.5 2.4l-11.6 3a2 2 0 0 1-2.4-1.5 2 2 0 0 1 1.5-2.4l11.6-2.9a2 2 0 0 1 2.4 1.4zm0 8a2 2 0 0 1-1.5 2.4l-11.6 3a2 2 0 0 1-2.4-1.5 2 2 0 0 1 1.5-2.4l11.6-2.9a2 2 0 0 1 2.4 1.4zm0 8a2 2 0 0 1-1.5 2.4l-11.6 3a2 2 0 0 1-2.4-1.5 2 2 0 0 1 1.5-2.4l11.6-2.9a2 2 0 0 1 2.4 1.4zm0 8a2 2 0 0 1-1.5 2.4l-11.6 3a2 2 0 0 1-2.4-1.5 2 2 0 0 1 1.5-2.4l11.6-2.9a2 2 0 0 1 2.4 1.4zM30 26.4V12h4v13.4l-4 1zm4 27.2V60a2 2 0 0 1-2 2 2 2 0 0 1-2-2v-5.4" fill="#bacae8"/><path data-name="opacity" fill="#101129" opacity=".25" d="M30 12h4v4h-4zm0 42.6v3.2h4v-4.2l-4 1z"/><path data-name="stroke" d="M54 7a5 5 0 0 1-5 5H15a5 5 0 0 1-5-5 5 5 0 0 1 5-5h34a5 5 0 0 1 5 5zM39.8 26a2 2 0 0 1-1.5 2.4l-11.6 3a2 2 0 0 1-2.4-1.5 2 2 0 0 1 1.5-2.4l11.6-2.9a2 2 0 0 1 2.4 1.4zm0 8a2 2 0 0 1-1.5 2.4l-11.6 3a2 2 0 0 1-2.4-1.5 2 2 0 0 1 1.5-2.4l11.6-2.9a2 2 0 0 1 2.4 1.4zm0 8a2 2 0 0 1-1.5 2.4l-11.6 3a2 2 0 0 1-2.4-1.5 2 2 0 0 1 1.5-2.4l11.6-2.9a2 2 0 0 1 2.4 1.4zm0 8a2 2 0 0 1-1.5 2.4l-11.6 3a2 2 0 0 1-2.4-1.5 2 2 0 0 1 1.5-2.4l11.6-2.9a2 2 0 0 1 2.4 1.4zM30 26.4V12m4 41.6V60a2 2 0 0 1-2 2 2 2 0 0 1-2-2v-5.4M34 12v13.4" fill="none" stroke="#2f446a" stroke-linecap="round" stroke-linejoin="round" stroke-width="2"/></svg>