<svg viewBox="0 0 64 64" xmlns="http://www.w3.org/2000/svg" aria-labelledby="title" aria-describedby="desc"><path stroke-width="2" stroke-miterlimit="10" stroke="#202020" fill="none" d="M39.759 26.046a2 2 0 0 1-1.452 2.427l-11.638 2.926a2 2 0 0 1-2.428-1.452 2 2 0 0 1 1.452-2.427l11.638-2.927a2 2 0 0 1 2.428 1.453zm0 8.002a2 2 0 0 1-1.452 2.427l-11.638 2.927a2 2 0 0 1-2.428-1.453 2 2 0 0 1 1.452-2.426l11.638-2.927a2 2 0 0 1 2.428 1.452zm0 8a2 2 0 0 1-1.452 2.427l-11.638 2.927a2.001 2.001 0 0 1-2.428-1.453 2 2 0 0 1 1.452-2.427l11.638-2.927a2.001 2.001 0 0 1 2.428 1.453zm0 7.999a2 2 0 0 1-1.452 2.427l-11.638 2.927a2 2 0 0 1-2.428-1.452 2 2 0 0 1 1.452-2.427l11.638-2.927a2 2 0 0 1 2.428 1.452zm-9.761-23.61V11.999" data-name="layer1" stroke-linejoin="round" stroke-linecap="round"/><path stroke-width="2" stroke-miterlimit="10" stroke="#202020" fill="none" d="M33.998 53.558V60a2 2 0 0 1-2 2 2 2 0 0 1-2-2v-5.437m4-42.564v13.432" data-name="layer1" stroke-linejoin="round" stroke-linecap="round"/><path stroke-width="2" stroke-miterlimit="10" stroke="#202020" fill="none" d="M54 7a5.001 5.001 0 0 1-5 5H15a5.001 5.001 0 0 1-5-5 4.999 4.999 0 0 1 5-5h34a4.999 4.999 0 0 1 5 5z" data-name="layer2" stroke-linejoin="round" stroke-linecap="round"/></svg>