<svg xmlns="http://www.w3.org/2000/svg" viewBox="0 0 64 64" aria-labelledby="title" aria-describedby="desc"><path data-name="layer1" d="M30.2 46.1a8.7 8.7 0 0 1-12.3 0 8.7 8.7 0 0 1 0-12.3L47.2 4.5a8.7 8.7 0 0 1 12.3 0 8.7 8.7 0 0 1 0 12.3z" fill="#f16262"/><path data-name="opacity" d="M61 6.6a8.7 8.7 0 0 1-2.5 5.3L29.2 41.1a8.7 8.7 0 0 1-13.8-2 8.7 8.7 0 0 0 14.8 7l29.3-29.3A8.7 8.7 0 0 0 61 6.6z" fill="#101129" opacity=".2"/><path data-name="stroke" d="M53.8 10.2c1.1 3.1-1 5.4-4.2 4.2s-5.1.8-4.2 4.2-.8 5.1-4.2 4.2-5.2 1-4.2 4.2-1 5.2-4.2 4.2-5 1-4.2 4.2m-.1.1c1.1 3.1-1 5.4-4.2 4.2" fill="none" stroke="#2f446a" stroke-linecap="round" stroke-linejoin="round" stroke-width="2"/><path data-name="stroke" d="M30.2 46.1a8.7 8.7 0 0 1-12.3 0 8.7 8.7 0 0 1 0-12.3L47.2 4.5a8.7 8.7 0 0 1 12.3 0 8.7 8.7 0 0 1 0 12.3zm-12.3 0L2 62" fill="none" stroke="#2f446a" stroke-linecap="round" stroke-linejoin="round" stroke-width="2"/></svg>