<svg viewBox="0 0 64 64" xmlns="http://www.w3.org/2000/svg" aria-labelledby="title" aria-describedby="desc"><path fill="#202020" d="M60.664 3.339a9.695 9.695 0 0 0-13.711 0L17.679 32.612a9.712 9.712 0 0 0-1.265 12.148L1.088 60.087a2 2 0 1 0 2.828 2.828l15.326-15.327a9.694 9.694 0 0 0 12.148-1.265L60.663 17.05a9.708 9.708 0 0 0 .001-13.711zm-33.6 32.151a5.659 5.659 0 0 1 1.187-5.682 5.477 5.477 0 0 1 5.542-.946c.874.264 1.388.249 1.693-.045s.313-.744.027-1.66a5.479 5.479 0 0 1 .9-5.572c1.295-1.357 3.381-1.783 5.727-1.169 1.034.271 1.46.322 1.774.009s.267-.743 0-1.782c-.63-2.4-.171-4.532 1.261-5.841a5.329 5.329 0 0 1 5.561-.757 1.689 1.689 0 0 0 1.6 0c.318-.275.353-.777.045-1.682a2 2 0 0 1 3.785-1.293 5.488 5.488 0 0 1-1.024 5.826 5.41 5.41 0 0 1-5.756.916c-.78-.281-1.231-.312-1.508-.057-.345.319-.353.883-.092 1.877.828 3.164-.295 4.883-1.038 5.625s-2.455 1.859-5.617 1.03c-.965-.254-1.5-.268-1.817.061-.28.292-.246.765.021 1.616a5.476 5.476 0 0 1-1 5.67 5.515 5.515 0 0 1-5.7 1.058c-.9-.276-1.324-.28-1.607 0-.309.31-.327.831-.1 1.748a5.456 5.456 0 0 1-1.052 5.73 4.819 4.819 0 0 1-3.447 1.337 6.814 6.814 0 0 1-2.308-.423 2 2 0 0 1 1.353-3.764c.707.254 1.335.255 1.6 0 .213-.21.38-.786.045-1.682a1.063 1.063 0 0 1-.054-.147z" data-name="layer1"/></svg>