<svg xmlns="http://www.w3.org/2000/svg" viewBox="0 0 64 64" aria-labelledby="title" aria-describedby="desc"><path data-name="layer1" d="M35 2a25 25 0 0 1-22 36.8 24.9 24.9 0 0 1-10.6-2.3A30 30 0 1 0 35 2z" fill="#e6f0fa"/><path data-name="opacity" d="M32 50.8A29.9 29.9 0 0 1 7.6 38.2a25.2 25.2 0 0 1-5.2-1.8 30 30 0 1 0 59.1-10.1A30 30 0 0 1 32 50.8z" fill="#000064" opacity=".15"/><path data-name="stroke" d="M35 2a25 25 0 0 1-22 36.8 24.9 24.9 0 0 1-10.6-2.3A30 30 0 1 0 35 2z" fill="none" stroke="#2e4369" stroke-linecap="round" stroke-linejoin="round" stroke-width="2"/></svg>