<svg viewBox="0 0 64 64" xmlns="http://www.w3.org/2000/svg" aria-labelledby="title" aria-describedby="desc"><circle fill="#fc6" r="5" cy="13.968" cx="31" data-name="layer1"/><circle fill="#fc6" r="4" cy="22.968" cx="5" data-name="layer1"/><circle fill="#fc6" r="4" cy="22.968" cx="57" data-name="layer1"/><path fill="#fc6" d="M57 26.968a3.992 3.992 0 0 0 3.636-2.351A4 4 0 0 1 57 26.968z" data-name="layer1"/><path opacity=".15" fill="#000064" d="M27.984 11.983a4.944 4.944 0 0 1 .63-2.383 4.984 4.984 0 1 0 6.754 6.754 4.945 4.945 0 0 1-2.384.631 5 5 0 0 1-5-5.002z" data-name="opacity"/><path fill="#fc6" d="M53 22.968a4 4 0 0 0 4 4 4 4 0 0 1-4-4zm2.349-3.634A3.992 3.992 0 0 0 53 22.968a3.994 3.994 0 0 1 2.349-3.634z" data-name="layer1"/><path opacity=".15" fill="#000064" d="M8.635 24.618a3.985 3.985 0 0 1-5.286-5.284 3.994 3.994 0 1 0 5.286 5.284zm46.349-3.635a3.97 3.97 0 0 1 .365-1.65 3.995 3.995 0 1 0 5.285 5.286 3.985 3.985 0 0 1-5.65-3.635z" data-name="opacity"/><path fill="#fc6" d="M60.635 24.618a3.972 3.972 0 0 0 .365-1.65 3.973 3.973 0 0 1-.365 1.65zM57 18.968a3.97 3.97 0 0 0-1.651.365A3.961 3.961 0 0 1 57 18.968zm-.781 7.922L51 53l-40-.028-5.199-26 2.027-1.175L17 34.97l14-16 14 16 9.174-9.176 2.045 1.096z" data-name="layer1"/><path opacity=".15" fill="#000064" d="M31 31V18.97l-14 16-9.172-9.17L5.8 26.972l5.2 26 19 .013V49c-10.5-10.5 1-18 1-18z" data-name="opacity"/><path d="M7.082 52.972h48m1.137-26.082L51 53M7.828 25.797L17 34.97l14-16 14 16 9.174-9.176M11 52.972l-5.199-26" stroke-width="2" stroke-linejoin="round" stroke-linecap="round" stroke="#2e4369" fill="none" data-name="stroke"/><circle stroke-width="2" stroke-linejoin="round" stroke-linecap="round" stroke="#2e4369" fill="none" r="5" cy="13.968" cx="31" data-name="stroke"/><circle stroke-width="2" stroke-linejoin="round" stroke-linecap="round" stroke="#2e4369" fill="none" r="4" cy="22.968" cx="5" data-name="stroke"/><circle stroke-width="2" stroke-linejoin="round" stroke-linecap="round" stroke="#2e4369" fill="none" r="4" cy="22.968" cx="57" data-name="stroke"/></svg>