<svg xmlns="http://www.w3.org/2000/svg" viewBox="0 0 64 64" aria-labelledby="title" aria-describedby="desc"><path data-name="layer2" d="M31.924 25.071a4.372 4.372 0 0 1 1.263-2.7L50.76 4.8m8.289 8.288L41.475 30.662a4.393 4.393 0 0 1-3.595 1.255" fill="none" stroke="#202020" stroke-linecap="round" stroke-miterlimit="10" stroke-width="2" stroke-linejoin="round"/><path data-name="layer2" d="M61.849 14.432a24.65 24.65 0 0 1-7.6-4.835A24.553 24.553 0 0 1 49.418 2m-8.979 13.122l8.288 8.288M8.669 55.18a4.884 4.884 0 0 0-6.757-.143.2.2 0 0 0 0 .288l6.616 6.616a.2.2 0 0 0 .288 0 4.884 4.884 0 0 0-.147-6.761zm1.219 2.029l22.049-19.347m-6.308-5.518L6.698 53.98" fill="none" stroke="#202020" stroke-linecap="round" stroke-miterlimit="10" stroke-width="2" stroke-linejoin="round"/><path data-name="layer1" d="M13.088 4.8l17.574 17.574a4.408 4.408 0 0 1 0 6.216l-2.072 2.072a4.408 4.408 0 0 1-6.216 0L4.8 13.09" fill="none" stroke="#202020" stroke-linecap="round" stroke-miterlimit="10" stroke-width="2" stroke-linejoin="round"/><path data-name="layer1" d="M14.432 2A24.65 24.65 0 0 1 9.6 9.6 24.553 24.553 0 0 1 2 14.432m13.122 8.978l8.288-8.288M55.18 55.18a4.884 4.884 0 0 0-.143 6.757.2.2 0 0 0 .288 0l6.616-6.616a.2.2 0 0 0 0-.288 4.884 4.884 0 0 0-6.761.147zm2.029-1.218L31.932 25.154m-6.774 6.778L53.98 57.151" fill="none" stroke="#202020" stroke-linecap="round" stroke-miterlimit="10" stroke-width="2" stroke-linejoin="round"/></svg>