<svg xmlns="http://www.w3.org/2000/svg" viewBox="0 0 64 64" aria-labelledby="title" aria-describedby="desc"><path data-name="layer1" d="M10.828 6.217l-1.775 9.125a.5.5 0 0 0 .491.6h39.751a.5.5 0 0 1 .49.6l-1.11 5.469a.5.5 0 0 1-.49.4H8.037a.5.5 0 0 0-.491.4l-1.774 9.125a.5.5 0 0 0 .491.6h39.755a.5.5 0 0 1 .491.6l-2.078 10.639a.5.5 0 0 1-.334.379l-16.054 5.29a.5.5 0 0 1-.334-.007l-13.786-5.226a.5.5 0 0 1-.314-.56l.748-3.964a.5.5 0 0 0-.491-.593h-9.02a.5.5 0 0 0-.49.4L2.084 50.679a.5.5 0 0 0 .311.566l23.156 8.878a.5.5 0 0 0 .337.007l26.836-8.945a.5.5 0 0 0 .332-.377l8.825-44.4a.5.5 0 0 0-.49-.6H11.318a.5.5 0 0 0-.49.409z" fill="none" stroke="#202020" stroke-linecap="round" stroke-miterlimit="10" stroke-width="2" stroke-linejoin="round"/></svg>