<svg xmlns="http://www.w3.org/2000/svg" viewBox="0 0 64 64" aria-labelledby="title" aria-describedby="desc"><path data-name="layer1" d="M61.1 22.9a10 10 0 0 0-13.4-.7l-8.1 2.2 2.2-8.1A10 10 0 1 0 34 20a10 10 0 0 0 2.7-.4l-1.6 6-7.4 2-8.4 30.9-1.6 5.4H21c7.7 0 9.3-4.5 9.5-5.4l7.9-29.7 6-1.6a10 10 0 1 0 16.7-4.4zm-31.3-8.7A6 6 0 1 1 34 16a6 6 0 0 1-4.2-1.8zm28.5 20a6 6 0 1 1 0-8.5 6 6 0 0 1 0 8.5z" fill="#202020"/><path data-name="layer1" d="M23.2 28.8L5.4 33.5c-.9.2-5.9 1.9-5.4 10.1V46l19.8-5.3z" fill="#202020"/></svg>