<svg viewBox="0 0 64 64" xmlns="http://www.w3.org/2000/svg" aria-labelledby="title" aria-describedby="desc"><path fill="#92b5e4" d="M39.712 4.337a8 8 0 1 0 0 11.313 8 8 0 0 0 0-11.313zm-2.828 8.485a4 4 0 1 1 0-5.657 4 4 0 0 1 0 5.657zM36.8 27.249l-8.22 30.828s-.727 4.182-8.25 3.917l1.178-3.917 7.749-28.816m30.455-4.923a8 8 0 1 0 0 11.313 8 8 0 0 0 0-11.313zm-2.829 8.484a4 4 0 1 1 0-5.657 4 4 0 0 1 .001 5.657z" data-name="layer1"/><path fill="#92b5e4" d="M29.257 29.261L5.972 35.47s-4.332.878-3.916 8.1l3.916-1.028 21.193-5.677" data-name="layer1"/><path opacity=".2" fill="#000028" d="M26.5 30l-1.339 4.868L3.97 40.54l-1.847.485a14.282 14.282 0 0 0-.068 2.544l3.916-1.028 21.193-5.677 2.092-7.6z" data-name="opacity"/><circle stroke-width="2" stroke-linejoin="round" stroke-linecap="round" stroke="#2e4369" fill="none" transform="rotate(-45 33.972 9.994)" r="8" cy="9.994" cx="33.972" data-name="stroke"/><circle stroke-width="2" stroke-linejoin="round" stroke-linecap="round" stroke="#2e4369" fill="none" transform="rotate(-45.002 33.972 9.994)" r="4" cy="9.994" cx="33.972" data-name="stroke"/><path stroke-width="2" stroke-linejoin="round" stroke-linecap="round" stroke="#2e4369" fill="none" d="M39.809 15.651L28.5 58.077s-.727 4.182-8.25 3.917l1.179-3.917 7.749-28.816" data-name="stroke"/><circle stroke-width="2" stroke-linejoin="round" stroke-linecap="round" stroke="#2e4369" fill="none" transform="rotate(-44.999 53.972 29.994)" r="8" cy="29.994" cx="53.972" data-name="stroke"/><circle stroke-width="2" stroke-linejoin="round" stroke-linecap="round" stroke="#2e4369" fill="none" transform="rotate(-44.995 53.972 29.994)" r="4" cy="29.994" cx="53.972" data-name="stroke"/><path stroke-width="2" stroke-linejoin="round" stroke-linecap="round" stroke="#2e4369" fill="none" d="M48.315 24.157L5.888 35.47s-4.332.878-3.916 8.1l3.916-1.028 21.193-5.677" data-name="stroke"/></svg>