<svg xmlns="http://www.w3.org/2000/svg" viewBox="0 0 64 64" aria-labelledby="title" aria-describedby="desc"><path data-name="layer3" d="M33.7 42.9l24.8-24.8a7.1 7.1 0 0 0-10-10L23.7 32.9" fill="#ed4c49"/><path data-name="opacity" d="M58.5 8.1a7 7 0 0 0-2.7-1.7 7.1 7.1 0 0 1-.3 9.7L31.2 40.4l2.5 2.5 24.8-24.8a7.1 7.1 0 0 0 0-10z" fill="#000028" opacity=".2"/><path data-name="layer2" fill="#cbd8e6" d="M20 41.4L3.4 58h20l7.8-7.8-2.4-2.4"/><path data-name="opacity" fill="#000028" opacity=".2" d="M28.8 47.8L20 41.4l-1.9 1.9 10 10 3.1-3.1-2.4-2.4z"/><path data-name="layer1" fill="#92b5e4" d="M17.6 39l9.9 10.1 6.2-6.2-10-10-6.1 6.1z"/><path data-name="stroke" fill="none" stroke="#2e4369" stroke-linecap="round" stroke-linejoin="round" stroke-width="2" d="M17.6 39l9.9 10.1 6.2-6.2-10-10-6.1 6.1z"/><path data-name="stroke" d="M33.7 42.9l24.8-24.8a7.1 7.1 0 0 0-10-10L23.7 32.9M20 41.4L3.4 58h20l7.8-7.8-2.4-2.4m-3.9-1.4l-5.3 5.4" fill="none" stroke="#2e4369" stroke-linecap="round" stroke-linejoin="round" stroke-width="2"/></svg>