<svg xmlns="http://www.w3.org/2000/svg" viewBox="0 0 64 64" aria-labelledby="title" aria-describedby="desc"><path data-name="layer2" fill="none" stroke="#202020" stroke-linecap="round" stroke-linejoin="round" stroke-width="2" d="M20 18v10m22-4v8m-10 4v10m12 2v6M24 32v6m4 14v4"/><path data-name="layer1" d="M50 8c-3.9 0-8.7-2.2-11.4-4a12 12 0 0 0-13.2 0h-.2A20.8 20.8 0 0 1 14 8a4 4 0 0 0-4 4v46a4 4 0 0 0 4 4h36a4 4 0 0 0 4-4V12a4 4 0 0 0-4-4z" fill="none" stroke="#202020" stroke-linecap="round" stroke-linejoin="round" stroke-width="2"/><path data-name="layer1" d="M37 12a2 2 0 0 1-2 2h-6a2 2 0 0 1-2-2 2 2 0 0 1 2-2h6a2 2 0 0 1 2 2z" fill="none" stroke="#202020" stroke-linecap="round" stroke-linejoin="round" stroke-width="2"/></svg>