<svg xmlns="http://www.w3.org/2000/svg" viewBox="0 0 64 64" aria-labelledby="title" aria-describedby="desc"><path data-name="layer1" d="M5 50h54a3 3 0 0 0 3-3V19a3 3 0 0 0-3-3H47a3 3 0 0 0 0 6h9v22H8V22h19.762l-4.884 4.89a3 3 0 0 0 4.244 4.24l12.12-12.131L27.12 6.886a3 3 0 0 0-4.24 4.245L27.753 16H5a3 3 0 0 0-3 3v28a3 3 0 0 0 3 3z" fill="#bacae9"/><path data-name="stroke" d="M5 50h54a3 3 0 0 0 3-3V19a3 3 0 0 0-3-3H47a3 3 0 0 0 0 6h9v22H8V22h19.762l-4.884 4.89a3 3 0 0 0 4.244 4.24l12.12-12.131L27.12 6.886a3 3 0 0 0-4.24 4.245L27.753 16H5a3 3 0 0 0-3 3v28a3 3 0 0 0 3 3z" fill="none" stroke="#2e4369" stroke-linecap="round" stroke-linejoin="round" stroke-width="2"/></svg>