<svg xmlns="http://www.w3.org/2000/svg" viewBox="0 0 64 64" aria-labelledby="title" aria-describedby="desc"><path data-name="layer2" fill="#202020" d="M47 37.7l13.8-4.6L47 28.5l-13.8 4.6L47 37.7zm2 3.6v18.2l15-5V36.3l-15 5zm-4 0l-15-5v18.2l15 5V41.3zm-32-6.7l9.8-3.3-9.8-3.2-9.8 3.2 9.8 3.3zm-2 3.6L0 34.5V48l11 3.7V38.2zm4 0v13.5L26 48V34.5l-11 3.7z"/><path data-name="layer1" fill="#202020" d="M31 11l9.9-3.3L31 4.5l-9.8 3.2L31 11zm-2 3.6l-11-3.7v13.5l11 3.7V14.6zm4 0v13.5l11-3.7V10.9l-11 3.7z"/></svg>