<svg xmlns="http://www.w3.org/2000/svg" viewBox="0 0 64 64" aria-labelledby="title" aria-describedby="desc"><path data-name="layer2" fill="none" stroke="#202020" stroke-linecap="round" stroke-linejoin="round" stroke-width="2" d="M32 48v13.5M20 62h24m-28 0h-4m-4 0H4m48 0h-4m12 0h-4"/><ellipse data-name="layer1" cx="32" cy="10" rx="22" ry="8" fill="none" stroke="#202020" stroke-linecap="round" stroke-linejoin="round" stroke-width="2"/><path data-name="layer1" d="M54 20c0 4.4-9.8 8-22 8s-22-3.6-22-8m44 10c0 4.4-9.8 8-22 8s-22-3.6-22-8" fill="none" stroke="#202020" stroke-linecap="round" stroke-linejoin="round" stroke-width="2"/><path data-name="layer1" d="M10 10v30c0 4.4 9.8 8 22 8s22-3.6 22-8V10" fill="none" stroke="#202020" stroke-linecap="round" stroke-linejoin="round" stroke-width="2"/></svg>