<svg xmlns="http://www.w3.org/2000/svg" viewBox="0 0 64 64" aria-labelledby="title" aria-describedby="desc"><ellipse data-name="layer1" cx="32" cy="9" rx="22" ry="8" fill="#202020"/><path data-name="layer1" d="M10 25.3V31c0 2.4 10 6 22 6s22-3.6 22-6v-5.7C50.1 29 41 31 32 31s-18.1-2-22-5.7z" fill="#202020"/><path data-name="layer1" d="M10 15.8V21c0 2.4 10 6 22 6s22-3.6 22-6v-5.2C49.1 19.3 40.3 21 32 21s-17.1-1.7-22-5.2zm0 19.5V39c0 4.4 9.8 8 22 8s22-3.6 22-8v-3.7C50.1 39 41 41 32 41s-18.1-2-22-5.7zM30 59H20v4h24v-4H34V47h-4v12zm-18 0h4v4h-4zm-8 0h4v4H4zm44 0h4v4h-4zm8 0h4v4h-4z" fill="#202020"/></svg>