<svg xmlns="http://www.w3.org/2000/svg" viewBox="0 0 64 64" aria-labelledby="title" aria-describedby="desc"><path data-name="layer3" fill="#9cf" d="M45 29.3L28 35v20.4L45 61l17-5.6V35l-17-5.7z"/><path data-name="layer2" fill="#8fa9d8" d="M15 28.9L2 33.2v15.6l13 4.3 13-4.3V33.2l-13-4.3z"/><path data-name="layer1" fill="#b2d9ff" d="M30 3L18 6.9v14.2L30 25l12-3.9V6.9L30 3z"/><path data-name="opacity" fill="#fff" opacity=".25" d="M62 35l-17-5.7L28 35l17 5.6L62 35z"/><path data-name="opacity" fill="#000064" opacity=".15" d="M28 35v20.4L45 61V40.6L28 35z"/><path data-name="opacity" fill="#000064" opacity=".2" d="M2 33.2v15.6l13 4.3V37.5L2 33.2z"/><path data-name="opacity" fill="#000064" opacity=".15" d="M15 37.5v15.6l13-4.3V33.2l-13 4.3z"/><path data-name="opacity" fill="#fff" opacity=".25" d="M42 6.9L30 3 18 6.9l12 4 12-4z"/><path data-name="opacity" fill="#000064" opacity=".15" d="M18 6.9v14.2L30 25V10.9l-12-4z"/><path data-name="stroke" fill="none" stroke="#2e4369" stroke-linecap="round" stroke-miterlimit="10" stroke-width="2" d="M62 35v20.4L45 61l-17-5.6V35l17-5.7L62 35z" stroke-linejoin="round"/><path data-name="stroke" fill="none" stroke="#2e4369" stroke-linecap="round" stroke-miterlimit="10" stroke-width="2" d="M62 35l-17 5.6L28 35m17 5.6V61M28 33.2v15.6l-13 4.3-13-4.3V33.2l13-4.3 13 4.3z" stroke-linejoin="round"/><path data-name="stroke" fill="none" stroke="#2e4369" stroke-linecap="round" stroke-miterlimit="10" stroke-width="2" d="M28 33.2l-13 4.3-13-4.3m13 4.3v15.6M42 6.9v14.2L30 25l-12-3.9V6.9L30 3l12 3.9z" stroke-linejoin="round"/><path data-name="stroke" fill="none" stroke="#2e4369" stroke-linecap="round" stroke-miterlimit="10" stroke-width="2" d="M42 6.9l-12 4-12-4m12 4V25" stroke-linejoin="round"/></svg>