<svg xmlns="http://www.w3.org/2000/svg" viewBox="0 0 64 64" aria-labelledby="title" aria-describedby="desc"><path data-name="layer1" d="M32 28a2 2 0 0 0 2-2v-8a2 2 0 1 0-4 0v8a2 2 0 0 0 2 2z" fill="#202020"/><path data-name="layer2" d="M56 44H8a2 2 0 0 0 0 4h48a2 2 0 0 0 0-4z" fill="#202020"/><path data-name="layer1" d="M44.6 40a14 14 0 0 0-25.3 0zM17 33.8a2 2 0 0 0 2.9-2.8l-5.7-5.7a2 2 0 1 0-2.8 2.8zm28.6.6a2 2 0 0 0 1.4-.6l5.7-5.7a2 2 0 0 0-2.8-2.8L44.1 31a2 2 0 0 0 1.4 3.4z" fill="#202020"/></svg>