<svg xmlns="http://www.w3.org/2000/svg" viewBox="0 0 64 64" aria-labelledby="title" aria-describedby="desc"><path data-name="layer1" d="M32 2a30 30 0 1 0 30 30A30 30 0 0 0 32 2zM22 28.8l-2.6 2.6a2 2 0 1 1-2.8-2.8l2.6-2.6-2.6-2.6a2 2 0 0 1 2.8-2.8l2.6 2.6 2.6-2.6a2 2 0 1 1 2.8 2.8L24.8 26l2.6 2.6a2 2 0 1 1-2.8 2.8zm10 24.4c-3.3 0-6-3.2-6-7.2s2.7-7.2 6-7.2 6 3.2 6 7.2-2.7 7.2-6 7.2zm15.4-24.6a2 2 0 1 1-2.8 2.8L42 28.8l-2.6 2.6a2 2 0 0 1-2.8-2.8l2.6-2.6-2.6-2.6a2 2 0 0 1 2.8-2.8l2.6 2.6 2.6-2.6a2 2 0 1 1 2.8 2.8L44.8 26z" fill="#202020"/></svg>