<svg xmlns="http://www.w3.org/2000/svg" viewBox="0 0 64 64" aria-labelledby="title" aria-describedby="desc"><circle data-name="layer2" cx="47" cy="44" r="15" fill="#f27e7c"/><path data-name="opacity" d="M47 29a15 15 0 0 0-11.6 5.4 15 15 0 0 1 21.2 21.2A15 15 0 0 0 47 29z" fill="#fff" opacity=".25"/><path data-name="layer1" d="M47 29a14.9 14.9 0 0 1 9 3V9H2v36h14v9.9L26.8 45h5.3c0-.3-.1-.7-.1-1a15 15 0 0 1 15-15z" fill="#a6dbff"/><path data-name="opacity" d="M41.4 30.1H40A15 15 0 0 0 25.9 40H2v5h14v9.9L26.8 45h5.3c0-.3-.1-.7-.1-1v-2a15.6 15.6 0 0 1 .4-1.9 15 15 0 0 1 9-10z" fill="#000064" opacity=".14"/><path data-name="stroke" fill="none" stroke="#2e4369" stroke-linecap="round" stroke-miterlimit="10" stroke-width="2" d="M56 32V9H2v36h14v9.9L26.8 45H32m22-1H40" stroke-linejoin="round"/><circle data-name="stroke" cx="47" cy="44" r="15" fill="none" stroke="#2e4369" stroke-linecap="round" stroke-miterlimit="10" stroke-width="2" stroke-linejoin="round"/></svg>