<svg xmlns="http://www.w3.org/2000/svg" viewBox="0 0 64 64" aria-labelledby="title" aria-describedby="desc"><path data-name="layer2" d="M37 27c0 13.7 2.7 14.7 6 18a61.7 61.7 0 0 1-12 2v2c0 1.6.6 3.3 8.6 5.2A9.3 9.3 0 0 1 47 63H3a9.2 9.2 0 0 1 7.4-8.8c8-1.8 8.6-3.6 8.6-5.2v-2a61.4 61.4 0 0 1-12-2c3.3-3.3 6-4.3 6-18 0-6 3.7-12 10-12s14 .4 14 12z" fill="#202020"/><path data-name="layer1" d="M60.4 7.6a2 2 0 0 0-2.8 0L53 12.2l-4.6-4.6a2 2 0 0 0-2.8 2.8l4.6 4.6-4.6 4.6a2 2 0 1 0 2.8 2.8l4.6-4.6 4.6 4.6a2 2 0 1 0 2.8-2.8L55.8 15l4.6-4.6a2 2 0 0 0 0-2.8z" fill="#202020"/></svg>