<svg xmlns="http://www.w3.org/2000/svg" viewBox="0 0 64 64" aria-labelledby="title" aria-describedby="desc"><path data-name="layer2" fill="none" stroke="#202020" stroke-miterlimit="10" stroke-width="2" d="M61 5L49 17m0-12l12 12" stroke-linejoin="round" stroke-linecap="round"/><path data-name="layer1" d="M41.6 50.2C33.5 48.6 33 46.6 33 45v-2a14.1 14.1 0 0 0 4-7c2.5 0 4-3 4-6 0-.8 0-4-2-4 5-14.5-9.6-20-20-13-4.4 0-5.6 6.6-4 13-2 0-2 3.2-2 4 0 3 1.5 6 4 6a14.2 14.2 0 0 0 4 7v2c0 1.6-.5 3.6-8.6 5.2S3 59 3 59h48s0-6.9-9.4-8.8z" fill="none" stroke="#202020" stroke-miterlimit="10" stroke-width="2" stroke-linejoin="round" stroke-linecap="round"/></svg>