<svg xmlns="http://www.w3.org/2000/svg" viewBox="0 0 64 64" aria-labelledby="title" aria-describedby="desc"><path data-name="layer2" d="M46 30a16 16 0 1 0 16 16 16 16 0 0 0-16-16zm8 18H38a2 2 0 0 1 0-4h16a2 2 0 0 1 0 4z" fill="#202020"/><path data-name="layer1" d="M37.3 28H30a2 2 0 0 1 0-4h16a2 2 0 0 1 2 2 19.8 19.8 0 0 1 6 1.6V20H2v12h29.7a20.1 20.1 0 0 1 5.6-4zM11 29a3 3 0 1 1 3-3 3 3 0 0 1-3 3zm15 17a19.9 19.9 0 0 1 2.7-10H2v12a2 2 0 0 0 2 2h22.4a20 20 0 0 1-.4-4zm-15-1a3 3 0 1 1 3-3 3 3 0 0 1-3 3zM54 4a2 2 0 0 0-2-2H4a2 2 0 0 0-2 2v12h52zm-43 9a3 3 0 1 1 3-3 3 3 0 0 1-3 3zm35-1H30a2 2 0 0 1 0-4h16a2 2 0 0 1 0 4z" fill="#202020"/></svg>