<svg xmlns="http://www.w3.org/2000/svg" viewBox="0 0 64 64" aria-labelledby="title" aria-describedby="desc"><path data-name="layer2" d="M22 2A22.2 22.2 0 0 0 0 24.4c0 .7 0 1.5.1 2.2v.3C1.9 44.5 22 58 22 58a65.3 65.3 0 0 0 7-5.8 20 20 0 0 1 14.9-25.8c.1-.7.1-1.3.1-2A22.2 22.2 0 0 0 22 2zm0 32a10 10 0 1 1 10-10 10 10 0 0 1-10 10z" fill="#202020"/><path d="M48 30a16 16 0 1 0 16 16 16 16 0 0 0-16-16zm7.5 20.6a2 2 0 1 1-2.8 2.8l-4.6-4.6-4.6 4.6a2 2 0 0 1-2.8-2.8l4.6-4.6-4.6-4.6a2 2 0 1 1 2.8-2.8l4.6 4.6 4.6-4.6a2 2 0 0 1 2.8 2.8L51 46z" fill="#202020" data-name="layer1"/></svg>