<svg xmlns="http://www.w3.org/2000/svg" viewBox="0 0 64 64" aria-labelledby="title" aria-describedby="desc"><path data-name="layer2" d="M46 30a16 16 0 1 0 16 16 16 16 0 0 0-16-16zm7.4 20.6a2 2 0 1 1-2.8 2.8L46 48.8l-4.6 4.6a2 2 0 0 1-2.8-2.8l4.6-4.6-4.6-4.6a2 2 0 1 1 2.8-2.8l4.6 4.6 4.6-4.6a2 2 0 0 1 2.8 2.8L48.8 46z" fill="#202020"/><path data-name="layer1" d="M26 46a20 20 0 0 1 20-20V2h-8v6a2 2 0 0 1 0 4h-4a2 2 0 0 1 0-4V2h-8v6a2 2 0 0 1 0 4h-4a2 2 0 0 1 0-4V2h-8v6a2 2 0 0 1 0 4h-4a2 2 0 0 1 0-4V2H2v56h28a19.9 19.9 0 0 1-4-12z" fill="#202020"/></svg>