<svg xmlns="http://www.w3.org/2000/svg" viewBox="0 0 64 64" aria-labelledby="title" aria-describedby="desc"><path data-name="layer2" d="M47 29a15 15 0 1 0 15 15 15 15 0 0 0-15-15zm6.4 18.5a2 2 0 0 1-2.8 2.8L47 46.8l-3.5 3.5a2 2 0 0 1-2.8-2.8l3.5-3.5-3.5-3.5a2 2 0 0 1 2.8-2.8l3.5 3.5 3.5-3.5a2 2 0 0 1 2.8 2.8L49.8 44z" fill="#202020"/><path data-name="layer1" d="M47 25a18.9 18.9 0 0 1 9 2.3v-.7C56 14.7 43.9 5 29 5S2 14.7 2 26.6c0 6.1 3.1 11.5 8.2 15.5L4.4 54.2l17.2-6.9a33.3 33.3 0 0 0 6.9.8A19 19 0 0 1 47 25z" fill="#202020"/></svg>