<svg xmlns="http://www.w3.org/2000/svg" viewBox="0 0 64 64" aria-labelledby="title" aria-describedby="desc"><path data-name="layer1" d="M55.8 28.3c.1-.8.1-1.5.1-2.3a24 24 0 0 0-48 0c0 .8 0 1.6.1 2.3v.3C9.9 47.6 31.9 62 31.9 62s21.8-14.6 23.8-33.3z" fill="#ed4c49"/><path data-name="opacity" d="M11 26.6v-.3c-.1-.8-.1-1.5-.1-2.3a24 24 0 0 1 9.2-18.9A24 24 0 0 0 7.9 26c0 .8 0 1.6.1 2.3v.3C9.9 47.6 31.9 62 31.9 62l2.8-2.1C32.9 58.6 12.8 44.7 11 26.6z" fill="#000032" opacity=".2"/><path data-name="stroke" d="M56 28.3c.1-.8.1-1.5.1-2.3a24 24 0 0 0-48 0c0 .8 0 1.6.1 2.3v.3c2 19 23.9 33.4 23.9 33.4S54 47.4 56 28.7zm-30.9-9.4L39 32.7m-14 .2l13.8-13.8" fill="none" stroke="#2e4369" stroke-linecap="round" stroke-linejoin="round" stroke-width="2"/></svg>