<svg xmlns="http://www.w3.org/2000/svg" viewBox="0 0 64 64" aria-labelledby="title" aria-describedby="desc"><path data-name="layer2" d="M11.6 14h38v-4h-28V6h-18v41a3 3 0 0 0 1.1 2.3 4 4 0 0 1 2.9-3.2V18a4 4 0 0 1 4-4z" fill="#202020"/><path data-name="layer2" d="M27.8 42a20 20 0 0 1 27.8-18.4V18h-44v29a3 3 0 0 1-3 3h20.9a19.9 19.9 0 0 1-1.7-8z" fill="#202020"/><path data-name="layer1" d="M47.8 26a16 16 0 1 0 16 16 16 16 0 0 0-16-16zm8 18h-16a2 2 0 0 1 0-4h16a2 2 0 0 1 0 4z" fill="#202020"/></svg>