<svg xmlns="http://www.w3.org/2000/svg" viewBox="0 0 64 64" aria-labelledby="title" aria-describedby="desc"><rect data-name="layer2" x="2" y="2" width="60" height="56" rx="3" ry="3" fill="#8fa9d8"/><path data-name="opacity" fill="#000064" opacity=".15" d="M10 14H6v39h44v-3H10V14z"/><circle data-name="layer1" cx="40" cy="24" r="6" fill="#c3d6f9"/><path data-name="opacity" d="M34 24a6 6 0 0 1 .5-2.5 6 6 0 1 0 7.9 7.9A6 6 0 0 1 34 24z" fill="#000064" opacity=".15"/><rect data-name="stroke" x="2" y="2" width="60" height="56" rx="3" ry="3" fill="none" stroke="#2e4369" stroke-linecap="round" stroke-linejoin="round" stroke-width="2"/><path data-name="stroke" fill="none" stroke="#2e4369" stroke-linecap="round" stroke-linejoin="round" stroke-width="2" d="M10 58v4m44-4v4M10 10h44v40H10z"/><circle data-name="stroke" cx="40" cy="24" r="6" fill="none" stroke="#2e4369" stroke-linecap="round" stroke-linejoin="round" stroke-width="2"/><path data-name="stroke" fill="none" stroke="#2e4369" stroke-linecap="round" stroke-linejoin="round" stroke-width="2" d="M36 36h8m-8 6h8M8 20h4M8 40h4"/></svg>