<svg viewBox="0 0 64 64" xmlns="http://www.w3.org/2000/svg" aria-labelledby="title" aria-describedby="desc"><path stroke-width="2" stroke-miterlimit="10" stroke="#202020" fill="none" d="M17.61 24.008c-3.045.029-2.926 3.782-2.926 4.726S15.394 34 18.439 34c0 4.714 3.832 10.228 7.172 12.267m12.642.003c3.34-2.04 6.516-7.553 6.516-12.271C47.794 33.963 49 29.943 49 29s.014-4.947-3-5M18 42c0 4 10 10 22 20H22l-2-6-8-2z" data-name="layer2" stroke-linejoin="round" stroke-linecap="round"/><path stroke-width="2" stroke-miterlimit="10" stroke="#202020" fill="none" d="M41.941 62l2-6 8-2-6-12c-1.377 3.03-5.6 5.661-13.6 13.661M17.894 23.236C17.894 26 20 30 24 30s6.125-1.9 6.125-6M46 23.236C46 26 43.894 30 39.894 30s-6.125-1.9-6.125-6" data-name="layer2" stroke-linejoin="round" stroke-linecap="round"/><path stroke-width="2" stroke-miterlimit="10" stroke="#202020" fill="none" d="M4 21.234A158.77 158.77 0 0 0 32.308 24 147.7 147.7 0 0 0 60 21.234s-8.98-3.491-13.686-7.089C43.88 8.938 41.112 2 39.948 2S34.355 5.149 32 5.149 24.941 2 23.944 2s-5.869 12.145-6.424 12.587S4 21.234 4 21.234z" data-name="layer1" stroke-linejoin="round" stroke-linecap="round"/><path stroke-width="2" stroke-miterlimit="10" stroke="#202020" fill="none" d="M17.894 14A67.426 67.426 0 0 0 32 16a75.761 75.761 0 0 0 14.318-1.857" data-name="layer1" stroke-linejoin="round" stroke-linecap="round"/><path stroke-width="2" stroke-miterlimit="10" stroke="#202020" fill="none" d="M13.61 51C2 53.174 2 62 2 62h60s0-8.191-11.427-10.794" data-name="layer2" stroke-linejoin="round" stroke-linecap="round"/></svg>