<svg xmlns="http://www.w3.org/2000/svg" viewBox="0 0 64 64" aria-labelledby="title" aria-describedby="desc"><path data-name="layer3" d="M56.911 36.336c-1.231 4.378-4.751 7.559-3.726 10.909a3.942 3.942 0 0 0 2.869 2.646A4.006 4.006 0 0 0 61 46c0-2.915-2.833-5.831-3.911-9.664a.091.091 0 0 0-.178 0z" fill="#f4475d"/><path data-name="layer2" fill="#9cf" d="M2 25h9v23H2z"/><path data-name="opacity" fill="#000064" opacity=".16" d="M2 42h9v6H2z"/><path data-name="layer1" d="M59 25H37c5.979-2.031 8.292-5.833 6.292-7.833-1.647-1.647-4.584-.459-7.292.833-2.552 1.217-7 2-12 2-4.688 0-8 2-13 7v18c1.645 0 4.3 1.046 8 3a15.862 15.862 0 0 0 8 2h11a3 3 0 0 0 2.22-5.013v-.013a3.561 3.561 0 0 0 0-6.948V38H41c2.209 0 4-2 4-5v-2h14a3 3 0 0 0 0-6z" fill="#f4cfc9"/><path data-name="opacity" d="M38 46H27a15.862 15.862 0 0 1-8-2c-3.7-1.954-6.355-3-8-3v4c1.645 0 4.3 1.046 8 3a15.862 15.862 0 0 0 8 2h11a3 3 0 0 0 2.223-5.008A2.983 2.983 0 0 1 38 46z" fill="#000064" opacity=".16"/><path data-name="stroke" d="M11 27c5-5 8.312-7 13-7 5 0 9.448-.783 12-2 2.708-1.292 5.645-2.48 7.292-.833 2 2-.312 5.8-6.292 7.833M11 45c1.645 0 4.3 1.046 8 3a15.861 15.861 0 0 0 8 2h11a3.009 3.009 0 0 0 3-3 2.987 2.987 0 0 0-.78-2.013" fill="none" stroke="#2e4369" stroke-linecap="round" stroke-miterlimit="10" stroke-width="2" stroke-linejoin="round"/><path data-name="stroke" d="M33 25h26a3.009 3.009 0 0 1 3 3 3.009 3.009 0 0 1-3 3H41m-1 7a3.289 3.289 0 0 1 3 3.5 3.289 3.289 0 0 1-3 3.5h-2m7-14v2c0 3-1.791 5-4 5h-2m17.911-1.664c-1.231 4.378-4.751 7.559-3.726 10.909a3.942 3.942 0 0 0 2.869 2.646A4.006 4.006 0 0 0 61 46c0-2.915-2.833-5.831-3.911-9.664a.091.091 0 0 0-.178 0zM2 25h9v23H2z" fill="none" stroke="#2e4369" stroke-linecap="round" stroke-miterlimit="10" stroke-width="2" stroke-linejoin="round"/></svg>