<svg xmlns="http://www.w3.org/2000/svg" viewBox="0 0 64 64" aria-labelledby="title" aria-describedby="desc"><path data-name="layer3" d="M12 6a3 3 0 0 0-3 3v50a3 3 0 0 0 3 3h7V6z" fill="#8fa9d8"/><path data-name="opacity" d="M12 6a3 3 0 0 0-3 3v50a3 3 0 0 0 3 3h3V6z" fill="#000064" opacity=".15"/><path data-name="layer2" fill="#f27e7c" d="M47 26l-6.9-4-7.1 4V2h14v24z"/><path data-name="layer1" fill="#b3d9ff" d="M47 6v20l-6.9-4-7.1 4V6H19v56h36V6h-8z"/><path data-name="opacity" fill="#000064" opacity=".15" d="M36.1 26l6.9 4v-6.3L40.1 22 33 26V6h-4v24l7.1-4z"/><path data-name="stroke" fill="none" stroke="#2e4369" stroke-linecap="round" stroke-miterlimit="10" stroke-width="2" d="M19 6v56M47 6h8v56H12a3 3 0 0 1-3-3V9a3 3 0 0 1 3-3h21" stroke-linejoin="round"/><path data-name="stroke" fill="none" stroke="#2e4369" stroke-linecap="round" stroke-miterlimit="10" stroke-width="2" d="M47 26l-6.9-4-7.1 4V2h14v24z" stroke-linejoin="round"/></svg>