<svg xmlns="http://www.w3.org/2000/svg" viewBox="0 0 64 64" aria-labelledby="title" aria-describedby="desc"><path data-name="layer6" fill="#575f76" d="M9 12h9v6H9z"/><path data-name="layer5" d="M59 18h-2.4L50 10H34l-6.6 8H5a3 3 0 0 0-3 3v30a3 3 0 0 0 3 3h54a3 3 0 0 0 3-3V21a3 3 0 0 0-3-3z" fill="#7b8baf"/><circle data-name="layer4" cx="12" cy="28" r="4" fill="#fbd94e"/><path data-name="layer3" d="M42 20a14 14 0 1 0 14 14 14 14 0 0 0-14-14z" fill="#8fa9d8"/><path data-name="opacity" d="M42 48a14 14 0 0 1-11.7-21.7 14 14 0 1 0 19.4 19.4A13.9 13.9 0 0 1 42 48z" fill="#000064" opacity=".2"/><circle data-name="layer2" cx="42" cy="34" r="6" fill="#78d1f4"/><circle data-name="layer1" cx="43" cy="33" r="2" fill="#fff"/><path data-name="stroke" fill="none" stroke="#2e4369" stroke-linecap="round" stroke-miterlimit="10" stroke-width="2" d="M9 18v-6h9v6" stroke-linejoin="round"/><path data-name="stroke" d="M59 18h-2.4L50 10H34l-6.6 8H5a3 3 0 0 0-3 3v30a3 3 0 0 0 3 3h54a3 3 0 0 0 3-3V21a3 3 0 0 0-3-3z" fill="none" stroke="#2e4369" stroke-linecap="round" stroke-miterlimit="10" stroke-width="2" stroke-linejoin="round"/><circle data-name="stroke" cx="12" cy="28" r="4" fill="none" stroke="#2e4369" stroke-linecap="round" stroke-miterlimit="10" stroke-width="2" stroke-linejoin="round"/><circle data-name="stroke" cx="42" cy="34" r="14" fill="none" stroke="#2e4369" stroke-linecap="round" stroke-miterlimit="10" stroke-width="2" stroke-linejoin="round"/><circle data-name="stroke" cx="42" cy="34" r="6" fill="none" stroke="#2e4369" stroke-linecap="round" stroke-miterlimit="10" stroke-width="2" stroke-linejoin="round"/></svg>