<svg viewBox="0 0 64 64" xmlns="http://www.w3.org/2000/svg" aria-labelledby="title" aria-describedby="desc"><path fill="#202020" d="M57.806 28.37c-.027-.031-.049-.066-.079-.1s-.065-.052-.1-.079A18.077 18.077 0 0 0 53 24.9V19H1v30h27.9a17.985 17.985 0 1 0 28.906-20.63zM31 41a13.973 13.973 0 0 1 22.369-11.2L33.8 49.368A13.9 13.9 0 0 1 31 41zm14 14a13.91 13.91 0 0 1-8.369-2.8L56.2 32.632A13.973 13.973 0 0 1 45 55z" data-name="layer2"/><path fill="#202020" d="M1 5v10h52V5zm6 7a2 2 0 1 1 2-2 2 2 0 0 1-2 2zm6 0a2 2 0 1 1 2-2 2 2 0 0 1-2 2zm6 0a2 2 0 1 1 2-2 2 2 0 0 1-2 2z" data-name="layer1"/></svg>