<svg xmlns="http://www.w3.org/2000/svg" viewBox="0 0 64 64" aria-labelledby="title" aria-describedby="desc"><path data-name="layer1" d="M58.4 35.7h-.1a16 16 0 0 0-25 3.3c-3.9-1.5-4.3-2.8-4.3-4v-2a61.7 61.7 0 0 0 12-2c-3.3-3.3-6-4.3-6-18C35 1.3 27.8.2 21 1.4S11 7 11 13c0 13.7-2.7 14.7-6 18a61.4 61.4 0 0 0 12 2v2c0 1.6-.5 3.5-8.6 5.2A9.2 9.2 0 0 0 1 49h30.1a16 16 0 1 0 27.3-13.3zM35 47a12 12 0 0 1 18.9-9.8L37.2 53.9A11.9 11.9 0 0 1 35 47zm12 12a11.9 11.9 0 0 1-6.9-2.2L56.8 40A12 12 0 0 1 47 59z" fill="#202020"/></svg>