<svg xmlns="http://www.w3.org/2000/svg" viewBox="0 0 64 64" aria-labelledby="title" aria-describedby="desc"><path data-name="layer1" d="M53.7 32.3A18.2 18.2 0 0 0 51 30v-3.8a13.4 13.4 0 0 1-3.2 2.2A17.9 17.9 0 0 0 28.6 32H28c-9.4 0-19-2-23-5.8V34c0 1.8 7.5 5.1 18.8 5.8a17.8 17.8 0 0 0-.7 4c-7.7-.6-14.8-2.5-18.1-5.6V45c0 4 8.6 7.4 19.9 7.9a18 18 0 1 0 28.8-20.6zM29.5 53a13.9 13.9 0 0 1-2.5-8c0-.4 0-.7.1-1.1a14 14 0 0 1 22.3-10.1l-3.5 3.5-5.4 5.4L30.2 53zM41 59a13.9 13.9 0 0 1-8.4-2.8l3.2-3.2 13.7-13.7 2.7-2.7A14 14 0 0 1 41 59z" fill="#202020"/><ellipse data-name="layer1" cx="28" cy="9" rx="23" ry="8" fill="#202020"/><path data-name="layer1" d="M28 28c13.6 0 23-3.9 23-6v-6.2C46 19.3 37 21 28 21s-18-1.7-23-5.2V22c0 2 9.4 6 23 6z" fill="#202020"/></svg>