<svg viewBox="0 0 64 64" xmlns="http://www.w3.org/2000/svg" aria-labelledby="title" aria-describedby="desc"><path fill="#202020" d="M50.144 39.023c-.787-.539-5.514-3.608-6.242-4.084a2.9 2.9 0 0 0-3.916.768c-.939 1.16-2.576 2.744-5.15 1.779l-4.5 4.332C34.676 45.149 40.027 48 43.863 48a8.6 8.6 0 0 0 8.105-6.023c.245-1.685-1.034-2.415-1.824-2.954z" data-name="layer1"/><path fill="#202020" d="M32 0a32 32 0 1 0 32 32A32 32 0 0 0 32 0zM4 32a27.977 27.977 0 0 1 46.32-21.148L28.875 32.3a17.383 17.383 0 0 1-1.758-2.3c-2.223-3.6-.174-4.893 1.178-5.986a2.9 2.9 0 0 0 .768-3.919c-.477-.726-3.547-5.452-4.084-6.241s-1.269-2.067-2.955-1.824A8.6 8.6 0 0 0 16 20.138c0 4.949 3.588 10.929 8.666 16.367L10.852 50.319A27.877 27.877 0 0 1 4 32zm28 28a27.869 27.869 0 0 1-18.32-6.852l39.468-39.467A27.977 27.977 0 0 1 32 60z"/></svg>