<svg xmlns="http://www.w3.org/2000/svg" viewBox="0 0 64 64" aria-labelledby="title" aria-describedby="desc"><path data-name="layer1" d="M42.8 21.4a2 2 0 0 0-2.8-2.8l-6.7 6.7L15.1 7.2a26.3 26.3 0 0 0 37.1 37.1L36 28.1z" fill="#202020"/><path data-name="layer2" d="M47.4 20a2 2 0 1 0 4 0 10 10 0 0 0-10-10 2 2 0 0 0 0 4 6 6 0 0 1 6 6z" fill="#202020"/><path data-name="layer2" d="M41.4 2a2 2 0 0 0 0 4 14 14 0 0 1 14 14 2 2 0 1 0 4 0 18 18 0 0 0-18-18z" fill="#202020"/><path data-name="layer1" d="M12.4 47.3L4.6 62h27.9l-3.1-6.3a30 30 0 0 1-17-8.4z" fill="#202020"/></svg>