<svg viewBox="0 0 64 64" xmlns="http://www.w3.org/2000/svg" aria-labelledby="title" aria-describedby="desc"><path fill="#8ca0c8" d="M52.582 44.334A26.263 26.263 0 0 1 15.441 7.192z" data-name="layer1"/><path fill="#8ca0c8" d="M14.695 43.547h-.005L5 62h27.869l-5.4-10.8v-.005a26.136 26.136 0 0 1-12.027-6.863c-.257-.257-.503-.52-.747-.785z" data-name="layer1"/><path opacity=".14" fill="#000064" d="M52.582 44.333l-7.109-7.109a26.264 26.264 0 0 1-35.032-1.893 26.344 26.344 0 0 1-1.444-1.577 26.143 26.143 0 0 0 6.444 10.577c-.257-.257-.5-.521-.747-.785h-.005L5 62h27.869l-5.4-10.8v-.005a26.243 26.243 0 0 0 25.113-6.862zM25.768 50.7l.137.044zm-9.131-5.247l.35.3c-.117-.103-.234-.202-.35-.304zm1.313 1.084c.108.084.215.169.325.251a18.076 18.076 0 0 0-.325-.255zm3.037 2.034c.088.05.178.1.267.148-.09-.053-.179-.102-.267-.152zm1.539.812l.165.082z" data-name="opacity"/><path stroke-width="2" stroke-miterlimit="10" stroke-linecap="round" stroke="#2e4369" fill="none" d="M52.582 44.334A26.263 26.263 0 0 1 15.441 7.192z" data-name="stroke" stroke-linejoin="round"/><path d="M27.514 51.29L32.869 62H5l9.689-18.451m20.295-16.814l8.735-8.734m0-8.001a8 8 0 0 1 8 8m-8-16a16 16 0 0 1 16 16" stroke-width="2" stroke-miterlimit="10" stroke-linecap="round" stroke="#2e4369" fill="none" data-name="stroke" stroke-linejoin="round"/></svg>