<svg xmlns="http://www.w3.org/2000/svg" viewBox="0 0 64 64" aria-labelledby="title" aria-describedby="desc"><path data-name="layer2" fill="#fff" d="M27.696 31.938L8 51.634V12.241l19.696 19.697zM12.243 8h39.391L31.939 27.695 12.243 8zm19.696 28.18L51.758 56h-39.64l19.821-19.82zm4.242-4.242L56 12.119v39.639l-19.819-19.82z"/><path fill="#000028" d="M23.696 35.938l4-4L8 12.241v8l15.696 15.697zM47.634 12l4-4H12.243l4 4h31.391zM27.939 40.18L43.758 56h8L31.939 36.18l-4 4zM52 16.119v31.639l4 4V12.119l-4 4z" opacity=".15"/><path data-name="layer1" d="M2 2v60h60V2zm25.696 29.938L8 51.633V12.24zM12.243 8h39.39L31.939 27.695zM31.94 36.18L51.758 56h-39.64zm4.242-4.243L56 12.12v39.639z" fill="#f66"/><path data-name="stroke" d="M2 2v60h60V2zm25.696 29.938L8 51.633V12.24zM12.243 8h39.39L31.939 27.695zM31.94 36.18L51.758 56h-39.64zm4.242-4.243L56 12.12v39.639z" fill="none" stroke="#2e4369" stroke-linecap="round" stroke-linejoin="round" stroke-width="2"/></svg>