<svg xmlns="http://www.w3.org/2000/svg" viewBox="0 0 64 64" aria-labelledby="title" aria-describedby="desc"><path data-name="layer2" fill="#7b8baf" d="M2 2h60v60H2z"/><path data-name="layer1" fill="#aadbff" d="M12 17h8v6h-8zm16 10h8v6h-8zm16 20h8v6h-8z"/><path data-name="opacity" fill="#000064" opacity=".2" d="M12 20H9v6h8v-3h-5v-3zm16 10h-3v6h8v-3h-5v-3zm16 20h-3v6h8v-3h-5v-3z"/><path data-name="stroke" fill="none" stroke="#2e4369" stroke-linecap="round" stroke-miterlimit="10" stroke-width="2" d="M16 23v27m0-36v3m16 16v17m0-36v13m16-13v33M2 2h60v60H2z" stroke-linejoin="round"/><path data-name="stroke" fill="none" stroke="#2e4369" stroke-linecap="round" stroke-miterlimit="10" stroke-width="2" d="M12 17h8v6h-8zm16 10h8v6h-8zm16 20h8v6h-8z" stroke-linejoin="round"/></svg>