<svg xmlns="http://www.w3.org/2000/svg" viewBox="0 0 64 64" aria-labelledby="title" aria-describedby="desc"><path data-name="layer2" fill="none" stroke="#202020" stroke-linecap="round" stroke-miterlimit="10" stroke-width="2" d="M48.1 48h6l8-38M16 48h25.1m-39-38l8 38m2-28.4A7.5 7.5 0 0 1 3.6 17m38.5-2a7.5 7.5 0 0 0-4.2 2.3 7.5 7.5 0 0 1-11.5.1 7.5 7.5 0 0 0-9.9-1" stroke-linejoin="round"/><path data-name="layer2" d="M60.7 17a7.5 7.5 0 0 1-6 3 7.4 7.4 0 0 1-5.8-2.7l-1.2-1" fill="none" stroke="#202020" stroke-linecap="round" stroke-miterlimit="10" stroke-width="2" stroke-linejoin="round"/><path data-name="layer1" fill="none" stroke="#202020" stroke-linecap="round" stroke-miterlimit="10" stroke-width="2" d="M2.1 2l60 60M62 2L2 62" stroke-linejoin="round"/></svg>