<svg xmlns="http://www.w3.org/2000/svg" viewBox="0 0 64 64" aria-labelledby="title" aria-describedby="desc"><path data-name="layer3" d="M49.6 47c-6.5-1.2-9-2.8-10-4.3L32.2 48l-8.7-5.6c-.9 1.6-3.2 3.3-9.9 4.6C2 49.2 2 58 2 58v4h60v-4s0-8.7-12.4-11z" fill="#dfeef8"/><path data-name="layer2" d="M46 20v-3.3l-.4.4s-.5-7-8-7-8 7.8-19.6 8v2c-3 0-3.1 3.8-3.1 4.7s.6 5.3 3.7 5.3a18 18 0 0 0 5.5 9.1H24v.8a4.8 4.8 0 0 1-.5 2.4l8.7 5.6 7.5-5.3A4.5 4.5 0 0 1 39 40v-.7a18 18 0 0 0 5.8-9.3c3 0 3.9-4.3 3.9-5.3S49 20.1 46 20z" fill="#e8d4d4"/><path data-name="layer1" d="M45.6 17l.4-.4v-.3C46 6 38.6 2 32 2S18 6 18 16.4V18c11.6-.2 11.7-8 19.6-8s8 7 8 7z" fill="#64738f"/><path data-name="opacity" d="M22 50a68.2 68.2 0 0 1 7-5c4 1 5-2 6-5-17 2-12-23-12-27s3-11 9-11c-6.6 0-14 4-14 14.4V20c-3 0-3.1 3.8-3.1 4.7s.6 5.3 3.7 5.3a18 18 0 0 0 5.5 9.1H24v.9a4.8 4.8 0 0 1-.5 2.4c-.9 1.6-3.2 3.3-9.9 4.6C2 49.2 2 58 2 58v4h7c0-10 13-12 13-12z" fill="#000064" opacity=".15"/><path data-name="stroke" d="M31.6 2c-6.6 0-14 4-14 14.4V20c-3 0-2.9 3.8-2.9 4.7s.7 5.3 3.8 5.3a17.2 17.2 0 0 0 7.2 10.3m11.9 0A17.2 17.2 0 0 0 44.8 30c3 0 3.7-4.3 3.7-5.3s.1-4.7-2.9-4.7v-3.6C45.6 6 38.2 2 31.6 2" fill="none" stroke="#2e4369" stroke-linecap="round" stroke-linejoin="round" stroke-width="2"/><path data-name="stroke" d="M24 39.1v.9c0 2 0 5-10.4 7S2 58 2 58v4h60v-4s0-8.7-12.4-11C39 45 39 42 39 40v-.7M17.6 18c12 0 12-8 20-8s8 7 8 7" fill="none" stroke="#2e4369" stroke-linecap="round" stroke-linejoin="round" stroke-width="2"/><path data-name="stroke" fill="none" stroke="#2e4369" stroke-linecap="round" stroke-linejoin="round" stroke-width="2" d="M23.5 42.5L32 48l7.6-5.4M32 48v14M22 50v8m4-4h-8"/><circle data-name="stroke" cx="40" cy="51" r="1" fill="none" stroke="#2e4369" stroke-linecap="round" stroke-linejoin="round" stroke-width="2"/></svg>