<svg xmlns="http://www.w3.org/2000/svg" viewBox="0 0 64 64" aria-labelledby="title" aria-describedby="desc"><path data-name="layer2" d="M62 24c-3-8 0-16 0-16H10a8 8 0 0 0 0 16 8 8 0 0 0 0 16 8 8 0 0 0 0 16h52c-3-8 0-16 0-16-3-8 0-16 0-16z" fill="#eaf7ff"/><path data-name="opacity" d="M10 13h50.9A24.2 24.2 0 0 1 62 8H10a8 8 0 0 0-7.6 10.5A8 8 0 0 1 10 13zm0 11a8 8 0 0 0-7.6 10.5A8 8 0 0 1 10 29h50.9c.1-.9.3-1.7.4-2.4a21.8 21.8 0 0 1-.5-2.6z" fill="#000064" opacity=".15"/><path data-name="opacity" d="M26 40v-8H12v8h-2a8 8 0 0 0-7.6 10.5A8 8 0 0 1 10 45h2v9l7-7.3 7 7.3v-9h34.9c.1-.9.3-1.7.4-2.4a21.8 21.8 0 0 1-.5-2.6z" fill="#000064" opacity=".15"/><path data-name="layer1" fill="#f27e7c" d="M28 50l-7-6-7 6V32h14v18z"/><path data-name="stroke" d="M62 24H10a8 8 0 0 1-8-8 8 8 0 0 1 8-8h52M14 40h-4a8 8 0 0 1-8-8 8 8 0 0 1 8-8m52 16H28m34 16H10a8 8 0 0 1-8-8 8 8 0 0 1 8-8" fill="none" stroke="#2e4369" stroke-linecap="round" stroke-miterlimit="10" stroke-width="2" stroke-linejoin="round"/><path data-name="stroke" fill="none" stroke="#2e4369" stroke-linecap="round" stroke-miterlimit="10" stroke-width="2" d="M28 50l-7-6-7 6V32h14v18zm0-18h4" stroke-linejoin="round"/></svg>