<svg xmlns="http://www.w3.org/2000/svg" viewBox="0 0 64 64" aria-labelledby="title" aria-describedby="desc"><path data-name="layer1" d="M46 38v3a3 3 0 0 1-3 3H21a3 3 0 0 1-3-3v-3H2v20h60V38z" fill="#202020"/><path data-name="layer2" d="M58 30H6a2 2 0 0 0 0 4h52a2 2 0 0 0 0-4z" fill="#202020"/><path data-name="layer1" d="M58 22H6a2 2 0 0 0 0 4h52a2 2 0 0 0 0-4z" fill="#202020"/><path data-name="layer2" d="M58 14H6a2 2 0 0 0 0 4h52a2 2 0 0 0 0-4z" fill="#202020"/><path data-name="layer1" d="M6 10h52a2 2 0 0 0 0-4H6a2 2 0 0 0 0 4z" fill="#202020"/></svg>