<svg xmlns="http://www.w3.org/2000/svg" viewBox="0 0 64 64" aria-labelledby="title" aria-describedby="desc"><path data-name="layer2" d="M18 42v3a3 3 0 0 0 3 3h22a3 3 0 0 0 3-3v-3h16v20H2V42z" fill="#9cf"/><path data-name="layer1" d="M43 48a3 3 0 0 0 3-3v-3h12V2H24v46zm-25-3a3 3 0 0 0 3 3h3V14H6v28h12z" fill="#dbf1ff"/><path data-name="opacity" d="M18 45a3 3 0 0 0 3 3h3V14H6v28h12z" fill="#000064" opacity=".15"/><path data-name="opacity" fill="#000064" opacity=".15" d="M2 42h7v20H2z"/><path data-name="opacity" fill="#fff" opacity=".25" d="M56 42h6v20h-6z"/><path data-name="stroke" fill="none" stroke="#2e4369" stroke-linecap="round" stroke-miterlimit="10" stroke-width="2" d="M24 14H6v28m52 0V2H24v46m26-38H38m12 8H32m18 8H32m18 8h-8" stroke-linejoin="round"/><path data-name="stroke" d="M18 42v3a3 3 0 0 0 3 3h22a3 3 0 0 0 3-3v-3h16v20H2V42z" fill="none" stroke="#2e4369" stroke-linecap="round" stroke-miterlimit="10" stroke-width="2" stroke-linejoin="round"/></svg>