<svg xmlns="http://www.w3.org/2000/svg" viewBox="0 0 64 64" aria-labelledby="title" aria-describedby="desc"><path data-name="layer1" d="M6 45v-2a26 26 0 0 1 52 0v2" fill="#c4d3e0"/><path data-name="opacity" d="M32 17h-2.5C42.2 18.4 49 29.5 49 43v2h6v-2c0-14.4-8.6-26-23-26z" fill="#fff" opacity=".5"/><path data-name="opacity" d="M13 41a26 26 0 0 1 15.4-23.7A26 26 0 0 0 6 43v2h7z" fill="#101129" opacity=".25"/><path data-name="layer1" d="M60 45l-2 5a4.2 4.2 0 0 1-4 3H10c-1.7 0-3.2-1.3-4-3l-2-5" fill="#c4d3e0"/><path data-name="opacity" d="M10 52l-2-5h51.2l.8-2H4l2 5c.8 1.7 2.3 3 4 3h.6z" fill="#101129" opacity=".25"/><path data-name="layer1" d="M28.6 17.1a4 4 0 1 1 6.7.1" fill="#c4d3e0"/><path data-name="stroke" d="M6 45v-2a26 26 0 0 1 52 0v2M2 45h60m-2 0l-2 5a4.2 4.2 0 0 1-4 3H10c-1.7 0-3.2-1.3-4-3l-2-5m24.6-27.9a4 4 0 1 1 6.7.1" fill="none" stroke="#2f446a" stroke-linecap="round" stroke-linejoin="round" stroke-width="2"/></svg>