<svg xmlns="http://www.w3.org/2000/svg" viewBox="0 0 64 64" aria-labelledby="title" aria-describedby="desc"><path data-name="layer2" d="M10 14h38v-4H20V6H2v41a3 3 0 0 0 1.1 2.3A4 4 0 0 1 6 46.1V18a4 4 0 0 1 4-4z" fill="#202020"/><path data-name="layer2" d="M26 42a20 20 0 0 1 28-18.3V18H10v29a3 3 0 0 1-3 3h20.7a19.9 19.9 0 0 1-1.7-8z" fill="#202020"/><path data-name="layer1" d="M46 26a16 16 0 1 0 16 16 16 16 0 0 0-16-16zm7.4 19.4L46 52.8l-7.4-7.4a2 2 0 0 1 2.8-2.8l2.6 2.6V34a2 2 0 1 1 4 0v11.2l2.6-2.6a2 2 0 0 1 2.8 2.8z" fill="#202020"/></svg>