<svg xmlns="http://www.w3.org/2000/svg" viewBox="0 0 64 64" aria-labelledby="title" aria-describedby="desc"><path data-name="layer1" fill="#bacae9" d="M29 29H14.406l3.103-2.758-3.986-4.484L2 32l11.523 10.242 3.986-4.484L14.405 35 29 34.998m6-.001l14.597-.002-3.107 2.764 3.989 4.482L62 31.992 50.477 21.757l-3.985 4.486L49.596 29H35M29 6h6v52h-6z"/><path data-name="stroke" fill="none" stroke="#2e4369" stroke-linecap="round" stroke-linejoin="round" stroke-width="2" d="M29 29H14.406l3.103-2.758-3.986-4.484L2 32l11.523 10.242 3.986-4.484L14.405 35 29 34.998m6-.001l14.597-.002-3.107 2.764 3.989 4.482L62 31.992 50.477 21.757l-3.985 4.486L49.596 29H35M29 6h6v52h-6z"/></svg>