<svg xmlns="http://www.w3.org/2000/svg" viewBox="0 0 64 64" aria-labelledby="title" aria-describedby="desc"><path data-name="layer2" d="M49 12h-.5a17 17 0 0 0-32.3 4.4A11 11 0 1 0 13 38h36a13 13 0 0 0 0-26z" fill="#202020"/><path data-name="layer1" d="M47 42a2 2 0 0 0-2 2v10a2 2 0 1 0 4 0V44a2 2 0 0 0-2-2zm-10 0a2 2 0 0 0-2 2v4a2 2 0 1 0 4 0v-4a2 2 0 0 0-2-2zm-10 0a2 2 0 0 0-2 2v10a2 2 0 1 0 4 0V44a2 2 0 0 0-2-2zM17 52a2 2 0 0 0 2-2v-6a2 2 0 1 0-4 0v6a2 2 0 0 0 2 2zm-1.4 2.6a2 2 0 1 0 2.8 0 2.1 2.1 0 0 0-2.8 0zm10 4a2 2 0 0 0 0 2.8 2 2 0 0 0 1.4.6 2 2 0 0 0 1.4-.6 2 2 0 0 0 0-2.8 2.1 2.1 0 0 0-2.8 0zm10-6a2 2 0 0 0 0 2.8 2.1 2.1 0 0 0 1.4.6 2 2 0 0 0 2-2 2 2 0 0 0-.6-1.4 2.1 2.1 0 0 0-2.8 0zM47 58a2 2 0 0 0-2 2 2 2 0 1 0 2-2z" fill="#202020"/></svg>