<svg xmlns="http://www.w3.org/2000/svg" viewBox="0 0 64 64" aria-labelledby="title" aria-describedby="desc"><path data-name="layer1" fill="#ee583f" d="M54 61V29L42 61h12z"/><path data-name="layer2" fill="#fce349" d="M42 61l12-32H32l10 32z"/><path data-name="opacity" fill="#fff" opacity=".2" d="M32 29l10 32h12V29H32z"/><path data-name="layer1" fill="#ee583f" d="M10 29v32h12L10.1 29H10z"/><path data-name="layer2" fill="#fce349" d="M10.1 29L22 61l10-32H10.1z"/><path data-name="layer1" fill="#ee583f" d="M22 61h20L32 29 22 61z"/><path data-name="opacity" fill="#000064" opacity=".2" d="M10 29h44v4H10z"/><path data-name="stroke" fill="none" stroke="#2e4369" stroke-linecap="round" stroke-miterlimit="10" stroke-width="2" d="M2 5l24 16M62 5L38 21M8 61h48M8 29h48" stroke-linejoin="round"/><path data-name="stroke" fill="none" stroke="#2e4369" stroke-linecap="round" stroke-linejoin="round" stroke-width="2" d="M10 61V29l12 32 10-32 10 32 12-32v32"/></svg>