<svg xmlns="http://www.w3.org/2000/svg" viewBox="0 0 64 64" aria-labelledby="title" aria-describedby="desc"><path data-name="layer1" d="M46 11.9c-3.3-2-6.4-2.8-9.5-4.9-1.9-1.3-4.6-4.4-6.8-7-.4 4.3-1.7 6-3.2 7.2-3.2 2.5-5.1 3.2-7.9 4.7-2.3 1.2-14.7 8.6-14.7 24.5S17.3 64 32.2 64 60 53.2 60 36.9a28.631 28.631 0 0 0-14-25zm.2 45.9a13.606 13.606 0 0 1-6.5 2.6c-3.3.3-7.9.5-10.6-2a.934.934 0 0 1 0-1.3 1.222 1.222 0 0 1 .9-.4c.4 0 .3 0 .5.1 1.2 1 3.1 1.8 7 1.8a14.442 14.442 0 0 0 8-2c.6-.4.8-.1.9.2a.71.71 0 0 1-.2 1zm-10.7-5.2a10.611 10.611 0 0 1 2.9-2 6.127 6.127 0 0 1 2.6-.4 5.246 5.246 0 0 1 2.8.6 4.843 4.843 0 0 1 1.4 2.2.8.8 0 0 1-.5 1.2c-.4.2-.5.1-.9-.7s-.8-1.6-3-1.6a4.91 4.91 0 0 0-3.9 1.6c-1.1.9-1.4 1.2-1.8.7s-.3-1 .4-1.6zm22.3-11.8a14.756 14.756 0 0 1-2.1 7.5c-1.5 2.2-2.4 3-4.1 2.8-2.2-.2-6.7-7.1-9.5-7.2-3.6-.1-11.4 7.5-17.5 7.5-3.7 0-4.8-.6-6.1-1.4a6.452 6.452 0 0 1-2.7-6c.1-4.8 4.6-9.3 10.3-9.4 7.2-.1 12.3 7.1 15.9 7.1 3.1-.1 9-6.1 11.9-6.1 3.1.1 3.9 3.3 3.9 5.2z" fill="#28a9e0"/></svg>