<svg xmlns="http://www.w3.org/2000/svg" viewBox="0 0 64 64" aria-labelledby="title" aria-describedby="desc"><path data-name="layer1" fill="none" stroke="#202020" stroke-miterlimit="10" stroke-width="2" d="M10 32v-6h8v6" stroke-linejoin="round" stroke-linecap="round"/><path data-name="layer1" d="M57 32h-4.4L48 26H32l-4.6 6H7a3 3 0 0 0-3 3v24a3 3 0 0 0 3 3h50a3 3 0 0 0 3-3V35a3 3 0 0 0-3-3z" fill="none" stroke="#202020" stroke-miterlimit="10" stroke-width="2" stroke-linejoin="round" stroke-linecap="round"/><circle data-name="layer2" cx="16" cy="44" r="4" fill="none" stroke="#202020" stroke-miterlimit="10" stroke-width="2" stroke-linejoin="round" stroke-linecap="round"/><circle data-name="layer2" cx="40" cy="45" r="11" fill="none" stroke="#202020" stroke-miterlimit="10" stroke-width="2" stroke-linejoin="round" stroke-linecap="round"/><circle data-name="layer2" cx="40" cy="45" r="6" fill="none" stroke="#202020" stroke-miterlimit="10" stroke-width="2" stroke-linejoin="round" stroke-linecap="round"/><path data-name="layer1" fill="none" stroke="#202020" stroke-miterlimit="10" stroke-width="2" d="M26 2h28v16H26zm4 16l2 8m18-8l-2 8M34 10h12" stroke-linejoin="round" stroke-linecap="round"/></svg>