<svg xmlns="http://www.w3.org/2000/svg" viewBox="0 0 64 64" aria-labelledby="title" aria-describedby="desc"><path data-name="layer1" fill="#7b8baf" d="M40 40h22V30H40v10z"/><path data-name="layer4" fill="#c3d6e0" d="M40 20v10h16.2l-5-10H40z"/><path data-name="layer3" fill="#fc0" d="M40 15.9h6V12H34l-6 10H6L2 36.9 4.3 40H40V15.9z"/><path data-name="layer2" d="M60.9 40H4.3l4.4 6h5.4a5 5 0 0 1 9.8 0h22.2a5 5 0 0 1 9.8 0h5z" fill="#a3b8df"/><circle data-name="layer1" cx="19" cy="47" r="5" fill="#7b8baf"/><circle data-name="layer1" cx="51" cy="47" r="5" fill="#7b8baf"/><path data-name="opacity" fill="#fff" opacity=".5" d="M48 20l-8 8v2h7l6.1-6.1-1.9-3.9H48z"/><path data-name="opacity" fill="#fff" opacity=".2" d="M57 30h5v10h-5z"/><path data-name="opacity" fill="#000064" opacity=".15" d="M2 36.9L4.3 40h5l-1.1-4L12 22H6L2 36.9zM55.9 46h5v-3H54a5 5 0 0 1 1.9 3zM9.3 40h-5l4.4 6h5.4a5 5 0 0 1 1.9-3h-5.9zm14.6 6h22.2a5 5 0 0 1 1.9-3H22a5 5 0 0 1 1.9 3z"/><circle data-name="opacity" cx="19" cy="47" r="2" fill="#000064" opacity=".2"/><circle data-name="opacity" cx="51" cy="47" r="2" fill="#000064" opacity=".2"/><path data-name="stroke" fill="none" stroke="#2e4369" stroke-linecap="round" stroke-linejoin="round" stroke-width="2" d="M55.9 46h5M24 46h22.1M46 12H34l-6 10H6L2 36.9 8.7 46H14"/><path data-name="stroke" fill="none" stroke="#2e4369" stroke-linecap="round" stroke-linejoin="round" stroke-width="2" d="M4.3 40H62V30h-5.8l-5-10H40v20m16.2-10H40"/><circle data-name="stroke" cx="19" cy="47" r="5" fill="none" stroke="#2e4369" stroke-linecap="round" stroke-linejoin="round" stroke-width="2"/><circle data-name="stroke" cx="51" cy="47" r="5" fill="none" stroke="#2e4369" stroke-linecap="round" stroke-linejoin="round" stroke-width="2"/></svg>