<svg xmlns="http://www.w3.org/2000/svg" viewBox="0 0 64 64" aria-labelledby="title" aria-describedby="desc"><rect data-name="layer2" x="8" y="2" width="48" height="60" rx="2" ry="2" fill="#536897"/><path data-name="opacity" d="M12 60V4a2 2 0 0 1 2-2h-4a2 2 0 0 0-2 2v56a2 2 0 0 0 2 2h4a2 2 0 0 1-2-2z" fill="#000064" opacity=".14"/><path data-name="layer1" fill="#c8cfde" d="M14 10h36v36H14z"/><rect data-name="stroke" x="8" y="2" width="48" height="60" rx="2" ry="2" fill="none" stroke="#2e4369" stroke-linecap="round" stroke-linejoin="round" stroke-width="2"/><path data-name="stroke" fill="none" stroke="#2e4369" stroke-linecap="round" stroke-linejoin="round" stroke-width="2" d="M14 10h36v36H14zm4 44h2m26 0h-2M22 20h20m-20 8h20m-20 8h14m-8 18h8"/></svg>