<svg viewBox="0 0 64 64" xmlns="http://www.w3.org/2000/svg" aria-labelledby="title" aria-describedby="desc"><path fill="#202020" d="M32 2a30 30 0 1 0 30 30A30 30 0 0 0 32 2zm19.584 19.7a11.941 11.941 0 0 1-8.678 3.62c-3.02.075-1.51 1.735-.982 3.32.53 1.585.226 2.342 4 3.36s-.654 5.088-2.828 7.277-.184 5.567-1.315 6.473c-1.13.904-3.552 1.078-3.779 4.25-.227 3.168-2.035 4-4 4-1.961 0-4.453-6.115-4-8.004.453-1.887.408-3.371-.875-4.125-1.281-.756-1.8-1.369-2.824-4.172-1.239-3.39-3.852-.681-6.719-.605-2.867.074-5.531-6.352-1.531-11.938 4-5.584 8.552-4.394 11.949-2.129 3.396 2.264 8 .707 8-5.027 0-4.316-6-1.85-6-6.002 0-2.856 2.228-3.9 5.812-5.335a26.088 26.088 0 0 1 16.46 11.938c-.797.896-1.643 1.987-2.69 3.098z"/></svg>