<svg xmlns="http://www.w3.org/2000/svg" viewBox="0 0 64 64" aria-labelledby="title" aria-describedby="desc"><path data-name="layer4" fill="#f27e7c" d="M46.384 9.646l6.293-6.293 8.026 8.025-6.294 6.294z"/><path data-name="layer3" fill="#fbaa51" d="M9.781 46.213L46.338 9.655l8.026 8.026L17.807 54.24z"/><path data-name="layer2" fill="#fddab3" d="M17.8 54.2l-8.1-8-4.3 9.9 2.5 2.5 9.9-4.4z"/><path data-name="layer1" fill="#2e4369" d="M3.4 60.6l4.5-2-2.5-2.5-2 4.5z"/><path data-name="opacity" fill="#000028" opacity=".2" d="M54.4 17.7l-3-3-36.6 36.6 3 2.9 36.6-36.5z"/><path data-name="stroke" fill="none" stroke="#2e4369" stroke-linecap="round" stroke-linejoin="round" stroke-width="2" d="M9.7 46.2L3.4 60.6l14.4-6.4-8.1-8zm44.7-28.5l6.2-6.3-8-8-6.3 6.2"/><path data-name="stroke" fill="none" stroke="#2e4369" stroke-linecap="round" stroke-linejoin="round" stroke-width="2" d="M9.7 46.2L46.3 9.6l8.1 8.1-36.6 36.5"/></svg>