<svg viewBox="0 0 64 64" xmlns="http://www.w3.org/2000/svg" aria-labelledby="title" aria-describedby="desc"><path d="M55 30L34.2 50.7 29.8 62l11.4-4.3L62 37l-7-7zM36 49l7 7" stroke-width="2" stroke-linejoin="round" stroke-linecap="round" stroke="#202020" fill="none" data-name="layer2"/><path stroke-width="2" stroke-linejoin="round" stroke-linecap="round" stroke="#202020" fill="none" d="M34.9 50H4a2 2 0 0 1-2-2V4a2 2 0 0 1 2-2h48a2 2 0 0 1 2 2v27m-8-5H30m12.9 16H30m16-32H30" data-name="layer1"/><circle stroke-width="2" stroke-linejoin="round" stroke-linecap="round" stroke="#202020" fill="none" r="1" cy="10" cx="11" data-name="layer1"/><circle stroke-width="2" stroke-linejoin="round" stroke-linecap="round" stroke="#202020" fill="none" r="1" cy="26" cx="11" data-name="layer1"/><circle stroke-width="2" stroke-linejoin="round" stroke-linecap="round" stroke="#202020" fill="none" r="1" cy="42" cx="11" data-name="layer1"/><path d="M54 18H2m49 16H2" stroke-width="2" stroke-linejoin="round" stroke-linecap="round" stroke="#202020" fill="none" data-name="layer1"/></svg>