<svg xmlns="http://www.w3.org/2000/svg" viewBox="0 0 64 64" aria-labelledby="title" aria-describedby="desc"><path data-name="layer3" fill="#ebf5ff" d="M46 39V2H2v56h29.4l2.8-7.3L46 39z"/><path data-name="opacity" fill="#000064" opacity=".1" d="M29.2 51.7L27.9 55H6V2H2v56h29.4l1.2-3 1.6-4.3L46 39v-4L29.2 51.7z"/><path data-name="layer2" fill="#efcaa8" d="M34.2 50.7L29.8 62l11.4-4.3-7-7z"/><path data-name="layer1" fill="#f27e7c" d="M55 30L34.2 50.7l7 7L62 37l-7-7z"/><path data-name="stroke" fill="none" stroke="#2e4369" stroke-linecap="round" stroke-miterlimit="10" stroke-width="2" d="M31.4 58H2V2h44v37M12 2v8m-2 0h4m10-8v8m-2 0h4m10-8v8m-2 0h4" stroke-linejoin="round"/><path data-name="stroke" fill="none" stroke="#2e4369" stroke-linecap="round" stroke-miterlimit="10" stroke-width="2" d="M55 30L34.2 50.7 29.8 62l11.4-4.3L62 37l-7-7zM34.2 50.7l7 7" stroke-linejoin="round"/></svg>