<svg viewBox="0 0 64 64" xmlns="http://www.w3.org/2000/svg" aria-labelledby="title" aria-describedby="desc"><path d="M54.977 27L34.223 47.707 29.84 59l11.406-4.266L62 34.027 54.977 27z" fill="#202020" data-name="layer3"/><path d="M30.494 46.26l.305-.788.598-.596 20.754-20.707L54 22.324V19H2v30h27.431l1.063-2.74z" fill="#202020" data-name="layer2"/><path fill="#202020" d="M2 5v10h52V5zm6 7a2 2 0 1 1 2-2 2 2 0 0 1-2 2zm6 0a2 2 0 1 1 2-2 2 2 0 0 1-2 2zm6 0a2 2 0 1 1 2-2 2 2 0 0 1-2 2z" data-name="layer1"/></svg>