<svg xmlns="http://www.w3.org/2000/svg" viewBox="0 0 64 64" aria-labelledby="title" aria-describedby="desc"><path data-name="layer3" fill="#f27e7c" d="M56 31L35.6 51.3l6 6L62 37l-6-6z"/><path data-name="layer2" fill="#e8d4d4" d="M35.2 51.7L30.8 62l10.4-4.3.4-.4-6-6-.4.4z"/><path data-name="layer1" d="M35.9 41c-3.3-1-3.9-2.9-3.9-4v-2a14.1 14.1 0 0 0 4-7c2.5 0 4-3 4-6 0-.8 0-4-2-4C43 3.5 28.4-2 18 5c-4.4 0-5.6 6.6-4 13-2 0-2 3.2-2 4 0 3 1.5 6 4 6a13.6 13.6 0 0 0 4 7v2c0 1.6-.5 3.6-8.6 5.2S2 51 2 51h34l8-8z" fill="#a5d0ec"/><path data-name="opacity" d="M44 43l-4.8-1.2L30 51h6zM20 28c.8 3 4.1 5.3 6 7v2c0 1.6-.5 3.6-8.6 5.2S8 51 8 51H2s0-7 9.4-8.8S20 38.6 20 37v-2a13.6 13.6 0 0 1-4-7c-2.5 0-4-3-4-6 0-.8 0-4 2-4-1.6-6.4-.4-13 4-13a16.7 16.7 0 0 1 12.5-2.7A17.8 17.8 0 0 0 24 5c-4.4 0-7.6 6.6-6 13 0 0-1 8 2 10z" fill="#000064" opacity=".15"/><path data-name="stroke" d="M36 51H2s0-7 9.4-8.8S20 38.6 20 37v-2a14.2 14.2 0 0 1-4-7c-2.5 0-4-3-4-6 0-.8 0-4 2-4-1.6-6.4-.4-13 4-13 10.4-7 25-1.5 20 13 2 0 2 3.2 2 4 0 3-1.5 6-4 6a14.1 14.1 0 0 1-4 7v2c0 1.1.5 3 3.9 4l8.1 2" fill="none" stroke="#2e4369" stroke-linecap="round" stroke-linejoin="round" stroke-width="2"/><path data-name="stroke" fill="none" stroke="#2e4369" stroke-linecap="round" stroke-linejoin="round" stroke-width="2" d="M56 31L35.2 51.7 30.8 62l10.4-4.3L62 37l-6-6zM35.8 51.5l6 6"/></svg>