<svg xmlns="http://www.w3.org/2000/svg" viewBox="0 0 64 64" aria-labelledby="title" aria-describedby="desc"><path data-name="layer5" d="M58.4 18.8l.9-.9c3.7-3.7 2.7-8.7-.9-12.3S49.8 1 46.2 4.7l-.9.9" fill="#f27e7c"/><path data-name="layer4" fill="#fbaa51" d="M52.6 24.5l5.8-5.7L45.2 5.6l-5.7 5.8"/><path data-name="layer3" fill="#ed4c49" d="M19.6 57.6l33-33.1-13.1-13.1-33.1 33"/><path data-name="opacity" fill="#fff" opacity=".25" d="M39.5 11.4l-33.1 33 4.4 4.4 33.1-33-4.4-4.4z"/><path data-name="opacity" fill="#000028" opacity=".2" d="M48.3 20.1L15.2 53.2l4.4 4.4 33-33.1-4.3-4.4z"/><path data-name="layer2" fill="#fddab3" d="M19.6 57.6L6.4 44.4 3.7 55.8l4.5 4.5 11.4-2.7z"/><path data-name="layer1" fill="#2e4369" d="M8.2 60.3l-4.5-4.5-1.3 5.8 5.8-1.3z"/><path data-name="stroke" fill="none" stroke="#2e4369" stroke-linecap="round" stroke-linejoin="round" stroke-width="2" d="M2.4 61.6l17.2-4L6.4 44.4l-4 17.2zm56-42.8l.9-.9c3.7-3.7 2.7-8.7-.9-12.3S49.8 1 46.2 4.7l-.9.9m7.3 18.9l5.8-5.7L45.2 5.6l-5.7 5.8"/><path data-name="stroke" fill="none" stroke="#2e4369" stroke-linecap="round" stroke-linejoin="round" stroke-width="2" d="M19.6 57.6l33-33.1-13.1-13.1-33.1 33"/></svg>