<svg xmlns="http://www.w3.org/2000/svg" viewBox="0 0 64 64" aria-labelledby="title" aria-describedby="desc"><path data-name="layer5" fill="#fff" d="M33 40.6h17l11.4 16H2.6l11.4-16h11.7"/><path data-name="layer4" fill="#fbaa51" d="M38.3 38.3l16.6-16.6-8-8-16.6 16.5"/><path data-name="layer3" fill="#f27e7c" d="M54.9 21.7l6.3-6.3-8.1-8-6.2 6.3"/><path data-name="layer2" fill="#fddab3" d="M27.9 42.9l10.4-4.6-8-8.1-4.6 10.4 2.2 2.3z"/><path data-name="layer1" fill="#2e4369" d="M27.9 42.9l-2.2-2.3-1.8 4 4-1.7z"/><path data-name="opacity" fill="#000028" opacity=".15" d="M23.9 44.6h29l-2.9-4H33l-9.1 4z"/><path data-name="opacity" fill="#000028" opacity=".2" d="M35.7 35.7l2.6 2.6 16.6-16.6-2.6-2.6-16.6 16.6z"/><path data-name="opacity" fill="#000028" opacity=".2" d="M38.3 38.3l-2.6-2.6-8.5 6.4.7.8 10.4-4.6z"/><path data-name="stroke" fill="none" stroke="#2e4369" stroke-linecap="round" stroke-linejoin="round" stroke-width="2" d="M38.3 38.3l16.6-16.6-8-8-16.6 16.5m-6.4 14.4l14.4-6.3-8-8.1-6.4 14.4z"/><path data-name="stroke" fill="none" stroke="#2e4369" stroke-linecap="round" stroke-linejoin="round" stroke-width="2" d="M54.9 21.7l6.3-6.3-8.1-8-6.2 6.3M33 40.6h17l11.4 16H2.6l11.4-16h11.7"/></svg>