<svg xmlns="http://www.w3.org/2000/svg" viewBox="0 0 64 64" aria-labelledby="title" aria-describedby="desc"><path data-name="layer5" d="M32 6h-3.1a5 5 0 0 0-9.8 0H16a2 2 0 0 0-2 2v6h20V8a2 2 0 0 0-2-2z" fill="#c3d1ff"/><path data-name="layer4" fill="#efcaa8" d="M34.2 50.7L29.8 62l11.4-4.3-7-7z"/><path data-name="layer3" fill="#f27e7c" d="M62 37l-7-7-20.8 20.7 7 7L62 37z"/><path data-name="layer2" d="M34.9 50H10V14h4V8H4a2 2 0 0 0-2 2v46a2 2 0 0 0 2 2h27.4l2.8-7.3zM38 14v32.9l8-8V10a2 2 0 0 0-2-2H34v6z" fill="#dda991"/><path data-name="layer1" fill="#ebf5ff" d="M34 14H10v36h24.9l3.1-3.1V14h-4z"/><path data-name="opacity" fill="#000064" opacity=".15" d="M29.9 50H10V17H7v36h20.7l-1.9 5h5.6l2.8-7.3.7-.7 3.1-3.1 8-8V34L29.9 50zM10 11v6h20v-3H14V9h-2a2 2 0 0 0-2 2z"/><path data-name="stroke" d="M31.4 58H4a2 2 0 0 1-2-2V10a2 2 0 0 1 2-2h9.9M34 8h10a2 2 0 0 1 2 2v29" fill="none" stroke="#2e4369" stroke-linecap="round" stroke-miterlimit="10" stroke-width="2" stroke-linejoin="round"/><path data-name="stroke" d="M32 6h-3.1a5 5 0 0 0-9.8 0H16a2 2 0 0 0-2 2v6h20V8a2 2 0 0 0-2-2zm6 40.9V14h-4m-20 0h-4v36h24.9M18 22h12M18 32h12M18 42h12m25-12L34.2 50.7 29.8 62l11.4-4.3L62 37l-7-7zM34.2 50.7l7 7" fill="none" stroke="#2e4369" stroke-linecap="round" stroke-miterlimit="10" stroke-width="2" stroke-linejoin="round"/></svg>