<svg xmlns="http://www.w3.org/2000/svg" viewBox="0 0 64 64" aria-labelledby="title" aria-describedby="desc"><path data-name="layer2" d="M31.4 58H4a2 2 0 0 1-2-2V10a2 2 0 0 1 2-2h9.9M34 8h10a2 2 0 0 1 2 2v29" fill="none" stroke="#202020" stroke-miterlimit="10" stroke-width="2" stroke-linejoin="round" stroke-linecap="round"/><path data-name="layer2" d="M32 6h-3.1a5 5 0 0 0-9.8 0H16a2 2 0 0 0-2 2v6h20V8a2 2 0 0 0-2-2zm6 40.9V14h-4m-20 0h-4v36h24.9M18 22h12M18 32h12M18 42h12" fill="none" stroke="#202020" stroke-miterlimit="10" stroke-width="2" stroke-linejoin="round" stroke-linecap="round"/><path data-name="layer1" fill="none" stroke="#202020" stroke-miterlimit="10" stroke-width="2" d="M55 30L34.2 50.7 29.8 62l11.4-4.3L62 37l-7-7zM34.2 50.7l7 7" stroke-linejoin="round" stroke-linecap="round"/></svg>