<svg xmlns="http://www.w3.org/2000/svg" viewBox="0 0 64 64" aria-labelledby="title" aria-describedby="desc"><path data-name="layer2" fill="#202020" d="M36.7 50.309l19.337-19.27 6.007 6.028-19.338 19.27zM30.8 62l8.4-3.5-4.8-4.8-3.6 8.3z"/><path data-name="layer1" d="M33.8 47.5l6.1-6.1-3.4-1.3c-4-1.5-4-3.2-4-4.5V34a14.5 14.5 0 0 0 4.2-7c2.5 0 3-5.1 3-5.8s.1-3.8-2.4-3.8C42.6 4.5 28.4-2.3 17.8 5.1c-4.4 0-4.7 5.9-3.1 12.3-2.5 0-2.4 3-2.4 3.8s.6 5.8 3 5.8a14.6 14.6 0 0 0 4.2 7v1.6c0 1.6 0 4-8.1 5.6S2 50 2 50h30.7a4 4 0 0 1 1.1-2.5z" fill="#202020"/></svg>