<svg xmlns="http://www.w3.org/2000/svg" viewBox="0 0 64 64" aria-labelledby="title" aria-describedby="desc"><path data-name="layer2" fill="#202020" d="M55 28L34.3 48.7 29.9 60l11.4-4.3L62 35l-7-7z"/><path data-name="layer1" d="M54 4a2 2 0 0 0-2-2H4a2 2 0 0 0-2 2v12h52zm-43 9a3 3 0 1 1 3-3 3 3 0 0 1-3 3zm35-1H30a2 2 0 0 1 0-4h16a2 2 0 0 1 0 4zm6.2 13.2a4 4 0 0 1 1.8-1V20H2v12h43.3zM11 29a3 3 0 1 1 3-3 3 3 0 0 1-3 3zm17-3a2 2 0 0 1 2-2h16a2 2 0 0 1 0 4H30a2 2 0 0 1-2-2zm2.5 21.3a4 4 0 0 1 .9-1.4l1.9-1.9H30a2 2 0 0 1 0-4h7.4l4-4H2v12a2 2 0 0 0 2 2h25.5zM11 45a3 3 0 1 1 3-3 3 3 0 0 1-3 3z" fill="#202020"/></svg>