<svg xmlns="http://www.w3.org/2000/svg" viewBox="0 0 64 64" aria-labelledby="title" aria-describedby="desc"><path data-name="layer3" fill="#ebf5ff" d="M44 41V28H10v24h23.7l.5-1.3L44 41z"/><path data-name="layer4" d="M44 41l8-8V8.7L45.3 2H42v16.3a1.7 1.7 0 0 1-1.7 1.7H23.7a1.7 1.7 0 0 1-1.7-1.7V2H2v50h8V28h34z" fill="#7f95ad"/><path data-name="layer3" d="M23.7 20h16.6a1.7 1.7 0 0 0 1.7-1.7V2H22v16.3a1.7 1.7 0 0 0 1.7 1.7z" fill="#ebf5ff"/><path data-name="opacity" fill="#000064" opacity=".15" d="M44 37L31.9 49H6V2H2v50h31.7l.5-1.3 1.7-1.7 8.1-8v-4z"/><path data-name="layer2" fill="#efcaa8" d="M29.8 62l11.4-4.3-7-7L29.8 62z"/><path data-name="layer1" fill="#f27e7c" d="M55 30L34.2 50.7l7 7L62 37l-7-7z"/><path data-name="stroke" fill="none" stroke="#2e4369" stroke-linecap="round" stroke-miterlimit="10" stroke-width="2" d="M33.7 52H2V2h43.3L52 8.7V33" stroke-linejoin="round"/><path data-name="stroke" fill="none" stroke="#2e4369" stroke-linecap="round" stroke-miterlimit="10" stroke-width="2" d="M44 40.9V28H10v24m24-42v4m8-12v16.3a1.7 1.7 0 0 1-1.7 1.7H23.7a1.7 1.7 0 0 1-1.7-1.7V2m33 28L34.2 50.7 29.8 62l11.4-4.3L62 37l-7-7zM34.2 50.7l7 7" stroke-linejoin="round"/></svg>