<svg xmlns="http://www.w3.org/2000/svg" viewBox="0 0 64 64" aria-labelledby="title" aria-describedby="desc"><path data-name="layer2" fill="#202020" d="M56 31L36.6 50.3l6.1 6L62 37l-6-6zM30.8 62l8.4-3.5-4.8-4.8-3.6 8.3z"/><path data-name="layer1" d="M33.8 47.4l5.9-5.9-1.1-.4-2.4-.7c-5.7-1.5-6.2-3-6.2-4.4v-2a61.7 61.7 0 0 0 12-2c-3.3-3.3-6-4.3-6-18C36 2.3 28.8 1.2 22 2.4S12 8 12 14c0 13.7-2.7 14.7-6 18a61.3 61.3 0 0 0 12 2v2c0 1.6-.5 3.5-8.6 5.2A9.2 9.2 0 0 0 2 50h30.7a4 4 0 0 1 1.1-2.6z" fill="#202020"/></svg>