<svg viewBox="0 0 64 64" xmlns="http://www.w3.org/2000/svg" aria-labelledby="title" aria-describedby="desc"><path fill="#8fa9d8" d="M39 50l15-15V4a2 2 0 0 0-2-2H4a2 2 0 0 0-2 2v44a2 2 0 0 0 2 2h35z" data-name="layer4"/><path opacity=".18" fill="#000064" d="M6 48V4a2 2 0 0 1 2-2H4a2 2 0 0 0-2 2v44a2 2 0 0 0 2 2h4a2 2 0 0 1-2-2z" data-name="opacity"/><circle fill="#44d88d" r="1" cy="10" cx="11" data-name="layer3"/><circle fill="#44d88d" r="1" cy="26" cx="11" data-name="layer3"/><circle fill="#44d88d" r="1" cy="42" cx="11" data-name="layer3"/><path d="M27 49l-1.1 1H38l14-14-6-6-19 19z" opacity=".18" fill="#000064" data-name="opacity"/><path d="M34.2 48.7L29.8 60l11.4-4.3L43 54l-7-7-1.8 1.7z" fill="#f7e7cb" data-name="layer2"/><path d="M36.028 46.971l19.055-18.988 7.016 7.041-19.054 18.988z" fill="#78d1f4" data-name="layer1"/><path d="M55 29L34.2 49.7 29.8 61l11.4-4.3L62 36l-7-7zM36 48l7 7" stroke-width="2" stroke-linejoin="round" stroke-linecap="round" stroke="#2e4369" fill="none" data-name="stroke"/><path stroke-width="2" stroke-linejoin="round" stroke-linecap="round" stroke="#2e4369" fill="none" d="M33.7 50H4a2 2 0 0 1-2-2V4a2 2 0 0 1 2-2h48a2 2 0 0 1 2 2v26m-8-4H30m11 16H30m16-32H30" data-name="stroke"/><circle stroke-width="2" stroke-linejoin="round" stroke-linecap="round" stroke="#2e4369" fill="none" r="1" cy="10" cx="11" data-name="stroke"/><circle stroke-width="2" stroke-linejoin="round" stroke-linecap="round" stroke="#2e4369" fill="none" r="1" cy="26" cx="11" data-name="stroke"/><circle stroke-width="2" stroke-linejoin="round" stroke-linecap="round" stroke="#2e4369" fill="none" r="1" cy="42" cx="11" data-name="stroke"/><path d="M54 18H2m49 16H2" stroke-width="2" stroke-linejoin="round" stroke-linecap="round" stroke="#2e4369" fill="none" data-name="stroke"/></svg>