<svg xmlns="http://www.w3.org/2000/svg" viewBox="0 0 64 64" aria-labelledby="title" aria-describedby="desc"><path data-name="layer1" d="M36.9 50H2s0-6 7-8 9-4.4 9-6v-2a61.4 61.4 0 0 1-12-2c3.3-3.3 6-4.3 6-18 0-6 3.7-11.6 10-11.6s14 0 14 11.6c0 13.7 2.7 14.7 6 18a61.7 61.7 0 0 1-12 2v2c0 1.6 1.1 3.7 9 6a10.6 10.6 0 0 1 3.9 2" fill="#a5d0ec"/><path data-name="layer3" fill="#e8d4d4" d="M35.2 51.7L30.8 62l10.4-4.3-6-6z"/><path data-name="layer2" fill="#f27e7c" d="M62 37l-6-6-20.8 20.7 6 6L62 37z"/><path data-name="layer1" d="M43 44a11 11 0 0 0-4-2c-7.9-2.3-9-4.4-9-6v-2a61.7 61.7 0 0 0 12-2c-3.3-3.3-6-4.3-6-18C36 2.4 28.8 1.2 22 2.4S12 8 12 14c0 13.7-2.7 14.7-6 18a61.4 61.4 0 0 0 12 2v2c0 1.6-1.1 3.8-9 6s-7 8-7 8h35l6-6z" fill="#a5d0ec"/><path data-name="opacity" d="M37 50l6-6a11 11 0 0 0-4-2l-8.1 8H37zm-22-8c7.9-2.3 9-4.4 9-6-1.7 0-5.5-2.6-11-4 3.3-3.3 4-4.3 4-18 0-6 4.7-11.6 11-11.6h.6a18.4 18.4 0 0 0-6.6.1C15.7 2.4 12 8 12 14c0 13.7-2.7 14.7-6 18a61.4 61.4 0 0 0 12 2v2c0 1.6-1.1 3.7-9 6s-7 8-7 8h6s0-6 7-8z" fill="#000064" opacity=".15"/><path data-name="stroke" d="M36.9 50H2s0-6 7-8 9-4.4 9-6v-2a61.4 61.4 0 0 1-12-2c3.3-3.3 6-4.3 6-18 0-6 3.7-11.6 10-11.6s14 0 14 11.6c0 13.7 2.7 14.7 6 18a61.7 61.7 0 0 1-12 2v2c0 1.6 1.1 3.7 9 6a10.6 10.6 0 0 1 3.9 2M56 31L35.2 51.7 30.8 62l10.4-4.3L62 37l-6-6zM35.2 51.7l6 6" fill="none" stroke="#2e4369" stroke-linecap="round" stroke-linejoin="round" stroke-width="2"/></svg>