<svg viewBox="0 0 64 64" xmlns="http://www.w3.org/2000/svg" aria-labelledby="title" aria-describedby="desc"><path stroke-width="2" stroke-linejoin="round" stroke-linecap="round" stroke="#202020" fill="none" d="M7.465 28c4.912 13.525 21.292 32.65 35.092 33.932A14.13 14.13 0 0 0 44 62c3.244 0 5.367-.656 6.7-1.705a14 14 0 0 0-2.674-25.7c-.012 0-.018-.01-.029-.014a.591.591 0 0 0-.059-.01c-.945-.277-2.238-.668-3.648-.941-9.418-1.922-16.613-6.145-20.945-15.955A9.044 9.044 0 0 0 20 13.532" data-name="layer2"/><path stroke-width="2" stroke-linejoin="round" stroke-linecap="round" stroke="#202020" fill="none" d="M20 24V13.532A8.91 8.91 0 0 0 15 12a9 9 0 0 0-9 9 21.225 21.225 0 0 0 1.467 7L12 20zm-8-11.485C9.561 6.591 12 2 18 2" data-name="layer1"/></svg>