<svg xmlns="http://www.w3.org/2000/svg" viewBox="0 0 64 64" aria-labelledby="title" aria-describedby="desc"><path data-name="layer2" d="M59 57a3 3 0 0 0 3-3V23a2 2 0 0 0-2-2H12a2 2 0 0 0-2 2v31a3 3 0 0 1-3 3z" fill="#cbe5ff"/><path data-name="opacity" d="M60 53H10v1a3 3 0 0 1-3 3h52a3 3 0 0 0 3-3v-1.779A2.978 2.978 0 0 1 60 53z" fill="#000064" opacity=".16"/><path data-name="layer2" d="M54 21v-4a2 2 0 0 0-2-2H20v-4a2 2 0 0 0-2-2H4a2 2 0 0 0-2 2v43a3 3 0 0 0 3 3h2a3 3 0 0 0 3-3V23a2 2 0 0 1 2-2z" fill="#cbe5ff"/><path data-name="opacity" d="M54 21v-4a2 2 0 0 0-2-2H20v-4a2 2 0 0 0-2-2H4a2 2 0 0 0-2 2v43a3 3 0 0 0 3 3h2a3 3 0 0 0 3-3V23a2 2 0 0 1 2-2z" fill="#000064" opacity=".16"/><path data-name="opacity" d="M10 54V23H8a2 2 0 0 0-2 2v31a2.974 2.974 0 0 1-.184 1H7a3 3 0 0 0 3-3z" fill="#000064" opacity=".16"/><path data-name="layer1" fill="#f4475d" d="M47 36h-8v-8h-6v8h-8v6h8v8h6v-8h8v-6z"/><path data-name="stroke" fill="none" stroke="#2e4369" stroke-linecap="round" stroke-miterlimit="10" stroke-width="2" d="M47 36h-8v-8h-6v8h-8v6h8v8h6v-8h8v-6z" stroke-linejoin="round"/><path data-name="stroke" d="M54 21v-4a2 2 0 0 0-2-2H20v-4a2 2 0 0 0-2-2H4a2 2 0 0 0-2 2v43a3 3 0 0 0 3 3h54a3 3 0 0 0 3-3V23a2 2 0 0 0-2-2H12a2 2 0 0 0-2 2v31a3 3 0 0 1-3 3" fill="none" stroke="#2e4369" stroke-linecap="round" stroke-miterlimit="10" stroke-width="2" stroke-linejoin="round"/></svg>