<svg xmlns="http://www.w3.org/2000/svg" viewBox="0 0 64 64" aria-labelledby="title" aria-describedby="desc"><path data-name="layer1" d="M30.2 45l7.4-9.2a2 2 0 1 0-3.1-2.5L21.8 49h8l-7 8.7a2 2 0 0 0 3.2 2.5L38.2 45z" fill="#202020"/><path data-name="layer2" d="M49 13h-.5a17 17 0 0 0-32.3 4.4A11 11 0 1 0 13 39h11.7l6.6-8.3a6 6 0 1 1 9.4 7.5l-.6.8H49a13 13 0 0 0 0-26z" fill="#202020"/><path data-name="layer1" d="M15 46.3a2 2 0 0 0-3.1-2.5L4.5 53h6l-2.2 2.8a2 2 0 0 0 3.1 2.5l7.4-9.3h-6zm33.4 0a2 2 0 0 0-3.1-2.5L37.8 53h6l-2.2 2.8a2 2 0 0 0 3.1 2.5l7.5-9.3h-6z" fill="#202020"/></svg>