<svg xmlns="http://www.w3.org/2000/svg" viewBox="0 0 64 64" aria-labelledby="title" aria-describedby="desc"><path data-name="layer1" d="M47 1H21a1 1 0 0 0-1 1 10 10 0 0 0 2.5 6.6A8.7 8.7 0 0 0 29 11h10c2.1 0 3 .9 3 2.9V21H17A11 11 0 0 0 6 32v4a1 1 0 0 0 1 1h10v8.3a8 8 0 0 0-6 7.7v2a8 8 0 1 0 16 0v-2a8 8 0 0 0-6-7.7V37h16v8.3a8 8 0 0 0-6 7.7v2a8 8 0 1 0 16 0v-2a8 8 0 0 0-6-7.7V37h16a1 1 0 0 0 1-1V12A11 11 0 0 0 47 1zM15 55v-2a4 4 0 0 1 2-3.4v8.9a4 4 0 0 1-2-3.5zm8-2v2a4 4 0 0 1-2 3.4v-8.8a4 4 0 0 1 2 3.4zm12 2v-2a4 4 0 0 1 2-3.4v8.9a4 4 0 0 1-2-3.5zm8-2v2a4 4 0 0 1-2 3.4v-8.8a4 4 0 0 1 2 3.4z" fill="#202020"/></svg>