<svg xmlns="http://www.w3.org/2000/svg" viewBox="0 0 64 64" aria-labelledby="title" aria-describedby="desc"><path data-name="layer3" d="M5 26a3.87 3.87 0 0 0 2.766 5.416l.052.008 11.818 1.531S22 33 23 36c.575 1.726 3 9 12 9h17c4 0 10-1.491 10-6 0-7-8-15-20-15l-2-2h-7l-2 2-18 2-5.7-7.6a1 1 0 0 0-.8-.4H3.443a1 1 0 0 0-.936 1.351z" fill="#cbe5ff"/><path d="M5 23l-1.856-4.95a1 1 0 0 0-.637 1.3l2.232 5.95A3.937 3.937 0 0 1 5 23zm47 19H35c-9 0-11.425-7.274-12-9-1-3-3.365-3.043-3.365-3.043L7.817 28.426l-.052-.008a3.671 3.671 0 0 1-2.8-2.315 3.86 3.86 0 0 0 2.8 5.315l.052.008 11.818 1.531S22 33 23 36c.575 1.726 3 9 12 9h17c4 0 10-1.491 10-6a9.809 9.809 0 0 0-.183-1.759C60.819 40.781 55.6 42 52 42z" fill="#000064" opacity=".16"/><path data-name="layer2" fill="#f4475d" d="M33 28v3h-3v5h3v3h5v-3h3v-5h-3v-3h-5z"/><path data-name="layer1" d="M49.2 25.058l-.013.009C47.728 25.323 47 26.32 47 28v9a2.884 2.884 0 0 0 3 3h11.792l.095-.019A4.6 4.6 0 0 0 62 39c0-5.48-4.916-11.554-12.8-13.942z" fill="#9cf"/><path data-name="opacity" d="M49.2 25.058l-.013.009a2.433 2.433 0 0 0-2.139 2.279C53.965 29.74 58.414 35 58.945 40h2.847l.095-.019A4.6 4.6 0 0 0 62 39c0-5.48-4.916-11.554-12.8-13.942z" fill="#fff" opacity=".25"/><path data-name="stroke" fill="none" stroke="#2e4369" stroke-linecap="round" stroke-miterlimit="10" stroke-width="2" d="M14 16h44m-22 0v6M5 26a3.87 3.87 0 0 0 2.766 5.416l.052.008 11.818 1.531S22 33 23 36c.575 1.726 3 9 12 9h17c4 0 10-1.491 10-6 0-7-8-15-20-15l-2-2h-7l-2 2-18 2-5.7-7.6a1 1 0 0 0-.8-.4H3.443a1 1 0 0 0-.936 1.351z" stroke-linejoin="round"/><path data-name="stroke" d="M49.184 25.066C47.728 25.323 47 26.32 47 28v9a2.884 2.884 0 0 0 3 3h11.792M24 50h34a3.166 3.166 0 0 0 3-3m-8-2l-1 5m-11-5l-1 5m-7-22v3h-3v5h3v3h5v-3h3v-5h-3v-3h-5z" fill="none" stroke="#2e4369" stroke-linecap="round" stroke-miterlimit="10" stroke-width="2" stroke-linejoin="round"/></svg>