<svg xmlns="http://www.w3.org/2000/svg" viewBox="0 0 64 64" aria-labelledby="title" aria-describedby="desc"><path data-name="layer1" d="M46.8 41.2a26.1 26.1 0 0 1-3.9-1h-.2c-2.3-.9-2.3-1.7-2.3-2.2v-2a16.4 16.4 0 0 0 3.8-6.3c2.8-1.3 3.4-6.1 3.4-7.5 0-3.1-1.1-4.6-2.3-5.2v-1a1.6 1.6 0 0 0 0-.2v-.3C45.2 6.2 38.6 2 32 2S18.8 6.2 18.8 15.5v1.4c-1.2.6-2.4 2.1-2.3 5.3 0 1.4.6 6.2 3.4 7.5a16.5 16.5 0 0 0 3.7 6.2V38c0 .1 0 1.3-2.2 2.1h-.3a26.6 26.6 0 0 1-3.9.9C8.4 42.8 6 49 6 52v8a2 2 0 0 0 2 2h48a2 2 0 0 0 2-2v-8c0-3-2.3-9.1-11.2-10.8zm-22 1.8l3.9 3-4.7 3.8v-6.4zm14.5 0l.7.4v6.5L35.3 46zM23 26h-1.4c-.5-.5-1.1-2.7-1.1-3.9a3.3 3.3 0 0 1 .2-1.7h2.1v-1.7a15.3 15.3 0 0 0 9.1-4c1.7-1.4 2.8-2.3 4.9-2.3a4.1 4.1 0 0 1 4.4 3.6v4.3h2.1c.1.1.3.5.3 1.8s-.6 3.4-1.2 3.9H41l-.4 1.5a11.8 11.8 0 0 1-4.8 7 2 2 0 0 0 .6 3.7 6.1 6.1 0 0 0 .3 1.8L32 43.5l-4.6-3.6a6.2 6.2 0 0 0 .2-1.8 2 2 0 0 0 .6-3.7 11.9 11.9 0 0 1-4.9-7z" fill="#202020"/></svg>