<svg xmlns="http://www.w3.org/2000/svg" viewBox="0 0 64 64" aria-labelledby="title" aria-describedby="desc"><path data-name="layer1" d="M14.888 34H28v-5.991l-13.114-.002 3.108-2.765a3 3 0 1 0-3.988-4.483L2 31l12.008 10.243a3 3 0 1 0 3.984-4.486zM49.98 20.763a3 3 0 1 0-3.985 4.485l3.11 2.763L36 28.009V34h13.11l-3.113 2.762a3 3 0 1 0 3.98 4.488L62 31z" fill="#bacae9"/><path data-name="stroke" d="M14.888 34H28v-5.991l-13.114-.002 3.108-2.765a3 3 0 1 0-3.988-4.483L2 31l12.008 10.243a3 3 0 1 0 3.984-4.486zM49.98 20.763a3 3 0 1 0-3.985 4.485l3.11 2.763L36 28.009V34h13.11l-3.113 2.762a3 3 0 1 0 3.98 4.488L62 31z" fill="none" stroke="#2e4369" stroke-linecap="round" stroke-linejoin="round" stroke-width="2"/></svg>