<svg xmlns="http://www.w3.org/2000/svg" viewBox="0 0 64 64" aria-labelledby="title" aria-describedby="desc"><path data-name="layer3" d="M16 6h39a2 2 0 0 1 2 2 2 2 0 0 1-2 2H16m36 48H6a2 2 0 0 1-2-2 2 2 0 0 1 2-2h46M34 30h21a2 2 0 0 1 2 2 2 2 0 0 1-2 2H34m-6 0H6a2 2 0 0 1-2-2 2 2 0 0 1 2-2h22M10 10H6a2 2 0 0 1-2-2 2 2 0 0 1 2-2h4" fill="#7394c9"/><path data-name="layer2" fill="#dde5f4" d="M28 26h6v12h-6zm24 24h6v12h-6zM10 2h6v12h-6z"/><path data-name="layer1" fill="#fff" d="M28 26h2v12h-2zm24 24h2v12h-2zM10 2h2v12h-2z"/><path data-name="opacity" opacity=".2" d="M34 30h4v4h-4zM16 6h4v4h-4z"/><path data-name="stroke" fill="none" stroke="#2e4369" stroke-linecap="round" stroke-linejoin="round" stroke-width="2" d="M28 26h6v12h-6zm24 24h6v12h-6zM10 2h6v12h-6zm6 4h39a2 2 0 0 1 2 2 2 2 0 0 1-2 2H16m36 48H6a2 2 0 0 1-2-2 2 2 0 0 1 2-2h46M34 30h21a2 2 0 0 1 2 2 2 2 0 0 1-2 2H34m-6 0H6a2 2 0 0 1-2-2 2 2 0 0 1 2-2h22M10 10H6a2 2 0 0 1-2-2 2 2 0 0 1 2-2h4"/></svg>