<svg xmlns="http://www.w3.org/2000/svg" viewBox="0 0 64 64" aria-labelledby="title" aria-describedby="desc"><path data-name="layer1" d="M61.4 22.1l-17-17a3 3 0 0 0-4.2 0L4.9 40.4a3 3 0 0 0 0 4.2l8.3 8.4h21.5l26.7-26.7a3 3 0 0 0 0-4.2z" fill="#f48d73"/><path data-name="opacity" d="M61.4 22.1H61l-4.4 1.2L26.8 53h7.9l26.7-26.7a3 3 0 0 0 0-4.2z" fill="#000064" opacity=".15"/><path data-name="opacity" d="M61 22L44.5 5.1a3 3 0 0 0-4.2 0l-3 3a3 3 0 0 1 4.2 0l15.2 15.2c.8-.9 2.3-.3 4.3-1.3z" fill="#fff" opacity=".25"/><path data-name="stroke" d="M61.4 22.1l-17-17a3 3 0 0 0-4.2 0L4.9 40.4a3 3 0 0 0 0 4.2l8.3 8.4h21.5l26.7-26.7a3 3 0 0 0 0-4.2zM2 61h60" fill="none" stroke="#2e4369" stroke-linecap="round" stroke-miterlimit="10" stroke-width="2" stroke-linejoin="round"/></svg>