<svg xmlns="http://www.w3.org/2000/svg" viewBox="0 0 64 64" aria-labelledby="title" aria-describedby="desc"><path data-name="layer2" d="M46 31L30 61h32zm-2 12a2 2 0 1 1 4 0v6a2 2 0 1 1-4 0zm2 14a2 2 0 0 1-1.4-.6 2 2 0 0 1 0-2.8 2.1 2.1 0 0 1 2.8 0 2 2 0 0 1 0 2.8 2 2 0 0 1-1.4.6z" fill="#202020"/><ellipse data-name="layer1" cx="25" cy="11" rx="23" ry="8" fill="#202020"/><path data-name="layer1" d="M25 30c13.6 0 23-3.9 23-6v-6.2C43 21.3 34 23 25 23S7 21.3 2 17.8V24c0 2 9.4 6 23 6zm8.8 15.4a64.9 64.9 0 0 1-8.8.6c-9.4 0-19-2-23-5.8V47c0 4.3 9.8 7.8 22.1 8h4.5z" fill="#202020"/><path data-name="layer1" d="M25 42a64.4 64.4 0 0 0 11.1-1l4.9-9.2A55.6 55.6 0 0 1 25 34c-9.4 0-19-2-23-5.8V36c0 2 9.4 6 23 6z" fill="#202020"/></svg>