<svg viewBox="0 0 64 64" xmlns="http://www.w3.org/2000/svg" aria-labelledby="title" aria-describedby="desc"><path fill="#8fa9d8" d="M54 47V4a2 2 0 0 0-2-2H4a2 2 0 0 0-2 2v44a2 2 0 0 0 2 2h32.4L46 32z" data-name="layer3"/><path opacity=".18" fill="#000064" d="M6 48V4a2 2 0 0 1 2-2H4a2 2 0 0 0-2 2v44a2 2 0 0 0 2 2h4a2 2 0 0 1-2-2z" data-name="opacity"/><circle fill="#44d88d" r="1" cy="10" cx="11" data-name="layer2"/><circle fill="#44d88d" r="1" cy="26" cx="11" data-name="layer2"/><circle fill="#44d88d" r="1" cy="42" cx="11" data-name="layer2"/><path d="M30 62l16-30 16 30H30z" fill="#fc6" data-name="layer1"/><path d="M42 39.6L39 34l-8.5 16h5.9L42 39.6z" opacity=".18" fill="#000064" data-name="opacity"/><path d="M30 62l16-30 16 30H30zm16-18v6" stroke-width="2" stroke-linejoin="round" stroke-linecap="round" stroke="#2e4369" fill="none" data-name="stroke"/><circle stroke-width="2" stroke-linejoin="round" stroke-linecap="round" stroke="#2e4369" fill="none" r="1" cy="56" cx="46" data-name="stroke"/><path stroke-width="2" stroke-linejoin="round" stroke-linecap="round" stroke="#2e4369" fill="none" d="M36.4 50H4a2 2 0 0 1-2-2V4a2 2 0 0 1 2-2h48a2 2 0 0 1 2 2v43m-8-21H30m7 16h-7m16-32H30" data-name="stroke"/><circle stroke-width="2" stroke-linejoin="round" stroke-linecap="round" stroke="#2e4369" fill="none" r="1" cy="10" cx="11" data-name="stroke"/><circle stroke-width="2" stroke-linejoin="round" stroke-linecap="round" stroke="#2e4369" fill="none" r="1" cy="26" cx="11" data-name="stroke"/><circle stroke-width="2" stroke-linejoin="round" stroke-linecap="round" stroke="#2e4369" fill="none" r="1" cy="42" cx="11" data-name="stroke"/><path d="M54 18H2m41.9 16H2" stroke-width="2" stroke-linejoin="round" stroke-linecap="round" stroke="#2e4369" fill="none" data-name="stroke"/></svg>