<svg xmlns="http://www.w3.org/2000/svg" viewBox="0 0 64 64" aria-labelledby="title" aria-describedby="desc"><circle data-name="layer1" cx="38" cy="14" r="4" fill="#7b8baf"/><path data-name="layer2" d="M9 14h11l28 28h7a7 7 0 1 1 0 14H44L16 28H9a7 7 0 0 1 0-14z" fill="#d1deff"/><path data-name="layer1" d="M42 35.9V24a4 4 0 1 0-8 0v4z" fill="#7b8baf"/><path data-name="opacity" d="M59 53H48L20 25h-7a7 7 0 0 1-5.9-10.7A7 7 0 0 0 9 28h7l28 28h11a7 7 0 0 0 5.9-3.3z" fill="#000064" opacity=".12"/><circle data-name="stroke" cx="38" cy="14" r="4" fill="none" stroke="#2e4369" stroke-linecap="round" stroke-linejoin="round" stroke-width="2"/><path data-name="stroke" d="M34 28v-4a4 4 0 1 1 8 0v11.9M10 36v14m6-6.2L10 50l-6-6.2" fill="none" stroke="#2e4369" stroke-linecap="round" stroke-linejoin="round" stroke-width="2"/><path data-name="stroke" d="M9 14h11l28 28h7a7 7 0 1 1 0 14H44L16 28H9a7 7 0 0 1 0-14z" fill="none" stroke="#2e4369" stroke-linecap="round" stroke-linejoin="round" stroke-width="2"/></svg>