<svg xmlns="http://www.w3.org/2000/svg" viewBox="0 0 64 64" aria-labelledby="title" aria-describedby="desc"><path data-name="layer1" d="M10.347 12.435H16.4a.647.647 0 0 0 .605-.6s-.1-5.087-.1-6.583a6.1 6.1 0 0 1 .706-3.092l.2-.4h-.1l-11.7 11.57v.1l.605-.3a8.3 8.3 0 0 1 3.731-.695z" fill="#74bb44"/><path data-name="layer1" d="M57.461 11.138a5.271 5.271 0 0 0-3.43-4.289 45.83 45.83 0 0 0-8.374-1.5 70.519 70.519 0 0 0-8.878-.3 5.381 5.381 0 0 0-2.926-3.99c-3.733-1.5-9.483-1.1-11-.7a5.748 5.748 0 0 0-3.228 1.995 4.605 4.605 0 0 0-.807 2.793v6.583a2.441 2.441 0 0 1-2.418 2.4h-6.053a6.237 6.237 0 0 0-3.027.6 5.735 5.735 0 0 0-1.412 1.3A6.083 6.083 0 0 0 5 19.815a27.141 27.141 0 0 0 .3 3.291c.2 1.7 2.018 13.265 3.733 16.756a4.249 4.249 0 0 0 2.421 2.494 69.237 69.237 0 0 0 12.712 2.992c3.127.4 5.044 1.2 6.255-1.2l.5-1.5a24.021 24.021 0 0 0 1.11-7.68.151.151 0 0 1 .3 0c0 1.4-.3 6.284 3.43 7.58a42.385 42.385 0 0 0 7.667 1.3c2.825.3 4.843 1.4 4.843 8.578 0 4.289-.908 4.887-5.75 4.887-3.935 0-5.347.1-5.347-2.992 0-2.494 2.522-2.194 4.338-2.194.807 0 .2-.6.2-2.095s1.009-2.394.1-2.394c-6.356-.2-10.089 0-10.089 7.879 0 7.082 2.724 8.478 11.8 8.478 7.062 0 9.584-.2 12.51-9.176.605-1.8 2.018-7.181 2.825-16.158.52-5.88-.59-23.134-1.397-27.523zm-12.308 19.15a20.481 20.481 0 0 0-2.522.1c.2-1.8.908-3.89 3.531-3.79 2.926.1 3.329 2.793 3.329 4.588a11.553 11.553 0 0 0-4.338-.898z" fill="#74bb44"/></svg>