<svg xmlns="http://www.w3.org/2000/svg" viewBox="0 0 64 64" aria-labelledby="title" aria-describedby="desc"><path data-name="layer2" fill="#202020" d="M20.04 23.995h24v16h-24z"/><path data-name="layer1" d="M15.997 6.005a2 2 0 0 0-2 2v7.168L3.409 4.585A2 2 0 0 0 .581 7.413l10.588 10.588H3.997a2 2 0 0 0 0 4h14V8.005a2 2 0 0 0-2-2zm44.006 15.996a2 2 0 0 0 0-4H52.83L63.419 7.413a2 2 0 0 0-2.828-2.828L50.003 15.173V8.005a2 2 0 1 0-4 0V22zM3.997 41.999a2 2 0 0 0 0 4h7.172L.58 56.587a2 2 0 1 0 2.828 2.828l10.588-10.588v7.168a2 2 0 1 0 4 0V42zm48.834 4h7.172a2 2 0 0 0 0-4h-14v13.996a2 2 0 1 0 4 0v-7.168L60.59 59.415a2 2 0 1 0 2.828-2.828z" fill="#202020"/></svg>