<svg xmlns="http://www.w3.org/2000/svg" viewBox="0 0 64 64" aria-labelledby="title" aria-describedby="desc"><path data-name="layer1" d="M43.993 39.242a3 3 0 0 0-4.235.25L37 42.593V21.406l2.758 3.103a3 3 0 0 0 4.484-3.987L34 9 23.758 20.523a3 3 0 0 0 4.484 3.986L31 21.406v21.188l-2.758-3.103a3 3 0 0 0-4.484 3.986L34 55l10.242-11.523a3 3 0 0 0-.249-4.235zM53 5a3 3 0 0 0-3-3H18a3 3 0 0 0 0 6h32a3 3 0 0 0 3-3zm0 54a3 3 0 0 0-3-3H18a3 3 0 0 0 0 6h32a3 3 0 0 0 3-3z" fill="#bacae9"/><path data-name="stroke" d="M43.993 39.242a3 3 0 0 0-4.235.25L37 42.593V21.406l2.758 3.103a3 3 0 0 0 4.484-3.987L34 9 23.758 20.523a3 3 0 0 0 4.484 3.986L31 21.406v21.188l-2.758-3.103a3 3 0 0 0-4.484 3.986L34 55l10.242-11.523a3 3 0 0 0-.249-4.235zM53 5a3 3 0 0 0-3-3H18a3 3 0 0 0 0 6h32a3 3 0 0 0 3-3zm0 54a3 3 0 0 0-3-3H18a3 3 0 0 0 0 6h32a3 3 0 0 0 3-3z" fill="none" stroke="#2e4369" stroke-linecap="round" stroke-linejoin="round" stroke-width="2"/></svg>