<svg xmlns="http://www.w3.org/2000/svg" viewBox="0 0 64 64" aria-labelledby="title" aria-describedby="desc"><path data-name="layer2" d="M41.993 39.243a3 3 0 0 0-4.235.248L35 42.594V21.407l2.758 3.102a3 3 0 0 0 4.484-3.986L32 9 21.758 20.523a3 3 0 0 0 4.484 3.986L29 21.407v21.187l-2.758-3.103a3 3 0 0 0-4.484 3.986L32 55l10.242-11.523a2.999 2.999 0 0 0-.249-4.234z" fill="#202020"/><path data-name="layer1" d="M51 5a3 3 0 0 0-3-3H16a3 3 0 0 0 0 6h32a3 3 0 0 0 3-3zm0 54a3 3 0 0 0-3-3H16a3 3 0 0 0 0 6h32a3 3 0 0 0 3-3z" fill="#202020"/></svg>