<svg xmlns="http://www.w3.org/2000/svg" viewBox="0 0 64 64" aria-labelledby="title" aria-describedby="desc"><path data-name="layer1" d="M32 14.5C12 14.5 2.5 32 2.5 32S12 49.5 32 49.5 61.5 32 61.5 32 52 14.5 32 14.5z" fill="#fff"/><path data-name="opacity" d="M30 17.5C50 17.5 59.5 35 59.5 35a28.2 28.2 0 0 0 2-3S52 14.5 32 14.5 2.9 31.3 2.5 32C6.3 27 15.3 17.5 30 17.5z" fill="#000028" opacity=".15"/><circle data-name="layer3" cx="32" cy="31.5" r="13" fill="#a85d43"/><circle data-name="layer2" cx="32" cy="31.5" r="7" fill="#2e4369"/><circle data-name="layer1" cx="33" cy="30.5" r="2.5" fill="#fff"/><path data-name="stroke" d="M32 14.5C12 14.5 2.5 32 2.5 32S12 49.5 32 49.5 61.5 32 61.5 32 52 14.5 32 14.5z" fill="none" stroke="#2e4369" stroke-linecap="round" stroke-linejoin="round" stroke-width="2"/><circle data-name="stroke" cx="32" cy="31.5" r="13" fill="none" stroke="#2e4369" stroke-linecap="round" stroke-linejoin="round" stroke-width="2"/></svg>