<svg xmlns="http://www.w3.org/2000/svg" viewBox="0 0 64 64" aria-labelledby="title" aria-describedby="desc"><path data-name="layer1" d="M64 29.138c0-2.6-2.9-3.8-3.8-3.8H40.6s1.9-8.3 2-11.2-2.8-9.1-3.4-9.6-3.7-1.1-5.1.5c.1 2.2.4 9 .4 9s-4.6 8.2-7.2 12.3a21.36 21.36 0 0 1-6 6.1v20.7h1.8c.6 0 2.9 2.1 4.6 2.1h24.4c2.1 0 5.6-.2 5.6-3.6a3.286 3.286 0 0 0-1.4-2.8v-.4s3.4-1.1 3.4-4.1a3.006 3.006 0 0 0-1.4-2.5l.2-.8s3.2-1.2 3.2-4.2c0-1.9-1.3-2.2-1.3-2.2l.2-.9c.2-.2 3.4-1.5 3.4-4.6zm-49.1.5H3.2a3.159 3.159 0 0 0-3.2 3.2l2.1 21.3a3.159 3.159 0 0 0 3.2 3.2h9.6a3.159 3.159 0 0 0 3.2-3.2v-21.3a3.222 3.222 0 0 0-3.2-3.2z" fill="#202020"/></svg>