<svg xmlns="http://www.w3.org/2000/svg" viewBox="0 0 64 64" aria-labelledby="title" aria-describedby="desc"><circle data-name="layer2" cx="32" cy="32" r="30" fill="#b3c5e5"/><path data-name="opacity" d="M32 2A29.9 29.9 0 0 0 8.9 12.9a30 30 0 0 1 42.2 42.2A30 30 0 0 0 32 2z" fill="#fff" opacity=".25"/><path data-name="layer1" fill="#fff" d="M48 32L32 21v6.9L22 21v22l10-6.9V43l16-11z"/><path data-name="opacity" fill="#000064" opacity=".16" d="M48 32L32 21v4l13.1 9 2.9-2zm-16-4.1L22 21v4l10 6.9v-4z"/><path data-name="stroke" fill="none" stroke="#2e4369" stroke-linecap="round" stroke-miterlimit="10" stroke-width="2" d="M48 32L32 21v6.9L22 21v22l10-6.9V43l16-11z" stroke-linejoin="round"/><circle data-name="stroke" cx="32" cy="32" r="30" fill="none" stroke="#2e4369" stroke-linecap="round" stroke-miterlimit="10" stroke-width="2" stroke-linejoin="round"/></svg>