<svg viewBox="0 0 64 64" xmlns="http://www.w3.org/2000/svg" aria-labelledby="title" aria-describedby="desc"><path d="M30.084 44h.039l-3.039-2 12.242-1 3.758-11 1 2.927V28h-34v24h25.768l1.145-3.45L30.084 44z" fill="#ebf5ff" data-name="layer2"/><path fill="#7f95ad" d="M45.416 2h-3.332v16.332A1.667 1.667 0 0 1 40.416 20H23.75a1.666 1.666 0 0 1-1.666-1.668V2h-20v50h8V28h34v4.927l.892 2.611L46.842 41l2.115.173 3.127.255V8.666z" data-name="layer3"/><path fill="#ebf5ff" d="M23.666 20h16.666A1.667 1.667 0 0 0 42 18.332V2H22v16.332A1.666 1.666 0 0 0 23.666 20z" data-name="layer2"/><path d="M43 52.885L33.111 60l3.809-11.471L27 42l12.242-1L43 30l3.758 11L59 42l-9.92 6.529L52.889 60 43 52.885z" fill="#fce349" data-name="layer1"/><path d="M34.883 41.37L39.41 41l.874-2.559-2.2-6.441-3.201 9.37zM30.168 44h.039l-.897-.59-7.226.59 7.597 5H6.096V2h-4v50h33.84l1.145-3.45L30.168 44z" opacity=".15" fill="#000064" data-name="opacity"/><path d="M35.768 52H2.084V2h43.332l6.668 6.666v32.769" stroke-width="2" stroke-miterlimit="10" stroke-linecap="round" stroke="#2e4369" fill="none" data-name="stroke" stroke-linejoin="round"/><path d="M44.084 33.173V28h-34v24m24-42v4m8-12v16.332A1.667 1.667 0 0 1 40.416 20H23.75a1.666 1.666 0 0 1-1.666-1.668V2" stroke-width="2" stroke-miterlimit="10" stroke-linecap="round" stroke="#2e4369" fill="none" data-name="stroke" stroke-linejoin="round"/><path d="M43 52.885L33.111 60l3.809-11.471L27 42l12.242-1L43 30l3.758 11L59 42l-9.92 6.529L52.889 60 43 52.885z" stroke-width="2" stroke-miterlimit="10" stroke-linecap="round" stroke="#2e4369" fill="none" data-name="stroke" stroke-linejoin="round"/></svg>