<svg xmlns="http://www.w3.org/2000/svg" viewBox="0 0 64 64" aria-labelledby="title" aria-describedby="desc"><path data-name="layer2" d="M32 2a20 20 0 0 0-20 20c0 18 20 40 20 40s20-22 20-40A20 20 0 0 0 32 2z" fill="#ff9"/><path data-name="opacity" d="M15 19a19.9 19.9 0 0 1 4.4-12.6A20 20 0 0 0 12 22c0 18 20 40 20 40l2.8-3.3C32.5 56.2 15 35.8 15 19z" fill="#000032" opacity=".2"/><path data-name="layer1" fill="#fc6" d="M32 28.7l-7.4 5.4 2.8-8.7L20 20h9.2l2.8-8.7 2.8 8.7H44l-7.4 5.4 2.8 8.7-7.4-5.4z"/><path data-name="stroke" d="M32 2a20 20 0 0 0-20 20c0 18 20 40 20 40s20-22 20-40A20 20 0 0 0 32 2z" fill="none" stroke="#2e4369" stroke-linecap="round" stroke-linejoin="round" stroke-width="2"/><path data-name="stroke" fill="none" stroke="#2e4369" stroke-linecap="round" stroke-linejoin="round" stroke-width="2" d="M32 28.7l-7.4 5.4 2.8-8.7L20 20h9.2l2.8-8.7 2.8 8.7H44l-7.4 5.4 2.8 8.7-7.4-5.4z"/></svg>