<svg viewBox="0 0 64 64" xmlns="http://www.w3.org/2000/svg" aria-labelledby="title" aria-describedby="desc"><path d="M46 50.887L36.113 58l3.809-11.469L30 40h12.242L46 28l3.758 12H62l-9.918 6.531L55.891 58 46 50.887z" fill="#202020" data-name="layer3"/><path fill="#202020" d="M34.557 50l.6-1.815-7.357-4.844A4 4 0 0 1 30 36h9.3l2.881-9.2a4 4 0 0 1 7.635 0L52.7 36H54V20H2v30h32.557z" data-name="layer2"/><path fill="#202020" d="M2 6v10h52V6zm6 7a2 2 0 1 1 2-2 2 2 0 0 1-2 2zm6 0a2 2 0 1 1 2-2 2 2 0 0 1-2 2zm6 0a2 2 0 1 1 2-2 2 2 0 0 1-2 2z" data-name="layer1"/></svg>