<svg xmlns="http://www.w3.org/2000/svg" viewBox="0 0 64 64" aria-labelledby="title" aria-describedby="desc"><path data-name="layer2" d="M16 11h-6V3a2 2 0 0 0-4 0v8a4 4 0 0 0-4 4v44a4 4 0 0 0 4 4h10a4 4 0 0 0 4-4V15a4 4 0 0 0-4-4z" fill="#202020"/><path data-name="layer1" fill="#202020" d="M58 9l-6-6H26v12h32V9zm0 10H24v44h34a4 4 0 0 0 4-4V23a4 4 0 0 0-4-4zM36.4 58.4a2 2 0 0 1-1.4.6 2.1 2.1 0 0 1-1.4-.6A2 2 0 0 1 33 57a2 2 0 0 1 .6-1.4 2.1 2.1 0 0 1 2.8 0 2 2 0 0 1 0 2.8zm0-8a2 2 0 0 1-1.4.6 2.1 2.1 0 0 1-1.4-.6A2 2 0 0 1 33 49a2 2 0 0 1 .6-1.4 2.1 2.1 0 0 1 2.8 0 2 2 0 0 1 0 2.8zm0-8a2 2 0 0 1-1.4.6 2.1 2.1 0 0 1-1.4-.6A2 2 0 0 1 33 41a2 2 0 0 1 .6-1.4 2.1 2.1 0 0 1 2.8 0A2 2 0 0 1 37 41a2 2 0 0 1-.6 1.4zm8 16a2 2 0 0 1-1.4.6 2.1 2.1 0 0 1-1.4-.6 2 2 0 0 1 0-2.8 2.1 2.1 0 0 1 2.8 0A2 2 0 0 1 45 57a2 2 0 0 1-.6 1.4zm0-8a2 2 0 0 1-1.4.6 2.1 2.1 0 0 1-1.4-.6A2 2 0 0 1 41 49a2 2 0 0 1 .6-1.4 2.1 2.1 0 0 1 2.8 0A2 2 0 0 1 45 49a2 2 0 0 1-.6 1.4zm0-8a2 2 0 0 1-2.8 0A2 2 0 0 1 41 41a2 2 0 0 1 .6-1.4 2.1 2.1 0 0 1 2.8 0 2 2 0 0 1 0 2.8zm8 16a2 2 0 0 1-1.4.6 2.1 2.1 0 0 1-1.4-.6 2 2 0 0 1 0-2.8 2.1 2.1 0 0 1 2.8 0A2 2 0 0 1 53 57a2 2 0 0 1-.6 1.4zm0-8a2 2 0 0 1-1.4.6 2.1 2.1 0 0 1-1.4-.6A2 2 0 0 1 49 49a2 2 0 0 1 .6-1.4 2.1 2.1 0 0 1 2.8 0A2 2 0 0 1 53 49a2 2 0 0 1-.6 1.4zm0-8a2 2 0 0 1-1.4.6 2.1 2.1 0 0 1-1.4-.6 2 2 0 0 1 0-2.8 2.1 2.1 0 0 1 2.8 0 2 2 0 0 1 0 2.8zM54 35H32v-8h22z"/></svg>