<svg xmlns="http://www.w3.org/2000/svg" viewBox="0 0 64 64" aria-labelledby="title" aria-describedby="desc"><path data-name="layer2" d="M45.9 31.9l-16 30h32zm1.4 25.4a2 2 0 0 1-2.8 0 2 2 0 0 1-.6-1.4 2.1 2.1 0 0 1 .6-1.4 2.1 2.1 0 0 1 2.8 0 2.1 2.1 0 0 1 .6 1.4 2 2 0 0 1-.6 1.5zm-1.4-5.4a2 2 0 0 1-2-2v-6a2 2 0 1 1 4 0v6a2 2 0 0 1-2 2z" fill="#202020"/><path data-name="layer1" d="M36.7 40.7l-1.8-.6c-4.3-1.5-4.7-2.8-4.7-4.1v-2a58.7 58.7 0 0 0 11.1-1.8l.4-.7c-3.1-2.9-5.5-4.5-5.5-17.5S28.9 1.2 22.1 2.4 12.1 8 12.1 14c0 13.7-2.7 14.7-6 18a61.4 61.4 0 0 0 12 2v2c0 1.6-.5 3.5-8.6 5.2A9.2 9.2 0 0 0 2.1 50h29.6z" fill="#202020"/></svg>