<svg xmlns="http://www.w3.org/2000/svg" viewBox="0 0 64 64" aria-labelledby="title" aria-describedby="desc"><path data-name="layer3" d="M45 2a17 17 0 0 0-13.918 26.764l.008.008c2.02-1.9 4.709-2.345 6.1-.958 1.335 1.335.966 3.875-.758 5.866l.014.013A17 17 0 1 0 45 2z" fill="#e26076"/><circle data-name="layer2" cx="45" cy="19" r="8" fill="#ff8181"/><ellipse data-name="layer1" cx="18.5" cy="29.5" rx="5.213" ry="3.649" transform="rotate(-45 18.5 29.5)" fill="#8191b3"/><ellipse data-name="layer1" cx="39.5" cy="44.5" rx="5.213" ry="3.649" transform="rotate(-45 39.5 44.5)" fill="#8191b3"/><ellipse data-name="layer1" cx="33.5" cy="31.5" rx="5.213" ry="3.649" transform="rotate(-45 33.5 31.5)" fill="#8191b3"/><circle data-name="stroke" cx="45" cy="19" r="8" fill="none" stroke="#2e4369" stroke-linecap="round" stroke-miterlimit="10" stroke-width="2" stroke-linejoin="round"/><ellipse data-name="stroke" cx="18.5" cy="29.5" rx="5.213" ry="3.649" transform="rotate(-45 18.5 29.5)" fill="none" stroke="#2e4369" stroke-linecap="round" stroke-miterlimit="10" stroke-width="2" stroke-linejoin="round"/><path data-name="stroke" d="M2 47c0-3 .478-6 5-6 5 0 4.263-3.237 4.981-5.628.4-1.326 2.074-2.044 2.742-2.281" fill="none" stroke="#2e4369" stroke-linecap="round" stroke-miterlimit="10" stroke-width="2" stroke-linejoin="round"/><ellipse data-name="stroke" cx="39.5" cy="44.5" rx="5.213" ry="3.649" transform="rotate(-45 39.5 44.5)" fill="none" stroke="#2e4369" stroke-linecap="round" stroke-miterlimit="10" stroke-width="2" stroke-linejoin="round"/><path data-name="stroke" d="M23 62c0-3 .478-6 5-6 5 0 4.263-3.237 4.981-5.628.4-1.326 2.074-2.044 2.742-2.281m-4.641-19.327a16.985 16.985 0 1 1 5.36 4.928" fill="none" stroke="#2e4369" stroke-linecap="round" stroke-miterlimit="10" stroke-width="2" stroke-linejoin="round"/><ellipse data-name="stroke" cx="33.5" cy="31.5" rx="5.213" ry="3.649" transform="rotate(-45 33.5 31.5)" fill="none" stroke="#2e4369" stroke-linecap="round" stroke-miterlimit="10" stroke-width="2" stroke-linejoin="round"/><path data-name="stroke" d="M17 49c0-3 .478-6 5-6 5 0 4.263-3.237 4.981-5.628.4-1.326 2.074-2.044 2.742-2.281" fill="none" stroke="#2e4369" stroke-linecap="round" stroke-miterlimit="10" stroke-width="2" stroke-linejoin="round"/></svg>