<svg xmlns="http://www.w3.org/2000/svg" viewBox="0 0 64 64" aria-labelledby="title" aria-describedby="desc"><circle data-name="layer2" cx="45" cy="19" r="8" fill="none" stroke="#202020" stroke-linecap="round" stroke-miterlimit="10" stroke-width="2" stroke-linejoin="round"/><ellipse data-name="layer1" cx="18.5" cy="29.5" rx="5.213" ry="3.649" transform="rotate(-45 18.5 29.5)" fill="none" stroke="#202020" stroke-linecap="round" stroke-miterlimit="10" stroke-width="2" stroke-linejoin="round"/><path data-name="layer1" d="M2 47c0-3 .478-6 5-6 5 0 4.263-3.237 4.981-5.628.4-1.326 2.074-2.044 2.742-2.281" fill="none" stroke="#202020" stroke-linecap="round" stroke-miterlimit="10" stroke-width="2" stroke-linejoin="round"/><ellipse data-name="layer1" cx="39.5" cy="44.5" rx="5.213" ry="3.649" transform="rotate(-45 39.5 44.5)" fill="none" stroke="#202020" stroke-linecap="round" stroke-miterlimit="10" stroke-width="2" stroke-linejoin="round"/><path data-name="layer1" d="M23 62c0-3 .478-6 5-6 5 0 4.263-3.237 4.981-5.628.4-1.326 2.074-2.044 2.742-2.281" fill="none" stroke="#202020" stroke-linecap="round" stroke-miterlimit="10" stroke-width="2" stroke-linejoin="round"/><path data-name="layer2" d="M31.082 28.764a16.985 16.985 0 1 1 5.36 4.928" fill="none" stroke="#202020" stroke-linecap="round" stroke-miterlimit="10" stroke-width="2" stroke-linejoin="round"/><ellipse data-name="layer1" cx="33.5" cy="31.5" rx="5.213" ry="3.649" transform="rotate(-45 33.5 31.5)" fill="none" stroke="#202020" stroke-linecap="round" stroke-miterlimit="10" stroke-width="2" stroke-linejoin="round"/><path data-name="layer1" d="M17 49c0-3 .478-6 5-6 5 0 4.263-3.237 4.981-5.628.4-1.326 2.074-2.044 2.742-2.281" fill="none" stroke="#202020" stroke-linecap="round" stroke-miterlimit="10" stroke-width="2" stroke-linejoin="round"/></svg>