<svg xmlns="http://www.w3.org/2000/svg" viewBox="0 0 64 64" aria-labelledby="title" aria-describedby="desc"><rect data-name="layer1" x="8" y="2" width="48" height="60" rx="6" ry="6" fill="#8fa9d8"/><path data-name="opacity" d="M20 58a6 6 0 0 1-6-6V4a6 6 0 0 1 .3-2H14a6 6 0 0 0-6 6v48a6 6 0 0 0 6 6h36a6 6 0 0 0 5.7-4z" fill="#000064" opacity=".15"/><path data-name="opacity" fill="#fff" opacity=".25" d="M14 22h42v3H14zm0 20h42v3H14z"/><rect data-name="stroke" x="8" y="2" width="48" height="60" rx="6" ry="6" fill="none" stroke="#2e4369" stroke-linecap="round" stroke-miterlimit="10" stroke-width="2" stroke-linejoin="round"/><path data-name="stroke" fill="none" stroke="#2e4369" stroke-linecap="round" stroke-miterlimit="10" stroke-width="2" d="M8 22h48M8 42h48M26 12v-2h12v2M26 32v-2h12v2M26 52v-2h12v2" stroke-linejoin="round"/></svg>