<svg xmlns="http://www.w3.org/2000/svg" viewBox="0 0 64 64" aria-labelledby="title" aria-describedby="desc"><path data-name="layer2" fill="#fff" d="M2 10v18h26V10"/><path data-name="layer1" fill="#a6b1c9" d="M2 2h26v8H2z"/><path data-name="layer2" fill="#fff" d="M36 10v18h26V10"/><path data-name="layer1" fill="#a6b1c9" d="M36 2h26v8H36z"/><path data-name="layer2" fill="#fff" d="M2 44v18h26V44"/><path data-name="layer1" fill="#a6b1c9" d="M2 36h26v8H2z"/><path data-name="layer2" fill="#fff" d="M36 44v18h26V44"/><path data-name="layer1" fill="#a6b1c9" d="M36 36h26v8H36z"/><path data-name="opacity" fill="#000064" opacity=".15" d="M2 2h4v26H2zm34 0h4v26h-4zM2 36h4v26H2zm34 0h4v26h-4z"/><path data-name="stroke" fill="none" stroke="#2e4369" stroke-linecap="round" stroke-linejoin="round" stroke-width="2" d="M2 10v18h26V10M2 2h26v8H2zm34 8v18h26V10M36 2h26v8H36zM2 44v18h26V44M2 36h26v8H2zm34 8v18h26V44m-26-8h26v8H36z"/></svg>