<svg xmlns="http://www.w3.org/2000/svg" viewBox="0 0 64 64" aria-labelledby="title" aria-describedby="desc"><path data-name="layer1" d="M10 48V19h38v-8H20V7H2v41a3 3 0 0 0 3 3h2a3 3 0 0 0 3-3z" fill="#f8da82"/><path data-name="opacity" d="M10 48V19h38v-8H20V7H2v41a3 3 0 0 0 3 3h2a3 3 0 0 0 3-3z" fill="#000064" opacity=".15"/><path data-name="opacity" fill="#fff" opacity=".2" d="M10 19h44v3H10z"/><circle data-name="layer2" cx="46" cy="43" r="10" fill="#fff"/><path data-name="opacity" d="M45 35a10 10 0 0 1 9.4 13.5 10 10 0 1 0-17.7-8.9A10 10 0 0 1 45 35z" fill="#000064" opacity=".1"/><path data-name="layer1" d="M36 43a10 10 0 0 1 18-6V19H10v29a3 3 0 0 1-3 3h33a10 10 0 0 1-4-8z" fill="#f8da82"/><path data-name="opacity" d="M31 45a9.9 9.9 0 0 0 2 6h7a10 10 0 0 1-.1-15.9A10 10 0 0 0 31 45z" fill="#000064" opacity=".15"/><path data-name="stroke" d="M54 37V19H10v29a3 3 0 0 1-3 3" fill="none" stroke="#2e4369" stroke-linecap="round" stroke-miterlimit="10" stroke-width="2" stroke-linejoin="round"/><path data-name="stroke" d="M48 19v-8H20V7H2v41a3 3 0 0 0 3 3h35" fill="none" stroke="#2e4369" stroke-linecap="round" stroke-miterlimit="10" stroke-width="2" stroke-linejoin="round"/><circle data-name="stroke" cx="46" cy="43" r="10" fill="none" stroke="#2e4369" stroke-linecap="round" stroke-miterlimit="10" stroke-width="2" stroke-linejoin="round"/><path data-name="stroke" fill="none" stroke="#2e4369" stroke-linecap="round" stroke-miterlimit="10" stroke-width="2" d="M53.1 50.1L62 59" stroke-linejoin="round"/></svg>