<svg xmlns="http://www.w3.org/2000/svg" viewBox="0 0 64 64" aria-labelledby="title" aria-describedby="desc"><path data-name="layer1" d="M55.111 47.566c1.8-3.283 4.193-5.272 5.491-7.461 1.7-2.984 4.992-11.539 2.5-18.4 1.1 4.278.8 8.655-2.8 10.843 1.1-2.984 1.9-9.749.7-15.718-.8-3.88-3.195-7.361-4.792-8.456 1.5 1.094 2.7 5.073 2.6 6.864A26.409 26.409 0 0 0 43.03 3c5.89 3.88 8.087 7.162 9.485 10.047-1.6-1.592-4.293-3.283-6.09-3.382 2.7 1.99 7.288 8.058 6.789 17.11a18.087 18.087 0 0 0-2.9-4.576c1 8.953.1 10.843-.5 13.231a7.67 7.67 0 0 0-.7-2.387 19.945 19.945 0 0 1-1.9 6.765c-1.4 2.984-2.8 3.979-3.394 3.88s-.2-.6-.3-1.194a11.592 11.592 0 0 0-1.9 1.393c-.9.9-1.7 1.99-2.1 1.691a10.422 10.422 0 0 0 .8-1.094 6.874 6.874 0 0 1-3.195 1.194 14.63 14.63 0 0 1-8.886-1.592 4.306 4.306 0 0 1 2.5.1c-.8-.8-2.6-.7-3.994-1.094-1.2-.4-2.7-1.99-3.594-2.785a12.36 12.36 0 0 0 9.485-1.293c2.2-1.492 3.494-2.586 4.692-2.387 1.2.3 2-.9 1-1.99a6.086 6.086 0 0 0-6.09-1.691c-2.6.6-4.692 2.885-8.686.5-3.394-1.99-3.394-3.681-3.394-4.675a2.617 2.617 0 0 1 1.3-2.189 5.948 5.948 0 0 0 .7.3s-.2-.3-.3-.5h.1a10.417 10.417 0 0 1 1.6.6c.6.3.7.6.7.6s.1-.1 0-.4a2.8 2.8 0 0 0-.8-.8 4.051 4.051 0 0 1 .9.5 4.947 4.947 0 0 0 .2-1.89 4.035 4.035 0 0 0-.2-.995c-.1-.2 0-.3.2-.1-.1-.1-.1-.3-.2-.5.2-.8 4.792-3.183 5.092-3.382a3.823 3.823 0 0 0 1.3-1.492 3.052 3.052 0 0 0 .3-1.791c0-.6-.4-.9-5.291-.9a3.71 3.71 0 0 1-2.8-1.492c-.1-.2-.2-.3-.3-.5a2.173 2.173 0 0 0-.3-.5 10.994 10.994 0 0 1 3.594-5.471c.1-.1-.4.1-.3 0s.9-.5 1-.6c.2-.1-.8-.4-1.7-.2a5.04 5.04 0 0 0-1.5.5c.2-.2.8-.5.6-.5a11.031 11.031 0 0 0-3.095 1.492v-.3a4.192 4.192 0 0 0-1.8 1.691v-.4a8.98 8.98 0 0 0-.9.995 14.116 14.116 0 0 0-7.388.1 7.789 7.789 0 0 1-2.5-2.785c0 .2 0 .6-.1.4a7.4 7.4 0 0 1-.9-3.382 3.8 3.8 0 0 0-1.3 2.089 3.9 3.9 0 0 0-.2.6v-.5a9.23 9.23 0 0 0-.5.995 1.434 1.434 0 0 0-.2.7v-.3a10.251 10.251 0 0 0-.7 2.089 15.255 15.255 0 0 0-.3 5.073v.5a18.168 18.168 0 0 0-1.5 2.387A34.483 34.483 0 0 0 0 27.571a16.273 16.273 0 0 1 1.6-3.482c-.8 2.388-1.4 5.969-1 11.54a29.689 29.689 0 0 1 .6-3.382 28.841 28.841 0 0 0 3.892 13.031c2.2 3.681 7.887 12.335 22.264 15.519a7.615 7.615 0 0 1-2.6-1.393A35.682 35.682 0 0 0 34.045 61c-1.2-.2-1.5-.8-1.5-.8s13.877.8 18.77-5.77c-1.7 1.89-5.791 2.487-7.388 2.487 2.4-2.189 7.688-2.189 13.478-7.759A11.153 11.153 0 0 0 61.2 41.5c-.5 2.783-3.294 4.574-6.089 6.066z" fill="#202020"/></svg>