<svg xmlns="http://www.w3.org/2000/svg" viewBox="0 0 64 64" aria-labelledby="title" aria-describedby="desc"><path data-name="layer2" d="M44 19.2L32 8v10.3m12 26.8L30 56V45.2" fill="#7c8cb0"/><path data-name="opacity" fill="#101129" opacity=".25" d="M44 45.1L30 56V45.2"/><path data-name="layer2" d="M62 34c-2-6-12.3-16-26-16a27.6 27.6 0 0 0-24 14C8 40 2 42 2 42V22s6 2 10 10c2.5 5.1 12.9 14 24 14s24-6 26-12z" fill="#7c8cb0"/><path data-name="opacity" d="M2 39V22v20s6-2 10-10l-.8-1.5C7.2 37.3 2 39 2 39zm34 4c-10.1 0-19.6-7.4-23.1-12.5L12 32c2.5 5.1 12.9 14 24 14s24-6 26-12a11.7 11.7 0 0 0-.7-1.6C58 37.9 46.2 43 36 43z" fill="#101129" opacity=".25"/><circle data-name="layer1" cx="49" cy="31" r="1" fill="#536998"/><path data-name="stroke" d="M62 34c-2-6-12.3-16-26-16a27.6 27.6 0 0 0-24 14C8 40 2 42 2 42V22s6 2 10 10c2.5 5.1 12.9 14 24 14s24-6 26-12z" fill="none" stroke="#2f446a" stroke-linecap="round" stroke-linejoin="round" stroke-width="2"/><circle data-name="stroke" cx="49" cy="31" r="1" fill="none" stroke="#2f446a" stroke-linecap="round" stroke-linejoin="round" stroke-width="2"/><path data-name="stroke" d="M44 19.2L32 8v10.3m12 26.8L30 56V45.2" fill="none" stroke="#2f446a" stroke-linecap="round" stroke-linejoin="round" stroke-width="2"/></svg>