<svg viewBox="0 0 64 64" xmlns="http://www.w3.org/2000/svg" aria-labelledby="title" aria-describedby="desc"><path d="M10 6h22.002v29.998H10z" fill="#f27e7c" data-name="layer2"/><path d="M32 14v22h.002L22 44h36V14H32z" fill="#f27e7c" data-name="layer2"/><path d="M22 36v7.998L32.002 36H22z" fill="#ee5451" data-name="layer1"/><path opacity=".15" data-name="opacity" d="M24.501 42L22 44h36v-2H24.501zM22 43.998L24.498 42H24l7.091-6L37 31V14h-5v20H10v2h12v7.998z" fill="#000064"/><path d="M9.915 6.02h22.001v29.999H9.915" stroke-width="2" stroke-linejoin="round" stroke-linecap="round" stroke="#2e4369" fill="none" data-name="stroke"/><path d="M31.916 14.02h25.999v29.999h-36v-8M9.919 2.021v60m21.997-26.002l-10.001 8" stroke-width="2" stroke-linejoin="round" stroke-linecap="round" stroke="#2e4369" fill="none" data-name="stroke"/></svg>