<svg viewBox="0 0 64 64" xmlns="http://www.w3.org/2000/svg" aria-labelledby="title" aria-describedby="desc"><path d="M35.5 43.25L58 20.75l-18.748-1.253L39.25 2l-17.5 17.5 13.375 13.375.375 10.375z" fill="#f27e7c" data-name="layer2"/><path d="M4.248 27.001l12.503-12.5 18.748 18.75-12.502 12.5z" fill="#f27e7c" data-name="layer2"/><path d="M35.5 43.25v-10L30 39l5.5 4.25z" fill="#e05653" data-name="layer1"/><path d="M35.125 32.875l.027.739L30 39l5.5 4.25.5-.5V24l-9.375-9.375L21.75 19.5l13.375 13.375z" opacity=".15" fill="#000064" data-name="opacity"/><path d="M4.248 27.001l12.502-12.5L35.5 33.25 22.998 45.751" stroke-width="2" stroke-linejoin="round" stroke-linecap="round" stroke="#2e4369" fill="none" data-name="stroke"/><path d="M21.75 19.5L39.25 2l.002 17.497L58 20.75l-22.5 22.5-5.002-5m5.002-5v10M1.752 24.5l37.5 37.5" stroke-width="2" stroke-linejoin="round" stroke-linecap="round" stroke="#2e4369" fill="none" data-name="stroke"/></svg>