<svg xmlns="http://www.w3.org/2000/svg" viewBox="0 0 64 64" aria-labelledby="title" aria-describedby="desc"><path data-name="layer2" d="M23-.006c-15.2 0-23 8.8-23 25.1v34.3l14.9-14.9v-17.4c0-6.8 1.8-11.1 7.8-12.1a68.2 68.2 0 0 1 9.3-.3v10.6a.961.961 0 0 0 .9.7.755.755 0 0 0 .7-.4l25.9-25.6H23z" fill="#f49f22"/><path data-name="layer1" d="M49.1 19.494v17.4c0 6.8-1.8 11.1-7.8 12.1a68.2 68.2 0 0 1-9.3.3v-10.7a.961.961 0 0 0-.9-.7.755.755 0 0 0-.7.4l-25.9 25.7H41c15.2 0 23-8.8 23-25.1v-34.3z" fill="#84bc33"/></svg>