<svg xmlns="http://www.w3.org/2000/svg" viewBox="0 0 64 64" aria-labelledby="title" aria-describedby="desc"><path data-name="layer1" d="M27.9 45.4c-.9-4.3-3.7-14.7-3.2-21.4s4.4-22.7-10-22C10.5 2.3.5 3.6 2.2 18.4s8 33.5 15.5 35.3 11-4 10.2-8.3zm22.7-33.2C36.2 9.9 38.3 25.8 38 32.4s-4.3 16.3-5.7 20.4 1.5 10 9.3 9.1 16.3-18.3 19.7-32.5-6.5-16.5-10.7-17.2z" fill="#99d366"/><path data-name="opacity" d="M41.1 22.5c.2-3.7 1-7.5 3.2-9.9-7.4 2.8-6.1 14.4-6.3 19.8s-4.3 16.3-5.7 20.4 1.5 10 9.3 9.1a9.3 9.3 0 0 0 4.9-2.5 6.7 6.7 0 0 1-1.9.5c-7.8.9-10.6-5-9.3-9.1S40.7 37 41 30.4v-3.1C53.7 31.8 49.1 47 51 48c0 0 2-1 2-2 3.4-15.1-8.1-21.8-11.9-23.5zM20.7 51.7C14.1 50.1 8.4 35.5 6 22c10-5 15 13 16 12s1-2 0-3C18.4 16.6 7.5 17.6 5.4 17.9l-.2-1.5c-.8-6.8.9-10.7 3.3-13-3.8 1.7-7.4 5.7-6.3 15 1.7 14.8 8 33.5 15.5 35.3 4 .9 6.8-.2 8.5-2.1a9.7 9.7 0 0 1-5.5.1z" fill="#000064" opacity=".15"/><path data-name="stroke" d="M27.9 45.4c-.9-4.3-3.7-14.7-3.2-21.4s4.4-22.7-10-22C10.5 2.3.5 3.6 2.2 18.4s8 33.5 15.5 35.3 11-4 10.2-8.3zm22.7-33.2C36.2 9.9 38.3 25.8 38 32.4s-4.3 16.3-5.7 20.4 1.5 10 9.3 9.1 16.3-18.3 19.7-32.5-6.5-16.5-10.7-17.2z" fill="none" stroke="#2e4369" stroke-linecap="round" stroke-linejoin="round" stroke-width="2"/><path data-name="stroke" d="M14 10c.8 2.1-1.5 5.3-4 8s-7.5 12.1 0 20m12-4s5.2-13.4-8.2-21.4m36.6 7.2c-1 2 .9 5.3 3.1 8.3s6.2 12.7-2.3 19.6m-11.7-5.2s-3.7-13.7 10.8-20" fill="none" stroke="#2e4369" stroke-linecap="round" stroke-linejoin="round" stroke-width="2"/></svg>