<svg xmlns="http://www.w3.org/2000/svg" viewBox="0 0 64 64" aria-labelledby="title" aria-describedby="desc"><path data-name="layer1" fill="#ebf5ff" d="M12 2h40v8H12z"/><path data-name="layer2" fill="#7f95ad" d="M62 2H52v8H12V2H2v52l8 8h2V50h40v12h10V2z"/><path data-name="layer1" fill="#ebf5ff" d="M12 50h40v12H12z"/><path data-name="opacity" fill="#000064" opacity=".15" d="M56 59H14l-8-8V2H2v52l8 8h52v-3h-6z"/><circle data-name="layer1" cx="32" cy="30" r="12" fill="#ebf5ff"/><path data-name="stroke" fill="none" stroke="#2e4369" stroke-linecap="round" stroke-miterlimit="10" stroke-width="2" d="M12 62V50h40v12M12 2v8h40V2" stroke-linejoin="round"/><path data-name="stroke" fill="none" stroke="#2e4369" stroke-linecap="round" stroke-miterlimit="10" stroke-width="2" d="M10 62l-8-8V2h60v60H10z" stroke-linejoin="round"/><circle data-name="stroke" cx="32" cy="30" r="12" fill="none" stroke="#2e4369" stroke-linecap="round" stroke-miterlimit="10" stroke-width="2" stroke-linejoin="round"/><circle data-name="stroke" cx="32" cy="30" r="1" fill="none" stroke="#2e4369" stroke-linecap="round" stroke-miterlimit="10" stroke-width="2" stroke-linejoin="round"/></svg>