<svg xmlns="http://www.w3.org/2000/svg" viewBox="0 0 64 64" aria-labelledby="title" aria-describedby="desc"><path data-name="layer2" fill="#202020" d="M14.047 19.998h36v24h-36z"/><path data-name="layer1" d="M2.002 17.998a2 2 0 0 0 2-2V4.002h18a2 2 0 0 0 0-4h-22v15.996a2 2 0 0 0 2 2zM41.998.002a2 2 0 0 0 0 4h18v11.996a2 2 0 0 0 4 0V.002zM22.002 59.998h-18V48.002a2 2 0 1 0-4 0v15.996h22a2 2 0 0 0 0-4zm39.996-13.996a2 2 0 0 0-2 2v11.996h-18a2 2 0 0 0 0 4h22V48.002a2 2 0 0 0-2-2z" fill="#202020"/></svg>