<svg xmlns="http://www.w3.org/2000/svg" viewBox="0 0 64 64" aria-labelledby="title" aria-describedby="desc"><path data-name="layer1" d="M24 14V8H2v46a2 2 0 0 0 2 2h56a2 2 0 0 0 2-2V14zm14.6 32.3A13.7 13.7 0 0 1 32 48a13.9 13.9 0 0 1-9.9-4.1 14.1 14.1 0 0 1-4-10l-1.5 1.5a2 2 0 1 1-2.8-2.8l6.2-6.3 6.2 6.3a2 2 0 0 1-2.8 2.8l-1.2-1.2a10.1 10.1 0 0 0 2.8 6.9 9.8 9.8 0 0 0 11.7 1.7 2 2 0 1 1 1.9 3.5zm11.6-10.9L44 41.7l-6.2-6.3a2 2 0 0 1 2.8-2.8l1.2 1.2a10.1 10.1 0 0 0-2.8-6.9 9.9 9.9 0 0 0-11.7-1.7 2 2 0 0 1-1.9-3.5 13.9 13.9 0 0 1 16.4 2.4 14.1 14.1 0 0 1 4 10l1.5-1.5a2 2 0 1 1 2.8 2.8z" fill="#202020"/></svg>