<svg xmlns="http://www.w3.org/2000/svg" viewBox="0 0 64 64" aria-labelledby="title" aria-describedby="desc"><path data-name="layer1" d="M30.249 17.927l12.14 20.234a23.676 23.676 0 0 0 3.524 4.933l15.5 15.5a1.993 1.993 0 0 1 0 2.819 1.993 1.993 0 0 1-2.819 0l-15.5-15.5a31.644 31.644 0 0 0-4.933-3.524l-20.234-12.14-.03-1.421L28.827 17.9z" fill="#8695b6"/><path data-name="opacity" d="M17.927 30.249l20.234 12.14a31.643 31.643 0 0 1 4.933 3.524l15.5 15.5a1.993 1.993 0 0 0 2.819 0L23.362 23.362 17.9 28.827z" fill="#000064" opacity=".16"/><path data-name="stroke" d="M17.927 30.249l20.234 12.14a31.644 31.644 0 0 1 4.933 3.524l15.5 15.5a1.993 1.993 0 0 0 2.819 0 1.993 1.993 0 0 0 0-2.819l-15.5-15.5a23.676 23.676 0 0 1-3.524-4.933l-12.14-20.234m-1.422-.03l-10.93 10.93" fill="none" stroke="#2e4369" stroke-linecap="round" stroke-miterlimit="10" stroke-width="2" stroke-linejoin="round"/><circle data-name="stroke" cx="29.705" cy="9.973" r="7.973" transform="rotate(-45 29.704 9.973)" fill="none" stroke="#2e4369" stroke-linecap="round" stroke-miterlimit="10" stroke-width="2" stroke-linejoin="round"/><circle data-name="stroke" cx="9.973" cy="29.705" r="7.973" transform="rotate(-45 9.973 29.704)" fill="none" stroke="#2e4369" stroke-linecap="round" stroke-miterlimit="10" stroke-width="2" stroke-linejoin="round"/></svg>