<svg xmlns="http://www.w3.org/2000/svg" viewBox="0 0 64 64" aria-labelledby="title" aria-describedby="desc"><path data-name="layer1" d="M47.879 38.878a3 3 0 0 0 0 4.243L50.756 46h-8.514l-15-15 15-15h8.515l-2.88 2.879a3 3 0 1 0 4.243 4.242L62 13 52.121 2.879A3 3 0 1 0 47.88 7.12L50.758 10h-11l-18 18H5a3 3 0 0 0 0 6h16.758l18 18h11l-2.88 2.878a3 3 0 0 0 4.243 4.244L62 49l-9.878-10.121a3 3 0 0 0-4.243 0z" fill="#bacae9"/><path data-name="stroke" d="M47.879 38.878a3 3 0 0 0 0 4.243L50.756 46h-8.514l-15-15 15-15h8.515l-2.88 2.879a3 3 0 1 0 4.243 4.242L62 13 52.121 2.879A3 3 0 1 0 47.88 7.12L50.758 10h-11l-18 18H5a3 3 0 0 0 0 6h16.758l18 18h11l-2.88 2.878a3 3 0 0 0 4.243 4.244L62 49l-9.878-10.121a3 3 0 0 0-4.243 0z" fill="none" stroke="#2e4369" stroke-linecap="round" stroke-linejoin="round" stroke-width="2"/></svg>