<svg viewBox="0 0 64 64" xmlns="http://www.w3.org/2000/svg" aria-labelledby="title" aria-describedby="desc"><path stroke-width="2" stroke-miterlimit="10" stroke-linecap="round" stroke="#202020" fill="none" d="M32.6 16.1A15.1 15.1 0 0 1 44 11h5.8l-2.9-2.9L51 4l10 10-9.9 10.1-4.2-4.2 2.9-2.9h-6.4a7.9 7.9 0 0 0-6.1 2.8L30.6 29a17.2 17.2 0 0 1-2.8 3 17.2 17.2 0 0 1 2.8 3l6.7 9.2a7.9 7.9 0 0 0 6.1 2.8h6.3l-2.9-2.9 4.2-4.2L61 50 51 60l-4.1-4.1 2.9-2.9h-6.4a14 14 0 0 1-10.8-5.1l-6.9-9.5A8.3 8.3 0 0 0 19 35H2v-6h17a8.3 8.3 0 0 0 6.7-3.4z" data-name="layer1" stroke-linejoin="round"/></svg>