<svg xmlns="http://www.w3.org/2000/svg" viewBox="0 0 64 64" aria-labelledby="title" aria-describedby="desc"><path data-name="layer2" d="M53.4 0l-2.6 2.6-.4-.4a7.4 7.4 0 0 0-10.5 0L25.7 16.4a2 2 0 1 0 2.8 2.8L42.7 5a3.5 3.5 0 0 1 4.8 0l.4.4-10 10.1 10.6 10.6L64 10.6z" fill="#202020"/><path data-name="layer1" d="M11.4 42l1.3 1.3h-.9a8.9 8.9 0 0 0-6.4 2.6l-.8.9a8.9 8.9 0 0 0-1.4 2.6c-2 4.7-3 11.8-3 12.1L0 64l2.6-.3c.3 0 7.6-1 12.3-3.1a8.7 8.7 0 0 0 2.3-1.2l1-.8a8.9 8.9 0 0 0 2.6-6.4v-.9l1.3 1.3L45.7 29 35 18.4zm3.9 13.8l-.5.4-1.3.7h-.1a30.8 30.8 0 0 1-5 1.6l3.4-3.5A2 2 0 0 0 9 52.2l-3.5 3.5A32.4 32.4 0 0 1 7 50.8v-.2a5.2 5.2 0 0 1 .8-1.5l.4-.4a5 5 0 1 1 7.1 7.1z" fill="#202020"/></svg>