<svg viewBox="0 0 64 64" xmlns="http://www.w3.org/2000/svg" aria-labelledby="title" aria-describedby="desc"><circle fill="#202020" r="4" cy="5.001" cx="33" data-name="layer2"/><path fill="#202020" d="M11 37.001h44v-3.992c0-2.608.326-4.805-2-5.633v-6.377H13v6.377c-2.326.828-2 3.025-2 5.633zm32-10.998a3 3 0 1 1-3 3 3.001 3.001 0 0 1 3-3zm-20 0a3 3 0 1 1-3 3 3.001 3.001 0 0 1 3-3zM53 8.007a3 3 0 0 0-3-3h-9a8 8 0 0 1-16 0h-9a3 3 0 0 0-3 3v8.992h40zm4.012 51.267l-7.348-4.312A6 6 0 0 0 55 49.001v-8H10.984v8a6 6 0 0 0 5.349 5.963l-7.344 4.31a2 2 0 0 0 2.023 3.452L24.177 55h17.646l13.165 7.725a2 2 0 0 0 2.024-3.452z" data-name="layer1"/></svg>