<svg xmlns="http://www.w3.org/2000/svg" viewBox="0 0 64 64" aria-labelledby="title" aria-describedby="desc"><path data-name="layer2" d="M8 20h8s3.2 12 16 12 16-12 16-12h8l-8 42H16z" fill="#f04848"/><path data-name="opacity" fill="#101129" opacity=".25" d="M8 20l8 42h3l-8-42H8z"/><path data-name="layer1" d="M28 2v5.4l4 .6-1.1 8.1-2.2 15.6 3.3.3a18 18 0 0 0 4-.4V2zm16 4.1v5.8h.8v1l.9 11.9A17.7 17.7 0 0 0 48 20h4V6.1z" fill="#fee162"/><path data-name="layer1" d="M44.9 12.8v-1H44l-7.2.5 1.3 18.5a16.8 16.8 0 0 0 4.9-3 18.3 18.3 0 0 0 2.7-3.2zM32 8l-4-.6-3.9-.5-3 21.1 7.6 3.7 2.2-15.6zM20.7 27.6L17.9 8 10 9.1 11.5 20H16a18.3 18.3 0 0 0 4.7 7.6z" fill="#fee162"/><path data-name="opacity" fill="#101129" opacity=".18" d="M36.9 12.4l1.3 18.5 2.6-2.1-1.2-16.6-2.7.2zm-8.1 18.5a15.2 15.2 0 0 1-4.7-2.8L27 7.3l-2.9-.4-3 21.1 7.6 3.7zM18 19h-4.5L12.1 8.8l-2.1.3L11.5 20H16a18.3 18.3 0 0 0 4.6 7.6l-.6-4.2a17.6 17.6 0 0 1-2-4.4zM28 7.4l3.3.5V2H28v5.4zm16-1.3v5.8h.8v1l.9 11.9a19.1 19.1 0 0 0 1.8-3.4V6.1z"/><path data-name="stroke" d="M8 20h8s3.2 12 16 12 16-12 16-12h8l-8 42H16z" fill="none" stroke="#2f446a" stroke-linecap="round" stroke-linejoin="round" stroke-width="2"/><path data-name="stroke" fill="none" stroke="#2f446a" stroke-linecap="round" stroke-linejoin="round" stroke-width="2" d="M28 7.4V2h8v29.6m8-19.7V6.1h8V20"/><path data-name="stroke" fill="none" stroke="#2f446a" stroke-linecap="round" stroke-linejoin="round" stroke-width="2" d="M38.2 30.9l-1.3-18.5 7.9-.6 1 12.9m-24.7 3.4l3-21.2L32 8l-3.3 23.7m-8-4.1L17.9 8 10 9.1 11.5 20"/></svg>