<svg xmlns="http://www.w3.org/2000/svg" viewBox="0 0 64 64" aria-labelledby="title" aria-describedby="desc"><path data-name="layer2" d="M8 18.5h8s3.2 12 16 12 16-12 16-12h8l-8 42H16z" fill="#202020"/><path data-name="layer1" d="M41.3 22.5l.9-11.6-6-.5L35 26.2a11.6 11.6 0 0 0 6.3-3.7z" fill="#202020"/><path data-name="layer1" d="M44.1 17.5a4 4 0 0 1 3.9-3h4.4l.4-5.7-4.8-.3-.5-3.8-6 .7 1.8 14.2a12.6 12.6 0 0 0 .8-2.1zm-12.1 9a14.1 14.1 0 0 0 2.9-.3V3.5h-6v22.7a14 14 0 0 0 3.1.3zm-16-12a4 4 0 0 1 2 .5l-.5-6.1-6 .4.4 5.2zm3.2.9v.8a4 4 0 0 1 .7 1.4c.1.3 1.9 7 8.8 8.6L24.5 4.6l-5.9 1.1 1.9 9.7z" fill="#202020"/></svg>