<svg xmlns="http://www.w3.org/2000/svg" viewBox="0 0 64 64" aria-labelledby="title" aria-describedby="desc"><path data-name="layer2" d="M14 43h24c12 0 22 .6 22-10 0-8.4-4.5-15.7-15.9-18.6 1.9 3.3 3.6 7.2 3.9 10.4a2 2 0 0 1-1.8 2.2H46a2 2 0 0 1-2-1.8c-.3-3.5-3-8.6-5.3-11.8l-5.6-.4c2.4 3.5 4.5 8.2 4.9 11.8a2 2 0 0 1-1.8 2.2H36a2 2 0 0 1-2-1.8c-.4-4-3.5-9.5-5.8-12a35.6 35.6 0 0 0-6.5 1.2c3 3.1 6.3 7.8 6.3 12.6a2 2 0 1 1-4 0c0-4.3-3.9-8.8-6.6-11.1C7.9 20.2 4 28.4 4 33c0 7.4 7 10 10 10z" fill="#202020"/><path data-name="layer1" d="M62 47H2a2 2 0 0 0 0 4h60a2 2 0 0 0 0-4z" fill="#202020"/></svg>