<svg xmlns="http://www.w3.org/2000/svg" viewBox="0 0 64 64" aria-labelledby="title" aria-describedby="desc"><path data-name="layer1" d="M54.5 52.6L46 61.1a4 4 0 0 1-5.7 0l-24-24a4 4 0 0 1 0-5.7l8.5-8.5z" fill="#7c8cb0"/><path data-name="opacity" fill="#101129" opacity=".25" d="M21.796 25.984l2.97-2.97 29.698 29.699-2.97 2.97z"/><path data-name="stroke" d="M54.5 52.6L46 61.1a4 4 0 0 1-5.7 0l-24-24a4 4 0 0 1 0-5.7l8.5-8.5" fill="none" stroke="#2f446a" stroke-linecap="round" stroke-linejoin="round" stroke-width="2"/><path data-name="stroke" d="M55.9 54L9.3 7.4a4 4 0 0 1 0-5.7" fill="none" stroke="#2f446a" stroke-linecap="round" stroke-linejoin="round" stroke-width="2"/></svg>