<svg xmlns="http://www.w3.org/2000/svg" viewBox="0 0 64 64" aria-labelledby="title" aria-describedby="desc"><path data-name="layer2" d="M62 24.5H46.8L59.3 12a2 2 0 1 0-2.8-2.8L41.1 24.5h-3.9L47.7 3.4a2 2 0 0 0-3.6-1.8L32.8 24.5H2a2 2 0 1 0 0 4h60a2 2 0 0 0 0-4z" fill="#202020"/><path data-name="layer1" d="M26.8 57a27.9 27.9 0 0 0-7.7 2.7 2 2 0 0 0 .9 3.8l.9-.2A24 24 0 0 1 32 60.5a23.7 23.7 0 0 1 11.1 2.7 2 2 0 1 0 1.8-3.5 27.9 27.9 0 0 0-7.7-2.7 27.1 27.1 0 0 0 21.7-24.5H5.1A27.1 27.1 0 0 0 26.8 57z" fill="#202020"/></svg>