<svg xmlns="http://www.w3.org/2000/svg" viewBox="0 0 64 64" aria-labelledby="title" aria-describedby="desc"><rect data-name="layer3" x="12" y="2" width="40" height="60" rx="2" ry="2" fill="#d7e0f1"/><path data-name="opacity" d="M16 58V2h-2a2 2 0 0 0-2 2v56a2 2 0 0 0 2 2h36a2 2 0 0 0 2-2H18a2 2 0 0 1-2-2z" fill="#000064" opacity=".15"/><circle data-name="layer2" cx="37" cy="51" r="2" fill="#7b8baf"/><circle data-name="layer2" cx="45" cy="47" r="2" fill="#7b8baf"/><circle data-name="opacity" cx="35" cy="53" r="2" fill="#000064" opacity=".15"/><circle data-name="opacity" cx="43" cy="49" r="2" fill="#000064" opacity=".15"/><path data-name="layer1" fill="#8fa9d8" d="M20 10h24v24H20z"/><path data-name="opacity" fill="#fff" opacity=".2" d="M34 10L20 24v6l20-20h-6zm10 0L20 34h13l11-11V10z"/><circle data-name="stroke" cx="37" cy="51" r="2" fill="none" stroke="#2e4369" stroke-linecap="round" stroke-linejoin="round" stroke-width="2"/><circle data-name="stroke" cx="45" cy="47" r="2" fill="none" stroke="#2e4369" stroke-linecap="round" stroke-linejoin="round" stroke-width="2"/><path data-name="stroke" fill="none" stroke="#2e4369" stroke-linecap="round" stroke-linejoin="round" stroke-width="2" d="M24 42v12m-6-6h12M20 10h24v24H20z"/><rect data-name="stroke" x="12" y="2" width="40" height="60" rx="2" ry="2" fill="none" stroke="#2e4369" stroke-linecap="round" stroke-linejoin="round" stroke-width="2"/></svg>