<svg viewBox="0 0 64 64" xmlns="http://www.w3.org/2000/svg" aria-labelledby="title" aria-describedby="desc"><circle fill="#202020" r="5" cy="37" cx="21" data-name="layer2"/><circle fill="#202020" r="5" cy="37" cx="43" data-name="layer2"/><path fill="#202020" d="M57.834 22a11.977 11.977 0 0 0-11.178-9.94l-.344-.06H18A12 12 0 0 0 6.166 22L2.15 43.555a7 7 0 0 0 12.656 5.355l2.633-3.646A8.993 8.993 0 0 1 16 29.522V26h-4v-4h4v-4h4v4h4v4h-4v2.06a8.85 8.85 0 0 1 1-.06 8.986 8.986 0 0 1 7.555 13.873h6.889a9 9 0 1 1 11.117 3.39l2.633 3.646A7 7 0 0 0 62 45c0-2-4.166-23-4.166-23zM39 26a3 3 0 1 1 3-3 3 3 0 0 1-3 3zm10 0a3 3 0 1 1 3-3 3 3 0 0 1-3 3z" data-name="layer1"/></svg>