<svg xmlns="http://www.w3.org/2000/svg" viewBox="0 0 64 64" aria-labelledby="title" aria-describedby="desc"><path data-name="layer2" fill="#d7e0f1" d="M2 34h60v28H2z"/><circle data-name="layer1" cx="48" cy="42" r="2" fill="#f25b7c"/><circle data-name="layer1" cx="42" cy="48" r="2" fill="#f25b7c"/><circle data-name="layer1" cx="54" cy="48" r="2" fill="#f25b7c"/><circle data-name="layer1" cx="48" cy="54" r="2" fill="#f25b7c"/><circle data-name="opacity" cx="46" cy="44" r="2" fill="#000064" opacity=".15"/><circle data-name="opacity" cx="40" cy="50" r="2" fill="#000064" opacity=".15"/><circle data-name="opacity" cx="52" cy="50" r="2" fill="#000064" opacity=".15"/><circle data-name="opacity" cx="46" cy="56" r="2" fill="#000064" opacity=".15"/><path data-name="opacity" fill="#000064" opacity=".15" d="M2 34h5v28H2z"/><path data-name="stroke" fill="none" stroke="#2e4369" stroke-linecap="round" stroke-linejoin="round" stroke-width="2" d="M2 34h60v28H2z"/><circle data-name="stroke" cx="48" cy="42" r="2" fill="none" stroke="#2e4369" stroke-linecap="round" stroke-linejoin="round" stroke-width="2"/><circle data-name="stroke" cx="42" cy="48" r="2" fill="none" stroke="#2e4369" stroke-linecap="round" stroke-linejoin="round" stroke-width="2"/><circle data-name="stroke" cx="54" cy="48" r="2" fill="none" stroke="#2e4369" stroke-linecap="round" stroke-linejoin="round" stroke-width="2"/><circle data-name="stroke" cx="48" cy="54" r="2" fill="none" stroke="#2e4369" stroke-linecap="round" stroke-linejoin="round" stroke-width="2"/><path data-name="stroke" fill="none" stroke="#2e4369" stroke-linecap="round" stroke-linejoin="round" stroke-width="2" d="M14 42v12m-6-6h12m12-14v-7a9 9 0 0 1 9-9h5a8 8 0 0 0 8-8V2"/></svg>