<svg xmlns="http://www.w3.org/2000/svg" viewBox="0 0 64 64" aria-labelledby="title" aria-describedby="desc"><path data-name="layer2" d="M23 34h-2a6 6 0 0 0-6 6v14a6 6 0 0 1-6 6 6 6 0 0 1-6-6V20l8-8" fill="none" stroke="#202020" stroke-linecap="round" stroke-linejoin="round" stroke-width="2"/><path data-name="layer2" fill="none" stroke="#202020" stroke-linecap="round" stroke-linejoin="round" stroke-width="2" d="M3 20l8 8v4H3"/><path data-name="layer1" fill="none" stroke="#202020" stroke-linecap="round" stroke-linejoin="round" stroke-width="2" d="M41 34h8v14h-8z"/><path data-name="layer1" d="M23 62V6a4 4 0 0 1 4-4h26a4 4 0 0 1 4 4v56m-38 0h42M23 26h34M21 62" fill="none" stroke="#202020" stroke-linecap="round" stroke-linejoin="round" stroke-width="2"/></svg>