<svg xmlns="http://www.w3.org/2000/svg" viewBox="0 0 64 64" aria-labelledby="title" aria-describedby="desc"><path data-name="layer2" d="M33.9 46h-.5a22.3 22.3 0 0 0-1.4 8 22.2 22.2 0 0 0-1.5-8H30c-14.5.3-26 3.8-26 8s12.5 8 28 8 28-3.6 28-8-11.5-7.7-26.1-8z" fill="#f26161"/><path data-name="layer1" d="M32 2a16 16 0 0 0-16 16 16.5 16.5 0 0 0 .1 2c1.1 10.4 10.7 16.2 14.4 26a22.2 22.2 0 0 1 1.5 8 22.3 22.3 0 0 1 1.5-8c3.7-9.8 13.3-15.6 14.4-26A15.9 15.9 0 0 0 32 2zm0 20a4 4 0 1 1 4-4 4 4 0 0 1-4 4z" fill="#c3d6f9"/><path data-name="opacity" d="M32 53.2c0-15.8-11.2-23.3-12.3-36.7-.1-.7-.1-1.3-.1-2a21 21 0 0 1 1.6-8.2A15.4 15.4 0 0 0 16 17.7a15 15 0 0 0 .1 1.9C17.5 32.2 32 39.2 32 54.1z" fill="#000032" opacity=".2"/><path data-name="opacity" d="M32 54a22.2 22.2 0 0 0-1.5-8H30c-9.3.2-17.4 1.7-22 3.8 15.2.7 23.9 4.2 23.9 4.2z" fill="#000032" opacity=".2"/><path data-name="stroke" d="M32 54c0-15.2 14.5-21.1 15.9-34A16 16 0 1 0 16 18a16.5 16.5 0 0 0 .1 2C17.5 32.9 32 38.8 32 54z" fill="none" stroke="#2e4369" stroke-linecap="round" stroke-linejoin="round" stroke-width="2"/><circle data-name="stroke" cx="32" cy="18" r="4" fill="none" stroke="#2e4369" stroke-linecap="round" stroke-linejoin="round" stroke-width="2"/><path data-name="stroke" d="M33.9 46c14.6.3 26.1 3.7 26.1 8s-12.5 8-28 8-28-3.6-28-8 11.5-7.7 26.1-8" fill="none" stroke="#2e4369" stroke-linecap="round" stroke-linejoin="round" stroke-width="2"/></svg>