<svg xmlns="http://www.w3.org/2000/svg" viewBox="0 0 64 64" aria-labelledby="title" aria-describedby="desc"><path data-name="layer1" d="M4.4 33.4L4 34S2.6 52 16 52s12-16 12-16c-9-7.5-19.1-4.6-23.6-2.6zm55.2 0c-4.4-1.9-14.6-5-23.6 2.5S34.6 52 48 52s12-18 12-18z" fill="#8fa9d8"/><path data-name="opacity" d="M9.9 31.6a28.3 28.3 0 0 0-5.5 1.7L4 34S2.6 51.9 15.9 52c-7-3.5-6.3-17.3-6-20.4zm31.5 1a20.9 20.9 0 0 0-5.4 3.3S34.6 52 47.9 52c-6.9-4-6.5-19.3-6.5-19.4z" fill="#000064" opacity=".15"/><path data-name="opacity" d="M28 36l-1.1-.9L11 50.9a10.6 10.6 0 0 0 3.1.9L28 37.9a18.6 18.6 0 0 0 0-1.9zm32-2l-.4-.6-1.5-.6L41 49.9a11 11 0 0 0 6 2l12.8-12.8A28.5 28.5 0 0 0 60 34zm-9.2-2.8L37.2 44.7a12.9 12.9 0 0 0 1.8 3.2l16.1-16a25.4 25.4 0 0 0-4.3-.7z" fill="#fff" opacity=".5"/><path data-name="stroke" d="M4.4 33.4L4 34S2.6 52 16 52s12-16 12-16m31.7-2.6l.4.6s1.4 18-12 18-12-16-12-16m-10-18c0-4.7-3.1-7.6-6.6-5s-13 17.2-15 20.4M38.1 18c0-4.7 3.1-7.6 6.6-5s13 17.3 15 20.4" fill="none" stroke="#2e4369" stroke-linecap="round" stroke-linejoin="round" stroke-width="2"/><path data-name="stroke" d="M62 34.5S48 26 36 36h-8C16.1 26 2.1 34.5 2.1 34.5" fill="none" stroke="#2e4369" stroke-linecap="round" stroke-linejoin="round" stroke-width="2"/></svg>