<svg xmlns="http://www.w3.org/2000/svg" viewBox="0 0 64 64" aria-labelledby="title" aria-describedby="desc"><path data-name="layer2" d="M58.6 45.8a30 30 0 0 1-48.9 6.3M18 14l4 4m-8 8l-4 4m2 8h4m10-28h8m10 4l-4 4m10 6l4 2m-4 8v4" fill="none" stroke="#202020" stroke-linecap="round" stroke-linejoin="round" stroke-width="2"/><circle data-name="layer1" cx="32" cy="32" r="10" fill="none" stroke="#202020" stroke-linecap="round" stroke-linejoin="round" stroke-width="2"/><path data-name="layer1" d="M9.7 52.1a30 30 0 1 1 48.9-6.3M9.7 52.1c1.9-.3 3-3 4.3-6.1s7.2-2.6 6 2 2.9 7.3 5.8 6 3.1-2.6 6.3-2 6.1.5 7.9-2.4 2.8-.2 6 .4 4-8 12.6-4.2" fill="none" stroke="#202020" stroke-linecap="round" stroke-linejoin="round" stroke-width="2"/></svg>