<svg xmlns="http://www.w3.org/2000/svg" viewBox="0 0 64 64" aria-labelledby="title" aria-describedby="desc"><circle data-name="layer1" cx="25" cy="32.6" r="23" fill="#ed4c49"/><circle data-name="layer1" cx="25" cy="32.6" r="14" fill="#ed4c49"/><circle data-name="layer2" cx="25" cy="32.6" r="14" fill="#fff"/><circle data-name="layer2" cx="25" cy="32.6" r="4" fill="#fff"/><circle data-name="layer1" cx="25" cy="32.6" r="4" fill="#ed4c49"/><path data-name="opacity" d="M45 21.2l-7.8 4.5-.9.5-7.8 4.5-.9.5-2.6 1.5 2.1 2.1.7.7 6.4 6.4.7.7 6.4 6.4A23 23 0 0 0 45 21.2z" fill="#000028" opacity=".18"/><circle data-name="stroke" cx="25" cy="32.6" r="23" fill="none" stroke="#2e4369" stroke-linecap="round" stroke-linejoin="round" stroke-width="2"/><circle data-name="stroke" cx="25" cy="32.6" r="14" fill="none" stroke="#2e4369" stroke-linecap="round" stroke-linejoin="round" stroke-width="2"/><circle data-name="stroke" cx="25" cy="32.6" r="4" fill="none" stroke="#2e4369" stroke-linecap="round" stroke-linejoin="round" stroke-width="2"/><path data-name="stroke" fill="none" stroke="#2e4369" stroke-linecap="round" stroke-linejoin="round" stroke-width="2" d="M25 32.7l29.6-17.1 2-7.2m-2 7.2L62 18"/></svg>