<svg xmlns="http://www.w3.org/2000/svg" viewBox="0 0 64 64" aria-labelledby="title" aria-describedby="desc"><path data-name="layer2" d="M23.051 35.48h9.374A11.918 11.918 0 1 1 29.19 22.7a1.291 1.291 0 0 0 1.756-.006l3.443-3.24a1.287 1.287 0 0 0 0-1.871 19.12 19.12 0 0 0-12.815-5.255A19.2 19.2 0 1 0 40.359 32.6c.015-.127.025-4.406.025-4.406H23.051a1.286 1.286 0 0 0-1.286 1.286v4.714a1.286 1.286 0 0 0 1.286 1.286zm0 0" fill="none" stroke="#202020" stroke-linecap="round" stroke-miterlimit="10" stroke-width="2" stroke-linejoin="round"/><path data-name="layer1" d="M56.267 28.622v-4.606a1.127 1.127 0 0 0-1.127-1.127h-3.876a1.127 1.127 0 0 0-1.127 1.127v4.606h-4.6a1.127 1.127 0 0 0-1.137 1.127v3.876a1.128 1.128 0 0 0 1.128 1.127h4.6v4.605a1.127 1.127 0 0 0 1.127 1.127h3.885a1.127 1.127 0 0 0 1.127-1.127v-4.605h4.606A1.128 1.128 0 0 0 62 33.625v-3.876a1.127 1.127 0 0 0-1.127-1.127zm0 0" fill="none" stroke="#202020" stroke-linecap="round" stroke-miterlimit="10" stroke-width="2" stroke-linejoin="round"/></svg>