<svg viewBox="0 0 64 64" xmlns="http://www.w3.org/2000/svg" aria-labelledby="title" aria-describedby="desc"><path fill="#e5ebf7" d="M48 16a3.987 3.987 0 0 0-3.968 3.681L44 19.665V16a3.992 3.992 0 0 0-7.98-.2H36V14a4 4 0 1 0-8 0v2a4 4 0 1 0-8 0v16a4 4 0 1 0-8 0v4c0 6 6.187 13.189 6.187 13.189C20.629 52 23.227 54 26.738 54H42a10 10 0 0 0 10-10V20a4 4 0 0 0-4-4z" data-name="layer1"/><path opacity=".12" fill="#000028" d="M43.073 51H27.812c-3.512 0-6.109-2-8.551-4.81 0 0-6.187-7.19-6.187-13.19v-3.621a3.965 3.965 0 0 0-1 2.621v4c0 6 6.187 13.189 6.187 13.189C20.7 52 23.3 54 26.812 54h15.261a9.992 9.992 0 0 0 9.853-8.362A9.991 9.991 0 0 1 43.073 51z" data-name="opacity"/><path stroke-width="2" stroke-linejoin="round" stroke-linecap="round" stroke="#2e4369" fill="none" d="M20 33.416V16a4 4 0 0 1 4-4 4 4 0 0 1 4 4v4" data-name="stroke"/><path stroke-width="2" stroke-linejoin="round" stroke-linecap="round" stroke="#2e4369" fill="none" d="M20 32a4 4 0 0 0-4-4 4 4 0 0 0-4 4v4c0 6 6.187 13.189 6.187 13.189C20.629 52 23.227 54 26.738 54H42a10 10 0 0 0 10-10v-8M36 22v-8a4 4 0 0 0-4-4 4 4 0 0 0-4 4v2m8 0a4 4 0 0 1 4-4 4 4 0 0 1 4 4v8" data-name="stroke"/><path stroke-width="2" stroke-linejoin="round" stroke-linecap="round" stroke="#2e4369" fill="none" d="M44 20a4 4 0 0 1 4-4 4 4 0 0 1 4 4v22" data-name="stroke"/></svg>