<svg xmlns="http://www.w3.org/2000/svg" viewBox="0 0 64 64" aria-labelledby="title" aria-describedby="desc"><path data-name="layer2" d="M50.2 10L50 8c-.2-2.9-2.5-6-6-6H20c-3.3 0-5.7 2.3-6 6l-.2 2z" fill="#202020"/><path data-name="layer1" d="M13.5 14L10 58a3.9 3.9 0 0 0 4 4h36a3.9 3.9 0 0 0 4-4l-3.5-44zM38 28a2 2 0 0 1 4 0v2a2 2 0 1 1-4 0zm-8 0a2 2 0 0 1 4 0v2a2 2 0 0 1-4 0zm-8 0a2 2 0 0 1 4 0v2a2 2 0 0 1-4 0zm0 26a2 2 0 1 1-4 0v-2a2 2 0 1 1 4 0zm0-16a2 2 0 1 1-4 0v-2a2 2 0 1 1 4 0zm0-16a2 2 0 1 1-4 0v-2a2 2 0 1 1 4 0zm2 26a2 2 0 0 1-2-2v-2a2 2 0 0 1 4 0v2a2 2 0 0 1-2 2zm6 6a2 2 0 1 1-4 0v-2a2 2 0 1 1 4 0zm0-16a2 2 0 1 1-4 0v-2a2 2 0 1 1 4 0zm0-16a2 2 0 1 1-4 0v-2a2 2 0 1 1 4 0zm2 26a2 2 0 0 1-2-2v-2a2 2 0 0 1 4 0v2a2 2 0 0 1-2 2zm6 6a2 2 0 1 1-4 0v-2a2 2 0 1 1 4 0zm0-16a2 2 0 1 1-4 0v-2a2 2 0 1 1 4 0zm0-16a2 2 0 1 1-4 0v-2a2 2 0 1 1 4 0zm2 26a2 2 0 0 1-2-2v-2a2 2 0 0 1 4 0v2a2 2 0 0 1-2 2zm6 6a2 2 0 1 1-4 0v-2a2 2 0 1 1 4 0zm0-16a2 2 0 1 1-4 0v-2a2 2 0 1 1 4 0zm0-16a2 2 0 1 1-4 0v-2a2 2 0 1 1 4 0z" fill="#202020"/></svg>