<svg xmlns="http://www.w3.org/2000/svg" viewBox="0 0 64 64" aria-labelledby="title" aria-describedby="desc"><path data-name="layer2" d="M50.3 12H13.7L10 58a3.9 3.9 0 0 0 4 4h36a3.9 3.9 0 0 0 4-4z" fill="#c4d3e0"/><path data-name="opacity" d="M15 58l3.7-46h-5L10 58a3.9 3.9 0 0 0 4 4h5a3.9 3.9 0 0 1-4-4z" fill="#101129" opacity=".25"/><path data-name="layer1" d="M50.3 12L50 8c-.2-2.9-2.5-6-6-6H20c-3.3 0-5.7 2.3-6 6l-.3 4h4l.3-3.6C18.2 6 19.6 6 20 6h24c1.2 0 1.9 1.4 2 2.3l.3 3.7z" fill="#f05a41"/><path data-name="stroke" d="M50.3 12L50 8c-.2-2.9-2.5-6-6-6H20c-3.3 0-5.7 2.3-6 6l-.3 4" fill="none" stroke="#2f446a" stroke-linecap="round" stroke-linejoin="round" stroke-width="2"/><path data-name="stroke" d="M46.3 12L46 8.3c-.1-.9-.8-2.3-2-2.3H20c-.4 0-1.8 0-2 2.4l-.3 3.6m32.6 0H13.7L10 58a3.9 3.9 0 0 0 4 4h36a3.9 3.9 0 0 0 4-4zM20 20v2m8-2v2m8-2v2m8-2v2m-20 6v2m8-2v2m8-2v2m-20 6v2m8-2v2m8-2v2m8-2v2M20 52v2m8-2v2m8-2v2m8-2v2M24 44v2m8-2v2m8-2v2" fill="none" stroke="#2f446a" stroke-linecap="round" stroke-linejoin="round" stroke-width="2"/></svg>