<svg xmlns="http://www.w3.org/2000/svg" viewBox="0 0 64 64" aria-labelledby="title" aria-describedby="desc"><path data-name="layer2" d="M50.3 12L50 8c-.2-2.9-2.5-6-6-6H20c-3.3 0-5.7 2.3-6 6l-.3 4" fill="none" stroke="#202020" stroke-linecap="round" stroke-linejoin="round" stroke-width="2"/><path data-name="layer2" d="M46.3 12L46 8.3c-.1-.9-.8-2.3-2-2.3H20c-.4 0-1.8 0-2 2.4l-.3 3.6m2.3 8v2m8-2v2m8-2v2m8-2v2m-20 6v2m8-2v2m8-2v2m-20 6v2m8-2v2m8-2v2m8-2v2M20 52v2m8-2v2m8-2v2m8-2v2M24 44v2m8-2v2m8-2v2" fill="none" stroke="#202020" stroke-linecap="round" stroke-linejoin="round" stroke-width="2"/><path data-name="layer1" d="M50.3 12H13.7L10 58a3.9 3.9 0 0 0 4 4h36a3.9 3.9 0 0 0 4-4z" fill="none" stroke="#202020" stroke-linecap="round" stroke-linejoin="round" stroke-width="2"/></svg>