<svg xmlns="http://www.w3.org/2000/svg" viewBox="0 0 64 64" aria-labelledby="title" aria-describedby="desc"><path data-name="layer1" d="M33.317 62h-2.728c-1.223-.094-2.351-.188-3.574-.375a28.821 28.821 0 0 1-8.84-2.906A30.159 30.159 0 0 1 2 33.5v-2.906c0-.563.094-1.031.094-1.594A27.112 27.112 0 0 1 3.5 22.344 29.031 29.031 0 0 1 13.944 8a30.2 30.2 0 0 1 16.645-6h2.821c1.223.094 2.351.188 3.574.375a28.988 28.988 0 0 1 8.84 3A29.825 29.825 0 0 1 57.2 15.594 28.05 28.05 0 0 1 62 30.5v2.906c-.094 1.219-.188 2.344-.376 3.562a28.607 28.607 0 0 1-2.915 8.812 29.532 29.532 0 0 1-10.251 11.25 29.823 29.823 0 0 1-15.047 4.875c0 .095 0 .095-.094.095z" fill="none" stroke="#202020" stroke-linecap="round" stroke-miterlimit="10" stroke-width="2" stroke-linejoin="round"/><path data-name="layer1" d="M32 8.187h-.94a23.746 23.746 0 0 0-5.172.75 24.671 24.671 0 0 0-10.628 6.094 23.34 23.34 0 0 0-6.207 10.594 24.615 24.615 0 0 0-.846 6.938 13.944 13.944 0 0 0 .188 1.969 3.2 3.2 0 0 0 2.727 2.531 5.015 5.015 0 0 0 2.821-.469 10.768 10.768 0 0 0 3.574-2.531 12.292 12.292 0 0 0 2.915-4.688 20.551 20.551 0 0 0 1.129-7.125c0-1.219-.094-2.438-.188-3.75-.094-1.125-.282-2.344-.376-3.469-.094-.469.094-.656.564-.469a5.314 5.314 0 0 1 1.129.375 23.736 23.736 0 0 1 7.147 3.375 44.856 44.856 0 0 1 7.994 7.219 69.6 69.6 0 0 1 6.113 7.781 18.711 18.711 0 0 0 3.2 3.469 9.584 9.584 0 0 0 4.044 1.969 3.1 3.1 0 0 0 3.386-1.5 5.82 5.82 0 0 0 .846-2.437 18.266 18.266 0 0 0 .094-5.062 22.4 22.4 0 0 0-1.223-5.531 23.474 23.474 0 0 0-7.429-10.594A22.032 22.032 0 0 0 32 8.187z" fill="none" stroke="#202020" stroke-linecap="round" stroke-miterlimit="10" stroke-width="2" stroke-linejoin="round"/></svg>