<svg xmlns="http://www.w3.org/2000/svg" viewBox="0 0 64 64" aria-labelledby="title" aria-describedby="desc"><path data-name="layer1" d="M54 7.9V26l-6-4-6 4V7.9h-2a8 8 0 0 0-8 8v44a8 8 0 0 1 8-8h22v-44z" fill="#dbf1ff"/><path data-name="layer2" fill="#f27e7c" d="M42 4v22l6-4 6 4V4H42z"/><path data-name="opacity" fill="#000064" opacity=".12" d="M40 11.9V30l6-4 6 4v-5.3L48 22l-6 4V8h-2v3.9z"/><path data-name="layer1" d="M24 51.9a8 8 0 0 1 8 8v-44a8 8 0 0 0-8-8H2v44z" fill="#dbf1ff"/><path data-name="opacity" d="M32 59.9v-44A8 8 0 0 0 25 8v44a8 8 0 0 1 7 7.9z" fill="#fff" opacity=".25"/><path data-name="opacity" d="M32 15.9v44a8 8 0 0 1 6-7.7v-44a8 8 0 0 0-6 7.7z" fill="#000064" opacity=".12"/><path data-name="stroke" d="M24 52a8 8 0 0 1 8 8V16a8 8 0 0 0-8-8H2v44zM54 8h8v44H40a8 8 0 0 0-8 8" fill="none" stroke="#2e4369" stroke-linecap="round" stroke-miterlimit="10" stroke-width="2" stroke-linejoin="round"/><path data-name="stroke" d="M32 16a8 8 0 0 1 8-8h2m12 18l-6-4-6 4V4h12v22zm-44-8h14m-14 8h14m-14 8h14m-14 8h14m16-8h14m-14 8h14" fill="none" stroke="#2e4369" stroke-linecap="round" stroke-miterlimit="10" stroke-width="2" stroke-linejoin="round"/></svg>