<svg xmlns="http://www.w3.org/2000/svg" viewBox="0 0 64 64" aria-labelledby="title" aria-describedby="desc"><path data-name="layer2" d="M25.8 43.8a5.9 5.9 0 0 0-5.6-5.6L35 23.4A11.1 11.1 0 0 0 22 25a10 10 0 0 0-1.8 2.5c-1 1.7-2.7 4.4-6.5 4.5h-.9a12.7 12.7 0 0 0-7.1 3.5C.3 41.1.9 50.6 7.1 56.9s15.7 6.9 21.2 1.4a12.6 12.6 0 0 0 3.5-7 1.9 1.9 0 0 0 .1-.7 8.4 8.4 0 0 1 4.5-6.8A10 10 0 0 0 39 42a11.1 11.1 0 0 0 1.7-13L25.8 43.8z" fill="#c69483"/><circle data-name="opacity" cx="19.9" cy="44.1" r="6" transform="rotate(-45 19.892 44.16)" fill="#000064" opacity=".3"/><path data-name="layer1" d="M61.3 5.5l-2.8-2.8c-1.6-1.6-2.7-.1-4.2 1.4l-34.1 34a5.9 5.9 0 0 1 5.6 5.6l34.1-34c1.6-1.5 3-2.6 1.4-4.2z" fill="#7b8baf"/><path data-name="stroke" d="M35 23.4A11.1 11.1 0 0 0 22 25a10 10 0 0 0-1.8 2.5c-1 1.7-2.7 4.4-6.5 4.5h-.9a12.7 12.7 0 0 0-7.1 3.5C.3 41.1.9 50.6 7.1 56.9s15.7 6.9 21.2 1.4a12.6 12.6 0 0 0 3.5-7 1.9 1.9 0 0 0 .1-.7 8.4 8.4 0 0 1 4.5-6.8A10 10 0 0 0 39 42a11.1 11.1 0 0 0 1.7-13" fill="none" stroke="#2e4369" stroke-linecap="round" stroke-miterlimit="10" stroke-width="2" stroke-linejoin="round"/><path data-name="stroke" d="M20.2 38.1l34.1-34c1.6-1.6 2.7-3 4.2-1.4l2.8 2.8c1.6 1.6.1 2.7-1.4 4.2L25.8 43.8" fill="none" stroke="#2e4369" stroke-linecap="round" stroke-miterlimit="10" stroke-width="2" stroke-linejoin="round"/><circle data-name="stroke" cx="19.9" cy="44.1" r="6" transform="rotate(-45 19.892 44.16)" fill="none" stroke="#2e4369" stroke-linecap="round" stroke-miterlimit="10" stroke-width="2" stroke-linejoin="round"/><path data-name="stroke" fill="none" stroke="#2e4369" stroke-linecap="round" stroke-miterlimit="10" stroke-width="2" d="M59.9 4.1l-47 47m-3.5-3.5l7 7" stroke-linejoin="round"/></svg>