<svg viewBox="0 0 64 64" xmlns="http://www.w3.org/2000/svg" aria-labelledby="title" aria-describedby="desc"><path fill="#202020" d="M36.449 43.793a9.771 9.771 0 0 0 2.494-1.768 11.11 11.11 0 0 0 1.68-12.992L59.916 9.741c1.563-1.563 2.977-2.682 1.414-4.241L58.5 2.67c-1.56-1.562-2.68-.148-4.24 1.414L34.965 23.377a11.116 11.116 0 0 0-12.992 1.68 10.584 10.584 0 0 0-1.76 2.479 10.467 10.467 0 0 1-7.436 4.613 12.694 12.694 0 0 0-7.068 3.516C.244 41.129.875 50.629 7.125 56.875s15.744 6.881 21.213 1.414a11.368 11.368 0 0 0 3.508-7.029c.384-4.828 2.805-6.542 4.603-7.467zM24.1 48.389a6 6 0 1 1 0-8.484 6 6 0 0 1 0 8.484z" data-name="layer1"/></svg>