<svg xmlns="http://www.w3.org/2000/svg" viewBox="0 0 64 64" aria-labelledby="title" aria-describedby="desc"><path data-name="layer2" d="M49 12h-.5a17 17 0 0 0-32.3 4.4A11 11 0 1 0 13 38h36a13 13 0 0 0 0-26z" fill="none" stroke="#202020" stroke-miterlimit="10" stroke-width="2" stroke-linejoin="round" stroke-linecap="round"/><path data-name="layer1" fill="none" stroke="#202020" stroke-miterlimit="10" stroke-width="2" d="M44 46v16m-8-16v6m-8-6v10m-8-10v16m-10-5.9A10 10 0 0 1 20 62m34-5.9A10 10 0 0 0 44 62" stroke-linejoin="round" stroke-linecap="round"/><circle data-name="layer1" cx="4" cy="56" r="1" fill="none" stroke="#202020" stroke-miterlimit="10" stroke-width="2" stroke-linejoin="round" stroke-linecap="round"/><circle data-name="layer1" cx="60" cy="56" r="1" fill="none" stroke="#202020" stroke-miterlimit="10" stroke-width="2" stroke-linejoin="round" stroke-linecap="round"/></svg>