<svg xmlns="http://www.w3.org/2000/svg" viewBox="0 0 64 64" aria-labelledby="title" aria-describedby="desc"><path data-name="layer1" d="M49 12h-.5a17 17 0 0 0-32.3 4.4A11 11 0 1 0 13 38h36a13 13 0 0 0 0-26z" fill="#cdf0f0"/><path data-name="opacity" d="M16 20a18.1 18.1 0 0 1 .3-3.5h-.2A11 11 0 1 0 13 38h21a18 18 0 0 1-18-18z" fill="#000064" opacity=".1"/><path data-name="opacity" d="M62 25a13 13 0 0 0-13-13h-.5a17 17 0 0 0-12.3-9.7L35 2.1h-2l-3.2.3a16.9 16.9 0 0 0-8.3 4.2A22.9 22.9 0 0 1 43 13.5a13.1 13.1 0 0 0-4.2 3.4 14.9 14.9 0 0 1 20 16.6A12.9 12.9 0 0 0 62 25z" fill="#fff" opacity=".5"/><circle data-name="layer1" cx="4" cy="56" r="1" fill="#cdf0f0"/><circle data-name="layer1" cx="60" cy="56" r="1" fill="#cdf0f0"/><path data-name="stroke" d="M49 12h-.5a17 17 0 0 0-32.3 4.4A11 11 0 1 0 13 38h36a13 13 0 0 0 0-26zm-5 34v16m-8-16v6m-8-6v10m-8-10v16m-10-5.9A10 10 0 0 1 20 62m34-5.9A10 10 0 0 0 44 62m16-6" fill="none" stroke="#2e4369" stroke-linecap="round" stroke-linejoin="round" stroke-width="2"/><circle data-name="stroke" cx="4" cy="56" r="1" fill="none" stroke="#2e4369" stroke-linecap="round" stroke-linejoin="round" stroke-width="2"/><circle data-name="stroke" cx="60" cy="56" r="1" fill="none" stroke="#2e4369" stroke-linecap="round" stroke-linejoin="round" stroke-width="2"/></svg>