<svg viewBox="0 0 64 64" xmlns="http://www.w3.org/2000/svg" aria-labelledby="title" aria-describedby="desc"><path fill="#202020" d="M49 12.015c-.168 0-.33.02-.5.025a16.98 16.98 0 0 0-32.293 4.447A11 11 0 1 0 13 38.009h35.882c.039 0 .076.006.115.006a13 13 0 0 0 0-26z" data-name="layer2"/><path fill="#202020" d="M20 42a2.006 2.006 0 0 0-2 2v10.43a11.986 11.986 0 0 0-8.132-2.324 2 2 0 0 0 .334 3.986 8.01 8.01 0 0 1 7.973 4.721c.005.012.014.02.02.031A2 2 0 0 0 22 60V44a2.006 2.006 0 0 0-2-2zm-1.948 18.436l.006.018zm36.082-8.331A12 12 0 0 0 46 54.427V44a2 2 0 0 0-4 0v16a2 2 0 0 0 3.806.844c.005-.011.015-.019.02-.031a8.03 8.03 0 0 1 7.974-4.721 2 2 0 0 0 .334-3.986zm-8.191 8.35l.006-.02z" data-name="layer1"/><rect fill="#202020" ry="2" rx="2" height="14" width="4" y="42" x="26" data-name="layer1"/><rect fill="#202020" ry="2" rx="2" height="10" width="4" y="42" x="34" data-name="layer1"/><circle fill="#202020" r="2" cy="60" cx="28" data-name="layer1"/><circle fill="#202020" r="2" cy="56" cx="36" data-name="layer1"/><circle fill="#202020" r="2" cy="54" cx="60" data-name="layer1"/><circle fill="#202020" r="2" cy="54" cx="4" data-name="layer1"/></svg>