<svg xmlns="http://www.w3.org/2000/svg" viewBox="0 0 64 64" aria-labelledby="title" aria-describedby="desc"><path data-name="layer1" d="M20 43.9A20.1 20.1 0 0 1 2 27 16.8 16.8 0 0 0 23.9 3.9a20.1 20.1 0 0 1 18 18.2z" fill="#e6f0fa"/><path data-name="opacity" d="M25 37a19 19 0 0 1-15.8-8.4h-.1A16.7 16.7 0 0 1 2 27a20.1 20.1 0 0 0 18 17l7.1-7.1z" fill="#000064" opacity=".15"/><path data-name="stroke" d="M41.9 22.1a20.1 20.1 0 0 0-18-18.2A16.8 16.8 0 0 1 2 27a20.1 20.1 0 0 0 18 17M62 2L2 62" fill="none" stroke="#2e4369" stroke-linecap="round" stroke-linejoin="round" stroke-width="2"/></svg>