<svg xmlns="http://www.w3.org/2000/svg" viewBox="0 0 64 64" aria-labelledby="title" aria-describedby="desc"><path data-name="layer7" d="M56 26a24 24 0 1 0-48 0h48z" fill="#f6b36d"/><path data-name="layer6" d="M62 49a5 5 0 0 1-5 5H7a5 5 0 0 1-5-5 5 5 0 0 1 5-5h50a5 5 0 0 1 5 5zM4 35a5 5 0 0 0-2 4 5 5 0 0 0 5 5h50a5 5 0 0 0 5-5 5 5 0 0 0-3.1-4.6" fill="#964f48"/><path data-name="opacity" d="M58 41H8a5 5 0 0 1-5-5 5 5 0 0 0 4 8h50a5 5 0 0 0 5-5 5 5 0 0 1-4 2z" fill="#101129" opacity=".18"/><path data-name="layer5" d="M57 54l-.6 5a3.7 3.7 0 0 1-3.4 3H11a3.7 3.7 0 0 1-3.6-3l-.5-5" fill="#de9d63"/><path fill="none" d="M44 51h2l-1.4-.7-.6.7z"/><path data-name="layer4" fill="#fdc20f" d="M32 44l12.6 6.3 1.4.7 2 1 1-1 7-7H32z"/><path data-name="opacity" d="M59 51H49l-1 1-2-1h-2l.7-.7L32 44h-5l9.8 7H9a5 5 0 0 1-4.9-6.1A5 5 0 0 0 7 54h50a5 5 0 0 0 4.9-3.9 5 5 0 0 1-2.9.9z" fill="#101129" opacity=".18"/><path data-name="layer3" d="M8 26c-2 0-9.6 5.4-4 9 3.3 1.9 6.8-2.8 8-2.8S18 36 24 36s9.1-4 12-4 5.1 4 8 4 4.8-2 8-2 9.2 1.9 10-2-6-6-6-6" fill="#68963f"/><circle data-name="layer2" cx="44" cy="12" r="1" fill="#fad8b6"/><circle data-name="layer2" cx="38" cy="14" r="1" fill="#fad8b6"/><circle data-name="layer2" cx="32" cy="10" r="1" fill="#fad8b6"/><circle data-name="layer2" cx="28" cy="16" r="1" fill="#fad8b6"/><circle data-name="layer2" cx="22" cy="12" r="1" fill="#fad8b6"/><path data-name="opacity" fill="#101129" opacity=".18" d="M7 54l.4 4h49.2l.4-4H7z"/><path data-name="layer1" d="M52 34a8.5 8.5 0 0 0-2.8.5h7.5c-1.6-.2-3.4-.5-4.7-.5zm-40-1.8c-.8 0-2.4 1.9-4.4 2.8h10.5c-3.1-1.3-5.3-2.8-6.1-2.8zm24-.2c-1.8 0-3.7 1.5-6.3 2.7h11.1C39.2 33.4 37.7 32 36 32z" fill="#f04848"/><path data-name="stroke" d="M56 26a24 24 0 1 0-48 0h48zm6 23a5 5 0 0 1-5 5H7a5 5 0 0 1-5-5 5 5 0 0 1 5-5h50a5 5 0 0 1 5 5zm-3.1-14.6A5 5 0 0 1 62 39a5 5 0 0 1-5 5M7 44a5 5 0 0 1-5-5 5 5 0 0 1 2-4m53 19l-.6 5a3.7 3.7 0 0 1-3.4 3H11a3.7 3.7 0 0 1-3.6-3l-.5-5" fill="none" stroke="#2f446a" stroke-linecap="round" stroke-linejoin="round" stroke-width="2"/><path data-name="stroke" fill="none" stroke="#2f446a" stroke-linecap="round" stroke-linejoin="round" stroke-width="2" d="M32 44l16 8 8-8M8 26c-2 0-9.6 5.4-4 9 3.3 1.9 6.8-2.8 8-2.8S18 36 24 36s9.1-4 12-4 5.1 4 8 4 4.8-2 8-2 9.2 1.9 10-2-6-6-6-6"/><circle data-name="stroke" cx="44" cy="12" r="1" fill="none" stroke="#2f446a" stroke-linecap="round" stroke-linejoin="round" stroke-width="2"/><circle data-name="stroke" cx="38" cy="14" r="1" fill="none" stroke="#2f446a" stroke-linecap="round" stroke-linejoin="round" stroke-width="2"/><circle data-name="stroke" cx="32" cy="10" r="1" fill="none" stroke="#2f446a" stroke-linecap="round" stroke-linejoin="round" stroke-width="2"/><circle data-name="stroke" cx="28" cy="16" r="1" fill="none" stroke="#2f446a" stroke-linecap="round" stroke-linejoin="round" stroke-width="2"/><circle data-name="stroke" cx="22" cy="12" r="1" fill="none" stroke="#2f446a" stroke-linecap="round" stroke-linejoin="round" stroke-width="2"/></svg>