<svg xmlns="http://www.w3.org/2000/svg" viewBox="0 0 64 64" aria-labelledby="title" aria-describedby="desc"><path data-name="layer2" d="M56 26H8c-2 0-9.6 5.4-4 9 3.3 1.9 6.7-2.8 8-2.8S18 36 24 36s9.1-4 12-4 5.1 4 8 4 4.8-2 8-2 9.2 1.9 10-2-6-6-6-6z" fill="#202020"/><path data-name="layer1" d="M62 39a5 5 0 0 0-.2-1.3 10.5 10.5 0 0 1-4 .7l-3.7-.3L52 38a7.3 7.3 0 0 0-2.7.7A13.6 13.6 0 0 1 44 40c-2.8 0-4.9-1.6-6.5-2.8L35.9 36 34 37a19.9 19.9 0 0 1-10 3c-5 0-9.2-2.1-11.6-3.4-1.6 1.2-3.8 2.8-6.7 2.8a7.2 7.2 0 0 1-3.6-1A5 5 0 0 0 7 44a5 5 0 0 0 0 10h50a5 5 0 0 0 0-10 5 5 0 0 0 5-5zm-30 5h24l-8 8zM7.4 59a3.7 3.7 0 0 0 3.6 3h42a3.7 3.7 0 0 0 3.4-3v-1H7.3zM32 2A24 24 0 0 0 8.3 22h47.3A24 24 0 0 0 32 2zM22 14a2 2 0 1 1 2-2 2 2 0 0 1-2 2zm6 4a2 2 0 1 1 2-2 2 2 0 0 1-2 2zm4-6a2 2 0 1 1 2-2 2 2 0 0 1-2 2zm6 4a2 2 0 1 1 2-2 2 2 0 0 1-2 2zm6-2a2 2 0 1 1 2-2 2 2 0 0 1-2 2z" fill="#202020"/></svg>