<svg xmlns="http://www.w3.org/2000/svg" viewBox="0 0 64 64" aria-labelledby="title" aria-describedby="desc"><path data-name="layer2" d="M39.9 39.4A15.3 15.3 0 0 0 46 27c0-8.3-6.3-15-14-15s-14 6.7-14 15a15.3 15.3 0 0 0 6.1 12.4A24.1 24.1 0 0 0 8 62h48a24.1 24.1 0 0 0-16.1-22.6z" fill="#8fa9d8"/><path data-name="layer1" d="M20.8 18.1H14a4 4 0 0 0-4 4V32a4 4 0 0 0 4 4h6.8a15.8 15.8 0 0 1 0-17.8z" fill="#536897"/><path data-name="opacity" d="M20.8 18.1H14a4 4 0 0 0-4 4V32a4 4 0 0 0 4 4h6.8a15.8 15.8 0 0 1 0-17.8z" fill="#000064" opacity=".2"/><path data-name="layer1" d="M43.2 35.9H50a4 4 0 0 0 4-4V22a4 4 0 0 0-4-4h-6.8a15.8 15.8 0 0 1 0 17.8z" fill="#536897"/><path data-name="opacity" d="M22 45c4 0 7-2 10-5-12-2-17-14.9-9.3-24.2a15.6 15.6 0 0 0 1.4 23.6A24.1 24.1 0 0 0 8 62h7.4c0-8 3.6-15 6.6-17z" fill="#000064" opacity=".2"/><path data-name="stroke" d="M20.8 36H14a4 4 0 0 1-4-4V22a4 4 0 0 1 4-4h6.8m22.4 18H50a4 4 0 0 0 4-4V22a4 4 0 0 0-4-4h-6.8" fill="none" stroke="#2e4369" stroke-linecap="round" stroke-miterlimit="10" stroke-width="2" stroke-linejoin="round"/><path data-name="stroke" d="M39.9 39.4A15.3 15.3 0 0 0 46 27c0-8.3-6.3-15-14-15s-14 6.7-14 15a15.3 15.3 0 0 0 6.1 12.4A24.1 24.1 0 0 0 8 62h48a24.1 24.1 0 0 0-16.1-22.6z" fill="none" stroke="#2e4369" stroke-linecap="round" stroke-miterlimit="10" stroke-width="2" stroke-linejoin="round"/><path data-name="stroke" d="M16 18A16 16 0 0 1 32 2a16 16 0 0 1 16 16" fill="none" stroke="#2e4369" stroke-linecap="round" stroke-miterlimit="10" stroke-width="2" stroke-linejoin="round"/></svg>