<svg xmlns="http://www.w3.org/2000/svg" viewBox="0 0 64 64" aria-labelledby="title" aria-describedby="desc"><path data-name="layer2" d="M30.967 23.443c-2.623-3.205-7.445-8.6-5.333-22.462-4.719 1.857-7.621 5.941-9.654 10.686-3.212 7.494.809 16.534 6.423 23.552 7.878 9.848 20.285 26.036 22.224 28.568a.266.266 0 0 0 .45-.046l7.3-14.6S40.6 35.219 30.967 23.443z" fill="#202020"/><path data-name="layer1" d="M10.556 49.137l7.3 14.6a.266.266 0 0 0 .45.046c1.187-1.55 6.3-8.221 11.893-15.42a1207.46 1207.46 0 0 0-9.188-11.683 2545.417 2545.417 0 0 1-10.455 12.457zm36.399-37.47C44.924 6.929 42.036 2.9 37.33 1.042c1.91 12.558-1.89 18.114-4.572 21.432a1505.55 1505.55 0 0 0 9.1 11c4.886-6.727 8.049-14.918 5.097-21.807z" fill="#202020"/><path data-name="layer1" d="M27.146 8.948a19.888 19.888 0 0 1 8.667.019 38.236 38.236 0 0 0-.461-7.624L35.2.358a15.729 15.729 0 0 0-7.445-.04l-.147.964a38.5 38.5 0 0 0-.462 7.666z" fill="#202020"/></svg>