<svg xmlns="http://www.w3.org/2000/svg" viewBox="0 0 64 64" aria-labelledby="title" aria-describedby="desc"><path data-name="layer5" d="M9 2h37a6 6 0 0 1 6 6v48a6 6 0 0 1-6 6H9a1 1 0 0 1-1-1V3a1 1 0 0 1 1-1z" fill="#2a93ff"/><circle data-name="layer4" cx="30" cy="26" r="13" fill="#e1eef9"/><path data-name="opacity" d="M12 61V3a1 1 0 0 1 1-1H9a1 1 0 0 0-1 1v58a1 1 0 0 0 1 1h4a1 1 0 0 1-1-1z" fill="#000064" opacity=".16"/><path data-name="layer1" fill="#f4475d" d="M36 24h-4v-4h-4v4h-4v4h4v4h4v-4h4v-4z"/><path data-name="layer3" d="M52 33h3a2.006 2.006 0 0 0 2-2v-6a2.006 2.006 0 0 0-2-2h-3z" fill="#cbe5ff"/><path data-name="layer2" d="M52 43h3a2.006 2.006 0 0 0 2-2v-6a2.006 2.006 0 0 0-2-2h-3zm0 10h3a2.006 2.006 0 0 0 2-2v-6a2.006 2.006 0 0 0-2-2h-3z" fill="#8695b6"/><path data-name="layer1" d="M52 18h4a2.006 2.006 0 0 0 2-2v-6a2.006 2.006 0 0 0-2-2h-4z" fill="#f4475d"/><path data-name="stroke" d="M52 8h4a2.006 2.006 0 0 1 2 2v6a2.006 2.006 0 0 1-2 2h-4m-16 6h-4v-4h-4v4h-4v4h4v4h4v-4h4v-4zM18 47h25m-25 7h25" fill="none" stroke="#2e4369" stroke-linecap="round" stroke-miterlimit="10" stroke-width="2" stroke-linejoin="round"/><path data-name="stroke" d="M9 2h37a6 6 0 0 1 6 6v48a6 6 0 0 1-6 6H9a1 1 0 0 1-1-1V3a1 1 0 0 1 1-1z" fill="none" stroke="#2e4369" stroke-linecap="round" stroke-miterlimit="10" stroke-width="2" stroke-linejoin="round"/><circle data-name="stroke" cx="30" cy="26" r="13" fill="none" stroke="#2e4369" stroke-linecap="round" stroke-miterlimit="10" stroke-width="2" stroke-linejoin="round"/><path data-name="stroke" d="M52 23h3a2.006 2.006 0 0 1 2 2v6a2.006 2.006 0 0 1-2 2h-3m3 0a2.006 2.006 0 0 1 2 2v6a2.006 2.006 0 0 1-2 2h-3m3 0a2.006 2.006 0 0 1 2 2v6a2.006 2.006 0 0 1-2 2h-3" fill="none" stroke="#2e4369" stroke-linecap="round" stroke-miterlimit="10" stroke-width="2" stroke-linejoin="round"/></svg>