<svg xmlns="http://www.w3.org/2000/svg" viewBox="0 0 64 64" aria-labelledby="title" aria-describedby="desc"><path data-name="layer1" d="M57.225 5.821l-25-5.769a1 1 0 0 0-.45 0l-25 5.769A1 1 0 0 0 6 6.8v19.265a41.966 41.966 0 0 0 25.589 37.764 1.046 1.046 0 0 0 .811 0A41.978 41.978 0 0 0 58 26.065V6.8a1 1 0 0 0-.775-.979zM32 43c-8.233-5.778-13-11.556-13-17.334A6.584 6.584 0 0 1 25.5 19a7.009 7.009 0 0 1 6.5 4.444A7.009 7.009 0 0 1 38.5 19a6.584 6.584 0 0 1 6.5 6.666C45 31.444 40.233 37.222 32 43z" fill="#202020"/></svg>