<svg xmlns="http://www.w3.org/2000/svg" viewBox="0 0 64 64" aria-labelledby="title" aria-describedby="desc"><path data-name="layer1" fill="#202020" d="M36 24h-4v-4h-4v4h-4v4h4v4h4v-4h4v-4z"/><path data-name="layer2" d="M57 8h3a2.006 2.006 0 0 1 2 2v6a2.006 2.006 0 0 1-2 2h-3m0 2h2a2.006 2.006 0 0 1 2 2v6a2.006 2.006 0 0 1-2 2h-2zm0 12h2a2.006 2.006 0 0 1 2 2v6a2.006 2.006 0 0 1-2 2h-2zm0 12h2a2.006 2.006 0 0 1 2 2v6a2.006 2.006 0 0 1-2 2h-2z" fill="#202020"/><path data-name="layer1" d="M48 0H7a2 2 0 0 0-2 2v60a2 2 0 0 0 2 2h41a7.008 7.008 0 0 0 7-7V7a7.008 7.008 0 0 0-7-7zM30 13a13 13 0 1 1-13 13 13 13 0 0 1 13-13zm13 42H18a1 1 0 0 1 0-2h25a1 1 0 0 1 0 2zm0-7H18a1 1 0 0 1 0-2h25a1 1 0 0 1 0 2z" fill="#202020"/></svg>