<svg xmlns="http://www.w3.org/2000/svg" viewBox="0 0 64 64" aria-labelledby="title" aria-describedby="desc"><path data-name="layer3" d="M35.282 44.29a7.781 7.781 0 0 0 2.287-3.354A1.976 1.976 0 0 0 39 39a2.014 2.014 0 0 0-.961-1.734C37.835 33.192 35.886 30 31 30s-6.835 3.192-7.039 7.266A2.014 2.014 0 0 0 23 39a1.976 1.976 0 0 0 1.431 1.936 7.781 7.781 0 0 0 2.287 3.354A10.022 10.022 0 0 0 21 53.308V56h20v-2.692a10.022 10.022 0 0 0-5.718-9.018z" fill="#9cf"/><path data-name="layer2" d="M26.718 44.29a7.781 7.781 0 0 1-2.287-3.354A1.976 1.976 0 0 1 23 39a2.014 2.014 0 0 1 .961-1.734 10.6 10.6 0 0 1 .581-3.072A13.034 13.034 0 0 0 18 30.363v-1.312a8.822 8.822 0 0 0 4.038-4.4 17.308 17.308 0 0 0 .771-1.671c.064.006.126.019.192.019a1.994 1.994 0 0 0 .967-3.74c.826-3.617.927-7.734-.967-10.26-1.7-2.263-8.451-2.549-11 0-1 1-6-1-6 5a39.493 39.493 0 0 0 .336 5.122A2 2 0 0 0 7 23c.062 0 .121-.013.182-.018a5.674 5.674 0 0 0 .641 1.339l.015.017A8.92 8.92 0 0 0 12 29.043v1.322A13.041 13.041 0 0 0 2 43v13h19v-2.692a10.022 10.022 0 0 1 5.718-9.018z" fill="#53a9ff"/><path data-name="opacity" d="M21 53.308a10.022 10.022 0 0 1 5.718-9.018 7.781 7.781 0 0 1-2.287-3.354A1.976 1.976 0 0 1 23 39a2.014 2.014 0 0 1 .961-1.734 10.6 10.6 0 0 1 .581-3.072 13.033 13.033 0 0 0-2.1-1.828c-3.024.941-4.314 3.637-4.478 6.9A2.014 2.014 0 0 0 17 41a1.976 1.976 0 0 0 1.431 1.936 7.781 7.781 0 0 0 2.287 3.354A10.022 10.022 0 0 0 15 55.308V56h6z" fill="#000064" opacity=".16"/><path data-name="layer1" d="M52 31.366V29.3c.2-.094.385-.2.572-.311h.009c2.381.989 7.259.037 9.32-1.9a.1.1 0 0 0-.022-.159A9.542 9.542 0 0 1 57 19c0-3.922-1.923-8.805-7.654-8.994A9.193 9.193 0 0 0 40 19.055c-.014 4.795-1.877 6.813-3.8 7.842a.1.1 0 0 0 .018.176c2.8.972 4.712 2.4 9.784 2.429v1.868a13.073 13.073 0 0 0-7.975 5.684c0 .071.013.14.017.211A2.014 2.014 0 0 1 39 39a1.976 1.976 0 0 1-1.431 1.936 7.781 7.781 0 0 1-2.287 3.354A10.022 10.022 0 0 1 41 53.308V56h21V44a13.041 13.041 0 0 0-10-12.634z" fill="#f66b51"/><path data-name="stroke" d="M41 56h21V44a13.041 13.041 0 0 0-10-12.634V29.3c.2-.094.385-.2.572-.311h.009c2.381.989 7.259.037 9.32-1.9a.1.1 0 0 0-.022-.159A9.542 9.542 0 0 1 57 19c0-3.922-1.923-8.805-7.654-8.994A9.193 9.193 0 0 0 40 19.055c-.014 4.795-1.877 6.813-3.8 7.842a.1.1 0 0 0 .018.176c2.8.972 4.712 2.4 9.784 2.429v1.868a13.073 13.073 0 0 0-7.975 5.684M24.538 34.19A13.034 13.034 0 0 0 18 30.363v-1.312a8.822 8.822 0 0 0 4.038-4.4 17.308 17.308 0 0 0 .771-1.671c.064.006.126.019.192.019a1.994 1.994 0 0 0 .967-3.74c.826-3.617.927-7.734-.967-10.26-1.7-2.263-8.451-2.549-11 0-1 1-6-1-6 5a39.493 39.493 0 0 0 .336 5.122A2 2 0 0 0 7 23c.062 0 .121-.013.182-.018a5.674 5.674 0 0 0 .641 1.339l.015.017A8.92 8.92 0 0 0 12 29.043v1.322A13.041 13.041 0 0 0 2 43v13h19" fill="none" stroke="#2e4369" stroke-linecap="round" stroke-miterlimit="10" stroke-width="2" stroke-linejoin="round"/><path data-name="stroke" d="M35.282 44.29a7.781 7.781 0 0 0 2.287-3.354A1.976 1.976 0 0 0 39 39a2.014 2.014 0 0 0-.961-1.734C37.835 33.192 35.886 30 31 30s-6.835 3.192-7.039 7.266A2.014 2.014 0 0 0 23 39a1.976 1.976 0 0 0 1.431 1.936 7.781 7.781 0 0 0 2.287 3.354A10.022 10.022 0 0 0 21 53.308V56h20v-2.692a10.022 10.022 0 0 0-5.718-9.018z" fill="none" stroke="#2e4369" stroke-linecap="round" stroke-miterlimit="10" stroke-width="2" stroke-linejoin="round"/></svg>