<svg xmlns="http://www.w3.org/2000/svg" viewBox="0 0 64 64" aria-labelledby="title" aria-describedby="desc"><path data-name="layer2" d="M53 27a9.7 9.7 0 0 0-9 5.9 9.7 9.7 0 0 0-9-5.9 8.9 8.9 0 0 0-9 8.9c0 8.3 6.6 16 18 23.1 11.4-7.1 18-14.8 18-23.1a8.9 8.9 0 0 0-9-8.9z" fill="#f27eb1"/><path data-name="layer1" d="M35 27c3.9 0 7.9 2.5 9.2 5.9.5-1.4.8-2.7 2.8-3.6a26.4 26.4 0 0 0 3.2-12.1A12.2 12.2 0 0 0 38.1 5c-5.2 0-10.4 3.4-12 8.1C24.4 8.4 19.3 5 14 5A12.1 12.1 0 0 0 2 17.2c0 11.4 8.8 22.2 24 32 1.3-.8 2.5-2.2 3.7-2.2-2.4-4-3.7-7.2-3.7-10.9a9.2 9.2 0 0 1 9-9.1z" fill="#f27e7c"/><path data-name="opacity" d="M36.5 27.1H35a8.9 8.9 0 0 0-9 8.9c0 8.3 6.6 16 18 23.1-12.8-10.9-16.9-29.5-7.5-32z" fill="#000064" opacity=".15"/><path data-name="opacity" d="M26 36.1a9.2 9.2 0 0 1 3.4-7.1H29a8.9 8.9 0 0 0-9 8.9 15.7 15.7 0 0 0 .2 2.6C2.6 27.7 5.9 6.3 15.2 5.1H14A12.1 12.1 0 0 0 2 17.2C2 27.8 9.5 37.8 22.7 47l3.3 2.2c1.3-.8 2.5-2.2 3.7-2.2-2.4-4-3.7-7.2-3.7-10.9z" fill="#000064" opacity=".15"/><path data-name="stroke" d="M46.7 29.3A24.5 24.5 0 0 0 50 17.2 12.1 12.1 0 0 0 38 5a12.9 12.9 0 0 0-12 8.1A12.9 12.9 0 0 0 14 5 12.1 12.1 0 0 0 2 17.2c0 11.4 8.8 22 24 31.8l3.7-2.5" fill="none" stroke="#2e4369" stroke-linecap="round" stroke-linejoin="round" stroke-width="2"/><path data-name="stroke" d="M53 27a9.7 9.7 0 0 0-9 5.9 9.7 9.7 0 0 0-9-5.9 8.9 8.9 0 0 0-9 8.9c0 8.3 6.6 16 18 23.1 11.4-7.1 18-14.8 18-23.1a8.9 8.9 0 0 0-9-8.9z" fill="none" stroke="#2e4369" stroke-linecap="round" stroke-linejoin="round" stroke-width="2"/></svg>