<svg xmlns="http://www.w3.org/2000/svg" viewBox="0 0 64 64" aria-labelledby="title" aria-describedby="desc"><path data-name="layer2" d="M39 30v-8c-9.9 0-10 6.8-10 10s1.2 10 8.5 10h13.4a6.1 6.1 0 0 0 6.1-6H44.8C41 36 39 34.2 39 30z" fill="#ed4c49"/><path data-name="layer1" d="M39 22v8c0 4.2 2 6 5.8 6H57c0-5.7-8.1-14-18-14z" fill="#c3d6e0"/><path data-name="opacity" d="M29 32c0 3.2 1.2 10 8.5 10h13.4a5.9 5.9 0 0 0 5.3-3H40c-4 0-6-2-6-4V23h-.3c-4.6 1.9-4.7 6.5-4.7 9z" fill="#000064" opacity=".15"/><path data-name="opacity" d="M39 22v2.1c4.5.7 13.1 5.4 14 11.9h4c0-5.7-8.1-14-18-14z" fill="#fff" opacity=".5"/><path data-name="stroke" d="M57 36c0-5.7-8.1-14-18-14s-10 6.8-10 10 1.2 10 8.5 10h13.4a6.1 6.1 0 0 0 6.1-6z" fill="none" stroke="#2e4369" stroke-linecap="round" stroke-linejoin="round" stroke-width="2"/><path data-name="stroke" d="M39 16v14c0 4.2 2 6 5.8 6H57m-27.6-8H9a5.3 5.3 0 0 1-4.1-2L1 20m14-4h48M27 48h28" fill="none" stroke="#2e4369" stroke-linecap="round" stroke-linejoin="round" stroke-width="2"/></svg>