<svg xmlns="http://www.w3.org/2000/svg" viewBox="0 0 64 64" aria-labelledby="title" aria-describedby="desc"><path data-name="layer1" d="M62.1 14.5H15.5a1.9 1.9 0 0 0 0 3.9h21.3v4h3.9v-4h21.4a1.9 1.9 0 0 0 0-3.9z" fill="#202020"/><path data-name="layer2" d="M54.3 45.6H27.2a1.9 1.9 0 0 0 0 3.9h27.1a1.9 1.9 0 0 0 0-3.9z" fill="#202020"/><path data-name="layer1" d="M30.3 26.2H9.7a3.2 3.2 0 0 1-2.4-1.1l-3.7-5.8a1.9 1.9 0 0 0-3.3 2.1l3.8 5.9A7.1 7.1 0 0 0 9.6 30h19.6c-.1.7-.1 1.4-.1 1.9 0 3.1 1.2 9.7 8.2 9.7h13a5.8 5.8 0 0 0 5.6-3.9H44.4c-4.9 0-7.5-2.8-7.5-7.8v-7.5c-3.7.4-5.6 2-6.6 3.8z" fill="#202020"/><path data-name="layer1" d="M44.4 33.9h11.5c-1.4-4.9-7.6-10.7-15.2-11.5V30c0 2.9 1 3.9 3.7 3.9z" fill="#202020"/></svg>