<svg viewBox="0 0 64 64" xmlns="http://www.w3.org/2000/svg" aria-labelledby="title" aria-describedby="desc"><path fill="#5edc89" d="M52.262 48.783c1.16.793 3.045 1.868 2.686 4.349-.266 1.84-4 8.868-11.934 8.868S25.34 55.743 16.795 47.2 1.992 28.916 1.992 20.98 9.019 9.31 10.86 9.045c2.481-.359 3.556 1.525 4.35 2.686s5.311 8.119 6.013 9.187a4.269 4.269 0 0 1-1.129 5.769c-2.564 2.076-6.838 4.64 2.867 14.345S35.23 46.463 37.3 43.9a4.27 4.27 0 0 1 5.769-1.128c1.074.701 8.031 5.217 9.193 6.011z" data-name="layer1"/><path opacity=".15" fill="#000064" d="M45.014 58c-7.937 0-17.674-6.257-26.219-14.8S3.992 24.916 3.992 16.98a12.274 12.274 0 0 1 .481-3.4 12 12 0 0 0-2.481 7.4c0 7.936 6.258 17.672 14.8 26.217S35.076 62 43.014 62s11.669-7.027 11.935-8.868c.007-.051 0-.092.006-.142A12.384 12.384 0 0 1 45.014 58z" data-name="opacity"/><path stroke-width="2" stroke-miterlimit="10" stroke-linecap="round" stroke="#2e4369" fill="none" d="M52.269 48.783c1.16.793 3.045 1.868 2.686 4.349-.266 1.84-4 8.868-11.934 8.868S25.348 55.743 16.8 47.2 2 28.916 2 20.98 9.027 9.31 10.868 9.045c2.481-.359 3.556 1.525 4.35 2.686s5.311 8.119 6.013 9.187a4.269 4.269 0 0 1-1.131 5.77c-2.564 2.076-6.838 4.64 2.867 14.345s12.27 5.431 14.344 2.866a4.27 4.27 0 0 1 5.769-1.128c1.07.702 8.029 5.218 9.189 6.012zM54.008 2l-6 14h14m-4-6v12m-26-18.45a6 6 0 0 1 8.638 8.278L32.008 22h12" data-name="stroke" stroke-linejoin="round"/></svg>