<svg xmlns="http://www.w3.org/2000/svg" viewBox="0 0 64 64" aria-labelledby="title" aria-describedby="desc"><path data-name="layer2" d="M52.3 48.8c1.2.8 3 1.9 2.7 4.3S51 62 43 62s-17.7-6.3-26.2-14.8S2 28.9 2 21 9 9.3 10.9 9s3.6 1.5 4.3 2.7l6 9.2a4.3 4.3 0 0 1-1.1 5.8c-2.6 2.1-6.8 4.6 2.9 14.3s12.3 5.4 14.3 2.9a4.3 4.3 0 0 1 5.8-1.1z" fill="none" stroke="#202020" stroke-miterlimit="10" stroke-width="2" stroke-linejoin="round" stroke-linecap="round"/><path data-name="layer1" fill="none" stroke="#202020" stroke-miterlimit="10" stroke-width="2" d="M54 2l-6 14h14m-4-6v12m-14 0H32l8.5-10v-.2A6 6 0 0 0 32 3.6" stroke-linejoin="round" stroke-linecap="round"/></svg>