<svg xmlns="http://www.w3.org/2000/svg" viewBox="0 0 64 64" aria-labelledby="title" aria-describedby="desc"><path data-name="layer1" d="M2 55a2 2 0 0 0 2 2h56a2 2 0 0 0 2-2V15H24V9H2z" fill="#fbe9b5"/><path data-name="opacity" d="M8 54a2 2 0 0 1-2-2V9H2v46a2 2 0 0 0 2 2h56a2 2 0 0 0 2-2v-1z" fill="#000064" opacity=".15"/><path data-name="stroke" fill="none" stroke="#2e4369" stroke-linecap="round" stroke-miterlimit="10" stroke-width="2" d="M2 13V9h4m4 0h8m4 0h2v6h4m4 0h8m4 0h8m4 0h6v4m0 4v8m0 4v8M2 17v8m0 4v8m0 4v8m0 4v2a2 2 0 0 0 2 2h2m56-10v8a2 2 0 0 1-2 2h-2m-48 0h8m4 0h8m4 0h8m4 0h8" stroke-linejoin="round"/></svg>