<svg xmlns="http://www.w3.org/2000/svg" viewBox="0 0 64 64" aria-labelledby="title" aria-describedby="desc"><path data-name="layer2" fill="none" stroke="#202020" stroke-miterlimit="10" stroke-width="2" d="M6 8H2v4m8-4h10v4h2m4 0h8m4 0h8m4 0h4v8h2" stroke-linejoin="round" stroke-linecap="round"/><path data-name="layer1" fill="none" stroke="#202020" stroke-miterlimit="10" stroke-width="2" d="M62 22v-2h-2m2 26v-8m0-4v-8m-14-6h-8m-4 0h-8m-4 0h-8m-4 0h-2v6m0 4v8m0 4v11a3 3 0 0 1-3 3H5a3 3 0 0 1-3-3v-1" stroke-linejoin="round" stroke-linecap="round"/><path data-name="layer2" fill="none" stroke="#202020" stroke-miterlimit="10" stroke-width="2" d="M2 16v8m0 4v8m0 4v8" stroke-linejoin="round" stroke-linecap="round"/><path data-name="layer1" fill="none" stroke="#202020" stroke-miterlimit="10" stroke-width="2" d="M16 56h8m4 0h8m4 0h8m4 0h7a3 3 0 0 0 3-3v-3" stroke-linejoin="round" stroke-linecap="round"/></svg>