<svg xmlns="http://www.w3.org/2000/svg" viewBox="0 0 64 64" aria-labelledby="title" aria-describedby="desc"><path data-name="layer2" d="M54 19.9a20.7 20.7 0 0 1 2-8l-6-8c-10.8 3.4-18-2-18-2s-7.2 5.4-18 2l-6 8a20.7 20.7 0 0 1 2 8 15.3 15.3 0 0 1-.6 4h45.2a15.3 15.3 0 0 1-.6-4z" fill="#f26161"/><path data-name="layer1" d="M9.4 23.9C8.3 28 6 31.6 6 37.9c0 16.3 22 19.9 26 24 4-4.1 26-7.7 26-24 0-6.2-2.3-9.9-3.4-14z" fill="#fff"/><path data-name="opacity" d="M14 3.9l-6 8a20.7 20.7 0 0 1 2 8 15.3 15.3 0 0 1-.6 4H32v-22s-7.2 5.4-18 2zm-4.6 20C8.3 28 6 31.6 6 37.9c0 16.3 22 19.9 26 24v-38z" fill="#000032" opacity=".2"/><path data-name="stroke" d="M54.6 24.1a15.3 15.3 0 0 1-.6-4 20.7 20.7 0 0 1 2-8l-6-8c-10.8 3.4-18-2-18-2s-7.2 5.4-18 2l-6 8a20.7 20.7 0 0 1 2 8 15.3 15.3 0 0 1-.6 4m0 0C8.3 28.2 6 31.9 6 38.1c0 16.3 22 19.9 26 24 4-4.1 26-7.7 26-24 0-6.2-2.3-9.9-3.4-14z" fill="none" stroke="#2e4369" stroke-linecap="round" stroke-linejoin="round" stroke-width="2"/></svg>