<svg xmlns="http://www.w3.org/2000/svg" viewBox="0 0 64 64" aria-labelledby="title" aria-describedby="desc"><path data-name="layer2" d="M58 32S42.3 20.3 37 18.3a1.9 1.9 0 0 0-1-.3H6a2 2 0 0 0-2 2v12h54z" fill="#c3d6e0"/><path data-name="layer1" d="M58 32H4v8a2 2 0 0 0 2 2h52a2 2 0 0 0 2-2v-4a6.2 6.2 0 0 0-2-4z" fill="#dde5f4"/><path data-name="opacity" d="M11 39a2 2 0 0 1-2-2V18H6a2 2 0 0 0-2 2v20a2 2 0 0 0 2 2h52a2 2 0 0 0 2-2v-1z" fill="#000064" opacity=".1"/><path data-name="opacity" d="M42 21L31 32h4.2l9.4-9.4zm-5-2.7a1.9 1.9 0 0 0-1-.3h-8L14 32h11l13.2-13.2zM45.5 32H52l2.5-2.5-3.8-2.7z" fill="#fff" opacity=".5"/><path data-name="stroke" d="M58 32S42.3 20.3 37 18.3a1.9 1.9 0 0 0-1-.3H6a2 2 0 0 0-2 2v20a2 2 0 0 0 2 2h52a2 2 0 0 0 2-2v-4a6.2 6.2 0 0 0-2-4zM4 32h54M36 18v14M20 18v14M2 50h60" fill="none" stroke="#2e4369" stroke-linecap="round" stroke-linejoin="round" stroke-width="2"/></svg>