<svg xmlns="http://www.w3.org/2000/svg" viewBox="0 0 64 64" aria-labelledby="title" aria-describedby="desc"><path data-name="layer4" fill="#ebf5ff" d="M42 34V18H26V2H2v54h32V42l8-8z"/><path data-name="layer3" fill="#fff" d="M42 18L26 2v16h16z"/><path data-name="opacity" fill="#000064" opacity=".15" d="M22 2v21h20v-5H26V2h-4z"/><path data-name="layer2" fill="#fffeee" d="M34 62h24V42L46 30 34 42v20z"/><path data-name="opacity" fill="#000064" opacity=".15" d="M34 42l8-8v-1l-1-1-12 12v12h5V42z"/><path data-name="layer1" fill="#a06f60" d="M42 50h8v12h-8z"/><path data-name="stroke" fill="none" stroke="#2e4369" stroke-linecap="round" stroke-miterlimit="10" stroke-width="2" d="M34 56H2V2h24l16 16v16" stroke-linejoin="round"/><path data-name="stroke" fill="none" stroke="#2e4369" stroke-linecap="round" stroke-miterlimit="10" stroke-width="2" d="M26 2v16h16M30 46l16-16 16 16" stroke-linejoin="round"/><path data-name="stroke" fill="none" stroke="#2e4369" stroke-linecap="round" stroke-miterlimit="10" stroke-width="2" d="M34 42v20h24V42" stroke-linejoin="round"/><path data-name="stroke" fill="none" stroke="#2e4369" stroke-linecap="round" stroke-miterlimit="10" stroke-width="2" d="M42 62V50h8" stroke-linejoin="round"/></svg>