<svg viewBox="0 0 64 64" xmlns="http://www.w3.org/2000/svg" aria-labelledby="title" aria-describedby="desc"><path fill="#202020" d="M62.417 40.584L45 23.171 27.583 40.6a2 2 0 1 0 2.828 2.828L33 40.835V58h8V46h8v12h8V40.822l2.591 2.59a2 2 0 1 0 2.827-2.828z" data-name="layer3"/><path fill="#202020" d="M29 48.01a6 6 0 0 1-4.242-10.242l17.419-17.425.342-.343H1v30h28zm18.833-27.667l5.164 5.164V20H47.49l.343.343z" data-name="layer2"/><path fill="#202020" d="M1 6v10h52V6zm6 7a2 2 0 1 1 2-2 2 2 0 0 1-2 2zm6 0a2 2 0 1 1 2-2 2 2 0 0 1-2 2zm6 0a2 2 0 1 1 2-2 2 2 0 0 1-2 2z" data-name="layer1"/></svg>