<svg xmlns="http://www.w3.org/2000/svg" viewBox="0 0 64 64" aria-labelledby="title" aria-describedby="desc"><path data-name="layer2" fill="#bacae9" d="M2 2h60v60H2z"/><circle data-name="layer1" cx="48" cy="48" r="5" fill="#dde5f4"/><circle data-name="layer1" cx="16" cy="16" r="5" fill="#dde5f4"/><circle data-name="layer1" cx="32" cy="32" r="5" fill="#dde5f4"/><path data-name="opacity" d="M48 53a4.94 4.94 0 0 1-1.688-.313 4.989 4.989 0 1 0 6.376-6.374A4.955 4.955 0 0 1 48 53zM16 21a4.965 4.965 0 0 1-1.688-.313 4.989 4.989 0 1 0 6.376-6.375A4.955 4.955 0 0 1 16 21zm16 16a4.965 4.965 0 0 1-1.688-.313 4.989 4.989 0 1 0 6.375-6.374A4.955 4.955 0 0 1 32 37z" opacity=".2"/><circle data-name="stroke" cx="48" cy="48" r="5" fill="none" stroke="#2e4369" stroke-linecap="round" stroke-linejoin="round" stroke-width="2"/><circle data-name="stroke" cx="16" cy="16" r="5" fill="none" stroke="#2e4369" stroke-linecap="round" stroke-linejoin="round" stroke-width="2"/><circle data-name="stroke" cx="32" cy="32" r="5" fill="none" stroke="#2e4369" stroke-linecap="round" stroke-linejoin="round" stroke-width="2"/><path data-name="stroke" fill="none" stroke="#2e4369" stroke-linecap="round" stroke-linejoin="round" stroke-width="2" d="M14 48h29m-6-16h13m-36 0h13m-6-16h29M2 2h60v60H2z"/></svg>