<svg xmlns="http://www.w3.org/2000/svg" viewBox="0 0 64 64" aria-labelledby="title" aria-describedby="desc"><path data-name="layer3" fill="#cbe5ff" d="M32 29h30v28h-8V47H40v10h-8V29z"/><path data-name="layer1" fill="#8bc5ff" d="M37 36h20v4H37z"/><path data-name="layer3" fill="#cbe5ff" d="M2 7h30v50H2z"/><path data-name="layer1" fill="#8bc5ff" d="M6 38h22v4H6zm0 9h22v4H6z"/><path data-name="layer2" fill="#536897" d="M40 47h14v10H40z"/><path data-name="opacity" fill="#000064" opacity=".16" d="M40 47v2h12v8h2V47H40z"/><path data-name="layer1" fill="#8bc5ff" d="M6 29h22v4H6z"/><path data-name="opacity" fill="#000064" opacity=".16" d="M6 29v2h20v2h2v-4H6zm0 9v2h20v2h2v-4H6zm0 9v2h20v2h2v-4H6zm32-11v-7h-6v28h6V38h17v2h2v-4H38z"/><path data-name="stroke" fill="none" stroke="#2e4369" stroke-linecap="round" stroke-miterlimit="10" stroke-width="2" d="M13 12v12m8-12v12m-8-6h8M2 7h30v50H2zm38 50h-8m0-28h30v28h-8" stroke-linejoin="round"/><path data-name="stroke" fill="none" stroke="#2e4369" stroke-linecap="round" stroke-miterlimit="10" stroke-width="2" d="M40 47h14v10H40zM6 29h22v4H6zm0 9h22v4H6zm31-2h20v4H37zM6 47h22v4H6zm41 0v10" stroke-linejoin="round"/></svg>