<svg xmlns="http://www.w3.org/2000/svg" viewBox="0 0 64 64" aria-labelledby="title" aria-describedby="desc"><path data-name="layer4" fill="#cbe5ff" d="M18 62H2V2h60v60H46"/><path data-name="opacity" fill="#000064" opacity=".16" d="M18 62H2V2h60v60H46"/><path data-name="layer4" fill="#cbe5ff" d="M38 62h8V20H18v42h8V44h12v18z"/><path data-name="layer3" fill="#8bc5ff" d="M7 8h6v6H7zm15 0h6v6h-6zm14 0h6v6h-6zm15 0h6v6h-6zM7 20h6v6H7zm44 0h6v6h-6zM7 32h6v6H7zm44 0h6v6h-6zM7 44h6v6H7zm44 0h6v6h-6z"/><path data-name="layer2" fill="#536897" d="M26 44h12v18H26z"/><path data-name="opacity" fill="#000064" opacity=".16" d="M26 44v2h10v16h2V44H26z"/><path data-name="layer1" fill="#f4475d" d="M38 30h-4v-4h-4v4h-4v4h4v4h4v-4h4v-4z"/><path data-name="opacity" fill="#000064" opacity=".16" d="M13 23h5v39h-5zM7 10h4v4h2V8H7v2zm0 12h4v4h2v-6H7v2zm15-12h4v4h2V8h-6v2zM7 34h4v4h2v-6H7v2zm0 12h4v4h2v-6H7v2zm44-24h4v4h2v-6h-6v2zm0-14v2h4v4h2V8h-6zm-15 2h4v4h2V8h-6v2zm15 36h4v4h2v-6h-6v2zm0-12h4v4h2v-6h-6v2z"/><path data-name="stroke" fill="none" stroke="#2e4369" stroke-linecap="round" stroke-miterlimit="10" stroke-width="2" d="M26 62h-8V20h28v42h-8M7 8h6v6H7zm15 0h6v6h-6zm14 0h6v6h-6zm15 0h6v6h-6zM7 20h6v6H7zm44 0h6v6h-6zM7 32h6v6H7zm44 0h6v6h-6zM7 44h6v6H7zm44 0h6v6h-6z" stroke-linejoin="round"/><path data-name="stroke" fill="none" stroke="#2e4369" stroke-linecap="round" stroke-miterlimit="10" stroke-width="2" d="M18 62H2V2h60v60H46" stroke-linejoin="round"/><path data-name="stroke" fill="none" stroke="#2e4369" stroke-linecap="round" stroke-miterlimit="10" stroke-width="2" d="M26 44h12v18H26zm12-14h-4v-4h-4v4h-4v4h4v4h4v-4h4v-4z" stroke-linejoin="round"/></svg>