<svg xmlns="http://www.w3.org/2000/svg" viewBox="0 0 64 64" aria-labelledby="title" aria-describedby="desc"><path data-name="layer2" d="M62 0H2a2 2 0 0 0-2 2v60a2 2 0 0 0 2 2h14V18h32v46h14a2 2 0 0 0 2-2V2a2 2 0 0 0-2-2zM11 50H5v-6h6zm0-12H5v-6h6zm0-12H5v-6h6zm0-12H5V8h6zm16 0h-6V8h6zm16 0h-6V8h6zm16 36h-6v-6h6zm0-12h-6v-6h6zm0-12h-6v-6h6zm0-12h-6V8h6z" fill="#202020"/><path data-name="layer2" fill="#202020" d="M27 45h10v19H27z"/><path data-name="layer1" d="M18 20v44h7V43h14v21h7V20zm20 14h-4v4h-4v-4h-4v-4h4v-4h4v4h4z" fill="#202020"/></svg>