<svg xmlns="http://www.w3.org/2000/svg" viewBox="0 0 64 64" aria-labelledby="title" aria-describedby="desc"><path data-name="layer4" fill="#cbe5ff" d="M58 56V16H6v40h17V45h18v11h17z"/><path data-name="layer2" fill="#8bc5ff" d="M22.756 16H2v-6h20.063l.693 6zm18.488 0H62v-6H41.937l-.693 6z"/><path data-name="layer3" fill="#536897" d="M23 45h18v16H23z"/><path data-name="opacity" fill="#000064" opacity=".16" d="M23 45v3h15v13h3V45H23z"/><path data-name="layer2" fill="#8bc5ff" d="M11 21h6v6h-6zm36 0h6v6h-6zM11 33h6v6h-6zm0 12h6v6h-6zm36 0h6v6h-6zM23 33h6v6h-6zm12 0h6v6h-6zm12 0h6v6h-6zM29 21.542V27h-6v-6h4.636m8.728 0H41v6h-6v-5.458"/><path data-name="opacity" fill="#000064" opacity=".16" d="M11 23h4v4h2v-6h-6v2zm36-2v2h4v4h2v-6h-6zM11 35h4v4h2v-6h-6v2zm0 12h4v4h2v-6h-6v2zm36 0h4v4h2v-6h-6v2zM23 35h4v4h2v-6h-6v2zm12 0h4v4h2v-6h-6v2zm12 0h4v4h2v-6h-6v2z"/><path data-name="opacity" d="M58 16H22.85a9.931 9.931 0 0 1 .367-8.783A10 10 0 0 0 18 16H6v4h12.843A10 10 0 0 0 27 25.95V27h2v-1.069A9.953 9.953 0 0 0 35.129 23H39v4h2v-6h-4.355c.043-.074.1-.141.138-.217-.226.124-.466.223-.7.33l-.8.319a9.857 9.857 0 0 1-6.309.1l-1.18-.469A10 10 0 0 1 26.056 20H58z" fill="#000064" opacity=".16"/><path data-name="layer2" fill="#8bc5ff" d="M2 56h21v5H2zm39 0h21v5H41z"/><circle data-name="layer1" cx="32" cy="12" r="10" fill="#f4475d"/><path data-name="stroke" fill="none" stroke="#2e4369" stroke-linecap="round" stroke-miterlimit="10" stroke-width="2" d="M6 56V16m52 0v40M23 45h18v16H23zm0 16H2v-5h21m18 0h21v5H41m-9-16v16m-9.244-45H2v-6h20.063m19.874 0H62v6H41.244M11 21h6v6h-6zm36 0h6v6h-6zM11 33h6v6h-6zm0 12h6v6h-6zm36 0h6v6h-6zM23 33h6v6h-6zm12 0h6v6h-6zm12 0h6v6h-6zM29 21.542V27h-6v-6h4.636m8.728 0H41v6h-6v-5.458" stroke-linejoin="round"/><circle data-name="stroke" cx="32" cy="12" r="10" fill="none" stroke="#2e4369" stroke-linecap="round" stroke-miterlimit="10" stroke-width="2" stroke-linejoin="round"/><path data-name="stroke" fill="none" stroke="#2e4369" stroke-linecap="round" stroke-miterlimit="10" stroke-width="2" d="M32 8v8m-4-4h8" stroke-linejoin="round"/></svg>