<svg xmlns="http://www.w3.org/2000/svg" viewBox="0 0 64 64" aria-labelledby="title" aria-describedby="desc"><circle data-name="layer2" cx="32" cy="32" r="30" fill="#f4475d"/><path data-name="opacity" d="M35 58A30 30 0 0 1 9.579 12.077a30 30 0 1 0 47.842 35.846A29.92 29.92 0 0 1 35 58z" fill="#000064" opacity=".16"/><path data-name="opacity" d="M49.864 11.136c-6.371-6.128-14.074-1.8-12.7.6 1.037 2.3 4.48 3.763 6.173 5.928 2.164 1.693 3.624 5.136 5.928 6.173 2.398 1.372 6.727-6.331.599-12.701z" fill="#fff" opacity=".25"/><path data-name="layer1" fill="#d8ecff" d="M37 17v10H27V17h-9v30h9V36h10v11h9V17h-9z"/><path data-name="stroke" fill="none" stroke="#2e4369" stroke-linecap="round" stroke-miterlimit="10" stroke-width="2" d="M37 17v10H27V17h-9v30h9V36h10v11h9V17h-9z" stroke-linejoin="round"/><circle data-name="stroke" cx="32" cy="32" r="30" fill="none" stroke="#2e4369" stroke-linecap="round" stroke-miterlimit="10" stroke-width="2" stroke-linejoin="round"/></svg>