<svg xmlns="http://www.w3.org/2000/svg" viewBox="0 0 64 64" aria-labelledby="title" aria-describedby="desc"><path data-name="layer2" d="M62 32a2 2 0 0 0-2 2v17H4v-2h54v-5a3.009 3.009 0 0 0-3-3H7a3.009 3.009 0 0 0-3 3v-5h15a7 7 0 0 0-7-7H7a4.955 4.955 0 0 0-3 1.023V22a2 2 0 0 0-4 0v40a2 2 0 0 0 4 0v-5h56v5a2 2 0 0 0 4 0V34a2 2 0 0 0-2-2z" fill="#202020"/><path data-name="layer1" d="M34 33h16a2.006 2.006 0 0 0 2-2V15a2.006 2.006 0 0 0-2-2H34a2.006 2.006 0 0 0-2 2v16a2.006 2.006 0 0 0 2 2zm3-15a1 1 0 0 1 2 0v4h6v-4a1 1 0 0 1 2 0v10a1 1 0 0 1-2 0v-4h-6v4a1 1 0 0 1-2 0z" fill="#202020"/></svg>