<svg xmlns="http://www.w3.org/2000/svg" viewBox="0 0 64 64" aria-labelledby="title" aria-describedby="desc"><path data-name="layer4" fill="#90c8ff" d="M2 49h60v6H2z"/><rect data-name="layer3" x="32" y="15" width="20" height="20" rx="2" ry="2" fill="#f4475d"/><path data-name="layer2" d="M62 46a3.009 3.009 0 0 0-3-3H5a3.009 3.009 0 0 0-3 3v3h60z" fill="#cbe5ff"/><path data-name="layer1" d="M17 43a7 7 0 0 0-7-7H7a5 5 0 0 0-5 5v2z" fill="#9cceff"/><path data-name="stroke" fill="none" stroke="#2e4369" stroke-linecap="round" stroke-miterlimit="10" stroke-width="2" d="M2 62V24m60 38V36m0 19H2m0-6h60M2 46a3.009 3.009 0 0 1 3-3h54a3.009 3.009 0 0 1 3 3M2 43v-2a5 5 0 0 1 5-5h3a7 7 0 0 1 7 7" stroke-linejoin="round"/><rect data-name="stroke" x="32" y="15" width="20" height="20" rx="2" ry="2" fill="none" stroke="#2e4369" stroke-linecap="round" stroke-miterlimit="10" stroke-width="2" stroke-linejoin="round"/><path data-name="stroke" fill="none" stroke="#2e4369" stroke-linecap="round" stroke-miterlimit="10" stroke-width="2" d="M38 30V20m8 0v10m-8-5h8" stroke-linejoin="round"/></svg>