<svg xmlns="http://www.w3.org/2000/svg" viewBox="0 0 64 64" aria-labelledby="title" aria-describedby="desc"><path data-name="layer2" d="M48 9.9V8c0-8-11.6-8-16-8S16 0 16 8v1.9c8.5-1.1 23.8-1.2 32 0z" fill="#202020"/><path data-name="layer1" d="M50.4 49.1C42 47.5 42 45.7 42 44.5v-2.9a20.4 20.4 0 0 0 4.7-7.9c3.9-1.6 4.2-8.9 4.2-9.1 0-2.7-1.3-3.9-2.9-4.3v-6.4c-7.5-1.2-23.9-1.1-32 0v6.4c-1.6.5-2.9 1.7-2.9 4.5 0 .1.3 7.4 4.2 9a20.1 20.1 0 0 0 4.7 7.8v2.9c0 .1.1 1.9-2.6 3h-.2a30.5 30.5 0 0 1-5.5 1.5C2.9 51 0 58.4 0 62v2h64v-2c0-3.6-2.9-10.9-13.6-12.9zM30 53.8a12.5 12.5 0 0 1-6.9-3.7 5.9 5.9 0 0 0 2.6-3.1 19.3 19.3 0 0 0 4.3 1.2zm-2.4-10.3v-.2a2 2 0 0 0-.7-2.7 15.3 15.3 0 0 1-6.3-9.1l-.2-1.5h-1.6c-.7 0-1.7-3.5-1.8-5.3a4.2 4.2 0 0 1 0-.5h3v-3.6a101.6 101.6 0 0 1 11.8-.6 111.4 111.4 0 0 1 12.2.6V24h2.9a4.1 4.1 0 0 1 0 .5c0 1.8-1.1 5.3-1.8 5.3h-1.5l-.4 1.5a15.3 15.3 0 0 1-6.2 9.3 2 2 0 0 0-.7 2.7h.1a13 13 0 0 1-4.4.9 12.9 12.9 0 0 1-4.4-.7zM34 53.8v-5.6a19.7 19.7 0 0 0 4.4-1.2 6.1 6.1 0 0 0 2.6 3.1 12.6 12.6 0 0 1-7 3.7z" fill="#202020"/></svg>