<svg xmlns="http://www.w3.org/2000/svg" viewBox="0 0 64 64" aria-labelledby="title" aria-describedby="desc"><rect data-name="layer2" y="32" width="64" height="7" rx="1" ry="1" fill="#202020"/><path data-name="layer2" d="M43 28a3 3 0 0 0-3-3H21a3 3 0 0 0-3 3v2h25zM42 7a1 1 0 0 0 1-1 3 3 0 0 1 3-3h8a3 3 0 0 1 3 3v18h-5a5 5 0 0 0-5 5v1h15v-1a5 5 0 0 0-3-4.578V6a5.006 5.006 0 0 0-5-5h-8a5.006 5.006 0 0 0-5 5 1 1 0 0 0 1 1z" fill="#202020"/><rect data-name="layer1" x="39" y="8" width="6" height="8" rx="1" ry="1" fill="#202020"/><path data-name="layer1" d="M53 53a4.958 4.958 0 0 0-2.9.94l-15.808-7.667L45.167 41h-4.584L32 45.162 23.417 41h-4.584l10.875 5.273L13.9 53.94A4.995 4.995 0 1 0 11 63a5.008 5.008 0 0 0 4.9-4h32.2a5 5 0 1 0 4.9-6zm-4.9 4H15.9a4.939 4.939 0 0 0-.6-1.517l16.7-8.1 16.7 8.1A4.939 4.939 0 0 0 48.1 57z" fill="#202020"/></svg>