<svg xmlns="http://www.w3.org/2000/svg" viewBox="0 0 64 64" aria-labelledby="title" aria-describedby="desc"><path data-name="layer2" fill="none" stroke="#202020" stroke-linecap="round" stroke-miterlimit="10" stroke-width="2" d="M6 56V16m52 0v40" stroke-linejoin="round"/><path data-name="layer1" fill="none" stroke="#202020" stroke-linecap="round" stroke-miterlimit="10" stroke-width="2" d="M23 45h18v16H23z" stroke-linejoin="round"/><path data-name="layer2" fill="none" stroke="#202020" stroke-linecap="round" stroke-miterlimit="10" stroke-width="2" d="M23 61H2v-5h21m18 0h21v5H41" stroke-linejoin="round"/><path data-name="layer1" fill="none" stroke="#202020" stroke-linecap="round" stroke-miterlimit="10" stroke-width="2" d="M32 45v16" stroke-linejoin="round"/><path data-name="layer2" fill="none" stroke="#202020" stroke-linecap="round" stroke-miterlimit="10" stroke-width="2" d="M22.756 16H2v-6h20.063m19.874 0H62v6H41.244M11 21h6v6h-6zm36 0h6v6h-6zM11 33h6v6h-6zm0 12h6v6h-6zm36 0h6v6h-6zM23 33h6v6h-6zm12 0h6v6h-6zm12 0h6v6h-6zM29 21.542V27h-6v-6h4.636m8.728 0H41v6h-6v-5.458" stroke-linejoin="round"/><circle data-name="layer1" cx="32" cy="12" r="10" fill="none" stroke="#202020" stroke-linecap="round" stroke-miterlimit="10" stroke-width="2" stroke-linejoin="round"/><path data-name="layer1" fill="none" stroke="#202020" stroke-linecap="round" stroke-miterlimit="10" stroke-width="2" d="M32 8v8m-4-4h8" stroke-linejoin="round"/></svg>