<svg xmlns="http://www.w3.org/2000/svg" viewBox="0 0 64 64" aria-labelledby="title" aria-describedby="desc"><path data-name="layer2" fill="none" stroke="#202020" stroke-linecap="round" stroke-miterlimit="10" stroke-width="2" d="M26 62h-8V20h28v42h-8" stroke-linejoin="round"/><path data-name="layer1" fill="none" stroke="#202020" stroke-linecap="round" stroke-miterlimit="10" stroke-width="2" d="M7 8h6v6H7zm15 0h6v6h-6zm14 0h6v6h-6zm15 0h6v6h-6zM7 20h6v6H7zm44 0h6v6h-6zM7 32h6v6H7zm44 0h6v6h-6zM7 44h6v6H7zm44 0h6v6h-6z" stroke-linejoin="round"/><path data-name="layer2" fill="none" stroke="#202020" stroke-linecap="round" stroke-miterlimit="10" stroke-width="2" d="M18 62H2V2h60v60H46" stroke-linejoin="round"/><path data-name="layer2" fill="none" stroke="#202020" stroke-linecap="round" stroke-miterlimit="10" stroke-width="2" d="M26 44h12v18H26z" stroke-linejoin="round"/><path data-name="layer1" fill="none" stroke="#202020" stroke-linecap="round" stroke-miterlimit="10" stroke-width="2" d="M38 30h-4v-4h-4v4h-4v4h4v4h4v-4h4v-4z" stroke-linejoin="round"/></svg>