<svg xmlns="http://www.w3.org/2000/svg" viewBox="0 0 64 64" aria-labelledby="title" aria-describedby="desc"><path data-name="layer2" d="M26 50v8.8a3.2 3.2 0 0 0 3.2 3.2h5.6a3.2 3.2 0 0 0 3.2-3.2V50z" fill="#202020"/><path data-name="layer1" d="M32 2c-1.2 0-2.6 1.1-3.8 2.9-3.5 5.5-6.6 20.8 3.8 43.6 10.4-22.9 7.3-38.2 3.8-43.6C34.6 3.1 33.2 2 32 2z" fill="#202020"/><path data-name="layer1" d="M24.4 3.5a19.9 19.9 0 0 0-9.8 28.3c3.3 6.6 8.9 12.4 12.5 15.7-8.7-20.8-7.1-36.4-2.7-44zm15.2 0c4.4 7.6 6 23.2-2.8 44 3.6-3.3 9.3-9.1 12.5-15.7a19.9 19.9 0 0 0-9.7-28.3z" fill="#202020"/></svg>