<svg xmlns="http://www.w3.org/2000/svg" viewBox="0 0 64 64" aria-labelledby="title" aria-describedby="desc"><path data-name="layer1" d="M47.189 24.981H23.8l-9.335-14.808a6.673 6.673 0 0 0-5.644-3.114H4.28a2.277 2.277 0 0 0-1.926 3.49L14.9 30.454 2.662 54a2.276 2.276 0 0 0 2.019 3.326h3.973a6.672 6.672 0 0 0 5.919-3.594l9.517-18.3h23.963L38.4 54a2.276 2.276 0 0 0 2.019 3.326h3.971a6.672 6.672 0 0 0 5.919-3.594L61.5 32.2a4.413 4.413 0 0 0-.183-4.39L50.2 10.173a6.673 6.673 0 0 0-5.644-3.114h-4.54a2.277 2.277 0 0 0-1.926 3.49zm0 0" fill="none" stroke="#202020" stroke-linecap="round" stroke-miterlimit="10" stroke-width="2" stroke-linejoin="round"/></svg>