<svg xmlns="http://www.w3.org/2000/svg" viewBox="0 0 64 64" aria-labelledby="title" aria-describedby="desc"><path data-name="layer1" d="M48.2 24.5H23.254L13.3 8.7a7.117 7.117 0 0 0-6.025-3.316H2.432A2.428 2.428 0 0 0 .378 9.107l13.385 21.231L.706 55.452A2.427 2.427 0 0 0 2.86 59H7.1a7.116 7.116 0 0 0 6.314-3.834l10.149-19.523h25.56l-10.3 19.81A2.427 2.427 0 0 0 40.978 59h4.238a7.116 7.116 0 0 0 6.314-3.834L63.469 32.2a4.707 4.707 0 0 0-.195-4.683L51.414 8.7a7.117 7.117 0 0 0-6.021-3.321H40.55a2.428 2.428 0 0 0-2.05 3.728zm0 0" fill="#0090e1"/></svg>