<svg xmlns="http://www.w3.org/2000/svg" viewBox="0 0 64 64" aria-labelledby="title" aria-describedby="desc"><path data-name="layer1" d="M58 37h-8a2 2 0 0 1 0-4 4 4 0 0 0 0-8H24a2 2 0 0 1 0-4 4 4 0 0 0 0-8H8a4 4 0 0 0 0 8h6a2 2 0 0 1 0 4h-4a4 4 0 0 0 0 8h25a2 2 0 0 1 0 4H6a4 4 0 0 0 0 8h52a4 4 0 0 0 0-8z" fill="#e6f0fa"/><path data-name="layer1" d="M36 21h6a4 4 0 0 0 0-8h-6a4 4 0 0 0 0 8zm18 0h1a4 4 0 0 0 0-8h-1a4 4 0 0 0 0 8zm-4 28H34a4 4 0 1 0 0 8h16a4 4 0 0 0 0-8zm-28 0h-3a4 4 0 1 0 0 8h3a4 4 0 0 0 0-8z" fill="#e6f0fa"/><path data-name="opacity" d="M50 33a4 4 0 0 0 3.7-5.5A4 4 0 0 1 50 30a2 2 0 0 0-1.3 3.5A2 2 0 0 1 50 33zm4-12h1a4 4 0 0 0 3.7-5.5A4 4 0 0 1 55 18h-1a4 4 0 0 1-3.7-2.5A4 4 0 0 0 54 21zm-19 9H10a4 4 0 0 1-3.7-2.5A4 4 0 0 0 10 33h25a2 2 0 0 1 1.3.5A2 2 0 0 0 35 30zm1-9h6a4 4 0 0 0 3.7-5.5A4 4 0 0 1 42 18h-6a4 4 0 0 1-3.7-2.5A4 4 0 0 0 36 21zm-12-3a2 2 0 0 0-1.3 3.5A2 2 0 0 1 24 21a4 4 0 0 0 3.7-5.5A4 4 0 0 1 24 18zm26 36H34a4 4 0 0 1-3.7-2.5A4 4 0 0 0 34 57h16a4 4 0 0 0 3.7-5.5A4 4 0 0 1 50 54zm8-12H6a4 4 0 0 1-3.7-2.5A4 4 0 0 0 6 45h52a4 4 0 0 0 3.7-5.5A4 4 0 0 1 58 42zM22 54h-3a4 4 0 0 1-3.7-2.5A4 4 0 0 0 19 57h3a4 4 0 0 0 3.7-5.5A4 4 0 0 1 22 54zM8 21h6a2 2 0 0 1 1.3.5A2 2 0 0 0 14 18H8a4 4 0 0 1-3.7-2.5A4 4 0 0 0 8 21z" fill="#000064" opacity=".15"/><path data-name="stroke" d="M58 37h-8a2 2 0 0 1 0-4 4 4 0 0 0 0-8H24a2 2 0 0 1 0-4 4 4 0 0 0 0-8H8a4 4 0 0 0 0 8h6a2 2 0 0 1 0 4h-4a4 4 0 0 0 0 8h25a2 2 0 0 1 0 4H6a4 4 0 0 0 0 8h52a4 4 0 0 0 0-8z" fill="none" stroke="#2e4369" stroke-linecap="round" stroke-linejoin="round" stroke-width="2"/><path data-name="stroke" d="M36 21h6a4 4 0 0 0 0-8h-6a4 4 0 0 0 0 8zm18 0h1a4 4 0 0 0 0-8h-1a4 4 0 0 0 0 8zm-4 28H34a4 4 0 1 0 0 8h16a4 4 0 0 0 0-8zm-28 0h-3a4 4 0 1 0 0 8h3a4 4 0 0 0 0-8z" fill="none" stroke="#2e4369" stroke-linecap="round" stroke-linejoin="round" stroke-width="2"/></svg>