<svg xmlns="http://www.w3.org/2000/svg" viewBox="0 0 64 64" aria-labelledby="title" aria-describedby="desc"><path data-name="layer2" d="M41.1 12a11 11 0 0 0-11 11v1h12v6a4 4 0 1 0 8 0v-7h2a11 11 0 0 0-11-11z" fill="#202020"/><path data-name="layer2" d="M38.1 30v-2h-8a4 4 0 0 1-4-4H15.9l.8 2.1L30.8 62l11-25.2a8 8 0 0 1-3.7-6.8z" fill="#202020"/><path data-name="layer1" d="M26.5 20l.3-1.5a15 15 0 0 1 5.3-7.5 11.1 11.1 0 0 0-4.2-3.8l-1.8-.7a11 11 0 0 0-13.2 14.9 4 4 0 0 1 3-1.4zm3.2-16.4h.2a15.1 15.1 0 0 1 5.7 5.2V9a14.7 14.7 0 0 1 9.4-.5 11 11 0 0 0-15.5-5h.2z" fill="#202020"/></svg>