<svg xmlns="http://www.w3.org/2000/svg" viewBox="0 0 64 64" aria-labelledby="title" aria-describedby="desc"><path data-name="layer2" d="M58 35h-8a2 2 0 0 1 0-4h-.004a4 4 0 0 0 0-8H24a2 2 0 0 1-.02-3.998h.002a4 4 0 0 0 0-8H8.002a4 4 0 0 0 0 8h6.017A2 2 0 0 1 14 23h-3.998a4 4 0 0 0 0 8H35a2 2 0 0 1 0 4H6a4 4 0 0 0 0 8h52a4 4 0 0 0 0-8z" fill="#202020"/><path data-name="layer1" d="M36.002 19.002h5.977a4 4 0 0 0 0-8h-5.977a4 4 0 0 0 0 8zm18 0h.973a4 4 0 0 0 0-8h-.973a4 4 0 0 0 0 8zM49.97 47H33.99a4 4 0 1 0 0 8h15.98a4 4 0 0 0 0-8zm-28 0h-2.976a4 4 0 1 0 0 8h2.977a4 4 0 0 0 0-8z" fill="#202020"/></svg>