<svg xmlns="http://www.w3.org/2000/svg" viewBox="0 0 64 64" aria-labelledby="title" aria-describedby="desc"><path data-name="layer1" d="M6 0v59.4a4.6 4.6 0 0 0 4.6 4.6h42.8a4.6 4.6 0 0 0 4.6-4.6V0zm32.4 25a3.1 3.1 0 0 1 1.6.4l7.4 4.3a3.1 3.1 0 0 1 1.2 4.3l-4.3 7.4a3.1 3.1 0 0 1-4.3 1.2l-7.4-4.3a3.1 3.1 0 0 1-1.2-4.3l4.3-7.4a3.2 3.2 0 0 1 2.7-1.6zm-23.3-7.4a3.1 3.1 0 0 1 1.5-1.9l7.4-4.3a3.1 3.1 0 0 1 4.3 1.2l4.3 7.4a3.2 3.2 0 0 1-1.2 4.3L24 28.6a3.1 3.1 0 0 1-4.3-1.1L15.4 20a3.1 3.1 0 0 1-.3-2.4zM54 59.4a.6.6 0 0 1-.6.6H10.6a.6.6 0 0 1-.6-.6V50h44z" fill="#202020"/></svg>