<svg xmlns="http://www.w3.org/2000/svg" viewBox="0 0 64 64" aria-labelledby="title" aria-describedby="desc"><path data-name="layer2" d="M30 46.9c-4-.9-4-2.3-4-3.3v-1.5a9.3 9.3 0 0 0 2.9-6.9v-4.5A6.8 6.8 0 0 0 22 24a6.8 6.8 0 0 0-7 6.7v4.5a9.3 9.3 0 0 0 3 6.9v1.5c0 .9 0 2.4-4.2 3.3S10 52 10 52h24a5.1 5.1 0 0 0-4-5.1z" fill="none" stroke="#202020" stroke-miterlimit="10" stroke-width="2" stroke-linejoin="round" stroke-linecap="round"/><path data-name="layer1" fill="none" stroke="#202020" stroke-miterlimit="10" stroke-width="2" d="M36 10h26v50H2V10h26" stroke-linejoin="round" stroke-linecap="round"/><path data-name="layer2" fill="none" stroke="#202020" stroke-miterlimit="10" stroke-width="2" d="M28 4h8v12h-8z" stroke-linejoin="round" stroke-linecap="round"/><path data-name="layer1" fill="none" stroke="#202020" stroke-miterlimit="10" stroke-width="2" d="M38 24h16m-16 8h10m-10 8h14" stroke-linejoin="round" stroke-linecap="round"/></svg>