<svg xmlns="http://www.w3.org/2000/svg" viewBox="0 0 64 64" aria-labelledby="title" aria-describedby="desc"><path data-name="layer2" fill="#202020" d="M28 4h8v12h-8z"/><path data-name="layer1" d="M40 10v10H24V10H2v50h60V10zm-6 42H10s.1-4.3 3.8-5.1 4.2-2.4 4.2-3.3v-1.5a9.3 9.3 0 0 1-3-6.9v-4.5a6.8 6.8 0 0 1 7-6.7 6.8 6.8 0 0 1 6.9 6.7v4.5a9.3 9.3 0 0 1-2.9 6.9v1.5c0 .9 0 2.4 4 3.3a5.1 5.1 0 0 1 4 5.1zm18-8H38a2 2 0 0 1 0-4h14a2 2 0 0 1 0 4zM36 34a2 2 0 0 1 2-2h10a2 2 0 0 1 0 4H38a2 2 0 0 1-2-2zm18-6H38a2 2 0 0 1 0-4h16a2 2 0 0 1 0 4z" fill="#202020"/></svg>