<svg xmlns="http://www.w3.org/2000/svg" viewBox="0 0 64 64" aria-labelledby="title" aria-describedby="desc"><path data-name="layer2" d="M36.3 14.1a2 2 0 1 0-3.3-2.2L25.6 23h10l-2.9 4.3a2 2 0 1 0 3.3 2.3L43.1 19h-10z" fill="#202020"/><path data-name="layer1" d="M57.3 22c0-15.8-12-20-22-20-14 0-24 5.2-24 16v10a20 20 0 0 1-4 8c-.9.9-1.2 2.5.9 3.1s2.5.4 2.7 1.7-.6 2.8.6 3.2.1 1.7 1.3 2.7-1 5.2 3.4 5.2h4.7c2.3 0 2.4 1.7 2.4 4s-2 6-2 6h28s-4-4.1-4-8c0-5.9 12-15.4 12-31.9zm-16.4 7.9a10.9 10.9 0 0 1-12.9 0h-.7A8 8 0 0 1 25.9 14a11 11 0 0 1 17.2.1A8 8 0 0 1 41.3 30z" fill="#202020"/></svg>