<svg xmlns="http://www.w3.org/2000/svg" viewBox="0 0 64 64" aria-labelledby="title" aria-describedby="desc"><path data-name="layer3" d="M50 56h8V2H9a3 3 0 0 0-3 3v2a3 3 0 0 0 3 3h41z" fill="#f27e7c"/><path data-name="layer4" d="M50 56h8V2H9a3 3 0 0 0-3 3v2a3 3 0 0 0 3 3h41z" fill="#ed4c49"/><path data-name="layer3" d="M6 59a3 3 0 0 0 3 3h41V10H9a3 3 0 0 1-3-3z" fill="#f27e7c"/><path data-name="layer2" fill="#7bd8fc" d="M14 24h28v22H14z"/><path data-name="layer1" d="M16 46c0-1.5 2.4-9 6-9s2.6 3 4 3 2-8 6-8 8 12.8 8 14" fill="#3db47b"/><path data-name="stroke" d="M6 7a3 3 0 0 0 3 3h41v52H9a3 3 0 0 1-3-3V5a3 3 0 0 1 3-3h49v54h-8" fill="none" stroke="#2e4369" stroke-linecap="round" stroke-miterlimit="10" stroke-width="2" stroke-linejoin="round"/><path data-name="stroke" d="M16 46c0-1.5 2.4-9 6-9s2.6 3 4 3 2-8 6-8 8 12.8 8 14" fill="none" stroke="#2e4369" stroke-linecap="round" stroke-miterlimit="10" stroke-width="2" stroke-linejoin="round"/><path data-name="stroke" fill="none" stroke="#2e4369" stroke-linecap="round" stroke-miterlimit="10" stroke-width="2" d="M14 24h28v22H14z" stroke-linejoin="round"/></svg>