<svg xmlns="http://www.w3.org/2000/svg" viewBox="0 0 64 64" aria-labelledby="title" aria-describedby="desc"><path data-name="layer3" d="M7 55a3 3 0 0 0 3-3V19h52v33a3 3 0 0 1-3 3H5" fill="#f8da82"/><path data-name="layer3" d="M10 52V19h44v-8H20V7H2v45a3 3 0 0 0 3 3h2a3 3 0 0 0 3-3z" fill="#f8da82"/><path data-name="opacity" d="M10 52V19h44v-8H20V7H2v45a3 3 0 0 0 3 3h2a3 3 0 0 0 3-3z" fill="#000064" opacity=".15"/><path data-name="opacity" fill="#fff" opacity=".2" d="M10 19h52v3H10z"/><circle data-name="layer2" cx="22" cy="31" r="4" fill="#fce349"/><path data-name="layer1" d="M22 47c0-1.9 3.5-10 8-10s4.2 3.1 6 3.1S39 29 44 29s10 16.5 10 18z" fill="#a0eaa0"/><circle data-name="stroke" cx="22" cy="31" r="4" fill="none" stroke="#2e4369" stroke-linecap="round" stroke-miterlimit="10" stroke-width="2" stroke-linejoin="round"/><path data-name="stroke" d="M22 47c0-1.9 3.5-10 8-10s4.2 3.1 6 3.1S39 29 44 29s10 16.5 10 18z" fill="none" stroke="#2e4369" stroke-linecap="round" stroke-miterlimit="10" stroke-width="2" stroke-linejoin="round"/><path data-name="stroke" d="M7 55a3 3 0 0 0 3-3V19h52v33a3 3 0 0 1-3 3H5a3 3 0 0 1-3-3V7h18v4h34v8" fill="none" stroke="#2e4369" stroke-linecap="round" stroke-miterlimit="10" stroke-width="2" stroke-linejoin="round"/></svg>