<svg xmlns="http://www.w3.org/2000/svg" viewBox="0 0 64 64" aria-labelledby="title" aria-describedby="desc"><path data-name="layer2" d="M58.6 49.1a11.7 11.7 0 0 0 0-4.3l3.1-1.8-4-6.9-3.1 1.8a12 12 0 0 0-3.7-2.1V32h-8v3.7a12 12 0 0 0-3.7 2.1L36 36l-4 7 3 1.7a11.6 11.6 0 0 0 0 4.4L31.7 51l4 6.9 3.3-1.8a12 12 0 0 0 3.8 2.2V62h8v-3.7a12.1 12.1 0 0 0 3.9-2.3l3.3 2 4-7zM46.9 52a5 5 0 1 1 5-5 5 5 0 0 1-5 5z" fill="#202020"/><path data-name="layer1" d="M27.8 50a4 4 0 0 1 1.3-2H2v10h29.1l-2.9-5a4 4 0 0 1-.4-3zM2 2v42h26.2a4 4 0 0 1 .4-3l4-6.9a4 4 0 0 1 2.4-1.9h1a4 4 0 0 1 2 .5l.8.5V32a4 4 0 0 1 4-4H50V2z" fill="#202020"/></svg>