<svg xmlns="http://www.w3.org/2000/svg" viewBox="0 0 64 64" aria-labelledby="title" aria-describedby="desc"><path data-name="layer2" d="M62.4 47.6a2 2 0 0 0-2.8 0l-1.5 1.5a14.1 14.1 0 0 0-4-10 13.9 13.9 0 0 0-16.4-2.4 2 2 0 0 0 1.9 3.5 9.9 9.9 0 0 1 11.7 1.7 10.1 10.1 0 0 1 2.9 6.9L53 47.6a2 2 0 0 0-3 2.8l6.2 6.3 6.2-6.3a2 2 0 0 0 0-2.8zM48.9 57.8a9.8 9.8 0 0 1-11.7-1.7 10.1 10.1 0 0 1-2.9-6.9l1.2 1.2a2 2 0 0 0 2.8-2.8l-6.2-6.3-6.1 6.3a2 2 0 0 0 2.8 2.8l1.5-1.5a14.1 14.1 0 0 0 4 10 13.9 13.9 0 0 0 9.9 4.1 13.7 13.7 0 0 0 6.6-1.7 2 2 0 1 0-1.9-3.5z" fill="#202020"/><path data-name="layer1" d="M23.2 53.3a6 6 0 0 1-1.5-6.3H1v10h27.2a18 18 0 0 1-.8-2 6 6 0 0 1-4.2-1.7zM1 1v42h23.9l4.5-4.5a4 4 0 0 1 2.8-1.2h.4v-.6a6 6 0 0 1 2.9-3.6A17.7 17.7 0 0 1 49 31.7V1z" fill="#202020"/></svg>