<svg xmlns="http://www.w3.org/2000/svg" viewBox="0 0 64 64" aria-labelledby="title" aria-describedby="desc"><path data-name="layer3" d="M2 55a2 2 0 0 0 2 2h56a2 2 0 0 0 2-2V15H24V9H2z" fill="#f8da82"/><path data-name="opacity" d="M8 54a2 2 0 0 1-2-2V9H2v46a2 2 0 0 0 2 2h56a2 2 0 0 0 2-2v-1z" fill="#000064" opacity=".15"/><circle data-name="layer2" cx="20" cy="27" r="4" fill="#fce349"/><path data-name="layer1" d="M14 49c0-2.1 5-12 10-12s4 4 6 4 2.5-12 8-12 12 18.3 12 20z" fill="#a0eaa0"/><circle data-name="stroke" cx="20" cy="27" r="4" fill="none" stroke="#2e4369" stroke-linecap="round" stroke-miterlimit="10" stroke-width="2" stroke-linejoin="round"/><path data-name="stroke" d="M14 49c0-2.1 5-12 10-12s4 4 6 4 2.5-12 8-12 12 18.3 12 20z" fill="none" stroke="#2e4369" stroke-linecap="round" stroke-miterlimit="10" stroke-width="2" stroke-linejoin="round"/><path data-name="stroke" d="M2 55a2 2 0 0 0 2 2h56a2 2 0 0 0 2-2V15H24V9H2z" fill="none" stroke="#2e4369" stroke-linecap="round" stroke-miterlimit="10" stroke-width="2" stroke-linejoin="round"/></svg>