<svg xmlns="http://www.w3.org/2000/svg" viewBox="0 0 64 64" aria-labelledby="title" aria-describedby="desc"><path data-name="layer4" fill="#d1ebf7" d="M10 10h52v40H10z"/><circle data-name="layer3" cx="22" cy="22" r="4" fill="#fff432"/><path data-name="layer1" fill="#f7f9fc" d="M10 50h52v12H10z"/><path data-name="layer2" d="M56 50c0-2.2-4.1-26-12-26s-8.7 16-10 16-3.4-6-8.7-6S16 47.2 16 50z" fill="#92d5b5"/><path data-name="layer1" fill="#f7f9fc" d="M10 54H2V2h52v8H10v44z"/><path data-name="opacity" fill="#000064" opacity=".2" d="M10 54H2V2h52v8H10v44z"/><path data-name="stroke" fill="none" stroke="#2e4369" stroke-linecap="round" stroke-miterlimit="10" stroke-width="2" d="M10 54H2V2h52v8" stroke-linejoin="round"/><path data-name="stroke" fill="none" stroke="#2e4369" stroke-linecap="round" stroke-miterlimit="10" stroke-width="2" d="M10 10h52v52H10z" stroke-linejoin="round"/><circle data-name="stroke" cx="22" cy="22" r="4" fill="none" stroke="#2e4369" stroke-linecap="round" stroke-miterlimit="10" stroke-width="2" stroke-linejoin="round"/><path data-name="stroke" d="M16 50c0-2.8 2.6-16 9.3-16s6.1 6 8.7 6 2.6-16 10-16 12 23.8 12 26m-46 0h52" fill="none" stroke="#2e4369" stroke-linecap="round" stroke-miterlimit="10" stroke-width="2" stroke-linejoin="round"/></svg>