<svg xmlns="http://www.w3.org/2000/svg" viewBox="0 0 64 64" aria-labelledby="title" aria-describedby="desc"><path data-name="layer2" d="M46 32L30 62h32zm1.4 25.4a2 2 0 0 1-1.4.6 2 2 0 0 1-1.4-.6A2 2 0 0 1 44 56a2 2 0 0 1 .6-1.4 2.1 2.1 0 0 1 2.8 0A2 2 0 0 1 48 56a2 2 0 0 1-.6 1.4zM46 52a2 2 0 0 1-2-2v-6a2 2 0 0 1 4 0v6a2 2 0 0 1-2 2z" fill="#202020"/><path data-name="layer1" d="M42.5 30.1l3.5-6.6V2h-8v6a2 2 0 0 1 0 4h-4a2 2 0 0 1 0-4V2h-8v6a2 2 0 0 1 0 4h-4a2 2 0 0 1 0-4V2h-8v6a2 2 0 0 1 0 4h-4a2 2 0 1 1 0-4V2H2v56h25.6z" fill="#202020"/></svg>