<svg xmlns="http://www.w3.org/2000/svg" viewBox="0 0 64 64" aria-labelledby="title" aria-describedby="desc"><path data-name="layer1" d="M62 31.7v-.2a9.7 9.7 0 0 0-.1-1.4 10.1 10.1 0 0 0-12-7.6c-4.3 1-7.8 4.6-8.3 8.7a9.6 9.6 0 0 0-3.7-3.3l1.4-1.8.7-1.2v-.2a10.7 10.7 0 0 0 .5-1.4A10 10 0 0 0 34 10.8a10.8 10.8 0 0 0-11.6 3.4A10.8 10.8 0 0 0 15 4.7 10 10 0 0 0 2.6 11h-.1a9.9 9.9 0 0 0-.5 3c-.4 8.9 6.7 20.3 11.7 28 2.7-1.1 5.8-2.4 8.9-4a13.5 13.5 0 0 0 3 6.3l1.6 1.9c5.4 5.7 14.2 10.2 20.8 13.6 5.6-7.3 13.4-18.6 14-26.6a9.7 9.7 0 0 0 0-1.5z" fill="#f27e7c"/><path data-name="opacity" d="M30.3 26.9a11.2 11.2 0 0 1 7.5 1l1.4-1.8.7-1.2v-.2a10.7 10.7 0 0 0 .5-1.4 10 10 0 0 0-6.5-12.5 10.8 10.8 0 0 0-11.6 3.4 10.8 10.8 0 0 0-7.5-9.3A10 10 0 0 0 2.6 11h-.1a9.9 9.9 0 0 0-.5 3c-.4 8.9 6.7 20.3 11.7 28 2.7-1.1 5.8-2.4 8.9-4a9.8 9.8 0 0 1 7.7-11.1z" fill="#000064" opacity=".15"/><path data-name="stroke" d="M37.8 27.9l1.4-1.8.7-1.2v-.2l.5-1.3a10 10 0 0 0-6.5-12.6 10.8 10.8 0 0 0-11.6 3.3A10.8 10.8 0 0 0 15 4.7 10 10 0 0 0 2.6 11h-.1a9.9 9.9 0 0 0-.5 3c-.4 8.9 6.7 20.3 11.7 28 5.5-2.3 12.7-5.5 18.3-9.3" fill="none" stroke="#2e4369" stroke-linecap="round" stroke-linejoin="round" stroke-width="2"/><path data-name="stroke" d="M25.6 44.3l1.6 1.9c5.4 5.7 14.2 10.2 20.8 13.6 5.6-7.3 13.4-18.6 14-26.6a9.7 9.7 0 0 0 0-1.4v-.2a10 10 0 0 0-.2-1.4 10 10 0 0 0-12-7.6 10.8 10.8 0 0 0-8.3 8.7A10.8 10.8 0 0 0 30.3 27a10 10 0 0 0-7.7 11.2" fill="none" stroke="#2e4369" stroke-linecap="round" stroke-linejoin="round" stroke-width="2"/></svg>