<svg xmlns="http://www.w3.org/2000/svg" viewBox="0 0 64 64" aria-labelledby="title" aria-describedby="desc"><path data-name="layer2" d="M46 30a15.9 15.9 0 0 1 10 3.5V10H2v36h28a16 16 0 0 1 16-16z" fill="#fff4e3"/><path data-name="opacity" fill="#000064" opacity=".14" d="M2 10l27 20.6L56 10v1.5L26 38 2 14.5V10z"/><circle data-name="layer1" cx="46" cy="46" r="16" fill="#5edc89"/><path data-name="opacity" d="M46 30a16 16 0 0 0-12.7 6.3 16 16 0 0 1 22.4 22.4A16 16 0 0 0 46 30z" fill="#fff" opacity=".25"/><path data-name="opacity" d="M24.1 46H30a16 16 0 0 1 10.4-15H40a16 16 0 0 0-15.9 15z" fill="#000064" opacity=".14"/><path data-name="stroke" fill="none" stroke="#2e4369" stroke-linecap="round" stroke-miterlimit="10" stroke-width="2" d="M30 46H2V10h54v23" stroke-linejoin="round"/><path data-name="stroke" fill="none" stroke="#2e4369" stroke-linecap="round" stroke-miterlimit="10" stroke-width="2" d="M2 10l27 20.6L56 10" stroke-linejoin="round"/><circle data-name="stroke" cx="46" cy="46" r="16" fill="none" stroke="#2e4369" stroke-linecap="round" stroke-miterlimit="10" stroke-width="2" stroke-linejoin="round"/><path data-name="stroke" fill="none" stroke="#2e4369" stroke-linecap="round" stroke-miterlimit="10" stroke-width="2" d="M46 38v14m5.9-4.9L46 52.9l-5.9-5.8" stroke-linejoin="round"/></svg>