<svg xmlns="http://www.w3.org/2000/svg" viewBox="0 0 64 64" aria-labelledby="title" aria-describedby="desc"><path data-name="layer1" d="M62 0H2a2 2 0 0 0-2 2v60a2 2 0 0 0 2 2h60a2 2 0 0 0 2-2V2a2 2 0 0 0-2-2zM30.984 54.001H10.985a1 1 0 0 1 0-2h20a1 1 0 0 1 0 2zm0-6h-22a1 1 0 0 1 0-2h22a1 1 0 0 1 0 2zm0-6H16.985a1 1 0 1 1 0-2h14a1 1 0 0 1 0 2zm0-6H9.016a1 1 0 0 1 0-2h21.968a1 1 0 0 1 0 2zm0-6H10.985a1 1 0 0 1 0-2h20a1 1 0 0 1 0 2zm0-6H9.016a1 1 0 1 1 0-2h21.968a1 1 0 0 1 0 2zm0-6H16.985a1 1 0 0 1 0-2h14a1 1 0 0 1 0 2zm0-6H9a1 1 0 0 1 0-2h21.984a1 1 0 0 1 0 2zM38 54.016a1 1 0 0 1-2 0V10.02a1 1 0 0 1 2 0zM54 33h-8.586l3.293 3.293a1 1 0 1 1-1.414 1.414l-5-5-.707-.707.707-.707 5-5a1 1 0 0 1 1.414 1.414L45.414 31H54a1 1 0 0 1 0 2z" fill="#202020"/></svg>