<svg xmlns="http://www.w3.org/2000/svg" viewBox="0 0 64 64" aria-labelledby="title" aria-describedby="desc"><path data-name="layer1" d="M62 0H2a2 2 0 0 0-2 2v60a2 2 0 0 0 2 2h60a2 2 0 0 0 2-2V2a2 2 0 0 0-2-2zM33.016 10.001H55a1 1 0 0 1 0 2H33.016a1 1 0 0 1 0-2zm0 6h13.999a1 1 0 0 1 0 2h-14a1 1 0 0 1 0-2zm0 6h21.968a1 1 0 0 1 0 2H33.016a1 1 0 0 1 0-2zm0 6h19.999a1 1 0 0 1 0 2h-20a1 1 0 0 1 0-2zm0 6h21.968a1 1 0 0 1 0 2H33.016a1 1 0 0 1 0-2zm0 6h13.999a1 1 0 0 1 0 2h-14a1 1 0 0 1 0-2zm-11.309-7.294l-5 5a1 1 0 0 1-1.414-1.414L18.586 33H10a1 1 0 0 1 0-2h8.586l-3.293-3.293a1 1 0 0 1 1.414-1.414l5 5 .707.707zM28 54.016a1 1 0 0 1-2 0V10.02a1 1 0 0 1 2 0zM53.015 54h-20a1 1 0 0 1 0-2h20a1 1 0 0 1 0 2zm2-6h-22a1 1 0 0 1 0-2h22a1 1 0 0 1 0 2z" fill="#202020"/></svg>