<svg xmlns="http://www.w3.org/2000/svg" viewBox="0 0 64 64" aria-labelledby="title" aria-describedby="desc"><path data-name="layer1" d="M26 10a8 8 0 0 1 8-8 8 8 0 0 1 8 8v39a7 7 0 0 0 7 7 7.1 7.1 0 0 0 7-7.5V18" fill="none" stroke="#202020" stroke-miterlimit="10" stroke-width="2" stroke-linejoin="round" stroke-linecap="round"/><rect data-name="layer2" x="2" y="10" width="32" height="52" rx="2" ry="2" fill="none" stroke="#202020" stroke-miterlimit="10" stroke-width="2" stroke-linejoin="round" stroke-linecap="round"/><circle data-name="layer2" cx="18" cy="46" r="8" fill="none" stroke="#202020" stroke-miterlimit="10" stroke-width="2" stroke-linejoin="round" stroke-linecap="round"/><path data-name="layer2" fill="none" stroke="#202020" stroke-miterlimit="10" stroke-width="2" d="M2 30h32" stroke-linejoin="round" stroke-linecap="round"/><path data-name="layer1" d="M53 31h-3v6h3a3 3 0 0 0 0-6zm6-16h3v6h-3a3 3 0 0 1 0-6z" fill="none" stroke="#202020" stroke-miterlimit="10" stroke-width="2" stroke-linejoin="round" stroke-linecap="round"/></svg>