<svg xmlns="http://www.w3.org/2000/svg" viewBox="0 0 64 64" aria-labelledby="title" aria-describedby="desc"><path data-name="opacity" fill="#fff" opacity=".25" d="M49 59L38 36H26L15 59h34z"/><path data-name="layer1" d="M62 36H2a18 18 0 0 1 18-18h37.5z" fill="#97aed3"/><path data-name="opacity" d="M26 18h-6A18 18 0 0 0 2 36h6a18 18 0 0 1 18-18z" fill="#fff" opacity=".25"/><path data-name="stroke" d="M10 4h44l8 32H2a18 18 0 0 1 18-18h37.5M23.3 42L16 58m24.7-16L48 58M32 48v12" fill="none" stroke="#2e4369" stroke-linecap="round" stroke-miterlimit="10" stroke-width="2" stroke-linejoin="round"/></svg>