<svg xmlns="http://www.w3.org/2000/svg" viewBox="0 0 64 64" aria-labelledby="title" aria-describedby="desc"><path data-name="opacity" fill="#fff" opacity=".25" d="M49 57L38 34H26L15 57h34z"/><path data-name="layer2" d="M62 34H2a18 18 0 0 1 18-18h37.5z" fill="#97aed3"/><path data-name="opacity" d="M26 16h-6A18 18 0 0 0 2 34h6a18 18 0 0 1 18-18z" fill="#fff" opacity=".25"/><path data-name="stroke" d="M10 2h44l8 32H2a18 18 0 0 1 18-18h37.5M18 51.6L15.5 57M26 34l-5.8 12.7M46 51.8l2.3 5.2M38 34l5.7 12.7M2 40l60 22m0-22L2 62" fill="none" stroke="#2e4369" stroke-linecap="round" stroke-miterlimit="10" stroke-width="2" stroke-linejoin="round"/><circle data-name="layer1" cx="23" cy="25" r="2" fill="#2e4369"/><circle data-name="layer1" cx="33" cy="25" r="2" fill="#2e4369"/><circle data-name="layer1" cx="43" cy="25" r="2" fill="#2e4369"/><circle data-name="stroke" cx="23" cy="25" r="2" fill="none" stroke="#2e4369" stroke-linecap="round" stroke-miterlimit="10" stroke-width="2" stroke-linejoin="round"/><circle data-name="stroke" cx="33" cy="25" r="2" fill="none" stroke="#2e4369" stroke-linecap="round" stroke-miterlimit="10" stroke-width="2" stroke-linejoin="round"/><circle data-name="stroke" cx="43" cy="25" r="2" fill="none" stroke="#2e4369" stroke-linecap="round" stroke-miterlimit="10" stroke-width="2" stroke-linejoin="round"/></svg>