<svg xmlns="http://www.w3.org/2000/svg" viewBox="0 0 64 64" aria-labelledby="title" aria-describedby="desc"><path data-name="layer3" fill="#fff" d="M2 18h60v40H2z"/><path data-name="layer2" fill="#a6b1c9" d="M2 6h60v12H2z"/><circle data-name="layer1" cx="8" cy="12" r="1" fill="#f27e7c"/><circle data-name="layer1" cx="15" cy="12" r="1" fill="#f27e7c"/><circle data-name="layer1" cx="22" cy="12" r="1" fill="#f27e7c"/><path data-name="opacity" fill="#000064" opacity=".15" d="M2 18h4v40H2zM2 6h4v12H2zm10 20h8v8h-8zm16 0h8v8h-8zm16 0h8v8h-8zM12 42h8v8h-8zm16 0h8v8h-8zm16 0h8v8h-8z"/><path data-name="stroke" fill="none" stroke="#2e4369" stroke-linecap="round" stroke-linejoin="round" stroke-width="2" d="M2 6h60v12H2zm0 12v40h60V18"/><path data-name="stroke" fill="none" stroke="#2e4369" stroke-linecap="round" stroke-linejoin="round" stroke-width="2" d="M12 26h8v8h-8zm16 0h8v8h-8zm16 0h8v8h-8zM12 42h8v8h-8zm16 0h8v8h-8zm16 0h8v8h-8z"/><circle data-name="stroke" cx="8" cy="12" r="1" fill="none" stroke="#2e4369" stroke-linecap="round" stroke-linejoin="round" stroke-width="2"/><circle data-name="stroke" cx="15" cy="12" r="1" fill="none" stroke="#2e4369" stroke-linecap="round" stroke-linejoin="round" stroke-width="2"/><circle data-name="stroke" cx="22" cy="12" r="1" fill="none" stroke="#2e4369" stroke-linecap="round" stroke-linejoin="round" stroke-width="2"/></svg>