<svg xmlns="http://www.w3.org/2000/svg" viewBox="0 0 64 64" aria-labelledby="title" aria-describedby="desc"><rect data-name="layer1" x="4" y="27" width="6" height="12" rx="2" ry="2" fill="#53a9ff"/><path data-name="opacity" d="M7 37v-8a2 2 0 0 1 1.5-1.929A1.966 1.966 0 0 0 8 27H6a2.006 2.006 0 0 0-2 2v8a2.006 2.006 0 0 0 2 2h2a1.966 1.966 0 0 0 .5-.071A2 2 0 0 1 7 37z" fill="#000064" opacity=".16"/><path data-name="layer3" d="M60 12a5.015 5.015 0 0 0-5-5H33a5.015 5.015 0 0 0-5 5v3h32z" fill="#cbe5ff"/><path data-name="layer2" d="M28 36a5.015 5.015 0 0 0 5 5h22a5.015 5.015 0 0 0 5-5v-3H28z" fill="#f4475d"/><path data-name="layer1" fill="#53a9ff" d="M28 15h32v18H28z"/><path data-name="opacity" d="M35 36V12a5.015 5.015 0 0 1 5-5h-4a5.015 5.015 0 0 0-5 5v24a5.015 5.015 0 0 0 5 5h4a5.015 5.015 0 0 1-5-5z" fill="#000064" opacity=".16"/><path data-name="opacity" d="M52 7h-4a5.015 5.015 0 0 1 5 5v24a5.015 5.015 0 0 1-5 5h4a5.015 5.015 0 0 0 5-5V12a5.015 5.015 0 0 0-5-5z" fill="#fff" opacity=".5"/><path data-name="stroke" d="M39 41v11a10 10 0 0 1-20 0V22a6 6 0 0 0-12 0v5" fill="none" stroke="#2e4369" stroke-linecap="round" stroke-miterlimit="10" stroke-width="2" stroke-linejoin="round"/><rect data-name="stroke" x="28" y="7" width="32" height="34" rx="5" ry="5" fill="none" stroke="#2e4369" stroke-linecap="round" stroke-miterlimit="10" stroke-width="2" stroke-linejoin="round"/><path data-name="stroke" d="M38.083 7A6 6 0 0 1 44 2a6 6 0 0 1 5.917 5M47 40.977V62" fill="none" stroke="#2e4369" stroke-linecap="round" stroke-miterlimit="10" stroke-width="2" stroke-linejoin="round"/><rect data-name="stroke" x="4" y="27" width="6" height="12" rx="2" ry="2" fill="none" stroke="#2e4369" stroke-linecap="round" stroke-miterlimit="10" stroke-width="2" stroke-linejoin="round"/><path data-name="stroke" fill="none" stroke="#2e4369" stroke-linecap="round" stroke-miterlimit="10" stroke-width="2" d="M7 39v6m31-24v6m15-3h-6m-6 0h-6m-7-9h32M28 33h32" stroke-linejoin="round"/></svg>