<svg xmlns="http://www.w3.org/2000/svg" viewBox="0 0 64 64" aria-labelledby="title" aria-describedby="desc"><path data-name="layer3" d="M28.9 36s-2.2-6-12.9-6-14 6-14 6z" fill="#7b8baf"/><path data-name="layer2" d="M46 20.9L31.4 36H62c-.8-4.2-7.6-11.1-16-15.1z" fill="#c3d6e0"/><path data-name="layer1" d="M62 36c-4 8.7-22.6 10-33.5 10A151.8 151.8 0 0 1 6 44l-4-8z" fill="#a3b8df"/><path data-name="opacity" d="M46 20.9l-3.7 3.8c2.7 1.8 9.4 6.4 12.6 11.3H62c-.8-4.2-7.6-11.1-16-15.1z" fill="#fff" opacity=".5"/><path data-name="opacity" d="M2 36h8c0-2.8 5.3-5.6 5.9-5.9C5.6 30.1 2.2 35.6 2 36zm8 0H2l4 8a151.8 151.8 0 0 0 22.5 2A103.8 103.8 0 0 0 45 44.8c-22 0-31-1.8-31-1.8z" fill="#000064" opacity=".15"/><path data-name="stroke" d="M62 36c-1.1-6-14.9-18-28-18-5.6 0-8 2-8 2m20 .9L31.4 36M2 36l4 8a151.8 151.8 0 0 0 22.5 2C39.4 46 58 44.7 62 36" fill="none" stroke="#2e4369" stroke-linecap="round" stroke-linejoin="round" stroke-width="2"/><path data-name="stroke" d="M62 36H2s3.2-6 14-6 12.9 6 12.9 6" fill="none" stroke="#2e4369" stroke-linecap="round" stroke-linejoin="round" stroke-width="2"/></svg>