<svg xmlns="http://www.w3.org/2000/svg" viewBox="0 0 64 64" aria-labelledby="title" aria-describedby="desc"><path data-name="layer2" d="M42 27.3l6-4 6 4V5.4a67.4 67.4 0 0 0-12 1.7z" fill="#202020"/><path data-name="layer1" d="M2 53c11 0 23.3 1.2 28 5.7v-44C25.3 10.2 13 9 2 9zm8.1-35.8a62 62 0 0 1 14.5 2.4 2 2 0 0 1-.6 3.9h-.6a58.1 58.1 0 0 0-13.5-2.3 2 2 0 0 1 .3-4zm0 7.5a61.9 61.9 0 0 1 14.5 2.4A2 2 0 0 1 24 31h-.6a58 58 0 0 0-13.5-2.3 2 2 0 1 1 .3-4zm0 8A61.9 61.9 0 0 1 24.6 35a2 2 0 0 1-.6 3.9h-.6a58 58 0 0 0-13.5-2.2 2 2 0 1 1 .3-4zm0 7.5a62 62 0 0 1 14.5 2.4 2 2 0 0 1-.6 3.9h-.6a58.2 58.2 0 0 0-13.5-2.3 2 2 0 1 1 .3-4zM58 9v25.8l-6.2-4.1-3.8-2.6-3.8 2.5-6.2 4.2V12.2a13.4 13.4 0 0 0-4 2.4v44c4.7-4.4 17-5.6 28-5.6V9zm-3.8 35.2a58.2 58.2 0 0 0-13.6 2.2H40a2 2 0 0 1-.6-3.9 61.9 61.9 0 0 1 14.5-2.4 2 2 0 1 1 .3 4zm0-7.5a58 58 0 0 0-13.6 2.2H40a2 2 0 0 1-.6-3.9 61.9 61.9 0 0 1 14.5-2.4 2 2 0 0 1 .3 4z" fill="#202020"/></svg>