<svg xmlns="http://www.w3.org/2000/svg" viewBox="0 0 64 64" aria-labelledby="title" aria-describedby="desc"><path data-name="layer2" d="M32 17.8C32 9.8 16 8 2 8v44c14 0 30 2 30 10z" fill="none" stroke="#202020" stroke-miterlimit="10" stroke-width="2" stroke-linejoin="round" stroke-linecap="round"/><path data-name="layer1" d="M24 20.3A60.7 60.7 0 0 0 10 18m14 9.8a60.7 60.7 0 0 0-14-2.3m14 10.3a60.7 60.7 0 0 0-14-2.3m14 9.8A60.7 60.7 0 0 0 10 41m30-5.2a60.7 60.7 0 0 1 14-2.3m-14 9.8A60.7 60.7 0 0 1 54 41" fill="none" stroke="#202020" stroke-miterlimit="10" stroke-width="2" stroke-linejoin="round" stroke-linecap="round"/><path data-name="layer2" d="M54 8.1c2.7-.2 5.4-.1 8-.1v44c-14 0-30 2-30 10m0-44.2c0-4.1 4.1-6.6 10-8.1" fill="none" stroke="#202020" stroke-miterlimit="10" stroke-width="2" stroke-linejoin="round" stroke-linecap="round"/><path data-name="layer1" d="M42 26.2l6-4 6 4v-22a67.4 67.4 0 0 0-12 1.7z" fill="none" stroke="#202020" stroke-miterlimit="10" stroke-width="2" stroke-linejoin="round" stroke-linecap="round"/></svg>