<svg xmlns="http://www.w3.org/2000/svg" viewBox="0 0 64 64" aria-labelledby="title" aria-describedby="desc"><path data-name="layer2" d="M24 8.6H2v44h22a8 8 0 0 1 6 2.7v-44a8 8 0 0 0-6-2.7zm0 36H10a2 2 0 0 1 0-4h14a2 2 0 0 1 0 4zm0-8H10a2 2 0 0 1 0-4h14a2 2 0 0 1 0 4zm0-8H10a2 2 0 0 1 0-4h14a2 2 0 0 1 0 4zm0-8H10a2 2 0 0 1 0-4h14a2 2 0 0 1 0 4z" fill="#202020"/><path data-name="layer1" d="M40 8.6a8 8 0 0 0-6 2.7v44a8 8 0 0 1 6-2.7h22v-44zm14 36H40a2 2 0 1 1 0-4h14a2 2 0 0 1 0 4zm0-8H40a2 2 0 1 1 0-4h14a2 2 0 0 1 0 4zm0-8H40a2 2 0 1 1 0-4h14a2 2 0 0 1 0 4zm0-8H40a2 2 0 0 1 0-4h14a2 2 0 0 1 0 4z" fill="#202020"/></svg>