<svg xmlns="http://www.w3.org/2000/svg" viewBox="0 0 64 64" aria-labelledby="title" aria-describedby="desc"><path data-name="layer1" d="M56.112 29.2c0-.4.1-.7.1-1.1a18.786 18.786 0 0 0-18.97-18.7 19.114 19.114 0 0 0-17.173 10.7 8.958 8.958 0 0 0-5.392-1.8 8.7 8.7 0 0 0-8.786 8.6 7.467 7.467 0 0 0 .4 2.6A12.326 12.326 0 0 0 0 40.3 12.839 12.839 0 0 0 12.68 53h38.74A12.5 12.5 0 0 0 64 40.6a12.648 12.648 0 0 0-7.888-11.4zM17.173 43.5a7.511 7.511 0 0 1-2.4-4.2 9.867 9.867 0 0 1-.2-1.7 7.379 7.379 0 0 1 2.6-5.8 9.529 9.529 0 0 1 6.49-2.3 11.068 11.068 0 0 1 7.588 3.1 12.87 12.87 0 0 1 1.6 1.7l2.9 3.4a9.34 9.34 0 0 0 1.6 1.8 7.185 7.185 0 0 0 4.493 2 4.162 4.162 0 0 0 2.9-1.1 3.709 3.709 0 0 0 1.2-2.3v-.4a3.6 3.6 0 0 0-.2-1.1 3.916 3.916 0 0 0-1-1.6 4.346 4.346 0 0 0-2.9-1.1 6.248 6.248 0 0 0-4.493 2l-2.6-3-.3-.4a9.852 9.852 0 0 1 7.488-3 9.18 9.18 0 0 1 6.49 2.3 7.5 7.5 0 0 1 2.5 5.9 8.82 8.82 0 0 1-.2 1.7 7.511 7.511 0 0 1-2.4 4.2 8.606 8.606 0 0 1-4.593 2.2 11.448 11.448 0 0 1-1.9.1 11.056 11.056 0 0 1-7.588-3 9.757 9.757 0 0 1-1.7-1.8l-2.6-3.5a9.34 9.34 0 0 0-1.6-1.8 7.185 7.185 0 0 0-4.493-2 5 5 0 0 0-1.2.2 5.547 5.547 0 0 0-1.7.9 3.41 3.41 0 0 0-1.1 1.9c0 .2-.1.5-.1.8a4.052 4.052 0 0 0 1.1 2.7l.1.1a4.415 4.415 0 0 0 3 1.1 6.248 6.248 0 0 0 4.493-2l2.6 3 .3.3a10.1 10.1 0 0 1-7.488 3.1 10.254 10.254 0 0 1-6.687-2.4z" fill="#4679a4"/></svg>