<svg xmlns="http://www.w3.org/2000/svg" viewBox="0 0 64 64" aria-labelledby="title" aria-describedby="desc"><path data-name="layer1" d="M52.3 29.6c-1.7-3.7-3.3-6.3-3.3-9.1 0-7.5 2.9-12 3.4-12.6l.6-.6v-.8c0-1.7-1.1-3.2-3.1-4.5a10.3 10.3 0 0 0-6-1.5 17.6 17.6 0 0 0-3.3.8A22.8 22.8 0 0 1 33 2.5H18.8l.2 2.2.2 1.2a10.2 10.2 0 0 0-7.7 1.7C8.5 9.9 7 14.1 7 20.5c0 10.4 5 14.7 7.6 16.8a27.5 27.5 0 0 0-1.6 8.2c0 9.3 5.7 16 11.4 17.9h21l.4-.2A19.3 19.3 0 0 0 57 45.5c0-5.8-2.5-11.2-4.7-15.9zM33 6.5a26.7 26.7 0 0 0 8.7-1.4 14.4 14.4 0 0 1 2.6-.6h.3a6.7 6.7 0 0 1 4.1 1.6A27 27 0 0 0 45 20.5c0 2.6.9 4.2 2 7H22.7c1.3-3.2 2.3-4.9 2.3-7a64 64 0 0 0-1.5-13.4v-.6zm-22 14c0-4.9 1-8.2 3-9.7s3.4-1.3 6.1-.7a55.4 55.4 0 0 1 1 10.4c0 1.8-1.6 4.5-3.1 8.1l-2 4.6c-2-2-5-5.3-5-12.7z" fill="#202020"/></svg>