<svg viewBox="0 0 64 64" xmlns="http://www.w3.org/2000/svg" aria-labelledby="title" aria-describedby="desc"><path fill="#c4d3e0" d="M26 24c12 0 24 16.807 24 28 0 6-3.385 8-8 8H10c-5.076 0-8-2-8-8 0-10.866 12-28 24-28z" data-name="layer2"/><path opacity=".5" fill="#fff" d="M26.6 24.495C34.937 29.977 40.99 43.291 40.99 52c0 6-3.385 8-8 8H39c4.613 0 8-2 8-8 0-10.068-9.717-24.673-20.4-27.505z" data-name="opacity"/><path opacity=".25" fill="#101129" d="M15 59c-5.076 0-8-2-8-8 0-9.3 8.792-23.181 18.85-26.992C13.9 24.146 2 41.176 2 52c0 6 2.924 8 8 8h32a9.67 9.67 0 0 0 4.643-1z" data-name="opacity"/><path d="M45.163 37.559l10.836-5.556 6.002 4-12.959 9.995" fill="#c4d3e0" data-name="layer2"/><circle fill="#f26950" r="2" cy="20.001" cx="25.999" data-name="layer1"/><path stroke-width="2" stroke-linejoin="round" stroke-linecap="round" stroke="#2f446a" fill="none" d="M26 24c12 0 24 16.806 24 28 0 6-3.385 8-8 8H10c-5.076 0-8-2-8-8 0-10.866 12-28 24-28zm16.655 10.001H9.44" data-name="stroke"/><path d="M45.163 37.558l10.836-5.556 6.002 4-12.959 9.996M43.088 34.39A19.529 19.529 0 0 0 46 24a20 20 0 1 0-40 0 19.5 19.5 0 0 0 2.944 10.455" stroke-width="2" stroke-linejoin="round" stroke-linecap="round" stroke="#2f446a" fill="none" data-name="stroke"/><circle stroke-width="2" stroke-linejoin="round" stroke-linecap="round" stroke="#2f446a" fill="none" r="2" cy="20" cx="25.999" data-name="stroke"/></svg>