<svg xmlns="http://www.w3.org/2000/svg" viewBox="0 0 64 64" aria-labelledby="title" aria-describedby="desc"><rect data-name="layer2" x="2" y="14" width="60" height="36" rx="2" ry="2" fill="#7b8baf"/><path data-name="layer1" fill="#8fa9d8" d="M10 20h4v4h-4zm10 0h4v4h-4zm10 0h4v4h-4zm10 0h4v4h-4zm10 0h4v4h-4zM10 30h4v4h-4zm0 10h4v4h-4zm10 0h34v4H20zm0-10h4v4h-4zm10 0h4v4h-4zm10 0h4v4h-4zm10 0h4v4h-4z"/><path data-name="opacity" fill="#000064" opacity=".14" d="M8 22h4v4H8zm10 0h4v4h-4zm10 0h4v4h-4zm10 0h4v4h-4zm10 0h4v4h-4zM8 32h4v4H8zm0 10h4v4H8zm10 0h34v4H18zm0-10h4v4h-4zm10 0h4v4h-4zm10 0h4v4h-4zm10 0h4v4h-4z"/><rect data-name="stroke" x="2" y="14" width="60" height="36" rx="2" ry="2" fill="none" stroke="#2e4369" stroke-linecap="round" stroke-linejoin="round" stroke-width="2"/><path data-name="stroke" fill="none" stroke="#2e4369" stroke-linecap="round" stroke-linejoin="round" stroke-width="2" d="M10 20h4v4h-4zm10 0h4v4h-4zm10 0h4v4h-4zm10 0h4v4h-4zm10 0h4v4h-4zM10 30h4v4h-4zm0 10h4v4h-4zm10 0h34v4H20zm0-10h4v4h-4zm10 0h4v4h-4zm10 0h4v4h-4zm10 0h4v4h-4z"/></svg>