<svg xmlns="http://www.w3.org/2000/svg" viewBox="0 0 64 64" aria-labelledby="title" aria-describedby="desc"><path data-name="layer1" d="M58 27H32v-1.3a4.7 4.7 0 0 1 4.7-4.7H54a8 8 0 1 0 0-16H26a2 2 0 0 1-2-2 2 2 0 0 0-4 0 6 6 0 0 0 6 6h28a4 4 0 1 1 0 8H36.7a8.7 8.7 0 0 0-8.7 8.7V27H4a2 2 0 0 0-2 2v32a2 2 0 0 0 2 2h54a2 2 0 0 0 2-2V29a2 2 0 0 0-2-2zm-20 8a2 2 0 0 1 2-2h2a2 2 0 0 1 2 2v2a2 2 0 0 1-2 2h-2a2 2 0 0 1-2-2zm0 10a2 2 0 0 1 2-2h2a2 2 0 0 1 2 2v2a2 2 0 0 1-2 2h-2a2 2 0 0 1-2-2zM28 35a2 2 0 0 1 2-2h2a2 2 0 0 1 2 2v2a2 2 0 0 1-2 2h-2a2 2 0 0 1-2-2zm0 10a2 2 0 0 1 2-2h2a2 2 0 0 1 2 2v2a2 2 0 0 1-2 2h-2a2 2 0 0 1-2-2zM18 35a2 2 0 0 1 2-2h2a2 2 0 0 1 2 2v2a2 2 0 0 1-2 2h-2a2 2 0 0 1-2-2zm0 10a2 2 0 0 1 2-2h2a2 2 0 0 1 2 2v2a2 2 0 0 1-2 2h-2a2 2 0 0 1-2-2zm-6 12h-2a2 2 0 0 1 0-4h2a2 2 0 1 1 0 4zm2-10a2 2 0 0 1-2 2h-2a2 2 0 0 1-2-2v-2a2 2 0 0 1 2-2h2a2 2 0 0 1 2 2zm0-10a2 2 0 0 1-2 2h-2a2 2 0 0 1-2-2v-2a2 2 0 0 1 2-2h2a2 2 0 0 1 2 2zm38 20H20a2 2 0 1 1 0-4h32a2 2 0 0 1 0 4zm2-10a2 2 0 0 1-2 2h-2a2 2 0 0 1-2-2v-2a2 2 0 0 1 2-2h2a2 2 0 0 1 2 2zm0-10a2 2 0 0 1-2 2h-2a2 2 0 0 1-2-2v-2a2 2 0 0 1 2-2h2a2 2 0 0 1 2 2z" fill="#202020"/></svg>