<svg xmlns="http://www.w3.org/2000/svg" viewBox="0 0 64 64" aria-labelledby="title" aria-describedby="desc"><rect data-name="layer1" x="2" y="14" width="60" height="36" rx="2" ry="2" fill="none" stroke="#202020" stroke-linecap="round" stroke-linejoin="round" stroke-width="2"/><path data-name="layer2" fill="none" stroke="#202020" stroke-linecap="round" stroke-linejoin="round" stroke-width="2" d="M10 20h4v4h-4z"/><path data-name="layer1" fill="none" stroke="#202020" stroke-linecap="round" stroke-linejoin="round" stroke-width="2" d="M20 20h4v4h-4zm10 0h4v4h-4zm10 0h4v4h-4zm10 0h4v4h-4zM10 30h4v4h-4zm0 10h4v4h-4z"/><path data-name="layer2" fill="none" stroke="#202020" stroke-linecap="round" stroke-linejoin="round" stroke-width="2" d="M20 40h34v4H20z"/><path data-name="layer1" fill="none" stroke="#202020" stroke-linecap="round" stroke-linejoin="round" stroke-width="2" d="M20 30h4v4h-4zm10 0h4v4h-4zm10 0h4v4h-4zm10 0h4v4h-4z"/></svg>