<svg xmlns="http://www.w3.org/2000/svg" viewBox="0 0 64 64" aria-labelledby="title" aria-describedby="desc"><circle data-name="layer2" cx="31.9" cy="32" r="30" fill="#8fa9d8"/><path data-name="opacity" d="M32.1 2A29.9 29.9 0 0 0 9.4 12.4a30 30 0 0 1 42.3 42.3A30 30 0 0 0 32.1 2z" fill="#fff" opacity=".5"/><path data-name="layer1" d="M38.4 48h-13l2.2-17.1a9 9 0 1 1 8.7 0z" fill="#536897"/><path data-name="opacity" d="M40.9 23a9 9 0 0 0-15.4-6.3A9 9 0 0 1 37.9 25c0 3.4-.9 4.5-3.7 6l.9 17h3.3l-2.1-17.1a9 9 0 0 0 4.6-7.9z" fill="#000028" opacity=".25"/><circle data-name="stroke" cx="32" cy="32" r="30" fill="none" stroke="#2e4369" stroke-linecap="round" stroke-linejoin="round" stroke-width="2"/><path data-name="stroke" d="M38.5 48l-2.2-17.1a9 9 0 1 0-8.7 0L25.5 48z" fill="none" stroke="#2e4369" stroke-linecap="round" stroke-linejoin="round" stroke-width="2"/></svg>