<svg xmlns="http://www.w3.org/2000/svg" viewBox="0 0 64 64" aria-labelledby="title" aria-describedby="desc"><path data-name="layer1" d="M50 51a23.7 23.7 0 0 1-6.5-1.9 2 2 0 0 0-1.8-2.8v-.7a20.4 20.4 0 0 0 4.7-7.9c3.1-1 4.2-5.1 4.2-7v-.3c0-1.1.2-3.5-1.3-5.1a4 4 0 0 0-1.2-.9V6A2 2 0 0 0 45 4.3l-4.7 3.1L33.4.6a2.1 2.1 0 0 0-2.8 0l-6.9 6.8-4.6-3.1A2 2 0 0 0 16 6v18.4c-2.3 1-3.3 3.7-3.3 6.3s1.1 6 4.2 7a20.1 20.1 0 0 0 4.7 7.8v.6a2 2 0 0 0-1.1.6 2 2 0 0 0-.4 2.2 22.5 22.5 0 0 1-6.9 2.1C.2 53.5 0 61.6 0 62v2h64v-2c0-.4-.2-8.4-14-11zm-16 4c0 1.6-.9 3-2 3s-2-1.4-2-3 .9-3 2-3 2 1.4 2 3zM18.4 34c-1.2 0-1.8-2.6-1.8-3.3S16.7 28 18 28a2 2 0 0 0 2-2v-2.4c1.2-.6 5.4-1.6 12-1.6s10.8 1 12 1.6V26a2 2 0 0 0 2 2h.3c.2.2.3.7.3 2.2v.5c0 .2-.7 3.3-1.9 3.3a2 2 0 0 0-1.9 1.5 15.3 15.3 0 0 1-6.3 9.1 2 2 0 0 0 1 3.7h.1l.2.8-1.4 1.4a5.5 5.5 0 0 0-9.2.1l-2-1.9v-.4a2 2 0 0 0 1.2-3.7 15.3 15.3 0 0 1-6.3-9.1 2 2 0 0 0-1.7-1.5z" fill="#202020"/></svg>