<svg xmlns="http://www.w3.org/2000/svg" viewBox="0 0 64 64" aria-labelledby="title" aria-describedby="desc"><rect data-name="layer5" x="2" y="51" width="60" height="7" rx="1" ry="1" fill="#a56660"/><path data-name="opacity" d="M8 57v-5a1 1 0 0 1 1-1H3a1 1 0 0 0-1 1v5a1 1 0 0 0 1 1h6a1 1 0 0 1-1-1z" fill="#000064" opacity=".16"/><path data-name="layer1" fill="#b3d9ff" d="M12 9h8v9h-8z"/><path data-name="layer4" d="M12 41a4 4 0 0 0 8 0V18h-8z" fill="#53a9ff"/><path data-name="layer3" d="M28 41a4 4 0 0 0 8 0V30.083h-8z" fill="#bf81ff"/><path data-name="layer1" fill="#b3d9ff" d="M28 9h8v21.083h-8z"/><path data-name="layer2" d="M44 25v16a4 4 0 0 0 8 0V25z" fill="#53a951"/><path data-name="layer1" fill="#b3d9ff" d="M44 9h8v16h-8z"/><path data-name="opacity" d="M15 41V9h-3v32a4.012 4.012 0 0 0 4 4 3.956 3.956 0 0 0 1.5-.3A4.01 4.01 0 0 1 15 41zm16 0V9h-3v32a4.012 4.012 0 0 0 4 4 3.956 3.956 0 0 0 1.5-.3A4.01 4.01 0 0 1 31 41zm16 0V9h-3v32a4.012 4.012 0 0 0 4 4 3.956 3.956 0 0 0 1.5-.3A4.01 4.01 0 0 1 47 41z" fill="#000064" opacity=".16"/><path data-name="stroke" d="M20 9v32a4.012 4.012 0 0 1-4 4 4.012 4.012 0 0 1-4-4V9" fill="none" stroke="#2e4369" stroke-linecap="round" stroke-miterlimit="10" stroke-width="2" stroke-linejoin="round"/><rect data-name="stroke" x="2" y="51" width="60" height="7" rx="1" ry="1" fill="none" stroke="#2e4369" stroke-linecap="round" stroke-miterlimit="10" stroke-width="2" stroke-linejoin="round"/><path data-name="stroke" fill="none" stroke="#2e4369" stroke-linecap="round" stroke-miterlimit="10" stroke-width="2" d="M6 21v30m52-30v30m-6-30h10m-26 0h8m-24 0h8M2 21h10M36 9v32a4.012 4.012 0 0 1-4 4 4.012 4.012 0 0 1-4-4V9m-2 0h12M10 9h12m30 0v32a4.012 4.012 0 0 1-4 4 4.012 4.012 0 0 1-4-4V9m-2 0h12M28 30.083h8M44 25h8m-40-7h8" stroke-linejoin="round"/></svg>