<svg xmlns="http://www.w3.org/2000/svg" viewBox="0 0 64 64" aria-labelledby="title" aria-describedby="desc"><path data-name="layer3" fill="#bfebf7" d="M9 2h48v32H9z"/><circle data-name="layer2" cx="21" cy="14" r="4" fill="#fff432"/><path data-name="layer1" d="M55 34c0-1.7-5.1-20-11.7-20S34.1 26 33 26s-3.6-2-8-2-10 7.8-10 10z" fill="#92d5b5"/><path data-name="stroke" fill="none" stroke="#2e4369" stroke-linecap="round" stroke-miterlimit="10" stroke-width="2" d="M3 54h54M9 2h48v32H9zm2 44l-8 8 8 8" stroke-linejoin="round"/><circle data-name="stroke" cx="21" cy="14" r="4" fill="none" stroke="#2e4369" stroke-linecap="round" stroke-miterlimit="10" stroke-width="2" stroke-linejoin="round"/><path data-name="stroke" d="M15 34c0-2.2 4.4-10 10-10s5.8 2 8 2 4.2-12 10.3-12S55 32.3 55 34" fill="none" stroke="#2e4369" stroke-linecap="round" stroke-miterlimit="10" stroke-width="2" stroke-linejoin="round"/></svg>