<svg xmlns="http://www.w3.org/2000/svg" viewBox="0 0 64 64" aria-labelledby="title" aria-describedby="desc"><path data-name="layer2" d="M56 36V6a2 2 0 0 0-2-2H10a2 2 0 0 0-2 2v30" fill="#7b8baf"/><path data-name="layer1" d="M56 36H8L2 54v4a2 2 0 0 0 2 2h56a2 2 0 0 0 2-2v-4z" fill="#c3d6f9"/><path data-name="opacity" d="M2 54v4a2 2 0 0 0 2 2h56a2 2 0 0 0 2-2v-4z" fill="#000064" opacity=".14"/><path data-name="opacity" fill="#fff" opacity=".25" d="M56 13L33 36h23V13zM41.7 4L9.5 36h10.6L52.5 4H41.7z"/><path data-name="stroke" d="M56 36V6a2 2 0 0 0-2-2H10a2 2 0 0 0-2 2v30m48 0H8L2 54v4a2 2 0 0 0 2 2h56a2 2 0 0 0 2-2v-4zM14 46h36M2 54h60" fill="none" stroke="#2e4369" stroke-linecap="round" stroke-linejoin="round" stroke-width="2"/></svg>