<svg xmlns="http://www.w3.org/2000/svg" viewBox="0 0 64 64" aria-labelledby="title" aria-describedby="desc"><path data-name="layer1" d="M62 0H2a2 2 0 0 0-2 2v60a2 2 0 0 0 2 2h60a2 2 0 0 0 2-2V2a2 2 0 0 0-2-2zM20.707 41.293a1 1 0 1 1-1.414 1.414L8.586 32l10.707-10.707a1 1 0 0 1 1.414 1.414L11.414 32zM53.999 54H19a1 1 0 0 1 0-2h34.999a1 1 0 0 1 0 2zm0-6H28a1 1 0 0 1 0-2h25.999a1 1 0 0 1 0 2zm0-6H28a1 1 0 0 1 0-2h25.999a1 1 0 0 1 0 2zm0-6H28a1 1 0 0 1 0-2h25.999a1 1 0 0 1 0 2zm0-6H28a1 1 0 0 1 0-2h25.999a1 1 0 0 1 0 2zm0-6H28a1 1 0 0 1 0-2h25.999a1 1 0 0 1 0 2zM54 18H28a1 1 0 0 1 0-2h26a1 1 0 0 1 0 2zm0-6H19a1 1 0 0 1 0-2h35a1 1 0 0 1 0 2z" fill="#202020"/></svg>