<svg xmlns="http://www.w3.org/2000/svg" viewBox="0 0 64 64" aria-labelledby="title" aria-describedby="desc"><path data-name="layer3" d="M62 44V28a10 10 0 0 0-10-10H10v26z" fill="#9cf"/><path data-name="opacity" d="M52 18H10v3h42a10 10 0 0 1 10 10v-3a10 10 0 0 0-10-10z" fill="#fff" opacity=".25"/><path data-name="opacity" fill="#000064" opacity=".15" d="M10 40h52v4H10z"/><path data-name="layer2" fill="#f27e7c" d="M20 2h14v8H20z"/><path data-name="layer1" fill="#fff4e3" d="M10 40H4.8L2.4 24H10v16z"/><path data-name="opacity" fill="#000064" opacity=".15" d="M6 24h4v16H6z"/><path data-name="stroke" fill="none" stroke="#2e4369" stroke-linecap="round" stroke-miterlimit="10" stroke-width="2" d="M34 62V44M10 24H2.4l2.4 16H10m52 4V28a10 10 0 0 0-10-10H10v26zM20 2h14v8H20zm0 24V10" stroke-linejoin="round"/></svg>