<svg xmlns="http://www.w3.org/2000/svg" viewBox="0 0 64 64" aria-labelledby="title" aria-describedby="desc"><path data-name="layer2" fill="none" stroke="#202020" stroke-miterlimit="10" stroke-width="2" d="M8 48h48M8 40h48" stroke-linejoin="round" stroke-linecap="round"/><path data-name="layer1" d="M20 2v55a5 5 0 0 1-5 5h-2a5 5 0 0 1-5-5V2m24 0v55a5 5 0 0 1-5 5h-2a5 5 0 0 1-5-5M44 2v55a5 5 0 0 1-5 5h-2a5 5 0 0 1-5-5M56 2v55a5 5 0 0 1-5 5h-2a5 5 0 0 1-5-5" fill="none" stroke="#202020" stroke-miterlimit="10" stroke-width="2" stroke-linejoin="round" stroke-linecap="round"/><path data-name="layer1" d="M20 2c0 1.7-2.2 3-5 3h-2c-2.8 0-5-1.3-5-3m24 0c0 1.7-2.2 3-5 3h-2c-2.8 0-5-1.3-5-3m24 0c0 1.7-2.2 3-5 3h-2c-2.8 0-5-1.3-5-3m24 0c0 1.7-2.2 3-5 3h-2c-2.8 0-5-1.3-5-3M20 13a5 5 0 0 1-5 5h-2a5 5 0 0 1-5-5m24 0a5 5 0 0 1-5 5h-2a5 5 0 0 1-5-5m24 0a5 5 0 0 1-5 5h-2a5 5 0 0 1-5-5m24 0a5 5 0 0 1-5 5h-2a5 5 0 0 1-5-5" fill="none" stroke="#202020" stroke-miterlimit="10" stroke-width="2" stroke-linejoin="round" stroke-linecap="round"/></svg>