<svg xmlns="http://www.w3.org/2000/svg" viewBox="0 0 64 64" aria-labelledby="title" aria-describedby="desc"><path data-name="layer2" d="M8 57a5 5 0 0 0 5 5h2a5 5 0 0 0 5-5v-9H8z" fill="#f27e7c"/><path data-name="layer3" fill="#ffc849" d="M8 40h12v8H8z"/><path data-name="layer2" d="M20 13a5 5 0 0 1-5 5h-2a5 5 0 0 1-5-5v27h12z" fill="#f27e7c"/><path data-name="layer1" d="M13 18h2a5 5 0 0 0 5-5V2c0 1.7-2.2 3-5 3h-2c-2.8 0-5-1.3-5-3v18-7a5 5 0 0 0 5 5z" fill="#eaf7ff"/><path data-name="opacity" d="M8 13v44a5 5 0 0 0 5 5V18a5 5 0 0 1-5-5zm12 0V2c0 1.5-1.7 2.7-4 2.9v13a5 5 0 0 0 4-4.9z" fill="#000064" opacity=".15"/><path data-name="layer2" d="M20 57a5 5 0 0 0 5 5h2a5 5 0 0 0 5-5v-9H20z" fill="#f27e7c"/><path data-name="layer3" fill="#ffc849" d="M20 40h12v8H20z"/><path data-name="layer2" d="M32 13a5 5 0 0 1-5 5h-2a5 5 0 0 1-5-5v27h12z" fill="#f27e7c"/><path data-name="layer1" d="M25 18h2a5 5 0 0 0 5-5V2c0 1.7-2.2 3-5 3h-2c-2.8 0-5-1.3-5-3v18-7a5 5 0 0 0 5 5z" fill="#eaf7ff"/><path data-name="opacity" d="M20 13v44a5 5 0 0 0 5 5V18a5 5 0 0 1-5-5zm12 0V2c0 1.5-1.7 2.7-4 2.9v13a5 5 0 0 0 4-4.9z" fill="#000064" opacity=".15"/><path data-name="layer2" d="M32 57a5 5 0 0 0 5 5h2a5 5 0 0 0 5-5v-9H32z" fill="#f27e7c"/><path data-name="layer3" fill="#ffc849" d="M32 40h12v8H32z"/><path data-name="layer2" d="M44 13a5 5 0 0 1-5 5h-2a5 5 0 0 1-5-5v27h12z" fill="#f27e7c"/><path data-name="layer1" d="M37 18h2a5 5 0 0 0 5-5V2c0 1.7-2.2 3-5 3h-2c-2.8 0-5-1.3-5-3v18-7a5 5 0 0 0 5 5z" fill="#eaf7ff"/><path data-name="opacity" d="M32 13v44a5 5 0 0 0 5 5V18a5 5 0 0 1-5-5zm12 0V2c0 1.5-1.7 2.7-4 2.9v13a5 5 0 0 0 4-4.9z" fill="#000064" opacity=".15"/><path data-name="layer2" d="M44 57a5 5 0 0 0 5 5h2a5 5 0 0 0 5-5v-9H44z" fill="#f27e7c"/><path data-name="layer3" fill="#ffc849" d="M44 40h12v8H44z"/><path data-name="layer2" d="M56 13a5 5 0 0 1-5 5h-2a5 5 0 0 1-5-5v27h12z" fill="#f27e7c"/><path data-name="layer1" d="M49 18h2a5 5 0 0 0 5-5V2c0 1.7-2.2 3-5 3h-2c-2.8 0-5-1.3-5-3v18-7a5 5 0 0 0 5 5z" fill="#eaf7ff"/><path data-name="opacity" d="M44 13v44a5 5 0 0 0 5 5V18a5 5 0 0 1-5-5zm12 0V2c0 1.5-1.7 2.7-4 2.9v13a5 5 0 0 0 4-4.9z" fill="#000064" opacity=".15"/><path data-name="stroke" fill="none" stroke="#2e4369" stroke-linecap="round" stroke-miterlimit="10" stroke-width="2" d="M8 48h48M8 40h48M20 2v55a5 5 0 0 1-5 5h-2a5 5 0 0 1-5-5V2m24 0v55a5 5 0 0 1-5 5h-2a5 5 0 0 1-5-5M44 2v55a5 5 0 0 1-5 5h-2a5 5 0 0 1-5-5M56 2v55a5 5 0 0 1-5 5h-2a5 5 0 0 1-5-5" stroke-linejoin="round"/><path data-name="stroke" d="M20 2c0 1.7-2.2 3-5 3h-2c-2.8 0-5-1.3-5-3m24 0c0 1.7-2.2 3-5 3h-2c-2.8 0-5-1.3-5-3m24 0c0 1.7-2.2 3-5 3h-2c-2.8 0-5-1.3-5-3m24 0c0 1.7-2.2 3-5 3h-2c-2.8 0-5-1.3-5-3M20 13a5 5 0 0 1-5 5h-2a5 5 0 0 1-5-5m24 0a5 5 0 0 1-5 5h-2a5 5 0 0 1-5-5m24 0a5 5 0 0 1-5 5h-2a5 5 0 0 1-5-5m24 0a5 5 0 0 1-5 5h-2a5 5 0 0 1-5-5" fill="none" stroke="#2e4369" stroke-linecap="round" stroke-miterlimit="10" stroke-width="2" stroke-linejoin="round"/></svg>