<svg viewBox="0 0 64 64" xmlns="http://www.w3.org/2000/svg" aria-labelledby="title" aria-describedby="desc"><path fill="#eaeff8" d="M32 14a17.932 17.932 0 0 1 5.936 1.023l2.083-11.93a29.976 29.976 0 0 0-15.98-.017l2.022 11.948A17.93 17.93 0 0 1 32 14z" data-name="layer1"/><path fill="#ed4c00" d="M26.064 15.023L24.042 3.076a30.048 30.048 0 0 0-20.973 21l11.946 2.02a18.021 18.021 0 0 1 11.049-11.073zm22.926 11.07l11.946-2.02a30.048 30.048 0 0 0-20.915-20.98l-2.083 11.93a18.021 18.021 0 0 1 11.052 11.07zM37.929 48.981l2.083 11.929A30.046 30.046 0 0 0 60.9 40.043L48.971 37.96a18.02 18.02 0 0 1-11.042 11.021z" data-name="layer2"/><path fill="#eaeff8" d="M32 50a17.932 17.932 0 0 1-5.929-1.02l-2.02 11.947a29.982 29.982 0 0 0 15.961-.017l-2.083-11.929A17.933 17.933 0 0 1 32 50zm28.935-25.927l-11.945 2.02a17.739 17.739 0 0 1-.019 11.867L60.9 40.043a29.981 29.981 0 0 0 .033-15.971z" data-name="layer1"/><path fill="#ed4c00" d="M15.034 37.96L3.1 40.043a30.046 30.046 0 0 0 20.951 20.884l2.022-11.947a18.02 18.02 0 0 1-11.039-11.02z" data-name="layer2"/><path fill="#eaeff8" d="M14 32a17.932 17.932 0 0 1 1.012-5.907l-11.943-2.02a29.982 29.982 0 0 0 .031 15.97l11.934-2.083A17.932 17.932 0 0 1 14 32z" data-name="layer1"/><path opacity=".15" fill="#000064" d="M46.538 42.539a17.963 17.963 0 1 0-25.075-25.075 17.938 17.938 0 0 1 25.075 25.075z" data-name="opacity"/><path opacity=".15" fill="#000064" d="M44.012 56.91A29.973 29.973 0 0 1 12.9 8.9a29.981 29.981 0 1 0 42.2 42.2 29.9 29.9 0 0 1-11.088 5.81z" data-name="opacity"/><path stroke-width="2" stroke-linejoin="round" stroke-linecap="round" stroke="#2e4369" fill="none" d="M4 20.929V13.5a9.519 9.519 0 0 1 9.518-9.519H21m39 16.795V13.5a9.519 9.519 0 0 0-9.517-9.519H43.25M4 43.271v7.21A9.518 9.518 0 0 0 13.518 60h7.411M60 43.3v7.184A9.518 9.518 0 0 1 50.483 60h-7.3" data-name="stroke"/><circle stroke-width="2" stroke-linejoin="round" stroke-linecap="round" stroke="#2e4369" fill="none" r="30" cy="32" cx="32.002" data-name="stroke"/><circle stroke-width="2" stroke-linejoin="round" stroke-linecap="round" stroke="#2e4369" fill="none" r="18" cy="32" cx="32.002" data-name="stroke"/><path d="M26.053 14.958L24.048 3.116M37.955 14.93L40 3.216M26.061 49.052l-1.996 11.791m13.877-11.791L40 60.841m9.114-34.769l11.721-1.982M49.082 37.979l11.732 2.049M14.84 26.063L3.15 24.087M14.872 38L3.19 40.028" stroke-width="2" stroke-linejoin="round" stroke-linecap="round" stroke="#2e4369" fill="none" data-name="stroke"/></svg>