<svg xmlns="http://www.w3.org/2000/svg" viewBox="0 0 64 64" aria-labelledby="title" aria-describedby="desc"><path data-name="layer2" d="M49.5 12H49a17 17 0 0 0-32.3 4.4A11 11 0 1 0 13.5 38h36a13 13 0 1 0 0-26z" fill="#202020"/><path data-name="layer1" d="M3.5 58.5a2 2 0 0 1-1.6-3.2l2-2.5A2 2 0 0 1 7 55.3l-2 2.5a2 2 0 0 1-1.5.7zm6.5-8.1a2 2 0 0 1-1.6-3.2l3.5-4.4a2 2 0 0 1 3.1 2.5l-3.5 4.4a2 2 0 0 1-1.5.7zM12.7 62a2 2 0 0 1-1.6-3.2l1.6-2a2 2 0 0 1 3.1 2.5l-1.6 2a2 2 0 0 1-1.5.7zm6.4-8a2 2 0 0 1-1.6-3.2l6.4-8a2 2 0 1 1 3.1 2.5l-6.4 8a2 2 0 0 1-1.5.7zm8.4 4.5a2 2 0 0 1-1.6-3.2l3.7-4.6a2 2 0 0 1 3.1 2.5L29 57.8a2 2 0 0 1-1.5.7zM35.9 48a2 2 0 0 1-1.6-3.2l1.6-2a2 2 0 0 1 3.1 2.5l-1.6 2a2 2 0 0 1-1.5.7zm.8 14a2 2 0 0 1-1.6-3.2l4.2-5.2a2 2 0 0 1 3.1 2.5l-4.2 5.2a2 2 0 0 1-1.5.7zm8.9-11.1a2 2 0 0 1-1.6-3.3l3.9-4.9a2 2 0 1 1 3.1 2.5l-3.9 4.9a2 2 0 0 1-1.5.8z" fill="#202020"/></svg>