<svg xmlns="http://www.w3.org/2000/svg" viewBox="0 0 64 64" aria-labelledby="title" aria-describedby="desc"><path data-name="layer2" d="M3.1 11.8l12 6 .9.2a2 2 0 0 0 .9-3.8l-12-6a2 2 0 0 0-1.8 3.6zm14.7 9.3a2 2 0 0 0-2.7-.9l-12 6A2 2 0 0 0 4 30l.9-.2 12-6a2 2 0 0 0 .9-2.7zm43.1 5.1l-12-6a2 2 0 0 0-1.8 3.6l12 6 .9.2a2 2 0 0 0 .9-3.8zM48 18l.9-.2 12-6a2 2 0 1 0-1.8-3.6l-12 6A2 2 0 0 0 48 18z" fill="#202020"/><path data-name="layer1" d="M25 17h14a2 2 0 0 0 0-4h-1a6 6 0 0 0-4-5.7 1.9 1.9 0 0 0 0-.3V2a2 2 0 1 0-4 0v5a1.9 1.9 0 0 0 0 .3 6 6 0 0 0-4 5.7h-1a2 2 0 0 0 0 4zm-3 16h20v23.99H22zm-2-3h24a2 2 0 0 0 0-4h-6v-6H26v6h-6a2 2 0 0 0 0 4zm28 30H16a2 2 0 1 0 0 4h32a2 2 0 0 0 0-4z" fill="#202020"/></svg>