<svg xmlns="http://www.w3.org/2000/svg" viewBox="0 0 64 64" aria-labelledby="title" aria-describedby="desc"><path data-name="layer3" fill="#eaf0ff" d="M22 28h20v34H22z"/><path data-name="layer2" d="M38 16v-2a6 6 0 1 0-12 0v2z" fill="#ed4c49"/><path data-name="layer1" fill="#ffd14d" d="M26 16h12v12H26z"/><path data-name="opacity" fill="#000064" opacity=".15" d="M26 28h-4v34h8V28h-4zm0-14v2h6V8a6 6 0 0 0-6 6zm0 2h6v12h-6z"/><path data-name="stroke" fill="none" stroke="#2e4369" stroke-linecap="round" stroke-linejoin="round" stroke-width="2" d="M32 8V2M22 28v34m20-34v34m-28 0h36M18 28h28m-20 0V16m12 12V16m-14 0h16m-14 0v-2a6 6 0 1 1 12 0v2m-22 0L4 10m12 12L4 28m44-6l12 6M48 16l12-6"/></svg>