<svg xmlns="http://www.w3.org/2000/svg" viewBox="0 0 64 64" aria-labelledby="title" aria-describedby="desc"><path data-name="layer2" d="M62 43.2a7.1 7.1 0 0 0-7-7.2 7.6 7.6 0 0 0-7 4.8 7.6 7.6 0 0 0-7-4.8 7.1 7.1 0 0 0-7 7 7.4 7.4 0 0 0 .3 2.2C35.9 51.5 43 57.7 48 62c4.9-4.3 12-11 13.7-16.6a7.5 7.5 0 0 0 .2-1 7.6 7.6 0 0 0 .1-1z" fill="#202020"/><path data-name="layer1" d="M30.5 46.5a11.4 11.4 0 0 1-.5-3.3 4 4 0 0 1 0-.4 11.5 11.5 0 0 1 1.1-4.3A2.7 2.7 0 0 1 30 36v-2a37.6 37.6 0 0 0 5.8-.7A10.9 10.9 0 0 1 41 32h1c-3.3-3.3-6-4.3-6-18C36 2.3 28.8 1.2 22 2.4S12 8 12 14c0 13.7-2.7 14.7-6 18a61.4 61.4 0 0 0 12 2v2c0 1.6-.5 3.5-8.6 5.2A9.2 9.2 0 0 0 2 50h29.8a18 18 0 0 1-1.3-3.5z" fill="#202020"/></svg>