<svg xmlns="http://www.w3.org/2000/svg" viewBox="0 0 64 64" aria-labelledby="title" aria-describedby="desc"><path data-name="layer2" d="M62 43.2a7.1 7.1 0 0 0-7-7.2 7.6 7.6 0 0 0-7 4.8 7.6 7.6 0 0 0-7-4.8 7.1 7.1 0 0 0-7 7 7.4 7.4 0 0 0 .3 2.2C35.9 51.5 43 57.7 48 62c4.9-4.3 12-11 13.7-16.6a7.5 7.5 0 0 0 .2-1 7.6 7.6 0 0 0 .1-1z" fill="#202020"/><path data-name="layer1" d="M30.5 46.5a11.4 11.4 0 0 1-.5-3.3 4 4 0 0 1 0-.4 11.3 11.3 0 0 1 2.5-6.5V34a14.5 14.5 0 0 0 4.2-7c2.5 0 3-5.1 3-5.8s.1-3.8-2.4-3.8C42.6 4.5 28.4-2.3 17.8 5.1c-4.4 0-4.7 5.9-3.1 12.3-2.5 0-2.4 3-2.4 3.8s.6 5.8 3 5.8a14.6 14.6 0 0 0 4.2 7v1.6c0 1.6 0 4-8.1 5.6S2 50 2 50h29.8a18 18 0 0 1-1.3-3.5z" fill="#202020"/></svg>