<svg xmlns="http://www.w3.org/2000/svg" viewBox="0 0 64 64" aria-labelledby="title" aria-describedby="desc"><path data-name="layer2" d="M32 20A29.8 29.8 0 0 0 56 8H8a30 30 0 0 0 24 12z" fill="#81d3ff"/><path data-name="layer1" d="M32 20A30 30 0 0 1 8 8v48h48V8a29.8 29.8 0 0 1-24 12z" fill="#c8ebff"/><path data-name="opacity" fill="#fff" opacity=".25" d="M8 8h48v4H8z"/><path data-name="opacity" fill="#000064" opacity=".1" d="M8 52h48v4H8z"/><path data-name="stroke" d="M56 8a29.8 29.8 0 0 1-24 12A30 30 0 0 1 8 8" fill="none" stroke="#2e4369" stroke-linecap="round" stroke-miterlimit="10" stroke-width="2" stroke-linejoin="round"/><path data-name="stroke" fill="none" stroke="#2e4369" stroke-linecap="round" stroke-miterlimit="10" stroke-width="2" d="M8 8h48v48H8z" stroke-linejoin="round"/></svg>