<svg xmlns="http://www.w3.org/2000/svg" viewBox="0 0 64 64" aria-labelledby="title" aria-describedby="desc"><path data-name="layer1" d="M14 0v59.4a4.6 4.6 0 0 0 4.6 4.6h26.8a4.6 4.6 0 0 0 4.6-4.6V0zm23.2 21.4l4.3 2.5a3 3 0 0 1 1.1 4.1l-2.5 4.3a3 3 0 0 1-2.6 1.5 3 3 0 0 1-1.5-.4l-4.3-2.5a3 3 0 0 1-1.1-4.1l2.5-4.3a3 3 0 0 1 4.1-1.1zm-2.9 22.7L30 46.6a3 3 0 0 1-4.1-1.1l-2.5-4.3a3 3 0 0 1 1.1-4.1l4.3-2.5a3 3 0 0 1 4.1 1.1l2.5 4.3a3 3 0 0 1-1.1 4.1zM21.1 13.7a3 3 0 0 1 1.4-1.8l4.3-2.5a3 3 0 0 1 4.1 1.1l2.5 4.3a3 3 0 0 1-1.1 4.1L28 21.4a3 3 0 0 1-4.1-1.1L21.4 16a3 3 0 0 1-.3-2.3zM46 59.4a.6.6 0 0 1-.6.6H18.6a.6.6 0 0 1-.6-.6V54h28z" fill="#202020"/></svg>