<svg xmlns="http://www.w3.org/2000/svg" viewBox="0 0 64 64" aria-labelledby="title" aria-describedby="desc"><path data-name="layer3" d="M27 10v13.2A16 16 0 0 0 17 38v21c0 1.7 1.8 3 7 3h16c5 0 7-1.3 7-3V38a16 16 0 0 0-10-14.8V10" fill="#8caf61"/><path data-name="opacity" d="M22 59V38c0-6.7 1.1-12.5 7-14.8V12h8v-2H27v13.2A16 16 0 0 0 17 38v21c0 1.7 1.8 3 7 3h5c-5.2 0-7-1.3-7-3z" fill="#101129" opacity=".25"/><path data-name="layer2" fill="#a41d34" d="M25 2h14v8H25z"/><path data-name="opacity" d="M36.5 23.2V12h-3v11.2C38.7 25.5 41 32.7 41 38v21c0 1.7-1.8 3-6.3 3h4c4.5 0 6.3-1.3 6.3-3V38c0-5.3-3.3-12.5-8.5-14.8z" fill="#fff" opacity=".5"/><path data-name="layer1" fill="#d5e2f4" d="M25 36h14v14H25z"/><path data-name="opacity" fill="#101129" opacity=".25" d="M25 2h4v8h-4z"/><path data-name="stroke" d="M27 10v13.2A16 16 0 0 0 17 38v21c0 1.7 1.8 3 7 3h16c5 0 7-1.3 7-3V38a16 16 0 0 0-10-14.8V10M25 2h14v8H25z" fill="none" stroke="#2f446a" stroke-linecap="round" stroke-linejoin="round" stroke-width="2"/><path data-name="stroke" fill="none" stroke="#2f446a" stroke-linecap="round" stroke-linejoin="round" stroke-width="2" d="M25 36h14v14H25z"/></svg>