<svg xmlns="http://www.w3.org/2000/svg" viewBox="0 0 64 64" aria-labelledby="title" aria-describedby="desc"><path data-name="layer2" fill="none" stroke="#202020" stroke-linecap="round" stroke-linejoin="round" stroke-width="2" d="M48 52V2H16v50"/><rect data-name="layer2" x="22.9" y="10.9" width="9" height="9" rx="2" ry="2" transform="rotate(-30 27.483 15.364)" fill="none" stroke="#202020" stroke-linecap="round" stroke-linejoin="round" stroke-width="2"/><path data-name="layer2" d="M34.6 40.5a2 2 0 0 1-.7 2.7l-4.3 2.5a2 2 0 0 1-2.7-.7l-2.5-4.3a2 2 0 0 1 .7-2.7l4.3-2.5a2 2 0 0 1 2.7.7z" fill="none" stroke="#202020" stroke-linecap="round" stroke-linejoin="round" stroke-width="2"/><rect data-name="layer2" x="32.1" y="22.9" width="9" height="9" rx="2" ry="2" transform="matrix(.5 -.87 .87 .5 -5.44 45.4)" fill="none" stroke="#202020" stroke-linecap="round" stroke-linejoin="round" stroke-width="2"/><path data-name="layer1" d="M16 52v7.4a2.6 2.6 0 0 0 2.6 2.6h26.8a2.6 2.6 0 0 0 2.6-2.6V52z" fill="none" stroke="#202020" stroke-linecap="round" stroke-linejoin="round" stroke-width="2"/></svg>