<svg xmlns="http://www.w3.org/2000/svg" viewBox="0 0 64 64" aria-labelledby="title" aria-describedby="desc"><path data-name="layer2" fill="#c3e2fa" d="M26 2h36v12H26z"/><path data-name="layer1" fill="#aad6f8" d="M2 2h12v12H2zm0 24h12v12H2z"/><path data-name="layer2" fill="#c3e2fa" d="M26 26h36v12H26zm0 24h36v12H26z"/><path data-name="layer1" fill="#aad6f8" d="M2 50h12v12H2z"/><path data-name="opacity" fill="#000064" opacity=".12" d="M62 35H30v-9h-4v12h36v-3zM14 11H6V2H2v12h12v-3zm48 0H30V2h-4v12h36v-3zM14 35H6v-9H2v12h12v-3zM6 59v-9H2v12h12v-3H6zm24 0v-9h-4v12h36v-3H30z"/><path data-name="stroke" fill="none" stroke="#2e4369" stroke-linecap="round" stroke-miterlimit="10" stroke-width="2" d="M26 2h36v12H26zM2 2h12v12H2zm0 24h12v12H2zm24 0h36v12H26zm0 24h36v12H26zM2 50h12v12H2z" stroke-linejoin="round"/></svg>