<svg xmlns="http://www.w3.org/2000/svg" viewBox="0 0 64 64" aria-labelledby="title" aria-describedby="desc"><path data-name="layer2" d="M20.022 10C9.926 10 0 14.887 0 25.979 0 36.632 1.923 44.418 2.046 48.35s.114 9.569 6.421 8.522c6.42-1.065 5.247-11.222 17.12-13.849 9.63-2.131 11.672-3.9 11.8-7.1s.212-17.283-3.235-20.6A20.832 20.832 0 0 0 20.022 10z" fill="#202020"/><path data-name="layer1" d="M50.2 13.2c-6.594 0-11.06 1.3-13.061 3.162C39.8 22.431 39.44 34.447 39.38 36a6.8 6.8 0 0 1-.633 2.705c2.862.4 7.379-.156 10.379-3.142 4.28-4.261 7.391-12.4 11.77-13.849 3.21-1.061 7.958-8.514-10.696-8.514z" fill="#202020"/></svg>