<svg xmlns="http://www.w3.org/2000/svg" viewBox="0 0 64 64" aria-labelledby="title" aria-describedby="desc"><path data-name="layer2" d="M36.467 38.449c2 1 7.939 1.146 11.533-2.449 4-4 6.908-11.636 11-13 3-1 7.438-8-10-8-8.63 0-13.387 2.394-13.331 5.268z" fill="#cc668b"/><path data-name="opacity" d="M35.669 20.268l.8 18.181c2 1 7.939 1.146 11.533-2.449 2.73-2.73 4.952-7.151 7.388-10.119C48.467 28.168 45.231 34.192 42 35c-4 1-2-7-3-11a9.171 9.171 0 0 1 1.218-7.859c-2.998.971-4.581 2.467-4.549 4.127z" fill="#000064" opacity=".16"/><path data-name="layer1" d="M20.8 12C11.363 12 2 16.588 2 27c0 10 1.884 17.309 2 21s.106 8.982 6 8c6-1 4.9-10.534 16-13 9-2 10.909-3.663 11.024-6.662S37.222 20.114 34 17a19.421 19.421 0 0 0-13.2-5z" fill="#e26076"/><path data-name="opacity" d="M4 48c.115 3.691.107 8.982 6 8 6-1 4.9-10.534 16-13 9-2 10.909-3.663 11.024-6.662.029-.763.056-2.189.027-3.941a1.843 1.843 0 0 0-.051.477C37 37.75 29 38 23 40s-6 8-10 10-3-2-4-7-7.969-17.944-4.364-24.309A13.489 13.489 0 0 0 2 27c0 10 1.884 17.309 2 21z" fill="#000064" opacity=".16"/><path data-name="stroke" d="M36.467 38.449c2 1 7.939 1.146 11.533-2.449 4-4 6.908-11.636 11-13 3-1 7.438-8-10-8-8.63 0-13.387 2.394-13.331 5.268" fill="none" stroke="#2e4369" stroke-linecap="round" stroke-miterlimit="10" stroke-width="2" stroke-linejoin="round"/><path data-name="stroke" d="M20.8 12C11.363 12 2 16.588 2 27c0 10 1.884 17.309 2 21s.106 8.982 6 8c6-1 4.9-10.534 16-13 9-2 10.909-3.663 11.024-6.662S37.222 20.114 34 17a19.421 19.421 0 0 0-13.2-5z" fill="none" stroke="#2e4369" stroke-linecap="round" stroke-miterlimit="10" stroke-width="2" stroke-linejoin="round"/><path data-name="opacity" d="M27.648 18.352C22.87 13.756 17.093 17 18.12 18.8c.777 1.728 3.36 2.823 4.63 4.446 1.623 1.27 2.718 3.852 4.446 4.63 1.804 1.031 5.048-4.746.452-9.524z" fill="#fff" opacity=".4"/></svg>