<svg xmlns="http://www.w3.org/2000/svg" viewBox="0 0 64 64" aria-labelledby="title" aria-describedby="desc"><path data-name="layer2" d="M55.5 44.5v-9a8 8 0 1 0-16 0v9h-5v18h26v-18zm-6 11a2 2 0 1 1-4 0v-4a2 2 0 1 1 4 0zm2-11h-8v-9a4 4 0 1 1 8 0z" fill="#202020"/><path data-name="layer1" d="M26.5 28.5a63.4 63.4 0 0 0 12.2-1.1 12 12 0 0 1 8.8-3.8h1.3a1.6 1.6 0 0 0 .7-1.1v-6.2c-5 3.6-14 5.2-23 5.2s-18-1.7-23-5.2v6.2c0 2 9.4 6 23 6z" fill="#202020"/><ellipse data-name="layer1" cx="26.5" cy="9.5" rx="23" ry="8" fill="#202020"/><path data-name="layer1" d="M30.5 44.5v-.2h-4c-9.4 0-19-2-23-5.8v6.8c0 4.3 9.8 7.8 22.1 8h4.9zm-4-4a66.2 66.2 0 0 0 9-.6v-4.4a11.9 11.9 0 0 1 .6-3.7 64 64 0 0 1-9.6.7c-9.4 0-19-2-23-5.8v7.8c0 2 9.4 6 23 6z" fill="#202020"/></svg>