<svg viewBox="0 0 64 64" xmlns="http://www.w3.org/2000/svg" aria-labelledby="title" aria-describedby="desc"><path fill="#7b8baf" d="M50 48V10c-.063-4-10.334-7.98-23-7.98C14.3 2.02 4 5.583 4 10v36c0 4.4 10.3 7.961 23 7.961C39 53.962 50 51 50 48z" data-name="layer2"/><ellipse opacity=".25" fill="#fff" ry="8" rx="23" cy="10.001" cx="27" data-name="opacity"/><path opacity=".18" fill="#000064" d="M4 10v36c0 3.156 5.307 5.883 13 7.171V17.207C9.307 15.913 4 13.172 4 10z" data-name="opacity"/><path opacity=".15" fill="#fff" d="M33 17.724v35.958a50.455 50.455 0 0 0 7.371-1.2L46 49.86V14.508a37.791 37.791 0 0 1-13 3.216z" data-name="opacity"/><path d="M36 46.001h24v16H36z" fill="#fc6" data-name="layer1"/><path opacity=".18" fill="#000064" d="M42 36a5.973 5.973 0 0 1 1.386-3.832A5.98 5.98 0 0 0 36 38v8h6zm-6 12h-6v5.9a72.198 72.198 0 0 0 6-.49z" data-name="opacity"/><ellipse stroke-width="2" stroke-linejoin="round" stroke-linecap="round" stroke="#2e4369" fill="none" ry="8" rx="23" cy="10" cx="27" data-name="stroke"/><path d="M50 30.344V9.961m0 12.059c0 4.4-10.3 7.961-23 7.961S4 26.417 4 22.02m37.968 18.044A54.157 54.157 0 0 1 27 41.981c-12.7 0-23-3.564-23-7.961" stroke-width="2" stroke-linejoin="round" stroke-linecap="round" stroke="#2e4369" fill="none" data-name="stroke"/><path stroke-width="2" stroke-linejoin="round" stroke-linecap="round" stroke="#2e4369" fill="none" d="M36 53.329a62.346 62.346 0 0 1-9 .633C14.3 53.962 4 50.4 4 46V10m32 36.001h24v16H36zM42 46V36a6 6 0 0 1 6-6 6 6 0 0 1 6 6v10m-6 6.001v4" data-name="stroke"/></svg>