<svg viewBox="0 0 64 64" xmlns="http://www.w3.org/2000/svg" aria-labelledby="title" aria-describedby="desc"><path fill="#202020" d="M57.5 40.5v-9a8 8 0 0 0-16 0v9h-5v18h26v-18zm-6 11a2 2 0 0 1-4 0v-4a2 2 0 0 1 4 0zm2-11h-8v-9a4 4 0 0 1 8 0z" data-name="layer3"/><path fill="#202020" d="M32.5 40.5v-4h5v-5a12.014 12.014 0 0 1 12-12h-48v30h31z" data-name="layer2"/><path fill="#202020" d="M1.5 5.5v10h52v-10zM7 13a2 2 0 1 1 2-2 2 2 0 0 1-2 2zm6 0a2 2 0 1 1 2-2 2 2 0 0 1-2 2zm6 0a2 2 0 1 1 2-2 2 2 0 0 1-2 2z" data-name="layer1"/></svg>