<svg xmlns="http://www.w3.org/2000/svg" viewBox="0 0 64 64" aria-labelledby="title" aria-describedby="desc"><path data-name="layer3" d="M45 26.8V15A13 13 0 0 0 32 2a13 13 0 0 0-13 13v11.8l4-2.7V15a9 9 0 0 1 18 0v9.1z" fill="#aabfce"/><circle data-name="layer2" cx="32" cy="42" r="20" fill="#fbaa51"/><path data-name="opacity" d="M32 22a19.9 19.9 0 0 0-15.1 6.9 20 20 0 0 1 28.2 28.2A20 20 0 0 0 32 22z" fill="#fff" opacity=".25"/><path data-name="layer1" d="M34 45a2 2 0 0 1-2 2 2 2 0 0 1-2-2v-6a2 2 0 0 1 2-2 2 2 0 0 1 2 2z" fill="#536897"/><circle data-name="stroke" cx="32" cy="42" r="20" fill="none" stroke="#2e4369" stroke-linecap="round" stroke-linejoin="round" stroke-width="2"/><path data-name="stroke" d="M19 26.8V15A13 13 0 0 1 32 2a13 13 0 0 1 13 13v11.8M34 45a2 2 0 0 1-2 2 2 2 0 0 1-2-2v-6a2 2 0 0 1 2-2 2 2 0 0 1 2 2z" fill="none" stroke="#2e4369" stroke-linecap="round" stroke-linejoin="round" stroke-width="2"/><path data-name="stroke" d="M23 24.1V15a9 9 0 0 1 18 0v9.1" fill="none" stroke="#2e4369" stroke-linecap="round" stroke-linejoin="round" stroke-width="2"/></svg>