<svg viewBox="0 0 64 64" xmlns="http://www.w3.org/2000/svg" aria-labelledby="title" aria-describedby="desc"><path fill="#8fa9d8" d="M38 52H4a2 2 0 0 1-2-2V6a2 2 0 0 1 2-2h48a2 2 0 0 1 2 2v46z" data-name="layer3"/><path opacity=".18" fill="#000064" d="M6 50V6a2 2 0 0 1 2-2H4a2 2 0 0 0-2 2v44a2 2 0 0 0 2 2h4a2 2 0 0 1-2-2z" data-name="opacity"/><path d="M38 44h24v16H38z" fill="#fc6" data-name="layer2"/><path opacity=".18" fill="#000064" d="M44 34a6 6 0 0 1 1.5-4 6 6 0 0 0-5.5 6v8h4z" data-name="opacity"/><circle fill="#44d88d" r="1" cy="12" cx="11" data-name="layer1"/><circle fill="#44d88d" r="1" cy="28" cx="11" data-name="layer1"/><circle fill="#44d88d" r="1" cy="44" cx="11" data-name="layer1"/><path d="M34 46h4v6h-4z" opacity=".18" fill="#000064" data-name="opacity"/><path d="M38 44h24v16H38zm6 0V34a6 6 0 0 1 6-6 6 6 0 0 1 6 6v10m-6 6v4" stroke-width="2" stroke-linejoin="round" stroke-linecap="round" stroke="#2e4369" fill="none" data-name="stroke"/><path stroke-width="2" stroke-linejoin="round" stroke-linecap="round" stroke="#2e4369" fill="none" d="M38 52H4a2 2 0 0 1-2-2V6a2 2 0 0 1 2-2h48a2 2 0 0 1 2 2v23.5M39 28h-9m3 16h-3m16-32H30" data-name="stroke"/><circle stroke-width="2" stroke-linejoin="round" stroke-linecap="round" stroke="#2e4369" fill="none" r="1" cy="12" cx="11" data-name="stroke"/><circle stroke-width="2" stroke-linejoin="round" stroke-linecap="round" stroke="#2e4369" fill="none" r="1" cy="28" cx="11" data-name="stroke"/><circle stroke-width="2" stroke-linejoin="round" stroke-linecap="round" stroke="#2e4369" fill="none" r="1" cy="44" cx="11" data-name="stroke"/><path d="M54 20H2m42 16H2" stroke-width="2" stroke-linejoin="round" stroke-linecap="round" stroke="#2e4369" fill="none" data-name="stroke"/></svg>