<svg viewBox="0 0 64 64" xmlns="http://www.w3.org/2000/svg" aria-labelledby="title" aria-describedby="desc"><ellipse stroke-width="2" stroke-linejoin="round" stroke-linecap="round" stroke="#202020" fill="none" ry="8" rx="23" cy="10" cx="27" data-name="layer2"/><path d="M50 30.344V9.961m0 12.059c0 4.4-10.3 7.961-23 7.961S4 26.417 4 22.02m37.9 18.064a54.274 54.274 0 0 1-14.9 1.9c-12.7 0-23-3.564-23-7.961" stroke-width="2" stroke-linejoin="round" stroke-linecap="round" stroke="#202020" fill="none" data-name="layer2"/><path stroke-width="2" stroke-linejoin="round" stroke-linecap="round" stroke="#202020" fill="none" d="M36 53.329a62.346 62.346 0 0 1-9 .633C14.3 53.962 4 50.4 4 46V10" data-name="layer2"/><path d="M36 46.001h24v16H36zM42 46V36a6 6 0 0 1 6-6 6 6 0 0 1 6 6v10m-6 6.001v4" stroke-width="2" stroke-linejoin="round" stroke-linecap="round" stroke="#202020" fill="none" data-name="layer1"/></svg>