<svg xmlns="http://www.w3.org/2000/svg" viewBox="0 0 64 64" aria-labelledby="title" aria-describedby="desc"><circle data-name="layer2" cx="14" cy="49" r="5" fill="#202020"/><circle data-name="layer2" cx="30" cy="49" r="5" fill="#202020"/><circle data-name="layer2" cx="46" cy="49" r="5" fill="#202020"/><path data-name="layer1" d="M5 14h2v10h22V14h1a2 2 0 0 0 0-4H5a2 2 0 0 0 0 4z" fill="#202020"/><path data-name="layer1" d="M62.4 50.6l-6-6-.6-.4a24.3 24.3 0 0 0 1.3-8C57 30 54.9 28 54.9 28H51V18a2 2 0 0 0 0-4h-8a2 2 0 0 0 0 4v10H7v4H1v14h4.5A9 9 0 0 1 22 44.9a9 9 0 0 1 16 0 9 9 0 0 1 17 3.9l4.6 4.6a2 2 0 1 0 2.8-2.8z" fill="#202020"/></svg>