<svg xmlns="http://www.w3.org/2000/svg" viewBox="0 0 64 64" aria-labelledby="title" aria-describedby="desc"><path data-name="layer2" d="M38 28.8L5.2 61.7a2 2 0 0 1-2.8 0 2 2 0 0 1 0-2.8L35.2 26" fill="#fce3d6"/><path data-name="layer1" d="M51.7 31.2a15.1 15.1 0 0 1-18.9-18.9" fill="#f6891f"/><path data-name="opacity" d="M51.7 31.2a15.1 15.1 0 0 1-18.9-18.9" fill="#101129" opacity=".18"/><path data-name="layer1" d="M40.7 3.1a15.1 15.1 0 0 1 20.2 20.2m-5.1 9.2a2 2 0 0 1-2.9 0L31.6 11.1a2 2 0 0 1 0-2.8l5.7-5.7a2 2 0 0 1 2.8 0l21.4 21.3a2 2 0 0 1 0 2.9z" fill="#f6891f"/><path data-name="opacity" d="M31.6 8.2a2 2 0 0 0 0 2.8l21.3 21.5a2 2 0 0 0 2.9 0l2-2a2 2 0 0 1-2.8 0L33.6 9.1a2 2 0 0 1 0-2.8" fill="#101129" opacity=".18"/><ellipse data-name="opacity" cx="53.5" cy="9.7" rx="3.1" ry="3.9" transform="rotate(-45 53.53 9.727)" fill="#fff" opacity=".4"/><path data-name="stroke" d="M51.6 31.3a15.1 15.1 0 0 1-18.9-18.9m7.9-9.2a15.1 15.1 0 0 1 20.2 20.2" fill="none" stroke="#2f446a" stroke-linecap="round" stroke-linejoin="round" stroke-width="2"/><path data-name="stroke" d="M55.7 32.5a2 2 0 0 1-2.8 0L31.4 11.2a2 2 0 0 1 0-2.8l5.7-5.7a2 2 0 0 1 2.8 0L61.4 24a2 2 0 0 1 0 2.9zm-17.8-3.6L5.1 61.7a2 2 0 0 1-2.8 0 2 2 0 0 1 0-2.8l32.8-32.8" fill="none" stroke="#2f446a" stroke-linecap="round" stroke-linejoin="round" stroke-width="2"/></svg>