<svg xmlns="http://www.w3.org/2000/svg" viewBox="0 0 64 64" aria-labelledby="title" aria-describedby="desc"><path data-name="layer4" d="M42 42V24h12V8a6 6 0 0 0-6-6H14a6 6 0 0 0-6 6v48h46V42z" fill="#ed4c49"/><path data-name="layer3" d="M18 56v4a2 2 0 0 1-2 2h-4a2 2 0 0 1-2-2v-4zm34 0v4a2 2 0 0 1-2 2h-4a2 2 0 0 1-2-2v-4z" fill="#7b8baf"/><path data-name="layer2" fill="#c3d6e0" d="M8 24h26v18H8zm34 0h10v18H42z"/><path data-name="layer1" fill="#fff" d="M16 10h30v8H16z"/><path data-name="opacity" fill="#000064" opacity=".15" d="M8 24h26v3H8zm34 0h10v3H42z"/><path data-name="opacity" fill="#000064" opacity=".2" d="M10 56h8v3h-8zm34 0h8v3h-8z"/><path data-name="opacity" fill="#000064" opacity=".15" d="M16 10v2h28v6h2v-8H16z"/><path data-name="opacity" d="M19 2h-5a6 6 0 0 0-6 6v48h5V8a6 6 0 0 1 6-6z" fill="#000064" opacity=".15"/><path data-name="opacity" fill="#fff" opacity=".5" d="M34 27h-5.6l-15 15h9.4L34 30.8V27zm18 0h-6l-4 4v7.7l10-10V27z"/><path data-name="stroke" d="M18 56v4a2 2 0 0 1-2 2h-4a2 2 0 0 1-2-2v-4m42 0v4a2 2 0 0 1-2 2h-4a2 2 0 0 1-2-2v-4M16 10h30v8H16zM8 24h26v18H8" fill="none" stroke="#2e4369" stroke-linecap="round" stroke-linejoin="round" stroke-width="2"/><path data-name="stroke" d="M42 42V24h12V8a6 6 0 0 0-6-6H14a6 6 0 0 0-6 6v48h46V42zm10-18v18M8 48h8m30 0h8" fill="none" stroke="#2e4369" stroke-linecap="round" stroke-linejoin="round" stroke-width="2"/></svg>