<svg viewBox="0 0 64 64" xmlns="http://www.w3.org/2000/svg" aria-labelledby="title" aria-describedby="desc"><path stroke-width="2" stroke-miterlimit="10" stroke-linecap="round" stroke="#202020" fill="none" d="M46.4 16.8c-8.9 0-13.2 7.5-17 14.1S22.7 42 17.6 42 8 37.3 8 32s4-9.2 10-9.2a6.1 6.1 0 0 1 2.7.6l-3.5.6 1 5.9L30 27l-3-13-5.1 1.1.9 2.6a15.4 15.4 0 0 0-4.7-1C9 16.8 2 23.4 2 32s7.1 16 15.7 16 13.2-7.5 17-14.1 6.7-11.1 11.8-11.1A9.3 9.3 0 0 1 56 32a9.8 9.8 0 0 1-10 10c-2 0-4.9-1.3-7.2-4.2L34 41.5c3.5 4.4 8 6.5 12 6.5a16 16 0 0 0 16-16 15.3 15.3 0 0 0-15.6-15.2z" data-name="layer1" stroke-linejoin="round"/></svg>