<svg xmlns="http://www.w3.org/2000/svg" viewBox="0 0 64 64" aria-labelledby="title" aria-describedby="desc"><path data-name="layer2" d="M15.088 47.998A5.222 5.222 0 0 1 10 42.75v-21.5A5.255 5.255 0 0 1 15.25 16h10.86l-3.103 2.758a3 3 0 0 0 3.986 4.485L38.516 13 26.993 2.758a3 3 0 0 0-3.986 4.485L26.109 10H15.25A11.263 11.263 0 0 0 4 21.25v21.5a11.195 11.195 0 0 0 10.908 11.245c.03.001.061.003.092.003a3 3 0 0 0 .088-6z" fill="none" stroke="#202020" stroke-miterlimit="10" stroke-width="2" stroke-linejoin="round" stroke-linecap="round"/><path data-name="layer1" d="M47.089 10.006a3 3 0 1 0-.178 5.997A5.223 5.223 0 0 1 52 21.25v21.5A5.256 5.256 0 0 1 46.75 48H35.888l3.105-2.76a3 3 0 1 0-3.986-4.485L23.484 50.998 35.007 61.24a3 3 0 1 0 3.986-4.485L35.893 54H46.75A11.263 11.263 0 0 0 58 42.75v-21.5a11.193 11.193 0 0 0-10.911-11.244z" fill="none" stroke="#202020" stroke-miterlimit="10" stroke-width="2" stroke-linejoin="round" stroke-linecap="round"/></svg>