<svg xmlns="http://www.w3.org/2000/svg" viewBox="0 0 64 64" aria-labelledby="title" aria-describedby="desc"><circle data-name="layer2" cx="32" cy="40" r="4" fill="#202020"/><path data-name="layer1" d="M52 2H12a2 2 0 0 0-2 2v56a2 2 0 0 0 2 2h40a2 2 0 0 0 2-2V4a2 2 0 0 0-2-2zm-20 8a4 4 0 1 1-4 4 4 4 0 0 1 4-4zM16.6 8.6a2.1 2.1 0 0 1 2.8 0 2 2 0 0 1 0 2.8 2 2 0 0 1-2.8 0 2 2 0 0 1 0-2.8zm2.8 46.8a2 2 0 0 1-2.8-2.8 2.1 2.1 0 0 1 2.8 0 2 2 0 0 1 0 2.8zM32 54a14 14 0 1 1 14-14 14 14 0 0 1-14 14zm15.4 1.4a2 2 0 0 1-2.8-2.8 2.1 2.1 0 0 1 2.8 0 2 2 0 0 1 0 2.8zm0-44a2 2 0 0 1-2.8-2.8 2.1 2.1 0 0 1 2.8 0 2 2 0 0 1 0 2.8z" fill="#202020"/></svg>