<svg viewBox="0 0 64 64" xmlns="http://www.w3.org/2000/svg" aria-labelledby="title" aria-describedby="desc"><path fill="#fff" d="M32 62c0-17.1 16.3-25.2 17.8-39.7A18 18 0 1 0 14 20a17.7 17.7 0 0 0 .2 2.2C15.7 36.8 32 44.9 32 62z" data-name="layer2"/><path opacity=".2" fill="#000032" d="M32 61c0-18.3-12.7-26.9-13.9-42.4-.1-.8-.1-1.5-.1-2.3a24.8 24.8 0 0 1 1.8-9.4A17.9 17.9 0 0 0 14 20a17.7 17.7 0 0 0 .2 2.2C15.7 36.8 32 44.9 32 62z" data-name="opacity"/><path stroke-width="2" stroke-miterlimit="10" stroke-linecap="round" stroke="#2e4369" fill="none" d="M32 62c0-17.1 16.3-25.2 17.8-39.7A18 18 0 1 0 14 20a18.1 18.1 0 0 0 .2 2.2C15.7 36.8 32 44.9 32 62z" data-name="stroke" stroke-linejoin="round"/><path fill="#ed4c49" d="M40 18.3a4.3 4.3 0 0 0-4.4-4.3 4.4 4.4 0 0 0-3.6 1.8 4.4 4.4 0 0 0-3.6-1.8 4.3 4.3 0 0 0-4.4 4.3 4.2 4.2 0 0 0 0 .5c.5 4.5 8 9.3 8 9.3s6.6-4.3 7.8-8.5a4.2 4.2 0 0 0 .2-1.3z" data-name="layer1"/><path stroke-width="2" stroke-miterlimit="10" stroke-linecap="round" stroke="#2e4369" fill="none" d="M40 18.3a4.3 4.3 0 0 0-4.4-4.3 4.4 4.4 0 0 0-3.6 1.8 4.4 4.4 0 0 0-3.6-1.8 4.3 4.3 0 0 0-4.4 4.3 4.2 4.2 0 0 0 0 .5c.5 4.5 8 9.3 8 9.3s6.6-4.3 7.8-8.5a4.2 4.2 0 0 0 .2-1.3z" data-name="stroke" stroke-linejoin="round"/></svg>