<svg viewBox="0 0 64 64" xmlns="http://www.w3.org/2000/svg" aria-labelledby="title" aria-describedby="desc"><path fill="#fff" d="M55.9 28.3c.1-.8.1-1.5.1-2.3a24 24 0 0 0-48 0c0 .8 0 1.6.1 2.3v.3C10.1 47.6 32 62 32 62s21.9-14.6 23.8-33.3z" data-name="layer2"/><path opacity=".2" fill="#000032" d="M11.1 26.6v-.3c-.1-.8-.1-1.5-.1-2.3a24 24 0 0 1 9.3-18.9A24 24 0 0 0 8 26c0 .8 0 1.6.1 2.3v.3C10.1 47.6 32 62 32 62l2.8-2.1C33 58.6 13 44.7 11.1 26.6z" data-name="opacity"/><path stroke-width="2" stroke-miterlimit="10" stroke-linecap="round" stroke="#2e4369" fill="none" d="M55.9 28.3c.1-.8.1-1.5.1-2.3a24 24 0 0 0-48 0c0 .8 0 1.6.1 2.3v.3C10.1 47.6 32 62 32 62s21.9-14.6 23.8-33.3z" data-name="stroke" stroke-linejoin="round"/><path fill="#ed4c49" d="M44 24.7a6.7 6.7 0 0 0-6.6-6.7 6.6 6.6 0 0 0-5.4 2.9 6.6 6.6 0 0 0-5.4-2.9 6.7 6.7 0 0 0-6.6 6.7 6.9 6.9 0 0 0 0 .7C20.8 32.6 32 40 32 40s9.9-6.8 11.7-13.4a6.8 6.8 0 0 0 .3-1.9z" data-name="layer1"/><path stroke-width="2" stroke-miterlimit="10" stroke-linecap="round" stroke="#2e4369" fill="none" d="M44 24.7a6.7 6.7 0 0 0-6.6-6.7 6.6 6.6 0 0 0-5.4 2.9 6.6 6.6 0 0 0-5.4-2.9 6.7 6.7 0 0 0-6.6 6.7 6.9 6.9 0 0 0 0 .7C20.8 32.6 32 40 32 40s9.9-6.8 11.7-13.4a6.8 6.8 0 0 0 .3-1.9z" data-name="stroke" stroke-linejoin="round"/></svg>