<svg viewBox="0 0 64 64" xmlns="http://www.w3.org/2000/svg" aria-labelledby="title" aria-describedby="desc"><path stroke-width="2" stroke-miterlimit="10" stroke="#202020" fill="none" d="M54 24a22 22 0 1 0-28 21.1L32 59l6-13.9A22 22 0 0 0 54 24z" data-name="layer2" stroke-linejoin="round" stroke-linecap="round"/><path stroke-width="2" stroke-miterlimit="10" stroke="#202020" fill="none" d="M42 21.5a5.5 5.5 0 0 0-10-3.2 5.5 5.5 0 0 0-10 3.2 5.5 5.5 0 0 0 0 .6C22.6 27.9 32 34 32 34s8.3-5.6 9.8-10.9a5.5 5.5 0 0 0 .2-1.6z" data-name="layer1" stroke-linejoin="round" stroke-linecap="round"/></svg>