<svg xmlns="http://www.w3.org/2000/svg" viewBox="0 0 64 64" aria-labelledby="title" aria-describedby="desc"><path data-name="layer2" d="M20 14c-8 0-18 9.421-18 25 0 13-.386 18 3 18 4 0 5.749-5.3 11-6s8-1.018 8-5V19c0-2.108-.266-5-4-5zm23.987 0c8 0 18 9.421 18 25 0 13 .386 18-3 18-4 0-5.749-5.3-11-6s-8-1.018-8-5V19c0-2.108.266-5 4-5z" fill="#cc667e"/><path data-name="layer1" d="M35 2v21c0 2.954 2.164 7.03 4.985 7.852v9.063l-4.409-4.409a5.059 5.059 0 0 0-7.154 0L24 39.929v-9.073c2.827-.813 5-4.9 5-7.856V2z" fill="#db3854"/><path data-name="opacity" d="M40 39.916v-9.063a6.01 6.01 0 0 1-2.953-2.253c-.576 2.906-1.423 5.779-3.583 5.631h-.071a5 5 0 0 1 2.2 1.267z" fill="#000064" opacity=".16"/><path data-name="opacity" d="M39.987 19v27c0 3.982 2.749 4.3 8 5s7 6 11 6c2.173 0 2.79-2.075 2.955-6.985C60.882 53.018 56 50 53 48s-7-5-8-8c-.96-2.881-2.84-24.194.555-25.882A10.84 10.84 0 0 0 43.987 14c-3.734 0-4 2.892-4 5zM5 57c4 0 5.749-5.3 11-6s8-1.018 8-5v-1.828c-1.807.552-3.951.78-5 1.828-2 2-7 2-11-1s-4-19.9.49-24.917C4.737 24.4 2 30.854 2 39c0 13-.386 18 3 18z" fill="#000064" opacity=".16"/><path data-name="stroke" d="M39.985 30.852C37.164 30.03 35 25.954 35 23V2M24 30.856c2.827-.813 5-4.9 5-7.856V2m10.987 37.916l-4.409-4.409a5.059 5.059 0 0 0-7.154 0L24 39.929M20 14c-8 0-18 9.421-18 25 0 13-.386 18 3 18 4 0 5.749-5.3 11-6s8-1.018 8-5V19c0-2.108-.266-5-4-5zm23.987 0c8 0 18 9.421 18 25 0 13 .386 18-3 18-4 0-5.749-5.3-11-6s-8-1.018-8-5V19c0-2.108.266-5 4-5z" fill="none" stroke="#2e4369" stroke-linecap="round" stroke-miterlimit="10" stroke-width="2" stroke-linejoin="round"/></svg>