<svg viewBox="0 0 64 64" xmlns="http://www.w3.org/2000/svg" aria-labelledby="title" aria-describedby="desc"><path fill="#ec4744" d="M44.123 17.212A14.919 14.919 0 0 0 37.5 19h-.354a13.06 13.06 0 0 0-12.287 0H24.5a14.934 14.934 0 0 0-6.627-1.788A14.777 14.777 0 0 0 3 31.972C3 38.18 5.541 45.088 11.291 53h39.418C56.459 45.088 59 38.18 59 31.972a14.777 14.777 0 0 0-14.877-14.76z" data-name="layer1"/><path opacity=".2" fill="#fff" d="M43 27c-2-5-5-7-8-8s-2 2 0 6 5 22 8 14 0-12 0-12z" data-name="opacity"/><path opacity=".15" fill="#000064" d="M36.5 50.838C29.476 49.346 24 37.709 24 29.98A15.174 15.174 0 0 1 31.029 17H31a13.219 13.219 0 0 0-6.629 1.786c.081-.157.131-.25.131-.25A14.879 14.879 0 0 0 3 31.856C3 38.064 5.543 45.088 11.293 53H30l-.021-.083A7.159 7.159 0 0 0 31 53a8.862 8.862 0 0 0 5.5-2.162zM11 43c-6.656-11.649 1-20 5-20-3 4-3 14 1 23l2 3s-4 1-8-6z" data-name="opacity"/><path d="M31 16.98V1m14 30.98C45 40.252 38.732 53 31 53S17 40.251 17 31.98 23.268 17 31 17s14 6.708 14 14.98z" stroke-width="2" stroke-linejoin="round" stroke-linecap="round" stroke="#2e4369" fill="none" data-name="stroke"/><path stroke-width="2" stroke-linejoin="round" stroke-linecap="round" stroke="#2e4369" fill="none" d="M24.5 18.535A14.879 14.879 0 0 0 3 31.856C3 38.064 5.541 45.088 11.291 53h39.418C56.459 45.088 59 38.064 59 31.856a14.878 14.878 0 0 0-21.5-13.321M11 60.999h40" data-name="stroke"/></svg>