<svg xmlns="http://www.w3.org/2000/svg" viewBox="0 0 64 64" aria-labelledby="title" aria-describedby="desc"><path data-name="layer2" d="M60.5 20a7.5 7.5 0 0 1-6 3 7.4 7.4 0 0 1-5.8-2.7 7.5 7.5 0 0 0-11 0 7.5 7.5 0 0 1-11.5.1 7.5 7.5 0 0 0-11.1 0A7.5 7.5 0 0 1 3.5 20L10 51h44z" fill="#83edff"/><path data-name="opacity" d="M54.5 23a7.4 7.4 0 0 1-5.8-2.7 7.5 7.5 0 0 0-3.9-2.2L42.1 51h8.1l5.3-28.1z" fill="#fff" opacity=".5"/><path data-name="opacity" d="M9.5 23a7.5 7.5 0 0 1-6-3L10 51h3.9l-3.1-28.1z" fill="#000064" opacity=".15"/><path data-name="stroke" fill="none" stroke="#2e4369" stroke-linecap="round" stroke-miterlimit="10" stroke-width="2" d="M2 13l8 38h44l8-38" stroke-linejoin="round"/><path data-name="stroke" d="M60.5 20a7.5 7.5 0 0 1-6 3 7.4 7.4 0 0 1-5.8-2.7 7.5 7.5 0 0 0-11 0 7.5 7.5 0 0 1-11.5.1 7.5 7.5 0 0 0-11.1 0A7.5 7.5 0 0 1 3.5 20" fill="none" stroke="#2e4369" stroke-linecap="round" stroke-miterlimit="10" stroke-width="2" stroke-linejoin="round"/><circle data-name="layer1" cx="32" cy="31" r="2" fill="#2e4369"/><circle data-name="layer1" cx="44" cy="31" r="2" fill="#2e4369"/><circle data-name="layer1" cx="20" cy="31" r="2" fill="#2e4369"/><circle data-name="layer1" cx="32" cy="42" r="2" fill="#2e4369"/><circle data-name="layer1" cx="44" cy="42" r="2" fill="#2e4369"/><circle data-name="layer1" cx="20" cy="42" r="2" fill="#2e4369"/><circle data-name="stroke" cx="32" cy="31" r="2" fill="none" stroke="#2e4369" stroke-linecap="round" stroke-miterlimit="10" stroke-width="2" stroke-linejoin="round"/><circle data-name="stroke" cx="44" cy="31" r="2" fill="none" stroke="#2e4369" stroke-linecap="round" stroke-miterlimit="10" stroke-width="2" stroke-linejoin="round"/><circle data-name="stroke" cx="20" cy="31" r="2" fill="none" stroke="#2e4369" stroke-linecap="round" stroke-miterlimit="10" stroke-width="2" stroke-linejoin="round"/><circle data-name="stroke" cx="32" cy="42" r="2" fill="none" stroke="#2e4369" stroke-linecap="round" stroke-miterlimit="10" stroke-width="2" stroke-linejoin="round"/><circle data-name="stroke" cx="44" cy="42" r="2" fill="none" stroke="#2e4369" stroke-linecap="round" stroke-miterlimit="10" stroke-width="2" stroke-linejoin="round"/><circle data-name="stroke" cx="20" cy="42" r="2" fill="none" stroke="#2e4369" stroke-linecap="round" stroke-miterlimit="10" stroke-width="2" stroke-linejoin="round"/></svg>