<svg xmlns="http://www.w3.org/2000/svg" viewBox="0 0 64 64" aria-labelledby="title" aria-describedby="desc"><path data-name="layer2" fill="none" stroke="#202020" stroke-linecap="round" stroke-miterlimit="10" stroke-width="2" d="M2 9l8 38h44l8-38" stroke-linejoin="round"/><path data-name="layer2" d="M60.5 16a7.5 7.5 0 0 1-6 3 7.4 7.4 0 0 1-5.8-2.7 7.5 7.5 0 0 0-11 0 7.5 7.5 0 0 1-11.5.1 7.5 7.5 0 0 0-11.1 0A7.5 7.5 0 0 1 3.5 16" fill="none" stroke="#202020" stroke-linecap="round" stroke-miterlimit="10" stroke-width="2" stroke-linejoin="round"/><circle data-name="layer1" cx="32" cy="27" r="2" fill="none" stroke="#202020" stroke-linecap="round" stroke-miterlimit="10" stroke-width="2" stroke-linejoin="round"/><circle data-name="layer1" cx="44" cy="27" r="2" fill="none" stroke="#202020" stroke-linecap="round" stroke-miterlimit="10" stroke-width="2" stroke-linejoin="round"/><circle data-name="layer1" cx="20" cy="27" r="2" fill="none" stroke="#202020" stroke-linecap="round" stroke-miterlimit="10" stroke-width="2" stroke-linejoin="round"/><circle data-name="layer1" cx="32" cy="38" r="2" fill="none" stroke="#202020" stroke-linecap="round" stroke-miterlimit="10" stroke-width="2" stroke-linejoin="round"/><circle data-name="layer1" cx="44" cy="38" r="2" fill="none" stroke="#202020" stroke-linecap="round" stroke-miterlimit="10" stroke-width="2" stroke-linejoin="round"/><circle data-name="layer1" cx="20" cy="38" r="2" fill="none" stroke="#202020" stroke-linecap="round" stroke-miterlimit="10" stroke-width="2" stroke-linejoin="round"/><path data-name="layer1" fill="none" stroke="#202020" stroke-linecap="round" stroke-miterlimit="10" stroke-width="2" d="M8 55h48" stroke-linejoin="round"/></svg>