<svg xmlns="http://www.w3.org/2000/svg" viewBox="0 0 64 64" aria-labelledby="title" aria-describedby="desc"><path data-name="layer4" d="M49 8H30v2H20V8h-9a9 9 0 0 0-9 9v25h38V17a9 9 0 0 1 9-9z" fill="#7bbdff"/><path data-name="layer3" d="M58 18v-1a9 9 0 0 0-18 0v25h18v-8H48V18z" fill="#9cf"/><path data-name="layer2" fill="#f27e7c" d="M20 2h10v8H20z"/><path data-name="layer1" fill="#fff4e3" d="M59.1 34H48V18h13.8l-2.7 16z"/><path data-name="opacity" fill="#000064" opacity=".15" d="M48 18l-8 8v16h5.1l6.9-8h-4V18z"/><path data-name="opacity" d="M30 8v2h-2v4H18V8h-7a9 9 0 0 0-8.8 7h38A9 9 0 0 1 49 8z" fill="#fff" opacity=".25"/><path data-name="opacity" fill="#000064" opacity=".15" d="M28 14v-4h-8V8h-2v6h10z"/><path data-name="stroke" fill="none" stroke="#2e4369" stroke-linecap="round" stroke-miterlimit="10" stroke-width="2" d="M24 42v18m34-26v8H40V17a9 9 0 0 1 9-9 9 9 0 0 1 9 9M30 8h19m-9 34H2V17a9 9 0 0 1 9-9h9" stroke-linejoin="round"/><path data-name="stroke" fill="none" stroke="#2e4369" stroke-linecap="round" stroke-miterlimit="10" stroke-width="2" d="M59.1 34H48V18h13.8l-2.7 16zM20 2h10v8H20zm10 8v8" stroke-linejoin="round"/></svg>