<svg xmlns="http://www.w3.org/2000/svg" viewBox="0 0 64 64" aria-labelledby="title" aria-describedby="desc"><path data-name="layer2" d="M62 32a30 30 0 1 0-48.9 23.3 10.7 10.7 0 0 1 4.1-1.6c8.1-1.5 7.9-4.1 7.9-5.7v-1c-1-1.7-3.2-4.2-4-7.1h.1c-2.5 0-3-5.1-3-5.9s-.1-3.8 2.4-3.8c-1.6-6.5-1.3-13 3.2-13 10.7-7.5 24.9-1.6 19.6 13 2.5 0 2.4 3.1 2.4 3.8s-.6 5.9-3 5.9h-.3a14.6 14.6 0 0 1-4.4 7.1v1c0 1.6.2 4.1 8.3 5.7a12.7 12.7 0 0 1 4.4 1.7A30 30 0 0 0 62 32z" fill="#e0eafc"/><path data-name="layer1" d="M38.1 48v-1a14.6 14.6 0 0 0 4.4-7.1h.1c2.5 0 3.1-5.1 3.1-5.9s.1-3.8-2.4-3.8c5.4-14.6-8.9-20.5-19.5-13-4.4 0-4.8 6.5-3.1 13-2.5 0-2.4 3.1-2.4 3.8s.6 5.9 3 5.9h-.2c.8 2.9 3 5.4 4 7.1v1c0 1.6.2 4.2-7.9 5.7a11.3 11.3 0 0 0-4.2 1.6 30.1 30.1 0 0 0 37.8 0 13.2 13.2 0 0 0-4.5-1.7c-8-1.5-8.2-4-8.2-5.6z" fill="#78d1f4"/><path data-name="opacity" d="M14.6 34.2c-2.5 0-2.4 3.1-2.4 3.8s.6 5.9 3 5.9H15c.8 2.9 3 5.4 4 7.1v1a6.6 6.6 0 0 1-.1 1.3c6.3-1.5 6.1-3.8 6.1-5.3v-1c-1-1.7-3.2-4.2-4-7.1h.1c-2.5 0-3-5.1-3-5.9s-.1-3.8 2.4-3.8c-1-4-1.2-8-.2-10.5l-2.6 1.5c-4.3 0-4.7 6.5-3.1 13z" fill="#000064" opacity=".15"/><path data-name="opacity" d="M17 55.3a11.3 11.3 0 0 1 4.2-1.6c8.1-1.5 7.9-4.1 7.9-5.7v-1c-1-1.7-3.2-4.2-4-7.1h.2c-2.5 0-3-5.1-3-5.9s-.1-3.8 2.4-3.8c-1.6-6.5-1.3-13 3.1-13a17.8 17.8 0 0 1 7.8-3.1 16.7 16.7 0 0 0-11.8 3.1c-4.4 0-4.8 6.5-3.1 13-2.5 0-2.4 3.1-2.4 3.8s.6 5.9 3 5.9h-.2c.8 2.9 3 5.4 4 7.1v1c0 1.6.2 4.2-7.9 5.7a11.3 11.3 0 0 0-4.2 1.6A30 30 0 0 0 31.9 62h2A30 30 0 0 1 17 55.3z" fill="#000064" opacity=".15"/><path data-name="stroke" d="M50.9 55.3a12.2 12.2 0 0 0-4.3-1.7c-8.1-1.5-8.1-4.1-8.1-5.7v-1a14.8 14.8 0 0 0 4.2-7.1c2.5 0 3-5.1 3-5.9s.1-3.8-2.4-3.8c5.4-14.6-8.9-20.5-19.6-13-4.4 0-4.8 6.5-3.1 13-2.5 0-2.4 3.1-2.4 3.8s.6 5.9 3 5.9a14.8 14.8 0 0 0 4.3 7.2v1c0 1.6 0 4.2-8.1 5.7a11.9 11.9 0 0 0-4.3 1.6" fill="none" stroke="#2e4369" stroke-linecap="round" stroke-linejoin="round" stroke-width="2"/><circle data-name="stroke" cx="32" cy="32" r="30" fill="none" stroke="#2e4369" stroke-linecap="round" stroke-linejoin="round" stroke-width="2"/></svg>