<svg xmlns="http://www.w3.org/2000/svg" viewBox="0 0 64 64" aria-labelledby="title" aria-describedby="desc"><path data-name="layer1" d="M63.6 61.6A16.5 16.5 0 0 0 50.3 49c-8.4-1.6-8.4-3.4-8.4-4.6v-2.8a20.1 20.1 0 0 0 4.7-7.9c3.9-1.6 4.2-8.9 4.2-9.1 0-3.9-1.5-5.5-2.9-6.2v-1.9a18.8 18.8 0 0 0-1.2-6.9v-.3a14.2 14.2 0 0 0-5.6-6.8 9.6 9.6 0 0 0-2.8-1.4A17.7 17.7 0 0 0 32 0a17.3 17.3 0 0 0-7.8 1.8 10.1 10.1 0 0 0-4.7 3.8A16.7 16.7 0 0 0 16 16.4v2c-1.4.7-2.9 2.3-2.9 6.3 0 .1.3 7.4 4.2 9a20.1 20.1 0 0 0 4.7 7.9v2.9c0 .1.1 3-8.4 4.5A16.5 16.5 0 0 0 .4 61.6L0 64h64zM20.4 30h-1.6c-.7 0-1.7-3.5-1.8-5.3 0-2.6.7-2.6.9-2.6h2v-2.2c6-.5 9-2.9 11.5-5S35.1 12 38 12a5.6 5.6 0 0 1 4.6 1.9 6.7 6.7 0 0 1 1.3 2.7V22h2c.3 0 .9 0 .9 2.6 0 1.8-1.1 5.3-1.8 5.3h-1.4l-.4 1.5a15.3 15.3 0 0 1-6.2 9.2 2 2 0 0 0 1 3.7 6.2 6.2 0 0 0 1.3 4.3l-7.3 10-7.3-9.9a6 6 0 0 0 1.3-4.3 2 2 0 0 0 1-3.7 15.3 15.3 0 0 1-6.3-9.1z" fill="#202020"/></svg>