<svg viewBox="0 0 64 64" xmlns="http://www.w3.org/2000/svg" aria-labelledby="title" aria-describedby="desc"><path fill="#f26161" d="M32 2a22 22 0 0 0-6 43.1L32 60l6-14.8A22 22 0 0 0 32 2zm0 34a12 12 0 1 1 12-12 12 12 0 0 1-12 12z" data-name="layer1"/><path opacity=".2" fill="#000032" d="M14 23c0-9.2 4.6-17 12.6-20.3a22 22 0 0 0-.6 42.4L32 60l-3-15.9c-9.2-2.6-15-11-15-21.1z" data-name="opacity"/><path opacity=".25" fill="#fff" d="M20 24a11.9 11.9 0 0 1 2.6-7.4 12 12 0 1 0 16.8 16.8A12 12 0 0 1 20 24z" data-name="opacity"/><path stroke-width="2" stroke-miterlimit="10" stroke-linecap="round" stroke="#2e4369" fill="none" d="M54 24a22 22 0 1 0-28 21.1L32 60l6-14.8A22 22 0 0 0 54 24z" data-name="stroke" stroke-linejoin="round"/><circle stroke-width="2" stroke-miterlimit="10" stroke-linecap="round" stroke="#2e4369" fill="none" r="12" cy="24" cx="32" data-name="stroke" stroke-linejoin="round"/></svg>