<svg xmlns="http://www.w3.org/2000/svg" viewBox="0 0 64 64" aria-labelledby="title" aria-describedby="desc"><path data-name="layer2" d="M37.9 46.2a69.2 69.2 0 0 1-6 6.2 69.2 69.2 0 0 1-6-6.2c-12.6.8-22 4-22 7.8s12.5 8 28 8 28-3.6 28-8-9.4-7-22-7.8z" fill="#f26161"/><path data-name="layer1" d="M31.9 2a18.1 18.1 0 0 0-18 18.1c0 10 6.8 19.9 12.1 26.1a69.2 69.2 0 0 0 6 6.2 69.2 69.2 0 0 0 6-6.2c5.2-6.1 12-16 12-26.1A18.1 18.1 0 0 0 31.9 2zm0 24a6 6 0 1 1 6-6 6 6 0 0 1-6 6z" fill="#c3d6f9"/><path data-name="opacity" d="M28 45.2c-5.3-6.1-12.1-16-12.1-26.1A18.1 18.1 0 0 1 25 3.4a18.1 18.1 0 0 0-11.1 16.7c0 10 6.8 19.9 12.1 26.1a69.2 69.2 0 0 0 6 6.2l1.5-1.4a74 74 0 0 1-5.5-5.8z" fill="#000032" opacity=".2"/><path data-name="opacity" d="M31.9 52.4a69.2 69.2 0 0 1-6-6.2c-9.2.6-16.7 2.4-20.1 4.9a156.1 156.1 0 0 0 26.1 1.3z" fill="#000032" opacity=".2"/><path data-name="stroke" d="M38 46.2c12.6.8 22 4 22 7.8s-12.5 8-28 8-28-3.6-28-8 9.4-7 22-7.8" fill="none" stroke="#2e4369" stroke-linecap="round" stroke-linejoin="round" stroke-width="2"/><path data-name="stroke" d="M32.1 2A18.1 18.1 0 0 0 14 20.1c0 16.3 18.1 32.3 18.1 32.3s18-16 18-32.3A18.1 18.1 0 0 0 32.1 2z" fill="none" stroke="#2e4369" stroke-linecap="round" stroke-linejoin="round" stroke-width="2"/><ellipse data-name="stroke" cx="32.1" cy="20" rx="6" ry="6" fill="none" stroke="#2e4369" stroke-linecap="round" stroke-linejoin="round" stroke-width="2"/></svg>