<svg xmlns="http://www.w3.org/2000/svg" viewBox="0 0 64 64" aria-labelledby="title" aria-describedby="desc"><path data-name="layer1" d="M56 53a2 2 0 0 0-2 2 4 4 0 0 1-8 .1 2 2 0 0 0-2-2 2 2 0 0 0-2 2 4 4 0 0 1-8-.1 2 2 0 0 0-2-2 2 2 0 0 0-2 2 4 4 0 0 1-8 .1 2 2 0 0 0-2-2 2 2 0 0 0-2 2 4 4 0 0 1-8-.1 2 2 0 1 0-4 0 8 8 0 0 0 14 5.3 8 8 0 0 0 12 0 8 8 0 0 0 12 0A8 8 0 0 0 58 55a2 2 0 0 0-2-2z" fill="#202020"/><path data-name="layer2" d="M10.4 31l3-.5a96.2 96.2 0 0 0 4.5 19.1 5.9 5.9 0 0 1 2.1-.4 6 6 0 0 1 6 5.8 6 6 0 0 1 4-5.7v-26h4v26a6 6 0 0 1 4 5.7 6 6 0 0 1 6-5.9 5.9 5.9 0 0 1 2.1.4 96.4 96.4 0 0 0 4.5-19.1l3 .5h.4a2 2 0 0 0 .4-4L46 25.5V14.9a1.9 1.9 0 0 0-1.9-1.9H19.9a1.9 1.9 0 0 0-1.9 1.9v10.6L9.6 27a2 2 0 0 0 .7 3.9zM26 17h12a2 2 0 0 1 0 4H26a2 2 0 0 1 0-4z" fill="#202020"/><path data-name="layer1" fill="#202020" d="M28 1h8v8h-8z"/></svg>