<svg xmlns="http://www.w3.org/2000/svg" viewBox="0 0 64 64" aria-labelledby="title" aria-describedby="desc"><path data-name="layer1" d="M32 2A24 24 0 0 0 8 26c0 .8 0 1.6.1 2.3v.3C10.1 47.6 32 62 32 62s21.9-14.6 23.8-33.3v-.4c.1-.8.1-1.5.1-2.3A24 24 0 0 0 32 2zm0 36a12 12 0 1 1 12-12 12 12 0 0 1-12 12z" fill="#f26161"/><path data-name="opacity" d="M11.2 27.6v-.3c-.1-.8-.1-1.5-.1-2.3A24 24 0 0 1 26 2.8 24 24 0 0 0 8 26c0 .8 0 1.6.1 2.3v.3C10.1 47.6 32 62 32 62l2.2-1.6c-4-2.8-21.4-16-23-32.8z" fill="#000032" opacity=".2"/><path data-name="opacity" d="M20 26a12 12 0 0 1 3.9-8.9A12 12 0 1 0 37 36.9 12 12 0 0 1 20 26z" fill="#fff" opacity=".25"/><path data-name="stroke" d="M55.9 28.3c.1-.8.1-1.5.1-2.3a24 24 0 0 0-48 0c0 .8 0 1.6.1 2.3v.3C10.1 47.6 32 62 32 62s21.9-14.6 23.8-33.3z" fill="none" stroke="#2e4369" stroke-linecap="round" stroke-linejoin="round" stroke-width="2"/><circle data-name="stroke" cx="32" cy="26" r="12" fill="none" stroke="#2e4369" stroke-linecap="round" stroke-linejoin="round" stroke-width="2"/></svg>