<svg xmlns="http://www.w3.org/2000/svg" viewBox="0 0 64 64" aria-labelledby="title" aria-describedby="desc"><path data-name="layer2" d="M48 7a13.9 13.9 0 0 0-9.3 3.5A16 16 0 0 1 47.9 25c0 5.3-2.2 11.1-5 16.3A61 61 0 0 0 48 47s14-13.4 14-26A14 14 0 0 0 48 7zm-22.8 3.5A14 14 0 0 0 2 21c0 12.6 14 26 14 26a61 61 0 0 0 4.9-5.5c-2.8-5.2-5.1-11.1-5.1-16.5a16 16 0 0 1 9.4-14.5z" fill="#d34545"/><path data-name="layer1" d="M38.7 10.6A16 16 0 0 0 15.9 25c0 5.4 2.3 11.3 5.1 16.5A88.9 88.9 0 0 0 31.9 57a88.9 88.9 0 0 0 11-15.7c2.8-5.2 5-10.9 5-16.3a16 16 0 0 0-9.2-14.4zM32 31a6 6 0 1 1 6-6 6 6 0 0 1-6 6z" fill="#f26161"/><path data-name="opacity" d="M15.9 25a15.9 15.9 0 0 1 5.7-12.2A16 16 0 0 0 12.9 27c0 5.4 2.3 11.3 5.1 16.5l.5.9 2.5-2.9c-2.9-5.2-5.1-11.1-5.1-16.5z" fill="#000032" opacity=".2"/><path data-name="stroke" d="M31.9 9a16 16 0 0 0-16 16c0 14.4 16 32 16 32s16-17.6 16-32a16 16 0 0 0-16-16z" fill="none" stroke="#2e4369" stroke-linecap="round" stroke-linejoin="round" stroke-width="2"/><path data-name="stroke" d="M42.9 41.3A61 61 0 0 0 48 47s14-13.4 14-26a14 14 0 0 0-23.3-10.5m-13.5-.1A14 14 0 0 0 2 21c0 12.6 14 26 14 26a61 61 0 0 0 4.9-5.5" fill="none" stroke="#2e4369" stroke-linecap="round" stroke-linejoin="round" stroke-width="2"/><circle data-name="stroke" cx="32" cy="25" r="6" fill="none" stroke="#2e4369" stroke-linecap="round" stroke-linejoin="round" stroke-width="2"/></svg>