<svg xmlns="http://www.w3.org/2000/svg" viewBox="0 0 64 64" aria-labelledby="title" aria-describedby="desc"><path data-name="layer1" d="M59 42a3 3 0 0 0-3 3v6.757l-13-13A3 3 0 0 0 38.757 43l13 13H45a3 3 0 0 0 0 6h17V45a3 3 0 0 0-3-3zM45 2a3 3 0 0 0 0 6h6.758l-13 13A3 3 0 1 0 43 25.242l13-12.999V19a3 3 0 0 0 6 0V2zM12.243 8H19a3 3 0 0 0 0-6H2v17a3 3 0 0 0 6 0v-6.758l13 13.001A3 3 0 1 0 25.242 21zM21 38.757l-13 13V45a3 3 0 0 0-6 0v17h17a3 3 0 0 0 0-6h-6.757l13-13A3 3 0 0 0 21 38.757z" fill="#bacae9"/><path data-name="stroke" d="M59 42a3 3 0 0 0-3 3v6.757l-13-13A3 3 0 0 0 38.757 43l13 13H45a3 3 0 0 0 0 6h17V45a3 3 0 0 0-3-3zM45 2a3 3 0 0 0 0 6h6.758l-13 13A3 3 0 1 0 43 25.242l13-12.999V19a3 3 0 0 0 6 0V2zM12.243 8H19a3 3 0 0 0 0-6H2v17a3 3 0 0 0 6 0v-6.758l13 13.001A3 3 0 1 0 25.242 21zM21 38.757l-13 13V45a3 3 0 0 0-6 0v17h17a3 3 0 0 0 0-6h-6.757l13-13A3 3 0 0 0 21 38.757z" fill="none" stroke="#2e4369" stroke-linecap="round" stroke-linejoin="round" stroke-width="2"/></svg>