<svg xmlns="http://www.w3.org/2000/svg" viewBox="0 0 64 64" aria-labelledby="title" aria-describedby="desc"><path data-name="layer1" d="M40 6c-9.6 0-16.2 2-22 10S2 24.9 2 38s13.2 20 26 20 34-5.5 34-26S48.2 6 40 6zM28 50c-11.1 0-18-4.5-18-12a10.1 10.1 0 0 1 3.5-7.5C16.1 28 20.8 24.7 24 20s7.4-6 16-6 14 7 14 18c0 14.1-14.7 18-26 18z" fill="#fff4e8"/><path data-name="opacity" d="M30 55C17.2 55 4 48.1 4 35a16.9 16.9 0 0 1 1.6-7.7C3.5 29.8 2 33 2 38c0 13.1 13.2 20 26 20 10 0 25.1-3.3 31.3-14.6C52.3 52.3 39 55 30 55z" fill="#101129" opacity=".18"/><path data-name="layer2" d="M40 14c-8.6 0-13.5 2.3-16 6s-7.9 8-10.5 10.5A10.1 10.1 0 0 0 10 38c0 7.5 6.9 12 18 12s26-3.9 26-18c0-11-5.5-18-14-18zm0 22a6 6 0 1 1 6-6 6 6 0 0 1-6 6z" fill="#f04848"/><circle data-name="layer1" cx="40" cy="30" r="6" fill="#fff4e8"/><path data-name="stroke" d="M40 6c-9.6 0-16.2 2-22 10S2 24.9 2 38s13.2 20 26 20 34-5.5 34-26S48.2 6 40 6z" fill="none" stroke="#2f446a" stroke-linecap="round" stroke-linejoin="round" stroke-width="2"/><path data-name="stroke" d="M40 14c-8.6 0-13.5 2.3-16 6s-7.9 8-10.5 10.5A10.1 10.1 0 0 0 10 38c0 7.5 6.9 12 18 12s26-3.9 26-18c0-11-5.5-18-14-18z" fill="none" stroke="#2f446a" stroke-linecap="round" stroke-linejoin="round" stroke-width="2"/><circle data-name="stroke" cx="40" cy="30" r="6" fill="none" stroke="#2f446a" stroke-linecap="round" stroke-linejoin="round" stroke-width="2"/></svg>