<svg xmlns="http://www.w3.org/2000/svg" viewBox="0 0 64 64" aria-labelledby="title" aria-describedby="desc"><path data-name="layer1" d="M37.2 33.1L9 61.4a2 2 0 0 1-2.8 0l-2.9-2.8a2 2 0 0 1 0-2.8l28.3-28.3" fill="#de9473"/><path data-name="opacity" d="M31.6 27.5l-2 2 3.7 3.7L5.5 60.8l.6.6a2 2 0 0 0 2.8 0l28.3-28.3z" fill="#101129" opacity=".25"/><path data-name="layer1" fill="#de9473" d="M37.2 2v8.5l-7.7-.7.7 7.8h-8.5l24 24 15.6-15.5L37.2 2z"/><path data-name="opacity" fill="#fff" opacity=".25" d="M58.3 29.1l3-3L37.2 2v6l21.1 21.1z"/><path data-name="stroke" d="M37.2 33.1L9 61.4a2 2 0 0 1-2.8 0l-2.9-2.8a2 2 0 0 1 0-2.8l28.3-28.3" fill="none" stroke="#2f446a" stroke-linecap="round" stroke-linejoin="round" stroke-width="2"/><path data-name="stroke" fill="none" stroke="#2f446a" stroke-linecap="round" stroke-linejoin="round" stroke-width="2" d="M37.2 2v8.5l-7.7-.7.7 7.8h-8.5l24 24L61.3 26 37.2 2z"/></svg>