<svg xmlns="http://www.w3.org/2000/svg" viewBox="0 0 64 64" aria-labelledby="title" aria-describedby="desc"><rect data-name="layer1" x="7" y="2" width="50" height="60" rx="4" ry="4" fill="none" stroke="#202020" stroke-linecap="round" stroke-miterlimit="10" stroke-width="2" stroke-linejoin="round"/><rect data-name="layer2" x="13" y="7" width="16" height="8" rx="4" ry="4" fill="none" stroke="#202020" stroke-linecap="round" stroke-miterlimit="10" stroke-width="2" stroke-linejoin="round"/><rect data-name="layer2" x="13" y="21" width="16" height="8" rx="4" ry="4" fill="none" stroke="#202020" stroke-linecap="round" stroke-miterlimit="10" stroke-width="2" stroke-linejoin="round"/><rect data-name="layer2" x="13" y="35" width="16" height="8" rx="4" ry="4" fill="none" stroke="#202020" stroke-linecap="round" stroke-miterlimit="10" stroke-width="2" stroke-linejoin="round"/><rect data-name="layer2" x="13" y="49" width="16" height="8" rx="4" ry="4" fill="none" stroke="#202020" stroke-linecap="round" stroke-miterlimit="10" stroke-width="2" stroke-linejoin="round"/><rect data-name="layer2" x="35" y="7" width="16" height="8" rx="4" ry="4" fill="none" stroke="#202020" stroke-linecap="round" stroke-miterlimit="10" stroke-width="2" stroke-linejoin="round"/><rect data-name="layer2" x="35" y="21" width="16" height="8" rx="4" ry="4" fill="none" stroke="#202020" stroke-linecap="round" stroke-miterlimit="10" stroke-width="2" stroke-linejoin="round"/><rect data-name="layer2" x="35" y="35" width="16" height="8" rx="4" ry="4" fill="none" stroke="#202020" stroke-linecap="round" stroke-miterlimit="10" stroke-width="2" stroke-linejoin="round"/><rect data-name="layer1" x="35" y="49" width="16" height="8" rx="4" ry="4" fill="none" stroke="#202020" stroke-linecap="round" stroke-miterlimit="10" stroke-width="2" stroke-linejoin="round"/><path data-name="layer2" fill="none" stroke="#202020" stroke-linecap="round" stroke-miterlimit="10" stroke-width="2" d="M21 7v8m22-8v8m-22 6v8m22-8v8m-22 6v8m22-8v8m-22 6v8" stroke-linejoin="round"/><path data-name="layer1" fill="none" stroke="#202020" stroke-linecap="round" stroke-miterlimit="10" stroke-width="2" d="M43 49v8" stroke-linejoin="round"/></svg>