<svg xmlns="http://www.w3.org/2000/svg" viewBox="0 0 64 64" aria-labelledby="title" aria-describedby="desc"><rect data-name="layer3" x="7" y="2" width="50" height="60" rx="4" ry="4" fill="#9dbde4"/><path data-name="layer1" d="M29 11a4.012 4.012 0 0 0-4-4h-4v8h4a4.012 4.012 0 0 0 4-4z" fill="#cbe5ff"/><path data-name="layer2" d="M17 7a4 4 0 0 0 0 8h4V7z" fill="#f4475d"/><path data-name="layer1" d="M25 29a4 4 0 0 0 0-8h-4v8z" fill="#cbe5ff"/><path data-name="layer2" d="M13 25a4.012 4.012 0 0 0 4 4h4v-8h-4a4.012 4.012 0 0 0-4 4zm0 14a4.012 4.012 0 0 0 4 4h4v-8h-4a4.012 4.012 0 0 0-4 4z" fill="#f4475d"/><path data-name="layer1" d="M25 43a4 4 0 0 0 0-8h-4v8zm0 14a4 4 0 0 0 0-8h-4v8z" fill="#cbe5ff"/><path data-name="layer2" d="M13 53a4.012 4.012 0 0 0 4 4h4v-8h-4a4.012 4.012 0 0 0-4 4zM39 7a4 4 0 0 0 0 8h4V7z" fill="#f4475d"/><path data-name="layer1" d="M51 11a4.012 4.012 0 0 0-4-4h-4v8h4a4.012 4.012 0 0 0 4-4z" fill="#cbe5ff"/><path data-name="layer2" d="M39 21a4 4 0 0 0 0 8h4v-8z" fill="#f4475d"/><path data-name="layer1" d="M51 25a4.012 4.012 0 0 0-4-4h-4v8h4a4.012 4.012 0 0 0 4-4zm-4 18a4 4 0 0 0 0-8h-4v8z" fill="#cbe5ff"/><path data-name="layer2" d="M35 39a4.012 4.012 0 0 0 4 4h4v-8h-4a4.012 4.012 0 0 0-4 4zm0 14a4.012 4.012 0 0 0 4 4h4v-8h-4a4.012 4.012 0 0 0-4 4z" fill="#f4475d"/><path data-name="layer1" d="M47 57a4 4 0 0 0 0-8h-4v8z" fill="#cbe5ff"/><path data-name="opacity" d="M37 32h8a4 4 0 0 0 3.953-3.533A3.942 3.942 0 0 1 47 29h-8a4.012 4.012 0 0 1-4-4 3.9 3.9 0 0 1 .047-.467A3.985 3.985 0 0 0 37 32zm0 14h8a4 4 0 0 0 3.953-3.533A3.942 3.942 0 0 1 47 43h-8a4.012 4.012 0 0 1-4-4 3.9 3.9 0 0 1 .047-.467A3.985 3.985 0 0 0 37 46zm0-28h8a4 4 0 0 0 3.953-3.533A3.942 3.942 0 0 1 47 15h-8a4.012 4.012 0 0 1-4-4 3.9 3.9 0 0 1 .047-.467A3.985 3.985 0 0 0 37 18zm-22 0h8a4 4 0 0 0 3.953-3.533A3.942 3.942 0 0 1 25 15h-8a4.012 4.012 0 0 1-4-4 3.9 3.9 0 0 1 .047-.467A3.985 3.985 0 0 0 15 18zm10 39h-8a4.012 4.012 0 0 1-4-4 3.9 3.9 0 0 1 .047-.467A3.985 3.985 0 0 0 15 60h8a4 4 0 0 0 3.953-3.533A3.942 3.942 0 0 1 25 57zM15 32h8a4 4 0 0 0 3.953-3.533A3.942 3.942 0 0 1 25 29h-8a4.012 4.012 0 0 1-4-4 3.9 3.9 0 0 1 .047-.467A3.985 3.985 0 0 0 15 32zm32 25h-8a4.012 4.012 0 0 1-4-4 3.9 3.9 0 0 1 .047-.467A3.985 3.985 0 0 0 37 60h8a4 4 0 0 0 3.953-3.533A3.942 3.942 0 0 1 47 57zM15 46h8a4 4 0 0 0 3.953-3.533A3.942 3.942 0 0 1 25 43h-8a4.012 4.012 0 0 1-4-4 3.9 3.9 0 0 1 .047-.467A3.985 3.985 0 0 0 15 46z" fill="#000064" opacity=".16"/><rect data-name="stroke" x="7" y="2" width="50" height="60" rx="4" ry="4" fill="none" stroke="#2e4369" stroke-linecap="round" stroke-miterlimit="10" stroke-width="2" stroke-linejoin="round"/><rect data-name="stroke" x="13" y="7" width="16" height="8" rx="4" ry="4" fill="none" stroke="#2e4369" stroke-linecap="round" stroke-miterlimit="10" stroke-width="2" stroke-linejoin="round"/><rect data-name="stroke" x="13" y="21" width="16" height="8" rx="4" ry="4" fill="none" stroke="#2e4369" stroke-linecap="round" stroke-miterlimit="10" stroke-width="2" stroke-linejoin="round"/><rect data-name="stroke" x="13" y="35" width="16" height="8" rx="4" ry="4" fill="none" stroke="#2e4369" stroke-linecap="round" stroke-miterlimit="10" stroke-width="2" stroke-linejoin="round"/><rect data-name="stroke" x="13" y="49" width="16" height="8" rx="4" ry="4" fill="none" stroke="#2e4369" stroke-linecap="round" stroke-miterlimit="10" stroke-width="2" stroke-linejoin="round"/><rect data-name="stroke" x="35" y="7" width="16" height="8" rx="4" ry="4" fill="none" stroke="#2e4369" stroke-linecap="round" stroke-miterlimit="10" stroke-width="2" stroke-linejoin="round"/><rect data-name="stroke" x="35" y="21" width="16" height="8" rx="4" ry="4" fill="none" stroke="#2e4369" stroke-linecap="round" stroke-miterlimit="10" stroke-width="2" stroke-linejoin="round"/><rect data-name="stroke" x="35" y="35" width="16" height="8" rx="4" ry="4" fill="none" stroke="#2e4369" stroke-linecap="round" stroke-miterlimit="10" stroke-width="2" stroke-linejoin="round"/><rect data-name="stroke" x="35" y="49" width="16" height="8" rx="4" ry="4" fill="none" stroke="#2e4369" stroke-linecap="round" stroke-miterlimit="10" stroke-width="2" stroke-linejoin="round"/><path data-name="stroke" fill="none" stroke="#2e4369" stroke-linecap="round" stroke-miterlimit="10" stroke-width="2" d="M21 7v8m22-8v8m-22 6v8m22-8v8m-22 6v8m22-8v8m-22 6v8m22-8v8" stroke-linejoin="round"/></svg>