<svg xmlns="http://www.w3.org/2000/svg" viewBox="0 0 64 64" aria-labelledby="title" aria-describedby="desc"><path data-name="layer2" d="M60 25v29c0 3.314-4.686 6-8 6H10a6 6 0 0 1-6-6V25z" fill="#cbe5ff"/><path data-name="layer3" fill="#f4475d" d="M43 39h-8v-8h-6v8h-8v6h8v8h6v-8h8v-6z"/><path data-name="layer2" d="M61 25a1 1 0 0 0 1-1v-8a4 4 0 0 0-4-4H6a4 4 0 0 0-4 4v8a1 1 0 0 0 1 1z" fill="#cbe5ff"/><path data-name="opacity" d="M60 31v-6H10a1 1 0 0 1-1-1v-8a4 4 0 0 1 4-4H6a4 4 0 0 0-4 4v8a1 1 0 0 0 1 1h1v29a6 6 0 0 0 6 6h42a9.875 9.875 0 0 0 6.679-3H11a2 2 0 0 1-2-2V31z" fill="#000064" opacity=".16"/><rect data-name="layer1" x="10" y="21" width="6" height="8" rx="1" ry="1" fill="#9cf"/><rect data-name="layer1" x="48" y="21" width="6" height="8" rx="1" ry="1" fill="#9cf"/><path data-name="stroke" fill="none" stroke="#2e4369" stroke-linecap="round" stroke-miterlimit="10" stroke-width="2" d="M43 39h-8v-8h-6v8h-8v6h8v8h6v-8h8v-6z" stroke-linejoin="round"/><path data-name="stroke" d="M60 25v29c0 3.314-4.686 6-8 6H10a6 6 0 0 1-6-6V25m19-13V8a4 4 0 0 1 4-4h10a4 4 0 0 1 4 4v4" fill="none" stroke="#2e4369" stroke-linecap="round" stroke-miterlimit="10" stroke-width="2" stroke-linejoin="round"/><rect data-name="stroke" x="10" y="21" width="6" height="8" rx="1" ry="1" fill="none" stroke="#2e4369" stroke-linecap="round" stroke-miterlimit="10" stroke-width="2" stroke-linejoin="round"/><rect data-name="stroke" x="48" y="21" width="6" height="8" rx="1" ry="1" fill="none" stroke="#2e4369" stroke-linecap="round" stroke-miterlimit="10" stroke-width="2" stroke-linejoin="round"/><path data-name="stroke" d="M54 25h7a1 1 0 0 0 1-1v-8a4 4 0 0 0-4-4H6a4 4 0 0 0-4 4v8a1 1 0 0 0 1 1h7m6 0h32" fill="none" stroke="#2e4369" stroke-linecap="round" stroke-miterlimit="10" stroke-width="2" stroke-linejoin="round"/></svg>