<svg xmlns="http://www.w3.org/2000/svg" viewBox="0 0 64 64" aria-labelledby="title" aria-describedby="desc"><path data-name="layer3" d="M54 7H42.121A4.844 4.844 0 0 1 44 11v3H20v-3a4.839 4.839 0 0 1 1.84-4H10a2 2 0 0 0-2 2v51a2 2 0 0 0 2 2h44a2 2 0 0 0 2-2V9a2 2 0 0 0-2-2z" fill="#a56660"/><path data-name="layer2" d="M39 6h-2.1a5 5 0 0 0-9.8 0H25a4.724 4.724 0 0 0-5 5v3h24v-3a4.774 4.774 0 0 0-5-5z" fill="#8695b6"/><path data-name="layer1" fill="#e1eef9" d="M44 12h6v44H14V12h6v2h24v-2z"/><path data-name="opacity" d="M17 14v3h24v-3H20v-3a5.691 5.691 0 0 1 .258-1.725A4.659 4.659 0 0 0 17 14zm-3 1h-3v44h36v-3H14V15z" fill="#000064" opacity=".16"/><path data-name="stroke" d="M14 36.041h4.593a.5.5 0 0 0 .39-.188l3.437-4.3a.5.5 0 0 1 .8.022l4.166 5.833a.5.5 0 0 0 .839-.039l6.1-10.459a.5.5 0 0 1 .894.062l6.2 15.049a.5.5 0 0 0 .91.033l3.371-6.737a.5.5 0 0 1 .447-.276H50" fill="none" stroke="#2e4369" stroke-linecap="round" stroke-miterlimit="10" stroke-width="2" stroke-linejoin="round"/><path data-name="stroke" fill="none" stroke="#2e4369" stroke-linecap="round" stroke-miterlimit="10" stroke-width="2" d="M20 12h-6v44h36V12h-6" stroke-linejoin="round"/><path data-name="stroke" d="M42.156 7H54a2 2 0 0 1 2 2v51a2 2 0 0 1-2 2H10a2 2 0 0 1-2-2V9a2 2 0 0 1 2-2h11.807" fill="none" stroke="#2e4369" stroke-linecap="round" stroke-miterlimit="10" stroke-width="2" stroke-linejoin="round"/><path data-name="stroke" d="M39 6h-2.1a5 5 0 0 0-9.8 0H25a4.724 4.724 0 0 0-5 5v3h24v-3a4.774 4.774 0 0 0-5-5z" fill="none" stroke="#2e4369" stroke-linecap="round" stroke-miterlimit="10" stroke-width="2" stroke-linejoin="round"/></svg>