<svg xmlns="http://www.w3.org/2000/svg" viewBox="0 0 64 64" aria-labelledby="title" aria-describedby="desc"><path data-name="layer2" d="M58.891 47.036c-1.313-.9-9.191-6.012-10.4-6.807a4.833 4.833 0 0 0-6.53 1.278c-2.351 2.9-5.253 7.741-16.239-3.246s-6.152-13.889-3.249-16.239a4.834 4.834 0 0 0 1.279-6.531c-.795-1.209-5.909-9.088-6.808-10.4S14.83 1.644 12.02 2.049c-2.083.3-10.038 4.527-10.038 13.511s7.083 20.008 16.757 29.682S39.436 62 48.42 62s13.211-7.957 13.512-10.04c.405-2.809-1.732-4.025-3.041-4.924z" fill="none" stroke="#202020" stroke-linecap="round" stroke-miterlimit="10" stroke-width="2" stroke-linejoin="round"/><circle data-name="layer1" cx="46" cy="17.994" r="16" fill="none" stroke="#202020" stroke-linecap="round" stroke-miterlimit="10" stroke-width="2" stroke-linejoin="round"/><path data-name="layer1" fill="none" stroke="#202020" stroke-linecap="round" stroke-miterlimit="10" stroke-width="2" d="M54 14.994h-5v-5h-6v5h-5v6h5v5h6v-5h5v-6z" stroke-linejoin="round"/></svg>