<svg xmlns="http://www.w3.org/2000/svg" viewBox="0 0 64 64" aria-labelledby="title" aria-describedby="desc"><path data-name="layer4" fill="#e1eef9" d="M18 2v60h44V16L48 2H18z"/><path data-name="opacity" fill="#fff" opacity=".5" d="M62 16H48V2l14 14z"/><path data-name="opacity" fill="#000064" opacity=".16" d="M26 26h28v30H26z"/><path data-name="layer3" fill="#f4475d" d="M38 12h-4V8h-4v4h-4v4h4v4h4v-4h4v-4z"/><path data-name="layer2" d="M8 7a3 3 0 0 0-6 0v45h6z" fill="#536897"/><path data-name="layer1" d="M2 52v1.974a5 5 0 0 0 .4 1.97l2.5 5.842a.1.1 0 0 0 .184 0l2.5-5.842a5 5 0 0 0 .4-1.97V52z" fill="#8695b6"/><path data-name="opacity" d="M2 7v46.974a5 5 0 0 0 .4 1.97l2.5 5.842a.1.1 0 0 0 .1.06V4a3 3 0 0 0-3 3zm46-5l-4 21 18-7H48V2z" fill="#000064" opacity=".16"/><path data-name="stroke" fill="none" stroke="#2e4369" stroke-linecap="round" stroke-miterlimit="10" stroke-width="2" d="M18 2v60h44V16L48 2H18z" stroke-linejoin="round"/><path data-name="stroke" fill="none" stroke="#2e4369" stroke-linecap="round" stroke-miterlimit="10" stroke-width="2" d="M48 2v14h14M26 26h28v30H26zm10 0v30M26 36h28M26 46h28M38 12h-4V8h-4v4h-4v4h4v4h4v-4h4v-4zM7.6 55.943l-2.5 5.842a.1.1 0 0 1-.184 0L2.4 55.943a5 5 0 0 1-.4-1.97V7a3 3 0 0 1 3-3 3 3 0 0 1 3 3v46.974a5 5 0 0 1-.4 1.969z" stroke-linejoin="round"/><path data-name="stroke" d="M2 9h8a2 2 0 0 1 2 2v14M2 52h6" fill="none" stroke="#2e4369" stroke-linecap="round" stroke-miterlimit="10" stroke-width="2" stroke-linejoin="round"/></svg>