<svg xmlns="http://www.w3.org/2000/svg" viewBox="0 0 64 64" aria-labelledby="title" aria-describedby="desc"><path data-name="layer2" d="M22.539 28.376l.02-.069c.125-.44.281-.987.492-1.622C24 23.841 27 16.824 34.4 13.1l5.153-2.48C37.92 7.131 32.779 5.9 29 7V5a2 2 0 0 0-2-2h-3a2 2 0 0 0-2 2v6s-5 4-3 12a10.358 10.358 0 0 0 3.539 5.376z" fill="#202020"/><path data-name="layer2" d="M57.284 47.563c-.785-2.736-2.546-7.64-3.716-10.829C49.184 35.805 38 32.861 38 27c0-2.679 1.278-6.085 6.852-8.125C48.786 17.333 51 16.25 52 14.688s-.083-2.771-3.167-4.6-8.75 2.5-13.531 4.8c-6.593 3.312-9.372 9.483-10.354 12.428a36.084 36.084 0 0 0-.466 1.537 11.412 11.412 0 0 1-1.6 3.7 13.538 13.538 0 0 1-3 2.555A51.213 51.213 0 0 0 9.858 44.27C14.456 54.935 29.626 63.88 43.619 64h.237c5.364 0 9.279-1.572 11.637-4.674 2.769-3.643 2.695-8.614 1.791-11.763z" fill="#202020"/><path data-name="layer1" d="M47.027 20.276C42.362 21.565 40 23.821 40 27s6.224 5.98 12.743 7.5l-.232-.62c.065-1.447.106-9.031-5.484-13.604zM17.06 23.485a18.124 18.124 0 0 1-.436-2.436 30.141 30.141 0 0 0-4.364 4.519c-.7.688-6.272 6.572-3.2 16.53A54.279 54.279 0 0 1 18.7 33.5a14.987 14.987 0 0 0 2.516-2.055 8.544 8.544 0 0 0 .606-1.061l-.564-.471a12.33 12.33 0 0 1-4.198-6.428zM30.984 4.637q.43-.029.869-.029c4.158 0 7.76 1.9 9.33 4.847q.411-.207.817-.4V3a3 3 0 0 0-3-3H29a2.982 2.982 0 0 0-2.22 1H27a4.006 4.006 0 0 1 3.984 3.637zM15.34 19.515a1.994 1.994 0 0 1 1.195-.458A13.29 13.29 0 0 1 20 10.153V7.006L19 7a7.008 7.008 0 0 0-7 7v8.769a31.8 31.8 0 0 1 3.34-3.254z" fill="#202020"/></svg>