<svg xmlns="http://www.w3.org/2000/svg" viewBox="0 0 64 64" aria-labelledby="title" aria-describedby="desc"><path data-name="layer3" d="M40 35c-9.389 0-17 4.533-17 10.125v6.75C23 57.467 30.611 62 40 62s17-4.533 17-10.125v-6.75C57 39.533 49.389 35 40 35z" fill="#9ecfff"/><path data-name="opacity" d="M30.438 36.755l17.393 17.351a20.626 20.626 0 0 0 2.95-1.154L33.547 35.76a22.466 22.466 0 0 0-3.109.995z" fill="#000064" opacity=".16"/><path data-name="opacity" d="M40 55.25c-9.389 0-17-4.533-17-10.125v6.75C23 57.467 30.611 62 40 62s17-4.533 17-10.125v-6.75c0 5.592-7.611 10.125-17 10.125z" fill="#000064" opacity=".16"/><path data-name="layer2" d="M9.52 29.413A12.065 12.065 0 0 0 23 48.95v-3.825c0-5.186 6.551-9.455 14.992-10.048v-.006l.538-.538-17.063-17.067z" fill="#cbe5ff"/><path data-name="opacity" d="M23 48.95v-3.825c0-3.993 3.89-7.434 9.529-9.081C23.83 36.489 17 40.829 17 46.125v3.825a12.157 12.157 0 0 0 6-1z" fill="#000064" opacity=".16"/><path data-name="layer1" d="M50.48 5.52a12.1 12.1 0 0 0-17.067 0L21.467 17.466l17.067 17.067L50.48 22.587a12.1 12.1 0 0 0 0-17.067z" fill="#f4475d"/><path data-name="opacity" d="M11.52 33.413l11.947-11.947L35.413 9.52a12.1 12.1 0 0 1 17.067 0 11.97 11.97 0 0 1 1.059 1.233A11.955 11.955 0 0 0 50.48 5.52a12.1 12.1 0 0 0-17.067 0L21.467 17.466 9.52 29.413a12.1 12.1 0 0 0-1.059 15.834 12.093 12.093 0 0 1 3.059-11.834z" fill="#fff" opacity=".4"/><path data-name="opacity" d="M42 3.978c-7.374.141-9.365 7.148-7.139 7.75 1.971.738 4.863-.417 7.139-.143 2.276-.274 5.169.881 7.139.143 2.226-.602.235-7.609-7.139-7.75z" fill="#fff" opacity=".5"/><path data-name="stroke" fill="none" stroke="#2e4369" stroke-linecap="round" stroke-miterlimit="10" stroke-width="2" d="M21.467 17.467l17.066 17.066m-.533.538l12.48-12.484a12.1 12.1 0 0 0 0-17.067 12.1 12.1 0 0 0-17.067 0L9.52 29.413a12.1 12.1 0 0 0 0 17.067A12.113 12.113 0 0 0 23 48.949m7.436-12.196l17.402 17.359M33.516 35.729l17.266 17.224" stroke-linejoin="round"/><ellipse data-name="stroke" cx="40" cy="45.125" rx="17" ry="10.125" fill="none" stroke="#2e4369" stroke-linecap="round" stroke-miterlimit="10" stroke-width="2" stroke-linejoin="round"/><path data-name="stroke" d="M23 45.125v6.75C23 57.467 30.611 62 40 62s17-4.533 17-10.125v-6.75" fill="none" stroke="#2e4369" stroke-linecap="round" stroke-miterlimit="10" stroke-width="2" stroke-linejoin="round"/></svg>