<svg xmlns="http://www.w3.org/2000/svg" viewBox="0 0 64 64" aria-labelledby="title" aria-describedby="desc"><path data-name="layer1" fill="none" stroke="#202020" stroke-linecap="round" stroke-miterlimit="10" stroke-width="2" d="M20 12h-6v44h36V12h-6" stroke-linejoin="round"/><path data-name="layer1" d="M42.156 7H54a2 2 0 0 1 2 2v51a2 2 0 0 1-2 2H10a2 2 0 0 1-2-2V9a2 2 0 0 1 2-2h11.807" fill="none" stroke="#202020" stroke-linecap="round" stroke-miterlimit="10" stroke-width="2" stroke-linejoin="round"/><path data-name="layer2" d="M39 6h-2.1a5 5 0 0 0-9.8 0H25a4.724 4.724 0 0 0-5 5v3h24v-3a4.774 4.774 0 0 0-5-5zm1 19h-5v-5h-6v5h-5v6h5v5h6v-5h5v-6z" fill="none" stroke="#202020" stroke-linecap="round" stroke-miterlimit="10" stroke-width="2" stroke-linejoin="round"/><path data-name="layer1" fill="none" stroke="#202020" stroke-linecap="round" stroke-miterlimit="10" stroke-width="2" d="M22 42h21m-21 7h21" stroke-linejoin="round"/></svg>