<svg xmlns="http://www.w3.org/2000/svg" viewBox="0 0 64 64" aria-labelledby="title" aria-describedby="desc"><path data-name="layer2" fill="#202020" d="M51 1v12h12L51 1zM27 27h8v8h-8zm10 20h18v8H37zm0-10h18v8H37zm0-10h18v8H37zM27 47h8v8h-8zm0-10h8v8h-8z"/><path data-name="layer2" d="M51 15a2 2 0 0 1-2-2V0H19a1 1 0 0 0-1 1v62a1 1 0 0 0 1 1h44a1 1 0 0 0 1-1V15zm-25-5h4V6h4v4h4v4h-4v4h-4v-4h-4zm31 47H25V25h32z" fill="#202020"/><path data-name="layer1" d="M10 8H9V7a4 4 0 0 0-8 0v3h9a1 1 0 0 1 1 1v14a1 1 0 0 0 2 0V11a3 3 0 0 0-3-3zM1 53.974a5.958 5.958 0 0 0 .485 2.363l2.5 5.837a1.1 1.1 0 0 0 2.024 0l2.5-5.842A5.958 5.958 0 0 0 9 53.974V53H1z" fill="#202020"/><path data-name="layer1" fill="#202020" d="M1 12h8v39H1z"/></svg>