<svg xmlns="http://www.w3.org/2000/svg" viewBox="0 0 64 64" aria-labelledby="title" aria-describedby="desc"><path data-name="layer2" fill="none" stroke="#202020" stroke-linecap="round" stroke-miterlimit="10" stroke-width="2" d="M40 34.994h-5v-5h-6v5h-5v6h5v5h6v-5h5v-6z" stroke-linejoin="round"/><circle data-name="layer2" cx="32" cy="37.994" r="15" fill="none" stroke="#202020" stroke-linecap="round" stroke-miterlimit="10" stroke-width="2" stroke-linejoin="round"/><path data-name="layer1" d="M14.95 25.967a3.928 3.928 0 0 0 3.019-4.486c-.318-3.018 1.406-7.465 14.031-7.465s14.316 4.447 14 7.465 2.865 4.25 4.018 4.487 4.812 1.533 6.082 1.77 3.2.767 4.576-1.082a11.194 11.194 0 0 0-2-13.235C53.52 8.258 43.116 5.994 32 5.994S10.479 8.258 5.317 13.42a11.2 11.2 0 0 0-1.994 13.238C4.7 28.5 6.628 27.977 7.9 27.739s5.9-1.534 7.05-1.772z" fill="none" stroke="#202020" stroke-linecap="round" stroke-miterlimit="10" stroke-width="2" stroke-linejoin="round"/><path data-name="layer1" d="M11.365 26.88L8 50.994a8 8 0 0 0 8 8h32a8 8 0 0 0 8-8l-3.386-24.267" fill="none" stroke="#202020" stroke-linecap="round" stroke-miterlimit="10" stroke-width="2" stroke-linejoin="round"/></svg>