<svg xmlns="http://www.w3.org/2000/svg" viewBox="0 0 64 64" aria-labelledby="title" aria-describedby="desc"><circle data-name="layer2" cx="31" cy="19.994" r="2" fill="none" stroke="#202020" stroke-linecap="round" stroke-miterlimit="10" stroke-width="2" stroke-linejoin="round"/><circle data-name="layer2" cx="35" cy="31.994" r="2" fill="none" stroke="#202020" stroke-linecap="round" stroke-miterlimit="10" stroke-width="2" stroke-linejoin="round"/><circle data-name="layer2" cx="22" cy="47.994" r="2" fill="none" stroke="#202020" stroke-linecap="round" stroke-miterlimit="10" stroke-width="2" stroke-linejoin="round"/><circle data-name="layer2" cx="38" cy="50.994" r="4" fill="none" stroke="#202020" stroke-linecap="round" stroke-miterlimit="10" stroke-width="2" stroke-linejoin="round"/><path data-name="layer1" d="M47.962 40l-7.439-14.95A5 5 0 0 1 40 22.819V1.994H24V22.82a5 5 0 0 1-.523 2.227L16.04 40" fill="none" stroke="#202020" stroke-linecap="round" stroke-miterlimit="10" stroke-width="2" stroke-linejoin="round"/><path data-name="layer2" d="M53.064 50.251L47.962 40H16.04l-5.1 10.254a7.943 7.943 0 0 0-.844 4.98 8.184 8.184 0 0 0 8.17 6.764h27.443a8.2 8.2 0 0 0 8.271-7.44 7.936 7.936 0 0 0-.916-4.307z" fill="none" stroke="#202020" stroke-linecap="round" stroke-miterlimit="10" stroke-width="2" stroke-linejoin="round"/><path data-name="layer1" fill="none" stroke="#202020" stroke-linecap="round" stroke-miterlimit="10" stroke-width="2" d="M21 1.994h22" stroke-linejoin="round"/></svg>