<svg xmlns="http://www.w3.org/2000/svg" viewBox="0 0 64 64" aria-labelledby="title" aria-describedby="desc"><path data-name="layer2" fill="none" stroke="#202020" stroke-linecap="round" stroke-miterlimit="10" stroke-width="2" d="M18 2v60h44V16L48 2H18z" stroke-linejoin="round"/><path data-name="layer2" fill="none" stroke="#202020" stroke-linecap="round" stroke-miterlimit="10" stroke-width="2" d="M48 2v14h14M26 26h28v30H26zm10 0v30M26 36h28M26 46h28M38 12h-4V8h-4v4h-4v4h4v4h4v-4h4v-4z" stroke-linejoin="round"/><path data-name="layer1" d="M7.6 55.943l-2.5 5.842a.1.1 0 0 1-.184 0L2.4 55.943a5 5 0 0 1-.4-1.97V7a3 3 0 0 1 3-3 3 3 0 0 1 3 3v46.974a5 5 0 0 1-.4 1.969z" fill="none" stroke="#202020" stroke-linecap="round" stroke-miterlimit="10" stroke-width="2" stroke-linejoin="round"/><path data-name="layer1" d="M2 9h8a2 2 0 0 1 2 2v14M2 52h6" fill="none" stroke="#202020" stroke-linecap="round" stroke-miterlimit="10" stroke-width="2" stroke-linejoin="round"/></svg>