<svg xmlns="http://www.w3.org/2000/svg" viewBox="0 0 64 64" aria-labelledby="title" aria-describedby="desc"><path data-name="layer2" d="M36.6 31.8a25.1 25.1 0 0 0 3.3-9.6A18 18 0 1 0 4 20a17.7 17.7 0 0 0 .2 2.2C5.7 36.8 22 44.9 22 62c0-7 2.7-12.5 6.1-17.6a16 16 0 0 1 8.5-12.6zM22 26a6 6 0 1 1 6-6 6 6 0 0 1-6 6z" fill="#c3d6f9"/><path data-name="opacity" d="M22 61C22 42.7 9.3 34.1 8.1 18.6c0-.8-.1-1.6-.1-2.3a24.8 24.8 0 0 1 1.8-9.5A17.9 17.9 0 0 0 4 20a17.7 17.7 0 0 0 .2 2.2C5.7 36.8 22 44.9 22 62z" fill="#000032" opacity=".2"/><path data-name="layer1" d="M44 30a16 16 0 0 0-15.9 14.4c-.1.5-.1 1.1-.1 1.6a16 16 0 1 0 16-16z" fill="#fc6"/><path data-name="opacity" d="M36.6 31.8l.4-.7a16 16 0 0 0-13.9 14.3c-.1.5-.1 1.1-.1 1.6a15.9 15.9 0 0 0 .9 5.2 42 42 0 0 1 4.2-7.8 16 16 0 0 1 8.5-12.6z" fill="#000032" opacity=".2"/><circle data-name="stroke" cx="44" cy="46" r="16" fill="none" stroke="#2e4369" stroke-linecap="round" stroke-linejoin="round" stroke-width="2"/><path data-name="stroke" fill="none" stroke="#2e4369" stroke-linecap="round" stroke-linejoin="round" stroke-width="2" d="M44 38v10h8M36.6 31.8a25.1 25.1 0 0 0 3.2-9.6A18 18 0 1 0 4 20a18.1 18.1 0 0 0 .2 2.2C5.7 36.8 22 44.9 22 62c0-7 2.7-12.5 6.1-17.6"/><circle data-name="stroke" cx="22" cy="20" r="6" fill="none" stroke="#2e4369" stroke-linecap="round" stroke-linejoin="round" stroke-width="2"/></svg>