<svg xmlns="http://www.w3.org/2000/svg" viewBox="0 0 64 64" aria-labelledby="title" aria-describedby="desc"><path data-name="layer1" d="M50.4 51C40.5 49.1 40 46 40 44v-1.2a18.9 18.9 0 0 0 5.7-8.8h.1c3 0 3.8-6.3 3.8-7.3s.1-4.7-3-4.7C53 4 35.5-3.2 22.3 6c-5.4 0-5.9 8-3.9 16-3.1 0-3 3.8-3 4.7s.7 7.3 3.8 7.3c1 3.6 2.3 6.9 4.7 9v1.2c0 2 .5 5-9.5 6.8S2 62 2 62h60a14.6 14.6 0 0 0-11.6-11z" fill="none" stroke="#202020" stroke-miterlimit="10" stroke-width="2" stroke-linejoin="round" stroke-linecap="round"/></svg>