<svg xmlns="http://www.w3.org/2000/svg" viewBox="0 0 64 64" aria-labelledby="title" aria-describedby="desc"><circle data-name="layer2" cx="30" cy="21" r="12" fill="none" stroke="#202020" stroke-linecap="round" stroke-miterlimit="10" stroke-width="2" stroke-linejoin="round"/><path data-name="layer2" fill="none" stroke="#202020" stroke-linecap="round" stroke-miterlimit="10" stroke-width="2" d="M36 19h-4v-4h-4v4h-4v4h4v4h4v-4h4v-4z" stroke-linejoin="round"/><path data-name="layer1" d="M32.748 61.828a.249.249 0 0 0 .37-.107C33.853 60.01 37.775 51 39 51c2 0 5.938 2 9 2s2.488-7.083 3.445-9.973S53 38.445 53 37c3.828-.385 3.134-1.581 2.655-2.737S51 27.867 51 27c0-1 1-4.074 1-6 0-8.764-5-19-21.991-19C13.359 2 8 14.258 8 21s1.895 11.785 4 14 4 4.244 4 8a9.538 9.538 0 0 1-2 6z" fill="none" stroke="#202020" stroke-linecap="round" stroke-miterlimit="10" stroke-width="2" stroke-linejoin="round"/></svg>