<svg xmlns="http://www.w3.org/2000/svg" viewBox="0 0 64 64" aria-labelledby="title" aria-describedby="desc"><path data-name="layer3" d="M32.748 61.828a.249.249 0 0 0 .37-.107C33.853 60.01 37.775 51 39 51c2 0 5.938 2 9 2s2.488-7.083 3.445-9.973S53 38.445 53 37c3.828-.385 3.134-1.581 2.655-2.737S51 27.867 51 27c0-1 1-4.074 1-6 0-8.764-5-19-21.991-19C13.359 2 8 14.258 8 21s1.895 11.785 4 14 4 4.244 4 8a9.538 9.538 0 0 1-2 6z" fill="#9cf"/><circle data-name="layer2" cx="30" cy="21" r="12" fill="#cbe5ff"/><path data-name="opacity" d="M25 31c-4.866-9.732-6.887-27.036 2.259-28.878C12.766 3.393 8 14.645 8 21c0 6.742 1.895 11.785 4 14s4 4.244 4 8a9.538 9.538 0 0 1-2 6l9.974 6.824C26.618 50.108 28.985 38.969 25 31z" fill="#000064" opacity=".16"/><path data-name="layer1" fill="#f4475d" d="M36 19h-4v-4h-4v4h-4v4h4v4h4v-4h4v-4z"/><circle data-name="stroke" cx="30" cy="21" r="12" fill="none" stroke="#2e4369" stroke-linecap="round" stroke-miterlimit="10" stroke-width="2" stroke-linejoin="round"/><path data-name="stroke" fill="none" stroke="#2e4369" stroke-linecap="round" stroke-miterlimit="10" stroke-width="2" d="M36 19h-4v-4h-4v4h-4v4h4v4h4v-4h4v-4z" stroke-linejoin="round"/><path data-name="stroke" d="M32.748 61.828a.249.249 0 0 0 .37-.107C33.853 60.01 37.775 51 39 51c2 0 5.938 2 9 2s2.488-7.083 3.445-9.973S53 38.445 53 37c3.828-.385 3.134-1.581 2.655-2.737S51 27.867 51 27c0-1 1-4.074 1-6 0-8.764-5-19-21.991-19C13.359 2 8 14.258 8 21s1.895 11.785 4 14 4 4.244 4 8a9.538 9.538 0 0 1-2 6z" fill="none" stroke="#2e4369" stroke-linecap="round" stroke-miterlimit="10" stroke-width="2" stroke-linejoin="round"/></svg>