<svg xmlns="http://www.w3.org/2000/svg" viewBox="0 0 64 64" aria-labelledby="title" aria-describedby="desc"><circle data-name="layer2" cx="47" cy="45" r="15" fill="#5edc89"/><path data-name="opacity" d="M47 30a15 15 0 0 0-11.6 5.4 15 15 0 0 1 21.2 21.2A15 15 0 0 0 47 30z" fill="#fff" opacity=".25"/><path data-name="layer1" d="M47 30a14.9 14.9 0 0 1 8.3 2.5 17.6 17.6 0 0 0 .7-4.9C56 15.7 43.9 6 29 6S2 15.7 2 27.6c0 6.1 3.1 11.5 8.2 15.5L4 55l17.6-6.6a33.3 33.3 0 0 0 7.4.8l3.5-.2A15 15 0 0 1 47 30z" fill="#a6dbff"/><path data-name="opacity" d="M41.4 31.1H40a15 15 0 0 0-14.8 12.3C13.1 41 4 31.9 4 21c0-.6 0-1.2.1-1.7A17.9 17.9 0 0 0 2 27.6c0 6.1 3.1 11.5 8.2 15.5L4 55l17.6-6.6 3.7.6 3.7.2 3.5-.2a15 15 0 0 1-.6-4c0-.3 0-.7.1-1a15 15 0 0 1 9.4-12.9z" fill="#000064" opacity=".14"/><path data-name="opacity" d="M38 22.3c10.1 3.5 9.8-.6 8.7-3.3a15.3 15.3 0 0 0-2.4-3.4c-4.7-4.7-9.9-4.5-13.2-3S28 18.8 38 22.3z" fill="#fff" opacity=".4"/><path data-name="stroke" d="M55.3 32.5a17.6 17.6 0 0 0 .7-4.9C56 15.7 43.9 6 29 6S2 15.7 2 27.6c0 6.1 3.1 11.5 8.2 15.5L4 55l17.6-6.6a33.4 33.4 0 0 0 7.4.8l3.5-.2" fill="none" stroke="#2e4369" stroke-linecap="round" stroke-miterlimit="10" stroke-width="2" stroke-linejoin="round"/><circle data-name="stroke" cx="47" cy="45" r="15" fill="none" stroke="#2e4369" stroke-linecap="round" stroke-miterlimit="10" stroke-width="2" stroke-linejoin="round"/><path data-name="stroke" d="M53.1 42l-8 8-4-4" fill="none" stroke="#2e4369" stroke-linecap="round" stroke-miterlimit="10" stroke-width="2" stroke-linejoin="round"/></svg>