<svg xmlns="http://www.w3.org/2000/svg" viewBox="0 0 64 64" aria-labelledby="title" aria-describedby="desc"><path data-name="layer5" d="M30.6 26a2.6 2.6 0 0 1-2.6-2.6V10H4v38h34V26z" fill="#a0d6ef"/><path data-name="layer4" d="M30.6 2H8a4 4 0 0 0-4 4v4h24V4.6A2.6 2.6 0 0 1 30.6 2zM4 58a4 4 0 0 0 4 4h26a4 4 0 0 0 4-4V48H4z" fill="#536897"/><path data-name="opacity" d="M9 58V48H4v10a4 4 0 0 0 4 4h5a4 4 0 0 1-4-4zm4-56H8a4 4 0 0 0-4 4v4h5V6a4 4 0 0 1 4-4z" fill="#000064" opacity=".14"/><circle data-name="layer3" cx="21" cy="55" r="1" fill="#929fbd"/><path data-name="layer2" d="M59.4 2H30.6A2.6 2.6 0 0 0 28 4.6v18.8a2.6 2.6 0 0 0 2.6 2.6H38v7l7-7h14.4a2.6 2.6 0 0 0 2.6-2.6V4.6A2.6 2.6 0 0 0 59.4 2z" fill="#dbf1ff"/><path data-name="opacity" d="M30.6 26a2.6 2.6 0 0 1-2.6-2.6V10h-5v17.4a2.6 2.6 0 0 0 2.6 2.6H33v7l5-5v-6z" fill="#000064" opacity=".14"/><path data-name="opacity" fill="#fff" opacity=".25" d="M33 31.5L16.5 48H38V32l-5 5v-5.5zM23 19L4 38v10l19.3-19.3a2.6 2.6 0 0 1-.3-1.2z"/><circle data-name="layer1" cx="45" cy="14" r="1" fill="#2e4369"/><circle data-name="layer1" cx="37" cy="14" r="1" fill="#2e4369"/><circle data-name="layer1" cx="53" cy="14" r="1" fill="#2e4369"/><path data-name="opacity" d="M59.4 26a2.6 2.6 0 0 0 2.6-2.6V23H33.6a2.6 2.6 0 0 1-2.6-2.6V2h-.4A2.6 2.6 0 0 0 28 4.6v18.8a2.6 2.6 0 0 0 2.6 2.6H38v7l7-7z" fill="#000064" opacity=".1"/><path data-name="stroke" d="M38 42v16a4 4 0 0 1-4 4H8a4 4 0 0 1-4-4V6a4 4 0 0 1 4-4h22M4 10h24M4 48h34" fill="none" stroke="#2e4369" stroke-linecap="round" stroke-miterlimit="10" stroke-width="2" stroke-linejoin="round"/><circle data-name="stroke" cx="21" cy="55" r="1" fill="none" stroke="#2e4369" stroke-linecap="round" stroke-miterlimit="10" stroke-width="2" stroke-linejoin="round"/><path data-name="stroke" d="M59.4 2H30.6A2.6 2.6 0 0 0 28 4.6v18.8a2.6 2.6 0 0 0 2.6 2.6H38v7l7-7h14.4a2.6 2.6 0 0 0 2.6-2.6V4.6A2.6 2.6 0 0 0 59.4 2z" fill="none" stroke="#2e4369" stroke-linecap="round" stroke-miterlimit="10" stroke-width="2" stroke-linejoin="round"/><circle data-name="stroke" cx="45" cy="14" r="1" fill="none" stroke="#2e4369" stroke-linecap="round" stroke-miterlimit="10" stroke-width="2" stroke-linejoin="round"/><circle data-name="stroke" cx="37" cy="14" r="1" fill="none" stroke="#2e4369" stroke-linecap="round" stroke-miterlimit="10" stroke-width="2" stroke-linejoin="round"/><circle data-name="stroke" cx="53" cy="14" r="1" fill="none" stroke="#2e4369" stroke-linecap="round" stroke-miterlimit="10" stroke-width="2" stroke-linejoin="round"/></svg>