<svg xmlns="http://www.w3.org/2000/svg" viewBox="0 0 64 64" aria-labelledby="title" aria-describedby="desc"><path data-name="layer2" d="M58.4 3H29.6A2.6 2.6 0 0 0 27 5.6v18.8a2.6 2.6 0 0 0 2.6 2.6H37v7l7-7h14.4a2.6 2.6 0 0 0 2.6-2.6V5.6A2.6 2.6 0 0 0 58.4 3zm-20 13.4a2 2 0 0 1-2.8 0 2 2 0 1 1 2.8-2.8A2 2 0 0 1 39 15a2 2 0 0 1-.6 1.4zm7 0a2 2 0 0 1-1.4.6 2 2 0 0 1-2-2 2.1 2.1 0 0 1 .6-1.4A2 2 0 0 1 46 15a2 2 0 0 1-.6 1.4zm7 0A2 2 0 0 1 49 15a2 2 0 0 1 .6-1.4 2.1 2.1 0 0 1 2.8 0A2 2 0 0 1 53 15a2 2 0 0 1-.6 1.4z" fill="#202020"/><path data-name="layer1" d="M37 39.7V50H7V8h16V5.6A6.6 6.6 0 0 1 26.1 0H9a6 6 0 0 0-6 6v52a6 6 0 0 0 6 6h26a6 6 0 0 0 6-6V35.7l-1.2 1.2zM24.1 59.1a3 3 0 0 1-2.1.9 3 3 0 0 1-2.1-5.1 3.1 3.1 0 0 1 4.2 0 3 3 0 0 1 0 4.2z" fill="#202020"/></svg>