<svg xmlns="http://www.w3.org/2000/svg" viewBox="0 0 64 64" aria-labelledby="title" aria-describedby="desc"><path data-name="layer3" d="M24 20c4.2 0 8.9 2.3 9.8 8H42v7l7.6-7H62V2H24z" fill="#a6dbff"/><circle data-name="layer2" cx="43" cy="14" r="1" fill="#2e4369"/><circle data-name="layer2" cx="35" cy="14" r="1" fill="#2e4369"/><circle data-name="layer2" cx="51" cy="14" r="1" fill="#2e4369"/><path data-name="layer1" d="M37.4 54.3c-8.2-1.4-7.4-3.5-7.4-4.9v-2.5a13.9 13.9 0 0 0 4-10.1v-6.7C34 22.8 28.7 20 24 20s-10 2.8-10 10.1v6.7a13.8 13.8 0 0 0 4.1 10.1v2.5c0 1.4.7 3.5-7.4 4.9S2 60 2 62h44c0-2-1.3-6.4-8.6-7.7z" fill="#8ca0c8"/><path data-name="opacity" d="M13 56c4-1 5-4 10-4s5-5 5-5-1 1-4 1-5-4-5-7V30c0-3 0-10 5-10-4.7 0-10 2.8-10 10.1v6.7a13.8 13.8 0 0 0 4.1 10.1v2.5c0 1.4.7 3.5-7.4 4.9S2 60 2 62h6.8s.2-5 4.2-6z" fill="#000064" opacity=".15"/><path data-name="stroke" fill="none" stroke="#2e4369" stroke-linecap="round" stroke-miterlimit="10" stroke-width="2" d="M33.8 28H42v7l7.6-7H62V2H24v18" stroke-linejoin="round"/><circle data-name="stroke" cx="43" cy="14" r="1" fill="none" stroke="#2e4369" stroke-linecap="round" stroke-miterlimit="10" stroke-width="2" stroke-linejoin="round"/><circle data-name="stroke" cx="35" cy="14" r="1" fill="none" stroke="#2e4369" stroke-linecap="round" stroke-miterlimit="10" stroke-width="2" stroke-linejoin="round"/><circle data-name="stroke" cx="51" cy="14" r="1" fill="none" stroke="#2e4369" stroke-linecap="round" stroke-miterlimit="10" stroke-width="2" stroke-linejoin="round"/><path data-name="stroke" d="M37.4 54.3c-8.2-1.4-7.4-3.5-7.4-4.9v-2.5a13.9 13.9 0 0 0 4-10.1v-6.7C34 22.8 28.7 20 24 20s-10 2.8-10 10.1v6.7a13.8 13.8 0 0 0 4.1 10.1v2.5c0 1.4.7 3.5-7.4 4.9S2 60 2 62h44c0-2-1.3-6.4-8.6-7.7z" fill="none" stroke="#2e4369" stroke-linecap="round" stroke-miterlimit="10" stroke-width="2" stroke-linejoin="round"/></svg>