<svg xmlns="http://www.w3.org/2000/svg" viewBox="0 0 64 64" aria-labelledby="title" aria-describedby="desc"><path data-name="layer3" d="M54 24A16 16 0 0 0 38 8H26a16 16 0 0 0-16 16v12h44z" fill="#c3d6e0"/><path data-name="layer2" d="M10 36v13a3 3 0 0 0 3 3h38a3 3 0 0 0 3-3V36z" fill="#fc0"/><circle data-name="layer1" cx="18" cy="44" r="2" fill="#a0d6ef"/><circle data-name="layer1" cx="46" cy="44" r="2" fill="#a0d6ef"/><path data-name="opacity" d="M16 46V21a16 16 0 0 1 6-12.5A16 16 0 0 0 10 24v25a3 3 0 0 0 3 3h38a3 3 0 0 0 3-3H19a3 3 0 0 1-3-3z" fill="#000064" opacity=".15"/><path data-name="opacity" d="M53.8 21.6L39.4 36h6.8l7.8-7.9V24a16 16 0 0 0-.2-2.4zM43.4 9l-27 27h12.2l21.9-21.9A16 16 0 0 0 43.4 9zM16 31L38.9 8.1h-4.7L16 26.2z" fill="#fff" opacity=".5"/><path data-name="stroke" fill="none" stroke="#2e4369" stroke-linecap="round" stroke-linejoin="round" stroke-width="2" d="M18 52l-8 10m36-10l8 10M10 36h44"/><circle data-name="stroke" cx="18" cy="44" r="2" fill="none" stroke="#2e4369" stroke-linecap="round" stroke-linejoin="round" stroke-width="2"/><circle data-name="stroke" cx="46" cy="44" r="2" fill="none" stroke="#2e4369" stroke-linecap="round" stroke-linejoin="round" stroke-width="2"/><path data-name="stroke" fill="none" stroke="#2e4369" stroke-linecap="round" stroke-linejoin="round" stroke-width="2" d="M12.7 60h38.6M54 49a3 3 0 0 1-3 3H13a3 3 0 0 1-3-3V24A16 16 0 0 1 26 8h12a16 16 0 0 1 16 16zM24 2h16"/></svg>