<svg xmlns="http://www.w3.org/2000/svg" viewBox="0 0 64 64" aria-labelledby="title" aria-describedby="desc"><path data-name="layer1" d="M55.6 60.8l-7-8.8H51a3 3 0 0 0 3-3V38H10v11a3 3 0 0 0 3 3h2.4l-7 8.8a2 2 0 0 0 3.1 2.5l1-1.3h38.9l1 1.3a2 2 0 0 0 3.1-2.5zM46 41a3 3 0 1 1-3 3 3 3 0 0 1 3-3zm-28 0a3 3 0 1 1-3 3 3 3 0 0 1 3-3zm-2.2 17l3.8-4.8A2 2 0 0 0 20 52h24a2 2 0 0 0 .4 1.3l3.8 4.7z" fill="#202020"/><path data-name="layer2" d="M24 4h16a2 2 0 1 0 0-4H24a2 2 0 1 0 0 4z" fill="#202020"/><path data-name="layer1" d="M54 34V24A16 16 0 0 0 38 8H26a16 16 0 0 0-16 16v10z" fill="#202020"/></svg>