<svg xmlns="http://www.w3.org/2000/svg" viewBox="0 0 64 64" aria-labelledby="title" aria-describedby="desc"><path data-name="layer1" d="M20 14A12 12 0 0 1 32 2a12 12 0 0 1 12 12v19a12 12 0 0 1-12 12 12 12 0 0 1-12-12z" fill="none" stroke="#202020" stroke-miterlimit="10" stroke-width="2" stroke-linejoin="round" stroke-linecap="round"/><path data-name="layer2" d="M52 26.3V33a20 20 0 0 1-20 20 20 20 0 0 1-20-20v-6.7M52 29H12m20 24v9" fill="none" stroke="#202020" stroke-miterlimit="10" stroke-width="2" stroke-linejoin="round" stroke-linecap="round"/><path data-name="layer1" fill="none" stroke="#202020" stroke-miterlimit="10" stroke-width="2" d="M44 20h-8m7.8-8H36m-8 0h-7.8m7.8 8h-8" stroke-linejoin="round" stroke-linecap="round"/></svg>