<svg xmlns="http://www.w3.org/2000/svg" viewBox="0 0 64 64" aria-labelledby="title" aria-describedby="desc"><path data-name="layer1" d="M41 32a10 10 0 0 1-10 10 10 10 0 0 1-10-10V12A10 10 0 0 1 31 2a10 10 0 0 1 10 10z" fill="#536897"/><path data-name="opacity" d="M36 40a10 10 0 0 1-10-10V10a10 10 0 0 1 3.9-7.9A10 10 0 0 0 21 12v20a10 10 0 0 0 16.1 7.9z" fill="#000064" opacity=".14"/><path data-name="stroke" d="M41 32a10 10 0 0 1-10 10 10 10 0 0 1-10-10V12A10 10 0 0 1 31 2a10 10 0 0 1 10 10z" fill="none" stroke="#2e4369" stroke-linecap="round" stroke-miterlimit="10" stroke-width="2" stroke-linejoin="round"/><path data-name="stroke" d="M49 22v10a18 18 0 0 1-18 18 18 18 0 0 1-18-18V22m18 28v12m-10 0h20" fill="none" stroke="#2e4369" stroke-linecap="round" stroke-miterlimit="10" stroke-width="2" stroke-linejoin="round"/></svg>