<svg xmlns="http://www.w3.org/2000/svg" viewBox="0 0 64 64" aria-labelledby="title" aria-describedby="desc"><path data-name="layer1" d="M6.88 6.878a3 3 0 0 1 4.242.001L24 20.46V15a3 3 0 0 1 6 0v15H15a3 3 0 0 1 0-6h4.092L6.878 11.12a3 3 0 0 1 .001-4.242zM52 37a3 3 0 0 1-3 3h-4.758l12.88 12.879a3 3 0 1 1-4.243 4.242L40 44.242V49a3 3 0 0 1-6 0V34h15a3 3 0 0 1 3 3z" fill="#bacae9"/><path data-name="stroke" d="M6.88 6.878a3 3 0 0 1 4.242.001L24 20.46V15a3 3 0 0 1 6 0v15H15a3 3 0 0 1 0-6h4.092L6.878 11.12a3 3 0 0 1 .001-4.242zM52 37a3 3 0 0 1-3 3h-4.758l12.88 12.879a3 3 0 1 1-4.243 4.242L40 44.242V49a3 3 0 0 1-6 0V34h15a3 3 0 0 1 3 3z" fill="none" stroke="#2e4369" stroke-linecap="round" stroke-linejoin="round" stroke-width="2"/></svg>