<svg xmlns="http://www.w3.org/2000/svg" viewBox="0 0 64 64" aria-labelledby="title" aria-describedby="desc"><path data-name="layer1" d="M57.12 6.878a3 3 0 0 0-4.242.001L40 20.46V15a3 3 0 0 0-6 0v15h15a3 3 0 0 0 0-6h-4.092l12.214-12.88a3 3 0 0 0-.001-4.242zM12 37a3 3 0 0 0 3 3h4.758L6.878 52.879a3 3 0 1 0 4.243 4.242L24 44.242V49a3 3 0 0 0 6 0V34H15a3 3 0 0 0-3 3z" fill="#bacae9"/><path data-name="stroke" d="M57.12 6.878a3 3 0 0 0-4.242.001L40 20.46V15a3 3 0 0 0-6 0v15h15a3 3 0 0 0 0-6h-4.092l12.214-12.88a3 3 0 0 0-.001-4.242zM12 37a3 3 0 0 0 3 3h4.758L6.878 52.879a3 3 0 1 0 4.243 4.242L24 44.242V49a3 3 0 0 0 6 0V34H15a3 3 0 0 0-3 3z" fill="none" stroke="#2e4369" stroke-linecap="round" stroke-linejoin="round" stroke-width="2"/></svg>