<svg xmlns="http://www.w3.org/2000/svg" viewBox="0 0 64 64" aria-labelledby="title" aria-describedby="desc"><path data-name="layer2" d="M52.7 50.7L44.2 43a4.5 4.5 0 0 0-6.1.2c-2.6 2.3-5.9 6.3-14.4-5.3S20 24.4 23 22.7a4.5 4.5 0 0 0 2.1-5.8L20.3 6.5c-.6-1.4-1.4-3.5-4-3.5S6.5 5.7 5.2 13.9s3.7 19.2 11.1 29.4 16.6 18.2 24.8 19.5 13.2-5.4 13.7-7.2-1-3.9-2.1-4.9z" fill="#202020"/><path data-name="layer1" d="M57.8 32.2a4 4 0 0 0-5.7 0A4 4 0 1 0 59 35a4 4 0 0 0-1.2-2.8zm-2.9-5.3A2 2 0 0 0 57 25l1.1-20.7V4a3.1 3.1 0 1 0-6.2.3L53 25a2 2 0 0 0 1.9 1.9z" fill="#202020"/></svg>