<svg xmlns="http://www.w3.org/2000/svg" viewBox="0 0 64 64" aria-labelledby="title" aria-describedby="desc"><path data-name="layer2" d="M49.6 49.7c1.1 1 2.9 2.4 2.1 4.9s-5.5 8.5-13.7 7.2-17.3-9.3-24.8-19.5S.9 21.1 2.1 12.9 11.2 2 13.2 2s3.4 2.1 4.1 3.5L22 15.9a4.5 4.5 0 0 1-2.1 5.8c-3 1.7-7.8 3.7.7 15.3s11.8 7.5 14.4 5.2a4.5 4.5 0 0 1 6.1-.2z" fill="#fc6"/><path data-name="opacity" d="M41 57.8c-8.2-1.3-17.3-9.3-24.7-19.5S3.9 17.1 5.1 8.9a12.8 12.8 0 0 1 1.1-3.6 12.5 12.5 0 0 0-4.1 7.6C.9 21.1 5.8 32.1 13.2 42.3S29.8 60.6 38 61.8s13.2-5.4 13.7-7.2A12.9 12.9 0 0 1 41 57.8z" fill="#000064" opacity=".15"/><path data-name="layer1" d="M55 5a2.7 2.7 0 0 0-3-3 2.8 2.8 0 0 0-3 3l1 21a2.2 2.2 0 0 0 2 2 2.1 2.1 0 0 0 2-2z" fill="#a6b1c9"/><circle data-name="layer1" cx="52" cy="35" r="2" fill="#a6b1c9"/><path data-name="stroke" d="M49.6 49.7c1.1 1 2.9 2.4 2.1 4.9s-5.5 8.5-13.7 7.2-17.3-9.3-24.8-19.5S.9 21.1 2.1 12.9 11.2 2 13.2 2s3.4 2.1 4.1 3.5L22 15.9a4.5 4.5 0 0 1-2.1 5.8c-3 1.7-7.8 3.7.7 15.3s11.8 7.5 14.4 5.2a4.5 4.5 0 0 1 6.1-.2zM55 5a2.7 2.7 0 0 0-3-3 2.8 2.8 0 0 0-3 3l1 21a2.2 2.2 0 0 0 2 2 2.1 2.1 0 0 0 2-2z" fill="none" stroke="#2e4369" stroke-linecap="round" stroke-miterlimit="10" stroke-width="2" stroke-linejoin="round"/><circle data-name="stroke" cx="52" cy="35" r="2" fill="none" stroke="#2e4369" stroke-linecap="round" stroke-miterlimit="10" stroke-width="2" stroke-linejoin="round"/></svg>