<svg xmlns="http://www.w3.org/2000/svg" viewBox="0 0 64 64" aria-labelledby="title" aria-describedby="desc"><path data-name="layer2" d="M8.3 44.4l11.3 11.4 4.5-4-11.8-11.9z" fill="#202020"/><path data-name="layer2" d="M62 2s-13.4-.7-22.6 8.5c-3.6 3.6-9.3 9.7-14.8 15.8H12.3l-8 8 11 2.3-.4.4L27 49.1l.4-.4 2.3 11 7.9-7.9V39.5c6.1-5.5 12.2-11.2 15.9-14.9C62.7 15.4 62 2 62 2zM46.4 23.2a4 4 0 1 1 0-5.7 4 4 0 0 1 0 5.7z" fill="#202020"/><path data-name="layer1" d="M2 62a14.3 14.3 0 0 0 12.5-5.6l-6.9-7A14.2 14.2 0 0 0 2 62z" fill="#202020"/></svg>