<svg xmlns="http://www.w3.org/2000/svg" viewBox="0 0 64 64" aria-labelledby="title" aria-describedby="desc"><path data-name="layer2" fill="#7b8baf" d="M2 2h60v60H2z"/><circle data-name="layer1" cx="16" cy="20" r="4" fill="#aadbff"/><circle data-name="layer1" cx="32" cy="30" r="4" fill="#aadbff"/><circle data-name="layer1" cx="48" cy="48" r="4" fill="#aadbff"/><path data-name="opacity" d="M12 20a4 4 0 0 1 .4-1.6 4 4 0 1 0 5.3 5.3A4 4 0 0 1 12 20zm16 10a4 4 0 0 1 .4-1.6 4 4 0 1 0 5.3 5.3A4 4 0 0 1 28 30zm16 18a4 4 0 0 1 .4-1.6 4 4 0 1 0 5.3 5.3A4 4 0 0 1 44 48z" fill="#000064" opacity=".2"/><path data-name="stroke" fill="none" stroke="#2e4369" stroke-linecap="round" stroke-miterlimit="10" stroke-width="2" d="M16 24v30m0-44v6m16 18v20m0-44v16m16 26v2m0-44v34M2 2h60v60H2z" stroke-linejoin="round"/><circle data-name="stroke" cx="16" cy="20" r="4" fill="none" stroke="#2e4369" stroke-linecap="round" stroke-miterlimit="10" stroke-width="2" stroke-linejoin="round"/><circle data-name="stroke" cx="32" cy="30" r="4" fill="none" stroke="#2e4369" stroke-linecap="round" stroke-miterlimit="10" stroke-width="2" stroke-linejoin="round"/><circle data-name="stroke" cx="48" cy="48" r="4" fill="none" stroke="#2e4369" stroke-linecap="round" stroke-miterlimit="10" stroke-width="2" stroke-linejoin="round"/></svg>