<svg xmlns="http://www.w3.org/2000/svg" viewBox="0 0 64 64" aria-labelledby="title" aria-describedby="desc"><path data-name="layer2" fill="#bacae9" d="M2 2h60v60H2z"/><circle data-name="layer1" cx="16" cy="48" r="5" fill="#dde5f4"/><circle data-name="layer1" cx="48" cy="16" r="5" fill="#dde5f4"/><circle data-name="layer1" cx="32" cy="32" r="5" fill="#dde5f4"/><path data-name="opacity" d="M11 48a4.953 4.953 0 0 1 .313-1.688 4.989 4.989 0 1 0 6.374 6.376A4.955 4.955 0 0 1 11 48zm32-32a4.965 4.965 0 0 1 .313-1.688 4.989 4.989 0 1 0 6.374 6.376A4.955 4.955 0 0 1 43 16zM27 32a4.965 4.965 0 0 1 .313-1.688 4.989 4.989 0 1 0 6.375 6.375A4.955 4.955 0 0 1 27 32z" opacity=".2"/><circle data-name="stroke" cx="16" cy="48" r="5" fill="none" stroke="#2e4369" stroke-linecap="round" stroke-linejoin="round" stroke-width="2"/><circle data-name="stroke" cx="48" cy="16" r="5" fill="none" stroke="#2e4369" stroke-linecap="round" stroke-linejoin="round" stroke-width="2"/><circle data-name="stroke" cx="32" cy="32" r="5" fill="none" stroke="#2e4369" stroke-linecap="round" stroke-linejoin="round" stroke-width="2"/><path data-name="stroke" fill="none" stroke="#2e4369" stroke-linecap="round" stroke-linejoin="round" stroke-width="2" d="M16 14v29m16-6v13m0-36v13m16-6v29M2 2h60v60H2z"/></svg>