<svg xmlns="http://www.w3.org/2000/svg" viewBox="0 0 64 64" aria-labelledby="title" aria-describedby="desc"><path data-name="layer1" fill="#ffd000" d="M38 17h12v38H38zm-12 8h12v30H26zm-12 8h12v22H14zM2 41h12v14H2z"/><path data-name="opacity" fill="#fff" opacity=".25" d="M2 41h12v8H2zm12-8h12v8H14zm12-8h12v8H26zm12-8h12v8H38z"/><path data-name="stroke" fill="none" stroke="#2e4369" stroke-linecap="round" stroke-miterlimit="10" stroke-width="2" d="M38 17h12v38H38zm0 38H26V25h12M26 55H14V33h12M14 55H2V41h12m48 14h-7" stroke-linejoin="round"/></svg>