<svg xmlns="http://www.w3.org/2000/svg" viewBox="0 0 64 64" aria-labelledby="title" aria-describedby="desc"><circle data-name="layer1" cx="20" cy="10" r="8" fill="#f25b7c"/><path data-name="opacity" d="M23 15a8 8 0 0 1-7-12 8 8 0 1 0 11 11 8 8 0 0 1-4 1z" fill="#000064" opacity=".15"/><path data-name="layer2" fill="#7b8baf" d="M8 46h48v16H8z"/><path data-name="opacity" fill="#000064" opacity=".15" d="M8 46h9v16H8z"/><path data-name="layer1" fill="#f25b7c" d="M40 46v-8h12v8"/><path data-name="opacity" fill="#fff" opacity=".25" d="M48 38h4v8h-4z"/><path data-name="stroke" fill="none" stroke="#2e4369" stroke-linecap="round" stroke-linejoin="round" stroke-width="2" d="M20 18v28"/><circle data-name="stroke" cx="20" cy="10" r="8" fill="none" stroke="#2e4369" stroke-linecap="round" stroke-linejoin="round" stroke-width="2"/><path data-name="stroke" fill="none" stroke="#2e4369" stroke-linecap="round" stroke-linejoin="round" stroke-width="2" d="M8 46h48v16H8zm32 0v-8h12v8m-36 8h8"/></svg>