<svg xmlns="http://www.w3.org/2000/svg" viewBox="0 0 64 64" aria-labelledby="title" aria-describedby="desc"><path data-name="layer1" d="M37.3 32A20 20 0 0 1 46 15.5a20 20 0 1 0 0 33A20 20 0 0 1 37.3 32z" fill="#e6f0fa"/><path data-name="opacity" d="M41.2 43.8l-2.5.2a19.9 19.9 0 0 1-19.4-24.7A20 20 0 0 0 46 48.5a20.1 20.1 0 0 1-4.8-4.7z" fill="#000064" opacity=".15"/><path data-name="stroke" d="M37.3 32A20 20 0 0 1 46 15.5a20 20 0 1 0 0 33A20 20 0 0 1 37.3 32z" fill="none" stroke="#2e4369" stroke-linecap="round" stroke-linejoin="round" stroke-width="2"/></svg>