<svg xmlns="http://www.w3.org/2000/svg" viewBox="0 0 64 64" aria-labelledby="title" aria-describedby="desc"><path data-name="layer2" d="M17.7 31a10 10 0 1 1 13.5-13M22 2v4M6 22H2M8 8l3 3m25-3l-3 3M11 33l-3 3" fill="none" stroke="#202020" stroke-miterlimit="10" stroke-width="2" stroke-linejoin="round" stroke-linecap="round"/><path data-name="layer2" d="M50 24a13 13 0 0 0-25 4.1h-1a8 8 0 0 0 0 16h26a10 10 0 0 0 0-20z" fill="none" stroke="#202020" stroke-miterlimit="10" stroke-width="2" stroke-linejoin="round" stroke-linecap="round"/><path data-name="layer1" fill="none" stroke="#202020" stroke-miterlimit="10" stroke-width="2" d="M20 50l-5 6m15-6L20 62m20-12l-5 6m15-6L40 62" stroke-linejoin="round" stroke-linecap="round"/></svg>