<svg viewBox="0 0 64 64" xmlns="http://www.w3.org/2000/svg" aria-labelledby="title" aria-describedby="desc"><path fill="#202020" d="M22.5 52.56l1.056-1.311a2 2 0 1 0-3.116-2.508l-1.056 1.311A2 2 0 1 0 22.5 52.56zm10.75-4.125a2 2 0 0 0-2.812.31l-5.912 7.383a2 2 0 0 0 3.123 2.5l5.912-7.383a2 2 0 0 0-.311-2.81zm9.266 4.119l1.047-1.31a2 2 0 1 0-3.125-2.5l-1.047 1.31a2 2 0 1 0 3.125 2.5zm10.734-4.121a2 2 0 0 0-2.812.313l-5.91 7.383a2 2 0 0 0 3.123 2.5l5.91-7.383a2 2 0 0 0-.311-2.813zm-37.214 5.82a2.043 2.043 0 0 0-.58 1.422 2.01 2.01 0 0 0 .58 1.408 2 2 0 0 0 2.84 0 2 2 0 0 0-.01-2.83 2.085 2.085 0 0 0-2.83 0zm4.941 6.33a2 2 0 0 0 1.42 3.41 1.981 1.981 0 0 0 1.41-.59 1.981 1.981 0 0 0 0-2.82 2.061 2.061 0 0 0-2.83 0zm15.069-6.33a2 2 0 1 0 2.82 0 2.073 2.073 0 0 0-2.82 0zm4.931 6.33a2 2 0 0 0 1.42 3.41 1.994 1.994 0 0 0 1.41-3.41 2.061 2.061 0 0 0-2.83 0z" data-name="layer2"/><path fill="#202020" d="M24 9.024a2 2 0 0 0 2-2V2.007a2 2 0 1 0-4 0v5.017a2 2 0 0 0 2 2zm8.812 3.676a2 2 0 0 0 2.828 0l3.548-3.548a2 2 0 1 0-2.828-2.825l-3.548 3.548a2 2 0 0 0 0 2.825zm-25 25a2 2 0 0 0 2.828 0l3.548-3.548a2 2 0 1 0-2.828-2.828l-3.548 3.551a2 2 0 0 0 0 2.825zm3.204-15.685a2 2 0 0 0-2-2H4a2 2 0 0 0 0 4h5.016a2 2 0 0 0 2-2zm1.269-8.893a2 2 0 0 0 2.828-2.828l-3.255-3.256a2 2 0 0 0-2.828 2.83zm39.732 10.867A12.992 12.992 0 0 0 27.062 28.1 7.8 7.8 0 0 0 26 27.991a8 8 0 0 0 0 16h26a10 10 0 0 0 .012-20zm-35.471 4.643a12 12 0 0 1 7.171-4.422 17.091 17.091 0 0 1 7.1-9.486 9.972 9.972 0 0 0-14.271 13.908z" data-name="layer1"/></svg>