<svg xmlns="http://www.w3.org/2000/svg" viewBox="0 0 64 64" aria-labelledby="title" aria-describedby="desc"><path data-name="layer2" fill="none" stroke="#202020" stroke-miterlimit="10" stroke-width="2" d="M41.6 37.6l-10 12.5h8L30 62" stroke-linejoin="round" stroke-linecap="round"/><path data-name="layer1" d="M17.7 31.1A10 10 0 1 1 31.1 18M22 2.1v4m-16 16H2M8.4 8.5l2.3 2.3m24.9-2.3l-2.3 2.3M10.7 33.4l-2.3 2.2" fill="none" stroke="#202020" stroke-miterlimit="10" stroke-width="2" stroke-linejoin="round" stroke-linecap="round"/><path data-name="layer1" d="M46 44.1h4a10 10 0 0 0 0-20 13 13 0 0 0-25 4.1h-1a8 8 0 0 0 0 16h4" fill="none" stroke="#202020" stroke-miterlimit="10" stroke-width="2" stroke-linejoin="round" stroke-linecap="round"/></svg>