<svg xmlns="http://www.w3.org/2000/svg" viewBox="0 0 64 64" aria-labelledby="title" aria-describedby="desc"><path data-name="layer2" d="M50 24a13 13 0 0 0-25 4.1h-1a8 8 0 1 0 0 16h26a10 10 0 0 0 0-20z" fill="#cdf0f0"/><path data-name="opacity" d="M25 30a14 14 0 0 1 .1-1.9H24a8 8 0 1 0 0 16h15A14 14 0 0 1 25 30z" fill="#000064" opacity=".1"/><path data-name="opacity" d="M46.2 24.8a10.1 10.1 0 0 0-3.5 2.5L45 27a12 12 0 0 1 11.8 14.3A10 10 0 0 0 50.6 24H50a13 13 0 0 0-20.8-4.6 17.7 17.7 0 0 1 16.9 5.4z" fill="#fff" opacity=".5"/><path data-name="layer1" d="M24 28h1.1a13 13 0 0 1 6.1-10 10 10 0 1 0-13.5 13.1A8 8 0 0 1 24 28z" fill="#fc0"/><path data-name="opacity" d="M17.7 31.1A8 8 0 0 1 24 28h1.1a13 13 0 0 1 6.1-10 10 10 0 0 0-.9-1.7 13 13 0 0 0-10.2 11.8H19a7.9 7.9 0 0 0-4 1.1 10 10 0 0 0 2.7 1.9z" fill="#000064" opacity=".1"/><path data-name="stroke" fill="none" stroke="#2e4369" stroke-linecap="round" stroke-linejoin="round" stroke-width="2" d="M41.6 37.6l-10 12.5h8L30 62M17.7 31.1A10 10 0 1 1 31.1 18M22 2.1v4m-16 16H2M8.4 8.5l2.3 2.3m24.9-2.3l-2.3 2.3M10.7 33.4l-2.3 2.2"/><path data-name="stroke" d="M46 44.1h4a10 10 0 0 0 0-20 13 13 0 0 0-25 4.1h-1a8 8 0 0 0 0 16h4" fill="none" stroke="#2e4369" stroke-linecap="round" stroke-linejoin="round" stroke-width="2"/></svg>