<svg xmlns="http://www.w3.org/2000/svg" viewBox="0 0 64 64" aria-labelledby="title" aria-describedby="desc"><circle data-name="layer5" cx="32" cy="20" r="6" fill="#a0d6ef"/><rect data-name="layer4" x="30" y="33" width="4" height="29" rx="2" ry="2" fill="#7b8baf"/><path data-name="layer3" d="M40 10a8 8 0 1 0-15.4 3l3 3a6 6 0 0 1 8.8-.1l3-2.9a8 8 0 0 0 .6-3z" fill="#c3d6e0"/><path data-name="layer2" d="M36.4 15.9A6 6 0 0 1 38 20v.3a8 8 0 0 1 4.6 3.2A6 6 0 0 0 40.5 12h-.7l-.3 1zM26 20.3V20a6 6 0 0 1 1.6-4l-3-3-.3-1h-.7a6 6 0 0 0-2.1 11.4 8 8 0 0 1 4.5-3.1z" fill="#ed4c49"/><path data-name="layer1" d="M38 20.3a6 6 0 0 1-12 0 8 8 0 0 0-6 7.7v16a8 8 0 0 0 6 7.7l4 .3V35a2 2 0 0 1 4 0v17.1l4-.3a8 8 0 0 0 6-7.8V28a8 8 0 0 0-6-7.7z" fill="#f27e7c"/><path data-name="opacity" d="M34.2 2.3l-9.9 9.9.3.8 3 3a6 6 0 0 1 4.2-2l7.5-7.5a8 8 0 0 0-5.1-4.2z" fill="#fff" opacity=".5"/><path data-name="opacity" d="M26 20.3V20a6 6 0 0 1 1.6-4l-3-3-.3-1h-.7a6 6 0 0 0-2.1 11.4 8 8 0 0 1 4.5-3.1z" fill="#000064" opacity=".2"/><path data-name="opacity" d="M26 20.3a8 8 0 0 0-6 7.7v16a8 8 0 0 0 6 7.7l4 .3V35c-2.6 0-3 2.4-3 3.4V48a2.4 2.4 0 0 1-1.9-2.4V30.9a6 6 0 0 1 1.2-4 7.2 7.2 0 0 1 1.7 1.2c3.7 3.3 9.2-.7 8.1-3.7a6 6 0 0 1-10-4.2zM34 49v3.1l4-.3a8 8 0 0 0 4.2-2.8H34z" fill="#000064" opacity=".15"/><path data-name="opacity" d="M32 55a2 2 0 0 1-2-2v7a2 2 0 0 0 4 0v-7a2 2 0 0 1-2 2z" fill="#000064" opacity=".2"/><circle data-name="stroke" cx="32" cy="20" r="6" fill="none" stroke="#2e4369" stroke-linecap="round" stroke-linejoin="round" stroke-width="2"/><path data-name="stroke" d="M21.4 23.4A6 6 0 0 1 23.5 12m19.1 11.4A6 6 0 0 0 40.5 12m-15.9 1a8 8 0 1 1 14.8 0" fill="none" stroke="#2e4369" stroke-linecap="round" stroke-linejoin="round" stroke-width="2"/><path data-name="stroke" d="M10 10h8a8.2 8.2 0 0 1 5.9 2.4l3.7 3.6M54 10h-8a8.2 8.2 0 0 0-5.9 2.4L36.4 16M26 51.7a8 8 0 0 1-6-7.7V28a8 8 0 0 1 6-7.7m12 0a8 8 0 0 1 6 7.7v16a8 8 0 0 1-6 7.7" fill="none" stroke="#2e4369" stroke-linecap="round" stroke-linejoin="round" stroke-width="2"/><rect data-name="stroke" x="30" y="33" width="4" height="29" rx="2" ry="2" fill="none" stroke="#2e4369" stroke-linecap="round" stroke-linejoin="round" stroke-width="2"/></svg>