<svg viewBox="0 0 64 64" xmlns="http://www.w3.org/2000/svg" aria-labelledby="title" aria-describedby="desc"><path fill="#202020" d="M53 32a9.95 9.95 0 0 0-2.487.326l-1.27-2.6A25.58 25.58 0 0 1 59 28a2 2 0 0 0 0-4 28.9 28.9 0 0 0-11.507 2.145c-2.838-5.8-5.387-10.99-5.641-11.416-.532-.885-1.64-2.729-3.8-2.729H31a2 2 0 0 0 0 4h6.887a5.783 5.783 0 0 1 .521.762c.1.178.477.932 1.051 2.09C33.247 23.5 27.978 28 24.045 28H20.9C14.985 23.322 7.007 22 3 22a2 2 0 0 0 0 4c.166 0 13.837.313 19.136 9.389l-2.789 1.117a10.152 10.152 0 1 0 1.485 3.713l2.822-1.129a16.831 16.831 0 0 1 .5 3.053A2 2 0 0 0 26.153 44H37a2 2 0 0 0 1.983-1.752 16.424 16.424 0 0 1 6.737-10.611c.4.809.794 1.627 1.192 2.445A9.981 9.981 0 1 0 53 32zM17 42a6.023 6.023 0 1 1-1.5-3.953l-5.244 2.1a2 2 0 1 0 1.486 3.713l5.244-2.1c.007.08.014.16.014.24zm36 6a5.995 5.995 0 0 1-4.272-10.205c.863 1.77 1.7 3.494 2.474 5.082a2 2 0 0 0 3.6-1.75c-.593-1.221-1.464-3.01-2.476-5.086A6 6 0 1 1 53 48z" data-name="layer1"/></svg>