<svg xmlns="http://www.w3.org/2000/svg" viewBox="0 0 64 64" aria-labelledby="title" aria-describedby="desc"><path data-name="layer2" d="M25 28h-8.6a17.1 17.1 0 0 1 8.7 14H38a18.9 18.9 0 0 1 9.6-13.2l-5.5-11.2C35.2 22.7 29.3 28 25 28z" fill="#ed4c49"/><path data-name="opacity" d="M47.6 28.8l-5.5-11.2-3.8 2.8 4.8 11.7a18.6 18.6 0 0 1 4.5-3.3z" fill="#fff" opacity=".25"/><path data-name="opacity" d="M25.2 42H38a17.5 17.5 0 0 1 1.7-5H28.3c-1.5-6.1-9-8.2-11.5-8.8A17 17 0 0 1 25.2 42z" fill="#000064" opacity=".15"/><path data-name="layer1" d="M10 34a8 8 0 1 0 8 8 8 8 0 0 0-8-8zm0 12a4 4 0 1 1 4-4 4 4 0 0 1-4 4zm44-12a8 8 0 1 0 8 8 8 8 0 0 0-8-8zm0 12a4 4 0 1 1 4-4 4 4 0 0 1-4 4z" fill="#7b8baf"/><circle data-name="stroke" cx="10" cy="42" r="8" fill="none" stroke="#2e4369" stroke-linecap="round" stroke-linejoin="round" stroke-width="2"/><circle data-name="stroke" cx="54" cy="42" r="8" fill="none" stroke="#2e4369" stroke-linecap="round" stroke-linejoin="round" stroke-width="2"/><path data-name="stroke" d="M2 24c3.7 0 22 2 23.2 18H38s2-16 22-16" fill="none" stroke="#2e4369" stroke-linecap="round" stroke-linejoin="round" stroke-width="2"/><path data-name="stroke" d="M16.4 28H25c4.3 0 10.1-5.3 17-10.4" fill="none" stroke="#2e4369" stroke-linecap="round" stroke-linejoin="round" stroke-width="2"/><path data-name="stroke" d="M32 14h7c1 0 1.6.9 2.1 1.8S54 42 54 42m-24-8l-20 8" fill="none" stroke="#2e4369" stroke-linecap="round" stroke-linejoin="round" stroke-width="2"/></svg>