<svg xmlns="http://www.w3.org/2000/svg" viewBox="0 0 64 64" aria-labelledby="title" aria-describedby="desc"><path data-name="layer1" fill="#c69483" d="M14.4 25L2.1 47h40L31.9 29"/><path data-name="layer2" d="M24.1 27l7.9 2-6.8-12c-1.1-2-5.1-2-6.2 0l-4.5 8 5.6 4zm20.3-2.9L41 30.2l4.3 3 3-1.5 6 1.5-5.1-9.1c-.9-1.5-3.9-1.5-4.8 0z" fill="#d1deff"/><path data-name="layer1" fill="#c69483" d="M54.3 33.3L62.1 47h-20l-5.6-9.8 4.5-7 4.3 3.1 3-1.5 6 1.5z"/><path data-name="opacity" d="M54.3 33.3l-5.1-9.1c-.8-1.5-3.9-1.5-4.8 0l-3.4 6-4.5 7 5.6 9.8h20z" fill="#000064" opacity=".15"/><path data-name="stroke" fill="none" stroke="#2e4369" stroke-linecap="round" stroke-linejoin="round" stroke-width="2" d="M14.4 25L2.1 47h40L31.9 29m16.2 18h14l-7.8-13.7"/><path data-name="stroke" d="M24.1 27l7.9 2-6.8-12c-1.1-2-5.1-2-6.2 0l-4.5 8 5.6 4zm20.3-2.9L41 30.2l4.3 3 3-1.5 6 1.5-5.1-9.1c-.9-1.5-3.9-1.5-4.8 0z" fill="none" stroke="#2e4369" stroke-linecap="round" stroke-linejoin="round" stroke-width="2"/></svg>