<svg xmlns="http://www.w3.org/2000/svg" viewBox="0 0 64 64" aria-labelledby="title" aria-describedby="desc"><path data-name="layer1" d="M58 16a4 4 0 0 1 4 4v28a14 14 0 0 1-14 14h-4a14 14 0 0 1-14-14V20a4 4 0 0 1 4-4z" fill="#c0cfe9"/><path data-name="opacity" d="M52 60h-4a14 14 0 0 1-14-14V18a4 4 0 0 1 .6-2H34a4 4 0 0 0-4 4v28a14 14 0 0 0 14 14h4a13.9 13.9 0 0 0 8.1-2.6 14 14 0 0 1-4.1.6z" fill="#000064" opacity=".14"/><path data-name="stroke" fill="none" stroke="#2e4369" stroke-linecap="round" stroke-linejoin="round" stroke-width="2" d="M30 30h32M2 4v19a9 9 0 0 0 9 9 9 9 0 0 0 9-9v-8A13 13 0 0 1 33 2a13 13 0 0 1 13 13v1"/><path data-name="stroke" d="M58 16a4 4 0 0 1 4 4v28a14 14 0 0 1-14 14h-4a14 14 0 0 1-14-14V20a4 4 0 0 1 4-4zm-12 0v14" fill="none" stroke="#2e4369" stroke-linecap="round" stroke-linejoin="round" stroke-width="2"/></svg>