<svg xmlns="http://www.w3.org/2000/svg" viewBox="0 0 64 64" aria-labelledby="title" aria-describedby="desc"><rect data-name="layer2" x="12" y="2" width="40" height="60" rx="18" ry="18" fill="#c3d6f9"/><path data-name="opacity" d="M40 58h-4a18 18 0 0 1-18-18V16a17.9 17.9 0 0 1 5.2-12.7A18 18 0 0 0 12 20v24a18 18 0 0 0 18 18h4a17.9 17.9 0 0 0 12.8-5.3A17.9 17.9 0 0 1 40 58z" fill="#000064" opacity=".14"/><path data-name="layer1" d="M36 20a4 4 0 0 1-4 4 4 4 0 0 1-4-4v-4a4 4 0 0 1 4-4 4 4 0 0 1 4 4z" fill="#7b8baf"/><path data-name="opacity" d="M33 24a4 4 0 0 1-4 4 4 4 0 0 1-4-4v-4a4 4 0 0 1 4-4 4 4 0 0 1 4 4z" fill="#000064" opacity=".14"/><path data-name="opacity" d="M36 2.1c-3.3.5-4 1.9-4 1.9h-.2A18 18 0 0 1 48 22v24a18.1 18.1 0 0 1-.3 3.2l.3-.2s4-1 4-13V20A18 18 0 0 0 36 2.1z" fill="#fff" opacity=".25"/><rect data-name="stroke" x="12" y="2" width="40" height="60" rx="18" ry="18" fill="none" stroke="#2e4369" stroke-linecap="round" stroke-linejoin="round" stroke-width="2"/><path data-name="stroke" d="M36 20a4 4 0 0 1-4 4 4 4 0 0 1-4-4v-4a4 4 0 0 1 4-4 4 4 0 0 1 4 4z" fill="none" stroke="#2e4369" stroke-linecap="round" stroke-linejoin="round" stroke-width="2"/></svg>