<svg xmlns="http://www.w3.org/2000/svg" viewBox="0 0 64 64" aria-labelledby="title" aria-describedby="desc"><path data-name="layer1" d="M21.007 32.758a3 3 0 0 1 4.235.249L28 36.109V9a3 3 0 0 1 6 0v27.11l2.758-3.103a3 3 0 0 1 4.485 3.986L30.999 48.516l-10.24-11.523a2.999 2.999 0 0 1 .249-4.235zM10 52.999A3 3 0 0 1 13 50h36a3 3 0 1 1 0 6H13a3 3 0 0 1-3-3.001z" fill="#bacae9"/><path data-name="stroke" d="M21.007 32.758a3 3 0 0 1 4.235.249L28 36.109V9a3 3 0 0 1 6 0v27.11l2.758-3.103a3 3 0 0 1 4.485 3.986L30.999 48.516l-10.24-11.523a2.999 2.999 0 0 1 .249-4.235zM10 52.999A3 3 0 0 1 13 50h36a3 3 0 1 1 0 6H13a3 3 0 0 1-3-3.001z" fill="none" stroke="#2e4369" stroke-linecap="round" stroke-linejoin="round" stroke-width="2"/></svg>