<svg viewBox="0 0 64 64" xmlns="http://www.w3.org/2000/svg" aria-labelledby="title" aria-describedby="desc"><path stroke-width="2" stroke-miterlimit="10" stroke-linecap="round" stroke="#202020" fill="none" d="M54 11a3.001 3.001 0 0 1-3 3H15a3 3 0 1 1 0-6h35.999A3 3 0 0 1 54 11z" data-name="layer1" stroke-linejoin="round"/><path stroke-width="2" stroke-miterlimit="10" stroke-linecap="round" stroke="#202020" fill="none" d="M23.007 31.242a3.001 3.001 0 0 0 4.236-.249L30 27.891V55a3 3 0 0 0 6 0V27.89l2.758 3.103a3 3 0 0 0 4.485-3.986L33 15.484 22.758 27.007a3 3 0 0 0 .249 4.235z" data-name="layer2" stroke-linejoin="round"/></svg>