<svg xmlns="http://www.w3.org/2000/svg" viewBox="0 0 64 64" aria-labelledby="title" aria-describedby="desc"><path data-name="layer2" fill="#202020" d="M19.6 19l12.1-5L0 0l14.8 30.9L19.6 19z"/><path data-name="layer1" d="M62.8 40.2l1.2-1.3-7.6-7.6a2 2 0 0 0-2.8 2.8l2.8 2.9H41V21.6l2.7 2.7a2 2 0 1 0 2.8-2.8L39 14l-1.4 1.4-6.1 6.1a2 2 0 1 0 2.8 2.8l2.7-2.7V37H21.7l2.8-2.8a2 2 0 1 0-2.8-2.8L14 38.9l1.2 1.2.4.4 5.9 5.9a2 2 0 1 0 2.8-2.8L21.7 41H37v15.4l-2.7-2.7a2 2 0 1 0-2.8 2.8l6.1 6.1L39 64l1.4-1.4 6.1-6.1a2 2 0 0 0-2.8-2.8L41 56.4V41h15.3l-2.7 2.7a2 2 0 1 0 2.8 2.8l5.9-5.9z" fill="#202020"/></svg>