<svg xmlns="http://www.w3.org/2000/svg" viewBox="0 0 64 64" aria-labelledby="title" aria-describedby="desc"><path data-name="layer1" d="M52.5 16c-2.2 0-3.1 2-4 4l-5 12 2-22a4 4 0 0 0-8 0l-2 20V6a4 4 0 0 0-8 0v22l-3-20a4 4 0 1 0-8 0l3 33.4-4.5-7.2a4 4 0 1 0-7.1 3.6l11.8 19.4a10.1 10.1 0 0 0 8.5 4.8h13.3a10 10 0 0 0 10-10V39l5-19c.5-2.1-1.8-4-4-4z" fill="#e5ebf7"/><path data-name="opacity" d="M42.5 59H29.2a10.1 10.1 0 0 1-8.6-4.8L8.9 34.8a4 4 0 0 1-.4-1.5 4 4 0 0 0-.6 4.5l11.8 19.4a10.1 10.1 0 0 0 8.5 4.8h13.3a10 10 0 0 0 9.9-8.4 10 10 0 0 1-8.9 5.4z" fill="#000028" opacity=".12"/><path data-name="stroke" d="M19.7 57.2L7.9 37.8a4 4 0 0 1 1.8-5.4 4 4 0 0 1 5.3 1.8l4.5 7.2" fill="none" stroke="#2e4369" stroke-linecap="round" stroke-linejoin="round" stroke-width="2"/><path data-name="stroke" d="M19.5 41.4L16.5 8a4 4 0 0 1 4-4 4 4 0 0 1 4 4l3 20V6a4 4 0 0 1 4-4 4 4 0 0 1 4 4v24l2-20a4 4 0 0 1 4-4 4 4 0 0 1 4 4l-2 22 5-12c.9-2 1.8-4 4-4s4.5 1.9 4 4l-5 19v13a10 10 0 0 1-10 10H28.2a10.1 10.1 0 0 1-8.6-4.8" fill="none" stroke="#2e4369" stroke-linecap="round" stroke-linejoin="round" stroke-width="2"/></svg>