<svg viewBox="0 0 64 64" xmlns="http://www.w3.org/2000/svg" aria-labelledby="title" aria-describedby="desc"><path fill="#202020" d="M53.858 15.934c-2.356 0-3.321 2.133-4.267 4.267L44.257 32l2.134-22.467a4.267 4.267 0 1 0-8.533 0l-2.134 20.334v-24.6a4.267 4.267 0 1 0-8.533 0v22.466L23.992 7.4a4.267 4.267 0 0 0-8.534 0l3.2 34.644-4.777-7.7a4.266 4.266 0 1 0-7.618 3.841l12.6 19.681A10.756 10.756 0 0 0 27.979 63h14.145c5.892 0 10.667-3.775 10.667-9.667V39.467L58.124 20.2c.524-2.222-1.91-4.266-4.266-4.266z" data-name="layer1"/></svg>