<svg xmlns="http://www.w3.org/2000/svg" viewBox="0 0 64 64" aria-labelledby="title" aria-describedby="desc"><path data-name="layer1" d="M4 3v58h4v-3a1 1 0 0 1 1-1h2a1 1 0 0 1 1 1v3h40v-3a1 1 0 0 1 1-1h2a1 1 0 0 1 1 1v3h4V3z" fill="none" stroke="#202020" stroke-miterlimit="10" stroke-width="2" stroke-linejoin="round" stroke-linecap="round"/><rect data-name="layer1" x="8" y="47" width="4" height="6" rx="1" ry="1" fill="none" stroke="#202020" stroke-miterlimit="10" stroke-width="2" stroke-linejoin="round" stroke-linecap="round"/><rect data-name="layer1" x="8" y="37" width="4" height="6" rx="1" ry="1" fill="none" stroke="#202020" stroke-miterlimit="10" stroke-width="2" stroke-linejoin="round" stroke-linecap="round"/><rect data-name="layer1" x="8" y="27" width="4" height="6" rx="1" ry="1" fill="none" stroke="#202020" stroke-miterlimit="10" stroke-width="2" stroke-linejoin="round" stroke-linecap="round"/><rect data-name="layer1" x="8" y="17" width="4" height="6" rx="1" ry="1" fill="none" stroke="#202020" stroke-miterlimit="10" stroke-width="2" stroke-linejoin="round" stroke-linecap="round"/><rect data-name="layer1" x="8" y="7" width="4" height="6" rx="1" ry="1" fill="none" stroke="#202020" stroke-miterlimit="10" stroke-width="2" stroke-linejoin="round" stroke-linecap="round"/><path data-name="layer2" fill="none" stroke="#202020" stroke-miterlimit="10" stroke-width="2" d="M16 34h32v22H16zm0-26h32v22H16z" stroke-linejoin="round" stroke-linecap="round"/><rect data-name="layer1" x="52" y="47" width="4" height="6" rx="1" ry="1" fill="none" stroke="#202020" stroke-miterlimit="10" stroke-width="2" stroke-linejoin="round" stroke-linecap="round"/><rect data-name="layer1" x="52" y="37" width="4" height="6" rx="1" ry="1" fill="none" stroke="#202020" stroke-miterlimit="10" stroke-width="2" stroke-linejoin="round" stroke-linecap="round"/><rect data-name="layer1" x="52" y="27" width="4" height="6" rx="1" ry="1" fill="none" stroke="#202020" stroke-miterlimit="10" stroke-width="2" stroke-linejoin="round" stroke-linecap="round"/><rect data-name="layer1" x="52" y="17" width="4" height="6" rx="1" ry="1" fill="none" stroke="#202020" stroke-miterlimit="10" stroke-width="2" stroke-linejoin="round" stroke-linecap="round"/><rect data-name="layer1" x="52" y="7" width="4" height="6" rx="1" ry="1" fill="none" stroke="#202020" stroke-miterlimit="10" stroke-width="2" stroke-linejoin="round" stroke-linecap="round"/></svg>