<svg xmlns="http://www.w3.org/2000/svg" viewBox="0 0 64 64" aria-labelledby="title" aria-describedby="desc"><path data-name="layer1" d="M18.9 20.1h12.3l-5.6-5.6-.3-.4H12.9zm6.4 10l.3-.4 5.6-5.6H18.8l-6 6zm11.6-10h12.3l-5.6-5.6-.3-.4H30.9zm-.1 4l-6 6h12.5l.3-.4 5.6-5.6zm12 6H62v-6h-7.2l-6 6zM7.6 14.6l-.3-.4H2v6h11.2z" fill="#202020"/><path data-name="layer2" d="M2 60.1h60v-26H2zm10-10h40a2 2 0 0 1 0 4H12a2 2 0 0 1 0-4z" fill="#202020"/><path data-name="layer1" fill="#202020" d="M48.9 14.1l6 6H62v-6H48.9zM7.6 29.7l5.6-5.6H2v6h5.3z"/></svg>