<svg xmlns="http://www.w3.org/2000/svg" viewBox="0 0 64 64" aria-labelledby="title" aria-describedby="desc"><circle data-name="layer3" cx="34" cy="32" r="28" fill="#8fa9d8"/><path data-name="opacity" d="M37 56a28 28 0 0 1-23.8-42.7 28 28 0 1 0 44.6 33.4A27.9 27.9 0 0 1 37 56z" fill="#000064" opacity=".16"/><circle data-name="layer2" cx="18" cy="32" r="4" fill="#3c5489"/><circle data-name="layer2" cx="26" cy="18" r="4" fill="#3c5489"/><circle data-name="layer2" cx="42" cy="18" r="4" fill="#3c5489"/><circle data-name="layer2" cx="26" cy="46" r="4" fill="#3c5489"/><circle data-name="layer2" cx="42" cy="46" r="4" fill="#3c5489"/><circle data-name="layer2" cx="50" cy="32" r="4" fill="#3c5489"/><circle data-name="layer1" cx="30" cy="28" r="1" fill="#c7d4ec"/><circle data-name="layer1" cx="38" cy="28" r="1" fill="#c7d4ec"/><circle data-name="layer1" cx="30" cy="36" r="1" fill="#c7d4ec"/><circle data-name="layer1" cx="38" cy="36" r="1" fill="#c7d4ec"/><circle data-name="stroke" cx="34" cy="32" r="28" fill="none" stroke="#2e4369" stroke-linecap="round" stroke-miterlimit="10" stroke-width="2" stroke-linejoin="round"/><circle data-name="stroke" cx="18" cy="32" r="4" fill="none" stroke="#2e4369" stroke-linecap="round" stroke-miterlimit="10" stroke-width="2" stroke-linejoin="round"/><circle data-name="stroke" cx="26" cy="18" r="4" fill="none" stroke="#2e4369" stroke-linecap="round" stroke-miterlimit="10" stroke-width="2" stroke-linejoin="round"/><circle data-name="stroke" cx="42" cy="18" r="4" fill="none" stroke="#2e4369" stroke-linecap="round" stroke-miterlimit="10" stroke-width="2" stroke-linejoin="round"/><circle data-name="stroke" cx="26" cy="46" r="4" fill="none" stroke="#2e4369" stroke-linecap="round" stroke-miterlimit="10" stroke-width="2" stroke-linejoin="round"/><circle data-name="stroke" cx="42" cy="46" r="4" fill="none" stroke="#2e4369" stroke-linecap="round" stroke-miterlimit="10" stroke-width="2" stroke-linejoin="round"/><circle data-name="stroke" cx="50" cy="32" r="4" fill="none" stroke="#2e4369" stroke-linecap="round" stroke-miterlimit="10" stroke-width="2" stroke-linejoin="round"/><path data-name="stroke" d="M20 56.2c-4 4.2-13.6 5-18 1.7" fill="none" stroke="#2e4369" stroke-linecap="round" stroke-miterlimit="10" stroke-width="2" stroke-linejoin="round"/><circle data-name="stroke" cx="30" cy="28" r="1" fill="none" stroke="#2e4369" stroke-linecap="round" stroke-miterlimit="10" stroke-width="2" stroke-linejoin="round"/><circle data-name="stroke" cx="38" cy="28" r="1" fill="none" stroke="#2e4369" stroke-linecap="round" stroke-miterlimit="10" stroke-width="2" stroke-linejoin="round"/><circle data-name="stroke" cx="30" cy="36" r="1" fill="none" stroke="#2e4369" stroke-linecap="round" stroke-miterlimit="10" stroke-width="2" stroke-linejoin="round"/><circle data-name="stroke" cx="38" cy="36" r="1" fill="none" stroke="#2e4369" stroke-linecap="round" stroke-miterlimit="10" stroke-width="2" stroke-linejoin="round"/></svg>