<svg xmlns="http://www.w3.org/2000/svg" viewBox="0 0 64 64" aria-labelledby="title" aria-describedby="desc"><path data-name="layer1" fill="#fff" d="M18 23l-8 8h18l8-8H18z"/><path data-name="layer2" fill="#485a7b" d="M2 23v8h8l8-8H2zm34 0l-8 8h18l8-8H36z"/><path data-name="layer1" fill="#fff" d="M62 23h-8l-8 8h16v-8z"/><path data-name="layer3" fill="#778399" d="M2 31h60v28H2z"/><path data-name="layer2" d="M8 13.6C.7 15.1 2.1 23 2.1 23l18-3.8-9.5-6.2z" fill="#485a7b"/><path data-name="layer1" fill="#fff" d="M10.6 13l9.5 6.2 15.7-3.4-9.5-6.1L10.6 13zm50.2-2.5l-1.7-7.8-17.7 3.8 9.6 6.1 9.8-2.1z"/><path data-name="layer2" fill="#485a7b" d="M41.4 6.5L26.3 9.7l9.5 6.1L51 12.6l-9.6-6.1z"/><path data-name="layer1" fill="#fff" d="M12 43h40v8H12z"/><path data-name="stroke" fill="none" stroke="#2e4369" stroke-linecap="round" stroke-miterlimit="10" stroke-width="2" d="M12 51h40M18 23l-8 8m.6-18l9.5 6.2m6.2-9.5l9.5 6.1m5.6-9.3l9.6 6.1M36 23l-8 8m26-8l-8 8m16 0v-8H2v8" stroke-linejoin="round"/><path data-name="stroke" fill="none" stroke="#2e4369" stroke-linecap="round" stroke-miterlimit="10" stroke-width="2" d="M2 31h60v28H2zM59.1 2.7L8 13.6C.7 15.1 2.1 23 2.1 23l58.7-12.5z" stroke-linejoin="round"/></svg>