<svg xmlns="http://www.w3.org/2000/svg" viewBox="0 0 64 64" aria-labelledby="title" aria-describedby="desc"><path data-name="layer2" d="M10.5 36.5s2.6 20.7 2.8 23.1A2.4 2.4 0 0 0 16 62h31.9a2.4 2.4 0 0 0 2.6-2.4c.3-2.4 2.9-23.4 2.9-23.4M20 46l1.6 16M44 46l-1.6 16M32 46v16" fill="none" stroke="#202020" stroke-linecap="round" stroke-linejoin="round" stroke-width="2"/><path data-name="layer1" d="M32 2C18.3 2 6 16.7 6 28s11.3 10 16 10h24.1c4.8 0 11.7-2 11.9-10S50.5 2 32 2zM20 20l-2 2m14-2l-2 2m-2-10l-2 2m14-2l-2 2m6 6l-2 2" fill="none" stroke="#202020" stroke-linecap="round" stroke-linejoin="round" stroke-width="2"/></svg>