<svg xmlns="http://www.w3.org/2000/svg" viewBox="0 0 64 64" aria-labelledby="title" aria-describedby="desc"><path data-name="layer2" d="M32 1.5c-13.7 0-26 14.7-26 26 0 9.2 7.4 10 12.8 10h27.3c4.8 0 11.7-2 11.9-10s-7.5-26-26-26zM21.4 20.9l-2 2a2 2 0 1 1-2.8-2.8l2-2a2 2 0 1 1 2.8 2.8zm4.6-5.4a2 2 0 0 1-1.4-3.4l2-2a2 2 0 0 1 2.8 2.8l-2 2a2 2 0 0 1-1.4.6zm7.4 5.4l-2 2a2 2 0 1 1-2.8-2.8l2-2a2 2 0 1 1 2.8 2.8zm4.6-5.4a2 2 0 0 1-1.4-3.4l2-2a2 2 0 1 1 2.8 2.8l-2 2a2 2 0 0 1-1.4.6zm7.4 5.4l-2 2a2 2 0 1 1-2.8-2.8l2-2a2 2 0 1 1 2.8 2.8z" fill="#202020"/><path data-name="layer1" d="M21.9 41.5h-3.1a25.8 25.8 0 0 1-7.8-1c.8 6.2 2.2 17.8 2.4 19.5a2.4 2.4 0 0 0 2.6 2.5h3.6L18 46.7a2 2 0 1 1 4-.4l1.6 16v.2H30v-16a2 2 0 0 1 4 0v16h6.4v-.2l1.6-16a2 2 0 1 1 4 .4l-1.6 15.8h3.4a2.4 2.4 0 0 0 2.6-2.4c.2-1.8 1.7-13.7 2.4-19.8a19.8 19.8 0 0 1-7 1.2z" fill="#202020"/></svg>