<svg viewBox="0 0 64 64" xmlns="http://www.w3.org/2000/svg" aria-labelledby="title" aria-describedby="desc"><path d="M18 18h44v26H18z" fill="#202020" data-name="layer2"/><path d="M6 26v-6H2v10h4v-4z" fill="#202020" data-name="layer1"/><path d="M10 56H6V34H2v26h44v-4H10z" fill="#202020" data-name="layer2"/><path d="M14 18v-6h-4v10h4v-4z" fill="#202020" data-name="layer1"/><path d="M18 48h-4V26h-4v26h44v-4H18z" fill="#202020" data-name="layer2"/><path fill="#202020" d="M18 4v10h44V4zm6 7a2 2 0 1 1 2-2 2 2 0 0 1-2 2zm6 0a2 2 0 1 1 2-2 2 2 0 0 1-2 2zm6 0a2 2 0 1 1 2-2 2 2 0 0 1-2 2z" data-name="layer1"/></svg>