<svg xmlns="http://www.w3.org/2000/svg" viewBox="0 0 64 64" aria-labelledby="title" aria-describedby="desc"><path data-name="layer1" d="M16 52a8 8 0 0 0 16 0v-8h-8a8 8 0 0 0-8 8zM32 4v12s4 0 16 2C48 6.3 38 8 32 4z" fill="#8fa9d8"/><path data-name="opacity" d="M16 52a8 8 0 0 0 .1 1.5A8 8 0 0 1 24 47h8v-3h-8a8 8 0 0 0-8 8zm31.7-34h.3C48 6.3 38 8 32 4v3c5.4 3.6 14.1 2.5 15.7 11z" fill="#fff" opacity=".25"/><path data-name="stroke" d="M16 52a8 8 0 0 0 16 0v-8h-8a8 8 0 0 0-8 8zm16-36v28m0-40v12s4 0 16 2C48 6.3 38 8 32 4z" fill="none" stroke="#2e4369" stroke-linecap="round" stroke-miterlimit="10" stroke-width="2" stroke-linejoin="round"/></svg>