<svg xmlns="http://www.w3.org/2000/svg" viewBox="0 0 64 64" aria-labelledby="title" aria-describedby="desc"><path data-name="layer5" fill="#7b8baf" d="M2 2h60v60H2z"/><path data-name="layer3" fill="#ef4d4d" d="M9 46h12v8H9z"/><path data-name="layer4" fill="#18c69c" d="M26 22h12v8H26z"/><path data-name="layer1" fill="#ffd150" d="M26 30h12v8H26z"/><path data-name="layer3" fill="#ef4d4d" d="M26 46h12v8H26z"/><path data-name="layer2" fill="#f7844b" d="M26 38h12v8H26z"/><path data-name="layer4" fill="#18c69c" d="M26 14h12v8H26z"/><path data-name="layer3" fill="#ef4d4d" d="M44 46h11v8H44z"/><path data-name="layer2" fill="#f7844b" d="M44 38h11v8H44z"/><path data-name="layer1" fill="#ffd150" d="M44 30h11v8H44z"/><path data-name="stroke" fill="none" stroke="#2e4369" stroke-linecap="round" stroke-miterlimit="10" stroke-width="2" d="M2 2h60v60H2zm24 20h12m-12 8h12m-12 8h12m-12 8h12m6-8h11m-11 8h11" stroke-linejoin="round"/><path data-name="stroke" fill="none" stroke="#2e4369" stroke-linecap="round" stroke-miterlimit="10" stroke-width="2" d="M9 46h12v8H9zm17-32h12v40H26zm18 16h11v24H44z" stroke-linejoin="round"/></svg>