<svg xmlns="http://www.w3.org/2000/svg" viewBox="0 0 64 64" aria-labelledby="title" aria-describedby="desc"><path data-name="layer1" d="M47 24.8a13.9 13.9 0 0 0-6.7-12 2 2 0 0 0-2.1 3.4 10 10 0 0 1 0 17.1 2 2 0 1 0 2.1 3.4A13.9 13.9 0 0 0 47 24.8z" fill="#202020"/><path data-name="layer1" d="M46.2 7.2a2 2 0 1 0-2.4 3.2 18 18 0 0 1 0 28.8 2 2 0 0 0 2.4 3.2 22 22 0 0 0 0-35.2z" fill="#202020"/><path data-name="layer1" d="M52 1.6a2 2 0 0 0-2.5 3.1 26 26 0 0 1 .1 40.2 2 2 0 0 0 2.5 3.1A30 30 0 0 0 52 1.6z" fill="#202020"/><path data-name="layer2" d="M1 60.9a2 2 0 0 0 2 2h28a2 2 0 0 0 2-2v-28H1zm16-22a8 8 0 1 1-8 8 8 8 0 0 1 8-8z" fill="#202020"/><path data-name="layer1" d="M31 10.9H3a2 2 0 0 0-2 2v16h32v-16a2 2 0 0 0-2-2z" fill="#202020"/></svg>