<svg xmlns="http://www.w3.org/2000/svg" viewBox="0 0 64 64" aria-labelledby="title" aria-describedby="desc"><path data-name="layer2" d="M7 55a3 3 0 0 0 3-3V19h52v33a3 3 0 0 1-3 3H5" fill="#f8da82"/><path data-name="layer2" d="M10 52V19h44v-8H20V7H2v45a3 3 0 0 0 3 3h2a3 3 0 0 0 3-3z" fill="#f8da82"/><path data-name="opacity" d="M10 52V19h44v-8H20V7H2v45a3 3 0 0 0 3 3h2a3 3 0 0 0 3-3z" fill="#000064" opacity=".15"/><path data-name="opacity" fill="#fff" opacity=".2" d="M10 19h52v3H10z"/><ellipse data-name="layer1" cx="34.1" cy="44" rx="6" ry="5" fill="#697893"/><ellipse data-name="stroke" cx="34.1" cy="44" rx="6" ry="5" fill="none" stroke="#2e4369" stroke-linecap="round" stroke-miterlimit="10" stroke-width="2" stroke-linejoin="round"/><path data-name="stroke" d="M40 43l-1.9-16s8.9-.5 8.9 6" fill="none" stroke="#2e4369" stroke-linecap="round" stroke-miterlimit="10" stroke-width="2" stroke-linejoin="round"/><path data-name="stroke" d="M54 19v-8H20V7H2v45a3 3 0 0 0 3 3h54a3 3 0 0 0 3-3V19H10v33a3 3 0 0 1-3 3" fill="none" stroke="#2e4369" stroke-linecap="round" stroke-miterlimit="10" stroke-width="2" stroke-linejoin="round"/></svg>