<svg xmlns="http://www.w3.org/2000/svg" viewBox="0 0 64 64" aria-labelledby="title" aria-describedby="desc"><rect data-name="layer1" x="12" y="2" width="40" height="60" rx="3" ry="3" fill="#c0cfe9"/><path data-name="opacity" d="M15 59V5a3 3 0 0 1 3-3h-3a3 3 0 0 0-3 3v54a3 3 0 0 0 3 3h3a3 3 0 0 1-3-3z" fill="#000064" opacity=".14"/><circle data-name="layer3" cx="32" cy="46" r="10" fill="#dee5ff"/><path data-name="opacity" d="M32 56a10 10 0 0 1-8-16 10 10 0 1 0 14 14 9.9 9.9 0 0 1-6 2z" fill="#000064" opacity=".14"/><path data-name="layer2" fill="#a0d6ef" d="M18 8h28v22H18z"/><circle data-name="layer1" cx="32" cy="46" r="2" fill="#c0cfe9"/><path data-name="opacity" fill="#fff" opacity=".25" d="M46 8H34L18 23.6V30h10l18-17.6V8z"/><rect data-name="stroke" x="12" y="2" width="40" height="60" rx="3" ry="3" fill="none" stroke="#2e4369" stroke-linecap="round" stroke-linejoin="round" stroke-width="2"/><circle data-name="stroke" cx="32" cy="46" r="10" fill="none" stroke="#2e4369" stroke-linecap="round" stroke-linejoin="round" stroke-width="2"/><path data-name="stroke" fill="none" stroke="#2e4369" stroke-linecap="round" stroke-linejoin="round" stroke-width="2" d="M18 8h28v22H18z"/><circle data-name="stroke" cx="32" cy="46" r="2" fill="none" stroke="#2e4369" stroke-linecap="round" stroke-linejoin="round" stroke-width="2"/></svg>