<svg xmlns="http://www.w3.org/2000/svg" viewBox="0 0 64 64" aria-labelledby="title" aria-describedby="desc"><path data-name="layer1" d="M16 52a8 8 0 0 0 16 0v-8h-8a8 8 0 0 0-8 8z" fill="#8fa9d8"/><path data-name="opacity" d="M24 44a8 8 0 0 0-7.9 9.5A8 8 0 0 1 24 47h8v-3z" fill="#fff" opacity=".25"/><path data-name="stroke" d="M32 44V4c6 4 14 8.3 14 20M16 52a8 8 0 0 0 16 0v-8h-8a8 8 0 0 0-8 8z" fill="none" stroke="#2e4369" stroke-linecap="round" stroke-miterlimit="10" stroke-width="2" stroke-linejoin="round"/></svg>