<svg xmlns="http://www.w3.org/2000/svg" viewBox="0 0 64 64" aria-labelledby="title" aria-describedby="desc"><path data-name="layer3" d="M2 34v23a3 3 0 0 0 3 3h54a3 3 0 0 0 3-3V34z" fill="#7b8baf"/><circle data-name="layer2" cx="49" cy="47" r="5" fill="#8fa9d8"/><circle data-name="layer2" cx="15" cy="47" r="5" fill="#8fa9d8"/><path data-name="opacity" d="M44 47a5 5 0 0 1 .3-1.7 5 5 0 1 0 6.4 6.4A5 5 0 0 1 44 47zm-34 0a5 5 0 0 1 .3-1.7 5 5 0 1 0 6.4 6.4A5 5 0 0 1 10 47z" fill="#000064" opacity=".2"/><path data-name="layer1" d="M62 21a3 3 0 0 0-3-3H5a3 3 0 0 0-3 3v13h60z" fill="#536897"/><path data-name="stroke" fill="none" stroke="#2e4369" stroke-linecap="round" stroke-miterlimit="10" stroke-width="2" d="M8 18L42 4" stroke-linejoin="round"/><rect data-name="stroke" x="2" y="18" width="60" height="42" rx="3" ry="3" fill="none" stroke="#2e4369" stroke-linecap="round" stroke-miterlimit="10" stroke-width="2" stroke-linejoin="round"/><circle data-name="stroke" cx="49" cy="47" r="5" fill="none" stroke="#2e4369" stroke-linecap="round" stroke-miterlimit="10" stroke-width="2" stroke-linejoin="round"/><circle data-name="stroke" cx="15" cy="47" r="5" fill="none" stroke="#2e4369" stroke-linecap="round" stroke-miterlimit="10" stroke-width="2" stroke-linejoin="round"/><path data-name="stroke" fill="none" stroke="#2e4369" stroke-linecap="round" stroke-miterlimit="10" stroke-width="2" d="M2 26h60M2 34h60m-34 9h8m-8 8h8" stroke-linejoin="round"/></svg>