<svg xmlns="http://www.w3.org/2000/svg" viewBox="0 0 64 64" aria-labelledby="title" aria-describedby="desc"><path data-name="layer1" d="M35.8 42c-2.2 0-4 1.4-4 3s1.8 3 4 3 4-1.4 4-3-1.9-3-4-3z" fill="#202020"/><path data-name="layer1" d="M11.7 20v33a3 3 0 0 1-3 3h52a3 3 0 0 0 3-3V20zm37 16a2 2 0 0 1-2-2 3.1 3.1 0 0 0-.9-2.4 7 7 0 0 0-3.8-1.5l1.6 13.6v.1a6.1 6.1 0 0 1 .1 1.1c0 3.9-3.6 7-8 7s-8-3.1-8-7 3.6-7 8-7a8.9 8.9 0 0 1 3.2.6l-1.4-12.4h2.1c.6 0 5.7-.2 8.8 2.7a7.1 7.1 0 0 1 2.3 5.2 2 2 0 0 1-2 2z" fill="#202020"/><path data-name="layer1" d="M11.7 16h44v-4h-34V8h-18v45a3 3 0 0 0 1.1 2.3 4 4 0 0 1 2.9-3.2V20a4 4 0 0 1 4-4z" fill="#202020"/></svg>