<svg xmlns="http://www.w3.org/2000/svg" viewBox="0 0 64 64" aria-labelledby="title" aria-describedby="desc"><path data-name="layer1" d="M30 40c-2.2 0-4 1.4-4 3s1.8 3 4 3 4-1.4 4-3-1.8-3-4-3z" fill="#202020"/><path data-name="layer1" d="M24 14V8H2v46a2 2 0 0 0 2 2h56a2 2 0 0 0 2-2V14zm19 18a2 2 0 0 1-2-2c0-2.2-.6-3.8-1.7-4.8a5.7 5.7 0 0 0-3.1-1.2l1.7 17.8v.1A6.1 6.1 0 0 1 38 43c0 3.9-3.6 7-8 7s-8-3.1-8-7 3.6-7 8-7a8.9 8.9 0 0 1 3.4.7l-1.6-16.4 1.9-.3c.2 0 4.9-.7 8.2 2.2S45 26.6 45 30a2 2 0 0 1-2 2z" fill="#202020"/></svg>