<svg xmlns="http://www.w3.org/2000/svg" viewBox="0 0 64 64" aria-labelledby="title" aria-describedby="desc"><path data-name="layer1" d="M59.3 41l-9-5.9a4.2 4.2 0 0 0-5.7 1.1c-1.4 1.7-2.9 4.1-6.6 2.7l-3.3-1.7-5.8 6.3 1.2 1 2 1.6c6.2 4.8 12.6 7.9 18.1 7.9 7.8 0 11.5-6.9 11.8-8.7s-1.5-3.5-2.7-4.3zM63.4.6a2 2 0 0 0-2.8 0L29.2 32a26.8 26.8 0 0 1-3.1-4c-3.2-5.2-.3-7.1 1.7-8.6a4.2 4.2 0 0 0 1.1-5.7l-5.9-9c-.8-1.1-1.8-3-4.3-2.6S10 6 10 13.8 15.5 30 23.1 38L.6 60.6a2 2 0 1 0 2.8 2.8l60-60a2 2 0 0 0 0-2.8z" fill="#202020"/></svg>