<svg viewBox="0 0 64 64" xmlns="http://www.w3.org/2000/svg" aria-labelledby="title" aria-describedby="desc"><path fill="#202020" d="M32.561 48.007a14.991 14.991 0 1 0 25.062-14.585c-.008-.008-.012-.016-.02-.023a.214.214 0 0 0-.022-.018 15.032 15.032 0 0 0-2.306-1.881 17.442 17.442 0 0 0 .69-4.246l.012.006c.008-.221.023-.44.023-.662q0-.585-.041-1.161c0-.068-.014-.135-.018-.2a19.665 19.665 0 0 0-.1-.97c-.006-.046-.016-.09-.022-.136q-.073-.519-.178-1.031c0-.02-.01-.039-.014-.059a16.535 16.535 0 0 0-.26-1.082v-.007C52.7 12.254 41.914 5 29 5 14.09 5 2 14.672 2 26.6c0 6.07 3.135 11.551 8.172 15.475L4.41 54.24l17.207-6.863a40.8 40.8 0 0 0 10.944.63zm5.383 2.223A10.989 10.989 0 0 1 53.23 34.944zM47 55a10.938 10.938 0 0 1-6.229-1.942l15.288-15.285A10.99 10.99 0 0 1 47 55z" data-name="layer1"/></svg>