<svg xmlns="http://www.w3.org/2000/svg" viewBox="0 0 64 64" aria-labelledby="title" aria-describedby="desc"><circle data-name="layer2" cx="32" cy="32" r="30" fill="#b3c5e5"/><path data-name="layer1" d="M26 38h-8.5a1.5 1.5 0 0 1-1.5-1.5v-9a1.5 1.5 0 0 1 1.5-1.5h8.8L40 12v40l-9.7-10.2-4-4z" fill="#d8e1f2"/><path data-name="opacity" d="M53.2 10.8L10.8 53.2a30.1 30.1 0 0 0 5.6 4.4l41.2-41.2a30.1 30.1 0 0 0-4.4-5.6z" fill="#000064" opacity=".16"/><path data-name="stroke" fill="none" stroke="#2e4369" stroke-linecap="round" stroke-miterlimit="10" stroke-width="2" d="M30.3 41.8L40 52V32.8m0-9V12L26.3 26h-8.8a1.5 1.5 0 0 0-1.5 1.5v9a1.5 1.5 0 0 0 1.5 1.5H26m27.2-27.2L10.8 53.2" stroke-linejoin="round"/><circle data-name="stroke" cx="32" cy="32" r="30" fill="none" stroke="#2e4369" stroke-linecap="round" stroke-miterlimit="10" stroke-width="2" stroke-linejoin="round"/></svg>