<svg xmlns="http://www.w3.org/2000/svg" viewBox="0 0 64 64" aria-labelledby="title" aria-describedby="desc"><path data-name="layer1" d="M53 37.8a9.9 9.9 0 1 0-10-9.9 10.009 10.009 0 0 0 10 9.9m.9 2.3h-1.8A11.379 11.379 0 0 0 42 51.4v3.9a1 1 0 0 0 1 1h20a1 1 0 0 0 1-1v-3.9a11.371 11.371 0 0 0-10.1-11.3m-24-.4a8.95 8.95 0 1 0-9-9 8.963 8.963 0 0 0 9 9m.8 2.1h-1.6A10.184 10.184 0 0 0 20 51.9v3.5a.9.9 0 0 0 .9.9h17.9a.9.9 0 0 0 .9-.9v-3.5a9.948 9.948 0 0 0-9-10.1m-21.8-.5a8.05 8.05 0 1 0-8.1-8 8.045 8.045 0 0 0 8.1 8m.7 1.9H8.1A9.193 9.193 0 0 0 0 52.3v3.1a.86.86 0 0 0 .8.8H17a.789.789 0 0 0 .8-.8v-3.1a9.2 9.2 0 0 0-8.2-9.1" fill="#222a30"/></svg>