<svg xmlns="http://www.w3.org/2000/svg" viewBox="0 0 64 64" aria-labelledby="title" aria-describedby="desc"><path data-name="layer1" d="M21 22a2.99 2.99 0 0 1 2.121.879l8.89 8.636 8.868-8.636a3 3 0 0 1 4.242 4.242L32.011 40 18.879 27.121A3 3 0 0 1 21 22z" fill="#bacae9"/><path data-name="stroke" d="M21 22a2.99 2.99 0 0 1 2.121.879l8.89 8.636 8.868-8.636a3 3 0 0 1 4.242 4.242L32.011 40 18.879 27.121A3 3 0 0 1 21 22z" fill="none" stroke="#2e4369" stroke-linecap="round" stroke-linejoin="round" stroke-width="2"/></svg>