<svg xmlns="http://www.w3.org/2000/svg" viewBox="0 0 64 64" aria-labelledby="title" aria-describedby="desc"><path data-name="layer1" fill="#8fa9d8" d="M2 2h60v60H2z"/><circle data-name="layer2" cx="32" cy="32" r="22" fill="#c0cfe9"/><path data-name="opacity" d="M10 32a21.9 21.9 0 0 1 4.6-13.4 22 22 0 1 0 30.8 30.8A22 22 0 0 1 10 32z" fill="#000064" opacity=".14"/><circle data-name="layer1" cx="32" cy="32" r="4" fill="#8fa9d8"/><path data-name="stroke" fill="none" stroke="#2e4369" stroke-linecap="round" stroke-linejoin="round" stroke-width="2" d="M2 2h60v60H2z"/><circle data-name="stroke" cx="32" cy="32" r="22" fill="none" stroke="#2e4369" stroke-linecap="round" stroke-linejoin="round" stroke-width="2"/><circle data-name="stroke" cx="32" cy="32" r="4" fill="none" stroke="#2e4369" stroke-linecap="round" stroke-linejoin="round" stroke-width="2"/><path data-name="stroke" d="M32 44a12 12 0 0 1-11.3-8M32 20a12 12 0 0 1 11.3 8" fill="none" stroke="#2e4369" stroke-linecap="round" stroke-linejoin="round" stroke-width="2"/></svg>