<svg xmlns="http://www.w3.org/2000/svg" viewBox="0 0 64 64" aria-labelledby="title" aria-describedby="desc"><path data-name="layer2" fill="#a6b1c9" d="M12 6h50v12H12z"/><path data-name="layer1" fill="#fff" d="M12 18v30h50V18"/><circle data-name="layer3" cx="18" cy="12" r="1" fill="#f27e7c"/><circle data-name="layer3" cx="25" cy="12" r="1" fill="#f27e7c"/><circle data-name="layer3" cx="32" cy="12" r="1" fill="#f27e7c"/><path data-name="layer2" fill="#a6b1c9" d="M2 16h10v12H2z"/><path data-name="layer1" fill="#fff" d="M54 48v10H2V28h10v20h42z"/><path data-name="opacity" fill="#000064" opacity=".15" d="M2 16h10v12H2zm52 32v10H2V28h10v20h42z"/><path data-name="stroke" fill="none" stroke="#2e4369" stroke-linecap="round" stroke-linejoin="round" stroke-width="2" d="M12 6h50v12H12zm0 12v30h50V18"/><circle data-name="stroke" cx="18" cy="12" r="1" fill="none" stroke="#2e4369" stroke-linecap="round" stroke-linejoin="round" stroke-width="2"/><circle data-name="stroke" cx="25" cy="12" r="1" fill="none" stroke="#2e4369" stroke-linecap="round" stroke-linejoin="round" stroke-width="2"/><circle data-name="stroke" cx="32" cy="12" r="1" fill="none" stroke="#2e4369" stroke-linecap="round" stroke-linejoin="round" stroke-width="2"/><path data-name="stroke" fill="none" stroke="#2e4369" stroke-linecap="round" stroke-linejoin="round" stroke-width="2" d="M12 16H2v12h10M2 28v30h52V48"/></svg>