<svg xmlns="http://www.w3.org/2000/svg" viewBox="0 0 64 64" aria-labelledby="title" aria-describedby="desc"><circle data-name="layer2" cx="46" cy="41" r="16" fill="#49bcff"/><path data-name="layer1" d="M46 25a15.9 15.9 0 0 1 8 2.2V15H22V9H2v40.3A1.7 1.7 0 0 0 3.7 51h29.8A16 16 0 0 1 46 25z" fill="#f8da82"/><path data-name="opacity" d="M31.6 48a15.9 15.9 0 0 1 6.1-20.7A16 16 0 0 0 25 43a15.8 15.8 0 0 0 .8 5H7.7A1.7 1.7 0 0 1 6 46.3V9H2v40.3A1.7 1.7 0 0 0 3.7 51h29.8l-1-1.4v-.2z" fill="#000064" opacity=".15"/><path data-name="opacity" d="M46 25a16 16 0 0 0-12.5 6A16 16 0 0 1 56 53.5 16 16 0 0 0 46 25z" fill="#fff" opacity=".25"/><path data-name="stroke" d="M54 27.2V15H22V9H2v40.3A1.7 1.7 0 0 0 3.7 51h29.8" fill="none" stroke="#2e4369" stroke-linecap="round" stroke-miterlimit="10" stroke-width="2" stroke-linejoin="round"/><circle data-name="stroke" cx="46" cy="41" r="16" fill="none" stroke="#2e4369" stroke-linecap="round" stroke-miterlimit="10" stroke-width="2" stroke-linejoin="round"/><path data-name="stroke" fill="none" stroke="#2e4369" stroke-linecap="round" stroke-miterlimit="10" stroke-width="2" d="M46 33v16m-8-8h16" stroke-linejoin="round"/></svg>