<svg xmlns="http://www.w3.org/2000/svg" viewBox="0 0 64 64" aria-labelledby="title" aria-describedby="desc"><path data-name="layer1" d="M32 16C32 8 16 6 2 6v44c14 0 30 2 30 10z" fill="none" stroke="#202020" stroke-miterlimit="10" stroke-width="2" stroke-linejoin="round" stroke-linecap="round"/><path data-name="layer2" d="M24 18.5a60.7 60.7 0 0 0-14-2.3M24 26a60.7 60.7 0 0 0-14-2.3M24 34a60.7 60.7 0 0 0-14-2.3m14 9.8a60.7 60.7 0 0 0-14-2.3m30-20.7a60.7 60.7 0 0 1 14-2.3M40 26a60.7 60.7 0 0 1 14-2.3M40 34a60.7 60.7 0 0 1 14-2.3m-14 9.8a60.7 60.7 0 0 1 14-2.3" fill="none" stroke="#202020" stroke-miterlimit="10" stroke-width="2" stroke-linejoin="round" stroke-linecap="round"/><path data-name="layer1" d="M32 16C32 8 48 6 62 6v44c-14 0-30 2-30 10" fill="none" stroke="#202020" stroke-miterlimit="10" stroke-width="2" stroke-linejoin="round" stroke-linecap="round"/></svg>