<svg xmlns="http://www.w3.org/2000/svg" viewBox="0 0 64 64" aria-labelledby="title" aria-describedby="desc"><path data-name="layer1" d="M32 16C32 8 16 6 2 6v44c14 0 30 2 30 10zm0 44c0-8 16-10 30-10V6C48 6 32 8 32 16z" fill="#dbf1ff"/><path data-name="opacity" d="M17 6.9v44c5.6.8 10.4 2.3 13 4.7v-44c-2.6-2.4-7.4-3.9-13-4.7z" fill="#fff" opacity=".3"/><path data-name="opacity" d="M32 16v44c0-3.8 3.7-6.3 9-7.8v-44c-5.3 1.5-9 3.9-9 7.8z" fill="#000064" opacity=".12"/><path data-name="stroke" d="M32 16C32 8 16 6 2 6v44c14 0 30 2 30 10zm-8 2.5a60.7 60.7 0 0 0-14-2.3M24 26a60.7 60.7 0 0 0-14-2.3M24 34a60.7 60.7 0 0 0-14-2.3m14 9.8a60.7 60.7 0 0 0-14-2.3m30-20.7a60.7 60.7 0 0 1 14-2.3M40 26a60.7 60.7 0 0 1 14-2.3M40 34a60.7 60.7 0 0 1 14-2.3m-14 9.8a60.7 60.7 0 0 1 14-2.3" fill="none" stroke="#2e4369" stroke-linecap="round" stroke-miterlimit="10" stroke-width="2" stroke-linejoin="round"/><path data-name="stroke" d="M32 16C32 8 48 6 62 6v44c-14 0-30 2-30 10" fill="none" stroke="#2e4369" stroke-linecap="round" stroke-miterlimit="10" stroke-width="2" stroke-linejoin="round"/></svg>