<svg xmlns="http://www.w3.org/2000/svg" viewBox="0 0 64 64" aria-labelledby="title" aria-describedby="desc"><path data-name="layer2" d="M14 13.2H2v41c0 3.3 2.7 5 6 5s6-1.7 6-5z" fill="#202020"/><path data-name="layer1" d="M18 2v52a8 8 0 0 1-8 8h44a8 8 0 0 0 8-8V2zm16 22.2a2 2 0 0 1 0 4h-8a2 2 0 0 1 0-4zm-8-6a2 2 0 0 1 2-2h6a2 2 0 0 1 0 4h-6a2 2 0 0 1-2-2zm0 14h8a2 2 0 0 1 0 4h-8a2 2 0 0 1 0-4zm28 20H26a2 2 0 0 1 0-4h28a2 2 0 0 1 0 4zm0-8H26a2 2 0 0 1 0-4h28a2 2 0 0 1 0 4zm-13-9v-18h14v18zm13-23H26a2 2 0 0 1 0-4h28a2 2 0 0 1 0 4z" fill="#202020"/></svg>