<svg viewBox="0 0 64 64" xmlns="http://www.w3.org/2000/svg" aria-labelledby="title" aria-describedby="desc"><path stroke-width="2" stroke-miterlimit="10" stroke="#202020" fill="none" d="M44 40h3a9.884 9.884 0 0 0 10-9.846 10.058 10.058 0 0 0-10.22-9.884c-.333 0-.66.019-.985.05a13.626 13.626 0 0 0-12.647-8.282 13.474 13.474 0 0 0-13.513 11.54c-.04 0-.077-.013-.116-.013A8.384 8.384 0 0 0 11 31.803C11 36.352 15.295 40 20 40h6.762" data-name="layer2" stroke-linejoin="round" stroke-linecap="round"/><path stroke-width="2" stroke-miterlimit="10" stroke="#202020" fill="none" d="M26.984 13.463a9.999 9.999 0 0 0-9.982-9.425 4.106 4.106 0 0 0-.748.075 6.979 6.979 0 0 1-9.188 9.283 3.642 3.642 0 0 0-.064.642 10 10 0 0 0 9.687 9.995" data-name="layer2" stroke-linejoin="round" stroke-linecap="round"/><path d="M38.737 27L23.999 43h7.467L28.21 57l15.789-16.999h-7.368L38.737 27z" stroke-width="2" stroke-miterlimit="10" stroke="#202020" fill="none" data-name="layer1" stroke-linejoin="round" stroke-linecap="round"/></svg>