<svg xmlns="http://www.w3.org/2000/svg" viewBox="0 0 64 64" aria-labelledby="title" aria-describedby="desc"><path data-name="layer2" d="M25.4 61a2 2 0 0 1-1.6-3.2l7-8.7h-8l12.6-15.8a2 2 0 1 1 3.1 2.5L31.1 45h8L27 60.2a2 2 0 0 1-1.6.8z" fill="#202020"/><path data-name="layer1" d="M11.5 21.4a12.6 12.6 0 0 1 4.8-2.4 17.4 17.4 0 0 1 9.6-10.5A10 10 0 0 0 17 3h-.7a6.9 6.9 0 0 1 .6 3 7 7 0 0 1-9.8 6.4c0 .2-.1.4-.1.6a10 10 0 0 0 4.5 8.4zm35.3-2.2h-1A13.6 13.6 0 0 0 33.1 11a13.5 13.5 0 0 0-13.5 11.6h-.1a8.2 8.2 0 1 0 0 16.5h6.2l6.6-8.2a6 6 0 1 1 9.4 7.5l-.6.7h5.7a10.1 10.1 0 0 0 10.2-10 10.1 10.1 0 0 0-10.2-9.9z" fill="#202020"/></svg>