<svg xmlns="http://www.w3.org/2000/svg" viewBox="0 0 64 64" aria-labelledby="title" aria-describedby="desc"><path data-name="layer2" d="M46.8 38.5A10.1 10.1 0 0 0 57 28.6a10.1 10.1 0 0 0-10.2-9.9h-1a13.6 13.6 0 0 0-12.6-8.3A13.5 13.5 0 0 0 19.6 22h-.1a8.2 8.2 0 1 0 0 16.5zM11.5 20.9a12.6 12.6 0 0 1 4.8-2.4A17.4 17.4 0 0 1 25.9 8 10 10 0 0 0 17 2.5h-.7a6.9 6.9 0 0 1 .6 2.9 7 7 0 0 1-7 7 6.9 6.9 0 0 1-2.8-.6c0 .2-.1.4-.1.6a10 10 0 0 0 4.5 8.5z" fill="#202020"/><circle data-name="layer1" cx="19.1" cy="43.5" r="2" fill="#202020"/><circle data-name="layer1" cx="15.1" cy="51.5" r="2" fill="#202020"/><circle data-name="layer1" cx="19.1" cy="59.5" r="2" fill="#202020"/><circle data-name="layer1" cx="27.1" cy="47.5" r="2" fill="#202020"/><circle data-name="layer1" cx="29.1" cy="55.5" r="2" fill="#202020"/><circle data-name="layer1" cx="37.1" cy="51.5" r="2" fill="#202020"/><circle data-name="layer1" cx="39.1" cy="43.5" r="2" fill="#202020"/><circle data-name="layer1" cx="39.1" cy="59.5" r="2" fill="#202020"/><circle data-name="layer1" cx="47.1" cy="55.5" r="2" fill="#202020"/><circle data-name="layer1" cx="49.1" cy="45.5" r="2" fill="#202020"/></svg>