<svg xmlns="http://www.w3.org/2000/svg" viewBox="0 0 64 64" aria-labelledby="title" aria-describedby="desc"><path data-name="layer2" d="M10.8 54a2 2 0 0 1-1.6-3.2l6.4-8a2 2 0 0 1 3.1 2.5l-6.4 8a2 2 0 0 1-1.5.7zm3.6 8a2 2 0 0 1-1.6-3.2l12.8-16a2 2 0 0 1 3.1 2.5L16 61.3a2 2 0 0 1-1.6.7zm16.4-8a2 2 0 0 1-1.6-3.2l6.4-8a2 2 0 0 1 3.1 2.5l-6.4 8a2 2 0 0 1-1.5.7zm3.6 8a2 2 0 0 1-1.6-3.2l12.8-16a2 2 0 0 1 3.1 2.5L36 61.3a2 2 0 0 1-1.6.7z" fill="#202020"/><path data-name="layer1" d="M46.8 38A10.1 10.1 0 0 0 57 28.1a10.1 10.1 0 0 0-10.2-9.9h-1A13.6 13.6 0 0 0 33.1 10a13.5 13.5 0 0 0-13.5 11.5h-.1a8.2 8.2 0 1 0 0 16.5zM11.5 20.4a12.6 12.6 0 0 1 4.8-2.4 17.4 17.4 0 0 1 9.6-10.5A10 10 0 0 0 17 2h-.7a6.9 6.9 0 0 1 .6 3 7 7 0 0 1-7 7 6.9 6.9 0 0 1-2.8-.6c0 .2-.1.4-.1.6a10 10 0 0 0 4.5 8.4z" fill="#202020"/></svg>