<svg viewBox="0 0 64 64" xmlns="http://www.w3.org/2000/svg" aria-labelledby="title" aria-describedby="desc"><path stroke-width="2" stroke-miterlimit="10" stroke="#202020" fill="none" d="M10.487 29.54a12.033 12.033 0 0 1-8.495-11.5 6.098 6.098 0 0 1 .036-.707 8.586 8.586 0 0 0 11.29-11.29c.218-.023.468-.035.706-.035a12.029 12.029 0 0 1 11.968 10.8 4.741 4.741 0 0 1-.124 1.322" data-name="layer2" stroke-linejoin="round" stroke-linecap="round"/><path stroke-width="2" stroke-miterlimit="10" stroke="#202020" fill="none" d="M53.994 32.005a4 4 0 0 1 4 3.999 4 4 0 0 1-4 3.999h-5.99M58 53.998A4 4 0 0 0 62 50a4 4 0 0 0-4-4h-9.992m1.197-19.145a10.35 10.35 0 0 0-5.604-1.638c-.135 0-.265.014-.398.02a13.584 13.584 0 0 0-25.835 3.557A8.796 8.796 0 1 0 14.801 46l22.197.001A5 5 0 0 1 41.999 51a5 5 0 0 1-5.001 5" data-name="layer1" stroke-linejoin="round" stroke-linecap="round"/><path stroke-width="2" stroke-miterlimit="10" stroke="#202020" fill="none" d="M23.325 38.004h16.67a4 4 0 0 0 4-3.999 4 4 0 0 0-4-3.999" data-name="layer1" stroke-linejoin="round" stroke-linecap="round"/></svg>