<svg xmlns="http://www.w3.org/2000/svg" viewBox="0 0 64 64" aria-labelledby="title" aria-describedby="desc"><path data-name="layer1" d="M31.4 8.1a11.7 11.7 0 0 1-15.2 16 14 14 0 1 0 15.2-16z" fill="#e6f0fa"/><path data-name="opacity" d="M31 29a13.9 13.9 0 0 1-9.6-3.8H21a11.6 11.6 0 0 1-4.8-1.1 14 14 0 0 0 27.7-3.7A14 14 0 0 1 31 29z" fill="#000064" opacity=".15"/><path data-name="stroke" d="M42.8 16.3a14.1 14.1 0 0 0-11.5-8.4A11.7 11.7 0 0 1 16 24.1 14.1 14.1 0 0 0 29.9 36M56 28a4 4 0 0 1 4 4 4 4 0 0 1-4 4h-6m8 16a4 4 0 0 0 4-4 4 4 0 0 0-4-4H46M2 44h32a6 6 0 0 1 6 6 6 6 0 0 1-6 6" fill="none" stroke="#2e4369" stroke-linecap="round" stroke-linejoin="round" stroke-width="2"/><path data-name="stroke" d="M2 36h36a6 6 0 0 0 6-6 6 6 0 0 0-6-6" fill="none" stroke="#2e4369" stroke-linecap="round" stroke-linejoin="round" stroke-width="2"/></svg>