<svg xmlns="http://www.w3.org/2000/svg" viewBox="0 0 64 64" aria-labelledby="title" aria-describedby="desc"><circle data-name="layer2" cx="20" cy="47.8" r="2.5" fill="#202020"/><circle data-name="layer2" cx="27" cy="55.8" r="2.5" fill="#202020"/><circle data-name="layer2" cx="34" cy="47.8" r="2.5" fill="#202020"/><circle data-name="layer2" cx="48" cy="47.8" r="2.5" fill="#202020"/><circle data-name="layer2" cx="41" cy="55.8" r="2.5" fill="#202020"/><path data-name="layer1" d="M46.8 41.7A10.1 10.1 0 0 0 57 31.9 10.1 10.1 0 0 0 46.8 22h-1a13.6 13.6 0 0 0-12.6-8.3 13.5 13.5 0 0 0-13.6 11.6h-.1a8.2 8.2 0 1 0 0 16.5zM11.5 24.1a12.6 12.6 0 0 1 4.8-2.4 17.4 17.4 0 0 1 9.6-10.4A10 10 0 0 0 17 5.7h-.7a6.9 6.9 0 0 1 .6 2.9A7 7 0 0 1 7.1 15c0 .2-.1.4-.1.6a10 10 0 0 0 4.5 8.5z" fill="#202020"/></svg>