<svg viewBox="0 0 64 64" xmlns="http://www.w3.org/2000/svg" aria-labelledby="title" aria-describedby="desc"><path stroke-width="2" stroke-miterlimit="10" stroke="#202020" fill="none" d="M46.837 40.986A10.055 10.055 0 0 0 57 31.106a10.058 10.058 0 0 0-10.22-9.883c-.333 0-.66.018-.985.05a13.628 13.628 0 0 0-12.646-8.283 13.474 13.474 0 0 0-13.515 11.54c-.04 0-.075-.012-.114-.012a8.238 8.238 0 1 0 0 16.468z" data-name="layer2" stroke-linejoin="round" stroke-linecap="round"/><path stroke-width="2" stroke-miterlimit="10" stroke="#202020" fill="none" d="M26.984 14.416a10 10 0 0 0-9.983-9.427 4.454 4.454 0 0 0-.748.076 6.98 6.98 0 0 1-9.188 9.285 4.279 4.279 0 0 0-.064.64 10.002 10.002 0 0 0 9.689 9.997" data-name="layer2" stroke-linejoin="round" stroke-linecap="round"/><circle stroke-width="2" stroke-miterlimit="10" stroke="#202020" fill="none" r="2" cy="49.998" cx="18" data-name="layer1" stroke-linejoin="round" stroke-linecap="round"/><circle stroke-width="2" stroke-miterlimit="10" stroke="#202020" fill="none" r="2" cy="49.998" cx="34" data-name="layer1" stroke-linejoin="round" stroke-linecap="round"/><circle stroke-width="2" stroke-miterlimit="10" stroke="#202020" fill="none" r="2" cy="50" cx="50" data-name="layer1" stroke-linejoin="round" stroke-linecap="round"/><circle stroke-width="2" stroke-miterlimit="10" stroke="#202020" fill="none" r="2" cy="58" cx="42" data-name="layer1" stroke-linejoin="round" stroke-linecap="round"/><circle stroke-width="2" stroke-miterlimit="10" stroke="#202020" fill="none" r="2" cy="58" cx="26" data-name="layer1" stroke-linejoin="round" stroke-linecap="round"/></svg>