<svg xmlns="http://www.w3.org/2000/svg" viewBox="0 0 64 64" aria-labelledby="title" aria-describedby="desc"><path data-name="layer2" d="M55.999 38.001h-5.991a2 2 0 0 1 0-4h5.991a1.999 1.999 0 1 0 0-3.998 2 2 0 0 1 0-4 5.999 5.999 0 1 1 0 11.998zM58 54a2 2 0 0 1 0-4 1.999 1.999 0 1 0 0-3.998H46.006a2 2 0 1 1 0-4H58A5.999 5.999 0 1 1 58 54zm-23.995 4a2 2 0 0 1 0-4 3.999 3.999 0 1 0 0-7.997L2 46a2 2 0 1 1 0-4l32.005.003a7.999 7.999 0 1 1 0 15.997zm4.002-20.002H1.997a2 2 0 0 1 0-4h36.01a3.999 3.999 0 1 0 0-7.997 2 2 0 0 1 0-4 7.999 7.999 0 1 1 0 15.997z" fill="#202020"/><path data-name="layer1" d="M40.01 30.001a2.001 2.001 0 0 0-2-1.998 4 4 0 0 1 0-8 9.94 9.94 0 0 1 6.126 2.113 19.796 19.796 0 0 0-1.296-5.833A14.104 14.104 0 0 0 31.334 7.89a11.731 11.731 0 0 1-15.326 16.186A14.064 14.064 0 0 0 20.11 32h17.9a2.001 2.001 0 0 0 2-1.999z" fill="#202020"/></svg>