<svg xmlns="http://www.w3.org/2000/svg" viewBox="0 0 64 64" aria-labelledby="title" aria-describedby="desc"><circle data-name="layer3" cx="32" cy="32" r="30" fill="#ed4c49"/><path data-name="stroke" fill="none" stroke="red" stroke-linecap="round" stroke-miterlimit="10" stroke-width="2" d="M53.2 10.8L10.8 53.2" stroke-linejoin="round"/><path data-name="layer2" d="M48.2 22h-7.5l-3.9-4h-9.6l-3.9 4h-7.5a1.8 1.8 0 0 0-1.8 1.8v18.4a1.8 1.8 0 0 0 1.8 1.8h32.4a1.8 1.8 0 0 0 1.8-1.8V23.8a1.8 1.8 0 0 0-1.8-1.8z" fill="#7b8baf"/><circle data-name="layer1" cx="32" cy="33" r="7" fill="#8fa9d8"/><path data-name="opacity" d="M53.2 10.8L10.8 53.2a30.1 30.1 0 0 0 5.6 4.4l41.2-41.2a30.1 30.1 0 0 0-4.4-5.6z" fill="#000064" opacity=".16"/><path data-name="stroke" d="M39 33a7 7 0 0 1-7 7m-5.4-2.6a7 7 0 0 1 9.8-9.9" fill="none" stroke="#2e4369" stroke-linecap="round" stroke-miterlimit="10" stroke-width="2" stroke-linejoin="round"/><circle data-name="stroke" cx="32" cy="32" r="30" fill="none" stroke="#2e4369" stroke-linecap="round" stroke-miterlimit="10" stroke-width="2" stroke-linejoin="round"/><path data-name="stroke" d="M30 44h18.2a1.8 1.8 0 0 0 1.8-1.8V23.8M42 22h-1.3l-3.9-4h-9.6l-3.9 4h-7.5a1.8 1.8 0 0 0-1.8 1.8v18.4a1.8 1.8 0 0 0 1.8 1.8H20m33.2-33.2L10.8 53.2m42.4-42.4L10.8 53.2" fill="none" stroke="#2e4369" stroke-linecap="round" stroke-miterlimit="10" stroke-width="2" stroke-linejoin="round"/></svg>