<svg xmlns="http://www.w3.org/2000/svg" viewBox="0 0 64 64" aria-labelledby="title" aria-describedby="desc"><path data-name="layer3" fill="#b3d9ff" d="M18 2h36v60H18z"/><path data-name="layer2" d="M11 2a3 3 0 0 0-3 3v54a3 3 0 0 0 3 3h7V2z" fill="#8fa9d8"/><path data-name="layer1" fill="#eaf7ff" d="M28 14h16v8H28z"/><path data-name="opacity" d="M11 2a3 3 0 0 0-3 3v54a3 3 0 0 0 3 3h3V2z" fill="#000064" opacity=".15"/><path data-name="stroke" fill="none" stroke="#2e4369" stroke-linecap="round" stroke-miterlimit="10" stroke-width="2" d="M18 2v60m36 0H11a3 3 0 0 1-3-3V5a3 3 0 0 1 3-3h43z" stroke-linejoin="round"/><path data-name="stroke" fill="none" stroke="#2e4369" stroke-linecap="round" stroke-miterlimit="10" stroke-width="2" d="M28 14h16v8H28z" stroke-linejoin="round"/></svg>