<svg xmlns="http://www.w3.org/2000/svg" viewBox="0 0 64 64" aria-labelledby="title" aria-describedby="desc"><path data-name="layer3" fill="#ebf5ff" d="M46 30V2H2v56h32V42l12-12z"/><path data-name="opacity" fill="#000064" opacity=".1" d="M41 31L29 43v12H6V2H2v56h32V42l9-9-2-2z"/><path data-name="layer2" fill="#fffeee" d="M46 30L34 42v20h24V42L46 30z"/><path data-name="layer1" fill="#a06f60" d="M42 50h8v12h-8z"/><path data-name="stroke" fill="none" stroke="#2e4369" stroke-linecap="round" stroke-miterlimit="10" stroke-width="2" d="M34 58H2V2h44v28M12 2v8m-2 0h4m10-8v8m-2 0h4m10-8v8m-2 0h4" stroke-linejoin="round"/><path data-name="stroke" fill="none" stroke="#2e4369" stroke-linecap="round" stroke-miterlimit="10" stroke-width="2" d="M30 46l16-16 16 16" stroke-linejoin="round"/><path data-name="stroke" fill="none" stroke="#2e4369" stroke-linecap="round" stroke-miterlimit="10" stroke-width="2" d="M34 42v20h24V42" stroke-linejoin="round"/><path data-name="stroke" fill="none" stroke="#2e4369" stroke-linecap="round" stroke-miterlimit="10" stroke-width="2" d="M42 62V50h8" stroke-linejoin="round"/></svg>