<svg xmlns="http://www.w3.org/2000/svg" viewBox="0 0 64 64" aria-labelledby="title" aria-describedby="desc"><path data-name="layer2" fill="none" stroke="#202020" stroke-miterlimit="10" stroke-width="2" d="M42 58H2V2h44v30M12 2v8m-2 0h4m10-8v8m-2 0h4m10-8v8m-2 0h4" stroke-linejoin="round" stroke-linecap="round"/><circle data-name="layer1" cx="46.9" cy="47" r="5" fill="none" stroke="#202020" stroke-miterlimit="10" stroke-width="2" stroke-linejoin="round" stroke-linecap="round"/><path data-name="layer1" d="M62 51l-3.4-2a11.8 11.8 0 0 0 0-4.3l3.1-1.7-4-6.9-3.1 1.8a12 12 0 0 0-3.7-2.1V32h-8v3.7a12 12 0 0 0-3.7 2.1L36 36l-4 7 3 1.7a11.6 11.6 0 0 0 0 4.4L31.7 51l4 6.9 3.3-1.8a12 12 0 0 0 3.8 2.2V62h8v-3.7a12 12 0 0 0 3.9-2.3l3.3 2z" fill="none" stroke="#202020" stroke-miterlimit="10" stroke-width="2" stroke-linejoin="round" stroke-linecap="round"/></svg>