<svg xmlns="http://www.w3.org/2000/svg" viewBox="0 0 64 64" aria-labelledby="title" aria-describedby="desc"><path data-name="layer5" fill="#ebf5ff" d="M38 18V2H10v60h44V18H38z"/><path data-name="layer4" fill="#fff" d="M54 18L38 2v16h16z"/><path data-name="opacity" fill="#000064" opacity=".15" d="M33.1 2v23H54v-7H38V2h-4.9z"/><path data-name="layer3" fill="#61e0b2" d="M26 26h8v28h-8z"/><path data-name="layer2" fill="#ffe076" d="M34 34h8v20h-8z"/><path data-name="layer1" fill="#ff8b76" d="M18 40h8v14h-8z"/><path data-name="stroke" fill="none" stroke="#2e4369" stroke-linecap="round" stroke-miterlimit="10" stroke-width="2" d="M10 2v60h44V18L38 2H10z" stroke-linejoin="round"/><path data-name="stroke" fill="none" stroke="#2e4369" stroke-linecap="round" stroke-miterlimit="10" stroke-width="2" d="M38 2v16h16m-6 36H16m18 0V26h-8v14m8-6h8v20m-16 0V40h-8v14" stroke-linejoin="round"/></svg>