<svg xmlns="http://www.w3.org/2000/svg" viewBox="0 0 64 64" aria-labelledby="title" aria-describedby="desc"><path data-name="layer2" d="M50 49l-3.8-.9H46c-2.4-.7-3.5-1.5-4-2.1 3.6-.2 11.8-.9 15.4-4.5l1.8-1.8-2.1-1.3C51.8 35 52 25.7 52 25.6V22a19.9 19.9 0 0 0-8-16 5.5 5.5 0 0 0-1.3-4.2A5.4 5.4 0 0 0 38.6 0H25.3a5.2 5.2 0 0 0-3.9 1.7A5.6 5.6 0 0 0 20 6a20 20 0 0 0-8 16v3.7c0 .1.2 9.3-5.1 12.7l-2.1 1.2 1.8 1.8c3.4 3.4 10.9 4.3 14.7 4.5-.4.6-1.4 1.4-3.6 2.1h-.1l-4.4 1C2.8 50.9 0 58.4 0 62v2h64v-2c0-.4-.2-10.2-14-13zm-27.9 1.5l6.7 5.5-4 3-3.9-8zm3.4-4.2h.1a2 2 0 0 0 1-3.7c-4.3-2.6-7-8.3-7-14.6v-1.3a18.1 18.1 0 0 0 7.5-6.7h9.8a18.5 18.5 0 0 0 6.7 6.3V28c0 6.2-2.8 11.9-7 14.6a2 2 0 0 0 1 3.7h.2a5.5 5.5 0 0 0 .6 1.6L32 53.4l-7-5.7a5.5 5.5 0 0 0 .5-1.4zm15.9 4.2l1.5.7-3.6 7.7-4.1-3zM24.3 4.3a1.3 1.3 0 0 1 1-.3h13.3a1.4 1.4 0 0 1 1.1.4 1.6 1.6 0 0 1 .3 1.3c-.1 1.2-1.2 7.3-1.7 10.3H25.7c-.5-2.8-1.5-8.3-1.7-10.2a1.9 1.9 0 0 1 .3-1.5z" fill="#202020"/><path data-name="layer1" d="M28.4 12H30v1.6a2 2 0 1 0 4 0V12h1.6a2 2 0 0 0 0-4H34V6.4a2 2 0 0 0-4 0V8h-1.6a2 2 0 0 0 0 4z" fill="#202020"/></svg>