<svg xmlns="http://www.w3.org/2000/svg" viewBox="0 0 64 64" aria-labelledby="title" aria-describedby="desc"><path data-name="layer1" d="M28.959 45.106c-4.961-.5-9.326-1.7-13.195-4.7a16.982 16.982 0 0 1-1.389-1.1 3.838 3.838 0 0 1-.5-5.4 3.658 3.658 0 0 1 4.961-1.1c.4.2.694.4 1.091.6a21.464 21.464 0 0 0 23.91.2 7.165 7.165 0 0 1 2.282-1.2 3.665 3.665 0 0 1 4.167 1.7c.992 1.7.992 3.4-.3 4.7a19.846 19.846 0 0 1-6.945 4.5 29.632 29.632 0 0 1-7.937 1.8 7.5 7.5 0 0 0 .893.9l11.012 11.1a3.577 3.577 0 0 1 .794 4.3 4.417 4.417 0 0 1-4.068 2.6 4.278 4.278 0 0 1-2.579-1.3c-2.778-2.8-5.556-5.5-8.234-8.4-.794-.8-1.191-.7-1.885 0a339.65 339.65 0 0 1-8.433 8.5 3.509 3.509 0 0 1-4.266.8 4.325 4.325 0 0 1-2.48-4 4.6 4.6 0 0 1 1.29-2.7l10.814-10.9a2.917 2.917 0 0 0 .997-.9z" fill="#202020"/><path data-name="layer1" d="M32.035 32.406a16.2 16.2 0 1 1 16.171-16 16.177 16.177 0 0 1-16.171 16zm7.937-16.2a7.839 7.839 0 1 0-15.675.1 7.838 7.838 0 1 0 15.675-.1z" fill="#202020"/></svg>