<svg xmlns="http://www.w3.org/2000/svg" viewBox="0 0 64 64" aria-labelledby="title" aria-describedby="desc"><path data-name="layer2" d="M29.15 44.286c-4.65-.469-8.742-1.594-12.369-4.406a15.919 15.919 0 0 1-1.3-1.031 3.6 3.6 0 0 1-.465-5.062 3.429 3.429 0 0 1 4.65-1.031c.372.187.651.375 1.023.562a20.121 20.121 0 0 0 22.413.187 6.717 6.717 0 0 1 2.139-1.125 3.435 3.435 0 0 1 3.906 1.594c.93 1.594.93 3.187-.279 4.406a18.6 18.6 0 0 1-6.51 4.218 27.777 27.777 0 0 1-7.44 1.687 7.031 7.031 0 0 0 .837.844l10.321 10.406a3.353 3.353 0 0 1 .744 4.031A4.14 4.14 0 0 1 43.007 62a4.01 4.01 0 0 1-2.418-1.219c-2.6-2.625-5.208-5.156-7.719-7.874-.744-.75-1.116-.656-1.767 0a312.563 312.563 0 0 1-7.905 7.968 3.29 3.29 0 0 1-4 .75 4.054 4.054 0 0 1-2.325-3.75 4.315 4.315 0 0 1 1.209-2.531L28.22 45.129a2.735 2.735 0 0 0 .93-.843z" fill="none" stroke="#202020" stroke-linecap="round" stroke-miterlimit="10" stroke-width="2" stroke-linejoin="round"/><path data-name="layer1" d="M32.033 32.381a15.187 15.187 0 1 1 15.159-15 15.164 15.164 0 0 1-15.159 15zm7.44-15.186a7.348 7.348 0 1 0-14.694.094 7.347 7.347 0 1 0 14.694-.094z" fill="none" stroke="#202020" stroke-linecap="round" stroke-miterlimit="10" stroke-width="2" stroke-linejoin="round"/></svg>