<svg xmlns="http://www.w3.org/2000/svg" viewBox="0 0 64 64" aria-labelledby="title" aria-describedby="desc"><path data-name="layer2" d="M18 11h-6V3a2 2 0 1 0-4 0v8a4 4 0 0 0-4 4v44a4 4 0 0 0 4 4h10a4 4 0 0 0 4-4V15a4 4 0 0 0-4-4z" fill="#202020"/><path data-name="layer1" d="M56 15H26v46h30a4 4 0 0 0 4-4V19a4 4 0 0 0-4-4zM36.4 54.4a2 2 0 0 1-1.4.6 2.1 2.1 0 0 1-1.4-.6A2 2 0 0 1 33 53a2 2 0 0 1 .6-1.4 2.1 2.1 0 0 1 2.8 0A2 2 0 0 1 37 53a2 2 0 0 1-.6 1.4zm0-8a2 2 0 0 1-1.4.6 2.1 2.1 0 0 1-1.4-.6A2 2 0 0 1 33 45a2 2 0 0 1 .6-1.4 2.1 2.1 0 0 1 2.8 0A2 2 0 0 1 37 45a2 2 0 0 1-.6 1.4zm0-8a2 2 0 0 1-1.4.6 2.1 2.1 0 0 1-1.4-.6A2 2 0 0 1 33 37a2 2 0 0 1 .6-1.4 2.1 2.1 0 0 1 2.8 0A2 2 0 0 1 37 37a2 2 0 0 1-.6 1.4zm8 16a2 2 0 0 1-1.4.6 2 2 0 0 1-1.4-3.4 2.1 2.1 0 0 1 2.8 0 2 2 0 0 1 0 2.8zm0-8a2 2 0 0 1-1.4.6 2.1 2.1 0 0 1-1.4-.6A2 2 0 0 1 41 45a2 2 0 0 1 .6-1.4 2.1 2.1 0 0 1 2.8 0A2 2 0 0 1 45 45a2 2 0 0 1-.6 1.4zm0-8A2 2 0 0 1 41 37a2 2 0 0 1 .6-1.4 2.1 2.1 0 0 1 2.8 0A2 2 0 0 1 45 37a2 2 0 0 1-.6 1.4zm8 16a2 2 0 0 1-1.4.6 2.1 2.1 0 0 1-1.4-.6A2 2 0 0 1 49 53a2 2 0 0 1 .6-1.4 2.1 2.1 0 0 1 2.8 0A2 2 0 0 1 53 53a2 2 0 0 1-.6 1.4zm0-8a2 2 0 0 1-1.4.6 2 2 0 0 1-1.4-3.4 2.1 2.1 0 0 1 2.8 0A2 2 0 0 1 53 45a2 2 0 0 1-.6 1.4zm0-8a2 2 0 0 1-1.4.6 2.1 2.1 0 0 1-1.4-.6A2 2 0 0 1 49 37a2 2 0 0 1 .6-1.4 2.1 2.1 0 0 1 2.8 0 2 2 0 0 1 0 2.8zM54 31H32v-8h22z" fill="#202020"/></svg>