<svg xmlns="http://www.w3.org/2000/svg" viewBox="0 0 64 64" aria-labelledby="title" aria-describedby="desc"><path data-name="layer2" d="M59.6 32.3c-5.9-14.2-21.3-27.6-34.4-30S6.4 9.5 12.3 23.7s21.3 27.5 34.4 29.9 18.9-7.2 12.9-21.3zm-6.5 17.3a2 2 0 0 1-2.8-.5L38 31.5l-4.2 9.3A2 2 0 0 1 32 42l-.8-.2a2 2 0 0 1-1-2.6l4.2-9.4L19.7 28a2 2 0 0 1 .5-4l13.7 1.7L22.3 9.1a2 2 0 1 1 3.3-2.3l11.7 16.7 2.9-6.3a2 2 0 0 1 3.6 1.7l-3.5 7.7L52.2 28a2 2 0 0 1-.2 4h-.3l-9.3-1.2 11.2 16a2 2 0 0 1-.5 2.8zM50.7 54z" fill="#202020"/><path data-name="layer1" d="M46 57.5C31.5 54.9 15.1 40.7 8.6 25.2A31.1 31.1 0 0 1 6 13.8 34.7 34.7 0 0 0 2 30a32 32 0 0 0 32 32 34 34 0 0 0 16.2-4 25.5 25.5 0 0 1-4.2-.5z" fill="#202020"/></svg>