<svg viewBox="0 0 64 64" xmlns="http://www.w3.org/2000/svg" aria-labelledby="title" aria-describedby="desc"><path fill="#202020" d="M29 5C13 5 5 15.216 5 29c20.4 0 24-13.825 24-24z" data-name="layer2"/><path fill="#202020" d="M37.295 17.108C37.771 12.066 39 6.853 42.15 4.636a2 2 0 1 0-2.3-3.271c-4.494 3.16-6.045 9.658-6.578 15.714-.769.059-1.53.143-2.279.264a24.186 24.186 0 0 1-3.106 5.83c-3.557 4.876-8.76 7.953-15.517 9.2A22.1 22.1 0 0 0 11 40c0 12.7 10.744 23 24 23s24-10.3 24-23c0-11.96-9.526-21.785-21.705-22.892z" data-name="layer1"/></svg>