<svg xmlns="http://www.w3.org/2000/svg" viewBox="0 0 64 64" aria-labelledby="title" aria-describedby="desc"><path data-name="layer1" fill="#fff4e3" d="M32 3L2 28v34h60V28L32 3z"/><path data-name="opacity" d="M41.1 40.9l1 1L62 28 32 3 2 28l19.9 13.9 1-1c3.9-3.9 14.3-3.9 18.2 0z" fill="#000064" opacity=".14"/><path data-name="stroke" fill="none" stroke="#2e4369" stroke-linecap="round" stroke-miterlimit="10" stroke-width="2" d="M32 30.2V3m10.9 9L32 3l-10.7 9m28.8 6L62 28v34H2V28l12.2-10M42 42l20-14M2 28l20 14" stroke-linejoin="round"/><path data-name="stroke" d="M2 62l20.9-21.1c3.9-3.9 14.2-3.9 18.1 0L62 62" fill="none" stroke="#2e4369" stroke-linecap="round" stroke-miterlimit="10" stroke-width="2" stroke-linejoin="round"/></svg>