<svg xmlns="http://www.w3.org/2000/svg" viewBox="0 0 64 64" aria-labelledby="title" aria-describedby="desc"><path data-name="layer2" d="M24 27.7L20 24a6.5 6.5 0 0 0-4-2 8 8 0 0 0-5.3 14l14.8 15.1a4 4 0 0 0 2.5.9h24a4 4 0 0 0 4-4V18a16 16 0 1 0-32 0z" fill="#f26950"/><path data-name="opacity" d="M27 30.5V16a16 16 0 0 1 5.7-12.2A16 16 0 0 0 24 18v9.7zM55 50H31a4 4 0 0 1-2.5-.9L13.7 34a7.9 7.9 0 0 1-.5-11.5A8 8 0 0 0 10.7 36l14.8 15.1a4 4 0 0 0 2.5.9h24a4 4 0 0 0 3.5-2z" fill="#101129" opacity=".25"/><path data-name="layer1" d="M52 52l2 8a2 2 0 0 1-2 2h-4a2 2 0 0 1-2-2v-8" fill="#fbe349"/><path data-name="stroke" d="M24 29.7V18a16 16 0 0 1 32 0v30a4 4 0 0 1-4 4H28a4 4 0 0 1-2.5-.9L10.7 36A8 8 0 0 1 16 22a6.5 6.5 0 0 1 4 2l4 3.7M52 52l2 8a2 2 0 0 1-2 2h-4a2 2 0 0 1-2-2v-8M32.2 4L56 27.8M24.1 16.3l31.5 31.5M10 24.7L38 52M51.4 6.8l-35 35M56 24.7L28 52" fill="none" stroke="#2f446a" stroke-linecap="round" stroke-linejoin="round" stroke-width="2"/></svg>