<svg xmlns="http://www.w3.org/2000/svg" viewBox="0 0 64 64" aria-labelledby="title" aria-describedby="desc"><path data-name="layer2" d="M52 52l2 8a2 2 0 0 1-2 2h-4a2 2 0 0 1-2-2v-8M32.2 4L56 27.8M24.1 16.3l31.5 31.5M10 24.7L38 52" fill="none" stroke="#202020" stroke-linecap="round" stroke-linejoin="round" stroke-width="2"/><path data-name="layer1" fill="none" stroke="#202020" stroke-linecap="round" stroke-linejoin="round" stroke-width="2" d="M51.4 6.8l-35 35M56 24.7L28 52m-4-22.3V18a16 16 0 0 1 32 0v30a4 4 0 0 1-4 4H28a4 4 0 0 1-2.5-.9L10.7 36A8 8 0 0 1 16 22a6.5 6.5 0 0 1 4 2l4 3.7"/></svg>