<svg xmlns="http://www.w3.org/2000/svg" viewBox="0 0 64 64" aria-labelledby="title" aria-describedby="desc"><path data-name="layer3" fill="#49bcff" d="M8.1 34.7L35.4 62l24.8-24.8L32.9 9.9"/><path data-name="layer2" d="M13.7 40.3l14.8-14.8a1.8 1.8 0 0 1 2.5 0l13.6 13.7a1.8 1.8 0 0 1 0 2.5L29.8 56.4" fill="#fff"/><circle data-name="layer1" cx="32.9" cy="16.9" r="1.8" transform="rotate(-45 32.89 16.876)" fill="#536897"/><path data-name="layer1" d="M7.3 39.9s-3.5 4.2-3.5 7.6a3.4 3.4 0 0 0 3.5 3.4 3.4 3.4 0 0 0 3.5-3.4c0-3.1-3.5-7.6-3.5-7.6z" fill="#536897"/><path data-name="opacity" fill="#000028" opacity=".15" d="M8.177 34.725l7.778-7.778 5.58 5.579-7.779 7.778zM29.8 56.4l-4.9-4.9L35.4 62l7.8-7.8-5.6-5.6-7.8 7.8z"/><path data-name="opacity" fill="#000028" opacity=".15" d="M37.6 48.6L21.5 32.5l-7.8 7.8 11.2 11.2 4.9 4.9 7.8-7.8z"/><path data-name="stroke" fill="none" stroke="#2e4369" stroke-linecap="round" stroke-linejoin="round" stroke-width="2" d="M8.1 34.7L35.4 62l24.8-24.8L32.9 9.9M6.3 36.6L32.9 9.9"/><path data-name="stroke" d="M13.7 40.3l14.8-14.8a1.8 1.8 0 0 1 2.5 0l13.6 13.7a1.8 1.8 0 0 1 0 2.5L29.8 56.4" fill="none" stroke="#2e4369" stroke-linecap="round" stroke-linejoin="round" stroke-width="2"/><circle data-name="stroke" cx="32.9" cy="16.9" r="1.8" transform="rotate(-45 32.89 16.876)" fill="none" stroke="#2e4369" stroke-linecap="round" stroke-linejoin="round" stroke-width="2"/><path data-name="stroke" fill="none" stroke="#2e4369" stroke-linecap="round" stroke-linejoin="round" stroke-width="2" d="M32.9 15.2V2M7.3 39.9s-3.5 4.2-3.5 7.6a3.4 3.4 0 0 0 3.5 3.4 3.4 3.4 0 0 0 3.5-3.4c0-3.1-3.5-7.6-3.5-7.6z"/></svg>