<svg xmlns="http://www.w3.org/2000/svg" viewBox="0 0 64 64" aria-labelledby="title" aria-describedby="desc"><path data-name="layer4" fill="#bacae9" d="M7.3 51.1L2 57.9l4.2 4.2 6.8-5.4"/><path data-name="layer3" d="M59.2 26a1.2 1.2 0 0 1-1.7 0L37.9 6.5a1.2 1.2 0 0 1 0-1.7l2.5-2.5a1.2 1.2 0 0 1 1.7 0l19.6 19.5a1.2 1.2 0 0 1 0 1.7z" fill="#ff6c56"/><path data-name="layer2" d="M38.4 6.9L4 44.7c-.9.9 1.8 5.1 6 9.3s8.4 6.9 9.3 6L57 25.5" fill="#ee583f"/><path data-name="opacity" d="M39.9 13.5L54.4 28l2.6-2.5L38.4 6.9 37 8.5 4 44.7c-.9.9 1.8 5.1 6 9.3l1.5 1.5c-3.3-3.7-5.3-7-4.5-7.8z" fill="#000028" opacity=".15"/><path data-name="layer1" d="M29.5 43.4a3.6 3.6 0 0 1-5 0l-4.1-4.1a3.6 3.6 0 0 1 0-5l12.1-12.2a3.6 3.6 0 0 1 5 0l4.1 4.1a3.6 3.6 0 0 1 0 5z" fill="#fff"/><path data-name="stroke" d="M59.2 26a1.2 1.2 0 0 1-1.7 0L37.9 6.5a1.2 1.2 0 0 1 0-1.7l2.5-2.5a1.2 1.2 0 0 1 1.7 0l19.6 19.5a1.2 1.2 0 0 1 0 1.7z" fill="none" stroke="#2e4369" stroke-linecap="round" stroke-linejoin="round" stroke-width="2"/><path data-name="stroke" d="M38.4 6.9L4 44.7c-.9.9 1.8 5.1 6 9.3s8.4 6.9 9.3 6L57 25.5" fill="none" stroke="#2e4369" stroke-linecap="round" stroke-linejoin="round" stroke-width="2"/><path data-name="stroke" fill="none" stroke="#2e4369" stroke-linecap="round" stroke-linejoin="round" stroke-width="2" d="M7.3 51.1L2 57.9l4.2 4.2 6.8-5.4m16.5-13.3a3.6 3.6 0 0 1-5 0l-4.1-4.1a3.6 3.6 0 0 1 0-5l12.1-12.2a3.6 3.6 0 0 1 5 0l4.1 4.1a3.6 3.6 0 0 1 0 5z"/></svg>