<svg xmlns="http://www.w3.org/2000/svg" viewBox="0 0 64 64" aria-labelledby="title" aria-describedby="desc"><path data-name="layer3" fill="#49bcff" d="M12 18h40v44H12z"/><path data-name="layer2" d="M12 27h27a2 2 0 0 1 2 2v22a2 2 0 0 1-2 2H12" fill="#fff"/><circle data-name="layer1" cx="46.5" cy="24" r="2" fill="#536897"/><path data-name="opacity" fill="#000028" opacity=".15" d="M12 18h10v9H12zm0 35h10v9H12zm0-26h10v26H12z"/><path data-name="stroke" fill="none" stroke="#2e4369" stroke-linecap="round" stroke-linejoin="round" stroke-width="2" d="M12 62V18m40 0v44M9 18h46M9 62h46M12 27h27a2 2 0 0 1 2 2v22a2 2 0 0 1-2 2H12m5.5-35v-5a11 11 0 0 1 11-11h7a11 11 0 0 1 11 11v9"/><circle data-name="stroke" cx="46.5" cy="24" r="2" fill="none" stroke="#2e4369" stroke-linecap="round" stroke-linejoin="round" stroke-width="2"/></svg>