<svg viewBox="0 0 64 64" xmlns="http://www.w3.org/2000/svg" aria-labelledby="title" aria-describedby="desc"><path d="M62 20.5L32 5.498 2 20.5l30 12.998L62 20.5z" fill="#202020" data-name="layer2"/><path fill="#202020" d="M2.154 29.314l29 13a2 2 0 0 0 1.691 0l29-13a2 2 0 0 0-1.691-3.625L32 38.295 3.846 25.689a2 2 0 0 0-1.691 3.625z" data-name="layer2"/><path fill="#202020" d="M60.154 33.688L32 46.291 3.846 33.688a2 2 0 1 0-1.691 3.625l29 13a2 2 0 0 0 1.691 0l29-13a2 2 0 0 0-1.691-3.625z" data-name="layer2"/><path fill="#202020" d="M60.154 41.691L32 54.295 3.846 41.691a2 2 0 0 0-1.691 3.625l29 13a2 2 0 0 0 1.691 0l29-13a2 2 0 0 0-1.691-3.625z" data-name="layer1"/></svg>