<svg xmlns="http://www.w3.org/2000/svg" viewBox="0 0 64 64" aria-labelledby="title" aria-describedby="desc"><path data-name="layer1" d="M48 18a16 16 0 0 0-32 0v24a2 2 0 1 0 4 0V18a12 12 0 0 1 24 0v32a8 8 0 1 1-16 0V22a4 4 0 1 1 8 0v20a2 2 0 1 0 4 0V22a8 8 0 1 0-16 0v28a12 12 0 1 0 24 0z" fill="#92b5e4"/><path data-name="stroke" d="M48 18a16 16 0 0 0-32 0v24a2 2 0 1 0 4 0V18a12 12 0 0 1 24 0v32a8 8 0 1 1-16 0V22a4 4 0 1 1 8 0v20a2 2 0 1 0 4 0V22a8 8 0 1 0-16 0v28a12 12 0 1 0 24 0z" fill="none" stroke="#2e4369" stroke-miterlimit="10" stroke-width="2" stroke-linejoin="round" stroke-linecap="round"/></svg>