<svg xmlns="http://www.w3.org/2000/svg" viewBox="0 0 64 64" aria-labelledby="title" aria-describedby="desc"><path data-name="layer1" fill="#dbf1ff" d="M2 19L32 5l30 14-30 14L2 19z"/><path data-name="opacity" fill="#fff" opacity=".2" d="M2 19L32 5l30 14-30 14L2 19z"/><path data-name="layer1" fill="#dbf1ff" d="M62 43L32 57 2 43V19l30 14 30-14v24z"/><path data-name="opacity" fill="#000064" opacity=".15" d="M32 33L2 19v24l30 14V33z"/><path data-name="stroke" fill="none" stroke="#2e4369" stroke-linecap="round" stroke-miterlimit="10" stroke-width="2" d="M2 19L32 5l30 14-30 14L2 19z" stroke-linejoin="round"/><path data-name="stroke" fill="none" stroke="#2e4369" stroke-linecap="round" stroke-miterlimit="10" stroke-width="2" d="M62 27L32 41 2 27" stroke-linejoin="round"/><path data-name="stroke" fill="none" stroke="#2e4369" stroke-linecap="round" stroke-miterlimit="10" stroke-width="2" d="M62 35L32 49 2 35" stroke-linejoin="round"/><path data-name="stroke" fill="none" stroke="#2e4369" stroke-linecap="round" stroke-miterlimit="10" stroke-width="2" d="M62 43L32 57 2 43" stroke-linejoin="round"/></svg>