<svg xmlns="http://www.w3.org/2000/svg" viewBox="0 0 64 64" aria-labelledby="title" aria-describedby="desc"><path data-name="layer3" d="M9 52v8a2 2 0 0 0 2 2h28a2 2 0 0 0 2-2v-8zm32-28V14H9v10" fill="#d5e2f4"/><path data-name="layer2" fill="#f9d28c" d="M41 52V24H9v28"/><path data-name="opacity" d="M15 60v-8H9v8a2 2 0 0 0 2 2h6a2 2 0 0 1-2-2zM9 14h6v10H9zm0 10h6v28H9z" fill="#101129" opacity=".18"/><path data-name="opacity" d="M29 60a2 2 0 0 1-2 2h7a2 2 0 0 0 2-2v-8h-7zm0-46h7v10h-7zm0 10h7v28h-7z" fill="#fff" opacity=".5"/><path data-name="layer1" d="M42 2a13 13 0 0 0-13 12h12v13.9h1A13 13 0 0 0 42 2z" fill="#ffc943"/><path data-name="stroke" d="M9 52v8a2 2 0 0 0 2 2h28a2 2 0 0 0 2-2v-8zm20-38a13 13 0 1 1 13 14" fill="none" stroke="#2f446a" stroke-linecap="round" stroke-linejoin="round" stroke-width="2"/><path data-name="stroke" fill="none" stroke="#2f446a" stroke-linecap="round" stroke-linejoin="round" stroke-width="2" d="M41 24V14H9v10m32 28V24H9v28"/></svg>