<svg xmlns="http://www.w3.org/2000/svg" viewBox="0 0 64 64" aria-labelledby="title" aria-describedby="desc"><path data-name="layer2" d="M49.5 29h-.4a13.6 13.6 0 0 0-25.7 3.8A8.8 8.8 0 1 0 20.8 50h28.7a10.5 10.5 0 0 0 0-21z" fill="#cdf0f0"/><path data-name="layer1" d="M23.4 32.8a13.6 13.6 0 0 1 10.3-11.2 10 10 0 1 0-14.8 11l1.9-.2a8.8 8.8 0 0 1 2.6.4z" fill="#fc0"/><path data-name="opacity" d="M18.9 32.6l1.9-.2a8.8 8.8 0 0 1 2.6.4 13.6 13.6 0 0 1 10.3-11.2 13.6 13.6 0 0 0-16.1 10.1l1.3 1z" fill="#000064" opacity=".1"/><path data-name="opacity" d="M23 35.5a14.6 14.6 0 0 1 .3-2.7A8.8 8.8 0 1 0 20.8 50h16.6A14.5 14.5 0 0 1 23 35.5z" fill="#000064" opacity=".1"/><path data-name="opacity" d="M60 39.5A10.5 10.5 0 0 0 49.5 29h-.4A13.6 13.6 0 0 0 30 23h1a17 17 0 0 1 13.8 7.1 10.6 10.6 0 0 0-3.1 2.3 12 12 0 0 1 14.8 14.9 10.5 10.5 0 0 0 3.5-7.8z" fill="#fff" opacity=".5"/><path data-name="stroke" d="M18.9 32.6a10 10 0 1 1 14.8-11M24 2v6M8 24H2M8 8l5 5m27-5l-5 5m19 23a4 4 0 0 1 4 4 4 4 0 0 1-4 4h-6m10 14a4 4 0 0 0 4-4 4 4 0 0 0-4-4H48" fill="none" stroke="#2e4369" stroke-linecap="round" stroke-linejoin="round" stroke-width="2"/><path data-name="stroke" d="M55.2 30.8a10.3 10.3 0 0 0-5.6-1.6h-.4a13.6 13.6 0 0 0-25.8 3.6A8.8 8.8 0 1 0 20.8 50H37a5 5 0 0 1 5 5 5 5 0 0 1-5 5" fill="none" stroke="#2e4369" stroke-linecap="round" stroke-linejoin="round" stroke-width="2"/><path data-name="stroke" d="M29.3 42H40a4 4 0 0 0 4-4 4 4 0 0 0-4-4" fill="none" stroke="#2e4369" stroke-linecap="round" stroke-linejoin="round" stroke-width="2"/></svg>