<svg xmlns="http://www.w3.org/2000/svg" viewBox="0 0 64 64" aria-labelledby="title" aria-describedby="desc"><path data-name="layer1" d="M24.5 17.5a2 2 0 0 0 2-2v-6a2 2 0 1 0-4 0v6a2 2 0 0 0 2 2zm-13 13a2 2 0 0 0-2-2h-6a2 2 0 0 0 0 4h6a2 2 0 0 0 2-2zm1.3-8.9a2 2 0 1 0 2.8-2.8l-4.3-4.3a2 2 0 0 0-2.8 2.8zm22 .6a2 2 0 0 0 1.4-.6l4.3-4.3a2 2 0 1 0-2.8-2.8l-4.3 4.3a2 2 0 0 0 1.4 3.4zm-22 17.2l-4.3 4.3a2 2 0 1 0 2.8 2.8l4.3-4.3a2 2 0 0 0-2.8-2.8z" fill="#202020"/><path data-name="layer2" d="M52.5 36.5a13 13 0 0 0-25 4.1h-1a8 8 0 0 0 0 16h26a10 10 0 0 0 0-20z" fill="#202020"/><path data-name="layer1" d="M24.2 36.7A17.1 17.1 0 0 1 33.4 26a10 10 0 1 0-14.2 13 11.9 11.9 0 0 1 5-2.3z" fill="#202020"/></svg>