<svg viewBox="0 0 64 64" xmlns="http://www.w3.org/2000/svg" aria-labelledby="title" aria-describedby="desc"><path fill="#cdf0f0" d="M50.021 24a12.992 12.992 0 0 0-24.955 4.108A7.738 7.738 0 0 0 24.01 28a8 8 0 1 0 0 16h26a10 10 0 0 0 .012-20z" data-name="layer3"/><path opacity=".1" fill="#000064" d="M25 30a14.016 14.016 0 0 1 .138-1.862l-.067-.067v.036A7.73 7.73 0 0 0 24.01 28a8 8 0 1 0 0 16H39a14 14 0 0 1-14-14z" data-name="opacity"/><path opacity=".5" fill="#fff" d="M46.172 24.775a10.054 10.054 0 0 0-3.52 2.458 12 12 0 0 1 14.115 14.115 9.981 9.981 0 0 0-6.12-17.315c-.208-.013-.414-.032-.625-.032a12.984 12.984 0 0 0-20.762-4.583 17.727 17.727 0 0 1 16.913 5.358z" data-name="opacity"/><path fill="#fc0" d="M24 28a7.73 7.73 0 0 1 1.057.107 13 13 0 0 1 6.093-10.136 10 10 0 1 0-13.43 13.087A7.98 7.98 0 0 1 24 28z" data-name="layer2"/><path opacity=".1" fill="#000064" d="M17.719 31.057A7.98 7.98 0 0 1 24 28a7.73 7.73 0 0 1 1.057.107 13 13 0 0 1 6.093-10.136 9.975 9.975 0 0 0-.936-1.651 13 13 0 0 0-10.148 11.787A7.73 7.73 0 0 0 19.01 28a7.949 7.949 0 0 0-4.035 1.1 10 10 0 0 0 2.744 1.957z" data-name="opacity"/><path d="M42.737 31L27.999 47h7.467L32.21 61l15.789-16.999h-7.368L42.737 31z" fill="#ff6" data-name="layer1"/><path d="M13.527 60.495L12.313 62m9.688-11.947l-4.366 5.313m28.342 2.223L42.439 62m9.57-11.948l-1.601 2M17.69 31.085a10 10 0 1 1 13.446-13.114M22.01 2.063v4.02M6.02 22.071H2M8.447 8.51l2.256 2.256M35.571 8.51l-2.255 2.255M10.703 33.378l-2.256 2.256" stroke-width="2" stroke-linejoin="round" stroke-linecap="round" stroke="#2e4369" fill="none" data-name="stroke"/><path stroke-width="2" stroke-linejoin="round" stroke-linecap="round" stroke="#2e4369" fill="none" d="M48 44h2a9.976 9.976 0 1 0 .022-19.951 12.992 12.992 0 0 0-24.954 4.107 7.916 7.916 0 0 0-1.057-.106A7.975 7.975 0 1 0 24 44h6.762" data-name="stroke"/><path d="M42.737 31L27.999 47h7.467L32.21 61l15.789-16.999h-7.368L42.737 31z" stroke-width="2" stroke-linejoin="round" stroke-linecap="round" stroke="#2e4369" fill="none" data-name="stroke"/></svg>