<svg xmlns="http://www.w3.org/2000/svg" viewBox="0 0 64 64" aria-labelledby="title" aria-describedby="desc"><path data-name="layer2" d="M61.4 41.7H17.5a2 2 0 0 0 0 4h43.9a2 2 0 0 0 0-4zm-4 8H21.5a2 2 0 0 0 0 4h35.9a2 2 0 0 0 0-4zm-4 8H29.5a2 2 0 1 0 0 4h23.9a2 2 0 0 0 0-4zm-29.9 0h-3.9a2 2 0 0 0 0 4h3.9a2 2 0 0 0 0-4z" fill="#202020"/><path data-name="layer1" d="M23.6 12.3a2 2 0 0 0 2-2v-6a2 2 0 1 0-4 0v6a2 2 0 0 0 2 2zm-13 13a2 2 0 0 0-2-2h-6a2 2 0 0 0 0 4h6a2 2 0 0 0 2-2zm1.3-8.9a2 2 0 0 0 2.8-2.8l-4.3-4.3a2 2 0 0 0-2.8 2.8zm22 .6a2 2 0 0 0 1.4-.6l4.3-4.3a2 2 0 1 0-2.8-2.8l-4.3 4.3a2 2 0 0 0 1.4 3.4zm-22 17.2l-4.3 4.2a2 2 0 0 0 2.8 2.8l4.3-4.2a2 2 0 1 0-2.8-2.8zm14.7-1.8h-1a8 8 0 0 0-7.6 5.3h43.6a10 10 0 0 0-10-9.5 13 13 0 0 0-25 4.1zm-10-.1a12 12 0 0 1 6.7-3.9 17.1 17.1 0 0 1 7.7-9.8 10 10 0 1 0-14.4 13.7z" fill="#202020"/></svg>