<svg xmlns="http://www.w3.org/2000/svg" viewBox="0 0 64 64" aria-labelledby="title" aria-describedby="desc"><path data-name="layer1" fill="none" stroke="#202020" stroke-miterlimit="10" stroke-width="2" d="M13.5 60.5L12.3 62M22 50.1l-4.4 5.3M46 57.6L42.4 62M52 50.1l-1.6 2" stroke-linejoin="round" stroke-linecap="round"/><path data-name="layer2" d="M17.7 31.1A10 10 0 1 1 31.2 18M22 2.1v4m-16 16H2M8.4 8.5l2.3 2.3m24.9-2.3l-2.3 2.3M10.7 33.4l-2.3 2.2" fill="none" stroke="#202020" stroke-miterlimit="10" stroke-width="2" stroke-linejoin="round" stroke-linecap="round"/><path data-name="layer2" d="M48 44h2a10 10 0 1 0 0-20 13 13 0 0 0-25 4.1h-1A8 8 0 1 0 24 44h6.8" fill="none" stroke="#202020" stroke-miterlimit="10" stroke-width="2" stroke-linejoin="round" stroke-linecap="round"/><path data-name="layer1" fill="none" stroke="#202020" stroke-miterlimit="10" stroke-width="2" d="M42.7 31L28 47h7.5l-3.3 14L48 44h-7.4l2.1-13z" stroke-linejoin="round" stroke-linecap="round"/></svg>