<svg viewBox="0 0 64 64" xmlns="http://www.w3.org/2000/svg" aria-labelledby="title" aria-describedby="desc"><path fill="#202020" d="M23.507 8.988a2 2 0 0 0 2-2V1.971a2 2 0 1 0-4 0v5.017a2 2 0 0 0 2 2zm9.305 3.68a2 2 0 0 0 2.828 0l3.548-3.548a2 2 0 1 0-2.828-2.829l-3.548 3.548a2 2 0 0 0 0 2.829zm-22.294 9.311a2 2 0 0 0-2-2H3.5a2 2 0 0 0 0 4h5.018a2 2 0 0 0 2-2zm1.27-8.892a2 2 0 0 0 2.828-2.829L11.361 7a2 2 0 0 0-2.828 2.83zm0 17.782l-3.257 3.256a2 2 0 1 0 2.828 2.828l3.257-3.253a2 2 0 0 0-2.828-2.828zm39.731-6.916a12.992 12.992 0 0 0-24.955 4.107 7.8 7.8 0 0 0-1.057-.105 8 8 0 0 0 0 16h26a10 10 0 0 0 .012-20zm-21.2-9.265A9.972 9.972 0 0 0 16.048 28.6a12 12 0 0 1 7.171-4.422 17.091 17.091 0 0 1 7.1-9.49z" data-name="layer2"/><path fill="#202020" d="M26 48a2.006 2.006 0 0 0-2 2v6.43a11.986 11.986 0 0 0-8.132-2.324 2 2 0 0 0 .334 3.986 8.01 8.01 0 0 1 7.973 4.721c.005.012.014.02.02.031A2 2 0 0 0 28 62V50a2.006 2.006 0 0 0-2-2zm-1.948 14.436l.006.018zm36.082-8.331A12 12 0 0 0 52 56.427V50a2 2 0 0 0-4 0v12a2 2 0 0 0 3.806.844c.005-.011.015-.019.02-.031a8.03 8.03 0 0 1 7.974-4.721 2 2 0 0 0 .334-3.986zm-8.191 8.35l.006-.02z" data-name="layer1"/><rect fill="#202020" ry="2" rx="2" height="7" width="4" y="48" x="32" data-name="layer1"/><rect fill="#202020" ry="2" rx="2" height="10" width="4" y="48" x="40" data-name="layer1"/><circle fill="#202020" r="2" cy="59" cx="34" data-name="layer1"/><circle fill="#202020" r="2" cy="62" cx="42" data-name="layer1"/><circle fill="#202020" r="2" cy="56" cx="10" data-name="layer1"/></svg>