<svg xmlns="http://www.w3.org/2000/svg" viewBox="0 0 64 64" aria-labelledby="title" aria-describedby="desc"><path data-name="layer2" d="M51 24a13 13 0 0 0-25 4.1h-1a8 8 0 1 0 0 16h26a10 10 0 0 0 0-20z" fill="#cdf0f0"/><path data-name="opacity" d="M26 30a14 14 0 0 1 .1-1.9H25a8 8 0 1 0 0 16h15A14 14 0 0 1 26 30z" fill="#000064" opacity=".1"/><path data-name="opacity" d="M47.2 24.8a10.1 10.1 0 0 0-3.5 2.5L46 27a12 12 0 0 1 11.8 14.3A10 10 0 0 0 51.6 24H51a13 13 0 0 0-20.8-4.6 17.7 17.7 0 0 1 16.9 5.4z" fill="#fff" opacity=".5"/><path data-name="layer1" d="M25 28h1.1a13 13 0 0 1 6.1-10 10 10 0 1 0-13.5 13.1A8 8 0 0 1 25 28z" fill="#fc0"/><path data-name="opacity" d="M18.7 31.1A8 8 0 0 1 25 28h1.1a13 13 0 0 1 6.1-10 10 10 0 0 0-.9-1.7 13 13 0 0 0-10.2 11.8H20a7.9 7.9 0 0 0-4 1.1 10 10 0 0 0 2.7 1.9z" fill="#000064" opacity=".1"/><path data-name="stroke" d="M18.7 31.1A10 10 0 1 1 32.1 18M23 2v4M7 22H3M9 8l3 3m25-3l-3 3M12 33l-3 3" fill="none" stroke="#2e4369" stroke-linecap="round" stroke-linejoin="round" stroke-width="2"/><path data-name="stroke" d="M51 24a13 13 0 0 0-25 4.1h-1a8 8 0 1 0 0 16h26a10 10 0 0 0 0-20zm0 26v12m-8-12v6m-8-6v12m-8-12v6" fill="none" stroke="#2e4369" stroke-linecap="round" stroke-linejoin="round" stroke-width="2"/></svg>