<svg xmlns="http://www.w3.org/2000/svg" viewBox="0 0 64 64" aria-labelledby="title" aria-describedby="desc"><path data-name="layer1" d="M50 25a13 13 0 0 0-25 4.1h-1a8 8 0 1 0 0 16h26a10 10 0 0 0 0-20z" fill="#cdf0f0"/><path data-name="opacity" d="M25 31a14 14 0 0 1 .1-1.9H24a8 8 0 1 0 0 16h15A14 14 0 0 1 25 31z" fill="#000064" opacity=".1"/><path data-name="opacity" d="M46.2 25.8a10.1 10.1 0 0 0-3.5 2.5L45 28a12 12 0 0 1 11.8 14.3A10 10 0 0 0 50.6 25H50a13 13 0 0 0-20.8-4.6 17.7 17.7 0 0 1 16.9 5.4z" fill="#fff" opacity=".5"/><path data-name="layer2" d="M24 29h1.1a13 13 0 0 1 6.1-10 10 10 0 1 0-13.5 13.1A8 8 0 0 1 24 29z" fill="#fc0"/><path data-name="opacity" d="M17.7 32.1A8 8 0 0 1 24 29h1.1a13 13 0 0 1 6.1-10 10 10 0 0 0-.9-1.7 13 13 0 0 0-10.2 11.8H19a7.9 7.9 0 0 0-4 1.1 10 10 0 0 0 2.7 1.9z" fill="#000064" opacity=".1"/><circle data-name="layer1" cx="24" cy="50" r="1" fill="#cdf0f0"/><circle data-name="layer1" cx="40" cy="50" r="1" fill="#cdf0f0"/><circle data-name="layer1" cx="50" cy="52" r="1" fill="#cdf0f0"/><circle data-name="layer1" cx="30" cy="54" r="1" fill="#cdf0f0"/><circle data-name="layer1" cx="22" cy="58" r="1" fill="#cdf0f0"/><circle data-name="layer1" cx="38" cy="58" r="1" fill="#cdf0f0"/><circle data-name="layer1" cx="48" cy="60" r="1" fill="#cdf0f0"/><path data-name="stroke" d="M17.7 32a10 10 0 1 1 13.5-13M22 3v4M6 23H2M8 9l3 3m25-3l-3 3M11 34l-3 3" fill="none" stroke="#2e4369" stroke-linecap="round" stroke-linejoin="round" stroke-width="2"/><path data-name="stroke" d="M50 25a13 13 0 0 0-25 4.1h-1a8 8 0 1 0 0 16h26a10 10 0 0 0 0-20z" fill="none" stroke="#2e4369" stroke-linecap="round" stroke-linejoin="round" stroke-width="2"/><circle data-name="stroke" cx="24" cy="50" r="1" fill="none" stroke="#2e4369" stroke-linecap="round" stroke-linejoin="round" stroke-width="2"/><circle data-name="stroke" cx="40" cy="50" r="1" fill="none" stroke="#2e4369" stroke-linecap="round" stroke-linejoin="round" stroke-width="2"/><circle data-name="stroke" cx="50" cy="52" r="1" fill="none" stroke="#2e4369" stroke-linecap="round" stroke-linejoin="round" stroke-width="2"/><circle data-name="stroke" cx="30" cy="54" r="1" fill="none" stroke="#2e4369" stroke-linecap="round" stroke-linejoin="round" stroke-width="2"/><circle data-name="stroke" cx="22" cy="58" r="1" fill="none" stroke="#2e4369" stroke-linecap="round" stroke-linejoin="round" stroke-width="2"/><circle data-name="stroke" cx="38" cy="58" r="1" fill="none" stroke="#2e4369" stroke-linecap="round" stroke-linejoin="round" stroke-width="2"/><circle data-name="stroke" cx="48" cy="60" r="1" fill="none" stroke="#2e4369" stroke-linecap="round" stroke-linejoin="round" stroke-width="2"/></svg>