<svg xmlns="http://www.w3.org/2000/svg" viewBox="0 0 64 64" aria-labelledby="title" aria-describedby="desc"><path data-name="layer2" d="M18.7 31a10 10 0 1 1 13.5-13M23 2v4M7 22H3M9 8l3 3m25-3l-3 3M12 33l-3 3" fill="none" stroke="#202020" stroke-miterlimit="10" stroke-width="2" stroke-linejoin="round" stroke-linecap="round"/><path data-name="layer2" d="M51 24a13 13 0 0 0-25 4.1h-1a8 8 0 0 0 0 16h26a10 10 0 0 0 0-20z" fill="none" stroke="#202020" stroke-miterlimit="10" stroke-width="2" stroke-linejoin="round" stroke-linecap="round"/><path data-name="layer1" fill="none" stroke="#202020" stroke-miterlimit="10" stroke-width="2" d="M51 50v6m-8-4v-2m-8 0v6m-8-6v2m0 4v2m8 2v2m8-6v2m8 2v2" stroke-linejoin="round" stroke-linecap="round"/></svg>