<svg viewBox="0 0 64 64" xmlns="http://www.w3.org/2000/svg" aria-labelledby="title" aria-describedby="desc"><path fill="#202020" d="M24 9.523a2 2 0 0 0 2-2V2.506a2 2 0 1 0-4 0v5.017a2 2 0 0 0 2 2zm8.812 3.677a2 2 0 0 0 2.828 0l3.548-3.548a2 2 0 0 0-2.828-2.826l-3.548 3.548a2 2 0 0 0 0 2.826zm-25 25a2 2 0 0 0 2.828 0l3.548-3.548a2 2 0 0 0-2.828-2.828l-3.548 3.55a2 2 0 0 0 0 2.826zm3.204-15.686a2 2 0 0 0-2-2H4a2 2 0 0 0 0 4h5.016a2 2 0 0 0 2-2zm1.269-8.893a2 2 0 1 0 2.828-2.828l-3.255-3.256a2 2 0 1 0-2.828 2.83zm39.732 10.867A12.992 12.992 0 0 0 27.061 28.6 7.8 7.8 0 0 0 26 28.49a8 8 0 1 0 0 16h26a10 10 0 0 0 .012-20zm-21.201-9.265a9.972 9.972 0 0 0-14.27 13.908 12 12 0 0 1 7.171-4.422 17.092 17.092 0 0 1 7.099-9.486z" data-name="layer2"/><circle fill="#202020" r="2" cy="49.491" cx="26.004" data-name="layer1"/><circle fill="#202020" r="2" cy="57.494" cx="24.004" data-name="layer1"/><circle fill="#202020" r="2" cy="53.491" cx="32" data-name="layer1"/><circle fill="#202020" r="2" cy="61.494" cx="32" data-name="layer1"/><circle fill="#202020" r="2" cy="57.488" cx="40.004" data-name="layer1"/><circle fill="#202020" r="2" cy="49.488" cx="42.002" data-name="layer1"/><circle fill="#202020" r="2" cy="51.488" cx="52" data-name="layer1"/><circle fill="#202020" r="2" cy="59.488" cx="50" data-name="layer1"/></svg>