<svg xmlns="http://www.w3.org/2000/svg" viewBox="0 0 64 64" aria-labelledby="title" aria-describedby="desc"><path data-name="layer2" d="M23.999 10a2 2 0 0 0 2-2V2a2 2 0 0 0-4 0v6a2 2 0 0 0 2 2zM8 22H2a2 2 0 0 0 0 4h6a2 2 0 0 0 0-4zm3.586-7.586a2 2 0 0 0 2.828-2.828l-5-5a2 2 0 0 0-2.828 2.828zM35 15a1.993 1.993 0 0 0 1.414-.586l5-5a2 2 0 0 0-2.828-2.828l-5 5A2 2 0 0 0 35 15z" fill="#202020"/><path data-name="layer1" d="M48.004 45.994h5.99a5.999 5.999 0 1 0 0-11.998 2 2 0 1 0 0 4 1.999 1.999 0 1 1 0 3.998h-5.99a2 2 0 0 0 0 4zM58 47.992h-9.992a2 2 0 0 0 0 4H58a1.999 1.999 0 1 1 0 3.998 2 2 0 0 0 0 4 5.999 5.999 0 1 0 0-11.998z" fill="#202020"/><path data-name="layer2" d="M36.998 47.994l-16.194-.002a6.795 6.795 0 1 1 1.985-13.294l2.22.675.34-2.294a11.584 11.584 0 0 1 22.033-3.03l.557 1.237 1.664-.078a8.371 8.371 0 0 1 4.526 1.321 2 2 0 0 0 2.158-3.367 12.346 12.346 0 0 0-5.845-1.926 15.63 15.63 0 0 0-13.635-8.04 15.326 15.326 0 0 0-2.79.263A10.995 10.995 0 1 0 16.01 31.54a10.785 10.785 0 0 0 4.794 20.453l16.194.002a2.999 2.999 0 1 1 0 5.997 2 2 0 0 0 0 4 6.999 6.999 0 1 0 0-13.997z" fill="#202020"/><path data-name="layer1" d="M39.995 31.998a2 2 0 0 0 0 4 1.999 1.999 0 1 1 0 3.998H29.328a2 2 0 0 0 0 4h10.667a5.999 5.999 0 1 0 0-11.998z" fill="#202020"/></svg>