<svg xmlns="http://www.w3.org/2000/svg" viewBox="0 0 64 64" aria-labelledby="title" aria-describedby="desc"><circle data-name="layer2" cx="32" cy="42" r="20" fill="#7b8baf"/><path data-name="opacity" d="M24 42a8 8 0 0 1 1-3.9A8 8 0 1 0 35.9 49 8 8 0 0 1 24 42z" fill="#000028" opacity=".25"/><path data-name="layer1" d="M32 34a8 8 0 1 0 8 8 8 8 0 0 0-8-8zm13-7.2V15A13 13 0 0 0 32 2a13 13 0 0 0-13 13v11.8l4-2.7V15a9 9 0 0 1 18 0v9.1z" fill="#8fa9d8"/><circle data-name="stroke" cx="32" cy="42" r="20" fill="none" stroke="#2e4369" stroke-linecap="round" stroke-linejoin="round" stroke-width="2"/><circle data-name="stroke" cx="32" cy="42" r="8" fill="none" stroke="#2e4369" stroke-linecap="round" stroke-linejoin="round" stroke-width="2"/><path data-name="stroke" fill="none" stroke="#2e4369" stroke-linecap="round" stroke-linejoin="round" stroke-width="2" d="M32 28v6m0 16v6M18 42h6m16 0h6M19 26.8V15A13 13 0 0 1 32 2a13 13 0 0 1 13 13v11.8"/><path data-name="stroke" d="M23 24.1V15a9 9 0 0 1 18 0v9.1" fill="none" stroke="#2e4369" stroke-linecap="round" stroke-linejoin="round" stroke-width="2"/></svg>