<svg xmlns="http://www.w3.org/2000/svg" viewBox="0 0 64 64" aria-labelledby="title" aria-describedby="desc"><path data-name="layer1" d="M51.848 6.381A34.133 34.133 0 0 0 31.46 0a32.755 32.755 0 0 0-20.179 6.528C5.617 10.96 2.5 16.964 2.5 23.434c0 5.993.946 10.628 5.584 15.972a1.489 1.489 0 0 0 2.151.109l4.558-4.326a1.488 1.488 0 0 0 .1-2.043c-2.816-3.317-3.148-5.735-3.148-9.712 0-7.822 8.843-14.186 19.713-14.186a24.863 24.863 0 0 1 14.848 4.538c3.51 2.626 5.442 5.992 5.442 9.477 0 3.342-.74 7.92-4.268 10.753-3.321 2.668-8.621 3.376-14.93 2V19.047a1.486 1.486 0 0 0-1.485-1.486h-6.583A1.486 1.486 0 0 0 23 19.047v34.61a.964.964 0 0 1-.362.633.631.631 0 0 1-.548.142l-5.471-1.114a1.485 1.485 0 0 0-1.752 1.159l-1.315 6.451a1.486 1.486 0 0 0 1.159 1.753l5.471 1.114a10.137 10.137 0 0 0 2.024.205 10.258 10.258 0 0 0 6.267-2.147 10.509 10.509 0 0 0 4.071-7.75l.007-.131v-8.539a35.73 35.73 0 0 0 5.9.509c5.835 0 10.945-1.6 14.824-4.715C58.328 37.168 61 30.956 61 23.263c0-6.472-3.251-12.467-9.152-16.882zm0 0" fill="#eb4427"/></svg>