<svg xmlns="http://www.w3.org/2000/svg" viewBox="0 0 64 64" aria-labelledby="title" aria-describedby="desc"><path data-name="layer1" d="M50.592 7.982A32 32 0 0 0 31.478 2 30.708 30.708 0 0 0 12.56 8.12c-5.31 4.155-8.234 9.78-8.234 15.85 0 5.619.886 9.964 5.235 14.973a1.4 1.4 0 0 0 2.016.1l4.273-4.053a1.4 1.4 0 0 0 .1-1.916C13.308 29.965 13 27.7 13 23.97c0-7.333 8.291-13.3 18.481-13.3A23.309 23.309 0 0 1 45.4 14.924c3.29 2.462 5.1 5.617 5.1 8.885 0 3.133-.694 7.425-4 10.081-3.113 2.5-8.082 3.165-14 1.875V19.857a1.393 1.393 0 0 0-1.393-1.393h-6.17a1.393 1.393 0 0 0-1.393 1.393V52.3a.9.9 0 0 1-.34.593.592.592 0 0 1-.514.133l-5.129-1.045a1.392 1.392 0 0 0-1.643 1.086l-1.232 6.053a1.393 1.393 0 0 0 1.086 1.643l5.128 1.045a9.5 9.5 0 0 0 1.9.192 9.617 9.617 0 0 0 5.875-2.013 9.852 9.852 0 0 0 3.817-7.266l.008-.121v-8.006a33.5 33.5 0 0 0 5.529.477 21.82 21.82 0 0 0 13.9-4.42c4.738-3.806 7.244-9.63 7.244-16.842 0-6.067-3.048-11.688-8.58-15.827zm0 0" fill="none" stroke="#202020" stroke-linecap="round" stroke-miterlimit="10" stroke-width="2" stroke-linejoin="round"/></svg>