<svg xmlns="http://www.w3.org/2000/svg" viewBox="0 0 64 64" aria-labelledby="title" aria-describedby="desc"><path data-name="layer2" d="M59.777 14.977a13.284 13.284 0 0 0-2.081-2 27.4 27.4 0 0 1-.5 6.19 25.386 25.386 0 0 1-8.72 14.577 24.969 24.969 0 0 1-15.954 5.491h-8.815l-2.873 13.383a5.823 5.823 0 0 1-5.549 4.593h-3.964l-.694 3.295a2.639 2.639 0 0 0 .595 2.4A2.762 2.762 0 0 0 13.4 64h9.711a2.772 2.772 0 0 0 2.775-2.3l3.369-15.775h11.1a22.022 22.022 0 0 0 14.17-4.892 23.185 23.185 0 0 0 7.729-12.98c1.09-5.289.297-9.682-2.477-13.076z" fill="#0085cc"/><path data-name="layer1" d="M18.059 52.019l3.369-15.676h11.1A22.022 22.022 0 0 0 46.7 31.451a23.185 23.185 0 0 0 7.729-12.98c1.09-5.292.3-9.785-2.378-13.179A15.293 15.293 0 0 0 40.256 0H16.077A2.772 2.772 0 0 0 13.3 2.3L2.8 50.721a2.639 2.639 0 0 0 .595 2.4 2.762 2.762 0 0 0 2.18 1.1h9.711a2.705 2.705 0 0 0 2.773-2.202zm8.918-40.936h7.63a5.437 5.437 0 0 1 4.36 2.1 6.073 6.073 0 0 1 .892 5.292v.1c-.991 4.094-4.955 7.388-8.819 7.388h-7.333z" fill="#002987"/></svg>