<svg xmlns="http://www.w3.org/2000/svg" viewBox="0 0 64 64" aria-labelledby="title" aria-describedby="desc"><path data-name="layer2" d="M22.812 36.858l-.1.6a2.792 2.792 0 0 1 2.78-2.4h5.759c11.22 0 20.058-4.607 22.64-17.928.1-.4.1-.8.2-1.1.794-4.908 0-8.313-2.681-11.318C48.43 1.4 43.167 0 36.415 0H16.953a2.792 2.792 0 0 0-2.78 2.4L6.031 54.285a1.628 1.628 0 0 0 1.688 1.9h12.014l3.078-19.33" fill="#002987"/><path data-name="layer1" d="M57.565 19.03c-.2-.2-.3-.4-.5-.5-2.479 13.019-11.217 19.93-25.019 19.93h-5.759c-.1 0-.2.1-.3.2l-3.076 19.932a.94.94 0 0 1-1.092.9h-.4a1.476 1.476 0 0 0-1.39 1.2l-.3 1.6A1.524 1.524 0 0 0 21.223 64h10.128a2.453 2.453 0 0 0 2.383-2.1l.1-.5 1.886-12.223.1-.7a2.453 2.453 0 0 1 2.383-2.1h1.489c9.83 0 17.476-4.006 19.76-15.624 1.092-4.712.596-8.819-1.887-11.723z" fill="#0085cc"/></svg>