<svg xmlns="http://www.w3.org/2000/svg" viewBox="0 0 64 64" aria-labelledby="title" aria-describedby="desc"><path data-name="layer2" d="M45.5 38.4c-5.2-5.7-4.6-6.1-5.5-12.3s-3.8-7.3-6.5-7.9C32.6 8.3 25 2.6 24.7 2.4a2 2 0 0 0-2.4 3.2 19.5 19.5 0 0 1 7.1 12.6c-2.7.6-5.6 2.6-6.3 7.8s-.3 6.7-5.5 12.3-4.7 14.4-2.1 18.4 9 6.2 13 4.7c1.4-.5 2.1-1.5 3.1-1.5s1.8 1 3.1 1.5c3.9 1.6 10.4-.7 13-4.7s3.2-12.4-2.2-18.3z" fill="#202020"/><path data-name="layer1" d="M50.5 3c-13.6 0-15.5 8-16 14 12.1 3 16-4 16-14z" fill="#202020"/></svg>