<svg viewBox="0 0 64 64" xmlns="http://www.w3.org/2000/svg" aria-labelledby="title" aria-describedby="desc"><path d="M37.227 10.768l2.936-2.936 16.002 16.003-2.936 2.936zm6.588 12.244L20.631 46.2a7.326 7.326 0 0 0 .014 10.332l1.414 1.414L50.4 29.6zM17.817 59.356A11.312 11.312 0 0 1 14.7 49.3a11.386 11.386 0 0 1-2.055.192 11.242 11.242 0 0 1-8-3.314l-.788-.788L0 64l18.6-3.856zM34.4 13.6L6.057 41.939l1.414 1.414a7.316 7.316 0 0 0 10.346 0l23.169-23.17z" fill="#202020" data-name="layer2"/><path fill="#202020" d="M63.942 11.143a12.507 12.507 0 0 0-3.774-7.313A12 12 0 0 0 51.818 0a9.37 9.37 0 0 0-6.712 2.889L42.99 5l16 16 2.114-2.114a9.256 9.256 0 0 0 2.838-7.743z" data-name="layer1"/></svg>