<svg xmlns="http://www.w3.org/2000/svg" viewBox="0 0 64 64" aria-labelledby="title" aria-describedby="desc"><circle data-name="layer2" cx="32" cy="23" r="5" fill="none" stroke="#202020" stroke-miterlimit="10" stroke-width="2" stroke-linejoin="round" stroke-linecap="round"/><path data-name="layer2" d="M40.4 32H23.6a1.6 1.6 0 0 0-1.6 1.6v10.8a1.6 1.6 0 0 0 1.6 1.6H26v12.4a1.6 1.6 0 0 0 1.6 1.6h8.8a1.6 1.6 0 0 0 1.6-1.6V46h2.4a1.6 1.6 0 0 0 1.6-1.6V33.6a1.6 1.6 0 0 0-1.6-1.6z" fill="none" stroke="#202020" stroke-miterlimit="10" stroke-width="2" stroke-linejoin="round" stroke-linecap="round"/><circle data-name="layer1" cx="10" cy="8" r="4" fill="none" stroke="#202020" stroke-miterlimit="10" stroke-width="2" stroke-linejoin="round" stroke-linecap="round"/><path data-name="layer1" d="M16.4 16H3.6A1.6 1.6 0 0 0 2 17.6v8.8A1.6 1.6 0 0 0 3.6 28H6v10.4A1.6 1.6 0 0 0 7.6 40h4.8a1.6 1.6 0 0 0 1.6-1.6V28h2.4a1.6 1.6 0 0 0 1.6-1.6v-8.8a1.6 1.6 0 0 0-1.6-1.6z" fill="none" stroke="#202020" stroke-miterlimit="10" stroke-width="2" stroke-linejoin="round" stroke-linecap="round"/><circle data-name="layer1" cx="54" cy="8" r="4" fill="none" stroke="#202020" stroke-miterlimit="10" stroke-width="2" stroke-linejoin="round" stroke-linecap="round"/><path data-name="layer1" d="M60.4 16H47.6a1.6 1.6 0 0 0-1.6 1.6v8.8a1.6 1.6 0 0 0 1.6 1.6H50v10.4a1.6 1.6 0 0 0 1.6 1.6h4.8a1.6 1.6 0 0 0 1.6-1.6V28h2.4a1.6 1.6 0 0 0 1.6-1.6v-8.8a1.6 1.6 0 0 0-1.6-1.6z" fill="none" stroke="#202020" stroke-miterlimit="10" stroke-width="2" stroke-linejoin="round" stroke-linecap="round"/></svg>