<svg xmlns="http://www.w3.org/2000/svg" viewBox="0 0 64 64" aria-labelledby="title" aria-describedby="desc"><path data-name="layer2" d="M31.163 1.989a23.59 23.59 0 0 0-23.59 23.59c0 15.486 19.182 36.41 23.59 36.41s23.59-20.335 23.59-36.41a23.59 23.59 0 0 0-23.59-23.59zm-.107 41.247a16.791 16.791 0 1 1 16.791-16.791 16.791 16.791 0 0 1-16.791 16.791zm0 0" fill="none" stroke="#202020" stroke-linecap="round" stroke-miterlimit="10" stroke-width="2" stroke-linejoin="round"/><path data-name="layer1" d="M31.056 13.445c-.4 0-.795.021-1.185.056a6.319 6.319 0 1 1-10.393 7.035 13 13 0 1 0 11.578-7.091zm0 0" fill="none" stroke="#202020" stroke-linecap="round" stroke-miterlimit="10" stroke-width="2" stroke-linejoin="round"/></svg>