<svg xmlns="http://www.w3.org/2000/svg" viewBox="0 0 64 64" aria-labelledby="title" aria-describedby="desc"><path data-name="layer2" d="M31.163-.011A25.163 25.163 0 0 0 6 25.151c0 16.518 20.461 38.838 25.162 38.838S56.325 42.3 56.325 25.151A25.162 25.162 0 0 0 31.163-.011zm-.114 44a17.911 17.911 0 1 1 17.91-17.914 17.91 17.91 0 0 1-17.91 17.911zm0 0" fill="#00a4c3"/><path data-name="layer1" d="M31.049 11.625c-.444 0-.883.023-1.317.063a7.024 7.024 0 1 1-11.553 7.82 14.45 14.45 0 1 0 12.87-7.882zm0 0" fill="#ff4b30"/></svg>