<svg xmlns="http://www.w3.org/2000/svg" viewBox="0 0 64 64" aria-labelledby="title" aria-describedby="desc"><path data-name="layer2" d="M15 24a3.9 3.9 0 0 0 3-4.5c-.3-3 1.4-7.5 14-7.5s14.3 4.4 14 7.5 2.9 4.3 4 4.5 4.8 1.5 6.1 1.8 3.2.8 4.6-1.1a11.2 11.2 0 0 0-2-13.2C53.5 6.3 43.1 4 32 4S10.5 6.3 5.3 11.4a11.2 11.2 0 0 0-2 13.2c1.4 1.8 3.3 1.3 4.6 1.1z" fill="#9cf"/><path data-name="opacity" d="M4.3 14.4C9.5 9.3 19.9 7 31 7s21.5 2.3 26.7 7.4a11.2 11.2 0 0 1 3.1 10 11.3 11.3 0 0 0-2.1-13C53.5 6.3 43.1 4 32 4S10.5 6.3 5.3 11.4a11 11 0 0 0-3.1 5.9 11.4 11.4 0 0 1 2.1-2.9z" fill="#fff" opacity=".25"/><path data-name="layer2" d="M56 60V48a22 22 0 0 0-22-22h-4A22 22 0 0 0 8 48v12z" fill="#9cf"/><path data-name="opacity" d="M13 57V45a22 22 0 0 1 8.3-17.2A22 22 0 0 0 8 48v12h48v-3z" fill="#000064" opacity=".15"/><path data-name="layer1" fill="#dbf1ff" d="M21 35h2v2h-2zm10 0h2v2h-2zm10 0h2v2h-2zm-20 8h2v2h-2zm10 0h2v2h-2zm10 0h2v2h-2zm-20 8h2v2h-2zm10 0h2v2h-2zm10 0h2v2h-2z"/><path data-name="stroke" d="M15 24a3.9 3.9 0 0 0 3-4.5c-.3-3 1.4-7.5 14-7.5s14.3 4.4 14 7.5 2.9 4.3 4 4.5 4.8 1.5 6.1 1.8 3.2.8 4.6-1.1a11.2 11.2 0 0 0-2-13.2C53.5 6.3 43.1 4 32 4S10.5 6.3 5.3 11.4a11.2 11.2 0 0 0-2 13.2c1.4 1.8 3.3 1.3 4.6 1.1z" fill="none" stroke="#2e4369" stroke-linecap="round" stroke-miterlimit="10" stroke-width="2" stroke-linejoin="round"/><path data-name="stroke" d="M56 60V48a22 22 0 0 0-22-22h-4A22 22 0 0 0 8 48v12zM26 20v6.4M38 20v6.4" fill="none" stroke="#2e4369" stroke-linecap="round" stroke-miterlimit="10" stroke-width="2" stroke-linejoin="round"/><path data-name="stroke" fill="none" stroke="#2e4369" stroke-linecap="round" stroke-miterlimit="10" stroke-width="2" d="M21 35h2v2h-2zm10 0h2v2h-2zm10 0h2v2h-2zm-20 8h2v2h-2zm10 0h2v2h-2zm10 0h2v2h-2zm-20 8h2v2h-2zm10 0h2v2h-2zm10 0h2v2h-2z" stroke-linejoin="round"/></svg>