<svg xmlns="http://www.w3.org/2000/svg" viewBox="0 0 64 64" aria-labelledby="title" aria-describedby="desc"><path data-name="layer1" d="M44.6 36.6a2 2 0 0 0 0 2.8 2 2 0 0 0 2.8 0A2 2 0 0 0 48 38a2 2 0 0 0-.6-1.4 2.1 2.1 0 0 0-2.8 0z" fill="#202020"/><path data-name="layer2" d="M59 18H36.6L30 10H14l-6.6 8H5a3 3 0 0 0-3 3v30a3 3 0 0 0 3 3h54a3 3 0 0 0 3-3V21a3 3 0 0 0-3-3zM30 46H10V28h20zm16 0a8 8 0 1 1 8-8 8 8 0 0 1-8 8z" fill="#202020"/><path data-name="layer1" fill="#202020" d="M46 10h10v4H46z"/></svg>