<svg xmlns="http://www.w3.org/2000/svg" viewBox="0 0 64 64" aria-labelledby="title" aria-describedby="desc"><path data-name="layer1" d="M50.1 44.1A5 5 0 0 1 52 48v6a5 5 0 0 1-2.6 4.4 2 2 0 0 1-1.9-3.5 1 1 0 0 0 .5-.9v-6a1 1 0 0 0-1-1h-4a1 1 0 0 0-1 1v6a1 1 0 0 0 .6.9 2 2 0 0 1-.9 3.8l-.9-.2A5 5 0 0 1 38 54v-6a5 5 0 0 1 5-5 3.3 3.3 0 0 0-.3-.9 7.7 7.7 0 0 1-1.9-1.1l-.7-.9a19.2 19.2 0 0 0 6.4-9.3c3.1-1 4.2-5.1 4.2-7.1s-1.3-3.9-2.9-4.3v-2c0-11.3-8-16.4-16-16.4s-16 5.1-16 16.4v1.9c-1.6.5-2.9 1.7-2.9 4.5s1.1 6 4.2 7a18.9 18.9 0 0 0 6.9 9.8 2 2 0 0 1 .1.4v10.6a4 4 0 1 1-4 0v-9.2a39.6 39.6 0 0 1-6.5 1.6C2 46.2 2 55 2 55v8h28V43.7l-3.9-2.5a2 2 0 0 0 .5-3.6 15.3 15.3 0 0 1-6.3-9.1L20 27h-1.6c-1.2 0-1.8-2.6-1.8-3.3a4 4 0 0 1 0-.5h2.9v-2.3c6-.5 9-2.9 11.5-5s3.7-2.9 6.6-2.9a5.6 5.6 0 0 1 6 5v5h2.9a4.1 4.1 0 0 1 0 .5c0 .6-.6 3.3-1.8 3.3h-1.5l-.4 1.5a15.3 15.3 0 0 1-6.3 9.1 2 2 0 0 0-.7 2.7 2 2 0 0 0 1.5.9L34 43.6V63h28v-8s0-8.4-11.9-10.9z" fill="#202020"/></svg>