<svg xmlns="http://www.w3.org/2000/svg" viewBox="0 0 64 64" aria-labelledby="title" aria-describedby="desc"><path data-name="layer3" d="M39.3 39.1a3.7 3.7 0 0 1-.3-1.8 18 18 0 0 0 5.8-9.3c3 0 3.2-4 3.2-5s0-3-3-3v-3.2c-.1-1.2-.8-6.8-7.4-6.8S30 18 18 18v2c-3 0-3 2.1-3 3s.4 5 3.4 5a17.1 17.1 0 0 0 5.6 9.1 6.3 6.3 0 0 1-.1 1.5l8.4 5.4z" fill="#e8d4d4"/><path data-name="layer2" d="M13.6 43C2 45.2 2 54 2 54v8h60v-8s0-8.7-12.4-11c-7.4-1.4-9.6-2.6-10.3-3.9l-7 4.9-8.3-5.4c-.4 1.4-2.1 2.9-10.4 4.4z" fill="#dfeef8"/><path data-name="layer1" d="M45 16.8v-.4C45 6 38.6 2 32 2S18 6 18 16.4V18c12 0 11.6-8 19.6-8s7.3 5.5 7.4 6.8z" fill="#64738f"/><path data-name="opacity" d="M24 45c4 3 9-1 12-6-14 5-15-16-14-21 0-2.8.9-14 7.2-15.8C23.5 3.2 18 7.4 18 16.4V20c-3 0-3 2.1-3 3s.4 5 3.4 5a17.1 17.1 0 0 0 5.6 9.1 6.3 6.3 0 0 1-.1 1.5c-.3 1.5-2.1 2.9-10.3 4.4C2 45.2 2 54 2 54v8h8v-8c0-5 9-6 14-9z" fill="#000064" opacity=".15"/><path data-name="stroke" d="M32 2c-6.6 0-14 4-14 14.4V20c-3 0-3 2.1-3 3s.4 5 3.4 5a17.2 17.2 0 0 0 7.2 10.3m12 0A17.2 17.2 0 0 0 44.8 28c3 0 3.2-4 3.2-5s0-3-3-3v-3.6C45 6 38.6 2 32 2" fill="none" stroke="#2e4369" stroke-linecap="round" stroke-linejoin="round" stroke-width="2"/><path data-name="stroke" d="M24 37.1c0 2 .6 3.8-10.4 5.9S2 54 2 54v8h60v-8s0-8.7-12.4-11C38.9 41 39 39.3 39 37.3M18 18c12 0 11.6-8 19.6-8s7.4 7 7.4 7" fill="none" stroke="#2e4369" stroke-linecap="round" stroke-linejoin="round" stroke-width="2"/><path data-name="stroke" fill="none" stroke="#2e4369" stroke-linecap="round" stroke-linejoin="round" stroke-width="2" d="M23.9 38.7L32 44l7.2-5.1M32 44v18M22 40.6V52"/><circle data-name="stroke" cx="22" cy="54" r="2" fill="none" stroke="#2e4369" stroke-linecap="round" stroke-linejoin="round" stroke-width="2"/><path data-name="stroke" d="M41.7 55.7A3 3 0 0 1 40 53v-6a3 3 0 0 1 3-3h4a3 3 0 0 1 3 3v6a3 3 0 0 1-1.6 2.6M45 44s1-6-5-6h-1" fill="none" stroke="#2e4369" stroke-linecap="round" stroke-linejoin="round" stroke-width="2"/></svg>