<svg xmlns="http://www.w3.org/2000/svg" viewBox="0 0 64 64" aria-labelledby="title" aria-describedby="desc"><path data-name="layer1" fill="#42598d" d="M44 8h8v24h-8zM28 8h8v24h-8z"/><path data-name="layer2" fill="#fff" d="M52 8v24h-8V8h-8v24h-8V8h-8v24h-8V8H2v48h60V8H52z"/><path data-name="layer1" fill="#42598d" d="M12 8h8v24h-8z"/><path data-name="opacity" fill="#000064" opacity=".15" d="M13 32h3v24h-3zM9 8h3v24H9zm16 0h3v24h-3zm16 0h3v24h-3zM29 32h3v24h-3zm16 0h3v24h-3z"/><path data-name="stroke" fill="none" stroke="#2e4369" stroke-linecap="round" stroke-miterlimit="10" stroke-width="2" d="M16 32v24m16-24v24m16-24v24M20 8v24h-8V8m24 0v24h-8V8m24 0v24h-8V8" stroke-linejoin="round"/><path data-name="stroke" fill="none" stroke="#2e4369" stroke-linecap="round" stroke-miterlimit="10" stroke-width="2" d="M2 8h60v48H2z" stroke-linejoin="round"/></svg>