<svg xmlns="http://www.w3.org/2000/svg" viewBox="0 0 64 64" aria-labelledby="title" aria-describedby="desc"><path data-name="layer3" d="M50 27l-5.5-10a3.7 3.7 0 0 0-3.1-2H28v12z" fill="#c3d6e0"/><path data-name="layer2" d="M59 27H2v14h8a6 6 0 0 1 12 0h24a6 6 0 0 1 12 0h4V30a3 3 0 0 0-3-3z" fill="#f27e7c"/><circle data-name="layer1" cx="16" cy="41" r="6" fill="#7b8baf"/><circle data-name="layer1" cx="52" cy="41" r="6" fill="#7b8baf"/><circle data-name="opacity" cx="16" cy="41" r="3" fill="#000064" opacity=".2"/><circle data-name="opacity" cx="52" cy="41" r="3" fill="#000064" opacity=".2"/><path data-name="opacity" fill="#fff" opacity=".5" d="M37.2 27H41l5.8-5.8-1.3-2.5-8.3 8.3zm4.2-12h-8.1L28 20.3V27h3.1l11.7-11.7a3.1 3.1 0 0 0-1.4-.3z"/><path data-name="opacity" d="M7 38V27H2v14h8a6 6 0 0 1 .8-3zm50.2 0a6 6 0 0 1 .8 3h4v-3zm-36 0a6 6 0 0 1 .8 3h24a6 6 0 0 1 .8-3z" fill="#000064" opacity=".15"/><path data-name="stroke" d="M50 27l-5.5-10a3.7 3.7 0 0 0-3.1-2H28v12M10 41H2V27h57a3 3 0 0 1 3 3v11h-4m-36 0h24" fill="none" stroke="#2e4369" stroke-linecap="round" stroke-linejoin="round" stroke-width="2"/><circle data-name="stroke" cx="16" cy="41" r="6" fill="none" stroke="#2e4369" stroke-linecap="round" stroke-linejoin="round" stroke-width="2"/><circle data-name="stroke" cx="52" cy="41" r="6" fill="none" stroke="#2e4369" stroke-linecap="round" stroke-linejoin="round" stroke-width="2"/></svg>