<svg xmlns="http://www.w3.org/2000/svg" viewBox="0 0 64 64" aria-labelledby="title" aria-describedby="desc"><circle data-name="layer1" cx="32" cy="24" r="4" fill="none" stroke="#202020" stroke-miterlimit="10" stroke-width="2" stroke-linejoin="round" stroke-linecap="round"/><path data-name="layer1" fill="none" stroke="#202020" stroke-miterlimit="10" stroke-width="2" d="M32 34.6V50" stroke-linejoin="round" stroke-linecap="round"/><path data-name="layer3" fill="none" stroke="#202020" stroke-miterlimit="10" stroke-width="2" d="M2 50h60" stroke-linejoin="round" stroke-linecap="round"/><path data-name="layer2" fill="none" stroke="#202020" stroke-miterlimit="10" stroke-width="2" d="M2 2h60v60H2z" stroke-linejoin="round" stroke-linecap="round"/><path data-name="layer1" d="M48 21.3a6.3 6.3 0 0 0-10-5 6.2 6.2 0 0 0 .4-2 6.3 6.3 0 1 0-12.2 2.1 6.3 6.3 0 1 0-3.8 11.2 6.3 6.3 0 1 0 9.6 6.8 6.3 6.3 0 1 0 9.7-6.8 6.3 6.3 0 0 0 6.3-6.3z" fill="none" stroke="#202020" stroke-miterlimit="10" stroke-width="2" stroke-linejoin="round" stroke-linecap="round"/></svg>