<svg xmlns="http://www.w3.org/2000/svg" viewBox="0 0 64 64" aria-labelledby="title" aria-describedby="desc"><path data-name="layer2" d="M48.5 53.2c-4.1-1.9-3.7-2.9-10.5-3.2s-9.8.7-14-2a13.7 13.7 0 0 0-8-2c-5.2.6-9.7-1.5-10-2v6l52 12V52a9.4 9.4 0 0 1-9.5 1.2z" fill="#f6b36d"/><path data-name="layer3" d="M58 40S37.2 24.1 28 16C12 19 6 30 6 30l52 10z" fill="#fad8b6"/><path data-name="opacity" d="M48.5 53.2c-4.1-1.9-3.7-2.9-10.5-3.2s-9.8.7-14-2a13.7 13.7 0 0 0-8-2c-5.2.6-9.7-1.5-10-2v6l52 12V52a9.4 9.4 0 0 1-9.5 1.2z" fill="#101129" opacity=".18"/><path data-name="layer2" fill="#f6b36d" d="M58 40L6 30v8l52 10v-8z"/><path data-name="layer1" d="M6 38v6c.3.5 4.8 2.6 10 2a13.7 13.7 0 0 1 8 2c4.2 2.7 7.2 1.7 14 2s6.4 1.3 10.5 3.2A9.4 9.4 0 0 0 58 52v-4z" fill="#68963f"/><path data-name="stroke" d="M58 40S37.2 24.1 28 16C12 19 6 30 6 30l52 10z" fill="none" stroke="#2f446a" stroke-linecap="round" stroke-linejoin="round" stroke-width="2"/><path data-name="stroke" fill="none" stroke="#2f446a" stroke-linecap="round" stroke-linejoin="round" stroke-width="2" d="M6 30v20l52 12V40m0 8L6 38"/><path data-name="stroke" d="M58 52a9.4 9.4 0 0 1-9.5 1.2c-4.1-1.9-3.7-2.9-10.5-3.2s-9.8.7-14-2a13.7 13.7 0 0 0-8-2c-5.2.6-9.7-1.5-10-2M34 2v26" fill="none" stroke="#2f446a" stroke-linecap="round" stroke-linejoin="round" stroke-width="2"/></svg>