<svg xmlns="http://www.w3.org/2000/svg" viewBox="0 0 64 64" aria-labelledby="title" aria-describedby="desc"><path data-name="layer1" d="M0-.006v64h64v-64zm39.1 44.5h-4v9.4h-7.2v-23.4a19.816 19.816 0 0 1-3.6.4h-4v9.4H13v-30.2h11.2c7.4 0 11.9 3.9 11.9 10.4a11.419 11.419 0 0 1-.5 3.3H39c7.4 0 11.9 3.9 11.9 10.4.1 6.3-4.4 10.3-11.8 10.3z" fill="#459649"/><path data-name="layer1" d="M24.5 16.694h-4.2v7.9h4.2c3.1 0 4.4-1.6 4.4-4 0-2.3-1.4-3.9-4.4-3.9zm14.8 13.6h-4.2v7.9h4.2c3.1 0 4.4-1.6 4.4-4 0-2.3-1.4-3.9-4.4-3.9z" fill="#459649"/></svg>