<svg xmlns="http://www.w3.org/2000/svg" viewBox="0 0 64 64" aria-labelledby="title" aria-describedby="desc"><path data-name="layer2" fill="none" stroke="#202020" stroke-linecap="round" stroke-miterlimit="10" stroke-width="2" d="M2 1.994h60v60H2z" stroke-linejoin="round"/><path data-name="layer1" d="M38.656 43.713h-3.75v8.813h-6.75V30.588a18.578 18.578 0 0 1-3.375.375h-3.75v8.812h-6.844V11.463h10.5c6.937 0 11.156 3.656 11.156 9.75a10.7 10.7 0 0 1-.469 3.094h3.187c6.938 0 11.156 3.656 11.156 9.75.095 5.906-4.123 9.656-11.061 9.656z" fill="none" stroke="#202020" stroke-linecap="round" stroke-miterlimit="10" stroke-width="2" stroke-linejoin="round"/><path data-name="layer1" d="M24.969 17.651h-3.938v7.406h3.938c2.906 0 4.125-1.5 4.125-3.75 0-2.156-1.313-3.656-4.125-3.656zM38.844 30.4h-3.938v7.406h3.938c2.906 0 4.125-1.5 4.125-3.75 0-2.156-1.313-3.656-4.125-3.656z" fill="none" stroke="#202020" stroke-linecap="round" stroke-miterlimit="10" stroke-width="2" stroke-linejoin="round"/></svg>