<svg xmlns="http://www.w3.org/2000/svg" viewBox="0 0 64 64" aria-labelledby="title" aria-describedby="desc"><path data-name="layer1" fill="#202020" d="M29 49.006h6v-6h6v-6h-6v-6h-6v6h-6v6h6v6z"/><path data-name="layer2" d="M44 16.006H19a7.008 7.008 0 0 0-7 7v34a7.008 7.008 0 0 0 7 7h25a7.008 7.008 0 0 0 7-7v-34a7.008 7.008 0 0 0-7-7zm4 39H15v-29h33z" fill="#202020"/><path data-name="layer1" d="M23 6.006a1 1 0 0 1 2 0v8h6v-8a1 1 0 0 1 2 0v8h6v-8a1 1 0 0 1 2 0v8h5v-10a4 4 0 0 0-4-4H21a4 4 0 0 0-4 4v10h6z" fill="#202020"/></svg>