<svg xmlns="http://www.w3.org/2000/svg" viewBox="0 0 64 64" aria-labelledby="title" aria-describedby="desc"><path data-name="layer2" d="M42.667 42.667L27.733 57.6a15.129 15.129 0 0 1-21.333 0 15.129 15.129 0 0 1 0-21.333l14.933-14.934z" fill="#cbe5ff"/><path data-name="layer1" d="M57.6 6.4a15.129 15.129 0 0 0-21.333 0L21.333 21.333l21.334 21.334L57.6 27.733a15.129 15.129 0 0 0 0-21.333z" fill="#f4475d"/><path data-name="opacity" d="M9.4 39.267l14.933-14.934L39.267 9.4a15.127 15.127 0 0 1 19.714-1.381A14.966 14.966 0 0 0 57.6 6.4a15.129 15.129 0 0 0-21.333 0L21.333 21.333 6.4 36.267a15.129 15.129 0 0 0 0 21.333 14.969 14.969 0 0 0 1.619 1.381A15.127 15.127 0 0 1 9.4 39.267z" fill="#fff" opacity=".4"/><path data-name="opacity" d="M59.912 9.417A14.931 14.931 0 0 0 57.6 6.4c-.283-.283-.582-.541-.882-.8a15.6 15.6 0 0 1-4.266 13.951l-30.88 30.88a15.648 15.648 0 0 1-18.012 2.9A14.562 14.562 0 0 0 5.4 55.6c5.867 5.867 14.467 4.867 20.333-1L55.6 24.733c4.391-4.391 6.494-9.873 4.312-15.316z" fill="#000064" opacity=".2"/><path data-name="opacity" d="M46 3.978c-7.374.141-9.365 7.148-7.139 7.75 1.971.738 4.863-.417 7.139-.143 2.276-.274 5.169.881 7.139.143 2.226-.602.235-7.609-7.139-7.75z" fill="#fff" opacity=".5"/><path data-name="stroke" d="M21.333 21.333L6.4 36.267a15.129 15.129 0 0 0 0 21.333 15.129 15.129 0 0 0 21.333 0l14.934-14.933M57.6 6.4a15.129 15.129 0 0 0-21.333 0L21.333 21.333l21.334 21.334L57.6 27.733a15.129 15.129 0 0 0 0-21.333z" fill="none" stroke="#2e4369" stroke-linecap="round" stroke-miterlimit="10" stroke-width="2" stroke-linejoin="round"/></svg>