<svg viewBox="0 0 64 64" xmlns="http://www.w3.org/2000/svg" aria-labelledby="title" aria-describedby="desc"><path fill="#f26161" d="M32 2a16 16 0 0 0-4.4 31.4l4.4 13 4.4-13.1A16 16 0 0 0 32 2zm0 22a6 6 0 1 1 6-6 6 6 0 0 1-6 6z" data-name="layer1"/><path opacity=".2" fill="#000032" d="M19 17a16 16 0 0 1 9.5-14.6 16 16 0 0 0-.8 31l4.3 13-1.4-14A16 16 0 0 1 19 17z" data-name="opacity"/><path d="M16 62l32-14m0 14L16 48m32-30a16 16 0 1 0-20.4 15.4l4.4 13 4.4-13.1A16 16 0 0 0 48 18z" stroke-width="2" stroke-miterlimit="10" stroke-linecap="round" stroke="#2e4369" fill="none" data-name="stroke" stroke-linejoin="round"/><circle stroke-width="2" stroke-miterlimit="10" stroke-linecap="round" stroke="#2e4369" fill="none" r="6" cy="18" cx="32" data-name="stroke" stroke-linejoin="round"/></svg>