<svg xmlns="http://www.w3.org/2000/svg" viewBox="0 0 64 64" aria-labelledby="title" aria-describedby="desc"><path data-name="layer1" d="M48.9 1.4L48.4 0H15.6l-.5 1.4A45.3 45.3 0 0 0 13 14c0 4.7 2.3 13.4 3.7 18.6l.5 1.7A46.2 46.2 0 0 1 19 46v14a4 4 0 0 0 4.1 4h17.8a4 4 0 0 0 4.1-4V46a46.2 46.2 0 0 1 1.9-11.6l.5-1.7c1.3-5.3 3.6-14 3.6-18.7a45.3 45.3 0 0 0-2.1-12.6zM30 52a3 3 0 1 1 3-3 3 3 0 0 1-3 3zm0-22a3 3 0 1 1-3 3 3 3 0 0 1 3-3zm-1-9a3 3 0 1 1 3 3 3 3 0 0 1-3-3zm5 23a3 3 0 1 1 3-3 3 3 0 0 1-3 3zm4-14a3 3 0 1 1 3-3 3 3 0 0 1-3 3zM17.1 12a43.5 43.5 0 0 1 1.4-8h27a43.4 43.4 0 0 1 1.4 8z" fill="#202020"/></svg>