<svg xmlns="http://www.w3.org/2000/svg" viewBox="0 0 64 64" aria-labelledby="title" aria-describedby="desc"><path data-name="layer3" d="M19.1 33.9A48.3 48.3 0 0 1 21 46v14a2 2 0 0 0 2.1 2h17.8a2 2 0 0 0 2.1-2V46a48.3 48.3 0 0 1 1.9-12.1C46 29.6 49 19 49 14H15c0 5 3 15.6 4.1 19.9z" fill="#f4d44d"/><path data-name="layer2" d="M49 14a43.6 43.6 0 0 0-2-12H17a43.6 43.6 0 0 0-2 12" fill="#d5e2f4"/><path data-name="opacity" d="M24.9 60V46a72.9 72.9 0 0 0-1.2-12.1C22.9 29.6 21 19 21 14h-6c0 5 3 15.6 4.1 19.9A48.3 48.3 0 0 1 21 46v14a2 2 0 0 0 2.1 2h3.1c-.9 0-1.3-1.1-1.3-2z" fill="#101129" opacity=".25"/><path data-name="opacity" d="M22.3 2H17a43.6 43.6 0 0 0-2 12h6a65.2 65.2 0 0 1 1.3-12z" fill="#101129" opacity=".18"/><path data-name="opacity" d="M36 14c0 5-.7 15.6-1 19.9s-.4 8.1-.4 12.1v14c0 .9-.1 2-.5 2h3.7c1 0 1.4-1.1 1.4-2V46a72.9 72.9 0 0 1 1.2-12.1C41.1 29.6 43 19 43 14zm7 0a65.2 65.2 0 0 0-1.3-12h-6.2s.5 6 .5 12z" fill="#fff" opacity=".5"/><circle data-name="layer1" cx="32" cy="21" r="1" fill="#fbe9c7"/><circle data-name="layer1" cx="38" cy="27" r="1" fill="#fbe9c7"/><circle data-name="layer1" cx="30" cy="33" r="1" fill="#fbe9c7"/><circle data-name="layer1" cx="34" cy="41" r="1" fill="#fbe9c7"/><circle data-name="layer1" cx="30" cy="49" r="1" fill="#fbe9c7"/><path data-name="stroke" d="M19.1 33.9A48.3 48.3 0 0 1 21 46v14a2 2 0 0 0 2.1 2h17.8a2 2 0 0 0 2.1-2V46a48.3 48.3 0 0 1 1.9-12.1C46 29.6 49 19 49 14H15c0 5 3 15.6 4.1 19.9zM49 14a43.6 43.6 0 0 0-2-12H17a43.6 43.6 0 0 0-2 12" fill="none" stroke="#2f446a" stroke-linecap="round" stroke-linejoin="round" stroke-width="2"/><circle data-name="stroke" cx="32" cy="21" r="1" fill="none" stroke="#2f446a" stroke-linecap="round" stroke-linejoin="round" stroke-width="2"/><circle data-name="stroke" cx="38" cy="27" r="1" fill="none" stroke="#2f446a" stroke-linecap="round" stroke-linejoin="round" stroke-width="2"/><circle data-name="stroke" cx="30" cy="33" r="1" fill="none" stroke="#2f446a" stroke-linecap="round" stroke-linejoin="round" stroke-width="2"/><circle data-name="stroke" cx="34" cy="41" r="1" fill="none" stroke="#2f446a" stroke-linecap="round" stroke-linejoin="round" stroke-width="2"/><circle data-name="stroke" cx="30" cy="49" r="1" fill="none" stroke="#2f446a" stroke-linecap="round" stroke-linejoin="round" stroke-width="2"/></svg>