<svg xmlns="http://www.w3.org/2000/svg" viewBox="0 0 64 64" aria-labelledby="title" aria-describedby="desc"><path data-name="layer1" d="M18 41.994v8A14.249 14.249 0 0 0 30.384 63.95c1 0 2.1.1 3.2 0A32.142 32.142 0 0 0 64 31.872a32.6 32.6 0 0 0-.8-7 15.554 15.554 0 0 1-7 11.492L31.985 50.359z" fill="#aac148"/><path data-name="layer1" d="M29 14.994l-6.719-4.707a10.774 10.774 0 0 0-5.864-1.293 13.605 13.605 0 0 0-11.345 5.59c-.3.4-.5.9-.8 1.4s-.5.9-.8 1.4a31.9 31.9 0 0 0 12.705 42.269 32.778 32.778 0 0 0 6.4 2.8A15.02 15.02 0 0 1 16 50.994l-.023-28.316z" fill="#aac148"/><path data-name="layer1" d="M48 38.994l8-5c3-2 7.5-10.117 4.7-16.612-.2-.4-.5-.9-.8-1.4a9.983 9.983 0 0 1-.8-1.4A32.067 32.067 0 0 0 16.177 4.291a32.773 32.773 0 0 0-5.6 4.2 15.714 15.714 0 0 1 6.4-1.4 15.412 15.412 0 0 1 7 1.7L48 22.994z" fill="#aac148"/></svg>