<svg viewBox="0 0 64 64" xmlns="http://www.w3.org/2000/svg" aria-labelledby="title" aria-describedby="desc"><path fill="#faf287" d="M22.473 9.3L7 54l42.978-18.91C44.833 23.128 34.618 14.087 22.473 9.3z" data-name="layer3"/><circle fill="#f04848" r="4" cy="23.999" cx="28.999" data-name="layer2"/><circle fill="#f04848" r="2" cy="33.999" cx="34.999" data-name="layer2"/><circle fill="#f04848" r="2.5" cy="37.499" cx="20.999" data-name="layer2"/><path fill="#f6b36d" d="M25 2l-2.527 7.3c12.145 4.787 22.36 13.828 27.507 25.787L57 32C51.011 18.087 39.13 7.567 25 2z" data-name="layer1"/><path opacity=".18" fill="#101129" d="M51.981 33.087C46.835 21.128 36.62 12.085 24.475 7.3l1.668-4.818C25.761 2.321 25.384 2.153 25 2l-2.527 7.3c12.145 4.787 22.36 13.828 27.507 25.787L57 32c-.136-.314-.29-.619-.432-.93z" data-name="opacity"/><circle stroke-width="2" stroke-linejoin="round" stroke-linecap="round" stroke="#2f446a" fill="none" r="4" cy="23.999" cx="28.999" data-name="stroke"/><circle stroke-width="2" stroke-linejoin="round" stroke-linecap="round" stroke="#2f446a" fill="none" r="2" cy="33.999" cx="34.999" data-name="stroke"/><circle stroke-width="2" stroke-linejoin="round" stroke-linecap="round" stroke="#2f446a" fill="none" r="2.5" cy="37.499" cx="20.999" data-name="stroke"/><path stroke-width="2" stroke-linejoin="round" stroke-linecap="round" stroke="#2f446a" fill="none" d="M22.473 9.3L7 54l42.978-18.91C44.833 23.128 34.618 14.087 22.473 9.3z" data-name="stroke"/><path stroke-width="2" stroke-linejoin="round" stroke-linecap="round" stroke="#2f446a" fill="none" d="M49.979 35.087L57 32C51.011 18.087 39.13 7.567 25 2l-2.527 7.3m-5.474 40.299v8.4m8-11.92v15.92m16-22.933v12.933" data-name="stroke"/></svg>