<svg xmlns="http://www.w3.org/2000/svg" viewBox="0 0 64 64" aria-labelledby="title" aria-describedby="desc"><path data-name="layer1" d="M49.9 27.9l-5.4 2.5A18 18 0 1 1 28.1 20v-6a24.1 24.1 0 1 0 21.8 13.9z" fill="#f6b36d"/><path data-name="opacity" d="M29.1 60A24 24 0 0 1 7.2 26.3a24 24 0 1 0 42.9 21.4 24 24 0 0 1-21 12.3z" fill="#101129" opacity=".18"/><path data-name="layer2" d="M10.1 38a18 18 0 1 0 34.3-7.6L28.1 38V20a18 18 0 0 0-18 18z" fill="#faf287"/><circle data-name="layer3" cx="21.1" cy="35" r="2" fill="#f04848"/><circle data-name="layer3" cx="25.1" cy="47" r="1" fill="#f04848"/><circle data-name="layer3" cx="35.1" cy="43" r="3" fill="#f04848"/><path data-name="layer2" d="M38.1 7h-.8l-3.2 21 20.7-9.8A18 18 0 0 0 38.1 7z" fill="#faf287"/><path data-name="layer1" d="M38.1 2l-.8 5h.8a18 18 0 0 1 16.7 11.2l5-2.4A24 24 0 0 0 38.1 2z" fill="#f6b36d"/><path data-name="stroke" d="M49.9 27.9l-5.4 2.5A18 18 0 1 1 28.1 20v-6a24.1 24.1 0 1 0 21.8 13.9z" fill="none" stroke="#2f446a" stroke-linecap="round" stroke-linejoin="round" stroke-width="2"/><path data-name="stroke" d="M10.1 38a18 18 0 1 0 34.3-7.6L28.1 38V20a18 18 0 0 0-18 18z" fill="none" stroke="#2f446a" stroke-linecap="round" stroke-linejoin="round" stroke-width="2"/><circle data-name="stroke" cx="21.1" cy="35" r="2" fill="none" stroke="#2f446a" stroke-linecap="round" stroke-linejoin="round" stroke-width="2"/><circle data-name="stroke" cx="25.1" cy="47" r="1" fill="none" stroke="#2f446a" stroke-linecap="round" stroke-linejoin="round" stroke-width="2"/><circle data-name="stroke" cx="35.1" cy="43" r="3" fill="none" stroke="#2f446a" stroke-linecap="round" stroke-linejoin="round" stroke-width="2"/><path data-name="stroke" d="M38.1 7h-.8l-3.2 21 20.7-9.8A18 18 0 0 0 38.1 7z" fill="none" stroke="#2f446a" stroke-linecap="round" stroke-linejoin="round" stroke-width="2"/><path data-name="stroke" d="M38.1 2l-.8 5h.8a18 18 0 0 1 16.7 11.2l5-2.4A24 24 0 0 0 38.1 2z" fill="none" stroke="#2f446a" stroke-linecap="round" stroke-linejoin="round" stroke-width="2"/></svg>