<svg xmlns="http://www.w3.org/2000/svg" viewBox="0 0 64 64" aria-labelledby="title" aria-describedby="desc"><path data-name="layer1" d="M32 2a18 18 0 0 0-18 18c0 .6 0 1.2.1 1.8v.2C15.5 36.2 32 47.1 32 47.1s16.4-11 17.9-25v-.3c.1-.6.1-1.1.1-1.7A18 18 0 0 0 32 2zm0 28a10 10 0 1 1 10-10 10 10 0 0 1-10 10z" fill="#f26161"/><path data-name="opacity" d="M17.1 21v-.2c-.1-.6-.1-1.2-.1-1.8A18 18 0 0 1 27.8 2.5 18 18 0 0 0 14 20c0 .6 0 1.2.1 1.8v.2C15.5 36.2 32 47.1 32 47.1l2.2-1.6C30.8 43.1 18.4 33.3 17.1 21z" fill="#000032" opacity=".2"/><path data-name="stroke" fill="none" stroke="#2e4369" stroke-linecap="round" stroke-linejoin="round" stroke-width="2" d="M16 62l32-14m0 14L16 48m33.9-26.2c.1-.6.1-1.1.1-1.7a18 18 0 1 0-36 0c0 .6 0 1.2.1 1.8v.1C15.5 36.2 32 47.1 32 47.1s16.4-11 17.9-25z"/><circle data-name="stroke" cx="32" cy="20" r="10" fill="none" stroke="#2e4369" stroke-linecap="round" stroke-linejoin="round" stroke-width="2"/></svg>