<svg xmlns="http://www.w3.org/2000/svg" viewBox="0 0 64 64" aria-labelledby="title" aria-describedby="desc"><path data-name="layer3" fill="#f26161" d="M2 18h60v28H2z"/><path data-name="layer2" fill="#fff" d="M26 25.4v13.2L40 32l-14-6.6z"/><path data-name="opacity" fill="#000064" opacity=".16" d="M26 38.6v3L40 35l-3.2-1.5L26 38.6z"/><path data-name="layer1" fill="#d34545" d="M2 46h20v8H2zm20 0h20v8H22zm20 0h20v8H42zm0-36h20v8H42zM2 10h20v8H2zm20 0h20v8H22z"/><path data-name="stroke" fill="none" stroke="#2e4369" stroke-linecap="round" stroke-miterlimit="10" stroke-width="2" d="M26 25.4v13.2L40 32l-14-6.6zM2 46v8h60v-8m0-28v-8H2v8m20-8v8m20-8v8M22 46v8m20-8v8" stroke-linejoin="round"/><path data-name="stroke" fill="none" stroke="#2e4369" stroke-linecap="round" stroke-miterlimit="10" stroke-width="2" d="M2 18h60v28H2z" stroke-linejoin="round"/></svg>