<svg xmlns="http://www.w3.org/2000/svg" viewBox="0 0 64 64" aria-labelledby="title" aria-describedby="desc"><rect data-name="layer2" x="2" y="12" width="60" height="40" rx="10.4" ry="10.4" fill="#f26161"/><path data-name="opacity" d="M51.6 48H12.4A10.4 10.4 0 0 1 2 37.6v4A10.4 10.4 0 0 0 12.4 52h39.2A10.4 10.4 0 0 0 62 41.6v-4A10.4 10.4 0 0 1 51.6 48z" fill="#000064" opacity=".16"/><path data-name="layer1" fill="#fff" d="M24 22v20l20-10-20-10z"/><path data-name="opacity" fill="#000064" opacity=".16" d="M44 32L24 22v3l17 8.5 3-1.5z"/><rect data-name="stroke" x="2" y="12" width="60" height="40" rx="10.4" ry="10.4" fill="none" stroke="#2e4369" stroke-linecap="round" stroke-miterlimit="10" stroke-width="2" stroke-linejoin="round"/><path data-name="stroke" fill="none" stroke="#2e4369" stroke-linecap="round" stroke-miterlimit="10" stroke-width="2" d="M24 22v20l20-10-20-10z" stroke-linejoin="round"/></svg>