<svg xmlns="http://www.w3.org/2000/svg" viewBox="0 0 64 64" aria-labelledby="title" aria-describedby="desc"><path data-name="layer2" d="M60 16H4a2 2 0 0 0-2 2v36a2 2 0 0 0 2 2h56a2 2 0 0 0 2-2V18a2 2 0 0 0-2-2zm-11.4 6.6a2.1 2.1 0 0 1 2.8 0A2 2 0 0 1 52 24a2 2 0 0 1-2 2 2 2 0 0 1-2-2 2 2 0 0 1 .6-1.4zm0 8a2.1 2.1 0 0 1 2.8 0A2 2 0 0 1 50 34a2 2 0 0 1-1.4-.6 2 2 0 0 1 0-2.8zM38 48H10V24h28zm12 0a4 4 0 1 1 4-4 4 4 0 0 1-4 4z" fill="#202020"/><path data-name="layer1" fill="#202020" d="M44 8h10v4H44z"/></svg>