<svg xmlns="http://www.w3.org/2000/svg" viewBox="0 0 64 64" aria-labelledby="title" aria-describedby="desc"><path data-name="layer2" d="M46.8 59.2L37.1 55l9.7-4.2a2 2 0 0 0-1.6-3.7L32 52.8l-13.2-5.6a2 2 0 1 0-1.6 3.7l9.7 4.1-9.7 4.2A2 2 0 0 0 18 63l.8-.2L32 57.2l13.2 5.7.8.2a2 2 0 0 0 .8-3.8z" fill="#202020"/><path data-name="layer1" d="M18.1 16.7C19.3 28 32 34.3 32 47.7c0-13.3 12.6-19.6 13.9-30.9A13.8 13.8 0 0 0 46 15a14 14 0 1 0-28 0 14.5 14.5 0 0 0 .1 1.7zM32 11a4 4 0 1 1-4 4 4 4 0 0 1 4-4z" fill="#202020"/></svg>