<svg xmlns="http://www.w3.org/2000/svg" viewBox="0 0 64 64" aria-labelledby="title" aria-describedby="desc"><path data-name="layer1" d="M22 41.4V6a4 4 0 0 1 4-4 4 4 0 0 1 4 4v22m-7.8 29.2L10.4 37.8a4 4 0 0 1 1.8-5.4 4 4 0 0 1 5.4 1.8l4.4 7.2M30 22a4 4 0 0 1 4-4 4 4 0 0 1 4 4v8m0-6a4 4 0 0 1 4-4 4 4 0 0 1 4 4v8" fill="none" stroke="#202020" stroke-miterlimit="10" stroke-width="2" stroke-linejoin="round" stroke-linecap="round"/><path data-name="layer1" d="M22.2 57.2a10.1 10.1 0 0 0 8.6 4.8H44a10 10 0 0 0 10-10V28a4 4 0 0 0-4-4 4 4 0 0 0-4 4" fill="none" stroke="#202020" stroke-miterlimit="10" stroke-width="2" stroke-linejoin="round" stroke-linecap="round"/></svg>