<svg xmlns="http://www.w3.org/2000/svg" viewBox="0 0 64 64" aria-labelledby="title" aria-describedby="desc"><path data-name="layer2" fill="#202020" d="M14 46L6 62h52l-8-16H14z"/><path data-name="layer1" d="M36 11.1V2h-8v9.1a8 8 0 0 1 8 0z" fill="#202020"/><path data-name="layer1" d="M61.5 38.7L56 32V2H40v36h-4V24.9a8 8 0 0 1-8 0V38h-4V2H8v30l-5.4 6.6A2 2 0 0 0 2 40v12a2 2 0 0 0 2 2h1.5l3.2-6.4A2 2 0 0 1 10 44h44a2 2 0 0 1 1.2 3.6l3.3 6.4H60a2 2 0 0 0 2-2V40a2 2 0 0 0-.5-1.3zM44 8h4a2 2 0 0 1 0 4h-4a2 2 0 0 1 0-4zM16.6 22.6a2.1 2.1 0 0 1 2.8 0A2 2 0 0 1 18 26a2 2 0 0 1-1.4-3.4z" fill="#202020"/><circle data-name="layer1" cx="32" cy="18" r="4" fill="#202020"/></svg>