<svg xmlns="http://www.w3.org/2000/svg" viewBox="0 0 64 64" aria-labelledby="title" aria-describedby="desc"><path data-name="layer2" d="M17.6 18.5V24c-3 0-2.9 3.8-2.9 4.7s.7 5.3 3.8 5.3a17.2 17.2 0 0 0 7.2 10.3m11.9 0A17.2 17.2 0 0 0 44.8 34c3 0 3.7-4.3 3.7-5.3s.1-4.7-2.9-4.7v-4.8" fill="none" stroke="#202020" stroke-miterlimit="10" stroke-width="2" stroke-linejoin="round" stroke-linecap="round"/><path data-name="layer2" d="M23.6 42.8V44c0 2 1 4.9-10 7S2 62 2 62h60s0-8.7-12.4-11c-10.7-2-10-5-10-7v-1.2" fill="none" stroke="#202020" stroke-miterlimit="10" stroke-width="2" stroke-linejoin="round" stroke-linecap="round"/><path data-name="layer1" d="M16.1 16c.9 3.6 5.6 6 15.9 6s15-2.5 15.9-6zm0 0H12v-6a69.9 69.9 0 0 0 8-2c4-1.3 4-6 12-6s8 4 12 6a19.8 19.8 0 0 0 8 2v6h-4.1" fill="none" stroke="#202020" stroke-miterlimit="10" stroke-width="2" stroke-linejoin="round" stroke-linecap="round"/><path data-name="layer2" fill="none" stroke="#202020" stroke-miterlimit="10" stroke-width="2" d="M23.6 45.5L32 48l7.6-2.5M32 48v14M20 49.2L32 56l12-6.5m0 8.5v4" stroke-linejoin="round" stroke-linecap="round"/><path data-name="layer1" fill="none" stroke="#202020" stroke-miterlimit="10" stroke-width="2" d="M32 8v3" stroke-linejoin="round" stroke-linecap="round"/></svg>