<svg xmlns="http://www.w3.org/2000/svg" viewBox="0 0 64 64" aria-labelledby="title" aria-describedby="desc"><path data-name="layer1" d="M49.9 49a31 31 0 0 1-5.3-1.4h-.1c-3-1.2-3-2.4-3-3.2v-.8a20.4 20.4 0 0 0 4.7-7.9c3.1-1 4.2-5.1 4.2-7.1 0-3.9-1.5-5.5-2.9-6.2v-2.2a7.4 7.4 0 0 0 1.8-2.2H52a2 2 0 0 0 2-2v-6a2 2 0 0 0-2-2 18 18 0 0 1-7.1-1.8 9.9 9.9 0 0 1-2.6-2.1C40.4 2.2 38.2 0 32 0s-8.2 2.3-10 4.2a6.6 6.6 0 0 1-2.6 1.9A68.4 68.4 0 0 1 11.7 8a2 2 0 0 0-1.7 2v6a2 2 0 0 0 2 2h2.7a7.2 7.2 0 0 0 .9 1.3v3.1c-1.4.7-2.9 2.3-2.9 6.3 0 2 1.1 6 4.2 7a20.1 20.1 0 0 0 4.7 7.8v1c0 .2 0 1.8-2.5 2.9H19a29.6 29.6 0 0 1-5.8 1.6C2.8 51 0 58.4 0 62v2h64v-2c0-3.6-2.9-10.9-14.1-13zm-25.1-1l5.2 1.5v3.1l-6.1-3.4a5.7 5.7 0 0 0 .9-1.2zm13.6 0a6.1 6.1 0 0 0 1.4 1.5L34 52.6v-3.1zm5.3-30c-2.3 1.3-6.4 2-11.7 2s-9.4-.7-11.7-2zM30 8a2 2 0 1 1 4 0v2a2 2 0 0 1-4 0zM20 32h-1.6c-1.2 0-1.8-2.6-1.8-3.3 0-2.6.7-2.6.9-2.6h2v-4Q24.1 24 32 24a35.1 35.1 0 0 0 11.6-1.6V26h2c.3 0 .9 0 .9 2.6 0 .6-.6 3.3-1.8 3.3h-1.5l-.4 1.5a15.3 15.3 0 0 1-6.3 9.1 2 2 0 0 0-.9 2.1L32 45.9l-4.4-1.3a2 2 0 0 0-.9-2 15.3 15.3 0 0 1-6.3-9.1z" fill="#202020"/></svg>