<svg xmlns="http://www.w3.org/2000/svg" viewBox="0 0 64 64" aria-labelledby="title" aria-describedby="desc"><path data-name="layer3" fill="#536897" d="M14 52h36v10H14z"/><path data-name="opacity" fill="#000064" opacity=".15" d="M14 52h13v10H14z"/><path data-name="layer2" d="M49 14H15l-2-5a29.3 29.3 0 0 1 38 0z" fill="#f27e7c"/><path data-name="opacity" d="M32 2a29.2 29.2 0 0 0-7.7 1h.7a29.2 29.2 0 0 1 19 7l-1.6 4H49l2-5a29.2 29.2 0 0 0-19-7z" fill="#fff" opacity=".25"/><path data-name="layer2" fill="#f27e7c" d="M17 14h30v38H17z"/><path data-name="layer1" fill="#fff" d="M24 32h16v14H24z"/><path data-name="opacity" fill="#000064" opacity=".15" d="M47 14H17v38h5V18h25v-4z"/><path data-name="stroke" fill="none" stroke="#2e4369" stroke-linecap="round" stroke-miterlimit="10" stroke-width="2" d="M14 52h36v10H14zm3 0V14m30 38V14m-21.3 9h13M24 32h16v14H24zM13 9a29.3 29.3 0 0 1 38 0M13 9l2 5h34l2-5" stroke-linejoin="round"/></svg>