<svg xmlns="http://www.w3.org/2000/svg" viewBox="0 0 64 64" aria-labelledby="title" aria-describedby="desc"><path data-name="layer1" d="M8.2 4.6c-8.3 5.6-10.8 30.7 8.9 47.7s35 8.1 41.2.9 5.4-22.6-9.1-31.9S31.5 9.6 26.7 5.4 13.9.9 8.2 4.6z" fill="#e0b673"/><path data-name="opacity" d="M60.3 44.1c-6.2 7.2-21.5 16.1-41.2-.9-11.8-10-15.6-23-15-33.1-4.3 9.9-2.8 28.6 13 42.2 19.7 16.9 35 8.1 41.2.9A16.7 16.7 0 0 0 62 41.7a13.8 13.8 0 0 1-1.7 2.4z" fill="#101129" opacity=".18"/><path data-name="stroke" d="M8.2 4.6c-8.3 5.6-10.8 30.7 8.9 47.7s35 8.1 41.2.9 5.4-22.6-9.1-31.8-17.7-11.8-22.5-16S13.9.9 8.2 4.6zM12 20l-2 2m16 2l-2 2m-4 6l-2 2m2 6l-2 2m16-4l-2 2m2 10l-2 2m14-10l-2 2m6 6l-2 2" fill="none" stroke="#2f446a" stroke-linecap="round" stroke-linejoin="round" stroke-width="2"/></svg>