<svg xmlns="http://www.w3.org/2000/svg" viewBox="0 0 64 64" aria-labelledby="title" aria-describedby="desc"><path data-name="layer2" d="M35.1 23.3L27 15.2l1.3-1.3a2 2 0 0 0-2.9-2.9l-3.7 3.7-8.5-8.4a2 2 0 0 0-2.8 2.8l8.5 8.5-6.5 6.5-8.5-8.5a2 2 0 1 0-2.8 2.8l8.5 8.5-3.7 3.7a2 2 0 1 0 2.8 2.8l1.3-1.3 8.2 8.2a8.5 8.5 0 0 0 12 0l5-5a8.5 8.5 0 0 0-.1-12z" fill="#202020"/><path data-name="layer1" d="M62.9 37l-3.3-3.3a7 7 0 1 0-9.9 9.9l5.7 5.7a3 3 0 1 1-4.2 4.2L39.7 42l1.4-1.4-2.7-2.6-5.7 5.7 2.7 2.7 1.4-1.4 11.5 11.3a7 7 0 0 0 9.9-9.9l-5.7-5.7a3 3 0 0 1 0-4.2 3.1 3.1 0 0 1 4.2 0l3.3 3.3a2 2 0 1 0 2.9-2.8z" fill="#202020"/></svg>