<svg xmlns="http://www.w3.org/2000/svg" viewBox="0 0 64 64" aria-labelledby="title" aria-describedby="desc"><path data-name="layer1" fill="#b3c5e5" d="M42 23.8l20-13.6v43.6L42 40.2v13.6L10 32v-.1l32-21.7v13.6zM10 8v48H2V8h8z"/><path data-name="opacity" fill="#fff" opacity=".25" d="M42 27.8l20-13.6v-4L42 23.8v4zm-29.2 6.1L42 14.2v-4L10 31.9v.1l2.8 1.9zM2 8h8v4H2z"/><path data-name="stroke" fill="none" stroke="#2e4369" stroke-linecap="round" stroke-miterlimit="10" stroke-width="2" d="M42 23.8l20-13.6v43.6L42 40.2v13.6L10 32v-.1l32-21.7v13.6zM10 8v48H2V8h8z" stroke-linejoin="round"/></svg>