<svg xmlns="http://www.w3.org/2000/svg" viewBox="0 0 64 64" aria-labelledby="title" aria-describedby="desc"><path data-name="layer2" fill="#202020" d="M14 4h36v12H14zm0 56h36V36H14zm8-18h20a2 2 0 0 1 0 4H22a2 2 0 0 1 0-4zm0 8h20a2 2 0 0 1 0 4H22a2 2 0 0 1 0-4z"/><path data-name="layer1" d="M2 20v26h8V32h44v14h8V20zm9.4 9.4a2 2 0 0 1-1.4.6 2 2 0 0 1-1.4-.6A2 2 0 0 1 8 28a2 2 0 0 1 .6-1.4 2.1 2.1 0 0 1 2.8 0A2 2 0 0 1 12 28a2 2 0 0 1-.6 1.4zM54 30h-4a2 2 0 0 1 0-4h4a2 2 0 0 1 0 4z" fill="#202020"/></svg>