<svg viewBox="0 0 64 64" xmlns="http://www.w3.org/2000/svg" aria-labelledby="title" aria-describedby="desc"><path fill="#202020" d="M21.634 42.815c-.5.363-2.3 1.077-8.391 2.218A15.04 15.04 0 0 0 2.939 52h57.892a16.3 16.3 0 0 0-10.881-6.966c-6.2-1.17-7.928-1.9-8.379-2.266l.021-1.172a20.4 20.4 0 0 0 4.734-7.853c3.087-1.043 4.174-5.051 4.174-7.011 0-.073 0-.181.01-.317.086-2.435-.024-5.451-1.655-7.17A4.009 4.009 0 0 0 48 18.56V8.7a38.9 38.9 0 0 1-15.78 3.333A40.63 40.63 0 0 1 16 8.647V18.5c-2.41 1.314-3.316 4.994-3.316 8.228 0 1.978 1.093 6 4.2 7.028a20.073 20.073 0 0 0 4.726 7.848zM19.961 30h-1.522c-1.182 0-1.751-2.622-1.754-3.27 0-2.275.784-4.72 1.336-4.726L20 21.987v-3.361a53.3 53.3 0 0 0 12 1.386 53.376 53.376 0 0 0 12-1.386v1.386l-.027 1.941 1.966.034c.071.06.7.682.569 4.286-.007.2-.012.354-.012.459 0 .642-.572 3.252-1.752 3.266l-1.5.017-.4 1.451a15.308 15.308 0 0 1-6.285 9.095 2 2 0 0 0-.664 2.75c.008.012.02.021.027.033A13.374 13.374 0 0 1 32 44a17.16 17.16 0 0 1-4.644-.772 2 2 0 0 0-.7-2.666 15.33 15.33 0 0 1-6.287-9.093z" data-name="layer1"/><path fill="#202020" d="M62.865 56H1.051A19.456 19.456 0 0 0 0 62v2h64v-2a18.216 18.216 0 0 0-1.135-6z" data-name="layer2"/><path fill="#202020" d="M27.112 37.415C28.526 36 29.787 36 31.7 36s3.174 0 4.588 1.414a2 2 0 1 0 2.828-2.83C36.526 32 33.848 32 31.7 32s-4.826 0-7.412 2.584a2 2 0 0 0 2.828 2.83zM47.611 4.448C45.312.138 33.479 0 32 0S18.629.143 16.386 4.5a36.355 36.355 0 0 0 31.225-.052z" data-name="layer1"/></svg>