<svg xmlns="http://www.w3.org/2000/svg" viewBox="0 0 64 64" aria-labelledby="title" aria-describedby="desc"><path data-name="layer2" d="M32 2c-7.7 0-14 1.8-14 4v10a48.6 48.6 0 0 0 14 2 49 49 0 0 0 14-2V6c0-2.2-6.3-4-14-4z" fill="#64738f"/><path data-name="layer3" d="M46 20v-4a49 49 0 0 1-14 2 48.6 48.6 0 0 1-14-2v4c-3 0-3 6.1-3 7s.4 4.9 3.4 4.9a17.5 17.5 0 0 0 5.7 9.1v1c0 .8.1 1.4-.4 2h.1a23.2 23.2 0 0 0 8.2 2.1 22 22 0 0 0 8.3-2.1 5.2 5.2 0 0 1-.3-2v-1.8a17.9 17.9 0 0 0 4.9-8.4c3 0 3.7-4.3 3.7-5.2S49 20.1 46 20z" fill="#e8d4d4"/><path data-name="layer2" d="M4.1 54A19.2 19.2 0 0 0 2 62h60a17.4 17.4 0 0 0-2.4-8z" fill="#64738f"/><path data-name="layer1" d="M49.6 47.1C43.1 45.8 41 45 40.3 44a22 22 0 0 1-8.3 2.1 23.2 23.2 0 0 1-8.4-2.1h-.1c-.8.9-3.2 1.7-9.9 3a13 13 0 0 0-9.5 7h55.5a14.6 14.6 0 0 0-10-6.9z" fill="#dfeef8"/><path data-name="opacity" d="M18 6v14c-3 0-3 6.1-3 7s.4 4.9 3.4 4.9a17.5 17.5 0 0 0 5.7 9.1v1c0 .8.1 1.4-.4 2-.8.9-3.2 1.7-9.9 3a13 13 0 0 0-9.5 7A19.2 19.2 0 0 0 2 62h10c.3-9.3 5.2-13.1 11-15 6 4 13-1 13-6-18 4-14-25-12-24s8 1 8 1V8c-5.4 0-12.5-1.6-13.8-2.7a1.3 1.3 0 0 0-.2.7z" fill="#000064" opacity=".15"/><path data-name="stroke" d="M24 41.1v.9c0 2 .6 2.9-10.4 5S2 62 2 62h60s0-12.4-12.4-15c-9.7-2-9.6-3-9.6-5v-1.6" fill="none" stroke="#2e4369" stroke-linecap="round" stroke-linejoin="round" stroke-width="2"/><path data-name="stroke" d="M23.6 44a23.9 23.9 0 0 0 8.4 2 20.9 20.9 0 0 0 8.3-2.3M4.1 54h55.6M18 16v4c-3 0-3 6.1-3 7s.4 4.9 3.4 4.9A16.8 16.8 0 0 0 25.6 42m12 0a16.8 16.8 0 0 0 7.2-10.1c3 0 3.7-4.3 3.7-5.2S49 20.1 46 20v-4m-28 0a48.6 48.6 0 0 0 14 2 49 49 0 0 0 14-2m0-10c0 2.2-6.3 3-14 3s-14-.8-14-3 6.3-4 14-4 14 1.8 14 4zM26 36c2-2 4-2 6-2s4 0 6 2" fill="none" stroke="#2e4369" stroke-linecap="round" stroke-linejoin="round" stroke-width="2"/></svg>