<svg viewBox="0 0 64 64" xmlns="http://www.w3.org/2000/svg" aria-labelledby="title" aria-describedby="desc"><path fill="#d0a740" d="M12.357 58.028l-2.821-2.822 2.834-2.834 2.821 2.822a2 2 0 0 0 2.828-2.83l-2.819-2.82 18.673-18.676-2.828-2.828L5.293 53.792a2 2 0 0 0 0 2.828l4.236 4.236a2 2 0 1 0 2.828-2.828z" data-name="layer2"/><path fill="#e2c98a" d="M57.1 15.425a7.5 7.5 0 1 0-12.61-3.648A7.5 7.5 0 1 0 33.279 20.3l-.629.629-4.357 4.357 8.332 8.332 4.7-4.7s.1-.111.283-.3a7.5 7.5 0 1 0 8.536-11.2 7.485 7.485 0 0 0 6.956-1.993zm-17.3 1.037a3.5 3.5 0 1 1 0-4.949 3.5 3.5 0 0 1-.006 4.949zm10.6 5.658a3.5 3.5 0 1 1-4.951 0 3.5 3.5 0 0 1 4.951 0zm-1.084-9.525a3.5 3.5 0 1 1 4.949 0 3.5 3.5 0 0 1-4.947 0z" data-name="layer1"/><circle stroke-width="2" stroke-linejoin="round" stroke-linecap="round" stroke="#2e4369" fill="none" transform="rotate(-45 51.792 10.057)" r="3.5" cy="10.057" cx="51.793" data-name="stroke"/><circle stroke-width="2" stroke-linejoin="round" stroke-linecap="round" stroke="#2e4369" fill="none" transform="rotate(-45.006 37.32 13.925)" r="3.501" cy="13.925" cx="37.32" data-name="stroke"/><circle stroke-width="2" stroke-linejoin="round" stroke-linecap="round" stroke="#2e4369" fill="none" transform="rotate(-45 47.926 24.531)" r="3.5" cy="24.531" cx="47.926" data-name="stroke"/><path stroke-width="2" stroke-linejoin="round" stroke-linecap="round" stroke="#2e4369" fill="none" d="M53.23 19.227a7.461 7.461 0 0 0-3.087-1.858 7.5 7.5 0 1 0-5.658-5.654 7.5 7.5 0 1 0-11.206 8.525l-.629.629-4.357 4.357 8.332 8.333 4.7-4.7s.1-.111.283-.3a7.5 7.5 0 1 0 11.622-9.332z" data-name="stroke"/><path stroke-width="2" stroke-linejoin="round" stroke-linecap="round" stroke="#2e4369" fill="none" d="M12.357 57.965l-2.821-2.822 2.834-2.834 2.821 2.822a2 2 0 1 0 2.828-2.831L15.2 49.481l18.673-18.675-2.828-2.829L5.293 53.729a2 2 0 0 0 0 2.829l4.236 4.235a2 2 0 1 0 2.828-2.828z" data-name="stroke"/></svg>