<svg xmlns="http://www.w3.org/2000/svg" viewBox="0 0 64 64" aria-labelledby="title" aria-describedby="desc"><path data-name="layer2" d="M21 14v11a1 1 0 0 0 1 1h19a1 1 0 0 0 1-1v-3l8 3V14l-8 3v-3a1 1 0 0 0-1-1H22a1 1 0 0 0-1 1z" fill="#202020"/><circle data-name="layer2" cx="24" cy="5" r="4" fill="#202020"/><circle data-name="layer2" cx="36" cy="5" r="4" fill="#202020"/><path data-name="layer1" d="M51.4 59.5l-18-17L36 40V30h-8v10l2.6 2.6-18 17a2 2 0 1 0 2.7 2.9L30 48.6V61a2 2 0 1 0 4 0V48.6l14.6 13.8a2 2 0 1 0 2.7-2.9z" fill="#202020"/></svg>