<svg xmlns="http://www.w3.org/2000/svg" viewBox="0 0 64 64" aria-labelledby="title" aria-describedby="desc"><path data-name="layer2" d="M6 47V13a2 2 0 0 1 2-2h48a2 2 0 0 1 2 2v34" fill="#536897"/><path data-name="layer1" d="M38 45v2H26v-2H2v6a2 2 0 0 0 2 2h56a2 2 0 0 0 2-2v-6z" fill="#c3d6f9"/><path data-name="opacity" d="M60 50H4a2 2 0 0 1-2-2v3a2 2 0 0 0 2 2h56a2 2 0 0 0 2-2v-3a2 2 0 0 1-2 2z" fill="#000064" opacity=".14"/><path data-name="opacity" fill="#fff" opacity=".25" d="M51 15L23.5 42.8l-.2.2H46l8-8V15h-3zm-16 0L10 39.6V43h7l28.4-28H35z"/><path data-name="stroke" d="M6 45V13a2 2 0 0 1 2-2h48a2 2 0 0 1 2 2v32m-20 0v2H26v-2H2v6a2 2 0 0 0 2 2h56a2 2 0 0 0 2-2v-6z" fill="none" stroke="#2e4369" stroke-linecap="round" stroke-linejoin="round" stroke-width="2"/></svg>