<svg xmlns="http://www.w3.org/2000/svg" viewBox="0 0 64 64" aria-labelledby="title" aria-describedby="desc"><path data-name="layer2" d="M48 20V6H16v14a4 4 0 0 0 4 4h24a4 4 0 0 0 4-4z" fill="#202020"/><path data-name="layer1" d="M40 28H24v4h-2v26h20V32h-2zm-3.1 21.8l-.9.2a2 2 0 0 1-1.8-1.1L32 44.5l-2.2 4.4a2 2 0 1 1-3.6-1.8l4-8a2 2 0 0 1 3.6 0l4 8a2 2 0 0 1-.9 2.7zM2 44v4a8 8 0 0 0 8 8h8V36h-8a8 8 0 0 0-8 8zm14 2a4 4 0 1 1-4-4 4 4 0 0 1 4 4zm38-10h-8v20h8a8 8 0 0 0 8-8v-4a8 8 0 0 0-8-8zm0 12h-4a2 2 0 0 1 0-4h4a2 2 0 1 1 0 4z" fill="#202020"/></svg>