<svg xmlns="http://www.w3.org/2000/svg" viewBox="0 0 64 64" aria-labelledby="title" aria-describedby="desc"><path data-name="layer2" d="M58.9 49.9A11.2 11.2 0 0 0 59 48a11.3 11.3 0 0 0-.2-2.1l2.8-1.7-3.6-6.5-2.9 1.7a11.1 11.1 0 0 0-3.4-2V34h-7.4v3.5a11 11 0 0 0-3.4 2L38 37.7l-3.7 6.5 2.8 1.6a11 11 0 0 0 0 4.1L34 51.7l3.7 6.5 3-1.8a11 11 0 0 0 3.5 2.1V62h7.4v-3.5a11.1 11.1 0 0 0 3.6-2.1l3.1 1.8 3.7-6.5zM48 52a4 4 0 1 1 4-4 4 4 0 0 1-4 4z" fill="#202020"/><path data-name="layer1" d="M32 48.3l.7-.4-.4-.2a4 4 0 0 1-1.5-5.4l2.3-4a3.9 3.9 0 0 1-.7-2.6V34a14.5 14.5 0 0 0 4.2-7c2.5 0 3-5.1 3-5.8s.1-3.8-2.4-3.8C42.6 4.5 28.4-2.3 17.8 5.1c-4.4 0-4.7 5.9-3.1 12.3-2.5 0-2.4 3-2.4 3.8s.6 5.8 3 5.8a14.6 14.6 0 0 0 4.2 7v1.6c0 1.6 0 4-8.1 5.6S2 50 2 50h28.4a4 4 0 0 1 1.6-1.7z" fill="#202020"/></svg>