<svg xmlns="http://www.w3.org/2000/svg" viewBox="0 0 64 64" aria-labelledby="title" aria-describedby="desc"><path data-name="layer2" d="M58.9 49.5a11.2 11.2 0 0 0 .2-1.9 11.3 11.3 0 0 0-.2-2.1l2.8-1.7-3.7-6.5-2.9 1.7a13.6 13.6 0 0 0-3.1-2v-3.5h-8V37a13.7 13.7 0 0 0-3.1 2L38 37.3l-3.7 6.5 2.8 1.6a11 11 0 0 0 0 4.1L34 51.3l3.7 6.5 3-1.8a14.5 14.5 0 0 0 3.3 2.1v3.4h8v-3.4a14.4 14.4 0 0 0 3.2-2.1l3.1 1.8 3.7-6.5zm-10.9 2a4 4 0 1 1 4-4 4 4 0 0 1-4 4z" fill="#8fa9d8"/><path data-name="layer1" d="M37.1 49.5a11.2 11.2 0 0 1 0-4.1l-2.8-1.6 1.3-2.3-1.1-.5a3.8 3.8 0 0 1-2.5-3.5v-2a14.1 14.1 0 0 0 4-7c2.5 0 4-3 4-6 0-.8 0-4-2-4 5-14.5-9.6-20-20-13-4.4 0-5.6 6.6-4 13-2 0-2 3.2-2 4 0 3 1.5 6 4 6a14.2 14.2 0 0 0 4 7v2c0 1.6-.5 3.6-8.6 5.2S2 51.5 2 51.5h32.1v-.2z" fill="#a5d0ec"/><path data-name="opacity" d="M34 51.3l3.1-1.8a11.2 11.2 0 0 1 0-4.1l-2.8-1.6 1.3-2.3-1.1-.5a5 5 0 0 1-1.7-1.3l-3.5 6.1 2.8 1.6a11 11 0 0 0 0 4.1h2.1zM20 28.5c.8 3 4.1 5.3 6 7v2c0 1.6-.5 3.6-8.6 5.2S8 51.5 8 51.5H2s0-7 9.4-8.8 8.6-3.6 8.6-5.2v-2a13.6 13.6 0 0 1-4-7c-2.5 0-4-3-4-6 0-.8 0-4 2-4-1.6-6.4-.4-13 4-13a16.7 16.7 0 0 1 12.5-2.7A17.8 17.8 0 0 0 24 5.5c-4.4 0-7.6 6.6-6 13 0 0-1 8 2 10z" fill="#000064" opacity=".15"/><path data-name="stroke" d="M34.2 51.5H2s0-7 9.4-8.8 8.6-3.6 8.6-5.2v-2a14.2 14.2 0 0 1-4-7c-2.5 0-4-3-4-6 0-.8 0-4 2-4-1.6-6.4-.4-13 4-13 10.4-7 25-1.5 20 13 2 0 2 3.2 2 4 0 3-1.5 6-4 6a14.1 14.1 0 0 1-4 7v2a3.8 3.8 0 0 0 2.5 3.5l1.1.6" fill="none" stroke="#2e4369" stroke-linecap="round" stroke-linejoin="round" stroke-width="2"/><circle data-name="stroke" cx="48" cy="47.5" r="4" fill="none" stroke="#2e4369" stroke-linecap="round" stroke-linejoin="round" stroke-width="2"/><path data-name="stroke" d="M62 51.3l-3.1-1.8a11.2 11.2 0 0 0 .2-1.9 11.3 11.3 0 0 0-.2-2.1l2.8-1.7-3.7-6.5-2.9 1.7a9.5 9.5 0 0 0-3.1-2v-3.5h-8V37a9.8 9.8 0 0 0-3.2 2L38 37.3l-3.7 6.5 2.8 1.6a11 11 0 0 0 0 4.1L34 51.3l3.7 6.5 3-1.8a9.8 9.8 0 0 0 3.3 2.1v3.4h8v-3.4a9.6 9.6 0 0 0 3.2-2.1l3.1 1.8z" fill="none" stroke="#2e4369" stroke-linecap="round" stroke-linejoin="round" stroke-width="2"/></svg>