<svg xmlns="http://www.w3.org/2000/svg" viewBox="0 0 64 64" aria-labelledby="title" aria-describedby="desc"><path data-name="layer4" fill="#e8ddc9" d="M10 29v32h14V41h16v20h14V28.769L32 11 10 29z"/><path data-name="layer1" fill="#ef5940" d="M54 21.6V7h-9v7.445"/><circle data-name="layer3" cx="32" cy="28" r="5" fill="#c3d2e0"/><path data-name="layer2" fill="#bb806c" d="M24 41h16v20H24z"/><path data-name="layer1" fill="#ef5940" d="M32 4L2 28l4 4 26-21 26 21 4-4L32 4z"/><path data-name="opacity" fill="#000064" opacity=".2" d="M32 11L10 29v32h5V29.923L31 17l23 18.577v-6.808L32 11z"/><path data-name="opacity" fill="#000064" opacity=".2" d="M35 44h-8v3h7v14h3V44h-2z"/><path data-name="stroke" fill="none" stroke="#2e4369" stroke-linecap="round" stroke-miterlimit="10" stroke-width="2" d="M54 21.6V7h-9v7.445M40 61h14V28.769M10 29v32h14" stroke-linejoin="round"/><circle data-name="stroke" cx="32" cy="28" r="5" fill="none" stroke="#2e4369" stroke-linecap="round" stroke-miterlimit="10" stroke-width="2" stroke-linejoin="round"/><path data-name="stroke" fill="none" stroke="#2e4369" stroke-linecap="round" stroke-miterlimit="10" stroke-width="2" d="M24 41h16v20H24zm8-37L2 28l4 4 26-21 26 21 4-4L32 4z" stroke-linejoin="round"/></svg>