<svg xmlns="http://www.w3.org/2000/svg" viewBox="0 0 64 64" aria-labelledby="title" aria-describedby="desc"><path data-name="layer1" d="M63.128 26L55 19.5V5a1 1 0 0 0-1-1h-7a1 1 0 0 0-1 1v7.3L32.625 1.6a1 1 0 0 0-1.249 0L.872 26a1 1 0 0 0-.082 1.49l2.841 2.841a1 1 0 0 0 1.335.071L31.372 9.074a1 1 0 0 1 1.257 0L59.034 30.4a1 1 0 0 0 1.335-.071l2.841-2.839a1 1 0 0 0-.082-1.49z" fill="#202020"/><path data-name="layer2" d="M32 12L9 31v30a1 1 0 0 0 1 1h12V41a1 1 0 0 1 1-1h18a1 1 0 0 1 1 1v21h12a1 1 0 0 0 1-1V31zm0 21a5 5 0 1 1 5-5 5 5 0 0 1-5 5z" fill="#202020"/><path data-name="layer1" d="M25 42h14a1 1 0 0 1 1 1v19H24V43a1 1 0 0 1 1-1z" fill="#202020"/></svg>