<svg xmlns="http://www.w3.org/2000/svg" viewBox="0 0 64 64" aria-labelledby="title" aria-describedby="desc"><path data-name="layer2" d="M45 27a18 18 0 0 0-12.8 30.7h.1A18 18 0 1 0 45 27zm0 4a13.9 13.9 0 0 1 8.4 2.8L33.8 53.4A14 14 0 0 1 45 31zm0 28a13.9 13.9 0 0 1-8.4-2.8l19.6-19.6A14 14 0 0 1 45 59z" fill="#202020"/><path data-name="layer1" d="M39 1H23v16h16zm-4 10a2 2 0 1 1-4 0V7a2 2 0 1 1 4 0z" fill="#202020"/><path data-name="layer1" d="M45 28.8a16.1 16.1 0 0 1 6 1.2V7.7L44.3 1H43v16.3a3.7 3.7 0 0 1-3.7 3.7H22.7a3.7 3.7 0 0 1-3.7-3.7V1H1v50h6V25h38z" fill="#202020"/><path data-name="layer1" d="M28.8 45A16.3 16.3 0 0 1 41 29.3V29H11v22h18.9a16.1 16.1 0 0 1-1.1-6z" fill="#202020"/></svg>