<svg xmlns="http://www.w3.org/2000/svg" viewBox="0 0 64 64" aria-labelledby="title" aria-describedby="desc"><path data-name="layer2" d="M47.1 17a11.4 11.4 0 0 0-3.9.7 7.6 7.6 0 0 0-3.1-.7 7.9 7.9 0 0 0-4.4 1.4A5.9 5.9 0 0 0 32 17a6 6 0 0 0-3.8 1.5l.2-.2A7.9 7.9 0 0 0 24 17a7.6 7.6 0 0 0-3.2.7 11.4 11.4 0 0 0-3.9-.7C8.7 17 2 26 2 37s6.7 20 14.9 20a11.4 11.4 0 0 0 3.9-.7 7.6 7.6 0 0 0 3.2.7 7.9 7.9 0 0 0 4.4-1.4 5.5 5.5 0 0 0 7.3 0 7.9 7.9 0 0 0 4.4 1.4 7.6 7.6 0 0 0 3.1-.7 11.4 11.4 0 0 0 3.9.7C55.4 57 62 48 62 37s-6.6-20-14.9-20z" fill="#f8971d"/><path data-name="opacity" d="M22 37c0-8.5 2.6-15.7 6.4-18.6A7.9 7.9 0 0 0 24 17a7.6 7.6 0 0 0-3.2.7 11.4 11.4 0 0 0-3.9-.7C8.7 17 2 26 2 37s6.7 20 14.9 20a11.4 11.4 0 0 0 3.9-.7 7.6 7.6 0 0 0 3.2.7 7.9 7.9 0 0 0 4.4-1.4C24.7 52.7 22 45.5 22 37z" fill="#101129" opacity=".18"/><path data-name="opacity" d="M47.1 17a11.4 11.4 0 0 0-3.9.7c5.1 2.3 8.9 10 8.9 19.3s-3.8 17-8.9 19.3a11.4 11.4 0 0 0 3.9.7C55.4 57 62 48 62 37s-6.6-20-14.9-20z" fill="#fff" opacity=".25"/><path data-name="layer1" d="M28.4 18.4a5.5 5.5 0 0 1 7.3 0 8.6 8.6 0 0 1 2.3-1.1C34.8 15.8 34 7 34 7h-4a18.7 18.7 0 0 1-3.9 10.3 8.5 8.5 0 0 1 2.3 1.1z" fill="#8aaf3f"/><path data-name="stroke" d="M26.1 17.3A18.7 18.7 0 0 0 30 7h4s.8 8.8 4 10.3" fill="none" stroke="#2f446a" stroke-linecap="round" stroke-linejoin="round" stroke-width="2"/><path data-name="stroke" d="M40.6 47c-1.7 6-5 10-8.7 10-5.5 0-10-9-10-20s4.5-20 10-20c3.7 0 6.9 4 8.7 10M20.8 56.3a11.4 11.4 0 0 1-3.9.7C8.6 57 2 48 2 37s6.6-20 14.9-20a11.4 11.4 0 0 1 3.9.7m22.3 38.6a11.4 11.4 0 0 0 3.9.7c8.3 0 15-9 15-20s-6.7-20-14.9-20a11.4 11.4 0 0 0-3.9.7" fill="none" stroke="#2f446a" stroke-linecap="round" stroke-linejoin="round" stroke-width="2"/><path data-name="stroke" d="M12.5 31c1.5-8.1 6.1-14 11.4-14a7.9 7.9 0 0 1 4.4 1.4m0 37.2A7.9 7.9 0 0 1 24 57c-4.4 0-8.3-4-10.4-10m22 8.6A7.9 7.9 0 0 0 40 57c6.6 0 12-9 12-20s-5.4-20-12-20a7.9 7.9 0 0 0-4.4 1.4" fill="none" stroke="#2f446a" stroke-linecap="round" stroke-linejoin="round" stroke-width="2"/></svg>