<svg xmlns="http://www.w3.org/2000/svg" viewBox="0 0 64 64" aria-labelledby="title" aria-describedby="desc"><path data-name="layer1" d="M41 32A30 30 0 0 1 54 7.3a30 30 0 1 0 0 49.4A30 30 0 0 1 41 32z" fill="#e6f0fa"/><path data-name="opacity" d="M46.7 49.6a30 30 0 0 1-34.2-34.9 30 30 0 0 0 41.5 42 30.2 30.2 0 0 1-7.3-7.1z" fill="#000064" opacity=".15"/><path data-name="stroke" d="M41 32A30 30 0 0 1 54 7.3a30 30 0 1 0 0 49.4A30 30 0 0 1 41 32z" fill="none" stroke="#2e4369" stroke-linecap="round" stroke-linejoin="round" stroke-width="2"/></svg>