<svg xmlns="http://www.w3.org/2000/svg" viewBox="0 0 64 64" aria-labelledby="title" aria-describedby="desc"><circle data-name="layer3" cx="32" cy="32" r="30" fill="#e0eafc"/><path data-name="layer2" d="M35.7 30.6L60 21.2A30 30 0 0 0 32 2v26a4 4 0 0 1 3.7 2.6z" fill="#74e2aa"/><path data-name="layer1" d="M35.7 30.6A4 4 0 1 0 36 32a4 4 0 0 0-.3-1.4z" fill="#f26161"/><path data-name="opacity" d="M28 32a4 4 0 0 1 .4-1.7 4 4 0 1 0 5.2 5.3A4 4 0 0 1 28 32z" fill="#000032" opacity=".2"/><path data-name="stroke" d="M32 28V2a30 30 0 0 1 28 19.2l-24.3 9.4" fill="none" stroke="#2e4369" stroke-linecap="round" stroke-linejoin="round" stroke-width="2"/><circle data-name="stroke" cx="32" cy="32" r="4" fill="none" stroke="#2e4369" stroke-linecap="round" stroke-linejoin="round" stroke-width="2"/><path data-name="stroke" d="M48 33.2a16 16 0 1 1-24-15.1m37.9 11.4q.1 1.3.1 2.5A30 30 0 1 1 24 3.1" fill="none" stroke="#2e4369" stroke-linecap="round" stroke-linejoin="round" stroke-width="2"/></svg>