<svg xmlns="http://www.w3.org/2000/svg" viewBox="0 0 64 64" aria-labelledby="title" aria-describedby="desc"><path data-name="layer1" d="M4.4 44.4C6.3 49.9 8.7 55.4 2 62c6.7-6.7 11.4-4.2 17.6-2.4a22.1 22.1 0 0 0 16.4-.2L4.6 28a22.2 22.2 0 0 0-.2 16.4z" fill="#cd5478"/><path data-name="layer2" d="M8.7 22.1a19.2 19.2 0 0 0-4 6L36 59.4a19 19 0 0 0 8.9-7.8L12.4 19.2a19.2 19.2 0 0 0-3.7 2.9z" fill="#e098ad"/><path data-name="layer1" d="M40.3 23.7c-7.9-7.9-19.5-9.6-27.9-4.6l32.5 32.5c5-8.3 3.4-19.9-4.6-27.9z" fill="#cd5478"/><path data-name="opacity" d="M24.6 54.7c-6.2-1.8-11-4.3-17.6 2.4 6.7-6.7 4.3-12.1 2.4-17.6A23.5 23.5 0 0 1 8 31.4L4.6 28a22.2 22.2 0 0 0-.2 16.4C6.3 49.9 8.7 55.4 2 62c6.7-6.7 11.4-4.2 17.6-2.4a22.1 22.1 0 0 0 16.4-.2l-3.3-3.3a23.5 23.5 0 0 1-8.1-1.4z" fill="#101129" opacity=".18"/><path data-name="layer1" d="M9.6 23a19.6 19.6 0 0 1 1.8-3.2A18.9 18.9 0 0 0 8.7 22a19.2 19.2 0 0 0-4 6L8 31.3A20.9 20.9 0 0 1 9.6 23zm23.1 33.1l3.3 3.3a19.2 19.2 0 0 0 6-4 18.7 18.7 0 0 0 2.2-2.7 19.5 19.5 0 0 1-3.2 1.7 20.9 20.9 0 0 1-8.3 1.7z" fill="#cd5478"/><path data-name="stroke" d="M4.6 27.9a22.2 22.2 0 0 0-.2 16.4c1.9 5.5 4.3 11-2.4 17.6 6.7-6.7 11.4-4.2 17.6-2.4a22.1 22.1 0 0 0 16.4-.2m8.9-7.8c5-8.4 3.4-20-4.6-27.9S20.8 14 12.4 19" fill="none" stroke="#2f446a" stroke-linecap="round" stroke-linejoin="round" stroke-width="2"/><path data-name="stroke" d="M8.7 21.9a19.3 19.3 0 0 0-4 6L36 59.3a19 19 0 0 0 8.9-7.8L12.4 19a19.2 19.2 0 0 0-3.7 2.9zm31.6 1.7l15-15M37 20.3l8.3-18.4m-1.6 25L62 18.6" fill="none" stroke="#2f446a" stroke-linecap="round" stroke-linejoin="round" stroke-width="2"/></svg>