<svg xmlns="http://www.w3.org/2000/svg" viewBox="0 0 64 64" aria-labelledby="title" aria-describedby="desc"><path data-name="layer1" d="M32 23H16.107c-2.718 0-4.933-1.542-3.876-4.8 0 0 .755-2.2 4.782-2.2H32" fill="none" stroke="#202020" stroke-linecap="round" stroke-miterlimit="10" stroke-width="2" stroke-linejoin="round"/><path data-name="layer1" d="M32 29H13.107c-2.718 0-4.933-1.542-3.876-4.8a7.154 7.154 0 0 1 2.983-3.187" fill="none" stroke="#202020" stroke-linecap="round" stroke-miterlimit="10" stroke-width="2" stroke-linejoin="round"/><path data-name="layer1" d="M32 35H13.107c-2.718 0-4.933-1.542-3.876-4.8a10.746 10.746 0 0 1 1.087-1.918" fill="none" stroke="#202020" stroke-linecap="round" stroke-miterlimit="10" stroke-width="2" stroke-linejoin="round"/><path data-name="layer1" d="M24.517 41h-10.41c-2.718 0-4.933-1.542-3.876-4.8a6.864 6.864 0 0 1 .8-1.558" fill="none" stroke="#202020" stroke-linecap="round" stroke-miterlimit="10" stroke-width="2" stroke-linejoin="round"/><path data-name="layer2" d="M62 7v52a2.006 2.006 0 0 1-2 2H4a2.006 2.006 0 0 1-2-2V7m2-5h56a2 2 0 0 1 2 2v3H2V4a2 2 0 0 1 2-2z" fill="none" stroke="#202020" stroke-linecap="round" stroke-miterlimit="10" stroke-width="2" stroke-linejoin="round"/><path data-name="layer1" d="M11.309 40.278C12.577 45.5 14.57 48.21 18 48c4.933-.3 6.13-8.13 9-11a7.809 7.809 0 0 1 5-2m-.038-12h15.893c2.718 0 4.933-1.542 3.876-4.8 0 0-.755-2.2-4.782-2.2H31.962" fill="none" stroke="#202020" stroke-linecap="round" stroke-miterlimit="10" stroke-width="2" stroke-linejoin="round"/><path data-name="layer1" d="M31.962 29h18.893c2.718 0 4.933-1.542 3.876-4.8a7.154 7.154 0 0 0-2.983-3.187" fill="none" stroke="#202020" stroke-linecap="round" stroke-miterlimit="10" stroke-width="2" stroke-linejoin="round"/><path data-name="layer1" d="M31.962 35h18.893c2.718 0 4.933-1.542 3.876-4.8a10.746 10.746 0 0 0-1.087-1.918" fill="none" stroke="#202020" stroke-linecap="round" stroke-miterlimit="10" stroke-width="2" stroke-linejoin="round"/><path data-name="layer1" d="M39.445 41h10.41c2.718 0 4.933-1.542 3.876-4.8a6.864 6.864 0 0 0-.8-1.558" fill="none" stroke="#202020" stroke-linecap="round" stroke-miterlimit="10" stroke-width="2" stroke-linejoin="round"/><path data-name="layer1" d="M52.653 40.278C51.385 45.5 49.393 48.21 45.962 48c-4.933-.3-6.13-8.13-9-11a7.809 7.809 0 0 0-5-2M32 12v45m-5-4h10m-10-6h10m-9-6h8" fill="none" stroke="#202020" stroke-linecap="round" stroke-miterlimit="10" stroke-width="2" stroke-linejoin="round"/></svg>