<svg xmlns="http://www.w3.org/2000/svg" viewBox="0 0 64 64" aria-labelledby="title" aria-describedby="desc"><circle data-name="layer1" cx="32" cy="33" r="8" fill="#202020"/><path data-name="layer2" d="M32 11a22 22 0 0 0-15.6 37.6 2 2 0 0 0 2.8-2.8 18 18 0 1 1 25.5 0 2 2 0 0 0 2.8 2.8A22 22 0 0 0 32 11z" fill="#202020"/><path data-name="layer2" d="M32 1A32 32 0 0 0 9.4 55.6a2 2 0 0 0 2.8-2.8A28 28 0 1 1 60 33a27.8 27.8 0 0 1-8.2 19.8 2 2 0 0 0 2.8 2.8A32 32 0 0 0 32 1z" fill="#202020"/><path data-name="layer1" d="M32 47c-6.6 0-12 7.2-12 16h24c0-8.8-5.4-16-12-16z" fill="#202020"/></svg>