<svg xmlns="http://www.w3.org/2000/svg" viewBox="0 0 64 64" aria-labelledby="title" aria-describedby="desc"><path data-name="layer2" d="M2 0h60a2 2 0 0 1 2 2v3H0V2a2 2 0 0 1 2-2z" fill="#202020"/><path data-name="layer1" d="M11.937 22.4a6.356 6.356 0 0 0-1.784 2.194 2.573 2.573 0 0 0 .161 2.347A3.385 3.385 0 0 0 13.107 28H31v-4H16.107a5.486 5.486 0 0 1-4.17-1.6zm1.231-3.848a2.6 2.6 0 0 0 .146 2.386A3.385 3.385 0 0 0 16.107 22H31v-5H17.014c-3.174 0-3.82 1.488-3.846 1.552zm37.479 2.386a2.634 2.634 0 0 0 .132-2.427c-.011-.023-.657-1.511-3.831-1.511H33v5h14.854a3.385 3.385 0 0 0 2.793-1.062zM12.8 41.885c1.517 4.666 3.53 5.225 5.136 5.117 2.281-.14 3.694-2.471 4.969-5h-8.8a7.4 7.4 0 0 1-1.305-.117zm-1.311-6.069a8.288 8.288 0 0 0-.32.734 2.6 2.6 0 0 0 .146 2.388A3.385 3.385 0 0 0 14.107 40H23.9a14.338 14.338 0 0 1 2.393-3.707c.1-.1.212-.2.32-.293H13.107a7.19 7.19 0 0 1-1.618-.184zm-.814-6.248c-.24.42-.445.844-.527 1.031a2.572 2.572 0 0 0 .166 2.338A3.385 3.385 0 0 0 13.107 34H31v-4H13.107a6.71 6.71 0 0 1-2.432-.432zm41.799 6.248a7.187 7.187 0 0 1-1.62.184H37.349c.108.095.216.189.32.293A14.324 14.324 0 0 1 40.062 40h9.792a3.385 3.385 0 0 0 2.793-1.062 2.634 2.634 0 0 0 .132-2.427 7.22 7.22 0 0 0-.305-.695zM52.025 22.4a5.485 5.485 0 0 1-4.171 1.6H33v4h17.854a3.385 3.385 0 0 0 2.793-1.062 2.633 2.633 0 0 0 .133-2.425 6.507 6.507 0 0 0-1.755-2.113zM41.055 42c1.274 2.531 2.687 4.862 4.969 5 1.61.1 3.62-.453 5.136-5.117a7.4 7.4 0 0 1-1.3.115z" fill="#202020"/><path data-name="layer1" d="M0 7v55a2.006 2.006 0 0 0 2 2h60a2.006 2.006 0 0 0 2-2V7zm55.648 22.8a4.547 4.547 0 0 1-.383 4.309 3.966 3.966 0 0 1-.951.912c.184.383.314.722.354.83a4.512 4.512 0 0 1-.4 4.258 3.891 3.891 0 0 1-.729.752c-.917 3.625-2.674 8.147-7.2 8.147-.142 0-.285 0-.433-.014-3.757-.229-5.566-3.917-7.163-7.171a16.479 16.479 0 0 0-2.482-4.12A6.2 6.2 0 0 0 33 36.117V40h3a1 1 0 0 1 0 2h-3v4h4a1 1 0 0 1 0 2h-4v4h4a1 1 0 0 1 0 2h-4v3a1 1 0 0 1-2 0v-3h-4a1 1 0 0 1 0-2h4v-4h-4a1 1 0 0 1 0-2h4v-4h-3a1 1 0 0 1 0-2h3v-3.887a6.261 6.261 0 0 0-3.293 1.594 16.518 16.518 0 0 0-2.481 4.119c-1.6 3.254-3.407 6.942-7.164 7.172a7.109 7.109 0 0 1-.433.014c-4.53 0-6.286-4.521-7.2-8.147a3.891 3.891 0 0 1-.729-.752 4.484 4.484 0 0 1-.416-4.22c.047-.128.181-.479.368-.868a3.969 3.969 0 0 1-.952-.912 4.484 4.484 0 0 1-.416-4.22A13.23 13.23 0 0 1 9 28.47a3.759 3.759 0 0 1-.3-.357 4.484 4.484 0 0 1-.416-4.22 8.219 8.219 0 0 1 2.762-3.318 5.341 5.341 0 0 1 .238-2.682c.042-.132 1.042-2.893 5.73-2.893H31v-3a1 1 0 0 1 2 0v3h13.948c4.688 0 5.688 2.761 5.729 2.878a5.383 5.383 0 0 1 .242 2.7 8.269 8.269 0 0 1 2.736 3.243 4.539 4.539 0 0 1-.389 4.295 3.768 3.768 0 0 1-.3.357 14.183 14.183 0 0 1 .682 1.327z" fill="#202020"/><path data-name="layer1" d="M53.29 29.567a6.708 6.708 0 0 1-2.436.433H33v4h17.854a3.385 3.385 0 0 0 2.793-1.062 2.634 2.634 0 0 0 .132-2.427c-.06-.131-.252-.533-.489-.944z" fill="#202020"/></svg>