<svg xmlns="http://www.w3.org/2000/svg" viewBox="0 0 64 64" aria-labelledby="title" aria-describedby="desc"><path data-name="layer1" fill="none" stroke="#202020" stroke-linecap="round" stroke-linejoin="round" stroke-width="2" d="M40.3 23.7l15-15M37 20.3L45.3 2m-1.6 25L62 18.7"/><path data-name="layer2" d="M4.6 28a22.2 22.2 0 0 0-.2 16.4C6.3 49.9 8.7 55.3 2 62c6.7-6.7 11.4-4.2 17.6-2.4a22.1 22.1 0 0 0 16.4-.2m8.9-7.8c5-8.4 3.4-20-4.6-27.9s-19.5-9.6-27.9-4.6" fill="none" stroke="#202020" stroke-linecap="round" stroke-linejoin="round" stroke-width="2"/><path data-name="layer1" d="M8.7 22a19.3 19.3 0 0 0-4 6L36 59.4a19 19 0 0 0 8.9-7.8L12.4 19.1A19.2 19.2 0 0 0 8.7 22z" fill="none" stroke="#202020" stroke-linecap="round" stroke-linejoin="round" stroke-width="2"/></svg>