<svg xmlns="http://www.w3.org/2000/svg" viewBox="0 0 64 64" aria-labelledby="title" aria-describedby="desc"><rect data-name="layer2" x="2" y="16" width="60" height="44" rx="3" ry="3" fill="#7b8baf"/><path data-name="opacity" d="M59 57H5a3 3 0 0 1-3-3v3a3 3 0 0 0 3 3h54a3 3 0 0 0 3-3v-3a3 3 0 0 1-3 3z" fill="#000064" opacity=".2"/><circle data-name="layer1" cx="44" cy="42" r="10" fill="#8fa9d8"/><path data-name="opacity" d="M44 52a10 10 0 0 1-8.4-15.4 10 10 0 1 0 13.8 13.8A9.9 9.9 0 0 1 44 52z" fill="#000064" opacity=".2"/><path data-name="stroke" fill="none" stroke="#2e4369" stroke-linecap="round" stroke-miterlimit="10" stroke-width="2" d="M8 16L42 4" stroke-linejoin="round"/><rect data-name="stroke" x="2" y="16" width="60" height="44" rx="3" ry="3" fill="none" stroke="#2e4369" stroke-linecap="round" stroke-miterlimit="10" stroke-width="2" stroke-linejoin="round"/><path data-name="stroke" d="M10 24h44" fill="none" stroke="#2e4369" stroke-linecap="round" stroke-miterlimit="10" stroke-width="2" stroke-linejoin="round"/><circle data-name="stroke" cx="44" cy="42" r="10" fill="none" stroke="#2e4369" stroke-linecap="round" stroke-miterlimit="10" stroke-width="2" stroke-linejoin="round"/><path data-name="stroke" fill="none" stroke="#2e4369" stroke-linecap="round" stroke-miterlimit="10" stroke-width="2" d="M10 34h16m-16 8h16m-16 8h16m18-8v-3.7" stroke-linejoin="round"/></svg>