<svg xmlns="http://www.w3.org/2000/svg" viewBox="0 0 64 64" aria-labelledby="title" aria-describedby="desc"><rect data-name="layer3" x="2" y="16" width="60" height="44" rx="3" ry="3" fill="#7b8baf"/><path data-name="opacity" d="M59 57H5a3 3 0 0 1-3-3v3a3 3 0 0 0 3 3h54a3 3 0 0 0 3-3v-3a3 3 0 0 1-3 3z" fill="#000064" opacity=".2"/><circle data-name="layer2" cx="50" cy="28" r="4" fill="#8fa9d8"/><circle data-name="layer2" cx="50" cy="44" r="4" fill="#8fa9d8"/><path data-name="opacity" d="M47 35a4 4 0 0 0 3.9-3.1H50a4 4 0 0 1-3.9-4.9 4 4 0 0 0 .9 8zm-1 9a4 4 0 0 1 .1-.9 4 4 0 1 0 4.8 4.8H50a4 4 0 0 1-4-3.9z" fill="#000064" opacity=".2"/><circle data-name="layer1" cx="24" cy="38" r="1" fill="#536897"/><circle data-name="layer1" cx="18" cy="34" r="1" fill="#536897"/><circle data-name="layer1" cx="18" cy="42" r="1" fill="#536897"/><circle data-name="layer1" cx="18" cy="50" r="1" fill="#536897"/><circle data-name="layer1" cx="30" cy="34" r="1" fill="#536897"/><circle data-name="layer1" cx="30" cy="42" r="1" fill="#536897"/><circle data-name="layer1" cx="30" cy="50" r="1" fill="#536897"/><circle data-name="layer1" cx="17" cy="26" r="1" fill="#536897"/><circle data-name="layer1" cx="12" cy="30" r="1" fill="#536897"/><circle data-name="layer1" cx="31" cy="26" r="1" fill="#536897"/><circle data-name="layer1" cx="36" cy="30" r="1" fill="#536897"/><circle data-name="layer1" cx="35" cy="47" r="1" fill="#536897"/><circle data-name="layer1" cx="13" cy="47" r="1" fill="#536897"/><circle data-name="layer1" cx="10" cy="38" r="1" fill="#536897"/><circle data-name="layer1" cx="38" cy="38" r="1" fill="#536897"/><circle data-name="layer1" cx="24" cy="45" r="1" fill="#536897"/><circle data-name="layer1" cx="24" cy="52" r="1" fill="#536897"/><circle data-name="layer1" cx="24" cy="31" r="1" fill="#536897"/><circle data-name="layer1" cx="24" cy="24" r="1" fill="#536897"/><path data-name="stroke" fill="none" stroke="#2e4369" stroke-linecap="round" stroke-miterlimit="10" stroke-width="2" d="M8 16L42 4" stroke-linejoin="round"/><rect data-name="stroke" x="2" y="16" width="60" height="44" rx="3" ry="3" fill="none" stroke="#2e4369" stroke-linecap="round" stroke-miterlimit="10" stroke-width="2" stroke-linejoin="round"/><circle data-name="stroke" cx="50" cy="28" r="4" fill="none" stroke="#2e4369" stroke-linecap="round" stroke-miterlimit="10" stroke-width="2" stroke-linejoin="round"/><circle data-name="stroke" cx="50" cy="44" r="4" fill="none" stroke="#2e4369" stroke-linecap="round" stroke-miterlimit="10" stroke-width="2" stroke-linejoin="round"/><circle data-name="stroke" cx="24" cy="38" r="1" fill="none" stroke="#2e4369" stroke-linecap="round" stroke-miterlimit="10" stroke-width="2" stroke-linejoin="round"/><circle data-name="stroke" cx="18" cy="34" r="1" fill="none" stroke="#2e4369" stroke-linecap="round" stroke-miterlimit="10" stroke-width="2" stroke-linejoin="round"/><circle data-name="stroke" cx="18" cy="42" r="1" fill="none" stroke="#2e4369" stroke-linecap="round" stroke-miterlimit="10" stroke-width="2" stroke-linejoin="round"/><circle data-name="stroke" cx="18" cy="50" r="1" fill="none" stroke="#2e4369" stroke-linecap="round" stroke-miterlimit="10" stroke-width="2" stroke-linejoin="round"/><circle data-name="stroke" cx="30" cy="34" r="1" fill="none" stroke="#2e4369" stroke-linecap="round" stroke-miterlimit="10" stroke-width="2" stroke-linejoin="round"/><circle data-name="stroke" cx="30" cy="42" r="1" fill="none" stroke="#2e4369" stroke-linecap="round" stroke-miterlimit="10" stroke-width="2" stroke-linejoin="round"/><circle data-name="stroke" cx="30" cy="50" r="1" fill="none" stroke="#2e4369" stroke-linecap="round" stroke-miterlimit="10" stroke-width="2" stroke-linejoin="round"/><circle data-name="stroke" cx="17" cy="26" r="1" fill="none" stroke="#2e4369" stroke-linecap="round" stroke-miterlimit="10" stroke-width="2" stroke-linejoin="round"/><circle data-name="stroke" cx="12" cy="30" r="1" fill="none" stroke="#2e4369" stroke-linecap="round" stroke-miterlimit="10" stroke-width="2" stroke-linejoin="round"/><circle data-name="stroke" cx="31" cy="26" r="1" fill="none" stroke="#2e4369" stroke-linecap="round" stroke-miterlimit="10" stroke-width="2" stroke-linejoin="round"/><circle data-name="stroke" cx="36" cy="30" r="1" fill="none" stroke="#2e4369" stroke-linecap="round" stroke-miterlimit="10" stroke-width="2" stroke-linejoin="round"/><circle data-name="stroke" cx="35" cy="47" r="1" fill="none" stroke="#2e4369" stroke-linecap="round" stroke-miterlimit="10" stroke-width="2" stroke-linejoin="round"/><circle data-name="stroke" cx="13" cy="47" r="1" fill="none" stroke="#2e4369" stroke-linecap="round" stroke-miterlimit="10" stroke-width="2" stroke-linejoin="round"/><circle data-name="stroke" cx="10" cy="38" r="1" fill="none" stroke="#2e4369" stroke-linecap="round" stroke-miterlimit="10" stroke-width="2" stroke-linejoin="round"/><circle data-name="stroke" cx="38" cy="38" r="1" fill="none" stroke="#2e4369" stroke-linecap="round" stroke-miterlimit="10" stroke-width="2" stroke-linejoin="round"/><circle data-name="stroke" cx="24" cy="45" r="1" fill="none" stroke="#2e4369" stroke-linecap="round" stroke-miterlimit="10" stroke-width="2" stroke-linejoin="round"/><circle data-name="stroke" cx="24" cy="52" r="1" fill="none" stroke="#2e4369" stroke-linecap="round" stroke-miterlimit="10" stroke-width="2" stroke-linejoin="round"/><circle data-name="stroke" cx="24" cy="31" r="1" fill="none" stroke="#2e4369" stroke-linecap="round" stroke-miterlimit="10" stroke-width="2" stroke-linejoin="round"/><circle data-name="stroke" cx="24" cy="24" r="1" fill="none" stroke="#2e4369" stroke-linecap="round" stroke-miterlimit="10" stroke-width="2" stroke-linejoin="round"/></svg>