<svg xmlns="http://www.w3.org/2000/svg" viewBox="0 0 64 64" aria-labelledby="title" aria-describedby="desc"><path data-name="layer1" d="M44 37.3a2 2 0 0 0-2 2V43a2 2 0 0 0 4 0v-3.7a2 2 0 0 0-2-2z" fill="#202020"/><path data-name="layer1" d="M59 17H14L42.7 6.9a2 2 0 1 0-1.3-3.8l-34 12A2 2 0 0 0 6 17H5a3 3 0 0 0-3 3v38a3 3 0 0 0 3 3h54a3 3 0 0 0 3-3V20a3 3 0 0 0-3-3zM26 53H10a2 2 0 1 1 0-4h16a2 2 0 0 1 0 4zm0-8H10a2 2 0 1 1 0-4h16a2 2 0 0 1 0 4zm0-8H10a2 2 0 1 1 0-4h16a2 2 0 0 1 0 4zm18 17a11 11 0 1 1 11-11 11 11 0 0 1-11 11zm10-27H10a2 2 0 1 1 0-4h44a2 2 0 0 1 0 4z" fill="#202020"/></svg>