<svg viewBox="0 0 64 64" xmlns="http://www.w3.org/2000/svg" aria-labelledby="title" aria-describedby="desc"><path fill="#f27e7c" d="M5 1h52v21.986a41.821 41.821 0 0 1-26.006 37.8A41.816 41.816 0 0 1 5 22.986z" data-name="layer2"/><path d="M31 34.054l-9.889 7.168 3.809-11.553L15 23h12.244L31 10.999 34.756 23H47l-9.92 6.669 3.809 11.553L31 34.054z" fill="#fc6" data-name="layer1"/><path d="M27.244 23l1.908-6.208L28 13.165 24.94 23h2.304zM31 33.832L21.111 41l3.809-11.553L18.305 25H12l9.92 6.669-3.809 11.553L28 36.054l9.889 7.168-1.905-5.777L31 33.832z" opacity=".15" fill="#000064" data-name="opacity"/><path opacity=".3" data-name="opacity" d="M32.756 26h10.111L47 23H34.756L31 10.999l-1.435 4.695L32.756 26zm-7.512 0l.87-3H15l4.133 3h6.111zm9.836 6.447l1.977 5.997 3.832 2.778-3.422-10.379-2.387 1.604z" fill="#fff"/><path opacity=".15" fill="#000064" d="M14 27V1H5v22.2A41.816 41.816 0 0 0 30.994 61C15.988 47 14 33 14 27z" data-name="opacity"/><path d="M31 34.054l-9.889 7.168 3.809-11.553L15 23h12.244L31 10.999 34.756 23H47l-9.92 6.669 3.809 11.553L31 34.054z" stroke-width="2" stroke-linejoin="round" stroke-linecap="round" stroke="#2e4369" fill="none" data-name="stroke"/><path stroke-width="2" stroke-linejoin="round" stroke-linecap="round" stroke="#2e4369" fill="none" d="M5 1h52v21.986a41.821 41.821 0 0 1-26.006 37.8A41.816 41.816 0 0 1 5 22.986z" data-name="stroke"/></svg>