<svg xmlns="http://www.w3.org/2000/svg" viewBox="0 0 64 64" aria-labelledby="title" aria-describedby="desc"><path data-name="layer2" d="M56 36h-6s0-6.6-8.3-7.9c-5.4-.8-5.4-2.7-5.4-3.7v-1.7c2-1.7 2.9-4.6 2.9-7.9V9.7c0-5.6-3.7-7.7-7.3-7.7s-7.3 2.1-7.3 7.7v5.1c0 3.3 1 6.1 2.9 7.9v1.7c0 1.1 0 2.7-5.4 3.7C14 29.7 14 36 14 36H8a2 2 0 0 0 0 4h48a2 2 0 0 0 0-4z" fill="#202020"/><path data-name="layer1" d="M14 62a56.4 56.4 0 0 1 16-.4V46.3a23.6 23.6 0 0 0-4-.3c-8 0-12 3.2-12 16zm24-16a23.5 23.5 0 0 0-4 .3v15.3a56.3 56.3 0 0 1 16 .4c0-12.8-3.9-16-12-16z" fill="#202020"/></svg>