<svg xmlns="http://www.w3.org/2000/svg" viewBox="0 0 64 64" aria-labelledby="title" aria-describedby="desc"><path data-name="layer2" d="M38 33h18V9H2v36h36.1a16.5 16.5 0 0 1-.1-1.9z" fill="#fff4e3"/><path data-name="opacity" fill="#000064" opacity=".14" d="M2 9l27 20.6L56 9v1.5L26 37 2 13.5V9z"/><path data-name="layer1" d="M38 33h24v10.1c0 5.5-3.2 14.3-12 17.9a19.8 19.8 0 0 1-12-17.9z" fill="#5edc89"/><path data-name="opacity" d="M38 43.1V36h-5v9h5.1a16.5 16.5 0 0 1-.1-1.9z" fill="#000064" opacity=".14"/><path data-name="stroke" fill="none" stroke="#2e4369" stroke-linecap="round" stroke-miterlimit="10" stroke-width="2" d="M38 45H2V9h54v24" stroke-linejoin="round"/><path data-name="stroke" fill="none" stroke="#2e4369" stroke-linecap="round" stroke-miterlimit="10" stroke-width="2" d="M2 9l27 20.6L56 9M38 33h24v10.1c0 5.5-3.2 14.3-12 17.9a19.8 19.8 0 0 1-12-17.9z" stroke-linejoin="round"/><path data-name="stroke" fill="none" stroke="#2e4369" stroke-linecap="round" stroke-miterlimit="10" stroke-width="2" d="M45 45l4 4 7-8" stroke-linejoin="round"/></svg>