<svg viewBox="0 0 64 64" xmlns="http://www.w3.org/2000/svg" aria-labelledby="title" aria-describedby="desc"><path fill="#e8ebef" d="M37.021 45a16.842 16.842 0 0 0-6.02.811V61c4-1.035 12.138-1.059 18.009 0-.001-12.785-3.956-16-11.989-16zM13 61c5.873-1.059 14-1.035 18 0V45.809A16.626 16.626 0 0 0 25 45c-8.031 0-12 3.215-12 16z" data-name="layer2"/><path fill="#a5d0ec" d="M49.047 37.027V35s0-6.618-8.277-7.872C35.344 26.3 35 24.763 35 23.7V22c1.969-1.735 3-4.73 3-8V9c0-5.55-3.367-8-6.949-8S24 3.45 24 9v5c0 3.263 1.043 6.265 3 8v1.711c0 1.067-.285 2.387-5.68 3.416C13 28.714 13.043 35 13.043 35v2z" data-name="layer1"/><path opacity=".15" fill="#000064" d="M27 23.711c0 .822-.2 1.795-2.75 2.668.339-.088.686-.179 1.059-.25C30.7 25.1 31 23.78 31 22.713V21c-2-1.735-3-4.737-3-8V8c0-3.529 1.381-5.8 3.324-6.991-.1 0-.186-.013-.285-.013C27.457 1 24 3.45 24 9v5c0 3.263 1 6.265 3 8zM17 36v-2s-.015-5.164 6.193-7.308c-.556.148-1.185.294-1.917.434C12.956 28.714 13 35 13 35v2l36 .029v-1z"/><path opacity=".1" fill="#000064" d="M13 61a54.63 54.63 0 0 1 8.006-.761c.052-6.437.775-12.713 2.688-15.206C16.541 45.392 13 48.931 13 61zm18-15.191V61a27.775 27.775 0 0 1 5-.685V45.023a15.707 15.707 0 0 0-5 .786z" data-name="opacity"/><path stroke-width="2" stroke-linejoin="round" stroke-linecap="round" stroke="#2e4369" fill="none" d="M31 45.809A16.626 16.626 0 0 0 25 45c-8.031 0-12 3.217-12 16 5.873-1.059 14-1.035 18 0zm.045 0a16.62 16.62 0 0 1 6-.811c8.033 0 12 3.217 12 16-5.871-1.059-14-1.035-18 0M13.043 37v-2S13 28.714 21.32 27.127C26.715 26.1 27 24.778 27 23.711V22c-1.957-1.735-3-4.737-3-8V9c0-5.55 3.469-8 7.051-8S38 3.45 38 9v5c0 3.27-1.031 6.265-3 8v1.7c0 1.067.344 2.609 5.77 3.432C49.043 28.381 49.047 35 49.047 35v2.028M7 36.998h48" data-name="stroke"/></svg>