<svg xmlns="http://www.w3.org/2000/svg" viewBox="0 0 64 64" aria-labelledby="title" aria-describedby="desc"><path data-name="layer3" d="M3 58a4 4 0 0 0 4 4h24a4 4 0 0 0 4-4V48H3zM35 6a4 4 0 0 0-4-4H7a4 4 0 0 0-4 4v4h32z" fill="#536897"/><path data-name="opacity" d="M9 58V48H3v10a4 4 0 0 0 4 4h6a4 4 0 0 1-4-4zm4-56H7a4 4 0 0 0-4 4v4h6V6a4 4 0 0 1 4-4z" fill="#000064" opacity=".14"/><path data-name="layer2" fill="#a0d6ef" d="M3 10h32v38H3z"/><circle data-name="layer1" cx="19" cy="55" r="1" fill="#7b8baf"/><path data-name="opacity" fill="#fff" opacity=".25" d="M35 10h-6L3 36v12h2l30-30v-8zm0 17L14 48h21V27z"/><path data-name="stroke" fill="none" stroke="#2e4369" stroke-linecap="round" stroke-miterlimit="10" stroke-width="2" d="M63 32H27.8M41 20L27.8 32 41 44" stroke-linejoin="round"/><path data-name="stroke" d="M35 48v10a4 4 0 0 1-4 4H7a4 4 0 0 1-4-4V6a4 4 0 0 1 4-4h24a4 4 0 0 1 4 4v10M3 10h32M3 48h32" fill="none" stroke="#2e4369" stroke-linecap="round" stroke-miterlimit="10" stroke-width="2" stroke-linejoin="round"/><circle data-name="stroke" cx="19" cy="55" r="1" fill="none" stroke="#2e4369" stroke-linecap="round" stroke-miterlimit="10" stroke-width="2" stroke-linejoin="round"/></svg>