<svg xmlns="http://www.w3.org/2000/svg" viewBox="0 0 64 64" aria-labelledby="title" aria-describedby="desc"><circle data-name="layer1" cx="32" cy="56" r="6" fill="#9cf"/><path data-name="layer1" d="M59.3 16a2.7 2.7 0 0 1-1.5-.5 45.6 45.6 0 0 0-51.5 0 2.7 2.7 0 0 1-3.8-.8 2.8 2.8 0 0 1 .7-3.9 51 51 0 0 1 57.6 0 2.8 2.8 0 0 1 .7 3.9 2.7 2.7 0 0 1-2.2 1.3z" fill="#9cf"/><path data-name="layer1" d="M51.8 28a2.7 2.7 0 0 1-1.6-.5 31.2 31.2 0 0 0-36.4 0 2.7 2.7 0 0 1-3.8-.7 2.9 2.9 0 0 1 .7-3.9 36.6 36.6 0 0 1 42.6 0 2.9 2.9 0 0 1 .7 3.9 2.7 2.7 0 0 1-2.2 1.2zm-8 12a2.7 2.7 0 0 1-1.6-.5 17.6 17.6 0 0 0-20.4 0A2.8 2.8 0 0 1 18 39a2.6 2.6 0 0 1 .6-3.7 23.1 23.1 0 0 1 26.8 0A2.6 2.6 0 0 1 46 39a2.7 2.7 0 0 1-2.2 1z" fill="#9cf"/><circle data-name="stroke" cx="32" cy="56" r="6" fill="none" stroke="#2e4369" stroke-linecap="round" stroke-miterlimit="10" stroke-width="2" stroke-linejoin="round"/><path data-name="stroke" d="M59.3 16a2.7 2.7 0 0 1-1.5-.5 45.6 45.6 0 0 0-51.5 0 2.7 2.7 0 0 1-3.8-.8 2.8 2.8 0 0 1 .7-3.9 51 51 0 0 1 57.6 0 2.8 2.8 0 0 1 .7 3.9 2.7 2.7 0 0 1-2.2 1.3z" fill="none" stroke="#2e4369" stroke-linecap="round" stroke-miterlimit="10" stroke-width="2" stroke-linejoin="round"/><path data-name="stroke" d="M51.8 28a2.7 2.7 0 0 1-1.6-.5 31.2 31.2 0 0 0-36.4 0 2.7 2.7 0 0 1-3.8-.7 2.9 2.9 0 0 1 .7-3.9 36.6 36.6 0 0 1 42.6 0 2.9 2.9 0 0 1 .7 3.9 2.7 2.7 0 0 1-2.2 1.2zm-8 12a2.7 2.7 0 0 1-1.6-.5 17.6 17.6 0 0 0-20.4 0A2.8 2.8 0 0 1 18 39a2.6 2.6 0 0 1 .6-3.7 23.1 23.1 0 0 1 26.8 0A2.6 2.6 0 0 1 46 39a2.7 2.7 0 0 1-2.2 1z" fill="none" stroke="#2e4369" stroke-linecap="round" stroke-miterlimit="10" stroke-width="2" stroke-linejoin="round"/></svg>