<svg xmlns="http://www.w3.org/2000/svg" viewBox="0 0 64 64" aria-labelledby="title" aria-describedby="desc"><path data-name="layer2" d="M20 35v15a12 12 0 0 0 24 0V35z" fill="#536897"/><path data-name="layer1" d="M44 31a12 12 0 0 0-24 0v4h24z" fill="#8fa9d8"/><path data-name="opacity" d="M36 58a12 12 0 0 1-12-12V27a11.9 11.9 0 0 1 1.8-6.2A12 12 0 0 0 20 31v19a12 12 0 0 0 22.2 6.2A11.9 11.9 0 0 1 36 58z" fill="#000064" opacity=".2"/><path data-name="stroke" d="M44 50a12 12 0 0 1-12 12 12 12 0 0 1-12-12V31a12 12 0 0 1 12-12 12 12 0 0 1 12 12z" fill="none" stroke="#2e4369" stroke-linecap="round" stroke-miterlimit="10" stroke-width="2" stroke-linejoin="round"/><path data-name="stroke" d="M12 37.7V31a20 20 0 0 1 20-20 20 20 0 0 1 20 20v6.7M12 35h40M32 11V2M20 44h8m-7.8 8H28m8 0h7.8M36 44h8" fill="none" stroke="#2e4369" stroke-linecap="round" stroke-miterlimit="10" stroke-width="2" stroke-linejoin="round"/></svg>