<svg xmlns="http://www.w3.org/2000/svg" viewBox="0 0 64 64" aria-labelledby="title" aria-describedby="desc"><path data-name="layer1" d="M44 50a12 12 0 0 1-12 12 12 12 0 0 1-12-12V31a12 12 0 0 1 12-12 12 12 0 0 1 12 12z" fill="none" stroke="#202020" stroke-miterlimit="10" stroke-width="2" stroke-linejoin="round" stroke-linecap="round"/><path data-name="layer2" d="M12 37.7V31a20 20 0 0 1 20-20 20 20 0 0 1 20 20v6.7M12 35h40M32 11V2" fill="none" stroke="#202020" stroke-miterlimit="10" stroke-width="2" stroke-linejoin="round" stroke-linecap="round"/><path data-name="layer1" fill="none" stroke="#202020" stroke-miterlimit="10" stroke-width="2" d="M20 44h8m-7.8 8H28m8 0h7.8M36 44h8" stroke-linejoin="round" stroke-linecap="round"/></svg>