<svg viewBox="0 0 64 64" xmlns="http://www.w3.org/2000/svg" aria-labelledby="title" aria-describedby="desc"><circle fill="#f27e7c" r="30" cy="31" cx="31" data-name="layer2"/><path opacity=".15" fill="#000064" d="M35 57A30 30 0 0 1 11.882 7.882a30 30 0 1 0 42.236 42.236A29.875 29.875 0 0 1 35 57z" data-name="opacity"/><path d="M31.01 38.935L19.885 47l4.285-12.996-11.16-8.003h13.773L31.01 13l4.226 13.001H49.01l-11.16 8.003L42.135 47 31.01 38.935z" fill="#fc6" data-name="layer1"/><path opacity=".4" data-name="opacity" d="M34.227 28.001h11.984l2.789-2H35.227L31 13l-.825 2.538 4.052 12.463zm2.613 8.003l3.104 9.415L42.125 47l-3.943-11.959-1.342.963zm-11.067-8.003l.651-2H13l2.789 2h9.984z" fill="#fff"/><path opacity=".15" d="M26.773 26.001l2.077-6.387L28 17l-2.926 9.001h1.699zM31 38.935L19.875 47l4.285-12.996-5.582-4.003H10l11.16 8.003L16.875 51 28 42.935 39.125 51l-2.675-8.114L31 38.935zm6.84-4.931l.493 1.495L46 30.001h-2.578l-5.582 4.003z" fill="#000064"/><path d="M31.01 38.935L19.885 47l4.285-12.996-11.16-8.003h13.773L31.01 13l4.226 13.001H49.01l-11.16 8.003L42.135 47 31.01 38.935z" stroke-width="2" stroke-linejoin="round" stroke-linecap="round" stroke="#2e4369" fill="none" data-name="stroke"/><circle stroke-width="2" stroke-linejoin="round" stroke-linecap="round" stroke="#2e4369" fill="none" r="30" cy="31" cx="31" data-name="stroke"/></svg>