<svg viewBox="0 0 64 64" xmlns="http://www.w3.org/2000/svg" aria-labelledby="title" aria-describedby="desc"><path stroke-width="2" stroke-miterlimit="10" stroke-linecap="round" stroke="#202020" fill="none" d="M25.411 15.563l-2.477-.663A20.56 20.56 0 0 1 28.4 14a20.439 20.439 0 0 1 16.082 7.994 3.073 3.073 0 0 0 2.365 1.227 2.951 2.951 0 0 0 1.847-.6 3.16 3.16 0 0 0 .514-4.343A26.384 26.384 0 0 0 28.4 8a26.5 26.5 0 0 0-8.549 1.559l1.436-3.519a2.959 2.959 0 0 0-1.671-3.863 3.007 3.007 0 0 0-3.9 1.69l-4.5 11.263c-.011.029-.014.063-.024.091a3.09 3.09 0 0 0-.106.385c-.016.073-.038.147-.048.221a3.033 3.033 0 0 0-.024.457c0 .052-.007.1 0 .157a2.978 2.978 0 0 0 .1.612c.01.034.027.066.038.1a3.013 3.013 0 0 0 .193.479c.007.013.009.027.016.04.032.058.077.106.112.162a2.96 2.96 0 0 0 .168.267c.016.02.036.034.053.055.057.069.122.129.184.193a3.092 3.092 0 0 0 .269.25c.065.051.134.095.2.141a2.983 2.983 0 0 0 .325.192c.074.037.149.068.226.1a3.149 3.149 0 0 0 .361.117c.045.011.086.033.132.043l10.8 2.246a2.97 2.97 0 0 0 .614.064 3 3 0 0 0 .608-5.938zM23.275 56.39a2.558 2.558 0 0 0-.036-.246 3.047 3.047 0 0 0-.083-.353c-.013-.041-.015-.084-.029-.125l-3.6-10.258a3 3 0 1 0-5.662 1.984l.852 2.431a20.4 20.4 0 0 1-4.369-24.642 3 3 0 0 0-5.3-2.806 26.387 26.387 0 0 0 6.972 33.009l-3.155.684a3 3 0 1 0 1.271 5.863l10.8-2.342c.026-.006.051-.019.077-.025a3.02 3.02 0 0 0 .454-.15c.033-.014.067-.024.1-.039a3.024 3.024 0 0 0 .484-.284c.035-.025.066-.054.1-.08a2.929 2.929 0 0 0 .335-.309c.034-.035.067-.069.1-.106a2.962 2.962 0 0 0 .334-.472 3.089 3.089 0 0 0 .194-.42c.011-.028.013-.058.022-.087.029-.088.048-.178.069-.268a3.118 3.118 0 0 0 .066-.34c.01-.084.011-.168.013-.254a2.922 2.922 0 0 0-.009-.365z" data-name="layer2" stroke-linejoin="round"/><path stroke-width="2" stroke-miterlimit="10" stroke-linecap="round" stroke="#202020" fill="none" d="M49.338 26.966a3.224 3.224 0 0 0-.186.165 3.056 3.056 0 0 0-.249.263c-.027.033-.063.059-.088.093l-6.6 8.639a3 3 0 0 0 4.768 3.642l1.564-2.047a20.4 20.4 0 0 1-18.192 17.184 3 3 0 0 0 .568 5.974 26.387 26.387 0 0 0 23.756-23.955l2.3 2.261a3 3 0 1 0 4.2-4.283L53.3 27.167c-.019-.019-.044-.032-.064-.051a3.01 3.01 0 0 0-.375-.3c-.03-.02-.057-.043-.087-.061a3.032 3.032 0 0 0-.5-.248c-.04-.015-.081-.026-.122-.04a2.925 2.925 0 0 0-.442-.111c-.048-.009-.095-.018-.143-.024a2.969 2.969 0 0 0-.578-.02h-.007a3.093 3.093 0 0 0-.458.069c-.03.007-.055.021-.085.029-.09.024-.175.058-.262.089a3.1 3.1 0 0 0-.321.132c-.076.038-.147.083-.219.128a2.924 2.924 0 0 0-.299.207z" data-name="layer1" stroke-linejoin="round"/></svg>