<svg viewBox="0 0 64 64" xmlns="http://www.w3.org/2000/svg" aria-labelledby="title" aria-describedby="desc"><path fill="#bacae9" d="M25.411 15.563l-2.477-.663A20.56 20.56 0 0 1 28.4 14a20.439 20.439 0 0 1 16.082 7.994 3.073 3.073 0 0 0 2.365 1.227 2.948 2.948 0 0 0 1.847-.6 3.159 3.159 0 0 0 .514-4.342A26.384 26.384 0 0 0 28.4 8a26.484 26.484 0 0 0-8.549 1.559l1.438-3.519a2.959 2.959 0 0 0-1.671-3.862 3.007 3.007 0 0 0-3.9 1.689l-4.5 11.264c-.011.028-.014.063-.024.091a3.066 3.066 0 0 0-.106.385c-.016.073-.038.147-.048.22a3.043 3.043 0 0 0-.024.457c0 .052-.007.1 0 .157a2.978 2.978 0 0 0 .1.612c.01.034.027.066.038.1a3.013 3.013 0 0 0 .193.479c.007.013.009.027.016.04.032.059.077.106.112.163a3.108 3.108 0 0 0 .168.267c.016.02.036.035.053.055.057.069.122.129.184.192a3.022 3.022 0 0 0 .269.251c.065.051.134.095.2.141a2.983 2.983 0 0 0 .325.192c.074.037.149.068.226.1a2.982 2.982 0 0 0 .361.117c.045.012.086.033.132.043l10.8 2.246a2.97 2.97 0 0 0 .614.064 3 3 0 0 0 .608-5.938zM23.275 56.39a2.558 2.558 0 0 0-.036-.246 3.023 3.023 0 0 0-.083-.353c-.013-.041-.015-.084-.029-.125l-3.6-10.258a3 3 0 1 0-5.662 1.984l.852 2.431a20.4 20.4 0 0 1-4.369-24.642 3 3 0 0 0-5.3-2.806 26.387 26.387 0 0 0 6.972 33.009l-3.155.685a3 3 0 1 0 1.271 5.863l10.8-2.342c.026-.006.051-.019.077-.025a3.02 3.02 0 0 0 .454-.15c.033-.014.067-.024.1-.039a3.024 3.024 0 0 0 .484-.284c.035-.025.066-.054.1-.08a2.929 2.929 0 0 0 .335-.309c.034-.035.067-.069.1-.106a2.98 2.98 0 0 0 .334-.472v-.005a3.089 3.089 0 0 0 .194-.42c.011-.028.013-.058.022-.087.029-.088.048-.178.069-.268a3.118 3.118 0 0 0 .066-.34c.01-.084.011-.168.013-.253a2.928 2.928 0 0 0-.009-.362z" data-name="layer1"/><path stroke-width="2" stroke-linejoin="round" stroke-linecap="round" stroke="#2e4369" fill="none" d="M25.411 15.563l-2.477-.663A20.56 20.56 0 0 1 28.4 14a20.439 20.439 0 0 1 16.082 7.994 3.073 3.073 0 0 0 2.365 1.227 2.948 2.948 0 0 0 1.847-.6 3.159 3.159 0 0 0 .514-4.342A26.384 26.384 0 0 0 28.4 8a26.484 26.484 0 0 0-8.549 1.559l1.438-3.519a2.959 2.959 0 0 0-1.671-3.862 3.007 3.007 0 0 0-3.9 1.689l-4.5 11.264c-.011.028-.014.063-.024.091a3.066 3.066 0 0 0-.106.385c-.016.073-.038.147-.048.22a3.043 3.043 0 0 0-.024.457c0 .052-.007.1 0 .157a2.978 2.978 0 0 0 .1.612c.01.034.027.066.038.1a3.013 3.013 0 0 0 .193.479c.007.013.009.027.016.04.032.059.077.106.112.163a3.108 3.108 0 0 0 .168.267c.016.02.036.035.053.055.057.069.122.129.184.192a3.022 3.022 0 0 0 .269.251c.065.051.134.095.2.141a2.983 2.983 0 0 0 .325.192c.074.037.149.068.226.1a2.982 2.982 0 0 0 .361.117c.045.012.086.033.132.043l10.8 2.246a2.97 2.97 0 0 0 .614.064 3 3 0 0 0 .608-5.938zM23.275 56.39a2.558 2.558 0 0 0-.036-.246 3.023 3.023 0 0 0-.083-.353c-.013-.041-.015-.084-.029-.125l-3.6-10.258a3 3 0 1 0-5.662 1.984l.852 2.431a20.4 20.4 0 0 1-4.369-24.642 3 3 0 0 0-5.3-2.806 26.387 26.387 0 0 0 6.972 33.009l-3.155.685a3 3 0 1 0 1.271 5.863l10.8-2.342c.026-.006.051-.019.077-.025a3.02 3.02 0 0 0 .454-.15c.033-.014.067-.024.1-.039a3.024 3.024 0 0 0 .484-.284c.035-.025.066-.054.1-.08a2.929 2.929 0 0 0 .335-.309c.034-.035.067-.069.1-.106a2.98 2.98 0 0 0 .334-.472v-.005a3.089 3.089 0 0 0 .194-.42c.011-.028.013-.058.022-.087.029-.088.048-.178.069-.268a3.118 3.118 0 0 0 .066-.34c.01-.084.011-.168.013-.253a2.928 2.928 0 0 0-.009-.362z" data-name="stroke"/><path fill="#bacae9" d="M61.848 36.274a2.989 2.989 0 0 0-.393-.508L53.806 27.8c-.019-.02-.043-.034-.062-.053a3.018 3.018 0 0 0-.366-.308c-.029-.021-.056-.044-.085-.063a3.029 3.029 0 0 0-.5-.264c-.04-.016-.08-.028-.121-.043a2.9 2.9 0 0 0-.438-.124c-.048-.01-.094-.021-.142-.028a2.985 2.985 0 0 0-.577-.038h-.007a3.11 3.11 0 0 0-.46.055c-.03.006-.056.02-.085.026-.091.021-.177.052-.265.081a3.178 3.178 0 0 0-.325.122c-.077.036-.149.079-.223.122a2.849 2.849 0 0 0-.3.194c-.067.049-.128.1-.191.159a3.019 3.019 0 0 0-.257.255c-.028.032-.064.056-.091.09l-6.856 8.436a3 3 0 0 0 4.658 3.781l1.625-2a20.4 20.4 0 0 1-18.7 16.627 3 3 0 0 0 .387 5.988A26.387 26.387 0 0 0 54.89 37.59l2.235 2.329a3 3 0 0 0 4.722-3.646z" data-name="layer1"/><path stroke-width="2" stroke-linejoin="round" stroke-linecap="round" stroke="#2e4369" fill="none" d="M61.848 36.274a2.989 2.989 0 0 0-.393-.508L53.806 27.8c-.019-.02-.043-.034-.062-.053a3.018 3.018 0 0 0-.366-.308c-.029-.021-.056-.044-.085-.063a3.029 3.029 0 0 0-.5-.264c-.04-.016-.08-.028-.121-.043a2.9 2.9 0 0 0-.438-.124c-.048-.01-.094-.021-.142-.028a2.985 2.985 0 0 0-.577-.038h-.007a3.11 3.11 0 0 0-.46.055c-.03.006-.056.02-.085.026-.091.021-.177.052-.265.081a3.178 3.178 0 0 0-.325.122c-.077.036-.149.079-.223.122a2.849 2.849 0 0 0-.3.194c-.067.049-.128.1-.191.159a3.019 3.019 0 0 0-.257.255c-.028.032-.064.056-.091.09l-6.856 8.436a3 3 0 0 0 4.658 3.781l1.625-2a20.4 20.4 0 0 1-18.7 16.627 3 3 0 0 0 .387 5.988A26.387 26.387 0 0 0 54.89 37.59l2.235 2.329a3 3 0 0 0 4.722-3.646z" data-name="stroke"/></svg>