<svg xmlns="http://www.w3.org/2000/svg" viewBox="0 0 64 64" aria-labelledby="title" aria-describedby="desc"><path data-name="layer2" d="M51 4.7L23 22.3c-4.1 2.4-12.4-1-5.2-5.4L21 15 41.1 2S45 9.4 51 4.7z" fill="#fff"/><path data-name="opacity" d="M49.5 5.6l1.5-1zM19.8 18.9L23 17 42.8 4.2A10.5 10.5 0 0 1 41.1 2L21 15l-3.2 2c-4.1 2.6-3.2 4.8-.8 5.7-.2-1.1.6-2.4 2.8-3.8z" fill="#000064" opacity=".15"/><path data-name="layer1" d="M15 20.4V58c0 4 5.5 5.2 10 2.6l26-16.5V4.7L23 22.3c-3 1.8-8.2.5-8-2.1" fill="#f27e7c"/><path data-name="opacity" d="M15 20.2V58c0 3.4 4 4.8 8 3.5V22.3c-3 1.8-8.2.5-8-2.1z" fill="#000064" opacity=".15"/><path data-name="stroke" d="M15 20.4V58c0 4 5.5 5.2 10 2.6l26-16.5V4.7L23 22.3c-4.1 2.4-12.4-1-5.2-5.4L21 15 41.1 2M25 28.9V52" fill="none" stroke="#2e4369" stroke-linecap="round" stroke-miterlimit="10" stroke-width="2" stroke-linejoin="round"/></svg>