<svg xmlns="http://www.w3.org/2000/svg" viewBox="0 0 64 64" aria-labelledby="title" aria-describedby="desc"><path data-name="layer1" fill="#fff" d="M2 23.9v35l18.8-17.5L2 23.9zm60 0v35L43.2 41.4 62 23.9z"/><path data-name="opacity" fill="#000028" opacity=".12" d="M20.8 41.4H2v17.5l18.8-17.5zm41.2 0H43.2L62 58.9V41.4z"/><path data-name="stroke" fill="none" stroke="#2e4369" stroke-linecap="round" stroke-linejoin="round" stroke-width="2" d="M2 23.9v35l18.8-17.5L2 23.9zm60 0v35L43.2 41.4 62 23.9zM32 22v40M16 17.2C16 8.8 23.2 2 32 2s16 6.8 16 15.2"/><path data-name="stroke" fill="none" stroke="#2e4369" stroke-linecap="round" stroke-linejoin="round" stroke-width="2" d="M54 8.3l-5.3 9.5-9.4-5.3"/></svg>