<svg viewBox="0 0 64 64" xmlns="http://www.w3.org/2000/svg" aria-labelledby="title" aria-describedby="desc"><path fill="#202020" d="M2 20v38h60V20zm36.614 30.313a13.692 13.692 0 0 1-6.577 1.673 13.866 13.866 0 0 1-9.856-4.092 14.12 14.12 0 0 1-4.044-10.018l-1.516 1.53a2 2 0 1 1-2.842-2.814L20 30.31l6.222 6.282a2 2 0 1 1-2.842 2.814l-1.229-1.24a10.075 10.075 0 0 0 2.871 6.913A9.845 9.845 0 0 0 36.694 46.8a2 2 0 0 1 1.92 3.51zm11.607-10.908L44 45.689l-6.22-6.283a2 2 0 1 1 2.842-2.814l1.228 1.24a10.08 10.08 0 0 0-2.87-6.91A9.855 9.855 0 0 0 27.308 29.2a2 2 0 1 1-1.916-3.512 13.877 13.877 0 0 1 16.431 2.424 14.121 14.121 0 0 1 4.042 10.008l1.512-1.527a2 2 0 1 1 2.844 2.813z" data-name="layer2"/><path fill="#202020" d="M2 6v10h60V6zm6 7a2 2 0 1 1 2-2 2 2 0 0 1-2 2zm6 0a2 2 0 1 1 2-2 2 2 0 0 1-2 2zm6 0a2 2 0 1 1 2-2 2 2 0 0 1-2 2z" data-name="layer1"/></svg>