<svg viewBox="0 0 64 64" xmlns="http://www.w3.org/2000/svg" aria-labelledby="title" aria-describedby="desc"><path fill="#8fa9d8" d="M54 48V6a2 2 0 0 0-2-2H4a2 2 0 0 0-2 2v44a2 2 0 0 0 2 2h46a4.3 4.3 0 0 0 4-4z" data-name="layer2"/><path opacity=".18" fill="#000064" d="M6 50V6a2 2 0 0 1 2-2H4a2 2 0 0 0-2 2v44a2 2 0 0 0 2 2h4a2 2 0 0 1-2-2z" data-name="opacity"/><circle fill="#44d88d" r="1" cy="12" cx="11" data-name="layer1"/><circle fill="#44d88d" r="1" cy="28" cx="11" data-name="layer1"/><circle fill="#44d88d" r="1" cy="44" cx="11" data-name="layer1"/><path d="M52.4 48l4.8 4.8L62 48m-24 0l-4.8-4.9-4.8 4.9" stroke-width="2" stroke-linejoin="round" stroke-linecap="round" stroke="#2e4369" fill="none" data-name="stroke"/><path stroke-width="2" stroke-linejoin="round" stroke-linecap="round" stroke="#2e4369" fill="none" d="M50.9 58.6a11.8 11.8 0 0 1-14.1-2.1A12.1 12.1 0 0 1 34 44m5.6-6.6a11.8 11.8 0 0 1 14.1 2.1A12.1 12.1 0 0 1 56.4 52" data-name="stroke"/><path stroke-width="2" stroke-linejoin="round" stroke-linecap="round" stroke="#2e4369" fill="none" d="M34 52H4a2 2 0 0 1-2-2V6a2 2 0 0 1 2-2h48a2 2 0 0 1 2 2v33.9M46 28H30m16-16H30" data-name="stroke"/><circle stroke-width="2" stroke-linejoin="round" stroke-linecap="round" stroke="#2e4369" fill="none" r="1" cy="12" cx="11" data-name="stroke"/><circle stroke-width="2" stroke-linejoin="round" stroke-linecap="round" stroke="#2e4369" fill="none" r="1" cy="28" cx="11" data-name="stroke"/><circle stroke-width="2" stroke-linejoin="round" stroke-linecap="round" stroke="#2e4369" fill="none" r="1" cy="44" cx="11" data-name="stroke"/><path d="M54 20H2m33.4 16H2" stroke-width="2" stroke-linejoin="round" stroke-linecap="round" stroke="#2e4369" fill="none" data-name="stroke"/></svg>