<svg xmlns="http://www.w3.org/2000/svg" viewBox="0 0 64 64" aria-labelledby="title" aria-describedby="desc"><path data-name="layer2" fill="#ebf5ff" d="M38 18V2H10v60h44V18H38z"/><path data-name="layer1" fill="#fff" d="M54 18L38 2v16h16z"/><path data-name="opacity" fill="#000064" opacity=".15" d="M33.1 2v23H54v-7H38V2h-4.9z"/><path data-name="stroke" fill="none" stroke="#2e4369" stroke-linecap="round" stroke-miterlimit="10" stroke-width="2" d="M10 2v60h44V18L38 2H10z" stroke-linejoin="round"/><path data-name="stroke" fill="none" stroke="#2e4369" stroke-linecap="round" stroke-miterlimit="10" stroke-width="2" d="M38 2v16h16M38 36l4 4 4-4m-20 0l-4-4-4 4" stroke-linejoin="round"/><path data-name="stroke" d="M36.7 44.8A9.8 9.8 0 0 1 25 43.1a10.1 10.1 0 0 1-2.3-10.4m4.6-5.5A9.8 9.8 0 0 1 39 28.9a10.1 10.1 0 0 1 2.3 10.4" fill="none" stroke="#2e4369" stroke-linecap="round" stroke-miterlimit="10" stroke-width="2" stroke-linejoin="round"/></svg>