<svg xmlns="http://www.w3.org/2000/svg" viewBox="0 0 64 64" aria-labelledby="title" aria-describedby="desc"><path data-name="layer1" d="M6.479 20.727L9.052 24.5A26.568 26.568 0 0 1 35 4a27.145 27.145 0 0 1 27 27 26.549 26.549 0 0 1-24 26.383V60h-6V48h6v3.321A20.513 20.513 0 0 0 56 31a21.138 21.138 0 0 0-21-21 20.555 20.555 0 0 0-20.19 16.259l4.574-4.215 4.065 4.412L10.966 37.96 2 24z" fill="#bacae9"/><path data-name="stroke" d="M6.479 20.727L9.052 24.5A26.568 26.568 0 0 1 35 4a27.145 27.145 0 0 1 27 27 26.549 26.549 0 0 1-24 26.383V60h-6V48h6v3.321A20.513 20.513 0 0 0 56 31a21.138 21.138 0 0 0-21-21 20.555 20.555 0 0 0-20.19 16.259l4.574-4.215 4.065 4.412L10.966 37.96 2 24z" fill="none" stroke="#2e4369" stroke-linecap="round" stroke-linejoin="round" stroke-width="2"/></svg>