<svg viewBox="0 0 64 64" xmlns="http://www.w3.org/2000/svg" aria-labelledby="title" aria-describedby="desc"><path fill="#7b8baf" d="M48 49V11c-.061-4-10.332-7.98-23-7.98C12.3 3.02 2 6.583 2 11v36c0 4.4 10.3 7.961 23 7.961C37 54.962 48 52 48 49z" data-name="layer1"/><ellipse opacity=".25" fill="#fff" ry="8" rx="23" cy="11.001" cx="25" data-name="opacity"/><path opacity=".18" fill="#000064" d="M2 11v36c0 3.156 5.307 5.883 13 7.171V18.207C7.307 16.913 2 14.172 2 11z" data-name="opacity"/><path opacity=".15" fill="#fff" d="M31 18.724v35.992a50.358 50.358 0 0 0 13-2.556V15.509a37.792 37.792 0 0 1-13 3.215z" data-name="opacity"/><ellipse stroke-width="2" stroke-linejoin="round" stroke-linecap="round" stroke="#2e4369" fill="none" ry="8" rx="23" cy="11" cx="25" data-name="stroke"/><path d="M48 37V10.961m0 12.058c0 4.4-10.3 7.961-23 7.961S2 27.416 2 23.019M24 42.98c-12.7 0-22-3.565-22-7.961" stroke-width="2" stroke-linejoin="round" stroke-linecap="round" stroke="#2e4369" fill="none" data-name="stroke"/><path stroke-width="2" stroke-linejoin="round" stroke-linecap="round" stroke="#2e4369" fill="none" d="M33.938 54.437a77.469 77.469 0 0 1-8.938.524C12.3 54.961 2 51.4 2 47V11m50.402 38l4.797 4.848L62 49" data-name="stroke"/><path d="M38.004 49l-4.801-4.848L28.402 49" stroke-width="2" stroke-linejoin="round" stroke-linecap="round" stroke="#2e4369" fill="none" data-name="stroke"/><path stroke-width="2" stroke-linejoin="round" stroke-linecap="round" stroke="#2e4369" fill="none" d="M50.856 59.558a11.8 11.8 0 0 1-14.056-2.07 12.088 12.088 0 0 1-2.789-12.516m5.54-6.531A11.8 11.8 0 0 1 53.6 40.515a12.086 12.086 0 0 1 2.793 12.516" data-name="stroke"/></svg>