<svg xmlns="http://www.w3.org/2000/svg" viewBox="0 0 64 64" aria-labelledby="title" aria-describedby="desc"><path data-name="layer3" fill="#a6b1c9" d="M2 6h52v12H2z"/><path data-name="layer2" fill="#fff" d="M34 50H2V18h52v32H34z"/><circle data-name="layer1" cx="8" cy="12" r="1" fill="#f27e7c"/><circle data-name="layer1" cx="15" cy="12" r="1" fill="#f27e7c"/><circle data-name="layer1" cx="22" cy="12" r="1" fill="#f27e7c"/><path data-name="opacity" fill="#000064" opacity=".15" d="M2 18h4v32H2zM2 6h4v12H2z"/><path data-name="stroke" fill="none" stroke="#2e4369" stroke-linecap="round" stroke-linejoin="round" stroke-width="2" d="M52.4 46l4.8 4.8L62 46"/><path data-name="stroke" d="M45.7 58a12 12 0 1 1 11.6-12 12.3 12.3 0 0 1-.7 4.2" fill="none" stroke="#2e4369" stroke-linecap="round" stroke-linejoin="round" stroke-width="2"/><circle data-name="stroke" cx="8" cy="12" r="1" fill="none" stroke="#2e4369" stroke-linecap="round" stroke-linejoin="round" stroke-width="2"/><circle data-name="stroke" cx="15" cy="12" r="1" fill="none" stroke="#2e4369" stroke-linecap="round" stroke-linejoin="round" stroke-width="2"/><circle data-name="stroke" cx="22" cy="12" r="1" fill="none" stroke="#2e4369" stroke-linecap="round" stroke-linejoin="round" stroke-width="2"/><path data-name="stroke" fill="none" stroke="#2e4369" stroke-linecap="round" stroke-linejoin="round" stroke-width="2" d="M2 6h52v12H2zm52 32V18M2 18v32h32"/></svg>