<svg viewBox="0 0 64 64" xmlns="http://www.w3.org/2000/svg" aria-labelledby="title" aria-describedby="desc"><path fill="#202020" d="M62.478 43.579a2 2 0 0 0-2.828.014l-1.273 1.285A13.659 13.659 0 1 0 44.726 59a2 2 0 0 0 0-4 10.006 10.006 0 1 1 9.656-10v.094l-1.484-1.5a2 2 0 1 0-2.844 2.813l6.219 6.284 6.223-6.283a2 2 0 0 0-.018-2.829z" data-name="layer3"/><path fill="#202020" d="M27.07 45a17.851 17.851 0 0 1 17.656-18 17.208 17.208 0 0 1 8.2 2.084V19h-52v30h26.6a18.248 18.248 0 0 1-.456-4z" data-name="layer2"/><path fill="#202020" d="M.929 5v10h52V5zM7 12a2 2 0 1 1 2-2 2 2 0 0 1-2 2zm6 0a2 2 0 1 1 2-2 2 2 0 0 1-2 2zm6 0a2 2 0 1 1 2-2 2 2 0 0 1-2 2z" data-name="layer1"/></svg>