<svg xmlns="http://www.w3.org/2000/svg" viewBox="0 0 64 64" aria-labelledby="title" aria-describedby="desc"><path data-name="layer1" d="M12.342 36.887a2.983 2.983 0 0 0 .332-.146c.06-.03.122-.051.179-.084a3.028 3.028 0 0 0 .43-.3c.007-.007.017-.012.025-.02l8.039-6.854a3 3 0 1 0-3.894-4.565l-2.611 2.226a17.685 17.685 0 0 1 29.597-7.964 3 3 0 0 0 4.243-4.244 23.704 23.704 0 0 0-39.7 10.817l-1.564-2.13a3 3 0 0 0-4.836 3.553l6.359 8.657c.008.01.02.02.028.032a3.09 3.09 0 0 0 .35.385c.015.014.027.031.042.044a3.018 3.018 0 0 0 .47.341c.044.027.094.046.142.07a2.991 2.991 0 0 0 .383.174c.064.023.13.037.194.055a3.037 3.037 0 0 0 .374.084c.03.004.058.016.089.02a3.111 3.111 0 0 0 .322.018l.02.002a3.115 3.115 0 0 0 .342-.02c.03-.003.056-.014.085-.018a2.881 2.881 0 0 0 .35-.077c.07-.018.142-.032.21-.056zM51.218 26.17a2.983 2.983 0 0 0-.332.146c-.06.03-.122.052-.179.084a3.028 3.028 0 0 0-.43.301c-.007.007-.017.012-.025.019l-8.039 6.855a3 3 0 1 0 3.894 4.565l2.611-2.227a17.685 17.685 0 0 1-29.598 7.964 3 3 0 0 0-4.242 4.244 23.704 23.704 0 0 0 39.7-10.816l1.564 2.13a3 3 0 0 0 4.836-3.554l-6.359-8.656c-.008-.011-.02-.02-.028-.032a3.09 3.09 0 0 0-.35-.385c-.015-.014-.027-.032-.042-.045a3.018 3.018 0 0 0-.47-.34c-.045-.028-.094-.047-.142-.071a2.991 2.991 0 0 0-.383-.173c-.064-.023-.13-.037-.194-.056a3.037 3.037 0 0 0-.374-.083c-.03-.004-.058-.016-.089-.02a3.111 3.111 0 0 0-.322-.018l-.02-.002a3.115 3.115 0 0 0-.342.02c-.03.002-.056.013-.085.018a2.881 2.881 0 0 0-.35.076c-.07.019-.142.033-.21.056z" fill="#202020"/></svg>