<svg viewBox="0 0 64 64" xmlns="http://www.w3.org/2000/svg" aria-labelledby="title" aria-describedby="desc"><path fill="#7b8baf" d="M49 49V11c-.061-4-10.332-7.98-23-7.98C13.3 3.02 3 6.582 3 11v36c0 4.4 10.3 7.961 23 7.961C38 54.961 49 52 49 49z" data-name="layer1"/><ellipse opacity=".25" fill="#fff" ry="8" rx="23" cy="11" cx="26" data-name="opacity"/><path opacity=".18" fill="#000064" d="M3 11v36c0 3.156 5.307 5.883 13 7.171V18.206C8.307 16.912 3 14.171 3 11z" data-name="opacity"/><path opacity=".15" fill="#fff" d="M32 18.723v35.958a50.455 50.455 0 0 0 7.371-1.2L45 50.859V15.508a37.791 37.791 0 0 1-13 3.215z" data-name="opacity"/><ellipse stroke-width="2" stroke-linejoin="round" stroke-linecap="round" stroke="#2e4369" fill="none" ry="8" rx="23" cy="11" cx="26" data-name="stroke"/><path d="M49 37V10.961m0 12.059c0 4.4-10.3 7.961-23 7.961S3 27.416 3 23.02m31.851 19.35a60.963 60.963 0 0 1-8.851.61c-12.7 0-23-3.565-23-7.961M51.402 49l4.797 4.848L61 49" stroke-width="2" stroke-linejoin="round" stroke-linecap="round" stroke="#2e4369" fill="none" data-name="stroke"/><path stroke-width="2" stroke-linejoin="round" stroke-linecap="round" stroke="#2e4369" fill="none" d="M44.656 61a12.005 12.005 0 1 1 11.657-12 12.282 12.282 0 0 1-.738 4.215" data-name="stroke"/><path stroke-width="2" stroke-linejoin="round" stroke-linecap="round" stroke="#2e4369" fill="none" d="M34.24 54.522a78.939 78.939 0 0 1-8.24.439C13.3 54.961 3 51.4 3 47V11" data-name="stroke"/></svg>