<svg xmlns="http://www.w3.org/2000/svg" viewBox="0 0 64 64" aria-labelledby="title" aria-describedby="desc"><path data-name="layer2" d="M36 30.5a6 6 0 0 1 7.9 0 2 2 0 0 0 2.6-3 10 10 0 0 0-13.2 0 2 2 0 0 0 2.6 3z" fill="#202020"/><path data-name="layer2" d="M51.6 21.3a18 18 0 0 0-23.4.1 2 2 0 1 0 2.6 3 14 14 0 0 1 18.2-.1 2 2 0 1 0 2.6-3.1zM46 35H34a2 2 0 0 0-2 2v24a2 2 0 0 0 2 2h12a2 2 0 0 0 2-2V37a2 2 0 0 0-2-2zm-4.6 9.4a2 2 0 1 1-2.8-2.8 2.1 2.1 0 0 1 2.8 0A2 2 0 0 1 42 43a2 2 0 0 1-.6 1.4z" fill="#202020"/><path data-name="layer1" d="M62 1H2a2 2 0 0 0-2 2v44a2 2 0 0 0 2 2h26v-4H4V5h56v40h-8v4h10a2 2 0 0 0 2-2V3a2 2 0 0 0-2-2z" fill="#202020"/></svg>