<svg xmlns="http://www.w3.org/2000/svg" viewBox="0 0 64 64" aria-labelledby="title" aria-describedby="desc"><circle data-name="layer3" cx="46" cy="46" r="16" fill="#ff607c"/><path data-name="layer1" d="M23.7 20h16.6a1.7 1.7 0 0 0 1.7-1.7V2H22v16.3a1.7 1.7 0 0 0 1.7 1.7z" fill="#ebf5ff"/><path data-name="layer2" d="M44 28v2.1h2a15.9 15.9 0 0 1 6 1.2V8.7L45.3 2H42v16.3a1.7 1.7 0 0 1-1.7 1.7H23.7a1.7 1.7 0 0 1-1.7-1.7V2H2v50h8V28z" fill="#7f95ad"/><path data-name="layer1" d="M44 30.1V28H10v24h21.2A16 16 0 0 1 44 30.1z" fill="#ebf5ff"/><path data-name="opacity" d="M37.7 32.3A16 16 0 0 0 25 48v1H6V2H2v50h29.2a16.1 16.1 0 0 1-.9-3 15.9 15.9 0 0 1 7.4-16.7z" fill="#000064" opacity=".15"/><path data-name="opacity" d="M46 30a16 16 0 0 0-12.5 6A16 16 0 0 1 56 58.5 16 16 0 0 0 46 30z" fill="#fff" opacity=".25"/><path data-name="stroke" fill="none" stroke="#2e4369" stroke-linecap="round" stroke-miterlimit="10" stroke-width="2" d="M31.2 52H2V2h43.3L52 8.7v22.5" stroke-linejoin="round"/><path data-name="stroke" fill="none" stroke="#2e4369" stroke-linecap="round" stroke-miterlimit="10" stroke-width="2" d="M44 30.1V28H10v24m24-42v4m8-12v16.3a1.7 1.7 0 0 1-1.7 1.7H23.7a1.7 1.7 0 0 1-1.7-1.7V2" stroke-linejoin="round"/><circle data-name="stroke" cx="46" cy="46" r="16" fill="none" stroke="#2e4369" stroke-linecap="round" stroke-miterlimit="10" stroke-width="2" stroke-linejoin="round"/><path data-name="stroke" fill="none" stroke="#2e4369" stroke-linecap="round" stroke-miterlimit="10" stroke-width="2" d="M52 40L40 52m0-12l12 12" stroke-linejoin="round"/></svg>