<svg xmlns="http://www.w3.org/2000/svg" viewBox="0 0 64 64" aria-labelledby="title" aria-describedby="desc"><path data-name="layer2" d="M40.6 47.7c-8.1-1.6-8.6-3.6-8.6-5.2v-2a14.1 14.1 0 0 0 4-7c2.5 0 4-3 4-6 0-.8 0-4-2-4 5-14.5-9.6-20-20-13-4.4 0-5.6 6.6-4 13-2 0-2 3.2-2 4 0 3 1.5 6 4 6a14.2 14.2 0 0 0 4 7v2c0 1.6-.5 3.6-8.6 5.2S2 56.5 2 56.5h48s0-6.9-9.4-8.8z" fill="none" stroke="#202020" stroke-miterlimit="10" stroke-width="2" stroke-linejoin="round" stroke-linecap="round"/><path data-name="layer1" fill="none" stroke="#202020" stroke-miterlimit="10" stroke-width="2" d="M46 8.5h16" stroke-linejoin="round" stroke-linecap="round"/></svg>