<svg xmlns="http://www.w3.org/2000/svg" viewBox="0 0 64 64" aria-labelledby="title" aria-describedby="desc"><path data-name="layer2" d="M45.1 30A22 22 0 1 0 18 45.1L24 58l6-12.8A16 16 0 0 1 45.1 30zM24 34a10 10 0 1 1 10-10 10 10 0 0 1-10 10z" fill="#c3d6f9"/><path data-name="opacity" d="M6 23c0-9.2 4.6-17 12.6-20.3a22 22 0 0 0-.6 42.4L24 58l-3-13.9C11.8 41.5 6 33.1 6 23z" fill="#000032" opacity=".2"/><path data-name="layer1" d="M46 30h-.9A16 16 0 0 0 30 45.1v.9a16 16 0 1 0 16-16z" fill="#f26161"/><path data-name="opacity" d="M30 45.1a16 16 0 0 1 6.9-12.3A16 16 0 0 0 26 47.1v.9a16 16 0 0 0 .6 4.4l3.4-7.3z" fill="#000032" opacity=".2"/><path data-name="stroke" d="M45.2 30A22 22 0 1 0 18 45.1L24 58l6-12.8" fill="none" stroke="#2e4369" stroke-linecap="round" stroke-linejoin="round" stroke-width="2"/><circle data-name="stroke" cx="46" cy="46" r="16" fill="none" stroke="#2e4369" stroke-linecap="round" stroke-linejoin="round" stroke-width="2"/><path data-name="stroke" fill="none" stroke="#2e4369" stroke-linecap="round" stroke-linejoin="round" stroke-width="2" d="M38 46h16"/><circle data-name="stroke" cx="24" cy="24" r="10" fill="none" stroke="#2e4369" stroke-linecap="round" stroke-linejoin="round" stroke-width="2"/></svg>