<svg xmlns="http://www.w3.org/2000/svg" viewBox="0 0 64 64" aria-labelledby="title" aria-describedby="desc"><path data-name="layer2" d="M25.9 46a20 20 0 0 1 15.7-19.5A27.5 27.5 0 0 0 42 22a20 20 0 1 0-40 0c0 18 20 38 20 38s2.4-2.4 5.5-6.2a19.9 19.9 0 0 1-1.6-7.8zM22 28a6 6 0 1 1 6-6 6 6 0 0 1-6 6z" fill="#202020"/><path data-name="layer1" d="M46 30a16 16 0 1 0 16 16 16 16 0 0 0-16-16zm7.4 20.6a2 2 0 1 1-2.8 2.8L46 48.8l-4.6 4.6a2 2 0 1 1-2.8-2.8l4.6-4.6-4.6-4.6a2 2 0 0 1 2.8-2.8l4.6 4.6 4.6-4.6a2 2 0 0 1 2.8 2.8L48.8 46z" fill="#202020"/></svg>