<svg xmlns="http://www.w3.org/2000/svg" viewBox="0 0 64 64" aria-labelledby="title" aria-describedby="desc"><path data-name="layer3" d="M62 2H2v44h30V36a2 2 0 0 1 2-2h12a2 2 0 0 1 2 2v10h14z" fill="#7b8baf"/><path data-name="layer2" d="M46 34H34a2 2 0 0 0-2 2v24a2 2 0 0 0 2 2h12a2 2 0 0 0 2-2V36a2 2 0 0 0-2-2z" fill="#a6bbe0"/><path data-name="opacity" d="M36 58V34h-2a2 2 0 0 0-2 2v24a2 2 0 0 0 2 2h12a2 2 0 0 0 2-2H38a2 2 0 0 1-2-2z" fill="#000064" opacity=".14"/><path data-name="opacity" d="M28 38v8h4V36h-2a2 2 0 0 0-2 2z" fill="#000064" opacity=".2"/><circle data-name="layer1" cx="40" cy="42" r="1" fill="#f27e7c"/><path data-name="opacity" fill="#fff" opacity=".15" d="M2 2v33L35 2H2zm60 0H46L2 46h17L62 3V2z"/><path data-name="stroke" fill="none" stroke="#2e4369" stroke-linecap="round" stroke-linejoin="round" stroke-width="2" d="M32 46H2V2h60v44H48"/><rect data-name="stroke" x="32" y="34" width="16" height="28" rx="2" ry="2" fill="none" stroke="#2e4369" stroke-linecap="round" stroke-linejoin="round" stroke-width="2"/><path data-name="stroke" d="M34.7 28a8 8 0 0 1 10.6 0m-15.7-6.1a16 16 0 0 1 20.8-.1" fill="none" stroke="#2e4369" stroke-linecap="round" stroke-linejoin="round" stroke-width="2"/><circle data-name="stroke" cx="40" cy="42" r="1" fill="none" stroke="#2e4369" stroke-linecap="round" stroke-linejoin="round" stroke-width="2"/></svg>