<svg xmlns="http://www.w3.org/2000/svg" viewBox="0 0 64 64" aria-labelledby="title" aria-describedby="desc"><path data-name="layer2" d="M30 46a16 16 0 0 1 16-16V2H2v56h33.4A15.9 15.9 0 0 1 30 46z" fill="#ebf5ff"/><circle data-name="layer1" cx="46" cy="46" r="16" fill="#f27e7c"/><path data-name="opacity" d="M33.6 56.1l-.6-.7a15.9 15.9 0 0 1 4.7-23A16 16 0 0 0 26.6 55H6V2H2v56h33.4l-1.3-1.3z" fill="#000064" opacity=".1"/><path data-name="opacity" d="M46 30a16 16 0 0 0-12.5 6A16 16 0 0 1 56 58.5 16 16 0 0 0 46 30z" fill="#fff" opacity=".25"/><path data-name="stroke" fill="none" stroke="#2e4369" stroke-linecap="round" stroke-miterlimit="10" stroke-width="2" d="M35.4 58H2V2h44v28M12 2v8m-2 0h4m10-8v8m-2 0h4m10-8v8m-2 0h4" stroke-linejoin="round"/><path data-name="stroke" d="M62 46a16 16 0 1 1-16-16 16 16 0 0 1 16 16zm-24 0h16" fill="none" stroke="#2e4369" stroke-linecap="round" stroke-miterlimit="10" stroke-width="2" stroke-linejoin="round"/></svg>