<svg xmlns="http://www.w3.org/2000/svg" viewBox="0 0 64 64" aria-labelledby="title" aria-describedby="desc"><path data-name="layer2" d="M39.998 39.29A7.987 7.987 0 0 0 46 42h8a8 8 0 0 0 8-8v-4a8 8 0 0 0-8-8h-8a7.999 7.999 0 0 0-6.93 4l3.32 2.276a4.002 4.002 0 0 1 3.611-2.277H54a4 4 0 0 1 4 4v3.998a4 4 0 0 1-4 4h-7.999a3.996 3.996 0 0 1-3.42-1.926zm-18.683-3.056a3.994 3.994 0 0 1-3.316 1.763H10a4 4 0 0 1-4-4V30a4 4 0 0 1 4-4h7.998a3.998 3.998 0 0 1 3.314 1.76L24.929 26A7.998 7.998 0 0 0 18 22h-8a8 8 0 0 0-8 8v4a8 8 0 0 0 8 8h8a7.984 7.984 0 0 0 6.002-2.71z" fill="#202020"/><path data-name="layer1" d="M23 19a1.994 1.994 0 0 1-1.414-.586l-9-9a2 2 0 0 1 2.828-2.828l9 9A2 2 0 0 1 23 19zm18 0a2 2 0 0 1-1.414-3.415l9-8.999a2 2 0 0 1 2.828 2.829l-9 8.999A1.994 1.994 0 0 1 41 19zm-9-1a2 2 0 0 1-2-2V2a2 2 0 0 1 4 0v14a2 2 0 0 1-2 2zM14 58a2 2 0 0 1-1.414-3.415l9-9a2 2 0 0 1 2.828 2.829l-9 9A1.993 1.993 0 0 1 14 58zm36 0a1.993 1.993 0 0 1-1.414-.586l-9-9a2 2 0 1 1 2.828-2.829l9 9A2 2 0 0 1 50 58zm-18 6a2 2 0 0 1-2-2V48a2 2 0 0 1 4 0v14a2 2 0 0 1-2 2z" fill="#202020"/></svg>