<svg xmlns="http://www.w3.org/2000/svg" viewBox="0 0 64 64" aria-labelledby="title" aria-describedby="desc"><path data-name="layer2" d="M42 30a16 16 0 1 0 16 16 16 16 0 0 0-16-16zm7.4 20.6a2 2 0 1 1-2.8 2.8L42 48.8l-4.6 4.6a2 2 0 0 1-2.8-2.8l4.6-4.6-4.6-4.6a2 2 0 0 1 2.8-2.8l4.6 4.6 4.6-4.6a2 2 0 0 1 2.8 2.8L44.8 46z" fill="#202020"/><ellipse data-name="layer1" cx="29" cy="10" rx="23" ry="8" fill="#202020"/><path data-name="layer1" d="M29 29h2.6a19.7 19.7 0 0 1 14.7-2.4C49.9 25.3 52 24 52 23v-6.2C47 20.3 38 22 29 22s-18-1.7-23-5.2V23c0 2 9.4 6 23 6zm-7 17c0-.5 0-.9.1-1.4C15.2 43.9 9 42 6 39.2V46c0 3.8 7.5 6.9 17.6 7.8A19.9 19.9 0 0 1 22 46zm.7-5.3a20 20 0 0 1 4.1-7.7c-8.6-.3-17.1-2.3-20.8-5.8V35c0 1.7 6.6 4.7 16.7 5.7z" fill="#202020"/></svg>