<svg xmlns="http://www.w3.org/2000/svg" viewBox="0 0 64 64" aria-labelledby="title" aria-describedby="desc"><path data-name="layer1" d="M50.92 5.754A30.828 30.828 0 0 0 37.441 0v20.391a36.538 36.538 0 0 0 5.292 19.281 32.729 32.729 0 0 0 13.779 12.921A31.647 31.647 0 0 0 64 31.8a32.656 32.656 0 0 0-3.495-14.74A33.733 33.733 0 0 0 50.92 5.754zM21.267 39.672a36.8 36.8 0 0 0 5.292-19.281V0A30.714 30.714 0 0 0 12.98 5.754 32.431 32.431 0 0 0 0 31.8a31.457 31.457 0 0 0 7.488 20.793 32.117 32.117 0 0 0 13.779-12.921zM37.342 51.18a29.728 29.728 0 0 1-5.492-11.306 29 29 0 0 1-5.491 11.306 39.463 39.463 0 0 1-9.785 8.883A31.052 31.052 0 0 0 31.85 64a30.778 30.778 0 0 0 15.276-3.937 39.463 39.463 0 0 1-9.784-8.883z" fill="#005eac"/></svg>