<svg xmlns="http://www.w3.org/2000/svg" viewBox="0 0 64 64" aria-labelledby="title" aria-describedby="desc"><path data-name="layer2" d="M49.738 7.394A28.9 28.9 0 0 0 37.1 2v19.117a34.254 34.254 0 0 0 4.961 18.076A30.684 30.684 0 0 0 54.98 51.306 29.669 29.669 0 0 0 62 31.811a30.615 30.615 0 0 0-3.276-13.817 31.625 31.625 0 0 0-8.986-10.6z" fill="none" stroke="#202020" stroke-linecap="round" stroke-miterlimit="10" stroke-width="2" stroke-linejoin="round"/><path data-name="layer1" d="M21.938 39.192A34.5 34.5 0 0 0 26.9 21.117V2a28.794 28.794 0 0 0-12.73 5.394A30.4 30.4 0 0 0 2 31.811a29.491 29.491 0 0 0 7.02 19.5 30.109 30.109 0 0 0 12.918-12.119zm15.07 10.789a27.87 27.87 0 0 1-5.148-10.6 27.186 27.186 0 0 1-5.148 10.6 37 37 0 0 1-9.173 8.328A29.111 29.111 0 0 0 31.86 62a28.854 28.854 0 0 0 14.321-3.691 37 37 0 0 1-9.173-8.328z" fill="none" stroke="#202020" stroke-linecap="round" stroke-miterlimit="10" stroke-width="2" stroke-linejoin="round"/></svg>