<svg xmlns="http://www.w3.org/2000/svg" viewBox="0 0 64 64" aria-labelledby="title" aria-describedby="desc"><path data-name="layer2" d="M8 18h35.715l-5.635 4.695a3 3 0 1 0 3.84 4.61l14.765-12.303L41.921 2.696a3 3 0 1 0-3.842 4.609l5.636 4.697L5 12a3 3 0 0 0-3 3v21a3 3 0 0 0 6 0z" fill="none" stroke="#202020" stroke-miterlimit="10" stroke-width="2" stroke-linejoin="round" stroke-linecap="round"/><path data-name="layer1" d="M59 25a3 3 0 0 0-3 3v18H20.286l5.634-4.695a3 3 0 1 0-3.84-4.61L7.314 49 22.08 61.305a3 3 0 1 0 3.84-4.61L20.286 52H59a3 3 0 0 0 3-3V28a3 3 0 0 0-3-3z" fill="none" stroke="#202020" stroke-miterlimit="10" stroke-width="2" stroke-linejoin="round" stroke-linecap="round"/></svg>