<svg xmlns="http://www.w3.org/2000/svg" viewBox="0 0 64 64" aria-labelledby="title" aria-describedby="desc"><path data-name="layer1" fill="#bacae9" d="M8 17h35.599l-5.44 4.39L42 26l15-12L42 2l-3.842 4.609 5.441 4.393L2 11v27h6V17zm54 9h-6v21H20.402l5.439-4.391L22 38 7 50l15 12 3.841-4.609L20.402 53H62V26z"/><path data-name="stroke" fill="none" stroke="#2e4369" stroke-linecap="round" stroke-linejoin="round" stroke-width="2" d="M8 17h35.599l-5.44 4.39L42 26l15-12L42 2l-3.842 4.609 5.441 4.393L2 11v27h6V17zm54 9h-6v21H20.402l5.439-4.391L22 38 7 50l15 12 3.841-4.609L20.402 53H62V26z"/></svg>