<svg xmlns="http://www.w3.org/2000/svg" viewBox="0 0 64 64" aria-labelledby="title" aria-describedby="desc"><path data-name="layer3" fill="#bacae9" d="M2 2h14v14H2zm0 46h14v14H2zm0-23h14v14H2zM25 2h14v14H25z"/><path data-name="layer1" fill="#bae8ce" d="M27 50h10v10H27zm-1-24h12v12H26z"/><path data-name="layer3" fill="#bacae9" d="M48 2h14v14H48z"/><path data-name="layer2" fill="#e5baba" d="M51 51h8v8h-8z"/><path data-name="layer1" fill="#bae8ce" d="M50 27h10v10H50z"/><path data-name="stroke" fill="none" stroke="#2e4369" stroke-linecap="round" stroke-linejoin="round" stroke-width="2" d="M2 2h14v14H2zm0 46h14v14H2zm0-23h14v14H2zM25 2h14v14H25zm2 48h10v10H27zm-1-24h12v12H26zM48 2h14v14H48zm3 49h8v8h-8zm-1-24h10v10H50z"/></svg>