<svg xmlns="http://www.w3.org/2000/svg" viewBox="0 0 64 64" aria-labelledby="title" aria-describedby="desc"><path data-name="layer1" d="M60.69 19.422a2.998 2.998 0 0 0-4.168.788l-2.484 3.642A26.717 26.717 0 0 0 28 4 25.758 25.758 0 0 0 2 30.014a26.442 26.442 0 0 0 24 26.301V57a3 3 0 0 0 6 0v-7a3 3 0 0 0-6 0v.275A20.43 20.43 0 0 1 8 30.014 19.753 19.753 0 0 1 28 10a20.688 20.688 0 0 1 20.245 15.467l-4.313-3.973a3 3 0 0 0-4.065 4.412l9.749 8.983c.013.012.028.02.042.032.07.062.15.116.226.172s.151.115.233.164c.078.046.162.083.245.122a2.967 2.967 0 0 0 .274.121c.081.029.166.05.25.071a3.033 3.033 0 0 0 .32.07c.034.006.065.018.1.022.053.006.104 0 .156.002.062.004.124.018.186.018.07 0 .14-.007.21-.012.028-.002.056-.002.083-.005.017-.002.033-.001.049-.003.059-.007.113-.028.172-.039a2.974 2.974 0 0 0 .397-.089c.08-.026.153-.061.23-.093a3.07 3.07 0 0 0 .324-.151c.078-.044.15-.095.224-.145a3.03 3.03 0 0 0 .272-.207c.068-.059.13-.12.192-.185a2.922 2.922 0 0 0 .232-.271c.028-.039.067-.07.094-.11l7.351-10.782a3 3 0 0 0-.788-4.17z" fill="#bacae9"/><path data-name="stroke" d="M60.69 19.422a2.998 2.998 0 0 0-4.168.788l-2.484 3.642A26.717 26.717 0 0 0 28 4 25.758 25.758 0 0 0 2 30.014a26.442 26.442 0 0 0 24 26.301V57a3 3 0 0 0 6 0v-7a3 3 0 0 0-6 0v.275A20.43 20.43 0 0 1 8 30.014 19.753 19.753 0 0 1 28 10a20.688 20.688 0 0 1 20.245 15.467l-4.313-3.973a3 3 0 0 0-4.065 4.412l9.749 8.983c.013.012.028.02.042.032.07.062.15.116.226.172s.151.115.233.164c.078.046.162.083.245.122a2.967 2.967 0 0 0 .274.121c.081.029.166.05.25.071a3.033 3.033 0 0 0 .32.07c.034.006.065.018.1.022.053.006.104 0 .156.002.062.004.124.018.186.018.07 0 .14-.007.21-.012.028-.002.056-.002.083-.005.017-.002.033-.001.049-.003.059-.007.113-.028.172-.039a2.974 2.974 0 0 0 .397-.089c.08-.026.153-.061.23-.093a3.07 3.07 0 0 0 .324-.151c.078-.044.15-.095.224-.145a3.03 3.03 0 0 0 .272-.207c.068-.059.13-.12.192-.185a2.922 2.922 0 0 0 .232-.271c.028-.039.067-.07.094-.11l7.351-10.782a3 3 0 0 0-.788-4.17z" fill="none" stroke="#2e4369" stroke-linecap="round" stroke-linejoin="round" stroke-width="2"/></svg>