<svg xmlns="http://www.w3.org/2000/svg" viewBox="0 0 64 64" aria-labelledby="title" aria-describedby="desc"><path data-name="layer3" fill="#a6b1c9" d="M2 17h50v12H2zM12 5h50v12H12z"/><path data-name="layer1" fill="#fff" d="M2 29v30h50V29"/><circle data-name="layer2" cx="8" cy="23" r="1" fill="#f27e7c"/><circle data-name="layer2" cx="15" cy="23" r="1" fill="#f27e7c"/><circle data-name="layer2" cx="22" cy="23" r="1" fill="#f27e7c"/><circle data-name="layer2" cx="18" cy="11" r="1" fill="#f27e7c"/><circle data-name="layer2" cx="25" cy="11" r="1" fill="#f27e7c"/><circle data-name="layer2" cx="32" cy="11" r="1" fill="#f27e7c"/><path data-name="layer1" fill="#fff" d="M52 17h10v30H52z"/><path data-name="opacity" fill="#000064" opacity=".1" d="M12 5v12h40v30h10V5H12z"/><path data-name="stroke" fill="none" stroke="#2e4369" stroke-linecap="round" stroke-linejoin="round" stroke-width="2" d="M2 17h50v12H2zm0 12v30h50V29"/><circle data-name="stroke" cx="8" cy="23" r="1" fill="none" stroke="#2e4369" stroke-linecap="round" stroke-linejoin="round" stroke-width="2"/><circle data-name="stroke" cx="15" cy="23" r="1" fill="none" stroke="#2e4369" stroke-linecap="round" stroke-linejoin="round" stroke-width="2"/><circle data-name="stroke" cx="22" cy="23" r="1" fill="none" stroke="#2e4369" stroke-linecap="round" stroke-linejoin="round" stroke-width="2"/><circle data-name="stroke" cx="18" cy="11" r="1" fill="none" stroke="#2e4369" stroke-linecap="round" stroke-linejoin="round" stroke-width="2"/><circle data-name="stroke" cx="25" cy="11" r="1" fill="none" stroke="#2e4369" stroke-linecap="round" stroke-linejoin="round" stroke-width="2"/><circle data-name="stroke" cx="32" cy="11" r="1" fill="none" stroke="#2e4369" stroke-linecap="round" stroke-linejoin="round" stroke-width="2"/><path data-name="stroke" fill="none" stroke="#2e4369" stroke-linecap="round" stroke-linejoin="round" stroke-width="2" d="M52 17h10V5H12v12m40 30h10V17"/></svg>