<svg xmlns="http://www.w3.org/2000/svg" viewBox="0 0 64 64" aria-labelledby="title" aria-describedby="desc"><path data-name="layer1" d="M52.5 15.6c0-5.5-3.6-13.7-8-13.7s-8 8.1-8 13.7 2.5 8.1 6 9l-1 33.5c0 3.2 1.9 4 3 4s3.2-.6 3-4l-1-33.5c3.4-.9 6-4.3 6-9zm-28-13.4h-12l-1 20c0 3.2 2.1 5.2 5 5.8v32.2a2 2 0 0 0 4 0V28c2.9-.6 5-2.6 5-5.8z" fill="#bacae8"/><path data-name="opacity" d="M44.5 1.9A5 5 0 0 0 41 3.7h.5c4.4 0 8 8.1 8 13.7a9.8 9.8 0 0 1-3 7.4c3.4-1 6-4.4 6-9s-3.6-13.9-8-13.9z" fill="#101129" opacity=".25"/><path data-name="stroke" fill="none" stroke="#2f446a" stroke-linecap="round" stroke-linejoin="round" stroke-width="2" d="M16.5 17.1v-15m36 13.4c0-5.5-3.6-13.7-8-13.7s-8 8.1-8 13.7 2.5 8.1 6 9l-1 33.5c0 3.2 1.9 4 3 4s3.2-.6 3-4l-1-33.5c3.4-.9 6-4.4 6-9zm-32-13.4v15m4-15h-12l-1 20c0 3.2 2.1 5.2 5 5.8v32.2a2 2 0 1 0 4 0V27.9c2.9-.6 5-2.6 5-5.8z"/></svg>