<svg xmlns="http://www.w3.org/2000/svg" viewBox="0 0 64 64" aria-labelledby="title" aria-describedby="desc"><path data-name="layer2" d="M52.5 15.5c0-5.5-3.6-13.7-8-13.7s-8 8.1-8 13.7 2.5 8.1 6 9l-1 33.5c0 3.2 1.9 4 3 4s3.2-.6 3-4l-1-33.5c3.4-.9 6-4.3 6-9z" fill="none" stroke="#202020" stroke-linecap="round" stroke-linejoin="round" stroke-width="2"/><path data-name="layer1" d="M24.5 2.1h-12l-1 20c0 3.2 2.1 5.2 5 5.8v32.2a2 2 0 0 0 4 0V27.9c2.9-.6 5-2.6 5-5.8z" fill="none" stroke="#202020" stroke-linecap="round" stroke-linejoin="round" stroke-width="2"/></svg>