<svg xmlns="http://www.w3.org/2000/svg" viewBox="0 0 64 64" aria-labelledby="title" aria-describedby="desc"><path data-name="layer1" fill="#575f76" d="M2 22h60v30H2z"/><path data-name="layer4" fill="#99afbf" d="M62 12H20v4H2v6h60V12z"/><circle data-name="layer4" cx="32" cy="34" r="12" fill="#99afbf"/><path data-name="opacity" d="M32 46a12 12 0 0 1-10.2-18.2 12 12 0 1 0 16.4 16.4A11.9 11.9 0 0 1 32 46z" fill="#000064" opacity=".2"/><circle data-name="layer3" cx="32" cy="34" r="4" fill="#78d1f4"/><path data-name="layer2" d="M55 30a2 2 0 0 1-2 2h-2a2 2 0 0 1-2-2 2 2 0 0 1 2-2h2a2 2 0 0 1 2 2z" fill="#c3d6e0"/><path data-name="layer1" fill="#575f76" d="M5 10h10v6H5z"/><path data-name="stroke" fill="none" stroke="#2e4369" stroke-linecap="round" stroke-miterlimit="10" stroke-width="2" d="M5 16v-6h10v6" stroke-linejoin="round"/><path data-name="stroke" fill="none" stroke="#2e4369" stroke-linecap="round" stroke-miterlimit="10" stroke-width="2" d="M20 12v4H2v36h60V12H20zM2 22h30m0 0h30" stroke-linejoin="round"/><circle data-name="stroke" cx="32" cy="34" r="12" fill="none" stroke="#2e4369" stroke-linecap="round" stroke-miterlimit="10" stroke-width="2" stroke-linejoin="round"/><circle data-name="stroke" cx="32" cy="34" r="4" fill="none" stroke="#2e4369" stroke-linecap="round" stroke-miterlimit="10" stroke-width="2" stroke-linejoin="round"/><path data-name="stroke" d="M55 30a2 2 0 0 1-2 2h-2a2 2 0 0 1-2-2 2 2 0 0 1 2-2h2a2 2 0 0 1 2 2z" fill="none" stroke="#2e4369" stroke-linecap="round" stroke-miterlimit="10" stroke-width="2" stroke-linejoin="round"/></svg>