<svg xmlns="http://www.w3.org/2000/svg" viewBox="0 0 64 64" aria-labelledby="title" aria-describedby="desc"><path data-name="layer1" d="M62 0H2a2 2 0 0 0-2 2v60a2 2 0 0 0 2 2h60a2 2 0 0 0 2-2V2a2 2 0 0 0-2-2zM10 10l43.988-.004v2L10 12a1 1 0 0 1 0-2zm43.988 44.004L16 54a1 1 0 0 1 0-2l37.988.004a1 1 0 0 1 0 2zm0-6.001H23a1 1 0 0 1 0-2h30.988a1 1 0 0 1 0 2zm0-6.001L18 42a1 1 0 0 1 0-2l35.988.002a1 1 0 0 1 0 2zm0-6.002H9a1 1 0 0 1 0-2h44.988a1 1 0 0 1 0 2zm0-6H17a1 1 0 0 1 0-2h36.988a1 1 0 0 1 0 2zm0-6.002H23a1 1 0 0 1 0-2h30.988a1 1 0 0 1 0 2zm0-6.001L19 18a1 1 0 0 1 0-2l34.988-.003a1 1 0 0 1 0 2z" fill="#202020"/></svg>