<svg xmlns="http://www.w3.org/2000/svg" viewBox="0 0 64 64" aria-labelledby="title" aria-describedby="desc"><path data-name="layer2" fill="#8fa9d8" d="M2 2h20v60H2z"/><path data-name="layer1" fill="#eaf7ff" d="M2 10h12v28H2z"/><circle data-name="opacity" cx="12" cy="50" r="4" fill="#000064" opacity=".4"/><path data-name="opacity" fill="#000064" opacity=".15" d="M2 2h6v60H2z"/><path data-name="layer2" fill="#8fa9d8" d="M22 2h20v60H22z"/><path data-name="layer1" fill="#eaf7ff" d="M22 10h12v28H22z"/><circle data-name="opacity" cx="32" cy="50" r="4" fill="#000064" opacity=".4"/><path data-name="opacity" fill="#000064" opacity=".15" d="M22 2h6v60h-6z"/><path data-name="layer2" fill="#8fa9d8" d="M42 2h20v60H42z"/><path data-name="layer1" fill="#eaf7ff" d="M42 10h12v28H42z"/><circle data-name="opacity" cx="52" cy="50" r="4" fill="#000064" opacity=".4"/><path data-name="opacity" fill="#000064" opacity=".15" d="M42 2h6v60h-6z"/><path data-name="stroke" fill="none" stroke="#2e4369" stroke-linecap="round" stroke-miterlimit="10" stroke-width="2" d="M42 2h20v60H42" stroke-linejoin="round"/><path data-name="stroke" fill="none" stroke="#2e4369" stroke-linecap="round" stroke-miterlimit="10" stroke-width="2" d="M42 10h12v28H42" stroke-linejoin="round"/><circle data-name="stroke" cx="52" cy="50" r="4" fill="none" stroke="#2e4369" stroke-linecap="round" stroke-miterlimit="10" stroke-width="2" stroke-linejoin="round"/><path data-name="stroke" fill="none" stroke="#2e4369" stroke-linecap="round" stroke-miterlimit="10" stroke-width="2" d="M2 2h20v60H2z" stroke-linejoin="round"/><path data-name="stroke" fill="none" stroke="#2e4369" stroke-linecap="round" stroke-miterlimit="10" stroke-width="2" d="M2 10h12v28H2" stroke-linejoin="round"/><circle data-name="stroke" cx="12" cy="50" r="4" fill="none" stroke="#2e4369" stroke-linecap="round" stroke-miterlimit="10" stroke-width="2" stroke-linejoin="round"/><path data-name="stroke" fill="none" stroke="#2e4369" stroke-linecap="round" stroke-miterlimit="10" stroke-width="2" d="M22 2h20v60H22" stroke-linejoin="round"/><path data-name="stroke" fill="none" stroke="#2e4369" stroke-linecap="round" stroke-miterlimit="10" stroke-width="2" d="M22 10h12v28H22" stroke-linejoin="round"/><circle data-name="stroke" cx="32" cy="50" r="4" fill="none" stroke="#2e4369" stroke-linecap="round" stroke-miterlimit="10" stroke-width="2" stroke-linejoin="round"/></svg>