<svg xmlns="http://www.w3.org/2000/svg" viewBox="0 0 64 64" aria-labelledby="title" aria-describedby="desc"><path data-name="layer2" d="M0 1v6h13v33H0v23h19V1zm9 54a4 4 0 1 1 4-4 4 4 0 0 1-4 4z" fill="#202020"/><path data-name="layer2" fill="#202020" d="M0 11h9v25H0zM23 1v6h13v33H23v23h19V1zm9 54a4 4 0 1 1 4-4 4 4 0 0 1-4 4z"/><path data-name="layer2" fill="#202020" d="M23 11h9v25h-9z"/><path data-name="layer1" d="M46 1v6h13v33H46v23h18V1zm9 54a4 4 0 1 1 4-4 4 4 0 0 1-4 4z" fill="#202020"/><path data-name="layer1" fill="#202020" d="M46 11h9v25h-9z"/></svg>