<svg viewBox="0 0 64 64" xmlns="http://www.w3.org/2000/svg" aria-labelledby="title" aria-describedby="desc"><path fill="#fff4e8" d="M54.867 24.7l2.326-2.328a2.94 2.94 0 0 0 3.939-4.355c-1.523-1.521-2.088-1.045-2.6-1.562-.709-.707-.3-1.342-1.564-2.6a2.947 2.947 0 0 0-4.168 4.159c.072.072.16.115.238.182l-2.821 2.814" data-name="layer3"/><path fill="#faa85e" d="M34.291 27.818a10.212 10.212 0 0 1 .787-.705c4.7-3.914 11.832-3.775 13.115-5.061l.34-.34a2.392 2.392 0 0 1 1.2-.646l.019-.057C44 10.98 16 2.98 3.379 30.135c-3.592 8 2.627 14.875 10.627 14.875h27.406a10.069 10.069 0 0 1-7.121-17.191z" data-name="layer2"/><path opacity=".25" fill="#fff" d="M3.377 32.135c12-25.828 37.906-19.85 45.357-10.572a2.4 2.4 0 0 1 .993-.5l.019-.057C44 10.98 16 2.98 3.377 30.135a10.844 10.844 0 0 0-.988 5.59 11.6 11.6 0 0 1 .988-3.59z" data-name="opacity"/><path fill="#faa85e" d="M54.639 24.428l-2.713-2.715a2.408 2.408 0 0 0-3.393 0l-.34.34c-1.283 1.285-8.416 1.146-13.115 5.061a10.212 10.212 0 0 0-.787.705 10.069 10.069 0 0 0 7.121 17.191c.143 0 .284-.014.427-.02a10.038 10.038 0 0 0 6.694-2.928 10.411 10.411 0 0 0 .736-.826c.049-.06.092-.127.139-.189.16-.209.316-.418.457-.633 2.973-4.461 3.235-11.059 4.435-12.256l.34-.34a2.4 2.4 0 0 0-.001-3.39z" data-name="layer2"/><path opacity=".25" fill="#fff" d="M36.293 43.063a10.072 10.072 0 0 1 0-14.244 10.211 10.211 0 0 1 .787-.705c4.7-3.914 11.832-3.775 13.115-5.061l.34-.34a2.374 2.374 0 0 1 1.2-.645 2.428 2.428 0 0 1 .5-.045l-.31-.31a2.408 2.408 0 0 0-3.393 0l-.34.34c-1.283 1.285-8.416 1.146-13.115 5.061a10.212 10.212 0 0 0-.787.705 10.054 10.054 0 0 0 3.617 16.555 10.053 10.053 0 0 1-1.614-1.311z" data-name="opacity"/><path fill="#ffe6c5" d="M62 50.98a2 2 0 0 1-2 2H4a2 2 0 0 1-2-2 2 2 0 0 1 2-2h56a2 2 0 0 1 2 2z" data-name="layer1"/><path opacity=".18" fill="#101129" d="M34.313 42.063a10.072 10.072 0 0 1 0-14.244 10.215 10.215 0 0 1 .787-.705 13.692 13.692 0 0 1 2.647-1.705c-2.691.611-6.046 1.533-8.653 3.705-.271.221-.533.455-.787.707a10.064 10.064 0 0 0-1.57 12.189H13.016a11.8 11.8 0 0 1-10.553-5.824c.786 5.127 5.689 8.824 11.554 8.824h27.418a10.044 10.044 0 0 1-7.122-2.947z" data-name="opacity"/><path stroke-width="2" stroke-linejoin="round" stroke-linecap="round" stroke="#2f446a" fill="none" d="M54.868 24.717l2.326-2.326a2.94 2.94 0 0 0 3.939-4.355c-1.523-1.523-2.088-1.047-2.6-1.562-.709-.709-.3-1.344-1.564-2.6a2.946 2.946 0 0 0-4.169 4.161c.072.072.16.115.238.18l-2.818 2.814" data-name="stroke"/><path stroke-width="2" stroke-linejoin="round" stroke-linecap="round" stroke="#2f446a" fill="none" d="M34.292 42.082a10.058 10.058 0 0 0 14.978-.824c.049-.062.092-.129.139-.191.16-.207.316-.416.457-.633 2.973-4.459 3.234-11.059 4.434-12.256l.34-.34a2.4 2.4 0 0 0 0-3.391l-2.713-2.713a2.4 2.4 0 0 0-3.393 0l-.34.34c-1.283 1.283-8.416 1.144-13.115 5.059-.271.221-.533.455-.787.707a10.069 10.069 0 0 0 0 14.242z" data-name="stroke"/><path stroke-width="2" stroke-linejoin="round" stroke-linecap="round" stroke="#2f446a" fill="none" d="M49.749 21.031C44 11 16 3 3.38 30.154c-3.592 8 2.627 14.877 10.627 14.877h27.826M62 51a2 2 0 0 1-2 2H4a2 2 0 0 1-2-2 2 2 0 0 1 2-2h56a2 2 0 0 1 2 2z" data-name="stroke"/></svg>