<svg xmlns="http://www.w3.org/2000/svg" viewBox="0 0 64 64" aria-labelledby="title" aria-describedby="desc"><path data-name="layer2" d="M61.9 2.1S47.5-.2 31.3 16c-9.8 9.8-17.9 24-17.9 24L24 50.6s14.2-8.1 24-17.9C64.2 16.5 61.9 2.1 61.9 2.1zM42.4 27.2a3.9 3.9 0 1 1 0-5.6 3.9 3.9 0 0 1 0 5.6zm9.7-9.7a3.9 3.9 0 1 1 0-5.6 3.9 3.9 0 0 1 0 5.5z" fill="#202020"/><path data-name="layer1" d="M26.1 54.1l-2.7 1.5-.4-.4-1.5 6.8a50.9 50.9 0 0 0 12.9-6.7c5-3.5 5.7-6.6 5.4-10.4a150.7 150.7 0 0 1-13.7 9.2zm-6.9-30c-3.9-.3-7 .4-10.5 5.4a51 51 0 0 0-6.7 13L8.8 41l-.4-.4L10 38a149.6 149.6 0 0 1 9.2-13.9z" fill="#202020"/></svg>