<svg xmlns="http://www.w3.org/2000/svg" viewBox="0 0 64 64" aria-labelledby="title" aria-describedby="desc"><path data-name="layer3" d="M58.3 5.7a12 12 0 0 0-16.9-.1L13.1 34l5.7 5.7 2.8-2.8a4 4 0 1 1 5.7 5.7l-2.8 2.8 5.5 5.5 28.4-28.3a12 12 0 0 0-.1-16.9z" fill="#a3b8df"/><circle data-name="layer2" cx="46" cy="18" r="4" fill="#c3d6e0"/><path data-name="layer1" d="M8.8 38.2a4 4 0 0 1-5.7 0 4 4 0 0 1 0-5.7l7.1-7.1a4 4 0 0 1 5.7 0 4 4 0 0 1 0 5.7zm22.7 22.6a4 4 0 0 1-5.7 0 4 4 0 0 1 0-5.7l7.1-7.1a4 4 0 0 1 5.7 0 4 4 0 0 1 0 5.7zM20.1 49.5a4 4 0 0 1-5.7 0 4 4 0 0 1 0-5.7l7.1-7.1a4 4 0 0 1 5.7 0 4 4 0 0 1 0 5.7z" fill="#7b8baf"/><path data-name="opacity" d="M16 25.6a4 4 0 0 1-1.1 2.5l-7.1 7.1a4 4 0 0 1-5.7 0V35a4 4 0 0 0 6.8 3.2l7.1-7.1a4 4 0 0 0 0-5.5zm22.7 22.7a4 4 0 0 1-1.1 2.5l-7.1 7.1a4 4 0 0 1-5.7 0v-.2a4 4 0 0 0 6.8 3.2l7.1-7.1a4 4 0 0 0 0-5.5zM27.4 37a4 4 0 0 1-1.1 2.5l-7.1 7.1a4 4 0 0 1-5.7 0v-.2a4 4 0 0 0 6.8 3.2l7.1-7.1a4 4 0 0 0 0-5.5z" fill="#000064" opacity=".15"/><path data-name="opacity" d="M52.1 17.8L29 40.8l-.7-.4a4 4 0 0 1-1 1.8L24.5 45l5.7 5.7 28.3-28.4a12 12 0 0 0-.1-16.9c3.2 3.3-4.1 10.1-6.3 12.4zM21.6 36.5s-2.3-3.1-5.6.1l2.7 2.7z" fill="#000064" opacity=".15"/><circle data-name="stroke" cx="46" cy="18" r="4" fill="none" stroke="#2e4369" stroke-linecap="round" stroke-linejoin="round" stroke-width="2"/><path data-name="stroke" d="M8.8 38.2a4 4 0 0 1-5.7 0 4 4 0 0 1 0-5.7l7.1-7.1a4 4 0 0 1 5.7 0 4 4 0 0 1 0 5.7zm22.7 22.6a4 4 0 0 1-5.7 0 4 4 0 0 1 0-5.7l7.1-7.1a4 4 0 0 1 5.7 0 4 4 0 0 1 0 5.7z" fill="none" stroke="#2e4369" stroke-linecap="round" stroke-linejoin="round" stroke-width="2"/><path data-name="stroke" d="M18.7 39.6L13.1 34 41.4 5.6a12 12 0 0 1 16.9.1 12 12 0 0 1 .1 16.9L30 50.9l-5.7-5.7" fill="none" stroke="#2e4369" stroke-linecap="round" stroke-linejoin="round" stroke-width="2"/><path data-name="stroke" d="M20.1 49.5a4 4 0 0 1-5.7 0 4 4 0 0 1 0-5.7l7.1-7.1a4 4 0 0 1 5.7 0 4 4 0 0 1 0 5.7z" fill="none" stroke="#2e4369" stroke-linecap="round" stroke-linejoin="round" stroke-width="2"/></svg>