<svg xmlns="http://www.w3.org/2000/svg" viewBox="0 0 64 64" aria-labelledby="title" aria-describedby="desc"><path data-name="layer1" d="M44 11c-5.2 0-10.3 3.3-12 8-1.7-4.6-6.8-8-12-8A12 12 0 0 0 8 22.9C8 34.1 16.8 44.4 32 54c15.2-9.6 24-19.9 24-31.1A12 12 0 0 0 44 11z" fill="#f27e7c"/><path data-name="opacity" d="M21.7 11.1H20A12 12 0 0 0 8 22.9C8 34.1 16.8 44.4 32 54l.8-.5-.8-.5C12.7 40.5 10.2 13.1 21.7 11.1z" fill="#000064" opacity=".15"/><path data-name="opacity" d="M50.9 24.9c-1.9-.6-3.4-3-5-4.4s-3.8-3.1-4.4-5 .7-2.2 2.7-2.5a7.9 7.9 0 0 1 6.8 2.4 7.9 7.9 0 0 1 2.4 6.8c-.4 1.9-1.6 2.9-2.5 2.7z" fill="#fff" opacity=".25"/><path data-name="stroke" fill="none" stroke="#2e4369" stroke-linecap="round" stroke-linejoin="round" stroke-width="2" d="M62 2L50.9 13.1M52 4l10-2-2 10m-16-1c-5.2 0-10.3 3.3-12 8-1.7-4.6-6.8-8-12-8A12 12 0 0 0 8 22.9C8 34.1 16.8 44.4 32 54c15.2-9.6 24-19.9 24-31.1A12 12 0 0 0 44 11zM23 41L8 56m-6 0h6v6m0-12h6v6"/></svg>