<svg xmlns="http://www.w3.org/2000/svg" viewBox="0 0 64 64" aria-labelledby="title" aria-describedby="desc"><path data-name="layer1" d="M62.4 1.6a2 2 0 0 0-1.8-.6l-10 2a2 2 0 0 0 .8 4l3.5-.7-6.7 6.7-.3.5a11.9 11.9 0 0 0-4.9-1c-5.2 0-10.3 3.3-12 8-1.7-4.6-6.8-8-12-8A12 12 0 0 0 7 24.1v.2a12 12 0 0 0 .6 3.7C9 33.3 13 38.6 17.7 43.5L14.2 47H9a2 2 0 0 0 0 4h1.2l-2 2H3a2 2 0 0 0 0 4h4v4a2 2 0 1 0 4 0v-5.2l2-2V55a2 2 0 1 0 4 0v-5.2l3.5-3.5c3.6 3.4 7.3 6.6 10.5 9.2 8.4-7.1 20.6-18.2 23.4-27.5a11.8 11.8 0 0 0 .4-1.7v-.2a12.1 12.1 0 0 0 .1-1.7 12 12 0 0 0-3.8-8.8L57.7 9l-.7 3.6a2 2 0 0 0 1.6 2.4h.4a2 2 0 0 0 2-1.6l2-10a2 2 0 0 0-.6-1.8z" fill="#202020"/></svg>