<svg xmlns="http://www.w3.org/2000/svg" viewBox="0 0 64 64" aria-labelledby="title" aria-describedby="desc"><path data-name="layer1" d="M39.777 28.593l12.26 11.273L62 26l-4.63-3.103-3.332 4.11A26.995 26.995 0 0 0 28 6C13.48 6 2 18.488 2 33a25.791 25.791 0 0 0 26 26 26.924 26.924 0 0 0 18.953-7.719l-4.244-4.241A20.967 20.967 0 0 1 28 53 19.786 19.786 0 0 1 8 33c0-11.203 8.788-21 20-21a20.979 20.979 0 0 1 20.126 16.12l-4.288-3.943z" fill="none" stroke="#202020" stroke-miterlimit="10" stroke-width="2" stroke-linejoin="round" stroke-linecap="round"/></svg>