<svg xmlns="http://www.w3.org/2000/svg" viewBox="0 0 64 64" aria-labelledby="title" aria-describedby="desc"><path data-name="layer2" d="M34 6s14.2 4.9 25.3 36H16.1S34 32.8 34 6z" fill="#74bee2"/><path data-name="layer1" d="M8 50v5.7l4.9 4.3 1.1 1a7.7 7.7 0 0 1 4-1c4 0 4 2 8 2s4-2 8-2 4 2 8 2 4-2 8-2a30.4 30.4 0 0 0 8-10z" fill="#c69483"/><path data-name="opacity" d="M16.1 42H34V6c0 26.8-17.9 36-17.9 36zM8 55.7l4.9 4.3 1.1 1a7.7 7.7 0 0 1 4-1c4 0 4 2 8 2s4-2 8-2 4 2 8 2 4-2 8-2l2.3-2H16c-3.8 0-4-3-4-3v-5H8z" fill="#000064" opacity=".15"/><path data-name="stroke" d="M34 6s14.2 4.9 25.3 36H16.1S34 32.8 34 6zM18 60c-4 0-4 2-8 2s-4-2-8-2m32 0c-4 0-4 2-8 2s-4-2-8-2m32 0c-4 0-4 2-8 2s-4-2-8-2m28 1a7.8 7.8 0 0 1-4 1c-4 0-4-2-8-2" fill="none" stroke="#2e4369" stroke-linecap="round" stroke-linejoin="round" stroke-width="2"/><path data-name="stroke" d="M14 61l-6-5.3V50h50a30.4 30.4 0 0 1-8 10M34 50V2" fill="none" stroke="#2e4369" stroke-linecap="round" stroke-linejoin="round" stroke-width="2"/></svg>