<svg xmlns="http://www.w3.org/2000/svg" viewBox="0 0 64 64" aria-labelledby="title" aria-describedby="desc"><path data-name="layer2" d="M61.5 25.3a1 1 0 0 0-1 .1l-6.6 4.8A13 13 0 0 0 41 19H28.3l.9 1.1A14.9 14.9 0 0 1 31.4 33a21.9 21.9 0 0 1-8.3 12H41a13 13 0 0 0 12.9-11.3l6.6 4.1.5.2h.5a1 1 0 0 0 .5-1V26.2a1 1 0 0 0-.5-.9z" fill="#202020"/><path data-name="layer1" d="M18.3 19c-6.9 0-14 5.8-15.9 13s2.3 13 9.2 13 14.1-5.8 15.9-13-2.2-13-9.2-13zM12 33a2 2 0 1 1 2-2 2 2 0 0 1-2 2zm4 6a2 2 0 1 1 2-2 2 2 0 0 1-2 2zm4-10a2 2 0 1 1 2-2 2 2 0 0 1-2 2z" fill="#202020"/></svg>