<svg xmlns="http://www.w3.org/2000/svg" viewBox="0 0 64 64" aria-labelledby="title" aria-describedby="desc"><path data-name="layer3" fill="#f26950" d="M25.193 39.406l14.142-14.142 7.071 7.071-14.142 14.142z"/><path data-name="opacity" fill="#101129" opacity=".25" d="M25.208 39.369l2.97-2.97 7.071 7.071-2.97 2.97z"/><path data-name="layer2" d="M33.7 13.9l-8.5-8.5C19.8 0 12.3 1.4 6.8 6.9c-3.9 3.9-5.7 8.9-4.4 13.4H37a14.2 14.2 0 0 0-3.3-6.4z" fill="#d5e2f4"/><path data-name="layer1" d="M13.9 33.7C18.2 38 26.6 38 26.6 38L38 26.7a27.6 27.6 0 0 0-.9-6.4H2.4a11.6 11.6 0 0 0 3 5z" fill="#fff"/><path data-name="opacity" d="M5.6 17.2C4.4 13.1 5.8 8.7 9 5L6.8 6.9c-3.9 3.9-5.7 8.9-4.4 13.4H7a11.1 11.1 0 0 1-1.4-3.1z" fill="#101129" opacity=".25"/><path data-name="opacity" d="M8.6 22.2a12.5 12.5 0 0 1-1.6-2H2.4a11.6 11.6 0 0 0 3 5l8.5 8.5C18.2 38 26.6 38 26.6 38l3-3c-1.3 0-8.6-.4-12.5-4.2z" fill="#101129" opacity=".25"/><path data-name="stroke" d="M38 26.7s0-8.5-4.2-12.7l-8.6-8.6C19.8 0 12.3 1.4 6.9 6.9 1.4 12.3 0 19.8 5.4 25.2l8.5 8.5C18.2 38 26.7 38 26.7 38" fill="none" stroke="#2f446a" stroke-linecap="round" stroke-linejoin="round" stroke-width="2"/><path data-name="stroke" fill="none" stroke="#2f446a" stroke-linecap="round" stroke-linejoin="round" stroke-width="2" d="M25.264 39.336l14.142-14.143 7.07 7.071-14.141 14.143zM50.7 39.4l1.4 1.4m-5.6 5.7l4.2 4.2m-11.3 0l4.2 4.2m14.2-8.4l4.2 4.2m-5.6 5.7l1.4 1.4m-9.9 1.4l2.8 2.8"/></svg>