<svg viewBox="0 0 64 64" xmlns="http://www.w3.org/2000/svg" aria-labelledby="title" aria-describedby="desc"><path fill="#202020" d="M48 60v-5c-4 0-9.943-5.646-12.992-8.016a5.114 5.114 0 0 0-6.024.016C25.959 49.392 20 55 16 55v5zM32 37c.422 0 2.083-3.854 4.52-5.462l5.526-3.881a13.953 13.953 0 0 0 2.118-1.857c-9.5 3.83-16.091-3-24.081.2l-.041.009a13.944 13.944 0 0 0 1.911 1.651s4.142 2.915 5.526 3.881C30.021 33.313 31.234 37 32 37z" data-name="layer1"/><path fill="#202020" d="M24.776 23.114a31.456 31.456 0 0 1 6.7.953 30.71 30.71 0 0 0 6.5.931 14.283 14.283 0 0 0 5.441-1.057l2.95-1.19A13.987 13.987 0 0 0 48 16.2V4H16v12.2a13.985 13.985 0 0 0 2.588 8.087l.9-.207a14.361 14.361 0 0 1 5.288-.966zm17.271 13.942l-5.3-3.666s-.629.538-.75.688a17.465 17.465 0 0 0-2 3.359A2.109 2.109 0 0 1 32 39a2.249 2.249 0 0 1-2.013-1.477 13.259 13.259 0 0 0-2.278-3.231c-.229-.219-.729-.771-.729-.771l-5.026 3.535A14 14 0 0 0 16 48.513V53c2.625 0 7.252-3.851 10.016-6.152a90.624 90.624 0 0 1 1.728-1.417 7.109 7.109 0 0 1 8.492-.026c.569.442 1.23.99 1.93 1.57C40.884 49.229 45.435 53 48 53v-4.487a14 14 0 0 0-5.953-11.457z" data-name="layer2"/><path fill="#202020" d="M51 64H13a1 1 0 0 1 0-2h38a1 1 0 0 1 0 2zm0-62H13a1 1 0 0 1 0-2h38a1 1 0 0 1 0 2z" data-name="layer1"/></svg>