<svg viewBox="0 0 64 64" xmlns="http://www.w3.org/2000/svg" aria-labelledby="title" aria-describedby="desc"><path fill="#e1f4f3" d="M48 62V48.513a14 14 0 0 0-5.953-11.457l-5.527-3.881a1 1 0 0 1 0-1.637l5.526-3.881A14 14 0 0 0 48 16.2V2H16v14.2a14 14 0 0 0 5.954 11.457l5.526 3.881a1 1 0 0 1 0 1.637l-5.526 3.881A14 14 0 0 0 16 48.513V62z" data-name="layer2"/><path fill="#ffe2a2" d="M48 62v-7c-4 0-9.943-5.646-12.992-8.016a5.114 5.114 0 0 0-6.024.016C25.959 49.392 20 55 16 55v7zM32 37c.133 0 .875-3.382 4.109-4.7a.982.982 0 0 1 .412-.76l5.526-3.881a13.953 13.953 0 0 0 2.117-1.859c-9.5 3.83-16.091-3-24.081.2l-.041.009a13.944 13.944 0 0 0 1.911 1.651l5.526 3.881a1 1 0 0 1 .328 1.231h.008C30.687 33.5 31.833 37 32 37z" data-name="layer1"/><path opacity=".15" fill="#000064" d="M25.465 37.056l4.145-3.881a1.209 1.209 0 0 0 0-1.637l-4.145-3.881A15.8 15.8 0 0 1 21 16.2V2h-5v14.2a14 14 0 0 0 5.953 11.457l5.526 3.881a1 1 0 0 1 0 1.637l-5.526 3.881A14 14 0 0 0 16 48.513V62h5V48.513a15.8 15.8 0 0 1 4.465-11.457z" data-name="opacity"/><path opacity=".6" fill="#fff" d="M45 48.513a15.949 15.949 0 0 0-4.182-11.156C37.963 35.087 36.01 39.039 37 43c1 4 .937 11 .937 17H45zm-6.082-19.342l1.617-1.514A15.8 15.8 0 0 0 45 16.2V4h-8v16c0 3-2.164 12.342 1.918 9.171z" data-name="opacity"/><path stroke-width="2" stroke-miterlimit="10" stroke-linecap="round" stroke="#2e4369" fill="none" d="M16 55c4 0 9.959-5.608 12.984-8a5.114 5.114 0 0 1 6.024-.016C38.057 49.355 44 55 48 55M20.084 26c8-3.205 14.6 3.65 24.121-.216M27.816 32.77C30.687 33.5 31.833 37 32 37c.133 0 .869-3.39 4.106-4.709" data-name="stroke" stroke-linejoin="round"/><path stroke-width="2" stroke-miterlimit="10" stroke-linecap="round" stroke="#2e4369" fill="none" d="M48 62V48.513a14 14 0 0 0-5.953-11.457l-5.527-3.881a1 1 0 0 1 0-1.637l5.526-3.881A14 14 0 0 0 48 16.2V2M16 2v14.2a14 14 0 0 0 5.954 11.457l5.526 3.881a1 1 0 0 1 0 1.637l-5.526 3.881A14 14 0 0 0 16 48.513V62m-3 0h38M13 2h38" data-name="stroke" stroke-linejoin="round"/></svg>