<svg viewBox="0 0 64 64" xmlns="http://www.w3.org/2000/svg" aria-labelledby="title" aria-describedby="desc"><path fill="#202020" d="M62 12.5c0-8.12-7.674-12-30-12-12.636 0-30 1.925-30 12 0 7.568 4.515 8.562 6.762 8.587h.06A6.66 6.66 0 0 0 10 21v28.5a5 5 0 0 0 5 5h34a5 5 0 0 0 5-5V20.9s8-.279 8-8.4zm-43 4a3 3 0 1 1 3-3 3 3 0 0 1-3 3zm6 30a3 3 0 1 1 3-3 3 3 0 0 1-3 3zm2-18a3 3 0 1 1 3-3 3 3 0 0 1-3 3zm15 12a4 4 0 1 1 4-4 4 4 0 0 1-4 4zm2-18a4 4 0 1 1 4-4 4 4 0 0 1-4 4z" data-name="layer2"/><path fill="#202020" d="M.549 45.394l5.385 2.692V26.892L.05 44.177a1 1 0 0 0 .499 1.217zm12.699 12.943a6.99 6.99 0 0 0 12.4 2.28A5.936 5.936 0 0 0 30 62.5a6.039 6.039 0 0 0 5.164-2.96A6.9 6.9 0 0 0 40 61.5a7.005 7.005 0 0 0 5.725-3H14.934a8.959 8.959 0 0 1-1.686-.163zm44.686-33.67v19.667a11 11 0 0 0 0-19.667z" data-name="layer1"/></svg>