<svg xmlns="http://www.w3.org/2000/svg" viewBox="0 0 64 64" aria-labelledby="title" aria-describedby="desc"><path data-name="layer2" d="M29.9 53.9a14.6 14.6 0 0 0-2.1-17.7 14.6 14.6 0 0 0-17.7-2.1z" fill="#8ca0c8"/><path data-name="opacity" d="M27.8 36.2a14.1 14.1 0 0 0-3.7-2.6 14.6 14.6 0 0 1 2.1 16.7l3.7 3.7a14.6 14.6 0 0 0-2.1-17.8z" fill="#000064" opacity=".14"/><path data-name="layer2" d="M34.9 40.4a2 2 0 0 1-2.8 0L23.6 32a2 2 0 0 1 0-2.8l12.7-12.8a2 2 0 0 1 2.8 0l8.5 8.5a2 2 0 0 1 0 2.8z" fill="#8ca0c8"/><path data-name="opacity" d="M47.6 24.9l-4-4a2 2 0 0 1 0 2.8L30.9 36.4a2 2 0 0 1-2.8 0l-4.5-4.5 8.5 8.5a2 2 0 0 0 2.8 0l12.7-12.7a2 2 0 0 0 0-2.8z" fill="#000064" opacity=".14"/><path data-name="layer1" fill="#9cf" d="M8.067 10.748l8.486-8.485L29.28 14.99l-8.485 8.485zm32.463 32.6l8.484-8.485L61.742 47.59l-8.485 8.485z"/><path data-name="opacity" fill="#fff" opacity=".5" d="M8 10.7h17l-8.5-8.4L8 10.7zm41 24.1l-8.5 8.5h17L49 34.8z"/><path data-name="stroke" d="M29.9 53.9a14.6 14.6 0 0 0-2.1-17.7 14.6 14.6 0 0 0-17.7-2.1zm-9.5.2A10.5 10.5 0 0 1 9.9 43.6m-7.9.3A18.1 18.1 0 0 0 20.1 62m14.8-21.6a2 2 0 0 1-2.8 0L23.6 32a2 2 0 0 1 0-2.8l12.7-12.8a2 2 0 0 1 2.8 0l8.5 8.5a2 2 0 0 1 0 2.8zM8.067 10.748l8.486-8.485L29.28 14.99l-8.485 8.485zm32.463 32.6l8.484-8.485L61.742 47.59l-8.485 8.485zM25 19.2l4.2 4.3m11.3 11.3l4.3 4.2m-1.4-18.3l6.7-6.7" fill="none" stroke="#2e4369" stroke-linecap="round" stroke-miterlimit="10" stroke-width="2" stroke-linejoin="round"/></svg>