<svg xmlns="http://www.w3.org/2000/svg" viewBox="0 0 64 64" aria-labelledby="title" aria-describedby="desc"><path data-name="layer2" d="M31.9 45.1a2 2 0 0 1-2.9 0l-10-10a2 2 0 0 1 0-2.9l17.2-17.3a2 2 0 0 1 2.9 0L49.2 25a2 2 0 0 1 0 2.9z" fill="#7b8baf"/><path data-name="opacity" d="M46.2 22a2 2 0 0 1 0 2.9L28.9 42.1a2 2 0 0 1-2.9 0l3 3a2 2 0 0 0 2.9 0l17.3-17.2a2 2 0 0 0 0-2.9" fill="#000032" opacity=".2"/><path data-name="layer1" d="M22.6 28.6L6.8 12.8a2 2 0 0 1 0-2.9L14 2.7a2 2 0 0 1 2.9 0l15.7 15.8m2.9 23l15.8 15.8a2 2 0 0 0 2.9 0l7.2-7.2a2 2 0 0 0 0-2.9L45.6 31.5" fill="#8fa9d8"/><path data-name="opacity" fill="#000032" opacity=".2" d="M35.463 41.607l10.041-10.04 3.005 3.004-10.04 10.041z"/><path data-name="stroke" d="M20.4 54l-1.7.2A8.7 8.7 0 0 1 10 44.1m9.9 17.7h-1.4A16.5 16.5 0 0 1 2 45.4v-.9m29.9.6a2 2 0 0 1-2.9 0l-10-10a2 2 0 0 1 0-2.9l17.2-17.3a2 2 0 0 1 2.9 0L49.2 25a2 2 0 0 1 0 2.9z" fill="none" stroke="#2e4369" stroke-linecap="round" stroke-linejoin="round" stroke-width="2"/><path data-name="stroke" d="M22.6 28.6L6.8 12.8a2 2 0 0 1 0-2.9L14 2.7a2 2 0 0 1 2.9 0l15.7 15.8m2.9 23l15.8 15.8a2 2 0 0 0 2.9 0l7.2-7.2a2 2 0 0 0 0-2.9L45.6 31.5M24 40.1l-4.3 4.3" fill="none" stroke="#2e4369" stroke-linecap="round" stroke-linejoin="round" stroke-width="2"/></svg>