<svg xmlns="http://www.w3.org/2000/svg" viewBox="0 0 64 64" aria-labelledby="title" aria-describedby="desc"><path data-name="layer1" d="M13.8 14C0 27.8.1 43.4 5.1 48.7s11.1 4.1 14.7-3.1.6-12.2 6.9-18.6 14.7-4.2 19-6.3S56 12.8 48.5 5.3s-26.1 0-34.7 8.7z" fill="#f16262"/><path data-name="opacity" d="M51 8.7c-.2 3.8-3.5 6.6-6.3 8-4.3 2.1-12.7 0-19 6.3s-3.3 11.4-6.9 18.6S9 50 4 44.7a9.9 9.9 0 0 1-1.9-3.1A12.7 12.7 0 0 0 5 48.7c5 5.3 11.1 4.1 14.7-3.1s.6-12.2 6.9-18.6 14.7-4.2 19-6.3 8.5-6.2 5.4-12z" fill="#101129" opacity=".2"/><path data-name="stroke" d="M13.8 14C0 27.8.1 43.4 5.1 48.7s11.1 4.1 14.7-3.1.6-12.2 6.9-18.6 14.7-4.2 19-6.3S56 12.8 48.5 5.3s-26.1 0-34.7 8.7zM6.5 61.7l5.8-9.7 7.2 8.2M62 6.3L52.2 12l8.3 7.2" fill="none" stroke="#2f446a" stroke-linecap="round" stroke-linejoin="round" stroke-width="2"/></svg>