<svg xmlns="http://www.w3.org/2000/svg" viewBox="0 0 64 64" aria-labelledby="title" aria-describedby="desc"><path data-name="layer2" fill="#ebf5ff" d="M20 28h34v24H20zm13.7-8h16.6a1.7 1.7 0 0 0 1.7-1.7V2H32v16.3a1.7 1.7 0 0 0 1.7 1.7z"/><path data-name="layer1" d="M62 8.7L55.3 2H52v16.3a1.7 1.7 0 0 1-1.7 1.7H33.7a1.7 1.7 0 0 1-1.7-1.7V2H12v50h8V28h34v24h8z" fill="#7f95ad"/><path data-name="layer1" fill="#7f95ad" d="M54 52v10H2V12h10v40h42z"/><path data-name="opacity" fill="#000064" opacity=".15" d="M54 52v10H2V12h10v40h42z"/><path data-name="stroke" fill="none" stroke="#2e4369" stroke-linecap="round" stroke-miterlimit="10" stroke-width="2" d="M54 52v10H2V12h10" stroke-linejoin="round"/><path data-name="stroke" fill="none" stroke="#2e4369" stroke-linecap="round" stroke-miterlimit="10" stroke-width="2" d="M55.3 2L62 8.7V52H12V2h43.3z" stroke-linejoin="round"/><path data-name="stroke" fill="none" stroke="#2e4369" stroke-linecap="round" stroke-miterlimit="10" stroke-width="2" d="M54 52V28H20v24M44 9v4m8-11v16.3a1.7 1.7 0 0 1-1.7 1.7H33.7a1.7 1.7 0 0 1-1.7-1.7V2" stroke-linejoin="round"/></svg>