<svg xmlns="http://www.w3.org/2000/svg" viewBox="0 0 64 64" aria-labelledby="title" aria-describedby="desc"><path data-name="layer1" d="M2 8s33.2-15.8 32 4-6 38 2 38c4.8 0 4-7.5 4-14s0-12.4 8-16l14 16s-10 3.6-10 12-5.3 13.9-16 13.9S22 54.5 22 46s4-30.5 4-36-6.2-7.7-24-2z" fill="#fce349"/><path data-name="opacity" d="M34 12c.6-9-6-10.7-13.4-9.8C27.5 1.5 31 5.5 31 12s-.6 27 .7 32.5c-.9-7 1.5-19.8 2.3-32.5zm11 22c0-6 6.8-9.6 6.8-9.6L48 20c-8 3.6-8 9.5-8 16s.5 10.7-1.6 13c4.5-2.1 6.6-9 6.6-15z" fill="#fff" opacity=".4"/><path data-name="opacity" d="M25 48c0-5.1 2-30 2-37s-5.9-7-12.5-6.1C22.8 3.8 26 6 26 10c0 5.5-4 27.5-4 36s4.7 15.9 14 15.9a25.2 25.2 0 0 0 4.7-.4C29.7 62.9 25 53 25 48z" fill="#000064" opacity=".15"/><path data-name="stroke" d="M2 8s33.2-15.8 32 4-6 38 2 38c4.8 0 4-7.5 4-14s0-12.4 8-16l14 16s-10 3.6-10 12-5.3 13.9-16 13.9S22 54.5 22 46s4-30.5 4-36-6.2-7.7-24-2z" fill="none" stroke="#2e4369" stroke-linecap="round" stroke-miterlimit="10" stroke-width="2" stroke-linejoin="round"/></svg>