<svg xmlns="http://www.w3.org/2000/svg" viewBox="0 0 64 64" aria-labelledby="title" aria-describedby="desc"><rect data-name="layer2" x="16.209" y="-1.88" width="12.054" height="52.233" rx="6" ry="6" transform="rotate(-45 22.236 24.237)" fill="#6675ff"/><path data-name="opacity" d="M36.2 39.722L7.75 11.273a6 6 0 0 1-.984-7.129A5.942 5.942 0 0 0 3.788 5.75l-.038.038a6.018 6.018 0 0 0 0 8.485L32.2 42.722a6.018 6.018 0 0 0 8.485 0l.038-.038a5.89 5.89 0 0 0 .984-1.356 6 6 0 0 1-5.507-1.606z" fill="#000064" opacity=".16"/><path data-name="layer1" d="M42.45 38.768h-.009a5.951 5.951 0 0 1-1.719 3.918l-.038.038a5.907 5.907 0 0 1-2.484 1.46l.007.016a26.426 26.426 0 0 1 2.351 2.443 2 2 0 0 1 .272 2.207l-.064.128a2.551 2.551 0 0 0 .651 2.959c11.491 7.882 20.6 6.392 20.6 6.392z" fill="#cbe5ff"/><path data-name="opacity" d="M43 49a21.524 21.524 0 0 0 1.1-8.585l-1.65-1.647h-.009a5.951 5.951 0 0 1-1.719 3.918l-.038.038a5.907 5.907 0 0 1-2.484 1.46l.007.016a26.426 26.426 0 0 1 2.351 2.443 2 2 0 0 1 .272 2.207l-.064.128a2.551 2.551 0 0 0 .651 2.959 38.94 38.94 0 0 0 10.125 5.053A21.513 21.513 0 0 1 43 49z" fill="#000064" opacity=".16"/><path data-name="stroke" d="M42.45 38.768l19.561 19.561s-9.107 1.49-20.6-6.392a2.551 2.551 0 0 1-.651-2.959l.064-.128a2 2 0 0 0-.272-2.207A26.425 26.425 0 0 0 38.2 44.2" fill="none" stroke="#2e4369" stroke-linecap="round" stroke-miterlimit="10" stroke-width="2" stroke-linejoin="round"/><rect data-name="stroke" x="16.209" y="-1.88" width="12.054" height="52.233" rx="6" ry="6" transform="rotate(-45 22.236 24.237)" fill="none" stroke="#2e4369" stroke-linecap="round" stroke-miterlimit="10" stroke-width="2" stroke-linejoin="round"/></svg>