<svg xmlns="http://www.w3.org/2000/svg" viewBox="0 0 64 64" aria-labelledby="title" aria-describedby="desc"><path data-name="layer2" d="M42 29.9a16 16 0 1 0 16 16 16 16 0 0 0-16-16zm8 20H40v-12a2 2 0 0 1 4 0v8h6a2 2 0 0 1 0 4z" fill="#202020"/><ellipse data-name="layer1" cx="29" cy="10.1" rx="23" ry="8" fill="#202020"/><path data-name="layer1" d="M29 29.1h2.3a19.7 19.7 0 0 1 15.3-2.5C50 25.3 52 24 52 23.1v-6.2c-5 3.6-14 5.2-23 5.2s-18-1.7-23-5.2v6.2c0 2 9.4 6 23 6zm-7 16.8c0-.4 0-.8.1-1.2C15.2 43.9 9 42.1 6 39.2V46c0 3.8 7.5 6.9 17.7 7.8a19.9 19.9 0 0 1-1.7-7.9zm.7-5.2a19.9 19.9 0 0 1 4-7.7c-8.7-.3-17-2.2-20.7-5.8V35c0 1.8 6.6 4.8 16.7 5.7z" fill="#202020"/></svg>