<svg xmlns="http://www.w3.org/2000/svg" viewBox="0 0 64 64" aria-labelledby="title" aria-describedby="desc"><path data-name="layer1" fill="#202020" d="M0 52h8v4H0zm44 0h8v4h-8zm12 0h8v4h-8zM.2 46.1L20 40.8l3.3-12.1-17.9 4.8c-.9.2-5.9 1.9-5.4 10.1z"/><path data-name="layer1" d="M61.1 22.9a10 10 0 0 0-13.4-.7l-8.1 2.2 2.2-8.1A10 10 0 1 0 34 20a10 10 0 0 0 2.7-.4l-1.6 6-7.4 2L21.1 52H12v4h28v-4h-7.8l6.2-23.1 6-1.6a10 10 0 1 0 16.7-4.4zm-22.8-8.7A6 6 0 1 1 40 10a6 6 0 0 1-1.7 4.2zm20 20a6 6 0 1 1 0-8.5 6 6 0 0 1 0 8.5z" fill="#202020"/></svg>