<svg xmlns="http://www.w3.org/2000/svg" viewBox="0 0 64 64" aria-labelledby="title" aria-describedby="desc"><path data-name="layer1" d="M60.8 23.2A11 11 0 0 0 42 30.8a37.9 37.9 0 0 0-5.1-3.1 41.7 41.7 0 0 0-3.6-5.7 11 11 0 0 0 7.5-18.8 11 11 0 0 0-15.6 15.6l.2.2a46.6 46.6 0 0 1 5.4 6.5 24.5 24.5 0 0 0-10.7-.5C14.2 26.1 5.9 30.2.2 43.2A2 2 0 0 0 2 46l.8-.2 29-13.5-11.7 29A2 2 0 0 0 22 64l.8-.2C35.1 58.4 38.9 50.6 40 45a24.5 24.5 0 0 0-.7-11.3 41.3 41.3 0 0 1 5.7 4.9l.2.2a11 11 0 0 0 15.6-15.6zM28.1 6.1a7 7 0 1 1-2 5 7 7 0 0 1 2-5zM58 35.9a7 7 0 1 1 0-9.9 7 7 0 0 1 0 9.9z" fill="#202020"/></svg>