<svg xmlns="http://www.w3.org/2000/svg" viewBox="0 0 64 64" aria-labelledby="title" aria-describedby="desc"><path data-name="layer2" d="M44 50V2H4v50a10 10 0 0 0 10 10" fill="#fff"/><path data-name="layer1" d="M24 50v2a10 10 0 0 1-10 10h36a10 10 0 0 0 10-10v-2z" fill="#c3d6f9"/><path data-name="opacity" d="M24 52h-4v2a10 10 0 0 1-2.5 6.6l3.4-1.4A10 10 0 0 0 24 52z" fill="#000064" opacity=".15"/><path data-name="opacity" d="M14 62h36a10 10 0 0 0 8-4H22a10 10 0 0 1-8 4z" fill="#000064" opacity=".1"/><path data-name="stroke" d="M44 50V2H4v50a10 10 0 0 0 10 10" fill="none" stroke="#2e4369" stroke-linecap="round" stroke-linejoin="round" stroke-width="2"/><path data-name="stroke" d="M24 50v2a10 10 0 0 1-10 10h36a10 10 0 0 0 10-10v-2zM14 12h20M14 22h20M14 32h20M14 42h20" fill="none" stroke="#2e4369" stroke-linecap="round" stroke-linejoin="round" stroke-width="2"/></svg>