<svg viewBox="0 0 64 64" xmlns="http://www.w3.org/2000/svg" aria-labelledby="title" aria-describedby="desc"><path stroke-width="2" stroke-linejoin="round" stroke-linecap="round" stroke="#202020" fill="none" d="M56.35 25.418c.33 4.916-2.16 14.242-7.207 19.035-2.346-5.166-7.509-7.295-7.048-7.193m-5.81-29.105c-11.428 0-20 8.713-20 8.713s9.834.9 10.117 4.434" data-name="layer2"/><path stroke-width="2" stroke-linejoin="round" stroke-linecap="round" stroke="#202020" fill="none" d="M39.969 6.1a28 28 0 0 0-8.978 7.83c-7.094 9.508-10.432 21.324-12.733 31.8A122.8 122.8 0 0 0 42 37.194c6.875-3.377 11.381-7.461 14.344-11.777M14.738 62c1.179-4.473 2.172-10.143 3.518-16.271A125.052 125.052 0 0 1 2 48.809S13.145 52.457 14.738 62z" data-name="layer2"/><ellipse stroke-width="2" stroke-linejoin="round" stroke-linecap="round" stroke="#202020" fill="none" ry="2.054" rx="2.021" cy="11.685" cx="51.878" data-name="layer1"/><path stroke-width="2" stroke-linejoin="round" stroke-linecap="round" stroke="#202020" fill="none" d="M39.969 6.1c0 9.629 4.914 17.547 16.375 19.316C61.754 17.536 62 8.881 62 2.348c0 0-11.561-2.033-22.031 3.752z" data-name="layer1"/></svg>