<svg viewBox="0 0 64 64" xmlns="http://www.w3.org/2000/svg" aria-labelledby="title" aria-describedby="desc"><circle fill="#f27e7c" r="20" cy="21" cx="31" data-name="layer4"/><circle fill="#ec4744" r="12" cy="21" cx="31" data-name="layer3"/><path fill="#11aeec" d="M44.175 36.047l-.016-.011A19.9 19.9 0 0 1 31 41v12l16 6z" data-name="layer2"/><path fill="#fff" d="M17.924 36.111l-.008.015L15 59l16-6V41a19.9 19.9 0 0 1-13.076-4.889z" data-name="layer1"/><path opacity=".15" fill="#fff" d="M31.411 10.1c-1.062.239-1.251 1.06 1.589 3.9 5.868 5.868 3.588 15.806 6.031 13.27a10.984 10.984 0 0 0-7.62-17.17z" data-name="opacity"/><path opacity=".15" fill="#000064" d="M45 43v-.281l-.81-6.576-.028-.107A18.611 18.611 0 0 1 25 36c12 2 16-8 16-8s-3 3-9 3c-15 0-12-16-11-17-5 4-5 12-2 19-5.817-4.986-6.8-16.874-4.667-23.046a19.958 19.958 0 0 0 3.592 26.157l-.008.015L17 43.313A26.245 26.245 0 0 0 31 47c7 0 14-4 14-4z" data-name="opacity"/><path d="M17.916 36.126L15 58.999l16-6.001 16 6.001-2.825-22.952M31 41v11.998" stroke-width="2" stroke-linejoin="round" stroke-linecap="round" stroke="#2e4369" fill="none" data-name="stroke"/><circle stroke-width="2" stroke-linejoin="round" stroke-linecap="round" stroke="#2e4369" fill="none" r="20" cy="21" cx="31" data-name="stroke"/><circle stroke-width="2" stroke-linejoin="round" stroke-linecap="round" stroke="#2e4369" fill="none" r="12" cy="21" cx="31" data-name="stroke"/></svg>