<svg xmlns="http://www.w3.org/2000/svg" viewBox="0 0 64 64" aria-labelledby="title" aria-describedby="desc"><path data-name="layer1" d="M48 10c-.1-4-10.3-8-23-8S2 5.6 2 10v36c0 4.4 10.3 8 23 8a43.4 43.4 0 0 0 13.4-1.5A30.7 30.7 0 0 0 48 48V10z" fill="#7b8baf"/><path data-name="opacity" d="M31 17.7v36l1.6-.2C29.8 40.8 40 38 40 38c-5.4 7.3-3.9 12-1.9 14.5h.3l5.6-2.6V14.5a37.8 37.8 0 0 1-13 3.2z" fill="#fff" opacity=".15"/><ellipse data-name="opacity" cx="25" cy="10" rx="23" ry="8" fill="#fff" opacity=".25"/><path data-name="opacity" d="M2 10v36c0 3.2 5.3 5.9 13 7.2v-36c-7.7-1.3-13-4-13-7.2z" fill="#000064" opacity=".18"/><ellipse data-name="stroke" cx="25" cy="10" rx="23" ry="8" fill="none" stroke="#2e4369" stroke-linecap="round" stroke-linejoin="round" stroke-width="2"/><path data-name="stroke" fill="none" stroke="#2e4369" stroke-linecap="round" stroke-linejoin="round" stroke-width="2" d="M48 36V10m0 12c0 4.4-10.3 8-23 8S2 26.4 2 22m35.5 18.7A58.1 58.1 0 0 1 25 42c-12.7 0-23-3.6-23-8"/><path data-name="stroke" d="M38.4 52.5A56.8 56.8 0 0 1 25 54c-12.7 0-23-3.6-23-8V10" fill="none" stroke="#2e4369" stroke-linecap="round" stroke-linejoin="round" stroke-width="2"/><circle data-name="stroke" cx="46" cy="46" r="10" fill="none" stroke="#2e4369" stroke-linecap="round" stroke-linejoin="round" stroke-width="2"/><path data-name="stroke" fill="none" stroke="#2e4369" stroke-linecap="round" stroke-linejoin="round" stroke-width="2" d="M53.2 53.2L62 62"/></svg>