<svg xmlns="http://www.w3.org/2000/svg" viewBox="0 0 64 64" aria-labelledby="title" aria-describedby="desc"><path data-name="layer2" d="M62.4 59.6L54.8 52a12 12 0 1 0-2.8 2.8l7.6 7.6a2 2 0 1 0 2.8-2.8zM37 45a8 8 0 1 1 8 8 8 8 0 0 1-8-8z" fill="#202020"/><path data-name="layer1" d="M40.5 29.7A15.9 15.9 0 0 1 45 29h2v-3a17.5 17.5 0 0 1-6.5 3.7z" fill="#202020"/><ellipse data-name="layer1" cx="24" cy="9" rx="23" ry="8" fill="#202020"/><path data-name="layer1" d="M29 45c0-.4 0-.8.1-1.3L24 44c-9.4 0-19-2-23-5.8V45c0 4.3 9.8 7.8 22.1 8h8a15.9 15.9 0 0 1-2.1-8zm-5-17c13.6 0 23-3.9 23-6v-6.2C42 19.3 33 21 24 21S6 19.3 1 15.8V22c0 2 9.4 6 23 6z" fill="#202020"/><path data-name="layer1" d="M24 40l5.9-.3A16.1 16.1 0 0 1 40 29.8 55.7 55.7 0 0 1 24 32c-9.4 0-19-2-23-5.8V34c0 2 9.4 6 23 6z" fill="#202020"/></svg>