<svg xmlns="http://www.w3.org/2000/svg" viewBox="0 0 64 64" aria-labelledby="title" aria-describedby="desc"><circle data-name="opacity" cx="46" cy="46" r="10" fill="#fff" opacity=".4"/><path data-name="layer1" d="M29 2.5L2 22v26h34.2A10 10 0 1 1 56 46V22z" fill="#fff4e3"/><path data-name="opacity" d="M30 47c0 .3 0 .7.1 1h6.2a10 10 0 0 1 5.2-10.9H40A10 10 0 0 0 30 47zm-1-19l8.1 6L56 22 29 2.5 2 22l18.9 12 8.1-6z" fill="#000064" opacity=".14"/><path data-name="stroke" fill="none" stroke="#2e4369" stroke-linecap="round" stroke-miterlimit="10" stroke-width="2" d="M56 32V22L29 2.5 2 22v26h34" stroke-linejoin="round"/><path data-name="stroke" fill="none" stroke="#2e4369" stroke-linecap="round" stroke-miterlimit="10" stroke-width="2" d="M2 48l27-20 12.4 9.1M2 22l18.9 12" stroke-linejoin="round"/><circle data-name="stroke" cx="46" cy="46" r="10" fill="none" stroke="#2e4369" stroke-linecap="round" stroke-miterlimit="10" stroke-width="2" stroke-linejoin="round"/><path data-name="stroke" fill="none" stroke="#2e4369" stroke-linecap="round" stroke-miterlimit="10" stroke-width="2" d="M53.1 53.1L62 62m-6-40L37.1 34" stroke-linejoin="round"/></svg>