<svg xmlns="http://www.w3.org/2000/svg" viewBox="0 0 64 64" aria-labelledby="title" aria-describedby="desc"><path data-name="layer1" d="M2 12v36h34.2A10 10 0 1 1 56 46V12z" fill="#fff4e3"/><path data-name="opacity" fill="#000064" opacity=".14" d="M2 12l27 20.6L56 12v1.5L26 40 2 16.5V12zm28 35c0 .3 0 .7.1 1h6.2a10 10 0 0 1 5.2-10.9H40A10 10 0 0 0 30 47z"/><circle data-name="opacity" cx="46" cy="46" r="10" fill="#fff" opacity=".4"/><path data-name="stroke" fill="none" stroke="#2e4369" stroke-linecap="round" stroke-miterlimit="10" stroke-width="2" d="M36 48H2V12h54v20" stroke-linejoin="round"/><path data-name="stroke" fill="none" stroke="#2e4369" stroke-linecap="round" stroke-miterlimit="10" stroke-width="2" d="M2 12l27 20.6L56 12" stroke-linejoin="round"/><circle data-name="stroke" cx="46" cy="46" r="10" fill="none" stroke="#2e4369" stroke-linecap="round" stroke-miterlimit="10" stroke-width="2" stroke-linejoin="round"/><path data-name="stroke" fill="none" stroke="#2e4369" stroke-linecap="round" stroke-miterlimit="10" stroke-width="2" d="M53.1 53.1L62 62" stroke-linejoin="round"/></svg>