<svg viewBox="0 0 64 64" xmlns="http://www.w3.org/2000/svg" aria-labelledby="title" aria-describedby="desc"><path fill="#202020" d="M62.414 55.586l-7.645-7.646a12.042 12.042 0 1 0-2.825 2.832l7.643 7.642a2 2 0 0 0 2.828-2.828zM36.988 41.012a8 8 0 1 1 8 8 8.009 8.009 0 0 1-8-8z" data-name="layer3"/><path fill="#202020" d="M28.988 41.012A15.971 15.971 0 0 1 53 27.184V19H1v30h30.146a15.88 15.88 0 0 1-2.158-7.988z" data-name="layer2"/><path fill="#202020" d="M1 5v10h52V5zm6 7a2 2 0 1 1 2-2 2 2 0 0 1-2 2zm6 0a2 2 0 1 1 2-2 2 2 0 0 1-2 2zm6 0a2 2 0 1 1 2-2 2 2 0 0 1-2 2z" data-name="layer1"/></svg>