<svg xmlns="http://www.w3.org/2000/svg" viewBox="0 0 64 64" aria-labelledby="title" aria-describedby="desc"><path data-name="layer3" d="M26 46a20 20 0 1 1 20-20 20.022 20.022 0 0 1-20 20z" fill="#bacae9"/><path data-name="layer2" d="M26 11a15 15 0 1 0 15 15 15.016 15.016 0 0 0-15-15z" fill="#f3f8ff"/><path data-name="opacity" d="M26 11a14.97 14.97 0 0 0-11.984 6.016 14.971 14.971 0 0 1 20.967 20.967A14.98 14.98 0 0 0 26 11z" opacity=".13"/><path data-name="layer1" d="M42.514 37.27L58.12 52.88a3 3 0 1 1-4.242 4.242L38.422 41.664" fill="#93acdd"/><path data-name="stroke" d="M26 46a20 20 0 1 1 20-20 20.022 20.022 0 0 1-20 20z" fill="none" stroke="#2e4369" stroke-linecap="round" stroke-linejoin="round" stroke-width="2"/><path data-name="stroke" d="M26 11a15 15 0 1 0 15 15 15.016 15.016 0 0 0-15-15zm16.514 26.27L58.12 52.88a3 3 0 1 1-4.242 4.242L38.422 41.664" fill="none" stroke="#2e4369" stroke-linecap="round" stroke-linejoin="round" stroke-width="2"/></svg>