<svg xmlns="http://www.w3.org/2000/svg" viewBox="0 0 64 64" aria-labelledby="title" aria-describedby="desc"><path data-name="layer2" fill="#ebf5ff" d="M44 46V28H10v24h28v-6h6z"/><path data-name="layer3" d="M50 30a6 6 0 0 1 2 .3V8.7L45.3 2H42v16.3a1.7 1.7 0 0 1-1.7 1.7H23.7a1.7 1.7 0 0 1-1.7-1.7V2H2v50h8V28h34v8a6 6 0 0 1 6-6z" fill="#7f95ad"/><path data-name="layer2" d="M23.7 20h16.6a1.7 1.7 0 0 0 1.7-1.7V2H22v16.3a1.7 1.7 0 0 0 1.7 1.7z" fill="#ebf5ff"/><path data-name="opacity" fill="#000064" opacity=".15" d="M33 49H6V2H2v50h36v-4h-5v1zm12-17a6 6 0 0 0-6 6v8h5V36a6 6 0 0 1 1.5-4z"/><path data-name="layer1" fill="#f8da82" d="M38 46h24v16H38z"/><path data-name="stroke" fill="none" stroke="#2e4369" stroke-linecap="round" stroke-miterlimit="10" stroke-width="2" d="M38 52H2V2h43.3L52 8.7v21.4" stroke-linejoin="round"/><path data-name="stroke" fill="none" stroke="#2e4369" stroke-linecap="round" stroke-miterlimit="10" stroke-width="2" d="M44 36v-8H10v24m24-42v4m8-12v16.3a1.7 1.7 0 0 1-1.7 1.7H23.7a1.7 1.7 0 0 1-1.7-1.7V2m16 44h24v16H38zm6 0V36a6 6 0 0 1 6-6 6 6 0 0 1 6 6v10m-6 6v4" stroke-linejoin="round"/></svg>