<svg xmlns="http://www.w3.org/2000/svg" viewBox="0 0 64 64" aria-labelledby="title" aria-describedby="desc"><path data-name="layer2" fill="#fc6" d="M38 46h24v16H38z"/><path data-name="layer1" d="M44.5 46l-.5-1a9.9 9.9 0 0 0-5-3c-7.9-2.3-9-4.4-9-6v-2a61.7 61.7 0 0 0 12-2c-3.3-3.3-6-4.3-6-18C36 2.3 28.8 1.2 22 2.4S12 8 12 14c0 13.7-2.7 14.7-6 18a61.4 61.4 0 0 0 12 2v2c0 1.6-1.1 3.8-9 6s-7 8-7 8h36v-4z" fill="#a5d0ec"/><path data-name="opacity" fill="#000064" opacity=".15" d="M38 46h4v16h-4z"/><path data-name="opacity" fill="#fff" opacity=".15" d="M59 46h3v16h-3z"/><path data-name="opacity" d="M15 42c7.9-2.3 9-4.4 9-6-1.7 0-5.5-2.6-11-4 3.3-3.3 4-4.3 4-18 0-6 4.7-11.6 11-11.6h.6a18.4 18.4 0 0 0-6.6.1C15.7 2.4 12 8 12 14c0 13.7-2.7 14.7-6 18a61.4 61.4 0 0 0 12 2v2c0 1.6-1.1 3.7-9 6s-7 8-7 8h6s0-6 7-8zm18 5h5v3h-5z" fill="#000064" opacity=".15"/><path data-name="stroke" d="M38 50H2s0-6 7-8 9-4.4 9-6v-2a61.4 61.4 0 0 1-12-2c3.3-3.3 6-4.3 6-18 0-6 3.7-11.6 10-11.6S36 2.3 36 14c0 13.7 2.7 14.7 6 18a61.7 61.7 0 0 1-12 2v2c0 1.6 1.1 3.7 9 6a9.9 9.9 0 0 1 5 3" fill="none" stroke="#2e4369" stroke-linecap="round" stroke-linejoin="round" stroke-width="2"/><path data-name="stroke" fill="none" stroke="#2e4369" stroke-linecap="round" stroke-linejoin="round" stroke-width="2" d="M38 46h24v16H38zm6 0V36a6 6 0 0 1 6-6 6 6 0 0 1 6 6v10m-6 6v3.9"/></svg>