<svg xmlns="http://www.w3.org/2000/svg" viewBox="0 0 64 64" aria-labelledby="title" aria-describedby="desc"><path data-name="layer3" d="M36 46h6V36a6 6 0 0 1 2-4.5V18H28V2H4v54h32z" fill="#ebf5ff"/><path data-name="layer2" fill="#fff" d="M44 18L28 2v16h16z"/><path data-name="opacity" fill="#000064" opacity=".15" d="M24 2v21h20v-5H28V2h-4z"/><path data-name="layer1" fill="#fc6" d="M36 46h24v16H36z"/><path data-name="opacity" fill="#000064" opacity=".15" d="M31 48h5v8h-5zm6-10v8h5V36a6 6 0 0 1 1.5-4H43a6 6 0 0 0-6 6z"/><path data-name="stroke" fill="none" stroke="#2e4369" stroke-linecap="round" stroke-miterlimit="10" stroke-width="2" d="M36 56H4V2h24l16 16v13.5" stroke-linejoin="round"/><path data-name="stroke" fill="none" stroke="#2e4369" stroke-linecap="round" stroke-miterlimit="10" stroke-width="2" d="M28 2v16h16m-8 28h24v16H36zm6 0V36a6 6 0 0 1 6-6 6 6 0 0 1 6 6v10m-6 6v4" stroke-linejoin="round"/></svg>