<svg xmlns="http://www.w3.org/2000/svg" viewBox="0 0 64 64" aria-labelledby="title" aria-describedby="desc"><path data-name="layer4" d="M48 28.1l-5.5-10a3.7 3.7 0 0 0-3.1-2H17.3a3.2 3.2 0 0 0-2.6 2l-5 10" fill="#bacae9"/><path data-name="layer3" d="M59 28.1H5a3 3 0 0 0-3 3v11h4a6 6 0 0 1 12 0h28a6 6 0 0 1 12 0h4v-11a3 3 0 0 0-3-3z" fill="#ed7164"/><circle data-name="layer2" cx="12" cy="42" r="6" fill="#7b8baf"/><circle data-name="layer2" cx="52" cy="42" r="6" fill="#7b8baf"/><circle data-name="layer1" cx="11.9" cy="42.1" r="3" fill="#536897"/><circle data-name="layer1" cx="52" cy="42.1" r="3" fill="#536897"/><path data-name="opacity" d="M41.8 17.2L30.9 28.1h8.8l5.4-5.4-2.6-4.6a4.3 4.3 0 0 0-.7-.9zm-13.7-1.1l-12 12h6.1l12-12z" fill="#fff" opacity=".5"/><path d="M6 39.1v-11H5a3 3 0 0 0-3 3v11h4a6 6 0 0 1 .8-3zm51.2 0a6 6 0 0 1 .8 3h4v-3zm-40 0a6 6 0 0 1 .8 3h28a6 6 0 0 1 .8-3z" opacity=".15"/><path data-name="stroke" d="M48 28l-5.5-10a3.7 3.7 0 0 0-3.1-2H17.3a3.2 3.2 0 0 0-2.6 2l-5 10M58 42h4V31a3 3 0 0 0-3-3H5a3 3 0 0 0-3 3v11h4m12 0h28" fill="none" stroke="#2e4369" stroke-linecap="round" stroke-linejoin="round" stroke-width="2"/><circle data-name="stroke" cx="12" cy="42" r="6" fill="none" stroke="#2e4369" stroke-linecap="round" stroke-linejoin="round" stroke-width="2"/><circle data-name="stroke" cx="52" cy="42" r="6" fill="none" stroke="#2e4369" stroke-linecap="round" stroke-linejoin="round" stroke-width="2"/></svg>