<svg xmlns="http://www.w3.org/2000/svg" viewBox="0 0 64 64" aria-labelledby="title" aria-describedby="desc"><path data-name="layer2" d="M36 45v4a13 13 0 0 1-26 0V34h.561a3 3 0 0 0 2.939-3.589l-1.2-6a3 3 0 0 0-2.3-2.334v-2.952a1 1 0 0 0-2 0v2.952a3 3 0 0 0-2.3 2.334l-1.2 6A3 3 0 0 0 7.439 34H8v15a15 15 0 0 0 30 0v-4z" fill="#202020"/><path data-name="layer1" d="M56 5h-6.3a7 7 0 0 0-13.4 0H30a5.006 5.006 0 0 0-5 5v22a11.012 11.012 0 0 0 11 11h6v3a3 3 0 0 0 3 3h2a3 3 0 0 0 3-3v-3a11.012 11.012 0 0 0 11-11V10a5.006 5.006 0 0 0-5-5zM43 2a4.969 4.969 0 0 1 4.567 3h-9.134A4.969 4.969 0 0 1 43 2zm-7.947 30.891a3.942 3.942 0 0 1-2.869-2.646c-1.025-3.351 2.5-6.531 3.726-10.909a.091.091 0 0 1 .178 0C37.167 23.169 40 26.085 40 29a4.006 4.006 0 0 1-4.947 3.891zM48 46a1 1 0 0 1-1 1h-2a1 1 0 0 1-1-1v-3h4zm9-12h-5a1 1 0 0 1 0-2h5a1 1 0 0 1 0 2zm0-6h-6a1 1 0 0 1 0-2h6a1 1 0 0 1 0 2zm0-6h-5a1 1 0 0 1 0-2h5a1 1 0 0 1 0 2zm2-8H27v-4a3 3 0 0 1 3-3h26a3 3 0 0 1 3 3z" fill="#202020"/></svg>