<svg xmlns="http://www.w3.org/2000/svg" viewBox="0 0 64 64" aria-labelledby="title" aria-describedby="desc"><path data-name="layer1" d="M58 11a4.012 4.012 0 0 0-4-4H30a4.012 4.012 0 0 0-4 4v4h32z" fill="#cbe5ff"/><path data-name="layer2" d="M26 15v16a10.029 10.029 0 0 0 10 10h12a10.029 10.029 0 0 0 10-10V15z" fill="#53a9ff"/><path data-name="opacity" d="M35.911 18.336c-1.231 4.378-4.751 7.559-3.726 10.909a3.942 3.942 0 0 0 2.869 2.646A4.006 4.006 0 0 0 40 28c0-2.915-2.833-5.831-3.911-9.664a.091.091 0 0 0-.178 0z" fill="#fff" opacity=".5"/><path data-name="layer2" d="M9.36 22h-.72a2 2 0 0 0-1.961 1.608l-1.2 6A2 2 0 0 0 7.44 32h3.12a2 2 0 0 0 1.961-2.392l-1.2-6A2 2 0 0 0 9.36 22z" fill="#53a9ff"/><path data-name="layer1" d="M49 41v4a2 2 0 0 1-2 2h-2a2 2 0 0 1-2-2v-4z" fill="#cbe5ff"/><path data-name="opacity" d="M8.64 22a2 2 0 0 0-1.961 1.608l-1.2 6A2 2 0 0 0 7.44 32H9V22zM33 31V11a4.012 4.012 0 0 1 4-4h-4a4.012 4.012 0 0 0-4 4v20a10.029 10.029 0 0 0 10 10h4a10.029 10.029 0 0 1-10-10z" fill="#000064" opacity=".16"/><path data-name="opacity" d="M51 7h-4a4.012 4.012 0 0 1 4 4v20a10.029 10.029 0 0 1-10 10h4a10.029 10.029 0 0 0 10-10V11a4.012 4.012 0 0 0-4-4z" fill="#fff" opacity=".5"/><path data-name="stroke" d="M9 32v16a14 14 0 0 0 28 0v-7m-1.089-22.664c-1.231 4.378-4.751 7.559-3.726 10.909a3.942 3.942 0 0 0 2.869 2.646A4.006 4.006 0 0 0 40 28c0-2.915-2.833-5.831-3.911-9.664a.091.091 0 0 0-.178 0z" fill="none" stroke="#2e4369" stroke-linecap="round" stroke-miterlimit="10" stroke-width="2" stroke-linejoin="round"/><path data-name="stroke" d="M48 41H36a10 10 0 0 1-10-10V11a4 4 0 0 1 4-4h24a4 4 0 0 1 4 4v20a10 10 0 0 1-10 10zm-.083-34A6 6 0 0 0 42 2a6 6 0 0 0-5.917 5M58 15H26M9.36 22h-.72a2 2 0 0 0-1.961 1.608l-1.2 6A2 2 0 0 0 7.44 32h3.12a2 2 0 0 0 1.961-2.392l-1.2-6A2 2 0 0 0 9.36 22zM9 22v-3.875M43 41v4a2 2 0 0 0 2 2h2a2 2 0 0 0 2-2v-4m9-9h-5m5-6h-6m6-6h-5" fill="none" stroke="#2e4369" stroke-linecap="round" stroke-miterlimit="10" stroke-width="2" stroke-linejoin="round"/></svg>