<svg xmlns="http://www.w3.org/2000/svg" viewBox="0 0 64 64" aria-labelledby="title" aria-describedby="desc"><path data-name="layer2" d="M61.6 15L56.5 4.1A3 3 0 0 0 54 2H10a3.1 3.1 0 0 0-2.6 2.1L2.4 15c-.2 0-.4.6-.4 1v44a2 2 0 0 0 2 2h56a2 2 0 0 0 2-2V16c0-.4-.1-1-.4-1z" fill="#8fa9d8"/><circle data-name="layer1" cx="11" cy="22" r="2" fill="#44d88d"/><circle data-name="layer1" cx="11" cy="38" r="2" fill="#44d88d"/><circle data-name="layer1" cx="11" cy="54" r="2" fill="#44d88d"/><path data-name="opacity" d="M4 14h56c.7 0 1.3 0 1.6 1L56.5 4.1A3 3 0 0 0 54 2H10a3.1 3.1 0 0 0-2.6 2.1L2.4 15c.3-1 .9-1 1.6-1z" fill="#fff" opacity=".3"/><rect data-name="stroke" x="2" y="14" width="60" height="48" rx="2" ry="2" fill="none" stroke="#2e4369" stroke-linecap="round" stroke-linejoin="round" stroke-width="2"/><path data-name="stroke" d="M2.4 14.8L7.4 4A3 3 0 0 1 10 2h44a2.9 2.9 0 0 1 2.5 2l5.2 10.8M54 54H34M2 46h60m-8-8H34m20-16H34M2 30h60" fill="none" stroke="#2e4369" stroke-linecap="round" stroke-linejoin="round" stroke-width="2"/><circle data-name="stroke" cx="11" cy="22" r="2" fill="none" stroke="#2e4369" stroke-linecap="round" stroke-linejoin="round" stroke-width="2"/><circle data-name="stroke" cx="11" cy="38" r="2" fill="none" stroke="#2e4369" stroke-linecap="round" stroke-linejoin="round" stroke-width="2"/><circle data-name="stroke" cx="11" cy="54" r="2" fill="none" stroke="#2e4369" stroke-linecap="round" stroke-linejoin="round" stroke-width="2"/></svg>