<svg xmlns="http://www.w3.org/2000/svg" viewBox="0 0 64 64" aria-labelledby="title" aria-describedby="desc"><path data-name="layer3" d="M58 16v39a2 2 0 0 1-2 2 2 2 0 0 1-2-2V16M6 52V6a2 2 0 0 1 2-2 2 2 0 0 1 2 2v46m24-18v21a2 2 0 0 1-2 2 2 2 0 0 1-2-2V34m0-6V6a2 2 0 0 1 2-2 2 2 0 0 1 2 2v22m20-18V6a2 2 0 0 1 2-2 2 2 0 0 1 2 2v4" fill="#7394c9"/><path data-name="layer2" fill="#dde5f4" d="M26 28h12v6H26zM2 52h12v6H2zm48-42h12v6H50z"/><path data-name="layer1" fill="#fff" d="M26 28h12v2H26zM2 52h12v2H2zm48-42h12v2H50z"/><path data-name="opacity" opacity=".2" d="M30 34h4v4h-4zm24-18h4v4h-4z"/><path data-name="stroke" fill="none" stroke="#2e4369" stroke-linecap="round" stroke-linejoin="round" stroke-width="2" d="M26 28h12v6H26zM2 52h12v6H2zm48-42h12v6H50zm8 6v39a2 2 0 0 1-2 2 2 2 0 0 1-2-2V16M6 52V6a2 2 0 0 1 2-2 2 2 0 0 1 2 2v46m24-18v21a2 2 0 0 1-2 2 2 2 0 0 1-2-2V34m0-6V6a2 2 0 0 1 2-2 2 2 0 0 1 2 2v22m20-18V6a2 2 0 0 1 2-2 2 2 0 0 1 2 2v4"/></svg>