<svg viewBox="0 0 64 64" xmlns="http://www.w3.org/2000/svg" aria-labelledby="title" aria-describedby="desc"><path fill="#202020" d="M58.613 45.082A11.793 11.793 0 0 0 58.8 43a11.92 11.92 0 0 0-.223-2.254l3.086-1.781-4-6.93-3.133 1.809A12.012 12.012 0 0 0 50.8 31.7V28h-8v3.7a12 12 0 0 0-3.7 2.117l-3.082-1.781-4 6.93 3.013 1.734A11.747 11.747 0 0 0 34.8 43a11.911 11.911 0 0 0 .2 2.125l-3.312 1.91 4 6.93 3.281-1.894A12.012 12.012 0 0 0 42.8 54.3V58h8v-3.7a12.1 12.1 0 0 0 3.871-2.262L58 53.965l4-6.93zM46.842 48a5 5 0 1 1 5-5 5 5 0 0 1-5 5z" data-name="layer3"/><path fill="#202020" d="M28.22 49.034a4 4 0 0 1 1.466-5.464l.366-.212a16.231 16.231 0 0 1-.05-.941 4 4 0 0 1-1.446-5.451l4-6.93a3.983 3.983 0 0 1 5.089-1.65c.385-.236.778-.458 1.184-.662A3.989 3.989 0 0 1 42.8 24h8a3.983 3.983 0 0 1 3.2 1.621V20H2v30h26.777z" data-name="layer2"/><path fill="#202020" d="M2 6v10h52V6zm6 7a2 2 0 1 1 2-2 2 2 0 0 1-2 2zm6 0a2 2 0 1 1 2-2 2 2 0 0 1-2 2zm6 0a2 2 0 1 1 2-2 2 2 0 0 1-2 2z" data-name="layer1"/></svg>