<svg xmlns="http://www.w3.org/2000/svg" viewBox="0 0 64 64" aria-labelledby="title" aria-describedby="desc"><path data-name="layer1" d="M16.999 26a2.991 2.991 0 0 0 2.25-1.015L29 13.935V47a3 3 0 0 0 6 0V13.586l9.812 10.466a3 3 0 0 0 4.377-4.104L32 2 14.75 21.016A3 3 0 0 0 17 26z" fill="#bacae9"/><path data-name="layer1" d="M55 42a3 3 0 0 0-3 3v11H12V45a3 3 0 0 0-6 0v14a3 3 0 0 0 3 3h46a3 3 0 0 0 3-3V45a3 3 0 0 0-3-3z" fill="#bacae9"/><path data-name="stroke" d="M16.999 26a2.991 2.991 0 0 0 2.25-1.015L29 13.935V47a3 3 0 0 0 6 0V13.586l9.812 10.466a3 3 0 0 0 4.377-4.104L32 2 14.75 21.016A3 3 0 0 0 17 26z" fill="none" stroke="#2e4369" stroke-linecap="round" stroke-linejoin="round" stroke-width="2"/><path data-name="stroke" d="M55 42a3 3 0 0 0-3 3v11H12V45a3 3 0 0 0-6 0v14a3 3 0 0 0 3 3h46a3 3 0 0 0 3-3V45a3 3 0 0 0-3-3z" fill="none" stroke="#2e4369" stroke-linecap="round" stroke-linejoin="round" stroke-width="2"/></svg>