<svg viewBox="0 0 64 64" xmlns="http://www.w3.org/2000/svg" aria-labelledby="title" aria-describedby="desc"><path stroke-width="2" stroke-miterlimit="10" stroke-linecap="round" stroke="#202020" fill="none" d="M17 27a3 3 0 0 0 2.3-1L29 14.9V47a3 3 0 0 0 6 0V14.6l9.8 10.5a3 3 0 0 0 4.4-4.1L32 3 14.8 22a3 3 0 0 0 2.2 5z" data-name="layer2" stroke-linejoin="round"/><path stroke-width="2" stroke-miterlimit="10" stroke-linecap="round" stroke="#202020" fill="none" d="M55 42a3 3 0 0 0-3 3v11H12V45a3 3 0 0 0-6 0v14a3 3 0 0 0 3 3h46a3 3 0 0 0 3-3V45a3 3 0 0 0-3-3z" data-name="layer1" stroke-linejoin="round"/></svg>