<svg xmlns="http://www.w3.org/2000/svg" viewBox="0 0 64 64" aria-labelledby="title" aria-describedby="desc"><path data-name="layer1" d="M59.3 36.3a29.863 29.863 0 0 0 .4-4.3A28.487 28.487 0 0 0 31.2 3.5a20.24 20.24 0 0 0-4.3.4A16.646 16.646 0 0 0 16.3 0 16.3 16.3 0 0 0 0 16.3a16.075 16.075 0 0 0 3.3 9.8 29.822 29.822 0 0 0-.7 6 28.487 28.487 0 0 0 28.5 28.5A28.8 28.8 0 0 0 37 60a16.282 16.282 0 0 0 22.3-23.7zm-14.8 8.2a11.965 11.965 0 0 1-4.9 3.8 19.972 19.972 0 0 1-7.7 1.4 17.659 17.659 0 0 1-8.8-1.9 11.551 11.551 0 0 1-4-3.6 7.722 7.722 0 0 1-1.5-4.3 2.878 2.878 0 0 1 .9-2.1 3.244 3.244 0 0 1 2.4-.9 2.883 2.883 0 0 1 2 .7 5.4 5.4 0 0 1 1.4 2 14.95 14.95 0 0 0 1.5 2.6A6.661 6.661 0 0 0 28 44a8.325 8.325 0 0 0 3.8.7 9.475 9.475 0 0 0 5.3-1.4 3.968 3.968 0 0 0 2-3.5 3.693 3.693 0 0 0-1.1-2.7 7.624 7.624 0 0 0-2.8-1.6c-1.2-.4-2.7-.7-4.6-1.2a33.643 33.643 0 0 1-6.5-2 12.108 12.108 0 0 1-4.2-3.1 7.638 7.638 0 0 1-1.5-4.8 7.99 7.99 0 0 1 1.6-4.9 10.478 10.478 0 0 1 4.7-3.3 20.18 20.18 0 0 1 7.2-1.1 16.354 16.354 0 0 1 5.7.8 12.468 12.468 0 0 1 4 2 7.849 7.849 0 0 1 2.3 2.6 5.443 5.443 0 0 1 .7 2.7 3.243 3.243 0 0 1-3.2 3.2 2.707 2.707 0 0 1-1.9-.6 8.449 8.449 0 0 1-1.4-1.9 8.68 8.68 0 0 0-2.4-2.9 7.274 7.274 0 0 0-4.4-1.1 8.94 8.94 0 0 0-4.6 1.1 3.2 3.2 0 0 0-1.7 2.7 2.523 2.523 0 0 0 .6 1.7 3.978 3.978 0 0 0 1.6 1.2 18.028 18.028 0 0 0 2.1.8c.7.2 1.9.5 3.5.9a54.806 54.806 0 0 1 5.5 1.4 20.43 20.43 0 0 1 4.2 1.9 7.483 7.483 0 0 1 2.7 2.9 9.3 9.3 0 0 1 1 4.2 10.465 10.465 0 0 1-1.7 5.8z" fill="#202020"/></svg>