<svg xmlns="http://www.w3.org/2000/svg" viewBox="0 0 64 64" aria-labelledby="title" aria-describedby="desc"><path data-name="layer1" d="M52 42a10 10 0 0 0-7.2 3.1l-.4-.2-22.1-11.1-.4-.2a9.3 9.3 0 0 0 0-3.3l.4-.2 22.1-10.9.4-.2a10.2 10.2 0 1 0-2.6-5.3l-.4.2-22.2 10.9-.4.2a10 10 0 1 0 0 13.8l.4.2 22.1 11.2.4.2A10 10 0 1 0 52 42z" fill="#8ca0c8"/><path data-name="opacity" d="M5 27a10 10 0 0 1 .3-2.4 10 10 0 1 0 16.4 9.8A10 10 0 0 1 5 27zm47-5a10 10 0 0 0 9.7-7.6 10 10 0 0 1-16.4-9.8A10 10 0 0 0 52 22zm-7 25a10 10 0 0 1 .3-2.4 10 10 0 1 0 16.4 9.8A10 10 0 0 1 45 47z" fill="#000064" opacity=".14"/><path data-name="opacity" d="M44.4 19.2l.4-.2a10 10 0 0 1-2.6-5.3l-.4.2-6.6 3.3a9.9 9.9 0 0 0 2.4 5.5zM21.9 33.6a10 10 0 0 1-2.6 5.3l.4.2 4.2 2.1a9.9 9.9 0 0 0 2.1-5.6l-3.7-1.8zm17.8 8.9a10 10 0 0 0-4 4.7l6 3 .4.2a10 10 0 0 1 2.6-5.3l-.4-.2z" fill="#000064" opacity=".14"/><path data-name="stroke" d="M52 42a10 10 0 0 0-7.2 3.1l-.4-.2-22.1-11.1-.4-.2a9.3 9.3 0 0 0 0-3.3l.4-.2 22.1-10.9.4-.2a10.2 10.2 0 1 0-2.6-5.3l-.4.2-22.2 10.9-.4.2a10 10 0 1 0 0 13.8l.4.2 22.1 11.2.4.2A10 10 0 1 0 52 42z" fill="none" stroke="#2e4369" stroke-linecap="round" stroke-miterlimit="10" stroke-width="2" stroke-linejoin="round"/></svg>