<svg xmlns="http://www.w3.org/2000/svg" viewBox="0 0 64 64" aria-labelledby="title" aria-describedby="desc"><path data-name="layer4" d="M32 2H6v22.064A35.42 35.42 0 0 0 6.361 29h25.636z" fill="#fc6"/><path data-name="layer3" d="M32 2l-.003 27h25.639A35.224 35.224 0 0 0 58 24.064V2z" fill="#f66"/><path data-name="layer2" d="M6.361 29a42.063 42.063 0 0 0 25.633 33l.003-33z" fill="#5ade9c"/><path data-name="layer1" d="M31.994 62a42.029 42.029 0 0 0 25.642-33H31.997z" fill="#49bcff"/><path data-name="stroke" d="M6 2h52v22.064A41.975 41.975 0 0 1 31.994 62 41.97 41.97 0 0 1 6 24.064zm26 0l-.006 60M6.358 29h51.28" fill="none" stroke="#2e4369" stroke-linecap="round" stroke-linejoin="round" stroke-width="2"/></svg>