<svg xmlns="http://www.w3.org/2000/svg" viewBox="0 0 64 64" aria-labelledby="title" aria-describedby="desc"><path data-name="layer1" d="M30 48.892V62h5.995l.001-13.113 2.765 3.11a3 3 0 1 0 4.484-3.988L33.003 36.003 22.76 48.01a3 3 0 1 0 4.485 3.984zm13.24-32.91a3 3 0 0 0-4.486-3.984l-2.762 3.108L35.994 2H30v13.113L27.24 12a3 3 0 1 0-4.487 3.981l10.25 12.022z" fill="#bacae9"/><path data-name="stroke" d="M30 48.892V62h5.995l.001-13.113 2.765 3.11a3 3 0 1 0 4.484-3.988L33.003 36.003 22.76 48.01a3 3 0 1 0 4.485 3.984zm13.24-32.91a3 3 0 0 0-4.486-3.984l-2.762 3.108L35.994 2H30v13.113L27.24 12a3 3 0 1 0-4.487 3.981l10.25 12.022z" fill="none" stroke="#2e4369" stroke-linecap="round" stroke-linejoin="round" stroke-width="2"/></svg>