<svg xmlns="http://www.w3.org/2000/svg" viewBox="0 0 64 64" aria-labelledby="title" aria-describedby="desc"><path data-name="layer1" d="M53.121 36.879a3 3 0 0 0-4.242 4.242L51.758 44H41.442l-9.264-12.42L41.442 20h10.316l-2.88 2.879a3 3 0 1 0 4.243 4.242l8-8a2.999 2.999 0 0 0 0-4.242l-8-8a3 3 0 1 0-4.242 4.242L51.758 14H40a3 3 0 0 0-2.343 1.126l-9.492 11.865-9.822-11.865A3 3 0 0 0 16 14H5a3 3 0 0 0 0 6h9.558l9.62 11.976L14.557 44H5a3 3 0 0 0 0 6h11a3 3 0 0 0 2.343-1.126l9.853-12.317 9.461 12.317A3 3 0 0 0 40 50h11.758l-2.88 2.879a3 3 0 1 0 4.243 4.242l8-8a2.999 2.999 0 0 0 0-4.242z" fill="#202020"/></svg>