<svg xmlns="http://www.w3.org/2000/svg" viewBox="0 0 64 64" aria-labelledby="title" aria-describedby="desc"><path data-name="layer1" d="M27.198 38.204l6.355 6.534C37.48 48.583 41.61 50 45 50h6.758l-2.88 2.879a3 3 0 1 0 4.243 4.242l8-8a2.999 2.999 0 0 0 0-4.242l-8-8a3 3 0 0 0-4.242 4.242L51.758 44H45c-4.155 0-5.463-1.466-6.504-2.664-.036-.042-7.09-8.827-7.124-8.872M28 27l-5.6-7.8C18.5 14 15.192 14 11 14H5a3 3 0 1 0 0 6h7c3.81 0 3.501.001 5.657 2.874L24 32" fill="#202020"/><path data-name="layer1" d="M38.496 22.664C39.418 21.28 40.845 20 45 20h6.758l-2.88 2.879a3 3 0 1 0 4.243 4.242l8-8a2.999 2.999 0 0 0 0-4.242l-8-8a3 3 0 1 0-4.242 4.242L51.758 14H45c-3.395 0-8.27.549-11.46 5.282L17.6 41.2C15.501 44 15.814 44 12 44H5a3 3 0 0 0 0 6h6.003c4.189 0 7.498 0 11.423-5.234l16-22c.024-.035.048-.067.07-.102z" fill="#202020"/></svg>