<svg xmlns="http://www.w3.org/2000/svg" viewBox="0 0 64 64" aria-labelledby="title" aria-describedby="desc"><path data-name="layer1" fill="#5edc89" d="M26 25h12v30H26zm-12 8h12v22H14zM2 41h12v14H2zM50 9h12v46H50zm-12 8h12v38H38z"/><path data-name="opacity" fill="#fff" opacity=".25" d="M2 41h12v8H2zm12-8h12v8H14zm12-8h12v8H26zm12-8h12v8H38zm12-8h12v8H50z"/><path data-name="stroke" fill="none" stroke="#2e4369" stroke-linecap="round" stroke-miterlimit="10" stroke-width="2" d="M38 55H26V25h12M26 55H14V33h12M14 55H2V41h12M50 9h12v46H50zm0 46H38V17h12" stroke-linejoin="round"/></svg>