<svg xmlns="http://www.w3.org/2000/svg" viewBox="0 0 64 64" aria-labelledby="title" aria-describedby="desc"><circle data-name="layer2" cx="32" cy="32" r="30" fill="#b3c5e5"/><path data-name="opacity" d="M32 2A29.9 29.9 0 0 0 8.9 12.9a30 30 0 0 1 42.2 42.2A30 30 0 0 0 32 2z" fill="#fff" opacity=".25"/><path data-name="layer1" fill="#fff" d="M28 27.9l-10-6.8v21.8l10-6.8v6.8L44 32v-.1L28 21.1v6.8z"/><path data-name="opacity" fill="#000064" opacity=".16" d="M28 27.9l-10-6.8v4l10 6.8v-4zm0-2.8L41.1 34l2.9-2v-.1L28 21.1v4z"/><path data-name="stroke" fill="none" stroke="#2e4369" stroke-linecap="round" stroke-miterlimit="10" stroke-width="2" d="M28 27.9l-10-6.8v21.8l10-6.8v6.8L44 32v-.1L28 21.1v6.8z" stroke-linejoin="round"/><circle data-name="stroke" cx="32" cy="32" r="30" fill="none" stroke="#2e4369" stroke-linecap="round" stroke-miterlimit="10" stroke-width="2" stroke-linejoin="round"/><path data-name="stroke" fill="none" stroke="#2e4369" stroke-linecap="round" stroke-miterlimit="10" stroke-width="2" d="M46 20v24" stroke-linejoin="round"/></svg>