<svg xmlns="http://www.w3.org/2000/svg" viewBox="0 0 64 64" aria-labelledby="title" aria-describedby="desc"><path data-name="layer1" d="M60.463 30.5c-.2.2-.5.3-.7.5V6.2a6.028 6.028 0 0 0-5.8-6.2h-44.9a6.028 6.028 0 0 0-5.8 6.2V31c-.3-.2-.5-.3-.8-.5-1.9-1.3-3.2.5-2 2.2 2.3 2.8 6.6 6.3 13.3 9-7 24 17.2 27.8 16.8 15.5V45.1c.6.1 1.2.3 1.7.4v11.7c-.4 12.3 23.9 8.5 16.8-15.5 6.7-2.7 11-6.2 13.3-9 1.2-1.7 0-3.6-1.9-2.2zm-23.9 6.1c-3-.1-4.1 1.1-4.2 3.1-.7-.5-1.4-1.1-2.2-1.8a1.38 1.38 0 0 0-.4-.3c-.6-.7-1.7-1.1-3.4-1-4 .1-11.2.9-19.7-3.5V9c0-4.4 1.1-5.7 5.1-5.7h39.7c3.8 0 5.1 1.6 5.1 5.7v23.8c-8.6 4.7-16 3.9-20 3.8z" fill="#202020"/><path data-name="layer1" d="M40.863 19.2a7.418 7.418 0 0 0-7.7 7.2 7.481 7.481 0 0 0 7.7 7.2 7.418 7.418 0 0 0 7.7-7.2 7.418 7.418 0 0 0-7.7-7.2z" fill="#202020"/><ellipse data-name="layer1" cx="22.963" cy="26.4" rx="7.7" ry="7.2" fill="#202020"/></svg>