<svg xmlns="http://www.w3.org/2000/svg" viewBox="0 0 64 64" aria-labelledby="title" aria-describedby="desc"><path data-name="layer3" d="M38 30h18a2 2 0 0 1 2 2 2 2 0 0 1-2 2H38M14 6h42a2 2 0 0 1 2 2 2 2 0 0 1-2 2H14m36 48H8a2 2 0 0 1-2-2 2 2 0 0 1 2-2h42M26 34H8a2 2 0 0 1-2-2 2 2 0 0 1 2-2h18" fill="#7394c9"/><path data-name="opacity" d="M14 10h3.651a5.908 5.908 0 0 0 0-4H14zm24 24h3.651a5.908 5.908 0 0 0 0-4H38z" opacity=".2"/><circle data-name="layer2" cx="56" cy="56" r="6" fill="#dde5f4"/><circle data-name="layer2" cx="8" cy="8" r="6" fill="#dde5f4"/><circle data-name="layer2" cx="32" cy="32" r="6" fill="#dde5f4"/><path data-name="layer1" d="M50 56a5.99 5.99 0 0 0 2.881 5.12 5.99 5.99 0 0 1 8.237-8.238A5.995 5.995 0 0 0 50 56zM8 2a5.996 5.996 0 0 0-3.119 11.12 5.99 5.99 0 0 1 8.237-8.238A5.99 5.99 0 0 0 8 2zm18 30a5.99 5.99 0 0 0 2.881 5.12 5.99 5.99 0 0 1 8.237-8.238A5.995 5.995 0 0 0 26 32z" fill="#fff"/><circle data-name="stroke" cx="56" cy="56" r="6" fill="none" stroke="#2e4369" stroke-linecap="round" stroke-linejoin="round" stroke-width="2"/><circle data-name="stroke" cx="8" cy="8" r="6" fill="none" stroke="#2e4369" stroke-linecap="round" stroke-linejoin="round" stroke-width="2"/><circle data-name="stroke" cx="32" cy="32" r="6" fill="none" stroke="#2e4369" stroke-linecap="round" stroke-linejoin="round" stroke-width="2"/><path data-name="stroke" d="M14 6h42a2 2 0 0 1 2 2 2 2 0 0 1-2 2H14m36 48H8a2 2 0 0 1-2-2 2 2 0 0 1 2-2h42M38 30h18a2 2 0 0 1 2 2 2 2 0 0 1-2 2H38m-12 0H8a2 2 0 0 1-2-2 2 2 0 0 1 2-2h18" fill="none" stroke="#2e4369" stroke-linecap="round" stroke-linejoin="round" stroke-width="2"/></svg>