<svg xmlns="http://www.w3.org/2000/svg" viewBox="0 0 64 64" aria-labelledby="title" aria-describedby="desc"><path data-name="layer2" d="M47.5 50l-8.3-5.4a3.9 3.9 0 0 0-5.2 1c-1.9 2.3-4.2 6.2-13-2.6s-4.9-11.1-2.6-13a3.9 3.9 0 0 0 1-5.2L14 16.5c-.7-1.1-1.7-2.8-3.9-2.4A11.5 11.5 0 0 0 2 24.8c0 7.2 5.7 16 13.4 23.7S32 62 39.2 62A11.5 11.5 0 0 0 50 54c.3-2.3-1.4-3.3-2.5-4z" fill="#202020"/><path data-name="layer1" d="M59.4 2H30.6A2.6 2.6 0 0 0 28 4.6v18.8a2.6 2.6 0 0 0 2.6 2.6H38v7l7-7h14.4a2.6 2.6 0 0 0 2.6-2.6V4.6A2.6 2.6 0 0 0 59.4 2zm-20 13.4a2 2 0 0 1-1.4.6 2 2 0 0 1-1.4-3.4 2.1 2.1 0 0 1 2.8 0 2 2 0 0 1 0 2.8zm7 0a2 2 0 0 1-1.4.6 2.1 2.1 0 0 1-1.4-.6 2 2 0 0 1 0-2.8 2.1 2.1 0 0 1 2.8 0A2 2 0 0 1 47 14a2 2 0 0 1-.6 1.4zm7 0a2 2 0 0 1-1.4.6 2.1 2.1 0 0 1-1.4-.6 2 2 0 0 1 0-2.8 2.1 2.1 0 0 1 2.8 0A2 2 0 0 1 54 14a2 2 0 0 1-.6 1.4z" fill="#202020"/></svg>