<svg xmlns="http://www.w3.org/2000/svg" viewBox="0 0 64 64" aria-labelledby="title" aria-describedby="desc"><path data-name="layer2" d="M48 34a13.9 13.9 0 0 1 8 2.5V12H2v36h32a14 14 0 0 1 14-14z" fill="#fff4e3"/><path data-name="opacity" fill="#000064" opacity=".14" d="M2 12l27 20.6L56 12v1.5L26 40 2 16.5V12z"/><circle data-name="layer1" cx="48" cy="48" r="14" fill="#eefcff"/><path data-name="opacity" d="M28.1 48H34a14 14 0 0 1 8.7-13H42a14 14 0 0 0-13.9 13z" fill="#000064" opacity=".14"/><path data-name="stroke" fill="none" stroke="#2e4369" stroke-linecap="round" stroke-miterlimit="10" stroke-width="2" d="M34 48H2V12h54v24.5" stroke-linejoin="round"/><path data-name="stroke" fill="none" stroke="#2e4369" stroke-linecap="round" stroke-miterlimit="10" stroke-width="2" d="M2 12l27 20.6L56 12m-9 29v9h6" stroke-linejoin="round"/><circle data-name="stroke" cx="48" cy="48" r="14" fill="none" stroke="#2e4369" stroke-linecap="round" stroke-miterlimit="10" stroke-width="2" stroke-linejoin="round"/></svg>