<svg xmlns="http://www.w3.org/2000/svg" viewBox="0 0 64 64" aria-labelledby="title" aria-describedby="desc"><path data-name="layer1" fill="#c4ffff" d="M32 2l-8 10-13.2-1.2L14 25 2 32l13 7-4.2 14.2L25 50l7 12 7-12 14.2 3.2L51 40l11-8-11-8 2.2-13.2L40 12 32 2z"/><path data-name="opacity" fill="#000064" opacity=".15" d="M11 53l-.1-.3-.1.5L25 50l7 12V32L11 53zm20-21H2l13 7 16-7z"/><path data-name="opacity" fill="#fff" opacity=".5" d="M33 32h29l-11-8-18 8zm20-21h.2v-.2L40 12 32 2v30l21-21z"/><path data-name="stroke" fill="none" stroke="#2e4369" stroke-linecap="round" stroke-linejoin="round" stroke-width="2" d="M23.4 3.4L32 12l8.6-8.6M23.4 60.6L32 52l8.6 8.6m-37.2-20L12 32l-8.6-8.6m57.2 17.2L52 32l8.6-8.6M5.8 18H18V5.8m28 52.4V46h12.2M18 58.2V46H5.8m52.4-28H46V5.8M2 32h60M32 2v60M10.8 10.8l42.4 42.4m0-42.4L10.8 53.2"/></svg>