<svg xmlns="http://www.w3.org/2000/svg" viewBox="0 0 64 64" aria-labelledby="title" aria-describedby="desc"><path data-name="layer1" d="M49 12h-.5a17 17 0 0 0-32.3 4.4A11 11 0 1 0 13 38h36a13 13 0 0 0 0-26z" fill="#202020"/><path data-name="layer2" d="M19 42a2 2 0 0 0-2 2 2 2 0 1 0 2-2zm-4 8a2 2 0 0 0-2 2 2 2 0 1 0 2-2zm4 8a2 2 0 0 0-2 2 2 2 0 1 0 2-2zm10-10a2 2 0 1 0-4 0 2 2 0 1 0 4 0zm0 6a2 2 0 0 0-2 2 2 2 0 1 0 2-2zm10-2a2 2 0 1 0-4 0 2 2 0 1 0 4 0zm0-10a2 2 0 0 0-2 2 2 2 0 1 0 2-2zm0 16a2 2 0 0 0-2 2 2 2 0 1 0 2-2zm8-4a2 2 0 0 0-2 2 2 2 0 1 0 2-2zm2-10a2 2 0 0 0-2 2 2 2 0 1 0 2-2z" fill="#202020"/><path data-name="layer1" d="M32 30a2 2 0 0 0-2 2 2 2 0 1 0 2-2z" fill="#202020"/></svg>