<svg xmlns="http://www.w3.org/2000/svg" viewBox="0 0 64 64" aria-labelledby="title" aria-describedby="desc"><path data-name="layer3" fill="#d5e2f4" d="M51.1 28l.9-10H20l.9 10"/><path data-name="layer2" fill="#f5b94b" d="M20.9 28L24 62h24l3.1-34H20.9z"/><path data-name="opacity" fill="#101129" opacity=".18" d="M25 18h-5l.9 10h4.7L25 18zm-4.1 10L24 62h3.8l-2.2-34h-4.7z"/><path data-name="opacity" fill="#fff" opacity=".5" d="M41 18l-.4 10h5.8l.6-10h-6zm-1.8 44h5.1l2.1-34h-5.8l-1.4 34z"/><circle data-name="layer1" cx="46" cy="12" r="1" fill="#fbe9c7"/><circle data-name="layer1" cx="45" cy="5" r="1" fill="#fbe9c7"/><circle data-name="layer1" cx="35" cy="9" r="1" fill="#fbe9c7"/><path data-name="stroke" fill="none" stroke="#2f446a" stroke-linecap="round" stroke-linejoin="round" stroke-width="2" d="M51.1 28l.9-10H20l.9 10m0 0L24 62h24l3.1-34H20.9z"/><path data-name="stroke" d="M12 2h6.5c1.6 0 6.8.9 7.5 6s4 48 4 48" fill="none" stroke="#2f446a" stroke-linecap="round" stroke-linejoin="round" stroke-width="2"/><circle data-name="stroke" cx="45" cy="5" r="1" fill="none" stroke="#2f446a" stroke-linecap="round" stroke-linejoin="round" stroke-width="2"/><circle data-name="stroke" cx="46" cy="12" r="1" fill="none" stroke="#2f446a" stroke-linecap="round" stroke-linejoin="round" stroke-width="2"/><circle data-name="stroke" cx="35" cy="9" r="1" fill="none" stroke="#2f446a" stroke-linecap="round" stroke-linejoin="round" stroke-width="2"/></svg>