<svg viewBox="0 0 64 64" xmlns="http://www.w3.org/2000/svg" aria-labelledby="title" aria-describedby="desc"><path fill="#202020" d="M19 16a2 2 0 0 0 2 2h21.966a2 2 0 0 0 0-4h-6.948a3 3 0 1 0-.039 0h-8.151l-5.412-5.414a2 2 0 0 0-2.828 2.828L22.171 14H21a2 2 0 0 0-2 2z" data-name="layer2"/><circle fill="#202020" r="3" cy="2.999" cx="33.999" data-name="layer2"/><circle fill="#202020" r="3" cy="6.999" cx="42" data-name="layer2"/><path fill="#202020" d="M45.379 22H18.621s-1.175.8-1.546 1.092A2.518 2.518 0 0 0 16 25v32.937a2.983 2.983 0 0 0 .731 2.08c.146.145.982.909 1.808 1.663.771.7 1.533 1.4 1.72 1.584A2.015 2.015 0 0 0 21.75 64h20.5a2.1 2.1 0 0 0 1.551-.8c.128-.128.89-.821 1.661-1.524.825-.754 1.662-1.518 1.808-1.663a2.983 2.983 0 0 0 .73-2.076V25a2.518 2.518 0 0 0-1.075-1.914C46.554 22.8 45.379 22 45.379 22zM32 54c-3.866 0-7-5.373-7-12s3.134-12 7-12 7 5.373 7 12-3.133 12-7 12z" data-name="layer1"/></svg>