<svg viewBox="0 0 64 64" xmlns="http://www.w3.org/2000/svg" aria-labelledby="title" aria-describedby="desc"><path fill="#202020" d="M41.779 52.019c-.361.018-1.3.057-2.574.057-3.463 0-9.344-.287-12.451-2.062a2 2 0 0 1 1.984-3.473c2.371 1.355 8.594 1.639 12.346 1.5C38.5 42.745 28.906 42 23.746 42c-6 0-8 2-12 2v-2h-10v18h10v-4c4 0 8 4 12 4h36c1.954 0 8.043-7.6-17.967-7.981z" data-name="layer3"/><path fill="#202020" d="M15.746 38v1.2a26.758 26.758 0 0 1 8-1.2c7.592 0 17.287 1.407 20.766 8h17.742V18h-50v20z" data-name="layer2"/><path fill="#202020" d="M12.254 4v10h50V4zM18 11a2 2 0 1 1 2-2 2 2 0 0 1-2 2zm6 0a2 2 0 1 1 2-2 2 2 0 0 1-2 2zm6 0a2 2 0 1 1 2-2 2 2 0 0 1-2 2z" data-name="layer1"/></svg>