<svg xmlns="http://www.w3.org/2000/svg" viewBox="0 0 64 64" aria-labelledby="title" aria-describedby="desc"><path data-name="layer3" d="M34 38v18a2 2 0 0 1-2 2 2 2 0 0 1-2-2V38m28-24v42a2 2 0 0 1-2 2 2 2 0 0 1-2-2V14M6 50V8a2 2 0 0 1 2-2 2 2 0 0 1 2 2v42m20-24V8a2 2 0 0 1 2-2 2 2 0 0 1 2 2v18" fill="#7394c9"/><path data-name="opacity" d="M54 14v3.651a5.908 5.908 0 0 0 4 0V14zM30 38v3.651a5.908 5.908 0 0 0 4 0V38z" opacity=".2"/><circle data-name="layer2" cx="8" cy="56" r="6" fill="#dde5f4"/><circle data-name="layer2" cx="56" cy="8" r="6" fill="#dde5f4"/><circle data-name="layer2" cx="32" cy="32" r="6" fill="#dde5f4"/><path data-name="layer1" d="M8 50a5.99 5.99 0 0 0-5.119 2.881 5.99 5.99 0 0 1 8.237 8.238A5.995 5.995 0 0 0 8 50zM62 8a5.995 5.995 0 0 0-11.119-3.119 5.99 5.99 0 0 1 8.237 8.238A5.991 5.991 0 0 0 62 8zM32 26a5.99 5.99 0 0 0-5.119 2.881 5.99 5.99 0 0 1 8.237 8.238A5.995 5.995 0 0 0 32 26z" fill="#fff"/><circle data-name="stroke" cx="8" cy="56" r="6" fill="none" stroke="#2e4369" stroke-linecap="round" stroke-linejoin="round" stroke-width="2"/><circle data-name="stroke" cx="56" cy="8" r="6" fill="none" stroke="#2e4369" stroke-linecap="round" stroke-linejoin="round" stroke-width="2"/><circle data-name="stroke" cx="32" cy="32" r="6" fill="none" stroke="#2e4369" stroke-linecap="round" stroke-linejoin="round" stroke-width="2"/><path data-name="stroke" d="M58 14v42a2 2 0 0 1-2 2 2 2 0 0 1-2-2V14M6 50V8a2 2 0 0 1 2-2 2 2 0 0 1 2 2v42m24-12v18a2 2 0 0 1-2 2 2 2 0 0 1-2-2V38m0-12V8a2 2 0 0 1 2-2 2 2 0 0 1 2 2v18" fill="none" stroke="#2e4369" stroke-linecap="round" stroke-linejoin="round" stroke-width="2"/></svg>