<svg xmlns="http://www.w3.org/2000/svg" viewBox="0 0 64 64" aria-labelledby="title" aria-describedby="desc"><path data-name="layer1" d="M61.6 18.3L45.7 2.4a3.1 3.1 0 0 0-4.3 0L22.6 21.2a3.1 3.1 0 0 0 0 4.3l6.5 6.5-10.8 10.9a3.1 3.1 0 0 0-4.3 0L2.4 54.4a3 3 0 0 0 0 4.3l2.9 2.9a3 3 0 0 0 4.3 0l11.5-11.5a3 3 0 0 0 0-4.3L32 34.9l6.5 6.5a3.1 3.1 0 0 0 4.3 0l18.8-18.8a3.1 3.1 0 0 0 0-4.3zm-28.2 8.5a2 2 0 0 1-1.4-3.4l11.6-11.6a2 2 0 0 1 2.8 2.8L34.8 26.2a2 2 0 0 1-1.4.6zm18.7-6.4L40.6 32a2 2 0 0 1-2.8-2.8l11.6-11.6a2 2 0 1 1 2.8 2.8z" fill="#202020"/></svg>