<svg xmlns="http://www.w3.org/2000/svg" viewBox="0 0 64 64" aria-labelledby="title" aria-describedby="desc"><path data-name="layer2" fill="none" stroke="#202020" stroke-linecap="round" stroke-linejoin="round" stroke-width="2" d="M30 34L18.5 45.5m23.8-3.6a3.1 3.1 0 0 1-4.3 0L22.1 26a3.1 3.1 0 0 1 0-4.3L40.9 2.9a3.1 3.1 0 0 1 4.3 0l15.9 15.9a3.1 3.1 0 0 1 0 4.3zm2.2-28.2L32.9 25.3m17.4-5.8L38.7 31.1"/><path data-name="layer1" d="M8.4 61.4a2 2 0 0 1-2.9 0l-2.9-2.9a2 2 0 0 1 0-2.9l11.6-11.5a2 2 0 0 1 2.9 0l2.8 2.9a2 2 0 0 1 0 2.9z" fill="none" stroke="#202020" stroke-linecap="round" stroke-linejoin="round" stroke-width="2"/></svg>