<svg xmlns="http://www.w3.org/2000/svg" viewBox="0 0 64 64" aria-labelledby="title" aria-describedby="desc"><path data-name="layer2" d="M56.4 49.4a29.9 29.9 0 0 0 0-34.7l4.1-4.1a5 5 0 0 0-7.1-7.1l-4 4.1a29.9 29.9 0 0 0-34.7 0l-4.2-4.1a5 5 0 1 0-7.1 7.1l4.1 4.1a29.9 29.9 0 0 0 0 34.7l-4 4.1a5 5 0 0 0 7.1 7.1l4.1-4.1a29.9 29.9 0 0 0 34.7 0l4.1 4.1a5 5 0 0 0 7.1-7.1z" fill="none" stroke="#202020" stroke-miterlimit="10" stroke-width="2" stroke-linejoin="round" stroke-linecap="round"/><circle data-name="layer1" cx="32" cy="32" r="22" fill="none" stroke="#202020" stroke-miterlimit="10" stroke-width="2" stroke-linejoin="round" stroke-linecap="round"/><circle data-name="layer1" cx="32" cy="32" r="6" fill="none" stroke="#202020" stroke-miterlimit="10" stroke-width="2" stroke-linejoin="round" stroke-linecap="round"/></svg>