<svg xmlns="http://www.w3.org/2000/svg" viewBox="0 0 64 64" aria-labelledby="title" aria-describedby="desc"><path data-name="layer3" d="M56.4 49.4a29.9 29.9 0 0 0 0-34.7l4.1-4.1a5 5 0 0 0-7.1-7.1l-4 4.1a29.9 29.9 0 0 0-34.7 0l-4.2-4.1a5 5 0 1 0-7.1 7.1l4.1 4.1a29.9 29.9 0 0 0 0 34.7l-4 4.1a5 5 0 0 0 7.1 7.1l4.1-4.1a29.9 29.9 0 0 0 34.7 0l4.1 4.1a5 5 0 0 0 7.1-7.1z" fill="#8fa9d8"/><circle data-name="layer2" cx="32" cy="32" r="22" fill="#536897"/><circle data-name="layer1" cx="32" cy="32" r="6" fill="#7b8baf"/><path data-name="opacity" d="M54 32a22 22 0 0 0-39-14 22 22 0 0 1 31 31 22 22 0 0 0 8-17z" fill="#000064" opacity=".2"/><path data-name="opacity" d="M26 32a6 6 0 0 1 .5-2.5 6 6 0 1 0 7.9 7.9A6 6 0 0 1 26 32z" fill="#000064" opacity=".2"/><path data-name="stroke" d="M56.4 49.4a29.9 29.9 0 0 0 0-34.7l4.1-4.1a5 5 0 0 0-7.1-7.1l-4 4.1a29.9 29.9 0 0 0-34.7 0l-4.2-4.1a5 5 0 1 0-7.1 7.1l4.1 4.1a29.9 29.9 0 0 0 0 34.7l-4 4.1a5 5 0 0 0 7.1 7.1l4.1-4.1a29.9 29.9 0 0 0 34.7 0l4.1 4.1a5 5 0 0 0 7.1-7.1z" fill="none" stroke="#2e4369" stroke-linecap="round" stroke-miterlimit="10" stroke-width="2" stroke-linejoin="round"/><circle data-name="stroke" cx="32" cy="32" r="22" fill="none" stroke="#2e4369" stroke-linecap="round" stroke-miterlimit="10" stroke-width="2" stroke-linejoin="round"/><circle data-name="stroke" cx="32" cy="32" r="6" fill="none" stroke="#2e4369" stroke-linecap="round" stroke-miterlimit="10" stroke-width="2" stroke-linejoin="round"/></svg>