<svg xmlns="http://www.w3.org/2000/svg" viewBox="0 0 64 64" aria-labelledby="title" aria-describedby="desc"><circle data-name="layer2" cx="32" cy="32" r="30" fill="#d1deff"/><path data-name="layer1" d="M35.1 33.5L24 20l4.1 16.8v.3a4 4 0 1 0 6.9-3.6z" fill="#ed4c49"/><path data-name="opacity" d="M28.2 37.1v-.3l-1.6-6.6-6.7-6.3L26 40v.3a4 4 0 0 0 7.5-.7 4 4 0 0 1-5.5-2.5z" fill="#000064" opacity=".15"/><path data-name="opacity" d="M36 58A30 30 0 0 1 12.9 8.9a30 30 0 1 0 42.2 42.2A29.9 29.9 0 0 1 36 58z" fill="#000064" opacity=".15"/><circle data-name="stroke" cx="32" cy="32" r="30" fill="none" stroke="#2e4369" stroke-linecap="round" stroke-linejoin="round" stroke-width="2"/><path data-name="stroke" d="M10 32a22 22 0 1 1 44 0m-18.9 1.5L24 20l4.1 16.8v.3a4 4 0 1 0 6.9-3.6z" fill="none" stroke="#2e4369" stroke-linecap="round" stroke-linejoin="round" stroke-width="2"/></svg>