<svg viewBox="0 0 64 64" xmlns="http://www.w3.org/2000/svg" aria-labelledby="title" aria-describedby="desc"><circle fill="#fc6" r="15" cy="46" cx="31" data-name="layer2"/><circle fill="#fc6" r="7" cy="46" cx="31" data-name="layer2"/><circle opacity=".2" fill="#fff" r="7" cy="46" cx="31" data-name="opacity"/><path fill="#f2605c" d="M31.508 31c.085 0 .168.012.253.013v-.01L23.611 1H8l11.023 36.683A14.981 14.981 0 0 1 31.508 31z" data-name="layer1"/><path fill="#f2605c" d="M31.761 31.013a14.975 14.975 0 0 1 11.989 6.346l.006-.02L54.625 1H39.012l-7.754 28.159.5 1.843z" data-name="layer1"/><path opacity=".15" fill="#000064" d="M18.876 37.192a14.992 14.992 0 1 0 25.878 14.786c-.239.309-.487.64-.754 1.023-6 7-15 5-16 4 7 0 9-4 9-7-6 4-13 0-13-6-4 6 0 12 2 13-4-2-7-6-7-10 0-11 7-16 12-16a11.978 11.978 0 0 0-8 3L13 1H8zM33.28 31.13a14.9 14.9 0 0 1 2.329.464c.442.114.9.242 1.391.405 1.546-3.866 6.079-22.665 8.057-31h-6.045l-7.735 28.089.481 1.912a12.706 12.706 0 0 1 1.522.13z" data-name="opacity"/><path d="M7.492 1l11.024 36.683M23.104 1l8.146 30.003M54.117 1L43.248 37.339M38.504 1L30.75 29.159" stroke-width="2" stroke-linejoin="round" stroke-linecap="round" stroke="#2e4369" fill="none" data-name="stroke"/><circle stroke-width="2" stroke-linejoin="round" stroke-linecap="round" stroke="#2e4369" fill="none" r="15" cy="46" cx="31" data-name="stroke"/><circle stroke-width="2" stroke-linejoin="round" stroke-linecap="round" stroke="#2e4369" fill="none" r="7" cy="46" cx="31" data-name="stroke"/></svg>