<svg xmlns="http://www.w3.org/2000/svg" viewBox="0 0 64 64" aria-labelledby="title" aria-describedby="desc"><path data-name="layer4" fill="#202020" d="M6.4 28H58v10.6H6.4z"/><path data-name="layer3" d="M6.4 41.5v2.8a8.141 8.141 0 0 0 2.4 6 7.578 7.578 0 0 0 5.8 2.5h22V64l10.8-11.2h2.4a7.728 7.728 0 0 0 5.8-2.5 8.468 8.468 0 0 0 2.4-6v-2.8z" fill="#202020"/><path data-name="layer2" fill="#202020" d="M6.4 14.3H58v10.6H6.4z"/><path data-name="layer1" d="M58 8.5a8.468 8.468 0 0 0-2.4-6A7.578 7.578 0 0 0 49.8 0H14.6a7.728 7.728 0 0 0-5.8 2.5 8.141 8.141 0 0 0-2.4 6v2.8H58z" fill="#202020"/></svg>