<svg xmlns="http://www.w3.org/2000/svg" viewBox="0 0 64 64" aria-labelledby="title" aria-describedby="desc"><path data-name="layer2" fill="#202020" d="M46 54.9L36.1 62l3.8-11.5L30 44h12.2L46 32l3.8 12H62l-9.9 6.5L55.9 62 46 54.9z"/><path data-name="layer1" d="M27.8 47.3A4 4 0 0 1 30 40h6.2c-3.7-1.5-3.8-3.2-3.8-4.4V34a14.6 14.6 0 0 0 4.2-7c2.5 0 3-5.1 3-5.8s.1-3.8-2.4-3.8C42.6 4.5 28.4-2.3 17.8 5.1c-4.4 0-4.7 5.9-3.1 12.3-2.5 0-2.4 3-2.4 3.8s.6 5.8 3 5.8a14.6 14.6 0 0 0 4.2 7v1.6c0 1.6 0 4-8.1 5.6S2 50 2 50h29.8z" fill="#202020"/></svg>