<svg viewBox="0 0 64 64" xmlns="http://www.w3.org/2000/svg" aria-labelledby="title" aria-describedby="desc"><path d="M14 48.136L5.965 54l3.094-9.453L1 39h9.945L14 29.273 17.055 39H27l-8.059 5.547L22.035 54 14 48.136zm34.004 0L39.969 54l3.094-9.453L35.004 39h9.945l3.055-9.727L51.059 39h9.945l-8.059 5.547L56.039 54l-8.035-5.864zM31 22.864l-8.035 5.865 3.094-9.454L18 13h9.945L31 4.001 34.053 13H44l-8.06 6.275 3.093 9.454L31 22.864z" fill="#fc6" data-name="layer1"/><path opacity=".3" data-name="opacity" d="M36.316 20.425l-2.376 1.85 1.175 3.593 3.918 2.861-2.717-8.304zM32.053 16h8.093L44 13h-9.947L31 4.001l-1.509 4.446L32.053 16zm11.839 23h-8.888l4.358 3h3.587l.943-3zm5.167 3h7.587l4.358-3h-9.945l-3.055-9.727-1.471 4.684L49.059 42zM8.945 42l.943-3H1l4.358 3h3.587zM14 29.273l-1.471 4.684L15.055 42h7.587L27 39h-9.945L14 29.273zM25.945 16l1.019-3H18l3.852 3h4.093zm25 31.547l1.177 3.594L56.039 54l-2.66-8.128-2.434 1.675zm-34.004 0l1.177 3.594L22.035 54l-2.66-8.128-2.434 1.675z" fill="#fff"/><path d="M14 48.136L5.965 54l3.094-9.453L1 39h9.945L14 29.273 17.055 39H27l-8.059 5.547L22.035 54 14 48.136zm34.004 0L39.969 54l3.094-9.453L35.004 39h9.945l3.055-9.727L51.059 39h9.945l-8.059 5.547L56.039 54l-8.035-5.864zM31 22.864l-8.035 5.865 3.094-9.454L18 13h9.945L31 4.001 34.053 13H44l-8.06 6.275 3.093 9.454L31 22.864z" stroke-width="2" stroke-linejoin="round" stroke-linecap="round" stroke="#2e4369" fill="none" data-name="stroke"/></svg>