<svg xmlns="http://www.w3.org/2000/svg" viewBox="0 0 64 64" aria-labelledby="title" aria-describedby="desc"><circle data-name="layer2" cx="15.5" cy="40" r="6" fill="#202020"/><circle data-name="layer2" cx="47.5" cy="40" r="6" fill="#202020"/><path data-name="layer1" d="M43.4 24l-6.6-6H9a3.9 3.9 0 0 0-2.7 1.6A28 28 0 0 0 4.1 24zm17.2 4H2.7a24.5 24.5 0 0 0-.8 3.7c-.3 3.5-.4 8.3-.4 8.3h4a10 10 0 1 1 20 0h12a10 10 0 1 1 20 0h1.3c1.7 0 2.7-1.6 3-3.5s.6-5.8.6-5.8a2.6 2.6 0 0 0-1.8-2.7z" fill="#202020"/></svg>