<svg viewBox="0 0 64 64" xmlns="http://www.w3.org/2000/svg" aria-labelledby="title" aria-describedby="desc"><path fill="#202020" d="M2 22v34h60V22zm52 16h-4a2 2 0 0 1-1.414-.586l-4.038-4.037-4.759 9.518a2 2 0 0 1-3.417.268l-8.16-11.425-8.464 15.233A2 2 0 0 1 18 48h-.127a2 2 0 0 1-1.73-1.254L12.646 38H10a2 2 0 0 1 0-4h4a2 2 0 0 1 1.857 1.258l2.437 6.094 7.957-14.322A2 2 0 0 1 27.887 26a1.972 1.972 0 0 1 1.741.834l8.068 11.3 4.515-9.029a2 2 0 0 1 3.2-.52L50.828 34H54a2 2 0 0 1 0 4z" data-name="layer2"/><path fill="#202020" d="M2 8v10h60V8zm6 7a2 2 0 1 1 2-2 2 2 0 0 1-2 2zm6 0a2 2 0 1 1 2-2 2 2 0 0 1-2 2zm6 0a2 2 0 1 1 2-2 2 2 0 0 1-2 2z" data-name="layer1"/></svg>