<svg xmlns="http://www.w3.org/2000/svg" viewBox="0 0 64 64" aria-labelledby="title" aria-describedby="desc"><path data-name="layer3" d="M58.8 28.7c-3-.2-13.7-1.7-13.7-1.7H4.8a28.7 28.7 0 0 0-1.5 5.7C3 36.2 3 41 3 41h6a6 6 0 0 1 12 0h22a6 6 0 0 1 12 0h3.4c1.7 0 2.8-1.6 3-3.5s.6-5.8.6-5.8.3-2.7-3.2-3z" fill="#8fa9d8"/><path data-name="layer2" d="M36.3 19H10.4a3.9 3.9 0 0 0-2.7 1.6A34.5 34.5 0 0 0 4.8 27h40.3z" fill="#c3d6e0"/><circle data-name="layer1" cx="15" cy="41" r="6" fill="#7b8baf"/><circle data-name="layer1" cx="49" cy="41" r="6" fill="#7b8baf"/><circle data-name="opacity" cx="15" cy="41" r="3" fill="#000064" opacity=".2"/><circle data-name="opacity" cx="49" cy="41" r="3" fill="#000064" opacity=".2"/><path data-name="opacity" d="M36.3 19h-2.1l-8 8h7.2l5.6-5.6zm-13.9 0l-8 8h5.9l8-8z" fill="#fff" opacity=".5"/><path data-name="opacity" d="M44.6 36.9H19.4A6 6 0 0 1 21 41h22a6 6 0 0 1 1.6-4.1zM9 36.9a44.1 44.1 0 0 1 1-9.9H4.8a28.7 28.7 0 0 0-1.5 5.7C3 36.2 3 41 3 41h6a6 6 0 0 1 1.6-4.1zm44.4 0A6 6 0 0 1 55 41h3.4c1.7 0 2.8-1.6 3-3.5V37z" fill="#000064" opacity=".15"/><path data-name="stroke" d="M9 41H3s0-4.8.4-8.3a37.4 37.4 0 0 1 4.3-12.1 3.9 3.9 0 0 1 2.7-1.6h25.9l8.9 8s10.7 1.5 13.7 1.7 3.1 2.9 3.1 2.9-.4 3.9-.6 5.8-1.4 3.6-3 3.6H55m-12 0H21m24.1-14H4.8" fill="none" stroke="#2e4369" stroke-linecap="round" stroke-linejoin="round" stroke-width="2"/><circle data-name="stroke" cx="15" cy="41" r="6" fill="none" stroke="#2e4369" stroke-linecap="round" stroke-linejoin="round" stroke-width="2"/><circle data-name="stroke" cx="49" cy="41" r="6" fill="none" stroke="#2e4369" stroke-linecap="round" stroke-linejoin="round" stroke-width="2"/></svg>