<svg xmlns="http://www.w3.org/2000/svg" viewBox="0 0 64 64" aria-labelledby="title" aria-describedby="desc"><path data-name="layer2" d="M45 33.5a13 13 0 0 0-9-12.4v-6.6a2 2 0 0 0 0-4h-8a2 2 0 0 0 0 4v6.6a13 13 0 1 0 17 12.4zm-13 4.3a4.3 4.3 0 1 1 4.3-4.3 4.3 4.3 0 0 1-4.3 4.3zm24.9 21.9l-9.8-5.3 2.9-1L46.7 42A17 17 0 0 1 34 50.4v8.5l7.9-2.6 13.2 7.1.9.2a2 2 0 0 0 .9-3.8zM17.3 42L14 53.5l3.1 1-10 5.2a2 2 0 0 0 .9 3.8l.9-.2 13.5-7 7.6 2.5v-8.4A17 17 0 0 1 17.3 42z" fill="#202020"/><path data-name="layer1" d="M28 6.5h8A6 6 0 0 1 40 17v4.2a8.2 8.2 0 0 0 2.1-1 4.8 4.8 0 0 0 7.8-5 4.5 4.5 0 0 0-.9-8.9l-1.5.3a3 3 0 0 0-4.3-1.9 4.9 4.9 0 0 0-9.4-.7 4.2 4.2 0 0 0-7.7 2.3 4.2 4.2 0 0 0 0 .5 6 6 0 0 1 1.9-.3z" fill="#202020"/></svg>