<svg xmlns="http://www.w3.org/2000/svg" viewBox="0 0 64 64" aria-labelledby="title" aria-describedby="desc"><path data-name="layer1" d="M32 2a30 30 0 1 0 30 30A30 30 0 0 0 32 2zm-6.9 50.9C16.6 50 10.3 43.4 10 34c4.3 0 14.4-.3 16 2s1.3 11.1-.9 16.9zM10.7 26A21.6 21.6 0 0 1 32 10a21.6 21.6 0 0 1 21.3 16c-5 0-12.2-4-21.3-4s-16.4 4-21.3 4zm28.2 26.9c-2.2-5.8-3.5-13.3-.9-16.9s11.7-2 16-2c-.4 9.4-6.6 16-15.1 18.9z" fill="#7b8baf"/><path data-name="opacity" d="M28.3 49.9c2.2-5.7 3.5-13.2.9-16.9s-11.7-2-16-2a3.1 3.1 0 0 0-3.2 3.3c4.8 0 15 0 16.3 1.7s1.6 8.2.3 13.2z" fill="#000064" opacity=".15"/><path data-name="opacity" d="M35.3 59A30 30 0 0 1 12.6 9.3a30 30 0 1 0 42.3 42.4A29.9 29.9 0 0 1 35.3 59z" fill="#000064" opacity=".15"/><circle data-name="stroke" cx="32" cy="32" r="30" fill="none" stroke="#2e4369" stroke-linecap="round" stroke-linejoin="round" stroke-width="2"/><path data-name="stroke" d="M32 22c9.1 0 16.3 4 21.3 4A21.6 21.6 0 0 0 32 10a21.6 21.6 0 0 0-21.3 16c4.9 0 12.2-4 21.3-4zm6 14c-2.6 3.6-1.3 11.1.9 16.9C47.4 50 53.6 43.4 54 34c-4.3 0-14.4-.3-16 2zm-12 0c2.6 3.6 1.3 11.1-.9 16.9C16.6 50 10.3 43.4 10 34c4.3 0 14.4-.3 16 2z" fill="none" stroke="#2e4369" stroke-linecap="round" stroke-linejoin="round" stroke-width="2"/></svg>