<svg xmlns="http://www.w3.org/2000/svg" viewBox="0 0 64 64" aria-labelledby="title" aria-describedby="desc"><path data-name="layer1" d="M61 23h-4a1 1 0 0 0-1 1 12 12 0 0 1-24 0 1 1 0 0 0-1-1h-4a1 1 0 0 0-1 1 18 18 0 0 0 15 17.739V43a1.994 1.994 0 0 0 1 1.722V51a9 9 0 0 1-18 0V26a8 8 0 0 0-16 0v20.232a9 9 0 1 0 4 0V26a4 4 0 0 1 8 0v25a13 13 0 0 0 26 0v-6.278A1.994 1.994 0 0 0 47 43v-1.261A18 18 0 0 0 62 24a1 1 0 0 0-1-1zM15 55a5 5 0 1 1-5-5 5.006 5.006 0 0 1 5 5z" fill="#202020"/><path data-name="layer2" d="M55 4a2 2 0 0 1 2 2v15h4V6a6.007 6.007 0 0 0-6-6 2 2 0 0 0 0 4zM31 6a2 2 0 0 1 2-2 2 2 0 0 0 0-4 6.007 6.007 0 0 0-6 6v15h4z" fill="#202020"/><circle data-name="layer1" cx="10" cy="55" r="3" fill="#202020"/></svg>