<svg xmlns="http://www.w3.org/2000/svg" viewBox="0 0 64 64" aria-labelledby="title" aria-describedby="desc"><path data-name="layer2" d="M59 24V6a4 4 0 0 0-4-4M33 2a4 4 0 0 0-4 4v18M10 48V26a6.018 6.018 0 0 1 6-6 6.018 6.018 0 0 1 6 6v25a11.032 11.032 0 0 0 11 11 11.032 11.032 0 0 0 11-11v-7" fill="none" stroke="#202020" stroke-linecap="round" stroke-miterlimit="10" stroke-width="2" stroke-linejoin="round"/><path data-name="layer1" d="M27 24h4a13 13 0 0 0 26 0h4a17.017 17.017 0 0 1-15 16.872V43a1 1 0 0 1-1 1h-2a1 1 0 0 1-1-1v-2.128A17.017 17.017 0 0 1 27 24z" fill="none" stroke="#202020" stroke-linecap="round" stroke-miterlimit="10" stroke-width="2" stroke-linejoin="round"/><circle data-name="layer1" cx="10" cy="55" r="7" fill="none" stroke="#202020" stroke-linecap="round" stroke-miterlimit="10" stroke-width="2" stroke-linejoin="round"/><circle data-name="layer1" cx="10" cy="55" r="3" fill="none" stroke="#202020" stroke-linecap="round" stroke-miterlimit="10" stroke-width="2" stroke-linejoin="round"/></svg>