<svg xmlns="http://www.w3.org/2000/svg" viewBox="0 0 64 64" aria-labelledby="title" aria-describedby="desc"><path data-name="layer2" d="M23.1 10A9 9 0 0 1 41 10M11 24H3a2 2 0 0 1-2-2 2 2 0 0 1 2-2h8m42 4h8a2 2 0 0 0 2-2 2 2 0 0 0-2-2h-8" fill="none" stroke="#202020" stroke-linecap="round" stroke-linejoin="round" stroke-width="2"/><path data-name="layer1" d="M53 10v46a6 6 0 0 1-6 6H17a6 6 0 0 1-6-6V10m-4 0h50" fill="none" stroke="#202020" stroke-linecap="round" stroke-linejoin="round" stroke-width="2"/></svg>