<svg xmlns="http://www.w3.org/2000/svg" viewBox="0 0 64 64" aria-labelledby="title" aria-describedby="desc"><path data-name="layer2" d="M10.241 62.073a1.991 1.991 0 0 0 1.492-2.873C9.434 54.739 8.026 47.238 12 47c4.83-.29 5.88 13.724 20 15s32-7.465 32-27c0-20-12.408-25-19-25-8.729 0-13.929 8.522-13 18s2.137 13.838-5.481 13.838S19.246 37 12 37c-7.06 0-16.726 7.885-8.674 24.658a2.016 2.016 0 0 0 2.108 1.129z" fill="#202020"/><path data-name="layer1" d="M34.578 12.61a21.915 21.915 0 0 1-4.568-9.327 1 1 0 0 0-1.215-.739l-6.859 1.714a1 1 0 0 0-.736 1.185 48.759 48.759 0 0 0 8.833 17.929 18.8 18.8 0 0 1 4.527-10.743z" fill="#202020"/></svg>