<svg xmlns="http://www.w3.org/2000/svg" viewBox="0 0 64 64" aria-labelledby="title" aria-describedby="desc"><path data-name="layer2" d="M7 60c-8.42-16.074 1.4-24 8-24s6.067 5 13 5 5.846-4.373 5-13 4.055-16 12-16c6 0 17.169 4.219 17 22S44.852 60.161 32 59 19.4 45.736 15 46s-1.875 9.848 1 13z" fill="#e26076"/><path data-name="layer1" d="M32.906 25.925C32.906 31.024 23.839 12.6 23 7l8-2s.946 6.623 5.6 10.665a16.806 16.806 0 0 0-3.694 10.26z" fill="#db3854"/><path data-name="opacity" d="M33 28c.8 8.171 1.807 12.52-3.979 12.957h.01C37.061 43.921 41 36 39 31c-1.936-4.839-2-18.109 5.254-18.956C36.756 12.5 32.182 19.65 33 28zM9.855 37.451C4.67 40.406.657 47.889 7 60l4.12-.458A54.852 54.852 0 0 1 7 48a10.447 10.447 0 0 1 2.855-10.549zM32 59c12.852 1.161 29.831-7.219 30-25 0-.21-.005-.409-.006-.615C52.986 58.745 21 53 19.056 49.916 21.176 53.481 24.132 58.289 32 59z" fill="#000064" opacity=".16"/><path data-name="stroke" d="M31 5s.946 6.623 5.6 10.665M23 7c.839 5.6 5.956 15.7 9.906 18.925" fill="none" stroke="#2e4369" stroke-linecap="round" stroke-miterlimit="10" stroke-width="2" stroke-linejoin="round"/><path data-name="stroke" d="M16 59c-2.875-3.152-5.4-12.736-1-13s4.148 11.839 17 13 29.831-7.219 30-25-11-22-17-22c-7.945 0-12.846 7.373-12 16s1.933 13-5 13-6.4-5-13-5-16.42 7.926-8 24" fill="none" stroke="#2e4369" stroke-linecap="round" stroke-miterlimit="10" stroke-width="2" stroke-linejoin="round"/><path data-name="opacity" d="M54.648 20.352C49.87 15.756 44.093 19 45.12 20.8c.777 1.728 3.36 2.823 4.63 4.446 1.623 1.27 2.718 3.852 4.446 4.63 1.804 1.031 5.048-4.746.452-9.524z" fill="#fff" opacity=".4"/></svg>