<svg xmlns="http://www.w3.org/2000/svg" viewBox="0 0 64 64" aria-labelledby="title" aria-describedby="desc"><circle data-name="layer2" cx="32.5" cy="35.281" r="2" fill="#202020"/><path data-name="layer2" d="M32.915 8a28 28 0 1 0 28 28 28 28 0 0 0-28-28zM34 40.026v5.823a1.5 1.5 0 1 1-3 0v-5.823a4.966 4.966 0 0 1 0-9.489V13.506a1.5 1.5 0 0 1 3 0v17.03a4.966 4.966 0 0 1 0 9.489z" fill="#202020"/><path data-name="layer1" d="M36 6.158V1.09a1.048 1.048 0 0 0-1-1.084h-6a1.048 1.048 0 0 0-1 1.084v5.319a29.9 29.9 0 0 1 8-.252zm18.385 8.918l1.934-1.934 1.8 1.8a1 1 0 0 0 1.414 0l2.5-2.5a1 1 0 0 0 0-1.414L55.612 4.6a1 1 0 0 0-1.414 0l-2.5 2.5a1 1 0 0 0 0 1.414l1.8 1.8L51.4 12.4a30.257 30.257 0 0 1 2.985 2.676z" fill="#202020"/></svg>