<svg viewBox="0 0 64 64" xmlns="http://www.w3.org/2000/svg" aria-labelledby="title" aria-describedby="desc"><path d="M49.941 32l7.506-3.313L62 36l-6.795 6.509" fill="#c4d3e0" data-name="layer1"/><path fill="#c4d3e0" d="M55.525 54a27 27 0 1 0-53.05 0z" data-name="layer1"/><path opacity=".25" fill="#101129" d="M10.008 48.765a28.727 28.727 0 0 1 18.14-26.7A26.913 26.913 0 0 0 2.475 54h8.031a28.893 28.893 0 0 1-.498-5.235z" data-name="opacity"/><path opacity=".5" fill="#fff" d="M27.846 22.2q-.664.272-1.31.577a27.9 27.9 0 0 1 17.423 26.1A28.943 28.943 0 0 1 43.484 54h8.008a26.915 26.915 0 0 0-23.646-31.8z" data-name="opacity"/><path d="M9.861 29.999h38.28M36 10H12c-5.881 0-8.875 4.759-6.59 9.345a585.969 585.969 0 0 0 5.112 10.012" stroke-width="2" stroke-linejoin="round" stroke-linecap="round" stroke="#2f446a" fill="none" data-name="stroke"/><path stroke-width="2" stroke-linejoin="round" stroke-linecap="round" stroke="#2f446a" fill="none" d="M55.525 54a27 27 0 1 0-53.05 0zM25.006 18.001h8" data-name="stroke"/><path d="M49.989 31.979l7.458-3.292L62 36l-6.747 6.463" stroke-width="2" stroke-linejoin="round" stroke-linecap="round" stroke="#2f446a" fill="none" data-name="stroke"/></svg>