<svg xmlns="http://www.w3.org/2000/svg" viewBox="0 0 64 64" aria-labelledby="title" aria-describedby="desc"><path data-name="layer2" d="M62.5 36.5l-4.6-7.3-7.5 3.3H7.3a27.9 27.9 0 0 0-5.8 17 28.2 28.2 0 0 0 .5 5.2l.2.8h54.7l.2-.8a28.2 28.2 0 0 0 .5-5.1 27.9 27.9 0 0 0-1-7.3z" fill="#202020"/><path data-name="layer1" d="M25.5 16.5a2 2 0 0 0 0 4h8a2 2 0 0 0 0-4z" fill="#202020"/><path data-name="layer1" d="M8.1 28.5h39.8a27.9 27.9 0 0 0-35.8-.9L7.7 19a4.2 4.2 0 0 1 0-4.2 5.4 5.4 0 0 1 4.8-2.2h24a2 2 0 0 0 0-4h-24a9.3 9.3 0 0 0-8.2 4.1 8.2 8.2 0 0 0-.2 8.1z" fill="#202020"/></svg>