<svg xmlns="http://www.w3.org/2000/svg" viewBox="0 0 64 64" aria-labelledby="title" aria-describedby="desc"><path data-name="layer1" d="M36.1 15.7c5.1-4.8 9.5-7.5 14.3-8.7a2 2 0 1 0-1-3.9c-5.2 1.3-10 4.1-15.4 9.1V3a2 2 0 1 0-4 0v9.3c-5.7-5-11.7-8.2-15.5-9.3a2 2 0 0 0-1.1 3.9c3.5 1 9 4.1 14.1 8.6-8-1.9-19.5-.9-19.5 14.3C8 48.1 26.5 63 31.9 63S56 47.5 56 29.2C56 14 44 13.8 36.1 15.7zM20 33a2 2 0 0 1-2-2v-4a2 2 0 1 1 4 0v4a2 2 0 0 1-2 2zm6 8a2 2 0 1 1-4 0v-4a2 2 0 1 1 4 0zm8 10a2 2 0 1 1-4 0v-4a2 2 0 1 1 4 0zm0-20a2 2 0 1 1-4 0v-4a2 2 0 1 1 4 0zm8 10a2 2 0 1 1-4 0v-4a2 2 0 1 1 4 0zm4-10a2 2 0 1 1-4 0v-4a2 2 0 1 1 4 0z" fill="#202020"/></svg>