<svg xmlns="http://www.w3.org/2000/svg" viewBox="0 0 64 64" aria-labelledby="title" aria-describedby="desc"><circle data-name="layer1" cx="29.5" cy="29.5" r="27.5" fill="#ed4c49"/><circle data-name="layer1" cx="29.5" cy="29.5" r="16" fill="#ed4c49"/><circle data-name="layer2" cx="29.5" cy="29.5" r="16" fill="#e5ebf7"/><path data-name="layer2" d="M33.5 29.5a4 4 0 1 1-4-4 4 4 0 0 1 4 4z" fill="#e5ebf7"/><path data-name="opacity" d="M57 29.5H45.5a16 16 0 0 1-16 16V57A27.5 27.5 0 0 0 57 29.5z" fill="#fff" opacity=".5"/><path data-name="opacity" d="M33.5 29.5a4 4 0 0 1-4 4v12a16 16 0 0 0 16-16h-12z" fill="#fff" opacity=".5"/><path data-name="layer1" d="M29.5 25.5a4 4 0 1 0 4 4 4 4 0 0 0-4-4z" fill="#ed4c49"/><path data-name="stroke" d="M29.5 57A27.5 27.5 0 1 1 57 29.5m-27.5 16a16 16 0 1 1 16-16" fill="none" stroke="#2e4369" stroke-linecap="round" stroke-linejoin="round" stroke-width="2"/><circle data-name="stroke" cx="29.5" cy="29.5" r="4" fill="none" stroke="#2e4369" stroke-linecap="round" stroke-linejoin="round" stroke-width="2"/><path data-name="stroke" fill="none" stroke="#2e4369" stroke-linecap="round" stroke-linejoin="round" stroke-width="2" d="M62 62L37.9 37.9m17.3 1.6l-17.3-1.6 1.4 17.4"/></svg>