<svg xmlns="http://www.w3.org/2000/svg" viewBox="0 0 64 64" aria-labelledby="title" aria-describedby="desc"><path data-name="layer1" d="M20.76 14.023a3 3 0 1 0 4.486 3.985l2.762-3.11-.004 34.22-2.765-3.11a3 3 0 1 0-4.484 3.989l10.242 12.005L41.24 49.995a3 3 0 1 0-4.485-3.984L34 49.114V14.892l2.76 3.114a3 3 0 0 0 4.487-3.982L30.997 2.002z" fill="#bacae9"/><path data-name="stroke" d="M20.76 14.023a3 3 0 1 0 4.486 3.985l2.762-3.11-.004 34.22-2.765-3.11a3 3 0 1 0-4.484 3.989l10.242 12.005L41.24 49.995a3 3 0 1 0-4.485-3.984L34 49.114V14.892l2.76 3.114a3 3 0 0 0 4.487-3.982L30.997 2.002z" fill="none" stroke="#2e4369" stroke-linecap="round" stroke-linejoin="round" stroke-width="2"/></svg>