<svg viewBox="0 0 64 64" xmlns="http://www.w3.org/2000/svg" aria-labelledby="title" aria-describedby="desc"><circle stroke-width="2" stroke-miterlimit="10" stroke="#202020" fill="none" r="6" cy="8" cx="32" data-name="layer1" stroke-linejoin="round" stroke-linecap="round"/><path stroke-width="2" stroke-miterlimit="10" stroke="#202020" fill="none" d="M38 46.2c12.6.8 22 4 22 7.8s-12.5 8-28 8-28-3.6-28-8 9.4-7 22-7.8" data-name="layer2" stroke-linejoin="round" stroke-linecap="round"/><path stroke-width="2" stroke-miterlimit="10" stroke="#202020" fill="none" d="M42 18H22a2 2 0 0 0-2 2v12a2 2 0 0 0 2 2h4v15a3 3 0 0 0 3 3h6a3 3 0 0 0 3-3V34h4a2 2 0 0 0 2-2V20a2 2 0 0 0-2-2z" data-name="layer1" stroke-linejoin="round" stroke-linecap="round"/></svg>