<svg xmlns="http://www.w3.org/2000/svg" viewBox="0 0 64 64" aria-labelledby="title" aria-describedby="desc"><path data-name="layer2" d="M43.886 35l1.203 1.002a15.427 15.427 0 0 1 4.025 10.114c0 8.76-7.677 15.886-17.113 15.886s-17.114-7.126-17.114-15.886h6c0 5.451 4.986 9.886 11.114 9.886s11.113-4.435 11.113-9.886a9.365 9.365 0 0 0-2.433-6.032L34.523 35m-9.951-5.977c-5.223-3.985-7.844-8.326-7.844-12.975 0-7.745 6.852-14.046 15.273-14.046s15.273 6.301 15.273 14.046h-6c0-4.437-4.16-8.046-9.273-8.046s-9.273 3.61-9.273 8.046c0 4.758 5.816 8.887 10.695 11.513l2.885 1.44" fill="#202020"/><path data-name="layer1" fill="#202020" d="M5 29h54v6H5z"/></svg>