<svg xmlns="http://www.w3.org/2000/svg" viewBox="0 0 64 64" aria-labelledby="title" aria-describedby="desc"><path data-name="layer2" fill="#dbf1ff" d="M54 44L32 54 10 44V4l22 9.1L54 4v40z"/><path data-name="opacity" fill="#000064" opacity=".1" d="M32 13.1V54l22-10V4l-22 9.1z"/><path data-name="layer1" fill="#f27e7c" d="M62 8v40.4L32 62 2 48.4V8l8 3.9V44l22 10 22-10 .1-33L62 8z"/><path data-name="opacity" fill="#000064" opacity=".15" d="M32 59l18-9v-4.2L32 54 10 44V11.9L4 9v37l28 13z"/><path data-name="stroke" fill="none" stroke="#2e4369" stroke-linecap="round" stroke-miterlimit="10" stroke-width="2" d="M54 44L32 54 10 44V4l22 9.1L54 4v40zM32 13.1V54" stroke-linejoin="round"/><path data-name="stroke" fill="none" stroke="#2e4369" stroke-linecap="round" stroke-miterlimit="10" stroke-width="2" d="M62 8v40.4L32 62 2 48.4V8" stroke-linejoin="round"/></svg>