<svg xmlns="http://www.w3.org/2000/svg" viewBox="0 0 64 64" aria-labelledby="title" aria-describedby="desc"><path data-name="layer4" d="M10 47a3 3 0 0 0 3 3h38a3 3 0 0 0 3-3V34H10z" fill="#fc0"/><path data-name="layer3" fill="#c3d6e0" d="M10 14h44v20H10z"/><path data-name="layer2" d="M54 5a3 3 0 0 0-3-3H13a3 3 0 0 0-3 3v9h44z" fill="#7b8baf"/><circle data-name="layer1" cx="18" cy="42" r="2" fill="#a0d6ef"/><circle data-name="layer1" cx="46" cy="42" r="2" fill="#a0d6ef"/><path data-name="opacity" d="M16 44V2h-3a3 3 0 0 0-3 3v42a3 3 0 0 0 3 3h38a3 3 0 0 0 3-3H19a3 3 0 0 1-3-3z" fill="#000064" opacity=".15"/><path data-name="opacity" fill="#fff" opacity=".5" d="M40.5 34h6.6l6.9-6.9v-6.6L40.5 34zM54 14H42L22 34h12.8L54 14.8V14zM16 32.6L34.6 14h-3.4L16 29.3v3.3z"/><path data-name="stroke" fill="none" stroke="#2e4369" stroke-linecap="round" stroke-linejoin="round" stroke-width="2" d="M18 50l-8 12m36-12l8 12"/><rect data-name="stroke" x="10" y="2" width="44" height="48" rx="3" ry="3" fill="none" stroke="#2e4369" stroke-linecap="round" stroke-linejoin="round" stroke-width="2"/><path data-name="stroke" fill="none" stroke="#2e4369" stroke-linecap="round" stroke-linejoin="round" stroke-width="2" d="M10 14h44M10 34h44M28 8h8"/><circle data-name="stroke" cx="18" cy="42" r="2" fill="none" stroke="#2e4369" stroke-linecap="round" stroke-linejoin="round" stroke-width="2"/><circle data-name="stroke" cx="46" cy="42" r="2" fill="none" stroke="#2e4369" stroke-linecap="round" stroke-linejoin="round" stroke-width="2"/><path data-name="stroke" fill="none" stroke="#2e4369" stroke-linecap="round" stroke-linejoin="round" stroke-width="2" d="M12.7 58h38.6"/></svg>