<svg xmlns="http://www.w3.org/2000/svg" viewBox="0 0 64 64" aria-labelledby="title" aria-describedby="desc"><path data-name="layer1" fill="#202020" d="M10 15h44v16H10zM54 4a3 3 0 0 0-3-3H13a3 3 0 0 0-3 3v7h44zM36 9h-8a2 2 0 0 1 0-4h8a2 2 0 1 1 0 4zm19.7 50.9l-2.7-4-4.6-6.9H51a3 3 0 0 0 3-3V35H10v11a3 3 0 0 0 3 3h2.6L11 55.9l-2.7 4a2 2 0 1 0 3.3 2.2l2.1-3.1h36.6l2.1 3.1a2 2 0 0 0 3.3-2.2zM46 38a3 3 0 1 1-3 3 3 3 0 0 1 3-3zm-28 0a3 3 0 1 1-3 3 3 3 0 0 1 3-3zm-1.6 17l3.3-4.9A2 2 0 0 0 20 49h24a2 2 0 0 0 .3 1.1l3.3 4.9z"/></svg>