<svg viewBox="0 0 64 64" xmlns="http://www.w3.org/2000/svg" aria-labelledby="title" aria-describedby="desc"><path fill="#202020" d="M59.988 52h-24.8c-1.455-2.6-4.988-8-9.2-8H12.341L4.52 34.711a2 2 0 0 0-3.06 2.576l14.2 16.869-4.357 6.76a2 2 0 1 0 3.361 2.168L19.236 56h31.753l5.4 7.2a2 2 0 1 0 3.2-2.4l-3.6-4.8h4a2 2 0 0 0 0-4zm-34-4c1.231 0 3.013 1.883 4.478 4H19.077l-3.367-4z" data-name="layer2"/><path fill="#202020" d="M62.935 24.225L33.988 4.93V2a2 2 0 1 0-4 0v2.93L1.894 24.326l-.012.01A2 2 0 1 0 4.1 27.664a14.406 14.406 0 0 1 8.6-2.916c3.266 0 6.211 1 7.88 2.666a2 2 0 0 0 2.828 0c1.2-1.2 3.676-2.041 6.584-2.312v16.875a2 2 0 1 0 4 0V25.1c2.91.271 5.389 1.113 6.588 2.313a2 2 0 0 0 2.828 0c1.571-1.572 4.511-2.51 7.862-2.51a17.73 17.73 0 0 1 9.615 2.76 1.992 1.992 0 0 0 1.103.337h.031a2 2 0 0 0 .916-3.775z" data-name="layer1"/></svg>