<svg xmlns="http://www.w3.org/2000/svg" viewBox="0 0 64 64" aria-labelledby="title" aria-describedby="desc"><circle data-name="layer1" cx="32" cy="33" r="12" fill="#fc0"/><path data-name="opacity" d="M32.1 21a12 12 0 0 0-9.9 5.1 12 12 0 0 1 16.6 16.8A12 12 0 0 0 32.1 21z" fill="#fff" opacity=".5"/><path data-name="stroke" fill="none" stroke="#2e4369" stroke-linecap="round" stroke-linejoin="round" stroke-width="2" d="M32 5v8m28 20h-8m-40 0H4m58 12H2m10.8-31.2l5.6 5.6m32.8-5.6l-5.6 5.6M20.7 37a12 12 0 1 1 22.6.1M32 45V29"/><path data-name="stroke" fill="none" stroke="#2e4369" stroke-linecap="round" stroke-linejoin="round" stroke-width="2" d="M38 35l-6-6-6 6"/></svg>