<svg xmlns="http://www.w3.org/2000/svg" viewBox="0 0 64 64" aria-labelledby="title" aria-describedby="desc"><path data-name="layer2" d="M35.9 15.9a2 2 0 0 0 2-2v-8a2 2 0 1 0-4 0v8a2 2 0 0 0 2 2zm-20 20a2 2 0 0 0-2-2h-8a2 2 0 0 0 0 4h8a2 2 0 0 0 2-2zm3-14.1a2 2 0 1 0 2.8-2.8L16 13.3a2 2 0 1 0-2.8 2.8z" fill="#202020"/><path data-name="layer1" d="M59.5 14.3a2 2 0 0 0-2.8 0l-9.9 9.9a16 16 0 0 0-22.6 22.6l-9.9 9.9a2 2 0 1 0 2.8 2.8l10.1-10.1a16 16 0 0 0 22.2-22.1l10.1-10.2a2 2 0 0 0 0-2.8zm-23.6 9.6a11.9 11.9 0 0 1 8 3.1L27 43.9a12 12 0 0 1 8.9-20z" fill="#202020"/></svg>