<svg xmlns="http://www.w3.org/2000/svg" viewBox="0 0 64 64" aria-labelledby="title" aria-describedby="desc"><path data-name="layer2" d="M31 2C20.9 2 3 10.4 3 38c0 15.9 10 24 24 24 6.6 0 18-3.3 26-14s11.7-19.8 4-28S46.2 2 31 2z" fill="#fff"/><path data-name="opacity" d="M54 45c-8 10.7-19.4 14-26 14-14 0-24-8.1-24-24a49.9 49.9 0 0 1 1.8-13.8A47.2 47.2 0 0 0 3 38c0 15.9 10 24 24 24 6.6 0 18-3.3 26-14 3.4-4.5 6.2-9.2 7.4-13.8A49.4 49.4 0 0 1 54 45z" fill="#101129" opacity=".18"/><circle data-name="layer1" cx="28" cy="37" r="11" fill="#fdc20f"/><path data-name="opacity" d="M29.1 45a11 11 0 0 1-10.8-12.9A11 11 0 1 0 38.9 39a11 11 0 0 1-9.8 6z" fill="#101129" opacity=".18"/><path data-name="opacity" d="M17 37a10.9 10.9 0 0 1 1.9-6.1 11 11 0 1 0 15.2 15.2A11 11 0 0 1 17 37z" fill="#101129" opacity=".18"/><circle data-name="stroke" cx="28" cy="37" r="11" fill="none" stroke="#2f446a" stroke-linecap="round" stroke-linejoin="round" stroke-width="2"/><path data-name="stroke" d="M31 2C20.9 2 3 10.4 3 38c0 15.8 10 24 24 24 6.6 0 18-3.3 26-14s11.7-19.8 4-28S46.2 2 31 2z" fill="none" stroke="#2f446a" stroke-linecap="round" stroke-linejoin="round" stroke-width="2"/></svg>