<svg xmlns="http://www.w3.org/2000/svg" viewBox="0 0 64 64" aria-labelledby="title" aria-describedby="desc"><circle data-name="layer1" cx="32" cy="29" r="13" fill="#fc0"/><path data-name="opacity" d="M27 20a16 16 0 0 1 16 15.9 13 13 0 0 0-21.1-15A16 16 0 0 1 27 20z" fill="#fff" opacity=".5"/><path data-name="stroke" d="M32 42a13 13 0 1 1 11.7-18.6M32 2v6M12 30H4m8-22l6 6m33.9-5.9L46 14m10 20a4 4 0 0 1 4 4 4 4 0 0 1-4 4h-6m8 16a4 4 0 0 0 4-4 4 4 0 0 0-4-4H46M2 50h32a6 6 0 0 1 6 6 6 6 0 0 1-6 6" fill="none" stroke="#2e4369" stroke-linecap="round" stroke-linejoin="round" stroke-width="2"/><path data-name="stroke" d="M2 42h36a6 6 0 0 0 6-6 6 6 0 0 0-6-6" fill="none" stroke="#2e4369" stroke-linecap="round" stroke-linejoin="round" stroke-width="2"/></svg>