<svg viewBox="0 0 64 64" xmlns="http://www.w3.org/2000/svg" aria-labelledby="title" aria-describedby="desc"><path fill="#e8d4d4" d="M46 18l-7.353-4H25.354L18 18.715v3.291c-3.045.029-3.317 3.783-3.317 4.724S15.392 32 18.438 32A25.139 25.139 0 0 1 32 28a21.037 21.037 0 0 1 12.769 4C47.793 31.962 49 27.944 49 27s.014-4.935-3-4.988V18z" data-name="layer5"/><path fill="#b9daf0" d="M38.647 14L46 18v-6c0-5.533-4.713-8-8.713-8H26.248A7.994 7.994 0 0 0 18 12v6.717L25.354 14zM25.609 42.267A12.77 12.77 0 0 0 32 44.411a9.329 9.329 0 0 0 5.6-1.933A18.171 18.171 0 0 0 44.767 32 21.038 21.038 0 0 0 32 28a25.139 25.139 0 0 0-13.56 4 17.221 17.221 0 0 0 7.169 10.267z" data-name="layer4"/><path fill="#dfeef8" d="M49.579 47c-10.715-2.019-9.969-4.112-9.969-6.112l-.021-.012a15.549 15.549 0 0 1-1.989 1.6 9.329 9.329 0 0 1-5.6 1.935 12.77 12.77 0 0 1-6.389-2.144 13.507 13.507 0 0 1-1.982-1.506l-.018.012c0 2 .99 4.167-10 6.225C2 49.171 2 58 2 58v4h60v-4s0-8.661-12.421-11z" data-name="layer3"/><circle fill="#cde5f4" r="8" cy="10" cx="31.998" data-name="layer2"/><g opacity=".15" data-name="opacity" fill="#000064"><path d="M32 44c-3.915 0-1.126-15.319-1.006-15.969A25.174 25.174 0 0 0 18.44 32a18.293 18.293 0 0 0 5.188 8.761l-.018.012c0 2 .99 4.167-10 6.225C2 49.171 2 58 2 58v4h10c0-11 14-12 18-12 3.549 0 7.091-6.286 7.847-7.706L38 42a8.76 8.76 0 0 1-6 2z"/><path d="M18.438 32a25.175 25.175 0 0 1 12.555-3.969L31 28a32.167 32.167 0 0 0-8 1c0-3 0-10 2-10 5 5 10 1 12-3-11 4-13-8-10-12l-.186-.077c-.031.026-.065.05-.095.077h-.471A7.994 7.994 0 0 0 18 12v10.006c-3.045.029-3.317 3.783-3.317 4.724S15.392 32 18.438 32z"/></g><circle fill="#86bfe5" r="2" cy="10.003" cx="31.999" data-name="layer1"/><path stroke-width="2" stroke-linejoin="round" stroke-linecap="round" stroke="#2e4369" fill="none" d="M26.248 4A8 8 0 0 0 18 12v10.006c-3.045.029-3.317 3.783-3.317 4.725S15.392 32 18.438 32a17.221 17.221 0 0 0 7.17 10.267A12.77 12.77 0 0 0 32 44.411a9.329 9.329 0 0 0 5.6-1.933A18.171 18.171 0 0 0 44.767 32C47.793 31.962 49 27.944 49 27s.014-4.935-3-4.988V12c0-5.533-4.713-8-8.713-8" data-name="stroke"/><path stroke-width="2" stroke-linejoin="round" stroke-linecap="round" stroke="#2e4369" fill="none" d="M23.609 40.773c0 2 .99 4.167-10 6.225C2 49.171 2 58 2 58v4h60v-4s0-8.659-12.42-11c-10.715-2.019-9.969-4.112-9.969-6.112m-7.613 3.768v17.342M22 50v8m4-4h-8m.44-22A25.139 25.139 0 0 1 32 28a21.038 21.038 0 0 1 12.769 4M25.354 14.453L18 18.715m20.646-4.262L46 18.001" data-name="stroke"/><circle stroke-width="2" stroke-linejoin="round" stroke-linecap="round" stroke="#2e4369" fill="none" r="1" cy="50.998" cx="38.999" data-name="stroke"/><circle stroke-width="2" stroke-linejoin="round" stroke-linecap="round" stroke="#2e4369" fill="none" r="8" cy="10" cx="31.998" data-name="stroke"/><circle stroke-width="2" stroke-linejoin="round" stroke-linecap="round" stroke="#2e4369" fill="none" r="2" cy="10.003" cx="31.999" data-name="stroke"/></svg>