<svg xmlns="http://www.w3.org/2000/svg" viewBox="0 0 64 64" aria-labelledby="title" aria-describedby="desc"><path data-name="layer2" d="M59.828 15.659a4.008 4.008 0 0 0 0-5.664l-2.841-2.832a4.04 4.04 0 0 0-5.683 0L32.124 26.28l5.683 5.664a3.021 3.021 0 0 0 4.262 0z" fill="#536897"/><path data-name="opacity" d="M59.828 9.995l-.9-.894a4 4 0 0 1-1.1 3.559L40.069 28.944a3.021 3.021 0 0 1-4.262 0l-3.178-3.168-.5.5 5.683 5.664a3.021 3.021 0 0 0 4.262 0l17.754-16.281a4.008 4.008 0 0 0 0-5.664z" fill="#000064" opacity=".16"/><path data-name="layer1" d="M3.1 55.206a.1.1 0 0 0 .029.162c1.424.616 14.063 5.617 25.44-5.723 9.945-9.913 9.235-17.7 9.235-17.7l-5.68-5.665z" fill="#cbe5ff"/><path data-name="opacity" d="M32.124 26.28L22.082 36.29l-4.365 19.884a23.74 23.74 0 0 0 8.729-4.605l5.688-25.28z" fill="#000064" opacity=".16"/><path data-name="stroke" fill="none" stroke="#2e4369" stroke-linecap="round" stroke-miterlimit="10" stroke-width="2" d="M11.937 56.994H36m7 0h6m7 0h6m-2.172-41.335a4.008 4.008 0 0 0 0-5.664l-2.841-2.832a4.04 4.04 0 0 0-5.683 0L32.124 26.28l5.683 5.664a3.021 3.021 0 0 0 4.262 0zM32.124 26.28L3.1 55.206a.1.1 0 0 0 .029.162c1.424.616 14.063 5.617 25.44-5.723 9.945-9.912 9.235-17.7 9.235-17.7" stroke-linejoin="round"/></svg>