<svg xmlns="http://www.w3.org/2000/svg" viewBox="0 0 64 64" aria-labelledby="title" aria-describedby="desc"><path data-name="layer2" fill="none" stroke="#202020" stroke-linecap="round" stroke-miterlimit="10" stroke-width="2" d="M11.937 56.994H36m7 0h6m7 0h6" stroke-linejoin="round"/><path data-name="layer1" d="M59.828 15.659a4.008 4.008 0 0 0 0-5.664l-2.841-2.832a4.04 4.04 0 0 0-5.683 0L32.124 26.28l5.683 5.664a3.021 3.021 0 0 0 4.262 0zM32.124 26.28L3.1 55.206a.1.1 0 0 0 .029.162c1.424.616 14.063 5.617 25.44-5.723 9.945-9.912 9.235-17.7 9.235-17.7" fill="none" stroke="#202020" stroke-linecap="round" stroke-miterlimit="10" stroke-width="2" stroke-linejoin="round"/></svg>