<svg xmlns="http://www.w3.org/2000/svg" viewBox="0 0 64 64" aria-labelledby="title" aria-describedby="desc"><path data-name="layer2" d="M53 22.994h-7v36a5 5 0 0 0 10 0v-33a3 3 0 0 0-3-3zm-6-23h-1v21h7a3 3 0 0 0 3-3v-5c0-6.148-3.7-13-9-13z" fill="#202020"/><path data-name="layer1" d="M14-.006a8 8 0 1 0 0 16c.106 0 .209-.012.314-.016l5.039 16.391A3.925 3.925 0 0 0 20 36.612v24.382c0 1.339 1.536 2.463 3 2.847V7.994h-1a8.009 8.009 0 0 0-8-8zm-4 8a4 4 0 1 1 4 4 4 4 0 0 1-4-4zm24-8a8.009 8.009 0 0 0-8 8h-1v55.848c1.464-.384 3-1.508 3-2.847V36.612a3.925 3.925 0 0 0 .647-4.243l5.043-16.39c.1 0 .205.016.31.016a8 8 0 1 0 0-16zm0 12a4 4 0 1 1 4-4 4 4 0 0 1-4 4z" fill="#202020"/></svg>