<svg xmlns="http://www.w3.org/2000/svg" viewBox="0 0 64 64" aria-labelledby="title" aria-describedby="desc"><path data-name="layer2" d="M62.534 7.286l-2.842-2.832a5.034 5.034 0 0 0-7.095 0L28.708 28.28l6.392 6.372a4.022 4.022 0 0 0 2.847 1.173 3.954 3.954 0 0 0 2.8-1.149L62.51 14.391l.024-.023a5.009 5.009 0 0 0 0-7.081z" fill="#202020"/><path data-name="layer1" d="M36.384 37.615a5.983 5.983 0 0 1-2.695-1.547L27.3 29.7.4 56.492a1.1 1.1 0 0 0-.312.986l.155.6.488.212a23.722 23.722 0 0 0 8.956 1.7h.2c.017 0 .031.01.048.01H34a1 1 0 0 0 0-2H19.188a26.755 26.755 0 0 0 8.091-5.642c6.085-6.07 8.306-11.383 9.105-14.743zM47 57.994h-6a1 1 0 0 0 0 2h6a1 1 0 0 0 0-2zm13 0h-6a1 1 0 0 0 0 2h6a1 1 0 0 0 0-2z" fill="#202020"/></svg>