<svg xmlns="http://www.w3.org/2000/svg" viewBox="0 0 64 64" aria-labelledby="title" aria-describedby="desc"><path data-name="layer4" d="M45 20.994h6a2 2 0 0 1 2 2v35a4 4 0 0 1-4 4 4 4 0 0 1-4-4v-37z" fill="#6470b5"/><path data-name="layer3" d="M26 36.223v23.771a2 2 0 0 1-2 2 2 2 0 0 1-2-2V36.227l-.56-3.787-6.659-18.5c4.781 0 5.134-4.949 5.134-4.949h8.169s.916 4.948 5.134 4.948l-6.657 18.497z" fill="#8695b6"/><circle data-name="layer2" cx="24" cy="33.994" r="3" fill="#536897"/><path data-name="opacity" d="M19.916 8.994s-.353 4.949-5.134 4.949l6.659 18.5.559 3.784v23.767a2 2 0 0 0 2 2v-53z" fill="#000064" opacity=".16"/><path data-name="layer1" d="M51 20.994a2 2 0 0 0 2-2v-5c0-6-3.6-12-8-12v19z" fill="#cbe5ff"/><path data-name="opacity" d="M48 57.994V2.962a5.426 5.426 0 0 0-3-.968v56a4.012 4.012 0 0 0 4 4 3.956 3.956 0 0 0 1.5-.3 4.01 4.01 0 0 1-2.5-3.7z" fill="#000064" opacity=".16"/><circle data-name="stroke" cx="14" cy="7.994" r="6" fill="none" stroke="#2e4369" stroke-linecap="round" stroke-miterlimit="10" stroke-width="2" stroke-linejoin="round"/><circle data-name="stroke" cx="34" cy="7.994" r="6" fill="none" stroke="#2e4369" stroke-linecap="round" stroke-miterlimit="10" stroke-width="2" stroke-linejoin="round"/><circle data-name="stroke" cx="24" cy="33.994" r="3" fill="none" stroke="#2e4369" stroke-linecap="round" stroke-miterlimit="10" stroke-width="2" stroke-linejoin="round"/><path data-name="stroke" fill="none" stroke="#2e4369" stroke-linecap="round" stroke-miterlimit="10" stroke-width="2" d="M19.916 8.994h8.168M21.44 32.44l-6.659-18.497M26 36.223v23.771a2 2 0 0 1-2 2 2 2 0 0 1-2-2V36.227m11.219-22.284l-6.658 18.493M45 20.994h6a2 2 0 0 1 2 2v35a4 4 0 0 1-4 4 4 4 0 0 1-4-4v-37zm6 0a2 2 0 0 0 2-2v-5c0-6-3.6-12-8-12v19" stroke-linejoin="round"/></svg>