<svg xmlns="http://www.w3.org/2000/svg" viewBox="0 0 64 64" aria-labelledby="title" aria-describedby="desc"><path data-name="layer1" d="M63.9 26.9a2 2 0 0 0-2.5-1.3L26.8 37.1a29.8 29.8 0 0 1-6.5-2 17.9 17.9 0 0 1-3.1-1.5l-1.2-.8a14.3 14.3 0 0 1-2.1-2L1 37.7a2 2 0 0 0 1 3.8l1-.2 13-7.1v6.5L1.4 45.6a2 2 0 0 0 .6 3.9h.6l60-20a2 2 0 0 0 1.3-2.6z" fill="#202020"/><path data-name="layer2" d="M28 32.5c7.2 0 13-4 13-9s-5.8-9-13-9-13 4-13 9 5.8 9 13 9zm0-12c3.9 0 6 1 6 3s-2.1 3-6 3-6-1-6-3 2.1-3 6-3z" fill="#202020"/><path data-name="layer1" d="M51 15.3a2 2 0 1 0-2-3.6l-7.4 4A12.2 12.2 0 0 1 44 19zM28 52.5c6.6 0 12-3.6 12-8v-3.3l-22.3 7.4c2.1 2.3 5.9 3.9 10.3 3.9z" fill="#202020"/></svg>