<svg viewBox="0 0 64 64" xmlns="http://www.w3.org/2000/svg" aria-labelledby="title" aria-describedby="desc"><path fill="#4c5e7d" d="M48.017 28.973c-7.732 0-14-3.133-14-7v6.318c3.622 1.266 6 3.361 6 5.738v7.682a24.586 24.586 0 0 0 8 1.262c7.732 0 14-3.135 14-7v-14c0 3.867-6.268 7-14 7z" data-name="layer3"/><ellipse fill="#fff4e8" ry="7" rx="14" cy="15.971" cx="16.009" data-name="layer2"/><ellipse fill="#f26950" ry="1" rx="3" cy="15.941" cx="16.009" data-name="layer1"/><ellipse fill="#fff4e8" ry="7" rx="14" cy="34.029" cx="26.013" data-name="layer2"/><path fill="#4c5e7d" d="M26.013 27.029a27 27 0 0 1 3.971.291V15.982c0 3.867-6.268 7-14 7s-14-3.133-14-7v14c0 3.176 4.232 5.854 10.029 6.709v-2.505c0-.025.007-.051.008-.078s-.008-.051-.008-.078c0-3.866 6.267-7.001 14-7.001z" data-name="layer3"/><ellipse fill="#f26950" ry="1" rx="3" cy="34" cx="26.013" data-name="layer1"/><path fill="#4c5e7d" d="M26.013 41.029c-7.732 0-14-3.133-14-7v14c0 3.865 6.268 7 14 7s14-3.135 14-7v-14c0 3.871-6.268 7-14 7z" data-name="layer3"/><path opacity=".18" fill="#101129" d="M16.017 38.928c-2.474-1.264-4-2.99-4-4.9v14c0 2.092 1.845 3.963 4.753 5.246a3.975 3.975 0 0 1-.749-2.244z" data-name="opacity"/><ellipse fill="#fff4e8" ry="7" rx="14" cy="21.975" cx="48.017" data-name="layer2"/><ellipse fill="#f26950" ry="1" rx="3" cy="21.943" cx="48.017" data-name="layer1"/><path opacity=".25" fill="#fff" d="M30.048 40.736v14a18.3 18.3 0 0 0 7-2.383v-14a18.267 18.267 0 0 1-7 2.383z" data-name="opacity"/><path opacity=".18" fill="#101129" d="M5.987 20.879c-2.474-1.262-4-2.988-4-4.9v14c0 2.092 1.845 3.963 4.753 5.246a3.98 3.98 0 0 1-.749-2.244z" data-name="opacity"/><path opacity=".25" fill="#fff" d="M27.019 27.055v-6.748a18.3 18.3 0 0 1-7 2.383v5.022a26.088 26.088 0 0 1 5.994-.682c.34-.001.672.013 1.006.025zm25.033 1.625v14a18.266 18.266 0 0 0 7-2.383v-14a18.266 18.266 0 0 1-7 2.383z" data-name="opacity"/><path opacity=".18" fill="#101129" d="M38.02 26.871c-2.474-1.264-4-2.99-4-4.9v6.318a12.885 12.885 0 0 1 4 2.152z" data-name="opacity"/><ellipse stroke-width="2" stroke-linejoin="round" stroke-linecap="round" stroke="#2f446a" fill="none" ry="7" rx="14" cy="15.971" cx="15.983" data-name="stroke"/><ellipse stroke-width="2" stroke-linejoin="round" stroke-linecap="round" stroke="#2f446a" fill="none" ry="1" rx="3" cy="15.941" cx="15.983" data-name="stroke"/><path d="M29.983 27.259V15.971m-28 0v14c0 3.172 4.219 5.85 10 6.711" stroke-width="2" stroke-linejoin="round" stroke-linecap="round" stroke="#2f446a" fill="none" data-name="stroke"/><ellipse stroke-width="2" stroke-linejoin="round" stroke-linecap="round" stroke="#2f446a" fill="none" ry="7" rx="14" cy="34.029" cx="25.987" data-name="stroke"/><ellipse stroke-width="2" stroke-linejoin="round" stroke-linecap="round" stroke="#2f446a" fill="none" ry="1" rx="3" cy="34" cx="25.987" data-name="stroke"/><path stroke-width="2" stroke-linejoin="round" stroke-linecap="round" stroke="#2f446a" fill="none" d="M11.987 34.029v14c0 3.865 6.268 7 14 7s14-3.135 14-7v-14" data-name="stroke"/><ellipse stroke-width="2" stroke-linejoin="round" stroke-linecap="round" stroke="#2f446a" fill="none" ry="7" rx="14" cy="21.975" cx="47.991" data-name="stroke"/><ellipse stroke-width="2" stroke-linejoin="round" stroke-linecap="round" stroke="#2f446a" fill="none" ry="1" rx="3" cy="21.943" cx="47.991" data-name="stroke"/><path stroke-width="2" stroke-linejoin="round" stroke-linecap="round" stroke="#2f446a" fill="none" d="M39.991 41.719a24.628 24.628 0 0 0 8 1.254c7.732 0 14-3.133 14-7v-14m-28 .002v6.256" data-name="stroke"/></svg>