<svg viewBox="0 0 64 64" xmlns="http://www.w3.org/2000/svg" aria-labelledby="title" aria-describedby="desc"><ellipse fill="#fff4e8" ry="5.999" rx="11.999" cy="22.014" cx="13.999" data-name="layer2"/><ellipse fill="#f04848" ry=".857" rx="2.571" cy="21.988" cx="13.999" data-name="layer1"/><path fill="#4c5e7d" d="M14 28.014c-6.627 0-12-2.686-12-6v12c0 3.315 5.371 6 12 6s12-2.685 12-6v-12c0 3.314-5.374 6-12 6z" data-name="layer4"/><path fill="#f3746f" d="M34.009 17.986c-6.627 0-12-2.686-12-6v5.57C24.454 18.654 26 20.242 26 22.014v6.43a19.936 19.936 0 0 0 8.01 1.541c6.627 0 12-2.684 12-6v-12c-.001 3.315-5.374 6.001-12.001 6.001z" data-name="layer3"/><ellipse fill="#fff4e8" ry="5.999" rx="11.999" cy="11.988" cx="34.009" data-name="layer2"/><ellipse fill="#f04848" ry=".856" rx="2.571" cy="11.961" cx="34.009" data-name="layer1"/><path opacity=".18" fill="#101129" d="M2 22.014v12c0 2.221 2.417 4.154 6 5.192v-12c-3.582-1.04-6-2.972-6-5.192zm20-10.028v5.57c2.443 1.1 3.988 2.686 3.988 4.457v6.43A15.331 15.331 0 0 0 28 29.17V17.178c-3.582-1.037-6-2.971-6-5.192z" data-name="opacity"/><path opacity=".25" fill="#fff" d="M17.03 27.816v12a16.683 16.683 0 0 0 6-1.844v-12a16.642 16.642 0 0 1-6 1.844zm19.979-10.001v12a16.644 16.644 0 0 0 6-1.842v-12a16.683 16.683 0 0 1-6 1.842z" data-name="opacity"/><path d="M60.001 28.016l-40 21.996m41.998-5.998L16.001 58.012" stroke-width="2" stroke-linejoin="round" stroke-linecap="round" stroke="#2f446a" fill="none" data-name="stroke"/><ellipse stroke-width="2" stroke-linejoin="round" stroke-linecap="round" stroke="#2f446a" fill="none" ry="5.999" rx="11.999" cy="22.014" cx="13.999" data-name="stroke"/><ellipse stroke-width="2" stroke-linejoin="round" stroke-linecap="round" stroke="#2f446a" fill="none" ry=".857" rx="2.571" cy="21.988" cx="13.999" data-name="stroke"/><path stroke-width="2" stroke-linejoin="round" stroke-linecap="round" stroke="#2f446a" fill="none" d="M2 22.014v12c0 3.315 5.371 6 12 6s12-2.685 12-6v-12" data-name="stroke"/><ellipse stroke-width="2" stroke-linejoin="round" stroke-linecap="round" stroke="#2f446a" fill="none" ry="5.999" rx="11.999" cy="11.988" cx="34.009" data-name="stroke"/><ellipse stroke-width="2" stroke-linejoin="round" stroke-linecap="round" stroke="#2f446a" fill="none" ry=".856" rx="2.571" cy="11.961" cx="34.009" data-name="stroke"/><path stroke-width="2" stroke-linejoin="round" stroke-linecap="round" stroke="#2f446a" fill="none" d="M26 28.451a20 20 0 0 0 8.012 1.533c6.627 0 12-2.686 12-6v-12m-24.001.004v5.475" data-name="stroke"/></svg>