<svg xmlns="http://www.w3.org/2000/svg" viewBox="0 0 64 64" aria-labelledby="title" aria-describedby="desc"><path data-name="layer2" d="M32 10l3.6.3C32.7 2.2 38 1 38 1h-8c-1.7 1.8-2.4 5.8-2.1 9.3A23.6 23.6 0 0 1 32 10z" fill="#202020"/><path data-name="layer1" d="M43.3 14.8c2.7 4.4 1.1 10.6-.2 15.6A27.9 27.9 0 0 0 42 36v8a2 2 0 1 1-4 0v-8a29.1 29.1 0 0 1 1.2-6.6c1.2-4.5 2.6-10.1.4-13S35.8 14 32 14s-6.5.8-7.7 2.5-.7 8.3.4 12.7A30.1 30.1 0 0 1 26 36a2 2 0 1 1-4 0 28.2 28.2 0 0 0-1.2-5.8c-1.3-4.9-2.9-11-.3-15.3C15.3 16 10 19.3 10 25s1.6 11.5 2 18 .1 20 10 20c8 0 7-2 10-2s2 2 10 2c9.9 0 9.6-14.2 10-20s2-11.1 2-18-5.4-9.1-10.7-10.2z" fill="#202020"/></svg>