<svg xmlns="http://www.w3.org/2000/svg" viewBox="0 0 64 64" aria-labelledby="title" aria-describedby="desc"><path data-name="layer1" d="M45 38h1V2H2v56h34.1A12 12 0 0 1 45 38z" fill="#ebf5ff"/><path data-name="opacity" d="M35.2 56.9l-.4-.5-.2-.4-.3-.4-.2-.5a11.9 11.9 0 0 1 4-15A12 12 0 0 0 28 52a11.9 11.9 0 0 0 .4 3H6V2H2v56h34.1l-.6-.8z" fill="#000064" opacity=".1"/><path data-name="stroke" fill="none" stroke="#2e4369" stroke-linecap="round" stroke-miterlimit="10" stroke-width="2" d="M36.3 58H2V2h44v36M12 2v8m-2 0h4m10-8v8m-2 0h4m10-8v8m-2 0h4m14.4 40l4.8 4.8L62 50" stroke-linejoin="round"/><path data-name="stroke" fill="none" stroke="#2e4369" stroke-linecap="round" stroke-miterlimit="10" stroke-width="2" d="M38 50l-4.8-4.8-4.8 4.8" stroke-linejoin="round"/><path data-name="stroke" d="M50.9 60.6a11.8 11.8 0 0 1-14.1-2.1A12.1 12.1 0 0 1 34 46m5.6-6.6a11.8 11.8 0 0 1 14.1 2.1A12.1 12.1 0 0 1 56.4 54" fill="none" stroke="#2e4369" stroke-linecap="round" stroke-miterlimit="10" stroke-width="2" stroke-linejoin="round"/></svg>