<svg viewBox="0 0 64 64" xmlns="http://www.w3.org/2000/svg" aria-labelledby="title" aria-describedby="desc"><path fill="#202020" d="M9 13.007h38v-4H19v-4H1v41a2.981 2.981 0 0 0 1.068 2.277A4.007 4.007 0 0 1 5 45.132V17.007a4 4 0 0 1 4-4z" data-name="layer1"/><path fill="#202020" d="M62.407 43.586a2 2 0 0 0-2.828.015l-1.512 1.527a14.135 14.135 0 0 0-4.043-10.014 13.876 13.876 0 0 0-16.432-2.421 2 2 0 0 0 1.916 3.507 9.858 9.858 0 0 1 11.672 1.727 10.085 10.085 0 0 1 2.871 6.912L52.823 43.6a2 2 0 0 0-2.842 2.815L56.2 52.7l6.219-6.283a2 2 0 0 0-.012-2.831zM48.895 53.809a9.845 9.845 0 0 1-11.67-1.722 10.087 10.087 0 0 1-2.871-6.914l1.229 1.24a2 2 0 1 0 2.841-2.813L32.2 37.317 25.981 43.6a2 2 0 1 0 2.842 2.815l1.516-1.529A14.124 14.124 0 0 0 34.383 54.9a13.87 13.87 0 0 0 9.853 4.091 13.682 13.682 0 0 0 6.578-1.675 2 2 0 1 0-1.92-3.509z" data-name="layer2"/><path fill="#202020" d="M21.395 45.036a5.963 5.963 0 0 1 1.736-4.251l6.221-6.285a4 4 0 0 1 2.848-1.183 4.1 4.1 0 0 1 .451.045 5.987 5.987 0 0 1 3.02-4.179 17.752 17.752 0 0 1 8.492-2.16A18 18 0 0 1 53 29.377v-12.37H9v29a3 3 0 0 1-3 3h16.932a5.957 5.957 0 0 1-1.537-3.971z" data-name="layer1"/></svg>