<svg xmlns="http://www.w3.org/2000/svg" viewBox="0 0 64 64" aria-labelledby="title" aria-describedby="desc"><path data-name="layer2" d="M39.3 40.6a2 2 0 0 0-2.8-.1l-.7.6A10 10 0 0 1 52.4 37a2 2 0 0 0 2.8-2.8 14 14 0 0 0-23.4 6.3l-.4-.6A2 2 0 1 0 28 42l4.8 7.1 6.3-5.7a2 2 0 0 0 .2-2.8zm23.4 4.7l-4.8-7.1-6.3 5.7a2 2 0 0 0 2.7 3l.8-.8a10 10 0 0 1-16.8 5 2 2 0 1 0-2.8 2.8A14 14 0 0 0 59 47l.4.5a2 2 0 0 0 3.3-2.2z" fill="#202020"/><path data-name="layer1" fill="#202020" d="M51.3 6H4.9L28 24.1 51.3 6z"/><path data-name="layer1" d="M29.8 34.9a18 18 0 0 1 25.2-6V8.2l-27 21L1 8.1V42h22.8a6 6 0 0 1 5.9-7.1z" fill="#202020"/></svg>