<svg xmlns="http://www.w3.org/2000/svg" viewBox="0 0 64 64" aria-labelledby="title" aria-describedby="desc"><path data-name="layer2" d="M54 37.9V18H10v29a3 3 0 0 1-3 3" fill="none" stroke="#202020" stroke-miterlimit="10" stroke-width="2" stroke-linejoin="round" stroke-linecap="round"/><path data-name="layer2" d="M48 18v-8H20V6H2v41a3 3 0 0 0 3 3h29" fill="none" stroke="#202020" stroke-miterlimit="10" stroke-width="2" stroke-linejoin="round" stroke-linecap="round"/><path data-name="layer1" fill="none" stroke="#202020" stroke-miterlimit="10" stroke-width="2" d="M52.4 46l4.8 4.8L62 46m-24 0l-4.8-4.8-4.8 4.8" stroke-linejoin="round" stroke-linecap="round"/><path data-name="layer1" d="M50.9 56.6a11.8 11.8 0 0 1-14.1-2.1A12.1 12.1 0 0 1 34 42m5.6-6.6a11.8 11.8 0 0 1 14.1 2.1A12.1 12.1 0 0 1 56.4 50" fill="none" stroke="#202020" stroke-miterlimit="10" stroke-width="2" stroke-linejoin="round" stroke-linecap="round"/></svg>