<svg xmlns="http://www.w3.org/2000/svg" viewBox="0 0 64 64" aria-labelledby="title" aria-describedby="desc"><path data-name="layer1" d="M18.662 25.152l-2.755 2.349a17.985 17.985 0 0 1 30.135-8.232l4.242-4.244A23.998 23.998 0 0 0 9.981 26.403L8 24l-5 3 8.943 11.768 10.613-9.05zm35.948-.206l-10.442 9.388 4.012 4.462 2.54-2.284a17.983 17.983 0 0 1-30.134 8.215l-4.24 4.245A24 24 0 0 0 56.607 37.78l1.76 2.39L63 37z" fill="#bacae9"/><circle data-name="layer1" cx="34" cy="32" r="5" fill="#bacae9"/><path data-name="stroke" d="M18.662 25.152l-2.755 2.349a17.985 17.985 0 0 1 30.135-8.232l4.242-4.244A23.998 23.998 0 0 0 9.981 26.403L8 24l-5 3 8.943 11.768 10.613-9.05zm35.948-.206l-10.442 9.388 4.012 4.462 2.54-2.284a17.983 17.983 0 0 1-30.134 8.215l-4.24 4.245A24 24 0 0 0 56.607 37.78l1.76 2.39L63 37z" fill="none" stroke="#2e4369" stroke-linecap="round" stroke-linejoin="round" stroke-width="2"/><circle data-name="stroke" cx="34" cy="32" r="5" fill="none" stroke="#2e4369" stroke-linecap="round" stroke-linejoin="round" stroke-width="2"/></svg>