<svg xmlns="http://www.w3.org/2000/svg" viewBox="0 0 64 64" aria-labelledby="title" aria-describedby="desc"><circle data-name="layer2" cx="46" cy="43" r="16" fill="#5edc89"/><path data-name="layer1" d="M10 48V19h38v-8H20V7H2v41a3 3 0 0 0 3 3h2a3 3 0 0 0 3-3z" fill="#f8da82"/><path data-name="opacity" d="M10 48V19h38v-8H20V7H2v41a3 3 0 0 0 3 3h2a3 3 0 0 0 3-3z" fill="#000064" opacity=".15"/><path data-name="layer1" d="M46 27a15.9 15.9 0 0 1 8 2.2V19H10v29a3 3 0 0 1-3 3h25.2A16 16 0 0 1 46 27z" fill="#f8da82"/><path data-name="opacity" d="M30 43a16 16 0 0 1 7.7-13.7A16 16 0 0 0 26.2 51h6a15.9 15.9 0 0 1-2.2-8z" fill="#000064" opacity=".15"/><path data-name="opacity" fill="#fff" opacity=".2" d="M10 19h44v3H10z"/><path data-name="opacity" d="M46 27a16 16 0 0 0-12.5 6A16 16 0 0 1 56 55.5 16 16 0 0 0 46 27z" fill="#fff" opacity=".25"/><path data-name="stroke" d="M7 51a3 3 0 0 0 3-3V19h44v10.1" fill="none" stroke="#2e4369" stroke-linecap="round" stroke-miterlimit="10" stroke-width="2" stroke-linejoin="round"/><path data-name="stroke" d="M48 19v-8H20V7H2v41a3 3 0 0 0 3 3h27.1" fill="none" stroke="#2e4369" stroke-linecap="round" stroke-miterlimit="10" stroke-width="2" stroke-linejoin="round"/><path data-name="stroke" d="M62 43a16 16 0 1 1-16-16 16 16 0 0 1 16 16z" fill="none" stroke="#2e4369" stroke-linecap="round" stroke-miterlimit="10" stroke-width="2" stroke-linejoin="round"/><path data-name="stroke" fill="none" stroke="#2e4369" stroke-linecap="round" stroke-miterlimit="10" stroke-width="2" d="M53 39l-8 9-5-5" stroke-linejoin="round"/></svg>