<svg xmlns="http://www.w3.org/2000/svg" viewBox="0 0 64 64" aria-labelledby="title" aria-describedby="desc"><path data-name="layer1" d="M46 38a12 12 0 0 1 10 5.4V12H2v36h32.2A12 12 0 0 1 46 38z" fill="#fff4e3"/><path data-name="opacity" fill="#000064" opacity=".14" d="M2 12l27 20.6L56 12v1.5L26 40 2 16.5V12zm26.2 36h6a12 12 0 0 1 8.8-9.6A11.9 11.9 0 0 0 28.2 48z"/><path data-name="stroke" d="M58.2 48.5a12.1 12.1 0 0 1 .1 1.5 12 12 0 0 1-20.5 8.5m-3.4-7.1a12.1 12.1 0 0 1-.1-1.4 12 12 0 0 1 20.5-8.5" fill="none" stroke="#2e4369" stroke-linecap="round" stroke-miterlimit="10" stroke-width="2" stroke-linejoin="round"/><path data-name="stroke" fill="none" stroke="#2e4369" stroke-linecap="round" stroke-miterlimit="10" stroke-width="2" d="M30.7 46.9l3.5 5.2 4.6-4.2M62 52.4l-3.5-5.2-4.6 4.2" stroke-linejoin="round"/><path data-name="stroke" fill="none" stroke="#2e4369" stroke-linecap="round" stroke-miterlimit="10" stroke-width="2" d="M30 48H2V12h54v22" stroke-linejoin="round"/><path data-name="stroke" fill="none" stroke="#2e4369" stroke-linecap="round" stroke-miterlimit="10" stroke-width="2" d="M2 12l27 20.6L56 12" stroke-linejoin="round"/></svg>