<svg xmlns="http://www.w3.org/2000/svg" viewBox="0 0 64 64" aria-labelledby="title" aria-describedby="desc"><path data-name="layer3" d="M41 18H10a8 8 0 0 1 0-16h31z" fill="#fff"/><path data-name="opacity" d="M10 2a8 8 0 0 0-7.7 10A8 8 0 0 1 10 6h31V2z" fill="#000064" opacity=".15"/><circle data-name="layer2" cx="46" cy="46" r="16" fill="#5edc89"/><path data-name="opacity" d="M46 30a16 16 0 0 0-12.5 6A16 16 0 0 1 56 58.5 16 16 0 0 0 46 30z" fill="#fff" opacity=".25"/><path data-name="layer1" d="M42 30.5V18H10a8 8 0 0 1-8-8v38a8 8 0 0 0 8 8h23.5A16 16 0 0 1 42 30.5z" fill="#9cf"/><path data-name="opacity" d="M33.5 56A15.9 15.9 0 0 1 37 32.8 16 16 0 0 0 28.2 56h5.4zM2 10v38a8 8 0 0 0 7 7.9v-38A8 8 0 0 1 2 10z" fill="#000064" opacity=".15"/><path data-name="stroke" fill="none" stroke="#2e4369" stroke-linecap="round" stroke-miterlimit="10" stroke-width="2" d="M10 10h30m-6.5 46H10a8 8 0 0 1-8-8V10" stroke-linejoin="round"/><path data-name="stroke" d="M42 30.5V18H10a8 8 0 0 1 0-16h31v16" fill="none" stroke="#2e4369" stroke-linecap="round" stroke-miterlimit="10" stroke-width="2" stroke-linejoin="round"/><circle data-name="stroke" cx="46" cy="46" r="16" fill="none" stroke="#2e4369" stroke-linecap="round" stroke-miterlimit="10" stroke-width="2" stroke-linejoin="round"/><path data-name="stroke" fill="none" stroke="#2e4369" stroke-linecap="round" stroke-miterlimit="10" stroke-width="2" d="M53 42l-8 9-5-5" stroke-linejoin="round"/></svg>