<svg xmlns="http://www.w3.org/2000/svg" viewBox="0 0 64 64" aria-labelledby="title" aria-describedby="desc"><path data-name="layer2" d="M54 19v-8H20V7H2v45a3 3 0 0 0 3 3h54a3 3 0 0 0 3-3V19H10v33a3 3 0 0 1-3 3" fill="none" stroke="#202020" stroke-miterlimit="10" stroke-width="2" stroke-linejoin="round" stroke-linecap="round"/><path data-name="layer1" fill="none" stroke="#202020" stroke-miterlimit="10" stroke-width="2" d="M42 37l4 4 4-4m-20 0l-4-4-4 4" stroke-linejoin="round" stroke-linecap="round"/><path data-name="layer1" d="M40.7 45.8A9.8 9.8 0 0 1 29 44.1a10.1 10.1 0 0 1-2.3-10.4m4.6-5.5A9.8 9.8 0 0 1 43 29.9a10.1 10.1 0 0 1 2.3 10.4" fill="none" stroke="#202020" stroke-miterlimit="10" stroke-width="2" stroke-linejoin="round" stroke-linecap="round"/></svg>