<svg xmlns="http://www.w3.org/2000/svg" viewBox="0 0 64 64" aria-labelledby="title" aria-describedby="desc"><path data-name="layer1" d="M45 33a12 12 0 0 1 9 4.1V15H22V9H2v40.3A1.7 1.7 0 0 0 3.7 51h30.9A12 12 0 0 1 45 33z" fill="#f8da82"/><path data-name="opacity" d="M38.1 35.2A12 12 0 0 0 28 47v1H7.7A1.7 1.7 0 0 1 6 46.3V9H2v40.3A1.7 1.7 0 0 0 3.7 51h30.9l-.7-1.4a12.1 12.1 0 0 1-.5-1.5 11.9 11.9 0 0 1 4.8-12.8z" fill="#000064" opacity=".15"/><path data-name="stroke" d="M54 36.9V15H22V9H2v40.3A1.7 1.7 0 0 0 3.7 51h31.2m17.5-6l4.8 4.8L62 45" fill="none" stroke="#2e4369" stroke-linecap="round" stroke-miterlimit="10" stroke-width="2" stroke-linejoin="round"/><path data-name="stroke" fill="none" stroke="#2e4369" stroke-linecap="round" stroke-miterlimit="10" stroke-width="2" d="M38 45l-4.8-4.8-4.8 4.8" stroke-linejoin="round"/><path data-name="stroke" d="M50.9 55.6a11.8 11.8 0 0 1-14.1-2.1A12.1 12.1 0 0 1 34 41m5.6-6.6a11.8 11.8 0 0 1 14.1 2.1A12.1 12.1 0 0 1 56.4 49" fill="none" stroke="#2e4369" stroke-linecap="round" stroke-miterlimit="10" stroke-width="2" stroke-linejoin="round"/></svg>