<svg xmlns="http://www.w3.org/2000/svg" viewBox="0 0 64 64" aria-labelledby="title" aria-describedby="desc"><path data-name="layer3" d="M54 4a2 2 0 0 0-2-2H12a2 2 0 0 0-2 2v6h44zM10 50v10a2 2 0 0 0 2 2h40a2 2 0 0 0 2-2V50z" fill="#536897"/><path data-name="opacity" d="M16 2h-4a2 2 0 0 0-2 2v6h4V4a2 2 0 0 1 2-2zm-2 58V50h-4v10a2 2 0 0 0 2 2h4a2 2 0 0 1-2-2z" fill="#000064" opacity=".14"/><circle data-name="layer6" cx="32" cy="56" r="2" fill="#7b8baf"/><path data-name="layer5" fill="#a0d6ef" d="M10 10h44v40H10z"/><path data-name="opacity" fill="#fff" opacity=".25" d="M44.5 10L10 44.5V50h3l40-40h-8.5zM24.8 50H49l5-5V20.2C47.6 26.9 32.6 42.6 24.8 50z"/><path data-name="layer1" fill="#44d88d" d="M17 17h6v6h-6z"/><path data-name="layer4" fill="#fc6" d="M29 17h6v6h-6z"/><path data-name="layer3" fill="#536897" d="M41 17h6v6h-6z"/><path data-name="layer2" fill="#28aae1" d="M17 29h6v6h-6z"/><path data-name="layer1" fill="#44d88d" d="M29 29h6v6h-6z"/><path data-name="stroke" d="M54 4a2 2 0 0 0-2-2H12a2 2 0 0 0-2 2v6h44zM10 60a2 2 0 0 0 2 2h40a2 2 0 0 0 2-2V50H10zm44-10V10m-44 0v40m7-33h6v6h-6zm12 0h6v6h-6zm12 0h6v6h-6zM17 29h6v6h-6zm12 0h6v6h-6z" fill="none" stroke="#2e4369" stroke-linecap="round" stroke-linejoin="round" stroke-width="2"/><circle data-name="stroke" cx="32" cy="56" r="2" fill="none" stroke="#2e4369" stroke-linecap="round" stroke-linejoin="round" stroke-width="2"/></svg>