<svg xmlns="http://www.w3.org/2000/svg" viewBox="0 0 64 64" aria-labelledby="title" aria-describedby="desc"><rect data-name="layer2" x="16" y="11.5" width="8" height="8" rx="2" ry="2" fill="#202020"/><rect data-name="layer2" x="28" y="11.5" width="8" height="8" rx="2" ry="2" fill="#202020"/><rect data-name="layer2" x="40" y="11.5" width="8" height="8" rx="2" ry="2" fill="#202020"/><rect data-name="layer2" x="16" y="23.5" width="8" height="8" rx="2" ry="2" fill="#202020"/><rect data-name="layer2" x="28" y="23.5" width="8" height="8" rx="2" ry="2" fill="#202020"/><path data-name="layer1" d="M52 2H12a2 2 0 0 0-2 2v56a2 2 0 0 0 2 2h40a2 2 0 0 0 2-2V4a2 2 0 0 0-2-2zM33.4 57.4a2.1 2.1 0 0 1-1.4.6 2 2 0 0 1-1.4-3.4 2.1 2.1 0 0 1 2.8 0 2 2 0 0 1 0 2.8zM50 50H14V8h36z" fill="#202020"/></svg>