<svg xmlns="http://www.w3.org/2000/svg" viewBox="0 0 64 64" aria-labelledby="title" aria-describedby="desc"><path data-name="layer1" d="M48 3v54a4 4 0 0 1-4 4H6a4 4 0 0 1-4-4V3z" fill="#f7d8bc"/><path data-name="opacity" d="M35 3v54a4 4 0 0 1-4 4h8a4 4 0 0 0 4-4V3z" fill="#fff" opacity=".5"/><path data-name="layer2" d="M22 35V25a6 6 0 0 0-6-6 6 6 0 0 0-6 6v10z" fill="#f26950"/><path data-name="layer1" d="M48 45a14 14 0 0 0 14-14v-4a14 14 0 0 0-14-14v4a10 10 0 0 1 10 10v4a10 10 0 0 1-10 10z" fill="#f7d8bc"/><path data-name="opacity" d="M20 38.1v-3H10V3H2v54a4 4 0 0 0 4 4h8a4 4 0 0 1-4-4V38.1z" fill="#101129" opacity=".18"/><path data-name="stroke" fill="none" stroke="#2f446a" stroke-linecap="round" stroke-linejoin="round" stroke-width="2" d="M16 3v16M48 3v54a4 4 0 0 1-4 4H6a4 4 0 0 1-4-4V3z"/><path data-name="stroke" d="M22 35V25a6 6 0 0 0-6-6 6 6 0 0 0-6 6v10zm26-22a14 14 0 0 1 14 14v4a14 14 0 0 1-14 14" fill="none" stroke="#2f446a" stroke-linecap="round" stroke-linejoin="round" stroke-width="2"/><path data-name="stroke" d="M48 41a10 10 0 0 0 10-10v-4a10 10 0 0 0-10-10" fill="none" stroke="#2f446a" stroke-linecap="round" stroke-linejoin="round" stroke-width="2"/></svg>