<svg xmlns="http://www.w3.org/2000/svg" viewBox="0 0 64 64" aria-labelledby="title" aria-describedby="desc"><path data-name="layer2" d="M62 23a5.7 5.7 0 0 0-6 6v6c0 1.9 0 3.6-3 3.9a20.9 20.9 0 0 0-2.5-9.9H14.3a10 10 0 1 0-1.5 18.6 21.2 21.2 0 0 0 2.4 4l.3.4h33l.3-.4a20.9 20.9 0 0 0 3.8-8.6c4.9-.2 7.4-2.9 7.4-8v-6a1.8 1.8 0 0 1 2-2 2 2 0 0 0 0-4zM10 44a6 6 0 1 1 2.1-11.6 20.9 20.9 0 0 0-.5 11.4z" fill="#202020"/><path data-name="layer1" d="M35.3 18.3a4 4 0 1 0-6.6 0A21 21 0 0 0 16.4 25h31.2a21 21 0 0 0-12.3-6.7z" fill="#202020"/></svg>