<svg xmlns="http://www.w3.org/2000/svg" viewBox="0 0 64 64" aria-labelledby="title" aria-describedby="desc"><path data-name="layer1" d="M17.8 21.7a3.9 3.9 0 0 0 3-4.4c-.3-3-1.4-7.3 11.2-7.3s11.5 4.3 11.2 7.3a3.9 3.9 0 0 0 3 4.4l9.9 2c1.3.2 3.2.8 4.6-1.1a11.4 11.4 0 0 0-2-13.4C53.5 4.2 43.1 2 32 2S10.5 4.2 5.3 9.3a11.4 11.4 0 0 0-2 13.4c1.4 1.8 3.3 1.3 4.6 1.1z" fill="#9cf"/><path data-name="opacity" d="M58.7 9.3C53.5 4.2 43.1 2 32 2S10.5 4.2 5.3 9.3A11 11 0 0 0 3 12.7l.4-.4C8.5 7.2 18.9 5 30 5s21.5 2.2 26.7 7.3a11.4 11.4 0 0 1 2.9 11.3 3.3 3.3 0 0 0 1.1-1 11.4 11.4 0 0 0-2-13.3z" fill="#fff" opacity=".25"/><path data-name="layer1" d="M36 32v2a2 2 0 0 1-2 2h-4a2 2 0 0 1-2-2v-2zm-16 0v2a2 2 0 0 1-2 2h-4a2 2 0 0 1-2-2v-2zm32 0v2a2 2 0 0 1-2 2h-4a2 2 0 0 1-2-2v-2zM36 44v2a2 2 0 0 1-2 2h-4a2 2 0 0 1-2-2v-2zm-16 0v2a2 2 0 0 1-2 2h-4a2 2 0 0 1-2-2v-2zm32 0v2a2 2 0 0 1-2 2h-4a2 2 0 0 1-2-2v-2zM36 56v2a2 2 0 0 1-2 2h-4a2 2 0 0 1-2-2v-2zm-16 0v2a2 2 0 0 1-2 2h-4a2 2 0 0 1-2-2v-2zm32 0v2a2 2 0 0 1-2 2h-4a2 2 0 0 1-2-2v-2z" fill="#9cf"/><path data-name="stroke" d="M17.8 21.7a3.9 3.9 0 0 0 3-4.4c-.3-3-1.4-7.3 11.2-7.3s11.5 4.3 11.2 7.3a3.9 3.9 0 0 0 3 4.4l9.9 2c1.3.2 3.2.8 4.6-1.1a11.4 11.4 0 0 0-2-13.4C53.5 4.2 43.1 2 32 2S10.5 4.2 5.3 9.3a11.4 11.4 0 0 0-2 13.4c1.4 1.8 3.3 1.3 4.6 1.1zM36 32v2a2 2 0 0 1-2 2h-4a2 2 0 0 1-2-2v-2m-8 0v2a2 2 0 0 1-2 2h-4a2 2 0 0 1-2-2v-2m40 0v2a2 2 0 0 1-2 2h-4a2 2 0 0 1-2-2v-2m-8 12v2a2 2 0 0 1-2 2h-4a2 2 0 0 1-2-2v-2m-8 0v2a2 2 0 0 1-2 2h-4a2 2 0 0 1-2-2v-2m40 0v2a2 2 0 0 1-2 2h-4a2 2 0 0 1-2-2v-2m-8 12v2a2 2 0 0 1-2 2h-4a2 2 0 0 1-2-2v-2m-8 0v2a2 2 0 0 1-2 2h-4a2 2 0 0 1-2-2v-2m40 0v2a2 2 0 0 1-2 2h-4a2 2 0 0 1-2-2v-2" fill="none" stroke="#2e4369" stroke-linecap="round" stroke-miterlimit="10" stroke-width="2" stroke-linejoin="round"/></svg>