<svg xmlns="http://www.w3.org/2000/svg" viewBox="0 0 64 64" aria-labelledby="title" aria-describedby="desc"><path data-name="layer1" d="M33.8-.05A20.842 20.842 0 0 0 15.4 30.5a1.7 1.7 0 0 0 3-1.6 17.693 17.693 0 0 1-2-8.187A17.4 17.4 0 1 1 33.8 38.19a18.278 18.278 0 0 1-4-.5 1.744 1.744 0 1 0-.8 3.395 19.616 19.616 0 0 0 4.8.5 20.817 20.817 0 0 0 0-41.635z" fill="#03a9f4"/><path data-name="layer1" d="M30 26.109a6.836 6.836 0 0 0 4 1.3 6.989 6.989 0 1 0-7-6.989 7.2 7.2 0 0 0 .8 3.2A37.673 37.673 0 0 0 23.3 29c-4.2 6.19-9.1 16.874-8.1 33.348a1.734 1.734 0 0 0 1.7 1.6h.1a1.749 1.749 0 0 0 1.6-1.8C17.7 46.877 22.1 36.792 26 31.1a27.26 27.26 0 0 1 4-4.991z" fill="#03a9f4"/></svg>