<svg xmlns="http://www.w3.org/2000/svg" viewBox="0 0 64 64" aria-labelledby="title" aria-describedby="desc"><path data-name="layer1" d="M51.035 27.026a21.136 21.136 0 0 0 .75-5.437 19.5 19.5 0 1 0-39 0 20.583 20.583 0 0 0 .75 5.438c-2.438 1.969-12 10.5-8.062 21.656 0 0 3.281-.281 6.094-5.344a21.167 21.167 0 0 0 4.5 8.625c-3.094.938-5.156 2.625-5.156 4.688 0 2.906 4.5 5.344 9.937 5.344 3.75 0 6.937-1.125 8.719-2.719.938.094 1.875.188 2.813.188s1.875-.094 2.813-.188c1.687 1.594 4.969 2.719 8.719 2.719 5.531 0 9.938-2.437 9.938-5.344 0-2.063-2.063-3.75-5.156-4.687a22.366 22.366 0 0 0 4.5-8.625c2.719 5.063 6.094 5.344 6.094 5.344 3.747-11.158-5.816-19.69-8.253-21.658z" fill="none" stroke="#202020" stroke-linecap="round" stroke-miterlimit="10" stroke-width="2" stroke-linejoin="round"/></svg>