<svg xmlns="http://www.w3.org/2000/svg" viewBox="0 0 64 64" aria-labelledby="title" aria-describedby="desc"><path data-name="layer2" fill="#c3d6f9" d="M26 50v10h12V50"/><rect data-name="layer2" x="2" y="4" width="60" height="46" rx="2" ry="2" fill="#c3d6f9"/><path data-name="opacity" d="M6 48V6a2 2 0 0 1 2-2H4a2 2 0 0 0-2 2v42a2 2 0 0 0 2 2h4a2 2 0 0 1-2-2z" fill="#000064" opacity=".14"/><path data-name="layer1" fill="#7b8baf" d="M10 12h44v28H10z"/><path data-name="opacity" fill="#fff" opacity=".25" d="M10 12v28h1l28-28H10z"/><path data-name="opacity" fill="#000064" opacity=".14" d="M26 50h12v5H26z"/><path data-name="stroke" fill="none" stroke="#2e4369" stroke-linecap="round" stroke-linejoin="round" stroke-width="2" d="M10 12h44v28H10zm16 38v10m12-10v10m-22 0h32"/><rect data-name="stroke" x="2" y="4" width="60" height="46" rx="2" ry="2" fill="none" stroke="#2e4369" stroke-linecap="round" stroke-linejoin="round" stroke-width="2"/></svg>