<svg xmlns="http://www.w3.org/2000/svg" viewBox="0 0 64 64" aria-labelledby="title" aria-describedby="desc"><path data-name="layer3" d="M2.879 9.982l7.1-7.1a3.022 3.022 0 0 1 4.262 0L46.5 35.131a21.734 21.734 0 0 1 4.912 7.569l1.9 4.929-5.682 5.682-4.929-1.9a21.734 21.734 0 0 1-7.57-4.911L2.879 14.243a3.022 3.022 0 0 1 0-4.261z" fill="#cbe5ff"/><path data-name="opacity" d="M47.626 53.308l-4.929-1.9a21.733 21.733 0 0 1-7.566-4.908L2.879 14.243a3.022 3.022 0 0 1 0-4.262l3-3a3.022 3.022 0 0 0 0 4.262L38.131 43.5a21.733 21.733 0 0 0 7.569 4.912l4.929 1.9z" fill="#000064" opacity=".16"/><path data-name="layer2" d="M48.336 52.6l8.523 8.523a3.022 3.022 0 0 0 4.262 0 3.022 3.022 0 0 0 0-4.262L52.6 48.336z" fill="#536897"/><path data-name="opacity" d="M47.439 39.984c1.123 1.678-1 2.775-2.1 1.879L8.382 4.882l2-2z" fill="#fff" opacity=".5"/><path data-name="layer1" d="M50.387 49.387a1 1 0 0 1-.707-.293L30.7 30.109a1 1 0 0 1 1.409-1.409l18.985 18.98a1 1 0 0 1-.707 1.707z" fill="#f4475d"/><path data-name="stroke" fill="none" stroke="#2e4369" stroke-linecap="round" stroke-miterlimit="10" stroke-width="2" d="M11.402 11.402l38.985 38.985M48.336 52.6l8.523 8.523a3.022 3.022 0 0 0 4.262 0 3.022 3.022 0 0 0 0-4.262L52.6 48.336" stroke-linejoin="round"/><path data-name="stroke" d="M2.879 9.982l7.1-7.1a3.022 3.022 0 0 1 4.262 0L46.5 35.131a21.734 21.734 0 0 1 4.912 7.569l1.9 4.929-5.682 5.682-4.929-1.9a21.734 21.734 0 0 1-7.57-4.911L2.879 14.243a3.022 3.022 0 0 1 0-4.261zm19.899 1.431l-2.131 2.131m7.802 3.54l-2.131 2.131m7.802 3.54l-2.131 2.131m7.802 3.54l-2.131 2.131m7.802 3.541l-2.131 2.13" fill="none" stroke="#2e4369" stroke-linecap="round" stroke-miterlimit="10" stroke-width="2" stroke-linejoin="round"/></svg>