<svg xmlns="http://www.w3.org/2000/svg" viewBox="0 0 64 64" aria-labelledby="title" aria-describedby="desc"><circle data-name="layer2" cx="32" cy="32" r="30" fill="#e1f4f3"/><path data-name="opacity" d="M41.992 39.264l-10.008-6.11c0-.052.016-.1.016-.154a2.981 2.981 0 0 0-1-2.221V13a2 2 0 0 0-4 0v17.779A2.988 2.988 0 0 0 28.968 36l11.039 6.739a2 2 0 0 0 1.984-3.473z" fill="#000064" opacity=".15"/><path data-name="opacity" d="M32 2A29.938 29.938 0 0 0 8.881 12.881a30 30 0 0 1 42.238 42.238A30 30 0 0 0 32 2z" fill="#000064" opacity=".15"/><circle data-name="layer1" cx="32" cy="32" r="3" fill="#6e7da9"/><circle data-name="stroke" cx="32" cy="32" r="30" fill="none" stroke="#2e4369" stroke-linecap="round" stroke-miterlimit="10" stroke-width="2" stroke-linejoin="round"/><circle data-name="stroke" cx="32" cy="32" r="3" fill="none" stroke="#2e4369" stroke-linecap="round" stroke-miterlimit="10" stroke-width="2" stroke-linejoin="round"/><path data-name="stroke" fill="none" stroke="#2e4369" stroke-linecap="round" stroke-miterlimit="10" stroke-width="2" d="M33.961 34.261L46 42M32 10v19" stroke-linejoin="round"/></svg>