<svg xmlns="http://www.w3.org/2000/svg" viewBox="0 0 64 64" aria-labelledby="title" aria-describedby="desc"><path data-name="layer1" d="M56.636 8.612C49.818-.1 39.1.661 30.905 6.03c-3.752-2.619-6.912-5.1-13.758-3.5C5.431 5.282 3 13.981 3 24.213 3 29.886 4.832 38.8 7.071 47.919S13.567 62 17.536 62 22 57.546 22 54c0-4 1-15 10-15 6.921 0 9 9 9 15 0 5.731 2 8 5.866 8C54.3 62 58.982 39.673 60 34s3.455-16.676-3.364-25.388z" fill="#cbe5ff"/><path data-name="opacity" d="M44 43c-2-5-9-7-13.926-3.807A9.658 9.658 0 0 1 32 39c6.921 0 9 9 9 15 0 4.639 1.31 7.008 3.86 7.743C37.719 59.486 46 48 44 43zM3 24.213C3 29.886 4.832 38.8 7.071 47.919c1.951 7.943 5.429 12.731 8.923 13.833C8.992 56.5 16 45 12 29s3-26.964 9.165-26.965a17.492 17.492 0 0 0-4.018.5C5.431 5.282 3 13.981 3 24.213z" fill="#000064" opacity=".16"/><path data-name="opacity" d="M52.864 10.136c-6.371-6.128-14.074-1.8-12.7.6 1.037 2.3 4.48 3.763 6.173 5.928 2.164 1.693 3.624 5.136 5.928 6.173 2.398 1.372 6.727-6.331.599-12.701z" fill="#fff" opacity=".5"/><path data-name="stroke" d="M40 11a13.6 13.6 0 0 0 7 0M30.9 6.026C39.094.656 49.817-.1 56.636 8.612S61.018 28.327 60 34s-5.7 28-13.134 28C43 62 41 59.731 41 54c0-6-2.079-15-9-15-9 0-10 11-10 15 0 3.546-.494 8-4.464 8S9.31 57.036 7.071 47.919 3 29.886 3 24.213C3 13.981 5.431 5.282 17.147 2.534 26.75.281 29.079 6.062 36 9" fill="none" stroke="#2e4369" stroke-linecap="round" stroke-miterlimit="10" stroke-width="2" stroke-linejoin="round"/></svg>