<svg xmlns="http://www.w3.org/2000/svg" viewBox="0 0 64 64" aria-labelledby="title" aria-describedby="desc"><path data-name="layer1" d="M56 16.002H12.004a1 1 0 0 1 0-2L51.998 14a7 7 0 0 0 0-14H4a3 3 0 0 0 0 6h47.998a1 1 0 0 1 0 2l-39.994.001a7 7 0 1 0 0 14L56 22.002a1 1 0 0 1 0 2H24.01a7 7 0 0 0 0 14l17.983.002a1 1 0 0 1 0 2l-19.984.001a7 7 0 0 0 0 14l7.978.001a.997.997 0 0 1 .03 1.995L30.013 56a7.018 7.018 0 0 0-6.083 3.535 3 3 0 1 0 5.212 2.972.99.99 0 0 1 .832-.502l.013.001a7 7 0 0 0 0-14H22.01a1 1 0 1 1 0-2l19.984-.002a7 7 0 0 0 0-14l-17.983-.002a1 1 0 1 1 0-2H56a7 7 0 0 0 0-14z" fill="#202020"/></svg>