<svg xmlns="http://www.w3.org/2000/svg" viewBox="0 0 64 64" aria-labelledby="title" aria-describedby="desc"><path data-name="layer1" d="M58 5H2C25.5 17.8.3 22.1 17.5 36.3 30 47 31.8 53.3 28 61h4s19.2-14.4 14-24C29.4 16.5 73.4 25.8 58 5z" fill="#cdf0f0"/><path d="M40 5H22.3c7.4 12.8-.5 17.1 4.9 31.3 3.9 10.7 4.5 17 3.3 24.7h1.3s6.1-14.4 4.4-24C31 16.5 44.8 25.8 40 5z" fill="#fff" data-name="opacity" opacity=".5"/><path data-name="stroke" fill="none" stroke="#2e4369" stroke-linecap="round" stroke-linejoin="round" stroke-width="2" d="M2 5h56m-46 8h50M8 21h44m-40 8h30m-24 8h28m-20 8h20m-16 8h10m-12 8h4"/></svg>