<svg xmlns="http://www.w3.org/2000/svg" viewBox="0 0 64 64" aria-labelledby="title" aria-describedby="desc"><circle data-name="layer2" cx="14" cy="50" r="5" fill="#202020"/><circle data-name="layer2" cx="30" cy="50" r="5" fill="#202020"/><circle data-name="layer2" cx="46" cy="50" r="5" fill="#202020"/><path data-name="layer1" d="M14 41a9 9 0 0 1 8 4.9 9 9 0 0 1 16 0A9 9 0 0 1 54.9 49H63l-7.9-12H2v12h3.1a9 9 0 0 1 8.9-8zm39.8-16H50v-8a2 2 0 0 0 0-4h-8a2 2 0 0 0 0 4v8H22V13h2a2 2 0 0 0 0-4H3a2 2 0 0 0 0 4h3v20h49.6c.8-2.9.6-8-1.8-8z" fill="#202020"/></svg>