<svg xmlns="http://www.w3.org/2000/svg" viewBox="0 0 64 64" aria-labelledby="title" aria-describedby="desc"><path data-name="layer1" d="M62 51h-2V39H44v12h-4V21h4v14h16V21h2a2 2 0 0 0 0-4H37l3.8-3.8L34.7 7H48a2 2 0 0 0 0-4H16a2 2 0 0 0 0 4h13.3l-6.2 6.2L27 17H2a2 2 0 0 0 0 4h2v14h16V21h4v30h-4V39H4v12H2a2 2 0 0 0 0 4h.6a4 4 0 0 0-.6 2 4 4 0 1 0 8 0 4 4 0 0 0-.6-2h3.1a3.9 3.9 0 0 0-.6 2 4 4 0 0 0 8 0 4 4 0 0 0-.6-2h25.3a4 4 0 0 0-.6 2 4 4 0 1 0 8 0 4 4 0 0 0-.6-2h3.1a4 4 0 0 0-.6 2 4 4 0 1 0 8 0 4 4 0 0 0-.6-2h.7a2 2 0 0 0 0-4zM32 10l3.2 3.2-3.2 3.1-3.2-3.2zm2 11v30h-4V21z" fill="#202020"/></svg>