<svg xmlns="http://www.w3.org/2000/svg" viewBox="0 0 64 64" aria-labelledby="title" aria-describedby="desc"><path data-name="layer2" d="M61.153 2.75A2.4 2.4 0 0 0 59.372 2H4.434a2.4 2.4 0 0 0-1.781.75A2.4 2.4 0 0 0 1.9 4.531v55.032a2.743 2.743 0 0 0 .75 1.781A2.752 2.752 0 0 0 4.434 62h55.032a2.743 2.743 0 0 0 1.781-.75A2.561 2.561 0 0 0 62 59.469V4.531a2.9 2.9 0 0 0-.847-1.781z" fill="none" stroke="#202020" stroke-linecap="round" stroke-miterlimit="10" stroke-width="2" stroke-linejoin="round"/><path data-name="layer1" d="M29.372 49.531a1.2 1.2 0 0 1-.375.938 1.432 1.432 0 0 1-.937.375H9.4a1.2 1.2 0 0 1-.937-.375 1.432 1.432 0 0 1-.375-.937V9.5A1.282 1.282 0 0 1 9.4 8.187h18.75A1.282 1.282 0 0 1 29.466 9.5v40.031zm26.25-15a1.2 1.2 0 0 1-.375.938 1.432 1.432 0 0 1-.937.375H35.653a1.282 1.282 0 0 1-1.313-1.313V9.5a1.282 1.282 0 0 1 1.313-1.313H54.4a1.2 1.2 0 0 1 .938.375 1.432 1.432 0 0 1 .375.938v25.031z" fill="none" stroke="#202020" stroke-linecap="round" stroke-miterlimit="10" stroke-width="2" stroke-linejoin="round"/></svg>