<svg xmlns="http://www.w3.org/2000/svg" viewBox="0 0 64 64" aria-labelledby="title" aria-describedby="desc"><path data-name="layer1" d="M63.1.8a2.56 2.56 0 0 0-1.9-.8H2.6A2.56 2.56 0 0 0 .7.8a2.56 2.56 0 0 0-.8 1.9v58.7a2.926 2.926 0 0 0 .8 1.9 2.935 2.935 0 0 0 1.9.7h58.7a2.926 2.926 0 0 0 1.9-.8 2.732 2.732 0 0 0 .8-1.9V2.7a3.1 3.1 0 0 0-.9-1.9zM29.2 50.7a1.284 1.284 0 0 1-.4 1 1.528 1.528 0 0 1-1 .4H7.9a1.284 1.284 0 0 1-1-.4 1.528 1.528 0 0 1-.4-1V8a1.367 1.367 0 0 1 1.4-1.4h20A1.367 1.367 0 0 1 29.3 8v42.7zm28-16a1.284 1.284 0 0 1-.4 1 1.528 1.528 0 0 1-1 .4H35.9a1.367 1.367 0 0 1-1.4-1.4V8a1.367 1.367 0 0 1 1.4-1.4h20a1.284 1.284 0 0 1 1 .4 1.528 1.528 0 0 1 .4 1v26.7z" fill="#202020"/></svg>