<svg xmlns="http://www.w3.org/2000/svg" viewBox="0 0 64 64" aria-labelledby="title" aria-describedby="desc"><circle data-name="layer4" cx="26" cy="33" r="24" fill="#7b8baf"/><circle data-name="layer3" cx="26" cy="33" r="8" fill="#f26161"/><circle data-name="layer2" cx="26" cy="33" r="1" fill="#bdcce8"/><rect data-name="layer1" x="54" y="9" width="8" height="12" rx="2" ry="2" fill="#8fa9d8"/><path data-name="layer1" d="M42.1 39.8L40 36.4a2 2 0 0 0-2.7-.7L27 41.9a2 2 0 0 0-.7 2.7l2 3.4a2 2 0 0 0 2.7.7l10.3-6.2a2 2 0 0 0 .8-2.7z" fill="#8fa9d8"/><path data-name="opacity" d="M41 42.7l-9.9 6a2 2 0 0 1-2.7-.7l-2-3.4-.3.2a2 2 0 0 0-.7 2.7l1.9 3.5a2 2 0 0 0 2.7.7l10.3-6.2a2 2 0 0 0 .7-2.7zm.6-3.6l.4.7a2 2 0 0 1 .3 1.2l7.4-4.3a24 24 0 0 0 .3-2.5z" fill="#000064" opacity=".2"/><circle data-name="stroke" cx="26" cy="33" r="1" fill="none" stroke="#2e4369" stroke-linecap="round" stroke-miterlimit="10" stroke-width="2" stroke-linejoin="round"/><circle data-name="stroke" cx="26" cy="33" r="8" fill="none" stroke="#2e4369" stroke-linecap="round" stroke-miterlimit="10" stroke-width="2" stroke-linejoin="round"/><circle data-name="stroke" cx="26" cy="33" r="24" fill="none" stroke="#2e4369" stroke-linecap="round" stroke-miterlimit="10" stroke-width="2" stroke-linejoin="round"/><rect data-name="stroke" x="54" y="9" width="8" height="12" rx="2" ry="2" fill="none" stroke="#2e4369" stroke-linecap="round" stroke-miterlimit="10" stroke-width="2" stroke-linejoin="round"/><path data-name="stroke" d="M42.1 39.8L40 36.4a2 2 0 0 0-2.7-.7L27 41.9a2 2 0 0 0-.7 2.7l2 3.4a2 2 0 0 0 2.7.7l10.3-6.2a2 2 0 0 0 .8-2.7zm-1-1.7l16.2-9.4c.9-.6.7-1.8.8-2.9V21" fill="none" stroke="#2e4369" stroke-linecap="round" stroke-miterlimit="10" stroke-width="2" stroke-linejoin="round"/></svg>