<svg xmlns="http://www.w3.org/2000/svg" viewBox="0 0 64 64" aria-labelledby="title" aria-describedby="desc"><path data-name="layer2" d="M60 23H4a2 2 0 0 0-2 2v36a2 2 0 0 0 2 2h56a2 2 0 0 0 2-2V25a2 2 0 0 0-2-2zM46 54a1 1 0 0 1-1 1H7a1 1 0 0 1-1-1V28a1 1 0 0 1 1-1h38a1 1 0 0 1 1 1zm9.4-13.6a2 2 0 0 1-1.4.6 2 2 0 0 1-1.4-3.4 2.1 2.1 0 0 1 2.8 0A2 2 0 0 1 56 39a2 2 0 0 1-.6 1.4zm0-8a2 2 0 0 1-1.4.6 2 2 0 0 1-1.4-3.4 2.1 2.1 0 0 1 2.8 0A2 2 0 0 1 56 31a2 2 0 0 1-.6 1.4z" fill="#202020"/><path data-name="layer1" d="M25.3 17.1a12 12 0 0 0-2.2 1.9h17.8a12.1 12.1 0 0 0-2.2-1.9L51.3 4.4a2 2 0 1 0-2.8-2.8L34.8 15.3a11.7 11.7 0 0 0-5.7 0L15.5 1.6a2 2 0 0 0-2.8 2.8z" fill="#202020"/></svg>