<svg xmlns="http://www.w3.org/2000/svg" viewBox="0 0 64 64" aria-labelledby="title" aria-describedby="desc"><path data-name="layer2" d="M50 14h-6a4 4 0 0 0-4 4v6m22-10a4 4 0 0 1-4 4h-4a4 4 0 0 1-4-4 4 4 0 0 1 4-4h4a4 4 0 0 1 4 4z" fill="none" stroke="#202020" stroke-miterlimit="10" stroke-width="2" stroke-linejoin="round" stroke-linecap="round"/><path data-name="layer3" fill="none" stroke="#202020" stroke-miterlimit="10" stroke-width="2" d="M48 32l14-6v22l-14-6" stroke-linejoin="round" stroke-linecap="round"/><rect data-name="layer1" x="6" y="24" width="42" height="26" rx="2" ry="2" fill="none" stroke="#202020" stroke-miterlimit="10" stroke-width="2" stroke-linejoin="round" stroke-linecap="round"/><circle data-name="layer2" cx="18" cy="38" r="4" fill="none" stroke="#202020" stroke-miterlimit="10" stroke-width="2" stroke-linejoin="round" stroke-linecap="round"/><circle data-name="layer2" cx="36" cy="38" r="4" fill="none" stroke="#202020" stroke-miterlimit="10" stroke-width="2" stroke-linejoin="round" stroke-linecap="round"/><path data-name="layer2" fill="none" stroke="#202020" stroke-miterlimit="10" stroke-width="2" d="M18 42h18" stroke-linejoin="round" stroke-linecap="round"/><path data-name="layer1" d="M2 16h26a4 4 0 0 1 4 4v4" fill="none" stroke="#202020" stroke-miterlimit="10" stroke-width="2" stroke-linejoin="round" stroke-linecap="round"/></svg>