<svg xmlns="http://www.w3.org/2000/svg" viewBox="0 0 64 64" aria-labelledby="title" aria-describedby="desc"><path data-name="layer1" d="M62 14a4 4 0 0 1-4 4h-4a4 4 0 0 1-4-4 4 4 0 0 1 4-4h4a4 4 0 0 1 4 4z" fill="#536897"/><rect data-name="layer3" x="6" y="24" width="42" height="26" rx="2" ry="2" fill="#7b8baf"/><path data-name="opacity" d="M46 46H8a2 2 0 0 1-2-2v4a2 2 0 0 0 2 2h38a2 2 0 0 0 2-2v-4a2 2 0 0 1-2 2z" fill="#000064" opacity=".16"/><circle data-name="layer2" cx="18" cy="38" r="4" fill="#8fa9d8"/><circle data-name="layer2" cx="36" cy="38" r="4" fill="#8fa9d8"/><path data-name="layer1" fill="#536897" d="M48 42l14 6V26l-14 6v10z"/><path data-name="opacity" fill="#000064" opacity=".16" d="M62 48v-7.4L48 38v4l14 6z"/><path data-name="stroke" d="M50 14h-6a4 4 0 0 0-4 4v6m22-10a4 4 0 0 1-4 4h-4a4 4 0 0 1-4-4 4 4 0 0 1 4-4h4a4 4 0 0 1 4 4zM48 32l14-6v22l-14-6" fill="none" stroke="#2e4369" stroke-linecap="round" stroke-miterlimit="10" stroke-width="2" stroke-linejoin="round"/><rect data-name="stroke" x="6" y="24" width="42" height="26" rx="2" ry="2" fill="none" stroke="#2e4369" stroke-linecap="round" stroke-miterlimit="10" stroke-width="2" stroke-linejoin="round"/><circle data-name="stroke" cx="18" cy="38" r="4" fill="none" stroke="#2e4369" stroke-linecap="round" stroke-miterlimit="10" stroke-width="2" stroke-linejoin="round"/><circle data-name="stroke" cx="36" cy="38" r="4" fill="none" stroke="#2e4369" stroke-linecap="round" stroke-miterlimit="10" stroke-width="2" stroke-linejoin="round"/><path data-name="stroke" fill="none" stroke="#2e4369" stroke-linecap="round" stroke-miterlimit="10" stroke-width="2" d="M18 42h18M2 16h26a4 4 0 0 1 4 4v4" stroke-linejoin="round"/></svg>