<svg xmlns="http://www.w3.org/2000/svg" viewBox="0 0 64 64" aria-labelledby="title" aria-describedby="desc"><path data-name="layer2" d="M11 29.1a21 21 0 0 0 42 0V9h3V3H44v6h3v20.1a15 15 0 0 1-30 0V9h3V3H8v6h3z" fill="#91aadc"/><path data-name="layer1" fill="#99dbff" d="M5 55.1h54v6H5z"/><path data-name="stroke" d="M11 29.1a21 21 0 0 0 42 0V9h3V3H44v6h3v20.1a15 15 0 0 1-30 0V9h3V3H8v6h3zm-6 26h54v6H5z" fill="none" stroke="#2e4369" stroke-linecap="round" stroke-miterlimit="10" stroke-width="2" stroke-linejoin="round"/></svg>