<svg xmlns="http://www.w3.org/2000/svg" viewBox="0 0 64 64" aria-labelledby="title" aria-describedby="desc"><path data-name="layer1" d="M32 21.996V10L4 30l28 20V38c11.133.004 21.271.434 30 16 0-9.887-1-32-30-32.004z" fill="#5ade9c"/><path data-name="opacity" fill="#000028" opacity=".15" d="M4 30.125l28 20V46L6.887 28.063 4 30.125zM32 34v4.125c11.133.004 21.271.434 30 16 0-1.26-.017-2.72-.105-4.306C53.189 34.435 43.088 34.004 32 34z"/><path data-name="stroke" d="M32 21.996V10L4 30l28 20V38c11.133.004 21.271.434 30 16 0-9.887-1-32-30-32.004z" fill="none" stroke="#2e4369" stroke-linecap="round" stroke-linejoin="round" stroke-width="2"/></svg>