<svg xmlns="http://www.w3.org/2000/svg" viewBox="0 0 64 64" aria-labelledby="title" aria-describedby="desc"><path data-name="layer2" d="M46 28.1a16 16 0 1 0 16 16 16 16 0 0 0-16-16zm8 18H38a2 2 0 0 1 0-4h16a2 2 0 0 1 0 4z" fill="#202020"/><path data-name="layer1" d="M26 44.1a20 20 0 0 1 29.5-17.6 25.3 25.3 0 0 0 1.8-4.3 13.8 13.8 0 0 0 .5-1.9V20a14 14 0 0 0 .2-2A14 14 0 0 0 44 4c-6.1 0-12.1 3.9-14 9.4-2-5.4-7.9-9.3-14-9.3A14 14 0 0 0 2 17.6v.2a13.9 13.9 0 0 0 .7 4.2c2.9 11 15.5 22.2 25.2 30.4a19.8 19.8 0 0 1-1.9-8.3z" fill="#202020"/></svg>