<svg viewBox="0 0 64 64" xmlns="http://www.w3.org/2000/svg" aria-labelledby="title" aria-describedby="desc"><path fill="#e8d4d4" d="M9 29H7a4 4 0 0 0 0 8h22a81.014 81.014 0 0 0-2 18 4 4 0 0 0 8 0s4-22 18-22h6V9H49c-4 0-12-4-16-4H13a4 4 0 0 0 0 8h-2a4 4 0 1 0 0 8H9a4 4 0 0 0 0 8" data-name="layer1"/><path opacity=".1" fill="#000064" d="M31 51a81.013 81.013 0 0 1 2-18H11a4 4 0 0 1-4-4 4 4 0 0 0 0 8h22a81.01 81.01 0 0 0-2 18 4 4 0 0 0 8 0 4 4 0 0 1-4-4zm14.53-15.542A12.594 12.594 0 0 1 53 33h6v-4h-2c-5.016 0-8.744 2.831-11.47 6.458z" data-name="opacity"/><path stroke-width="2" stroke-linejoin="round" stroke-linecap="round" stroke="#2e4369" fill="none" d="M9 29H7a4 4 0 1 0 0 8h22a81.008 81.008 0 0 0-2 18 4 4 0 0 0 8 0s4-22 18-22h6V9H49c-4 0-12-4-16-4H13a4 4 0 0 0 0 8h-2a4 4 0 0 0 0 8H9a4 4 0 0 0 0 8" data-name="stroke"/></svg>