<svg xmlns="http://www.w3.org/2000/svg" viewBox="0 0 64 64" aria-labelledby="title" aria-describedby="desc"><path data-name="layer2" fill="#c3d6f9" d="M18 46h32l8-24H12l6 24z"/><path data-name="opacity" fill="#000064" opacity=".15" d="M24 42l-5-20h-7l6 24h32l1.3-4H24z"/><circle data-name="layer1" cx="20" cy="54" r="4" fill="#a6b1c9"/><circle data-name="layer1" cx="46" cy="54" r="4" fill="#a6b1c9"/><path data-name="stroke" fill="none" stroke="#2e4369" stroke-linecap="round" stroke-linejoin="round" stroke-width="2" d="M52.4 18l4.6 5 5-5m-24 0l-5-5-4.6 5"/><path data-name="stroke" d="M50.9 28.6a11.8 11.8 0 0 1-14.1-2.1A12.1 12.1 0 0 1 34 14m5.6-6.6a11.8 11.8 0 0 1 14 2.1A12.1 12.1 0 0 1 56.4 22M24 22H12" fill="none" stroke="#2e4369" stroke-linecap="round" stroke-linejoin="round" stroke-width="2"/><path data-name="stroke" fill="none" stroke="#2e4369" stroke-linecap="round" stroke-linejoin="round" stroke-width="2" d="M2 6h6l10 40h32l3.7-11.5"/><circle data-name="stroke" cx="20" cy="54" r="4" fill="none" stroke="#2e4369" stroke-linecap="round" stroke-linejoin="round" stroke-width="2"/><circle data-name="stroke" cx="46" cy="54" r="4" fill="none" stroke="#2e4369" stroke-linecap="round" stroke-linejoin="round" stroke-width="2"/></svg>