<svg xmlns="http://www.w3.org/2000/svg" viewBox="0 0 64 64" aria-labelledby="title" aria-describedby="desc"><path data-name="layer3" fill="#a6b1c9" d="M6 4h52v12H6z"/><path data-name="layer2" fill="#fff" d="M6 16v28h52V16"/><circle data-name="layer1" cx="12" cy="10" r="1" fill="#f27e7c"/><circle data-name="layer1" cx="19" cy="10" r="1" fill="#f27e7c"/><circle data-name="layer1" cx="26" cy="10" r="1" fill="#f27e7c"/><path data-name="opacity" fill="#000064" opacity=".15" d="M6 16h4v28H6zM6 4h4v12H6z"/><path data-name="stroke" fill="none" stroke="#2e4369" stroke-linecap="round" stroke-linejoin="round" stroke-width="2" d="M42 36L32 25.8 22 36m10-10.2V60M6 4h52v12H6zm0 12v28h18m16 0h18V16"/><circle data-name="stroke" cx="12" cy="10" r="1" fill="none" stroke="#2e4369" stroke-linecap="round" stroke-linejoin="round" stroke-width="2"/><circle data-name="stroke" cx="19" cy="10" r="1" fill="none" stroke="#2e4369" stroke-linecap="round" stroke-linejoin="round" stroke-width="2"/><circle data-name="stroke" cx="26" cy="10" r="1" fill="none" stroke="#2e4369" stroke-linecap="round" stroke-linejoin="round" stroke-width="2"/></svg>