<svg viewBox="0 0 64 64" xmlns="http://www.w3.org/2000/svg" aria-labelledby="title" aria-describedby="desc"><path fill="#202020" d="M43.43 35.6L33.414 25.377 32 23.933l-1.414 1.444L20.572 35.6a2 2 0 0 0 2.857 2.8L30 31.69V61a2 2 0 0 0 4 0V31.69l6.572 6.71a2 2 0 0 0 2.857-2.8z" data-name="layer3"/><path fill="#202020" d="M21.828 38.983A1.721 1.721 0 0 0 22 39h.01c-.063 0-.121-.011-.182-.017z" data-name="layer2"/><path fill="#202020" d="M6 15v26h11.537a5.984 5.984 0 0 1 .178-8.2l10.014-10.222 1.414-1.444L32 18.216l2.857 2.918 1.414 1.444L46.285 32.8a5.988 5.988 0 0 1 .18 8.2H58V15z" data-name="layer2"/><path fill="#202020" d="M6 1v10h52V1zm6 7a2 2 0 1 1 2-2 2 2 0 0 1-2 2zm6 0a2 2 0 1 1 2-2 2 2 0 0 1-2 2zm6 0a2 2 0 1 1 2-2 2 2 0 0 1-2 2z" data-name="layer1"/></svg>