<svg xmlns="http://www.w3.org/2000/svg" viewBox="0 0 64 64" aria-labelledby="title" aria-describedby="desc"><path data-name="layer1" d="M62 0H2a2 2 0 0 0-2 2v60a2 2 0 0 0 2 2h60a2 2 0 0 0 2-2V2a2 2 0 0 0-2-2zM32 21.007a2 2 0 1 1-4 0v-.998h-6v24.986h1.999a2 2 0 1 1 0 4h-3.98l-.019.002-.02-.002h-3.979a2 2 0 0 1 0-4H18V20.01h-6.001v.998a2 2 0 0 1-4 0V16.01h11.914c.03-.002.057-.009.087-.009s.058.007.087.009H32zm24 0a2 2 0 1 1-4 0v-.998h-6v24.986h1.999a2 2 0 0 1 0 4h-3.98l-.019.002-.02-.002h-3.979a2 2 0 0 1 0-4H42V20.01h-4.999a2 2 0 0 1 0-4h6.912c.03-.002.057-.009.087-.009s.058.007.087.009H56z" fill="#202020"/></svg>