<svg xmlns="http://www.w3.org/2000/svg" viewBox="0 0 64 64" aria-labelledby="title" aria-describedby="desc"><path data-name="layer3" fill="#c0cfe9" d="M12 26V2h24v24"/><path data-name="layer2" d="M24 46a16 16 0 0 1 16-16v-4H8v32h21.4A15.9 15.9 0 0 1 24 46z" fill="#7b8baf"/><path data-name="opacity" fill="#000064" opacity=".14" d="M8 26h4v32H8z"/><path data-name="layer1" d="M40 30a16 16 0 1 0 16 16 16 16 0 0 0-16-16z" fill="#44d88d"/><path data-name="opacity" d="M29.4 58A16 16 0 0 1 32 32.1 15.9 15.9 0 0 0 21.6 58h7.9z" fill="#000064" opacity=".14"/><path data-name="opacity" fill="#fff" opacity=".4" d="M32 2h4v24h-4z"/><path data-name="stroke" fill="none" stroke="#2e4369" stroke-linecap="round" stroke-linejoin="round" stroke-width="2" d="M29.4 58H8V26h32v4m-28-4V2h24v24m-8-10v-6m-8 6v-6"/><circle data-name="stroke" cx="40" cy="46" r="16" fill="none" stroke="#2e4369" stroke-linecap="round" stroke-linejoin="round" stroke-width="2"/><path data-name="stroke" fill="none" stroke="#2e4369" stroke-linecap="round" stroke-linejoin="round" stroke-width="2" d="M47 42l-8 9-5-5"/></svg>