<svg xmlns="http://www.w3.org/2000/svg" viewBox="0 0 64 64" aria-labelledby="title" aria-describedby="desc"><path data-name="layer2" d="M31.5 44.6c0 1.6 0 4 8.1 5.6S49 59 49 59H1s0-7 9.4-8.8 8.1-4 8.1-5.6V43a14.6 14.6 0 0 1-4.2-7c-2.5 0-3-5.1-3-5.8s-.1-3.8 2.4-3.8C12 20 12.3 14.1 16.8 14.1c10.7-7.4 24.8-.6 19.6 12.3 2.5 0 2.4 3 2.4 3.8s-.6 5.8-3 5.8a14.6 14.6 0 0 1-4.2 7v1.6" fill="#202020"/><path data-name="layer1" d="M63 23a2 2 0 0 0-2-2H45a2 2 0 0 0 0 4h16a2 2 0 0 0 2-2zm-2-10H45a2 2 0 0 0 0 4h16a2 2 0 0 0 0-4zM41 9h20a2 2 0 0 0 0-4H41a2 2 0 0 0 0 4z" fill="#202020"/></svg>