<svg xmlns="http://www.w3.org/2000/svg" viewBox="0 0 64 64" aria-labelledby="title" aria-describedby="desc"><path data-name="layer2" d="M51 28a11.1 11.1 0 0 0-11 11.2 11.7 11.7 0 0 0 .1 1.4C41.1 49.8 51 62 51 62s9.9-12.1 10.9-21.4a11.7 11.7 0 0 0 .1-1.4A11.1 11.1 0 0 0 51 28zm0 14.2a3 3 0 1 1 3-3 3 3 0 0 1-3 3z" fill="#202020"/><path data-name="layer1" d="M36.1 41.1v-.5l-1.4-.5C30.4 38.6 30 37.3 30 36v-2a44.4 44.4 0 0 0 7.3-1 15.3 15.3 0 0 1 2.2-3.5C37.4 27.2 36 23.9 36 14 36 2.3 28.8 1.2 22 2.4S12 8 12 14c0 13.7-2.7 14.7-6 18a61.4 61.4 0 0 0 12 2v2c0 1.6-.5 3.5-8.6 5.2A9.2 9.2 0 0 0 2 50h36.8a30.2 30.2 0 0 1-2.7-8.9z" fill="#202020"/></svg>