<svg xmlns="http://www.w3.org/2000/svg" viewBox="0 0 64 64" aria-labelledby="title" aria-describedby="desc"><path data-name="layer2" fill="#fff" d="M52 12V7H12v5H7v40h5v5h40v-5h5V12h-5z"/><path data-name="opacity" fill="#000028" opacity=".15" d="M7 12h3v3H7zm45 0V7H12v3h38v5h5v37h2V12h-5z"/><path data-name="layer1" fill="#f26161" d="M12 7V2H2v10h10V7zm45 5h5V2H52v10h5zM7 52H2v10h10V52H7zm45 5v5h10V52H52v5z"/><path data-name="stroke" fill="none" stroke="#2e4369" stroke-linecap="round" stroke-linejoin="round" stroke-width="2" d="M2 2h10v10H2zm50 0h10v10H52zM2 52h10v10H2zm50 0h10v10H52zm0 5H12m45-45v40M12 7h40M7 52V12"/></svg>