<svg xmlns="http://www.w3.org/2000/svg" viewBox="0 0 64 64" aria-labelledby="title" aria-describedby="desc"><path data-name="layer1" d="M40.6 49.2C32.5 47.6 32 45.6 32 44v-2a14.1 14.1 0 0 0 4-7c2.5 0 4-3 4-6 0-.8 0-4-2-4 5-14.5-9.6-20-20-13-4.4 0-5.6 6.6-4 13-2 0-2 3.2-2 4 0 3 1.5 6 4 6a14.2 14.2 0 0 0 4 7v2c0 1.6-.5 3.6-8.6 5.2S2 58 2 58h48s0-6.9-9.4-8.8z" fill="#44d88d"/><path d="M20 33c.8 3 4.1 5.3 6 7v2c0 1.6-.5 3.5-7.9 5.1A3.2 3.2 0 0 0 20 44v-2a13.6 13.6 0 0 1-4-7c-2.5 0-4-3-4-6 0-.8 0-4 2-4-1.6-6.4-.4-13 4-13a17.7 17.7 0 0 1 7.5-2.9L24 10c-4.4 0-7.6 6.6-6 13 0 0 0 7 2 10zM8 56a8.9 8.9 0 0 1 4.6-7.1l-1.2.3C2 51 2 58 2 58h48a6.5 6.5 0 0 0-.4-2z" fill="#000064" opacity=".15"/><path data-name="stroke" d="M40.6 49.2C32.5 47.6 32 45.6 32 44v-2a14.1 14.1 0 0 0 4-7c2.5 0 4-3 4-6 0-.8 0-4-2-4 5-14.5-9.6-20-20-13-4.4 0-5.6 6.6-4 13-2 0-2 3.2-2 4 0 3 1.5 6 4 6a14.2 14.2 0 0 0 4 7v2c0 1.6-.5 3.6-8.6 5.2S2 58 2 58h48s0-6.9-9.4-8.8zM62 6l-8 9-5-5" fill="none" stroke="#2e4369" stroke-linecap="round" stroke-linejoin="round" stroke-width="2"/></svg>