<svg xmlns="http://www.w3.org/2000/svg" viewBox="0 0 64 64" aria-labelledby="title" aria-describedby="desc"><path data-name="layer2" fill="none" stroke="#202020" stroke-linecap="round" stroke-linejoin="round" stroke-width="2" d="M32 54v9"/><path data-name="layer1" d="M40 21H24a6 6 0 0 0-6 6v15a12 12 0 0 0 12 12h4a12 12 0 0 0 12-12V27a6 6 0 0 0-6-6zm-8 0v13" fill="none" stroke="#202020" stroke-linecap="round" stroke-linejoin="round" stroke-width="2"/><circle data-name="layer2" cx="32" cy="11" r="5" fill="none" stroke="#202020" stroke-linecap="round" stroke-linejoin="round" stroke-width="2"/><path data-name="layer1" d="M8 10h8c4 0 7.4-8 16-8s11.9 8 16 8h8m-40 0s12 7 12 11m20-11s-12 6.6-12 11" fill="none" stroke="#202020" stroke-linecap="round" stroke-linejoin="round" stroke-width="2"/></svg>