<svg xmlns="http://www.w3.org/2000/svg" viewBox="0 0 64 64" aria-labelledby="title" aria-describedby="desc"><path data-name="layer2" d="M48.308 32.027c0-.1-.1-.2-.1-.3-.6.3-1.1.6-1.7.9a12.221 12.221 0 0 1-1.7.7 12.124 12.124 0 0 1-1.8.5v.1a.347.347 0 0 0 .1.2 18.214 18.214 0 0 1 1.2 6.566 16.886 16.886 0 0 1-.8 5.471 18.384 18.384 0 0 1-4.1 7.163 16.319 16.319 0 0 1-10.592 4.974h-1.2v-.1c.2-.2.4-.3.6-.5a34.53 34.53 0 0 0 10.099-12.045 29.539 29.539 0 0 0 3.1-12.733 34.59 34.59 0 0 0-.5-6.466 36.379 36.379 0 0 0-2-7.163c0-.1-.1-.2-.2-.4a2.122 2.122 0 0 1-.1-.6v-.2a41.7 41.7 0 0 0-1.1-5.969 26.2 26.2 0 0 0-3.3-7.461 16.816 16.816 0 0 0-3.7-4.278 1.753 1.753 0 0 0-.5-.4v.2l.3.6a113.536 113.536 0 0 1 6.7 13.529l1.5 3.88.1.3a2.122 2.122 0 0 0 .1.6c0 .7.1 1.393.1 1.99a74.435 74.435 0 0 1-.4 10.545c-.2 1.592-.4 3.283-.6 4.874a42.973 42.973 0 0 1-1.4 5.969 35.009 35.009 0 0 1-2.8 6.964 23.53 23.53 0 0 1-4 5.372 17.5 17.5 0 0 1-5.1 3.382 1.273 1.273 0 0 1-.6.1 16.982 16.982 0 0 1-7.095-3.183 16.567 16.567 0 0 1-4.3-5.173 17.128 17.128 0 0 1-2.1-6.864 20.418 20.418 0 0 1 .1-4.278 18.265 18.265 0 0 1 1.4-5.073 18.5 18.5 0 0 1 4.6-6.168 14.885 14.885 0 0 1 5.1-3.084 12.445 12.445 0 0 1 3.8-.9c1.1-.1 2.3-.1 3.5-.1a12.882 12.882 0 0 1 4.3.995c.1 0 .2.1.4.1a12.547 12.547 0 0 1 .6-2.785c.3-.9.7-1.691 1.1-2.586-.2-.2-.5-.2-.7-.3a22.834 22.834 0 0 0-5.7-.995 25.646 25.646 0 0 0-6.2.4 20.75 20.75 0 0 0-6.9 2.686 23.778 23.778 0 0 0-5.3 4.676 22.311 22.311 0 0 0-5.5 13.927 23.741 23.741 0 0 0 .2 4.576 22.681 22.681 0 0 0 1.7 6.168 25.539 25.539 0 0 0 5.9 8.257 20.3 20.3 0 0 0 6.4 3.979 20.77 20.77 0 0 0 6.9 1.393 24.611 24.611 0 0 0 6.6-.5 20.014 20.014 0 0 0 7.994-3.581 25.2 25.2 0 0 0 4.9-4.874 21.726 21.726 0 0 0 4.5-12.435 25.723 25.723 0 0 0-.3-5.571 37.495 37.495 0 0 0-1.506-4.971z" fill="#202020"/><path data-name="layer1" d="M59.1 7.157A22.642 22.642 0 0 0 57 2.084a3.023 3.023 0 0 0-.5-.7l-.3.6a12.6 12.6 0 0 1-2.4 3.283 10.828 10.828 0 0 1-5.3 2.984 4.345 4.345 0 0 0-.5.1 16.345 16.345 0 0 0-4.3 1.791 7.894 7.894 0 0 0-2.4 2.089 8.043 8.043 0 0 0-1.7 5.372 10.508 10.508 0 0 0 1.3 4.576c0 .1.1.1.2.2a22.448 22.448 0 0 0 14.7-11.143v.4a8.727 8.727 0 0 1-.5 1.492 17.167 17.167 0 0 1-1.9 2.785 27.828 27.828 0 0 1-4.4 3.979 62.524 62.524 0 0 1-6 3.979c-.2.1-.3.1-.4.3a5 5 0 0 0 .8.7 10.259 10.259 0 0 0 3.5 1.99 8.134 8.134 0 0 0 3.8.3 8.782 8.782 0 0 0 4.1-1.99 13.825 13.825 0 0 0 2.9-3.482 17.786 17.786 0 0 0 1.2-2.388 19.027 19.027 0 0 0 1.1-5.379 30.628 30.628 0 0 0-.9-6.765z" fill="#202020"/></svg>