<svg xmlns="http://www.w3.org/2000/svg" viewBox="0 0 64 64" aria-labelledby="title" aria-describedby="desc"><path data-name="layer2" d="M42 4H22a6 6 0 0 0-6 6v44a6 6 0 0 0 6 6h20a6 6 0 0 0 6-6V10a6 6 0 0 0-6-6zM31 56a2 2 0 0 1 0-4h2a2 2 0 0 1 0 4zm-11-8V12h24v36z" fill="#202020"/><path data-name="layer1" d="M51.8 20.1a2 2 0 0 0-1.1 2.6 20.1 20.1 0 0 1 0 14.5 2 2 0 0 0 1.1 2.6h.7a2 2 0 0 0 1.9-1.3 24.1 24.1 0 0 0 0-17.5 2 2 0 0 0-2.6-.9zm-39.6 0a2 2 0 0 0-2.6 1.1 24.1 24.1 0 0 0 0 17.5 2 2 0 0 0 1.9 1.3h.7a2 2 0 0 0 1.1-2.6 20.1 20.1 0 0 1 0-14.5 2 2 0 0 0-1.1-2.8zm49.1-2.9a2 2 0 0 0-3.7 1.6 28.1 28.1 0 0 1 0 22.4 2 2 0 0 0 1 2.6l.8.2a2 2 0 0 0 1.8-1.2 32.1 32.1 0 0 0 0-25.6zm-56-1a2 2 0 0 0-2.6 1 32.1 32.1 0 0 0 0 25.6A2 2 0 0 0 4.5 44l.8-.2a2 2 0 0 0 1-2.6 28.1 28.1 0 0 1 0-22.4 2 2 0 0 0-1-2.6z" fill="#202020"/></svg>