<svg xmlns="http://www.w3.org/2000/svg" viewBox="0 0 64 64" aria-labelledby="title" aria-describedby="desc"><path data-name="layer1" d="M60 18L42 28.1V20a4 4 0 0 0-4-4H6a4 4 0 0 0-4 4v24a4 4 0 0 0 4 4h32a4 4 0 0 0 4-4v-8.2l4 2.2 14 8h2V18z" fill="#8fa9d8"/><path data-name="opacity" d="M6 20h32a4 4 0 0 1 4 4v-4a4 4 0 0 0-4-4H6a4 4 0 0 0-4 4v4a4 4 0 0 1 4-4zm36 8.1v4L60 22h2v-4h-2L42 28.1z" fill="#fff" opacity=".25"/><path data-name="opacity" d="M38 44H6a4 4 0 0 1-4-4v4a4 4 0 0 0 4 4h32a4 4 0 0 0 4-4v-4a4 4 0 0 1-4 4zm8-10l-4-2.2v4l4 2.2 14 8h2v-4h-2l-14-8z" fill="#000064" opacity=".16"/><path data-name="stroke" d="M60 18L42 28.1V20a4 4 0 0 0-4-4H6a4 4 0 0 0-4 4v24a4 4 0 0 0 4 4h32a4 4 0 0 0 4-4v-8.2l4 2.2 14 8h2V18z" fill="none" stroke="#2e4369" stroke-linecap="round" stroke-miterlimit="10" stroke-width="2" stroke-linejoin="round"/></svg>