<svg xmlns="http://www.w3.org/2000/svg" viewBox="0 0 64 64" aria-labelledby="title" aria-describedby="desc"><path data-name="layer2" d="M2 55a2 2 0 0 0 2 2h56a2 2 0 0 0 2-2V15H24V9H2z" fill="#f8da82"/><path data-name="opacity" d="M8 54a2 2 0 0 1-2-2V9H2v46a2 2 0 0 0 2 2h56a2 2 0 0 0 2-2v-1z" fill="#000064" opacity=".15"/><path data-name="layer1" fill="#f27e7c" d="M26 26l16 9-16 9V26z"/><path data-name="stroke" fill="none" stroke="#2e4369" stroke-linecap="round" stroke-miterlimit="10" stroke-width="2" d="M26 26l16 9-16 9V26z" stroke-linejoin="round"/><path data-name="stroke" d="M2 55a2 2 0 0 0 2 2h56a2 2 0 0 0 2-2V15H24V9H2z" fill="none" stroke="#2e4369" stroke-linecap="round" stroke-miterlimit="10" stroke-width="2" stroke-linejoin="round"/></svg>