<svg xmlns="http://www.w3.org/2000/svg" viewBox="0 0 64 64" aria-labelledby="title" aria-describedby="desc"><path data-name="layer2" d="M48 34H16a14 14 0 1 0 11.5 22h9A14 14 0 1 0 48 34z" fill="#d7e0f1"/><path d="M20 60a14 14 0 0 1-8.1-25.4 14 14 0 1 0 12.3 24.7 13.9 13.9 0 0 1-4.2.7zm32 0c-4.8 0-11-1-13-6h-7.5a14.1 14.1 0 0 1-1.7 2h6.8a14 14 0 0 0 19.6 3.4 14 14 0 0 1-4.2.6z" fill="#000064" opacity=".15"/><circle data-name="layer1" cx="44" cy="51" r="3" fill="#7b8baf"/><circle data-name="layer1" cx="54" cy="47" r="3" fill="#7b8baf"/><circle data-name="opacity" cx="42" cy="53" r="3" fill="#000064" opacity=".15"/><circle data-name="opacity" cx="52" cy="49" r="3" fill="#000064" opacity=".15"/><circle data-name="stroke" cx="44" cy="51" r="3" fill="none" stroke="#2e4369" stroke-linecap="round" stroke-linejoin="round" stroke-width="2"/><circle data-name="stroke" cx="54" cy="47" r="3" fill="none" stroke="#2e4369" stroke-linecap="round" stroke-linejoin="round" stroke-width="2"/><path data-name="stroke" fill="none" stroke="#2e4369" stroke-linecap="round" stroke-linejoin="round" stroke-width="2" d="M16 42v12m-6-6h12m10-14v-7a9 9 0 0 1 9-9h5a8 8 0 0 0 8-8V2"/><path data-name="stroke" d="M48 34H16a14 14 0 1 0 11.5 22h9A14 14 0 1 0 48 34z" fill="none" stroke="#2e4369" stroke-linecap="round" stroke-linejoin="round" stroke-width="2"/><circle data-name="stroke" cx="28" cy="42" r="1" fill="none" stroke="#2e4369" stroke-linecap="round" stroke-linejoin="round" stroke-width="2"/><circle data-name="stroke" cx="36" cy="42" r="1" fill="none" stroke="#2e4369" stroke-linecap="round" stroke-linejoin="round" stroke-width="2"/></svg>