<svg xmlns="http://www.w3.org/2000/svg" viewBox="0 0 64 64" aria-labelledby="title" aria-describedby="desc"><path data-name="layer1" d="M60.278 31.467a1.7 1.7 0 0 0-1.872-1.454 19.051 19.051 0 0 1-2.073.131c-4.458 0-10.823-.338-14.758-2.967a11.659 11.659 0 0 1-.975-.753 10.214 10.214 0 0 1-3.612-7.855c-.024-2.885.658-5.012 2.027-6.322a5.111 5.111 0 0 1 3.234-1.408h.074a3.727 3.727 0 0 1 2.728 1.724c.838 1.229 1.867 4.022.571 9.745a1.251 1.251 0 0 0 .787 1.449 24.358 24.358 0 0 0 6.6 1.187 1.246 1.246 0 0 0 1.292-.979 29.841 29.841 0 0 0 .742-7.64 16.622 16.622 0 0 0-2.694-8.752A12.552 12.552 0 0 0 42.794 2a13.767 13.767 0 0 0-9.887 3.845c-2.2 2.107-4.814 6.038-4.759 12.794a19.07 19.07 0 0 0 6.686 14.493 22.015 22.015 0 0 0 5.092 3.257 71.253 71.253 0 0 1-6.864 10A71.486 71.486 0 0 1 28 51.957c-6.715-5.338-10.686-15.332-12.9-23.211a109.828 109.828 0 0 1-3.339-17.776 1.527 1.527 0 0 0-1.622-1.37l-2.919.2 4.41-.295-7.266.486a1.528 1.528 0 0 0-1.419 1.674 117.554 117.554 0 0 0 3.608 19.313 73.461 73.461 0 0 0 6.847 16.96c3.579 6.195 7.92 10.736 12.9 13.5a4.417 4.417 0 0 0 4.948-.455A69.59 69.59 0 0 0 39.74 52.2a80.418 80.418 0 0 0 7.1-10.089q.966-1.631 1.836-3.286a45.712 45.712 0 0 0 10.879-.038 1.7 1.7 0 0 0 1.488-1.936zm0 0" fill="none" stroke="#202020" stroke-linecap="round" stroke-miterlimit="10" stroke-width="2" stroke-linejoin="round"/></svg>