<svg xmlns="http://www.w3.org/2000/svg" viewBox="0 0 64 64" aria-labelledby="title" aria-describedby="desc"><path data-name="layer2" fill="none" stroke="#202020" stroke-miterlimit="10" stroke-width="2" d="M49 13V7h9v6" stroke-linejoin="round" stroke-linecap="round"/><path data-name="layer3" fill="none" stroke="#202020" stroke-miterlimit="10" stroke-width="2" d="M2 13h60v40H2z" stroke-linejoin="round" stroke-linecap="round"/><circle data-name="layer1" cx="32" cy="35" r="12" fill="none" stroke="#202020" stroke-miterlimit="10" stroke-width="2" stroke-linejoin="round" stroke-linecap="round"/><circle data-name="layer1" cx="32" cy="35" r="6" fill="none" stroke="#202020" stroke-miterlimit="10" stroke-width="2" stroke-linejoin="round" stroke-linecap="round"/><path data-name="layer2" fill="none" stroke="#202020" stroke-miterlimit="10" stroke-width="2" d="M2 27h20.8m18.1 0H62M25.4 45H2m36.6 0H62" stroke-linejoin="round" stroke-linecap="round"/><path data-name="layer1" d="M15 20a2 2 0 0 1-2 2h-2a2 2 0 0 1-2-2 2 2 0 0 1 2-2h2a2 2 0 0 1 2 2z" fill="none" stroke="#202020" stroke-miterlimit="10" stroke-width="2" stroke-linejoin="round" stroke-linecap="round"/><circle data-name="layer1" cx="54" cy="21" r="1" fill="none" stroke="#202020" stroke-miterlimit="10" stroke-width="2" stroke-linejoin="round" stroke-linecap="round"/></svg>