<svg xmlns="http://www.w3.org/2000/svg" viewBox="0 0 64 64" aria-labelledby="title" aria-describedby="desc"><circle data-name="layer1" cx="32" cy="38" r="5" fill="#202020"/><path data-name="layer2" d="M20 38a11.9 11.9 0 0 1 1.6-6H2v14h21.1a11.9 11.9 0 0 1-3.1-8z" fill="#202020"/><path data-name="layer1" d="M32 50H2v6h60v-6H32zM2 16v12h23.4a12 12 0 0 1 13.3 0H62V16zm12 10h-4a2 2 0 0 1 0-4h4a2 2 0 0 1 0 4zm41.4-.6a2 2 0 0 1-1.4.6 2 2 0 0 1-1.4-3.4 2.1 2.1 0 0 1 2.8 0 2 2 0 0 1 0 2.8z" fill="#202020"/><path data-name="layer2" d="M44 38a11.9 11.9 0 0 1-3.1 8H62V32H42.4a11.9 11.9 0 0 1 1.6 6z" fill="#202020"/><path data-name="layer1" fill="#202020" d="M48 8h10v4H48z"/></svg>