<svg xmlns="http://www.w3.org/2000/svg" viewBox="0 0 64 64" aria-labelledby="title" aria-describedby="desc"><path data-name="layer2" d="M53.2 10.8a30 30 0 1 0 0 42.4 30 30 0 0 0 0-42.4zM32 33a1 1 0 1 1 1-1 1 1 0 0 1-1 1z" fill="#8fa9d8"/><path data-name="opacity" d="M33 32h29A30 30 0 0 0 32 2v29a1 1 0 0 1 1 1zm-1 1a1 1 0 0 1-1-1H2a30 30 0 0 0 30 30V33z" fill="#fff" opacity=".25"/><path data-name="layer1" d="M26.3 26.3a8 8 0 1 0 11.3 0 8 8 0 0 0-11.3 0zM32 33a1 1 0 1 1 1-1 1 1 0 0 1-1 1z" fill="#bdcce8"/><circle data-name="stroke" cx="32" cy="32" r="30" transform="rotate(-45 31.977 32.055)" fill="none" stroke="#2e4369" stroke-linecap="round" stroke-miterlimit="10" stroke-width="2" stroke-linejoin="round"/><circle data-name="stroke" cx="32" cy="32" r="8" transform="rotate(-45 31.977 32.055)" fill="none" stroke="#2e4369" stroke-linecap="round" stroke-miterlimit="10" stroke-width="2" stroke-linejoin="round"/><path data-name="stroke" d="M53.4 31.1a20.3 20.3 0 0 1-22.1 22.3m15.6-22.2A15 15 0 0 1 31.1 47m1.7-36.4a20.3 20.3 0 0 0-22.2 22.1M32.8 17A15 15 0 0 0 17 32.8" fill="none" stroke="#2e4369" stroke-linecap="round" stroke-miterlimit="10" stroke-width="2" stroke-linejoin="round"/><circle data-name="stroke" cx="32" cy="32" r="1" fill="none" stroke="#2e4369" stroke-linecap="round" stroke-miterlimit="10" stroke-width="2" stroke-linejoin="round"/></svg>