<svg xmlns="http://www.w3.org/2000/svg" viewBox="0 0 64 64" aria-labelledby="title" aria-describedby="desc"><path data-name="layer1" d="M33.4 33.4a2 2 0 0 0 0-2.8 2.1 2.1 0 0 0-2.8 0A2 2 0 0 0 30 32a2 2 0 0 0 2 2 2 2 0 0 0 1.4-.6z" fill="#202020"/><path data-name="layer1" d="M53.2 10.8a30 30 0 1 0 0 42.4 30 30 0 0 0 0-42.4zM10.8 34.7h-.2a2 2 0 0 1-2-1.8A22.3 22.3 0 0 1 33 8.6a2 2 0 1 1-.4 4 18.3 18.3 0 0 0-20 19.9 2 2 0 0 1-1.8 2.2zm8.2-2a2 2 0 0 1-1.9 2.1H17a2 2 0 0 1-2-1.9A17 17 0 0 1 32.9 15a2 2 0 0 1-.2 4A13 13 0 0 0 19 32.7zm7.4-6.4a8 8 0 1 1 0 11.3 8 8 0 0 1-.1-11.3zM31.2 45a13 13 0 0 0 13.7-13.7 2 2 0 1 1 4-.2A17 17 0 0 1 32 49h-1a2 2 0 0 1 .2-4zm17.7 4a22.2 22.2 0 0 1-15.7 6.5h-2.1a2 2 0 1 1 .4-4 18.3 18.3 0 0 0 19.9-20 2 2 0 1 1 4-.4 22.2 22.2 0 0 1-6.5 17.8z" fill="#202020"/></svg>