<svg xmlns="http://www.w3.org/2000/svg" viewBox="0 0 64 64" aria-labelledby="title" aria-describedby="desc"><path data-name="layer1" d="M31.319 51.979h3.805a2.3 2.3 0 0 0 1.7-.809 3.188 3.188 0 0 0 .5-1.718s-.1-5.154 2.3-5.963c2.3-.707 5.307 5.053 8.611 7.277a7.256 7.256 0 0 0 4.306 1.213h8.511c.6 0 4.306-.505 2.4-3.942-.2-.3-1.2-2.628-6.408-7.479-5.407-5.053-4.606-4.245 1.8-12.936 3.905-5.255 5.407-8.489 5.007-9.9-.3-1.112-3.4-.91-3.4-.91h-9.606a2.085 2.085 0 0 0-1.2.2 2.487 2.487 0 0 0-.8 1.011 48.481 48.481 0 0 1-3.6 7.58c-4.306 7.378-6.008 7.782-6.709 7.277-1.6-1.112-1.2-4.245-1.2-6.569 0-7.176 1.1-10.107-2.1-10.915a13.974 13.974 0 0 0-4.506-.4c-3.4 0-6.308 0-8.011.809-1.1.505-1.9 1.718-1.4 1.819a4.374 4.374 0 0 1 2.8 1.415c1 1.314 1 4.447 1 4.447s.6 8.388-1.3 9.4c-1.3.707-3.1-.707-6.909-7.378a53.838 53.838 0 0 1-3.4-7.176 3.3 3.3 0 0 0-.8-1.112 2.734 2.734 0 0 0-1.5-.606H2.081s-1.4-.1-1.9.707a2.034 2.034 0 0 0 0 1.617S7.388 35.909 15.5 44.4c7.41 8.186 15.821 7.58 15.821 7.58z" fill="#5181b8"/></svg>