<svg viewBox="0 0 64 64" xmlns="http://www.w3.org/2000/svg" aria-labelledby="title" aria-describedby="desc"><path fill="#536897" d="M61.8 15.413A16.009 16.009 0 0 0 48.367 2.171 16.209 16.209 0 0 0 30.771 12.7l20.561 20.557A16.271 16.271 0 0 0 61.8 15.413z" data-name="layer2"/><path fill="#7b8baf" d="M30 15.867v6.89a3 3 0 0 0 .879 2.122l8.243 8.242a3 3 0 0 0 2.121.879h7.2a15.453 15.453 0 0 0 2.888-.743L30.771 12.7A15.568 15.568 0 0 0 30 15.867z" data-name="layer1"/><path fill="#7b8baf" d="M39.121 33.121l-8.243-8.242A3 3 0 0 1 30 22.757V22L6 52l6 6 30.125-24h-.882a3 3 0 0 1-2.122-.879z" data-name="layer1"/><path opacity=".2" fill="#000064" d="M61.8 15.413a15.809 15.809 0 0 0-3.8-8 15.532 15.532 0 0 1 .8 3 16.271 16.271 0 0 1-10.468 17.844 15.453 15.453 0 0 1-2.889.743L37 31 10 56l2 2 30.125-24h6.318a15.453 15.453 0 0 0 2.888-.743A16.271 16.271 0 0 0 61.8 15.413z" data-name="opacity"/><path d="M9 55l-7 7m28-40.002L6 52l6 6 30.125-24M28 36l-4 4m6.843-27.231l20.435 20.435" stroke-width="2" stroke-miterlimit="10" stroke-linecap="round" stroke="#2e4369" fill="none" data-name="stroke" stroke-linejoin="round"/><path stroke-width="2" stroke-miterlimit="10" stroke-linecap="round" stroke="#2e4369" fill="none" d="M41.243 34h7.2A16.217 16.217 0 0 0 61.8 15.413a16.084 16.084 0 0 0-31.8.455v6.89a3 3 0 0 0 .879 2.121l8.243 8.243a3 3 0 0 0 2.121.878z" data-name="stroke" stroke-linejoin="round"/></svg>