<svg xmlns="http://www.w3.org/2000/svg" viewBox="0 0 64 64" aria-labelledby="title" aria-describedby="desc"><circle data-name="layer1" cx="32" cy="32" r="30" fill="#f6b36d"/><path data-name="opacity" d="M57.9 38.7l-5-5-4 4 7.7 7.7a29.9 29.9 0 0 1-4.7 8.9l.2.2a30 30 0 0 0 8.5-13zm-26.5-5L20.7 23 9.8 12.1l-.9.8a30.2 30.2 0 0 0-2.6 3.7L16.7 27l10.7 10.7 10.7 10.7 4-4zm6.815-6.771l4.031-4.03 10.635 10.634-4.03 4.03z" fill="#101129" opacity=".25"/><path data-name="opacity" d="M27.4 16.2L38.2 27l4-4-10.8-10.8-3.3 3.3 3.3-3.3-6.1-6.1-2.6-2.6a30 30 0 0 0-13 8.5l.2.2a29.9 29.9 0 0 1 8.8-4.7zm-6.6 28.2L10 33.6l-7.4-7.5A30.1 30.1 0 0 0 2 32c0 .5 0 1.1.1 1.6l4 4 10.7 10.8L27.4 59l4-4z" fill="#101129" opacity=".25"/><path data-name="opacity" d="M27.4 59l3 3H32a30.1 30.1 0 0 0 5.9-.6L31.4 55zm10.7-10.6l9.4 9.4a30 30 0 0 0 3.7-2.6l.8-.9-9.8-9.8z" fill="#101129" opacity=".25"/><circle data-name="stroke" cx="32" cy="32" r="30" fill="none" stroke="#2f446a" stroke-linecap="round" stroke-linejoin="round" stroke-width="2"/><path data-name="stroke" fill="none" stroke="#2f446a" stroke-linecap="round" stroke-linejoin="round" stroke-width="2" d="M40.5 3.2L3.2 40.5m50.6-29.1L11.3 53.8m50-28.6l-36.1 36M22.7 3.5l37.8 37.8M9.6 11.9L52 54.3M2.6 26.1l35.3 35.4"/></svg>