<svg xmlns="http://www.w3.org/2000/svg" viewBox="0 0 64 64" aria-labelledby="title" aria-describedby="desc"><path data-name="layer3" fill="#d1deff" d="M8 12h48v48H8z"/><path data-name="layer5" fill="#a8bde5" d="M8 2h48v10H8z"/><circle data-name="layer4" cx="32" cy="35" r="16" fill="#e5edff"/><path data-name="opacity" d="M32 51a16 16 0 0 1-13.1-25.1 16 16 0 1 0 22.2 22.2A15.9 15.9 0 0 1 32 51z" fill="#000064" opacity=".14"/><circle data-name="layer3" cx="32" cy="35" r="11" fill="#d1deff"/><path data-name="layer2" fill="#6389d1" d="M41 6h8v2h-8z"/><path data-name="layer1" d="M38.3 33.9a7.6 7.6 0 0 0-5.6 2.4 7.6 7.6 0 0 1-11.7-.1 11 11 0 0 0 22-.8 7.6 7.6 0 0 0-4.7-1.5z" fill="#78d1f4"/><path data-name="opacity" d="M37.1 29.9c-4.1-3.9-8.9-.9-7.9.5s3 2 4 3.4 2.1 3.3 3.4 4 4.4-3.8.5-7.9z" fill="#fff" opacity=".5"/><circle data-name="stroke" cx="32" cy="35" r="16" fill="none" stroke="#2e4369" stroke-linecap="round" stroke-miterlimit="10" stroke-width="2" stroke-linejoin="round"/><circle data-name="stroke" cx="32" cy="35" r="11" fill="none" stroke="#2e4369" stroke-linecap="round" stroke-miterlimit="10" stroke-width="2" stroke-linejoin="round"/><path data-name="stroke" fill="none" stroke="#2e4369" stroke-linecap="round" stroke-miterlimit="10" stroke-width="2" d="M8 12h48M24 2v10" stroke-linejoin="round"/><circle data-name="stroke" cx="32" cy="7" r="1" fill="none" stroke="#2e4369" stroke-linecap="round" stroke-miterlimit="10" stroke-width="2" stroke-linejoin="round"/><path data-name="stroke" fill="none" stroke="#2e4369" stroke-linecap="round" stroke-miterlimit="10" stroke-width="2" d="M13 7.1h6M41 6h8v2h-8zM14 60v2m36-2v2" stroke-linejoin="round"/><path data-name="stroke" fill="none" stroke="#2e4369" stroke-linecap="round" stroke-miterlimit="10" stroke-width="2" d="M8 2h48v58H8z" stroke-linejoin="round"/><path data-name="stroke" d="M42.9 35.5a7.5 7.5 0 0 0-10.2.8A7.5 7.5 0 0 1 21 36" fill="none" stroke="#2e4369" stroke-linecap="round" stroke-miterlimit="10" stroke-width="2" stroke-linejoin="round"/></svg>