<svg xmlns="http://www.w3.org/2000/svg" viewBox="0 0 64 64" aria-labelledby="title" aria-describedby="desc"><path data-name="layer1" d="M2 15v4a30 30 0 1 0 60 0v-4zm41.7 6h4a2 2 0 0 1 0 4h-4a2 2 0 0 1 0-4zm-5.1 6.6a2 2 0 0 1 2.8 0l2.8 2.8a2 2 0 1 1-2.8 2.8l-2.8-2.8a2 2 0 0 1 0-2.8zM30 31a2 2 0 0 1 4 0v4a2 2 0 0 1-4 0zm-4.6-3.4a2 2 0 0 1 0 2.8l-2.8 2.8a2 2 0 0 1-2.8-2.8l2.8-2.8a2 2 0 0 1 2.8 0zM16 21h4a2 2 0 0 1 0 4h-4a2 2 0 1 1 0-4zm16 24A26 26 0 0 1 6 19a2 2 0 0 1 4 0 22 22 0 0 0 44 0 2 2 0 0 1 4 0 26 26 0 0 1-26 26z" fill="#202020"/></svg>