<svg xmlns="http://www.w3.org/2000/svg" viewBox="0 0 64 64" aria-labelledby="title" aria-describedby="desc"><path data-name="layer2" d="M24 51a10.4 10.4 0 0 0-.5-2.5C21.4 41.4 14 32 14 32s-7.4 9.4-9.5 16.6A10.4 10.4 0 0 0 4 51v.8A10.1 10.1 0 0 0 14 62a10.1 10.1 0 0 0 10-10.2V51z" fill="#cdebf2"/><path data-name="opacity" d="M17 57A10.1 10.1 0 0 1 7 46.8V46a10.4 10.4 0 0 1 .5-2.5 32.3 32.3 0 0 1 2.7-6.2C8 40.6 5.6 44.9 4.5 48.6A10.4 10.4 0 0 0 4 51v.8A10.1 10.1 0 0 0 14 62a10 10 0 0 0 9.7-7.6A9.8 9.8 0 0 1 17 57z" fill="#000064" opacity=".1"/><path data-name="layer2" d="M60 51a10.4 10.4 0 0 0-.5-2.5C57.4 41.4 50 32 50 32s-7.4 9.4-9.5 16.6A10.4 10.4 0 0 0 40 51v.8a10 10 0 1 0 20 0V51zM42 21a10.4 10.4 0 0 0-.5-2.5C39.4 11.4 32 2 32 2s-7.4 9.4-9.5 16.6A10.3 10.3 0 0 0 22 21v.8a10 10 0 1 0 20 0V21z" fill="#cdebf2"/><path data-name="opacity" d="M53 57a10.1 10.1 0 0 1-10-10.2V46a10.4 10.4 0 0 1 .5-2.5 32.3 32.3 0 0 1 2.7-6.2c-2.2 3.3-4.6 7.5-5.7 11.2A10.4 10.4 0 0 0 40 51v.8a10 10 0 0 0 19.7 2.6A9.8 9.8 0 0 1 53 57zM35 27a10.1 10.1 0 0 1-10-10.2V16a10.4 10.4 0 0 1 .5-2.5 32.3 32.3 0 0 1 2.7-6.2c-2.2 3.3-4.6 7.5-5.7 11.2A10.4 10.4 0 0 0 22 21v.8a10 10 0 0 0 19.7 2.6A9.8 9.8 0 0 1 35 27z" fill="#000064" opacity=".1"/><ellipse data-name="layer1" cx="54" cy="50" rx="3" ry="4" transform="rotate(-19.4 54.043 50.182)" fill="#fff"/><ellipse data-name="layer1" cx="18" cy="50" rx="3" ry="4" transform="rotate(-19.4 17.941 50.032)" fill="#fff"/><ellipse data-name="layer1" cx="36" cy="20" rx="3" ry="4" transform="rotate(-19.4 36.02 20.006)" fill="#fff"/><path data-name="stroke" d="M24 51a10.4 10.4 0 0 0-.5-2.5C21.4 41.4 14 32 14 32s-7.4 9.4-9.5 16.6A10.4 10.4 0 0 0 4 51v.8A10.1 10.1 0 0 0 14 62a10.1 10.1 0 0 0 10-10.2V51zm36 0a10.4 10.4 0 0 0-.5-2.5C57.4 41.4 50 32 50 32s-7.4 9.4-9.5 16.6A10.4 10.4 0 0 0 40 51v.8a10 10 0 1 0 20 0V51zM42 21a10.4 10.4 0 0 0-.5-2.5C39.4 11.4 32 2 32 2s-7.4 9.4-9.5 16.6A10.3 10.3 0 0 0 22 21v.8a10 10 0 1 0 20 0V21z" fill="none" stroke="#2e4369" stroke-linecap="round" stroke-linejoin="round" stroke-width="2"/></svg>