<svg xmlns="http://www.w3.org/2000/svg" viewBox="0 0 64 64" aria-labelledby="title" aria-describedby="desc"><path data-name="layer2" d="M51.184 27.934a27.47 27.47 0 0 0 .316-3.172c0-11.531-11.062-20.906-24.75-20.906S2 13.231 2 24.856a19.132 19.132 0 0 0 4.219 11.813L5.094 47.544l9.75-4.219a27.279 27.279 0 0 0 7.875 2.25 11.133 11.133 0 0 0 2.149-.022m10.226-33.447a3.563 3.563 0 1 1-3.562 3.563 3.561 3.561 0 0 1 3.562-3.563zm-16.688 7.032a3.482 3.482 0 0 1-3.469-3.563 3.516 3.516 0 1 1 3.469 3.563z" fill="none" stroke="#202020" stroke-linecap="round" stroke-miterlimit="10" stroke-width="2" stroke-linejoin="round"/><path data-name="layer1" d="M62 42.388c0-8.813-8.344-15.938-18.75-15.938-10.312 0-18.75 7.125-18.75 15.938s8.344 15.938 18.75 15.938a21.818 21.818 0 0 0 9-1.969l7.406 3.188-.844-8.25A14.555 14.555 0 0 0 62 42.388zm-25.031-4.313a2.625 2.625 0 1 1 2.625-2.625 2.563 2.563 0 0 1-2.625 2.625zm12.656 0a2.625 2.625 0 1 1 2.625-2.625 2.62 2.62 0 0 1-2.625 2.625z" fill="none" stroke="#202020" stroke-linecap="round" stroke-miterlimit="10" stroke-width="2" stroke-linejoin="round"/></svg>