<svg xmlns="http://www.w3.org/2000/svg" viewBox="0 0 64 64" aria-labelledby="title" aria-describedby="desc"><path data-name="layer2" d="M32 14.4c-16.6 0-30 4.5-30 10s7.4 7.6 18 9.2l12-9.2 12 9.2c10.6-1.5 18-5.1 18-9.2s-13.4-10-30-10z" fill="#ffde76"/><path data-name="layer1" fill="#fdc20f" d="M20 33.6v16l12-7.2 12 7.2v-16l-12-9.2-12 9.2z"/><path data-name="opacity" fill="#101129" opacity=".18" d="M32 24.4v18l12 7.2v-16l-12-9.2z"/><path data-name="layer1" d="M44 33.6v16c10.6-1.5 18-5.1 18-9.2v-16c0 4.1-7.4 7.6-18 9.2zm-24 0v16C9.4 48 2 44.5 2 40.4v-16c0 4.1 7.4 7.6 18 9.2z" fill="#fdc20f"/><path data-name="opacity" d="M20 33.6v16C9.4 48 2 44.5 2 40.4v-16c0 4.1 7.4 7.6 18 9.2z" fill="#101129" opacity=".18"/><path data-name="stroke" d="M44 49.6c10.6-1.5 18-5.1 18-9.2v-16m-60 0v16c0 4.1 7.4 7.6 18 9.2" fill="none" stroke="#2f446a" stroke-linecap="round" stroke-linejoin="round" stroke-width="2"/><path data-name="stroke" d="M32 14.4c-16.6 0-30 4.5-30 10s7.4 7.6 18 9.2l12-9.2 12 9.2c10.6-1.5 18-5.1 18-9.2s-13.4-10-30-10zM20 33.6v16l12-7.2 12 7.2v-16m-12-9.2v18.1" fill="none" stroke="#2f446a" stroke-linecap="round" stroke-linejoin="round" stroke-width="2"/></svg>