<svg xmlns="http://www.w3.org/2000/svg" viewBox="0 0 64 64" aria-labelledby="title" aria-describedby="desc"><path data-name="layer1" d="M17.75 13h2.158a3 3 0 0 0 2.91-3.728l-.871-3.485A5 5 0 0 0 17.1 2H15z" fill="#68b4ff"/><path data-name="layer2" d="M22 30a16 16 0 1 0 16 16 16 16 0 0 0-16-16zm0 27a11 11 0 1 1 11-11 11 11 0 0 1-11 11z" fill="#536897"/><path data-name="layer3" d="M22 57a11 11 0 1 1 11-11 11 11 0 0 1-11 11z" fill="#b7c0d4"/><circle data-name="layer2" cx="47" cy="57" r="5" fill="#536897"/><path data-name="layer1" fill="#68b4ff" d="M51 38H35.859l-4.53-5H51v5z"/><path data-name="stroke" fill="none" stroke="#2e4369" stroke-linecap="round" stroke-miterlimit="10" stroke-width="2" d="M6 2h9l7 28" stroke-linejoin="round"/><path data-name="stroke" d="M15 2h2.1a5 5 0 0 1 4.851 3.787l.871 3.485A3 3 0 0 1 19.908 13H17.75M51.9 58H60M31.329 33H51m-15.141 5H51M20 22h19a12 12 0 0 1 12 12v20.017M51 47H38" fill="none" stroke="#2e4369" stroke-linecap="round" stroke-miterlimit="10" stroke-width="2" stroke-linejoin="round"/><circle data-name="stroke" cx="22" cy="46" r="16" fill="none" stroke="#2e4369" stroke-linecap="round" stroke-miterlimit="10" stroke-width="2" stroke-linejoin="round"/><circle data-name="stroke" cx="22" cy="46" r="11" fill="none" stroke="#2e4369" stroke-linecap="round" stroke-miterlimit="10" stroke-width="2" stroke-linejoin="round"/><circle data-name="stroke" cx="47" cy="57" r="5" fill="none" stroke="#2e4369" stroke-linecap="round" stroke-miterlimit="10" stroke-width="2" stroke-linejoin="round"/></svg>