<svg xmlns="http://www.w3.org/2000/svg" viewBox="0 0 64 64" aria-labelledby="title" aria-describedby="desc"><path data-name="layer1" d="M4 2h48a4 4 0 0 1 4 4 4 4 0 0 1-4 4H12a4 4 0 0 0-4 4 4 4 0 0 0 4 4h44a4 4 0 0 1 4 4 4 4 0 0 1-4 4H24a4 4 0 0 0-4 4 4 4 0 0 0 4 4h18a4 4 0 0 1 4 4 4 4 0 0 1-4 4H22a4 4 0 0 0-4 4 4 4 0 0 0 4 4h8a4 4 0 0 1 4 4 4 4 0 0 1-4 4m-4 4a4 4 0 0 1 4-4" fill="none" stroke="#202020" stroke-miterlimit="10" stroke-width="2" stroke-linejoin="round" stroke-linecap="round"/></svg>