<svg xmlns="http://www.w3.org/2000/svg" viewBox="0 0 64 64" aria-labelledby="title" aria-describedby="desc"><path data-name="layer1" d="M56 18h-2a4 4 0 0 0 0-8h-2a4 4 0 0 0 0-8H4a4 4 0 0 0 0 8h8a4 4 0 0 0 0 8h7a4 4 0 0 0 0 8h5a4 4 0 0 0 0 8h-2a4 4 0 0 0 0 8 4 4 0 0 0 0 8h4a4 4 0 0 0 0 8h4a4 4 0 0 0 0-8h6a4 4 0 0 0 0-8h6a4 4 0 0 0 0-8h6a4 4 0 0 0 0-8h8a4 4 0 0 0 0-8z" fill="#cdf0f0"/><path d="M19 18h2a4 4 0 0 1 0-8h2a4 4 0 0 1 0-8h29a4 4 0 1 1 0 8h-8a4 4 0 0 1 0 8h-7a4 4 0 0 1 0 8h-5a4 4 0 0 1 0 8h2a4 4 0 0 1 0 8 4 4 0 0 1 0 8h-7a4 4 0 0 1 0-8h-1a4 4 0 0 1 0-8h-2a4 4 0 0 1 0-8h-5a4 4 0 0 1 0-8zm15 36a4 4 0 1 1-4-4 4 4 0 0 1 4 4z" fill="#fff" data-name="opacity" opacity=".5"/><path data-name="stroke" d="M4 2h48a4 4 0 0 1 4 4 4 4 0 0 1-4 4H12a4 4 0 0 0-4 4 4 4 0 0 0 4 4h44a4 4 0 0 1 4 4 4 4 0 0 1-4 4H24a4 4 0 0 0-4 4 4 4 0 0 0 4 4h18a4 4 0 0 1 4 4 4 4 0 0 1-4 4H22a4 4 0 0 0-4 4 4 4 0 0 0 4 4h8a4 4 0 0 1 4 4 4 4 0 0 1-4 4m-4 4a4 4 0 0 1 4-4" fill="none" stroke="#2e4369" stroke-linecap="round" stroke-linejoin="round" stroke-width="2"/></svg>