<svg xmlns="http://www.w3.org/2000/svg" viewBox="0 0 64 64" aria-labelledby="title" aria-describedby="desc"><circle data-name="layer1" cx="8" cy="56" r="6" fill="#5edc89"/><path data-name="layer1" d="M59 62a3 3 0 0 1-3-3A51.1 51.1 0 0 0 5 8a3 3 0 0 1 0-6 57.1 57.1 0 0 1 57 57 3 3 0 0 1-3 3z" fill="#5edc89"/><path data-name="layer1" d="M43 62a3 3 0 0 1-3-3A35 35 0 0 0 5 24a3 3 0 0 1 0-6 41 41 0 0 1 41 41 3 3 0 0 1-3 3z" fill="#5edc89"/><path data-name="layer1" d="M27 62a3 3 0 0 1-3-3A19 19 0 0 0 5 40a3 3 0 0 1 0-6 25 25 0 0 1 25 25 3 3 0 0 1-3 3z" fill="#5edc89"/><circle data-name="stroke" cx="8" cy="56" r="6" fill="none" stroke="#2e4369" stroke-linecap="round" stroke-miterlimit="10" stroke-width="2" stroke-linejoin="round"/><path data-name="stroke" d="M59 62a3 3 0 0 1-3-3A51.1 51.1 0 0 0 5 8a3 3 0 0 1 0-6 57.1 57.1 0 0 1 57 57 3 3 0 0 1-3 3z" fill="none" stroke="#2e4369" stroke-linecap="round" stroke-linejoin="round" stroke-width="2"/><path data-name="stroke" d="M43 62a3 3 0 0 1-3-3A35 35 0 0 0 5 24a3 3 0 0 1 0-6 41 41 0 0 1 41 41 3 3 0 0 1-3 3z" fill="none" stroke="#2e4369" stroke-linecap="round" stroke-linejoin="round" stroke-width="2"/><path data-name="stroke" d="M27 62a3 3 0 0 1-3-3A19 19 0 0 0 5 40a3 3 0 0 1 0-6 25 25 0 0 1 25 25 3 3 0 0 1-3 3z" fill="none" stroke="#2e4369" stroke-linecap="round" stroke-linejoin="round" stroke-width="2"/></svg>