<svg xmlns="http://www.w3.org/2000/svg" viewBox="0 0 64 64" aria-labelledby="title" aria-describedby="desc"><rect data-name="layer2" x="2" y="39" width="60" height="18" rx="2" ry="2" fill="#7b8baf"/><path data-name="opacity" d="M6 53V39H4a2 2 0 0 0-2 2v14a2 2 0 0 0 2 2h56a2 2 0 0 0 2-2H8a2 2 0 0 1-2-2z" fill="#000064" opacity=".14"/><circle data-name="layer1" cx="11" cy="48" r="2" fill="#f27e7c"/><circle data-name="layer1" cx="21" cy="48" r="2" fill="#f27e7c"/><circle data-name="layer1" cx="31" cy="48" r="2" fill="#f27e7c"/><path data-name="stroke" fill="none" stroke="#2e4369" stroke-linecap="round" stroke-linejoin="round" stroke-width="2" d="M48 19v20m-6-22a6 6 0 0 1 12 0m-20 0a14 14 0 0 1 28 0"/><rect data-name="stroke" x="2" y="39" width="60" height="18" rx="2" ry="2" fill="none" stroke="#2e4369" stroke-linecap="round" stroke-linejoin="round" stroke-width="2"/><circle data-name="stroke" cx="11" cy="48" r="2" fill="none" stroke="#2e4369" stroke-linecap="round" stroke-linejoin="round" stroke-width="2"/><circle data-name="stroke" cx="21" cy="48" r="2" fill="none" stroke="#2e4369" stroke-linecap="round" stroke-linejoin="round" stroke-width="2"/><circle data-name="stroke" cx="31" cy="48" r="2" fill="none" stroke="#2e4369" stroke-linecap="round" stroke-linejoin="round" stroke-width="2"/><path data-name="stroke" fill="none" stroke="#2e4369" stroke-linecap="round" stroke-linejoin="round" stroke-width="2" d="M8 57v4m48-4v4"/></svg>