<svg xmlns="http://www.w3.org/2000/svg" viewBox="0 0 64 64" aria-labelledby="title" aria-describedby="desc"><circle data-name="layer2" cx="8" cy="56" r="6" fill="#202020"/><path data-name="layer1" d="M8 0a2 2 0 0 0 0 4 52.1 52.1 0 0 1 52 52 2 2 0 0 0 4 0A56.1 56.1 0 0 0 8 0z" fill="#202020"/><path data-name="layer1" d="M8 16a2 2 0 0 0 0 4 36 36 0 0 1 36 36 2 2 0 0 0 4 0A40 40 0 0 0 8 16z" fill="#202020"/><path data-name="layer1" d="M8 32a2 2 0 0 0 0 4 20 20 0 0 1 20 20 2 2 0 1 0 4 0A24 24 0 0 0 8 32z" fill="#202020"/></svg>