<svg xmlns="http://www.w3.org/2000/svg" viewBox="0 0 64 64" aria-labelledby="title" aria-describedby="desc"><circle data-name="layer1" cx="32" cy="27" r="4" fill="#202020"/><path data-name="layer2" d="M36 5.7C36 2.2 33.8 1 32 1c-1.8 0-4 1.2-4 4.7S30 19 32 19s4-9.8 4-13.3zM25.9 31.4c-1-1.7-10.5 1.4-13.5 3.2s-3 4.2-2.1 5.8c.9 1.6 3 2.9 6.1 1.1s10.5-8.3 9.5-10.1zm25.7 3.3c-3-1.8-12.5-4.9-13.5-3.2-1 1.7 6.5 8.4 9.5 10.1s5.1.5 6.1-1.1c.9-1.6 1-4.1-2.1-5.8z" fill="#202020"/><path data-name="layer1" d="M44 59H34V34.7l-2 .3-2-.3V59H20a2 2 0 1 0 0 4h24a2 2 0 0 0 0-4z" fill="#202020"/></svg>