<svg xmlns="http://www.w3.org/2000/svg" viewBox="0 0 64 64" aria-labelledby="title" aria-describedby="desc"><path data-name="layer2" d="M60.997 5a3 3 0 0 0-3-3H3a3 3 0 0 0 0 6h54.997a3 3 0 0 0 3-3zM61 10H12a3 3 0 0 0 0 6h49a3 3 0 0 0 0-6zm-9.002 8H8a3 3 0 0 0 0 6h43.998a3 3 0 1 0 0-6zm-7.001 11a3 3 0 0 0-3-3H12a3 3 0 0 0 0 6h29.997a3 3 0 0 0 3-3z" fill="#202020"/><path data-name="layer1" d="M48.997 37a3 3 0 0 0-3-3H18a3 3 0 0 0 0 6h27.997a3 3 0 0 0 3-3zm-2.998 5H26a3 3 0 0 0 0 6h19.999a3 3 0 0 0 0-6zm-6.001 8H30a3 3 0 0 0 0 6h9.998a3 3 0 1 0 0-6zm-8 8H28a3 3 0 0 0 0 6h3.998a3 3 0 0 0 0-6z" fill="#202020"/></svg>