<svg xmlns="http://www.w3.org/2000/svg" viewBox="0 0 64 64" aria-labelledby="title" aria-describedby="desc"><path data-name="layer2" d="M46 2H18s-1.3 9.3-1.8 16h31.6C47.3 11.3 46 2 46 2z" fill="#d5e2f4"/><path data-name="layer1" d="M16.2 18c-.1 1.5-.2 2.9-.2 4 0 6 5.5 16 16.2 16S48 28 48 22c0-1.1-.1-2.5-.2-4z" fill="#a41d34"/><path data-name="opacity" d="M23.9 2H18s-1.3 9.3-1.8 16h6.1c.4-5.5 1.3-13.3 1.6-16z" fill="#101129" opacity=".18"/><path data-name="opacity" d="M22 23c0-1.1.1-2.5.2-4v-1h-6c-.1 1.5-.2 2.9-.2 4 0 6 5.5 16 16.2 16h.4A17.3 17.3 0 0 1 22 23z" fill="#101129" opacity=".25"/><path data-name="opacity" d="M43.4 18c-.5-5.7-1.2-13.3-1.5-16H35c.2 3.7.6 10.3 1 16zm-6.8 9c.1 1.5.2 2.9.2 4a15 15 0 0 1-1 5.2 10.1 10.1 0 0 0 6.3-4.4 16 16 0 0 0 1.7-6.8c0-1.1-.1-2.5-.2-4l-.2-3H36c.3 3.7.5 7 .6 9z" fill="#fff" opacity=".5"/><path data-name="stroke" d="M47.8 18C47.3 11.3 46 2 46 2H18s-1.3 9.3-1.8 16m0 0c-.1 1.5-.2 2.9-.2 4 0 6 5.5 16 16.2 16S48 28 48 22c0-1.1-.1-2.5-.2-4zM32 39.1V62m-10 0h20" fill="none" stroke="#2f446a" stroke-linecap="round" stroke-linejoin="round" stroke-width="2"/></svg>