<svg xmlns="http://www.w3.org/2000/svg" viewBox="0 0 64 64" aria-labelledby="title" aria-describedby="desc"><path data-name="layer2" d="M31.8 26a17.1 17.1 0 0 0-12.5 5.5 2 2 0 1 0 2.9 2.7 13 13 0 0 1 19.2.1 2 2 0 0 0 3-2.7A17 17 0 0 0 31.8 26z" fill="#202020"/><path data-name="layer2" d="M50 25.9a2 2 0 0 0 2.9-2.7 29.1 29.1 0 0 0-42.1-.3 2 2 0 1 0 2.9 2.8A25.1 25.1 0 0 1 50 26z" fill="#202020"/><path data-name="layer2" d="M5.2 17.2a37.8 37.8 0 0 1 53.7 0 2 2 0 0 0 2.8-2.8 41.8 41.8 0 0 0-59.3 0 2 2 0 0 0 2.8 2.8z" fill="#202020"/><path data-name="layer1" d="M60 42H4a2 2 0 0 0-2 2v16a2 2 0 0 0 2 2h56a2 2 0 0 0 2-2V44a2 2 0 0 0-2-2zm-8.6 12.9a3.4 3.4 0 1 1 3.4-3.4 3.4 3.4 0 0 1-3.4 3.4z" fill="#202020"/></svg>