<svg xmlns="http://www.w3.org/2000/svg" viewBox="0 0 64 64" aria-labelledby="title" aria-describedby="desc"><rect data-name="layer2" x="2" y="42" width="60" height="20" rx="2" ry="2" fill="#7b8baf"/><path data-name="opacity" d="M6 58V42H4a2 2 0 0 0-2 2v16a2 2 0 0 0 2 2h56a2 2 0 0 0 2-2H8a2 2 0 0 1-2-2z" fill="#000064" opacity=".14"/><path data-name="layer1" d="M53 51a2 2 0 0 1-2 2 2 2 0 0 1-2-2 2 2 0 0 1 2-2 2 2 0 0 1 2 2z" fill="#f27e7c"/><path data-name="stroke" d="M53 51a2 2 0 0 1-2 2 2 2 0 0 1-2-2 2 2 0 0 1 2-2 2 2 0 0 1 2 2zM20.8 30.8A15 15 0 0 1 43 31m-30.7-8.8a27.1 27.1 0 0 1 39.2.3M3.8 13.8a39.8 39.8 0 0 1 56.5 0" fill="none" stroke="#2e4369" stroke-linecap="round" stroke-linejoin="round" stroke-width="2"/><rect data-name="stroke" x="2" y="42" width="60" height="20" rx="2" ry="2" fill="none" stroke="#2e4369" stroke-linecap="round" stroke-linejoin="round" stroke-width="2"/></svg>