<svg xmlns="http://www.w3.org/2000/svg" viewBox="0 0 64 64" aria-labelledby="title" aria-describedby="desc"><path data-name="layer1" fill="#c3e2fa" d="M2 2h24v24H2z"/><path data-name="layer3" fill="#dbf1ff" d="M38 2h24v24H38z"/><path data-name="layer2" fill="#aad6f8" d="M2 38h24v24H2z"/><path data-name="layer1" fill="#c3e2fa" d="M38 38h24v24H38z"/><path data-name="opacity" fill="#000064" opacity=".12" d="M7 2H2v24h24v-3H7V2zm36 0h-5v24h24v-3H43V2zM7 38H2v24h24v-3H7V38zm36 0h-5v24h24v-3H43V38z"/><path data-name="stroke" fill="none" stroke="#2e4369" stroke-linecap="round" stroke-miterlimit="10" stroke-width="2" d="M2 2h24v24H2zm36 0h24v24H38zM2 38h24v24H2zm36 0h24v24H38z" stroke-linejoin="round"/></svg>