<svg xmlns="http://www.w3.org/2000/svg" viewBox="0 0 64 64" aria-labelledby="title" aria-describedby="desc"><path data-name="layer1" d="M38 48v11a3 3 0 0 1-3 3h-6a3 3 0 0 1-3-3V48h-8l6-23c.5-1.6 1.3-3 3-3h10c1.7 0 2.6 1.4 3 3l6 23zm1-38.9A7 7 0 0 0 25 9s-.5 5.3-3 7h20c-2.3-1.6-2.9-6.3-3-6.9z" fill="#ff7e63"/><path data-name="opacity" d="M30 59V48h-4v11a3 3 0 0 0 3 3h4a3 3 0 0 1-3-3zm1-37h-4c-1.7 0-2.5 1.4-3 3l-6 23h4l6-23c.5-1.6 1.3-3 3-3zM29 9a7 7 0 0 1 5-6.7A7 7 0 0 0 25 9s-.5 5.3-3 7h4c2.5-1.7 3-7 3-7z" fill="#000064" opacity=".15"/><path data-name="stroke" d="M38 48v11a3 3 0 0 1-3 3h-6a3 3 0 0 1-3-3V48h-8l6-23c.5-1.6 1.3-3 3-3h10c1.7 0 2.6 1.4 3 3l6 23zm1-38.9A7 7 0 0 0 25 9s-.5 5.3-3 7h20c-2.3-1.6-2.9-6.3-3-6.9z" fill="none" stroke="#2e4369" stroke-linecap="round" stroke-linejoin="round" stroke-width="2"/></svg>