<svg xmlns="http://www.w3.org/2000/svg" viewBox="0 0 64 64" aria-labelledby="title" aria-describedby="desc"><circle data-name="layer1" cx="33" cy="34" r="20" fill="#c9c"/><path data-name="opacity" d="M37 48a20 20 0 0 1-18.4-27.9 20 20 0 1 0 32.8 21.8A19.9 19.9 0 0 1 37 48z" fill="#000064" opacity=".17"/><path data-name="stroke" fill="none" stroke="#2e4369" stroke-linecap="round" stroke-miterlimit="10" stroke-width="2" d="M19.9 18.9L11 10m44 44l-6.9-6.9m-34-40.2l-6.2 6.2m22.8 1l-2-11.5M39 62l-1.5-8.5M33 2l-8.6 1.2" stroke-linejoin="round"/><circle data-name="stroke" cx="33" cy="34" r="20" fill="none" stroke="#2e4369" stroke-linecap="round" stroke-miterlimit="10" stroke-width="2" stroke-linejoin="round"/><path data-name="stroke" d="M13.9 39.9A22.3 22.3 0 0 0 42 16.2M18.5 47.8A23.8 23.8 0 0 0 48 20.7m-22.3-5.3a28.3 28.3 0 0 0 15.2 10.4m-26.7 1.5a28.2 28.2 0 0 0 16.5 10.6M18.9 19.8a31.6 31.6 0 0 0 18.2 12.8" fill="none" stroke="#2e4369" stroke-linecap="round" stroke-miterlimit="10" stroke-width="2" stroke-linejoin="round"/></svg>