<svg xmlns="http://www.w3.org/2000/svg" viewBox="0 0 64 64" aria-labelledby="title" aria-describedby="desc"><path data-name="layer1" d="M0 31.994a32.082 32.082 0 0 0 18 28.8l-15.2-41.8a31.6 31.6 0 0 0-2.8 13zm53.6-1.6a16.7 16.7 0 0 0-2.6-8.8c-1.6-2.6-3.1-4.9-3.1-7.5a5.569 5.569 0 0 1 5.4-5.7h.4A32.451 32.451 0 0 0 32-.006a31.791 31.791 0 0 0-26.7 14.4h2.1c3.3 0 8.5-.4 8.5-.4a1.3 1.3 0 0 1 .2 2.6s-1.7.2-3.7.3l11.6 34.8 7-21-5-13.7c-1.7-.1-3.4-.3-3.4-.3a1.3 1.3 0 0 1 .2-2.6s5.3.4 8.4.4c3.4 0 8.5-.4 8.5-.4a1.3 1.3 0 0 1 .2 2.6s-1.7.2-3.7.3l11.8 34.4 3.2-10.7a29.843 29.843 0 0 0 2.4-10.3zm-21 4.4l-9.6 27.9a33.751 33.751 0 0 0 9 1.3 31.055 31.055 0 0 0 10.6-1.8.758.758 0 0 1-.2-.4zm27.5-18.2a32.513 32.513 0 0 1 .2 3.3 31.067 31.067 0 0 1-2.4 11.5l-9.8 28.3a32.163 32.163 0 0 0 12-43.1z" fill="#202020"/></svg>