<svg xmlns="http://www.w3.org/2000/svg" viewBox="0 0 64 64" aria-labelledby="title" aria-describedby="desc"><path data-name="layer1" d="M32 0a32 32 0 1 0 32 32A32.094 32.094 0 0 0 32 0zM3.7 32a27.613 27.613 0 0 1 2.5-11.5l13.5 37A28.306 28.306 0 0 1 3.7 32zM32 60.3a26.253 26.253 0 0 1-8-1.2l8.5-24.7 8.7 23.9c.1.1.1.3.2.4a26.528 26.528 0 0 1-9.4 1.6zm3.9-41.6c1.7-.1 3.2-.3 3.2-.3a1.155 1.155 0 0 0-.2-2.3s-4.6.4-7.6.4c-2.8 0-7.5-.4-7.5-.4a1.155 1.155 0 0 0-.2 2.3s1.4.2 3 .3L31 30.8l-6 18.6-10.4-30.7c1.7-.1 3.2-.3 3.2-.3a1.155 1.155 0 0 0-.2-2.3s-4.6.4-7.6.4H8.2A28.465 28.465 0 0 1 32 3.7a28.079 28.079 0 0 1 19.1 7.4h-.4a4.908 4.908 0 0 0-4.8 5c0 2.3 1.3 4.3 2.8 6.6a14.725 14.725 0 0 1 2.3 7.8c0 2.4-.9 5.2-2.2 9.2L46 49.1zm10.3 37.8l8.7-25a27.154 27.154 0 0 0 2.2-10.1 26.416 26.416 0 0 0-.2-2.9 28.1 28.1 0 0 1-10.7 38z" fill="#00769d"/></svg>