<svg xmlns="http://www.w3.org/2000/svg" viewBox="0 0 64 64" aria-labelledby="title" aria-describedby="desc"><path data-name="layer1" d="M50.3 49l-3.6-.8h-.1c-4.7-1.3-4.7-2.8-4.7-3.8v-2.8a20.4 20.4 0 0 0 4.7-7.8c3.1-1 4.2-5.1 4.2-7.1a8.1 8.1 0 0 0-1-4.7H54a2 2 0 0 0 0-4h-6c-.4-3.3-2.7-18-10-18a10.1 10.1 0 0 0-4.1 1.2 7.6 7.6 0 0 1-1.9.7 7.6 7.6 0 0 1-1.9-.7A10.1 10.1 0 0 0 26 0c-7.3 0-9.5 14.6-9.9 18H10a2 2 0 0 0 0 4h4.2a8.3 8.3 0 0 0-1.1 4.7c0 2 1.1 6 4.2 7a20.1 20.1 0 0 0 4.7 7.9v2.9c0 .2.1 2.3-4.5 3.6h-.2l-3.7.8C2.9 51 0 58.4 0 62v2h64v-2c0-3.7-2.9-11.1-13.7-13zm-26.4.5l5.6 3.3-2.1 5.3-6-7.2a10.6 10.6 0 0 0 2.5-1.4zM42.7 51l-6.1 7.1-2.1-5.3 5.6-3.4a10.4 10.4 0 0 0 2.6 1.6zM20.4 30h-1.6c-1.2 0-1.8-2.6-1.8-3.3 0-2.6.7-2.6.9-2.6h2V22H44v2h2c.3 0 .9 0 .9 2.6 0 .6-.6 3.3-1.8 3.3h-1.5l-.4 1.5a15.3 15.3 0 0 1-6.2 9.2 2 2 0 0 0 1 3.7 8.8 8.8 0 0 0 .1 1.6L32 49.7 25.9 46a8.5 8.5 0 0 0 .1-1.6 2 2 0 0 0 1-3.7 15.3 15.3 0 0 1-6.3-9.1z" fill="#202020"/></svg>