<svg xmlns="http://www.w3.org/2000/svg" viewBox="0 0 64 64" aria-labelledby="title" aria-describedby="desc"><path data-name="layer2" d="M46 20v-1.6S44 2 38 2c-2 0-4.3 1.9-6 1.9S28 2 26 2c-6 0-8 16.4-8 16.4V20zM14 51C2 53.4 2 62 2 62h60s-.1-8.6-12-11c-6-1.2-8.4-2.8-9.4-4.3L32 52l-8.7-5.2c-.9 1.5-3.3 3-9.3 4.2z" fill="#8fa9d8"/><path data-name="layer1" d="M46 22v-2H18v2c-3 0-2.9 3.8-2.9 4.7s.7 5.1 3.8 5.1a17.7 17.7 0 0 0 5.3 8.8H24V44a4.6 4.6 0 0 1-.7 2.8L32 52l8.6-5.3A4.7 4.7 0 0 1 40 44v-3.2h-.1a17.7 17.7 0 0 0 5.3-8.8c3 0 3.7-4.3 3.7-5.2S49 22.1 46 22z" fill="#e8d4d4"/><path data-name="opacity" d="M26 49l3 1 8-8a10.6 10.6 0 0 1-6 0c-11-3-8-18-8-18h25.6a2.6 2.6 0 0 0-2.6-2v-2H24c-.9-8 3-16.1 5.3-17A8.6 8.6 0 0 0 26 2c-6 0-8 16.4-8 16.4V22c-3 0-2.9 3.8-2.9 4.7s.7 5.1 3.8 5.1a17.7 17.7 0 0 0 5.3 8.8H24V44a4.6 4.6 0 0 1-.7 2.8c-1 1.5-3.4 3-9.3 4.2C2 53.4 2 62 2 62h6c1-5 9-8 9-8l4 8h7l-6-8z" fill="#000064" opacity=".15"/><path data-name="stroke" d="M24 40.8V44c0 2 0 5-10 7C2 53.4 2 62 2 62h60s-.1-8.6-12-11c-10-2-10-5-10-7v-3.2" fill="none" stroke="#2e4369" stroke-linecap="round" stroke-linejoin="round" stroke-width="2"/><path data-name="stroke" d="M38 42a16.8 16.8 0 0 0 7.2-10.1c3 0 3.7-4.3 3.7-5.2S49 22.1 46 22v-2m-28 0v2c-3 0-2.9 3.8-2.9 4.7s.7 5.1 3.8 5.1A16.8 16.8 0 0 0 26 42m20-22v-1.6S44 2 38 2c-2 0-4.3 1.9-6 1.9S28 2 26 2c-6 0-8 16.4-8 16.4V20m-8 0h44M40.6 46.7L32 52l4 10 10.1-12M18 50l10 12 4-10-8.7-5.2" fill="none" stroke="#2e4369" stroke-linecap="round" stroke-linejoin="round" stroke-width="2"/></svg>