<svg xmlns="http://www.w3.org/2000/svg" viewBox="0 0 64 64" aria-labelledby="title" aria-describedby="desc"><path data-name="layer1" d="M61 16.4L47.6 3l-5.9 5.9c-3 3-3.2 6.6-2.3 11.4h-.1c-9.5-2.4-18.4 6.5-16.4 15.3-5.5.6-9.5 1.6-13.9 6l-6 6L16.4 61l5.9-5.9c3-3 3.2-6.6 2.3-11.3h.1c9.5 2.4 18.4-6.5 16.4-15.3 5.5-.6 9.5-1.6 13.9-6z" fill="#b99bea"/><path data-name="opacity" d="M22.3 55.1c3-3 3.2-6.6 2.3-11.3h.1c9.5 2.4 18.4-6.5 16.4-15.3 5.5-.6 9.5-1.6 13.9-6l6-6.1-3.6-3.6C55.3 15.2 48.5 23 46 23s-7-7.8-7-7.9a22.1 22.1 0 0 0 .4 5.2h-.1a12.8 12.8 0 0 0-2.8-.4A68.9 68.9 0 0 1 37 28c0 5-4 10-8 11s-6.4-5.7-6.4-5.7a11.4 11.4 0 0 0 .3 2.4l-1.8.2C21.1 43.7 20 47 18 49s-5 4.5-7.2 6.4l5.6 5.6z" fill="#000064" opacity=".14"/><path data-name="stroke" d="M39.2 20.3c-9.5-2.4-18.4 6.5-16.4 15.3s3.9 15-.6 19.4l-5.8 6L3 47.6l5.9-5.9c4.5-4.5 8.4-5.5 13.9-6" fill="none" stroke="#2e4369" stroke-linecap="round" stroke-miterlimit="10" stroke-width="2" stroke-linejoin="round"/><path data-name="stroke" d="M24.8 43.7c9.5 2.4 18.4-6.5 16.4-15.3s-3.9-15 .6-19.4l5.8-6L61 16.4l-5.9 5.9c-4.5 4.5-8.4 5.5-13.9 6" fill="none" stroke="#2e4369" stroke-linecap="round" stroke-miterlimit="10" stroke-width="2" stroke-linejoin="round"/></svg>