<svg xmlns="http://www.w3.org/2000/svg" viewBox="0 0 64 64" aria-labelledby="title" aria-describedby="desc"><path data-name="layer1" d="M47.8 2.489h-8c-2.3 4.2-10.6 17.8-15.9 26.5-5.4-8.9-11.8-19.2-15.9-26.5H0c6.5 9.8 17 28.5 20.5 34.7v25.6h6.6l.1-25.6c6.6-11.7 17.6-30.7 20.6-34.7zm16.2 4.3c0-2.1-1.3-3.3-3.3-3.7a5.384 5.384 0 0 0-.8-.1c-1.9 0-3.8 1.1-3.8 4-1.1 14.4-2.3 28.8-4.3 42.5l3 .5c2.2-13.9 7.4-34.8 8.8-40.7.1-.8.4-1.8.4-2.5zm-12.5 48.5c-2.5 0-3.7 1.9-3.7 4 0 2.4 1.9 3.7 4.3 3.7a3.54 3.54 0 0 0 3.6-3.9c0-2.4-1.8-3.8-4.2-3.8z" fill="#202020"/></svg>