<svg xmlns="http://www.w3.org/2000/svg" viewBox="0 0 64 64" aria-labelledby="title" aria-describedby="desc"><path data-name="layer1" d="M27.042 11.994H0V15.4h8.513c3.305 2.7 17.527 20.031 18.028 21.734.2 1.5.5 10.717-.1 11.418-.7 1.1-8.413.5-9.815.6v3.405c2.5.1 9.915 0 12.419 0 4.908 0 13.621-.1 14.823 0l.2-3.205-10.016-.1a112.38 112.38 0 0 1-.2-11.518c.9-2.9 16.526-14.923 17.828-15.224a11.362 11.362 0 0 1 2.3-.3h3.81l.8-1.1a19.03 19.03 0 0 1 1.7-2l.2-.3H35.455l1 3.405h6.811L31.649 32.627c-2.3-3.405-7.812-11.318-11.718-17.227h7.111z" fill="#202020"/><path data-name="layer1" d="M54.685 44.645l4.307.3L64 26.417c-.8 0-8.513-.7-9.515-.9zm-.701 2.905v4.507l2.204.2 2.404.201.701-4.407-2.504-.1-2.805-.401z" fill="#202020"/></svg>