<?xml version="1.0" encoding="utf-8"?>
<!-- Generator: Adobe Illustrator 19.1.0, SVG Export Plug-In . SVG Version: 6.00 Build 0)  -->
<!DOCTYPE svg PUBLIC "-//W3C//DTD SVG 1.1//EN" "http://www.w3.org/Graphics/SVG/1.1/DTD/svg11.dtd">
<svg version="1.1" id="Layer_1" xmlns="http://www.w3.org/2000/svg" xmlns:xlink="http://www.w3.org/1999/xlink" x="0px" y="0px"
	 width="536px" height="266px" viewBox="0 0 536 266" enable-background="new 0 0 536 266" xml:space="preserve">
<path fill="#2D2C2C" d="M82,71c0.508,0,1.986,0.113,2.422,0.308l-0.011-0.004c0.11101-0.217,0.276-0.403,0.438-0.601
	c0.922-1.12,2.88-3.118,4.442-2.577c-1.313,2.646-1.061,6.411-1.061,6.411C92.131,71.848,95.533,70,100,70c8.284,0,11,7.925,11,14
	c0,3.96-0.53799,6.958-1.496,9.224C108.429,91.341,105.703,90,102.5,90C99,90,96,91,95,94c-1-2-3.134-3-7-3
	c-1.351,0-2.625,0.125-4,1c-0.925,1.797-2,3-2,3s-1.075-1.203-2-3c-1.375-0.875-2.649-1-4-1c-3.866,0-6,1-7,3c-1-3-4-4-7.5-4
	c-3.203,0-5.929,1.341-7.004,3.224C53.538,90.958,53,87.96,53,84c0-6.075,2.716-14,11-14c4.467,0,7.869,1.848,11.769,4.537
	c0,0,0.25201-3.765-1.061-6.411c1.563-0.541,3.521,1.457,4.442,2.577c0.16199,0.197,0.327,0.384,0.438,0.601l-0.011,0.004
	C80.014,71.113,81.492,71,82,71z"/>
<path fill="#202020" d="M100,70c-0.738,0-1.44,0.067-2.128,0.164C104.689,71.274,107,78.411,107,84c0,2.646-0.245,4.854-0.69,6.711
	c1.44501,0.573,2.58801,1.451,3.194,2.513C110.46201,90.958,111,87.96,111,84C111,77.925,108.284,70,100,70z"/>
<path fill="#202020" d="M91.417,73.792c-0.569-0.223-0.898-0.314-1.474-0.313c5.599,3.021,4.367,10.791,3.974,12.896
	c-0.403,2.155-1.141,3.519-1.716,4.992C93.323,92,94.162,92.849,94.541,93.788c1.041-1.751,1.774-4.158,2.265-7.401
	C97.292,83.167,96.751,75.875,91.417,73.792z"/>
<path fill="#383737" d="M64,70c0.738,0,1.44,0.067,2.128,0.164C59.311,71.274,57,78.411,57,84c0,2.646,0.245,4.854,0.69,6.711
	c-1.445,0.573-2.588,1.451-3.194,2.513C53.538,90.958,53,87.96,53,84C53,77.925,55.716,70,64,70z"/>
<path fill="#383737" d="M72.583,73.792c0.569-0.223,0.898-0.314,1.474-0.313C68.458,76.5,69.69,84.27,70.083,86.375
	c0.403,2.155,1.141,3.519,1.716,4.992C70.677,92,69.838,92.849,69.459,93.788c-1.041-1.751-1.774-4.158-2.265-7.401
	C66.708,83.167,67.249,75.875,72.583,73.792z"/>
<path fill="#383737" d="M85,85c0,2.761-2.25,5-3,5s-3-2.239-3-5s1.345-5,3-5S85,82.239,85,85z"/>
<path fill="#D24D57" d="M83,75.576c0,1.044-0.957,1.89-2,1.89s-1.889-0.84601-1.889-1.89c0-1.043,0.846-1.88901,1.889-1.88901
	S83,74.533,83,75.576z"/>
<path fill="#D24D57" d="M87,75.576c0,1.044-0.846,1.89-1.889,1.89S83,76.62,83,75.576c0-1.043,1.068-1.88901,2.111-1.88901
	S87,74.533,87,75.576z"/>
<path fill="#272223" d="M100,69c-3.997,0-7.197,1.373-10.751,3.655c0.077-1.213,0.308-2.813,0.938-4.085
	c0.12801-0.258,0.13901-0.558,0.03-0.823c-0.10899-0.266-0.327-0.472-0.599-0.566c-0.28-0.097-0.577-0.146-0.882-0.146
	c-1.883,0-3.728,1.89899-4.721,3.106c-0.009,0.011-0.01801,0.021-0.027,0.032C83.174,70.037,82.18,70,82,70
	c-0.182,0-1.188,0.038-1.992,0.171C79.981,70.137,79.951,70.103,79.923,70.067c-0.93301-1.133-2.77701-3.032-4.66-3.032
	c-0.305,0-0.602,0.049-0.882,0.146c-0.271,0.095-0.489,0.301-0.599,0.566C73.674,68.013,73.68401,68.312,73.812,68.57
	c0.631,1.272,0.861,2.872,0.938,4.085C71.197,70.373,67.997,69,64,69c-8.29,0-12,7.534-12,15c0,3.962,0.515,7.106,1.575,9.613
	c0.148,0.35,0.482,0.586,0.861,0.608c0.389,0.021,0.739-0.172,0.928-0.502C56.293,92.093,58.759,91,61.5,91
	c3.614,0,5.817,1.116,6.552,3.316c0.128,0.384,0.474,0.652,0.877,0.681c0.417,0.034,0.785-0.188,0.966-0.55
	C70.464,93.308,71.673,92,76,92c1.264,0,2.22,0.12,3.244,0.711c0.938,1.748,1.965,2.905,2.00999,2.955
	C81.444,95.879,81.715,96,82,96s0.556-0.121,0.746-0.334c0.045-0.05,1.071-1.207,2.00999-2.955C85.78,92.12,86.736,92,88,92
	c4.327,0,5.536,1.308,6.105,2.447c0.181,0.362,0.547,0.583,0.966,0.55c0.403-0.028,0.749-0.297,0.877-0.681
	C96.683,92.116,98.887,91,102.5,91c2.741,0,5.207,1.093,6.136,2.72c0.188,0.33,0.53799,0.524,0.928,0.502
	c0.38-0.022,0.71301-0.259,0.861-0.608C111.484,91.106,112,87.96201,112,84C112,76.534,108.289,69,100,69z M109.142,91.238
	C107.564,89.842,105.147,89,102.5,89c-4.299,0-6.517,1.452-7.652,3.084C93.44,90.669,91.214,90,88,90
	c-1.315,0-2.86,0.09-4.537,1.156c-0.14899,0.096-0.271,0.229-0.352,0.386c-0.374,0.727-0.776,1.353-1.111,1.826
	c-0.335-0.474-0.737-1.09999-1.111-1.826c-0.081-0.15701-0.202-0.29-0.352-0.386C78.86,90.09,77.315,90,76,90
	c-3.214,0-5.44,0.669-6.848,2.084C68.017,90.452,65.798,89,61.5,89c-2.647,0-5.065,0.842-6.642,2.238C54.288,89.253,54,86.828,54,84
	c0-5.997,2.619-13,10-13c4.08,0,7.197,1.599,11.201,4.36c0.297,0.205,0.67999,0.233,1.002,0.077
	c0.324-0.156,0.539-0.475,0.563-0.834c0.009-0.133,0.17001-2.728-0.525-5.227c0.646,0.385,1.40601,1.073,2.13701,1.961
	c0.00099,0.001,0.06499,0.079,0.06599,0.08c0.107,0.13,0.208,0.251,0.255,0.343L78.71,71.754c0.232,0.44901,0.784,0.65,1.26701,0.47
	C80.245,72.123,81.447,72,82,72s1.754,0.123,2.08,0.247c0.496,0.18,1.044-0.06001,1.254-0.543
	c0.05301-0.082,0.136-0.182,0.222-0.286c0.00101-0.001,0.065-0.078,0.06601-0.07899c0.73-0.88901,1.49-1.577,2.13699-1.96201
	c-0.44299,1.593-0.53799,3.221-0.547,4.229c-0.527-0.563-1.271-0.91901-2.101-0.91901c-0.786,0-1.521,0.31001-2.082,0.793
	C82.49001,72.995,81.776,72.687,81,72.687c-1.59299,0-2.88899,1.29601-2.88899,2.88901c0,1.59399,1.296,2.89,2.88899,2.89
	c0.776,0,1.49001-0.30801,2.03-0.79401c0.561,0.484,1.295,0.79401,2.08101,0.79401C86.704,78.466,88,77.17,88,75.576
	c0-0.025-0.007-0.049-0.008-0.07401c0.274,0.067,0.567,0.022,0.807-0.142C92.803,72.599,95.92,71,100,71c7.381,0,10,7.003,10,13
	C110,86.828,109.71201,89.253,109.142,91.238z M86,75.576c0,0.49-0.39799,0.89-0.889,0.89c-0.54,0-1.111-0.457-1.111-0.89
	c0-0.43201,0.571-0.88901,1.111-0.88901C85.60201,74.688,86,75.086,86,75.576z M82,75.576c0,0.466-0.477,0.89-1,0.89
	c-0.49,0-0.889-0.399-0.889-0.89c0-0.491,0.399-0.888,0.889-0.888C81.523,74.688,82,75.111,82,75.576z"/>
<path fill="#272223" d="M87.245,88.358c-0.222,0-0.44499-0.07401-0.632-0.226c-0.428-0.349-0.491-0.979-0.142-1.40701
	c0.827-1.013,1.28201-2.299,1.28201-3.62099c0-1.05901-0.287-2.09-0.832-2.983c-0.287-0.47301-0.138-1.08801,0.334-1.375
	c0.476-0.286,1.089-0.136,1.375,0.334c0.73399,1.20799,1.123,2.599,1.123,4.02399c0,1.78201-0.61501,3.517-1.733,4.887
	C87.823,88.23199,87.535,88.358,87.245,88.358z"/>
<path fill="#272223" d="M76.225,88.358c-0.338,0-0.667-0.17101-0.855-0.479c-0.734-1.20799-1.123-2.599-1.123-4.02399
	c0-1.78201,0.615-3.517,1.733-4.887c0.348-0.426,0.976-0.491,1.407-0.142c0.428,0.349,0.491,0.979,0.142,1.407
	c-0.827,1.013-1.282,2.299-1.282,3.621c0,1.059,0.287,2.09,0.832,2.983c0.287,0.47299,0.138,1.088-0.334,1.375
	C76.581,88.312,76.401,88.358,76.225,88.358z"/>
<path fill="#E4D58E" d="M174.36296,87.99191L174.36296,87.99191c-3.601-2.078-8.20299-0.846-10.28,2.754
	c0,0-4.34299,7.522-7.08299,9.952c1.002,0.57899,7.521,4.34299,7.521,4.34299l5.515,3.18501c2.741-2.43,7.084-9.952,7.084-9.952
	C179.19696,94.67391,177.96397,90.07191,174.36296,87.99191L174.36296,87.99191"/>
<path fill="#E3DAC1" d="M171.98796,87.11091c-3.05199-0.571-6.265,0.795-7.90399,3.636c0,0-4.343,7.522-7.08301,9.952
	c0.41,0.236,1.74301,1.007,3.173,1.833c2.746-2.579,6.91-9.785,6.91-9.785c1.85201-3.211,2.466-5.197,4.841-5.634
	L171.98796,87.11091z"/>
<path fill="#CABD7F" d="M174.36296,87.99191c-1.81999-1.051-3.896-1.253-5.77199-0.732c0.605,0.167,1.202,0.403,1.77199,0.732
	c3.60101,2.08,4.834,6.682,2.75601,10.281c0,0-3.07201,5.316-5.681,8.453l2.597,1.499c2.741-2.43,7.084-9.952,7.084-9.952
	C179.19696,94.67391,177.96397,90.07191,174.36296,87.99191z"/>
<path fill="#5E3E3A" d="M175.17297,82.81491l5.681-7.50401l2.06299-8.241l8.44-9.952c1.69701-2.431,4.62801-0.466,3.032,1.75
	l-8.44099,9.952l-2.063,8.24l-5.679,7.505"/>
<path fill="#744D48" d="M177.09097,83.73191l-1.588-0.917l5.681-7.50401l2.06299-8.241l8.44-9.952
	c0.883-1.264,2.09401-1.333,2.83301-0.804c-0.29201,0.181-0.57701,0.437-0.83301,0.804l-9.06,10.51l-2.002,8.41901l-5.123,6.768
	L177.09097,83.73191z"/>
<path fill="#E4D58E" d="M175.80096,88.82291l-2.82399-1.633c0,0,1.62999-2.821,1.73999-4.641c1.414,0.816,2.823,1.63,4.23601,2.446
	C177.02397,86.70491,175.80096,88.82291,175.80096,88.82291z"/>
<path fill="#B14139" d="M175.80096,88.82291c0,0,0.582-0.995,1.562-2.169c-1.07799-0.622-2.15399-1.244-3.23299-1.866
	c-0.50601,1.283-1.15201,2.402-1.15201,2.402L175.80096,88.82291z"/>
<path fill="#272223" d="M195.61897,56.51591c-0.38501-0.843-1.21001-1.419-2.15401-1.505c-1.10899-0.097-2.17599,0.458-2.87,1.461
	l-8.44,9.952c-0.09999,0.117-0.17,0.255-0.207,0.404l-2.015,8.043l-5.06999,6.698c-0.209-0.031-0.42601-0.002-0.619,0.101
	c-0.30501,0.164-0.504,0.475-0.524,0.82c-0.065,1.07301-0.834,2.741-1.336,3.69901c-0.584-0.125-1.177-0.206-1.776-0.206
	c-3.041,0-5.87199,1.634-7.39,4.264c-0.043,0.074-4.293,7.407-6.88101,9.703c-0.23999,0.213-0.364,0.529-0.33199,0.849
	c0.03299,0.32,0.217,0.604,0.495,0.766l13.035,7.527c0.155,0.09,0.32799,0.134,0.5,0.134c0.23799,0,0.476-0.086,0.66299-0.252
	c2.83-2.508,7.106-9.888,7.287-10.2c1.881-3.258,1.354-7.252-1.01801-9.924c0.451-0.684,1.39101-1.991,2.64799-3.104
	c0.24001-0.214,0.364-0.529,0.332-0.85c-0.02299-0.229-0.127-0.438-0.284-0.598l5.02-6.634c0.08099-0.107,0.14-0.23,0.172-0.36
	l2.006-8.015l8.34001-9.836C195.88496,58.50291,196.03697,57.43291,195.61897,56.51591z M176.25296,97.77391
	c-0.03999,0.069-3.76999,6.508-6.37,9.21l-1.401-0.809c0.47301-0.583,0.97301-1.241,1.50101-1.986
	c0.00299-0.00401,0.062-0.08801,0.06299-0.092l0.063-0.09c0.304-0.44,0.207-1.042-0.22099-1.36501
	c-0.42801-0.322-1.03401-0.252-1.373,0.161l-1.896,2.296l-1.35901-0.786c0.474-0.585,0.97-1.238,1.483-1.965l0.131-0.183
	c0.317-0.438,0.229-1.047-0.19699-1.378c-0.429-0.331-1.039-0.263-1.38301,0.154l-1.89699,2.29601l-1.36-0.786
	c0.47899-0.592,0.98799-1.264,1.541-2.044l0.10399-0.152c0.28401-0.446,0.17401-1.036-0.254-1.348
	c-0.429-0.312-1.024-0.234-1.36,0.172l-1.89499,2.296l-1.54901-0.895c2.744-3.052,6.166-8.955,6.32701-9.234
	c1.161-2.013,3.32899-3.264,5.657-3.264c1.136,0,2.25999,0.30199,3.25099,0.873l0.01401,0.008
	C176.98196,90.66591,178.04997,94.66091,176.25296,97.77391z M175.47597,87.48091l-0.606-0.35101
	c-0.002-0.001-0.004-0.003-0.006-0.004c-0.002-0.00101-0.00301-0.002-0.005-0.002l-0.543-0.314
	c0.351-0.693,0.81201-1.696,1.108-2.697l1.88499,1.089C176.50996,86.04691,175.88397,86.88591,175.47597,87.48091z
	 M193.62697,58.22191l-8.44099,9.952c-0.10001,0.116-0.17,0.255-0.207,0.403l-2.01401,8.043l-5.022,6.638l-1.28799-0.744l4.996-6.6
	c0.082-0.107,0.14099-0.23,0.173-0.36l2.00699-8.015l8.34801-9.848c0.33-0.472,0.733-0.718,1.105-0.689
	c0.231,0.021,0.429,0.153,0.517,0.344C193.91296,57.59491,193.83496,57.92791,193.62697,58.22191z"/>
<path fill="#3887A8" d="M176.27296,59.04391c0.355-0.658,0.94901-0.658,1.30701,0c0.36,0.658,1.194,1.491,1.853,1.852
	c0.657,0.36,0.657,0.95,0,1.31c-0.658,0.361-1.492,1.193-1.853,1.853c-0.35701,0.65701-0.951,0.65701-1.30701,0
	c-0.36299-0.66-1.19499-1.492-1.854-1.853c-0.65799-0.359-0.65799-0.949,0-1.31
	C175.07697,60.53491,175.90897,59.70191,176.27296,59.04391z"/>
<path fill="#3887A8" d="M169.65697,63.88091c0.23801-0.441,0.631-0.441,0.869,0c0.245,0.438,0.797,0.993,1.237,1.234
	c0.438,0.24001,0.438,0.633,0,0.873c-0.44,0.23901-0.992,0.795-1.237,1.235c-0.23801,0.437-0.631,0.437-0.869,0
	c-0.241-0.439-0.797-0.996-1.23599-1.235c-0.438-0.24-0.438-0.633,0-0.873
	C168.86096,64.87391,169.41597,64.31791,169.65697,63.88091z"/>
<path fill="#3887A8" d="M174.32097,67.87891c0.23801-0.438,0.63499-0.438,0.871,0c0.244,0.438,0.797,0.995,1.23399,1.234
	c0.44101,0.242,0.44101,0.635,0,0.874c-0.438,0.238-0.98999,0.794-1.23399,1.232c-0.23601,0.439-0.633,0.439-0.871,0
	c-0.242-0.438-0.797-0.994-1.233-1.232c-0.44-0.239-0.44-0.632,0-0.874C173.52496,68.87391,174.07896,68.31691,174.32097,67.87891z"
	/>
<path fill="#3887A8" d="M186.91296,90.04491c-0.35699-0.657-0.94901-0.657-1.30699,0c-0.36101,0.65701-1.19501,1.492-1.854,1.85201
	c-0.658,0.358-0.658,0.949,0,1.308c0.658,0.36,1.492,1.194,1.854,1.854c0.35699,0.65701,0.94899,0.65701,1.30699,0
	c0.36101-0.66,1.19501-1.494,1.854-1.854c0.657-0.358,0.657-0.94901,0-1.308
	C188.10896,91.53691,187.27496,90.70191,186.91296,90.04491z"/>
<path fill="#3887A8" d="M190.02696,97.22191c-0.24199-0.441-0.636-0.441-0.87199,0c-0.244,0.438-0.797,0.993-1.23401,1.234
	c-0.44099,0.239-0.44099,0.633,0,0.873c0.438,0.237,0.99001,0.794,1.23401,1.233c0.23599,0.438,0.63,0.438,0.87199,0
	c0.24101-0.439,0.79601-0.99599,1.233-1.233c0.438-0.24,0.438-0.634,0-0.873
	C190.82196,98.21491,190.26796,97.65891,190.02696,97.22191z"/>
<path fill="#3887A8" d="M184.35997,98.88191c-0.23801-0.44-0.631-0.44-0.868,0c-0.242,0.438-0.798,0.994-1.237,1.23199
	c-0.438,0.241-0.438,0.635,0,0.874c0.439,0.238,0.995,0.79601,1.237,1.233c0.237,0.438,0.62999,0.438,0.868,0
	c0.245-0.438,0.8-0.995,1.237-1.233c0.438-0.239,0.438-0.633,0-0.874C185.15897,99.87591,184.60497,99.31991,184.35997,98.88191z"/>
<path fill="#FFFFFF" d="M272.19592,71.99986H257.7489h-0.75v3.998v2.398c0,0.575,0.30801,1.075,0.76602,1.356l0.03699,19.248
	h14.39499v-17.624c0.478-0.276,0.802-0.788,0.802-1.382v-4.798v-3.196H272.19592z"/>
<path fill="#EBEDE8" d="M256.9989,80.42786v1.969c0,0.882,0.71701,1.598,1.604,1.598c0.88,0,1.59799-0.716,1.59799-1.598v-1.598
	c0-0.146,0.026-0.286,0.06302-0.42101c-0.45102,0.37901-1.02499,0.616-1.66,0.616
	C257.9949,80.99386,257.44193,80.77586,256.9989,80.42786z"/>
<path fill="#EBEDE8" d="M272.19592,85.37585v13.624h-6v-17.153c-0.293,0.334-0.71802,0.55-1.19702,0.55
	c-0.88199,0-1.59799-0.716-1.59799-1.598c0-0.887-0.716-1.603-1.604-1.603c-0.298,0-0.57199,0.087-0.81198,0.229
	c0.138-0.316,0.215-0.664,0.215-1.029v-1.598c0-0.332,0.26797-0.603,0.59698-0.603c0.33301,0,0.604,0.271,0.604,0.603
	c0,1.433,1.16501,2.598,2.59799,2.598c0.43402,0,0.83701-0.117,1.19702-0.306v-7.09h6v10.462V85.37585z"/>
<path fill="#BBAA6F" d="M247.66591,101.66685L247.66591,101.66685c0,1.472,1.194,4.333,2.66701,4.333h29.332
	c1.47299,0,2.66599-2.861,2.66599-4.333l0,0l0.66702-2.667h-35.99802L247.66591,101.66685z"/>
<path fill="#CFBE83" d="M257.66592,101.66685l-0.66602-2.667h-2l0.666,2.667c0,1.472,1.19402,4.333,2.66701,4.333h2
	C258.85992,105.99986,257.66592,103.13885,257.66592,101.66685z"/>
<path fill="#CFBE83" d="M253.66591,101.66685l-0.666-2.667h-6l0.666,2.667c0,1.472,1.194,4.333,2.66701,4.333h6
	C254.85991,105.99986,253.66591,103.13885,253.66591,101.66685z"/>
<path fill="#BBAA6F" d="M284.99991,87.99786c-3.866,0.001-7,3.135-7.00101,7.001c0.00101,1.07401,0.242,2.092,0.67502,3.002
	l4.133,3.648c0.689,0.227,1.427,0.35,2.19299,0.351c3.866-0.001,7-3.13499,7.00101-7.001
	C291.99991,91.13286,288.86591,87.99886,284.99991,87.99786z M284.99991,97.99886c-1.65399,0-3-1.346-3-3s1.34601-3,3-3s3,1.346,3,3
	S286.6539,97.99886,284.99991,97.99886z"/>
<path fill="#CFBE83" d="M285.80692,101.64886l-4.133-3.648c-0.43301-0.91-0.67401-1.928-0.67502-3.002
	c0.00101-3.351,2.35602-6.147,5.50101-6.836c-0.483-0.105-0.98401-0.165-1.5-0.165c-3.866,0.001-7,3.135-7.00101,7.001
	c0.00101,1.07401,0.242,2.092,0.67502,3.002l4.133,3.648c0.689,0.227,1.427,0.35,2.19299,0.351c0.52701,0,1.039-0.063,1.53201-0.174
	C286.2879,101.77286,286.04092,101.72686,285.80692,101.64886z"/>
<path fill="#A19361" d="M284.99991,87.99786c-0.69501,0-1.366,0.105-2,0.294c2.89099,0.861,5,3.536,5.00101,6.707
	c-0.00101,3.164-2.10101,5.835-4.98199,6.702c0.63,0.186,1.29099,0.298,1.98099,0.299c3.866-0.001,7-3.13499,7.00101-7.001
	C291.99991,91.13286,288.86591,87.99886,284.99991,87.99786z"/>
<path fill="#A19361" d="M274.99792,98.99986l-0.66702,2.667c0,1.472-1.19299,4.333-2.66599,4.333h8
	c1.47299,0,2.66599-2.861,2.66599-4.333l0.66702-2.667H274.99792z"/>
<path fill="#F3AA6F" d="M259.8739,71.66785c-2.56299-3.418-1.349-6.338,0-7.69c1.70602-1.706,3.41901-3.415,5.125-5.978
	c1.70602,1.709,2.56302,2.563,4.26901,5.125c1.71301,2.563,2.54401,6,0.14999,8.543H259.8739z"/>
<path fill="#EE8B65" d="M269.26791,63.12486c-1.70599-2.562-2.56299-3.416-4.26901-5.125c-0.586,0.881-1.17398,1.656-1.76099,2.369
	c0.60599,0.719,1.22299,1.544,2.02899,2.756c1.71301,2.563,2.54401,6,0.14999,8.543h4
	C271.81192,69.12486,270.97992,65.68786,269.26791,63.12486z"/>
<path fill="#F8C885" d="M263.71793,71.66785c-1.71301-1.71-2.38501-3.387-1.125-4.824c0.59097-0.675,1.40598-1.469,2.40598-2.866
	c0,0,0.99002,0.796,1.70602,2.563c0.79398,1.959,0.04398,4.928-1.70602,5.459L263.71793,71.66785z"/>
<path fill="#F2A779" d="M266.70493,66.54086c-0.716-1.767-1.70602-2.563-1.70602-2.563c-0.35098,0.489-0.66898,0.885-0.97198,1.248
	c0.229,0.358,0.465,0.789,0.67801,1.315c0.681,1.68,0.224,4.098-1.022,5.089c0.013,0.013,0.022,0.02499,0.035,0.03799l1.28098,0.332
	C266.7489,71.46886,267.4989,68.49986,266.70493,66.54086z"/>
<path fill="#272223" d="M284.99991,97.99886c-1.65399,0-3-1.346-3-3s1.34601-3,3-3s3,1.346,3,3
	S286.6539,97.99886,284.99991,97.99886z M284.99991,93.99886c-0.552,0-1,0.44801-1,1c0,0.552,0.448,1,1,1s1-0.448,1-1
	C285.99991,94.44686,285.55191,93.99886,284.99991,93.99886z"/>
<path fill="#272223" d="M284.99991,86.99786c-4.41101,0.001-8,3.59-8.00101,8.002c0.00101,1.044,0.20901,2.048,0.59601,3h-4.39801
	v-16.134c0.492-0.473,0.802-1.13599,0.802-1.87199v-7.994c0-0.553-0.44699-1-1-1h-1.89301
	c1.32101-2.394,1.00101-5.427-1.00699-8.429c-1.75-2.629-2.67801-3.559-4.39301-5.277c-0.211-0.212-0.49899-0.318-0.80701-0.289
	c-0.29797,0.029-0.56699,0.191-0.73297,0.441c-1.64502,2.47-3.26501,4.09-5.00101,5.826
	c-1.59601,1.599-2.63901,4.48199-0.89902,7.728h-1.267c-0.55298,0-0.99998,0.447-0.99998,1v6.396
	c0,0.73399,0.30998,1.396,0.80299,1.868v17.736h-9.802c-0.308,0-0.599,0.142-0.78799,0.385
	c-0.18901,0.242-0.257,0.559-0.18201,0.85699l0.63901,2.558c0.065,1.862,1.47899,5.2,3.66499,5.2h29.33202
	c1.84198,0,3.13098-2.369,3.53098-4.23c0.591,0.137,1.19,0.229,1.80402,0.23c4.41098-0.001,8-3.59,8.00101-8.001
	C292.99991,90.58786,289.41092,86.99886,284.99991,86.99786z M260.6019,64.66486c1.48203-1.483,3.009-3.009,4.53302-5.109
	c1.15399,1.178,1.953,2.099,3.302,4.125c0.694,1.039,2.76401,4.635,0.25299,7.302c-0.005,0.005-0.00601,0.013-0.01099,0.018
	h-1.27103c0.01001-0.021,0.02402-0.037,0.03403-0.059c0.69897-1.463,0.77298-3.337,0.18997-4.776
	c-0.79099-1.951-1.88397-2.868-2.00598-2.966c-0.215-0.172-0.491-0.25-0.763-0.211c-0.272,0.037-0.51801,0.185-0.67801,0.409
	c-0.72699,1.016-1.36099,1.708-1.871,2.265c-0.17099,0.186-0.32898,0.359-0.474,0.524c-0.73801,0.842-1.56299,2.491,0.01901,4.81499
	h-1.23199C258.06891,67.51885,260.13791,65.12986,260.6019,64.66486z M264.45691,70.99986c-0.01199-0.013-0.021-0.027-0.03299-0.04
	c-2.19101-2.188-1.383-3.11-1.07901-3.457c0.13599-0.155,0.284-0.316,0.44299-0.491c0.36401-0.397,0.78702-0.859,1.26501-1.452
	c0.23499,0.34,0.496,0.79,0.72598,1.356c0.37003,0.914,0.31201,2.214-0.142,3.163c-0.224,0.46999-0.51999,0.786-0.83798,0.921
	C264.79892,70.99986,264.45691,70.99986,264.45691,70.99986z M257.9989,72.99986h14v6.994c0,0.333-0.271,0.604-0.604,0.604
	c-0.32898,0-0.59799-0.271-0.59799-0.604v-3.996c0-1.433-1.16501-2.598-2.59698-2.598c-1.436,0-2.604,1.165-2.604,2.598v0.801
	c0,0.32899-0.26901,0.598-0.59799,0.598c-0.32901,0-0.59802-0.269-0.59802-0.598c0-1.43501-1.168-2.603-2.604-2.603
	c-1.43198,0-2.59698,1.168-2.59698,2.603v1.598c0,0.32899-0.26901,0.598-0.59799,0.598c-0.33301,0-0.604-0.269-0.604-0.598v-5.397
	H257.9989z M258.80191,80.97485c1.33899-0.104,2.39899-1.213,2.39899-2.578v-1.598c0-0.332,0.26801-0.603,0.59702-0.603
	c0.33301,0,0.604,0.271,0.604,0.603c0,1.433,1.16501,2.598,2.59799,2.598c1.43301,0,2.59799-1.165,2.59799-2.598v-0.801
	c0-0.329,0.271-0.598,0.604-0.598c0.32901,0,0.59702,0.269,0.59702,0.598v3.996c0,1.367,1.061,2.479,2.39899,2.583v15.423h-12.396
	V80.97485z M281.3609,101.42486c-0.021,0.07899-0.03,0.16-0.03,0.242c0,1.341-1.09299,3.333-1.66599,3.333h-29.332
	c-0.57401,0-1.66701-1.992-1.66701-3.333c0-0.082-0.00999-0.16299-0.03-0.242l-0.356-1.425h33.43701L281.3609,101.42486z
	 M285.00092,100.99986c-0.48502-0.001-0.95999-0.076-1.42502-0.189l0.392-1.568c0.07501-0.298,0.00803-0.61501-0.18198-0.857
	c-0.189-0.244-0.48001-0.386-0.78799-0.386h-3.21802l-0.203-0.429c-0.383-0.804-0.577-1.671-0.578-2.572
	c0.00101-3.308,2.69302-6,6.00101-6.001c3.30801,0.001,6,2.693,6.00101,6.001
	C290.99991,98.30685,288.30792,100.99886,285.00092,100.99986z"/>
<path fill="#FFFFFF" d="M353.95618,102.536l-0.14099,0.145l-0.80701,0.821c-1.896,1.896-6.63599,1.896-7.58398,0.948
	c-0.94702-0.948,0-1.914,0-1.914c1.896-1.878,2.84399-3.682,2.84399-6.144v-7.584V74.59c0-9.16299,7.42801-16.59,16.58899-16.59l0,0
	c9.16299,0,16.59,7.428,16.59,16.59v14.219c0,0,0,6.16199,0,9.006c0,1.896-0.94699,3.792-2.84399,5.688
	c-1.896,1.896-6.63699,1.896-7.58398,0.948c-0.94702-0.948,0-1.914,0-1.914c-1.767,1.505-3.142,2.766-5.517,2.766
	c-2.64603,0-4.207-1.33-3.43701-2.337c-0.81299,1.16-3.62601,2.337-5.62601,2.337
	C354.25418,105.302,352.82419,104.197,353.95618,102.536z"/>
<path fill="#E0E0E0" d="M364.85818,58c-0.67801,0-1.34299,0.053-2,0.132c8.21799,0.99,14.59,7.974,14.59,16.458v14.219
	c0,0,0,6.16199,0,9.006c0,1.896-0.94699,3.792-2.84399,5.688c-0.67401,0.674-1.707,1.104-2.80099,1.342
	c1.69598,0.497,5.22598,0.233,6.80099-1.342c1.896-1.896,2.84399-3.791,2.84399-5.688c0-2.844,0-9.006,0-9.006V74.59
	C381.44818,65.427,374.02219,58,364.85818,58z"/>
<ellipse fill="#414B5D" cx="367.50418" cy="86.708" rx="3.5" ry="5"/>
<ellipse fill="#414B5D" cx="362.9632" cy="73.167" rx="2.37" ry="4.74"/>
<ellipse fill="#414B5D" cx="371.49417" cy="73.167" rx="2.37" ry="4.74"/>
<path fill="#242A38" d="M362.96219,68.428c-0.358,0-0.694,0.171-0.99899,0.45599c0.80798,0.755,1.37,2.383,1.37,4.283
	s-0.56302,3.528-1.37,4.284c0.30499,0.285,0.64099,0.456,0.99899,0.456c1.311,0,2.371-2.122,2.371-4.74
	C365.33319,70.549,364.27319,68.428,362.96219,68.428z"/>
<path fill="#242A38" d="M371.49518,68.428c-0.35901,0-0.69598,0.171-1.00101,0.45599c0.80801,0.756,1.37003,2.383,1.37003,4.283
	s-0.56302,3.528-1.37003,4.284c0.30502,0.285,0.642,0.456,1.00101,0.456c1.30902,0,2.36902-2.122,2.36902-4.74
	C373.8642,70.549,372.80417,68.428,371.49518,68.428z"/>
<path fill="#242A38" d="M367.50418,81.708c-0.539,0-1.04401,0.188-1.5,0.5c1.17902,0.804,2,2.509,2,4.5c0,1.991-0.82098,3.696-2,4.5
	c0.45599,0.312,0.961,0.5,1.5,0.5c1.93301,0,3.5-2.238,3.5-5S369.43719,81.708,367.50418,81.708z"/>
<path fill="#272223" d="M364.85818,57c-9.69901,0-17.58899,7.891-17.58899,17.59v21.803c0,2.067-0.73801,3.641-2.55801,5.443
	c-0.66,0.672-1.202,2.111,0.00699,3.321c0.77103,0.771,2.31702,0.915,3.36301,0.915c0.36502,0,0.66901-0.01801,0.858-0.03201
	c1.59201-0.123,3-0.563,4.02499-1.235c0.08502,0.119,0.17001,0.237,0.285,0.353c0.771,0.771,2.31799,0.915,3.36301,0.915
	c0.36499,0,0.67001-0.01801,0.858-0.03201c1.59201-0.123,3.00101-0.563,4.02499-1.235c0.08499,0.118,0.17099,0.237,0.28601,0.353
	c0.76999,0.771,2.31699,0.915,3.362,0.915c0.36499,0,0.66898-0.01801,0.85699-0.03201c1.59198-0.123,3.00101-0.563,4.026-1.235
	c0.08499,0.118,0.16998,0.237,0.285,0.353c1.03799,1.04,3.48999,0.938,4.22,0.883c2.02899-0.156,3.771-0.823,4.77798-1.831
	c2.08099-2.07999,3.13699-4.231,3.13699-6.395V74.59C382.44818,64.891,374.5582,57,364.85818,57z M380.44818,97.814
	c0,1.613-0.858,3.289-2.55099,4.98c-1.582,1.582-5.586,1.429-6.17001,0.948c-0.09998-0.1-0.23499-0.236,0.01801-0.519
	c0.05002-0.052,0.07401-0.11501,0.11002-0.175c0.03098-0.05099,0.07498-0.097,0.09698-0.152c0.02701-0.071,0.03-0.146,0.04102-0.222
	c0.00699-0.05199,0.02698-0.101,0.026-0.153c-0.00101-0.083-0.02802-0.16299-0.05002-0.244
	c-0.01199-0.043-0.00998-0.08801-0.02698-0.12901c-0.05002-0.119-0.12402-0.23-0.22202-0.327
	c-0.39401-0.388-1.02899-0.38-1.414,0.014l-0.94,0.959c-1.58398,1.583-5.58701,1.42599-6.16998,0.948
	c-0.10001-0.1-0.23602-0.236,0.01797-0.518c0.06003-0.063,0.09201-0.137,0.13202-0.209c0.022-0.04,0.05798-0.07401,0.07401-0.117
	c0.03098-0.07899,0.03598-0.16299,0.04599-0.24599c0.005-0.044,0.02301-0.086,0.022-0.12901
	c-0.00101-0.086-0.02802-0.168-0.05099-0.251c-0.01102-0.041-0.01001-0.084-0.02502-0.123
	c-0.04999-0.119-0.12399-0.231-0.22198-0.327c-0.396-0.388-1.02802-0.383-1.414,0.012l-0.94299,0.96
	c-1.58301,1.584-5.58701,1.429-6.17001,0.948c-0.10001-0.1-0.23499-0.236,0.01801-0.518c0.056-0.059,0.086-0.131,0.125-0.19801
	c0.02499-0.044,0.06299-0.083,0.082-0.129c0.02802-0.07301,0.03101-0.15,0.04199-0.228c0.00702-0.05,0.026-0.098,0.02499-0.14799
	c-0.00098-0.082-0.02798-0.162-0.04999-0.242c-0.01099-0.043-0.01001-0.089-0.02701-0.131
	c-0.04999-0.119-0.12399-0.23-0.22198-0.327c-0.39502-0.388-1.02802-0.38-1.414,0.014l-0.94,0.959
	c-1.58301,1.583-5.586,1.428-6.16901,0.94801c-0.10001-0.1-0.237-0.236-0.004-0.496c2.20099-2.181,3.14099-4.23,3.14099-6.854V74.59
	c0-8.597,6.99402-15.59,15.58902-15.59c8.59698,0,15.59,6.994,15.59,15.59v23.224H380.44818z"/>
<path fill="#272223" d="M362.96219,78.907c-1.92099,0-3.36902-2.468-3.36902-5.74c0-3.271,1.44803-5.739,3.36902-5.739
	c1.922,0,3.371,2.46799,3.371,5.739C366.33319,76.439,364.88419,78.907,362.96219,78.907z M362.96219,69.428
	c-0.47,0-1.36902,1.45599-1.36902,3.739c0,2.283,0.89902,3.74,1.36902,3.74c0.47101,0,1.371-1.457,1.371-3.74
	S363.4332,69.428,362.96219,69.428z"/>
<path fill="#272223" d="M371.49518,78.907c-1.922,0-3.371-2.468-3.371-5.74c0-3.271,1.44901-5.739,3.371-5.739
	c1.92102,0,3.36902,2.46799,3.36902,5.739C374.8642,76.439,373.41617,78.907,371.49518,78.907z M371.49518,69.428
	c-0.47101,0-1.371,1.45599-1.371,3.739c0,2.283,0.90002,3.74,1.371,3.74c0.47,0,1.36902-1.457,1.36902-3.74
	S371.96518,69.428,371.49518,69.428z"/>
<path fill="#272223" d="M367.50418,92.708c-2.52301,0-4.5-2.636-4.5-6s1.97699-6,4.5-6s4.5,2.636,4.5,6
	S370.02719,92.708,367.50418,92.708z M367.50418,82.708c-1.35501,0-2.5,1.832-2.5,4s1.14499,4,2.5,4s2.5-1.832,2.5-4
	S368.85919,82.708,367.50418,82.708z"/>
<path fill="#357A00" d="M482.10425,98.3375c0.07599-0.084,0.14801-0.17101,0.211-0.27c0.59-0.934,0.31201-2.169-0.62201-2.759
	c-0.16898-0.106-0.349-0.175-0.53098-0.22701c0.23599-0.763-0.04901-1.618-0.75601-2.06499
	c-0.46799-0.29601-1.017-0.343-1.50699-0.19c-0.07202-0.508-0.35101-0.983-0.81802-1.279
	c-0.47098-0.298-1.02399-0.34299-1.517-0.187c-0.11099-0.432-0.37598-0.82401-0.78198-1.081
	c-0.84702-0.534-1.966-0.28201-2.50101,0.564c-0.108,0.17101-0.17599,0.354-0.22101,0.541
	c-0.55499,0.04-1.08398,0.328-1.40399,0.834c-0.332,0.525-0.35901,1.155-0.13101,1.687c-0.17999,0.422-0.186,0.883-0.04099,1.298
	c-0.27301,0.765-0.004,1.638,0.69299,2.106c-0.203,0.137-0.383,0.314-0.521,0.534c-0.39401,0.622-0.35699,1.392,0.02399,1.969
	c-0.00699,0.011-0.01801,0.02-0.02399,0.031c-0.534,0.846-0.28201,1.966,0.564,2.5c0.27301,0.173,0.57599,0.256,0.879,0.271
	c-0.259,0.772,0.026,1.65,0.746,2.104c0.72,0.455,1.634,0.336,2.22101-0.229c0.12201,0.479,0.41599,0.915,0.866,1.2
	c0.93399,0.59,2.16901,0.312,2.759-0.622c0.01898-0.029,0.02798-0.061,0.04599-0.091c0.74899,0.1,1.52301-0.228,1.95401-0.909
	c0.43799-0.692,0.396-1.55-0.03601-2.188c0.41299-0.14301,0.785-0.413,1.03601-0.812
	C483.27325,100.1465,483.00824,98.9365,482.10425,98.3375z"/>
<path fill="#2B6925" d="M482.10425,98.3375c0.07599-0.084,0.14801-0.17101,0.211-0.27c0.59-0.934,0.31201-2.169-0.62201-2.759
	c-0.16898-0.106-0.349-0.175-0.53098-0.22701c0.23599-0.763-0.04901-1.618-0.75601-2.06499
	c-0.46799-0.29601-1.017-0.343-1.50699-0.19c-0.07202-0.508-0.35101-0.983-0.81802-1.279
	c-0.47098-0.298-1.02399-0.34299-1.517-0.187c-0.11099-0.432-0.37598-0.82401-0.78198-1.081
	c-0.832-0.524-1.92401-0.287-2.46902,0.52299c0.11401,0.173,0.20102,0.36,0.25201,0.558c0.492-0.156,1.04599-0.111,1.517,0.187
	c0.46799,0.296,0.746,0.771,0.81799,1.279c0.49002-0.152,1.039-0.105,1.50702,0.18999c0.707,0.447,0.99197,1.303,0.75598,2.065
	c0.18301,0.05199,0.362,0.12,0.53101,0.227c0.93399,0.59,1.21201,1.825,0.62201,2.759c-0.06302,0.099-0.13501,0.186-0.211,0.27
	c0.90298,0.599,1.16898,1.81001,0.58701,2.73c-0.25101,0.39799-0.62302,0.669-1.03601,0.812
	c0.43201,0.639,0.474,1.496,0.03601,2.188c-0.431,0.682-1.20502,1.009-1.95401,0.909c-0.01801,0.03-0.02701,0.062-0.04599,0.091
	c-0.056,0.088-0.12201,0.165-0.18903,0.241c0.12402,0.14301,0.26202,0.274,0.43002,0.381c0.93399,0.59,2.16898,0.312,2.759-0.622
	c0.01898-0.029,0.02798-0.061,0.04599-0.091c0.74899,0.1,1.52301-0.228,1.95401-0.909c0.43799-0.692,0.396-1.55-0.03601-2.188
	c0.41299-0.143,0.785-0.41299,1.03601-0.812C483.27325,100.1465,483.00824,98.9365,482.10425,98.3375z"/>
<path fill="#357A00" d="M433.89624,98.3375c-0.07599-0.084-0.14798-0.17101-0.211-0.27c-0.59-0.934-0.31198-2.169,0.62201-2.759
	c0.16901-0.106,0.349-0.175,0.53101-0.22701c-0.23599-0.763,0.04898-1.618,0.75598-2.06499
	c0.46802-0.29601,1.017-0.343,1.50702-0.19c0.07199-0.508,0.35098-0.983,0.81799-1.279c0.47101-0.298,1.02399-0.34299,1.517-0.187
	c0.11099-0.432,0.37601-0.82401,0.78201-1.081c0.84698-0.534,1.966-0.28201,2.50098,0.564
	c0.108,0.17101,0.17603,0.354,0.22101,0.541c0.55499,0.04,1.08401,0.328,1.40399,0.834c0.332,0.525,0.35901,1.155,0.13101,1.687
	c0.17999,0.422,0.186,0.883,0.04102,1.298c0.27298,0.765,0.004,1.638-0.69302,2.106c0.203,0.137,0.383,0.314,0.521,0.534
	c0.39401,0.622,0.35703,1.392-0.02399,1.969c0.00699,0.011,0.01801,0.02,0.02399,0.031c0.53403,0.846,0.28201,1.966-0.564,2.5
	c-0.27298,0.173-0.57599,0.256-0.879,0.271c0.259,0.772-0.026,1.65-0.746,2.104c-0.72,0.455-1.634,0.336-2.22098-0.229
	c-0.12201,0.479-0.41602,0.915-0.86603,1.2c-0.93399,0.59-2.16898,0.312-2.75897-0.622c-0.01901-0.029-0.02802-0.061-0.04602-0.091
	c-0.74899,0.1-1.52298-0.228-1.95398-0.909c-0.43802-0.692-0.39603-1.55,0.03598-2.188c-0.41299-0.14301-0.785-0.413-1.03598-0.812
	C432.72726,100.1465,432.99225,98.9365,433.89624,98.3375z"/>
<path fill="#498E14" d="M433.89624,98.3375c-0.07599-0.084-0.14798-0.17101-0.211-0.27c-0.59-0.934-0.31198-2.169,0.62201-2.759
	c0.16901-0.106,0.349-0.175,0.53101-0.22701c-0.23599-0.763,0.04898-1.618,0.75598-2.06499
	c0.46802-0.29601,1.017-0.343,1.50702-0.19c0.07199-0.508,0.35098-0.983,0.81799-1.279c0.47101-0.298,1.02399-0.34299,1.517-0.187
	c0.11099-0.432,0.37601-0.82401,0.78201-1.081c0.832-0.524,1.92398-0.287,2.46899,0.52299
	c-0.11401,0.173-0.20102,0.36-0.25201,0.558c-0.492-0.156-1.04599-0.111-1.517,0.187c-0.46799,0.296-0.746,0.771-0.81799,1.279
	c-0.48999-0.152-1.039-0.105-1.50699,0.18999c-0.707,0.447-0.992,1.303-0.75601,2.065c-0.18301,0.05199-0.362,0.12-0.53101,0.227
	c-0.93399,0.59-1.21201,1.825-0.62198,2.759c0.06299,0.099,0.13498,0.186,0.211,0.27c-0.90302,0.599-1.16901,1.81001-0.58701,2.73
	c0.25101,0.39799,0.62299,0.669,1.03598,0.812c-0.43198,0.639-0.474,1.496-0.03598,2.188c0.431,0.682,1.20499,1.009,1.95398,0.909
	c0.01801,0.03,0.02701,0.062,0.04602,0.091c0.056,0.088,0.12198,0.165,0.189,0.241c-0.12399,0.14301-0.26199,0.274-0.42999,0.381
	c-0.93402,0.59-2.16901,0.312-2.759-0.622c-0.01901-0.029-0.02802-0.061-0.04602-0.091c-0.74899,0.1-1.52298-0.228-1.95398-0.909
	c-0.43802-0.692-0.396-1.55,0.03598-2.188c-0.41299-0.143-0.78497-0.41299-1.03598-0.812
	C432.72726,100.1465,432.99225,98.9365,433.89624,98.3375z"/>
<rect x="437.27124" y="98.1945" fill="#DBD5D7" width="41.459" height="7.773"/>
<path fill="#DBD5D7" d="M441.15726,97.9995v-29.604c0-5.724,4.64099-10.365,10.36398-10.365h12.957
	c5.724,0,10.36401,4.641,10.36401,10.365v29.604"/>
<rect x="437.27124" y="98.1945" fill="#ECEBEA" width="4" height="7.773"/>
<path fill="#ECEBEA" d="M455.52124,58.0305h-4c-5.724,0-10.36398,4.641-10.36398,10.365v29.604h4v-29.604
	C445.15726,62.6715,449.79825,58.0305,455.52124,58.0305z"/>
<rect x="470.72925" y="98.1945" fill="#C1BDBF" width="8" height="7.773"/>
<path fill="#C1BDBF" d="M464.47925,58.0305h-8c5.724,0,10.36401,4.641,10.36401,10.365v29.604h8v-29.604
	C474.84326,62.6715,470.20224,58.0305,464.47925,58.0305z"/>
<path fill="#272223" d="M463.18326,83.6465c-0.55301,0-1-0.447-1-1v-9.069c0-0.553,0.44699-1,1-1h2.591
	c1.97998,0,3.59198,1.611,3.59198,3.592c0,1.981-1.61099,3.591-3.59198,3.591h-1.29501c-0.103,0-0.202-0.016-0.29599-0.045v2.932
	C464.18326,83.1995,463.73526,83.6465,463.18326,83.6465z M464.18326,74.5775v3.228c0.09399-0.029,0.19299-0.045,0.29599-0.045
	h1.29501c0.87799,0,1.59198-0.714,1.59198-1.591c0-0.87801-0.71399-1.592-1.59198-1.592H464.18326z"/>
<path fill="#272223" d="M458.00024,83.6465c-0.55298,0-1-0.447-1-1v-9.069c0-0.553,0.44702-1,1-1c0.55301,0,1,0.447,1,1v9.069
	C459.00024,83.1995,458.55325,83.6465,458.00024,83.6465z"/>
<path fill="#272223" d="M451.19525,79.6105c1.508-0.42599,2.62201-1.799,2.62201-3.44099c0-1.98-1.61002-3.592-3.591-3.592h-2.59201
	c-0.55301,0-1,0.447-1,1v9.069c0,0.553,0.44699,1,1,1s1-0.447,1-1v-2.769l3.47601,3.47601c0.19498,0.195,0.45099,0.293,0.707,0.293
	c0.25598,0,0.51199-0.098,0.707-0.293c0.39099-0.391,0.39099-1.023,0-1.414L451.19525,79.6105z M448.63525,74.5775h1.59201
	c0.87698,0,1.59097,0.714,1.59097,1.592c0,0.87701-0.71399,1.591-1.59097,1.591h-1.29602c-0.103,0-0.103,0-0.29599,0
	C448.63525,77.7605,448.63525,74.5775,448.63525,74.5775z"/>
<path fill="#272223" d="M483.38226,98.1845c0.25-0.578,0.31097-1.218,0.16898-1.845c-0.17499-0.775-0.63898-1.438-1.30899-1.866
	c-0.02301-0.918-0.49701-1.792-1.302-2.30099c-0.40799-0.259-0.875-0.405-1.35699-0.428
	c-0.22601-0.422-0.55701-0.78201-0.96701-1.042c-0.435-0.275-0.936-0.423-1.45099-0.43c-0.21802-0.335-0.50601-0.621-0.85001-0.839
	c-0.147-0.094-0.31201-0.14799-0.47299-0.213v-20.825c0-6.267-5.09799-11.365-11.36401-11.365h-12.957
	c-6.267,0-11.36398,5.099-11.36398,11.365v20.825c-0.16101,0.063-0.32501,0.119-0.474,0.21301
	c-0.34399,0.21799-0.63101,0.504-0.849,0.839c-0.51501,0.007-1.01602,0.154-1.45001,0.43c-0.41101,0.26-0.742,0.62-0.96701,1.042
	c-0.48297,0.022-0.94998,0.169-1.35797,0.428c-0.80502,0.509-1.27802,1.383-1.302,2.301
	c-1.25101,0.80099-1.70901,2.384-1.13901,3.711c-0.73502,0.97-0.836,2.341-0.15601,3.417c0.17001,0.27,0.37799,0.506,0.62,0.70399
	c-0.18399,0.772-0.05899,1.60201,0.38101,2.297c0.50598,0.80199,1.34799,1.307,2.28598,1.383
	c0.21503,0.245,0.474,0.436,0.75101,0.597c0,0,0,0,0-0.001c0.18402,0.23,0.45401,0.388,0.771,0.388h41.45901
	c0.31799,0,0.59-0.158,0.772-0.39c0,0,0,0.001-0.00101,0.002c0.276-0.161,0.535-0.352,0.75-0.596
	c0.93799-0.076,1.77899-0.581,2.28601-1.383c0.43799-0.695,0.564-1.524,0.37997-2.297c0.242-0.198,0.45001-0.435,0.62003-0.703
	C484.21826,100.5245,484.11624,99.1535,483.38226,98.1845z M442.15726,68.3955c0-5.164,4.20099-9.365,9.36398-9.365h5.758
	l0.87201,2.617l-2.15399,2.154c-0.30499,0.304-0.38,0.769-0.18799,1.154l1.29599,2.591c0.17599,0.351,0.52798,0.553,0.896,0.553
	c0.14999,0,0.30301-0.034,0.44601-0.105c0.49399-0.247,0.694-0.848,0.44699-1.342l-0.974-1.947l2.082-2.082
	c0.26801-0.268,0.36099-0.664,0.241-1.023l-0.85699-2.57h5.09198c5.16302,0,9.36401,4.201,9.36401,9.365v22.06699l-2.53101,0.219
	l-2.04498-1.896c-0.181-0.167-0.41602-0.262-0.66202-0.267l-2.896-0.052c-0.54401,0.008-1.008,0.43-1.01801,0.982
	c-0.00998,0.55199,0.43002,1.008,0.98199,1.018l2.51501,0.045l2.08899,1.937c0.186,0.172,0.42902,0.267,0.68002,0.267
	c0.02798,0,0.05798-0.001,0.086-0.00401l2.80099-0.242v4.725h-31.686V68.3955z M436.27124,105.9685
	c0,0.12,0.02902,0.232,0.06802,0.339C436.29626,106.2025,436.27124,106.0895,436.27124,105.9685z M436.27124,98.1945v5.783
	c-0.00198,0-0.005-0.001-0.00699-0.001c-0.04401,0-0.08801,0.003-0.13199,0.009c-0.392,0.049-0.772-0.126-0.97803-0.452
	c-0.211-0.335-0.20398-0.765,0.02002-1.095c0.17398-0.257,0.21799-0.581,0.12-0.876c-0.099-0.295-0.32901-0.527-0.62299-0.62901
	c-0.15402-0.054-0.36902-0.166-0.51703-0.4c-0.29199-0.462-0.16299-1.061,0.29401-1.362c0.24301-0.161,0.40402-0.421,0.44-0.71
	c0.03601-0.28899-0.056-0.58-0.25101-0.796c-0.03799-0.042-0.07599-0.084-0.10599-0.132c-0.29401-0.466-0.155-1.085,0.31-1.379
	c0.06601-0.041,0.15201-0.076,0.271-0.11c0.259-0.07301,0.478-0.248,0.60602-0.485c0.12799-0.236,0.15598-0.516,0.07599-0.772
	c-0.108-0.351,0.02899-0.73,0.33499-0.925c0.19702-0.124,0.44101-0.154,0.67502-0.08c0.28,0.088,0.58398,0.047,0.832-0.11
	c0.24799-0.156,0.414-0.414,0.45599-0.704c0.01999-0.142,0.09399-0.405,0.36301-0.575c0.198-0.126,0.444-0.152,0.67899-0.078
	c0.26401,0.083,0.54599,0.056,0.78702-0.078c0.09299-0.052,0.16599-0.127,0.237-0.203v5.162h-2.88702
	C436.71826,97.1945,436.27124,97.6425,436.27124,98.1945z M477.72925,104.9685h-39.45801V99.1955h39.45901v5.77299H477.72925z
	 M479.66125,106.3075c0.039-0.106,0.06799-0.219,0.06799-0.339C479.72925,106.0895,479.70325,106.2025,479.66125,106.3075z
	 M481.84625,100.5345c-0.147,0.233-0.362,0.346-0.517,0.39899c-0.29401,0.10201-0.52399,0.334-0.62201,0.62901
	c-0.099,0.295-0.05499,0.619,0.12,0.876c0.22302,0.33,0.23001,0.75999,0.01901,1.095c-0.20502,0.327-0.59601,0.504-0.97699,0.452
	c-0.04703-0.006-0.09302,0.002-0.14001,0.002v-5.793c0-0.553-0.44699-1-1-1h-2.88699V92.0325
	c0.07098,0.076,0.14499,0.151,0.237,0.203c0.23999,0.134,0.526,0.161,0.78699,0.078c0.233-0.07401,0.48001-0.047,0.67999,0.078
	c0.26901,0.17,0.34302,0.434,0.362,0.575c0.04102,0.29,0.20801,0.548,0.45602,0.70399c0.24698,0.15701,0.54999,0.19801,0.83099,0.11
	c0.233-0.073,0.47601-0.044,0.67599,0.08c0.306,0.194,0.44299,0.57401,0.33499,0.925c-0.07999,0.257-0.05298,0.536,0.07602,0.772
	c0.12799,0.237,0.34698,0.412,0.60599,0.485c0.11801,0.034,0.20401,0.068,0.26999,0.11c0.22601,0.14301,0.38202,0.364,0.44101,0.625
	s0.01199,0.528-0.13,0.753c-0.03098,0.049-0.069,0.091-0.10699,0.133c-0.19501,0.216-0.28699,0.507-0.25101,0.796
	c0.03601,0.289,0.19601,0.549,0.43903,0.71C482.00925,99.4735,482.13824,100.0715,481.84625,100.5345z"/>
<path fill="#2F3750" d="M67.076,186.67036c-4.838,1.00601-8.03,2.49101-8.03,4.632c0,3.925,10.277,8.198,22.953,8.198
	c12.677,0,22.954-4.27299,22.954-8.198c0-2.155-2.927-3.72099-7.82401-4.72701l-4.199-22.052l-20.768-12.02299l-10.931,18.582
	l12.024-6.55899l-0.00201-0.00301l2.188,4.375L67.076,186.67036z"/>
<path fill="#262C42" d="M97.129,186.57538c4.897,1.006,7.82401,2.571,7.82401,4.72699c0,3.925-10.277,8.198-22.954,8.198
	c-2.076,0-4.087-0.116-6-0.325c9.767-1.06799,16.954-4.591,16.954-7.873c0-0.33499,0,0.198,0-0.802
	C95.953,189.50037,96.953,187.50037,97.129,186.57538z"/>
<path fill="#424A66" d="M67.076,186.67036c0.172-0.60399,8.365-17.774,8.365-17.774l0.949,0.16701l-5.687,20.437
	C70.016,189.28137,66.672,188.09438,67.076,186.67036z"/>
<path fill="#424A66" d="M64.182,192.30437c0.23-1.437,4.438-2.50999,6.584-2.48999l-2.946-2.23001
	c-4.516,0.15901-7.592,1.037-7.972,3.026c-0.269,1.41101,0.81,3.12601,2.891,4.85001c1.597,0.924,3.689,1.763,6.142,2.44099
	C65.683,195.89838,63.935,193.84238,64.182,192.30437z"/>
<polygon fill="#262C42" points="73.25401,164.52138 72.162,162.33737 71.641,161.62537 61.231,171.08237 73.256,164.52338 "/>
<path fill="#262C42" d="M96.127,181.31137l-3.197-16.787l-20.768-12.024l3.279,2.813l12.543,10.78101l3.62,17.547
	C92.725,183.32237,95.207,182.30937,96.127,181.31137z"/>
<path fill="#674172" d="M86.641,191.56337c5.239-0.645,9.333-2.306,10.73-4.086l-1.163-6.521
	c-2.001,1.588-5.631,3.282-10.01099,3.99001"/>
<path fill="#4F3058" d="M92.953,190.50037c3.367-0.823,3.819-1.70399,4.854-3.02299l-1.164-6.521
	c-1.512,1.19901-2.32999,1.60699-5.07899,2.58499l1.10699,5.584L92.953,190.50037L92.953,190.50037z"/>
<path fill="#674172" d="M77.258,191.55037c-5.191-0.653-9.243-2.304-10.632-4.073l2.664-5.50101
	c2.072,1.23801,5.029,2.39,8.441,2.951"/>
<path fill="#785083" d="M69.29,181.97638l-1.54,3.17999c-0.395,0.854-0.646,1.41501-0.674,1.515
	c-0.404,1.424,2.939,2.61101,3.627,2.83l1.68-6.036C71.217,183.00838,70.17,182.50137,69.29,181.97638z"/>
<path fill="#F4D08C" d="M86.953,190.50037c0,1.104-0.896,2-2,2h-6c-1.104,0-2-0.896-2-2v-4c0-1.10399,0.896-2,2-2h6
	c1.104,0,2,0.89601,2,2V190.50037z"/>
<path fill="#FEDA96" d="M78.953,190.50037v-4c0-1.10399,0.896-2,2-2h-2c-1.104,0-2,0.89601-2,2v4c0,1.104,0.896,2,2,2h2
	C79.849,192.50037,78.953,191.60437,78.953,190.50037z"/>
<path fill="#D7AF75" d="M84.953,184.50037h-3c1.104,0,2,0.89601,2,2v4c0,1.104-0.896,2-2,2h3c1.104,0,2-0.896,2-2v-4
	C86.953,185.39638,86.057,184.50037,84.953,184.50037z"/>
<path fill="#272223" d="M97.988,185.74237l-4.076-21.40601c-0.055-0.28499-0.23-0.532-0.481-0.67799l-20.768-12.02299
	c-0.474-0.27501-1.085-0.116-1.363,0.358l-10.93,18.582c-0.228,0.388-0.169,0.879,0.144,1.202s0.802,0.39799,1.197,0.183
	l11.114-6.063l1.506,3.01201l-7.88,16.743c-5.572,1.205-8.404,3.104-8.404,5.649c0,4.89999,11.193,9.198,23.953,9.198
	c12.76,0.00099,23.953-4.297,23.953-9.19701C105.953,188.81837,103.271,186.95137,97.988,185.74237z M67.871,187.33037l1.864-3.961
	c1.871,0.979,4.064,1.75401,6.362,2.25801c-0.084,0.27699-0.144,0.56699-0.144,0.87299v3.845
	C71.928,189.66837,69.147,188.44637,67.871,187.33037z M77.953,190.50037v-4c0-0.55199,0.448-1,1-1h6c0.55199,0,1,0.44801,1,1v4
	c0,0.552-0.44801,1-1,1h-6C78.401,191.50037,77.953,191.05237,77.953,190.50037z M87.817,185.65637
	c2.83-0.612,5.489-1.64799,7.563-2.922l0.855,4.49599c-1.232,1.15401-4.087,2.438-8.282,3.13101v-3.86101
	C87.953,186.20537,87.897,185.92638,87.817,185.65637z M76.336,168.44836l-3.279-6.55899c-0.24799-0.494-0.847-0.694-1.342-0.44701
	c-0.494,0.24701-0.694,0.84801-0.447,1.34201l0.66199,1.323l-8.003,4.36499l8.594-14.61l19.512,11.298l2.943,15.45601
	c-1.79,1.23-4.795,2.60599-8.576,3.27199c-0.43-0.23999-0.92-0.388-1.447-0.388h-6c-0.515,0-0.992,0.14301-1.416,0.37201
	c-3.178-0.56801-5.523-1.565-6.947-2.31801l5.757-12.23199C76.47601,169.04437,76.473,168.72337,76.336,168.44836z
	 M81.999,198.50037c-12.735,0-21.953-4.29999-21.953-7.198c0-1.267,2.098-2.51599,5.683-3.427
	c0.033,0.07401,0.058,0.151,0.11,0.21901c1.583,2.01801,5.733,3.685,10.881,4.39099c0.55,0.61801,1.342,1.015,2.233,1.015h6
	c0.884,0,1.672-0.392,2.221-1.00099c5.198-0.698,9.388-2.37,10.984-4.405c0.055-0.069,0.081-0.149,0.114-0.228
	c3.586,0.91299,5.681,2.16299,5.681,3.43599C103.953,194.20038,94.734,198.50037,81.999,198.50037z"/>
<rect x="79.906" y="187.57037" fill="#272223" width="4.187" height="2"/>
<path fill="#465063" d="M175.5,198c-15.002,0-24.49699-2.61301-24.5-15.25c-0.002-7.75,2.5-9.125,2.5-12.75c-1.104,0-2-0.896-2-2
	l0,0c0-1.104,0.896-2,2-2h22h0.5h22c1.104,0,2,0.896,2,2l0,0c0,1.104-0.896,2-2,2c0,3.625,2.502,5,2.5,12.75
	C200.49701,195.38699,191.002,198,176,198"/>
<path fill="#4F5A6E" d="M158,195.515l-1.757,1.757c-0.97099,0.972-2.543,0.972-3.515,0l0,0
	c-0.97099-0.97101-0.97099-2.54401,0-3.515l1.75801-1.757L158,195.515z"/>
<path fill="#384253" d="M194,195.515l1.757,1.757c0.97099,0.972,2.54399,0.972,3.515,0l0,0c0.972-0.97101,0.972-2.54401,0-3.515
	L197.515,192L194,195.515z"/>
<path fill="#4F5A6E" d="M161,182.75c-0.002-7.75,2.5-9.125,2.5-12.75c-1.104,0-2-0.896-2-2s0.896-2,2-2h-2c-1.104,0-2,0.896-2,2
	s0.896,2,2,2c0,3.625-2.502,5-2.5,12.75c0.00301,12.63699,9.498,15.25,24.5,15.25h0.5c0.25301,0,0.5-0.00299,0.75-0.004
	C170.185,197.907,161.00301,195.174,161,182.75z"/>
<path fill="#4F5A6E" d="M157,182.75c-0.002-7.75,2.5-9.125,2.5-12.75c-1.104,0-2-0.896-2-2s0.896-2,2-2h-6c-1.104,0-2,0.896-2,2
	s0.896,2,2,2c0,3.625-2.502,5-2.5,12.75c0.00301,12.63699,9.498,15.25,24.5,15.25h0.5c0.938,0,1.855-0.00999,2.75-0.032
	C165.347,197.634,157.00301,194.59601,157,182.75z"/>
<path fill="#384253" d="M198,170c1.104,0,2-0.896,2-2s-0.896-2-2-2h-8c1.104,0,2,0.896,2,2s-0.896,2-2,2c0,3.625,2.502,5,2.5,12.75
	c-0.00299,11.548-7.936,14.724-20.75,15.186c1.20801,0.043,2.457,0.064,3.75,0.064h0.5c15.002,0,24.49701-2.61301,24.5-15.25
	C200.502,175,198,173.625,198,170z"/>
<path fill="#5E3E3A" d="M183.687,166l9.899-9.899c0.78101-0.78099,2.048-0.78099,2.82899,0l0,0c0.78,0.78101,0.78,2.047,0,2.828
	L189.34401,166"/>
<path fill="#744D48" d="M196.41501,156.101c-0.78101-0.78099-2.048-0.78099-2.82901,0L183.687,166h3l9.806-9.80499
	C196.465,156.164,196.444,156.13,196.41501,156.101z"/>
<path fill="#EE8B65" d="M178.121,198.36301c-1.172,1.172-3.07001,1.172-4.242,0l0,0c-1.172-1.17201-1.172-3.07001,0-4.242L176,192
	l2.121,2.121C179.293,195.293,179.293,197.19101,178.121,198.36301L178.121,198.36301c-1.172,1.172-3.07001,1.172-4.242,0"/>
<path fill="#EE8B65" d="M172.897,197.019c-0.43001,1.601-2.073,2.55-3.674,2.121l0,0c-1.60201-0.43001-2.55101-2.073-2.121-3.674
	l0.776-2.897l2.89699,0.776C172.377,193.77299,173.326,195.41699,172.897,197.019L172.897,197.019
	c-0.43001,1.601-2.073,2.55-3.674,2.121"/>
<path fill="#EE8B65" d="M167,195.567c-0.002,1.657-1.34399,2.99901-3,3l0,0c-1.658-0.00099-3-1.343-3-3v-3h3
	C165.65601,192.567,167,193.909,167,195.567L167,195.567c-0.002,1.657-1.34399,2.99901-3,3"/>
<path fill="#EE8B65" d="M182.776,199.14c-1.60201,0.429-3.245-0.521-3.674-2.121l0,0c-0.43001-1.60201,0.52-3.245,2.121-3.674
	l2.89699-0.776l0.776,2.897C185.326,197.06601,184.377,198.70999,182.776,199.14L182.776,199.14
	c-1.60201,0.429-3.245-0.521-3.674-2.121"/>
<path fill="#EE8B65" d="M188,198.567c-1.658,0-3-1.343-3-2.99901l0,0c0-1.65799,1.342-3.00099,3-3h3v3
	C190.99901,197.22501,189.657,198.56601,188,198.567L188,198.567c-1.658,0-3-1.343-3-2.99901"/>
<ellipse fill="#F8C885" cx="176.063" cy="197.57401" rx="1.438" ry="1.668"/>
<ellipse transform="matrix(0.70711 -0.70711 0.70711 0.70711 -84.22072 189.78708)" fill="#F8C885" cx="186.98293" cy="196.55695" rx="1.66798" ry="1.43799"/>
<ellipse transform="matrix(0.70711 0.70711 -0.70711 0.70711 187.31462 -59.10242)" fill="#F8C885" cx="165.00024" cy="196.55754" rx="1.66798" ry="1.43799"/>
<ellipse transform="matrix(0.49989 -0.86609 0.86609 0.49989 -80.51508 255.8213)" fill="#F8C885" cx="181.25851" cy="197.62878" rx="1.66802" ry="1.43802"/>
<ellipse transform="matrix(0.49989 0.86609 -0.86609 0.49989 256.36755 -48.7286)" fill="#F8C885" cx="170.37794" cy="197.62476" rx="1.66802" ry="1.43802"/>
<circle fill="#74C008" cx="165" cy="155" r="3"/>
<circle fill="#74C008" cx="165" cy="162" r="1"/>
<circle fill="#74C008" cx="160" cy="160" r="2"/>
<circle fill="#74C008" cx="175" cy="158" r="2"/>
<circle fill="#74C008" cx="178" cy="162" r="1"/>
<path fill="#272223" d="M198.98199,192.054c1.63101-2.313,2.517-5.343,2.51801-9.304c0.00101-4.784-0.92101-7.244-1.661-9.22101
	c-0.366-0.97699-0.672-1.793-0.78799-2.71899C200.188,170.384,201,169.285,201,168c0-1.65399-1.34599-3-3-3h-6.242l5.364-5.364
	c1.16901-1.16901,1.16901-3.073,0-4.242c-1.16899-1.16899-3.07199-1.17101-4.243,0L183.272,165H153.5c-1.65401,0-3,1.34601-3,3
	c0,1.285,0.812,2.384,1.95,2.811c-0.11699,0.92599-0.422,1.742-0.789,2.71899c-0.741,1.976-1.66199,4.436-1.661,9.22
	c0.00101,4.129,0.961,7.248,2.726,9.59601l-0.705,0.70399c-1.35899,1.358-1.35899,3.56999,0,4.929
	c0.658,0.659,1.53401,1.021,2.464,1.021c0.931,0,1.806-0.362,2.464-1.021l1.40999-1.41c0.649,0.27701,1.34201,0.51801,2.056,0.74001
	V197.308c0.65001,1.33,2.00301,2.25801,3.58301,2.25999c0,0,0.00099,0,0.002,0c0,0,0,0,0.00101,0
	c1.01099,0,1.92499-0.39099,2.62999-1.013c0.04601,0.005,0.093,0.01001,0.13901,0.01501c0.537,0.74599,1.293,1.293,2.19299,1.536
	c0.00101,0,0.00101,0,0.002,0c0.229,0.062,0.45801,0.10201,0.68701,0.12099c0.116,0.01102,0.231,0.01601,0.347,0.01601
	c1.116,0,2.172-0.474,2.92-1.271c0.05899,0,0.116,0.00099,0.175,0.00299c-0.028-0.037-0.05801-0.073-0.089-0.108l0,0l0,0
	c0.05899,0.06601,0.104,0.142,0.168,0.205c0.77899,0.78,1.804,1.17,2.828,1.17c1.02399,0,2.049-0.39,2.82799-1.17
	c0.03401-0.034,0.058-0.07599,0.091-0.11099c0.05099-0.002,0.099-0.004,0.14799-0.00601
	c0.74901,0.80801,1.81001,1.289,2.93401,1.289c0.342,0,0.688-0.04399,1.034-0.13699c0.00101,0,0.00301-0.00101,0.00401-0.00101
	c0.94899-0.256,1.713-0.845,2.23199-1.59698c0.009-0.00101,0.017-0.00201,0.024-0.00301c0.713,0.65599,1.661,1.063,2.70399,1.063
	c0,0,0,0,0.00099,0c1.92801-0.00101,3.543-1.37401,3.91701-3.194c-0.054,0.261-0.133,0.51199-0.233,0.75099
	c0.627-0.214,1.231-0.44699,1.80499-0.70599l1.561,1.56099C195.70801,198.638,196.58301,199,197.515,199
	c0.931,0,1.806-0.362,2.464-1.021c0.659-0.659,1.021-1.534,1.021-2.464c0-0.93199-0.362-1.80699-1.021-2.465L198.98199,192.054z
	 M194.293,156.808c0.39-0.38899,1.02299-0.39101,1.41501,0c0.39,0.39,0.39,1.024,0,1.414l-6.778,6.778H186.101L194.293,156.808z
	 M155.535,196.564c-0.561,0.563-1.53801,0.563-2.10001,0c-0.57899-0.57899-0.57899-1.521,0-2.101l0.62401-0.62401
	c0.71799,0.67601,1.528,1.26601,2.416,1.785L155.535,196.564z M160.108,196.457c0.03799,0.16501,0.091,0.32199,0.149,0.479
	C160.198,196.78,160.147,196.621,160.108,196.457z M160,195.567c0,0.231,0.03,0.455,0.06801,0.67599
	C160.028,196.02299,160,195.8,160,195.567z M164,197.567c-1.103-0.00099-2-0.89799-2-2v-2h2c1.103,0,2,0.897,2,1.99901
	C165.99901,196.66901,165.10201,197.56601,164,197.567z M166.711,198.48801L166.711,198.48801
	c0.00101,0.00198,0.00301,0.00299,0.004,0.00499C166.714,198.491,166.71201,198.49001,166.711,198.48801z M171.93201,196.75999
	c-0.285,1.06401-1.382,1.69701-2.44901,1.414h-0.00101c-0.517-0.14-0.94699-0.47-1.21399-0.93199
	c-0.267-0.46301-0.338-1.00101-0.19901-1.51801l0.51801-1.93201L170.519,194.31
	C171.582,194.59601,172.217,195.694,171.93201,196.75999z M177.414,197.65601c-0.77899,0.77899-2.049,0.77899-2.828,0
	c-0.77899-0.77901-0.77899-2.04901,0-2.828l1.414-1.414l1.414,1.414C178.19301,195.60699,178.19301,196.877,177.414,197.65601z
	 M178.995,198.86501L178.995,198.86501C178.996,198.86501,178.996,198.866,178.995,198.86501
	C178.996,198.866,178.996,198.866,178.995,198.86501z M182.51801,198.174c-0.11301,0.03-0.228,0.05-0.341,0.061
	c-0.97,0.076-1.84599-0.519-2.104-1.46201c-0.002-0.004-0.00299-0.00899-0.004-0.013c0-0.00099,0-0.00099,0-0.002
	c-0.13899-0.51599-0.067-1.054,0.19901-1.51599c0.267-0.46301,0.698-0.793,1.215-0.93201l1.93201-0.51801l0.51799,1.93201
	C184.217,196.789,183.582,197.888,182.51801,198.174z M185.28,198.495c0,0,0.00101-0.00099,0.002-0.002l0,0
	C185.28101,198.494,185.28101,198.495,185.28,198.495z M190,195.567c-0.00099,1.103-0.89799,1.99901-2,2c-1.103,0-2-0.896-2-1.99901
	c0-0.53499,0.20801-1.03799,0.58501-1.41499c0.37799-0.377,0.879-0.58501,1.414-0.58501H188h2V195.567z M192,194.85201v-2.283
	c0-0.55301-0.44699-1-1-1h-2.99899c-0.00101,0-0.002,0-0.00301,0c-1.058,0-2.05,0.41-2.802,1.14999l-0.10899-0.409
	c-0.14301-0.534-0.69101-0.851-1.22501-0.707l-2.897,0.776c-0.778,0.20801-1.45999,0.63701-1.978,1.23001
	c-0.056-0.063-0.099-0.13501-0.159-0.19501l-2.121-2.121c-0.39099-0.39099-1.02299-0.39099-1.414,0l-2.121,2.121
	c-0.062,0.062-0.10399,0.134-0.161,0.198c-0.505-0.57899-1.17999-1.021-1.976-1.233l-2.897-0.776
	c-0.532-0.144-1.082,0.173-1.22499,0.707l-0.11,0.41101C166.08,192.009,165.092,191.56799,164,191.56799h-3c-0.552,0-1,0.44701-1,1
	v2.496c-5.12-1.92999-7.99899-5.604-8-12.31299c-0.00099-4.42201,0.814-6.599,1.534-8.51901
	c0.49701-1.327,0.966-2.57899,0.966-4.23199c0-0.55299-0.448-1-1-1c-0.55099,0-1-0.448-1-1s0.44901-1,1-1H198c0.552,0,1,0.448,1,1
	s-0.448,1-1,1c-0.55299,0-1,0.44701-1,1c0,1.653,0.47,2.905,0.966,4.231c0.72,1.92,1.535,4.097,1.534,8.519
	C199.498,189.231,196.799,192.871,192,194.85201z M198.564,196.564c-0.56299,0.563-1.539,0.56201-2.101,0l-1.123-1.123
	c0.87-0.53799,1.651-1.155,2.349-1.853l0.875,0.875c0.28201,0.282,0.436,0.655,0.436,1.052
	C199,195.91,198.84601,196.283,198.564,196.564z"/>
<path fill="#F29400" d="M270,159.05679c-2.397,0-4.64499,0.562-6.59601,1.536c-5.487,0.285-10.04199,2.7-11.713,6.58299
	c-3.49599,3.10101-5.69099,7.494-5.69099,12.38101c0,4.88699,2.19501,9.28,5.69099,12.381c1.67101,3.884,6.22701,6.299,11.713,6.584
	c1.95102,0.97299,4.19901,1.535,6.59601,1.535s4.64499-0.56201,6.59601-1.535c5.48599-0.285,10.04199-2.7,11.71298-6.584
	c3.496-3.101,5.69101-7.494,5.69101-12.381c0-4.88701-2.19501-9.28-5.69101-12.38101
	c-1.67099-3.88399-6.22598-6.299-11.71298-6.58299C274.64499,159.61879,272.397,159.05679,270,159.05679z"/>
<path fill="#F29400" d="M270,159.05679c-2.397,0-4.64499,0.562-6.59601,1.536c-5.487,0.285-10.04199,2.7-11.713,6.58299
	c-3.49599,3.10101-5.69099,7.494-5.69099,12.38101c0,4.88699,2.19501,9.28,5.69099,12.381c1.67101,3.884,6.22701,6.299,11.713,6.584
	c1.95102,0.97299,4.19901,1.535,6.59601,1.535s4.64499-0.56201,6.59601-1.535c5.48599-0.285,10.04199-2.7,11.71298-6.584
	c3.496-3.101,5.69101-7.494,5.69101-12.381c0-4.88701-2.19501-9.28-5.69101-12.38101
	c-1.67099-3.88399-6.22598-6.299-11.71298-6.58299C274.64499,159.61879,272.397,159.05679,270,159.05679z"/>
<path fill="#D67327" d="M288.30899,167.17578c-1.67099-3.88399-6.22598-6.299-11.71298-6.58299
	c-1.95102-0.974-4.19901-1.536-6.59601-1.536c-1.397,0-2.733,0.20999-4,0.56299c0.90601,0.25201,1.78101,0.567,2.59601,0.97301
	c5.487,0.285,10.04199,2.7,11.71298,6.58299c3.496,3.10101,5.69101,7.494,5.69101,12.38101c0,4.88699-2.19501,9.28-5.69101,12.381
	c-1.67099,3.884-6.22699,6.299-11.71298,6.584c-0.81403,0.40599-1.68903,0.72099-2.59601,0.97299
	c1.267,0.35201,2.603,0.56201,4,0.56201c2.397,0,4.64499-0.56201,6.59601-1.535c5.48599-0.285,10.04199-2.7,11.71298-6.584
	c3.496-3.101,5.69101-7.494,5.69101-12.381C294,174.66978,291.80499,170.27679,288.30899,167.17578z"/>
<path fill="#FDAB5A" d="M260.5,188.05679v-17c0-6.252,5.38199-11.382,12.25-11.944c-0.41199-0.034-0.828-0.056-1.25-0.056
	c-7.45499,0-13.5,5.373-13.5,12v17c0,6.627,6.04501,12,13.5,12c0.422,0,0.83801-0.022,1.25-0.056
	C265.88199,199.43979,260.5,194.30879,260.5,188.05679z"/>
<path fill="#ED8723" d="M274.89999,197.06578c2.513-1.136,4.44302-2.88499,5.40802-5.12799
	c0.496-0.44,0.95898-0.91299,1.39899-1.40201c0.19-0.80099,0.293-1.629,0.293-2.47899v-17c0-0.85001-0.103-1.67801-0.29199-2.479
	c-0.44-0.489-0.90302-0.96201-1.39902-1.40201c-0.965-2.243-2.896-3.993-5.41-5.129c2.81702,2.198,4.60101,5.416,4.60101,9.01001v17
	C279.5,191.65079,277.716,194.86778,274.89999,197.06578z"/>
<path fill="#FDAB5A" d="M262.646,198.52179c-5.48599-0.285-10.04199-2.7-11.713-6.584c-3.496-3.101-5.692-7.494-5.692-12.381
	c0-4.88701,2.19501-9.28,5.69101-12.38101c1.67099-3.88399,6.22598-6.299,11.71298-6.58299l0.35501,0.817
	c-3.32098,1.054-5.89899,3.05099-7.067,5.767c-3.496,3.101-5.69099,7.494-5.69099,12.381c0,4.88701,2.19499,9.28,5.69099,12.381
	c1.162,2.70001,3.71901,4.69101,7.01302,5.74901L262.646,198.52179z"/>
<path fill="#008B31" d="M267,159.55679c0-6,4-9,6-7s-2.612,2.16299-1,7"/>
<path fill="#005D22" d="M273,152.55679c-0.68298-0.68201-1.59799-0.77-2.50699-0.36801
	c0.17899,0.09601,0.35098,0.21101,0.50699,0.36801c2,2-2.612,2.16299-1,7h2C270.388,154.71979,275,154.55679,273,152.55679z"/>
<polygon fill="#D36727" points="274,175.05679 279,168.55679 284,175.05679 "/>
<polygon fill="#D36727" points="266,175.05679 261,168.55679 256,175.05679 "/>
<polygon fill="#D36727" points="270,191.55679 265,188.55679 259,190.55679 255,182.55679 261,184.55679 266,182.55679 
	270,184.55679 274,182.55679 279,184.55679 285,182.55679 281,190.55679 275,188.55679 "/>
<polygon fill="#7F3F19" points="279,168.55679 277.5,170.50679 281,175.05679 284,175.05679 "/>
<polygon fill="#7F3F19" points="261,168.55679 259.5,170.50679 263,175.05679 266,175.05679 "/>
<polygon fill="#7F3F19" points="281.39999,183.75679 278.42902,189.69978 281,190.55679 285,182.55679 "/>
<path fill="#272223" d="M289.13501,166.57478c-1.82202-3.961-6.49002-6.612-12.28-6.96899
	c-1.29401-0.62399-2.69501-1.032-4.13202-1.271c-0.25998-1.51201,0.332-2.263,0.918-2.98401
	c0.59802-0.73599,1.599-1.96899,0.06601-3.5c-0.92499-0.92599-2.245-1.159-3.52798-0.627
	c-1.92502,0.797-3.84302,3.368-4.12201,7.358c-1.00601,0.25-1.987,0.57899-2.91101,1.024
	c-5.78998,0.356-10.45799,3.008-12.28099,6.96899C247.08099,170.00578,245,174.6088,245,179.55679s2.08099,9.55099,5.86501,12.98199
	c1.82199,3.961,6.49098,6.612,12.28099,6.97c2.104,1.013,4.46899,1.548,6.854,1.548s4.75-0.535,6.854-1.548
	c5.79001-0.35699,10.45898-3.009,12.28-6.97c3.785-3.431,5.866-8.034,5.866-12.98199
	C295,174.60878,292.91901,170.00578,289.13501,166.57478z M270.944,153.07079c0.54199-0.224,0.995-0.161,1.349,0.19301
	c0.14801,0.14799,0.20001,0.237,0.216,0.243c-0.04501,0.119-0.26102,0.386-0.42099,0.58299
	c-0.62601,0.77101-1.56702,1.97-1.39603,4.033c-0.871-0.036-1.74298-0.02-2.608,0.08101
	C268.41,155.47479,269.68201,153.5938,270.944,153.07079z M287.646,191.18979c-0.10999,0.09799-0.19699,0.218-0.25598,0.353
	c-1.47003,3.418-5.62601,5.71001-10.84601,5.98c-0.138,0.00801-0.271,0.043-0.39502,0.104c-3.75,1.871-8.54898,1.871-12.29898,0
	c-0.12302-0.062-0.25702-0.097-0.39502-0.104c-5.22-0.271-9.37498-2.56299-10.84599-5.98
	c-0.058-0.13499-0.14499-0.255-0.25499-0.353c-3.452-3.063-5.354-7.19501-5.354-11.633c0-4.438,1.90201-8.57001,5.355-11.63301
	c0.11-0.09799,0.19701-0.21799,0.255-0.353c1.47099-3.418,5.62599-5.709,10.84599-5.98c0.138-0.007,0.271-0.04201,0.39502-0.104
	c1.875-0.935,4.00098-1.42999,6.14899-1.42999s4.27399,0.495,6.14899,1.42999c0.12302,0.062,0.25702,0.097,0.39502,0.104
	c5.22,0.271,9.37601,2.563,10.84601,5.98c0.05899,0.13501,0.146,0.255,0.25598,0.353c3.453,3.063,5.354,7.19501,5.354,11.63301
	C293,183.99478,291.099,188.12679,287.646,191.18979z"/>
<path fill="#272223" d="M274,176.05679h10c0.38101,0,0.729-0.21701,0.897-0.55901s0.12799-0.74899-0.104-1.05099l-5-6.5
	c-0.379-0.492-1.207-0.492-1.586,0l-5,6.5c-0.23199,0.302-0.272,0.709-0.104,1.05099S273.61899,176.05679,274,176.05679z
	 M279,170.19679l2.96899,3.86h-5.93799L279,170.19679z"/>
<path fill="#272223" d="M256,176.05679h10c0.38101,0,0.729-0.21701,0.897-0.55901s0.12799-0.74899-0.104-1.05099l-5-6.5
	c-0.379-0.492-1.207-0.492-1.586,0l-5,6.5c-0.23199,0.302-0.272,0.709-0.104,1.05099S255.619,176.05679,256,176.05679z
	 M261,170.19679l2.96899,3.86h-5.93799L261,170.19679z"/>
<path fill="#272223" d="M284.68399,181.60878l-5.65201,1.884l-4.65997-1.864c-0.26401-0.105-0.56302-0.093-0.81802,0.034
	L270,183.43878l-3.55301-1.776c-0.25598-0.127-0.55399-0.14-0.81799-0.034l-4.66,1.864l-5.65199-1.884
	c-0.382-0.12999-0.806-0.01199-1.07201,0.293c-0.265,0.306-0.31999,0.74101-0.13899,1.10301l3.99998,8
	c0.224,0.44499,0.73901,0.661,1.211,0.50099l5.56302-1.854l4.60498,2.76401c0.15903,0.093,0.33701,0.14101,0.51501,0.14101
	s0.35599-0.048,0.51501-0.14301l4.60498-2.76401l5.56299,1.854c0.47202,0.16,0.987-0.056,1.211-0.50099l4-8
	c0.18103-0.36101,0.12601-0.79701-0.13898-1.10301C285.491,181.59679,285.06702,181.47778,284.68399,181.60878z
	 M280.49301,189.33379l-5.177-1.726c-0.27802-0.095-0.58102-0.061-0.83102,0.091L270,190.39079l-4.48499-2.69101
	c-0.15802-0.095-0.33502-0.14299-0.51501-0.14299c-0.10599,0-0.21301,0.017-0.31601,0.05199l-5.177,1.72601l-2.53299-5.065
	l3.70999,1.23599c0.224,0.076,0.46802,0.06801,0.68802-0.01999l4.58298-1.83301l3.599,1.799
	c0.28101,0.14101,0.61301,0.14101,0.89502,0l3.599-1.799l4.58298,1.83301c0.22003,0.088,0.46402,0.09599,0.68802,0.01999
	l3.70999-1.23599L280.49301,189.33379z"/>
<path fill="#FFFFFF" d="M363.72275,153c-12,0-18.72501,8-17.22501,20c-1.401,3.00299,0.22501,8,3.22501,10l4.99799,13.5
	c1.00201,2.5,3.547,3,6.00201,3h3h3c2.45398,0,5-0.5,6.00098-3l4.99902-13.5c3-2,4.62598-6.99701,3.22498-10
	C382.44675,161,375.72275,153,363.72275,153z"/>
<path fill="#E0E0E0" d="M380.94675,173c1.5-12-5.22501-20-17.22501-20c-1.41,0-2.73999,0.12-4,0.334
	c8.336,1.41901,13.271,7.38701,13.422,16.03101c2.25601,0.314,4.569,1.21199,4.578,3.79599
	c0.01599,4.31801-1.89099,7.00801-4.974,7.02l-0.44202,0.00101c-0.034,0-0.07199,0-0.10699,0
	c-0.634,1.14799-1.47699,2.151-2.47699,2.81799l-2.09302,5.653c0,0,2.36801,0.13899,4.11801-0.23601
	c0,0.20801,0.04199,4.29102,0,5.83301c-1.375,0.79199-6.56799,1.02-6.56799,1.02l-0.45599,1.23
	c-0.86502,2.16-2.88501,2.82401-5.00101,2.966c0.332,0.022,0.66699,0.034,1,0.034h3h3c2.45398,0,5-0.5,6.00101-3l5-13.5
	C380.72275,181,382.34872,176.00299,380.94675,173z"/>
<path fill="#333C4C" d="M366.72675,174.203c0.01999,5,2.97998,4.989,6.01801,4.978c3.03799-0.011,3.987-3.254,3.978-6.01599
	c-0.009-2.76201-3.97501-2.98502-7.01202-2.97301C366.67273,170.20399,366.71472,171.442,366.72675,174.203z"/>
<path fill="#242A38" d="M369.71072,170.192c-0.49298,0.002-0.89697,0.03999-1.241,0.10699c2.246,0.226,4.246,0.905,4.25302,2.86501
	c0.00897,2.39-0.70502,5.136-2.86502,5.841c0.88602,0.179,1.88101,0.179,2.888,0.17499c3.03702-0.01199,3.987-3.254,3.978-6.01599
	S372.74774,170.17999,369.71072,170.192z"/>
<path fill="#272223" d="M372.30673,180.18201c-2.452,0-6.556,0-6.57898-5.97501c-0.00803-1.60201-0.013-2.69,0.49597-3.565
	c0.74103-1.27499,2.25101-1.444,3.483-1.44901h0.22501c2.327,0,7.77701,0,7.79102,3.96901c0.01599,4.31799-1.89102,7.008-4.974,7.02
	H372.30673z M369.93173,171.192h-0.21698c-1.50101,0.006-1.69702,0.343-1.76202,0.45399
	c-0.23499,0.405-0.23099,1.35501-0.22598,2.455c0.01498,3.888,1.75,4.08,4.57898,4.08l0.435-0.00101
	c2.78302-0.01099,2.98502-3.83899,2.98102-5.01199C375.71774,171.82001,373.87775,171.192,369.93173,171.192z"/>
<path fill="#333C4C" d="M360.72073,174.203c-0.01999,5-2.98001,4.989-6.01801,4.978s-3.987-3.254-3.978-6.01599
	c0.009-2.76201,3.97501-2.98502,7.01199-2.97301C360.77475,170.20399,360.73273,171.442,360.72073,174.203z"/>
<path fill="#242A38" d="M357.73672,170.192c-0.88199-0.004-1.84,0.015-2.759,0.10699c1.776,0.35001,1.75302,1.591,1.742,3.903
	c-0.013,3.343-1.34399,4.44101-3.13,4.80301c0.33603,0.10899,0.703,0.173,1.112,0.17499
	c3.03702,0.01201,5.99802,0.022,6.01801-4.978C360.73273,171.442,360.77475,170.20399,357.73672,170.192z"/>
<path fill="#272223" d="M355.14172,180.18201l-0.44199-0.00101c-3.08301-0.01199-4.98901-2.701-4.974-7.02
	c0.01401-3.96899,5.46399-3.96899,7.79099-3.96899h0.22501c1.23199,0.00499,2.742,0.174,3.483,1.44899
	c0.509,0.875,0.504,1.964,0.496,3.47C361.69675,180.18201,357.59375,180.18201,355.14172,180.18201z M357.51672,171.192
	c-3.94598,0-5.78598,0.62801-5.79099,1.97701c-0.004,1.17299,0.198,5.00099,2.98099,5.01199l0.435,0.00101
	c2.82901,0,4.56403-0.19202,4.57901-3.98201c0.00601-1.19701,0.01001-2.147-0.22598-2.55299
	c-0.06403-0.11101-0.26102-0.448-1.76202-0.45401h-0.216V171.192z"/>
<path fill="#333C4C" d="M366.72275,185c0-1.65601-1.34302-5-3-5c-1.65701,0-3,3.34399-3,5c0,0,2-1,3-1S366.72275,185,366.72275,185z
	"/>
<path fill="#242A38" d="M364.63373,184.16299c0.979,0.283,2.08902,0.83701,2.08902,0.83701c0-1.65601-1.34302-5-3-5
	c-0.35202,0-0.68701,0.15601-1,0.409C363.66675,181.17101,364.39273,182.854,364.63373,184.16299z"/>
<path fill="#272223" d="M360.72275,186c-0.18301,0-0.36502-0.05-0.52502-0.149c-0.29498-0.183-0.47498-0.504-0.47498-0.851
	c0-2.061,1.55798-6,4-6c2.44199,0,4,3.939,4,6c0,0.347-0.18002,0.668-0.474,0.851c-0.29602,0.18201-0.66302,0.19801-0.974,0.04401
	c-0.72202-0.36101-2.03403-0.895-2.552-0.895c-0.52103,0-1.83102,0.534-2.55301,0.895
	C361.02774,185.965,360.87573,186,360.72275,186z M363.72275,183c0.48499,0,1.09399,0.15601,1.66699,0.354
	c-0.423-1.20601-1.16202-2.354-1.66699-2.354c-0.505,0-1.24402,1.14799-1.66702,2.354
	C362.62872,183.15601,363.23672,183,363.72275,183z"/>
<path fill="#272223" d="M381.97275,172.85201c0.715-6.181-0.655-11.425-3.97-15.18001c-3.155-3.573-7.86102-5.505-13.62201-5.645
	c-0.07401-0.01199-0.146-0.01399-0.22-0.00899c-0.14801-0.002-0.289-0.01801-0.43799-0.01801c-6.06601,0-11.005,1.961-14.28,5.672
	c-3.31403,3.755-4.685,8.99901-3.97,15.18001c-1.34201,3.33499,0.28998,8.47701,3.41998,10.787l2.453,6.625l-0.01001,0.01399
	l0.02002,0.013l2.43698,6.582c1.453,3.627,5.57501,3.627,6.93002,3.627h6c1.35397,0,5.47699,0,6.93799-3.65201l2.42801-6.55699
	l0.021-0.01399l-0.01001-0.01501l2.453-6.62399C381.68274,181.327,383.31274,176.187,381.97275,172.85201z M354.04474,191.795
	c0.22699,0.092,0.448,0.19499,0.681,0.27299l0.00201,1.569L354.04474,191.795z M371.79474,196.12799
	c-0.65601,1.64101-2.22101,2.37201-5.07199,2.37201h-6c-2.85202,0-4.41602-0.731-5.064-2.34799l-0.492-1.32901
	c0.05899,0.04001,0.116,0.082,0.18399,0.10901C357.96274,196,360.89075,196,363.72275,196c2.83398,0,5.76398,0,8.37997-1.069
	c0.06403-0.026,0.11801-0.067,0.17502-0.105L371.79474,196.12799z M356.72473,190.549l-0.00101-0.84399
	c0.64902,0.086,1.31601,0.14799,1.99902,0.19099v0.94101C358.03674,190.771,357.36475,190.686,356.72473,190.549z
	 M358.72275,192.845v0.91699c-0.68802-0.10199-1.35602-0.24199-1.996-0.452l-0.00101-0.73999
	C357.37973,192.69101,358.04575,192.783,358.72275,192.845z M362.72275,192.99701v1.00099c-0.68002-0.004-1.34601-0.017-2-0.048
	V192.968C361.38773,192.98801,362.05573,192.995,362.72275,192.99701z M360.72275,190.968v-0.993
	c0.65799,0.01498,1.32498,0.021,2,0.02299v1C362.04672,190.995,361.37775,190.989,360.72275,190.968z M366.72275,192.967v0.983
	c-0.65402,0.032-1.32001,0.04401-2,0.048v-1.00099C365.38974,192.995,366.05774,192.98801,366.72275,192.967z M364.72275,190.99701
	V189.998c0.67499-0.002,1.34198-0.009,2-0.02299v0.992C366.06674,190.987,365.39774,190.995,364.72275,190.99701z
	 M370.74374,192.563c0.00598,0.271,0.01398,0.517,0.02399,0.73c-0.655,0.21899-1.341,0.364-2.04599,0.46899v-0.91998
	C369.40775,192.77899,370.08173,192.688,370.74374,192.563z M368.72275,190.836v-0.939
	c0.68298-0.043,1.34998-0.10501,1.99899-0.19101c0,0.29601,0.00101,0.576,0.00198,0.84
	C370.08173,190.68201,369.40872,190.77,368.72275,190.836z M372.72372,193.621c-0.00098-0.354-0.00098-0.92101-0.00098-1.556
	c0.23099-0.078,0.452-0.181,0.67798-0.271L372.72372,193.621z M377.16772,182.168c-0.17599,0.117-0.31,0.287-0.383,0.48401
	l-1.198,3.23599l-0.41898,0.27899C372.41974,188,368.19473,188,363.72275,188c-4.47202,0-8.69702,0-11.44501-1.832l-0.41901-0.27899
	l-1.198-3.23601c-0.073-0.19701-0.207-0.367-0.383-0.48399c-2.578-1.71901-4.05499-6.214-2.87399-8.74501
	c0.07999-0.17099,0.10898-0.36,0.086-0.547c-0.71402-5.714,0.479-10.51399,3.452-13.88c2.681-3.03499,6.69501-4.722,11.63998-4.95
	l-1.25299,2.507c-0.16,0.321-0.13699,0.70399,0.06299,1.002l1.729,2.593l-0.845,2.536c-0.17499,0.524,0.108,1.091,0.63202,1.265
	c0.104,0.033,0.20999,0.05,0.315,0.05c0.41898,0,0.80899-0.265,0.948-0.68401l1-3c0.09799-0.293,0.05499-0.614-0.116-0.87099
	l-1.33301-2l2.01801-3.36301c4.548,0.377,8.242,2.05701,10.76398,4.91299c2.97302,3.367,4.16602,8.16701,3.45203,13.88
	c-0.02301,0.187,0.00699,0.37601,0.086,0.547C381.22275,175.95399,379.74573,180.44901,377.16772,182.168z"/>
<path fill="#272223" d="M483.9982,186.14165l-1.17001-0.59599c-7.42401-7.793-9.133-19.278-4.255-28.705l0.67801-0.67799
	c0.38998-0.39101,0.38998-1.024-0.00201-1.414c-0.39099-0.39-1.02298-0.39-1.414,0.002l-0.59299,0.592l-0.00699-0.01399
	c-9.41101,4.931-20.80801,3.39099-28.58801-3.78l-0.78799-1.54701c-0.25-0.49199-0.85199-0.68799-1.345-0.437
	c-0.492,0.25101-0.68799,0.853-0.43701,1.345l0.57602,1.131l-0.03601,0.005c1.508,10.548-3.77798,20.802-13.173,25.72299
	l-1.14401,0.183c-0.54498,0.086-0.918,0.599-0.83197,1.14401c0.07797,0.49199,0.50299,0.84399,0.987,0.84399
	c0.05197,0,0.10397-0.004,0.15698-0.013l1.01599-0.161c0.06201,0.013,0.12201,0.02899,0.18301,0.04199l0.01599,0.03201
	c0.013-0.00601,0.02402-0.01401,0.03702-0.02c10.73798,2.203,18.849,10.58,20.29898,21.005l-0.08899,0.56299
	c-0.08701,0.545,0.285,1.058,0.83099,1.14401c0.05301,0.00899,0.10501,0.013,0.15701,0.013c0.483,0,0.909-0.35201,0.98599-0.84401
	l0.211-1.334c5.12201-9.42999,15.616-14.55299,26.207-12.748l0.00198-0.01199l0.621,0.31599
	c0.146,0.07401,0.30099,0.10901,0.453,0.10901c0.36401,0,0.716-0.19901,0.892-0.54601
	C484.68619,186.99365,484.49017,186.39165,483.9982,186.14165z M478.50018,183.33965l-3.60501-1.83699
	c-3.267-5.24501-4.474-11.46501-3.39697-17.58501l3.478-3.478C472.63217,168.16466,473.9202,176.57265,478.50018,183.33965z
	 M459.5802,173.00665l-2.30301-4.521c1.83301,0.59399,3.72101,0.985,5.64899,1.174L459.5802,173.00665z M464.4422,170.97266
	c0.19598,1.992,0.60498,3.942,1.233,5.83299l-4.68201-2.38499L464.4422,170.97266z M455.43619,169.27666l2.36301,4.638
	l-4.71899,0.74699C454.06317,172.94965,454.85419,171.15265,455.43619,169.27666z M458.11218,175.88866l-0.80499,5.07799
	c-1.20599-1.584-2.56302-3.02899-4.08301-4.304L458.11218,175.88866z M460.08719,176.20164l4.34,2.211
	c-1.832,0.80101-3.55798,1.79001-5.16101,2.97L460.08719,176.20164z M468.3342,178.15965
	c-1.23502-2.875-1.91101-5.91901-2.01202-9.067l2.86801-2.869c-0.362,4.71901,0.51099,9.414,2.535,13.66501L468.3342,178.15965z
	 M464.8082,167.77965c-3.07602-0.097-6.05402-0.74199-8.86902-1.92099l-1.72198-3.379
	c3.56198,1.657,7.42798,2.51599,11.35498,2.51599c0.703,0,1.409-0.041,2.11502-0.09599L464.8082,167.77965z M452.3342,163.18765
	l1.73499,3.40601c-0.66199,3.03299-1.87,5.87999-3.59698,8.48l-3.96402,0.62799
	C449.51318,172.09166,451.51318,167.79366,452.3342,163.18765z M450.48718,177.09665c2.522,1.82201,4.67001,4.062,6.37302,6.69701
	l-0.573,3.62199c-2.418-4.052-5.82901-7.364-9.914-9.668L450.48718,177.09665z M458.80017,184.32565
	c2.354-2.06,5.03802-3.64,7.996-4.705l3.61301,1.841c-4.59698,1.11099-8.789,3.388-12.20401,6.619L458.80017,184.32565z
	 M465.60217,160.20166c2.68201,0,5.37802-0.401,7.996-1.214l-3.612,3.61299c-6.03998,1.06401-12.16898-0.09799-17.366-3.258
	l-1.81598-3.565C455.2482,158.69365,460.39819,160.20166,465.60217,160.20166z M448.85419,156.35965l1.853,3.636
	c-0.383,6.13901-3.004,11.86501-7.38501,16.211l-4.97498,0.787C444.76419,172.05066,448.63519,164.48665,448.85419,156.35965z
	 M438.36819,179.01566l4.60999-0.73c5.64001,2.424,10.168,6.80099,12.79102,12.40199l-0.79401,5.01601
	C452.34818,188.03265,446.26019,181.88866,438.36819,179.01566z M457.0152,195.59966l0.63498-4.008
	c3.97702-4.71701,9.51501-7.78201,15.66702-8.64801l4.58398,2.336C469.73419,185.38165,462.06119,189.17165,457.0152,195.59966z"/>
</svg>
