<?xml version="1.0" encoding="UTF-8" standalone="no"?>
<svg width="60px" height="60px" viewBox="0 0 60 60" version="1.1" xmlns="http://www.w3.org/2000/svg" xmlns:xlink="http://www.w3.org/1999/xlink">
    <!-- Generator: Sketch 3.8.1 (29687) - http://www.bohemiancoding.com/sketch -->
    <title>box</title>
    <desc>Created with Sketch.</desc>
    <defs></defs>
    <g id="People" stroke="none" stroke-width="1" fill="none" fill-rule="evenodd">
        <g id="Icon-16" fill="#000000">
            <path d="M55.0298,51 C55.5828,51 56.0298,50.552 56.0298,50 C56.0298,49.448 55.5828,49 55.0298,49 L55.0198,49 C54.4678,49 54.0248,49.448 54.0248,50 C54.0248,50.552 54.4778,51 55.0298,51 L55.0298,51 Z M51.0298,55 C51.0298,54.448 50.5828,54 50.0298,54 L50.0198,54 C49.4678,54 49.0248,54.448 49.0248,55 C49.0248,55.552 49.4778,56 50.0298,56 C50.5828,56 51.0298,55.552 51.0298,55 L51.0298,55 Z M10.0198,54 C9.4678,54 9.0248,54.448 9.0248,55 C9.0248,55.552 9.4778,56 10.0298,56 C10.5828,56 11.0298,55.552 11.0298,55 C11.0298,54.448 10.5828,54 10.0298,54 L10.0198,54 Z M5.0298,49 L5.0198,49 C4.4678,49 4.0248,49.448 4.0248,50 C4.0248,50.552 4.4778,51 5.0298,51 C5.5828,51 6.0298,50.552 6.0298,50 C6.0298,49.448 5.5828,49 5.0298,49 L5.0298,49 Z M5.0298,9 L5.0198,9 C4.4678,9 4.0248,9.448 4.0248,10 C4.0248,10.552 4.4778,11 5.0298,11 C5.5828,11 6.0298,10.552 6.0298,10 C6.0298,9.448 5.5828,9 5.0298,9 L5.0298,9 Z M10.0198,4 C9.4678,4 9.0248,4.448 9.0248,5 C9.0248,5.552 9.4778,6 10.0298,6 C10.5828,6 11.0298,5.552 11.0298,5 C11.0298,4.448 10.5828,4 10.0298,4 L10.0198,4 Z M50.0198,4 C49.4678,4 49.0248,4.448 49.0248,5 C49.0248,5.552 49.4778,6 50.0298,6 C50.5828,6 51.0298,5.552 51.0298,5 C51.0298,4.448 50.5828,4 50.0298,4 L50.0198,4 Z M55.0298,11 C55.5828,11 56.0298,10.552 56.0298,10 C56.0298,9.448 55.5828,9 55.0298,9 L55.0198,9 C54.4678,9 54.0248,9.448 54.0248,10 C54.0248,10.552 54.4778,11 55.0298,11 L55.0298,11 Z M46.2928,36.293 L36.2928,46.293 C35.9028,46.684 35.9028,47.316 36.2928,47.707 C36.4878,47.902 36.7438,48 36.9998,48 C37.2558,48 37.5118,47.902 37.7068,47.707 L47.7068,37.707 C48.0978,37.316 48.0978,36.684 47.7068,36.293 C47.3168,35.902 46.6838,35.902 46.2928,36.293 L46.2928,36.293 Z M47.7068,24.293 C47.3168,23.902 46.6838,23.902 46.2928,24.293 L24.2928,46.293 C23.9028,46.684 23.9028,47.316 24.2928,47.707 C24.4878,47.902 24.7438,48 24.9998,48 C25.2558,48 25.5118,47.902 25.7068,47.707 L47.7068,25.707 C48.0978,25.316 48.0978,24.684 47.7068,24.293 L47.7068,24.293 Z M22.2928,12.293 L12.2928,22.293 C11.9028,22.684 11.9028,23.316 12.2928,23.707 C12.4878,23.902 12.7438,24 12.9998,24 C13.2558,24 13.5118,23.902 13.7068,23.707 L23.7068,13.707 C24.0978,13.316 24.0978,12.684 23.7068,12.293 C23.3168,11.902 22.6838,11.902 22.2928,12.293 L22.2928,12.293 Z M34.2928,12.293 L12.2928,34.293 C11.9028,34.684 11.9028,35.316 12.2928,35.707 C12.4878,35.902 12.7438,36 12.9998,36 C13.2558,36 13.5118,35.902 13.7068,35.707 L35.7068,13.707 C36.0978,13.316 36.0978,12.684 35.7068,12.293 C35.3168,11.902 34.6838,11.902 34.2928,12.293 L34.2928,12.293 Z M47.7068,12.293 C47.3168,11.902 46.6838,11.902 46.2928,12.293 L12.2928,46.293 C11.9028,46.684 11.9028,47.316 12.2928,47.707 C12.4878,47.902 12.7438,48 12.9998,48 C13.2558,48 13.5118,47.902 13.7068,47.707 L47.7068,13.707 C48.0978,13.316 48.0978,12.684 47.7068,12.293 L47.7068,12.293 Z M46.9998,52 C47.5518,52 47.9998,51.552 47.9998,51 C47.9998,50.448 47.5518,50 46.9998,50 L8.9998,50 C8.7348,50 8.4808,50.105 8.2928,50.293 L1.9998,56.586 L1.9998,6 C1.9998,5.448 1.5518,5 0.9998,5 C0.4478,5 -0.0002,5.448 -0.0002,6 L-0.0002,59 C-0.0002,59.404 0.2438,59.769 0.6168,59.924 C0.7408,59.975 0.8708,60 0.9998,60 C1.2598,60 1.5158,59.898 1.7068,59.707 L9.4138,52 L46.9998,52 Z M7.9998,9.414 L7.9998,47 C7.9998,47.552 8.4478,48 8.9998,48 C9.5518,48 9.9998,47.552 9.9998,47 L9.9998,9 C9.9998,8.735 9.8948,8.48 9.7068,8.293 L3.4138,2 L53.9998,2 C54.5518,2 54.9998,1.552 54.9998,1 C54.9998,0.448 54.5518,2.13162821e-14 53.9998,2.13162821e-14 L0.9998,2.13162821e-14 C0.5958,2.13162821e-14 0.2308,0.244 0.0758,0.617 C-0.0782,0.991 0.0068,1.421 0.2928,1.707 L7.9998,9.414 Z M59.3828,0.076 C59.0078,-0.079 58.5788,0.006 58.2928,0.293 L50.5858,8 L12.9998,8 C12.4478,8 11.9998,8.448 11.9998,9 C11.9998,9.552 12.4478,10 12.9998,10 L50.9998,10 C51.2648,10 51.5198,9.895 51.7068,9.707 L57.9998,3.414 L57.9998,54 C57.9998,54.552 58.4478,55 58.9998,55 C59.5518,55 59.9998,54.552 59.9998,54 L59.9998,1 C59.9998,0.596 59.7568,0.231 59.3828,0.076 L59.3828,0.076 Z M59.7068,58.293 C59.9928,58.579 60.0788,59.009 59.9238,59.383 C59.7688,59.756 59.4048,60 58.9998,60 L5.9998,60 C5.4478,60 4.9998,59.552 4.9998,59 C4.9998,58.448 5.4478,58 5.9998,58 L56.5858,58 L50.2928,51.707 C50.1058,51.52 49.9998,51.265 49.9998,51 L49.9998,13 C49.9998,12.448 50.4478,12 50.9998,12 C51.5518,12 51.9998,12.448 51.9998,13 L51.9998,50.586 L59.7068,58.293 Z" id="box"></path>
        </g>
    </g>
</svg>