<?xml version="1.0" encoding="UTF-8" standalone="no"?>
<svg width="60px" height="60px" viewBox="0 0 60 60" version="1.1" xmlns="http://www.w3.org/2000/svg" xmlns:xlink="http://www.w3.org/1999/xlink">
    <!-- Generator: Sketch 3.8.1 (29687) - http://www.bohemiancoding.com/sketch -->
    <title>cabinet</title>
    <desc>Created with Sketch.</desc>
    <defs></defs>
    <g id="People" stroke="none" stroke-width="1" fill="none" fill-rule="evenodd">
        <g id="Icon-13" fill="#000000">
            <path d="M22,38 C22.551,38 23,37.551 23,37 C23,36.449 22.551,36 22,36 C21.449,36 21,36.449 21,37 C21,37.551 21.449,38 22,38 M37,37 C37,37.551 37.448,38 38,38 C38.552,38 39,37.551 39,37 C39,36.449 38.552,36 38,36 C37.448,36 37,36.449 37,37 M22,40 C20.346,40 19,38.654 19,37 C19,35.346 20.346,34 22,34 C23.302,34 24.401,34.838 24.816,36 L35.185,36 C35.599,34.838 36.698,34 38,34 C39.654,34 41,35.346 41,37 C41,38.654 39.654,40 38,40 C36.698,40 35.599,39.162 35.185,38 L24.816,38 C24.401,39.162 23.302,40 22,40 M38,8 C37.448,8 37,8.449 37,9 C37,9.551 37.448,10 38,10 C38.552,10 39,9.551 39,9 C39,8.449 38.552,8 38,8 M23,9 C23,8.449 22.551,8 22,8 C21.449,8 21,8.449 21,9 C21,9.551 21.449,10 22,10 C22.551,10 23,9.551 23,9 M38,6 C39.654,6 41,7.346 41,9 C41,10.654 39.654,12 38,12 C36.698,12 35.599,11.162 35.185,10 L24.816,10 C24.401,11.162 23.302,12 22,12 C20.346,12 19,10.654 19,9 C19,7.346 20.346,6 22,6 C23.302,6 24.401,6.838 24.816,8 L35.185,8 C35.599,6.838 36.698,6 38,6 M58,25 L58,5 C58,3.346 56.654,2 55,2 L5,2 C3.346,2 2,3.346 2,5 L2,56 L58,56 L58,30 L5,30 C4.448,30 4,29.552 4,29 C4,28.448 4.448,28 5,28 L59,28 C59.553,28 60,28.448 60,29 L60,57 C60,57.552 59.553,58 59,58 L56,58 L56,59 C56,59.552 55.553,60 55,60 C54.447,60 54,59.552 54,59 L54,58 L6,58 L6,59 C6,59.552 5.552,60 5,60 C4.448,60 4,59.552 4,59 L4,58 L1,58 C0.448,58 0,57.552 0,57 L0,5 C0,2.243 2.243,0 5,0 L55,0 C57.757,0 60,2.243 60,5 L60,25 C60,25.552 59.553,26 59,26 C58.447,26 58,25.552 58,25" id="cabinet"></path>
        </g>
    </g>
</svg>