<?xml version="1.0" encoding="UTF-8" standalone="no"?>
<svg width="60px" height="60px" viewBox="0 0 60 60" version="1.1" xmlns="http://www.w3.org/2000/svg" xmlns:xlink="http://www.w3.org/1999/xlink">
    <!-- Generator: Sketch 3.8.3 (29802) - http://www.bohemiancoding.com/sketch -->
    <title>control-backward</title>
    <desc>Created with Sketch.</desc>
    <defs></defs>
    <g id="People" stroke="none" stroke-width="1" fill="none" fill-rule="evenodd">
        <g id="Icon-65" fill="#FFFFFF">
            <path d="M40,21 L40,39 C40,39.366 39.8,39.702 39.479,39.878 C39.157,40.052 38.766,40.038 38.459,39.841 L34.449,37.263 C33.985,36.964 33.851,36.346 34.149,35.881 C34.447,35.417 35.065,35.28 35.531,35.581 L38,37.168 L38,22.832 L31.541,26.983 C31.232,27.183 30.842,27.194 30.521,27.021 C30.2,26.845 30,26.509 30,26.143 L30,22.832 L18.85,30 L30,37.168 L30,33.857 C30,33.305 30.447,32.857 31,32.857 C31.553,32.857 32,33.305 32,33.857 L32,39 C32,39.366 31.8,39.702 31.479,39.878 C31.329,39.959 31.165,40 31,40 C30.812,40 30.623,39.947 30.459,39.841 L16.459,30.841 C16.173,30.657 16,30.34 16,30 C16,29.66 16.173,29.343 16.459,29.159 L30.459,20.159 C30.766,19.961 31.157,19.948 31.479,20.122 C31.8,20.298 32,20.634 32,21 L32,24.311 L38.459,20.159 C38.766,19.959 39.157,19.948 39.479,20.122 C39.8,20.298 40,20.634 40,21 M30,58 C14.561,58 2,45.439 2,30 C2,14.561 14.561,2 30,2 C45.439,2 58,14.561 58,30 C58,45.439 45.439,58 30,58 M30,0 C13.458,0 0,13.458 0,30 C0,46.542 13.458,60 30,60 C46.542,60 60,46.542 60,30 C60,13.458 46.542,0 30,0" id="control-backward"></path>
        </g>
    </g>
</svg>