<?xml version="1.0" encoding="UTF-8" standalone="no"?>
<svg width="60px" height="60px" viewBox="0 0 60 60" version="1.1" xmlns="http://www.w3.org/2000/svg" xmlns:xlink="http://www.w3.org/1999/xlink">
    <!-- Generator: Sketch 3.8.3 (29802) - http://www.bohemiancoding.com/sketch -->
    <title>control-last</title>
    <desc>Created with Sketch.</desc>
    <defs></defs>
    <g id="People" stroke="none" stroke-width="1" fill="none" fill-rule="evenodd">
        <g id="Icon-67" fill="#FFFFFF">
            <path d="M40,21 L40,39 C40,39.553 39.552,40 39,40 L33,40 C32.448,40 32,39.553 32,39 L32,33 C32,32.447 32.448,32 33,32 C33.552,32 34,32.447 34,33 L34,38 L38,38 L38,22 L34,22 L34,28.714 C34,29.08 33.8,29.416 33.479,29.592 C33.158,29.766 32.766,29.754 32.459,29.555 L22,22.832 L22,37.168 L28.472,33.009 C28.935,32.708 29.555,32.845 29.854,33.309 C30.152,33.773 30.018,34.393 29.553,34.69 L21.541,39.841 C21.376,39.947 21.188,40 21,40 C20.835,40 20.67,39.959 20.521,39.878 C20.2,39.702 20,39.366 20,39 L20,21 C20,20.634 20.2,20.298 20.521,20.122 C20.841,19.947 21.233,19.959 21.541,20.159 L32,26.882 L32,21 C32,20.447 32.448,20 33,20 L39,20 C39.552,20 40,20.447 40,21 M30,58 C14.561,58 2,45.439 2,30 C2,14.561 14.561,2 30,2 C45.439,2 58,14.561 58,30 C58,45.439 45.439,58 30,58 M30,0 C13.458,0 0,13.458 0,30 C0,46.542 13.458,60 30,60 C46.542,60 60,46.542 60,30 C60,13.458 46.542,0 30,0" id="control-last"></path>
        </g>
    </g>
</svg>