<?xml version="1.0" encoding="UTF-8" standalone="no"?>
<svg width="60px" height="60px" viewBox="0 0 60 60" version="1.1" xmlns="http://www.w3.org/2000/svg" xmlns:xlink="http://www.w3.org/1999/xlink">
    <!-- Generator: Sketch 3.8.3 (29802) - http://www.bohemiancoding.com/sketch -->
    <title>control-first</title>
    <desc>Created with Sketch.</desc>
    <defs></defs>
    <g id="People" stroke="none" stroke-width="1" fill="none" fill-rule="evenodd">
        <g id="Icon-66" fill="#FFFFFF">
            <path d="M40,21 L40,39 C40,39.366 39.8,39.702 39.479,39.878 C39.33,39.959 39.165,40 39,40 C38.812,40 38.624,39.947 38.459,39.841 L30.448,34.691 C29.983,34.394 29.849,33.774 30.147,33.31 C30.447,32.846 31.065,32.708 31.529,33.01 L38,37.169 L38,22.832 L27.541,29.555 C27.233,29.754 26.841,29.766 26.521,29.592 C26.2,29.416 26,29.08 26,28.714 L26,22 L22,22 L22,38 L26,38 L26,33 C26,32.447 26.448,32 27,32 C27.552,32 28,32.447 28,33 L28,39 C28,39.553 27.552,40 27,40 L21,40 C20.448,40 20,39.553 20,39 L20,21 C20,20.447 20.448,20 21,20 L27,20 C27.552,20 28,20.447 28,21 L28,26.882 L38.459,20.159 C38.767,19.959 39.158,19.947 39.479,20.122 C39.8,20.298 40,20.634 40,21 M30,58 C14.561,58 2,45.439 2,30 C2,14.561 14.561,2 30,2 C45.439,2 58,14.561 58,30 C58,45.439 45.439,58 30,58 M30,0 C13.458,0 0,13.458 0,30 C0,46.542 13.458,60 30,60 C46.542,60 60,46.542 60,30 C60,13.458 46.542,0 30,0" id="control-first"></path>
        </g>
    </g>
</svg>