<?xml version="1.0" encoding="UTF-8" standalone="no"?>
<svg width="60px" height="60px" viewBox="0 0 60 60" version="1.1" xmlns="http://www.w3.org/2000/svg" xmlns:xlink="http://www.w3.org/1999/xlink">
    <!-- Generator: Sketch 3.8.3 (29802) - http://www.bohemiancoding.com/sketch -->
    <title>control-volume-yes</title>
    <desc>Created with Sketch.</desc>
    <defs></defs>
    <g id="People" stroke="none" stroke-width="1" fill="none" fill-rule="evenodd">
        <g id="Icon-69" fill="#FFFFFF">
            <path d="M37.6064,19.3936 C40.4394,22.2266 42.0004,25.9936 42.0004,29.9996 C42.0004,34.0066 40.4394,37.7736 37.6064,40.6066 C37.4114,40.8016 37.1554,40.8996 36.8994,40.8996 C36.6434,40.8996 36.3874,40.8016 36.1924,40.6066 C35.8014,40.2156 35.8014,39.5826 36.1924,39.1926 C38.6474,36.7376 40.0004,33.4726 40.0004,29.9996 C40.0004,26.5276 38.6474,23.2626 36.1924,20.8076 C35.8014,20.4166 35.8014,19.7846 36.1924,19.3936 C36.5834,19.0026 37.2154,19.0026 37.6064,19.3936 M36.0004,29.9996 C36.0004,32.4046 35.0644,34.6646 33.3644,36.3636 C33.1694,36.5586 32.9134,36.6566 32.6574,36.6566 C32.4014,36.6566 32.1454,36.5586 31.9504,36.3636 C31.5594,35.9726 31.5594,35.3396 31.9504,34.9496 C33.2724,33.6266 34.0004,31.8696 34.0004,29.9996 C34.0004,28.1306 33.2724,26.3726 31.9504,25.0506 C31.5594,24.6606 31.5594,24.0276 31.9504,23.6366 C32.3404,23.2466 32.9734,23.2466 33.3644,23.6366 C35.0644,25.3356 36.0004,27.5956 36.0004,29.9996 M30.0004,20.9996 L30.0004,38.9996 C30.0004,39.3696 29.7964,39.7076 29.4714,39.8816 C29.3244,39.9606 29.1624,39.9996 29.0004,39.9996 C28.8054,39.9996 28.6124,39.9436 28.4454,39.8316 L22.4454,35.8316 C21.9854,35.5256 21.8614,34.9056 22.1684,34.4456 C22.4724,33.9866 23.0924,33.8626 23.5544,34.1676 L28.0004,37.1316 L28.0004,22.8686 L23.5544,25.8316 C23.3904,25.9416 23.1974,25.9996 23.0004,25.9996 L20.0004,25.9996 L20.0004,34.9996 C20.0004,35.5526 19.5524,35.9996 19.0004,35.9996 C18.4474,35.9996 18.0004,35.5526 18.0004,34.9996 L18.0004,24.9996 C18.0004,24.4476 18.4474,23.9996 19.0004,23.9996 L22.6974,23.9996 L28.4454,20.1676 C28.7514,19.9636 29.1474,19.9446 29.4714,20.1186 C29.7964,20.2916 30.0004,20.6306 30.0004,20.9996 M30.0004,57.9996 C14.5604,57.9996 2.0004,45.4396 2.0004,29.9996 C2.0004,14.5606 14.5604,1.9996 30.0004,1.9996 C45.4394,1.9996 58.0004,14.5606 58.0004,29.9996 C58.0004,45.4396 45.4394,57.9996 30.0004,57.9996 M30.0004,-0.0004 C13.4584,-0.0004 0.0004,13.4576 0.0004,29.9996 C0.0004,46.5416 13.4584,59.9996 30.0004,59.9996 C46.5424,59.9996 60.0004,46.5416 60.0004,29.9996 C60.0004,13.4576 46.5424,-0.0004 30.0004,-0.0004" id="control-volume-yes"></path>
        </g>
    </g>
</svg>