<?xml version="1.0" encoding="UTF-8" standalone="no"?>
<svg width="60px" height="60px" viewBox="0 0 60 60" version="1.1" xmlns="http://www.w3.org/2000/svg" xmlns:xlink="http://www.w3.org/1999/xlink">
    <!-- Generator: Sketch 3.8.3 (29802) - http://www.bohemiancoding.com/sketch -->
    <title>control-volume-no</title>
    <desc>Created with Sketch.</desc>
    <defs></defs>
    <g id="People" stroke="none" stroke-width="1" fill="none" fill-rule="evenodd">
        <g id="Icon-70" fill="#FFFFFF">
            <path d="M30,21 L30,39 C30,39.369 29.797,39.708 29.472,39.882 C29.324,39.961 29.162,40 29,40 C28.806,40 28.612,39.943 28.445,39.832 L22.445,35.832 C21.985,35.525 21.861,34.905 22.168,34.445 C22.474,33.986 23.094,33.862 23.555,34.168 L28,37.132 L28,22.868 L23.555,25.832 C23.391,25.941 23.197,26 23,26 L20,26 L20,35 C20,35.553 19.553,36 19,36 C18.447,36 18,35.553 18,35 L18,25 C18,24.447 18.447,24 19,24 L22.697,24 L28.445,20.168 C28.752,19.964 29.147,19.944 29.472,20.118 C29.797,20.292 30,20.631 30,21 M41.707,26.707 L38.414,30 L41.707,33.293 C42.098,33.684 42.098,34.316 41.707,34.707 C41.512,34.902 41.256,35 41,35 C40.744,35 40.488,34.902 40.293,34.707 L37,31.414 L33.707,34.707 C33.512,34.902 33.256,35 33,35 C32.744,35 32.488,34.902 32.293,34.707 C31.902,34.316 31.902,33.684 32.293,33.293 L35.586,30 L32.293,26.707 C31.902,26.316 31.902,25.684 32.293,25.293 C32.684,24.902 33.316,24.902 33.707,25.293 L37,28.586 L40.293,25.293 C40.684,24.902 41.316,24.902 41.707,25.293 C42.098,25.684 42.098,26.316 41.707,26.707 M30,58 C14.561,58 2,45.439 2,30 C2,14.561 14.561,2 30,2 C45.439,2 58,14.561 58,30 C58,45.439 45.439,58 30,58 M30,0 C13.458,0 0,13.458 0,30 C0,46.542 13.458,60 30,60 C46.542,60 60,46.542 60,30 C60,13.458 46.542,0 30,0" id="control-volume-no"></path>
        </g>
    </g>
</svg>