<?xml version="1.0" encoding="UTF-8" standalone="no"?>
<svg width="60px" height="60px" viewBox="0 0 60 60" version="1.1" xmlns="http://www.w3.org/2000/svg" xmlns:xlink="http://www.w3.org/1999/xlink">
    <!-- Generator: Sketch 3.8.3 (29802) - http://www.bohemiancoding.com/sketch -->
    <title>control-eject</title>
    <desc>Created with Sketch.</desc>
    <defs></defs>
    <g id="People" stroke="none" stroke-width="1" fill="none" fill-rule="evenodd">
        <g id="Icon-68" fill="#FFFFFF">
            <path d="M40,33 L40,39 C40,39.553 39.553,40 39,40 L21,40 C20.448,40 20,39.553 20,39 L20,37 C20,36.447 20.448,36 21,36 C21.552,36 22,36.447 22,37 L22,38 L38,38 L38,34 L21,34 C20.634,34 20.297,33.8 20.122,33.479 C19.947,33.158 19.961,32.767 20.159,32.459 L29.159,18.459 C29.527,17.887 30.473,17.887 30.841,18.459 L37.276,28.469 C37.575,28.934 37.44,29.552 36.977,29.851 C36.512,30.149 35.893,30.016 35.595,29.551 L30,20.85 L22.832,32 L39,32 C39.553,32 40,32.447 40,33 M30,58 C14.561,58 2,45.439 2,30 C2,14.561 14.561,2 30,2 C45.439,2 58,14.561 58,30 C58,45.439 45.439,58 30,58 M30,0 C13.458,0 0,13.458 0,30 C0,46.542 13.458,60 30,60 C46.542,60 60,46.542 60,30 C60,13.458 46.542,0 30,0" id="control-eject"></path>
        </g>
    </g>
</svg>