<?xml version="1.0" encoding="UTF-8" standalone="no"?>
<svg width="60px" height="60px" viewBox="0 0 60 60" version="1.1" xmlns="http://www.w3.org/2000/svg" xmlns:xlink="http://www.w3.org/1999/xlink">
    <!-- Generator: Sketch 3.8.1 (29687) - http://www.bohemiancoding.com/sketch -->
    <title>fingers-click</title>
    <desc>Created with Sketch.</desc>
    <defs></defs>
    <g id="People" stroke="none" stroke-width="1" fill="none" fill-rule="evenodd">
        <g id="Icon-47" fill="#000000">
            <path d="M43,53.998 L37,53.998 C36.448,53.998 36,54.445 36,54.998 C36,55.551 36.448,55.998 37,55.998 L43,55.998 C43.552,55.998 44,55.551 44,54.998 C44,54.445 43.552,53.998 43,53.998 L43,53.998 Z M43,57.998 L37,57.998 C36.448,57.998 36,58.445 36,58.998 C36,59.551 36.448,59.998 37,59.998 L43,59.998 C43.552,59.998 44,59.551 44,58.998 C44,58.445 43.552,57.998 43,57.998 L43,57.998 Z M5.059,32.614 C4.765,32.147 4.148,32.007 3.68,32.302 C3.212,32.596 3.072,33.213 3.367,33.681 C3.923,34.562 4.548,35.414 5.225,36.211 C5.423,36.443 5.705,36.563 5.988,36.563 C6.217,36.563 6.447,36.485 6.635,36.325 C7.056,35.968 7.107,35.337 6.75,34.916 C6.133,34.19 5.564,33.417 5.059,32.614 L5.059,32.614 Z M9.16,6.38 C9.374,6.38 9.59,6.311 9.772,6.171 C11.331,4.964 13.052,3.998 14.886,3.3 C15.402,3.103 15.661,2.525 15.465,2.01 C15.269,1.493 14.689,1.232 14.175,1.431 C12.156,2.199 10.263,3.262 8.547,4.589 C8.111,4.927 8.031,5.556 8.369,5.992 C8.566,6.246 8.861,6.38 9.16,6.38 L9.16,6.38 Z M2,21.998 C2,21.796 2.003,21.596 2.009,21.395 C2.025,20.844 1.591,20.383 1.04,20.365 C0.486,20.352 0.026,20.782 0.01,21.335 C0.003,21.555 0,21.776 0,21.998 C0,23.946 0.256,25.88 0.761,27.745 C0.881,28.19 1.285,28.483 1.726,28.483 C1.812,28.483 1.9,28.473 1.987,28.448 C2.521,28.305 2.835,27.755 2.691,27.222 C2.232,25.527 2,23.769 2,21.998 L2,21.998 Z M20.612,2.045 C22.553,1.912 24.558,2.062 26.464,2.498 C26.539,2.516 26.614,2.523 26.688,2.523 C27.144,2.523 27.556,2.209 27.662,1.746 C27.784,1.207 27.447,0.671 26.909,0.549 C24.814,0.071 22.611,-0.092 20.479,0.049 C19.928,0.086 19.511,0.562 19.548,1.113 C19.584,1.664 20.05,2.077 20.612,2.045 L20.612,2.045 Z M5.471,9.004 C5.019,8.684 4.397,8.787 4.076,9.238 C2.817,11.004 1.83,12.936 1.142,14.984 C0.966,15.508 1.248,16.074 1.771,16.251 C1.877,16.286 1.984,16.303 2.09,16.303 C2.508,16.303 2.897,16.039 3.038,15.621 C3.663,13.761 4.561,12.004 5.705,10.398 C6.025,9.949 5.921,9.325 5.471,9.004 L5.471,9.004 Z M31.93,4.634 C32.752,5.103 33.549,5.64 34.299,6.226 C34.477,6.364 34.694,6.437 34.915,6.437 C34.979,6.437 35.042,6.432 35.106,6.419 C36.12,6.222 37.078,6.093 37.954,6.034 C38.505,5.997 38.922,5.52 38.885,4.97 C38.849,4.419 38.359,4.018 37.821,4.038 C36.992,4.094 36.102,4.206 35.169,4.373 C34.451,3.836 33.697,3.34 32.923,2.897 C32.444,2.622 31.833,2.79 31.559,3.269 C31.285,3.748 31.451,4.359 31.93,4.634 L31.93,4.634 Z M52.267,8.447 C51.826,8.112 51.199,8.2 50.866,8.641 C50.532,9.081 50.619,9.708 51.06,10.041 C52.299,10.98 53.431,12.064 54.422,13.264 C54.62,13.502 54.906,13.626 55.193,13.626 C55.418,13.626 55.644,13.551 55.83,13.396 C56.256,13.045 56.315,12.414 55.963,11.988 C54.874,10.671 53.63,9.479 52.267,8.447 L52.267,8.447 Z M42.597,6.32 C44.128,6.6 45.625,7.058 47.046,7.683 C47.178,7.74 47.314,7.768 47.449,7.768 C47.833,7.768 48.2,7.545 48.365,7.17 C48.587,6.665 48.357,6.074 47.852,5.852 C46.287,5.164 44.64,4.659 42.955,4.353 C42.408,4.249 41.891,4.615 41.792,5.158 C41.693,5.701 42.054,6.222 42.597,6.32 L42.597,6.32 Z M59.929,19.199 C59.607,18.207 59.209,17.228 58.747,16.29 C58.504,15.795 57.905,15.592 57.408,15.834 C56.913,16.078 56.709,16.678 56.953,17.173 C57.373,18.026 57.734,18.915 58.026,19.816 C58.164,20.239 58.556,20.508 58.978,20.508 C59.08,20.508 59.184,20.492 59.286,20.459 C59.812,20.288 60.099,19.725 59.929,19.199 L59.929,19.199 Z M8.725,26.456 C8.548,25.933 7.981,25.651 7.458,25.826 C6.935,26.002 6.653,26.569 6.828,27.093 C7.167,28.102 7.61,29.082 8.145,30.005 C8.33,30.325 8.666,30.504 9.011,30.504 C9.181,30.504 9.353,30.461 9.511,30.369 C9.989,30.093 10.152,29.48 9.875,29.003 C9.408,28.196 9.021,27.339 8.725,26.456 L8.725,26.456 Z M6.97,22.303 C6.986,22.304 7.001,22.304 7.017,22.304 C7.548,22.304 7.99,21.886 8.015,21.35 C8.094,19.615 8.486,17.935 9.183,16.357 C9.405,15.852 9.176,15.262 8.671,15.039 C8.168,14.818 7.576,15.046 7.353,15.551 C6.557,17.355 6.107,19.276 6.017,21.258 C5.992,21.81 6.418,22.277 6.97,22.303 L6.97,22.303 Z M26.996,6.794 C25.132,6.182 23.143,5.921 21.186,6.019 C20.634,6.047 20.209,6.516 20.237,7.067 C20.264,7.62 20.764,8.059 21.285,8.017 C23.005,7.933 24.741,8.158 26.372,8.694 C26.475,8.728 26.58,8.744 26.684,8.744 C27.104,8.744 27.495,8.477 27.634,8.057 C27.806,7.531 27.521,6.967 26.996,6.794 L26.996,6.794 Z M16.298,9.208 C16.803,8.983 17.029,8.392 16.804,7.888 C16.579,7.383 15.987,7.156 15.483,7.382 C13.681,8.186 12.058,9.307 10.659,10.713 C10.27,11.104 10.271,11.737 10.663,12.127 C10.858,12.321 11.113,12.418 11.368,12.418 C11.625,12.418 11.882,12.319 12.077,12.123 C13.301,10.893 14.721,9.912 16.298,9.208 L16.298,9.208 Z M32.843,13.142 C33.038,13.38 33.325,13.509 33.618,13.509 C33.764,13.509 33.912,13.477 34.051,13.41 C34.941,12.981 35.801,12.66 36.679,12.429 C37.213,12.288 37.532,11.74 37.391,11.207 C37.25,10.672 36.701,10.353 36.168,10.495 C35.413,10.694 34.648,10.96 33.886,11.288 C33.346,10.688 32.759,10.128 32.135,9.616 C31.709,9.267 31.079,9.329 30.728,9.756 C30.377,10.183 30.44,10.812 30.867,11.163 C31.588,11.754 32.253,12.42 32.843,13.142 L32.843,13.142 Z M41.804,11.071 C41.702,11.614 42.06,12.137 42.603,12.238 C44.576,12.609 46.411,13.387 48.059,14.549 C48.233,14.672 48.435,14.731 48.634,14.731 C48.948,14.731 49.257,14.584 49.452,14.308 C49.771,13.856 49.663,13.232 49.211,12.914 C47.328,11.586 45.229,10.697 42.972,10.273 C42.428,10.169 41.907,10.528 41.804,11.071 L41.804,11.071 Z M52.431,17.541 C51.955,17.821 51.796,18.435 52.076,18.91 C53.096,20.644 53.718,22.538 53.925,24.539 C53.979,25.054 54.413,25.436 54.919,25.436 C54.953,25.436 54.988,25.435 55.023,25.432 C55.572,25.374 55.972,24.883 55.915,24.334 C55.678,22.045 54.966,19.879 53.8,17.896 C53.521,17.42 52.907,17.262 52.431,17.541 L52.431,17.541 Z M54.547,29.806 C54.024,29.631 53.458,29.914 53.282,30.436 C52.987,31.319 52.601,32.177 52.135,32.985 C51.859,33.464 52.023,34.076 52.501,34.352 C52.659,34.442 52.831,34.485 53,34.485 C53.346,34.485 53.682,34.306 53.867,33.985 C54.4,33.061 54.842,32.08 55.179,31.071 C55.354,30.547 55.071,29.98 54.547,29.806 L54.547,29.806 Z M44,25.998 C44,23.792 42.206,21.998 40,21.998 C37.794,21.998 36,23.792 36,25.998 L36,32.327 C36.739,32.592 38.171,32.998 40,32.998 C41.845,32.998 43.266,32.595 44,32.329 L44,25.998 Z M46,25.998 L46,32.998 C46,33.377 45.786,33.723 45.447,33.893 C45.357,33.937 43.199,34.998 40,34.998 C36.801,34.998 34.643,33.937 34.553,33.893 C34.214,33.723 34,33.377 34,32.998 L34,25.998 C34,22.689 36.691,19.998 40,19.998 C43.309,19.998 46,22.689 46,25.998 L46,25.998 Z M40,15.998 C36.629,15.998 33.648,17.68 31.836,20.243 C31.003,15.564 26.915,11.998 22,11.998 C16.486,11.998 12,16.484 12,21.998 L12,58.998 C12,59.551 12.448,59.998 13,59.998 C13.552,59.998 14,59.551 14,58.998 L14,21.998 C14,17.587 17.589,13.998 22,13.998 C26.411,13.998 30,17.587 30,21.998 L30,58.998 C30,59.551 30.448,59.998 31,59.998 C31.552,59.998 32,59.551 32,58.998 L32,25.998 C32,21.587 35.589,17.998 40,17.998 C44.411,17.998 48,21.587 48,25.998 L48,58.998 C48,59.551 48.448,59.998 49,59.998 C49.552,59.998 50,59.551 50,58.998 L50,25.998 C50,20.484 45.514,15.998 40,15.998 L40,15.998 Z M26,21.998 C26,19.792 24.206,17.998 22,17.998 C19.794,17.998 18,19.792 18,21.998 L18,28.327 C18.739,28.592 20.171,28.998 22,28.998 C23.845,28.998 25.266,28.595 26,28.329 L26,21.998 Z M28,21.998 L28,28.998 C28,29.377 27.786,29.723 27.447,29.893 C27.357,29.937 25.199,30.998 22,30.998 C18.801,30.998 16.643,29.937 16.553,29.893 C16.214,29.723 16,29.377 16,28.998 L16,21.998 C16,18.689 18.691,15.998 22,15.998 C25.309,15.998 28,18.689 28,21.998 L28,21.998 Z M25,53.998 L19,53.998 C18.448,53.998 18,54.445 18,54.998 C18,55.551 18.448,55.998 19,55.998 L25,55.998 C25.552,55.998 26,55.551 26,54.998 C26,54.445 25.552,53.998 25,53.998 L25,53.998 Z M26,58.998 C26,59.551 25.552,59.998 25,59.998 L19,59.998 C18.448,59.998 18,59.551 18,58.998 C18,58.445 18.448,57.998 19,57.998 L25,57.998 C25.552,57.998 26,58.445 26,58.998 L26,58.998 Z" id="fingers-click"></path>
        </g>
    </g>
</svg>