<?xml version="1.0" encoding="UTF-8" standalone="no"?>
<svg width="56px" height="60px" viewBox="0 0 56 60" version="1.1" xmlns="http://www.w3.org/2000/svg" xmlns:xlink="http://www.w3.org/1999/xlink">
    <!-- Generator: Sketch 3.8.1 (29687) - http://www.bohemiancoding.com/sketch -->
    <title>fingers-rotate</title>
    <desc>Created with Sketch.</desc>
    <defs></defs>
    <g id="People" stroke="none" stroke-width="1" fill="none" fill-rule="evenodd">
        <g id="Icon-50" transform="translate(-2.000000, 0.000000)" fill="#000000">
            <path d="M5.14268778,33.5145 C5.16968778,33.5605 5.20668778,33.5975 5.24068778,33.6375 C5.25568778,33.6565 5.26768778,33.6755 5.28468778,33.6935 C5.36568778,33.7775 5.46068778,33.8435 5.56468778,33.8935 C5.57468778,33.8985 5.57968778,33.9085 5.58968778,33.9115 C5.60368778,33.9175 5.61868778,33.9155 5.63168778,33.9205 C5.74768778,33.9675 5.87068778,33.9985 5.99768778,33.9995 L5.99868778,33.9995 L5.99968778,33.9995 C6.05468778,33.9995 6.10968778,33.9945 6.16368778,33.9865 L12.1636878,32.9865 C12.7086878,32.8955 13.0776878,32.3795 12.9866878,31.8355 C12.8956878,31.2905 12.3806878,30.9195 11.8356878,31.0135 L7.70868778,31.7015 C16.1666878,14.1255 28.8036878,6.5485 50.5546878,6.0315 L48.2926878,8.2925 C47.9026878,8.6835 47.9026878,9.3165 48.2926878,9.7065 C48.4886878,9.9025 48.7446878,9.9995 48.9996878,9.9995 C49.2556878,9.9995 49.5116878,9.9025 49.7066878,9.7065 L53.7056878,5.7075 C53.7986878,5.6165 53.8716878,5.5045 53.9226878,5.3815 C54.0246878,5.1375 54.0246878,4.8625 53.9226878,4.6185 C53.8716878,4.4945 53.7986878,4.3835 53.7056878,4.2915 L49.7066878,0.2925 C49.3166878,-0.0975 48.6836878,-0.0975 48.2926878,0.2925 C47.9026878,0.6835 47.9026878,1.3165 48.2926878,1.7065 L50.6156878,4.0295 C28.1966878,4.5585 14.6426878,12.6985 5.88968778,30.8715 L3.85768778,27.4855 C3.57368778,27.0125 2.95868778,26.8585 2.48568778,27.1425 C2.01168778,27.4265 1.85868778,28.0405 2.14268778,28.5145 L5.14268778,33.5145 Z M17.7516878,42.3455 C11.9046878,35.6695 5.71068778,38.4895 4.52768778,39.1225 C1.48068778,40.7555 1.77068778,42.6115 2.45768778,44.2175 L9.08268778,59.4005 C9.24268778,59.7645 9.60268778,59.9995 9.99968778,59.9995 L12.9996878,59.9995 C13.5526878,59.9995 13.9996878,59.5525 13.9996878,58.9995 C13.9996878,58.4475 13.5526878,57.9995 12.9996878,57.9995 L10.6546878,57.9995 L8.31768778,52.6435 C10.0296878,51.9415 10.8346878,50.5615 10.8736878,50.4905 C11.0346878,50.2015 11.0416878,49.8525 10.8946878,49.5575 L7.89468778,43.5575 C7.64668778,43.0635 7.04668778,42.8645 6.55268778,43.1105 C6.05868778,43.3575 5.85868778,43.9575 6.10568778,44.4525 L8.83168778,49.9065 C8.57468778,50.1955 8.14068778,50.5785 7.52168778,50.8215 L4.29368778,43.4235 C3.87968778,42.4565 3.62968778,41.8725 5.47268778,40.8865 C6.41968778,40.3775 11.3946878,38.1215 16.2006878,43.6055 L28.2006878,59.6005 C28.3966878,59.8625 28.6976878,59.9995 29.0006878,59.9995 C29.2096878,59.9995 29.4196878,59.9345 29.6006878,59.7995 C30.0416878,59.4685 30.1306878,58.8415 29.7996878,58.3995 L17.7516878,42.3455 Z M51.9996878,21.9995 C51.9996878,19.7935 50.2056878,17.9995 47.9996878,17.9995 C45.7936878,17.9995 43.9996878,19.7935 43.9996878,21.9995 L43.9996878,28.3285 C44.7396878,28.5935 46.1716878,28.9995 47.9996878,28.9995 C49.8446878,28.9995 51.2656878,28.5965 51.9996878,28.3305 L51.9996878,21.9995 Z M53.9996878,21.9995 L53.9996878,28.9995 C53.9996878,29.3785 53.7866878,29.7245 53.4476878,29.8945 C53.3566878,29.9395 51.1996878,30.9995 47.9996878,30.9995 C44.8006878,30.9995 42.6436878,29.9395 42.5526878,29.8945 C42.2136878,29.7245 41.9996878,29.3785 41.9996878,28.9995 L41.9996878,21.9995 C41.9996878,18.6915 44.6916878,15.9995 47.9996878,15.9995 C51.3086878,15.9995 53.9996878,18.6915 53.9996878,21.9995 L53.9996878,21.9995 Z M50.9996878,53.9995 L44.9996878,53.9995 C44.4476878,53.9995 43.9996878,54.4475 43.9996878,54.9995 C43.9996878,55.5525 44.4476878,55.9995 44.9996878,55.9995 L50.9996878,55.9995 C51.5526878,55.9995 51.9996878,55.5525 51.9996878,54.9995 C51.9996878,54.4475 51.5526878,53.9995 50.9996878,53.9995 L50.9996878,53.9995 Z M50.9996878,57.9995 L44.9996878,57.9995 C44.4476878,57.9995 43.9996878,58.4475 43.9996878,58.9995 C43.9996878,59.5525 44.4476878,59.9995 44.9996878,59.9995 L50.9996878,59.9995 C51.5526878,59.9995 51.9996878,59.5525 51.9996878,58.9995 C51.9996878,58.4475 51.5526878,57.9995 50.9996878,57.9995 L50.9996878,57.9995 Z M57.9996878,21.9995 L57.9996878,58.9995 C57.9996878,59.5525 57.5526878,59.9995 56.9996878,59.9995 C56.4476878,59.9995 55.9996878,59.5525 55.9996878,58.9995 L55.9996878,21.9995 C55.9996878,17.5885 52.4116878,13.9995 47.9996878,13.9995 C43.5886878,13.9995 39.9996878,17.5885 39.9996878,21.9995 L39.9996878,58.9995 C39.9996878,59.5525 39.5526878,59.9995 38.9996878,59.9995 C38.4476878,59.9995 37.9996878,59.5525 37.9996878,58.9995 L37.9996878,21.9995 C37.9996878,16.4865 42.4866878,11.9995 47.9996878,11.9995 C53.5136878,11.9995 57.9996878,16.4865 57.9996878,21.9995 L57.9996878,21.9995 Z" id="fingers-rotate"></path>
        </g>
    </g>
</svg>