<?xml version="1.0" encoding="UTF-8" standalone="no"?>
<svg width="60px" height="60px" viewBox="0 0 60 60" version="1.1" xmlns="http://www.w3.org/2000/svg" xmlns:xlink="http://www.w3.org/1999/xlink">
    <!-- Generator: Sketch 3.8.1 (29687) - http://www.bohemiancoding.com/sketch -->
    <title>fingers-zoom</title>
    <desc>Created with Sketch.</desc>
    <defs></defs>
    <g id="People" stroke="none" stroke-width="1" fill="none" fill-rule="evenodd">
        <g id="Icon-49" fill="#000000">
            <path d="M59.92,6.38415359 C59.926,6.36915359 59.924,6.35415359 59.929,6.33915359 C59.962,6.24715359 59.98,6.15315359 59.985,6.05415359 C59.986,6.03015359 59.994,6.00515359 59.994,5.98115359 C59.992,5.86515359 59.973,5.75015359 59.93,5.63915359 L57.992,0.639153592 C57.792,0.123153592 57.215,-0.131846408 56.698,0.0681535917 C56.184,0.268153592 55.928,0.847153592 56.127,1.36215359 L57.265,4.29615359 C53.082,2.86815359 43.053,0.000153591741 29.997,0.000153591741 C16.941,0.000153591741 6.912,2.86815359 2.73,4.29615359 L3.867,1.36215359 C4.066,0.847153592 3.811,0.268153592 3.296,0.0681535917 C2.78,-0.131846408 2.201,0.123153592 2.002,0.639153592 L0.065,5.63915359 C0.022,5.75015359 0.002,5.86515359 -2.13162821e-14,5.98115359 C-2.13162821e-14,6.00515359 0.008,6.03015359 0.009,6.05415359 C0.015,6.15315359 0.032,6.24715359 0.066,6.33915359 C0.07,6.35415359 0.068,6.36915359 0.074,6.38415359 C0.084,6.40615359 0.104,6.42115359 0.114,6.44415359 C0.152,6.51915359 0.198,6.58715359 0.255,6.65215359 C0.284,6.68515359 0.312,6.71715359 0.345,6.74515359 C0.364,6.76215359 0.377,6.78415359 0.398,6.80015359 L4.398,9.80015359 C4.577,9.93515359 4.787,10.0001536 4.996,10.0001536 C5.301,10.0001536 5.601,9.86315359 5.797,9.60015359 C6.129,9.15815359 6.039,8.53115359 5.597,8.20015359 L3.068,6.30315359 C6.919,4.98115359 17.031,2.00015359 29.997,2.00015359 C42.963,2.00015359 53.075,4.98115359 56.926,6.30315359 L54.398,8.20015359 C53.955,8.53115359 53.865,9.15815359 54.197,9.60015359 C54.394,9.86315359 54.693,10.0001536 54.998,10.0001536 C55.207,10.0001536 55.417,9.93515359 55.597,9.80015359 L59.597,6.80015359 C59.621,6.78115359 59.636,6.75615359 59.658,6.73715359 C59.705,6.69415359 59.751,6.65115359 59.79,6.59915359 C59.819,6.55915359 59.842,6.51715359 59.865,6.47415359 C59.883,6.44315359 59.906,6.41715359 59.92,6.38415359 M45.603,53.6251536 L39.635,52.9981536 C39.089,52.9341536 38.594,53.3381536 38.536,53.8881536 C38.479,54.4371536 38.877,54.9291536 39.426,54.9871536 L45.394,55.6131536 C45.429,55.6171536 45.464,55.6191536 45.499,55.6191536 C46.005,55.6191536 46.439,55.2381536 46.492,54.7241536 C46.55,54.1751536 46.151,53.6831536 45.603,53.6251536 M45.185,57.6041536 L39.218,56.9771536 C38.676,56.9161536 38.177,57.3181536 38.119,57.8661536 C38.062,58.4151536 38.46,58.9071536 39.009,58.9651536 L44.976,59.5921536 C45.011,59.5961536 45.046,59.5981536 45.081,59.5981536 C45.587,59.5981536 46.021,59.2161536 46.074,58.7021536 C46.132,58.1541536 45.733,57.6611536 45.185,57.6041536 M49.106,18.7441536 C48.433,17.9141536 47.478,17.3961536 46.415,17.2831536 C44.192,17.0561536 42.248,18.6621536 42.018,20.8441536 L41.357,27.1381536 C42.065,27.4791536 43.446,28.0321536 45.265,28.2241536 C45.696,28.2691536 46.136,28.2921536 46.57,28.2921536 C47.777,28.2921536 48.741,28.1141536 49.313,27.9741536 L49.975,21.6801536 C50.086,20.6171536 49.777,19.5751536 49.106,18.7441536 M50.589,29.6831536 C50.523,29.7071536 48.937,30.2921536 46.57,30.2921536 C46.066,30.2921536 45.557,30.2651536 45.056,30.2121536 C41.874,29.8781536 39.839,28.5991536 39.754,28.5441536 C39.435,28.3401536 39.258,27.9741536 39.298,27.5971536 L40.029,20.6351536 C40.373,17.3641536 43.276,14.9471536 46.624,15.2951536 C49.914,15.6411536 52.31,18.5991536 51.963,21.8891536 L51.232,28.8511536 C51.192,29.2281536 50.943,29.5501536 50.589,29.6831536 M47.042,11.3171536 C44.378,11.0301536 41.778,11.8101536 39.703,13.4901536 C37.628,15.1721536 36.33,17.5611536 36.052,20.2171536 L32.003,58.8961536 C31.945,59.4461536 32.344,59.9381536 32.893,59.9941536 C33.46,60.0521536 33.934,59.6531536 33.991,59.1051536 L38.04,20.4261536 C38.264,18.3011536 39.302,16.3901536 40.962,15.0451536 C42.624,13.6991536 44.71,13.0871536 46.833,13.3051536 C48.958,13.5291536 50.868,14.5671536 52.213,16.2271536 C53.559,17.8881536 54.176,19.9731536 53.952,22.0981536 L50.085,58.8961536 C50.026,59.4451536 50.426,59.9371536 50.975,59.9941536 C51.01,59.9981536 51.045,60.0001536 51.08,60.0001536 C51.586,60.0001536 52.02,59.6181536 52.073,59.1051536 L55.941,22.3071536 C56.221,19.6511536 55.448,17.0441536 53.768,14.9681536 C52.087,12.8931536 49.698,11.5961536 47.042,11.3171536 M14.73,28.2251536 C16.547,28.0321536 17.929,27.4801536 18.638,27.1381536 L17.976,20.8441536 C17.746,18.6621536 15.807,17.0571536 13.579,17.2841536 C12.517,17.3971536 11.562,17.9151536 10.889,18.7451536 C10.217,19.5751536 9.907,20.6181536 10.019,21.6811536 L10.682,27.9751536 C11.252,28.1141536 12.217,28.2931536 13.426,28.2931536 C13.859,28.2931536 14.298,28.2701536 14.73,28.2251536 M14.939,30.2131536 C14.438,30.2661536 13.929,30.2931536 13.426,30.2931536 C11.059,30.2931536 9.472,29.7071536 9.405,29.6831536 C9.051,29.5491536 8.802,29.2281536 8.763,28.8511536 L8.03,21.8901536 C7.862,20.2961536 8.326,18.7331536 9.335,17.4871536 C10.343,16.2411536 11.776,15.4631536 13.37,15.2961536 C16.7,14.9391536 19.62,17.3631536 19.964,20.6351536 L20.696,27.5971536 C20.736,27.9741536 20.56,28.3401536 20.24,28.5441536 C20.155,28.5991536 18.12,29.8781536 14.939,30.2131536 M14.567,55.3891536 L20.534,54.7621536 C21.083,54.7041536 21.482,54.2121536 21.424,53.6631536 C21.366,53.1131536 20.866,52.7081536 20.325,52.7741536 L14.358,53.4011536 C13.81,53.4581536 13.411,53.9501536 13.469,54.4991536 C13.523,55.0131536 13.956,55.3951536 14.462,55.3951536 C14.497,55.3951536 14.532,55.3931536 14.567,55.3891536 M20.744,56.7521536 L14.777,57.3791536 C14.229,57.4371536 13.83,57.9291536 13.888,58.4781536 C13.941,58.9911536 14.375,59.3731536 14.881,59.3731536 C14.916,59.3731536 14.951,59.3711536 14.986,59.3671536 L20.953,58.7401536 C21.502,58.6831536 21.9,58.1911536 21.843,57.6421536 C21.785,57.0921536 21.279,56.6911536 20.744,56.7521536 M23.942,20.2171536 L27.991,58.8961536 C28.049,59.4461536 27.65,59.9381536 27.102,59.9941536 C26.526,60.0541536 26.061,59.6541536 26.003,59.1051536 L21.954,20.4261536 C21.731,18.3011536 20.692,16.3901536 19.032,15.0451536 C17.372,13.7011536 15.29,13.0871536 13.161,13.3061536 C11.036,13.5301536 9.125,14.5681536 7.78,16.2281536 C6.436,17.8891536 5.818,19.9741536 6.041,22.0991536 L9.908,58.8961536 C9.966,59.4451536 9.567,59.9371536 9.019,59.9941536 C8.983,59.9981536 8.948,60.0001536 8.913,60.0001536 C8.407,60.0001536 7.974,59.6181536 7.92,59.1051536 L4.053,22.3081536 C3.774,19.6521536 4.545,17.0451536 6.226,14.9691536 C7.907,12.8941536 10.296,11.5961536 12.952,11.3181536 C15.601,11.0341536 18.214,11.8101536 20.291,13.4901536 C22.366,15.1721536 23.664,17.5611536 23.942,20.2171536" id="fingers-zoom"></path>
        </g>
    </g>
</svg>