<?xml version="1.0" encoding="UTF-8" standalone="no"?>
<svg width="60px" height="60px" viewBox="0 0 60 60" version="1.1" xmlns="http://www.w3.org/2000/svg" xmlns:xlink="http://www.w3.org/1999/xlink">
    <!-- Generator: Sketch 3.8.1 (29687) - http://www.bohemiancoding.com/sketch -->
    <title>finger-zoom</title>
    <desc>Created with Sketch.</desc>
    <defs></defs>
    <g id="People" stroke="none" stroke-width="1" fill="none" fill-rule="evenodd">
        <g id="Icon-48" fill="#000000">
            <path d="M17.8442,16.9609 C12.6632,17.7719 8.4052,18.9359 5.1972,19.8979 L1.6002,17.1999 C1.1572,16.8699 0.5312,16.9579 0.2002,17.3999 C-0.1318,17.8419 -0.0418,18.4689 0.4002,18.7999 L3.7942,21.3459 L2.1302,25.6389 C1.9302,26.1529 2.1862,26.7319 2.7012,26.9329 C2.8202,26.9789 2.9422,26.9999 3.0622,26.9999 C3.4632,26.9999 3.8412,26.7579 3.9952,26.3609 L5.7562,21.8179 C8.9042,20.8729 13.0822,19.7309 18.1542,18.9379 C18.6992,18.8519 19.0722,18.3399 18.9872,17.7949 C18.9022,17.2489 18.3932,16.8829 17.8442,16.9609 L17.8442,16.9609 Z M59.9972,21.9809 C59.9952,21.8649 59.9752,21.7499 59.9322,21.6389 L57.9952,16.6389 C57.7952,16.1229 57.2182,15.8679 56.7012,16.0669 C56.1862,16.2679 55.9302,16.8469 56.1302,17.3609 L57.2682,20.2989 C54.5122,19.3609 49.2072,17.7979 42.1362,16.8299 C41.5842,16.7599 41.0842,17.1389 41.0092,17.6859 C40.9342,18.2329 41.3172,18.7369 41.8642,18.8129 C48.9992,19.7879 54.3612,21.4169 56.9292,22.3029 L54.4002,24.1999 C53.9582,24.5309 53.8682,25.1579 54.2002,25.5999 C54.3962,25.8619 54.6962,25.9999 55.0012,25.9999 C55.2102,25.9999 55.4202,25.9349 55.5992,25.7999 L59.5992,22.7999 C59.6242,22.7809 59.6382,22.7559 59.6612,22.7359 C59.7082,22.6929 59.7542,22.6499 59.7932,22.5989 C59.8222,22.5589 59.8442,22.5169 59.8682,22.4739 C59.8862,22.4419 59.9092,22.4169 59.9232,22.3839 C59.9282,22.3689 59.9272,22.3539 59.9312,22.3389 C59.9652,22.2469 59.9822,22.1519 59.9882,22.0539 C59.9892,22.0289 59.9972,22.0049 59.9972,21.9809 L59.9972,21.9809 Z M3.7942,5.3459 L2.1302,9.6389 C1.9302,10.1529 2.1862,10.7319 2.7012,10.9329 C2.8202,10.9789 2.9422,10.9999 3.0622,10.9999 C3.4632,10.9999 3.8412,10.7579 3.9952,10.3609 L5.7562,5.8159 C9.6242,4.6479 18.7912,1.9999 30.0002,1.9999 C42.9662,1.9999 53.0782,4.9809 56.9282,6.3029 L54.4002,8.1999 C53.9582,8.5309 53.8682,9.1579 54.2002,9.5999 C54.3962,9.8619 54.6962,9.9999 55.0012,9.9999 C55.2102,9.9999 55.4202,9.9349 55.5992,9.7999 L59.5992,6.7999 C59.6242,6.7809 59.6382,6.7559 59.6612,6.7359 C59.7082,6.6929 59.7542,6.6499 59.7932,6.5989 C59.8222,6.5589 59.8442,6.5169 59.8682,6.4739 C59.8862,6.4419 59.9092,6.4169 59.9232,6.3839 C59.9282,6.3689 59.9272,6.3539 59.9312,6.3389 C59.9652,6.2469 59.9822,6.1519 59.9882,6.0539 C59.9892,6.0289 59.9972,6.0049 59.9972,5.9809 C59.9952,5.8649 59.9752,5.7499 59.9322,5.6389 L57.9952,0.6389 C57.7952,0.1229 57.2182,-0.1321 56.7012,0.0669 C56.1862,0.2679 55.9302,0.8469 56.1302,1.3609 L57.2672,4.2959 C53.0852,2.8679 43.0552,-9.99999999e-05 30.0002,-9.99999999e-05 C19.5682,-9.99999999e-05 10.9252,2.1819 5.1962,3.8979 L1.6002,1.1999 C1.1572,0.8689 0.5312,0.9579 0.2002,1.3999 C-0.1318,1.8419 -0.0418,2.4689 0.4002,2.7999 L3.7942,5.3459 Z M34.0002,21.9999 C34.0002,19.7939 32.2062,17.9999 30.0002,17.9999 C27.7942,17.9999 26.0002,19.7939 26.0002,21.9999 L26.0002,28.3289 C26.7392,28.5939 28.1712,28.9999 30.0002,28.9999 C31.8442,28.9999 33.2652,28.5969 34.0002,28.3309 L34.0002,21.9999 Z M36.0002,21.9999 L36.0002,28.9999 C36.0002,29.3789 35.7862,29.7249 35.4472,29.8949 C35.3562,29.9399 33.1992,30.9999 30.0002,30.9999 C26.8012,30.9999 24.6432,29.9399 24.5522,29.8949 C24.2142,29.7249 24.0002,29.3789 24.0002,28.9999 L24.0002,21.9999 C24.0002,18.6909 26.6912,15.9999 30.0002,15.9999 C33.3082,15.9999 36.0002,18.6909 36.0002,21.9999 L36.0002,21.9999 Z M33.0002,53.9999 L27.0002,53.9999 C26.4482,53.9999 26.0002,54.4469 26.0002,54.9999 C26.0002,55.5529 26.4482,55.9999 27.0002,55.9999 L33.0002,55.9999 C33.5522,55.9999 34.0002,55.5529 34.0002,54.9999 C34.0002,54.4469 33.5522,53.9999 33.0002,53.9999 L33.0002,53.9999 Z M33.0002,57.9999 L27.0002,57.9999 C26.4482,57.9999 26.0002,58.4469 26.0002,58.9999 C26.0002,59.5529 26.4482,59.9999 27.0002,59.9999 L33.0002,59.9999 C33.5522,59.9999 34.0002,59.5529 34.0002,58.9999 C34.0002,58.4469 33.5522,57.9999 33.0002,57.9999 L33.0002,57.9999 Z M40.0002,21.9999 L40.0002,58.9999 C40.0002,59.5529 39.5522,59.9999 39.0002,59.9999 C38.4472,59.9999 38.0002,59.5529 38.0002,58.9999 L38.0002,21.9999 C38.0002,17.5889 34.4112,13.9999 30.0002,13.9999 C25.5892,13.9999 22.0002,17.5889 22.0002,21.9999 L22.0002,58.9999 C22.0002,59.5529 21.5522,59.9999 21.0002,59.9999 C20.4482,59.9999 20.0002,59.5529 20.0002,58.9999 L20.0002,21.9999 C20.0002,16.4859 24.4862,11.9999 30.0002,11.9999 C35.5132,11.9999 40.0002,16.4859 40.0002,21.9999 L40.0002,21.9999 Z" id="finger-zoom"></path>
        </g>
    </g>
</svg>