<?xml version="1.0" encoding="UTF-8" standalone="no"?>
<svg width="60px" height="60px" viewBox="0 0 60 60" version="1.1" xmlns="http://www.w3.org/2000/svg" xmlns:xlink="http://www.w3.org/1999/xlink">
    <!-- Generator: Sketch 3.8.1 (29687) - http://www.bohemiancoding.com/sketch -->
    <title>hard-disks</title>
    <desc>Created with Sketch.</desc>
    <defs></defs>
    <g id="People" stroke="none" stroke-width="1" fill="none" fill-rule="evenodd">
        <g id="Icon-29" fill="#000000">
            <path d="M1,40 C1.553,40 2,39.553 2,39 L2,28 L55,28 C55.553,28 56,27.553 56,27 C56,26.447 55.553,26 55,26 L1,26 C0.447,26 0,26.447 0,27 L0,39 C0,39.553 0.447,40 1,40 L1,40 Z M11,34 C10.447,34 10,34.447 10,35 C10,35.553 10.447,36 11,36 L29,36 C29.553,36 30,35.553 30,35 C30,34.447 29.553,34 29,34 L11,34 Z M39,34 C38.448,34 38,34.448 38,35 C38,35.552 38.448,36 39,36 C39.552,36 40,35.552 40,35 C40,34.448 39.552,34 39,34 L39,34 Z M39,32 C40.654,32 42,33.346 42,35 C42,36.654 40.654,38 39,38 C37.346,38 36,36.654 36,35 C36,33.346 37.346,32 39,32 L39,32 Z M47,34 C46.448,34 46,34.448 46,35 C46,35.552 46.448,36 47,36 C47.552,36 48,35.552 48,35 C48,34.448 47.552,34 47,34 L47,34 Z M47,32 C48.654,32 50,33.346 50,35 C50,36.654 48.654,38 47,38 C45.346,38 44,36.654 44,35 C44,33.346 45.346,32 47,32 L47,32 Z M11,50 C10.447,50 10,50.447 10,51 C10,51.553 10.447,52 11,52 L29,52 C29.553,52 30,51.553 30,51 C30,50.447 29.553,50 29,50 L11,50 Z M39,50 C38.448,50 38,50.448 38,51 C38,51.552 38.448,52 39,52 C39.552,52 40,51.552 40,51 C40,50.448 39.552,50 39,50 L39,50 Z M39,48 C40.654,48 42,49.346 42,51 C42,52.654 40.654,54 39,54 C37.346,54 36,52.654 36,51 C36,49.346 37.346,48 39,48 L39,48 Z M47,50 C46.448,50 46,50.448 46,51 C46,51.552 46.448,52 47,52 C47.552,52 48,51.552 48,51 C48,50.448 47.552,50 47,50 L47,50 Z M47,48 C48.654,48 50,49.346 50,51 C50,52.654 48.654,54 47,54 C45.346,54 44,52.654 44,51 C44,49.346 45.346,48 47,48 L47,48 Z M60,5 L60,55 C60,57.57 57.57,60 55,60 L5,60 C2.43,60 0,57.57 0,55 L0,43 C0,42.447 0.447,42 1,42 L55,42 C55.553,42 56,42.447 56,43 C56,43.553 55.553,44 55,44 L2,44 L2,55 C2,56.458 3.542,58 5,58 L55,58 C56.458,58 58,56.458 58,55 L58,5 C58,3.542 56.458,2 55,2 L5,2 C3.542,2 2,3.542 2,5 L2,23 C2,23.553 1.553,24 1,24 C0.447,24 0,23.553 0,23 L0,5 C0,2.43 2.43,0 5,0 L55,0 C57.57,0 60,2.43 60,5 L60,5 Z" id="hard-disks"></path>
        </g>
    </g>
</svg>