<?xml version="1.0" encoding="UTF-8" standalone="no"?>
<svg width="40px" height="60px" viewBox="0 0 40 60" version="1.1" xmlns="http://www.w3.org/2000/svg" xmlns:xlink="http://www.w3.org/1999/xlink">
    <!-- Generator: Sketch 3.8.1 (29687) - http://www.bohemiancoding.com/sketch -->
    <title>hook</title>
    <desc>Created with Sketch.</desc>
    <defs></defs>
    <g id="People" stroke="none" stroke-width="1" fill="none" fill-rule="evenodd">
        <g id="Icon-20" transform="translate(-10.000000, 0.000000)" fill="#000000">
            <path d="M48,58 L12,58 L12,56 L41,56 C41.553,56 42,55.552 42,55 C42,54.448 41.553,54 41,54 L16,54 C16,46.28 22.28,40 30,40 C37.72,40 44,46.28 44,54 L44,55 C44,55.552 44.447,56 45,56 L48,56 L48,58 Z M48,54 L46,54 C46,46.204 40.392,39.701 33,38.292 L33,31.703 C40.471,30.282 46,23.681 46,16 C46,7.178 38.822,0 30,0 C27.454,0 24.932,0.611 22.68,1.771 L19.211,1.022 C18.989,0.975 18.756,1.004 18.553,1.105 L16.553,2.105 C16.266,2.25 16.064,2.522 16.013,2.84 C15.961,3.157 16.065,3.48 16.293,3.707 L21.515,8.929 C21.905,9.319 22.538,9.319 22.929,8.929 C24.818,7.04 27.33,6 30,6 C35.514,6 40,10.486 40,16 C40,21.514 35.514,26 30,26 C29.411,26 28.816,25.943 28.182,25.826 C27.891,25.771 27.588,25.851 27.36,26.041 C27.132,26.231 27,26.513 27,26.81 L27,35.5 C27,36.052 27.447,36.5 28,36.5 C28.553,36.5 29,36.052 29,35.5 L29,27.956 C36.049,28.58 42,22.949 42,16 C42,9.383 36.617,4 30,4 C27.131,4 24.415,5 22.251,6.836 L18.688,3.274 L19.133,3.052 L22.614,3.803 C22.847,3.853 23.094,3.817 23.304,3.703 C25.347,2.589 27.662,2 30,2 C37.72,2 44,8.28 44,16 C44,22.978 38.784,28.937 31.867,29.86 C31.371,29.927 31,30.351 31,30.852 L31,38.051 C30.668,38.03 30.338,38 30,38 C21.178,38 14,45.178 14,54 L12,54 C10.897,54 10,54.897 10,56 L10,58 C10,59.103 10.897,60 12,60 L48,60 C49.103,60 50,59.103 50,58 L50,56 C50,54.897 49.103,54 48,54 L48,54 Z" id="hook"></path>
        </g>
    </g>
</svg>