<?xml version="1.0" encoding="UTF-8" standalone="no"?>
<svg width="60px" height="60px" viewBox="0 0 60 60" version="1.1" xmlns="http://www.w3.org/2000/svg" xmlns:xlink="http://www.w3.org/1999/xlink">
    <!-- Generator: Sketch 3.8.1 (29687) - http://www.bohemiancoding.com/sketch -->
    <title>location-pin</title>
    <desc>Created with Sketch.</desc>
    <defs></defs>
    <g id="People" stroke="none" stroke-width="1" fill="none" fill-rule="evenodd">
        <g id="Icon-19" fill="#000000">
            <path d="M32.0811,5.2402 C32.3161,4.7412 32.9131,4.5272 33.4121,4.7622 C35.0961,5.5572 36.4581,6.9232 37.2471,8.6082 C37.4811,9.1082 37.2671,9.7032 36.7661,9.9382 C36.6291,10.0022 36.4841,10.0322 36.3431,10.0322 C35.9671,10.0322 35.6061,9.8192 35.4361,9.4562 C34.8441,8.1922 33.8221,7.1682 32.5591,6.5712 C32.0591,6.3352 31.8461,5.7392 32.0811,5.2402 L32.0811,5.2402 Z M30.0001,2.0002 C35.5141,2.0002 40.0001,6.4862 40.0001,12.0002 C40.0001,17.5142 35.5141,22.0002 30.0001,22.0002 C24.4861,22.0002 20.0001,17.5142 20.0001,12.0002 C20.0001,6.4862 24.4861,2.0002 30.0001,2.0002 L30.0001,2.0002 Z M29.0001,23.9492 L29.0001,51.0002 C29.0001,51.5522 29.4471,52.0002 30.0001,52.0002 C30.5531,52.0002 31.0001,51.5522 31.0001,51.0002 L31.0001,23.9492 C37.1501,23.4382 42.0001,18.2792 42.0001,12.0002 C42.0001,5.3832 36.6171,0.0002 30.0001,0.0002 C23.3831,0.0002 18.0001,5.3832 18.0001,12.0002 C18.0001,18.2792 22.8501,23.4382 29.0001,23.9492 L29.0001,23.9492 Z M58.0001,53.0002 C58.0001,55.7572 55.7571,58.0002 53.0001,58.0002 L39.6661,58.0002 L38.8331,56.0002 L55.0001,56.0002 C55.5531,56.0002 56.0001,55.5522 56.0001,55.0002 C56.0001,54.4482 55.5531,54.0002 55.0001,54.0002 L49.0001,54.0002 L53.4651,48.0472 C56.0011,48.2852 58.0001,50.4022 58.0001,53.0002 L58.0001,53.0002 Z M15.6181,56.0002 L36.6671,56.0002 L37.5001,58.0002 L14.6181,58.0002 L15.6181,56.0002 Z M59.0001,47.0002 C59.5531,47.0002 60.0001,46.5522 60.0001,46.0002 L60.0001,43.0002 C60.0001,39.1402 56.8591,36.0002 53.0001,36.0002 C52.4471,36.0002 52.0001,36.4482 52.0001,37.0002 L52.0001,46.6672 L46.5001,54.0002 L38.0001,54.0002 L35.5001,48.0002 L49.0001,48.0002 C49.5531,48.0002 50.0001,47.5522 50.0001,47.0002 C50.0001,46.4482 49.5531,46.0002 49.0001,46.0002 L34.0001,46.0002 C33.6661,46.0002 33.3531,46.1672 33.1681,46.4452 C32.9821,46.7232 32.9481,47.0762 33.0771,47.3852 L35.8341,54.0002 L16.6181,54.0002 L19.6181,48.0002 L26.0001,48.0002 C26.5531,48.0002 27.0001,47.5522 27.0001,47.0002 C27.0001,46.4482 26.5531,46.0002 26.0001,46.0002 L11.0001,46.0002 C10.4471,46.0002 10.0001,46.4482 10.0001,47.0002 C10.0001,47.5522 10.4471,48.0002 11.0001,48.0002 L17.3821,48.0002 L14.5171,53.7302 L5.3711,50.0712 C4.8631,49.8672 4.2761,50.1152 4.0711,50.6282 C3.8661,51.1412 4.1161,51.7232 4.6291,51.9282 L13.6191,55.5252 L12.3821,58.0002 L7.0001,58.0002 C4.2431,58.0002 2.0001,55.7572 2.0001,53.0002 C2.0001,50.2432 4.2431,48.0002 7.0001,48.0002 C7.2661,48.0002 7.5191,47.8942 7.7071,47.7072 C7.8941,47.5192 8.0001,47.2652 8.0001,47.0002 L7.9991,37.0002 C7.9991,36.4482 7.5521,36.0002 6.9991,36.0002 C3.1401,36.0002 0.0001,39.1402 0.0001,43.0002 L0.0001,46.0002 C0.0001,46.5522 0.4471,47.0002 1.0001,47.0002 C1.5531,47.0002 2.0001,46.5522 2.0001,46.0002 L2.0001,43.0002 C2.0001,40.5852 3.7201,38.5652 5.9991,38.1002 L6.0001,46.0712 C2.6121,46.5582 0.0001,49.4792 0.0001,53.0002 C0.0001,56.8602 3.1411,60.0002 7.0001,60.0002 L38.9971,60.0002 L39.0001,60.0002 L39.0021,60.0002 L53.0001,60.0002 C56.8591,60.0002 60.0001,56.8602 60.0001,53.0002 C60.0001,49.4792 57.3881,46.5582 54.0001,46.0712 L54.0001,38.1002 C56.2791,38.5652 58.0001,40.5852 58.0001,43.0002 L58.0001,46.0002 C58.0001,46.5522 58.4471,47.0002 59.0001,47.0002 L59.0001,47.0002 Z" id="location-pin"></path>
        </g>
    </g>
</svg>