<?xml version="1.0" encoding="UTF-8" standalone="no"?>
<svg width="44px" height="60px" viewBox="0 0 44 60" version="1.1" xmlns="http://www.w3.org/2000/svg" xmlns:xlink="http://www.w3.org/1999/xlink">
    <!-- Generator: Sketch 3.8.1 (29687) - http://www.bohemiancoding.com/sketch -->
    <title>microphone</title>
    <desc>Created with Sketch.</desc>
    <defs></defs>
    <g id="People" stroke="none" stroke-width="1" fill="none" fill-rule="evenodd">
        <g id="Icon-25" transform="translate(-8.000000, 0.000000)" fill="#000000">
            <path d="M51,32 L49,32 C48.447,32 48,32.448 48,33 C48,41.895 41.644,49.364 32.88,50.771 C32.384,50.831 32,51.252 32,51.764 L32,59 C32,59.552 32.447,60 33,60 C33.553,60 34,59.552 34,59 L34,52.601 C42.994,50.786 49.51,43.165 49.957,34 L51,34 C51.553,34 52,33.552 52,33 C52,32.448 51.553,32 51,32 M27.137,50.774 C18.365,49.373 12,41.9 12,33 C12,32.448 11.553,32 11,32 L9,32 C8.447,32 8,32.448 8,33 C8,33.552 8.447,34 9,34 L10.043,34 C10.49,43.165 17.006,50.786 26,52.601 L26,59 C26,59.552 26.447,60 27,60 C27.553,60 28,59.552 28,59 L28,51.764 C28,51.26 27.623,50.842 27.137,50.774 M30,48 C22.28,48 16,41.72 16,34 L16,33 C16,32.448 16.447,32 17,32 L39,32 C39.553,32 40,32.448 40,33 C40,33.552 39.553,34 39,34 L18,34 C18,40.617 23.383,46 30,46 C36.617,46 42,40.617 42,34 L42,28 L35,28 C34.447,28 34,27.552 34,27 C34,26.448 34.447,26 35,26 L42,26 L42,22 L35,22 C34.447,22 34,21.552 34,21 C34,20.448 34.447,20 35,20 L42,20 L42,16 L35,16 C34.447,16 34,15.552 34,15 C34,14.448 34.447,14 35,14 L42,14 C42,7.383 36.617,2 30,2 C23.383,2 18,7.383 18,14 L21,14 C21.553,14 22,14.448 22,15 C22,15.552 21.553,16 21,16 L18,16 L18,20 L21,20 C21.553,20 22,20.448 22,21 C22,21.552 21.553,22 21,22 L18,22 L18,26 L21,26 C21.553,26 22,26.448 22,27 C22,27.552 21.553,28 21,28 L18,28 L18,29 C18,29.552 17.553,30 17,30 C16.447,30 16,29.552 16,29 L16,14 C16,6.28 22.28,0 30,0 C37.72,0 44,6.28 44,14 L44,34 C44,41.72 37.72,48 30,48" id="microphone"></path>
        </g>
    </g>
</svg>