<?xml version="1.0" encoding="UTF-8" standalone="no"?>
<svg width="60px" height="60px" viewBox="0 0 60 60" version="1.1" xmlns="http://www.w3.org/2000/svg" xmlns:xlink="http://www.w3.org/1999/xlink">
    <!-- Generator: Sketch 3.8.3 (29802) - http://www.bohemiancoding.com/sketch -->
    <title>number-eight</title>
    <desc>Created with Sketch.</desc>
    <defs></defs>
    <g id="People" stroke="none" stroke-width="1" fill="none" fill-rule="evenodd">
        <g id="Icon-78" fill="#FFFFFF">
            <path d="M27.0366,33.2852 C26.4106,33.8022 25.9996,34.8342 25.9996,36.0002 C25.9996,38.2062 27.7946,40.0002 29.9996,40.0002 C32.2056,40.0002 33.9996,38.2062 33.9996,36.0002 C33.9996,34.7182 33.6306,33.7532 32.9616,33.2842 L32.4196,32.9062 C31.9666,32.5902 31.8566,31.9672 32.1716,31.5142 C32.4876,31.0612 33.1126,30.9502 33.5646,31.2652 L34.1076,31.6442 C35.3286,32.5002 35.9996,34.0462 35.9996,36.0002 C35.9996,39.3082 33.3086,42.0002 29.9996,42.0002 C26.6916,42.0002 23.9996,39.3082 23.9996,36.0002 C23.9996,34.2142 24.6676,32.6432 25.8316,31.6902 L32.9626,26.7152 C33.6166,26.2392 33.9996,25.2452 33.9996,24.0002 C33.9996,21.7942 32.2056,20.0002 29.9996,20.0002 C27.7946,20.0002 25.9996,21.7942 25.9996,24.0002 C25.9996,25.1722 26.4146,26.2252 27.0816,26.7482 L27.6036,27.1102 C28.0566,27.4272 28.1676,28.0502 27.8516,28.5032 C27.5356,28.9552 26.9136,29.0662 26.4596,28.7512 L25.8926,28.3552 C24.6906,27.4162 23.9996,25.8002 23.9996,24.0002 C23.9996,20.6912 26.6916,18.0002 29.9996,18.0002 C33.3086,18.0002 35.9996,20.6912 35.9996,24.0002 C35.9996,25.9202 35.3336,27.4622 34.1236,28.3442 L27.0366,33.2852 Z M29.9996,58.0002 C14.5606,58.0002 1.9996,45.4392 1.9996,30.0002 C1.9996,14.5602 14.5606,2.0002 29.9996,2.0002 C45.4396,2.0002 57.9996,14.5602 57.9996,30.0002 C57.9996,45.4392 45.4396,58.0002 29.9996,58.0002 L29.9996,58.0002 Z M29.9996,0.0002 C13.4576,0.0002 -0.0004,13.4582 -0.0004,30.0002 C-0.0004,46.5422 13.4576,60.0002 29.9996,60.0002 C46.5416,60.0002 59.9996,46.5422 59.9996,30.0002 C59.9996,13.4582 46.5416,0.0002 29.9996,0.0002 L29.9996,0.0002 Z" id="number-eight"></path>
        </g>
    </g>
</svg>