<?xml version="1.0" encoding="UTF-8" standalone="no"?>
<svg width="60px" height="60px" viewBox="0 0 60 60" version="1.1" xmlns="http://www.w3.org/2000/svg" xmlns:xlink="http://www.w3.org/1999/xlink">
    <!-- Generator: Sketch 3.8.3 (29802) - http://www.bohemiancoding.com/sketch -->
    <title>number-nine</title>
    <desc>Created with Sketch.</desc>
    <defs></defs>
    <g id="People" stroke="none" stroke-width="1" fill="none" fill-rule="evenodd">
        <g id="Icon-79" fill="#FFFFFF">
            <path d="M37,25 C37,26.65 36.608,28.205 35.867,29.497 L28.864,41.504 C28.678,41.822 28.343,42 27.999,42 C27.828,42 27.654,41.956 27.496,41.864 C27.02,41.586 26.858,40.974 27.136,40.496 L34.136,28.496 C34.7,27.513 35,26.302 35,25 C35,22.243 32.757,20 30,20 C27.243,20 25,22.243 25,25 C25,27.452 26.752,29.526 29.165,29.931 C29.71,30.022 30.077,30.537 29.986,31.082 C29.895,31.627 29.377,31.997 28.835,31.903 C25.454,31.337 23,28.434 23,25 C23,21.141 26.141,18 30,18 C33.859,18 37,21.141 37,25 M30,58 C14.561,58 2,45.439 2,30 C2,14.561 14.561,2 30,2 C45.439,2 58,14.561 58,30 C58,45.439 45.439,58 30,58 M30,0 C13.458,0 0,13.458 0,30 C0,46.542 13.458,60 30,60 C46.542,60 60,46.542 60,30 C60,13.458 46.542,0 30,0" id="number-nine"></path>
        </g>
    </g>
</svg>