<?xml version="1.0" encoding="UTF-8" standalone="no"?>
<svg width="60px" height="60px" viewBox="0 0 60 60" version="1.1" xmlns="http://www.w3.org/2000/svg" xmlns:xlink="http://www.w3.org/1999/xlink">
    <!-- Generator: Sketch 3.8.3 (29802) - http://www.bohemiancoding.com/sketch -->
    <title>number-ten</title>
    <desc>Created with Sketch.</desc>
    <defs></defs>
    <g id="People" stroke="none" stroke-width="1" fill="none" fill-rule="evenodd">
        <g id="Icon-80" fill="#FFFFFF">
            <path d="M36,24 L36,36 C36,39.309 33.309,42 30,42 C28.39,42 26.876,41.37 25.739,40.226 C25.35,39.834 25.352,39.2 25.743,38.812 C26.135,38.421 26.768,38.424 27.157,38.815 C27.916,39.579 28.926,40 30,40 C32.206,40 34,38.206 34,36 L34,24 C34,21.794 32.206,20 30,20 C27.794,20 26,21.794 26,24 L26,36 C26,36.553 25.553,37 25,37 C24.447,37 24,36.553 24,36 L24,24 C24,20.691 26.691,18 30,18 C33.309,18 36,20.691 36,24 M30,58 C14.561,58 2,45.439 2,30 C2,14.561 14.561,2 30,2 C45.439,2 58,14.561 58,30 C58,45.439 45.439,58 30,58 M30,0 C13.458,0 0,13.458 0,30 C0,46.542 13.458,60 30,60 C46.542,60 60,46.542 60,30 C60,13.458 46.542,0 30,0" id="number-ten"></path>
        </g>
    </g>
</svg>