<?xml version="1.0" encoding="UTF-8" standalone="no"?>
<svg width="60px" height="60px" viewBox="0 0 60 60" version="1.1" xmlns="http://www.w3.org/2000/svg" xmlns:xlink="http://www.w3.org/1999/xlink">
    <!-- Generator: Sketch 3.8.3 (29802) - http://www.bohemiancoding.com/sketch -->
    <title>number-five</title>
    <desc>Created with Sketch.</desc>
    <defs></defs>
    <g id="People" stroke="none" stroke-width="1" fill="none" fill-rule="evenodd">
        <g id="Icon-75" fill="#FFFFFF">
            <path d="M26,20 L26,28 L30,28 C33.309,28 36,30.691 36,34 L36,36 C36,39.309 33.309,42 30,42 C26.691,42 24,39.309 24,36 C24,35.447 24.447,35 25,35 C25.553,35 26,35.447 26,36 C26,38.206 27.794,40 30,40 C32.206,40 34,38.206 34,36 L34,34 C34,31.832 32.168,30 30,30 L25,30 C24.447,30 24,29.553 24,29 L24,19 C24,18.447 24.447,18 25,18 L35,18 C35.553,18 36,18.447 36,19 C36,19.553 35.553,20 35,20 L26,20 Z M30,58 C14.561,58 2,45.439 2,30 C2,14.561 14.561,2 30,2 C45.439,2 58,14.561 58,30 C58,45.439 45.439,58 30,58 L30,58 Z M30,0 C13.458,0 0,13.458 0,30 C0,46.542 13.458,60 30,60 C46.542,60 60,46.542 60,30 C60,13.458 46.542,0 30,0 L30,0 Z" id="number-five"></path>
        </g>
    </g>
</svg>