<?xml version="1.0" encoding="UTF-8" standalone="no"?>
<svg width="60px" height="60px" viewBox="0 0 60 60" version="1.1" xmlns="http://www.w3.org/2000/svg" xmlns:xlink="http://www.w3.org/1999/xlink">
    <!-- Generator: Sketch 3.8.3 (29802) - http://www.bohemiancoding.com/sketch -->
    <title>number-six</title>
    <desc>Created with Sketch.</desc>
    <defs></defs>
    <g id="People" stroke="none" stroke-width="1" fill="none" fill-rule="evenodd">
        <g id="Icon-76" fill="#FFFFFF">
            <path d="M36,35 C36,38.859 32.86,42 29,42 C25.14,42 22,38.859 22,35 C22,33.35 22.392,31.795 23.132,30.503 L30.136,18.496 C30.415,18.02 31.026,17.859 31.504,18.136 C31.981,18.414 32.142,19.026 31.864,19.504 L24.864,31.504 C24.3,32.487 24,33.698 24,35 C24,37.757 26.243,40 29,40 C31.757,40 34,37.757 34,35 C34,32.548 32.248,30.474 29.834,30.069 C29.29,29.978 28.922,29.462 29.014,28.918 C29.105,28.373 29.618,28.006 30.166,28.097 C33.546,28.663 36,31.566 36,35 M30,58 C14.561,58 2,45.439 2,30 C2,14.561 14.561,2 30,2 C45.439,2 58,14.561 58,30 C58,45.439 45.439,58 30,58 M30,0 C13.458,0 0,13.458 0,30 C0,46.542 13.458,60 30,60 C46.542,60 60,46.542 60,30 C60,13.458 46.542,0 30,0" id="number-six"></path>
        </g>
    </g>
</svg>