<?xml version="1.0" encoding="UTF-8" standalone="no"?>
<svg width="60px" height="60px" viewBox="0 0 60 60" version="1.1" xmlns="http://www.w3.org/2000/svg" xmlns:xlink="http://www.w3.org/1999/xlink">
    <!-- Generator: Sketch 3.8.1 (29687) - http://www.bohemiancoding.com/sketch -->
    <title>probe</title>
    <desc>Created with Sketch.</desc>
    <defs></defs>
    <g id="People" stroke="none" stroke-width="1" fill="none" fill-rule="evenodd">
        <g id="Icon-33" fill="#000000">
            <path d="M8.9536,9.9863 C8.9556,10.0593 8.9606,10.1323 8.9786,10.2053 L10.9786,18.2053 C11.0926,18.6603 11.5006,18.9633 11.9486,18.9633 C12.0286,18.9633 12.1106,18.9533 12.1916,18.9323 C12.7276,18.7993 13.0536,18.2563 12.9196,17.7203 L11.7946,13.2223 L15.2426,16.6703 C15.4376,16.8653 15.6936,16.9633 15.9496,16.9633 C16.2046,16.9633 16.4606,16.8653 16.6566,16.6703 C17.0466,16.2793 17.0466,15.6463 16.6566,15.2563 L13.2086,11.8083 L17.7066,12.9323 C18.2416,13.0693 18.7856,12.7423 18.9196,12.2053 C19.0536,11.6703 18.7276,11.1273 18.1916,10.9933 L10.1916,8.9933 C10.1176,8.9743 10.0426,8.9673 9.9676,8.9663 C9.9596,8.9663 9.9526,8.9643 9.9446,8.9643 C9.8306,8.9643 9.7206,8.9903 9.6136,9.0283 C9.5866,9.0383 9.5616,9.0493 9.5356,9.0613 C9.4286,9.1103 9.3276,9.1713 9.2426,9.2563 C9.1566,9.3413 9.0956,9.4433 9.0466,9.5493 C9.0356,9.5753 9.0246,9.5993 9.0146,9.6263 C8.9766,9.7323 8.9516,9.8423 8.9506,9.9573 C8.9506,9.9663 8.9536,9.9763 8.9536,9.9863 M31.9496,33.9633 C33.0516,33.9633 33.9496,33.0653 33.9496,31.9633 C33.9496,30.8603 33.0516,29.9633 31.9496,29.9633 C30.8466,29.9633 29.9496,30.8603 29.9496,31.9633 C29.9496,33.0653 30.8466,33.9633 31.9496,33.9633 M31.9496,35.9633 C29.7436,35.9633 27.9496,34.1693 27.9496,31.9633 C27.9496,29.7573 29.7436,27.9633 31.9496,27.9633 C34.1556,27.9633 35.9496,29.7573 35.9496,31.9633 C35.9496,34.1693 34.1556,35.9633 31.9496,35.9633 M59.9496,30.9633 C59.9496,31.5153 59.5016,31.9633 58.9496,31.9633 L49.9496,31.9633 L49.9496,34.9633 C49.9496,36.5643 49.5146,37.8123 48.6566,38.6703 L44.3636,42.9633 L53.6566,52.2563 C54.0466,52.6463 54.0466,53.2793 53.6566,53.6703 C53.4606,53.8653 53.2046,53.9633 52.9496,53.9633 C52.6936,53.9633 52.4376,53.8653 52.2426,53.6703 L42.9496,44.3773 L38.6566,48.6703 C37.4896,49.8373 35.6746,49.9633 34.9496,49.9633 L31.9496,49.9633 L31.9496,58.9633 C31.9496,59.5153 31.5016,59.9633 30.9496,59.9633 C30.3966,59.9633 29.9496,59.5153 29.9496,58.9633 L29.9496,49.9633 L27.9496,49.9633 C26.8476,49.9633 25.3106,49.7383 24.2426,48.6703 L13.2426,37.6703 C13.0546,37.4823 12.9496,37.2283 12.9496,36.9633 L12.9496,29.9633 C12.9496,29.6973 13.0546,29.4433 13.2426,29.2563 L20.5356,21.9633 L18.9406,20.3683 C13.5146,25.6193 7.0066,29.9893 3.1186,29.9893 C2.1586,29.9893 1.3576,29.7233 0.7736,29.1383 C-1.6294,26.7373 1.9256,19.5533 6.4896,14.0143 C6.8416,13.5883 7.4716,13.5273 7.8976,13.8793 C8.3236,14.2293 8.3846,14.8603 8.0336,15.2863 C2.5836,21.9003 1.4656,27.0033 2.1876,27.7243 C3.3026,28.8443 9.9846,26.5123 18.2426,18.2563 C26.4946,10.0043 28.8206,3.3273 27.7036,2.2093 C26.8886,1.3953 21.7756,2.7103 15.3126,8.0273 C14.8876,8.3793 14.2566,8.3163 13.9056,7.8903 C13.5546,7.4643 13.6156,6.8343 14.0426,6.4823 C19.7016,1.8253 26.6956,-1.6237 29.1176,0.7953 C32.0706,3.7483 26.8966,12.1903 20.3526,18.9523 L21.9496,20.5493 L29.2426,13.2563 C29.4296,13.0683 29.6836,12.9633 29.9496,12.9633 L31.4086,12.9633 C31.9606,12.9633 32.4086,13.4103 32.4086,13.9633 C32.4086,14.5153 31.9606,14.9633 31.4086,14.9633 L30.3636,14.9633 L14.9496,30.3773 L14.9496,36.5483 L25.6566,47.2563 C26.2716,47.8713 27.3566,47.9633 27.9496,47.9633 L29.9496,47.9633 L29.9496,42.9633 C29.9496,42.4103 30.3966,41.9633 30.9496,41.9633 C31.5016,41.9633 31.9496,42.4103 31.9496,42.9633 L31.9496,47.9633 L34.9496,47.9633 C35.7156,47.9633 36.7206,47.7773 37.2426,47.2563 L41.5356,42.9633 L36.2426,37.6703 C35.8516,37.2793 35.8516,36.6463 36.2426,36.2563 C36.6326,35.8653 37.2656,35.8653 37.6566,36.2563 L42.9496,41.5483 L47.2426,37.2563 C47.7176,36.7803 47.9496,36.0303 47.9496,34.9633 L47.9496,31.9633 L42.9496,31.9633 C42.3966,31.9633 41.9496,31.5153 41.9496,30.9633 C41.9496,30.4103 42.3966,29.9633 42.9496,29.9633 L47.9496,29.9633 L47.9496,27.9633 C47.9496,27.0143 47.6646,26.0923 47.2426,25.6703 L36.9496,15.3773 L18.6566,33.6703 C18.2656,34.0603 17.6326,34.0603 17.2426,33.6703 C16.8516,33.2793 16.8516,32.6463 17.2426,32.2563 L36.2426,13.2563 C36.6326,12.8653 37.2656,12.8653 37.6566,13.2563 L48.6566,24.2563 C49.8566,25.4553 49.9496,27.3963 49.9496,27.9633 L49.9496,29.9633 L58.9496,29.9633 C59.5016,29.9633 59.9496,30.4103 59.9496,30.9633" id="probe"></path>
        </g>
    </g>
</svg>