<?xml version="1.0" encoding="UTF-8" standalone="no"?>
<svg width="60px" height="48px" viewBox="0 0 60 48" version="1.1" xmlns="http://www.w3.org/2000/svg" xmlns:xlink="http://www.w3.org/1999/xlink">
    <!-- Generator: Sketch 3.8.3 (29802) - http://www.bohemiancoding.com/sketch -->
    <title>social-youtube</title>
    <desc>Created with Sketch.</desc>
    <defs></defs>
    <g id="People" stroke="none" stroke-width="1" fill="none" fill-rule="evenodd">
        <g id="Icon-55" transform="translate(0.000000, -6.000000)" fill="#FFFFFF">
            <path d="M58,27 C58,22.129 57.438,18.6 57.432,18.564 C57.268,16.138 56.554,11.968 55.293,10.707 C53.849,9.263 51.725,8.943 50.319,8.732 C50.016,8.687 49.748,8.646 49.526,8.602 C45.514,8.195 39.281,8 30.005,8 C21.991,8 17.783,8.027 9.779,8.642 L9.623,8.662 C8.479,8.802 6.353,9.062 4.707,10.707 C3.447,11.967 2.739,16.137 2.589,18.469 C2.572,18.602 2,22.143 2,27 L2,33 C2,37.871 2.562,41.4 2.568,41.436 C2.732,43.862 3.446,48.032 4.707,49.293 C6.151,50.737 8.275,51.057 9.681,51.268 C9.984,51.313 10.252,51.354 10.474,51.398 C14.486,51.805 20.719,52 29.995,52 C38.009,52 42.217,51.973 50.221,51.358 L50.377,51.338 C51.521,51.198 53.647,50.938 55.293,49.293 C56.553,48.033 57.261,43.863 57.411,41.531 C57.428,41.398 58,37.857 58,33 L58,27 Z M60,27 L60,33 C60,38.032 59.421,41.608 59.396,41.758 C59.363,42.354 58.91,48.504 56.707,50.707 C54.574,52.84 51.903,53.166 50.62,53.323 L50.424,53.348 C42.297,53.973 38.061,54 29.995,54 C20.649,54 14.352,53.801 10.177,53.374 C9.888,53.321 9.651,53.286 9.384,53.246 C7.82,53.011 5.203,52.617 3.293,50.707 C1.09,48.505 0.629,42.354 0.583,41.661 C0.569,41.605 0,38.03 0,33 L0,27 C0,21.968 0.579,18.392 0.604,18.242 C0.637,17.646 1.09,11.496 3.293,9.293 C5.426,7.16 8.097,6.834 9.38,6.677 L9.576,6.652 C17.703,6.027 21.939,6 30.005,6 C39.351,6 45.648,6.199 49.823,6.626 C50.112,6.679 50.349,6.714 50.616,6.754 C52.18,6.989 54.797,7.383 56.707,9.293 C58.91,11.495 59.371,17.646 59.417,18.339 C59.431,18.395 60,21.97 60,27 L60,27 Z M42,30 C42,30.349 41.818,30.672 41.521,30.854 L27.516,39.412 C27.044,39.701 26.429,39.552 26.141,39.08 C25.853,38.608 26.001,37.993 26.473,37.705 L39.082,30 L24,20.783 L24,41 C24,41.553 23.553,42 23,42 C22.447,42 22,41.553 22,41 L22,19 C22,18.639 22.195,18.305 22.511,18.128 C22.827,17.952 23.213,17.959 23.521,18.146 L41.521,29.146 C41.818,29.328 42,29.651 42,30 L42,30 Z" id="social-youtube"></path>
        </g>
    </g>
</svg>