<?xml version="1.0" encoding="UTF-8" standalone="no"?>
<svg width="60px" height="60px" viewBox="0 0 60 60" version="1.1" xmlns="http://www.w3.org/2000/svg" xmlns:xlink="http://www.w3.org/1999/xlink">
    <!-- Generator: Sketch 3.8.3 (29802) - http://www.bohemiancoding.com/sketch -->
    <title>social-pinterest</title>
    <desc>Created with Sketch.</desc>
    <defs></defs>
    <g id="People" stroke="none" stroke-width="1" fill="none" fill-rule="evenodd">
        <g id="Icon-60" fill="#FFFFFF">
            <path d="M29.9961,57.9941 C27.7471,57.9941 25.5091,57.7231 23.3241,57.1871 C24.4281,55.2841 25.2131,53.4971 25.6631,51.8611 C25.8981,51.0071 26.6951,47.8771 27.2231,45.7951 C28.8641,47.2601 31.3761,48.2361 33.8221,48.2361 C43.4691,48.2361 50.4711,39.4581 50.4711,27.3641 C50.4711,18.7071 43.2291,9.7521 31.1111,9.7521 C22.8081,9.7521 17.6961,13.1591 14.8711,16.0181 C11.3871,19.5441 9.3881,24.2271 9.3881,28.8671 C9.3881,34.7091 11.8401,39.1961 15.9441,40.8681 C17.1711,41.3731 18.4071,40.7491 18.7431,39.4731 C18.8491,39.0771 19.0641,38.2131 19.2201,37.5931 L19.3291,37.1541 C19.6441,35.9961 19.3821,35.4171 18.7141,34.6321 C17.5721,33.2801 17.0401,31.6781 17.0401,29.5901 C17.0401,21.2211 23.8791,16.7051 30.3131,16.7051 C37.1391,16.7051 41.3781,20.5781 41.3781,26.8131 C41.3781,35.0311 37.8541,41.2281 33.1831,41.2281 C31.9641,41.2281 30.8701,40.7291 30.1831,39.8591 C29.5341,39.0411 29.3221,37.9811 29.5841,36.8751 C29.8911,35.5741 30.3101,34.2151 30.7171,32.8991 C31.4641,30.4791 32.1701,28.1951 32.1701,26.3571 C32.1701,23.1561 30.1961,21.0061 27.2601,21.0061 C23.5611,21.0061 20.6641,24.7411 20.6641,29.5101 C20.6641,31.7711 21.2521,33.4841 21.5421,34.1911 C21.0541,36.2591 18.3951,47.5291 17.8881,49.6701 C17.5261,51.2051 17.3391,52.9791 17.3281,54.9631 C7.9671,50.2101 2.0001,40.5781 2.0001,29.9981 C2.0001,14.5591 14.5581,2.0001 29.9961,2.0001 C45.4331,2.0001 57.9911,14.5591 57.9911,29.9981 C57.9911,45.4351 45.4331,57.9941 29.9961,57.9941 M29.9961,0.0001 C13.4561,0.0001 0.0001,13.4571 0.0001,29.9981 C0.0001,41.9011 7.0481,52.6841 17.9561,57.4711 C18.0841,57.5271 18.2211,57.5551 18.3571,57.5551 C18.3651,57.5561 18.3721,57.5561 18.3771,57.5551 C18.9301,57.5551 19.3771,57.1071 19.3771,56.5551 C19.3771,56.4731 19.3671,56.3931 19.3501,56.3171 C19.2661,53.9321 19.4291,51.8501 19.8341,50.1301 C20.3921,47.7711 23.5651,34.3241 23.5651,34.3241 C23.6191,34.0961 23.5911,33.8561 23.4851,33.6461 C23.4771,33.6301 22.6641,31.9781 22.6641,29.5101 C22.6641,25.8621 24.6831,23.0061 27.2601,23.0061 C29.9601,23.0061 30.1701,25.5711 30.1701,26.3571 C30.1701,27.8931 29.5081,30.0381 28.8071,32.3081 C28.3911,33.6561 27.9601,35.0491 27.6381,36.4151 C27.2321,38.1281 27.5791,39.7921 28.6131,41.1001 C29.6841,42.4531 31.3491,43.2281 33.1831,43.2281 C38.9951,43.2281 43.3781,36.1721 43.3781,26.8131 C43.3781,19.4581 38.2501,14.7051 30.3131,14.7051 C21.6061,14.7051 15.0401,21.1041 15.0401,29.5901 C15.0401,32.1411 15.7421,34.2131 17.1881,35.9251 C17.4201,36.1971 17.4601,36.2841 17.4651,36.2951 C17.4661,36.3071 17.4681,36.3791 17.3941,36.6471 L17.2791,37.1071 C17.1261,37.7191 16.9131,38.5701 16.8091,38.9631 C16.7991,39.0011 16.7891,39.0281 16.7851,39.0441 C16.7661,39.0401 16.7371,39.0321 16.7011,39.0171 C13.3241,37.6411 11.3881,33.9411 11.3881,28.8671 C11.3881,17.0611 22.9221,11.7521 31.1111,11.7521 C41.9771,11.7521 48.4711,19.6901 48.4711,27.3641 C48.4711,38.4751 42.4471,46.2361 33.8221,46.2361 C30.9501,46.2361 28.4161,44.6731 27.6251,43.1611 C27.4331,42.7941 27.0291,42.5821 26.6221,42.6321 C26.2101,42.6811 25.8711,42.9781 25.7691,43.3811 C25.7531,43.4471 24.0841,50.0661 23.7351,51.3301 C23.2471,53.1011 22.3051,55.1011 20.9351,57.2731 C20.7681,57.5381 20.7351,57.8661 20.8461,58.1591 C20.9561,58.4531 21.1981,58.6771 21.4981,58.7651 C24.2621,59.5811 27.1201,59.9941 29.9961,59.9941 C46.5351,59.9941 59.9911,46.5381 59.9911,29.9981 C59.9911,13.4571 46.5351,0.0001 29.9961,0.0001" id="social-pinterest"></path>
        </g>
    </g>
</svg>