<?xml version="1.0" encoding="UTF-8" standalone="no"?>
<svg width="60px" height="60px" viewBox="0 0 60 60" version="1.1" xmlns="http://www.w3.org/2000/svg" xmlns:xlink="http://www.w3.org/1999/xlink">
    <!-- Generator: Sketch 3.8.3 (29802) - http://www.bohemiancoding.com/sketch -->
    <title>social-googleplus</title>
    <desc>Created with Sketch.</desc>
    <defs></defs>
    <g id="People" stroke="none" stroke-width="1" fill="none" fill-rule="evenodd">
        <g id="Icon-54" fill="#FFFFFF">
            <path d="M58,26 L51,26 C50.447,26 50,25.553 50,25 L50,18 L48,18 L48,25 C48,25.553 47.553,26 47,26 L40,26 L40,28 L47,28 C47.553,28 48,28.447 48,29 L48,36 L50,36 L50,29 C50,28.447 50.447,28 51,28 L58,28 L58,26 Z M60,25 L60,29 C60,29.553 59.553,30 59,30 L52,30 L52,37 C52,37.553 51.553,38 51,38 L47,38 C46.447,38 46,37.553 46,37 L46,30 L39,30 C38.447,30 38,29.553 38,29 L38,25 C38,24.447 38.447,24 39,24 L46,24 L46,17 C46,16.447 46.447,16 47,16 L51,16 C51.553,16 52,16.447 52,17 L52,24 L59,24 C59.553,24 60,24.447 60,25 L60,25 Z M24.714,40.844 C23.478,40.444 22.033,40.017 20.544,40 C20.446,39.999 20.35,39.998 20.253,39.998 C15.738,39.998 11.905,41.135 9.96,43.06 C8.979,44.031 8.48,45.195 8.48,46.52 C8.48,51.069 12.852,54.127 19.356,54.127 C29.59,54.127 31,50.601 31,46.789 C31,46.266 30.935,45.717 30.806,45.158 C30.23,42.917 27.537,41.759 24.714,40.844 L24.714,40.844 Z M20.565,38 C22.336,38.02 23.953,38.496 25.33,38.941 C27.597,39.676 31.813,41.042 32.749,44.685 C32.917,45.415 33,46.115 33,46.789 C33,53.247 28.792,56.127 19.356,56.127 C11.775,56.127 6.48,52.176 6.48,46.52 C6.48,44.642 7.178,42.999 8.554,41.638 C10.947,39.27 15.319,37.959 20.565,38 L20.565,38 Z M18.245,5 C18.18,4.998 18.115,4.997 18.052,4.997 C16.459,4.997 15.077,5.596 14.046,6.736 C12.568,8.37 11.944,11.015 12.335,13.991 C13.015,19.159 16.661,22.864 21.201,23 C23.029,23.049 24.36,22.09 25.113,21.271 C26.601,19.649 27.385,17.085 27.111,14.738 C26.489,9.41 22.595,5.133 18.245,5 L18.245,5 Z M18.306,3 C23.623,3.163 28.363,8.217 29.098,14.506 C29.441,17.45 28.479,20.561 26.587,22.622 C25.156,24.183 23.353,25.003 21.36,25.003 C21.287,25.003 21.215,25.002 21.141,25 C15.6,24.834 11.163,20.414 10.353,14.252 C9.879,10.64 10.663,7.494 12.562,5.395 C14.021,3.783 16.075,2.946 18.306,3 L18.306,3 Z M38.05,46.056 C38.05,55.113 28.438,60 19.395,60 C8.156,60 0,55.143 0,48.449 C0,40.892 8.544,34.506 18.656,34.506 C18.986,34.506 19.309,34.503 19.626,34.5 C18.753,33.224 18.325,31.906 18.325,30.512 C18.325,29.761 18.453,28.992 18.706,28.213 L18.571,28.213 C10.198,28.213 3.885,22.172 3.885,14.16 C3.885,6.617 11.658,0 20.52,0 L37,0 C37.553,0 38,0.447 38,1 C38,1.553 37.553,2 37,2 L20.52,2 C12.86,2 5.885,7.796 5.885,14.16 C5.885,21.144 11.221,26.213 18.571,26.213 C19.117,26.213 19.647,26.199 20.168,26.163 C20.547,26.141 20.876,26.312 21.074,26.615 C21.271,26.918 21.29,27.305 21.122,27.626 C20.593,28.634 20.325,29.604 20.325,30.512 C20.325,31.965 21.025,33.355 22.467,34.764 C22.757,35.048 22.847,35.479 22.693,35.855 C22.54,36.232 22.174,36.479 21.768,36.479 C21.265,36.479 20.77,36.485 20.268,36.492 C19.742,36.499 19.211,36.506 18.656,36.506 C10.778,36.506 2,41.411 2,48.449 C2,53.983 9.315,58 19.395,58 C30.329,58 36.05,51.991 36.05,46.056 C36.05,41.035 34.571,38.295 30.191,35.193 C30.141,35.157 25.04,31.522 25.04,28.789 C25.04,26.459 25.828,25.24 28.873,22.862 C31.721,20.635 33.562,17.048 33.562,13.727 C33.562,10.551 32.382,8.318 29.355,5.765 C28.933,5.408 28.88,4.777 29.235,4.355 C29.592,3.934 30.222,3.878 30.645,4.235 C34.091,7.144 35.562,9.981 35.562,13.727 C35.562,17.7 33.471,21.805 30.104,24.438 C27.291,26.636 27.04,27.339 27.04,28.789 C27.04,29.662 29.173,32.025 31.347,33.561 C36.233,37.021 38.05,40.407 38.05,46.056 L38.05,46.056 Z" id="social-googleplus"></path>
        </g>
    </g>
</svg>