<?xml version="1.0" encoding="UTF-8" standalone="no"?>
<svg width="36px" height="60px" viewBox="0 0 36 60" version="1.1" xmlns="http://www.w3.org/2000/svg" xmlns:xlink="http://www.w3.org/1999/xlink">
    <!-- Generator: Sketch 3.8.3 (29802) - http://www.bohemiancoding.com/sketch -->
    <title>social-facebook</title>
    <desc>Created with Sketch.</desc>
    <defs></defs>
    <g id="People" stroke="none" stroke-width="1" fill="none" fill-rule="evenodd">
        <g id="Icon-51" transform="translate(-12.000000, 0.000000)" fill="#FFFFFF">
            <path d="M47.958,23.2871 L46.168,29.2541 C46.009,29.7841 45.452,30.0831 44.923,29.9251 C44.394,29.7661 44.093,29.2081 44.252,28.6801 L45.656,24.0001 L33,24.0001 C32.448,24.0001 32,23.5531 32,23.0001 L32,16.0001 C32,11.0001 35.881,11.0001 39,11.0001 L44,11.0001 L44,2.0001 L36,2.0001 C27.14,2.0001 24,5.1411 24,14.0001 L24,23.0001 C24,23.5531 23.552,24.0001 23,24.0001 L14,24.0001 L14,32.0001 L23,32.0001 C23.552,32.0001 24,32.4471 24,33.0001 L24,58.0001 L32,58.0001 L32,33.0001 C32,32.4471 32.448,32.0001 33,32.0001 L44,32.0001 C44.552,32.0001 45,32.4471 45,33.0001 C45,33.5531 44.552,34.0001 44,34.0001 L34,34.0001 L34,59.0001 C34,59.5531 33.552,60.0001 33,60.0001 L23,60.0001 C22.448,60.0001 22,59.5531 22,59.0001 L22,34.0001 L13,34.0001 C12.448,34.0001 12,33.5531 12,33.0001 L12,23.0001 C12,22.4471 12.448,22.0001 13,22.0001 L22,22.0001 L22,14.0001 C22,4.0561 26.056,0.0001 36,0.0001 L45,0.0001 C45.552,0.0001 46,0.4471 46,1.0001 L46,12.0001 C46,12.5531 45.552,13.0001 45,13.0001 L39,13.0001 C35.005,13.0001 34,13.3531 34,16.0001 L34,22.0001 L47,22.0001 C47.316,22.0001 47.614,22.1491 47.802,22.4031 C47.991,22.6561 48.049,22.9841 47.958,23.2871" id="social-facebook"></path>
        </g>
    </g>
</svg>