<?xml version="1.0" encoding="UTF-8" standalone="no"?>
<svg width="56px" height="60px" viewBox="0 0 56 60" version="1.1" xmlns="http://www.w3.org/2000/svg" xmlns:xlink="http://www.w3.org/1999/xlink">
    <!-- Generator: Sketch 3.8.3 (29802) - http://www.bohemiancoding.com/sketch -->
    <title>social-linkedin</title>
    <desc>Created with Sketch.</desc>
    <defs></defs>
    <g id="People" stroke="none" stroke-width="1" fill="none" fill-rule="evenodd">
        <g id="Icon-53" transform="translate(-2.000000, 0.000000)" fill="#FFFFFF">
            <path d="M14,7 C14,4.243 11.757,2 9,2 C6.243,2 4,4.243 4,7 C4,9.757 6.243,12 9,12 C11.757,12 14,9.757 14,7 M16,7 C16,10.859 12.86,14 9,14 C5.14,14 2,10.859 2,7 C2,3.141 5.14,0 9,0 C12.86,0 16,3.141 16,7 M46,18 C40.387,18 37.607,19.79 36,21.65 L36,19 C36,18.447 35.553,18 35,18 L23,18 C22.448,18 22,18.447 22,19 L22,59 C22,59.553 22.448,60 23,60 C23.552,60 24,59.553 24,59 L24,20 L34,20 L34,25 C34,25.452 34.304,25.849 34.74,25.966 C35.183,26.086 35.64,25.893 35.865,25.501 L36.105,25.08 C37.313,22.936 38.97,20 46,20 C51.794,20 56,24.29 56,30.2 L56,58 L46,58 L46,35 C46,31.355 43.645,29 40,29 C36.299,29 34,31.299 34,35 L34,58 L27,58 C26.448,58 26,58.447 26,59 C26,59.553 26.448,60 27,60 L35,60 C35.553,60 36,59.553 36,59 L36,35 C36,32.421 37.421,31 40,31 C42.542,31 44,32.458 44,35 L44,59 C44,59.553 44.447,60 45,60 L57,60 C57.553,60 58,59.553 58,59 L58,30.2 C58,23.245 52.841,18 46,18 M16,19 L16,59 C16,59.553 15.552,60 15,60 L7,60 C6.448,60 6,59.553 6,59 C6,58.447 6.448,58 7,58 L14,58 L14,20 L4,20 L4,59 C4,59.553 3.552,60 3,60 C2.448,60 2,59.553 2,59 L2,19 C2,18.447 2.448,18 3,18 L15,18 C15.552,18 16,18.447 16,19" id="social-linkedin"></path>
        </g>
    </g>
</svg>