<?xml version="1.0" encoding="UTF-8" standalone="no"?>
<svg width="60px" height="60px" viewBox="0 0 60 60" version="1.1" xmlns="http://www.w3.org/2000/svg" xmlns:xlink="http://www.w3.org/1999/xlink">
    <!-- Generator: Sketch 3.8.3 (29802) - http://www.bohemiancoding.com/sketch -->
    <title>social-dribbble</title>
    <desc>Created with Sketch.</desc>
    <defs></defs>
    <g id="People" stroke="none" stroke-width="1" fill="none" fill-rule="evenodd">
        <g id="Icon-59" fill="#FFFFFF">
            <path d="M11.9512,51.3828 C16.6342,42.1088 25.2722,35.0618 35.3212,32.3148 C38.2952,39.7238 40.3052,47.5348 41.2912,55.6128 C37.8352,57.1438 34.0162,57.9998 30.0002,57.9998 C23.1282,57.9998 16.8292,55.5068 11.9512,51.3828 M2.0002,29.9998 C2.0002,28.9308 2.0662,27.8768 2.1832,26.8378 C5.7562,27.5958 9.3872,27.9998 13.0002,27.9998 C19.5022,27.9998 25.8072,26.8228 31.7632,24.5268 C32.7632,26.4688 33.6862,28.4468 34.5442,30.4548 C24.2412,33.3478 15.3702,40.5328 10.4202,49.9888 C5.2282,44.9038 2.0002,37.8228 2.0002,29.9998 M18.0242,4.6958 C23.0442,10.2508 27.3232,16.3028 30.8182,22.7448 C25.1582,24.8968 19.1732,25.9998 13.0002,25.9998 C9.4862,25.9998 5.9542,25.6038 2.4812,24.8588 C4.1452,15.9338 10.0512,8.4858 18.0242,4.6958 M49.6032,10.0318 C45.4812,14.4658 40.6652,18.0868 35.2562,20.7808 C34.7622,21.0288 34.5602,21.6288 34.8062,22.1228 C34.9822,22.4738 35.3362,22.6768 35.7032,22.6768 C35.8522,22.6768 36.0052,22.6438 36.1482,22.5718 C41.7352,19.7878 46.7142,16.0538 50.9802,11.4868 C55.3442,16.4258 58.0002,22.9058 58.0002,29.9998 C58.0002,30.4118 57.9862,30.8208 57.9692,31.2298 C53.7982,29.7548 49.4422,28.9998 45.0002,28.9998 C43.2152,28.9998 41.4172,29.1218 39.6582,29.3638 C39.1112,29.4388 38.7282,29.9438 38.8042,30.4898 C38.8782,31.0368 39.3792,31.4238 39.9302,31.3448 C41.5992,31.1158 43.3052,30.9998 45.0002,30.9998 C49.3912,30.9998 53.6912,31.7788 57.8002,33.2958 C56.7072,42.5668 51.0732,50.4638 43.1842,54.6938 C40.7322,35.7138 32.7292,18.2008 19.9612,3.8678 C23.0802,2.6658 26.4632,1.9998 30.0002,1.9998 C37.6272,1.9998 44.5482,5.0688 49.6032,10.0318 M60.0002,29.9998 C60.0002,21.9948 56.8432,14.7188 51.7162,9.3338 C51.6952,9.3128 51.6852,9.2838 51.6632,9.2638 C51.6532,9.2548 51.6392,9.2528 51.6302,9.2438 C46.1672,3.5528 38.4932,-0.0002 30.0002,-0.0002 C25.7202,-0.0002 21.6492,0.9068 17.9622,2.5288 C17.9422,2.5358 17.9252,2.5468 17.9062,2.5548 C7.3722,7.2158 0.0002,17.7598 0.0002,29.9998 C0.0002,38.8348 3.8412,46.7878 9.9382,52.2828 C9.9622,52.3118 9.9952,52.3298 10.0222,52.3558 C15.3312,57.1058 22.3332,59.9998 30.0002,59.9998 C34.5892,59.9998 38.9382,58.9608 42.8312,57.1118 C42.8492,57.1018 42.8692,57.0968 42.8872,57.0858 C52.9972,52.2568 60.0002,41.9318 60.0002,29.9998" id="social-dribbble"></path>
        </g>
    </g>
</svg>