<?xml version="1.0" encoding="UTF-8" standalone="no"?>
<svg width="60px" height="54px" viewBox="0 0 60 54" version="1.1" xmlns="http://www.w3.org/2000/svg" xmlns:xlink="http://www.w3.org/1999/xlink">
    <!-- Generator: Sketch 3.8.3 (29802) - http://www.bohemiancoding.com/sketch -->
    <title>social-vimeo</title>
    <desc>Created with Sketch.</desc>
    <defs></defs>
    <g id="People" stroke="none" stroke-width="1" fill="none" fill-rule="evenodd">
        <g id="Icon-57" transform="translate(0.000000, -3.000000)" fill="#FFFFFF">
            <path d="M59.8321039,14.235129 C59.2061039,17.586129 54.7121039,30.964129 46.4961039,42.258129 C43.4461039,46.308129 39.2071039,51.391129 33.3591039,54.903129 C31.8631039,55.802129 29.1461039,56.974129 26.6111039,56.974129 C25.7471039,56.974129 24.9051039,56.839129 24.1391039,56.509129 C19.0381039,54.318129 17.0901039,46.234129 15.6681039,40.331129 L15.3281039,38.924129 C14.4901039,35.532129 13.6991039,32.327129 12.6861039,29.401129 C12.4331039,28.671129 12.2211039,27.937129 12.0111039,27.207129 C11.5731039,25.686129 11.1601039,24.251129 10.3911039,22.922129 C9.86510388,22.022129 9.38710388,21.874129 8.99010388,21.847129 C8.43910388,21.810129 8.02110388,21.334129 8.05910388,20.783129 C8.09510388,20.232129 8.57110388,19.827129 9.12310388,19.851129 C10.3591039,19.933129 11.3671039,20.629129 12.1191039,21.916129 C13.0141039,23.461129 13.4811039,25.084129 13.9331039,26.653129 C14.1331039,27.350129 14.3351039,28.050129 14.5761039,28.748129 C15.6191039,31.758129 16.4201039,35.006129 17.2691039,38.446129 L17.6131039,39.862129 C18.9361039,45.354129 20.7481039,52.876129 24.9281039,54.672129 C27.0421039,55.583129 30.5111039,54.282129 32.3301039,53.188129 C37.8821039,49.854129 41.9571039,44.961129 44.8881039,41.069129 C52.8951039,30.062129 57.2621039,17.104129 57.8641039,13.879129 C58.2721039,11.558129 58.0291039,8.21412898 56.7721039,6.60712898 C55.0201039,4.36112898 50.9481039,5.00612898 48.2531039,5.43112898 C44.9111039,5.96112898 38.7921039,9.69112898 35.7931039,17.471129 C37.9291039,17.427129 39.9371039,17.681129 41.2191039,18.974129 C42.3831039,20.147129 42.8161039,21.956129 42.5831039,24.665129 C42.3531039,27.314129 41.0331039,30.111129 39.7731039,32.497129 L39.6701039,32.691129 C38.4441039,35.006129 36.5921039,38.506129 33.8511039,38.860129 C32.5371039,39.034129 31.2541039,38.454129 30.0501039,37.145129 C27.2721039,34.129129 26.7841039,29.267129 26.3531039,24.979129 C26.2221039,23.672129 26.0981039,22.437129 25.9171039,21.345129 L25.7331039,20.203129 C25.3561039,17.845129 24.9291039,15.173129 24.2271039,12.937129 C23.5511039,10.788129 22.0441039,8.36912898 20.4731039,7.90512898 C18.6781039,7.37012898 16.2901039,8.22312898 14.7901039,9.11712898 C11.4381039,11.117129 8.55710388,13.662129 5.77010388,16.123129 C4.62110388,17.137129 3.43910388,18.181129 2.22810388,19.184129 C2.69210388,20.100129 3.25910388,20.802129 3.52110388,20.849129 C4.06010388,20.945129 4.43610388,21.457129 4.34810388,21.996129 C4.26110388,22.536129 3.77410388,22.918129 3.23110388,22.828129 C1.51510388,22.577129 0.37810388,20.039129 0.0711038799,19.267129 C-0.0908961201,18.860129 0.0301038799,18.395129 0.37110388,18.120129 C1.75810388,16.997129 3.12410388,15.791129 4.44610388,14.624129 C7.30110388,12.102129 10.2541039,9.49512898 13.7651039,7.40012898 C15.7021039,6.24312898 18.6331039,5.26312898 21.0421039,5.98812898 C23.5591039,6.73112898 25.3591039,9.87312898 26.1351039,12.338129 C26.8811039,14.714129 27.3201039,17.463129 27.7081039,19.887129 L27.8911039,21.020129 C28.0821039,22.173129 28.2081039,23.439129 28.3431039,24.779129 C28.7431039,28.756129 29.1951039,33.265129 31.5201039,35.790129 C32.2611039,36.593129 32.9571039,36.954129 33.5941039,36.877129 C35.3091039,36.655129 36.9961039,33.467129 37.9021039,31.756129 L38.0051039,31.561129 C39.1711039,29.353129 40.3911039,26.786129 40.5911039,24.492129 C40.7671039,22.442129 40.5081039,21.097129 39.7991039,20.382129 C38.9941039,19.569129 37.3861039,19.319129 34.4331039,19.548129 C34.0971039,19.574129 33.7781039,19.433129 33.5721039,19.172129 C33.3651039,18.912129 33.3021039,18.566129 33.4021039,18.249129 C36.4671039,8.59912898 43.7751039,4.11612898 47.9401039,3.45712898 C51.0991039,2.95412898 55.8721039,2.20012898 58.3481039,5.37612898 C60.0541039,7.55612898 60.3131039,11.498129 59.8321039,14.235129" id="social-vimeo"></path>
        </g>
    </g>
</svg>