<?xml version="1.0" encoding="UTF-8" standalone="no"?>
<svg width="60px" height="60px" viewBox="0 0 60 60" version="1.1" xmlns="http://www.w3.org/2000/svg" xmlns:xlink="http://www.w3.org/1999/xlink">
    <!-- Generator: Sketch 3.8.1 (29687) - http://www.bohemiancoding.com/sketch -->
    <title>surround-system</title>
    <desc>Created with Sketch.</desc>
    <defs></defs>
    <g id="People" stroke="none" stroke-width="1" fill="none" fill-rule="evenodd">
        <g id="Icon-35" fill="#000000">
            <path d="M36,47 C36,47.553 35.553,48 35,48 C34.447,48 34,47.553 34,47 C34,39.832 39.832,34 47,34 C47.553,34 48,34.447 48,35 C48,35.553 47.553,36 47,36 C40.935,36 36,40.935 36,47 L36,47 Z M58,55 C58,56.654 56.654,58 55,58 L41,58 C39.346,58 38,56.654 38,55 C38,53.276 39.652,51.758 39.707,51.707 L41.172,50.242 L41.174,50.24 L47.238,44.176 C47.629,43.785 47.629,43.152 47.238,42.762 C46.848,42.371 46.215,42.371 45.824,42.762 L41.051,47.537 C41.034,47.357 41,47.18 41,47 C41,43.691 43.691,41 47,41 C47.681,41 48.353,41.131 49.005,41.364 C49.387,41.58 49.872,41.542 50.197,41.217 L51.745,39.667 C51.76,39.65 53.286,38 55,38 C56.654,38 58,39.346 58,41 L58,55 Z M55,36 C52.374,36 50.341,38.237 50.293,38.293 L49.254,39.332 C48.519,39.113 47.764,39 47,39 C42.589,39 39,42.589 39,47 C39,47.764 39.113,48.52 39.332,49.256 L38.333,50.255 C38.237,50.341 36,52.374 36,55 C36,57.757 38.243,60 41,60 L55,60 C57.757,60 60,57.757 60,55 L60,41 C60,38.243 57.757,36 55,36 L55,36 Z M34,13 C34,12.447 34.447,12 35,12 C35.553,12 36,12.447 36,13 C36,19.065 40.935,24 47,24 C47.553,24 48,24.447 48,25 C48,25.553 47.553,26 47,26 C39.832,26 34,20.168 34,13 L34,13 Z M58,19 C58,20.654 56.654,22 55,22 C53.276,22 51.758,20.348 51.707,20.293 L44.176,12.762 C43.785,12.371 43.152,12.371 42.762,12.762 C42.371,13.152 42.371,13.785 42.762,14.176 L47.537,18.949 C47.357,18.966 47.18,19 47,19 C43.691,19 41,16.309 41,13 C41,12.319 41.131,11.647 41.364,10.995 C41.58,10.613 41.542,10.128 41.217,9.803 L41.174,9.76 L41.171,9.757 L39.667,8.255 C39.65,8.24 38,6.714 38,5 C38,3.346 39.346,2 41,2 L55,2 C56.654,2 58,3.346 58,5 L58,19 Z M55,0 L41,0 C38.243,0 36,2.243 36,5 C36,7.626 38.237,9.659 38.293,9.707 L39.332,10.746 C39.113,11.481 39,12.236 39,13 C39,17.411 42.589,21 47,21 C47.764,21 48.52,20.887 49.256,20.668 L50.255,21.667 C50.341,21.763 52.374,24 55,24 C57.757,24 60,21.757 60,19 L60,5 C60,2.243 57.757,0 55,0 L55,0 Z M26,13 C26,20.168 20.168,26 13,26 C12.447,26 12,25.553 12,25 C12,24.447 12.447,24 13,24 C19.065,24 24,19.065 24,13 C24,12.447 24.447,12 25,12 C25.553,12 26,12.447 26,13 L26,13 Z M2,5 C2,3.346 3.346,2 5,2 L19,2 C20.654,2 22,3.346 22,5 C22,6.724 20.348,8.242 20.293,8.293 L18.828,9.758 L18.826,9.76 L12.762,15.824 C12.371,16.215 12.371,16.848 12.762,17.238 C13.152,17.629 13.785,17.629 14.176,17.238 L18.949,12.463 C18.966,12.643 19,12.82 19,13 C19,16.309 16.309,19 13,19 C12.319,19 11.647,18.869 10.995,18.636 C10.613,18.42 10.128,18.458 9.803,18.783 L8.255,20.333 C8.24,20.35 6.714,22 5,22 C3.346,22 2,20.654 2,19 L2,5 Z M5,24 C7.626,24 9.659,21.763 9.707,21.707 L10.746,20.668 C11.481,20.887 12.236,21 13,21 C17.411,21 21,17.411 21,13 C21,12.236 20.887,11.48 20.668,10.744 L21.667,9.745 C21.763,9.659 24,7.626 24,5 C24,2.243 21.757,0 19,0 L5,0 C2.243,0 0,2.243 0,5 L0,19 C0,21.757 2.243,24 5,24 L5,24 Z M26,47 C26,47.553 25.553,48 25,48 C24.447,48 24,47.553 24,47 C24,40.935 19.065,36 13,36 C12.447,36 12,35.553 12,35 C12,34.447 12.447,34 13,34 C20.168,34 26,39.832 26,47 L26,47 Z M19,58 L5,58 C3.346,58 2,56.654 2,55 L2,41 C2,39.346 3.346,38 5,38 C6.724,38 8.242,39.652 8.293,39.707 L15.824,47.238 C16.215,47.629 16.848,47.629 17.238,47.238 C17.629,46.848 17.629,46.215 17.238,45.824 L12.463,41.051 C12.643,41.034 12.82,41 13,41 C16.309,41 19,43.691 19,47 C19,47.681 18.869,48.353 18.636,49.005 C18.42,49.387 18.458,49.872 18.783,50.197 L18.826,50.24 L18.828,50.242 L20.333,51.745 C20.35,51.76 22,53.286 22,55 C22,56.654 20.654,58 19,58 L19,58 Z M21.707,50.293 L20.668,49.254 C20.887,48.519 21,47.764 21,47 C21,42.589 17.411,39 13,39 C12.236,39 11.48,39.113 10.744,39.332 L9.745,38.333 C9.659,38.237 7.626,36 5,36 C2.243,36 0,38.243 0,41 L0,55 C0,57.757 2.243,60 5,60 L19,60 C21.757,60 24,57.757 24,55 C24,52.374 21.763,50.341 21.707,50.293 L21.707,50.293 Z" id="surround-system"></path>
        </g>
    </g>
</svg>