<svg xmlns="http://www.w3.org/2000/svg" viewBox="0 0 512 512"><path d="M512 135.861H26.68v-71.04a8.454 8.454 0 0 1 8.453-8.453h468.414A8.454 8.454 0 0 1 512 64.821v71.04z" fill="#ff4b55"/><path fill="#41479b" d="M26.68 135.857H512v79.49H26.68z"/><path fill="#ffe15a" d="M26.68 215.348H512v79.49H26.68z"/><path d="M503.547 374.337H35.133a8.454 8.454 0 0 1-8.453-8.453v-71.039H512v71.039a8.453 8.453 0 0 1-8.453 8.453z" fill="#73af00"/><path d="M19.152 488.46C8.575 488.46 0 479.884 0 469.307V42.534C0 32.044 8.504 23.54 18.994 23.54h.157c10.577 0 19.152 8.575 19.152 19.152V469.31c0 10.574-8.575 19.15-19.151 19.15z" fill="#2e3033"/></svg>