<svg xmlns="http://www.w3.org/2000/svg" viewBox="0 0 512 512"><path d="M512 162.357H26.68V64.821a8.454 8.454 0 0 1 8.453-8.453h468.414A8.454 8.454 0 0 1 512 64.821v97.536z" fill="#73af00"/><path d="M503.547 374.337H35.133a8.454 8.454 0 0 1-8.453-8.453v-97.537H512v97.536a8.453 8.453 0 0 1-8.453 8.454z" fill="#ff4b55"/><path fill="#ffe15a" d="M26.68 162.357H512v105.99H26.68z"/><path d="M369.765 215.447c0 55.382-44.963 100.425-100.425 100.425S168.915 270.83 168.915 215.447c0-55.542 44.963-100.504 100.425-100.504 55.462-.001 100.425 44.961 100.425 100.504z" fill="#4173cd"/><g fill="#f2dd30"><path d="M192.959 190.199h58.349l13.203-40.633 3.506 10.899-19.174 59.069-5.712-4.167 5.973-18.353h-46.926l-9.219-6.815zm29.154 89.845l18.033-55.462-34.563-25.167h11.4l50.234 36.469-5.71 4.167-15.649-11.381-14.527 44.722-9.218 6.652zm94.453 0l-47.225-34.302-34.544 25.085 3.527-10.739 50.192-36.548 2.144 6.732-15.61 11.301 37.97 27.652 3.546 10.819zm29.154-89.845l-47.187 34.384 13.205 40.635-9.217-6.734-19.156-59.069h7.013l5.971 18.435 37.99-27.652h11.381v.001zm-76.38-55.461l18.033 55.462h42.739l-9.237 6.814H258.8l2.185-6.814h19.354l-14.527-44.643 3.528-10.819z"/><path d="M271.023 295.755h-3.346v-43.521h3.346v43.521zm74.196-54.022l-41.376-13.383 1.043-3.124 41.397 13.383-1.064 3.124zm-151.778 0l-1.042-3.124 41.415-13.383 1.024 3.124-41.397 13.383zm98.922-55.142l-2.727-1.923 25.588-35.186 2.665 1.924-25.526 35.185zm-45.984 0l-25.629-35.184 2.706-1.924 25.567 35.186-2.644 1.922z"/></g><path d="M19.152 488.46C8.575 488.46 0 479.884 0 469.307V42.534C0 32.044 8.504 23.54 18.994 23.54h.157c10.577 0 19.152 8.575 19.152 19.152V469.31c0 10.574-8.575 19.15-19.151 19.15z" fill="#2e3033"/></svg>