<svg xmlns="http://www.w3.org/2000/svg" viewBox="0 0 512 512"><g fill="#41479b"><path d="M512 162.357H26.68V64.821a8.454 8.454 0 0 1 8.453-8.453h468.414A8.454 8.454 0 0 1 512 64.821v97.536zM503.547 374.337H35.133a8.454 8.454 0 0 1-8.453-8.453v-97.537H512v97.536a8.453 8.453 0 0 1-8.453 8.454z"/></g><path fill="#f5f5f5" d="M26.68 162.357H512v105.99H26.68z"/><path fill="#afebff" d="M269.34 184.714l-25.524 37.537h51.048z"/><path fill="#557de6" d="M243.816 222.251L227.3 246.272h84.08l-16.516-24.021z"/><g fill="#73af00"><path d="M275.872 220.152c.101-.209.208-.415.3-.63-.091.214-.198.421-.3.63zM276.575 218.421c.062-.188.138-.372.192-.563-.054.191-.13.374-.192.563zM275.004 221.727c.129-.206.257-.41.376-.621-.12.212-.249.416-.376.621zM278.906 214.734zM277.711 215.13a1.49 1.49 0 0 0-.584.989v.002-.002c.048-.394.265-.741.584-.989zM276.936 226.333c.358.339.712.663 1.068.97 1.905-1.649 3.894-3.746 5.29-6.197-.1.175-.208.346-.314.518-1.303-2.396-1.991-4.47-2.325-5.698-.19-.703-.917-1.19-1.746-1.192.318 2.801 1.004 7.946-1.973 11.599zM284.488 218.421c.062-.188.138-.372.192-.563-.054.191-.13.374-.192.563zM285.623 215.13a1.49 1.49 0 0 0-.584.989v.002-.002c.049-.394.266-.741.584-.989zM283.785 220.152c.101-.209.208-.415.3-.63-.09.214-.198.421-.3.63z"/><path d="M299.994 228.255c-2.894 0-5.633-1.388-7.305-3.751-2.518-3.559-3.66-6.876-4.122-8.578-.191-.704-.918-1.192-1.749-1.192l.003.001c.38 3.342 1.287 10.024-4.143 13.521h-3.536c-.146-.115-.287-.225-.435-.347l.01.008c-.989 1.291-2.969 1.654-4.503.863-6.425-3.31-5.427-10.53-5.027-14.046-.829.001-1.555.489-1.746 1.192-.334 1.229-1.022 3.302-2.325 5.698-.106-.172-.215-.342-.315-.518 1.57 2.759 3.899 5.087 6.003 6.811-.989 1.291-2.968 1.654-4.503.863-6.425-3.31-5.427-10.53-5.027-14.046-.829.001-1.555.489-1.746 1.192-.334 1.229-1.022 3.302-2.325 5.698-.106-.172-.214-.342-.315-.518 1.57 2.759 3.899 5.087 6.003 6.811-.989 1.291-2.969 1.654-4.503.863-6.425-3.31-5.427-10.53-5.027-14.046l.003-.001c-.831 0-1.559.489-1.749 1.192-.462 1.702-1.604 5.019-4.122 8.578-1.672 2.363-4.41 3.751-7.305 3.751h-2.377v3.003H300.871v-3.003h-.877v.001z"/><path d="M271.922 219.521c.092.214.199.421.3.63-.101-.208-.209-.415-.3-.63zM271.329 217.857c.054.191.13.375.192.563-.063-.188-.14-.371-.192-.563zM270.969 216.121v-.002.002zM272.715 221.106c.12.211.248.415.377.621-.129-.205-.258-.409-.377-.621zM274.094 223.188l-.045-.061c.129-.171.253-.344.376-.52-.123.175-.25.347-.378.518a19.621 19.621 0 0 1 .047.063zM274.754 224.018c.147.175.292.35.442.52-.15-.169-.296-.343-.442-.52zM276.357 225.781c-.139-.139-.277-.287-.415-.431.139.142.275.289.415.431z"/></g><path d="M286.821 214.734l-.003-.001c-.456 0-.877.149-1.195.396s-.535.594-.584.989v.002c-.074.592-.2 1.17-.359 1.737-.054.191-.13.375-.192.563-.123.372-.248.742-.402 1.101-.092.214-.199.421-.3.63-.156.322-.315.643-.492.954-1.396 2.451-3.383 4.548-5.29 6.197-.356-.307-.71-.631-1.068-.97 2.977-3.653 2.291-8.799 1.973-11.599l-.003-.001c-.228 0-.447.037-.649.106a1.845 1.845 0 0 0-.546.291 1.49 1.49 0 0 0-.584.989v.002c-.074.592-.2 1.17-.359 1.737-.054.191-.13.375-.192.563-.123.372-.248.742-.402 1.101-.092.214-.199.421-.3.63-.156.322-.315.643-.492.954-.12.211-.248.415-.376.621-.186.298-.376.593-.578.879-.124.175-.247.349-.376.52a18.484 18.484 0 0 1-.958-1.399c-.129-.206-.257-.41-.377-.621a16.224 16.224 0 0 1-.492-.954c-.101-.209-.208-.415-.3-.63a13.644 13.644 0 0 1-.402-1.101c-.062-.188-.138-.372-.192-.563a11.893 11.893 0 0 1-.359-1.737v-.002a1.497 1.497 0 0 0-.584-.989 1.951 1.951 0 0 0-1.195-.396l-.003.001c-.399 3.515-1.398 10.735 5.027 14.046a3.803 3.803 0 0 0 3.403.023c.651-.329 1.35-.548 2.079-.548h2.982c5.428-3.496 4.52-10.179 4.14-13.521z" fill="#ffe15a"/><g fill="#73af00"><path d="M263.415 217.857c.054.191.13.375.192.563-.063-.188-.138-.371-.192-.563zM263.056 216.121v-.002a1.499 1.499 0 0 0-.584-.989c.318.247.536.594.584.989v.002zM264.009 219.521c.092.214.199.421.3.63-.101-.208-.208-.415-.3-.63zM261.277 214.734z"/></g><path d="M266.301 228.781c1.535.79 3.514.429 4.503-.863-2.104-1.724-4.433-4.052-6.003-6.811a16.224 16.224 0 0 1-.492-.954c-.101-.209-.208-.415-.3-.63a14.036 14.036 0 0 1-.402-1.101c-.062-.188-.138-.372-.192-.563a12.162 12.162 0 0 1-.359-1.737v-.002a1.497 1.497 0 0 0-.584-.989c-.16-.124-.344-.223-.546-.291s-.421-.106-.649-.106l-.003.001c-.401 3.514-1.399 10.734 5.027 14.046z" fill="#ffe15a"/><g fill="#73af00"><path d="M255.502 217.857c.054.191.13.375.192.563-.062-.188-.138-.371-.192-.563zM256.096 219.521c.092.214.199.421.3.63-.101-.208-.208-.415-.3-.63zM255.143 216.121v-.002a1.499 1.499 0 0 0-.584-.989c.318.247.536.594.584.989v.002z"/></g><path d="M258.388 228.781c1.535.79 3.514.429 4.503-.863-2.105-1.724-4.433-4.052-6.003-6.811a16.224 16.224 0 0 1-.492-.954c-.101-.209-.208-.415-.3-.63a14.036 14.036 0 0 1-.402-1.101c-.062-.188-.138-.372-.192-.563a12.162 12.162 0 0 1-.359-1.737v-.002a1.497 1.497 0 0 0-.584-.989 1.951 1.951 0 0 0-1.195-.396l-.003.001c-.401 3.513-1.399 10.733 5.027 14.045z" fill="#ffe15a"/><path d="M256.691 202.796l-.374 1.437a46.949 46.949 0 0 1 13.53-1.967c4.908.002 9.432.735 13.53 1.967l-.374-1.437a52.394 52.394 0 0 0-13.156-1.655 52.308 52.308 0 0 0-13.156 1.655z" fill="#41479b"/><path d="M256.854 202.171l-.374 1.437a45.867 45.867 0 0 1 13.368-1.974c4.847.002 9.314.741 13.368 1.974l-.374-1.437a50.948 50.948 0 0 0-12.992-1.661c-4.634 0-8.965.603-12.996 1.661z" fill="#5aa0e6"/><path d="M257.004 201.593l-.374 1.437a44.663 44.663 0 0 1 13.217-1.979c4.79 0 9.204.743 13.216 1.979l-.374-1.437a49.882 49.882 0 0 0-12.842-1.667 49.852 49.852 0 0 0-12.843 1.667z" fill="#9bc800"/><path d="M257.176 200.934l-.375 1.437a43.531 43.531 0 0 1 13.045-1.986c4.723.002 9.079.745 13.045 1.986l-.375-1.437a48.432 48.432 0 0 0-12.67-1.674c-4.51 0-8.73.609-12.67 1.674z" fill="#ffe14e"/><path d="M257.345 200.285l-.374 1.437a42.392 42.392 0 0 1 12.876-1.993c4.659.003 8.956.746 12.876 1.993l-.374-1.437a47.145 47.145 0 0 0-12.501-1.68c-4.448.001-8.61.612-12.503 1.68z" fill="#ffb14e"/><path d="M257.417 200.008l-.262 1.006c3.869-1.246 8.103-2 12.691-2a41.062 41.062 0 0 1 12.691 2l-.262-1.006a46.554 46.554 0 0 0-12.429-1.683 46.319 46.319 0 0 0-12.429 1.683z" fill="#ff4b55"/><path d="M311.38 247.73H227.3a1.502 1.502 0 0 1-1.324-.791 1.508 1.508 0 0 1 .075-1.543l42.04-63.061c.557-.833 1.941-.833 2.499 0l42.04 63.061c.306.461.336 1.052.075 1.543-.262.486-.77.791-1.325.791zm-81.275-3.003h78.471l-39.235-58.853-39.236 58.853z" fill="#ffe15a"/><path d="M272.212 208.654c0-1.321-1.339-3.329-3.482-3.329-1.252 0-2.268.765-2.268 1.71 0 .471.254.898.663 1.207l-.004.053c-.511.314-.845.785-.845 1.322 0 .9.928 1.631 2.101 1.697l.965 1.93.871-1.742c1.142-.296 1.999-1.456 1.999-2.848z" fill="#ff4b55"/><path d="M19.152 488.46C8.575 488.46 0 479.884 0 469.307V42.534C0 32.044 8.504 23.54 18.994 23.54h.157c10.577 0 19.152 8.575 19.152 19.152V469.31c0 10.574-8.575 19.15-19.151 19.15z" fill="#2e3033"/></svg>