<svg xmlns="http://www.w3.org/2000/svg" viewBox="0 0 512 512"><path d="M512 161.382H21.62V62.829a8.541 8.541 0 0 1 8.541-8.541h473.298A8.541 8.541 0 0 1 512 62.829v98.553z" fill="#f5f5f5"/><path d="M503.459 375.572H30.161a8.541 8.541 0 0 1-8.541-8.541v-98.553H512v98.553a8.542 8.542 0 0 1-8.541 8.541z" fill="#ff4b55"/><g fill="#41479b"><path d="M21.62 161.388H512v107.1H21.62z"/><path d="M186.371 120.464s-1.702 54.237-9.313 69.467c-9.421 18.72-18.892 24.18-32.984 29.226-14.09-5.044-23.562-10.501-32.984-29.226-7.609-15.231-9.314-69.462-9.313-69.467a102.79 102.79 0 0 1 84.594 0z"/></g><g fill="#f5f5f5"><path d="M156.322 195.676c-1.03-.661-1.773-1.134-3.465-1.134-1.687 0-2.43.473-3.456 1.134-1.174.748-2.637 1.685-5.353 1.685-2.719 0-4.181-.936-5.356-1.689-1.026-.657-1.767-1.129-3.454-1.129s-2.428.473-3.454 1.129c-1.11.711-2.513 1.559-4.953 1.654 5.135 6.263 10.52 9.232 17.238 11.813 6.716-2.579 12.099-5.549 17.234-11.81-2.457-.09-3.868-.944-4.981-1.653zM122.983 185.657c1.026.657 1.765 1.129 3.446 1.129 1.687 0 2.428-.473 3.454-1.129 1.174-.753 2.637-1.689 5.353-1.689 2.717 0 4.179.936 5.353 1.685 1.026.661 1.769 1.134 3.456 1.134s2.428-.473 3.454-1.129c1.174-.753 2.637-1.689 5.356-1.689 2.721 0 4.185.936 5.361 1.685 1.03.661 1.771 1.134 3.462 1.134s2.435-.473 3.465-1.134c.982-.626 2.214-1.35 4.166-1.581a40.223 40.223 0 0 0 1.471-4.693l-12.614-21.023-4.7 9.4-9.4-18.798-9.4 18.798-4.7-9.4-12.604 21.009a40.655 40.655 0 0 0 1.469 4.707c1.946.233 3.173.955 4.152 1.584zM167.04 188.626c-1.174.748-2.639 1.685-5.361 1.685-2.719 0-4.183-.936-5.359-1.685-1.03-.661-1.773-1.134-3.465-1.134-1.687 0-2.43.473-3.456 1.134-1.174.748-2.637 1.685-5.353 1.685-2.719 0-4.181-.936-5.356-1.689-1.026-.657-1.767-1.129-3.454-1.129s-2.428.473-3.454 1.129c-1.174.753-2.637 1.689-5.353 1.689-2.715 0-4.175-.936-5.347-1.689-.005-.003-.011-.006-.016-.011a68.028 68.028 0 0 0 2.76 4.601c.687.376 1.403.624 2.603.624 1.687 0 2.428-.473 3.454-1.129 1.174-.753 2.637-1.689 5.353-1.689 2.717 0 4.179.936 5.353 1.685 1.026.661 1.769 1.134 3.456 1.134s2.428-.473 3.454-1.129c1.174-.753 2.637-1.689 5.356-1.689 2.721 0 4.185.936 5.361 1.685 1.03.661 1.771 1.134 3.462 1.134 1.218 0 1.942-.251 2.638-.635a68.29 68.29 0 0 0 2.758-4.596l-.034.019z"/></g><g fill="#ffe15a"><path d="M144.259 132.774l.824 2.695 2.746-.633c.187-.043.316.182.186.321l-1.922 2.062 1.922 2.062c.13.14.001.364-.186.321l-2.746-.633-.824 2.695c-.056.183-.315.183-.372 0l-.824-2.695-2.746.633c-.187.043-.316-.182-.186-.321l1.922-2.062-1.922-2.062a.194.194 0 0 1 .186-.321l2.746.633.824-2.695c.057-.182.317-.182.372 0zM130.748 119.825l.824 2.695 2.746-.633a.194.194 0 0 1 .186.321l-1.922 2.062 1.922 2.062c.13.14.001.364-.186.321l-2.746-.633-.824 2.695c-.056.183-.315.183-.372 0l-.824-2.695-2.746.633c-.187.043-.316-.182-.186-.321l1.922-2.062-1.922-2.062a.194.194 0 0 1 .186-.321l2.746.633.824-2.695c.056-.183.316-.183.372 0zM157.869 119.825l.824 2.695 2.746-.633a.194.194 0 0 1 .186.321l-1.922 2.062 1.922 2.062c.13.14.001.364-.186.321l-2.746-.633-.824 2.695c-.056.183-.315.183-.372 0l-.824-2.695-2.746.633c-.187.043-.316-.182-.186-.321l1.922-2.062-1.922-2.062a.194.194 0 0 1 .186-.321l2.746.633.824-2.695c.057-.183.316-.183.372 0z"/></g><path d="M181.505 118.423c.028 1.499.053 3.011.053 4.643-.678 16.956-3.201 53.883-8.699 65.003-8.106 16.279-15.59 21.658-28.785 26.618-13.196-4.958-20.679-10.337-28.78-26.605-5.518-11.163-8.059-48.718-8.708-65.016 0-1.635.027-3.13.05-4.642a102.996 102.996 0 0 0-4.845 2.033c.113 3.293.933 24.895 3.395 43.888 1.389 10.603 3.3 20.376 5.903 25.585 9.422 18.725 18.893 24.182 32.984 29.226 14.092-5.046 23.563-10.507 32.984-29.226 2.603-5.209 4.514-14.981 5.903-25.585 2.462-18.994 3.281-40.595 3.394-43.888a102.27 102.27 0 0 0-4.849-2.034z" fill="#ff1722"/><path d="M19.351 490.883C8.664 490.883 0 482.219 0 471.531V40.309c0-10.6 8.592-19.192 19.192-19.192h.159c10.687 0 19.351 8.664 19.351 19.351v431.065c0 10.686-8.664 19.35-19.351 19.35z" fill="#2e3033"/></svg>