<svg xmlns="http://www.w3.org/2000/svg" viewBox="0 0 512.001 512.001"><path d="M512 106.648H24.345v-37.18a8.463 8.463 0 0 1 8.463-8.463h470.73a8.463 8.463 0 0 1 8.463 8.463v37.18H512z" fill="#73af00"/><path fill="#ffe15a" d="M24.341 106.641h487.65v45.647H24.341z"/><path fill="#ff4b55" d="M24.341 152.291h487.65v45.647H24.341z"/><path d="M24.345 334.861H512v37.18a8.463 8.463 0 0 1-8.463 8.463H32.807a8.463 8.463 0 0 1-8.463-8.463v-37.18h.001z" fill="#73af00"/><path fill="#ffe15a" d="M24.341 289.221h487.65v45.647H24.341z"/><path fill="#ff4b55" d="M24.341 243.571h487.65v45.647H24.341z"/><path d="M512 197.934H210.852L37.89 61.006h-5.138c-2.17 0-4.103.877-5.595 2.227v315.044c1.492 1.35 3.425 2.227 5.595 2.227h5.138l172.961-136.927h301.147v-45.642l.002-.001z" fill="#464655"/><path d="M27.157 378.278l198.975-157.523L27.157 63.232c-1.701 1.538-2.813 3.707-2.813 6.181v302.682c.001 2.475 1.112 4.644 2.813 6.183z" fill="#f5f5f5"/><path fill="#ff4b55" d="M106.317 159.272l17.718 35.901 39.618 5.757-28.668 27.944 6.768 39.46-35.436-18.63-35.435 18.63 6.767-39.46-28.668-27.944 39.618-5.757z"/><path d="M152.285 225.33L105.2 188.88c-5.509-12.909-13.34-21.235-19.987-21.235-5.647 0-8.407 5.234-9.199 8.378-4.067 1.883-5.022 5.631-5.062 5.795a.904.904 0 0 0 .877 1.116l.842-.015c3.783-.087 10.087-.254 11.698 11.766 1.006 7.504-.488 20.946-5.236 31.078-3.317 7.078-2.222 12.802-2.174 13.042.09.453.511.748.98.72.073-.007.249-.015.471-.022l3.809 21.539a.9.9 0 0 0 .889.745h56.845a.904.904 0 0 0 .877-.689l6.35-26.082c.002-.007.011-.011.013-.019.004-.015-.001-.029.002-.043l2.017-8.285c1.492.177 2.381.27 2.43.274.432.055.782-.189.93-.563a.906.906 0 0 0-.287-1.05z" fill="#ffe15a"/><g fill="#464655"><path d="M152.285 225.33L105.2 188.88c-5.509-12.909-13.34-21.235-19.987-21.235-5.647 0-8.407 5.234-9.199 8.378-4.067 1.883-5.022 5.631-5.062 5.795a.904.904 0 0 0 .877 1.116l.842-.015c3.783-.087 10.087-.254 11.698 11.766 1.006 7.504-.488 20.946-5.236 31.078-3.317 7.078-2.222 12.802-2.174 13.042.09.453.511.748.98.72.073-.007.249-.015.471-.022l3.809 21.539a.9.9 0 0 0 .889.745h56.845a.904.904 0 0 0 .877-.689l6.35-26.082c.002-.007.011-.011.013-.019.004-.015-.001-.029.002-.043l2.017-8.285c1.492.177 2.381.27 2.43.274.432.055.782-.189.93-.563a.906.906 0 0 0-.287-1.05zm-71.518 1.197c4.298-9.166 6.615-22.96 5.392-32.084-1.744-13.012-9.048-13.42-12.992-13.342a7.65 7.65 0 0 1 3.966-3.599.907.907 0 0 0 .543-.655c.063-.301 1.599-7.4 7.538-7.4 5.866 0 13.268 8.179 18.418 20.352.06.143.157.268.278.362l44.717 34.617c-7.881-.956-28.477-3.793-40.676-8.6-6.376-2.511-7.829-6.333-9.112-9.707a.905.905 0 0 0-1.165-.523.904.904 0 0 0-.523 1.165c1.275 3.351 3.02 7.941 10.137 10.746a69.528 69.528 0 0 0 4.663 1.631c-.287.87-2.111 5.301-10.203 8.208-6.557 2.356-11.223 6.328-11.861 9.916-2.396-.01-4.535-.005-6.331.005v-2.606c0-1.978 1.906-4.845 3.926-7.88 2.813-4.229 6-9.024 6-13.926a.902.902 0 0 0-1.804 0c0 4.357-3.028 8.91-5.698 12.926-2.269 3.411-4.227 6.356-4.227 8.88v2.62c-1.363.014-2.43.033-3.125.053-.161-1.694-.253-6.056 2.139-11.159zm35.784-5.716c-1.044 2.901-4.134 3.883-6.424 4.198 2.484-2.207 3.322-4.247 3.557-4.994.935.274 1.895.538 2.867.796zm1.74.448c.992.249 1.996.49 3.007.721-.92 1.873-3.382 2.793-6.071 3.177 1.333-.844 2.463-2.091 3.064-3.898zM143.8 241.27c-9.147-2.819-35.545-3.54-52.09-3.644.561-2.05 3.156-4.741 7.554-6.898.045.007.086.027.133.027 24.698.088 41.888 3.751 45.825 4.674l-1.422 5.841zm-1.165 4.782l-3.608-4.025c1.72.299 3.185.633 4.345 1.003l-.737 3.022zm-46.673.637l1.754 1.651c-.541-.004-1.072-.01-1.625-.013-.048-.53-.087-1.09-.129-1.638zm45.594 3.795l-4.584-5.024a.898.898 0 0 0-1.168-.141l-5.383 3.603-4.051-4.44a.904.904 0 0 0-1.214-.107l-4.866 3.731-4.416-4.359a.9.9 0 0 0-1.214-.049l-4.753 3.998-4.454-4.132a.909.909 0 0 0-1.209-.017l-4.647 4.082-3.82-3.595a199.378 199.378 0 0 1-.178-3.314l3.42 3.358a.905.905 0 0 0 1.221.04l4.784-4.119 4.37 4.303a.908.908 0 0 0 1.211.051l4.8-4 4.606 4.339c.325.305.82.33 1.168.058l4.817-3.694 4.029 4.624c.305.35.826.41 1.204.141l5.357-3.817 5.327 5.941c.063.071.144.114.222.16l-.579 2.379zm-2.709-.291a137.491 137.491 0 0 0-6.159-.616l3.474-2.325 2.685 2.941zm-10.558-.929a360.744 360.744 0 0 0-6.111-.329l3.419-2.621 2.692 2.95zm-9.891-.487c-2.065-.077-4.31-.148-6.721-.211l3.514-2.957 3.207 3.168zm-10.3-.293a860.963 860.963 0 0 0-6.617-.107l3.34-2.933 3.277 3.04zm-11.181-8.994c1.873.024 3.823.058 5.818.1l-3.046 2.622-2.772-2.722zm10.371.209c1.939.054 3.898.118 5.854.193l-3.065 2.554-2.789-2.747zm10.466.392c2.07.099 4.115.212 6.096.34l-3.162 2.425-2.934-2.765zm10.359.652c2.228.181 4.333.386 6.273.617l-3.539 2.521-2.734-3.138zm-47.877-1.28c2.711-.039 7.572-.062 13.501-.008.339 8.576 1.087 15.466 2.226 20.526H83.865l-3.629-20.518zm59.009 20.517H97.81c-.634-2.713-1.147-6.009-1.54-9.848 30.183.199 41.649 1.697 44.515 2.165.086.083.179.15.284.193l-1.824 7.49zm6.404-26.305c-3.815-.893-19.564-4.235-42.285-4.67 1.601-.638 2.965-1.329 4.116-2.043.537.067 2.119.241 4.101.241 4.118 0 9.902-.779 11.499-4.823 9.378 2.052 18.99 3.4 24.328 4.066l-1.759 7.229z"/><path d="M87.77 175.614a3.01 3.01 0 0 0-3.007-3.008c-1.659 0-3.007 1.349-3.007 3.008s1.349 3.007 3.007 3.007a3.01 3.01 0 0 0 3.007-3.007zm-3.008 1.203a1.204 1.204 0 0 1 0-2.406 1.204 1.204 0 0 1 0 2.406zM109.976 231.539a2.961 2.961 0 0 0-2.957 2.957 2.96 2.96 0 0 0 2.957 2.957 2.962 2.962 0 0 0 2.959-2.957 2.962 2.962 0 0 0-2.959-2.957zm0 4.109a1.153 1.153 0 1 1 0-2.304 1.153 1.153 0 0 1 0 2.304zM118.819 232.043a2.963 2.963 0 0 0-2.959 2.958 2.961 2.961 0 0 0 2.959 2.957c1.63 0 2.957-1.327 2.957-2.957s-1.327-2.958-2.957-2.958zm0 4.11c-.636 0-1.154-.517-1.154-1.153s.518-1.154 1.154-1.154a1.154 1.154 0 0 1 0 2.307z"/></g><path d="M19.174 488.73C8.585 488.73 0 480.146 0 469.556V42.288c0-10.502 8.514-19.016 19.016-19.016h.158c10.589 0 19.174 8.585 19.174 19.174v427.111c-.001 10.589-8.585 19.173-19.174 19.173z" fill="#2e3033"/></svg>