<svg xmlns="http://www.w3.org/2000/svg" viewBox="0 0 512 512"><g fill="#41479b"><path d="M512 162.357H26.68V64.821a8.454 8.454 0 0 1 8.453-8.453h468.414A8.454 8.454 0 0 1 512 64.821v97.536zM503.547 374.337H35.133a8.454 8.454 0 0 1-8.453-8.453v-97.537H512v97.536a8.453 8.453 0 0 1-8.453 8.454z"/></g><path fill="#f5f5f5" d="M26.68 162.357H512v105.99H26.68z"/><g fill="#50af69"><path d="M269.14 250.958c-20.186 0-36.608-16.422-36.608-36.608a36.633 36.633 0 0 1 8.606-23.581l1.6 1.348a34.54 34.54 0 0 0-8.114 22.233c0 19.031 15.484 34.516 34.516 34.516v2.092z"/><path d="M255.749 240.148c-.458.78-.683 1.851-.782 2.939a9.043 9.043 0 0 0-1.328-.806s-.72 2.535-.156 4.36c0 0-1.908.237-3.659 1.994 0 0 .603.427 1.64.872-1.739 1.358-2.276 2.7-2.276 2.7 10.265 5.133 15.185-2.028 15.399-2.349-2.516-7.176-8.838-9.71-8.838-9.71z"/><path d="M264.586 249.856c.006.018.015.034.02.052v-.082a.139.139 0 0 1-.02.03zM246.269 233.305c-.671.49-1.252 1.311-1.734 2.191a8.233 8.233 0 0 0-.824-1.164s-1.533 1.873-1.727 3.618c0 0-1.695-.498-3.813.342 0 0 .353.581 1.064 1.335-1.962.508-2.906 1.443-2.906 1.443 6.777 8.081 13.543 3.844 13.841 3.651.503-6.968-3.901-11.416-3.901-11.416z"/><path d="M250.169 244.721c-.001.018 0 .034-.002.052l.031-.07a.33.33 0 0 1-.029.018zM240.387 224.363c-.732.154-1.514.613-2.236 1.157a7.569 7.569 0 0 0-.246-1.263s-1.954.971-2.758 2.332c0 0-1.208-1.038-3.26-1.132 0 0 .074.608.379 1.491-1.801-.31-2.922.109-2.922.109 2.572 9.148 9.7 8.175 10.016 8.128 2.998-5.539 1.027-10.822 1.027-10.822z"/><path d="M239.36 235.184l-.02.041.051-.045-.031.004zM238.059 214.167c-.695.045-1.504.349-2.278.733.053-.369.082-.745.069-1.125 0 0-1.981.605-3.018 1.69 0 0-.848-1.046-2.674-1.376 0 0-.073.537 0 1.339-1.549-.486-2.654-.259-2.654-.259.217 8.248 6.854 8.266 7.15 8.263 3.965-4.442 3.405-9.265 3.405-9.265z"/><path d="M234.652 223.432l-.027.034.056-.034h-.029zM238.831 205.725c-.595-.142-1.351-.097-2.101.025.141-.296.262-.603.349-.926 0 0-1.818-.004-2.968.637 0 0-.442-1.097-1.887-1.846 0 0-.2.431-.347 1.123-1.174-.809-2.16-.904-2.16-.904-1.953 6.975 3.612 8.707 3.86 8.781 4.476-2.7 5.254-6.89 5.254-6.89z"/><path d="M233.576 212.615c-.012.006-.021.014-.033.021l.056-.014c0-.002-.018-.007-.023-.007zM234.427 195.456s-1.896 4.968 1.046 7.844c0 0 3.836-1.133 5.731-5.12l-1.612-.305-.828-2.484-2.745 1.22-1.592-1.155zM239.768 187.471s-2.972 4.409-.758 7.877c0 0 3.992-.235 6.741-3.69l-1.501-.663-.244-2.607-2.95.566-1.288-1.483zM269.541 250.958v-2.092c19.032 0 34.516-15.485 34.516-34.516a34.534 34.534 0 0 0-8.114-22.233l1.6-1.348a36.627 36.627 0 0 1 8.606 23.581c0 20.185-16.423 36.608-36.608 36.608z"/><path d="M282.932 240.148c.458.78.683 1.851.782 2.939a9.043 9.043 0 0 1 1.328-.806s.72 2.535.156 4.36c0 0 1.907.237 3.659 1.994 0 0-.603.427-1.64.872 1.739 1.358 2.276 2.7 2.276 2.7-10.265 5.133-15.185-2.028-15.399-2.349 2.515-7.176 8.838-9.71 8.838-9.71zM274.094 249.856l-.02.052v-.082l.02.03zM292.412 233.305c.671.49 1.252 1.311 1.734 2.191.24-.403.507-.795.824-1.164 0 0 1.533 1.873 1.727 3.618 0 0 1.695-.498 3.813.342 0 0-.353.581-1.064 1.335 1.963.508 2.906 1.443 2.906 1.443-6.777 8.081-13.543 3.844-13.841 3.651-.504-6.968 3.901-11.416 3.901-11.416z"/><path d="M288.512 244.721c.001.018 0 .034.002.052l-.03-.07a.151.151 0 0 0 .028.018zM298.293 224.363c.732.154 1.514.613 2.236 1.157.048-.419.123-.841.245-1.263 0 0 1.954.971 2.759 2.332 0 0 1.208-1.038 3.26-1.132 0 0-.074.608-.379 1.491 1.801-.31 2.922.109 2.922.109-2.572 9.148-9.7 8.175-10.016 8.128-2.997-5.539-1.027-10.822-1.027-10.822z"/><path d="M299.32 235.184l.02.041-.051-.045.031.004zM300.622 214.167c.695.045 1.504.349 2.278.733a6.375 6.375 0 0 1-.069-1.125s1.981.605 3.018 1.69c0 0 .848-1.046 2.674-1.376 0 0 .073.537.001 1.339 1.549-.486 2.654-.259 2.654-.259-.217 8.248-6.854 8.266-7.15 8.263-3.967-4.442-3.406-9.265-3.406-9.265z"/><path d="M304.028 223.432l.029.034-.056-.034h.027zM299.85 205.725c.595-.142 1.351-.097 2.101.025a5.447 5.447 0 0 1-.349-.926s1.818-.004 2.968.637c0 0 .442-1.097 1.887-1.846 0 0 .2.431.347 1.123 1.174-.809 2.16-.904 2.16-.904 1.953 6.975-3.611 8.707-3.86 8.781-4.477-2.7-5.254-6.89-5.254-6.89z"/><path d="M305.105 212.615c.012.006.021.014.032.021l-.055-.014c0-.002.017-.007.023-.007zM304.253 195.456s1.896 4.968-1.046 7.844c0 0-3.836-1.133-5.731-5.12l1.612-.305.828-2.484 2.745 1.22 1.592-1.155zM298.912 187.471s2.972 4.409.758 7.877c0 0-3.992-.235-6.741-3.69l1.501-.663.244-2.607 2.951.566 1.287-1.483z"/></g><path d="M269.34 228.951l-3.234 4.851a2.089 2.089 0 0 0 .261 2.636l2.973 2.972 2.972-2.972a2.088 2.088 0 0 0 .261-2.636l-3.233-4.851z" fill="#41479b"/><path d="M270.718 233.801l-1.378-4.851-1.378 4.851c-.236.828-.189 1.932.111 2.636l1.267 2.972 1.267-2.972c.3-.705.347-1.807.111-2.636z" fill="#f5f5f5"/><g fill="#41479b"><path d="M269.34 185.544v-13.075s-4.968 7.147-4.184 17.607M247.06 185.587c-7.186 15.598.185 28.433 1.733 30.85.041.064 10.263-16.471 10.263-16.471l-11.996-14.379"/></g><path d="M254.625 207.119c-1.134-3.531-1.299-7.654.063-12.386l-4.447-5.331c-3.655 9.847-2.142 17.118 1.515 22.334a1675.6 1675.6 0 0 0 2.869-4.617z" fill="#f5f5f5"/><path d="M258.881 200.839c-.312 0-.62-.139-.826-.405l-13.116-16.864a1.045 1.045 0 1 1 1.651-1.283l13.116 16.864a1.045 1.045 0 0 1-.825 1.688z" fill="#ffe15a"/><path d="M237.961 201.796c-4.183 41.838 29.287 31.379 31.379 27.195l-20.919-10.46 4.184-8.368-14.644-8.367" fill="#41479b"/><path d="M248.076 206.611l-5.829-3.499c-1.311 24.862 11.965 29.002 21.756 27.767-7.939-1.065-15.871-6.926-15.927-24.268z" fill="#f5f5f5"/><path d="M252.603 211.208c-.189 0-.381-.051-.554-.16l-16.734-10.458a1.045 1.045 0 0 1 1.109-1.773l16.734 10.458a1.045 1.045 0 0 1-.555 1.933z" fill="#ffe15a"/><path d="M291.621 185.546c7.186 15.598-.185 28.433-1.733 30.85-.041.064-10.263-16.471-10.263-16.471l11.996-14.379" fill="#41479b"/><path d="M284.055 207.077c1.134-3.531 1.299-7.654-.063-12.385l4.447-5.331c3.655 9.847 2.142 17.118-1.515 22.334-.899-1.444-1.896-3.049-2.869-4.618z" fill="#f5f5f5"/><path d="M279.799 200.798a1.045 1.045 0 0 1-.824-1.688l13.116-16.864a1.045 1.045 0 1 1 1.651 1.283l-13.116 16.864a1.05 1.05 0 0 1-.827.405z" fill="#ffe15a"/><path d="M300.719 201.755c4.184 41.838-29.287 31.379-31.379 27.195l20.919-10.46-4.184-8.368 14.644-8.367" fill="#41479b"/><path d="M290.604 206.57l5.829-3.499c1.311 24.862-11.965 29.002-21.756 27.767 7.94-1.065 15.871-6.926 15.927-24.268z" fill="#f5f5f5"/><path d="M286.077 211.167a1.045 1.045 0 0 1-.556-1.932l16.734-10.458a1.04 1.04 0 0 1 1.441.333 1.045 1.045 0 0 1-.332 1.44l-16.734 10.458a1.026 1.026 0 0 1-.553.159z" fill="#ffe15a"/><path d="M277.552 202.21a8.382 8.382 0 0 1-9.85 9.85c-3.294-.624-5.95-3.281-6.574-6.574a8.381 8.381 0 0 1 9.85-9.85c3.293.623 5.95 3.281 6.574 6.574z" fill="#ffe6e6"/><path d="M273.474 203.186a4.188 4.188 0 0 1-4.795 4.794c-1.761-.269-3.202-1.71-3.471-3.471a4.189 4.189 0 0 1 4.795-4.795c1.761.27 3.2 1.709 3.471 3.472z" fill="#f5f5f5"/><path d="M269.34 217.445a1.046 1.046 0 0 1-1.046-1.046v-12.552a1.046 1.046 0 1 1 2.092 0v12.552c0 .578-.468 1.046-1.046 1.046z" fill="#ffe15a"/><path fill="#5aa0e6" d="M297.929 228.775h-56.045l6.537-12.438h42.013z"/><path d="M271.042 218.665h14.575l-4.534-4.534a1.935 1.935 0 0 0-.76-.469l-1.579-.526a1.945 1.945 0 0 0-1.693.226l-5.039 3.36-.97 1.943z" fill="#ffb750"/><path d="M266.086 219.449h17.396l-5.411-5.412a2.306 2.306 0 0 0-.907-.56l-1.884-.628a2.318 2.318 0 0 0-2.02.271l-6.014 4.01-1.16 2.319z" fill="#ffc455"/><path d="M260.034 220.32h21.007l-6.535-6.535a2.8 2.8 0 0 0-1.095-.676l-2.275-.759a2.799 2.799 0 0 0-2.44.327l-7.263 4.843-1.399 2.8z" fill="#ffcd55"/><path d="M254.046 221.105H278.1l-7.483-7.483a3.215 3.215 0 0 0-1.253-.775l-2.605-.869a3.209 3.209 0 0 0-2.794.374l-8.317 5.544-1.602 3.209z" fill="#ffd25a"/><path d="M244.238 222.674h31.378l-9.761-9.761a4.192 4.192 0 0 0-1.636-1.011l-3.397-1.133a4.183 4.183 0 0 0-3.643.488l-10.849 7.233-2.092 4.184z" fill="#ffe15a"/><g fill="#ff4b55"><path d="M271.598 205.723h-4.522l1.041-4.367h1.572c.509 0 .952.35 1.069.844l.84 3.523z"/><path d="M271.332 206.425h-4.048a.608.608 0 0 1-.608-.608v-.188c0-.336.273-.608.608-.608h4.048c.336 0 .608.273.608.608v.188a.608.608 0 0 1-.608.608zM268.654 203.346l-1.015-.258a.45.45 0 0 1-.257-.695l.734-1.036.538 1.989z"/></g><path d="M264.122 193.102l-.149 1.153c1.625-.986 3.419-1.579 5.367-1.579 1.946.002 3.741.591 5.367 1.579l-.149-1.153c-1.617-.844-3.357-1.329-5.218-1.327-1.86-.002-3.6.482-5.218 1.327z" fill="#41479b"/><path d="M264.187 192.6l-.149 1.153c1.608-.989 3.379-1.582 5.302-1.583 1.922.001 3.694.595 5.302 1.583l-.149-1.153c-1.599-.85-3.317-1.331-5.153-1.332-1.836.002-3.554.485-5.153 1.332z" fill="#5aa0e6"/><path d="M264.247 192.139l-.149 1.153c1.592-.992 3.343-1.589 5.242-1.588 1.9 0 3.651.596 5.242 1.588l-.149-1.153c-1.582-.85-3.28-1.337-5.094-1.338-1.813-.002-3.51.487-5.092 1.338z" fill="#9bc800"/><path d="M264.315 191.608l-.149 1.153c1.573-.995 3.301-1.593 5.173-1.593 1.873.002 3.601.598 5.173 1.593l-.149-1.153c-1.563-.854-3.236-1.342-5.025-1.343-1.787.001-3.461.49-5.023 1.343z" fill="#ffe14e"/><path d="M264.382 191.089l-.149 1.153c1.555-.997 3.259-1.598 5.107-1.599 1.848.002 3.551.599 5.107 1.599l-.149-1.153c-1.544-.855-3.194-1.347-4.958-1.348-1.763.001-3.414.49-4.958 1.348z" fill="#ffb14e"/><path d="M264.411 190.867l-.104.807c1.534-1 3.214-1.605 5.034-1.604 1.82-.001 3.5.603 5.034 1.604l-.104-.807c-1.535-.857-3.177-1.349-4.93-1.35-1.754-.003-3.395.49-4.93 1.35z" fill="#ff4b55"/><g fill="#ffe15a"><path d="M298.627 229.996h-58.573a1.044 1.044 0 0 1-.87-1.627l29.287-43.93c.388-.58 1.352-.58 1.74 0l29.287 43.93c.213.32.234.733.052 1.075a1.049 1.049 0 0 1-.923.552zm-56.619-2.092h54.665l-27.333-40.999-27.332 40.999zM269.34 175.606a1.046 1.046 0 0 1-1.046-1.046v-4.184a1.046 1.046 0 1 1 2.092 0v4.184c0 .579-.468 1.046-1.046 1.046z"/><path d="M271.432 175.606h-4.183a1.046 1.046 0 1 1 0-2.092h4.183a1.046 1.046 0 1 1 0 2.092z"/></g><g fill="#41479b"><path d="M269.34 250.915c-.076 0-.152-.008-.227-.024-1.024-.229-4.44-1.048-5.447-2.047a3.275 3.275 0 0 1-.017-4.625 3.247 3.247 0 0 1 2.309-.965h.012c.87 0 1.686.337 2.303.95 1.007 1.001 1.853 4.408 2.088 5.43a1.048 1.048 0 0 1-1.021 1.281zm-3.372-5.569c-.278.092-.613.125-.836.348a1.18 1.18 0 0 0 .007 1.665c.254.247 1.384.674 2.74 1.061-.396-1.35-.832-2.478-1.082-2.731l.736-.742-.738.742a1.151 1.151 0 0 0-.827-.343z"/><path d="M269.34 250.915a1.045 1.045 0 0 1-1.02-1.281c.235-1.022 1.081-4.429 2.088-5.43.62-.615 1.359-.895 2.315-.95a3.243 3.243 0 0 1 2.308.965 3.273 3.273 0 0 1-.015 4.623c-1.008 1.001-4.425 1.821-5.448 2.049a1.04 1.04 0 0 1-.228.024zm1.806-5.97l.736.742c-.25.254-.686 1.381-1.082 2.731 1.356-.386 2.486-.814 2.741-1.062a1.176 1.176 0 0 0-.826-2.011h-.004c-.313 0-.607.12-.828.341l-.737-.741zm0 0h.02-.02z"/><path d="M265.157 257.19a1.046 1.046 0 0 1-1.046-1.046c0-4.776 4.568-7.113 4.762-7.212a1.046 1.046 0 0 1 .938 1.869c-.037.018-3.608 1.873-3.608 5.342a1.046 1.046 0 0 1-1.046 1.047z"/><path d="M273.524 257.19a1.046 1.046 0 0 1-1.046-1.046c0-3.469-3.571-5.323-3.608-5.342a1.047 1.047 0 0 1 .938-1.869c.194.098 4.762 2.434 4.762 7.212 0 .578-.468 1.045-1.046 1.045z"/></g><path d="M19.152 488.46C8.575 488.46 0 479.884 0 469.307V42.534C0 32.044 8.504 23.54 18.994 23.54h.157c10.577 0 19.152 8.575 19.152 19.152V469.31c0 10.574-8.575 19.15-19.151 19.15z" fill="#2e3033"/></svg>