<svg xmlns="http://www.w3.org/2000/svg" viewBox="0 0 512.1 512.1"><path d="M35.4 56.1h468.3c4.6 0 8.4 3.7 8.4 8.4v301c0 4.6-3.7 8.4-8.4 8.4H35.4c-4.6 0-8.4-3.7-8.4-8.4v-301c0-4.6 3.7-8.4 8.4-8.4z" fill="#41479b"/><path d="M508.9 371.9L30.1 58.1c1.4-1.2 3.2-2 5.3-2h468.3c4.6 0 8.4 3.7 8.4 8.4v301c-.1 2.6-1.3 4.8-3.2 6.4z" fill="#73af00"/><circle cx="269.5" cy="215" r="50.2" fill="#ffe15a"/><g fill="#f5f5f5"><path d="M77.8 222.2l2.9 7.4 7.6-2.3c.4-.1.8.3.6.7l-3.9 6.9 6.5 4.5c.4.2.2.8-.2.9l-7.8 1.2.6 7.9c0 .4-.5.7-.8.4l-5.8-5.4-5.8 5.4c-.3.3-.8 0-.8-.4l.6-7.9-7.8-1.2c-.4-.1-.6-.6-.2-.9l6.5-4.5-3.9-6.9c-.2-.4.1-.8.6-.7l7.6 2.3 2.9-7.4c-.1-.4.5-.4.6 0zM169.3 195.7l2.9 7.4 7.6-2.3c.4-.1.8.3.6.7l-3.9 6.9 6.5 4.5c.4.2.2.8-.2.9L175 215l.6 7.9c0 .4-.5.7-.8.4l-5.8-5.4-5.8 5.4c-.3.3-.8 0-.8-.4l.6-7.9-7.8-1.2c-.4-.1-.6-.6-.2-.9l6.5-4.5-3.9-6.9c-.2-.4.1-.8.6-.7l7.6 2.3 2.9-7.4c-.2-.4.4-.4.6 0zM116.4 148.1l2.9 7.4 7.6-2.3c.4-.1.8.3.6.7l-3.9 6.9 6.5 4.5c.4.2.2.8-.2.9l-7.8 1.2.6 7.9c0 .4-.5.7-.8.4l-5.8-5.4-5.8 5.4c-.3.3-.8 0-.8-.4l.6-7.9-7.8-1.2c-.4-.1-.6-.6-.2-.9l6.5-4.5-3.9-6.9c-.2-.4.1-.8.6-.7l7.6 2.3 2.9-7.4c-.1-.4.5-.4.6 0zM116.4 321.3l2.9 7.4 7.6-2.3c.4-.1.8.3.6.7l-3.9 6.9 6.5 4.5c.4.2.2.8-.2.9l-7.8 1.2.6 7.9c0 .4-.5.7-.8.4l-5.8-5.4-5.8 5.4c-.3.3-.8 0-.8-.4l.6-7.9-7.8-1.2c-.4-.1-.6-.6-.2-.9l6.5-4.5-3.9-6.9c-.2-.4.1-.8.6-.7l7.6 2.3 2.9-7.4c-.1-.4.5-.4.6 0zM138.1 222.2l2 6.1 6.4.1c.5 0 .7.6.3.9l-5.2 3.8 1.9 6.1c.1.5-.4.9-.8.6l-5.2-3.7-5.2 3.7c-.4.3-.9-.1-.8-.6l1.9-6.1-5.2-3.8c-.4-.3-.2-.9.3-.9l6.4-.1 2-6.1c.3-.5 1-.5 1.2 0z"/></g><path d="M239.7 193.4c-2.1-.5-4.1 4.8-1.8 6.6s6.4 5.3 3.9 7.3c-2.5 2.1-3.4 2.3-3.9 4.8s0 3-2.1 4.1-6.9 3.4-4.8 5.7c2.1 2.3 4.8.9 6.6-2.7 0 0 12.8-.5 13.3.5.5.9 1.6 4.3 4.3 3.4l2.7-.9s1.6-.7 2.7.7 3.9 1.8 7.1 1.8 5.9 1.8 5.7 6.2c-.1 2.8-.9 8.6-1.3 12.4-.3 2 1.1 3.9 3.2 4.2l5.9 1c1.5.3 3-.8 3.1-2.4.3-3.1.7-7.7.7-7.9-.1-1.6 3.2-10.1 3-13.9l-.2-3.9s3.4-.5 4.8-2.7c1.4-2.3 4.3-8 10.3-10.1l1.6-3.9s-4.6-2.1-3.7-3.4c.9-1.4 1.4-5 .7-8s-.9-7.1-.9-7.1-1.6-.7-2 .3-.7 1.5-1.5 1.3c-.9-.2-2.2-.3-2.5-1-.3-.8-1.3-1.5-2.2-1.1-.9.4-2.3 6.2-4.4 6.8 0 0-.2-2.5-1.5-2s-1.2 1.7-1.4 3.9c-.2 2.2-14.6 16.7-27.3 12.8 0 0-1.4-2.8-4.2-2.5s-5.6.2-7.2-1.8c-1.6-2.1-4.2-7.9-6.7-8.5z" fill="#73af00"/><path d="M332.8 217.3c3.8 4.1 45.7 15.5 88-6.7s67.5-28.6 67.5-28.6.3-5.7 5.5-6.6c5.2-.8 2.7-3 1.3-4.7-1.3-1.7-7.9-6.2-16.8-2.4 0 0-10.4.4-11.9-13.9-1.6-14.3-2.2-28.9-5.8-35.2s-33-37.5-36.6-35 9 33.6 20.6 44.6c0 0 2.7 19.3-.7 20.2-3.4.9-22-16.1-55.1-20.2 0 0 14.1 19.3 31.4 27.3 17.2 8.1 22 15.5 21.5 18.6-.4 3.1-6.3 18.1-15.9 25.1-9.6 6.9-33.8 25.8-88.7 15.9 0-.1-6.1-.3-4.3 1.6z" fill="#ffe15a"/><path d="M19.2 489.1C8.6 489.1 0 480.5 0 469.9V42c0-10.5 8.5-19 19-19h.2c10.6 0 19.2 8.6 19.2 19.2V470c0 10.5-8.6 19.1-19.2 19.1z" fill="#2e3033"/></svg>