<svg xmlns="http://www.w3.org/2000/svg" viewBox="0 0 512 512"><path d="M503.525 374.645H28.924a8.476 8.476 0 0 1-8.475-8.475V61.069a8.476 8.476 0 0 1 8.475-8.475h474.601A8.476 8.476 0 0 1 512 61.069V366.17a8.476 8.476 0 0 1-8.475 8.475z" fill="#f5f5f5"/><g fill="#464655"><path d="M266.224 213.62V52.594h-237.3c-2.06 0-3.879.825-5.349 2.049L266.224 213.62zM508.873 54.642L266.224 213.62h245.775V61.069c.001-2.619-1.258-4.873-3.126-6.427z"/><path d="M23.574 372.596l242.649-158.978H20.448v152.55c0 2.622 1.259 4.875 3.126 6.428zM266.224 213.62v161.025h237.3c2.06 0 3.879-.825 5.349-2.049L266.224 213.62z"/></g><path d="M286.564 201.755v27.12c0 11.216-9.124 20.34-20.34 20.34s-20.34-9.124-20.34-20.34v-27.12h40.68m6.78-13.56h-54.24a6.78 6.78 0 0 0-6.78 6.78v33.9c0 18.722 15.178 33.9 33.9 33.9s33.9-15.178 33.9-33.9v-33.9a6.78 6.78 0 0 0-6.78-6.78z" fill="#ff4b55"/><path d="M286.564 201.755v27.12c0 11.216-9.124 20.34-20.34 20.34s-20.34-9.124-20.34-20.34v-27.12h40.68" fill="#f5f5f5"/><g fill="#ffe15a"><circle cx="239.05" cy="194.98" r="3.39"/><circle cx="293.29" cy="194.98" r="3.39"/><circle cx="239.05" cy="222.1" r="3.39"/><circle cx="293.29" cy="222.1" r="3.39"/><circle cx="266.17" cy="194.98" r="3.39"/><circle cx="266.17" cy="256.26" r="3.39"/><circle cx="286.52" cy="247.1" r="3.39"/><circle cx="246.22" cy="247.1" r="3.39"/></g><g fill="#41479b"><path d="M270.603 220.376v5.838c0 2.414-1.964 4.378-4.378 4.378s-4.378-1.964-4.378-4.378v-5.838h8.756M270.603 206.533v5.838c0 2.414-1.964 4.378-4.378 4.378s-4.378-1.964-4.378-4.378v-5.838h8.756M270.603 234.36v5.838c0 2.414-1.964 4.378-4.378 4.378s-4.378-1.964-4.378-4.378v-5.838h8.756M282.397 220.376v5.838c0 2.414-1.964 4.378-4.378 4.378s-4.378-1.964-4.378-4.378v-5.838h8.756M258.808 220.376v5.838a4.383 4.383 0 0 1-4.378 4.378 4.383 4.383 0 0 1-4.378-4.378v-5.838h8.756"/></g><path d="M299.045 188.195h-65.307a3.99 3.99 0 0 1-3.989-3.989v-2.493a3.99 3.99 0 0 1 3.989-3.989h65.307a3.99 3.99 0 0 1 3.989 3.989v2.493a3.99 3.99 0 0 1-3.989 3.989z" fill="#ffe15a"/><path fill="#ff4b55" d="M266.392 180.342l-5.235 2.618 5.235 2.617 5.234-2.617z"/><g fill="#4173cd"><ellipse cx="283.4" cy="182.97" rx="3.926" ry="2.618"/><ellipse cx="249.38" cy="182.97" rx="3.926" ry="2.618"/></g><g fill="#f5f5f5"><circle cx="275.56" cy="182.97" r="1.308"/><circle cx="291.25" cy="182.97" r="1.308"/><circle cx="257.23" cy="182.97" r="1.308"/><circle cx="241.53" cy="182.97" r="1.308"/></g><g fill="#ff4b55"><path d="M229.749 181.651v2.618l2.618 1.308 5.234-2.617-5.234-2.618zM303.034 184.269v-2.618l-2.618-1.309-5.234 2.618 5.234 2.617z"/></g><g fill="#f5f5f5"><path d="M248.974 160.701c-.835-.411-1.827-.158-2.663.488.429-.635.675-1.481.628-2.402-.095-1.872-1.343-3.331-2.786-3.257-1.443.074-2.536 1.651-2.442 3.522.051.995.439 1.851.997 2.444-1.127-.55-2.36-.497-3.114.257-1.022 1.021-.777 2.925.55 4.25 1.325 1.326 3.229 1.572 4.251.55.285-.285.449-.646.54-1.038.209.548.53 1.022 1.039 1.273 1.297.639 3.019-.207 3.848-1.888.829-1.68.448-3.561-.848-4.199zm-3.848 1.887c-.192.39-.304.789-.371 1.182-.195-.516-.469-1.024-.911-1.467-.076-.076-.168-.112-.249-.182.287.119.586.203.902.188.424-.022.8-.202 1.142-.451-.181.23-.374.45-.513.73zM282.626 164.902c.828 1.681 2.551 2.527 3.848 1.888.51-.251.831-.727 1.039-1.273.092.391.255.752.54 1.038 1.022 1.022 2.925.777 4.251-.55 1.325-1.325 1.572-3.229.55-4.25-.754-.754-1.986-.807-3.113-.257.558-.593.946-1.449.997-2.444.095-1.872-.998-3.449-2.442-3.522s-2.691 1.385-2.786 3.257c-.047.922.199 1.767.628 2.402-.836-.646-1.828-.899-2.663-.488-1.298.636-1.678 2.517-.849 4.199zm4.182-3.045c.342.25.718.43 1.142.451.316.016.614-.069.902-.188-.079.069-.173.106-.249.182-.442.442-.716.951-.911 1.467a4.202 4.202 0 0 0-.371-1.182c-.138-.279-.331-.499-.513-.73z"/></g><path d="M313.991 153.012c-3.77-1.342-11.701-2.061-14.72 4.793a2.616 2.616 0 0 0 1.339 3.45c1.279.565 2.748.005 3.373-1.23l.986 1.169a26.357 26.357 0 0 0-1.25 5.109c-1.346 5.582-6.529 6.188-8.707 6.188-3.513 0-5.499-3.765-5.518-3.803a2.635 2.635 0 0 0-3.954-.872c-1.434 1.127-5.895 4.172-9.261 4.708-1.623.261-2.947-.011-3.841-.777-.725-.619-.981-1.395-.981-1.873 0-1.173 1.443-2.618 2.618-2.618.89 0 1.231.57 1.231.57a2.618 2.618 0 1 0 4.733-2.234c-.507-1.073-1.907-2.729-4.205-3.329a27.808 27.808 0 0 0 3.476-8.094l-7.852-2.618s2.618-7.852-5.234-7.852-5.234 7.852-5.234 7.852l-7.852 2.618a27.83 27.83 0 0 0 3.475 8.094c-2.298.6-3.697 2.255-4.205 3.329a2.618 2.618 0 1 0 4.731 2.239s.344-.575 1.233-.575c1.175 0 2.618 1.444 2.618 2.618 0 .478-.256 1.255-.981 1.873-.894.767-2.218 1.038-3.841.777-3.367-.537-7.828-3.581-9.261-4.708a2.62 2.62 0 0 0-2.178-.49 2.642 2.642 0 0 0-1.776 1.362c-.019.038-2.005 3.803-5.518 3.803-2.178 0-7.359-.606-8.707-6.188a26.252 26.252 0 0 0-1.249-5.109l.986-1.169c.625 1.236 2.094 1.795 3.373 1.23a2.616 2.616 0 0 0 1.339-3.45c-3.018-6.852-10.95-6.134-14.72-4.793a2.617 2.617 0 1 0 .193 4.995c3.207.861 4.645 6.991 4.896 9.068.012.089.029.184.048.273 1.463 6.4 6.767 10.378 13.839 10.378 4.054 0 6.856-2.296 8.483-4.197 2.292 1.511 5.982 3.617 9.426 4.163.661.105 1.307.159 1.939.159 2.365 0 4.492-.729 6.124-2.122 1.765-1.505 2.818-3.696 2.818-5.855 0 2.16 1.053 4.35 2.818 5.855 1.631 1.393 3.76 2.122 6.124 2.122.631 0 1.278-.054 1.939-.159 3.444-.547 7.134-2.653 9.426-4.163 1.627 1.902 4.429 4.197 8.483 4.197 7.072 0 12.376-3.977 13.839-10.378.019-.089.036-.184.048-.273.25-2.079 1.69-8.207 4.895-9.068a2.615 2.615 0 0 0 1.934-2.426 2.613 2.613 0 0 0-1.738-2.569z" fill="#ffe15a"/><g fill="#4173cd"><ellipse transform="rotate(157.473 222.273 162.02)" cx="222.272" cy="162.02" rx="2.618" ry="3.926"/><ellipse transform="rotate(22.527 310.186 162.019)" cx="310.182" cy="162.023" rx="2.618" ry="3.926"/><ellipse cx="266.22" cy="159.41" rx="3.926" ry="5.234"/></g><path d="M19.201 489.063C8.597 489.063 0 480.466 0 469.862V41.982c0-10.517 8.526-19.044 19.043-19.044h.158c10.604 0 19.201 8.597 19.201 19.201v427.723c0 10.604-8.596 19.201-19.201 19.201z" fill="#2e3033"/></svg>