<svg xmlns="http://www.w3.org/2000/svg" viewBox="0 0 512 512"><path d="M512 162.357H26.68V64.821a8.454 8.454 0 0 1 8.453-8.453h468.414A8.454 8.454 0 0 1 512 64.821v97.536z" fill="#ff4b55"/><path d="M503.547 374.337H35.133a8.454 8.454 0 0 1-8.453-8.453v-97.537H512v97.536a8.453 8.453 0 0 1-8.453 8.454z" fill="#464655"/><path fill="#f5f5f5" d="M26.68 162.357H512v105.99H26.68z"/><g fill="#73af00"><path d="M318.692 194.049c-.879-.459-1.921-2.096-1.597-2.812.342-.752-.19-.688 1.608-.153 3.251.842 5.355.459 7.421-1.301l1.835-1.453 2.143 1.071c1.185.535 2.409.916 2.754.84.995-.229 2.908-2.678 2.869-3.52-.039-1.145.803-.84 1.225.384.879 2.295-.739 6.255-2.958 6.79-1.069.305-2.065.229-3.749-.305-1.988-.766-2.295-.766-3.365 0-2.218 1.76-5.393 1.915-8.186.459M327.066 185.193c-1.072-1.505-2.363-6.769-1.985-8.056.374-1.182.751-1.397 1.771-1.076 1.826.643 2.258 1.826 2.04 6.125-.321 3.222-.75 4.296-1.826 3.007M255.127 208.462c-4.408 2.508-10.966 2.939-10.966 9.89-9.602.358-20.925.787-31.138.573 2.767-3.575 20.285-19.767 27.57-26.183 1.206-1.062 1.615-3.117.914-4.563l-.188-.389c-1.05-2.166-3.907-2.682-5.647-1.018-7.259 6.944-14.453 13.415-15.624 14.525-9.399 9.498-12.155 12.265-13.631 13.752a5.604 5.604 0 0 0-1.628 3.981v.097a5.631 5.631 0 0 0 5.632 5.602h41.12c2.33 0-.536-8.098 2.473-8.098 2.092 0 2.284 2.906 2.193 5.983-.07 2.34-1.998 4.193-4.341 4.196-17.778.024-36.284.194-53.699.21a2.594 2.594 0 0 1-2.593-2.605v-3.132c0-2.656-2.95-4.201-5.17-2.742a9.627 9.627 0 0 1-.241.154c-1.159.725-1.754 2.145-1.301 3.435.295.837.422 1.858.45 2.924.038 1.411-1.109 2.572-2.52 2.615-5.759.176-12.018.228-13.797-3.168-1.003-1.916-3.136-2.819-5.071-1.852l-.258.129c-2.036 1.018-2.852 3.537-1.736 5.52 2.121 3.771 4.057 8.147 3.053 14.275-.819 1.932-2.363 3.14-4.034 4.229-1.858 1.21-.692 4.038 1.488 3.636 5.283-.976 8.923-5.16 10.037-10.087h81.917a5.44 5.44 0 0 0 5.44-5.44v-17.779c-.749-5.302-6.448-5.086-8.704-8.67zM359.03 184.971c1.208.778 2.42 1.555 3.767 2.199 1.475.704 2.038 2.504 1.176 3.893a4.004 4.004 0 0 0-.527 1.276v35.259c2.41.501 3.792.026 4.891-.731a2.146 2.146 0 0 1 3.307 1.22c.832 3.093 2.193 6.114 2.918 8.864a2.706 2.706 0 0 1-2.615 3.401h-13.813a2.214 2.214 0 0 1-2.214-2.215v-51.47c0-1.595 1.767-2.561 3.11-1.696zM342.305 193.557c.011 9.736.124 20.224.141 30.66a2.446 2.446 0 0 1-2.447 2.448h-.157a2.445 2.445 0 0 1-2.445-2.445v-24.731c0-1.346-1.582-2.067-2.594-1.179l-3.242 2.801a3.009 3.009 0 0 0-1.047 2.272c-.011 4.023-.045 15.735-.061 20.847a2.442 2.442 0 0 1-2.445 2.434h-.222a2.441 2.441 0 0 1-2.445-2.424c-.024-3.403-.067-9.712-.083-14.443-.005-1.361-1.616-2.072-2.638-1.175-3.359 2.943-4.134 3.608-5.896 5.43.143.932.86 0 1.29.715v4.732c-12.236-2.303-13.149 7.47-12.69 17.959a2.949 2.949 0 0 0 2.941 2.823h38.414a2.58 2.58 0 0 0 2.579-2.579v-47.756c0-1.596-1.892-2.414-3.07-1.338-.938.859-1.94 1.718-2.801 2.497a3.283 3.283 0 0 0-1.082 2.452zm-28.271 32.75c-.752-2.15 3.476-2.939 3.977-1.004.18 2.366-3.045 2.437-3.977 1.004z"/><path d="M187.154 244.149c1.47 0 2.651 1.218 2.651 2.651a2.623 2.623 0 0 1-2.651 2.653c-1.505 0-2.724-1.146-2.724-2.653 0-1.432 1.22-2.651 2.724-2.651M274.497 186.05c.717.431 1.455.844 2.24 1.215 1.418.67 1.977 2.431 1.111 3.739-.261.394-.484.84-.614 1.405v35.188c2.553.567 3.95.012 5.063-.813 1.108-.82 2.705-.254 3.06 1.079.637 2.389 1.598 4.751 2.338 6.993.906 2.742-1.128 5.567-4.016 5.567h-10.775a3.16 3.16 0 0 1-3.159-3.159v-48.487c0-2.438 2.661-3.983 4.752-2.727z"/></g><path d="M19.152 488.46C8.575 488.46 0 479.884 0 469.307V42.534C0 32.044 8.504 23.54 18.994 23.54h.157c10.577 0 19.152 8.575 19.152 19.152V469.31c0 10.574-8.575 19.15-19.151 19.15z" fill="#2e3033"/></svg>