<svg xmlns="http://www.w3.org/2000/svg" viewBox="0 0 512.1 512.1"><path d="M503.6 373.9H35.4c-4.6 0-8.4-3.7-8.4-8.4v-301c0-4.6 3.7-8.4 8.4-8.4h468.3c4.6 0 8.4 3.7 8.4 8.4v301c-.1 4.6-3.8 8.4-8.5 8.4z" fill="#41479b"/><path d="M265.1 56.1h-14.5l-77.5 50.7V56.1h-41.8v50.7L53.9 56.1H39.4c-4.6 0-8.4 3.7-8.4 8.4v6.6l66.5 43.5H31v41.8h66.5L31 200v6.6c0 4.6 3.7 8.4 8.4 8.4h14.5l77.5-50.7V215h41.8v-50.7l77.5 50.7h14.5c4.6 0 8.4-3.7 8.4-8.4V200L207 156.5h66.5v-41.8H207l66.5-43.5v-6.6c0-4.7-3.7-8.5-8.4-8.5z" fill="#f5f5f5"/><g fill="#ff4b55"><path d="M273.5 123H164.8V56.1h-25.1V123H31v25.1h108.7V215h25.1v-66.9h108.7z"/><path d="M123 114.7L35 57.5c-2.3 1.5-4 4-4 6.9v.4l76.6 49.7c0 .2 15.4.2 15.4.2zM188.5 114.7l83.7-54.3c-1.5-2.5-4-4.2-7.1-4.2h-1.8l-90.2 58.5h15.4zM115.8 156.5l-83.6 54.2c1.4 2.5 4 4.3 7.2 4.3H41l90.2-58.5h-15.4zM273.4 207.3l-78.3-50.8h-15.4l88.9 57.7c2.7-1.2 4.5-3.8 4.8-6.9z"/></g><g fill="#f5f5f5"><path d="M384.2 114.7l3.1 9.2 9.7.1c.8 0 1.1 1 .5 1.4l-7.8 5.8 2.9 9.2c.2.7-.6 1.3-1.2.9l-7.9-5.6-7.9 5.6c-.6.4-1.4-.2-1.2-.9l2.9-9.2-7.8-5.8c-.6-.4-.3-1.4.5-1.4l9.7-.1 3.1-9.2c.2-.7 1.2-.7 1.4 0zM343 126l6.5 7.2 8.9-3.9c.7-.3 1.4.4 1 1.1l-4.8 8.4 6.4 7.3c.5.6 0 1.4-.7 1.3l-9.5-1.9-4.9 8.4c-.4.6-1.4.4-1.5-.3l-1.1-9.6-9.5-2.1c-.7-.2-.8-1.2-.2-1.5l8.8-4-.9-9.6c.1-.9 1-1.3 1.5-.8zM310 153.1l8.9 3.9 6.5-7.2c.5-.6 1.4-.1 1.4.6l-.9 9.6 8.8 4c.7.3.6 1.3-.2 1.5l-9.5 2.1-1.1 9.6c-.1.7-1.1 1-1.5.3l-4.9-8.4-9.5 1.9c-.7.2-1.2-.7-.7-1.3l6.4-7.3-4.8-8.4c-.3-.4.4-1.2 1.1-.9zM290.8 191.3l9.7-.1 3.1-9.2c.2-.7 1.2-.7 1.5 0l3.1 9.2 9.7.1c.8 0 1.1 1 .5 1.4l-7.8 5.8 2.9 9.2c.2.7-.6 1.3-1.2.9l-7.9-5.6-7.9 5.6c-.6.4-1.4-.2-1.2-.9l2.9-9.2-7.8-5.8c-.7-.4-.4-1.4.4-1.4zM288.8 234l8.8-4-.9-9.6c-.1-.7.8-1.2 1.4-.6l6.5 7.2 8.9-3.9c.7-.3 1.4.4 1 1.1l-4.8 8.4 6.4 7.3c.5.6 0 1.4-.7 1.3l-9.5-1.9-4.9 8.4c-.4.6-1.4.4-1.5-.3l-1.1-9.6-9.5-2.1c-.7-.4-.8-1.4-.1-1.7zM304.4 273.8l6.4-7.3-4.8-8.4c-.4-.7.3-1.4 1-1.1l8.9 3.9 6.5-7.2c.5-.6 1.4-.1 1.4.6l-.9 9.6 8.8 4c.7.3.6 1.3-.2 1.5l-9.5 2.1-1.1 9.6c-.1.7-1.1 1-1.5.3l-4.9-8.4-9.5 1.9c-.6.3-1.1-.5-.6-1.1zM334.8 303.8l2.9-9.2-7.8-5.8c-.6-.4-.3-1.4.5-1.4l9.7-.1 3.1-9.2c.2-.7 1.2-.7 1.5 0l3.1 9.2 9.7.1c.8 0 1.1 1 .5 1.4l-7.8 5.8 2.9 9.2c.2.7-.6 1.3-1.2.9l-7.9-5.6-7.9 5.6c-.7.5-1.6-.1-1.3-.9zM374.8 318.9l-1.1-9.6-9.5-2.1c-.7-.2-.8-1.2-.2-1.5l8.8-4-.9-9.6c-.1-.7.8-1.2 1.4-.6l6.5 7.2 8.9-3.9c.7-.3 1.4.4 1 1.1l-4.8 8.4 6.4 7.3c.5.6 0 1.4-.7 1.3l-9.5-1.9-4.9 8.4c-.4.5-1.3.3-1.4-.5zM417.4 316.4l-4.9-8.4-9.5 2c-.7.2-1.2-.7-.7-1.3l6.4-7.3-4.8-8.4c-.4-.7.3-1.4 1-1.1l8.9 3.9 6.5-7.2c.5-.6 1.4-.1 1.4.6l-.9 9.6 8.8 4c.7.3.6 1.3-.2 1.5l-9.5 2.1-1.1 9.6c0 .9-1 1.1-1.4.4zM455.4 296.8l-7.9-5.6-7.9 5.6c-.6.4-1.4-.2-1.2-.9l2.9-9.2-7.8-5.8c-.6-.4-.3-1.4.5-1.4l9.7-.1 3.1-9.2c.2-.7 1.2-.7 1.5 0l3.1 9.2 9.7.1c.8 0 1.1 1 .5 1.4l-7.8 5.8 2.9 9.2c.1.7-.7 1.3-1.3.9zM482.1 263.4l-9.5-1.9-4.9 8.4c-.4.6-1.4.4-1.5-.3l-1.1-9.6-9.5-2.1c-.7-.2-.8-1.2-.2-1.5l8.8-4-.9-9.6c-.1-.7.8-1.2 1.4-.6l6.5 7.2 8.9-3.9c.7-.3 1.4.4 1 1.1l-4.8 8.4 6.4 7.3c.6.4.1 1.3-.6 1.1zM492.9 222.1l-9.5 2.1-1.1 9.6c-.1.7-1.1 1-1.5.3l-4.9-8.4-9.5 1.9c-.7.2-1.2-.7-.7-1.3l6.4-7.3-4.8-8.4c-.4-.7.3-1.4 1-1.1l8.9 3.9 6.5-7.2c.5-.6 1.4-.1 1.4.6l-.9 9.6 8.8 4c.8.5.6 1.5-.1 1.7zM486 179.9l-7.8 5.8 2.9 9.2c.2.7-.6 1.3-1.2.9l-7.9-5.6-7.9 5.6c-.6.4-1.4-.2-1.2-.9l2.9-9.2-7.8-5.8c-.6-.4-.3-1.4.5-1.4l9.7-.1 3.1-9.2c.2-.7 1.2-.7 1.5 0l3.1 9.2 9.7.1c.7 0 1 1 .4 1.4zM462.5 144.2l-4.8 8.4 6.4 7.3c.5.6 0 1.4-.7 1.3l-9.5-1.9-4.9 8.4c-.4.6-1.4.4-1.5-.3l-1.1-9.6-9.5-2.1c-.7-.2-.8-1.2-.2-1.5l8.8-4-.9-9.6c-.1-.7.8-1.2 1.4-.6l6.5 7.2 8.9-3.9c.8-.5 1.5.2 1.1.9zM426.5 121.1l-.9 9.6 8.8 4c.7.3.6 1.3-.2 1.5l-9.5 2.1-1.1 9.6c-.1.7-1.1 1-1.5.3l-4.9-8.4-9.5 1.9c-.7.2-1.2-.7-.7-1.3l6.4-7.3-4.8-8.4c-.4-.7.3-1.4 1-1.1l8.9 3.9 6.5-7.2c.6-.3 1.6.1 1.5.8z"/><path d="M384.2 114.7l3.1 9.2 9.7.1c.8 0 1.1 1 .5 1.4l-7.8 5.8 2.9 9.2c.2.7-.6 1.3-1.2.9l-7.9-5.6-7.9 5.6c-.6.4-1.4-.2-1.2-.9l2.9-9.2-7.8-5.8c-.6-.4-.3-1.4.5-1.4l9.7-.1 3.1-9.2c.2-.7 1.2-.7 1.4 0z"/></g><path d="M19.2 489.1C8.6 489.1 0 480.5 0 469.9V42c0-10.5 8.5-19 19-19h.2c10.6 0 19.2 8.6 19.2 19.2V470c0 10.5-8.6 19.1-19.2 19.1z" fill="#2e3033"/></svg>