<svg xmlns="http://www.w3.org/2000/svg" viewBox="0 0 512 512"><path d="M503.524 374.657H28.871a8.476 8.476 0 0 1-8.476-8.476V61.048a8.476 8.476 0 0 1 8.476-8.476h474.653A8.476 8.476 0 0 1 512 61.048v305.133a8.476 8.476 0 0 1-8.476 8.476z" fill="#41479b"/><path d="M512 366.181v-9.363L74.849 213.615 512 70.411v-9.363c0-3.065-1.712-5.628-4.149-7.117L20.395 213.615l487.456 159.683c2.437-1.489 4.149-4.052 4.149-7.117z" fill="#ff4b55"/><path fill="#f5f5f5" d="M74.849 213.615L512 356.818V70.411z"/><path d="M460.249 171.901s29.025 1.23 31.731-.984c2.706-2.213 3.198-16.972-6.395-19.185s-35.666 12.053-35.666 12.053l10.33 8.116z" fill="#fff5dc"/><g fill="#d27d69"><path d="M403.43 194.777s-.328.82-.492 4.428c-.164 3.608.492 12.954 11.807 17.054l-2.623 10.987 11.97 7.215s8.855-13.119 9.347-24.106c.491-10.987-30.009-15.578-30.009-15.578zM367.518 187.397l4.673-4.673s-9.567 5.837-13.2.574c-4.755-6.887 1.64-14.102 8.281-17.3s19.924-.737 19.924-.737l8.363 21.4-25.335 15.988-2.706-15.252zM445.983 146.567l22.63-2.706s-6.641 9.593-19.678 16.726c0 0 13.529 0 17.464 4.673 3.936 4.673-3.936 9.101-6.887 10.577-2.952 1.476-28.532 17.218-28.532 17.218l-22.875-2.706 37.878-43.782z"/><path d="M462.791 129.185s4.919-11.479 4.755-19.514l-16.562 11.479s3.772-1.803 2.46-8.363l-54.114 29.352-10.987 19.514 33.452 10.331 40.996-42.799z"/></g><path d="M422 218.635l-5.658 8.978s-10.085-2.213-13.529.246c-3.443 2.46-3.812 11.684 2.213 12.421 0 0 4.182 2.583 6.641.492 0 0 5.042 1.967 5.903-1.23.861-3.198-.246-5.903-.246-5.903h3.566l6.272-11.191-5.162-3.813z" fill="#ffe15a"/><path d="M371.454 199.204s15.742-7.871 15.742-19.678-14.594-12.463-26.4-8.527c0 0-7.051-5.575-1.147-11.151 8.092-7.643 43.291-23.613 43.291-23.613l-3.936 19.678s14.02 7.379 19.678 3.936c4.754-2.893 51.162-39.355 51.162-39.355s-3.936 19.678-31.484 39.355l-2.919 14.596a10.592 10.592 0 0 1-5.652 7.399l-11.107 5.553s31.484 3.936 31.484 7.871-7.871 23.613-23.613 31.484l-7.871-7.871 3.936-11.807s-11.807-3.936-19.678-7.871c0 0-11.807 3.936-19.678 3.936s-11.808-3.935-11.808-3.935z" fill="#b95546"/><path d="M347.841 218.881v-8.177c0-2.323.923-4.553 2.566-6.196l17.112-17.112 3.936 7.871h15.742l-3.936 3.936v3.936l-19.678 11.807-15.742 3.935z" fill="#fff5dc"/><g fill="#ffe15a"><path d="M355.712 214.946h-7.871s-7.871 11.807 0 11.807c0 0 11.807-7.871 15.742-11.807 0 0 0-3.936-7.871 0zM451.711 232.404h-54.406a2.426 2.426 0 0 0-1.786-.795s-9.53-3.95-10.885-3.95h-1.117a2.454 2.454 0 0 0-2.454 2.454v2.291h-12.437v-2.291a2.454 2.454 0 0 0-2.454-2.454h-1.117a2.454 2.454 0 0 0-2.454 2.454v.041c-5.33-.217-16.726-.896-22.63-2.864l-31.484 7.871 31.484 7.871c5.902-1.967 17.298-2.648 22.63-2.865v.041a2.454 2.454 0 0 0 2.454 2.454h1.117a2.454 2.454 0 0 0 2.454-2.454v-2.291h12.437v2.291a2.454 2.454 0 0 0 2.454 2.454h1.117c1.355 0 10.885-3.95 10.885-3.95.711 0 1.338-.311 1.786-.795h54.406a2.758 2.758 0 1 0 0-5.513z"/><path d="M449.345 242.987c-3.28-.656-40.831 5.903-40.831 5.903s-2.296-2.296 4.591-8.691l-3.279-.82s-7.215 5.083-10.167 5.739c-2.542.565-8.221 3.326-9.441 7.012l-22.864 3.811.492 1.967 22.426-2.629c1.07 3.445 4.595 4.148 7.09 3.12 0 0 3.28 1.312 6.232-.984 0 0 5.903.984 6.231-4.428l41.159-6.232c0 .003 1.64-3.112-1.639-3.768z"/><path d="M426.059 270.699s-3.116 4.099-10.823.492c-7.707-3.608-16.726.328-21.645-.82-4.919-1.148-12.299-4.099-19.185-1.476-6.887 2.623-10.658 2.46-9.183-.82 1.476-3.279 2.296-5.739 0-6.887l2.623-3.28-.492-1.967s-13.119-5.083-21.973 1.967c-8.855 7.051-6.231 23.121 8.527 24.269 0 0 4.592 5.739 15.906 4.099 0 0 7.379 5.083 20.005 2.788 0 0 .492 1.476 8.691.82s17.382.328 15.742 5.903c0 0 6.068-1.147 2.46-6.724 0 0 7.215-.328 12.134 3.936 0 0 .328-4.919-4.428-7.544 0 0 8.035-2.788 12.463 0 0 0-2.952-6.231-10.823-5.411 0 0 5.739-4.592 8.363-3.443 0 0-2.46-2.952-9.675 0 .002.001 4.594-2.786 1.313-5.902z"/></g><path d="M19.203 489.087C8.598 489.087 0 480.49 0 469.884V41.958c0-10.519 8.527-19.045 19.045-19.045h.158c10.606 0 19.203 8.598 19.203 19.203v427.768c.001 10.606-8.597 19.203-19.203 19.203z" fill="#2e3033"/></svg>