<svg xmlns="http://www.w3.org/2000/svg" viewBox="0 0 512 512"><path d="M512 119.962H26.68V64.821a8.454 8.454 0 0 1 8.453-8.453h468.414A8.454 8.454 0 0 1 512 64.821v55.141z" fill="#ff4b55"/><path fill="#f5f5f5" d="M26.68 119.957H512v63.6H26.68z"/><g fill="#ff4b55"><path d="M26.68 183.557H512v63.6H26.68zM503.547 374.337H35.133a8.454 8.454 0 0 1-8.453-8.453v-55.141H512v55.141a8.453 8.453 0 0 1-8.453 8.453z"/></g><path fill="#f5f5f5" d="M26.68 247.147H512v63.6H26.68z"/><path d="M29.767 372.314l231.61-151.744c3.76-2.463 3.76-7.973 0-10.435L29.767 58.39c-1.844 1.534-3.086 3.758-3.086 6.345V365.97c-.001 2.586 1.242 4.81 3.086 6.344z" fill="#41479b"/><path d="M112.164 176.514l8.732 26.183 27.6.213c3.574.027 5.055 4.588 2.181 6.711l-22.203 16.396 8.325 26.316c1.078 3.407-2.801 6.226-5.708 4.147l-22.455-16.05-22.455 16.05c-2.907 2.078-6.787-.741-5.709-4.147l8.325-26.316-22.203-16.397c-2.875-2.123-1.393-6.683 2.181-6.711l27.6-.213 8.732-26.183c1.132-3.389 5.927-3.389 7.057.001z" fill="#f5f5f5"/><path d="M19.152 488.46C8.575 488.46 0 479.884 0 469.307V42.534C0 32.044 8.504 23.54 18.994 23.54h.157c10.577 0 19.152 8.575 19.152 19.152V469.31c0 10.574-8.575 19.15-19.151 19.15z" fill="#2e3033"/></svg>