<svg xmlns="http://www.w3.org/2000/svg" viewBox="0 0 512 512"><path d="M28.923 52.594h474.601a8.476 8.476 0 0 1 8.475 8.475v72.038H20.448V61.069a8.475 8.475 0 0 1 8.475-8.475z" fill="#ffe15a"/><path fill="#f5f5f5" d="M20.448 133.11h491.55v80.51H20.448z"/><path fill="#ff4b55" d="M20.448 213.62h491.55v80.51H20.448z"/><path d="M20.448 294.132H512v72.038a8.476 8.476 0 0 1-8.475 8.475H28.924a8.476 8.476 0 0 1-8.475-8.475l-.001-72.038z" fill="#4173cd"/><path d="M23.574 372.596L261.077 216.99c2.429-1.592 2.429-5.152 0-6.744L23.574 54.642c-1.868 1.554-3.126 3.807-3.126 6.426v305.101c0 2.621 1.259 4.874 3.126 6.427z" fill="#73af00"/><g fill="#f5f5f5"><path d="M67.331 213.62c0-30.645 20.032-56.574 47.705-65.504 1.455-.469 1.252-2.593-.264-2.791a66.964 66.964 0 0 0-8.702-.574c-38.036 0-68.87 30.834-68.87 68.87s30.834 68.87 68.87 68.87c2.951 0 5.853-.201 8.702-.574 1.516-.199 1.718-2.322.264-2.791-27.673-8.932-47.705-34.862-47.705-65.506z"/><path d="M115.388 161.016l1.896 5.685 5.992.047c.775.006 1.098.996.474 1.457l-4.82 3.56 1.807 5.713c.234.739-.608 1.352-1.239.9l-4.875-3.484-4.875 3.484c-.631.451-1.474-.161-1.239-.9l1.807-5.713-4.82-3.56c-.624-.461-.302-1.451.474-1.457l5.992-.047 1.896-5.685c.243-.736 1.285-.736 1.53 0zM115.388 189.824l1.896 5.685 5.992.047c.775.006 1.098.996.474 1.457l-4.82 3.56 1.807 5.713c.234.739-.608 1.352-1.239.9l-4.875-3.484-4.875 3.484c-.631.451-1.474-.161-1.239-.9l1.807-5.713-4.82-3.56c-.624-.461-.302-1.451.474-1.457l5.992-.047 1.896-5.685c.243-.736 1.285-.736 1.53 0zM115.388 218.632l1.896 5.685 5.992.047c.775.006 1.098.996.474 1.457l-4.82 3.559 1.807 5.713c.234.739-.608 1.352-1.239.9l-4.875-3.484-4.875 3.484c-.631.451-1.474-.161-1.239-.9l1.807-5.713-4.82-3.559c-.624-.461-.302-1.451.474-1.457l5.992-.047 1.896-5.685c.243-.737 1.285-.737 1.53 0zM115.388 247.438l1.896 5.685 5.992.047c.775.006 1.098.996.474 1.457l-4.82 3.56 1.807 5.713c.234.739-.608 1.352-1.239.9l-4.875-3.484-4.875 3.484c-.631.451-1.474-.161-1.239-.9l1.807-5.713-4.82-3.56c-.624-.461-.302-1.451.474-1.457l5.992-.047 1.896-5.685c.243-.735 1.285-.735 1.53 0z"/></g><path d="M19.201 489.063C8.597 489.063 0 480.466 0 469.862V41.982c0-10.517 8.526-19.044 19.043-19.044h.158c10.604 0 19.201 8.597 19.201 19.201v427.723c0 10.604-8.596 19.201-19.201 19.201z" fill="#2e3033"/></svg>