<svg xmlns="http://www.w3.org/2000/svg" viewBox="0 0 512 512"><path d="M503.547 374.337H35.133a8.454 8.454 0 0 1-8.453-8.453V64.821a8.454 8.454 0 0 1 8.453-8.453h468.414A8.454 8.454 0 0 1 512 64.821v301.062a8.453 8.453 0 0 1-8.453 8.454z" fill="#41479b"/><g fill="#f5f5f5"><path d="M26.68 98.197H512v16.735H26.68zM26.68 315.767H512v16.735H26.68z"/></g><path fill="#ff4b55" d="M26.68 114.938H512v200.82H26.68z"/><path d="M227.468 213.161c1.235 38.703-30.394 70.332-69.097 69.097-35.05-1.119-63.596-29.665-64.715-64.715-1.235-38.702 30.394-70.332 69.097-69.097 35.048 1.12 63.596 29.667 64.715 64.715z" fill="#f5f5f5"/><path d="M162.344 154.408l13.429 40.265 42.444.329c1.806.014 2.554 2.318 1.102 3.391l-34.144 25.215 12.803 40.468c.544 1.721-1.415 3.146-2.885 2.095l-34.531-24.682-34.531 24.682c-1.469 1.05-3.429-.374-2.885-2.095l12.803-40.468-34.145-25.215c-1.453-1.072-.704-3.377 1.102-3.391l42.444-.329 13.429-40.265c.571-1.713 2.994-1.713 3.565 0z" fill="#ff4b55"/><path d="M19.152 488.46C8.575 488.46 0 479.884 0 469.307V42.534C0 32.044 8.504 23.54 18.994 23.54h.157c10.577 0 19.152 8.575 19.152 19.152V469.31c0 10.574-8.575 19.15-19.151 19.15z" fill="#2e3033"/></svg>