<svg xmlns="http://www.w3.org/2000/svg" viewBox="0 0 512 512"><path d="M503.524 374.657H28.871a8.476 8.476 0 0 1-8.476-8.476V61.048a8.476 8.476 0 0 1 8.476-8.476h474.653A8.476 8.476 0 0 1 512 61.048v305.133a8.476 8.476 0 0 1-8.476 8.476z" fill="#f5f5f5"/><path d="M156.975 230.264s.235 4.495-3.55 8.517c-3.786 4.024-1.893 9.229 3.077 11.596 0 0-3.43 8.163 1.657 11.594 3.211 2.168 7.572 1.893 7.572 1.893s2.367 9.703.474 15.853c-1.893 6.152.71 23.899 44.012 13.725 0 0 .393 11.358 17.746 20.192 17.351 8.834 13.953 29.76 13.953 29.76s23.885 13.828 50.283-18.857c26.399-32.684 28.284-37.084 47.141-44.627 0 0-29.542-30.17-18.856-56.569 1.407-3.479 2.997-7.13 4.655-10.884 3.059 9.936 9.102 24.445 19.897 32.883 3.359 2.613 7.503 3.437 11.51 4.242 4.302.865 8.014 1.61 9.762 4.262 1.537 2.362 1.677 6.529.488 12.293-12.836 14.002-25.24 17.734-25.414 17.778l-2.986.805 6.275 20.698-18.729 17.23.334 1.67c2.318 11.55 9.447 13.082 12.394 13.219.177 0 .354.02.531.02 6.816 0 13.749-5.735 15.95-13.298 3.811-13.061 16.244-14.554 16.382-14.554l1.886-.216.628-1.787c.275-.786 6.737-19.407 9.919-38.38 1.279-7.675 1.522-13.784 1.262-19.129.099-.184.211-.287.309-.474l-.324-.17c-1.2-20.231-12.174-25.615-23.011-30.61-9.239-4.289-12.865-8.454-14.66-11.756.373.01.69.108 1.068.108 2.946 0 6.05-.334 9.192-1.217 8.76-2.436 15.851-8.426 21.075-17.795 3.182-5.735 26.851-70.672 29.542-78.057l1.866-5.127-30.554 6.521 2.328-18.581L342.461 107l.943 2.829c.138.373 12.748 38.243 11.529 61.361-.334 6.07-2.239 10.469-5.716 13.061-4.37 3.228-10.295 3.057-13.389 2.723 6.892-18.311 11.336-37.55 4.766-54.775-10.884-28.537-59.084-54.683-95.539-50.912-36.455 3.772-66.67 12.58-76.726 49.036-10.057 36.456-7.253 46.088-5.996 52.373s-22.421 34.03-18.14 42.594c2.843 5.684 12.782 4.974 12.782 4.974zm174.747-32.969c.634-1.495 1.267-2.984 1.883-4.498 1.117.199 2.772.434 5.205.434 4.125 0 9.526-.786 14.024-4.145 4.969-3.712 7.699-9.624 8.113-17.579 1.12-20.742-7.915-51.325-10.901-60.772l24.827-8.741-6.03 48.162 5.971.746 4.128-32.954 21.957-4.68c-10.469 28.677-25.181 68.295-27.283 72.067-4.419 7.915-10.292 12.944-17.442 14.928-10.737 3.046-20.965-1.256-24.452-2.968zm14.895 114.541l3.064 10.111c-.078.246-.229.376-.302.628-1.433 4.911-6.05 8.937-10.155 8.937h-.275c-3.732-.157-5.52-3.791-6.364-6.756l14.032-12.92zm32.44-52.17c-.243 2.71-.505 5.455-1.042 8.677-2.553 15.262-7.464 30.74-9.114 35.709-3.379.79-10.351 3.18-15.328 9.934l-7.673-25.255c6.118-2.43 20.446-10.459 33.157-29.065zm-50.006-56.073c.116-.263.229-.503.341-.766 2.268 1.075 6.096 2.656 11.203 3.653 1.419 4.223 4.743 11.289 19.075 17.923 9.939 4.589 18.298 8.48 19.629 23.841-1.876 3.45-3.931 5.846-5.934 8.679-.292-2.44-.859-4.631-2.009-6.376-3.142-4.773-8.702-5.893-13.631-6.875-3.476-.707-6.756-1.355-8.976-3.084-12.683-9.903-18.119-30.034-19.698-36.995zM172.12 159.038s.945-21.295 10.413-39.28l144.815 67.202-12.306 26.502-142.922-54.424z" fill="#464655"/><path d="M19.203 489.087C8.598 489.087 0 480.49 0 469.884V41.958c0-10.519 8.527-19.045 19.045-19.045h.158c10.606 0 19.203 8.598 19.203 19.203v427.768c.001 10.606-8.597 19.203-19.203 19.203z" fill="#2e3033"/></svg>