<svg xmlns="http://www.w3.org/2000/svg" viewBox="0 0 512.001 512.001"><path d="M503.657 62.503H36.433a8.343 8.343 0 0 0-8.343 8.343v300.358a8.343 8.343 0 0 0 8.343 8.343h467.225a8.343 8.343 0 0 0 8.343-8.343V70.846a8.344 8.344 0 0 0-8.344-8.343z" fill="#73af00"/><path fill="#ff4b55" d="M336.79 170.968h58.4v208.58h-58.4z"/><path fill="#464655" d="M395.19 170.968h58.4v208.58h-58.4z"/><g fill="#ff9b55"><path d="M453.6 170.968H512v208.58h-58.4zM497.778 100.859a.902.902 0 0 0-1.309-1.154 69.64 69.64 0 0 1-5.075 3.061c5.43-4.489 6.191-8.386 6.241-8.67a.902.902 0 0 0-1.397-.899c-5.866 3.979-11.738 6.819-16.8 8.818 6.799-4.297 9.493-8.678 9.658-8.955a.903.903 0 0 0-1.241-1.237c-5.428 3.272-11.858 5.852-18.001 7.838.816-1.259 1.397-2.674.876-3.467-.485-.737-1.369-.737-2.634.003-2.557 1.499-21.937 6.439-29.447 8.28-7.655-1.384-13.996.579-15.973 1.304-.526-.627-.767-1.233-.868-1.708-.165-.772-.045-1.557.32-2.101.595-.886 1.826-.97 2.911-1.046.472-.033.893-.061 1.263-.154.236.069.526.207.521.312a.902.902 0 0 0 1.668.524c.056-.088 1.331-2.179.343-3.959-.719-1.294-2.37-1.975-4.91-2.023-1.042-.727-4.978-3.093-9.829-1.265-4.913 1.853-7.093 6.899-7.814 9.031-3.823-.531-21.377-3.21-30.919-8.811-.464-.211-2.047-.831-2.931.009-.543.515-.607 1.315-.19 2.378.22.563.56 1.114 1.01 1.653-5.108-2.344-11.994-5.62-17.2-8.531-.814-.378-2.293-.89-3.054-.09-.478.503-.471 1.233.022 2.173.104.198.207.42.318.662.507 1.092 1.197 2.58 2.886 4.3-1.262-.689-2.399-1.398-3.311-2.107-4.569-3.554-5.188-3.902-6.007-3.351-.704.474-.478 1.276-.236 2.126l.063.225c.198.706.523 1.843 1.41 3.216-.708-.482-1.316-.579-1.796-.246-.287.197-.716.69-.384 1.772.795 2.591 6.286 9.411 16.731 11.42a26.255 26.255 0 0 1-3.221.288.902.902 0 1 0-.433 1.685c.19.109 3.883 2.175 10.652 2.001a18.577 18.577 0 0 1-3.432.528.901.901 0 0 0-.413 1.674c.202.122 4.129 2.432 10.211 2.091l-.53.326a.901.901 0 0 0 .226 1.636c.19.055 3.618 1.008 7.888.557l-.751.534a.904.904 0 0 0 .399 1.63c.078.012.63.083 1.515.083.583 0 1.311-.033 2.141-.133-.019.215.006.43.078.643.427 1.286 2.321 1.598 2.951 1.606l.114.001c.762 0 1.568-.107 2.39-.271 1.316 1.23 3.72 1.117 6.052.575a2.502 2.502 0 0 0-.309.628c-.134.426-.033.862.273 1.165.297.295 1.013 1.006 7.53-.828l-.081.063c-.866.671-.811 1.365-.701 1.717.399 1.282 3.274 2.103 8.492 2.453.115 2.901-.691 6.053-.699 6.087a.904.904 0 0 0 1.302 1.022c.301-.163.602-.373.885-.599l-.024.959a.905.905 0 0 0 .901.926c.036 0 .069-.013.104-.017-.098.818-.428 1.794-1.477 2.023-.476.104-.98.155-1.468.206-2.221.228-4.739.485-5.136 5.576a.904.904 0 0 0 .534.896.907.907 0 0 0 1.022-.207l.967-1.028c.569.14 1.476.283 2.446.126-.245 1.178-.172 2.626 1.007 3.857a.903.903 0 0 0 1.555-.625v-.652a5.058 5.058 0 0 0 2.008-.963c.411.889 1.199 1.933 2.696 2.813a.907.907 0 0 0 1.035-.084.904.904 0 0 0 .272-1.002l-.471-1.296c.329-.324.757-.788 1.13-1.284a.893.893 0 0 0 .825.391.904.904 0 0 0 .76-.582l.332-.884c.196-.054.383-.119.561-.192.223 1.956 1.727 3.584 1.816 3.679a.9.9 0 0 0 .877.257.905.905 0 0 0 .653-.641l.503-1.877c1.332-.675 1.463-1.899 1.544-2.659.016-.149.038-.357.043-.461.521.256 1.625 1.497 2.457 2.783a.905.905 0 0 0 .754.413c.31-.022.59-.15.758-.405 0 0 .705-1.068 1.049-1.691 1.455-2.642-.751-4.224-1.81-4.984-.259-.186-.616-.442-.674-.513-.198-.483-.129-.934.002-1.285.884.61 1.888 1.122 3 1.384a.901.901 0 0 0 .946-.361.904.904 0 0 0 .016-1.013c-.02-.031-1.681-2.584-2.75-5.726 1.729 1.013 4.068 2.238 5.28 2.238.832 0 1.151-.518 1.249-.741.058-.13.162-.366.08-.809 1.606.868 3.418 1.54 4.794 1.184.406-.105 1.36-.351 1.504-1.205.073-.434-.072-.783-.393-1.128 1.492.362 3.1.542 4.676.333 1.315-.173 1.703-.811 1.796-1.316.06-.323.166-.944-1.008-2.118 2.265-.124 4.289-.619 4.455-1.986.015-.123-.008-.234-.019-.35 7.282-.794 12.822-5.347 13.067-5.553a.854.854 0 0 0 .167-.208c4.408-.55 9.416-1.546 13.469-3.369 7.649-3.439 11.524-8.082 10.83-9.768-.202-.49-.78-.845-1.493-.578-.199.075-.606.238-1.136.455 4.533-3.68 6.306-7.091 6.475-7.431z"/></g><path d="M497.778 100.859a.904.904 0 0 0-1.308-1.154 68.9 68.9 0 0 1-5.077 3.061c5.43-4.489 6.192-8.386 6.241-8.67a.9.9 0 0 0-.401-.911.898.898 0 0 0-.995.012c-5.866 3.979-11.738 6.819-16.8 8.818 6.799-4.296 9.493-8.677 9.658-8.955a.903.903 0 0 0-1.241-1.237c-5.428 3.272-11.857 5.852-18 7.839.816-1.259 1.397-2.674.874-3.467-.485-.737-1.369-.737-2.633.003-2.557 1.499-21.937 6.439-29.447 8.279-7.655-1.384-13.996.579-15.973 1.303-.526-.627-.767-1.233-.868-1.707-.165-.773-.045-1.557.32-2.101.596-.886 1.827-.97 2.912-1.044.471-.033.893-.061 1.263-.153.236.069.526.206.521.311a.901.901 0 0 0 1.668.524c.055-.088 1.331-2.179.342-3.959-.719-1.294-2.37-1.975-4.91-2.023-1.042-.727-4.978-3.094-9.829-1.265-4.913 1.853-7.093 6.899-7.814 9.031-3.823-.53-21.377-3.21-30.919-8.811-.463-.211-2.047-.831-2.931.01-.544.515-.607 1.315-.19 2.378.221.564.56 1.114 1.01 1.654-5.108-2.344-11.994-5.62-17.2-8.531-.814-.378-2.292-.89-3.054-.09-.479.503-.471 1.233.022 2.173.104.198.207.42.318.662.507 1.093 1.197 2.58 2.886 4.3-1.262-.689-2.399-1.398-3.311-2.107-4.57-3.554-5.188-3.903-6.007-3.352-.704.476-.477 1.276-.236 2.126l.064.225c.198.706.522 1.844 1.41 3.216-.708-.482-1.316-.579-1.796-.246-.287.196-.715.69-.384 1.772.794 2.591 6.286 9.411 16.73 11.42a26.255 26.255 0 0 1-3.221.288.902.902 0 1 0-.433 1.685c.19.109 3.883 2.175 10.652 2.001a18.577 18.577 0 0 1-3.432.528.901.901 0 0 0-.413 1.674c.202.122 4.129 2.432 10.211 2.091l-.53.326a.903.903 0 0 0 .225 1.636c.19.054 3.618 1.008 7.889.557l-.752.534a.905.905 0 0 0 .398 1.63c.078.012.63.083 1.515.083a18 18 0 0 0 2.14-.133c-.019.215.006.43.078.643.427 1.286 2.321 1.598 2.952 1.606l.114.001c.762 0 1.568-.107 2.39-.271 1.316 1.23 3.72 1.117 6.052.575a2.542 2.542 0 0 0-.31.628c-.134.426-.031.862.273 1.165.297.294 1.013 1.005 7.531-.828l-.082.063c-.866.671-.811 1.365-.7 1.717.399 1.282 3.274 2.103 8.492 2.453.115 2.901-.691 6.053-.7 6.087a.904.904 0 0 0 1.302 1.022c.302-.163.602-.373.886-.598l-.025.958a.902.902 0 0 0 .902.927c.035 0 .069-.014.104-.018-.098.818-.428 1.794-1.477 2.023-.476.104-.979.155-1.468.206-2.221.228-4.739.486-5.136 5.576a.905.905 0 0 0 .535.896.907.907 0 0 0 1.022-.207l.967-1.028c.569.14 1.476.283 2.446.126-.245 1.178-.172 2.626 1.007 3.857a.903.903 0 0 0 1.555-.625v-.652a5.058 5.058 0 0 0 2.008-.963c.411.89 1.199 1.934 2.697 2.814a.897.897 0 0 0 1.035-.084.906.906 0 0 0 .272-1.003l-.471-1.297c.329-.324.757-.788 1.13-1.284a.892.892 0 0 0 .825.39.907.907 0 0 0 .76-.583l.332-.884c.196-.054.383-.119.561-.192.221 1.956 1.727 3.584 1.816 3.679a.9.9 0 0 0 .877.257.902.902 0 0 0 .652-.641l.503-1.877c1.333-.675 1.463-1.898 1.544-2.659.016-.149.038-.357.043-.461.521.256 1.624 1.497 2.457 2.783a.908.908 0 0 0 .754.413c.31-.022.59-.151.758-.405 0 0 .705-1.068 1.049-1.691 1.455-2.642-.751-4.223-1.81-4.984-.259-.187-.616-.442-.674-.512-.198-.484-.129-.934.001-1.285.884.61 1.888 1.122 3 1.385a.902.902 0 0 0 .962-1.374c-.02-.031-1.68-2.584-2.75-5.726 1.729 1.013 4.068 2.238 5.281 2.238.832 0 1.151-.518 1.248-.741.058-.13.162-.366.08-.809 1.606.868 3.417 1.54 4.794 1.184.406-.105 1.36-.352 1.505-1.206.073-.434-.073-.783-.393-1.127 1.491.362 3.099.542 4.676.334 1.315-.173 1.703-.811 1.797-1.316.059-.323.166-.944-1.008-2.118 2.265-.124 4.289-.619 4.454-1.986.015-.123-.007-.234-.019-.35 7.282-.794 12.821-5.348 13.066-5.553.071-.06.119-.134.167-.208 4.408-.55 9.416-1.546 13.469-3.369 7.649-3.439 11.524-8.082 10.83-9.768-.202-.49-.78-.845-1.493-.578a56.06 56.06 0 0 0-1.136.456c4.535-3.684 6.308-7.095 6.477-7.435zm-13.297-5.125c-3.325 3.253-9.59 7.932-19.92 10.646a.864.864 0 0 0-.242.118c-2.173-.169-4.918-.566-7.326-1.465 7.633-1.733 18.36-4.715 27.488-9.299zm-45.972 10.554a.94.94 0 0 0 .381-.01c1.074-.262 25.943-6.361 29.935-8.421-.464.915-1.356 2.196-2.085 2.731-.021.015-.03.038-.049.054-10.708 3.18-19.795 4.518-19.946 4.54a.903.903 0 0 0 .257 1.787c.083-.013 2.842-.419 7.078-1.303 2.193 1.258 4.891 1.951 7.346 2.326-3.668.31-7.063.133-7.118.129a.923.923 0 0 0-.933.719.901.901 0 0 0 .574 1.03l3.415 1.251c-4.803 1.022-9.432.063-9.485.051a.895.895 0 0 0-.95.397.902.902 0 0 0 .038 1.028c.652.87 2.492 1.784 4.096 2.457-6.6 1.249-11.144-2.797-11.357-2.991a.902.902 0 1 0-1.226 1.325c5.214 4.88 14.933 6.959 19.294 7.675-.646.382-1.424.741-2.24.887-3.349.595-11.077-3.081-16.516-6.056l-4.355-2.514a.904.904 0 0 0-.925 1.551c.209.128 1.917 1.175 4.343 2.507l10.6 6.118c-3.252.402-6.684-.326-6.726-.336-.026-.005-.051.002-.078-.001-2.481-1.745-6.485-4.683-12.496-9.667-.968-3.453-2.78-4.971-5.05-6.412 2.567-.786 7.977-2.016 14.178-.852zm6.552 19.144c-.005.002-.009.006-.016.008l-.013-.009.029.001zm-58.808-4.095l2.066-1.47a.902.902 0 0 0-.827-1.587c-3.412 1.219-6.865 1.094-9.028.817l2.391-1.472a.903.903 0 0 0-.702-1.643c-4.352 1.143-7.977.668-10.35.014 3.772-.882 5.963-2.55 6.078-2.639a.902.902 0 0 0-.72-1.6c-4.973.936-8.812.628-11.39.094a43.223 43.223 0 0 0 4.912-1.123c.016-.004.026-.017.041-.022.061-.022.112-.056.167-.09.046-.029.093-.052.133-.089.043-.039.075-.087.109-.134.035-.046.07-.087.096-.139.023-.049.034-.103.048-.156.017-.061.035-.119.039-.184 0-.015.008-.027.008-.042 0-.047-.019-.088-.026-.134-.006-.045.001-.09-.013-.136-.004-.015-.016-.024-.02-.038-.022-.061-.056-.111-.089-.166-.029-.047-.054-.097-.09-.136-.038-.043-.086-.072-.131-.107-.047-.036-.089-.072-.143-.099-.048-.023-.102-.034-.154-.047-.061-.017-.121-.036-.185-.039-.016-.001-.027-.009-.043-.009-11.599-.109-17.999-6.209-20.048-9.323 3.614 2.517 8.36 4.655 11.818 5.883h.003c4.598 1.776 10.329 2.908 10.572 2.954a.902.902 0 1 0 .346-1.772c-.058-.012-5.839-1.152-10.294-2.876-9.609-3.718-11.556-7.746-12.204-9.779 1.038.738 2.434 1.824 3.181 2.405 5.624 4.374 18.712 8.511 19.266 8.684a.9.9 0 0 0 1.128-.581.905.905 0 0 0-.567-1.136c-13.531-4.609-15.563-8.991-16.655-11.347a20.338 20.338 0 0 0-.272-.573c.183.056.373.126.527.195 7.503 4.198 18.526 9.167 22.693 11.013-.749.36-1.536.662-2.056.692a.903.903 0 0 0-.618 1.509c.055.061.939 1.009 2.657 1.379l-1.219.795a.903.903 0 0 0 .185 1.605c.083.03 1.476.521 3.317.715l-1.014.74a.904.904 0 0 0 .148 1.547c.119.055 1.506.685 3.733.579l-.077.054a.903.903 0 0 0 .328 1.622c.139.029 1.843.38 4.289.102l-.555.371a.901.901 0 1 0 .272 1.624c.262.067 4.214 1.052 9.399-.594-1.088.715-2.101 1.234-2.938 1.422a.903.903 0 0 0-.155 1.712c.024.01.113.045.231.087-2.772 1.84-5.605 2.478-7.598 2.668zm-4.368-16.379a.9.9 0 0 0-1.042-.519c-1.046.255-1.892.229-2.544.091a18.213 18.213 0 0 0 2.146-1.147.87.87 0 0 0 .173-.146c1.606.647 3.431 1.267 5.475 1.86l-3.465 2.53c-1.161.123-2.311.013-3.23-.152l2.151-1.402a.904.904 0 0 0 .336-1.115zm8.112 18.578c-.343-.004-.976-.18-1.211-.347.059-.096.21-.28.544-.546a17.943 17.943 0 0 0 6.924-3.496c2.462.178 6.332-.407 10.276-4.37.146.265.298.531.476.803-.429.323-10.621 8.012-17.009 7.956zm7.043-6.165c2.919-1.757 6.186-4.813 8.223-6.855a8.98 8.98 0 0 0 .5 2.546c-.07.042-.143.08-.203.142-3.234 3.411-6.383 4.163-8.52 4.167zM414 129.057c-2.972-.203-5.74-.664-6.751-1.112 2.46-1.92 3.164-2.767 3.238-2.859a.905.905 0 0 0 .038-1.077.9.9 0 0 0-1.021-.345c-3.241 1.048-7.026 2.069-8.894 2.331.858-.771 2.385-1.744 3.764-2.434a.904.904 0 0 0-.789-1.624c-2.457 1.156-5.974 2.321-8.176 2.303 5.992-2.157 12.101-6.772 12.683-7.218.461.55.97 1.107 1.582 1.675 5.391 5.014 4.801 8.947 4.326 10.36zm1.487 5.505a7.64 7.64 0 0 1-.197.229c.196-1.336.336-3.013.207-4.608.497-1.092 1.502-4.328-1.101-8.62 1.716.249 5.656 1.076 7.362 3.555.226.329.45.693.673 1.073l-.002.003c-.085.199-1.792 4.334-1.247 9.503a5.92 5.92 0 0 1-1.037-1.724.9.9 0 0 0-.745-.577.91.91 0 0 0-.853.401 40.34 40.34 0 0 1-1.479 2.091l.019-.73a.902.902 0 0 0-1.6-.596zm5.821 11.241c-.179.539-1.143 1.577-1.769 2.141a.951.951 0 0 0-.064.063c-.471-.78-.455-1.397-.453-1.431a.903.903 0 0 0-1.688-.508 3.198 3.198 0 0 1-2.541 1.642c.046-1.089.674-2.076.714-2.137a.903.903 0 0 0-1.361-1.166c-1.326 1.2-3.431.424-3.449.417a.86.86 0 0 0-.266-.059c.584-1.268 1.603-1.373 3.012-1.517.537-.056 1.094-.112 1.669-.238 2.779-.608 3.106-3.679 2.891-5.218-.006-.043-.029-.077-.041-.118.436-.535.869-1.121 1.229-1.626.176.27.364.512.555.742.005.659.042 2.689.271 3.759.182.849.802 1.421 1.397 1.788a2.79 2.79 0 0 0-.235.613c-.212.873-.033 1.836.237 2.66-.038.062-.083.119-.108.193zm.475-5.632c-.086-.403-.141-1.036-.176-1.673.253.174.429.278.456.293.314.173.703.147.989-.072s.414-.587.325-.935c-.953-3.814-.315-7.382.214-9.336 1.555 3.417 2.669 7.634 2.284 10.413-.06.425.19.833.595.975a.915.915 0 0 0 .257.042c-.009.096-.018.194-.03.282-.913-.028-2.419.112-3.877.87-.417-.174-.958-.493-1.037-.859zm11.891 4.667c-.071.13-.161.28-.255.437-1.077-1.427-2.557-2.895-3.824-2.416-1.02.388-1.125 1.372-1.196 2.022-.083.785-.143 1.113-.798 1.337a.908.908 0 0 0-.581.619l-.101.375c-.344-.758-.527-1.672-.014-2.452a.904.904 0 0 0-1.449-1.072c-.008.009-.826.972-2.016 1.141a.906.906 0 0 0-.342.123c-.172-.551-.272-1.13-.164-1.577a.885.885 0 0 1 .426-.587c1.809-1.095 3.918-.783 3.937-.78a.894.894 0 0 0 1.023-.684c.049-.206.436-1.966.153-3.442l1.167-1.962c.42.537.988 1.196 1.683 1.843-.383.702-.758 1.839-.225 3.135.214.521.713.879 1.291 1.292 1.476 1.059 1.867 1.589 1.285 2.648zm-3.324-11.04c-.166-.271-.494-.419-.776-.434a.903.903 0 0 0-.773.441l-1.174 1.971c-.495-3.992-2.376-8.762-4.383-11.68-2.609-3.795-9.058-4.514-10.275-4.51a22.28 22.28 0 0 0-2.068-2.211c-5.354-4.977-3.594-8.956-3.508-9.14.007-.016.005-.033.013-.048a.793.793 0 0 0 .045-.177c.01-.056.024-.109.024-.165 0-.057-.014-.11-.023-.167-.012-.058-.019-.114-.041-.168-.021-.05-.051-.092-.081-.14-.034-.054-.066-.106-.111-.152-.013-.013-.017-.029-.03-.041-.033-.029-.072-.041-.107-.065-.036-.025-.063-.059-.103-.079-.017-.008-.035-.006-.05-.014a.883.883 0 0 0-.178-.047c-.056-.01-.109-.024-.165-.024-.057 0-.11.013-.167.023-.058.01-.114.019-.169.041-.05.02-.094.051-.141.081-.054.034-.106.066-.153.111-.013.013-.029.018-.041.03l-.001.002h-.001c-6.126 6.692-12.538 7.488-15.86 7.349l3.854-2.57a17.554 17.554 0 0 0 2.281-1.524.901.901 0 0 0 .173-1.24.9.9 0 0 0-1.231-.221l-2.116 1.41a15.19 15.19 0 0 1-6.893 1.892l2.008-1.407c1.542-.746 3.226-1.865 4.999-3.516a.904.904 0 0 0-1.133-1.401l-4.786 3.355c-2.274 1.072-4.136 1.202-5.387 1.089l6.843-4.996a.903.903 0 0 0-.3-1.601c-11.157-2.969-13.838-6-14.442-7.544a2.75 2.75 0 0 1-.109-.329c.225.035.527.119.72.202 10.931 6.423 31.408 8.996 32.274 9.103a.91.91 0 0 0 .979-.655c.309-1.112 2.094-6.749 6.945-8.58 4.575-1.723 8.178 1.063 8.328 1.18a.905.905 0 0 0 .564.198c1.944 0 3.232.388 3.629 1.093.126.226.164.485.15.743a3.306 3.306 0 0 0-1.006-.319.903.903 0 0 0-.46.051c-.177.069-.627.1-1.022.127-1.273.087-3.199.219-4.287 1.84-.642.955-.856 2.225-.587 3.484.168.785.589 1.812 1.547 2.814a.885.885 0 0 0 .423.406c.329.292.695.579 1.134.854 2.131 1.332 3.695 2.561 4.524 5.575a.902.902 0 0 0 .077.305c.34 1.362.544 3.063.59 5.278.01.492.413.884.903.884h.019a.903.903 0 0 0 .884-.922 32.193 32.193 0 0 0-.23-3.318c6.725 5.493 10.696 8.223 12.687 9.589.28.193.547.376.78.54-2.026.185-5.235-1.665-7.745-3.579a33.877 33.877 0 0 0-2.027-1.683.903.903 0 1 0-1.158 1.385c.228.209.956.86 1.98 1.651 1.182 1.075 2.095 2.089 2.382 2.673-1.406-.296-5.261-2.589-8.395-4.827a.902.902 0 0 0-1.146 1.39c2.164 2.054 3.497 3.931 4.344 7.955v.001c.483 2.295 1.419 4.472 2.218 6.051-2.105-1.441-3.464-3.644-3.482-3.673zm20.591-2.505c-4.778.628-10.187-3.015-10.239-3.052a.903.903 0 0 0-1.148 1.385c1.565 1.565 3.161 2.627 4.326 3.402.169.113.351.234.525.353-1.737-.086-4.755-2.045-6.42-3.407a.902.902 0 0 0-1.239 1.307c.673.738 1.313 1.563 1.7 2.166-1.318-.482-3.545-1.749-5.153-2.778-.372-1.647-.829-2.988-1.392-4.123 5.246 3.124 6.127 2.07 6.459 1.672.192-.232.408-.63.343-1.215v-.006c2.141 1.083 4.435 1.723 6.197.9a2.26 2.26 0 0 0 .662-.442c3.25 1.815 4.95 3.174 5.467 3.827a3.522 3.522 0 0 0-.088.011zm-1.227-3.429c-.996-.677-2.273-1.456-3.952-2.366-.035-.019-.072-.019-.108-.034.296.012.598.019.909.019.868 0 1.781-.059 2.688-.192.069.045.135.094.218.12 2.797.88 4.48 1.548 5.018 1.993-.719.314-2.783.517-4.773.46zm5.321-2.25s-.01.003-.016.003c-.725-.423-1.757-.838-3.072-1.29a.87.87 0 0 0-.073-.923c1.534.367 2.905.511 3.975.321 1.347-.24 2.567-.903 3.45-1.5h.002c.906 0 3.48-.033 6.778-.303-2.381 1.472-6.441 3.491-11.044 3.692zm36.413-15.428c-1.228 1.545-4.017 4.074-9.085 6.353-6.92 3.111-17.138 3.732-21.398 3.851a.896.896 0 0 0-.037-.202.904.904 0 0 0-.756-.608c-.08-.008-4.652-.54-9.736-2.073 3.048.289 5.925.43 8.616.43 7.602 0 13.811-1.059 18.861-2.646.026-.004.051.002.079-.004 2.783-.729 9.413-3.445 12.976-4.904l.48-.197zm-4.815-.862c-5.874 3.635-16.117 7.52-32.321 6.652a.897.897 0 0 0-.099-1.661 37.92 37.92 0 0 1-2.424-.92c2.481.072 5.708-.159 8.777-1.342a.9.9 0 0 0 .577-.85.9.9 0 0 0-.592-.84l-1.18-.431c2.994-.125 6.663-.518 9.222-1.595a.902.902 0 0 0 .53-1.03c-.005-.022-.019-.04-.025-.061 5.407-1.355 15.364-4.48 25.642-10.919-2.213 3.678-8.644 10.519-26.844 14.82a.903.903 0 0 0 .343 1.772c.136-.021 12.509-1.964 25.284-9.277-1.513 1.683-3.749 3.739-6.89 5.682z" fill="#464655"/><path d="M19.026 486.943C8.519 486.943 0 478.425 0 467.917V43.929c0-10.422 8.448-18.871 18.87-18.871h.156c10.508 0 19.026 8.519 19.026 19.026v423.831c.001 10.51-8.518 19.028-19.026 19.028z" fill="#2e3033"/></svg>