<svg xmlns="http://www.w3.org/2000/svg" viewBox="0 0 512 512"><path d="M503.524 374.657H28.871a8.476 8.476 0 0 1-8.476-8.476V61.048a8.476 8.476 0 0 1 8.476-8.476h474.653A8.476 8.476 0 0 1 512 61.048v305.133a8.476 8.476 0 0 1-8.476 8.476z" fill="#73af00"/><g fill="#ffe15a"><path d="M380.539 52.572L20.395 288.528v25.333L419.204 52.572zM512 138.7v-25.332L113.19 374.657h38.665z"/></g><path d="M512 113.368v-52.32a8.476 8.476 0 0 0-8.476-8.476h-84.319l-398.81 261.29v52.32a8.476 8.476 0 0 0 8.476 8.476h84.319L512 113.368z" fill="#464655"/><g fill="#f5f5f5"><path d="M170.199 232.72l17.397 14.009 18.886-11.926c2.445-1.544 5.449.913 4.419 3.616l-7.947 20.874 17.178 14.277c2.224 1.849.815 5.464-2.073 5.321l-22.309-1.108-8.27 20.749c-1.071 2.686-4.945 2.463-5.701-.327l-5.84-21.56-22.289-1.454c-2.886-.189-3.871-3.941-1.45-5.523l18.699-12.217-5.505-21.648c-.712-2.799 2.552-4.897 4.805-3.083zM330.536 127.478l17.397 14.009 18.886-11.926c2.445-1.544 5.449.913 4.419 3.616l-7.947 20.874 17.178 14.277c2.224 1.849.815 5.464-2.073 5.321l-22.309-1.108-8.27 20.749c-1.071 2.686-4.945 2.463-5.701-.327l-5.84-21.56-22.288-1.454c-2.886-.189-3.871-3.941-1.45-5.523l18.699-12.217-5.505-21.648c-.714-2.8 2.551-4.897 4.804-3.083z"/></g><path d="M512 366.181V138.7L151.855 374.657h351.668a8.476 8.476 0 0 0 8.477-8.476z" fill="#ff4b55"/><path d="M19.203 489.087C8.598 489.087 0 480.49 0 469.884V41.958c0-10.519 8.527-19.045 19.045-19.045h.158c10.606 0 19.203 8.598 19.203 19.203v427.768c.001 10.606-8.597 19.203-19.203 19.203z" fill="#2e3033"/></svg>