<svg xmlns="http://www.w3.org/2000/svg" viewBox="0 0 512.004 512.004"><path d="M503.524 374.659H28.87a8.476 8.476 0 0 1-8.476-8.476v-72.046h491.607v72.046a8.476 8.476 0 0 1-8.477 8.476z" fill="#ffe15a"/><path fill="#73af00" d="M20.394 213.621h491.61v80.52H20.394z"/><path fill="#f5f5f5" d="M20.394 133.091h491.61v80.52H20.394z"/><path d="M512 133.094H20.394V61.048a8.476 8.476 0 0 1 8.476-8.476h474.655a8.476 8.476 0 0 1 8.476 8.476L512 133.094z" fill="#41479b"/><path fill="#ff4b55" d="M225.94 52.571h80.52v322.09h-80.52z"/><path d="M93.847 63.42l7.072 21.207 22.354.174c1.732.014 2.45 2.224 1.056 3.253l-17.983 13.28 6.743 21.314c.522 1.651-1.357 3.017-2.766 2.01l-18.186-12.999-18.186 12.999c-1.409 1.008-3.289-.359-2.766-2.01l6.743-21.314-17.984-13.282c-1.393-1.029-.675-3.239 1.056-3.253l22.354-.174 7.072-21.207c.549-1.641 2.873-1.641 3.421.002z" fill="#ffe15a"/><path d="M19.203 489.09C8.598 489.09 0 480.493 0 469.887V41.958c0-10.519 8.527-19.045 19.045-19.045h.158c10.606 0 19.203 8.598 19.203 19.203v427.771c.001 10.606-8.597 19.203-19.203 19.203z" fill="#2e3033"/></svg>