<svg xmlns="http://www.w3.org/2000/svg" viewBox="0 0 512 512"><path d="M503.524 374.657H28.871a8.476 8.476 0 0 1-8.476-8.476V61.048a8.476 8.476 0 0 1 8.476-8.476h474.653A8.476 8.476 0 0 1 512 61.048v305.133a8.476 8.476 0 0 1-8.476 8.476z" fill="#41479b"/><g fill="#f5f5f5"><path d="M20.395 239.04h491.6v22.602h-491.6zM20.395 284.25h491.6v22.602h-491.6z"/></g><path fill="#ff4b55" d="M20.395 261.64h491.6v22.602h-491.6z"/><g fill="#ffe15a"><path d="M183.287 193.127l2.6 7.795 8.216.064c.637.005.901.817.389 1.195l-6.61 4.881 2.478 7.834c.192.607-.499 1.109-1.017.738l-6.685-4.778-6.685 4.778c-.518.37-1.209-.131-1.017-.738l2.478-7.834-6.61-4.881c-.512-.378-.248-1.191.389-1.195l8.216-.064 2.6-7.795c.201-.603 1.056-.603 1.258 0zM183.287 330.102l2.6 7.795 8.216.064c.637.005.901.817.389 1.195l-6.61 4.881 2.478 7.834c.192.607-.499 1.109-1.017.738l-6.685-4.778-6.685 4.778c-.518.37-1.209-.132-1.017-.738l2.478-7.834-6.61-4.881c-.512-.378-.248-1.191.389-1.195l8.216-.064 2.6-7.795c.201-.604 1.056-.604 1.258 0zM138.824 337.757l6.607-4.885 6.761 4.67c.523.362 1.207-.152 1.005-.755l-2.604-7.794 6.531-4.987c.506-.387.229-1.194-.408-1.189l-8.216.068-2.725-7.752c-.211-.601-1.065-.587-1.257.02l-2.474 7.836-8.214.196c-.637.015-.887.832-.369 1.201l6.688 4.774-2.352 7.873c-.184.612.514 1.102 1.027.724zM152.038 226.405l-6.709-4.744-6.661 4.812c-.516.373-1.21-.126-1.02-.734l2.439-7.847-6.635-4.848c-.514-.375-.254-1.189.382-1.197l8.216-.105 2.561-7.807c.198-.605 1.052-.609 1.257-.006l2.639 7.782 8.217.022c.637.002.905.813.394 1.193l-6.586 4.914 2.518 7.822c.197.605-.492 1.11-1.012.743zM213.919 226.505l6.607-4.885 6.761 4.67c.523.361 1.207-.152 1.005-.755l-2.604-7.794 6.531-4.987c.506-.387.229-1.194-.408-1.189l-8.216.068-2.725-7.752c-.211-.601-1.065-.587-1.257.02l-2.474 7.836-8.214.196c-.637.015-.887.832-.369 1.201l6.688 4.774-2.352 7.873c-.184.612.515 1.103 1.027.724zM227.134 337.657l-6.709-4.744-6.661 4.812c-.516.373-1.21-.126-1.02-.734l2.439-7.847-6.635-4.848c-.514-.375-.254-1.189.382-1.197l8.216-.105 2.561-7.807c.198-.605 1.052-.609 1.257-.006l2.639 7.782 8.217.022c.637.002.905.813.394 1.193l-6.586 4.914 2.518 7.822c.195.604-.493 1.11-1.012.743zM128.996 289.78l-8.216.054-2.711-7.757c-.21-.601-1.064-.589-1.257.018l-2.488 7.832-8.215.182c-.637.014-.889.831-.371 1.201l6.68 4.786-2.366 7.869c-.183.609.515 1.102 1.028.725l6.615-4.874 6.753 4.682c.523.362 1.207-.149 1.007-.753l-2.592-7.798 6.539-4.975c.506-.386.231-1.196-.406-1.192zM106.11 247.549l8.215-.155 2.513-7.823c.195-.606 1.049-.616 1.257-.014l2.687 7.765 8.217-.028c.637-.002.91.807.402 1.191l-6.555 4.954 2.566 7.806c.199.605-.486 1.115-1.009.75l-6.737-4.703-6.631 4.852c-.514.376-1.21-.119-1.026-.728l2.391-7.861-6.664-4.807c-.517-.373-.262-1.187.374-1.199zM259.187 247.245l-8.216.054-2.711-7.757c-.21-.601-1.064-.589-1.257.018l-2.488 7.832-8.215.182c-.637.014-.889.831-.371 1.201l6.68 4.786-2.366 7.869c-.183.609.515 1.102 1.028.724l6.615-4.874 6.753 4.682c.523.362 1.207-.149 1.007-.753l-2.59-7.798 6.539-4.975c.505-.387.229-1.195-.408-1.191zM236.301 290.084l8.215-.155 2.513-7.823c.195-.606 1.049-.616 1.257-.014l2.687 7.765 8.217-.028c.637-.002.91.807.402 1.191l-6.555 4.954 2.566 7.806c.199.605-.486 1.115-1.009.75l-6.737-4.703-6.631 4.852c-.514.376-1.21-.119-1.026-.728l2.391-7.861-6.664-4.807c-.517-.371-.261-1.187.374-1.199z"/></g><path d="M19.203 489.087C8.598 489.087 0 480.49 0 469.884V41.958c0-10.519 8.527-19.045 19.045-19.045h.158c10.606 0 19.203 8.598 19.203 19.203v427.768c.001 10.606-8.597 19.203-19.203 19.203z" fill="#2e3033"/></svg>