<svg xmlns="http://www.w3.org/2000/svg" viewBox="0 0 512 512"><path d="M503.524 52.572H28.871a8.476 8.476 0 0 0-8.476 8.476v305.133a8.476 8.476 0 0 0 8.476 8.476h474.653a8.476 8.476 0 0 0 8.476-8.476V61.048a8.476 8.476 0 0 0-8.476-8.476z" fill="#ff6e55"/><path d="M23.522 372.608L508.872 54.62c-1.47-1.223-3.289-2.049-5.349-2.049H28.871a8.476 8.476 0 0 0-8.476 8.476V366.18c0 2.621 1.259 4.875 3.127 6.428z" fill="#ffe15a"/><g fill="#fff5dc"><path d="M290.701 138.747c-4.259.912-10.951-1.369-10.951-1.369 1.378 2.374 5.065 3.973 8.391 4.98a75.22 75.22 0 0 1-9.152.344c-13.689-.305-20.076 8.67-20.076 8.67 4.867-3.043 9.886-3.043 17.339-1.977 7.452 1.065 23.271-3.65 23.271-3.65l1.369-6.084c-.001-.002-5.932-1.827-10.191-.914z"/><path d="M304.77 110.229s7.077 1.5 14.261 5.622a7.234 7.234 0 0 0-1.24.83c-2.321-1.154-5.126-2.088-8.763-2.459 0 0 3.764.979 7.381 3.812-.937 1.103-1.708 2.358-2.302 3.474-7.957-8.532-16.562-2.837-16.562-2.837 10.674-.812 13.193 6.048 13.794 9.36-2.067-1.382-4.014-2.521-5.841-3.447.268-.2.404-.381.717-.588 0 0-.669.026-1.596.165-13.623-6.548-20.306-1.383-20.306-1.383 6.05-.74 11.641.834 16.077 2.792-1.949 1.122-3.27 3.099-2.18 6.46-7.64-2.079-17.242-4.127-21.958-2.864-8.517 2.281-5.78 10.19-5.78 10.19s.153-5.323 5.932-6.54c4.327-.911 25.856 5.932 25.856 5.932l6.996-3.346-2.889-2.434s-5.554-2.229-3.172-6.06c3.982 2.123 6.518 4.235 6.518 4.235l1.712-2.501c.084.647.113 1.133.113 1.133l4.867-2.129 1.065-1.521c.426-2.309 1.132-3.95 1.942-5.179a15.941 15.941 0 0 1 3.153 6.661l4.411.457s-.716-5.098-5.651-9.153c.438-.311.87-.569 1.296-.742 3.251 2.332 6.282 5.249 8.386 8.906l8.137-.114c-.001-.001-13.386-14.907-34.374-16.732z"/><circle cx="382.41" cy="182.09" r="10.19"/><circle cx="358.63" cy="267.86" r="13.671"/><circle cx="254.41" cy="261.24" r="10.835"/><circle cx="229.49" cy="312.7" r="12.509"/><path d="M348.649 155.477s23.43 8.35 29.087 11.179c7.985 3.992 20.533-7.643 29.316 1.369 0 0-1.521-6.007-8.821-6.464 0 0 .153-5.932-6.692-5.627 0 0 5.019 3.65 2.13 6.236 0 0-1.977-4.411-7.605-3.65 0 0 4.258 1.673 3.194 4.258 0 0-6.768 3.27-9.81 1.141s-27.072-15.096-34.677-15.4l3.878 6.958z"/></g><path d="M342.64 162.778s5.019 1.483 12.32 9.125c3.383 3.542 12.091 3.764 10.722-3.08-1.369-6.844-18.251-11.064-20.076-11.064-1.825 0-2.966 5.019-2.966 5.019z" fill="#f5f5f5"/><g fill="#fff5dc"><path d="M379.219 147.721l-9.582 3.194s1.065 6.502-4.411 9.354c-3.372 1.757-5.627 6.311-5.475 9.657 0 0 3.194-4.411 7.757-6.844 1.074-.573 2.065-1.075 2.968-1.585-.181 2.28-.23 4.674.075 6.756.912 6.235-1.065 8.365-1.065 8.365s5.324-4.107 4.715-10.798c-.234-2.571.188-4.393.842-5.775.471 4.66 2.959 6.841 2.959 6.841-1.826-3.65 1.977-7.605 3.498-10.799 1.522-3.196-2.281-8.366-2.281-8.366zM403.44 134.489c-3.773-1.283-7.414 1.027-9.582 2.965-.923.825-3.354 1.245-5.842 1.471 1.661-1.175 3.43-2.563 4.36-3.752 2.053-2.623 5.818-3.08 9.011-4.107 3.194-1.027 4.563-5.133 4.563-5.133s-1.711 2.51-6.502 2.281c-4.791-.229-6.388-.457-9.582 2.966-.982 1.052-2.357 1.866-3.783 2.519.031-1.495.16-3.397.589-4.687.799-2.396 4.449-4.334 4.677-9.125s.457-4.334 3.194-7.187c2.738-2.852 3.537-8.213 2.738-6.502s-4.449 3.764-7.529 6.617c-3.08 2.852-.912 6.045-2.51 8.555-1.597 2.51-5.361 3.08-5.59 7.757-.228 4.677-3.537 7.414-3.537 7.414s-8.099 4.449 1.597 7.985c9.696 3.537 17.54-6.302 22.357-6.045 10.722.57 13.574-2.966 13.574-2.966-1.823 0-6.499.912-12.203-1.026zM285.834 209.622c-.608-.457-11.102-12.016-14.601-13.689l.761 2.89s-2.281-.153-6.388-5.171-7.148-6.388-7.148-6.388 2.89 4.563 2.738 7.452c0 0-6.236-.457-12.928 2.738 0 0-3.042-5.932-5.627-6.996 0 0 .912 6.236-1.216 7.757-2.13 1.521 20.076 12.016 23.118 12.32 3.04.305 21.291-.913 21.291-.913zM299.675 186.961c-.216-.054-1.338.735-2.786 1.769-.64-3.693-1.928-11.161-1.928-11.504 0-.457-10.343-14.905-10.647-15.513-.005-.011-.039-.012-.047-.021 1.004-2.429 2.086-6.566-4.06-3.325-8.366 4.412-11.712 14.601-11.712 14.601 1.907-1.99 5.235-3.508 7.891-4.495.055 1.241.065 2.713-1.655 5.256-3.498 5.17-1.521 7.148-1.521 7.148 2.738-4.715 8.821-5.171 8.821-5.171-.912 5.628 2.281 8.821 2.281 8.821l2.585-3.042c-.319 4.355 2.012 9.027 3.46 11.482-.572.277-1.094.488-1.482.533-2.586.305-6.692 2.281-6.692 2.281s3.328-.71 5.218.75c1.889 1.46 4.896 2.577 6.528 2.233 0 0-.773 3.951.086 5.411 0 0-2.148-.603-4.638-.516-2.491.087-4.304-1.642-4.304-1.642s4.563 6.539 7.909 7.908 9.125-3.65 9.125-3.65-1.824-19.163-2.432-19.314zM221.043 282.324s-2.89.304-5.627 4.411l-1.216-4.259s-3.346 2.434-6.996.912c0 0 3.346-.761 3.954-3.802s1.826-3.346 1.826-3.346-2.281-2.434-4.715-2.281c0 0 6.692-3.498 10.343-.153 3.647 3.346 2.431 8.518 2.431 8.518zM301.499 248.71s-2.89.304-5.627 4.411l-1.216-4.258s-3.346 2.434-6.996.912c0 0 3.346-.761 3.954-3.803.608-3.042 1.826-3.346 1.826-3.346s-2.281-2.434-4.715-2.281c0 0 6.692-3.498 10.343-.153 3.649 3.348 2.431 8.518 2.431 8.518zM350.832 205.441s-1.411 2.541.378 7.14l-4.185-1.45s.07 4.136-3.272 6.251c0 0 1.299-3.175-.841-5.421s-1.691-3.416-1.691-3.416-3.302.469-4.576 2.549c0 0 .98-7.487 5.816-8.553 4.837-1.066 8.371 2.9 8.371 2.9z"/></g><path d="M365.477 256.841l2.944 1.756c-.857-.736-1.873-1.289-2.944-1.756z" fill="#ff6e55"/><path d="M199.445 271.524s-13.536 19.012-29.05 23.118l5.475-6.996s-7.301 6.388-15.513 7.757l9.886-11.406S148.19 304.53 119.9 308.788c0 0 21.902-13.84 26.312-18.707 0 0-10.647 4.258-20.229 4.411 0 0 27.529-10.647 32.092-14.905 0 0-10.951 2.434-17.795.153 0 0 23.726-6.844 27.072-5.932 0 0-13.689-5.475-21.902-4.867 0 0 13.993-3.346 30.266 0l-3.498-3.803s9.278-2.434 18.403-3.042 4.563-1.369 4.563-1.369l1.065-3.042s-5.932.761-10.798 0c0 0 14.601-8.213 18.707-11.863 4.107-3.65 1.369-1.977 1.369-1.977s-7.605 2.585-10.343 3.042c0 0 6.844-7.909 8.974-13.08 0 0-6.236 2.434-11.559 0 0 0 6.388-1.826 9.582-5.019 3.194-3.194 7.909-11.141 7.909-11.141l-5.475 2.396s4.791-8.213 9.012-10.266c0 0-7.187.57-9.468-1.141 0 0 7.643-1.826 9.924-3.65 2.281-1.824 7.301-6.617 12.433-4.791 0 0 7.187-6.617 4.791-10.951 0 0 4.677.342 7.072 3.194 2.396 2.852 6.16 5.248 6.16 5.248l-19.544 15.285-14.905 48.366-10.645 10.187z" fill="#fff5dc"/><g fill="#f5f5f5"><path d="M390.93 180.268c5.628 9.125-1.369 10.039-1.369 10.039-1.065-8.67-8.365-7.604-8.365-7.604l1.977 6.388c-12.167 1.521-11.255-10.647-11.255-10.647-1.826 1.521-4.867 7.757-4.867 7.757s-32.852 10.951-55.057-21.597c0 0-.608-5.781 1.217-8.518l-13.689-10.342-17.643 2.434s-6.996 15.817 1.521 25.552c8.517 9.734 18.555 23.422 16.73 29.81-1.082 3.787-4.302 5.328-8.772 5.006-3.071-.221-6.732-1.323-10.696-3.181-9.735-4.563-33.461-14.296-50.495-6.388-17.034 7.909-18.882 21.595-22.206 32.245-2.942 9.427-9.47 33.495-55.977 55.453-2.222 1.049-1.091 4.426 1.293 3.833 20.16-5.012 47.644-13.363 56.129-23.239l6.844.228-2.51 10.494s8.898 2.738 10.266 15.742c0 0-15.589 4.258-6.768 17.643 0 0 1.369-9.735 12.167-10.19 0 0 2.434 3.194 7.757 3.65 0 0 2.738 4.412 1.369 8.062 0 0 10.798-3.346 1.673-16.275 0 0 10.19-2.433 11.559 10.343 0 0 6.54-20.684-16.806-19.164 0 0 0-3.65-6.16-10.266 0 0-1.52-3.727 0-8.898a62.452 62.452 0 0 0 1.217-4.818 12.72 12.72 0 0 0 5.778 1.624s3.803 6.235 15.057 5.17c0 0-8.213-3.801-7.452-11.102s10.343-11.255 14.449-8.366c0 0-1.065-9.582-15.97-3.346 0 0 0-7.148 7.909-7.604 0 0-12.775-9.735-15.666 8.821l-5.287 1.321c-2.583-7.16-5.855-23.785 8.633-29.839 15.285-6.388 31.255 7.985 59.544 9.354 0 0-2.738 16.654 6.388 20.761s31.483 7.985 31.483 7.985c-.228 24.03 17.262 20.836 17.262 20.836-8.489-5.087-8.489-14.793-3.249-20.461 7.141-7.726 19.523-.376 19.523-.376-.175-11.697-16.578-9.886-16.578-9.886 2.585-7.604 12.775-9.582 12.775-9.582-14.144-5.17-25.856 10.115-25.856 10.115l-23.955-6.844s-.912-4.791 4.791-11.179 10.494-17.111 8.898-28.517c0 0 6.617-4.64 14.829-.076 8.212 4.563 25.856-5.475 25.856-5.475 7.605 9.734 25.703 7.909 28.137-3.801 2.439-11.716-6.383-13.085-6.383-13.085z"/><path d="M365.835 152.284c-4.524-2.639-12.624-4.867-15.362 1.216-2.738 6.084-5.78 12.167-15.209 11.863-9.429-.304-13.689 7.757-20.229 5.475 0 0 6.084-1.977 7.301-4.867 1.216-2.89 6.084-8.213 6.084-8.213l-.608-5.475s-11.255.607-14.601 3.801-15.97-2.737-15.97-2.737l1.521-13.232s9.734-14.905 23.271-13.84c13.536 1.065 15.818-2.434 22.357-1.977 6.54.457 9.886 7.148 16.882 8.67s20.989-1.369 22.814 2.89c1.826 4.258-3.498 5.932-4.867 11.863-1.369 5.932-4.259 9.886-13.384 4.563z"/></g><g fill="#fff5dc"><path d="M326.291 148.481s-6.54 4.411-12.016 2.585c-5.475-1.826-10.343-1.216-15.97.608 0 0 10.343-1.216 14.601 2.738 4.258 3.954 15.057 1.369 15.818-.304l-2.433-5.627z"/><path d="M329.637 158.671s-6.388 4.563-12.775 3.346c-6.388-1.216-12.167 1.369-12.167 1.369s4.715-5.171 11.102-4.258c6.388.912 8.669-5.323 8.669-5.323l4.259.304.912 4.562z"/><circle cx="334.81" cy="153.04" r="8.518"/><path d="M329.789 146.656s-3.346-4.258-11.712-2.585c-8.365 1.673-10.343-1.369-10.343-1.369s3.954 6.084 10.19 5.323 8.821 3.498 8.821 3.498l3.044-4.867zM357.93 136.006c.752-1.036 1.697-2.024 2.99-2.776.763-.444 1.547-.724 2.323-.955.173-1.155.003-2.401-.656-3.531-1.438-2.468-4.427-3.405-6.677-2.094-2.249 1.311-2.908 4.374-1.471 6.841a5.279 5.279 0 0 0 3.491 2.515zM350.458 145.805c.428-1.207 1.055-2.421 2.082-3.509.606-.641 1.279-1.132 1.958-1.572-.161-1.156-.676-2.303-1.628-3.202-2.077-1.96-5.21-2.013-6.997-.12-1.787 1.893-1.552 5.018.526 6.978a5.274 5.274 0 0 0 4.059 1.425z"/></g><path d="M19.203 489.087C8.598 489.087 0 480.49 0 469.884V41.958c0-10.519 8.527-19.045 19.045-19.045h.158c10.606 0 19.203 8.598 19.203 19.203v427.768c.001 10.606-8.597 19.203-19.203 19.203z" fill="#2e3033"/></svg>