<svg xmlns="http://www.w3.org/2000/svg" viewBox="0 0 512 512"><path d="M512 162.357H26.68V64.821a8.454 8.454 0 0 1 8.453-8.453h468.414A8.454 8.454 0 0 1 512 64.821v97.536z" fill="#ff4b55"/><path d="M503.547 374.337H35.133a8.454 8.454 0 0 1-8.453-8.453v-97.537H512v97.536a8.453 8.453 0 0 1-8.453 8.454z" fill="#41479b"/><path fill="#f5f5f5" d="M26.68 162.357H512v105.99H26.68z"/><path d="M269.34 173.514c-23.107 0-41.838 18.731-41.838 41.838s18.731 41.838 41.838 41.838 41.838-18.731 41.838-41.838c.001-23.107-18.731-41.838-41.838-41.838zm0 73.392c-17.426 0-31.552-14.127-31.552-31.553s14.126-31.552 31.552-31.552 31.553 14.127 31.553 31.552c0 17.426-14.127 31.553-31.553 31.553z" fill="#ff4b55"/><circle cx="269.34" cy="215.348" r="14.513" fill="#41479b"/><path d="M270.286 204.361l2.339 7.014 7.393.057c.957.007 1.354 1.229.584 1.797l-5.948 4.392 2.231 7.049c.288.913-.75 1.667-1.529 1.111l-6.015-4.299-6.015 4.299c-.779.557-1.817-.199-1.529-1.111l2.231-7.049-5.948-4.392c-.77-.568-.373-1.79.584-1.797l7.393-.057 2.339-7.014c.302-.909 1.586-.909 1.89 0z" fill="#ffe15a"/><path d="M296.791 215.69s.829-3.836-3.25.766c0 0 .059-1.31-.055-2.39.897-.972 2.01-3.097 1.75-7.632 0 0-.639-3.872-2.741 1.908 0 0-.573-1.704-1.183-2.649.506-1.049.897-2.963-.317-6.586 0 0-1.419-3.099-1.861 2.225 0 0-1.165-1.742-1.922-2.17.147-.859.031-2.333-1.682-4.721 0 0-1.711-1.915-.846 2.015 0 0-1.565-1.268-2.066-1.118-.26-.75-1.011-2.019-3.534-3.69 0 0-2.187-1.197.322 1.927 0 0-2.218-.88-2.191-.376.026.504 1.099 1.434 1.979 1.849 0 0-3.252.338-1.918 1.062 0 0 3.3 1.138 5.282.043.16.577.482 1.225.963 1.69 0 0-3.872-.751-2.823.41 0 0 2.904 2.134 5.772 1.807-.014.79.226 1.812.646 2.576 0 0-4.615-2.467-3.742-.583 0 0 2.761 3.692 6.433 4.494-.151.821-.148 1.814.051 2.634 0 0-4.382-4.138-3.98-1.78 0 0 1.831 4.854 5.544 6.918-.302.616-.551 1.306-.641 1.948 0 0-2.552-5.461-3.046-3.119 0 0-.085 5.454 2.828 8.715-.62.516-1.228 1.237-1.6 1.945 0 0-.559-6-1.814-3.964 0 0-1.735 4.547-.561 8.464-.776.229-1.622.653-2.247 1.16 0 0 1.851-5.735-.105-4.36 0 0-3.484 3.767-3.749 8.007-.923-.019-2.173.314-3.079.855 0 0 2.649-5.412.517-4.329 0 0-3.8 3.102-4.78 7.131-.898.512-2.425 1.383-3.95 2.249a1761.77 1761.77 0 0 1-2.485-1.445l.024-.04-8.637-7.24.171 2.368-4.336-7.756-.536 2.639-1.42-8.575-1.26 1.265.488-7.999-1.642.884 2.982-5.95-1.401.395 3.684-3.532-1.947.166 4.658-2.115-1.703-.261 4.547-2.302-1.959-.095 5.895-2.039-1.079-.945 5.103-1.505-6.114-.466 1.742-2.144-4.665 2.387.67-3.227-4.08 4.202.709-2.943-3.82 3.8.247-2.868-3.776 6.395-.487-2.861-3.138 7.18-.864-3.128-1.401 8.903-1.169-1.325 1.536 8.588-1.948-1.461 3.574 7.715s-2.598-1.137-2.924-1.137c-.324 0 6.212 6.638 6.212 6.638l-3.411-.366 6.59 4.633-2.449.604 5.482 2.131-1.34 1.036 11.348.811s1.095.911 2.582 1.966c-.785.443-1.476.829-1.904 1.063a1.602 1.602 0 0 1-1.391.07 286.701 286.701 0 0 0-3.388-1.389s.073 3.226 3.431 3.306c1.38.032 3.261-.846 5.01-1.885 1.791 1.117 3.766 2.102 5.194 2.068 3.285-.08 3.357-3.306 3.357-3.306-.735.301-2.261.938-3.315 1.389a1.534 1.534 0 0 1-1.361-.07c-.465-.26-1.231-.698-2.109-1.206a46.253 46.253 0 0 0 2.177-1.566c.826.65 3.192 1.791 8.48-.194 0 0 3.507-1.761-2.636-2.05 0 0 1.14-.837 1.909-1.631 1.007.519 3.499 1.133 8.231-1.467 0 0 3.221-2.243-2.9-1.654 0 0 .817-.796 1.46-1.606 1.057.118 3.664-.164 7.122-4.586 0 0 2.076-3.331-3.318-.377 0 0 .697-1.663.862-2.776 1.19-.565 3.007-2.13 4.432-6.445z" fill="#64c86e"/><path d="M19.152 488.46C8.575 488.46 0 479.884 0 469.307V42.534C0 32.044 8.504 23.54 18.994 23.54h.157c10.577 0 19.152 8.575 19.152 19.152V469.31c0 10.574-8.575 19.15-19.151 19.15z" fill="#2e3033"/></svg>