<svg xmlns="http://www.w3.org/2000/svg" viewBox="0 0 512 512"><path d="M503.6 373.9H35.4c-4.6 0-8.4-3.8-8.4-8.4v-301c0-4.6 3.8-8.4 8.4-8.4h468.2c4.6 0 8.4 3.8 8.4 8.4v300.9c0 4.7-3.8 8.5-8.4 8.5z" fill="#41479b"/><path d="M266.1 56.1h-14.5l-77.5 50.7V56.1h-41.8v50.7L54.9 56.1H40.4c-4.6 0-8.4 3.7-8.4 8.4v6.6l66.5 43.5H32v41.8h66.5L32 200v6.6c0 4.6 3.7 8.4 8.4 8.4h14.5l77.5-50.7V215h41.8v-50.7l77.5 50.7h14.5c4.6 0 8.4-3.7 8.4-8.4V200L208 156.5h66.5v-41.8H208l66.5-43.5v-6.6c0-4.7-3.7-8.5-8.4-8.5z" fill="#f5f5f5"/><g fill="#ff4b55"><path d="M274.5 123H165.8V56.1h-25.1V123H32v25.1h108.7V215h25.1v-66.9h108.7z"/><path d="M124 114.7L36 57.5c-2.3 1.5-4 4-4 6.9v.4l76.6 49.7H124v.2zM189.5 114.7l83.7-54.3c-1.5-2.5-4-4.2-7.1-4.2h-1.8l-90.2 58.5h15.4zM116.8 156.5l-83.6 54.2c1.4 2.5 4 4.3 7.2 4.3H42l90.2-58.5h-15.4zM274.4 207.3l-78.3-50.8h-15.4l88.9 57.7c2.7-1.2 4.5-3.8 4.8-6.9z"/></g><path fill="#82afff" d="M335.2 149.9h111.1v85.8H335.2z"/><path d="M335.2 235.7c0 29.3 32.8 53 55.5 53 20.2 0 55.5-23.7 55.5-53h-111z" fill="#c86464"/><path d="M405.6 181.2c1.8.3 4.8.7 5.2 5 .3 4.3-1.3 19.7-2.8 21.6 0 0 5.2 11.7 5.4 18.6.2 6.9-.7 27.7-.1 31 .6 3.3 3 10.1 3 10.1s-7.3-4.3-10.1-1.6c-2.8 2.7-13.3 6.3-17.4 2.1 0 0 4.9-13.9 4.9-29.7v-54.8s2.1-1.6 4.7-1.7c2.6.1 7.2-.6 7.2-.6z" fill="#73af00"/><g fill="#fff5e1"><path d="M406.6 264.6c.3 2 1.2 3.5.7 4.2-.4.7-3.2 7.5-1.6 7.5s4.3-.8 5.1-2.3c.7-1.5 1.1-3.7 1.5-4.3.4-.6-.7-3.8-1.7-4.3-.9-.5-4-.8-4-.8zM388.4 185.6l-5.8.7s.7-3.8.8-6.4c.1-2.6.3-7.5.3-7.5s4.1-2.5 4.2-2.9c.1-.2.5-1.5.2-2.2-.4-.7-1.6-.7-1.6-.7s-4.8 2.5-4.8 2.9 0 2.9-.5 3.9c-.5.9-3.5 8.8-3.7 10.9-.2 2.1-.5 6.5.3 6.7s9.6 1.2 10.5.7c1-.3.1-6.1.1-6.1z"/></g><path fill="#464655" d="M414.6 164.9h-21v-10h-7.3v10h-21v7.2h21v95.5h7.3v-95.5h21z"/><path d="M402.2 177.7s7 2 8-.3c1.1-2.7-2.6-3.1-3.3-6-.1-.3-.7-4.2-3.6-4.9s-5.5 0-5.6 1.9c0 1.9 4.5 9.3 4.5 9.3z" fill="#963c3c"/><path d="M398.4 186.7c-.2 0-.5-2.1-.1-4.7s0-3.5 0-3.5-2.9.3-2.9-.8.6-6.5 2.4-9.3c0 0 1.3 1.6 3.6 1.6 0 0-.1 1.9 1.2 3.2 0 0-1.6 1.4-.8 2.3s2.1 2.1 2.1 2.1.1 2.2 1.8 3.7c-.1-.1-2.2 4.6-7.3 5.4z" fill="#fff5e1"/><g fill="#464655"><path d="M369.6 232.3h.6v12.5h-.6zM372.1 229.9h.6v17.4h-.6zM374.7 227.7h.6v21.8h-.6zM377.2 224.5h.6v28.1h-.6zM379.8 220.4h.6v36.4h-.6zM382.3 220.4h.6v38.1h-.6z"/></g><path d="M393.7 240.3c-2.8-14.5-10.5-22.9-13.3-23.4-2.7-.4-4.7 1.8-4.9 3.4-.2 1.6-1.7 6.3-4.7 8.5-3.1 2.2-8.7 3.5-10 7.6s2.1 5.9 4.1 5.5c.1 0 .3-.1.4-.1l21.5 26.5c.8 1 2.3.8 2.8-.3 2.3-4.6 6.5-15.3 4.1-27.7zm-26.6.3c.8-.9 1.2-2.2.3-3.4-1.6-2.2-3.4.9-3.4.9s-.5-2.7 3.6-4.1c4.1-1.4 8.7-3.7 10.8-8.6 2.1-4.9 2-4 2-4s8.4 4.7 9.6 19.6c1.2 14.8-2.9 20.8-2.9 20.8l-20-21.2z" fill="#ffe15a"/><g fill="#fff5e1"><path d="M386.3 208.6c-1 .6-1.8 1.1-2.4 1.5-2 1-4.3 2.1-4.6 3-.2.9-1.6 1.7-1.5 2.8s0 4.4 0 4.4c1.2-.2 3.6-.6 4.3-2.1.8-1.4 1.5-4.2 4-5.4 0 0 .1 0 .2-.1v-4.1zM407.2 188.5c-1.2.6-4.7 4.8-5.3 6.8-.6 2-2.3 6.6-2.3 6.6s-3.6.5-6.1 1.9v6.9c1.4-.4 2.6-.8 3.3-1.2 2.1-1.1 5-3.2 6.5-3.6 1.5-.4 2.8-2.9 3.3-4.4.6-1.5 2.3-5.9 2.5-8.9.3-3-.7-4.7-1.9-4.1z"/></g><path d="M390.7 290.5h-.3c-56.4-8.9-57-57.7-57-59.8v-82.6H448v82.6c0 2.1-.6 50.9-57 59.8h-.3zM337 151.6v79c0 1.9.6 47.7 53.8 56.3 53.2-8.6 53.8-54.3 53.8-56.3v-79H337z" fill="#f5f5f5"/><path d="M19.3 490.5C8.7 490.5 0 481.9 0 471.2V40.6C0 30 8.6 21.5 19.2 21.5h.2c10.7 0 19.3 8.7 19.3 19.3v430.4c-.1 10.7-8.7 19.3-19.4 19.3z" fill="#2e3033"/></svg>