<svg xmlns="http://www.w3.org/2000/svg" viewBox="0 0 512 512"><path d="M184.263 374.608H28.871a8.476 8.476 0 0 1-8.476-8.476V60.999a8.476 8.476 0 0 1 8.476-8.476h155.392v322.085z" fill="#41479b"/><path fill="#ffe15a" d="M184.27 52.52h163.87V374.6H184.27z"/><path d="M503.524 374.608H348.132V52.523h155.392A8.476 8.476 0 0 1 512 60.999v305.133a8.476 8.476 0 0 1-8.476 8.476z" fill="#ff4b55"/><path d="M323.829 241.114a4.455 4.455 0 0 0-4.455-4.455c-.534 0-1.039.109-1.514.282-2.205-1.961-6.2-6.826-2.191-13.696a3.163 3.163 0 0 0 1.954.682 3.2 3.2 0 0 0 3.2-3.2 3.19 3.19 0 0 0-2.147-3.008c3.294-1.68 7.993-5.248 7.75-11.917-.344-9.459-8.093-14.681-12.847-12.593.017-.132.04-.263.04-.399a3.154 3.154 0 0 0-3.155-3.155 3.147 3.147 0 0 0-2.584 1.353c-.194-.946-.171-2.702 2.028-4.6 4.083-3.527 8.724-11.972.279-17.912-4.677-3.289-13.617-4.864-16.612-.371-1.299 1.948-.257 4.748 1.226 5.377-2.39 1.333-6.924 3.333-10.506 1.769-5.105-2.227-2.156-6.65-1.021-8.631 1.995-3.48.743-9.188-5.939-9.188-4.455 0-6.682 4.455-11.136 4.455s-6.682-4.455-11.136-4.455c-6.682 0-7.935 5.707-5.94 9.188 1.136 1.98 4.083 6.404-1.02 8.631-3.582 1.564-8.116-.437-10.506-1.769 1.482-.628 2.525-3.427 1.226-5.377-2.995-4.492-11.935-2.918-16.612.371-8.445 5.94-3.805 14.385.279 17.912 2.198 1.899 2.222 3.655 2.028 4.6a3.147 3.147 0 0 0-2.584-1.353 3.154 3.154 0 0 0-3.155 3.155c0 .137.023.268.04.399-4.754-2.088-12.503 3.134-12.847 12.593-.243 6.669 4.456 10.237 7.75 11.917a3.192 3.192 0 0 0-2.147 3.008 3.2 3.2 0 0 0 3.2 3.2c.74 0 1.411-.261 1.954-.682 4.009 6.87.015 11.735-2.191 13.696a4.404 4.404 0 0 0-1.514-.282 4.455 4.455 0 0 0-4.455 4.455c0 2.31 1.764 4.186 4.015 4.411-3.07 3.154-5.825 10.105.161 18.002 6.542 8.631 22.134 7.935 29.651 8.213 4.767.177 8.352 2.645 10.342 4.43a4.439 4.439 0 0 0-2.129 3.783c0 2.249 1.674 4.091 3.841 4.393a4.438 4.438 0 0 0 3.77 2.104 4.445 4.445 0 0 0 4.021-2.566c2.352 1.939 3.96 2.751 3.96 2.751s1.608-.813 3.96-2.751a4.445 4.445 0 0 0 4.021 2.566 4.44 4.44 0 0 0 3.77-2.104c2.167-.302 3.841-2.143 3.841-4.393a4.437 4.437 0 0 0-2.129-3.783c1.99-1.785 5.575-4.254 10.342-4.43 7.517-.279 23.109.417 29.651-8.213 5.986-7.896 3.231-14.849.161-18.002 2.247-.225 4.011-2.102 4.011-4.411z" fill="#dcbe82"/><path d="M226.106 183.899v64.593c0 7.38 5.983 13.364 13.364 13.364h17.819c6.682 0 8.909 4.455 8.909 4.455s2.227-4.455 8.909-4.455h17.819c7.38 0 13.364-5.983 13.364-13.364v-64.593c0-1.23-.997-2.227-2.227-2.227h-75.729a2.226 2.226 0 0 0-2.228 2.227z" fill="#d2aa73"/><g fill="#ff4b55"><path d="M230.56 186.13h33.41v33.41h-33.41zM263.97 257.4c-18.452 0-33.41-14.958-33.41-33.41h33.41v33.41z"/></g><g fill="#ffe15a"><path d="M268.425 257.4v-33.41h33.41c-.001 18.452-14.959 33.41-33.41 33.41zM268.42 186.13h4.773v33.41h-4.773z"/></g><path fill="#ff4b55" d="M273.2 186.13h4.773v33.41H273.2z"/><path fill="#ffe15a" d="M277.97 186.13h4.773v33.41h-4.773z"/><path fill="#ff4b55" d="M282.75 186.13h4.773v33.41h-4.773z"/><g fill="#ffe15a"><path d="M287.51 186.13h4.773v33.41h-4.773zM297.06 186.13h4.773v33.41h-4.773z"/></g><g fill="#ff4b55"><path d="M292.29 186.13h4.773v33.41h-4.773zM241.69 223.99h3.712v33.41h-3.712z"/></g><g fill="#ffe15a"><path d="M245.41 223.99h3.712v33.41h-3.712zM252.84 223.99h3.712v33.41h-3.712z"/></g><path fill="#ff4b55" d="M249.12 223.99h3.712v33.41h-3.712z"/><path fill="#ffe15a" d="M260.25 223.99h3.712v33.41h-3.712z"/><path fill="#ff4b55" d="M256.55 223.99h3.712v33.41h-3.712z"/><path d="M234.272 255.701V223.99h-3.712v24.501c0 2.975 1.472 5.592 3.712 7.21z" fill="#ffe15a"/><path d="M237.985 257.251V223.99h-3.712v31.711a8.807 8.807 0 0 0 3.712 1.55z" fill="#ff4b55"/><path d="M237.985 223.99v33.261c.485.082.976.149 1.485.149h2.227v-33.41h-3.712z" fill="#ffe15a"/><g fill="#f5f5f5"><path d="M235.54 217.639a.877.877 0 0 1-.483-.145c-2.19-1.449-2.318-2.959-2.198-3.729.16-1.04.934-1.904 1.972-2.201.987-.278 1.972.014 2.637.786 1.383 1.607 2.811 2.24 4.012 1.796.951-.353 1.519-1.29 1.519-1.992a.876.876 0 1 1 1.754 0c0 1.534-1.12 3.064-2.664 3.636-1.128.416-3.397.674-5.953-2.296-.274-.317-.598-.307-.825-.244-.311.089-.656.366-.719.78-.093.605.429 1.333 1.432 1.998a.877.877 0 0 1-.484 1.611zM259.095 217.639a.877.877 0 0 1-.484-1.608c1.003-.665 1.526-1.393 1.432-1.998-.065-.414-.408-.691-.719-.78-.229-.064-.552-.074-.825.244-2.556 2.972-4.826 2.714-5.953 2.296-1.544-.572-2.664-2.103-2.664-3.636a.876.876 0 1 1 1.754 0c0 .701.568 1.638 1.519 1.992 1.203.446 2.631-.189 4.012-1.796.665-.777 1.651-1.066 2.637-.786 1.037.297 1.812 1.16 1.972 2.201.119.769-.008 2.279-2.198 3.729a.902.902 0 0 1-.483.142z"/></g><g fill="#ffe15a"><path d="M235.057 218.681a.878.878 0 0 1-.698-1.408l19.073-25.078c.182-.329.251-.785.331-1.311.147-.985.332-2.211 1.835-3.116.98-.588 2.143-.571 3.116.05 1.073.686 1.706 1.962 1.575 3.177-.078.738-.51 2.085-2.508 2.826a.877.877 0 0 1-.61-1.644c.583-.216 1.295-.629 1.373-1.368.06-.56-.259-1.18-.776-1.512-.289-.185-.743-.343-1.266-.024-.796.478-.875 1.002-1.005 1.871-.092.616-.197 1.313-.608 2.023l-19.133 25.169a.883.883 0 0 1-.699.345z"/><path d="M247.386 191.097l-8.774 10.529 3.509 10.529h10.529l3.51-10.529z"/></g><path d="M247.386 189.726l-9.761 11.713 3.864 11.593h11.793l3.864-11.593-9.76-11.713zm-7.787 12.087l6.91-8.292v17.756h-3.755l-3.155-9.464zm12.419 9.464h-3.755v-17.756l6.91 8.292-3.155 9.464z" fill="#f5f5f5"/><path d="M293.621 234.538l.132-1.946s1.726-1.239.885-2.389c-.84-1.151-1.814-1.372-3.849-1.106s-5.221.221-6.592.309c-1.371.088-2.08.84-4.247.221l.575-1.328s-1.018.089-1.637.398c-.338.17-1.151-.929-1.946-.752-.794.176-1.592 1.814-2.832 2.655l.663 1.328s.752-.354 1.328.044c.575.398.752.663 1.726.663l.62.266s-.221 1.415.708 2.08c0 0-1.062 1.372-.929 1.592.132.221 1.018 1.903 1.372 2.875l.797-1.504s-1.195-1.062-.974-1.195c.221-.132 1.017-.309.885-.663-.132-.354.62.045 1.46.177 0 0 .044 1.328.221 1.504.177.177.443.885.398 1.637-.044.752-.708.974-.708.974l1.195.354s.309-.443.531-.398c0 0-.089-3.672.398-4.248 0 0 2.875.575 4.203-.132 0 0 .17.214.501.417-.132.308-.245.616-.195.706.111.2.466.178.555-.045.034-.084.086-.255.138-.433.16.053.336.094.537.114-.019.28-.021.537.043.596.167.155.498.023.514-.216a5.53 5.53 0 0 0-.002-.382c.229-.019.473-.059.742-.139l-1.504 2.478-.752.309.974.486.885-.354s.84-2.124 2.212-2.743c0 0 .929 2.212-.221 3.407l1.017.575.486-1.017s-.177-1.991.486-3.274l-.799-1.901z" fill="#ff4b55"/><g fill="#4173cd"><path d="M276.959 228.216s-.444-.422-.555-.977c-.111-.555-.245-.8-.733-.955 0 0 .31.355.267.91-.044.555 0 1.311.31 1.554l.711-.532zM280.823 229.782s-.604 2.053-2.379 3.12l-.62-.266s1.894-1.619 2.124-3.009l.875.155zM277.803 228.705c-.064-.066.778-.31.577-.977-.2-.666-.2-1.155.2-1.465 0 0 .044.555.355.91.31.355.488 1.244-.022 1.755.001-.002-.511.399-1.11-.223zM277.899 234.759a.214.214 0 0 1-.097-.287l.268-.546a.685.685 0 0 0-.255-.895.668.668 0 0 0-.934.284l-.279.567a.214.214 0 0 1-.287.097l-.167.34.544.267-.006.013a.278.278 0 1 0 .499.245l.006-.013.544.267.164-.339zM280.047 238.499l.665.133-.555 1.71-.562-.892zM281.675 240.379l-.408.719h1.6l.003-.365zM289.55 239.849v.427h-1.813l.877-.878zM292.427 240.158l-.896.896h1.885l.028-.321z"/></g><path d="M293.621 248.402l.132-1.946s1.726-1.239.885-2.389c-.84-1.151-1.814-1.372-3.849-1.106s-5.221.221-6.592.309c-1.372.089-2.08.84-4.247.221l.575-1.328s-1.018.089-1.637.398c-.338.17-1.151-.929-1.946-.752-.794.176-1.592 1.814-2.832 2.655l.663 1.328s.752-.354 1.328.045c.575.398.752.663 1.726.663l.62.266s-.221 1.415.708 2.08c0 0-1.062 1.372-.929 1.592.132.221 1.018 1.903 1.372 2.875l.797-1.504s-1.195-1.062-.974-1.195c.221-.132 1.017-.309.885-.663-.132-.354.62.045 1.46.177 0 0 .044 1.328.221 1.504.177.177.443.885.398 1.637-.044.752-.708.974-.708.974l1.195.354s.309-.443.531-.398c0 0-.089-3.672.398-4.247 0 0 2.875.575 4.203-.132 0 0 .17.214.501.417-.132.308-.245.616-.195.706.111.2.466.178.555-.044.034-.084.086-.255.138-.433.16.053.336.094.537.114-.019.28-.021.537.043.596.167.155.498.023.514-.216a5.53 5.53 0 0 0-.002-.382c.229-.019.473-.059.742-.139l-1.504 2.478-.752.309.974.486.885-.354s.84-2.124 2.212-2.743c0 0 .929 2.212-.221 3.407l1.017.575.486-1.017s-.177-1.991.486-3.274l-.799-1.904z" fill="#ff4b55"/><g fill="#4173cd"><path d="M276.959 242.08s-.444-.422-.555-.977c-.111-.555-.245-.8-.733-.955 0 0 .31.355.267.91-.044.555 0 1.311.31 1.554l.711-.532zM280.823 243.646s-.604 2.053-2.379 3.12l-.62-.266s1.894-1.619 2.124-3.009l.875.155zM277.803 242.568c-.064-.066.778-.31.577-.977-.2-.666-.2-1.155.2-1.466 0 0 .044.555.355.91.31.355.488 1.244-.022 1.755.001 0-.511.4-1.11-.222zM277.899 248.622a.214.214 0 0 1-.097-.287l.268-.546a.685.685 0 0 0-.255-.895.668.668 0 0 0-.934.284l-.279.567a.214.214 0 0 1-.287.097l-.167.34.544.267-.006.013a.278.278 0 1 0 .499.245l.006-.013.544.267.164-.339zM280.047 252.362l.665.134-.555 1.71-.562-.892zM281.675 254.243l-.408.718h1.6l.003-.364zM289.55 253.712v.427h-1.813l.877-.877zM292.427 254.021l-.896.897h1.885l.028-.321z"/></g><path d="M19.203 489.087C8.598 489.087 0 480.49 0 469.884V41.958c0-10.519 8.527-19.045 19.045-19.045h.158c10.606 0 19.203 8.598 19.203 19.203v427.768c.001 10.606-8.597 19.203-19.203 19.203z" fill="#2e3033"/></svg>