<svg xmlns="http://www.w3.org/2000/svg" viewBox="0 0 512 512"><path d="M503.547 374.338H35.133a8.454 8.454 0 0 1-8.453-8.453V64.822a8.454 8.454 0 0 1 8.453-8.453h468.414A8.454 8.454 0 0 1 512 64.822v301.062a8.453 8.453 0 0 1-8.453 8.454z" fill="#f5f5f5"/><g fill="#41479b"><path d="M227.417 181.883H35.133a8.454 8.454 0 0 1-8.453-8.453V64.822a8.454 8.454 0 0 1 8.453-8.453h192.284a8.454 8.454 0 0 1 8.453 8.453V173.43a8.453 8.453 0 0 1-8.453 8.453zM503.547 374.338H311.263a8.454 8.454 0 0 1-8.453-8.453V257.277a8.454 8.454 0 0 1 8.453-8.453h192.284a8.454 8.454 0 0 1 8.453 8.453v108.608a8.453 8.453 0 0 1-8.453 8.453z"/></g><g fill="#ff4b55"><path d="M503.547 181.883H311.263a8.454 8.454 0 0 1-8.453-8.453V64.822a8.454 8.454 0 0 1 8.453-8.453h192.284A8.454 8.454 0 0 1 512 64.822V173.43a8.452 8.452 0 0 1-8.453 8.453zM227.417 374.338H35.133a8.454 8.454 0 0 1-8.453-8.453V257.277a8.454 8.454 0 0 1 8.453-8.453h192.284a8.454 8.454 0 0 1 8.453 8.453v108.608a8.454 8.454 0 0 1-8.453 8.453z"/></g><g fill="#64b496"><path d="M264.537 239.213s4.999 1.83 4.347 8.107l2.021-.037s-1.275-7.253-2.329-8.121c-1.054-.872-4.039.051-4.039.051z"/><path d="M269.547 238.244c-2.12 0-5.827-.003-9.724-1.056.87-.904 2.07-2.726 2.07-5.902 0-4.975-3.428-1.801-3.428-1.801s-2.254 1.897-.892 6.967a19.662 19.662 0 0 1-3.904-1.998c.783-.982 2.343-3.271 3.249-6.899 0 0-5.712-1.128-7.274 3.172a19.675 19.675 0 0 1-2.46-4.092c1.468.018 3.516-.951 3.516-6.542 0 0-3.73.005-4.727 3.242a31.875 31.875 0 0 1-.911-4.333c1.49.432 5.339.743 5.339-7.613 0 0-4.623.007-5.693 4.103a50.58 50.58 0 0 1-.071-3.247c2.244-1.173 5.343-3.758 5.02-9.062 0 0-2.132.483-4.086 2.122.386-2.01.226-4.954-2.857-7.409 0 0-2.834 5.015 1.305 9.085a8.505 8.505 0 0 0-.933 1.723c-.93-1.416-2.422-2.732-4.822-3.533 0 0-1.106 6.716 5.165 9.526.148 3.922.763 7.387 1.816 10.4-1.795-1.583-3.25-3.761-3.25-3.761 0-7.462-6.117-7.65-6.117-7.65-1.142 8.516 5.155 8.861 5.155 8.861l3.449 3.763c-7.462-1.244-7.462 4.975-7.462 4.975 4.975 1.244 7.462-1.244 7.462-1.244l2.69 1.383c-4.772.139-6.421 4.835-6.421 4.835 5.997 1 10.383-.41 11.874-1.002 6.04 4.222 13.484 4.229 16.922 4.229v-1.242z"/><path d="M269.124 238.244c2.12 0 5.827-.003 9.724-1.056-.869-.904-2.07-2.726-2.07-5.902 0-4.975 3.428-1.801 3.428-1.801s2.254 1.897.892 6.967a19.662 19.662 0 0 0 3.904-1.998c-.783-.982-2.343-3.271-3.249-6.899 0 0 5.712-1.128 7.274 3.172a19.718 19.718 0 0 0 2.46-4.092c-1.468.018-3.517-.951-3.517-6.542 0 0 3.73.005 4.727 3.242.392-1.352.691-2.802.911-4.333-1.489.432-5.339.743-5.339-7.613 0 0 4.623.007 5.693 4.103a50.58 50.58 0 0 0 .071-3.247c-2.244-1.173-5.343-3.758-5.02-9.062 0 0 2.132.483 4.086 2.122-.386-2.01-.226-4.954 2.857-7.409 0 0 2.834 5.015-1.305 9.085.36.507.673 1.082.933 1.723.93-1.416 2.422-2.732 4.822-3.533 0 0 1.106 6.716-5.165 9.526-.148 3.922-.763 7.387-1.816 10.4 1.795-1.583 3.25-3.761 3.25-3.761 0-7.462 6.117-7.65 6.117-7.65 1.142 8.516-5.155 8.861-5.155 8.861l-3.449 3.763c7.462-1.244 7.462 4.975 7.462 4.975-4.975 1.244-7.462-1.244-7.462-1.244l-2.69 1.383c4.772.139 6.421 4.835 6.421 4.835-5.997 1-10.383-.41-11.874-1.002-6.04 4.222-13.484 4.229-16.922 4.229v-1.243l.001.001z"/></g><path d="M248.356 184.03a42.673 42.673 0 0 0-11.336 10.584c1.335.984 2.669 1.969 4.004 2.952a37.682 37.682 0 0 1 10.001-9.343l-2.669-4.193z" fill="#41479b"/><path d="M269.355 216.363h17.41v9.949a4.975 4.975 0 0 1-4.975 4.975h-7.462c-2.044 0-3.841 1-4.975 2.521v-17.445h.002z" fill="#ff6b71"/><path fill="#5f64b9" d="M273.085 205.171v-13.679h18.654l-4.974 4.974v13.68h-13.68z"/><path fill="#f5f5f5" d="M280.55 210.14h6.218v6.218h-6.218z"/><path d="M269.355 216.363h-17.41v9.949a4.975 4.975 0 0 0 4.975 4.975h7.462c2.044 0 3.841 1 4.975 2.521v-17.445h-.002z" fill="#ff6b71"/><path d="M266.245 231.587a6.252 6.252 0 0 1 3.08 2.187h.057a6.25 6.25 0 0 1 3.08-2.187v-10.249h-6.218v10.249h.001z" fill="#f5f5f5"/><path fill="#5f64b9" d="M265.624 205.171v-13.679H246.97l4.974 4.974v13.68h13.68z"/><path fill="#f5f5f5" d="M251.94 210.14h6.218v6.218h-6.218z"/><path fill="#41479b" d="M258.162 197.71v3.73l3.731 2.487v-2.487z"/><path fill="#f5f5f5" d="M261.893 201.44v3.731l4.975 2.487v-1.243z"/><path fill="#41479b" d="M280.547 197.71v3.73l-3.731 2.487v-2.487z"/><path fill="#f5f5f5" d="M276.816 201.44v3.731l-4.975 2.487v-1.243z"/><path d="M276.859 225.069h-15.003c-3.411 0-6.175-2.784-6.175-6.218v-19.234l13.768 9.285 13.585-9.285v19.234c0 3.433-2.765 6.218-6.175 6.218z" fill="#ff4b55"/><g fill="#41479b"><path d="M260.649 202.684l-4.974-3.731v13.68l4.974 2.487zM278.059 202.684l4.975-3.731v13.68l-4.975 2.487zM261.89 215.12h14.92v6.218h-14.92z"/></g><path fill="#ff4b55" d="M261.893 203.927l7.462 3.731 7.461-3.731v11.193h-14.923z"/><g fill="#f5f5f5"><path d="M274.951 205.103v12.504a1.868 1.868 0 0 1-1.865 1.865h-7.462a1.868 1.868 0 0 1-1.865-1.865v-12.452l-3.731-2.499v14.951a5.603 5.603 0 0 0 5.596 5.596h7.462a5.603 5.603 0 0 0 5.596-5.596v-15.036l-3.731 2.532z"/><path d="M276.253 213.79c-2.095.188-4.453.399-6.899 1.251-2.446-.852-4.803-1.063-6.899-1.251-3.505-.315-5.585-.621-6.775-2.736v3.589c1.828 1.189 4.143 1.407 6.552 1.624 2.162.194 4.398.394 6.681 1.26l.441.166.441-.166c2.283-.864 4.519-1.065 6.681-1.26 2.41-.217 4.73-.431 6.557-1.622v-3.6c-1.189 2.124-3.27 2.429-6.78 2.745z"/></g><path fill="#ffe15a" d="M271.841 202.062h-1.865v-1.866h-1.244v1.866h-1.864v1.244h1.864v5.596h1.244v-5.596h1.865z"/><path fill="#464655" d="M257.088 197.102l.683-.683 10.928 10.927-.683.683z"/><path fill="#ffe15a" d="M255.385 194.708l1.366 2.732 1.366-1.366z"/><path fill="#464655" d="M259.506 195.203l.781-.569 9.1 12.492-.78.57z"/><path fill="#ffe15a" d="M258.181 192.587l.926 2.912 1.561-1.137z"/><path fill="#464655" d="M255.041 199.497l.553-.792 12.67 8.847-.552.792z"/><path fill="#ffe15a" d="M252.952 197.446l1.822 2.45 1.107-1.584z"/><path fill="#464655" d="M270.684 208.033l-.684-.683 10.928-10.927.683.683z"/><path fill="#ffe15a" d="M283.317 194.708l-1.366 2.732-1.366-1.366z"/><path fill="#464655" d="M270.116 207.691l-.78-.569 9.1-12.492.78.569z"/><path fill="#ffe15a" d="M280.521 192.587l-.925 2.912-1.561-1.137z"/><path fill="#464655" d="M271 208.36l-.553-.792 12.67-8.848.553.792z"/><path fill="#ffe15a" d="M285.751 197.446l-1.823 2.45-1.105-1.584z"/><path d="M268.723 230.933s-4.81-5.165-3.877-9.906c.75-3.813 3.026-8.017 4.808-9.04 0 0 2.519-.155 1.887 2.033s-1.4 2.753-1.176 4.908c.389 3.731.991 8.154-1.642 12.005z" fill="#f5f5f5"/><path d="M270.182 212.014c-.3-.039-.529-.026-.529-.026-1.781 1.023-4.057 5.227-4.808 9.04-.425 2.157.342 4.397 1.301 6.202-.606-7.819 1.677-10.592 4.036-15.216z" fill="#41479b"/><path d="M270.365 218.928c-.225-2.157.544-2.72 1.176-4.908.443-1.531-.657-1.914-1.358-2.007 0 0-1.606 3.69-1.709 6.163-.091 2.178.466 11.037.249 12.756 2.633-3.85 2.031-8.273 1.642-12.004z" fill="#ff4b55"/><path d="M267.102 213.859a4.371 4.371 0 0 1 3.79-1.177l-1.962-6.317a4.372 4.372 0 0 0-3.79 1.177l1.962 6.317z" fill="#f5f0f0"/><path d="M270.892 212.682a4.371 4.371 0 0 1 3.79-1.177l-1.962-6.317a4.371 4.371 0 0 0-3.79 1.177l1.962 6.317z" fill="#f5f5f5"/><path d="M263.673 185.357a37.69 37.69 0 0 0-19.308 4.807l-2.432-4.339a42.677 42.677 0 0 1 21.855-5.441l-.115 4.973z" fill="#5f64b9"/><path d="M290.352 184.03a42.673 42.673 0 0 1 11.336 10.584c-1.335.984-2.669 1.969-4.004 2.952a37.682 37.682 0 0 0-10.001-9.343l2.669-4.193z" fill="#41479b"/><path d="M275.035 185.357a37.69 37.69 0 0 1 19.308 4.807l2.432-4.339a42.677 42.677 0 0 0-21.855-5.441l.115 4.973z" fill="#5f64b9"/><path d="M279.303 184.03a37.72 37.72 0 0 0-19.898 0l-1.312-4.798a42.67 42.67 0 0 1 22.522 0l-1.312 4.798z" fill="#41479b"/><g fill="#ff6b71"><path d="M252.687 239.767a90.127 90.127 0 0 0-15.667 5.673l2.121 4.5a85.23 85.23 0 0 1 15.129-5.443l-1.583-4.73zM286.021 239.767a90.127 90.127 0 0 1 15.667 5.673l-2.121 4.5a85.23 85.23 0 0 0-15.129-5.443l1.583-4.73z"/></g><g fill="#ff4b55"><path d="M289.359 243.616a85.235 85.235 0 0 0-39.795 0l-1.161-4.837a90.218 90.218 0 0 1 42.118 0l-1.162 4.837z"/><path d="M269.355 244.966l-3.429.857a1.243 1.243 0 0 1-1.545-1.207v-1.789c0-.809.76-1.402 1.545-1.207l3.429.857v2.489zM269.355 242.479l3.429-.857a1.243 1.243 0 0 1 1.545 1.207v1.789c0 .809-.761 1.402-1.545 1.207l-3.429-.857v-2.489z"/></g><path d="M269.611 244.966h-.514a.987.987 0 0 1-.987-.987v-.514c0-.545.442-.987.987-.987h.514c.545 0 .987.442.987.987v.514a.988.988 0 0 1-.987.987z" fill="#ff6b71"/><path d="M19.152 488.46C8.575 488.46 0 479.885 0 469.308V42.534C0 32.044 8.504 23.54 18.994 23.54h.157c10.577 0 19.152 8.575 19.152 19.152v426.617c0 10.576-8.575 19.151-19.151 19.151z" fill="#2e3033"/></svg>