<svg xmlns="http://www.w3.org/2000/svg" viewBox="0 0 512.004 512.004"><path d="M20.394 98.536h491.607V60.999a8.476 8.476 0 0 0-8.476-8.476H28.87a8.476 8.476 0 0 0-8.476 8.476v37.537z" fill="#73af00"/><path fill="#f5f5f5" d="M20.394 98.531h491.61v46.01H20.394z"/><path fill="#73af00" d="M20.394 144.551h491.61v46.01H20.394z"/><path fill="#f5f5f5" d="M20.394 190.561h491.61v46.01H20.394z"/><path fill="#73af00" d="M20.394 236.572h491.61v46.01H20.394z"/><path fill="#f5f5f5" d="M20.394 282.591h491.61v46.01H20.394z"/><path d="M28.87 374.611h474.655a8.476 8.476 0 0 0 8.476-8.476v-37.537H20.394v37.537a8.476 8.476 0 0 0 8.476 8.476z" fill="#73af00"/><path d="M28.87 190.561h228.851a8.476 8.476 0 0 0 8.476-8.476V60.999a8.476 8.476 0 0 0-8.476-8.476H28.87a8.476 8.476 0 0 0-8.476 8.476v121.085a8.476 8.476 0 0 0 8.476 8.477z" fill="#ff4b55"/><g fill="#f5f5f5"><path d="M150.737 179.663H137.07a2.969 2.969 0 0 1-2.786-1.94l-4.4-11.879a37.035 37.035 0 0 1-2.268-14.513l1.532-34.312a2.156 2.156 0 0 1 4.311.097v15.624a.791.791 0 1 0 1.581.039l1.228-24.914a2.114 2.114 0 0 1 4.225.027l.848 23.227a.794.794 0 1 0 1.589-.013l.51-25.81a2.091 2.091 0 0 1 2.752-1.942 2.089 2.089 0 0 1 1.427 1.883l1.26 26.088a.803.803 0 0 0 1.605-.014l.631-20.213a2.117 2.117 0 0 1 3.026-1.845 2.119 2.119 0 0 1 1.203 1.786l1.471 24.809 3.936 11.481c.221.644 1.127.657 1.361.017 1.115-3.043 3.645-8.725 7.705-11.227a2.065 2.065 0 0 1 2.317.121 2.077 2.077 0 0 1 .261 3.088c-1.979 2.106-4.864 6.534-4.655 14.318a4.476 4.476 0 0 1-.845 2.764l-11.09 15.15a11.25 11.25 0 0 0-2.071 5.152l-.05.372a2.974 2.974 0 0 1-2.947 2.579zM143.939 64.131l2.227 6.677 7.038.054c.546.004.771.7.333 1.025l-5.662 4.181 2.123 6.711a.568.568 0 0 1-.871.633l-5.727-4.093-5.727 4.093a.568.568 0 0 1-.871-.633l2.123-6.711-5.662-4.181c-.439-.324-.213-1.02.333-1.025l7.038-.054 2.227-6.677c.174-.517.905-.517 1.078 0zM110.831 73.739l2.227 6.677 7.038.054c.546.004.771.7.333 1.025l-5.662 4.181 2.123 6.711a.568.568 0 0 1-.871.633l-5.727-4.093-5.727 4.093a.568.568 0 0 1-.871-.633l2.123-6.711-5.662-4.181c-.439-.324-.213-1.02.333-1.025l7.038-.054 2.227-6.677a.568.568 0 0 1 1.078 0zM177.854 73.739l2.227 6.677 7.038.054c.546.004.771.7.333 1.025l-5.662 4.181 2.123 6.711a.568.568 0 0 1-.871.633l-5.727-4.093-5.727 4.093a.568.568 0 0 1-.871-.633l2.123-6.711-5.662-4.181c-.439-.324-.213-1.02.333-1.025l7.038-.054 2.227-6.677c.173-.518.906-.518 1.078 0zM200.059 98.985l2.227 6.677 7.038.055c.546.004.771.7.333 1.025l-5.662 4.181 2.123 6.711a.568.568 0 0 1-.871.633l-5.727-4.093-5.727 4.093a.568.568 0 0 1-.871-.633l2.123-6.711-5.662-4.181c-.439-.324-.213-1.02.333-1.025l7.038-.055 2.227-6.677a.568.568 0 0 1 1.078 0zM86.778 98.985l2.227 6.677 7.038.055c.546.004.771.7.333 1.025l-5.662 4.181 2.123 6.711a.568.568 0 0 1-.871.633l-5.727-4.093-5.727 4.093a.568.568 0 0 1-.871-.633l2.123-6.711-5.662-4.181c-.439-.324-.213-1.02.333-1.025l7.038-.055 2.227-6.677c.174-.517.905-.517 1.078 0zM206.445 132.104l2.227 6.677 7.038.054c.546.004.771.7.333 1.025l-5.662 4.181 2.123 6.711a.568.568 0 0 1-.871.633l-5.727-4.093-5.727 4.093a.568.568 0 0 1-.871-.633l2.123-6.711-5.662-4.181c-.439-.324-.213-1.02.333-1.025l7.038-.054 2.227-6.677c.174-.519.906-.519 1.078 0zM78.149 132.104l2.227 6.677 7.038.054c.546.004.771.7.333 1.025l-5.662 4.181 2.123 6.711a.568.568 0 0 1-.871.633l-5.727-4.093-5.727 4.093a.568.568 0 0 1-.871-.633l2.123-6.711-5.662-4.181c-.439-.324-.213-1.02.333-1.025l7.038-.054 2.227-6.677c.175-.519.907-.519 1.078 0z"/></g><path d="M19.203 489.09C8.598 489.09 0 480.493 0 469.887V41.958c0-10.519 8.527-19.045 19.045-19.045h.158c10.606 0 19.203 8.598 19.203 19.203v427.771c.001 10.606-8.597 19.203-19.203 19.203z" fill="#2e3033"/></svg>