<svg xmlns="http://www.w3.org/2000/svg" viewBox="0 0 512.001 512.001"><path d="M503.602 381.964H36.488a8.398 8.398 0 0 1-8.398-8.398V73.316a8.398 8.398 0 0 1 8.398-8.398h467.115a8.398 8.398 0 0 1 8.398 8.398v300.249a8.4 8.4 0 0 1-8.399 8.399z" fill="#73af00"/><g fill="#ffe15a"><path d="M359.878 194.123c-.224-1.427-2.291-1.354-2.453.08-4.977 43.856-42.177 77.93-87.38 77.93-45.188 0-82.401-34.072-87.38-77.927-.163-1.434-2.23-1.505-2.453-.08a87.305 87.305 0 0 0-1.07 13.529c0 50.155 40.707 90.876 90.904 90.876 50.213 0 90.903-40.72 90.903-90.876a87.344 87.344 0 0 0-1.071-13.532z"/><path d="M268.921 156.589l-6.573 19.71-20.777.161c-1.139.008-1.611 1.462-.695 2.139l16.714 12.343-6.267 19.81c-.343 1.086.893 1.984 1.82 1.322l16.904-12.082 16.904 12.082c.927.662 2.164-.236 1.82-1.322l-6.267-19.81 16.714-12.343c.916-.677.444-2.13-.695-2.139l-20.777-.161-6.573-19.71c-.364-1.081-1.892-1.081-2.252 0z"/></g><path d="M19.026 486.943C8.519 486.943 0 478.425 0 467.917V43.929c0-10.422 8.448-18.871 18.87-18.871h.156c10.508 0 19.026 8.519 19.026 19.026v423.831c.001 10.51-8.518 19.028-19.026 19.028z" fill="#2e3033"/></svg>