<svg xmlns="http://www.w3.org/2000/svg" viewBox="0 0 512 512"><path d="M512 215.05H27V64.55c0-4.6 3.8-8.4 8.4-8.4h468.2c4.6 0 8.4 3.8 8.4 8.4v150.5z" fill="#ffe15a"/><path d="M27 215.05h485v150.5c0 4.6-3.8 8.4-8.4 8.4H35.4c-4.6 0-8.4-3.8-8.4-8.4v-150.5z" fill="#73af00"/><path d="M185.9 56.15v317.8H35.4c-4.6 0-8.4-3.8-8.4-8.4v-301c0-4.6 3.8-8.4 8.4-8.4h150.5z" fill="#ff4b55"/><path d="M104.9 173.35l-9.2 27.6-29.1.2c-1.6 0-2.3 2.1-1 3l23.4 17.4-8.8 27.8c-.5 1.5 1.3 2.8 2.6 1.9l23.7-16.9 23.7 16.9c1.3.9 3-.3 2.6-1.9l-8.8-27.8 23.4-17.3c1.3-.9.6-3-1-3l-29.1-.2-9.2-27.6c-.6-1.6-2.7-1.6-3.2-.1z" fill="#464655"/><path d="M18.7 483.45c-10.3 0-18.7-8.3-18.7-18.7V47.15c0-10.3 8.3-18.6 18.6-18.6h.2c10.3 0 18.7 8.4 18.7 18.7v417.4c0 10.5-8.4 18.8-18.8 18.8z" fill="#2e3033"/></svg>