<svg xmlns="http://www.w3.org/2000/svg" viewBox="0 0 512 512"><path d="M31.777 304.089V72.257a8.28 8.28 0 0 1 8.28-8.28h356.027L31.777 304.089z" fill="#41479b"/><path d="M512 138.495v231.831a8.28 8.28 0 0 1-8.28 8.28H147.693L512 138.495z" fill="#73af00"/><path d="M512 143.163V72.257a8.28 8.28 0 0 0-8.28-8.28H391.138L31.777 299.421v70.906a8.28 8.28 0 0 0 8.28 8.28H152.64L512 143.163z" fill="#f5f5f5"/><path d="M512 113.474V72.257a8.28 8.28 0 0 0-8.28-8.28h-67.266L31.777 329.11v41.216a8.28 8.28 0 0 0 8.28 8.28h67.266L512 113.474z" fill="#ff4b55"/><g fill="#ffe15a"><path d="M116.386 118.019c8.151 0 15.53 3.302 20.873 8.642l2.93-20.34-16.165 12.72-7.639-19.098-7.639 19.098-16.165-12.72 2.93 20.34c5.345-5.34 12.723-8.642 20.875-8.642zM95.496 168.424c-5.34-5.344-8.642-12.723-8.642-20.873 0-8.151 3.302-15.53 8.642-20.873l-20.34-2.93 12.72 16.165-19.098 7.639 19.098 7.639-12.72 16.165 20.34-2.932zM163.994 147.551l-19.098-7.639 12.72-16.165-20.34 2.93c5.34 5.343 8.642 12.723 8.642 20.873 0 8.151-3.302 15.53-8.642 20.873l20.34 2.93-12.72-16.165 19.098-7.637zM116.386 177.083c-8.151 0-15.53-3.302-20.873-8.642l-2.93 20.34 16.165-12.72 7.639 19.098 7.639-19.098 16.165 12.72-2.93-20.34c-5.345 5.34-12.725 8.642-20.875 8.642z"/><path d="M140.376 145.08c1.518 15.259-11.203 27.98-26.462 26.462-11.279-1.122-20.397-10.241-21.519-21.519-1.518-15.259 11.203-27.98 26.462-26.462 11.279 1.121 20.397 10.24 21.519 21.519z"/></g><path d="M18.881 485.182C8.454 485.182 0 476.729 0 466.301V45.545c0-10.342 8.384-18.727 18.726-18.727h.155c10.428 0 18.881 8.454 18.881 18.881V466.3c.001 10.429-8.453 18.882-18.881 18.882z" fill="#2e3033"/></svg>