<svg xmlns="http://www.w3.org/2000/svg" viewBox="0 0 512.001 512.001"><path d="M512 221.074H24.345V69.787a8.463 8.463 0 0 1 8.463-8.463h470.73a8.463 8.463 0 0 1 8.463 8.463v151.287H512z" fill="#73af00"/><path d="M24.345 221.074H512v151.287a8.463 8.463 0 0 1-8.463 8.463H32.807a8.463 8.463 0 0 1-8.463-8.463V221.074h.001z" fill="#4173cd"/><path d="M24.345 69.733v302.682c0 3.04 1.699 5.583 4.115 7.059l483.539-158.401L28.46 62.673c-2.418 1.476-4.115 4.02-4.115 7.06z" fill="#ff4b55"/><path d="M204.174 269.069s23.68-8.636 30.366-34.545c0 0-10.308 13.372-17.551 17.273 0 0 15.88-21.173 12.537-41.789 0 0-1.951 8.358-5.85 11.701 0 0 6.965-29.809-1.95-42.345 0 0 .278 10.586-3.622 21.173 0 0 1.486-33.524-13.744-42.067 0 0 5.943 10.586 3.436 19.502 0 0-4.179-18.944-23.587-26.466 0 0-1.207 1.393-.929 5.572 0 0-5.294-6.407-18.387-6.129 0 0 .278 4.736 3.622 9.194 0 0-5.294 2.785-8.636 1.951 0 0 5.294 5.85 23.958 5.294 0 0-2.507 2.229-7.521 2.785 0 0 7.625 3.503 15.137 4.179 10.308.929 14.394 6.965 16.344 14.486 0 0-8.079-4.736-11.143-9.472 0 0-.557 8.079 14.766 23.68l-7.801-3.343s5.014 14.486 11.143 30.923l-6.407-6.965s-1.393 11.701-2.507 33.43l-4.458-10.308s-7.801 25.63-19.78 29.809c-9.378 3.271-19.749 5.511-23.825 6.333-.381-14.339 5.717-17.477 5.717-17.477 10.865.557 13.372-11.422 13.372-11.422-2.229 2.229-6.407 2.229-6.407 2.229 6.407-6.686 6.407-16.158 6.407-16.158-3.9 7.521-10.03 8.636-10.03 8.636l.557-7.522c-11.332 8.241-10.523 17.893-10.335 19.307-.256-1.804-2.273-15.919-3.315-19.307-1.114-3.621 1.393-10.865 5.294-9.75 12.625 3.607 15.601-5.572 15.601-5.572-6.686 3.065-10.586.836-10.586.836 8.636-8.357 5.014-16.158 5.014-16.158-2.786 8.079-10.586 9.472-10.586 9.472l-.278-8.915c-3.622 1.951-6.965 10.586-6.965 10.586s-.836-6.965 1.671-13.094 8.915-3.065 8.915-3.065c11.422 2.229 15.044-8.636 15.044-8.636l-7.521 1.114c8.358-6.129 5.85-13.651 5.85-13.651-1.951 4.736-8.915 5.572-8.915 5.572l3.343-8.915c-7.243 0-11.423 9.472-11.423 9.472l-.557-9.194c3.343-11.979-4.458-17.273-4.458-17.273-1.671 2.229-.836 6.965-.836 6.965-6.965-6.129-12.257 1.114-12.257 1.114 5.294 5.572 10.308 5.014 10.308 5.014-1.671 1.114-7.801 1.671-7.801 1.671 6.965 5.85 10.865 4.736 10.865 4.736 3.343 14.208-5.572 20.616-5.572 20.616-1.671-10.586-8.079-15.601-8.079-15.601l.278 6.965c-4.179-2.507-7.522-10.03-7.522-10.03-2.785 10.586 4.736 19.78 4.736 19.78l-6.965-.557c6.129 14.208 15.88 9.75 15.88 9.75-.836 10.03 2.507 26.466 2.507 26.466-1.393-1.671-16.158-15.601-16.158-15.601-.557 5.572 4.736 12.815 4.736 12.815-2.786-.557-10.865-6.686-10.865-6.686.836 8.915 12.537 14.766 12.537 14.766-4.458.557-13.094-4.458-13.094-4.458 5.014 21.451 23.402 11.979 23.402 11.979l1.41 29.016c-3.883-.932-12.378-3.097-21.19-6.172-11.979-4.179-19.78-29.809-19.78-29.809l-4.458 10.308c-1.114-21.731-2.507-33.43-2.507-33.43l-6.407 6.965c6.129-16.437 11.143-30.923 11.143-30.923l-7.801 3.343c15.322-15.601 14.766-23.68 14.766-23.68-3.065 4.736-11.143 9.472-11.143 9.472 1.95-7.522 8.079-15.322 15.601-15.88 7.521-.557 15.88-2.786 15.88-2.786-5.014-.557-7.522-2.785-7.522-2.785 21.729-1.95 23.958-7.801 23.958-7.801-3.343.836-13.651-.278-13.651-.278 8.636-4.736 22.844-9.194 22.844-9.194-17.551-3.065-32.595 6.965-32.595 6.965 2.507-4.736 6.965-10.03 6.965-10.03-21.451 9.472-31.481 30.923-31.481 30.923-2.507-8.915 3.436-19.502 3.436-19.502-15.23 8.543-13.744 42.067-13.744 42.067-3.9-10.586-3.622-21.173-3.622-21.173-8.915 12.537-1.951 42.345-1.951 42.345-3.9-3.343-5.85-11.701-5.85-11.701-3.343 20.616 12.537 41.789 12.537 41.789-7.243-3.9-17.551-17.273-17.551-17.273 6.686 25.909 30.366 34.545 30.366 34.545-13.093-5.014-18.666-.836-18.666-.836 9.194 1.95 18.108 7.521 25.352 12.815 7.243 5.294 16.993 6.407 25.63 7.521 3.568.46 6.525 1.06 8.814 1.609-4.719 2.31-7.978 7.146-7.978 12.755h28.416c0-5.397-3.011-10.092-7.443-12.496 2.853-.61 6.655-1.334 10.787-1.867 8.636-1.114 17.658-3.407 25.63-7.521 8.636-4.458 16.158-10.865 25.352-12.815-.001.003-5.572-4.176-18.667.839z" fill="#ffe15a"/><path d="M19.174 488.73C8.585 488.73 0 480.146 0 469.556V42.288c0-10.502 8.514-19.016 19.016-19.016h.158c10.589 0 19.174 8.585 19.174 19.174v427.111c-.001 10.589-8.585 19.173-19.174 19.173z" fill="#2e3033"/></svg>