<svg xmlns="http://www.w3.org/2000/svg" viewBox="0 0 512.1 512.1"><path d="M503.6 373.9H35.4c-4.6 0-8.4-3.7-8.4-8.4v-301c0-4.6 3.7-8.4 8.4-8.4h468.3c4.6 0 8.4 3.7 8.4 8.4v301c-.1 4.6-3.8 8.4-8.5 8.4z" fill="#f5f5f5"/><g fill="#41479b"><path d="M512 307c-24.3 0-24.3-8.4-48.6-8.4s-24.3 8.4-48.6 8.4-24.3-8.4-48.5-8.4-24.2 8.4-48.5 8.4-24.3-8.4-48.5-8.4-24.2 8.4-48.5 8.4-24.2-8.4-48.5-8.4-24.2 8.4-48.5 8.4c-24.2 0-24.2-8.4-48.5-8.4-24.2 0-24.2 8.4-48.4 8.4v-25.1c24.2 0 24.2-8.4 48.4-8.4s24.2 8.4 48.5 8.4c24.2 0 24.2-8.4 48.5-8.4s24.2 8.4 48.5 8.4c24.2 0 24.2-8.4 48.5-8.4s24.3 8.4 48.5 8.4 24.2-8.4 48.5-8.4 24.3 8.4 48.5 8.4c24.3 0 24.3-8.4 48.6-8.4s24.3 8.4 48.6 8.4V307zM512 206.6c-24.3 0-24.3-8.4-48.6-8.4s-24.3 8.4-48.6 8.4-24.3-8.4-48.5-8.4-24.2 8.4-48.5 8.4-24.3-8.4-48.5-8.4-24.2 8.4-48.5 8.4-24.2-8.4-48.5-8.4-24.2 8.4-48.5 8.4c-24.2 0-24.2-8.4-48.5-8.4-24.2 0-24.2 8.4-48.4 8.4v-25.1c24.2 0 24.2-8.4 48.4-8.4s24.2 8.4 48.5 8.4c24.2 0 24.2-8.4 48.5-8.4s24.2 8.4 48.5 8.4c24.2 0 24.2-8.4 48.5-8.4s24.3 8.4 48.5 8.4 24.2-8.4 48.5-8.4 24.3 8.4 48.5 8.4c24.3 0 24.3-8.4 48.6-8.4s24.3 8.4 48.6 8.4v25.1zM512 156.5c-24.3 0-24.3-8.4-48.6-8.4s-24.3 8.4-48.6 8.4-24.3-8.4-48.5-8.4-24.2 8.4-48.5 8.4-24.3-8.4-48.5-8.4-24.2 8.4-48.5 8.4-24.2-8.4-48.5-8.4-24.2 8.4-48.5 8.4c-24.2 0-24.2-8.4-48.5-8.4-24.2 0-24.2 8.4-48.4 8.4v-25.1c24.2 0 24.2-8.4 48.4-8.4s24.2 8.4 48.5 8.4c24.2 0 24.2-8.4 48.5-8.4s24.2 8.4 48.5 8.4c24.2 0 24.2-8.4 48.5-8.4s24.3 8.4 48.5 8.4 24.2-8.4 48.5-8.4 24.3 8.4 48.5 8.4c24.3 0 24.3-8.4 48.6-8.4s24.3 8.4 48.6 8.4v25.1zM512 106.3c-24.3 0-24.3-8.4-48.6-8.4s-24.3 8.4-48.6 8.4-24.3-8.4-48.5-8.4-24.2 8.4-48.5 8.4-24.3-8.4-48.5-8.4-24.2 8.4-48.5 8.4-24.2-8.4-48.5-8.4-24.2 8.4-48.5 8.4c-24.2 0-24.2-8.4-48.5-8.4-24.2 0-24.2 8.4-48.4 8.4V81.2c24.2 0 24.2-8.4 48.4-8.4s24.2 8.4 48.5 8.4c24.2 0 24.2-8.4 48.5-8.4s24.2 8.4 48.5 8.4c24.2 0 24.2-8.4 48.5-8.4s24.3 8.4 48.5 8.4 24.2-8.4 48.5-8.4 24.3 8.4 48.5 8.4c24.3 0 24.3-8.4 48.6-8.4s24.3 8.4 48.6 8.4v25.1zM512 256.8c-24.3 0-24.3-8.4-48.6-8.4s-24.3 8.4-48.6 8.4-24.3-8.4-48.5-8.4-24.2 8.4-48.5 8.4-24.3-8.4-48.5-8.4-24.2 8.4-48.5 8.4-24.2-8.4-48.5-8.4-24.2 8.4-48.5 8.4c-24.2 0-24.2-8.4-48.5-8.4-24.2 0-24.2 8.4-48.4 8.4v-25.1c24.2 0 24.2-8.4 48.4-8.4s24.2 8.4 48.5 8.4c24.2 0 24.2-8.4 48.5-8.4s24.2 8.4 48.5 8.4c24.2 0 24.2-8.4 48.5-8.4s24.3 8.4 48.5 8.4 24.2-8.4 48.5-8.4 24.3 8.4 48.5 8.4c24.3 0 24.3-8.4 48.6-8.4s24.3 8.4 48.6 8.4v25.1zM512 357.2c-24.3 0-24.3-8.4-48.6-8.4s-24.3 8.4-48.6 8.4-24.3-8.4-48.5-8.4-24.2 8.4-48.5 8.4-24.3-8.4-48.5-8.4-24.2 8.4-48.5 8.4-24.2-8.4-48.5-8.4-24.2 8.4-48.5 8.4c-24.2 0-24.2-8.4-48.5-8.4-24.2 0-24.2 8.4-48.4 8.4v-25.1c24.2 0 24.2-8.4 48.4-8.4s24.2 8.4 48.5 8.4c24.2 0 24.2-8.4 48.5-8.4s24.2 8.4 48.5 8.4c24.2 0 24.2-8.4 48.5-8.4s24.3 8.4 48.5 8.4 24.2-8.4 48.5-8.4 24.3 8.4 48.5 8.4c24.3 0 24.3-8.4 48.6-8.4s24.3 8.4 48.6 8.4v25.1z"/><path d="M265.1 215H39.4c-4.6 0-8.4-3.7-8.4-8.4V64.5c0-4.6 3.7-8.4 8.4-8.4h225.8c4.6 0 8.4 3.7 8.4 8.4v142.2c-.1 4.6-3.8 8.3-8.5 8.3z"/></g><path d="M265.1 56.1h-14.5l-77.5 50.7V56.1h-41.8v50.7L53.9 56.1H39.4c-4.6 0-8.4 3.7-8.4 8.4v6.6l66.5 43.5H31v41.8h66.5L31 200v6.6c0 4.6 3.7 8.4 8.4 8.4h14.5l77.5-50.7V215h41.8v-50.7l77.5 50.7h14.5c4.6 0 8.4-3.7 8.4-8.4V200L207 156.5h66.5v-41.8H207l66.5-43.5v-6.6c0-4.7-3.7-8.5-8.4-8.5z" fill="#f5f5f5"/><g fill="#ff4b55"><path d="M273.5 123H164.8V56.1h-25.1V123H31v25.1h108.7V215h25.1v-66.9h108.7z"/><path d="M123 114.7L35 57.5c-2.3 1.5-4 4-4 6.9v.4l76.6 49.7c0 .2 15.4.2 15.4.2zM188.5 114.7l83.7-54.3c-1.5-2.5-4-4.2-7.1-4.2h-1.8l-90.2 58.5h15.4zM115.8 156.5l-83.6 54.2c1.4 2.5 4 4.3 7.2 4.3H41l90.2-58.5h-15.4zM273.4 207.3l-78.3-50.8h-15.4l88.9 57.7c2.7-1.2 4.5-3.8 4.8-6.9z"/></g><path d="M394.9 339.5c-3.2 0-5.8-2.6-5.8-5.8V148.4h11.6v185.2c0 3.3-2.6 5.9-5.8 5.9z" fill="#965032"/><path fill="#73af00" d="M476 171.6l-11.6-5.8-42.6-5.3 26.3-33.9 4.1-12.3-12.2 4.1-34 26.3-5.3-42.6-5.8-11.6-5.8 11.6-5.3 42.6-33.9-26.3-12.3-4.1 4.1 12.3 26.4 33.9-42.6 5.3-11.6 5.8 11.6 5.8 42.6 5.3-26.4 33.9-4.1 12.3 12.3-4.1 36.8-28.7 8.2-12.9 8.2 12.9 36.9 28.7 12.2 4.1-4.1-12.3-26.3-33.9 42.6-5.3z"/><path d="M420.1 239c-5.2-5.2-16.3-3.3-22.3-1.8v-4.9c0-1.6-1.3-2.9-2.9-2.9s-2.9 1.3-2.9 2.9v4.9c-6-1.5-17.1-3.4-22.3 1.8-5 5-1.4 16.9 2 25.2v7.7c0 2.1 1.7 3.9 3.9 3.9h38.6c2.1 0 3.9-1.7 3.9-3.9v-7.7c3.4-8.3 7-20.2 2-25.2zm-4.1 4.1c2.2 2.2-.3 11.9-4.3 21.1h-14v-21c6.6-1.8 15.5-2.9 18.3-.1zm-42.2 0c2.8-2.8 11.7-1.7 18.2.1v21h-14c-3.9-9.2-6.4-18.9-4.2-21.1z" fill="#ffe15a"/><path d="M19.2 489.1C8.6 489.1 0 480.5 0 469.9V42c0-10.5 8.5-19 19-19h.2c10.6 0 19.2 8.6 19.2 19.2V470c0 10.5-8.6 19.1-19.2 19.1z" fill="#2e3033"/></svg>