<svg xmlns="http://www.w3.org/2000/svg" viewBox="0 0 512 512"><path d="M503.666 378.92H40.111a8.335 8.335 0 0 1-8.334-8.334V72.625a8.335 8.335 0 0 1 8.334-8.334h463.555A8.335 8.335 0 0 1 512 72.625v297.961a8.334 8.334 0 0 1-8.334 8.334z" fill="#82afff"/><path d="M263.555 221.606H40.111a8.334 8.334 0 0 1-8.334-8.334V72.625a8.335 8.335 0 0 1 8.334-8.334h223.443a8.335 8.335 0 0 1 8.334 8.334v140.647a8.332 8.332 0 0 1-8.333 8.334z" fill="#41479b"/><path d="M263.609 64.291h-14.382l-76.695 50.248V64.291h-41.399v50.248L54.439 64.291H40.057a8.28 8.28 0 0 0-8.28 8.28v6.567l65.8 43.11h-65.8v41.399h65.8l-65.8 43.11v6.568a8.28 8.28 0 0 0 8.28 8.28h14.382l76.695-50.248v50.248h41.399v-50.248l76.695 50.248h14.382a8.28 8.28 0 0 0 8.28-8.28v-6.568l-65.8-43.11h65.8v-41.399h-65.8l65.8-43.11v-6.567a8.281 8.281 0 0 0-8.281-8.28z" fill="#f5f5f5"/><g fill="#ff4b55"><path d="M271.889 130.529H164.253V64.291h-24.839v66.238H31.777v24.839h107.637v66.238h24.839v-66.238h107.636z"/><path d="M122.854 122.249L35.723 65.69c-2.319 1.467-3.946 3.934-3.946 6.881V73l75.869 49.249h15.208zM187.74 122.249l82.889-53.806c-1.441-2.438-3.983-4.152-7.02-4.152h-1.791l-89.286 57.958h15.208zM115.698 163.648L32.967 217.35c1.426 2.497 4.008 4.257 7.089 4.257h1.563l89.287-57.958-15.208-.001zM271.758 213.976l-77.535-50.328h-15.207l88.048 57.153c2.635-1.224 4.445-3.789 4.694-6.825z"/></g><g fill="#ffe15a"><path d="M236.872 312.926l-4.433 13.29-14.009.108c-1.344.01-1.9 1.725-.82 2.523l11.27 8.322-4.226 13.357c-.405 1.281 1.053 2.341 2.146 1.56l11.398-8.146 11.398 8.146c1.093.781 2.551-.278 2.146-1.56l-4.224-13.358 11.27-8.322c1.08-.798.524-2.513-.82-2.523l-14.009-.108-4.433-13.29c-.427-1.274-2.229-1.274-2.654.001zM452.662 209.429l-4.433 13.29-14.009.108c-1.344.01-1.9 1.725-.82 2.523l11.27 8.322-4.226 13.357c-.405 1.281 1.053 2.341 2.146 1.559l11.398-8.146 11.398 8.146c1.093.781 2.551-.278 2.146-1.559l-4.226-13.357 11.27-8.322c1.081-.798.524-2.513-.82-2.523l-14.009-.108-4.433-13.29c-.424-1.275-2.227-1.275-2.652 0zM452.662 97.653l-4.433 13.29-14.009.108c-1.344.01-1.9 1.725-.82 2.523l11.27 8.322-4.226 13.357c-.405 1.281 1.053 2.341 2.146 1.559l11.398-8.146 11.398 8.146c1.093.781 2.551-.278 2.146-1.559l-4.226-13.357 11.27-8.322c1.081-.798.524-2.513-.82-2.523l-14.009-.108-4.433-13.29c-.424-1.274-2.227-1.274-2.652 0zM292.347 243.005l4.376 13.309-11.176 8.448c-1.072.81-.495 2.518.848 2.514l14.009-.049 4.582 13.239c.44 1.27 2.242 1.249 2.652-.03l4.283-13.339 14.007-.267c1.343-.026 1.881-1.746.792-2.532l-11.363-8.195 4.075-13.404c.391-1.285-1.079-2.328-2.164-1.534l-11.305 8.275-11.488-8.018c-1.101-.769-2.548.307-2.128 1.583zM291.311 300.446l4.376 13.309-11.176 8.448c-1.072.81-.495 2.518.848 2.514l14.009-.049 4.582 13.239c.44 1.27 2.242 1.249 2.652-.03l4.283-13.339 14.007-.267c1.343-.026 1.881-1.746.792-2.532l-11.363-8.195 4.075-13.404c.391-1.286-1.079-2.328-2.164-1.536l-11.305 8.275-11.488-8.018c-1.101-.768-2.547.309-2.128 1.585zM351.857 285.956l4.376 13.309-11.176 8.448c-1.072.81-.495 2.518.848 2.514l14.009-.049 4.582 13.239c.44 1.27 2.242 1.249 2.652-.03l4.283-13.339 14.007-.266c1.343-.026 1.881-1.746.792-2.532l-11.363-8.195 4.075-13.404c.391-1.286-1.079-2.328-2.164-1.534l-11.305 8.275-11.488-8.018c-1.101-.77-2.548.306-2.128 1.582zM350.823 160.726l4.376 13.309-11.176 8.448c-1.072.81-.495 2.518.848 2.514l14.009-.049 4.582 13.239c.44 1.27 2.242 1.249 2.652-.03l4.283-13.339 14.007-.267c1.343-.026 1.881-1.746.792-2.532l-11.363-8.195 4.075-13.404c.391-1.285-1.079-2.328-2.164-1.534l-11.305 8.275-11.488-8.018c-1.102-.769-2.548.307-2.128 1.583zM402.053 143.649l4.376 13.309-11.176 8.448c-1.072.81-.495 2.518.848 2.514l14.009-.049 4.582 13.239c.44 1.27 2.242 1.249 2.652-.03l4.283-13.339 14.007-.267c1.343-.026 1.881-1.746.792-2.532l-11.363-8.195 4.075-13.404c.391-1.285-1.079-2.328-2.164-1.534l-11.305 8.275-11.488-8.018c-1.102-.77-2.548.307-2.128 1.583z"/></g><path d="M18.881 485.182C8.454 485.182 0 476.729 0 466.302V45.545c0-10.342 8.384-18.727 18.726-18.727h.155c10.428 0 18.881 8.454 18.881 18.881V466.3c.001 10.429-8.453 18.882-18.881 18.882z" fill="#2e3033"/></svg>