<svg xmlns="http://www.w3.org/2000/svg" viewBox="0 0 512 512"><path d="M26.68 268.348H512v97.536a8.454 8.454 0 0 1-8.453 8.453H35.133a8.454 8.454 0 0 1-8.453-8.453v-97.536z" fill="#f5f5f5"/><path d="M35.133 56.368h468.414A8.454 8.454 0 0 1 512 64.821v97.536H26.68V64.821a8.454 8.454 0 0 1 8.453-8.453z" fill="#ff4b55"/><path fill="#41479b" d="M26.68 162.357H512v105.99H26.68z"/><path fill="#ffe15a" d="M190.685 162.337h-60.246l-2.511-15.062h65.268z"/><path fill="#ffd350" d="M129.811 158.57l.628 3.767h60.246l.628-3.767z"/><g fill="#ffe15a"><path d="M159.31 112.127h2.511v10.04h-2.511z"/><path d="M156.79 114.647h7.531v2.511h-7.531zM190.882 152.296a2.51 2.51 0 0 1-2.36-3.366l5.317-14.675a2.666 2.666 0 0 0-.17-2.199c-.198-.355-.659-.981-1.54-1.17-6.482-1.378-19.049-3.694-30.355-3.694h-2.425c-11.306 0-23.873 2.317-30.357 3.697-.878.186-1.34.811-1.537 1.167a2.658 2.658 0 0 0-.169 2.199l5.316 14.675a2.51 2.51 0 0 1-1.504 3.216 2.516 2.516 0 0 1-3.215-1.505l-5.317-14.675a7.676 7.676 0 0 1 .499-6.344 7.342 7.342 0 0 1 4.881-3.643c6.679-1.422 19.639-3.807 31.404-3.807h2.425c11.766 0 24.725 2.385 31.402 3.805a7.356 7.356 0 0 1 4.884 3.645 7.68 7.68 0 0 1 .5 6.344l-5.318 14.675a2.519 2.519 0 0 1-2.361 1.655z"/><path d="M160.571 150.098a2.51 2.51 0 0 1-2.511-2.511v-20.396a2.51 2.51 0 1 1 5.022 0v20.396a2.51 2.51 0 0 1-2.511 2.511z"/><path d="M177.924 152.296a2.508 2.508 0 0 1-2.459-3.02l3.045-14.675c.396-1.913-.224-3.586-.576-3.881-3.481-1.277-10.464-3.528-16.677-3.528h-1.388c-6.213 0-13.196 2.251-16.806 3.594-.223.228-.843 1.902-.447 3.814l3.044 14.675a2.51 2.51 0 0 1-1.947 2.968c-1.359.262-2.688-.591-2.967-1.948l-3.045-14.675c-.759-3.657.406-8.342 3.609-9.538 4.798-1.785 11.91-3.911 18.559-3.911h1.388c6.648 0 13.76 2.125 18.556 3.907 3.207 1.198 4.371 5.883 3.613 9.541l-3.045 14.675a2.515 2.515 0 0 1-2.457 2.002z"/></g><path fill="#ffd350" d="M128.556 151.04h64.012l.628-3.765h-65.268z"/><path d="M112.866 162.337a2.511 2.511 0 0 0-2.511 2.511v87.666c0 27.835 22.478 50.398 50.205 50.398s50.205-22.565 50.205-50.398v-87.666a2.511 2.511 0 0 0-2.511-2.511h-95.388z" fill="#ff4b55"/><path d="M165.582 245.175l5.02-12.552-10.041 2.511-10.041-2.511 5.02 12.552-12.552 42.674s7.531 5.02 17.572 5.02 17.572-5.02 17.572-5.02l-12.55-42.674z" fill="#f5f5f5"/><path fill="#ffe15a" d="M142.381 255.294l-4.43 1.106 9.743-17.537-4.389-2.437-11.833 21.301h-11.075v5.02h5.395l-6.963 5.571 3.135 3.922 5.914-4.731-2.332 6.996 4.764 1.589 4.585-13.757 8.704-2.176z"/><path d="M142.989 187.439l-11.459-5.73a5.021 5.021 0 0 1-2.626-5.708l.648-2.592a2.85 2.85 0 0 0-4.99-2.473 41.916 41.916 0 0 0-9.185 26.186v53.074s10.483-2.096 19.951-15.87c1.738-2.529 4.601-4.026 7.651-4.182l-5.011 15.031 10.041 2.511 8.786-10.455-13.806-49.792z" fill="#f5f5f5"/><path fill="#ffe15a" d="M178.743 255.294l4.428 1.106-9.742-17.537 4.388-2.437 11.834 21.301h11.075v5.02h-5.395l6.962 5.571-3.135 3.922-5.914-4.731 2.333 6.996-4.763 1.589-4.585-13.757-8.704-2.176z"/><path d="M178.133 187.439l11.459-5.73a5.021 5.021 0 0 0 2.626-5.708l-.648-2.592a2.85 2.85 0 0 1 4.991-2.473 41.916 41.916 0 0 1 9.185 26.186v53.074s-10.483-2.096-19.951-15.87c-1.738-2.529-4.601-4.026-7.651-4.182l5.011 15.031-10.041 2.511-8.786-10.455 13.805-49.792z" fill="#f5f5f5"/><g fill="#ffe15a"><path d="M145.5 169.867h-12.552l3.766 5.022 8.786 2.508-5.021 2.511h7.532zM175.624 169.867h12.55l-3.764 5.022-8.786 2.508 5.02 2.511h-7.531z"/></g><path d="M177.39 167.899l-11.808 1.967-5.02 10.041-5.02-10.041-11.808-1.967c-1.354-.226-2.392 1.179-1.778 2.408l6.056 12.111-5.02 5.02h35.144l-5.02-5.02 6.056-12.111c.611-1.228-.428-2.634-1.782-2.408z" fill="#f5f5f5"/><path d="M164.257 147.635a3.772 3.772 0 0 1-4.433 4.433 3.77 3.77 0 0 1-2.959-2.959 3.772 3.772 0 0 1 4.433-4.433c1.474.282 2.679 1.486 2.959 2.959z" fill="#ffbe50"/><ellipse cx="160.51" cy="157.367" rx="2.977" ry="2.092" fill="#41479b"/><ellipse cx="145.66" cy="157.367" rx="2.977" ry="2.092" fill="#ff4b55"/><g fill="#41479b"><ellipse cx="130.8" cy="157.367" rx="2.975" ry="2.092"/><ellipse cx="190.22" cy="157.367" rx="2.977" ry="2.092"/></g><ellipse cx="175.36" cy="157.367" rx="2.977" ry="2.092" fill="#ff4b55"/><g fill="#ffbe50"><path d="M181.699 147.635a3.772 3.772 0 0 1-4.433 4.433c-1.474-.279-2.679-1.485-2.959-2.959a3.772 3.772 0 0 1 4.433-4.433c1.475.282 2.68 1.486 2.959 2.959zM195.472 147.635a3.772 3.772 0 0 1-4.433 4.433c-1.474-.279-2.679-1.485-2.959-2.959a3.772 3.772 0 0 1 4.433-4.433c1.474.282 2.68 1.486 2.959 2.959zM139.438 147.635a3.772 3.772 0 0 0 4.433 4.433c1.474-.279 2.679-1.485 2.959-2.959a3.772 3.772 0 0 0-4.433-4.433c-1.473.282-2.679 1.486-2.959 2.959zM125.666 147.635a3.772 3.772 0 0 0 4.433 4.433c1.474-.279 2.679-1.485 2.959-2.959a3.772 3.772 0 0 0-4.433-4.433c-1.473.282-2.679 1.486-2.959 2.959z"/></g><path d="M164.886 127.192a4.972 4.972 0 0 0 .696-2.511 5.02 5.02 0 1 0-10.04 0c0 .919.265 1.769.696 2.511h8.648z" fill="#41479b"/><path d="M160.561 238.9c-10.381 0-18.827-8.446-18.827-18.827v-33.888h37.654v33.888c.001 10.381-8.444 18.827-18.827 18.827z" fill="#ff4b55"/><path d="M178.133 187.439v32.633c0 9.704-7.868 17.572-17.572 17.572-9.705 0-17.572-7.868-17.572-17.572v-32.633h35.144m2.511-2.509H140.478V220.074c0 11.074 9.009 20.082 20.082 20.082 11.074 0 20.082-9.009 20.082-20.082v-32.633l.002-2.511z" fill="#a54b50"/><g fill="#f5f5f5"><path d="M156.797 237.23c1.214.265 2.471.414 3.766.414s2.551-.149 3.766-.414v-49.791h-7.531v49.791h-.001z"/><path d="M142.98 208.147h35.14v7.531h-35.14z"/></g><path d="M19.152 488.46C8.575 488.46 0 479.884 0 469.307V42.534C0 32.044 8.504 23.54 18.994 23.54h.157c10.577 0 19.152 8.575 19.152 19.152V469.31c0 10.574-8.575 19.15-19.151 19.15z" fill="#2e3033"/></svg>