<svg xmlns="http://www.w3.org/2000/svg" viewBox="0 0 512.001 512.001"><g fill="#73af00"><path d="M512 128.192H35.41V74.013a8.27 8.27 0 0 1 8.271-8.271H503.73a8.27 8.27 0 0 1 8.271 8.271v54.179H512zM35.41 190.641H512v62.45H35.41z"/></g><path fill="#ffe15a" d="M35.41 128.191H512v62.45H35.41z"/><path d="M503.729 377.99H43.68a8.27 8.27 0 0 1-8.271-8.271V315.54H512v54.179a8.27 8.27 0 0 1-8.271 8.271z" fill="#73af00"/><path fill="#ffe15a" d="M35.41 253.091H512v62.45H35.41z"/><path d="M216.131 253.091H43.68a8.27 8.27 0 0 1-8.271-8.271V74.013a8.27 8.27 0 0 1 8.271-8.271h172.45a8.27 8.27 0 0 1 8.271 8.271v170.808a8.27 8.27 0 0 1-8.27 8.27z" fill="#ff4b55"/><path d="M127.875 109.828l-11.876 35.606-37.534.292c-2.057.016-2.911 2.641-1.256 3.865l30.195 22.297-11.322 35.787c-.62 1.962 1.613 3.584 3.288 2.388l30.536-21.826 30.536 21.826c1.674 1.196 3.908-.426 3.288-2.388l-11.322-35.787 30.195-22.297c1.655-1.222.802-3.848-1.256-3.865l-37.533-.291-11.875-35.607c-.653-1.953-3.414-1.953-4.064 0z" fill="#f5f5f5"/><path d="M18.739 483.449C8.39 483.449 0 475.059 0 464.71V47.138c0-10.264 8.32-18.585 18.585-18.585h.154c10.349 0 18.739 8.39 18.739 18.739v417.42c-.001 10.347-8.39 18.737-18.739 18.737z" fill="#2e3033"/></svg>