<svg xmlns="http://www.w3.org/2000/svg" viewBox="0 0 512.001 512.001"><path d="M503.632 56.369H35.048a8.368 8.368 0 0 0-8.368 8.368V365.97a8.368 8.368 0 0 0 8.368 8.368h468.585a8.368 8.368 0 0 0 8.368-8.368V64.736a8.37 8.37 0 0 0-8.369-8.367z" fill="#82c3d2"/><g fill="#ffe15a"><path d="M83.094 94.447c-.758-3.207-.946-4.388.492-5.827a1.795 1.795 0 1 0-2.54-2.54c-2.912 2.912-2.218 5.936-1.463 9.136-2.296-.75-4.676-.193-5.953 1.416-.633.803-1.858 3.056.436 6.652a1.8 1.8 0 0 0 2.48.551 1.795 1.795 0 0 0 .547-2.48c-.861-1.355-.885-2.189-.646-2.495.284-.361 1.167-.551 2.089-.225.596.207 1.982.922 1.982 3.083a5.344 5.344 0 0 1-2.189 4.336c-1.395 1.031-3.199 1.323-4.94.782-2.149-.656-3.649-2.918-3.649-5.504 0-1.849.396-3.718 1.124-5.357.116-.242 2.86-5.929 3.567-8.047 1.398-4.192-.023-6.301-.993-7.181-1.298-1.182-3.194-1.477-4.827-.761-.247.11-.453.269-.668.417-.216-.148-.421-.307-.668-.417-1.631-.715-3.527-.421-4.827.761-.97.88-2.391 2.989-.993 7.181.707 2.119 3.452 7.805 3.543 7.995a13.412 13.412 0 0 1 1.149 5.409c0 2.586-1.499 4.848-3.649 5.504-1.746.54-3.545.253-4.94-.782a5.345 5.345 0 0 1-2.189-4.336c0-2.161 1.385-2.876 1.982-3.083.926-.326 1.804-.136 2.089.225.24.305.216 1.14-.646 2.495a1.795 1.795 0 1 0 3.027 1.929c2.294-3.596 1.07-5.848.436-6.652-1.276-1.61-3.657-2.166-5.953-1.416.754-3.2 1.449-6.224-1.463-9.136a1.795 1.795 0 1 0-2.54 2.54c1.438 1.438 1.251 2.62.492 5.827-.454 1.922-1.02 4.318-1.02 7.272 0 1.966.691 3.845 1.854 5.389h-.058c-.993 0-1.796.803-1.796 1.796s.803 1.796 1.796 1.796h.058c-1.163 1.544-1.854 3.422-1.854 5.388 0 2.954.565 5.35 1.02 7.272.758 3.207.946 4.388-.492 5.827a1.795 1.795 0 1 0 2.54 2.54c2.912-2.912 2.218-5.936 1.463-9.136 2.296.747 4.676.194 5.953-1.416.633-.803 1.858-3.056-.436-6.652a1.795 1.795 0 0 0-3.027 1.929c.861 1.355.885 2.189.646 2.495-.286.358-1.163.547-2.089.225-.596-.207-1.982-.922-1.982-3.083 0-1.725.798-3.308 2.189-4.336 1.395-1.031 3.197-1.326 4.94-.782 2.149.656 3.649 2.918 3.649 5.504 0 1.849-.396 3.718-1.149 5.409l-11.762 26.465a16.803 16.803 0 0 0-1.458 6.869c0 3.064 1.394 5.863 3.586 7.571-2.193 1.708-3.586 4.507-3.586 7.571 0 2.382.491 4.694 1.458 6.869L65 203.693a13.413 13.413 0 0 1 1.149 5.41c0 2.586-1.499 4.848-3.649 5.504-1.746.544-3.545.253-4.94-.782a5.344 5.344 0 0 1-2.189-4.335c0-2.161 1.385-2.877 1.982-3.083.926-.322 1.804-.137 2.089.224.24.305.216 1.14-.646 2.495a1.795 1.795 0 1 0 3.027 1.929c2.294-3.596 1.07-5.848.436-6.652-1.276-1.61-3.657-2.164-5.953-1.416.754-3.199 1.449-6.224-1.463-9.136a1.795 1.795 0 1 0-2.54 2.54c1.438 1.438 1.251 2.62.492 5.827-.454 1.922-1.02 4.318-1.02 7.272 0 1.965.691 3.845 1.854 5.388h-.058a1.795 1.795 0 1 0 0 3.592h.058c-1.163 1.544-1.854 3.422-1.854 5.389 0 2.953.565 5.35 1.02 7.272.758 3.207.946 4.388-.492 5.827a1.795 1.795 0 1 0 2.54 2.54c2.912-2.912 2.218-5.936 1.463-9.136 2.296.747 4.676.193 5.953-1.416.633-.803 1.858-3.056-.436-6.652a1.795 1.795 0 0 0-3.027 1.929c.861 1.354.885 2.189.646 2.495-.286.361-1.163.551-2.089.224-.596-.207-1.982-.922-1.982-3.083 0-1.725.798-3.308 2.189-4.336 1.395-1.031 3.197-1.326 4.94-.782 2.149.656 3.649 2.918 3.649 5.504a13.4 13.4 0 0 1-1.149 5.41L53.238 256.12a16.803 16.803 0 0 0-1.458 6.869c0 3.064 1.394 5.863 3.586 7.571-2.193 1.708-3.586 4.507-3.586 7.571 0 2.382.491 4.694 1.458 6.869L65 311.466a13.413 13.413 0 0 1 1.149 5.41c0 2.586-1.499 4.848-3.649 5.504-1.746.544-3.545.249-4.94-.782a5.344 5.344 0 0 1-2.189-4.335c0-2.161 1.385-2.876 1.982-3.083.926-.323 1.804-.137 2.089.224.24.305.216 1.14-.646 2.495a1.795 1.795 0 1 0 3.027 1.929c2.294-3.596 1.07-5.847.436-6.652-1.276-1.613-3.657-2.167-5.953-1.416.754-3.2 1.449-6.224-1.463-9.136a1.795 1.795 0 1 0-2.54 2.54c1.438 1.438 1.251 2.62.492 5.827-.454 1.922-1.02 4.318-1.02 7.272a9.014 9.014 0 0 0 3.604 7.184 9.017 9.017 0 0 0-3.604 7.184c0 2.954.565 5.35 1.02 7.272.758 3.206.946 4.388-.492 5.827a1.795 1.795 0 1 0 2.54 2.54c2.912-2.913 2.218-5.936 1.463-9.136 2.296.747 4.676.193 5.953-1.417.633-.803 1.858-3.056-.436-6.652a1.795 1.795 0 0 0-3.027 1.929c.861 1.354.885 2.189.646 2.495-.286.361-1.163.547-2.089.224-.596-.207-1.982-.922-1.982-3.083 0-1.725.798-3.308 2.189-4.335 1.395-1.031 3.197-1.323 4.94-.782 2.149.656 3.649 2.918 3.649 5.504 0 1.849-.396 3.718-1.124 5.357-.116.242-2.861 5.929-3.567 8.047-1.398 4.192.023 6.301.993 7.181a4.436 4.436 0 0 0 2.989 1.151c.619 0 1.247-.13 1.839-.389.247-.11.453-.269.668-.417.216.148.421.307.668.417.591.26 1.219.389 1.839.389a4.437 4.437 0 0 0 2.989-1.151c.97-.88 2.391-2.989.993-7.181-.707-2.119-3.452-7.805-3.543-7.995a13.413 13.413 0 0 1-1.149-5.41c0-2.586 1.499-4.848 3.649-5.504 1.747-.54 3.545-.249 4.94.782a5.344 5.344 0 0 1 2.189 4.335c0 2.161-1.385 2.876-1.982 3.083-.922.323-1.805.136-2.089-.224-.24-.305-.216-1.14.646-2.495a1.795 1.795 0 0 0-.547-2.48 1.807 1.807 0 0 0-2.48.551c-2.294 3.596-1.07 5.847-.436 6.652 1.276 1.61 3.657 2.164 5.953 1.417-.754 3.2-1.449 6.224 1.463 9.136.351.351.81.526 1.27.526s.919-.175 1.27-.526a1.795 1.795 0 0 0 0-2.54c-1.438-1.438-1.251-2.62-.492-5.827.454-1.922 1.02-4.318 1.02-7.272a9.014 9.014 0 0 0-3.604-7.184 9.017 9.017 0 0 0 3.604-7.184c0-2.954-.565-5.35-1.02-7.272-.758-3.206-.946-4.388.492-5.827a1.795 1.795 0 1 0-2.54-2.54c-2.912 2.913-2.218 5.936-1.463 9.136-2.296-.75-4.676-.198-5.953 1.416-.633.803-1.858 3.056.436 6.652a1.795 1.795 0 0 0 3.027-1.929c-.861-1.354-.885-2.189-.646-2.495.284-.361 1.167-.547 2.089-.224.596.207 1.982.922 1.982 3.083a5.343 5.343 0 0 1-2.189 4.335c-1.395 1.031-3.199 1.326-4.94.782-2.149-.656-3.649-2.918-3.649-5.504a13.4 13.4 0 0 1 1.149-5.41L82.655 285a16.81 16.81 0 0 0 1.458-6.869c0-3.064-1.394-5.862-3.586-7.571 2.193-1.708 3.586-4.507 3.586-7.571 0-2.382-.491-4.694-1.458-6.869l-11.762-26.465a13.413 13.413 0 0 1-1.149-5.41c0-2.586 1.499-4.848 3.649-5.504 1.747-.54 3.545-.249 4.94.782a5.345 5.345 0 0 1 2.189 4.336c0 2.161-1.385 2.876-1.982 3.083-.922.327-1.805.137-2.089-.224-.24-.305-.216-1.14.646-2.495a1.795 1.795 0 0 0-.547-2.48 1.807 1.807 0 0 0-2.48.551c-2.294 3.596-1.07 5.848-.436 6.652 1.276 1.61 3.657 2.164 5.953 1.416-.754 3.2-1.449 6.224 1.463 9.136.351.351.81.526 1.27.526s.919-.175 1.27-.526a1.795 1.795 0 0 0 0-2.54c-1.438-1.438-1.251-2.62-.492-5.827.454-1.922 1.02-4.318 1.02-7.272 0-1.965-.691-3.845-1.854-5.389h.058c.993 0 1.796-.803 1.796-1.796s-.803-1.796-1.796-1.796h-.06c1.163-1.544 1.854-3.422 1.854-5.388 0-2.954-.565-5.35-1.02-7.272-.758-3.207-.946-4.388.492-5.827a1.795 1.795 0 1 0-2.54-2.54c-2.912 2.912-2.218 5.936-1.463 9.136-2.296-.747-4.676-.194-5.953 1.416-.633.803-1.858 3.056.436 6.652a1.803 1.803 0 0 0 2.48.551 1.795 1.795 0 0 0 .547-2.48c-.861-1.355-.885-2.189-.646-2.495.284-.361 1.167-.547 2.089-.224.596.207 1.982.922 1.982 3.083a5.343 5.343 0 0 1-2.189 4.335c-1.395 1.031-3.199 1.323-4.94.782-2.149-.656-3.649-2.918-3.649-5.504a13.4 13.4 0 0 1 1.149-5.41l11.762-26.465a16.803 16.803 0 0 0 1.458-6.869c0-3.064-1.394-5.863-3.586-7.571 2.193-1.708 3.586-4.507 3.586-7.571 0-2.382-.491-4.694-1.458-6.869L70.89 121.884a13.412 13.412 0 0 1-1.149-5.409c0-2.586 1.499-4.848 3.649-5.504 1.747-.54 3.545-.249 4.94.782a5.345 5.345 0 0 1 2.189 4.336c0 2.161-1.385 2.877-1.982 3.083-.922.322-1.805.133-2.089-.225-.24-.305-.216-1.14.646-2.495a1.795 1.795 0 0 0-.547-2.48 1.804 1.804 0 0 0-2.48.551c-2.294 3.596-1.07 5.848-.436 6.652 1.276 1.61 3.657 2.164 5.953 1.416-.754 3.2-1.449 6.224 1.463 9.136.351.351.81.526 1.27.526s.919-.175 1.27-.526a1.795 1.795 0 0 0 0-2.54c-1.438-1.438-1.251-2.62-.492-5.827.454-1.922 1.02-4.318 1.02-7.272 0-1.965-.691-3.845-1.854-5.388h.058a1.795 1.795 0 1 0 0-3.592h-.058c1.163-1.544 1.854-3.422 1.854-5.389-.001-2.954-.567-5.35-1.021-7.272zm-18.228-7.654c-.638-1.916-.416-3.006.005-3.389.276-.26.693-.249.956-.13.324.144.324.372.324.484 0 .993.803 1.796 1.796 1.796s1.796-.803 1.796-1.796c0-.112 0-.34.324-.484.26-.119.674-.13.956.13.421.383.643 1.473.005 3.389-.465 1.389-2.145 5.003-3.081 6.966-.914-1.917-2.613-5.568-3.081-6.966zm3.082 74.11c.516.701 1.099 1.352 1.808 1.884-.709.532-1.292 1.182-1.808 1.884-.516-.702-1.099-1.352-1.808-1.884.709-.531 1.292-1.182 1.808-1.884zm0 107.768c.516.702 1.099 1.353 1.808 1.884-.709.531-1.292 1.182-1.808 1.884-.516-.702-1.099-1.353-1.808-1.884.709-.532 1.292-1.183 1.808-1.884zm3.082 77.879c.638 1.916.415 3.006-.005 3.389-.282.256-.696.245-.956.13-.324-.144-.324-.372-.324-.484 0-.993-.803-1.796-1.796-1.796s-1.796.803-1.796 1.796c0 .112 0 .34-.324.484-.263.116-.68.127-.956-.13-.421-.383-.643-1.474-.005-3.389.465-1.389 2.145-5.003 3.081-6.966.914 1.916 2.613 5.567 3.081 6.966zm-1.292-22.111a8.897 8.897 0 0 0-1.79 1.878 8.945 8.945 0 0 0-1.79-1.878 8.872 8.872 0 0 0 1.79-1.878 8.897 8.897 0 0 0 1.79 1.878zm9.634-40.905l-11.424 25.703-11.424-25.703a13.413 13.413 0 0 1-1.149-5.41c0-2.586 1.499-4.848 3.649-5.504 1.746-.54 3.547-.249 4.94.782a5.344 5.344 0 0 1 2.189 4.335c0 2.161-1.385 2.877-1.982 3.083-.927.323-1.807.137-2.089-.224-.241-.305-.216-1.14.646-2.495a1.795 1.795 0 0 0-.547-2.48 1.807 1.807 0 0 0-2.48.551c-2.294 3.596-1.07 5.847-.436 6.652 1.3 1.642 3.747 2.206 6.086 1.389.267-.093.537-.207.803-.342v4.542l-.003-.003a1.797 1.797 0 0 0-3.589.103c0 1.172.82 3.204 3.593 3.833v3.351c0 .993.803 1.796 1.796 1.796s1.796-.803 1.796-1.796v-3.351c2.773-.63 3.593-2.662 3.593-3.833 0-.993-.802-1.855-1.793-1.855-.992 0-1.793.744-1.793 1.736-.001.003-.006.007-.007.011v-4.535c.267.135.537.249.803.342 2.34.818 4.786.253 6.086-1.389.633-.803 1.858-3.056-.436-6.652a1.8 1.8 0 0 0-2.48-.551 1.795 1.795 0 0 0-.547 2.48c.861 1.355.885 2.189.646 2.495-.284.361-1.164.547-2.089.224-.596-.207-1.982-.922-1.982-3.083 0-1.725.798-3.308 2.189-4.335 1.395-1.031 3.2-1.326 4.94-.782 2.149.656 3.649 2.918 3.649 5.504a13.476 13.476 0 0 1-1.154 5.411zm0-25.958a13.413 13.413 0 0 1 1.149 5.41c0 2.586-1.499 4.848-3.649 5.504-1.743.544-3.546.249-4.94-.782a5.345 5.345 0 0 1-2.189-4.336c0-2.161 1.386-2.876 1.982-3.083.925-.322 1.805-.137 2.089.224.241.305.216 1.14-.646 2.495a1.795 1.795 0 1 0 3.027 1.929c2.294-3.596 1.07-5.849.436-6.652-1.302-1.642-3.747-2.2-6.086-1.389a6.512 6.512 0 0 0-.803.342v-4.542l.003.005a1.795 1.795 0 0 0 3.588-.105c0-1.172-.82-3.204-3.593-3.833v-3.351c0-.993-.803-1.796-1.796-1.796s-1.796.803-1.796 1.796v3.351c-2.773.63-3.593 2.662-3.593 3.833 0 .993.802 1.855 1.793 1.855.992 0 1.792-.744 1.792-1.736a.023.023 0 0 1 .006-.007l.001 4.531a6.362 6.362 0 0 0-.803-.342c-2.339-.81-4.787-.253-6.086 1.389-.633.803-1.858 3.056.436 6.652a1.804 1.804 0 0 0 2.48.551 1.795 1.795 0 0 0 .547-2.48c-.861-1.354-.885-2.189-.646-2.495.282-.361 1.162-.547 2.089-.224.596.207 1.982.922 1.982 3.083a5.346 5.346 0 0 1-2.189 4.336c-1.395 1.031-3.196 1.326-4.94.782-2.149-.656-3.649-2.918-3.649-5.504a13.4 13.4 0 0 1 1.149-5.41l11.424-25.703 11.431 25.702zm-9.634-40.905a8.897 8.897 0 0 0-1.79 1.878 8.945 8.945 0 0 0-1.79-1.878 8.872 8.872 0 0 0 1.79-1.878 8.897 8.897 0 0 0 1.79 1.878zm9.634-40.904L67.948 201.47l-11.424-25.703a13.412 13.412 0 0 1-1.149-5.409c0-2.586 1.499-4.848 3.649-5.504 1.746-.54 3.547-.249 4.94.782a5.345 5.345 0 0 1 2.189 4.336c0 2.161-1.385 2.876-1.982 3.083-.927.327-1.807.136-2.089-.225-.241-.305-.216-1.14.646-2.495a1.795 1.795 0 0 0-.547-2.48 1.802 1.802 0 0 0-2.48.551c-2.294 3.596-1.07 5.848-.436 6.652 1.3 1.642 3.747 2.203 6.086 1.389.267-.093.537-.207.803-.342v4.542l-.003-.005a1.795 1.795 0 0 0-3.588.105c0 1.172.82 3.204 3.593 3.833v3.351c0 .993.803 1.796 1.796 1.796s1.796-.803 1.796-1.796v-3.351c2.773-.63 3.593-2.662 3.593-3.833 0-.992-.802-1.855-1.793-1.855-.992 0-1.793.744-1.793 1.736a.023.023 0 0 1-.006.007l-.001-4.531c.267.135.537.249.803.342 2.34.814 4.786.253 6.086-1.389.633-.803 1.858-3.056-.436-6.652a1.794 1.794 0 1 0-3.027 1.929c.861 1.355.885 2.189.646 2.495-.284.361-1.164.551-2.089.225-.596-.207-1.982-.922-1.982-3.083 0-1.725.798-3.308 2.189-4.336 1.395-1.031 3.199-1.323 4.94-.782 2.149.656 3.649 2.918 3.649 5.504a13.5 13.5 0 0 1-1.155 5.41zm0-25.96a13.412 13.412 0 0 1 1.149 5.409c0 2.586-1.499 4.848-3.649 5.504-1.743.544-3.546.249-4.94-.782a5.345 5.345 0 0 1-2.189-4.336c0-2.161 1.386-2.876 1.982-3.083.925-.322 1.805-.137 2.089.225.241.305.216 1.14-.646 2.494a1.795 1.795 0 1 0 3.027 1.929c2.294-3.596 1.07-5.848.436-6.652-1.302-1.642-3.747-2.203-6.086-1.389a6.512 6.512 0 0 0-.803.342v-4.542l.003.003a1.797 1.797 0 0 0 3.589-.103c0-1.172-.82-3.204-3.593-3.833v-3.351c0-.993-.803-1.796-1.796-1.796s-1.796.803-1.796 1.796v3.351c-2.773.63-3.593 2.662-3.593 3.833 0 .993.802 1.855 1.793 1.855.992 0 1.792-.744 1.792-1.736.001-.003.006-.007.007-.011v4.535a6.362 6.362 0 0 0-.803-.342c-2.339-.814-4.787-.253-6.086 1.389-.633.803-1.858 3.056.436 6.652a1.804 1.804 0 0 0 2.48.551 1.795 1.795 0 0 0 .547-2.48c-.861-1.354-.885-2.189-.646-2.494.282-.361 1.162-.547 2.089-.225.596.207 1.982.922 1.982 3.083a5.346 5.346 0 0 1-2.189 4.336c-1.395 1.031-3.196 1.326-4.94.782-2.149-.656-3.649-2.918-3.649-5.504 0-1.849.396-3.718 1.149-5.409l11.424-25.703 11.43 25.702zm-13.214-40.903a8.872 8.872 0 0 0 1.79-1.878 8.945 8.945 0 0 0 1.79 1.878 8.897 8.897 0 0 0-1.79 1.878 8.825 8.825 0 0 0-1.79-1.878zM326.495 193.231c1.3 25.653-19.773 46.726-45.425 45.425-21.965-1.113-39.813-18.96-40.926-40.926-1.3-25.653 19.773-46.726 45.425-45.425 21.964 1.113 39.812 18.961 40.926 40.926zM286.561 140.359a3.243 3.243 0 0 1-6.486 0c0-1.791 3.243-9.727 3.243-9.727s3.243 7.936 3.243 9.727zM280.077 250.602a3.243 3.243 0 0 1 6.486 0c0 1.791-3.243 9.727-3.243 9.727s-3.243-7.937-3.243-9.727zM338.44 198.722a3.243 3.243 0 0 1 0-6.486c1.791 0 9.727 3.243 9.727 3.243s-7.936 3.243-9.727 3.243zM228.197 192.238a3.243 3.243 0 0 1 0 6.486c-1.791 0-9.727-3.243-9.727-3.243s7.937-3.243 9.727-3.243zM324.588 158.796a3.243 3.243 0 0 1-4.586-4.586c1.266-1.266 9.171-4.586 9.171-4.586s-3.319 7.906-4.585 9.172zM242.049 232.165a3.243 3.243 0 0 1 4.586 4.586c-1.266 1.266-9.172 4.586-9.172 4.586s3.32-7.906 4.586-9.172zM320.003 236.75a3.243 3.243 0 0 1 4.586-4.586c1.266 1.266 4.586 9.171 4.586 9.171s-7.907-3.318-9.172-4.585zM246.635 154.21a3.243 3.243 0 0 1-4.586 4.586c-1.266-1.266-4.586-9.171-4.586-9.171s7.905 3.32 9.172 4.585zM265.22 143.314a3.242 3.242 0 1 1-5.991 2.481c-.685-1.655-.727-10.227-.727-10.227s6.032 6.092 6.718 7.746zM301.417 247.647a3.24 3.24 0 0 1 1.755-4.236c1.655-.686 3.551.1 4.236 1.755s.727 10.228.727 10.228-6.033-6.093-6.718-7.747zM335.486 177.381a3.24 3.24 0 0 1-4.236-1.755 3.24 3.24 0 0 1 1.755-4.236c1.655-.686 10.228-.727 10.228-.727s-6.094 6.034-7.747 6.718zM231.152 213.579a3.242 3.242 0 1 1 2.481 5.991c-1.655.686-10.227.727-10.227.727s6.091-6.033 7.746-6.718zM307.409 145.795a3.242 3.242 0 0 1-5.991-2.481c.685-1.655 6.718-7.746 6.718-7.746s-.043 8.573-.727 10.227zM259.229 245.165a3.242 3.242 0 0 1 5.991 2.481c-.685 1.655-6.718 7.746-6.718 7.746s.041-8.573.727-10.227zM333.004 219.57a3.242 3.242 0 1 1 2.481-5.991c1.655.686 7.746 6.718 7.746 6.718s-8.573-.041-10.227-.727zM233.634 171.39a3.242 3.242 0 0 1-2.481 5.991c-1.655-.685-7.746-6.718-7.746-6.718s8.572.043 10.227.727zM275.745 140.786a3.24 3.24 0 0 1-2.548 3.812 3.241 3.241 0 0 1-3.812-2.548c-.35-1.756 1.283-10.173 1.283-10.173s4.728 7.152 5.077 8.909zM290.892 250.175a3.24 3.24 0 0 1 2.548-3.812 3.24 3.24 0 0 1 3.812 2.548c.35 1.756-1.283 10.173-1.283 10.173s-4.727-7.153-5.077-8.909zM338.014 187.907a3.24 3.24 0 0 1-3.812-2.548 3.24 3.24 0 0 1 2.548-3.812c1.756-.35 10.173 1.283 10.173 1.283s-7.153 4.728-8.909 5.077zM228.624 203.053a3.24 3.24 0 0 1 3.812 2.548 3.24 3.24 0 0 1-2.548 3.812c-1.756.349-10.173-1.283-10.173-1.283s7.152-4.727 8.909-5.077zM316.638 151.449a3.243 3.243 0 0 1-5.392-3.602c.995-1.489 8.1-6.287 8.1-6.287s-1.712 8.401-2.708 9.889zM249.998 239.511a3.243 3.243 0 0 1 5.392 3.602c-.995 1.489-8.1 6.287-8.1 6.287s1.714-8.401 2.708-9.889zM327.349 228.801a3.243 3.243 0 0 1 3.602-5.392c1.489.994 6.287 8.1 6.287 8.1s-8.4-1.714-9.889-2.708zM239.288 162.161a3.243 3.243 0 0 1-3.602 5.392c-1.489-.995-6.287-8.1-6.287-8.1s8.4 1.712 9.889 2.708zM255.391 147.847a3.24 3.24 0 0 1-.895 4.497 3.24 3.24 0 0 1-4.497-.895c-.994-1.489-2.708-9.889-2.708-9.889s7.105 4.799 8.1 6.287zM311.246 243.114a3.24 3.24 0 0 1 .895-4.497 3.24 3.24 0 0 1 4.497.895c.994 1.489 2.708 9.889 2.708 9.889s-7.104-4.798-8.1-6.287zM330.952 167.553a3.242 3.242 0 1 1-3.602-5.392c1.489-.995 9.889-2.708 9.889-2.708s-4.798 7.104-6.287 8.1zM235.685 223.409a3.242 3.242 0 1 1 3.602 5.392c-1.489.995-9.889 2.708-9.889 2.708s4.798-7.106 6.287-8.1zM297.252 142.051a3.243 3.243 0 0 1-6.36-1.264c.35-1.756 5.078-8.907 5.078-8.907s1.632 8.414 1.282 10.171zM269.384 248.91a3.243 3.243 0 0 1 6.36 1.264c-.35 1.756-5.078 8.907-5.078 8.907s-1.63-8.414-1.282-10.171zM336.748 209.414a3.243 3.243 0 0 1 1.264-6.36c1.756.35 8.907 5.078 8.907 5.078s-8.414 1.631-10.171 1.282zM229.888 181.547a3.243 3.243 0 0 1-1.264 6.36c-1.756-.349-8.907-5.078-8.907-5.078s8.415-1.632 10.171-1.282z"/><path d="M385.009 206.855a2.477 2.477 0 0 0-3.242 1.337v.005c-.01.024-.058.141-.143.339-1.873 4.378-5.75 10.775-9.665 16.793 3.646-11.738 6.98-24.274 7.213-25.155a2.478 2.478 0 0 0-1.746-3.026 2.482 2.482 0 0 0-3.039 1.723c-1.702 6.097-5.182 14.12-8.392 20.914.589-7.573.699-14.59.707-15.098a2.485 2.485 0 0 0-2.373-2.514c-1.262.039-2.479.958-2.578 2.3-3.174 43.668-45.193 63.202-49.285 64.998-2.14.213-12.11 1.337-21.16 4.479-1.027.357-1.9.713-2.771 1.067a2.524 2.524 0 0 0-1.036-.167c-27.776 2.01-49.922-9.384-65.838-33.794-12.026-18.445-15.798-37.803-15.835-37.998-.255-1.346-1.543-2.213-2.896-1.976a2.48 2.48 0 0 0-1.976 2.896c.1.535 1.755 8.985 6.313 20.106-6.098-9.626-10.348-21.287-11.843-27.36-.03-.122-.108-.213-.153-.325-.07-.172-.129-.343-.231-.492-.073-.106-.168-.183-.256-.274-.135-.143-.265-.283-.431-.39-.095-.061-.201-.092-.303-.139a2.348 2.348 0 0 0-.565-.207c-.141-.027-.285-.01-.431-.012-.148-.002-.288-.04-.441-.014-.034.005-.059.027-.092.035-.032.006-.062-.004-.095.003-.133.033-.234.115-.356.167-.155.067-.313.117-.449.211-.133.092-.232.211-.344.326-.111.114-.227.215-.314.347-.089.134-.136.284-.198.433-.06.145-.129.281-.161.438-.033.161-.018.325-.017.492 0 .134-.036.261-.014.398.01.058.029.117.038.175v.008l.01.035c1.533 9.036 5.189 18.403 8.493 25.546-5.249-5.956-9.633-12.818-11.188-16.881-.045-.118-.135-.201-.195-.307-.092-.165-.172-.332-.297-.467-.088-.096-.195-.16-.296-.24-.15-.122-.294-.244-.468-.327-.112-.053-.232-.07-.352-.107-.183-.056-.36-.116-.555-.127-.153-.011-.304.029-.46.049-.143.018-.284 0-.427.044-.027.008-.045.031-.073.04-.026.008-.054.004-.08.014-.135.052-.23.151-.351.222-.142.085-.292.152-.412.261-.124.111-.208.247-.305.379-.092.125-.195.236-.262.374-.071.145-.097.302-.138.459-.04.152-.095.295-.106.455-.012.16.029.319.05.482.018.139-.001.279.042.418 2.698 8.701 9.185 19.054 14.268 26.347-4.235-3.264-7.348-6.794-8.251-7.859l-.291-.349a2.478 2.478 0 1 0-3.844 3.129c.046.058.232.291.542.654 3.719 4.426 7.772 8.557 11.442 12.042l-5.021-2.141a2.474 2.474 0 0 0-3.118 1.041 2.482 2.482 0 0 0 .66 3.225c.489.363 9.382 7.007 17.082 10.934-.726.043-1.579-.01-2.533-.082-1.164-.111-2.31.722-2.593 1.903a2.477 2.477 0 0 0 1.468 2.861c.189.077 2.535 1.046 5.433 2.077a2.476 2.476 0 0 0-1.436 1.579 2.471 2.471 0 0 0 1.133 2.861c.259.15 3.765 2.16 8.101 3.941a2.484 2.484 0 0 0 .671 3.395c.753.518 17.592 11.946 37.259 11.946 1.29 0 2.595-.049 3.907-.155 1.363-.107 2.383-1.303 2.274-2.668s-1.293-2.398-2.67-2.271c-12.355 1.007-24.257-3.632-31.337-7.177.934-.227 1.472-.436 1.605-.489a2.48 2.48 0 0 0-.881-4.779c-2.874-.058-6.854-1.457-10.282-2.959 1.295-.649 2.051-1.269 2.119-1.322a2.486 2.486 0 0 0 .806-2.561 2.484 2.484 0 0 0-1.995-1.792c-1.053-.174-2.366-.514-3.74-.93 1.337-.77 1.905-1.618 2.123-2.048a2.473 2.473 0 0 0-1.692-3.535c-.649-.141-1.382-.377-2.177-.688a2.483 2.483 0 0 0-.222-3.714c-.051-.039-1.976-1.549-4.888-4.063a2.439 2.439 0 0 0 1.167-.911c.624-.9.581-2.106-.105-2.959-.055-.069-1.982-2.492-4.638-6.171.876.682 1.754 1.377 2.628 1.939a2.48 2.48 0 0 0 3.065-.305c.197-.189.35-.408.47-.64 1.504 1.607 3.084 3.065 4.745 4.311.217.163.479.158.722.24a109.927 109.927 0 0 0 2.203 3.542c15.055 23.165 36.283 35.573 61.744 36.318-2.345 1.423-4.889 2.895-8.919 4.464-.879.342-1.657.687-2.439 1.03-.377.074-.731.21-1.026.444-7.033 3.257-9.945 6.473-11.127 8.724-1.179 2.237-.163 4.532 1.279 5.724a2.504 2.504 0 0 0 1.588.557c.392 0 .784-.087 1.14-.266.876-.435 1.462-1.361 1.423-2.334.101-.111.533-.469 1.884-.514.986-.082 3.058.141 5.477.334 2.301.189 5.061.405 7.996.556-1.835 2.141-3.97 4.621-3.97 4.621a2.478 2.478 0 0 0-.356 2.687 2.496 2.496 0 0 0 2.319 1.41c1.959-.068 3.29-.107 4.164-.126a4.211 4.211 0 0 0 2.3 1.549c1.704.435 3.404-.247 4.685-1.056a6.134 6.134 0 0 0 2.704 1.104c1.731.238 3.334-.266 4.494-.838a5.976 5.976 0 0 0 3.273.973h.041c1.935-.01 3.626-.945 4.826-1.86 1.058.63 2.07.833 2.852.866 1.775.063 3.247-.62 4.225-1.258 3.493.702 6.506-.945 8.495-2.76.908.528 1.772.658 2.46.624 1.77-.063 3.118-1.138 3.982-2.102 3.961.48 6.804-.251 8.448-2.203.896-1.061 1.258-2.256 1.358-3.346 10.99-.063 11.984-6.062 12.065-6.804a2.47 2.47 0 0 0-.572-1.864 2.462 2.462 0 0 0-1.743-.876l-28.811-1.734a2.456 2.456 0 0 0-2.561 1.898c-.005.019-.497 1.85-2.034 3.313-2.068 1.975-5.398 3.018-9.02 3.57a2.47 2.47 0 0 0-.161-.999c-.493-1.279-1.932-1.898-3.206-1.419-5.948 2.308-15.578 2.018-23.113 1.493 1.156-.945 2.547-1.88 3.659-2.49a2.486 2.486 0 0 0 1.245-2.634c-.145-.766-.698-1.3-1.367-1.643 2.095-1.058 3.812-2.079 5.443-3.073 2.828-1.734 5.501-3.365 10.368-5.055 9.395-3.264 20.265-4.256 20.374-4.266.247-.019.489-.082.72-.174.388-.16 31.051-13.006 45.498-42.646a27.957 27.957 0 0 1-.613 2.431 2.48 2.48 0 1 0 4.054 2.552c-.913 2.407-1.738 4.299-2.411 5.418a2.483 2.483 0 0 0 1.573 3.705 78.89 78.89 0 0 1-3.382 4.605 2.482 2.482 0 0 0 .077 3.182c-1.942 2.034-3.663 3.709-4.97 4.775a2.478 2.478 0 0 0-.741 2.838c-1.262.722-2.297 1.23-3.017 1.448a2.477 2.477 0 0 0-.724 4.387 77.078 77.078 0 0 1-4.976 1.157 2.482 2.482 0 0 0-.746 4.586c.077.043.925.523 2.22 1.075-4.796 1.933-13.36 4.455-27.412 5.84a2.481 2.481 0 0 0-2.223 2.711c.133 1.361 1.31 2.305 2.711 2.227 26.676-2.639 34.913-9.316 35.249-9.603.77-.643 1.075-1.695.77-2.653a2.481 2.481 0 0 0-1.22-1.443c8.523-2.683 12.181-5.651 12.372-5.81a2.485 2.485 0 0 0 .555-3.167c-.62-1.05-1.91-1.506-3.036-1.05-.317.122-.823.247-1.462.373 5.719-3.917 11.791-8.581 14.461-10.663.47-.349.896-.683 1.271-.997a2.478 2.478 0 0 0 .326-3.463 2.483 2.483 0 0 0-3.457-.383c-.388.305-.789.62-1.206.945-1.232.915-2.809 1.952-4.528 3.017 6.491-7.37 13.026-15.359 14.892-17.655.169-.208.336-.416.506-.624a2.477 2.477 0 0 0-.375-3.482 2.47 2.47 0 0 0-3.484.368l-.005.005-.002.005c-.045.053-.257.315-.61.75a134.516 134.516 0 0 1-6.046 6.857c6.612-11.984 11.619-23.781 12.353-25.528l.077-.189a2.473 2.473 0 0 0-1.336-3.236zm-116.203 83.573l.677.088a11.698 11.698 0 0 0-2.044 2.544 98.673 98.673 0 0 0-3.082-.216c1.155-.753 2.639-1.571 4.449-2.416z"/></g><path d="M19.152 488.46C8.575 488.46 0 479.885 0 469.309V42.534C0 32.044 8.504 23.54 18.994 23.54h.157c10.577 0 19.152 8.575 19.152 19.152V469.31c0 10.575-8.575 19.15-19.151 19.15z" fill="#2e3033"/></svg>