<svg xmlns="http://www.w3.org/2000/svg" viewBox="0 0 512 512"><path d="M503.525 52.594H28.924a8.476 8.476 0 0 0-8.475 8.475V366.17a8.476 8.476 0 0 0 8.475 8.475h474.601A8.476 8.476 0 0 0 512 366.17V61.069a8.475 8.475 0 0 0-8.475-8.475z" fill="#464655"/><path fill="#ffe15a" d="M266.224 69.544l10.747 56.146 31.415-47.76-11.557 55.985 47.3-32.101-32.101 47.3 55.985-11.557-47.76 31.415 56.146 10.748-56.146 10.747 47.76 31.415-55.985-11.557 32.101 47.3-47.3-32.102 11.557 55.985-31.415-47.759-10.747 56.146-10.747-56.146-31.416 47.759 11.558-55.985-47.301 32.102 32.102-47.3-55.985 11.557 47.759-31.415-56.146-10.747 56.146-10.748-47.759-31.415 55.985 11.557-32.102-47.3 47.301 32.101-11.558-55.985 31.416 47.76z"/><g fill="#ff4b55"><path d="M20.448 61.069V366.17a8.476 8.476 0 0 0 8.475 8.475h237.3L22.655 55.485c-1.333 1.497-2.207 3.422-2.207 5.584zM266.224 374.645h237.3a8.476 8.476 0 0 0 8.475-8.475V61.069c0-2.162-.874-4.086-2.207-5.584l-243.568 319.16z"/></g><path fill="#4173cd" d="M169.207 247.52h194.034l51.741-67.8H117.465z"/><path fill="#f5f5f5" d="M169.207 247.52l97.017 127.125 97.017-127.125z"/><path d="M19.201 489.063C8.597 489.063 0 480.466 0 469.862V41.982c0-10.517 8.526-19.044 19.043-19.044h.158c10.604 0 19.201 8.597 19.201 19.201v427.723c0 10.604-8.596 19.201-19.201 19.201z" fill="#2e3033"/></svg>