<svg xmlns="http://www.w3.org/2000/svg" viewBox="0 0 512.001 512.001"><path d="M503.471 366.87H29.07a8.53 8.53 0 0 1-8.529-8.529V53.409a8.53 8.53 0 0 1 8.529-8.529h474.401A8.53 8.53 0 0 1 512 53.409v304.932a8.53 8.53 0 0 1-8.529 8.529z" fill="#73af00"/><g fill="#f5f5f5"><path d="M20.541 104.19h491.46v33.894H20.541zM20.541 273.66h491.46v33.894H20.541z"/></g><path fill="#c8414b" d="M20.541 138.08h491.46v135.58H20.541z"/><path d="M264.16 153.67l-12.338 36.995-38.997.303c-2.138.017-3.025 2.745-1.305 4.015l31.371 23.167-11.763 37.182c-.645 2.038 1.676 3.725 3.416 2.481l31.727-22.677 31.727 22.677c1.74 1.243 4.061-.442 3.416-2.482l-11.763-37.182 31.371-23.167c1.72-1.27.834-3.999-1.305-4.015l-38.997-.303-12.338-36.995c-.677-2.026-3.546-2.026-4.222.001z" fill="#ffe15a"/><path d="M19.323 490.545C8.651 490.545 0 481.893 0 471.221v-430.6c0-10.584 8.58-19.165 19.164-19.165h.159c10.672 0 19.323 8.651 19.323 19.323v430.443c.001 10.671-8.651 19.323-19.323 19.323z" fill="#2e3033"/></svg>