<svg xmlns="http://www.w3.org/2000/svg" viewBox="0 0 512 512"><path d="M503.537 366.012H32.807a8.463 8.463 0 0 1-8.463-8.463V54.977a8.463 8.463 0 0 1 8.463-8.463h470.73A8.463 8.463 0 0 1 512 54.977v302.572a8.463 8.463 0 0 1-8.463 8.463z" fill="#f5f5f5"/><g fill="#ffecd7"><path d="M223.278 269.263c-19.411-4.43-36.716-14.452-50.104-28.301v29.619c14.609 10.656 31.655 18.123 50.104 21.537v-22.855zM313.019 269.263c19.411-4.43 36.716-14.452 50.106-28.301v29.619c-14.609 10.656-31.655 18.123-50.106 21.537v-22.855z"/></g><g fill="#ffe15a"><path d="M214.679 205.067c-.935.187-2.244 2.617-2.617 6.73-.374 4.113-2.992 21.5-8.6 19.631s-9.348-10.096-9.348-10.096l-7.852 11.405s5.235-2.056 10.657.374c5.422 2.431 6.73 3.74 8.226 2.244s5.048-5.983 7.853-5.609l3.179-22.622-1.498-2.057zM183.643 242.271s-1.309 10.844-.561 12.153 21.313 6.169 21.313 6.169-5.982 4.861-6.169 7.478c0 0-7.292 1.309-9.909 3.552l-9.722-16.078-.374-13.274h5.422z"/></g><path d="M177.147 143.651l.141-5.609s-6.59-.701-7.431 14.162l-2.383-6.59s-4.907 6.59-1.963 17.247l-1.262.982s-6.45-8.554-10.377-19.631c0 0-6.59 5.188 1.121 19.911l-9.534-12.059s-4.768 10.096 9.534 22.155l-13.461-9.535s-.841 10.937 12.199 17.948l-13.04-7.01s.421 10.516 15.564 15.704l-14.302-2.664s3.621 8.597 14.198 10.918c-2.22 2.48-4.273 5.811-4.803 10.115l10.657-5.889s-5.048 5.188-3.645 12.339l16.405-16.405-2.242-1.002c12.412-2.328 9.814-3.204 9.814-3.204s-9.161-23.556-2.992-39.822 11.592-18.509 11.592-19.257c-.002-.75-6.639-1.638-13.79 7.196z" fill="#ffecd7"/><path d="M189.813 153.092s21.314 22.435 21.687 24.492c.373 2.056-2.244 1.683-2.244 1.683s-5.235-6.73-12.339-9.348c-7.105-2.617-11.778-10.843-14.583-12.713-2.804-1.87 7.479-4.114 7.479-4.114z" fill="#ffe15a"/><path d="M182.708 158.514c2.804.935 9.161-.373 8.974-6.169s-5.982-8.039-10.282-6.73-12.339 7.292-7.292 18.883c5.048 11.591 12.526 15.891 14.022 25.8 0 0-6.73 1.028-10.282.187-3.053-.723-8.226-3.178-7.105-9.909 1.121-6.73 3.74-10.657 1.496-14.396-2.244-3.74-9.348-10.282-9.348-10.282s-15.331 39.261 12.339 49.544c0 0-13.087 12.526-19.631 24.679l3.926 1.121s-6.917 7.478-10.844 10.282c0 0 12.901 4.487 25.613-10.096 0 0 3.178 5.235 3.926 10.843h5.422s1.869-8.974 10.47-16.452c8.6-7.478 17.328-18.142 16.452-27.857-1.028-11.405-9.617-16.535-18.556-23.604-12.056-9.534-9.3-15.844-9.3-15.844z" fill="#fff5e1"/><g fill="#ffe15a"><path d="M321.666 205.067c.935.187 2.244 2.617 2.617 6.73s2.992 21.5 8.6 19.631c5.609-1.869 9.348-10.096 9.348-10.096l7.852 11.405s-5.235-2.056-10.657.374c-5.422 2.431-6.73 3.74-8.226 2.244s-5.048-5.983-7.853-5.609l-3.178-22.622 1.497-2.057zM352.701 242.271s1.309 10.844.561 12.153-21.313 6.169-21.313 6.169 5.982 4.861 6.169 7.478c0 0 7.291 1.309 9.909 3.552l9.722-16.078.374-13.274h-5.422z"/></g><path d="M359.197 143.651l-.141-5.609s6.59-.701 7.431 14.162l2.383-6.59s4.907 6.59 1.963 17.247l1.262.982s6.45-8.554 10.377-19.631c0 0 6.59 5.188-1.121 19.911l9.534-12.059s4.768 10.096-9.534 22.155l13.461-9.535s.841 10.937-12.199 17.948l13.04-7.01s-.421 10.516-15.564 15.704l14.302-2.664s-3.622 8.597-14.198 10.918c2.22 2.48 4.273 5.811 4.803 10.115l-10.657-5.889s5.048 5.188 3.645 12.339l-16.405-16.405 2.242-1.002c-12.412-2.328-9.814-3.204-9.814-3.204s9.161-23.556 2.992-39.822-11.592-18.509-11.592-19.257c.002-.75 6.639-1.638 13.79 7.196z" fill="#ffecd7"/><path d="M346.531 153.092s-21.313 22.435-21.687 24.492c-.373 2.056 2.244 1.683 2.244 1.683s5.234-6.73 12.339-9.348c7.105-2.617 11.778-10.843 14.583-12.713 2.804-1.87-7.479-4.114-7.479-4.114z" fill="#ffe15a"/><path d="M353.635 158.514c-2.804.935-9.161-.373-8.974-6.169s5.983-8.039 10.282-6.73c4.3 1.309 12.339 7.292 7.292 18.883-5.048 11.591-12.526 15.891-14.022 25.8 0 0 6.73 1.028 10.282.187 3.053-.723 8.226-3.178 7.105-9.909-1.121-6.73-3.74-10.657-1.496-14.396 2.244-3.74 9.348-10.282 9.348-10.282s15.331 39.261-12.339 49.544c0 0 13.087 12.526 19.631 24.679l-3.926 1.121s6.917 7.478 10.843 10.282c0 0-12.9 4.487-25.613-10.096 0 0-3.179 5.235-3.926 10.843H352.7s-1.869-8.974-10.47-16.452-17.328-18.142-16.452-27.857c1.028-11.405 9.617-16.535 18.556-23.604 12.059-9.534 9.301-15.844 9.301-15.844z" fill="#fff5e1"/><path fill="#464655" d="M214.3 120.56h107.69v21.687H214.3z"/><path d="M268.148 137.762h-53.844v71.792c0 13.461 8.974 49.357 53.844 62.818 44.87-13.461 53.844-49.357 53.844-62.818v-71.792h-53.844z" fill="#41479b"/><path d="M214.304 209.554c0 3.335.556 8.053 2.068 13.461h103.551c1.512-5.408 2.068-10.126 2.068-13.461v-26.923H214.304v26.923z" fill="#ff4b55"/><g fill="#f5f5f5"><path d="M268.148 202.824l-6.281 15.703 6.281-3.14 6.282 3.14zM268.148 202.824l6.282-15.705-6.282 3.14-6.281-3.14zM268.148 202.824l-15.703-6.282 3.14 6.282-3.14 6.281zM268.148 202.824l15.705 6.281-3.14-6.281 3.14-6.282z"/></g><g fill="#ffe15a"><path d="M275.203 153.627c-1.047.168-1.969.303-2.801.739.945-2.362 1.611-4.577 1.025-6.129-1.433-3.795-4.19-3.115-5.251-5.883v-.106c-.007.021-.019.032-.026.053-.007-.021-.019-.032-.026-.053v.106c-1.061 2.767-3.818 2.088-5.251 5.883-.586 1.552.08 3.767 1.025 6.129-.831-.437-1.754-.571-2.801-.739-2.139-.343-5.39 1.882-4.705 6.16.685 4.278 5.646 4.62 5.646 4.62-.684-.684-1.283-1.796-.941-2.994.342-1.197 2.823-2.225 4.107 1.796 1.283 4.021-3.079 9.752-3.079 9.752a7.13 7.13 0 0 0 3.371-1.016c-1.036 3.377 2.353 5.99 2.63 6.195v.04l.026-.02.026.02v-.04c.277-.204 3.665-2.818 2.63-6.194a7.152 7.152 0 0 0 3.371 1.016s-4.363-5.731-3.079-9.752c1.283-4.021 3.764-2.995 4.107-1.796.342 1.197-.257 2.31-.941 2.994 0 0 4.962-.342 5.647-4.62.68-4.279-2.572-6.503-4.71-6.161zM308.22 153.627c-1.047.168-1.969.303-2.801.739.945-2.362 1.611-4.577 1.024-6.129-1.433-3.795-4.19-3.115-5.251-5.883v-.106c-.007.021-.019.032-.026.053-.007-.021-.019-.032-.026-.053v.106c-1.061 2.767-3.818 2.088-5.251 5.883-.586 1.552.08 3.767 1.025 6.129-.831-.437-1.754-.571-2.801-.739-2.139-.343-5.39 1.882-4.705 6.16.684 4.278 5.646 4.62 5.646 4.62-.684-.684-1.283-1.796-.941-2.994.342-1.197 2.823-2.225 4.107 1.796s-3.079 9.752-3.079 9.752a7.138 7.138 0 0 0 3.372-1.016c-1.036 3.377 2.353 5.99 2.63 6.195v.04l.026-.02.026.02v-.04c.277-.204 3.665-2.818 2.63-6.194a7.152 7.152 0 0 0 3.371 1.016s-4.363-5.731-3.079-9.752c1.283-4.021 3.764-2.995 4.107-1.796.342 1.197-.257 2.31-.942 2.994 0 0 4.961-.342 5.646-4.62.682-4.279-2.569-6.503-4.708-6.161zM242.185 153.627c-1.047.168-1.969.303-2.8.739.945-2.362 1.611-4.577 1.024-6.129-1.433-3.795-4.19-3.115-5.251-5.883v-.106c-.007.021-.019.032-.026.053-.007-.021-.019-.032-.026-.053v.106c-1.061 2.767-3.818 2.088-5.251 5.883-.586 1.552.08 3.767 1.025 6.129-.831-.437-1.754-.571-2.801-.739-2.139-.343-5.39 1.882-4.705 6.16.684 4.278 5.646 4.62 5.646 4.62-.684-.684-1.283-1.796-.941-2.994s2.823-2.225 4.107 1.796c1.283 4.021-3.079 9.752-3.079 9.752a7.138 7.138 0 0 0 3.372-1.016c-1.036 3.377 2.353 5.99 2.63 6.195v.04l.026-.02.026.02v-.04c.277-.204 3.665-2.818 2.63-6.194a7.152 7.152 0 0 0 3.371 1.016s-4.363-5.731-3.079-9.752c1.283-4.021 3.764-2.995 4.107-1.796.343 1.197-.257 2.31-.94 2.994 0 0 4.962-.342 5.646-4.62.679-4.279-2.572-6.503-4.711-6.161zM278.681 246.077s-2.399-.377-2.59 2.041c0 0 0 .277-.012.66a2.242 2.242 0 0 0-.969-.232 2.296 2.296 0 0 0 0 4.592c.1 0 .187-.045.284-.057-.342 1.094-.884 2.09-1.647 2.811h-3.065c-.806-.893-1.052-2.639-1.103-3.905.05.003.087.038.138.038a1.88 1.88 0 1 0 .037-3.761c.163-.278.281-.585.281-.931a1.884 1.884 0 0 0-3.768 0c0 .346.118.653.281.931a1.88 1.88 0 0 0 .037 3.761c.051 0 .088-.034.138-.038-.052 1.266-.297 3.012-1.103 3.905h-3.065c-.763-.719-1.306-1.717-1.647-2.811.097.013.183.057.284.057a2.296 2.296 0 0 0 0-4.592c-.35 0-.673.091-.969.232-.012-.384-.012-.66-.012-.66-.191-2.417-2.591-2.041-2.591-2.041 1.492 4.553 1.099 9.814 1.099 9.814v4.628h18.837V255.9l.027-.011c-.002.003-.394-5.259 1.098-9.812zM256.665 228.13s-2.399-.377-2.591 2.041c0 0 0 .277-.012.66a2.242 2.242 0 0 0-.969-.232 2.296 2.296 0 0 0 0 4.592c.1 0 .186-.045.284-.057-.342 1.094-.884 2.09-1.647 2.811h-3.065c-.806-.893-1.052-2.639-1.103-3.905.05.003.087.038.138.038a1.88 1.88 0 1 0 .037-3.761c.163-.279.281-.585.281-.931a1.884 1.884 0 0 0-3.768 0c0 .346.118.653.281.931a1.88 1.88 0 0 0 .037 3.761c.051 0 .088-.034.138-.038-.052 1.265-.297 3.012-1.103 3.905h-3.065c-.763-.719-1.306-1.717-1.648-2.811.097.013.183.057.285.057a2.296 2.296 0 0 0 0-4.592c-.35 0-.673.091-.969.232-.012-.384-.012-.66-.012-.66-.191-2.417-2.591-2.041-2.591-2.041 1.492 4.553 1.099 9.814 1.099 9.814v4.628h18.837v-4.619l.028-.011c0 .001-.393-5.259 1.098-9.812zM300.695 228.13s-2.399-.377-2.59 2.041c0 0 0 .277-.012.66a2.242 2.242 0 0 0-.969-.232 2.296 2.296 0 0 0 0 4.592c.1 0 .187-.045.284-.057-.342 1.094-.884 2.09-1.647 2.811h-3.065c-.806-.893-1.052-2.639-1.103-3.905.05.003.087.038.138.038a1.88 1.88 0 1 0 .037-3.761c.163-.279.281-.585.281-.931a1.884 1.884 0 0 0-3.768 0c0 .346.118.653.281.931a1.88 1.88 0 0 0 .037 3.761c.051 0 .088-.034.138-.038-.052 1.265-.297 3.012-1.103 3.905h-3.065c-.763-.719-1.306-1.717-1.647-2.811.097.013.183.057.284.057a2.296 2.296 0 0 0 0-4.592c-.35 0-.673.091-.969.232-.012-.384-.012-.66-.012-.66-.191-2.417-2.591-2.041-2.591-2.041 1.492 4.553 1.099 9.814 1.099 9.814v4.628h18.838v-4.619l.027-.011c-.003.001-.395-5.259 1.097-9.812zM337.832 110.248a188.885 188.885 0 0 0-7.796-2.899l-2.194 6.36a185.357 185.357 0 0 0-3.793-1.27l2.054-6.407a186.358 186.358 0 0 0-7.927-2.366l-1.773 6.491c-1.28-.351-2.563-.689-3.85-1.012l1.632-6.528a188.098 188.098 0 0 0-8.03-1.834l-2.694 13.186c1.664.343 3.324.708 4.98 1.099l-1.025 4.368a170.845 170.845 0 0 0-29.387-4.285l.258-4.48c1.688.097 3.376.22 5.061.366l1.159-13.41a187.808 187.808 0 0 0-8.173-.532l-.29 6.724a185.545 185.545 0 0 0-3.947-.128l.145-6.729a189.364 189.364 0 0 0-8.187 0l.145 6.729c-1.316.029-2.632.071-3.947.128l-.29-6.724c-2.727.117-5.452.295-8.173.532l1.159 13.41a174.59 174.59 0 0 1 5.061-.366l.258 4.48a170.816 170.816 0 0 0-29.387 4.285l-1.025-4.368c1.656-.391 3.316-.757 4.98-1.099l-2.694-13.186a189.282 189.282 0 0 0-8.03 1.834c.544 2.176 1.087 4.353 1.632 6.528-1.286.324-2.57.661-3.85 1.012l-1.773-6.491c-2.655.73-5.298 1.519-7.927 2.366l2.054 6.407a189.51 189.51 0 0 0-3.793 1.27l-2.194-6.36a189.426 189.426 0 0 0-7.796 2.899l4.94 12.516a173.341 173.341 0 0 1 4.82-1.832l6.096 16.874a157.624 157.624 0 0 1 17.633-5.267 157.54 157.54 0 0 1 90.02 5.267l6.096-16.874c1.613.586 3.22 1.198 4.82 1.832 1.649-4.173 3.295-8.345 4.942-12.516z"/></g><path d="M268.148 323.973c26.767 0 51.55-8.595 71.792-23.13v-29.367c-18.316 18.545-43.73 30.062-71.792 30.062-28.451 0-54.172-11.848-72.54-30.847v29.619c20.378 14.862 45.446 23.663 72.54 23.663z" fill="#ffe1cd"/><path d="M19.174 488.729C8.585 488.729 0 480.145 0 469.555V42.287c0-10.502 8.514-19.016 19.016-19.016h.158c10.589 0 19.174 8.585 19.174 19.174v427.111c-.001 10.589-8.585 19.173-19.174 19.173z" fill="#2e3033"/></svg>