<svg xmlns="http://www.w3.org/2000/svg" viewBox="0 0 512 512"><path d="M503.666 364.335H40.111a8.335 8.335 0 0 1-8.334-8.334V58.041a8.335 8.335 0 0 1 8.334-8.334h463.555A8.335 8.335 0 0 1 512 58.041v297.961a8.333 8.333 0 0 1-8.334 8.333z" fill="#41479b"/><path d="M508.946 51.708L34.832 362.334c1.436 1.195 3.212 2.001 5.225 2.001H503.72a8.28 8.28 0 0 0 8.28-8.28V57.987c0-2.559-1.229-4.761-3.054-6.279z" fill="#73af00"/><path d="M512 57.987a8.28 8.28 0 0 0-8.28-8.28h-14.387L31.777 349.485v6.57a8.28 8.28 0 0 0 8.28 8.28h14.386L512 64.557v-6.57z" fill="#ffe15a"/><g fill="#f5f5f5"><path d="M73.45 75.502l-4.433 13.29-14.009.108c-1.344.01-1.9 1.725-.82 2.523l11.27 8.322-4.225 13.357c-.405 1.281 1.053 2.341 2.146 1.559l11.398-8.146 11.398 8.146c1.093.781 2.551-.278 2.146-1.559l-4.226-13.357 11.27-8.322c1.08-.798.524-2.513-.82-2.523l-14.009-.108-4.433-13.29c-.426-1.275-2.228-1.275-2.653 0zM180.167 75.502l-4.433 13.29-14.009.108c-1.344.01-1.9 1.725-.82 2.523l11.27 8.322-4.226 13.357c-.405 1.281 1.053 2.341 2.146 1.559l11.398-8.146 11.398 8.146c1.093.781 2.551-.278 2.146-1.559l-4.226-13.357 11.27-8.322c1.08-.798.524-2.513-.82-2.523l-14.009-.108-4.433-13.29c-.423-1.275-2.227-1.275-2.652 0zM126.809 123.054l-4.433 13.29-14.009.108c-1.344.01-1.9 1.725-.82 2.523l11.27 8.322-4.225 13.357c-.405 1.281 1.053 2.341 2.146 1.559l11.398-8.146 11.398 8.146c1.093.781 2.551-.278 2.146-1.559l-4.226-13.357 11.269-8.322c1.08-.798.524-2.513-.82-2.523l-14.009-.108-4.433-13.29c-.424-1.274-2.227-1.274-2.652 0zM73.45 170.605l-4.433 13.29-14.009.108c-1.344.01-1.9 1.725-.82 2.523l11.27 8.322-4.225 13.357c-.405 1.281 1.053 2.341 2.146 1.559l11.398-8.146 11.398 8.146c1.093.781 2.551-.278 2.146-1.559l-4.226-13.357 11.27-8.322c1.08-.798.524-2.513-.82-2.523l-14.009-.108-4.433-13.29c-.426-1.274-2.228-1.274-2.653 0zM180.167 170.605l-4.433 13.29-14.009.108c-1.344.01-1.9 1.725-.82 2.523l11.27 8.322-4.226 13.357c-.405 1.281 1.053 2.341 2.146 1.559l11.398-8.146 11.398 8.146c1.093.781 2.551-.278 2.146-1.559l-4.226-13.357 11.27-8.322c1.08-.798.524-2.513-.82-2.523l-14.009-.108-4.433-13.29c-.423-1.274-2.227-1.274-2.652 0z"/></g><path d="M18.881 485.182C8.454 485.182 0 476.729 0 466.302V45.545c0-10.342 8.384-18.727 18.726-18.727h.155c10.428 0 18.881 8.454 18.881 18.881V466.3c.001 10.429-8.453 18.882-18.881 18.882z" fill="#2e3033"/></svg>