<svg xmlns="http://www.w3.org/2000/svg" viewBox="0 0 512.01 512.01"><path d="M503.645 56.683H35.785a8.355 8.355 0 0 0-8.355 8.355v300.768a8.355 8.355 0 0 0 8.355 8.355h467.861a8.355 8.355 0 0 0 8.355-8.355V65.037a8.356 8.356 0 0 0-8.356-8.354z" fill="#f5f5f5"/><path fill="#4173cd" d="M202.88 91.963h309.13v35.27H202.88z"/><path fill="#f5f5f5" d="M27.43 127.223H512v35.27H27.43z"/><path fill="#4173cd" d="M202.88 162.503h309.13v35.27H202.88z"/><path fill="#f5f5f5" d="M27.43 197.783H512v35.27H27.43z"/><path fill="#4173cd" d="M27.43 233.053H512v35.27H27.43z"/><path fill="#f5f5f5" d="M27.43 268.333H512v35.27H27.43z"/><path fill="#4173cd" d="M27.43 303.613H512v35.27H27.43z"/><path fill="#ffe15a" d="M87.978 78.798l13.977 64.67 21.869-9.058z"/><path fill="#ffcd5a" d="M87.978 78.798l24.912 60.141-10.935 4.529z"/><path fill="#ffe15a" d="M142.331 210.016l-13.977-64.671-21.87 9.058z"/><path fill="#ffcd5a" d="M142.331 210.016l-24.912-60.142 10.935-4.529z"/><path fill="#ffe15a" d="M180.763 117.23l-64.671 13.977 9.059 21.87z"/><path fill="#ffcd5a" d="M180.763 117.23l-60.141 24.912-4.53-10.935z"/><path fill="#ffe15a" d="M49.545 171.583l64.671-13.977-9.058-21.87z"/><path fill="#ffcd5a" d="M49.545 171.583l60.142-24.912 4.529 10.935z"/><path fill="#ffe15a" d="M142.331 78.798l-35.847 55.612 21.87 9.058z"/><path fill="#ffcd5a" d="M142.331 78.798l-24.912 60.141-10.935-4.529z"/><path fill="#ffe15a" d="M87.978 210.016l35.846-55.613-21.869-9.058z"/><path fill="#ffcd5a" d="M87.978 210.016l24.912-60.142 10.934 4.529z"/><path fill="#ffe15a" d="M180.763 171.583l-55.612-35.847-9.059 21.87z"/><path fill="#ffcd5a" d="M180.763 171.583l-60.141-24.912 4.529-10.935z"/><path fill="#ffe15a" d="M49.545 117.23l55.613 35.847 9.058-21.87z"/><path fill="#ffcd5a" d="M49.545 117.23l60.142 24.912-4.529 10.935z"/><path fill="#ffe15a" d="M115.154 73.392l-11.835 65.097h23.671z"/><path fill="#ffcd5a" d="M115.154 73.392v65.097h-11.835z"/><path fill="#ffe15a" d="M115.154 215.422l11.836-65.097h-23.671z"/><path fill="#ffcd5a" d="M115.154 215.422v-65.097h11.836z"/><path fill="#ffe15a" d="M186.168 144.406l-65.096-11.835v23.671z"/><path fill="#ffcd5a" d="M186.168 144.406h-65.096v-11.835z"/><path fill="#ffe15a" d="M44.139 144.406l65.097 11.836v-23.671z"/><path fill="#ffcd5a" d="M44.139 144.406h65.097v11.836z"/><path fill="#ffe15a" d="M165.369 94.192l-54.399 37.661 16.737 16.738z"/><path fill="#ffcd5a" d="M165.369 94.192l-46.03 46.03-8.369-8.369z"/><path fill="#ffe15a" d="M64.939 194.621l54.4-37.66-16.739-16.739z"/><path fill="#ffcd5a" d="M64.939 194.621l46.031-46.03 8.369 8.37z"/><path fill="#ffe15a" d="M165.369 194.621l-37.662-54.399-16.737 16.739z"/><path fill="#ffcd5a" d="M165.369 194.621l-46.03-46.03 8.368-8.369z"/><path fill="#ffe15a" d="M64.939 94.192l37.661 54.399 16.739-16.738z"/><path fill="#ffcd5a" d="M64.939 94.192l46.031 46.03-8.37 8.369z"/><circle cx="115.15" cy="144.403" r="23.671" fill="#ffe15a"/><path d="M19.122 488.106C8.561 488.106 0 479.544 0 468.984V42.869c0-10.474 8.491-18.965 18.965-18.965h.157c10.561 0 19.122 8.561 19.122 19.122v425.958c0 10.56-8.561 19.122-19.122 19.122z" fill="#2e3033"/></svg>