<svg xmlns="http://www.w3.org/2000/svg" viewBox="0 0 512 512"><path d="M35.4 56.15h468.2c4.6 0 8.4 3.8 8.4 8.4v150.5H27V64.55c0-4.6 3.8-8.4 8.4-8.4z" fill="#ff4b55"/><path d="M503.6 373.95H35.4c-4.6 0-8.4-3.8-8.4-8.4v-150.5h485v150.5c0 4.6-3.8 8.4-8.4 8.4z" fill="#41479b"/><path d="M30.1 371.95l231.5-151.6c3.8-2.5 3.8-8 0-10.4L30.1 58.15c-1.8 1.5-3.1 3.8-3.1 6.3v301c0 2.7 1.2 4.9 3.1 6.5z" fill="#f5f5f5"/><path d="M138.9 180.65c1.3 16.2-12.1 29.6-28.3 28.3-12.7-1-23-11.3-24-24-1.3-16.2 12.1-29.6 28.3-28.3 12.7 1 23 11.3 24 24z" fill="#ffe15a"/><path d="M144.8 207.05c.1 3.2.5 6.5.8 9.7 1.3 12.5 2.4 23.2-9.5 27.4-2.8 1-6.7 1.5-10.4 2.1-5.4.8-10.1 1.5-12.9 3.4-2.8-1.9-7.6-2.6-12.9-3.4-3.7-.5-7.6-1.1-10.4-2.1-12-4.2-10.8-14.9-9.5-27.4.3-3.2.7-6.5.8-9.7.4-11.3-2-22.4-3.7-28.6 2.8 1.1 6.6 2.2 11.4 2.1 2 0 4.3-.3 6.8-.6 5.5-.7 11.8-1.5 16.8.5l.8.4.8-.4c5-2 11.3-1.2 16.8-.5 2.4.3 4.7.6 6.8.6 4.7.1 8.6-.9 11.4-2.1-1.9 6.3-4.2 17.4-3.9 28.6z" fill="#8cd7ff"/><path d="M149.2 206.95c-.5-16 4.9-32.1 5-32.2l-3.4-2.4s-5.2 4.1-13.5 3.9c-1.8 0-4-.3-6.3-.6-5.8-.7-12.3-1.6-18.2.5-5.9-2-12.4-1.2-18.2-.5-2.3.3-4.5.6-6.3.6-8.3.2-13.5-3.9-13.5-3.9l-3.4 2.4c.1.2 5.5 16.2 5 32.2-.1 3-.4 6.2-.8 9.3-1.3 12.5-2.8 26.7 12.4 32 3.2 1.1 7.3 1.6 11.2 2.3 11.8 2 13.6 5 13.6 5s1.8-3 13.6-5c3.9-.7 8-1.1 11.2-2.3 15.2-5.3 13.8-19.5 12.4-32-.4-3.1-.7-6.3-.8-9.3zm-4.4.1c.1 3.2.5 6.5.8 9.7 1.3 12.5 2.4 23.2-9.5 27.4-2.8 1-6.7 1.5-10.4 2.1-5.4.8-10.1 1.5-12.9 3.4-2.8-1.9-7.6-2.6-12.9-3.4-3.7-.5-7.6-1.1-10.4-2.1-12-4.2-10.8-14.9-9.5-27.4.3-3.2.7-6.5.8-9.7.4-11.3-2-22.4-3.7-28.6 2.8 1.1 6.6 2.2 11.4 2.1 2 0 4.3-.3 6.8-.6 5.5-.7 11.8-1.5 16.8.5l.8.4.8-.4c5-2 11.3-1.2 16.8-.5 2.4.3 4.7.6 6.8.6 4.7.1 8.6-.9 11.4-2.1-1.9 6.3-4.2 17.4-3.9 28.6z" fill="#ff4b55"/><path fill="#f5f5f5" d="M135.3 233.95v-9.6h1.7v-2.8h-4.1v-9.9h4.1l-18.5-13.1v-5h2.5l-8.3-5.9-8.3 5.9h2.6v5l-18.5 13.1h4.1v9.9h-4.1v2.8h1.7v9.6h-2.4v4.2h49.9v-4.2z"/><g fill="#41aa5a"><path d="M88.8 194.55c-.6 1.4-.5 2.9.1 4 1.2-.3 2.3-1.3 2.9-2.7s.5-2.9-.1-4c-1.2.3-2.4 1.3-2.9 2.7z"/><path d="M91.6 194.95c.4 1.5 1.4 2.6 2.5 3.1.8-1 1.1-2.4.7-3.9s-1.4-2.6-2.5-3.1c-.8 1-1.1 2.4-.7 3.9zM96.1 192.55c1.4.5 2.9.4 4-.3-.4-1.2-1.4-2.3-2.8-2.8s-2.9-.4-4 .3c.3 1.2 1.3 2.2 2.8 2.8z"/><path d="M97.4 190.05c1.4-.6 2.3-1.8 2.6-3-1.1-.6-2.6-.7-4-.1s-2.3 1.8-2.6 3c1.1.6 2.6.7 4 .1zM88.1 191.25c1.2-.9 1.9-2.2 2-3.4-1.2-.4-2.7-.2-3.9.7-1.2.9-1.9 2.2-2 3.4 1.2.4 2.6.2 3.9-.7z"/><path d="M87 189.45c1.9 1.1 3.9 1.4 5.5.9-.4-1.5-1.7-3.1-3.6-4.2-1.9-1.1-3.9-1.4-5.5-.9.5 1.5 1.7 3.1 3.6 4.2z"/></g><path d="M95.1 191.65c0-.7-.6-1.3-1.3-1.4 0-.7-.6-1.3-1.4-1.3s-1.3.6-1.4 1.3c-.7 0-1.3.6-1.3 1.4 0 .7.6 1.3 1.3 1.4 0 .7.6 1.3 1.4 1.3s1.3-.6 1.4-1.3c.7 0 1.3-.6 1.3-1.4z" fill="#ffe15a"/><path d="M93.1 191.35c.3.7-.4 1.4-1.1 1.1-.2-.1-.3-.2-.3-.3-.3-.7.4-1.4 1.1-1.1.1 0 .2.1.3.3z" fill="#f5f5f5"/><path d="M90.8 190.35c0-.6-.5-1.1-1.1-1.1 0-.6-.5-1.1-1.1-1.1s-1.1.5-1.1 1.1c-.6 0-1.1.5-1.1 1.1s.5 1.1 1.1 1.1c0 .6.5 1.1 1.1 1.1s1.1-.5 1.1-1.1c.6 0 1.1-.5 1.1-1.1z" fill="#ffe15a"/><path d="M89.2 190.05c.3.6-.3 1.2-.9.9l-.3-.3c-.3-.6.3-1.2.9-.9l.3.3z" fill="#f5f5f5"/><path d="M94.9 188.45c0-.4-.3-.8-.8-.8 0-.4-.4-.8-.8-.8s-.8.3-.8.8c-.4 0-.8.4-.8.8s.3.8.8.8c0 .4.4.8.8.8s.8-.3.8-.8c.4 0 .8-.4.8-.8z" fill="#ffe15a"/><path d="M93.7 188.25c.2.4-.2.8-.6.6-.1 0-.2-.1-.2-.2-.2-.4.2-.8.6-.6.1 0 .2.1.2.2z" fill="#f5f5f5"/><path d="M91.9 187.05c0-.4-.3-.8-.8-.8 0-.4-.4-.8-.8-.8s-.8.3-.8.8c-.4 0-.8.4-.8.8s.3.8.8.8c0 .4.4.8.8.8s.8-.3.8-.8c.4 0 .8-.3.8-.8z" fill="#ffe15a"/><g fill="#f5f5f5"><path d="M90.7 186.85c.2.4-.2.8-.6.6-.1 0-.2-.1-.2-.2-.2-.4.2-.8.6-.6.1 0 .2.1.2.2zM126.8 199.05H142c-1-2.2-2.9-3.9-5.2-4.6.2-1.1.3-2.3.3-3.6 0-4.6-1.2-8.3-2.6-8.3-1.4 0-2.6 3.7-2.6 8.3 0 1.3.1 2.5.3 3.6-2.5.7-4.4 2.4-5.4 4.6z"/></g><path d="M112.7 273.55c-32 0-58-26-58-58h10.9c0 25.9 21.1 47 47 47s47-21.1 47-47h10.9c.2 32-25.8 58-57.8 58z" fill="#ffe15a"/><path d="M134.2 163.75h-9.5c1 0 1.7-.8 1.7-1.7s-.8-1.7-1.7-1.7h-12c-.9 0-1.7.8-1.7 1.7 0 1 .8 1.7 1.7 1.7H91.2c-1.4 0-2.6 1.2-2.6 2.6s1.2 2.6 2.6 2.6H99c-.9 0-1.7.8-1.7 1.7s.8 1.7 1.7 1.7h15.5c1 0 1.7-.8 1.7-1.7s-.8-1.7-1.7-1.7h19.8c1.4 0 2.6-1.2 2.6-2.6s-1.2-2.6-2.7-2.6z" fill="#c87878"/><path d="M18.7 483.45c-10.3 0-18.7-8.3-18.7-18.7V47.15c0-10.3 8.3-18.6 18.6-18.6h.2c10.3 0 18.7 8.4 18.7 18.7v417.4c0 10.5-8.4 18.8-18.8 18.8z" fill="#2e3033"/></svg>