<svg xmlns="http://www.w3.org/2000/svg" viewBox="0 0 512 512"><path d="M512 213.62H20.448V61.069a8.476 8.476 0 0 1 8.475-8.475h474.601a8.476 8.476 0 0 1 8.475 8.475L512 213.62z" fill="#ff4b55"/><path d="M20.448 213.62H512v152.55a8.476 8.476 0 0 1-8.475 8.475H28.924a8.476 8.476 0 0 1-8.475-8.475l-.001-152.55z" fill="#73af00"/><path d="M268.802 167.397l10.663 31.97 33.7.262c2.611.02 3.693 3.352 1.593 4.903l-27.111 20.02 10.166 32.132c.787 2.49-2.047 4.549-4.171 3.03l-27.418-19.597-27.418 19.597c-2.124 1.518-4.959-.541-4.171-3.03l10.166-32.132-27.111-20.02c-2.101-1.551-1.018-4.883 1.593-4.903l33.7-.262 10.663-31.97c.826-2.477 4.33-2.477 5.156 0z" fill="#ffe15a"/><path d="M19.201 489.063C8.597 489.063 0 480.466 0 469.862V41.982c0-10.517 8.526-19.044 19.043-19.044h.158c10.604 0 19.201 8.597 19.201 19.201v427.723c0 10.604-8.596 19.201-19.201 19.201z" fill="#2e3033"/></svg>