<svg xmlns="http://www.w3.org/2000/svg" viewBox="0 0 512 512"><path d="M512 162.503H27.43V65.118a8.44 8.44 0 0 1 8.44-8.44h467.69a8.44 8.44 0 0 1 8.44 8.44v97.385z" fill="#f5f5f5"/><path d="M503.56 374.155H35.87a8.44 8.44 0 0 1-8.44-8.44V268.33H512v97.385a8.44 8.44 0 0 1-8.44 8.44z" fill="#ff4b55"/><path fill="#41479b" d="M27.43 162.498H512v105.83H27.43z"/><path d="M150.678 294.239c-2.472-1.42-60.588-35.221-60.588-87.177v-71.014h125.32v71.014c0 51.956-58.115 85.758-60.588 87.177l-2.072 1.183-2.072-1.183z" fill="#ff4b55"/><path fill="#f5f5f5" d="M185.572 194.53l-19.694 2.593h-6.564V185.37h3.938l15.755 2.595-2.133-9.159 2.133-9.157-15.755 2.593h-3.938v-3.97l2.594-19.693-9.158 2.667-9.159-2.667 2.595 19.693v3.97h-3.94l-15.754-2.593 2.134 9.157-2.134 9.159 15.754-2.595h3.94v11.753h-6.565l-19.693-2.593 2.667 9.158-2.667 9.158 19.693-2.594h6.565v30.228h13.128v-30.228h6.564l19.694 2.594-2.667-9.158z"/><path d="M152.75 227.948c-8.629 0-16.031 5.235-19.215 12.7-.561-.045-1.099-.169-1.671-.169-11.122 0-20.127 8.716-20.765 19.677 16.917 20.826 38.107 33.235 39.578 34.082l2.072 1.183 2.072-1.183c1.473-.846 22.661-13.256 39.58-34.082-.638-10.96-9.644-19.677-20.765-19.677-.573 0-1.111.122-1.671.169-3.184-7.465-10.586-12.7-19.215-12.7z" fill="#41479b"/><path d="M211.233 140.224v66.838c0 50.127-58.483 83.547-58.483 83.547s-58.483-33.418-58.483-83.547v-66.838h116.966m8.355-8.354H85.913v75.193c0 54.352 60.132 89.338 62.692 90.801l4.145 2.368 4.145-2.368c2.559-1.463 62.693-36.449 62.693-90.801V131.87z" fill="#f5f5f5"/><path d="M19.122 488.101C8.561 488.101 0 479.539 0 468.979V42.864C0 32.39 8.491 23.899 18.965 23.899h.157c10.561 0 19.122 8.561 19.122 19.122v425.958c0 10.56-8.561 19.122-19.122 19.122z" fill="#2e3033"/></svg>