<svg xmlns="http://www.w3.org/2000/svg" viewBox="0 0 512.001 512.001"><path d="M20.541 263.804H512v98.801a8.53 8.53 0 0 1-8.529 8.529H29.07a8.53 8.53 0 0 1-8.529-8.529v-98.801z" fill="#41479b"/><path d="M29.07 49.145h474.401A8.53 8.53 0 0 1 512 57.674v98.801H20.541V57.673a8.528 8.528 0 0 1 8.529-8.528z" fill="#73af00"/><path fill="#f5f5f5" d="M20.541 156.47h491.46V263.8H20.541z"/><path d="M19.323 490.545C8.651 490.545 0 481.893 0 471.221v-430.6c0-10.584 8.58-19.165 19.164-19.165h.159c10.672 0 19.323 8.651 19.323 19.323v430.443c.001 10.671-8.651 19.323-19.323 19.323z" fill="#2e3033"/></svg>