<svg xmlns="http://www.w3.org/2000/svg" viewBox="0 0 512 512"><path d="M512 162.05H27v-97.5c0-4.6 3.8-8.4 8.4-8.4h468.2c4.6 0 8.4 3.8 8.4 8.4v97.5z" fill="#5aa587"/><path d="M503.6 373.95H35.4c-4.6 0-8.4-3.8-8.4-8.4v-97.5h485v97.5c0 4.6-3.8 8.4-8.4 8.4z" fill="#ffe15a"/><path fill="#464655" d="M27 162.05h485v105.9H27z"/><g fill="#f5f5f5"><path d="M27 152.65h485v13.2H27zM27 264.25h485v13.2H27z"/></g><path d="M30.1 371.95l192.1-152.5c2.8-2.2 2.8-6.5 0-8.7L30.1 58.15c-1.8 1.5-3.1 3.8-3.1 6.3v301c0 2.7 1.2 4.9 3.1 6.5z" fill="#ff4b55"/><path d="M104.5 160.65l12.2 36.7 38.6.3c2.2 0 3.1 2.8 1.3 4.1l-31.1 23 11.7 36.8c.7 2.1-1.7 3.8-3.5 2.5l-31.4-22.5-31.4 22.5c-1.8 1.3-4.1-.4-3.5-2.5l11.7-36.8-31.1-23c-1.7-1.3-.8-4 1.3-4.1l38.6-.3 12.2-36.7c.8-2 3.7-2 4.4 0z" fill="#ffe15a"/><g fill="#f5f5f5"><path d="M100.1 228.75l-3 3H71.8l6.9-25.3 2.8-1.4-4.5 22.6c0 .3 0 .6.2.8s.4.3.7.3h22.2zM106.2 232.95c-1.1.8-2.4 1.3-3.8 1.3s-2.7-.5-3.8-1.3l3.8-3.8 3.8 3.8zM132.9 231.75h-25.3l-3-3h22.2c.3 0 .5-.1.7-.3s.2-.5.2-.8l-4.5-22.6 2.8 1.4 6.9 25.3z"/><path d="M125.7 226.85h-22.4v-23.1c3.7-3.2 13.6-1 17.8.3l4.6 22.8zM101.4 203.75v23.1H79.1l4.6-22.8c4.1-1.3 14-3.4 17.7-.3z"/></g><g fill="#464655"><path d="M135 232.45l-7.3-26.9c-.1-.2-.2-.5-.5-.6l-4.9-2.4h-.1c-.6-.2-14.1-4.6-19.8-.3-5.7-4.3-19.2.1-19.8.3h-.1l-4.9 2.4c-.2.1-.4.3-.5.6l-7.3 26.9c-.1.3 0 .6.1.8.2.2.5.4.7.4h26c1.5 1.5 3.6 2.4 5.8 2.4s4.3-.9 5.8-2.4h26c.3 0 .6-.1.7-.4.1-.2.2-.5.1-.8zm-31.7-28.7c3.7-3.2 13.6-1 17.8.3l4.6 22.8h-22.4v-23.1zm-19.7.3c4.2-1.3 14.1-3.5 17.8-.3v23.1H79.1l4.5-22.8zm-11.8 27.7l6.9-25.3 2.8-1.4-4.5 22.6c0 .3 0 .6.2.8s.4.3.7.3h22.2l-3 3H71.8zm30.6 2.5c-1.4 0-2.7-.5-3.8-1.3l3.8-3.8 3.8 3.8c-1.1.8-2.4 1.3-3.8 1.3zm5.2-2.5l-3-3h22.2c.3 0 .5-.1.7-.3s.2-.5.2-.8l-4.5-22.6 2.8 1.4 6.9 25.3h-25.3z"/><path d="M125.5 179.55c-.9.7-2.2.5-3-.3l-1.2-1.2v3l-7.5 7.5h-3l-12.1 12.1h-3l-23.2 23.2c-.6.6-.8 1.4-.5 2.2l1.1 3.3-4.5 4.5h-3l-9.2 9.2c-.7.7-.7 1.9 0 2.7l6.1 6.1c.9.9 2.3.8 3.1-.1l13.4-16.3 1.5-4.5 3-3 6 9.1 4.5-4.5-4.8-7.2 1.2-1.2c1.2-1.2 1.2-3.1 0-4.2l-.9-.9.8-.8c6.4 5.5 14.2 6.9 21.5 3.8l-2.5-5.9c-6.1 2.6-11.1.4-14.5-2.4l12.8-12.8-.5-2.5 3.5-3.5h3l22.6-22.6-10.7 7.2z"/><path d="M80.5 176.55l-3 3c-.8.8-.8 2.2 0 3l.5.5-5 1-13.6 13.6 7.5 7.5 13.6-13.6 1-5 2 2 1.5-1.5 50.2 50.2 3-3-50.2-50.2 1.5-1.5-6-6c-.8-.8-2.1-.8-3 0z"/></g><path d="M18.7 483.45c-10.3 0-18.7-8.3-18.7-18.7V47.15c0-10.3 8.3-18.6 18.6-18.6h.2c10.3 0 18.7 8.4 18.7 18.7v417.4c0 10.5-8.4 18.8-18.8 18.8z" fill="#2e3033"/></svg>