<svg xmlns="http://www.w3.org/2000/svg" viewBox="0 0 512.001 512.001"><path d="M512 210.495H24.345V59.209a8.463 8.463 0 0 1 8.463-8.463h470.73a8.463 8.463 0 0 1 8.463 8.463v151.286H512z" fill="#f5f5f5"/><path d="M24.345 210.495H512v151.287a8.463 8.463 0 0 1-8.463 8.463H32.807a8.463 8.463 0 0 1-8.463-8.463V210.495h.001z" fill="#82afff"/><path d="M268.952 279.053c-1.424-.061-35.042-1.781-51.912-24.897-9.833-13.469-11.795-31.386-5.832-53.249l2.409.657c-5.752 21.09-3.924 38.284 5.432 51.109 16.151 22.143 49.675 23.87 50.012 23.882l-.109 2.498z" fill="#b46446"/><g fill="#41aa5a"><path d="M211.184 176.654c-1.658 4.318-1.28 8.838.64 12.266 3.719-1.263 7.026-4.369 8.684-8.686 1.658-4.318 1.28-8.838-.64-12.266-3.721 1.262-7.027 4.368-8.684 8.686zM232.242 250.902c-1.84 3.035-2.322 7.106-.959 11.056 1.273 3.692 3.899 6.415 6.944 7.789-2.958-1.55-6.72-1.938-10.409-.665-3.951 1.363-6.858 4.25-8.114 7.57 3.035 1.84 7.105 2.322 11.056.961 3.951-1.363 6.858-4.25 8.114-7.57l-.004-.002c1.825-3.032 2.303-7.086.945-11.023-1.365-3.952-4.254-6.86-7.573-8.116zM225.042 225.324c-2.839 2.131-4.804 5.727-5.013 9.901-.196 3.9 1.226 7.407 3.54 9.817-2.167-2.541-5.513-4.304-9.411-4.499-4.174-.209-7.949 1.387-10.352 3.999 2.131 2.839 5.726 4.804 9.9 5.013 4.173.209 7.949-1.387 10.352-3.999l-.002-.002c2.822-2.135 4.777-5.718 4.986-9.877.208-4.175-1.388-7.949-4-10.353zM221.93 212.903c-3.433.901-6.611 3.49-8.379 7.276-1.652 3.539-1.66 7.321-.427 10.426-1.047-3.17-3.48-6.066-7.017-7.718-3.786-1.769-7.884-1.715-11.096-.203.901 3.433 3.49 6.611 7.276 8.379 3.786 1.769 7.884 1.715 11.096.203l-.002-.004c3.42-.91 6.583-3.49 8.345-7.263 1.768-3.788 1.715-7.886.204-11.096zM223.695 200.576c-3.532-.351-7.412.968-10.389 3.901-2.782 2.741-4.107 6.285-4.034 9.623.123-3.336-1.149-6.898-3.889-9.679-2.932-2.977-6.793-4.354-10.329-4.057-.351 3.532.968 7.412 3.901 10.389 2.933 2.977 6.793 4.354 10.329 4.057v-.005c3.523.339 7.386-.977 10.353-3.9 2.978-2.932 4.355-6.792 4.058-10.329z"/><path d="M226.192 188.844c-3.425-.931-7.471-.272-10.892 2.128-3.197 2.243-5.09 5.518-5.571 8.824.673-3.271.008-6.993-2.233-10.189-2.399-3.421-5.978-5.418-9.515-5.71-.931 3.425-.272 7.47 2.128 10.892 2.4 3.422 5.978 5.418 9.515 5.71v-.003c3.418.915 7.446.256 10.856-2.136 3.423-2.4 5.421-5.979 5.712-9.516z"/></g><g fill="#ffe15a"><path d="M229.708 252.924a2.607 2.607 0 0 1-3.17 3.169 2.584 2.584 0 0 1-1.876-1.876 2.608 2.608 0 0 1 3.169-3.17c.911.22 1.657.966 1.877 1.877zM241.671 268.939a2.607 2.607 0 0 1-3.169 3.169 2.584 2.584 0 0 1-1.876-1.876 2.608 2.608 0 0 1 3.169-3.17c.91.22 1.657.967 1.876 1.877zM222.841 233.26a2.608 2.608 0 0 1-3.169 3.17 2.584 2.584 0 0 1-1.876-1.876 2.607 2.607 0 0 1 3.169-3.169c.911.22 1.657.965 1.876 1.875zM206.3 213.702a2.607 2.607 0 0 1-3.169 3.169 2.584 2.584 0 0 1-1.876-1.876 2.607 2.607 0 0 1 3.169-3.169c.911.22 1.657.967 1.876 1.876zM217.848 200.455a2.608 2.608 0 0 1-3.169 3.17 2.584 2.584 0 0 1-1.876-1.876 2.607 2.607 0 0 1 3.169-3.169c.91.219 1.656.965 1.876 1.875zM213.47 186.883a2.607 2.607 0 0 1-3.169 3.169 2.584 2.584 0 0 1-1.876-1.876 2.608 2.608 0 0 1 3.169-3.17c.911.22 1.657.967 1.876 1.877z"/></g><path d="M269.06 279.053l-.109-2.497c.339-.013 33.861-1.739 50.012-23.882 9.357-12.825 11.184-30.02 5.432-51.109l2.409-.657c5.962 21.863 4.001 39.78-5.832 53.25-16.87 23.113-50.488 24.833-51.912 24.895z" fill="#b46446"/><g fill="#41aa5a"><path d="M326.829 191.213c1.658 4.318 1.28 8.838-.639 12.266-3.72-1.263-7.026-4.369-8.684-8.686-1.658-4.318-1.28-8.838.64-12.266 3.72 1.262 7.025 4.368 8.683 8.686zM305.771 250.902c1.84 3.035 2.322 7.106.961 11.056-1.273 3.692-3.899 6.415-6.944 7.789 2.958-1.55 6.72-1.938 10.409-.665 3.951 1.363 6.858 4.25 8.114 7.57-3.035 1.84-7.105 2.322-11.056.961-3.951-1.363-6.858-4.25-8.114-7.57l.003-.001c-1.823-3.033-2.301-7.087-.944-11.024 1.363-3.952 4.252-6.86 7.571-8.116zM312.971 239.883c2.839 2.131 4.804 5.727 5.013 9.9.196 3.9-1.226 7.407-3.539 9.817 2.166-2.541 5.512-4.304 9.411-4.499 4.173-.209 7.949 1.387 10.352 3.999-2.131 2.839-5.726 4.804-9.901 5.013-4.174.209-7.949-1.387-10.352-3.999l.002-.002c-2.822-2.135-4.777-5.718-4.986-9.877-.208-4.174 1.388-7.948 4-10.352zM316.084 227.462c3.433.901 6.611 3.49 8.379 7.276 1.653 3.539 1.66 7.321.427 10.426 1.047-3.17 3.48-6.066 7.017-7.718 3.786-1.769 7.884-1.715 11.096-.203-.901 3.433-3.49 6.611-7.277 8.379-3.786 1.769-7.884 1.715-11.096.203l.002-.004c-3.42-.91-6.583-3.49-8.345-7.263-1.768-3.787-1.715-7.885-.203-11.096zM314.319 215.135c3.532-.351 7.412.968 10.389 3.901 2.782 2.741 4.107 6.285 4.034 9.623-.123-3.336 1.149-6.898 3.889-9.679 2.932-2.977 6.793-4.354 10.329-4.057.351 3.532-.968 7.412-3.901 10.389s-6.793 4.354-10.329 4.057v-.005c-3.523.339-7.386-.977-10.353-3.9-2.979-2.932-4.357-6.792-4.058-10.329z"/><path d="M311.821 203.403c3.425-.931 7.471-.272 10.892 2.128 3.197 2.243 5.09 5.518 5.571 8.824-.673-3.271-.008-6.994 2.233-10.189 2.399-3.421 5.978-5.418 9.515-5.71.931 3.425.272 7.471-2.128 10.892s-5.978 5.418-9.515 5.71v-.003c-3.418.915-7.446.256-10.856-2.136-3.424-2.4-5.421-5.978-5.712-9.516z"/></g><g fill="#ffe15a"><path d="M308.305 267.483a2.607 2.607 0 0 0 3.169 3.169 2.584 2.584 0 0 0 1.876-1.876 2.608 2.608 0 0 0-3.169-3.17c-.91.22-1.656.966-1.876 1.877zM296.341 268.939a2.607 2.607 0 0 0 3.169 3.169 2.584 2.584 0 0 0 1.876-1.876 2.608 2.608 0 0 0-3.169-3.17c-.91.22-1.657.967-1.876 1.877zM315.171 247.821a2.607 2.607 0 0 0 3.169 3.169 2.584 2.584 0 0 0 1.876-1.876 2.607 2.607 0 0 0-3.169-3.169 2.583 2.583 0 0 0-1.876 1.876zM331.713 228.262a2.607 2.607 0 0 0 3.169 3.169 2.584 2.584 0 0 0 1.876-1.876 2.607 2.607 0 0 0-3.169-3.169 2.584 2.584 0 0 0-1.876 1.876zM320.166 215.014a2.608 2.608 0 0 0 3.169 3.17 2.584 2.584 0 0 0 1.876-1.876 2.607 2.607 0 0 0-3.169-3.169 2.581 2.581 0 0 0-1.876 1.875zM324.543 201.442a2.607 2.607 0 0 0 3.169 3.169 2.584 2.584 0 0 0 1.876-1.876 2.608 2.608 0 0 0-3.17-3.17c-.91.22-1.656.967-1.875 1.877z"/></g><path d="M283.647 191.678h-29.836c-9.287 0-16.816 7.528-16.816 16.816v26.283c0 9.288 7.529 16.816 16.816 16.816h29.836c9.287 0 16.816-7.528 16.816-16.816v-26.283c0-9.287-7.529-16.816-16.816-16.816z" fill="#8cd7ff"/><g fill="#f5f5f5"><path d="M273.653 214.552v3.329h-3.33v-3.329h-2.563v3.329h-3.33v-3.329h-2.082v6.658l1.664 2.108v24.525H274v-24.525l1.665-2.108v-6.658zM269.492 204.009c1.647-.798 2.081 2.566 2.081 2.566 3.468-1.734 2.563-4.548 1.734-5.895-1.11-1.803-5.548-2.497-7.421 1.248-1.872 3.745 3.191 11.167 3.191 11.167.276-2.288-1.735-8.044.415-9.086zM290.766 220.759v3.33h-3.33v-3.33h-2.563v3.33h-3.329v-3.33h-2.082v6.659l1.664 2.108v24.524h9.988v-24.524l1.664-2.108v-6.659zM286.605 210.217c1.647-.798 2.081 2.566 2.081 2.566 3.468-1.734 2.563-4.548 1.734-5.895-1.11-1.803-5.548-2.497-7.421 1.248-1.872 3.745 3.191 11.167 3.191 11.167.276-2.288-1.735-8.045.415-9.086zM256.538 220.759v3.33h-3.329v-3.33h-2.563v3.33h-3.329v-3.33h-2.082v6.659l1.664 2.108v24.524h9.988v-24.524l1.665-2.108v-6.659zM252.378 210.217c1.647-.798 2.081 2.566 2.081 2.566 3.468-1.734 2.563-4.548 1.734-5.895-1.11-1.803-5.548-2.497-7.421 1.248-1.872 3.745 3.191 11.167 3.191 11.167.276-2.288-1.735-8.045.415-9.086z"/></g><path d="M296.32 249.618c-2.223-1.1-4.692-1.775-7.339-1.775-2.837 0-5.468.776-7.806 2.029-3.04-3.276-7.347-5.358-12.169-5.358s-9.128 2.082-12.169 5.358c-2.338-1.253-4.969-2.029-7.806-2.029-2.648 0-5.117.675-7.339 1.775 4.753 8.717 13.855 22.803 27.314 28.187 13.461-5.384 22.562-19.47 27.314-28.187z" fill="#6ec86e"/><g fill="#ffe15a"><path d="M268.856 138.058l.15-.075s-.049.014-.15.075zM269.006 137.983l.15.075c-.1-.061-.15-.075-.15-.075zM300.944 152.236c-.936-5.41-7.906-6.346-15.918-6.867-8.01-.52-11.444-5.098-11.444-5.098h-9.155s-3.433 4.577-11.444 5.098c-8.01.52-14.98 1.457-15.918 6.867-.936 5.41 5.93 13.94 5.93 13.94l6.034-4.889s-7.386-7.074-3.745-9.675c3.596-2.568 14.079-.789 18.748-6.955-.198 1.288-.128 2.88.671 4.84 1.525 3.745.971 8.462.971 8.462h6.658s-.555-4.716.971-8.462c.799-1.96.868-3.552.671-4.84 4.669 6.166 15.153 4.387 18.748 6.955 3.641 2.601-3.745 9.675-3.745 9.675l6.034 4.889c.004 0 6.871-8.531 5.933-13.94zM272.404 121.546h-1.734v-1.872a1.665 1.665 0 0 0-3.33 0v1.872h-1.804a1.664 1.664 0 0 0 0 3.329h1.804v4.786a1.665 1.665 0 0 0 3.33 0v-4.786h1.734a1.666 1.666 0 0 0 0-3.329z"/></g><path d="M272.274 130.673a3.334 3.334 0 0 1-3.919 3.918 3.334 3.334 0 0 1-2.616-2.615 3.334 3.334 0 0 1 3.918-3.918 3.335 3.335 0 0 1 2.617 2.615z" fill="#fff0e1"/><g fill="#ffc75a"><path d="M245.148 198.323c1.341.67 2.907 1.248 4.509 1.248 5.516 0 8.219-3.119 8.219-8.635s-3.327-9.675-8.843-9.675c0 0-.622.011-1.619.163-.214.035-.427.067-.636.114-5.302 1.011-18.406 5.898-21.049 29.684-3.694 33.253 23.304 63.253 43.278 69.911v-3.329c-.001.001-47.162-36.064-23.859-79.481z"/><path d="M249.032 184.59l19.974 6.658-19.974 6.659z"/></g><g fill="#ffe15a"><path d="M288.981 197.907l-19.975-6.659 19.975-6.658zM229.037 211.591c2.385-21.466 13.637-25.88 18.484-26.806.106-.024.214-.039.397-.069.609-.093 1.03-.12 1.16-.125 3.65.025 6.056 2.775 6.056 6.104 0 3.671-2.151 5.063-4.3 5.133 0 0 1.734-3.606-1.804-4.577-2.388-.656-5.41 1.248-5.133 4.716.195 2.437 2.508 4.786 5.133 4.786 5.516 0 9.987-3.986 9.987-9.502s-4.472-9.987-9.987-9.987c0 0-.622.011-1.619.163-.214.035-.427.067-.636.114-5.302 1.011-18.406 5.898-21.049 29.684-3.694 33.253 23.304 63.253 43.278 69.911v-3.329s-7.074-3.537-11.91-6.973c-14.941-10.618-30.754-34.965-28.057-59.243z"/></g><g fill="#ffc75a"><path d="M292.864 198.323c-1.341.67-2.907 1.248-4.509 1.248-5.516 0-8.219-3.119-8.219-8.635s3.327-9.675 8.843-9.675c0 0 .622.011 1.619.163.214.035.427.067.636.114 5.302 1.011 18.406 5.898 21.049 29.684 3.694 33.253-23.304 63.253-43.278 69.911v-3.329c.001.001 47.163-36.064 23.859-79.481z"/><path d="M288.981 184.59l-19.975 6.658 19.975 6.659z"/></g><g fill="#ffe15a"><path d="M308.976 211.591c-2.385-21.466-13.637-25.88-18.484-26.806-.106-.024-.215-.039-.397-.069-.609-.093-1.03-.12-1.16-.125-3.65.025-6.056 2.775-6.056 6.104 0 3.671 2.15 5.063 4.3 5.133 0 0-1.734-3.606 1.804-4.577 2.388-.656 5.41 1.248 5.133 4.716-.195 2.437-2.508 4.786-5.133 4.786-5.516 0-9.987-3.986-9.987-9.502s4.472-9.987 9.987-9.987c0 0 .622.011 1.619.163.214.035.427.067.636.114 5.302 1.011 18.406 5.898 21.049 29.684 3.694 33.253-23.304 63.253-43.278 69.911v-3.329s7.074-3.537 11.91-6.973c14.941-10.618 30.754-34.965 28.057-59.243zM272.274 190.597a3.334 3.334 0 0 1-3.919 3.918 3.336 3.336 0 0 1-2.616-2.616 3.334 3.334 0 0 1 3.918-3.918 3.335 3.335 0 0 1 2.617 2.616z"/></g><path d="M292.778 164.512c.884-2.289-.312-5.358-.312-5.358-3.069-.104-5.201 2.133-5.201 2.133.26-2.757-.936-5.253-.936-5.253-3.953.469-5.253 2.809-5.253 2.809-.208-4.317-2.809-6.086-2.809-6.086-3.433 1.041-4.474 4.786-4.474 4.786-.52-4.265-4.786-6.242-4.786-6.242s-4.265 1.977-4.786 6.242c0 0-1.04-3.745-4.474-4.786 0 0-2.601 1.769-2.809 6.086 0 0-1.3-2.341-5.253-2.809 0 0-1.196 2.497-.936 5.253 0 0-2.133-2.236-5.201-2.133 0 0-1.196 3.069-.312 5.358 0 0-3.486-1.093-6.346.572 0 0 5.245 2.029 6.991 4.526h46.252c1.747-2.497 6.991-4.526 6.991-4.526-2.861-1.665-6.346-.572-6.346-.572z" fill="#ffc75a"/><path d="M292.132 169.61c0 1.498-3.5 6.128-3.5 6.128s-11.348 1.58-19.625 1.58c-8.332 0-19.705-1.623-19.705-1.623s-3.421-4.606-3.421-6.086c0-4.257 10.353-7.709 23.126-7.709 12.772.001 23.125 3.452 23.125 7.71z" fill="#ffe15a"/><g fill="#ffc75a"><ellipse cx="269" cy="174.601" rx="19.975" ry="6.658"/><path d="M273.896 137.671c0-2.184-1.63-4.959-4.889-3.017-3.259-1.942-4.889.833-4.889 3.017s-2.497 2.497-2.809 2.289c0 0 2.081 2.705 4.474.936 0 0 1.283 1.872 3.225 1.872 1.942 0 3.225-1.872 3.225-1.872 2.393 1.769 4.474-.936 4.474-.936-.315.209-2.811-.105-2.811-2.289z"/></g><g fill="#b46446"><path d="M262.346 299.027c-.187 0-.377-.042-.555-.133a1.247 1.247 0 0 1-.56-1.675l6.658-13.316a1.25 1.25 0 0 1 2.235 1.12l-6.658 13.316a1.257 1.257 0 0 1-1.12.688z"/><path d="M275.667 299.027c-.458 0-.899-.254-1.118-.69l-6.658-13.316a1.246 1.246 0 0 1 .56-1.675 1.245 1.245 0 0 1 1.675.555l6.658 13.316a1.246 1.246 0 0 1-.56 1.675 1.212 1.212 0 0 1-.557.135z"/></g><g fill="#f5f5f5"><path d="M298.968 287.376a137.364 137.364 0 0 1-59.924 0v-12.889a137.364 137.364 0 0 0 59.924 0v12.889z"/><path d="M255.551 282.523c-12.742 2.458-25.798 3.133-38.791 1.919.219 1.716 10.493 6.818 10.493 6.818s-9.066 4.382-8.864 5.968a137.301 137.301 0 0 0 37.16-1.597v-13.108h.002zM282.51 282.523c12.742 2.458 25.798 3.133 38.791 1.919-.219 1.716-10.493 6.818-10.493 6.818s9.066 4.382 8.864 5.968a137.31 137.31 0 0 1-37.161-1.597v-13.108h-.001z"/></g><path d="M19.174 488.73C8.585 488.73 0 480.146 0 469.556V42.288c0-10.502 8.514-19.016 19.016-19.016h.158c10.589 0 19.174 8.585 19.174 19.174v427.111c-.001 10.589-8.585 19.173-19.174 19.173z" fill="#2e3033"/></svg>