<svg xmlns="http://www.w3.org/2000/svg" viewBox="0 0 512.001 512.001"><path d="M503.602 369.367H36.488a8.398 8.398 0 0 1-8.398-8.398V60.719a8.398 8.398 0 0 1 8.398-8.398h467.115a8.398 8.398 0 0 1 8.398 8.398v300.249a8.4 8.4 0 0 1-8.399 8.399z" fill="#f5f5f5"/><g fill="#ff4b55"><path d="M28.09 85.69H512v33.373H28.09zM28.09 302.62H512v33.373H28.09zM262.959 185.168l11.744 15.364 18.339-6.139c1.026-.343 1.898.817 1.284 1.707l-10.983 15.918 11.505 15.545c.643.869-.19 2.057-1.226 1.748l-18.532-5.527-11.228 15.746c-.628.881-2.016.455-2.042-.626l-.471-19.333-18.445-5.813c-1.031-.325-1.055-1.776-.036-2.135l18.241-6.422-.171-19.338c-.008-1.082 1.365-1.554 2.021-.695zM202.457 270.951c-33.17 0-60.078-26.907-60.078-60.107 0-33.139 26.908-60.106 60.078-60.106 12.341 0 23.722 3.796 33.206 10.219 1.453.984 3.11-.925 1.894-2.189-14.175-14.737-34.236-23.727-56.48-22.968-38.215 1.304-69.852 31.943-72.293 70.103-2.797 43.708 31.812 80.032 74.902 80.032 21.226 0 40.302-8.873 53.924-23.062 1.204-1.253-.458-3.133-1.896-2.158-9.496 6.436-20.895 10.236-33.257 10.236z"/></g><path d="M19.026 486.943C8.519 486.943 0 478.425 0 467.917V43.929c0-10.422 8.448-18.871 18.87-18.871h.156c10.508 0 19.026 8.519 19.026 19.026v423.831c.001 10.51-8.518 19.028-19.026 19.028z" fill="#2e3033"/></svg>