<svg xmlns="http://www.w3.org/2000/svg" viewBox="0 0 512 512"><path d="M503.6 373.9H35.4c-4.6 0-8.4-3.8-8.4-8.4v-301c0-4.6 3.8-8.4 8.4-8.4h468.2c4.6 0 8.4 3.8 8.4 8.4v300.9c0 4.7-3.8 8.5-8.4 8.5z" fill="#41479b"/><path d="M30.8 372.3L512 173.2v-58.5L27 365.5c0 2.9 1.5 5.3 3.8 6.8z" fill="#f5f5f5"/><path d="M508.8 58.1L27 357.2v8.4l485-250.9V64.5c0-2.6-1.3-4.9-3.2-6.4z" fill="#ff9b55"/><path fill="#f5f5f5" d="M165.2 171.6l54.1-6.8-54.1-6.7 27.4-16.9-34.1 8.4 20.8-28.3-28.4 20.7 8.4-34.1-16.8 27.4-6.8-54.1-6.8 54.1-16.8-27.4 8.4 34.1-28.4-20.7 20.8 28.3-34.1-8.4 27.4 16.9-54.1 6.7 54.1 6.8-27.4 16.8 34.1-8.3-20.8 28.3 28.4-20.8-8.4 34.2 16.8-27.5 6.8 54.1 6.8-54.1 16.8 27.5-8.4-34.2 28.4 20.8-20.8-28.3 34.1 8.3z"/><path d="M18.9 485.2C8.5 485.2 0 476.7 0 466.3V45.5c0-10.3 8.4-18.7 18.7-18.7h.2c10.4 0 18.9 8.5 18.9 18.9v420.6c0 10.4-8.5 18.9-18.9 18.9z" fill="#2e3033"/></svg>