<svg xmlns="http://www.w3.org/2000/svg" viewBox="0 0 512 512"><path d="M512 294.786H27.43v70.929a8.44 8.44 0 0 0 8.44 8.44h467.69a8.44 8.44 0 0 0 8.44-8.44v-70.929z" fill="#ff4b55"/><path d="M512 215.417H27.43V65.118a8.44 8.44 0 0 1 8.44-8.44h467.69a8.44 8.44 0 0 1 8.44 8.44v150.299z" fill="#ffe15a"/><path fill="#41479b" d="M27.43 215.418H512v79.37H27.43z"/><path d="M260.998 220.105l61.026-52.307V243.5c0 12.758-10.342 23.101-23.101 23.101a23.1 23.1 0 0 1-15.454-5.93l-22.471-20.223v-20.343z" fill="#ffe15a"/><path d="M293.188 249.87l-17.661-15.895v-26.324l31.966-27.4v63.248c0 4.726-3.844 8.571-8.571 8.571a8.551 8.551 0 0 1-5.734-2.2z" fill="#ff4b55"/><path d="M284.246 200.178v29.923l14.53 13.119v-55.497l8.717-7.473v63.248c0 4.726-3.844 8.571-8.571 8.571a8.557 8.557 0 0 1-5.734-2.201l-17.661-15.895v-26.324l8.719-7.471z" fill="#41479b"/><path d="M278.434 220.105l-61.026-52.307V243.5c0 12.758 10.342 23.101 23.1 23.101a23.1 23.1 0 0 0 15.454-5.93l22.471-20.223.001-20.343z" fill="#ffe15a"/><path d="M246.242 249.87l17.661-15.895v-26.324l-31.966-27.4v63.248c0 4.726 3.846 8.571 8.571 8.571a8.55 8.55 0 0 0 5.734-2.2z" fill="#ff4b55"/><g fill="#41479b"><path d="M255.186 200.178v29.923l-14.53 13.119v-55.497l-8.717-7.473v63.248c0 4.726 3.845 8.571 8.571 8.571a8.557 8.557 0 0 0 5.734-2.201l17.661-15.895v-26.324l-8.719-7.471zM319.91 168.048h4.177v25.03h-4.177zM215.31 168.048h4.178v25.03h-4.178z"/></g><g fill="#5a4646"><path d="M260.998 156.173s5.812-27.606-14.53-23.974-20.342 9.444-43.59 21.068c0 0 26.154 5.812 37.778 2.907 0 0 8.717 11.624 17.436 14.53h8.717l-5.811-14.531zM278.434 156.173s-5.812-27.606 14.53-23.974 20.342 9.444 43.59 21.068c0 0-26.154 5.812-37.778 2.907 0 0-8.717 11.624-17.436 14.53h-8.717l5.811-14.531z"/><path d="M278.434 170.704h-17.436v-14.55a8.699 8.699 0 0 1 8.699-8.699h.039a8.698 8.698 0 0 1 8.698 8.699v14.55z"/></g><path d="M275.379 154.844a5.826 5.826 0 0 1-6.995 6.995 5.768 5.768 0 0 1-4.334-4.334 5.826 5.826 0 0 1 6.995-6.995 5.76 5.76 0 0 1 4.334 4.334z" fill="#e6e1cd"/><path d="M257.244 152.419l10.928 5.835a2.36 2.36 0 0 0 2.781-3.752l-7.05-7.05h-1.695a4.97 4.97 0 0 0-4.964 4.967z" fill="#ffd0af"/><path d="M261.033 153.267h-8.754l3.831-4.485a3.787 3.787 0 0 1 2.879-1.327h4.914v2.942a2.87 2.87 0 0 1-2.87 2.87z" fill="#ffaf94"/><g fill="#8cb400"><path d="M294.498 170.71c-1.961-2.327-2.379-5.411-1.423-8.083 2.796-.488 5.765.446 7.725 2.774 1.675 1.988 2.161 4.518 1.689 6.882.58.986 1.29 2.255 2.072 3.751.039-.213.031-.424.091-.637.685-2.409 2.596-4.115 4.86-4.693 1.621 1.683 2.349 4.139 1.665 6.547-.589 2.073-2.108 3.574-3.956 4.336a80.958 80.958 0 0 1 2.126 5.386c.039-.112.041-.226.087-.337.946-2.319 3.034-3.803 5.348-4.129 1.425 1.85 1.879 4.372.934 6.691-.828 2.03-2.546 3.367-4.508 3.9 1.011 3.987 1.681 8.217 1.681 12.476h-2.905c0-3.712-.57-7.429-1.43-10.987-1.794.579-3.797.456-5.531-.607-2.116-1.297-3.234-3.575-3.181-5.89 2.038-1.098 4.576-1.138 6.693.158.076.046.128.115.202.165a79.287 79.287 0 0 0-1.965-5.078c-1.744.824-3.797.952-5.68.066-2.246-1.055-3.607-3.198-3.811-5.504 1.899-1.311 4.407-1.63 6.648-.587a84.78 84.78 0 0 0-2.087-3.787c-2.011-.223-3.939-1.145-5.344-2.813zM244.932 170.71c1.961-2.327 2.379-5.411 1.423-8.083-2.796-.488-5.765.446-7.725 2.774-1.675 1.988-2.161 4.518-1.689 6.882-.58.986-1.29 2.255-2.072 3.751-.039-.213-.031-.424-.091-.637-.685-2.409-2.596-4.115-4.86-4.693-1.62 1.683-2.35 4.139-1.665 6.547.59 2.073 2.108 3.574 3.956 4.336a80.958 80.958 0 0 0-2.126 5.386c-.039-.112-.041-.226-.087-.337-.946-2.319-3.034-3.803-5.348-4.129-1.425 1.85-1.879 4.372-.934 6.691.828 2.03 2.546 3.367 4.508 3.9-1.011 3.987-1.681 8.217-1.681 12.476h2.907c0-3.712.57-7.429 1.43-10.987 1.794.579 3.797.456 5.531-.607 2.116-1.297 3.234-3.575 3.181-5.89-2.038-1.098-4.577-1.138-6.693.158-.076.046-.128.115-.201.165a78.699 78.699 0 0 1 1.965-5.078c1.744.824 3.797.952 5.68.066 2.246-1.055 3.607-3.198 3.811-5.504-1.899-1.311-4.407-1.63-6.648-.587a84.78 84.78 0 0 1 2.087-3.787c2.009-.223 3.937-1.145 5.341-2.813z"/></g><path d="M269.715 234.635l-61.026-52.307v75.702c0 12.758 10.342 23.101 23.1 23.101a23.1 23.1 0 0 0 15.454-5.93l22.471-20.223v-20.343h.001z" fill="#ffe15a"/><path d="M237.525 264.4l17.661-15.895v-26.324l-31.966-27.4v63.248c0 4.726 3.846 8.571 8.571 8.571a8.561 8.561 0 0 0 5.734-2.2z" fill="#ff4b55"/><path d="M246.467 214.708v29.923l-14.53 13.119v-55.496l-8.717-7.473v63.248c0 4.726 3.846 8.571 8.571 8.571a8.555 8.555 0 0 0 5.734-2.201l17.661-15.895V222.18l-8.719-7.472z" fill="#41479b"/><path d="M269.715 234.635l61.026-52.307v75.702c0 12.758-10.342 23.101-23.101 23.101a23.1 23.1 0 0 1-15.454-5.93l-22.471-20.223v-20.343z" fill="#ffe15a"/><path d="M301.905 264.4l-17.661-15.895v-26.324l31.966-27.4v63.248c0 4.726-3.845 8.571-8.571 8.571a8.567 8.567 0 0 1-5.734-2.2z" fill="#ff4b55"/><path d="M292.963 214.708v29.923l14.53 13.119v-55.496l8.718-7.473v63.248c0 4.726-3.845 8.571-8.571 8.571a8.555 8.555 0 0 1-5.734-2.201l-17.661-15.895V222.18l8.718-7.472z" fill="#41479b"/><ellipse cx="269.71" cy="214.288" rx="29.06" ry="43.593" fill="#69c3ff"/><path d="M243.562 225.916h52.307l2.905-11.624-13.243 2.207a9.096 9.096 0 0 1-7.419-2.068l-15.033-12.886a7.413 7.413 0 0 0-10.065.387l-9.453 9.453.001 14.531z" fill="#009b64"/><path d="M266.958 212.34l4.992-3.189-8.872-7.604a7.413 7.413 0 0 0-10.064.387l-9.453 9.453v2.907l14.53-2.907 2.569 1.285a6.39 6.39 0 0 0 6.298-.332z" fill="#f5f5f5"/><path fill="#5aa0e6" d="M243.562 225.916l2.905 17.436 14.531 14.531h8.717l11.624-2.907 11.624-11.624 2.906-17.436z"/><path d="M269.715 260.788c-17.626 0-31.966-20.859-31.966-46.495s14.34-46.495 31.966-46.495 31.966 20.858 31.966 46.495-14.34 46.495-31.966 46.495zm0-87.179c-14.421 0-26.154 18.251-26.154 40.684s11.733 40.683 26.154 40.683 26.154-18.251 26.154-40.683-11.733-40.684-26.154-40.684z" fill="#ffc88c"/><g fill="#e1e1e1"><path d="M249.215 257.621c-2.437-3.364-6.063-5.551-10.171-5.551s-7.734 2.187-10.171 5.551c4.155 1.151 7.555 4.525 9.165 8.971a17.066 17.066 0 0 1 1.006 5.819c0-7.188 4.343-13.175 10.171-14.79z"/><path d="M241.351 266.789s-.227 3.875-2.213 5.691l-.083-.068c-1.987-1.817-2.213-5.691-2.213-5.691l4.509.068z"/></g><path d="M306.043 268.053h-72.656a1.45 1.45 0 0 1-1.45-1.45v-.006c0-.801.649-1.45 1.45-1.45h72.656c.801 0 1.45.649 1.45 1.45v.006a1.45 1.45 0 0 1-1.45 1.45z" fill="#966446"/><path d="M284.258 272.412h-29.085a5.799 5.799 0 0 1-5.799-5.799v-.025a5.799 5.799 0 0 1 5.799-5.799h29.085a5.799 5.799 0 0 1 5.799 5.799v.025a5.8 5.8 0 0 1-5.799 5.799z" fill="#be915a"/><path d="M243.562 265.148H233.39a1.453 1.453 0 1 0 0 2.906h10.171l.001-2.906z" fill="#b9b9b9"/><path fill="#ff4b55" d="M269.715 272.412v26.551l-11.624-3.304 5.812-23.247z"/><path fill="#41479b" d="M266.81 272.412l-5.812 20.342-11.624-2.906 8.717-17.436z"/><path fill="#ffe15a" d="M255.186 272.412l-8.719 11.624 8.719 2.906 5.812-14.53z"/><path fill="#ff4b55" d="M269.715 272.412v26.551l11.624-3.304-5.812-23.247z"/><path fill="#41479b" d="M272.622 272.412l5.812 20.342 11.623-2.906-8.718-17.436z"/><path fill="#ffe15a" d="M284.246 272.412l8.717 11.624-8.717 2.906-5.812-14.53z"/><g fill="#41479b"><path d="M210.779 207.355l-4.176-4.21v-20.821h4.176zM332.792 203.145l-4.178 4.21v-25.031h4.178z"/></g><path d="M19.122 488.101C8.561 488.101 0 479.539 0 468.979V42.864C0 32.39 8.491 23.899 18.965 23.899h.157c10.561 0 19.122 8.561 19.122 19.122v425.958c0 10.56-8.561 19.122-19.122 19.122z" fill="#2e3033"/></svg>