<svg xmlns="http://www.w3.org/2000/svg" viewBox="0 0 512 512"><path d="M184.263 374.657H28.871a8.476 8.476 0 0 1-8.476-8.476V61.048a8.476 8.476 0 0 1 8.476-8.476h155.392v322.085z" fill="#73af00"/><path fill="#ff4b55" d="M184.27 52.57h163.87v322.08H184.27z"/><g fill="#ffe15a"><path d="M503.524 374.657H348.132V52.572h155.392A8.476 8.476 0 0 1 512 61.048v305.133a8.476 8.476 0 0 1-8.476 8.476zM267.958 182.547l7.282 21.835 23.016.178c1.783.014 2.523 2.29 1.088 3.349l-18.516 13.673 6.943 21.945c.538 1.7-1.397 3.106-2.849 2.069l-18.725-13.385-18.725 13.385c-1.45 1.037-3.386-.37-2.849-2.069l6.943-21.945-18.516-13.673c-1.435-1.059-.695-3.335 1.088-3.349l23.016-.178 7.282-21.835c.565-1.692 2.957-1.692 3.522 0z"/></g><path d="M19.203 489.087C8.598 489.087 0 480.49 0 469.884V41.958c0-10.519 8.527-19.045 19.045-19.045h.158c10.606 0 19.203 8.598 19.203 19.203v427.768c.001 10.606-8.597 19.203-19.203 19.203z" fill="#2e3033"/></svg>