<svg xmlns="http://www.w3.org/2000/svg" viewBox="0 0 512 512"><g fill="#ff4b55"><path d="M512 123.515H27.43V65.118a8.44 8.44 0 0 1 8.44-8.44h467.69a8.44 8.44 0 0 1 8.44 8.44v58.397zM503.56 374.155H35.87a8.44 8.44 0 0 1-8.44-8.44v-58.398H512v58.398a8.44 8.44 0 0 1-8.44 8.44z"/></g><path fill="#41479b" d="M27.43 123.518H512v183.8H27.43z"/><path d="M336.518 213.229c1.233 38.643-30.347 70.223-68.99 68.99-34.996-1.117-63.498-29.619-64.615-64.615-1.233-38.643 30.347-70.223 68.99-68.99 34.995 1.117 63.498 29.619 64.615 64.615z" fill="#f5f5f5"/><path d="M19.122 488.101C8.561 488.101 0 479.539 0 468.979V42.864C0 32.39 8.491 23.899 18.965 23.899h.157c10.561 0 19.122 8.561 19.122 19.122v425.958c0 10.56-8.561 19.122-19.122 19.122z" fill="#2e3033"/></svg>