<svg xmlns="http://www.w3.org/2000/svg" viewBox="0 0 512.001 512.001"><path d="M512 214.751H24.345V63.465a8.463 8.463 0 0 1 8.463-8.463h470.73a8.463 8.463 0 0 1 8.463 8.463v151.286H512z" fill="#f5f5f5"/><g fill="#ff4b55"><path d="M24.345 214.751H512v151.286a8.463 8.463 0 0 1-8.463 8.463H32.807a8.463 8.463 0 0 1-8.463-8.463V214.751h.001zM192.502 105.448c-60.366 0-109.302 48.937-109.302 109.302h218.604c-.001-60.365-48.937-109.302-109.302-109.302z"/></g><path d="M192.502 324.053c60.366 0 109.302-48.937 109.302-109.302H83.2c0 60.366 48.936 109.302 109.302 109.302z" fill="#f5f5f5"/><path d="M19.174 488.73C8.585 488.73 0 480.146 0 469.556V42.288c0-10.502 8.514-19.016 19.016-19.016h.158c10.589 0 19.174 8.585 19.174 19.174v427.111c-.001 10.589-8.585 19.173-19.174 19.173z" fill="#2e3033"/></svg>