<svg xmlns="http://www.w3.org/2000/svg" viewBox="0 0 512.001 512.001"><path d="M503.602 373.59H36.488a8.398 8.398 0 0 1-8.398-8.398V64.942a8.398 8.398 0 0 1 8.398-8.398h467.115a8.398 8.398 0 0 1 8.398 8.398v300.249a8.4 8.4 0 0 1-8.399 8.399z" fill="#41479b"/><path fill="#ffe15a" d="M28.09 273.47H512v41.717H28.09z"/><g fill="#f5f5f5"><path d="M140.509 134.605l-8.206 24.606-25.937.2c-2.487.019-3.519 3.193-1.518 4.671l20.866 15.408-7.824 24.73c-.751 2.371 1.949 4.333 3.973 2.887l21.102-15.083 21.102 15.083c2.024 1.447 4.724-.515 3.973-2.887l-7.824-24.73 20.866-15.408c2.001-1.478.97-4.651-1.518-4.671l-25.937-.202-8.207-24.606c-.786-2.358-4.124-2.358-4.911.002zM81.389 89.198l-4.75 14.242-15.013.117c-1.439.012-2.036 1.849-.879 2.704l12.077 8.919-4.529 14.314c-.435 1.373 1.128 2.508 2.3 1.671l12.214-8.731 12.214 8.731c1.172.838 2.735-.298 2.3-1.671l-4.529-14.314 12.077-8.919c1.158-.856.562-2.693-.879-2.704l-15.012-.117-4.75-14.242c-.454-1.365-2.386-1.365-2.841 0z"/></g><path d="M19.026 486.943C8.519 486.943 0 478.424 0 467.916V43.928c0-10.422 8.448-18.87 18.87-18.87h.156c10.508 0 19.026 8.519 19.026 19.026v423.831c.001 10.509-8.518 19.028-19.026 19.028z" fill="#2e3033"/></svg>