<svg xmlns="http://www.w3.org/2000/svg" viewBox="0 0 512 512"><path d="M512 79.355H27.43V65.118a8.44 8.44 0 0 1 8.44-8.44h467.69a8.44 8.44 0 0 1 8.44 8.44v14.237z" fill="#ff4b55"/><path fill="#f5f5f5" d="M27.43 79.358H512v22.677H27.43z"/><path fill="#ff4b55" d="M27.43 102.028H512v22.677H27.43z"/><path fill="#f5f5f5" d="M27.43 124.708H512v22.677H27.43z"/><path fill="#ff4b55" d="M27.43 147.388H512v22.677H27.43z"/><path fill="#f5f5f5" d="M27.43 170.068H512v22.677H27.43z"/><path fill="#ff4b55" d="M27.43 192.738H512v22.677H27.43z"/><path fill="#f5f5f5" d="M27.43 215.418H512v22.677H27.43z"/><path fill="#ff4b55" d="M512 260.77H27.43v-36.999h8.355l.002 14.322H512z"/><path fill="#f5f5f5" d="M27.43 260.778H512v22.677H27.43z"/><path fill="#ff4b55" d="M27.43 283.448H512v22.677H27.43z"/><path fill="#f5f5f5" d="M27.43 306.118H512v22.677H27.43z"/><path fill="#ff4b55" d="M27.43 328.798H512v22.677H27.43z"/><path d="M503.56 374.155H35.87a8.44 8.44 0 0 1-8.44-8.44v-14.237H512v14.237a8.44 8.44 0 0 1-8.44 8.44z" fill="#f5f5f5"/><path d="M319.758 238.093H35.87a8.44 8.44 0 0 1-8.44-8.44V65.118a8.44 8.44 0 0 1 8.44-8.44h283.888a8.44 8.44 0 0 1 8.44 8.44v164.535a8.44 8.44 0 0 1-8.44 8.44z" fill="#41479b"/><g fill="#ffe15a"><path d="M106.799 147.294c0-31.598 25.647-57.231 57.216-57.231a56.95 56.95 0 0 1 22.375 4.556c.893.381 1.566-.862.763-1.408-11.381-7.748-25.299-11.992-40.228-11.217-32.821 1.706-59.659 28.142-61.781 60.939-2.468 38.149 27.719 69.752 65.265 69.752 13.567 0 26.18-4.181 36.654-11.269.806-.545.138-1.791-.759-1.411a56.91 56.91 0 0 1-22.288 4.52c-31.569.001-57.217-25.63-57.217-57.231"/><path d="M237.595 147.294l24.189-9.36c1.196-.463.788-2.248-.491-2.146l-25.844 2.07 17.761-18.985c.876-.936-.266-2.366-1.373-1.721l-22.446 13.095 7.748-24.773c.383-1.224-1.266-2.016-1.983-.955l-14.532 21.527-3.728-25.694c-.184-1.269-2.015-1.27-2.201-.001l-2.381 16.258-.989 6.88-.381 2.557-14.532-21.508c-.717-1.062-2.367-.267-1.982.956l7.776 24.753-22.446-13.095c-1.107-.646-2.248.785-1.373 1.721l17.76 18.986-25.851-2.07c-1.279-.102-1.687 1.684-.49 2.146l24.21 9.359-24.211 9.361c-1.196.462-.789 2.248.49 2.146l25.853-2.07-17.761 19.033c-.875.937.269 2.366 1.375 1.719l22.444-13.141-7.776 24.754c-.384 1.224 1.265 2.018 1.982.956l14.532-21.508.381 2.619.989 6.82 2.382 16.301c.186 1.269 2.017 1.268 2.202-.001l3.727-25.737 14.532 21.527c.717 1.062 2.366.269 1.983-.955l-7.748-24.774 22.445 13.141c1.107.648 2.25-.782 1.375-1.719l-17.762-19.033 25.847 2.07c1.279.102 1.686-1.683.491-2.146l-24.193-9.363z"/></g><path d="M19.122 488.101C8.561 488.101 0 479.539 0 468.979V42.864C0 32.39 8.491 23.899 18.965 23.899h.157c10.561 0 19.122 8.561 19.122 19.122v425.958c0 10.56-8.561 19.122-19.122 19.122z" fill="#2e3033"/></svg>