<svg xmlns="http://www.w3.org/2000/svg" viewBox="0 0 512 512"><path d="M503.56 374.155H35.87a8.44 8.44 0 0 1-8.44-8.44V65.118a8.44 8.44 0 0 1 8.44-8.44h467.69a8.44 8.44 0 0 1 8.44 8.44v300.597a8.44 8.44 0 0 1-8.44 8.44z" fill="#41479b"/><path d="M261.36 56.677h-14.512l-77.389 50.704V56.677h-41.773v50.704L50.298 56.677H35.785a8.354 8.354 0 0 0-8.355 8.355v6.626l66.397 43.501H27.43v41.773h66.397L27.43 200.434v6.626a8.355 8.355 0 0 0 8.355 8.355h14.512l77.389-50.704v50.704h41.773v-50.704l77.389 50.704h14.512a8.355 8.355 0 0 0 8.355-8.355v-6.626l-66.396-43.501h66.396V115.16h-66.396l66.396-43.501v-6.626a8.356 8.356 0 0 0-8.355-8.356z" fill="#f5f5f5"/><g fill="#ff4b55"><path d="M269.715 123.515H161.104V56.677h-25.063v66.838H27.43v25.064h108.611v66.838h25.063v-66.838h108.611z"/><path d="M119.332 115.161l-87.92-57.07c-2.34 1.48-3.982 3.968-3.982 6.942v.434l76.556 49.695 15.346-.001zM184.804 115.161l83.64-54.293c-1.454-2.46-4.019-4.19-7.083-4.19h-1.807l-90.094 58.483h15.344zM112.111 156.933l-83.479 54.188c1.439 2.52 4.044 4.295 7.153 4.295h1.576l90.095-58.483h-15.345zM269.582 207.718l-78.237-50.785H176l88.844 57.67c2.662-1.234 4.488-3.822 4.738-6.885zM401.717 321.522a1.7 1.7 0 0 1-.971-.31l-9.889-7.065-9.889 7.065a1.672 1.672 0 0 1-2.566-1.869l3.667-11.585-9.775-7.212a1.675 1.675 0 0 1-.599-1.86 1.678 1.678 0 0 1 1.578-1.158l12.153-.098 3.842-11.528a1.683 1.683 0 0 1 1.587-1.143c.718 0 1.359.465 1.587 1.143l3.843 11.528 12.153.098a1.677 1.677 0 0 1 1.578 1.158 1.674 1.674 0 0 1-.599 1.86l-9.775 7.212 3.667 11.585a1.684 1.684 0 0 1-.612 1.86c-.29.213-.637.319-.98.319z"/></g><path d="M390.858 286.431l4.223 12.661 13.347.103-10.737 7.928 4.026 12.725-10.858-7.762-10.858 7.762 4.026-12.725-10.737-7.928 13.347-.103 4.221-12.661m0-3.342a3.34 3.34 0 0 0-3.17 2.285l-3.467 10.396-10.958.085a3.34 3.34 0 0 0-1.959 6.03l8.816 6.509-3.305 10.448a3.34 3.34 0 0 0 5.129 3.725l8.915-6.372 8.915 6.372a3.34 3.34 0 0 0 5.129-3.725l-3.305-10.448 8.816-6.509a3.343 3.343 0 0 0-1.959-6.03l-10.958-.085-3.467-10.396a3.346 3.346 0 0 0-3.172-2.285z" fill="#f5f5f5"/><path d="M401.717 186.827c-.343 0-.682-.105-.971-.31l-9.889-7.074-9.889 7.074c-.29.204-.632.31-.971.31-.343 0-.69-.105-.983-.319a1.684 1.684 0 0 1-.612-1.86l3.667-11.585-9.775-7.22a1.679 1.679 0 0 1-.599-1.86 1.682 1.682 0 0 1 1.578-1.158l12.153-.09 3.842-11.528a1.683 1.683 0 0 1 1.587-1.143c.718 0 1.359.465 1.587 1.143l3.843 11.528 12.153.09a1.681 1.681 0 0 1 1.578 1.158 1.679 1.679 0 0 1-.599 1.86l-9.775 7.22 3.667 11.585a1.684 1.684 0 0 1-.612 1.86c-.29.214-.637.319-.98.319z" fill="#ff4b55"/><path d="M390.858 151.733l4.223 12.661 13.347.103-10.737 7.928 4.026 12.725-10.858-7.761-10.858 7.761 4.026-12.725-10.737-7.928 13.347-.103 4.221-12.661m0-3.341a3.34 3.34 0 0 0-3.17 2.285l-3.467 10.395-10.958.085a3.34 3.34 0 0 0-1.959 6.03l8.816 6.509-3.305 10.448a3.341 3.341 0 0 0 5.129 3.726l8.915-6.372 8.915 6.372a3.34 3.34 0 0 0 5.129-3.726l-3.305-10.448 8.816-6.509a3.343 3.343 0 0 0-1.959-6.03l-10.958-.085-3.467-10.395a3.346 3.346 0 0 0-3.172-2.285z" fill="#f5f5f5"/><path d="M460.2 228.601a1.69 1.69 0 0 1-.971-.31l-9.889-7.074-9.889 7.074c-.29.204-.632.31-.971.31-.343 0-.689-.107-.983-.319a1.684 1.684 0 0 1-.612-1.86l3.667-11.585-9.775-7.22a1.679 1.679 0 0 1-.599-1.86 1.682 1.682 0 0 1 1.579-1.158l12.153-.09 3.842-11.528a1.683 1.683 0 0 1 1.587-1.143c.718 0 1.359.465 1.587 1.143l3.842 11.528 12.153.09a1.683 1.683 0 0 1 1.579 1.158 1.68 1.68 0 0 1-.6 1.86l-9.775 7.22 3.667 11.585a1.684 1.684 0 0 1-.612 1.86 1.67 1.67 0 0 1-.98.319z" fill="#ff4b55"/><path d="M449.34 193.507l4.223 12.661 13.347.103-10.737 7.928 4.026 12.725-10.858-7.761-10.858 7.761 4.026-12.725-10.737-7.928 13.347-.103 4.221-12.661m0-3.342a3.34 3.34 0 0 0-3.17 2.285l-3.467 10.395-10.958.085a3.34 3.34 0 0 0-1.959 6.03l8.815 6.509-3.305 10.448a3.341 3.341 0 0 0 5.129 3.726l8.915-6.372 8.915 6.372a3.343 3.343 0 0 0 3.907-.014 3.343 3.343 0 0 0 1.222-3.712l-3.305-10.448 8.815-6.509a3.343 3.343 0 0 0-1.959-6.03l-10.958-.085-3.467-10.395a3.34 3.34 0 0 0-3.17-2.285z" fill="#f5f5f5"/><path d="M343.235 245.31c-.343 0-.682-.105-.971-.31l-9.889-7.074-9.888 7.074c-.29.204-.632.31-.971.31-.343 0-.69-.105-.983-.319a1.684 1.684 0 0 1-.612-1.86l3.667-11.586-9.775-7.22a1.679 1.679 0 0 1-.599-1.86 1.682 1.682 0 0 1 1.578-1.158l12.153-.09 3.843-11.528a1.682 1.682 0 0 1 1.587-1.143c.718 0 1.359.465 1.587 1.143l3.842 11.528 12.153.09a1.682 1.682 0 0 1 1.578 1.158 1.68 1.68 0 0 1-.599 1.86l-9.775 7.22 3.667 11.586a1.684 1.684 0 0 1-.612 1.86 1.66 1.66 0 0 1-.981.319z" fill="#ff4b55"/><path d="M332.375 210.216l4.223 12.661 13.347.103-10.737 7.928 4.026 12.725-10.858-7.761-10.858 7.761 4.026-12.725-10.737-7.928 13.347-.103 4.221-12.661m0-3.342a3.34 3.34 0 0 0-3.17 2.285l-3.467 10.395-10.958.085a3.34 3.34 0 0 0-1.959 6.03l8.816 6.509-3.305 10.448a3.341 3.341 0 0 0 5.129 3.726l8.915-6.372 8.915 6.372a3.343 3.343 0 0 0 3.907-.014 3.342 3.342 0 0 0 1.222-3.712l-3.305-10.448 8.816-6.509a3.343 3.343 0 0 0-1.959-6.03l-10.958-.085-3.467-10.395a3.346 3.346 0 0 0-3.172-2.285z" fill="#f5f5f5"/><path d="M19.122 488.1C8.561 488.1 0 479.539 0 468.979V42.864C0 32.39 8.491 23.9 18.965 23.9h.157c10.561 0 19.122 8.561 19.122 19.122V468.98c0 10.559-8.561 19.12-19.122 19.12z" fill="#2e3033"/></svg>