<svg xmlns="http://www.w3.org/2000/svg" viewBox="0 0 512 512"><path d="M503.527 60.901H266.271v321.99h237.256a8.472 8.472 0 0 0 8.473-8.473V69.374a8.472 8.472 0 0 0-8.473-8.473z" fill="#f5f5f5"/><path d="M29.014 382.891H266.27V60.901H29.014a8.473 8.473 0 0 0-8.473 8.473v305.043a8.473 8.473 0 0 0 8.473 8.474z" fill="#ffe15a"/><g fill="#ebebeb"><path d="M412.429 143.908l-.563 1.126c1.819.931 2.858 1.991 2.858 3.118l-.283-5.596a2.441 2.441 0 0 1-2.012 1.352zM368.439 145.034l-.563-1.126a2.448 2.448 0 0 1-2.014-1.352l-.283 5.596c0-1.127 1.04-2.187 2.86-3.118zM368.037 139.025c1.357 0 2.457 1.1 2.457 2.457 0 .491-.181.923-.43 1.307l.647 1.294c1.854-.651 4.14-1.206 6.745-1.634l-.276-1.106c-1.016-.302-1.771-1.205-1.771-2.319a2.457 2.457 0 1 1 4.914 0c0 .692-.291 1.312-.752 1.759l.328 1.312a76.373 76.373 0 0 1 4.295-.408 6.11 6.11 0 0 1-.186-1.434 6.143 6.143 0 0 1 12.286 0c0 .496-.075.972-.186 1.434 1.49.101 2.926.238 4.295.408l.328-1.312a2.442 2.442 0 0 1-.752-1.759 2.457 2.457 0 1 1 4.914 0c0 1.114-.755 2.017-1.771 2.319l-.276 1.106c2.606.429 4.89.982 6.745 1.634l.647-1.294c-.248-.384-.43-.816-.43-1.307 0-1.357 1.1-2.457 2.457-2.457.885 0 1.625.493 2.058 1.194l-.189-3.747c-2.426-2.755-12.235-4.818-23.983-4.818s-21.558 2.063-23.983 4.818l-.189 3.747c.433-.701 1.173-1.194 2.058-1.194z"/></g><path d="M393.988 110.119a4.868 4.868 0 0 0 1.079-3.037c0-2.288-1.57-4.193-3.686-4.741v-3.007c.722-.429 1.228-1.181 1.228-2.081a2.457 2.457 0 1 0-4.914 0c0 .9.507 1.652 1.228 2.081v3.007c-2.116.548-3.686 2.453-3.686 4.741 0 1.152.414 2.199 1.079 3.037 1.251-.342 2.522-.581 3.836-.581s2.586.238 3.836.581z" fill="#e6b432"/><path d="M379.854 122.558l-.219-.872c-1.016-.302-1.771-1.205-1.771-2.319a2.457 2.457 0 1 1 4.914 0c0 .692-.291 1.312-.752 1.759l.277 1.108a73.011 73.011 0 0 1 7.847-.409 3.686 3.686 0 1 1 0-7.373 3.686 3.686 0 0 1 0 7.373c2.791 0 5.441.147 7.847.409l.277-1.108a2.442 2.442 0 0 1-.752-1.759 2.457 2.457 0 1 1 4.914 0c0 1.114-.755 2.017-1.771 2.319l-.219.872c1.248.193 2.41.416 3.453.672l1.811-3.623c-3.134-4.857-7.183-8.245-11.726-9.488-1.249-.342-2.522-.581-3.836-.581-1.313 0-2.586.239-3.836.581-4.543 1.244-8.592 4.632-11.726 9.488l1.811 3.623a41.622 41.622 0 0 1 3.457-.672z" fill="#ebebeb"/><g fill="#e6b432"><path d="M387.695 323.774v-5.366c0-.575.081-1.128.206-1.664-.065-.043-.138-.072-.206-.112a4.866 4.866 0 0 0-2.457-.681c-.9 0-1.732.259-2.457.681-1.463.851-2.457 2.418-2.457 4.232 0 1.322.528 2.516 1.377 3.399 1.054-.582 2.248-.942 3.537-.942.866.002 1.685.179 2.457.453zM392.609 304.346c-1.463.851-2.457 2.418-2.457 4.234 0 1.322.528 2.516 1.377 3.399 1.054-.582 2.248-.942 3.537-.942 1.29 0 2.483.36 3.537.942a4.89 4.89 0 0 0 1.377-3.399c0-1.815-.995-3.382-2.457-4.234a4.866 4.866 0 0 0-2.457-.681c-.899 0-1.732.259-2.457.681z"/></g><path d="M391.529 311.978a7.349 7.349 0 0 0-3.629 4.766 7.304 7.304 0 0 0-.206 1.664v5.366c-.772-.274-1.591-.451-2.457-.451-1.29 0-2.483.36-3.537.942-2.275 1.255-3.834 3.648-3.834 6.43v9.83h14.743v-9.83c0-.867-.177-1.686-.451-2.457h10.281v-9.83c0-2.781-1.56-5.175-3.834-6.43-1.054-.582-2.248-.942-3.537-.942-1.291 0-2.484.36-3.539.942z" fill="#ff4b57"/><g fill="#e6b432"><path d="M392.609 213.157l4.198 4.199 1.436-1.436c.341-.341.764-.517 1.203-.616l20.782-20.787 13.311 13.311 8.688-8.688-3.476-3.476-1.738 1.738-3.476-3.476 1.738-1.738-1.738-1.738 3.476-3.474 1.738 1.738 1.738-1.738 3.476 3.474-1.738 1.738 3.476 3.474 8.688-8.688-13.315-13.315 9.111-9.114a3.68 3.68 0 0 1-1.209-.804l-4.915-4.915a3.669 3.669 0 0 1-.815-1.244l-51.194 51.207c.327.417.553.92.553 1.491v2.873h.002v.004zM386.973 227.783l-6.951-6.951-21.605 21.61a4.914 4.914 0 0 0 3.475 8.39c1.257 0 2.516-.48 3.476-1.44l16.886-16.891 4.719-4.718z"/></g><g fill="#d2d2d2"><path d="M319.894 253.289c.136-.386.225-.795.225-1.227a3.686 3.686 0 1 0-3.686 3.686c.433 0 .842-.088 1.227-.225a24.66 24.66 0 0 1 2.234-2.234zM317.661 287.917a3.628 3.628 0 0 0-1.227-.225 3.686 3.686 0 1 0 3.686 3.686c0-.433-.089-.841-.225-1.227a24.79 24.79 0 0 1-2.234-2.234zM354.523 255.521c.386.136.795.225 1.227.225a3.686 3.686 0 1 0-3.686-3.686c0 .433.089.842.225 1.227a25.187 25.187 0 0 1 2.234 2.234zM352.064 291.378a3.686 3.686 0 0 0 3.686 3.686 3.653 3.653 0 0 0 2.813-1.332 55.605 55.605 0 0 1-6.456-2.787c-.016.144-.043.285-.043.433z"/></g><path d="M346.932 287.819a2.438 2.438 0 0 1-.947-1.498c-.418.09-.849.143-1.293.143-2.918 0-5.357-2.049-5.98-4.783a3.676 3.676 0 0 1-5.241 0c-.623 2.734-3.061 4.783-5.98 4.783a6.15 6.15 0 0 1-6.143-6.143c0-2.919 2.05-5.357 4.783-5.98a3.674 3.674 0 0 1-1.097-2.62c0-1.026.421-1.953 1.097-2.621-2.732-.623-4.783-3.061-4.783-5.98a6.15 6.15 0 0 1 6.143-6.143c2.918 0 5.357 2.05 5.98 4.783.668-.677 1.595-1.097 2.621-1.097s1.953.42 2.62 1.097c.623-2.733 3.061-4.783 5.98-4.783a6.15 6.15 0 0 1 6.143 6.143c0 2.919-2.05 5.357-4.783 5.98a3.674 3.674 0 0 1 1.097 2.62 3.674 3.674 0 0 1-1.097 2.621c2.732.623 4.783 3.061 4.783 5.98a6.105 6.105 0 0 1-1.095 3.487c.023.016.051.017.074.033 1.59 1.151 3.422 2.221 5.457 3.199a24.853 24.853 0 0 0 1.688-2.408 24.387 24.387 0 0 0 3.312-8.665 24.56 24.56 0 0 0 .393-4.246c0-6.207-2.332-11.868-6.142-16.197a24.639 24.639 0 0 0-2.233-2.233c-4.329-3.81-9.991-6.142-16.197-6.142-6.207 0-11.868 2.333-16.197 6.142a24.639 24.639 0 0 0-2.233 2.233c-3.81 4.331-6.142 9.991-6.142 16.197 0 6.207 2.332 11.868 6.142 16.197a24.768 24.768 0 0 0 2.233 2.233c4.329 3.81 9.991 6.142 16.197 6.142a24.454 24.454 0 0 0 15.568-5.579c-1.71-.902-3.304-1.863-4.728-2.895zm8.157-21.07c.417 1.591.662 3.251.662 4.971s-.244 3.38-.662 4.971a11.016 11.016 0 0 0-3.532-4.971 11.042 11.042 0 0 0 3.532-4.971zm-14.026-14.026a11.016 11.016 0 0 0-4.971 3.532 11.027 11.027 0 0 0-4.971-3.532 19.562 19.562 0 0 1 4.971-.661c1.719 0 3.379.244 4.971.661zm-23.968 14.026a11.016 11.016 0 0 0 3.532 4.971 11.034 11.034 0 0 0-3.532 4.971 19.557 19.557 0 0 1-.662-4.971 19.59 19.59 0 0 1 .662-4.971zm14.025 23.967a11.008 11.008 0 0 0 4.971-3.532 11.021 11.021 0 0 0 4.971 3.532c-1.591.417-3.252.662-4.971.662s-3.379-.245-4.971-.662z" fill="#e6b432"/><g fill="#f0c814"><path d="M332.406 271.72a3.686 3.686 0 0 0-7.372 0 3.67 3.67 0 0 0 1.097 2.62 3.685 3.685 0 0 0 6.275-2.62zM339.777 271.72a3.686 3.686 0 0 0 7.372.001 3.674 3.674 0 0 0-1.097-2.621 3.684 3.684 0 0 0-6.275 2.62zM336.092 268.033a3.686 3.686 0 0 0 0-7.372 3.67 3.67 0 0 0-2.621 1.097 3.686 3.686 0 0 0 2.621 6.275zM336.092 275.405a3.686 3.686 0 0 0 0 7.372 3.674 3.674 0 0 0 2.621-1.097 3.669 3.669 0 0 0 1.065-2.589 3.688 3.688 0 0 0-3.686-3.686z"/></g><g fill="#d2d2d2"><path d="M448.979 163.747a3.68 3.68 0 0 0 2.606 1.08c.944 0 1.886-.36 2.606-1.08 1.277-1.277 1.355-3.226.366-4.662l1.358-5.434c.192.049.377.118.585.118a2.457 2.457 0 1 0-2.457-2.457c0 .208.069.392.118.584l-5.434 1.358c-1.436-.989-3.385-.913-4.662.366a3.682 3.682 0 0 0-.815 3.967c.18.453.449.878.815 1.244l4.914 4.916zM387.695 221.556v-11.269c0-.572.226-1.075.553-1.491l-51.194-51.207c-.18.453-.449.878-.815 1.244l-4.915 4.915a3.68 3.68 0 0 1-1.209.804l9.111 9.114-13.315 13.315 8.688 8.688 3.476-3.474-1.738-1.738 3.476-3.474 1.738 1.738 1.738-1.738 3.476 3.474-1.738 1.738 1.738 1.738-3.476 3.476-1.738-1.738-3.476 3.476 8.688 8.688 13.311-13.311 20.782 20.787c.438.099.861.275 1.203.616l5.636 5.629zM393.331 227.783l4.716 4.719 16.886 16.891c.96.96 2.217 1.44 3.476 1.44s2.515-.48 3.474-1.44a4.914 4.914 0 0 0 .001-6.95l-21.605-21.61-6.948 6.95zM392.609 220.117v1.439l4.199-4.198-4.199-4.201zM462.643 255.521c.386.136.795.225 1.227.225a3.686 3.686 0 1 0-3.686-3.686c0 .433.089.842.225 1.227a24.79 24.79 0 0 1 2.234 2.234zM463.87 287.692c-.433 0-.842.089-1.227.225a24.79 24.79 0 0 1-2.234 2.234 3.677 3.677 0 0 0-.225 1.227 3.686 3.686 0 1 0 3.686-3.686z"/><path d="M428.015 253.289c.138-.386.225-.795.225-1.227a3.686 3.686 0 1 0-3.686 3.686c.433 0 .842-.088 1.227-.225a24.66 24.66 0 0 1 2.234-2.234zM424.554 295.063a3.686 3.686 0 0 0 3.686-3.686c0-.148-.027-.289-.044-.432a55.53 55.53 0 0 1-6.456 2.787 3.66 3.66 0 0 0 2.814 1.331z"/></g><path d="M462.643 287.917c3.81-4.329 6.142-9.991 6.142-16.197s-2.332-11.868-6.142-16.197a24.66 24.66 0 0 0-2.234-2.234c-4.329-3.81-9.991-6.142-16.197-6.142-6.207 0-11.868 2.333-16.197 6.142a24.65 24.65 0 0 0-2.233 2.234c-3.81 4.331-6.142 9.991-6.142 16.197 0 1.458.151 2.88.397 4.269a24.368 24.368 0 0 0 3.309 8.643 24.679 24.679 0 0 0 1.688 2.408c2.033-.978 3.865-2.047 5.453-3.196.025-.018.054-.019.079-.036a6.093 6.093 0 0 1-1.095-3.487c0-2.919 2.05-5.357 4.783-5.98a3.674 3.674 0 0 1-1.097-2.62 3.67 3.67 0 0 1 1.097-2.621c-2.732-.623-4.783-3.061-4.783-5.98a6.15 6.15 0 0 1 6.143-6.143c2.918 0 5.357 2.05 5.98 4.783.668-.677 1.595-1.097 2.62-1.097s1.953.42 2.621 1.097c.623-2.733 3.062-4.783 5.98-4.783a6.15 6.15 0 0 1 6.143 6.143c0 2.919-2.05 5.357-4.783 5.98a3.674 3.674 0 0 1 1.097 2.62 3.674 3.674 0 0 1-1.097 2.621c2.732.623 4.783 3.061 4.783 5.98a6.15 6.15 0 0 1-6.143 6.143c-2.918 0-5.357-2.049-5.98-4.783-.668.676-1.595 1.097-2.621 1.097s-1.953-.421-2.62-1.097c-.623 2.734-3.061 4.783-5.98 4.783-.446 0-.877-.053-1.296-.143a2.43 2.43 0 0 1-.949 1.501c-1.423 1.031-3.015 1.99-4.724 2.891a24.457 24.457 0 0 0 15.569 5.579c6.208 0 11.868-2.332 16.197-6.142a24.757 24.757 0 0 0 2.232-2.233zm-37.428-11.227c-.417-1.591-.662-3.251-.662-4.971s.244-3.38.662-4.971a11.016 11.016 0 0 0 3.532 4.971 11.047 11.047 0 0 0-3.532 4.971zm18.997-20.435a11.027 11.027 0 0 0-4.971-3.532c1.591-.417 3.252-.661 4.971-.661s3.38.244 4.971.661a11.027 11.027 0 0 0-4.971 3.532zm18.997 10.494c.417 1.591.662 3.251.662 4.971s-.244 3.38-.662 4.971a11.016 11.016 0 0 0-3.532-4.971 11.027 11.027 0 0 0 3.532-4.971zm-23.968 23.967a11.008 11.008 0 0 0 4.971-3.532 11.027 11.027 0 0 0 4.971 3.532c-1.591.417-3.251.662-4.971.662s-3.379-.245-4.971-.662z" fill="#e6b432"/><g fill="#f0c814"><path d="M447.899 271.72a3.686 3.686 0 0 0 7.372.001 3.674 3.674 0 0 0-1.097-2.621 3.684 3.684 0 0 0-6.275 2.62zM440.527 271.72a3.686 3.686 0 0 0-7.372 0c0 1.026.42 1.953 1.097 2.62a3.685 3.685 0 0 0 6.275-2.62zM444.212 268.033a3.686 3.686 0 0 0 0-7.372 3.67 3.67 0 0 0-2.621 1.097 3.669 3.669 0 0 0-1.065 2.589 3.687 3.687 0 0 0 3.686 3.686zM444.212 275.405a3.686 3.686 0 0 0 0 7.372 3.674 3.674 0 0 0 2.621-1.097 3.685 3.685 0 0 0-2.621-6.275z"/></g><path d="M336.241 158.833c.367-.367.635-.792.815-1.244a3.681 3.681 0 0 0-.815-3.967c-1.277-1.277-3.226-1.355-4.662-.366l-5.434-1.358c.049-.192.118-.377.118-.584a2.457 2.457 0 1 0-2.457 2.457c.208 0 .392-.069.584-.118l1.358 5.434c-.989 1.436-.913 3.385.366 4.662a3.674 3.674 0 0 0 4.003.804 3.68 3.68 0 0 0 1.209-.804l4.915-4.916z" fill="#f7b518"/><path d="M433.367 287.821c.518-.375.829-.92.949-1.501a2.43 2.43 0 0 0-.4-1.93 2.447 2.447 0 0 0-3.353-.583c-.025.017-.054.018-.079.036-1.589 1.15-3.42 2.219-5.453 3.196-7.205 3.466-16.959 5.778-27.509 6.526V259.05c10.725 14.645 21.169 22.515 25.821 25.582a24.387 24.387 0 0 1-3.309-8.643c-5.948-4.92-14.357-13.185-22.512-25.646v-16.696c.174-.384.352-.756.525-1.144l-4.716-4.719 6.951-6.951 1.436-1.436c.96-.959.96-2.515 0-3.474-.618-.618-1.478-.794-2.272-.616-.438.099-.861.275-1.203.616l-1.436 1.436-4.198 4.198V210.29c0-.573-.226-1.075-.553-1.491-.45-.574-1.118-.966-1.903-.966-.786 0-1.453.392-1.903.966-.327.417-.553.92-.553 1.491v11.269l-5.634-5.634c-.341-.341-.764-.517-1.203-.616-.794-.179-1.654-.003-2.272.616-.96.96-.96 2.515 0 3.474l1.436 1.436 6.951 6.951-4.716 4.719c.173.388.351.761.525 1.144v16.677c-8.146 12.436-16.558 20.71-22.509 25.643a24.38 24.38 0 0 1-3.312 8.665c4.653-3.066 15.096-10.936 25.821-25.582v34.515c-10.55-.746-20.304-3.059-27.509-6.525-2.035-.979-3.868-2.048-5.457-3.199-.023-.017-.051-.018-.074-.033a2.451 2.451 0 0 0-3.358.581 2.431 2.431 0 0 0-.398 1.933c.119.58.43 1.124.947 1.498 1.424 1.032 3.017 1.993 4.728 2.895.148.078.296.156.447.233a55.605 55.605 0 0 0 6.456 2.787c6.978 2.525 15.292 4.177 24.217 4.767v18.133a4.866 4.866 0 0 1 2.457-.681c.9 0 1.732.259 2.457.681V298.72c.817.017 1.633.035 2.457.035s1.641-.018 2.457-.035v5.631a4.866 4.866 0 0 1 2.457-.681c.9 0 1.732.259 2.457.681v-5.847c8.924-.59 17.239-2.241 24.217-4.766a55.605 55.605 0 0 0 6.456-2.787l.447-.232c1.708-.907 3.3-1.867 4.722-2.898zm-43.215 6.014c-.822 0-1.641-.017-2.457-.036V251.86a139.757 139.757 0 0 0 2.457-4.017 142.048 142.048 0 0 0 2.457 4.017v41.939c-.816.019-1.635.036-2.457.036z" fill="#ff4b55"/><g fill="#e6b432"><path d="M390.152 153.224c13.572 0 24.573 2.323 24.573 5.188v-10.258c0-1.127-1.039-2.188-2.858-3.118l.563-1.126a2.448 2.448 0 0 0 2.014-1.352c.165-.326.283-.68.283-1.074 0-.472-.168-.889-.4-1.263-.433-.702-1.173-1.194-2.058-1.194a2.457 2.457 0 0 0-2.457 2.457c0 .491.181.923.43 1.307l-.647 1.294c-1.854-.651-4.14-1.206-6.745-1.634l.276-1.106c1.016-.302 1.771-1.205 1.771-2.319a2.457 2.457 0 1 0-4.914 0c0 .692.291 1.312.752 1.759l-.328 1.312a76.373 76.373 0 0 0-4.295-.408 6.11 6.11 0 0 0 .186-1.434 6.143 6.143 0 0 0-12.286 0c0 .496.075.972.186 1.434-1.49.101-2.926.238-4.295.408l-.328-1.312a2.442 2.442 0 0 0 .752-1.759 2.457 2.457 0 1 0-4.914 0c0 1.114.755 2.017 1.771 2.319l.276 1.106c-2.606.429-4.89.982-6.745 1.634l-.647-1.294c.248-.384.43-.816.43-1.307 0-1.357-1.1-2.457-2.457-2.457-.885 0-1.625.493-2.058 1.194-.231.374-.4.791-.4 1.263 0 .393.116.747.283 1.074a2.45 2.45 0 0 0 2.014 1.352l.563 1.126c-1.819.931-2.859 1.992-2.859 3.118v10.258c-.005-2.866 10.996-5.188 24.568-5.188zM365.579 158.684l.031-.013c-.007-.082-.031-.194-.031-.261v.274z"/><path d="M414.725 158.684v-.273c0 .067-.023.178-.031.261l.031.012z"/></g><path d="M370.494 163.599c0 .491-.181.923-.43 1.307l.932 1.862c1.626-.806 3.847-1.499 6.503-2.03l-.32-1.279c-1.016-.302-1.771-1.205-1.771-2.319a2.457 2.457 0 1 1 4.914 0c0 .692-.291 1.312-.752 1.759l.355 1.418a67.212 67.212 0 0 1 7.769-.678v-2.226a3.662 3.662 0 0 1-1.228-2.729 3.686 3.686 0 1 1 7.372 0c0 1.087-.48 2.054-1.228 2.729v2.226c2.779.087 5.399.324 7.769.678l.354-1.418a2.442 2.442 0 0 1-.752-1.759 2.457 2.457 0 1 1 4.914 0c0 1.113-.755 2.017-1.771 2.319l-.32 1.279c2.657.531 4.879 1.224 6.503 2.03l.932-1.862c-.248-.384-.43-.816-.43-1.307 0-1.357 1.1-2.457 2.457-2.457.589 0 1.106.235 1.529.579.547-1.343.838-2.409.898-3.049.007-.082.031-.194.031-.261 0-2.865-11.001-5.188-24.573-5.188s-24.573 2.323-24.573 5.188c0 .067.023.178.031.261.06.64.351 1.706.898 3.049.423-.344.941-.579 1.529-.579 1.358 0 2.458 1.1 2.458 2.457z" fill="#ebebeb"/><path d="M365.579 163.599c0 1.3 1.018 2.337 2.295 2.424l1.061 2.12c-.576.563-.899 1.157-.899 1.773 0 .709.428 1.388 1.181 2.025l3.734 6.4c0-2.714 7.702-4.915 17.201-4.915s17.201 2.2 17.201 4.915l3.734-6.4c.754-.636 1.181-1.316 1.181-2.025 0-.616-.323-1.21-.899-1.773l1.061-2.12c1.278-.087 2.295-1.125 2.295-2.424 0-.77-.375-1.428-.929-1.878-.423-.344-.941-.579-1.529-.579a2.457 2.457 0 0 0-2.457 2.457c0 .491.181.923.43 1.307l-.932 1.862c-1.626-.806-3.847-1.499-6.503-2.03l.32-1.279c1.016-.302 1.771-1.205 1.771-2.319a2.457 2.457 0 1 0-4.914 0c0 .692.291 1.312.752 1.759l-.354 1.418a67.212 67.212 0 0 0-7.769-.678v-2.226a3.662 3.662 0 0 0 1.228-2.729 3.686 3.686 0 1 0-7.372 0c0 1.087.48 2.054 1.228 2.729v2.226a67.193 67.193 0 0 0-7.769.678l-.355-1.418a2.442 2.442 0 0 0 .752-1.759 2.457 2.457 0 1 0-4.914 0c0 1.113.755 2.017 1.771 2.319l.32 1.279c-2.657.531-4.879 1.224-6.503 2.03l-.932-1.862c.248-.384.43-.816.43-1.307 0-1.357-1.1-2.457-2.457-2.457-.587 0-1.106.235-1.529.579-.555.45-.93 1.108-.93 1.878z" fill="#e6b432"/><ellipse cx="390.15" cy="178.339" rx="17.196" ry="4.915" fill="#ebebeb"/><g fill="#e6b432"><path d="M414.136 136.472l-4.325-9.733c0-.614-.471-1.2-1.295-1.743l3.494-6.987a2.457 2.457 0 1 0-4.396-2.198l-1.898 3.796-1.811 3.623a41.193 41.193 0 0 0-3.453-.672l.219-.872c1.016-.302 1.771-1.205 1.771-2.319a2.457 2.457 0 1 0-4.914 0c0 .692.291 1.312.752 1.759l-.28 1.108c-2.405-.262-5.056-.409-7.847-.409s-5.441.147-7.847.409l-.277-1.108a2.442 2.442 0 0 0 .752-1.759 2.457 2.457 0 1 0-4.914 0c0 1.114.755 2.017 1.771 2.319l.219.872c-1.248.193-2.41.416-3.453.672l-1.811-3.623-1.899-3.796a2.458 2.458 0 0 0-4.396 2.198l3.494 6.987c-.824.543-1.295 1.128-1.295 1.743l-4.325 9.733c2.426-2.755 12.235-4.818 23.983-4.818s21.555 2.062 23.981 4.818z"/><circle cx="390.15" cy="118.139" r="3.686"/></g><path d="M19.323 490.544C8.651 490.544 0 481.892 0 471.22V40.62c0-10.584 8.58-19.165 19.164-19.165h.159c10.672 0 19.323 8.651 19.323 19.323v430.443c.001 10.671-8.651 19.323-19.323 19.323z" fill="#2e3033"/></svg>