<svg xmlns="http://www.w3.org/2000/svg" viewBox="0 0 512 512"><path d="M35.4 373.05h468.1c4.7 0 8.4-3.8 8.4-8.4V63.75c0-4.7-3.8-8.4-8.4-8.4H35.4c-4.7 0-8.4 3.8-8.4 8.4v300.9c0 4.6 3.8 8.4 8.4 8.4z" fill="#c8414b"/><path fill="#ffd250" d="M27 122.25h485v184H27z"/><path d="M231.9 214.15l7.1-31.9c.7-2.9-1.6-5.7-4.6-5.7h-5c-3 0-5.2 2.8-4.6 5.7l7.1 31.9z" fill="#c8414b"/><path fill="#f5f5f5" d="M223.5 197.45h16.7v71.1h-16.7z"/><path fill="#fab446" d="M219.3 189.05h25.1v8.4h-25.1z"/><g fill="#c8414b"><path d="M202.6 214.15h41.8v8.4h-41.8zM244.4 247.65l-25.1-8.4v-8.3l25.1 8.3zM106.4 214.15l7.1-31.9c.7-2.9-1.6-5.7-4.6-5.7h-5c-3 0-5.2 2.8-4.6 5.7l7.1 31.9z"/></g><path d="M135.7 189.05c-4.6 0-8.4 3.7-8.4 8.4v54.4c0 10.2 9.5 29.3 41.8 29.3s41.9-19.2 41.9-29.3v-54.4c0-4.6-3.7-8.4-8.4-8.4h-66.9z" fill="#f5f5f5"/><g fill="#c8414b"><path d="M169.2 230.95h-41.8v-33.4c0-4.7 3.8-8.4 8.4-8.4h33.4v41.8zM169.2 230.95H211v20.9c0 11.5-9.4 20.9-20.9 20.9-11.5 0-20.9-9.4-20.9-20.9v-20.9z"/></g><path d="M127.3 230.95h41.8v20.9c0 11.5-9.4 20.9-20.9 20.9-11.5 0-20.9-9.4-20.9-20.9v-20.9z" fill="#fab446"/><g fill="#c8414b"><path d="M160.8 268.45v-37.5h-8.4v41.4c3.1-.7 6-2.1 8.4-3.9zM144.1 272.25v-41.3h-8.4v37.5c2.4 1.8 5.3 3.2 8.4 3.8z"/></g><path fill="#ffb441" d="M135.7 214.15h25.1v8.4h-25.1z"/><g fill="#fab446"><path d="M135.7 197.45h25.1v8.4h-25.1z"/><path d="M139.9 202.45h16.7v15.1h-16.7z"/></g><path fill="#f5f5f5" d="M98.1 197.45h16.7v71.1H98.1z"/><g fill="#fab446"><path d="M93.9 264.35H119v8.4H93.9zM93.9 189.05H119v8.4H93.9z"/></g><path fill="#5064aa" d="M89.7 272.75h33.4v8.4H89.7z"/><path fill="#fab446" d="M223.5 264.35h25.1v8.4h-25.1z"/><path fill="#5064aa" d="M215.1 272.75h33.4v8.4h-33.4z"/><path fill="#fab446" d="M144.1 180.75h50.2v8.4h-50.2z"/><path fill="#ffb441" d="M165 155.65h8.4v25.1H165z"/><g fill="#f5f5f5"><path d="M160.8 168.15c-6.9 0-12.5-5.6-12.5-12.5s5.6-12.5 12.5-12.5 12.5 5.6 12.5 12.5-5.6 12.5-12.5 12.5zm0-16.7c-2.3 0-4.2 1.9-4.2 4.2s1.9 4.2 4.2 4.2 4.2-1.9 4.2-4.2-1.9-4.2-4.2-4.2z"/><path d="M177.5 168.15c-6.9 0-12.5-5.6-12.5-12.5s5.6-12.5 12.5-12.5 12.5 5.6 12.5 12.5c.1 6.9-5.6 12.5-12.5 12.5zm0-16.7c-2.3 0-4.2 1.9-4.2 4.2s1.9 4.2 4.2 4.2 4.2-1.9 4.2-4.2-1.9-4.2-4.2-4.2z"/><path d="M194.2 176.55c-6.9 0-12.5-5.6-12.5-12.5s5.6-12.5 12.5-12.5 12.5 5.6 12.5 12.5c.1 6.9-5.5 12.5-12.5 12.5zm0-16.7c-2.3 0-4.2 1.9-4.2 4.2s1.9 4.2 4.2 4.2 4.2-1.9 4.2-4.2-1.9-4.2-4.2-4.2zM144.1 176.55c-6.9 0-12.5-5.6-12.5-12.5s5.6-12.5 12.5-12.5 12.5 5.6 12.5 12.5-5.6 12.5-12.5 12.5zm0-16.7c-2.3 0-4.2 1.9-4.2 4.2s1.9 4.2 4.2 4.2 4.2-1.9 4.2-4.2-1.9-4.2-4.2-4.2z"/></g><path d="M194.2 247.65v4.2c0 2.3-1.9 4.2-4.2 4.2s-4.2-1.9-4.2-4.2v-4.2h8.4m8.4-8.4h-25.1v12.5c0 6.9 5.6 12.5 12.5 12.5s12.5-5.6 12.5-12.5l.1-12.5z" fill="#fab446"/><path d="M190.1 222.55c-4.6 0-8.4-3.7-8.4-8.4v-8.4c0-4.6 3.7-8.4 8.4-8.4 4.6 0 8.4 3.7 8.4 8.4v8.4c-.1 4.7-3.8 8.4-8.4 8.4z" fill="#ffa0d2"/><path d="M181.6 229.25c1 8.2-5.9 15.1-14.1 14.1-5.6-.7-10.1-5.2-10.8-10.8-1-8.2 5.9-15.1 14.1-14.1 5.6.7 10.1 5.2 10.8 10.8z" fill="#5064aa"/><path fill="#fab446" d="M165 138.95h8.4v25.1H165z"/><path d="M144.1 180.75l-8.4-8.4 4.9-4.9c7.6-7.6 17.8-11.8 28.5-11.8s21 4.3 28.5 11.8l4.9 4.9-8.4 8.4h-50z" fill="#c8414b"/><g fill="#ffd250"><path d="M173.3 171.75c.4 2.8-2 5.2-4.8 4.8-1.8-.3-3.2-1.7-3.5-3.5-.4-2.8 2-5.2 4.8-4.8 1.8.3 3.2 1.7 3.5 3.5zM156.6 171.75c.4 2.8-2 5.2-4.8 4.8-1.8-.3-3.2-1.7-3.5-3.5-.4-2.8 2-5.2 4.8-4.8 1.8.3 3.2 1.7 3.5 3.5zM190 171.75c.4 2.8-2 5.2-4.8 4.8-1.8-.3-3.2-1.7-3.5-3.5-.4-2.8 2-5.2 4.8-4.8 1.8.3 3.2 1.7 3.5 3.5z"/></g><g fill="#c8414b"><path d="M93.9 214.15h41.8v8.4H93.9zM93.9 247.65l25.1-8.4v-8.3l-25.1 8.3z"/></g><path d="M19.7 494.85c-10.9 0-19.7-8.8-19.7-19.7V36.65c0-10.8 8.7-19.5 19.5-19.5h.2c10.9 0 19.7 8.8 19.7 19.7v438.4c0 10.8-8.9 19.6-19.7 19.6z" fill="#2e3033"/></svg>