<svg xmlns="http://www.w3.org/2000/svg" viewBox="0 0 512 512"><path d="M503.537 381.91H32.807a8.463 8.463 0 0 1-8.463-8.463V70.875a8.463 8.463 0 0 1 8.463-8.463h470.73A8.463 8.463 0 0 1 512 70.875v302.572a8.463 8.463 0 0 1-8.463 8.463z" fill="#ffe15a"/><path d="M503.592 62.412H32.752c-2.045 0-3.848.819-5.306 2.032l481.452 315.434c1.853-1.542 3.102-3.777 3.102-6.376V70.82a8.408 8.408 0 0 0-8.408-8.408z" fill="#ff4b55"/><g fill="#ffbe55"><path d="M284.193 199.638c.941-.756 1.72-1.693 1.425-2.481-.245-.654-1.46-1.26-2.746-1.902-2.387-1.192-5.575-2.829-6.633-6.747-.126-.013-.243-.001-.373-.025-1.048-.195-1.702.166-2.458 2.628-.139.45-.435 1.17-.826 1.994.785.52 2.746 1.729 4.655 2.162 3.781.86 6.11 2.322 6.956 4.371zM269.512 197.971c1.13 1.03 2.167 2.199 3.186 3.506.059.075.123.15.181.225 2.535-1.943 5.756-1.955 7.998-1.588-.651-.675-1.917-1.336-4.318-1.883-2.227-.505-4.383-1.765-5.448-2.45-.492.791-1.03 1.54-1.599 2.19zM282.356 209.124c1.187.687 3.572 2.231 5.638 4.461.305-1.714.214-3.99-1.396-5.994-1.377.76-2.849 1.243-4.242 1.533zM262.602 189.093l-.398.483c-1.982 2.424-4.23 5.066-6.38 7.22 1.308-.618 2.849-1.07 4.446-1.31.571-.915 2.313-3.343 4.451-6.269-.514-.326-1.538-.829-2.119-.124zM254.831 201.377c.01.016.145.182.524.325.658.254 1.879.341 3.15-.245 3.706-1.724 7.446-.781 11.123 2.778.011.011.006.027.017.038s.026.007.037.018c.021.021 1.259 1.263 3.49 2.4a45.323 45.323 0 0 1-2.868-3.34c-1.333-1.704-2.487-3.175-3.859-4.049-3.484-2.211-9.55-.273-11.266 1.537-.28.297-.348.49-.348.538zM283.638 203.576l-.012.003a1.53 1.53 0 0 1-.614.138c-.01 0-.019.006-.029.006-.022 0-.041-.02-.063-.021a1.49 1.49 0 0 1-.468-.074c-.051-.019-4.756-1.677-7.629.403a18.404 18.404 0 0 0 2.73 2.499c1.412.033 6.3-.052 9.084-2.653 1.407-1.313 1.524-2.747 1.288-3.875-1.037 1.63-2.876 2.904-4.287 3.574zM240.732 202.03c-.237-.344-.497-.642-.701-1.049-.334-.67-.511-1.381-.69-2.088-1.081 1.73-2.219 4.422-1.526 7.401.814-1.929 2.044-3.393 2.917-4.264z"/><path d="M267.008 196.229c1.369-1.43 3.055-4.606 3.489-6.015.416-1.359 1.684-5.492 5.91-4.728.941.175 1.639-.424 2.065-.951-1.028-1.173-2.372-1.934-3.539-1.961-.872-.084-1.872.472-2.647 1.514-3.803 5.124-6.696 9.081-8.263 11.289 1.055.121 2.048.429 2.985.852zM257.191 187.008c-2.358 3.146-4.834 4.921-6.641 6.217-2.381 1.708-2.97 2.286-2.828 3.61.03.27.145.468.384.658.316.251.772.431 1.291.564.032-.015.052-.043.085-.056 2.844-1.157 8.506-8.076 10.368-10.35l.402-.492c1.973-2.387 4.75-1.431 6.27-.396.524-.712 1.053-1.428 1.581-2.143-2.743-3.312-7.283-2.449-10.912 2.388zM281.165 185.991a6.54 6.54 0 0 1-1.914 1.826c.756 2.511 2.868 3.662 4.979 4.715 1.253.624 2.432 1.247 3.283 2.129.713-2.55.62-4.579-.366-5.99-1.446-2.066-4.523-2.571-5.982-2.68zM270.052 277.196l.331.377c4.185 4.764 8.137 9.364 10.771 13.239-.079-2.092-.222-4.26-.474-5.765a1.223 1.223 0 0 1-.016-.147c-1.343-1.736-2.79-3.352-4.315-4.719-4.46-3.986-6.974-7.985-8.381-11.068-.241 2.65.061 5.784 2.084 8.083zM267.911 261.82a12.54 12.54 0 0 1-.945-2.052c-.002-.006 0-.013-.003-.019l-.066-.024c-.911 1.58-2.581 2.668-4.366 2.671h-.008c-.138 0-.26-.053-.395-.066-.233 1.026-.308 2.187.342 2.808.731.706 2.217.696 2.994.497a25.06 25.06 0 0 1 .847-2.879 1.521 1.521 0 0 1 1.6-.936zM264.936 268.769c-.161.011-.309.037-.477.037-.454 0-.927-.06-1.401-.154-.279 1.05-.377 2.234.321 2.948.436.445 1.075.618 1.597.651-.115-1.201-.143-2.384-.04-3.482zM208.361 201.02l-.007.004c-3.055 1.022-6.684.772-9.857.15 1.85 2.853 2.558 6.293 2.641 9.491 3.986-5.199 8.398-7.581 11.557-8.709-1.624-.145-3.089-.446-4.334-.936zM280.393 276.655c-.689-.053-2.245-.25-4.091-.811.651.687 1.301 1.375 2.076 2.068 5.088 4.549 9.226 11.476 11.927 16.818.963-3.448 3.228-6.403 5.663-8.647-6.801-.449-12.118-5.184-15.575-9.428zM245.986 220.984a11.73 11.73 0 0 1-3.586-1.457c-.815 2.592-1.385 4.992-1.697 7.183 1.686-.156 2.961-.141 3.827-.07a38.488 38.488 0 0 1 1.456-5.656zM197.971 213.57c.364-3.596.169-9.336-3.82-12.785-.013-.002-.024.003-.037.001-.123-.016-11.528-1.66-19.14 6.114-2.863 2.924-4.725 5.215-6.219 7.054-2.027 2.497-3.484 4.287-5.845 5.674 7.145 2.546 24.461 6.836 35.061-6.058zM303.927 167.485c3.185 1.712 8.566 3.724 13.272 1.361.006-.012.006-.024.013-.036.059-.099 5.938-10.014 1.668-20.023-1.607-3.765-3.012-6.36-4.14-8.445-1.53-2.826-2.63-4.859-3.01-7.573-5.079 5.637-15.668 19.993-7.803 34.716zM299.576 287.048c-2.867 2.199-6.915 6.27-6.695 11.536.01.014.025.02.035.034.066.095 6.689 9.526 17.569 9.744 4.103.084 7.04-.131 9.405-.305 3.207-.238 5.508-.4 8.134.361-3.05-6.942-11.797-22.474-28.448-21.37zM275.881 269.841c-.029-.059-.004-.125-.024-.186l-2.079 1.774c1.361.847 2.799 1.366 4.027 1.688-1.225-1.878-1.899-3.225-1.924-3.276zM267.304 249.551a15.968 15.968 0 0 1-1.714-.201c-.437.706-1.392 2.711.02 5.243.525.944 1.411 2.124 2.644 2.413.736.167 1.579-.079 2.473-.559-1.823-2.949-2.921-5.549-3.423-6.896zM298.412 196.024a160.135 160.135 0 0 0 7.883-6.329c1.025-6.507 4.821-12.565 8.219-16.878-3.456.479-6.998-.368-9.984-1.644 3.996 10.696-4.656 22.547-6.278 24.635.051.075.11.14.16.216zM271.528 269.346l2.755-2.352c-1.791-.618-3.507-1.626-4.91-3.16.209.97.789 2.964 2.155 5.512zM237.549 227.154c.348-2.938 1.12-6.212 2.322-9.783-.77-.877-1.446-1.944-1.983-3.219-1.422 3.289-3.477 8.672-4.268 13.888a49.899 49.899 0 0 1 3.929-.886zM290.832 190.079c.347 1.976.122 4.249-.829 6.879.571 1.017 1.054 2.431 1.056 3.968 1.205-.257 1.294-.986 1.667-4.967l.159-1.645c.15-1.51-.121-2.663-.808-3.42-.358-.392-.799-.631-1.245-.815zM290.502 216.084c.989-.205 2.242-.636 3.243-1.559 1.516-1.398 3.194-4.363 2.919-5.694-.034-.166-.075-.273-.365-.377-1.1-.392-1.43-.25-1.428-.245-.068.052-.193.329-.266.492-.19.42-.447.99-1.022 1.367-.877.572-1.706.724-2.47.727.221 2.124-.199 4.053-.611 5.289zM234.738 202.745a13.89 13.89 0 0 1 1.168-3.866c-2.768-1.035-9.024-3.055-14.134-2.352-7.218.971-12.706.163-16.189-.772 1.668 1.72 4.533 3.507 9.017 3.321 11.124-.223 17.501 2.292 20.138 3.669zM220.774 202.31c-2.633 2.062-4.574 4.54-5.901 6.656 4.09-2.12 9.34-4.236 12.813-5.564-1.871-.474-4.172-.866-6.912-1.092zM295.679 205.206c.471.056.982.158 1.573.363-.023-.117-.043-.222-.074-.364-.185-.858-.425-2.042-.365-3.765-.001-.011-.007-.02-.007-.032 0-.011.005-.02.005-.031.001-.036-.005-.055-.003-.092a5.935 5.935 0 0 0-1.172-3.851c-.208 2.056-.477 3.61-1.208 4.702.436.688.947 1.753 1.251 3.07zM299.608 198.931c.051.223.097.447.131.679 8.915-1.21 15.245-10.176 18.896-17.357-7.759 8.213-16.475 14.805-19.027 16.678zM262.525 259.351h.002c.761-.003 1.538-.575 1.869-1.334a9.647 9.647 0 0 1-1.445-1.943 9.085 9.085 0 0 1-.641-1.482c-.601.365-1.266.884-1.565 1.554-.224.495-.214 1.014.027 1.632.282.717.814 1.573 1.753 1.573zM230.448 228.967c.606-5.478 2.603-11.148 4.181-14.936-.987.752-2.219 1.522-3.741 2.251-.17.378-3.243 7.262-4.411 14.079a79.392 79.392 0 0 1 3.971-1.394zM284.35 276.609c1.775.186 3.42.103 4.85-.099-2.708-.923-5.409-2.147-7.62-3.25a34.652 34.652 0 0 0 2.77 3.349zM262.597 248.517c-7.32-2.78-13.095-10.659-15.165-20.677-.609 3.889-.647 8.704 1.423 13.025 2.244 4.684 6.688 7.977 13.064 9.914a8.167 8.167 0 0 1 .678-2.262zM301.547 202.48c-.162.034-.337.033-.5.062 2.033 2.225 10.206 12.119 12.42 29.385 1.521.582 2.939 1.18 4.139 1.785-.794-7.025-3.974-24.795-16.059-31.232zM223.222 231.668c.635-5.254 2.483-10.657 3.74-13.859a38.536 38.536 0 0 1-4.246 1.045c-2.743 4.596-4.405 11.49-5.171 15.381a115.985 115.985 0 0 1 5.677-2.567zM272.472 259.008c-.762.444-1.473.733-2.126.894 1.697 3.359 4.85 4.505 7.527 4.803-2.164-1.714-3.929-3.705-5.401-5.697z"/><path d="M250.577 202.087c.377-.173.844-.309 1.272-.461-.007-.078-.027-.151-.029-.233-1.783-.035-4.112-.325-5.609-1.517-.874-.697-1.396-1.632-1.514-2.707-.354-3.237 1.799-4.783 4.078-6.416.929-.667 1.983-1.44 3.078-2.42-3.334-.227-6.325.889-8.181 3.304-1.836 2.385-2.19 5.445-.919 7.98 1.73 3.472 5.464 3.123 7.824 2.47zM246.466 205.471c-.889-.103-1.749-.378-2.578-.75-.129 1.74-.022 4.1 1.109 5.487.028-.778.124-1.569.351-2.347a8.607 8.607 0 0 1 1.118-2.39zM257.865 206.517c3.621.286 6.4-.637 8.056-1.416-2.779-1.982-4.799-1.51-6.136-.886-2.149 1-4.552.936-6.176 0-.6.272-1.249.543-2.009.761-1.698.852-2.801 2.065-3.291 3.618-.154.489-.18.97-.217 1.451.031-.026.033-.075.066-.099 3.486-2.498 6.748-3.619 9.707-3.429zM274.405 248.447c-1.244.49-2.526.852-3.85 1.029.877 2.09 2.608 5.648 5.349 8.987 1.427-2.405-.255-7.581-1.499-10.016zM245.502 214.043c-3.232-.952-4.48-3.916-4.71-6.979-.696 1.455-1.068 3.273-.37 5.295 1.402 4.054 4.465 5.235 6.264 5.612.02-.472.04-.943.076-1.411-.01-.011-.024-.014-.034-.024-.419-.466-.88-1.366-1.226-2.493zM234.683 206.149c-.11-.048-.234-.036-.333-.112-.017-.012-.716-.476-2.015-1.067-4.574 2.469-7.144 7.506-8.318 10.507 8.289-2.008 10.917-5.78 11.431-6.66a11.155 11.155 0 0 1-.765-2.668zM288.243 239.597c1.537-3.33 1.869-7.145 1.056-11.37-1.839 8.466-6.336 15.365-12.161 18.876.267.533.561 1.194.866 1.979 2.288-1.001 7.629-3.837 10.239-9.485zM291.914 207.523c.185-.496.46-1.01.862-1.439a6.762 6.762 0 0 0-.873-2.255c-.453.12-.962.208-1.541.267a2.35 2.35 0 0 1-.12.006 7.558 7.558 0 0 1-1.231 1.667c.463.585.864 1.173 1.157 1.777.079.044.178.017.251.076.124.087.692.424 1.495-.099zM296.241 216.318c1.573 4.129 2.553 7.886 2.941 11.203 1.238.323 2.558.678 3.929 1.063-.786-5.845-3.243-11.991-4.697-15.246a14.823 14.823 0 0 1-2.173 2.98zM295.991 226.712c-.404-2.563-1.176-5.411-2.308-8.509-1.288.629-2.555.899-3.488 1.019.002.161.017.318.017.48 0 .387-.032.763-.042 1.147.036.062.09.109.117.177a36.745 36.745 0 0 1 1.566 4.711c.48.105 1.995.448 4.138.975zM306.286 229.506c1.299.392 2.601.804 3.87 1.23-1.922-12.317-6.965-20.503-9.78-24.193a4.913 4.913 0 0 1-.509 1.978c-.042.088-.128.13-.184.205.014.167.041.33.037.502.112.11.222.225.297.373.221.43 5.398 10.597 6.269 19.905z"/></g><g fill="#ffd7aa"><path d="M268.401 246.583c10.348 0 18.767-12.059 18.767-26.883 0-.812-.025-1.613-.075-2.409-2.011-3.023-5.528-5.132-6.57-5.71-6.203-.111-10.345-2.873-12.11-4.335-1.756 1.019-5.563 2.683-10.776 2.306-2.113-.134-4.533.694-7.232 2.533a37.611 37.611 0 0 0-.771 7.617c0 14.823 8.419 26.881 18.767 26.881zM194.953 265.576c.277-.075 3.069-.833 7.156-1.169 18.928-4.266 41.153-17.844 45.16-20.355-.394-.626-.843-1.212-1.166-1.887-1.992-4.166-2.31-8.613-1.977-12.492-2.851-.182-11.549.225-27.908 8.629-.22.111-.458.166-.695.166a1.518 1.518 0 0 1-1.505-1.736c.048-.337.822-5.63 2.59-11.257-9.4 1.971-29.245 21.999-40.17 33.036-2.065 2.088-3.923 3.967-5.497 5.516-.218.214-.447.416-.68.622-1.381 1.221-2.808 2.481-1.797 9.748.931 6.709 9.657 7.394 16.15 7.438h.476c2.043 0 6.963 1.7 15.484 4.707 8.275 2.921 17.651 6.23 23.725 7.367 2.905.538 5.631 1.026 8.146 1.474 7.676 1.371 13.221 2.358 16.124 3.559 3.523 1.459 7.408 8.659 10.774 15.292l.646 1.264c1.983 3.828 2.356 8.618.969 12.499-.674 1.89-.193 2.881.048 3.222.236.333.511.452.676.452.783 0 1.348 0 1.974-1.981.79-2.501.989-2.742 4.313-6.764l.91-1.098c3.427-4.157-.006-12.685-1.657-16.786l-.232-.574c-1.173-2.932-.134-6.012.87-8.988.683-2.025 1.389-4.117 1.389-6.119 0-.436-.117-.729-.392-.99-1.597-1.514-7.012-1.225-10.969-1.022-1.459.079-2.841.15-4.026.15-6.126 0-15.956-6.123-30.252-15.467-7.088-4.624-15.49-5.025-21.192-4.569-2.362.515-4.68.892-6.917 1.094a1.529 1.529 0 0 1-1.634-1.241 1.517 1.517 0 0 1 1.086-1.74zM369.807 165.641c-2.572.543-2.881.483-8.055-.46l-1.364-.245c-5.316-.979-11.056 6.217-13.822 9.661l-.39.483c-1.983 2.457-5.173 3.055-8.257 3.638-2.102.397-4.276.804-6.021 1.787-.379.211-.579.46-.672.828-.538 2.128 2.362 6.713 4.48 10.061.781 1.232 1.52 2.406 2.1 3.436 2.998 5.338 2.469 16.909 1.319 33.952-.599 8.897 3.612 16.766 6.893 21.458a64.787 64.787 0 0 1 3.808 4.723c.47.642.365 1.537-.24 2.052a1.516 1.516 0 0 1-2.067-.084c-.188-.19-1.93-1.966-4.002-4.914-8.319-9.267-18.536-15.393-22.783-17.716.111 1.209.153 2.032.16 2.207a1.52 1.52 0 0 1-1.521 1.577c-.336 0-.672-.111-.947-.329-4.034-3.213-18.856-7.116-25.892-8.746.62 4.343.108 8.324-1.548 11.894-1.701 3.662-4.316 6.24-6.778 8.053 12.906 15.945 43.467 22.759 61.869 26.842 4.737 1.05 8.831 1.957 11.841 2.83.295.087.585.186.876.289 1.741.606 3.534 1.237 9.383-3.205 5.395-4.097 1.773-12.079-1.423-17.726l-.232-.413c-.999-1.779-1.924-6.903-3.471-15.803-1.504-8.647-3.207-18.446-5.191-24.299a980.643 980.643 0 0 0-2.71-7.858c-2.556-7.347-4.405-12.657-4.777-15.767-.452-3.784 3.919-10.692 8.052-16.87l.794-1.196c2.372-3.606 6.366-6.273 10.426-6.963 1.975-.336 2.606-1.244 2.784-1.616.175-.368.145-.665.066-.808-.378-.682-.653-1.184-2.688-.753zM171.619 164.611c1.773 1.938 1.882 2.231 3.709 7.129l.495 1.323c1.89 5.052 11.001 6.337 15.377 6.95l.606.087c3.125.447 5.27 2.881 7.347 5.239 1.414 1.605 2.876 3.261 4.61 4.26.381.218.695.266 1.056.154 2.108-.622 4.565-5.456 6.358-8.988.663-1.303 1.292-2.54 1.884-3.566 3.053-5.298 13.269-10.758 28.506-18.482 8.397-4.26 13.073-12.542 15.3-17.741a45.863 45.863 0 0 1 1.736-4.839c.315-.733 1.133-1.078 1.888-.844a1.526 1.526 0 0 1 .985 1.823c-.059.234-.59 2.231-1.789 5.057-4.077 13.87-3.894 33.516-3.621 41.428 3.073-3.364 5.994-4.127 8.006-4.127 2.222 0 4.256.973 5.881 2.681 1.702-2.209 3.644-2.636 5.059-2.625 2.567.063 4.697 1.712 6.05 3.423 1.485.076 4.837.471 7.279 2.562 3.365-16.517-4.37-39.986-9.593-55.792-1.634-4.95-3.048-9.226-3.935-12.633a16.652 16.652 0 0 1-.202-.903c-.368-1.803-.749-3.67-7.547-6.423-6.285-2.564-11.287 4.644-14.512 10.272l-.238.416c-1.021 1.771-4.955 5.187-11.823 11.072-6.657 5.706-14.204 12.177-18.218 16.87a892.708 892.708 0 0 0-5.345 6.312c-5.018 5.967-8.647 10.279-11.137 12.193-3.028 2.33-11.21 2.1-18.65 1.7l-1.398-.072c-2.345-.104-4.67-.803-6.759-1.89l-.173-.043-.103-.124c-1.631-.891-3.126-1.992-4.275-3.343-.754-.888-1.423-1.259-1.949-1.43l-1.672.371c-.337.604-.489 1.13.807 2.543z"/></g><path d="M375.153 164.904c-1.21-2.16-3.055-2.849-5.968-2.243-1.991.42-1.991.416-6.887-.472l-1.367-.25c-7.101-1.292-13.606 6.848-16.736 10.751l-.386.479c-1.278 1.585-3.675 2.033-6.451 2.556-2.342.443-4.766.899-6.947 2.124-1.098.618-1.836 1.561-2.134 2.735-.858 3.4 2.049 7.993 4.86 12.435.749 1.185 1.46 2.31 2.017 3.301 2.778 4.95 1.843 18.831.939 32.256-.354 5.266.772 10.148 2.442 14.326-8.63-7.426-16.904-11.617-18.245-12.274-1.191-8.062-4.723-22.285-15.007-29.394 13.372-5.926 19.728-26.086 20.031-27.077a1.516 1.516 0 0 0-.771-1.803 1.516 1.516 0 0 0-1.908.456c-3.494 4.741-7.986 9.345-12.226 13.243 2.596-7.334 8.361-13.737 10.861-16.259.44-.377.87-.797 1.287-1.253a1.524 1.524 0 0 0-.043-2.1c-.204-.206-.478-.257-.742-.321 1.555-4.294 2.997-11.286-.092-18.531-1.661-3.891-3.103-6.558-4.262-8.698-2.079-3.84-3.028-5.591-2.742-9.646a1.515 1.515 0 0 0-.846-1.47 1.513 1.513 0 0 0-1.682.225c-.212.187-19.827 17.958-12.379 37.633-.225.078-.465.125-.639.31a1.522 1.522 0 0 0-.03 2.036c8.358 9.537-.904 22.87-3.025 25.667-.048-.031-.093-.073-.141-.103 0-1.903-.514-3.492-1.604-4.696-.956-1.057-2.145-1.614-3.196-1.913 3.969-17.327-3.765-40.827-9.494-58.17-1.619-4.902-3.018-9.13-3.881-12.447-.063-.245-.113-.492-.164-.742-.588-2.885-1.7-5.524-9.385-8.638-9.459-3.828-16.112 7.771-18.296 11.584l-.232.404c-.81 1.407-6.077 5.92-11.169 10.283-6.741 5.778-14.383 12.328-18.552 17.199-1.924 2.251-3.711 4.378-5.359 6.337-4.714 5.603-8.434 10.025-10.663 11.741-2.388 1.839-12.74 1.28-16.632 1.069l-1.426-.075c-3.491-.154-6.988-1.811-9.128-4.331-1.564-1.843-3.533-2.782-5.405-2.628-1.33.123-2.487.82-3.093 1.87-1.237 2.144-.89 4.081 1.123 6.273 1.373 1.502 1.373 1.502 3.101 6.135l.497 1.332c2.524 6.745 12.843 8.195 17.803 8.897l.599.084c2.015.29 3.627 2.12 5.497 4.24 1.321 1.498 2.75 2.965 4.431 4.161-.104.052-.223.056-.314.131a1.527 1.527 0 0 0-.486 1.629c.017.051 1.068 2.895 3.887 5.35-4.446.218-9.527-1.484-11.565-2.267a16.903 16.903 0 0 0-1.003-.404 1.522 1.522 0 0 0-1.932.864c-.105.261-.107.529-.068.789-4.563.214-11.536 1.569-17.022 7.164-2.962 3.028-4.874 5.377-6.407 7.267-2.755 3.388-4.012 4.934-7.866 6.221a1.518 1.518 0 0 0-1.036 1.343 1.515 1.515 0 0 0 .852 1.466c.157.075 9.208 4.374 19.721 4.374 6.642 0 13.865-1.726 19.801-7.309.158.17.287.371.517.457a1.526 1.526 0 0 0 1.894-.753c4.392-8.891 10.448-12.089 13.973-13.234-3.142 4.001-4.524 7.779-4.602 8.003a1.522 1.522 0 0 0 2.424 1.657c2.295-1.954 7.882-4.471 12.619-6.403-2.866 3.925-4.108 8.087-4.37 9.047-.997 1.601-1.858 3.447-2.596 5.36-9.255.334-26.525 17.004-43.449 34.103a629.75 629.75 0 0 1-5.47 5.484c-.18.179-.368.345-.561.515-2.204 1.95-3.937 4.228-2.796 12.447 1.407 10.113 14.785 10.089 19.176 10.061h.465c1.621 0 8.153 2.306 14.469 4.533 8.379 2.96 17.876 6.309 24.181 7.485 2.912.547 5.649 1.035 8.171 1.482 7.204 1.284 12.894 2.302 15.492 3.377 2.78 1.149 7.462 10.379 9.226 13.854l.658 1.292c1.609 3.098 1.918 6.963.806 10.073-.812 2.274-.658 4.458.424 5.996.77 1.09 1.954 1.743 3.164 1.743 2.474 0 3.979-1.268 4.874-4.106.612-1.938.612-1.938 3.756-5.742l.912-1.105c4.581-5.552.692-15.213-1.178-19.857l-.23-.57c-.755-1.89.024-4.205.928-6.879.763-2.259 1.55-4.593 1.55-7.093 0-1.26-.463-2.365-1.341-3.202-2.544-2.413-7.977-2.12-13.223-1.85-1.401.075-2.728.147-3.865.147-5.679 0-17.325-7.608-28.587-14.968-4.226-2.762-8.807-4.169-13.098-4.803 17.056-5.838 33.7-16.141 36.901-18.174 2.497 2.844 5.831 5.102 10.116 6.65a5.859 5.859 0 0 0-1.217 1.72c-.563 1.244-.574 2.628-.036 4.006a6.024 6.024 0 0 0 1.388 2.088c-.975 3.413-.019 5.298.985 6.292-1.095 3.398-.148 5.396.89 6.46 1.087 1.114 2.597 1.589 3.929 1.589.176 0 .318-.054.486-.07.454 1.389 1.085 2.75 2.15 3.962l.331.372c4.595 5.227 12.283 13.972 13.19 18.055.17.761.885 1.252 1.644 1.185a1.523 1.523 0 0 0 1.364-1.498c.002-.226.034-3.741-.127-7.322 3.376 5.477 5.706 10.91 6.487 12.819.095.257.2.519.313.781a1.522 1.522 0 0 0 1.968.808c.255-.104.446-.282.605-.485 3.285 3.176 9.051 7.326 16.884 7.482 4.23.068 7.258-.139 9.687-.313 4.353-.321 6.339-.463 9.914 1.459a1.516 1.516 0 0 0 1.69-.167 1.518 1.518 0 0 0 .483-1.625c-.086-.27-8.239-25.424-29.226-26.74.021-.239.076-.479-.023-.714a1.509 1.509 0 0 0-1.845-.864c-5.193 1.589-9.709-.071-13.297-2.73 4.642-.289 7.864-1.886 8.032-1.97a1.521 1.521 0 0 0-.527-2.873c-6.802-.717-17.176-6.931-17.279-6.995-.041-.024-.091-.01-.133-.03.02-.023.038-.048.057-.073.582.055 1.154.083 1.705.083 1.29 0 2.469-.134 3.422-.336a1.525 1.525 0 0 0 .356-2.857c-2.074-1.02-3.871-2.399-5.435-3.92 1.875-2.274 1.698-5.708.92-8.742a24.923 24.923 0 0 0 2.724-1.356c13.455 16.934 43.675 23.668 63.771 28.131 4.687 1.038 8.736 1.938 11.657 2.782.241.071.477.154.719.238.957.333 1.92.599 3.041.599 2.136 0 4.848-.963 9.183-4.252 8.136-6.182 1.552-17.824-.615-21.648l-.226-.404c-.792-1.41-1.979-8.234-3.127-14.832-1.523-8.758-3.25-18.681-5.31-24.755a935.548 935.548 0 0 0-2.717-7.882c-2.401-6.899-4.298-12.344-4.628-15.134-.359-2.98 5.393-11.579 7.558-14.812l.808-1.217c1.922-2.924 5.136-5.08 8.391-5.631 2.381-.408 4.212-1.613 5.021-3.313.572-1.203.563-2.549-.03-3.604zm-2.719 2.299c-.179.372-.808 1.28-2.784 1.616-4.06.69-8.055 3.357-10.426 6.963l-.794 1.196c-4.133 6.178-8.504 13.085-8.052 16.87.372 3.111 2.221 8.421 4.777 15.767a967.193 967.193 0 0 1 2.71 7.858c1.983 5.853 3.688 15.652 5.191 24.299 1.548 8.9 2.472 14.024 3.471 15.803l.232.413c3.196 5.647 6.818 13.627 1.423 17.726-5.849 4.442-7.642 3.813-9.383 3.205a17.248 17.248 0 0 0-.876-.289c-3.01-.872-7.104-1.779-11.841-2.83-18.401-4.083-48.963-10.896-61.869-26.842 2.461-1.813 5.077-4.391 6.778-8.053 1.656-3.569 2.168-7.551 1.548-11.894 7.036 1.631 21.859 5.535 25.892 8.746a1.523 1.523 0 0 0 2.468-1.248c-.006-.173-.05-.997-.16-2.207 4.247 2.324 14.463 8.45 22.783 17.716 2.072 2.948 3.814 4.723 4.002 4.914a1.517 1.517 0 0 0 2.067.084c.604-.515.71-1.411.24-2.052a64.573 64.573 0 0 0-3.808-4.723c-3.281-4.692-7.492-12.562-6.893-21.458 1.149-17.043 1.678-28.615-1.319-33.952-.581-1.03-1.319-2.204-2.1-3.436-2.118-3.348-5.018-7.933-4.48-10.061.093-.368.293-.618.672-.828 1.745-.983 3.919-1.391 6.021-1.787 3.083-.583 6.273-1.181 8.257-3.638l.39-.483c2.766-3.443 8.506-10.64 13.822-9.661l1.364.245c5.173.944 5.482 1.003 8.055.46 2.034-.432 2.31.071 2.692.753.075.142.105.439-.07.808zm-52.543 140.854c-2.365.175-5.302.388-9.405.305-10.88-.218-17.503-9.649-17.569-9.744-.01-.014-.025-.021-.035-.034-.22-5.266 3.827-9.337 6.695-11.536 16.651-1.103 25.397 14.428 28.448 21.37-2.626-.761-4.926-.599-8.134-.361zm-29.586-13.327c-2.703-5.342-6.84-12.269-11.927-16.818-.774-.693-1.426-1.382-2.076-2.068 1.847.561 3.402.757 4.091.811 3.457 4.244 8.775 8.978 15.575 9.428-2.435 2.244-4.7 5.199-5.663 8.647zm-27.247-26.079c.473.094.947.154 1.401.154.168 0 .315-.026.477-.037-.102 1.098-.074 2.281.04 3.481-.523-.033-1.162-.205-1.597-.651-.698-.712-.6-1.896-.321-2.947zm2.408-3.017c-.776.198-2.263.207-2.994-.497-.648-.621-.573-1.781-.342-2.808.134.012.257.066.395.066h.004c1.788-.003 3.459-1.091 4.37-2.671.022.008.043.017.066.024.002.006.001.013.003.019.264.751.587 1.426.945 2.052a1.518 1.518 0 0 0-1.598.936c-.055.132-.472 1.272-.849 2.879zm-69.966 2.922c2.237-.202 4.555-.579 6.917-1.094 5.702-.456 14.105-.055 21.192 4.569 14.296 9.344 24.125 15.467 30.252 15.467 1.185 0 2.567-.071 4.026-.15 3.956-.202 9.372-.492 10.969 1.022.275.261.392.554.392.99 0 2.001-.706 4.094-1.389 6.119-1.005 2.976-2.043 6.055-.87 8.988l.232.574c1.65 4.101 5.084 12.629 1.657 16.786l-.91 1.098c-3.325 4.022-3.523 4.264-4.313 6.764-.626 1.981-1.191 1.981-1.974 1.981-.165 0-.44-.118-.676-.452-.24-.341-.721-1.332-.048-3.222 1.387-3.879 1.014-8.67-.969-12.499l-.646-1.264c-3.366-6.634-7.252-13.834-10.774-15.292-2.903-1.201-8.448-2.188-16.124-3.559-2.515-.447-5.241-.935-8.146-1.474-6.073-1.137-15.45-4.446-23.725-7.367-8.522-3.008-13.441-4.707-15.484-4.707h-.476c-6.493-.043-15.218-.729-16.15-7.438-1.01-7.267.416-8.527 1.797-9.748.232-.206.461-.408.68-.622a629.06 629.06 0 0 0 5.497-5.516c10.926-11.037 30.77-31.065 40.17-33.036-1.768 5.627-2.542 10.919-2.59 11.257a1.522 1.522 0 0 0 2.2 1.57c16.36-8.404 25.058-8.81 27.908-8.629-.333 3.879-.015 8.326 1.977 12.492.323.675.772 1.261 1.166 1.887-4.006 2.511-26.231 16.09-45.16 20.355-4.088.336-6.879 1.094-7.156 1.169a1.52 1.52 0 0 0-1.087 1.739 1.53 1.53 0 0 0 1.635 1.242zm5.638-57.89c-.084-3.198-.79-6.638-2.641-9.491 3.175.622 6.802.872 9.857-.15l.007-.004c1.244.49 2.709.79 4.334.935-3.158 1.129-7.571 3.511-11.557 8.71zm-32.383 3.289c1.494-1.839 3.357-4.129 6.219-7.054 7.612-7.775 19.017-6.13 19.14-6.114.013.002.024-.003.037-.001 3.989 3.449 4.184 9.19 3.82 12.785-10.601 12.894-27.917 8.605-35.062 6.059 2.363-1.388 3.819-3.179 5.846-5.675zm150.125-65.168c4.27 10.009-1.609 19.925-1.668 20.023-.007.012-.006.024-.013.036-4.706 2.362-10.086.35-13.272-1.361-7.865-14.724 2.723-29.08 7.802-34.715.381 2.714 1.48 4.748 3.01 7.573 1.13 2.085 2.534 4.681 4.141 8.444zm-14.351 22.386c2.986 1.276 6.528 2.124 9.984 1.644-3.398 4.313-7.193 10.371-8.219 16.878a161.237 161.237 0 0 1-7.883 6.329c-.05-.077-.109-.141-.161-.216 1.624-2.088 10.275-13.939 6.279-24.635zm-33.001 98.173c-1.367-2.548-1.946-4.542-2.156-5.511 1.404 1.533 3.12 2.542 4.91 3.16l-2.754 2.351zm4.328.308c.02.061-.004.127.024.186.024.052.699 1.398 1.924 3.276-1.228-.324-2.666-.841-4.027-1.688l2.079-1.774zm.493 10.525c1.525 1.367 2.973 2.984 4.315 4.719.002.048.008.099.016.147.252 1.505.395 3.674.474 5.765-2.633-3.875-6.586-8.477-10.771-13.239l-.331-.377c-2.023-2.299-2.324-5.433-2.084-8.084 1.407 3.084 3.921 7.083 8.381 11.069zm-8.096-23.173c-1.232-.289-2.118-1.47-2.644-2.413-1.412-2.531-.456-4.537-.02-5.243.565.1 1.137.162 1.714.201.501 1.348 1.599 3.947 3.422 6.896-.892.478-1.737.726-2.472.559zm6.681-74.433c1.167.028 2.51.788 3.539 1.961-.426.527-1.123 1.126-2.065.951-4.226-.765-5.495 3.368-5.91 4.728-.434 1.409-2.12 4.585-3.489 6.015-.938-.422-1.932-.731-2.984-.853 1.567-2.208 4.46-6.165 8.263-11.289.773-1.041 1.774-1.595 2.646-1.513zm-8.49 16.727c1.373.876 2.526 2.346 3.859 4.049a45.53 45.53 0 0 0 2.868 3.34c-2.231-1.138-3.469-2.379-3.49-2.4-.011-.011-.026-.007-.037-.018s-.005-.027-.017-.038c-3.677-3.559-7.418-4.501-11.123-2.778-1.272.586-2.492.499-3.15.245-.379-.143-.513-.309-.524-.325 0-.048.068-.242.347-.54 1.717-1.808 7.784-3.746 11.267-1.535zm-10.621-2.505c2.15-2.154 4.398-4.796 6.38-7.22l.398-.483c.581-.703 1.605-.201 2.12.125-2.139 2.926-3.88 5.353-4.451 6.269-1.598.241-3.139.693-4.447 1.309zm20.738 1.436c2.401.547 3.667 1.208 4.318 1.883-2.243-.367-5.464-.355-7.998 1.588-.059-.075-.123-.15-.181-.225-1.02-1.305-2.058-2.475-3.186-3.506a17.11 17.11 0 0 0 1.601-2.19c1.063.685 3.22 1.945 5.446 2.45zm-3.981-5.127c.392-.824.689-1.546.826-1.994.756-2.461 1.411-2.821 2.458-2.628.13.023.246.012.373.025 1.058 3.918 4.246 5.555 6.633 6.747 1.286.642 2.501 1.248 2.746 1.902.295.788-.483 1.724-1.425 2.481-.846-2.049-3.175-3.511-6.959-4.371-1.906-.433-3.867-1.641-4.652-2.162zm-22.175 18.981c2.699-1.839 5.12-2.667 7.232-2.533 5.213.377 9.021-1.287 10.776-2.306 1.766 1.462 5.906 4.224 12.11 4.335 1.042.579 4.559 2.687 6.57 5.71.05.797.075 1.597.075 2.409 0 14.825-8.418 26.883-18.767 26.883s-18.767-12.059-18.767-26.883c0-2.591.26-5.147.771-7.615zm37.589 1.5c-2.066-2.229-4.451-3.774-5.638-4.461 1.393-.29 2.866-.772 4.242-1.533 1.61 2.003 1.701 4.28 1.396 5.994zm-1.356-9.707c-2.784 2.601-7.672 2.686-9.084 2.653a18.409 18.409 0 0 1-2.73-2.499c2.873-2.08 7.579-.422 7.629-.403.154.057.311.068.468.074.022.001.041.021.063.021.01 0 .019-.006.029-.006a1.52 1.52 0 0 0 .614-.138c.004-.002.008-.001.008-.001 1.414-.673 3.254-1.946 4.293-3.576.235 1.127.117 2.562-1.29 3.875zm.875-9.216c-.85-.882-2.03-1.505-3.283-2.129-2.111-1.053-4.222-2.205-4.979-4.715a6.54 6.54 0 0 0 1.914-1.826c1.459.11 4.535.614 5.982 2.682.985 1.408 1.079 3.437.366 5.988zm-20.992-7.898c-1.52-1.036-4.297-1.992-6.27.396l-.402.492c-1.863 2.274-7.526 9.194-10.368 10.35-.033.014-.054.041-.085.056-.518-.133-.974-.312-1.291-.564-.24-.19-.354-.388-.384-.658-.143-1.323.445-1.902 2.828-3.61 1.807-1.296 4.283-3.071 6.641-6.217 3.63-4.837 8.169-5.701 10.913-2.388l-1.582 2.143zm-13.439-1.419c-4.755-.651-9.127.937-11.821 4.433-1.118 1.453-1.761 3.104-2.066 4.789-.183.075-.39.078-.537.229-.382.389-.785.879-1.187 1.423-2.67-1.048-9.894-3.553-16.107-2.711-7.182.972-12.487.022-15.578-.876 3.309-1.065 5.749-5.848 8.106-10.484.636-1.253 1.239-2.437 1.805-3.423 2.831-4.91 15.243-11.203 27.245-17.29 5.05-2.56 8.849-6.36 11.648-10.196-2.181 13.756-1.756 28.777-1.508 34.106zm-13.741 13.548c.179.708.355 1.419.69 2.088.204.407.464.706.701 1.049-.873.871-2.102 2.336-2.918 4.263-.693-2.978.445-5.671 1.527-7.4zm-1.455 15.259c.537 1.274 1.213 2.342 1.983 3.219-1.202 3.571-1.974 6.844-2.322 9.783a51.164 51.164 0 0 0-3.931.886c.794-5.216 2.849-10.598 4.27-13.888zm2.817 12.56c.313-2.191.882-4.591 1.697-7.183a11.78 11.78 0 0 0 3.586 1.457 38.293 38.293 0 0 0-1.456 5.656c-.866-.071-2.14-.086-3.827.07zm-6.074-12.682c-1.577 3.789-3.574 9.459-4.181 14.936a80.053 80.053 0 0 0-3.971 1.394c1.168-6.817 4.241-13.701 4.411-14.079 1.522-.729 2.754-1.499 3.741-2.251zm-10.612 1.446c1.173-3.001 3.743-8.038 8.318-10.507 1.3.59 1.998 1.056 2.015 1.067.101.075.223.065.333.112.132.878.387 1.77.765 2.667-.514.881-3.142 4.653-11.431 6.661zm22.667 2.493c-1.798-.376-4.862-1.558-6.264-5.612-.697-2.021-.325-3.84.37-5.295.23 3.063 1.479 6.027 4.71 6.979.346 1.128.807 2.027 1.226 2.492.01.011.023.014.034.024-.035.47-.055.941-.076 1.412zm-2.796-13.248c.83.372 1.689.647 2.578.75a8.615 8.615 0 0 0-1.117 2.39 9.54 9.54 0 0 0-.351 2.347c-1.133-1.388-1.24-3.748-1.11-5.487zm-1.136-5.103c-1.271-2.536-.917-5.595.919-7.981 1.857-2.415 4.847-3.531 8.181-3.304-1.095.98-2.149 1.753-3.078 2.42-2.279 1.632-4.432 3.178-4.078 6.416.117 1.074.64 2.009 1.514 2.707 1.497 1.192 3.826 1.482 5.609 1.517.001.081.021.154.029.233-.428.152-.895.288-1.272.461-2.359.653-6.093 1.002-7.824-2.469zm5.556 8.975c.49-1.553 1.593-2.766 3.291-3.618.76-.218 1.409-.489 2.009-.761 1.624.936 4.028 1 6.176 0 1.337-.623 3.358-1.096 6.136.886-1.656.78-4.435 1.701-8.056 1.416-2.958-.19-6.221.931-9.707 3.427-.034.024-.035.073-.066.099.039-.478.063-.96.217-1.449zm22.247 40.884c1.323-.179 2.605-.54 3.85-1.029 1.245 2.434 2.927 7.61 1.499 10.016-2.742-3.338-4.473-6.896-5.349-8.987zm18.743-21.25c.814 4.225.482 8.04-1.056 11.37-2.61 5.649-7.952 8.484-10.239 9.485a24.857 24.857 0 0 0-.866-1.979c5.826-3.51 10.323-10.409 12.161-18.876zm.872-7.38c.011-.383.042-.76.042-1.147 0-.162-.015-.318-.017-.48.933-.12 2.198-.389 3.488-1.019 1.133 3.098 1.904 5.947 2.308 8.509-2.142-.527-3.658-.87-4.137-.976a36.641 36.641 0 0 0-1.566-4.711c-.028-.067-.082-.114-.118-.176zm0-13.301c-.293-.604-.694-1.192-1.157-1.777.523-.542.927-1.1 1.231-1.667l.12-.006a9.816 9.816 0 0 0 1.541-.267c.317.512.694 1.308.873 2.255-.402.428-.678.943-.862 1.439-.803.523-1.371.186-1.494.099-.074-.06-.173-.032-.252-.076zm12.941 21.038a211.609 211.609 0 0 0-3.929-1.063c-.388-3.316-1.369-7.074-2.941-11.203a14.825 14.825 0 0 0 2.174-2.98c1.452 3.255 3.91 9.401 4.696 15.246zm-3.428-19.857c.056-.076.142-.117.184-.205a4.93 4.93 0 0 0 .509-1.978c2.815 3.69 7.857 11.877 9.78 24.193a131.527 131.527 0 0 0-3.87-1.23c-.872-9.308-6.049-19.476-6.269-19.904a1.467 1.467 0 0 0-.297-.373c.003-.172-.023-.335-.037-.503zm13.784 23.201c-2.213-17.266-10.386-27.161-12.42-29.385.163-.031.339-.029.5-.062 12.085 6.437 15.265 24.207 16.059 31.232-1.201-.606-2.619-1.202-4.139-1.785zm-13.728-32.318a8.668 8.668 0 0 0-.131-.679c2.552-1.872 11.268-8.465 19.027-16.678-3.651 7.182-9.981 16.147-18.896 17.357zm-2.931 1.676c-.002.036.004.056.003.092 0 .011-.005.02-.005.031 0 .012.006.021.007.032-.06 1.722.18 2.907.365 3.765.031.142.051.246.074.364a7.336 7.336 0 0 0-1.573-.363c-.306-1.317-.816-2.381-1.251-3.069.731-1.092 1.001-2.646 1.208-4.702a5.928 5.928 0 0 1 1.172 3.85zm-2.204 7.414c.073-.163.198-.44.266-.492-.002-.004.329-.147 1.428.245.289.103.331.209.365.377.275 1.332-1.403 4.296-2.919 5.694-1.002.924-2.254 1.354-3.243 1.559.413-1.236.831-3.165.611-5.29.764-.003 1.592-.154 2.47-.727.575-.375.832-.946 1.022-1.366zm-1.879-12.74c-.372 3.981-.462 4.71-1.667 4.967-.002-1.537-.485-2.951-1.056-3.968.951-2.631 1.176-4.903.829-6.879.445.184.888.424 1.243.817.688.756.959 1.91.808 3.42l-.157 1.643zm-70.953.567c5.111-.703 11.366 1.317 14.134 2.352a13.967 13.967 0 0 0-1.168 3.866c-2.637-1.377-9.015-3.892-20.138-3.671-4.483.186-7.349-1.601-9.017-3.321 3.483.937 8.971 1.745 16.189.774zm-.998 5.783c2.74.226 5.042.618 6.912 1.092-3.473 1.329-8.723 3.444-12.813 5.564 1.327-2.117 3.268-4.594 5.901-6.656zm6.188 15.499c-1.257 3.202-3.105 8.604-3.74 13.859a115.998 115.998 0 0 0-5.678 2.567c.766-3.891 2.428-10.785 5.171-15.381a38.613 38.613 0 0 0 4.247-1.045zm21.893 23.057c-2.071-4.32-2.032-9.136-1.423-13.025 2.069 10.019 7.845 17.897 15.165 20.677a8.12 8.12 0 0 0-.678 2.263c-6.376-1.939-10.82-5.231-13.064-9.915zm11.891 15.279c.298-.67.964-1.189 1.565-1.554.169.483.357.973.641 1.482.425.763.92 1.388 1.445 1.943-.331.757-1.109 1.33-1.869 1.334h-.002c-.939 0-1.47-.856-1.752-1.573-.242-.617-.253-1.136-.028-1.632zm23.604 20.464a34.767 34.767 0 0 1-2.77-3.348c2.211 1.101 4.912 2.326 7.62 3.25-1.43.201-3.075.284-4.85.098zm-14.004-16.707c.654-.16 1.365-.45 2.126-.894 1.474 1.991 3.237 3.983 5.4 5.697-2.676-.297-5.83-1.443-7.526-4.803zm-98.725-98.346c.169-.015.483.016.863.14.525.17 1.194.543 1.949 1.43 1.149 1.351 2.644 2.452 4.275 3.343.095.052.18.117.276.167 2.087 1.087 4.413 1.788 6.759 1.89l1.398.072c7.44.4 15.622.63 18.65-1.7 2.49-1.914 6.119-6.226 11.137-12.193a900.983 900.983 0 0 1 5.345-6.312c4.015-4.692 11.561-11.163 18.218-16.87 6.868-5.885 10.803-9.301 11.823-11.072l.238-.416c3.223-5.627 8.227-12.835 14.512-10.272 6.798 2.754 7.179 4.621 7.547 6.423.061.305.125.606.202.903.888 3.408 2.301 7.683 3.935 12.633 5.223 15.807 12.958 39.275 9.593 55.792-2.443-2.09-5.794-2.486-7.279-2.562-1.354-1.712-3.484-3.36-6.05-3.423-1.414-.012-3.356.416-5.059 2.625-1.625-1.706-3.659-2.681-5.881-2.681-2.012 0-4.933.763-8.006 4.127-.273-7.912-.456-27.557 3.621-41.428 1.199-2.826 1.73-4.823 1.789-5.057a1.526 1.526 0 0 0-.985-1.823c-.755-.234-1.573.111-1.888.844a46.007 46.007 0 0 0-1.736 4.839c-2.227 5.199-6.903 13.481-15.3 17.741-15.236 7.723-25.452 13.184-28.506 18.482-.592 1.026-1.221 2.263-1.884 3.566-1.793 3.531-4.25 8.366-6.358 8.988-.361.111-.676.063-1.056-.154-1.734-.999-3.196-2.655-4.61-4.26-2.077-2.358-4.222-4.791-7.347-5.239l-.606-.087c-4.376-.615-13.487-1.898-15.377-6.95l-.495-1.323c-1.827-4.898-1.936-5.191-3.709-7.129-1.296-1.413-1.144-1.939-.806-2.545.028-.05.045-.098.075-.15.082-.141.325-.32.733-.359z" fill="#464655"/><path d="M19.174 488.73C8.585 488.73 0 480.145 0 469.556V42.287C0 31.785 8.514 23.27 19.016 23.27h.158c10.589 0 19.174 8.585 19.174 19.174v427.111c-.001 10.59-8.585 19.175-19.174 19.175z" fill="#2e3033"/></svg>