<svg xmlns="http://www.w3.org/2000/svg" viewBox="0 0 512.001 512.001"><path d="M503.524 374.658H28.87a8.476 8.476 0 0 1-8.476-8.476V61.047a8.476 8.476 0 0 1 8.476-8.476h474.655a8.476 8.476 0 0 1 8.476 8.476v305.135a8.477 8.477 0 0 1-8.477 8.476z" fill="#41479b"/><path fill="#ffe15a" d="M444.192 52.571v322.087L122.106 52.571z"/><g fill="#f5f5f5"><path d="M219.487 172.496l4.885 14.646 15.439.12c1.196.01 1.692 1.535.73 2.246l-12.42 9.172 4.658 14.721c.361 1.14-.938 2.084-1.911 1.388l-12.561-8.978-12.561 8.978c-.973.695-2.272-.248-1.911-1.388l4.658-14.721-12.42-9.172c-.962-.711-.466-2.237.73-2.246l15.439-.12 4.885-14.646c.377-1.134 1.982-1.134 2.36 0zM184.171 137.18l4.885 14.646 15.439.12c1.196.01 1.692 1.535.73 2.246l-12.42 9.172 4.658 14.721c.361 1.14-.938 2.084-1.911 1.388l-12.561-8.978-12.561 8.978c-.973.695-2.272-.248-1.911-1.388l4.658-14.721-12.42-9.172c-.962-.711-.466-2.237.73-2.246l15.439-.12 4.885-14.646c.377-1.134 1.982-1.134 2.36 0zM148.855 101.863l4.885 14.646 15.439.12c1.196.01 1.692 1.535.73 2.246l-12.42 9.172 4.658 14.721c.361 1.14-.938 2.084-1.911 1.388l-12.561-8.978-12.561 8.978c-.973.696-2.272-.248-1.911-1.388l4.658-14.721-12.42-9.172c-.962-.711-.466-2.237.73-2.246l15.439-.12 4.885-14.646c.375-1.135 1.981-1.135 2.36 0zM113.538 66.547l4.885 14.646 15.439.12c1.196.01 1.692 1.535.73 2.246l-12.42 9.172 4.658 14.721c.361 1.14-.938 2.084-1.911 1.388l-12.561-8.978-12.561 8.978c-.973.696-2.272-.248-1.911-1.388l4.658-14.721-12.42-9.172c-.962-.711-.466-2.237.73-2.246l15.439-.12 4.885-14.646c.376-1.135 1.981-1.135 2.36 0zM360.754 313.762l4.885 14.646 15.439.12c1.196.01 1.692 1.536.73 2.246l-12.42 9.172 4.658 14.721c.361 1.14-.938 2.084-1.91 1.388l-12.561-8.978-12.561 8.978c-.973.696-2.272-.248-1.91-1.388l4.658-14.721-12.42-9.172c-.962-.711-.466-2.237.73-2.246l15.439-.12 4.885-14.646c.375-1.135 1.98-1.135 2.358 0zM325.437 278.446l4.885 14.646 15.439.12c1.196.01 1.692 1.535.73 2.246l-12.42 9.172 4.658 14.721c.361 1.14-.938 2.084-1.91 1.388l-12.561-8.978-12.561 8.978c-.973.696-2.272-.248-1.911-1.388l4.658-14.721-12.42-9.172c-.962-.711-.466-2.237.73-2.246l15.439-.12 4.885-14.646c.375-1.135 1.98-1.135 2.359 0zM290.121 243.13l4.885 14.646 15.439.12c1.196.01 1.692 1.536.73 2.246l-12.42 9.172 4.658 14.721c.361 1.14-.938 2.084-1.91 1.388l-12.561-8.978-12.561 8.978c-.973.695-2.272-.248-1.911-1.388l4.658-14.721-12.42-9.172c-.962-.711-.466-2.237.73-2.246l15.439-.12 4.885-14.646c.375-1.135 1.98-1.135 2.359 0zM254.804 207.813l4.885 14.646 15.439.12c1.196.01 1.692 1.535.73 2.246l-12.42 9.172 4.658 14.721c.361 1.14-.938 2.084-1.911 1.388l-12.561-8.978-12.561 8.978c-.973.696-2.272-.248-1.911-1.388l4.658-14.721-12.42-9.172c-.962-.711-.466-2.237.73-2.246l15.439-.12 4.885-14.646c.377-1.135 1.981-1.135 2.36 0zM60.667 52.571l6.558 4.843-4.658 14.721c-.36 1.14.938 2.084 1.911 1.389l12.56-8.978L89.6 73.524c.973.695 2.272-.248 1.91-1.389l-4.655-14.721 6.558-4.843H60.667zM416.394 363.845l-15.439-.12-4.884-14.646c-.378-1.135-1.983-1.135-2.362 0l-4.884 14.646-15.439.12c-1.196.01-1.692 1.536-.73 2.246l11.602 8.566h21.268l11.6-8.566c.96-.71.464-2.236-.732-2.246z"/></g><path d="M19.203 489.089C8.598 489.089 0 480.492 0 469.886V41.957c0-10.519 8.527-19.045 19.045-19.045h.158c10.606 0 19.203 8.598 19.203 19.203v427.771c.001 10.606-8.597 19.203-19.203 19.203z" fill="#2e3033"/></svg>