<svg xmlns="http://www.w3.org/2000/svg" viewBox="0 0 512.001 512.001"><path d="M512 222.421H28.09V72.297a8.398 8.398 0 0 1 8.398-8.398h467.115a8.398 8.398 0 0 1 8.398 8.398L512 222.421z" fill="#41479b"/><path d="M28.09 222.421h483.911v150.124a8.398 8.398 0 0 1-8.398 8.398H36.488a8.398 8.398 0 0 1-8.398-8.398V222.421z" fill="#ff4b55"/><path d="M183.118 158.802a1.172 1.172 0 0 0-.67-.708 21.24 21.24 0 0 0-1.738-.557c.462-.626.788-1.359.788-2.195 0-.717-.254-1.349-.604-1.92 1.155-.646 1.969-1.833 1.969-3.247 0-1.12-.514-2.099-1.292-2.79.933-.687 1.58-1.739 1.58-2.984 0-1.389-.79-2.554-1.912-3.208.589-.666.976-1.517.976-2.473 0-1.665-1.103-3.036-2.603-3.533.342-.568.592-1.196.592-1.905 0-2.046-1.644-3.698-3.679-3.751.085-.314.194-.619.194-.959a3.774 3.774 0 0 0-3.771-3.769c-.351 0-.667.11-.989.201.005-.084.048-.154.048-.239a3.774 3.774 0 0 0-3.769-3.769c-.714 0-1.345.253-1.915.598-.44-1.593-1.839-2.791-3.571-2.791a3.753 3.753 0 0 0-2.662 1.104c-.638-1.178-1.842-2.009-3.273-2.009-1.306 0-2.402.708-3.079 1.718-.688-.732-1.648-1.201-2.728-1.201-1.396 0-2.567.796-3.218 1.925-.691-.773-1.667-1.282-2.783-1.282-1.379 0-2.536.781-3.193 1.888-.641-.505-1.414-.854-2.292-.854a3.763 3.763 0 0 0-3.487 2.377 3.747 3.747 0 0 0-2.611-1.07c-1.437 0-2.647.837-3.284 2.023a3.643 3.643 0 0 0-.88-.404 7.312 7.312 0 0 0 1.259-4.111c0-2.954-1.759-5.489-4.277-6.658l1.057-2.114a1.16 1.16 0 0 0 0-1.04l-1.272-2.545a4.14 4.14 0 0 0 .265-.265l2.547 1.272a1.153 1.153 0 0 0 1.038-.003l6.196-3.098a1.158 1.158 0 1 0 0-2.074l-6.196-3.098a1.154 1.154 0 0 0-1.037 0l-2.545 1.272a4.234 4.234 0 0 0-.268-.268l1.272-2.545a1.16 1.16 0 0 0 0-1.04l-3.098-6.195c-.394-.786-1.685-.786-2.078 0l-3.098 6.195a1.16 1.16 0 0 0 0 1.04l1.272 2.545a4.14 4.14 0 0 0-.265.265l-2.547-1.272a1.154 1.154 0 0 0-1.037.003l-6.195 3.098a1.157 1.157 0 0 0 0 2.074l6.195 3.098a1.156 1.156 0 0 0 1.038 0l2.545-1.272c.085.093.174.182.268.268l-1.272 2.545a1.16 1.16 0 0 0 0 1.04l1.057 2.114c-2.517 1.169-4.277 3.705-4.277 6.658 0 1.49.452 2.874 1.217 4.034-.46.088-.878.242-1.263.482-.636-1.186-1.846-2.023-3.284-2.023a3.747 3.747 0 0 0-2.611 1.07 3.763 3.763 0 0 0-3.487-2.377c-.878 0-1.65.35-2.292.854-.657-1.107-1.814-1.888-3.194-1.888-1.116 0-2.092.508-2.783 1.282-.652-1.13-1.823-1.925-3.218-1.925-1.08 0-2.041.47-2.728 1.201-.677-1.011-1.773-1.718-3.079-1.718-1.431 0-2.636.831-3.274 2.009a3.755 3.755 0 0 0-2.662-1.104c-1.732 0-3.131 1.198-3.571 2.791-.57-.346-1.2-.598-1.915-.598a3.774 3.774 0 0 0-3.769 3.769c0 .085.043.156.048.239-.322-.09-.638-.201-.989-.201a3.774 3.774 0 0 0-3.771 3.769c0 .34.109.646.194.959-2.035.051-3.679 1.705-3.679 3.751 0 .711.25 1.337.592 1.905-1.501.498-2.603 1.869-2.603 3.533 0 .956.387 1.808.976 2.473-1.121.654-1.912 1.819-1.912 3.208 0 1.245.647 2.298 1.58 2.984-.779.691-1.293 1.67-1.293 2.79 0 1.413.815 2.601 1.969 3.247-.349.571-.604 1.203-.604 1.92 0 .88.351 1.654.858 2.297-.839.249-1.354.445-1.383.456a1.167 1.167 0 0 0-.566 1.679c.092.151 9.224 15.487 12.247 30.603.075.375.346.615.666.766 2.322 3.137 22.444 5.589 46.935 5.589s44.613-2.452 46.935-5.589c.319-.152.591-.392.666-.766 3.02-15.104 12.155-30.452 12.247-30.603.18-.296.218-.65.109-.973z" fill="#ffe15a"/><g fill="#464655"><path d="M183.118 158.802a1.172 1.172 0 0 0-.67-.708 21.24 21.24 0 0 0-1.738-.557c.462-.626.788-1.359.788-2.195 0-.717-.254-1.349-.604-1.92 1.155-.646 1.969-1.833 1.969-3.247 0-1.12-.514-2.099-1.292-2.79.933-.687 1.58-1.739 1.58-2.984 0-1.389-.79-2.554-1.912-3.208.589-.666.976-1.517.976-2.473 0-1.665-1.103-3.036-2.603-3.533.342-.568.592-1.196.592-1.905 0-2.046-1.644-3.698-3.679-3.751.085-.314.194-.619.194-.959a3.774 3.774 0 0 0-3.771-3.769c-.351 0-.667.11-.989.201.005-.084.048-.154.048-.239a3.774 3.774 0 0 0-3.769-3.769c-.714 0-1.345.253-1.915.598-.44-1.593-1.839-2.791-3.571-2.791a3.753 3.753 0 0 0-2.662 1.104c-.638-1.178-1.842-2.009-3.273-2.009-1.306 0-2.402.708-3.079 1.718-.688-.732-1.648-1.201-2.728-1.201-1.396 0-2.567.796-3.218 1.925-.691-.773-1.667-1.282-2.783-1.282-1.379 0-2.536.781-3.193 1.888-.641-.505-1.414-.854-2.292-.854a3.763 3.763 0 0 0-3.487 2.377 3.747 3.747 0 0 0-2.611-1.07c-1.437 0-2.647.837-3.284 2.023a3.643 3.643 0 0 0-.88-.404 7.312 7.312 0 0 0 1.259-4.111c0-2.954-1.759-5.489-4.277-6.658l1.057-2.114a1.16 1.16 0 0 0 0-1.04l-1.272-2.545a4.14 4.14 0 0 0 .265-.265l2.547 1.272a1.153 1.153 0 0 0 1.038-.003l6.196-3.098a1.158 1.158 0 1 0 0-2.074l-6.196-3.098a1.154 1.154 0 0 0-1.037 0l-2.545 1.272a4.234 4.234 0 0 0-.268-.268l1.272-2.545a1.16 1.16 0 0 0 0-1.04l-3.098-6.195c-.394-.786-1.685-.786-2.078 0l-3.098 6.195a1.16 1.16 0 0 0 0 1.04l1.272 2.545a4.14 4.14 0 0 0-.265.265l-2.547-1.272a1.154 1.154 0 0 0-1.037.003l-6.195 3.098a1.157 1.157 0 0 0 0 2.074l6.195 3.098a1.156 1.156 0 0 0 1.038 0l2.545-1.272c.085.093.174.182.268.268l-1.272 2.545a1.16 1.16 0 0 0 0 1.04l1.057 2.114c-2.517 1.169-4.277 3.705-4.277 6.658 0 1.49.452 2.874 1.217 4.034-.46.088-.878.242-1.263.482-.636-1.186-1.846-2.023-3.284-2.023a3.747 3.747 0 0 0-2.611 1.07 3.763 3.763 0 0 0-3.487-2.377c-.878 0-1.65.35-2.292.854-.657-1.107-1.814-1.888-3.194-1.888-1.116 0-2.092.508-2.783 1.282-.652-1.13-1.823-1.925-3.218-1.925-1.08 0-2.041.47-2.728 1.201-.677-1.011-1.773-1.718-3.079-1.718-1.431 0-2.636.831-3.274 2.009a3.755 3.755 0 0 0-2.662-1.104c-1.732 0-3.131 1.198-3.571 2.791-.57-.346-1.2-.598-1.915-.598a3.774 3.774 0 0 0-3.769 3.769c0 .085.043.156.048.239-.322-.09-.638-.201-.989-.201a3.774 3.774 0 0 0-3.771 3.769c0 .34.109.646.194.959-2.035.051-3.679 1.705-3.679 3.751 0 .711.25 1.337.592 1.905-1.501.498-2.603 1.869-2.603 3.533 0 .956.387 1.808.976 2.473-1.121.654-1.912 1.819-1.912 3.208 0 1.245.647 2.298 1.58 2.984-.779.691-1.293 1.67-1.293 2.79 0 1.413.815 2.601 1.969 3.247-.349.571-.604 1.203-.604 1.92 0 .88.351 1.654.858 2.297-.839.249-1.354.445-1.383.456a1.167 1.167 0 0 0-.566 1.679c.092.151 9.224 15.487 12.247 30.603.075.375.346.615.666.766 2.322 3.137 22.444 5.589 46.935 5.589s44.613-2.452 46.935-5.589c.319-.152.591-.392.666-.766 3.02-15.104 12.155-30.452 12.247-30.603.18-.296.218-.65.109-.973zm-32.835-7.483v-18.178a35.582 35.582 0 0 1 4.285-.12v18.884c-1.282-.619-2.73-.799-4.285-.586zm-13.37-24.758c.033.031.078.045.11.075l-.148.031c.016-.035.024-.071.038-.106zm40.817 27.334a1.446 1.446 0 1 1-.001 2.889 1.446 1.446 0 0 1 .001-2.889zm1.365-2.275a1.446 1.446 0 1 1 .001-2.889 1.446 1.446 0 0 1-.001 2.889zm-1.158-7.22a1.446 1.446 0 1 1 2.891.001 1.446 1.446 0 0 1-2.891-.001zm-43.194 14.402c-1.387-5.275-3.188-13.215-3.948-21.152a100.77 100.77 0 0 1 3.948-1.275v22.427zm-19.361-21.058c-.818 8.446-2.812 16.907-4.219 22.116v-23.488a96.9 96.9 0 0 1 4.219 1.372zm9.23-9.545a1.446 1.446 0 1 1-2.891-.001 1.446 1.446 0 0 1 2.891.001zm-15.617-1.631l-.009-.002.007-.005.002.007zm-42.471 16.387a1.446 1.446 0 1 1-.001 2.889 1.446 1.446 0 0 1 .001-2.889zm1.734 7.22a1.446 1.446 0 1 1-2.891-.001 1.446 1.446 0 0 1 2.891.001zm-.081 3.72a1.446 1.446 0 1 1-.001 2.889 1.446 1.446 0 0 1 .001-2.889zm5.965-19.571c2.273-3.678 6.712-8.061 14.951-8.061 8.045 0 19.396 2.457 26.666 4.266a68.54 68.54 0 0 1-.181 4.818c-4.96-1.727-24.688-8.041-33.078-2.299-9.495 6.513-6.495 18.934-4.721 24.079a18.827 18.827 0 0 0-4.5-.625c-3.429-6.881-3.084-15.789.863-22.178zm6.543 23.93c-.817-1.899-6.039-15.033 1.724-22.135v23.173c-.559-.4-1.136-.737-1.724-1.038zm4.047-23.773c1.227-.636 2.673-1.048 4.285-1.267v20.67c-2.33 2.363-3.365 5.612-3.822 8.057-.147-.185-.31-.335-.463-.508v-26.952zm6.608-1.461a35.588 35.588 0 0 1 4.285.12v18.159c-.253-.022-.519-.087-.765-.087-1.142 0-2.213.239-3.187.729-.12.06-.216.141-.333.205V133.02zm6.608.369a66.47 66.47 0 0 1 4.285.723v19.883c-1.474-1.016-2.909-1.752-4.285-2.201v-18.405zm6.607 1.223c1.523.351 2.96.719 4.285 1.088v24.585a34.125 34.125 0 0 0-4.285-4.488v-21.185zm13.516-3.496c1.747.453 3.124.831 3.933 1.058v19.7c-3.148.318-5.554 1.926-7.389 3.903 1.636-6.811 3.396-16.106 3.456-24.661zm6.257 1.058c.787-.221 2.109-.584 3.789-1.021.065 8.47 1.791 17.652 3.411 24.438-1.813-1.887-4.155-3.407-7.199-3.715l-.001-19.702zm12.738 3.527a99.827 99.827 0 0 1 4.285-1.088v21.366c0 .055.024.101.031.154a34.303 34.303 0 0 0-4.315 4.715v-25.149h-.001v.002zm6.608-1.587a67.05 67.05 0 0 1 4.285-.723v18.512c-1.378.506-2.816 1.308-4.285 2.369v-20.158zm13.217-.898c1.612.218 3.058.63 4.285 1.266v27.208c0 .061.025.113.035.171-.023.028-.049.05-.072.08-.482-2.582-1.629-6.046-4.247-8.43v-20.295h-.001zm6.607 2.903c8.316 7.614 1.691 22.216 1.62 22.371-.007.016-.005.033-.012.048-.551.314-1.086.681-1.608 1.088v-23.507zm-.093-3.072c-8.225-5.632-27.385.34-32.805 2.203a69.036 69.036 0 0 1-.173-4.686c7.263-1.812 18.712-4.302 26.81-4.302 8.239 0 12.679 4.383 14.951 8.061 3.947 6.389 4.292 15.297.862 22.178-1.617.033-3.31.259-4.974.765 1.769-5.055 4.911-17.647-4.671-24.219zm15.042 7.119a1.446 1.446 0 1 1 .001-2.889 1.446 1.446 0 0 1-.001 2.889zm-.565-6.886a1.45 1.45 0 0 1-1.448 1.449c-.797 0-1.445-.65-1.445-1.449a1.446 1.446 0 0 1 2.893 0zm-3.484-4.709a1.446 1.446 0 0 1-2.893 0 1.446 1.446 0 0 1 2.893 0zm-6.157-5.254a1.446 1.446 0 1 1-.003 2.893 1.446 1.446 0 0 1 .003-2.893zm-5.486-2.194a1.446 1.446 0 1 1-.001 2.889 1.446 1.446 0 0 1 .001-2.889zm-5.936-.903a1.446 1.446 0 1 1-.003 2.893 1.446 1.446 0 0 1 .003-2.893zm-5.808.517a1.446 1.446 0 1 1-.001 2.889 1.446 1.446 0 0 1 .001-2.889zm-6.001.644a1.446 1.446 0 1 1-.003 2.893 1.446 1.446 0 0 1 .003-2.893zm-5.485 1.035a1.446 1.446 0 1 1-.001 2.889 1.446 1.446 0 0 1 .001-2.889zm-6.099 1.307a1.446 1.446 0 1 1-.001 2.889 1.446 1.446 0 0 1 .001-2.889zm-5.227 4.294a1.446 1.446 0 1 1 .001-2.889 1.446 1.446 0 0 1-.001 2.889zm-6.969-42.758c0-1.068.868-1.936 1.936-1.936s1.936.868 1.936 1.936-.868 1.936-1.936 1.936-1.936-.868-1.936-1.936zm8.131-1.8l3.598 1.799-3.598 1.8-2.015-1.009c.048-.257.08-.521.08-.792s-.031-.534-.08-.793l2.015-1.005zm-7.994-4.395l1.798-3.596 1.798 3.596-1.008 2.015a4.292 4.292 0 0 0-.79-.08c-.271 0-.533.031-.79.08l-1.008-2.015zm-4.396 7.994l-3.599-1.8 3.599-1.799 2.015 1.009c-.048.257-.08.521-.08.792s.031.535.08.793l-2.015 1.005zm4.396 22.556l1.008-2.015c.257.048.52.08.79.08.271 0 .533-.031.79-.08l1.008 2.015-1.008 2.015c-.263-.028-.52-.08-.79-.08-.271 0-.527.051-.79.08l-1.008-2.015zm1.799 4.259c2.776 0 5.033 2.257 5.033 5.033s-2.258 5.033-5.033 5.033c-2.775 0-5.033-2.257-5.033-5.033s2.257-5.033 5.033-5.033zm-5.458 11.253a1.446 1.446 0 1 1-.001 2.889 1.446 1.446 0 0 1 .001-2.889zm-5.228-1.403a1.446 1.446 0 1 1-.001 2.889 1.446 1.446 0 0 1 .001-2.889zm-6.098-1.307a1.446 1.446 0 1 1-.001 2.889 1.446 1.446 0 0 1 .001-2.889zm-5.485-1.035a1.448 1.448 0 1 1 0 2.894c-.797 0-1.445-.65-1.445-1.449a1.445 1.445 0 0 1 1.445-1.445zm-6.002-.644c.799 0 1.448.648 1.448 1.445a1.446 1.446 0 0 1-2.893 0c0-.798.648-1.445 1.445-1.445zm-5.807-.517a1.448 1.448 0 1 1 0 2.894c-.797 0-1.445-.65-1.445-1.449a1.444 1.444 0 0 1 1.445-1.445zm-5.936.903a1.446 1.446 0 1 1-.001 2.889 1.446 1.446 0 0 1 .001-2.889zm-5.486 2.194a1.448 1.448 0 1 1 0 2.894 1.45 1.45 0 0 1-1.445-1.449 1.445 1.445 0 0 1 1.445-1.445zm-4.71 3.808a1.446 1.446 0 1 1-.001 2.889 1.446 1.446 0 0 1 .001-2.889zm-3.484 4.71a1.446 1.446 0 1 1-.003 2.893 1.446 1.446 0 0 1 .003-2.893zm-2.012 5.439a1.446 1.446 0 1 1-.001 2.889 1.446 1.446 0 0 1 .001-2.889zm101.244 51.67c-5.357-2.648-23.685-4.603-45.538-4.603s-40.182 1.955-45.539 4.603c-2.77-12.825-9.394-25.233-11.602-29.131 3.678-1.128 14.209-3.367 18.931 6.077a1.163 1.163 0 0 0 2.2-.521c0-.085.064-8.606 5.552-11.352 5.436-2.704 14.229 6.273 17.027 11.873l.004.004c.092.182.245.323.422.437.037.023.07.043.11.062.05.025.09.064.145.082.12.039.24.058.358.058.022 0 .039-.018.061-.02.023 0 .041.015.064.014.109-.013.19-.086.288-.127.104-.042.209-.061.297-.131.107-.085.165-.206.237-.324.048-.078.128-.126.157-.216.035-.106.178-.557.392-1.261 1.015-2.935 4.231-10.324 10.892-10.324 5.652 0 8.824 5.324 10.277 8.731.473 1.637.807 2.684.863 2.855a1.163 1.163 0 0 0 1.463.747c.021-.007.036-.024.057-.031.323-.083.615-.245.769-.552 2.8-5.602 11.601-14.559 17.027-11.873a7.61 7.61 0 0 1 1.02.624c.315.266.528.462.887.752 3.576 3.491 3.646 9.903 3.646 9.977.001.539.372 1.008.895 1.132a1.163 1.163 0 0 0 1.305-.611c4.712-9.422 15.245-7.199 18.93-6.074-2.205 3.897-8.827 16.301-11.597 29.123z"/><path d="M127.749 163.409c-.15.125-.297.255-.442.391-1.126 1.06-2.979.228-2.979-1.32v-.208a1.162 1.162 0 0 0-2.323 0v.208c0 1.547-1.853 2.381-2.979 1.32a10.747 10.747 0 0 0-.442-.391 1.163 1.163 0 0 0-1.482 1.791c3.173 2.629 4.903 8.845 4.903 11.301v1.259a1.162 1.162 0 0 0 2.323 0v-1.259c0-2.456 1.73-8.672 4.903-11.301a1.163 1.163 0 0 0-1.482-1.791zM154.085 168.288c-.136-.01-.272-.015-.409-.01-1.088.076-2.151-1.47-1.623-2.668l.067-.152c.204-.463.048-1.221-.339-1.713-.387-.491-.888-.466-1.128.08a9.149 9.149 0 0 1-.077.174c-.548 1.245-2.127.873-2.377-.957a36.873 36.873 0 0 0-.1-.712c-.122-.774-.568-1.311-1.042-1.096-.471.207-.79 1.075-.677 1.86.671 5.193-.099 10.668-.978 12.66l-.464 1.055c-.239.543.066.963.69.916.624-.047 1.302-.476 1.506-.938l.405-.921c.833-1.9 4.326-6.113 7.187-5.893.461-.003.656-.302.472-.752-.183-.447-.669-.896-1.113-.933zM171.318 171.902a2.78 2.78 0 0 0-.34.02c-.913.152-1.687-1.266-1.16-2.464l.067-.152c.204-.463.129-1.185-.157-1.633-.288-.447-.708-.386-.947.16a9.149 9.149 0 0 1-.077.174c-.548 1.245-1.838 1-1.913-.753a38.768 38.768 0 0 0-.031-.681c-.045-.74-.378-1.227-.789-.985-.408.235-.738 1.098-.7 1.85.182 4.978-.861 10.334-1.739 12.325l-.464 1.055c-.238.543-.015.927.508.837.524-.091 1.121-.555 1.325-1.018l.405-.921c.833-1.9 4.055-6.231 6.425-6.228.384-.036.57-.34.449-.762-.122-.422-.494-.82-.862-.824zM100.912 175.754c-.88-1.991-1.65-7.467-.978-12.66.113-.785-.205-1.653-.677-1.86-.474-.215-.921.322-1.042 1.096-.037.237-.068.476-.1.712-.249 1.83-1.828 2.202-2.377.957a7.001 7.001 0 0 0-.077-.174c-.239-.545-.741-.571-1.128-.08-.386.492-.543 1.25-.339 1.713l.067.152c.528 1.199-.535 2.743-1.623 2.668-.136-.004-.272 0-.409.01-.444.037-.93.486-1.114.933-.184.449.013.75.472.752 2.861-.219 6.354 3.993 7.187 5.893l.405.921c.204.463.882.891 1.506.938.624.045.929-.374.69-.916a483.2 483.2 0 0 0-.463-1.055zM82.784 179.762c-.88-1.991-1.921-7.347-1.739-12.325.038-.752-.292-1.616-.7-1.85-.411-.242-.744.245-.789.985-.014.228-.023.456-.031.681-.075 1.753-1.364 1.999-1.913.753a9.149 9.149 0 0 0-.077-.174c-.239-.545-.66-.607-.947-.16-.287.448-.361 1.17-.157 1.633l.067.152c.528 1.198-.247 2.616-1.159 2.464a2.78 2.78 0 0 0-.34-.02c-.368.003-.74.403-.861.823-.12.422.065.726.449.762 2.37-.003 5.592 4.328 6.425 6.228l.405.921c.204.463.801.927 1.325 1.018.524.089.747-.294.509-.837-.158-.352-.312-.703-.467-1.054z"/></g><path d="M19.026 486.943C8.519 486.943 0 478.425 0 467.917V43.929c0-10.422 8.448-18.871 18.87-18.871h.156c10.508 0 19.026 8.519 19.026 19.026v423.831c.001 10.51-8.518 19.028-19.026 19.028z" fill="#2e3033"/></svg>