<svg xmlns="http://www.w3.org/2000/svg" viewBox="0 0 512 512"><path d="M503.666 379.992H40.111a8.335 8.335 0 0 1-8.334-8.334V73.696a8.335 8.335 0 0 1 8.334-8.334h463.555A8.334 8.334 0 0 1 512 73.696v297.961a8.335 8.335 0 0 1-8.334 8.335z" fill="#82afff"/><path d="M263.555 222.677H40.111a8.335 8.335 0 0 1-8.334-8.334V73.696a8.335 8.335 0 0 1 8.334-8.334h223.443a8.334 8.334 0 0 1 8.334 8.334v140.647a8.333 8.333 0 0 1-8.333 8.334z" fill="#41479b"/><path d="M263.609 65.362h-14.382l-76.695 50.248V65.362h-41.399v50.248L54.439 65.362H40.057a8.28 8.28 0 0 0-8.28 8.28v6.567l65.8 43.11h-65.8v41.399h65.8l-65.8 43.11v6.568a8.28 8.28 0 0 0 8.28 8.28h14.382l76.695-50.248v50.248h41.399v-50.247l76.695 50.248h14.382a8.28 8.28 0 0 0 8.28-8.28v-6.568l-65.8-43.11h65.8V123.32h-65.8l65.8-43.11v-6.567a8.282 8.282 0 0 0-8.281-8.281z" fill="#f5f5f5"/><g fill="#ff4b55"><path d="M271.889 131.6H164.253V65.362h-24.839V131.6H31.777v24.839h107.637v66.238h24.839v-66.238h107.636z"/><path d="M122.854 123.32L35.723 66.761c-2.319 1.467-3.946 3.934-3.946 6.881v.429l75.869 49.248 15.208.001c0-.001 0 0 0 0zM187.74 123.32l82.889-53.806c-1.441-2.438-3.983-4.152-7.02-4.152h-1.791l-89.286 57.958h15.208zM115.698 164.719l-82.73 53.701c1.426 2.497 4.008 4.257 7.089 4.257h1.563l89.287-57.958h-15.209zM271.758 215.047l-77.535-50.328h-15.207l88.048 57.153c2.635-1.224 4.445-3.789 4.694-6.825z"/></g><path d="M333.823 155.725v90.847c0 36.842 51.753 55.779 58.06 57.948 6.299-2.169 58.06-21.135 58.06-57.948v-90.847h-116.12z" fill="#f5f5f5"/><path fill="#ff4b55" d="M451.993 197.391v-43.716H331.774v43.716h51.913v40.983h-51.913v16.394h51.913v49.18l8.197 2.731 8.197-2.731v-49.18h51.912v-16.394h-51.912v-40.983z"/><path d="M351.929 178.772a6.857 6.857 0 0 1-8.232 8.232c-2.515-.557-4.544-2.587-5.101-5.101a6.857 6.857 0 0 1 8.232-8.232c2.514.557 4.544 2.586 5.101 5.101z" fill="#f5f5f5"/><g fill="#ffe15a"><path d="M358.395 171.089c-2.189-1.204-6.129-4.433-7.716-3.886-1.588.547-1.942 1.67-4.162 1.841-2.164.167-5.579 2.277-4.156 4.617 1.851 3.045 7.643.676 8.027-.746 0 0 1.423.227 2.618-.057 0 0 2.379 3.321 5.334 3.101 2.955-.219 4.323-3.886 3.667-3.886-.657.001-3.612-.984-3.612-.984zM367.48 185.59c-.493.903-4.242 4.108-10.507 5.582-1.396.328-1.149 1.97-2.545 1.149s-5.253-1.477-8.701-1.642c-3.447-.165-3.79-3.359-3.201-4.515.747-1.468 6.251-2.363 7.236-.557.984 1.806 1.723 1.429 4.173 1.952 1.519.324 1.56 1.067 1.56 1.067s2.791-2.791 5.171-3.612 4.433-2.626 4.843-2.626c.41 0 2.545.575 2.545.575l-.574 2.627zM376.591 175.904c3.612 1.314 14.282.903 25.692-2.791s14.693-4.35 20.275-2.298 7.998-4.432 4.333-5.529c-5.758-1.723-23.565 8.624-36.458 2.818 0 0-.38 1.562.03 2.3 0 0-9.358.328-7.141-9.358 0 0 .638 3.536 5.062 3.129 8.367-.769 9.563 5.123 27.28-.339 9.836-3.033 17.478-1.544 17.546 3.242.082 5.761-7.86 7.1-7.86 7.1s3.092 6.32 9.33 3.529c6.239-2.791 6.567 2.025 7.114 3.667.547 1.642 1.587 3.228 2.955 3.393 0 0 .984 2.955.602 3.338-.383.383-2.955 3.612-5.526 3.612h-8.154s-1.477-3.667 1.368-3.721c2.845-.054 6.293-.274 5.856-1.806-.438-1.532-2.681-2.244-2.626-3.94 0 0-6.621 4.816-10.726-.875l-.109 2.681s-4.979-.93-6.786-4.925c0 0 .493 4.488-3.776 3.83 0 0 .876 1.314 2.353 2.244 1.477.93-.055 2.955-2.9 4.651-2.846 1.697-11.601 6.621-15.596 1.587-3.995-5.035.876-7.935 2.079-7.607 1.204.328 4.651 5.637 7.005 4.925 2.353-.712 3.502-3.119 1.532-4.597-1.97-1.477-3.446-2.874-2.203-4.366 1.707-2.049 8.004-1.436 7.785-2.803-.219-1.368-6.074-.985-9.905 2.846-3.83 3.83-20.466 12.64-27.087 7.059-6.625-5.578-1.344-10.996-1.344-10.996z"/></g><path d="M374.456 173.442s5.007 4.925 13.461 6.485c0 0-1.56 2.38-6.074 1.724 0 0 1.806 1.559 3.037 4.187 0 0-2.873.656-5.418-.739 0 0 .328 2.135 1.559 3.858 0 0-3.366 0-6.238-2.545l-1.149 3.284s-1.97-1.314-3.201-3.858c0 0-2.298 1.806-4.597 1.806 0 0 .821-2.463.821-3.858 0 0-3.284 1.97-5.992 1.231 0 0 .082-3.447.984-4.433 0 0-2.135.246-3.529-.493 0 0 .821-1.888 1.231-3.119 0 0-2.298.082-3.694-1.231 0 0 4.433-1.724 5.418-3.366l13.381 1.067z" fill="#ffd25a"/><path d="M366.385 159.652c.984.547 2.572 1.751 3.228 3.776 0 0 1.805-2.626 4.925-3.119 0 0 1.368 1.532.984 5.526 0 0 3.447-.985 5.308.821 0 0-3.667.821-5.363 3.886 0 0-.658 3.13.492 4.991 0 0-1.28.171-2.571-.395 0 0-.656 3.119 0 4.104 0 0-1.805-.219-2.791-2.135 0 0-1.477 2.244-1.368 3.612 0 0-1.97-1.149-2.079-2.846 0 0-1.368 2.572-2.846 2.791 0 0-.165-3.612-.821-4.979 0 0-1.258 1.368-2.9 1.314 0 0 0-2.791 1.368-4.104 0 0-2.298.712-3.556-1.805 0 0 3.775 1.095 4.707-1.204.93-2.298 1.204-3.01 2.517-4.268 1.313-1.261.766-5.966.766-5.966z" fill="#ffbe5a"/><path d="M374.456 170.24s-4.678 8.947-8.947 6.239c-4.676-2.968 1.149-9.932 1.888-10.671.001.001 3.448.903 7.059 4.432z" fill="#ffe15a"/><path d="M357.582 216.066s-.491-6.426-3.974-8.28c-3.276-1.743-5.21-2.615-5.586-4.848 0 0 2.846 1.307 5.855 2.124 2.718.739 5.37 5.338 4.565 10.513l-.86.491z" fill="#5abea0"/><path d="M346.586 221.35l.443.817.322 1.756-.645 2.083s2.56 1.018 3.142 4.494c.4 2.386 1.45 2.9 2.095 2.411.645-.491 1.034-1.071.363-3.677-.858-3.328-3.182-6.495-3.182-6.495l-1.813-2.778-.725 1.389z" fill="#b46446"/><g fill="#5abea0"><path d="M349.123 222.739c-2.337-3.023-8.701-9.315-9.909-.735 0 0-2.495-7.228 2.175-6.945 5.398.327 7.734 7.68 7.734 7.68z"/><path d="M347.029 222.168c-2.014-2.206-2.659-3.84-3.705-7.926-1.047-4.086-1.37-5.311-2.578-5.23-1.208.082-1.933 1.389-1.933 4.003 0 0-3.545-3.187-1.128-5.719 2.417-2.532 7.814-1.144 8.137 3.35.322 4.494.242 7.517 1.853 11.276l-.646.246z"/><path d="M347.592 220.206s-4.27-9.396 7.734-14.462c0 0-10.634-2.86-9.345 12.256l1.611 2.206zM348.962 223.556s-9.022-3.431-8.217 4.902c0 0 1.53-3.922 5.962-2.451l2.255-2.451z"/></g><path d="M359.193 220.261c0 2.438.958 9.511-.403 10.404-.684.449-2.618.081-2.457-1.634.161-1.716.926-10.05.926-12.092 0-2.044 1.934 3.322 1.934 3.322z" fill="#b46446"/><g fill="#5abea0"><path d="M353.447 225.926c1.557-1.579 2.041-5.174 1.504-9.968 0 0 3.222 2.233 4.243 4.303 0 0 1.021-4.739-2.31-5.992-3.33-1.253-5.102-.545-5.693.98s1.018 3.23 1.719 5.719c.644 2.289.537 4.958.537 4.958z"/><path d="M358.978 219.008s.538-2.505 2.31-3.541c0 0 3.652 2.561 3.384 5.992 0 0 .967-4.685-1.02-6.537-1.988-1.852-4.243-2.343-5.371-.708-1.129 1.634.697 4.794.697 4.794z"/><path d="M359.838 214.215s1.128-6.7 3.974-8.17c2.847-1.471 8.11-2.832 8.432-3.16 0 0-6.284.327-7.305.327s-6.66 4.086-6.66 10.132.538 1.906.698 1.852c.163-.056.861-.981.861-.981z"/></g><path d="M362.456 231.932c.645 1.348 2.175 1.675 2.497.98.322-.695 1.772-6.006 1.772-6.006l-2.054-.98-2.215 6.006z" fill="#b46446"/><path d="M374.5 209.639c2.524-1.471 4.189 2.887 4.189 2.887 0-5.131-1.612-6.755-5.639-4.794-1.214.591-2.1 1.828-2.754 3.264-2.04-5.859-6.537-5.769-6.537-5.769l-1.02.708c3.683.707 5.791 5.121 6.684 7.529a28.477 28.477 0 0 0-.814 4.435c-2.414 2.502-3.937 8.028-3.937 8.028s1.732 1.021 2.054.98c0 0 1.128-3.473 2.538-3.391 1.409.081 3.062 2.328 3.101 3.759 0 0 2.095-4.249-.403-5.883-.939-.614-1.689-.847-2.294-.858l1.851-2.083c3.021.572 5.116 3.431 5.116 3.431.061-5.107-2.194-6.104-4.571-5.675.427-2.057 1.36-5.941 2.436-6.568z" fill="#5abea0"/><path d="M424.227 216.71v14.481c0 .701-3.067 3.426-3.067 3.426h8.154s-2.618-3.037-2.618-3.426c0-.39.598-13.392.598-13.392l-3.067-1.089z" fill="#b46446"/><g fill="#5abea0"><path d="M424.751 218.189c-1.945-.156-7.331 4.283-8.902 11.056 0 0-4.788-7.786 7.182-14.248 0 0-5.311-1.557-13.39 6.852-.436.454-.823-12.69 13.689-9.187 0 0-5.536-8.019-16.906-1.713 0 0 7.556-13.548 18.701-1.401 0 0 .075-10.511.15-9.42.075 1.09.898 5.917.898 5.917l2.17-3.815-1.721 7.786s9.95-13.236 18.402.545c0 0-10.922-4.516-16.158.545 0 0 11.221-3.037 10.324 9.966 0 0-4.414-7.708-11.595-6.695 0 0 8.453 3.893 5.76 14.404-.001-.003-5.095-10.311-8.604-10.592zM353.315 264.98c-.417-.565-1-.835-1.572-.905.221-.759.367-1.106.308-1.659.175.044.342.122.521.144l.076-.625c-.665-.08-1.388-.377-2.132-.831.458-.394.791-.997.791-1.737 0-.804-.369-1.476-.893-1.859-.524.382-.893 1.055-.893 1.859 0 .603.247 1.087.573 1.475a11.072 11.072 0 0 1-.837-.651c-.073-.495-.263-.992-.701-1.392-.594-.542-1.34-.722-1.975-.593-.071.645.178 1.371.773 1.913.458.418.998.56 1.517.572.118.1.243.201.373.303a2.437 2.437 0 0 0-1.124.133c-.755.275-1.262.851-1.442 1.475.539.361 1.297.478 2.052.203a2.264 2.264 0 0 0 1.313-1.253c.443.282.927.518 1.428.706l-.08.01c-.017.453.014.64-.213 1.481a2.266 2.266 0 0 0-1.889-.268c-.771.227-1.313.771-1.531 1.381.515.395 1.265.558 2.036.331.579-.171.973-.544 1.253-.966-.106.32-.239.65-.389.987-.453.209-.878.531-1.138 1.066-.352.723-.315 1.489-.01 2.063.639-.115 1.265-.558 1.616-1.281.271-.557.256-1.116.121-1.617.063-.142.124-.29.185-.443.059.354.203.711.446 1.041.477.647 1.173.97 1.822.967.195-.623.093-1.383-.385-2.03z"/></g><path d="M349.619 262.962c2.73 0 6.301-.105 6.196 2.625-.105 2.73-3.151 11.974 3.886 14.809 7.037 2.836 7.877 2.416 7.877 2.416l3.151 7.247 7.667-2.73-7.352-5.882s-.63-3.991-2.416-6.722c0 0 4.516-2.311 6.092-4.307l-3.151-.21s4.096-2.626 5.987-5.567l-2.205.21s2.521-2.521 3.151-5.462c0 0-4.096 4.096-8.297 4.621 0 0 1.786-4.621 2.205-6.407 0 0-3.151 1.996-5.357 2.836-2.205.841-5.671.945-4.096 8.087 0 0-1.891-1.575-3.046-4.937-1.155-3.361-1.575-4.621-3.151-4.621-2.573 0-3.571 2.311-3.571 2.311l-3.57 1.683z" fill="#ffecde"/><path d="M427.135 264.312c.945-1.259 2.835-5.196 4.488-4.173s3.858 3.543 5.196 2.362c1.339-1.181 1.417-2.677-.63-3.386-2.047-.708-4.331-1.89-5.747-1.417-1.417.472-5.747 4.96-5.747 4.96l2.44 1.654z" fill="#b46446"/><path d="M414.932 267.698c-.079-1.811 1.144-9.674 6.062-8.661 2.677.551 3.994 3.389 7.48 4.724 3.7 1.417 6.062 2.283 5.353 4.724-.708 2.441-2.047 5.353-5.118 6.062-3.07.71-13.777-6.849-13.777-6.849z" fill="#ffe15a"/><g fill="#5abea0"><path d="M411.704 274.18c-1.05.21-4.934 5.879-.315 11.652 0 0 5.669 2.31 10.183-1.259s1.155-5.353 1.155-5.353l-11.023-5.04z"/><path d="M412.097 275.414c-.472-.708-.394-1.233-.394-1.233s-.236-8.136 3.149-8.293c3.386-.157 15.589 7.873 15.589 9.212 0 1.339-3.937 5.196-7.243 5.984-3.306.785-11.101-5.67-11.101-5.67z"/></g><path d="M403.752 295.096s10.754-4.832 8.733-8.762c-1.458-2.837-4.738-1.019-5.256 1.146-.647 2.704-2.749 6.469-3.477 7.616z" fill="#b46446"/><path d="M391.884 308.831l-.622-.198c-.624-.2-15.47-4.982-30.56-14.928-20.265-13.354-30.976-29.654-30.976-47.133v-94.945h124.317v94.945c0 17.479-10.711 33.779-30.976 47.133-15.09 9.948-29.935 14.728-30.56 14.928l-.623.198zm-58.061-153.106v90.847c0 36.842 51.753 55.779 58.06 57.948 6.299-2.169 58.06-21.135 58.06-57.948v-90.847h-116.12z" fill="#464655"/><path d="M18.881 485.182C8.454 485.182 0 476.729 0 466.301V45.545c0-10.342 8.384-18.727 18.726-18.727h.155c10.428 0 18.881 8.454 18.881 18.881V466.3c.001 10.429-8.453 18.882-18.881 18.882z" fill="#2e3033"/></svg>