<svg xmlns="http://www.w3.org/2000/svg" viewBox="0 0 512 512"><path d="M512 162.503H27.43V65.118a8.44 8.44 0 0 1 8.44-8.44h467.69a8.44 8.44 0 0 1 8.44 8.44v97.385z" fill="#ffe15a"/><path d="M503.56 374.155H35.87a8.44 8.44 0 0 1-8.44-8.44V268.33H512v97.385a8.44 8.44 0 0 1-8.44 8.44z" fill="#ff4b55"/><path fill="#41479b" d="M27.43 162.498H512v105.83H27.43z"/><g fill="#f5f5f5"><path d="M196.026 235.763l2.093 6.277 6.617.052c.857.006 1.212 1.1.523 1.609l-5.324 3.931 1.996 6.309c.258.817-.672 1.493-1.368.995l-5.384-3.849-5.384 3.849c-.697.498-1.627-.177-1.368-.995l1.996-6.309-5.324-3.931c-.689-.508-.333-1.603.522-1.609l6.617-.052 2.093-6.277c.275-.813 1.424-.813 1.695 0zM208.882 215.779l-1.123 6.522 5.808 3.172c.752.41.549 1.542-.3 1.665l-6.549.948-1.223 6.504c-.158.842-1.298.998-1.676.229l-2.926-5.935-6.563.847c-.849.11-1.35-.925-.736-1.523l4.741-4.617-2.834-5.981c-.367-.774.463-1.57 1.222-1.171l5.856 3.083 4.812-4.543c.623-.588 1.636-.045 1.491.8zM225.15 198.288l-3.106 5.844 4.524 4.83c.586.626.038 1.636-.806 1.488l-6.518-1.148-3.196 5.795c-.414.75-1.545.542-1.664-.307l-.922-6.553-6.499-1.249c-.842-.161-.993-1.301-.223-1.677l5.947-2.902-.821-6.566c-.107-.85.931-1.346 1.527-.73l4.598 4.759 5.991-2.809c.778-.365 1.571.469 1.168 1.225zM244.728 187.436l-4.566 4.79 3.054 5.87c.396.76-.404 1.586-1.176 1.215l-5.967-2.862-4.64 4.719c-.6.611-1.633.105-1.519-.744l.878-6.559-5.922-2.954c-.767-.382-.606-1.52.237-1.675l6.509-1.192.98-6.544c.127-.847 1.26-1.046 1.666-.292l3.145 5.823 6.527-1.091c.846-.139 1.385.876.794 1.496zM267.229 182.408l-5.682 3.392 1.37 6.475c.177.838-.814 1.42-1.459.856l-4.982-4.356-5.734 3.303c-.743.427-1.602-.335-1.265-1.124l2.603-6.084-4.914-4.432c-.636-.574-.176-1.627.677-1.55l6.591.596 2.698-6.043c.349-.783 1.493-.67 1.684.166l1.47 6.452 6.581.697c.852.09 1.099 1.213.362 1.652zM343.404 235.763l-2.093 6.277-6.617.052c-.857.006-1.212 1.1-.523 1.609l5.324 3.931-1.996 6.309c-.258.817.672 1.493 1.368.995l5.384-3.849 5.384 3.849c.697.498 1.627-.177 1.368-.995l-1.996-6.309 5.324-3.931c.689-.508.333-1.603-.523-1.609l-6.617-.052-2.094-6.277c-.273-.813-1.422-.813-1.693 0zM330.549 215.779l1.121 6.522-5.807 3.172c-.752.41-.549 1.542.3 1.665l6.549.948 1.223 6.504c.158.842 1.298.998 1.676.229l2.926-5.935 6.563.847c.849.11 1.35-.925.736-1.523l-4.741-4.617 2.834-5.981c.367-.774-.463-1.57-1.222-1.171l-5.855 3.083-4.812-4.543c-.623-.588-1.637-.045-1.491.8zM314.281 198.288l3.106 5.844-4.524 4.83c-.586.626-.038 1.636.806 1.488l6.517-1.148 3.196 5.795c.414.75 1.545.542 1.664-.307l.922-6.553 6.499-1.249c.842-.161.993-1.301.223-1.677l-5.947-2.902.821-6.566c.107-.85-.93-1.346-1.527-.73l-4.598 4.759-5.991-2.808c-.777-.366-1.569.468-1.167 1.224zM294.703 187.436l4.566 4.79-3.054 5.87c-.396.76.404 1.586 1.176 1.215l5.967-2.862 4.64 4.719c.6.611 1.633.105 1.519-.744l-.878-6.559 5.922-2.954c.767-.382.606-1.52-.237-1.675l-6.509-1.192-.98-6.544c-.127-.847-1.26-1.046-1.667-.292l-3.145 5.823-6.527-1.091c-.846-.139-1.384.876-.793 1.496zM272.201 182.408l5.682 3.392-1.369 6.475c-.177.838.814 1.42 1.459.856l4.982-4.356 5.734 3.303c.743.427 1.602-.335 1.265-1.124l-2.603-6.084 4.914-4.432c.636-.574.176-1.627-.677-1.55l-6.591.596-2.698-6.043c-.349-.783-1.493-.67-1.684.166l-1.47 6.452-6.581.697c-.852.09-1.099 1.213-.363 1.652z"/></g><path d="M19.122 488.101C8.561 488.101 0 479.54 0 468.979V42.865c0-10.474 8.491-18.966 18.965-18.966h.157c10.561 0 19.122 8.561 19.122 19.122v425.958c0 10.561-8.561 19.122-19.122 19.122z" fill="#2e3033"/></svg>