<svg xmlns="http://www.w3.org/2000/svg" viewBox="0 0 511.999 511.999"><path d="M266.197 374.657H28.871a8.476 8.476 0 0 1-8.476-8.476V61.047a8.476 8.476 0 0 1 8.476-8.476h237.326v322.086z" fill="#73af00"/><path d="M266.197 52.571h237.326a8.476 8.476 0 0 1 8.476 8.476V366.18a8.476 8.476 0 0 1-8.476 8.476H266.197V52.571z" fill="#f5f5f5"/><g fill="#ff4b55"><path d="M307.108 182.799l-14.695 19.223-22.945-7.68c-1.283-.429-2.374 1.021-1.606 2.135l13.742 19.916-14.395 19.449c-.805 1.087.237 2.574 1.534 2.187l23.188-6.915 14.049 19.701c.785 1.102 2.522.569 2.554-.783l.589-24.19 23.078-7.273c1.29-.407 1.32-2.222.044-2.671l-22.824-8.035.214-24.197c.012-1.353-1.706-1.943-2.527-.867z"/><path d="M281.431 271.829c-32.126 0-58.186-26.06-58.186-58.216 0-32.096 26.06-58.215 58.186-58.215 11.952 0 22.975 3.676 32.161 9.898 1.407.952 3.012-.895 1.834-2.12-13.729-14.273-33.159-22.98-54.702-22.245-37.012 1.263-67.653 30.938-70.018 67.896-2.709 42.333 30.811 77.512 72.544 77.512 20.557 0 39.033-8.595 52.227-22.335 1.165-1.214-.444-3.034-1.836-2.09-9.195 6.234-20.236 9.915-32.21 9.915z"/></g><path d="M19.203 489.087C8.598 489.087 0 480.489 0 469.884V41.957c0-10.519 8.527-19.045 19.045-19.045h.158c10.606 0 19.203 8.598 19.203 19.203v427.768c.001 10.606-8.597 19.204-19.203 19.204z" fill="#2e3033"/></svg>