<svg xmlns="http://www.w3.org/2000/svg" viewBox="0 0 512.001 512.001"><path d="M503.524 374.658H28.87a8.476 8.476 0 0 1-8.476-8.476V61.047a8.476 8.476 0 0 1 8.476-8.476h474.655a8.476 8.476 0 0 1 8.476 8.476v305.135a8.477 8.477 0 0 1-8.477 8.476z" fill="#73af00"/><circle cx="232.29" cy="213.62" r="110.19" fill="#ff4b55"/><path d="M19.203 489.089C8.598 489.089 0 480.492 0 469.886V41.957c0-10.519 8.527-19.045 19.045-19.045h.158c10.606 0 19.203 8.598 19.203 19.203v427.771c.001 10.606-8.597 19.203-19.203 19.203z" fill="#2e3033"/></svg>