<svg xmlns="http://www.w3.org/2000/svg" viewBox="0 0 512.001 512.001"><path d="M350.697 60.726h152.906a8.398 8.398 0 0 1 8.398 8.398v300.249a8.398 8.398 0 0 1-8.398 8.398H350.697V60.726z" fill="#41479b"/><path fill="#ffe15a" d="M189.39 60.726h161.3v317.04h-161.3z"/><path d="M36.488 60.726h152.906v317.045H36.488a8.398 8.398 0 0 1-8.398-8.398V69.124a8.397 8.397 0 0 1 8.398-8.398z" fill="#41479b"/><path fill="#ff4b55" d="M311.762 198.389h-20.859v-20.858l12.515-16.687H236.672l12.515 16.687v20.858h-20.859l-16.686-12.515v66.747l16.686-12.515h20.859v20.858l-12.515 16.687H303.418l-12.515-16.687v-20.858h20.859l16.686 12.515v-66.747z"/><path fill="#f5f5f5" d="M311.762 210.904h-33.374v-33.373h-16.686v33.373h-33.374v16.687h33.374v33.373h16.686v-33.373h33.374z"/><path d="M19.026 486.943C8.519 486.943 0 478.425 0 467.917V43.929c0-10.422 8.448-18.871 18.87-18.871h.156c10.508 0 19.026 8.519 19.026 19.026v423.831c.001 10.51-8.518 19.028-19.026 19.028z" fill="#2e3033"/></svg>