<svg xmlns="http://www.w3.org/2000/svg" viewBox="0 0 512.001 512.001"><path d="M30.512 372.135l239.203-156.719L30.512 58.697c-1.841 1.533-3.082 3.753-3.082 6.335V365.8c0 2.583 1.241 4.804 3.082 6.335z" fill="#41479b"/><path d="M30.512 372.135c1.449 1.206 3.241 2.019 5.273 2.019h467.861a8.355 8.355 0 0 0 8.355-8.355V215.417H269.715L30.512 372.135z" fill="#ff4b55"/><path d="M30.512 58.697c1.449-1.206 3.241-2.019 5.273-2.019h467.861a8.355 8.355 0 0 1 8.355 8.355v150.384H269.715L30.512 58.697z" fill="#f5f5f5"/><path d="M19.122 488.1C8.561 488.1 0 479.539 0 468.979V42.864C0 32.39 8.491 23.9 18.965 23.9h.157c10.561 0 19.122 8.561 19.122 19.122V468.98c0 10.559-8.561 19.12-19.122 19.12z" fill="#2e3033"/></svg>