<svg xmlns="http://www.w3.org/2000/svg" viewBox="0 0 512 512"><path d="M20.395 267.296H512v98.885a8.476 8.476 0 0 1-8.476 8.476H28.871a8.476 8.476 0 0 1-8.476-8.476v-98.885z" fill="#73af00"/><path d="M28.871 52.572h474.653A8.476 8.476 0 0 1 512 61.048v98.885H20.395V61.048a8.476 8.476 0 0 1 8.476-8.476z" fill="#ff4b55"/><path fill="#ffe15a" d="M20.395 159.93h491.6v107.36h-491.6z"/><path d="M255.249 165.563l-.627.784a24.73 24.73 0 0 0-1.411 2.165c-1.1 1.92-2.254 4.895-2.285 8.442-.012 1.729.345 3.829.936 5.499.64 1.844 1.7 3.607 3.042 5.181 1.343 1.589 3.138 2.814 5.057 3.719.951.483 1.996.761 3.032 1.016.514.157 1.061.164 1.588.268.265.05.539.028.807.049l.405.018.202.011.101.005.051.003.025.001c-.082.003.218-.004-.177.006.657-.038 1.454-.043 1.995-.109.473-.11.87-.091 1.411-.251 1.037-.255 2.081-.533 3.032-1.016 1.919-.905 3.714-2.13 5.057-3.719 1.341-1.574 2.402-3.337 3.042-5.181.612-1.875.94-3.67.936-5.507-.03-3.531-1.185-6.518-2.284-8.435a22.491 22.491 0 0 0-1.435-2.186l-.583-.745-.051-.065a1.073 1.073 0 0 1 1.423-1.564l.9.576c.555.416 1.415 1.005 2.341 1.958 1.859 1.841 4.274 5.122 5.145 9.888a19.815 19.815 0 0 1-.117 7.753c-.576 2.74-1.745 5.574-3.631 8.053-1.853 2.491-4.343 4.694-7.303 6.179-1.46.779-3.049 1.344-4.68 1.738-.782.23-1.774.324-2.657.464-.827.091-1.417.093-2.137.144l-.281.001-.078-.004-.158-.007-.315-.016-.63-.034c-.42-.034-.841-.028-1.257-.1-.829-.146-1.672-.214-2.48-.447-1.631-.393-3.221-.959-4.68-1.738-2.96-1.485-5.45-3.689-7.303-6.179-1.886-2.48-3.055-5.313-3.631-8.053-.617-2.919-.539-5.373-.115-7.762.869-4.752 3.284-8.044 5.144-9.881.923-.948 1.786-1.543 2.365-1.979l.855-.537a1.08 1.08 0 0 1 1.414 1.594z" fill="#73af00"/><path d="M264.068 249.972v13.414c0 1.338-1.618 2.009-2.564 1.063l-.738-.738a3.27 3.27 0 0 1-.958-2.312v-11.427h4.26z" fill="#ff4b55"/><path d="M257.677 247.841v9.737c0 .585.232 1.146.646 1.561l1.483 1.483v-12.781h-2.129z" fill="#ffe15a"/><path d="M255.547 247.841v5.225c0 .746.297 1.461.823 1.989l1.306 1.306v-8.52h-2.129z" fill="#73af00"/><path d="M268.328 249.972v13.414c0 1.338 1.618 2.009 2.564 1.063l.738-.738a3.27 3.27 0 0 0 .958-2.312v-11.427h-4.26z" fill="#ff4b55"/><path d="M274.717 247.841v9.737a2.21 2.21 0 0 1-.646 1.561l-1.483 1.483v-12.781h2.129z" fill="#ffe15a"/><path d="M276.848 247.841v5.225a2.82 2.82 0 0 1-.823 1.989l-1.306 1.306v-8.52h2.129z" fill="#73af00"/><path d="M276.848 209.499l23.431-17.041v35.044c0 10.057-8.153 18.208-18.208 18.208-3.413 0-6.756-.959-9.651-2.767l-12.612-7.883v-25.857l17.04.296z" fill="#ff4b55"/><path d="M291.758 198.656v24.587c0 10.057-8.153 18.208-18.208 18.208-1.512 0-3.003-.218-4.455-.586l-9.287-5.805v-25.857l17.041.296 14.909-10.843z" fill="#ffe15a"/><path d="M285.369 203.304v15.872c0 10.057-8.153 18.208-18.208 18.208-1.512 0-3.004-.218-4.455-.586l-2.898-1.811v-25.784l17.041.296 8.52-6.195z" fill="#73af00"/><path fill="#f5f5f5" d="M301.556 188.625l9.374-4.686-6.817 8.52h-3.834z"/><path d="M289.629 220.151l23.431-17.041v35.044c0 10.057-8.153 18.208-18.208 18.208-3.413 0-6.756-.959-9.651-2.767l-12.612-7.883v-25.857l17.04.296z" fill="#ff4b55"/><path d="M298.149 213.954v15.872c0 10.057-8.153 18.208-18.208 18.208-1.512 0-3.003-.218-4.455-.586l-2.898-1.811v-25.783l17.041.296 8.52-6.196z" fill="#73af00"/><path fill="#f5f5f5" d="M314.337 199.275l9.373-4.686-6.816 8.521h-3.835z"/><path d="M283.238 215.89l23.431-17.041v35.044c0 10.057-8.153 18.208-18.208 18.208-3.413 0-6.756-.959-9.651-2.767l-12.612-7.883v-25.857l17.04.296z" fill="#ff4b55"/><path d="M298.149 205.046v24.587c0 10.057-8.153 18.208-18.208 18.208-1.512 0-3.003-.218-4.455-.586l-9.288-5.805v-25.857l17.041.296 14.91-10.843z" fill="#ffe15a"/><path d="M291.758 209.693v15.872c0 10.057-8.153 18.208-18.208 18.208-1.512 0-3.003-.218-4.455-.586l-2.898-1.811v-25.784l17.041.296 8.52-6.195z" fill="#73af00"/><path fill="#f5f5f5" d="M307.947 195.015l9.373-4.686-6.817 8.52h-3.833z"/><path d="M255.547 209.499l-23.431-17.041v35.044c0 10.057 8.153 18.208 18.208 18.208 3.413 0 6.756-.959 9.651-2.767l12.612-7.883v-25.857l-17.04.296z" fill="#ff4b55"/><path d="M240.636 198.656v24.587c0 10.057 8.153 18.208 18.208 18.208 1.512 0 3.003-.218 4.455-.586l9.288-5.805v-25.857l-17.041.296-14.91-10.843z" fill="#ffe15a"/><path d="M247.027 203.304v15.872c0 10.057 8.153 18.208 18.208 18.208 1.512 0 3.004-.218 4.455-.586l2.898-1.811v-25.784l-17.041.296-8.52-6.195z" fill="#73af00"/><path fill="#f5f5f5" d="M230.838 188.625l-9.373-4.686 6.817 8.52h3.833z"/><path d="M242.766 220.151l-23.431-17.041v35.044c0 10.057 8.153 18.208 18.208 18.208 3.413 0 6.756-.959 9.651-2.767l12.612-7.883v-25.857l-17.04.296z" fill="#ff4b55"/><path d="M234.246 213.954v15.872c0 10.057 8.153 18.208 18.208 18.208 1.512 0 3.003-.218 4.455-.586l2.898-1.811v-25.783l-17.041.296-8.52-6.196z" fill="#73af00"/><path fill="#f5f5f5" d="M218.057 199.275l-9.372-4.686 6.816 8.521h3.834z"/><path d="M249.156 215.89l-23.431-17.041v35.044c0 10.057 8.153 18.208 18.208 18.208 3.413 0 6.756-.959 9.651-2.767l12.612-7.883v-25.857l-17.04.296z" fill="#ff4b55"/><path d="M234.246 205.046v24.587c0 10.057 8.153 18.208 18.208 18.208 1.512 0 3.003-.218 4.455-.586l9.288-5.805v-25.857l-17.041.296-14.91-10.843z" fill="#ffe15a"/><path d="M240.636 209.693v15.872c0 10.057 8.153 18.208 18.208 18.208 1.512 0 3.003-.218 4.455-.586l2.898-1.811v-25.784l-17.041.296-8.52-6.195z" fill="#73af00"/><g fill="#ffbe5a"><path d="M238.302 247.561l-2.809-2.809a4.26 4.26 0 0 1 .102-6.124l46.488-43.684 6.025 6.025-43.684 46.488a4.257 4.257 0 0 1-6.122.104z"/><circle cx="236.9" cy="246.16" r="2.13"/></g><ellipse transform="rotate(-134.999 285.096 197.948)" cx="285.095" cy="197.946" rx="4.259" ry="2.13" fill="#f5f5f5"/><g fill="#ffbe5a"><path d="M294.092 247.561l2.809-2.809a4.26 4.26 0 0 0-.102-6.124l-46.488-43.684-6.025 6.025 43.684 46.488a4.258 4.258 0 0 0 6.122.104z"/><circle cx="295.49" cy="246.16" r="2.13"/></g><ellipse transform="rotate(-45.001 247.304 197.964)" cx="247.305" cy="197.96" rx="4.259" ry="2.13" fill="#f5f5f5"/><ellipse cx="266.2" cy="223.35" rx="18.835" ry="22.366" fill="#ffbe5a"/><path fill="#ff4b55" d="M266.197 203.11l1 4.338 2.292-3.817-.391 4.435 3.36-2.922-1.742 4.097 4.098-1.741-2.923 3.359 4.436-.39-3.819 2.292 4.34.999-4.34 1 3.819 2.292-4.436-.39 2.923 3.358-4.098-1.742 1.742 4.099-3.36-2.924.391 4.436-2.292-3.817-1 4.339-.999-4.339-2.292 3.817.39-4.436-3.358 2.924 1.74-4.099-4.097 1.742 2.922-3.358-4.435.39 3.818-2.292-4.339-1 4.339-.999-3.818-2.292 4.435.39-2.922-3.359 4.097 1.741-1.74-4.097 3.358 2.922-.39-4.435 2.292 3.817z"/><path d="M289.761 222.947s-7.056 1.864-11.649-1.997c-5.105-4.291-8.931-6.317-10.572-7.077a2.062 2.062 0 0 0-1.752-.001c-1.175.542-3.337 1.667-5.25 3.351-2.796 2.463-11.383 7.322-13.113 7.322v10.59l13.513 11.711 15.976-.466 12.847-23.433z" fill="#73af00"/><path d="M266.197 251.037c-13.507 0-24.496-12.423-24.496-27.691s10.988-27.691 24.496-27.691c13.507 0 24.496 12.423 24.496 27.691s-10.989 27.691-24.496 27.691zm0-48.992c-9.984 0-18.106 9.557-18.106 21.301 0 11.744 8.122 21.301 18.106 21.301s18.106-9.557 18.106-21.301c0-11.746-8.122-21.301-18.106-21.301z" fill="#3cc8ff"/><g fill="#ffbe5a"><path d="M262.527 245.248l.469 1.407 1.483.012c.192.001.271.247.118.36l-1.193.882.447 1.414a.2.2 0 0 1-.307.223l-1.207-.862-1.207.862a.2.2 0 0 1-.307-.223l.447-1.414-1.193-.882a.2.2 0 0 1 .118-.36l1.483-.012.469-1.407c.062-.182.32-.182.38 0zM255.868 242.385l.469 1.407 1.483.012c.192.001.271.247.118.36l-1.193.882.447 1.414a.2.2 0 0 1-.307.223l-1.207-.862-1.207.862a.2.2 0 0 1-.307-.223l.447-1.414-1.193-.882a.2.2 0 0 1 .118-.36l1.483-.012.469-1.407c.062-.182.32-.182.38 0zM250.521 237.526l.469 1.407 1.483.012c.192.001.271.247.118.36l-1.193.882.447 1.414a.2.2 0 0 1-.307.222l-1.207-.862-1.207.862a.2.2 0 0 1-.307-.222l.447-1.414-1.193-.882a.2.2 0 0 1 .118-.36l1.483-.012.469-1.407a.2.2 0 0 1 .38 0zM246.874 231.058l.469 1.407 1.483.012c.192.001.271.247.118.36l-1.193.882.447 1.414a.2.2 0 0 1-.307.223l-1.207-.862-1.207.862a.2.2 0 0 1-.307-.223l.447-1.414-1.193-.882a.2.2 0 0 1 .118-.36l1.483-.012.469-1.407c.062-.182.32-.182.38 0zM245.265 223.536l.469 1.407 1.483.012c.192.001.271.247.118.36l-1.193.882.447 1.414a.2.2 0 0 1-.307.223l-1.207-.862-1.207.862a.2.2 0 0 1-.307-.223l.447-1.414-1.193-.882a.2.2 0 0 1 .118-.36l1.483-.012.469-1.407a.2.2 0 0 1 .38 0zM269.858 245.248l-.469 1.407-1.483.012c-.192.001-.271.247-.118.36l1.193.882-.447 1.414a.2.2 0 0 0 .307.223l1.207-.862 1.207.862a.2.2 0 0 0 .307-.223l-.447-1.414 1.193-.882a.2.2 0 0 0-.118-.36l-1.483-.012-.469-1.407c-.063-.182-.32-.182-.38 0zM276.516 242.385l-.469 1.407-1.483.012c-.192.001-.271.247-.118.36l1.193.882-.447 1.414a.2.2 0 0 0 .307.223l1.207-.862 1.207.862a.2.2 0 0 0 .307-.223l-.447-1.414 1.193-.882a.2.2 0 0 0-.118-.36l-1.483-.012-.469-1.407a.2.2 0 0 0-.38 0zM281.864 237.526l-.469 1.407-1.483.012c-.192.001-.271.247-.118.36l1.193.882-.447 1.414a.2.2 0 0 0 .307.222l1.207-.862 1.207.862a.2.2 0 0 0 .307-.222l-.447-1.414 1.193-.882a.2.2 0 0 0-.118-.36l-1.483-.012-.469-1.407c-.061-.182-.32-.182-.38 0zM285.511 231.058l-.469 1.407-1.483.012c-.192.001-.271.247-.118.36l1.193.882-.447 1.414a.2.2 0 0 0 .307.223l1.207-.862 1.207.862a.2.2 0 0 0 .307-.223l-.447-1.414 1.193-.882a.2.2 0 0 0-.118-.36l-1.483-.012-.469-1.407c-.063-.182-.32-.182-.38 0zM287.12 223.536l-.469 1.407-1.483.012c-.192.001-.271.247-.118.36l1.193.882-.447 1.414a.2.2 0 0 0 .307.223l1.207-.862 1.207.862a.2.2 0 0 0 .307-.223l-.447-1.414 1.193-.882a.2.2 0 0 0-.118-.36l-1.483-.012-.469-1.407a.2.2 0 0 0-.38 0z"/></g><path d="M256.942 237.002l.708 3.385h.305v-2.31s.503 1.611 1.215 2.31h.576c-.275-.354-.771-1.089-.771-1.85 0-1.048.834-1.191.834-2.311h.714v4.161h.417l.773-3.707s.638 2.319 1.838 3.707h.534c-.385-.566-1.185-2.025-1.038-4.232 0 0 1.143-.572 1.143-2.12v-2.203c0-.412.335-.747.747-.747h.514s-.764-1.482-1.582-1.697v-.929l-.616.93c-.588.127-.934.671-.934 1.252v1.341a.747.747 0 0 1-.747.747h-2.67c-.79 0-2.056.79-2.056 1.803s.76 1.677.76 1.677l-.664.793z" fill="#f5f5f5"/><path d="M268.904 233.627h-.245c-1.936.106-3.016 1.378-3.016 1.378l1.963 1.963v3.694h2.35v-3.694l1.963-1.963c.001.001-1.079-1.271-3.015-1.378z" fill="#ffbe5a"/><g fill="#f5f5f5"><path d="M273.03 227.59h.71v13.09h-.71z"/><path d="M273.409 227.483l-3.828 4.627s-.499-2.23 1.731-4.427l-4.926.898s1.498-2.796 5.425-2.496l-4.027-3.362s3.461-.199 5.225 2.397c0 0 .998-2.995 3.794-3.129l-2.308 3.506s2.308-1.176 5.503-.144l-4.759 1.265s2.663.266 3.761 4.161l-4.127-2.829s1.265 1.498.799 4.427l-2.263-4.894zM224.448 195.015l-9.373-4.686 6.816 8.52h3.835z"/></g><path d="M272.861 189.59l25.288-7.781-13.424-5.034a21.29 21.29 0 0 0-7.479-1.356h-2.528a2.13 2.13 0 0 0-2.13 2.13v2.13h-12.78v-2.13a2.13 2.13 0 0 0-2.13-2.13h-2.528c-2.554 0-5.088.46-7.479 1.356l-13.424 5.034 25.288 7.781a2.13 2.13 0 0 1 1.279 2.989l-3.136 6.271h17.041l-3.136-6.271a2.129 2.129 0 0 1 1.278-2.989z" fill="#825546"/><circle cx="266.2" cy="181.81" r="4.259" fill="#f5f5f5"/><path d="M268.328 181.809a2.13 2.13 0 0 1-2.13 2.13h-8.52l3.636-3.636a2.131 2.131 0 0 1 1.507-.624h3.378a2.13 2.13 0 0 1 2.129 2.13z" fill="#ffbe5a"/><path d="M19.203 489.087C8.598 489.087 0 480.49 0 469.884V41.958c0-10.519 8.527-19.045 19.045-19.045h.158c10.606 0 19.203 8.598 19.203 19.203v427.768c.001 10.606-8.597 19.203-19.203 19.203z" fill="#2e3033"/></svg>