<svg xmlns="http://www.w3.org/2000/svg" viewBox="0 0 512 512"><g fill="#4173cd"><path d="M35.41 318.408H512v49.249a8.27 8.27 0 0 1-8.271 8.271H43.68a8.27 8.27 0 0 1-8.271-8.271l.001-49.249zM43.68 63.678h460.049A8.27 8.27 0 0 1 512 71.949v49.249H35.41V71.949a8.271 8.271 0 0 1 8.27-8.271z"/></g><path fill="#ff4b55" d="M35.41 121.2H512v197.21H35.41z"/><g fill="#ffe15a"><path d="M35.41 112.98H512v16.434H35.41zM35.41 310.19H512v16.434H35.41zM453.232 227.733H93.835a4.446 4.446 0 0 1-4.446-4.446v-1.339a4.446 4.446 0 0 1 4.446-4.446h359.398a4.446 4.446 0 0 1 4.446 4.446v1.339a4.447 4.447 0 0 1-4.447 4.446z"/></g><path fill="#f5f5f5" d="M383.508 207.272l17.903-7.673 17.904 7.673-17.904 7.673z"/><path d="M387.913 204.004H125.195a3.268 3.268 0 1 0 0 6.536h262.719a3.268 3.268 0 1 0-.001-6.536z" fill="#ffe15a"/><path fill="#f5f5f5" d="M402.122 189.368l17.903-7.672 17.903 7.672-17.903 7.674z"/><path d="M406.527 186.1H143.808a3.268 3.268 0 1 0 0 6.536h262.719a3.268 3.268 0 1 0 0-6.536z" fill="#ffe15a"/><path d="M273.534 156.121c-45.432 0-85.07 25.728-106.299 63.939 21.229 38.211 60.867 63.939 106.299 63.939s85.07-25.728 106.299-63.939c-21.23-38.212-60.868-63.939-106.299-63.939z" fill="#f5f5f5"/><path d="M167.235 220.06c21.229 38.211 60.867 63.939 106.299 63.939 7.586 0 14.992-.778 22.196-2.151-5.501-12.074-24.846-12.054-26.033-16.604-1.279-4.902 15.771-3.837 18.755-7.886s-16.198-5.754-17.05-9.804 7.672-6.82 9.165-13.214c1.492-6.393 4.901-8.312 7.459-12.149s-4.263-5.116-5.967-17.903c-1.705-12.788-11.722-14.493-16.624-24.937-4.903-10.443 2.984-18.116 8.099-23.231-45.432.001-85.07 25.728-106.299 63.94z" fill="#464655"/><g fill="#f5f5f5"><path d="M207.04 197.04h5.116v20.461h-5.116zM217.26 197.04h5.116v20.461h-5.116zM227.5 197.04h5.116v20.461H227.5zM237.72 197.04h5.116v20.461h-5.116zM247.96 197.04h5.116v20.461h-5.116zM258.19 197.04h5.116v20.461h-5.116zM207.04 227.74h5.116v20.46h-5.116zM217.26 227.74h5.116v20.46h-5.116zM227.5 227.74h5.116v20.46H227.5zM237.72 227.74h5.116v20.46h-5.116zM247.96 227.74h5.116v20.46h-5.116zM258.19 227.74h5.116v20.46h-5.116z"/></g><g fill="#464655"><path d="M283.76 197.04h5.116v20.461h-5.116zM294 197.04h5.116v20.461H294zM304.22 197.04h5.116v20.461h-5.116zM314.46 197.04h5.116v20.461h-5.116zM324.68 197.04h5.116v20.461h-5.116zM334.92 197.04h5.116v20.461h-5.116zM283.76 227.74h5.116v20.46h-5.116zM294 227.74h5.116v20.46H294zM304.22 227.74h5.116v20.46h-5.116zM314.46 227.74h5.116v20.46h-5.116zM324.68 227.74h5.116v20.46h-5.116zM334.92 227.74h5.116v20.46h-5.116z"/></g><path d="M431.376 216.703c-4.096 9.517-15.754 10.636-9.294 34.894l3.308-3.359s3.465 9.143 11.815 15.301c0 0 10.24-8.583 11.028-22.205l4.253 1.866c0-.001-2.048-24.817-21.11-26.497z" fill="#245dbd"/><g fill="#ff4b55"><path d="M446.499 236.202c-.328 0-.652-.152-.898-.449-4.012-4.839-9.123-6.391-9.171-6.409-.674-.199-1.088-1.009-.921-1.807.167-.793.852-1.288 1.524-1.091.237.07 5.836 1.755 10.365 7.218.487.583.48 1.533-.014 2.111a1.158 1.158 0 0 1-.885.427zM443.612 247.491c-.376 0-.751-.199-1-.583-2.976-4.583-6.351-7.079-6.385-7.103-.593-.431-.775-1.353-.411-2.058.367-.7 1.142-.915 1.735-.484.155.111 3.806 2.816 7.06 7.825.423.653.319 1.592-.232 2.094-.228.21-.499.309-.767.309zM436.998 260.057a.908.908 0 0 1-.217-.024c-.684-.14-1.147-.91-1.029-1.72.497-3.417.082-9.02-.601-11.913-.187-.793.205-1.615.874-1.842.677-.216 1.366.245 1.553 1.038.77 3.265 1.221 9.358.66 13.219-.105.729-.64 1.242-1.24 1.242zM428.134 246.272c-.36 0-.716-.181-.965-.53-.448-.63-.381-1.575.15-2.105.032-.029 3.249-3.295 4.089-7.814.15-.804.817-1.312 1.501-1.137.679.175 1.11.974.959 1.778-1.029 5.528-4.768 9.301-4.928 9.458a1.14 1.14 0 0 1-.806.35zM424.634 236.721c-.423 0-.837-.251-1.075-.711-.364-.7-.18-1.621.414-2.052.047-.035 4.618-3.399 6.036-7.074.288-.758 1.041-1.091 1.672-.74.633.344.911 1.23.622 1.977-1.74 4.508-6.797 8.222-7.011 8.379a1.112 1.112 0 0 1-.658.221z"/></g><path d="M112.004 219.907c-3.425 7.958-13.173 8.893-7.773 29.176l2.767-2.809s2.898 7.645 9.88 12.794c0 0 8.562-7.177 9.221-18.567l3.556 1.56c0 .001-1.712-20.751-17.651-22.154z" fill="#245dbd"/><g fill="#ff4b55"><path d="M124.649 236.21a.98.98 0 0 1-.752-.375c-3.355-4.047-7.628-5.344-7.669-5.358-.563-.165-.91-.844-.77-1.512.14-.663.712-1.077 1.274-.912.197.059 4.88 1.468 8.667 6.037.407.488.401 1.282-.012 1.765a.965.965 0 0 1-.738.355zM122.235 245.651c-.315 0-.628-.165-.835-.488-2.488-3.833-5.311-5.919-5.339-5.938-.496-.361-.648-1.131-.343-1.721.307-.585.955-.765 1.452-.404.129.093 3.182 2.355 5.903 6.543.355.546.268 1.331-.193 1.75a.958.958 0 0 1-.645.258zM116.705 256.158a.755.755 0 0 1-.181-.02c-.573-.117-.959-.761-.86-1.438.416-2.858.068-7.543-.502-9.961-.156-.663.171-1.35.731-1.54.567-.18 1.142.205 1.299.867.644 2.73 1.021 7.825.552 11.053-.09.61-.537 1.039-1.039 1.039zM109.293 244.631c-.301 0-.599-.151-.807-.444-.374-.526-.318-1.316.126-1.76.027-.025 2.717-2.755 3.419-6.534.125-.673.683-1.097 1.255-.951.568.147.928.815.803 1.487-.86 4.622-3.987 7.777-4.121 7.909a.956.956 0 0 1-.675.293zM106.366 236.645c-.354 0-.7-.21-.899-.594-.305-.585-.15-1.355.345-1.716.039-.029 3.861-2.843 5.047-5.915.241-.634.871-.912 1.398-.619.529.287.762 1.029.521 1.653-1.456 3.769-5.683 6.875-5.862 7.006a.921.921 0 0 1-.55.185z"/></g><path d="M18.739 483.448C8.39 483.448 0 475.059 0 464.709V47.137c0-10.264 8.32-18.585 18.585-18.585h.154c10.349 0 18.739 8.39 18.739 18.739v417.42c-.001 10.348-8.39 18.737-18.739 18.737z" fill="#2e3033"/></svg>