<svg xmlns="http://www.w3.org/2000/svg" viewBox="0 0 512 512"><path d="M503.56 374.155H35.87a8.44 8.44 0 0 1-8.44-8.44V65.118a8.44 8.44 0 0 1 8.44-8.44h467.69a8.44 8.44 0 0 1 8.44 8.44v300.597a8.44 8.44 0 0 1-8.44 8.44z" fill="#41479b"/><path fill="#f5f5f5" d="M27.43 115.168H512v200.51H27.43z"/><path d="M313.126 215.417l21.704-37.593h-43.408l-21.708-37.599-21.708 37.599h-43.408l21.704 37.593-21.704 37.593h43.408l21.708 37.599 21.708-37.599h43.408l-21.704-37.593zm.411-25.299l-7.508 13.004-7.507-13.004h15.015zm-14.607 25.299l-14.605 25.298h-29.219L240.5 215.417l14.605-25.298h29.219l14.606 25.298zm-29.215-50.603l7.511 13.009h-15.022l7.511-13.009zm-43.822 25.304h15.016l-7.508 13.004-7.508-13.004zm0 50.597l7.508-13.004 7.508 13.004h-15.016zm43.822 25.304l-7.511-13.009h15.022l-7.511 13.009zm36.313-38.308l7.508 13.004H298.52l7.508-13.004z" fill="#41479b"/><path d="M19.122 488.101C8.561 488.101 0 479.539 0 468.979V42.864C0 32.39 8.491 23.899 18.965 23.899h.157c10.561 0 19.122 8.561 19.122 19.122v425.958c0 10.56-8.561 19.122-19.122 19.122z" fill="#2e3033"/></svg>