<svg xmlns="http://www.w3.org/2000/svg" viewBox="0 0 512.1 512.1"><path d="M503.6 56.15H369.8L29.6 371.55c1.5 1.5 3.5 2.4 5.8 2.4h133.8l340.2-315.4c-1.5-1.5-3.5-2.4-5.8-2.4z" fill="#ffe15a"/><path d="M369.8 56.15H35.4c-4.6 0-8.4 3.7-8.4 8.4v301c0 2.4 1 4.5 2.6 6l340.2-315.4z" fill="#73af00"/><path d="M509.4 58.55l-340.2 315.4h334.5c4.6 0 8.4-3.7 8.4-8.4v-301c-.1-2.4-1.1-4.5-2.7-6z" fill="#ff4b55"/><path d="M19.3 490.55c-10.6 0-19.3-8.6-19.3-19.3V40.65c0-10.6 8.6-19.1 19.2-19.1h.2c10.7 0 19.3 8.7 19.3 19.3v430.4c-.1 10.7-8.7 19.3-19.4 19.3z" fill="#2e3033"/></svg>