<svg xmlns="http://www.w3.org/2000/svg" viewBox="0 0 512.1 512.1"><path d="M503.6 373.9H35.4c-4.6 0-8.4-3.7-8.4-8.4v-301c0-4.6 3.7-8.4 8.4-8.4h468.3c4.6 0 8.4 3.7 8.4 8.4v301c-.1 4.6-3.8 8.4-8.5 8.4z" fill="#41479b"/><path fill="#ff4b55" d="M27 131.4h485v167.2H27z"/><path fill="#f5f5f5" d="M380.2 278.4v-11.9h-4v-7.9h-3.9v-7.9h-4v-7.9h-11.9v-23.7l4-3.9v-11.9h-4v-7.9h-3.9v-11.8h-4v-7.9h-3.9v-8h-4v-3.9h-7.9v3.9h-3.9v8h-4v7.9h-3.9v11.8h-4v7.9h-23.7v-11.8h-3.9v-11.9h-4v-11.9h-3.9v-7.9h-4v-7.9h-3.9V148h-2v-4h-4v4h-2v3.9h-3.9v7.9h-4v7.9h-3.9v11.9h-4v11.9h-3.9v11.8h-23.7v-7.9h-4v-11.8h-3.9v-7.9h-4v-8h-3.9v-3.9h-7.9v3.9h-4v8h-3.9v7.9h-4v11.8h-3.9v7.9h-4v11.9l4 3.9v23.7h-11.9v7.9h-4v7.9h-3.9v7.9h-4v11.9h-3.9v11.9h229.2v-11.9z"/><path d="M19.2 489.1C8.6 489.1 0 480.5 0 469.9V42c0-10.5 8.5-19 19-19h.2c10.6 0 19.2 8.6 19.2 19.2V470c0 10.5-8.6 19.1-19.2 19.1z" fill="#2e3033"/></svg>