<svg xmlns="http://www.w3.org/2000/svg" viewBox="0 0 512 512"><path d="M503.6 373.95H35.4c-4.6 0-8.4-3.8-8.4-8.4v-301c0-4.6 3.8-8.4 8.4-8.4h468.2c4.6 0 8.4 3.8 8.4 8.4v300.9c0 4.7-3.8 8.5-8.4 8.5z" fill="#5aa587"/><g fill="#f5f5f5"><path d="M289.5 258.25c9.4 2.2 19.4 2.4 29.4-.1 17.6-4.4 31.6-15.9 39.7-30.6-14.1-9.3-31.8-12.9-49.4-8.5-9.5 2.4-17.8 6.9-24.8 12.7.1-.1.1-.2.2-.3 26-23.4 54.9-15.9 54.9-15.9l6.9-5.9s-29.2-10.1-55.4 11.6c16.2-31.4-1.3-58.3-1.3-58.3l-4 8.1s14.5 26.7-2.5 57.8l-.1.1c4.1-8.3 6.6-17.7 6.6-27.6 0-18.2-7.8-34.5-20.2-45.9-12.4 11.4-20.2 27.7-20.2 45.9 0 9.9 2.4 19.3 6.6 27.6l-.1-.1c-17-31.1-2.5-57.8-2.5-57.8l-4-8.1s-17.5 26.9-1.3 58.3c-26.2-21.7-55.4-11.6-55.4-11.6l6.9 5.9s29-7.6 54.9 15.9c.1.1.1.2.2.3-7-5.9-15.3-10.4-24.8-12.7-17.6-4.4-35.3-.7-49.4 8.5 8.1 14.8 22 26.3 39.7 30.6 10 2.5 20 2.3 29.4.1-34.9 9.8-57.8-11.3-57.8-11.3l-8.8 2s35.3 37.9 86.6.7c51.3 37.1 86.6-.7 86.6-.7l-8.8-2s-22.9 21.1-57.8 11.3zM218.5 301.85c3.6 2.3 7.5 4.3 11.4 6H309c3.9-1.8 7.8-3.8 11.4-6H218.5zM237 310.75c10.2 3.6 21.1 5.6 32.5 5.6s22.3-2 32.5-5.6h-65zM197.1 283.75c1.2 1.4 2.5 2.7 3.8 4h137.3c1.3-1.3 2.5-2.7 3.8-4H197.1zM205.9 292.55c2 1.8 4.1 3.4 6.3 5h114.6c2.2-1.6 4.2-3.3 6.3-5H205.9z"/><path d="M309.8 272.95c-22.6 0-38-15.1-38.2-15.3l-2.1-2.1-2.1 2.1c-.2.2-15.5 15.2-38.2 15.2h-40.4c1.4 2.1 2.8 4.1 4.4 6.1h36c20.3 0 35-10.6 40.3-15.1 5.3 4.5 20 15.1 40.3 15.1h36c1.5-2 3-4 4.4-6.1l-40.4.1z"/></g><g fill="#ffe15a"><path d="M268.4 114.55l-3.5 10.6-11.2.1c-1.1 0-1.5 1.4-.7 2l9 6.6-3.4 10.7c-.3 1 .8 1.9 1.7 1.2l9.1-6.5 9.1 6.5c.9.6 2-.2 1.7-1.2l-3.4-10.7 9-6.6c.9-.6.4-2-.7-2l-11.2-.1-3.5-10.6c-.2-1-1.6-1-2 0zM215.5 136.25l2 7.4-6.4 4.3c-.6.4-.3 1.4.4 1.4l7.7.4 2.2 7.4c.2.7 1.2.7 1.5.1l2.7-7.2 7.7.2c.7 0 1.1-.9.5-1.4l-6-4.8 2.6-7.3c.2-.7-.5-1.3-1.1-.9l-6.4 4.2-6.1-4.7c-.7-.4-1.5.2-1.3.9zM184.6 173.75l5.6 5.3-3.2 7c-.3.7.4 1.4 1.1 1l6.8-3.7 5.7 5.2c.5.5 1.4 0 1.3-.7l-1.4-7.6 6.7-3.8c.6-.4.5-1.3-.3-1.4l-7.6-1-1.5-7.6c-.1-.7-1.1-.9-1.4-.2l-3.3 7-7.7-.9c-.9 0-1.3.9-.8 1.4zM325.3 136.25l-2 7.4 6.4 4.3c.6.4.3 1.4-.4 1.4l-7.7.4-2.2 7.4c-.2.7-1.2.7-1.5.1l-2.7-7.2-7.7.2c-.7 0-1.1-.9-.5-1.4l6-4.8-2.6-7.3c-.2-.7.5-1.3 1.1-.9l6.4 4.2 6.1-4.7c.6-.4 1.5.2 1.3.9zM356.1 173.75l-5.6 5.3 3.2 7c.3.7-.4 1.4-1.1 1l-6.8-3.7-5.7 5.2c-.5.5-1.4 0-1.3-.7l1.4-7.6-6.7-3.8c-.6-.4-.5-1.3.3-1.4l7.6-1 1.5-7.6c.1-.7 1.1-.9 1.4-.2l3.3 7 7.7-.9c.9 0 1.4.9.8 1.4z"/></g><path d="M19 486.95c-10.5 0-19-8.5-19-19v-424c0-10.4 8.4-18.9 18.9-18.9h.1c10.5 0 19 8.5 19 19v423.8c.1 10.6-8.5 19.1-19 19.1z" fill="#2e3033"/></svg>