<svg xmlns="http://www.w3.org/2000/svg" viewBox="0 0 512 512"><path d="M503.525 374.645H28.924a8.476 8.476 0 0 1-8.475-8.475V61.069a8.476 8.476 0 0 1 8.475-8.475h474.601A8.476 8.476 0 0 1 512 61.069V366.17a8.476 8.476 0 0 1-8.475 8.475z" fill="#3cc8ff"/><path fill="#464655" d="M266.224 78.019L147.573 349.22h237.301z"/><path d="M266.224 120.308l92.734 211.962H173.49l92.734-211.962m0-42.289l-118.65 271.2h237.3l-118.65-271.2z" fill="#f5f5f5"/><path fill="#ffe15a" d="M147.573 349.22l118.651-135.6 118.65 135.6z"/><path d="M19.201 489.063C8.597 489.063 0 480.466 0 469.862V41.982c0-10.517 8.526-19.044 19.043-19.044h.158c10.604 0 19.201 8.597 19.201 19.201v427.723c0 10.604-8.596 19.201-19.201 19.201z" fill="#2e3033"/></svg>