<svg xmlns="http://www.w3.org/2000/svg" viewBox="0 0 512.1 512.1"><path d="M503.6 373.9H35.4c-4.6 0-8.4-3.7-8.4-8.4v-301c0-4.6 3.7-8.4 8.4-8.4h468.3c4.6 0 8.4 3.7 8.4 8.4v301c-.1 4.6-3.8 8.4-8.5 8.4z" fill="#f5f5f5"/><path d="M484.1 106.5c-1.6-.6-3.4.3-4 1.9-2.1 5.8-4.3 11.1-6.6 16-5.9 5.8-13.3 10.2-20.4 11.5-11.5 2.1-17.1 7.7-17.1 7.7-20.2-5.9-24 5.2-28.6 10.1-2.5 2.7-5.8 3.7-8.8 3.7-10.8-5.9-18.1-13.1-18.2-13.2-1.2-1.2-3.2-1.2-4.4 0-1.2 1.2-1.2 3.2 0 4.4.9.9 18.5 18.4 41.2 22-6.6 1.9-11.4 3.3-11.4 3.3s-7.3 0-29.3 17.8-37.3 19.5-47 19.2c-9.8-.3-17.1-3.8-27.5 4.2s-24 6.6-32.4 6.6-22 1.4-32.4-6.6c-10.5-8-17.8-4.5-27.5-4.2-9.8.3-25.1-1.4-47-19.2s-29.3-17.8-29.3-17.8-4.8-1.4-11.4-3.3c22.6-3.6 40.2-21.1 41.2-22 1.2-1.2 1.2-3.2 0-4.4s-3.2-1.2-4.4 0c-.1.1-7.4 7.3-18.2 13.2-3 0-6.3-1-8.8-3.7-4.5-4.9-8.4-16-28.6-10.1 0 0-5.6-5.6-17.1-7.7-7.1-1.3-14.5-5.7-20.4-11.5-2.3-4.9-4.6-10.2-6.6-16-.6-1.6-2.4-2.5-4-1.9s-2.5 2.4-1.9 4c.1.2.1.3.2.5.3 1.6 6.7 33.7 29.9 55.9 16.4 15.7 32.3 39.6 39 53 22 43.6 63.8 102.1 147.4 102.1s125.4-58.5 147.4-102.1c6.7-13.4 22.6-37.3 39-53 23.3-22.2 29.6-54.3 29.9-55.9.1-.2.1-.3.2-.5.4-1.7-.4-3.4-2.1-4z" fill="#ff4b55"/><path d="M19.2 489.1C8.6 489.1 0 480.5 0 469.9V42c0-10.5 8.5-19 19-19h.2c10.6 0 19.2 8.6 19.2 19.2V470c0 10.5-8.6 19.1-19.2 19.1z" fill="#2e3033"/></svg>