<svg xmlns="http://www.w3.org/2000/svg" viewBox="0 0 512 512"><g fill="#ff4b55"><path d="M24.345 302.038H512v75.616a8.463 8.463 0 0 1-8.463 8.463H32.807a8.463 8.463 0 0 1-8.463-8.463v-75.616h.001zM32.807 66.619h470.73A8.463 8.463 0 0 1 512 75.082v75.616H24.345V75.082a8.462 8.462 0 0 1 8.462-8.463z"/></g><path fill="#f5f5f5" d="M24.341 150.69h487.65v151.34H24.341z"/><path d="M323.6 204.897l-53.371 21.786c-.021-.054-.047-.103-.071-.154l51.544-25.814a59.884 59.884 0 0 0-7.386-11.353l-44.439 36.75c-.044-.056-.07-.126-.12-.177l40.736-40.776a60.13 60.13 0 0 0-9.57-7.766l-31.539 48.275c-.072-.048-.136-.104-.213-.144l25.768-51.576a59.458 59.458 0 0 0-13.167-4.751l-13.095 56.163c-.166-.04-.325-.102-.504-.102s-.337.061-.504.102l-13.095-56.163a59.39 59.39 0 0 0-13.167 4.751l25.768 51.576c-.077.04-.142.096-.213.144l-31.539-48.275a60.096 60.096 0 0 0-9.57 7.766l40.736 40.776c-.05.051-.075.122-.12.177l-44.439-36.75a59.884 59.884 0 0 0-7.386 11.353l51.544 25.814c-.024.052-.051.101-.071.154l-53.371-21.786a59.435 59.435 0 0 0-3.544 12.415l56.821 9.838c-.007.05-.025.095-.03.145l-57.355-5.975a60.772 60.772 0 0 0-.313 6.156c0 3.594.334 7.108.941 10.527l58.907-6.093 58.907 6.093a60.15 60.15 0 0 0 .942-10.527c0-2.079-.107-4.132-.313-6.156l-57.355 5.975c-.004-.051-.022-.096-.03-.145l56.821-9.838a59.498 59.498 0 0 0-3.545-12.415z" fill="#ffb955"/><g fill="#4173cd"><path d="M210.329 242.859a59.03 59.03 0 0 0 1.413 4.566h112.859a59.03 59.03 0 0 0 1.413-4.566c-5.529-.714-6.216-4.3-12.95-4.3-7.478 0-7.478 4.433-14.956 4.433s-7.478-4.433-14.956-4.433c-7.48 0-7.48 4.433-14.96 4.433-7.476 0-7.476-4.433-14.952-4.433-7.482 0-7.482 4.433-14.966 4.433-7.488 0-7.488-4.433-14.975-4.433-6.744 0-7.431 3.587-12.97 4.3zM311.301 254.075c-7.199-.001-7.2-4.433-14.4-4.433-7.201 0-7.201 4.433-14.402 4.433s-7.201-4.433-14.403-4.433c-7.203 0-7.203 4.433-14.406 4.433-7.199 0-7.199-4.433-14.399-4.433-7.205 0-7.205 4.433-14.411 4.433-6.393 0-7.128-3.478-12.235-4.268a59.787 59.787 0 0 0 4.341 8.702h102.369a59.576 59.576 0 0 0 4.35-8.724c-5.257.738-5.945 4.289-12.404 4.29zM317.025 262.027c-1.393-.73-3.043-1.302-5.623-1.302-7.201 0-7.201 4.433-14.403 4.433-7.201 0-7.201-4.433-14.403-4.433-7.203 0-7.203 4.433-14.406 4.433-7.199 0-7.199-4.433-14.399-4.433-7.205 0-7.205 4.433-14.411 4.433-7.21 0-7.21-4.433-14.421-4.433-2.588 0-4.242.574-5.638 1.306a60.084 60.084 0 0 0 6.337 7.561h85.027a60.074 60.074 0 0 0 6.34-7.565zM305.052 274.593c-2.176-1.261-3.926-2.785-8.15-2.785-7.201 0-7.201 4.434-14.402 4.434s-7.201-4.434-14.403-4.434c-7.203 0-7.203 4.434-14.406 4.434-7.199 0-7.199-4.434-14.399-4.434-4.169 0-5.929 1.482-8.065 2.734a59.816 59.816 0 0 0 9.538 6.133h54.815a59.934 59.934 0 0 0 9.472-6.082zM253.792 282.891c-2.36 0-3.943.478-5.263 1.118a59.737 59.737 0 0 0 19.642 3.315h.012c-7.191-.003-7.194-4.433-14.391-4.433zM268.226 287.323A59.709 59.709 0 0 0 287.84 284c-1.316-.636-2.894-1.11-5.243-1.11-7.191.001-7.205 4.418-14.371 4.433z"/></g><g fill="#ff4b55"><path d="M276.045 219.898l-18.965-5.482a2.503 2.503 0 0 1-1.814-2.375c-.088-7.023-.392-31.752-.392-35.548 0-4.433 4.434-11.083 13.299-11.083h6.99c.662 0 .861.9.253 1.162-3.202 1.373-7.244 4.233-7.244 9.922 0 6.754 6.433 9.65 9.496 10.646a2.282 2.282 0 0 1 1.587 2.174v28.171a2.512 2.512 0 0 1-3.21 2.413zM259.316 244.706c.695-.421 1.519.282 1.207 1.032-1.857 4.457-6.405 12.769-14.518 12.769-11.083 0-13.299-8.867-13.299-15.517v-47.018c0-.966.783-1.748 1.748-1.748h3.153c.965 0 1.748.783 1.748 1.748v44.8c.001 5.997 12.605 8.389 19.961 3.934zM276.097 244.706c-.695-.421-1.52.282-1.207 1.032 1.857 4.457 6.405 12.769 14.518 12.769 11.083 0 13.299-8.867 13.299-15.517v-47.018c0-.966-.783-1.748-1.748-1.748h-3.153c-.966 0-1.748.783-1.748 1.748v44.8c0 5.997-12.603 8.389-19.961 3.934z"/></g><g fill="#aa4650"><path d="M291.477 237.45h-46.611a1.077 1.077 0 0 1-1.077-1.077v-.062c0-.595.482-1.077 1.077-1.077h46.611c.595 0 1.077.482 1.077 1.077v.062c0 .595-.481 1.077-1.077 1.077zM248.499 229.083l2.4-3.2a1.107 1.107 0 1 0-1.773-1.329l-.934 1.245v-.86a1.109 1.109 0 1 0-2.218 0v.78l-.874-1.165a1.108 1.108 0 1 0-1.773 1.329l2.4 3.2-2.4 3.2a1.107 1.107 0 1 0 1.773 1.33l2.012-2.683 2.012 2.683a1.107 1.107 0 0 0 1.551.222c.491-.368.59-1.063.222-1.552l-2.398-3.2zM269.187 229.083l2.4-3.2a1.107 1.107 0 1 0-1.773-1.329l-.934 1.245v-.86a1.109 1.109 0 1 0-2.218 0v.78l-.874-1.165a1.108 1.108 0 1 0-1.773 1.329l2.4 3.2-2.4 3.2a1.107 1.107 0 1 0 1.773 1.33l2.012-2.683 2.012 2.683a1.107 1.107 0 0 0 1.551.222c.491-.368.59-1.063.222-1.552l-2.398-3.2zM258.844 229.083l2.4-3.2a1.107 1.107 0 1 0-1.773-1.329l-.934 1.245v-.86a1.109 1.109 0 1 0-2.218 0v.78l-.874-1.165a1.108 1.108 0 1 0-1.773 1.329l2.4 3.2-2.4 3.2a1.107 1.107 0 1 0 1.773 1.33l2.012-2.683 2.012 2.683a1.107 1.107 0 0 0 1.551.222c.491-.368.59-1.063.222-1.552l-2.398-3.2zM279.532 229.083l2.4-3.2a1.107 1.107 0 1 0-1.773-1.329l-.934 1.245v-.86a1.109 1.109 0 1 0-2.218 0v.78l-.874-1.165a1.108 1.108 0 1 0-1.773 1.329l2.4 3.2-2.4 3.2a1.107 1.107 0 1 0 1.773 1.33l2.012-2.683 2.012 2.683a1.107 1.107 0 0 0 1.551.222c.491-.368.59-1.063.222-1.552l-2.398-3.2zM289.876 229.083l2.4-3.2a1.107 1.107 0 1 0-1.773-1.329l-.934 1.245v-.86a1.109 1.109 0 1 0-2.218 0v.78l-.874-1.165a1.108 1.108 0 1 0-1.773 1.329l2.4 3.2-2.4 3.2a1.107 1.107 0 1 0 1.773 1.33l2.012-2.683 2.012 2.683a1.107 1.107 0 0 0 1.551.222c.49-.368.59-1.063.222-1.552l-2.398-3.2zM246.453 244.296c1.64.717 11.269.82 13.728-1.741 2.458-2.561 1.946-3.688 1.946-3.688l-11.679.103-3.995 5.326zM289.423 244.296c-1.639.717-11.269.82-13.728-1.741-2.458-2.561-1.946-3.688-1.946-3.688l11.679.103 3.995 5.326z"/></g><path d="M19.174 488.729C8.585 488.729 0 480.145 0 469.555V42.287c0-10.502 8.514-19.016 19.016-19.016h.158c10.589 0 19.174 8.585 19.174 19.174v427.111c-.001 10.589-8.585 19.173-19.174 19.173z" fill="#2e3033"/></svg>