<svg xmlns="http://www.w3.org/2000/svg" viewBox="0 0 512.6 512.6"><path d="M504.1 374.25H36c-4.6 0-8.4-3.8-8.4-8.4v-301c0-4.6 3.8-8.4 8.4-8.4h468.2c4.6 0 8.4 3.8 8.4 8.4v300.9c-.1 4.7-3.8 8.5-8.5 8.5z" fill="#ff4b55"/><g fill="#f5f5f5"><path d="M35.9 56.45c-2.3 0-4.3.9-5.8 2.4l340.3 315.4h25.1L52.6 56.45H35.9zM169.7 56.45h-25.1l342.8 317.8h16.7c2.3 0 4.3-.9 5.8-2.4L169.7 56.45z"/></g><path fill="#464655" d="M52.6 56.45l342.9 317.8h92L144.6 56.45z"/><path d="M19 487.25c-10.5 0-19-8.5-19-19v-424c0-10.4 8.4-18.9 18.9-18.9h.1c10.5 0 19 8.5 19 19v423.8c.1 10.6-8.5 19.1-19 19.1z" fill="#2e3033"/></svg>