<svg xmlns="http://www.w3.org/2000/svg" viewBox="0 0 512.1 512.1"><path d="M503.6 373.9H35.4c-4.6 0-8.4-3.7-8.4-8.4v-301c0-4.6 3.7-8.4 8.4-8.4h468.3c4.6 0 8.4 3.7 8.4 8.4v301c-.1 4.6-3.8 8.4-8.5 8.4z" fill="#464655"/><path fill="#ffe15a" d="M512 206.6H263.3L27 76.3v19.1L243.8 215 27 334.6v19.1l236.3-130.3H512z"/><path d="M30.3 372c1.4 1.1 3.1 1.8 5 1.8h468.3c4.6 0 8.4-3.7 8.4-8.4V240.1H269.5L30.3 372z" fill="#73af00"/><path d="M503.6 56.1H35.4c-1.9 0-3.6.8-5 1.8l239.2 131.9H512V64.5c0-4.6-3.7-8.4-8.4-8.4z" fill="#ff4b55"/><g fill="#ffe15a"><path d="M99.4 168.1c-23.9-7.5-41.9 9.8-46 18.8-3.5 7.6-10 41.8 22.3 47.3s31.9-25 31.9-25c-1.5 4.9-4.1 18.7-27.4 18.7-8.7 0-21.3-13-18.9-27.3 2.2-13.5 14.3-20.4 23.4-20.8 8.6-.4 28.7 5.6 28.7 30.1 0 27.5-28.4 30.6-28.4 30.6V257c24.7-2.4 38.6-16.1 42.3-38 3.8-21.8-3.6-43.3-27.9-50.9z"/><path d="M73 208.9c-.6.7-.9 1.6-.9 2.5l-.1 4.5-.9 1.5c-.3.5-.1 1.2.4 1.6.6.3 1.3.1 1.6-.4l.9-1.6 3.6-1.3c1.1-.4 1.9-1.2 2.4-2.3.9-2.1 2.9-5.9 6.2-9.9 3.2 4 5.2 7.8 6.2 9.9.5 1 1.3 1.9 2.4 2.3l3.6 1.3.9 1.6c.3.6 1 .7 1.6.4.5-.3.7-1 .4-1.6l-.9-1.5-.1-4.5c0-.9-.3-1.8-.9-2.5-3-3.8-6.2-6.8-9.3-9.4 2.5-2.4 5.3-4.6 8.9-6.3.8-.4 1.3-1.3 1-2.2-.3-1.2-1.6-1.9-2.8-1.3-2.4 1.1-6.5 3.3-11.1 6.7-4.6-3.4-8.7-5.6-11.1-6.7-1.1-.5-2.5.1-2.8 1.3-.2.9.2 1.8 1 2.2 3.6 1.7 6.4 4 8.9 6.3-2.9 2.6-6.1 5.6-9.1 9.4z"/></g><path d="M19.2 489.1C8.6 489.1 0 480.5 0 469.9V42c0-10.5 8.5-19 19-19h.2c10.6 0 19.2 8.6 19.2 19.2v427.7c0 10.6-8.6 19.2-19.2 19.2z" fill="#2e3033"/></svg>