<svg xmlns="http://www.w3.org/2000/svg" viewBox="0 0 512.1 512.1"><path d="M503.6 373.9H35.4c-4.6 0-8.4-3.7-8.4-8.4v-301c0-4.6 3.7-8.4 8.4-8.4h468.3c4.6 0 8.4 3.7 8.4 8.4v301c-.1 4.6-3.8 8.4-8.5 8.4z" fill="#ff4b55"/><path d="M213 215H37.4c-4.6 0-8.4-3.7-8.4-8.4V64.5c0-4.6 3.7-8.4 8.4-8.4H213c4.6 0 8.4 3.7 8.4 8.4v142.2c-.1 4.6-3.8 8.3-8.4 8.3z" fill="#f5f5f5"/><path fill="#ff4b55" d="M187.9 114.7h-41.8V72.8h-41.8v41.9H62.4v41.8h41.9v41.8h41.8v-41.8h41.8z"/><path d="M19.2 489.1C8.6 489.1 0 480.5 0 469.9V42c0-10.5 8.5-19 19-19h.2c10.6 0 19.2 8.6 19.2 19.2V470c0 10.5-8.6 19.1-19.2 19.1z" fill="#2e3033"/></svg>