<svg xmlns="http://www.w3.org/2000/svg" viewBox="0 0 512.001 512.001"><path d="M30.512 372.135l239.203-156.719L30.512 58.697c-1.841 1.533-3.082 3.753-3.082 6.335V365.8c0 2.583 1.241 4.803 3.082 6.335z" fill="#f5f5f5"/><path d="M30.512 372.135c1.449 1.206 3.241 2.019 5.273 2.019h467.861a8.355 8.355 0 0 0 8.355-8.355V215.417H269.715L30.512 372.135z" fill="#ff4b55"/><path d="M30.512 58.697c1.449-1.206 3.241-2.019 5.273-2.019h467.861a8.355 8.355 0 0 1 8.355 8.355v150.384H269.715L30.512 58.697z" fill="#41479b"/><g fill="#ffe15a"><path d="M142.22 213.213c1.319 16.73-12.539 30.588-29.269 29.269-13.161-1.038-23.824-11.701-24.862-24.862-1.319-16.73 12.539-30.588 29.269-29.269 13.161 1.038 23.824 11.701 24.862 24.862z"/><path d="M115.154 215.417l-10.182-40.73 10.182-13.576 10.183 13.576zM115.154 215.417l10.183 40.728-10.183 13.577-10.182-13.577zM115.154 215.417l-40.729 10.181-13.577-10.181 13.577-10.183zM115.154 215.417l40.729-10.183 13.576 10.183-13.576 10.181zM115.154 215.417l21.6-36 16.8-2.4-2.4 16.799zM115.154 215.417l-21.599 35.998-16.8 2.401 2.399-16.8zM115.154 215.417l-36-21.601-2.399-16.799 16.8 2.4zM115.154 215.417l36 21.599 2.4 16.8-16.8-2.401zM49.82 97.77l1.416 10.563-9.535 4.759c-1.234.616-.975 2.449.383 2.698l10.484 1.917 1.579 10.539c.205 1.364 2.028 1.684 2.684.469l5.063-9.377 10.511 1.754c1.361.227 2.228-1.408 1.276-2.408l-7.353-7.713 4.917-9.455c.636-1.224-.651-2.554-1.895-1.957l-9.608 4.61-7.473-7.598c-.968-.982-2.631-.168-2.449 1.199zM54.026 303.345l-1.788 10.506-10.519 1.709c-1.362.222-1.658 2.049-.437 2.689l9.439 4.948-1.626 10.532c-.211 1.364 1.436 2.21 2.422 1.246l7.622-7.448 9.515 4.8c1.232.621 2.546-.683 1.934-1.919l-4.729-9.551 7.505-7.565c.972-.979.137-2.632-1.228-2.432l-10.544 1.546-4.876-9.476c-.629-1.228-2.458-.945-2.69.415zM219.304 199.852l-6.133 8.715-10.231-2.981c-1.325-.386-2.378 1.136-1.551 2.24l6.393 8.527-5.998 8.809c-.776 1.14.346 2.613 1.651 2.167l10.085-3.446 6.525 8.426c.845 1.091 2.592.479 2.571-.901l-.16-10.656 10.03-3.602c1.299-.466 1.257-2.317-.062-2.724l-10.184-3.14-.326-10.652c-.043-1.379-1.817-1.911-2.61-.782z"/></g><path d="M19.122 488.1C8.561 488.1 0 479.539 0 468.979V42.864C0 32.39 8.491 23.9 18.965 23.9h.157c10.561 0 19.122 8.561 19.122 19.122V468.98c0 10.559-8.561 19.12-19.122 19.12z" fill="#2e3033"/></svg>