<svg xmlns="http://www.w3.org/2000/svg" viewBox="0 0 512 512"><g fill="#82afff"><path d="M512 162.503H27.43V65.118a8.44 8.44 0 0 1 8.44-8.44h467.69a8.44 8.44 0 0 1 8.44 8.44v97.385zM503.56 374.155H35.87a8.44 8.44 0 0 1-8.44-8.44V268.33H512v97.385a8.44 8.44 0 0 1-8.44 8.44z"/></g><path fill="#f5f5f5" d="M27.43 162.498H512v105.83H27.43z"/><path d="M311.489 213.328h-30.081c.56-.426 1.004-.845 1.407-1.24.734-.718 1.318-1.289 2.867-1.925 1.558-.653 2.374-.66 3.407-.677 1.244-.008 2.651-.033 4.952-.979 2.297-.955 3.3-1.934 4.185-2.799.734-.717 1.318-1.289 2.872-1.934 1.547-.645 2.358-.653 3.386-.66 1.241-.017 2.647-.033 4.948-.987l-1.607-3.851c-1.547.645-2.358.653-3.386.66-1.241.017-2.647.033-4.944.979-2.297.955-3.3 1.934-4.185 2.798-.734.718-1.318 1.289-2.867 1.925-1.558.653-2.374.66-3.407.677-1.244.008-2.651.033-4.952.987-2.297.946-3.3 1.934-4.185 2.798-.723.704-1.32 1.267-2.807 1.895l23.642-23.638-2.953-2.953-21.28 21.277c.094-.695.119-1.316.124-1.876.013-1.036.02-1.844.665-3.402s1.215-2.137 1.934-2.872c.874-.889 1.856-1.901 2.811-4.202.951-2.301.966-3.704.979-4.944.013-1.029.02-1.844.66-3.394.645-1.55 1.211-2.129 1.93-2.863.869-.889 1.852-1.893 2.802-4.185l-3.859-1.599c-.645 1.55-1.211 2.129-1.93 2.863-.869.889-1.852 1.893-2.802 4.185-.951 2.301-.967 3.704-.979 4.945-.013 1.028-.02 1.844-.66 3.394-.645 1.558-1.215 2.137-1.934 2.872-.872.889-1.856 1.901-2.811 4.202-.951 2.301-.966 3.713-.983 4.952-.008 1.006-.036 1.819-.64 3.313v-33.427h-4.178v30.08c-.426-.558-.843-1-1.236-1.402-.722-.734-1.289-1.322-1.934-2.872-.645-1.558-.657-2.374-.669-3.41-.013-1.241-.029-2.651-.983-4.952-.951-2.293-1.934-3.296-2.802-4.185-.718-.734-1.285-1.313-1.93-2.864-.64-1.55-.649-2.366-.66-3.394-.013-1.24-.028-2.644-.979-4.936l-3.859 1.599c.64 1.55.649 2.358.66 3.386.013 1.241.028 2.644.979 4.945.951 2.293 1.934 3.296 2.802 4.185.718.734 1.285 1.313 1.93 2.863.645 1.558.656 2.374.669 3.411.013 1.241.028 2.651.983 4.952.951 2.301 1.934 3.304 2.802 4.194.708.72 1.268 1.32 1.897 2.803l-23.644-23.641-2.953 2.953 23.607 23.604c-1.294-.589-1.92-1.128-2.598-1.787-.894-.872-1.901-1.86-4.211-2.815-2.301-.946-3.708-.971-4.952-.987-1.036-.008-1.852-.024-3.422-.677-1.571-.645-2.159-1.215-2.904-1.942-.894-.865-1.905-1.852-4.218-2.815-2.309-.955-3.721-.971-4.969-.987-1.04-.017-1.86-.033-3.431-.686l-1.599 3.868c2.309.955 3.721.971 4.969.987 1.04.017 1.86.033 3.431.686 1.575.645 2.162 1.215 2.909 1.942.894.874 1.905 1.853 4.214 2.806 2.309.963 3.72.979 4.965.995 1.036.017 1.852.024 3.414.677 1.562.645 2.146 1.215 2.884 1.934.379.372.803.765 1.317 1.167h-30.163v4.178h33.366c-1.318.502-2.143.564-3.088.579-1.244.008-2.651.033-4.956.979-2.305.955-3.317 1.942-4.209 2.806-.743.726-1.326 1.298-2.889 1.942-1.571.653-2.391.669-3.431.686-1.248.017-2.66.033-4.969.987-2.313.963-3.324 1.941-4.218 2.815-.747.726-1.334 1.298-2.904 1.942l1.599 3.868c2.309-.962 3.321-1.941 4.214-2.815.747-.726 1.334-1.298 2.909-1.942 1.571-.653 2.391-.669 3.431-.686 1.248-.017 2.66-.033 4.973-.996 2.301-.955 3.308-1.934 4.202-2.806.739-.717 1.326-1.289 2.893-1.934 1.558-.653 2.378-.66 3.411-.677a15.309 15.309 0 0 0 1.768-.117l-21.341 21.339 2.953 2.953 23.595-23.592c-.58 1.288-1.117 1.911-1.779 2.591-.869.889-1.852 1.901-2.806 4.202s-.975 3.72-.987 4.961c-.016 1.036-.024 1.852-.673 3.418-.649 1.575-1.224 2.162-1.945 2.904-.872.889-1.856 1.91-2.815 4.218s-.975 3.72-.992 4.969c-.016 1.036-.028 1.86-.677 3.427l3.859 1.599c.959-2.309.975-3.721.992-4.969.017-1.036.028-1.86.677-3.427.649-1.574 1.224-2.162 1.945-2.904.872-.889 1.856-1.91 2.815-4.218.955-2.301.975-3.72.987-4.961.017-1.036.024-1.852.673-3.418.645-1.567 1.215-2.146 1.938-2.889.371-.38.765-.805 1.167-1.32v30.169h4.178v-33.363c.498 1.316.56 2.138.575 3.086.013 1.241.033 2.651.987 4.952.951 2.309 1.938 3.321 2.806 4.209.722.743 1.293 1.33 1.942 2.896s.66 2.391.677 3.427c.016 1.248.033 2.66.992 4.969s1.942 3.329 2.815 4.218c.722.743 1.298 1.33 1.946 2.904l3.859-1.599c-.959-2.309-1.942-3.329-2.815-4.218-.722-.743-1.298-1.33-1.945-2.904-.649-1.567-.66-2.391-.677-3.427-.016-1.248-.033-2.66-.992-4.969-.955-2.309-1.938-3.321-2.806-4.209-.722-.743-1.293-1.33-1.942-2.896-.649-1.558-.656-2.375-.673-3.411a15.835 15.835 0 0 0-.119-1.768l21.345 21.342 2.953-2.953-21.277-21.274c.691.092 1.309.119 1.867.127 1.032.008 1.844.017 3.402.66 1.558.653 2.142 1.215 2.88 1.942.889.865 1.897 1.852 4.198 2.806 2.297.946 3.704.963 4.944.971 1.028.016 1.84.024 3.39.669 1.55.636 2.129 1.208 2.864 1.925.889.865 1.893 1.852 4.189 2.806l1.599-3.868c-1.55-.636-2.13-1.208-2.864-1.925-.889-.865-1.893-1.853-4.189-2.806-2.297-.946-3.704-.963-4.944-.971-1.028-.017-1.84-.024-3.39-.669-1.558-.645-2.142-1.208-2.88-1.934-.889-.865-1.897-1.852-4.198-2.799-2.301-.963-3.708-.979-4.952-.987-1.013-.017-1.833-.036-3.335-.645h33.454v-4.175h-.009z" fill="#f09146"/><path d="M290.497 213.285c1.308 13.21-9.702 24.221-22.912 22.912-9.775-.968-17.682-8.875-18.649-18.649-1.308-13.21 9.703-24.221 22.912-22.912 9.774.968 17.68 8.874 18.649 18.649z" fill="#ffe15a"/><path d="M19.122 488.101C8.561 488.101 0 479.539 0 468.979V42.864C0 32.39 8.491 23.899 18.965 23.899h.157c10.561 0 19.122 8.561 19.122 19.122v425.958c0 10.56-8.561 19.122-19.122 19.122z" fill="#2e3033"/></svg>