<svg xmlns="http://www.w3.org/2000/svg" viewBox="0 0 512.001 512.001"><path d="M512 167.148H28.09V69.864a8.398 8.398 0 0 1 8.398-8.398h467.115a8.398 8.398 0 0 1 8.398 8.398L512 167.148z" fill="#ff4b55"/><path d="M503.602 378.512H36.488a8.398 8.398 0 0 1-8.398-8.398V272.83h483.911v97.283a8.4 8.4 0 0 1-8.399 8.399z" fill="#464655"/><path fill="#f5f5f5" d="M28.09 167.15H512v105.68H28.09z"/><path d="M31.168 376.494l191.714-152.181c2.785-2.211 2.785-6.438 0-8.649L31.168 63.482c-1.839 1.531-3.078 3.748-3.078 6.327v300.358c0 2.581 1.239 4.798 3.078 6.327z" fill="#73af00"/><path d="M19.026 486.943C8.519 486.943 0 478.425 0 467.917V43.929c0-10.422 8.448-18.871 18.87-18.871h.156c10.508 0 19.026 8.519 19.026 19.026v423.831c.001 10.51-8.518 19.028-19.026 19.028z" fill="#2e3033"/></svg>