<svg xmlns="http://www.w3.org/2000/svg" viewBox="0 0 512.002 512.002"><path d="M503.7 373.901h-468c-4.7 0-8.4-3.8-8.4-8.4v-300.8c0-4.7 3.8-8.4 8.4-8.4h467.9c4.7 0 8.4 3.8 8.4 8.4v300.8c.1 4.6-3.7 8.4-8.3 8.4z" fill="#ff4b55"/><path d="M361.6 181.601h-58.5v-58.6c0-4.6-3.7-8.4-8.4-8.4h-50.2c-4.6 0-8.4 3.7-8.4 8.4v58.5h-58.5c-4.6 0-8.4 3.7-8.4 8.4v50.2c0 4.6 3.7 8.4 8.4 8.4h58.5v58.5c0 4.6 3.7 8.4 8.4 8.4h50.2c4.6 0 8.4-3.7 8.4-8.4v-58.5h58.5c4.6 0 8.4-3.7 8.4-8.4v-50.2c0-4.6-3.8-8.3-8.4-8.3z" fill="#f5f5f5"/><path d="M19.1 488.001c-10.5 0-19.1-8.6-19.1-19.1v-425.9c0-10.5 8.5-19 19-19h.2c10.6 0 19.1 8.6 19.1 19.1v425.8c-.1 10.5-8.6 19.1-19.2 19.1z" fill="#2e3033"/></svg>