<svg xmlns="http://www.w3.org/2000/svg" viewBox="0 0 512.1 512.1"><path d="M503.6 373.9H35.4c-4.6 0-8.4-3.7-8.4-8.4v-301c0-4.6 3.7-8.4 8.4-8.4h468.3c4.6 0 8.4 3.7 8.4 8.4v301c-.1 4.6-3.8 8.4-8.5 8.4z" fill="#41479b"/><path d="M274.5 131.4c-31.8 16.7-53.2 56.5-53.2 83.6s21.4 66.9 53.2 83.6c31.8-16.7 53.2-56.5 53.2-83.6s-21.4-66.9-53.2-83.6z" fill="#3cc8ff"/><path d="M281.4 186.4c5.1-2.7 13.9-5.7 23.9-2 0 0-9.6-10.7-22.9-2 3.6-4.3 9-9.7 14.8-11.2 0 0-11.6-4.3-18.6 11.1 1.4-7.8 1.1-20.1-11.5-27.2 0 0 7 15.1 7.7 27.6-.4-2.2-1.2-4.5-3.4-6.8-6.6-6.9-12.4-7.5-12.4-7.5s9.2 10.2 13.7 19.9c-2.6-3.1-7.2-7.1-14.6-6.9-17.3.6-21.1 11-21.1 11 7.2-3 18.6-4.5 27.4-3.8-11.4 2-15.5 16.2-15.5 16.2 9.2-11.4 19.2-13.3 23.2-13.6-7.3 6-6.9 17.1-6.9 17.1 1.7-6.3 8.3-13.4 11.5-16.6 8.6 9.3 9.6 19.8 9.6 19.8s1.9-3.2 1-9.6c-.8-6.1-4.6-10-7.5-12.4 15.2 2.1 25.1 13.1 25.1 13.1-4.9-14.3-17.3-16.2-23.5-16.2z" fill="#73af00"/><path d="M500.3 72.8v284.3H48.7V72.8h451.6m3.3-16.7H35.4c-4.6 0-8.4 3.7-8.4 8.4v301c0 4.6 3.7 8.4 8.4 8.4h468.3c4.6 0 8.4-3.7 8.4-8.4v-301c-.1-4.6-3.8-8.4-8.5-8.4z" fill="#ff4b55"/><path fill="#ff965a" d="M257.5 235.2l7.7-13.2 63-1.4L324 238z"/><path d="M223.6 231.7c6.3 24.8 25.2 53.4 50.9 66.9 25.7-13.5 44.6-42.1 50.9-66.9H223.6z" fill="#4173cd"/><g fill="#ffe15a"><path d="M232.7 256.8s18.2-.9 29.2 3.6c2.7 1.1 3.1 4.8.6 6.4-5.3 3.5-13.1 9.6-13.1 15l-16.7-25zM264.7 290.3c-.7-7 5.5-12 13.9-15.3 11-4.3 5-11.1-.5-15.5-6.5-5.3 1.9-6.8 37.5-7.5l-17.4 27.2-23.7 19.5-9.8-8.4z"/></g><path d="M274.5 303.3l-1.9-1c-33.2-17.4-55.4-59.2-55.4-87.3s22.3-69.9 55.4-87.3l1.9-1 1.9 1c33.2 17.4 55.4 59.2 55.4 87.3s-22.3 69.9-55.4 87.3l-1.9 1zm0-167.2c-29.4 16.6-49 53.8-49 78.9s19.6 62.3 49 78.9c29.4-16.6 49-53.8 49-78.9s-19.6-62.3-49-78.9z" fill="#ff4b55"/><g fill="#a54b37"><path d="M292.3 262.7c-.4 0-.8-.1-1.1-.3-11.4-7.1-17.9-19-17.9-32.4v-38.5c0-1.2.9-2.1 2.1-2.1s2.1.9 2.1 2.1V230c0 12 5.8 22.5 15.9 28.9 1 .6 1.3 1.9.7 2.9-.5.6-1.1.9-1.8.9z"/><circle cx="275.4" cy="191.6" r="4.6"/></g><path d="M19.2 489.1C8.6 489.1 0 480.5 0 469.9V42c0-10.5 8.5-19 19-19h.2c10.6 0 19.2 8.6 19.2 19.2v427.7c0 10.6-8.6 19.2-19.2 19.2z" fill="#2e3033"/></svg>