<svg xmlns="http://www.w3.org/2000/svg" viewBox="0 0 512.1 512.1"><path d="M503.6 373.9H35.4c-4.6 0-8.4-3.7-8.4-8.4v-301c0-4.6 3.7-8.4 8.4-8.4h468.3c4.6 0 8.4 3.7 8.4 8.4v301c-.1 4.6-3.8 8.4-8.5 8.4z" fill="#ff4b55"/><path d="M466.8 106.3v217.4H82.2V106.3h384.6" fill="#ffe15a"/><g fill="#73af00"><path d="M82.2 106.3L274.5 215 82.2 323.7zM466.8 106.3L274.5 215l192.3 108.7z"/></g><circle cx="274.5" cy="215" r="33.4" fill="#ff4b55"/><g fill="#ffe15a"><path d="M276.6 190.5l5.2 15.7 16.5.1c2.1 0 3 2.7 1.3 4l-13.3 9.8 5 15.8c.6 2-1.7 3.7-3.4 2.5l-13.5-9.6-13.5 9.6c-1.7 1.2-4.1-.4-3.4-2.5l5-15.8-13.3-9.8c-1.7-1.3-.8-4 1.3-4l16.5-.1 5.2-15.7c.9-2 3.7-2 4.4 0zM275.7 67.2l3.1 9.3 9.8.1c1.3 0 1.8 1.6.8 2.4l-7.9 5.8 2.9 9.3c.4 1.2-1 2.2-2 1.5l-7.9-5.7-7.9 5.7c-1 .7-2.4-.3-2-1.5l2.9-9.3-7.9-5.8c-1-.8-.5-2.4.8-2.4l9.8-.1 3.1-9.3c.4-1.2 2-1.2 2.4 0zM385.8 67.2l3.1 9.3 9.8.1c1.3 0 1.8 1.6.8 2.4l-7.9 5.8 2.9 9.3c.4 1.2-1 2.2-2 1.5l-7.9-5.7-7.9 5.7c-1 .7-2.4-.3-2-1.5l2.9-9.3-7.9-5.8c-1-.8-.5-2.4.8-2.4l9.8-.1 3.1-9.3c.3-1.2 2-1.2 2.4 0zM165.7 67.2l3.1 9.3 9.8.1c1.3 0 1.8 1.6.8 2.4l-7.9 5.8 2.9 9.3c.4 1.2-1 2.2-2 1.5l-7.9-5.7-7.9 5.7c-1 .7-2.4-.3-2-1.5l2.9-9.3-7.9-5.8c-1-.8-.5-2.4.8-2.4l9.8-.1 3.1-9.3c.3-1.2 2-1.2 2.4 0zM275.7 334.3l3.1 9.3 9.8.1c1.3 0 1.8 1.6.8 2.4l-7.9 5.8 2.9 9.3c.4 1.2-1 2.2-2 1.5l-7.9-5.7-7.9 5.7c-1 .7-2.4-.3-2-1.5l2.9-9.3-7.9-5.8c-1-.8-.5-2.4.8-2.4l9.8-.1 3.1-9.3c.4-1.2 2-1.2 2.4 0zM385.8 334.3l3.1 9.3 9.8.1c1.3 0 1.8 1.6.8 2.4l-7.9 5.8 2.9 9.3c.4 1.2-1 2.2-2 1.5l-7.9-5.7-7.9 5.7c-1 .7-2.4-.3-2-1.5l2.9-9.3-7.9-5.8c-1-.8-.5-2.4.8-2.4l9.8-.1 3.1-9.3c.3-1.2 2-1.2 2.4 0zM165.7 334.3l3.1 9.3 9.8.1c1.3 0 1.8 1.6.8 2.4l-7.9 5.8 2.9 9.3c.4 1.2-1 2.2-2 1.5l-7.9-5.7-7.9 5.7c-1 .7-2.4-.3-2-1.5l2.9-9.3-7.9-5.8c-1-.8-.5-2.4.8-2.4l9.8-.1 3.1-9.3c.3-1.2 2-1.2 2.4 0zM143.8 194.1h-20.9V215c0 11.5 9.4 20.9 20.9 20.9s20.9-9.4 20.9-20.9-9.3-20.9-20.9-20.9z"/></g><path fill="#ff4b55" d="M164.7 235.9l-11.4-2.2-9.5-18.7 18.7 9.4z"/><path d="M19.2 489.1C8.6 489.1 0 480.5 0 469.9V42c0-10.5 8.5-19 19-19h.2c10.6 0 19.2 8.6 19.2 19.2V470c0 10.5-8.6 19.1-19.2 19.1z" fill="#2e3033"/></svg>