<svg xmlns="http://www.w3.org/2000/svg" viewBox="0 0 511.9 511.9"><path d="M350.3 56.05h153.2c4.6 0 8.4 3.8 8.4 8.4v300.9c0 4.6-3.8 8.4-8.4 8.4H350.3V56.05z" fill="#ff4b55"/><path fill="#ffe15a" d="M188.7 56.05h161.7v317.8H188.7z"/><path d="M35.4 56.05h153.2v317.8H35.4c-4.6 0-8.4-3.8-8.4-8.4v-301c0-4.6 3.8-8.4 8.4-8.4z" fill="#41479b"/><path fill="#ffcd5a" d="M280.188 248.986l4.185-3.412 18.956 23.249-4.185 3.412z"/><path fill="#ffbe5a" d="M278.046 250.755l8.296-6.758 8.337 10.234-8.296 6.758z"/><path fill="#ffcd5a" d="M242.21 272.26l-4.185-3.412 18.956-23.248 4.185 3.412z"/><path fill="#ffbe5a" d="M254.92 260.957l-8.295-6.758 8.337-10.234 8.295 6.758z"/><path fill="#ffe15a" d="M263.9 254.35l-13.4 26.8 18.8 13.4v-37.5z"/><path fill="#ffcd5a" d="M274.7 254.35l13.4 26.8-18.8 13.4v-37.5z"/><path d="M231.7 254.35v-69.8h8v53.7c.1 8-8 16.1-8 16.1z" fill="#ffbe5a"/><path d="M226.4 267.75v-83.2h8v67.1c0 8.1-8 16.1-8 16.1z" fill="#ffcd5a"/><path d="M221 278.45v-93.9h8v77.8c.1 8.1-8 16.1-8 16.1z" fill="#ffe15a"/><path d="M239.8 187.25v51c0 13.4 19.5 11.6 29.5 21.5 10.1-9.8 29.5-8 29.5-21.5v-51h-59z" fill="#ff4b55"/><path d="M239.8 216.75v21.5c0 13.4 19.5 11.6 29.5 21.5 10.1-9.8 29.5-8 29.5-21.5v-21.5h-59z" fill="#41479b"/><g fill="#ffe15a"><path d="M269.3 251.65l-8-5.4v-2.6l2.6-2.7v-16.1l-8-5.4 8-10.7h2.7l2.7 2.7 2.7-2.7h2.7l8 10.7-8 5.4v16.1l2.7 2.7v2.6z"/><path d="M258.6 189.95s-10.7 2.7-10.7 13.4 10.7 16.1 10.7 16.1l5.4-8c-16.2-5.4-5.4-21.5-5.4-21.5zM280 189.95s10.7 2.7 10.7 13.4-10.7 16.1-10.7 16.1l-5.4-8c16.2-5.4 5.4-21.5 5.4-21.5zM242.5 216.75l5.3 2.7 5.4-2.7-5.4-2.7zM285.4 216.75l5.4 2.7 5.3-2.7-5.3-2.7zM269.3 191.25l2 2h2.8l-.1 2.8 2 1.9-2 2 .1 2.8h-2.8l-2 2-1.9-2h-2.8v-2.8l-2-2 2-1.9v-2.8h2.8zM251.1 228.45l1.9 2.2 2.7-1.1c1.4-.6 2.7 1 2 2.3l-1.4 2.5 1.8 2.2c1 1.2-.1 2.9-1.5 2.6l-2.8-.6-1.5 2.4c-.8 1.3-2.8.8-2.9-.7l-.3-2.9-2.8-.7c-1.5-.4-1.6-2.4-.2-3l2.6-1.2-.2-2.9c-.3-1.4 1.6-2.2 2.6-1.1zM286.8 234.65c.6-3.1 3.1-5.2 6-5.5-.6-.3-1.2-.6-1.9-.7-3.8-.7-7.4 1.7-8.1 5.5s1.7 7.4 5.5 8.1c.7.1 1.4.1 2.1.1-2.6-1.5-4.2-4.5-3.6-7.5zM258.6 187.25l5.4-26.8-10.7-8 2.7-2.7h5.4s2.7-2.7 8-2.7 10.7 2.7 10.7 10.7 2.7 29.5 2.7 29.5h-24.2z"/></g><path d="M239.8 176.55c-5.9 0-10.7 4.8-10.7 10.7h21.5c-.1-5.9-4.9-10.7-10.8-10.7z" fill="#ffaa5a"/><g fill="#ffbe5a"><path d="M237.1 187.25H221v-17.8c0-3.5 2.8-6.3 6.3-6.3h3.4c3.5 0 6.3 2.8 6.3 6.3v17.8h.1zM306.9 254.35v-69.8h-8v53.7c-.1 8 8 16.1 8 16.1z"/></g><path d="M312.2 267.75v-83.2h-8v67.1c0 8.1 8 16.1 8 16.1z" fill="#ffcd5a"/><path d="M317.6 278.45v-93.9h-8v77.8c0 8.1 8 16.1 8 16.1z" fill="#ffe15a"/><path d="M298.8 176.55c5.9 0 10.7 4.8 10.7 10.7H288c.1-5.9 4.9-10.7 10.8-10.7z" fill="#ffaa5a"/><path d="M301.5 187.25h16.1v-17.8c0-3.5-2.8-6.3-6.3-6.3h-3.4c-3.5 0-6.3 2.8-6.3 6.3l-.1 17.8z" fill="#ffbe5a"/><path fill="#ffaa5a" d="M295 279.477l-3.416-2.08 37.551-61.667 3.416 2.08z"/><path fill="#ffe15a" d="M293.23 270.745l6.681-8.358 6.561 5.245-6.68 8.358z"/><path fill="#ffcd5a" d="M325.634 231.727l-5.723-3.483 8.058-13.24 5.723 3.483z"/><g fill="#73af00"><path d="M246.634 278.88l-37.894-58.618 2.267-1.466 37.895 58.618z"/><path d="M234.8 246.55c-1 1.1-1.6 2.7-1.8 4.7-1.3-1.3-2.8-2.2-4.3-2.4-.4 1.4-.2 3.1.5 4.9-1.8-.6-3.6-.7-5-.3.4 2 2 4.1 4.5 5.6s5.1 1.9 7.1 1.3l.6-.4c1.3-1.5 2.1-4.1 1.7-7-.3-2.9-1.6-5.2-3.3-6.4z"/></g><path d="M238.2 258.35c1.1 1.4.6 3.5-1.1 4.2-1.1.4-2.3.1-3.1-.8-1.1-1.4-.6-3.5 1.1-4.2 1.1-.4 2.4-.1 3.1.8z" fill="#ff4b55"/><path d="M224.6 230.85c-1 1.1-1.6 2.7-1.8 4.7-1.3-1.3-2.8-2.2-4.3-2.4-.4 1.4-.2 3.1.5 4.9-1.8-.6-3.6-.7-5-.3.4 2 2 4.1 4.5 5.6s5.1 1.9 7.1 1.3l.6-.4c1.3-1.5 2.1-4.1 1.7-7-.3-2.9-1.6-5.3-3.3-6.4z" fill="#73af00"/><path d="M228 242.65c1.1 1.4.6 3.5-1.1 4.2-1.1.4-2.3.1-3.1-.8-1.1-1.4-.6-3.5 1.1-4.2 1.1-.5 2.4-.1 3.1.8z" fill="#ff4b55"/><path d="M214.4 215.05c-1 1.1-1.6 2.7-1.8 4.7-1.3-1.3-2.8-2.2-4.3-2.4-.4 1.4-.2 3.1.5 4.9-1.8-.6-3.6-.7-5-.3.4 2 2 4.1 4.5 5.6s5.1 1.9 7.1 1.3l.6-.4c1.3-1.5 2.1-4.1 1.7-7-.3-2.9-1.6-5.3-3.3-6.4z" fill="#73af00"/><path d="M217.8 226.85c1.1 1.4.6 3.5-1.1 4.2-1.1.4-2.3.1-3.1-.8-1.1-1.4-.6-3.5 1.1-4.2 1.1-.4 2.4-.1 3.1.8z" fill="#ff4b55"/><g fill="#ffe15a"><path d="M241.47 275.964l-6.682-8.358 6.561-5.245 6.681 8.358zM253.2 141.65h2.7v18.8h-2.7z"/><path d="M250.5 144.35h8v2.7h-8z"/></g><path fill="#ff875a" d="M253.2 152.35l8.1 6.1v-8.8h-5.4z"/><path d="M255.9 141.65v2.7h2.7v2.7h-2.7v2.7h5.4s2.7-2.7 8-2.7 10.7 2.7 10.7 10.7 2.7 29.5 2.7 29.5h5.4c0-5.9 4.8-10.7 10.7-10.7.9 0 1.8.2 2.7.4v-5.7c0-4.4 3.6-8 8-8s8 3.6 8 8v63.5l3.5-5.7-1.1-.7 8-13.2 1.1.7 1.7 1 2.9 1.7-8 13.2-1.1-.7-6.9 11.3v36.1s-6.4-6.4-7.8-13.5c-1-1.3-2.1-2.9-3.1-4.7l-3.1 5 2.9 2.3-6.7 8.4-1.8-1.4-3 5-3.4-2.1 3.3-5.4-1.6-1.3 2.3-2.9-7-8.6-2.1 1.7-6.3-7.7c-1.7.7-3.3 1.4-4.9 2.2l12.8 25.7-18.8 13.4-18.8-13.4 12.8-25.7c-.9-.5-1.9-1-2.9-1.4l-5.6 6.8-2.1-1.7-7 8.6 2.3 2.9-2.3 1.8 3.1 4.8-2.3 1.5-3-4.6-2.2 1.7-6.7-8.4 3-2.4-1.6-2.5h-.1c-.9 0-1.7-.4-2.2-1.2-.2-.3-.3-.7-.4-1.1-.5 0-1-.1-1.5-.2-1 1.8-2.1 3.5-3.1 4.7-1.4 7.1-7.8 13.5-7.8 13.5v-34.2c-.8-.3-1.6-.6-2.4-1.1-2.5-1.5-4.1-3.6-4.5-5.6.6-.2 1.2-.3 1.9-.3 1 0 2 .2 3.1.6-.3-.9-.6-1.8-.6-2.7l-2.6-4.1h-.1c-.9 0-1.7-.4-2.2-1.2-.2-.3-.3-.7-.4-1.1-1.5-.1-3.1-.5-4.7-1.5-2.5-1.5-4.1-3.6-4.5-5.6.6-.2 1.2-.3 1.9-.3 1 0 2 .2 3.1.6-.7-1.8-.8-3.5-.5-4.9 1.4.2 2.9 1.1 4.3 2.4.2-1.9.8-3.6 1.8-4.7 1.6 1.2 2.9 3.5 3.3 6.4.2 1.8 0 3.5-.6 4.9.3.2.6.5.8.8.5.8.5 1.8.1 2.6l2.6 4.1c.1.1.2.1.3.2V170.75c0-4.4 3.6-8 8-8s8 3.6 8 8v5.7c.9-.2 1.8-.4 2.7-.4 5.9 0 10.7 4.8 10.7 10.7h8l5.4-26.8-2.7-2-5.4-4v6H253v-13.4h-2.7v-2.7h2.7v-2.7l2.9.5m43.1 121.9l1-1.2.5.4 4.3-7.1c-.4-1.3-.6-2.7-.6-4v-.5c-2.3-3.1-5.4-8-5.4-12.9 0 5.7-3.5 8.6-8.2 10.9l4.1 5.1-2.1 1.7 6.4 7.6m-59.1 0l1.4-1.1 1 1.2 6.3-7.7-2.1-1.7 3.4-4.2c-5.7-2.4-10.2-5.3-10.2-11.7 0 3.6-1.6 7.2-3.4 10.1.8 1.2 1.5 2.8 1.7 4.7.2 1.8 0 3.5-.6 4.9.3.2.6.5.8.8.5.8.5 1.8.1 2.6l1.6 2.1m16-123.9h-2.7c-1.1 0-2 .9-2 2v.7h-.7c-1.1 0-2 .9-2 2v2.7c0 1.1.9 2 2 2h.7v11.4c0 1.1.9 2 2 2h2.7c1.1 0 2-.9 2-2v-2l2.1 1.6 1.7 1.3-4.8 24h-4.5c-1-6.1-6.2-10.7-12.6-10.7h-.7v-3.4c0-5.5-4.5-10.1-10.1-10.1-5.5 0-10.1 4.5-10.1 10.1v47c-.7-2-1.9-3.7-3.4-4.7-.4-.3-.8-.4-1.2-.4-.6 0-1.1.2-1.5.7-.6.7-1.1 1.6-1.5 2.5-.9-.5-1.8-.8-2.7-.9h-.3c-.9 0-1.7.6-1.9 1.5s-.3 1.8-.2 2.8h-.5c-.9 0-1.7.1-2.5.4a2 2 0 0 0-1.4 2.3c.5 2.6 2.5 5.2 5.4 6.9 1.3.8 2.8 1.3 4.2 1.6.1.1.1.2.2.3.7 1 1.7 1.7 2.9 2l1.5 2.3h-.1c-.9 0-1.7.1-2.5.4a2 2 0 0 0-1.4 2.3c.5 2.6 2.5 5.2 5.4 6.9.5.3.9.5 1.5.7v32.8c0 .8.5 1.5 1.2 1.9.2.1.5.2.8.2.5 0 1-.2 1.4-.6.3-.3 6.6-6.7 8.2-14.1.7-.9 1.3-1.8 1.9-2.7.6.7 1.5 1.3 2.5 1.5l.1.1-1.6 1.3c-.4.3-.7.8-.7 1.3-.1.5.1 1.1.4 1.5l6.7 8.4c.3.4.8.7 1.3.7h.2c.5 0 .9-.2 1.3-.4l.4-.3 1.8 2.7c.3.4.7.8 1.3.9h.4c.4 0 .8-.1 1.1-.3l1.3-.8-.3.6c-.4.9-.2 2 .6 2.5l18.8 13.4c.4.3.8.4 1.2.4.4 0 .8-.1 1.2-.4l18.8-13.4c.8-.6 1.1-1.7.6-2.5l-11.8-24.1c.5-.2 1-.5 1.6-.7l5.3 6.5c.4.5 1 .7 1.6.7.4 0 .9-.1 1.3-.5l.5-.4 4.7 5.8-1.3 1.6c-.3.4-.5.9-.4 1.5.1.5.3 1 .7 1.3l.2.2-2.4 3.9c-.6.9-.3 2.2.7 2.8l3.4 2.1c.3.2.7.3 1 .3.2 0 .3 0 .5-.1.5-.1 1-.5 1.2-.9l1.8-3c.4.3.8.4 1.2.4.6 0 1.2-.3 1.6-.8l6.7-8.4c.2-.3.4-.7.4-1 2.2 6.5 7.4 11.8 7.7 12.1.4.4.9.6 1.4.6.3 0 .5 0 .8-.2.8-.3 1.2-1 1.2-1.9v-35.4l5.6-9.2h.4c.7 0 1.3-.3 1.7-1l8-13.2c.3-.5.4-1 .2-1.5-.1-.5-.5-1-.9-1.2l-2.9-1.7-1.7-1-1.1-.7c-.3-.2-.7-.3-1-.3-.7 0-1.3.3-1.7 1l-6.6 10.9v-53.7c0-5.5-4.5-10.1-10.1-10.1-5.5 0-10.1 4.5-10.1 10.1v3.4h-.7c-6.3 0-11.6 4.7-12.6 10.7h-1.7c-.6-5.3-2.5-21-2.5-27.5 0-9.4-6.6-12.7-12.7-12.7-4.6 0-7.5 1.7-8.8 2.7h-.1c.1-.2.1-.4.1-.7v-2.7c0-1.1-.9-2-2-2h-.7v-.7c.4-1.3-.5-2.2-1.6-2.2zm-17.1 108.6c.5-.9 1-1.8 1.4-2.7 1.7 2.3 4.1 3.9 6.7 5.1l-1.8 2.2c-.3.4-.5.9-.4 1.5.1.5.3 1 .7 1.4l.5.4-3.6 4.4c-.2-.1-.4-.2-.7-.2h-.2c-.2 0-.4 0-.6.1.1-1-.1-2-.7-2.9-.1-.1-.1-.2-.2-.3.4-1.4.5-3 .3-4.5-.3-1.6-.7-3.1-1.4-4.5zm54.9 1.5c1.8-1 3.5-2.3 4.8-4.1 1 2.3 2.4 4.5 3.7 6.2 0 1.1.2 2.3.5 3.5l-3.1 5c-.2 0-.4.1-.5.2l-3.6-4.4.5-.4c.4-.3.7-.8.7-1.4.1-.5-.1-1.1-.4-1.5l-2.6-3.1zm-38.8 13.2c.6 0 1.2-.3 1.6-.7l3.4-4.2-9.2 18.4-.1-.1-2.1-3.3.9-.7c.4-.3.7-.8.7-1.3.1-.5-.1-1.1-.4-1.5l-1.3-1.6 4.7-5.8.5.4c.4.3.8.4 1.3.4zm51.4 1.9l.4-.7c.4.6.8 1.1 1.2 1.7 0 .2.1.3.1.5l-.3-.3-1.4-1.2z" fill="#ffaa5a"/><path d="M19.2 488.65c-10.6 0-19.2-8.6-19.2-19.1V42.25c0-10.5 8.5-19 19-19h.2c10.6 0 19.2 8.6 19.2 19.2v427.1c-.1 10.5-8.6 19.1-19.2 19.1z" fill="#2e3033"/></svg>