<svg xmlns="http://www.w3.org/2000/svg" viewBox="0 0 512 512"><path d="M503.5 373.8H35.4c-4.6 0-8.4-3.7-8.4-8.4V64.6c0-4.6 3.7-8.4 8.4-8.4h468.2c4.6 0 8.4 3.7 8.4 8.4v300.9c-.1 4.5-3.8 8.3-8.5 8.3z" fill="#f5f5f5"/><g fill="#ff4b55"><path d="M503.5 373.8H35.4c-4.6 0-8.4-3.7-8.4-8.4V265.1h484.9v100.3c0 4.6-3.7 8.4-8.4 8.4zM361.4 173.1v-16.7h-16.7v-41.7h8.3V97.9h-50.2v16.8h8.4v41.7h-25.1V97.9h8.4V81.3h-50.2v16.6h8.4v58.5h-25.1v-41.7h8.4V97.9h-50.2v16.8h8.3v41.7h-16.7v16.7h8.4V240h-8.4v16.7h184V240H353v-66.9z"/></g><g fill="#464655"><path d="M286.1 248.3h-33.4v-33.4c0-9.2 7.5-16.7 16.7-16.7s16.7 7.5 16.7 16.7v33.4zM269.4 131.4c-4.6 0-8.4 3.7-8.4 8.4v25.1h16.7v-25.1c.1-4.7-3.7-8.4-8.3-8.4zM327.9 139.7c-4.6 0-8.4 3.7-8.4 8.4v16.7h16.7v-16.7c.1-4.6-3.6-8.4-8.3-8.4zM210.9 139.7c-4.6 0-8.4 3.7-8.4 8.4v16.7h16.7v-16.7c0-4.6-3.7-8.4-8.3-8.4zM336.3 248.3h-33.4v-25.1c0-9.2 7.5-16.7 16.7-16.7s16.7 7.5 16.7 16.7v25.1zM236 248.3h-33.4v-25.1c0-9.2 7.5-16.7 16.7-16.7S236 214 236 223.2v25.1z"/></g><path d="M292.4 277.6c0-1.4-.7-2.7-1.9-3.5l-17-11.3v-3.5l14.4-7.2c2.1-1 2.9-3.5 1.9-5.6s-3.5-2.9-5.6-1.9l-14.9 7.4-14.9-7.4c-2.1-1-4.6-.2-5.6 1.9s-.2 4.6 1.9 5.6l14.4 7.2v3.5l-17 11.3c-1.2.8-1.9 2.1-1.9 3.5s.7 2.7 1.9 3.5l17 11.3v35.4h-16.7v6.4c0 2.3 1.9 4.2 4.2 4.2 1.6 0 3-.9 3.7-2.2h8.8v8.4h-8.9c-.7-1.2-2.1-2.1-3.6-2.1-2.3 0-4.2 1.9-4.2 4.2v6.3h16.7v4.2c0 2.3 1.9 4.2 4.2 4.2 2.3 0 4.2-1.9 4.2-4.2v-64.8l17-11.3c1.2-.8 1.9-2.1 1.9-3.5zm-23 7.5l-11.3-7.5 11.3-7.5 11.3 7.5-11.3 7.5z" fill="#ffe15a"/><path d="M19.2 489C8.6 489 0 480.4 0 469.8V42c0-10.5 8.5-19 19-19h.2c10.6 0 19.2 8.6 19.2 19.2v427.7c0 10.5-8.6 19.1-19.2 19.1z" fill="#2e3033"/></svg>