<svg xmlns="http://www.w3.org/2000/svg" viewBox="0 0 512 512"><path d="M27 267.95h485v97.5c0 4.6-3.8 8.4-8.4 8.4H35.4c-4.6 0-8.4-3.8-8.4-8.4v-97.5z" fill="#73af00"/><path d="M35.4 56.05h468.2c4.6 0 8.4 3.8 8.4 8.4v97.5H27v-97.5c0-4.6 3.8-8.4 8.4-8.4z" fill="#464655"/><g fill="#ff4b55"><path d="M27 161.95h485v105.9H27zM334.5 152.05c-13.1-22.3-37.2-37.4-65-37.4s-51.9 15.1-65 37.4h130zM273.8 79.05c0 3.8-4.3 27.2-4.3 27.2s-4.3-23.4-4.3-27.2 1.9-6.8 4.3-6.8 4.3 3.1 4.3 6.8zM350.7 114.45c-2.7 2.7-22.3 16.2-22.3 16.2s13.5-19.6 16.2-22.3 6.2-3.4 7.9-1.7.9 5.2-1.8 7.8zM194.4 108.35c2.7 2.7 16.2 22.3 16.2 22.3s-19.6-13.5-22.3-16.2-3.4-6.2-1.7-7.9c1.6-1.6 5.1-.8 7.8 1.8zM231.2 85.85c1.4 3.5 6.4 26.8 6.4 26.8s-13-20-14.4-23.5-.8-7 1.4-7.9c2.2-1 5.2 1.1 6.6 4.6zM315.8 89.15c-1.4 3.5-14.4 23.5-14.4 23.5s5-23.3 6.4-26.8 4.4-5.5 6.6-4.6 2.8 4.4 1.4 7.9zM251.8 80.45c.7 3.7 1.2 27.5 1.2 27.5s-8.9-22.1-9.6-25.8.5-7 2.9-7.5c2.2-.5 4.7 2.1 5.5 5.8zM334.2 99.85c-2.1 3.1-18.6 20.3-18.6 20.3s9.3-21.9 11.4-25 5.4-4.6 7.4-3.3c1.9 1.3 1.8 4.9-.2 8zM179.7 124.95c3.1 2.1 20.3 18.6 20.3 18.6s-21.9-9.3-25-11.4-4.6-5.4-3.3-7.4c1.3-2 4.9-1.9 8 .2zM211.3 95.55c2.1 3.1 11.6 25 11.6 25s-16.7-17-18.8-20.1-2.2-6.7-.2-8c2-1.5 5.3 0 7.4 3.1zM363.6 131.45c-3.1 2.1-25 11.6-25 11.6s17-16.7 20.1-18.8 6.7-2.2 8-.2c1.4 2 0 5.3-3.1 7.4zM294.9 81.95c-.7 3.7-9.4 25.8-9.4 25.8s.2-23.8 1-27.5c.7-3.7 3.2-6.3 5.5-5.8 2.3.4 3.6 3.8 2.9 7.5zM297.5 82.55c-1.1 3.6-3.8 27.3-3.8 27.3s10.9-21.2 12-24.8.1-7.1-2.2-7.8c-2.2-.6-4.9 1.7-6 5.3zM213.6 94.15c1.8 3.3 16.6 21.9 16.6 21.9s-7.2-22.7-9-26-4.9-5.1-7-4c-2.1 1.2-2.4 4.8-.6 8.1zM365 133.75c-3.3 1.8-21.9 16.6-21.9 16.6s22.7-7.2 26-9 5.1-4.9 4-7c-1.2-2.1-4.8-2.4-8.1-.6zM336.3 101.45c-2.4 2.9-13.9 23.7-13.9 23.7s18.2-15.4 20.6-18.3 2.8-6.5 1-8c-1.9-1.4-5.3-.3-7.7 2.6zM181.3 122.85c2.9 2.4 23.7 13.9 23.7 13.9s-15.4-18.2-18.3-20.6-6.5-2.8-8-1c-1.4 1.8-.3 5.3 2.6 7.7zM254.4 80.05c.4 3.7 7 26.6 7 26.6s2-23.7 1.6-27.5c-.4-3.7-2.6-6.6-5-6.3-2.4.2-4 3.4-3.6 7.2zM276.2 79.15c-.4 3.7 1.6 27.5 1.6 27.5s6.6-22.9 7-26.6-1.2-7-3.6-7.2c-2.4-.2-4.6 2.6-5 6.3zM196.2 106.75c2.4 2.9 20.6 18.3 20.6 18.3s-11.5-20.9-13.9-23.8-5.8-4-7.6-2.5-1.5 5.1.9 8zM352.3 116.25c-2.9 2.4-18.3 20.6-18.3 20.6s20.9-11.5 23.8-13.9 4-5.8 2.5-7.6c-1.5-1.9-5.1-1.5-8 .9zM317.9 90.15c-1.8 3.3-9 26-9 26s14.9-18.6 16.7-21.9c1.8-3.3 1.5-6.9-.6-8-2.2-1.2-5.3.6-7.1 3.9zM170 141.25c3.3 1.8 26 9 26 9s-18.6-14.9-21.9-16.7-6.9-1.5-8 .6.6 5.2 3.9 7.1zM233.4 85.05c1.1 3.6 12 24.8 12 24.8s-2.6-23.7-3.7-27.3-3.8-5.9-6.1-5.3c-2.3.7-3.3 4.2-2.2 7.8z"/></g><path d="M19 486.95c-10.5 0-19-8.5-19-19v-424c0-10.4 8.4-18.9 18.9-18.9h.1c10.5 0 19 8.5 19 19v423.8c.1 10.6-8.5 19.1-19 19.1z" fill="#2e3033"/></svg>