<svg xmlns="http://www.w3.org/2000/svg" viewBox="0 0 512.1 512.1"><path d="M503.6 373.9H35.4c-4.6 0-8.4-3.7-8.4-8.4v-301c0-4.6 3.7-8.4 8.4-8.4h468.3c4.6 0 8.4 3.7 8.4 8.4v301c-.1 4.6-3.8 8.4-8.5 8.4z" fill="#3cc8ff"/><path d="M265.1 215H39.4c-4.6 0-8.4-3.7-8.4-8.4V64.5c0-4.6 3.7-8.4 8.4-8.4h225.8c4.6 0 8.4 3.7 8.4 8.4v142.2c-.1 4.6-3.8 8.3-8.5 8.3z" fill="#41479b"/><path d="M265.1 56.1h-14.5l-77.5 50.7V56.1h-41.8v50.7L53.9 56.1H39.4c-4.6 0-8.4 3.7-8.4 8.4v6.6l66.5 43.5H31v41.8h66.5L31 200v6.6c0 4.6 3.7 8.4 8.4 8.4h14.5l77.5-50.7V215h41.8v-50.7l77.5 50.7h14.5c4.6 0 8.4-3.7 8.4-8.4V200L207 156.5h66.5v-41.8H207l66.5-43.5v-6.6c0-4.7-3.7-8.5-8.4-8.5z" fill="#f5f5f5"/><g fill="#ff4b55"><path d="M273.5 123H164.8V56.1h-25.1V123H31v25.1h108.7V215h25.1v-66.9h108.7z"/><path d="M123 114.7L35 57.5c-2.3 1.5-4 4-4 6.9v.4l76.6 49.7c0 .2 15.4.2 15.4.2zM188.5 114.7l83.7-54.3c-1.5-2.5-4-4.2-7.1-4.2h-1.8l-90.2 58.5h15.4zM115.8 156.5l-83.6 54.2c1.4 2.5 4 4.3 7.2 4.3H41l90.2-58.5h-15.4zM273.4 207.3l-78.3-50.8h-15.4l88.9 57.7c2.7-1.2 4.5-3.8 4.8-6.9z"/></g><g fill="#ffe15a"><path d="M296.3 316.2l4.1 12.2 12.9.1c1.7 0 2.4 2.1 1 3.1l-10.3 7.6 3.9 12.3c.5 1.6-1.3 2.9-2.7 1.9l-10.5-7.5-10.5 7.5c-1.4 1-3.2-.3-2.7-1.9l3.9-12.3-10.3-7.6c-1.3-1-.6-3.1 1-3.1l12.9-.1 4.1-12.2c.5-1.6 2.7-1.6 3.2 0zM414.7 224.1l4.1 12.2 12.9.1c1.7 0 2.4 2.1 1 3.1l-10.3 7.6 3.9 12.3c.5 1.6-1.3 2.9-2.7 1.9l-10.5-7.5-10.5 7.5c-1.4 1-3.2-.3-2.7-1.9l3.9-12.3-10.3-7.6c-1.3-1-.6-3.1 1-3.1l12.9-.1 4.1-12.2c.5-1.6 2.7-1.6 3.2 0zM470.6 189.8l4.1 12.2 12.9.1c1.7 0 2.4 2.1 1 3.1l-10.3 7.6 3.9 12.3c.5 1.6-1.3 2.9-2.7 1.9l-10.5-7.5-10.5 7.5c-1.4 1-3.2-.3-2.7-1.9l3.9-12.3-10.3-7.6c-1.3-1-.6-3.1 1-3.1l12.9-.1 4.1-12.2c.4-1.5 2.6-1.5 3.2 0zM457.3 72.4l4.1 12.2 12.9.1c1.7 0 2.4 2.1 1 3.1L465 95.4l3.9 12.3c.5 1.6-1.3 2.9-2.7 1.9l-10.5-7.5-10.5 7.5c-1.4 1-3.2-.3-2.7-1.9l3.9-12.3-10.4-7.5c-1.3-1-.6-3.1 1-3.1l12.9-.1 4.1-12.2c.5-1.6 2.7-1.6 3.3-.1zM345.8 346.7l-4.1-12.2-12.9-.1c-1.7 0-2.4-2.1-1-3.1l10.3-7.6-3.9-12.3c-.5-1.6 1.3-2.9 2.7-1.9l10.5 7.5 10.5-7.5c1.4-1 3.2.3 2.7 1.9l-3.9 12.3 10.3 7.6c1.3 1 .6 3.1-1 3.1l-12.9.1-4.1 12.2c-.4 1.5-2.6 1.5-3.2 0zM384.3 312.1l-4.1-12.2-12.9-.1c-1.7 0-2.4-2.1-1-3.1l10.3-7.6-3.9-12.3c-.5-1.6 1.3-2.9 2.7-1.9l10.5 7.5 10.5-7.5c1.4-1 3.2.3 2.7 1.9l-3.9 12.3 10.3 7.6c1.3 1 .6 3.1-1 3.1l-12.9.1-4.1 12.2c-.4 1.6-2.7 1.6-3.2 0zM418.9 161.5l-4.1-12.2-12.9-.1c-1.7 0-2.4-2.1-1-3.1l10.3-7.6-3.9-12.3c-.5-1.6 1.3-2.9 2.7-1.9l10.5 7.5 10.5-7.5c1.4-1 3.2.3 2.7 1.9l-3.9 12.3 10.3 7.6c1.3 1 .6 3.1-1 3.1l-12.9.1-4.1 12.2c-.4 1.6-2.6 1.6-3.2 0zM379 174.3l-4.1-12.2-12.9-.1c-1.7 0-2.4-2.1-1-3.1l10.3-7.6-3.9-12.3c-.5-1.6 1.3-2.9 2.7-1.9l10.5 7.5 10.5-7.5c1.4-1 3.2.3 2.7 1.9l-3.9 12.3 10.3 7.6c1.3 1 .6 3.1-1 3.1l-12.9.1-4.1 12.2c-.5 1.6-2.7 1.6-3.2 0zM353.4 274l-4.1-12.2-12.9-.1c-1.7 0-2.4-2.1-1-3.1l10.3-7.6-3.9-12.3c-.5-1.6 1.3-2.9 2.7-1.9l10.5 7.5 10.5-7.5c1.4-1 3.2.3 2.7 1.9l-3.9 12.3 10.3 7.6c1.3 1 .6 3.1-1 3.1l-12.9.1-4.1 12.2c-.4 1.5-2.7 1.5-3.2 0z"/></g><path d="M19.2 489.1C8.6 489.1 0 480.5 0 469.9V42c0-10.5 8.5-19 19-19h.2c10.6 0 19.2 8.6 19.2 19.2v427.7c0 10.6-8.6 19.2-19.2 19.2z" fill="#2e3033"/></svg>