<svg xmlns="http://www.w3.org/2000/svg" viewBox="0 0 512 512"><path d="M27 268.05h485v97.5c0 4.6-3.8 8.4-8.4 8.4H35.4c-4.6 0-8.4-3.8-8.4-8.4v-97.5z" fill="#73af00"/><path d="M35.4 56.15h468.2c4.6 0 8.4 3.8 8.4 8.4v97.5H27v-97.5c0-4.6 3.8-8.4 8.4-8.4z" fill="#ff9b55"/><path fill="#f5f5f5" d="M27 162.05h485v105.9H27z"/><path d="M311.3 212.85c1.3 24.8-19.1 45.2-43.9 43.9-21.2-1.1-38.5-18.3-39.6-39.6-1.3-24.8 19.1-45.2 43.9-43.9 21.2 1.1 38.5 18.4 39.6 39.6z" fill="#ff9b55"/><path d="M18.7 483.45c-10.3 0-18.7-8.3-18.7-18.7V47.15c0-10.3 8.3-18.6 18.6-18.6h.2c10.3 0 18.7 8.4 18.7 18.7v417.4c0 10.5-8.4 18.8-18.8 18.8z" fill="#2e3033"/></svg>