<svg xmlns="http://www.w3.org/2000/svg" viewBox="0 0 512.002 512.002"><path d="M503.7 373.901H35.4c-4.7 0-8.4-3.8-8.4-8.4v-301c0-4.7 3.8-8.4 8.4-8.4h468.2c4.7 0 8.4 3.8 8.4 8.4v301c.1 4.6-3.7 8.4-8.3 8.4z" fill="#ff4b55"/><path d="M202.7 56.101H35.4c-4.6 0-8.4 3.7-8.4 8.4v301.1c0 4.6 3.7 8.4 8.4 8.4h167.2v-317.9h.1z" fill="#73af00"/><path d="M277.9 212.501c1.4 43.5-34.1 79-77.6 77.6-39.4-1.3-71.4-33.3-72.7-72.7-1.4-43.5 34.1-79 77.6-77.6 39.4 1.3 71.5 33.4 72.7 72.7z" fill="#ffe15a"/><path d="M227.9 189.901v33.4c0 13.8-11.3 25.1-25.1 25.1s-25.1-11.3-25.1-25.1v-33.4h50.2m8.3-16.7h-66.9c-4.6 0-8.4 3.7-8.4 8.4v41.8c0 23.1 18.7 41.8 41.8 41.8s41.8-18.7 41.8-41.8v-41.8c.1-4.7-3.7-8.4-8.3-8.4z" fill="#ff4b55"/><path d="M227.9 189.901v33.4c0 13.8-11.3 25.1-25.1 25.1s-25.1-11.3-25.1-25.1v-33.4h50.2" fill="#f5f5f5"/><g fill="#ffe15a"><path d="M173.4 180.901c.4 2.8-2 5.2-4.8 4.8-1.8-.3-3.2-1.7-3.5-3.5-.4-2.8 2-5.2 4.8-4.8 1.8.3 3.2 1.7 3.5 3.5zM240.3 180.901c.4 2.8-2 5.2-4.8 4.8-1.8-.3-3.2-1.7-3.5-3.5-.4-2.8 2-5.2 4.8-4.8 1.8.3 3.2 1.7 3.5 3.5zM173.4 214.301c.4 2.8-2 5.2-4.8 4.8-1.8-.3-3.2-1.7-3.5-3.5-.4-2.8 2-5.2 4.8-4.8 1.8.3 3.2 1.8 3.5 3.5zM240.3 214.301c.4 2.8-2 5.2-4.8 4.8-1.8-.3-3.2-1.7-3.5-3.5-.4-2.8 2-5.2 4.8-4.8 1.8.3 3.2 1.8 3.5 3.5zM206.8 180.901c.4 2.8-2 5.2-4.8 4.8-1.8-.3-3.2-1.7-3.5-3.5-.4-2.8 2-5.2 4.8-4.8 1.8.3 3.3 1.7 3.5 3.5zM231.9 245.201c.4 2.8-2 5.2-4.8 4.8-1.8-.3-3.2-1.7-3.5-3.5-.4-2.8 2-5.2 4.8-4.8 1.8.3 3.3 1.7 3.5 3.5zM182.2 245.201c.4 2.8-2 5.2-4.8 4.8-1.8-.3-3.2-1.7-3.5-3.5-.4-2.8 2-5.2 4.8-4.8 1.8.3 3.3 1.7 3.5 3.5z"/></g><g fill="#41479b"><path d="M208.2 212.901v7.2c0 3-2.4 5.4-5.4 5.4s-5.4-2.4-5.4-5.4v-7.2h10.8M208.2 195.801v7.2c0 3-2.4 5.4-5.4 5.4s-5.4-2.4-5.4-5.4v-7.2h10.8M208.2 230.101v7.2c0 3-2.4 5.4-5.4 5.4s-5.4-2.4-5.4-5.4v-7.2h10.8M222.7 212.901v7.2c0 3-2.4 5.4-5.4 5.4s-5.4-2.4-5.4-5.4v-7.2h10.8M193.6 212.901v7.2c0 3-2.4 5.4-5.4 5.4s-5.4-2.4-5.4-5.4v-7.2h10.8"/></g><path d="M19.1 488.101c-10.5 0-19.1-8.6-19.1-19.1v-426.1c0-10.5 8.5-19 19-19h.2c10.6 0 19.1 8.6 19.1 19.1v426c-.1 10.5-8.6 19.1-19.2 19.1z" fill="#2e3033"/></svg>