<svg xmlns="http://www.w3.org/2000/svg" viewBox="0 0 512 512"><path d="M503.6 373.9H35.4c-4.6 0-8.4-3.8-8.4-8.4v-301c0-4.6 3.8-8.4 8.4-8.4h468.2c4.6 0 8.4 3.8 8.4 8.4v300.9c0 4.7-3.8 8.5-8.4 8.5z" fill="#ff4b55"/><path d="M448.6 120.8v188.4H89.1V120.8h359.5" fill="#73af00"/><path d="M251.7 215c0-32.5 22.1-59.6 52-67.5 1-.3.9-1.7-.1-1.8-2.7-.3-5.4-.5-8.3-.5-38.6 0-69.8 31.2-69.8 69.8 0 38.4 31.2 69.7 69.8 69.7 2.8 0 5.5-.2 8.3-.5 1-.1 1.1-1.5.1-1.8-29.8-7.9-52-35-52-67.4z" fill="#f5f5f5"/><path d="M18.9 485.2C8.5 485.2 0 476.8 0 466.3V45.5c0-10.4 8.4-18.7 18.8-18.7h.2c10.5 0 18.9 8.5 18.9 18.9v420.6c-.2 10.5-8.6 18.9-19 18.9z" fill="#2e3033"/></svg>