<svg xmlns="http://www.w3.org/2000/svg" viewBox="0 0 512 512"><path d="M503.5 373.9H35.4c-4.6 0-8.4-3.7-8.4-8.4v-301c0-4.6 3.7-8.4 8.4-8.4h468.2c4.6 0 8.4 3.7 8.4 8.4v300.9c-.1 4.7-3.8 8.5-8.5 8.5z" fill="#41479b"/><path fill="#ffe15a" d="M27 198.3h484.9v33.4H27z"/><path fill="#f5f5f5" d="M139.9 265.2l4.8 19.4 13.9-14.4-5.5 19.3 19.3-5.5-14.4 13.9 19.4 4.9-19.4 4.9 14.4 13.9-19.3-5.5 5.5 19.3-13.9-14.4-4.8 19.4L135 321l-13.9 14.4 5.5-19.3-19.3 5.5 14.4-13.9-19.4-4.9 19.4-4.9-14.4-13.9 19.3 5.5-5.5-19.3 13.9 14.4z"/><path d="M18.9 485.2C8.5 485.2 0 476.7 0 466.3V45.5c0-10.3 8.4-18.7 18.7-18.7h.2c10.4 0 18.9 8.5 18.9 18.9v420.5c0 10.5-8.5 19-18.9 19z" fill="#2e3033"/></svg>