<svg xmlns="http://www.w3.org/2000/svg" viewBox="0 0 512 512"><path d="M28 290.1h484v75c0 4.6-3.8 8.4-8.4 8.4H36.4c-4.6 0-8.4-3.8-8.4-8.4v-75z" fill="#73af00"/><path d="M36.4 56.4h467.2c4.6 0 8.4 3.8 8.4 8.4v75H28v-75c0-4.6 3.8-8.4 8.4-8.4z" fill="#ff4b55"/><path fill="#464655" d="M28 139.9h484v150.2H28z"/><g fill="#f5f5f5"><path d="M317.3 188l12.6 16.5 19.7-6.6c1.1-.4 2 .9 1.4 1.8l-11.8 17.1 12.3 16.7c.7.9-.2 2.2-1.3 1.9l-19.9-5.9-12 16.9c-.7.9-2.2.5-2.2-.7l-.5-20.7-19.8-6.2c-1.1-.3-1.1-1.9 0-2.3l19.5-6.9-.2-20.7c0-1.3 1.5-1.8 2.2-.9z"/><path d="M283.3 255.5c-22.4 0-40.5-18.2-40.5-40.5 0-22.4 18.2-40.5 40.5-40.5 8.3 0 16 2.6 22.4 6.9 1 .7 2.1-.6 1.3-1.5-9.6-10-23.1-16-38.1-15.5-25.7.9-47.1 21.6-48.8 47.3-1.9 29.4 21.5 54 50.5 54 14.3 0 27.1-6 36.4-15.6.8-.8-.3-2.1-1.3-1.5-6.5 4.4-14.1 6.9-22.4 6.9z"/></g><path d="M19.2 488.7C8.6 488.7 0 480.1 0 469.6V42.3c0-10.5 8.5-19 19-19h.2c10.6 0 19.2 8.6 19.2 19.2v427.1c-.1 10.5-8.6 19.1-19.2 19.1z" fill="#2e3033"/></svg>