<svg xmlns="http://www.w3.org/2000/svg" viewBox="0 0 511.902 511.902"><path d="M503.6 373.851H35.4c-4.7 0-8.4-3.8-8.4-8.4v-300.9c0-4.7 3.8-8.4 8.4-8.4h468.1c4.7 0 8.4 3.8 8.4 8.4v300.9c.1 4.6-3.7 8.4-8.3 8.4z" fill="#41479b"/><path d="M261.1 56.051h-14.5l-77.5 50.7v-50.7h-41.8v50.7l-77.4-50.7H35.4c-4.6 0-8.4 3.7-8.4 8.4v6.6l66.5 43.5H27v41.8h66.5l-66.5 43.6v6.6c0 4.6 3.7 8.4 8.4 8.4h14.5l77.5-50.7v50.7h41.8v-50.7l77.5 50.7h14.5c4.6 0 8.4-3.7 8.4-8.4v-6.6l-66.6-43.5h66.5v-41.8H203l66.5-43.5v-6.6c0-4.7-3.7-8.5-8.4-8.5z" fill="#f5f5f5"/><g fill="#ff4b55"><path d="M269.5 122.951H160.8v-66.9h-25.1v66.9H27v25.1h108.7v66.9h25.1v-66.9h108.7z"/><path d="M119 114.651l-88-57.2c-2.3 1.5-4 4-4 6.9v.4l76.6 49.7H119v.2zM184.5 114.651l83.7-54.3c-1.5-2.5-4-4.2-7.1-4.2h-1.8l-90.2 58.5h15.4zM111.8 156.451l-83.6 54.2c1.4 2.5 4 4.3 7.2 4.3H37l90.2-58.5h-15.4zM269.4 207.251l-78.3-50.8h-15.4l88.9 57.7c2.7-1.2 4.5-3.8 4.8-6.9z"/></g><g fill="#f5f5f5"><path d="M150.8 260.551l6.3 20.8 20.2-8.1c1.7-.7 3.3 1.3 2.2 2.8l-12.4 17.9 18.9 10.8c1.6.9 1.1 3.4-.8 3.5l-21.7 1.5 3.4 21.5c.3 1.8-2 2.9-3.2 1.6l-14.7-15.9-14.7 16c-1.3 1.4-3.5.3-3.2-1.6l3.4-21.5-21.7-1.5c-1.9-.1-2.4-2.6-.8-3.5l18.9-10.8-12.4-17.9c-1.1-1.5.5-3.5 2.2-2.8l20.2 8.1 6.3-20.8c.5-1.9 3-1.9 3.6-.1zM399.5 112.351l3.1 10.2 9.9-3.9c.8-.3 1.6.6 1.1 1.4l-6 8.8 9.2 5.3c.8.4.5 1.6-.4 1.7l-10.6.7 1.6 10.5c.1.9-1 1.4-1.6.8l-7.2-7.8-7.2 7.8c-.6.7-1.7.1-1.6-.8l1.6-10.5-10.6-.7c-.9-.1-1.2-1.3-.4-1.7l9.2-5.3-6-8.8c-.5-.7.3-1.7 1.1-1.4l9.9 3.9 3.1-10.2c.3-.8 1.6-.8 1.8 0zM330.8 190.551l3.1 10.2 9.9-3.9c.8-.3 1.6.6 1.1 1.4l-6 8.8 9.2 5.3c.8.4.5 1.6-.4 1.7l-10.6.7 1.6 10.5c.1.9-1 1.4-1.6.8l-7.2-7.8-7.2 7.8c-.6.7-1.7.1-1.6-.8l1.6-10.5-10.6-.7c-.9-.1-1.2-1.3-.4-1.7l9.2-5.3-6-8.8c-.5-.7.3-1.7 1.1-1.4l9.9 3.9 3.1-10.2c.3-.9 1.5-.9 1.8 0zM464.6 157.051l3.1 10.2 9.9-3.9c.8-.3 1.6.6 1.1 1.4l-6 8.8 9.2 5.3c.8.4.5 1.6-.4 1.7l-10.6.7 1.6 10.5c.1.9-1 1.4-1.6.8l-7.2-7.8-7.2 7.8c-.6.7-1.7.1-1.6-.8l1.6-10.5-10.6-.7c-.9-.1-1.2-1.3-.4-1.7l9.2-5.3-6-8.8c-.5-.7.3-1.7 1.1-1.4l9.9 3.9 3.1-10.2c.3-.9 1.5-.9 1.8 0zM399.5 290.851l3.1 10.2 9.9-3.9c.8-.3 1.6.6 1.1 1.4l-6 8.8 9.2 5.3c.8.4.5 1.6-.4 1.7l-10.6.7 1.6 10.5c.1.9-1 1.4-1.6.8l-7.2-7.8-7.2 7.8c-.6.7-1.7.1-1.6-.8l1.6-10.5-10.6-.7c-.9-.1-1.2-1.3-.4-1.7l9.2-5.3-6-8.8c-.5-.7.3-1.7 1.1-1.4l9.9 3.9 3.1-10.2c.3-.9 1.6-.9 1.8 0zM423.4 208.851l-2.5 7.4-7.8.1c-1 0-1.4 1.3-.6 1.9l6.3 4.6-2.4 7.5c-.3 1 .8 1.8 1.6 1.2l6.4-4.6 6.4 4.6c.8.6 1.9-.2 1.6-1.2l-2.4-7.5 6.3-4.6c.8-.6.4-1.9-.6-1.9l-7.8-.1-2.5-7.4c-.3-1-1.7-1-2 0z"/></g><path d="M19.1 488.051c-10.5 0-19.1-8.6-19.1-19.1v-426.1c0-10.5 8.5-19 19-19h.2c10.6 0 19.1 8.6 19.1 19.1v426c-.1 10.5-8.6 19.1-19.2 19.1z" fill="#2e3033"/></svg>