<svg xmlns="http://www.w3.org/2000/svg" viewBox="0 0 512.1 512.1"><path d="M503.6 373.9H35.4c-4.6 0-8.4-3.7-8.4-8.4v-301c0-4.6 3.7-8.4 8.4-8.4h468.3c4.6 0 8.4 3.7 8.4 8.4v301c-.1 4.6-3.8 8.4-8.5 8.4z" fill="#41479b"/><g fill="#ffe15a"><path d="M478.6 323.7H144.1c-4.6 0-8.4-3.7-8.4-8.4 0-4.6 3.7-8.4 8.4-8.4h334.5l8.4 8.4-8.4 8.4zM482.7 298.6H144.1s133.8-150.5 259.2-184c0 0-41.8 108.7 58.5 175.6h20.9c2.3 0 4.2 1.9 4.2 4.2 0 2.3-1.9 4.2-4.2 4.2z"/></g><g fill="#f5f5f5"><path d="M129.5 250.2l3.2 9.7 10.3.1c1.3 0 1.9 1.7.8 2.5l-8.3 6.1 3.1 9.8c.4 1.3-1 2.3-2.1 1.5l-8.3-6-8.3 6c-1.1.8-2.5-.3-2.1-1.5l3.1-9.8-8.3-6.1c-1.1-.8-.5-2.5.8-2.5l10.3-.1 3.2-9.7c.4-1.2 2.1-1.2 2.6 0zM129.2 116.5l2.6 7.9 8.3.1c1.1 0 1.5 1.4.7 2l-6.7 4.9 2.5 7.9c.3 1-.8 1.9-1.7 1.3l-6.8-4.8-6.8 4.8c-.9.6-2-.2-1.7-1.3l2.5-7.9-6.7-4.9c-.9-.6-.4-2 .7-2l8.3-.1 2.6-7.9c.4-1.1 1.9-1.1 2.2 0zM66.2 165.3l2.6 7.9 8.3.1c1.1 0 1.5 1.4.7 2l-6.7 4.9 2.5 7.9c.3 1-.8 1.9-1.7 1.3l-6.8-4.8-6.8 4.8c-.9.6-2-.2-1.7-1.3l2.5-7.9-6.7-4.9c-.9-.6-.4-2 .7-2l8.3-.1 2.6-7.9c.4-1 1.8-1 2.2 0zM174.3 162l2 6.1h6.4c.8 0 1.2 1.1.5 1.6l-5.2 3.8 1.9 6.1c.2.8-.7 1.4-1.3 1l-5.2-3.7-5.2 3.7c-.7.5-1.6-.2-1.3-1l1.9-6.1-5.2-3.8c-.7-.5-.3-1.6.5-1.6h6.4l2-6.1c.4-.8 1.5-.8 1.8 0z"/></g><path d="M19.2 489.1C8.6 489.1 0 480.5 0 469.9V42c0-10.5 8.5-19 19-19h.2c10.6 0 19.2 8.6 19.2 19.2V470c0 10.5-8.6 19.1-19.2 19.1z" fill="#2e3033"/></svg>