<svg xmlns="http://www.w3.org/2000/svg" viewBox="0 0 512 512"><path d="M503.6 373.9H35.4c-4.7 0-8.4-3.8-8.4-8.4V64.6c0-4.7 3.8-8.4 8.4-8.4h468.1c4.7 0 8.4 3.8 8.4 8.4v300.9c.1 4.6-3.7 8.4-8.3 8.4z" fill="#f5f5f5"/><g fill="#ff4b55"><path d="M503.6 373.9H35.4c-4.7 0-8.4-3.8-8.4-8.4v-41.7h485v41.7c0 4.6-3.8 8.4-8.4 8.4zM35.4 56.1h468.1c4.7 0 8.4 3.8 8.4 8.4v41.7H27V64.6c0-4.7 3.8-8.5 8.4-8.5z"/></g><path fill="#41479b" d="M27 156.5h485v117.1H27z"/><path d="M19.1 488.1C8.6 488.1 0 479.5 0 469V42.9c0-10.5 8.5-19 19-19h.2c10.6 0 19.1 8.6 19.1 19.1v426c-.1 10.5-8.6 19.1-19.2 19.1z" fill="#2e3033"/></svg>