<svg xmlns="http://www.w3.org/2000/svg" viewBox="0 0 512 512"><path d="M219.3 373.85h-184c-4.6 0-8.4-3.7-8.4-8.4v-301c0-4.6 3.7-8.4 8.4-8.4h184v317.8z" fill="#41479b"/><path d="M503.6 372.75H219.3V56.05h284.3c4.6 0 8.4 3.7 8.4 8.4v300c0 4.6-3.7 8.3-8.4 8.3z" fill="#f5f5f5"/><g fill="#ffe15a"><path d="M275.7 213.15c-3.5 0-6.9 1.2-9.7 3.4l-16.7 13.3c-2.7 2.2-6.2 3.4-9.7 3.4H235v-2.7c0-4.1 3.3-7.4 7.4-7.4h7.7v-3.6c0-3.6-2.9-6.5-6.5-6.5H240c0-2.8-2.3-5-5-5-13.9 0-25.2 11.3-25.2 25.2h-9.7c-3.5 0-6.9-1.2-9.7-3.4l-16.7-13.3c-2.7-2.2-6.2-3.4-9.7-3.4H90.8c-2.5 0-3.7 3-2 4.7l25.4 25.4c3.3 3.3 7.7 5.1 12.3 5.1h18l14.8 11.1c3.5 2.6 7.7 4 12.1 4h18.5c3.2 0 6.2-1.5 8.1-4l2-2.7v11.7l-12.4 24.8c-1.2 2.5.6 5.4 3.3 5.4h40.6c2 0 3.7-1.7 3.7-3.7v-45l7 9.4c1.9 2.5 4.9 4 8.1 4h18.5c4.4 0 8.6-1.4 12.1-4l14.8-11.1h18c4.6 0 9-1.8 12.3-5.1l25.4-25.4c1.7-1.7.5-4.7-2-4.7l-73.7.1zM220.9 131.55l2.4 7.2 7.6.1c1 0 1.4 1.3.6 1.8l-6.1 4.5 2.3 7.3c.3.9-.8 1.7-1.6 1.1l-6.2-4.4-6.2 4.4c-.8.6-1.9-.2-1.6-1.1l2.3-7.3-6.1-4.5c-.8-.6-.4-1.8.6-1.8l7.6-.1 2.4-7.2c.4-.9 1.7-.9 2 0zM109.2 177.05l6.8 3.4 5.4-5.3c.7-.7 1.9-.1 1.7.9l-1.1 7.5 6.8 3.5c.9.5.7 1.8-.3 1.9l-7.5 1.2-1.2 7.5c-.2 1-1.5 1.2-1.9.3l-3.5-6.8-7.5 1.1c-1 .1-1.6-1-.9-1.7l5.3-5.4-3.4-6.8c-.5-.8.4-1.7 1.3-1.3zM332.1 178.45l-3.4 6.8 5.3 5.4c.7.7.1 1.9-.9 1.7l-7.5-1.1-3.5 6.8c-.5.9-1.8.7-1.9-.3l-1.2-7.5-7.5-1.2c-1-.2-1.2-1.5-.3-1.9l6.8-3.5-1.1-7.5c-.1-1 1-1.6 1.7-.9l5.4 5.3 6.8-3.4c.8-.5 1.7.4 1.3 1.3zM160.6 143.15l5 5.7 7-2.9c.9-.4 1.8.6 1.3 1.5l-3.9 6.5 4.9 5.8c.6.8-.1 1.9-1 1.7l-7.4-1.7-4 6.5c-.5.8-1.8.5-1.9-.5l-.7-7.6-7.4-1.8c-1-.2-1.1-1.6-.2-1.9l7-3-.5-7.6c-.1-.9 1.1-1.4 1.8-.7zM281.2 143.95l-.5 7.6 7 3c.9.4.8 1.7-.2 1.9l-7.4 1.8-.7 7.6c-.1 1-1.4 1.3-1.9.5l-4-6.5-7.4 1.7c-1 .2-1.6-.9-1-1.7l4.9-5.8-3.9-6.5c-.5-.8.4-1.8 1.3-1.5l7 2.9 5-5.7c.6-.8 1.8-.3 1.8.7zM190.2 134.45l3.8 6.6 7.5-1.4c1-.2 1.6 1 1 1.7l-5.1 5.6 3.7 6.7c.5.9-.4 1.8-1.3 1.4l-6.9-3.1-5.2 5.5c-.7.7-1.9.2-1.8-.8l.8-7.6-6.9-3.2c-.9-.4-.7-1.7.2-1.9l7.4-1.5 1-7.5c0-1.1 1.3-1.4 1.8-.5zM308.3 158.65l-2 7.3 6.3 4.3c.8.6.5 1.8-.5 1.9l-7.6.4-2.1 7.3c-.3.9-1.6 1-1.9.1l-2.7-7.1-7.6.2c-1 0-1.4-1.2-.7-1.8l5.9-4.8-2.6-7.2c-.3-.9.7-1.7 1.5-1.2l6.4 4.2 6-4.7c.8-.6 1.9.2 1.6 1.1zM133.2 157.55l6 4.7 6.4-4.2c.8-.5 1.9.3 1.5 1.2l-2.6 7.2 5.9 4.8c.8.6.3 1.9-.7 1.8l-7.6-.2-2.7 7.1c-.3.9-1.7.9-1.9-.1l-2.1-7.3-7.6-.4c-1 0-1.3-1.3-.5-1.9l6.3-4.3-2-7.3c-.3-.9.8-1.7 1.6-1.1zM251.7 134.75l1 7.5 7.4 1.5c1 .2 1.1 1.5.2 1.9l-6.9 3.2.8 7.6c.1 1-1.1 1.5-1.8.8l-5.2-5.5-6.9 3.1c-.9.4-1.8-.6-1.3-1.4l3.7-6.7-5.1-5.6c-.7-.7 0-1.9 1-1.7l7.5 1.4 3.8-6.6c.3-.7 1.6-.4 1.8.5z"/></g><path d="M95.4 91.95v21.6c0 9-7.3 16.2-16.2 16.2s-16.2-7.3-16.2-16.2v-21.6h32.4m5.4-10.8H57.5c-3 0-5.4 2.4-5.4 5.4v27.1c0 14.9 12.1 27.1 27.1 27.1s27.1-12.1 27.1-27.1v-27.1c-.1-3-2.5-5.4-5.5-5.4z" fill="#ff4b55"/><path d="M95.4 91.95v21.6c0 9-7.3 16.2-16.2 16.2s-16.2-7.3-16.2-16.2v-21.6h32.4" fill="#f5f5f5"/><g fill="#ffe15a"><circle cx="57.5" cy="86.55" r="2.7"/><circle cx="100.7" cy="86.55" r="2.7"/><circle cx="57.5" cy="108.25" r="2.7"/><circle cx="100.7" cy="108.25" r="2.7"/><circle cx="79.1" cy="86.55" r="2.7"/><circle cx="95.3" cy="128.15" r="2.7"/><circle cx="63.2" cy="128.15" r="2.7"/></g><g fill="#41479b"><path d="M82.6 106.85v4.7c0 1.9-1.6 3.5-3.5 3.5s-3.5-1.6-3.5-3.5v-4.7h7M82.6 95.75v4.7c0 1.9-1.6 3.5-3.5 3.5s-3.5-1.6-3.5-3.5v-4.7h7M82.6 118.05v4.7c0 1.9-1.6 3.5-3.5 3.5s-3.5-1.6-3.5-3.5v-4.7h7M92 106.85v4.7c0 1.9-1.6 3.5-3.5 3.5s-3.5-1.6-3.5-3.5v-4.7h7M73.2 106.85v4.7c0 1.9-1.6 3.5-3.5 3.5s-3.5-1.6-3.5-3.5v-4.7h7"/></g><path d="M19.2 489.05c-10.6 0-19.2-8.6-19.2-19.2V41.95c0-10.5 8.5-19 19-19h.2c10.6 0 19.2 8.6 19.2 19.2v427.7c0 10.6-8.6 19.2-19.2 19.2z" fill="#2e3033"/></svg>