<svg xmlns="http://www.w3.org/2000/svg" viewBox="0 0 512.1 512.1"><g fill="#f5f5f5"><path d="M503.5 373.95h-468c-4.7 0-8.5-3.8-8.5-8.5V64.65c0-4.7 3.8-8.5 8.5-8.5h468.1c4.7 0 8.5 3.8 8.5 8.5v300.8c-.1 4.7-3.9 8.5-8.6 8.5z"/><path d="M135.7 56.25h267.5v317.7H135.7z"/></g><g fill="#ff4b55"><path d="M35.4 56.25c-4.6 0-8.3 3.7-8.3 8.3v301c0 4.6 3.7 8.3 8.3 8.3h100.3V56.15l-100.3.1zM503.7 56.25H403.3v317.7h100.3c4.6 0 8.3-3.7 8.3-8.3v-301c.1-4.7-3.6-8.4-8.2-8.4zM320.3 251.75l49.6-28.4-11.4-5.7c-3.2-1.6-5-5.1-4.6-8.6l3.7-27.8-21 6.1c-4.6 1.3-9.4-1.5-10.5-6.2l-2-9.1-19.7 23.1c-2.8 3.2-8 .8-7.3-3.4l8.4-49-12.9 3.6c-3.8 1-7.8-.7-9.6-4.1l-13.6-25.4v-.1.1l-13.4 25.5c-1.9 3.5-5.8 5.1-9.6 4.1l-12.9-3.5 8.4 49c.7 4.2-4.5 6.6-7.3 3.4l-19.7-23.1-2 9.1c-1 4.7-5.8 7.6-10.5 6.2l-21-6.1 3.7 27.8c.4 3.5-1.3 7-4.6 8.6l-11.4 5.7 49.6 28.4c5.1 3 7.4 9.2 5.3 14.7l-4.2 11.4 42.5-3.7c2.4-.2 4.4 1.7 4.3 4l-1.3 45.5h8.3l-1.3-45.5c-.1-2.4 1.9-4.2 4.3-4l42.6 3.7-4.2-11.4c-2.1-5.7.1-11.9 5.3-14.9z"/></g><path d="M19.1 488.15c-10.6 0-19.1-8.6-19.1-19.1V42.85c0-10.5 8.5-18.9 18.9-18.9h.1c10.6 0 19.1 8.6 19.1 19.1v426c.2 10.5-8.4 19.1-19 19.1z" fill="#2e3033"/></svg>