<svg xmlns="http://www.w3.org/2000/svg" viewBox="0 0 512.2 512.2"><path d="M503.6 374H35.4c-4.6 0-8.4-3.8-8.4-8.4v-301c0-4.6 3.8-8.4 8.4-8.4h468.2c4.6 0 8.4 3.8 8.4 8.4v300.9c0 4.7-3.8 8.5-8.4 8.5z" fill="#f5f5f5"/><path d="M512 64.6c0-4.6-3.7-8.4-8.4-8.4h-22.2L269.5 195.1 57.5 56.2H35.4c-4.6 0-8.4 3.7-8.4 8.4v11.6l212 138.9L27 354v11.6c0 4.6 3.7 8.4 8.4 8.4h22.2l212-138.9 212 138.9h22.2c4.6 0 8.4-3.7 8.4-8.4V354L300 215.1 512 76.2V64.6z" fill="#ff4b55"/><path d="M294.7 92.8s-2.6-4-6.6-1.3c0 0 4.6 3.3 1.5 6.8-3.3 3.7-7.8.1-8.1-2.6 1.2-.1 2.2-1.1 2.2-2.3 0-1.3-1-2.3-2.3-2.3s-2.3 1-2.3 2.3c0 1 .6 1.9 1.5 2.2-.6 2.3-6.5 4-8.2.2-1.9-4.2 1.1-7.8 5.2-7.3 0 0-.8-5.2-6.3-3 0 0 2.3-6-1.7-9.9-4 4-1.7 9.9-1.7 9.9-5.5-2.2-6.3 3-6.3 3 4.1-.5 7.1 3.1 5.2 7.3-1.7 3.7-7.6 2-8.2-.2.9-.3 1.5-1.2 1.5-2.2 0-1.3-1-2.3-2.3-2.3s-2.3 1-2.3 2.3c0 1.2 1 2.2 2.2 2.3-.3 2.6-4.8 6.2-8.1 2.6-3.1-3.5 1.5-6.8 1.5-6.8-4-2.6-6.6 1.3-6.6 1.3-1.3-5.3-6.6-4-6.6-4 5.3 6.6 9.2 20.3 9.2 20.3h45.2s3.9-13.7 9.2-20.3c-.2 0-5.5-1.3-6.8 4z" fill="#ffe15a"/><path d="M292.1 109.1c-7.3-2.6-14.9-3.9-22.6-3.9-7.6 0-15.3 1.3-22.6 3.9-11.8 51.9 22.6 65.8 22.6 65.8s34.4-13.9 22.6-65.8z" fill="#ff4b55"/><g fill="#82afff"><path d="M253 127.5s-1.1-.2-2 .6c0 0-.3-1.3 1.4-1.6 1.7-.3.6 1 .6 1zM251.7 125.9s-.9-.7-2-.5c0 0 .3-1.3 2-.8s0 1.3 0 1.3z"/><path d="M252.4 126.6s-1.2-.2-2.2.6c0 0-.4-1.3 1.5-1.6 1.8-.4.7 1 .7 1zM272.9 130s-1.1.1-1.8 1c0 0-.6-1.2 1-1.9 1.5-.7.8.9.8.9zM271.3 128.6s-1-.5-2.1 0c0 0 0-1.3 1.7-1.2 1.8.1.4 1.2.4 1.2z"/><path d="M272.1 129.2s-1.2.1-2 1c0 0-.7-1.2 1.1-1.9 1.7-.7.9.9.9.9zM285.5 130.7s-.4 0-1.2.7c0 0-.5-1.2 1-1.8 1.7-.5.2 1.1.2 1.1zM284.7 129.1s-.9-.5-2-.1c0 0 .1-1.3 1.7-1.1 1.7.2.3 1.2.3 1.2z"/><path d="M285.5 129.7s-1.2 0-2 .9c0 0-.6-1.2 1.2-1.8 1.6-.6.8.9.8.9zM251.2 119.3s-1-.7-2.3-.3c0 0 .2-1.4 2.1-1 1.8.4.2 1.3.2 1.3zM251.1 116.9s-.6-1-2-1.1c0 0 .9-1.4 2.5-.3 1.5 1-.5 1.4-.5 1.4z"/><path d="M251.1 118.2s-1.1-.8-2.4-.5c0 0 .3-1.5 2.3-1 1.9.6.1 1.5.1 1.5z"/></g><path d="M282.4 122.7c1.7 0 3.8-.6 4.2-2.5.4-2.1-1.4-3.1-3.8-3-1.7.1-6.2 1.1-9.3 1-3.1-.1-3.2-3.2 1.5-2.9 7 .5 8.1-.4 8.1-.4-3.8.7-5.3-.6-9.3-.6s-4.8 2.8-3.2 4.3c1.8 1.7 8.4.6 10.1.2 1.7-.4 4-.3 4.1.9.2 1.1-2.8 1-4.8 1-3.3-.1-8.1.8-12.4 1-3.6.2-4.1-.8-4.9-1.8.2-.3.3-.7.3-1.1 0-.2 0-.4-.1-.6.3-.3.6-.8.7-1.5 0 0-.9-.2-1.6.2-.6-.4-1.3-.7-2.1-.7s-1.5.3-2.1.7c-.7-.3-1.6-.2-1.6-.2.1.8.4 1.2.7 1.5-.1.2-.1.4-.1.6 0 .7.4 1.4.9 1.9.3.2.5.5.6.9l.1.5c0 .2.2.4.4.5-2.9-.3-4.3-2.1-5-3.2-.8-1.2-1.3-3.7-2.5-4l-.7 3.9s1.6 3.6 4.4 5.1c3.3 1.7 3.9 1.7 4.9 2.2.1.6-2 .9-4.2.5-1.5-.3-3.6-2.5-4.7-2.4l1.4 3c3.7 2.3 6.9 2.4 9.7 1.9 2-.3 2.7-1.9 2.8-2.6.8-.1 1.7-.3 4.4-1 1.1-.3 2.4-.4 3.7-.5.4.8 1.2 1.9 4.1 2 0 0 .7 1.1-1.7.9-2.4-.2-3-1-4.4-.8l1.2 2.9s3-1 6.7-.7c0 0 .7.2 1.1-.4.4-.6.2-.9-.2-1.5-.2-.3-.3-1.3-.4-2.1 1.4.3 5.5-.5 7-.4 1.5.1 1.7 1.9 1.4 2.5-.3.6-3.5.1-3.5.1l1.1 2.9s.3-.2 1.1-.9c.7-.6 3.3-.4 3.3-.9v-5.4c0-.3-.2-.5-.5-.4-5.7.4-6.9-.6-6.9-.6z" fill="#ffe15a"/><path d="M258.8 120.8c.1.2.2.4.2.6l.1.5c0 .2.2.3.3.3h1.4c.2 0 .3-.1.3-.3l.1-.5c0-.2.1-.4.2-.6h-2.6z" fill="#ff4b55"/><g fill="#82afff"><path d="M260.1 121.8c-.3 0-.6 0-.5.5l.1 1.9c0 .3.2.5.4.5s.4-.2.4-.5l.1-1.9c0-.5-.2-.5-.5-.5zM256 146.1s-.9-.2-1.7.4c0 0-.3-1.1 1.1-1.3 1.4-.2.6.9.6.9zM254.9 144.8s-.7-.6-1.7-.4c0 0 .3-1.1 1.6-.6 1.4.4.1 1 .1 1z"/><path d="M255.5 145.3s-1-.2-1.8.4c0 0-.3-1.1 1.2-1.3s.6.9.6.9zM272.3 148.1s-.9 0-1.5.8c0 0-.5-1 .8-1.5 1.2-.5.7.7.7.7zM270.9 147s-.8-.4-1.7 0c0 0 0-1.1 1.4-1 1.4.1.3 1 .3 1z"/><path d="M271.6 147.5s-1 .1-1.7.9c0 0-.5-1 .9-1.6 1.4-.6.8.7.8.7zM282.5 148.7s-.3 0-.9.6c0 0-.4-1 .8-1.4 1.3-.5.1.8.1.8zM281.9 147.4s-.8-.4-1.6-.1c0 0 .1-1.1 1.4-.9 1.3.2.2 1 .2 1z"/><path d="M282.5 147.9s-.9 0-1.6.7c0 0-.5-1 .9-1.5 1.4-.4.7.8.7.8zM254.5 139.4s-.8-.5-1.8-.3c0 0 .2-1.2 1.7-.8 1.4.4.1 1.1.1 1.1zM254.4 137.4s-.5-.8-1.6-.9c0 0 .7-1.1 2-.3 1.3.9-.4 1.2-.4 1.2z"/><path d="M254.4 138.5s-.9-.6-2-.4c0 0 .3-1.2 1.9-.8 1.6.5.1 1.2.1 1.2z"/></g><path d="M279.9 142.2c1.4 0 3.1-.5 3.4-2 .3-1.7-1.1-2.6-3.1-2.5-1.4.1-5 .9-7.6.8-2.6-.1-2.6-2.6 1.2-2.3 5.7.4 6.6-.3 6.6-.3-3.1.6-4.3-.5-7.6-.5s-3.9 2.3-2.6 3.5c1.5 1.4 6.9.5 8.3.2s3.2-.3 3.4.7c.1.9-2.3.9-3.9.8-2.7-.1-6.6.6-10.1.8-2.9.1-3.3-.7-4-1.5.2-.3.2-.6.2-.9 0-.2 0-.3-.1-.5.2-.2.4-.6.6-1.2 0 0-.7-.1-1.3.2-.4-.4-1-.6-1.7-.6s-1.3.2-1.7.6c-.6-.3-1.3-.2-1.3-.2.1.6.3 1 .6 1.2 0 .2-.1.3-.1.5 0 .6.3 1.2.8 1.5.2.2.4.4.5.7l.1.4c0 .2.2.3.3.4-2.4-.2-3.5-1.7-4.1-2.6-.7-.9-1.1-3-2.1-3.3l-.6 3.1s1.3 2.9 3.6 4.1c2.7 1.3 3.2 1.4 4 1.8.1.5-1.6.7-3.4.4-1.2-.3-2.9-2-3.9-1.9l1.1 2.5c3 1.9 5.6 1.9 7.9 1.5 1.6-.3 2.2-1.6 2.3-2.1.6-.1 1.4-.3 3.6-.8.9-.2 2-.3 3-.4.3.7 1 1.5 3.3 1.6 0 0 .6.9-1.4.7s-2.4-.8-3.5-.7l1 2.4s2.5-.8 5.5-.5c0 0 .6.2.9-.3s.2-.8-.1-1.2c-.2-.2-.3-1-.3-1.7 1.1.3 4.5-.4 5.7-.3 1.2.1 1.4 1.5 1.1 2s-2.9.1-2.9.1l.9 2.4s.3-.1.9-.7c.5-.5 2.7-.3 2.7-.7V143c0-.2-.2-.4-.4-.4-4.7.4-5.7-.4-5.7-.4z" fill="#ffe15a"/><path d="M260.7 140.6c.1.1.1.3.2.5l.1.4c0 .1.1.2.3.2h1.1c.1 0 .2-.1.3-.2l.1-.4c0-.2.1-.3.2-.5h-2.3z" fill="#ff4b55"/><g fill="#82afff"><path d="M261.8 141.4c-.3 0-.5 0-.4.4l.1 1.5c0 .2.2.4.3.4.2 0 .3-.2.3-.4l.1-1.5c0-.3-.2-.4-.4-.4zM259.3 160.9s-.7-.1-1.2.3c0 0-.2-.8.8-1 1.1-.2.4.7.4.7zM258.5 159.9s-.5-.4-1.3-.3c0 0 .2-.8 1.2-.5 1.1.3.1.8.1.8z"/><path d="M259 160.3s-.7-.1-1.4.3c0 0-.2-.8.9-1 1.2-.2.5.7.5.7zM271.5 162.4s-.7 0-1.1.6c0 0-.4-.7.6-1.2.9-.4.5.6.5.6zM270.5 161.5s-.6-.3-1.3 0c0 0 0-.8 1.1-.7 1.1.1.2.7.2.7z"/><path d="M271 161.9s-.7 0-1.2.6c0 0-.4-.7.7-1.2 1-.4.5.6.5.6zM279.2 162.8s-.3 0-.7.4c0 0-.3-.7.6-1.1 1-.3.1.7.1.7zM278.7 161.8s-.6-.3-1.2-.1c0 0 .1-.8 1.1-.7 1 .2.1.8.1.8z"/><path d="M279.2 162.2s-.7 0-1.2.5c0 0-.3-.7.7-1.1 1-.3.5.6.5.6zM258.2 155.9s-.6-.4-1.4-.2c0 0 .1-.9 1.3-.6 1.1.2.1.8.1.8zM258.2 154.4s-.4-.6-1.2-.7c0 0 .5-.8 1.5-.2.9.6-.3.9-.3.9z"/><path d="M258.2 155.2s-.6-.5-1.5-.3c0 0 .2-.9 1.4-.6 1.2.3.1.9.1.9z"/></g><path d="M277.3 157.9c1.1 0 2.3-.4 2.5-1.5.2-1.3-.9-1.9-2.3-1.9-1.1 0-3.8.7-5.7.6-1.9-.1-2-2 .9-1.8 4.3.3 5-.3 5-.3-2.3.4-3.2-.4-5.7-.4-2.4 0-2.9 1.7-1.9 2.6 1.1 1 5.1.3 6.2.1s2.4-.2 2.5.5-1.7.6-3 .6c-2-.1-4.9.5-7.6.6-2.2.1-2.5-.5-3-1.1.1-.2.2-.4.2-.7 0-.1 0-.2-.1-.4.2-.2.3-.5.4-.9 0 0-.6-.1-1 .1-.3-.3-.8-.4-1.3-.4s-.9.2-1.3.4c-.4-.2-1-.1-1-.1.1.5.3.8.4.9 0 .1-.1.2-.1.4 0 .5.2.9.6 1.2.2.1.3.3.3.5l.1.3c0 .1.1.2.2.3-1.8-.2-2.6-1.3-3.1-1.9-.5-.7-.8-2.3-1.5-2.4l-.4 2.4s.9 2.2 2.7 3.1c2 1 2.4 1 3 1.3.1.3-1.2.6-2.6.3-.9-.2-2.2-1.5-2.9-1.4l.8 1.8c2.2 1.4 4.2 1.5 5.9 1.2 1.2-.2 1.6-1.2 1.7-1.6.5-.1 1-.2 2.7-.6.7-.2 1.5-.3 2.3-.3.2.5.7 1.2 2.5 1.2 0 0 .4.7-1 .5s-1.8-.6-2.7-.5l.8 1.8s1.8-.6 4.1-.4c0 0 .4.1.7-.3.2-.4.1-.6-.1-.9-.1-.2-.2-.8-.2-1.3.8.2 3.4-.3 4.3-.2s1.1 1.2.8 1.5c-.2.4-2.1.1-2.1.1l.6 1.8s.2-.1.7-.6c.4-.4 2-.2 2-.5v-3.3c0-.2-.1-.3-.3-.3-3.3.5-4-.1-4-.1z" fill="#ffe15a"/><path d="M262.9 156.8c.1.1.1.2.1.3l.1.3c0 .1.1.2.2.2h.8c.1 0 .2-.1.2-.2l.1-.3c0-.1.1-.2.1-.3h-1.6z" fill="#ff4b55"/><path d="M263.7 157.4c-.2 0-.3 0-.3.3l.1 1.1c0 .2.1.3.2.3s.2-.1.2-.3l.1-1.1c0-.3-.1-.3-.3-.3z" fill="#82afff"/><path d="M19.2 488.8C8.6 488.8 0 480.2 0 469.7V42.4c0-10.5 8.5-19 19-19h.2c10.6 0 19.2 8.6 19.2 19.2v427.1c-.1 10.5-8.6 19.1-19.2 19.1z" fill="#2e3033"/></svg>