<svg xmlns="http://www.w3.org/2000/svg" viewBox="0 0 512 512"><path d="M512 162H27V64.6c0-4.7 3.8-8.4 8.4-8.4h468.1c4.7 0 8.4 3.8 8.4 8.4V162h.1z" fill="#fab446"/><path d="M503.6 373.9H35.4c-4.7 0-8.4-3.8-8.4-8.4V268h485v97.5c0 4.6-3.8 8.4-8.4 8.4z" fill="#73af00"/><path fill="#f5f5f5" d="M27 162h485v105.9H27z"/><g fill="#41479b"><path d="M269.5 259.9c-24.8 0-44.9-20.2-44.9-44.9s20.2-44.9 44.9-44.9c24.8 0 44.9 20.2 44.9 44.9 0 24.8-20.1 44.9-44.9 44.9zm0-81.5c-20.2 0-36.6 16.4-36.6 36.6s16.4 36.6 36.6 36.6 36.6-16.4 36.6-36.6-16.4-36.6-36.6-36.6z"/><path d="M274.5 214.2c.5 3.4-2.4 6.4-5.8 5.8-2.1-.3-3.9-2.1-4.2-4.2-.5-3.4 2.4-6.4 5.8-5.8 2.2.3 3.9 2 4.2 4.2z"/><path d="M269.5 215.8l-12.9 1.3-27.9-1.3v-1.6l27.9-1.3 12.9 1.3zM269.5 215.8l12.9 1.3 27.9-1.3v-1.6l-27.9-1.3-12.9 1.3z"/><path d="M268.7 215l-1.3-12.9 1.3-27.9h1.6l1.3 27.9-1.3 12.9zM268.7 215l-1.3 12.9 1.3 27.9h1.6l1.3-27.9-1.3-12.9z"/><path d="M269 215.5l-10.1-8.2-18.8-20.6 1.1-1.1 20.6 18.8 8.2 10.1zM269 215.5l8.2 10.1 20.6 18.8 1.1-1.1-18.8-20.6-10.1-8.2z"/><path d="M269 214.5l8.2-10.1 20.6-18.8 1.1 1.1-18.8 20.6-10.1 8.2zM269 214.5l-10.1 8.2-18.8 20.6 1.1 1.1 20.6-18.8 8.2-10.1z"/><path d="M269.8 215.7l-11.5 6.2-26.2 9.4-.6-1.4 25.2-11.9 12.5-3.7z"/><path d="M269.8 215.7l12.5-3.7 25.2-11.9-.6-1.4-26.2 9.4-11.5 6.2z"/><path d="M268.8 215.3l-6.2-11.5-9.4-26.2 1.4-.6 11.9 25.2 3.7 12.5z"/><path d="M268.8 215.3l3.7 12.5 11.9 25.2 1.4-.6-9.4-26.2-6.2-11.5z"/><path d="M269.2 215.7l-12.5-3.7-25.2-11.9.6-1.4 26.2 9.4 11.5 6.2z"/><path d="M269.2 215.7l11.5 6.2 26.2 9.4.6-1.4-25.2-11.9-12.5-3.7z"/><path d="M268.8 214.7l3.7-12.5 11.9-25.2 1.4.6-9.4 26.2-6.2 11.5z"/><path d="M268.8 214.7l-6.2 11.5-9.4 26.2 1.4.6 11.9-25.2 3.7-12.5z"/></g><path d="M276.2 213.4c1.1 5-3.3 9.4-8.3 8.3-2.5-.6-4.6-2.6-5.1-5.1-1.1-5 3.3-9.4 8.3-8.3 2.5.6 4.5 2.6 5.1 5.1z" fill="#f5f5f5"/><path d="M273.6 214.3c.4 2.8-1.9 5.1-4.7 4.7-1.7-.3-3.2-1.7-3.4-3.4-.4-2.8 1.9-5.1 4.7-4.7 1.7.3 3.1 1.7 3.4 3.4z" fill="#41479b"/><path d="M19.1 488.1C8.6 488.1 0 479.5 0 469V42.9c0-10.5 8.5-19 19-19h.2c10.6 0 19.1 8.6 19.1 19.1v426c-.1 10.5-8.6 19.1-19.2 19.1z" fill="#2e3033"/></svg>