<svg xmlns="http://www.w3.org/2000/svg" viewBox="0 0 512.1 512.1"><path d="M512 162H27V64.5c0-4.6 3.7-8.4 8.4-8.4h468.3c4.6 0 8.4 3.7 8.4 8.4V162h-.1z" fill="#73af00"/><path d="M503.6 373.9H35.4c-4.6 0-8.4-3.7-8.4-8.4V268h485v97.6c0 4.5-3.7 8.3-8.4 8.3z" fill="#ff4b55"/><path fill="#f5f5f5" d="M27 162h485v105.9H27z"/><path d="M271.6 190.8l5.2 15.6 16.5.1c2.1 0 3 2.7 1.3 4l-13.3 9.8 5 15.7c.6 2-1.7 3.7-3.4 2.5l-13.4-9.6-13.4 9.6c-1.7 1.2-4.1-.4-3.4-2.5l5-15.7-13.3-9.8c-1.7-1.3-.8-4 1.3-4l16.5-.1 5.2-15.6c.7-2 3.5-2 4.2 0z" fill="#464655"/><g fill="#f5f5f5"><path d="M156.3 99.3c.7 4.2 3.2 5.5 5.4 5.4 2.6-.2 4.9-2.6 4.9-5.1V85.1c0-.7.6-1.3 1.3-1.3s1.3.6 1.3 1.3v14.5c0 1.7.9 3.4 2.3 4.3.9.6 1.9.9 2.9.9.7 0 1.3-.1 2-.4l1.3-.5c.1 12.1-.6 22.8-.6 23-.1 1.4 1 2.7 2.4 2.8h.2c1.4 0 2.5-1.1 2.6-2.4.1-.9.9-12.5.6-25.4l.8-.3c.7-.3 1.5-.2 2.1.1 2.9 1.4 6.4.9 8.7-1.4l.5-.5c2.1-2.1 2.9-5.2 1.9-8.1l-2.2-6.7c1.2.4 2.5-.2 3.1-1.3.6-1.3.1-2.9-1.2-3.5l-5.3-2.6c-1-.5-2.1-.3-2.9.4-.8.7-1.1 1.8-.8 2.8l4.2 12.7c.3.9.1 2-.6 2.7l-.5.5c-.7.7-1.7.9-2.6.4-1.7-.8-3.6-1-5.5-.5-.4-8.4-1.3-16.8-3.2-22.6-.5-1.4-1.9-2.1-3.3-1.7-1.4.5-2.1 1.9-1.7 3.3 1.9 5.7 2.7 14.3 3 22.9l-3.1 1.3V85.1c0-3.6-2.9-6.6-6.6-6.6s-6.6 2.9-6.6 6.6v12.7l-2.7-13.2c-.3-1.4-1.7-2.4-3.1-2.1-1.4.3-2.3 1.7-2.1 3.1l3.1 13.7zM161.3 77.2c1.4 0 2.6-1.2 2.6-2.6V72c0-1.5-1.2-2.6-2.6-2.6s-2.6 1.2-2.6 2.6v2.6c0 1.5 1.2 2.6 2.6 2.6zM187.6 74.6h2.6c1.4 0 2.6-1.2 2.6-2.6 0-1.5-1.2-2.6-2.6-2.6h-2.6c-1.4 0-2.6 1.2-2.6 2.6s1.1 2.6 2.6 2.6z"/><path d="M170.5 109.1l-13.1 7.9c-1.2.7-1.6 2.4-.9 3.6.5.8 1.4 1.3 2.3 1.3.5 0 .9-.1 1.3-.4l13.1-7.9c1.2-.7 1.6-2.4.9-3.6-.8-1.2-2.4-1.6-3.6-.9z"/><path d="M205.9 113.8c.3.8.7 1.7 1.3 2.4 1.1 1.3 2.7 1.9 4.5 1.7 2.6-.2 4.3-1.4 5.5-2.9l.6.3c1.4.7 3.1.7 4.6-.1 4-2 4.8-6.8 4.7-9.2-.1-1.4-1.3-2.5-2.7-2.5-1.4.1-2.6 1.3-2.5 2.7 0 0 .1 3.1-1.8 4.3-.3-.4-.7-1.4-.8-2.2-.2-1.4-1.5-2.3-2.8-2.2-1.4.1-2.4 1.3-2.4 2.6 0 .4-.1 3.8-2.7 4-.3-.4-.3-2.2 0-3.4.3-1.1-.2-2.2-1.1-2.8-.9-.6-2.1-.6-3 0l-1.5 1c-.7-15.2-2.3-33-2.3-33.2-.1-1.4-1.4-2.5-2.9-2.4-1.4.1-2.5 1.4-2.4 2.9 0 .2 1.9 20.8 2.4 36.4l-.4.4c-1-2.6-3.1-4.3-5.7-4.5-3.7-.3-7.8 2.2-9.2 5.9-1.3 3.1-.5 6.2 2 7.8 1.8 1.2 4.5 1.5 7.8.4-.8 2.9-2.3 5.8-4.3 8.1-1.7 2-4.7 4.4-8.4 4.3-2.2-.1-3.8-.8-5.1-2.2-3-3.3-2.8-9.3-2.8-9.4.1-1.4-1-2.7-2.5-2.8-1.5-.2-2.7 1-2.8 2.5 0 .3-.4 8.2 4.1 13.2 2.2 2.4 5.2 3.8 8.8 3.9h.5c4.4 0 8.7-2.2 12-6.1 3.2-3.7 5.4-8.8 6-13.5 0 9-5.4 19.1-12.6 23.6-3 1.9-7.8 3.6-13.1 1-6.6-3.3-5.8-10.8-5.8-11.1.2-1.4-.8-2.8-2.3-2.9-1.4-.2-2.8.8-2.9 2.3-.1.5-1.3 11.5 8.7 16.5 2.6 1.3 5.2 1.9 7.9 1.9 3.5 0 7-1 10.3-3.1 8.7-5.4 15.1-17.2 15.1-28.1.1-1.7 0-3.6 0-5.5zm-15.8 2.7c-.5-.3-.1-1.3 0-1.5.6-1.4 2.3-2.6 3.7-2.6h.2c.3 0 1.2.1 1.6 2.1 0 .2.1.4.1.6-3 1.8-5 1.8-5.6 1.4zM162.7 140.6c-1.2-.7-2.9-.3-3.6.9-.1.2-.3.4-.4.6 0-.1-.1-.1-.1-.2-1.1-2.9-.3-7.4.1-8.9.4-1.4-.5-2.8-1.9-3.2s-2.8.5-3.2 1.9c-.2.7-1.8 7.1.1 12.1 1.2 3.2 3.1 4 4.4 4.1h.4c2.8 0 4.7-2.8 5.2-3.8.6-1.2.2-2.8-1-3.5z"/><path d="M211.1 93c.6 0 1.1-.2 1.6-.6L226 82c.2-.1.3-.3.4-.5 1.9-1.1 3.2-3.2 3.2-5.6 0-3.6-2.9-6.6-6.6-6.6s-6.6 2.9-6.6 6.6c0 2 .9 3.8 2.4 5l-9.4 7.4c-1.1.9-1.3 2.5-.4 3.7.6.6 1.3 1 2.1 1zM223 74.6c.7 0 1.3.6 1.3 1.3 0 .7-.6 1.3-1.3 1.3s-1.3-.6-1.3-1.3.6-1.3 1.3-1.3zM219.9 90.5c-1.4-.5-2.9.3-3.3 1.7-.3.8-1.6 5.2 1 7.7 1 1 2.3 1.5 3.9 1.5 1.1 0 2.3-.2 3.6-.7 1.4-.5 2.1-1.9 1.7-3.3-.5-1.4-1.9-2.1-3.3-1.7-1.5.5-2.1.4-2.1.5-.2-.4-.1-1.6.2-2.4.4-1.4-.3-2.8-1.7-3.3zM250 79.6c.2.1.5.1.7.1 1.1 0 2.2-.7 2.5-1.9l1.5-5.3c.4-1.4-.4-2.9-1.8-3.3-1.4-.4-2.8.4-3.3 1.8l-1.5 5.3c-.3 1.5.5 2.9 1.9 3.3zM234.7 79.3c.4.2.9.4 1.3.4.9 0 1.8-.5 2.3-1.3.7-1.3.3-2.9-.9-3.6-.5-.3-.5-1.2-.4-1.3.1-.7.5-1.5 1.2-1.8 1.4-.4 2.2-1.9 1.7-3.3-.4-1.4-1.9-2.2-3.3-1.7-2.6.8-4.5 3.2-4.9 6.2-.3 2.7.8 5.2 3 6.4zM213.8 121.9c-1.4 0-2.6 1.2-2.6 2.6 0 1.3.9 2.3 2.1 2.6.1.2.5.9.5 2.7 0 1.5 1.2 2.6 2.6 2.6 1.4 0 2.6-1.2 2.6-2.6.1-7.8-4.9-7.9-5.2-7.9zM258.4 111c.3.1.7.1 1 .1 2.1 0 4.1-1 6.2-3.1 1-1 1-2.7 0-3.7s-2.7-1-3.7 0c-1.6 1.6-2.4 1.6-2.6 1.6-.5-.1-1-.7-1.1-.9-.7-1.3-2.2-1.8-3.5-1.1-1.3.6-1.8 2.2-1.2 3.5.2.2 1.7 3.1 4.9 3.6zM303 92.5v-.1c-.5-1.4-2-2.1-3.3-1.6-1.4.5-2.1 1.9-1.7 3.3.2.6 1.4 3.7 4.3 4.1h.6c1.8 0 3.5-1.2 5.1-3.5.8-1.2.5-2.8-.7-3.6-1.2-.8-2.8-.5-3.6.7-.4.3-.5.6-.7.7z"/><path d="M297.9 140.2c0-11.2-.5-21.7-1.2-30.9 3.7 6.5 7.1 13 9.2 18.7.4 1.1 1.4 1.7 2.5 1.7.3 0 .6-.1.9-.2 1.4-.5 2-2 1.5-3.4-3.3-8.9-9.3-19.4-15.2-28.8-1.4-14.1-3-23.1-3.1-23.3-.3-1.4-1.6-2.4-3.1-2.1-1.4.3-2.4 1.6-2.1 3.1 0 .1.8 4.7 1.8 12.5-2-3-3.9-5.7-5.5-7.9h.1c1.4.5 2.9-.3 3.3-1.7.5-1.4-.3-2.9-1.7-3.3l-7.9-2.6c-1.1-.4-2.3 0-3 1-.2.2-.3.5-.4.8-1.6-1.2-3.6-2.1-5.5-1.3-1.1.5-2.5 1.7-2.5 4.7 0 2.3.9 4.8 1.8 7.4 1.5 4.4 2.5 7.6.9 9.1-.9.8-1.8 1.2-2.7.9-1.6-.4-3.2-2.6-4.3-5.8 0-.1-.1-.2-.2-.4.6-4.1.3-9-.8-14.5-.3-1.4-1.7-2.3-3.1-2.1-1.4.3-2.3 1.7-2.1 3.1 1.7 8.6 1.2 15.6-1.4 18.7-1 1.2-2.2 1.8-3.9 1.8-.5 0-.9-.2-1.3-.6-2.1-2.4-2.1-10.1-1.4-14.8.1-.8-.1-1.5-.6-2.1s-1.2-.9-2-.9c-4.5 0-6.2 5.1-7.7 9.7-.7 2-1.9 5.7-2.8 6.1-1.6 0-2.6-4.7-2.6-7.9 0-1.4-1.2-2.6-2.6-2.6-1.4 0-2.6 1.2-2.6 2.6 0 6.1 2.1 13.1 7.9 13.1 4.3 0 6.1-4.7 7.5-9.1.3 3.5 1 7.1 3 9.3 1.4 1.6 3.2 2.4 5.2 2.4 3.2 0 6-1.3 8-3.7.4-.4.7-.9 1-1.4 1.5 2.2 3.4 3.6 5.5 4.1.6.2 1.2.2 1.9.2 2 0 4-.8 5.7-2.4.4-.3.6-.7.9-1.1.6.2 1.3.3 1.9.3 2.1 0 4.2-.9 5.4-1.7 1.2-.8 1.6-2.4.8-3.6-.8-1.2-2.4-1.6-3.6-.8 0 0-1.8 1-3 .8 0-2.9-1-5.9-2-8.6-.5-1.5-1.1-3.1-1.4-4.4l.6.6c1 1 2.7 1 3.7 0 .2-.2.3-.4.4-.6 2.7 3.7 8.3 11.6 14.1 20.7 1.1 11.2 2.1 25.4 2.1 41 0 1.5 1.2 2.6 2.6 2.6 1.9.3 3.1-.9 3.1-2.4zM300.5 82.5c0 1.5 1.2 2.6 2.6 2.6s2.6-1.2 2.6-2.6c0-3.1-2.4-8.1-2.9-9-.6-1.3-2.2-1.8-3.5-1.2-1.3.6-1.8 2.2-1.2 3.5 1 1.9 2.4 5.3 2.4 6.7zM288.5 140.5c-1.3-.7-2.9-.1-3.5 1.2-.3.6-.7 1.2-1.1 1.6-.1-1 .2-3.1.7-4.9.4-1.2-.1-2.4-1.2-3-1-.6-2.4-.5-3.2.4L275 141c-1 1-1 2.7 0 3.7s2.7 1 3.7 0l.1-.1c.2 1.1.7 2 1.4 2.8 1 1 2.2 1.5 3.4 1.5.2 0 .5 0 .7-.1 3-.5 4.8-3.8 5.3-4.8.8-1.3.2-2.8-1.1-3.5z"/><path d="M287.5 119.4H269c.2-.7.3-1.3.5-1.9 7.4-1.5 11.8-3.9 13.1-7.1.4-1.1.9-3.3-1-5.9-1.7-2.3-4.1-3.3-6.6-2.8-3.7.8-7.1 4.8-9.4 11.2-7.4 1.3-12.2 3.9-15.2 6.6-1.1-10.8-5.2-17.1-5.4-17.5-.8-1.2-2.4-1.5-3.6-.7-1.2.8-1.5 2.4-.7 3.6 0 .1 4.8 7.4 4.8 19.5 0 12-9.6 21-15.8 21-2.9 0-4.2-3.5-4.8-6.5 6.1-4.3 11.4-9.2 12.6-13.9 1.6-6.4-.4-11.1-1.7-14.2-.1-.1-.1-.3-.2-.5l.2.2c1 1 2.7 1 3.7 0s1-2.7 0-3.7c-1.5-1.5-4.5-3.9-7.2-2.8-1.1.5-2.5 1.7-2.5 4.7 0 1.4.6 2.7 1.2 4.2 1.2 2.8 2.7 6.2 1.5 10.9-.7 2.8-4.1 6.1-8.6 9.5-.5-.6-1.2-1-2-1-1.4 0-2.6 1.2-2.6 2.6 0 .5 0 1 .1 1.5-5.6 3.6-12 7-16.9 9.2-1.3.6-1.9 2.2-1.3 3.5.4 1 1.4 1.5 2.4 1.5.4 0 .7-.1 1.1-.2 1.5-.7 8.5-3.9 15.7-8.4 1.3 4.5 4.1 8.6 9.5 8.6 6.3 0 13.4-5.1 17.6-12.8.5.9 1.1 1.7 1.8 2.5 6.6 7.6 19.5 7.7 20.1 7.7 1.4 0 2.6-1.1 2.6-2.5.1-1.4-1-2.6-2.4-2.7 0 0-2.1-.2-3.3-1.6-.7-.8-1-1.9-.9-3.4.3-3.2 10.7-5.7 19.9-5.8 1.1 0 2.1-.7 2.4-1.7l2.6-7.4c.3-.8.2-1.7-.3-2.4-.8-.7-1.6-1.1-2.5-1.1zM276 106.9h.2c.3 0 .6.1 1.2.8.1.1.4.6.3.8-.3.7-2.1 2-5.9 3.1 1.7-3.3 3.3-4.6 4.2-4.7zm-15.9 34.5c-2.7-.9-5.4-2.2-7.3-4.4-2.1-2.4-2.8-5.4-2.3-9.2.1-.2.2-.6.5-1.1 3.7-.3 13.6 1.1 14.3 3.9-3 1.6-5.3 3.7-5.5 6.8-.1 1.6 0 2.9.3 4zM316.1 81.7l-2.6-7.9c-.4-1.3-1.7-2-3-1.7s-2.2 1.5-2.1 2.8c1.8 18.1 5.2 53.4 5.2 57.5 0 3.6-6.5 10.8-16.9 16-1.3.6-1.8 2.2-1.2 3.5.5.9 1.4 1.5 2.4 1.5.4 0 .8-.1 1.2-.3 9.5-4.8 19.8-13.3 19.8-20.7 0-3.9-2.7-31.8-4.2-47.5 1.2-.5 1.8-1.9 1.4-3.2zM338 105.3c.5.5 1.2.8 1.9.8.4 0 .9-.1 1.3-.3 1-.6 1.5-1.8 1.2-2.9-.5-1.8-.6-4.2-.4-5.1 1.3 0 2.5-.9 2.7-2.3s-.8-2.8-2.2-3c-1.7-.2-3.3.3-4.3 1.5-.7.8-1.1 1.8-1.3 2.8l-3-3c-1-1-2.7-1-3.7 0s-1 2.7 0 3.7l7.8 7.8zM343.9 108.1l-9.8 7.1c-1.2.8-1.4 2.5-.6 3.7.5.7 1.3 1.1 2.1 1.1.5 0 1.1-.2 1.5-.5l9.8-7.1c1.2-.8 1.4-2.5.6-3.7s-2.4-1.5-3.6-.6zM343 118c-.8 1.1-.7 2.6.2 3.5.1.2.6 1.2.5 3.8-.1 1.5 1.1 2.7 2.5 2.7h.1c1.4 0 2.6-1.1 2.6-2.5.2-5.4-1.6-7.3-2.3-7.9-1-1-2.7-.8-3.6.4z"/><path d="M366 137.3c1.4 0 2.6-1.2 2.6-2.6 0-3.9-.2-8.2-.5-12.7 2.6 4.3 4.8 8.2 6.2 11.4.4 1 1.4 1.6 2.4 1.6.3 0 .7-.1 1-.2 1.3-.6 1.9-2.1 1.4-3.4-2.4-5.6-6.9-13-12-20.7-1-9.6-2.4-19.1-3.4-25.9.6.1 1.1-.1 1.6-.4.8-.5 1.2-1.5 1.2-2.4.1.3.1.5.3.8 0 0 1.7 2.8 1 6.4-.3 1.4.6 2.8 2 3.1.2 0 .4.1.5.1 1.2 0 2.3-.9 2.6-2.1 1.2-5.7-1.6-10.1-1.7-10.3-.8-1.2-2.4-1.6-3.6-.8-.8.5-1.2 1.5-1.2 2.4-.1-.3-.1-.5-.3-.8l-4.4-6.9c-.7-1.1-2-1.5-3.2-1s-1.8 1.7-1.6 2.9c0 .2 2 11.7 3.8 25.6-2-2.8-4-5.6-6-8.3-.3-4-.6-7.6-.9-10.7.1 0 .3-.1.4-.2 1.3-.6 1.8-2.2 1.2-3.5l-2.6-5.3c-.6-1.1-1.9-1.7-3.1-1.3-1.2.4-2 1.5-1.9 2.8.3 3.1.6 6.6 1 10.2-1.7-2.2-3.2-4.2-4.5-5.9.3-.2.5-.5.6-.8.6-1.3.1-2.9-1.2-3.5l-5.3-2.6c-1.1-.5-2.4-.3-3.2.7-.8 1-.8 2.3 0 3.3.1.2 6.6 8.3 14.3 18.7 1.3 17.3 2.2 35.4 1 39.2-.2.7-.6 1.5-1 1.5-1.6.2-5.4-3.3-7.3-7.1-1.1-2.2-2.7-2.4-3.5-2.4-2.8.2-3.9 3.3-5.9 8.9-1.4 4-3.2 9.1-5.2 11.1-1.1-1.3-2.5-5.8-3.3-10.3.4 1 1.3 1.7 2.4 1.7 1.4 0 2.6-1.2 2.6-2.6 0-3.9-2.7-33.7-4.3-50.1 1.3-.5 1.9-1.9 1.5-3.3l-2.6-7.9c-.4-1.3-1.7-2-3-1.7s-2.2 1.5-2.1 2.8c1.8 18.7 5.1 54.9 5.2 59.9v-.1c-.2-1.4-1.5-2.4-3-2.2-1.4.2-2.4 1.5-2.2 3 .8 5.4 2.7 14.6 7.2 16.1.4.1.8.2 1.4.2 1 0 2.3-.4 3.7-1.7 2.9-2.9 4.8-8.3 6.5-13.1.4-1.1.8-2.4 1.3-3.5 2.4 3.5 6.6 7.9 10.9 7.6 1.5-.1 4.2-.9 5.6-5.1 1.4-4.2.8-18.8-.1-32.8 2.2 3.1 4.4 6.3 6.5 9.4.8 7.9 1.4 15.7 1.4 22.2.1 1.4 1.3 2.6 2.8 2.6z"/><path d="M385.9 123.5c-1.9-13.9-4.5-29.9-6.1-39.8.7.2 1.5 0 2.2-.5 1.2-.9 1.4-2.5.5-3.7l-4.8-6.2c-.7-1-2-1.3-3.1-.8s-1.7 1.7-1.5 2.9c0 .3 4.7 27.2 7.6 48.8 1.1 8.2-.5 15.6-4.3 19.7-2.5 2.6-5.7 3.8-9.6 3.6-1.4-.1-2.7 1-2.8 2.5-.1 1.4 1 2.7 2.5 2.8h1.3c5 0 9.2-1.8 12.5-5.3 4.8-5.3 6.9-14.1 5.6-24zM357 140.8c-1 1-.9 2.7.1 3.7.1.1.3.4.3.5s-.1.3-.4.6c-1 1-1 2.7 0 3.7.5.5 1.2.8 1.9.8s1.3-.3 1.9-.8c1.7-1.7 2-3.4 1.9-4.5-.1-2.4-1.7-4-2.1-4.3-1-.9-2.6-.8-3.6.3z"/></g><path d="M19.2 489.1C8.6 489.1 0 480.5 0 469.9V42c0-10.5 8.5-19 19-19h.2c10.6 0 19.2 8.6 19.2 19.2V470c0 10.5-8.6 19.1-19.2 19.1z" fill="#2e3033"/></svg>