<svg xmlns="http://www.w3.org/2000/svg" viewBox="0 0 512.1 512.1"><path d="M503.6 373.9H35.4c-4.6 0-8.4-3.7-8.4-8.4v-301c0-4.6 3.7-8.4 8.4-8.4h468.3c4.6 0 8.4 3.7 8.4 8.4v301c-.1 4.6-3.8 8.4-8.5 8.4z" fill="#41479b"/><path d="M503.6 56.1H35.4c-4.6 0-8.4 3.7-8.4 8.4v301c0 4.6 3.7 8.4 8.4 8.4h468.3c4.6 0 8.4-3.7 8.4-8.4v-301c-.1-4.6-3.8-8.4-8.5-8.4zm-3.3 150.5h-81.5l-135.9-71.9V72.8h217.4v133.8zm-225.8 74.2L150.2 215l124.3-65.8L398.8 215l-124.3 65.8zm-8.4-208v61.9l-135.9 71.9H48.7V72.8h217.4zM48.7 223.4h81.5l135.9 71.9v61.9H48.7V223.4zm234.2 133.8v-61.9l135.9-71.9h81.5v133.8H282.9z" fill="#ff4b55"/><path fill="#f5f5f5" d="M274.5 149.2L150.2 215l124.3 65.8L398.8 215z"/><path fill="#73af00" d="M232.7 258.7h83.6l58.2-30.9-26.2-26.2h-9.1l-6.8 6.8-4.8-4.8H318l-36.9 36.9h-46.4l-10.5-15.6h-13.4l-5.3 7.4h-5.9l-3.5 7z"/><path d="M275.6 174.9l3.3 10 10.5.1c1.4 0 1.9 1.7.8 2.6l-8.5 6.2 3.2 10c.4 1.3-1.1 2.4-2.2 1.6l-8.5-6.1-8.5 6.1c-1.1.8-2.6-.3-2.2-1.6l3.2-10-8.5-6.2c-1.1-.8-.5-2.5.8-2.6l10.5-.1 3.3-10c.6-1.3 2.4-1.3 2.8 0z" fill="#ffe15a"/><path d="M19.2 489.1C8.6 489.1 0 480.5 0 469.9V42c0-10.5 8.5-19 19-19h.2c10.6 0 19.2 8.6 19.2 19.2V470c0 10.5-8.6 19.1-19.2 19.1z" fill="#2e3033"/></svg>