<svg xmlns="http://www.w3.org/2000/svg" viewBox="0 0 512 512"><path d="M503.6 373.9H35.4c-4.6 0-8.4-3.8-8.4-8.4v-301c0-4.6 3.8-8.4 8.4-8.4h468.2c4.6 0 8.4 3.8 8.4 8.4v300.9c0 4.7-3.8 8.5-8.4 8.5z" fill="#ff4b55"/><path d="M35.4 56.1h225.7c4.6 0 8.4 3.8 8.4 8.4v142c0 4.6-3.8 8.4-8.4 8.4H35.4c-4.6 0-8.4-3.8-8.4-8.4v-142c0-4.6 3.8-8.4 8.4-8.4z" fill="#41479b"/><g fill="#f5f5f5"><path d="M146.1 159.7l-3.8 11.5-12.1.1c-1.6 0-2.2 2-1 3l9.8 7.2-3.7 11.6c-.5 1.5 1.2 2.7 2.5 1.8l9.9-7.1 9.9 7.1c1.3.9 3-.3 2.5-1.8l-3.7-11.6 9.8-7.2c1.3-.9.6-2.9-1-3l-12.1-.1-3.8-11.5c-.6-1.5-2.7-1.5-3.2 0zM146.4 69.9l-3.1 9.3-9.8.1c-1.3 0-1.8 1.6-.8 2.4l7.9 5.8-3 9.4c-.4 1.2 1 2.2 2 1.5l8-5.7 8 5.7c1 .7 2.4-.3 2-1.5l-3-9.4 7.9-5.8c1-.8.5-2.4-.8-2.4l-9.8-.1-3.1-9.3c-.3-1.2-2-1.2-2.4 0zM196.1 97.6l-3.1 9.3-9.8.1c-1.3 0-1.8 1.6-.8 2.4l7.9 5.8-3 9.4c-.4 1.2 1 2.2 2 1.5l8-5.7 8 5.7c1 .7 2.4-.3 2-1.5l-3-9.4 7.9-5.8c1-.8.5-2.4-.8-2.4l-9.8-.1-3.1-9.3c-.3-1.2-2-1.2-2.4 0zM97.8 108.6l-3.1 9.3-9.8.1c-1.3 0-1.8 1.6-.8 2.4l7.9 5.8-3 9.4c-.4 1.2 1 2.2 2 1.5l8-5.7 8 5.7c1 .7 2.4-.3 2-1.5l-3-9.4 7.9-5.8c1-.8.5-2.4-.8-2.4l-9.8-.1-3.1-9.3c-.3-1.2-2-1.2-2.4 0zM174.7 139l-1.7 5.2h-5.5c-.7 0-1 .9-.4 1.3l4.4 3.3-1.7 5.3c-.2.7.6 1.2 1.1.8l4.5-3.2 4.5 3.2c.6.4 1.4-.1 1.1-.8l-1.7-5.3 4.4-3.3c.6-.4.3-1.3-.4-1.3h-5.5l-1.7-5.2c-.2-.7-1.2-.7-1.4 0z"/></g><path d="M18.9 485.2C8.5 485.2 0 476.7 0 466.3V45.5c0-10.3 8.4-18.7 18.7-18.7h.2c10.4 0 18.9 8.5 18.9 18.9v420.6c0 10.4-8.5 18.9-18.9 18.9z" fill="#2e3033"/></svg>