<svg xmlns="http://www.w3.org/2000/svg" viewBox="0 0 512 512"><path d="M35.3 373.9h468.3c4.6 0 8.3-3.7 8.3-8.3V268L31.6 372.9c1.1.6 2.4 1 3.7 1z" fill="#73af00"/><path d="M188.6 56.1H35.3c-4.6 0-8.3 3.7-8.3 8.3v301c0 1.9.7 3.5 1.7 4.9L188.6 56.1z" fill="#41479b"/><path d="M29.4 371.4L350.3 56.1H188.6L28.7 370.4c.3.3.5.8.7 1z" fill="#ffe15a"/><path d="M503.7 56.1H350.4l-321 315.3c.3.3.8.5 1.2.8L512 162V64.4c0-4.6-3.7-8.3-8.3-8.3z" fill="#ff4b55"/><path d="M31.6 372.9L512 268V162L30.7 372.3c.3.2.5.4.9.6z" fill="#f5f5f5"/><path d="M19.2 489.1C8.6 489.1 0 480.5 0 469.9V42c0-10.5 8.5-19.1 19.1-19.1h.1c10.6 0 19.2 8.6 19.2 19.2v427.7c0 10.6-8.6 19.3-19.2 19.3z" fill="#2e3033"/></svg>