<svg xmlns="http://www.w3.org/2000/svg" viewBox="0 0 511.902 511.902"><path d="M503.7 56.101H35.3c-4.6 0-8.3 3.7-8.3 8.3v301c0 4.6 3.7 8.3 8.3 8.3h468.3c4.6 0 8.3-3.7 8.3-8.3v-301c.1-4.5-3.6-8.3-8.2-8.3z" fill="#41479b"/><g fill="#f5f5f5"><path d="M361.9 213.001l-24-5.3c-3.5-32.1-29-57.6-61.1-61.1l-5.3-24c-.4-1.9-3.7-1.9-4.1 0l-5.3 23.9c-32.2 3.5-57.6 29-61.1 61.1l-24 5.3c-1 .2-1.7 1.1-1.7 2.1s.7 1.9 1.7 2.1l24 5.3c3.5 32.2 29 57.6 61.1 61.1l5.3 23.9c.2 1 1.1 1.7 2.1 1.7s1.9-.7 2.1-1.7l5.3-24c32.1-3.5 57.6-29 61.1-61.1l24-5.3c1-.2 1.7-1.1 1.7-2.1-.1-.8-.8-1.7-1.8-1.9zm-28.2-6.2l-45.7-10.3-10.1-45.7c29 3.8 52 26.8 55.8 56zm-72.5-56l-10.2 45.7-45.8 10.1c3.9-29 26.9-52 56-55.8zm-9.1 49.8l14.4 14.4h-79.3l64.9-14.4zm-46.8 22.8l45.7 10.1 10.1 45.8c-29-3.8-52-26.8-55.8-55.9zm64.2 74l-14.4-65 14.4-14.4v79.4zm0-85.3v-79.4l14.4 65-14.4 14.4zm8.3 67.1l10.1-45.7 45.8-10.1c-3.8 29-26.8 52-55.9 55.8zm9.1-49.7l-14.5-14.5h79.4l-64.9 14.5zM160.8 217.201H43.7c-1.2 0-2.1-1-2.1-2.1s1-2.1 2.1-2.1h117.1c1.2 0 2.1 1 2.1 2.1s-1 2.1-2.1 2.1zM495.2 217.201h-117c-1.2 0-2.1-1-2.1-2.1s1-2.1 2.1-2.1h117.1c1.2 0 2.1 1 2.1 2.1s-1 2.1-2.2 2.1zM269.5 108.401c-1.2 0-2.1-1-2.1-2.1v-33.4c0-1.2 1-2.1 2.1-2.1s2.1 1 2.1 2.1v33.4c0 1.2-1 2.1-2.1 2.1zM269.5 359.301c-1.2 0-2.1-1-2.1-2.1v-33.4c0-1.2 1-2.1 2.1-2.1s2.1 1 2.1 2.1v33.4c0 1.1-1 2.1-2.1 2.1z"/></g><path d="M18.8 483.401c-10.4 0-18.8-8.4-18.8-18.8v-417.5c0-10.2 8.3-18.6 18.6-18.6h.1c10.4 0 18.8 8.4 18.8 18.8v417.4c0 10.3-8.4 18.7-18.7 18.7z" fill="#2e3033"/></svg>