<svg xmlns="http://www.w3.org/2000/svg" viewBox="0 0 512 512"><path d="M503.7 373.9H35.3c-4.6 0-8.3-3.7-8.3-8.3V64.5c0-4.6 3.7-8.3 8.3-8.3h468.3c4.6 0 8.3 3.7 8.3 8.3v301c.1 4.7-3.6 8.4-8.2 8.4z" fill="#f5f5f5"/><path fill="#ff4b55" d="M512 198.2H286.2V56.1h-33.4v142.1H27v33.6h225.8v142.1h33.4V231.8H512z"/><g fill="#464655"><path d="M183.4 131c1.4-2.8-6.4-11.9-6-14s1.3-5.2-2-17.2c-3.3-11.9-13.2-14.8-25.2-16-11.9-1.2-27.7 7.3-31.3 16.7-2.2 5.6-.7 11.9 1.5 18-1 .1-3 .2-4.4-.9-1.2-.8-1.7-2.3-1.9-4.3-.4-7.6 3.7-20 3.8-20.1l.3-.9-13-4.6.8 6.1-10.1-2.1.6 1.7c.9 2.4 8.7 23.7 9.7 25.6 1.7 3.1 4 5 6.9 5.8 1 .3 2.1.4 3 .4.1 0 .3-.1.3-.1-.6 1.1-1.8 2.4-4.8 3.9-3.5 1.7-7.1 3.4-7.6 10l-.1.1.1.1c-.1 1.7 0 3.8.4 6.3 1 6.2 3.1 12.3 3.3 12.6l.2.6.6.1c.1 0 4.1.5 5.4 4.8.7 2.5 3 4.4 5.2 4.4h.2c1-.1 3.3-.6 4-4.4l.1-.6-6.2-5.6 2.1-6.7-1-.3c-.1 0-4.1-1.2-8.3-5.8-.4-1.9-.3-3.3.1-4 .6-.9 1.8-1.1 3.2-1.4 1.3-.3 2.7-.5 3.8-1.4 3.5-2.8 5.5-7.5 6.5-10.8.5 1.2 1.1 2.4 1.5 3.6 3.5 8.7-6.2 18.6-6.2 18.6 6.2 2.5 6.8 3.9 15.5 14.6s16.5 6.2 16.5 6.2-1.1-6.9 4.6-9.8 5.8-6.6 5.8-6.6c14.2 3.3 15-2.5 14.4-4.5s.1-5.2.1-5.2 1.4.1 2.5-.6c1.7-1.2.5-3.8.5-3.8 1.6-.8 2.2-2.5 1-3.8s-1.2-2.8-1.2-2.8 3.9 0 4.8-1.9zm-69.5-8.2c-2.4-.6-4.3-2.3-5.7-4.9-.7-1.2-5.5-14.3-9-23.6l7.2 1.5 1.3 10.8 1.9-.3-1.9-15.8 8.2 2.9c-1 3.1-3.9 13.1-3.6 19.9.1 2.6 1 4.6 2.6 5.8 1.5 1.1 3.3 1.3 4.6 1.3.8 0 1.3-.1 1.7-.1l.6 1.5c-1 .6-4.3 2-7.9 1zm7.7 40.8c-.3 1-.8 2.2-2.1 2.2h-.1c-1.3 0-2.9-1.3-3.3-3 0-.1-.1-.1-.1-.2l1-3.3 4.6 4.3zm-4.3-11.8l-2.5 8.3c-1.6-2.2-3.9-3-5-3.3-.6-1.6-2.2-6.7-3-11.7-.2-1-.3-1.9-.3-2.8 4.1 6.1 8.8 8.8 10.8 9.5zm-.9-15.8c-.7.6-1.8.8-3 1-1.6.3-3.5.7-4.5 2.2-.4.6-.6 1.3-.6 2.1-.6-.9-1.3-1.7-1.9-2.8.4-5 3.2-6.3 6.4-7.8 4.7-2.2 5.8-4.5 6.2-5.9 1.7-.3 3-.8 3.7-1.2.1.1.1.2.1.3-.5 2.3-2.3 8.9-6.4 12.1zm11-8.9l-4-8.7 47.5-22c3.1 5.9 3.4 12.9 3.4 12.9l-46.9 17.8zM442.7 131c1.4-2.8-6.4-11.9-6-14s1.3-5.2-2-17.2c-3.3-11.9-13.2-14.8-25.2-16-11.9-1.2-27.7 7.3-31.3 16.7-2.2 5.6-.7 11.9 1.5 18-1 .1-3 .2-4.4-.9-1.2-.8-1.7-2.3-1.9-4.3-.4-7.6 3.7-20 3.8-20.1l.3-.9-13-4.6.8 6.1-10.1-2.2.6 1.7c.9 2.4 8.7 23.7 9.7 25.6 1.7 3.1 4 5 6.9 5.8 1 .3 2.1.4 3 .4.1 0 .3-.1.3-.1-.6 1.1-1.8 2.4-4.8 3.9-3.5 1.7-7.1 3.4-7.6 10l-.1.1.1.1c-.1 1.7 0 3.8.4 6.3 1 6.2 3.1 12.3 3.3 12.6l.2.6.6.1c.1 0 4.1.5 5.4 4.8.7 2.5 3 4.4 5.2 4.4h.2c1-.1 3.3-.6 4-4.4l.1-.6-6.2-5.6 2.1-6.8-1-.3c-.1 0-4.1-1.2-8.3-5.8-.4-1.9-.3-3.3.1-4 .6-.9 1.8-1.1 3.2-1.4 1.3-.3 2.7-.5 3.8-1.4 3.5-2.8 5.5-7.5 6.5-10.8.5 1.2 1.1 2.4 1.5 3.6 3.5 8.7-6.2 18.6-6.2 18.6 6.2 2.5 6.8 3.9 15.5 14.6s16.5 6.2 16.5 6.2-1.1-6.9 4.6-9.8c5.7-2.9 5.8-6.6 5.8-6.6 14.2 3.3 15-2.5 14.4-4.5s.1-5.2.1-5.2 1.4.1 2.5-.6c1.7-1.2.5-3.8.5-3.8 1.6-.8 2.2-2.5 1-3.8s-1.2-2.8-1.2-2.8 3.8.2 4.8-1.7zm-69.6-8.2c-2.4-.6-4.3-2.3-5.7-4.9-.7-1.2-5.5-14.3-8.9-23.6l7.2 1.5 1.3 10.8 1.9-.3-2-15.8 8.2 2.9c-1 3.1-3.9 13.1-3.6 19.9.1 2.6 1 4.6 2.6 5.8 1.5 1.1 3.3 1.3 4.6 1.3.8 0 1.3-.1 1.7-.1l.6 1.5c-1 .6-4.3 2-7.9 1zm7.7 40.8c-.3 1-.8 2.2-2.1 2.2h-.1c-1.3 0-2.9-1.3-3.3-3 0-.1-.1-.1-.1-.2l1-3.3 4.6 4.3zm-4.3-11.8l-2.5 8.3c-1.6-2.2-3.9-3-5-3.3-.5-1.6-2.2-6.7-3-11.7-.2-1-.3-1.9-.3-2.8 4.1 6.1 8.8 8.8 10.8 9.5zm-.9-15.8c-.7.6-1.8.8-3 1-1.6.3-3.5.7-4.5 2.2-.4.6-.6 1.3-.6 2.1-.6-.9-1.3-1.7-1.9-2.8.4-5 3.2-6.3 6.4-7.8 4.7-2.2 5.8-4.5 6.2-5.9 1.7-.3 3-.8 3.7-1.2.1.1.1.2.1.3-.5 2.3-2.2 8.9-6.4 12.1zm11-8.9l-4-8.7 47.5-22c3.1 5.9 3.4 12.9 3.4 12.9l-46.9 17.8zM183.4 306.6c1.4-2.8-6.4-11.9-6-14s1.3-5.2-2-17.2c-3.3-11.9-13.2-14.8-25.2-16-11.9-1.2-27.7 7.3-31.3 16.7-2.2 5.6-.7 11.9 1.5 18-1 .1-3 .2-4.4-.9-1.2-.8-1.7-2.3-1.9-4.3-.4-7.6 3.7-20 3.8-20.1l.3-.9-13-4.6.8 6.1-10-2.1.6 1.7c.9 2.4 8.7 23.7 9.7 25.6 1.7 3.1 4 5 6.9 5.8 1 .3 2.1.4 3 .4.1 0 .3-.1.3-.1-.6 1.1-1.8 2.4-4.8 3.9-3.5 1.7-7.1 3.4-7.6 10l-.1.1.1.1c-.1 1.7 0 3.8.4 6.3 1 6.2 3.1 12.3 3.3 12.6l.2.6.6.1c.1 0 4.1.5 5.4 4.8.7 2.5 3 4.4 5.2 4.4h.2c1-.1 3.3-.6 4-4.4l.1-.6-6.2-5.6 2.1-6.8-1-.3c-.1 0-4.1-1.2-8.3-5.8-.4-1.9-.3-3.3.1-4 .6-.9 1.8-1.1 3.2-1.4 1.3-.3 2.7-.5 3.8-1.4 3.5-2.8 5.5-7.5 6.5-10.8.5 1.2 1.1 2.4 1.5 3.6 3.5 8.7-6.2 18.6-6.2 18.6 6.2 2.5 6.8 3.9 15.5 14.6s16.5 6.2 16.5 6.2-1.1-6.9 4.6-9.8c5.7-2.9 5.8-6.6 5.8-6.6 14.2 3.3 15-2.5 14.4-4.5s.1-5.2.1-5.2 1.4.1 2.5-.6c1.7-1.2.5-3.8.5-3.8 1.6-.8 2.2-2.5 1-3.8s-1.2-2.8-1.2-2.8 3.8.1 4.7-1.8zm-69.5-8.1c-2.4-.6-4.3-2.3-5.7-4.9-.7-1.2-5.5-14.3-8.9-23.6l7.2 1.5 1.3 10.8 1.9-.3-2-15.8 8.2 2.9c-1 3.1-3.9 13.1-3.6 19.9.1 2.6 1 4.6 2.6 5.8 1.5 1.1 3.3 1.3 4.6 1.3.8 0 1.3-.1 1.7-.1l.6 1.5c-1 .5-4.3 1.9-7.9 1zm7.7 40.7c-.3 1-.8 2.2-2.1 2.2h-.1c-1.3 0-2.9-1.3-3.3-3 0-.1-.1-.1-.1-.2l1-3.3 4.6 4.3zm-4.3-11.8l-2.5 8.3c-1.6-2.2-3.9-3-5-3.3-.5-1.6-2.2-6.7-3-11.7-.2-1-.3-1.9-.3-2.8 4.1 6.1 8.8 8.7 10.8 9.5zm-.9-15.7c-.7.6-1.8.8-3 1-1.6.3-3.5.7-4.5 2.2-.4.6-.6 1.3-.6 2.1-.6-.9-1.3-1.7-1.9-2.8.4-5 3.2-6.3 6.4-7.8 4.7-2.2 5.8-4.5 6.2-5.9 1.7-.3 3-.8 3.7-1.2.1.1.1.2.1.3-.5 2.2-2.3 8.8-6.4 12.1zm11-8.9l-4-8.7 47.5-22c3.1 5.9 3.4 12.9 3.4 12.9l-46.9 17.8zM442.7 306.6c1.4-2.8-6.4-11.9-6-14s1.3-5.2-2-17.2c-3.3-11.9-13.2-14.8-25.2-16-11.9-1.2-27.7 7.3-31.3 16.7-2.2 5.6-.7 11.9 1.5 18-1 .1-3 .2-4.4-.9-1.2-.8-1.7-2.3-1.9-4.3-.4-7.6 3.7-20 3.8-20.1l.3-.9-13-4.6.8 6.1-10-2.1.6 1.7c.9 2.4 8.7 23.7 9.7 25.6 1.7 3.1 4 5 6.9 5.8 1 .3 2.1.4 3 .4.1 0 .3-.1.3-.1-.6 1.1-1.8 2.4-4.8 3.9-3.5 1.7-7.1 3.4-7.6 10l-.1.1.1.1c-.1 1.7 0 3.8.4 6.3 1 6.2 3.1 12.3 3.3 12.6l.2.6.6.1c.1 0 4.1.5 5.4 4.8.7 2.5 3 4.4 5.2 4.4h.2c1-.1 3.3-.6 4-4.4l.1-.6-6.2-5.6 2.1-6.8-1-.3c-.1 0-4.1-1.2-8.3-5.8-.4-1.9-.3-3.3.1-4 .6-.9 1.8-1.1 3.2-1.4 1.3-.3 2.7-.5 3.8-1.4 3.5-2.8 5.5-7.5 6.5-10.8.5 1.2 1.1 2.4 1.5 3.6 3.5 8.7-6.2 18.6-6.2 18.6 6.2 2.5 6.8 3.9 15.5 14.6s16.5 6.2 16.5 6.2-1.1-6.9 4.6-9.8 5.8-6.6 5.8-6.6c14.2 3.3 15-2.5 14.4-4.5s.1-5.2.1-5.2 1.4.1 2.5-.6c1.7-1.2.5-3.8.5-3.8 1.6-.8 2.2-2.5 1-3.8s-1.2-2.8-1.2-2.8 3.7.1 4.7-1.8zm-69.6-8.1c-2.4-.6-4.3-2.3-5.7-4.9-.7-1.2-5.5-14.3-8.9-23.6l7.2 1.5 1.3 10.8 1.9-.3-2-15.8 8.2 2.9c-1 3.1-3.9 13.1-3.6 19.9.1 2.6 1 4.6 2.6 5.8 1.5 1.1 3.3 1.3 4.6 1.3.8 0 1.3-.1 1.7-.1l.6 1.5c-1 .5-4.3 1.9-7.9 1zm7.7 40.7c-.3 1-.8 2.2-2.1 2.2h-.1c-1.3 0-2.9-1.3-3.3-3 0-.1-.1-.1-.1-.2l1-3.3 4.6 4.3zm-4.3-11.8l-2.5 8.3c-1.6-2.2-3.9-3-5-3.3-.5-1.6-2.2-6.7-3-11.7-.2-1-.3-1.9-.3-2.8 4.1 6.1 8.8 8.7 10.8 9.5zm-.9-15.7c-.7.6-1.8.8-3 1-1.6.3-3.5.7-4.5 2.2-.4.6-.6 1.3-.6 2.1-.6-.9-1.3-1.7-1.9-2.8.4-5 3.2-6.3 6.4-7.8 4.7-2.2 5.8-4.5 6.2-5.9 1.7-.3 3-.8 3.7-1.2.1.1.1.2.1.3-.5 2.2-2.2 8.8-6.4 12.1zm11-8.9l-4-8.7 47.5-22c3.1 5.9 3.4 12.9 3.4 12.9l-46.9 17.8z"/></g><path d="M19.2 489.1C8.6 489.1 0 480.5 0 469.9V42c0-10.5 8.5-19.1 19.1-19.1h.1c10.6 0 19.2 8.6 19.2 19.2v427.8c0 10.6-8.6 19.2-19.2 19.2z" fill="#2e3033"/></svg>