<svg xmlns="http://www.w3.org/2000/svg" viewBox="0 0 512 512"><path d="M503.5 56.2H35.4c-4.6 0-8.4 3.8-8.4 8.4v300.8c0 4.6 3.8 8.4 8.4 8.4h468.2c4.6 0 8.4-3.8 8.4-8.4V64.6c-.1-4.6-3.9-8.4-8.5-8.4z" fill="#f5f5f5"/><path fill="#ff4b55" d="M27 95.9h484.9v39.7H27z"/><path fill="#41479b" d="M27 135.7h484.9v39.7H27z"/><g fill="#ff4b55"><path d="M511.9 254.8H27v-48.1h10.5v8.4h474.4zM503.5 374H35.4c-4.6 0-8.4-3.8-8.4-8.4v-31.3h484.9v31.3c0 4.6-3.8 8.4-8.4 8.4z"/></g><g fill="#41479b"><path d="M27 254.8h484.9v39.7H27zM264.1 215.1H38.4c-4.6 0-8.4-3.8-8.4-8.4v-142c0-4.6 3.8-8.4 8.4-8.4H264c4.6 0 8.4 3.8 8.4 8.4v142c.1 4.6-3.8 8.4-8.3 8.4z"/></g><path d="M264.1 56.2h-14.5l-77.5 50.7V56.2h-41.8v50.7L52.9 56.2H38.4c-4.6 0-8.4 3.7-8.4 8.4v6.6l66.5 43.5H30v41.8h66.5L30 200.1v6.6c0 4.6 3.7 8.4 8.4 8.4h14.5l77.5-50.7v50.7h41.8v-50.7l77.5 50.7h14.5c4.6 0 8.4-3.7 8.4-8.4v-6.6L206 156.6h66.5v-41.8H206l66.5-43.5v-6.6c0-4.7-3.7-8.5-8.4-8.5z" fill="#f5f5f5"/><g fill="#ff4b55"><path d="M272.5 123.1H163.7V56.2h-25v66.9H30v25.1h108.7v66.9h25v-66.9h108.8z"/><path d="M121.9 114.8L34 57.6c-2.3 1.5-4 4-4 6.9v.4l76.6 49.7 15.3.2zM187.5 114.8l83.7-54.3c-1.5-2.5-4-4.2-7.1-4.2h-1.8l-90.2 58.5h15.4zM114.8 156.6l-83.6 54.2c1.4 2.5 4 4.3 7.2 4.3H40l90.2-58.5h-15.4zM272.4 207.4L194 156.6h-15.4l88.9 57.7c2.7-1.2 4.5-3.8 4.9-6.9z"/></g><path d="M18.7 483.4C8.4 483.4 0 475.1 0 464.7V47.2c0-10.3 8.3-18.6 18.6-18.6h.2c10.3 0 18.7 8.4 18.7 18.7v417.4c0 10.4-8.3 18.7-18.8 18.7z" fill="#2e3033"/></svg>