<?xml version="1.0" encoding="utf-8"?>
<!-- Generator: Adobe Illustrator 14.0.0, SVG Export Plug-In . SVG Version: 6.00 Build 43363)  -->
<!DOCTYPE svg PUBLIC "-//W3C//DTD SVG 1.1//EN" "http://www.w3.org/Graphics/SVG/1.1/DTD/svg11.dtd">
<svg version="1.1" xmlns="http://www.w3.org/2000/svg" xmlns:xlink="http://www.w3.org/1999/xlink" x="0px" y="0px" width="800px"
	 height="600px" viewBox="0 0 800 600" enable-background="new 0 0 800 600" xml:space="preserve">
<g id="Layer_2">
	<rect fill="#5F5A63" width="800" height="600"/>
</g>
<g id="Layer_1">
	<g>
		<circle fill="none" stroke="#6ECCC3" cx="207.379" cy="225.349" r="10"/>
		<path fill="none" stroke="#FFFFFF" stroke-linejoin="round" d="M211.879,201.349h-9v6.59c-1.708,0.44-3.314,1.122-4.786,2.012
			l-4.679-4.68l-6.364,6.363l4.741,4.741c-0.842,1.458-1.479,3.044-1.887,4.724h-6.775v9h6.904c0.441,1.615,1.101,3.136,1.947,4.535
			l-4.931,4.931l6.364,6.364l4.991-4.992c1.386,0.8,2.887,1.412,4.474,1.822v7.09h9v-7.09c1.587-0.409,3.088-1.022,4.474-1.822
			l4.991,4.992l6.364-6.363l-4.931-4.931c0.847-1.4,1.506-2.921,1.947-4.536h6.904v-9h-6.775c-0.407-1.68-1.045-3.266-1.887-4.724
			l4.741-4.741l-6.363-6.364l-4.681,4.681c-1.472-0.89-3.077-1.571-4.785-2.012V201.349z"/>
	</g>
	<g>
		<path fill="none" stroke="#FFFFFF" stroke-linecap="round" stroke-linejoin="round" d="M319.346,130.446"/>
		
			<line fill="none" stroke="#FFFFFF" stroke-linecap="round" stroke-linejoin="round" x1="274.405" y1="157.999" x2="286.084" y2="147.319"/>
		
			<line fill="none" stroke="#FFFFFF" stroke-linecap="round" stroke-linejoin="round" x1="302.83" y1="122.219" x2="316.928" y2="114.057"/>
		
			<line fill="none" stroke="#FFFFFF" stroke-linecap="round" stroke-linejoin="round" x1="290.731" y1="141.899" x2="297.086" y2="126.542"/>
		<polyline fill="none" stroke="#FFFFFF" stroke-linecap="round" stroke-linejoin="round" points="274.405,107.999 274.405,157.999 
			323.784,157.999 		"/>
		<circle fill="none" stroke="#6ECCC3" stroke-linecap="round" stroke-linejoin="round" cx="320.032" cy="112.993" r="3.751"/>
		<circle fill="none" stroke="#6ECCC3" stroke-linecap="round" stroke-linejoin="round" cx="288.154" cy="144.254" r="3.751"/>
		<circle fill="none" stroke="#6ECCC3" stroke-linecap="round" stroke-linejoin="round" cx="299.636" cy="123.79" r="3.752"/>
	</g>
	<g>
		<path fill="none" stroke="#6ECCC3" d="M212.006,319.069c0-2.555-2.072-4.627-4.628-4.627c-2.555,0-4.628,2.072-4.628,4.627
			c0,1.426,0.659,2.684,1.671,3.533c0,2.516,0,3.584,0,5.982c0,4.111,2.824,3.729,2.829,3.729c0.004,0,2.829,0.383,2.829-3.729
			c0-2.332,0-3.238,0-5.77C211.242,321.972,212.006,320.614,212.006,319.069z"/>
		<path fill="none" stroke="#FFFFFF" d="M193.375,307.868v-6.173c0,0-0.798-13.36,13.821-13.36
			c14.744,0,14.189,12.531,14.189,13.453c0,0.921,0,5.896,0,5.896"/>
		<path fill="none" stroke="#FFFFFF" d="M189.565,333.163c0,2.35,1.903,4.252,4.251,4.252h27.126c2.349,0,4.251-1.902,4.251-4.252
			v-21.412c0-2.348-1.902-4.25-4.251-4.25h-27.126c-2.348,0-4.251,1.902-4.251,4.25V333.163z"/>
	</g>
	<g>
		<path fill="none" stroke="#6ECCC3" stroke-linejoin="round" d="M414.318,136.868c0.523-0.909,0.822-4.93,0.822-6.053
			c0-3.423-2.775-6.196-6.196-6.196c-3.423,0-6.197,2.773-6.197,6.196c0,1.156,0.316,5.204,0.868,6.132
			c1.081,1.814,3.062,3.455,5.329,3.455C411.242,140.402,413.248,138.727,414.318,136.868z"/>
		<path fill="none" stroke="#6ECCC3" stroke-linejoin="round" d="M396.038,153.839c1.775,0,10.486,0,12.782,0
			c0.048,0,0.099,0,0.141,0c2.296,0,11.008,0,12.782,0c0-5.649-4.449-13.842-8.545-11.795c-2.56,1.281-3.762,1.593-4.308,1.648
			c-0.513-0.053-1.605-0.33-3.856-1.427"/>
		<path fill="none" stroke="#FFFFFF" stroke-linejoin="round" d="M397.819,129.631c0.746-1.297,1.172-7.031,1.172-8.633
			c0-4.883-3.957-8.84-8.838-8.84c-4.883,0-8.84,3.957-8.84,8.84c0,1.649,0.451,7.424,1.238,8.746
			c1.541,2.589,4.369,4.928,7.602,4.928C393.431,134.672,396.292,132.282,397.819,129.631z"/>
		<path fill="none" stroke="#FFFFFF" stroke-linejoin="round" d="M396.222,137.016c-3.651,1.826-5.365,2.271-6.145,2.351
			c-0.779-0.079-2.494-0.524-6.146-2.351c-5.843-2.922-12.188,8.764-12.188,16.823c2.531,0,14.958,0,18.232,0
			c0.07,0,0.141,0,0.201,0c3.275,0,15.702,0,18.233,0C408.41,145.779,402.063,134.094,396.222,137.016z"/>
	</g>
	<g>
		<path fill="none" stroke="#6ECCC3" stroke-linejoin="round" d="M397.819,222.231c0.746-1.297,1.172-7.031,1.172-8.633
			c0-4.883-3.957-8.84-8.838-8.84c-4.883,0-8.84,3.957-8.84,8.84c0,1.649,0.451,7.424,1.238,8.746
			c1.541,2.589,4.369,4.928,7.602,4.928C393.431,227.272,396.292,224.883,397.819,222.231z"/>
		<path fill="none" stroke="#6ECCC3" stroke-linecap="round" stroke-linejoin="round" d="M404.911,234.556
			c-2.361-3.938-5.597-6.487-8.689-4.939c-3.651,1.826-5.365,2.271-6.145,2.351c-0.779-0.079-2.494-0.524-6.146-2.351
			c-5.843-2.922-12.188,8.764-12.188,16.822c2.531,0,14.958,0,18.232,0c0.07,0,0.141,0,0.201,0c3.275,0,15.703,0,18.234,0"/>
		<path fill="none" stroke="#FFFFFF" stroke-linejoin="round" d="M414.318,229.469c0.523-0.909,0.822-4.93,0.822-6.053
			c0-3.423-2.775-6.196-6.196-6.196c-3.422,0-6.197,2.773-6.197,6.196c0,1.156,0.316,5.204,0.869,6.132
			c1.08,1.814,3.062,3.455,5.328,3.455C411.242,233.003,413.248,231.327,414.318,229.469z"/>
		<path fill="none" stroke="#FFFFFF" stroke-linejoin="round" d="M413.198,234.645c-2.56,1.281-3.762,1.593-4.307,1.648
			c-0.547-0.056-1.748-0.367-4.309-1.648c-4.096-2.047-8.545,6.145-8.545,11.794c1.775,0,10.486,0,12.783,0c0.047,0,0.098,0,0.141,0
			c2.295,0,11.007,0,12.781,0C421.743,240.789,417.294,232.598,413.198,234.645z"/>
	</g>
	<g>
		<path fill="none" stroke="#FFFFFF" stroke-linejoin="round" d="M405.72,308.932c0.874-1.518,1.373-8.232,1.373-10.109
			c0-5.716-4.635-10.35-10.351-10.35c-5.715,0-10.35,4.634-10.35,10.35c0,1.932,0.529,8.693,1.45,10.24
			c1.805,3.032,5.116,5.771,8.899,5.771C400.582,314.834,403.933,312.036,405.72,308.932z"/>
		<path fill="none" stroke="#FFFFFF" stroke-linejoin="round" d="M403.938,317.577c-4.274,2.139-6.283,2.66-7.194,2.753
			c-0.912-0.093-2.919-0.614-7.195-2.753c-6.841-3.419-14.271,10.263-14.271,19.698c2.964,0,17.515,0,21.349,0
			c0.081,0,0.165,0,0.236,0c3.834,0,18.386,0,21.349,0C418.21,327.84,410.779,314.158,403.938,317.577z"/>
	</g>
	<g>
		<rect x="314.094" y="200.599" fill="none" stroke="#FFFFFF" stroke-linejoin="round" width="10" height="50"/>
		<rect x="294.344" y="220.6" fill="none" stroke="#6ECCC3" stroke-linejoin="round" width="10" height="30"/>
		<rect x="274.094" y="235.35" fill="none" stroke="#FFFFFF" stroke-linejoin="round" width="10" height="15.25"/>
	</g>
	<g>
		<path fill="none" stroke="#6ECCC3" stroke-linejoin="round" d="M301.563,310.491h22.476c-1.1-11.922-10.566-21.417-22.476-22.558
			V310.491z"/>
		<path fill="none" stroke="#FFFFFF" stroke-linejoin="round" d="M296.563,311.409v-23.461
			c-12.595,1.297-22.413,11.934-22.413,24.867c0,4.444,1.165,8.614,3.198,12.231L296.563,311.409z"/>
		<path fill="none" stroke="#FFFFFF" stroke-linejoin="round" d="M299.451,315.491l-19.229,13.646
			c4.585,5.312,11.361,8.678,18.928,8.678c12.902,0,23.52-9.776,24.855-22.324H299.451z"/>
	</g>
	<g>
		<path fill="none" stroke="#FFFFFF" stroke-linejoin="round" d="M588.625,116.247c-12.973-13.587-33.254,5.727-20.395,19.38
			l20.392,18.749v0.004l0.003-0.002l0.002,0.002v-0.004l20.391-18.749C621.877,121.974,601.598,102.66,588.625,116.247z"/>
		<path fill="none" stroke="#6ECCC3" stroke-linecap="round" stroke-linejoin="round" d="M584.893,120.431
			c0,0-2.803-3.891-8.25-2.179"/>
	</g>
	<g>
		<line fill="none" stroke="#6ECCC3" stroke-linejoin="round" x1="469.482" y1="331.653" x2="488.662" y2="311.239"/>
		<line fill="none" stroke="#6ECCC3" stroke-linejoin="round" x1="518.664" y1="331.38" x2="499.723" y2="311.443"/>
		<rect x="469.25" y="294.051" fill="none" stroke="#FFFFFF" stroke-linejoin="round" width="49.652" height="37.646"/>
		<polyline fill="none" stroke="#FFFFFF" stroke-linejoin="round" points="469.365,294.279 494.191,316.104 518.547,294.279 		"/>
	</g>
	<g>
		<g>
			<path fill="none" stroke="#FFFFFF" stroke-linejoin="round" d="M500.88,206.921c-5.307-6.942-15.273-8.271-22.215-2.964
				c-6.939,5.307-8.271,15.27-2.963,22.213c4.628,6.055,12.8,7.837,19.42,4.673l1.689,2.209l-1.035,0.791l12.744,16.649l3.449-2.636
				l3.731-2.854l-12.747-16.649l-0.969,0.742l-1.689-2.208C505.086,221.329,505.509,212.976,500.88,206.921z M480.187,222.742
				c-3.418-4.471-2.562-10.886,1.907-14.301c4.47-3.419,10.886-2.562,14.304,1.908c3.415,4.468,2.559,10.883-1.912,14.301
				C490.019,228.066,483.603,227.21,480.187,222.742z"/>
		</g>
		<path fill="none" stroke="#6ECCC3" stroke-linecap="round" stroke-linejoin="round" d="M494.497,213.365
			c-1.104-2.119-3.321-3.567-5.877-3.567"/>
	</g>
	<g>
		<polyline fill="none" stroke="#6ECCC3" stroke-linecap="round" stroke-linejoin="round" points="588.572,214.314 588.572,225.474 
			595.673,232.573 		"/>
		<path fill="none" stroke="#FFFFFF" stroke-linecap="round" stroke-linejoin="round" d="M588.624,200.775
			c-13.709,0-24.823,11.115-24.823,24.824c0,13.71,11.114,24.824,24.823,24.824c13.711,0,24.824-11.114,24.824-24.824
			C613.448,211.891,602.335,200.775,588.624,200.775z M588.624,243.149c-9.692,0-17.55-7.857-17.55-17.55s7.857-17.55,17.55-17.55
			c9.693,0,17.551,7.857,17.551,17.55S598.317,243.149,588.624,243.149z"/>
	</g>
	<g>
		<path fill="none" stroke="#6ECCC3" stroke-linecap="round" stroke-linejoin="round" d="M489.771,141.278v1.157
			c0,2.13,1.607,3.857,3.588,3.857h13.789l7.541,4.509v-4.509h1.381c1.982,0,3.588-1.728,3.588-3.857v-9.724
			c0-2.13-1.605-3.856-3.588-3.856h-1.008"/>
		<path fill="none" stroke="#FFFFFF" stroke-linecap="round" stroke-linejoin="round" d="M509.752,114.992h-33.49
			c-2.92,0-5.287,2.547-5.287,5.688v14.335c0,3.141,2.367,5.688,5.287,5.688h2.037v6.649l11.121-6.649h20.332
			c2.922,0,5.289-2.547,5.289-5.688V120.68C515.041,117.539,512.674,114.992,509.752,114.992z"/>
		<path fill="none" stroke="#FFFFFF" stroke-linecap="round" stroke-linejoin="round" d="M477.822,119.064
			c-1.787,0-2.738,1.062-2.738,2.984"/>
		<path fill="none" stroke="#FFFFFF" stroke-linecap="round" stroke-linejoin="round" d="M468.494,124.25"/>
		<path fill="none" stroke="#FFFFFF" stroke-linecap="round" stroke-linejoin="round" d="M494.855,151.004"/>
	</g>
	<g>
		<polyline fill="none" stroke="#FFFFFF" stroke-linecap="round" stroke-linejoin="round" points="604.475,302.45 604.475,296.254 
			611.392,296.254 611.392,307.896 		"/>
		<polyline fill="none" stroke="#6ECCC3" stroke-linecap="round" stroke-linejoin="round" points="602.177,335.819 602.177,319.247 
			590.216,319.247 590.216,335.745 		"/>
		
			<rect x="574.749" y="319.247" fill="none" stroke="#6ECCC3" stroke-linecap="round" stroke-linejoin="round" width="7.542" height="7.731"/>
		<polyline fill="none" stroke="#FFFFFF" stroke-linecap="round" stroke-linejoin="round" points="565.518,308.994 565.518,336.076 
			611.537,336.076 611.537,308.729 		"/>
		<polyline fill="none" stroke="#FFFFFF" stroke-linecap="round" stroke-linejoin="round" points="563.693,310.424 588.379,289.672 
			613.556,310.424 		"/>
		<path fill="none" stroke="#FFFFFF" stroke-linecap="round" stroke-linejoin="round" d="M607.464,311.22"/>
	</g>
	<g>
		
			<rect x="188.646" y="113.891" fill="none" stroke="#FFFFFF" stroke-linecap="round" stroke-linejoin="round" width="37.465" height="6.577"/>
		
			<rect x="196.15" y="108.999" fill="none" stroke="#FFFFFF" stroke-linecap="round" stroke-linejoin="round" width="22.458" height="4.826"/>
		<polygon fill="none" stroke="#FFFFFF" stroke-linecap="round" stroke-linejoin="round" points="190.724,156.999 224.034,156.999 
			225.034,120.468 189.724,120.468 		"/>
		<g>
			
				<line fill="none" stroke="#6ECCC3" stroke-linecap="round" stroke-linejoin="round" x1="207.441" y1="125.249" x2="207.441" y2="152.374"/>
			
				<line fill="none" stroke="#6ECCC3" stroke-linecap="round" stroke-linejoin="round" x1="199.441" y1="127.249" x2="199.441" y2="150.374"/>
			
				<line fill="none" stroke="#6ECCC3" stroke-linecap="round" stroke-linejoin="round" x1="215.316" y1="127.249" x2="215.316" y2="150.374"/>
		</g>
	</g>
	<g>
		<path fill="none" stroke="#FFFFFF" stroke-linejoin="round" d="M588.625,403.473c13.932-0.466,13.145-13.492,13.145-13.492V370.22
			h-13.145l0,0H575.48v19.761C575.48,389.98,574.693,403.007,588.625,403.473L588.625,403.473L588.625,403.473"/>
		<path fill="none" stroke="#FFFFFF" stroke-linecap="round" stroke-linejoin="round" d="M575.078,373.271h-7.217
			c0,0-1.381,12.284,7.062,16.89"/>
		<path fill="none" stroke="#FFFFFF" stroke-linecap="round" stroke-linejoin="round" d="M602.172,373.271h7.215
			c0,0,1.383,12.284-7.062,16.89"/>
		<polygon fill="none" stroke="#6ECCC3" stroke-linecap="round" stroke-linejoin="round" points="588.625,377.213 591.301,381.936 
			596.266,382.764 592.953,387.024 593.348,391.746 588.625,390.17 583.902,391.746 584.297,387.024 580.984,382.764 
			585.949,381.936 		"/>
		<rect x="586.322" y="403.672" fill="none" stroke="#FFFFFF" stroke-linejoin="round" width="4.605" height="7.677"/>
		<polygon fill="none" stroke="#FFFFFF" stroke-linejoin="round" points="594.459,411.503 582.791,411.503 581.562,419.179 
			595.688,419.179 		"/>
	</g>
	<g>
		
			<line fill="none" stroke="#6ECCC3" stroke-linecap="round" stroke-linejoin="round" x1="211.975" y1="381.617" x2="220.305" y2="389.948"/>
		
			<line fill="none" stroke="#6ECCC3" stroke-linecap="round" stroke-linejoin="round" x1="214.273" y1="379.319" x2="222.604" y2="387.65"/>
		<polygon fill="none" stroke="#FFFFFF" stroke-linejoin="round" points="196.595,414.321 187.933,414.145 187.756,405.482 
			218.162,375.077 227.001,383.916 		"/>
		<polyline fill="none" stroke="#FFFFFF" stroke-linejoin="round" points="187.756,405.482 191.624,405.813 192.264,409.813 
			196.242,410.255 196.595,414.321 		"/>
		<polyline fill="none" stroke="#FFFFFF" stroke-linecap="round" stroke-linejoin="round" points="188.066,411.184 190.143,411.935 
			190.917,414.167 		"/>
	</g>
	<g>
		<path fill="none" stroke="#FFFFFF" stroke-linecap="round" stroke-linejoin="round" d="M498.357,414.637c-2,0-7.875,0-8.25,0
			c0,2.277,1.848,4.125,4.125,4.125C496.512,418.762,498.357,416.914,498.357,414.637z"/>
		<path fill="none" stroke="#FFFFFF" stroke-linecap="round" stroke-linejoin="round" d="M507.934,400.538v-10.89
			c0-13.512-13.021-13.24-13.857-13.209c-0.838-0.031-13.859-0.303-13.859,13.209v10.89c0,0-10.426,1.735-10.426,14.017
			c2.904,0,22.826,0,24.242,0c0.053,0,0.086,0,0.086,0c1.414,0,21.338,0,24.242,0C518.361,402.273,507.934,400.538,507.934,400.538z
			"/>
		<path fill="none" stroke="#6ECCC3" stroke-linecap="round" d="M498.982,381.387c0,0,5.125,1,5.125,6.75"/>
		<circle fill="none" stroke="#FFFFFF" stroke-linecap="round" stroke-linejoin="round" cx="494.232" cy="373.387" r="2.75"/>
	</g>
	<g>
		
			<line fill="none" stroke="#FFFFFF" stroke-linecap="round" stroke-linejoin="round" x1="275.094" y1="419.082" x2="323.094" y2="419.082"/>
		
			<line fill="none" stroke="#FFFFFF" stroke-linecap="round" stroke-linejoin="round" x1="299.094" y1="419.082" x2="299.094" y2="370.957"/>
		<path fill="none" stroke="#141414" stroke-linecap="round" stroke-linejoin="round" d="M323.094,419.082"/>
		<path fill="none" stroke="#6ECCC3" stroke-linecap="round" stroke-linejoin="round" d="M275.094,419.082
			c0,0,11.375,0,11.375-29.875c0-20.125,12.625-18.875,12.625-18.875"/>
		<path fill="none" stroke="#6ECCC3" stroke-linecap="round" stroke-linejoin="round" d="M323.094,419.082
			c0,0-11.375,0-11.375-29.875c0-20.125-12.625-18.875-12.625-18.875"/>
	</g>
	<g>
		<path fill="none" stroke="#6ECCC3" stroke-linejoin="round" d="M415.288,397.663c0.402-0.696,0.631-3.776,0.631-4.638
			c0-2.621-2.127-4.745-4.748-4.745s-4.748,2.124-4.748,4.745c0,0.887,0.244,3.988,0.666,4.699c0.828,1.391,2.346,2.646,4.082,2.646
			C412.933,400.371,414.468,399.087,415.288,397.663z"/>
		<path fill="none" stroke="#6ECCC3" stroke-linejoin="round" d="M401.286,410.664c1.359,0,8.031,0,9.791,0c0.035,0,0.076,0,0.107,0
			c1.76,0,8.434,0,9.793,0c0-4.328-3.41-10.604-6.547-9.035c-1.961,0.98-2.883,1.221-3.299,1.262
			c-0.395-0.039-1.23-0.253-2.955-1.092"/>
		<path fill="none" stroke="#6ECCC3" stroke-linejoin="round" d="M378.196,397.663c-0.401-0.696-0.63-3.776-0.63-4.638
			c0-2.621,2.126-4.745,4.747-4.745c2.622,0,4.747,2.124,4.747,4.745c0,0.887-0.242,3.988-0.665,4.699
			c-0.827,1.391-2.346,2.646-4.082,2.646C380.554,400.371,379.017,399.087,378.196,397.663z"/>
		<path fill="none" stroke="#6ECCC3" stroke-linejoin="round" d="M392.2,410.664c-1.359,0-8.033,0-9.792,0c-0.036,0-0.075,0-0.107,0
			c-1.759,0-8.433,0-9.792,0c0-4.328,3.408-10.604,6.546-9.035c1.961,0.98,2.882,1.221,3.3,1.262
			c0.393-0.039,1.23-0.253,2.954-1.092"/>
		<path fill="none" stroke="#FFFFFF" stroke-linejoin="round" d="M402.649,392.12c0.57-0.994,0.898-5.388,0.898-6.614
			c0-3.74-3.033-6.771-6.771-6.771c-3.741,0-6.772,3.031-6.772,6.771c0,1.264,0.346,5.688,0.948,6.7
			c1.181,1.983,3.348,3.775,5.824,3.775C399.288,395.981,401.479,394.149,402.649,392.12z"/>
		<path fill="none" stroke="#FFFFFF" stroke-linejoin="round" d="M401.425,397.776c-2.797,1.4-4.11,1.74-4.707,1.8
			c-0.597-0.06-1.911-0.399-4.708-1.8c-4.476-2.238-9.337,6.714-9.337,12.888c1.938,0,11.458,0,13.968,0c0.053,0,0.107,0,0.153,0
			c2.51,0,12.029,0,13.969,0C410.763,404.49,405.899,395.538,401.425,397.776z"/>
	</g>
	<g>
		
			<rect x="469.893" y="450.831" fill="none" stroke="#FFFFFF" stroke-linecap="round" stroke-linejoin="round" width="48.367" height="37.71"/>
		
			<rect x="479.115" y="466.025" fill="none" stroke="#6ECCC3" stroke-linecap="round" stroke-linejoin="round" width="7.568" height="7.568"/>
		
			<rect x="486.615" y="473.838" fill="none" stroke="#6ECCC3" stroke-linecap="round" stroke-linejoin="round" width="7.568" height="7.568"/>
		
			<rect x="486.74" y="466.025" fill="none" stroke="#6ECCC3" stroke-linecap="round" stroke-linejoin="round" width="7.568" height="7.568"/>
		
			<rect x="494.365" y="466.025" fill="none" stroke="#6ECCC3" stroke-linecap="round" stroke-linejoin="round" width="7.568" height="7.568"/>
		
			<rect x="494.24" y="473.838" fill="none" stroke="#6ECCC3" stroke-linecap="round" stroke-linejoin="round" width="7.568" height="7.568"/>
		
			<rect x="501.865" y="473.838" fill="none" stroke="#6ECCC3" stroke-linecap="round" stroke-linejoin="round" width="7.568" height="7.568"/>
		
			<line fill="none" stroke="#FFFFFF" stroke-linecap="round" stroke-linejoin="round" x1="518.062" y1="459.062" x2="470.336" y2="459.062"/>
		
			<line fill="none" stroke="#FFFFFF" stroke-linecap="round" stroke-linejoin="round" x1="506.973" y1="454.37" x2="506.973" y2="447.632"/>
		
			<line fill="none" stroke="#FFFFFF" stroke-linecap="round" stroke-linejoin="round" x1="481.066" y1="454.501" x2="481.066" y2="447.764"/>
	</g>
	<g>
		
			<line fill="none" stroke="#FFFFFF" stroke-linecap="round" stroke-linejoin="round" x1="322.969" y1="468.087" x2="283.219" y2="468.087"/>
		
			<line fill="none" stroke="#FFFFFF" stroke-linecap="round" stroke-linejoin="round" x1="322.969" y1="483.087" x2="283.219" y2="483.087"/>
		
			<line fill="none" stroke="#FFFFFF" stroke-linecap="round" stroke-linejoin="round" x1="322.969" y1="453.087" x2="283.219" y2="453.087"/>
		<circle fill="none" stroke="#6ECCC3" stroke-linecap="round" stroke-linejoin="round" cx="277.344" cy="468.087" r="2.125"/>
		<circle fill="none" stroke="#6ECCC3" stroke-linecap="round" stroke-linejoin="round" cx="277.344" cy="483.087" r="2.125"/>
		<circle fill="none" stroke="#6ECCC3" stroke-linecap="round" stroke-linejoin="round" cx="277.344" cy="453.087" r="2.125"/>
	</g>
	<g>
		<polygon fill="none" stroke="#FFFFFF" stroke-linecap="round" stroke-linejoin="round" points="222.462,444.173 183.465,444.173 
			183.465,492.001 231.293,492.001 231.293,453.308 		"/>
		<polyline fill="none" stroke="#6ECCC3" points="192.399,491.667 192.399,468.12 222.194,468.12 222.194,491.487 		"/>
		<polyline fill="none" stroke="#FFFFFF" stroke-linecap="round" stroke-linejoin="round" points="222.194,444.495 222.194,458.042 
			192.399,458.042 192.399,444.673 		"/>
		
			<rect x="210.509" y="447.876" fill="none" stroke="#FFFFFF" stroke-linecap="round" stroke-linejoin="round" width="6.779" height="6.785"/>
	</g>
	<g>
		
			<line fill="none" stroke="#6ECCC3" stroke-linecap="round" stroke-linejoin="round" x1="420.118" y1="462.024" x2="373.368" y2="462.024"/>
		<polygon fill="none" stroke="#FFFFFF" stroke-linecap="round" stroke-linejoin="round" points="372.993,453.774 372.993,448.774 
			389.243,448.774 390.618,453.774 420.493,453.774 420.493,487.399 372.993,487.399 		"/>
	</g>
	<g>
		<line fill="none" stroke="#FFFFFF" stroke-linejoin="round" x1="579.79" y1="487.372" x2="589.065" y2="479.128"/>
		<polyline fill="none" stroke="#FFFFFF" stroke-linecap="round" stroke-linejoin="round" points="584.079,475.669 609.529,451.155 
			576.405,472.798 		"/>
		<polygon fill="none" stroke="#FFFFFF" stroke-linejoin="round" points="579.938,487.226 576.405,472.649 564.479,465.142 
			612.769,448.212 603.641,487.962 584.06,475.741 		"/>
	</g>
</g>
</svg>
