<?xml version="1.0" encoding="UTF-8" standalone="no"?>
<svg width="90px" height="90px" viewBox="0 0 90 90" version="1.1" xmlns="http://www.w3.org/2000/svg" xmlns:xlink="http://www.w3.org/1999/xlink" xmlns:sketch="http://www.bohemiancoding.com/sketch/ns">
    <!-- Generator: Sketch 3.4.3 (16044) - http://www.bohemiancoding.com/sketch -->
    <title>ic_bell</title>
    <desc>Created with Sketch.</desc>
    <defs></defs>
    <g id="Page-1" stroke="none" stroke-width="1" fill="none" fill-rule="evenodd" sketch:type="MSPage">
        <g id="ic_bell" sketch:type="MSArtboardGroup">
            <g id="Group" sketch:type="MSLayerGroup" transform="translate(10.000000, 7.000000)">
                <path d="M50.25,44.2402663 C50.25,44.0987903 50.2454432,43.9583775 50.2364679,43.8191653 C50.2454603,43.5985039 50.25,43.376702 50.25,43.1538462 C50.25,34.2323233 42.9746272,27 34,27 C25.0253728,27 17.75,34.2323233 17.75,43.1538462 C17.75,43.3767724 17.7545426,43.598644 17.7635407,43.8193744 C17.7545598,43.9585208 17.75,44.0988639 17.75,44.2402663 L17.75,52.8461538 C17.739907,53.022949 17.75,53.2026105 17.75,53.3846154 C17.75,55.8829557 15.8482247,57.9397409 13.4052642,58.2024318 C10.4256109,58.2307692 8,60.6475948 8,63.6153846 C8,66.5892256 10.4210228,69 13.4177536,69 L54.5822464,69 C57.5743891,69 60,66.5831744 60,63.6153846 C60,60.6419032 57.5795626,58.2313522 54.5833333,58.2307693 C52.1598017,57.9484104 50.25,55.8882222 50.25,53.3846154 C50.25,53.2026105 50.260093,53.022949 50.2797531,52.8461538 L50.25,44.2402663 Z" id="Oval-42" fill="#F7D558" sketch:type="MSShapeGroup" transform="translate(34.000000, 48.000000) rotate(-330.000000) translate(-34.000000, -48.000000) "></path>
                <path d="M46,39.0088187 C46,38.8774482 45.9957937,38.7470648 45.9875088,38.6177963 C45.9958095,38.4128964 46,38.2069376 46,38 C46,29.7157288 39.2842712,23 31,23 C22.7157288,23 16,29.7157288 16,38 C16,38.207003 16.0041931,38.4130266 16.0124991,38.6179906 C16.004209,38.7471978 16,38.8775165 16,39.0088187 L16,47 C15.9906833,47.1641669 16,47.3309955 16,47.5 C16,49.8198874 14.2445151,51.7297594 11.9894747,51.9736866 C9.23902544,52 7,54.2441952 7,57 C7,59.7614237 9.23479023,62 12.0010033,62 L49.9989967,62 C52.7609746,62 55,59.7558048 55,57 C55,54.2389101 52.7657501,52.0005413 50,52.0000001 C47.7628938,51.7378096 46,49.8247778 46,47.5 C46,47.3309955 46.0093167,47.1641669 46.0274644,47 L46,39.0088187 Z" id="Oval-42-Copy" stroke="#2B2D2B" stroke-width="4" sketch:type="MSShapeGroup" transform="translate(31.000000, 42.500000) rotate(-330.000000) translate(-31.000000, -42.500000) "></path>
                <path d="M37.5506288,39.6243318 C36.9972124,38.0644002 36.1613039,36.6425595 35.105978,35.4231859 M38.3325144,50.9000826 C38.3297968,50.0930467 38.3260841,48.9904863 38.3237305,48.2915183" id="Oval-42-Copy-2" stroke="#FFFFFF" stroke-width="3" stroke-linecap="round" sketch:type="MSShapeGroup" transform="translate(36.719246, 43.161634) rotate(-330.000000) translate(-36.719246, -43.161634) "></path>
                <g id="Rectangle-18-Copy-3-+-Rectangle-18-+-Rectangle-18-Copy-+-Oval-42" transform="translate(48.549038, 16.218911) rotate(-330.000000) translate(-48.549038, -16.218911) translate(30.549038, 8.218911)" sketch:type="MSShapeGroup">
                    <path d="M2.63480606,5.97364497 C2.61796538,2.32194217 4.95699804,1.15189969 7.86266494,3.36293245 L10.6758007,5.50355474 C11.5575044,6.17447675 12.9752916,7.27078754 13.8524311,7.9600238 L16.1552353,9.76951501 C17.0279361,10.4552634 16.9157335,11.3723001 15.9054111,11.8174269 L8.74367442,14.9727375 C5.39955487,16.4460862 2.67497287,14.6833479 2.6581176,11.0284786 L2.63480606,5.97364497 Z M35.1339746,5.91193045 C35.1339746,1.70973468 31.9475706,-0.470014882 28.023253,1.04089374 L20.0547428,4.10886431 C19.0267178,4.50466607 18.5889277,5.63573353 19.0717097,6.62452096 L20.4384314,9.42370843 C20.9235422,10.4172655 22.1193945,11.6153878 23.108991,12.0995686 L28.2861077,14.6325815 C32.0680801,16.4829908 35.1339746,14.5775409 35.1339746,10.3742955 L35.1339746,5.91193045 Z" id="Rectangle-18-Copy-3" fill="#9E74F2"></path>
                    <g id="Rectangle-18-+-Rectangle-18-Copy-+-Oval-42" transform="translate(0.000000, 2.000000)">
                        <path d="M4.26325641e-14,4.27752668 C4.26325641e-14,1.09536199 2.37081385,-0.451894839 5.28083738,0.81530737 L10.1643957,2.94190731 C11.178172,3.3833675 12,4.63672194 12,5.73268728 L12,6.51065027 C12,7.6104953 11.1751914,8.86126797 10.1643957,9.30143024 L5.28083738,11.4280302 C2.36431143,12.6980639 4.26325641e-14,11.1471345 4.26325641e-14,7.96581088 L4.26325641e-14,4.27752668 Z" id="Rectangle-18" stroke="#2B2D2B" stroke-width="4"></path>
                        <path d="M20,4.27752668 C20,1.09536199 22.3708138,-0.451894839 25.2808374,0.81530737 L30.1643957,2.94190731 C31.178172,3.3833675 32,4.63672194 32,5.73268728 L32,6.51065027 C32,7.6104953 31.1751914,8.86126797 30.1643957,9.30143024 L25.2808374,11.4280302 C22.3643114,12.6980639 20,11.1471345 20,7.96581088 L20,4.27752668 Z" id="Rectangle-18-Copy" stroke="#2B2D2B" stroke-width="4" transform="translate(26.000000, 6.122201) scale(-1, 1) translate(-26.000000, -6.122201) "></path>
                        <circle id="Oval-42" fill="#9E74F1" cx="15.5" cy="6.5" r="5.5"></circle>
                        <circle id="Oval-42-Copy-4" stroke="#2B2D2B" stroke-width="4" cx="15.5" cy="6.5" r="5.5"></circle>
                    </g>
                </g>
            </g>
        </g>
    </g>
</svg>