<?xml version="1.0" encoding="UTF-8" standalone="no"?>
<svg width="90px" height="90px" viewBox="0 0 90 90" version="1.1" xmlns="http://www.w3.org/2000/svg" xmlns:xlink="http://www.w3.org/1999/xlink" xmlns:sketch="http://www.bohemiancoding.com/sketch/ns">
    <!-- Generator: Sketch 3.4.3 (16044) - http://www.bohemiancoding.com/sketch -->
    <title>ic_candy</title>
    <desc>Created with Sketch.</desc>
    <defs></defs>
    <g id="Page-1" stroke="none" stroke-width="1" fill="none" fill-rule="evenodd" sketch:type="MSPage">
        <g id="ic_candy" sketch:type="MSArtboardGroup">
            <g id="Oval-7-Copy-+-Rectangle-+-Rectangle-Copy" sketch:type="MSLayerGroup" transform="translate(19.000000, 10.000000)">
                <path d="M36,23 L35.9985121,23 C35.9032351,16.6047849 31.2465343,12 26.2,12 C19.7678681,12 15.0969131,16.6047849 15.0014894,23 L14.9835977,23 C14.9944753,23.1652618 15,23.3319857 15,23.5 C15,27.6421356 11.6421356,31 7.5,31 C3.35786438,31 0,27.6421356 0,23.5 C0,20.3417778 1.95209022,17.6394907 4.7155088,16.5339006 C7.25640733,7.02795453 16.2701642,0 27,0 C39.7025492,0 50,9.8497355 50,22 C50,22.3039998 49.9935538,22.6065595 49.980785,22.9075608 C49.993388,22.9421673 50,22.9731281 50,23 L50,59 C50,62.8659932 46.8659932,66 43,66 C39.1340068,66 36,62.8659932 36,59 L36,23 Z" id="color" fill="#EA5D5D" sketch:type="MSShapeGroup"></path>
                <path d="M33,25 C33,19.4544227 28.9377657,15 24,15 C18.2532949,15 14,19.2532949 14,25 C14,27.7614237 11.7614237,30 9,30 C6.23857625,30 4,27.7614237 4,25 C4,24.8404704 4.00740736,24.6821421 4.02210601,24.5252832 C4.57712239,14.1283177 13.1229771,6 23.5,6 C33.9518496,6 42.5342201,14.2419215 42.9816785,24.6461982 C42.9947069,24.848995 42.9992819,24.9721562 43.0002649,25.0325478 L43,60 C43,62.7614237 40.7614237,65 38,65 C35.2385763,65 33,62.7614237 33,60 L33,25 L33,25 Z M29,25 L29,60 C29,64.9705627 33.0294373,69 38,69 C42.9705627,69 47,64.9705627 47,60 L47,25 C46.9977283,24.8441516 46.9907242,24.6555984 46.9753451,24.4263783 C46.4385723,11.9319488 36.0963646,2 23.5,2 C10.9937216,2 0.69565903,11.7949154 0.0336564937,24.2323858 C0.0132335716,24.4329641 0,24.7158245 0,25 C0,29.9705627 4.02943725,34 9,34 C13.9705627,34 18,29.9705627 18,25 C18,21.4624339 20.4624339,19 24,19 C26.6421478,19 29,21.5854911 29,25 L29,25 Z" id="Shape" fill="#2B2D2B" sketch:type="MSShapeGroup"></path>
                <path d="M14.9679431,12.5575443 C14.3186191,12.986462 13.7034689,13.462934 13.127454,13.9819989 C12.0556173,14.9478641 11.1192868,16.0612067 10.3504301,17.2900591" id="Path-Copy-2" stroke="#FBFBFB" stroke-width="3" stroke-linecap="round" sketch:type="MSShapeGroup"></path>
                <path d="M8.5,24 L8.5,25" id="Rectangle" stroke="#FFFFFF" stroke-width="3" stroke-linecap="round" sketch:type="MSShapeGroup"></path>
            </g>
        </g>
    </g>
</svg>