<?xml version="1.0" encoding="UTF-8" standalone="no"?>
<svg width="90px" height="90px" viewBox="0 0 90 90" version="1.1" xmlns="http://www.w3.org/2000/svg" xmlns:xlink="http://www.w3.org/1999/xlink" xmlns:sketch="http://www.bohemiancoding.com/sketch/ns">
    <!-- Generator: Sketch 3.4.3 (16044) - http://www.bohemiancoding.com/sketch -->
    <title>ic_deer</title>
    <desc>Created with Sketch.</desc>
    <defs></defs>
    <g id="Page-1" stroke="none" stroke-width="1" fill="none" fill-rule="evenodd" sketch:type="MSPage">
        <g id="ic_deer" sketch:type="MSArtboardGroup">
            <g id="Group" sketch:type="MSLayerGroup" transform="translate(14.000000, 12.000000)">
                <path d="M14,8.70668435 L14,6 C14,4.8954305 14.8954305,4 16,4 C17.1045695,4 18,4.8954305 18,6 L18,13.7066844 C18,14.8112539 17.1045695,15.7066844 16,15.7066844 C14.8954305,15.7066844 14,14.8112539 14,13.7066844 L14,12.7066844 L2.29530001,12.7066844 C2.24563982,12.7066844 2.19640236,12.7048744 2.14765,12.7013169 C2.09889765,12.7048744 2.04966019,12.7066844 2,12.7066844 C0.8954305,12.7066844 0,11.8112539 0,10.7066844 L0,3 C0,1.8954305 0.8954305,1 2,1 C3.1045695,1 4,1.8954305 4,3 L4,8.70668435 L7,8.70668435 L7,3 C7,1.8954305 7.8954305,1 9,1 C10.1045695,1 11,1.8954305 11,3 L11,8.70668435 L14,8.70668435 Z" id="Path-58" fill="#2B2D2B" sketch:type="MSShapeGroup"></path>
                <path d="M57.7008772,8.70087719 L57.7008772,5.99419284 C57.7008772,4.88962334 58.5963077,3.99419284 59.7008772,3.99419284 C60.8054467,3.99419284 61.7008772,4.88962334 61.7008772,5.99419284 L61.7008772,13.7008772 C61.7008772,14.8054467 60.8054467,15.7008772 59.7008772,15.7008772 C58.5963077,15.7008772 57.7008772,14.8054467 57.7008772,13.7008772 L57.7008772,12.7008772 L45.9961772,12.7008772 C45.946517,12.7008772 45.8972796,12.6990673 45.8485272,12.6955098 C45.7997748,12.6990673 45.7505374,12.7008772 45.7008772,12.7008772 C44.5963077,12.7008772 43.7008772,11.8054467 43.7008772,10.7008772 L43.7008772,2.99419284 C43.7008772,1.88962334 44.5963077,0.994192839 45.7008772,0.994192839 C46.8054467,0.994192839 47.7008772,1.88962334 47.7008772,2.99419284 L47.7008772,8.70087719 L50.7008772,8.70087719 L50.7008772,2.99419284 C50.7008772,1.88962334 51.5963077,0.994192839 52.7008772,0.994192839 C53.8054467,0.994192839 54.7008772,1.88962334 54.7008772,2.99419284 L54.7008772,8.70087719 L57.7008772,8.70087719 Z" id="Path-58-Copy-4" fill="#2B2D2B" sketch:type="MSShapeGroup" transform="translate(52.700877, 8.347535) scale(-1, 1) translate(-52.700877, -8.347535) "></path>
                <path d="M20,22.5016592 L20,45.413117 C20,54.0281417 27.1600097,61 36,61 C44.8378224,61 52,54.0219513 52,45.413117 L52,22.5016592 C52,19.4643892 49.4719406,17 46.3536237,17 L25.6463763,17 C22.5251236,17 20,19.4625156 20,22.5016592 L20,22.5016592 Z" id="Shape" fill="#D79D68" sketch:type="MSShapeGroup"></path>
                <path d="M18,25.00181 C18,23.8943742 18.89323,23 19.9992748,23 L42.0007252,23 C43.1040106,23 44,23.8967771 44,25.00181 L44,49.9961276 C44,57.1787504 38.180741,63 31,63 C23.8164319,63 18,57.18498 18,49.9961276 L18,25.00181 L18,25.00181 Z M14,25.00181 L14,49.9961276 C14,59.3943364 21.6075103,67 31,67 C40.3901863,67 48,59.3875832 48,49.9961276 L48,25.00181 C48,21.6884246 45.3139369,19 42.0007252,19 L19.9992748,19 C16.6829439,19 14,21.6863807 14,25.00181 L14,25.00181 Z" id="Shape" fill="#2B2D2B" sketch:type="MSShapeGroup"></path>
                <circle id="Oval-25" fill="#2B2D2B" sketch:type="MSShapeGroup" cx="25.5" cy="40.5" r="3.5"></circle>
                <circle id="Oval-27" fill="#AB1313" sketch:type="MSShapeGroup" cx="31" cy="52" r="4"></circle>
                <circle id="Oval-25-Copy" fill="#2B2D2B" sketch:type="MSShapeGroup" cx="36.5" cy="40.5" r="3.5"></circle>
                <g id="Path-34-+-Path-34-Copy" transform="translate(32.500000, 27.500000) rotate(-270.000000) translate(-32.500000, -27.500000) translate(31.000000, 21.000000)" stroke="#FFFFFF" stroke-width="3" sketch:type="MSShapeGroup" stroke-linecap="round" stroke-linejoin="round">
                    <path d="M1.5,9 L1.5,13" id="Path-34"></path>
                    <path d="M1.5,0 L1.5,1" id="Path-34-Copy"></path>
                </g>
            </g>
        </g>
    </g>
</svg>