<?xml version="1.0" encoding="UTF-8" standalone="no"?>
<svg width="90px" height="90px" viewBox="0 0 90 90" version="1.1" xmlns="http://www.w3.org/2000/svg" xmlns:xlink="http://www.w3.org/1999/xlink" xmlns:sketch="http://www.bohemiancoding.com/sketch/ns">
    <!-- Generator: Sketch 3.4.3 (16044) - http://www.bohemiancoding.com/sketch -->
    <title>ic_gift</title>
    <desc>Created with Sketch.</desc>
    <defs></defs>
    <g id="Page-1" stroke="none" stroke-width="1" fill="none" fill-rule="evenodd" sketch:type="MSPage">
        <g id="ic_gift" sketch:type="MSArtboardGroup">
            <g id="Group" sketch:type="MSLayerGroup" transform="translate(19.000000, 12.000000)">
                <rect id="Rectangle-8" fill="#55D1BF" sketch:type="MSShapeGroup" x="10" y="27" width="47" height="41" rx="3"></rect>
                <path d="M6,17 L58.0039024,17 C59.6586014,17 61,18.3455902 61,20.008788 L61,34.991212 C61,36.6529197 59.6530817,38 57.990294,38 L17.8064598,38 C15.9826087,38 14.1587577,36 12.3349067,36 L6,36 L6,17 Z" id="Rectangle-8-Copy" fill="#55D1BF" sketch:type="MSShapeGroup"></path>
                <rect id="Rectangle-6" stroke="#2B2D2B" stroke-width="4" sketch:type="MSShapeGroup" x="0" y="17" width="54" height="17" rx="1"></rect>
                <g id="Oval-17-+-Oval-17-Copy" transform="translate(13.000000, 0.000000)" stroke="#2B2D2B" stroke-width="4" sketch:type="MSShapeGroup">
                    <path d="M8.13172798,17.631728 C8.13172798,17.631728 13.131728,12.3931517 13.131728,9.63172798 C13.131728,6.87030423 10.8931517,4.63172798 8.13172798,4.63172798 C5.37030423,4.63172798 3.13172798,6.87030423 3.13172798,9.63172798 C3.13172798,12.3931517 8.13172798,17.631728 8.13172798,17.631728 Z" id="Oval-17" transform="translate(8.131728, 11.131728) rotate(-45.000000) translate(-8.131728, -11.131728) "></path>
                    <path d="M21.6066017,19.1066017 C21.6066017,19.1066017 28.1066017,12.2561559 28.1066017,8.64506326 C28.1066017,5.03397066 25.1964526,2.10660172 21.6066017,2.10660172 C18.0167508,2.10660172 15.1066017,5.03397066 15.1066017,8.64506326 C15.1066017,12.2561559 21.6066017,19.1066017 21.6066017,19.1066017 Z" id="Oval-17-Copy" transform="translate(21.606602, 10.606602) scale(-1, 1) rotate(-45.000000) translate(-21.606602, -10.606602) "></path>
                </g>
                <rect id="Rectangle-6-Copy" stroke="#2B2D2B" stroke-width="4" sketch:type="MSShapeGroup" transform="translate(27.000000, 47.500000) scale(1, -1) translate(-27.000000, -47.500000) " x="4" y="34" width="46" height="27" rx="1"></rect>
                <path d="M42.5,49 L42.5,54" id="Path-34" stroke="#FFFFFF" stroke-width="3" stroke-linecap="round" stroke-linejoin="round" sketch:type="MSShapeGroup"></path>
                <path d="M42.5,41 L42.5,42" id="Path-34-Copy" stroke="#FFFFFF" stroke-width="3" stroke-linecap="round" stroke-linejoin="round" sketch:type="MSShapeGroup"></path>
            </g>
        </g>
    </g>
</svg>