<?xml version="1.0" encoding="UTF-8" standalone="no"?>
<svg width="90px" height="90px" viewBox="0 0 90 90" version="1.1" xmlns="http://www.w3.org/2000/svg" xmlns:xlink="http://www.w3.org/1999/xlink" xmlns:sketch="http://www.bohemiancoding.com/sketch/ns">
    <!-- Generator: Sketch 3.4.3 (16044) - http://www.bohemiancoding.com/sketch -->
    <title>ic_mitten</title>
    <desc>Created with Sketch.</desc>
    <defs></defs>
    <g id="Page-1" stroke="none" stroke-width="1" fill="none" fill-rule="evenodd" sketch:type="MSPage">
        <g id="ic_mitten" sketch:type="MSArtboardGroup">
            <g id="Group" sketch:type="MSLayerGroup" transform="translate(16.000000, 13.000000)">
                <path d="M7.25529892,42.9941847 C5.31907408,41.9686637 4,39.9331332 4,37.5895164 C4,34.2139796 6.73641325,31.4775664 10.1119501,31.4775664 C11.2164954,31.4775664 12.2526076,31.7705633 13.1468048,32.2830752 L15.2741351,32.9809617 L14.4475569,21.6351571 C13.685346,11.1728725 21.464026,4.00899496 31.8252723,5.63474531 L35.0121949,6.13479523 C45.371853,7.76029638 53.1165793,17.5439162 52.3092763,28.0033009 L50.7636106,48.0288856 C50.2533077,54.6403495 44.4751448,60 37.8405521,60 L29.2416319,60 C26.0126197,60 22.9886982,58.7260772 20.6810475,56.6566643 C20.5205821,57.4922642 20.3154448,58.0959843 20.3154448,58.0959843 L20.5493199,56.5369557 C18.6283468,54.7679303 17.2227529,52.4407397 16.638248,49.8415091 C13.2182595,47.3457297 9.18067225,44.3992499 7.25529892,42.9941847 Z" id="Oval-49" fill="#758DEA" sketch:type="MSShapeGroup"></path>
                <path d="M3.19567295,37.3056732 C1.29491315,36.2989363 0,34.3006897 0,32 C0,28.6862915 2.6862915,26 6,26 C7.08431381,26 8.10144799,26.2876302 8.97926654,26.7907547 L11.0676314,27.4758583 L10.2561933,16.33787 C9.50794351,6.06721882 17.1441447,-0.965440948 27.3156083,0.630531205 L30.4441573,1.12142192 C40.6140619,2.71714944 48.2169312,12.3215667 47.4244153,22.5893712 L45.9241826,42.0263272 C45.4137706,48.6392041 39.6258815,54 32.9933381,54 L25.0066619,54 C21.7537719,54 18.7091126,52.7111022 16.3943239,50.6176385 C16.2345406,51.4894636 16.0166016,52.1308594 16.0166016,52.1308594 L16.261824,50.4961883 C14.4170579,48.7824422 13.0538802,46.5510587 12.4462203,44.0563758 L3.19567295,37.3056732 Z" id="Oval-49-Copy" stroke="#2B2D2B" stroke-width="4" sketch:type="MSShapeGroup"></path>
                <path d="M39.2428866,23.9412503 C39.0623846,26.2798261 38.8465133,29.0766472 38.6421939,31.7238011 M38.0193045,39.7939311 C37.9587316,40.5787112 37.9233698,41.0368578 37.9233698,41.0368578" id="Oval-49-Copy-2" stroke="#FFFFFF" stroke-width="3" stroke-linecap="round" sketch:type="MSShapeGroup"></path>
                <rect id="Rectangle-34" stroke="#2B2D2B" stroke-width="4" fill="#EDF9FF" sketch:type="MSShapeGroup" x="13" y="51" width="33" height="11" rx="4"></rect>
            </g>
        </g>
    </g>
</svg>