<?xml version="1.0" encoding="UTF-8" standalone="no"?>
<svg width="90px" height="90px" viewBox="0 0 90 90" version="1.1" xmlns="http://www.w3.org/2000/svg" xmlns:xlink="http://www.w3.org/1999/xlink" xmlns:sketch="http://www.bohemiancoding.com/sketch/ns">
    <!-- Generator: Sketch 3.4.3 (16044) - http://www.bohemiancoding.com/sketch -->
    <title>ic_snowman</title>
    <desc>Created with Sketch.</desc>
    <defs></defs>
    <g id="Page-1" stroke="none" stroke-width="1" fill="none" fill-rule="evenodd" sketch:type="MSPage">
        <g id="ic_snowman" sketch:type="MSArtboardGroup">
            <g id="Group" sketch:type="MSLayerGroup" transform="translate(-7.000000, 0.000000)">
                <circle id="Oval-53" fill="#C3E3FA" sketch:type="MSShapeGroup" cx="58" cy="52" r="24"></circle>
                <path d="M29.4353818,45.9743596 C29.1496887,47.4388218 29,48.9519301 29,50.5 C29,63.4786916 39.5213084,74 52.5,74 L52.5,74 C65.4786916,74 76,63.4786916 76,50.5 C76,37.5213084 65.4786916,27 52.5,27" id="Oval-120" stroke="#2B2D2B" stroke-width="4" sketch:type="MSShapeGroup"></path>
                <path d="M50.5,52 C52.4329966,52 54,50.4329966 54,48.5 C54,46.5670034 52.4329966,45 50.5,45 C48.5670034,45 47,46.5670034 47,48.5 C47,50.4329966 48.5670034,52 50.5,52 Z M61.5,52 C63.4329966,52 65,50.4329966 65,48.5 C65,46.5670034 63.4329966,45 61.5,45 C59.5670034,45 58,46.5670034 58,48.5 C58,50.4329966 59.5670034,52 61.5,52 Z" id="Oval-25" fill="#2B2D2B" sketch:type="MSShapeGroup"></path>
                <g id="Rectangle-38-+-Rectangle-39" transform="translate(37.680572, 29.473300) rotate(-13.000000) translate(-37.680572, -29.473300) translate(4.680572, 6.973300)" sketch:type="MSShapeGroup">
                    <g id="Group" transform="translate(32.990654, 22.510784) rotate(-21.000000) translate(-32.990654, -22.510784) translate(2.490654, 10.510784)">
                        <path d="M19.3903952,21.5567938 L19.1861679,5.09130746 C19.1656332,3.43572953 20.4945259,2.09361845 22.1564064,2.09361845 L51.158808,2.09361845 C53.3625227,2.09361845 55.1711306,3.87894312 55.1986617,6.09859894 C55.1986617,6.09859894 55.3242165,16.2212491 55.3870179,21.2845111" id="Rectangle-39-Copy-2" fill="#5B626C"></path>
                        <rect id="Rectangle-38" fill="#2B2D2B" x="0.881614193" y="19.6580751" width="60" height="4" rx="4"></rect>
                        <rect id="Rectangle-39-Copy" stroke="#2B2D2B" stroke-width="4" x="13.3816142" y="0.658075145" width="36" height="21" rx="4"></rect>
                        <path d="M41.5866537,6.89552915 L41.5866537,7.94274016 M41.4555084,12.856338 L41.5866537,15.5017388" id="Rectangle-39-Copy-3" stroke="#FFFFFF" stroke-width="3" stroke-linecap="round"></path>
                    </g>
                </g>
                <path d="M54,56.7539601 C54,54.7307467 55.5734147,53.5778962 57.5020424,54.175194 L66.1704559,56.8598099 C68.0196237,57.4324989 68.0024193,58.3071657 66.1322088,58.8133841 L57.5408446,61.1388481 C55.5852901,61.6681669 54,60.4662271 54,58.4339127 L54,56.7539601 Z" id="Rectangle-37" stroke="#2B2D2B" stroke-width="4" fill="#F07B25" sketch:type="MSShapeGroup"></path>
            </g>
        </g>
    </g>
</svg>