<?xml version="1.0" encoding="UTF-8" standalone="no"?>
<svg width="90px" height="90px" viewBox="0 0 90 90" version="1.1" xmlns="http://www.w3.org/2000/svg" xmlns:xlink="http://www.w3.org/1999/xlink" xmlns:sketch="http://www.bohemiancoding.com/sketch/ns">
    <!-- Generator: Sketch 3.4.3 (16044) - http://www.bohemiancoding.com/sketch -->
    <title>ic_snowflake</title>
    <desc>Created with Sketch.</desc>
    <defs></defs>
    <g id="Page-1" stroke="none" stroke-width="1" fill="none" fill-rule="evenodd" sketch:type="MSPage">
        <g id="ic_snowflake" sketch:type="MSArtboardGroup">
            <g id="Group" sketch:type="MSLayerGroup" transform="translate(9.000000, 9.000000)">
                <path d="M35,7.99478281 C35,5.23624043 37.2392729,3 40.0010987,3 L40.9989013,3 C43.7609319,3 46,5.24565156 46,7.99478281 L46,13.0052172 C46,15.7637596 43.7607271,18 40.9989013,18 L40.0010987,18 C37.2390681,18 35,15.7543484 35,13.0052172 L35,7.99478281 Z M35,64.9947828 C35,62.2362404 37.2392729,60 40.0010987,60 L40.9989013,60 C43.7609319,60 46,62.2456516 46,64.9947828 L46,70.0052172 C46,72.7637596 43.7607271,75 40.9989013,75 L40.0010987,75 C37.2390681,75 35,72.7543484 35,70.0052172 L35,64.9947828 Z" id="Rectangle-23" fill="#52B4FF" sketch:type="MSShapeGroup"></path>
                <path d="M31,4.99478281 C31,2.23624043 33.2441952,0 36,0 L36,0 C38.7614237,0 41,2.24565156 41,4.99478281 L41,10.0052172 C41,12.7637596 38.7558048,15 36,15 L36,15 C33.2385763,15 31,12.7543484 31,10.0052172 L31,4.99478281 Z M31,61.9947828 C31,59.2362404 33.2441952,57 36,57 L36,57 C38.7614237,57 41,59.2456516 41,61.9947828 L41,67.0052172 C41,69.7637596 38.7558048,72 36,72 L36,72 C33.2385763,72 31,69.7543484 31,67.0052172 L31,61.9947828 Z" id="Rectangle-23" stroke="#2B2D2B" stroke-width="4" sketch:type="MSShapeGroup"></path>
                <path d="M34.9222791,46.0331738 L30.9156412,46.4688601 C27.583977,46.8311491 26.4831196,44.9392152 28.4674825,42.228525 L30.8481169,38.976518 C31.2429236,38.437202 31.2407947,37.5598899 30.8481169,37.023482 L26.4674825,32.771475 C24.487899,30.0673136 25.5759331,28.1679762 28.9156412,28.5311399 L34.9222791,29.9668262 C35.5867437,30.0390808 36.3454539,29.5985811 36.6136578,28.9903082 L38.2396613,25.3026149 C39.591742,22.2361646 41.7806335,22.2287611 43.1359786,25.3026149 L44.7619821,28.9903082 C45.0316401,29.6018789 45.7924791,30.0386912 46.4533608,29.9668262 L50.4599987,29.5311399 C53.7916629,29.1688509 54.8925203,31.0607848 52.9081573,33.771475 L50.527523,37.023482 C50.1327163,37.562798 50.1348452,38.4401101 50.527523,38.976518 L52.9081573,42.228525 C54.8877408,44.9326864 53.7997067,46.8320238 50.4599987,46.4688601 L46.4533608,46.0331738 C45.7888961,45.9609192 45.030186,46.4014189 44.7619821,47.0096918 L43.1359786,50.6973851 C41.7838979,53.7638354 39.5950064,53.7712389 38.2396613,50.6973851 L36.6136578,47.0096918 C36.3439998,46.3981211 35.5831608,45.9613088 34.9222791,46.0331738 Z" id="Star-3" fill="#52B4FF" sketch:type="MSShapeGroup"></path>
                <path d="M32.2851065,44.2151971 C32.0392276,43.6575561 31.3454811,43.2592628 30.7428774,43.3247907 L27.0895537,43.7220572 C24.0516831,44.0523987 23.0479018,42.3272997 24.8572792,39.8556442 L27.0279839,36.8904064 C27.3879757,36.3986485 27.3860345,35.5986998 27.0279839,35.1095936 L24.8572792,32.1443558 C23.0522597,29.6786534 24.0443486,27.9468038 27.0895537,28.2779428 L30.7428774,28.6752093 C31.3487481,28.7410924 32.0405534,28.3394369 32.2851065,27.7848029 L33.7677254,24.4222986 C35.0005766,21.6262547 36.9964468,21.619504 38.2322746,24.4222986 L39.7148935,27.7848029 C39.9607724,28.3424439 40.6545189,28.7407372 41.2571226,28.6752093 L44.9104463,28.2779428 C47.9483169,27.9476013 48.9520982,29.6727003 47.1427208,32.1443558 L44.9720161,35.1095936 C44.6120243,35.6013515 44.6139655,36.4013002 44.9720161,36.8904064 L47.1427208,39.8556442 C48.9477403,42.3213466 47.9556514,44.0531962 44.9104463,43.7220572 L41.2571226,43.3247907 C40.6512519,43.2589076 39.9594466,43.6605631 39.7148935,44.2151971 L38.2322746,47.5777014 C36.9994234,50.3737453 35.0035532,50.380496 33.7677254,47.5777014 L32.2851065,44.2151971 L32.2851065,44.2151971 Z" id="Star-3-Copy" stroke="#2B2D2B" stroke-width="4" sketch:type="MSShapeGroup"></path>
                <path d="M38.237793,37.6625977 C37.6905162,37.6030862 37.5765271,37.9197072 37.3556248,38.4207024" id="Star-3-Copy-2" stroke="#FFFFFF" stroke-width="3" stroke-linecap="round" sketch:type="MSShapeGroup"></path>
                <circle id="Oval-46" fill="#FFFFFF" sketch:type="MSShapeGroup" cx="32.5" cy="34.5" r="1.5"></circle>
                <rect id="Rectangle-24" stroke="#2B2D2B" stroke-width="4" fill="#9FE3FC" sketch:type="MSShapeGroup" transform="translate(55.000000, 17.000000) rotate(-315.000000) translate(-55.000000, -17.000000) " x="50" y="12" width="10" height="10" rx="2"></rect>
                <rect id="Rectangle-24-Copy" stroke="#2B2D2B" stroke-width="4" fill="#9FE3FC" sketch:type="MSShapeGroup" transform="translate(17.000000, 17.000000) scale(-1, 1) rotate(-315.000000) translate(-17.000000, -17.000000) " x="12" y="12" width="10" height="10" rx="2"></rect>
                <rect id="Rectangle-24-Copy-3" stroke="#2B2D2B" stroke-width="4" fill="#9FE3FC" sketch:type="MSShapeGroup" transform="translate(55.000000, 55.000000) rotate(-315.000000) translate(-55.000000, -55.000000) " x="50" y="50" width="10" height="10" rx="2"></rect>
                <rect id="Rectangle-24-Copy-2" stroke="#2B2D2B" stroke-width="4" fill="#9FE3FC" sketch:type="MSShapeGroup" transform="translate(17.000000, 55.000000) scale(-1, 1) rotate(-315.000000) translate(-17.000000, -55.000000) " x="12" y="50" width="10" height="10" rx="2"></rect>
                <g id="Rectangle-23-+-Rectangle-23" transform="translate(38.500000, 38.000000) rotate(-270.000000) translate(-38.500000, -38.000000) translate(31.500000, -0.500000)" sketch:type="MSShapeGroup">
                    <path d="M3,4.99478281 C3,2.23624043 5.23927286,0 8.00109867,0 L8.99890133,0 C11.7609319,0 14,2.24565156 14,4.99478281 L14,10.0052172 C14,12.7637596 11.7607271,15 8.99890133,15 L8.00109867,15 C5.23906814,15 3,12.7543484 3,10.0052172 L3,4.99478281 Z M3,61.9947828 C3,59.2362404 5.23927286,57 8.00109867,57 L8.99890133,57 C11.7609319,57 14,59.2456516 14,61.9947828 L14,67.0052172 C14,69.7637596 11.7607271,72 8.99890133,72 L8.00109867,72 C5.23906814,72 3,69.7543484 3,67.0052172 L3,61.9947828 Z" id="Rectangle-23" fill="#52B4FF"></path>
                    <path d="M-7.10542736e-15,9.99478281 C-7.10542736e-15,7.23624043 2.24419519,5 5,5 L5,5 C7.76142375,5 10,7.24565156 10,9.99478281 L10,15.0052172 C10,17.7637596 7.75580481,20 5,20 L5,20 C2.23857625,20 -7.10542736e-15,17.7543484 -7.10542736e-15,15.0052172 L-7.10542736e-15,9.99478281 Z M-7.10542736e-15,66.9947828 C-7.10542736e-15,64.2362404 2.24419519,62 5,62 L5,62 C7.76142375,62 10,64.2456516 10,66.9947828 L10,72.0052172 C10,74.7637596 7.75580481,77 5,77 L5,77 C2.23857625,77 -7.10542736e-15,74.7543484 -7.10542736e-15,72.0052172 L-7.10542736e-15,66.9947828 Z" id="Rectangle-23" stroke="#2B2D2B" stroke-width="4"></path>
                </g>
            </g>
        </g>
    </g>
</svg>