<?xml version="1.0" encoding="utf-8"?>
<!-- Generator: Adobe Illustrator 19.1.0, SVG Export Plug-In . SVG Version: 6.00 Build 0)  -->
<svg version="1.1" id="Layer_1" xmlns="http://www.w3.org/2000/svg" xmlns:xlink="http://www.w3.org/1999/xlink" x="0px" y="0px"
	 viewBox="0 0 100 100" enable-background="new 0 0 100 100" xml:space="preserve">
<path d="M67.2,55.5l-1.7-3.7c3.7-1.2,6.4-4.6,6.4-8.7c0-5-4.1-9.2-9.2-9.2c-0.6,0-1.2,0.1-1.8,0.2l-1.6-2.2
	c-2.5-3.5-6.5-5.6-10.5-5.7c-3.3-0.1-4.9,1.3-5.7,2.4c-3.8,5.5-11.2,20.7-14.2,26.8h-0.1c-2.9,0-5.3,2.4-5.3,5.3v7.7
	c0,2.9,2.4,5.3,5.3,5.3h38.4c2.9,0,5.3-2.4,5.3-5.3v-7.7C72.4,57.8,70.1,55.5,67.2,55.5z M67.2,71.3H28.8c-1.5,0-2.8-1.3-2.8-2.8
	v-7.7c0-1.5,1.3-2.8,2.8-2.8h1.3h35.8h1.3c1.5,0,2.8,1.3,2.8,2.8v7.7C69.9,70,68.7,71.3,67.2,71.3z M45.1,30.1
	c0.6-0.9,1.9-1.4,3.6-1.3c3.3,0.1,6.5,1.8,8.5,4.7l2.1,2.8c-0.1,0-0.1,0.1-0.2,0.1c-0.1,0-0.2,0.1-0.3,0.2c-0.2,0.1-0.3,0.2-0.5,0.3
	c-0.1,0.1-0.2,0.1-0.3,0.2c-0.2,0.1-0.3,0.3-0.5,0.4c-0.1,0.1-0.1,0.1-0.2,0.2c0,0-0.1,0.1-0.1,0.1l-1.2-2.5
	c-0.1-0.3-0.4-0.4-0.7-0.2s-0.4,0.4-0.2,0.7l1.5,3.2c0,0,0,0,0,0l5.3,11.7c0,0,0,0,0,0l3,6.6H30.9C33.7,51.2,41.3,35.5,45.1,30.1z
	 M60.3,36.9c0.8-0.3,1.6-0.5,2.4-0.5c3.7,0,6.7,3,6.7,6.7c0,3.6-2.9,6.5-6.5,6.6l-5.1-11.1C58.5,37.8,59.3,37.2,60.3,36.9z"/>
</svg>
