<?xml version="1.0" encoding="utf-8"?>
<!-- Generator: Adobe Illustrator 19.1.0, SVG Export Plug-In . SVG Version: 6.00 Build 0)  -->
<svg version="1.1" id="Layer_1" xmlns="http://www.w3.org/2000/svg" xmlns:xlink="http://www.w3.org/1999/xlink" x="0px" y="0px"
	 viewBox="0 0 100 100" enable-background="new 0 0 100 100" xml:space="preserve">
<path d="M69.2,63.9l-6.4-8.2h1.7c0.8,0,1.5-0.4,1.8-1.1c0.3-0.7,0.2-1.5-0.2-2.1l-6.4-8.2h0.2c0.8,0,1.5-0.4,1.8-1.1
	c0.3-0.7,0.2-1.5-0.2-2.1l-11-14c-0.8-1-2.4-1-3.1,0l-11,14c-0.5,0.6-0.6,1.4-0.2,2.1c0.3,0.7,1,1.1,1.8,1.1h0.2l-6.4,8.2
	c-0.5,0.6-0.6,1.4-0.2,2.1c0.3,0.7,1,1.1,1.8,1.1h1.7l-6.4,8.2c-0.5,0.6-0.6,1.4-0.2,2.1c0.3,0.7,1,1.1,1.8,1.1H43v4.5
	c0,1.1,0.9,2,2,2h7.5c1.1,0,2-0.9,2-2v-4.5h13.1c0.8,0,1.5-0.4,1.8-1.1C69.8,65.3,69.7,64.5,69.2,63.9z M53,64.6h-8.5H30.9l7.5-9.5
	c0,0.5,0.1,0.9,0.4,1.3c0.2,0.3,0.6,0.6,1.3,0.6c2,0,2.9,0.3,2.9,1.8c0,0.8,0.3,1.2,0.5,1.5c0.3,0.3,0.8,0.5,1.2,0.5
	c0.9,0,1.8-0.7,1.8-2c0-1.5,1.1-3.1,3.2-3.1c1,0,1.7-0.3,2.2-0.8c0.2-0.2,0.3-0.5,0.4-0.7h6.1l8.2,10.4H53z M52,71.2h-6.5v-5.5H52
	V71.2z M44.8,34.2c0.3,0.7,0.9,1.3,2,1.3c1.5,0,2.6,1.2,2.6,2.9c0,0.6,0.2,1.1,0.5,1.5c0.3,0.3,0.8,0.5,1.2,0.5c0.9,0,1.7-0.7,1.7-2
	c0-2,0.2-2.9,0.7-3.1l5.2,6.6h-3h-14h-3L44.8,34.2z M45.5,33.2l3.2-4.1l4.1,5.3c-1,0.7-1,2.7-1,3.9c0,1.2-0.8,1.2-1.2,0.8
	c-0.2-0.2-0.3-0.5-0.3-0.8c0-2.3-1.5-3.9-3.6-3.9C45.8,34.4,45.6,33.6,45.5,33.2z M42.3,42.8h13l8.2,10.4h-4.6H38.6h-4.6L42.3,42.8z
	 M39.5,54.2h11.7c0,0,0,0,0,0c-0.2,0.3-0.7,0.4-1.4,0.4c-2.4,0-4.2,1.8-4.2,4.1c0,1-0.9,1.2-1.3,0.8c-0.2-0.2-0.3-0.4-0.3-0.8
	c0-2.8-2.5-2.8-3.9-2.8c-0.3,0-0.4-0.1-0.5-0.2C39.4,55.5,39.4,54.8,39.5,54.2z"/>
</svg>
