<?xml version="1.0" encoding="utf-8"?>
<!-- Generator: Adobe Illustrator 19.1.0, SVG Export Plug-In . SVG Version: 6.00 Build 0)  -->
<svg version="1.1" id="Layer_1" xmlns="http://www.w3.org/2000/svg" xmlns:xlink="http://www.w3.org/1999/xlink" x="0px" y="0px"
	 viewBox="0 0 100 100" enable-background="new 0 0 100 100" xml:space="preserve">
<g>
	<path d="M68.2,32.8c-3.5-3.5-9.1-3.5-12.5,0c-0.1,0.1-0.2,0.2-0.2,0.2c-8.8,1.1-15.8,6.4-19.2,14.5c-3.2,7.5-4.8,12.7-4.9,15.5
		c-0.1,1.7,0.7,3.4,2,4.7c1.3,1.3,2.9,2,4.5,2c0.1,0,0.1,0,0.2,0c2.8-0.1,8-1.8,15.5-4.9c8.1-3.4,13.4-10.4,14.5-19.2
		c0.1-0.1,0.2-0.2,0.2-0.2C71.6,41.9,71.6,36.3,68.2,32.8z M66.6,43.3c0-0.1,0-0.3,0-0.4c0-0.3,0-0.5,0-0.8c0-0.2,0-0.3,0-0.5
		c0-0.2,0-0.5-0.1-0.7c0-0.1,0-0.3-0.1-0.4c0-0.2-0.1-0.4-0.1-0.6c0-0.1-0.1-0.3-0.1-0.4c0-0.2-0.1-0.4-0.2-0.6
		c0-0.1-0.1-0.2-0.1-0.4c-0.1-0.2-0.1-0.3-0.2-0.5c-0.1-0.1-0.1-0.2-0.2-0.3c-0.1-0.2-0.2-0.3-0.3-0.5c-0.1-0.1-0.1-0.2-0.2-0.2
		c-0.2-0.2-0.3-0.4-0.5-0.6c-0.2-0.2-0.4-0.4-0.6-0.5c-0.1-0.1-0.1-0.1-0.2-0.2c-0.2-0.1-0.3-0.2-0.5-0.3c-0.1-0.1-0.2-0.1-0.3-0.1
		c-0.2-0.1-0.3-0.2-0.5-0.2c-0.1,0-0.2-0.1-0.3-0.1c-0.2-0.1-0.4-0.1-0.6-0.2c-0.1,0-0.2-0.1-0.3-0.1c-0.3-0.1-0.6-0.1-1-0.2
		c-0.1,0-0.3,0-0.4,0c-0.2,0-0.5,0-0.7-0.1c-0.2,0-0.3,0-0.5,0c-0.1,0-0.2,0-0.4,0c-0.1,0-0.3,0-0.4,0c-0.1,0-0.2,0-0.2,0
		c0,0,0,0-0.1,0c2.5-2.3,6.4-2.2,8.8,0.2C68.8,37,68.9,40.9,66.6,43.3C66.6,43.3,66.6,43.3,66.6,43.3z M56.5,35.5
		c3.5-0.3,5.9,0.2,7.4,1.6c1.4,1.4,2,3.9,1.6,7.4c-0.8,8.3-5.6,14.8-13.1,18c-7.1,3-12.1,4.6-14.6,4.7c-1,0-2-0.4-2.8-1.3
		c-0.8-0.8-1.3-1.9-1.3-2.8c0.1-2.5,1.7-7.5,4.7-14.6C41.7,41.1,48.2,36.3,56.5,35.5z"/>
	<path d="M47.6,56.1C47.6,56.1,47.6,56.1,47.6,56.1c1.4,0,3.9-0.8,7.5-2.4c3.9-1.7,6.4-5.1,6.9-9.4c0.2-1.9-0.2-3.3-1-4.2
		c-0.9-0.9-2.3-1.2-4.2-1c-4.3,0.4-7.8,2.9-9.4,6.9c-1.5,3.6-2.3,6.1-2.4,7.4c0,0.7,0.3,1.4,0.8,1.9C46.3,55.8,46.9,56.1,47.6,56.1z
		 M48.2,46.3c1.5-3.6,4.7-5.9,8.6-6.3c0.3,0,0.6,0,0.9,0c1.1,0,2,0.3,2.5,0.8c0.6,0.6,0.9,1.8,0.7,3.4c-0.4,3.9-2.7,7.1-6.3,8.6
		c-3.4,1.5-5.9,2.3-7.1,2.3c-0.4,0-0.9-0.2-1.2-0.5c-0.4-0.4-0.6-0.8-0.5-1.2C45.9,52.2,46.7,49.8,48.2,46.3z"/>
</g>
</svg>
