<?xml version="1.0" encoding="utf-8"?>
<!-- Generator: Adobe Illustrator 19.1.0, SVG Export Plug-In . SVG Version: 6.00 Build 0)  -->
<svg version="1.1" id="Layer_1" xmlns="http://www.w3.org/2000/svg" xmlns:xlink="http://www.w3.org/1999/xlink" x="0px" y="0px"
	 viewBox="0 0 100 100" enable-background="new 0 0 100 100" xml:space="preserve">
<path d="M77.8,45.3c0-0.6-0.1-1.2-0.2-1.8l0-0.3c-0.1-0.7-0.2-1.3-0.4-1.7c0,0,0-0.1,0-0.2c-0.2-0.6-0.4-1.3-0.7-1.9
	c0-0.1-0.1-0.2-0.1-0.3c-0.2-0.5-0.5-1-0.7-1.4c-0.1-0.2-0.2-0.3-0.3-0.5c-0.2-0.4-0.5-0.8-0.8-1.2l-0.1-0.1
	c-0.1-0.1-0.2-0.2-0.3-0.4c-0.5-0.6-0.9-1.1-1.3-1.5c-3.7-3.7-8.8-5.4-14-4.8c-1.3,0.2-2.6,0.5-3.8,0.9c0,0-0.1,0-0.2,0.1
	c-0.3,0.1-0.6,0.2-0.9,0.4c-0.2,0.1-0.3,0.1-0.5,0.2c-0.2,0.1-0.5,0.3-0.7,0.4c-0.2,0.1-0.5,0.3-0.7,0.4c-0.2,0.1-0.4,0.3-0.6,0.4
	c-0.3,0.2-0.5,0.4-0.8,0.6l-0.1,0.1c-0.1,0.1-0.2,0.2-0.3,0.3c-0.4,0.4-0.8,0.7-1.2,1.1l-25,25c-1.3,1.3-2.1,3.1-2.1,5
	c0,1.9,0.7,3.6,2,4.9c1,1,2.4,1.7,3.9,2c0.3,0,0.6,0.1,0.8,0.1c0.1,0,0.1,0,0.2,0c0.1,0,0.3,0,0.4,0c0.2,0,0.4,0,0.7-0.1
	c0.2,0,0.4-0.1,0.6-0.1c0.3-0.1,0.5-0.1,0.9-0.3c0.1,0,0.2-0.1,0.3-0.1c0.3-0.1,0.7-0.3,1-0.5c0.1,0,0.1-0.1,0.2-0.1
	c0.4-0.3,0.7-0.5,1-0.8l25-25c0.1-0.1,0.3-0.3,0.4-0.4c0.2-0.1,0.3-0.2,0.5-0.3c1.1-0.4,2.3-0.2,3.1,0.6c0.1,0.1,0.2,0.3,0.4,0.5
	l0.2,0.3c0,0,0.1,0.1,0.1,0.1c0,0.1,0.1,0.2,0.1,0.3l0.1,0.1c0,0.1,0,0.3,0,0.4c0,0,0,0.1,0,0.1c0,0.1,0,0.3,0,0.4c0,0,0,0,0,0
	c-0.1,0.5-0.3,1-0.7,1.4c-0.1,0.1-0.1,0.1-0.2,0.2l-2.7,2.7c-1.3,1.3-2.1,3.1-2.1,5c0,1.9,0.7,3.6,2.1,4.9c2.7,2.7,7.2,2.7,9.9,0
	l2.7-2.7c2.3-2.3,3.8-5.1,4.5-8.3c0.3-1.3,0.4-2.7,0.4-4L77.8,45.3z M58.1,41.5c-0.3,0.2-0.5,0.4-0.8,0.6l-8.6,8.6V38l2.2-2.2
	c0.3-0.3,0.6-0.6,1-0.9c0.1-0.1,0.2-0.2,0.3-0.3c0.2-0.2,0.4-0.3,0.7-0.5c0.1-0.1,0.3-0.2,0.4-0.3c0.2-0.1,0.4-0.3,0.6-0.4
	c0.2-0.1,0.3-0.2,0.5-0.3c0.1-0.1,0.3-0.1,0.4-0.2c0.5-0.2,1-0.5,1.6-0.6c0,0,0,0,0.1,0c0.3-0.1,0.7-0.2,1-0.3c0,0,0.1,0,0.1,0
	c0.3-0.1,0.7-0.2,1.1-0.2v9.3c-0.1,0.1-0.2,0.1-0.4,0.2C58.2,41.4,58.1,41.4,58.1,41.5z M27.9,58.8v9.4c-0.7-0.2-1.4-0.6-1.9-1.1
	c-0.9-0.9-1.3-2-1.3-3.2c0-1.2,0.5-2.3,1.3-3.2L27.9,58.8z M31.6,67.7c-0.1,0-0.1,0.1-0.2,0.1c-0.2,0.1-0.4,0.2-0.6,0.3
	c-0.1,0-0.2,0-0.2,0.1c-0.2,0.1-0.4,0.1-0.7,0.2c-0.1,0-0.1,0-0.2,0c-0.2,0-0.5,0-0.7,0c0,0,0,0,0,0V57.8l9.6-9.6l0.4-0.4v12.7
	l-6.5,6.5C32.1,67.3,31.8,67.5,31.6,67.7z M39.8,46.8l7.9-7.9v12.7l-7.9,7.9V46.8z M59.7,31.6c0.4,0,0.9-0.1,1.3-0.1
	c3.7,0,7.1,1.4,9.8,3.9l-6.4,6.4c-1.3-1.1-3.1-1.5-4.7-1V31.6z M72.4,37.2c0.1,0.1,0.2,0.3,0.3,0.4c0.2,0.3,0.4,0.6,0.6,1
	c0.1,0.1,0.1,0.2,0.2,0.3c0.5,0.9,0.9,1.9,1.2,2.9c0,0,0,0.1,0,0.1c0.1,0.5,0.2,0.9,0.3,1.4c0,0.1,0,0.2,0.1,0.4
	c0.1,0.4,0.1,0.8,0.1,1.2c0,0.1,0,0.3,0,0.4c0,0.5,0,0.9,0,1.4c0,0.1,0,0.1,0,0.2c0,0.5-0.1,1.1-0.2,1.6h-9.5
	c0.4-0.7,0.6-1.4,0.7-2.2c0-0.1,0-0.1,0-0.2c0-0.2,0-0.4,0-0.6c0-0.1,0-0.2,0-0.3c0-0.2,0-0.4-0.1-0.5c0-0.2-0.1-0.4-0.2-0.5
	C66,44,66,43.9,65.9,43.7c-0.1-0.2-0.2-0.4-0.3-0.6c-0.1-0.1-0.1-0.2-0.2-0.3c-0.1-0.1-0.1-0.2-0.2-0.3l6.4-6.4
	c0.1,0.1,0.2,0.2,0.2,0.3C72,36.7,72.2,36.9,72.4,37.2z M64.8,49.7c0,0,0.1-0.1,0.1-0.1h10C74.3,52,73,54.2,71.2,56l-2.7,2.7
	c-1.8,1.8-4.6,1.8-6.4,0c-0.9-0.9-1.3-2-1.3-3.2c0-1.2,0.5-2.3,1.3-3.2L64.8,49.7z"/>
</svg>
