<?xml version="1.0" encoding="utf-8"?>
<!-- Generator: Adobe Illustrator 19.1.0, SVG Export Plug-In . SVG Version: 6.00 Build 0)  -->
<svg version="1.1" id="Layer_1" xmlns="http://www.w3.org/2000/svg" xmlns:xlink="http://www.w3.org/1999/xlink" x="0px" y="0px"
	 viewBox="0 0 100 100" enable-background="new 0 0 100 100" xml:space="preserve">
<g>
	<g>
		<g>
			<path fill="#FFFFFF" d="M60.5,39.5l-7.1-1.9c-2.1-0.6-4.4,0-6,1.6l-1,1h0l-6.3,6.3h0l-1,1c-1.6,1.6-2.2,3.8-1.6,6l1.9,7.1
				l7.1,1.9c2.1,0.6,4.4,0,6-1.6l1-1l6.3-6.3l1-1c1.6-1.6,2.2-3.8,1.6-6L60.5,39.5z"/>
			<path fill="#00AEEF" d="M48.2,64.6c-0.7,0-1.4-0.1-2.1-0.3L39,62.4c-0.7-0.2-1.2-0.7-1.4-1.4l-1.9-7.1c-0.8-2.8,0.1-5.8,2.1-7.9
				l8.2-8.2c2.1-2.1,5.1-2.9,7.9-2.1l7.1,1.9c0.7,0.2,1.2,0.7,1.4,1.4l1.9,7.1c0.8,2.8-0.1,5.8-2.1,7.9L54,62.2
				C52.5,63.8,50.4,64.6,48.2,64.6z M41.1,58.9l6,1.6c1.4,0.4,3,0,4-1.1l8.2-8.2c1.1-1.1,1.5-2.6,1.1-4l-1.6-6l-6-1.6
				c-1.4-0.4-3,0-4,1.1l-8.2,8.2c-1.1,1.1-1.5,2.6-1.1,4L41.1,58.9z"/>
		</g>
		<g>
			<path fill="#FFFFFF" d="M39.5,60.5l-6.6-1.8c-2.5-0.7-5.1,0-6.9,1.8l-1.9,1.9h3l0,3.5h3.5v3.5H34v3.5h3.5v3l1.9-1.9
				c1.8-1.8,2.5-4.4,1.8-6.9L39.5,60.5z"/>
			<path fill="#00AEEF" d="M37.5,77.9c-0.3,0-0.5,0-0.8-0.2c-0.7-0.3-1.2-1-1.2-1.8v-1H34c-1.1,0-2-0.9-2-2v-1.5h-1.5
				c-1.1,0-2-0.9-2-2V68h-1.5c-1.1,0-2-0.9-2-2v-1.5h-1c-0.8,0-1.5-0.5-1.8-1.2c-0.3-0.7-0.1-1.6,0.4-2.2l1.9-1.9
				c2.3-2.3,5.7-3.2,8.8-2.4l6.6,1.8c0.7,0.2,1.2,0.7,1.4,1.4l1.8,6.6c0.8,3.1-0.1,6.5-2.4,8.8l-1.9,1.9
				C38.5,77.7,38,77.9,37.5,77.9z M36,70.9h1.5c0.5,0,1,0.2,1.4,0.5c0.7-1.2,0.8-2.5,0.5-3.9l-1.5-5.5l-5.5-1.5
				c-1.3-0.4-2.7-0.2-3.9,0.5c0.3,0.4,0.5,0.8,0.5,1.4V64h1.5c1.1,0,2,0.9,2,2v1.5H34c1.1,0,2,0.9,2,2V70.9z"/>
		</g>
		<g>
			<path fill="#FFFFFF" d="M72.9,37.5V34h-3.5v-3.5H66v-3.5h-3.5v-3L60.6,26c-1.8,1.8-2.5,4.4-1.8,6.9l1.8,6.6l6.6,1.8
				c2.5,0.7,5.1,0,6.9-1.8l1.9-1.9H72.9z"/>
			<path fill="#00AEEF" d="M68.9,43.5c-0.8,0-1.6-0.1-2.4-0.3L60,41.4c-0.7-0.2-1.2-0.7-1.4-1.4l-1.8-6.6c-0.8-3.1,0.1-6.5,2.4-8.8
				l1.9-1.9c0.6-0.6,1.4-0.7,2.2-0.4c0.7,0.3,1.2,1,1.2,1.8v1H66c1.1,0,2,0.9,2,2v1.5h1.5c1.1,0,2,0.9,2,2V32h1.5c1.1,0,2,0.9,2,2
				v1.5h1c0.8,0,1.5,0.5,1.8,1.2c0.3,0.7,0.1,1.6-0.4,2.2l-1.9,1.9C73.7,42.6,71.3,43.5,68.9,43.5z M62.1,37.9l5.5,1.5
				c1.3,0.3,2.7,0.2,3.9-0.5c-0.3-0.4-0.5-0.8-0.5-1.4V36h-1.5c-1.1,0-2-0.9-2-2v-1.5H66c-1.1,0-2-0.9-2-2v-1.5h-1.5
				c-0.5,0-1-0.2-1.4-0.5c-0.7,1.2-0.8,2.5-0.5,3.9L62.1,37.9z"/>
		</g>
	</g>
	<path fill="#ED1B2F" d="M46.7,62.4l-7.1-1.9l-1.9-7.1c-0.6-2.1,0-4.4,1.6-6l8.2-8.2c1.6-1.6,3.8-2.2,6-1.6l7.1,1.9l1.9,7.1
		c0.6,2.1,0,4.4-1.6,6l-8.2,8.2C51.1,62.4,48.8,63,46.7,62.4z"/>
	<path fill="#ED1B2F" d="M26,60.6l-1.9,1.9h3l0,3.5h3.5v3.5l3.5,0v3.5h3.5l0,3l1.9-1.9c1.8-1.8,2.5-4.4,1.8-6.9l-1.8-6.6l-6.6-1.8
		C30.5,58.1,27.8,58.8,26,60.6z"/>
	<path fill="#ED1B2F" d="M60.6,26l1.9-1.9v3l3.5,0v3.5h3.5l0,3.5h3.5v3.5l3,0L74,39.4c-1.8,1.8-4.4,2.5-6.9,1.8l-6.6-1.8l-1.8-6.6
		C58.1,30.5,58.8,27.8,60.6,26z"/>
	
		<rect x="45.6" y="40.5" transform="matrix(-0.7071 0.7071 -0.7071 -0.7071 120.7111 50.0005)" fill="#F38296" width="8.9" height="19"/>
</g>
</svg>
