<?xml version="1.0" encoding="utf-8"?>
<!-- Generator: Adobe Illustrator 19.1.0, SVG Export Plug-In . SVG Version: 6.00 Build 0)  -->
<svg version="1.1" id="Layer_1" xmlns="http://www.w3.org/2000/svg" xmlns:xlink="http://www.w3.org/1999/xlink" x="0px" y="0px"
	 viewBox="0 0 100 100" enable-background="new 0 0 100 100" xml:space="preserve">
<g>
	<path d="M78.3,55.1c-1.4-0.6-4.9-2.3-7.8-5.1c0,0,0,0,0-0.1c0.1-5.4,4.7-5.7,5.6-5.7c0,0,0,0,0,0c0.7,0,1.4-0.4,1.8-1
		c0.4-0.6,0.4-1.4,0-2c-3.6-6.1-0.4-13.8-0.4-13.9c0.3-0.8,0.1-1.7-0.5-2.3c-0.6-0.6-1.5-0.7-2.3-0.3c-6.6,3.5-12.6,0.6-12.8,0.4
		c-0.6-0.3-1.3-0.3-1.9,0c-0.6,0.3-1,1-1,1.6c-0.3,5.7-4.7,5.8-5.6,5.8c-0.7,0-1.4,0.3-1.8,0.9c-0.2,0.3-0.3,0.6-0.3,1
		c0-0.3-0.1-0.6-0.2-0.9c-0.3-0.6-1-1-1.7-1c-5.5-0.1-5.7-4.7-5.7-5.6c0-0.7-0.4-1.4-1-1.8c-0.6-0.4-1.4-0.4-2,0
		c-6.1,3.6-13.8,0.4-13.9,0.4c-0.8-0.3-1.7-0.1-2.3,0.5c-0.6,0.6-0.7,1.5-0.3,2.3c3.5,6.6,0.6,12.6,0.4,12.8c-0.3,0.6-0.3,1.3,0,1.9
		s1,1,1.6,1c5.2,0.3,5.8,4.1,5.8,5.3c-0.1,0.1-0.1,0.1-0.2,0.2c-3,3-6.7,4.7-8.1,5.4c-1.8,0.8-2.7,2.8-2.1,4.7
		c0.6,1.7,1.9,3.7,4.1,6.1c-0.4,1.4-0.1,3,1,4.1s2.7,1.5,4.1,1c2.4,2.2,4.5,3.6,6.1,4.1c1.8,0.7,3.9-0.2,4.6-2
		c0.6-1.5,2.4-5.2,5.5-8.2c1.7-1.7,3-3.2,3.8-4.6c0,0,0,0,0,0c0.9,1.4,2.1,3,3.9,4.7c3,3,4.7,6.7,5.4,8.1c0.6,1.4,2,2.3,3.4,2.3
		c0.4,0,0.8-0.1,1.2-0.2c1.6-0.6,3.7-2,6.1-4.1c1.4,0.4,3.1,0.1,4.1-1c0.8-0.8,1.2-1.8,1.2-2.9c0-0.4-0.1-0.8-0.2-1.2
		c2.2-2.4,3.5-4.5,4.1-6.1C81,58,80.1,55.9,78.3,55.1z M73.7,66.4c0.1,0.2,0.2,0.5,0.2,0.7c0,0.4-0.2,0.8-0.5,1.1
		c-0.5,0.5-1.3,0.6-1.9,0.3c0.4-0.3,0.7-0.7,1.1-1.1C73,67.1,73.4,66.7,73.7,66.4z M70.4,68.2C70.4,68.2,70.4,68.2,70.4,68.2
		c-3.3,3.1-5.2,4.2-6.3,4.6c-0.6,0.2-1.3-0.1-1.5-0.7c-0.8-2-2.7-5.7-5.9-8.9c-1.9-1.9-3.1-3.4-3.9-4.9c0.4-0.2,0.7-0.4,1-0.6
		c0.1-0.1,0.2-0.1,0.2-0.2c0.1-0.1,0.2-0.2,0.3-0.3c0.1-0.1,0.2-0.2,0.3-0.4c0.1-0.1,0.1-0.2,0.2-0.3c0.1-0.2,0.3-0.5,0.4-0.7
		c0-0.1,0.1-0.2,0.1-0.2c0.1-0.2,0.1-0.4,0.2-0.6c0-0.1,0-0.2,0.1-0.3c0.1-0.3,0.1-0.6,0.1-0.9c0-0.3,0-0.6-0.1-0.9
		c0-0.2-0.1-0.3-0.1-0.5c0-0.1,0-0.1,0-0.2c0.1,0,0.3,0,0.4-0.1c0.1,0,0.3,0,0.4-0.1c0.2,0,0.3-0.1,0.5-0.2c0.1,0,0.3-0.1,0.4-0.1
		c0.2-0.1,0.3-0.2,0.4-0.2c0.1-0.1,0.2-0.1,0.4-0.2c0.1-0.1,0.3-0.2,0.4-0.3c0.1-0.1,0.2-0.2,0.3-0.3c0.1-0.1,0.2-0.3,0.3-0.4
		c0.1-0.1,0.2-0.2,0.2-0.3c0.1-0.2,0.2-0.3,0.3-0.5c0.1-0.1,0.1-0.2,0.2-0.3c0.1-0.2,0.1-0.4,0.2-0.6c0-0.1,0.1-0.2,0.1-0.3
		c0.1-0.3,0.1-0.6,0.1-1c0,0,0-0.1,0-0.1c0,0,0,0,0,0c0,0,0,0,0,0h0c0,0,0-0.1,0-0.1c0-0.2,0-0.4-0.1-0.5c0.1,0,0.2,0,0.4,0
		c0,0,0.1,0,0.1,0c1.7,0,3.5,0.8,5.5,2.5c0,0,0,0,0,0c0.8,0.7,1.6,1.4,2.3,2.2c3.2,3.2,7,5.1,9,6c0.6,0.3,0.9,0.9,0.7,1.5
		c-0.4,1.1-1.5,3.1-4.6,6.3c0,0,0,0,0,0c-0.4,0.5-0.9,1-1.5,1.5C71.4,67.3,70.9,67.8,70.4,68.2z M50.8,57.8c-0.5,0-1-0.1-1.5-0.3
		c-0.1,0-0.2-0.1-0.3-0.2c-0.1-0.1-0.2-0.1-0.3-0.2c-0.1-0.1-0.2-0.1-0.3-0.2c-0.1-0.1-0.2-0.1-0.2-0.2c-0.1-0.1-0.2-0.2-0.3-0.3
		c-0.1-0.1-0.1-0.2-0.2-0.2c-0.1-0.1-0.1-0.2-0.2-0.3c-0.1-0.1-0.1-0.2-0.2-0.3c-0.1-0.1-0.1-0.2-0.2-0.3c0-0.1-0.1-0.2-0.1-0.4
		c0-0.1-0.1-0.2-0.1-0.3c0-0.2-0.1-0.5-0.1-0.7c0-0.2,0-0.4,0.1-0.6c0-0.1,0-0.2,0-0.3c0-0.1,0-0.1,0.1-0.2c0.1-0.2,0.2-0.5,0.3-0.7
		c0.6-1.1,1.7-1.8,2.9-2c0,0,0,0,0,0c0.2,0,0.3,0,0.5,0c0.2,0,0.3,0,0.5,0c0,0,0,0,0,0c1.2,0.2,2.3,0.9,2.9,2c0,0,0,0,0,0
		c0.1,0.2,0.2,0.5,0.3,0.7c0,0.1,0,0.1,0.1,0.2c0,0.1,0,0.2,0,0.3c0,0.2,0.1,0.4,0.1,0.6c0,0.2,0,0.5-0.1,0.7c0,0.1,0,0.2-0.1,0.2
		c0,0.1-0.1,0.3-0.1,0.4c0,0.1-0.1,0.2-0.1,0.3c-0.1,0.1-0.1,0.2-0.2,0.3C54,56,54,56.1,53.9,56.2c0,0.1-0.1,0.1-0.1,0.2
		c-0.5,0.6-1.1,1-1.8,1.3c0,0,0,0,0,0C51.6,57.7,51.2,57.8,50.8,57.8z M48.3,58.1c0.1,0.1,0.3,0.2,0.4,0.2c0.1,0.1,0.2,0.1,0.3,0.2
		c0,0,0.1,0,0.1,0.1c-0.7,1.4-1.9,2.8-3.7,4.6c-3.2,3.2-5.1,7-6,9c-0.3,0.6-0.9,0.9-1.5,0.7c-1.1-0.4-3.1-1.5-6.3-4.6c0,0,0,0,0,0
		c-0.5-0.4-1-0.9-1.5-1.5c-0.5-0.5-1-1-1.5-1.5c0,0,0,0,0,0C25.6,62,24.4,60,24,58.9c-0.2-0.6,0.1-1.3,0.7-1.5
		c2-0.8,5.7-2.7,8.9-5.9c0.6-0.6,1.3-1.2,1.9-1.8l0,0c0.8-0.7,1.5-1.2,2.3-1.6c0.2-0.1,0.3-0.2,0.5-0.3c0.1-0.1,0.3-0.1,0.4-0.2
		c0.2-0.1,0.4-0.2,0.6-0.3c0.1,0,0.2-0.1,0.3-0.1c0.2-0.1,0.5-0.2,0.7-0.2c0.1,0,0.2,0,0.2-0.1c0.3-0.1,0.6-0.1,1-0.1
		c0,0,0.1,0,0.1,0c0,0,0,0.1,0,0.1c0,0.2-0.1,0.4-0.1,0.6c0,0.3,0,0.7,0.1,1c0,0.1,0.1,0.2,0.1,0.3c0.1,0.2,0.1,0.4,0.2,0.6
		c0,0.1,0.1,0.2,0.2,0.3c0.1,0.2,0.2,0.3,0.3,0.5c0.1,0.1,0.2,0.2,0.2,0.3c0.1,0.1,0.2,0.3,0.3,0.4c0.1,0.1,0.2,0.2,0.3,0.3
		c0.1,0.1,0.3,0.2,0.4,0.3c0.1,0.1,0.2,0.1,0.4,0.2c0.1,0.1,0.3,0.2,0.4,0.2c0.1,0.1,0.3,0.1,0.4,0.1c0.2,0.1,0.3,0.1,0.5,0.2
		c0.1,0,0.3,0,0.4,0.1c0.1,0,0.3,0.1,0.4,0.1c0,0.1,0,0.1,0,0.2c0,0.2-0.1,0.3-0.1,0.5c-0.1,0.3-0.1,0.6-0.1,0.9
		c0,0.3,0,0.6,0.1,0.9c0,0.1,0,0.2,0.1,0.3c0,0.2,0.1,0.3,0.2,0.5c0,0.1,0.1,0.2,0.1,0.4c0.1,0.1,0.1,0.3,0.2,0.4
		c0.1,0.1,0.1,0.2,0.2,0.3c0.1,0.2,0.3,0.4,0.5,0.6c0.1,0.1,0.2,0.2,0.3,0.3c0.1,0.1,0.2,0.2,0.4,0.3C48,58,48.2,58,48.3,58.1z
		 M28.3,66.4c0.3,0.4,0.7,0.7,1.1,1.1c0.4,0.4,0.7,0.7,1.1,1.1c-0.6,0.3-1.4,0.2-1.9-0.3C28.1,67.8,28,67,28.3,66.4z M26.9,28.5
		c2.5,0.8,8.7,2.3,14.2-0.6c0.2,2,1.4,6.8,7.3,7.3c-0.7,1.3-2,4.2-2.2,7.5c-0.3,0-0.5,0-0.7,0.1c-0.1,0-0.2,0.1-0.3,0.1
		c-0.2,0-0.3,0.1-0.5,0.2c-0.1,0.1-0.3,0.1-0.4,0.2c-0.1,0-0.2,0.1-0.3,0.2c-0.5,0.3-1,0.7-1.4,1.2c0,0,0,0-0.1,0.1
		c-0.1,0.2-0.3,0.4-0.4,0.5c0,0,0,0,0,0.1c-0.1,0.2-0.2,0.4-0.3,0.6c0,0-0.1,0-0.1,0c-0.2,0-0.4,0-0.6,0c-0.1,0-0.1,0-0.2,0
		c-0.3,0-0.5,0.1-0.8,0.1c0,0-0.1,0-0.1,0c-0.2,0-0.4,0.1-0.6,0.2c-0.1,0-0.1,0-0.2,0.1c-0.2,0.1-0.5,0.2-0.7,0.3c0,0,0,0,0,0
		c-1.3,0.6-2.5,1.4-3.6,2.4c-0.2,0.1-0.3,0.1-0.5,0.2c-0.1-0.8-0.3-1.9-0.9-3.1c-0.8-1.7-2.7-3.8-6.6-4.2
		C27.8,40,29.6,34.6,26.9,28.5z M75.3,41.8c-2,0.2-6.8,1.4-7.3,7.3c-0.4-0.2-0.9-0.4-1.5-0.7c-1.9-1.5-3.8-2.6-6-2.7
		c-0.1,0-0.1,0-0.2,0c-0.2,0-0.4,0-0.6,0c0,0-0.1,0-0.1,0c-0.1-0.2-0.2-0.4-0.3-0.6c0,0,0,0,0-0.1c-0.1-0.2-0.2-0.4-0.3-0.5
		c0,0,0,0,0,0c-0.2-0.3-0.5-0.6-0.8-0.8c-0.1,0-0.1-0.1-0.2-0.1c-0.1-0.1-0.3-0.2-0.4-0.3c-0.1-0.1-0.2-0.1-0.3-0.2
		c-0.2-0.1-0.3-0.2-0.5-0.2c-0.2-0.1-0.4-0.1-0.6-0.2c-0.1,0-0.2,0-0.3-0.1c-0.1,0-0.2,0-0.2,0c0-2.7-0.5-5.2-1.7-7.5
		c0.8-0.1,1.9-0.3,3.1-0.8c1.7-0.8,3.8-2.7,4.2-6.6c1.9,0.8,7.3,2.5,13.4-0.2C73.9,30.1,72.4,36.2,75.3,41.8z M42.6,47.4
		c0-0.2,0-0.3,0-0.5c0-0.2,0.1-0.3,0.1-0.5c0,0,0,0,0,0c0.2-0.7,0.6-1.3,1.1-1.8c0.1-0.1,0.2-0.2,0.3-0.3c0.1,0,0.1-0.1,0.2-0.1
		c0.1-0.1,0.3-0.2,0.4-0.2c0.1,0,0.1-0.1,0.2-0.1c0.2-0.1,0.3-0.1,0.5-0.1c0.1,0,0.1,0,0.2-0.1c0.2,0,0.5-0.1,0.7-0.1
		c0,0,0.1,0,0.1,0c0.1,0,0.1,0,0.2,0c0,0,0,0,0,0c2,0.1,3.6,1.8,3.6,3.8c0,0.5-0.1,1.1-0.4,1.6c-1.4,0.3-2.6,1.1-3.3,2.3
		c-0.1,0-0.1,0-0.2,0c-2.1,0-3.9-1.7-3.9-3.9C42.5,47.5,42.6,47.5,42.6,47.4z M54.9,51.4c-0.7-1.2-1.9-2-3.3-2.3
		c-0.2-0.5-0.4-1-0.4-1.6c0-2.1,1.7-3.9,3.9-3.9c0,0,0,0,0,0c0,0,0,0,0,0c0,0,0,0,0.1,0c0.2,0,0.4,0,0.6,0.1c0.1,0,0.2,0.1,0.4,0.1
		c0.1,0,0.2,0.1,0.3,0.1c0.1,0.1,0.3,0.1,0.4,0.2c0.1,0,0.1,0.1,0.2,0.1c0.1,0.1,0.3,0.2,0.4,0.3c0,0,0,0,0,0c0.6,0.5,1.1,1.2,1.3,2
		c0,0.1,0,0.2,0.1,0.3c0,0.2,0.1,0.4,0.1,0.6c0,0,0,0,0,0c0,0,0,0.1,0,0.1c0,2.1-1.7,3.9-3.9,3.9C55.1,51.4,55,51.4,54.9,51.4z
		 M50.9,35.8c0.2-0.3,0.3-0.6,0.3-1c0,0.3,0.1,0.6,0.3,0.9c1,1.8,1.6,3.7,1.7,5.8c-0.9,0.3-1.7,0.8-2.4,1.4
		c-0.6-0.5-1.2-0.9-1.9-1.2C49.4,38.4,50.9,35.8,50.9,35.8z"/>
	<path d="M38,68.6c-0.9-0.3-2.5-1.3-5.5-4.2c-2.9-2.9-3.9-4.6-4.2-5.5c-0.1-0.3-0.4-0.4-0.6-0.3c-0.3,0.1-0.4,0.4-0.3,0.6
		c0.5,1.4,2,3.4,4.5,5.8c2.5,2.5,4.4,4,5.8,4.5c0.1,0,0.1,0,0.2,0c0.2,0,0.4-0.1,0.5-0.3C38.4,68.9,38.3,68.7,38,68.6z"/>
	<path d="M74.3,58.6c-0.3-0.1-0.5,0-0.6,0.3c-0.3,0.9-1.3,2.5-4.2,5.5c-2.9,2.9-4.6,3.9-5.5,4.2c-0.3,0.1-0.4,0.4-0.3,0.6
		c0.1,0.2,0.3,0.3,0.5,0.3c0.1,0,0.1,0,0.2,0c1.4-0.5,3.4-2,5.8-4.5c2.5-2.5,4-4.4,4.5-5.8C74.7,59,74.6,58.7,74.3,58.6z"/>
	<path d="M66.7,35.8L61,41.5c-0.2,0.2-0.2,0.5,0,0.7c0.1,0.1,0.2,0.1,0.4,0.1s0.3,0,0.4-0.1l5.7-5.7c0.2-0.2,0.2-0.5,0-0.7
		S66.9,35.6,66.7,35.8z"/>
	<path d="M40.7,42.2c0.1,0.1,0.2,0.1,0.4,0.1s0.3,0,0.4-0.1c0.2-0.2,0.2-0.5,0-0.7l-5.7-5.7c-0.2-0.2-0.5-0.2-0.7,0s-0.2,0.5,0,0.7
		L40.7,42.2z"/>
</g>
</svg>
