<?xml version="1.0" encoding="utf-8"?>
<!-- Generator: Adobe Illustrator 19.1.0, SVG Export Plug-In . SVG Version: 6.00 Build 0)  -->
<svg version="1.1" id="Layer_1" xmlns="http://www.w3.org/2000/svg" xmlns:xlink="http://www.w3.org/1999/xlink" x="0px" y="0px"
	 viewBox="0 0 100 100" enable-background="new 0 0 100 100" xml:space="preserve">
<g>
	<g>
		<path fill="#FFFFFF" d="M67,64.2c0.3-0.4,0.6-0.8,0.9-1.2c0.1-0.1,0.1-0.2,0.2-0.2c0.3-0.4,0.6-0.9,0.9-1.3c0,0,0-0.1,0.1-0.1
			c0.3-0.4,0.5-0.9,0.7-1.3c0-0.1,0.1-0.2,0.1-0.2c0.2-0.5,0.4-0.9,0.6-1.4c0-0.1,0.1-0.2,0.1-0.3c0.2-0.5,0.4-1,0.5-1.5
			c0,0,0,0,0,0l0,0c0.6-2.1,1-4.3,1-6.6c0-12.2-9.9-22.2-22.2-22.2c-2.3,0-4.5,0.3-6.6,1l0,0l0,0c-0.5,0.2-1,0.3-1.5,0.5
			c-0.1,0-0.2,0.1-0.3,0.1c-0.5,0.2-0.9,0.4-1.4,0.6c-0.1,0-0.2,0.1-0.2,0.1c-0.4,0.2-0.9,0.5-1.3,0.7c0,0-0.1,0-0.1,0.1
			c-0.4,0.3-0.9,0.6-1.3,0.9C37.2,31.9,37.1,32,37,32c-0.4,0.3-0.8,0.6-1.2,0.9c0,0-0.1,0.1-0.1,0.1c-0.4,0.3-0.7,0.7-1.1,1
			c0,0-0.1,0.1-0.1,0.1c-0.4,0.4-0.7,0.7-1.1,1.1c-0.1,0.1-0.1,0.1-0.2,0.2c-0.3,0.4-0.7,0.8-1,1.2l0,0l0,0
			c-2.7,3.7-4.4,8.3-4.4,13.2c0,12.2,9.9,22.2,22.2,22.2c5.5,0,10.6-2,14.5-5.4c0.1-0.1,0.1-0.1,0.2-0.2c0.4-0.3,0.8-0.7,1.1-1.1
			c0,0,0.1-0.1,0.1-0.1c0.3-0.4,0.7-0.7,1-1.1C67,64.3,67,64.2,67,64.2z"/>
		<path fill="#00AEEF" d="M50,74.2c-13.3,0-24.2-10.8-24.2-24.2c0-5.2,1.6-10.2,4.8-14.4c0.3-0.5,0.7-0.9,1.1-1.4l0.2-0.2
			c0.4-0.4,0.8-0.8,1.2-1.2l0.1-0.1c0.4-0.4,0.8-0.7,1.2-1.1l0.1-0.1c0.4-0.4,0.9-0.7,1.3-1l0.3-0.2c0.5-0.3,0.9-0.6,1.4-0.9
			c0,0,0.1-0.1,0.1-0.1c0.5-0.3,1-0.5,1.4-0.8l0.3-0.1c0.5-0.2,1-0.5,1.5-0.7l0.3-0.1c0.5-0.2,1.1-0.4,1.6-0.6
			c2.3-0.7,4.7-1.1,7.2-1.1c13.3,0,24.2,10.8,24.2,24.2c0,2.5-0.4,4.9-1.1,7.2c-0.2,0.6-0.4,1.1-0.6,1.6l-0.1,0.3
			c-0.2,0.5-0.4,1-0.7,1.5l-0.1,0.2c-0.3,0.6-0.5,1-0.8,1.5l-0.1,0.1c-0.3,0.5-0.6,0.9-0.9,1.4l-0.2,0.3c-0.3,0.5-0.7,0.9-1,1.3
			c0,0-0.1,0.1-0.1,0.1c-0.4,0.4-0.7,0.8-1.1,1.2L67.2,67c-0.4,0.4-0.8,0.8-1.2,1.2l-0.2,0.2C61.4,72.1,55.8,74.2,50,74.2z M50,29.8
			c-2,0-4.1,0.3-6,0.9c-0.5,0.1-0.9,0.3-1.4,0.5l-0.3,0.1c-0.4,0.2-0.8,0.4-1.3,0.6L40.9,32c-0.4,0.2-0.8,0.4-1.2,0.6
			c0,0-0.1,0-0.1,0.1c-0.4,0.3-0.8,0.5-1.2,0.8l-0.2,0.2c-0.4,0.3-0.7,0.6-1.1,0.9L37,34.6c-0.4,0.3-0.7,0.6-1,0.9l-0.1,0.1
			c-0.3,0.3-0.7,0.7-1,1l-0.1,0.1c-0.4,0.4-0.7,0.8-1,1.2c-2.6,3.5-4,7.7-4,12c0,11.1,9,20.2,20.2,20.2c4.8,0,9.5-1.7,13.2-4.9
			l0.2-0.1c0.4-0.3,0.7-0.6,1-1c0,0,0.1-0.1,0.1-0.1c0.3-0.3,0.6-0.7,0.9-1l1.6,1.2l-1.5-1.3c0,0,0,0,0,0c0.3-0.4,0.6-0.7,0.9-1.1
			l0.1-0.2c0.3-0.4,0.5-0.8,0.8-1.2l0.1-0.1c0.2-0.4,0.4-0.8,0.6-1.2l0.1-0.2c0.2-0.4,0.4-0.8,0.6-1.3l0.1-0.2
			c0.2-0.5,0.4-1,0.5-1.4c0.6-1.9,0.9-4,0.9-6C70.2,38.9,61.1,29.8,50,29.8z"/>
	</g>
	<circle fill="#F7941E" cx="50" cy="50" r="22.2"/>
	<path fill="#FFF450" d="M32.2,36.8l31,31c3.7-2.8,6.5-6.7,7.9-11.2L43.4,28.8C38.9,30.2,35,33.1,32.2,36.8z"/>
	<polygon fill="#FFFFFF" points="50,61.8 37.1,61.8 37.1,48.9 43.6,41.9 50,48.9 	"/>
	<rect x="39.6" y="51.4" fill="#BCBEC0" width="8.2" height="1"/>
	<rect x="39.6" y="53.8" fill="#BCBEC0" width="3.2" height="1"/>
	<rect x="39.6" y="56.3" fill="#BCBEC0" width="6.5" height="1"/>
	<rect x="39.6" y="58.7" fill="#BCBEC0" width="8.2" height="1"/>
</g>
</svg>
