<?xml version="1.0" encoding="utf-8"?>
<!-- Generator: Adobe Illustrator 19.1.0, SVG Export Plug-In . SVG Version: 6.00 Build 0)  -->
<svg version="1.1" id="Layer_1" xmlns="http://www.w3.org/2000/svg" xmlns:xlink="http://www.w3.org/1999/xlink" x="0px" y="0px"
	 viewBox="0 0 100 100" enable-background="new 0 0 100 100" xml:space="preserve">
<path d="M72.5,37.5H71v-1.6c0-1.1-0.9-2-2-2h-1.6v-1.6c0-1.1-0.9-2-2-2h-1.6v-1.6c0-1.1-0.9-2-2-2h-1.6v-1.6c0-1.1-1-2-2.1-2
	c-0.5,0-0.9,0.2-1.3,0.4c-0.3,0.3-0.6,0.6-0.9,0.9c-2.3,2.3-3.6,5.4-3.6,8.6c0,0.7,0.1,1.4,0.2,2C47.3,33.5,41.2,34.8,37,39
	c-1.7,1.7-2.9,3.6-3.7,5.9c-1.1,3.2-1.1,6.6-0.1,9.7c-0.7-0.1-1.3-0.2-2-0.2c-3.3,0-6.3,1.3-8.6,3.6c-0.3,0.3-0.6,0.6-0.9,1
	c-0.3,0.4-0.4,0.9-0.4,1.3c0,1.1,0.9,2,2,2h1.6v1.6c0,1.1,0.9,2,2,2h1.6v1.6c0,1.1,0.9,2,2,2h1.6V71c0,1.1,0.9,2,2,2h1.6v1.6
	c0,1.1,0.9,2,2,2h0.2c0.5,0,0.9-0.2,1.3-0.5c0.3-0.2,0.6-0.5,0.8-0.8c2.9-2.9,4-6.9,3.4-10.7c1.5,0.5,3.1,0.7,4.7,0.7
	c4,0,7.9-1.5,10.9-4.5c4.1-4.1,5.5-10.1,3.8-15.6c0.7,0.1,1.4,0.2,2,0.2c3.1,0,6.3-1.2,8.6-3.6c0.3-0.3,0.5-0.6,0.8-0.8
	c0.3-0.4,0.5-0.8,0.5-1.3v-0.2C74.5,38.4,73.6,37.5,72.5,37.5z M71.5,40.1c-3.8,3.8-10,3.8-13.7,0c-1.8-1.8-2.8-4.3-2.8-6.9
	c0-2.6,1-5,2.8-6.9v2.5c0,0.3,0.2,0.5,0.5,0.5h3.1v3.1c0,0.3,0.2,0.5,0.5,0.5h3.1v3.1c0,0.3,0.2,0.5,0.5,0.5h3.1v3.1
	c0,0.3,0.2,0.5,0.5,0.5L71.5,40.1C71.6,40,71.5,40,71.5,40.1z M60.7,51.9c0,0.3-0.1,0.6-0.2,0.9c0,0,0,0.1,0,0.1
	c-0.1,0.3-0.1,0.6-0.2,0.9H35.6c-0.1-0.3-0.2-0.6-0.2-0.9c0,0,0-0.1,0-0.1c-0.1-0.3-0.1-0.6-0.2-0.9c0,0,0-0.1,0-0.1
	c-0.2-1.2-0.2-2.5,0-3.8c0,0,0-0.1,0-0.1c0-0.3,0.1-0.6,0.2-0.9c0,0,0-0.1,0-0.1c0.1-0.3,0.1-0.6,0.2-0.9h24.7
	c0.1,0.3,0.2,0.6,0.2,0.9c0,0,0,0.1,0,0.1c0.1,0.3,0.1,0.6,0.2,0.9c0,0,0,0.1,0,0.1c0.2,1.2,0.2,2.5,0,3.8
	C60.7,51.8,60.7,51.9,60.7,51.9z M37.5,70.5h-3.1l0-3.1c0-0.3-0.2-0.5-0.5-0.5h-3.1v-3.1c0-0.3-0.2-0.5-0.5-0.5h-3.1v-3.1
	c0-0.3-0.2-0.5-0.5-0.5h-2.5c1.8-1.8,4.3-2.8,6.9-2.8s5,1,6.9,2.8c3.8,3.8,3.8,10,0,13.7c0,0,0,0-0.1,0.1V71
	C38,70.7,37.8,70.5,37.5,70.5z M35.9,54.8h24c-0.6,1.6-1.6,3-2.8,4.3c-5,5-13.3,5-18.3,0C37.5,57.8,36.6,56.4,35.9,54.8z M47.9,37
	c3.3,0,6.6,1.3,9.2,3.8c1.3,1.3,2.2,2.7,2.8,4.3h-24c0.6-1.6,1.6-3,2.8-4.3C41.3,38.2,44.6,37,47.9,37z"/>
</svg>
