<?xml version="1.0" encoding="utf-8"?>
<!-- Generator: Adobe Illustrator 19.1.0, SVG Export Plug-In . SVG Version: 6.00 Build 0)  -->
<svg version="1.1" id="Layer_1" xmlns="http://www.w3.org/2000/svg" xmlns:xlink="http://www.w3.org/1999/xlink" x="0px" y="0px"
	 viewBox="0 0 100 100" enable-background="new 0 0 100 100" xml:space="preserve">
<g>
	<g>
		<path fill="#FFFFFF" d="M72.2,50.8c0-7.2-3.5-13.6-8.8-17.7l0,0C57.1,28.3,50,24.2,50,24.2s-6.6,3.9-12.8,8.5l0,0
			C30.9,37.1,27,44.8,28,53.4c1,8.6,6.9,15.7,14.9,18.4c-0.3,0.3-0.6,0.5-0.6,0.8c0,1.3,4.4,2.4,5.8,2.4c0.5,0.4,1.2,0.7,2,0.7
			s1.4-0.3,2-0.7c1.3,0,5.8-1.1,5.8-2.4c0-0.3-0.2-0.6-0.6-0.8C65.9,68.8,72.2,60.6,72.2,50.8z"/>
		<path fill="#00AEEF" d="M50,77.8c-1,0-1.9-0.3-2.7-0.8c-1.9-0.3-6.7-1.2-7-4C32.5,69.5,26.9,62.1,26,53.6
			c-1-8.7,2.8-17.3,9.9-22.4c0.1-0.1,0.1-0.1,0.2-0.2c6.1-4.6,12.7-8.4,12.9-8.6c0.6-0.4,1.4-0.4,2,0c0.3,0.2,7.3,4.2,13.6,9.1
			c0,0,0.1,0.1,0.1,0.1c6,4.6,9.5,11.6,9.5,19.2c0,9.7-5.7,18.3-14.5,22.1c-0.3,2.8-5.1,3.8-7,4C51.9,77.5,51,77.8,50,77.8z
			 M44.8,72.3c1,0.4,2.6,0.8,3.2,0.8c0.5,0,0.9,0.2,1.3,0.4c0.4,0.3,1,0.3,1.4,0c0.4-0.3,0.8-0.4,1.3-0.4c0.7,0,2.3-0.4,3.3-0.8
			c-0.1-0.2-0.1-0.5,0-0.8c0.1-0.7,0.6-1.4,1.3-1.6c8.2-2.8,13.7-10.5,13.7-19.1c0-6.4-2.9-12.2-8-16.1c0,0-0.1-0.1-0.1-0.1
			c-4.7-3.6-9.9-6.8-12-8.1c-2,1.2-6.8,4.2-11.3,7.5c-0.1,0.1-0.2,0.2-0.3,0.2c-6,4.2-9.3,11.5-8.5,18.8c0.9,7.7,6.2,14.2,13.5,16.8
			c0.7,0.2,1.2,0.8,1.3,1.6C44.9,71.8,44.9,72,44.8,72.3z"/>
	</g>
	<path fill="#F7941E" d="M63.4,33.2L63.4,33.2C57.1,28.3,50,24.2,50,24.2s-6.6,3.9-12.8,8.5l0,0C30.9,37.1,27,44.8,28,53.4
		c1.1,10.2,9.3,18.4,19.5,19.5c13.4,1.5,24.7-9,24.7-22C72.2,43.6,68.7,37.2,63.4,33.2z"/>
	<circle fill="#FCD3C1" cx="50" cy="52.1" r="15.5"/>
	<g>
		<circle fill="#594A42" cx="45.1" cy="49.1" r="1.7"/>
		<circle fill="#594A42" cx="54.9" cy="49.1" r="1.7"/>
	</g>
	<ellipse fill="#F598A4" cx="50" cy="54.3" rx="2.9" ry="1.5"/>
	<path fill="#8B5E3C" d="M63.9,45.2H36.1c0,0,4-8.6,13.9-8.6S63.9,45.2,63.9,45.2z"/>
	<g>
		<rect x="43.5" y="40.7" fill="#63442F" width="1" height="4.5"/>
		<rect x="55.5" y="40.7" fill="#63442F" width="1" height="4.5"/>
	</g>
	<rect x="49.5" y="39.2" fill="#63442F" width="1" height="6"/>
	<path fill="#BE1E2D" d="M50,63.9c-6.8,0-11.8-4.5-11.8-10.8c0-0.3,0.2-0.5,0.5-0.5s0.5,0.2,0.5,0.5c0,5.7,4.5,9.8,10.8,9.8
		s10.8-4.1,10.8-9.8c0-0.3,0.2-0.5,0.5-0.5s0.5,0.2,0.5,0.5C61.8,59.4,56.8,63.9,50,63.9z"/>
	<path fill="#DF8727" d="M50.5,72.6c0,1.3-1.1,2.4-2.4,2.4c-1.3,0-5.8-1.1-5.8-2.4c0-1.3,4.4-2.4,5.8-2.4
		C49.4,70.2,50.5,71.3,50.5,72.6z"/>
	<path fill="#DF8727" d="M49.5,72.6c0-1.3,1.1-2.4,2.4-2.4c1.3,0,5.8,1.1,5.8,2.4c0,1.3-4.4,2.4-5.8,2.4
		C50.6,75.1,49.5,74,49.5,72.6z"/>
	<circle fill="#FCB977" cx="50" cy="72.6" r="3.1"/>
</g>
</svg>
