<?xml version="1.0" encoding="utf-8"?>
<!-- Generator: Adobe Illustrator 19.1.0, SVG Export Plug-In . SVG Version: 6.00 Build 0)  -->
<svg version="1.1" id="Layer_1" xmlns="http://www.w3.org/2000/svg" xmlns:xlink="http://www.w3.org/1999/xlink" x="0px" y="0px"
	 viewBox="0 0 100 100" enable-background="new 0 0 100 100" xml:space="preserve">
<g>
	<g>
		<g>
			<path fill="#FFFFFF" d="M42.6,40.5c-1.5,1.5-2.5,3.3-3.2,5.1l0,0v0c-1.6,4.7-0.6,10.1,3.2,13.9c5.3,5.3,13.8,5.3,19,0
				c3.8-3.8,4.8-9.2,3.2-13.9v0l0,0c-0.6-1.9-1.7-3.6-3.2-5.1C56.4,35.3,47.9,35.3,42.6,40.5z"/>
			<path fill="#00AEEF" d="M52.1,65.5c-4,0-7.9-1.5-10.9-4.5c-4.2-4.2-5.6-10.3-3.7-16c0.8-2.2,2-4.2,3.7-5.9l0,0c6-6,15.8-6,21.8,0
				c1.7,1.7,2.9,3.6,3.7,5.9c1.9,5.6,0.5,11.8-3.7,16C60,64,56.1,65.5,52.1,65.5z M44,41.9c-1.2,1.2-2.1,2.7-2.7,4.4
				c-1.4,4.2-0.4,8.7,2.7,11.8c4.5,4.5,11.7,4.5,16.2,0c3.1-3.1,4.2-7.6,2.7-11.8c-0.6-1.7-1.5-3.1-2.7-4.4
				C55.7,37.5,48.5,37.5,44,41.9L44,41.9z"/>
		</g>
		<g>
			<path fill="#FFFFFF" d="M28.2,59.5c-0.3,0.3-0.5,0.5-0.7,0.8v0.1H31l0,3.6h3.6v3.6h3.6v3.6h3.6v3.6h0.2c0.2-0.2,0.5-0.4,0.7-0.6
				c4-4,4-10.5,0-14.5C38.6,55.6,32.1,55.6,28.2,59.5z"/>
			<path fill="#00AEEF" d="M41.9,76.6h-0.2c-1.1,0-2-0.9-2-2v-1.6h-1.6c-1.1,0-2-0.9-2-2v-1.6h-1.6c-1.1,0-2-0.9-2-2V66H31
				c-1.1,0-2-0.9-2-2v-1.6h-1.6c-1.1,0-2-0.9-2-2c0-0.5,0.2-1,0.4-1.3c0.3-0.3,0.6-0.7,0.9-1l0,0c4.8-4.8,12.5-4.8,17.3,0
				c4.8,4.8,4.8,12.5,0,17.3c-0.3,0.3-0.6,0.5-0.8,0.8C42.8,76.5,42.4,76.6,41.9,76.6z M40.1,69.1h1.6c0.5,0,1,0.2,1.4,0.6
				c1.1-2.9,0.5-6.3-1.9-8.7c-2.3-2.3-5.8-3-8.7-1.9c0.3,0.4,0.5,0.8,0.5,1.3V62h1.6c1.1,0,2,0.9,2,2v1.6h1.6c1.1,0,2,0.9,2,2V69.1z
				"/>
		</g>
		<g>
			<path fill="#FFFFFF" d="M73.2,39.6V36l-3.6,0v-3.6H66v-3.6h-3.6v-3.6h-0.1c-0.3,0.2-0.5,0.5-0.8,0.7c-4,4-4,10.5,0,14.5
				c4,4,10.5,4,14.5,0c0.2-0.2,0.4-0.5,0.6-0.7v-0.2H73.2z"/>
			<path fill="#00AEEF" d="M68.9,45.5c-3.1,0-6.3-1.2-8.6-3.6c-4.8-4.8-4.8-12.5,0-17.3c0.3-0.3,0.6-0.6,0.9-0.9
				c0.4-0.3,0.8-0.4,1.3-0.4c1.1,0,2.1,0.9,2.1,2v1.6H66c1.1,0,2,0.9,2,2v1.6h1.6c1.1,0,2,0.9,2,2V34h1.6c1.1,0,2,0.9,2,2v1.6h1.6
				c1.1,0,2,0.9,2,2v0.2c0,0.5-0.2,0.9-0.5,1.3c-0.2,0.3-0.5,0.6-0.8,0.8C75.1,44.3,72,45.5,68.9,45.5z M61.2,30.4
				c-1.1,2.9-0.5,6.3,1.9,8.7c2.3,2.3,5.8,3,8.7,1.9c-0.4-0.4-0.6-0.9-0.6-1.4V38h-1.6c-1.1,0-2-0.9-2-2v-1.6H66c-1.1,0-2-0.9-2-2
				v-1.6h-1.6C62,30.9,61.5,30.7,61.2,30.4z"/>
		</g>
	</g>
	<circle fill="#F7941E" cx="52.1" cy="50" r="13.4"/>
	<path fill="#F7941E" d="M28.2,59.5c-0.3,0.3-0.5,0.5-0.7,0.8v0.1H31l0,3.6h3.6v3.6h3.6l0,3.6h3.6v3.6h0.2c0.2-0.2,0.5-0.4,0.7-0.6
		c4-4,4-10.5,0-14.5S32.1,55.6,28.2,59.5z"/>
	<path fill="#F7941E" d="M61.6,26.1c0.3-0.3,0.5-0.5,0.8-0.7h0.1v3.6l3.6,0v3.6h3.6V36l3.6,0v3.6h3.6v0.2c-0.2,0.2-0.4,0.5-0.6,0.7
		c-4,4-10.5,4-14.5,0S57.6,30.1,61.6,26.1z"/>
	<path fill="#FFF450" d="M39.4,54.4h25.4c1-2.8,1-5.9,0-8.8H39.4C38.4,48.5,38.4,51.6,39.4,54.4z"/>
</g>
</svg>
