<?xml version="1.0" encoding="utf-8"?>
<!-- Generator: Adobe Illustrator 19.1.0, SVG Export Plug-In . SVG Version: 6.00 Build 0)  -->
<svg version="1.1" id="Layer_1" xmlns="http://www.w3.org/2000/svg" xmlns:xlink="http://www.w3.org/1999/xlink" x="0px" y="0px"
	 viewBox="0 0 100 100" enable-background="new 0 0 100 100" xml:space="preserve">
<g>
	<g>
		<g>
			<path fill="#FFFFFF" d="M61.7,73.4V50.3c0-1.2-1-2.2-2.2-2.2H44.9c-1.2,0-2.2,1-2.2,2.2v20.3c-1,0.2-1.7,1-1.7,2
				c-1.2,0-2.2,1-2.1,2.2c0,0,0,0,0,0h4.1h16.6h3.4C63,74.1,62.4,73.5,61.7,73.4z"/>
			<path fill="#00AEEF" d="M63.1,76.8H39c-0.5,0-1-0.2-1.4-0.5c0,0-0.1,0-0.1-0.1C37.2,75.9,37,75.4,37,75c-0.1-1.1,0.3-2.2,1.1-3.1
				c0.4-0.4,0.8-0.7,1.3-0.9c0.3-0.7,0.8-1.2,1.4-1.7v-19c0-2.3,1.9-4.2,4.2-4.2h14.7c2.3,0,4.2,1.9,4.2,4.2v21.9
				c0.7,0.6,1.2,1.4,1.3,2.4c0.1,0.6-0.1,1.1-0.5,1.6C64.2,76.6,63.6,76.8,63.1,76.8z M43.1,72.8h16.7V50.3c0-0.1-0.1-0.2-0.2-0.2
				H44.9c-0.1,0-0.2,0.1-0.2,0.2v20.3c0,1-0.7,1.8-1.6,2C43.1,72.6,43.1,72.7,43.1,72.8z"/>
		</g>
		<g>
			<path fill="#FFFFFF" d="M52.2,46.2c1.2,0,2.4-0.9,3.4-2.1c2.8-3.4,3.3-7.5,1.8-11.3c-1.1-2.7-2.5-5.8-3.6-7
				c-0.8-0.9-2.5-0.9-3.3,0c-1.1,1.1-2.5,4.2-3.6,7c-1.5,3.8-1,8,1.8,11.3C49.8,45.3,51,46.2,52.2,46.2z"/>
			<path fill="#00AEEF" d="M52.2,48.2c-1.7,0-3.4-1-5-2.9c-3.2-3.9-4-8.8-2.1-13.3c2.4-5.9,3.6-7.2,4-7.6c0.8-0.8,1.9-1.3,3.1-1.3
				c1.2,0,2.3,0.5,3.1,1.3c0.4,0.4,1.6,1.7,4,7.6c1.9,4.6,1.1,9.5-2.1,13.3C55.6,47.3,53.9,48.2,52.2,48.2z M52.2,27.2
				c-0.1,0-0.2,0-0.3,0c-0.2,0.2-1.2,1.5-3.1,6.3c-1.3,3.2-0.7,6.6,1.5,9.3c0.8,1,1.5,1.4,1.9,1.4s1-0.4,1.9-1.4
				c2.2-2.7,2.8-6.1,1.5-9.3c-1.9-4.8-2.9-6.1-3.2-6.3C52.4,27.2,52.3,27.2,52.2,27.2z"/>
		</g>
	</g>
	<path fill="#FDB913" d="M43.1,74.8h16.6h3.4c-0.1-0.7-0.6-1.3-1.3-1.5V50.3c0-1.2-1-2.2-2.2-2.2H44.9c-1.2,0-2.2,1-2.2,2.2v20.3
		c-1,0.2-1.7,1-1.7,2c-1.2,0-2.2,1-2.1,2.2c0,0,0,0,0,0H43.1z"/>
	<path fill="#FFF450" d="M57.4,32.8c1.5,3.8,1,8-1.8,11.3c-1,1.2-2.2,2.1-3.4,2.1c-1.2,0-2.4-0.9-3.4-2.1c-2.8-3.4-3.3-7.5-1.8-11.3
		c1.1-2.7,2.5-5.8,3.6-7c0.8-0.9,2.5-0.9,3.3,0C54.9,27,56.3,30.1,57.4,32.8z"/>
	<path fill="#F7941E" d="M54.8,37c0.8,1.9,0.5,3.9-0.9,5.5c-0.5,0.6-1.1,1-1.7,1c-0.6,0-1.2-0.4-1.7-1c-1.4-1.6-1.6-3.7-0.9-5.5
		c0.5-1.3,1.2-2.8,1.7-3.4c0.4-0.4,1.2-0.4,1.6,0C53.5,34.2,54.2,35.7,54.8,37z"/>
	<path fill="#C47D40" d="M49.3,60.4c-2.2,0-2.4-2.4-2.4-4.7c0-2.5-1.3-2.6-1.4-2.6c-0.3,0-0.5-0.2-0.5-0.5s0.2-0.5,0.5-0.5
		c0.1,0,0.8,0,1.4,0.6c0.6,0.6,1,1.6,1,3c0,3.4,0.7,3.7,1.4,3.7c0.9,0,1.6-1.6,1.6-4c0-1.5,0.6-2.6,1.6-3c0.9-0.4,1.8-0.2,2.5,0.5
		c0.5,0.5,1.3,0.7,2,0.6c0.4-0.1,1-0.3,1.3-1c0.1-0.3,0.4-0.4,0.7-0.3c0.3,0.1,0.4,0.4,0.3,0.7c-0.4,0.9-1.1,1.4-2,1.6
		c-1.1,0.2-2.2-0.1-2.9-0.9c-0.4-0.4-0.9-0.5-1.4-0.3c-0.6,0.3-1,1-1,2.1C51.8,58.5,50.9,60.4,49.3,60.4z"/>
</g>
</svg>
