<?xml version="1.0" encoding="utf-8"?>
<!-- Generator: Adobe Illustrator 19.1.0, SVG Export Plug-In . SVG Version: 6.00 Build 0)  -->
<svg version="1.1" id="Layer_1" xmlns="http://www.w3.org/2000/svg" xmlns:xlink="http://www.w3.org/1999/xlink" x="0px" y="0px"
	 viewBox="0 0 100 100" enable-background="new 0 0 100 100" xml:space="preserve">
<g>
	<g>
		<path fill="#FFFFFF" d="M73,53.2c0-2.3-1.6-4.2-3.7-4.8c0.3-0.5,0.5-1,0.5-1.7v-4.3c0-1.8-1.5-3.3-3.3-3.3h-0.6l-9.1-10.3
			c0.8-0.9,1.3-2.2,1.3-3.5c0-3-2.4-5.4-5.4-5.4c-3,0-5.4,2.4-5.4,5.4c0,1.3,0.5,2.6,1.3,3.5l-9.1,10.3h-0.6c-1.8,0-3.3,1.5-3.3,3.3
			v4.3c0,0.6,0.2,1.2,0.5,1.7c-2.1,0.5-3.7,2.5-3.7,4.8c0,2.3,1.6,4.3,3.8,4.8c0.2,0.7,0.5,1.4,1,2.1c1.1,13.7,10.3,20,15.4,20
			c5.1,0,14.3-6.2,15.4-19.7c0.6-0.8,0.9-1.6,1.2-2.4C71.4,57.4,73,55.5,73,53.2z"/>
		<path fill="#00AEEF" d="M52.6,82c-6.5,0-16.1-7.4-17.4-21.3c-0.2-0.4-0.4-0.8-0.6-1.2c-2.6-1.1-4.3-3.5-4.3-6.4
			c0-2.4,1.3-4.6,3.3-5.9c0-0.2,0-0.4,0-0.5v-4.3c0-2.8,2.2-5.1,5-5.3l7.5-8.4c-0.5-1-0.8-2.2-0.8-3.3c0-4.1,3.3-7.4,7.4-7.4
			s7.4,3.3,7.4,7.4c0,1.2-0.3,2.3-0.8,3.3l7.5,8.4c2.8,0.2,5,2.5,5,5.3v4.3c0,0.2,0,0.4,0,0.5c2,1.2,3.3,3.4,3.3,5.9
			c0,2.8-1.7,5.3-4.3,6.4c-0.2,0.5-0.5,1-0.8,1.5C68.6,74.7,59.1,82,52.6,82z M38.9,41.2c-0.7,0-1.3,0.6-1.3,1.3v4.3
			c0,0.2,0.1,0.4,0.2,0.6c0.3,0.5,0.4,1.2,0.1,1.8s-0.7,1-1.4,1.2c-1.3,0.3-2.2,1.5-2.2,2.8c0,1.4,0.9,2.5,2.3,2.8
			c0.7,0.2,1.2,0.7,1.4,1.3c0.2,0.6,0.4,1.1,0.8,1.6c0.2,0.3,0.3,0.6,0.3,1c1,12.6,9.4,18.1,13.4,18.1c4,0,12.4-5.4,13.4-17.9
			c0-0.4,0.2-0.7,0.4-1c0.4-0.5,0.7-1.1,0.9-1.8c0.2-0.7,0.8-1.2,1.4-1.3c1.3-0.3,2.3-1.5,2.3-2.8c0-1.3-0.9-2.5-2.2-2.8
			c-0.6-0.2-1.1-0.6-1.4-1.2s-0.2-1.2,0.1-1.8c0.1-0.2,0.2-0.4,0.2-0.6v-4.3c0-0.7-0.6-1.3-1.3-1.3h-0.6c-0.6,0-1.1-0.2-1.5-0.7
			l-9.1-10.3c-0.7-0.7-0.7-1.9,0-2.6c0.5-0.6,0.8-1.4,0.8-2.2c0-1.9-1.5-3.4-3.4-3.4s-3.4,1.5-3.4,3.4c0,0.8,0.3,1.6,0.8,2.2
			c0.6,0.8,0.6,1.9,0,2.6L41,40.5c-0.4,0.4-0.9,0.7-1.5,0.7H38.9z"/>
	</g>
	<circle fill="#FFFFFF" cx="52.7" cy="25.4" r="5.4"/>
	<path fill="#BE1E2D" d="M38.7,40.1l10-11.3c2.1-2.4,5.9-2.4,8,0l10,11.3"/>
	<g>
		<circle fill="#FCD3C1" cx="37.3" cy="53.2" r="4.9"/>
		<circle fill="#FCD3C1" cx="68.1" cy="53.2" r="4.9"/>
	</g>
	<circle fill="#FBBEA7" cx="52.6" cy="57.4" r="15.5"/>
	<circle fill="#594A42" cx="47.1" cy="52.8" r="2.9"/>
	<circle fill="#594A42" cx="58.3" cy="52.8" r="2.9"/>
	<path fill="#F1F2F2" d="M68.2,57.4C68.2,73,58.1,80,52.6,80s-15.5-7-15.5-22.6c0,0,7.5,0.6,16.1,0.6S68.2,57.4,68.2,57.4z"/>
	<path fill="#FFFFFF" d="M52.6,59.1c0,2.8-2.6,5.1-5.9,5.1c-11.8,0-11-9.5-11-9.5c4.7,3.9,7.4-0.6,11.8-0.6
		C50.3,54,52.6,56.3,52.6,59.1z"/>
	<path fill="#FFFFFF" d="M52.8,59.1c0,2.8,2.6,5.1,5.9,5.1c11.8,0,11-9.5,11-9.5c-4.7,3.9-7.4-0.6-11.8-0.6
		C55,54,52.8,56.3,52.8,59.1z"/>
	<ellipse fill="#FCD3C1" cx="52.6" cy="57.2" rx="6.8" ry="4.3"/>
	<path fill="#FFFFFF" d="M66.5,50H38.9c-1.8,0-3.3-1.5-3.3-3.3v-4.3c0-1.8,1.5-3.3,3.3-3.3h27.5c1.8,0,3.3,1.5,3.3,3.3v4.3
		C69.8,48.5,68.3,50,66.5,50z"/>
	<path fill="#BE1E2D" d="M52.7,70.2c-2.5,0-4.5-1.8-4.5-4.1c0-0.3,0.2-0.5,0.5-0.5s0.5,0.2,0.5,0.5c0,1.7,1.6,3.1,3.5,3.1
		s3.5-1.4,3.5-3.1c0-0.3,0.2-0.5,0.5-0.5s0.5,0.2,0.5,0.5C57.2,68.4,55.2,70.2,52.7,70.2z"/>
</g>
</svg>
