<?xml version="1.0" encoding="utf-8"?>
<!-- Generator: Adobe Illustrator 19.1.0, SVG Export Plug-In . SVG Version: 6.00 Build 0)  -->
<svg version="1.1" id="Layer_1" xmlns="http://www.w3.org/2000/svg" xmlns:xlink="http://www.w3.org/1999/xlink" x="0px" y="0px"
	 viewBox="0 0 100 100" enable-background="new 0 0 100 100" xml:space="preserve">
<path d="M68.7,25.1H33.2c-1.1,0-2,0.9-2,2v45.5c0,1.1,0.9,2,2,2h35.5c1.1,0,2-0.9,2-2V27.1C70.7,26,69.8,25.1,68.7,25.1z M68.2,40
	H62c-0.8-2.6-2.6-4.1-5.3-4.1c-1.3,0-2.7,0.4-4,1v-9.2h15.5V40z M44.8,72.1V55.7c0,0,0,0,0,0c0.2,0,0.3,0.1,0.5,0.1c0,0,0.1,0,0.1,0
	c0.2,0,0.4,0,0.6,0c0.2,0,0.5,0,0.8-0.1c0.1,0,0.1,0,0.2-0.1c0.2-0.1,0.4-0.1,0.6-0.2c0.1,0,0.1-0.1,0.2-0.1
	c0.2-0.1,0.4-0.3,0.6-0.4c0.1,0,0.1-0.1,0.2-0.1c0.1-0.1,0.3-0.3,0.4-0.4c0,0,0.1-0.1,0.1-0.1c0,0,0.1,0.1,0.1,0.1
	c0.1,0.1,0.2,0.3,0.4,0.4c0,0,0.1,0.1,0.1,0.1c0.2,0.2,0.4,0.3,0.6,0.4c0,0,0.1,0,0.1,0c0.2,0.1,0.4,0.2,0.6,0.2
	c0.1,0,0.1,0,0.2,0.1c0.2,0,0.3,0.1,0.5,0.1c0,0,0.1,0,0.1,0v16.3H44.8z M33.7,48.9h3.9c0.9,0.8,2.1,1.3,3.6,1.3
	c0.3,0,0.6,0,0.8-0.1l0,0.1c-0.4,1.3-0.2,2.7,0.6,3.8c0.4,0.5,0.8,0.9,1.3,1.2v16.8H33.7V48.9z M51.7,27.6v9.8c0,0-0.1,0-0.1,0.1
	c-0.2,0.1-0.4,0.3-0.6,0.4c-0.1,0.1-0.2,0.1-0.3,0.2c-0.2,0.2-0.4,0.3-0.6,0.5c0,0-0.1,0.1-0.1,0.1c-0.2,0.2-0.3,0.3-0.5,0.5
	c-0.2,0-0.4,0-0.7,0c0,0,0,0,0,0s0,0,0,0c0,0,0,0,0,0c-0.2,0-0.4,0-0.7,0c-0.1-0.1-0.2-0.2-0.3-0.3c-0.1-0.1-0.2-0.3-0.4-0.4
	c-0.1-0.1-0.2-0.2-0.4-0.3c-0.1-0.1-0.3-0.2-0.4-0.4c-0.1-0.1-0.2-0.2-0.4-0.2c-0.2-0.1-0.4-0.3-0.6-0.4c-0.1-0.1-0.2-0.1-0.3-0.2
	c-0.2-0.1-0.5-0.3-0.7-0.4c0,0-0.1,0-0.1,0v-9.1H51.7z M51.8,38.6C51.8,38.6,51.8,38.6,51.8,38.6c0.2-0.2,0.4-0.3,0.7-0.4l0.2-0.1v0
	c1.3-0.7,2.7-1.1,4-1.1c2.7,0,3.9,1.7,4.4,3.6l0,0.2c0.1,0.4,0.2,0.7,0.2,1.1c0,0,0,0,0,0c0,0.4,0.1,0.8,0.1,1.2c0,0.3,0,0.5,0,0.7
	c0,0,0,0.1,0,0.1c0,0.2,0,0.5-0.1,0.7c0,0,0,0.1,0,0.1c0,0.2-0.1,0.4-0.1,0.7c0,0,0,0,0,0c-0.3,1.1-0.7,2.1-1.4,2.7l-0.2,0.2
	c-0.7,0.6-1.6,0.9-2.8,0.9c-0.4,0-0.8,0-1.2-0.1l-0.2,0c-1-0.2-2-0.6-2.8-1.1c0,0,0,0,0,0c-0.2-0.1-0.4-0.3-0.6-0.4
	c0,0-0.1,0-0.1-0.1c-0.2-0.1-0.3-0.3-0.5-0.4c-0.1-0.1-0.1-0.1-0.2-0.2c-0.1-0.1-0.2-0.2-0.3-0.3c0.1,0,0.1-0.1,0.2-0.1
	c0.2-0.1,0.4-0.2,0.6-0.4c0.1,0,0.1-0.1,0.2-0.1c0.1-0.1,0.2-0.2,0.2-0.3c0.1-0.1,0.1-0.1,0.2-0.2c0.1-0.1,0.1-0.2,0.2-0.3
	c0.1-0.2,0.2-0.3,0.3-0.5c0-0.1,0.1-0.2,0.1-0.2c0-0.1,0.1-0.3,0.1-0.5c0-0.1,0-0.2,0-0.2c0-0.2,0.1-0.5,0.1-0.8
	c0-0.3,0-0.5-0.1-0.8c0-0.1,0-0.2,0-0.2c0-0.2-0.1-0.3-0.1-0.5c0-0.1,0-0.2-0.1-0.2c-0.1-0.2-0.2-0.4-0.3-0.5
	c-0.1-0.1-0.1-0.2-0.2-0.3c-0.1-0.1-0.1-0.1-0.2-0.2c-0.1-0.1-0.2-0.2-0.3-0.3c-0.1-0.1-0.1-0.1-0.2-0.1c-0.2-0.2-0.4-0.3-0.7-0.4
	c0,0-0.1,0-0.1-0.1c0.1-0.1,0.3-0.2,0.4-0.4c0,0,0.1-0.1,0.1-0.1C51.4,38.9,51.6,38.7,51.8,38.6z M55,50.6c0.3,1,0.2,2.1-0.4,2.9
	c-0.6,0.8-1.5,1.3-2.5,1.3c-1.1,0-2.5-0.8-2.5-2v-6c0,0,0.1,0,0.1,0c0.4,0.4,0.8,0.8,1.2,1.2c0,0,0.1,0.1,0.1,0.1
	c0.2,0.2,0.5,0.4,0.8,0.5c0,0,0.1,0,0.1,0.1c0.3,0.2,0.6,0.3,0.9,0.5c0.1,0,0.1,0.1,0.2,0.1c0.2,0.1,0.4,0.2,0.6,0.3
	c0.1,0.1,0.3,0.1,0.4,0.2c0.1,0,0.2,0.1,0.3,0.1c0.2,0.1,0.4,0.1,0.5,0.2L55,50.6z M45.3,54.8c-0.2-0.1-0.5-0.1-0.7-0.3l-0.1,0
	c-0.4-0.2-0.8-0.6-1.1-1c-0.6-0.9-0.8-1.9-0.4-2.9l0.2-0.6c0.2,0,0.4-0.1,0.5-0.2c0.1,0,0.2-0.1,0.3-0.1c0.1-0.1,0.3-0.1,0.4-0.2
	c0.2-0.1,0.4-0.2,0.6-0.3c0.1,0,0.2-0.1,0.2-0.1c0.3-0.1,0.6-0.3,0.9-0.5c0,0,0.1,0,0.1-0.1c0.2-0.2,0.5-0.3,0.7-0.5
	c0.1,0,0.1-0.1,0.2-0.1c0.3-0.2,0.5-0.4,0.7-0.6c0,0,0,0,0,0c0.2-0.2,0.3-0.3,0.5-0.5c0.1,0,0.1,0,0.2,0l0.1,6c0,1.1-1.4,2-2.5,2
	C45.8,54.9,45.5,54.8,45.3,54.8z M38.3,48.3l-0.2-0.2c-0.7-0.7-1.1-1.6-1.4-2.7c0,0,0,0,0,0c0-0.2-0.1-0.4-0.1-0.6c0,0,0-0.1,0-0.1
	c0-0.2-0.1-0.4-0.1-0.7c0,0,0-0.1,0-0.1c0-0.2,0-0.5,0-0.7c0-0.4,0-0.8,0.1-1.2c0,0,0,0,0,0c0-0.4,0.1-0.8,0.2-1.1l0-0.2
	c0.5-1.8,1.6-3.6,4.4-3.6c0.9,0,1.8,0.2,2.7,0.5l0.2,0.1c0.7,0.3,1.4,0.7,2,1.1c0,0,0.1,0.1,0.1,0.1c0.2,0.2,0.5,0.4,0.7,0.5
	c0.1,0.1,0.1,0.1,0.2,0.2c0,0,0.1,0.1,0.1,0.1c0,0-0.1,0-0.1,0c-0.2,0.1-0.5,0.2-0.7,0.4c-0.1,0-0.1,0.1-0.2,0.1
	c-0.1,0.1-0.2,0.2-0.2,0.2c-0.1,0.1-0.1,0.1-0.2,0.2c-0.1,0.1-0.1,0.2-0.2,0.3c-0.1,0.2-0.2,0.3-0.3,0.5c0,0.1-0.1,0.2-0.1,0.2
	c0,0.2-0.1,0.3-0.1,0.5c0,0.1,0,0.1,0,0.2c0,0.2-0.1,0.5-0.1,0.8c0,0.3,0,0.5,0.1,0.8c0,0.1,0,0.2,0,0.2c0,0.2,0.1,0.3,0.1,0.5
	c0,0.1,0,0.2,0.1,0.2c0.1,0.2,0.2,0.4,0.3,0.5c0.1,0.1,0.1,0.2,0.2,0.3c0.1,0.1,0.1,0.2,0.2,0.2c0.1,0.1,0.2,0.2,0.2,0.2
	c0.1,0.1,0.1,0.1,0.2,0.2c0.2,0.1,0.4,0.3,0.6,0.4c0.1,0,0.1,0.1,0.2,0.1c-0.1,0.1-0.2,0.2-0.3,0.3c-0.1,0.1-0.2,0.1-0.2,0.2
	c-0.2,0.1-0.3,0.3-0.5,0.4c0,0-0.1,0-0.1,0.1c-0.2,0.1-0.4,0.3-0.6,0.4c0,0,0,0,0,0c-0.9,0.5-1.9,0.9-2.8,1.1l-0.2,0
	c-0.4,0.1-0.8,0.1-1.2,0.1C39.9,49.2,39,48.9,38.3,48.3z M50.7,40.7c0.1,0,0.1,0.1,0.2,0.2c0.1,0,0.1,0.1,0.2,0.1
	c0.1,0.1,0.2,0.2,0.2,0.3c0,0,0,0.1,0.1,0.1c0.1,0.1,0.2,0.3,0.2,0.5c0,0,0,0.1,0,0.1c0,0.1,0.1,0.3,0.1,0.4c0,0.1,0,0.1,0,0.2
	c0,0.2,0,0.4,0,0.6s0,0.4,0,0.6c0,0.1,0,0.1,0,0.2c0,0.1-0.1,0.3-0.1,0.4c0,0,0,0.1,0,0.1c-0.1,0.2-0.1,0.3-0.2,0.5
	c0,0,0,0.1-0.1,0.1c-0.1,0.1-0.1,0.2-0.2,0.3c0,0.1-0.1,0.1-0.2,0.1c-0.1,0.1-0.1,0.1-0.2,0.2c-0.1,0.1-0.2,0.1-0.3,0.2
	c-0.1,0-0.1,0.1-0.2,0.1c-0.2,0.1-0.3,0.1-0.5,0.1c0,0,0,0-0.1,0c-0.3,0-0.5,0.1-0.8,0.1h0c0,0,0,0,0,0c-0.2,0-0.4,0-0.7-0.1
	c0,0,0,0-0.1,0c-0.2,0-0.4-0.1-0.5-0.1c-0.1,0-0.1,0-0.2-0.1c-0.1,0-0.2-0.1-0.3-0.2c-0.1-0.1-0.1-0.1-0.2-0.2
	c-0.1,0-0.1-0.1-0.2-0.1c-0.1-0.1-0.2-0.2-0.2-0.3c0,0,0-0.1-0.1-0.1c-0.1-0.1-0.2-0.3-0.2-0.5c0,0,0-0.1,0-0.1
	c0-0.1-0.1-0.3-0.1-0.4c0,0,0-0.1,0-0.1c0-0.2,0-0.4,0-0.6s0-0.4,0-0.6c0,0,0-0.1,0-0.1c0-0.2,0.1-0.3,0.1-0.4c0,0,0-0.1,0-0.1
	c0.1-0.2,0.1-0.3,0.2-0.5c0,0,0-0.1,0.1-0.1c0.1-0.1,0.1-0.2,0.2-0.3c0.1-0.1,0.1-0.1,0.2-0.1c0.1-0.1,0.1-0.1,0.2-0.2
	c0.1-0.1,0.2-0.1,0.3-0.2c0,0,0.1,0,0.1-0.1c0.2-0.1,0.3-0.1,0.5-0.2c0,0,0,0,0,0c0.3,0,0.5-0.1,0.7-0.1c0,0,0,0,0,0c0,0,0,0,0,0
	c0.2,0,0.5,0,0.7,0.1c0,0,0,0,0,0c0.2,0,0.4,0.1,0.5,0.2c0.1,0,0.1,0,0.1,0.1C50.5,40.6,50.6,40.6,50.7,40.7z M43.8,36.4
	c-0.9-0.3-1.8-0.5-2.7-0.5c-2.7,0-4.5,1.5-5.3,4.1h-2.2V27.6h10.1V36.4z M33.7,41h2c0,0,0,0.1,0,0.2c0,0.2-0.1,0.4-0.1,0.7
	c0,0.1,0,0.2,0,0.2c0,0.3,0,0.6,0,1c0,0.5,0,0.9,0.1,1.3c0,0.1,0,0.1,0,0.2c0,0.4,0.1,0.8,0.2,1.1c0,0.1,0,0.1,0.1,0.2
	c0.1,0.3,0.2,0.7,0.3,1c0,0.1,0.1,0.1,0.1,0.2c0.1,0.3,0.3,0.6,0.4,0.8c0,0,0,0,0,0.1h-3V41z M52.7,55.8c1-0.2,2-0.8,2.6-1.7
	c0.8-1.1,1-2.5,0.6-3.8l0-0.1c0.3,0,0.6,0.1,0.8,0.1c1.5,0,2.7-0.5,3.6-1.3h7.9v23.2H52.7V55.8z M68.2,47.9h-7c0,0,0,0,0-0.1
	c0.2-0.3,0.3-0.5,0.4-0.8c0-0.1,0.1-0.1,0.1-0.2c0.1-0.3,0.2-0.6,0.3-1c0-0.1,0-0.1,0.1-0.2c0.1-0.4,0.2-0.7,0.2-1.1
	c0-0.1,0-0.1,0-0.2c0-0.4,0.1-0.9,0.1-1.3c0-0.3,0-0.6,0-1c0-0.1,0-0.2,0-0.3c0-0.2,0-0.5-0.1-0.7c0,0,0-0.1,0-0.2h5.9V47.9z"/>
</svg>
