<?xml version="1.0" encoding="utf-8"?>
<!-- Generator: Adobe Illustrator 19.1.0, SVG Export Plug-In . SVG Version: 6.00 Build 0)  -->
<svg version="1.1" id="Layer_1" xmlns="http://www.w3.org/2000/svg" xmlns:xlink="http://www.w3.org/1999/xlink" x="0px" y="0px"
	 viewBox="0 0 100 100" enable-background="new 0 0 100 100" xml:space="preserve">
<g>
	<g>
		<path fill="#FFFFFF" d="M77.5,57c-1.8-0.8-5.6-2.7-8.8-5.9c-0.8-0.8-1.6-1.6-2.4-2.2c1.4,0.6,2.2,1.1,2.2,1.1
			c0.2-7.8,7.7-7.7,7.7-7.7c-4.2-7.1-0.5-15.7-0.5-15.7c-7.7,4.1-14.7,0.5-14.7,0.5c-0.4,8-7.7,7.7-7.7,7.7c1.7,3,2.1,6,2,8.5
			c0,0,0,0,0,0c-2.4,0-4.4,2-4.4,4.4c0,0.7,0.2,1.4,0.5,2.1c-0.2,0-0.4-0.1-0.5-0.1s-0.4,0-0.5,0.1c0.3-0.6,0.5-1.3,0.5-2.1
			c0-2.3-1.8-4.2-4.1-4.3c0.1-4.6,2.5-8.5,2.5-8.5c-7.8-0.2-7.7-7.7-7.7-7.7c-7.1,4.2-15.7,0.5-15.7,0.5c4.1,7.7,0.5,14.7,0.5,14.7
			c8,0.4,7.7,7.7,7.7,7.7c0.4-0.2,0.8-0.4,1.2-0.6c-0.7,0.6-1.3,1.2-2,1.8c-3.2,3.2-7,5-8.7,5.8c-0.8,0.4-1.3,1.3-1,2.1
			c0.4,1.2,1.7,3.3,4.7,6.5c0,0,0,0,0,0c-0.8,0.8-0.8,2.2,0,3s2.2,0.8,3,0c0,0,0,0,0,0c3.2,3,5.3,4.3,6.5,4.7c0.8,0.3,1.8-0.1,2.1-1
			c0.8-1.8,2.7-5.6,5.9-8.8c1.7-1.7,3.2-3.5,4.1-5.3c0.3,0.1,0.6,0.1,0.9,0.1c0.5,0,0.9-0.1,1.3-0.2c0.9,1.9,2.4,3.8,4.2,5.5
			c3.2,3.2,5,7,5.8,8.7c0.4,0.8,1.3,1.3,2.1,1c1.2-0.4,3.3-1.7,6.5-4.7c0,0,0,0,0,0c0.8,0.8,2.2,0.8,3,0s0.8-2.2,0-3c0,0,0,0,0,0
			c3-3.2,4.3-5.3,4.7-6.5C78.7,58.3,78.3,57.3,77.5,57z"/>
		<path fill="#00AEEF" d="M63.7,75.4c-1.4,0-2.8-0.9-3.4-2.3c-0.6-1.4-2.4-5.1-5.4-8.1c-1.8-1.8-3-3.3-3.9-4.7c0,0,0,0,0,0
			c-0.9,1.4-2.1,2.9-3.8,4.6c-3,3-4.8,6.8-5.5,8.2c-0.8,1.8-2.8,2.7-4.6,2c-1.6-0.6-3.7-2-6.1-4.1c-1.4,0.4-3,0.1-4.1-1
			c-1.1-1.1-1.5-2.7-1-4.1c-2.2-2.4-3.6-4.5-4.1-6.1c-0.7-1.8,0.2-3.9,2.1-4.7c1.4-0.6,5.1-2.4,8.1-5.4c0.1-0.1,0.1-0.1,0.2-0.2
			c0-1.3-0.5-5.1-5.8-5.3c-0.7,0-1.3-0.4-1.6-1s-0.4-1.3,0-1.9c0.1-0.2,3.1-6.2-0.4-12.8c-0.4-0.7-0.3-1.7,0.3-2.3
			c0.6-0.6,1.5-0.8,2.3-0.5c0.1,0,7.7,3.2,13.9-0.4c0.6-0.4,1.4-0.4,2,0c0.6,0.4,1,1,1,1.8c0,0.9,0.2,5.5,5.7,5.6
			c0.7,0,1.4,0.4,1.7,1c0.2,0.3,0.2,0.6,0.2,0.9c0-0.3,0.1-0.7,0.3-1c0.4-0.6,1.1-1,1.8-0.9c0.9,0,5.3-0.1,5.6-5.8
			c0-0.7,0.4-1.3,1-1.6c0.6-0.3,1.3-0.4,1.9,0c0.2,0.1,6.2,3.1,12.8-0.4c0.8-0.4,1.7-0.3,2.3,0.3c0.6,0.6,0.8,1.5,0.5,2.3
			c0,0.1-3.2,7.7,0.4,13.9c0.4,0.6,0.4,1.4,0,2c-0.4,0.6-1,1-1.8,1c0,0,0,0,0,0c-1,0-5.5,0.3-5.6,5.7c0,0,0,0,0,0
			c2.9,2.8,6.4,4.5,7.8,5.1l0,0c1.8,0.8,2.7,2.8,2,4.6c-0.6,1.7-1.9,3.7-4.1,6.1c0.1,0.4,0.2,0.8,0.2,1.2c0,1.1-0.4,2.1-1.2,2.9
			c-1.1,1.1-2.7,1.5-4.1,1c-2.4,2.2-4.5,3.5-6.1,4.1C64.5,75.3,64.1,75.4,63.7,75.4z M52.1,56.1c0.8,0,1.5,0.5,1.8,1.2
			c0.8,1.8,2.5,3.7,3.8,4.9c3.2,3.2,5.2,7,6.1,9.1c0.9-0.4,2.6-1.4,5.5-4.2c0.8-0.7,2-0.7,2.8,0c0,0,0,0,0,0c0,0,0.1,0,0.1,0
			c0,0,0-0.1,0-0.1c0,0,0,0,0,0c-0.8-0.8-0.8-2,0-2.8c2.8-3,3.8-4.7,4.2-5.5c-2.1-0.9-6-2.9-9.2-6.2c-0.8-0.8-1.6-1.5-2.3-2.1
			c-0.8-0.6-1-1.7-0.5-2.6C65,47,66,46.7,66.9,47c1-3.7,3.8-5.5,6.3-6.3c-1.4-3.9-1.2-7.9-0.6-10.8c-4.1,1.1-7.8,0.5-10-0.1
			c-0.9,3.3-2.9,5-4.7,5.9c-0.6,0.3-1.1,0.5-1.7,0.6c0.8,2.2,1.1,4.5,1,7c0,1.1-0.9,1.9-2,1.9c0,0-0.1,0-0.1,0
			c-1.3,0-2.3,1.1-2.3,2.4c0,0.4,0.1,0.7,0.3,1.1c0.4,0.7,0.3,1.5-0.1,2.1c-0.4,0.6-1.2,0.9-1.9,0.9l-0.2,0c0,0-0.1,0-0.1,0
			c0,0-0.1,0-0.1,0l-0.2,0c-0.7,0.1-1.5-0.2-1.9-0.9c-0.4-0.6-0.5-1.4-0.1-2.1c0.2-0.4,0.3-0.7,0.3-1.1c0-1.2-1-2.3-2.2-2.3
			c-1.1-0.1-1.9-1-1.9-2c0.1-2.7,0.8-5.1,1.5-6.9c-3.7-1-5.5-3.8-6.3-6.3c-3.9,1.4-7.9,1.2-10.8,0.6c1.1,4.1,0.5,7.8-0.1,10
			c3.3,0.9,5.1,2.9,5.9,4.7c0.3,0.7,0.6,1.4,0.7,2c0.5,0.1,0.9,0.4,1.2,0.9c0.5,0.8,0.4,1.9-0.4,2.6c-0.6,0.5-1.2,1.1-1.9,1.7
			c-3.2,3.2-7,5.2-9.1,6.1c0.4,0.9,1.4,2.6,4.2,5.5c0.7,0.8,0.7,2,0,2.8c0,0,0,0,0,0c0,0,0,0.1,0,0.1c0,0,0.1,0,0.1,0c0,0,0,0,0,0
			c0.8-0.8,2-0.8,2.8,0c3,2.8,4.7,3.8,5.5,4.2c0.9-2.1,2.9-6,6.2-9.2c1.9-1.9,3-3.4,3.7-4.7c0.4-0.8,1.3-1.3,2.2-1.1
			c0.4,0.1,0.7,0.1,1.2-0.1C51.7,56.1,51.9,56.1,52.1,56.1z M48.9,41.7c0.7,0.3,1.4,0.7,1.9,1.2c0.7-0.6,1.5-1.1,2.4-1.4
			c-0.1-2.1-0.7-4-1.7-5.8c-0.2-0.3-0.2-0.6-0.3-0.9c0,0.3-0.1,0.7-0.3,1C50.9,35.8,49.4,38.4,48.9,41.7z"/>
	</g>
	<g>
		<circle fill="#898452" cx="29.7" cy="67.1" r="2.1"/>
		<path fill="#FFF450" d="M23.6,59.1c-0.3-0.9,0.1-1.8,1-2.1c1.8-0.8,5.6-2.6,8.7-5.8c4.3-4.3,8.9-7.4,14.4-1.9s2.5,9.9-1.8,14.3
			c-3.2,3.2-5.1,7.1-5.9,8.8c-0.4,0.8-1.3,1.3-2.1,1c-1.4-0.5-3.9-2-8-6.2C25.6,63,24.1,60.5,23.6,59.1z"/>
		<path fill="#C5BD40" d="M37.8,69.5c-0.1,0-0.1,0-0.2,0c-1.4-0.5-3.4-2-5.8-4.5c-2.5-2.5-4-4.4-4.5-5.8c-0.1-0.3,0-0.5,0.3-0.6
			c0.3-0.1,0.5,0,0.6,0.3c0.3,0.9,1.3,2.5,4.2,5.5c2.9,2.9,4.6,3.9,5.5,4.2c0.3,0.1,0.4,0.4,0.3,0.6C38.2,69.4,38,69.5,37.8,69.5z"
			/>
		<circle fill="#898452" cx="72.3" cy="67.1" r="2.1"/>
		<path fill="#FFF450" d="M64.2,73.3c-0.9,0.3-1.8-0.1-2.1-1c-0.8-1.8-2.6-5.6-5.8-8.7c-4.3-4.3-7.4-8.9-1.9-14.4s9.9-2.5,14.3,1.8
			c3.2,3.2,7.1,5.1,8.8,5.9c0.8,0.4,1.3,1.3,1,2.1c-0.5,1.4-2,3.9-6.2,8C68.1,71.3,65.7,72.8,64.2,73.3z"/>
		<path fill="#C5BD40" d="M64.2,69.5c-0.2,0-0.4-0.1-0.5-0.3c-0.1-0.3,0-0.5,0.3-0.6c0.9-0.3,2.5-1.3,5.5-4.2
			c2.9-2.9,3.9-4.6,4.2-5.5c0.1-0.3,0.4-0.4,0.6-0.3c0.3,0.1,0.4,0.4,0.3,0.6c-0.5,1.4-2,3.4-4.5,5.8c-2.5,2.5-4.4,4-5.8,4.5
			C64.3,69.5,64.2,69.5,64.2,69.5z"/>
	</g>
	<g>
		<g>
			<path fill="#009444" d="M54,48.9c0,0,3.3-7.1-0.7-14.2c0,0,7.3,0.4,7.7-7.7c0,0,7,3.6,14.7-0.5c0,0-3.7,8.5,0.5,15.7
				c0,0-7.5-0.1-7.7,7.7C68.4,50,60.4,45,54,48.9z"/>
			<path fill="#8DC63F" d="M61.4,42.3c-0.1,0-0.3,0-0.4-0.1c-0.2-0.2-0.2-0.5,0-0.7l5.7-5.7c0.2-0.2,0.5-0.2,0.7,0s0.2,0.5,0,0.7
				l-5.7,5.7C61.6,42.3,61.5,42.3,61.4,42.3z"/>
		</g>
		<g>
			<path fill="#009444" d="M48.2,49.2c0,0-7.1-3.3-14.2,0.7c0,0,0.4-7.3-7.7-7.7c0,0,3.6-7-0.5-14.7c0,0,8.5,3.7,15.7-0.5
				c0,0-0.1,7.5,7.7,7.7C49.2,34.7,44.3,42.8,48.2,49.2z"/>
			<path fill="#8DC63F" d="M41.1,42.3c-0.1,0-0.3,0-0.4-0.1l-5.7-5.7c-0.2-0.2-0.2-0.5,0-0.7s0.5-0.2,0.7,0l5.7,5.7
				c0.2,0.2,0.2,0.5,0,0.7C41.3,42.3,41.2,42.3,41.1,42.3z"/>
		</g>
		<circle fill="#BE1E2D" cx="50.8" cy="49.6" r="2"/>
		<circle fill="#ED1B2F" cx="46.4" cy="47.6" r="4.4"/>
		<circle fill="#ED1B2F" cx="55.1" cy="47.6" r="4.4"/>
		<circle fill="#ED1B2F" cx="50.8" cy="53.9" r="4.4"/>
	</g>
</g>
</svg>
