<?xml version="1.0" encoding="utf-8"?>
<!-- Generator: Adobe Illustrator 19.1.0, SVG Export Plug-In . SVG Version: 6.00 Build 0)  -->
<svg version="1.1" id="Layer_1" xmlns="http://www.w3.org/2000/svg" xmlns:xlink="http://www.w3.org/1999/xlink" x="0px" y="0px"
	 viewBox="0 0 100 100" enable-background="new 0 0 100 100" xml:space="preserve">
<g>
	<path d="M72.4,58.6c-0.3-0.7-1-1.2-1.8-1.3c-2.4-0.1-4.7-0.7-6.9-1.6c1.2-0.9,2.4-1.9,3.5-3c0.5-0.6,0.7-1.4,0.4-2.1
		s-1-1.2-1.8-1.3c-2.5-0.1-4.9-0.9-7-2.2c1.6-0.9,3-2,4.3-3.3c0.5-0.6,0.7-1.4,0.4-2.1c-0.3-0.7-1-1.2-1.8-1.3
		c-3.7-0.2-6.9-2.3-8.6-5.5c1.6-1,2.6-2.8,2.6-4.8c0-3.2-2.6-5.8-5.8-5.8s-5.8,2.6-5.8,5.8c0,2,1,3.8,2.6,4.8
		c-1.7,3.2-4.9,5.3-8.6,5.5c-0.8,0-1.5,0.5-1.8,1.3c-0.3,0.7-0.1,1.6,0.4,2.1c1.3,1.3,2.7,2.4,4.3,3.3c-2.1,1.3-4.5,2.1-7,2.2
		c-0.8,0-1.5,0.5-1.8,1.3s-0.1,1.6,0.4,2.1c1.1,1.1,2.2,2.1,3.5,3c-2.2,1-4.5,1.5-6.9,1.6c-0.8,0-1.5,0.5-1.8,1.3s-0.1,1.6,0.4,2.1
		c4.4,4.5,10.1,7.6,16.2,8.7v4.1c0,1.1,0.9,2,2,2h7.5c1.1,0,2-0.9,2-2v-4.1c6.1-1.2,11.8-4.2,16.2-8.7
		C72.5,60.2,72.7,59.3,72.4,58.6z M46.8,73v-4.7c1.1,0.1,2.2,0.2,3.3,0.2s2.2-0.1,3.3-0.2V73H46.8z M50,27c1.8,0,3.3,1.5,3.3,3.3
		c0,1.6-1.2,2.9-2.7,3.2c0,0,0,0,0,0c-0.3,0.1-0.7,0.1-1,0c0,0,0,0,0,0c-1.5-0.2-2.7-1.6-2.7-3.2C46.8,28.4,48.2,27,50,27z
		 M49.8,34.5c0,0,0.1,0,0.1,0c0,0,0.1,0,0.1,0s0.1,0,0.1,0c0,0,0.1,0,0.1,0c1.6,4.5,5.6,7.8,10.3,8.4c-1.7,1.5-3.7,2.7-5.9,3.3
		c-0.3,0.1-0.5,0.2-0.8,0.2c-0.2,0-0.3,0.1-0.5,0.1c-0.3,0.1-0.5,0.1-0.8,0.2c-0.2,0-0.4,0.1-0.6,0.1c-0.2,0-0.5,0.1-0.7,0.1
		c-0.2,0-0.5,0-0.7,0c-0.4,0-0.7,0-1.1,0c-0.2,0-0.5,0-0.7,0c-0.2,0-0.5-0.1-0.7-0.1c-0.2,0-0.4,0-0.6-0.1c-0.3,0-0.5-0.1-0.8-0.2
		c-0.2,0-0.3-0.1-0.5-0.1c-0.3-0.1-0.5-0.1-0.8-0.2c-2.2-0.7-4.2-1.8-5.9-3.3C44.1,42.2,48.2,39,49.8,34.5z M45.1,47.2
		c0.1,0,0.2,0.1,0.3,0.1c0.3,0.1,0.6,0.2,0.9,0.2c0.2,0,0.4,0.1,0.7,0.1c0.3,0,0.6,0.1,0.8,0.1c0.2,0,0.4,0.1,0.6,0.1
		c0.4,0,0.8,0,1.1,0.1c0.1,0,0.2,0,0.3,0s0.2,0,0.3,0c0.4,0,0.8,0,1.1-0.1c0.2,0,0.4,0,0.6-0.1c0.3,0,0.6-0.1,0.8-0.1
		c0.2,0,0.5-0.1,0.7-0.1c0.3-0.1,0.6-0.2,0.9-0.2c0.1,0,0.2-0.1,0.3-0.1c2.7,2.6,6.1,4.1,9.8,4.6c-1.9,1.8-4.1,3.2-6.5,4.1
		c-0.2,0.1-0.4,0.2-0.6,0.2c-0.5,0.2-0.9,0.3-1.4,0.5c-0.1,0-0.2,0.1-0.4,0.1c-0.5,0.1-1,0.3-1.5,0.4c-0.1,0-0.2,0.1-0.4,0.1
		c-0.6,0.1-1.1,0.2-1.7,0.2c-0.1,0-0.2,0-0.3,0c-0.6,0.1-1.2,0.1-1.8,0.1c-0.6,0-1.2,0-1.8-0.1c-0.1,0-0.2,0-0.3,0
		c-0.6-0.1-1.2-0.1-1.7-0.2c-0.1,0-0.2,0-0.4-0.1c-0.5-0.1-1-0.2-1.5-0.4c-0.1,0-0.2-0.1-0.4-0.1c-0.5-0.1-0.9-0.3-1.4-0.5
		c-0.2-0.1-0.4-0.2-0.6-0.2c-2.4-1-4.6-2.4-6.5-4.1C39,51.4,42.4,49.8,45.1,47.2z M40.3,56.4c0.2,0.1,0.3,0.1,0.5,0.2
		c0.2,0.1,0.4,0.2,0.6,0.3c0.5,0.2,1.1,0.4,1.6,0.6c0.2,0.1,0.3,0.1,0.5,0.2c0.6,0.2,1.2,0.3,1.8,0.5c0.1,0,0.2,0,0.4,0.1
		c0.6,0.1,1.3,0.2,1.9,0.3c0.1,0,0.2,0,0.2,0c0.7,0.1,1.4,0.1,2.1,0.1c0.7,0,1.4,0,2.1-0.1c0.1,0,0.2,0,0.2,0
		c0.7-0.1,1.3-0.2,1.9-0.3c0.1,0,0.2,0,0.4-0.1c0.6-0.1,1.2-0.3,1.8-0.5c0.2-0.1,0.3-0.1,0.5-0.2c0.5-0.2,1.1-0.4,1.6-0.6
		c0.2-0.1,0.4-0.2,0.6-0.3c0.2-0.1,0.3-0.1,0.5-0.2c3,1.9,6.3,3.1,9.8,3.4c-4.2,4-9.5,6.6-15.2,7.4v0l-0.6,0.1
		c-0.6,0.1-1.2,0.1-1.8,0.2c0,0-0.1,0-0.1,0c-1.2,0.1-2.3,0.1-3.5,0c0,0-0.1,0-0.1,0c-0.6,0-1.2-0.1-1.8-0.2l-0.6-0.1v0
		c-5.7-0.9-10.9-3.4-15.2-7.4C34,59.4,37.4,58.3,40.3,56.4z"/>
	<path d="M40.7,58.5c-1.4,0-2.5,1.1-2.5,2.5s1.1,2.5,2.5,2.5s2.5-1.1,2.5-2.5S42.1,58.5,40.7,58.5z M40.7,62.4
		c-0.8,0-1.5-0.7-1.5-1.5s0.7-1.5,1.5-1.5s1.5,0.7,1.5,1.5S41.5,62.4,40.7,62.4z"/>
	<path d="M55.7,54.6c1.4,0,2.5-1.1,2.5-2.5s-1.1-2.5-2.5-2.5s-2.5,1.1-2.5,2.5S54.4,54.6,55.7,54.6z M55.7,50.7
		c0.8,0,1.5,0.7,1.5,1.5s-0.7,1.5-1.5,1.5s-1.5-0.7-1.5-1.5S54.9,50.7,55.7,50.7z"/>
	<path d="M48.2,45.2c1.4,0,2.5-1.1,2.5-2.5s-1.1-2.5-2.5-2.5s-2.5,1.1-2.5,2.5S46.9,45.2,48.2,45.2z M48.2,41.3
		c0.8,0,1.5,0.7,1.5,1.5s-0.7,1.5-1.5,1.5s-1.5-0.7-1.5-1.5S47.4,41.3,48.2,41.3z"/>
</g>
</svg>
