<?xml version="1.0" encoding="utf-8"?>
<!-- Generator: Adobe Illustrator 19.1.0, SVG Export Plug-In . SVG Version: 6.00 Build 0)  -->
<svg version="1.1" id="Layer_1" xmlns="http://www.w3.org/2000/svg" xmlns:xlink="http://www.w3.org/1999/xlink" x="0px" y="0px"
	 viewBox="0 0 100 100" enable-background="new 0 0 100 100" xml:space="preserve">
<g>
	<g>
		<path fill="#FFFFFF" d="M26.2,34.2l5.2,15.2c2.3,6.8,8.7,11.4,15.9,11.4h13c6.3,0,11.5-5.1,11.5-11.5V34.2h0c-4,0-7.2,3.2-7.2,7.2
			v2.5c0,3.3-2.6,5.9-5.9,5.9h0c-3.3,0-5.9-2.6-5.9-5.9v-1.4c0-4.5-3.7-8.2-8.2-8.2H26.2z"/>
		<path fill="#00AEEF" d="M60.3,62.8h-13c-8,0-15.2-5.1-17.8-12.7l-5.2-15.2c-0.2-0.6-0.1-1.3,0.3-1.8c0.4-0.5,1-0.8,1.6-0.8h18.3
			c5.6,0,10.2,4.6,10.2,10.2v1.4c0,2.2,1.8,3.9,3.9,3.9s3.9-1.8,3.9-3.9v-2.5c0-5.1,4.1-9.2,9.2-9.2c1.1,0,2,0.9,2,2v15.2
			C73.7,56.8,67.7,62.8,60.3,62.8z M29,36.2l4.3,12.6c2,6,7.6,10,14,10h13c5.2,0,9.5-4.2,9.5-9.5V36.6c-1.9,0.8-3.2,2.6-3.2,4.8v2.5
			c0,4.4-3.5,7.9-7.9,7.9s-7.9-3.5-7.9-7.9v-1.4c0-3.4-2.8-6.2-6.2-6.2H29z"/>
	</g>
	<g>
		<path fill="#FFFFFF" d="M26.2,65.8c0,0,39.3,0,42.5,0s5-5,5-5"/>
		<path fill="#00AEEF" d="M68.7,67.8H26.2c-1.1,0-2-0.9-2-2s0.9-2,2-2h42.5c1.4,0,2.7-2.5,3.1-3.7c0.4-1,1.5-1.6,2.6-1.2
			c1,0.4,1.6,1.5,1.2,2.5C75.4,62.1,73.3,67.8,68.7,67.8z"/>
	</g>
	<g>
		<path fill="#00AEEF" d="M62.2,67.8c-1.1,0-2-0.9-2-2v-5c0-1.1,0.9-2,2-2s2,0.9,2,2v5C64.2,66.9,63.3,67.8,62.2,67.8z"/>
	</g>
	<g>
		<path fill="#00AEEF" d="M44.4,67.8c-1.1,0-2-0.9-2-2v-5.3c0-1.1,0.9-2,2-2s2,0.9,2,2v5.3C46.4,66.9,45.5,67.8,44.4,67.8z"/>
	</g>
	<path fill="#D4944A" d="M68.7,66.3H26.2c-0.3,0-0.5-0.2-0.5-0.5s0.2-0.5,0.5-0.5h42.5c2.9,0,4.5-4.6,4.5-4.7
		c0.1-0.3,0.4-0.4,0.6-0.3c0.3,0.1,0.4,0.4,0.3,0.6C74.2,61.2,72.3,66.3,68.7,66.3z"/>
	<path fill="#D4944A" d="M62.2,66.3c-0.3,0-0.5-0.2-0.5-0.5v-6c0-0.3,0.2-0.5,0.5-0.5s0.5,0.2,0.5,0.5v6
		C62.7,66.1,62.5,66.3,62.2,66.3z"/>
	<path fill="#D4944A" d="M44.4,66.3c-0.3,0-0.5-0.2-0.5-0.5v-6.3c0-0.3,0.2-0.5,0.5-0.5s0.5,0.2,0.5,0.5v6.3
		C44.9,66.1,44.7,66.3,44.4,66.3z"/>
	<path fill="#ED1B2F" d="M26.2,34.2l5.2,15.2c2.3,6.8,8.7,11.4,15.9,11.4h13c6.3,0,11.5-5.1,11.5-11.5V34.2h0c-4,0-7.2,3.2-7.2,7.2
		v2.5c0,3.3-2.6,5.9-5.9,5.9h0c-3.3,0-5.9-2.6-5.9-5.9v-1.4c0-4.5-3.7-8.2-8.2-8.2H26.2z"/>
</g>
</svg>
