<?xml version="1.0" encoding="utf-8"?>
<!-- Generator: Adobe Illustrator 19.1.0, SVG Export Plug-In . SVG Version: 6.00 Build 0)  -->
<svg version="1.1" id="Layer_1" xmlns="http://www.w3.org/2000/svg" xmlns:xlink="http://www.w3.org/1999/xlink" x="0px" y="0px"
	 viewBox="0 0 100 100" enable-background="new 0 0 100 100" xml:space="preserve">
<g>
	<g>
		<path fill="#FFFFFF" d="M63.8,62.8c0.1-0.1,0.1-0.1,0.2-0.2c0,0,0.1-0.1,0.1-0.1c0.1-0.1,0.1-0.2,0.2-0.3c0,0,0,0,0-0.1
			c0.5-0.9,0.7-2,0.4-3.1c0,0,0,0,0,0c0-0.2-0.1-0.3-0.2-0.5l0,0l0,0c-0.1-0.3-0.3-0.5-0.5-0.8l-4.4-5.7c0.2-0.1,0.4-0.2,0.6-0.4
			c0,0,0.1-0.1,0.1-0.1c0.2-0.2,0.4-0.3,0.5-0.5c0,0,0,0,0,0c0.2-0.2,0.3-0.4,0.4-0.6c0,0,0-0.1,0-0.1c0.2-0.4,0.4-0.9,0.4-1.4
			c0,0,0,0,0,0c0.1-0.9-0.1-1.9-0.8-2.7l-5-6.4c0.1-0.1,0.2-0.2,0.2-0.3c0,0,0,0,0,0c0.3-0.4,0.6-0.9,0.7-1.4c0,0,0,0,0,0
			c0.3-1.1,0.1-2.3-0.7-3.4L53,30.9c-1.5-1.9-4.4-1.9-6,0L43.8,35c-0.4,0.5-0.7,1.2-0.8,1.8l0,0v0c-0.1,0.5,0,1.1,0.1,1.6
			c0,0,0,0,0,0c0.1,0.5,0.4,1,0.7,1.4c0,0,0,0,0,0c0.1,0.1,0.2,0.2,0.2,0.3l-5,6.4c-0.6,0.8-0.9,1.8-0.8,2.7c0,0,0,0,0,0
			c0.1,0.5,0.2,1,0.4,1.4c0,0,0,0.1,0,0.1c0.1,0.2,0.2,0.4,0.4,0.6c0,0,0,0,0,0c0.2,0.2,0.3,0.3,0.5,0.5c0,0,0.1,0.1,0.1,0.1
			c0.2,0.1,0.4,0.3,0.6,0.4L36,57.8c-0.2,0.3-0.4,0.5-0.5,0.8l0,0l0,0c-0.1,0.1-0.1,0.3-0.2,0.5c0,0,0,0,0,0
			c-0.3,1.1-0.1,2.2,0.4,3.1c0,0,0,0,0,0.1c0.1,0.1,0.1,0.2,0.2,0.3c0,0,0.1,0.1,0.1,0.1c0.1,0.1,0.1,0.1,0.2,0.2
			c0.1,0.1,0.1,0.1,0.2,0.2c0.1,0.1,0.1,0.1,0.2,0.2c0.1,0.1,0.1,0.1,0.2,0.2c0.1,0,0.1,0.1,0.2,0.1c0.1,0,0.2,0.1,0.2,0.1
			c0.1,0,0.1,0.1,0.2,0.1c0.1,0,0.2,0.1,0.3,0.1c0.1,0,0.1,0,0.2,0.1c0.1,0,0.2,0.1,0.3,0.1c0.1,0,0.1,0,0.2,0c0.2,0,0.4,0,0.6,0
			h7.3v6.5h7.5V64H61c0.2,0,0.4,0,0.6,0c0.1,0,0.1,0,0.2,0c0.1,0,0.2,0,0.3-0.1c0.1,0,0.1,0,0.2-0.1c0.1,0,0.2-0.1,0.3-0.1
			c0.1,0,0.1-0.1,0.2-0.1c0.1,0,0.2-0.1,0.2-0.1c0.1,0,0.1-0.1,0.2-0.1c0.1,0,0.1-0.1,0.2-0.2c0.1-0.1,0.1-0.1,0.2-0.2
			C63.7,62.9,63.7,62.9,63.8,62.8z"/>
		<path fill="#00AEEF" d="M53.8,72.5h-7.5c-1.1,0-2-0.9-2-2V66H39c-0.3,0-0.6,0-0.8-0.1c-0.1,0-0.2,0-0.3,0c-0.2,0-0.4-0.1-0.5-0.1
			c-0.1,0-0.2-0.1-0.3-0.1c-0.2-0.1-0.3-0.1-0.5-0.2c-0.1,0-0.2-0.1-0.3-0.1c-0.2-0.1-0.3-0.2-0.4-0.2c-0.1-0.1-0.2-0.1-0.3-0.2
			c-0.1-0.1-0.2-0.2-0.3-0.3c-0.1-0.1-0.2-0.1-0.3-0.2c-0.1-0.1-0.2-0.2-0.3-0.3c-0.1-0.1-0.2-0.2-0.3-0.3c-0.1-0.1-0.1-0.1-0.2-0.2
			c-0.1-0.1-0.2-0.3-0.3-0.4c0,0-0.1-0.1-0.1-0.2c-0.8-1.4-1-3.1-0.6-4.6c0,0,0,0,0,0c0.1-0.2,0.2-0.5,0.3-0.7
			c0.2-0.4,0.4-0.8,0.7-1.2l3.2-4.1c0,0,0,0,0,0c-0.2-0.3-0.4-0.5-0.5-0.8c0,0-0.1-0.1-0.1-0.1c-0.4-0.7-0.6-1.4-0.7-2.2
			c-0.1-1.5,0.3-3,1.2-4.2l4.1-5.2c-0.2-0.3-0.3-0.7-0.4-1.1c0,0,0,0,0,0c-0.2-0.8-0.3-1.6-0.1-2.4c0.2-1,0.5-1.9,1.2-2.7l3.2-4.1
			c1.1-1.4,2.8-2.2,4.6-2.2c1.8,0,3.5,0.8,4.6,2.2l3.2,4.1c1.1,1.5,1.5,3.3,1,5.1c0,0,0,0,0,0c-0.1,0.4-0.2,0.7-0.4,1.1l4.1,5.2
			c0.9,1.2,1.4,2.6,1.2,4.1c0,0,0,0.1,0,0.1c-0.1,0.7-0.3,1.4-0.7,2.1c0,0-0.1,0.1-0.1,0.1c-0.2,0.3-0.4,0.6-0.6,0.8c0,0,0,0,0,0
			l3.2,4.1c0.3,0.4,0.5,0.8,0.7,1.2c0.1,0.2,0.2,0.4,0.3,0.7c0,0,0,0,0,0l0,0c0.5,1.6,0.3,3.3-0.6,4.7c0,0-0.1,0.1-0.1,0.1
			c-0.1,0.1-0.2,0.2-0.3,0.4c-0.1,0.1-0.1,0.2-0.2,0.2c-0.1,0.1-0.2,0.2-0.3,0.3c-0.1,0.1-0.2,0.2-0.3,0.3c-0.1,0.1-0.2,0.2-0.3,0.2
			c-0.1,0.1-0.2,0.2-0.3,0.2c-0.1,0.1-0.2,0.1-0.3,0.2c-0.1,0.1-0.2,0.1-0.4,0.2c-0.1,0-0.2,0.1-0.3,0.1c-0.2,0.1-0.3,0.1-0.4,0.2
			c-0.1,0-0.2,0.1-0.3,0.1c-0.2,0.1-0.4,0.1-0.5,0.1c-0.1,0-0.2,0-0.3,0.1C61.6,66,61.3,66,61,66h-5.3v4.5
			C55.8,71.6,54.9,72.5,53.8,72.5z M48.3,68.5h3.5V64c0-1.1,0.9-2,2-2H61c0.1,0,0.2,0,0.3,0c0.1,0,0.2,0,0.3-0.1
			c0.1,0,0.2-0.1,0.2-0.1l0.5-0.3c0,0,0.1-0.1,0.1-0.1l0.1-0.1c0.1-0.1,0.1-0.2,0.1-0.2c0.3-0.5,0.4-1,0.2-1.5c0,0,0-0.1,0-0.1
			c0,0,0,0-0.1-0.1c-0.1-0.2-0.1-0.3-0.2-0.4L58,53.4c-0.4-0.5-0.5-1.1-0.4-1.7c0.1-0.6,0.5-1.1,1.1-1.4c0.1,0,0.2-0.1,0.3-0.2
			c0.1-0.1,0.2-0.2,0.3-0.2c0,0,0,0,0.1-0.1c0.1-0.1,0.1-0.2,0.2-0.3c0.1-0.3,0.2-0.5,0.2-0.7c0-0.5-0.1-0.9-0.4-1.3l-5-6.4
			c-0.6-0.8-0.6-1.9,0.2-2.7c0,0,0.1-0.1,0.1-0.1c0.2-0.2,0.3-0.4,0.4-0.7c0,0,0,0,0,0l0,0c0.1-0.4,0.1-1-0.3-1.6l-3.2-4.1
			c-0.7-0.9-2.1-0.9-2.8,0l-3.2,4.1c-0.2,0.2-0.3,0.5-0.4,0.8c0,0.2,0,0.5,0,0.7c0,0,0,0,0,0c0.1,0.2,0.2,0.5,0.3,0.7
			c0,0,0,0.1,0.1,0.1c0,0,0,0,0,0c0,0,0,0,0.1,0.1c0.7,0.7,0.8,1.9,0.2,2.7l-5,6.4c-0.3,0.4-0.4,0.8-0.4,1.3c0,0.3,0.1,0.5,0.2,0.7
			c0.1,0.1,0.1,0.2,0.2,0.3c0,0,0,0,0,0c0.1,0.1,0.2,0.2,0.2,0.2c0.1,0.1,0.2,0.2,0.3,0.2c0.5,0.3,0.9,0.8,1.1,1.4
			c0.1,0.6,0,1.2-0.4,1.7l-4.4,5.7c-0.1,0.1-0.2,0.2-0.2,0.4c0,0.1-0.1,0.1-0.1,0.2c0,0,0,0,0,0c-0.1,0.5-0.1,1,0.2,1.4
			c0,0,0,0.1,0.1,0.1c0,0,0,0,0,0.1L36,62.6l1.6-1.2l0.1,0.1L36.4,63l1.4-1.5l0.4,0.3c0.1,0.1,0.2,0.1,0.2,0.1l-0.5,1.9l0.6-1.9
			c0,0,0.1,0,0.1,0c0,0,0.1,0,0.1,0c0,0,0.1,0,0.2,0h7.3c1.1,0,2,0.9,2,2V68.5z"/>
	</g>
	<rect x="46.3" y="64" fill="#898452" width="7.5" height="6.5"/>
	<path fill="#009444" d="M64,57.8l-11-14c-1.5-1.9-4.4-1.9-6,0l-11,14c-2,2.5-0.2,6.1,3,6.1H61C64.2,64,66,60.3,64,57.8z"/>
	<path fill="#8DC63F" d="M60.9,46.4l-7.9-10c-1.5-1.9-4.4-1.9-6,0l-7.9,10c-2,2.5-0.2,6.1,3,6.1h15.8C61.1,52.6,62.8,48.9,60.9,46.4
		z"/>
	<path fill="#009444" d="M56.2,35L53,30.9c-1.5-1.9-4.4-1.9-6,0L43.8,35c-2,2.5-0.2,6.1,3,6.1h6.4C56.4,41.2,58.1,37.5,56.2,35z"/>
	<path fill="#FFFFFF" d="M54.3,38.8c-0.9-1.4-2.5-2.4-4.3-2.4c-1.8,0-3.4,0.9-4.3,2.4c-0.6-0.9-1.5-1.7-2.6-2
		c-0.3,2.2,1.3,4.4,3.8,4.4h6.4c2.5,0,4.1-2.2,3.8-4.4C55.9,37.2,55,37.9,54.3,38.8z"/>
	<path fill="#FFFFFF" d="M54.3,49.7c-0.9-1.4-2.5-2.4-4.3-2.4c-1.8,0-3.4,0.9-4.3,2.4c-0.9-1.4-2.5-2.4-4.3-2.4c-1.1,0-2.1,0.4-3,1
		c-0.2,2.1,1.4,4.2,3.8,4.2h15.8c2.4,0,4-2.1,3.8-4.2c-0.8-0.6-1.9-1-3-1C56.9,47.4,55.3,48.3,54.3,49.7z"/>
	<path fill="#FFFFFF" d="M63,60.1c-0.9-1.4-2.5-2.4-4.3-2.4c-1.8,0-3.4,0.9-4.3,2.4c-0.9-1.4-2.5-2.4-4.3-2.4
		c-1.8,0-3.4,0.9-4.3,2.4c-0.9-1.4-2.5-2.4-4.3-2.4c-1.8,0-3.4,0.9-4.3,2.4c-0.4-0.6-0.9-1.1-1.5-1.5C34.4,61,36.1,64,39,64H61
		c2.8,0,4.6-2.9,3.5-5.3C63.9,59,63.4,59.5,63,60.1z"/>
</g>
</svg>
