<?xml version="1.0" encoding="utf-8"?>
<!-- Generator: Adobe Illustrator 19.1.0, SVG Export Plug-In . SVG Version: 6.00 Build 0)  -->
<svg version="1.1" id="Layer_1" xmlns="http://www.w3.org/2000/svg" xmlns:xlink="http://www.w3.org/1999/xlink" x="0px" y="0px"
	 viewBox="0 0 100 100" enable-background="new 0 0 100 100" xml:space="preserve">
<g>
	<path d="M65,74.6c-0.1-1-0.6-1.8-1.3-2.4V50.3c0-2.3-1.9-4.2-4.2-4.2h-3c0.2-0.2,0.4-0.5,0.6-0.7c3.2-3.9,4-8.8,2.1-13.3
		c-2.4-5.9-3.6-7.2-4-7.6c-0.8-0.8-1.9-1.3-3.1-1.3s-2.3,0.5-3.1,1.3c-0.4,0.4-1.6,1.7-4,7.6c-1.9,4.6-1.1,9.5,2.1,13.3
		c0.2,0.3,0.4,0.5,0.6,0.7h-3c-2.3,0-4.2,1.9-4.2,4.2v19c-0.6,0.4-1.1,1-1.4,1.7c-0.5,0.2-0.9,0.5-1.3,0.9c-0.8,0.8-1.2,1.9-1.1,3.1
		c0,0.5,0.2,0.9,0.6,1.3c0.1,0.1,0.2,0.2,0.3,0.3c0.3,0.2,0.7,0.3,1.1,0.3h24.1c0.6,0,1.1-0.2,1.5-0.7C64.9,75.7,65.1,75.2,65,74.6z
		 M55.2,43.8c-2.1,2.6-3.9,2.6-6,0c-2.6-3.2-3.2-7.1-1.7-10.8c1.4-3.6,2.6-5.9,3.5-6.8c0.3-0.3,0.8-0.5,1.3-0.5s1,0.2,1.3,0.5
		c0.8,0.9,2,3.2,3.5,6.8C58.4,36.7,57.8,40.6,55.2,43.8z M61.6,73.9c0.3,0.1,0.6,0.2,0.7,0.5H39.5c0.1-0.3,0.2-0.5,0.4-0.7
		c0.3-0.3,0.7-0.5,1.2-0.5c0.3,0,0.5-0.2,0.5-0.5c0-0.8,0.5-1.4,1.3-1.5c0.2,0,0.4-0.3,0.4-0.5V50.3c0-0.9,0.7-1.7,1.7-1.7h14.7
		c0.9,0,1.7,0.7,1.7,1.7v23.1C61.2,73.6,61.4,73.8,61.6,73.9z"/>
	<path d="M53.4,33.3c-0.3-0.3-0.7-0.5-1.2-0.5c0,0,0,0,0,0c-0.5,0-0.9,0.2-1.2,0.5c-0.5,0.5-1.1,1.7-1.8,3.6c-0.8,2.1-0.5,4.3,1,6.1
		c0.7,0.8,1.4,1.2,2.1,1.2c0.7,0,1.4-0.4,2.1-1.2c1.4-1.8,1.8-4,1-6.1C54.5,35,53.8,33.8,53.4,33.3z M53.5,42.3
		c-0.3,0.4-0.8,0.9-1.3,0.9c-0.5,0-1-0.5-1.3-0.9c-1.2-1.5-1.5-3.3-0.8-5c0.9-2.3,1.4-3,1.6-3.2c0.1-0.1,0.3-0.2,0.4-0.2
		c0,0,0,0,0,0c0.2,0,0.3,0.1,0.4,0.2c0.2,0.2,0.7,1,1.6,3.3C55,38.9,54.7,40.8,53.5,42.3z"/>
	<path d="M58.9,52.1c-0.3-0.1-0.5,0-0.7,0.3c-0.3,0.7-0.9,0.9-1.3,1c-0.7,0.1-1.5-0.1-2-0.6c-0.7-0.7-1.6-0.9-2.5-0.5
		c-1,0.4-1.6,1.5-1.6,3c0,2.4-0.6,4-1.6,4c-0.7,0-1.4-0.3-1.4-3.7c0-1.3-0.3-2.3-1-3c-0.6-0.6-1.3-0.6-1.4-0.6
		c-0.3,0-0.5,0.2-0.5,0.5s0.2,0.5,0.5,0.5c0.1,0,1.4,0.1,1.4,2.6c0,2.3,0.3,4.7,2.4,4.7c1.6,0,2.6-1.9,2.6-5c0-1,0.4-1.8,1-2.1
		c0.5-0.2,1-0.1,1.4,0.3c0.7,0.7,1.9,1.1,2.9,0.9c0.9-0.2,1.6-0.8,2-1.6C59.3,52.5,59.1,52.2,58.9,52.1z"/>
</g>
</svg>
