<?xml version="1.0" encoding="utf-8"?>
<!-- Generator: Adobe Illustrator 19.1.0, SVG Export Plug-In . SVG Version: 6.00 Build 0)  -->
<svg version="1.1" id="Layer_1" xmlns="http://www.w3.org/2000/svg" xmlns:xlink="http://www.w3.org/1999/xlink" x="0px" y="0px"
	 viewBox="0 0 100 100" enable-background="new 0 0 100 100" xml:space="preserve">
<g>
	<path d="M57.7,59.7l4.2-0.7c3-0.5,5.2-3.1,5-6.1c-0.1-1.7-0.9-3.3-2.2-4.3c-0.7-0.5-1.4-0.9-2.2-1.1c1-2,1.5-4.1,1.5-6.4
		C64.1,33.3,57.8,27,50,27c-7.8,0-14.1,6.3-14.1,14.1c0,2.2,0.5,4.4,1.5,6.4c-0.8,0.2-1.6,0.6-2.2,1.1c-1.3,1.1-2.1,2.6-2.2,4.3
		c-0.1,2.9,2,5.6,5,6.1l4.2,0.7c0,0,0.1,0,0.1,0.1c0,0.1,0,0.2,0,0.2l-2.3,2.7c-0.1,0.1-0.2,0.2-0.3,0.4l-1.5,1.8
		c-2.1,2.5-1.9,6.2,0.5,8.3c1.1,1,2.5,1.5,3.9,1.5c1.7,0,3.4-0.8,4.5-2.1l1-1.2c0.4-0.2,0.6-0.4,0.8-0.8c0-0.1,0-0.1,0.1-0.2
		l0.7-0.9c0.1-0.2,0.3-0.2,0.5,0l0.7,0.9c0,0.1,0,0.1,0.1,0.2c0.1,0.4,0.4,0.7,0.8,0.8l1,1.2c1.1,1.3,2.8,2.1,4.5,2.1
		c1.4,0,2.8-0.5,3.9-1.5c2.4-2.1,2.6-5.8,0.5-8.3l-1.4-1.7c-0.1-0.2-0.2-0.4-0.4-0.5L57.6,60c0,0-0.1-0.1,0-0.2
		C57.6,59.7,57.7,59.7,57.7,59.7z M51.8,68.2c-0.4-0.5-1.1-0.8-1.8-0.8c-0.7,0-1.3,0.3-1.8,0.8l-1.1,1.3h-1.2v-2h-2.2v-2.1h-2.2
		v-1.3l2.4-2.8c0.5-0.6,0.7-1.4,0.4-2.1c-0.3-0.7-0.9-1.3-1.7-1.4l-2.1-0.4l-1.2-1.2l1.4-1.4l-1.5-1.5l1.5-1.5l-1.6-1.6l0.8-0.8
		c0.3,0.3,0.6,0.7,0.9,1c0.1,0.1,0.2,0.2,0.3,0.2c0.2,0.2,0.5,0.4,0.7,0.7c0.2,0.1,0.3,0.2,0.5,0.3c0.2,0.1,0.4,0.3,0.6,0.4
		c0.2,0.1,0.4,0.2,0.6,0.3c0.2,0.1,0.4,0.2,0.6,0.3c0.2,0.1,0.4,0.2,0.6,0.3c0.2,0.1,0.4,0.2,0.6,0.3c0.2,0.1,0.4,0.2,0.6,0.2
		c0.2,0.1,0.5,0.1,0.7,0.2c0.2,0.1,0.4,0.1,0.6,0.1c0.3,0.1,0.6,0.1,0.9,0.1c0.2,0,0.3,0.1,0.5,0.1c0.5,0,0.9,0.1,1.4,0.1
		c0.5,0,0.9,0,1.4-0.1c0.2,0,0.3-0.1,0.5-0.1c0.3,0,0.6-0.1,0.9-0.1c0.2,0,0.4-0.1,0.6-0.1c0.2-0.1,0.5-0.1,0.7-0.2
		c0.2-0.1,0.4-0.1,0.6-0.2c0.2-0.1,0.4-0.2,0.6-0.3c0.2-0.1,0.4-0.2,0.6-0.3c0.2-0.1,0.4-0.2,0.6-0.3c0.2-0.1,0.4-0.2,0.6-0.3
		c0.2-0.1,0.4-0.3,0.6-0.4c0.2-0.1,0.3-0.2,0.5-0.4c0.3-0.2,0.5-0.4,0.7-0.6c0.1-0.1,0.2-0.2,0.3-0.2c0.3-0.3,0.6-0.6,0.9-1l0.8,0.8
		l-1.6,1.6l1.5,1.5l-1.5,1.5l1.4,1.4l-1.2,1.2l-2.1,0.4c-0.8,0.1-1.4,0.7-1.7,1.4c-0.3,0.7-0.1,1.5,0.4,2.1l2.4,2.8v1.3h-2.2v2.1
		h-2.2v2h-1.2L51.8,68.2z M60.6,54.8l1.5-1.5l-1.5-1.5l1.6-1.6l-0.9-0.9c0.8,0,1.6,0.3,2.2,0.9c0.9,0.7,1.4,1.7,1.4,2.9
		c0.1,1.9-1.4,3.7-3.4,4L61.2,57l0.9-0.9L60.6,54.8z M59.4,48.6c-0.5,0.7-1.2,1.3-1.8,1.8c-0.1,0.1-0.3,0.2-0.4,0.3
		c-0.2,0.2-0.4,0.3-0.6,0.4c-0.2,0.1-0.3,0.2-0.5,0.3c-0.2,0.1-0.4,0.2-0.6,0.3c-0.2,0.1-0.4,0.2-0.5,0.3c-0.2,0.1-0.4,0.2-0.6,0.3
		c-0.2,0.1-0.4,0.1-0.6,0.2c-0.2,0.1-0.5,0.1-0.7,0.2c-0.2,0-0.3,0.1-0.5,0.1C52.3,52.9,52,53,51.7,53c-0.1,0-0.3,0.1-0.4,0.1
		c-0.4,0-0.9,0.1-1.3,0.1s-0.9,0-1.3-0.1c-0.1,0-0.3,0-0.4-0.1c-0.3,0-0.6-0.1-0.8-0.1c-0.2,0-0.4-0.1-0.5-0.1
		c-0.2-0.1-0.5-0.1-0.7-0.2c-0.2-0.1-0.4-0.1-0.6-0.2c-0.2-0.1-0.4-0.2-0.6-0.3c-0.2-0.1-0.4-0.2-0.5-0.3c-0.2-0.1-0.4-0.2-0.6-0.3
		c-0.2-0.1-0.3-0.2-0.5-0.3c-0.2-0.1-0.4-0.3-0.6-0.5c-0.1-0.1-0.2-0.2-0.4-0.3c-0.7-0.5-1.3-1.2-1.8-1.8c-1.7-2.1-2.7-4.7-2.7-7.6
		C37.9,34.4,43.3,29,50,29s12.1,5.4,12.1,12.1C62.1,43.9,61.1,46.5,59.4,48.6z M39.3,51.7l-1.5,1.5l1.5,1.5l-1.4,1.4l0.9,0.9
		L38.4,57c-2-0.3-3.5-2.1-3.4-4c0.1-1.1,0.6-2.2,1.4-2.9c0.6-0.5,1.4-0.8,2.2-0.9l-0.9,0.9L39.3,51.7z M40.5,65.3v1.1h2.2v2.1h2.2v2
		h1.4l-0.7,0.8c-0.7,0.9-1.8,1.4-3,1.4c-1,0-1.9-0.4-2.6-1c-1.6-1.4-1.7-3.9-0.3-5.5L40.5,65.3z M55.1,70.5v-2h2.2v-2.1h2.2v-1.1
		l0.7,0.9c1.4,1.7,1.3,4.1-0.3,5.5c-0.7,0.6-1.6,1-2.6,1c-1.1,0-2.2-0.5-3-1.4l-0.7-0.8H55.1z"/>
	<path d="M45,39.3c1.6,0,3-1.3,3-3s-1.3-3-3-3c-1.6,0-3,1.3-3,3S43.3,39.3,45,39.3z M45,34.4c1.1,0,2,0.9,2,2s-0.9,2-2,2s-2-0.9-2-2
		S43.9,34.4,45,34.4z"/>
	<path d="M55,39.3c1.6,0,3-1.3,3-3s-1.3-3-3-3c-1.6,0-3,1.3-3,3S53.4,39.3,55,39.3z M55,34.4c1.1,0,2,0.9,2,2s-0.9,2-2,2s-2-0.9-2-2
		S53.9,34.4,55,34.4z"/>
	<path d="M50,55.8c-1.2,0-2.2,1-2.2,2.2s1,2.2,2.2,2.2s2.2-1,2.2-2.2S51.2,55.8,50,55.8z M50,59.2c-0.7,0-1.2-0.5-1.2-1.2
		s0.5-1.2,1.2-1.2c0.7,0,1.2,0.5,1.2,1.2S50.7,59.2,50,59.2z"/>
	<path d="M50,61.4c-1.2,0-2.2,1-2.2,2.2s1,2.2,2.2,2.2s2.2-1,2.2-2.2S51.2,61.4,50,61.4z M50,64.8c-0.7,0-1.2-0.5-1.2-1.2
		s0.5-1.2,1.2-1.2c0.7,0,1.2,0.5,1.2,1.2S50.7,64.8,50,64.8z"/>
	<path d="M50,49.7c-4.7,0-8.5-3.8-8.5-8.5c0-0.6-0.4-1-1-1s-1,0.4-1,1c0,5.8,4.7,10.5,10.5,10.5S60.5,47,60.5,41.1c0-0.6-0.4-1-1-1
		s-1,0.4-1,1C58.5,45.9,54.7,49.7,50,49.7z"/>
	<path d="M45.6,43.1c0,2.4,2,4.4,4.4,4.4c2.4,0,4.4-2,4.4-4.4s-2-4.4-4.4-4.4C47.6,38.7,45.6,40.7,45.6,43.1z M50,39.7
		c1.9,0,3.4,1.5,3.4,3.4s-1.5,3.4-3.4,3.4s-3.4-1.5-3.4-3.4S48.1,39.7,50,39.7z"/>
</g>
</svg>
