<?xml version="1.0" encoding="utf-8"?>
<!-- Generator: Adobe Illustrator 19.1.0, SVG Export Plug-In . SVG Version: 6.00 Build 0)  -->
<svg version="1.1" id="Layer_1" xmlns="http://www.w3.org/2000/svg" xmlns:xlink="http://www.w3.org/1999/xlink" x="0px" y="0px"
	 viewBox="0 0 100 100" enable-background="new 0 0 100 100" xml:space="preserve">
<g>
	<g>
		<path fill="#FFFFFF" d="M65.2,41.6c-2.7-1.6-6.1-0.8-7.7,1.8v-6.5c0-5.9-4.8-10.7-10.7-10.7h-1.6c-5.9,0-10.7,4.8-10.7,10.7v24
			h0.9c-1.8,0-3.3,1.5-3.3,3.3v6.5c0,1.8,1.5,3.3,3.3,3.3h23c1.8,0,3.3-1.5,3.3-3.3v-6.5c0-1.8-1.5-3.3-3.3-3.3h0.3l5.6-7.5l0,0l0,0
			l2.9-3.9C68.8,46.7,67.9,43.2,65.2,41.6z"/>
		<path fill="#00AEEF" d="M58.3,75.9h-23c-2.9,0-5.3-2.4-5.3-5.3v-6.5c0-1.9,1-3.5,2.4-4.4V36.8c0-7,5.7-12.7,12.7-12.7h1.6
			c7,0,12.7,5.7,12.7,12.7v2.5c2.1-0.8,4.6-0.7,6.8,0.6l0,0c3.7,2.2,4.9,7,2.7,10.6c0,0.1-0.1,0.1-0.1,0.2L66,54.3
			c-0.1,0.2-0.2,0.3-0.3,0.5l-4,5.3c1.2,1,1.9,2.4,1.9,4.1v6.5C63.6,73.5,61.2,75.9,58.3,75.9z M35.3,62.8c-0.7,0-1.3,0.6-1.3,1.3
			v6.5c0,0.7,0.6,1.3,1.3,1.3h23c0.7,0,1.3-0.6,1.3-1.3v-6.5c0-0.7-0.6-1.3-1.3-1.3c-1.1,0-2-0.9-2-2c0-0.8,0.5-1.5,1.2-1.8l5.1-6.8
			c0,0,0,0,0,0c0,0,0,0,0,0l2.9-3.8c1-1.8,0.4-4-1.3-5.1l0,0c-1.7-1-3.9-0.5-5,1.2c-0.5,0.7-1.4,1.1-2.2,0.8c-0.8-0.3-1.4-1-1.4-1.9
			v-6.5c0-4.8-3.9-8.7-8.7-8.7h-1.6c-4.8,0-8.7,3.9-8.7,8.7v22.4c0.5,0.4,0.9,1,0.9,1.6C37.3,61.9,36.4,62.8,35.3,62.8z"/>
	</g>
	<path fill="#FDFDFE" d="M58.3,73.9h-23c-1.8,0-3.3-1.5-3.3-3.3v-6.5c0-1.8,1.5-3.3,3.3-3.3h23c1.8,0,3.3,1.5,3.3,3.3v6.5
		C61.6,72.4,60.1,73.9,58.3,73.9z"/>
	<path fill="#F38296" d="M65.2,41.6c-2.7-1.6-6.1-0.8-7.7,1.8v-6.5c0-5.9-4.8-10.7-10.7-10.7h-1.6c-5.9,0-10.7,4.8-10.7,10.7v24
		h19.6h4.5l8.6-11.4C68.8,46.7,67.9,43.2,65.2,41.6z"/>
	<path fill="#ED1B2F" d="M46.7,26.1h-1.6c-5.9,0-10.7,4.8-10.7,10.7v3.7l0,0l5-5l5,5l5-5l5,5l3-3v-0.8
		C57.4,30.9,52.6,26.1,46.7,26.1z"/>
	<circle fill="#ED1B2F" cx="54.5" cy="49.5" r="0.8"/>
	<circle fill="#F38296" cx="44.6" cy="36.3" r="0.8"/>
	<polygon fill="#ED1B2F" points="58.6,60.8 64.2,53.3 59.4,48.5 54.4,53.5 49.5,48.5 44.5,53.5 39.5,48.5 34.5,53.5 34.5,53.6 
		34.5,60.8 54.1,60.8 	"/>
</g>
</svg>
