<?xml version="1.0" encoding="utf-8"?>
<!-- Generator: Adobe Illustrator 19.1.0, SVG Export Plug-In . SVG Version: 6.00 Build 0)  -->
<svg version="1.1" id="Layer_1" xmlns="http://www.w3.org/2000/svg" xmlns:xlink="http://www.w3.org/1999/xlink" x="0px" y="0px"
	 viewBox="0 0 100 100" enable-background="new 0 0 100 100" xml:space="preserve">
<g>
	<path d="M71,61.9l-6.2-0.6l-1.2-0.8c1.6-2.7,2.4-5.7,2.4-8.8c0-4.1-1.4-8.1-4.1-11.2l1.4-11.9c0.5-2.9-3.3-4.9-6.8-5.7
		c-1.8-0.4-3.5-0.5-4.9-0.3c-2.6,0.3-3.4,1.7-3.7,2.5l-3.3,9.6c-7.9,1.8-13.5,8.8-13.5,17c0,3.5,1.1,6.9,3,9.8l-0.3,0.3l-4.8,0.6
		c-1.4,0.2-2.3,1.4-2.2,2.8c0.1,1,0.8,1.7,1.7,2l-1,1c-0.5,0.5-0.7,1.1-0.7,1.8c0,0.7,0.3,1.3,0.8,1.8c1,0.9,2.6,0.9,3.5-0.1
		l4.6-4.8c1.2,5.5,5.7,9.8,11.4,10.6l0.6,0.7c0.4,0.4,0.9,0.7,1.5,0.7s1.1-0.2,1.5-0.7l0.6-0.7c5.9-0.9,10.5-5.4,11.5-11.2l2.1,3.3
		c0.7,1.1,2.3,1.5,3.5,0.8c1.2-0.7,1.5-2.3,0.8-3.5l-0.1-0.2l1.6,0.2c0.1,0,0.2,0,0.3,0c1.3,0,2.4-1,2.5-2.3
		C73.4,63.2,72.4,62,71,61.9z M60.7,28.2l-1.4,12.3c0,0.1,0,0.1-0.1,0.2c0,0,0,0,0,0c-0.3,0.4-1.1,0.7-2.2,0.8c-0.2,0-0.3,0-0.5,0
		c-0.2,0-0.4,0-0.6,0c-0.2,0-0.3,0-0.5,0c-0.2,0-0.4,0-0.7,0c-0.2,0-0.4,0-0.7-0.1c-0.2,0-0.4,0-0.6-0.1c-0.4-0.1-0.9-0.2-1.3-0.3
		c-4.1-0.9-6.3-2.7-6.1-3.6l0.4-1l0,0l3.7-10.8c0.1-0.2,0.5-0.6,1.6-0.7c0.3,0,0.7-0.1,1.1-0.1c0.9,0,1.9,0.1,3,0.4
		C59.1,26.1,60.9,27.5,60.7,28.2C60.7,28.2,60.7,28.2,60.7,28.2z M33.5,51.7c0-7.1,4.9-13.2,11.8-14.6l-0.1,0.3
		c-0.5,2,3.2,4,6.9,4.8c0.4,0.1,0.7,0.2,1.1,0.2c0.2,0,0.3,0,0.5,0.1c0.2,0,0.4,0.1,0.6,0.1c0.2,0,0.4,0,0.5,0c0.2,0,0.3,0,0.5,0
		c0.2,0,0.3,0,0.5,0c0.1,0,0.1,0,0.2,0c0.1,0,0.1,0,0.2,0c0.4,0,0.7,0,1.1-0.1c0.1,0,0.1,0,0.2,0c0,0,0.1,0,0.1,0c0,0,0,0,0.1,0
		c0.6-0.1,1.1-0.2,1.5-0.4c0,0,0,0,0,0c0.2-0.1,0.3-0.2,0.5-0.3c0,0,0.1,0,0.1,0c2.5,2.8,3.8,6.3,3.8,10c0,3.5-1.2,6.7-3.3,9.3
		c-0.2,0.2-0.4,0.5-0.6,0.7c-0.1,0.1-0.2,0.2-0.3,0.3c-0.2,0.2-0.4,0.4-0.6,0.6c-0.1,0.1-0.2,0.2-0.3,0.3c-0.2,0.2-0.5,0.4-0.7,0.6
		c-0.1,0.1-0.2,0.2-0.3,0.2c-0.3,0.2-0.5,0.4-0.8,0.5c-0.1,0.1-0.2,0.1-0.2,0.1c-0.9,0.5-1.8,1-2.7,1.3c-0.2,0.1-0.4,0.1-0.5,0.2
		c-0.2,0.1-0.4,0.1-0.7,0.2c-0.3,0.1-0.5,0.1-0.8,0.2c-0.1,0-0.2,0-0.3,0.1c-0.4,0.1-0.8,0.1-1.2,0.2c0,0,0,0,0,0
		c-0.1,0-0.3,0-0.4,0c-0.4,0-0.8,0.1-1.2,0.1c-0.4,0-0.8,0-1.3-0.1c-0.2,0-0.3,0-0.5,0c-0.3,0-0.5-0.1-0.8-0.1c0,0,0,0,0,0l0,0
		c-0.4-0.1-0.7-0.1-1.1-0.2c0,0-0.1,0-0.1,0c-0.4-0.1-0.7-0.2-1-0.3c0,0-0.1,0-0.1-0.1c-0.5-0.2-1.1-0.4-1.6-0.7
		c-0.2-0.1-0.3-0.1-0.5-0.2c-0.2-0.1-0.3-0.2-0.5-0.3c-0.2-0.1-0.4-0.3-0.7-0.4c-0.1-0.1-0.3-0.2-0.4-0.3c-0.2-0.2-0.4-0.3-0.7-0.5
		c-0.1-0.1-0.3-0.2-0.4-0.3c-0.2-0.2-0.4-0.4-0.7-0.6c-0.1-0.1-0.2-0.2-0.3-0.3C35.1,59.5,33.5,55.8,33.5,51.7z M52.3,73.6l-1.7-4
		l2.7-2.7c0.4-0.1,0.7-0.3,1.1-0.4c0.2-0.1,0.4-0.2,0.6-0.3c0.2-0.1,0.4-0.2,0.6-0.3c0.2-0.1,0.4-0.2,0.6-0.3
		c0.3-0.2,0.6-0.4,0.9-0.6c0.2-0.1,0.4-0.3,0.6-0.4c0.2-0.1,0.3-0.2,0.5-0.4c0.2-0.1,0.4-0.3,0.5-0.4c0.3-0.2,0.6-0.5,0.8-0.8
		c0.2-0.1,0.3-0.3,0.4-0.5c0.1-0.1,0.2-0.2,0.3-0.3c0.1,0.5,0.1,1,0.1,1.5c0,5.4-3.7,10-8.9,11.1l0.7-0.8
		C52.3,74,52.4,73.8,52.3,73.6z M46,74.2l0.7,0.8c-5.2-1.1-8.9-5.6-8.9-11.1c0-0.1,0-0.2,0-0.2c0.1,0.1,0.2,0.2,0.3,0.3
		c0.1,0.1,0.2,0.2,0.3,0.2c0.3,0.3,0.7,0.6,1.1,0.8c0.1,0,0.1,0.1,0.2,0.1c0.3,0.2,0.6,0.4,1,0.6c0.2,0.1,0.3,0.2,0.5,0.3
		c0.2,0.1,0.5,0.2,0.7,0.3c0.4,0.2,0.8,0.3,1.2,0.5c0.1,0,0.2,0.1,0.4,0.1c0.3,0.1,0.6,0.2,0.9,0.3c0.1,0,0.1,0,0.2,0
		c0.3,0.1,0.6,0.2,1,0.2l2.2,2.2l-1.7,4C45.8,73.8,45.9,74,46,74.2z M47,67.6c0.5,0,0.9,0.1,1.3,0.1c0,0,0.1,0,0.1,0c0,0,0,0,0,0
		c0,0,0,0,0,0c0.1,0,0.2,0,0.4,0c0.4,0,0.8,0,1.1-0.1c0.1,0,0.1,0,0.2,0c0.4,0,0.9-0.1,1.3-0.2l-1.7,1.7l-0.6,0.6l-0.6-0.6l-0.8-0.8
		L47,67.6z M48.4,70.4l0.4,0.4c0.1,0.1,0.2,0.1,0.4,0.1s0.3,0,0.4-0.1l0.4-0.4l1.4,3.3l-2.1,2.4L47,73.7L48.4,70.4z M29.5,70.3
		c-0.1,0.1-0.2,0.2-0.4,0.2c-0.1,0-0.3,0-0.3-0.1c-0.2-0.2-0.2-0.5,0-0.7l4.7-4.8l-4.2,0.5c0,0,0,0-0.1,0c-0.2,0-0.5-0.2-0.5-0.4
		c0-0.3,0.2-0.5,0.4-0.6l5.5-0.7l1.6-1.7c0.2,0.2,0.4,0.5,0.6,0.7c0,0,0,0.1,0,0.1L29.5,70.3z M70.8,64.8
		C70.8,64.8,70.8,64.8,70.8,64.8L65,64.3l2.4,3.7c0.1,0.2,0.1,0.5-0.2,0.7c-0.1,0.1-0.2,0.1-0.3,0.1c-0.2,0-0.3-0.1-0.4-0.2
		l-2.8-4.4c0,0,0,0,0,0l-2.3-1.5c0-0.4-0.1-0.8-0.2-1.3c0,0,0,0,0,0l2.9,1.9l6.7,0.6c0.3,0,0.5,0.3,0.4,0.5
		C71.3,64.7,71.1,64.8,70.8,64.8z"/>
	<path d="M44.3,49.9c1.2,0,2.2-1,2.2-2.2s-1-2.2-2.2-2.2s-2.2,1-2.2,2.2S43.1,49.9,44.3,49.9z M44.3,46.6c0.6,0,1.2,0.5,1.2,1.2
		c0,0.6-0.5,1.2-1.2,1.2s-1.2-0.5-1.2-1.2C43.2,47.1,43.7,46.6,44.3,46.6z"/>
	<path d="M53.9,49.9c1.2,0,2.2-1,2.2-2.2s-1-2.2-2.2-2.2s-2.2,1-2.2,2.2S52.7,49.9,53.9,49.9z M53.9,46.6c0.6,0,1.2,0.5,1.2,1.2
		c0,0.6-0.5,1.2-1.2,1.2s-1.2-0.5-1.2-1.2C52.7,47.1,53.2,46.6,53.9,46.6z"/>
	<path d="M60.9,52.8c0.3,0,0.5-0.1,0.7-0.3s0.3-0.4,0.3-0.7c0-0.3-0.1-0.5-0.3-0.7c-0.4-0.4-1.1-0.4-1.4,0c-0.2,0.2-0.3,0.4-0.3,0.7
		c0,0.3,0.1,0.5,0.3,0.7C60.4,52.7,60.7,52.8,60.9,52.8z"/>
	<path d="M49.1,62.6c-0.5,0-1,0.4-1,1c0,0.5,0.5,1,1,1c0.6,0,1-0.5,1-1C50.1,63.1,49.7,62.6,49.1,62.6z"/>
	<path d="M54.5,61.2c-0.5,0.3-0.6,0.9-0.4,1.4c0.2,0.3,0.5,0.5,0.9,0.5c0.2,0,0.3,0,0.5-0.1c0.5-0.3,0.6-0.9,0.4-1.4
		C55.6,61.1,55,60.9,54.5,61.2z"/>
	<path d="M43.7,61.2c-0.5-0.3-1.1-0.1-1.4,0.4c-0.3,0.5-0.1,1.1,0.4,1.4c0.2,0.1,0.3,0.1,0.5,0.1c0.3,0,0.7-0.2,0.9-0.5
		C44.4,62.1,44.2,61.5,43.7,61.2z"/>
	<path d="M46.3,62.3c-0.5-0.1-1.1,0.2-1.2,0.7c-0.1,0.5,0.2,1.1,0.7,1.2c0.1,0,0.2,0,0.3,0c0.4,0,0.8-0.3,1-0.7
		C47.2,63,46.9,62.4,46.3,62.3z"/>
	<path d="M38.7,54.7c-0.1-0.5-0.7-0.9-1.2-0.7c-0.5,0.1-0.9,0.7-0.7,1.2c0.1,0.4,0.5,0.7,1,0.7c0.1,0,0.2,0,0.3,0
		C38.5,55.7,38.8,55.2,38.7,54.7z"/>
	<path d="M60.3,55.9c0.1,0,0.2,0,0.3,0c0.5,0,0.9-0.3,1-0.8c0.1-0.5-0.2-1.1-0.7-1.2c-0.5-0.1-1.1,0.2-1.2,0.7
		C59.4,55.2,59.7,55.7,60.3,55.9z"/>
	<path d="M40.1,60.9c0.2,0.2,0.4,0.3,0.7,0.3c0.3,0,0.5-0.1,0.7-0.3c0.4-0.4,0.4-1,0-1.4c-0.4-0.4-1-0.4-1.4,0
		C39.7,59.9,39.7,60.5,40.1,60.9z"/>
	<path d="M38,58.3c0.2,0.3,0.5,0.5,0.9,0.5c0.2,0,0.4,0,0.5-0.1c0.5-0.3,0.6-0.9,0.4-1.4c-0.3-0.5-0.9-0.6-1.4-0.4
		C37.9,57.2,37.7,57.8,38,58.3z"/>
	<path d="M52.2,64.3c0.1,0,0.2,0,0.3,0c0.5-0.1,0.9-0.7,0.7-1.2c-0.1-0.5-0.7-0.8-1.2-0.7c-0.5,0.1-0.9,0.7-0.7,1.2
		C51.3,64,51.7,64.3,52.2,64.3z"/>
	<path d="M57.5,61.2c0.3,0,0.5-0.1,0.7-0.3c0.4-0.4,0.4-1,0-1.4c-0.4-0.4-1-0.4-1.4,0s-0.4,1,0,1.4C56.9,61.1,57.2,61.2,57.5,61.2z"
		/>
	<path d="M58.8,58.6c0.2,0.1,0.3,0.1,0.5,0.1c0.4,0,0.7-0.2,0.9-0.5c0.3-0.5,0.1-1.1-0.4-1.4c-0.5-0.3-1.1-0.1-1.4,0.4
		C58.2,57.7,58.4,58.3,58.8,58.6z"/>
	<path d="M38,52.5c0.2-0.2,0.3-0.4,0.3-0.7c0-0.3-0.1-0.5-0.3-0.7c-0.4-0.4-1-0.4-1.4,0c-0.2,0.2-0.3,0.4-0.3,0.7
		c0,0.3,0.1,0.5,0.3,0.7c0.2,0.2,0.4,0.3,0.7,0.3C37.6,52.8,37.8,52.7,38,52.5z"/>
	<path d="M59.5,27.6c-0.3-0.1-0.5,0.1-0.6,0.4c-0.1,0.3-1.5,0.7-3.7,0.2c-2.3-0.5-3.4-1.5-3.3-1.8c0.1-0.3-0.1-0.5-0.4-0.6
		c-0.3-0.1-0.5,0.1-0.6,0.4c-0.3,1.3,1.8,2.5,4,3c0.8,0.2,1.5,0.3,2.2,0.3c1.4,0,2.5-0.4,2.7-1.2C60,27.9,59.8,27.7,59.5,27.6z"/>
	<path d="M45.2,56.7c0.6,0.7,1.5,1.2,2.4,1.3c0.1,0,0.2,0,0.2,0c0.8,0,1.5-0.3,2-0.8c0.3-0.2,0.5-0.5,0.6-0.8c0.2-0.3,0.3-0.6,0.3-1
		c0.1-0.8-0.1-1.6-0.6-2.3c-0.6-0.7-1.5-1.2-2.4-1.3l-5.8-0.4c-0.2,0-0.4,0.1-0.5,0.3c-0.1,0.2-0.1,0.4,0,0.5L45.2,56.7z M47.8,52.7
		c0.7,0,1.3,0.4,1.7,0.9c0.4,0.5,0.5,1,0.4,1.5c0,0.2-0.1,0.5-0.2,0.7c-0.1,0.2-0.3,0.4-0.4,0.6c-0.4,0.4-0.9,0.6-1.5,0.5
		c-0.6,0-1.3-0.4-1.7-0.9l-2.9-3.7L47.8,52.7z"/>
</g>
</svg>
