<?xml version="1.0" encoding="utf-8"?>
<!-- Generator: Adobe Illustrator 19.1.0, SVG Export Plug-In . SVG Version: 6.00 Build 0)  -->
<svg version="1.1" id="Layer_1" xmlns="http://www.w3.org/2000/svg" xmlns:xlink="http://www.w3.org/1999/xlink" x="0px" y="0px"
	 viewBox="0 0 100 100" enable-background="new 0 0 100 100" xml:space="preserve">
<g>
	<g>
		<g>
			<path fill="#FFFFFF" d="M44.2,44.2c2.6,0.7,4.5,2.2,5.9,3.6c-0.4,0.6-0.7,1.4-0.7,2.2c0,2,1.6,3.7,3.7,3.7s3.7-1.6,3.7-3.7
				c0-0.9-0.3-1.7-0.9-2.3c2.8-2.5,6.4-3.4,6.4-3.4c-4.5-4.8,0-9.1,0-9.1c-6.7-1.8-9.2-9-9.2-9c-2.1,7-8.8,9-8.8,9
				C48.7,40.1,44.2,44.2,44.2,44.2z"/>
			<path fill="#00AEEF" d="M53,55.6c-3.1,0-5.7-2.5-5.7-5.7c0-0.6,0.1-1.2,0.3-1.7c-1.2-1-2.5-1.7-4-2.1c-0.7-0.2-1.2-0.8-1.4-1.5
				c-0.2-0.7,0.1-1.4,0.6-1.9c0.7-0.7,2.8-3.1-0.1-6.3c-0.5-0.5-0.6-1.2-0.4-1.9s0.7-1.2,1.4-1.4c0.2-0.1,5.7-1.8,7.5-7.7
				c0.3-0.8,1-1.4,1.9-1.4c0.8,0,1.6,0.5,1.9,1.3c0,0.1,2.3,6.3,7.8,7.7c0.7,0.2,1.2,0.7,1.4,1.4s0,1.4-0.5,1.9
				c-0.7,0.7-2.8,3.3,0.1,6.3c0.5,0.5,0.7,1.3,0.5,1.9s-0.8,1.2-1.4,1.4c0,0-2.2,0.6-4.3,2c0.2,0.6,0.3,1.2,0.3,1.8
				C58.7,53.1,56.1,55.6,53,55.6z M47.3,43.3c1.6,0.8,3,1.8,4.2,3.1c0.7,0.7,0.8,1.8,0.2,2.6c-0.2,0.2-0.3,0.5-0.3,1
				c0,0.9,0.7,1.7,1.7,1.7s1.7-0.7,1.7-1.7c0-0.5-0.2-0.8-0.4-1.1c-0.7-0.8-0.6-2,0.2-2.8c1.5-1.4,3.2-2.3,4.6-2.9
				c-1.3-2.6-1-5.2,0-7.2c-2.8-1.4-4.7-3.6-6-5.5c-1.8,2.7-4.1,4.4-5.9,5.4c1.3,2.5,1.1,4.7,0.5,6.3C47.6,42.6,47.5,42.9,47.3,43.3z
				"/>
		</g>
		<g>
			<path fill="#FFFFFF" d="M73.6,60.8c-6.7-0.3-6.5-6.5-6.5-6.5c-2.4,1.3-4.8,1.7-6.8,1.7c-0.2-1.9-1.7-3.3-3.6-3.3
				c-2,0-3.7,1.6-3.7,3.7c0,1.9,1.5,3.5,3.4,3.6c-0.1,3.8-2.1,7.1-2.1,7.1c6.6,0.1,6.5,6.5,6.5,6.5c6-3.5,13.2-0.4,13.2-0.4
				C70.5,66.7,73.6,60.8,73.6,60.8z"/>
			<path fill="#00AEEF" d="M60.8,75.6c-0.3,0-0.7-0.1-1-0.3c-0.6-0.4-1-1-1-1.8c0-1-0.3-4.3-4.5-4.4c-0.7,0-1.4-0.4-1.7-1
				c-0.3-0.6-0.3-1.4,0-2c0,0,1.2-2.1,1.7-4.6c-1.9-0.9-3.3-2.9-3.3-5.1c0-3.1,2.5-5.7,5.7-5.7c2.3,0,4.2,1.3,5.1,3.3
				c1.5-0.1,3-0.6,4.3-1.3c0.6-0.4,1.4-0.3,2,0c0.6,0.4,1,1.1,0.9,1.8c0,1,0.2,4.2,4.6,4.4c0.7,0,1.3,0.4,1.6,1
				c0.3,0.6,0.4,1.3,0,1.9c-0.1,0.2-2.5,5.1,0.4,10.5c0.4,0.8,0.3,1.7-0.3,2.3c-0.6,0.6-1.5,0.8-2.3,0.5c-0.1,0-6.3-2.6-11.4,0.3
				C61.5,75.5,61.1,75.6,60.8,75.6z M57.2,65.6c2.8,0.9,4.3,3,5.1,5.1c3-1,6.1-0.9,8.4-0.5c-0.7-3.1-0.3-5.9,0.2-7.8
				c-2.7-0.8-4.1-2.5-4.9-4c-0.2-0.4-0.3-0.8-0.5-1.1c-1.7,0.6-3.4,0.8-5.3,0.8c-1,0-1.8-0.8-1.9-1.8c-0.1-0.9-0.8-1.5-1.6-1.5
				c-0.9,0-1.7,0.7-1.7,1.7c0,0.9,0.7,1.6,1.6,1.6c1.1,0.1,1.9,1,1.9,2C58.4,62.1,57.8,64.1,57.2,65.6z"/>
		</g>
		<g>
			<path fill="#FFFFFF" d="M49.4,52.7c-2,0-3.7,1.6-3.7,3.7c0,0,0,0.1,0,0.1c-4,0-7.5-2.1-7.5-2.1c-0.1,6.6-6.5,6.5-6.5,6.5
				c3.5,6,0.4,13.2,0.4,13.2c6.5-3.4,12.3-0.4,12.3-0.4c0.3-6.7,6.5-6.5,6.5-6.5c-1.4-2.5-1.7-5-1.6-7.1c0,0,0,0,0,0
				c2,0,3.7-1.6,3.7-3.7C53,54.3,51.4,52.7,49.4,52.7z"/>
			<path fill="#00AEEF" d="M32.2,75.9c-0.5,0-1-0.2-1.4-0.5c-0.6-0.6-0.8-1.5-0.5-2.3c0-0.1,2.6-6.3-0.3-11.4c-0.4-0.6-0.4-1.4,0-2
				c0.4-0.6,1-1,1.8-1c0,0,0,0,0,0c1,0,4.3-0.3,4.4-4.5c0-0.7,0.4-1.4,1-1.7s1.4-0.3,2,0c0,0,2.2,1.3,4.8,1.7
				c0.8-2.1,2.9-3.7,5.3-3.7c3.1,0,5.7,2.5,5.7,5.7c0,2.4-1.5,4.5-3.7,5.3c0.1,1.6,0.6,3.1,1.4,4.5c0.4,0.6,0.3,1.4,0,2
				c-0.4,0.6-1.1,1-1.8,0.9c-1,0-4.2,0.2-4.4,4.5c0,0.7-0.4,1.3-1,1.6c-0.6,0.3-1.3,0.4-1.9,0c-0.2-0.1-5.1-2.5-10.5,0.4
				C32.8,75.9,32.5,75.9,32.2,75.9z M38.7,70.3c1.7,0,3.1,0.3,4.3,0.6c0.8-2.7,2.5-4.1,4-4.9c0.4-0.2,0.8-0.3,1.1-0.5
				c-0.6-1.8-0.9-3.7-0.8-5.7c0-1.1,0.9-1.9,2-1.9c0,0,0,0,0.1,0c0.9,0,1.6-0.8,1.6-1.7c0-0.9-0.7-1.7-1.7-1.7
				c-0.9,0-1.6,0.7-1.7,1.6c0,0,0,0.1,0,0.1c0,0.5-0.2,1.1-0.6,1.4c-0.4,0.4-0.9,0.6-1.4,0.6c-2.3,0-4.4-0.6-6-1.2
				c-0.9,2.8-3,4.3-5.1,5.1c1,3,0.9,6.1,0.5,8.4C36.4,70.4,37.6,70.3,38.7,70.3z"/>
		</g>
	</g>
	<circle fill="#BE1E2D" cx="53" cy="54.3" r="2.5"/>
	<g>
		<path fill="#009444" d="M53,52.2c0,0-2.3-6.1-8.9-8c0,0,4.5-4.1,0-9.1c0,0,6.7-2,8.8-9c0,0,2.5,7.3,9.2,9c0,0-4.5,4.4,0,9.1
			C62.2,44.2,54.5,46.1,53,52.2z"/>
		<path fill="#8DC63F" d="M53,44.1c-0.3,0-0.5-0.2-0.5-0.5v-6.8c0-0.3,0.2-0.5,0.5-0.5s0.5,0.2,0.5,0.5v6.8
			C53.5,43.8,53.3,44.1,53,44.1z"/>
	</g>
	<g>
		<path fill="#009444" d="M50.4,55.2c0,0-2.7,5.9,0.6,11.9c0,0-6.1-0.3-6.5,6.5c0,0-5.9-3.1-12.3,0.4c0,0,3.1-7.2-0.4-13.2
			c0,0,6.3,0.1,6.5-6.5C38.2,54.3,45,58.5,50.4,55.2z"/>
		<path fill="#8DC63F" d="M39.4,66.4c-0.1,0-0.3,0-0.4-0.1c-0.2-0.2-0.2-0.5,0-0.7l4.8-4.8c0.2-0.2,0.5-0.2,0.7,0s0.2,0.5,0,0.7
			l-4.8,4.8C39.6,66.4,39.5,66.4,39.4,66.4z"/>
	</g>
	<g>
		<path fill="#009444" d="M55.2,54.9c0,0,5.9,2.7,11.9-0.6c0,0-0.3,6.1,6.5,6.5c0,0-3.1,5.9,0.4,12.3c0,0-7.2-3.1-13.2,0.4
			c0,0,0.1-6.3-6.5-6.5C54.3,67.1,58.5,60.3,55.2,54.9z"/>
		<path fill="#8DC63F" d="M65.9,66.4c-0.1,0-0.3,0-0.4-0.1l-4.8-4.8c-0.2-0.2-0.2-0.5,0-0.7s0.5-0.2,0.7,0l4.8,4.8
			c0.2,0.2,0.2,0.5,0,0.7C66.2,66.4,66.1,66.4,65.9,66.4z"/>
	</g>
	<circle fill="#ED1B2F" cx="56.7" cy="56.3" r="3.7"/>
	<circle fill="#ED1B2F" cx="49.4" cy="56.3" r="3.7"/>
	<circle fill="#ED1B2F" cx="53" cy="49.9" r="3.7"/>
</g>
</svg>
