<?xml version="1.0" encoding="utf-8"?>
<!-- Generator: Adobe Illustrator 19.1.0, SVG Export Plug-In . SVG Version: 6.00 Build 0)  -->
<svg version="1.1" id="Layer_1" xmlns="http://www.w3.org/2000/svg" xmlns:xlink="http://www.w3.org/1999/xlink" x="0px" y="0px"
	 viewBox="0 0 100 100" enable-background="new 0 0 100 100" xml:space="preserve">
<path d="M66.6,58.5C66.6,58.5,66.6,58.5,66.6,58.5c-0.1-0.3-0.2-0.5-0.3-0.7c-0.2-0.5-0.4-0.8-0.7-1.2l-3.2-4.1
	c0.2-0.3,0.4-0.5,0.6-0.9c0,0,0-0.1,0.1-0.1c0.4-0.7,0.6-1.4,0.7-2.1c0,0,0-0.1,0-0.1c0.1-1.5-0.3-2.9-1.2-4.1L58.4,40
	c0.2-0.3,0.3-0.7,0.4-1c0,0,0,0,0-0.1c0.5-1.8,0.1-3.6-1-5.1l-3.2-4.1c-1.1-1.4-2.8-2.2-4.6-2.2s-3.5,0.8-4.6,2.2l-3.2,4.1
	c-0.6,0.8-1,1.7-1.2,2.7c-0.1,0.8-0.1,1.6,0.1,2.4c0,0,0,0,0,0c0.1,0.4,0.2,0.7,0.4,1.1l-4.1,5.2c-0.9,1.2-1.4,2.6-1.2,4.2
	c0.1,0.8,0.3,1.5,0.7,2.2c0,0,0.1,0.1,0.1,0.1c0.2,0.3,0.3,0.5,0.5,0.8c0,0,0,0,0,0l-3.2,4.1c-0.3,0.4-0.5,0.8-0.7,1.2
	c-0.1,0.2-0.2,0.5-0.3,0.7c0,0,0,0,0,0c-0.5,1.6-0.3,3.3,0.6,4.6c0,0,0.1,0.1,0.1,0.1c0.1,0.1,0.2,0.3,0.3,0.4
	c0,0.1,0.1,0.1,0.1,0.2c0.1,0.1,0.2,0.2,0.3,0.3c0.1,0.1,0.2,0.2,0.2,0.2c0.1,0.1,0.2,0.2,0.3,0.3c0.1,0.1,0.2,0.2,0.3,0.2
	c0.1,0.1,0.2,0.1,0.3,0.2c0.1,0.1,0.3,0.1,0.4,0.2c0.1,0.1,0.2,0.1,0.3,0.2c0.2,0.1,0.3,0.1,0.5,0.2c0.1,0,0.2,0.1,0.3,0.1
	c0.2,0,0.4,0.1,0.5,0.1c0.1,0,0.2,0,0.3,0.1c0.3,0,0.5,0.1,0.8,0.1h5.3v4.5c0,1.1,0.9,2,2,2h7.5c1.1,0,2-0.9,2-2V66H61
	c0.3,0,0.6,0,0.8-0.1c0.1,0,0.2,0,0.2,0c0.2,0,0.4-0.1,0.5-0.1c0.1,0,0.2-0.1,0.3-0.1c0.2-0.1,0.3-0.1,0.4-0.2
	c0.1,0,0.2-0.1,0.3-0.2c0.1-0.1,0.3-0.1,0.4-0.2c0.1-0.1,0.2-0.1,0.3-0.2c0.1-0.1,0.2-0.2,0.3-0.2c0.1-0.1,0.2-0.2,0.3-0.2
	c0.1-0.1,0.2-0.2,0.2-0.2c0,0,0,0,0,0c0.1-0.1,0.2-0.2,0.3-0.3c0.1-0.1,0.1-0.1,0.2-0.2c0.1-0.1,0.2-0.3,0.3-0.4
	c0,0,0.1-0.1,0.1-0.1C66.8,61.8,67.1,60.1,66.6,58.5z M61,63.5h-6.8h-8.5H39c-0.3,0-0.5,0-0.8-0.1c0,0-0.1,0-0.1,0
	c-0.2-0.1-0.5-0.2-0.7-0.3c0,0-0.1,0-0.1,0c-0.2-0.1-0.4-0.3-0.6-0.4c0,0,0,0,0,0c-0.2-0.2-0.4-0.4-0.5-0.6c0,0,0,0,0,0
	c-0.1-0.2-0.2-0.4-0.3-0.6c0,0,0,0,0-0.1c-0.2-0.6-0.3-1.3-0.1-1.9c0.3,0.3,0.6,0.6,0.8,0.9L37,61l0.4-0.6c0.9-1.3,2.3-2.1,3.9-2.1
	c1.6,0,3.1,0.8,3.9,2.1l0.4,0.6l0.4-0.6c0.9-1.3,2.3-2.1,3.9-2.1c1.6,0,3.1,0.8,3.9,2.1l0.4,0.6l0.4-0.6c0.9-1.3,2.3-2.1,3.9-2.1
	c1.6,0,3.1,0.8,3.9,2.1L63,61l0.4-0.6c0.2-0.3,0.5-0.7,0.8-0.9c0.1,0.6,0.1,1.3-0.1,1.9c0,0,0,0,0,0.1c-0.1,0.2-0.2,0.4-0.3,0.6
	c-0.1,0.2-0.3,0.4-0.5,0.6c0,0,0,0,0,0c-0.2,0.2-0.4,0.3-0.6,0.4c0,0-0.1,0-0.1,0c-0.2,0.1-0.4,0.2-0.7,0.3c0,0-0.1,0-0.1,0
	C61.6,63.5,61.3,63.5,61,63.5z M53.3,70h-6.5v-5.5h6.5V70z M46.1,40.6C46.1,40.6,46,40.6,46.1,40.6c-0.2,0-0.3-0.1-0.3-0.1
	c-0.1,0-0.3-0.1-0.4-0.1c-0.1-0.1-0.2-0.1-0.3-0.2c-0.2-0.1-0.3-0.2-0.4-0.3c-0.1-0.1-0.2-0.2-0.4-0.3c-0.1-0.1-0.2-0.3-0.3-0.4
	c0,0,0,0,0,0c-0.3-0.5-0.4-1-0.5-1.5c0.7,0.4,1.3,0.9,1.7,1.6l0.4,0.6l0.4-0.6c0.9-1.3,2.3-2.1,3.9-2.1c1.6,0,3.1,0.8,3.9,2.1
	l0.4,0.6l0.4-0.6c0.4-0.7,1-1.2,1.7-1.6c0,0.5-0.2,1.1-0.5,1.5c0,0,0,0,0,0c-0.1,0.2-0.2,0.3-0.3,0.4c-0.1,0.1-0.2,0.2-0.4,0.3
	c-0.1,0.1-0.2,0.2-0.4,0.3c-0.1,0.1-0.2,0.1-0.3,0.2c-0.1,0.1-0.2,0.1-0.4,0.1c-0.1,0-0.2,0.1-0.3,0.1c0,0,0,0-0.1,0
	c-0.2,0-0.4,0.1-0.7,0.1h-6.4C46.5,40.7,46.3,40.6,46.1,40.6z M54.3,38c-1.1-1.3-2.7-2-4.3-2s-3.3,0.7-4.3,2c-0.6-0.6-1.3-1.2-2-1.5
	c0.1-0.4,0.3-0.8,0.6-1.2l3.2-4.1C48,30.5,49,30,50,30c1,0,2,0.5,2.6,1.3l3.2,4.1c0.3,0.4,0.5,0.7,0.6,1.2
	C55.6,36.8,54.9,37.3,54.3,38z M44.2,40.8c0,0,0.1,0.1,0.1,0.1c0.1,0.1,0.2,0.2,0.4,0.2c0,0,0.1,0.1,0.1,0.1c0,0,0,0,0,0
	c0.1,0,0.1,0.1,0.2,0.1c0.1,0,0.2,0.1,0.2,0.1c0.1,0,0.1,0,0.2,0.1c0.1,0,0.2,0.1,0.3,0.1c0.1,0,0.1,0,0.2,0c0.1,0,0.1,0,0.2,0
	c0.2,0,0.4,0.1,0.7,0.1h6.4c0.2,0,0.4,0,0.7-0.1c0.1,0,0.1,0,0.2,0c0.1,0,0.1,0,0.2,0c0.1,0,0.2,0,0.3-0.1c0.1,0,0.1,0,0.2-0.1
	c0.1,0,0.2-0.1,0.2-0.1c0.1,0,0.1-0.1,0.2-0.1c0,0,0,0,0,0c0,0,0.1-0.1,0.1-0.1c0.1-0.1,0.3-0.2,0.4-0.2c0,0,0.1-0.1,0.1-0.1l4.7,6
	v0c0.1,0.2,0.3,0.4,0.4,0.6c-0.7-0.3-1.4-0.5-2.2-0.5c-1.7,0-3.3,0.7-4.3,2c-1.1-1.3-2.7-2-4.3-2s-3.3,0.7-4.3,2
	c-1.1-1.3-2.7-2-4.3-2c-0.8,0-1.5,0.2-2.2,0.5c0.1-0.2,0.2-0.4,0.4-0.6L44.2,40.8z M41.4,52C41.4,52,41.4,52,41.4,52
	c-0.1,0-0.2,0-0.2-0.1c-0.2-0.1-0.4-0.1-0.5-0.2c-0.2-0.1-0.3-0.2-0.5-0.3c0,0,0,0-0.1,0c-0.2-0.1-0.3-0.3-0.5-0.4
	c-0.1-0.2-0.3-0.3-0.4-0.5c0,0,0-0.1-0.1-0.1c-0.1-0.2-0.2-0.3-0.2-0.5c0,0,0,0,0-0.1c-0.1-0.4-0.2-0.8-0.2-1.2
	c0.8-0.5,1.6-0.7,2.5-0.7c1.6,0,3.1,0.8,3.9,2.1l0.4,0.6l0.4-0.6c0.9-1.3,2.3-2.1,3.9-2.1c1.6,0,3.1,0.8,3.9,2.1l0.4,0.6l0.4-0.6
	c0.9-1.3,2.3-2.1,3.9-2.1c0.9,0,1.8,0.3,2.5,0.7c0,0.4,0,0.9-0.2,1.3c0,0,0,0,0,0c-0.1,0.2-0.1,0.3-0.2,0.5c0,0,0,0.1-0.1,0.1
	c-0.1,0.2-0.2,0.3-0.4,0.5c-0.1,0.2-0.3,0.3-0.5,0.4c0,0,0,0,0,0c-0.2,0.1-0.3,0.2-0.5,0.3c-0.2,0.1-0.4,0.1-0.5,0.2
	c0,0-0.1,0-0.1,0c0,0,0,0-0.1,0c-0.2,0-0.5,0.1-0.7,0.1H42.1C41.9,52.1,41.6,52,41.4,52z M40.6,52.8c0,0,0.1,0,0.1,0
	c0.1,0,0.2,0.1,0.4,0.1c0.1,0,0.1,0,0.2,0c0,0,0.1,0,0.1,0c0.2,0,0.5,0.1,0.7,0.1h15.8c0.2,0,0.5,0,0.7-0.1c0,0,0.1,0,0.1,0
	c0.1,0,0.1,0,0.2,0c0.1,0,0.3-0.1,0.4-0.1c0,0,0.1,0,0.1,0l4.2,5.4v0c0.1,0.1,0.2,0.2,0.2,0.3c-0.3,0.2-0.6,0.5-0.8,0.8
	c-1.1-1.3-2.7-2-4.3-2s-3.3,0.7-4.3,2c-1.1-1.3-2.7-2-4.3-2s-3.3,0.7-4.3,2c-1.1-1.3-2.7-2-4.3-2S38,58,37,59.3
	c-0.2-0.3-0.5-0.5-0.8-0.8c0.1-0.1,0.1-0.2,0.2-0.3L40.6,52.8z"/>
</svg>
