<?xml version="1.0" encoding="utf-8"?>
<!-- Generator: Adobe Illustrator 19.1.0, SVG Export Plug-In . SVG Version: 6.00 Build 0)  -->
<svg version="1.1" id="Layer_1" xmlns="http://www.w3.org/2000/svg" xmlns:xlink="http://www.w3.org/1999/xlink" x="0px" y="0px"
	 viewBox="0 0 100 100" enable-background="new 0 0 100 100" xml:space="preserve">
<g>
	<g>
		<path fill="#FFFFFF" d="M71.3,57.5H70l-3.3-7.3c0.1,0,0.1,0,0.2,0c3.9,0,7.2-3.2,7.2-7.2s-3.2-7.2-7.2-7.2c-0.9,0-1.8,0.2-2.6,0.5
			l-2.4-3.3c-2.1-2.9-5.4-4.8-8.9-4.9c-1.7,0-3.2,0.3-4,1.5c-4,5.8-12.3,23-14.6,27.7h-1.3c-1.8,0-3.3,1.5-3.3,3.3v7.7
			c0,1.8,1.5,3.3,3.3,3.3h38.4c1.8,0,3.3-1.5,3.3-3.3v-7.7C74.6,58.9,73.1,57.5,71.3,57.5z"/>
		<path fill="#00AEEF" d="M71.3,73.8H32.9c-2.9,0-5.3-2.4-5.3-5.3v-7.7c0-2.9,2.4-5.3,5.3-5.3H33c2.9-6.1,10.4-21.3,14.2-26.8
			c0.8-1.1,2.4-2.5,5.7-2.4c4,0.1,8,2.2,10.5,5.7l1.6,2.2c0.6-0.1,1.2-0.2,1.8-0.2c5,0,9.2,4.1,9.2,9.2c0,4.1-2.7,7.6-6.4,8.7
			l1.7,3.7c2.9,0,5.3,2.4,5.3,5.3v7.7C76.6,71.4,74.2,73.8,71.3,73.8z M32.9,59.5c-0.7,0-1.3,0.6-1.3,1.3v7.7c0,0.7,0.6,1.3,1.3,1.3
			h38.4c0.7,0,1.3-0.6,1.3-1.3v-7.7c0-0.7-0.6-1.3-1.3-1.3H70c-0.8,0-1.5-0.5-1.8-1.2L64.9,51c-0.3-0.6-0.2-1.4,0.2-1.9
			c0.4-0.6,1-0.9,1.7-0.9c0,0,0.1,0,0.2,0c2.8,0,5.1-2.3,5.1-5.2s-2.3-5.2-5.2-5.2c-0.6,0-1.3,0.1-1.9,0.4c-0.8,0.3-1.8,0.1-2.4-0.7
			l-2.4-3.3c-1.8-2.5-4.6-4-7.4-4c-0.8,0-1.9,0.1-2.3,0.7C47.4,35.4,41,48,36.1,58.3c-0.3,0.7-1,1.1-1.8,1.1H32.9z"/>
	</g>
	<circle fill="#FDFDFE" cx="66.9" cy="43" r="7.2"/>
	<path fill="#ED1B2F" d="M61.4,38.5c0.8-0.9,1.7-1.7,2.9-2.1l-2.4-3.3c-2.1-2.9-5.4-4.8-8.9-4.9c-1.7,0-3.2,0.3-4,1.5
		c-4.6,6.7-15.2,28.9-15.2,28.9h36.9L61.4,38.5z"/>
	<path fill="#FDFDFE" d="M71.3,71.8H32.9c-1.8,0-3.3-1.5-3.3-3.3v-7.7c0-1.8,1.5-3.3,3.3-3.3h38.4c1.8,0,3.3,1.5,3.3,3.3v7.7
		C74.6,70.3,73.1,71.8,71.3,71.8z"/>
</g>
</svg>
