<?xml version="1.0" encoding="utf-8"?>
<!-- Generator: Adobe Illustrator 19.1.0, SVG Export Plug-In . SVG Version: 6.00 Build 0)  -->
<svg version="1.1" id="Layer_1" xmlns="http://www.w3.org/2000/svg" xmlns:xlink="http://www.w3.org/1999/xlink" x="0px" y="0px"
	 viewBox="0 0 100 100" enable-background="new 0 0 100 100" xml:space="preserve">
<g>
	<g>
		<g>
			<circle fill="#FFFFFF" cx="50" cy="30" r="3.8"/>
			<path fill="#00AEEF" d="M50,35.8c-3.2,0-5.8-2.6-5.8-5.8s2.6-5.8,5.8-5.8c3.2,0,5.8,2.6,5.8,5.8S53.2,35.8,50,35.8z M50,28.1
				c-1,0-1.8,0.8-1.8,1.8s0.8,1.8,1.8,1.8s1.8-0.8,1.8-1.8S51,28.1,50,28.1z"/>
		</g>
		<g>
			<path fill="#FFFFFF" d="M65.7,65.8c-1-2.6-3-8.5-3-15c0-8.8-1.5-16.4-12.7-16.4c-11.2,0-12.7,7.9-12.7,16.6c0,6.4-2,12.2-3,14.8
				c-0.5,1.2,0,2.6,1.2,3.2c1.7,0.8,5,1.6,11.4,1.8c0,0,0,0,0,0c0,1.7,1.4,3,3,3c1.7,0,3-1.4,3-3c0,0,0,0,0,0
				c6.4-0.2,9.7-1,11.4-1.8C65.7,68.4,66.2,67,65.7,65.8z"/>
			<path fill="#00AEEF" d="M50,75.9c-2.1,0-3.9-1.3-4.7-3.2c-4.8-0.2-8.4-0.9-10.6-2c-2.1-1-3.1-3.5-2.2-5.7
				c1.1-2.7,2.9-8.1,2.9-14.1c0-5.6,0-18.6,14.7-18.6s14.7,12.5,14.7,18.4c0,6.3,2,12.1,2.9,14.3s-0.1,4.7-2.2,5.7
				c-2.2,1.1-5.8,1.7-10.7,2C53.9,74.5,52.1,75.9,50,75.9z M48.9,70.9c0,0.6,0.5,1,1,1c0.6,0,1-0.4,1-1c0,0,0-0.1,0-0.1
				c0-1.1,0.9-2,1.9-2c6.3-0.2,9.3-1,10.6-1.6c0.2-0.1,0.3-0.4,0.2-0.6c0,0,0,0,0,0c-1.2-3-3.2-9-3.2-15.8c0-9.4-1.7-14.4-10.7-14.4
				c-8.9,0-10.7,5.4-10.7,14.6c0,6.7-2,12.6-3.2,15.6c-0.1,0.2,0,0.5,0.2,0.6c1.4,0.6,4.3,1.4,10.6,1.6C48.1,68.8,49,69.7,48.9,70.9
				C49,70.8,49,70.8,48.9,70.9z"/>
		</g>
	</g>
	<circle fill="#F7941E" cx="50" cy="30" r="3.8"/>
	<g>
		<circle fill="#898452" cx="50" cy="70.8" r="3"/>
		<path fill="#FFF450" d="M35.5,68.9c-1.2-0.6-1.7-2-1.2-3.2c1-2.6,3-8.4,3-14.8c0-8.7,1.5-16.6,12.7-16.6s12.7,7.6,12.7,16.4
			c0,6.5,2,12.4,3,15c0.5,1.2,0,2.6-1.2,3.2c-2,0.9-6,1.9-14.5,1.9C41.6,70.8,37.5,69.9,35.5,68.9z"/>
		<path fill="#C5BD40" d="M50,66.3c-5,0-8.5-0.5-10.4-1.4c-0.3-0.1-0.4-0.4-0.2-0.7c0.1-0.3,0.4-0.4,0.7-0.2c1.2,0.6,4,1.3,10,1.3
			c6,0,8.7-0.7,10-1.3c0.2-0.1,0.5,0,0.7,0.2c0.1,0.3,0,0.5-0.2,0.7C58.5,65.9,55,66.3,50,66.3z"/>
	</g>
</g>
</svg>
