<?xml version="1.0" encoding="utf-8"?>
<!-- Generator: Adobe Illustrator 19.1.0, SVG Export Plug-In . SVG Version: 6.00 Build 0)  -->
<svg version="1.1" id="Layer_1" xmlns="http://www.w3.org/2000/svg" xmlns:xlink="http://www.w3.org/1999/xlink" x="0px" y="0px"
	 viewBox="0 0 100 100" enable-background="new 0 0 100 100" xml:space="preserve">
<g>
	<path d="M67.6,47.3c0-0.2,0-0.4,0-0.5v-4.3c0-2.8-2.2-5.1-5-5.3l-7.5-8.4c0.5-1,0.8-2.2,0.8-3.3c0-4.1-3.3-7.4-7.4-7.4
		c-4.1,0-7.4,3.3-7.4,7.4c0,1.2,0.3,2.3,0.8,3.3l-7.5,8.4c-2.8,0.2-5,2.5-5,5.3v4.3c0,0.2,0,0.4,0,0.5c-2,1.2-3.3,3.4-3.3,5.9
		c0,2.8,1.7,5.3,4.3,6.4c0.2,0.4,0.4,0.8,0.6,1.2C32.3,74.6,41.9,82,48.5,82c6.5,0,16-7.3,17.4-21c0.3-0.5,0.5-0.9,0.8-1.5
		c2.6-1.1,4.3-3.5,4.3-6.4C70.9,50.7,69.6,48.5,67.6,47.3z M48.5,20.5c2.7,0,4.9,2.2,4.9,4.9c0,1-0.3,1.9-0.8,2.7c0,0,0,0-0.1,0
		c-0.2-0.2-0.5-0.4-0.8-0.6c0,0-0.1-0.1-0.1-0.1c-0.3-0.2-0.6-0.3-0.9-0.5c0,0-0.1,0-0.1-0.1c-0.3-0.1-0.6-0.2-1-0.3
		c0,0-0.1,0-0.1,0c-0.3-0.1-0.7-0.1-1.1-0.1c-0.4,0-0.7,0-1.1,0.1c0,0-0.1,0-0.1,0c-0.3,0.1-0.6,0.2-1,0.3c0,0-0.1,0-0.1,0.1
		c-0.3,0.1-0.6,0.3-0.9,0.5c0,0-0.1,0.1-0.1,0.1c-0.3,0.2-0.5,0.4-0.8,0.6c0,0,0,0-0.1,0c-0.5-0.8-0.8-1.8-0.8-2.7
		C43.6,22.7,45.8,20.5,48.5,20.5z M44.8,29.3C44.8,29.3,44.8,29.3,44.8,29.3l0.1-0.1c0.9-1,2.2-1.6,3.6-1.6c1.4,0,2.7,0.6,3.6,1.6
		l0.1,0.1c0,0,0,0,0,0l8.3,9.4H36.5L44.8,29.3z M32,42.5c0-1.5,1.3-2.8,2.8-2.8h0.6h26.4h0.6c1.5,0,2.8,1.3,2.8,2.8v4.3
		c0,0.5-0.1,1-0.4,1.4c0,0,0,0,0,0c-0.2,0.4-0.6,0.8-1,1c0,0-0.1,0-0.1,0.1c-0.2,0.1-0.3,0.2-0.5,0.2c-0.1,0-0.1,0-0.2,0.1
		c-0.2,0.1-0.4,0.1-0.7,0.1h-0.2h-6.9h-2.2h-9h-2.2h-7.1h0c-0.2,0-0.5,0-0.7-0.1c0,0-0.1,0-0.1,0c-0.2-0.1-0.4-0.1-0.6-0.2
		c0,0,0,0,0,0c-0.4-0.2-0.8-0.6-1-1c0,0,0,0,0,0c-0.2-0.4-0.4-0.9-0.4-1.4V42.5z M40.8,53.9c-0.2-0.4-0.3-0.8-0.3-1.2
		c0-1,0.6-1.8,1.5-2.2h2c0.9,0.4,1.5,1.3,1.5,2.2c0,0.1,0,0.1,0,0.2c-0.5,0.2-1,0.4-1.5,0.6c-0.2,0-0.3,0-0.5,0c-0.2,0-0.5,0-0.7,0
		c0,0,0,0,0,0c0,0-0.1,0-0.1,0c0,0,0,0,0,0c-0.3,0-0.6,0.1-0.9,0.2c0,0,0,0,0,0C41.4,53.8,41.1,53.8,40.8,53.9
		C40.8,53.9,40.8,53.9,40.8,53.9z M45.5,50.5h6c-0.5,0.6-0.8,1.3-0.8,2.2c-0.7-0.1-1.5-0.2-2.2-0.2c-0.7,0-1.4,0.1-2.1,0.2
		C46.3,51.9,46,51.1,45.5,50.5z M51.7,52.8c0-1,0.6-1.8,1.5-2.2h2c0.9,0.4,1.5,1.3,1.5,2.2c0,0.4-0.1,0.8-0.3,1.2c0,0,0,0,0,0
		c-0.4-0.1-0.7-0.2-1.1-0.3c0,0,0,0,0,0c0,0,0,0,0,0c0,0,0,0,0,0c-0.2,0-0.4-0.1-0.6-0.1c0,0,0,0,0,0c0,0-0.1,0-0.1,0c0,0,0,0,0,0
		c-0.2,0-0.5,0-0.7,0c-0.2,0-0.4,0-0.6,0.1c0,0,0,0,0,0c-0.4-0.2-0.9-0.4-1.4-0.6C51.7,52.9,51.7,52.8,51.7,52.8z M55,54.6
		c0.2,0,0.4,0.1,0.6,0.1c0.2,0.1,0.4,0.1,0.6,0.2c0.5,0.2,1,0.4,1.5,0.6c0,0,0.1,0,0.1,0c1.9,0.8,3.9,1.7,6.3,0.5c0,0,0,0,0,0
		c0,0,0,0,0,0c0.3-0.1,0.6-0.3,0.9-0.5c0,0.1,0,0.2,0,0.2c0,0.1,0,0.2,0,0.2c0,0.1,0,0.2,0,0.2c0,0.1,0,0.2,0,0.3
		c0,0.1,0,0.2-0.1,0.2c0,0.1,0,0.2-0.1,0.4c0,0.1,0,0.2-0.1,0.3c-0.2,0.8-0.6,1.7-1.2,2.5c-0.2,0.3-0.4,0.5-0.6,0.8
		c-0.1,0.1-0.2,0.2-0.3,0.3c-0.2,0.1-0.3,0.3-0.5,0.4c-0.1,0.1-0.3,0.2-0.4,0.3c-0.2,0.1-0.3,0.2-0.5,0.3c-0.1,0.1-0.3,0.2-0.5,0.2
		c-0.2,0.1-0.4,0.2-0.5,0.3c-0.2,0.1-0.3,0.1-0.5,0.2c-0.2,0.1-0.4,0.1-0.6,0.2c-0.2,0.1-0.4,0.1-0.5,0.2c-0.2,0.1-0.5,0.1-0.7,0.2
		c-0.2,0-0.4,0.1-0.5,0.1c-0.3,0-0.6,0.1-0.9,0.1c-0.2,0-0.3,0-0.5,0.1c-0.5,0-0.9,0.1-1.4,0.1c-0.2,0-0.5,0-0.7,0
		c-0.1,0-0.1,0-0.2,0c-0.2,0-0.3,0-0.5-0.1c-0.1,0-0.2,0-0.2-0.1c-0.1,0-0.3-0.1-0.4-0.1c-0.1,0-0.2-0.1-0.2-0.1
		c-0.1-0.1-0.3-0.1-0.4-0.2c-0.1,0-0.1-0.1-0.2-0.1c-0.1-0.1-0.3-0.2-0.4-0.2c0,0-0.1-0.1-0.1-0.1c-0.2-0.1-0.3-0.2-0.5-0.4
		c0,0-0.1-0.1-0.1-0.1c-0.1-0.1-0.2-0.2-0.3-0.3c0,0,0,0,0.1,0c0.4-0.1,0.7-0.1,1-0.2c0,0,0.1,0,0.1,0c0.3-0.1,0.6-0.2,0.8-0.3
		c0.1,0,0.1,0,0.2-0.1c0.3-0.1,0.5-0.3,0.8-0.4c0.1,0,0.1-0.1,0.2-0.1c0.2-0.1,0.5-0.3,0.7-0.5c0,0,0.1-0.1,0.1-0.1
		c0.2-0.2,0.4-0.3,0.5-0.5c0,0,0,0,0.1-0.1c0.2-0.2,0.3-0.4,0.4-0.6c0,0,0.1-0.1,0.1-0.1c0.1-0.2,0.2-0.4,0.3-0.7c0,0,0-0.1,0-0.1
		c0.1-0.2,0.1-0.5,0.1-0.7c0-0.2,0-0.5-0.1-0.7c0,0,0-0.1,0-0.1c-0.2-0.7-0.6-1.4-1.1-1.9c0.1,0,0.1,0,0.2,0
		C54.8,54.6,54.9,54.6,55,54.6C55,54.6,55,54.6,55,54.6z M63.2,61.8c-1.7,12.5-10.3,17.7-14.8,17.7c-4.5,0-13.1-5.3-14.8-17.9
		c0.1,0.1,0.2,0.2,0.3,0.3c0.1,0.1,0.2,0.2,0.3,0.3c0.2,0.2,0.4,0.3,0.6,0.4c0.1,0.1,0.2,0.1,0.3,0.2c0.2,0.1,0.5,0.3,0.7,0.4
		c0.1,0,0.2,0.1,0.3,0.1c0.3,0.1,0.6,0.2,0.8,0.4c0.1,0,0.2,0.1,0.2,0.1c0.3,0.1,0.6,0.2,0.9,0.3c0.1,0,0.2,0,0.2,0.1
		c0.3,0.1,0.7,0.1,1,0.2c0.1,0,0.2,0,0.3,0.1c0.3,0.1,0.7,0.1,1.1,0.1c0.1,0,0.2,0,0.3,0c0.5,0,1,0.1,1.5,0.1c0.3,0,0.6,0,0.9,0
		c0.1,0,0.2,0,0.3,0c0.2,0,0.4-0.1,0.6-0.1c0.1,0,0.2-0.1,0.3-0.1c0.2,0,0.3-0.1,0.5-0.1c0.1,0,0.2-0.1,0.3-0.1
		c0.1-0.1,0.3-0.1,0.4-0.2c0.1-0.1,0.2-0.1,0.3-0.2c0.1-0.1,0.3-0.1,0.4-0.2c0.1-0.1,0.2-0.1,0.3-0.2c0.1-0.1,0.2-0.2,0.3-0.3
		c0.1-0.1,0.2-0.2,0.3-0.2c0.1-0.1,0.2-0.2,0.3-0.3c0.1-0.1,0.2-0.2,0.2-0.3c0.1-0.1,0.1-0.1,0.2-0.2c0,0,0.1,0,0.1,0
		c0.1,0,0.2,0,0.3,0c0.2,0,0.4,0,0.5,0c0,0,0,0,0.1,0c0,0.1,0.1,0.1,0.2,0.2c0.1,0.1,0.1,0.2,0.2,0.3c0.1,0.1,0.2,0.2,0.3,0.3
		c0.1,0.1,0.2,0.2,0.3,0.2c0.1,0.1,0.2,0.2,0.3,0.3c0.1,0.1,0.2,0.1,0.3,0.2c0.1,0.1,0.3,0.2,0.4,0.2c0.1,0.1,0.2,0.1,0.3,0.2
		c0.1,0.1,0.3,0.1,0.4,0.2c0.1,0,0.2,0.1,0.3,0.1c0.2,0.1,0.3,0.1,0.5,0.1c0.1,0,0.2,0.1,0.3,0.1c0.2,0,0.4,0.1,0.6,0.1
		c0.1,0,0.2,0,0.3,0c0.3,0,0.6,0.1,0.9,0.1c0.5,0,1,0,1.4-0.1c0.1,0,0.2,0,0.4,0c0.3,0,0.7-0.1,1-0.1c0.1,0,0.3,0,0.4-0.1
		c0.3-0.1,0.6-0.1,0.9-0.2c0.1,0,0.2-0.1,0.4-0.1c0.3-0.1,0.6-0.2,0.8-0.2c0.1,0,0.2-0.1,0.3-0.1c0.3-0.1,0.5-0.2,0.7-0.3
		c0.1-0.1,0.2-0.1,0.3-0.2c0.2-0.1,0.4-0.2,0.7-0.4c0.1-0.1,0.2-0.1,0.3-0.2c0.2-0.1,0.4-0.3,0.6-0.4c0.1-0.1,0.2-0.2,0.3-0.3
		C63.1,61.9,63.1,61.9,63.2,61.8z M39.3,55.6c0.1,0,0.1-0.1,0.2-0.1c0.5-0.2,0.9-0.4,1.4-0.6c0.2-0.1,0.3-0.1,0.5-0.2
		c0.3-0.1,0.7-0.2,1-0.2c-0.6,0.6-0.9,1.2-1.1,1.9c0,0,0,0.1,0,0.1c0,0.2-0.1,0.4-0.1,0.7c0,0.3,0,0.5,0.1,0.8c0,0,0,0,0,0.1
		c0.5,1.9,2.7,3.4,5.5,3.8c0,0,0,0,0,0c-0.1,0.1-0.2,0.2-0.2,0.2c0,0-0.1,0.1-0.1,0.1c-0.2,0.1-0.3,0.3-0.5,0.4c0,0-0.1,0-0.1,0.1
		c-0.1,0.1-0.3,0.2-0.4,0.3c-0.1,0-0.1,0.1-0.2,0.1c-0.1,0.1-0.3,0.1-0.4,0.2c-0.1,0-0.2,0.1-0.2,0.1c-0.1,0-0.3,0.1-0.4,0.1
		c-0.1,0-0.2,0-0.2,0.1c-0.1,0-0.3,0.1-0.5,0.1c-0.1,0-0.1,0-0.2,0c-0.2,0-0.5,0-0.7,0c-0.5,0-1,0-1.5-0.1c-0.2,0-0.3,0-0.5-0.1
		c-0.3,0-0.6-0.1-0.9-0.1c-0.2,0-0.4-0.1-0.6-0.1c-0.2,0-0.5-0.1-0.7-0.2c-0.2,0-0.4-0.1-0.5-0.2c-0.2-0.1-0.4-0.1-0.6-0.2
		c-0.2-0.1-0.3-0.1-0.5-0.2c-0.2-0.1-0.4-0.2-0.6-0.3c-0.1-0.1-0.3-0.2-0.4-0.2c-0.2-0.1-0.4-0.3-0.6-0.4c-0.1-0.1-0.2-0.1-0.3-0.2
		c-0.6-0.5-1-1-1.4-1.6c-0.5-0.7-0.8-1.5-1-2.2c0-0.2-0.1-0.3-0.1-0.5c0,0,0-0.1,0-0.1c-0.1-0.6-0.2-1.1-0.2-1.5
		C34.9,57.5,37.1,56.5,39.3,55.6z M54.6,57.9C54.6,57.9,54.6,57.9,54.6,57.9c-0.1,0.3-0.2,0.5-0.3,0.7c0,0,0,0,0,0
		c-0.1,0.2-0.3,0.4-0.5,0.6c0,0,0,0,0,0c-1,0.9-2.6,1.6-4.5,1.8l0,0c-0.5,0-1,0-1.5,0c0,0-0.1,0-0.1,0c-2.7-0.2-4.9-1.5-5.4-3
		c0,0,0,0,0,0c0-0.1-0.1-0.2-0.1-0.3c0-0.1,0-0.2,0-0.4c0-1,0.7-2,2-2.8c0,0,0,0,0,0c2-1.1,5.2-1.3,7.5-0.4c0,0,0.1,0,0.1,0
		c0.3,0.1,0.6,0.3,0.9,0.4c0,0,0,0,0,0c1.3,0.7,2,1.7,2,2.7C54.7,57.5,54.7,57.7,54.6,57.9z M39.9,54.3c-0.3,0.1-0.7,0.3-1,0.4
		c-0.6,0.3-1.2,0.5-1.7,0.7c-0.2,0.1-0.4,0.1-0.7,0.2c-0.1,0-0.1,0-0.2,0c0,0,0,0,0,0c-0.8,0.2-1.7,0.1-2.6-0.3
		c0-0.2,0.1-0.5,0.1-0.7c0-0.2,0.1-0.3,0.1-0.5c0.1-0.4,0.2-0.8,0.3-1.1c0-0.1,0-0.1,0-0.2c0.1-0.4,0.3-0.8,0.5-1.3
		c0.1-0.1,0.1-0.2,0.2-0.4c0.1-0.2,0.2-0.5,0.3-0.7h5.2c-0.5,0.6-0.8,1.4-0.8,2.2C39.5,53.3,39.6,53.8,39.9,54.3z M63.3,55.4
		c-0.2,0.1-0.4,0.1-0.6,0.2c0,0-0.1,0-0.1,0c-0.2,0-0.3,0.1-0.5,0.1c0,0-0.1,0-0.1,0c-0.2,0-0.4,0-0.6,0c0,0-0.1,0-0.1,0
		c-0.2,0-0.4,0-0.5-0.1c0,0,0,0,0,0c-0.2,0-0.4-0.1-0.6-0.2c0,0,0,0,0,0c-0.6-0.2-1.2-0.5-1.9-0.7c-0.1,0-0.2-0.1-0.3-0.1
		c-0.2-0.1-0.3-0.1-0.5-0.2c-0.1,0-0.1-0.1-0.2-0.1c0.2-0.5,0.4-1,0.4-1.5c0-0.8-0.3-1.6-0.8-2.2h5.1c0.1,0.2,0.2,0.5,0.3,0.7
		c0.1,0.1,0.1,0.2,0.2,0.4c0.2,0.4,0.3,0.8,0.5,1.3c0,0,0,0.1,0,0.1c0.1,0.4,0.2,0.8,0.3,1.2c0,0.1,0.1,0.3,0.1,0.4
		C63.3,54.9,63.3,55.1,63.3,55.4C63.3,55.4,63.3,55.4,63.3,55.4z M28.7,53.2c0-1.9,1.2-3.6,3-4.2c0.6,0.7,1.4,1.3,2.3,1.5
		c-0.1,0.2-0.1,0.3-0.2,0.5c-0.1,0.1-0.1,0.2-0.2,0.4c-0.3,0.8-0.6,1.7-0.8,2.6c0,0.1-0.1,0.3-0.1,0.4c0,0.2-0.1,0.3-0.1,0.5
		c0,0,0,0,0,0c-0.3-0.2-0.5-0.4-0.8-0.6c-0.1-0.1-0.2-0.1-0.2-0.1c-0.1,0-0.2,0-0.3,0c-0.1,0-0.1,0.1-0.2,0.1c0,0,0,0,0,0
		c0,0,0,0.1,0,0.1c0,0,0,0.1,0,0.1c0,0.1-0.1,1.2,0.2,2.6C29.7,56.5,28.7,54.9,28.7,53.2z M65.8,57.2c0.3-1.4,0.2-2.5,0.2-2.6
		c0-0.1,0-0.1-0.1-0.2c0,0,0-0.1,0-0.1c0,0-0.1,0-0.1-0.1c0,0-0.1-0.1-0.1-0.1c-0.1,0-0.1,0-0.2,0c0,0,0,0,0,0c0,0,0,0-0.1,0
		c-0.1,0-0.2,0-0.2,0.1c-0.3,0.3-0.6,0.5-0.9,0.7c0-0.2-0.1-0.3-0.1-0.5c0-0.1-0.1-0.3-0.1-0.4c-0.1-0.4-0.2-0.9-0.3-1.3
		c0,0,0-0.1,0-0.1c-0.1-0.4-0.3-0.8-0.4-1.2c-0.1-0.1-0.1-0.3-0.2-0.4c-0.1-0.2-0.1-0.3-0.2-0.5c0,0,0,0,0.1,0
		c0.2,0,0.3-0.1,0.5-0.1c0.1,0,0.1,0,0.2-0.1c0.2-0.1,0.4-0.2,0.6-0.3c0,0,0,0,0,0c0.4-0.3,0.8-0.6,1.1-1c1.8,0.6,3,2.3,3,4.2
		C68.4,54.9,67.3,56.4,65.8,57.2z"/>
	<path d="M52.5,65.6c-0.3,0-0.5,0.2-0.5,0.5c0,1.7-1.6,3.1-3.5,3.1c-1.9,0-3.5-1.4-3.5-3.1c0-0.3-0.2-0.5-0.5-0.5S44,65.8,44,66.1
		c0,2.3,2,4.1,4.5,4.1s4.5-1.8,4.5-4.1C53,65.8,52.8,65.6,52.5,65.6z"/>
</g>
</svg>
