<?xml version="1.0" encoding="utf-8"?>
<!-- Generator: Adobe Illustrator 19.1.0, SVG Export Plug-In . SVG Version: 6.00 Build 0)  -->
<svg version="1.1" id="Layer_1" xmlns="http://www.w3.org/2000/svg" xmlns:xlink="http://www.w3.org/1999/xlink" x="0px" y="0px"
	 viewBox="0 0 100 100" enable-background="new 0 0 100 100" xml:space="preserve">
<path d="M71.7,37.3h-5.3c0-2.8-0.4-8.7-6.6-8.7c-3,0-7.2,1.6-9.7,4.3c-0.1,0-0.1,0-0.2,0c-2.5-2.7-6.7-4.3-9.7-4.3
	c-6.2,0-6.5,5.9-6.6,8.7h-5.3c-1.1,0-2,0.9-2,2v10.6c0,0.9,0.7,1.7,1.5,1.9v17.3c0,1.1,0.9,2,2,2h40.4c1.1,0,2-0.9,2-2V51.9
	c0.9-0.2,1.5-1,1.5-1.9V39.3C73.7,38.2,72.8,37.3,71.7,37.3z M45.7,68.7V50.4h8.5v18.3H45.7z M36.1,37.8c0-4.1,0.7-6.7,4.1-6.7
	c2.8,0,6.3,1.6,8.1,3.7c-0.3,0.1-0.6,0.3-0.8,0.5c-0.1,0.1-0.2,0.1-0.3,0.2c-0.1,0.1-0.2,0.2-0.2,0.2c-0.1,0.1-0.2,0.2-0.3,0.3
	c-0.1,0.1-0.1,0.1-0.2,0.2c-0.1,0.2-0.2,0.4-0.3,0.6c0,0.1-0.1,0.1-0.1,0.2c-0.1,0.2-0.1,0.3-0.2,0.5c0,0.1,0,0.2-0.1,0.2
	c0,0.2-0.1,0.5-0.1,0.8c0,0,0,0.1,0,0.1h-1.4h-8.2C36.1,38.4,36.1,38.1,36.1,37.8z M49.1,35.5l0.2-0.1c0.2,0,0.4-0.1,0.6-0.1
	c0.2,0,0.4,0,0.6,0.1l0.2,0.1c0.5,0.1,1,0.4,1.4,0.7c0,0,0,0,0,0c0.1,0.1,0.2,0.2,0.2,0.3c0,0.1,0.1,0.1,0.1,0.2
	c0.1,0.1,0.1,0.2,0.2,0.3c0,0.1,0.1,0.2,0.1,0.3c0,0.1,0.1,0.2,0.1,0.3c0,0.1,0.1,0.2,0.1,0.3c0,0.1,0,0.1,0.1,0.2
	c0,0.2,0.1,0.4,0.1,0.6c0,0,0,0.1,0,0.1h-6.5c0,0,0-0.1,0-0.1c0-0.2,0-0.4,0.1-0.6c0-0.1,0-0.1,0.1-0.2c0-0.1,0.1-0.2,0.1-0.3
	c0-0.1,0.1-0.2,0.1-0.2c0-0.1,0.1-0.2,0.1-0.3c0.1-0.1,0.1-0.2,0.2-0.3c0-0.1,0.1-0.1,0.1-0.2c0.1-0.1,0.2-0.2,0.2-0.3
	c0,0,0,0,0.1,0C48.2,35.9,48.6,35.7,49.1,35.5z M63.8,38.8h-8.2h-1.4c0,0,0-0.1,0-0.1c0-0.3,0-0.5-0.1-0.8c0-0.1,0-0.2-0.1-0.2
	c0-0.2-0.1-0.3-0.2-0.5c0-0.1-0.1-0.1-0.1-0.2c-0.1-0.2-0.2-0.4-0.3-0.6c-0.1-0.1-0.1-0.1-0.2-0.2c-0.1-0.1-0.2-0.2-0.3-0.3
	c-0.1-0.1-0.2-0.2-0.2-0.2c-0.1-0.1-0.2-0.1-0.3-0.2c-0.3-0.2-0.5-0.4-0.8-0.5c1.8-2.1,5.2-3.7,8.1-3.7c3.4,0,4.1,2.6,4.1,6.7
	C63.8,38.1,63.8,38.4,63.8,38.8z M35.3,39.8h9v9.5H29.3v0.1h-0.5v-9.6H35.3z M54.6,49.3h-9.3v-9.5h0.5h1H53h1h0.5V49.3z M30.3,50.4
	h14.1h0.4v18.3H30.3V50.4z M55.2,50.4h0.4h14.1v18.3H55.2V50.4z M55.6,49.3v-9.5h9h6.6v9.6h-0.5v-0.1H55.6z"/>
</svg>
