<?xml version="1.0" encoding="utf-8"?>
<!-- Generator: Adobe Illustrator 19.1.0, SVG Export Plug-In . SVG Version: 6.00 Build 0)  -->
<svg version="1.1" id="Layer_1" xmlns="http://www.w3.org/2000/svg" xmlns:xlink="http://www.w3.org/1999/xlink" x="0px" y="0px"
	 viewBox="0 0 100 100" enable-background="new 0 0 100 100" xml:space="preserve">
<path d="M77.7,36.6c-0.3-0.7-1-1.2-1.8-1.2h-1v-1.5c0-1.1-0.9-2-2-2h-1.5v-1.5c0-1.1-0.9-2-2-2h-1.5v-1.5c0-1.1-0.9-2-2-2h-1.5v-1
	c0-0.8-0.5-1.5-1.2-1.8c-0.7-0.3-1.6-0.1-2.2,0.4l-1.9,1.9c-2.3,2.3-3.2,5.7-2.4,8.8l0.9,3.3l-3.8-1c-2.8-0.8-5.8,0.1-7.9,2.1
	l-8.2,8.2c-2.1,2.1-2.9,5.1-2.1,7.9l1,3.8l-3.3-0.9c-3.1-0.8-6.5,0.1-8.8,2.4L22.6,61c-0.6,0.6-0.7,1.4-0.4,2.2
	c0.3,0.7,1,1.2,1.8,1.2h1v1.5c0,1.1,0.9,2,2,2h1.5v1.5c0,1.1,0.9,2,2,2H32v1.5c0,1.1,0.9,2,2,2h1.5v1c0,0.8,0.5,1.5,1.2,1.8
	c0.2,0.1,0.5,0.2,0.8,0.2c0.5,0,1-0.2,1.4-0.6l1.9-1.9c2.3-2.3,3.2-5.7,2.4-8.8l-0.9-3.3l3.8,1c0.7,0.2,1.4,0.3,2.1,0.3
	c2.1,0,4.2-0.8,5.8-2.4l8.2-8.2c2.1-2.1,2.9-5.1,2.1-7.9l-1-3.8l3.3,0.9c0.8,0.2,1.6,0.3,2.4,0.3c2.4,0,4.7-0.9,6.5-2.7l1.9-1.9
	C77.9,38.2,78,37.4,77.7,36.6z M37.4,72.3h-3v-3c0-0.3-0.2-0.5-0.5-0.5h-3v-3c0-0.3-0.2-0.5-0.5-0.5h-3v-3c0-0.3-0.2-0.5-0.5-0.5
	h-1.8l1.1-1.1c1.7-1.7,4.1-2.3,6.4-1.7l6.3,1.7l1.7,6.3c0.6,2.3,0,4.7-1.7,6.4l-1.1,1.1v-1.8C37.9,72.5,37.7,72.3,37.4,72.3z
	 M39.9,60L38,53.1c-0.5-2,0-4.1,1.5-5.5l0.6-0.6l12.7,12.7l-0.6,0.6c-1.4,1.4-3.5,2-5.5,1.5L39.9,60z M53.5,59L40.8,46.3l5.6-5.6
	l12.7,12.7l-2.8,2.8L53.5,59z M59.8,52.8L47.1,40l0.6-0.6c1.4-1.4,3.5-2,5.5-1.5l6.9,1.8l1.8,6.9c0.5,2,0,4.1-1.5,5.5L59.8,52.8z
	 M60.8,39l-1.7-6.3c-0.6-2.3,0-4.7,1.7-6.4l1.1-1.1v1.8c0,0.3,0.2,0.5,0.5,0.5h3v3c0,0.3,0.2,0.5,0.5,0.5h3v3c0,0.3,0.2,0.5,0.5,0.5
	h3v3c0,0.3,0.2,0.5,0.5,0.5h1.8L73.6,39c-1.7,1.7-4.1,2.3-6.4,1.7L60.8,39z"/>
</svg>
