<?xml version="1.0" encoding="utf-8"?>
<!-- Generator: Adobe Illustrator 19.1.0, SVG Export Plug-In . SVG Version: 6.00 Build 0)  -->
<svg version="1.1" id="Layer_1" xmlns="http://www.w3.org/2000/svg" xmlns:xlink="http://www.w3.org/1999/xlink" x="0px" y="0px"
	 viewBox="0 0 100 100" enable-background="new 0 0 100 100" xml:space="preserve">
<g>
	<g>
		<g>
			<circle fill="#FFFFFF" cx="55.7" cy="44.3" r="15.8"/>
			<path fill="#00AEEF" d="M55.7,62.1c-4.8,0-9.2-1.9-12.6-5.2c-6.9-6.9-6.9-18.2,0-25.2c3.4-3.4,7.8-5.2,12.6-5.2s9.2,1.9,12.6,5.2
				l0,0c6.9,6.9,6.9,18.2,0,25.2C64.9,60.2,60.5,62.1,55.7,62.1z M55.7,30.5c-3.7,0-7.1,1.4-9.8,4c-5.4,5.4-5.4,14.1,0,19.5
				c2.6,2.6,6.1,4,9.8,4s7.1-1.4,9.8-4c5.4-5.4,5.4-14.1,0-19.5l0,0C62.9,31.9,59.4,30.5,55.7,30.5z"/>
		</g>
		<g>
			<path fill="#FFFFFF" d="M38.3,55.5c-0.1,0.1-0.2,0.2-0.3,0.3v0.1h1.5v1.5l1.1,0L28.5,69.6l1.9,1.9l12.2-12.2v1.2l1.5,0v1.5h0
				c0.1-0.1,0.2-0.2,0.3-0.3c1.7-1.7,1.7-4.5,0-6.3C42.8,53.7,40,53.7,38.3,55.5z"/>
			<path fill="#00AEEF" d="M30.4,73.5c-0.5,0-1-0.2-1.4-0.6L27.1,71c-0.8-0.8-0.8-2,0-2.8l10.3-10.3c-0.8-0.2-1.5-1-1.5-1.9
				c0-0.5,0.2-1,0.5-1.4c0.1-0.2,0.3-0.3,0.4-0.4c0,0,0,0,0,0c2.5-2.5,6.6-2.5,9.1,0c2.5,2.5,2.5,6.6,0,9.1
				c-0.2,0.2-0.3,0.3-0.5,0.4c-0.4,0.3-0.8,0.5-1.3,0.5c-0.9,0-1.7-0.6-2-1.5L31.9,72.9C31.5,73.3,31,73.5,30.4,73.5z M42.7,57.3
				c0.2,0,0.5,0.1,0.7,0.2c0.1,0,0.1,0.1,0.2,0.1c-0.1-0.2-0.3-0.5-0.5-0.7c-0.2-0.2-0.5-0.4-0.8-0.5c0.1,0.1,0.1,0.2,0.1,0.3
				C42.6,56.9,42.6,57.1,42.7,57.3z"/>
		</g>
	</g>
	<circle fill="#F173AC" cx="55.7" cy="44.3" r="15.8"/>
	<polygon fill="#FFFFFF" points="42.6,59 41.1,59 41.1,57.4 40.7,57.4 28.5,69.6 30.4,71.5 42.6,59.3 	"/>
	<path fill="#F173AC" d="M44.5,61.7c-0.1,0.1-0.2,0.2-0.3,0.3h0v-1.5l-1.5,0V59h-1.5v-1.5l-1.5,0v-1.5H38v-0.1
		c0.1-0.1,0.2-0.2,0.3-0.3c1.7-1.7,4.5-1.7,6.3,0C46.3,57.2,46.3,60,44.5,61.7z"/>
	<circle fill="#FAD5E5" cx="55.7" cy="44.3" r="10.4"/>
	<circle fill="#F173AC" cx="55.7" cy="44.3" r="5.5"/>
</g>
</svg>
