<?xml version="1.0" encoding="utf-8"?>
<!-- Generator: Adobe Illustrator 19.1.0, SVG Export Plug-In . SVG Version: 6.00 Build 0)  -->
<svg version="1.1" id="Layer_1" xmlns="http://www.w3.org/2000/svg" xmlns:xlink="http://www.w3.org/1999/xlink" x="0px" y="0px"
	 viewBox="0 0 100 100" enable-background="new 0 0 100 100" xml:space="preserve">
<g>
	<path d="M65.3,43.2c2.8-0.7,5.4-2.3,7.3-4.6c1.8-2.2,2.9-5.1,3.1-8.2l0.2-3.5c0.1-1.9-1.3-3.6-3.3-3.7c-1.9-0.1-3.6,1.4-3.7,3.3
		l-0.2,3.5c-0.1,1.7-0.6,3.1-1.5,4.2c0,0-0.1,0.1-0.1,0.1c0-0.2,0-0.4,0-0.6c0-1.9-1.6-3.5-3.5-3.5c-1.9,0-3.5,1.6-3.5,3.5
		c0,2.6-1.9,3.6-2.1,3.7c0,0-0.1,0-0.1,0l-0.6,0.1c-0.1,0-0.1-0.1-0.2-0.1c0,0,0,0-0.1,0c-1-0.6-2.7-2-3-3c-1-2.7-3-3.4-4.3-3.1
		c-1,0.2-1.8,0.8-2.3,1.6c-0.5,0.2-1,0.5-1.4,1c-0.4,0.4-0.7,1.1-0.8,2.1c-0.3,0.5-0.6,1-0.8,1.6l-0.2,0c0,0-0.1,0-0.1,0
		c-0.2-0.1-2.1-1.1-2.1-3.7c0-1.9-1.6-3.5-3.5-3.5s-3.5,1.6-3.5,3.5c0,0.2,0,0.4,0,0.6c0,0-0.1-0.1-0.1-0.1
		c-0.9-1.1-1.4-2.6-1.5-4.2l-0.2-3.5c-0.1-1.9-1.8-3.4-3.7-3.3c-1.9,0.1-3.4,1.8-3.3,3.7l0.2,3.5c0.2,3.1,1.3,6,3.1,8.2
		c1.9,2.3,4.4,4,7.3,4.6c0.4,0.1,0.7,0.2,1.1,0.2l1.6,0.3l-10.2,5.8c-0.6,0.3-1,0.9-1,1.6c-0.1,0.7,0.2,1.3,0.7,1.7
		c0.2,0.2,4.1,3.3,8.9,2.9l-0.1,0.5c-0.8,4.6,0.5,9.3,3.5,12.6c1,1.1,2.1,1.9,3.3,2.6c0,0,0,0,0,0c0,3.5,2.9,6.4,6.4,6.4
		c3.5,0,6.4-2.9,6.4-6.4c0,0,0,0,0,0c1.2-0.7,2.3-1.6,3.3-2.6c3-3.3,4.3-8,3.5-12.6l-0.1-0.5c4.7,0.4,8.7-2.8,8.9-2.9
		c0.5-0.4,0.8-1.1,0.7-1.7s-0.4-1.2-1-1.6l-10.2-5.8l1.6-0.3C64.5,43.4,64.9,43.3,65.3,43.2z M41.1,46.2c0,0,0,0.1,0,0.1l-0.7,3.9
		c-2.3,0.1-4-0.9-4.8-1.4l5.6-3.2C41.1,45.8,41.1,46,41.1,46.2C41.1,46.2,41.1,46.2,41.1,46.2z M34.6,49.3c0.6,0.5,2.6,1.9,5.5,1.9
		c0,0,0,0,0,0l-0.2,1.4c-3.6,1.6-7.3-0.4-8.8-1.3L34.6,49.3z M47.1,71.4c0-0.2,0-0.3,0-0.5c0.3,0.1,0.6,0.2,0.9,0.3c0,0,0.1,0,0.1,0
		c0.3,0.1,0.5,0.1,0.8,0.2c0.1,0,0.2,0,0.4,0.1c0.2,0,0.4,0.1,0.7,0.1c0.2,0,0.5,0,0.7,0c0.1,0,0.2,0,0.4,0c0.1,0,0.2,0,0.4,0
		c0.2,0,0.5,0,0.7,0c0.2,0,0.4-0.1,0.6-0.1c0.1,0,0.3,0,0.4-0.1c0.3,0,0.5-0.1,0.8-0.2c0.1,0,0.1,0,0.2,0c0.3-0.1,0.6-0.2,0.9-0.3
		c0,0.2,0,0.3,0,0.5c0,2-1.5,3.6-3.4,3.9v-0.9c0.4-0.2,0.7-0.6,0.7-1c0-0.6-0.5-1.2-1.2-1.2s-1.2,0.5-1.2,1.2c0,0.5,0.3,0.9,0.7,1
		v0.9C48.6,75,47.1,73.4,47.1,71.4z M61.8,51.2C61.8,51.2,61.9,51.2,61.8,51.2c3,0,5-1.4,5.6-1.9l3.4,2c-1.4,0.9-5.1,2.9-8.8,1.3
		L61.8,51.2z M60.8,45.6l5.6,3.2c-0.8,0.5-2.5,1.5-4.8,1.4L61,46.3c0,0,0-0.1,0-0.1c0,0,0,0,0,0C60.9,46,60.9,45.8,60.8,45.6z
		 M59.6,44.7c0.1,0.3,0.1,0.6,0.2,0.8c0,0.3,0.1,0.6,0.1,0.9c0,0.1,0,0.1,0.1,0.2l0.3,1.7l0.8,4.6c0,0,0,0,0,0l0.6,3.6
		c0.7,3.9-0.4,7.8-2.9,10.5c-1.1,1.2-2.4,2.1-3.8,2.7c0,0,0,0,0,0c-2.6,1.1-5.5,1.1-8.1,0c0,0,0,0,0,0c-1.4-0.6-2.7-1.5-3.8-2.7
		c-2.5-2.7-3.6-6.6-2.9-10.5l0.6-3.6c0,0,0,0,0,0l1.1-6.4c0-0.1,0.1-0.1,0.1-0.2c0-0.3,0.1-0.6,0.1-0.9c0.1-0.3,0.1-0.5,0.2-0.8
		c0,0,0,0,0,0c0.6-2.1,1.9-3.9,3.8-5.1c0.4,0.7,1.3,1.5,2.9,1.5c0.1,0,0.3,0,0.4,0c0.3,0,0.5-0.3,0.5-0.5c0-0.3-0.3-0.5-0.5-0.5
		c-2.1,0.2-2.5-1.1-2.5-1.3c0,0,0,0,0,0c0,0,0,0,0,0c-0.3-0.8,0.7-1.8,0.7-1.8c0.1-0.1,0.2-0.3,0.1-0.5c-0.1-0.5,0-0.8,0.2-1.1
		c0.3-0.4,1-0.4,1-0.4c0.3,0,0.5-0.2,0.5-0.5c0-0.4,0.3-0.8,0.6-0.8c0.4-0.1,1.1,0.3,1.6,1.5c0.8,2.1,3.6,4,4,4.3c0,0,0,0,0.1,0
		C57.6,40.6,59,42.5,59.6,44.7z M38.2,41.4c-0.3-0.1-0.6-0.1-0.9-0.2c-2.4-0.6-4.6-2-6.2-4c-1.6-1.9-2.5-4.4-2.7-7.1l-0.2-3.5
		c-0.1-0.8,0.6-1.5,1.4-1.6c0.8,0,1.5,0.6,1.6,1.4l0.2,3.5c0.1,2.1,0.8,4,2,5.4c1.2,1.5,2.8,2.5,4.6,3c0.1,0,0.2,0,0.3,0.1
		c-0.7-1.2-1.3-2.8-1.3-4.8c0-0.8,0.7-1.5,1.5-1.5s1.5,0.7,1.5,1.5c0,4,3.1,5.5,3.3,5.5c0.1,0,0.2,0.1,0.2,0.1l1.2,0.2
		c-0.9,0.8-1.7,1.7-2.2,2.7L38.2,41.4z M59.6,42.1c-0.6-1-1.3-1.9-2.2-2.7l1.2-0.2c0.1-0.1,0.2-0.1,0.2-0.1c0.1-0.1,3.3-1.6,3.3-5.5
		c0-0.8,0.7-1.5,1.5-1.5c0.8,0,1.5,0.7,1.5,1.5c0,2-0.6,3.6-1.3,4.8c0.1,0,0.2,0,0.3-0.1c1.8-0.4,3.4-1.5,4.6-3
		c1.2-1.4,1.8-3.3,2-5.4l0.2-3.5c0.1-0.8,0.8-1.4,1.6-1.4c0.8,0.1,1.5,0.8,1.4,1.6l-0.2,3.5c-0.2,2.7-1.1,5.2-2.7,7.1
		c-1.6,2-3.8,3.4-6.2,4c-0.3,0.1-0.6,0.1-0.9,0.2L59.6,42.1z"/>
	<path d="M58.3,58.1c0-3.8-3.9-5.1-7.3-5.1s-7.3,1.3-7.3,5.1c0,3.6,3.5,6.2,6.8,6.5v0.7c0,1.3-1.1,2.4-2.4,2.4
		c-1.3,0-2.4-1.1-2.4-2.4c0-0.3-0.2-0.5-0.5-0.5s-0.5,0.2-0.5,0.5c0,1.9,1.5,3.4,3.4,3.4c1.2,0,2.3-0.7,2.9-1.6
		c0.6,1,1.6,1.6,2.9,1.6c1.9,0,3.4-1.5,3.4-3.4c0-0.3-0.2-0.5-0.5-0.5s-0.5,0.2-0.5,0.5c0,1.3-1.1,2.4-2.4,2.4s-2.4-1.1-2.4-2.4
		v-0.7C54.8,64.4,58.3,61.7,58.3,58.1z M44.7,58.1c0-3,3.3-4.1,6.3-4.1s6.3,1.1,6.3,4.1c0,3.1-3.4,5.5-6.3,5.5S44.7,61.2,44.7,58.1z
		"/>
	<path d="M46.1,51.6c1.2,0,2.2-1,2.2-2.2c0-1.2-1-2.2-2.2-2.2s-2.2,1-2.2,2.2C44,50.6,44.9,51.6,46.1,51.6z M46.1,48.3
		c0.6,0,1.2,0.5,1.2,1.2s-0.5,1.2-1.2,1.2S45,50.1,45,49.4S45.5,48.3,46.1,48.3z"/>
	<path d="M53.7,49.4c0,1.2,1,2.2,2.2,2.2s2.2-1,2.2-2.2c0-1.2-1-2.2-2.2-2.2S53.7,48.2,53.7,49.4z M57,49.4c0,0.6-0.5,1.2-1.2,1.2
		s-1.2-0.5-1.2-1.2s0.5-1.2,1.2-1.2S57,48.8,57,49.4z"/>
</g>
</svg>
