<?xml version="1.0" encoding="utf-8"?>
<!-- Generator: Adobe Illustrator 19.1.0, SVG Export Plug-In . SVG Version: 6.00 Build 0)  -->
<svg version="1.1" id="Layer_1" xmlns="http://www.w3.org/2000/svg" xmlns:xlink="http://www.w3.org/1999/xlink" x="0px" y="0px"
	 viewBox="0 0 100 100" enable-background="new 0 0 100 100" xml:space="preserve">
<g>
	<path d="M73.6,44.5L73.6,44.5c-0.2-0.5-0.3-0.9-0.5-1.4c-0.4-0.9-0.8-1.7-1.2-2.5c-0.9-1.6-1.9-3.1-3.1-4.4c0.2-0.9,0.3-2,0.3-3
		c0-6.7-3.4-10.8-8.8-10.8c-3.6,0-7.4,1.7-10,4.4c-0.2,0-0.4,0-0.6,0c-2.5-2.6-6.4-4.4-10-4.4c-5.4,0-8.8,4.1-8.8,10.8
		c0,1.1,0.1,2.1,0.3,3c-1.2,1.4-2.2,2.9-3.1,4.4c-0.4,0.8-0.8,1.7-1.2,2.6c-0.2,0.4-0.3,0.8-0.5,1.3c-0.2,0.4-0.3,0.9-0.4,1.2
		l-0.1,0.3v0.1c-0.6,2.1-0.9,4.3-0.9,6.5c0,13.8,11.2,25,25,25s25-11.2,25-25C75,49.9,74.5,47.1,73.6,44.5z M50,75.1
		c-12.4,0-22.5-10.1-22.5-22.5c0-1.9,0.2-3.7,0.7-5.4l11.6,7c0.8,4.9,5,8.7,10.2,8.7s9.4-3.8,10.2-8.7l11.6-7
		c0.4,1.8,0.7,3.6,0.7,5.4C72.5,65,62.4,75.1,50,75.1z M49,29.3l0.2,0c0.3,0,0.5-0.1,0.8-0.1s0.6,0,0.8,0.1l0.2,0
		c0.6,0.1,1.1,0.3,1.6,0.7c0.1,0.1,0.2,0.1,0.2,0.2c0.1,0.1,0.1,0.2,0.2,0.2c0.1,0.1,0.2,0.2,0.2,0.3c0.1,0.1,0.1,0.2,0.1,0.2
		c0.1,0.1,0.1,0.3,0.2,0.4c0,0.1,0.1,0.2,0.1,0.2c0.1,0.2,0.1,0.3,0.1,0.5c0,0.1,0,0.2,0,0.2c0,0.3,0.1,0.5,0.1,0.8s0,0.6-0.1,0.8
		c0,0.1,0,0.2,0,0.2c0,0.2-0.1,0.3-0.1,0.5c0,0.1-0.1,0.2-0.1,0.2c-0.1,0.1-0.1,0.3-0.2,0.4c0,0.1-0.1,0.2-0.1,0.2
		c-0.1,0.1-0.1,0.2-0.2,0.3c-0.1,0.1-0.1,0.2-0.2,0.2c-0.1,0.1-0.1,0.1-0.2,0.2c-0.4,0.3-0.9,0.6-1.6,0.7c-0.4,0.1-0.7,0.1-1,0.1
		c0,0,0,0,0,0s0,0,0,0c-0.3,0-0.7,0-1-0.1c-0.6-0.1-1.1-0.3-1.6-0.7c-0.1-0.1-0.2-0.1-0.2-0.2c-0.1-0.1-0.1-0.2-0.2-0.2
		c-0.1-0.1-0.2-0.2-0.2-0.3c-0.1-0.1-0.1-0.2-0.1-0.2c-0.1-0.1-0.1-0.3-0.2-0.4c0-0.1-0.1-0.2-0.1-0.2c-0.1-0.2-0.1-0.3-0.1-0.5
		c0-0.1,0-0.2,0-0.2c0-0.3-0.1-0.5-0.1-0.8s0-0.6,0.1-0.8c0-0.1,0-0.2,0-0.2c0-0.2,0.1-0.4,0.1-0.5c0-0.1,0.1-0.2,0.1-0.2
		c0.1-0.1,0.1-0.3,0.2-0.4c0-0.1,0.1-0.2,0.1-0.2c0.1-0.1,0.1-0.2,0.2-0.3c0.1-0.1,0.1-0.2,0.2-0.2c0.1-0.1,0.2-0.1,0.2-0.2
		C47.8,29.7,48.3,29.5,49,29.3z M60.3,52.6c0-0.3,0-0.7-0.1-1c-0.1-1-0.4-2.1-0.8-3L70,42.3c0,0.1,0.1,0.2,0.1,0.3
		c0.2,0.4,0.3,0.7,0.5,1.1c0.1,0.3,0.2,0.5,0.3,0.8c0.2,0.4,0.3,0.9,0.5,1.3c0.1,0.2,0.1,0.3,0.2,0.5l-11.2,6.8
		C60.3,52.8,60.3,52.7,60.3,52.6z M39.7,52.6c0,0.1,0,0.2,0,0.3l-11.2-6.8c0-0.2,0.1-0.3,0.2-0.5c0.1-0.4,0.3-0.9,0.5-1.3
		c0.1-0.3,0.2-0.5,0.3-0.8c0.2-0.4,0.3-0.7,0.5-1.1c0-0.1,0.1-0.2,0.1-0.3l10.5,6.3c-0.4,0.9-0.7,1.9-0.8,3
		C39.7,51.9,39.7,52.3,39.7,52.6z M38.5,42.4c0.1,0,0.1,0,0.2,0c0.3,0,0.7,0.1,1.1,0.1c0.4,0,0.9,0,1.3-0.1c0.1,0,0.3-0.1,0.4-0.1
		c0.3,0,0.6-0.1,0.9-0.2c0.2,0,0.3-0.1,0.5-0.2c0.3-0.1,0.5-0.1,0.8-0.2c0.2-0.1,0.4-0.1,0.5-0.2c0.2-0.1,0.5-0.2,0.7-0.3
		c0.2-0.1,0.4-0.2,0.5-0.3c0.2-0.1,0.5-0.2,0.7-0.4c0.2-0.1,0.3-0.2,0.5-0.3c0.2-0.1,0.4-0.3,0.6-0.4c0.2-0.1,0.3-0.3,0.5-0.4
		c0.2-0.2,0.4-0.3,0.6-0.5c0.1-0.1,0.3-0.3,0.4-0.4c0.1-0.1,0.3-0.3,0.4-0.4c0.6,0.1,1.2,0.1,1.9,0c0.1,0.1,0.3,0.3,0.4,0.4
		c0.1,0.1,0.3,0.3,0.4,0.4c0.2,0.2,0.4,0.3,0.6,0.5c0.2,0.1,0.3,0.3,0.5,0.4c0.2,0.2,0.4,0.3,0.6,0.4c0.2,0.1,0.3,0.2,0.5,0.3
		c0.2,0.1,0.5,0.3,0.7,0.4c0.2,0.1,0.3,0.2,0.5,0.3c0.2,0.1,0.5,0.2,0.7,0.3c0.2,0.1,0.4,0.2,0.5,0.2c0.3,0.1,0.5,0.2,0.8,0.2
		c0.2,0.1,0.3,0.1,0.5,0.2c0.3,0.1,0.6,0.1,0.9,0.2c0.1,0,0.3,0.1,0.4,0.1c0.4,0.1,0.9,0.1,1.3,0.1c0.4,0,0.7,0,1.1-0.1
		c0.1,0,0.1,0,0.2,0c2.6-0.4,4.4-2,5.4-4.6c1,1.1,1.9,2.4,2.6,3.6l-10.4,6.3c-1.8-3.2-5.2-5.4-9.1-5.4s-7.3,2.2-9.1,5.4l-10.4-6.3
		c0.7-1.3,1.6-2.5,2.6-3.6C34,40.4,35.9,42,38.5,42.4z M42.2,51.8l0-0.2c0-0.2,0.1-0.5,0.1-0.7l0-0.1c0.1-0.3,0.1-0.5,0.2-0.8
		c0.1-0.3,0.2-0.5,0.3-0.8c1.3-2.7,4.1-4.5,7-4.5c3,0,5.7,1.7,7,4.5c0.1,0.3,0.2,0.5,0.3,0.8c0.1,0.2,0.2,0.5,0.2,0.7l0,0.1
		c0.1,0.2,0.1,0.5,0.1,0.7l0,0.2c0,0.3,0.1,0.6,0.1,0.9c0,0.3,0,0.6-0.1,1c-0.5,3.9-3.8,6.8-7.7,6.8s-7.2-2.9-7.7-6.8
		c-0.1-0.4-0.1-0.7-0.1-1C42.2,52.3,42.2,52,42.2,51.8z M64.3,40C64.3,40,64.3,40.1,64.3,40c-0.4,0.4-0.8,0.6-1.2,0.9
		c-0.1,0-0.1,0.1-0.2,0.1c-0.2,0.1-0.4,0.2-0.7,0.3c0,0,0,0,0,0c-0.2,0.1-0.5,0.1-0.8,0.2c-0.1,0-0.1,0-0.2,0
		c-0.3,0-0.6,0.1-0.9,0.1c-0.4,0-0.8,0-1.2-0.1c-0.1,0-0.3,0-0.4-0.1c-0.3,0-0.5-0.1-0.8-0.1c-0.2,0-0.3-0.1-0.5-0.1
		c-0.2-0.1-0.5-0.1-0.7-0.2c-0.2-0.1-0.3-0.1-0.5-0.2c-0.2-0.1-0.4-0.2-0.7-0.3c-0.2-0.1-0.3-0.2-0.5-0.2c-0.2-0.1-0.4-0.2-0.6-0.3
		c-0.2-0.1-0.3-0.2-0.5-0.3c-0.2-0.1-0.4-0.3-0.6-0.4c-0.1-0.1-0.3-0.2-0.4-0.3c-0.2-0.1-0.3-0.3-0.5-0.4c-0.1-0.1-0.3-0.2-0.4-0.4
		c-0.1-0.1-0.1-0.1-0.1-0.2c0.1,0,0.3-0.1,0.4-0.2c0.1,0,0.2-0.1,0.3-0.1c0.1-0.1,0.3-0.2,0.4-0.3c0.1-0.1,0.2-0.1,0.3-0.2
		c0.1-0.1,0.2-0.2,0.3-0.3c0.1-0.1,0.2-0.2,0.3-0.4c0.1-0.1,0.2-0.3,0.3-0.5c0.1-0.2,0.2-0.3,0.2-0.5c0-0.1,0.1-0.2,0.1-0.3
		c0.1-0.2,0.1-0.4,0.1-0.6c0-0.1,0-0.2,0.1-0.3c0-0.3,0.1-0.6,0.1-1c0-0.3,0-0.7-0.1-1c0-0.1,0-0.2-0.1-0.3c0-0.2-0.1-0.4-0.1-0.6
		c0-0.1-0.1-0.2-0.1-0.3c-0.1-0.2-0.2-0.3-0.2-0.5c-0.1-0.2-0.2-0.3-0.3-0.5c-0.1-0.1-0.2-0.2-0.3-0.4c-0.1-0.1-0.2-0.2-0.3-0.3
		c-0.1-0.1-0.2-0.2-0.3-0.2c-0.1-0.1-0.2-0.2-0.4-0.2c-0.1-0.1-0.2-0.1-0.3-0.2c-0.1-0.1-0.3-0.1-0.4-0.2c2.1-2.2,5.3-3.7,8.2-3.7
		c5.7,0,6.3,5.8,6.3,8.3C66.6,34.9,66.3,38.1,64.3,40z M47.6,28.8c-0.1,0.1-0.2,0.1-0.3,0.2c-0.1,0.1-0.3,0.2-0.4,0.2
		c-0.1,0.1-0.2,0.1-0.3,0.2c-0.1,0.1-0.2,0.2-0.3,0.3c-0.1,0.1-0.2,0.2-0.3,0.4c-0.1,0.1-0.2,0.3-0.3,0.5c-0.1,0.2-0.2,0.3-0.2,0.5
		c0,0.1-0.1,0.2-0.1,0.3c-0.1,0.2-0.1,0.4-0.1,0.6c0,0.1,0,0.2-0.1,0.3c0,0.3-0.1,0.6-0.1,1c0,0.3,0,0.7,0.1,1c0,0.1,0,0.2,0.1,0.3
		c0,0.2,0.1,0.4,0.1,0.6c0,0.1,0.1,0.2,0.1,0.3c0.1,0.2,0.2,0.3,0.2,0.5c0.1,0.2,0.2,0.3,0.3,0.5c0.1,0.1,0.2,0.2,0.3,0.4
		c0.1,0.1,0.2,0.2,0.3,0.3c0.1,0.1,0.2,0.1,0.3,0.2c0.1,0.1,0.2,0.2,0.4,0.3c0.1,0.1,0.2,0.1,0.3,0.1c0.1,0.1,0.2,0.1,0.4,0.2
		c-0.1,0.1-0.1,0.1-0.1,0.2c-0.1,0.1-0.3,0.2-0.4,0.4c-0.2,0.2-0.3,0.3-0.5,0.4c-0.1,0.1-0.3,0.2-0.4,0.3c-0.2,0.1-0.4,0.3-0.6,0.4
		c-0.2,0.1-0.3,0.2-0.5,0.3c-0.2,0.1-0.4,0.2-0.6,0.3c-0.2,0.1-0.3,0.2-0.5,0.2c-0.2,0.1-0.4,0.2-0.7,0.3c-0.2,0.1-0.3,0.1-0.5,0.2
		C43,40.9,42.8,41,42.5,41c-0.2,0-0.3,0.1-0.5,0.1c-0.3,0.1-0.5,0.1-0.8,0.1c-0.1,0-0.3,0.1-0.4,0.1c-0.4,0-0.8,0.1-1.2,0.1
		c-0.3,0-0.6,0-0.9-0.1c-0.1,0-0.1,0-0.2,0c-0.3,0-0.5-0.1-0.8-0.2c0,0,0,0,0,0c-0.2-0.1-0.5-0.2-0.7-0.3c-0.1,0-0.1-0.1-0.2-0.1
		c-0.4-0.2-0.8-0.5-1.2-0.8c0,0,0,0-0.1-0.1c-2-1.9-2.3-5.1-2.3-6.8c0-2.5,0.6-8.3,6.3-8.3c2.9,0,6.2,1.5,8.2,3.7
		C47.8,28.6,47.7,28.7,47.6,28.8z"/>
	<path d="M50,63.9c-2.8,0-5,2.3-5,5s2.3,5,5,5s5-2.3,5-5S52.8,63.9,50,63.9z M50,72.9c-2.2,0-4-1.8-4-4s1.8-4,4-4s4,1.8,4,4
		S52.2,72.9,50,72.9z"/>
	<path d="M35.8,56.8c-1.9,0-3.4,1.5-3.4,3.4s1.5,3.4,3.4,3.4s3.4-1.5,3.4-3.4S37.7,56.8,35.8,56.8z M35.8,62.5
		c-1.3,0-2.4-1.1-2.4-2.4c0-1.3,1.1-2.4,2.4-2.4s2.4,1.1,2.4,2.4C38.2,61.5,37.1,62.5,35.8,62.5z"/>
	<path d="M64.2,56.8c-1.9,0-3.4,1.5-3.4,3.4s1.5,3.4,3.4,3.4c1.9,0,3.4-1.5,3.4-3.4S66.1,56.8,64.2,56.8z M64.2,62.5
		c-1.3,0-2.4-1.1-2.4-2.4c0-1.3,1.1-2.4,2.4-2.4c1.3,0,2.4,1.1,2.4,2.4C66.6,61.5,65.5,62.5,64.2,62.5z"/>
</g>
</svg>
