<?xml version="1.0" encoding="utf-8"?>
<!-- Generator: Adobe Illustrator 19.1.0, SVG Export Plug-In . SVG Version: 6.00 Build 0)  -->
<svg version="1.1" id="Layer_1" xmlns="http://www.w3.org/2000/svg" xmlns:xlink="http://www.w3.org/1999/xlink" x="0px" y="0px"
	 viewBox="0 0 100 100" enable-background="new 0 0 100 100" xml:space="preserve">
<g>
	<g>
		<path fill="#FFFFFF" d="M71.8,45.2C71.8,45.2,71.7,45.1,71.8,45.2c-0.2-0.4-0.3-0.8-0.5-1.2c0,0,0,0,0-0.1
			c-0.3-0.8-0.7-1.6-1.1-2.3c0,0,0,0,0,0l0,0c-1-1.8-2.1-3.4-3.5-4.8c0.3-1.1,0.4-2.3,0.4-3.6c0-4.9-2-8.8-6.8-8.8
			c-3.3,0-7,1.8-9.1,4.5c-0.4-0.1-0.7-0.1-1.1-0.1s-0.8,0-1.1,0.1c-2.1-2.7-5.9-4.5-9.1-4.5c-4.9,0-6.8,3.9-6.8,8.8
			c0,1.3,0.1,2.5,0.4,3.6c-1.4,1.4-2.6,3.1-3.5,4.8l0,0l0,0c-0.4,0.8-0.8,1.5-1.1,2.3c0,0,0,0,0,0.1c-0.2,0.4-0.3,0.8-0.4,1.2
			c0,0,0,0,0,0c-0.1,0.4-0.3,0.8-0.4,1.2c0,0,0,0,0,0h0c-0.6,2-0.9,4.1-0.9,6.2c0,12.7,10.3,23,23,23s23-10.3,23-23
			C73,50,72.6,47.5,71.8,45.2z M50,62.4c-5,0-9.1-3.7-9.7-8.6l0,0c-0.1-0.4-0.1-0.8-0.1-1.3c0-0.4,0-0.7,0.1-1.1c0-0.1,0-0.1,0-0.2
			c0-0.3,0.1-0.6,0.2-0.9c0,0,0-0.1,0-0.1c0.1-0.3,0.2-0.6,0.3-0.9c0,0,0,0,0,0c0.1-0.3,0.2-0.6,0.4-1c1.6-3.3,4.9-5.6,8.8-5.6
			c3.9,0,7.3,2.3,8.8,5.6h0c0.1,0.3,0.3,0.6,0.4,1c0,0,0,0,0,0c0.1,0.3,0.2,0.6,0.3,0.9c0,0,0,0.1,0,0.1c0.1,0.3,0.1,0.6,0.2,0.9
			c0,0.1,0,0.1,0,0.2c0,0.4,0.1,0.7,0.1,1.1c0,0.4,0,0.8-0.1,1.3l0,0C59.1,58.7,55,62.4,50,62.4z"/>
		<path fill="#00AEEF" d="M50,77.6c-13.8,0-25-11.2-25-25c0-2.3,0.3-4.5,0.9-6.8c0.1-0.5,0.3-0.9,0.4-1.3c0.2-0.5,0.3-0.9,0.5-1.3
			c0.4-0.9,0.8-1.8,1.2-2.6c0.9-1.6,1.9-3.1,3.1-4.4c-0.2-0.9-0.3-2-0.3-3c0-6.7,3.4-10.8,8.8-10.8c3.6,0,7.4,1.7,10,4.4
			c0.2,0,0.4,0,0.6,0c2.5-2.6,6.4-4.4,10-4.4c5.4,0,8.8,4.1,8.8,10.8c0,1.1-0.1,2.1-0.3,3c1.2,1.4,2.2,2.9,3.1,4.4
			c0.4,0.8,0.8,1.7,1.2,2.5c0.2,0.5,0.4,0.9,0.5,1.3c0,0,0,0,0,0c0.9,2.6,1.3,5.3,1.3,8.1C75,66.4,63.8,77.6,50,77.6z M39.7,26.4
			c-4,0-4.8,3.7-4.8,6.8c0,1.1,0.1,2.2,0.4,3.1c0.2,0.7,0,1.4-0.5,1.9c-1.3,1.3-2.3,2.8-3.2,4.4c-0.4,0.7-0.7,1.4-1,2.1
			c-0.2,0.4-0.3,0.8-0.4,1.1c-0.1,0.4-0.3,0.8-0.4,1.2c-0.5,1.9-0.8,3.8-0.8,5.7c0,11.6,9.4,21,21,21s21-9.4,21-21
			c0-2.3-0.4-4.6-1.1-6.8c0,0,0,0,0,0c-0.1-0.4-0.3-0.7-0.4-1.1c-0.3-0.8-0.7-1.5-1-2.2c-0.9-1.6-1.9-3.1-3.2-4.4
			c-0.5-0.5-0.7-1.2-0.5-1.9c0.2-0.9,0.4-2,0.4-3.1c0-3.1-0.8-6.8-4.8-6.8c-2.7,0-5.9,1.6-7.6,3.7c-0.5,0.6-1.2,0.9-1.9,0.7
			c-0.6-0.1-1-0.1-1.5,0c-0.7,0.1-1.5-0.1-1.9-0.7C45.6,27.9,42.4,26.4,39.7,26.4z M50,64.4c-5.9,0-10.9-4.4-11.7-10.3
			c-0.1-0.6-0.1-1-0.1-1.5c0-0.4,0-0.8,0.1-1.3c0-0.1,0-0.2,0-0.2c0.1-0.4,0.1-0.7,0.2-1.1c0,0,0-0.1,0-0.1c0.1-0.4,0.2-0.8,0.3-1.1
			c0.2-0.4,0.3-0.8,0.5-1.2c2-4.1,6.1-6.7,10.7-6.7c4.5,0,8.7,2.6,10.7,6.7c0.2,0.4,0.3,0.8,0.5,1.2c0.1,0.4,0.3,0.8,0.3,1.2l0,0.2
			c0.1,0.3,0.1,0.7,0.2,1c0,0.1,0,0.2,0,0.2c0,0.4,0.1,0.9,0.1,1.3c0,0.5,0,1-0.1,1.5C61,60,55.9,64.4,50,64.4z M50,44.8
			c-3,0-5.7,1.7-7,4.5c-0.1,0.3-0.2,0.5-0.3,0.8c-0.1,0.3-0.2,0.5-0.2,0.8c0,0,0,0.1,0,0.1c-0.1,0.2-0.1,0.5-0.1,0.7
			c0,0,0,0.1,0,0.2c0,0.3-0.1,0.6-0.1,0.9c0,0.3,0,0.6,0.1,1c0.5,3.9,3.8,6.8,7.7,6.8s7.2-2.9,7.7-6.8c0.1-0.4,0.1-0.7,0.1-1
			c0-0.3,0-0.6,0-0.9c0,0,0-0.1,0-0.2c0-0.2-0.1-0.5-0.1-0.7l0-0.1c-0.1-0.2-0.1-0.5-0.2-0.7c-0.1-0.3-0.2-0.6-0.3-0.8
			C55.7,46.6,53,44.8,50,44.8z"/>
	</g>
	<path fill="#009444" d="M50,29.6c-12.7,0-23,10.3-23,23s10.3,23,23,23s23-10.3,23-23S62.7,29.6,50,29.6z M50,62.4
		c-5.4,0-9.8-4.4-9.8-9.8s4.4-9.8,9.8-9.8s9.8,4.4,9.8,9.8S55.4,62.4,50,62.4z"/>
	<circle fill="#FFF450" cx="50" cy="68.9" r="4.5"/>
	<g>
		<circle fill="#FFF450" cx="35.8" cy="60.1" r="2.9"/>
		<circle fill="#FFF450" cx="64.2" cy="60.1" r="2.9"/>
	</g>
	<g>
		<g>
			<path fill="#ED1B2F" d="M50.5,33.2c0,4.9-5.9,8.8-10.8,8.8s-6.8-3.9-6.8-8.8s2-8.8,6.8-8.8S50.5,28.3,50.5,33.2z"/>
			<path fill="#ED1B2F" d="M49.5,33.2c0,4.9,5.9,8.8,10.8,8.8s6.8-3.9,6.8-8.8s-2-8.8-6.8-8.8S49.5,28.3,49.5,33.2z"/>
		</g>
		<path fill="#D7182A" d="M54.4,33.2c0,2.8-1.6,4.4-4.4,4.4s-4.4-1.6-4.4-4.4s1.6-4.4,4.4-4.4S54.4,30.4,54.4,33.2z"/>
	</g>
	<path fill="#D7182A" d="M72.1,46.4c-0.5-1.7-1.1-3.3-2-4.8l-11.3,6.8c0.6,1.3,1,2.7,1,4.2c0,0.4,0,0.8-0.1,1.3L72.1,46.4z"/>
	<path fill="#D7182A" d="M29.8,41.6c-0.8,1.5-1.5,3.1-2,4.8l12.4,7.5c-0.1-0.4-0.1-0.8-0.1-1.3c0-1.5,0.4-2.9,1-4.2L29.8,41.6z"/>
</g>
</svg>
