<?xml version="1.0" encoding="utf-8"?>
<!-- Generator: Adobe Illustrator 19.1.0, SVG Export Plug-In . SVG Version: 6.00 Build 0)  -->
<svg version="1.1" id="Layer_1" xmlns="http://www.w3.org/2000/svg" xmlns:xlink="http://www.w3.org/1999/xlink" x="0px" y="0px"
	 viewBox="0 0 100 100" enable-background="new 0 0 100 100" xml:space="preserve">
<g>
	<g>
		<path fill="#FFFFFF" d="M63.8,41c0.3-0.1,0.6-0.1,0.9-0.2c2.4-0.6,4.6-2,6.2-4c1.6-1.9,2.5-4.4,2.7-7.1l0.2-3.5
			c0.1-0.8-0.6-1.5-1.4-1.6c-0.8,0-1.5,0.6-1.6,1.4l-0.2,3.5c-0.1,2.1-0.8,4-2,5.4c-1.2,1.5-2.8,2.5-4.6,3c-0.1,0-0.2,0-0.3,0.1
			c0.7-1.2,1.3-2.8,1.3-4.8c0-0.8-0.7-1.5-1.5-1.5c-0.8,0-1.5,0.7-1.5,1.5c0,4-3.1,5.5-3.3,5.5c-0.1,0-0.2,0.1-0.2,0.1l-1.8,0.3
			c-0.3-0.2-0.6-0.4-0.9-0.6l0,0c0,0-3.1-1.9-3.9-4.1c-1-2.7-3.2-2-3.2-0.5c0,0-2.1,0-1.7,2.1c0,0-1.3,1.2-0.8,2.4
			c-0.4,0.2-0.7,0.5-1.1,0.7l-1.8-0.3c-0.1-0.1-0.2-0.1-0.2-0.1c-0.1-0.1-3.3-1.6-3.3-5.5c0-0.8-0.7-1.5-1.5-1.5s-1.5,0.7-1.5,1.5
			c0,2,0.6,3.6,1.3,4.8c-0.1,0-0.2,0-0.3-0.1c-1.8-0.4-3.4-1.5-4.6-3c-1.2-1.4-1.8-3.3-2-5.4L31.1,26c-0.1-0.8-0.8-1.4-1.6-1.4
			c-0.8,0.1-1.5,0.8-1.4,1.6l0.2,3.5c0.2,2.7,1.1,5.2,2.7,7.1c1.6,2,3.8,3.4,6.2,4c0.3,0.1,0.6,0.1,0.9,0.2l4.8,0.8
			c-0.4,0.7-0.8,1.5-1,2.4l-11.7,6.6c0,0,5.1,4.2,10.1,1.7L39.7,56c-0.7,3.9,0.3,8,3,10.9c1.1,1.2,2.5,2.2,4,2.9
			c-0.1,0.4-0.2,0.8-0.2,1.2c0,2.4,2,4.4,4.4,4.4s4.4-2,4.4-4.4c0-0.4-0.1-0.8-0.2-1.2c1.5-0.7,2.9-1.6,4-2.9c2.7-2.9,3.7-7,3-10.9
			l-0.6-3.6c5,2.4,10.1-1.7,10.1-1.7l-11.7-6.6c-0.2-0.8-0.6-1.6-1-2.4L63.8,41z"/>
		<path fill="#00AEEF" d="M51,77.4c-3.5,0-6.4-2.9-6.4-6.4c0,0,0,0,0,0c-1.2-0.7-2.3-1.6-3.3-2.6c-3-3.3-4.3-8-3.5-12.6l0.1-0.5
			c-4.7,0.4-8.7-2.8-8.9-2.9c-0.5-0.4-0.8-1.1-0.7-1.7c0.1-0.7,0.4-1.2,1-1.6l10.2-5.8L37.8,43c-0.4-0.1-0.7-0.1-1.1-0.2
			c-2.8-0.7-5.4-2.3-7.3-4.7c-1.8-2.2-2.9-5.1-3.1-8.2l-0.2-3.5c-0.1-1.9,1.3-3.6,3.3-3.7c1.9-0.1,3.6,1.4,3.7,3.3l0.2,3.5
			c0.1,1.7,0.6,3.1,1.5,4.2c0,0,0.1,0.1,0.1,0.1c0-0.2,0-0.4,0-0.6c0-1.9,1.6-3.5,3.5-3.5s3.5,1.6,3.5,3.5c0,2.6,1.9,3.6,2.1,3.7
			c0,0,0.1,0,0.1,0l0.2,0c0.1-0.6,0.4-1.1,0.8-1.6c0-1,0.4-1.6,0.8-2.1c0.4-0.5,0.9-0.8,1.4-1c0.5-0.8,1.3-1.5,2.3-1.6
			c1.4-0.2,3.4,0.4,4.3,3.1c0.4,1,2,2.4,3,3c0,0,0,0,0.1,0c0.1,0,0.1,0.1,0.2,0.1l0.6-0.1c0,0,0.1,0,0.1,0c0.2-0.1,2.1-1.1,2.1-3.7
			c0-1.9,1.6-3.5,3.5-3.5c1.9,0,3.5,1.6,3.5,3.5c0,0.2,0,0.4,0,0.6c0,0,0.1-0.1,0.1-0.1c0.9-1.1,1.4-2.6,1.5-4.2l0.2-3.5
			c0.1-1.9,1.8-3.4,3.7-3.3c2,0.1,3.4,1.8,3.3,3.7l-0.2,3.5c-0.2,3.1-1.3,6-3.1,8.2c-1.9,2.3-4.4,4-7.3,4.7
			c-0.4,0.1-0.7,0.2-1.1,0.2l-1.6,0.3L72.8,49c0.6,0.3,1,0.9,1,1.6s-0.2,1.3-0.7,1.7c-0.2,0.2-4.1,3.3-8.9,2.9l0.1,0.5
			c0.8,4.6-0.5,9.3-3.5,12.6c-1,1-2.1,1.9-3.3,2.6c0,0,0,0,0,0C57.4,74.5,54.5,77.4,51,77.4z M40.4,50.5c0.4,0,0.9,0.1,1.2,0.4
			c0.6,0.5,0.9,1.2,0.8,1.9l-0.6,3.6c-0.6,3.4,0.3,6.8,2.5,9.2c0.9,1,2.1,1.8,3.3,2.4c0.9,0.4,1.4,1.4,1.1,2.4
			c-0.1,0.3-0.1,0.5-0.1,0.6c0,1.3,1.1,2.4,2.4,2.4s2.4-1.1,2.4-2.4c0-0.2,0-0.4-0.1-0.6c-0.3-1,0.2-2,1.1-2.4
			c1.2-0.5,2.4-1.4,3.3-2.4c2.2-2.4,3.1-5.8,2.5-9.2l-0.6-3.6c-0.1-0.7,0.2-1.5,0.8-1.9c0.6-0.5,1.4-0.5,2.1-0.2
			c1.8,0.9,3.7,0.6,5.2,0l-8.6-4.9c-0.5-0.3-0.8-0.7-0.9-1.2c-0.2-0.7-0.5-1.3-0.8-1.9c-0.3-0.5-0.4-1.2-0.2-1.7l-0.2,0
			c-0.5,0.1-1.1-0.1-1.5-0.4c-0.2-0.2-0.4-0.3-0.7-0.5c-0.1,0-0.1-0.1-0.2-0.1c-0.7-0.4-3.4-2.4-4.5-4.7c-0.3,0.3-0.6,0.5-1.1,0.5
			c0,0.6-0.2,1.2-0.6,1.6c-0.1,0.1-0.2,0.2-0.3,0.3c0.2,0.9-0.1,1.8-0.9,2.3c-0.3,0.2-0.5,0.3-0.8,0.6c-0.4,0.3-1,0.5-1.5,0.4
			l-0.2,0c0.2,0.6,0.2,1.2-0.2,1.7c-0.3,0.6-0.6,1.2-0.8,1.9c-0.1,0.5-0.5,1-0.9,1.2l-8.6,4.9c1.5,0.5,3.4,0.8,5.2,0
			C39.8,50.6,40.1,50.5,40.4,50.5z M62,38.7c-0.2,0.2-0.5,0.5-0.7,0.7l1-0.2c0,0-0.1-0.1-0.1-0.1C62.1,39,62,38.8,62,38.7z
			 M39.8,39.2l0.9,0.2c-0.2-0.2-0.4-0.4-0.6-0.6C40,38.9,40,39,39.9,39.1C39.8,39.1,39.8,39.2,39.8,39.2z"/>
	</g>
	<circle fill="#FFF799" cx="51" cy="71" r="4.4"/>
	<g>
		<path fill="#8B5E3C" d="M46.5,39.3l-3.1-0.5c-0.1-0.1-0.2-0.1-0.2-0.1c-0.1-0.1-3.3-1.6-3.3-5.5c0-0.8-0.7-1.5-1.5-1.5
			s-1.5,0.7-1.5,1.5c0,2,0.6,3.6,1.3,4.8c-0.1,0-0.2,0-0.3-0.1c-1.8-0.4-3.4-1.5-4.6-3c-1.2-1.4-1.8-3.3-2-5.4L31.1,26
			c-0.1-0.8-0.8-1.4-1.6-1.4c-0.8,0.1-1.5,0.8-1.4,1.6l0.2,3.5c0.2,2.7,1.1,5.2,2.7,7.1c1.6,2,3.8,3.4,6.2,4
			c0.3,0.1,0.6,0.1,0.9,0.2l7.9,1.3c0.1,0,0.2,0,0.2,0c0.7,0,1.4-0.5,1.5-1.3C47.9,40.2,47.3,39.4,46.5,39.3z"/>
		<path fill="#8B5E3C" d="M55.5,39.3l3.1-0.5c0.1-0.1,0.2-0.1,0.2-0.1c0.1-0.1,3.3-1.6,3.3-5.5c0-0.8,0.7-1.5,1.5-1.5
			s1.5,0.7,1.5,1.5c0,2-0.6,3.6-1.3,4.8c0.1,0,0.2,0,0.3-0.1c1.8-0.4,3.4-1.5,4.6-3c1.2-1.4,1.8-3.3,2-5.4l0.2-3.5
			c0.1-0.8,0.8-1.4,1.6-1.4c0.8,0.1,1.5,0.8,1.4,1.6l-0.2,3.5c-0.2,2.7-1.1,5.2-2.7,7.1c-1.6,2-3.8,3.4-6.2,4
			c-0.3,0.1-0.6,0.1-0.9,0.2L56,42.3c-0.1,0-0.2,0-0.2,0c-0.7,0-1.4-0.5-1.5-1.3C54.1,40.2,54.7,39.4,55.5,39.3z"/>
	</g>
	<path fill="#C48748" d="M42.8,43.6l-12.5,7.1c0,0,6.9,5.6,12.5,0S42.8,43.6,42.8,43.6z"/>
	<path fill="#534934" d="M42.8,50.8c0.5-0.5,0.9-1,1.3-1.4c-5.4,2.6-9.3-1-9.3-1s0,0-0.1-0.1l-4.4,2.5
		C30.2,50.8,37.1,56.4,42.8,50.8z"/>
	<path fill="#C48748" d="M59.2,43.6l12.5,7.1c0,0-6.9,5.6-12.5,0S59.2,43.6,59.2,43.6z"/>
	<path fill="#534934" d="M67.4,48.3c-0.1,0-0.1,0.1-0.1,0.1s-3.8,3.6-9.3,1c0.3,0.4,0.8,0.9,1.3,1.4c5.6,5.6,12.5,0,12.5,0
		L67.4,48.3z"/>
	<path fill="#D4944A" d="M62.3,56L60.5,46h0c-0.2-3.2-2-5.9-4.6-7.4l0,0c0,0-3.1-1.9-3.9-4.1c-1-2.7-3.2-2-3.2-0.5
		c0,0-2.1,0-1.7,2.1c0,0-1.3,1.2-0.8,2.4c-2.7,1.5-4.6,4.3-4.8,7.6h0L39.7,56c-0.7,3.9,0.3,8,3,10.9c2.1,2.3,5,3.8,8.3,3.8
		s6.1-1.5,8.3-3.8C62,64,63,59.9,62.3,56z"/>
	<path fill="#D7182A" d="M57.8,57.7c0,3.3-3.5,6-6.8,6s-6.8-2.7-6.8-6s3.5-4.6,6.8-4.6S57.8,54.3,57.8,57.7z"/>
	<g>
		<circle fill="#534934" cx="46.1" cy="49" r="1.7"/>
		<circle fill="#534934" cx="55.9" cy="49" r="1.7"/>
	</g>
	<path fill="#898452" d="M52.2,72.9c0-0.6-0.5-1.2-1.2-1.2s-1.2,0.5-1.2,1.2c0,0.5,0.3,0.9,0.7,1v1.4c0,0.3,0.2,0.5,0.5,0.5
		s0.5-0.2,0.5-0.5V74C51.9,73.8,52.2,73.4,52.2,72.9z"/>
	<path fill="#4C351E" d="M56.7,64.3c-0.3,0-0.5,0.2-0.5,0.5c0,1.3-1.1,2.4-2.4,2.4s-2.4-1.1-2.4-2.4v-1.2c-0.2,0-0.3,0-0.5,0
		s-0.3,0-0.5,0v1.2c0,1.3-1.1,2.4-2.4,2.4c-1.3,0-2.4-1.1-2.4-2.4c0-0.3-0.2-0.5-0.5-0.5s-0.5,0.2-0.5,0.5c0,1.9,1.5,3.4,3.4,3.4
		c1.2,0,2.3-0.7,2.9-1.6c0.6,1,1.6,1.6,2.9,1.6c1.9,0,3.4-1.5,3.4-3.4C57.2,64.6,57,64.3,56.7,64.3z"/>
</g>
</svg>
