<?xml version="1.0" encoding="utf-8"?>
<!-- Generator: Adobe Illustrator 19.1.0, SVG Export Plug-In . SVG Version: 6.00 Build 0)  -->
<svg version="1.1" id="Layer_1" xmlns="http://www.w3.org/2000/svg" xmlns:xlink="http://www.w3.org/1999/xlink" x="0px" y="0px"
	 viewBox="0 0 100 100" enable-background="new 0 0 100 100" xml:space="preserve">
<g>
	<g>
		<path fill="#FFFFFF" d="M66.7,32.9c-3.7-3.7-9.3-4.3-13.7-1.9c-6.1-1-12.5,0.9-17.2,5.6c-7.8,7.8-7.8,20.3,0,28.1
			c7.8,7.8,20.3,7.8,28.1,0c5.2-5.2,6.9-12.5,5.2-19.1C70.9,41.4,70.1,36.3,66.7,32.9z"/>
		<path fill="#00AEEF" d="M49.8,72.5c-5.6,0-11.2-2.1-15.5-6.4c-8.5-8.5-8.5-22.4,0-30.9c4.8-4.8,11.5-7.1,18.2-6.2
			c5.1-2.5,11.4-1.5,15.5,2.6c3.8,3.8,4.9,9.3,3.1,14.3c1.7,7.3-0.5,15-5.8,20.3C61,70.3,55.4,72.5,49.8,72.5z M49.8,32.7
			c-4.7,0-9.3,1.9-12.7,5.2c-7,7-7,18.3,0,25.3c7,7,18.3,7,25.3,0c4.5-4.5,6.2-11,4.6-17.2c-0.1-0.4-0.1-0.9,0.1-1.3
			c1.6-3.6,0.8-7.7-2-10.5h0c-3-3-7.6-3.6-11.3-1.6c-0.4,0.2-0.8,0.3-1.3,0.2C51.7,32.8,50.8,32.7,49.8,32.7z"/>
	</g>
	<path fill="#F1F2F2" d="M63.9,36.5c2.6,2.6,4.3,5.7,5.2,9c1.8-4.2,1-9.3-2.4-12.7c-3.7-3.7-9.3-4.3-13.7-1.9
		C57,31.6,60.8,33.5,63.9,36.5z"/>
	<circle fill="#ED1B2F" cx="49.8" cy="50.6" r="19.9"/>
	<path fill="#F38296" d="M61.7,49.6h-1.5l0.9-0.9c0.4-0.4,0.4-1,0-1.4s-1-0.4-1.4,0l-2.3,2.3h-5.2l3.7-3.7h3.3c0.6,0,1-0.4,1-1
		s-0.4-1-1-1h-1.3l1-1c0.4-0.4,0.4-1,0-1.4s-1-0.4-1.4,0l-1,1v-1.3c0-0.6-0.4-1-1-1s-1,0.4-1,1v3.3l-3.7,3.7V43l2.3-2.3
		c0.4-0.4,0.4-1,0-1.4s-1-0.4-1.4,0l-0.9,0.9v-1.5c0-0.6-0.4-1-1-1s-1,0.4-1,1v1.5l-0.9-0.9c-0.4-0.4-1-0.4-1.4,0s-0.4,1,0,1.4
		l2.3,2.3v5.2l-3.7-3.7v-3.3c0-0.6-0.4-1-1-1s-1,0.4-1,1v1.3l-1-1c-0.4-0.4-1-0.4-1.4,0s-0.4,1,0,1.4l1,1h-1.3c-0.6,0-1,0.4-1,1
		s0.4,1,1,1h3.3l3.7,3.7h-5.2l-2.3-2.3c-0.4-0.4-1-0.4-1.4,0s-0.4,1,0,1.4l0.9,0.9H38c-0.6,0-1,0.4-1,1s0.4,1,1,1h1.5l-0.9,0.9
		c-0.4,0.4-0.4,1,0,1.4c0.2,0.2,0.5,0.3,0.7,0.3s0.5-0.1,0.7-0.3l2.3-2.3h5.2l-3.7,3.7h-3.3c-0.6,0-1,0.4-1,1s0.4,1,1,1h1.3l-1,1
		c-0.4,0.4-0.4,1,0,1.4c0.2,0.2,0.5,0.3,0.7,0.3s0.5-0.1,0.7-0.3l1-1v1.3c0,0.6,0.4,1,1,1s1-0.4,1-1v-3.3l3.7-3.7v5.2l-2.3,2.3
		c-0.4,0.4-0.4,1,0,1.4s1,0.4,1.4,0l0.9-0.9v1.5c0,0.6,0.4,1,1,1s1-0.4,1-1V61l0.9,0.9c0.2,0.2,0.5,0.3,0.7,0.3s0.5-0.1,0.7-0.3
		c0.4-0.4,0.4-1,0-1.4l-2.3-2.3V53l3.7,3.7v3.3c0,0.6,0.4,1,1,1s1-0.4,1-1v-1.3l1,1c0.2,0.2,0.5,0.3,0.7,0.3s0.5-0.1,0.7-0.3
		c0.4-0.4,0.4-1,0-1.4l-1-1h1.3c0.6,0,1-0.4,1-1s-0.4-1-1-1h-3.3l-3.7-3.7h5.2l2.3,2.3c0.2,0.2,0.5,0.3,0.7,0.3s0.5-0.1,0.7-0.3
		c0.4-0.4,0.4-1,0-1.4l-0.9-0.9h1.5c0.6,0,1-0.4,1-1S62.3,49.6,61.7,49.6z"/>
</g>
</svg>
