<?xml version="1.0" encoding="utf-8"?>
<!-- Generator: Adobe Illustrator 19.1.0, SVG Export Plug-In . SVG Version: 6.00 Build 0)  -->
<svg version="1.1" id="Layer_1" xmlns="http://www.w3.org/2000/svg" xmlns:xlink="http://www.w3.org/1999/xlink" x="0px" y="0px"
	 viewBox="0 0 100 100" enable-background="new 0 0 100 100" xml:space="preserve">
<g>
	<g>
		<path fill="#FFFFFF" d="M64.4,37.9c0-4-0.6-7.2-4.6-7.2c-3,0-7.1,1.8-8.9,4.5C50.6,35.1,50.3,35,50,35c-0.3,0-0.6,0.1-0.9,0.1
			c-1.8-2.6-5.9-4.5-8.9-4.5c-4,0-4.6,3.2-4.6,7.2c0,0.5,0.1,1,0.2,1.5h-7.5V50h1.5v19.3h15.4h9.5h15.4V50h1.5V39.4h-7.5
			C64.3,38.9,64.4,38.4,64.4,37.9z"/>
		<path fill="#00AEEF" d="M70.2,71.3H29.8c-1.1,0-2-0.9-2-2V52c-0.9-0.2-1.5-1-1.5-1.9V39.4c0-1.1,0.9-2,2-2h5.3
			c0-2.8,0.4-8.7,6.6-8.7c3,0,7.2,1.6,9.7,4.3c0.1,0,0.1,0,0.2,0c2.5-2.7,6.7-4.3,9.7-4.3c6.2,0,6.5,5.9,6.6,8.7h5.3
			c1.1,0,2,0.9,2,2V50c0,0.9-0.7,1.7-1.5,1.9v17.3C72.2,70.4,71.3,71.3,70.2,71.3z M31.8,67.3h36.4V50c0-0.9,0.7-1.7,1.5-1.9v-6.7
			h-5.5c-0.6,0-1.2-0.3-1.6-0.7c-0.4-0.5-0.5-1.1-0.4-1.7c0.1-0.4,0.1-0.7,0.1-1.1c0-4.8-1-5.2-2.6-5.2c-2.5,0-5.9,1.7-7.2,3.6
			c-0.5,0.7-1.3,1-2.1,0.8c-0.4-0.1-0.5-0.1-0.9,0c-0.8,0.2-1.7-0.1-2.1-0.8c-1.3-1.9-4.7-3.6-7.2-3.6c-1.6,0-2.6,0.4-2.6,5.2
			c0,0.4,0,0.7,0.1,1.1c0.1,0.6,0,1.2-0.4,1.7c-0.4,0.5-1,0.7-1.6,0.7h-5.5v6.7c0.9,0.2,1.5,1,1.5,1.9V67.3z"/>
	</g>
	<path fill="#FFF450" d="M50,37.9c0,4-3.2,7.2-7.2,7.2s-7.2-3.2-7.2-7.2s0.6-7.2,4.6-7.2S50,33.9,50,37.9z"/>
	<path fill="#FFF450" d="M64.4,37.9c0,4-3.2,7.2-7.2,7.2S50,41.9,50,37.9s5.8-7.2,9.8-7.2S64.4,33.9,64.4,37.9z"/>
	<rect x="29.8" y="49.9" fill="#009444" width="40.4" height="19.4"/>
	<circle fill="#FEF8C3" cx="50" cy="38.8" r="3.7"/>
	<rect x="28.3" y="39.4" fill="#01AD4B" width="43.4" height="10.6"/>
	<rect x="45.2" y="49.9" fill="#EADA4A" width="9.5" height="19.4"/>
	<rect x="44.9" y="39.4" fill="#FFF450" width="10.3" height="10.6"/>
</g>
</svg>
