<?xml version="1.0" encoding="utf-8"?>
<!-- Generator: Adobe Illustrator 19.1.0, SVG Export Plug-In . SVG Version: 6.00 Build 0)  -->
<svg version="1.1" id="Layer_1" xmlns="http://www.w3.org/2000/svg" xmlns:xlink="http://www.w3.org/1999/xlink" x="0px" y="0px"
	 viewBox="0 0 100 100" enable-background="new 0 0 100 100" xml:space="preserve">
<g>
	<path d="M64.7,33C64.7,33,64.6,32.9,64.7,33c-6.4-5-13.4-9-13.7-9.2c-0.6-0.4-1.4-0.4-2,0c-0.3,0.2-6.8,4-12.9,8.6
		c-0.1,0.1-0.1,0.1-0.2,0.2C28.8,37.7,25,46.2,26,54.9c1,8.5,6.5,15.9,14.3,19.4c0.3,2.9,5.1,3.8,7,4c0.8,0.5,1.7,0.8,2.7,0.8
		c1,0,1.9-0.3,2.7-0.8c1.9-0.3,6.6-1.2,7-4c8.7-3.8,14.5-12.5,14.5-22.1C74.2,44.6,70.7,37.6,64.7,33z M50,76.6
		c-0.5,0-1-0.2-1.5-0.4L48.4,76c-0.2-0.1-0.3-0.3-0.4-0.4c0,0,0,0,0,0c-0.1-0.1-0.2-0.3-0.3-0.4c0,0,0,0,0-0.1
		c-0.1-0.1-0.1-0.3-0.2-0.5c0,0,0-0.1,0-0.1c0-0.2-0.1-0.4-0.1-0.6s0-0.4,0.1-0.6c0,0,0-0.1,0-0.1c0-0.2,0.1-0.3,0.2-0.5
		c0,0,0,0,0-0.1c0.1-0.2,0.2-0.3,0.3-0.5c0,0,0,0,0,0c0.1-0.2,0.3-0.3,0.4-0.4c1-0.8,2.3-0.8,3.3,0c0.2,0.1,0.3,0.3,0.4,0.4
		c0,0,0,0,0,0c0.1,0.1,0.2,0.3,0.3,0.5c0,0,0,0,0,0.1c0.1,0.1,0.1,0.3,0.2,0.5c0,0,0,0.1,0,0.1c0,0.2,0.1,0.4,0.1,0.6
		c0,0.2,0,0.4-0.1,0.6c0,0,0,0.1,0,0.1c0,0.2-0.1,0.3-0.2,0.5c0,0,0,0,0,0.1c-0.1,0.2-0.2,0.3-0.3,0.4c0,0,0,0,0,0
		c-0.1,0.1-0.3,0.3-0.4,0.4l-0.2,0.2C51,76.5,50.5,76.6,50,76.6z M57.2,74c0,0.6-2.3,1.5-4.1,1.8c0-0.1,0.1-0.2,0.1-0.2
		c0-0.1,0.1-0.1,0.1-0.2c0.1-0.2,0.1-0.4,0.2-0.5c0-0.1,0-0.1,0-0.2c0-0.2,0.1-0.4,0.1-0.6c0-0.2,0-0.4-0.1-0.6c0-0.1,0-0.1,0-0.2
		c0-0.2-0.1-0.4-0.2-0.5c0-0.1-0.1-0.1-0.1-0.2c0-0.1-0.1-0.1-0.1-0.2c1.2,0.2,2.9,0.7,3.7,1.3c0,0,0,0,0,0
		C57.1,73.7,57.2,73.9,57.2,74z M43.2,73.5c0.8-0.6,2.4-1.1,3.7-1.3c0,0.1-0.1,0.1-0.1,0.2c0,0.1-0.1,0.1-0.1,0.2
		c-0.1,0.2-0.1,0.4-0.2,0.5c0,0.1,0,0.1,0,0.2c0,0.2-0.1,0.4-0.1,0.6c0,0.2,0,0.4,0.1,0.6c0,0.1,0,0.1,0,0.2c0,0.2,0.1,0.4,0.2,0.5
		c0,0.1,0.1,0.1,0.1,0.2c0,0.1,0.1,0.2,0.1,0.2c-1.8-0.3-4.1-1.2-4.1-1.8C42.8,73.9,42.9,73.7,43.2,73.5
		C43.1,73.6,43.1,73.6,43.2,73.5z M57.2,72.6c0,0-0.1,0-0.1-0.1c-0.1-0.1-0.2-0.1-0.4-0.2c0,0-0.1,0-0.1-0.1
		c-0.4-0.2-0.8-0.4-1.3-0.5c0,0,0,0-0.1,0c-0.2-0.1-0.3-0.1-0.5-0.1c-1-0.3-2-0.5-2.7-0.5c-0.1-0.1-0.3-0.2-0.4-0.3
		c0,0-0.1,0-0.1-0.1c-0.1-0.1-0.3-0.1-0.4-0.2c0,0-0.1,0-0.1,0c-0.2,0-0.3-0.1-0.5-0.1c0,0,0,0-0.1,0c-0.2,0-0.3-0.1-0.5-0.1
		c-0.2,0-0.3,0-0.5,0.1c0,0,0,0-0.1,0c-0.2,0-0.3,0.1-0.5,0.1c0,0-0.1,0-0.1,0c-0.1,0.1-0.3,0.1-0.4,0.2c0,0-0.1,0-0.1,0.1
		c-0.1,0.1-0.3,0.2-0.4,0.3c-0.6,0-1.6,0.2-2.7,0.5c-0.2,0-0.3,0.1-0.5,0.2c0,0,0,0-0.1,0c-0.5,0.1-0.9,0.3-1.3,0.5c0,0-0.1,0-0.1,0
		c-0.1,0.1-0.3,0.1-0.4,0.2c0,0-0.1,0-0.1,0.1c-7.8-2.8-13.4-9.8-14.3-17.9c-0.9-7.9,2.6-15.7,9.1-20.2c0,0,0.1-0.1,0.1-0.1
		c5.3-4,11.1-7.4,12.3-8.2c1.3,0.8,7.5,4.5,13,8.7c0,0,0,0,0.1,0c5.5,4.1,8.6,10.4,8.6,17.3C71.7,61.4,65.9,69.5,57.2,72.6z"/>
	<path d="M45.1,52.6c1.2,0,2.2-1,2.2-2.2c0-1.2-1-2.2-2.2-2.2c-1.2,0-2.2,1-2.2,2.2C43,51.6,43.9,52.6,45.1,52.6z M45.1,49.3
		c0.6,0,1.2,0.5,1.2,1.2s-0.5,1.2-1.2,1.2S44,51.1,44,50.4S44.5,49.3,45.1,49.3z"/>
	<path d="M54.9,52.6c1.2,0,2.2-1,2.2-2.2c0-1.2-1-2.2-2.2-2.2s-2.2,1-2.2,2.2C52.7,51.6,53.7,52.6,54.9,52.6z M54.9,49.3
		c0.6,0,1.2,0.5,1.2,1.2s-0.5,1.2-1.2,1.2s-1.2-0.5-1.2-1.2S54.2,49.3,54.9,49.3z"/>
	<path d="M46.6,55.6c0,1.2,1.5,2,3.4,2c2,0,3.4-0.9,3.4-2c0-1.2-1.5-2-3.4-2C48,53.6,46.6,54.5,46.6,55.6z M50,54.6
		c1.5,0,2.4,0.6,2.4,1c0,0.4-0.9,1-2.4,1s-2.4-0.6-2.4-1C47.6,55.2,48.5,54.6,50,54.6z"/>
	<path d="M61.3,53.9c-0.3,0-0.5,0.2-0.5,0.5c0,5.7-4.5,9.8-10.8,9.8s-10.8-4.1-10.8-9.8c0-0.3-0.2-0.5-0.5-0.5s-0.5,0.2-0.5,0.5
		c0,6.3,5,10.8,11.8,10.8s11.8-4.5,11.8-10.8C61.8,54.2,61.6,53.9,61.3,53.9z"/>
	<path d="M64.4,46.4c0-0.1,0-0.1-0.1-0.2c-2.6-5.2-8.1-8.8-14.3-8.8c-6.2,0-11.7,3.6-14.3,8.8c0,0.1-0.1,0.1-0.1,0.2
		c-1,2.1-1.6,4.5-1.6,7c0,8.8,7.2,16,16,16s16-7.2,16-16C66,50.9,65.4,48.6,64.4,46.4z M50,38.4c5.6,0,10.5,3.1,13.1,7.6h-6.6v-3
		c0-0.3-0.2-0.5-0.5-0.5s-0.5,0.2-0.5,0.5v3h-5v-4.5c0-0.3-0.2-0.5-0.5-0.5s-0.5,0.2-0.5,0.5V46h-5v-3c0-0.3-0.2-0.5-0.5-0.5
		s-0.5,0.2-0.5,0.5v3h-6.6C39.5,41.5,44.4,38.4,50,38.4z M50,68.5c-8.3,0-15-6.7-15-15c0-2.3,0.5-4.5,1.5-6.4h27.2
		c0.9,1.9,1.5,4.1,1.5,6.4C65,61.7,58.3,68.5,50,68.5z"/>
</g>
</svg>
