<?xml version="1.0" encoding="utf-8"?>
<!-- Generator: Adobe Illustrator 19.1.0, SVG Export Plug-In . SVG Version: 6.00 Build 0)  -->
<svg version="1.1" id="Layer_1" xmlns="http://www.w3.org/2000/svg" xmlns:xlink="http://www.w3.org/1999/xlink" x="0px" y="0px"
	 viewBox="0 0 100 100" enable-background="new 0 0 100 100" xml:space="preserve">
<g>
	<path d="M50,25.7c-2.5,0-4.9,0.4-7.2,1.1c0,0,0,0,0,0c-0.5,0.2-1.1,0.4-1.6,0.6l-0.3,0.1c-0.5,0.2-1,0.4-1.5,0.7L39,28.3
		c-0.5,0.2-1,0.5-1.4,0.8c0,0-0.1,0.1-0.1,0.1c-0.5,0.3-1,0.6-1.4,0.9l-0.3,0.2c-0.5,0.3-0.9,0.7-1.3,1l-0.1,0.1
		c-0.4,0.3-0.8,0.7-1.2,1.1L33,32.7c-0.4,0.4-0.8,0.8-1.2,1.2l-0.2,0.2c-0.4,0.4-0.7,0.9-1.1,1.4c-3.1,4.2-4.8,9.2-4.8,14.4
		c0,13.3,10.8,24.2,24.2,24.2c5.8,0,11.4-2.1,15.8-5.9l0.1-0.1c0.4-0.4,0.8-0.8,1.2-1.2l0.1-0.1c0.4-0.4,0.7-0.8,1.1-1.2
		c0,0,0.1-0.1,0.1-0.1c0,0,0,0,0,0c0.4-0.4,0.7-0.9,1-1.3l0.2-0.3c0.3-0.5,0.6-0.9,0.9-1.4l0.1-0.1c0.3-0.5,0.5-0.9,0.8-1.5l0.1-0.2
		c0.2-0.5,0.5-1,0.7-1.5l0.1-0.3c0.2-0.5,0.4-1.1,0.6-1.6c0.7-2.3,1.1-4.7,1.1-7.2C74.1,36.6,63.3,25.7,50,25.7z M32.2,37.4l7.6,7.6
		l-3.3,3.6v13.6h13.9v-6.5l11.9,11.9c-3.5,2.5-7.8,3.9-12.4,3.9c-11.9,0-21.7-9.7-21.7-21.7C28.3,45.3,29.7,41,32.2,37.4z
		 M49.5,54.7v6.5H37.6V49l5.9-6.5l5.9,6.5V54.7z M50.5,54.2v-5.6l-6.9-7.5l-3,3.3l-7.7-7.7c0.1-0.1,0.2-0.2,0.3-0.3
		c0.1-0.2,0.3-0.3,0.4-0.5c0.2-0.2,0.4-0.5,0.6-0.7c0.2-0.2,0.4-0.4,0.6-0.6c0.1-0.1,0.3-0.3,0.4-0.4c0.3-0.3,0.6-0.5,0.9-0.8
		c0.1-0.1,0.2-0.2,0.3-0.2c0.3-0.3,0.6-0.5,1-0.7c0.1-0.1,0.2-0.2,0.3-0.2c0.4-0.3,0.8-0.5,1.2-0.8c0.1,0,0.1-0.1,0.2-0.1
		c0.3-0.2,0.7-0.4,1-0.6c0.1-0.1,0.2-0.1,0.4-0.2c0.4-0.2,0.8-0.4,1.2-0.5c0.1-0.1,0.3-0.1,0.4-0.2c0.3-0.1,0.6-0.2,0.9-0.3
		c0.1,0,0.2-0.1,0.3-0.1l27.3,27.3c0,0.1-0.1,0.2-0.1,0.3c-0.1,0.3-0.2,0.6-0.3,0.9c-0.1,0.2-0.1,0.3-0.2,0.5
		c-0.2,0.4-0.3,0.8-0.5,1.2c-0.1,0.1-0.1,0.3-0.2,0.4c-0.2,0.3-0.4,0.7-0.5,1c0,0.1-0.1,0.2-0.1,0.3c-0.2,0.4-0.5,0.8-0.7,1.1
		c-0.1,0.1-0.2,0.2-0.2,0.3c-0.2,0.3-0.5,0.6-0.7,0.9c-0.1,0.1-0.2,0.2-0.3,0.3c-0.2,0.3-0.5,0.6-0.8,0.9c-0.1,0.1-0.3,0.3-0.4,0.4
		c-0.2,0.2-0.4,0.4-0.6,0.6c-0.2,0.2-0.5,0.5-0.8,0.7c-0.2,0.1-0.3,0.3-0.5,0.4c-0.1,0.1-0.2,0.2-0.4,0.3L50.5,54.2z M70.9,55.5
		L44.3,29c1.8-0.5,3.7-0.7,5.6-0.7c11.9,0,21.7,9.7,21.7,21.7C71.6,51.8,71.4,53.7,70.9,55.5z"/>
	<rect x="39.5" y="51.2" width="8.2" height="1"/>
	<rect x="39.5" y="53.7" width="3.2" height="1"/>
	<rect x="39.5" y="56.2" width="6.5" height="1"/>
	<rect x="39.5" y="58.6" width="8.2" height="1"/>
</g>
</svg>
