<?xml version="1.0" encoding="utf-8"?>
<!-- Generator: Adobe Illustrator 19.1.0, SVG Export Plug-In . SVG Version: 6.00 Build 0)  -->
<svg version="1.1" id="Layer_1" xmlns="http://www.w3.org/2000/svg" xmlns:xlink="http://www.w3.org/1999/xlink" x="0px" y="0px"
	 viewBox="0 0 100 100" enable-background="new 0 0 100 100" xml:space="preserve">
<g>
	<path d="M70.1,42.1c-0.4-1.3-1.5-2.2-2.9-2.4v0l-9.7-1.4l-4.3-8.8c-0.6-1.2-1.8-2-3.2-2c0,0,0,0,0,0c-1.4,0-2.6,0.8-3.2,2l-4.3,8.8
		l-9.7,1.4c-1.4,0.2-2.5,1.1-2.9,2.4s-0.1,2.7,0.9,3.7l7.1,6.8l-1.7,9.7c-0.2,1.4,0.3,2.7,1.4,3.5c1.1,0.8,2.6,0.9,3.8,0.3l2-1.1
		l-2.1,4.8c-0.3,0.6-0.2,1.3,0.2,1.9c0.4,0.6,1,0.9,1.7,0.9H57c0.7,0,1.3-0.3,1.7-0.9s0.4-1.3,0.2-1.9L56.7,65l2,1.1
		c1.2,0.6,2.7,0.5,3.8-0.3c1.1-0.8,1.7-2.2,1.4-3.5l-1.7-9.7l7.1-6.8C70.2,44.8,70.6,43.4,70.1,42.1z M40.2,63.8
		C39.8,64,39.4,64,39,63.7c-0.3-0.2-0.5-0.6-0.4-1.1l2-11l-8-7.7c-0.3-0.3-0.4-0.7-0.3-1.1c0.1-0.4,0.5-0.7,0.9-0.7l11-1.5l4.9-10
		c0.2-0.4,0.5-0.6,1-0.6h0c0.4,0,0.8,0.2,1,0.6l4.9,10l11,1.5c0.4,0.1,0.7,0.3,0.9,0.7s0,0.8-0.3,1.1l-8,7.7l2,11
		c0.1,0.4-0.1,0.8-0.4,1.1c-0.3,0.2-0.8,0.3-1.1,0.1L50,58.6L40.2,63.8z M57,70.6H43l4.1-9.3l2.8-1.5l2.8,1.5L57,70.6z"/>
	<path d="M52.3,56.2c1,0.5,2.1,0.4,3-0.2c0.9-0.6,1.3-1.7,1.1-2.8L56,50.6l1.9-1.8c0.8-0.8,1.1-1.9,0.7-2.9c-0.3-1-1.2-1.8-2.3-1.9
		l-2.6-0.4l-1.2-2.4c-0.5-1-1.5-1.6-2.5-1.6c-1.1,0-2.1,0.6-2.5,1.6l-1.2,2.4L43.7,44c-1.1,0.2-2,0.9-2.3,1.9
		c-0.3,1-0.1,2.2,0.7,2.9l1.9,1.8l-0.5,2.6c-0.2,1.1,0.2,2.1,1.1,2.8c0.5,0.4,1.1,0.5,1.7,0.5c0.5,0,0.9-0.1,1.3-0.3L50,55
		L52.3,56.2z M47.2,55.4c-0.6,0.3-1.4,0.3-1.9-0.1c-0.6-0.4-0.8-1.1-0.7-1.8l0.6-3.1l-2.3-2.2c-0.5-0.5-0.7-1.2-0.5-1.9
		c0.2-0.7,0.8-1.1,1.5-1.2l3.2-0.4l1.4-2.9c0.3-0.6,0.9-1,1.6-1c0.7,0,1.3,0.4,1.6,1l1.4,2.9l3.2,0.4c0.7,0.1,1.3,0.6,1.5,1.2
		c0.2,0.7,0,1.4-0.5,1.9l-2.3,2.2l0.6,3.1c0.1,0.7-0.1,1.4-0.7,1.8c-0.6,0.4-1.3,0.5-1.9,0.1L50,53.9L47.2,55.4z"/>
	<path d="M52.7,67.7h-5.5c-0.3,0-0.5,0.2-0.5,0.5s0.2,0.5,0.5,0.5h5.5c0.3,0,0.5-0.2,0.5-0.5S53,67.7,52.7,67.7z"/>
</g>
</svg>
