<?xml version="1.0" encoding="utf-8"?>
<!-- Generator: Adobe Illustrator 19.1.0, SVG Export Plug-In . SVG Version: 6.00 Build 0)  -->
<svg version="1.1" id="Layer_1" xmlns="http://www.w3.org/2000/svg" xmlns:xlink="http://www.w3.org/1999/xlink" x="0px" y="0px"
	 viewBox="0 0 100 100" enable-background="new 0 0 100 100" xml:space="preserve">
<g>
	<path d="M79.2,43.9c-0.5-0.4-1.1-0.6-1.7-0.5l-12.3,2.3c0-0.1-0.1-0.2-0.2-0.3l-0.1-0.1c-0.1-0.1-0.2-0.3-0.3-0.4
		c-0.1-0.1-0.1-0.2-0.2-0.2c-0.5-2.9-1.9-5.6-4.1-7.6l-0.9-3.9c1-1,1.6-2.4,1.6-3.9c0-3.1-2.5-5.6-5.6-5.6s-5.6,2.5-5.6,5.6
		c0,0.3,0,0.6,0.1,0.9L46.2,34c-3.6,1.3-6.6,4.1-8.1,7.7c0,0-0.1,0.1-0.1,0.1c-0.2,0.2-0.3,0.3-0.5,0.5c-0.2,0.2-0.4,0.4-0.6,0.7
		c-0.2,0.3-0.4,0.5-0.6,0.8c-0.1,0.2-0.3,0.3-0.4,0.5c-0.2,0.2-0.3,0.4-0.4,0.6c-0.2,0.3-0.3,0.5-0.5,0.8l-12.3-2.3
		c-0.6-0.1-1.3,0.1-1.7,0.5c-0.5,0.4-0.7,1.1-0.6,1.7c0.8,6.1,5.2,10.6,12.8,13c0.3,1.4,0.9,2.7,1.5,4c0.2,7.4,5.6,13.6,13,14.9
		c0.8,0.1,1.6-0.2,2-0.9l0.5-0.8l0.4,0.8c0.4,0.6,1,1,1.7,1c0.1,0,0.2,0,0.3,0c7.4-1.2,12.9-7.4,13-14.9c0.7-1.3,1.2-2.6,1.5-4
		c7.6-2.5,12.1-7,12.8-13C79.9,45,79.7,44.4,79.2,43.9z M55.5,26.1c1.7,0,3.1,1.4,3.1,3.1c0,0.9-0.4,1.7-1,2.3l-0.2-0.7
		c-0.2-1-1-1.8-2-2c-0.3-0.1-0.5-0.1-0.8-0.1c0,0,0,0,0,0c-0.2,0-0.4,0-0.6,0.1c-0.1,0-0.1,0-0.2,0.1c-0.2,0-0.3,0.1-0.4,0.2
		c-0.1,0-0.1,0.1-0.2,0.1c-0.2,0.1-0.4,0.3-0.5,0.4l-0.3,0.3c0-0.2,0-0.4,0-0.5C52.4,27.5,53.8,26.1,55.5,26.1z M53.4,30.1
		c0.5-0.5,1.1-0.6,1.8-0.5c0.2,0,0.3,0.1,0.4,0.2c0.4,0.2,0.7,0.6,0.8,1.1l0.1,0.4l1.3,5.5c-1.1-0.8-2.3-1.3-3.6-1.7
		c-0.1,0-0.1,0-0.2,0c-0.3-0.1-0.5-0.1-0.8-0.2c-0.1,0-0.2,0-0.3-0.1c-0.3,0-0.5-0.1-0.8-0.1c-0.1,0-0.2,0-0.3,0c-0.4,0-0.7,0-1.1,0
		c-0.3,0-0.6,0-1,0c-0.2,0-0.4,0-0.6,0.1c-0.1,0-0.2,0-0.3,0c0,0-0.1,0-0.1,0L53.4,30.1z M47.9,36.1C47.9,36.1,47.9,36.1,47.9,36.1
		c0.5-0.1,0.9-0.2,1.4-0.3c0.1,0,0.1,0,0.2,0c0.5-0.1,0.9-0.1,1.4-0.1c0.3,0,0.6,0,1,0c0.1,0,0.2,0,0.4,0c0.2,0,0.4,0,0.6,0.1
		c0.2,0,0.3,0.1,0.5,0.1c0.1,0,0.3,0.1,0.4,0.1c0.2,0.1,0.4,0.1,0.6,0.2c0.1,0,0.2,0.1,0.3,0.1c0.2,0.1,0.4,0.2,0.7,0.2
		c0,0,0.1,0,0.1,0.1c2.9,1.3,5.3,3.7,6.3,6.8c-0.4-0.5-0.9-0.9-1.4-1.3c0,0,0,0,0,0c-0.4-0.3-0.8-0.6-1.2-0.9c0,0-0.1,0-0.1-0.1
		c-0.4-0.3-0.8-0.5-1.2-0.7c-0.1,0-0.1-0.1-0.2-0.1c-0.4-0.2-0.8-0.4-1.2-0.6c-0.1,0-0.2-0.1-0.3-0.1c-0.4-0.2-0.7-0.3-1.1-0.4
		c-0.1,0-0.2-0.1-0.4-0.1c-0.4-0.1-0.7-0.2-1.1-0.3c-0.1,0-0.3-0.1-0.4-0.1c-0.4-0.1-0.7-0.1-1.1-0.2c-0.1,0-0.3,0-0.4-0.1
		c-0.5-0.1-1-0.1-1.6-0.1c0,0,0,0,0,0h0h0c-0.4,0-0.7,0-1.1,0c-0.1,0-0.2,0-0.3,0c0,0,0,0-0.1,0c-0.1,0-0.2,0-0.3,0
		c-0.2,0-0.3,0-0.5,0.1c-0.1,0-0.2,0-0.3,0c-0.2,0-0.4,0.1-0.6,0.1c-0.1,0-0.2,0-0.2,0.1c0,0,0,0,0,0c-0.1,0-0.1,0-0.2,0
		c-0.4,0.1-0.7,0.2-1.1,0.3c-0.1,0-0.1,0-0.2,0c-0.5,0.1-0.9,0.3-1.3,0.5c-0.1,0-0.1,0.1-0.2,0.1c-0.9,0.4-1.7,0.8-2.5,1.4
		C42.7,38.6,45.1,36.8,47.9,36.1z M38,45.5c0.2-0.3,0.5-0.6,0.8-0.9c0.1-0.1,0.3-0.3,0.4-0.4c0.2-0.3,0.5-0.5,0.8-0.7
		c0.1-0.1,0.2-0.2,0.3-0.2c0.2-0.2,0.4-0.4,0.7-0.5c0.1-0.1,0.3-0.2,0.4-0.3c0.3-0.2,0.5-0.4,0.8-0.5c0.2-0.1,0.3-0.2,0.5-0.3
		c0.2-0.1,0.5-0.3,0.7-0.4c0.1,0,0.2-0.1,0.3-0.1c0.2-0.1,0.4-0.2,0.5-0.2c0.1-0.1,0.3-0.1,0.4-0.2c0.1-0.1,0.3-0.1,0.4-0.2
		c0.1,0,0.2-0.1,0.3-0.1c0.3-0.1,0.5-0.2,0.8-0.2c0.1,0,0.2-0.1,0.3-0.1c0.1,0,0.3-0.1,0.4-0.1c0.3-0.1,0.6-0.1,1-0.2
		c0,0,0.1,0,0.1,0c0.2,0,0.3,0,0.5-0.1c0.5-0.1,1.1-0.1,1.6-0.1c0,0,0,0,0,0c0.6,0,1.1,0,1.7,0.1c0.1,0,0.1,0,0.2,0
		c0.1,0,0.1,0,0.2,0c0.4,0.1,0.9,0.1,1.3,0.2c0.1,0,0.2,0.1,0.4,0.1c0.5,0.1,0.9,0.3,1.3,0.4c0.1,0,0.2,0.1,0.3,0.1
		c0.5,0.2,1,0.4,1.5,0.6c0,0,0,0,0.1,0c1,0.5,2,1.2,2.9,1.9c0,0,0.1,0.1,0.1,0.1c0.4,0.3,0.8,0.7,1.1,1.1c0.1,0.1,0.1,0.1,0.2,0.2
		c0.3,0.4,0.6,0.8,0.9,1.2c0.6,0.8,1.1,1.7,1.5,2.6c0.2,0.5,0.4,0.9,0.6,1.4c0,0,0,0.1,0,0.1c0.2,0.4,0.3,0.9,0.4,1.4
		c0,0,0,0.1,0,0.1c0,0.1,0,0.3,0.1,0.4c0.1,0.3,0.1,0.5,0.1,0.8c-3.6,0.7-7.1-0.1-10-1.9c0,0,0,0,0,0c-2.9-1.8-5.1-4.6-6.2-8
		c-0.1-0.2-0.2-0.3-0.4-0.4c0,0,0,0-0.1,0c-0.2,0-0.3,0.1-0.4,0.2c-1.6,2.4-4.3,3.9-7.2,3.9c-1,0-1.9-0.2-2.8-0.5
		C37.8,45.6,37.9,45.6,38,45.5z M55.8,52.1c-0.2,0.3-0.6,0.5-0.9,0.5c-0.6,0-1.2-0.5-1.2-1.2c0-0.2,0-0.3,0.1-0.5
		C54.4,51.4,55.1,51.8,55.8,52.1z M34.3,51.3c0,0.1,0,0.1,0,0.2c-0.1,0.4-0.2,0.9-0.2,1.3C34,53.4,34,53.9,34,54.4
		c0,0.4,0,0.8,0.1,1.3c0,0.2,0,0.4,0.1,0.7c-6.6-2.1-10.4-5.6-11.3-10.4l12.4,2.3C34.8,49.3,34.5,50.3,34.3,51.3z M52.4,75l-2-3.3
		c-0.1-0.2-0.3-0.2-0.4-0.2c0,0,0,0,0,0c-0.2,0-0.3,0.1-0.4,0.2l-2,3.3c-5.5-1.1-9.7-5.5-10.4-11c0.1,0.1,0.2,0.3,0.3,0.4
		c0.1,0.1,0.2,0.3,0.3,0.4c0.2,0.3,0.5,0.6,0.7,0.8c0.1,0.1,0.2,0.3,0.4,0.4c0.3,0.3,0.5,0.5,0.8,0.8c0.1,0.1,0.3,0.2,0.4,0.3
		c0.2,0.2,0.4,0.3,0.6,0.4c0.2,0.2,0.4,0.3,0.6,0.4c0.2,0.2,0.5,0.3,0.7,0.4c0.2,0.1,0.4,0.2,0.6,0.3c0.2,0.1,0.5,0.2,0.7,0.4
		c0.2,0.1,0.5,0.2,0.8,0.3c0.2,0.1,0.5,0.2,0.7,0.3c0.2,0.1,0.4,0.1,0.6,0.2c0.3,0.1,0.7,0.2,1.1,0.3c0.2,0,0.3,0.1,0.5,0.1
		c0.4,0.1,0.8,0.1,1.3,0.2c0.1,0,0.2,0,0.3,0c0.5,0,1,0.1,1.5,0.1h0h0c0,0,0,0,0,0c0.5,0,1,0,1.5-0.1c0.1,0,0.2,0,0.3,0
		c0.4,0,0.8-0.1,1.3-0.2c0.2,0,0.3-0.1,0.5-0.1c0.4-0.1,0.7-0.2,1-0.3c0.2-0.1,0.4-0.1,0.6-0.2c0.2-0.1,0.5-0.2,0.7-0.3
		c0.3-0.1,0.5-0.2,0.8-0.3c0.2-0.1,0.5-0.2,0.7-0.4c0.2-0.1,0.4-0.2,0.6-0.3c0.2-0.1,0.5-0.3,0.7-0.4c0.2-0.1,0.4-0.3,0.7-0.4
		c0.2-0.1,0.4-0.3,0.6-0.4c0.1-0.1,0.3-0.2,0.4-0.3c0.3-0.2,0.6-0.5,0.8-0.7c0.1-0.1,0.3-0.2,0.4-0.4c0.3-0.3,0.5-0.5,0.7-0.8
		c0.1-0.1,0.2-0.3,0.3-0.4c0.1-0.1,0.2-0.3,0.3-0.4C62.1,69.5,58,74,52.4,75z M65,55.7c0,0.4-0.1,0.8-0.2,1.3
		c-0.3,2-1.1,3.9-2.2,5.6c-0.1,0.2-0.3,0.4-0.4,0.6c-0.1,0.2-0.3,0.4-0.4,0.6c-0.1,0.2-0.2,0.3-0.4,0.5c-0.2,0.2-0.3,0.4-0.5,0.6
		c-0.2,0.2-0.4,0.4-0.6,0.6c-0.2,0.2-0.3,0.3-0.5,0.5c-0.2,0.1-0.3,0.3-0.5,0.4c-0.2,0.1-0.3,0.2-0.5,0.4c-0.3,0.2-0.6,0.4-0.9,0.6
		c-0.2,0.1-0.3,0.2-0.5,0.3c-0.2,0.1-0.4,0.2-0.6,0.3c-0.2,0.1-0.3,0.2-0.5,0.2c-0.3,0.2-0.7,0.3-1,0.4c-0.2,0.1-0.4,0.2-0.6,0.2
		c-0.2,0.1-0.4,0.1-0.6,0.2c-0.3,0.1-0.5,0.1-0.8,0.2c-0.2,0-0.3,0.1-0.5,0.1c-0.4,0.1-0.7,0.1-1.1,0.2c-0.1,0-0.3,0-0.4,0
		c-0.4,0-0.9,0.1-1.3,0.1c0,0,0,0,0,0c-0.5,0-0.9,0-1.3-0.1c-0.1,0-0.3,0-0.4,0c-0.4,0-0.8-0.1-1.1-0.2c-0.2,0-0.3-0.1-0.5-0.1
		c-0.3-0.1-0.5-0.1-0.8-0.2c-0.2-0.1-0.4-0.1-0.6-0.2c-0.2-0.1-0.4-0.1-0.6-0.2c-0.3-0.1-0.7-0.3-1-0.4c-0.2-0.1-0.3-0.1-0.5-0.2
		c-0.2-0.1-0.4-0.2-0.6-0.3c-0.2-0.1-0.3-0.2-0.5-0.3c-0.3-0.2-0.6-0.4-0.9-0.6c-0.2-0.1-0.3-0.2-0.5-0.4c-0.2-0.1-0.3-0.3-0.5-0.4
		c-0.2-0.2-0.3-0.3-0.5-0.5c-0.2-0.2-0.4-0.4-0.6-0.6c-0.2-0.2-0.4-0.4-0.5-0.6c-0.1-0.1-0.3-0.3-0.4-0.5c-0.1-0.2-0.3-0.4-0.4-0.6
		c-0.1-0.2-0.3-0.4-0.4-0.6c-1.1-1.7-1.8-3.6-2.2-5.6c-0.1-0.4-0.1-0.8-0.2-1.2c0-0.4-0.1-0.9-0.1-1.3c0-0.5,0-1.1,0.1-1.6
		c0-0.1,0-0.2,0-0.3c0.1-0.4,0.1-0.9,0.2-1.3c0-0.1,0-0.1,0.1-0.2c0.1-0.5,0.2-0.9,0.4-1.4c0,0,0-0.1,0-0.1c0.2-0.5,0.3-0.9,0.6-1.4
		c0.3-0.6,0.5-1.1,0.9-1.6c1.1,0.4,2.2,0.6,3.4,0.6c2.9,0,5.6-1.3,7.4-3.5c1,2.7,2.7,5,5,6.7c-0.2,0.3-0.3,0.7-0.3,1.1
		c0,1.2,1,2.2,2.2,2.2c0.8,0,1.5-0.4,1.9-1.1c1.7,0.7,3.6,1.1,5.6,1.1c0.9,0,1.8-0.1,2.7-0.3c0,0.4,0.1,0.7,0.1,1.1
		C65,54.9,65,55.3,65,55.7z M65.9,56.4c0-0.2,0-0.4,0.1-0.7c0-0.4,0.1-0.9,0.1-1.3c0-0.5,0-1.1-0.1-1.6c0-0.1,0-0.1,0-0.2
		c0,0,0,0,0,0c0,0,0-0.1,0-0.1c0-0.4-0.1-0.7-0.2-1.1c0-0.1,0-0.1,0-0.2c0-0.2-0.1-0.4-0.2-0.6c-0.1-0.3-0.2-0.7-0.3-1
		c0-0.1-0.1-0.1-0.1-0.2c-0.1-0.4-0.3-0.8-0.4-1.2L77.3,46C76.4,50.8,72.5,54.3,65.9,56.4z"/>
	<path d="M45.1,53.6c1.2,0,2.2-1,2.2-2.2c0-1.2-1-2.2-2.2-2.2c-1.2,0-2.2,1-2.2,2.2C43,52.6,43.9,53.6,45.1,53.6z M45.1,50.3
		c0.6,0,1.2,0.5,1.2,1.2s-0.5,1.2-1.2,1.2S44,52.1,44,51.4S44.5,50.3,45.1,50.3z"/>
	<path d="M46.6,56.6c0,1.2,1.5,2,3.4,2c2,0,3.4-0.9,3.4-2c0-1.2-1.5-2-3.4-2C48,54.6,46.6,55.5,46.6,56.6z M50,55.6
		c1.5,0,2.4,0.6,2.4,1c0,0.4-0.9,1-2.4,1s-2.4-0.6-2.4-1C47.6,56.2,48.5,55.6,50,55.6z"/>
	<path d="M61.3,54.9c-0.3,0-0.5,0.2-0.5,0.5c0,5.7-4.5,9.8-10.8,9.8s-10.8-4.1-10.8-9.8c0-0.3-0.2-0.5-0.5-0.5s-0.5,0.2-0.5,0.5
		c0,6.3,5,10.8,11.8,10.8s11.8-4.5,11.8-10.8C61.8,55.2,61.6,54.9,61.3,54.9z"/>
	<path d="M33.2,50.3l-6.8-2.2c-0.3-0.1-0.5,0.1-0.6,0.3c-0.1,0.3,0.1,0.5,0.3,0.6l3.7,1.2c-0.1,1.1,0.2,2.8,1.8,3.9
		c0.1,0.1,0.2,0.1,0.3,0.1c0.2,0,0.3-0.1,0.4-0.2c0.1-0.2,0.1-0.5-0.2-0.7c-1.2-0.8-1.4-2-1.3-2.7l2.1,0.7c0.1,0,0.1,0,0.2,0
		c0.2,0,0.4-0.1,0.5-0.3C33.6,50.6,33.5,50.4,33.2,50.3z"/>
	<path d="M67.1,51.3c0.1,0,0.1,0,0.2,0l2.1-0.7c0,0.7-0.1,1.9-1.3,2.7c-0.2,0.1-0.3,0.5-0.2,0.7c0.1,0.1,0.3,0.2,0.4,0.2
		c0.1,0,0.2,0,0.3-0.1c1.6-1,1.9-2.8,1.8-3.9L74,49c0.3-0.1,0.4-0.4,0.3-0.6c-0.1-0.3-0.4-0.4-0.6-0.3L67,50.3
		c-0.3,0.1-0.4,0.4-0.3,0.6C66.7,51.1,66.9,51.3,67.1,51.3z"/>
</g>
</svg>
