<?xml version="1.0" encoding="utf-8"?>
<!-- Generator: Adobe Illustrator 19.1.0, SVG Export Plug-In . SVG Version: 6.00 Build 0)  -->
<svg version="1.1" id="Layer_1" xmlns="http://www.w3.org/2000/svg" xmlns:xlink="http://www.w3.org/1999/xlink" x="0px" y="0px"
	 viewBox="0 0 100 100" enable-background="new 0 0 100 100" xml:space="preserve">
<path d="M74.4,58.9c-1-0.4-2.2,0.2-2.6,1.2c-0.5,1.3-1.8,3.7-3.1,3.7h-4.5v-1.6c5.5-1.7,9.5-6.8,9.5-12.9V34.2c0-1.1-0.9-2-2-2
	c-5.1,0-9.2,4.1-9.2,9.2v2.5c0,2.2-1.8,3.9-3.9,3.9s-3.9-1.8-3.9-3.9v-1.4c0-5.6-4.6-10.2-10.2-10.2H26.2c-0.6,0-1.2,0.3-1.6,0.8
	c-0.4,0.5-0.5,1.2-0.3,1.8l5.2,15.2c2,6,7,10.5,12.9,12.1v1.7H26.2c-1.1,0-2,0.9-2,2s0.9,2,2,2h42.5c4.5,0,6.7-5.7,6.9-6.4
	C76,60.4,75.5,59.3,74.4,58.9z M46.4,62.8c0.3,0,0.6,0,0.9,0h13v1H46.4V62.8z M60.3,60.3h-13c-0.7,0-1.5-0.1-2.3-0.2
	c0,0-0.3,0-0.9-0.2c-5.6-1.2-10.3-5.3-12.1-10.7l-4.9-14.6h17.6c4.3,0,7.7,3.5,7.7,7.7v1.4c0,3.5,2.9,6.4,6.4,6.4s6.4-2.9,6.4-6.4
	v-2.5c0-3.5,2.7-6.4,6.2-6.7v14.6c0,5.1-3.6,9.6-8.6,10.7c-0.3,0.1-0.9,0.2-0.9,0.2C61.1,60.3,60.7,60.3,60.3,60.3z M67.3,58.4
	c-0.1,0.1-0.2,0.1-0.3,0.2C67.1,58.6,67.2,58.5,67.3,58.4z M74.2,61c-0.1,0.2-1.9,5.3-5.5,5.3H26.2c-0.3,0-0.5-0.2-0.5-0.5
	s0.2-0.5,0.5-0.5h17.7v-4.9c0,0,0,0,0,0c0,0,0,0,0,0c0.6,0.1,1,0.2,1,0.2v4.7h16.8v-4.6c0,0,0.6-0.1,1-0.2v4.8h6
	c2.9,0,4.5-4.6,4.5-4.7c0.1-0.3,0.4-0.4,0.6-0.3C74.2,60.4,74.3,60.7,74.2,61z"/>
</svg>
