<?xml version="1.0" encoding="utf-8"?>
<!-- Generator: Adobe Illustrator 19.1.0, SVG Export Plug-In . SVG Version: 6.00 Build 0)  -->
<svg version="1.1" id="Layer_1" xmlns="http://www.w3.org/2000/svg" xmlns:xlink="http://www.w3.org/1999/xlink" x="0px" y="0px"
	 viewBox="0 0 100 100" enable-background="new 0 0 100 100" xml:space="preserve">
<g>
	<path d="M67.6,65C67.6,65,67.6,65,67.6,65c-0.9-2.2-2.9-8-2.9-14.3c0-5.2,0-15.3-9.7-17.9c0.5-0.9,0.8-1.9,0.8-2.9
		c0-3.2-2.6-5.8-5.8-5.8c-3.2,0-5.8,2.6-5.8,5.8c0,1.1,0.3,2.1,0.8,2.9c-9.7,2.7-9.7,13.2-9.7,18c0,6-1.8,11.4-2.9,14.1
		c-0.9,2.2,0.1,4.7,2.2,5.7c2.2,1.1,5.8,1.7,10.6,2c0.8,1.9,2.6,3.2,4.7,3.2c2.1,0,3.9-1.3,4.7-3.2c4.8-0.2,8.4-0.9,10.7-2
		C67.4,69.7,68.4,67.2,67.6,65z M47.5,71.3c0.7,0,1.5,0,2.3,0c0.1,0,0.1,0,0.2,0c0.1,0,0.1,0,0.2,0c0.8,0,1.6,0,2.3,0c0,0,0,0,0,0
		c-0.2,1.2-1.3,2.1-2.5,2.1C48.8,73.4,47.7,72.5,47.5,71.3C47.5,71.3,47.5,71.3,47.5,71.3z M53.1,70.3L53.1,70.3
		c-1.9,0.1-4.2,0.1-6.1,0l0,0c-6.5-0.2-9.7-1.1-11.2-1.8c-0.9-0.4-1.4-1.5-1-2.5c1.1-2.8,3-8.6,3-15c0-9.7,2.1-16.1,12.2-16.1
		c10.1,0,12.2,6.1,12.2,15.9c0,6.5,1.9,12.3,3.1,15.2c0.4,1,0,2.1-1,2.5C62.7,69.2,59.5,70.1,53.1,70.3z M50,33.3
		c-1.8,0-3.3-1.5-3.3-3.3c0-1.8,1.5-3.3,3.3-3.3c1.8,0,3.3,1.5,3.3,3.3C53.3,31.8,51.8,33.3,50,33.3z"/>
	<path d="M60,64c-1.2,0.6-4,1.3-10,1.3c-6,0-8.7-0.7-10-1.3c-0.2-0.1-0.5,0-0.7,0.2c-0.1,0.2,0,0.5,0.2,0.7
		c1.9,0.9,5.4,1.4,10.4,1.4c5,0,8.5-0.5,10.4-1.4c0.2-0.1,0.4-0.4,0.2-0.7C60.5,64,60.2,63.9,60,64z"/>
</g>
</svg>
