<?xml version="1.0" encoding="utf-8"?>
<!-- Generator: Adobe Illustrator 19.1.0, SVG Export Plug-In . SVG Version: 6.00 Build 0)  -->
<svg version="1.1" id="Layer_1" xmlns="http://www.w3.org/2000/svg" xmlns:xlink="http://www.w3.org/1999/xlink" x="0px" y="0px"
	 viewBox="0 0 100 100" enable-background="new 0 0 100 100" xml:space="preserve">
<g>
	<g>
		<path fill="#FFFFFF" d="M70.9,63.2l-6.7-0.6l-2.8-1.8c2.1-2.6,3.3-5.9,3.3-9.5c0-4.4-1.8-8.4-4.8-11.2c0,0,0,0,0,0l1.4-12.4
			c0.3-1.2-2.1-2.7-5.3-3.4c-3.2-0.7-6-0.4-6.2,0.8l-3.8,11c-7,1.5-12.3,7.7-12.3,15.2c0,3.6,1.2,6.8,3.2,9.5L34.6,63l-5.5,0.7
			c-0.3,0-0.5,0.3-0.4,0.6c0,0.3,0.2,0.4,0.5,0.4c0,0,0,0,0.1,0l4.2-0.5l-4.7,4.8c-0.2,0.2-0.2,0.5,0,0.7c0.1,0.1,0.2,0.1,0.3,0.1
			c0.1,0,0.3-0.1,0.4-0.2l7.9-8.1c-0.1,0.5-0.1,1.1-0.1,1.7C37.3,69.3,42,74.4,48,75l1.1,1.2l1.1-1.2c6-0.6,10.7-5.6,10.7-11.8
			c0-0.5,0-1.1-0.1-1.6l2.9,1.9c0,0,0,0,0,0l2.8,4.4c0.1,0.1,0.3,0.2,0.4,0.2c0.1,0,0.2,0,0.3-0.1c0.2-0.1,0.3-0.5,0.2-0.7L65,63.6
			l5.7,0.6c0,0,0,0,0,0c0.3,0,0.5-0.2,0.5-0.5C71.3,63.5,71.1,63.2,70.9,63.2z"/>
		<path fill="#00AEEF" d="M49.1,78.2L49.1,78.2c-0.6,0-1.1-0.2-1.5-0.7L47,76.9c-5.7-0.9-10.2-5.1-11.4-10.6L31,71
			c-0.9,1-2.6,1-3.5,0.1c-0.5-0.5-0.8-1.1-0.8-1.8s0.2-1.3,0.7-1.8l1-1c-0.9-0.3-1.5-1.1-1.7-2c-0.2-1.4,0.8-2.6,2.2-2.8l4.8-0.6
			l0.6-0.7c-1.7-2.8-2.7-5.9-2.7-9.3c0-7.8,5.3-14.7,12.8-16.8l3.4-9.9c0.2-0.8,1-2.2,3.7-2.5c1.4-0.2,3.1-0.1,4.9,0.3
			c1.8,0.4,3.4,1,4.6,1.8c2.2,1.5,2.4,3,2.2,3.9l-1.3,11.3c3,3.3,4.7,7.4,4.7,11.9c0,3.2-0.9,6.3-2.5,9l0.7,0.4l6.2,0.6l0,0
			c0.7,0.1,1.3,0.4,1.7,0.9c0.4,0.5,0.6,1.2,0.6,1.8c-0.1,1.3-1.2,2.3-2.5,2.3c-0.1,0-0.2,0-0.3,0L68.9,66l0.1,0.2
			c0.4,0.6,0.5,1.2,0.3,1.9c-0.1,0.7-0.5,1.2-1.1,1.6c-0.4,0.3-0.9,0.4-1.3,0.4c-0.9,0-1.6-0.4-2.1-1.2l-2.1-3.3
			c-1,5.8-5.6,10.3-11.5,11.2l-0.6,0.7C50.2,77.9,49.7,78.2,49.1,78.2z M38.8,60c0.5,0.4,0.7,1.1,0.6,1.8c-0.1,0.5-0.1,1-0.1,1.4
			c0,5.1,3.8,9.3,8.9,9.8c0.3,0,0.6,0.1,0.9,0.3c0.3-0.2,0.6-0.3,0.9-0.3c5.1-0.5,8.9-4.7,8.9-9.8c0-0.4,0-0.8-0.1-1.3
			c-0.1-0.6,0.1-1.2,0.5-1.6c0.1-0.3,0.2-0.5,0.4-0.7c1.9-2.4,2.9-5.3,2.9-8.3c0-3.7-1.5-7.2-4.2-9.7c-0.5-0.5-0.7-1.1-0.6-1.7
			l1.4-12c-0.4-0.4-1.6-1.1-3.7-1.6c-2.1-0.5-3.5-0.3-4-0.2l-3.7,10.7c-0.2,0.7-0.8,1.2-1.5,1.3c-6.2,1.3-10.7,6.9-10.7,13.2
			c0,3,1,5.8,2.8,8.2C38.6,59.6,38.7,59.8,38.8,60z"/>
	</g>
	<path fill="#8B5E3C" d="M70.9,63.2l-6.7-0.6l-3-2c-0.2-0.1-0.5-0.1-0.7,0.1c-0.1,0.2-0.1,0.5,0.1,0.7l3.1,2c0,0,0,0,0,0l2.8,4.4
		c0.1,0.1,0.3,0.2,0.4,0.2c0.1,0,0.2,0,0.3-0.1c0.2-0.1,0.3-0.5,0.2-0.7L65,63.6l5.7,0.6c0,0,0,0,0,0c0.3,0,0.5-0.2,0.5-0.5
		C71.3,63.5,71.1,63.2,70.9,63.2z"/>
	<path fill="#8B5E3C" d="M38.9,59.2c-0.2-0.2-0.5-0.2-0.7,0L34.6,63l-5.5,0.7c-0.3,0-0.5,0.3-0.4,0.6c0,0.3,0.2,0.4,0.5,0.4
		c0,0,0,0,0.1,0l4.2-0.5l-4.7,4.8c-0.2,0.2-0.2,0.5,0,0.7c0.1,0.1,0.2,0.1,0.3,0.1c0.1,0,0.3-0.1,0.4-0.2l9.4-9.7
		C39.1,59.8,39.1,59.4,38.9,59.2z"/>
	<circle fill="#F1F2F2" cx="49.1" cy="63.2" r="11.8"/>
	<g>
		<polygon fill="#D7182A" points="51.8,73.2 49.1,76.2 46.4,73.2 49.1,66.6 		"/>
		
			<rect x="46.1" y="62.6" transform="matrix(0.7071 -0.7071 0.7071 0.7071 -31.9712 53.9302)" fill="#B7202E" width="6" height="6"/>
	</g>
	<circle fill="#FFFFFF" cx="49.1" cy="51.2" r="15.5"/>
	<circle cx="44.3" cy="47.1" r="1.7"/>
	<circle cx="53.9" cy="47.1" r="1.7"/>
	<g>
		<path d="M60.9,52.2c-0.3,0-0.5-0.1-0.7-0.3c-0.2-0.2-0.3-0.5-0.3-0.7s0.1-0.5,0.3-0.7c0.4-0.4,1-0.4,1.4,0
			c0.2,0.2,0.3,0.4,0.3,0.7c0,0.3-0.1,0.5-0.3,0.7C61.4,52.1,61.2,52.2,60.9,52.2z"/>
		<path d="M48.1,63c0-0.6,0.4-1,1-1l0,0c0.5,0,1,0.4,1,1l0,0c0,0.5-0.5,1-1,1l0,0C48.6,64,48.1,63.5,48.1,63z M45.8,63.6
			c-0.5-0.1-0.9-0.7-0.7-1.2l0,0c0.1-0.5,0.7-0.8,1.2-0.7v0c0.5,0.1,0.9,0.7,0.7,1.2l0,0c-0.1,0.4-0.5,0.7-1,0.7l0,0
			C46,63.6,45.9,63.6,45.8,63.6z M51.2,62.8c-0.1-0.5,0.2-1.1,0.7-1.2l0,0c0.5-0.1,1.1,0.2,1.2,0.7l0,0c0.1,0.5-0.2,1.1-0.7,1.2l0,0
			c0,0,0,0,0,0l0,0c-0.1,0-0.2,0-0.3,0l0,0C51.7,63.6,51.3,63.3,51.2,62.8z M42.7,62.3L42.7,62.3L42.7,62.3
			c-0.5-0.3-0.6-0.9-0.4-1.4l0,0c0.3-0.5,0.9-0.6,1.4-0.4v0c0.5,0.3,0.6,0.9,0.4,1.4l0,0c-0.2,0.3-0.5,0.5-0.9,0.5l0,0
			C43,62.4,42.9,62.4,42.7,62.3z M54.2,61.9c-0.3-0.5-0.1-1.1,0.4-1.4l0,0c0.5-0.3,1.1-0.1,1.4,0.4l0,0c0.3,0.5,0.1,1.1-0.4,1.4l0,0
			c-0.1,0.1-0.3,0.1-0.5,0.1l0,0C54.7,62.4,54.3,62.2,54.2,61.9z M40.1,60.2L40.1,60.2L40.1,60.2c-0.4-0.4-0.4-1,0-1.4l0,0
			c0.4-0.4,1-0.4,1.4,0l0,0c0.4,0.4,0.4,1,0,1.4l0,0c-0.2,0.2-0.4,0.3-0.7,0.3l0,0C40.5,60.5,40.3,60.4,40.1,60.2z M56.8,60.2
			c-0.4-0.4-0.4-1,0-1.4l0,0c0.4-0.4,1-0.4,1.4,0l0,0c0.4,0.4,0.4,1,0,1.4l0,0c-0.2,0.2-0.4,0.3-0.7,0.3l0,0
			C57.2,60.5,56.9,60.4,56.8,60.2z M38,57.6L38,57.6L38,57.6c-0.3-0.5-0.1-1.1,0.4-1.4l0,0c0.5-0.3,1.1-0.1,1.4,0.4v0
			c0.3,0.5,0.1,1.1-0.4,1.4l0,0c-0.1,0.1-0.3,0.1-0.5,0.1l0,0C38.5,58.1,38.2,57.9,38,57.6z M58.8,57.9c-0.5-0.3-0.6-0.9-0.4-1.4
			l0,0c0.3-0.5,0.9-0.6,1.4-0.4l0,0c0.5,0.3,0.7,0.9,0.4,1.4l0,0c-0.2,0.3-0.5,0.5-0.9,0.5l0,0C59.2,58.1,59,58,58.8,57.9z
			 M36.7,54.5c-0.1-0.5,0.2-1.1,0.7-1.2l0,0c0.5-0.1,1.1,0.2,1.2,0.7h0c0.1,0.5-0.2,1.1-0.7,1.2l0,0c-0.1,0-0.2,0-0.3,0l0,0
			C37.3,55.2,36.9,54.9,36.7,54.5z M60.3,55.2c-0.5-0.1-0.9-0.7-0.7-1.2l0,0c0.1-0.5,0.7-0.8,1.2-0.7l0,0c0.5,0.1,0.8,0.7,0.7,1.2
			l0,0c-0.1,0.4-0.5,0.7-1,0.7l0,0C60.4,55.2,60.3,55.2,60.3,55.2z"/>
		<path d="M37.3,52.2c-0.3,0-0.5-0.1-0.7-0.3c-0.2-0.2-0.3-0.5-0.3-0.7c0-0.3,0.1-0.5,0.3-0.7c0.4-0.4,1-0.4,1.4,0
			c0.2,0.2,0.3,0.4,0.3,0.7c0,0.3-0.1,0.5-0.3,0.7C37.8,52.1,37.6,52.2,37.3,52.2z"/>
	</g>
	<path fill="#BCBEC0" d="M61.2,27.6c0.3-1.2-2.1-2.7-5.3-3.4c-3.2-0.7-6-0.4-6.2,0.8l-4.1,11.7c-0.3,1.4,2.6,3.3,6.5,4.2
		c3.9,0.9,7.3,0.4,7.7-1L61.2,27.6z"/>
	<path fill="#939598" d="M57.2,28.8c-0.7,0-1.5-0.1-2.3-0.3c-1.1-0.3-2.2-0.7-2.9-1.1c-1.1-0.7-1.2-1.4-1.1-1.8
		c0.1-0.3,0.3-0.4,0.6-0.4c0.3,0.1,0.4,0.3,0.4,0.6c0,0.1,0.1,0.4,0.7,0.8c0.6,0.4,1.6,0.8,2.6,1c1,0.2,2,0.3,2.8,0.2
		c0.8-0.1,1-0.3,1-0.4c0.1-0.3,0.3-0.4,0.6-0.4c0.3,0.1,0.4,0.3,0.4,0.6c-0.1,0.4-0.5,1-1.8,1.2C57.8,28.7,57.5,28.8,57.2,28.8z"/>
	<path fill="#F7941E" d="M47.8,51.6c1.5,0.1,2.8,1.5,2.5,3c0,0.3-0.1,0.6-0.3,0.8c-0.1,0.3-0.3,0.5-0.5,0.7c-1.1,1.1-3,0.8-3.9-0.4
		l-3.6-4.6L47.8,51.6z"/>
</g>
</svg>
