<?xml version="1.0" encoding="utf-8"?>
<!-- Generator: Adobe Illustrator 19.1.0, SVG Export Plug-In . SVG Version: 6.00 Build 0)  -->
<svg version="1.1" id="Layer_1" xmlns="http://www.w3.org/2000/svg" xmlns:xlink="http://www.w3.org/1999/xlink" x="0px" y="0px"
	 viewBox="0 0 100 100" enable-background="new 0 0 100 100" xml:space="preserve">
<g>
	<path d="M69.7,44.6c-0.5-2-1.8-3.7-3.5-4.8c0,0,0,0,0,0c-2.1-1.3-4.6-1.4-6.8-0.6v-2.5c0-7-5.7-12.7-12.7-12.7h-1.6
		c-7,0-12.7,5.7-12.7,12.7v22.8C31,60.6,30,62.2,30,64.1v6.5c0,2.9,2.4,5.3,5.3,5.3h23c2.9,0,5.3-2.4,5.3-5.3v-6.5
		c0-1.6-0.7-3.1-1.9-4.1l4-5.3c0.1-0.1,0.2-0.3,0.3-0.4l2.8-3.7c0-0.1,0.1-0.1,0.1-0.2C69.9,48.7,70.2,46.6,69.7,44.6z M56.9,37.4
		l-2.5,2.5l-4.6-4.6c-0.2-0.2-0.5-0.2-0.7,0l-4.6,4.6l-4.6-4.6c-0.1-0.1-0.2-0.1-0.4-0.1s-0.3,0.1-0.4,0.1L35,39.4v-2.6
		c0-5.6,4.6-10.2,10.2-10.2h1.6c5.6,0,10.2,4.6,10.2,10.2V37.4z M35,60.3v-6.5l4.5-4.5l4.6,4.6c0.2,0.2,0.5,0.2,0.7,0l4.6-4.6
		l4.6,4.6c0.1,0.1,0.2,0.1,0.4,0.1s0.3,0,0.4-0.1l4.6-4.6l4.1,4.1l-5.2,6.9h-0.1h-23H35z M64.2,52.6l-4.4-4.4
		c-0.2-0.2-0.5-0.2-0.7,0l-4.6,4.6l-4.6-4.6c-0.2-0.2-0.5-0.2-0.7,0l-4.6,4.6l-4.6-4.6c-0.2-0.2-0.5-0.2-0.7,0L35,52.3V40.8l4.5-4.5
		l4.6,4.6c0.2,0.2,0.5,0.2,0.7,0l4.6-4.6l4.6,4.6c0.1,0.1,0.2,0.1,0.4,0.1s0.3,0,0.4-0.1l2.1-2.1v4.6c0,0.2,0.1,0.4,0.4,0.5
		c0.2,0.1,0.4,0,0.6-0.2c1.5-2.4,4.6-3.1,7.1-1.6c2.5,1.5,3.3,4.7,1.8,7.1L64.2,52.6z M33.7,61.8c0.5-0.3,1-0.5,1.6-0.5h23
		c1.5,0,2.8,1.3,2.8,2.8v6.5c0,1.5-1.3,2.8-2.8,2.8h-23c-1.5,0-2.8-1.3-2.8-2.8v-6.5c0-0.3,0.1-0.6,0.2-0.9L33.7,61.8z"/>
	<circle cx="54.5" cy="49.5" r="0.8"/>
	<circle cx="44.6" cy="36.3" r="0.8"/>
</g>
</svg>
