<?xml version="1.0" encoding="utf-8"?>
<!-- Generator: Adobe Illustrator 19.1.0, SVG Export Plug-In . SVG Version: 6.00 Build 0)  -->
<svg version="1.1" id="Layer_1" xmlns="http://www.w3.org/2000/svg" xmlns:xlink="http://www.w3.org/1999/xlink" x="0px" y="0px"
	 viewBox="0 0 100 100" enable-background="new 0 0 100 100" xml:space="preserve">
<g>
	<g>
		<polygon fill="#FFFFFF" points="44.4,27.3 33.2,27.3 33.2,40.7 33.2,48.6 33.2,72.7 44.4,72.7 52.3,72.7 68.8,72.7 68.8,48.6 
			68.8,40.7 68.8,27.3 52.3,27.3 		"/>
		<path fill="#00AEEF" d="M68.8,74.7H33.2c-1.1,0-2-0.9-2-2V27.3c0-1.1,0.9-2,2-2h35.5c1.1,0,2,0.9,2,2v45.5
			C70.8,73.8,69.9,74.7,68.8,74.7z M35.2,70.7h31.5V29.3H35.2V70.7z"/>
	</g>
	<rect x="33.2" y="27.3" fill="#ED1B2F" width="35.5" height="45.5"/>
	<polygon fill="#FDFDFE" points="68.8,40.7 52.3,40.7 52.3,27.3 44.4,27.3 44.4,40.7 33.2,40.7 33.2,48.6 44.4,48.6 44.4,72.7 
		52.3,72.7 52.3,48.6 68.8,48.6 	"/>
	<g>
		<path fill="#F1F2F2" d="M45.1,42.9l-2.6,7.6c-0.8,2.4,1,5,3.6,5h0c1.4,0,2.9-1.1,2.9-2.5l0.1-10.7L45.1,42.9z"/>
		<path fill="#F1F2F2" d="M53,42.9l2.6,7.6c0.8,2.4-1,5-3.6,5h0c-1.4,0-2.9-1.1-2.9-2.5l-0.1-10.7L53,42.9z"/>
	</g>
	<g>
		<path fill="#E4E6E7" d="M49.4,43.2c0,3.7-4.5,6.7-8.2,6.7s-5.2-3-5.2-6.7s1.5-6.7,5.2-6.7S49.4,39.5,49.4,43.2z"/>
		<path fill="#E4E6E7" d="M48.6,43.2c0,3.7,4.5,6.7,8.2,6.7s5.2-3,5.2-6.7s-1.5-6.7-5.2-6.7S48.6,39.5,48.6,43.2z"/>
	</g>
	<path fill="#FDFDFE" d="M52.4,43.2c0,2.1-1.2,3.4-3.4,3.4c-2.1,0-3.4-1.2-3.4-3.4c0-2.1,1.2-3.4,3.4-3.4
		C51.1,39.8,52.4,41,52.4,43.2z"/>
</g>
</svg>
