<?xml version="1.0" encoding="utf-8"?>
<!-- Generator: Adobe Illustrator 19.1.0, SVG Export Plug-In . SVG Version: 6.00 Build 0)  -->
<svg version="1.1" id="Layer_1" xmlns="http://www.w3.org/2000/svg" xmlns:xlink="http://www.w3.org/1999/xlink" x="0px" y="0px"
	 viewBox="0 0 100 100" enable-background="new 0 0 100 100" xml:space="preserve">
<g>
	<g>
		<path fill="#FFFFFF" d="M77.9,44.8l-13.8,2.5c0-0.1-0.1-0.2-0.1-0.2c-0.1-0.2-0.1-0.3-0.2-0.5c-0.1-0.3-0.3-0.5-0.4-0.8
			c-0.1-0.2-0.2-0.3-0.3-0.5c-0.1-0.2-0.3-0.4-0.4-0.6c-0.4-2.9-1.9-5.5-4-7.3l-1.4-5.8c1.1-0.6,1.8-1.8,1.8-3.1
			c0-2-1.6-3.6-3.6-3.6c-2,0-3.6,1.6-3.6,3.6c0,0.5,0.1,1,0.3,1.5l-4.9,5c-3.5,1.1-6.2,3.7-7.5,7.1c-0.1,0.1-0.3,0.3-0.4,0.4
			c-0.2,0.1-0.3,0.3-0.5,0.4c-0.2,0.2-0.4,0.4-0.5,0.6c-0.2,0.2-0.4,0.5-0.6,0.7c-0.1,0.1-0.2,0.3-0.3,0.5c-0.1,0.2-0.3,0.4-0.4,0.6
			l0,0l0,0c-0.4,0.6-0.8,1.3-1.1,2l-13.8-2.5c0.8,6.7,6.7,10,12.6,11.7c0.3,1.8,0.9,3.5,1.8,5c0,0,0,0.1,0,0.1
			c0,6.7,4.9,12.2,11.3,13.3l2.2-3.6l2.1,3.6c6.4-1,11.4-6.6,11.4-13.3c0,0,0-0.1,0-0.1c0.9-1.5,1.5-3.2,1.8-5
			C71.1,54.9,77,51.5,77.9,44.8z"/>
		<path fill="#00AEEF" d="M52.1,77c-0.7,0-1.4-0.4-1.7-1L50,75.3L49.5,76c-0.4,0.7-1.2,1.1-2,0.9c-7.4-1.2-12.8-7.4-13-14.9
			c-0.7-1.3-1.2-2.6-1.5-4c-7.6-2.5-12.1-7-12.8-13c-0.1-0.6,0.1-1.3,0.6-1.7c0.5-0.4,1.1-0.6,1.7-0.5l12.3,2.3
			c0.2-0.3,0.3-0.6,0.5-0.8c0.1-0.2,0.3-0.4,0.4-0.6c0.2-0.2,0.3-0.4,0.4-0.6c0.2-0.3,0.4-0.5,0.6-0.8c0.2-0.2,0.4-0.4,0.6-0.7
			c0.2-0.2,0.3-0.3,0.5-0.5c0,0,0.1-0.1,0.1-0.1c1.5-3.6,4.5-6.4,8.1-7.7l3.8-3.8c-0.1-0.3-0.1-0.6-0.1-0.9c0-3.1,2.5-5.6,5.6-5.6
			s5.6,2.5,5.6,5.6c0,1.5-0.6,2.9-1.6,3.9l0.9,3.9c2.1,2,3.5,4.7,4.1,7.6c0.1,0.1,0.1,0.2,0.2,0.2c0.1,0.1,0.2,0.3,0.3,0.4l0.1,0.1
			c0.1,0.1,0.1,0.2,0.1,0.2l12.3-2.3c0.6-0.1,1.3,0.1,1.7,0.5c0.5,0.4,0.7,1.1,0.6,1.7c-0.8,6.1-5.2,10.6-12.8,13
			c-0.3,1.4-0.9,2.7-1.5,4c-0.2,7.5-5.6,13.7-13,14.9C52.3,77,52.2,77,52.1,77z M50,69.4C50,69.4,50,69.4,50,69.4
			c0.7,0,1.4,0.4,1.7,1l1.4,2.4c4.9-1.4,8.4-5.8,8.4-11c0-0.1,0-0.1,0-0.2c0-0.3,0.1-0.7,0.3-1c0.8-1.4,1.3-2.8,1.6-4.4
			c0.1-0.8,0.7-1.4,1.4-1.6c5.4-1.5,8.8-4,10.3-7.3l-10.6,2c-0.9,0.2-1.8-0.3-2.2-1.1l-0.2-0.4c0-0.1-0.1-0.1-0.1-0.2
			c-0.1-0.2-0.2-0.4-0.3-0.6l-0.1-0.2c-0.1-0.1-0.1-0.2-0.2-0.3c-0.1-0.2-0.2-0.3-0.3-0.5c-0.2-0.3-0.3-0.6-0.4-0.9
			c-0.3-2.4-1.5-4.5-3.3-6.1c-0.3-0.3-0.5-0.6-0.6-1l-1.4-5.8c-0.2-0.9,0.2-1.8,0.9-2.2c0.5-0.3,0.8-0.8,0.8-1.4
			c0-0.9-0.7-1.6-1.6-1.6s-1.6,0.7-1.6,1.6c0,0.2,0,0.4,0.1,0.7c0.3,0.8,0.2,1.6-0.4,2.2l-4.9,5c-0.2,0.2-0.5,0.4-0.8,0.5
			C45,38,42.7,40.2,41.6,43c-0.1,0.3-0.3,0.6-0.5,0.8c-0.1,0.1-0.3,0.2-0.4,0.3c-0.1,0.1-0.3,0.3-0.4,0.4c-0.2,0.2-0.3,0.3-0.5,0.5
			c-0.2,0.2-0.3,0.4-0.5,0.6c-0.1,0.1-0.2,0.3-0.3,0.4c-0.1,0.2-0.2,0.3-0.3,0.5c-0.3,0.5-0.7,1.1-0.9,1.7c-0.4,0.8-1.3,1.3-2.2,1.1
			l-10.6-2c1.5,3.3,5,5.7,10.3,7.3c0.7,0.2,1.3,0.8,1.4,1.6c0.3,1.6,0.8,3,1.6,4.4c0.2,0.3,0.3,0.6,0.3,1c0,0,0,0.1,0,0.2
			c0,5.1,3.4,9.6,8.3,11l1.5-2.4C48.7,69.7,49.3,69.4,50,69.4z"/>
	</g>
	<path fill="#009444" d="M50,48.2c-7.5,0-13.5,6-13.5,13.5c0,6.7,4.9,12.2,11.3,13.3l2.2-3.6l2.1,3.6c6.4-1,11.4-6.6,11.4-13.3
		C63.5,54.2,57.5,48.2,50,48.2z"/>
	<circle fill="#FFFFFF" cx="55.5" cy="28.6" r="3.6"/>
	<path fill="#BE1E2D" d="M45.6,36.8l7.5-7.6c1.3-1.3,3.5-0.7,3.9,1.1l2.2,9.4L45.6,36.8z"/>
	<circle fill="#FFFFFF" cx="50.8" cy="46.5" r="11.9"/>
	<g>
		<path fill="#FDDDCE" d="M47.5,50.4c0.9,5.1,7.2,8.3,14,7c6.8-1.3,15.3-4.4,16.3-12.6L47.5,50.4z"/>
		<path fill="#FDDDCE" d="M52.5,50.4c-0.9,5.1-7.2,8.3-14,7c-6.8-1.3-15.3-4.4-16.3-12.6L52.5,50.4z"/>
	</g>
	<circle fill="#FCD3C1" cx="50" cy="53.9" r="15.5"/>
	<g>
		<circle fill="#594A42" cx="45.1" cy="50.9" r="1.7"/>
		<circle fill="#594A42" cx="54.9" cy="50.9" r="1.7"/>
	</g>
	<ellipse fill="#F598A4" cx="50" cy="56" rx="2.9" ry="1.5"/>
	<path fill="#BE1E2D" d="M50,65.7c-6.8,0-11.8-4.5-11.8-10.8c0-0.3,0.2-0.5,0.5-0.5s0.5,0.2,0.5,0.5c0,5.7,4.5,9.8,10.8,9.8
		s10.8-4.1,10.8-9.8c0-0.3,0.2-0.5,0.5-0.5s0.5,0.2,0.5,0.5C61.8,61.1,56.8,65.7,50,65.7z"/>
	<path fill="#8B5E3C" d="M62.3,52.5c1.1,0,2.1-0.1,3.1-0.3C64.6,44.4,58,38.3,50,38.3c-5.4,0-10.2,2.8-13,7c1.1,0.5,2.3,0.7,3.6,0.7
		c3.2,0,6-1.6,7.6-4.1C50,48.1,55.6,52.5,62.3,52.5z"/>
	<path fill="#FBBEA7" d="M33.1,50.7c-0.1,0-0.1,0-0.2,0l-6.8-2.2c-0.3-0.1-0.4-0.4-0.3-0.6c0.1-0.3,0.4-0.4,0.6-0.3l6.8,2.2
		c0.3,0.1,0.4,0.4,0.3,0.6C33.5,50.5,33.3,50.7,33.1,50.7z"/>
	<path fill="#FBBEA7" d="M31.9,53.6c-0.1,0-0.2,0-0.3-0.1c-1.9-1.2-1.9-3.4-1.7-4.3c0.1-0.3,0.3-0.4,0.6-0.4
		c0.3,0.1,0.4,0.3,0.4,0.6c0,0.1-0.5,2.1,1.3,3.2c0.2,0.1,0.3,0.5,0.2,0.7C32.2,53.5,32.1,53.6,31.9,53.6z"/>
	<path fill="#FBBEA7" d="M67.1,50.7c-0.2,0-0.4-0.1-0.5-0.3c-0.1-0.3,0.1-0.5,0.3-0.6l6.8-2.2c0.3-0.1,0.5,0.1,0.6,0.3
		c0.1,0.3-0.1,0.5-0.3,0.6l-6.8,2.2C67.2,50.7,67.2,50.7,67.1,50.7z"/>
	<path fill="#FBBEA7" d="M68.3,53.6c-0.2,0-0.3-0.1-0.4-0.2c-0.1-0.2-0.1-0.5,0.2-0.7c1.7-1.1,1.3-3.2,1.3-3.2
		c-0.1-0.3,0.1-0.5,0.4-0.6c0.3-0.1,0.5,0.1,0.6,0.4c0.2,1,0.2,3.1-1.7,4.3C68.5,53.6,68.4,53.6,68.3,53.6z"/>
</g>
</svg>
