<?xml version="1.0" encoding="utf-8"?>
<!-- Generator: Adobe Illustrator 19.1.0, SVG Export Plug-In . SVG Version: 6.00 Build 0)  -->
<svg version="1.1" id="Layer_1" xmlns="http://www.w3.org/2000/svg" xmlns:xlink="http://www.w3.org/1999/xlink" x="0px" y="0px"
	 viewBox="0 0 100 100" enable-background="new 0 0 100 100" xml:space="preserve">
<g>
	<g>
		<path fill="#FFFFFF" d="M60.4,48l-0.2,0l-0.1-0.1l0,0.1l-0.2,0c1.7-2.2,2.7-4.9,2.7-7.8c0-7-5.6-12.6-12.6-12.6
			s-12.6,5.6-12.6,12.6c0,3,1,5.7,2.7,7.8l-0.2,0l0-0.1L39.8,48l-0.2,0c-2.6-0.4-5,1.4-5.1,4.1c-0.1,2.2,1.6,4.1,3.8,4.5l4.2,0.7
			c1.3,0.2,1.8,1.7,1,2.7L41.1,63l0,0v0.1L39.4,65c-1.5,1.8-1.5,4.6,0.3,6.2c0.8,0.7,1.9,1.1,2.9,1.1c1.2,0,2.5-0.5,3.4-1.6l1.4-1.6
			h0.2L47.5,69l1.2-1.4c0.7-0.9,2-0.9,2.8,0l1.2,1.4l-0.1,0.1h0.2l1.4,1.6c0.9,1,2.1,1.6,3.4,1.6c1,0,2.1-0.4,2.9-1.1
			c1.8-1.6,1.9-4.4,0.3-6.2L59,63.1V63l0,0l-2.5-2.9c-0.8-1-0.3-2.5,1-2.7l4.2-0.7c2.2-0.4,3.9-2.3,3.8-4.5
			C65.4,49.5,62.9,47.6,60.4,48z"/>
		<path fill="#00AEEF" d="M57.3,74.3c-1.9,0-3.7-0.8-4.9-2.3l-1-1.1c-0.4-0.2-0.8-0.6-0.9-1c0,0,0-0.1,0-0.1L50,69.1l-0.5,0.6
			c0,0,0,0.1,0,0.1c-0.2,0.5-0.5,0.8-0.9,1l-1,1.1c-1.2,1.4-3,2.3-4.9,2.3c-1.6,0-3.1-0.6-4.2-1.6c-2.6-2.3-2.8-6.3-0.5-9l1.5-1.8
			c0.1-0.2,0.2-0.3,0.4-0.4l1.9-2.3L38,58.6c-3.3-0.6-5.6-3.4-5.4-6.6c0.1-1.8,0.9-3.6,2.4-4.7c0.6-0.4,1.2-0.8,1.8-1
			c-0.9-1.9-1.3-3.9-1.3-6.1c0-8,6.5-14.6,14.6-14.6s14.6,6.5,14.6,14.6c0,2.1-0.4,4.2-1.3,6.1c0.7,0.2,1.3,0.6,1.8,1
			c1.4,1.1,2.3,2.9,2.4,4.7c0.1,3.2-2.2,6-5.4,6.6l-3.7,0.6l1.9,2.2c0.2,0.2,0.4,0.4,0.5,0.6l1.4,1.6c2.3,2.7,2,6.7-0.5,9
			C60.4,73.8,58.9,74.3,57.3,74.3C57.3,74.3,57.3,74.3,57.3,74.3z M54.1,67.8C54.1,67.8,54.1,67.8,54.1,67.8l1.4,1.7
			c0.5,0.5,1.1,0.8,1.8,0.8c0,0,0,0,0,0c0.6,0,1.1-0.2,1.6-0.6c1-0.8,1-2.4,0.1-3.4l-1.6-1.9c0,0,0,0,0,0c0,0,0,0,0,0L55,61.4
			c-0.9-1-1.1-2.4-0.6-3.6c0.5-1.3,1.5-2.1,2.8-2.4l4.2-0.7c1.2-0.2,2.2-1.3,2.1-2.5c0-0.7-0.3-1.3-0.9-1.8
			c-0.5-0.4-1.2-0.6-1.9-0.5c0,0,0,0,0,0l-0.2,0c0,0,0,0-0.1,0c0,0,0,0,0,0l-0.2,0c-0.8,0.1-1.6-0.2-2.1-0.9
			c-0.4-0.7-0.4-1.6,0.2-2.3c1.5-1.9,2.3-4.2,2.3-6.6c0-5.8-4.8-10.6-10.6-10.6s-10.6,4.8-10.6,10.6c0,2.4,0.8,4.7,2.3,6.6
			c0.5,0.7,0.6,1.6,0.2,2.3c-0.4,0.7-1.2,1.1-2.1,0.9l-0.2,0c0,0,0,0,0,0c0,0,0,0-0.1,0l-0.2,0c-0.7-0.1-1.4,0.1-1.9,0.5
			c-0.5,0.4-0.9,1.1-0.9,1.8c-0.1,1.2,0.9,2.3,2.1,2.5l4.2,0.7c1.3,0.2,2.4,1.1,2.8,2.4c0.5,1.3,0.2,2.6-0.6,3.6l-2.5,2.9
			c0,0,0,0,0,0c0,0,0,0,0,0l-1.6,1.9c-0.9,1-0.8,2.6,0.1,3.4c1,0.9,2.6,0.7,3.4-0.2l1.4-1.6c0,0,0,0,0.1-0.1c0,0,0,0,0,0l1.2-1.4
			c0.7-0.9,1.8-1.4,2.9-1.4s2.2,0.5,2.9,1.3L54.1,67.8C54.1,67.8,54.1,67.8,54.1,67.8z"/>
	</g>
	<path fill="#C48748" d="M65.5,52.1c-0.1-2.7-2.6-4.6-5.1-4.1L50,49.8L39.6,48c-2.6-0.4-5,1.4-5.1,4.1c-0.1,2.2,1.6,4.1,3.8,4.5
		l4.2,0.7c1.3,0.2,1.8,1.7,1,2.7L39.4,65c-1.5,1.8-1.5,4.6,0.3,6.2c0.8,0.7,1.9,1.1,2.9,1.1c1.2,0,2.5-0.5,3.4-1.6l2.6-3.1
		c0.7-0.9,2-0.9,2.8,0l2.6,3.1c0.9,1,2.1,1.6,3.4,1.6c1,0,2.1-0.4,2.9-1.1c1.8-1.6,1.9-4.4,0.3-6.2l-4.1-4.9c-0.8-1-0.3-2.5,1-2.7
		l4.2-0.7C63.9,56.3,65.6,54.4,65.5,52.1z"/>
	<circle fill="#D4944A" cx="50" cy="40.3" r="12.6"/>
	<g>
		<circle fill="#FFFFFF" cx="45" cy="35.6" r="2.5"/>
		<circle fill="#FFFFFF" cx="55" cy="35.6" r="2.5"/>
	</g>
	<circle fill="#FFF799" cx="50" cy="57.2" r="1.7"/>
	<circle fill="#FFF799" cx="50" cy="62.8" r="1.7"/>
	<path fill="#8B5E3C" d="M50,50.9c-5.8,0-10.5-4.7-10.5-10.5c0-0.6,0.4-1,1-1s1,0.4,1,1c0,4.7,3.8,8.5,8.5,8.5s8.5-3.8,8.5-8.5
		c0-0.6,0.4-1,1-1s1,0.4,1,1C60.5,46.2,55.8,50.9,50,50.9z"/>
	<circle fill="#D7182A" cx="50" cy="42.3" r="3.9"/>
	<path fill="#FFFFFF" d="M60.6,48l1.2,1.2l-1.7,1.7l1.6,1.6L60,54.1l1.5,1.5l-1.3,1.3l1.4-0.2c0.2,0,0.3-0.1,0.5-0.1l0.9-0.9
		l-1.5-1.5l1.7-1.7l-1.6-1.6l1.7-1.7l-1-1C61.7,47.9,61.2,47.9,60.6,48z"/>
	<path fill="#FFFFFF" d="M39.7,56.9l-1.3-1.3l1.5-1.5l-1.7-1.7l1.6-1.6l-1.7-1.7l1.2-1.2c-0.6-0.1-1.1,0-1.6,0.1l-1,1l1.7,1.7
		l-1.6,1.6l1.7,1.7l-1.5,1.5l0.9,0.9c0.2,0,0.3,0.1,0.5,0.1L39.7,56.9z"/>
	<polygon fill="#FFFFFF" points="43.1,67.4 43.1,65.1 40.7,65.1 40.7,63.5 39.6,64.8 39.6,66.2 42,66.2 42,68.5 44.4,68.5 
		44.4,70.7 46.1,70.7 47,69.6 45.5,69.6 45.5,67.4 	"/>
	<polygon fill="#FFFFFF" points="60.4,64.8 59.3,63.5 59.3,65.1 56.9,65.1 56.9,67.4 54.5,67.4 54.5,69.6 53,69.6 53.9,70.7 
		55.6,70.7 55.6,68.5 58,68.5 58,66.2 60.4,66.2 	"/>
</g>
</svg>
