<?xml version="1.0" encoding="utf-8"?>
<!-- Generator: Adobe Illustrator 19.1.0, SVG Export Plug-In . SVG Version: 6.00 Build 0)  -->
<svg version="1.1" id="Layer_1" xmlns="http://www.w3.org/2000/svg" xmlns:xlink="http://www.w3.org/1999/xlink" x="0px" y="0px"
	 viewBox="0 0 100 100" enable-background="new 0 0 100 100" xml:space="preserve">
<g>
	<path d="M59.3,39.1c-0.4-0.8-0.8-1.5-1.4-2.1l0,0c1.4-1.4,2.1-3.4,1.7-5.4c-0.4-2-1.7-3.6-3.5-4.4c-4-1.7-8.4-1.7-12.7,0.1
		c-1.8,0.8-3.1,2.4-3.5,4.4c-0.4,1.9,0.2,3.9,1.6,5.3c-0.7,0.8-1.2,1.7-1.6,2.7c-5.4,4.3-9,11.6-9,18.5c0,9.7,7.5,16,19.1,16
		s19.1-6.3,19.1-16C69.1,51,65.1,43.2,59.3,39.1z M56.2,35.2l-1.6,1.5c-1.4-1-3.1-1.6-4.9-1.6c-1.8,0-3.5,0.6-4.9,1.5l-1.4-1.4
		c-0.9-0.8-1.2-2-1-3.2c0.2-1.2,1-2.1,2-2.5c3.7-1.6,7.3-1.6,10.7-0.2c1.1,0.5,1.8,1.4,2.1,2.6C57.5,33.1,57.1,34.3,56.2,35.2z
		 M46,39.1L46,39.1l0.6,0c-1.5,1.8-3.1,4.5-3.1,7.9c-0.9,0.5-1.6,1.5-1.6,2.7c0,1.7,1.4,3.1,3.1,3.1s3.1-1.4,3.1-3.1
		c0-1.1-0.6-2.1-1.6-2.6c0-3.5,2.2-6.1,3.5-7.2c0.8,0.8,2.1,2.5,2.5,5.3c-0.8,0.6-1.3,1.5-1.3,2.5c0,1.7,1.4,3.1,3.1,3.1
		s3.1-1.4,3.1-3.1c0-1.2-0.7-2.3-1.8-2.8c-0.4-2.6-1.3-4.5-2.3-5.9h0.3l0.1-0.1c7.5,2.3,12.9,11.3,12.9,19.1
		c0,10-8.6,13.5-16.6,13.5s-16.6-3.6-16.6-13.5C33.4,50.4,38.6,41.6,46,39.1z M45,47.7c1.1,0,2.1,0.9,2.1,2.1s-0.9,2.1-2.1,2.1
		c-1.1,0-2.1-0.9-2.1-2.1S43.9,47.7,45,47.7z M54.2,45.7c1.1,0,2.1,0.9,2.1,2.1s-0.9,2.1-2.1,2.1s-2.1-0.9-2.1-2.1
		S53.1,45.7,54.2,45.7z"/>
	<path d="M45.7,30.8c-1.2,0.4-1.9,0.8-1.9,0.9c-0.2,0.1-0.3,0.4-0.2,0.7c0.1,0.2,0.3,0.2,0.4,0.2c0.1,0,0.2,0,0.3-0.1
		c0,0,0.7-0.4,1.7-0.8c0.3-0.1,0.4-0.4,0.3-0.6C46.3,30.9,46,30.8,45.7,30.8z"/>
	<path d="M51.2,30.1c-0.9-0.1-1.8-0.1-2.8,0.1c-0.3,0-0.5,0.3-0.4,0.6c0,0.3,0.2,0.4,0.5,0.4c0,0,0,0,0.1,0c0.8-0.1,1.7-0.1,2.5-0.1
		c0.3,0,0.5-0.2,0.5-0.4C51.6,30.4,51.4,30.1,51.2,30.1z"/>
	<path d="M55.7,31.7c-0.6-0.4-1.2-0.7-1.9-0.9c-0.3-0.1-0.5,0-0.6,0.3c-0.1,0.3,0,0.5,0.3,0.6c0.6,0.2,1.2,0.5,1.7,0.9
		c0.1,0.1,0.2,0.1,0.3,0.1c0.2,0,0.3-0.1,0.4-0.2C56,32.2,56,31.8,55.7,31.7z"/>
</g>
</svg>
