<?xml version="1.0" encoding="utf-8"?>
<!-- Generator: Adobe Illustrator 19.1.0, SVG Export Plug-In . SVG Version: 6.00 Build 0)  -->
<svg version="1.1" id="Layer_1" xmlns="http://www.w3.org/2000/svg" xmlns:xlink="http://www.w3.org/1999/xlink" x="0px" y="0px"
	 viewBox="0 0 100 100" enable-background="new 0 0 100 100" xml:space="preserve">
<g>
	<path d="M71.5,72.2c-2.9-5.4-0.5-10.3-0.4-10.5c0.3-0.6,0.3-1.3,0-1.9c-0.3-0.6-1-1-1.6-1c-4.3-0.2-4.6-3.4-4.6-4.4
		c0-0.7-0.3-1.4-0.9-1.8c-0.6-0.4-1.4-0.4-2,0c-1.3,0.7-2.8,1.2-4.3,1.3c-0.6-1.4-1.8-2.4-3.2-2.9c0.1-0.3,0.1-0.7,0.1-1
		c0-0.6-0.1-1.2-0.3-1.8c2.1-1.4,4.3-2,4.3-2c0.7-0.2,1.2-0.7,1.4-1.4c0.2-0.7,0-1.4-0.5-1.9c-2.9-3-0.8-5.6-0.1-6.3
		c0.5-0.5,0.7-1.2,0.5-1.9c-0.2-0.7-0.7-1.2-1.4-1.4c-5.6-1.5-7.8-7.7-7.8-7.7c-0.3-0.8-1-1.3-1.9-1.3c0,0,0,0,0,0
		c-0.9,0-1.6,0.6-1.9,1.4c-1.8,5.8-7.3,7.6-7.5,7.7c-0.7,0.2-1.2,0.7-1.4,1.4c-0.2,0.7,0,1.4,0.4,1.9c2.9,3.2,0.8,5.6,0.1,6.3
		c-0.5,0.5-0.8,1.2-0.6,1.9c0.2,0.7,0.7,1.3,1.4,1.5c1.5,0.4,2.8,1.1,4,2.1c-0.2,0.6-0.3,1.1-0.3,1.7c0,0.4,0,0.7,0.1,1
		c-1.6,0.6-2.8,1.8-3.4,3.3c-2.7-0.4-4.8-1.7-4.8-1.7c-0.6-0.4-1.4-0.4-2,0c-0.6,0.3-1,1-1,1.7c-0.1,4.2-3.4,4.5-4.4,4.5
		c0,0,0,0,0,0c-0.7,0-1.4,0.4-1.8,1c-0.4,0.6-0.4,1.4,0,2c2.9,5,0.3,11.3,0.3,11.4c-0.3,0.8-0.1,1.7,0.5,2.3
		c0.4,0.3,0.9,0.5,1.4,0.5c0.3,0,0.6-0.1,0.9-0.2c5.4-2.9,10.3-0.5,10.5-0.4c0.6,0.3,1.3,0.3,1.9,0c0.6-0.3,1-1,1-1.6
		c0.2-4.3,3.4-4.6,4.4-4.6c0.7,0,1.4-0.3,1.8-0.9c0.4,0.6,1,0.9,1.6,0.9c4.2,0.1,4.5,3.4,4.5,4.4c0,0.7,0.4,1.4,1,1.8
		c0.3,0.2,0.7,0.3,1,0.3c0.3,0,0.7-0.1,1-0.3c5-2.9,11.3-0.3,11.4-0.3c0.8,0.3,1.7,0.1,2.3-0.5C71.8,73.8,71.9,72.9,71.5,72.2z
		 M28.4,61.2c1.7-0.2,5.6-1.3,6.1-6.1c1.2,0.6,3.7,1.7,6.6,1.8c0,0,0,0,0,0.1c0,0.1,0.1,0.3,0.1,0.4c0,0.1,0.1,0.2,0.1,0.3
		c0,0.1,0.1,0.2,0.1,0.4c0.1,0.1,0.1,0.2,0.2,0.4c0.1,0.1,0.1,0.2,0.2,0.3c0.1,0.2,0.3,0.3,0.4,0.5c0,0,0,0,0.1,0.1
		c0.2,0.2,0.4,0.3,0.6,0.5c0,0,0.1,0.1,0.2,0.1c0.2,0.1,0.3,0.2,0.5,0.3c0.1,0,0.2,0.1,0.3,0.1c0.1,0.1,0.3,0.1,0.4,0.1
		c0.1,0,0.2,0,0.3,0.1c0.1,0,0.1,0,0.2,0c0,2.2,0.4,4.3,1.4,6.2c-0.6,0.1-1.6,0.2-2.5,0.7c-1.5,0.7-3.2,2.2-3.6,5.5
		c-1.6-0.7-6.1-2-11,0.1C29.6,70.7,30.7,65.8,28.4,61.2z M57.2,43.9c-1.2,0.4-3.5,1.3-5.5,3c-0.4-0.4-0.8-0.6-1.3-0.8
		c-0.1,0-0.1,0-0.2-0.1c-0.2-0.1-0.4-0.1-0.5-0.2c-0.3-0.1-0.5-0.1-0.8-0.1c-0.3,0-0.6,0-0.8,0.1c-0.2,0-0.5,0.1-0.7,0.2
		c0,0-0.1,0-0.1,0c-0.5,0.2-1,0.5-1.4,0.9c-1.5-1.4-3.1-2.4-5-3.1c0.4-0.5,0.9-1.3,1.3-2.3c0.5-1.5,0.7-3.8-1.3-6.4
		c1.7-0.7,6-2.8,8-7.9c1,2.1,3.5,6.3,8.3,7.9C56.1,36.7,54.1,40.2,57.2,43.9z M48.9,53.1c-1.7,0-3.2-1.4-3.2-3.2
		c0-0.6,0.2-1.2,0.5-1.7l0.1-0.2c0.1-0.2,0.3-0.4,0.5-0.5c0,0,0.1-0.1,0.1-0.1c0.1-0.1,0.3-0.2,0.4-0.3c0.1,0,0.1-0.1,0.2-0.1
		c0.1-0.1,0.3-0.1,0.5-0.2c0.1,0,0.1,0,0.2-0.1c0.2-0.1,0.5-0.1,0.7-0.1c0.2,0,0.5,0,0.7,0.1c0,0,0,0,0.1,0c0.2,0,0.4,0.1,0.6,0.2
		c0,0,0,0,0,0c0.4,0.2,0.8,0.5,1.1,0.8l0.2,0.2c0.3,0.5,0.6,1.1,0.6,1.8C52,51.7,50.6,53.1,48.9,53.1z M55.7,56.3
		c0,0.2,0,0.4-0.1,0.6c-0.3,1.4-1.6,2.5-3.2,2.5c0,0,0,0,0,0l0,0c-1.7-0.1-3.1-1.4-3.1-3.2c0-1.7,1.4-3.2,3.2-3.2
		S55.7,54.6,55.7,56.3z M45.2,53.2c1.7,0,3.2,1.4,3.2,3.2c0,1.7-1.4,3.2-3.1,3.2l0,0c-0.5,0-1-0.1-1.4-0.4c-0.1-0.1-0.2-0.1-0.3-0.2
		c-0.1-0.1-0.1-0.1-0.2-0.2c-0.1-0.1-0.2-0.1-0.3-0.2c-0.1-0.1-0.2-0.2-0.3-0.3c0-0.1-0.1-0.1-0.1-0.1c-0.1-0.2-0.2-0.3-0.3-0.5
		c0,0,0,0,0,0c-0.2-0.4-0.3-0.8-0.3-1.2l0-0.2C42.1,54.5,43.5,53.2,45.2,53.2z M52.8,60.5c0.1,0,0.2,0,0.3-0.1c0.1,0,0.2,0,0.3-0.1
		c0.2,0,0.3-0.1,0.4-0.1c0.1,0,0.2-0.1,0.3-0.1c0.1-0.1,0.3-0.1,0.4-0.2c0.1-0.1,0.2-0.1,0.3-0.2c0.1-0.1,0.3-0.2,0.4-0.3
		c0.1-0.1,0.1-0.1,0.2-0.2c0.2-0.2,0.3-0.4,0.5-0.6c0,0,0-0.1,0.1-0.1c0.1-0.2,0.2-0.4,0.3-0.6c0-0.1,0.1-0.2,0.1-0.3
		c0.1-0.2,0.1-0.3,0.2-0.5c0-0.1,0-0.2,0-0.3c0-0.1,0-0.3,0.1-0.4c2.1,0,4-0.5,5.8-1.3c0.1,0.6,0.2,1.6,0.7,2.5
		c0.7,1.5,2.2,3.2,5.5,3.6c-0.7,1.6-2,6.1,0.1,11c-2.2-0.7-7.2-1.8-11.7,0.5c-0.2-1.7-1.3-5.6-6.1-6.1
		C51.6,65.5,52.6,63.2,52.8,60.5z M48.5,66c-0.7-1.4-1.2-2.8-1.3-4.4c0.6-0.2,1.2-0.6,1.7-1c0.4,0.3,0.8,0.6,1.3,0.8
		C49.7,63.8,48.7,65.7,48.5,66z"/>
	<path d="M48.8,36.3c-0.3,0-0.5,0.2-0.5,0.5v6.8c0,0.3,0.2,0.5,0.5,0.5s0.5-0.2,0.5-0.5v-6.8C49.3,36.5,49.1,36.3,48.8,36.3z"/>
	<path d="M35.6,66.3l4.8-4.8c0.2-0.2,0.2-0.5,0-0.7s-0.5-0.2-0.7,0l-4.8,4.8c-0.2,0.2-0.2,0.5,0,0.7c0.1,0.1,0.2,0.1,0.4,0.1
		S35.5,66.4,35.6,66.3z"/>
	<path d="M61.4,66.3c0.1,0.1,0.2,0.1,0.4,0.1s0.3,0,0.4-0.1c0.2-0.2,0.2-0.5,0-0.7l-4.8-4.8c-0.2-0.2-0.5-0.2-0.7,0s-0.2,0.5,0,0.7
		L61.4,66.3z"/>
</g>
</svg>
