<?xml version="1.0" encoding="utf-8"?>
<!-- Generator: Adobe Illustrator 19.1.0, SVG Export Plug-In . SVG Version: 6.00 Build 0)  -->
<svg version="1.1" id="Layer_1" xmlns="http://www.w3.org/2000/svg" xmlns:xlink="http://www.w3.org/1999/xlink" x="0px" y="0px"
	 viewBox="0 0 100 100" enable-background="new 0 0 100 100" xml:space="preserve">
<g>
	<g>
		<path fill="#FFFFFF" d="M65.5,31.1c-5,0-10.6,2.7-13.8,6.7c-0.5-0.1-1.1-0.2-1.7-0.2s-1.2,0.1-1.7,0.2c-3.2-4-8.9-6.7-13.8-6.7
			c-7.3,0-10.3,6-10.3,13.3s3,13.3,10.3,13.3c1,0,2.1-0.1,3.1-0.3L37,59c-1.6,4.9,2,9.9,7.1,9.9c2.7,0,5-2.2,5.1-4.9l0.6-12.9
			c0.1,0,0.1,0,0.2,0s0.1,0,0.2,0L50.8,64c0.1,2.7,2.4,4.9,5.1,4.9c5.1,0,8.7-5,7.1-9.9l-0.6-1.7c1.1,0.2,2.1,0.3,3.1,0.3
			c7.3,0,10.3-6,10.3-13.3S72.9,31.1,65.5,31.1z"/>
		<path fill="#00AEEF" d="M55.9,70.9c-2.4,0-4.6-1.2-5.9-3.1c-1.3,1.9-3.4,3.1-5.9,3.1c-3.1,0-5.9-1.4-7.7-4
			c-1.5-2.1-2.1-4.7-1.6-7.3c-7.9,0.2-12.6-5.6-12.6-15.3c0-9.6,4.6-15.3,12.3-15.3c5.3,0,11,2.6,14.6,6.6c0.6,0,1.2,0,1.8,0
			c3.6-4,9.4-6.6,14.6-6.6c7.7,0,12.3,5.7,12.3,15.3c0,9.7-4.7,15.5-12.6,15.3c0.5,2.5-0.1,5.1-1.6,7.3C61.8,69.5,59,70.9,55.9,70.9
			z M50.2,49.1c1.1,0,2,0.8,2,1.9l0.6,12.9c0.1,1.7,1.4,3,3.1,3c1.8,0,3.4-0.8,4.5-2.3c1-1.5,1.3-3.3,0.7-5L60.5,58
			c-0.2-0.7-0.1-1.4,0.4-2c0.5-0.5,1.2-0.8,1.9-0.6c1,0.2,1.9,0.3,2.7,0.3c7.2,0,8.3-7.1,8.3-11.3c0-4.2-1.1-11.3-8.3-11.3
			c-4.4,0-9.5,2.5-12.2,6c-0.5,0.6-1.2,0.9-1.9,0.7c-0.9-0.2-1.8-0.2-2.7,0c-0.7,0.1-1.5-0.1-1.9-0.7c-2.8-3.5-7.8-6-12.2-6
			c-7.2,0-8.3,7.1-8.3,11.3c0,4.2,1.1,11.3,8.3,11.3c0.8,0,1.8-0.1,2.7-0.3c0.7-0.1,1.4,0.1,1.9,0.6c0.5,0.5,0.6,1.3,0.4,2l-0.6,1.7
			c-0.6,1.7-0.3,3.5,0.7,5s2.7,2.3,4.5,2.3c1.7,0,3-1.3,3.1-3L47.8,51c0-1.1,0.9-1.9,2-1.9c0,0,0.1,0,0.2,0L50.2,49.1
			C50.2,49.1,50.2,49.1,50.2,49.1z"/>
	</g>
	<g>
		<path fill="#961622" d="M42.2,43.9L37,59c-1.6,4.9,2,9.9,7.1,9.9h0c2.7,0,5-2.2,5.1-4.9l0.9-21.3L42.2,43.9z"/>
		<path fill="#961622" d="M57.8,43.9L63,59c1.6,4.9-2,9.9-7.1,9.9h0c-2.7,0-5-2.2-5.1-4.9l-0.9-21.3L57.8,43.9z"/>
	</g>
	<g>
		<path fill="#BE1E2D" d="M50.8,44.4c0,7.3-9,13.3-16.3,13.3s-10.3-6-10.3-13.3s3-13.3,10.3-13.3S50.8,37.1,50.8,44.4z"/>
		<path fill="#BE1E2D" d="M49.2,44.4c0,7.3,9,13.3,16.3,13.3s10.3-6,10.3-13.3s-3-13.3-10.3-13.3S49.2,37.1,49.2,44.4z"/>
	</g>
	<path fill="#ED1B2F" d="M56.7,44.4c0,4.3-2.5,6.7-6.7,6.7s-6.7-2.5-6.7-6.7s2.5-6.7,6.7-6.7S56.7,40.1,56.7,44.4z"/>
</g>
</svg>
