<?xml version="1.0" encoding="utf-8"?>
<!-- Generator: Adobe Illustrator 19.1.0, SVG Export Plug-In . SVG Version: 6.00 Build 0)  -->
<svg version="1.1" id="Layer_1" xmlns="http://www.w3.org/2000/svg" xmlns:xlink="http://www.w3.org/1999/xlink" x="0px" y="0px"
	 viewBox="0 0 100 100" enable-background="new 0 0 100 100" xml:space="preserve">
<g>
	<g>
		<path fill="#FFFFFF" d="M57.9,53l-0.8-0.2V41.9c1.6-0.3,2.8-1.6,2.8-3.2v-7.7c0-1.8-1.5-3.3-3.3-3.3H38c-1.8,0-3.3,1.5-3.3,3.3
			v7.7c0,1.6,1.2,3,2.8,3.2l0,17.7c0,4,2.2,7.7,5.6,9.6c0.3,0.1,0.5,0.3,0.8,0.4c0.6,0.2,1.1,0.5,1.7,0.6l7.4,1.9
			c5.3,1.3,10.6-1.8,12-7.1C66.4,59.7,63.2,54.3,57.9,53z"/>
		<path fill="#00AEEF" d="M55.5,74.4c-1,0-1.9-0.1-2.9-0.4l-7.4-1.9c-0.7-0.2-1.4-0.4-2.1-0.7c-0.3-0.1-0.6-0.3-1-0.5
			c-4.1-2.3-6.7-6.6-6.7-11.3l0-16.2c-1.7-0.9-2.8-2.7-2.8-4.6v-7.7c0-2.9,2.4-5.3,5.3-5.3h18.6c2.9,0,5.3,2.4,5.3,5.3v7.7
			c0,2-1.1,3.7-2.8,4.6v7.9c5.9,1.9,9.4,8.1,7.9,14.2C65.6,70.8,60.8,74.4,55.5,74.4z M38,29.6c-0.7,0-1.3,0.6-1.3,1.3v7.7
			c0,0.6,0.5,1.2,1.1,1.3c1,0.2,1.7,1,1.7,2l0,17.7c0,3.3,1.8,6.2,4.6,7.8c0.2,0.1,0.4,0.2,0.7,0.3c0.5,0.2,0.9,0.4,1.4,0.5l7.4,1.9
			c4.2,1.1,8.5-1.5,9.5-5.7c1.1-4.2-1.5-8.5-5.7-9.5l-0.8-0.2c-0.9-0.2-1.5-1-1.5-1.9V41.9c0-1,0.7-1.8,1.7-2
			c0.6-0.1,1.1-0.6,1.1-1.3v-7.7c0-0.7-0.6-1.3-1.3-1.3H38z"/>
	</g>
	<path fill="#ED1B2F" d="M37.4,59.6c0,5,3.4,9.3,8.2,10.6l7.4,1.9c5.3,1.3,10.6-1.8,12-7.1l0,0c1.3-5.3-1.8-10.6-7.1-12l-0.8-0.2
		V35.6H37.4L37.4,59.6z"/>
	<path fill="#FDFDFE" d="M40.8,57.2c-1.2,0-2.3,0.2-3.4,0.7l0,1.7c0,5,3.4,9.3,8.2,10.6l2,0.5c1-1.4,1.6-3.1,1.6-5
		C49.3,61,45.5,57.2,40.8,57.2z"/>
	<path fill="#FDFDFE" d="M56.6,41.9H38c-1.8,0-3.3-1.5-3.3-3.3v-7.7c0-1.8,1.5-3.3,3.3-3.3h18.6c1.8,0,3.3,1.5,3.3,3.3v7.7
		C59.9,40.5,58.4,41.9,56.6,41.9z"/>
</g>
</svg>
