<?xml version="1.0" encoding="utf-8"?>
<!-- Generator: Adobe Illustrator 19.1.0, SVG Export Plug-In . SVG Version: 6.00 Build 0)  -->
<svg version="1.1" id="Layer_1" xmlns="http://www.w3.org/2000/svg" xmlns:xlink="http://www.w3.org/1999/xlink" x="0px" y="0px"
	 viewBox="0 0 100 100" enable-background="new 0 0 100 100" xml:space="preserve">
<g>
	<g>
		<path fill="#FFFFFF" d="M66.7,34.3c-2.7-2.7-7-2.7-9.7,0c-0.2,0.2-0.4,0.5-0.6,0.7c-8.6,0.9-15.2,5.9-18.4,13.4
			c-2.3,5.4-4.7,11.7-4.8,14.8c-0.1,2.3,2.3,4.7,4.6,4.6c3.1-0.1,9.4-2.5,14.8-4.8c7.5-3.2,12.6-9.8,13.4-18.4c0,0,0,0,0,0
			c0.2-0.2,0.5-0.4,0.7-0.6C69.4,41.3,69.4,36.9,66.7,34.3z"/>
		<path fill="#00AEEF" d="M37.7,69.8c-1.6,0-3.2-0.7-4.5-2c-1.3-1.3-2-3-2-4.7c0.1-2.8,1.8-8,4.9-15.5c3.4-8.1,10.4-13.4,19.2-14.5
			c0.1-0.1,0.2-0.2,0.2-0.2c1.7-1.7,3.9-2.6,6.3-2.6c2.4,0,4.6,0.9,6.3,2.6l0,0c3.5,3.5,3.5,9.1,0,12.5c-0.1,0.1-0.2,0.2-0.2,0.2
			c-1.1,8.8-6.4,15.8-14.5,19.2c-7.5,3.2-12.7,4.8-15.5,4.9C37.9,69.8,37.8,69.8,37.7,69.8z M61.9,34.2c-1.3,0-2.5,0.5-3.4,1.4
			c-0.2,0.2-0.3,0.3-0.4,0.5c-0.3,0.4-0.8,0.7-1.4,0.8c-7.7,0.8-13.8,5.2-16.8,12.2c-3.9,9.2-4.6,12.8-4.6,14.1
			c0,0.5,0.3,1.2,0.8,1.7c0.5,0.5,1.2,0.8,1.7,0.8c1.3,0,4.9-0.7,14.1-4.6c7-3,11.4-9,12.2-16.7c0,0,0,0,0,0c0,0,0-0.1,0-0.1
			c0.1-0.6,0.5-1.2,1-1.5c0.1-0.1,0.2-0.2,0.3-0.3c1.9-1.9,1.9-5,0-6.9l0,0C64.4,34.7,63.2,34.2,61.9,34.2z"/>
	</g>
	<path fill="#F1F2F2" d="M66.7,34.3c-2.7-2.7-7-2.7-9.7,0c-0.2,0.2-0.4,0.5-0.6,0.7c0,0,0,0,0,0c3.1-0.3,6,0.1,7.8,1.8
		c1.7,1.7,2.1,4.6,1.8,7.8c0,0,0,0,0,0c0.2-0.2,0.5-0.4,0.7-0.6C69.4,41.3,69.4,36.9,66.7,34.3z"/>
	<path fill="#F7941E" d="M38,48.4c3.2-7.5,9.8-12.6,18.4-13.4c3.1-0.3,6,0.1,7.8,1.8c1.7,1.7,2.1,4.6,1.8,7.8
		c-0.8,8.6-5.9,15.3-13.4,18.4c-5.4,2.3-11.7,4.7-14.8,4.8c-2.3,0.1-4.7-2.3-4.6-4.6C33.4,60,35.7,53.7,38,48.4z"/>
	<path fill="#FDB913" d="M47.7,46.1c1.6-3.7,4.8-6.1,9-6.6c1.5-0.2,3,0,3.8,0.9s1,2.3,0.9,3.8c-0.4,4.2-2.9,7.5-6.6,9
		c-2.6,1.1-5.7,2.3-7.2,2.3c-1.1,0-2.3-1.1-2.3-2.3C45.4,51.8,46.6,48.7,47.7,46.1z"/>
</g>
</svg>
