<?xml version="1.0" encoding="utf-8"?>
<!-- Generator: Adobe Illustrator 19.1.0, SVG Export Plug-In . SVG Version: 6.00 Build 0)  -->
<svg version="1.1" id="Layer_1" xmlns="http://www.w3.org/2000/svg" xmlns:xlink="http://www.w3.org/1999/xlink" x="0px" y="0px"
	 viewBox="0 0 100 100" enable-background="new 0 0 100 100" xml:space="preserve">
<g>
	<g>
		<path fill="#FFFFFF" d="M57.7,40.4c-0.6-1.4-1.5-2.6-2.6-3.5l1.5-1.5c2.1-2,1.4-5.4-1.2-6.6c-4.3-1.8-8.2-1.1-11.1,0.2
			c-2.6,1.1-3.2,4.6-1.2,6.6l1.3,1.3c-1.3,1-2.3,2.4-2.8,4c-5.2,3.8-8.7,10.8-8.7,17.2c0,9.4,7.7,14,17.1,14s17.1-4.6,17.1-14
			C67.1,51.5,63.3,44.2,57.7,40.4z"/>
		<path fill="#00AEEF" d="M50,74.2c-11.6,0-19.1-6.3-19.1-16c0-6.8,3.6-14.2,9-18.5c0.4-1,1-1.9,1.6-2.7c-1.4-1.4-2-3.4-1.6-5.3
			c0.4-2,1.7-3.6,3.5-4.4c4.3-1.8,8.7-1.9,12.7-0.2c1.8,0.8,3.2,2.5,3.5,4.4c0.4,2-0.3,4-1.7,5.4l0,0c0.5,0.7,1,1.4,1.4,2.1
			c5.8,4.1,9.8,11.9,9.8,19C69.1,67.9,61.6,74.2,50,74.2z M50.1,29.8c-1.7,0-3.4,0.4-5.1,1.1c-0.6,0.3-1,0.8-1.1,1.4
			c-0.1,0.7,0.1,1.4,0.6,1.9l1.3,1.3c0.4,0.4,0.6,1,0.6,1.5c0,0.6-0.3,1.1-0.8,1.5c-1,0.8-1.8,1.8-2.2,3.1c-0.1,0.4-0.4,0.7-0.7,1
			c-4.6,3.4-7.9,9.9-7.9,15.6c0,11.2,11.6,12,15.1,12s15.1-0.9,15.1-12c0-6.1-3.5-12.7-8.5-16c-0.3-0.2-0.6-0.5-0.7-0.9
			c-0.4-1-1.1-2-2-2.7c-0.5-0.4-0.7-0.9-0.8-1.5c0-0.6,0.2-1.1,0.6-1.5l1.5-1.5c0.5-0.5,0.7-1.1,0.6-1.8c-0.1-0.7-0.6-1.2-1.2-1.5
			C53.1,30.1,51.6,29.8,50.1,29.8z"/>
	</g>
	<path fill="#ED1B2F" d="M46.2,38.6l-3.1-3c-2-2-1.5-5.5,1.2-6.6c2.9-1.2,6.9-2,11.1-0.2c2.6,1.1,3.3,4.6,1.2,6.6l-3.2,3.1H46.2z"/>
	<path fill="#FFF799" d="M49.7,52.4c-4.8,0-8.6-3.9-8.6-8.6s3.9-8.6,8.6-8.6s8.6,3.9,8.6,8.6S54.5,52.4,49.7,52.4z M49.7,38.1
		c-3.1,0-5.6,2.5-5.6,5.6s2.5,5.6,5.6,5.6s5.6-2.5,5.6-5.6S52.8,38.1,49.7,38.1z"/>
	<path fill="#ED1B2F" d="M67.1,58.1c0,9.4-7.7,14-17.1,14s-17.1-4.6-17.1-14S40.6,38,50,38S67.1,48.7,67.1,58.1z"/>
	<path fill="#FFF799" d="M45.1,49.9c-0.7,0-1.4-0.5-1.5-1.3c-1-7.2,5.3-11.7,5.5-11.9c0.5-0.3,1.1-0.4,1.6-0.1
		c0.2,0.1,5.4,3.3,5,11.8c0,0.8-0.7,1.5-1.6,1.4c-0.8,0-1.5-0.7-1.4-1.6c0.2-4.8-1.6-7.4-2.7-8.4c-1.4,1.3-4,4.2-3.4,8.3
		c0.1,0.8-0.5,1.6-1.3,1.7C45.2,49.9,45.2,49.9,45.1,49.9z"/>
	<g>
		<path fill="#961622" d="M44.1,32.6c-0.2,0-0.3-0.1-0.4-0.2c-0.1-0.2-0.1-0.5,0.2-0.7c0,0,0.7-0.4,1.9-0.8c0.3-0.1,0.5,0,0.6,0.3
			c0.1,0.3,0,0.5-0.3,0.6c-1.1,0.4-1.7,0.8-1.7,0.8C44.3,32.6,44.2,32.6,44.1,32.6z"/>
		<path fill="#961622" d="M48.5,31.2c-0.2,0-0.5-0.2-0.5-0.4c0-0.3,0.2-0.5,0.4-0.6c0.9-0.1,1.8-0.2,2.8-0.1c0.3,0,0.5,0.3,0.4,0.5
			s-0.3,0.5-0.5,0.4C50.2,31,49.4,31.1,48.5,31.2C48.5,31.2,48.5,31.2,48.5,31.2z"/>
		<path fill="#961622" d="M55.5,32.6c-0.1,0-0.2,0-0.3-0.1c-0.5-0.3-1.1-0.6-1.7-0.9c-0.3-0.1-0.4-0.4-0.3-0.6
			c0.1-0.3,0.4-0.4,0.6-0.3c0.6,0.2,1.3,0.6,1.9,0.9c0.2,0.1,0.3,0.5,0.2,0.7C55.8,32.5,55.6,32.6,55.5,32.6z"/>
	</g>
	<circle fill="#FFF450" cx="45" cy="49.8" r="2.6"/>
	<circle fill="#FFF450" cx="54.2" cy="47.8" r="2.6"/>
</g>
</svg>
