<?xml version="1.0" encoding="utf-8"?>
<!-- Generator: Adobe Illustrator 19.1.0, SVG Export Plug-In . SVG Version: 6.00 Build 0)  -->
<svg version="1.1" id="Layer_1" xmlns="http://www.w3.org/2000/svg" xmlns:xlink="http://www.w3.org/1999/xlink" x="0px" y="0px"
	 viewBox="0 0 100 100" enable-background="new 0 0 100 100" xml:space="preserve">
<g>
	<g>
		<path fill="#FFFFFF" d="M59.7,55.8c2.3-1.1,4.3-2.6,6.1-4.4c-4.2-0.2-8-2-10.8-4.7c2.6-0.8,4.9-2.3,6.7-4.2
			c-5.2-0.2-9.6-3.8-11.1-8.6c1.8-0.3,3.2-1.8,3.2-3.7c0-2.1-1.7-3.8-3.8-3.8c-2.1,0-3.8,1.7-3.8,3.8c0,1.9,1.4,3.4,3.2,3.7
			c-1.5,4.8-5.9,8.3-11.1,8.6c1.8,1.9,4.1,3.3,6.7,4.2c-2.8,2.8-6.6,4.5-10.8,4.7c1.8,1.8,3.8,3.3,6.1,4.4
			c-3.1,2.1-6.9,3.4-10.9,3.6c4.4,4.5,10.2,7.6,16.8,8.4v5.8h7.5v-5.8c6.6-0.9,12.4-3.9,16.8-8.4C66.5,59.2,62.8,57.9,59.7,55.8z"/>
		<path fill="#00AEEF" d="M53.7,75.5h-7.5c-1.1,0-2-0.9-2-2v-4.1c-6.1-1.2-11.8-4.2-16.2-8.7c-0.5-0.6-0.7-1.4-0.4-2.1
			c0.3-0.7,1-1.2,1.8-1.3c2.4-0.1,4.7-0.7,6.9-1.6c-1.3-0.9-2.4-1.9-3.5-3c-0.5-0.6-0.7-1.4-0.4-2.1s1-1.2,1.8-1.3
			c2.5-0.1,4.9-0.9,7-2.2c-1.6-0.9-3-2-4.3-3.3c-0.5-0.6-0.7-1.4-0.4-2.1s1-1.2,1.8-1.3c3.7-0.2,6.9-2.3,8.6-5.5
			c-1.6-1-2.6-2.8-2.6-4.8c0-3.2,2.6-5.8,5.8-5.8s5.8,2.6,5.8,5.8c0,2-1,3.8-2.6,4.8c1.7,3.2,4.9,5.3,8.6,5.5c0.8,0,1.5,0.5,1.8,1.3
			s0.1,1.6-0.4,2.1c-1.3,1.3-2.7,2.4-4.3,3.3c2.1,1.3,4.5,2.1,7,2.2c0.8,0,1.5,0.5,1.8,1.3s0.1,1.6-0.4,2.1c-1.1,1.1-2.2,2.1-3.5,3
			c2.2,1,4.5,1.5,6.9,1.6c0.8,0,1.5,0.5,1.8,1.3c0.3,0.7,0.1,1.6-0.4,2.1c-4.4,4.5-10.1,7.6-16.2,8.7v4.1
			C55.7,74.6,54.9,75.5,53.7,75.5z M48.2,71.5h3.5v-3.8c0-1,0.7-1.9,1.7-2c4.5-0.6,8.8-2.4,12.5-5.1c-2.6-0.6-5.1-1.7-7.4-3.2
			c-0.6-0.4-0.9-1.1-0.9-1.8c0-0.7,0.5-1.4,1.1-1.7c0.8-0.4,1.6-0.9,2.4-1.4c-2.8-0.9-5.5-2.4-7.6-4.5c-0.5-0.5-0.7-1.2-0.5-1.9
			c0.2-0.7,0.7-1.2,1.3-1.4c1-0.3,1.9-0.7,2.7-1.2c-3-1.2-5.5-3.3-7.1-6c-1.6,2.8-4.2,4.9-7.1,6c0.9,0.5,1.8,0.9,2.7,1.2
			c0.7,0.2,1.2,0.8,1.3,1.4c0.2,0.7,0,1.4-0.5,1.9c-2.2,2.1-4.8,3.7-7.6,4.5c0.8,0.5,1.6,1,2.4,1.4c0.6,0.3,1.1,1,1.1,1.7
			c0,0.7-0.3,1.4-0.9,1.8c-2.3,1.5-4.8,2.6-7.4,3.2c3.6,2.7,8,4.5,12.5,5.1c1,0.1,1.7,1,1.7,2V71.5z M50,28.5c-1,0-1.8,0.8-1.8,1.8
			c0,0.9,0.6,1.6,1.5,1.7c0.1,0,0.2,0,0.3,0.1c0.1,0,0.2,0,0.3-0.1c0.9-0.1,1.5-0.9,1.5-1.7C51.7,29.2,51,28.5,50,28.5z"/>
	</g>
	<rect x="46.2" y="67" fill="#898452" width="7.5" height="6.5"/>
	<g>
		<path fill="#009444" d="M50,37.8c0,11.6-9.1,21-20.6,21.5C34.7,64.7,41.9,68,50,68s15.3-3.3,20.6-8.7C59.1,58.8,50,49.4,50,37.8z"
			/>
	</g>
	<g>
		<path fill="#8DC63F" d="M50,34.8c0,8.9-7,16.1-15.8,16.5c4,4.1,9.6,6.7,15.8,6.7s11.8-2.6,15.8-6.7C57,50.9,50,43.7,50,34.8z"/>
	</g>
	<g>
		<path fill="#009444" d="M50,30.2c0,6.6-5.2,12-11.7,12.3c3,3,7.1,4.9,11.7,4.9s8.7-1.9,11.7-4.9C55.2,42.2,50,36.8,50,30.2z"/>
	</g>
	<circle fill="#48B6C1" cx="40.7" cy="60.9" r="2"/>
	<circle fill="#C2499B" cx="55.7" cy="52.1" r="2"/>
	<circle fill="#ED1B2F" cx="48.2" cy="42.7" r="2"/>
	<circle fill="#FFF450" cx="50" cy="30.2" r="3.8"/>
</g>
</svg>
