<?xml version="1.0" encoding="utf-8"?>
<!-- Generator: Adobe Illustrator 19.1.0, SVG Export Plug-In . SVG Version: 6.00 Build 0)  -->
<svg version="1.1" id="Layer_1" xmlns="http://www.w3.org/2000/svg" xmlns:xlink="http://www.w3.org/1999/xlink" x="0px" y="0px"
	 viewBox="0 0 100 100" enable-background="new 0 0 100 100" xml:space="preserve">
<g>
	<g>
		<path fill="#FFFFFF" d="M67,41.6l-10.8-1.5l-4.8-9.8c-0.6-1.2-2.3-1.2-2.8,0l-4.8,9.8L33,41.6c-1.3,0.2-1.8,1.8-0.9,2.7l7.8,7.6
			l-1.9,10.7c-0.2,1.3,1.1,2.3,2.3,1.7l7.1-3.8L43,70.6H57l-4.5-10.1l7.1,3.8c1.2,0.6,2.5-0.4,2.3-1.7L60,51.9l7.8-7.6
			C68.8,43.4,68.3,41.8,67,41.6z"/>
		<path fill="#00AEEF" d="M57,72.6H43c-0.7,0-1.3-0.3-1.7-0.9s-0.4-1.3-0.2-1.9l2.1-4.8l-2,1.1c-1.2,0.6-2.7,0.5-3.8-0.3
			c-1.1-0.8-1.7-2.2-1.4-3.5l1.7-9.7l-7.1-6.8c-1-1-1.3-2.4-0.9-3.7c0.4-1.3,1.5-2.2,2.9-2.4l9.7-1.4l4.3-8.8c0.6-1.2,1.8-2,3.2-2
			s2.6,0.8,3.2,2l4.3,8.8l9.7,1.4c1.4,0.2,2.5,1.1,2.9,2.4s0.1,2.7-0.9,3.7l-7.1,6.8l1.7,9.7c0.2,1.4-0.3,2.7-1.4,3.5
			c-1.1,0.8-2.6,0.9-3.8,0.3l-2-1.1l2.1,4.8c0.3,0.6,0.2,1.3-0.2,1.9S57.6,72.6,57,72.6z M46.1,68.6h7.8l-3.2-7.3
			c-0.3-0.8-0.2-1.7,0.5-2.3c0.6-0.6,1.5-0.7,2.3-0.3l6.3,3.4L58,52.2c-0.1-0.7,0.1-1.3,0.6-1.8l7.2-6.9l-9.9-1.4
			c-0.7-0.1-1.2-0.5-1.5-1.1L50,32l-4.4,9c-0.3,0.6-0.9,1-1.5,1.1l-9.9,1.4l7.2,6.9c0.5,0.5,0.7,1.1,0.6,1.8l-1.8,9.9l6.3-3.4
			c0.8-0.4,1.7-0.3,2.3,0.3c0.6,0.6,0.8,1.5,0.5,2.3L46.1,68.6z"/>
	</g>
	<polygon fill="#D4944A" points="57,70.6 50,54.8 43,70.6 	"/>
	<path fill="#FFF450" d="M51.4,30.3l4.8,9.8L67,41.6c1.3,0.2,1.8,1.8,0.9,2.7L60,51.9l1.9,10.7c0.2,1.3-1.1,2.3-2.3,1.7L50,59.1
		l-9.6,5.1c-1.2,0.6-2.5-0.4-2.3-1.7L40,51.9l-7.8-7.6c-0.9-0.9-0.4-2.5,0.9-2.7l10.8-1.5l4.8-9.8C49.2,29.2,50.8,29.2,51.4,30.3z"
		/>
	<path fill="#FEF8C3" d="M52.1,41.4l1.3,2.6l2.9,0.4c1.9,0.3,2.7,2.6,1.3,4l-2.1,2l0.5,2.9c0.3,1.9-1.7,3.4-3.4,2.5L50,54.4
		l-2.6,1.4c-1.7,0.9-3.7-0.5-3.4-2.5l0.5-2.9l-2.1-2c-1.4-1.3-0.6-3.7,1.3-4l2.9-0.4l1.3-2.6C48.8,39.7,51.2,39.7,52.1,41.4z"/>
	<path fill="#C47D40" d="M52.7,68.7h-5.5c-0.3,0-0.5-0.2-0.5-0.5s0.2-0.5,0.5-0.5h5.5c0.3,0,0.5,0.2,0.5,0.5S53,68.7,52.7,68.7z"/>
</g>
</svg>
