<?xml version="1.0" encoding="utf-8"?>
<!-- Generator: Adobe Illustrator 19.1.0, SVG Export Plug-In . SVG Version: 6.00 Build 0)  -->
<svg version="1.1" id="Layer_1" xmlns="http://www.w3.org/2000/svg" xmlns:xlink="http://www.w3.org/1999/xlink" x="0px" y="0px"
	 viewBox="0 0 100 100" enable-background="new 0 0 100 100" xml:space="preserve">
<path d="M77.8,44.4c0-9.6-4.6-15.3-12.3-15.3c-5.3,0-11,2.6-14.6,6.6c-0.6,0-1.2,0-1.8,0c-3.6-4-9.4-6.6-14.6-6.6
	c-7.7,0-12.3,5.7-12.3,15.3c0,9.7,4.7,15.5,12.6,15.3c-0.5,2.5,0.1,5.1,1.6,7.3c1.8,2.5,4.6,4,7.7,4c2.4,0,4.6-1.2,5.9-3.1
	c1.3,1.9,3.4,3.1,5.9,3.1c3.1,0,5.9-1.4,7.7-4c1.5-2.1,2.1-4.7,1.6-7.3C73.1,59.9,77.8,54.1,77.8,44.4z M44.1,68.4
	c-2.3,0-4.3-1.1-5.7-2.9c-1.3-1.9-1.7-4.1-0.9-6.3l0.5-1.4c0,0,0.1,0,0.1,0c0.5-0.1,0.9-0.2,1.4-0.4c0.1,0,0.2-0.1,0.3-0.1
	c0.3-0.1,0.6-0.2,0.9-0.3c0.2-0.1,0.4-0.2,0.6-0.3c0.1-0.1,0.3-0.1,0.4-0.2c0.5-0.2,0.9-0.4,1.4-0.7c0.1,0,0.1-0.1,0.2-0.1
	c0.8-0.5,1.6-1,2.3-1.5c0.1-0.1,0.3-0.2,0.4-0.3c0.2-0.1,0.4-0.3,0.5-0.4c0.3-0.3,0.6-0.5,0.9-0.8c0.1-0.1,0.2-0.2,0.3-0.3
	c0.2-0.3,0.5-0.5,0.7-0.8c0-0.1,0.1-0.1,0.1-0.1c0.3,0,0.5,0.1,0.8,0.1L48.7,64C48.6,66.5,46.6,68.4,44.1,68.4z M34.5,31.6
	c4.6,0,9.8,2.4,12.9,5.9c0,0,0,0-0.1,0c-0.7,0.2-1.3,0.5-1.8,0.9c0,0-0.1,0.1-0.1,0.1c-0.3,0.2-0.5,0.4-0.7,0.6c0,0,0,0,0,0
	c-0.2,0.2-0.4,0.5-0.6,0.7c0,0,0,0-0.1,0.1c-0.2,0.3-0.3,0.6-0.5,0.9c0,0,0,0.1,0,0.1c-0.1,0.3-0.2,0.6-0.3,0.9c0,0,0,0,0,0.1
	c-0.1,0.3-0.2,0.7-0.2,1c0,0.1,0,0.2,0,0.2c0,0.4-0.1,0.7-0.1,1.1c0,0.4,0,0.8,0.1,1.1c0,0.1,0,0.2,0,0.2c0,0.4,0.1,0.7,0.2,1
	c0,0,0,0,0,0.1c0.1,0.3,0.2,0.6,0.3,0.9c0,0,0,0.1,0,0.1c0.1,0.3,0.3,0.6,0.5,0.9c0,0,0,0,0.1,0.1c0.2,0.3,0.4,0.5,0.6,0.7
	c0,0,0,0,0,0c0.2,0.2,0.5,0.4,0.7,0.6c0,0,0.1,0.1,0.1,0.1c0.5,0.4,1.1,0.7,1.8,0.9c0,0,0,0,0.1,0c-0.1,0.1-0.1,0.1-0.2,0.2
	c-0.2,0.2-0.5,0.5-0.7,0.7c-0.2,0.2-0.3,0.3-0.5,0.5c-0.2,0.2-0.5,0.4-0.8,0.6c-0.4,0.3-0.8,0.6-1.1,0.8c-0.2,0.2-0.5,0.3-0.7,0.5
	c-0.3,0.2-0.6,0.3-0.9,0.5c-0.2,0.1-0.4,0.2-0.7,0.3c-0.3,0.1-0.6,0.3-0.9,0.4c-0.2,0.1-0.5,0.2-0.7,0.3c-0.3,0.1-0.6,0.2-0.9,0.3
	c-0.2,0.1-0.5,0.1-0.7,0.2c-0.3,0.1-0.6,0.2-0.9,0.2c-1.1,0.2-2.2,0.4-3.2,0.4c-8.8,0-9.8-8.9-9.8-12.8S25.6,31.6,34.5,31.6z
	 M48.5,38.3l0.1,0c0.4-0.1,0.9-0.1,1.4-0.1c0.5,0,0.9,0,1.4,0.1l0.1,0c0.1,0,0.3,0.1,0.4,0.1c1.3,0.3,2.3,0.9,3,1.8
	c0,0,0.1,0.1,0.1,0.1c0.2,0.2,0.3,0.4,0.4,0.7c0,0.1,0.1,0.2,0.1,0.3c0.1,0.2,0.2,0.4,0.3,0.7c0.1,0.2,0.1,0.3,0.1,0.5
	c0,0.2,0.1,0.4,0.1,0.6c0.1,0.4,0.1,0.8,0.1,1.3c0,0.5,0,0.9-0.1,1.3c0,0.2-0.1,0.4-0.1,0.6c0,0.2-0.1,0.4-0.1,0.5
	c-0.1,0.2-0.2,0.5-0.3,0.7c0,0.1-0.1,0.2-0.1,0.3c-0.1,0.2-0.3,0.5-0.4,0.7c0,0-0.1,0.1-0.1,0.1c-0.7,0.9-1.7,1.5-3,1.8
	c-0.1,0-0.2,0.1-0.4,0.1c-0.1,0-0.3,0-0.4,0.1c-0.3,0-0.7,0.1-1.1,0.1l-0.1,0l-0.1,0c-0.4,0-0.7,0-1.1-0.1c-0.1,0-0.3,0-0.4-0.1
	c-0.1,0-0.2-0.1-0.4-0.1c-1.3-0.3-2.3-0.9-3-1.8c0,0-0.1-0.1-0.1-0.1c-0.2-0.2-0.3-0.4-0.4-0.7c0-0.1-0.1-0.2-0.1-0.3
	c-0.1-0.2-0.2-0.4-0.3-0.7c-0.1-0.2-0.1-0.3-0.1-0.5c0-0.2-0.1-0.4-0.1-0.6c-0.1-0.4-0.1-0.8-0.1-1.3c0-0.5,0-0.9,0.1-1.3
	c0-0.2,0.1-0.4,0.1-0.6c0-0.2,0.1-0.4,0.1-0.5c0.1-0.2,0.2-0.5,0.3-0.7c0-0.1,0.1-0.2,0.1-0.3c0.1-0.2,0.3-0.5,0.4-0.7
	c0,0,0.1-0.1,0.1-0.1c0.7-0.9,1.7-1.5,3-1.8C48.2,38.4,48.3,38.3,48.5,38.3z M51.5,51.5c0,0.1,0.1,0.1,0.1,0.1
	c0.2,0.3,0.5,0.5,0.7,0.8c0.1,0.1,0.2,0.2,0.3,0.3c0.3,0.3,0.6,0.5,0.9,0.8c0.2,0.2,0.4,0.3,0.5,0.4c0.1,0.1,0.3,0.2,0.4,0.3
	c0.7,0.6,1.5,1.1,2.3,1.5c0.1,0,0.1,0.1,0.2,0.1c0.5,0.3,0.9,0.5,1.4,0.7c0.1,0.1,0.3,0.1,0.4,0.2c0.2,0.1,0.4,0.2,0.6,0.3
	c0.3,0.1,0.6,0.2,0.9,0.3c0.1,0,0.2,0.1,0.3,0.1c0.5,0.1,0.9,0.3,1.4,0.4c0,0,0.1,0,0.1,0l0.5,1.4c0.7,2.2,0.4,4.5-0.9,6.3
	c-1.3,1.9-3.4,2.9-5.7,2.9c-2.5,0-4.5-1.9-4.6-4.4l-0.5-12.4C51,51.6,51.3,51.5,51.5,51.5z M62.3,56.8c-0.3-0.1-0.6-0.1-0.9-0.2
	c-0.2-0.1-0.5-0.1-0.7-0.2c-0.3-0.1-0.6-0.2-0.9-0.3c-0.2-0.1-0.5-0.2-0.7-0.3c-0.3-0.1-0.6-0.3-0.9-0.4c-0.2-0.1-0.4-0.2-0.7-0.3
	c-0.3-0.2-0.6-0.3-0.8-0.5c-0.3-0.2-0.5-0.3-0.8-0.5c-0.4-0.3-0.8-0.5-1.1-0.8c-0.3-0.2-0.5-0.4-0.8-0.6c-0.2-0.2-0.3-0.3-0.5-0.5
	c-0.2-0.2-0.5-0.5-0.7-0.7c-0.1-0.1-0.1-0.1-0.2-0.2c0,0,0,0,0.1,0c0.7-0.2,1.3-0.5,1.8-0.9c0,0,0.1-0.1,0.1-0.1
	c0.3-0.2,0.5-0.4,0.7-0.6c0,0,0,0,0,0c0.2-0.2,0.4-0.5,0.6-0.7c0,0,0,0,0.1-0.1c0.2-0.3,0.3-0.6,0.5-0.9c0,0,0-0.1,0-0.1
	c0.1-0.3,0.2-0.6,0.3-0.9c0,0,0,0,0-0.1c0.1-0.3,0.2-0.7,0.2-1c0-0.1,0-0.2,0-0.2c0-0.4,0.1-0.7,0.1-1.1c0-0.4,0-0.8-0.1-1.1
	c0-0.1,0-0.2,0-0.2c0-0.4-0.1-0.7-0.2-1c0,0,0,0,0-0.1c-0.1-0.3-0.2-0.6-0.3-0.9c0,0,0-0.1,0-0.1c-0.1-0.3-0.3-0.6-0.5-0.9
	c0,0,0,0-0.1-0.1c-0.2-0.3-0.4-0.5-0.6-0.7c0,0,0,0,0,0c-0.2-0.2-0.5-0.4-0.7-0.6c0,0-0.1-0.1-0.1-0.1c-0.5-0.4-1.1-0.7-1.8-0.9
	c0,0,0,0-0.1,0c3.1-3.5,8.3-5.9,12.9-5.9c8.8,0,9.8,8.9,9.8,12.8s-1,12.8-9.8,12.8C64.5,57.2,63.4,57.1,62.3,56.8z"/>
</svg>
