<?xml version="1.0" encoding="utf-8"?>
<!-- Generator: Adobe Illustrator 19.1.0, SVG Export Plug-In . SVG Version: 6.00 Build 0)  -->
<svg version="1.1" id="Layer_1" xmlns="http://www.w3.org/2000/svg" xmlns:xlink="http://www.w3.org/1999/xlink" x="0px" y="0px"
	 viewBox="0 0 100 100" enable-background="new 0 0 100 100" xml:space="preserve">
<g>
	<g>
		<path fill="#FFFFFF" d="M75.5,49.1c0.3-1.2,0.4-2.4,0.3-3.6c0-0.1,0-0.1,0-0.2c0-0.5-0.1-1-0.1-1.6c0-0.1,0-0.2,0-0.3
			c-0.1-0.5-0.2-1.1-0.3-1.6c0,0,0-0.1,0-0.1c-0.2-0.6-0.4-1.1-0.6-1.7c0-0.1-0.1-0.2-0.1-0.3c-0.2-0.4-0.4-0.8-0.6-1.3
			c-0.1-0.2-0.2-0.3-0.3-0.4c-0.2-0.4-0.5-0.7-0.7-1c-0.1-0.1-0.2-0.3-0.3-0.4c-0.4-0.5-0.7-0.9-1.2-1.3c-3.4-3.4-7.9-4.8-12.3-4.2
			l0,0l0,0c-1.1,0.1-2.3,0.4-3.4,0.8c0,0-0.1,0-0.1,0c-0.3,0.1-0.5,0.2-0.8,0.3c-0.2,0.1-0.3,0.1-0.5,0.2c-0.2,0.1-0.4,0.2-0.6,0.3
			c-0.2,0.1-0.4,0.2-0.6,0.3c-0.2,0.1-0.4,0.2-0.5,0.3c-0.2,0.2-0.5,0.3-0.7,0.5c-0.1,0.1-0.3,0.2-0.4,0.3c-0.4,0.3-0.7,0.6-1,0.9
			l-2.3,2.3L25.6,60.4c-2,2-2,5.1,0,7.1c0.8,0.8,1.7,1.2,2.8,1.4c0.2,0,0.4,0,0.6,0.1c0.1,0,0.3,0,0.4,0c0.2,0,0.3,0,0.5,0
			c0.2,0,0.3,0,0.5-0.1c0.2,0,0.4-0.1,0.6-0.2c0.1,0,0.2-0.1,0.2-0.1c0.2-0.1,0.5-0.2,0.7-0.4c0.1,0,0.1-0.1,0.2-0.1
			c0.2-0.2,0.5-0.4,0.7-0.6l6.7-6.7l0,0l18.3-18.3c0.2-0.2,0.5-0.4,0.8-0.6c0.3-0.2,0.5-0.3,0.8-0.4l0,0c1.7-0.7,3.8-0.4,5.2,1.1
			c0.2,0.2,0.4,0.5,0.6,0.7c0.1,0.1,0.1,0.2,0.2,0.4c0.1,0.1,0.2,0.3,0.2,0.4c0.1,0.2,0.1,0.4,0.2,0.6c0,0.1,0.1,0.2,0.1,0.3
			c0,0.2,0.1,0.5,0.1,0.7c0,0,0,0.1,0,0.1c0,0.3,0,0.6-0.1,0.9c0,0,0,0,0,0c-0.1,0.9-0.5,1.7-1.1,2.4c-0.1,0.1-0.1,0.2-0.2,0.2
			L61.7,52c-2,2-2,5.1,0,7.1c2,2,5.1,2,7.1,0l2.7-2.7C73.6,54.3,74.9,51.8,75.5,49.1L75.5,49.1C75.5,49.1,75.5,49.1,75.5,49.1z"/>
		<path fill="#00AEEF" d="M29.1,70.9c-0.1,0-0.1,0-0.2,0c-0.3,0-0.6,0-0.8-0.1c-1.5-0.2-2.8-0.9-3.9-2c-2.7-2.7-2.7-7.2,0-9.9l25-25
			c0.4-0.4,0.7-0.7,1.2-1.1c0.1-0.1,0.2-0.2,0.3-0.3l0.1-0.1c0.3-0.2,0.5-0.4,0.8-0.6c0.2-0.1,0.4-0.3,0.6-0.4
			c0.2-0.1,0.4-0.3,0.7-0.4c0.2-0.1,0.5-0.3,0.7-0.4c0.2-0.1,0.3-0.2,0.5-0.2c0.3-0.1,0.6-0.3,0.9-0.4c0,0,0.1,0,0.2-0.1
			c1.2-0.5,2.5-0.8,3.8-0.9c5.2-0.6,10.3,1.1,14,4.8c0.4,0.4,0.9,0.9,1.3,1.5c0.1,0.1,0.2,0.2,0.3,0.4l0.1,0.1
			c0.3,0.4,0.5,0.8,0.8,1.2c0.1,0.2,0.2,0.3,0.3,0.5c0.3,0.5,0.5,0.9,0.7,1.4c0.1,0.1,0.1,0.2,0.1,0.3c0.3,0.6,0.5,1.2,0.7,1.9
			c0,0,0,0.1,0,0.1c0.1,0.5,0.3,1.1,0.4,1.8l0,0.2c0,0,0,0.1,0,0.1c0.1,0.6,0.1,1.2,0.2,1.8l0,0.2c0,1.4-0.1,2.7-0.4,4.1v0
			c-0.7,3.2-2.3,6-4.5,8.3l-2.7,2.7c-2.7,2.7-7.2,2.7-9.9,0c-2.7-2.7-2.7-7.2,0-9.9L63,48c0.1-0.1,0.1-0.1,0.2-0.2
			c0.3-0.4,0.6-0.9,0.7-1.4c0,0,0,0,0-0.1c0-0.1,0-0.3,0-0.4c0-0.1,0-0.1,0-0.2c0-0.1,0-0.3,0-0.4l-0.1-0.2c0-0.2-0.1-0.2-0.1-0.3
			c0,0,0-0.1-0.1-0.1l-0.2-0.3c-0.1-0.2-0.2-0.3-0.4-0.5c-0.8-0.8-2-1-3.1-0.6c-0.2,0.1-0.3,0.2-0.5,0.3c-0.2,0.1-0.3,0.2-0.4,0.4
			l-25,25c-0.3,0.3-0.6,0.5-1,0.8c-0.1,0.1-0.2,0.1-0.2,0.2c-0.3,0.2-0.6,0.4-1,0.5c-0.1,0-0.2,0.1-0.3,0.1
			c-0.3,0.1-0.6,0.2-0.8,0.3c-0.2,0-0.4,0.1-0.6,0.1c-0.2,0-0.4,0.1-0.7,0.1C29.3,70.9,29.2,70.9,29.1,70.9z M61.1,33.1
			c-0.5,0-1.1,0-1.6,0.1c-1,0.1-2,0.4-2.9,0.7c0,0-0.1,0-0.1,0c-0.2,0.1-0.4,0.2-0.7,0.3c-0.2,0.1-0.3,0.1-0.4,0.2
			c-0.2,0.1-0.4,0.2-0.6,0.3c-0.2,0.1-0.3,0.2-0.5,0.3c-0.2,0.1-0.3,0.2-0.5,0.3c-0.2,0.1-0.4,0.3-0.6,0.4l-0.2,0.1
			c-0.1,0-0.1,0.1-0.2,0.2c-0.3,0.3-0.6,0.5-0.9,0.8l-25,25c-1.2,1.2-1.2,3.1,0,4.2c0.4,0.4,1,0.7,1.6,0.8c0.1,0,0.2,0,0.4,0
			c0.1,0,0.2,0,0.2,0c0.1,0,0.2,0,0.3,0c0.1,0,0.2,0,0.3,0c0.1,0,0.2-0.1,0.3-0.1l0.2-0.1c0.1-0.1,0.3-0.1,0.4-0.2
			c0,0,0.1-0.1,0.1-0.1c0.2-0.1,0.3-0.2,0.4-0.3l25-25c0.3-0.3,0.7-0.6,1.1-0.9c0.4-0.2,0.8-0.5,1.2-0.6c2.6-1,5.5-0.5,7.4,1.5
			c0.3,0.3,0.6,0.7,0.9,1c0.1,0.2,0.2,0.3,0.2,0.4l0.1,0.2c0.1,0.2,0.2,0.4,0.3,0.5c0.1,0.2,0.2,0.5,0.2,0.7
			c0.1,0.2,0.1,0.3,0.1,0.5c0.1,0.4,0.1,0.8,0.1,1c0,0,0,0.1,0,0.2c0,0.4,0,0.8-0.1,1.2c0,0,0,0.1,0,0.1c-0.2,1.3-0.8,2.4-1.6,3.4
			c-0.1,0.1-0.2,0.2-0.3,0.3l-2.7,2.7c-1.2,1.2-1.2,3.1,0,4.2c1.2,1.2,3.1,1.2,4.2,0l2.7-2.7c1.7-1.7,2.9-3.9,3.4-6.3
			c0.2-1,0.3-2.1,0.3-3.1l0-0.1c0-0.4-0.1-0.9-0.1-1.3l0-0.2c-0.1-0.5-0.2-1-0.3-1.4c0,0,0-0.1,0-0.1c-0.1-0.4-0.3-0.9-0.5-1.4
			l-0.1-0.2c-0.2-0.4-0.3-0.7-0.5-1.1c-0.1-0.1-0.2-0.3-0.2-0.4c-0.2-0.3-0.4-0.6-0.6-0.9l-0.1-0.1c-0.1-0.1-0.1-0.1-0.2-0.2
			c-0.4-0.4-0.7-0.8-1-1.1C67.7,34.4,64.5,33.1,61.1,33.1z"/>
	</g>
	<path fill="#ED1B2F" d="M25.6,67.5c-2-2-2-5.1,0-7.1l25-25c5.8-5.8,15.2-5.8,21,0s5.8,15.2,0,21l-2.7,2.7c-2,2-5.1,2-7.1,0
		c-2-2-2-5.1,0-7.1l2.7-2.7c1.9-1.9,1.9-4.9,0-6.8s-4.9-1.9-6.8,0l-25,25C30.7,69.4,27.6,69.4,25.6,67.5z"/>
	<path fill="#FFFFFF" d="M64.7,49.1l10.9,0c1-4.8-0.3-10-4-13.7l-7.1,7.1C66.3,44.3,66.3,47.2,64.7,49.1z"/>
	<path fill="#FFFFFF" d="M59.2,31.2c-3.2,0.4-6.2,1.8-8.7,4.2l-2.3,2.3v14.1l9.4-9.4c0.5-0.5,1-0.8,1.6-1.1V31.2z"/>
	<path fill="#FFFFFF" d="M39.3,46.6l-11,11v11.2c1.5,0.2,3.1-0.2,4.3-1.4l6.7-6.7V46.6z"/>
</g>
</svg>
