<?xml version="1.0" encoding="utf-8"?>
<!-- Generator: Adobe Illustrator 19.1.0, SVG Export Plug-In . SVG Version: 6.00 Build 0)  -->
<svg version="1.1" id="Layer_1" xmlns="http://www.w3.org/2000/svg" xmlns:xlink="http://www.w3.org/1999/xlink" x="0px" y="0px"
	 viewBox="0 0 100 100" enable-background="new 0 0 100 100" xml:space="preserve">
<g>
	<g>
		<polygon fill="#FFFFFF" points="68.6,53.7 59.7,42.3 63.9,42.3 57.9,34.7 57.9,34.7 57.9,34.7 52.9,28.3 49.2,33.1 49.2,33.1 
			49.2,33.1 41.9,42.3 46.2,42.3 37.2,53.7 43,53.7 34.1,65.1 49.2,65.1 49.2,71.7 56.7,71.7 56.7,65.1 71.8,65.1 62.8,53.7 		"/>
		<path fill="#00AEEF" d="M56.7,73.7h-7.5c-1.1,0-2-0.9-2-2v-4.5H34.1c-0.8,0-1.5-0.4-1.8-1.1c-0.3-0.7-0.2-1.5,0.2-2.1l6.4-8.2
			h-1.7c-0.8,0-1.5-0.4-1.8-1.1c-0.3-0.7-0.2-1.5,0.2-2.1l6.4-8.2h-0.2c-0.8,0-1.5-0.4-1.8-1.1c-0.3-0.7-0.2-1.5,0.2-2.1l11-14
			c0.8-1,2.4-1,3.1,0l11,14c0.5,0.6,0.6,1.4,0.2,2.1c-0.3,0.7-1,1.1-1.8,1.1h-0.2l6.4,8.2c0.5,0.6,0.6,1.4,0.2,2.1
			c-0.3,0.7-1,1.1-1.8,1.1h-1.7l6.4,8.2c0.5,0.6,0.6,1.4,0.2,2.1c-0.3,0.7-1,1.1-1.8,1.1H58.7v4.5C58.7,72.8,57.8,73.7,56.7,73.7z
			 M51.2,69.7h3.5v-4.5c0-1.1,0.9-2,2-2h11L61.2,55c-0.5-0.6-0.6-1.4-0.2-2.1c0.3-0.7,1-1.1,1.8-1.1h1.7l-6.4-8.2
			c-0.5-0.6-0.6-1.4-0.2-2.1c0.3-0.7,1-1.1,1.8-1.1h0.2l-6.9-8.8L46,40.3h0.2c0.8,0,1.5,0.4,1.8,1.1c0.3,0.7,0.2,1.5-0.2,2.1
			l-6.4,8.2H43c0.8,0,1.5,0.4,1.8,1.1c0.3,0.7,0.2,1.5-0.2,2.1l-6.4,8.2h11c1.1,0,2,0.9,2,2V69.7z"/>
	</g>
	<polygon fill="#009444" points="71.8,65.1 52.9,41.2 34.1,65.1 	"/>
	<path fill="#FFFFFF" d="M43.2,53.7c0,0-0.7,2.8,1.1,2.8s3.4,0.2,3.4,2.3c0,2.1,2.6,1.9,2.6,0c0-1.9,1.4-3.6,3.7-3.6
		s2.1-1.4,2.1-1.4"/>
	<polygon fill="#8DC63F" points="68.6,53.7 52.9,33.7 37.2,53.7 	"/>
	<polygon fill="#009444" points="63.9,42.3 52.9,28.3 41.9,42.3 	"/>
	<rect x="49.2" y="65.1" fill="#898452" width="7.5" height="6.5"/>
	<path fill="#FFFFFF" d="M52.9,28.3l-3.8,4.8c0,0,0,1.9,1.8,1.9s3.1,1.4,3.1,3.4s2.5,2.1,2.5,0c0-2.1,0.2-3.7,1.4-3.7L52.9,28.3z"/>
</g>
</svg>
