<?xml version="1.0" encoding="utf-8"?>
<!-- Generator: Adobe Illustrator 19.1.0, SVG Export Plug-In . SVG Version: 6.00 Build 0)  -->
<svg version="1.1" id="Layer_1" xmlns="http://www.w3.org/2000/svg" xmlns:xlink="http://www.w3.org/1999/xlink" x="0px" y="0px"
	 viewBox="0 0 100 100" enable-background="new 0 0 100 100" xml:space="preserve">
<path d="M65.7,56.5c-1.5-2.5-3.8-4.3-6.6-5.2v-7.9c1.7-0.9,2.8-2.7,2.8-4.6v-7.7c0-2.9-2.4-5.3-5.3-5.3H38c-2.9,0-5.3,2.4-5.3,5.3
	v7.7c0,2,1.1,3.7,2.8,4.6l0,16.3c0,4.7,2.6,9,6.7,11.3c0.3,0.2,0.6,0.3,1,0.5c0.7,0.3,1.3,0.5,2.1,0.7l7.4,1.9c1,0.2,2,0.4,2.9,0.4
	c2.1,0,4.2-0.6,6-1.7c2.7-1.6,4.6-4.2,5.4-7.3C67.7,62.4,67.3,59.2,65.7,56.5z M45.8,69.6c-4.6-1.2-7.8-5.3-7.8-10.1l0-1.3
	c0.9-0.3,1.9-0.5,2.9-0.5c4.4,0,8,3.6,8,8c0,1.6-0.5,3.1-1.3,4.4L45.8,69.6z M49.8,65.7c0-5-4-9-9-9c-1,0-1.9,0.2-2.9,0.5l0-14.7
	c0,0,0,0,0,0h18.6c0,0,0,0,0,0v10.3c0,0.2,0.2,0.4,0.4,0.5l0.8,0.2c0,0,0,0,0,0c2.4,0.6,4.4,2.1,5.7,4.3c1.3,2.1,1.6,4.7,1,7.1
	c-0.6,2.4-2.1,4.4-4.3,5.7c-2.1,1.3-4.7,1.6-7.1,1l-4.7-1.2C49.3,68.9,49.8,67.3,49.8,65.7z M38,28.1h18.6c1.5,0,2.8,1.3,2.8,2.8
	v7.7c0,1.4-1,2.5-2.3,2.7c0,0,0,0,0,0c-0.1,0-0.3,0-0.4,0H38c-0.2,0-0.3,0-0.4,0c0,0,0,0,0,0c-1.3-0.2-2.3-1.4-2.3-2.7v-7.7
	C35.2,29.4,36.4,28.1,38,28.1z"/>
</svg>
