<?xml version="1.0" encoding="utf-8"?>
<!-- Generator: Adobe Illustrator 19.2.1, SVG Export Plug-In . SVG Version: 6.00 Build 0)  -->
<!DOCTYPE svg PUBLIC "-//W3C//DTD SVG 1.1//EN" "http://www.w3.org/Graphics/SVG/1.1/DTD/svg11.dtd">
<svg version="1.1" id="Food_Icons" xmlns="http://www.w3.org/2000/svg" xmlns:xlink="http://www.w3.org/1999/xlink" x="0px" y="0px"
	 width="110.83px" height="58.2px" viewBox="0 0 110.83 58.2" enable-background="new 0 0 110.83 58.2" xml:space="preserve">
<g id="_x32_">
	<g>
		<g>
			<path fill="#F04848" d="M106.46,41.67c-0.18-0.05-0.37-0.08-0.56-0.08h0.48C106.41,41.62,106.43,41.65,106.46,41.67z"/>
		</g>
	</g>
	<path fill="#F04848" d="M106.38,41.59h-0.48c0.19,0,0.38,0.03,0.56,0.08C106.43,41.65,106.41,41.62,106.38,41.59z"/>
	<path fill="#F04848" d="M108.89,41.59h-2.51c0.03,0.03,0.05,0.06,0.08,0.08c-0.18-0.05-0.37-0.08-0.56-0.08h0.48
		c-1.88-2.1-7.96-8.11-19.19-12.7c-0.83-4.15-2.92-8.59-6.54-9.11c-2.44-0.35-5.06,1.22-7.36,4.43c-0.12,0.17-0.24,0.34-0.34,0.51
		c-5.07-0.97-10.77-1.55-17.13-1.55c-8.59,0-15.98,1.07-22.25,2.69c-0.09-0.22-0.19-0.44-0.3-0.66c-2.02-4.02-9.85-11.54-15.19-8.86
		c-5.06,2.55-4.08,12.41-2.23,16.83c-5.85,3.51-9.28,6.94-10.6,8.42H1.94C0.87,41.59,0,42.46,0,43.53s0.87,1.94,1.94,1.94h2.35
		l0.44,1.58C6.55,53.62,12.58,58.2,19.4,58.2h72.89c6.89,0,12.94-4.64,14.72-11.3l0.38-1.43h1.5c1.07,0,1.94-0.87,1.94-1.94
		S109.96,41.59,108.89,41.59z M87.53,34.53c0.05-0.35,0.08-0.73,0.09-1.15c3.21,1.44,5.91,2.98,8.14,4.45
		c-2.37-0.75-5.19-1.53-8.45-2.25C87.41,35.24,87.48,34.89,87.53,34.53z M85.36,39.16c3.65,0.78,6.75,1.62,9.3,2.43H81.88
		C83.23,41.08,84.43,40.24,85.36,39.16z M73.66,33.29c0-0.25,0.02-0.5,0.06-0.75c0.14-0.95,0.56-2.18,1.16-3.41
		c0.44-0.92,0.98-1.84,1.56-2.66c0.22-0.31,0.44-0.59,0.66-0.85c1.23-1.48,2.26-2.01,2.87-2.01c0.05,0,0.09,0,0.13,0.01
		c0.99,0.14,1.96,1.68,2.66,3.63c0.5,1.42,0.85,3.05,0.97,4.53c0.06,0.8,0.05,1.55-0.04,2.2c-0.04,0.29-0.11,0.56-0.2,0.83
		c-0.53,1.66-1.89,2.91-3.54,3.33l0.56-3.85l0.45-3.08c0.15-1.06-0.58-2.04-1.64-2.2c-1.06-0.14-2.04,0.58-2.2,1.64l-0.44,3.07
		l-0.56,3.85v0.01c-0.01,0-0.01-0.01-0.02-0.01c-0.55-0.33-1.04-0.76-1.43-1.29c-0.65-0.86-1-1.88-1.01-2.93V33.29z M19.83,19.81
		c0.22-0.12,0.49-0.17,0.78-0.17c1.3,0,3.19,1.02,4.96,2.44c1.77,1.42,3.42,3.25,4.23,4.87c-1.25,0.39-2.44,0.81-3.59,1.24
		l-0.93-1.85c-0.48-0.96-1.65-1.35-2.6-0.86c-0.96,0.48-1.35,1.64-0.87,2.6l0.8,1.59c-1.18,0.52-2.3,1.06-3.36,1.61
		C17.78,27.47,17.77,20.83,19.83,19.81z M18.09,36.44c1.14-0.67,2.38-1.35,3.72-2.02c0.82-0.41,1.68-0.82,2.58-1.21
		c1.14-0.5,2.35-1,3.61-1.46c0.72-0.28,1.46-0.54,2.22-0.79c1.29-0.44,2.65-0.84,4.06-1.21c6.05-1.63,13.2-2.7,21.54-2.7
		c5.57,0,10.62,0.48,15.16,1.28c-0.56,1.29-0.94,2.55-1.1,3.65c-0.05,0.33-0.07,0.66-0.08,0.99c-4.38-0.37-9.17-0.59-14.39-0.59
		c-17.74,0-30.57,2.54-38.83,4.99C17.06,37.06,17.57,36.75,18.09,36.44z M55.41,36.26c5.55,0,10.61,0.26,15.18,0.69
		c0.26,0.58,0.58,1.13,0.97,1.65c1.03,1.37,2.41,2.4,3.98,2.99H16.17C24.02,39.11,37.04,36.26,55.41,36.26z M103.26,45.9
		c-1.32,4.96-5.83,8.43-10.97,8.43H19.4c-5.08,0-9.58-3.42-10.94-8.32l-0.12-0.45l95.04-0.09L103.26,45.9z"/>
	<g>
		<g>
			<path fill="#F04848" d="M79.36,8.1c0,1.07-0.87,1.93-1.94,1.93H48.81v0.78c0,2.97-2.42,5.39-5.39,5.39H33.41
				c-1.07,0-1.94-0.87-1.94-1.94c0-1.07,0.87-1.94,1.94-1.94h10.01c0.83,0,1.51-0.68,1.51-1.51v-0.78H33.41
				c-1.07,0-1.94-0.86-1.94-1.93s0.87-1.94,1.94-1.94h11.52V5.38c0-0.83-0.68-1.51-1.51-1.51H33.41c-1.07,0-1.94-0.87-1.94-1.94
				S32.34,0,33.41,0h10.01c2.97,0,5.39,2.41,5.39,5.38v0.78h28.61C78.49,6.16,79.36,7.03,79.36,8.1z"/>
		</g>
	</g>
</g>
</svg>
