<?xml version="1.0" encoding="utf-8"?>
<!-- Generator: Adobe Illustrator 19.2.1, SVG Export Plug-In . SVG Version: 6.00 Build 0)  -->
<!DOCTYPE svg PUBLIC "-//W3C//DTD SVG 1.1//EN" "http://www.w3.org/Graphics/SVG/1.1/DTD/svg11.dtd">
<svg version="1.1" id="Food_Icons" xmlns="http://www.w3.org/2000/svg" xmlns:xlink="http://www.w3.org/1999/xlink" x="0px" y="0px"
	 width="51.68px" height="107px" viewBox="0 0 51.68 107" enable-background="new 0 0 51.68 107" xml:space="preserve">
<g id="_x37_">
	<g>
		<g>
			<path fill="#F04848" d="M34.55,15.6L35.84,28h0.03L34.55,15.6z"/>
			<path fill="#F04848" d="M41.35,38.45c-0.34,0-0.62-0.25-0.66-0.59l-0.81-7.81c0,0,0.01-0.01,0-0.02l-1.5-14.43h0.65
				c1.05,0,1.9-0.86,1.9-1.91V5.01c0-2.76-2.24-5.01-5-5.01H15.75c-2.76,0-5,2.25-5,5.01v8.68c0,1.05,0.85,1.91,1.9,1.91h0.65
				l-1.46,14.1c-0.01,0.06-0.01,0.12-0.01,0.19L11,37.86c-0.04,0.34-0.32,0.59-0.67,0.59C4.63,38.45,0,43.09,0,48.79V98.7
				c0,4.58,3.72,8.3,8.29,8.3h35.1c4.57,0,8.29-3.72,8.29-8.3V48.79C51.68,43.09,47.05,38.45,41.35,38.45z M14.56,5.01
				c0-0.66,0.53-1.2,1.19-1.2h20.18c0.66,0,1.19,0.54,1.19,1.2v6.78H14.56V5.01z M37.54,12.28c-0.17-0.15-0.37-0.27-0.58-0.36
				C37.17,12,37.37,12.12,37.54,12.28z M35.87,28H15.85l1.28-12.4h17.42L35.87,28z M47.87,98.7c0,2.48-2.01,4.49-4.48,4.49H8.29
				c-2.47,0-4.48-2.01-4.48-4.49v-7.07h44.06V98.7z M47.87,87.82H3.81V57.63h44.06V87.82z M47.87,53.82H3.81v-5.03
				c0-3.61,2.91-6.52,6.52-6.53h4.36c1.05,0,1.9-0.86,1.9-1.91c0-1.03-0.82-1.87-1.84-1.89c0.01-0.07,0.02-0.14,0.03-0.21l0.67-6.44
				h20.79l0.67,6.44c0.01,0.07,0.01,0.14,0.03,0.2H36.9c-1.05,0-1.9,0.85-1.9,1.9s0.85,1.91,1.9,1.91h4.45
				c3.6,0,6.52,2.92,6.52,6.53V53.82z"/>
		</g>
	</g>
	<g>
		<path fill="#F04848" d="M36.96,11.92c0.21,0.09,0.41,0.21,0.58,0.36C37.37,12.12,37.17,12,36.96,11.92z"/>
	</g>
	<g>
		<path fill="#F04848" d="M38.38,15.6l1.5,14.43c0.01-0.11,0.01-0.22,0-0.33L38.38,15.6z M36.96,11.92
			c0.21,0.09,0.41,0.21,0.58,0.36C37.37,12.12,37.17,12,36.96,11.92z"/>
	</g>
	<g>
		<g>
			<path fill="#F04848" d="M37.968,72.546c-0.514,0-1.025-0.206-1.401-0.614C33.773,68.9,29.964,67.23,25.84,67.23
				s-7.933,1.67-10.728,4.702c-0.711,0.774-1.917,0.822-2.691,0.109c-0.773-0.712-0.822-1.917-0.109-2.691
				c3.473-3.768,8.403-5.929,13.528-5.929s10.055,2.161,13.528,5.929c0.713,0.774,0.664,1.978-0.109,2.691
				C38.892,72.379,38.43,72.546,37.968,72.546z"/>
		</g>
	</g>
	<g>
		<g>
			<path fill="#F04848" d="M31.19,76.042h-10.7c-1.051,0-1.904-0.853-1.904-1.904s0.853-1.904,1.904-1.904h10.7
				c1.051,0,1.904,0.853,1.904,1.904S32.241,76.042,31.19,76.042z"/>
		</g>
	</g>
	<g>
		<g>
			<path fill="#F04848" d="M31.19,82.027h-10.7c-1.051,0-1.904-0.853-1.904-1.904c0-1.051,0.853-1.904,1.904-1.904h10.7
				c1.051,0,1.904,0.853,1.904,1.904C33.094,81.174,32.241,82.027,31.19,82.027z"/>
		</g>
	</g>
	<g>
		<g>
			<path fill="#F04848" d="M28.788,23.701h-5.849c-1.051,0-1.904-0.853-1.904-1.904s0.853-1.904,1.904-1.904h5.849
				c1.051,0,1.904,0.853,1.904,1.904S29.839,23.701,28.788,23.701z"/>
		</g>
	</g>
</g>
</svg>
