<?xml version="1.0" encoding="utf-8"?>
<!-- Generator: Adobe Illustrator 19.2.1, SVG Export Plug-In . SVG Version: 6.00 Build 0)  -->
<!DOCTYPE svg PUBLIC "-//W3C//DTD SVG 1.1//EN" "http://www.w3.org/Graphics/SVG/1.1/DTD/svg11.dtd">
<svg version="1.1" id="Food_Icons" xmlns="http://www.w3.org/2000/svg" xmlns:xlink="http://www.w3.org/1999/xlink" x="0px" y="0px"
	 width="72.86px" height="73.76px" viewBox="0 0 72.86 73.76" enable-background="new 0 0 72.86 73.76" xml:space="preserve">
<g id="_x31_1">
	<g>
		<path fill="#F04848" d="M44.034,34.516H28.83c-1.104,0-2-0.896-2-2s0.896-2,2-2h15.203c1.104,0,2,0.896,2,2
			S45.138,34.516,44.034,34.516z"/>
	</g>
	<g>
		<path fill="#F04848" d="M16.551,22.156c0.486,0,0.971-0.185,1.342-0.556l1.172-1.172c0.741-0.741,0.741-1.943-0.001-2.683
			c-0.742-0.74-1.943-0.74-2.683,0.001l-1.172,1.172c-0.741,0.741-0.741,1.943,0.001,2.683
			C15.58,21.971,16.066,22.156,16.551,22.156z"/>
	</g>
	<g>
		<path fill="#F04848" d="M28.832,26.998c0.485,0,0.971-0.185,1.341-0.556c0.741-0.741,0.741-1.942,0-2.683l-1.172-1.172
			c-0.741-0.741-1.942-0.741-2.683,0c-0.741,0.741-0.741,1.942,0,2.683l1.172,1.172C27.861,26.813,28.346,26.998,28.832,26.998z"/>
	</g>
	<g>
		<path fill="#F04848" d="M56.313,22.094c-0.486,0-0.971-0.185-1.342-0.556l-1.172-1.172c-0.741-0.741-0.741-1.943,0.001-2.683
			c0.742-0.74,1.943-0.74,2.683,0.001l1.172,1.172c0.741,0.741,0.741,1.943-0.001,2.683C57.284,21.909,56.798,22.094,56.313,22.094z
			"/>
	</g>
	<g>
		<path fill="#F04848" d="M44.032,26.936c-0.485,0-0.971-0.185-1.341-0.556c-0.741-0.741-0.741-1.942,0-2.683l1.172-1.172
			c0.741-0.741,1.942-0.741,2.683,0c0.741,0.741,0.741,1.942,0,2.683l-1.172,1.172C45.003,26.751,44.518,26.936,44.032,26.936z"/>
	</g>
	<g>
		<path fill="#F04848" d="M38.915,13.273c0,0.485-0.185,0.971-0.556,1.341c-0.741,0.741-1.942,0.741-2.683,0l-1.172-1.172
			c-0.741-0.741-0.741-1.942,0-2.683c0.741-0.741,1.942-0.741,2.683,0l1.172,1.172C38.73,12.303,38.915,12.788,38.915,13.273z"/>
	</g>
	<g>
		<path fill="#F04848" d="M70.55,32.58c-0.6-0.6-1.28-1.09-2.02-1.47V30.6C68.53,13.73,54.8,0,37.93,0h-3.22
			C17.83,0,4.11,13.73,4.11,30.6v0.63C1.6,32.59,0,35.23,0,38.17c0,2.1,0.82,4.09,2.31,5.58c0.96,0.96,2.14,1.65,3.42,2
			c-0.03,0.46,0.03,0.92,0.17,1.36l7.01,21.9c0.91,2.84,3.53,4.75,6.51,4.75h34.02c2.99,0,5.61-1.91,6.52-4.75l7.01-21.9
			c0.14-0.44,0.2-0.9,0.17-1.35c3.3-0.95,5.72-3.99,5.72-7.59C72.86,36.05,72.04,34.07,70.55,32.58z M56.23,67.82
			c-0.39,1.21-1.51,2.03-2.79,2.03h-4.58l2.52-14.84c0.19-1.09-0.55-2.12-1.64-2.3c-1.09-0.19-2.12,0.54-2.3,1.63l-2.63,15.51h-6.38
			V53.27c0-1.1-0.89-2-2-2c-1.1,0-2,0.9-2,2v16.58h-6.35l-2.63-15.51c-0.19-1.08-1.21-1.82-2.31-1.63c-1.09,0.18-1.82,1.21-1.64,2.3
			l2.52,14.84h-4.6c-1.27,0-2.39-0.82-2.78-2.03L9.67,46.07h53.52L56.23,67.82z M64.97,42.15H7.9c-1.07,0-2.07-0.41-2.82-1.17
			c-0.75-0.75-1.17-1.75-1.17-2.81c0-1.6,0.94-3.02,2.38-3.65h4.32c1.1,0,2-0.9,2-2c0-1.11-0.9-2-2-2H8.02
			c0.04-14.67,12-26.6,26.69-26.6h3.22c14.58,0,26.47,11.76,26.67,26.3h-2.46c-1.11,0-2,0.89-2,2c0,1.1,0.89,2,2,2h3.51l0.4,0.11
			c0.66,0.18,1.24,0.52,1.73,1.01c0.76,0.76,1.17,1.76,1.17,2.83C68.95,40.36,67.16,42.15,64.97,42.15z"/>
	</g>
</g>
</svg>
