<?xml version="1.0" encoding="utf-8"?>
<!-- Generator: Adobe Illustrator 19.2.1, SVG Export Plug-In . SVG Version: 6.00 Build 0)  -->
<!DOCTYPE svg PUBLIC "-//W3C//DTD SVG 1.1//EN" "http://www.w3.org/Graphics/SVG/1.1/DTD/svg11.dtd">
<svg version="1.1" id="Food_Icons" xmlns="http://www.w3.org/2000/svg" xmlns:xlink="http://www.w3.org/1999/xlink" x="0px" y="0px"
	 width="53.523px" height="105.58px" viewBox="0 0 53.523 105.58" enable-background="new 0 0 53.523 105.58" xml:space="preserve">
<g id="_x31_0">
	<path fill="#F04848" d="M52.75,19.33l-0.06-0.19c-0.43-1.39-1.56-2.41-2.94-2.74C46.47,6.87,37.41,0,26.77,0S7.07,6.87,3.79,16.4
		c-1.36,0.32-2.49,1.32-2.95,2.68c-1.12,3.37-1.12,7.07,0,10.44c0.46,1.36,1.59,2.36,2.95,2.68c2.74,7.94,9.48,14.03,17.81,15.84
		v53.47c0,2.25,1.83,4.07,4.07,4.07h2.2c2.24,0,4.07-1.82,4.07-4.07V48.04c8.33-1.81,15.07-7.9,17.81-15.84
		c1.38-0.33,2.51-1.35,2.94-2.74l0.06-0.19C53.78,26.02,53.78,22.58,52.75,19.33z M26.77,4c8.36,0,15.55,5.07,18.65,12.3H8.12
		C11.22,9.07,18.42,4,26.77,4z M27.94,48.6l-0.07,52.98h-2.2l-0.07-0.07V48.6H27.94z M26.77,44.6c-8.35,0-15.55-5.08-18.65-12.3
		h37.3C42.32,39.52,35.13,44.6,26.77,44.6z M48.94,28.06l-0.06,0.19h-2.2L6.86,28.3H4.7c-0.92-2.6-0.92-5.4-0.06-7.95h2.22
		l39.82-0.05h2.14c0.03,0,0.05,0.02,0.06,0.05l0.06,0.19C49.72,23,49.72,25.6,48.94,28.06z"/>
</g>
</svg>
