<?xml version="1.0" encoding="utf-8"?>
<!-- Generator: Adobe Illustrator 19.2.1, SVG Export Plug-In . SVG Version: 6.00 Build 0)  -->
<!DOCTYPE svg PUBLIC "-//W3C//DTD SVG 1.1//EN" "http://www.w3.org/Graphics/SVG/1.1/DTD/svg11.dtd">
<svg version="1.1" id="Food_Icons" xmlns="http://www.w3.org/2000/svg" xmlns:xlink="http://www.w3.org/1999/xlink" x="0px" y="0px"
	 width="70.887px" height="87.685px" viewBox="0 0 70.887 87.685" enable-background="new 0 0 70.887 87.685" xml:space="preserve">
<g id="_x34_">
	<g>
		<path fill="#F04848" d="M32.253,81.955l-8.36-20.6c-0.09,0.02-0.17,0.04-0.26,0.06l8.07,19.9c0.22,0.55,0.55,1.01,0.96,1.35
			C32.493,82.455,32.363,82.215,32.253,81.955z"/>
		<path fill="#F04848" d="M70.263,9.335c-0.82-1.86-2.39-3.31-4.3-3.98c-19.85-6.98-40.91-7.14-60.9-0.46
			c-1.93,0.65-3.53,2.08-4.38,3.93c-0.86,1.87-0.91,3.94-0.14,5.85l13.09,32.28c0,0.01,0.01,0.02,0.01,0.03l0.86,2.11l13.65,33.66
			c0.41,1.01,1.01,1.88,1.75,2.58c1.25,1.47,3.08,2.34,5.13,2.35h0.06c2.81,0,5.23-1.6,6.33-4.2l0.23-0.56l2.84-6.7l21.1-49.89
			c0.01-0.02,0.01-0.03,0.02-0.05l4.69-11.1C71.093,13.325,71.083,11.185,70.263,9.335z M17.903,46.565c1.06-0.77,2.34-1.2,3.67-1.2
			c3.42,0,6.21,2.79,6.21,6.21c0,3.14-2.33,5.73-5.35,6.15L17.903,46.565z M41.633,73.145c-2.13-1.01-3.57-3.18-3.57-5.63
			c0-3.43,2.79-6.22,6.22-6.22c0.73,0,1.44,0.13,2.11,0.37L41.633,73.145z M47.973,58.175c-1.17-0.46-2.42-0.7-3.69-0.7
			c-5.54,0-10.04,4.5-10.04,10.04c0,4.01,2.38,7.56,5.91,9.15l-1.99,4.7c-0.57,1.35-1.76,2.15-3.24,2.13
			c-0.88-0.01-1.66-0.3-2.26-0.83c-0.41-0.34-0.74-0.8-0.96-1.35l-8.07-19.9c0.09-0.02,0.17-0.04,0.26-0.06
			c4.42-1.05,7.72-5.04,7.72-9.78c0-5.53-4.51-10.04-10.04-10.04c-1.83,0-3.6,0.5-5.14,1.41l-6.93-17.09
			c16.87-6.34,35.21-6.21,51.98,0.38L47.973,58.175z M66.783,13.695l-3.82,9.02c-17.79-7.03-37.28-7.13-55.15-0.31l-3.72-9.17
			c-0.37-0.92-0.35-1.91,0.06-2.81c0.42-0.91,1.17-1.58,2.12-1.9c19.18-6.4,39.38-6.25,58.42,0.44c0.93,0.33,1.67,1.01,2.07,1.91
			C67.163,11.785,67.173,12.785,66.783,13.695z"/>
	</g>
	<g>
		<path fill="#F04848" d="M43.577,44.717c-5.537,0-10.042-4.505-10.042-10.042s4.505-10.042,10.042-10.042
			s10.042,4.505,10.042,10.042S49.114,44.717,43.577,44.717z M43.577,28.458c-3.428,0-6.216,2.789-6.216,6.216
			s2.789,6.216,6.216,6.216s6.216-2.789,6.216-6.216S47.004,28.458,43.577,28.458z"/>
	</g>
</g>
</svg>
