<?xml version="1.0" encoding="utf-8"?>
<!-- Generator: Adobe Illustrator 19.2.1, SVG Export Plug-In . SVG Version: 6.00 Build 0)  -->
<!DOCTYPE svg PUBLIC "-//W3C//DTD SVG 1.1//EN" "http://www.w3.org/Graphics/SVG/1.1/DTD/svg11.dtd">
<svg version="1.1" id="Food_Icons" xmlns="http://www.w3.org/2000/svg" xmlns:xlink="http://www.w3.org/1999/xlink" x="0px" y="0px"
	 width="75.886px" height="46.8px" viewBox="0 0 75.886 46.8" enable-background="new 0 0 75.886 46.8" xml:space="preserve">
<g id="_x33_">
	<g>
		<path fill="#F04848" d="M75.886,18.25c0-4.39-3.57-7.96-7.96-7.96c-3.72,0-6.86,2.57-7.73,6.03h-6.57
			c-2.08-4.36-6.05-7.67-11.03-8.82c-1.6-0.37-2.98-1.04-4.1-1.99C34.286,1.96,28.926,0,23.406,0c-6.43,0-12.65,2.68-17.05,7.37
			c-4.47,4.75-6.71,10.97-6.31,17.51c0.73,11.8,10.18,21.21,21.99,21.88c0.45,0.03,0.91,0.04,1.36,0.04
			c5.56,0,10.89-1.94,15.13-5.54c1.1-0.93,2.47-1.59,4.07-1.96c4.98-1.15,8.95-4.46,11.03-8.81h6.57c0.87,3.45,4.01,6.02,7.73,6.02
			c4.39,0,7.96-3.57,7.96-7.96c0-1.93-0.68-3.74-1.88-5.16C75.196,21.97,75.886,20.15,75.886,18.25z M41.726,35.52
			c-2.22,0.51-4.14,1.45-5.71,2.78c-3.83,3.25-8.72,4.88-13.76,4.59c-9.68-0.55-17.74-8.57-18.33-18.25
			c-0.34-5.46,1.52-10.65,5.25-14.61c3.73-3.97,8.78-6.16,14.23-6.16c4.61,0,9.08,1.64,12.59,4.61c1.59,1.35,3.52,2.29,5.73,2.8
			c3.12,0.72,5.72,2.56,7.43,5.04c0.8,1.16,1.41,2.47,1.78,3.87c0.27,1.02,0.41,2.1,0.41,3.21s-0.14,2.18-0.41,3.21
			c-0.37,1.4-0.98,2.71-1.8,3.88C47.436,32.97,44.836,34.8,41.726,35.52z M70.046,25.05c1.23,0.75,1.96,2.06,1.96,3.5
			c0,2.25-1.83,4.08-4.08,4.08s-4.09-1.83-4.09-4.08c0-1.07-0.86-1.94-1.94-1.94h-6.99c0.21-1.04,0.32-2.11,0.32-3.21
			c0-1.1-0.11-2.17-0.32-3.21h6.99c1.08,0,1.94-0.87,1.94-1.94c0-2.25,1.84-4.08,4.09-4.08s4.08,1.83,4.08,4.08
			c0,1.44-0.73,2.75-1.95,3.49c-0.58,0.35-0.94,0.97-0.94,1.65S69.466,24.7,70.046,25.05z"/>
	</g>
	<g>
		<path fill="#F04848" d="M23.319,15.658c-0.497,0-0.992-0.189-1.371-0.567l-1.198-1.197c-0.757-0.757-0.757-1.985,0-2.742
			c0.755-0.757,1.984-0.757,2.741-0.001l1.198,1.197c0.757,0.757,0.757,1.985,0,2.742C24.312,15.469,23.816,15.658,23.319,15.658z"
			/>
	</g>
	<g>
		<path fill="#F04848" d="M31.388,27.39c-0.497,0-0.992-0.189-1.371-0.567c-0.757-0.757-0.757-1.985,0-2.742l1.197-1.197
			c0.755-0.757,1.984-0.757,2.741-0.001c0.757,0.757,0.757,1.985,0,2.742l-1.197,1.197C32.381,27.2,31.884,27.39,31.388,27.39z"/>
	</g>
	<g>
		<path fill="#F04848" d="M14.05,27.39c-0.497,0-0.992-0.189-1.371-0.568l-1.197-1.197c-0.757-0.757-0.757-1.985,0-2.742
			c0.758-0.757,1.985-0.756,2.741,0.001l1.197,1.197c0.757,0.757,0.757,1.985,0,2.742C15.042,27.2,14.545,27.39,14.05,27.39z"/>
	</g>
</g>
</svg>
