<?xml version="1.0" encoding="utf-8"?>
<!-- Generator: Adobe Illustrator 19.2.1, SVG Export Plug-In . SVG Version: 6.00 Build 0)  -->
<!DOCTYPE svg PUBLIC "-//W3C//DTD SVG 1.1//EN" "http://www.w3.org/Graphics/SVG/1.1/DTD/svg11.dtd">
<svg version="1.1" id="Food_Icons" xmlns="http://www.w3.org/2000/svg" xmlns:xlink="http://www.w3.org/1999/xlink" x="0px" y="0px"
	 width="56.2px" height="85.406px" viewBox="0 0 56.2 85.406" enable-background="new 0 0 56.2 85.406" xml:space="preserve">
<path id="_x35_" fill="#F04848" d="M49.54,13.426H18.77l-1.5-11.68c-0.14-1.09-1.14-1.87-2.23-1.73l-5.68,0.71
	c-0.52,0.07-1,0.34-1.33,0.76c-0.32,0.42-0.47,0.95-0.4,1.48l1.34,10.46H6.65c-3.67,0-6.65,2.99-6.65,6.66v4.59c0,1.11,0.89,2,2,2
	h0.79l0.86,11.71l2.77,37.46c0.34,5.36,4.81,9.56,10.18,9.56h23c5.37,0,9.84-4.2,10.18-9.54l2.77-37.45l0.87-11.74h0.78
	c1.11,0,2-0.89,2-2v-4.59C56.2,16.416,53.21,13.426,49.54,13.426z M13.56,4.236l1.18,9.19H13l-1.15-8.98L13.56,4.236z M6.4,26.676
	h4.27l1.56,12.16c-2.32-0.32-4.05-0.84-5.01-1.18L6.4,26.676z M45.98,75.616c-0.21,3.36-3.02,6-6.38,6h-23
	c-3.37,0-6.17-2.64-6.38-6.02l-2.49-33.58c1.31,0.36,3.01,0.72,5.02,0.94c0.64,0.07,1.32,0.12,2.03,0.15
	c0.65,0.03,1.33,0.04,2.03,0.03c0.56,0,1.13-0.02,1.72-0.05c0.65-0.04,1.32-0.1,2-0.18c0.64-0.07,1.3-0.17,1.98-0.28
	c1.97-0.34,4.06-0.85,6.24-1.6c9.43-3.26,16.96-1.5,19.83-0.56L45.98,75.616z M14.7,26.676h1.73l1.59,12.41
	c-0.6,0.03-1.17,0.04-1.73,0.04L14.7,26.676z M49.08,36.426c-3.82-1.14-11.77-2.59-21.64,0.82c-1.9,0.65-3.72,1.1-5.44,1.4
	l-1.54-11.97H49.8L49.08,36.426z M52.2,22.486c-0.14-0.02-0.28-0.04-0.42-0.04H4.43c-0.14,0-0.29,0.02-0.43,0.05v-2.41
	c0-1.47,1.19-2.66,2.65-2.66h42.89c1.47,0,2.66,1.19,2.66,2.66V22.486z"/>
</svg>
