<?xml version="1.0" encoding="utf-8"?>
<!-- Generator: Adobe Illustrator 19.2.1, SVG Export Plug-In . SVG Version: 6.00 Build 0)  -->
<!DOCTYPE svg PUBLIC "-//W3C//DTD SVG 1.1//EN" "http://www.w3.org/Graphics/SVG/1.1/DTD/svg11.dtd">
<svg version="1.1" id="Food_Icons" xmlns="http://www.w3.org/2000/svg" xmlns:xlink="http://www.w3.org/1999/xlink" x="0px" y="0px"
	 width="47.21px" height="114.801px" viewBox="0 0 47.21 114.801" enable-background="new 0 0 47.21 114.801" xml:space="preserve">
<g id="_x36_">
	<g>
		<g>
			<path fill="#F04848" d="M33.976,19.249H13.231c-1.071,0-1.939-0.868-1.939-1.939V9.001c0-1.071,0.868-1.939,1.939-1.939h20.745
				c1.071,0,1.939,0.868,1.939,1.939v8.309C35.915,18.381,35.047,19.249,33.976,19.249z M15.17,15.371h16.868V10.94H15.17V15.371z"
				/>
		</g>
	</g>
	<g>
		<g>
			<path fill="#F04848" d="M30.466,10.94H16.74c-1.071,0-1.939-0.868-1.939-1.939V1.939C14.802,0.868,15.669,0,16.74,0h13.726
				c1.071,0,1.939,0.868,1.939,1.939v7.062C32.405,10.072,31.537,10.94,30.466,10.94z M18.679,7.062h9.848V3.877h-9.848V7.062z"/>
		</g>
	</g>
	<g>
		<g>
			<path fill="#F04848" d="M47.2,63.381l0.01,30.69v-30.51C47.21,63.501,47.21,63.441,47.2,63.381z"/>
			<path fill="#F04848" d="M47.2,63.381c0-0.01,0-0.01,0-0.02v-4.97c0-8.94-5.38-17-13.52-20.47v-18.67h0.3
				c1.07,0,1.93-0.87,1.93-1.94v-8.31c0-1.07-0.86-1.94-1.93-1.94H32.4v-5.12c0-1.07-0.86-1.94-1.93-1.94H16.74
				c-1.07,0-1.94,0.87-1.94,1.94v5.12h-1.57c-1.07,0-1.94,0.87-1.94,1.94v8.31c0,1.07,0.87,1.94,1.94,1.94h0.3v18.67
				C5.38,41.391,0,49.451,0,58.391v49.76c0,3.67,2.98,6.65,6.65,6.65h33.91c3.66,0,6.65-2.98,6.65-6.65v-14.08L47.2,63.381z
				 M18.68,3.881h9.85v3.18h-9.85V3.881z M15.17,10.941h16.87v4.43H15.17V10.941z M29.8,19.341v7.94H17.46v-7.94H29.8z M3.88,58.391
				c0-7.66,4.79-14.54,11.93-17.21h1.55c1.07,0,1.94-0.87,1.94-1.94c0-1.06-0.85-1.92-1.9-1.94v-6.14h12.4v6.15
				c-0.99,0.09-1.75,0.92-1.75,1.93c0,1.07,0.86,1.94,1.94,1.94h1.4c7.15,2.67,11.94,9.55,11.94,17.21v3.23H3.88V58.391z
				 M3.88,65.501h39.45v26.63H3.88V65.501z M43.33,108.151c0,1.53-1.24,2.77-2.77,2.77H6.65c-1.53,0-2.77-1.24-2.77-2.77v-12.15
				h39.45V108.151z"/>
		</g>
	</g>
	<g>
		<g>
			<circle fill="#F04848" cx="17.221" cy="73.265" r="4.198"/>
		</g>
	</g>
	<g>
		<g>
			<circle fill="#F04848" cx="29.986" cy="73.265" r="4.173"/>
		</g>
	</g>
	<g>
		<g>
			<circle fill="#F04848" cx="23.603" cy="84.362" r="4.179"/>
		</g>
	</g>
	<g>
		<g>
			<path fill="#F04848" d="M26.502,107.971h-5.798c-1.071,0-1.939-0.868-1.939-1.939c0-1.071,0.868-1.939,1.939-1.939h5.798
				c1.071,0,1.939,0.868,1.939,1.939C28.441,107.103,27.573,107.971,26.502,107.971z"/>
		</g>
	</g>
</g>
</svg>
