<?xml version="1.0" encoding="utf-8"?>
<!-- Generator: Adobe Illustrator 19.2.1, SVG Export Plug-In . SVG Version: 6.00 Build 0)  -->
<!DOCTYPE svg PUBLIC "-//W3C//DTD SVG 1.1//EN" "http://www.w3.org/Graphics/SVG/1.1/DTD/svg11.dtd">
<svg version="1.1" id="Food_Icons" xmlns="http://www.w3.org/2000/svg" xmlns:xlink="http://www.w3.org/1999/xlink" x="0px" y="0px"
	 width="83.13px" height="83.14px" viewBox="0 0 83.13 83.14" enable-background="new 0 0 83.13 83.14" xml:space="preserve">
<g id="_x39_">
	<g>
		<g>
			<path fill="#F04848" d="M78.54,32.22v-0.01c-1.65-6.62-5.07-12.69-10.02-17.65C63.57,9.61,57.5,6.19,50.88,4.54
				C48.63,1.87,45.76,0,41.57,0c-4.25,0-7.16,1.9-9.46,4.59c-6.57,1.65-12.59,5.07-17.5,9.97C9.7,19.47,6.3,25.49,4.63,32.05
				C1.92,34.36,0,37.29,0,41.55c0,4.11,1.85,6.86,4.51,8.95c1.62,6.75,5.07,12.94,10.1,17.97c5.03,5.03,11.22,8.49,17.96,10.11
				c2.12,2.67,4.87,4.56,9,4.56c4.17,0,6.97-1.91,9.13-4.6c6.69-1.63,12.83-5.07,17.82-10.07c4.99-4.99,8.43-11.12,10.06-17.81
				c2.68-2.16,4.55-4.94,4.55-9.1C83.13,37.35,81.24,34.47,78.54,32.22z M65.69,17.4c3.33,3.32,5.83,7.19,7.49,11.31
				c-0.65-0.36-1.3-0.72-1.95-1.06c-0.59-0.32-1.18-0.63-1.77-0.96c-2.75-1.51-5.47-3.14-7.68-5.34c-2.21-2.21-3.85-4.94-5.35-7.71
				c-0.32-0.58-0.63-1.16-0.94-1.73c-0.36-0.67-0.71-1.33-1.08-2C58.52,11.58,62.37,14.06,65.69,17.4z M17.44,17.4
				c3.26-3.26,7-5.72,11.01-7.36c-0.35,0.6-0.68,1.2-1.02,1.81c-0.37,0.67-0.74,1.34-1.12,2.01c-1.48,2.6-3.09,5.16-5.19,7.25
				c-2.1,2.11-4.65,3.7-7.23,5.18c-0.68,0.38-1.36,0.75-2.04,1.13c-0.61,0.35-1.22,0.68-1.82,1.02
				C11.72,24.36,14.22,20.62,17.44,17.4z M17.44,65.65c-3.46-3.47-6.08-7.54-7.77-11.98c0.8,0.41,1.62,0.8,2.43,1.19
				c0.36,0.18,0.72,0.36,1.08,0.54c3.2,1.54,6.41,3.21,8.87,5.69c1.37,1.37,2.5,2.96,3.5,4.66c0.79,1.35,1.49,2.75,2.17,4.16
				c0.19,0.38,0.37,0.75,0.55,1.13c0.38,0.79,0.76,1.57,1.16,2.36C25.05,71.74,20.96,69.16,17.44,65.65z M65.69,65.65
				c-3.44,3.44-7.45,6-11.72,7.64c0.37-0.73,0.74-1.45,1.1-2.19c0.23-0.44,0.45-0.89,0.69-1.36c1.53-3.02,3.19-6.05,5.56-8.41
				c2.37-2.37,5.41-4.04,8.45-5.59c0.44-0.21,0.89-0.45,1.33-0.66c0.74-0.37,1.48-0.74,2.22-1.12
				C71.67,58.22,69.12,62.22,65.69,65.65z M77.36,46.35c-0.65,0.7-1.44,1.37-2.38,2c-0.88,0.61-1.89,1.19-3.02,1.79
				c-0.82,0.44-1.7,0.89-2.64,1.35c-3.59,1.8-7.64,3.82-10.82,7s-5.21,7.24-7,10.82c-0.46,0.93-0.91,1.8-1.34,2.61
				c-0.6,1.12-1.18,2.13-1.78,3.01c-0.63,0.96-1.29,1.75-2.01,2.4c-1.31,1.17-2.83,1.81-4.8,1.81c-1.94,0-3.42-0.64-4.71-1.8
				c-0.69-0.63-1.33-1.43-1.95-2.37c-0.57-0.87-1.13-1.87-1.7-2.99c-0.44-0.83-0.88-1.73-1.34-2.69c-1.76-3.65-3.77-7.82-6.99-11.04
				c-1.61-1.6-3.45-2.91-5.35-4.04c-1.9-1.12-3.86-2.06-5.69-2.94c-0.98-0.48-1.89-0.92-2.74-1.36c-1.12-0.58-2.12-1.14-3-1.73
				c-0.93-0.62-1.71-1.26-2.34-1.95C4.61,44.96,4,43.48,4,41.55c0-2.03,0.63-3.63,1.8-5.02c0.64-0.79,1.45-1.5,2.41-2.19
				c0.91-0.68,1.96-1.35,3.13-2.04c0.76-0.44,1.58-0.89,2.45-1.38c3.33-1.83,7.11-3.94,10.15-6.98c3.05-3.04,5.14-6.82,6.99-10.15
				c0.49-0.88,0.95-1.71,1.41-2.5c0.68-1.15,1.33-2.19,2-3.1c0.72-0.97,1.45-1.79,2.26-2.45C37.98,4.61,39.56,4,41.57,4
				c1.98,0,3.53,0.61,4.88,1.73c0.78,0.66,1.49,1.46,2.17,2.43c0.65,0.89,1.28,1.92,1.92,3.06c0.46,0.8,0.93,1.67,1.42,2.57
				c1.83,3.43,3.9,7.3,7,10.38c3.09,3.1,6.96,5.18,10.38,7c0.9,0.49,1.74,0.94,2.53,1.39c1.14,0.66,2.16,1.28,3.06,1.92
				c0.96,0.68,1.77,1.38,2.42,2.14c1.15,1.36,1.78,2.93,1.78,4.94C79.13,43.53,78.51,45.04,77.36,46.35z"/>
		</g>
	</g>
	<g>
		<path fill="#F04848" d="M31.902,51.178L31.902,51.178c-2.582-2.578-4.004-6.008-4.004-9.658c0-3.651,1.423-7.082,4.006-9.659
			c2.578-2.578,6.009-3.998,9.659-3.998s7.081,1.42,9.658,3.996c2.584,2.579,4.007,6.01,4.007,9.661s-1.423,7.082-4.004,9.658
			c-2.579,2.584-6.01,4.007-9.661,4.007S34.481,53.762,31.902,51.178z M34.731,34.691c-1.827,1.822-2.833,4.248-2.833,6.829
			s1.006,5.007,2.833,6.829l0.003,0.003c1.822,1.827,4.248,2.833,6.829,2.833s5.007-1.006,6.832-2.836
			c1.827-1.822,2.833-4.248,2.833-6.829s-1.006-5.007-2.834-6.831c-1.884-1.883-4.356-2.824-6.83-2.824
			C39.089,31.865,36.614,32.806,34.731,34.691z"/>
	</g>
	<g>
		<path fill="#F04848" d="M40.965,19.059c0.497,0,0.993-0.189,1.371-0.568l1.197-1.198c0.757-0.757,0.757-1.985-0.001-2.742
			c-0.758-0.756-1.985-0.756-2.742,0.001l-1.197,1.198c-0.757,0.757-0.757,1.985,0.001,2.742
			C39.973,18.869,40.469,19.059,40.965,19.059z"/>
	</g>
	<g>
		<path fill="#F04848" d="M40.965,69.059c0.497,0,0.993-0.189,1.371-0.568l1.197-1.198c0.757-0.757,0.757-1.985-0.001-2.742
			c-0.758-0.756-1.985-0.756-2.742,0.001l-1.197,1.198c-0.757,0.757-0.757,1.985,0.001,2.742
			C39.973,68.869,40.469,69.059,40.965,69.059z"/>
	</g>
	<g>
		<path fill="#F04848" d="M60.385,31.791c0-0.497-0.189-0.993-0.568-1.371l-1.198-1.197c-0.757-0.757-1.985-0.757-2.742,0.001
			c-0.756,0.758-0.756,1.985,0.001,2.742l1.198,1.197c0.757,0.757,1.985,0.757,2.742-0.001
			C60.196,32.783,60.385,32.287,60.385,31.791z"/>
	</g>
	<g>
		<path fill="#F04848" d="M25.698,31.025c-0.351-0.351-0.836-0.568-1.371-0.568l-1.693,0c-1.071,0-1.939,0.869-1.939,1.939
			c0.002,1.07,0.869,1.939,1.939,1.939l1.693,0c1.071,0,1.939-0.869,1.939-1.939C26.265,31.861,26.049,31.376,25.698,31.025z"/>
	</g>
	<g>
		<path fill="#F04848" d="M18.184,43.161c0-0.497-0.189-0.993-0.568-1.371l-1.198-1.197c-0.757-0.757-1.985-0.757-2.742,0.001
			c-0.756,0.758-0.756,1.985,0.001,2.742l1.198,1.197c0.757,0.757,1.985,0.757,2.742-0.001
			C17.995,44.154,18.184,43.658,18.184,43.161z"/>
	</g>
	<g>
		<path fill="#F04848" d="M34.656,56.525c-0.351-0.351-0.836-0.568-1.371-0.568l-1.693,0c-1.071,0-1.939,0.869-1.939,1.939
			c0.002,1.07,0.869,1.939,1.939,1.939l1.693,0c1.071,0,1.939-0.869,1.939-1.939C35.223,57.361,35.007,56.876,34.656,56.525z"/>
	</g>
	<g>
		<path fill="#F04848" d="M68.052,44.104c0.497,0,0.993-0.189,1.371-0.568l1.197-1.198c0.757-0.757,0.757-1.985-0.001-2.742
			c-0.758-0.756-1.985-0.756-2.742,0.001l-1.197,1.198c-0.757,0.757-0.757,1.985,0.001,2.742
			C67.06,43.914,67.556,44.104,68.052,44.104z"/>
	</g>
</g>
</svg>
