<?xml version="1.0" encoding="utf-8"?>
<!-- Generator: Adobe Illustrator 19.2.1, SVG Export Plug-In . SVG Version: 6.00 Build 0)  -->
<!DOCTYPE svg PUBLIC "-//W3C//DTD SVG 1.1//EN" "http://www.w3.org/Graphics/SVG/1.1/DTD/svg11.dtd">
<svg version="1.1" id="Food_Icons" xmlns="http://www.w3.org/2000/svg" xmlns:xlink="http://www.w3.org/1999/xlink" x="0px" y="0px"
	 width="54.405px" height="105.255px" viewBox="0 0 54.405 105.255" enable-background="new 0 0 54.405 105.255"
	 xml:space="preserve">
<g id="_x31_2">
	<g>
		<path fill="#F04848" d="M31.458,85.093h-8.667c-1.104,0-2-0.896-2-2s0.896-2,2-2h8.667c1.104,0,2,0.896,2,2
			S32.563,85.093,31.458,85.093z"/>
	</g>
	<g>
		<path d="M10.11,73.545c-0.22-0.31-0.34-0.7-0.34-1.12c0-0.13,0.01-0.25,0.04-0.37L10.11,73.545z"/>
	</g>
	<g>
		<path d="M40.02,94.235c0,0.41-0.12,0.8-0.34,1.12l0.31-1.47C40.01,93.995,40.02,94.115,40.02,94.235z"/>
	</g>
	<g>
		<path d="M12.3,84.195c-0.22-0.32-0.34-0.7-0.34-1.1c0-0.13,0.01-0.26,0.04-0.38L12.3,84.195z"/>
	</g>
	<g>
		<path d="M42.31,83.095c0,0.41-0.12,0.8-0.34,1.12l0.31-1.46C42.3,82.865,42.31,82.975,42.31,83.095z"/>
	</g>
	<g>
		<path fill="#F3B346" d="M30.7,2.305c-1.09-0.29-2.23-0.44-3.41-0.46c1.01,0,2.04,0.11,3.09,0.33
			C30.48,2.195,30.59,2.245,30.7,2.305z"/>
	</g>
	<g>
		<path fill="#F3B346" d="M27.12,1.845c-1.18,0.02-2.32,0.17-3.41,0.46c0.11-0.06,0.22-0.11,0.32-0.13
			C25.08,1.955,26.11,1.845,27.12,1.845z"/>
	</g>
	<g>
		<g>
			<path d="M10.56,22.415c-0.22,0.18-0.35,0.31-0.38,0.33c-0.13,0.13-0.27,0.23-0.42,0.31c0.21-0.19,0.42-0.36,0.64-0.53
				C10.45,22.485,10.51,22.445,10.56,22.415z"/>
		</g>
	</g>
	<g>
		<g>
			<path fill="#F04848" d="M6.39,46.665v0.02c0.05-0.01,0.11-0.02,0.17-0.02H6.39z M30.38,2.175c-1.05-0.22-2.08-0.33-3.09-0.33
				c1.18,0.02,2.32,0.17,3.41,0.46C30.59,2.245,30.48,2.195,30.38,2.175z M24.03,2.175c-0.1,0.02-0.21,0.07-0.32,0.13
				c1.09-0.29,2.23-0.44,3.41-0.46C26.11,1.845,25.08,1.955,24.03,2.175z"/>
			<path fill="#F04848" d="M52.76,39.005c-0.49-0.5-1.07-0.89-1.7-1.17c0.73-1.85,1.11-3.82,1.11-5.82c0-6.27-3.67-11.86-9.3-14.38
				c0.07-0.58,0.11-1.15,0.11-1.73c0.06-7.59-5-13.98-12.3-15.54c-4.78-1.02-9.66,0.12-13.39,3.13c-3.73,3.02-5.86,7.48-5.86,12.27
				c0,0.6,0.03,1.2,0.1,1.79c-5.71,2.5-9.44,8.12-9.44,14.46c0,2.03,0.38,4.02,1.13,5.89c-1.9,0.88-3.22,2.81-3.22,5.04
				c0,1.5,0.59,2.9,1.64,3.94c0.69,0.69,1.54,1.18,2.46,1.43l1.27,12.03c0.18,1.76,1.29,3.21,2.83,3.88l1.61,7.82v0.01l0.3,1.49
				v0.01l1.89,9.14v0.02l0.3,1.48l0.01,0.02l2.97,14.5c0.77,3.79,4.15,6.54,8.01,6.54h7.69c3.86,0,7.24-2.75,8.01-6.54l0.69-3.36
				l0.31-1.47v-0.01l1.98-9.66l0.31-1.46v-0.02l3.81-18.56c1.47-0.68,2.54-2.09,2.73-3.81l1.35-12.04c2.05-0.54,3.68-2.14,4.11-4.21
				C54.68,42.245,54.11,40.335,52.76,39.005z M30.38,2.175c0.1,0.02,0.21,0.07,0.32,0.13c-1.09-0.29-2.23-0.44-3.41-0.46
				C28.3,1.845,29.33,1.955,30.38,2.175z M24.03,2.175c1.05-0.22,2.08-0.33,3.09-0.33c-1.18,0.02-2.32,0.17-3.41,0.46
				C23.82,2.245,23.93,2.195,24.03,2.175z M6.39,46.685v-0.02h0.17C6.5,46.665,6.44,46.675,6.39,46.685z M41.02,70.425H20.65
				c-1.11,0-2,0.9-2,2c0,1.11,0.89,2,2,2H40.2l-1.37,6.67h-0.4c-1.1,0-2,0.89-2,2c0,0.96,0.68,1.77,1.59,1.96l-1.47,7.18h-0.43
				c-1.11,0-2,0.89-2,2c0,0.97,0.69,1.78,1.61,1.96l-0.36,1.77c-0.43,2.08-2.28,3.58-4.39,3.58h-7.69c-2.11,0-3.96-1.5-4.38-3.58
				l-0.45-2.21H29.6c1.11,0,2-0.89,2-2c0-1.1-0.89-2-2-2H17.63l-1.38-6.75c0.82-0.25,1.42-1.01,1.42-1.91c0-1.11-0.9-2-2-2h-0.23
				l-1.38-6.73c0.88-0.21,1.52-1,1.52-1.94c0-1.1-0.89-2-2-2h-0.33l-1.19-5.79h30.15L41.02,70.425z M45.14,59.965
				c-0.06,0.55-0.53,0.97-1.09,0.97H10.14c-0.56,0-1.03-0.42-1.09-0.98l-1.2-11.43h4.4c0.74,0.05,1.34,0.66,1.34,1.43
				c0,2.71,1.84,5.07,4.4,5.59c0.37,0.08,0.75,0.12,1.12,0.12c1.44,0,2.85-0.57,3.91-1.61c1.05-1.05,1.63-2.44,1.63-3.92v-0.18
				c0-0.77,0.59-1.39,1.33-1.43h20.43L45.14,59.965z M50.66,43.355c-0.17,0.83-1.03,1.46-1.99,1.46H26.08
				c-2.34,0-4.32,1.57-4.94,3.71c-0.13,0.45-0.2,0.93-0.2,1.43v0.18c0,0.49-0.19,0.95-0.53,1.29c-0.44,0.43-1.07,0.62-1.67,0.49
				c-0.83-0.17-1.45-1.02-1.45-1.96c0-0.5-0.07-0.98-0.21-1.43c-0.62-2.14-2.59-3.71-4.93-3.71H5.58c-0.5,0-0.97-0.19-1.33-0.55
				c-0.36-0.35-0.54-0.82-0.54-1.32c0-0.86,0.57-1.58,1.37-1.78c0.15,0.04,0.32,0.06,0.49,0.06h1.64c1.11,0,2-0.89,2-2
				c0-1.1-0.89-2-2-2H6.96c-0.17-0.31-0.32-0.63-0.44-0.96c-1.75-5.06-0.22-10.1,3.24-13.21c0.21-0.19,0.42-0.36,0.64-0.53
				c0.21-0.18,0.44-0.34,0.67-0.48c0.07-0.06,0.15-0.1,0.22-0.15c0.14-0.1,0.28-0.19,0.43-0.27c0.12-0.07,0.24-0.14,0.36-0.2
				c1.18-0.64,2.88-1.27,5.05-1.36c0.94-0.04,1.76-0.76,1.84-1.69c0.1-1.12-0.8-2.07-1.91-2.01c-0.35,0.01-0.69,0.04-1.02,0.07
				c-0.36-0.34-0.54-0.51-0.9-0.85c0.05-3.59,1.67-6.94,4.48-9.21c2.85-2.31,6.6-3.18,10.29-2.39c5.56,1.19,9.42,6.08,9.36,11.89
				c0,0.87-0.1,1.72-0.29,2.53c-0.2,0.92,0.33,1.86,1.24,2.16c6.24,2.08,9.92,8.92,7.5,15.74c-0.12,0.32-0.26,0.62-0.42,0.92h-0.19
				c-1.1,0-2,0.9-2,2c0,1.11,0.9,2,2,2h1.73c0.17,0,0.34-0.02,0.49-0.06c0.31,0.07,0.58,0.23,0.81,0.46
				C50.61,42.085,50.79,42.725,50.66,43.355z"/>
		</g>
	</g>
	<g>
		<path fill="#E9B47A" d="M6.56,46.665c-0.06,0-0.12,0.01-0.17,0.02v-0.02H6.56z"/>
	</g>
	<g>
		<path fill="#EBB886" d="M30.163,101.142h2.17v-0.36C31.653,101.022,30.913,101.142,30.163,101.142z"/>
	</g>
	<g>
		<path fill="#F04848" d="M39.816,41.316H26.334c-1.104,0-2-0.896-2-2s0.896-2,2-2h13.482c1.104,0,2,0.896,2,2
			S40.921,41.316,39.816,41.316z"/>
	</g>
</g>
</svg>
