<?xml version="1.0" encoding="utf-8"?>
<!-- Generator: Adobe Illustrator 19.2.1, SVG Export Plug-In . SVG Version: 6.00 Build 0)  -->
<!DOCTYPE svg PUBLIC "-//W3C//DTD SVG 1.1//EN" "http://www.w3.org/Graphics/SVG/1.1/DTD/svg11.dtd">
<svg version="1.1" id="Food_Icons" xmlns="http://www.w3.org/2000/svg" xmlns:xlink="http://www.w3.org/1999/xlink" x="0px" y="0px"
	 width="56.2px" height="81.01px" viewBox="0 0 56.2 81.01" enable-background="new 0 0 56.2 81.01" xml:space="preserve">
<g id="_x38_">
	<g>
		<polygon fill="#EDEDED" points="28.104,20.047 28.104,20.281 4.452,20.281 4.434,20.047 		"/>
	</g>
	<g>
		<polygon fill="#EDEDED" points="51.775,20.047 51.757,20.281 28.104,20.281 28.104,20.047 		"/>
	</g>
	<path fill="#F04848" d="M49.81,9.04l-1.28-5.01C47.92,1.66,45.78,0,43.34,0H12.91c-2.44,0-4.57,1.65-5.18,4L6.41,9.04
		C2.85,9.16,0,12.1,0,15.69v4.59c0,1.11,0.89,2,2,2h0.79L3.6,33.22c-0.14,0.08-0.27,0.19-0.38,0.31c-0.38,0.4-0.57,0.94-0.54,1.49
		L4.57,64.4c0.05,0.87,0.66,1.57,1.46,1.79l0.39,5.26c0.34,5.36,4.81,9.56,10.18,9.56h23c5.37,0,9.84-4.2,10.18-9.54l0.39-5.28
		c0.8-0.21,1.41-0.92,1.47-1.79l1.88-29.38c0.04-0.55-0.15-1.09-0.53-1.49c-0.11-0.12-0.24-0.23-0.38-0.31l0.81-10.94h0.78
		c1.11,0,2-0.89,2-2v-4.59C56.2,12.11,53.36,9.18,49.81,9.04z M11.6,5.02C11.75,4.42,12.29,4,12.91,4h30.43
		c0.62,0,1.16,0.42,1.31,1.02l1.03,4H10.55L11.6,5.02z M47.77,62.27H8.44L6.81,36.89H49.4L47.77,62.27z M49.01,32.89H7.19L6.4,22.28
		l-0.01-0.19h43.42l-0.01,0.19L49.01,32.89z M46.18,71.22c-0.22,3.46-3.11,6.18-6.58,6.18h-23c-3.47,0-6.36-2.72-6.58-6.2
		l-0.36-4.93h36.89L46.18,71.22z M52.2,18.28H4v-2.59c0-1.47,1.19-2.66,2.65-2.66h42.89c1.47,0,2.66,1.19,2.66,2.66V18.28z"/>
	<g>
		<path fill="#F04848" d="M42.44,49.98c0,1.38-1.12,2.5-2.5,2.5h-4.78c-1.02,2.91-3.8,5-7.06,5c-3.27,0-6.04-2.09-7.06-5h-4.77
			c-1.38,0-2.5-1.12-2.5-2.5c0-1.39,1.12-2.5,2.5-2.5h4.77c1.01-2.92,3.79-5,7.06-5c3.26,0,6.04,2.08,7.06,5h4.78
			C41.32,47.48,42.44,48.59,42.44,49.98z"/>
	</g>
</g>
</svg>
