<svg version="1.1" id="browser-6" xmlns="http://www.w3.org/2000/svg" xmlns:xlink="http://www.w3.org/1999/xlink" x="0px" y="0px" width="32px" height="32px" viewBox="0 0 32 32" enable-background="new 0 0 32 32" xml:space="preserve">
  <rect x="4" y="7" width="2" height="2"/>
  <rect x="7" y="7" width="2" height="2"/>
  <rect x="10" y="7" width="2" height="2"/>
  <path d="M11 15H5v6h6V15zM9 19H7v-2h2V19z"/>
  <path d="M19 15h-6v6h6V15zM17 19h-2v-2h2V19z"/>
  <path d="M27 15h-6v6h6V15zM25 19h-2v-2h2V19z"/>
  <path d="M0 3v26h32V3H0zM7 27v-2h2v2H7zM15 27v-2h2v2H15zM23 27v-2h2v2H23zM30 27h-3v-4h-6v4h-2v-4h-6v4h-2v-4H5v4H2V13h28V27zM30 11H2V5h28V11z"/>
</svg>
