<svg xmlns="http://www.w3.org/2000/svg" xmlns:xlink="http://www.w3.org/1999/xlink" version="1.1" id="fullscreen" x="0px" y="0px" width="32px" height="32px" viewBox="0 0 32 32" enable-background="new 0 0 32 32" xml:space="preserve">
  <path d="M9 23h14V9H9V23zM11 11h10v10H11V11z"/>
  <polygon points="7,21 5,21 5,27 11,27 11,25 7,25 "/>
  <polygon points="7,7 11,7 11,5 5,5 5,11 7,11 "/>
  <polygon points="25,25 21,25 21,27 27,27 27,21 25,21 "/>
  <polygon points="21,5 21,7 25,7 25,11 27,11 27,5 "/>
</svg>
