<svg xmlns="http://www.w3.org/2000/svg" xmlns:xlink="http://www.w3.org/1999/xlink" version="1.1" id="keyboard" x="0px" y="0px" width="32px" height="32px" viewBox="0 0 32 32" enable-background="new 0 0 32 32" xml:space="preserve">
  <rect x="5" y="13" width="2" height="2"/>
  <rect x="9" y="13" width="2" height="2"/>
  <rect x="13" y="13" width="2" height="2"/>
  <rect x="17" y="13" width="2" height="2"/>
  <rect x="21" y="13" width="2" height="2"/>
  <rect x="25" y="13" width="2" height="2"/>
  <rect x="7" y="17" width="2" height="2"/>
  <rect x="11" y="17" width="2" height="2"/>
  <rect x="15" y="17" width="2" height="2"/>
  <rect x="19" y="17" width="2" height="2"/>
  <rect x="23" y="17" width="2" height="2"/>
  <rect x="25" y="21" width="2" height="2"/>
  <rect x="5" y="21" width="2" height="2"/>
  <rect x="9" y="21" width="14" height="2"/>
  <path d="M17 9V5h-2v4H1v18h30V9H17zM29 25H3V11h26V25z"/>
</svg>
