<svg xmlns="http://www.w3.org/2000/svg" xmlns:xlink="http://www.w3.org/1999/xlink" version="1.1" id="transform" x="0px" y="0px" width="32px" height="32px" viewBox="0 0 32 32" enable-background="new 0 0 32 32" xml:space="preserve">
  <path d="M28 10V4h-6v2h-3V4h-6v2h-3V4H4v6h2v3H4v6h2v3H4v6h6v-2h3v2h6v-2h3v2h6v-6h-2v-3h2v-6h-2v-3H28zM24 6h2v2h-2V6zM15 6h2v2h-2V6zM6 6h2v2H6V6zM6 15h2v2H6V15zM8 26H6v-2h2V26zM17 26h-2v-2h2V26zM26 26h-2v-2h2V26zM26 17h-2v-2h2V17zM24 13h-2v6h2v3h-2v2h-3v-2h-6v2h-3v-2H8v-3h2v-6H8v-3h2V8h3v2h6V8h3v2h2V13z"/>
</svg>
