<svg xmlns="http://www.w3.org/2000/svg" xmlns:xlink="http://www.w3.org/1999/xlink" version="1.1" id="video-game-controller" x="0px" y="0px" width="32px" height="32px" viewBox="0 0 32 32" enable-background="new 0 0 32 32" xml:space="preserve">
  <path d="M17 10V6h-2v4H2v16h28V10H17zM28 24H4V12h24V24z"/>
  <polygon points="9,22 11,22 11,19 14,19 14,17 11,17 11,14 9,14 9,17 6,17 6,19 9,19 "/>
  <rect x="18" y="17" width="2" height="2"/>
  <rect x="24" y="17" width="2" height="2"/>
  <rect x="21" y="14" width="2" height="2"/>
  <rect x="21" y="20" width="2" height="2"/>
</svg>
