<?xml version="1.0" encoding="utf-8"?>
<!-- Generator: Adobe Illustrator 19.2.1, SVG Export Plug-In . SVG Version: 6.00 Build 0)  -->
<!DOCTYPE svg PUBLIC "-//W3C//DTD SVG 1.1//EN" "http://www.w3.org/Graphics/SVG/1.1/DTD/svg11.dtd">
<svg version="1.1" id="Food_Icons" xmlns="http://www.w3.org/2000/svg" xmlns:xlink="http://www.w3.org/1999/xlink" x="0px" y="0px"
	 width="800px" height="600px" viewBox="0 0 800 600" enable-background="new 0 0 800 600" xml:space="preserve">
<g id="_x31_">
	<g>
		<path fill="#F04848" d="M190.78,144.6c0.51,0.15,1.06,0.23,1.61,0.23s1.09-0.08,1.61-0.23H190.78z"/>
	</g>
	<g>
		<path fill="#F04848" d="M196.146,97.53c-0.497,0-0.993-0.189-1.371-0.568l-1.197-1.198c-0.757-0.757-0.757-1.985,0.001-2.742
			c0.758-0.756,1.986-0.756,2.742,0.001l1.197,1.198c0.757,0.757,0.757,1.985-0.001,2.742
			C197.139,97.34,196.643,97.53,196.146,97.53z"/>
	</g>
	<g>
		<path fill="#F04848" d="M153.711,97.53c-0.496,0-0.992-0.189-1.371-0.568c-0.757-0.757-0.757-1.985,0-2.741l1.198-1.198
			c0.757-0.757,1.984-0.757,2.741,0c0.757,0.757,0.757,1.985,0,2.741l-1.198,1.198C154.704,97.34,154.208,97.53,153.711,97.53z"/>
	</g>
	<g>
		<path fill="#F04848" d="M175.529,90.746c-0.497,0-0.993-0.189-1.371-0.568l-1.197-1.198c-0.757-0.757-0.757-1.985,0.001-2.742
			c0.758-0.756,1.985-0.756,2.742,0.001l1.197,1.198c0.757,0.757,0.757,1.985-0.001,2.742
			C176.521,90.557,176.025,90.746,175.529,90.746z"/>
	</g>
	<g>
		<path fill="#F04848" d="M183.598,102.477c-0.496,0-0.992-0.189-1.371-0.568c-0.757-0.757-0.757-1.985,0-2.741l1.197-1.197
			c0.757-0.757,1.984-0.757,2.741,0c0.757,0.757,0.757,1.985,0,2.741l-1.197,1.197C184.59,102.288,184.094,102.477,183.598,102.477z
			"/>
	</g>
	<g>
		<path fill="#F04848" d="M166.26,102.477c-0.496,0-0.992-0.189-1.371-0.568l-1.197-1.197c-0.757-0.757-0.757-1.985,0-2.741
			c0.757-0.757,1.984-0.757,2.741,0l1.197,1.197c0.757,0.757,0.757,1.985,0,2.741C167.252,102.288,166.756,102.477,166.26,102.477z"
			/>
	</g>
	<g>
		<path fill="#F04848" d="M184.117,134.376c-0.496,0-0.992-0.189-1.371-0.568c-0.757-0.757-0.757-1.985,0-2.741l2.714-2.714
			c0.757-0.757,1.984-0.757,2.741,0c0.757,0.757,0.757,1.985,0,2.741l-2.714,2.714C185.109,134.187,184.613,134.376,184.117,134.376
			z"/>
	</g>
	<g>
		<path fill="#F04848" d="M176.32,142.83c-0.03,0.01-0.06,0.01-0.09,0.01c-0.03,0-0.06,0-0.09-0.01H176.32z"/>
	</g>
	<g>
		<path fill="#F04848" d="M155.11,142.83c-0.03,0.01-0.06,0.01-0.09,0.01c-0.03,0-0.06,0-0.09-0.01H155.11z"/>
	</g>
	<g>
		<path fill="#F04848" d="M209.62,139.26c0.66-1.08,1.03-2.35,1.03-3.71v-0.48c0-1.36-0.38-2.64-1.04-3.73c1.18-0.55,2-1.75,2-3.14
			v-2.6c0-1.38-0.81-2.57-1.98-3.13c0.65-1.08,1.02-2.34,1.02-3.69v-0.57c0-1.34-0.37-2.61-1.02-3.69c1.17-0.56,1.98-1.76,1.98-3.14
			v-2.6c0-1.78-1.34-3.23-3.06-3.42c0.01-0.06,0.01-0.13,0.01-0.2v-1.38c0-14.02-11.41-25.43-25.44-25.43h-16.38
			c-14.03,0-25.44,11.41-25.44,25.43v1.38c0,0.06,0,0.13,0.01,0.19c-1.78,0.13-3.18,1.62-3.18,3.43v2.6c0,1.38,0.81,2.58,1.98,3.14
			c-0.65,1.08-1.02,2.35-1.02,3.69v0.57c0,1.35,0.37,2.61,1.02,3.69c-1.17,0.56-1.98,1.75-1.98,3.12v2.61c0,1.39,0.82,2.59,2,3.14
			c-0.66,1.09-1.04,2.37-1.04,3.73v0.48c0,1.38,0.39,2.67,1.06,3.76c-1.16,0.55-1.96,1.73-1.96,3.1v2.61c0,1.81,1.39,3.29,3.16,3.44
			c-0.03,0.21-0.05,0.42-0.05,0.64v3.58c0,3.85,3.13,6.97,6.97,6.97h53.32c3.84,0,6.97-3.12,6.97-6.97v-3.58
			c0-0.22-0.02-0.43-0.05-0.64c1.77-0.14,3.16-1.63,3.16-3.44v-2.61C211.67,141.01,210.83,139.8,209.62,139.26z M145.18,103.78
			c0-11.89,9.67-21.56,21.56-21.56h16.38c11.89,0,21.56,9.67,21.56,21.56v1.38c0,0.09-0.07,0.17-0.16,0.17h-59.18
			c-0.09,0-0.16-0.08-0.16-0.17V103.78z M142,109.2h65.73v1.77H142V109.2z M188.2,120c-0.76-0.76-1.98-0.76-2.74,0l-2.14,2.14H167.4
			c0.31-0.71,0.17-1.57-0.41-2.14c-0.75-0.76-1.98-0.76-2.74,0l-2.14,2.14h-15.78c-1.86,0-3.37-1.51-3.37-3.36v-0.57
			c0-1.86,1.51-3.36,3.37-3.36h5.17l2.15,2.14c0.38,0.38,0.87,0.57,1.37,0.57c0.49,0,0.99-0.19,1.37-0.57
			c0.58-0.58,0.72-1.43,0.41-2.14h15.91l2.15,2.14c0.37,0.38,0.87,0.57,1.37,0.57c0.49,0,0.99-0.19,1.37-0.57
			c0.57-0.58,0.71-1.43,0.4-2.14h15.92l2.14,2.14c0.38,0.38,0.88,0.57,1.37,0.57c0.5,0,1-0.19,1.38-0.57
			c0.57-0.58,0.71-1.43,0.4-2.14h4.2c1.86,0,3.36,1.5,3.36,3.36v0.57c0,1.85-1.5,3.36-3.36,3.36h-14.8
			C188.92,121.43,188.78,120.57,188.2,120z M142,126.02h65.73v1.76h-40c-2.27,0-4.41,0.89-6.02,2.5l-1.6,1.6
			c-0.32,0.32-0.84,0.32-1.16,0l-0.22-0.22l-1.4-1.39c-1.6-1.6-3.74-2.49-6.01-2.49H142V126.02z M190.75,139.97
			c-0.14-0.26-0.22-0.57-0.22-0.87c0-0.05,0-0.1-0.01-0.14c-0.07-1.01-0.9-1.8-1.93-1.8c-1.02,0-1.85,0.8-1.92,1.8
			c-0.01,0.05-0.01,0.09-0.01,0.14v3.59c0,0.05,0,0.1-0.02,0.15c-0.07,0.95-0.87,1.71-1.84,1.71c-0.97,0-1.76-0.75-1.82-1.71
			c-0.02-0.04-0.02-0.09-0.02-0.14c0-2.01-1.58-3.64-3.56-3.74h-2.37l-0.01-0.01l-2.14-2.14c-0.75-0.75-1.98-0.75-2.74,0
			c-0.58,0.58-0.72,1.43-0.41,2.14c0,0,0,0,0,0.01h-15.91l-0.01-0.01l-2.14-2.14c-0.75-0.75-1.98-0.75-2.74,0
			c-0.57,0.58-0.71,1.43-0.4,2.14h-4.16c-1.88,0-3.4-1.53-3.4-3.4v-0.48c0-1.88,1.52-3.41,3.4-3.41h4.95c1.24,0,2.4,0.48,3.27,1.36
			l1.62,1.6c0.91,0.92,2.11,1.38,3.32,1.38c1.2,0,2.41-0.46,3.32-1.38l1.61-1.6c0.87-0.88,2.03-1.36,3.27-1.36h35.64
			c1.87,0,3.4,1.53,3.4,3.41v0.48c0,1.88-1.53,3.4-3.4,3.4h-6.06c-0.08,0-0.17,0-0.25,0.01c-1.24,0.06-2.44,0.58-3.4,1.49
			C192.82,141.24,191.31,141,190.75,139.97z M142.07,144.6v-1.76h12.95c-0.03,0-0.06,0-0.09-0.01h24.15v0.01
			c0.02,0.62,0.13,1.21,0.33,1.76H142.07z M204.68,152.68c0,1.71-1.39,3.1-3.09,3.1h-53.32c-1.7,0-3.09-1.39-3.09-3.1v-3.58
			c0-0.34,0.28-0.62,0.62-0.62h58.26c0.34,0,0.62,0.28,0.62,0.62V152.68z M207.8,144.6H194c0.86-0.25,1.66-0.71,2.33-1.34
			c0.26-0.26,0.58-0.4,0.89-0.42h10.58V144.6z"/>
	</g>
</g>
<g id="_x32_">
	<g>
		<g>
			<path fill="#F04848" d="M376.31,133.24c-0.18-0.05-0.37-0.08-0.56-0.08h0.48C376.26,133.19,376.28,133.22,376.31,133.24z"/>
		</g>
	</g>
	<path fill="#F04848" d="M376.23,133.16h-0.48c0.19,0,0.38,0.03,0.56,0.08C376.28,133.22,376.26,133.19,376.23,133.16z"/>
	<path fill="#F04848" d="M378.74,133.16h-2.51c0.03,0.03,0.05,0.06,0.08,0.08c-0.18-0.05-0.37-0.08-0.56-0.08h0.48
		c-1.88-2.1-7.96-8.11-19.19-12.7c-0.83-4.15-2.92-8.59-6.54-9.11c-2.44-0.35-5.06,1.22-7.36,4.43c-0.12,0.17-0.24,0.34-0.34,0.51
		c-5.07-0.97-10.77-1.55-17.13-1.55c-8.59,0-15.98,1.07-22.25,2.69c-0.09-0.22-0.19-0.44-0.3-0.66c-2.02-4.02-9.85-11.54-15.19-8.86
		c-5.06,2.55-4.08,12.41-2.23,16.83c-5.85,3.51-9.28,6.94-10.6,8.42h-3.31c-1.07,0-1.94,0.87-1.94,1.94s0.87,1.94,1.94,1.94h2.35
		l0.44,1.58c1.82,6.57,7.85,11.15,14.67,11.15h72.89c6.89,0,12.94-4.64,14.72-11.3l0.38-1.43h1.5c1.07,0,1.94-0.87,1.94-1.94
		S379.81,133.16,378.74,133.16z M357.38,126.1c0.05-0.35,0.08-0.73,0.09-1.15c3.21,1.44,5.91,2.98,8.14,4.45
		c-2.37-0.75-5.19-1.53-8.45-2.25C357.26,126.81,357.33,126.46,357.38,126.1z M355.21,130.73c3.65,0.78,6.75,1.62,9.3,2.43h-12.78
		C353.08,132.65,354.28,131.81,355.21,130.73z M343.51,124.86c0-0.25,0.02-0.5,0.06-0.75c0.14-0.95,0.56-2.18,1.16-3.41
		c0.44-0.92,0.98-1.84,1.56-2.66c0.22-0.31,0.44-0.59,0.66-0.85c1.23-1.48,2.26-2.01,2.87-2.01c0.05,0,0.09,0,0.13,0.01
		c0.99,0.14,1.96,1.68,2.66,3.63c0.5,1.42,0.85,3.05,0.97,4.53c0.06,0.8,0.05,1.55-0.04,2.2c-0.04,0.29-0.11,0.56-0.2,0.83
		c-0.53,1.66-1.89,2.91-3.54,3.33l0.56-3.85l0.45-3.08c0.15-1.06-0.58-2.04-1.64-2.2c-1.06-0.14-2.04,0.58-2.2,1.64l-0.44,3.07
		l-0.56,3.85v0.01c-0.01,0-0.01-0.01-0.02-0.01c-0.55-0.33-1.04-0.76-1.43-1.29c-0.65-0.86-1-1.88-1.01-2.93V124.86z M289.68,111.38
		c0.22-0.12,0.49-0.17,0.78-0.17c1.3,0,3.19,1.02,4.96,2.44c1.77,1.42,3.42,3.25,4.23,4.87c-1.25,0.39-2.44,0.81-3.59,1.24
		l-0.93-1.85c-0.48-0.96-1.65-1.35-2.6-0.86c-0.96,0.48-1.35,1.64-0.87,2.6l0.8,1.59c-1.18,0.52-2.3,1.06-3.36,1.61
		C287.63,119.04,287.62,112.4,289.68,111.38z M287.94,128.01c1.14-0.67,2.38-1.35,3.72-2.02c0.82-0.41,1.68-0.82,2.58-1.21
		c1.14-0.5,2.35-1,3.61-1.46c0.72-0.28,1.46-0.54,2.22-0.79c1.29-0.44,2.65-0.84,4.06-1.21c6.05-1.63,13.2-2.7,21.54-2.7
		c5.57,0,10.62,0.48,15.16,1.28c-0.56,1.29-0.94,2.55-1.1,3.65c-0.05,0.33-0.07,0.66-0.08,0.99c-4.38-0.37-9.17-0.59-14.39-0.59
		c-17.74,0-30.57,2.54-38.83,4.99C286.91,128.63,287.42,128.32,287.94,128.01z M325.26,127.83c5.55,0,10.61,0.26,15.18,0.69
		c0.26,0.58,0.58,1.13,0.97,1.65c1.03,1.37,2.41,2.4,3.98,2.99h-59.37C293.87,130.68,306.89,127.83,325.26,127.83z M373.11,137.47
		c-1.32,4.96-5.83,8.43-10.97,8.43h-72.89c-5.08,0-9.58-3.42-10.94-8.32l-0.12-0.45l95.04-0.09L373.11,137.47z"/>
	<g>
		<g>
			<path fill="#F04848" d="M329.51,103.438"/>
		</g>
	</g>
	<g>
		<g>
			<path fill="#F04848" d="M349.21,99.67c0,1.07-0.87,1.93-1.94,1.93h-28.61v0.78c0,2.97-2.42,5.39-5.39,5.39h-10.01
				c-1.07,0-1.94-0.87-1.94-1.94c0-1.07,0.87-1.94,1.94-1.94h10.01c0.83,0,1.51-0.68,1.51-1.51v-0.78h-11.52
				c-1.07,0-1.94-0.86-1.94-1.93s0.87-1.94,1.94-1.94h11.52v-0.78c0-0.83-0.68-1.51-1.51-1.51h-10.01c-1.07,0-1.94-0.87-1.94-1.94
				s0.87-1.93,1.94-1.93h10.01c2.97,0,5.39,2.41,5.39,5.38v0.78h28.61C348.34,97.73,349.21,98.6,349.21,99.67z"/>
		</g>
	</g>
</g>
<g id="_x33_">
	<g>
		<path fill="#F04848" d="M511.94,113.85c0-4.39-3.57-7.96-7.96-7.96c-3.72,0-6.86,2.57-7.73,6.03h-6.57
			c-2.08-4.36-6.05-7.67-11.03-8.82c-1.6-0.37-2.98-1.04-4.1-1.99c-4.21-3.55-9.57-5.51-15.09-5.51c-6.43,0-12.65,2.68-17.05,7.37
			c-4.47,4.75-6.71,10.97-6.31,17.51c0.73,11.8,10.18,21.21,21.99,21.88c0.45,0.03,0.91,0.04,1.36,0.04
			c5.56,0,10.89-1.94,15.13-5.54c1.1-0.93,2.47-1.59,4.07-1.96c4.98-1.15,8.95-4.46,11.03-8.81h6.57c0.87,3.45,4.01,6.02,7.73,6.02
			c4.39,0,7.96-3.57,7.96-7.96c0-1.93-0.68-3.74-1.88-5.16C511.25,117.57,511.94,115.75,511.94,113.85z M477.78,131.12
			c-2.22,0.51-4.14,1.45-5.71,2.78c-3.83,3.25-8.72,4.88-13.76,4.59c-9.68-0.55-17.74-8.57-18.33-18.25
			c-0.34-5.46,1.52-10.65,5.25-14.61c3.73-3.97,8.78-6.16,14.23-6.16c4.61,0,9.08,1.64,12.59,4.61c1.59,1.35,3.52,2.29,5.73,2.8
			c3.12,0.72,5.72,2.56,7.43,5.04c0.8,1.16,1.41,2.47,1.78,3.87c0.27,1.02,0.41,2.1,0.41,3.21s-0.14,2.18-0.41,3.21
			c-0.37,1.4-0.98,2.71-1.8,3.88C483.49,128.57,480.89,130.4,477.78,131.12z M506.1,120.65c1.23,0.75,1.96,2.06,1.96,3.5
			c0,2.25-1.83,4.08-4.08,4.08s-4.09-1.83-4.09-4.08c0-1.07-0.86-1.94-1.94-1.94h-6.99c0.21-1.04,0.32-2.11,0.32-3.21
			c0-1.1-0.11-2.17-0.32-3.21h6.99c1.08,0,1.94-0.87,1.94-1.94c0-2.25,1.84-4.08,4.09-4.08s4.08,1.83,4.08,4.08
			c0,1.44-0.73,2.75-1.95,3.49c-0.58,0.35-0.94,0.97-0.94,1.65S505.52,120.3,506.1,120.65z"/>
	</g>
	<g>
		<path fill="#F04848" d="M459.374,111.258c-0.497,0-0.992-0.189-1.371-0.567l-1.198-1.197c-0.757-0.757-0.757-1.985,0-2.742
			c0.755-0.757,1.984-0.757,2.741-0.001l1.198,1.197c0.757,0.757,0.757,1.985,0,2.742
			C460.367,111.069,459.87,111.258,459.374,111.258z"/>
	</g>
	<g>
		<path fill="#F04848" d="M467.442,122.99c-0.497,0-0.992-0.189-1.371-0.567c-0.757-0.757-0.757-1.985,0-2.742l1.197-1.197
			c0.755-0.757,1.984-0.757,2.741-0.001c0.757,0.757,0.757,1.985,0,2.742l-1.197,1.197C468.435,122.8,467.939,122.99,467.442,122.99
			z"/>
	</g>
	<g>
		<path fill="#F04848" d="M450.104,122.99c-0.497,0-0.992-0.189-1.371-0.568l-1.197-1.197c-0.757-0.757-0.757-1.985,0-2.742
			c0.758-0.757,1.985-0.756,2.741,0.001l1.197,1.197c0.757,0.757,0.757,1.985,0,2.742C451.096,122.8,450.599,122.99,450.104,122.99z
			"/>
	</g>
</g>
<g id="_x34_">
	<g>
		<path fill="#F04848" d="M622.81,157.11l-8.36-20.6c-0.09,0.02-0.17,0.04-0.26,0.06l8.07,19.9c0.22,0.55,0.55,1.01,0.96,1.35
			C623.05,157.61,622.92,157.37,622.81,157.11z"/>
		<path fill="#F04848" d="M660.82,84.49c-0.82-1.86-2.39-3.31-4.3-3.98c-19.85-6.98-40.91-7.14-60.9-0.46
			c-1.93,0.65-3.53,2.08-4.38,3.93c-0.86,1.87-0.91,3.94-0.14,5.85l13.09,32.28c0,0.01,0.01,0.02,0.01,0.03l0.86,2.11l13.65,33.66
			c0.41,1.01,1.01,1.88,1.75,2.58c1.25,1.47,3.08,2.34,5.13,2.35h0.06c2.81,0,5.23-1.6,6.33-4.2l0.23-0.56l2.84-6.7l21.1-49.89
			c0.01-0.02,0.01-0.03,0.02-0.05l4.69-11.1C661.65,88.48,661.64,86.34,660.82,84.49z M608.46,121.72c1.06-0.77,2.34-1.2,3.67-1.2
			c3.42,0,6.21,2.79,6.21,6.21c0,3.14-2.33,5.73-5.35,6.15L608.46,121.72z M632.19,148.3c-2.13-1.01-3.57-3.18-3.57-5.63
			c0-3.43,2.79-6.22,6.22-6.22c0.73,0,1.44,0.13,2.11,0.37L632.19,148.3z M638.53,133.33c-1.17-0.46-2.42-0.7-3.69-0.7
			c-5.54,0-10.04,4.5-10.04,10.04c0,4.01,2.38,7.56,5.91,9.15l-1.99,4.7c-0.57,1.35-1.76,2.15-3.24,2.13
			c-0.88-0.01-1.66-0.3-2.26-0.83c-0.41-0.34-0.74-0.8-0.96-1.35l-8.07-19.9c0.09-0.02,0.17-0.04,0.26-0.06
			c4.42-1.05,7.72-5.04,7.72-9.78c0-5.53-4.51-10.04-10.04-10.04c-1.83,0-3.6,0.5-5.14,1.41l-6.93-17.09
			c16.87-6.34,35.21-6.21,51.98,0.38L638.53,133.33z M657.34,88.85l-3.82,9.02c-17.79-7.03-37.28-7.13-55.15-0.31l-3.72-9.17
			c-0.37-0.92-0.35-1.91,0.06-2.81c0.42-0.91,1.17-1.58,2.12-1.9c19.18-6.4,39.38-6.25,58.42,0.44c0.93,0.33,1.67,1.01,2.07,1.91
			C657.72,86.94,657.73,87.94,657.34,88.85z"/>
	</g>
	<g>
		<path fill="#F04848" d="M634.133,119.871c-5.537,0-10.042-4.505-10.042-10.042s4.505-10.042,10.042-10.042
			c5.537,0,10.042,4.505,10.042,10.042S639.67,119.871,634.133,119.871z M634.133,103.613c-3.428,0-6.216,2.789-6.216,6.216
			c0,3.428,2.789,6.216,6.216,6.216s6.216-2.789,6.216-6.216C640.35,106.402,637.561,103.613,634.133,103.613z"/>
	</g>
</g>
<path id="_x35_" fill="#F04848" d="M196.34,269.11h-30.77l-1.5-11.68c-0.14-1.09-1.14-1.87-2.23-1.73l-5.68,0.71
	c-0.52,0.07-1,0.34-1.33,0.76c-0.32,0.42-0.47,0.95-0.4,1.48l1.34,10.46h-2.32c-3.67,0-6.65,2.99-6.65,6.66v4.59c0,1.11,0.89,2,2,2
	h0.79l0.86,11.71l2.77,37.46c0.34,5.36,4.81,9.56,10.18,9.56h23c5.37,0,9.84-4.2,10.18-9.54l2.77-37.45l0.87-11.74H201
	c1.11,0,2-0.89,2-2v-4.59C203,272.1,200.01,269.11,196.34,269.11z M160.36,259.92l1.18,9.19h-1.74l-1.15-8.98L160.36,259.92z
	 M153.2,282.36h4.27l1.56,12.16c-2.32-0.32-4.05-0.84-5.01-1.18L153.2,282.36z M192.78,331.3c-0.21,3.36-3.02,6-6.38,6h-23
	c-3.37,0-6.17-2.64-6.38-6.02l-2.49-33.58c1.31,0.36,3.01,0.72,5.02,0.94c0.64,0.07,1.32,0.12,2.03,0.15
	c0.65,0.03,1.33,0.04,2.03,0.03c0.56,0,1.13-0.02,1.72-0.05c0.65-0.04,1.32-0.1,2-0.18c0.64-0.07,1.3-0.17,1.98-0.28
	c1.97-0.34,4.06-0.85,6.24-1.6c9.43-3.26,16.96-1.5,19.83-0.56L192.78,331.3z M161.5,282.36h1.73l1.59,12.41
	c-0.6,0.03-1.17,0.04-1.73,0.04L161.5,282.36z M195.88,292.11c-3.82-1.14-11.77-2.59-21.64,0.82c-1.9,0.65-3.72,1.1-5.44,1.4
	l-1.54-11.97h29.34L195.88,292.11z M199,278.17c-0.14-0.02-0.28-0.04-0.42-0.04h-47.35c-0.14,0-0.29,0.02-0.43,0.05v-2.41
	c0-1.47,1.19-2.66,2.65-2.66h42.89c1.47,0,2.66,1.19,2.66,2.66V278.17z"/>
<g id="_x36_">
	<g>
		<g>
			<path fill="#F04848" d="M335.636,260.847h-20.745c-1.071,0-1.939-0.868-1.939-1.939V250.6c0-1.071,0.868-1.939,1.939-1.939
				h20.745c1.071,0,1.939,0.868,1.939,1.939v8.309C337.574,259.979,336.707,260.847,335.636,260.847z M316.829,256.97h16.868v-4.431
				h-16.868V256.97z"/>
		</g>
	</g>
	<g>
		<g>
			<path fill="#F04848" d="M332.126,252.539H318.4c-1.071,0-1.939-0.868-1.939-1.939v-7.062c0-1.071,0.868-1.939,1.939-1.939h13.726
				c1.071,0,1.939,0.868,1.939,1.939v7.062C334.065,251.67,333.197,252.539,332.126,252.539z M320.339,248.661h9.848v-3.185h-9.848
				V248.661z"/>
		</g>
	</g>
	<g>
		<g>
			<path fill="#F04848" d="M348.86,304.98l0.01,30.69v-30.51C348.87,305.1,348.87,305.04,348.86,304.98z"/>
			<path fill="#F04848" d="M348.86,304.98c0-0.01,0-0.01,0-0.02v-4.97c0-8.94-5.38-17-13.52-20.47v-18.67h0.3
				c1.07,0,1.93-0.87,1.93-1.94v-8.31c0-1.07-0.86-1.94-1.93-1.94h-1.58v-5.12c0-1.07-0.86-1.94-1.93-1.94H318.4
				c-1.07,0-1.94,0.87-1.94,1.94v5.12h-1.57c-1.07,0-1.94,0.87-1.94,1.94v8.31c0,1.07,0.87,1.94,1.94,1.94h0.3v18.67
				c-8.15,3.47-13.53,11.53-13.53,20.47v49.76c0,3.67,2.98,6.65,6.65,6.65h33.91c3.66,0,6.65-2.98,6.65-6.65v-14.08L348.86,304.98z
				 M320.34,245.48h9.85v3.18h-9.85V245.48z M316.83,252.54h16.87v4.43h-16.87V252.54z M331.46,260.94v7.94h-12.34v-7.94H331.46z
				 M305.54,299.99c0-7.66,4.79-14.54,11.93-17.21h1.55c1.07,0,1.94-0.87,1.94-1.94c0-1.06-0.85-1.92-1.9-1.94v-6.14h12.4v6.15
				c-0.99,0.09-1.75,0.92-1.75,1.93c0,1.07,0.86,1.94,1.94,1.94h1.4c7.15,2.67,11.94,9.55,11.94,17.21v3.23h-39.45V299.99z
				 M305.54,307.1h39.45v26.63h-39.45V307.1z M344.99,349.75c0,1.53-1.24,2.77-2.77,2.77h-33.91c-1.53,0-2.77-1.24-2.77-2.77V337.6
				h39.45V349.75z"/>
		</g>
	</g>
	<g>
		<g>
			<circle fill="#F04848" cx="318.881" cy="314.863" r="4.198"/>
		</g>
	</g>
	<g>
		<g>
			<circle fill="#F04848" cx="331.646" cy="314.863" r="4.173"/>
		</g>
	</g>
	<g>
		<g>
			<circle fill="#F04848" cx="325.263" cy="325.96" r="4.179"/>
		</g>
	</g>
	<g>
		<g>
			<path fill="#F04848" d="M328.162,349.57h-5.798c-1.071,0-1.939-0.868-1.939-1.939s0.868-1.939,1.939-1.939h5.798
				c1.071,0,1.939,0.868,1.939,1.939S329.233,349.57,328.162,349.57z"/>
		</g>
	</g>
</g>
<g id="_x37_">
	<g>
		<g>
			<path fill="#F04848" d="M482.43,261.5l1.29,12.4h0.03L482.43,261.5z"/>
			<path fill="#F04848" d="M489.23,284.35c-0.34,0-0.62-0.25-0.66-0.59l-0.81-7.81c0,0,0.01-0.01,0-0.02l-1.5-14.43h0.65
				c1.05,0,1.9-0.86,1.9-1.91v-8.68c0-2.76-2.24-5.01-5-5.01h-20.18c-2.76,0-5,2.25-5,5.01v8.68c0,1.05,0.85,1.91,1.9,1.91h0.65
				l-1.46,14.1c-0.01,0.06-0.01,0.12-0.01,0.19l-0.83,7.97c-0.04,0.34-0.32,0.59-0.67,0.59c-5.7,0-10.33,4.64-10.33,10.34v49.91
				c0,4.58,3.72,8.3,8.29,8.3h35.1c4.57,0,8.29-3.72,8.29-8.3v-49.91C499.56,288.99,494.93,284.35,489.23,284.35z M462.44,250.91
				c0-0.66,0.53-1.2,1.19-1.2h20.18c0.66,0,1.19,0.54,1.19,1.2v6.78h-22.56V250.91z M485.42,258.18c-0.17-0.15-0.37-0.27-0.58-0.36
				C485.05,257.9,485.25,258.02,485.42,258.18z M483.75,273.9h-20.02l1.28-12.4h17.42L483.75,273.9z M495.75,344.6
				c0,2.48-2.01,4.49-4.48,4.49h-35.1c-2.47,0-4.48-2.01-4.48-4.49v-7.07h44.06V344.6z M495.75,333.72h-44.06v-30.19h44.06V333.72z
				 M495.75,299.72h-44.06v-5.03c0-3.61,2.91-6.52,6.52-6.53h4.36c1.05,0,1.9-0.86,1.9-1.91c0-1.03-0.82-1.87-1.84-1.89
				c0.01-0.07,0.02-0.14,0.03-0.21l0.67-6.44h20.79l0.67,6.44c0.01,0.07,0.01,0.14,0.03,0.2h-0.04c-1.05,0-1.9,0.85-1.9,1.9
				s0.85,1.91,1.9,1.91h4.45c3.6,0,6.52,2.92,6.52,6.53V299.72z"/>
		</g>
	</g>
	<g>
		<path fill="#F04848" d="M484.84,257.82c0.21,0.09,0.41,0.21,0.58,0.36C485.25,258.02,485.05,257.9,484.84,257.82z"/>
	</g>
	<g>
		<path fill="#F04848" d="M486.26,261.5l1.5,14.43c0.01-0.11,0.01-0.22,0-0.33L486.26,261.5z M484.84,257.82
			c0.21,0.09,0.41,0.21,0.58,0.36C485.25,258.02,485.05,257.9,484.84,257.82z"/>
	</g>
	<g>
		<g>
			<line fill="none" x1="458.214" y1="286.252" x2="462.567" y2="286.252"/>
		</g>
	</g>
	<g>
		<g>
			<line fill="none" x1="489.226" y1="286.252" x2="484.783" y2="286.252"/>
		</g>
	</g>
	<g>
		<g>
			<path fill="#F04848" d="M485.848,318.446c-0.514,0-1.025-0.206-1.401-0.614c-2.795-3.032-6.604-4.702-10.728-4.702
				c-4.124,0-7.933,1.67-10.728,4.702c-0.711,0.774-1.917,0.822-2.691,0.109c-0.773-0.712-0.822-1.917-0.109-2.691
				c3.473-3.768,8.403-5.929,13.528-5.929c5.125,0,10.055,2.161,13.528,5.929c0.713,0.774,0.664,1.978-0.109,2.691
				C486.772,318.279,486.31,318.446,485.848,318.446z"/>
		</g>
	</g>
	<g>
		<g>
			<path fill="#F04848" d="M479.07,321.942h-10.7c-1.051,0-1.904-0.853-1.904-1.904s0.853-1.904,1.904-1.904h10.7
				c1.051,0,1.904,0.853,1.904,1.904S480.121,321.942,479.07,321.942z"/>
		</g>
	</g>
	<g>
		<g>
			<path fill="#F04848" d="M479.07,327.927h-10.7c-1.051,0-1.904-0.853-1.904-1.904c0-1.051,0.853-1.904,1.904-1.904h10.7
				c1.051,0,1.904,0.853,1.904,1.904C480.974,327.074,480.121,327.927,479.07,327.927z"/>
		</g>
	</g>
	<g>
		<g>
			<path fill="#F04848" d="M476.668,269.601h-5.849c-1.051,0-1.904-0.853-1.904-1.904c0-1.051,0.853-1.904,1.904-1.904h5.849
				c1.051,0,1.904,0.853,1.904,1.904C478.572,268.749,477.719,269.601,476.668,269.601z"/>
		</g>
	</g>
</g>
<g id="_x38_">
	<g>
		<polygon fill="#EDEDED" points="626.004,277.927 626.004,278.161 602.352,278.161 602.334,277.927 		"/>
	</g>
	<g>
		<polygon fill="#EDEDED" points="649.675,277.927 649.657,278.161 626.004,278.161 626.004,277.927 		"/>
	</g>
	<path fill="#F04848" d="M647.71,266.92l-1.28-5.01c-0.61-2.37-2.75-4.03-5.19-4.03h-30.43c-2.44,0-4.57,1.65-5.18,4l-1.32,5.04
		c-3.56,0.12-6.41,3.06-6.41,6.65v4.59c0,1.11,0.89,2,2,2h0.79l0.81,10.94c-0.14,0.08-0.27,0.19-0.38,0.31
		c-0.38,0.4-0.57,0.94-0.54,1.49l1.89,29.38c0.05,0.87,0.66,1.57,1.46,1.79l0.39,5.26c0.34,5.36,4.81,9.56,10.18,9.56h23
		c5.37,0,9.84-4.2,10.18-9.54l0.39-5.28c0.8-0.21,1.41-0.92,1.47-1.79l1.88-29.38c0.04-0.55-0.15-1.09-0.53-1.49
		c-0.11-0.12-0.24-0.23-0.38-0.31l0.81-10.94h0.78c1.11,0,2-0.89,2-2v-4.59C654.1,269.99,651.26,267.06,647.71,266.92z M609.5,262.9
		c0.15-0.6,0.69-1.02,1.31-1.02h30.43c0.62,0,1.16,0.42,1.31,1.02l1.03,4h-35.13L609.5,262.9z M645.67,320.15h-39.33l-1.63-25.38
		h42.59L645.67,320.15z M646.91,290.77h-41.82l-0.79-10.61l-0.01-0.19h43.42l-0.01,0.19L646.91,290.77z M644.08,329.1
		c-0.22,3.46-3.11,6.18-6.58,6.18h-23c-3.47,0-6.36-2.72-6.58-6.2l-0.36-4.93h36.89L644.08,329.1z M650.1,276.16h-48.2v-2.59
		c0-1.47,1.19-2.66,2.65-2.66h42.89c1.47,0,2.66,1.19,2.66,2.66V276.16z"/>
	<g>
		<path fill="#F04848" d="M640.34,307.86c0,1.38-1.12,2.5-2.5,2.5h-4.78c-1.02,2.91-3.8,5-7.06,5c-3.27,0-6.04-2.09-7.06-5h-4.77
			c-1.38,0-2.5-1.12-2.5-2.5c0-1.39,1.12-2.5,2.5-2.5h4.77c1.01-2.92,3.79-5,7.06-5c3.26,0,6.04,2.08,7.06,5h4.78
			C639.22,305.36,640.34,306.47,640.34,307.86z"/>
	</g>
</g>
<g id="_x39_">
	<g>
		<g>
			<path fill="#F04848" d="M211.43,468.65v-0.01c-1.65-6.62-5.07-12.69-10.02-17.65c-4.95-4.95-11.02-8.37-17.64-10.02
				c-2.25-2.67-5.12-4.54-9.31-4.54c-4.25,0-7.16,1.9-9.46,4.59c-6.57,1.65-12.59,5.07-17.5,9.97c-4.91,4.91-8.31,10.93-9.98,17.49
				c-2.71,2.31-4.63,5.24-4.63,9.5c0,4.11,1.85,6.86,4.51,8.95c1.62,6.75,5.07,12.94,10.1,17.97c5.03,5.03,11.22,8.49,17.96,10.11
				c2.12,2.67,4.87,4.56,9,4.56c4.17,0,6.97-1.91,9.13-4.6c6.69-1.63,12.83-5.07,17.82-10.07c4.99-4.99,8.43-11.12,10.06-17.81
				c2.68-2.16,4.55-4.94,4.55-9.1C216.02,473.78,214.13,470.9,211.43,468.65z M198.58,453.83c3.33,3.32,5.83,7.19,7.49,11.31
				c-0.65-0.36-1.3-0.72-1.95-1.06c-0.59-0.32-1.18-0.63-1.77-0.96c-2.75-1.51-5.47-3.14-7.68-5.34c-2.21-2.21-3.85-4.94-5.35-7.71
				c-0.32-0.58-0.63-1.16-0.94-1.73c-0.36-0.67-0.71-1.33-1.08-2C191.41,448.01,195.26,450.49,198.58,453.83z M150.33,453.83
				c3.26-3.26,7-5.72,11.01-7.36c-0.35,0.6-0.68,1.2-1.02,1.81c-0.37,0.67-0.74,1.34-1.12,2.01c-1.48,2.6-3.09,5.16-5.19,7.25
				c-2.1,2.11-4.65,3.7-7.23,5.18c-0.68,0.38-1.36,0.75-2.04,1.13c-0.61,0.35-1.22,0.68-1.82,1.02
				C144.61,460.79,147.11,457.05,150.33,453.83z M150.33,502.08c-3.46-3.47-6.08-7.54-7.77-11.98c0.8,0.41,1.62,0.8,2.43,1.19
				c0.36,0.18,0.72,0.36,1.08,0.54c3.2,1.54,6.41,3.21,8.87,5.69c1.37,1.37,2.5,2.96,3.5,4.66c0.79,1.35,1.49,2.75,2.17,4.16
				c0.19,0.38,0.37,0.75,0.55,1.13c0.38,0.79,0.76,1.57,1.16,2.36C157.94,508.17,153.85,505.59,150.33,502.08z M198.58,502.08
				c-3.44,3.44-7.45,6-11.72,7.64c0.37-0.73,0.74-1.45,1.1-2.19c0.23-0.44,0.45-0.89,0.69-1.36c1.53-3.02,3.19-6.05,5.56-8.41
				c2.37-2.37,5.41-4.04,8.45-5.59c0.44-0.21,0.89-0.45,1.33-0.66c0.74-0.37,1.48-0.74,2.22-1.12
				C204.56,494.65,202.01,498.65,198.58,502.08z M210.25,482.78c-0.65,0.7-1.44,1.37-2.38,2c-0.88,0.61-1.89,1.19-3.02,1.79
				c-0.82,0.44-1.7,0.89-2.64,1.35c-3.59,1.8-7.64,3.82-10.82,7s-5.21,7.24-7,10.82c-0.46,0.93-0.91,1.8-1.34,2.61
				c-0.6,1.12-1.18,2.13-1.78,3.01c-0.63,0.96-1.29,1.75-2.01,2.4c-1.31,1.17-2.83,1.81-4.8,1.81c-1.94,0-3.42-0.64-4.71-1.8
				c-0.69-0.63-1.33-1.43-1.95-2.37c-0.57-0.87-1.13-1.87-1.7-2.99c-0.44-0.83-0.88-1.73-1.34-2.69c-1.76-3.65-3.77-7.82-6.99-11.04
				c-1.61-1.6-3.45-2.91-5.35-4.04c-1.9-1.12-3.86-2.06-5.69-2.94c-0.98-0.48-1.89-0.92-2.74-1.36c-1.12-0.58-2.12-1.14-3-1.73
				c-0.93-0.62-1.71-1.26-2.34-1.95c-1.15-1.27-1.76-2.75-1.76-4.68c0-2.03,0.63-3.63,1.8-5.02c0.64-0.79,1.45-1.5,2.41-2.19
				c0.91-0.68,1.96-1.35,3.13-2.04c0.76-0.44,1.58-0.89,2.45-1.38c3.33-1.83,7.11-3.94,10.15-6.98c3.05-3.04,5.14-6.82,6.99-10.15
				c0.49-0.88,0.95-1.71,1.41-2.5c0.68-1.15,1.33-2.19,2-3.1c0.72-0.97,1.45-1.79,2.26-2.45c1.38-1.13,2.96-1.74,4.97-1.74
				c1.98,0,3.53,0.61,4.88,1.73c0.78,0.66,1.49,1.46,2.17,2.43c0.65,0.89,1.28,1.92,1.92,3.06c0.46,0.8,0.93,1.67,1.42,2.57
				c1.83,3.43,3.9,7.3,7,10.38c3.09,3.1,6.96,5.18,10.38,7c0.9,0.49,1.74,0.94,2.53,1.39c1.14,0.66,2.16,1.28,3.06,1.92
				c0.96,0.68,1.77,1.38,2.42,2.14c1.15,1.36,1.78,2.93,1.78,4.94C212.02,479.96,211.4,481.47,210.25,482.78z"/>
		</g>
	</g>
	<g>
		<path fill="#F04848" d="M164.792,487.608L164.792,487.608c-2.582-2.578-4.004-6.008-4.004-9.658c0-3.651,1.423-7.082,4.006-9.659
			c2.578-2.578,6.009-3.998,9.659-3.998s7.081,1.42,9.658,3.996c2.584,2.579,4.007,6.01,4.007,9.661s-1.423,7.082-4.004,9.658
			c-2.579,2.584-6.01,4.007-9.661,4.007S167.371,490.192,164.792,487.608z M167.621,471.121c-1.827,1.822-2.833,4.248-2.833,6.829
			s1.006,5.007,2.833,6.829l0.003,0.003c1.822,1.827,4.248,2.833,6.829,2.833s5.007-1.006,6.832-2.836
			c1.827-1.822,2.833-4.248,2.833-6.829s-1.006-5.007-2.834-6.831c-1.884-1.883-4.356-2.824-6.83-2.824
			C171.979,468.295,169.504,469.236,167.621,471.121z"/>
	</g>
	<g>
		<path fill="#F04848" d="M173.855,455.489c0.497,0,0.993-0.189,1.371-0.568l1.197-1.198c0.757-0.757,0.757-1.985-0.001-2.742
			c-0.758-0.756-1.985-0.756-2.742,0.001l-1.197,1.198c-0.757,0.757-0.757,1.985,0.001,2.742
			C172.863,455.299,173.359,455.489,173.855,455.489z"/>
	</g>
	<g>
		<path fill="#F04848" d="M173.855,505.489c0.497,0,0.993-0.189,1.371-0.568l1.197-1.198c0.757-0.757,0.757-1.985-0.001-2.742
			c-0.758-0.756-1.985-0.756-2.742,0.001l-1.197,1.198c-0.757,0.757-0.757,1.985,0.001,2.742
			C172.863,505.299,173.359,505.489,173.855,505.489z"/>
	</g>
	<g>
		<path fill="#F04848" d="M193.275,468.221c0-0.497-0.189-0.993-0.568-1.371l-1.198-1.197c-0.757-0.757-1.985-0.757-2.742,0.001
			c-0.756,0.758-0.756,1.985,0.001,2.742l1.198,1.197c0.757,0.757,1.985,0.757,2.742-0.001
			C193.086,469.213,193.275,468.717,193.275,468.221z"/>
	</g>
	<g>
		<path fill="#F04848" d="M158.588,467.455c-0.351-0.351-0.836-0.568-1.371-0.568l-1.693,0c-1.071,0-1.939,0.869-1.939,1.939
			c0.002,1.07,0.869,1.939,1.939,1.939l1.693,0c1.071,0,1.939-0.869,1.939-1.939C159.156,468.291,158.939,467.806,158.588,467.455z"
			/>
	</g>
	<g>
		<path fill="#F04848" d="M151.074,479.591c0-0.497-0.189-0.993-0.568-1.371l-1.198-1.197c-0.757-0.757-1.985-0.757-2.742,0.001
			c-0.756,0.758-0.756,1.985,0.001,2.742l1.198,1.197c0.757,0.757,1.985,0.757,2.742-0.001
			C150.885,480.584,151.074,480.087,151.074,479.591z"/>
	</g>
	<g>
		<path fill="#F04848" d="M167.546,492.955c-0.351-0.351-0.836-0.568-1.371-0.568l-1.693,0c-1.071,0-1.939,0.869-1.939,1.939
			c0.002,1.07,0.869,1.939,1.939,1.939l1.693,0c1.071,0,1.939-0.869,1.939-1.939C168.113,493.791,167.897,493.306,167.546,492.955z"
			/>
	</g>
	<g>
		<path fill="#F04848" d="M200.943,480.534c0.497,0,0.993-0.189,1.371-0.568l1.197-1.198c0.757-0.757,0.757-1.985-0.001-2.742
			c-0.758-0.756-1.985-0.756-2.742,0.001l-1.197,1.198c-0.757,0.757-0.757,1.985,0.001,2.742
			C199.95,480.344,200.446,480.534,200.943,480.534z"/>
	</g>
</g>
<g id="_x31_0">
	<path fill="#F04848" d="M351.28,445.49l-0.06-0.19c-0.43-1.39-1.56-2.41-2.94-2.74c-3.28-9.53-12.34-16.4-22.98-16.4
		s-19.7,6.87-22.98,16.4c-1.36,0.32-2.49,1.32-2.95,2.68c-1.12,3.37-1.12,7.07,0,10.44c0.46,1.36,1.59,2.36,2.95,2.68
		c2.74,7.94,9.48,14.03,17.81,15.84v53.47c0,2.25,1.83,4.07,4.07,4.07h2.2c2.24,0,4.07-1.82,4.07-4.07V474.2
		c8.33-1.81,15.07-7.9,17.81-15.84c1.38-0.33,2.51-1.35,2.94-2.74l0.06-0.19C352.31,452.18,352.31,448.74,351.28,445.49z
		 M325.3,430.16c8.36,0,15.55,5.07,18.65,12.3h-37.3C309.75,435.23,316.95,430.16,325.3,430.16z M326.47,474.76l-0.07,52.98h-2.2
		l-0.07-0.07v-52.91H326.47z M325.3,470.76c-8.35,0-15.55-5.08-18.65-12.3h37.3C340.85,465.68,333.66,470.76,325.3,470.76z
		 M347.47,454.22l-0.06,0.19h-2.2l-39.82,0.05h-2.16c-0.92-2.6-0.92-5.4-0.06-7.95h2.22l39.82-0.05h2.14c0.03,0,0.05,0.02,0.06,0.05
		l0.06,0.19C348.25,449.16,348.25,451.76,347.47,454.22z"/>
</g>
<g id="_x31_1">
	<g>
		<path fill="#F04848" d="M481.604,475.976H466.4c-1.104,0-2-0.896-2-2s0.896-2,2-2h15.203c1.104,0,2,0.896,2,2
			S482.708,475.976,481.604,475.976z"/>
	</g>
	<g>
		<path fill="#F04848" d="M454.121,463.616c0.486,0,0.971-0.185,1.342-0.556l1.172-1.172c0.741-0.741,0.741-1.943-0.001-2.683
			c-0.742-0.74-1.943-0.74-2.683,0.001l-1.172,1.172c-0.741,0.741-0.741,1.943,0.001,2.683
			C453.15,463.431,453.636,463.616,454.121,463.616z"/>
	</g>
	<g>
		<path fill="#F04848" d="M466.402,468.458c0.485,0,0.971-0.185,1.341-0.556c0.741-0.741,0.741-1.942,0-2.683l-1.172-1.172
			c-0.741-0.741-1.942-0.741-2.683,0c-0.741,0.741-0.741,1.942,0,2.683l1.172,1.172
			C465.431,468.273,465.916,468.458,466.402,468.458z"/>
	</g>
	<g>
		<path fill="#F04848" d="M493.883,463.554c-0.486,0-0.971-0.185-1.342-0.556l-1.172-1.172c-0.741-0.741-0.741-1.943,0.001-2.683
			c0.742-0.74,1.943-0.74,2.683,0.001l1.172,1.172c0.741,0.741,0.741,1.943-0.001,2.683
			C494.854,463.369,494.368,463.554,493.883,463.554z"/>
	</g>
	<g>
		<path fill="#F04848" d="M481.602,468.396c-0.485,0-0.971-0.185-1.341-0.556c-0.741-0.741-0.741-1.942,0-2.683l1.172-1.172
			c0.741-0.741,1.942-0.741,2.683,0c0.741,0.741,0.741,1.942,0,2.683l-1.172,1.172C482.573,468.211,482.088,468.396,481.602,468.396
			z"/>
	</g>
	<g>
		<path fill="#F04848" d="M476.485,454.733c0,0.485-0.185,0.971-0.556,1.341c-0.741,0.741-1.942,0.741-2.683,0l-1.172-1.172
			c-0.741-0.741-0.741-1.942,0-2.683c0.741-0.741,1.942-0.741,2.683,0l1.172,1.172C476.3,453.763,476.485,454.248,476.485,454.733z"
			/>
	</g>
	<g>
		<path fill="#F04848" d="M508.12,474.04c-0.6-0.6-1.28-1.09-2.02-1.47v-0.51c0-16.87-13.73-30.6-30.6-30.6h-3.22
			c-16.88,0-30.6,13.73-30.6,30.6v0.63c-2.51,1.36-4.11,4-4.11,6.94c0,2.1,0.82,4.09,2.31,5.58c0.96,0.96,2.14,1.65,3.42,2
			c-0.03,0.46,0.03,0.92,0.17,1.36l7.01,21.9c0.91,2.84,3.53,4.75,6.51,4.75h34.02c2.99,0,5.61-1.91,6.52-4.75l7.01-21.9
			c0.14-0.44,0.2-0.9,0.17-1.35c3.3-0.95,5.72-3.99,5.72-7.59C510.43,477.51,509.61,475.53,508.12,474.04z M493.8,509.28
			c-0.39,1.21-1.51,2.03-2.79,2.03h-4.58l2.52-14.84c0.19-1.09-0.55-2.12-1.64-2.3c-1.09-0.19-2.12,0.54-2.3,1.63l-2.63,15.51H476
			v-16.58c0-1.1-0.89-2-2-2c-1.1,0-2,0.9-2,2v16.58h-6.35l-2.63-15.51c-0.19-1.08-1.21-1.82-2.31-1.63
			c-1.09,0.18-1.82,1.21-1.64,2.3l2.52,14.84h-4.6c-1.27,0-2.39-0.82-2.78-2.03l-6.97-21.75h53.52L493.8,509.28z M502.54,483.61
			h-57.07c-1.07,0-2.07-0.41-2.82-1.17c-0.75-0.75-1.17-1.75-1.17-2.81c0-1.6,0.94-3.02,2.38-3.65h4.32c1.1,0,2-0.9,2-2
			c0-1.11-0.9-2-2-2h-2.59c0.04-14.67,12-26.6,26.69-26.6h3.22c14.58,0,26.47,11.76,26.67,26.3h-2.46c-1.11,0-2,0.89-2,2
			c0,1.1,0.89,2,2,2h3.51l0.4,0.11c0.66,0.18,1.24,0.52,1.73,1.01c0.76,0.76,1.17,1.76,1.17,2.83
			C506.52,481.82,504.73,483.61,502.54,483.61z"/>
	</g>
</g>
<g id="_x31_2">
	<g>
		<path fill="#F04848" d="M630.248,510.468h-8.667c-1.104,0-2-0.896-2-2s0.896-2,2-2h8.667c1.104,0,2,0.896,2,2
			S631.353,510.468,630.248,510.468z"/>
	</g>
	<g>
		<path d="M608.9,498.92c-0.22-0.31-0.34-0.7-0.34-1.12c0-0.13,0.01-0.25,0.04-0.37L608.9,498.92z"/>
	</g>
	<g>
		<path d="M638.81,519.61c0,0.41-0.12,0.8-0.34,1.12l0.31-1.47C638.8,519.37,638.81,519.49,638.81,519.61z"/>
	</g>
	<g>
		<path d="M611.09,509.57c-0.22-0.32-0.34-0.7-0.34-1.1c0-0.13,0.01-0.26,0.04-0.38L611.09,509.57z"/>
	</g>
	<g>
		<path d="M641.1,508.47c0,0.41-0.12,0.8-0.34,1.12l0.31-1.46C641.09,508.24,641.1,508.35,641.1,508.47z"/>
	</g>
	<g>
		<path fill="#F3B346" d="M629.49,427.68c-1.09-0.29-2.23-0.44-3.41-0.46c1.01,0,2.04,0.11,3.09,0.33
			C629.27,427.57,629.38,427.62,629.49,427.68z"/>
	</g>
	<g>
		<path fill="#F3B346" d="M625.91,427.22c-1.18,0.02-2.32,0.17-3.41,0.46c0.11-0.06,0.22-0.11,0.32-0.13
			C623.87,427.33,624.9,427.22,625.91,427.22z"/>
	</g>
	<g>
		<g>
			<path d="M609.35,447.79c-0.22,0.18-0.35,0.31-0.38,0.33c-0.13,0.13-0.27,0.23-0.42,0.31c0.21-0.19,0.42-0.36,0.64-0.53
				C609.24,447.86,609.3,447.82,609.35,447.79z"/>
		</g>
	</g>
	<g>
		<g>
			<path fill="#F04848" d="M605.18,472.04v0.02c0.05-0.01,0.11-0.02,0.17-0.02H605.18z M629.17,427.55
				c-1.05-0.22-2.08-0.33-3.09-0.33c1.18,0.02,2.32,0.17,3.41,0.46C629.38,427.62,629.27,427.57,629.17,427.55z M622.82,427.55
				c-0.1,0.02-0.21,0.07-0.32,0.13c1.09-0.29,2.23-0.44,3.41-0.46C624.9,427.22,623.87,427.33,622.82,427.55z"/>
			<path fill="#F04848" d="M651.55,464.38c-0.49-0.5-1.07-0.89-1.7-1.17c0.73-1.85,1.11-3.82,1.11-5.82c0-6.27-3.67-11.86-9.3-14.38
				c0.07-0.58,0.11-1.15,0.11-1.73c0.06-7.59-5-13.98-12.3-15.54c-4.78-1.02-9.66,0.12-13.39,3.13c-3.73,3.02-5.86,7.48-5.86,12.27
				c0,0.6,0.03,1.2,0.1,1.79c-5.71,2.5-9.44,8.12-9.44,14.46c0,2.03,0.38,4.02,1.13,5.89c-1.9,0.88-3.22,2.81-3.22,5.04
				c0,1.5,0.59,2.9,1.64,3.94c0.69,0.69,1.54,1.18,2.46,1.43l1.27,12.03c0.18,1.76,1.29,3.21,2.83,3.88l1.61,7.82v0.01l0.3,1.49
				v0.01l1.89,9.14v0.02l0.3,1.48l0.01,0.02l2.97,14.5c0.77,3.79,4.15,6.54,8.01,6.54h7.69c3.86,0,7.24-2.75,8.01-6.54l0.69-3.36
				l0.31-1.47v-0.01l1.98-9.66l0.31-1.46v-0.02l3.81-18.56c1.47-0.68,2.54-2.09,2.73-3.81l1.35-12.04c2.05-0.54,3.68-2.14,4.11-4.21
				C653.47,467.62,652.9,465.71,651.55,464.38z M629.17,427.55c0.1,0.02,0.21,0.07,0.32,0.13c-1.09-0.29-2.23-0.44-3.41-0.46
				C627.09,427.22,628.12,427.33,629.17,427.55z M622.82,427.55c1.05-0.22,2.08-0.33,3.09-0.33c-1.18,0.02-2.32,0.17-3.41,0.46
				C622.61,427.62,622.72,427.57,622.82,427.55z M605.18,472.06v-0.02h0.17C605.29,472.04,605.23,472.05,605.18,472.06z
				 M639.81,495.8h-20.37c-1.11,0-2,0.9-2,2c0,1.11,0.89,2,2,2h19.55l-1.37,6.67h-0.4c-1.1,0-2,0.89-2,2c0,0.96,0.68,1.77,1.59,1.96
				l-1.47,7.18h-0.43c-1.11,0-2,0.89-2,2c0,0.97,0.69,1.78,1.61,1.96l-0.36,1.77c-0.43,2.08-2.28,3.58-4.39,3.58h-7.69
				c-2.11,0-3.96-1.5-4.38-3.58l-0.45-2.21h11.14c1.11,0,2-0.89,2-2c0-1.1-0.89-2-2-2h-11.97l-1.38-6.75
				c0.82-0.25,1.42-1.01,1.42-1.91c0-1.11-0.9-2-2-2h-0.23l-1.38-6.73c0.88-0.21,1.52-1,1.52-1.94c0-1.1-0.89-2-2-2h-0.33
				l-1.19-5.79H641L639.81,495.8z M643.93,485.34c-0.06,0.55-0.53,0.97-1.09,0.97h-33.91c-0.56,0-1.03-0.42-1.09-0.98l-1.2-11.43
				h4.4c0.74,0.05,1.34,0.66,1.34,1.43c0,2.71,1.84,5.07,4.4,5.59c0.37,0.08,0.75,0.12,1.12,0.12c1.44,0,2.85-0.57,3.91-1.61
				c1.05-1.05,1.63-2.44,1.63-3.92v-0.18c0-0.77,0.59-1.39,1.33-1.43h20.43L643.93,485.34z M649.45,468.73
				c-0.17,0.83-1.03,1.46-1.99,1.46h-22.59c-2.34,0-4.32,1.57-4.94,3.71c-0.13,0.45-0.2,0.93-0.2,1.43v0.18
				c0,0.49-0.19,0.95-0.53,1.29c-0.44,0.43-1.07,0.62-1.67,0.49c-0.83-0.17-1.45-1.02-1.45-1.96c0-0.5-0.07-0.98-0.21-1.43
				c-0.62-2.14-2.59-3.71-4.93-3.71h-6.57c-0.5,0-0.97-0.19-1.33-0.55c-0.36-0.35-0.54-0.82-0.54-1.32c0-0.86,0.57-1.58,1.37-1.78
				c0.15,0.04,0.32,0.06,0.49,0.06H606c1.11,0,2-0.89,2-2c0-1.1-0.89-2-2-2h-0.25c-0.17-0.31-0.32-0.63-0.44-0.96
				c-1.75-5.06-0.22-10.1,3.24-13.21c0.21-0.19,0.42-0.36,0.64-0.53c0.21-0.18,0.44-0.34,0.67-0.48c0.07-0.06,0.15-0.1,0.22-0.15
				c0.14-0.1,0.28-0.19,0.43-0.27c0.12-0.07,0.24-0.14,0.36-0.2c1.18-0.64,2.88-1.27,5.05-1.36c0.94-0.04,1.76-0.76,1.84-1.69
				c0.1-1.12-0.8-2.07-1.91-2.01c-0.35,0.01-0.69,0.04-1.02,0.07c-0.36-0.34-0.54-0.51-0.9-0.85c0.05-3.59,1.67-6.94,4.48-9.21
				c2.85-2.31,6.6-3.18,10.29-2.39c5.56,1.19,9.42,6.08,9.36,11.89c0,0.87-0.1,1.72-0.29,2.53c-0.2,0.92,0.33,1.86,1.24,2.16
				c6.24,2.08,9.92,8.92,7.5,15.74c-0.12,0.32-0.26,0.62-0.42,0.92h-0.19c-1.1,0-2,0.9-2,2c0,1.11,0.9,2,2,2h1.73
				c0.17,0,0.34-0.02,0.49-0.06c0.31,0.07,0.58,0.23,0.81,0.46C649.4,467.46,649.58,468.1,649.45,468.73z"/>
		</g>
	</g>
	<g>
		<path fill="#E9B47A" d="M605.35,472.04c-0.06,0-0.12,0.01-0.17,0.02v-0.02H605.35z"/>
	</g>
	<g>
		<path fill="#EBB886" d="M628.953,526.516h2.17v-0.36C630.443,526.396,629.703,526.516,628.953,526.516z"/>
	</g>
	<g>
		<path fill="#F04848" d="M638.606,466.69h-13.482c-1.104,0-2-0.896-2-2s0.896-2,2-2h13.482c1.104,0,2,0.896,2,2
			S639.711,466.69,638.606,466.69z"/>
	</g>
</g>
</svg>
