<svg id="Layer_1" data-name="Layer 1" xmlns="http://www.w3.org/2000/svg" width="197.272" height="198.325" viewBox="0 0 197.272 198.325">
  <title>Artboard 73star-rate</title>
  <g>
    <g>
      <g>
        <rect x="1.354" y="88.479" width="194.563" height="108.492" rx="16.816" ry="16.816" fill="#86c8de"/>
        <path d="M179.1,198.325H18.17A18.191,18.191,0,0,1,0,180.155V105.294A18.19,18.19,0,0,1,18.17,87.125H179.1a18.19,18.19,0,0,1,18.17,18.169v74.861A18.191,18.191,0,0,1,179.1,198.325ZM18.17,89.833A15.478,15.478,0,0,0,2.709,105.294v74.861A15.478,15.478,0,0,0,18.17,195.616H179.1a15.478,15.478,0,0,0,15.461-15.461V105.294A15.478,15.478,0,0,0,179.1,89.833Z" fill="#3b0e1e"/>
      </g>
      <g>
        <rect x="12.188" y="99.313" width="172.895" height="86.824" rx="5.981" ry="5.981" fill="#8fdecb"/>
        <path d="M179.1,187.039H18.17a6.892,6.892,0,0,1-6.884-6.884V105.294A6.892,6.892,0,0,1,18.17,98.41H179.1a6.892,6.892,0,0,1,6.884,6.884v74.861A6.892,6.892,0,0,1,179.1,187.039ZM18.17,100.216a5.085,5.085,0,0,0-5.079,5.078v74.861a5.085,5.085,0,0,0,5.079,5.078H179.1a5.085,5.085,0,0,0,5.079-5.078V105.294a5.085,5.085,0,0,0-5.079-5.078Z" fill="#3b0e1e"/>
      </g>
      <g>
        <g>
          <path d="M28.091,166.637a19.61,19.61,0,0,1-2.024-7.817V126.63a19.61,19.61,0,0,1,2.024-7.817c2.667-5.335,7.91-8.278,14.623-8.278s11.956,2.943,14.624,8.278a19.6,19.6,0,0,1,2.023,7.817v32.19a19.6,19.6,0,0,1-2.023,7.817c-2.668,5.335-7.91,8.278-14.624,8.278S30.758,171.972,28.091,166.637Zm7.082-7.817c0,1.379,1.011,8.093,7.541,8.093s7.45-6.622,7.45-8.093V126.63c0-1.472-.92-8-7.45-8s-7.541,6.621-7.541,8Z" fill="#fff"/>
          <path d="M42.714,175.818c-7.121,0-12.6-3.117-15.431-8.776l0-.008a20.484,20.484,0,0,1-2.115-8.214V126.63a20.481,20.481,0,0,1,2.115-8.213c2.833-5.668,8.313-8.785,15.434-8.785s12.6,3.117,15.431,8.777a20.511,20.511,0,0,1,2.119,8.221v32.19a20.5,20.5,0,0,1-2.115,8.214C55.315,172.7,49.835,175.818,42.714,175.818ZM28.9,166.238c2.508,5.014,7.414,7.774,13.813,7.774s11.308-2.762,13.816-7.778a18.846,18.846,0,0,0,1.928-7.414V126.63a18.875,18.875,0,0,0-1.931-7.422c-2.505-5.008-7.412-7.77-13.813-7.77S31.407,114.2,28.9,119.216a18.841,18.841,0,0,0-1.929,7.414v32.19A18.861,18.861,0,0,0,28.9,166.238Zm13.813,1.579c-6.893,0-8.444-6.663-8.444-9V126.63c0-2.31,1.551-8.9,8.444-8.9,6.852,0,8.353,6.428,8.353,8.9v32.19C51.067,161.322,49.566,167.817,42.714,167.817Zm0-48.285c-6.353,0-6.639,7.027-6.639,7.1v32.19c0,.072.286,7.191,6.639,7.191,6.369,0,6.547-7.119,6.547-7.191V126.63C49.261,126.559,49.083,119.532,42.714,119.532Z" fill="#3b0e1e"/>
        </g>
        <g>
          <path d="M97.991,128.653c0,18.027-16.278,18.119-16.646,18.119H73.8v28.143H64.7v-64.38H81.345a18.468,18.468,0,0,1,8.369,2.3C93.393,115.042,97.991,119.64,97.991,128.653Zm-9.2,0c0-4.506-1.2-7.357-3.679-8.829a8.164,8.164,0,0,0-3.771-1.195H73.8v20.049h7.542a9.15,9.15,0,0,0,3.955-1.287C87.691,135.919,88.8,132.976,88.8,128.653Z" fill="#fff"/>
          <path d="M74.706,175.818H63.8V109.632h17.55a19.228,19.228,0,0,1,8.817,2.419c3.993,2.394,8.732,7.209,8.732,16.6,0,18.8-16.833,19.02-17.549,19.02H74.706ZM65.6,174.012h7.3V145.869h8.445c.643,0,15.744-.2,15.744-17.215,0-8.548-4.263-12.9-7.839-15.045a17.575,17.575,0,0,0-7.905-2.171H65.6Zm15.744-34.431H72.9V117.726h8.445a9.063,9.063,0,0,1,4.23,1.321c2.774,1.644,4.122,4.787,4.122,9.607,0,4.771-1.283,7.88-3.924,9.5A9.886,9.886,0,0,1,81.345,139.581Zm-6.639-1.8h6.639a8.457,8.457,0,0,0,3.5-1.163c2.049-1.261,3.052-3.867,3.052-7.959,0-4.186-1.029-6.744-3.236-8.053a7.4,7.4,0,0,0-3.316-1.069H74.706Z" fill="#3b0e1e"/>
        </g>
        <g>
          <path d="M112.433,118.629v20.049h14.992v8.094H112.433v20.141h20.142v8H103.328v-64.38h29.247v8.094Z" fill="#fff"/>
          <path d="M133.478,175.818H102.425V109.632h31.053v9.9H113.336v18.244h14.992v9.9H113.336v18.337h20.142Zm-29.247-1.806h27.441v-6.195H111.531V145.869h14.991v-6.288H111.531V117.726h20.141v-6.288H104.231Z" fill="#3b0e1e"/>
        </g>
        <g>
          <path d="M171.2,174.915H160.076l-13.06-40.468v40.468h-9.1v-64.38h11.037L162.008,151V110.535h9.2Z" fill="#fff"/>
          <path d="M172.107,175.818H159.419l-11.5-35.633v35.633H137.008V109.632h12.6l11.5,35.634V109.632h11Zm-11.373-1.806H170.3V111.438H162.91v45.3l-14.62-45.3h-9.476v62.574h7.3v-45.3Z" fill="#3b0e1e"/>
        </g>
      </g>
    </g>
    <g>
      <path d="M98.636,1.354A20.465,20.465,0,1,0,119.1,21.819,20.465,20.465,0,0,0,98.636,1.354Zm0,32.954a12.49,12.49,0,1,1,12.489-12.489A12.489,12.489,0,0,1,98.636,34.308Z" fill="#fb8b75"/>
      <path d="M98.636,43.637a21.819,21.819,0,1,1,21.819-21.819A21.843,21.843,0,0,1,98.636,43.637Zm0-40.928a19.11,19.11,0,1,0,19.11,19.109A19.131,19.131,0,0,0,98.636,2.709Zm0,32.953a13.844,13.844,0,1,1,13.843-13.844A13.859,13.859,0,0,1,98.636,35.662Zm0-24.979a11.136,11.136,0,1,0,11.135,11.135A11.147,11.147,0,0,0,98.636,10.683Z" fill="#3b0e1e"/>
    </g>
    <g>
      <path d="M78.209,23.022h-.038L29.418,88.479H41.456L82.114,33.891A20.366,20.366,0,0,1,78.209,23.022Z" fill="#fb8b75"/>
      <path d="M42.135,89.833H26.72L77.492,21.668H79.45l.112,1.276a19,19,0,0,0,3.645,10.147l.591.806Zm-10.02-2.708h8.661L80.445,33.864a21.724,21.724,0,0,1-3.133-7.42Z" fill="#3b0e1e"/>
    </g>
    <g>
      <path d="M119.058,23.08a20.361,20.361,0,0,1-3.942,10.869l40.615,54.53h12.038Z" fill="#fb8b75"/>
      <path d="M170.466,89.833H155.051l-.406-.545L113.43,33.954l.595-.809A19,19,0,0,0,117.706,23l.225-3.7Zm-14.055-2.708h8.66L119.94,26.531a21.717,21.717,0,0,1-3.153,7.4Z" fill="#3b0e1e"/>
    </g>
  </g>
</svg>
