<svg id="Layer_1" data-name="Layer 1" xmlns="http://www.w3.org/2000/svg" width="210.753" height="197.914" viewBox="0 0 210.753 197.914">
  <title>Artboard 75star-rate</title>
  <g>
    <g>
      <path d="M146.005,196.56H78.215a6.621,6.621,0,0,1-6.621-6.621v-8.08h81.032v8.08A6.621,6.621,0,0,1,146.005,196.56Z" fill="#8fdecb"/>
      <path d="M146.005,197.914H78.215a7.985,7.985,0,0,1-7.975-7.975v-8.08a1.354,1.354,0,0,1,1.354-1.354h81.032a1.354,1.354,0,0,1,1.354,1.354v8.08A7.984,7.984,0,0,1,146.005,197.914Zm-73.057-14.7v6.726a5.272,5.272,0,0,0,5.267,5.266h67.79a5.272,5.272,0,0,0,5.267-5.266v-6.726Z" fill="#3b0e1e"/>
    </g>
    <g>
      <path d="M147.387,46.007c0,.037,0,.073,0,.109H76.831c0-.036,0-.072,0-.109C53.753,59.375,38.083,85.452,38.083,115.432c0,27.89,13.572,52.383,34.044,66.427h79.966c20.472-14.044,34.044-38.537,34.044-66.427C186.137,85.452,170.468,59.375,147.387,46.007Z" fill="#8fdecb"/>
      <path d="M152.093,183.213H72.127a1.354,1.354,0,0,1-.766-.237C49.676,168.1,36.729,142.849,36.729,115.432c0-29.461,15.107-56.512,39.426-70.6a1.351,1.351,0,0,1,1.212-.073h69.6a1.3,1.3,0,0,1,1.1.073c24.319,14.085,39.426,41.136,39.426,70.6,0,27.417-12.946,52.667-34.631,67.544A1.354,1.354,0,0,1,152.093,183.213Zm-79.544-2.708h79.123c20.741-14.4,33.111-38.7,33.111-65.073,0-28.3-14.382-54.28-37.576-67.961H77.013C53.82,61.152,39.438,87.135,39.438,115.432,39.438,141.81,51.808,166.1,72.549,180.505Z" fill="#3b0e1e"/>
    </g>
    <g>
      <path d="M147.171,46.116a26.135,26.135,0,0,0-25.916-22.8h-18.29a26.134,26.134,0,0,0-25.915,22.8Z" fill="#8fdecb"/>
      <path d="M147.171,47.471H77.05a1.357,1.357,0,0,1-1.344-1.525,27.525,27.525,0,0,1,27.259-23.984h18.29a27.523,27.523,0,0,1,27.259,23.984,1.355,1.355,0,0,1-1.343,1.525ZM78.636,44.762h66.948A24.818,24.818,0,0,0,121.255,24.67h-18.29A24.818,24.818,0,0,0,78.636,44.762Z" fill="#3b0e1e"/>
    </g>
    <path d="M157.705,161.726a1.355,1.355,0,0,1-1.01-2.257,67.03,67.03,0,0,0,15.74-30.9,1.354,1.354,0,1,1,2.651.552,69.731,69.731,0,0,1-16.372,32.15A1.349,1.349,0,0,1,157.705,161.726Z" fill="#3b0e1e"/>
    <path d="M51.605,134.247a1.352,1.352,0,0,1-1.311-1.021A73,73,0,0,1,74.009,59.5a1.354,1.354,0,1,1,1.757,2.061,70.3,70.3,0,0,0-22.848,71,1.354,1.354,0,0,1-.979,1.646A1.369,1.369,0,0,1,51.605,134.247Z" fill="#3b0e1e"/>
    <g>
      <circle cx="112.11" cy="12.335" r="10.981" fill="#8fdecb"/>
      <path d="M112.11,24.67a12.335,12.335,0,1,1,12.336-12.334A12.349,12.349,0,0,1,112.11,24.67Zm0-21.961a9.627,9.627,0,1,0,9.627,9.627A9.637,9.637,0,0,0,112.11,2.709Z" fill="#3b0e1e"/>
    </g>
    <path d="M128.392,64.835a1.355,1.355,0,0,1-1.354-1.355V46.117a1.355,1.355,0,1,1,2.709,0V63.48A1.355,1.355,0,0,1,128.392,64.835Z" fill="#3b0e1e"/>
    <g>
      <polygon points="140.131 96.785 116.654 96.785 116.654 74.84 128.392 63.48 140.131 74.84 140.131 96.785" fill="#fcd36a"/>
      <path d="M140.131,98.14H116.654a1.355,1.355,0,0,1-1.354-1.355V74.84a1.356,1.356,0,0,1,.412-.973l11.739-11.36a1.354,1.354,0,0,1,1.883,0l11.738,11.36a1.352,1.352,0,0,1,.413.973V96.785A1.355,1.355,0,0,1,140.131,98.14Zm-22.123-2.709h20.768V75.414L128.392,65.365,118.008,75.414Z" fill="#3b0e1e"/>
    </g>
    <g>
      <path d="M209.4,81.864c0-15.542-10.415-28.141-23.262-28.141-7.212,0-13.656,3.971-17.923,10.2a81.766,81.766,0,0,1,17.923,51.506,84.643,84.643,0,0,1-.772,11.37C197.1,114.882,209.4,92.869,209.4,81.864ZM176.963,64.218a13.9,13.9,0,0,1,9.174-3.679c9.068,0,16.446,9.566,16.446,21.325,0,4.922-4.118,14.859-10.083,24.5A88.868,88.868,0,0,0,176.963,64.218Z" fill="#8fdecb"/>
      <path d="M185.364,128.157a1.355,1.355,0,0,1-1.341-1.536,83.69,83.69,0,0,0,.759-11.189,80.736,80.736,0,0,0-17.621-50.655,1.356,1.356,0,0,1-.064-1.617c4.7-6.857,11.635-10.791,19.04-10.791,13.573,0,24.616,13.232,24.616,29.5,0,11.876-13.129,34.42-24.423,45.889A1.358,1.358,0,0,1,185.364,128.157ZM169.91,63.88a83.533,83.533,0,0,1,17.581,51.552c0,2.464-.109,4.953-.327,7.439,10.913-12.442,20.88-31.706,20.88-41.007,0-14.77-9.827-26.786-21.907-26.786C179.933,55.078,174.068,58.272,169.91,63.88Zm22.59,43.843a1.37,1.37,0,0,1-.3-.035,1.355,1.355,0,0,1-1.043-1.185A87.534,87.534,0,0,0,175.854,65a1.355,1.355,0,0,1,.215-1.8,15.185,15.185,0,0,1,10.068-4.015c9.815,0,17.8,10.174,17.8,22.679,0,5.135-4.133,15.269-10.285,25.217A1.357,1.357,0,0,1,192.5,107.723ZM178.789,64.478a90.111,90.111,0,0,1,14.574,37.785c4.719-8.287,7.866-16.35,7.866-20.4,0-11.012-6.77-19.971-15.092-19.971A12.194,12.194,0,0,0,178.789,64.478Z" fill="#3b0e1e"/>
    </g>
    <g>
      <path d="M38.083,115.432a82.852,82.852,0,0,1,8.171-36.08L29.691,54.872c-3.794-5.69-13.266-6.231-20.218-5.757A8.739,8.739,0,0,0,1.354,57.85a8.143,8.143,0,0,0,5.6,7.535c4.8,1.77,7.219,9.683,7.219,32v.005a29.49,29.49,0,0,0,24.641,29.084A84.755,84.755,0,0,1,38.083,115.432Z" fill="#8fdecb"/>
      <path d="M38.811,127.829a1.372,1.372,0,0,1-.221-.018A30.718,30.718,0,0,1,12.815,97.39c0-19.907-1.894-29.1-6.333-30.735A9.485,9.485,0,0,1,0,57.85,10.117,10.117,0,0,1,9.38,47.764c7.506-.518,17.317.176,21.438,6.357L47.376,78.593a1.358,1.358,0,0,1,.1,1.348,80.952,80.952,0,0,0-8.036,35.491,83.72,83.72,0,0,0,.716,10.867,1.353,1.353,0,0,1-1.343,1.53ZM13.148,50.341c-1.3,0-2.521.052-3.583.124A7.4,7.4,0,0,0,2.709,57.85a6.8,6.8,0,0,0,4.71,6.264c5.832,2.15,8.105,11.479,8.105,33.272a28.015,28.015,0,0,0,21.719,27.4,86.3,86.3,0,0,1-.514-9.353A83.683,83.683,0,0,1,44.7,79.468L28.57,55.631C25.669,51.281,18.662,50.341,13.148,50.341Z" fill="#3b0e1e"/>
    </g>
  </g>
</svg>
