<svg id="Layer_1" data-name="Layer 1" xmlns="http://www.w3.org/2000/svg" width="197.272" height="198.325" viewBox="0 0 197.272 198.325">
  <title>Artboard 82star-rate</title>
  <g>
    <g>
      <rect x="1.354" y="88.479" width="194.563" height="108.492" rx="16.816" ry="16.816" fill="#86c8de"/>
      <path d="M179.1,198.325H18.17A18.191,18.191,0,0,1,0,180.155V105.294A18.19,18.19,0,0,1,18.17,87.125H179.1a18.19,18.19,0,0,1,18.17,18.169v74.861A18.191,18.191,0,0,1,179.1,198.325ZM18.17,89.833A15.478,15.478,0,0,0,2.709,105.294v74.861A15.478,15.478,0,0,0,18.17,195.616H179.1a15.478,15.478,0,0,0,15.461-15.461V105.294A15.478,15.478,0,0,0,179.1,89.833Z" fill="#3b0e1e"/>
    </g>
    <g>
      <rect x="12.188" y="99.313" width="172.895" height="86.824" rx="5.981" ry="5.981" fill="#fb8b75"/>
      <path d="M179.1,187.039H18.17a6.892,6.892,0,0,1-6.884-6.884V105.294A6.892,6.892,0,0,1,18.17,98.41H179.1a6.892,6.892,0,0,1,6.884,6.884v74.861A6.892,6.892,0,0,1,179.1,187.039ZM18.17,100.216a5.085,5.085,0,0,0-5.079,5.078v74.861a5.085,5.085,0,0,0,5.079,5.078H179.1a5.085,5.085,0,0,0,5.079-5.078V105.294a5.085,5.085,0,0,0-5.079-5.078Z" fill="#3b0e1e"/>
    </g>
    <g>
      <path d="M98.636,1.354A20.465,20.465,0,1,0,119.1,21.819,20.465,20.465,0,0,0,98.636,1.354Zm0,32.954a12.49,12.49,0,1,1,12.489-12.489A12.489,12.489,0,0,1,98.636,34.308Z" fill="#fb8b75"/>
      <path d="M98.636,43.637a21.819,21.819,0,1,1,21.819-21.819A21.843,21.843,0,0,1,98.636,43.637Zm0-40.928a19.11,19.11,0,1,0,19.11,19.109A19.131,19.131,0,0,0,98.636,2.709Zm0,32.953a13.844,13.844,0,1,1,13.843-13.844A13.859,13.859,0,0,1,98.636,35.662Zm0-24.979a11.136,11.136,0,1,0,11.135,11.135A11.147,11.147,0,0,0,98.636,10.683Z" fill="#3b0e1e"/>
    </g>
    <g>
      <path d="M78.209,23.022h-.038L29.418,88.479H41.456L82.114,33.891A20.366,20.366,0,0,1,78.209,23.022Z" fill="#fb8b75"/>
      <path d="M42.135,89.833H26.72L77.492,21.668H79.45l.112,1.276a19,19,0,0,0,3.645,10.147l.591.806Zm-10.02-2.708h8.661L80.445,33.864a21.724,21.724,0,0,1-3.133-7.42Z" fill="#3b0e1e"/>
    </g>
    <g>
      <path d="M119.058,23.08a20.361,20.361,0,0,1-3.942,10.869l40.615,54.53h12.038Z" fill="#fb8b75"/>
      <path d="M170.466,89.833H155.051l-.406-.545L113.43,33.954l.595-.809A19,19,0,0,0,117.706,23l.225-3.7Zm-14.055-2.708h8.66L119.94,26.531a21.717,21.717,0,0,1-3.153,7.4Z" fill="#3b0e1e"/>
    </g>
    <g>
      <g>
        <path d="M22.3,160.089a14.23,14.23,0,0,1-1.47-5.676V131.037a14.236,14.236,0,0,1,1.47-5.678c1.937-3.873,5.743-6.01,10.619-6.01s8.682,2.137,10.619,6.01a14.236,14.236,0,0,1,1.47,5.678v2.938H38.329v-2.938c0-1.069-.668-5.811-5.41-5.811s-5.477,4.809-5.477,5.811v23.376c0,1,.735,5.877,5.477,5.877s5.41-4.809,5.41-5.877v-2.939h6.679v2.939a14.23,14.23,0,0,1-1.47,5.676C41.6,163.963,37.8,166.1,32.919,166.1S24.237,163.963,22.3,160.089Z" fill="#fff"/>
        <path d="M32.919,167c-5.27,0-9.328-2.312-11.427-6.511l0-.008a15.141,15.141,0,0,1-1.562-6.072V131.037a15.147,15.147,0,0,1,1.562-6.073c2.1-4.206,6.16-6.517,11.43-6.517s9.328,2.311,11.427,6.509a15.172,15.172,0,0,1,1.565,6.081v3.842H37.426v-3.842c0-.049-.122-4.907-4.507-4.907s-4.574,4.858-4.574,4.907v23.376c0,.05.2,4.975,4.574,4.975s4.507-4.925,4.507-4.975v-3.841h8.485v3.841a15.141,15.141,0,0,1-1.562,6.072C42.247,164.692,38.189,167,32.919,167Zm-9.81-7.314c1.778,3.551,5.261,5.508,9.81,5.508s8.034-1.957,9.811-5.512a13.4,13.4,0,0,0,1.375-5.273v-2.036H39.232v2.036c0,1.759-1.16,6.78-6.313,6.78-5.207,0-6.379-5.021-6.379-6.78V131.037c0-1.741,1.172-6.713,6.379-6.713,5.179,0,6.313,4.846,6.313,6.713v2.036h4.873v-2.036a13.427,13.427,0,0,0-1.378-5.281c-1.774-3.546-5.258-5.5-9.808-5.5s-8.034,1.958-9.811,5.512a13.4,13.4,0,0,0-1.375,5.273v23.376A13.426,13.426,0,0,0,23.109,159.69Z" fill="#3b0e1e"/>
      </g>
      <g>
        <path d="M67.18,160.29v5.81h-18.3V119.349h6.612V160.29Z" fill="#fff"/>
        <path d="M68.083,167h-20.1V118.447H56.4v40.941H68.083Zm-18.3-1.806H66.278v-4H54.59V120.252H49.784Z" fill="#3b0e1e"/>
      </g>
      <g>
        <path d="M72.523,160.089a14.23,14.23,0,0,1-1.47-5.676V131.037a14.236,14.236,0,0,1,1.47-5.678c1.936-3.873,5.743-6.01,10.619-6.01s8.682,2.137,10.619,6.01a14.245,14.245,0,0,1,1.469,5.678v23.376a14.239,14.239,0,0,1-1.469,5.676c-1.937,3.874-5.744,6.011-10.619,6.011S74.459,163.963,72.523,160.089Zm5.142-5.676c0,1,.735,5.877,5.477,5.877s5.41-4.809,5.41-5.877V131.037c0-1.069-.669-5.811-5.41-5.811s-5.477,4.809-5.477,5.811Z" fill="#fff"/>
        <path d="M83.142,167c-5.27,0-9.328-2.312-11.427-6.511l0-.008a15.149,15.149,0,0,1-1.561-6.072V131.037a15.155,15.155,0,0,1,1.561-6.073c2.1-4.206,6.161-6.517,11.431-6.517s9.327,2.311,11.426,6.509a15.152,15.152,0,0,1,1.565,6.081v23.376a15.129,15.129,0,0,1-1.561,6.072C92.469,164.692,88.411,167,83.142,167Zm-9.81-7.314c1.777,3.551,5.261,5.508,9.81,5.508s8.034-1.957,9.811-5.512a13.4,13.4,0,0,0,1.375-5.273V131.037a13.427,13.427,0,0,0-1.378-5.281c-1.774-3.546-5.258-5.5-9.808-5.5s-8.035,1.958-9.812,5.512a13.41,13.41,0,0,0-1.374,5.273v23.376A13.426,13.426,0,0,0,73.332,159.69Zm9.81,1.5c-5.208,0-6.38-5.021-6.38-6.78V131.037c0-1.741,1.172-6.713,6.38-6.713,5.178,0,6.313,4.846,6.313,6.713v23.376C89.455,156.172,88.3,161.193,83.142,161.193Zm0-35.063c-4.377,0-4.574,4.858-4.574,4.907v23.376c0,.05.2,4.975,4.574,4.975s4.507-4.925,4.507-4.975V131.037C87.649,130.988,87.526,126.13,83.142,126.13Z" fill="#3b0e1e"/>
      </g>
      <g>
        <path d="M116.6,133.975v-2.938c0-1.069-.669-5.811-5.41-5.811s-5.477,4.809-5.477,5.811v2.938c.067.535.8,4.075,6.545,6.012,10.886,3.673,11.02,11.153,11.02,11.487v2.939a14.239,14.239,0,0,1-1.469,5.676c-1.937,3.874-5.744,6.011-10.619,6.011s-8.683-2.137-10.619-6.011a14.23,14.23,0,0,1-1.47-5.676v-2.939h6.612v2.939c0,1,.735,5.877,5.477,5.877s5.41-4.809,5.41-5.877V151.54c0-.333-.669-3.94-6.479-6.01-10.486-3.673-11.02-11.221-11.02-11.555v-2.938a14.236,14.236,0,0,1,1.47-5.678c1.936-3.873,5.743-6.01,10.619-6.01s8.682,2.137,10.619,6.01a14.245,14.245,0,0,1,1.469,5.678v2.938Z" fill="#fff"/>
        <path d="M111.192,167c-5.27,0-9.328-2.312-11.427-6.511a15.166,15.166,0,0,1-1.565-6.08v-3.841h8.418v3.841c0,.05.2,4.975,4.574,4.975s4.507-4.925,4.507-4.975v-2.872h0s-.462-3.23-5.879-5.16c-11.3-3.96-11.62-12.322-11.62-12.4v-2.939a15.155,15.155,0,0,1,1.561-6.073c2.1-4.206,6.161-6.517,11.431-6.517s9.327,2.311,11.426,6.509a15.152,15.152,0,0,1,1.565,6.081v3.842H115.7v-3.842c0-.049-.123-4.907-4.507-4.907s-4.574,4.858-4.574,4.907v2.873c.072.429.762,3.479,5.931,5.222,11.5,3.88,11.634,12,11.634,12.343v2.938a15.129,15.129,0,0,1-1.561,6.072C120.519,164.692,116.461,167,111.192,167Zm-11.186-14.627v2.036a13.427,13.427,0,0,0,1.378,5.281c1.773,3.547,5.258,5.5,9.808,5.5s8.034-1.957,9.811-5.512a13.4,13.4,0,0,0,1.375-5.273v-2.938c0-.291-.119-7.162-10.407-10.633-6.4-2.159-7.094-6.291-7.152-6.754l-.007-.112v-2.939c0-1.741,1.172-6.713,6.38-6.713,5.178,0,6.312,4.846,6.312,6.713v2.036h4.874v-2.036A13.419,13.419,0,0,0,121,125.756c-1.773-3.546-5.257-5.5-9.807-5.5s-8.035,1.958-9.812,5.512a13.41,13.41,0,0,0-1.374,5.273v2.939c0,.061.327,7.169,10.415,10.7,6.779,2.415,7.083,6.819,7.083,6.863v2.872c0,1.759-1.159,6.78-6.312,6.78-5.208,0-6.38-5.021-6.38-6.78v-2.036Z" fill="#3b0e1e"/>
      </g>
      <g>
        <path d="M133.765,125.226v14.56h10.887v5.877H133.765V160.29h14.627v5.81H127.154V119.349h21.238v5.877Z" fill="#fff"/>
        <path d="M149.295,167H126.251V118.447h23.044v7.683H134.668v12.753h10.886v7.683H134.668v12.822h14.627ZM128.056,165.2h19.433v-4H132.863V144.76h10.886v-4.071H132.863V124.324h14.626v-4.072H128.056Z" fill="#3b0e1e"/>
      </g>
      <g>
        <path d="M152.265,166.1V119.349h12.088c4.876,0,8.683,2.137,10.62,6.01a14.245,14.245,0,0,1,1.469,5.678v23.376a10.971,10.971,0,0,1-6.211,10.285,15.05,15.05,0,0,1-5.878,1.4Zm6.612-5.81h5.209a5.756,5.756,0,0,0,5.677-5.877V131.037c0-1.069-.668-5.811-5.41-5.811h-5.476Z" fill="#fff"/>
        <path d="M164.353,167H151.362V118.447h12.991c5.27,0,9.328,2.311,11.427,6.509a15.157,15.157,0,0,1,1.564,6.081v23.376a11.813,11.813,0,0,1-6.71,11.093A15.86,15.86,0,0,1,164.353,167ZM153.168,165.2h11.185a14.124,14.124,0,0,0,5.482-1.311,10.083,10.083,0,0,0,5.7-9.474V131.037a13.432,13.432,0,0,0-1.377-5.281c-1.774-3.546-5.259-5.5-9.809-5.5H153.168Zm10.918-4h-6.112V124.324h6.379c5.179,0,6.313,4.846,6.313,6.713v23.376A6.69,6.69,0,0,1,164.086,161.193Zm-4.306-1.805h4.306a4.836,4.836,0,0,0,4.774-4.975V131.037c0-.049-.123-4.907-4.507-4.907H159.78Z" fill="#3b0e1e"/>
      </g>
    </g>
  </g>
</svg>
