<svg id="Layer_1" data-name="Layer 1" xmlns="http://www.w3.org/2000/svg" width="137.789" height="210.363" viewBox="0 0 137.789 210.363">
  <title>Artboard 86star-rate</title>
  <g>
    <g>
      <g>
        <rect x="102.529" y="42.793" width="18.368" height="11.563" fill="#fcd36a"/>
        <path d="M120.9,55.71H102.529a1.354,1.354,0,0,1-1.354-1.354V42.793a1.355,1.355,0,0,1,1.354-1.355H120.9a1.355,1.355,0,0,1,1.354,1.355V54.356A1.354,1.354,0,0,1,120.9,55.71ZM103.883,53h15.66V44.147h-15.66Z" fill="#3b0e1e"/>
      </g>
      <g>
        <path d="M120.9,5.3V8.1H102.529V5.3a3.946,3.946,0,0,1,3.941-3.941h10.484A3.946,3.946,0,0,1,120.9,5.3Z" fill="#8fdecb"/>
        <path d="M120.9,9.454H102.529A1.354,1.354,0,0,1,101.175,8.1V5.3A5.3,5.3,0,0,1,106.471,0h10.483a5.3,5.3,0,0,1,5.3,5.3V8.1A1.354,1.354,0,0,1,120.9,9.454ZM103.884,6.746h15.657V5.3a2.59,2.59,0,0,0-2.587-2.586H106.471A2.589,2.589,0,0,0,103.884,5.3Z" fill="#3b0e1e"/>
      </g>
      <g>
        <rect x="102.529" y="16.772" width="18.366" height="26.016" fill="#fcd36a"/>
        <path d="M120.9,44.142H102.529a1.354,1.354,0,0,1-1.354-1.354V16.771a1.354,1.354,0,0,1,1.354-1.354H120.9a1.354,1.354,0,0,1,1.354,1.354V42.788A1.354,1.354,0,0,1,120.9,44.142Zm-17.011-2.708h15.657V18.126H103.884Z" fill="#3b0e1e"/>
      </g>
      <g>
        <path d="M124.383,9.863v5.155a1.756,1.756,0,0,1-1.763,1.754H100.805a1.756,1.756,0,0,1-1.764-1.754V9.863A1.764,1.764,0,0,1,100.805,8.1H122.62A1.764,1.764,0,0,1,124.383,9.863Z" fill="#fcd36a"/>
        <path d="M122.62,18.126H100.8a3.116,3.116,0,0,1-3.117-3.108V9.863A3.12,3.12,0,0,1,100.8,6.746H122.62a3.121,3.121,0,0,1,3.118,3.117v5.155A3.117,3.117,0,0,1,122.62,18.126ZM100.8,9.454a.41.41,0,0,0-.409.409v5.155a.4.4,0,0,0,.409.4H122.62a.4.4,0,0,0,.409-.4V9.863a.409.409,0,0,0-.409-.409Z" fill="#3b0e1e"/>
      </g>
      <g>
        <path d="M125.776,60.44l-4.919-6.084H102.549l-4.956,5.888A47.947,47.947,0,0,0,86.329,91.12V200.9a8.112,8.112,0,0,0,8.112,8.112h33.881a8.112,8.112,0,0,0,8.113-8.112V90.583A47.951,47.951,0,0,0,125.776,60.44Z" fill="#fb8b75"/>
        <path d="M128.322,210.363H94.441a9.477,9.477,0,0,1-9.466-9.466V91.12A49.369,49.369,0,0,1,96.557,59.372l4.956-5.888A1.352,1.352,0,0,1,102.549,53h18.308a1.356,1.356,0,0,1,1.053.5l4.919,6.085a49.458,49.458,0,0,1,10.96,31V200.9A9.478,9.478,0,0,1,128.322,210.363ZM103.179,55.71l-4.55,5.406a46.664,46.664,0,0,0-10.946,30V200.9a6.766,6.766,0,0,0,6.758,6.758h33.881a6.765,6.765,0,0,0,6.758-6.758V90.584a46.736,46.736,0,0,0-10.358-29.292L120.21,55.71Z" fill="#3b0e1e"/>
      </g>
      <g>
        <path d="M103.905,167.094H86.329V98.68h17.576a14.042,14.042,0,0,1,14.042,14.042v40.33A14.042,14.042,0,0,1,103.905,167.094Z" fill="#8fdecb"/>
        <path d="M103.905,168.448H86.329a1.354,1.354,0,0,1-1.354-1.354V98.68a1.354,1.354,0,0,1,1.354-1.354h17.576a15.413,15.413,0,0,1,15.4,15.4v40.331A15.413,15.413,0,0,1,103.905,168.448Zm-16.222-2.709h16.222a12.7,12.7,0,0,0,12.687-12.686V112.722a12.7,12.7,0,0,0-12.687-12.688H87.683Z" fill="#3b0e1e"/>
      </g>
    </g>
    <g>
      <path d="M32.057,147.683h0a30.7,30.7,0,0,1-30.7-30.7v-30.7H62.761v30.7A30.7,30.7,0,0,1,32.057,147.683Z" fill="#fb8b75"/>
      <path d="M32.058,149.038A32.1,32.1,0,0,1,0,116.979v-30.7a1.354,1.354,0,0,1,1.354-1.354H62.761a1.354,1.354,0,0,1,1.354,1.354v30.7A32.1,32.1,0,0,1,32.058,149.038ZM2.709,87.631v29.348a29.382,29.382,0,0,0,29.348,29.35h0a29.382,29.382,0,0,0,29.348-29.35V87.631Z" fill="#3b0e1e"/>
    </g>
    <path d="M8.786,102.634a1.354,1.354,0,0,1-1.354-1.354V94.374a1.355,1.355,0,0,1,2.709,0v6.906A1.354,1.354,0,0,1,8.786,102.634Z" fill="#3b0e1e"/>
    <path d="M14.5,132.005a1.351,1.351,0,0,1-1.078-.533,29.044,29.044,0,0,1-5.987-17.754v-3.445a1.355,1.355,0,0,1,2.709,0v3.445a26.36,26.36,0,0,0,5.432,16.112,1.354,1.354,0,0,1-1.076,2.175Z" fill="#3b0e1e"/>
    <path d="M32.057,210.363a1.354,1.354,0,0,1-1.354-1.354V147.683a1.354,1.354,0,0,1,2.708,0v61.326A1.354,1.354,0,0,1,32.057,210.363Z" fill="#3b0e1e"/>
    <path d="M48.088,210.363H16.027a1.354,1.354,0,0,1,0-2.708H48.088a1.354,1.354,0,0,1,0,2.708Z" fill="#3b0e1e"/>
  </g>
</svg>
