<svg id="Layer_1" data-name="Layer 1" xmlns="http://www.w3.org/2000/svg" width="195.916" height="193.458" viewBox="0 0 195.916 193.458">
  <title>Artboard 65star-rate</title>
  <g>
    <path d="M148.4,41.324h-.009L39.952,40.662A1.355,1.355,0,0,1,38.606,39.3l.216-35.292A4.03,4.03,0,0,1,42.852,0h.026L145.962.63a4.031,4.031,0,0,1,4.006,4.055l-.215,35.292A1.355,1.355,0,0,1,148.4,41.324ZM41.323,37.961l105.73.646.207-33.938a1.323,1.323,0,0,0-1.315-1.331L42.861,2.709h-.009A1.323,1.323,0,0,0,41.53,4.023Z" fill="#3b0e1e"/>
    <path d="M94.4,193.458l-8.136-.043A86.782,86.782,0,0,1,0,106.1,90.017,90.017,0,0,1,26.921,42.212c1.538-1.527,3.174-3.024,4.861-4.446a1.352,1.352,0,0,1,1.878.128l6.523.057,106.878.657a1.354,1.354,0,0,1,2.225-.881A90.433,90.433,0,0,1,181.168,107.2,86.78,86.78,0,0,1,94.4,193.458ZM32.668,40.573c-1.327,1.152-2.615,2.347-3.84,3.564A87.322,87.322,0,0,0,2.71,106.116a84.077,84.077,0,0,0,83.567,84.591l8.12.042a84.072,84.072,0,0,0,84.063-83.566h0a87.7,87.7,0,0,0-29.382-66.041,1.155,1.155,0,0,1-.69.184L39.957,40.66,32.9,40.6A1.2,1.2,0,0,1,32.668,40.573Z" fill="#3b0e1e"/>
    <path d="M14.459,89.018a1.384,1.384,0,0,1-.352-.046,1.355,1.355,0,0,1-.957-1.659A90.419,90.419,0,0,1,36.981,46.467a1.354,1.354,0,0,1,1.9,1.927A87.713,87.713,0,0,0,15.766,88.013,1.355,1.355,0,0,1,14.459,89.018Z" fill="#3b0e1e"/>
    <path d="M40.183,40.66h-.226L32.9,40.6a1.354,1.354,0,0,1-1.156-.67L15.532,12.283a3.224,3.224,0,0,1,2.783-4.86h.025l22.035.151A1.354,1.354,0,0,1,41.72,8.936l-.183,30.377A1.354,1.354,0,0,1,40.183,40.66Zm-6.49-2.766,5.144.047L39,10.273l-20.682-.142a.562.562,0,0,0-.458.261.5.5,0,0,0,0,.518Z" fill="#3b0e1e"/>
    <path d="M94.472,192.623l-.538,0-7.746-.047A86.566,86.566,0,0,1,.152,105.481a91.557,91.557,0,0,1,.863-11.79,1.353,1.353,0,0,1,1.9-1.052L8.2,95.013A46.075,46.075,0,0,0,48.415,93.9l6.724-3.475a74.992,74.992,0,0,1,66.011-1.211l10.177,4.8a54.345,54.345,0,0,0,46.363.046l.7-.328a1.353,1.353,0,0,1,1.919,1.06,91.628,91.628,0,0,1,.719,11.8h0A86.669,86.669,0,0,1,94.472,192.623Zm-91-96.765a87.161,87.161,0,0,0-.609,9.638,83.953,83.953,0,0,0,83.344,84.37l7.746.046.52,0a83.951,83.951,0,0,0,83.848-83.345,87.309,87.309,0,0,0-.487-9.6,57.021,57.021,0,0,1-47.659-.51L120,91.663A72.278,72.278,0,0,0,56.382,92.83l-6.723,3.475A48.758,48.758,0,0,1,7.1,97.484Zm176.2,10.719h0Z" fill="#3b0e1e"/>
    <path d="M93.9,181.777h-.42l-6.834-.041a68.693,68.693,0,0,1-34.269-9.383,1.355,1.355,0,0,1,1.353-2.347,66,66,0,0,0,32.933,9.021l6.834.042a67.384,67.384,0,0,0,41.173-13.931A1.354,1.354,0,0,1,136.3,167.3,70.107,70.107,0,0,1,93.9,181.777Z" fill="#3b0e1e"/>
    <path d="M185.893,68.131c-.021,0-.035-.017-.062,0l-3.185-.022A7.222,7.222,0,0,1,175.5,61.66c-1.927-15.38-12.91-27.835-27.329-30.994a1.354,1.354,0,0,1-1.064-1.331l.118-19.247a1.354,1.354,0,0,1,1.55-1.332c24.036,3.52,42.929,22.741,47.012,47.831a9.877,9.877,0,0,1-2.258,8.022A10.035,10.035,0,0,1,185.893,68.131Zm-.045-2.708h.044a7.325,7.325,0,0,0,5.578-2.574,7.173,7.173,0,0,0,1.644-5.826c-3.806-23.38-21.065-41.409-43.19-45.337l-.1,16.586c15.007,3.773,26.344,16.917,28.365,33.05a4.543,4.543,0,0,0,4.474,4.079Z" fill="#3b0e1e"/>
  </g>
</svg>
