<svg id="Layer_1" data-name="Layer 1" xmlns="http://www.w3.org/2000/svg" width="188.695" height="199.435" viewBox="0 0 188.695 199.435">
  <title>Artboard 88star-rate</title>
  <g>
    <g>
      <path d="M101.013,152.452H87.681A67.226,67.226,0,0,1,20.455,85.225H168.24A67.226,67.226,0,0,1,101.013,152.452Z" fill="#fcd36a"/>
      <path d="M101.013,153.807H87.681A68.66,68.66,0,0,1,19.1,85.226a1.355,1.355,0,0,1,1.355-1.355H168.24a1.355,1.355,0,0,1,1.354,1.355A68.659,68.659,0,0,1,101.013,153.807ZM21.823,86.58A65.948,65.948,0,0,0,87.681,151.1h13.332A65.949,65.949,0,0,0,166.872,86.58Z" fill="#3b0e1e"/>
    </g>
    <g>
      <path d="M167.711,93.533a67.785,67.785,0,0,0,.529-8.308H20.455a67.785,67.785,0,0,0,.529,8.308Z" fill="#fb8b75"/>
      <path d="M167.711,94.887H20.984A1.354,1.354,0,0,1,19.64,93.7a68.559,68.559,0,0,1-.54-8.473,1.355,1.355,0,0,1,1.355-1.355H168.24a1.355,1.355,0,0,1,1.354,1.355,68.639,68.639,0,0,1-.539,8.473A1.354,1.354,0,0,1,167.711,94.887ZM22.191,92.178H166.5c.206-1.92.327-3.77.367-5.6H21.824C21.864,88.41,21.985,90.26,22.191,92.178Z" fill="#3b0e1e"/>
    </g>
    <g>
      <path d="M152.065,153.834c-14.964,0-27.747,5.843-32.874,14.09a10.211,10.211,0,0,1-9.319,4.367L12.6,166.428c-6.122-.256-11.243,4.085-11.243,9.529s5.121,9.786,11.243,9.53l97.275-5.863a10.211,10.211,0,0,1,9.319,4.367c5.127,8.246,17.91,14.09,32.874,14.09,19.482,0,35.276-9.905,35.276-22.124S171.547,153.834,152.065,153.834Z" fill="#86c8de"/>
      <path d="M152.064,199.435c-15.106,0-28.461-5.782-34.023-14.729a8.861,8.861,0,0,0-8.087-3.73l-97.276,5.862a12.843,12.843,0,0,1-9.4-3.423,10.129,10.129,0,0,1,0-14.915,12.823,12.823,0,0,1,9.379-3.425l97.3,5.864a8.864,8.864,0,0,0,8.087-3.73c5.563-8.947,18.917-14.729,34.023-14.729,20.2,0,36.631,10.531,36.631,23.477S172.262,199.435,152.064,199.435Zm-41.5-21.186a11.464,11.464,0,0,1,9.774,5.027c5,8.045,17.749,13.45,31.722,13.45,18.705,0,33.922-9.317,33.922-20.769s-15.217-20.769-33.922-20.769c-13.973,0-26.721,5.406-31.722,13.451a11.554,11.554,0,0,1-10.551,5L12.515,167.78a10.029,10.029,0,0,0-7.366,2.675,7.426,7.426,0,0,0,0,11.006,10.024,10.024,0,0,0,7.391,2.672l97.251-5.861Q110.181,178.25,110.568,178.249Z" fill="#3b0e1e"/>
    </g>
    <g>
      <path d="M59.017,66.037a1.354,1.354,0,0,1-1.355-1.354c0-5.078,3.092-7.655,5.82-9.929,2.6-2.167,4.846-4.038,4.846-7.848s-2.245-5.681-4.845-7.848c-2.729-2.274-5.821-4.85-5.821-9.929s3.092-7.655,5.821-9.928c2.6-2.166,4.845-4.037,4.845-7.847a1.355,1.355,0,0,1,2.709,0c0,5.078-3.092,7.655-5.82,9.928-2.6,2.166-4.846,4.037-4.846,7.847s2.245,5.681,4.846,7.848c2.728,2.274,5.82,4.85,5.82,9.929s-3.092,7.655-5.82,9.929c-2.6,2.167-4.846,4.038-4.846,7.848A1.354,1.354,0,0,1,59.017,66.037Z" fill="#3b0e1e"/>
      <path d="M87.014,76.037a1.355,1.355,0,0,1-1.354-1.355c0-6.745,4.155-10.207,7.82-13.262,3.52-2.933,6.846-5.7,6.846-11.182S97,41.991,93.48,39.058C89.815,36,85.66,32.541,85.66,25.8s4.155-10.206,7.82-13.26C97,9.6,100.326,6.83,100.326,1.354a1.354,1.354,0,0,1,2.708,0c0,6.745-4.154,10.208-7.82,13.262-3.52,2.933-6.845,5.7-6.845,11.179s3.325,8.249,6.846,11.182c3.665,3.055,7.819,6.517,7.819,13.261S98.88,60.446,95.214,63.5c-3.52,2.933-6.845,5.7-6.845,11.181A1.355,1.355,0,0,1,87.014,76.037Z" fill="#3b0e1e"/>
      <path d="M119.012,66.037a1.354,1.354,0,0,1-1.354-1.354c0-5.078,3.092-7.655,5.82-9.929,2.6-2.167,4.846-4.038,4.846-7.848s-2.246-5.681-4.846-7.848c-2.728-2.274-5.82-4.85-5.82-9.929s3.092-7.655,5.82-9.928c2.6-2.166,4.846-4.037,4.846-7.847a1.355,1.355,0,0,1,2.709,0c0,5.078-3.092,7.655-5.821,9.928-2.6,2.166-4.846,4.037-4.846,7.847s2.246,5.681,4.846,7.848c2.729,2.274,5.821,4.85,5.821,9.929s-3.093,7.655-5.821,9.929c-2.6,2.167-4.846,4.038-4.846,7.848A1.354,1.354,0,0,1,119.012,66.037Z" fill="#3b0e1e"/>
      <path d="M59.017,66.037a1.354,1.354,0,0,1-1.355-1.354c0-5.078,3.092-7.655,5.82-9.929,2.6-2.167,4.846-4.038,4.846-7.848s-2.245-5.681-4.845-7.848c-2.729-2.274-5.821-4.85-5.821-9.929s3.092-7.655,5.821-9.928c2.6-2.166,4.845-4.037,4.845-7.847a1.355,1.355,0,0,1,2.709,0c0,5.078-3.092,7.655-5.82,9.928-2.6,2.166-4.846,4.037-4.846,7.847s2.245,5.681,4.846,7.848c2.728,2.274,5.82,4.85,5.82,9.929s-3.092,7.655-5.82,9.929c-2.6,2.167-4.846,4.038-4.846,7.848A1.354,1.354,0,0,1,59.017,66.037Z" fill="#3b0e1e"/>
    </g>
  </g>
</svg>
