<svg id="Layer_1" data-name="Layer 1" xmlns="http://www.w3.org/2000/svg" width="184.812" height="184.096" viewBox="0 0 184.812 184.096">
  <title>Artboard 64star-rate</title>
  <g>
    <g>
      <path d="M51.583,184.1H15.414A15.431,15.431,0,0,1,0,168.682V141.974c0-6.294,16.852-9.586,33.5-9.586S67,135.68,67,141.974v26.708A15.431,15.431,0,0,1,51.583,184.1ZM33.5,135.1c-18.795,0-30.789,4.074-30.789,6.878v26.708a12.72,12.72,0,0,0,12.705,12.706H51.583a12.721,12.721,0,0,0,12.706-12.706V141.974C64.289,139.17,52.294,135.1,33.5,135.1Z" fill="#3b0e1e"/>
      <path d="M33.5,151.56c-16.646,0-33.5-3.293-33.5-9.586s16.852-9.586,33.5-9.586S67,135.68,67,141.974,50.145,151.56,33.5,151.56Zm0-16.464c-18.795,0-30.789,4.074-30.789,6.878S14.7,148.852,33.5,148.852s30.791-4.074,30.791-6.878S52.294,135.1,33.5,135.1Z" fill="#3b0e1e"/>
      <path d="M33.5,147.248c-6.188,0-16.66-1.111-16.66-5.274S27.31,136.7,33.5,136.7s16.662,1.111,16.662,5.275S39.686,147.248,33.5,147.248Zm-13.9-5.274c.76.972,5.765,2.565,13.9,2.565s13.145-1.593,13.905-2.565c-.76-.973-5.766-2.566-13.9-2.566S20.355,141,19.594,141.974Zm27.875.1h0Z" fill="#3b0e1e"/>
      <path d="M115.872,176.06H79.7a15.431,15.431,0,0,1-15.414-15.414V133.938c0-6.294,16.851-9.587,33.5-9.587s33.5,3.293,33.5,9.587v26.708A15.432,15.432,0,0,1,115.872,176.06Zm-18.085-49c-18.8,0-30.79,4.073-30.79,6.878v26.708A12.721,12.721,0,0,0,79.7,173.352h36.169a12.72,12.72,0,0,0,12.7-12.706V133.938C128.577,131.133,116.583,127.06,97.787,127.06Z" fill="#3b0e1e"/>
      <path d="M97.787,143.524c-16.647,0-33.5-3.293-33.5-9.586s16.851-9.587,33.5-9.587,33.5,3.293,33.5,9.587S114.434,143.524,97.787,143.524Zm0-16.464c-18.8,0-30.79,4.073-30.79,6.878s12,6.878,30.79,6.878,30.79-4.074,30.79-6.878S116.583,127.06,97.787,127.06Z" fill="#3b0e1e"/>
      <path d="M97.787,139.212c-6.188,0-16.661-1.111-16.661-5.274s10.473-5.274,16.661-5.274,16.661,1.11,16.661,5.274S103.975,139.212,97.787,139.212Zm-13.9-5.274c.761.972,5.767,2.566,13.905,2.566s13.144-1.594,13.9-2.566c-.76-.973-5.766-2.566-13.9-2.566S84.642,132.965,83.882,133.938Zm27.876.1h0Z" fill="#3b0e1e"/>
    </g>
    <g>
      <path d="M59.39,95.918A34.076,34.076,0,1,1,93.466,61.842,34.114,34.114,0,0,1,59.39,95.918Zm0-65.443A31.367,31.367,0,1,0,90.757,61.842,31.4,31.4,0,0,0,59.39,30.475Z" fill="#3b0e1e"/>
      <path d="M59.39,74.451A12.609,12.609,0,1,1,72,61.842,12.623,12.623,0,0,1,59.39,74.451Zm0-22.509a9.9,9.9,0,1,0,9.9,9.9A9.912,9.912,0,0,0,59.39,51.942Z" fill="#3b0e1e"/>
      <path d="M177.355,30.475l-.18,0L26.46,27.352a4.341,4.341,0,0,1,0-8.68L177.179,15.55a7.463,7.463,0,1,1,.176,14.925Zm0-12.218-.114,0L26.516,21.38a1.641,1.641,0,0,0-1.591,1.632,1.622,1.622,0,0,0,1.595,1.631l150.715,3.121a4.754,4.754,0,1,0,.118-9.507Z" fill="#3b0e1e"/>
      <g>
        <path d="M147.313,18.878a1.354,1.354,0,0,1-.977-2.292l13.7-14.277A7.407,7.407,0,0,1,165.343,0a7.3,7.3,0,0,1,5.364,2.185,7.462,7.462,0,0,1-.124,10.676l-5.513,5.289a1.357,1.357,0,0,1-.91.378l-16.819.348Zm16.819-1.7h0Zm1.3-14.466h-.057a4.721,4.721,0,0,0-3.384,1.472L150.554,16.1l13.022-.27,5.135-4.926a4.755,4.755,0,0,0-3.279-8.2Z" fill="#3b0e1e"/>
        <path d="M58.8,118.42a4.33,4.33,0,0,1-3.139-7.328L136.01,27.349a1.323,1.323,0,0,1,1-.417l15.235.315a1.354,1.354,0,0,1,.91,2.331L61.8,117.227A4.333,4.333,0,0,1,58.8,118.42Zm78.75-88.767L57.622,112.965a1.632,1.632,0,0,0,2.31,2.306l88.994-85.384Z" fill="#3b0e1e"/>
      </g>
    </g>
  </g>
</svg>
