<svg id="Layer_1" data-name="Layer 1" xmlns="http://www.w3.org/2000/svg" width="203.484" height="205.684" viewBox="0 0 203.484 205.684">
  <title>Artboard 60star-rate</title>
  <g>
    <g>
      <path d="M193.658,193.4H9.826a1.354,1.354,0,0,1-1.354-1.354V83.8A11.3,11.3,0,0,1,19.757,72.515H183.726A11.3,11.3,0,0,1,195.012,83.8V192.047A1.354,1.354,0,0,1,193.658,193.4ZM11.18,190.692H192.3V83.8a8.587,8.587,0,0,0-8.577-8.577H19.757A8.587,8.587,0,0,0,11.18,83.8Z" fill="#3b0e1e"/>
      <path d="M202.129,205.684H1.354a1.354,1.354,0,0,1-1.115-2.123l8.472-12.283a1.355,1.355,0,0,1,1.115-.586H193.658a1.353,1.353,0,0,1,1.114.586l8.472,12.283a1.354,1.354,0,0,1-1.115,2.123Zm-198.2-2.708H199.55l-6.6-9.575H10.537Z" fill="#3b0e1e"/>
      <path d="M55.778,123.935a16.723,16.723,0,0,1-15.32-10.077,16.673,16.673,0,0,1-31.986-6.6V83.187A10.684,10.684,0,0,1,19.145,72.515H71.1a1.354,1.354,0,0,1,1.354,1.354v33.025a17,17,0,0,1-16.066,17.03C56.186,123.931,55.981,123.935,55.778,123.935ZM40.465,105.907a1.354,1.354,0,0,1,1.354,1.354,13.966,13.966,0,0,0,14.475,13.956,14.273,14.273,0,0,0,13.455-14.323V75.223h-50.6a7.974,7.974,0,0,0-7.965,7.964v24.074a13.965,13.965,0,1,0,27.93,0A1.355,1.355,0,0,1,40.465,105.907Z" fill="#3b0e1e"/>
      <path d="M117.061,123.935a16.7,16.7,0,0,1-15.319-10.092,16.673,16.673,0,0,1-31.993-6.582V73.869A1.354,1.354,0,0,1,71.1,72.515H132.38a1.355,1.355,0,0,1,1.355,1.354v33.392A16.693,16.693,0,0,1,117.061,123.935Zm-15.319-18.028a1.354,1.354,0,0,1,1.354,1.354,13.965,13.965,0,0,0,27.93,0V75.223H72.457v32.038a13.966,13.966,0,0,0,27.931,0A1.354,1.354,0,0,1,101.742,105.907Z" fill="#3b0e1e"/>
      <path d="M147.706,123.935q-.306,0-.613-.011a17,17,0,0,1-16.067-17.03V73.869a1.354,1.354,0,0,1,1.354-1.354h51.959a10.684,10.684,0,0,1,10.673,10.672v24.074a16.673,16.673,0,0,1-31.986,6.6,16.727,16.727,0,0,1-15.32,10.077ZM133.735,75.223v31.671a14.272,14.272,0,0,0,13.454,14.323,13.968,13.968,0,0,0,14.476-13.956,1.354,1.354,0,1,1,2.708,0,13.965,13.965,0,0,0,27.93,0V83.187a7.973,7.973,0,0,0-7.964-7.964Z" fill="#3b0e1e"/>
      <path d="M55.148,193.4H25.781a1.355,1.355,0,0,1-1.355-1.354V132.958a1.355,1.355,0,0,1,1.355-1.355H55.148a1.355,1.355,0,0,1,1.354,1.355v59.089A1.354,1.354,0,0,1,55.148,193.4Zm-28.013-2.709H53.794v-56.38H27.135Z" fill="#3b0e1e"/>
      <path d="M176.715,182.247H71.1a1.355,1.355,0,0,1-1.354-1.355V132.958A1.355,1.355,0,0,1,71.1,131.6H176.715a1.355,1.355,0,0,1,1.354,1.355v47.934A1.355,1.355,0,0,1,176.715,182.247ZM72.457,179.538h102.9V134.312H72.457Z" fill="#3b0e1e"/>
      <path d="M47.223,165.92a3.418,3.418,0,1,1,3.418-3.418A3.421,3.421,0,0,1,47.223,165.92Zm0-5.03a1.613,1.613,0,1,0,1.612,1.612A1.614,1.614,0,0,0,47.223,160.89Z" fill="#3b0e1e"/>
      <path d="M101.742,181.8a.9.9,0,0,1-.9-.9V132.958a.9.9,0,1,1,1.806,0v47.934A.9.9,0,0,1,101.742,181.8Z" fill="#3b0e1e"/>
    </g>
    <g>
      <path d="M43.036,66.479a1.354,1.354,0,0,1-.742-2.486L139.537.223a1.351,1.351,0,0,1,1.695.169,70.206,70.206,0,0,1,19.417,64.652,1.354,1.354,0,0,1-1.321,1.075l-116.287.36ZM140.1,3.092,47.593,63.757l110.623-.343A67.488,67.488,0,0,0,140.1,3.092Z" fill="#3b0e1e"/>
      <path d="M148.9,66.152a1.354,1.354,0,0,1-1.337-1.57,67.376,67.376,0,0,0-17-56.592,1.354,1.354,0,0,1,.254-2.048L139.537.223a1.351,1.351,0,0,1,1.695.169,70.206,70.206,0,0,1,19.417,64.652,1.354,1.354,0,0,1-1.321,1.075l-10.429.033ZM133.619,7.342a70.019,70.019,0,0,1,16.848,56.1l7.749-.024A67.49,67.49,0,0,0,140.1,3.092Z" fill="#3b0e1e"/>
      <path d="M112.41,31.749a11.418,11.418,0,0,1-9.89-5.722,1.354,1.354,0,0,1,.429-1.811l16.873-11.064a1.352,1.352,0,0,1,1.832.328,11.4,11.4,0,0,1,1.759,3.5h0a11.466,11.466,0,0,1-7.683,14.28A11.559,11.559,0,0,1,112.41,31.749Zm-6.827-6.022a8.755,8.755,0,0,0,15.236-7.969h0a8.553,8.553,0,0,0-.659-1.589Z" fill="#3b0e1e"/>
      <path d="M99.415,66.305a1.354,1.354,0,0,1-1.347-1.218,10.833,10.833,0,0,1,21.153-4.2h0a10.772,10.772,0,0,1,.407,4.135,1.354,1.354,0,0,1-1.344,1.227l-18.865.058Zm18.865-1.413h0Zm-9.424-9.02a8.139,8.139,0,0,0-8.125,7.72l16.225-.049a8.067,8.067,0,0,0-.329-1.878h0a8.138,8.138,0,0,0-7.771-5.793Z" fill="#3b0e1e"/>
      <path d="M67.546,58.693a10.98,10.98,0,0,1-8.417-3.931,1.354,1.354,0,0,1,.3-2L75.413,42.274a1.352,1.352,0,0,1,1.955.528,10.965,10.965,0,0,1,.7,1.746h0A10.986,10.986,0,0,1,67.546,58.693ZM62.3,54.109a8.276,8.276,0,0,0,13.207-8.661Z" fill="#3b0e1e"/>
      <path d="M137.033,39.732a1.355,1.355,0,0,1-1.332-1.123l-1.7-9.8a1.354,1.354,0,0,1,2.669-.462l1.7,9.8a1.354,1.354,0,0,1-1.1,1.565A1.318,1.318,0,0,1,137.033,39.732Z" fill="#3b0e1e"/>
      <path d="M88.206,55.439a1.355,1.355,0,0,1-.849-2.411l10.048-8.067a1.355,1.355,0,0,1,1.7,2.113L89.053,55.141A1.354,1.354,0,0,1,88.206,55.439Z" fill="#3b0e1e"/>
      <path d="M128.858,51.96a1.356,1.356,0,0,1-.64-.161l-10.494-5.647a1.355,1.355,0,0,1,1.283-2.386l10.5,5.647a1.355,1.355,0,0,1-.644,2.547Z" fill="#3b0e1e"/>
    </g>
    <path d="M69.54,75.223H61.715a1.354,1.354,0,0,1-1.354-1.354V65.056A1.355,1.355,0,0,1,61.715,63.7H69.54A1.355,1.355,0,0,1,70.9,65.056v8.813A1.354,1.354,0,0,1,69.54,75.223Zm-6.47-2.708h5.116V66.41H63.07Z" fill="#3b0e1e"/>
    <path d="M141.768,75.223h-7.825a1.354,1.354,0,0,1-1.354-1.354v-9a1.354,1.354,0,0,1,1.354-1.354h7.825a1.354,1.354,0,0,1,1.354,1.354v9A1.354,1.354,0,0,1,141.768,75.223ZM135.3,72.515h5.117V66.226H135.3Z" fill="#3b0e1e"/>
  </g>
</svg>
