<svg id="Layer_1" data-name="Layer 1" xmlns="http://www.w3.org/2000/svg" width="216.01" height="192.001" viewBox="0 0 216.01 192.001">
  <title>Artboard 89star-rate</title>
  <g>
    <g>
      <rect x="22.193" y="91.334" width="135.878" height="99.313" fill="#c3bbd2"/>
      <path d="M158.071,192H22.193a1.354,1.354,0,0,1-1.354-1.354V91.334a1.354,1.354,0,0,1,1.354-1.354H158.071a1.355,1.355,0,0,1,1.355,1.354v99.313A1.355,1.355,0,0,1,158.071,192ZM23.547,189.293h133.17v-96.6H23.547Z" fill="#3b0e1e"/>
    </g>
    <g>
      <rect x="104.803" y="115.181" width="41.08" height="75.466" fill="#86c8de"/>
      <path d="M145.883,192H104.8a1.354,1.354,0,0,1-1.354-1.354V115.182a1.355,1.355,0,0,1,1.354-1.355h41.08a1.355,1.355,0,0,1,1.354,1.355v75.465A1.354,1.354,0,0,1,145.883,192Zm-39.725-2.708h38.371V116.536H106.158Z" fill="#3b0e1e"/>
    </g>
    <g>
      <g>
        <rect x="33.027" y="115.181" width="59.59" height="55.999" fill="#86c8de"/>
        <path d="M92.617,172.534H33.027a1.354,1.354,0,0,1-1.354-1.354v-56a1.355,1.355,0,0,1,1.354-1.355h59.59a1.355,1.355,0,0,1,1.354,1.355v56A1.354,1.354,0,0,1,92.617,172.534Zm-58.236-2.708H91.263v-53.29H34.381Z" fill="#3b0e1e"/>
      </g>
      <path d="M50.183,172.534a1.354,1.354,0,0,1-1.354-1.354v-56a1.355,1.355,0,1,1,2.709,0v56A1.355,1.355,0,0,1,50.183,172.534Z" fill="#3b0e1e"/>
    </g>
    <g>
      <path d="M164.615,91.334H15.649A18.384,18.384,0,0,1,34.033,72.95h112.2a18.384,18.384,0,0,1,18.384,18.384Z" fill="#c3bbd2"/>
      <path d="M164.615,92.688H15.649A1.354,1.354,0,0,1,14.3,91.334,19.761,19.761,0,0,1,34.034,71.6h112.2a19.76,19.76,0,0,1,19.738,19.738A1.354,1.354,0,0,1,164.615,92.688ZM17.057,89.98H163.208A17.053,17.053,0,0,0,146.231,74.3H34.034A17.053,17.053,0,0,0,17.057,89.98Z" fill="#3b0e1e"/>
    </g>
    <path d="M211.262,192H1.354a1.354,1.354,0,0,1,0-2.708H211.262a1.354,1.354,0,1,1,0,2.708Z" fill="#3b0e1e"/>
    <g>
      <g>
        <circle cx="191.7" cy="129.665" r="22.956" fill="#8fdecb"/>
        <path d="M191.7,153.974a24.31,24.31,0,1,1,24.309-24.31A24.337,24.337,0,0,1,191.7,153.974Zm0-45.911a21.6,21.6,0,1,0,21.6,21.6A21.626,21.626,0,0,0,191.7,108.063Z" fill="#3b0e1e"/>
      </g>
      <path d="M191.7,192a1.354,1.354,0,0,1-1.355-1.354V142.262a1.355,1.355,0,0,1,2.709,0v48.385A1.354,1.354,0,0,1,191.7,192Z" fill="#3b0e1e"/>
    </g>
    <g>
      <g>
        <g>
          <path d="M95.492,52.654a2.632,2.632,0,0,1-.809.314L44.271,64.279a.914.914,0,0,1-.995-.435.9.9,0,0,1,.119-1.072l35-38A2.681,2.681,0,0,1,79.572,24,17.709,17.709,0,0,0,90.19,37.615l.1.179a17.675,17.675,0,0,0,5.2,14.86Z" fill="#fcd36a"/>
          <path d="M44.064,65.656a2.267,2.267,0,0,1-1.658-3.81L77.4,23.852a4.02,4.02,0,0,1,1.763-1.145l1.51-.477.237,1.566a16.358,16.358,0,0,0,9.8,12.571l.421.176.559.97-.057.452a16.334,16.334,0,0,0,4.8,13.717L97.7,52.906l-1.506.908a4.018,4.018,0,0,1-1.219.478L44.568,65.6A2.352,2.352,0,0,1,44.064,65.656Zm.332-1.972-.005.006ZM78.71,26.429,45.35,62.648,93.022,51.953A19.077,19.077,0,0,1,88.859,38.5,19.105,19.105,0,0,1,78.71,26.429Z" fill="#3b0e1e"/>
        </g>
        <g>
          <path d="M128.266,34.376a17.325,17.325,0,0,1-3.227,1.452,17.689,17.689,0,0,1-15.434-2.056,17.7,17.7,0,0,0-2.73-27.184,17.328,17.328,0,0,1,3.7-2.856,17.691,17.691,0,0,1,17.686,30.644Z" fill="#86c8de"/>
          <path d="M119.457,38.091a19.166,19.166,0,0,1-10.6-3.192l-1.372-.915,1.165-1.169a16.4,16.4,0,0,0,4.606-9.356,16.374,16.374,0,0,0-7.128-15.744l-1.363-.909,1.149-1.168A19.025,19.025,0,0,1,124.353.657a19.046,19.046,0,0,1,4.59,34.892h0a19,19,0,0,1-9.486,2.542Zm-7.739-4.632a16.407,16.407,0,0,0,12.888,1.085,15.99,15.99,0,0,0,2.983-1.341h0A16.337,16.337,0,1,0,109,6.47a19.1,19.1,0,0,1,6.932,17.347A19.172,19.172,0,0,1,111.718,33.459Z" fill="#3b0e1e"/>
        </g>
        <g>
          <path d="M109.605,33.772a17.679,17.679,0,0,1-19.293,3.892c-.038-.018-.085-.031-.122-.049a17.7,17.7,0,1,1,19.415-3.843Z" fill="#fb8b75"/>
          <path d="M97.074,40.364A19.147,19.147,0,0,1,89.8,38.918l-.091-.042a.377.377,0,0,1-.1-.038A19.059,19.059,0,0,1,78.233,24.2,19.025,19.025,0,1,1,97.074,40.364Zm-6.225-3.942a16.327,16.327,0,0,0,17.791-3.6l.006-.008a16.4,16.4,0,0,0,4.606-9.356A16.333,16.333,0,1,0,90.714,36.367C90.762,36.385,90.807,36.4,90.849,36.422Z" fill="#3b0e1e"/>
        </g>
        <g>
          <path d="M116.691,55.319a17.675,17.675,0,0,1-21.2-2.665,17.675,17.675,0,0,1-5.2-14.86c0-.041.015-.088.018-.13a17.679,17.679,0,0,0,19.293-3.892,17.689,17.689,0,0,0,15.434,2.056A17.693,17.693,0,0,1,116.691,55.319Z" fill="#8fdecb"/>
          <path d="M107.864,59.032a19.014,19.014,0,0,1-13.32-5.411,19.029,19.029,0,0,1-5.594-16l.013-.091L89.08,35.7l1.746.717a16.326,16.326,0,0,0,17.814-3.589l.784-.8.932.62a16.4,16.4,0,0,0,14.25,1.9l1.4-.471.349,1.434a19.144,19.144,0,0,1-8.987,20.985h0A18.984,18.984,0,0,1,107.864,59.032Zm-16.347-19.5a16.334,16.334,0,0,0,4.917,12.151A16.334,16.334,0,0,0,124,37.54a19.181,19.181,0,0,1-14.218-2.063,19.234,19.234,0,0,1-3.2,2.322A18.9,18.9,0,0,1,91.517,39.531Zm.121-1.574v0Zm-2.67-.461v0Z" fill="#3b0e1e"/>
        </g>
      </g>
      <rect x="52.27" y="62.18" width="2.709" height="10.77" fill="#3b0e1e"/>
      <rect x="109.806" y="57.38" width="2.709" height="15.57" fill="#3b0e1e"/>
    </g>
  </g>
</svg>
