<svg id="Layer_1" data-name="Layer 1" xmlns="http://www.w3.org/2000/svg" width="195.762" height="201.335" viewBox="0 0 195.762 201.335">
  <title>Artboard 61star-rate</title>
  <g>
    <path d="M183.111,194.6H12.652a1.355,1.355,0,0,1-1.355-1.354V112.505a1.355,1.355,0,0,1,1.355-1.354H183.111a1.354,1.354,0,0,1,1.354,1.354v80.737A1.354,1.354,0,0,1,183.111,194.6Zm-169.1-2.709h167.75V113.859H14.006Z" fill="#3b0e1e"/>
    <path d="M173.861,113.727H21.9a1.355,1.355,0,0,1-1.355-1.354V100.216A1.354,1.354,0,0,1,21.9,98.862H173.861a1.354,1.354,0,0,1,1.354,1.354v12.157A1.354,1.354,0,0,1,173.861,113.727Zm-150.6-2.709H172.507V101.57H23.256Z" fill="#3b0e1e"/>
    <path d="M165.063,89.414H30.7A10.164,10.164,0,0,1,20.547,79.262V10.153A10.165,10.165,0,0,1,30.7,0H165.063a10.164,10.164,0,0,1,10.152,10.153V79.262A10.163,10.163,0,0,1,165.063,89.414ZM30.7,2.709a7.452,7.452,0,0,0-7.443,7.444V79.262A7.452,7.452,0,0,0,30.7,86.705H165.063a7.452,7.452,0,0,0,7.444-7.443V10.153a7.453,7.453,0,0,0-7.444-7.444Z" fill="#3b0e1e"/>
    <path d="M56.952,101.57H48.526a1.354,1.354,0,0,1-1.354-1.354V88.059a1.354,1.354,0,0,1,1.354-1.354h8.426a1.354,1.354,0,0,1,1.354,1.354v12.157A1.354,1.354,0,0,1,56.952,101.57ZM49.88,98.862H55.6V89.414H49.88Z" fill="#3b0e1e"/>
    <path d="M147.237,101.57H138.81a1.354,1.354,0,0,1-1.354-1.354V88.059a1.354,1.354,0,0,1,1.354-1.354h8.427a1.354,1.354,0,0,1,1.354,1.354v12.157A1.354,1.354,0,0,1,147.237,101.57Zm-7.072-2.708h5.717V89.414h-5.717Z" fill="#3b0e1e"/>
    <path d="M172.275,194.6H144.262a1.354,1.354,0,0,1-1.354-1.354v-54.7a1.355,1.355,0,0,1,1.354-1.355h28.013a1.355,1.355,0,0,1,1.355,1.355v54.7A1.355,1.355,0,0,1,172.275,194.6Zm-26.659-2.709h25.3v-52h-25.3Z" fill="#3b0e1e"/>
    <path d="M132.369,177.722H104.356A1.354,1.354,0,0,1,103,176.368V138.537a1.355,1.355,0,0,1,1.354-1.355h28.013a1.355,1.355,0,0,1,1.355,1.355v37.831A1.355,1.355,0,0,1,132.369,177.722Zm-26.659-2.708h25.3V139.891h-25.3Z" fill="#3b0e1e"/>
    <path d="M92.728,177.722H64.714a1.354,1.354,0,0,1-1.354-1.354V138.537a1.355,1.355,0,0,1,1.354-1.355H92.728a1.355,1.355,0,0,1,1.354,1.355v37.831A1.354,1.354,0,0,1,92.728,177.722Zm-26.659-2.708h25.3V139.891h-25.3Z" fill="#3b0e1e"/>
    <path d="M53.086,177.722H25.073a1.354,1.354,0,0,1-1.354-1.354V138.537a1.355,1.355,0,0,1,1.354-1.355H53.086a1.355,1.355,0,0,1,1.355,1.355v37.831A1.355,1.355,0,0,1,53.086,177.722Zm-26.659-2.708H51.732V139.891h-25.3Z" fill="#3b0e1e"/>
    <path d="M194.408,201.335H1.354A1.355,1.355,0,0,1,0,199.98v-6.738a1.355,1.355,0,0,1,1.354-1.355H194.408a1.355,1.355,0,0,1,1.354,1.355v6.738A1.355,1.355,0,0,1,194.408,201.335Zm-191.7-2.709H193.054V194.6H2.709Z" fill="#3b0e1e"/>
    <path d="M39.08,177.271a.9.9,0,0,1-.9-.9V138.537a.9.9,0,1,1,1.806,0v37.831A.9.9,0,0,1,39.08,177.271Z" fill="#3b0e1e"/>
    <path d="M78.721,177.271a.9.9,0,0,1-.9-.9V138.537a.9.9,0,1,1,1.806,0v37.831A.9.9,0,0,1,78.721,177.271Z" fill="#3b0e1e"/>
    <path d="M118.363,177.271a.9.9,0,0,1-.9-.9V138.537a.9.9,0,0,1,1.806,0v37.831A.9.9,0,0,1,118.363,177.271Z" fill="#3b0e1e"/>
    <g>
      <path d="M76.706,74.524c-11.692,0-22.277-6.39-26.112-16.925C45.538,43.706,54.109,27.786,69.7,22.112h0a31.422,31.422,0,0,1,25.57,1.455,23.568,23.568,0,0,0,19.135,1.7l.508-.184a1.351,1.351,0,0,1,1.734.81l4.925,13.532a1.354,1.354,0,0,1-.808,1.735l-.506.185a23.571,23.571,0,0,0-13.565,13.6A31.414,31.414,0,0,1,88.042,72.5,33.142,33.142,0,0,1,76.706,74.524ZM70.627,24.656C56.438,29.821,48.594,44.183,53.14,56.673S72.927,75.121,87.115,69.958a28.707,28.707,0,0,0,17.063-16.011A26.39,26.39,0,0,1,118.569,39.1L114.56,28.081a26.375,26.375,0,0,1-20.571-2.128,28.709,28.709,0,0,0-23.362-1.3Z" fill="#3b0e1e"/>
      <path d="M97.159,56.528a1.355,1.355,0,0,1-1.075-2.177A24.264,24.264,0,0,0,99.829,47.3a1.355,1.355,0,0,1,2.569.861A26.955,26.955,0,0,1,98.235,56,1.35,1.35,0,0,1,97.159,56.528Z" fill="#3b0e1e"/>
      <path d="M76.809,66.563a27.046,27.046,0,0,1-17.146-6.1,1.354,1.354,0,1,1,1.718-2.093A24.4,24.4,0,0,0,85.1,62.4a1.354,1.354,0,1,1,.927,2.544A26.949,26.949,0,0,1,76.809,66.563Z" fill="#3b0e1e"/>
      <path d="M119.123,38.013a1.353,1.353,0,0,1-1.272-.891l-2.573-7.068a1.353,1.353,0,0,1,.809-1.735l15.056-5.481a6.272,6.272,0,1,1,11.582,1.228,6.266,6.266,0,1,1-8.083,8.385l-15.055,5.48A1.348,1.348,0,0,1,119.123,38.013Zm-.836-7.612,1.646,4.522,15.12-5.5a1.354,1.354,0,0,1,1.8,1.04,3.643,3.643,0,0,0,.154.616,3.564,3.564,0,1,0,3.348-4.765c-.026,0-.051,0-.078,0a1.354,1.354,0,0,1-.853-2.405,3.553,3.553,0,1,0-5.583-1.532h0a3.519,3.519,0,0,0,.277.567,1.355,1.355,0,0,1-.708,1.953Z" fill="#3b0e1e"/>
    </g>
  </g>
</svg>
