<svg id="Layer_1" data-name="Layer 1" xmlns="http://www.w3.org/2000/svg" width="213.112" height="148.067" viewBox="0 0 213.112 148.067">
  <title>Artboard 78star-rate</title>
  <g>
    <g>
      <g>
        <path d="M149,146.713H11.471V13.293A11.939,11.939,0,0,1,23.41,1.354H137.058A11.939,11.939,0,0,1,149,13.293Z" fill="#c3bbd2"/>
        <path d="M149,148.067H11.471a1.354,1.354,0,0,1-1.354-1.354V13.293A13.308,13.308,0,0,1,23.41,0H137.058a13.308,13.308,0,0,1,13.293,13.293v133.42A1.354,1.354,0,0,1,149,148.067ZM12.825,145.358H147.642V13.293A10.6,10.6,0,0,0,137.058,2.709H23.41A10.6,10.6,0,0,0,12.825,13.293Z" fill="#3b0e1e"/>
      </g>
      <g>
        <path d="M34.392,1.354H22.909A11.438,11.438,0,0,0,11.471,12.792V49.529a11.46,11.46,0,0,0,11.461,11.46h0a11.46,11.46,0,0,0,11.46-11.46Z" fill="#fb8b75"/>
        <path d="M22.932,62.343A12.828,12.828,0,0,1,10.117,49.529V12.791A12.805,12.805,0,0,1,22.908,0H34.392a1.354,1.354,0,0,1,1.354,1.354V49.529A12.828,12.828,0,0,1,22.932,62.343ZM22.908,2.709A10.094,10.094,0,0,0,12.825,12.791V49.529a10.107,10.107,0,0,0,20.213,0V2.709Z" fill="#3b0e1e"/>
      </g>
      <g>
        <path d="M137.559,1.354H126.076V49.529a11.46,11.46,0,0,0,11.46,11.46h0A11.46,11.46,0,0,0,149,49.529V12.792A11.438,11.438,0,0,0,137.559,1.354Z" fill="#fff"/>
        <path d="M137.536,62.343a12.828,12.828,0,0,1-12.814-12.814V1.354A1.354,1.354,0,0,1,126.076,0h11.483a12.806,12.806,0,0,1,12.792,12.791V49.529A12.829,12.829,0,0,1,137.536,62.343ZM127.43,2.709v46.82a10.106,10.106,0,0,0,20.212,0V12.791A10.094,10.094,0,0,0,137.559,2.709Z" fill="#3b0e1e"/>
      </g>
      <g>
        <path d="M126.076,1.354H103.155V49.529a11.46,11.46,0,0,0,11.46,11.46h0a11.46,11.46,0,0,0,11.461-11.46Z" fill="#fb8b75"/>
        <path d="M114.615,62.343A12.828,12.828,0,0,1,101.8,49.529V1.354A1.354,1.354,0,0,1,103.155,0h22.921a1.354,1.354,0,0,1,1.354,1.354V49.529A12.829,12.829,0,0,1,114.615,62.343ZM104.509,2.709v46.82a10.107,10.107,0,0,0,20.213,0V2.709Z" fill="#3b0e1e"/>
      </g>
      <g>
        <path d="M103.155,1.354H80.234V49.529a11.46,11.46,0,0,0,11.46,11.46h0a11.46,11.46,0,0,0,11.461-11.46Z" fill="#fff"/>
        <path d="M91.694,62.343A12.828,12.828,0,0,1,78.88,49.529V1.354A1.354,1.354,0,0,1,80.234,0h22.921a1.354,1.354,0,0,1,1.354,1.354V49.529A12.828,12.828,0,0,1,91.694,62.343ZM81.588,2.709v46.82a10.107,10.107,0,0,0,20.213,0V2.709Z" fill="#3b0e1e"/>
      </g>
      <g>
        <path d="M80.234,1.354H57.313V49.529a11.46,11.46,0,0,0,11.46,11.46h0a11.46,11.46,0,0,0,11.461-11.46Z" fill="#fb8b75"/>
        <path d="M68.773,62.343A12.828,12.828,0,0,1,55.959,49.529V1.354A1.354,1.354,0,0,1,57.313,0H80.234a1.354,1.354,0,0,1,1.354,1.354V49.529A12.828,12.828,0,0,1,68.773,62.343ZM58.667,2.709v46.82a10.107,10.107,0,0,0,20.213,0V2.709Z" fill="#3b0e1e"/>
      </g>
      <g>
        <path d="M57.313,1.354H34.392V49.529a11.46,11.46,0,0,0,11.461,11.46h0a11.46,11.46,0,0,0,11.46-11.46Z" fill="#fff"/>
        <path d="M45.853,62.343A12.828,12.828,0,0,1,33.038,49.529V1.354A1.354,1.354,0,0,1,34.392,0H57.313a1.354,1.354,0,0,1,1.354,1.354V49.529A12.828,12.828,0,0,1,45.853,62.343ZM35.746,2.709v46.82a10.107,10.107,0,0,0,20.213,0V2.709Z" fill="#3b0e1e"/>
      </g>
      <g>
        <rect x="22.067" y="83.045" width="68.763" height="50.167" fill="#86c8de"/>
        <path d="M90.83,134.566H22.067a1.354,1.354,0,0,1-1.354-1.354V83.045a1.354,1.354,0,0,1,1.354-1.354H90.83a1.354,1.354,0,0,1,1.354,1.354v50.167A1.354,1.354,0,0,1,90.83,134.566Zm-67.409-2.708H89.475V84.4H23.421Z" fill="#3b0e1e"/>
      </g>
      <g>
        <rect x="100.848" y="83.045" width="36.688" height="63.667" fill="#86c8de"/>
        <path d="M137.536,148.067H100.848a1.354,1.354,0,0,1-1.354-1.354V83.045a1.354,1.354,0,0,1,1.354-1.354h36.688a1.355,1.355,0,0,1,1.355,1.354v63.668A1.355,1.355,0,0,1,137.536,148.067ZM102.2,145.358h33.98V84.4H102.2Z" fill="#3b0e1e"/>
      </g>
      <path d="M108.7,119.218a4.339,4.339,0,1,1,4.339-4.339A4.345,4.345,0,0,1,108.7,119.218Zm0-6.873a2.534,2.534,0,1,0,2.534,2.534A2.537,2.537,0,0,0,108.7,112.345Z" fill="#3b0e1e"/>
      <path d="M65.1,134.115a.9.9,0,0,1-.9-.9V83.045a.9.9,0,1,1,1.805,0v50.167A.9.9,0,0,1,65.1,134.115Z" fill="#3b0e1e"/>
      <g>
        <circle cx="184.675" cy="28.888" r="27.534" fill="#fcd36a"/>
        <path d="M184.675,57.325a28.437,28.437,0,1,1,28.437-28.437A28.469,28.469,0,0,1,184.675,57.325Zm0-55.068a26.632,26.632,0,1,0,26.632,26.631A26.662,26.662,0,0,0,184.675,2.257Z" fill="#3b0e1e"/>
      </g>
      <g>
        <path d="M210.689,37.91c-4.3,5.662-10.737,9.242-19.13,7.843-4.819-.688-11.014-4.819-8.26-11.014,5.506,5.507,14.455,2.754,19.273-4.13,2.754-4.818,3.442-9.637,2.065-15.832A26.955,26.955,0,0,0,201.374,7a27.449,27.449,0,0,0-8.538-4.416,24.12,24.12,0,0,1,8.36,12.881c.688,4.13.688,7.571-2.065,11.7-2.065,2.065-4.13,5.506-8.261,3.441,4.131-6.195,3.442-15.143-4.818-19.962a23.179,23.179,0,0,0-23.269,1.55,27.466,27.466,0,0,0-4.122,7.67c4.3-5.662,10.738-9.242,19.131-7.843,4.818.688,11.013,4.818,8.26,11.013-5.507-5.506-14.455-2.753-19.274,4.131-2.753,4.818-3.441,9.636-2.065,15.832a26.984,26.984,0,0,0,3.264,7.776,27.449,27.449,0,0,0,8.538,4.416,24.114,24.114,0,0,1-8.36-12.881c-.688-4.13-.688-7.572,2.065-11.7,2.065-2.065,4.13-5.507,8.26-3.441-4.13,6.2-3.442,15.143,4.819,19.962a23.179,23.179,0,0,0,23.269-1.55A27.437,27.437,0,0,0,210.689,37.91Z" fill="#fb8b75"/>
        <path d="M176.515,56.1a.911.911,0,0,1-.267-.041,28.268,28.268,0,0,1-8.819-4.56.892.892,0,0,1-.218-.24,27.935,27.935,0,0,1-3.373-8.036c-1.41-6.342-.743-11.424,2.157-16.5,3.013-4.311,7.452-7.076,11.918-7.467a10.707,10.707,0,0,1,7.733,2.22,5.292,5.292,0,0,0-.493-3.979c-1.446-2.615-4.9-4.2-7.489-4.575-9.24-1.54-15.039,3.227-18.284,7.5a.9.9,0,0,1-1.571-.842,28.306,28.306,0,0,1,4.256-7.923.869.869,0,0,1,.226-.21,24.161,24.161,0,0,1,24.165-1.6,14.931,14.931,0,0,1,7.426,9.569A15,15,0,0,1,192.2,30.177c2.135.645,3.49-.6,5.326-2.616.305-.335.6-.664.9-.967,2.474-3.749,2.563-6.87,1.878-10.98A23.068,23.068,0,0,0,192.271,3.29a.9.9,0,0,1,.832-1.567,28.254,28.254,0,0,1,8.818,4.56.9.9,0,0,1,.219.24,27.964,27.964,0,0,1,3.373,8.035c1.41,6.342.743,11.424-2.157,16.5-3.013,4.312-7.452,7.077-11.918,7.468a10.726,10.726,0,0,1-7.733-2.22,5.291,5.291,0,0,0,.492,3.979c1.447,2.615,4.9,4.2,7.49,4.575,9.237,1.542,15.039-3.227,18.284-7.5a.9.9,0,0,1,1.571.842,28.316,28.316,0,0,1-4.256,7.923.921.921,0,0,1-.226.21,24.156,24.156,0,0,1-24.165,1.6,14.931,14.931,0,0,1-7.426-9.569A15,15,0,0,1,177.152,27.6c-2.139-.646-3.49.6-5.325,2.616-.306.336-.6.665-.9.968-2.474,3.749-2.562,6.87-1.877,10.98a23.068,23.068,0,0,0,8.034,12.324.9.9,0,0,1-.565,1.608Zm-7.859-5.937a26.551,26.551,0,0,0,3.848,2.421,24.911,24.911,0,0,1-5.222-10.038c-.762-4.548-.654-8.173,2.187-12.432a.884.884,0,0,1,.113-.138c.3-.3.6-.632.908-.971,1.8-1.983,4.274-4.7,8.394-2.64a.9.9,0,0,1,.347,1.308,13.285,13.285,0,0,0-2,10.293,13.134,13.134,0,0,0,6.525,8.388,22.336,22.336,0,0,0,22.192-1.441,26.829,26.829,0,0,0,1.651-2.462,19.709,19.709,0,0,1-16.186,4.2c-3.1-.443-7.038-2.313-8.793-5.485a7.377,7.377,0,0,1-.144-6.786.9.9,0,0,1,1.464-.272,8.978,8.978,0,0,0,7.343,2.626c3.882-.341,7.926-2.883,10.553-6.635,2.652-4.649,3.241-9.192,1.923-15.119a26.119,26.119,0,0,0-3.062-7.354A26.644,26.644,0,0,0,196.846,5.2a24.917,24.917,0,0,1,5.223,10.039c.762,4.548.653,8.173-2.187,12.432a.932.932,0,0,1-.113.138c-.3.3-.6.632-.909.97-1.8,1.985-4.272,4.705-8.393,2.641a.9.9,0,0,1-.348-1.308,13.284,13.284,0,0,0,2-10.292,13.14,13.14,0,0,0-6.526-8.389,22.338,22.338,0,0,0-22.192,1.441,26.7,26.7,0,0,0-1.65,2.463,19.7,19.7,0,0,1,16.186-4.2c3.1.443,7.038,2.313,8.793,5.485a7.377,7.377,0,0,1,.143,6.786.9.9,0,0,1-1.463.272,8.987,8.987,0,0,0-7.344-2.626c-3.882.341-7.925,2.882-10.552,6.635-2.652,4.649-3.241,9.191-1.923,15.119A26.134,26.134,0,0,0,168.656,50.158Z" fill="#3b0e1e"/>
      </g>
      <g>
        <path d="M187.27,56.422V67.693h-5.189V56.422c.856.061,1.721.1,2.594.1S186.414,56.483,187.27,56.422Z" fill="#fb8b75"/>
        <path d="M187.27,68.6h-5.19a.9.9,0,0,1-.9-.9V56.423a.9.9,0,0,1,.287-.661.921.921,0,0,1,.679-.24,30.788,30.788,0,0,0,5.063,0,.931.931,0,0,1,.679.24.9.9,0,0,1,.287.661V67.692A.9.9,0,0,1,187.27,68.6Zm-4.287-1.806h3.384V57.382a29.845,29.845,0,0,1-3.384,0Z" fill="#3b0e1e"/>
      </g>
      <g>
        <rect x="182.081" y="74.033" width="5.19" height="26.459" fill="#fb8b75"/>
        <path d="M187.27,101.394h-5.19a.9.9,0,0,1-.9-.9V74.033a.9.9,0,0,1,.9-.9h5.19a.9.9,0,0,1,.9.9v26.458A.9.9,0,0,1,187.27,101.394Zm-4.287-1.806h3.384V74.935h-3.384Z" fill="#3b0e1e"/>
      </g>
      <g>
        <path d="M182.081,106.831h5.189v25.083a2.595,2.595,0,1,1-5.189,0Z" fill="#fb8b75"/>
        <path d="M184.675,135.412a3.5,3.5,0,0,1-3.5-3.5V106.831a.9.9,0,0,1,.9-.9h5.19a.9.9,0,0,1,.9.9v25.083A3.5,3.5,0,0,1,184.675,135.412Zm-1.692-27.678v24.18a1.692,1.692,0,1,0,3.384,0v-24.18Z" fill="#3b0e1e"/>
      </g>
      <g>
        <path d="M191.015,70.867a3.16,3.16,0,0,1-3.165,3.166H149v-6.34H187.85A3.168,3.168,0,0,1,191.015,70.867Z" fill="#fcd36a"/>
        <path d="M187.85,74.935H149a.9.9,0,0,1-.9-.9V67.692a.9.9,0,0,1,.9-.9H187.85a4.073,4.073,0,1,1,0,8.146ZM149.9,73.13H187.85a2.243,2.243,0,0,0,1.6-.662,2.271,2.271,0,0,0-1.6-3.873H149.9Z" fill="#3b0e1e"/>
      </g>
      <g>
        <path d="M191.015,103.657a3.2,3.2,0,0,1-.925,2.249,3.168,3.168,0,0,1-2.24.925H149v-6.34H187.85A3.167,3.167,0,0,1,191.015,103.657Z" fill="#fcd36a"/>
        <path d="M187.85,107.734H149a.9.9,0,0,1-.9-.9v-6.34a.9.9,0,0,1,.9-.9H187.85a4.073,4.073,0,1,1,0,8.146ZM149.9,105.928H187.85a2.242,2.242,0,0,0,1.6-.661,2.271,2.271,0,0,0-1.6-3.873H149.9Z" fill="#3b0e1e"/>
      </g>
    </g>
    <path d="M208.783,148.062H1.354a1.355,1.355,0,0,1,0-2.709H208.783a1.355,1.355,0,0,1,0,2.709Z" fill="#3b0e1e"/>
  </g>
</svg>
