<svg id="Layer_1" data-name="Layer 1" xmlns="http://www.w3.org/2000/svg" width="185.084" height="206.054" viewBox="0 0 185.084 206.054">
  <title>Artboard 72star-rate</title>
  <g>
    <g>
      <rect x="4.966" y="189.953" width="175.152" height="14.746" rx="7.373" ry="7.373" fill="#fb8b75"/>
      <path d="M172.745,206.054H12.339a8.728,8.728,0,1,1,0-17.455H172.745a8.728,8.728,0,0,1,0,17.455ZM12.339,191.307a6.019,6.019,0,1,0,0,12.038H172.745a6.019,6.019,0,1,0,0-12.038Z" fill="#3b0e1e"/>
    </g>
    <g>
      <rect x="17.154" y="92.596" width="150.775" height="97.357" fill="#86c8de"/>
      <path d="M167.929,191.307H17.154a1.354,1.354,0,0,1-1.354-1.354V92.6a1.354,1.354,0,0,1,1.354-1.354H167.929a1.355,1.355,0,0,1,1.355,1.354v97.357A1.354,1.354,0,0,1,167.929,191.307ZM18.508,188.6H166.575V93.951H18.508Z" fill="#3b0e1e"/>
    </g>
    <g>
      <rect x="57.557" y="92.596" width="69.971" height="97.357" fill="#86c8de"/>
      <path d="M127.527,191.307H57.557a1.354,1.354,0,0,1-1.355-1.354V92.6a1.355,1.355,0,0,1,1.355-1.354h69.97a1.354,1.354,0,0,1,1.354,1.354v97.357A1.354,1.354,0,0,1,127.527,191.307ZM58.911,188.6h67.262V93.951H58.911Z" fill="#3b0e1e"/>
    </g>
    <g>
      <path d="M183.729,62.8V82.74a9.855,9.855,0,0,1-9.856,9.856H11.21A9.856,9.856,0,0,1,1.354,82.74V62.8h56.2l9.551,16.552a6.727,6.727,0,0,0,5.827,3.365h39.213a6.729,6.729,0,0,0,5.828-3.365L127.527,62.8Z" fill="#fb8b75"/>
      <path d="M173.873,93.951H11.21A11.223,11.223,0,0,1,0,82.74V62.8a1.354,1.354,0,0,1,1.354-1.354h56.2a1.356,1.356,0,0,1,1.173.677l9.551,16.551a5.387,5.387,0,0,0,4.654,2.689h39.213a5.389,5.389,0,0,0,4.655-2.689l9.551-16.551a1.356,1.356,0,0,1,1.173-.677h56.2a1.355,1.355,0,0,1,1.355,1.354V82.74A11.223,11.223,0,0,1,173.873,93.951ZM2.709,64.157V82.74a8.511,8.511,0,0,0,8.5,8.5H173.873a8.512,8.512,0,0,0,8.5-8.5V64.157H128.309l-9.16,15.874a8.106,8.106,0,0,1-7,4.042H72.935a8.1,8.1,0,0,1-7-4.042L56.774,64.157Z" fill="#3b0e1e"/>
    </g>
    <g>
      <path d="M45.567,42.037,57.557,62.8H1.354L25.008,44.668a12.751,12.751,0,0,1,7.756-2.631Z" fill="#fb8b75"/>
      <path d="M57.557,64.157H1.354A1.355,1.355,0,0,1,.53,61.728L24.184,43.593a14.176,14.176,0,0,1,8.58-2.91h12.8a1.353,1.353,0,0,1,1.173.677l11.99,20.765a1.355,1.355,0,0,1-1.172,2.032ZM5.347,61.448H55.211L44.784,43.391H32.764a11.452,11.452,0,0,0-6.932,2.352Z" fill="#3b0e1e"/>
    </g>
    <g>
      <path d="M183.729,62.8h-56.2l11.99-20.765h12.8a12.751,12.751,0,0,1,7.756,2.631Z" fill="#fb8b75"/>
      <path d="M183.729,64.157h-56.2a1.355,1.355,0,0,1-1.173-2.032l11.99-20.765a1.354,1.354,0,0,1,1.173-.677h12.8a14.175,14.175,0,0,1,8.579,2.91l23.654,18.135a1.354,1.354,0,0,1-.824,2.429Zm-53.856-2.709h49.864l-20.486-15.7a11.449,11.449,0,0,0-6.931-2.352H140.3Z" fill="#3b0e1e"/>
    </g>
    <g>
      <path d="M137.884,39.208a5.657,5.657,0,0,1,0,5.657L127.527,62.8l-9.86,17.087a5.659,5.659,0,0,1-4.9,2.83H72.317a5.657,5.657,0,0,1-4.9-2.83L57.557,62.8,47.2,44.865a5.657,5.657,0,0,1,0-5.657L67.417,4.184a5.655,5.655,0,0,1,4.9-2.829h40.451a5.657,5.657,0,0,1,4.9,2.829Z" fill="#c3bbd2"/>
      <path d="M112.767,84.073H72.317a7.032,7.032,0,0,1-6.073-3.506L46.027,45.543a7.029,7.029,0,0,1,0-7.012L66.244,3.506A7.032,7.032,0,0,1,72.316,0h40.451a7.031,7.031,0,0,1,6.072,3.506l20.218,35.025h0a7.032,7.032,0,0,1,0,7.012L118.84,80.567A7.032,7.032,0,0,1,112.767,84.073ZM72.316,2.709a4.316,4.316,0,0,0-3.727,2.152L48.372,39.886a4.314,4.314,0,0,0,0,4.3L68.59,79.212a4.314,4.314,0,0,0,3.727,2.153h40.45a4.314,4.314,0,0,0,3.727-2.153l20.217-35.024a4.316,4.316,0,0,0,0-4.3h0L116.494,4.861a4.313,4.313,0,0,0-3.727-2.152Z" fill="#3b0e1e"/>
    </g>
    <g>
      <g>
        <path d="M117.485,31.307H67.6V28.87A11.136,11.136,0,0,1,78.733,17.735H106.35A11.135,11.135,0,0,1,117.485,28.87Z" fill="#fcd36a"/>
        <path d="M117.485,32.662H67.6a1.354,1.354,0,0,1-1.354-1.354V28.87A12.5,12.5,0,0,1,78.733,16.381H106.35A12.5,12.5,0,0,1,118.839,28.87v2.438A1.354,1.354,0,0,1,117.485,32.662ZM68.953,29.954h47.178V28.87a9.792,9.792,0,0,0-9.781-9.781H78.733a9.792,9.792,0,0,0-9.78,9.781Z" fill="#3b0e1e"/>
      </g>
      <g>
        <path d="M67.6,52.766h49.887V55.2A11.135,11.135,0,0,1,106.35,66.338H78.733A11.135,11.135,0,0,1,67.6,55.2Z" fill="#fcd36a"/>
        <path d="M106.35,67.692H78.733A12.5,12.5,0,0,1,66.244,55.2V52.766A1.354,1.354,0,0,1,67.6,51.412h49.887a1.354,1.354,0,0,1,1.354,1.354V55.2A12.5,12.5,0,0,1,106.35,67.692Zm-37.4-13.571V55.2a9.791,9.791,0,0,0,9.78,9.781H106.35a9.792,9.792,0,0,0,9.781-9.781V54.121Z" fill="#3b0e1e"/>
      </g>
      <g>
        <rect x="62.279" y="31.307" width="60.525" height="7.153" rx="2.934" ry="2.934" fill="#fb8b75"/>
        <path d="M119.87,39.814H65.214a4.294,4.294,0,0,1-4.289-4.288V34.242a4.293,4.293,0,0,1,4.289-4.288H119.87a4.293,4.293,0,0,1,4.289,4.288v1.284A4.294,4.294,0,0,1,119.87,39.814ZM65.214,32.662a1.581,1.581,0,0,0-1.58,1.58v1.284a1.581,1.581,0,0,0,1.58,1.58H119.87a1.582,1.582,0,0,0,1.58-1.58V34.242a1.582,1.582,0,0,0-1.58-1.58Z" fill="#3b0e1e"/>
      </g>
      <g>
        <rect x="62.279" y="45.613" width="60.525" height="7.153" rx="2.934" ry="2.934" fill="#fb8b75"/>
        <path d="M119.87,54.121H65.214a4.294,4.294,0,0,1-4.289-4.289V48.547a4.294,4.294,0,0,1,4.289-4.288H119.87a4.294,4.294,0,0,1,4.289,4.288v1.285A4.294,4.294,0,0,1,119.87,54.121ZM65.214,46.967a1.581,1.581,0,0,0-1.58,1.58v1.285a1.581,1.581,0,0,0,1.58,1.58H119.87a1.582,1.582,0,0,0,1.58-1.58V48.547a1.582,1.582,0,0,0-1.58-1.58Z" fill="#3b0e1e"/>
      </g>
      <g>
        <rect x="67.048" y="38.46" width="50.988" height="7.153" fill="#8fdecb"/>
        <path d="M118.036,46.967H67.048a1.354,1.354,0,0,1-1.354-1.354V38.46a1.354,1.354,0,0,1,1.354-1.354h50.988a1.354,1.354,0,0,1,1.354,1.354v7.153A1.354,1.354,0,0,1,118.036,46.967ZM68.4,44.259h48.279V39.814H68.4Z" fill="#3b0e1e"/>
      </g>
      <path d="M82.134,27.174a2.148,2.148,0,1,1,2.147-2.148A2.151,2.151,0,0,1,82.134,27.174Zm0-3.393a1.245,1.245,0,1,0,1.244,1.245A1.247,1.247,0,0,0,82.134,23.781Z" fill="#3b0e1e"/>
      <path d="M104.418,27.174a2.148,2.148,0,1,1,2.147-2.148A2.151,2.151,0,0,1,104.418,27.174Zm0-3.393a1.245,1.245,0,1,0,1.245,1.245A1.247,1.247,0,0,0,104.418,23.781Z" fill="#3b0e1e"/>
      <path d="M92.542,62.526a2.974,2.974,0,1,1,2.973-2.973A2.977,2.977,0,0,1,92.542,62.526Zm0-5.044a2.071,2.071,0,1,0,2.07,2.071A2.073,2.073,0,0,0,92.542,57.482Z" fill="#3b0e1e"/>
      <path d="M107.3,59.844a1.633,1.633,0,1,1,1.632-1.632A1.634,1.634,0,0,1,107.3,59.844Zm0-2.362a.73.73,0,1,0,.729.73A.731.731,0,0,0,107.3,57.482Z" fill="#3b0e1e"/>
      <path d="M79.256,59.844a1.633,1.633,0,1,1,1.632-1.632A1.634,1.634,0,0,1,79.256,59.844Zm0-2.362a.73.73,0,1,0,.729.73A.73.73,0,0,0,79.256,57.482Z" fill="#3b0e1e"/>
    </g>
    <path d="M83.513,150.153a2.827,2.827,0,0,1-2.823-2.824V135.221a2.824,2.824,0,1,1,5.647,0v12.108A2.827,2.827,0,0,1,83.513,150.153Zm0-15.951a1.02,1.02,0,0,0-1.018,1.019v12.108a1.018,1.018,0,1,0,2.036,0V135.221A1.019,1.019,0,0,0,83.513,134.2Z" fill="#3b0e1e"/>
    <path d="M101.57,150.153a2.827,2.827,0,0,1-2.823-2.824V135.221a2.824,2.824,0,1,1,5.647,0v12.108A2.827,2.827,0,0,1,101.57,150.153Zm0-15.951a1.02,1.02,0,0,0-1.018,1.019v12.108a1.018,1.018,0,0,0,2.036,0V135.221A1.02,1.02,0,0,0,101.57,134.2Z" fill="#3b0e1e"/>
    <path d="M92.542,190.856a.9.9,0,0,1-.9-.9V92.6a.9.9,0,0,1,1.806,0v97.357A.9.9,0,0,1,92.542,190.856Z" fill="#3b0e1e"/>
  </g>
</svg>
