<svg id="Layer_1" data-name="Layer 1" xmlns="http://www.w3.org/2000/svg" width="170.601" height="190.373" viewBox="0 0 170.601 190.373">
  <title>Artboard 63star-rate</title>
  <g>
    <g>
      <path d="M114.566,189.47H56.024a20.373,20.373,0,0,1-20.057-17.346l-8.934-61.151.635.137a41.925,41.925,0,0,0,8.82.924,40.546,40.546,0,0,0,19.324-4.749,11.6,11.6,0,0,1,9.389-.761,42.253,42.253,0,0,0,29.092-.486,11.237,11.237,0,0,1,9.375.5,49.463,49.463,0,0,0,22.967,5.5,50.911,50.911,0,0,0,16.5-2.7l.7-.239-9.205,63.03A20.4,20.4,0,0,1,114.566,189.47ZM28.113,112.125l8.747,59.868a19.466,19.466,0,0,0,19.164,16.574h58.542a19.489,19.489,0,0,0,19.175-16.574l8.991-61.572a51.923,51.923,0,0,1-16.1,2.516,50.366,50.366,0,0,1-23.387-5.6,10.337,10.337,0,0,0-8.624-.459,43.148,43.148,0,0,1-29.725.5,10.681,10.681,0,0,0-8.656.7,41.458,41.458,0,0,1-19.755,4.858A43.078,43.078,0,0,1,28.113,112.125Z" fill="#3b0e1e"/>
      <path d="M136.436,159.786H34.164l-4.05-27.723h110.37Zm-101.492-.9H135.656l3.784-25.917H31.158Z" fill="#3b0e1e"/>
      <path d="M126.635,112.937a50.786,50.786,0,0,1-22.048-4.924,14.711,14.711,0,0,0-11.372-.61,43.282,43.282,0,0,1-27.276.324,14.147,14.147,0,0,0-10.667.861,41.772,41.772,0,0,1-18.784,4.349,42.919,42.919,0,0,1-9.01-.944C11.832,108.691.9,97.2.9,84.056.9,75.1,5.9,66.8,14.614,61.279A14.217,14.217,0,0,0,21.26,48.928c-.011-.376-.017-.754-.017-1.132C21.243,21.939,47.193.9,79.089.9c26.953,0,50.1,14.834,56.284,36.074a13.989,13.989,0,0,0,8.753,9.125c15.535,5.6,25.572,18.131,25.572,31.915,0,14.06-10.31,26.688-26.266,32.17A51.8,51.8,0,0,1,126.635,112.937Zm-28.429-7.3a15.492,15.492,0,0,1,6.775,1.561,49.877,49.877,0,0,0,21.654,4.834,50.911,50.911,0,0,0,16.5-2.7c15.585-5.355,25.656-17.647,25.656-31.316,0-13.4-9.8-25.592-24.975-31.065a14.9,14.9,0,0,1-9.314-9.723C128.432,16.372,105.643,1.806,79.089,1.806c-31.4,0-56.943,20.631-56.943,45.99,0,.37,0,.738.016,1.106A15.124,15.124,0,0,1,15.1,62.042C6.651,67.389,1.806,75.412,1.806,84.056c0,12.716,10.634,23.84,25.86,27.054a41.958,41.958,0,0,0,8.822.924,40.876,40.876,0,0,0,18.377-4.252,15.042,15.042,0,0,1,11.352-.914,42.387,42.387,0,0,0,26.7-.316A15.929,15.929,0,0,1,98.206,105.639Z" fill="#3b0e1e"/>
      <path d="M45.54,39.231a6.3,6.3,0,1,1,6.3-6.3A6.308,6.308,0,0,1,45.54,39.231Zm0-11.7a5.4,5.4,0,1,0,5.4,5.4A5.4,5.4,0,0,0,45.54,27.532Z" fill="#3b0e1e"/>
      <path d="M26.414,93.6a7.2,7.2,0,1,1,7.2-7.2A7.213,7.213,0,0,1,26.414,93.6Zm0-13.506a6.3,6.3,0,1,0,6.3,6.3A6.308,6.308,0,0,0,26.414,80.089Z" fill="#3b0e1e"/>
      <path d="M128.479,64.712a7.2,7.2,0,1,1,7.2-7.205A7.212,7.212,0,0,1,128.479,64.712Zm0-13.506a6.3,6.3,0,1,0,6.3,6.3A6.309,6.309,0,0,0,128.479,51.206Z" fill="#3b0e1e"/>
      <path d="M132.959,99.437a8.364,8.364,0,1,1,8.363-8.363A8.373,8.373,0,0,1,132.959,99.437Zm0-15.824a7.461,7.461,0,1,0,7.46,7.461A7.469,7.469,0,0,0,132.959,83.613Z" fill="#3b0e1e"/>
      <path d="M95.591,35.3a7.8,7.8,0,1,1,7.8-7.8A7.808,7.808,0,0,1,95.591,35.3Zm0-14.694a6.9,6.9,0,1,0,6.9,6.9A6.9,6.9,0,0,0,95.591,20.609Z" fill="#3b0e1e"/>
      <path d="M59.883,65.864a7.781,7.781,0,1,1,7.781-7.78A7.789,7.789,0,0,1,59.883,65.864Zm0-14.658a6.878,6.878,0,1,0,6.878,6.878A6.886,6.886,0,0,0,59.883,51.206Z" fill="#3b0e1e"/>
      <path d="M74.082,95.022a6.156,6.156,0,1,1,6.156-6.156A6.164,6.164,0,0,1,74.082,95.022Zm0-11.409a5.253,5.253,0,1,0,5.253,5.253A5.26,5.26,0,0,0,74.082,83.613Z" fill="#3b0e1e"/>
      <path d="M98.024,77.538a5.367,5.367,0,1,1,5.366-5.366A5.372,5.372,0,0,1,98.024,77.538Zm0-9.83a4.464,4.464,0,1,0,4.463,4.464A4.468,4.468,0,0,0,98.024,67.708Z" fill="#3b0e1e"/>
    </g>
    <g>
      <path d="M114.566,190.373H56.024a21.282,21.282,0,0,1-20.951-18.12l-8.84-60.5a1.357,1.357,0,0,1,1.625-1.521,41.049,41.049,0,0,0,8.63.9,39.637,39.637,0,0,0,18.892-4.639,12.5,12.5,0,0,1,10.122-.819,41.344,41.344,0,0,0,28.459-.476,12.151,12.151,0,0,1,10.128.541,48.553,48.553,0,0,0,22.546,5.393,50,50,0,0,0,16.212-2.652,1.355,1.355,0,0,1,1.778,1.477l-9.1,62.3A21.3,21.3,0,0,1,114.566,190.373ZM29.189,113.239l8.564,58.624a18.559,18.559,0,0,0,18.271,15.8h58.542a18.581,18.581,0,0,0,18.282-15.8l8.784-60.155a52.991,52.991,0,0,1-15,2.133,51.261,51.261,0,0,1-23.808-5.706,9.442,9.442,0,0,0-7.871-.417,44.064,44.064,0,0,1-30.358.509,9.78,9.78,0,0,0-7.924.646,42.36,42.36,0,0,1-20.186,4.968A44.224,44.224,0,0,1,29.189,113.239Z" fill="#3b0e1e"/>
      <path d="M136.046,160.689H34.554a1.354,1.354,0,0,1-1.34-1.159L29.3,132.71a1.354,1.354,0,0,1,1.34-1.55H139.962a1.354,1.354,0,0,1,1.34,1.55l-3.916,26.82A1.354,1.354,0,0,1,136.046,160.689ZM35.725,157.98h99.15l3.521-24.111H32.2Z" fill="#3b0e1e"/>
      <path d="M126.635,113.84a51.7,51.7,0,0,1-22.442-5.015,13.809,13.809,0,0,0-10.679-.57,44.2,44.2,0,0,1-27.854.331,13.246,13.246,0,0,0-9.98.807,42.676,42.676,0,0,1-19.192,4.447,43.83,43.83,0,0,1-9.2-.964C11.223,109.485,0,97.634,0,84.056,0,74.781,5.151,66.2,14.132,60.516a13.311,13.311,0,0,0,6.225-11.56c-.011-.387-.017-.773-.017-1.16C20.34,21.441,46.7,0,79.089,0c27.352,0,50.853,15.1,57.151,36.724a13.085,13.085,0,0,0,8.192,8.529c15.9,5.736,26.169,18.6,26.169,32.764,0,14.452-10.549,27.414-26.876,33.024A52.712,52.712,0,0,1,126.635,113.84Zm-28.428-9.105a16.383,16.383,0,0,1,7.168,1.653,48.964,48.964,0,0,0,21.26,4.743,50,50,0,0,0,16.212-2.652c15.214-5.227,25.045-17.185,25.045-30.462,0-13.013-9.569-24.873-24.379-30.216a15.8,15.8,0,0,1-9.873-10.319C127.676,17.008,105.245,2.709,79.089,2.709c-30.9,0-56.04,20.225-56.04,45.087q0,.541.016,1.079a16.031,16.031,0,0,1-7.485,13.93C7.4,67.983,2.709,75.729,2.709,84.056c0,12.285,10.34,23.046,25.144,26.171a41.131,41.131,0,0,0,8.635.9,39.956,39.956,0,0,0,17.969-4.155,15.96,15.96,0,0,1,12.038-.967,41.483,41.483,0,0,0,26.12-.309A16.845,16.845,0,0,1,98.207,104.735Z" fill="#3b0e1e"/>
      <path d="M45.54,40.133a7.2,7.2,0,1,1,7.2-7.2A7.212,7.212,0,0,1,45.54,40.133Zm0-11.7a4.5,4.5,0,1,0,4.494,4.5A4.5,4.5,0,0,0,45.54,28.435Z" fill="#3b0e1e"/>
      <path d="M26.414,94.5a8.108,8.108,0,1,1,8.108-8.108A8.117,8.117,0,0,1,26.414,94.5Zm0-13.506a5.4,5.4,0,1,0,5.4,5.4A5.4,5.4,0,0,0,26.414,80.992Z" fill="#3b0e1e"/>
      <path d="M128.479,65.615a8.108,8.108,0,1,1,8.108-8.108A8.117,8.117,0,0,1,128.479,65.615Zm0-13.506a5.4,5.4,0,1,0,5.4,5.4A5.4,5.4,0,0,0,128.479,52.109Z" fill="#3b0e1e"/>
      <path d="M132.959,100.339a9.266,9.266,0,1,1,9.266-9.265A9.276,9.276,0,0,1,132.959,100.339Zm0-15.823a6.558,6.558,0,1,0,6.558,6.558A6.566,6.566,0,0,0,132.959,84.516Z" fill="#3b0e1e"/>
      <path d="M95.591,36.206a8.7,8.7,0,1,1,8.7-8.7A8.712,8.712,0,0,1,95.591,36.206Zm0-14.7a5.993,5.993,0,1,0,5.993,5.993A6,6,0,0,0,95.591,21.511Z" fill="#3b0e1e"/>
      <path d="M59.883,66.767a8.684,8.684,0,1,1,8.684-8.683A8.693,8.693,0,0,1,59.883,66.767Zm0-14.658a5.975,5.975,0,1,0,5.975,5.975A5.982,5.982,0,0,0,59.883,52.109Z" fill="#3b0e1e"/>
      <path d="M74.082,95.925a7.059,7.059,0,1,1,7.059-7.059A7.066,7.066,0,0,1,74.082,95.925Zm0-11.409a4.35,4.35,0,1,0,4.35,4.35A4.354,4.354,0,0,0,74.082,84.516Z" fill="#3b0e1e"/>
      <path d="M98.024,78.441a6.27,6.27,0,1,1,6.269-6.269A6.276,6.276,0,0,1,98.024,78.441Zm0-9.83a3.561,3.561,0,1,0,3.56,3.561A3.566,3.566,0,0,0,98.024,68.611Z" fill="#3b0e1e"/>
    </g>
  </g>
</svg>
