<svg id="Layer_1" data-name="Layer 1" xmlns="http://www.w3.org/2000/svg" width="206.752" height="185.111" viewBox="0 0 206.752 185.111">
  <title>Artboard 87star-rate</title>
  <g>
    <g>
      <path d="M198.133,183.757H8.62a7.266,7.266,0,0,1-7.266-7.265V54.53H205.4V176.492A7.265,7.265,0,0,1,198.133,183.757Z" fill="#8fdecb"/>
      <path d="M198.133,185.111H8.62A8.63,8.63,0,0,1,0,176.491V54.53a1.355,1.355,0,0,1,1.355-1.355H205.4a1.355,1.355,0,0,1,1.354,1.355V176.491A8.63,8.63,0,0,1,198.133,185.111ZM2.709,55.884V176.491A5.917,5.917,0,0,0,8.62,182.4H198.133a5.917,5.917,0,0,0,5.91-5.911V55.884Z" fill="#3b0e1e"/>
    </g>
    <g>
      <path d="M124.244,183.757H82.508V124.785a5.642,5.642,0,0,1,5.642-5.642H118.6a5.642,5.642,0,0,1,5.642,5.642Z" fill="#86c8de"/>
      <path d="M124.244,185.111H82.508a1.354,1.354,0,0,1-1.354-1.354V124.785a7,7,0,0,1,7-7H118.6a7,7,0,0,1,7,7v58.972A1.355,1.355,0,0,1,124.244,185.111ZM83.862,182.4H122.89V124.785A4.293,4.293,0,0,0,118.6,120.5H88.15a4.293,4.293,0,0,0-4.288,4.288Z" fill="#3b0e1e"/>
    </g>
    <g>
      <rect x="138.156" y="101.521" width="54.257" height="49.929" rx="5.719" ry="5.719" fill="#86c8de"/>
      <path d="M186.694,152.8H143.875a7.081,7.081,0,0,1-7.073-7.074V107.24a7.082,7.082,0,0,1,7.073-7.073h42.819a7.082,7.082,0,0,1,7.073,7.073v38.49A7.081,7.081,0,0,1,186.694,152.8Zm-42.819-49.928a4.369,4.369,0,0,0-4.364,4.364v38.49a4.37,4.37,0,0,0,4.364,4.366h42.819a4.371,4.371,0,0,0,4.365-4.366V107.24a4.37,4.37,0,0,0-4.365-4.364Z" fill="#3b0e1e"/>
    </g>
    <g>
      <rect x="15.112" y="101.521" width="54.257" height="49.929" rx="5.719" ry="5.719" fill="#86c8de"/>
      <path d="M63.65,152.8H20.831a7.081,7.081,0,0,1-7.073-7.074V107.24a7.082,7.082,0,0,1,7.073-7.073H63.65a7.082,7.082,0,0,1,7.073,7.073v38.49A7.081,7.081,0,0,1,63.65,152.8ZM20.831,102.876a4.37,4.37,0,0,0-4.365,4.364v38.49a4.371,4.371,0,0,0,4.365,4.366H63.65a4.371,4.371,0,0,0,4.365-4.366V107.24a4.37,4.37,0,0,0-4.365-4.364Z" fill="#3b0e1e"/>
    </g>
    <g>
      <path d="M18.358,86.836h0a17,17,0,0,1-17-17V54.53H35.362v15.3A17,17,0,0,1,18.358,86.836Z" fill="#fb8b75"/>
      <path d="M18.358,88.191A18.379,18.379,0,0,1,0,69.833V54.53a1.355,1.355,0,0,1,1.355-1.355H35.362a1.355,1.355,0,0,1,1.354,1.355v15.3A18.379,18.379,0,0,1,18.358,88.191ZM2.709,55.884V69.833a15.649,15.649,0,0,0,31.3,0V55.884Z" fill="#3b0e1e"/>
    </g>
    <g>
      <path d="M52.365,86.836h0a17,17,0,0,1-17-17V54.53H69.369v15.3A17,17,0,0,1,52.365,86.836Z" fill="#fcd36a"/>
      <path d="M52.365,88.191A18.379,18.379,0,0,1,34.007,69.833V54.53a1.355,1.355,0,0,1,1.355-1.355H69.369a1.355,1.355,0,0,1,1.354,1.355v15.3A18.378,18.378,0,0,1,52.365,88.191ZM36.716,55.884V69.833a15.65,15.65,0,0,0,31.3,0V55.884Z" fill="#3b0e1e"/>
    </g>
    <g>
      <path d="M86.373,86.836h0a17,17,0,0,1-17-17V54.53h34.007v15.3A17,17,0,0,1,86.373,86.836Z" fill="#fb8b75"/>
      <path d="M86.372,88.191A18.378,18.378,0,0,1,68.015,69.833V54.53a1.355,1.355,0,0,1,1.354-1.355h34.007a1.355,1.355,0,0,1,1.354,1.355v15.3A18.378,18.378,0,0,1,86.372,88.191ZM70.723,55.884V69.833a15.65,15.65,0,0,0,31.3,0V55.884Z" fill="#3b0e1e"/>
    </g>
    <g>
      <path d="M120.38,86.836h0a17,17,0,0,1-17-17V54.53h34.007v15.3A17,17,0,0,1,120.38,86.836Z" fill="#fcd36a"/>
      <path d="M120.38,88.191a18.378,18.378,0,0,1-18.358-18.358V54.53a1.355,1.355,0,0,1,1.354-1.355h34.007a1.355,1.355,0,0,1,1.354,1.355v15.3A18.378,18.378,0,0,1,120.38,88.191ZM104.73,55.884V69.833a15.65,15.65,0,0,0,31.3,0V55.884Z" fill="#3b0e1e"/>
    </g>
    <g>
      <path d="M154.387,86.836h0a17,17,0,0,1-17-17V54.53h34.008v15.3A17,17,0,0,1,154.387,86.836Z" fill="#fb8b75"/>
      <path d="M154.387,88.191a18.378,18.378,0,0,1-18.358-18.358V54.53a1.355,1.355,0,0,1,1.354-1.355h34.008a1.355,1.355,0,0,1,1.354,1.355v15.3A18.378,18.378,0,0,1,154.387,88.191Zm-15.65-32.307V69.833a15.65,15.65,0,0,0,31.3,0V55.884Z" fill="#3b0e1e"/>
    </g>
    <g>
      <path d="M188.394,86.836h0a17,17,0,0,1-17-17V54.53H205.4v15.3A17,17,0,0,1,188.394,86.836Z" fill="#fcd36a"/>
      <path d="M188.394,88.191a18.379,18.379,0,0,1-18.358-18.358V54.53a1.355,1.355,0,0,1,1.355-1.355H205.4a1.355,1.355,0,0,1,1.354,1.355v15.3A18.378,18.378,0,0,1,188.394,88.191ZM172.745,55.884V69.833a15.649,15.649,0,0,0,31.3,0V55.884Z" fill="#3b0e1e"/>
    </g>
    <g>
      <path d="M155.314,54.53H51.438V10.32A8.965,8.965,0,0,1,60.4,1.355h85.946a8.965,8.965,0,0,1,8.965,8.965Z" fill="#86c8de"/>
      <path d="M155.314,55.884H51.438a1.354,1.354,0,0,1-1.354-1.354V10.32A10.331,10.331,0,0,1,60.4,0h85.946a10.332,10.332,0,0,1,10.32,10.32V54.53A1.355,1.355,0,0,1,155.314,55.884ZM52.792,53.175H153.96V10.32a7.619,7.619,0,0,0-7.611-7.611H60.4a7.619,7.619,0,0,0-7.611,7.611Z" fill="#3b0e1e"/>
    </g>
    <path d="M1.356,55.884A1.354,1.354,0,0,1,.72,53.333L50.8,26.746a1.355,1.355,0,0,1,1.27,2.393L1.989,55.726A1.337,1.337,0,0,1,1.356,55.884Z" fill="#3b0e1e"/>
    <path d="M205.4,55.884a1.337,1.337,0,0,1-.633-.158L154.68,29.139a1.354,1.354,0,0,1,1.269-2.393l50.084,26.587a1.355,1.355,0,0,1-.637,2.551Z" fill="#3b0e1e"/>
    <g>
      <g>
        <path d="M119.489,17.649H87.263a5.4,5.4,0,0,0-5.4,5.4,2.077,2.077,0,0,0,2.918,1.9V43.824A3.272,3.272,0,0,0,88.056,47.1H118.7a3.272,3.272,0,0,0,3.272-3.272V24.945a2.078,2.078,0,0,0,2.919-1.9A5.4,5.4,0,0,0,119.489,17.649Z" fill="#fcd36a"/>
        <path d="M118.7,48H88.056a4.181,4.181,0,0,1-4.175-4.176v-17.8A3.059,3.059,0,0,1,82.3,25.53a2.906,2.906,0,0,1-1.332-2.484,6.308,6.308,0,0,1,6.3-6.3h32.226a6.308,6.308,0,0,1,6.3,6.3,2.906,2.906,0,0,1-1.332,2.484,3.059,3.059,0,0,1-1.586.489v17.8A4.181,4.181,0,0,1,118.7,48ZM84.784,24.043a.9.9,0,0,1,.9.9V43.823a2.372,2.372,0,0,0,2.369,2.37H118.7a2.372,2.372,0,0,0,2.369-2.37V24.946a.9.9,0,0,1,1.27-.826,1.206,1.206,0,0,0,1.139-.105,1.113,1.113,0,0,0,.51-.969,4.5,4.5,0,0,0-4.495-4.494H87.263a4.5,4.5,0,0,0-4.5,4.494,1.111,1.111,0,0,0,.511.969,1.206,1.206,0,0,0,1.138.105A.905.905,0,0,1,84.784,24.043Z" fill="#3b0e1e"/>
      </g>
      <g>
        <rect x="84.784" y="33.285" width="37.184" height="6.477" fill="#fb8b75"/>
        <path d="M121.968,40.665H84.784a.9.9,0,0,1-.9-.9V33.285a.9.9,0,0,1,.9-.9h37.184a.9.9,0,0,1,.9.9v6.477A.9.9,0,0,1,121.968,40.665ZM85.687,38.859h35.378V34.188H85.687Z" fill="#3b0e1e"/>
      </g>
      <g>
        <path d="M124.887,23.046a2.075,2.075,0,0,1-3.777,1.187c-.836-1.193-1.728-2.306-3.393-2.306-3.584,0-3.584,5.162-7.168,5.162s-3.585-5.162-7.17-5.162-3.585,5.162-7.17,5.162-3.586-5.162-7.172-5.162c-1.666,0-2.557,1.114-3.4,2.307a2.075,2.075,0,0,1-3.776-1.188h0a5.4,5.4,0,0,1,5.4-5.4h32.226a5.4,5.4,0,0,1,5.4,5.4Z" fill="#8fdecb"/>
        <path d="M110.55,27.992c-2.266,0-3.409-1.646-4.327-2.97-.945-1.359-1.587-2.193-2.844-2.193s-1.9.834-2.844,2.194c-.918,1.323-2.061,2.969-4.327,2.969s-3.408-1.646-4.327-2.969c-.945-1.36-1.587-2.194-2.844-2.194-1.112,0-1.742.62-2.655,1.923a2.978,2.978,0,0,1-5.419-1.706,6.308,6.308,0,0,1,6.3-6.3h32.226a6.308,6.308,0,0,1,6.3,6.3,2.977,2.977,0,0,1-5.418,1.706c-.913-1.3-1.543-1.923-2.654-1.923-1.256,0-1.9.834-2.842,2.194C113.956,26.346,112.814,27.992,110.55,27.992Zm-7.171-6.968c2.265,0,3.408,1.646,4.327,2.968.944,1.361,1.587,2.194,2.844,2.194s1.9-.833,2.842-2.193c.918-1.323,2.061-2.969,4.325-2.969,2.245,0,3.381,1.619,4.133,2.691a1.172,1.172,0,0,0,2.134-.669,4.5,4.5,0,0,0-4.495-4.494H87.263a4.5,4.5,0,0,0-4.5,4.494,1.173,1.173,0,0,0,2.135.67c.752-1.073,1.888-2.692,4.134-2.692,2.265,0,3.408,1.646,4.327,2.968.945,1.361,1.588,2.194,2.844,2.194s1.9-.833,2.844-2.194C99.971,22.67,101.114,21.024,103.379,21.024Z" fill="#3b0e1e"/>
      </g>
      <g>
        <circle cx="103.376" cy="12.625" r="4.376" fill="#fb8b75"/>
        <path d="M103.376,17.9a5.28,5.28,0,1,1,5.28-5.279A5.285,5.285,0,0,1,103.376,17.9Zm0-8.753a3.474,3.474,0,1,0,3.474,3.474A3.478,3.478,0,0,0,103.376,9.151Z" fill="#3b0e1e"/>
      </g>
      <g>
        <circle cx="114.506" cy="13.552" r="3.169" fill="#fb8b75"/>
        <path d="M114.506,17.624a4.072,4.072,0,1,1,4.071-4.072A4.076,4.076,0,0,1,114.506,17.624Zm0-6.338a2.266,2.266,0,1,0,2.266,2.266A2.269,2.269,0,0,0,114.506,11.286Z" fill="#3b0e1e"/>
      </g>
      <g>
        <circle cx="92.246" cy="13.552" r="3.169" fill="#fb8b75"/>
        <path d="M92.247,17.624a4.072,4.072,0,1,1,4.071-4.072A4.076,4.076,0,0,1,92.247,17.624Zm0-6.338a2.266,2.266,0,1,0,2.266,2.266A2.269,2.269,0,0,0,92.247,11.286Z" fill="#3b0e1e"/>
      </g>
    </g>
  </g>
</svg>
