<svg id="Layer_1" data-name="Layer 1" xmlns="http://www.w3.org/2000/svg" width="116.853" height="210.959" viewBox="0 0 116.853 210.959">
  <title>Artboard 57star-rate</title>
  <g>
    <path d="M83.305,210.959H30.587a8.47,8.47,0,0,1-8.245-6.674L.187,100.153A8.429,8.429,0,0,1,8.432,89.969h97.029a8.429,8.429,0,0,1,8.244,10.184L91.55,204.285A8.471,8.471,0,0,1,83.305,210.959ZM8.432,92.677a5.723,5.723,0,0,0-5.6,6.912L24.992,203.721a5.748,5.748,0,0,0,5.595,4.53H83.305a5.748,5.748,0,0,0,5.595-4.53L111.056,99.589a5.722,5.722,0,0,0-5.595-6.912Z" fill="#3b0e1e"/>
    <path d="M21.014,143.264a1.355,1.355,0,0,1-1.324-1.072l-7.422-34.887a1.354,1.354,0,0,1,2.649-.565l7.423,34.888a1.354,1.354,0,0,1-1.043,1.606A1.375,1.375,0,0,1,21.014,143.264Z" fill="#3b0e1e"/>
    <path d="M28.971,180.662a1.354,1.354,0,0,1-1.323-1.072l-3.713-17.449a1.354,1.354,0,0,1,2.649-.564L30.3,179.025a1.354,1.354,0,0,1-1.043,1.607A1.375,1.375,0,0,1,28.971,180.662Z" fill="#3b0e1e"/>
    <path d="M70.791,144.744a5.363,5.363,0,0,1-1.392-.184h0l-10.864-2.9a2.639,2.639,0,0,0-1.361,0l-10.864,2.9a5.348,5.348,0,0,1-6.727-5.167V91.323a1.355,1.355,0,0,1,1.355-1.354H74.772a1.355,1.355,0,0,1,1.355,1.354v48.07a5.354,5.354,0,0,1-5.336,5.351Zm-.693-2.8a2.64,2.64,0,0,0,3.32-2.55V92.677H42.292v46.716a2.639,2.639,0,0,0,3.32,2.55l10.864-2.9a5.369,5.369,0,0,1,2.757,0Z" fill="#3b0e1e"/>
    <g>
      <path d="M93.777,50.325a1.341,1.341,0,0,1-.676-.182L77.5,41.136A1.355,1.355,0,0,1,77,39.286L98.227,2.525A5.046,5.046,0,0,1,105.119.679L114.328,6a5.046,5.046,0,0,1,1.847,6.893L94.951,49.648A1.354,1.354,0,0,1,93.777,50.325ZM80.026,39.468l13.257,7.653,20.546-35.588a2.338,2.338,0,0,0-.855-3.192l-9.209-5.317a2.34,2.34,0,0,0-3.192.855Z" fill="#3b0e1e"/>
      <path d="M98.811,41.608a1.356,1.356,0,0,1-.677-.182l-15.6-9.008a1.355,1.355,0,0,1-.495-1.85L98.227,2.525A5.046,5.046,0,0,1,105.119.679L114.328,6a5.046,5.046,0,0,1,1.847,6.893L99.984,40.93a1.351,1.351,0,0,1-1.173.678ZM85.059,30.75,98.316,38.4l15.513-26.871a2.339,2.339,0,0,0-.855-3.192l-9.209-5.317a2.34,2.34,0,0,0-3.192.855Z" fill="#3b0e1e"/>
      <path d="M86.919,92.677H30.169A1.354,1.354,0,0,1,29,90.646L47.243,59.061A40.437,40.437,0,0,1,71.031,40.683l6.78-2.006a1.366,1.366,0,0,1,1.061.126l15.553,8.975a1.354,1.354,0,0,1,.645.885l1.527,7a40.452,40.452,0,0,1-4.218,28.925h0L88.091,92A1.354,1.354,0,0,1,86.919,92.677Zm-54.4-2.708H86.139l3.894-6.739a37.752,37.752,0,0,0,3.918-26.994l-1.4-6.411-14.53-8.386L71.8,43.279A37.743,37.743,0,0,0,49.588,60.416Zm58.691-6.062h0Z" fill="#3b0e1e"/>
      <path d="M65.981,92.677H30.169A1.354,1.354,0,0,1,29,90.646L43.945,64.758a1.357,1.357,0,0,1,1.85-.5l16.274,9.4a13.634,13.634,0,0,1,5.1,18.32A1.355,1.355,0,0,1,65.981,92.677ZM32.515,89.969H65.149A10.919,10.919,0,0,0,60.716,76l-15.1-8.719Z" fill="#3b0e1e"/>
    </g>
  </g>
</svg>
