<svg id="Layer_1" data-name="Layer 1" xmlns="http://www.w3.org/2000/svg" width="159.804" height="204.429" viewBox="0 0 159.804 204.429">
  <title>Artboard 71star-rate</title>
  <g>
    <g>
      <rect x="1.355" y="97.056" width="157.095" height="106.02" fill="#c3bbd2"/>
      <path d="M158.45,204.429H1.355A1.354,1.354,0,0,1,0,203.075V97.056A1.354,1.354,0,0,1,1.355,95.7h157.1a1.354,1.354,0,0,1,1.354,1.354V203.075A1.354,1.354,0,0,1,158.45,204.429ZM2.709,201.721H157.1V98.41H2.709Z" fill="#3b0e1e"/>
    </g>
    <g>
      <path d="M12.576,126.076h0A11.221,11.221,0,0,1,1.355,114.855v-17.8H23.8v17.8A11.221,11.221,0,0,1,12.576,126.076Z" fill="#fb8b75"/>
      <path d="M12.576,127.43A12.59,12.59,0,0,1,0,114.855v-17.8A1.354,1.354,0,0,1,1.355,95.7H23.8a1.354,1.354,0,0,1,1.354,1.354v17.8A12.589,12.589,0,0,1,12.576,127.43ZM2.709,98.41v16.445a9.867,9.867,0,1,0,19.733,0V98.41Z" fill="#3b0e1e"/>
    </g>
    <g>
      <path d="M35.018,126.076h0A11.221,11.221,0,0,1,23.8,114.855v-17.8H46.239v17.8A11.221,11.221,0,0,1,35.018,126.076Z" fill="#fff"/>
      <path d="M35.018,127.43a12.59,12.59,0,0,1-12.576-12.575v-17.8A1.354,1.354,0,0,1,23.8,95.7H46.239a1.354,1.354,0,0,1,1.354,1.354v17.8A12.589,12.589,0,0,1,35.018,127.43ZM25.151,98.41v16.445a9.867,9.867,0,0,0,19.734,0V98.41Z" fill="#3b0e1e"/>
    </g>
    <g>
      <path d="M57.46,126.076h0a11.221,11.221,0,0,1-11.221-11.221v-17.8H68.681v17.8A11.221,11.221,0,0,1,57.46,126.076Z" fill="#fb8b75"/>
      <path d="M57.46,127.43a12.589,12.589,0,0,1-12.575-12.575v-17.8A1.354,1.354,0,0,1,46.239,95.7H68.681a1.354,1.354,0,0,1,1.354,1.354v17.8A12.589,12.589,0,0,1,57.46,127.43ZM47.593,98.41v16.445a9.867,9.867,0,0,0,19.734,0V98.41Z" fill="#3b0e1e"/>
    </g>
    <g>
      <path d="M79.9,126.076h0a11.221,11.221,0,0,1-11.221-11.221v-17.8H91.123v17.8A11.221,11.221,0,0,1,79.9,126.076Z" fill="#fff"/>
      <path d="M79.9,127.43a12.589,12.589,0,0,1-12.575-12.575v-17.8A1.354,1.354,0,0,1,68.681,95.7H91.123a1.354,1.354,0,0,1,1.355,1.354v17.8A12.59,12.59,0,0,1,79.9,127.43ZM70.035,98.41v16.445a9.867,9.867,0,0,0,19.734,0V98.41Z" fill="#3b0e1e"/>
    </g>
    <g>
      <path d="M102.344,126.076h0a11.221,11.221,0,0,1-11.221-11.221v-17.8h22.442v17.8A11.221,11.221,0,0,1,102.344,126.076Z" fill="#fb8b75"/>
      <path d="M102.344,127.43a12.589,12.589,0,0,1-12.575-12.575v-17.8A1.354,1.354,0,0,1,91.123,95.7h22.442a1.354,1.354,0,0,1,1.355,1.354v17.8A12.59,12.59,0,0,1,102.344,127.43ZM92.478,98.41v16.445a9.867,9.867,0,1,0,19.733,0V98.41Z" fill="#3b0e1e"/>
    </g>
    <g>
      <path d="M124.787,126.076h0a11.221,11.221,0,0,1-11.222-11.221v-17.8h22.443v17.8A11.221,11.221,0,0,1,124.787,126.076Z" fill="#fff"/>
      <path d="M124.787,127.43a12.59,12.59,0,0,1-12.576-12.575v-17.8a1.354,1.354,0,0,1,1.354-1.354h22.443a1.354,1.354,0,0,1,1.354,1.354v17.8A12.589,12.589,0,0,1,124.787,127.43ZM114.92,98.41v16.445a9.867,9.867,0,1,0,19.734,0V98.41Z" fill="#3b0e1e"/>
    </g>
    <g>
      <path d="M147.229,126.076h0a11.221,11.221,0,0,1-11.221-11.221v-17.8H158.45v17.8A11.221,11.221,0,0,1,147.229,126.076Z" fill="#fb8b75"/>
      <path d="M147.229,127.43a12.589,12.589,0,0,1-12.575-12.575v-17.8a1.354,1.354,0,0,1,1.354-1.354H158.45a1.354,1.354,0,0,1,1.354,1.354v17.8A12.589,12.589,0,0,1,147.229,127.43Zm-9.867-29.02v16.445a9.867,9.867,0,1,0,19.734,0V98.41Z" fill="#3b0e1e"/>
    </g>
    <path d="M1.354,98.41A1.354,1.354,0,0,1,.107,96.528L22.549,43.517a1.355,1.355,0,0,1,2.5,1.057L2.6,97.584A1.355,1.355,0,0,1,1.354,98.41Z" fill="#3b0e1e"/>
    <path d="M158.45,98.41a1.352,1.352,0,0,1-1.247-.826l-22.442-53.01a1.354,1.354,0,0,1,2.494-1.057L159.7,96.528a1.354,1.354,0,0,1-1.247,1.882Z" fill="#3b0e1e"/>
    <g>
      <g>
        <path d="M79.9,58.04A13.994,13.994,0,0,0,93.9,44.046H65.908A13.994,13.994,0,0,0,79.9,58.04Z" fill="#8fdecb"/>
        <path d="M79.9,59.394A15.365,15.365,0,0,1,64.554,44.045a1.354,1.354,0,0,1,1.354-1.354H93.9a1.355,1.355,0,0,1,1.355,1.354A15.366,15.366,0,0,1,79.9,59.394ZM67.334,45.4a12.641,12.641,0,0,0,25.136,0Z" fill="#3b0e1e"/>
      </g>
      <g>
        <path d="M122.594,44.046a42.692,42.692,0,0,1-85.384,0H23.8v53.01H136.008V44.046Z" fill="#8fdecb"/>
        <path d="M136.008,98.41H23.8a1.354,1.354,0,0,1-1.355-1.354V44.045A1.355,1.355,0,0,1,23.8,42.691H37.211a1.354,1.354,0,0,1,1.354,1.354,41.338,41.338,0,1,0,82.675,0,1.354,1.354,0,0,1,1.354-1.354h13.414a1.354,1.354,0,0,1,1.354,1.354V97.056A1.354,1.354,0,0,1,136.008,98.41ZM25.151,95.7h109.5V45.4H123.927a44.046,44.046,0,0,1-88.05,0H25.151Z" fill="#3b0e1e"/>
      </g>
    </g>
    <g>
      <g>
        <path d="M79.9,1.354a42.692,42.692,0,1,0,42.692,42.692A42.692,42.692,0,0,0,79.9,1.354Zm0,56.686A13.994,13.994,0,1,1,93.9,44.046,13.994,13.994,0,0,1,79.9,58.04Z" fill="#fcd36a"/>
        <path d="M79.9,88.092a44.046,44.046,0,1,1,44.046-44.047A44.1,44.1,0,0,1,79.9,88.092Zm0-85.383A41.337,41.337,0,1,0,121.24,44.045,41.383,41.383,0,0,0,79.9,2.709Zm0,56.685A15.349,15.349,0,1,1,95.251,44.045,15.365,15.365,0,0,1,79.9,59.394Zm0-27.988a12.64,12.64,0,1,0,12.64,12.639A12.654,12.654,0,0,0,79.9,31.406Z" fill="#3b0e1e"/>
      </g>
      <g>
        <path d="M57.653,69.454a11.4,11.4,0,0,0-17.439-9.682A42.8,42.8,0,0,0,53.9,77.9,11.372,11.372,0,0,0,57.653,69.454Z" fill="#fb8b75"/>
        <path d="M53.9,79.251a1.344,1.344,0,0,1-.826-.281,44.135,44.135,0,0,1-14.121-18.7,1.354,1.354,0,0,1,.542-1.648A12.756,12.756,0,0,1,54.813,78.9,1.353,1.353,0,0,1,53.9,79.251ZM41.928,60.374A41.443,41.443,0,0,0,53.791,76.082,10.045,10.045,0,0,0,41.928,60.374Z" fill="#3b0e1e"/>
      </g>
      <g>
        <path d="M115.29,54.908A11.406,11.406,0,0,0,108.657,75.6a42.693,42.693,0,0,0,12.136-19.276A11.361,11.361,0,0,0,115.29,54.908Z" fill="#fb8b75"/>
        <path d="M108.657,76.954a1.352,1.352,0,0,1-.789-.254,12.763,12.763,0,0,1,13.579-21.563,1.354,1.354,0,0,1,.644,1.575A44.062,44.062,0,0,1,109.57,76.6,1.351,1.351,0,0,1,108.657,76.954Zm6.633-20.692a10.05,10.05,0,0,0-6.7,17.547A41.34,41.34,0,0,0,119.15,57.033,10.084,10.084,0,0,0,115.29,56.262Z" fill="#3b0e1e"/>
      </g>
      <g>
        <path d="M79.9,1.354c-.107,0-.213.007-.32.008a11.71,11.71,0,0,0-.067,1.221,11.413,11.413,0,0,0,21.869,4.575A42.476,42.476,0,0,0,79.9,1.354Z" fill="#fb8b75"/>
        <path d="M90.93,15.352A12.783,12.783,0,0,1,78.161,2.582a12.918,12.918,0,0,1,.075-1.364A1.353,1.353,0,0,1,79.572.008L79.9,0a44,44,0,0,1,22.164,5.988,1.354,1.354,0,0,1,.559,1.714A12.776,12.776,0,0,1,90.93,15.352ZM80.87,2.72A10.058,10.058,0,0,0,99.587,7.7,41.3,41.3,0,0,0,80.87,2.72Z" fill="#3b0e1e"/>
      </g>
      <g>
        <circle cx="60.12" cy="20.394" r="2.467" fill="#fb8b75"/>
        <path d="M60.12,24.216a3.822,3.822,0,1,1,3.821-3.822A3.825,3.825,0,0,1,60.12,24.216Zm0-4.934a1.113,1.113,0,1,0,1.112,1.112A1.113,1.113,0,0,0,60.12,19.282Z" fill="#3b0e1e"/>
      </g>
      <g>
        <circle cx="107.89" cy="32.115" r="2.064" fill="#fb8b75"/>
        <path d="M107.89,35.533a3.418,3.418,0,1,1,3.418-3.418A3.421,3.421,0,0,1,107.89,35.533Zm0-4.127a.709.709,0,1,0,.71.709A.71.71,0,0,0,107.89,31.406Z" fill="#3b0e1e"/>
      </g>
      <g>
        <circle cx="78.048" cy="72.05" r="2.596" fill="#fb8b75"/>
        <path d="M78.048,76A3.95,3.95,0,1,1,82,72.05,3.955,3.955,0,0,1,78.048,76Zm0-5.192a1.242,1.242,0,1,0,1.241,1.242A1.242,1.242,0,0,0,78.048,70.808Z" fill="#3b0e1e"/>
      </g>
      <g>
        <circle cx="49.721" cy="43.078" r="3.482" fill="#fb8b75"/>
        <path d="M49.721,47.915a4.837,4.837,0,1,1,4.837-4.837A4.842,4.842,0,0,1,49.721,47.915Zm0-6.965a2.129,2.129,0,1,0,2.129,2.128A2.131,2.131,0,0,0,49.721,40.95Z" fill="#3b0e1e"/>
      </g>
    </g>
    <g>
      <rect x="118.956" y="138.898" width="30.465" height="64.177" fill="#86c8de"/>
      <path d="M149.421,204.429H118.956a1.354,1.354,0,0,1-1.354-1.354V138.9a1.354,1.354,0,0,1,1.354-1.354h30.465a1.355,1.355,0,0,1,1.355,1.354v64.177A1.355,1.355,0,0,1,149.421,204.429Zm-29.111-2.708h27.757V140.252H120.31Z" fill="#3b0e1e"/>
    </g>
    <g>
      <rect x="8.609" y="138.898" width="102.699" height="56.654" fill="#86c8de"/>
      <path d="M111.307,196.906H8.609a1.355,1.355,0,0,1-1.355-1.354V138.9a1.355,1.355,0,0,1,1.355-1.354h102.7a1.354,1.354,0,0,1,1.355,1.354v56.654A1.355,1.355,0,0,1,111.307,196.906ZM9.963,194.2h99.99V140.252H9.963Z" fill="#3b0e1e"/>
    </g>
    <path d="M84.673,196.906a1.354,1.354,0,0,1-1.354-1.354V138.9a1.355,1.355,0,0,1,2.709,0v56.654A1.355,1.355,0,0,1,84.673,196.906Z" fill="#3b0e1e"/>
    <path d="M124.569,173.865a2.878,2.878,0,1,1,2.878-2.878A2.881,2.881,0,0,1,124.569,173.865Zm0-3.95a1.072,1.072,0,1,0,1.072,1.072A1.073,1.073,0,0,0,124.569,169.915Z" fill="#3b0e1e"/>
  </g>
</svg>
