<?xml version="1.0" encoding="utf-8"?>
<!-- Generator: Adobe Illustrator 19.2.1, SVG Export Plug-In . SVG Version: 6.00 Build 0)  -->
<svg version="1.1" id="Layer_1" xmlns="http://www.w3.org/2000/svg" xmlns:xlink="http://www.w3.org/1999/xlink" x="0px" y="0px"
	 viewBox="0 0 100 100" enable-background="new 0 0 100 100" xml:space="preserve">
<g>
	<path fill="#231F20" d="M39.5,68.8c-0.3,0-0.5-0.1-0.8-0.3c-0.4-0.4-0.4-1.1,0-1.5l27.5-27.5c0.4-0.4,1.1-0.4,1.5,0
		c0.4,0.4,0.4,1.1,0,1.5L40.2,68.5C40,68.7,39.8,68.8,39.5,68.8z"/>
	<path fill="#231F20" d="M29.7,78.7c-0.3,0-0.5-0.1-0.8-0.3c-0.4-0.4-0.4-1.1,0-1.5l2-2c0.4-0.4,1.1-0.4,1.5,0
		c0.4,0.4,0.4,1.1,0,1.5l-2,2C30.2,78.5,29.9,78.7,29.7,78.7z"/>
	<path fill="#231F20" d="M33.3,78.3c-0.3,0-0.5-0.1-0.8-0.3l-3.2-3.2c-0.4-0.4-0.4-1.1,0-1.5c0.4-0.4,1.1-0.4,1.5,0l3.2,3.2
		c0.4,0.4,0.4,1.1,0,1.5C33.8,78.2,33.5,78.3,33.3,78.3z"/>
	<path fill="#231F20" d="M41.1,70.4c-0.3,0-0.5-0.1-0.8-0.3l-3.2-3.2c-0.4-0.4-0.4-1.1,0-1.5c0.4-0.4,1.1-0.4,1.5,0l3.2,3.2
		c0.4,0.4,0.4,1.1,0,1.5C41.6,70.3,41.4,70.4,41.1,70.4z"/>
	<path fill="#231F20" d="M35.6,75.8c-0.6,0-1.1-0.5-1.1-1.1v-6c0-0.6,0.5-1.1,1.1-1.1s1.1,0.5,1.1,1.1v6
		C36.6,75.3,36.2,75.8,35.6,75.8z"/>
	<path fill="#231F20" d="M38.6,72.7h-6c-0.6,0-1.1-0.5-1.1-1.1c0-0.6,0.5-1.1,1.1-1.1h6c0.6,0,1.1,0.5,1.1,1.1
		C39.7,72.3,39.2,72.7,38.6,72.7z"/>
	<path fill="#231F20" d="M65.1,62.1c-0.1,0-0.2,0-0.3-0.1c-0.5-0.2-0.8-0.6-0.7-1.1l0,0c0-0.1,0.4-6.8-5.8-13
		c-4.1-4.1-10.7-4.1-14.8,0c0,0-0.1,0.1-0.1,0.1l-0.1,0.2c-0.3,0.3-0.7,0.4-1.1,0.3c-0.4-0.1-0.7-0.4-0.8-0.8
		c-1.9-7.9,0.4-16.1,6.1-21.8c1.8-1.8,3.8-3.2,6-4.3c0.3-0.1,0.7-0.2,1,0c0.3,0.1,0.5,0.4,0.6,0.8c1.4,7,4.8,13.4,9.8,18.4
		c9.3,9.3,4,16.8,1.8,19.9c-0.2,0.3-0.5,0.6-0.6,0.9C65.8,62,65.5,62.1,65.1,62.1z M50.9,42.8c3.2,0,6.5,1.2,8.9,3.7
		C64,50.7,65.5,55.1,66,58c2.2-3.4,4.3-8.7-2.6-15.6c-5.1-5.1-8.5-11.3-10.1-18.2c-1.5,0.9-3,2-4.2,3.3c-4.8,4.8-6.9,11.4-5.9,18
		C45.4,43.7,48.1,42.8,50.9,42.8z"/>
</g>
</svg>
