<?xml version="1.0" encoding="utf-8"?>
<!-- Generator: Adobe Illustrator 19.2.1, SVG Export Plug-In . SVG Version: 6.00 Build 0)  -->
<svg version="1.1" id="Layer_1" xmlns="http://www.w3.org/2000/svg" xmlns:xlink="http://www.w3.org/1999/xlink" x="0px" y="0px"
	 viewBox="0 0 100 100" enable-background="new 0 0 100 100" xml:space="preserve">
<g>
	<path fill="#231F20" d="M38.5,62c-0.3,0-0.5-0.1-0.8-0.3c-0.4-0.4-0.4-1.1,0-1.5l20.1-20.1c0.4-0.4,1.1-0.4,1.5,0
		c0.4,0.4,0.4,1.1,0,1.5L39.2,61.7C39,61.9,38.7,62,38.5,62z"/>
	<path fill="#231F20" d="M28.6,71.9c-0.3,0-0.5-0.1-0.8-0.3c-0.4-0.4-0.4-1.1,0-1.5l2-2c0.4-0.4,1.1-0.4,1.5,0
		c0.4,0.4,0.4,1.1,0,1.5l-2,2C29.2,71.8,28.9,71.9,28.6,71.9z"/>
	<path fill="#231F20" d="M32.2,71.5c-0.3,0-0.5-0.1-0.8-0.3L28.2,68c-0.4-0.4-0.4-1.1,0-1.5c0.4-0.4,1.1-0.4,1.5,0l3.2,3.2
		c0.4,0.4,0.4,1.1,0,1.5C32.8,71.4,32.5,71.5,32.2,71.5z"/>
	<path fill="#231F20" d="M40.1,63.6c-0.3,0-0.5-0.1-0.8-0.3l-3.2-3.2c-0.4-0.4-0.4-1.1,0-1.5c0.4-0.4,1.1-0.4,1.5,0l3.2,3.2
		c0.4,0.4,0.4,1.1,0,1.5C40.6,63.5,40.3,63.6,40.1,63.6z"/>
	<path fill="#231F20" d="M34.5,69c-0.6,0-1.1-0.5-1.1-1.1v-6c0-0.6,0.5-1.1,1.1-1.1c0.6,0,1.1,0.5,1.1,1.1v6
		C35.6,68.5,35.1,69,34.5,69z"/>
	<path fill="#231F20" d="M37.6,66h-6c-0.6,0-1.1-0.5-1.1-1.1c0-0.6,0.5-1.1,1.1-1.1h6c0.6,0,1.1,0.5,1.1,1.1
		C38.6,65.5,38.1,66,37.6,66z"/>
	<path fill="#231F20" d="M35.8,72.8c-1.8,0-3.4-0.7-4.7-1.9c-0.4-0.4-0.4-1.1,0-1.5c0.4-0.4,1.1-0.4,1.5,0c0.8,0.8,2,1.3,3.2,1.3
		c1.2,0,2.3-0.5,3.2-1.3c0.8-0.8,1.3-2,1.3-3.2c0-1.2-0.5-2.3-1.3-3.2c-0.4-0.4-0.4-1.1,0-1.5c0.4-0.4,1.1-0.4,1.5,0
		c1.2,1.2,1.9,2.9,1.9,4.7c0,1.8-0.7,3.4-1.9,4.7C39.2,72.1,37.6,72.8,35.8,72.8z"/>
	<polygon fill="#231F20" points="59.3,41.6 57.8,40.1 72,27.4 72,27.4 	"/>
</g>
</svg>
