<?xml version="1.0" encoding="utf-8"?>
<!-- Generator: Adobe Illustrator 19.2.1, SVG Export Plug-In . SVG Version: 6.00 Build 0)  -->
<svg version="1.1" id="Layer_1" xmlns="http://www.w3.org/2000/svg" xmlns:xlink="http://www.w3.org/1999/xlink" x="0px" y="0px"
	 viewBox="0 0 100 100" enable-background="new 0 0 100 100" xml:space="preserve">
<g>
	<path fill="#231F20" d="M40.8,65.9c-0.3,0-0.5-0.1-0.8-0.3c-0.4-0.4-0.4-1.1,0-1.5l27.5-27.5c0.4-0.4,1.1-0.4,1.5,0
		c0.4,0.4,0.4,1.1,0,1.5L41.5,65.6C41.3,65.8,41,65.9,40.8,65.9z"/>
	<path fill="#231F20" d="M30.9,75.7c-0.3,0-0.5-0.1-0.8-0.3c-0.4-0.4-0.4-1.1,0-1.5l2-2c0.4-0.4,1.1-0.4,1.5,0
		c0.4,0.4,0.4,1.1,0,1.5l-2,2C31.5,75.6,31.2,75.7,30.9,75.7z"/>
	<path fill="#231F20" d="M34.5,75.3c-0.3,0-0.5-0.1-0.8-0.3l-3.2-3.2c-0.4-0.4-0.4-1.1,0-1.5c0.4-0.4,1.1-0.4,1.5,0l3.2,3.2
		c0.4,0.4,0.4,1.1,0,1.5C35.1,75.2,34.8,75.3,34.5,75.3z"/>
	<path fill="#231F20" d="M42.4,67.5c-0.3,0-0.5-0.1-0.8-0.3l-3.2-3.2c-0.4-0.4-0.4-1.1,0-1.5c0.4-0.4,1.1-0.4,1.5,0l3.2,3.2
		c0.4,0.4,0.4,1.1,0,1.5C42.9,67.4,42.7,67.5,42.4,67.5z"/>
	<path fill="#231F20" d="M36.8,72.8c-0.6,0-1.1-0.5-1.1-1.1v-6c0-0.6,0.5-1.1,1.1-1.1c0.6,0,1.1,0.5,1.1,1.1v6
		C37.9,72.3,37.4,72.8,36.8,72.8z"/>
	<path fill="#231F20" d="M39.9,69.8h-6c-0.6,0-1.1-0.5-1.1-1.1c0-0.6,0.5-1.1,1.1-1.1h6c0.6,0,1.1,0.5,1.1,1.1
		C40.9,69.3,40.5,69.8,39.9,69.8z"/>
	<path fill="#231F20" d="M59,53.7c-0.1,0-0.2,0-0.2,0c-0.4-0.1-0.6-0.3-0.8-0.7c-0.5-1.3-1.2-2.4-2.1-3.3c-3.5-3.5-9.1-3.5-12.6,0
		L43,49.9c-0.3,0.3-0.7,0.4-1.1,0.3c-0.4-0.1-0.7-0.4-0.8-0.8c-1.7-6.9,0.3-14,5.4-19c5-5,12.1-7,19-5.4c0.4,0.1,0.7,0.4,0.8,0.8
		c0.1,0.4,0,0.8-0.3,1.1L65.9,27c0,0-0.1,0.1-0.1,0.1c-3.5,3.5-3.5,9.2,0,12.6c0.9,0.9,2,1.6,3.3,2.1c0.3,0.1,0.6,0.4,0.7,0.8
		c0.1,0.4,0,0.7-0.3,1l-9.8,9.8C59.5,53.6,59.2,53.7,59,53.7z M49.5,44.9c2.8,0,5.7,1.1,7.8,3.2c0.8,0.8,1.4,1.6,1.9,2.6l7.6-7.6
		c-1-0.5-1.8-1.2-2.6-1.9c-3.9-3.9-4.3-10.1-1-14.5C57.7,26,52.1,27.9,48,31.9c-4,4-5.9,9.6-5.1,15.2C44.9,45.7,47.2,44.9,49.5,44.9
		z"/>
</g>
</svg>
