<?xml version="1.0" encoding="utf-8"?>
<!-- Generator: Adobe Illustrator 19.2.1, SVG Export Plug-In . SVG Version: 6.00 Build 0)  -->
<svg version="1.1" id="Layer_1" xmlns="http://www.w3.org/2000/svg" xmlns:xlink="http://www.w3.org/1999/xlink" x="0px" y="0px"
	 viewBox="0 0 100 100" enable-background="new 0 0 100 100" xml:space="preserve">
<g>
	<path fill="#231F20" d="M22.3,68c-0.3,0-0.5-0.1-0.8-0.3c-0.4-0.4-0.4-1.1,0-1.5l2-2c0.4-0.4,1.1-0.4,1.5,0c0.4,0.4,0.4,1.1,0,1.5
		l-2,2C22.9,67.8,22.6,68,22.3,68z"/>
	<path fill="#231F20" d="M25.9,67.6c-0.3,0-0.5-0.1-0.8-0.3L21.9,64c-0.4-0.4-0.4-1.1,0-1.5c0.4-0.4,1.1-0.4,1.5,0l3.2,3.2
		c0.4,0.4,0.4,1.1,0,1.5C26.4,67.5,26.2,67.6,25.9,67.6z"/>
	<path fill="#231F20" d="M28.2,65.1c-0.6,0-1.1-0.5-1.1-1.1v-6c0-0.6,0.5-1.1,1.1-1.1c0.6,0,1.1,0.5,1.1,1.1v6
		C29.3,64.6,28.8,65.1,28.2,65.1z"/>
	<path fill="#231F20" d="M31.2,62h-6c-0.6,0-1.1-0.5-1.1-1.1c0-0.6,0.5-1.1,1.1-1.1h6c0.6,0,1.1,0.5,1.1,1.1
		C32.3,61.6,31.8,62,31.2,62z"/>
	<path fill="#231F20" d="M35.1,67.2c-0.3,0-0.6-0.1-0.8-0.3c-0.4-0.4-0.4-1.1,0-1.5c0.1-0.1,2.1-2.3-3-7.3
		c-6.6-6.6-3.2-10.5-3.1-10.7c0.4-0.4,1.1-0.5,1.5-0.1c0.4,0.4,0.5,1.1,0.1,1.5c-0.1,0.1-2,2.7,3,7.7c2.7,2.7,4,5.2,4,7.4
		c0,1.9-1,2.8-1.1,2.9C35.7,67.1,35.4,67.2,35.1,67.2z"/>
	<path fill="#231F20" d="M33.8,58.9c-0.3,0-0.6-0.1-0.8-0.3l-2-2c-0.3-0.3-0.4-0.7-0.3-1c3.3-12,13.4-21,25.8-22.9l0,0
		c8.1-1.3,16.3,0.6,23,5.4c0.4,0.3,0.6,0.8,0.4,1.3c-0.2,0.5-0.7,0.7-1.2,0.6c-2.7-0.5-5.5-0.6-8.3-0.2c-5,0.8-9.5,3-13,6.6
		c-0.2,0.2-0.5,0.3-0.8,0.3c-1.6-0.1-3.3,0-4.9,0.2c-7.1,1.1-13.3,5.3-16.9,11.6c-0.2,0.3-0.5,0.5-0.8,0.5
		C33.9,58.9,33.9,58.9,33.8,58.9z M33,55.5l0.6,0.6c4-6.2,10.4-10.3,17.7-11.4c1.6-0.2,3.2-0.3,4.9-0.3c3.8-3.6,8.6-6,13.9-6.8
		c1.4-0.2,2.8-0.3,4.1-0.3c-5.4-2.6-11.4-3.5-17.3-2.6C45.6,36.5,36.3,44.6,33,55.5z"/>
</g>
</svg>
