<?xml version="1.0" encoding="utf-8"?>
<!-- Generator: Adobe Illustrator 19.2.1, SVG Export Plug-In . SVG Version: 6.00 Build 0)  -->
<svg version="1.1" id="Layer_1" xmlns="http://www.w3.org/2000/svg" xmlns:xlink="http://www.w3.org/1999/xlink" x="0px" y="0px"
	 viewBox="0 0 100 100" enable-background="new 0 0 100 100" xml:space="preserve">
<g>
	<path fill="#231F20" d="M28.4,74c-0.3,0-0.5-0.1-0.8-0.3c-0.4-0.4-0.4-1.1,0-1.5l2-2c0.4-0.4,1.1-0.4,1.5,0c0.4,0.4,0.4,1.1,0,1.5
		l-2,2C29,73.9,28.7,74,28.4,74z"/>
	<path fill="#231F20" d="M32,73.7c-0.3,0-0.5-0.1-0.8-0.3L28,70.1c-0.4-0.4-0.4-1.1,0-1.5c0.4-0.4,1.1-0.4,1.5,0l3.2,3.2
		c0.4,0.4,0.4,1.1,0,1.5C32.5,73.5,32.3,73.7,32,73.7z"/>
	<path fill="#231F20" d="M41.4,67.3c-0.3,0-0.5-0.1-0.8-0.3l-6.2-6.2c-0.4-0.4-0.4-1.1,0-1.5c0.4-0.4,1.1-0.4,1.5,0l6.2,6.2
		c0.4,0.4,0.4,1.1,0,1.5C41.9,67.2,41.6,67.3,41.4,67.3z"/>
	<path fill="#231F20" d="M34.3,71.1c-0.6,0-1.1-0.5-1.1-1.1v-6c0-0.6,0.5-1.1,1.1-1.1c0.6,0,1.1,0.5,1.1,1.1v6
		C35.4,70.7,34.9,71.1,34.3,71.1z"/>
	<path fill="#231F20" d="M37.3,68.1h-6c-0.6,0-1.1-0.5-1.1-1.1c0-0.6,0.5-1.1,1.1-1.1h6c0.6,0,1.1,0.5,1.1,1.1
		C38.4,67.6,37.9,68.1,37.3,68.1z"/>
	<path fill="#231F20" d="M41.1,64.6L41.1,64.6c-0.3,0-0.6-0.1-0.8-0.3l-3.2-3.2c-0.4-0.4-0.4-1.1,0-1.5l33.1-33.1
		c0.3-0.3,0.9-0.4,1.3-0.2c0.4,0.3,0.6,0.8,0.5,1.2L71.2,30c-1.4,4.6-3.9,8.8-7.3,12.2l0,0l-22,22C41.6,64.5,41.4,64.6,41.1,64.6z
		 M39.4,60.3l1.7,1.7l21.3-21.3c2.7-2.7,4.9-6,6.2-9.6L39.4,60.3z M63.1,41.5L63.1,41.5L63.1,41.5z"/>
</g>
</svg>
