<?xml version="1.0" encoding="utf-8"?>
<!-- Generator: Adobe Illustrator 19.2.1, SVG Export Plug-In . SVG Version: 6.00 Build 0)  -->
<svg version="1.1" id="Layer_1" xmlns="http://www.w3.org/2000/svg" xmlns:xlink="http://www.w3.org/1999/xlink" x="0px" y="0px"
	 viewBox="0 0 100 100" enable-background="new 0 0 100 100" xml:space="preserve">
<g>
	<path fill="#231F20" d="M71,30.5c-0.3,0-0.5-0.1-0.8-0.3c-0.4-0.4-0.4-1.1,0-1.5l1.9-1.9c0.4-0.4,1.1-0.4,1.5,0
		c0.4,0.4,0.4,1.1,0,1.5l-1.9,1.9C71.6,30.4,71.3,30.5,71,30.5z"/>
	<path fill="#231F20" d="M38.1,63.5c-0.3,0-0.5-0.1-0.8-0.3c-0.4-0.4-0.4-1.1,0-1.5l15.2-15.2c0.4-0.4,1.1-0.4,1.5,0
		c0.4,0.4,0.4,1.1,0,1.5L38.8,63.2C38.6,63.4,38.4,63.5,38.1,63.5z"/>
	<path fill="#231F20" d="M31.9,72.9c-0.3,0-0.5-0.1-0.8-0.3l-3.2-3.2c-0.4-0.4-0.4-1.1,0-1.5c0.4-0.4,1.1-0.4,1.5,0l3.2,3.2
		c0.4,0.4,0.4,1.1,0,1.5C32.4,72.8,32.1,72.9,31.9,72.9z"/>
	<path fill="#231F20" d="M39.7,65.1c-0.3,0-0.5-0.1-0.8-0.3l-3.2-3.2c-0.4-0.4-0.4-1.1,0-1.5c0.4-0.4,1.1-0.4,1.5,0l3.2,3.2
		c0.4,0.4,0.4,1.1,0,1.5C40.2,65,40,65.1,39.7,65.1z"/>
	<path fill="#231F20" d="M54.9,49.9c-0.3,0-0.5-0.1-0.8-0.3l-3.2-3.2c-0.4-0.4-0.4-1.1,0-1.5c0.4-0.4,1.1-0.4,1.5,0l3.2,3.2
		c0.4,0.4,0.4,1.1,0,1.5C55.4,49.8,55.1,49.9,54.9,49.9z"/>
	<path fill="#231F20" d="M34.2,70.4c-0.6,0-1.1-0.5-1.1-1.1v-6c0-0.6,0.5-1.1,1.1-1.1s1.1,0.5,1.1,1.1v6
		C35.2,70,34.8,70.4,34.2,70.4z"/>
	<path fill="#231F20" d="M37.2,67.4h-6c-0.6,0-1.1-0.5-1.1-1.1c0-0.6,0.5-1.1,1.1-1.1h6c0.6,0,1.1,0.5,1.1,1.1
		C38.3,66.9,37.8,67.4,37.2,67.4z"/>
	<path fill="#231F20" d="M28.3,73.3c-0.3,0-0.5-0.1-0.8-0.3c-0.4-0.4-0.4-1.1,0-1.5l2-2c0.4-0.4,1.1-0.4,1.5,0
		c0.4,0.4,0.4,1.1,0,1.5l-2,2C28.8,73.2,28.5,73.3,28.3,73.3z"/>
	<path fill="#231F20" d="M53.4,48.2c-0.3,0-0.6-0.1-0.8-0.3c-0.3-0.3-0.4-0.7-0.3-1.1l5-15.5c0.1-0.4,0.4-0.6,0.8-0.7l12.9-2.4
		c0.3-0.1,0.7,0,1,0.3c0.2,0.3,0.4,0.6,0.3,1l-2.4,12.9c-0.1,0.4-0.3,0.7-0.7,0.8l-15.5,5C53.6,48.2,53.5,48.2,53.4,48.2z
		 M59.2,32.6L55,45.5L68,41.3l2-10.7L59.2,32.6z"/>
</g>
</svg>
