<?xml version="1.0" encoding="utf-8"?>
<!-- Generator: Adobe Illustrator 19.2.1, SVG Export Plug-In . SVG Version: 6.00 Build 0)  -->
<svg version="1.1" id="Layer_1" xmlns="http://www.w3.org/2000/svg" xmlns:xlink="http://www.w3.org/1999/xlink" x="0px" y="0px"
	 viewBox="0 0 100 100" enable-background="new 0 0 100 100" xml:space="preserve">
<g>
	<path fill="#231F20" d="M41.3,68.8c-0.3,0-0.5-0.1-0.8-0.3c-0.4-0.4-0.4-1.1,0-1.5l27.5-27.5c0.4-0.4,1.1-0.4,1.5,0
		c0.4,0.4,0.4,1.1,0,1.5L42.1,68.5C41.9,68.7,41.6,68.8,41.3,68.8z"/>
	<path fill="#231F20" d="M31.5,78.7c-0.3,0-0.5-0.1-0.8-0.3c-0.4-0.4-0.4-1.1,0-1.5l2-2c0.4-0.4,1.1-0.4,1.5,0
		c0.4,0.4,0.4,1.1,0,1.5l-2,2C32,78.5,31.8,78.7,31.5,78.7z"/>
	<path fill="#231F20" d="M35.1,78.3c-0.3,0-0.5-0.1-0.8-0.3l-3.2-3.2c-0.4-0.4-0.4-1.1,0-1.5c0.4-0.4,1.1-0.4,1.5,0l3.2,3.2
		c0.4,0.4,0.4,1.1,0,1.5C35.6,78.2,35.3,78.3,35.1,78.3z"/>
	<path fill="#231F20" d="M42.9,70.4c-0.3,0-0.5-0.1-0.8-0.3l-3.2-3.2c-0.4-0.4-0.4-1.1,0-1.5c0.4-0.4,1.1-0.4,1.5,0l3.2,3.2
		c0.4,0.4,0.4,1.1,0,1.5C43.5,70.3,43.2,70.4,42.9,70.4z"/>
	<path fill="#231F20" d="M37.4,75.8c-0.6,0-1.1-0.5-1.1-1.1v-6c0-0.6,0.5-1.1,1.1-1.1c0.6,0,1.1,0.5,1.1,1.1v6
		C38.5,75.3,38,75.8,37.4,75.8z"/>
	<path fill="#231F20" d="M40.4,72.7h-6c-0.6,0-1.1-0.5-1.1-1.1c0-0.6,0.5-1.1,1.1-1.1h6c0.6,0,1.1,0.5,1.1,1.1
		C41.5,72.3,41,72.7,40.4,72.7z"/>
	<path fill="#231F20" d="M63.5,52.6c-0.1,0-0.2,0-0.2,0c-0.4-0.1-0.6-0.3-0.8-0.7c-0.5-1.5-1.4-2.8-2.5-3.9
		c-4.1-4.1-10.7-4.1-14.8,0c0,0-0.1,0.1-0.1,0.1L45,48.3c-0.3,0.3-0.7,0.4-1.1,0.3c-0.4-0.1-0.7-0.4-0.8-0.8
		c-1.9-7.9,0.4-16.1,6.1-21.8c1.8-1.8,3.8-3.2,6-4.3c0.3-0.1,0.6-0.2,1,0c0.3,0.1,0.5,0.4,0.6,0.8c1.4,7,4.8,13.4,9.8,18.4l0,0
		c1.2,1.2,2.5,2.4,3.9,3.4c0.2,0.2,0.4,0.5,0.4,0.8c0,0.3-0.1,0.6-0.3,0.8l-6.4,6.4C64.1,52.5,63.8,52.6,63.5,52.6z M52.7,42.8
		c3.2,0,6.5,1.2,8.9,3.7c0.9,0.9,1.7,2,2.3,3.2l4.5-4.5c-1.1-0.9-2.2-1.9-3.2-2.9c-5-5-8.5-11.3-10.1-18.1c-1.5,0.9-3,2-4.2,3.3
		c-4.8,4.8-6.9,11.4-5.9,18C47.2,43.7,49.9,42.8,52.7,42.8z"/>
</g>
</svg>
