<?xml version="1.0" encoding="utf-8"?>
<!-- Generator: Adobe Illustrator 19.2.1, SVG Export Plug-In . SVG Version: 6.00 Build 0)  -->
<svg version="1.1" id="Layer_1" xmlns="http://www.w3.org/2000/svg" xmlns:xlink="http://www.w3.org/1999/xlink" x="0px" y="0px"
	 viewBox="0 0 100 100" enable-background="new 0 0 100 100" xml:space="preserve">
<g>
	<path fill="#231F20" d="M66.2,27.7c2,0,3.6,0.6,4.6,1.6c4.1,4.3-4,14.1-9.3,17.9c-5.3,3.8-9,3-18.5,12.4
		C35,67.7,31.2,72.2,29.2,72.2c-0.3,0-0.6-0.1-0.9-0.4c-1.7-1.7,5.2-8.3,11.2-15.6c5.9-7.3,9.4-13.1,15-21.3
		C58.2,29.7,62.7,27.7,66.2,27.7 M66.2,25.5c-4.9,0-9.9,3.1-13.4,8.2c-1.6,2.3-2.9,4.3-4.3,6.3c-3.4,5.2-6.4,9.6-10.7,14.8
		c-1.6,2-3.3,3.8-4.9,5.6c-5.5,6.3-8.9,10.1-6.2,12.8c0.7,0.7,1.5,1,2.4,1c2.5,0,4.8-2.4,10.6-8.3c1.4-1.4,3-3,4.8-4.8
		c6-6,9.4-7.6,12.7-9.1c1.7-0.8,3.5-1.6,5.5-3C67,46,73.5,38.8,74,33.1c0.2-2.1-0.4-3.9-1.7-5.2C70.9,26.3,68.7,25.5,66.2,25.5
		L66.2,25.5z"/>
	<path fill="#231F20" d="M54.1,47c-0.1,0-0.2,0-0.3-0.1c-0.6-0.5-0.9-1.3-1-2.2c-0.1-2.5,1.7-5.9,4.7-9c3.4-3.5,7.5-5.1,9.3-3.6
		c0.4,0.4,0.7,0.9,0.7,1.6c0.1,1.6-1.1,3.9-3,5.9c-2.3,2.4-5,3.4-6.2,2.3c-0.3-0.3-0.5-0.7-0.5-1.1c0-1.1,0.7-2.6,2-3.9
		c1.3-1.4,3.2-2.3,4.2-1.5c0.2,0.2,0.2,0.5,0.1,0.8c-0.2,0.2-0.5,0.3-0.8,0.1c-0.3-0.2-1.5,0.1-2.8,1.4c-1.2,1.3-1.7,2.5-1.7,3.1
		c0,0.2,0.1,0.3,0.1,0.4c0.7,0.6,2.8-0.3,4.7-2.2c1.7-1.7,2.8-3.8,2.7-5.1c0-0.4-0.1-0.6-0.3-0.8c-1.1-1-4.6,0.2-7.8,3.5
		c-2.7,2.8-4.5,6-4.4,8.2c0,0.7,0.2,1.2,0.6,1.5c0.2,0.2,0.2,0.5,0.1,0.8C54.4,46.9,54.3,47,54.1,47z"/>
</g>
</svg>
