<?xml version="1.0" encoding="utf-8"?>
<!-- Generator: Adobe Illustrator 19.2.1, SVG Export Plug-In . SVG Version: 6.00 Build 0)  -->
<svg version="1.1" id="Layer_1" xmlns="http://www.w3.org/2000/svg" xmlns:xlink="http://www.w3.org/1999/xlink" x="0px" y="0px"
	 viewBox="0 0 100 100" enable-background="new 0 0 100 100" xml:space="preserve">
<g>
	<path fill="#231F20" d="M35.4,65.9c-0.3,0-0.5-0.1-0.8-0.3c-0.4-0.4-0.4-1.1,0-1.5l27.5-27.5c0.4-0.4,1.1-0.4,1.5,0
		c0.4,0.4,0.4,1.1,0,1.5L36.2,65.6C35.9,65.8,35.7,65.9,35.4,65.9z"/>
	<path fill="#231F20" d="M25.6,75.7c-0.3,0-0.5-0.1-0.8-0.3c-0.4-0.4-0.4-1.1,0-1.5l2-2c0.4-0.4,1.1-0.4,1.5,0
		c0.4,0.4,0.4,1.1,0,1.5l-2,2C26.1,75.6,25.8,75.7,25.6,75.7z"/>
	<path fill="#231F20" d="M29.2,75.3c-0.3,0-0.5-0.1-0.8-0.3l-3.2-3.2c-0.4-0.4-0.4-1.1,0-1.5c0.4-0.4,1.1-0.4,1.5,0l3.2,3.2
		c0.4,0.4,0.4,1.1,0,1.5C29.7,75.2,29.4,75.3,29.2,75.3z"/>
	<path fill="#231F20" d="M37,67.5c-0.3,0-0.5-0.1-0.8-0.3L33,63.9c-0.4-0.4-0.4-1.1,0-1.5c0.4-0.4,1.1-0.4,1.5,0l3.2,3.2
		c0.4,0.4,0.4,1.1,0,1.5C37.5,67.4,37.3,67.5,37,67.5z"/>
	<path fill="#231F20" d="M31.5,72.8c-0.6,0-1.1-0.5-1.1-1.1v-6c0-0.6,0.5-1.1,1.1-1.1c0.6,0,1.1,0.5,1.1,1.1v6
		C32.5,72.3,32.1,72.8,31.5,72.8z"/>
	<path fill="#231F20" d="M34.5,69.8h-6c-0.6,0-1.1-0.5-1.1-1.1c0-0.6,0.5-1.1,1.1-1.1h6c0.6,0,1.1,0.5,1.1,1.1
		C35.6,69.3,35.1,69.8,34.5,69.8z"/>
	<path fill="#231F20" d="M55.5,64.9c-1.6,0-3.2-0.2-4.9-0.6c-0.4-0.1-0.7-0.4-0.8-0.8c-0.1-0.4,0-0.8,0.3-1.1l0.1-0.1
		c0,0,0.1-0.1,0.1-0.1c1.7-1.7,2.6-3.9,2.6-6.3c0-2.4-0.9-4.6-2.6-6.3c-3.5-3.5-9.1-3.5-12.6,0l-0.2,0.2c-0.3,0.3-0.7,0.4-1.1,0.3
		c-0.4-0.1-0.7-0.4-0.8-0.8c-1.7-6.9,0.3-14,5.4-19c5-5,12.1-7,19-5.4c0.4,0.1,0.7,0.4,0.8,0.8c0.1,0.4,0,0.8-0.3,1.1L60.5,27
		c0,0-0.1,0.1-0.1,0.1c-3.5,3.5-3.5,9.2,0,12.6c3.5,3.5,9.1,3.5,12.6,0c0,0,0.1-0.1,0.1-0.1l0.1-0.1c0.3-0.3,0.7-0.4,1.1-0.3
		c0.4,0.1,0.7,0.4,0.8,0.8c1.7,6.9-0.3,14.1-5.3,19.1C65.9,62.9,60.8,64.9,55.5,64.9z M53,62.6c5.6,0.8,11.2-1.1,15.2-5.1
		c4-4,5.9-9.6,5.1-15.2c-4.3,3.3-10.5,2.9-14.5-1c-3.9-3.9-4.3-10.1-1-14.5c-5.6-0.8-11.2,1.1-15.2,5.1c-4,4-5.9,9.6-5.1,15.2
		c4.3-3.2,10.5-2.9,14.4,1c2.1,2.1,3.2,4.9,3.2,7.8C55.2,58.4,54.5,60.7,53,62.6z"/>
</g>
</svg>
