<?xml version="1.0" encoding="utf-8"?>
<!-- Generator: Adobe Illustrator 19.2.1, SVG Export Plug-In . SVG Version: 6.00 Build 0)  -->
<svg version="1.1" id="Layer_1" xmlns="http://www.w3.org/2000/svg" xmlns:xlink="http://www.w3.org/1999/xlink" x="0px" y="0px"
	 viewBox="0 0 100 100" enable-background="new 0 0 100 100" xml:space="preserve">
<g>
	<path fill="#231F20" d="M38.7,62.3c-0.3,0-0.5-0.1-0.8-0.3c-0.4-0.4-0.4-1.1,0-1.5l26-26c0.4-0.4,1.1-0.4,1.5,0
		c0.4,0.4,0.4,1.1,0,1.5l-26,26C39.3,62.2,39,62.3,38.7,62.3z"/>
	<path fill="#231F20" d="M28.9,72.1c-0.3,0-0.5-0.1-0.8-0.3c-0.4-0.4-0.4-1.1,0-1.5l2-2c0.4-0.4,1.1-0.4,1.5,0
		c0.4,0.4,0.4,1.1,0,1.5l-2,2C29.4,72,29.2,72.1,28.9,72.1z"/>
	<path fill="#231F20" d="M32.5,71.7c-0.3,0-0.5-0.1-0.8-0.3l-3.2-3.2c-0.4-0.4-0.4-1.1,0-1.5c0.4-0.4,1.1-0.4,1.5,0l3.2,3.2
		c0.4,0.4,0.4,1.1,0,1.5C33,71.6,32.7,71.7,32.5,71.7z"/>
	<path fill="#231F20" d="M40.3,63.9c-0.3,0-0.5-0.1-0.8-0.3l-3.2-3.2c-0.4-0.4-0.4-1.1,0-1.5c0.4-0.4,1.1-0.4,1.5,0l3.2,3.2
		c0.4,0.4,0.4,1.1,0,1.5C40.9,63.8,40.6,63.9,40.3,63.9z"/>
	<path fill="#231F20" d="M34.8,69.2c-0.6,0-1.1-0.5-1.1-1.1v-6c0-0.6,0.5-1.1,1.1-1.1c0.6,0,1.1,0.5,1.1,1.1v6
		C35.9,68.7,35.4,69.2,34.8,69.2z"/>
	<path fill="#231F20" d="M37.8,66.2h-6c-0.6,0-1.1-0.5-1.1-1.1c0-0.6,0.5-1.1,1.1-1.1h6c0.6,0,1.1,0.5,1.1,1.1
		C38.9,65.7,38.4,66.2,37.8,66.2z"/>
	<path fill="#231F20" d="M43.6,64.7c-0.3,0-0.5-0.1-0.8-0.3l-7.3-7.3c-0.2-0.2-0.3-0.5-0.3-0.8s0.1-0.6,0.3-0.8l25.5-25.5
		c0.2-0.2,0.3-0.3,0.6-0.3l8.9-1.7c0.3-0.1,0.7,0,1,0.3c0.2,0.2,0.4,0.6,0.3,1l-1.7,8.9c0,0.2-0.1,0.4-0.3,0.6L44.3,64.4
		C44.1,64.6,43.8,64.7,43.6,64.7z M37.8,56.3l5.8,5.8l24.5-24.5l1.3-7.1l-7.1,1.3L37.8,56.3z"/>
</g>
</svg>
