<?xml version="1.0" encoding="utf-8"?>
<!-- Generator: Adobe Illustrator 19.2.1, SVG Export Plug-In . SVG Version: 6.00 Build 0)  -->
<svg version="1.1" id="Layer_1" xmlns="http://www.w3.org/2000/svg" xmlns:xlink="http://www.w3.org/1999/xlink" x="0px" y="0px"
	 viewBox="0 0 100 100" enable-background="new 0 0 100 100" xml:space="preserve">
<g>
	<path fill="#231F20" d="M28.8,72.4c-0.3,0-0.5-0.1-0.8-0.3c-0.4-0.4-0.4-1.1,0-1.5l30.3-30.3c0.4-0.4,1.1-0.4,1.5,0
		c0.4,0.4,0.4,1.1,0,1.5L29.6,72.1C29.4,72.3,29.1,72.4,28.8,72.4z"/>
	<path fill="#231F20" d="M59.2,44c-0.3,0-0.5-0.1-0.8-0.3l-2-2c-0.4-0.4-0.4-1.1,0-1.5c0.4-0.4,1.1-0.4,1.5,0l2,2
		c0.4,0.4,0.4,1.1,0,1.5C59.7,43.9,59.5,44,59.2,44z"/>
	<path fill="#231F20" d="M58,45.2c-0.3,0-0.5-0.1-0.8-0.3l-2-2c-0.4-0.4-0.4-1.1,0-1.5c0.4-0.4,1.1-0.4,1.5,0l2,2
		c0.4,0.4,0.4,1.1,0,1.5C58.5,45.1,58.3,45.2,58,45.2z"/>
	<path fill="#231F20" d="M58.7,42.5c-0.3,0-0.6-0.1-0.8-0.3c-0.3-0.3-0.4-0.7-0.3-1l1.8-6.7c0.1-0.3,0.3-0.5,0.5-0.7l11.1-6.2
		c0.4-0.2,0.9-0.2,1.3,0.2c0.3,0.3,0.4,0.9,0.2,1.3l-6.2,11.1c-0.1,0.3-0.4,0.4-0.7,0.5L59,42.4C58.9,42.5,58.8,42.5,58.7,42.5z
		 M61.4,35.4l-1.2,4.5l4.5-1.2l4.1-7.4L61.4,35.4z"/>
</g>
</svg>
