<?xml version="1.0" encoding="utf-8"?>
<!-- Generator: Adobe Illustrator 19.2.1, SVG Export Plug-In . SVG Version: 6.00 Build 0)  -->
<svg version="1.1" id="Layer_1" xmlns="http://www.w3.org/2000/svg" xmlns:xlink="http://www.w3.org/1999/xlink" x="0px" y="0px"
	 viewBox="0 0 100 100" enable-background="new 0 0 100 100" xml:space="preserve">
<g>
	<path fill="#231F20" d="M37.5,64.3c-0.3,0-0.5-0.1-0.8-0.3c-0.4-0.4-0.4-1.1,0-1.5l14.8-14.8c0.4-0.4,1.1-0.4,1.5,0
		c0.4,0.4,0.4,1.1,0,1.5L38.3,64C38.1,64.2,37.8,64.3,37.5,64.3z"/>
	<path fill="#231F20" d="M27.7,74.2c-0.3,0-0.5-0.1-0.8-0.3c-0.4-0.4-0.4-1.1,0-1.5l2-2c0.4-0.4,1.1-0.4,1.5,0
		c0.4,0.4,0.4,1.1,0,1.5l-2,2C28.3,74.1,28,74.2,27.7,74.2z"/>
	<path fill="#231F20" d="M31.3,73.8c-0.3,0-0.5-0.1-0.8-0.3l-3.2-3.2c-0.4-0.4-0.4-1.1,0-1.5c0.4-0.4,1.1-0.4,1.5,0l3.2,3.2
		c0.4,0.4,0.4,1.1,0,1.5C31.9,73.7,31.6,73.8,31.3,73.8z"/>
	<path fill="#231F20" d="M39.1,65.9c-0.3,0-0.5-0.1-0.8-0.3l-3.2-3.2c-0.4-0.4-0.4-1.1,0-1.5c0.4-0.4,1.1-0.4,1.5,0l3.2,3.2
		c0.4,0.4,0.4,1.1,0,1.5C39.7,65.8,39.4,65.9,39.1,65.9z"/>
	<path fill="#231F20" d="M33.6,71.3c-0.6,0-1.1-0.5-1.1-1.1v-6c0-0.6,0.5-1.1,1.1-1.1c0.6,0,1.1,0.5,1.1,1.1v6
		C34.7,70.8,34.2,71.3,33.6,71.3z"/>
	<path fill="#231F20" d="M36.6,68.3h-6c-0.6,0-1.1-0.5-1.1-1.1c0-0.6,0.5-1.1,1.1-1.1h6c0.6,0,1.1,0.5,1.1,1.1
		C37.7,67.8,37.2,68.3,36.6,68.3z"/>
	<path fill="#231F20" d="M60.1,52.3c-3.1,0-6-1.2-8.2-3.4c-4.5-4.5-4.5-11.9,0-16.4c2.2-2.2,5.1-3.4,8.2-3.4s6,1.2,8.2,3.4
		c4.5,4.5,4.5,11.9,0,16.4C66.1,51.1,63.2,52.3,60.1,52.3z M60.1,31.2c-2.5,0-4.9,1-6.7,2.8c-3.7,3.7-3.7,9.7,0,13.4
		c1.8,1.8,4.2,2.8,6.7,2.8c2.5,0,4.9-1,6.7-2.8l0,0c3.7-3.7,3.7-9.7,0-13.4C65,32.2,62.7,31.2,60.1,31.2z"/>
	<path fill="#231F20" d="M52.7,34.3c-0.3,0-0.5-0.1-0.8-0.3l-2.4-2.4c-0.4-0.4-0.4-1.1,0-1.5c0.4-0.4,1.1-0.4,1.5,0l2.4,2.4
		c0.4,0.4,0.4,1.1,0,1.5C53.2,34.2,53,34.3,52.7,34.3z"/>
	<path fill="#231F20" d="M70,51.6c-0.3,0-0.5-0.1-0.8-0.3l-2.4-2.4c-0.4-0.4-0.4-1.1,0-1.5c0.4-0.4,1.1-0.4,1.5,0l2.4,2.4
		c0.4,0.4,0.4,1.1,0,1.5C70.5,51.5,70.3,51.6,70,51.6z"/>
	<path fill="#231F20" d="M49.6,41.7h-3.4c-0.6,0-1.1-0.5-1.1-1.1c0-0.6,0.5-1.1,1.1-1.1h3.4c0.6,0,1.1,0.5,1.1,1.1
		C50.7,41.3,50.2,41.7,49.6,41.7z"/>
	<path fill="#231F20" d="M74.1,41.7h-3.4c-0.6,0-1.1-0.5-1.1-1.1c0-0.6,0.5-1.1,1.1-1.1h3.4c0.6,0,1.1,0.5,1.1,1.1
		C75.1,41.3,74.6,41.7,74.1,41.7z"/>
	<path fill="#231F20" d="M60.1,55.7c-0.6,0-1.1-0.5-1.1-1.1v-3.4c0-0.6,0.5-1.1,1.1-1.1c0.6,0,1.1,0.5,1.1,1.1v3.4
		C61.2,55.2,60.7,55.7,60.1,55.7z"/>
	<path fill="#231F20" d="M60.1,31.2c-0.6,0-1.1-0.5-1.1-1.1v-3.4c0-0.6,0.5-1.1,1.1-1.1c0.6,0,1.1,0.5,1.1,1.1v3.4
		C61.2,30.7,60.7,31.2,60.1,31.2z"/>
	<path fill="#231F20" d="M67.6,34.3c-0.3,0-0.5-0.1-0.8-0.3c-0.4-0.4-0.4-1.1,0-1.5l2.4-2.4c0.4-0.4,1.1-0.4,1.5,0
		c0.4,0.4,0.4,1.1,0,1.5L68.3,34C68.1,34.2,67.9,34.3,67.6,34.3z"/>
</g>
</svg>
