<?xml version="1.0" encoding="utf-8"?>
<!-- Generator: Adobe Illustrator 19.2.1, SVG Export Plug-In . SVG Version: 6.00 Build 0)  -->
<svg version="1.1" id="Layer_1" xmlns="http://www.w3.org/2000/svg" xmlns:xlink="http://www.w3.org/1999/xlink" x="0px" y="0px"
	 viewBox="0 0 100 100" enable-background="new 0 0 100 100" xml:space="preserve">
<g>
	<path fill="#231F20" d="M38.9,62.2c-0.3,0-0.5-0.1-0.8-0.3c-0.4-0.4-0.4-1.1,0-1.5l9.5-9.5c0.4-0.4,1.1-0.4,1.5,0
		c0.4,0.4,0.4,1.1,0,1.5l-9.5,9.5C39.5,62.1,39.2,62.2,38.9,62.2z"/>
	<path fill="#231F20" d="M32.7,71.7c-0.3,0-0.5-0.1-0.8-0.3l-3.2-3.2c-0.4-0.4-0.4-1.1,0-1.5c0.4-0.4,1.1-0.4,1.5,0l3.2,3.2
		c0.4,0.4,0.4,1.1,0,1.5C33.2,71.6,33,71.7,32.7,71.7z"/>
	<path fill="#231F20" d="M40.5,63.8c-0.3,0-0.5-0.1-0.8-0.3l-3.2-3.2c-0.4-0.4-0.4-1.1,0-1.5c0.4-0.4,1.1-0.4,1.5,0l3.2,3.2
		c0.4,0.4,0.4,1.1,0,1.5C41.1,63.7,40.8,63.8,40.5,63.8z"/>
	<path fill="#231F20" d="M35,69.2c-0.6,0-1.1-0.5-1.1-1.1v-6c0-0.6,0.5-1.1,1.1-1.1s1.1,0.5,1.1,1.1v6C36.1,68.7,35.6,69.2,35,69.2z
		"/>
	<path fill="#231F20" d="M38,66.1h-6c-0.6,0-1.1-0.5-1.1-1.1c0-0.6,0.5-1.1,1.1-1.1h6c0.6,0,1.1,0.5,1.1,1.1
		C39.1,65.7,38.6,66.1,38,66.1z"/>
	<path fill="#231F20" d="M29.1,72c-0.3,0-0.5-0.1-0.8-0.3c-0.4-0.4-0.4-1.1,0-1.5l2-2c0.4-0.4,1.1-0.4,1.5,0c0.4,0.4,0.4,1.1,0,1.5
		l-2,2C29.6,71.9,29.4,72,29.1,72z"/>
	<path fill="#231F20" d="M61.6,32.2c-0.3,0-0.5-0.1-0.8-0.3l-1.6-1.6c-0.4-0.4-0.4-1.1,0-1.5c0.4-0.4,1.1-0.4,1.5,0l1.6,1.6
		c0.4,0.4,0.4,1.1,0,1.5C62.2,32.1,61.9,32.2,61.6,32.2z"/>
	<path fill="#231F20" d="M68.8,32.3c-0.3,0-0.5-0.1-0.8-0.3c-0.4-0.4-0.4-1.1,0-1.5l2.4-2.4c0.4-0.4,1.1-0.4,1.5,0
		c0.4,0.4,0.4,1.1,0,1.5L69.5,32C69.3,32.2,69.1,32.3,68.8,32.3z"/>
	<path fill="#231F20" d="M70.7,41c-0.3,0-0.5-0.1-0.8-0.3L68.3,39c-0.4-0.4-0.4-1.1,0-1.5c0.4-0.4,1.1-0.4,1.5,0l1.6,1.6
		c0.4,0.4,0.4,1.1,0,1.5C71.3,40.9,71,41,70.7,41z"/>
	<path fill="#231F20" d="M55.1,38.8c-0.3,0-0.5-0.1-0.8-0.3l-2.4-2.4c-0.4-0.4-0.4-1.1,0-1.5c0.4-0.4,1.1-0.4,1.5,0l2.4,2.4
		c0.4,0.4,0.4,1.1,0,1.5C55.6,38.7,55.3,38.8,55.1,38.8z"/>
	<path fill="#231F20" d="M64.9,48.3c-0.3,0-0.5-0.1-0.8-0.3l-2.4-2.4c-0.4-0.4-0.4-1.1,0-1.5c0.4-0.4,1.1-0.4,1.5,0l2.4,2.4
		c0.4,0.4,0.4,1.1,0,1.5C65.5,48.2,65.2,48.3,64.9,48.3z"/>
	<path fill="#231F20" d="M48.5,45.3c-0.3,0-0.5-0.1-0.8-0.3l-1.6-1.6c-0.4-0.4-0.4-1.1,0-1.5c0.4-0.4,1.1-0.4,1.5,0l1.6,1.6
		c0.4,0.4,0.4,1.1,0,1.5C49,45.2,48.8,45.3,48.5,45.3z"/>
	<path fill="#231F20" d="M57.6,54.1c-0.3,0-0.5-0.1-0.8-0.3l-1.6-1.6c-0.4-0.4-0.4-1.1,0-1.5c0.4-0.4,1.1-0.4,1.5,0l1.6,1.6
		c0.4,0.4,0.4,1.1,0,1.5C58.2,54,57.9,54.1,57.6,54.1z"/>
	<path fill="#231F20" d="M52.5,53.8c-1.6,0-3.2-0.6-4.4-1.8v0c-2.4-2.4-2.4-6.4,0-8.8l12.6-12.6c1.2-1.2,2.7-1.8,4.4-1.8
		c1.7,0,3.2,0.6,4.4,1.8c2.4,2.4,2.4,6.4,0,8.8L56.9,51.9C55.7,53.2,54.1,53.8,52.5,53.8z M49.6,50.4c1.6,1.6,4.2,1.6,5.8,0L68,37.8
		c1.6-1.6,1.6-4.2,0-5.8c-1.5-1.5-4.2-1.5-5.8,0L49.6,44.6C48,46.2,48,48.8,49.6,50.4L49.6,50.4z"/>
</g>
</svg>
