<?xml version="1.0" encoding="utf-8"?>
<!-- Generator: Adobe Illustrator 19.2.1, SVG Export Plug-In . SVG Version: 6.00 Build 0)  -->
<svg version="1.1" id="Layer_1" xmlns="http://www.w3.org/2000/svg" xmlns:xlink="http://www.w3.org/1999/xlink" x="0px" y="0px"
	 viewBox="0 0 100 100" enable-background="new 0 0 100 100" xml:space="preserve">
<g>
	<path fill="#231F20" d="M21.3,66.9c-0.3,0-0.5-0.1-0.8-0.3c-0.4-0.4-0.4-1.1,0-1.5l2-2c0.4-0.4,1.1-0.4,1.5,0
		c0.4,0.4,0.4,1.1,0,1.5l-2,2C21.9,66.8,21.6,66.9,21.3,66.9z"/>
	<path fill="#231F20" d="M24.9,66.5c-0.3,0-0.5-0.1-0.8-0.3L20.9,63c-0.4-0.4-0.4-1.1,0-1.5c0.4-0.4,1.1-0.4,1.5,0l3.2,3.2
		c0.4,0.4,0.4,1.1,0,1.5C25.4,66.4,25.2,66.5,24.9,66.5z"/>
	<path fill="#231F20" d="M32.7,58.7c-0.3,0-0.5-0.1-0.8-0.3l-3.2-3.2c-0.4-0.4-0.4-1.1,0-1.5c0.4-0.4,1.1-0.4,1.5,0l3.2,3.2
		c0.4,0.4,0.4,1.1,0,1.5C33.3,58.6,33,58.7,32.7,58.7z"/>
	<path fill="#231F20" d="M47.5,43.9c-0.3,0-0.5-0.1-0.8-0.3l-3.2-3.2c-0.4-0.4-0.4-1.1,0-1.5c0.4-0.4,1.1-0.4,1.5,0l3.2,3.2
		c0.4,0.4,0.4,1.1,0,1.5C48.1,43.8,47.8,43.9,47.5,43.9z"/>
	<path fill="#231F20" d="M27.2,64c-0.6,0-1.1-0.5-1.1-1.1v-6c0-0.6,0.5-1.1,1.1-1.1c0.6,0,1.1,0.5,1.1,1.1v6
		C28.3,63.5,27.8,64,27.2,64z"/>
	<path fill="#231F20" d="M30.2,61h-6c-0.6,0-1.1-0.5-1.1-1.1c0-0.6,0.5-1.1,1.1-1.1h6c0.6,0,1.1,0.5,1.1,1.1
		C31.3,60.5,30.8,61,30.2,61z"/>
	<g>
		<path fill="#231F20" d="M65,62.9c-3,0-5.9-1.1-8.2-3.4c-4.5-4.5-4.5-11.9,0-16.4c4.5-4.5,11.9-4.5,16.4,0c4.5,4.5,4.5,11.9,0,16.4
			C70.9,61.8,68,62.9,65,62.9z M65,41.9c-2.4,0-4.8,0.9-6.7,2.8c-3.7,3.7-3.7,9.7,0,13.4c3.7,3.7,9.7,3.7,13.4,0
			c3.7-3.7,3.7-9.7,0-13.4C69.8,42.8,67.4,41.9,65,41.9z"/>
		<path fill="#231F20" d="M57.6,44.9c-0.3,0-0.5-0.1-0.8-0.3l-2.4-2.4c-0.4-0.4-0.4-1.1,0-1.5c0.4-0.4,1.1-0.4,1.5,0l2.4,2.4
			c0.4,0.4,0.4,1.1,0,1.5C58.1,44.8,57.8,44.9,57.6,44.9z"/>
		<path fill="#231F20" d="M74.8,62.2c-0.3,0-0.5-0.1-0.8-0.3l-2.4-2.4c-0.4-0.4-0.4-1.1,0-1.5c0.4-0.4,1.1-0.4,1.5,0l2.4,2.4
			c0.4,0.4,0.4,1.1,0,1.5C75.4,62.1,75.1,62.2,74.8,62.2z"/>
		<path fill="#231F20" d="M54.5,52.4h-3.4c-0.6,0-1.1-0.5-1.1-1.1c0-0.6,0.5-1.1,1.1-1.1h3.4c0.6,0,1.1,0.5,1.1,1.1
			C55.5,51.9,55.1,52.4,54.5,52.4z"/>
		<path fill="#231F20" d="M78.9,52.4h-3.4c-0.6,0-1.1-0.5-1.1-1.1c0-0.6,0.5-1.1,1.1-1.1h3.4c0.6,0,1.1,0.5,1.1,1.1
			C80,51.9,79.5,52.4,78.9,52.4z"/>
		<path fill="#231F20" d="M65,66.3c-0.6,0-1.1-0.5-1.1-1.1v-3.4c0-0.6,0.5-1.1,1.1-1.1c0.6,0,1.1,0.5,1.1,1.1v3.4
			C66.1,65.8,65.6,66.3,65,66.3z"/>
		<path fill="#231F20" d="M64.8,41.2c-0.5,0-0.9-0.3-1-0.8c-0.3-0.9-0.7-1.8-1.3-2.5c-0.4-0.5-0.3-1.1,0.2-1.5
			c0.5-0.4,1.1-0.3,1.5,0.2c0.7,0.9,1.3,2,1.6,3.2c0.2,0.6-0.2,1.2-0.7,1.3C65,41.2,64.9,41.2,64.8,41.2z M48.8,39.5
			c-0.3,0-0.5-0.1-0.8-0.3c-0.4-0.4-0.4-1.1,0-1.5l1.9-1.9c0.1-0.1,0.3-0.3,0.4-0.4c0.4-0.4,1.1-0.3,1.5,0.1
			c0.4,0.4,0.3,1.1-0.1,1.5c-0.1,0.1-0.2,0.2-0.3,0.3l-1.9,1.9C49.3,39.4,49,39.5,48.8,39.5z M59,35.4c-0.1,0-0.2,0-0.3,0
			c-0.9-0.3-1.8-0.4-2.8-0.3c-0.6,0.1-1.1-0.4-1.2-1c-0.1-0.6,0.4-1.1,1-1.2c1.2-0.1,2.4,0,3.6,0.3c0.6,0.2,0.9,0.8,0.7,1.3
			C59.9,35.1,59.5,35.4,59,35.4z"/>
		<path fill="#231F20" d="M31.1,57.1c-0.3,0-0.5-0.1-0.8-0.3c-0.4-0.4-0.4-1.1,0-1.5l14.8-14.8c0.4-0.4,1.1-0.4,1.5,0
			c0.4,0.4,0.4,1.1,0,1.5L31.9,56.8C31.7,57,31.4,57.1,31.1,57.1z"/>
		<path fill="#231F20" d="M72.4,44.9c-0.3,0-0.5-0.1-0.8-0.3c-0.4-0.4-0.4-1.1,0-1.5l2.4-2.4c0.4-0.4,1.1-0.4,1.5,0
			c0.4,0.4,0.4,1.1,0,1.5l-2.4,2.4C73,44.8,72.7,44.9,72.4,44.9z"/>
		<path fill="#231F20" d="M54.8,62.6c-0.3,0-0.5-0.1-0.8-0.3c-0.4-0.4-0.4-1.1,0-1.5l2.4-2.4c0.4-0.4,1.1-0.4,1.5,0
			c0.4,0.4,0.4,1.1,0,1.5l-2.4,2.4C55.3,62.5,55,62.6,54.8,62.6z"/>
	</g>
</g>
</svg>
