<?xml version="1.0" encoding="utf-8"?>
<!-- Generator: Adobe Illustrator 19.1.0, SVG Export Plug-In . SVG Version: 6.00 Build 0)  -->
<svg version="1.1" id="Layer_1" xmlns="http://www.w3.org/2000/svg" xmlns:xlink="http://www.w3.org/1999/xlink" x="0px" y="0px"
	 viewBox="0 0 100 100" style="enable-background:new 0 0 100 100;" xml:space="preserve">
<style type="text/css">
	.st0{fill:#FFD113;}
	.st1{fill:#231F20;}
	.st2{fill:#EE3F24;}
	.st3{fill:#FFD111;}
	.st4{fill:#FCD10F;}
	.st5{fill:#39B44A;}
	.st6{fill:#3CB44A;}
	.st7{fill:#7E51A0;}
	.st8{fill:#DCA3C9;}
	.st9{fill:#F6C8A0;}
	.st10{fill:#AED69A;}
	.st11{fill:#B68058;}
	.st12{fill:#7E52A0;}
</style>
<g>
	<path class="st1" d="M31.2,51.6c-3.1,0-5.5-1.4-6.5-3.8c-0.3-0.7,0-1.5,0.7-1.8c0.7-0.3,1.5,0,1.8,0.7c0.7,1.5,1.9,2.1,4.2,2.2h3
		c0.4,0,0.7,0.1,1,0.4c0.3,0.3,0.4,0.6,0.4,1c0,0.4-0.2,0.7-0.4,1c-0.3,0.3-0.6,0.4-1,0.4h-3H31.2z M25.4,43.1
		c-0.8,0-1.4-0.6-1.4-1.4c0-0.8,0.6-1.4,1.4-1.4c0.8,0,1.4,0.6,1.4,1.4C26.8,42.5,26.1,43.1,25.4,43.1z M25.4,39
		c-0.8,0-1.4-0.6-1.4-1.4c0-0.8,0.6-1.4,1.4-1.4c0.8,0,1.4,0.6,1.4,1.4C26.8,38.4,26.1,39,25.4,39z M25.2,34.8
		c-0.7,0-1.3-0.5-1.4-1.2c-0.1-0.9-0.4-1.6-0.8-2c-0.4-0.4-0.8-0.7-1.8-0.7c-0.8,0-1.4-0.6-1.4-1.4c0-0.8,0.6-1.4,1.4-1.4l0.1,0
		c1.5,0,2.9,0.6,3.8,1.7c0.9,1.1,1.2,2.4,1.4,3.3v0c0.1,0.4,0,0.7-0.2,1c-0.2,0.3-0.5,0.5-0.9,0.6L25.2,34.8z"/>
	<path class="st1" d="M34.7,45.1h-1.8c-1.2,0-2.2-0.4-2.8-1.1c-0.7-0.8-0.8-1.8-0.8-2.5v-0.2c0-0.8,0.6-1.4,1.4-1.4
		c0.8,0,1.4,0.6,1.4,1.4v0.2c0,0.4,0.1,0.6,0.1,0.7c0,0,0.2,0.1,0.7,0.1h1.7c0.8,0,1.4,0.6,1.4,1.4C36.1,44.5,35.5,45.1,34.7,45.1z
		 M30.7,37.2c-0.8,0-1.4-0.6-1.4-1.4v0c0-0.7,0.6-1.4,1.4-1.4c0.8,0,1.4,0.6,1.4,1.4C32.1,36.6,31.5,37.2,30.7,37.2z"/>
	<path class="st1" d="M56.1,78.1h-0.1h-3c-0.4,0-0.7-0.2-1-0.4c-0.3-0.3-0.4-0.6-0.4-1c0-0.4,0.1-0.7,0.4-1c0.3-0.3,0.6-0.4,1-0.4h3
		c2.2,0,3.5-0.7,4.2-2.2c0.3-0.7,1.1-1,1.8-0.7c0.3,0.2,0.6,0.4,0.7,0.8c0.1,0.3,0.1,0.7,0,1.1C61.6,76.7,59.1,78.1,56.1,78.1z
		 M61.9,69.7c-0.8,0-1.4-0.6-1.4-1.4c0-0.8,0.6-1.4,1.4-1.4c0.8,0,1.4,0.6,1.4,1.4C63.3,69.1,62.7,69.7,61.9,69.7z M61.9,65.6
		c-0.8,0-1.4-0.6-1.4-1.4c0-0.8,0.6-1.4,1.4-1.4c0.8,0,1.4,0.6,1.4,1.4C63.3,65,62.7,65.6,61.9,65.6z M62.1,61.4l-0.2,0
		c-0.4-0.1-0.7-0.2-0.9-0.6c-0.2-0.3-0.3-0.7-0.2-1c0.2-1.4,0.7-2.5,1.4-3.3c0.9-1.1,2.3-1.7,3.8-1.7h0.1c0.8,0,1.4,0.6,1.4,1.4
		c0,0.8-0.6,1.4-1.4,1.4c-1,0-1.4,0.3-1.8,0.7c-0.4,0.4-0.6,1.1-0.8,2v0C63.3,60.9,62.7,61.4,62.1,61.4z"/>
	<path class="st1" d="M54.4,71.7h-1.8c-0.8,0-1.4-0.6-1.4-1.4s0.6-1.4,1.4-1.4h1.8c0.4,0,0.6-0.1,0.7-0.1l0,0c0,0,0.1-0.2,0.1-0.7
		l0-0.2c0-0.8,0.6-1.4,1.4-1.4c0.8,0,1.4,0.6,1.4,1.4v0.2c0,0.7-0.1,1.7-0.8,2.5C56.5,71.3,55.6,71.7,54.4,71.7z M56.5,63.8
		c-0.8,0-1.4-0.6-1.4-1.4l0,0c0-0.7,0.6-1.4,1.4-1.4c0.8,0,1.4,0.6,1.4,1.4v0C57.9,63.2,57.3,63.8,56.5,63.8z"/>
	<path class="st1" d="M48.8,60.1c-1.5,0-2.9-0.6-4-1.7l-2.6-2.6c-2.2-2.2-2.2-5.8,0-8l5.4-5.4c2.2-2.2,5.8-2.2,8,0l2.6,2.6
		c1.1,1.1,1.7,2.5,1.7,4c0,1.5-0.6,2.9-1.7,4l-5.4,5.4C51.7,59.5,50.3,60.1,48.8,60.1z M51.6,42.8c-0.9,0-1.8,0.3-2.5,1l-5.4,5.4
		c-1.4,1.4-1.4,3.7,0,5.1l2.6,2.6c1.3,1.3,3.7,1.3,5.1,0l5.4-5.4c0.7-0.7,1-1.6,1-2.5c0-1-0.4-1.9-1-2.5l-2.6-2.6
		C53.4,43.2,52.5,42.8,51.6,42.8z"/>
	<path class="st1" d="M35.3,73.6c-1.5,0-2.9-0.6-4-1.7l-2.6-2.6c-2.2-2.2-2.2-5.8,0-8l5.4-5.4c1.1-1.1,2.5-1.7,4-1.7
		c1.5,0,2.9,0.6,4,1.7l2.6,2.6c1.1,1.1,1.7,2.5,1.7,4c0,1.5-0.6,2.9-1.7,4l-5.4,5.4C38.2,73,36.8,73.6,35.3,73.6z M38.1,56.3
		c-1,0-1.9,0.4-2.5,1l-5.4,5.4c-1.4,1.4-1.4,3.7,0,5.1l2.6,2.6c1.3,1.3,3.7,1.3,5.1,0l5.4-5.4c0.7-0.7,1-1.6,1-2.5s-0.4-1.9-1-2.5
		l-2.6-2.6C39.9,56.7,39,56.3,38.1,56.3z"/>
	<path class="st1" d="M70.3,34.7c-0.2,0-0.5-0.1-0.7-0.2c-0.4-0.4-0.5-1-0.1-1.5c2.3-2.7,3.3-5.1,3-7.2c-0.1-0.5-0.2-0.9-0.3-1.3
		c-1.1,2.9-3.8,4.5-5.6,5.5c-0.3,0.2-0.6,0.3-0.8,0.5c-0.5,0.3-1.1,0.2-1.4-0.3c-0.3-0.5-0.2-1.1,0.3-1.4c0.3-0.2,0.5-0.3,0.9-0.5
		c2-1.1,5-2.8,5-6.2c0-0.4,0.2-0.7,0.6-0.9c0.3-0.2,0.8-0.1,1.1,0.1c0.1,0.1,2,1.5,2.3,4.4c0.3,2.7-0.9,5.7-3.5,8.8
		C70.9,34.6,70.6,34.7,70.3,34.7z"/>
	<path class="st1" d="M61.9,46.1c-1.7,0-3.5-0.8-5.1-2.4c-3.1-3.1-3.2-6.8-0.2-9.8c0.3-0.3,0.5-0.5,0.8-0.7c0.6-0.5,1.4-1.3,1.6-2.5
		c0.7-3.7-1.5-7.2-5.1-8.1c-0.5-0.1-0.8-0.5-0.8-1c0-0.5,0.4-0.9,0.8-1c0.1,0,10.5-2.1,14.2,7.4c0.2,0.5,0,1.1-0.6,1.3
		c-0.5,0.2-1.1,0-1.3-0.6c-1.8-4.5-5.4-5.9-8.1-6.2c2.4,2,3.6,5.3,2.9,8.5c-0.3,1.5-1.1,2.8-2.4,3.8c-0.2,0.2-0.4,0.4-0.6,0.6
		c-2.8,2.8-1.4,5.3,0.2,6.9c1.6,1.6,4.1,3,6.9,0.2c0.4-0.4,0.7-0.8,1-1.3c1.7-2.7,4.7-4,7.7-3.4l0.4,0.1c2.1,0.4,3.9,1.5,5.2,3.1
		c-0.2-1.8-0.8-3.6-2-5c-1.5-1.7-3.5-2.3-6.2-2c-0.6,0.1-1.1-0.3-1.2-0.9c-0.1-0.6,0.3-1.1,0.9-1.2c4.2-0.5,6.7,1.2,8,2.7
		c2.5,2.9,3,7.4,2.3,10.5c-0.1,0.5-0.5,0.8-1,0.8h0h0h0h0h0h0l-0.3,0c-0.3-0.1-0.6-0.4-0.7-0.7c-0.6-2.6-2.7-4.6-5.4-5.2l-0.4-0.1
		c-2.1-0.4-4.3,0.6-5.5,2.5c-0.4,0.6-0.8,1.1-1.3,1.6C65.2,45.4,63.6,46.1,61.9,46.1z"/>
	<path class="st1" d="M19.9,82c-0.4,0-0.7-0.1-1-0.4c-0.5-0.5-0.5-1.4,0-2l9.6-9.6c0.5-0.5,1.4-0.5,2,0c0.5,0.5,0.5,1.4,0,2
		l-9.6,9.6C20.6,81.9,20.3,82,19.9,82z"/>
	<path class="st3" d="M50.2,54.8c-0.8,0-1.4-0.6-1.4-1.4v-5.9c0-0.8,0.6-1.4,1.4-1.4c0.8,0,1.4,0.6,1.4,1.4v5.9
		C51.5,54.2,50.9,54.8,50.2,54.8z"/>
	<path class="st3" d="M36.7,68.3c-0.8,0-1.4-0.6-1.4-1.4V61c0-0.8,0.6-1.4,1.4-1.4s1.4,0.6,1.4,1.4v5.9
		C38.1,67.7,37.5,68.3,36.7,68.3z"/>
	<path class="st3" d="M62.1,41.9L62.1,41.9c-1.2,0-2.1-0.5-2.9-1.4l-0.1-0.1c-0.5-0.6-0.3-1.5,0.3-1.9c0.6-0.4,1.5-0.3,1.9,0.3l0,0
		l0,0l0.2,0.2c0.2,0.1,0.3,0.2,0.5,0.2c0.2,0,0.5,0,1.3-0.8c0.5-0.5,1.4-0.6,1.9-0.1c0.3,0.2,0.4,0.6,0.4,1c0,0.4-0.1,0.7-0.4,1
		C64.4,41.3,63.2,41.9,62.1,41.9z"/>
</g>
</svg>
