<?xml version="1.0" encoding="utf-8"?>
<!-- Generator: Adobe Illustrator 19.1.0, SVG Export Plug-In . SVG Version: 6.00 Build 0)  -->
<svg version="1.1" id="Layer_1" xmlns="http://www.w3.org/2000/svg" xmlns:xlink="http://www.w3.org/1999/xlink" x="0px" y="0px"
	 viewBox="0 0 100 100" style="enable-background:new 0 0 100 100;" xml:space="preserve">
<style type="text/css">
	.st0{fill:#FFD113;}
	.st1{fill:#231F20;}
	.st2{fill:#EE3F24;}
	.st3{fill:#FFD111;}
	.st4{fill:#FCD10F;}
	.st5{fill:#39B44A;}
	.st6{fill:#3CB44A;}
	.st7{fill:#7E51A0;}
	.st8{fill:#DCA3C9;}
	.st9{fill:#F6C8A0;}
	.st10{fill:#AED69A;}
	.st11{fill:#B68058;}
	.st12{fill:#7E52A0;}
</style>
<g>
	<path class="st1" d="M50.1,88.5c-0.8,0-1.4-0.6-1.4-1.4V74.5c0-0.8,0.6-1.4,1.4-1.4s1.4,0.6,1.4,1.4v12.7
		C51.5,87.9,50.9,88.5,50.1,88.5z"/>
	<path class="st12" d="M50.3,74.9L50.3,74.9c-2.4,0-4.9-0.5-7.1-1.5c-0.3-0.2-0.6-0.4-0.7-0.8c-0.1-0.3-0.1-0.7,0-1.1
		c0.3-0.7,1.1-1,1.8-0.7c4.3,1.9,9.1,1.7,13.3-0.7c0.6-0.4,1.5-0.1,1.9,0.5c0.4,0.7,0.2,1.5-0.5,1.9C56.3,74.1,53.4,74.9,50.3,74.9z
		 M40.2,71.4c-0.3,0-0.6-0.1-0.8-0.3c-0.3-0.2-0.5-0.6-0.5-0.9c-0.1-0.4,0-0.7,0.3-1c0.4-0.6,1.4-0.7,1.9-0.3l0,0
		c0.3,0.2,0.5,0.5,0.5,0.9c0.1,0.4,0,0.7-0.3,1C41.1,71.2,40.7,71.4,40.2,71.4z M35.8,70c-0.6,0-1.2-0.4-1.3-1
		c-0.1-0.3-0.1-0.7,0.1-1.1c0.2-0.3,0.5-0.6,0.8-0.6c0.7-0.2,1.5,0.2,1.7,1c0.2,0.7-0.2,1.5-1,1.7C36.1,70,35.9,70,35.8,70z
		 M67.9,69.9c-0.6,0-1.1-0.4-1.3-1c-0.1-0.3-0.1-0.7,0.1-1c0.2-0.3,0.5-0.6,0.8-0.7c0.7-0.2,1.5,0.2,1.7,0.9c0.1,0.3,0.1,0.7-0.1,1
		c-0.2,0.3-0.5,0.6-0.8,0.7v0C68.2,69.9,68,69.9,67.9,69.9z M62.7,69.4c-0.4,0-0.7-0.2-1-0.4c-0.3-0.2-0.4-0.6-0.4-1s0.1-0.7,0.4-1
		c0.5-0.5,1.4-0.5,2,0c0.3,0.3,0.4,0.6,0.4,1c0,0.4-0.1,0.7-0.4,1C63.5,69.2,63.1,69.4,62.7,69.4z M30.7,68.6c-0.4,0-0.7-0.1-1-0.4
		c-1.3-1.3-2-2.9-2-4.7c0-0.5,0.1-1,0.2-1.6c-2.5-1.1-4.6-2.9-6-5.3c-0.2-0.3-0.2-0.7-0.2-1.1c0.1-0.4,0.3-0.6,0.6-0.8
		c0.6-0.4,1.5-0.1,1.9,0.5c1.2,2.2,3.3,3.8,5.7,4.5c0.4,0.1,0.7,0.4,0.9,0.8c0.2,0.4,0.2,0.8,0,1.2c-0.3,0.6-0.4,1.2-0.4,1.8
		c0,1.1,0.4,2,1.1,2.8c0.3,0.2,0.4,0.6,0.4,1s-0.1,0.7-0.4,1C31.4,68.5,31.1,68.6,30.7,68.6z M71,67.4c-0.2,0-0.4-0.1-0.6-0.2
		c-0.3-0.2-0.6-0.5-0.7-0.8c-0.1-0.3-0.1-0.7,0.1-1.1c0.3-0.6,0.4-1.2,0.4-1.8c0-0.6-0.1-1.2-0.4-1.8c-0.2-0.4-0.2-0.8,0-1.2
		c0.2-0.4,0.5-0.7,0.9-0.8c2.9-0.8,5.3-3,6.4-5.8c0.3-0.7,1.1-1.1,1.8-0.8c0.7,0.3,1,1.1,0.8,1.8c-1.2,3.1-3.7,5.6-6.8,6.9
		c0.1,0.5,0.2,1.1,0.2,1.6c0,1.1-0.3,2.2-0.8,3.1C72,67.1,71.5,67.4,71,67.4z M21.8,53.5c-0.7,0-1.3-0.5-1.4-1.2
		c-0.1-0.4,0-0.7,0.2-1c0.2-0.3,0.5-0.5,0.9-0.5c0.7-0.1,1.5,0.4,1.6,1.2v0c0,0.4,0,0.7-0.3,1c-0.2,0.3-0.5,0.5-0.9,0.5L21.8,53.5z
		 M79,51.8c-0.8,0-1.4-0.6-1.4-1.4c0-2.2-0.7-4.4-2.2-6.1c-0.4-0.5-0.4-1.1-0.1-1.6c0.6-0.9,0.9-1.9,0.9-2.9c0-1-0.3-2-0.9-2.8
		c-0.2-0.3-0.3-0.7-0.2-1c0.1-0.4,0.3-0.7,0.6-0.9c0.6-0.4,1.5-0.2,1.9,0.4c0.9,1.3,1.3,2.8,1.3,4.4c0,1.2-0.3,2.4-0.8,3.5
		c1.4,2.1,2.2,4.5,2.2,7l0,0C80.4,51.2,79.8,51.8,79,51.8z M22.3,48c-0.2,0-0.3,0-0.5-0.1c-0.3-0.1-0.6-0.4-0.8-0.7
		c-0.2-0.3-0.2-0.7,0-1c0.2-0.7,1.1-1.1,1.8-0.8c0.7,0.3,1.1,1.1,0.8,1.8l0,0C23.4,47.7,22.9,48,22.3,48z M23.4,43.2
		c-0.6,0-1.1-0.4-1.3-1c-0.3-0.8-0.4-1.6-0.4-2.4c0-2.8,1.5-5.4,4-6.9c-0.5-1-0.8-2.2-0.8-3.3c0-0.2,0-0.5,0-0.7
		c0.1-0.8,0.7-1.3,1.5-1.2c0.4,0,0.7,0.2,0.9,0.5c0.2,0.3,0.3,0.6,0.3,1c0,0.2,0,0.3,0,0.5c0,1.1,0.4,2.1,1.1,3
		c0.3,0.4,0.4,0.8,0.3,1.3c-0.1,0.4-0.5,0.8-0.9,0.9c-2.2,0.7-3.7,2.7-3.7,5c0,0.5,0.1,1.1,0.2,1.6c0.2,0.7-0.2,1.5-0.9,1.7
		C23.6,43.2,23.5,43.2,23.4,43.2z M73.7,34.1c-0.2,0-0.5-0.1-0.7-0.2c-0.3-0.2-0.5-0.5-0.6-0.8c-0.1-0.4,0-0.7,0.2-1v0
		c0.4-0.6,1.3-0.9,1.9-0.5c0.7,0.4,0.9,1.2,0.5,1.9C74.6,33.8,74.1,34.1,73.7,34.1z M74.1,28.7c-0.6,0-1.1-0.3-1.3-0.9l0,0
		c-0.1-0.3-0.1-0.7,0-1c0.1-0.3,0.4-0.6,0.8-0.7c0.7-0.3,1.5,0.1,1.8,0.8c0.3,0.7-0.1,1.5-0.8,1.8C74.4,28.7,74.3,28.7,74.1,28.7z
		 M27.9,26.7c-0.4,0-0.7-0.1-1-0.4c-0.5-0.5-0.6-1.4,0-1.9l0,0c0.5-0.5,1.4-0.5,1.9,0c0.3,0.2,0.4,0.6,0.4,1c0,0.4-0.1,0.7-0.4,1
		C28.7,26.6,28.3,26.7,27.9,26.7z M71.4,25.7c-0.2,0-0.5-0.1-0.7-0.2c-0.7-0.4-1.5-0.6-2.3-0.6h0c-0.2,0-0.5,0-0.7,0.1
		c-0.5,0.1-1-0.1-1.3-0.5c-0.3-0.4-0.4-0.9-0.2-1.4s0.3-0.9,0.3-1.4c0-2-1.7-3.7-3.7-3.7c-0.3,0-0.6,0-0.9,0.1
		c-0.7,0.2-1.5-0.3-1.7-1c-0.1-0.3,0-0.7,0.2-1c0.2-0.3,0.5-0.5,0.9-0.6c0.5-0.1,1-0.2,1.5-0.2c3.6,0,6.5,2.9,6.5,6.5
		c0,0.1,0,0.3,0,0.4c1,0.1,2,0.4,2.9,0.9l0,0c0.7,0.4,0.9,1.2,0.5,1.9C72.4,25.4,71.9,25.7,71.4,25.7z M33,24.9l-0.2,0
		c-0.7-0.1-1.3-0.8-1.2-1.6c0.1-0.7,0.8-1.3,1.6-1.2c0.7,0.1,1.3,0.8,1.2,1.6C34.2,24.4,33.7,24.9,33,24.9z M33.9,20
		c-0.3,0-0.6-0.1-0.8-0.3c-0.6-0.5-0.7-1.3-0.2-1.9c1.2-1.6,3.1-2.5,5.1-2.5c1.3,0,2.6,0.4,3.7,1.2c1.8-1.1,3.6-1.9,5.5-2.3
		c0.7-0.2,1.5,0.3,1.6,1.1c0.2,0.7-0.3,1.5-1,1.6c-1.8,0.4-3.6,1.2-5.4,2.5c-0.5,0.4-1.3,0.3-1.8-0.2C39.9,18.4,39,18,38,18
		c-1.2,0-2.2,0.5-2.9,1.5C34.8,19.8,34.4,20,33.9,20z M56.8,18.2c-0.2,0-0.4-0.1-0.6-0.2v0c-0.7-0.3-0.9-1.2-0.6-1.9
		c0.3-0.7,1.2-0.9,1.9-0.6c0.7,0.3,1,1.2,0.6,1.9C57.8,17.9,57.4,18.2,56.8,18.2z M51.6,16.5h-0.1c-0.7-0.1-1.3-0.7-1.2-1.5
		c0.1-0.8,0.7-1.3,1.5-1.2c0.4,0,0.7,0.2,0.9,0.5c0.2,0.3,0.3,0.6,0.3,1C52.9,16,52.3,16.5,51.6,16.5z"/>
	<path class="st12" d="M34.8,42.9L34.8,42.9l-0.2,0c-0.7-0.1-1.3-0.9-1.1-1.6l0,0c0.1-0.7,0.9-1.2,1.6-1.1c0.4,0.1,0.7,0.3,0.9,0.6
		c0.2,0.3,0.3,0.7,0.2,1v0C36.1,42.4,35.5,42.9,34.8,42.9z M37.4,38.1c-0.3,0-0.7-0.1-0.9-0.4c-0.3-0.3-0.4-0.6-0.4-1
		c0-0.4,0.1-0.7,0.4-1l0,0c0.5-0.5,1.4-0.6,1.9-0.1c0.6,0.5,0.6,1.4,0.1,1.9C38.1,37.9,37.8,38.1,37.4,38.1z M38.7,33.4
		c-0.5,0-1-0.3-1.2-0.7c-0.2-0.3-0.2-0.7-0.1-1c0.1-0.4,0.3-0.7,0.7-0.8c0.7-0.4,1.6-0.6,2.5-0.5c1.3-2.5,3.8-4,6.6-4
		c1.4,0,2.7,0.4,3.8,1.1c0.6-0.2,1.2-0.4,1.8-0.4c0.8,0,1.4,0.6,1.4,1.4c0,0.8-0.6,1.4-1.4,1.4c-0.4,0-0.8,0.1-1.2,0.4
		c-0.5,0.3-1.2,0.3-1.6-0.1c-0.8-0.6-1.8-1-2.9-1c-2,0-3.9,1.4-4.4,3.3c-0.1,0.4-0.4,0.7-0.8,0.9c-0.4,0.2-0.8,0.2-1.2,0
		c-0.5-0.2-0.9-0.2-1.4,0C39.2,33.3,38.9,33.4,38.7,33.4z"/>
	<path class="st12" d="M53,60.6c-1.4,0-2.7-0.4-3.8-1.1c-0.6,0.2-1.2,0.4-1.8,0.4c-0.8,0-1.4-0.6-1.4-1.4c0-0.8,0.6-1.4,1.4-1.4
		c0.4,0,0.8-0.1,1.2-0.4c0.5-0.3,1.2-0.3,1.6,0.1c1.9,1.5,4.7,1.3,6.3-0.5c0.5-0.5,1.4-0.6,1.9-0.1c0.6,0.5,0.6,1.4,0.1,2
		C57,59.8,55.1,60.6,53,60.6z M61.4,56.3c-0.5,0-1-0.3-1.2-0.7c-0.4-0.7-0.1-1.5,0.5-1.9c0.6-0.4,1.5-0.1,1.9,0.5
		c0.2,0.3,0.2,0.7,0.1,1c-0.1,0.3-0.3,0.6-0.7,0.8C61.9,56.2,61.6,56.3,61.4,56.3z M62.7,51.6c-0.4,0-0.7-0.1-0.9-0.4
		c-0.6-0.5-0.6-1.4-0.1-1.9c0.5-0.5,1.4-0.6,2-0.1c0.6,0.5,0.6,1.4,0.1,2C63.5,51.5,63.1,51.6,62.7,51.6z M64.9,48.1
		c-0.2,0-0.3,0-0.5-0.1c-0.3-0.1-0.6-0.4-0.8-0.7c-0.2-0.3-0.2-0.7-0.1-1.1c0.3-0.8,0.4-1.6,0.4-2.3c0-0.8,0.6-1.4,1.4-1.4
		s1.4,0.6,1.4,1.4c0,1.1-0.2,2.2-0.6,3.2v0C66,47.8,65.5,48.1,64.9,48.1z"/>
</g>
</svg>
