<?xml version="1.0" encoding="utf-8"?>
<!-- Generator: Adobe Illustrator 19.1.0, SVG Export Plug-In . SVG Version: 6.00 Build 0)  -->
<svg version="1.1" id="Layer_1" xmlns="http://www.w3.org/2000/svg" xmlns:xlink="http://www.w3.org/1999/xlink" x="0px" y="0px"
	 viewBox="0 0 100 100" style="enable-background:new 0 0 100 100;" xml:space="preserve">
<style type="text/css">
	.st0{fill:#FFD113;}
	.st1{fill:#231F20;}
	.st2{fill:#EE3F24;}
	.st3{fill:#FFD111;}
	.st4{fill:#FCD10F;}
	.st5{fill:#39B44A;}
	.st6{fill:#3CB44A;}
	.st7{fill:#7E51A0;}
	.st8{fill:#DCA3C9;}
	.st9{fill:#F6C8A0;}
	.st10{fill:#AED69A;}
	.st11{fill:#B68058;}
	.st12{fill:#7E52A0;}
</style>
<g>
	<path class="st1" d="M71.8,39.2h-0.2H67c-0.8,0-1.4-0.6-1.4-1.4c0-0.8,0.6-1.4,1.4-1.4h4.5c2.8-0.1,4.1-0.9,4.7-3
		c0.2-0.7,1-1.2,1.7-1c0.7,0.2,1.2,1,1,1.7C78.1,37.2,75.4,39.2,71.8,39.2z M77.8,29.6c-0.8,0-1.4-0.6-1.4-1.4
		c0-0.8,0.6-1.4,1.4-1.4c0.7,0,1.4,0.6,1.4,1.4v0C79.2,29,78.6,29.6,77.8,29.6z M77.8,25.5c-0.8,0-1.4-0.6-1.4-1.4
		c0-0.8,0.6-1.4,1.4-1.4c0.7,0,1.4,0.6,1.4,1.4v0C79.2,24.9,78.6,25.5,77.8,25.5z M78,21.3l-0.3,0c-0.7-0.2-1.2-0.9-1.1-1.6
		c0.3-2.5,2.2-5,5.4-4.9c0.8,0,1.4,0.6,1.4,1.4c0,0.8-0.6,1.4-1.4,1.4c-1.8,0.1-2.2,0.9-2.7,2.6v0C79.3,20.9,78.7,21.3,78,21.3z"/>
	<path class="st1" d="M66.9,32.4h-5.4c-0.8,0-1.4-0.6-1.4-1.4c0-0.8,0.6-1.4,1.4-1.4h5.3c1.4,0,1.9-0.3,2.1-0.6c0.3-0.3,0.5-1,0.5-2
		V21c0-0.8,0.6-1.4,1.4-1.4c0.8,0,1.4,0.6,1.4,1.4v6.1c0,1-0.1,2.6-1.1,3.7C70.2,31.9,68.7,32.4,66.9,32.4z M70.8,16.8
		c-0.8,0-1.4-0.6-1.4-1.4c0-0.8,0.6-1.4,1.4-1.4c0.8,0,1.4,0.6,1.4,1.4C72.2,16.2,71.6,16.8,70.8,16.8z"/>
	<path class="st1" d="M73.9,45.5c-0.8,0-1.4-0.6-1.4-1.4c0-0.8,0.6-1.4,1.4-1.4h5.9c0.3,0,0.6,0,0.8-0.1c0.7-0.1,1.5,0.4,1.6,1.2
		c0.1,0.4,0,0.7-0.3,1c-0.2,0.3-0.6,0.5-0.9,0.5c-0.4,0.1-0.7,0.1-1.2,0.1H73.9L73.9,45.5z M83.8,41.5c-0.8,0-1.4-0.6-1.4-1.4v-2.8
		c0-0.8,0.6-1.4,1.4-1.4c0.8,0,1.4,0.6,1.4,1.4v2.8C85.2,40.8,84.6,41.5,83.8,41.5z M83.8,34.5c-0.8,0-1.4-0.6-1.4-1.4
		c0-0.8,0.6-1.4,1.4-1.4c0.8,0,1.4,0.6,1.4,1.4C85.2,33.9,84.6,34.5,83.8,34.5z"/>
	<path class="st1" d="M66,68.5c-0.5,0-0.9-0.3-1-0.8L64.5,65c-2.7-13.2-13-23.5-26.2-26.2l-2.6-0.5c-0.5-0.1-0.9-0.6-0.8-1.2
		l0.7-4.8c0-0.3,0.2-0.5,0.4-0.7c0.2-0.2,0.5-0.2,0.8-0.2l6,1.2c14,2.9,25,13.8,27.9,27.9l1.2,6c0.1,0.3,0,0.6-0.2,0.8
		c-0.2,0.2-0.4,0.4-0.7,0.4l-4.8,0.7L66,68.5z M38.7,36.7c14,2.9,25,13.8,27.9,27.9l0.3,1.7l2.7-0.4l-1-4.9
		c-2.7-13.2-13-23.5-26.2-26.2l-4.9-1L37,36.4L38.7,36.7z"/>
	<path class="st1" d="M57.2,73.2c-0.3,0-0.5-0.1-0.7-0.3L30.3,46.8c-0.2-0.2-0.3-0.6-0.3-0.9l1.4-9.5c0-0.3,0.2-0.5,0.4-0.7
		c0.2-0.2,0.5-0.2,0.8-0.2l6,1.2c14,2.9,25,13.8,27.9,27.9l1.2,6c0.1,0.3,0,0.6-0.2,0.8c-0.2,0.2-0.4,0.4-0.7,0.4l-9.5,1.4
		L57.2,73.2z M32.1,45.7l25.4,25.4l7.9-1.2l-1-4.9c-2.7-13.2-13-23.5-26.2-26.2l-4.9-1L32.1,45.7z"/>
	<path class="st1" d="M17.2,87.3c-0.4,0-0.7-0.1-1-0.4c-0.4-0.4-0.5-0.9-0.3-1.4L28.1,44c0.1-0.5,0.5-0.8,1-0.9c0.5-0.1,1,0,1.3,0.4
		l29.3,29.3c0.3,0.3,0.5,0.8,0.4,1.3c-0.1,0.5-0.5,0.8-0.9,1L17.6,87.2C17.4,87.3,17.3,87.3,17.2,87.3z M30.1,47L19.2,83.9L56.1,73
		L30.1,47z"/>
	<path class="st3" d="M59,69c-0.5,0-0.9-0.4-1-0.8c-0.1-0.3,0-0.5,0.2-0.8c0.2-0.2,0.4-0.4,0.7-0.4l1.9-0.4c-0.2-0.6-0.4-1.3-0.7-2
		v0c-0.1-0.3-0.1-0.5,0-0.8c0.1-0.2,0.3-0.4,0.6-0.5c0.5-0.2,1.1,0.1,1.3,0.6c0.7,2,1,3.2,1,3.2c0.1,0.3,0,0.6-0.1,0.8
		c-0.2,0.2-0.4,0.4-0.7,0.5l-3,0.6L59,69z M59.5,61.4c-0.4,0-0.8-0.2-1-0.6c-0.1-0.2-0.1-0.5,0-0.8c0.1-0.2,0.3-0.5,0.5-0.6
		c0.5-0.2,1.1,0,1.4,0.5v0c0.2,0.5,0,1.1-0.5,1.4C59.7,61.4,59.6,61.4,59.5,61.4z M57.6,57.7c-0.4,0-0.7-0.2-0.9-0.5
		c-0.1-0.2-0.2-0.5-0.1-0.8c0.1-0.3,0.2-0.5,0.5-0.6c0.5-0.3,1.1-0.1,1.4,0.4c0.1,0.2,0.2,0.5,0.1,0.8c-0.1,0.3-0.3,0.5-0.5,0.6
		C58,57.6,57.8,57.7,57.6,57.7z M55.4,54.2c-0.3,0-0.7-0.2-0.9-0.5l-0.2-0.2l-0.1-0.2c-3.5-4.9-7.3-7.1-8.7-7.8
		c-0.5-0.3-0.8-0.3-0.8-0.3c-0.3-0.1-0.5-0.3-0.6-0.5c-0.1-0.2-0.1-0.5,0-0.8c0.2-0.5,0.8-0.8,1.3-0.6c0.2,0.1,5.6,2.1,10.5,8.9
		l0.2,0.3l0.1,0.1c0.2,0.2,0.2,0.5,0.2,0.8c-0.1,0.3-0.2,0.5-0.4,0.7C55.9,54.1,55.7,54.2,55.4,54.2z"/>
</g>
</svg>
