<?xml version="1.0" encoding="utf-8"?>
<!-- Generator: Adobe Illustrator 19.1.0, SVG Export Plug-In . SVG Version: 6.00 Build 0)  -->
<svg version="1.1" id="Layer_1" xmlns="http://www.w3.org/2000/svg" xmlns:xlink="http://www.w3.org/1999/xlink" x="0px" y="0px"
	 viewBox="0 0 100 100" style="enable-background:new 0 0 100 100;" xml:space="preserve">
<style type="text/css">
	.st0{fill:#FFD113;}
	.st1{fill:#231F20;}
	.st2{fill:#EE3F24;}
	.st3{fill:#FFD111;}
	.st4{fill:#FCD10F;}
	.st5{fill:#39B44A;}
	.st6{fill:#3CB44A;}
	.st7{fill:#7E51A0;}
	.st8{fill:#DCA3C9;}
	.st9{fill:#F6C8A0;}
	.st10{fill:#AED69A;}
	.st11{fill:#B68058;}
	.st12{fill:#7E52A0;}
</style>
<g>
	<path class="st3" d="M53.4,60.6c-0.4,0-0.7-0.1-1-0.4L40.7,48.4c-0.3-0.3-0.4-0.6-0.4-1c0-0.4,0.1-0.7,0.4-1c0.5-0.5,1.4-0.5,1.9,0
		l11.7,11.7c0.5,0.5,0.5,1.4,0,2C54.1,60.4,53.8,60.6,53.4,60.6z M56.3,59.5c-0.4,0-0.7-0.2-1-0.4c-0.3-0.3-0.4-0.6-0.4-1
		s0.1-0.7,0.4-1c0.5-0.5,1.4-0.5,1.9,0c0.5,0.5,0.5,1.4,0,2C57,59.4,56.7,59.5,56.3,59.5z M59.2,56.6c-0.4,0-0.7-0.2-1-0.4
		c-0.3-0.2-0.4-0.6-0.4-1c0-0.4,0.2-0.7,0.4-1c0.5-0.5,1.4-0.5,1.9,0c0.3,0.3,0.4,0.6,0.4,1c0,0.4-0.1,0.7-0.4,1
		C60,56.5,59.6,56.6,59.2,56.6z M62.2,53.7c-0.4,0-0.7-0.2-1-0.4c-0.5-0.5-0.5-1.4,0-1.9l11.7-11.7c0.5-0.5,1.4-0.5,2,0
		c0.3,0.3,0.4,0.6,0.4,1s-0.1,0.7-0.4,1L63.2,53.3C62.9,53.5,62.5,53.7,62.2,53.7z M76.8,39c-0.4,0-0.7-0.1-1-0.4
		c-0.5-0.5-0.5-1.4,0-2c0.5-0.5,1.4-0.5,2,0c0.5,0.5,0.5,1.4,0,2C77.6,38.9,77.2,39,76.8,39z M79.8,36.1c-0.4,0-0.7-0.2-1-0.4
		c-0.3-0.2-0.4-0.6-0.4-1c0-0.4,0.2-0.7,0.4-1c0.5-0.5,1.4-0.5,1.9,0c0.3,0.3,0.4,0.6,0.4,1c0,0.4-0.1,0.7-0.4,1
		C80.5,35.9,80.1,36.1,79.8,36.1z M56.9,33.5c-0.4,0-0.7-0.2-1-0.4c-0.5-0.5-0.5-1.4,0-2l9.1-9.1c0.5-0.5,1.4-0.5,1.9,0
		c0.3,0.3,0.4,0.6,0.4,1c0,0.4-0.2,0.7-0.4,1l-9.1,9.1C57.7,33.4,57.3,33.5,56.9,33.5z M82.7,33.2c-0.4,0-0.7-0.2-1-0.4
		c-0.5-0.6-0.5-1.4,0-2l0.9-1L73.8,21c-0.3-0.3-0.4-0.6-0.4-1s0.2-0.7,0.4-1c0.5-0.5,1.4-0.5,2,0l9.8,9.8c0.3,0.3,0.4,0.6,0.4,1
		c0,0.4-0.1,0.7-0.4,1l-1.9,1.9l0,0C83.4,33,83.1,33.2,82.7,33.2z M69,21.5c-0.4,0-0.7-0.1-1-0.4c-0.5-0.5-0.5-1.4,0-1.9
		c0.5-0.5,1.4-0.5,1.9,0c0.3,0.3,0.4,0.6,0.4,1c0,0.4-0.2,0.7-0.4,1C69.7,21.4,69.3,21.5,69,21.5z M71.9,18.6c-0.4,0-0.7-0.1-1-0.4
		c-0.3-0.3-0.4-0.6-0.4-1s0.1-0.7,0.4-1c0.5-0.5,1.4-0.5,2,0c0.3,0.2,0.4,0.6,0.4,1s-0.1,0.7-0.4,1C72.6,18.5,72.3,18.6,71.9,18.6z"
		/>
	<path class="st3" d="M83.8,50.7c-2.5,0-2.5-2.2-2.5-2.9l0-0.4c0-0.9,0-2.7-0.5-3.2c-0.1-0.1-0.3-0.2-0.5-0.2c-1.9,0-4-0.5-4-4V37
		c0-0.4,0.3-0.7,0.7-0.7c0.4,0,0.7,0.3,0.7,0.7V40c0,2.2,0.8,2.6,2.6,2.6c0.6,0,1.1,0.2,1.4,0.6c1,1,1,2.9,0.9,4.2l0,0.4
		c0,1.4,0.4,1.5,1.1,1.5c0.2,0,0.3,0,0.3-0.1c0.2-0.2,0.2-1.4,0.2-2.6l0-1.1V29.4c0-0.4,0.3-0.7,0.7-0.7c0.4,0,0.7,0.3,0.7,0.7
		l0,17.3c0,1.9,0,2.9-0.6,3.6C84.8,50.6,84.4,50.7,83.8,50.7z"/>
	<path class="st1" d="M32.8,85.4c-1.5,0-2.9-0.6-3.9-1.6L18,72.9c-1-1-1.6-2.4-1.6-3.9c0-1.5,0.6-2.9,1.6-3.9l20.7-20.7
		c0.5-0.5,1.4-0.5,2,0l16.8,16.8c0.5,0.5,0.5,1.4,0,2L36.7,83.8C35.7,84.9,34.3,85.4,32.8,85.4z M39.6,47.3L19.9,67
		c-0.5,0.5-0.8,1.2-0.8,2c0,0.7,0.3,1.4,0.8,2l10.9,10.9c1,1,2.9,1,3.9,0l19.7-19.7L39.6,47.3z"/>
	<path class="st11" d="M51.7,46.9c-0.3,0-0.5-0.1-0.7-0.3c-0.2-0.2-0.3-0.5-0.3-0.7c0-0.3,0.1-0.5,0.3-0.7l6-6
		c0.4-0.4,1.1-0.4,1.5,0c0.2,0.2,0.3,0.4,0.3,0.7c0,0.3-0.1,0.5-0.3,0.7l-6,6C52.2,46.8,52,46.9,51.7,46.9z M59.7,38.9
		c-0.3,0-0.5-0.1-0.7-0.3c-0.4-0.4-0.4-1.1,0-1.5c0.4-0.4,1.1-0.4,1.5,0c0.4,0.4,0.4,1.1,0,1.5C60.2,38.8,59.9,38.9,59.7,38.9z
		 M62.6,36c-0.3,0-0.5-0.1-0.7-0.3c-0.4-0.4-0.4-1.1,0-1.5c0.4-0.4,1.1-0.4,1.5,0c0.4,0.4,0.4,1.1,0,1.5C63.1,35.9,62.9,36,62.6,36z
		 M65.5,33.1c-0.3,0-0.5-0.1-0.7-0.3c-0.2-0.2-0.3-0.5-0.3-0.7c0-0.3,0.1-0.5,0.3-0.7l6.8-6.8c0.4-0.4,1.1-0.4,1.5,0
		c0.2,0.2,0.3,0.5,0.3,0.7c0,0.3-0.1,0.5-0.3,0.7l-6.8,6.8C66.1,32.9,65.8,33.1,65.5,33.1z"/>
	<path class="st1" d="M41.6,48.8c-0.4,0-0.7-0.1-1-0.4L26,33.8c-0.3-0.3-0.4-0.6-0.4-1V31c0-0.8,0.6-1.4,1.4-1.4h1.9v-1.9
		c0-0.8,0.6-1.4,1.4-1.4h1.9v-1.9c0-0.8,0.6-1.4,1.4-1.4h1.9V21c0-0.8,0.6-1.4,1.4-1.4h1.4c0.4,0,0.7,0.1,1,0.4l14.9,14.9
		c0.5,0.5,0.5,1.4,0,2L42.6,48.4C42.3,48.7,41.9,48.8,41.6,48.8z M28.5,32.4l13.1,13.1l9.6-9.6L38.3,23v1.3c0,0.8-0.6,1.4-1.4,1.4
		H35v1.9c0,0.8-0.6,1.4-1.4,1.4h-1.9V31c0,0.8-0.6,1.4-1.4,1.4H28.5z"/>
</g>
</svg>
