<?xml version="1.0" encoding="utf-8"?>
<!-- Generator: Adobe Illustrator 19.1.0, SVG Export Plug-In . SVG Version: 6.00 Build 0)  -->
<svg version="1.1" id="Layer_1" xmlns="http://www.w3.org/2000/svg" xmlns:xlink="http://www.w3.org/1999/xlink" x="0px" y="0px"
	 viewBox="0 0 100 100" style="enable-background:new 0 0 100 100;" xml:space="preserve">
<style type="text/css">
	.st0{fill:#FFD113;}
	.st1{fill:#231F20;}
	.st2{fill:#EE3F24;}
	.st3{fill:#FFD111;}
	.st4{fill:#FCD10F;}
	.st5{fill:#39B44A;}
	.st6{fill:#3CB44A;}
	.st7{fill:#7E51A0;}
	.st8{fill:#DCA3C9;}
	.st9{fill:#F6C8A0;}
	.st10{fill:#AED69A;}
	.st11{fill:#B68058;}
	.st12{fill:#7E52A0;}
</style>
<g>
	<path class="st1" d="M32.7,47c-3.8,0-6.7-1.6-8.1-4.5c-0.2-0.3-0.2-0.7-0.1-1.1c0.1-0.3,0.4-0.6,0.7-0.8c0.7-0.3,1.5,0,1.8,0.6
		c1,1.9,2.8,2.9,5.8,2.9h4c0.4,0,0.7,0.1,1,0.4c0.3,0.2,0.4,0.6,0.4,1c0,0.4-0.1,0.7-0.4,1c-0.3,0.3-0.6,0.4-1,0.4h-4L32.7,47z
		 M25,37.9c-0.8,0-1.4-0.6-1.4-1.4v0c0-0.8,0.6-1.4,1.4-1.4c0.8,0,1.4,0.6,1.4,1.4C26.4,37.3,25.7,37.9,25,37.9z M25,33.8
		c-0.8,0-1.4-0.6-1.4-1.4v0c0-0.7,0.6-1.4,1.4-1.4c0.8,0,1.4,0.6,1.4,1.4S25.7,33.8,25,33.8z M25,29.7c-0.8,0-1.4-0.6-1.4-1.4v-1.5
		c0-1.4-0.1-3.3-0.7-4.7c-0.6-1.3-1.3-1.9-3.2-2c-0.4,0-0.7-0.2-1-0.4c-0.2-0.3-0.4-0.6-0.4-1c0-0.8,0.6-1.4,1.4-1.4l0.1,0
		c3,0,4.9,1.9,5.6,3.7c0.8,1.9,0.9,4,0.9,5.8v1.5C26.4,29,25.7,29.7,25,29.7z"/>
	<path class="st1" d="M40.9,37.2h-4c-2.2,0-3.9-0.6-4.9-1.9c-1.2-1.4-1.3-3.2-1.3-4.4v-3.2c0-0.8,0.6-1.4,1.4-1.4
		c0.8,0,1.4,0.6,1.4,1.4v3.2c0,1.2,0.2,2.2,0.7,2.7c0.3,0.4,1,0.9,2.9,0.9h3.9c0.8,0,1.4,0.6,1.4,1.4C42.2,36.6,41.6,37.2,40.9,37.2
		z M32,23.6c-0.8,0-1.4-0.6-1.4-1.4c0-0.8,0.6-1.4,1.4-1.4c0.8,0,1.4,0.6,1.4,1.4C33.4,22.9,32.8,23.6,32,23.6z M32,19.4
		c-0.8,0-1.4-0.6-1.4-1.4c0-0.8,0.6-1.4,1.4-1.4c0.8,0,1.4,0.6,1.4,1.4C33.4,18.8,32.8,19.4,32,19.4z"/>
	<path class="st1" d="M56.1,70.4c-2.1,0-4.3-0.5-6.2-1.5c-6.6-3.4-9.2-11.6-5.7-18.2c0.5-0.9,1.1-1.8,1.7-2.6c-1.4-4.7-1-9.7,1.3-14
		c2.3-4.4,6.2-7.6,10.9-9.1c4.7-1.5,9.7-1,14.1,1.2c9.1,4.7,12.6,15.9,7.9,25c-2.2,4.3-6.1,7.6-10.8,9.1c-0.3,1-0.6,2-1.1,2.9
		c-1.7,3.2-4.5,5.6-7.9,6.6C58.8,70.1,57.4,70.4,56.1,70.4z M63.6,26.8c-1.6,0-3.2,0.2-4.8,0.7c-4,1.3-7.3,4-9.3,7.8
		c-2.1,3.9-2.4,8.4-0.8,12.6c0.2,0.5,0.1,1.1-0.3,1.4c-0.7,0.8-1.4,1.6-1.8,2.5c-2.7,5.3-0.7,11.8,4.6,14.5c2.5,1.3,5.5,1.6,8.2,0.7
		c2.7-0.9,5-2.7,6.3-5.3c0.5-0.9,0.8-1.9,1-3c0.1-0.5,0.5-0.9,1-1.1c4.3-1.2,7.8-4,9.9-7.9c4-7.7,1-17.3-6.7-21.3
		C68.5,27.4,66.1,26.8,63.6,26.8z"/>
	<path class="st1" d="M47.2,85.7c-1,0-1.9-0.2-2.8-0.7c-0.7-0.4-1.3-0.9-1.8-1.5c-0.8-0.1-1.5-0.3-2.2-0.6c-1.4-0.8-2.5-2-3-3.6
		c-0.5-1.6-0.3-3.2,0.4-4.6c1-1.9,2.8-3.1,4.9-3.2l3.5-6.8c0.2-0.4,0.6-0.7,1-0.7c0.4-0.1,0.9,0.1,1.2,0.4c0.8,0.8,1.7,1.5,2.8,2.1
		c1,0.5,2.1,0.9,3.3,1.1c0.4,0.1,0.8,0.3,1,0.7c0.2,0.4,0.2,0.9,0,1.3L52,75.9c1.4,1.8,1.7,4.4,0.6,6.5c-0.8,1.4-2,2.5-3.6,3
		C48.4,85.6,47.8,85.7,47.2,85.7z M43.3,80.8c0.5,0,0.9,0.2,1.2,0.6c0.3,0.5,0.7,0.9,1.2,1.1c0.8,0.4,1.7,0.5,2.5,0.2
		c0.8-0.3,1.5-0.8,1.9-1.6c0.7-1.3,0.4-3-0.7-4c-0.5-0.4-0.6-1.1-0.3-1.7l3-5.7c-0.8-0.2-1.5-0.6-2.3-0.9c-0.7-0.4-1.4-0.8-2.1-1.3
		l-3.1,5.9c-0.3,0.5-0.8,0.8-1.3,0.7c-1.3-0.1-2.6,0.6-3.2,1.8c-0.4,0.8-0.5,1.7-0.2,2.5c0.3,0.8,0.8,1.5,1.6,1.9
		C42.1,80.7,42.6,80.8,43.3,80.8L43.3,80.8z"/>
	<path class="st2" d="M73.4,49.8c-0.2,0-0.4-0.1-0.6-0.2c-0.3-0.2-0.6-0.5-0.7-0.8c-0.1-0.4-0.1-0.7,0.1-1.1
		c0.3-0.6,0.6-1.5,0.7-2.5c0.1-0.7,0.8-1.3,1.6-1.1c0.8,0.1,1.3,0.8,1.1,1.6c-0.2,1.3-0.6,2.4-1,3.3C74.4,49.5,73.9,49.8,73.4,49.8z
		 M74.4,42.7c-0.7,0-1.3-0.5-1.4-1.2v0c0-0.4,0.1-0.7,0.3-1c0.2-0.3,0.6-0.5,0.9-0.5c0.8-0.1,1.4,0.5,1.5,1.2c0,0.4-0.1,0.7-0.3,1
		c-0.2,0.3-0.6,0.5-0.9,0.5H74.4z M73.5,38.7c-0.6,0-1.1-0.3-1.3-0.9c-0.1-0.3-0.1-0.7,0-1.1c0.2-0.3,0.4-0.6,0.8-0.7
		c0.7-0.3,1.5,0.1,1.8,0.8c0.1,0.3,0.1,0.7,0,1.1c-0.1,0.3-0.4,0.6-0.8,0.7C73.8,38.7,73.6,38.7,73.5,38.7z M71.3,35.2
		c-0.4,0-0.8-0.2-1-0.5c-0.8-0.9-1.8-1.6-2.9-2.2h0c-0.7-0.4-0.9-1.2-0.6-1.9c0.3-0.7,1.2-0.9,1.9-0.6c1.4,0.7,2.6,1.7,3.7,2.8
		c0.2,0.3,0.4,0.6,0.3,1c0,0.4-0.2,0.7-0.5,1C72,35.1,71.6,35.2,71.3,35.2z"/>
</g>
</svg>
