<?xml version="1.0" encoding="utf-8"?>
<!-- Generator: Adobe Illustrator 19.1.0, SVG Export Plug-In . SVG Version: 6.00 Build 0)  -->
<svg version="1.1" id="Layer_1" xmlns="http://www.w3.org/2000/svg" xmlns:xlink="http://www.w3.org/1999/xlink" x="0px" y="0px"
	 viewBox="0 0 100 100" style="enable-background:new 0 0 100 100;" xml:space="preserve">
<style type="text/css">
	.st0{fill:#FFD113;}
	.st1{fill:#231F20;}
	.st2{fill:#EE3F24;}
	.st3{fill:#FFD111;}
	.st4{fill:#FCD10F;}
	.st5{fill:#39B44A;}
	.st6{fill:#3CB44A;}
	.st7{fill:#7E51A0;}
	.st8{fill:#DCA3C9;}
	.st9{fill:#F6C8A0;}
	.st10{fill:#AED69A;}
	.st11{fill:#B68058;}
	.st12{fill:#7E52A0;}
</style>
<g>
	<path class="st1" d="M40.3,75.6h-0.6c-4.3,0-7.8-3.5-7.8-7.8V25.3c0-4.3,3.5-7.8,7.8-7.8h0.6c4.3,0,7.8,3.5,7.8,7.8v42.4
		C48.1,72,44.6,75.6,40.3,75.6z M39.7,20.3c-2.8,0-5.1,2.3-5.1,5.1v42.4c0,2.8,2.3,5.1,5.1,5.1h0.6c2.8,0,5.1-2.3,5.1-5.1V25.3
		c0-2.8-2.3-5.1-5.1-5.1H39.7z"/>
	<path class="st2" d="M42.3,34.6c-0.2,0-0.5-0.1-0.7-0.2l-4.4-2.6c-0.7-0.4-0.9-1.2-0.5-1.9c0.4-0.7,1.2-0.9,1.9-0.5l4.4,2.6
		c0.7,0.4,0.9,1.2,0.5,1.9C43.2,34.4,42.8,34.6,42.3,34.6z"/>
	<path class="st2" d="M42.3,41.7c-0.2,0-0.5-0.1-0.7-0.2l-4.4-2.6c-0.7-0.4-0.9-1.2-0.5-1.9s1.2-0.9,1.9-0.5l4.4,2.6
		c0.7,0.4,0.9,1.2,0.5,1.9C43.2,41.5,42.8,41.7,42.3,41.7z"/>
	<path class="st2" d="M42.3,48.8c-0.2,0-0.5-0.1-0.7-0.2L37.2,46c-0.7-0.4-0.9-1.2-0.5-1.9c0.4-0.7,1.2-0.9,1.9-0.5l4.4,2.6
		c0.7,0.4,0.9,1.2,0.5,1.9C43.2,48.5,42.8,48.8,42.3,48.8z"/>
	<path class="st2" d="M42.3,55.8c-0.2,0-0.5-0.1-0.7-0.2L37.2,53c-0.7-0.4-0.9-1.2-0.5-1.9c0.4-0.7,1.2-0.9,1.9-0.5l4.4,2.6
		c0.7,0.4,0.9,1.2,0.5,1.9C43.2,55.6,42.8,55.8,42.3,55.8z"/>
	<path class="st2" d="M42.3,62.9c-0.2,0-0.5-0.1-0.7-0.2l-4.4-2.6c-0.7-0.4-0.9-1.2-0.5-1.9c0.4-0.7,1.2-0.9,1.9-0.5l4.4,2.6
		c0.7,0.4,0.9,1.2,0.5,1.9C43.2,62.6,42.8,62.9,42.3,62.9z"/>
	<path class="st1" d="M40,84.8c-0.8,0-1.4-0.6-1.4-1.4v-9.2c0-0.8,0.6-1.4,1.4-1.4s1.4,0.6,1.4,1.4v9.2C41.4,84.2,40.8,84.8,40,84.8
		z"/>
	<path class="st1" d="M62,47.3h-0.6c-4.3,0-7.8-3.5-7.8-7.8V25.3c0-4.3,3.5-7.8,7.8-7.8H62c4.3,0,7.8,3.5,7.8,7.8v14.1
		C69.8,43.8,66.3,47.3,62,47.3z M61.4,20.3c-2.8,0-5.1,2.3-5.1,5.1v14.1c0,2.8,2.3,5.1,5.1,5.1H62c2.8,0,5.1-2.3,5.1-5.1V25.3
		c0-2.8-2.3-5.1-5.1-5.1H61.4z"/>
	<path class="st2" d="M64,31.8c-0.2,0-0.5-0.1-0.7-0.2L58.9,29c-0.7-0.4-0.9-1.2-0.5-1.9c0.4-0.7,1.2-0.9,1.9-0.5l4.4,2.6
		c0.7,0.4,0.9,1.2,0.5,1.9C64.9,31.5,64.5,31.8,64,31.8z"/>
	<path class="st2" d="M64,38.8c-0.2,0-0.5-0.1-0.7-0.2L58.9,36c-0.7-0.4-0.9-1.2-0.5-1.9c0.4-0.7,1.2-0.9,1.9-0.5l4.4,2.6
		c0.7,0.4,0.9,1.2,0.5,1.9C64.9,38.6,64.5,38.8,64,38.8z"/>
	<path class="st1" d="M62,75.5h-0.6c-4.3,0-7.8-3.5-7.8-7.8V53.5c0-4.3,3.5-7.8,7.8-7.8H62c4.3,0,7.8,3.5,7.8,7.8v14.1
		C69.8,72,66.3,75.5,62,75.5z M61.4,48.4c-2.8,0-5.1,2.3-5.1,5.1v14.1c0,2.8,2.3,5.1,5.1,5.1H62c2.8,0,5.1-2.3,5.1-5.1V53.5
		c0-2.8-2.3-5.1-5.1-5.1H61.4z"/>
	<path class="st2" d="M64,59.9c-0.2,0-0.5-0.1-0.7-0.2l-4.4-2.6c-0.7-0.4-0.9-1.2-0.5-1.9c0.4-0.7,1.2-0.9,1.9-0.5l4.4,2.6
		c0.7,0.4,0.9,1.2,0.5,1.9C64.9,59.7,64.5,59.9,64,59.9z"/>
	<path class="st2" d="M64,67c-0.2,0-0.5-0.1-0.7-0.2l-4.4-2.6c-0.7-0.4-0.9-1.2-0.5-1.9c0.4-0.7,1.2-0.9,1.9-0.5l4.4,2.6
		c0.7,0.4,0.9,1.2,0.5,1.9C64.9,66.7,64.5,67,64,67z"/>
	<path class="st1" d="M61.7,84.8c-0.8,0-1.4-0.6-1.4-1.4v-9.2c0-0.8,0.6-1.4,1.4-1.4s1.4,0.6,1.4,1.4v9.2
		C63.1,84.2,62.4,84.8,61.7,84.8z"/>
	<path class="st1" d="M23,69.8c-3.1,0-5.5-1.4-6.5-3.8c-0.3-0.7,0-1.5,0.7-1.8c0.7-0.3,1.5,0,1.8,0.7c0.7,1.5,1.9,2.1,4.2,2.2h3
		c0.4,0,0.7,0.1,1,0.4c0.3,0.2,0.4,0.6,0.4,1c0,0.4-0.2,0.7-0.4,1c-0.2,0.3-0.6,0.4-1,0.4h-3L23,69.8z M17.2,61.3
		c-0.8,0-1.4-0.6-1.4-1.4l0,0c0-0.7,0.6-1.4,1.4-1.4c0.7,0,1.4,0.6,1.4,1.4l0,0C18.6,60.7,17.9,61.3,17.2,61.3z M17.2,57.2
		c-0.8,0-1.4-0.6-1.4-1.4l0,0c0-0.8,0.6-1.4,1.4-1.4c0.7,0,1.4,0.6,1.4,1.4l0,0C18.6,56.6,17.9,57.2,17.2,57.2z M17,53.1
		c-0.7,0-1.3-0.5-1.4-1.2c-0.1-0.9-0.4-1.6-0.8-2c-0.4-0.4-0.8-0.7-1.8-0.7c-0.8,0-1.4-0.6-1.4-1.4c0-0.8,0.6-1.4,1.4-1.4h0.1
		c1.5,0,2.9,0.6,3.8,1.7c0.7,0.9,1.1,1.9,1.4,3.3c0.1,0.4,0,0.7-0.2,1c-0.2,0.3-0.5,0.5-0.9,0.6L17,53.1z"/>
	<path class="st1" d="M26.5,63.3h-1.8c-1.2,0-2.2-0.4-2.8-1.1c-0.7-0.8-0.8-1.8-0.8-2.5l0-0.2c0-0.8,0.6-1.4,1.4-1.4
		c0.8,0,1.4,0.6,1.4,1.4v0.2c0,0.4,0.1,0.6,0.1,0.7c0,0,0.2,0.1,0.7,0.1h1.8c0.8,0,1.4,0.6,1.4,1.4S27.3,63.3,26.5,63.3z M22.5,55.4
		c-0.8,0-1.4-0.6-1.4-1.4l0,0c0-0.7,0.6-1.4,1.4-1.4c0.8,0,1.4,0.6,1.4,1.4v0C23.9,54.8,23.3,55.4,22.5,55.4z"/>
	<path class="st1" d="M79.5,42.7h-0.2h-3c-0.4,0-0.7-0.1-1-0.4c-0.3-0.3-0.4-0.6-0.4-1c0-0.4,0.2-0.7,0.4-1c0.2-0.3,0.6-0.4,1-0.4
		h3.1c2.2,0,3.5-0.7,4.1-2.2c0.3-0.7,1.1-1,1.8-0.7c0.3,0.2,0.6,0.4,0.7,0.8c0.1,0.3,0.1,0.7,0,1.1C85,41.3,82.6,42.7,79.5,42.7z
		 M85.4,34.3c-0.8,0-1.4-0.6-1.4-1.4c0-0.8,0.6-1.4,1.4-1.4s1.4,0.6,1.4,1.4v0C86.7,33.7,86.1,34.3,85.4,34.3z M85.4,30.1
		c-0.8,0-1.4-0.6-1.4-1.4c0-0.8,0.6-1.4,1.4-1.4s1.4,0.6,1.4,1.4v0C86.7,29.5,86.1,30.1,85.4,30.1z M85.5,26l-0.2,0
		c-0.4-0.1-0.7-0.3-0.9-0.6c-0.2-0.3-0.3-0.7-0.2-1c0.2-1.4,0.7-2.5,1.4-3.3c0.9-1.1,2.3-1.7,3.8-1.7h0.1c0.8,0,1.4,0.6,1.4,1.4
		c0,0.8-0.6,1.4-1.4,1.4c-1,0-1.4,0.3-1.8,0.7c-0.4,0.4-0.6,1.1-0.8,2l0,0C86.8,25.5,86.2,26,85.5,26z"/>
	<path class="st1" d="M77.8,36.3L77.8,36.3H76c-0.8,0-1.4-0.6-1.4-1.4c0-0.8,0.6-1.4,1.4-1.4h1.7c0.4,0,0.6-0.1,0.7-0.1l0,0
		c0,0,0.1-0.2,0.1-0.7v-0.2c0-0.8,0.6-1.4,1.4-1.4s1.4,0.6,1.4,1.4v0.2c0,0.7-0.1,1.7-0.8,2.5C80,35.9,79,36.3,77.8,36.3z M80,28.4
		c-0.8,0-1.4-0.6-1.4-1.4c0-0.8,0.6-1.4,1.4-1.4s1.4,0.6,1.4,1.4C81.4,27.7,80.8,28.4,80,28.4z"/>
</g>
</svg>
