<?xml version="1.0" encoding="utf-8"?>
<!-- Generator: Adobe Illustrator 19.1.0, SVG Export Plug-In . SVG Version: 6.00 Build 0)  -->
<svg version="1.1" id="Layer_1" xmlns="http://www.w3.org/2000/svg" xmlns:xlink="http://www.w3.org/1999/xlink" x="0px" y="0px"
	 viewBox="0 0 100 100" style="enable-background:new 0 0 100 100;" xml:space="preserve">
<style type="text/css">
	.st0{fill:#FFD113;}
	.st1{fill:#231F20;}
	.st2{fill:#EE3F24;}
	.st3{fill:#FFD111;}
	.st4{fill:#FCD10F;}
	.st5{fill:#39B44A;}
	.st6{fill:#3CB44A;}
	.st7{fill:#7E51A0;}
	.st8{fill:#DCA3C9;}
	.st9{fill:#F6C8A0;}
	.st10{fill:#AED69A;}
	.st11{fill:#B68058;}
	.st12{fill:#7E52A0;}
</style>
<g>
	<path class="st0" d="M43.9,78.4c-0.2,0.2-0.5,0.2-0.7,0.3c-0.4,0-0.7-0.1-1-0.3c-0.3-0.2-0.4-0.6-0.5-1l0,0c0-0.1-0.1-0.6-0.2-1.3
		c-0.2-0.8-0.5-2.1-1-3.8c-0.3-0.7,0.2-1.5,0.9-1.8c0.7-0.2,1.5,0.1,1.7,0.9c1,3,1.3,5.2,1.4,5.7l0,0C44.5,77.6,44.3,78.1,43.9,78.4
		z M41,69.1l-0.2,0.1c-0.3,0.2-0.7,0.2-1.1,0c-0.3-0.1-0.6-0.4-0.8-0.7c-0.3-0.7,0-1.5,0.7-1.8c0.3-0.2,0.7-0.2,1.1-0.1
		c0.4,0.1,0.6,0.4,0.8,0.7l0,0C41.7,68,41.5,68.7,41,69.1z M39,65.5l-0.1,0.1c-0.3,0.2-0.7,0.2-1.1,0.2c-0.4-0.1-0.7-0.3-0.9-0.6
		c-0.6-0.9-1.2-1.8-1.8-2.7c-0.2-0.2-0.3-0.4-0.5-0.6c-0.5-0.6-0.4-1.5,0.2-1.9l0,0c0.6-0.5,1.5-0.3,1.9,0.3l0.1,0.1
		c0.1,0.2,0.3,0.4,0.4,0.6c0.7,0.9,1.4,1.9,2,2.9C39.8,64.3,39.6,65,39,65.5z M34,58.9c-0.6,0.4-1.3,0.4-1.8-0.1
		c-3.8-3.9-7.4-5.9-8.8-6.6c-0.5-0.3-0.7-0.4-0.7-0.4c-0.7-0.3-1-1.1-0.8-1.8c0.3-0.7,1.1-1,1.8-0.8c0.5,0.2,5.4,2.4,10.4,7.6
		c0.2,0.3,0.4,0.6,0.4,1c0,0.4-0.2,0.7-0.4,1L34,58.9z"/>
	<path class="st0" d="M62.2,64.8c-0.4,0.3-1,0.4-1.5,0.1c-0.3-0.2-3.1-1.9-6.4-4.9l0,0c-0.3-0.2-0.4-0.6-0.4-0.9
		c0-0.4,0.1-0.7,0.4-1c0.5-0.6,1.4-0.6,2-0.1c1.4,1.2,2.8,2.4,4.3,3.4c1.1,0.8,1.7,1.1,1.7,1.1l0,0c0.6,0.4,0.9,1.2,0.5,1.9
		C62.4,64.5,62.3,64.7,62.2,64.8z M53,57.2c-0.6,0.4-1.3,0.3-1.8-0.2c-1-1.1-1.9-2.2-2.8-3.3c-0.2-0.3-0.3-0.7-0.3-1
		c0.1-0.4,0.2-0.7,0.5-0.9l0,0c0.6-0.4,1.5-0.3,1.9,0.3c0.8,1,1.7,2,2.6,3.1c0.5,0.6,0.5,1.4-0.1,2L53,57.2z M47.9,50.6L47.9,50.6
		c-0.7,0.5-1.6,0.3-2-0.4c-0.4-0.6-0.2-1.5,0.4-1.9c0.3-0.2,0.7-0.3,1.1-0.2c0.4,0.1,0.7,0.3,0.9,0.6C48.7,49.4,48.5,50.2,47.9,50.6
		z M45.2,45.8L45,45.9c-0.7,0.3-1.5,0-1.8-0.6c-2-4.1-2.9-7.4-3-8l0,0l0,0c-0.2-0.7,0.3-1.5,1-1.7c0.4-0.1,0.7,0,1.1,0.2
		c0.3,0.2,0.5,0.5,0.6,0.8l0,0.1c0.2,0.6,0.4,1.3,0.6,2c0.4,1.2,1.1,3.2,2.2,5.4C45.9,44.7,45.8,45.4,45.2,45.8z"/>
	<path class="st1" d="M64.6,56.5C57,52,51.5,44.6,49.4,36c-1-4-4.4-8-9.1-8.1l-2,0.1c-1.9,0-3.6,0.9-4.9,2.5c-2,2.5-2.7,6.2-1.8,9.9
		c0.3,1.3,0.7,2.6,1.1,3.9c-1.1-0.8-2.2-1.5-3.4-2.2c-3.2-1.9-7-2.3-9.9-1.2c-2,0.8-3.3,2.2-3.8,3.9l-0.7,2c-1.3,4.4,1.6,8.9,5.1,11
		c7.6,4.5,13.2,12,15.3,20.5c1,4,4.4,8,9.1,8.1l2-0.1c1.3,0,2.5-0.4,3.5-1.2c0.5-0.4,1-0.8,1.4-1.3c2-2.5,2.7-6.2,1.8-9.9
		c-0.3-1.3-0.7-2.6-1.1-3.9c1.1,0.8,2.2,1.5,3.4,2.2c3.2,1.9,7,2.3,9.9,1.2c0.6-0.3,1.2-0.6,1.7-0.9c1.1-0.8,1.8-1.8,2.1-3l0.7-2
		l0-0.1C71,63.1,68.1,58.6,64.6,56.5z M67.1,66.7l-0.7,2c-0.3,0.9-1.1,1.7-2.2,2.2c-1.7,0.7-4.6,0.8-7.5-1c-2.1-1.2-4.1-2.7-6-4.2
		c-0.5-0.4-1.2-0.4-1.7,0l-0.2,0.2L48.5,66c-0.5,0.4-0.7,1.1-0.4,1.6c0.9,2.3,1.7,4.6,2.3,7c0.8,3.3-0.1,6-1.2,7.5
		c-0.8,1-1.7,1.5-2.7,1.5l-0.1,0l-2,0.1c-3.2,0-5.6-3.1-6.4-6c-2.3-9.3-8.3-17.4-16.5-22.2c-2.6-1.6-4.8-4.8-3.9-7.8l0.7-2
		c0.2-0.6,0.6-1.2,1.2-1.6c0.3-0.2,0.7-0.4,1.1-0.6c1.7-0.7,4.6-0.8,7.5,1c2.1,1.2,4.1,2.7,6,4.2c0.5,0.4,1.2,0.4,1.7,0l0.2-0.2
		l0.3-0.2c0.5-0.4,0.7-1.1,0.4-1.6c-0.9-2.2-1.7-4.6-2.3-6.9c-0.8-3.3,0.1-6,1.2-7.5c0.3-0.3,0.5-0.6,0.9-0.8
		c0.6-0.4,1.2-0.7,1.9-0.7l2-0.1c3.2,0,5.6,3.1,6.4,6C48.9,45.9,55,54,63.2,58.9C65.8,60.5,68,63.6,67.1,66.7z"/>
	<path class="st1" d="M46.4,63.7c-0.3,0-0.6-0.1-0.8-0.4l-8.5-11.5c-0.3-0.5-0.2-1.1,0.2-1.5c0.5-0.3,1.1-0.2,1.5,0.2l8.5,11.5
		c0.3,0.5,0.2,1.1-0.2,1.5C46.9,63.7,46.6,63.7,46.4,63.7z"/>
	<path class="st1" d="M70.1,50.2c-2.5,0-5-0.5-7.4-1.6C53.8,44.5,50,34,54,25.2c4.1-8.8,14.6-12.7,23.4-8.7
		c8.8,4.1,12.7,14.6,8.7,23.4c-2,4.3-5.5,7.5-9.9,9.2C74.2,49.8,72.1,50.2,70.1,50.2z M56.5,26.3c-3.4,7.5-0.2,16.3,7.3,19.8
		c3.6,1.7,7.7,1.8,11.4,0.4c3.7-1.4,6.7-4.1,8.4-7.7c3.4-7.5,0.2-16.3-7.3-19.8C68.8,15.6,60,18.9,56.5,26.3z"/>
	<path class="st3" d="M80.8,30.8c-0.6,0-1.2-0.4-1.3-1c-0.1-0.3-0.2-0.5-0.2-0.7v0c-0.1-0.3-0.1-0.7,0-1c0.2-0.3,0.4-0.6,0.8-0.7
		c0.7-0.2,1.5,0.1,1.8,0.8c0.1,0.3,0.2,0.6,0.3,0.9c0.1,0.4,0.1,0.7-0.1,1.1c-0.2,0.3-0.5,0.6-0.8,0.7
		C81.1,30.8,80.9,30.8,80.8,30.8z M59.9,29.3c-0.2,0-0.4-0.1-0.6-0.1c-0.3-0.2-0.6-0.4-0.7-0.8c-0.1-0.3-0.1-0.7,0-1
		c2-4.4,6.5-7.3,11.4-7.3c0.4,0,0.8,0,1.2,0.1c0.4,0,0.7,0.2,0.9,0.5c0.2,0.3,0.3,0.6,0.3,1c-0.1,0.7-0.6,1.2-1.4,1.2H71
		c-0.3,0-0.6,0-0.9,0c-3.8,0-7.3,2.2-8.9,5.7v0C61,28.9,60.5,29.3,59.9,29.3z M78.4,26.5c-0.4,0-0.8-0.2-1-0.5
		c-0.5-0.6-0.5-1.5,0.1-1.9c0.6-0.5,1.5-0.4,1.9,0.1c0.2,0.3,0.4,0.6,0.4,1c0,0.4-0.2,0.7-0.5,1C79,26.3,78.7,26.5,78.4,26.5z
		 M75.1,24c-0.2,0-0.4-0.1-0.6-0.2c-0.7-0.3-1-1.2-0.6-1.9c0.3-0.7,1.2-1,1.9-0.6c0.7,0.3,1,1.2,0.6,1.9C76.1,23.7,75.6,24,75.1,24z
		"/>
</g>
</svg>
