<?xml version="1.0" encoding="utf-8"?>
<!-- Generator: Adobe Illustrator 19.1.0, SVG Export Plug-In . SVG Version: 6.00 Build 0)  -->
<svg version="1.1" id="Layer_1" xmlns="http://www.w3.org/2000/svg" xmlns:xlink="http://www.w3.org/1999/xlink" x="0px" y="0px"
	 viewBox="0 0 100 100" style="enable-background:new 0 0 100 100;" xml:space="preserve">
<style type="text/css">
	.st0{fill:#FFD113;}
	.st1{fill:#231F20;}
	.st2{fill:#EE3F24;}
	.st3{fill:#FFD111;}
	.st4{fill:#FCD10F;}
	.st5{fill:#39B44A;}
	.st6{fill:#3CB44A;}
	.st7{fill:#7E51A0;}
	.st8{fill:#DCA3C9;}
	.st9{fill:#F6C8A0;}
	.st10{fill:#AED69A;}
	.st11{fill:#B68058;}
	.st12{fill:#7E52A0;}
</style>
<g>
	<path class="st2" d="M42.7,67.7c-3,0-3-2.7-3-3.5l0-0.5c0-1.3,0-3.5-0.8-4.4c-0.2-0.2-0.4-0.3-0.8-0.3c-2.3,0-5-0.6-5-5v-7h1.4v7
		c0,3,1.3,3.6,3.6,3.6c0.7,0,1.3,0.2,1.7,0.7c1.2,1.2,1.2,3.7,1.2,5.3l0,0.5c0,1.8,0.6,2.2,1.6,2.2c0.4,0,0.5-0.1,0.6-0.1
		c0.3-0.3,0.3-1.7,0.3-3.5l0-15.4h1.4l0,15.4c0,2.4,0,3.7-0.7,4.5C43.9,67.5,43.4,67.7,42.7,67.7z"/>
	<path class="st1" d="M70.4,43.8c-0.3,0-0.6-0.1-0.9-0.3c-0.6-0.5-0.7-1.4-0.2-1.9l10.9-13.4c0.5-0.6,0.4-1.5-0.2-2
		c-0.3-0.2-0.7-0.4-1.1-0.3c-0.4,0-0.7,0.2-1,0.6l-9.1,12.2c-0.5,0.6-1.3,0.7-1.9,0.3c-0.6-0.5-0.7-1.3-0.3-1.9l9.1-12.2
		c0.7-0.9,1.7-1.5,2.8-1.6c1.1-0.1,2.3,0.2,3.1,0.9c1.8,1.5,2,4.1,0.6,5.9L71.5,43.3C71.2,43.6,70.8,43.8,70.4,43.8z"/>
	<path class="st2" d="M25.3,48.7L25.3,48.7c-0.4,0-0.7-0.2-1-0.4c-0.2-0.3-0.4-0.6-0.4-1v0c0.1-1.3,0.7-7.9,6.2-13.1
		c0.5-0.5,1.5-0.5,1.9,0.1c0.2,0.3,0.4,0.6,0.4,1c0,0.4-0.2,0.7-0.4,1c-4,3.7-5,8.4-5.3,10.2c-0.1,0.6-0.1,0.9-0.1,1v0
		C26.6,48.1,26,48.7,25.3,48.7z M70.1,48.6L70.1,48.6c-0.4,0-0.7-0.2-1-0.4c-0.2-0.3-0.4-0.6-0.4-1c0,0,0-0.1,0-0.3
		c0-0.9-0.1-5.6-3.4-9.7l0,0c-0.5-0.6-0.4-1.5,0.2-1.9c0.6-0.5,1.5-0.4,1.9,0.2c3.6,4.5,4,9.5,4,11.4l0,0.3v0.1
		C71.5,48.1,70.9,48.6,70.1,48.6z M63.4,34.9c-0.3,0-0.6-0.1-0.8-0.3c-0.6-0.5-0.7-1.3-0.3-1.9c0.4-0.6,1.3-0.7,1.9-0.3
		c0.3,0.2,0.5,0.5,0.6,0.9c0.1,0.4,0,0.7-0.2,1C64.3,34.7,63.9,34.9,63.4,34.9z M34.4,34.1c-0.5,0-1-0.3-1.2-0.7
		c-0.4-0.6-0.2-1.5,0.5-1.9c0.6-0.4,1.5-0.1,1.9,0.5c0.2,0.3,0.2,0.7,0.1,1c-0.1,0.4-0.3,0.7-0.6,0.8C34.9,34,34.6,34.1,34.4,34.1z
		 M59.8,32.9c-0.2,0-0.4,0-0.5-0.1h0c-0.7-0.3-1-1.1-0.7-1.8c0.3-0.7,1.1-1,1.8-0.7c0.7,0.3,1,1.1,0.7,1.8
		C60.9,32.5,60.4,32.9,59.8,32.9z M38.2,32.4c-0.6,0-1.1-0.4-1.3-0.9c-0.1-0.3-0.1-0.7,0.1-1.1c0.2-0.3,0.4-0.6,0.8-0.7
		c0.7-0.2,1.5,0.2,1.8,0.9c0.1,0.3,0.1,0.7-0.1,1.1c-0.2,0.3-0.4,0.6-0.8,0.7C38.5,32.3,38.3,32.4,38.2,32.4z M55.9,31.6l-0.3,0
		c-2.2-0.5-4.6-0.7-7.2-0.7c-2.1,0-4.1,0.2-6,0.5c-0.8,0.1-1.5-0.4-1.6-1.1c-0.1-0.7,0.4-1.5,1.1-1.6c2-0.4,4.2-0.5,6.5-0.5
		c2.8,0,5.5,0.3,7.8,0.8c0.4,0.1,0.7,0.3,0.9,0.6c0.2,0.3,0.2,0.7,0.2,1.1C57.1,31.2,56.5,31.6,55.9,31.6z"/>
	<path class="st1" d="M69,74.5H28.6c-0.6,0-1.1-0.4-1.3-1l-7.8-24.9c-0.1-0.4-0.1-0.9,0.2-1.2c0.3-0.4,0.7-0.6,1.1-0.6h55.9
		c0.4,0,0.9,0.2,1.1,0.6c0.3,0.4,0.3,0.8,0.2,1.2l-7.8,24.9C70.1,74.2,69.6,74.5,69,74.5z M29.6,71.8H68l6.9-22.1H22.7L29.6,71.8z"
		/>
	<path class="st1" d="M66.1,79.2H31.5c-0.8,0-1.4-0.6-1.4-1.4v-4.7c0-0.8,0.6-1.4,1.4-1.4s1.4,0.6,1.4,1.4v3.3h31.8v-3.3
		c0-0.8,0.6-1.4,1.4-1.4c0.8,0,1.4,0.6,1.4,1.4v4.7C67.4,78.6,66.8,79.2,66.1,79.2z"/>
	<path class="st1" d="M65,67.4l-0.3,0c-0.6-0.2-0.9-0.7-0.7-1.3c0.1-0.6,0.7-0.9,1.3-0.8c0.6,0.1,0.9,0.7,0.8,1.3
		C65.9,67.1,65.4,67.4,65,67.4z M66,63.4l-0.2,0c-0.6-0.2-0.9-0.7-0.7-1.3l1.7-6.7c0.1-0.6,0.7-0.9,1.3-0.7c0.3,0.1,0.5,0.2,0.6,0.5
		c0.2,0.2,0.2,0.5,0.1,0.8L67,62.6C66.9,63.1,66.5,63.4,66,63.4z"/>
	<circle class="st2" cx="43.5" cy="41.1" r="1.9"/>
	<circle class="st2" cx="47.6" cy="37" r="1.9"/>
	<circle class="st2" cx="52.5" cy="41.4" r="1.9"/>
</g>
</svg>
