<?xml version="1.0" encoding="utf-8"?>
<!-- Generator: Adobe Illustrator 19.1.0, SVG Export Plug-In . SVG Version: 6.00 Build 0)  -->
<svg version="1.1" id="Layer_1" xmlns="http://www.w3.org/2000/svg" xmlns:xlink="http://www.w3.org/1999/xlink" x="0px" y="0px"
	 viewBox="0 0 100 100" style="enable-background:new 0 0 100 100;" xml:space="preserve">
<style type="text/css">
	.st0{fill:#FFD113;}
	.st1{fill:#231F20;}
	.st2{fill:#EE3F24;}
	.st3{fill:#FFD111;}
	.st4{fill:#FCD10F;}
	.st5{fill:#39B44A;}
	.st6{fill:#3CB44A;}
	.st7{fill:#7E51A0;}
	.st8{fill:#DCA3C9;}
	.st9{fill:#F6C8A0;}
	.st10{fill:#AED69A;}
	.st11{fill:#B68058;}
	.st12{fill:#7E52A0;}
</style>
<g>
	<path class="st6" d="M67.6,54.7c-0.8,0-1.4-0.6-1.4-1.4c0-0.8,0.6-1.4,1.4-1.4c0.8,0,1.4,0.6,1.4,1.4C69,54.1,68.4,54.7,67.6,54.7z
		 M63.4,54.7c-0.8,0-1.4-0.6-1.4-1.4c0-0.8,0.6-1.4,1.4-1.4c0.8,0,1.4,0.6,1.4,1.4C64.8,54.1,64.2,54.7,63.4,54.7z M57.9,54.7h-5.5
		c-0.8,0-1.4-0.6-1.4-1.4c0-0.8,0.6-1.4,1.4-1.4h5.5c0.8,0,1.4,0.6,1.4,1.4C59.3,54.1,58.7,54.7,57.9,54.7z M48.2,54.7
		c-0.8,0-1.4-0.6-1.4-1.4c0-0.8,0.6-1.4,1.4-1.4c0.8,0,1.4,0.6,1.4,1.4C49.6,54.1,49,54.7,48.2,54.7z M44.1,54.7
		c-0.8,0-1.4-0.6-1.4-1.4c0-0.8,0.6-1.4,1.4-1.4c0.8,0,1.4,0.6,1.4,1.4C45.5,54.1,44.9,54.7,44.1,54.7z M38.6,54.7H33
		c-0.8,0-1.4-0.6-1.4-1.4c0-0.8,0.6-1.4,1.4-1.4h5.5c0.8,0,1.4,0.6,1.4,1.4C40,54.1,39.3,54.7,38.6,54.7z"/>
	<path class="st7" d="M71.8,46.1c-0.3,0-0.7-0.1-0.9-0.3l-6.7-6H54.1c-0.7,0-1.3-0.5-1.4-1.2c-0.1-0.5-0.1-0.9-0.1-1.4
		c0-6.6,5.4-11.9,11.9-11.9s11.9,5.4,11.9,11.9c0,3.3-1.3,6.3-3.7,8.6C72.5,45.9,72.2,46.1,71.8,46.1z M55.4,37h9.3
		c0.3,0,0.7,0.1,0.9,0.3l6.1,5.4c1.3-1.6,2-3.6,2-5.6c0-5.1-4.1-9.2-9.2-9.2C59.5,27.9,55.4,32,55.4,37z"/>
	<path class="st1" d="M41.1,39.7c-0.6,0-1.1-0.4-1.3-1l-4.3-14.1l-10.9-3.3c-0.7-0.2-1.1-1-0.9-1.7c0.2-0.7,1-1.1,1.7-0.9L37,22.2
		c0.4,0.1,0.8,0.5,0.9,0.9L42.4,38c0.2,0.7-0.2,1.5-0.9,1.7C41.3,39.7,41.2,39.7,41.1,39.7z"/>
	<path class="st1" d="M64.9,83.6H36.1c-1.6,0-3-1-3.6-2.5L23.2,56c-1.3-3.5-0.3-7.6,2.5-10.1l9.7-8.6c0.3-0.2,0.6-0.3,0.9-0.3h28.4
		c0.3,0,0.7,0.1,0.9,0.3l9.7,8.6c2.8,2.5,3.8,6.5,2.5,10.1l-9.3,25.2C67.9,82.6,66.5,83.6,64.9,83.6z M36.8,39.7L27.5,48
		c-2,1.7-2.7,4.6-1.8,7l9.3,25.2c0.2,0.4,0.6,0.7,1,0.7h28.7c0.4,0,0.9-0.3,1-0.7L75.2,55c0.9-2.5,0.2-5.3-1.8-7l-9.3-8.2H36.8z"/>
</g>
</svg>
