<?xml version="1.0" encoding="utf-8"?>
<!-- Generator: Adobe Illustrator 19.1.0, SVG Export Plug-In . SVG Version: 6.00 Build 0)  -->
<svg version="1.1" id="Layer_1" xmlns="http://www.w3.org/2000/svg" xmlns:xlink="http://www.w3.org/1999/xlink" x="0px" y="0px"
	 viewBox="0 0 100 100" style="enable-background:new 0 0 100 100;" xml:space="preserve">
<style type="text/css">
	.st0{fill:#FFD113;}
	.st1{fill:#231F20;}
	.st2{fill:#EE3F24;}
	.st3{fill:#FFD111;}
	.st4{fill:#FCD10F;}
	.st5{fill:#39B44A;}
	.st6{fill:#3CB44A;}
	.st7{fill:#7E51A0;}
	.st8{fill:#DCA3C9;}
	.st9{fill:#F6C8A0;}
	.st10{fill:#AED69A;}
	.st11{fill:#B68058;}
	.st12{fill:#7E52A0;}
</style>
<g>
	<path class="st1" d="M50.7,51.5l-0.3,0c-0.7-0.2-1.2-0.9-1.1-1.6l4.9-23.6l-10.4-5.7c-0.7-0.4-0.9-1.2-0.5-1.9
		c0.4-0.7,1.2-0.9,1.9-0.5l11.3,6.2c0.5,0.3,0.8,0.9,0.7,1.5l-5.1,24.6C51.9,51.1,51.4,51.5,50.7,51.5z"/>
	<path class="st11" d="M59.8,55.3c-3.2,0-6.4-0.7-9-2.2l-1.5-0.9c-4.9-2.7-11.9-2.4-16.3,0.5c-0.6,0.4-1.5,0.3-1.9-0.4
		c-0.4-0.6-0.3-1.5,0.4-1.9c5.2-3.5,13.5-3.8,19.2-0.7l1.5,0.9c4.4,2.4,10.7,2.5,15.2,0.1l0.8-0.4c0.7-0.4,1.5-0.1,1.9,0.6
		c0.4,0.7,0.1,1.5-0.6,1.9l-0.8,0.4C66,54.6,62.9,55.3,59.8,55.3z"/>
	<path class="st1" d="M64.7,84.4h-28c-6.7,0-12.1-5.4-12.1-12.1V19.8c0-0.8,0.6-1.4,1.4-1.4h12.4c0.8,0,1.4,0.6,1.4,1.4v18.3h22.1
		V19.8c0-0.8,0.6-1.4,1.4-1.4h12.1c0.8,0,1.4,0.6,1.4,1.4v52.5C76.7,78.9,71.3,84.4,64.7,84.4z M27.3,21.1v51.1
		c0,5.1,4.2,9.3,9.3,9.3h28c5.1,0,9.3-4.2,9.3-9.3V21.1h-9.3v18.3c0,0.8-0.6,1.4-1.4,1.4H38.4c-0.8,0-1.4-0.6-1.4-1.4V21.1H27.3z"/>
	<path class="st11" d="M36.6,77.1c-0.3,0-0.5-0.1-0.7-0.3l-3.7-3.7c-0.2-0.2-0.3-0.5-0.3-0.7c0-0.3,0.1-0.5,0.3-0.7
		c0.4-0.4,1.1-0.4,1.5,0l3,3l4.6-4.6l-4.8-4.8v0c-0.2-0.2-0.3-0.5-0.3-0.7c0-0.3,0.1-0.5,0.3-0.7c0.4-0.4,1.1-0.4,1.5,0l5.5,5.5
		c0.2,0.2,0.3,0.5,0.3,0.7c0,0.3-0.1,0.5-0.3,0.7l-6,6C37.1,77,36.8,77.1,36.6,77.1z M31.2,70.5c-0.3,0-0.5-0.1-0.7-0.3
		c-0.4-0.4-0.4-1.1,0-1.5c0.4-0.4,1.1-0.4,1.5,0c0.4,0.4,0.4,1.1,0,1.5C31.7,70.4,31.5,70.5,31.2,70.5z M34.1,67.5
		c-0.3,0-0.5-0.1-0.7-0.3c-0.4-0.4-0.4-1.1,0-1.5s1.1-0.4,1.5,0s0.4,1.1,0,1.5C34.6,67.4,34.4,67.5,34.1,67.5z"/>
	<path class="st11" d="M65.9,78.9c-0.2,0-0.3,0-0.5-0.1l-4.3-2.2c-0.5-0.2-0.7-0.9-0.5-1.4c0.2-0.5,0.9-0.7,1.4-0.5l3.4,1.7l1.7-3.4
		v0c0.3-0.5,0.9-0.7,1.4-0.5c0.5,0.3,0.7,0.9,0.5,1.4l-2.2,4.3c-0.1,0.2-0.3,0.4-0.6,0.5L65.9,78.9z M58.2,75.1
		c-0.2,0-0.3,0-0.5-0.1c-0.2-0.1-0.4-0.3-0.5-0.6c-0.1-0.3-0.1-0.6,0.1-0.8l3.8-7.6c0.2-0.5,0.9-0.7,1.4-0.5l1,0.5
		c0.5,0.2,0.7,0.9,0.5,1.4c-0.2,0.5-0.9,0.7-1.4,0.5l-0.1-0.1l-3.3,6.7v0C59,74.9,58.6,75.1,58.2,75.1z M69.3,72.1
		c-0.2,0-0.3,0-0.5-0.1c-0.2-0.1-0.4-0.3-0.5-0.6s-0.1-0.5,0.1-0.8c0.2-0.5,0.9-0.7,1.4-0.5c0.2,0.1,0.4,0.3,0.5,0.6
		c0.1,0.3,0.1,0.5-0.1,0.8C70,71.9,69.7,72.1,69.3,72.1z M66.8,69.9c-0.2,0-0.3,0-0.5-0.1c-0.2-0.1-0.4-0.3-0.5-0.6
		c-0.1-0.3-0.1-0.5,0.1-0.8c0.2-0.5,0.9-0.7,1.4-0.5c0.5,0.2,0.7,0.9,0.5,1.4C67.5,69.6,67.2,69.9,66.8,69.9z"/>
	<path class="st11" d="M50.7,70.2c-0.3,0-0.6-0.1-0.8-0.4l-5.4-6.6c-0.2-0.2-0.3-0.5-0.2-0.8c0-0.3,0.2-0.5,0.4-0.7l0.9-0.7
		c0.4-0.3,1.1-0.3,1.5,0.2c0.4,0.4,0.3,1.1-0.2,1.5l-0.1,0.1l4.7,5.8l0,0c0.2,0.2,0.2,0.5,0.2,0.7c0,0.3-0.2,0.5-0.4,0.7
		C51.2,70.1,50.9,70.2,50.7,70.2z M53.5,67.9c-0.3,0-0.6-0.1-0.8-0.4c-0.2-0.2-0.2-0.5-0.2-0.8c0-0.3,0.2-0.5,0.4-0.7l2.9-2.4
		l-2.4-2.9c-0.2-0.2-0.2-0.5-0.2-0.8c0-0.3,0.2-0.5,0.4-0.7c0.4-0.3,1.1-0.3,1.5,0.1l3.1,3.8c0.2,0.2,0.2,0.5,0.2,0.8
		c0,0.3-0.2,0.5-0.4,0.7l-3.7,3.1C54,67.8,53.8,67.9,53.5,67.9z M49.4,60.3c-0.3,0-0.6-0.1-0.8-0.4c-0.4-0.4-0.3-1.1,0.2-1.5
		c0.4-0.4,1.1-0.3,1.5,0.1c0.4,0.4,0.3,1.1-0.2,1.5C49.9,60.2,49.6,60.3,49.4,60.3z M52.5,58.9c-0.3,0-0.6-0.1-0.8-0.4
		c-0.2-0.2-0.3-0.5-0.2-0.8c0-0.3,0.2-0.5,0.4-0.7c0.4-0.3,1.1-0.3,1.5,0.1c0.2,0.2,0.3,0.5,0.2,0.8c0,0.3-0.2,0.5-0.4,0.7
		C53,58.9,52.7,58.9,52.5,58.9z"/>
</g>
</svg>
