<?xml version="1.0" encoding="utf-8"?>
<!-- Generator: Adobe Illustrator 19.1.0, SVG Export Plug-In . SVG Version: 6.00 Build 0)  -->
<svg version="1.1" id="Layer_1" xmlns="http://www.w3.org/2000/svg" xmlns:xlink="http://www.w3.org/1999/xlink" x="0px" y="0px"
	 viewBox="0 0 100 100" style="enable-background:new 0 0 100 100;" xml:space="preserve">
<style type="text/css">
	.st0{fill:#FFD113;}
	.st1{fill:#231F20;}
	.st2{fill:#EE3F24;}
	.st3{fill:#FFD111;}
	.st4{fill:#FCD10F;}
	.st5{fill:#39B44A;}
	.st6{fill:#3CB44A;}
	.st7{fill:#7E51A0;}
	.st8{fill:#DCA3C9;}
	.st9{fill:#F6C8A0;}
	.st10{fill:#AED69A;}
	.st11{fill:#B68058;}
	.st12{fill:#7E52A0;}
</style>
<g>
	<path class="st6" d="M37.6,80L37.6,80L37.6,80c-0.3,0-0.5-0.1-0.7-0.3L34,76.9l0,0c-0.4-0.4-0.4-1,0-1.5c0.4-0.4,1.1-0.4,1.5,0
		l2.2,2.1l2.1-2.1c0.4-0.4,1.1-0.4,1.5,0c0.2,0.2,0.3,0.5,0.3,0.7c0,0.3-0.1,0.5-0.3,0.7l-2.8,2.9C38.2,79.9,37.9,80,37.6,80z
		 M31.8,74.3c-0.3,0-0.5-0.1-0.7-0.3c-0.2-0.2-0.3-0.4-0.3-0.7c0-0.3,0.1-0.5,0.3-0.7c0.4-0.4,1.1-0.4,1.5,0
		c0.2,0.2,0.3,0.5,0.3,0.7c0,0.3-0.1,0.5-0.3,0.7C32.3,74.2,32,74.3,31.8,74.3z M28.8,71.4c-0.3,0-0.5-0.1-0.7-0.3
		c-0.2-0.2-0.3-0.4-0.3-0.7c0-0.3,0.1-0.5,0.3-0.7c0.4-0.4,1.1-0.4,1.5,0c0.4,0.4,0.4,1.1,0,1.5C29.3,71.3,29.1,71.4,28.8,71.4z
		 M25.8,68.5c-0.3,0-0.5-0.1-0.7-0.3l-4-3.9c-0.2-0.2-0.3-0.5-0.3-0.7c0-0.3,0.1-0.5,0.3-0.7l2.8-2.9c0.4-0.4,1.1-0.4,1.5,0
		c0.4,0.4,0.4,1.1,0,1.5l-2.1,2.1l3.3,3.2c0.4,0.4,0.4,1.1,0,1.5C26.4,68.4,26.1,68.5,25.8,68.5z"/>
	<path class="st6" d="M76.3,39.3c-0.3,0-0.5-0.1-0.7-0.3c-0.2-0.2-0.3-0.5-0.3-0.7c0-0.3,0.1-0.5,0.3-0.7l2.1-2.1l-2.3-2.3
		C75.1,33,75,32.7,75,32.4c0-0.3,0.1-0.5,0.3-0.7c0.4-0.4,1.1-0.4,1.5,0l3,3c0.2,0.2,0.3,0.5,0.3,0.7c0,0.3-0.1,0.5-0.3,0.7L77,39
		C76.8,39.2,76.6,39.3,76.3,39.3z M72.1,29.6c-0.3,0-0.5-0.1-0.7-0.3c-0.4-0.4-0.4-1.1,0-1.5c0.4-0.4,1.1-0.4,1.5,0
		c0.2,0.2,0.3,0.5,0.3,0.7c0,0.3-0.1,0.5-0.3,0.7C72.7,29.5,72.4,29.6,72.1,29.6z M69.2,26.7c-0.3,0-0.5-0.1-0.7-0.3
		c-0.2-0.2-0.3-0.4-0.3-0.7c0-0.3,0.1-0.5,0.3-0.7c0.4-0.4,1.1-0.4,1.5,0c0.4,0.4,0.4,1.1,0,1.5C69.7,26.6,69.4,26.7,69.2,26.7z
		 M60.5,23.8c-0.3,0-0.5-0.1-0.7-0.3c-0.4-0.4-0.4-1.1,0-1.5l2.8-2.9c0.4-0.4,1.1-0.4,1.5,0l2.9,2.8c0.4,0.4,0.4,1.1,0,1.5
		c-0.4,0.4-1.1,0.4-1.5,0l-2.2-2.1l-2.1,2.2C61,23.7,60.8,23.8,60.5,23.8z"/>
	<path class="st1" d="M41.1,89.2c-2.2,0-4.3-0.9-5.9-2.4L14.4,65.8c-3.2-3.2-3.2-8.5,0-11.7l39.5-39.5c1.6-1.6,3.6-2.4,5.9-2.4
		s4.3,0.9,5.9,2.4l20.9,20.9c1.6,1.6,2.4,3.6,2.4,5.9s-0.9,4.3-2.4,5.9L47,86.7C45.4,88.3,43.3,89.2,41.1,89.2z M59.7,14.9
		c-1.5,0-2.9,0.6-3.9,1.6L16.3,56.1c-2.2,2.2-2.2,5.7,0,7.8l20.9,20.9c1,1,2.4,1.6,3.9,1.6s2.9-0.6,3.9-1.6l39.5-39.5
		c1-1,1.6-2.4,1.6-3.9s-0.6-2.9-1.6-3.9L63.7,16.5C62.6,15.5,61.2,14.9,59.7,14.9z"/>
	<path class="st1" d="M44.5,77.9c-0.9,0-1.8-0.1-2.6-0.4c-2.1-0.7-3.9-2.2-4.9-4.2c-1-2-1.2-4.3-0.5-6.5c1.5-4.4,6.3-6.9,10.7-5.4
		c4.4,1.5,6.9,6.2,5.4,10.7C51.4,75.7,48.1,77.9,44.5,77.9z M44.5,63.1c-2.7,0-5.2,1.7-6.1,4.4c-0.5,1.6-0.4,3.4,0.4,4.9
		c0.8,1.5,2.1,2.7,3.7,3.2c3.4,1.1,7-0.7,8.1-4.1c1.1-3.3-0.7-7-4.1-8.1C45.9,63.2,45.2,63.1,44.5,63.1z"/>
	<path class="st0" d="M44.5,73.7c-0.4,0-0.9-0.1-1.3-0.2c-2.2-0.7-3.4-3.1-2.7-5.3c0.7-2.2,3.1-3.4,5.3-2.7c1.1,0.3,1.9,1.1,2.4,2.1
		s0.6,2.1,0.2,3.2C47.9,72.5,46.3,73.7,44.5,73.7z M44.5,67.3c-0.9,0-1.7,0.6-2,1.5c-0.4,1.1,0.2,2.3,1.4,2.7v0
		c1.1,0.4,2.3-0.2,2.7-1.4c0.2-0.5,0.1-1.1-0.1-1.6c-0.3-0.5-0.7-0.9-1.2-1.1C45,67.4,44.7,67.3,44.5,67.3z"/>
	<path class="st1" d="M31.2,64.5c-0.9,0-1.8-0.1-2.6-0.4v0c-2.1-0.7-3.9-2.2-4.9-4.2c-1-2-1.2-4.3-0.5-6.5c0.7-2.1,2.2-3.9,4.2-4.9
		c2-1,4.3-1.2,6.5-0.5c2.1,0.7,3.9,2.2,4.9,4.2c1,2,1.2,4.3,0.5,6.5c-0.7,2.1-2.2,3.9-4.2,4.9C33.8,64.2,32.5,64.5,31.2,64.5z
		 M29.2,62.1c1.6,0.5,3.4,0.4,4.9-0.4c1.5-0.8,2.7-2.1,3.2-3.7c0.5-1.6,0.4-3.4-0.4-4.9c-0.8-1.5-2.1-2.7-3.7-3.2
		c-1.6-0.5-3.4-0.4-4.9,0.4c-1.5,0.8-2.7,2.1-3.2,3.7c-0.5,1.6-0.4,3.4,0.4,4.9S27.6,61.6,29.2,62.1L29.2,62.1z"/>
	<path class="st0" d="M31.2,60.2c-0.4,0-0.9-0.1-1.3-0.2v0c-2.2-0.7-3.4-3.1-2.7-5.3c0.7-2.2,3.1-3.4,5.3-2.7
		c1.1,0.3,1.9,1.1,2.4,2.1c0.5,1,0.6,2.1,0.2,3.2C34.6,59.1,33,60.2,31.2,60.2z M30.6,58.1c1.1,0.4,2.3-0.2,2.7-1.4
		c0.2-0.5,0.1-1.1-0.1-1.6c-0.3-0.5-0.7-0.9-1.2-1.1c-1.1-0.4-2.3,0.2-2.7,1.4C28.8,56.5,29.4,57.7,30.6,58.1z"/>
	<path class="st1" d="M57.3,65.3c-0.9,0-1.8-0.1-2.6-0.4c-4.4-1.5-6.9-6.2-5.4-10.7c1.5-4.4,6.2-6.9,10.7-5.4
		c4.4,1.5,6.9,6.2,5.4,10.7C64.2,63,60.8,65.3,57.3,65.3z M55.3,62.9c3.4,1.1,7-0.7,8.1-4.1c1.1-3.3-0.7-7-4.1-8.1
		c-3.4-1.1-7,0.7-8.1,4.1C50.1,58.2,51.9,61.8,55.3,62.9z"/>
	<path class="st0" d="M57.3,61c-0.4,0-0.9-0.1-1.3-0.2c-1.1-0.3-1.9-1.1-2.4-2.1c-0.5-1-0.6-2.1-0.2-3.2c0.7-2.2,3.1-3.4,5.3-2.7
		c2.2,0.7,3.4,3.1,2.7,5.3c-0.3,1.1-1.1,1.9-2.1,2.4C58.6,60.9,57.9,61,57.3,61z M57.3,54.7c-0.9,0-1.7,0.6-2,1.5
		c-0.2,0.5-0.1,1.1,0.1,1.6c0.3,0.5,0.7,0.9,1.2,1.1c0.5,0.2,1.1,0.1,1.6-0.1c0.5-0.3,0.9-0.7,1.1-1.2c0.4-1.1-0.2-2.3-1.4-2.7
		C57.7,54.7,57.5,54.7,57.3,54.7z"/>
	<path class="st1" d="M44,51.9c-0.9,0-1.8-0.1-2.6-0.4c-4.4-1.5-6.9-6.2-5.4-10.7c1.5-4.4,6.2-6.9,10.7-5.4c2.1,0.7,3.9,2.2,4.9,4.2
		c1,2,1.2,4.3,0.5,6.5c-0.7,2.1-2.2,3.9-4.2,4.9C46.6,51.6,45.3,51.9,44,51.9z M44,37c-2.7,0-5.2,1.7-6.1,4.4
		c-1.1,3.3,0.7,7,4.1,8.1l0,0c1.6,0.5,3.4,0.4,4.9-0.4c1.5-0.8,2.7-2.1,3.2-3.7c0.5-1.6,0.4-3.4-0.4-4.9c-0.8-1.5-2.1-2.7-3.7-3.2
		C45.3,37.1,44.6,37,44,37z"/>
	<path class="st0" d="M44,47.6c-0.4,0-0.9-0.1-1.3-0.2v0c-1.1-0.3-1.9-1.1-2.4-2.1s-0.6-2.1-0.2-3.2c0.7-2.2,3.1-3.4,5.3-2.7
		c2.2,0.7,3.4,3.1,2.7,5.3c-0.3,1.1-1.1,1.9-2.1,2.4C45.3,47.4,44.6,47.6,44,47.6z M43.3,45.4c0.5,0.2,1.1,0.1,1.6-0.1
		c0.5-0.3,0.9-0.7,1.1-1.2c0.4-1.1-0.2-2.3-1.4-2.7c-1.1-0.4-2.3,0.2-2.7,1.4c-0.2,0.5-0.1,1.1,0.1,1.6
		C42.3,44.9,42.8,45.2,43.3,45.4z"/>
	<path class="st1" d="M70.1,52.6c-0.9,0-1.8-0.1-2.6-0.4l0,0C63,50.8,60.5,46,62,41.5c0.7-2.1,2.2-3.9,4.2-4.9c2-1,4.3-1.2,6.5-0.5
		c2.1,0.7,3.9,2.2,4.9,4.2c1,2,1.2,4.3,0.5,6.5c-0.7,2.1-2.2,3.9-4.2,4.9C72.7,52.3,71.4,52.6,70.1,52.6z M68.1,50.2
		c1.6,0.5,3.4,0.4,4.9-0.4c1.5-0.8,2.7-2.1,3.2-3.7c0.5-1.6,0.4-3.4-0.4-4.9c-0.8-1.5-2.1-2.7-3.7-3.2c-1.6-0.5-3.4-0.4-4.9,0.4
		c-1.5,0.8-2.7,2.1-3.2,3.7C62.9,45.5,64.7,49.1,68.1,50.2L68.1,50.2z"/>
	<path class="st0" d="M70.1,48.4c-0.4,0-0.9-0.1-1.3-0.2c-2.2-0.7-3.4-3.1-2.7-5.3c0.3-1.1,1.1-1.9,2.1-2.4c1-0.5,2.1-0.6,3.2-0.2
		c1.1,0.3,1.9,1.1,2.4,2.1c0.5,1,0.6,2.1,0.2,3.2c-0.3,1.1-1.1,1.9-2.1,2.4C71.3,48.2,70.7,48.4,70.1,48.4z M70,42
		c-0.3,0-0.7,0.1-1,0.2c-0.5,0.3-0.9,0.7-1.1,1.2c-0.4,1.1,0.2,2.3,1.4,2.7l0,0c0.5,0.2,1.1,0.1,1.6-0.1c0.5-0.3,0.9-0.7,1.1-1.2
		c0.2-0.5,0.1-1.1-0.1-1.6c-0.3-0.5-0.7-0.9-1.2-1.1C70.5,42.1,70.3,42,70,42z"/>
	<path class="st1" d="M56.7,39.2c-0.9,0-1.8-0.1-2.6-0.4c-2.1-0.7-3.9-2.2-4.9-4.2c-1-2-1.2-4.3-0.5-6.5c0.7-2.1,2.2-3.9,4.2-4.9
		c2-1,4.3-1.2,6.5-0.5c2.1,0.7,3.9,2.2,4.9,4.2c1,2,1.2,4.3,0.5,6.5s-2.2,3.9-4.2,4.9C59.4,38.9,58.1,39.2,56.7,39.2z M56.7,24.3
		c-1,0-2,0.2-2.9,0.7c-1.5,0.8-2.7,2.1-3.2,3.7c-0.5,1.6-0.4,3.4,0.4,4.9s2.1,2.7,3.7,3.2c1.6,0.5,3.4,0.4,4.9-0.4
		c1.5-0.8,2.7-2.1,3.2-3.7c0.5-1.6,0.4-3.4-0.4-4.9c-0.8-1.5-2.1-2.7-3.7-3.2C58.1,24.4,57.4,24.3,56.7,24.3z"/>
	<path class="st0" d="M56.7,34.9c-0.4,0-0.9-0.1-1.3-0.2c-2.2-0.7-3.4-3.1-2.7-5.3c0.7-2.2,3.1-3.4,5.3-2.7c2.2,0.7,3.4,3.1,2.7,5.3
		c-0.3,1.1-1.1,1.9-2.1,2.4C58,34.8,57.4,34.9,56.7,34.9z M56.7,28.6c-0.9,0-1.7,0.6-2,1.5c-0.4,1.1,0.2,2.3,1.4,2.7l0,0
		c0.5,0.2,1.1,0.1,1.6-0.1c0.5-0.3,0.9-0.7,1.1-1.2c0.4-1.1-0.2-2.3-1.4-2.7C57.2,28.7,57,28.6,56.7,28.6z"/>
</g>
</svg>
