<?xml version="1.0" encoding="utf-8"?>
<!-- Generator: Adobe Illustrator 19.1.0, SVG Export Plug-In . SVG Version: 6.00 Build 0)  -->
<svg version="1.1" id="Layer_1" xmlns="http://www.w3.org/2000/svg" xmlns:xlink="http://www.w3.org/1999/xlink" x="0px" y="0px"
	 viewBox="0 0 100 100" style="enable-background:new 0 0 100 100;" xml:space="preserve">
<style type="text/css">
	.st0{fill:#FFD113;}
	.st1{fill:#231F20;}
	.st2{fill:#EE3F24;}
	.st3{fill:#FFD111;}
	.st4{fill:#FCD10F;}
	.st5{fill:#39B44A;}
	.st6{fill:#3CB44A;}
	.st7{fill:#7E51A0;}
	.st8{fill:#DCA3C9;}
	.st9{fill:#F6C8A0;}
	.st10{fill:#AED69A;}
	.st11{fill:#B68058;}
	.st12{fill:#7E52A0;}
</style>
<g>
	<path class="st2" d="M40.2,44.5c-1.7,0-2.7-0.5-3.3-0.9c-0.8-0.6-1.2-1.3-1.3-2.2c-0.1-1.9,3.1-3.4,5-4.1c0.5-0.2,1.1,0.1,1.3,0.6
		c0.2,0.5-0.1,1.1-0.6,1.3c-1.7,0.6-3.5,1.6-3.6,2.1c0,0.1,0.2,0.3,0.4,0.5c0.4,0.2,1.8,1,5,0c0.6-0.2,1.1,0.2,1.3,0.7
		c0.2,0.5-0.2,1.1-0.7,1.3C42.3,44.4,41.2,44.5,40.2,44.5z"/>
	<path class="st2" d="M44.6,49.4h-11c-0.4,0-0.8-0.2-1-0.5c-0.3-0.3-0.4-0.7-0.3-1.1c0.3-2.3,0.2-4.6-0.4-6.8c-0.2-1-0.6-2-1-3
		c-0.8-1.9-0.2-4,1.4-5.3c1.6-1.3,3.8-1.2,5.5,0.1c3.9,3.1,6.6,7.2,7.7,12.1c0.2,0.9,0.4,1.8,0.5,2.9c0,0.4-0.1,0.8-0.3,1.1
		S45,49.4,44.6,49.4z M35.1,46.6H43c-0.1-0.4-0.1-0.7-0.2-1c-1-4.2-3.4-7.9-6.8-10.5c-0.8-0.6-1.6-0.4-2.1,0c-0.5,0.4-0.9,1.1-0.5,2
		c0.5,1.1,0.8,2.2,1.1,3.4C35,42.4,35.2,44.5,35.1,46.6z"/>
	<path class="st6" d="M44.6,49.4L44.6,49.4c-0.8,0-1.4-0.6-1.4-1.4c0-0.8,0.6-1.4,1.4-1.4h2.9c0-0.5,0.1-1,0.1-1.4
		c0-0.8,0.6-1.4,1.4-1.3c0.8,0,1.4,0.7,1.3,1.4c0,1-0.1,1.9-0.2,2.8c-0.1,0.7-0.7,1.3-1.4,1.3H44.6z M39,49.4h-1.4
		c-0.8,0-1.4-0.6-1.4-1.4c0-0.8,0.6-1.4,1.4-1.4H39c0.8,0,1.4,0.6,1.4,1.4C40.4,48.8,39.8,49.4,39,49.4z M33.5,49.4
		c-0.8,0-1.4-0.6-1.4-1.4c0-0.8,0.6-1.4,1.4-1.4s1.4,0.6,1.4,1.4C34.9,48.8,34.3,49.4,33.5,49.4z M29.4,49.4h-1.2
		c-0.7,0-1.3-0.5-1.4-1.3c-0.2-1.7-0.2-3.6-0.2-5.5v-0.3c0-0.8,0.6-1.4,1.4-1.4c0.8,0,1.4,0.6,1.4,1.4v0.3c0,1.4,0,2.7,0.1,4
		c0.7,0,1.3,0.6,1.3,1.4C30.7,48.8,30.1,49.4,29.4,49.4z M49,42.5c-0.7,0-1.4-0.6-1.4-1.4c0-0.8,0.6-1.4,1.4-1.4h0
		c0.7,0,1.4,0.6,1.4,1.4C50.4,41.9,49.7,42.5,49,42.5L49,42.5z M48.7,38.4L48.7,38.4c-0.7,0-1.3-0.6-1.4-1.3c0-0.5-0.1-0.9-0.2-1.3
		c-0.1-0.8,0.4-1.5,1.2-1.5c0.8-0.1,1.5,0.5,1.5,1.2c0.1,0.5,0.1,1,0.2,1.4c0,0.4-0.1,0.7-0.3,1c-0.2,0.3-0.6,0.5-0.9,0.5L48.7,38.4
		z M28.2,38.2l-0.2,0c-0.4,0-0.7-0.2-0.9-0.5c-0.2-0.3-0.3-0.6-0.3-1c0.1-0.6,0.1-1,0.2-1.4c0.1-0.7,0.8-1.3,1.5-1.2
		c0.7,0.1,1.3,0.8,1.2,1.5c-0.1,0.4-0.1,0.8-0.2,1.3C29.5,37.6,28.9,38.2,28.2,38.2z M32,36.1c-0.5,0-0.9-0.2-1.2-0.6
		c-0.2-0.3-0.3-0.7-0.2-1c0.1-0.4,0.3-0.7,0.6-0.9h0c0.1-0.1,0.2-0.1,0.4-0.2c0.1-0.1,0.2-0.3,0.3-0.4c0.6-0.6,0.9-1.3,0.9-1.9
		c0-0.7-0.4-1.5-1.1-2.4c-0.5-0.6-0.4-1.5,0.2-1.9c0.6-0.5,1.5-0.4,1.9,0.2c1.1,1.4,1.7,2.8,1.7,4.1c0,1.8-0.9,3.1-1.7,3.9v0
		c-0.2,0.2-0.4,0.3-0.6,0.4c-0.1,0.2-0.3,0.4-0.5,0.6l0,0C32.5,36,32.2,36.1,32,36.1z M47.4,31.6c-0.6,0-1.1-0.4-1.3-0.9
		c-0.8-2.3-1.9-3.9-3.3-4.9h0c-0.6-0.4-0.8-1.3-0.4-1.9c0.4-0.6,1.3-0.8,1.9-0.4c1.9,1.3,3.4,3.4,4.4,6.3c0.2,0.7-0.1,1.5-0.9,1.8
		C47.7,31.6,47.5,31.6,47.4,31.6z M34.3,25.5c-0.5,0-1-0.3-1.2-0.8c-0.3-0.7-0.1-1.5,0.6-1.9c0.5-0.2,1-0.4,1.5-0.6
		c0.7-0.2,1.5,0.2,1.7,0.9c0.2,0.7-0.2,1.5-0.9,1.7c-0.4,0.1-0.7,0.2-1.1,0.4C34.7,25.5,34.5,25.5,34.3,25.5z M39.7,24.6h-0.2
		c-0.4,0-0.7-0.2-0.9-0.5c-0.2-0.3-0.3-0.6-0.3-1c0.1-0.7,0.8-1.3,1.5-1.2c0.4,0,0.7,0.2,0.9,0.5c0.2,0.3,0.3,0.6,0.3,1
		C41,24.1,40.4,24.6,39.7,24.6z"/>
	<path class="st1" d="M46.2,80H30.7c-3,0-5.5-2.5-5.5-5.5V48c0-0.8,0.6-1.4,1.4-1.4h23.8c0.8,0,1.4,0.6,1.4,1.4v26.4
		C51.7,77.5,49.2,80,46.2,80z M28,49.4v25.1c0,1.5,1.2,2.8,2.8,2.8h15.5c1.5,0,2.8-1.2,2.8-2.8V49.4H28z"/>
	<path class="st2" d="M30,36.7c-1.4,0-3.1-0.6-5-2.5c-1.6-1.6-3-3.8-3.9-5.9c-1.4-3.4-0.6-5.1,0.2-6c0.9-0.9,2.6-1.6,6-0.2
		c2.1,0.8,4.3,2.3,5.9,3.9c4.4,4.4,2,7.7,0.8,8.9C33.2,35.6,31.8,36.7,30,36.7z M23.9,24.1c-0.4,0-0.6,0.1-0.7,0.2
		c-0.2,0.2-0.3,1.2,0.4,3c0.7,1.7,2,3.6,3.3,4.9c2.6,2.6,4,1.8,5,0.8c1-1,1.8-2.4-0.8-5c-1.3-1.3-3.2-2.6-4.9-3.3
		C25.1,24.2,24.4,24.1,23.9,24.1z"/>
	<path class="st6" d="M44.6,74.4c-0.8,0-1.4-0.6-1.4-1.4v-0.6c0-0.8,0.6-1.4,1.4-1.4c0.8,0,1.4,0.6,1.4,1.4V73
		C45.9,73.7,45.3,74.4,44.6,74.4z M44.6,69.6c-0.8,0-1.4-0.6-1.4-1.4c0-0.8,0.6-1.4,1.4-1.4c0.8,0,1.4,0.6,1.4,1.4
		C45.9,69,45.3,69.6,44.6,69.6z M44.6,64.1c-0.8,0-1.4-0.6-1.4-1.4c0-0.8,0.6-1.4,1.4-1.4c0.8,0,1.4,0.6,1.4,1.4
		C45.9,63.5,45.3,64.1,44.6,64.1z M44.6,58.6c-0.8,0-1.4-0.6-1.4-1.4v-4.1c0-0.8,0.6-1.4,1.4-1.4c0.8,0,1.4,0.6,1.4,1.4v4.1
		C45.9,58,45.3,58.6,44.6,58.6z"/>
	<path class="st1" d="M65.8,80c-9.2,0-16.7-7.5-16.7-16.7c0-9.2,7.5-16.7,16.7-16.7s16.7,7.5,16.7,16.7C82.5,72.5,75,80,65.8,80z
		 M65.8,49.4c-7.7,0-13.9,6.2-13.9,13.9s6.2,13.9,13.9,13.9S79.7,71,79.7,63.3S73.5,49.4,65.8,49.4z"/>
	<path class="st2" d="M66.2,68.6c-3.2,0-5.8-2.6-5.8-5.8s2.6-5.8,5.8-5.8c3.2,0,5.8,2.6,5.8,5.8S69.4,68.6,66.2,68.6z M66.2,59.7
		c-1.7,0-3.1,1.4-3.1,3.1c0,1.7,1.4,3.1,3.1,3.1s3.1-1.4,3.1-3.1C69.2,61.1,67.8,59.7,66.2,59.7z"/>
	<path class="st6" d="M63.8,74.6l-0.3,0c-0.4-0.1-0.7-0.3-0.9-0.6c-0.2-0.3-0.3-0.7-0.2-1c0.2-0.7,0.9-1.2,1.6-1.1l0,0
		c0.4,0.1,0.7,0.3,0.9,0.6c0.2,0.3,0.3,0.7,0.2,1C65,74.1,64.4,74.6,63.8,74.6z M67.9,74.6c-0.6,0-1.2-0.5-1.4-1.1
		c-0.1-0.4,0-0.7,0.2-1c0.2-0.3,0.5-0.5,0.9-0.6c0.4-0.1,0.8-0.2,1.1-0.3h0c0.7-0.2,1.5,0.1,1.8,0.8c0.3,0.7-0.1,1.5-0.8,1.8
		c-0.5,0.2-1,0.3-1.5,0.4L67.9,74.6z M60,72.9c-0.3,0-0.6-0.1-0.8-0.2c-2.2-1.5-3.7-3.8-4.4-6.3c-0.2-0.7,0.2-1.5,1-1.7
		c0.7-0.2,1.5,0.2,1.7,1c0.5,1.9,1.7,3.6,3.4,4.8c0.3,0.2,0.5,0.5,0.6,0.9c0.1,0.4,0,0.7-0.2,1C60.9,72.7,60.4,72.9,60,72.9z
		 M73.7,71.1c-0.3,0-0.6-0.1-0.9-0.3c-0.3-0.2-0.5-0.6-0.5-0.9c0-0.4,0.1-0.7,0.3-1c1.3-1.6,2-3.5,2-5.5v0c0-0.2,0.1-0.4,0.2-0.6
		c-0.1-0.2-0.2-0.4-0.2-0.6c0-0.4,0.1-0.7,0.3-1c0.2-0.3,0.5-0.5,0.9-0.5c0.7-0.1,1.5,0.4,1.6,1.2c0,0.3,0,0.6-0.1,0.8
		c0.2,0.2,0.3,0.5,0.3,0.8c0,2.6-0.9,5.2-2.6,7.3C74.5,70.9,74.1,71.1,73.7,71.1z M56,62c-0.1,0-0.2,0-0.4-0.1
		c-0.4-0.1-0.7-0.3-0.8-0.6s-0.2-0.7-0.1-1c0.1-0.5,0.3-1,0.5-1.5c0.3-0.7,1.1-1,1.8-0.7c0.7,0.3,1,1.1,0.7,1.8
		c-0.2,0.4-0.3,0.8-0.4,1.1l0,0C57.2,61.5,56.7,62,56,62z M74.4,59.4c-0.5,0-0.9-0.2-1.2-0.7c-0.2-0.3-0.4-0.7-0.7-1
		c-0.2-0.3-0.3-0.6-0.3-1c0-0.4,0.2-0.7,0.5-0.9c0.6-0.5,1.5-0.4,1.9,0.2c0.3,0.4,0.6,0.8,0.9,1.3c0.4,0.6,0.2,1.5-0.5,1.9
		C74.9,59.3,74.7,59.4,74.4,59.4z M58.9,57.3c-0.4,0-0.7-0.2-1-0.4c-0.5-0.6-0.5-1.4,0.1-1.9c0.5-0.5,1.5-0.5,2,0.1
		c0.5,0.6,0.5,1.4-0.1,2l0,0C59.6,57.2,59.2,57.3,58.9,57.3z M62.4,55.1c-0.6,0-1.1-0.4-1.3-0.9c-0.1-0.3-0.1-0.7,0-1
		c0.2-0.3,0.4-0.6,0.8-0.7c2.5-0.9,5.3-0.9,7.7,0c0.7,0.3,1.1,1,0.8,1.8c-0.2,0.7-1,1.1-1.8,0.8c-1.9-0.7-4-0.6-5.8,0
		C62.7,55.1,62.5,55.1,62.4,55.1z"/>
	<path class="st1" d="M70.5,49.8c-1.5,0-2.7-0.2-3-0.3c-0.7-0.2-1.2-0.9-1.1-1.6c0.2-0.7,0.9-1.2,1.6-1.1c1.1,0.2,4.5,0.6,5.9-0.6
		c0.3-0.2,0.7-0.7,0.7-1.7c0-0.8,0.6-1.4,1.4-1.4c0.8,0,1.4,0.6,1.4,1.4c0,1.6-0.6,2.9-1.7,3.8C74.3,49.5,72.2,49.8,70.5,49.8z"/>
</g>
</svg>
