<?xml version="1.0" encoding="utf-8"?>
<!-- Generator: Adobe Illustrator 19.1.0, SVG Export Plug-In . SVG Version: 6.00 Build 0)  -->
<svg version="1.1" id="Layer_1" xmlns="http://www.w3.org/2000/svg" xmlns:xlink="http://www.w3.org/1999/xlink" x="0px" y="0px"
	 viewBox="0 0 100 100" style="enable-background:new 0 0 100 100;" xml:space="preserve">
<style type="text/css">
	.st0{fill:#FFD113;}
	.st1{fill:#231F20;}
	.st2{fill:#EE3F24;}
	.st3{fill:#FFD111;}
	.st4{fill:#FCD10F;}
	.st5{fill:#39B44A;}
	.st6{fill:#3CB44A;}
	.st7{fill:#7E51A0;}
	.st8{fill:#DCA3C9;}
	.st9{fill:#F6C8A0;}
	.st10{fill:#AED69A;}
	.st11{fill:#B68058;}
	.st12{fill:#7E52A0;}
</style>
<g>
	<path class="st2" d="M31,61.7c-0.2,0-0.5-0.1-0.7-0.2c-2.2-1.3-5.7-1.3-5.7-1.3c-0.8,0-1.4-0.6-1.4-1.3s0.6-1.4,1.3-1.4
		c0.2,0,4.4-0.1,7.3,1.7c0.7,0.4,0.9,1.2,0.5,1.9C31.9,61.4,31.4,61.7,31,61.7z"/>
	<path class="st2" d="M48.3,63.6c-2.8,0-4.7-0.2-4.8-0.2c-0.8-0.1-1.3-0.8-1.2-1.5c0.1-0.8,0.8-1.3,1.5-1.2c0,0,4.3,0.4,9,0
		c0.8-0.1,1.4,0.5,1.5,1.2c0.1,0.8-0.5,1.4-1.2,1.5C51.4,63.6,49.7,63.6,48.3,63.6z"/>
	<path class="st2" d="M65.7,62.7c-0.8,0-1.4-0.6-1.4-1.4c0-0.8,0.6-1.4,1.4-1.4c0,0,3.9-0.1,7.4-2.4c0.6-0.4,1.5-0.2,1.9,0.4
		c0.4,0.6,0.2,1.5-0.4,1.9C70.4,62.6,65.9,62.7,65.7,62.7L65.7,62.7z"/>
	<path class="st1" d="M59.8,88.5c-0.2,0-0.4,0-0.6-0.1L19.5,68.8c-0.7-0.3-1-1.2-0.6-1.9l22.6-45.8c0.3-0.7,1.2-1,1.9-0.6L83,40.1
		c0.3,0.2,0.6,0.4,0.7,0.8c0.1,0.3,0.1,0.7-0.1,1.1L61.1,87.7c-0.2,0.3-0.4,0.6-0.8,0.7C60.1,88.4,60,88.5,59.8,88.5z M22,66.9
		l37.2,18.3L80.5,42L43.3,23.6L22,66.9z"/>
	<path class="st1" d="M52.8,32.2c-0.2,0-0.4,0-0.6-0.1c-0.7-0.3-1-1.2-0.6-1.9l8.2-16.6c0.3-0.7,1.2-1,1.9-0.6
		c0.7,0.3,1,1.2,0.6,1.9L54,31.4C53.8,31.9,53.3,32.2,52.8,32.2z"/>
	<path class="st1" d="M49.4,45.6c-1.2,0-2.4-0.3-3.5-0.8c-1.9-0.9-3.3-2.6-4-4.6c-0.7-2-0.5-4.2,0.4-6.1s2.6-3.3,4.6-4
		c2-0.7,4.2-0.5,6.1,0.4c1.9,0.9,3.3,2.6,4,4.6c0.7,2,0.5,4.2-0.4,6.1s-2.6,3.3-4.6,4C51.1,45.5,50.3,45.6,49.4,45.6z M49.4,32.5
		c-1.9,0-3.8,1.1-4.7,2.9c-0.6,1.2-0.7,2.6-0.3,4c0.4,1.3,1.4,2.4,2.6,3c2.6,1.3,5.7,0.2,6.9-2.4c0.6-1.2,0.7-2.6,0.3-4
		c-0.4-1.3-1.4-2.4-2.6-3C51,32.7,50.2,32.5,49.4,32.5z"/>
	<path class="st1" d="M43.2,58.1c-1.2,0-2.4-0.3-3.5-0.8c-3.9-1.9-5.6-6.7-3.6-10.6c0.9-1.9,2.6-3.3,4.6-4c2-0.7,4.2-0.5,6.1,0.4
		c1.9,0.9,3.3,2.6,4,4.6c0.7,2,0.5,4.2-0.4,6.1C49,56.5,46.2,58.1,43.2,58.1z M43.3,45c-1.9,0-3.8,1.1-4.7,2.9
		c-1.3,2.6-0.2,5.7,2.4,6.9c2.6,1.3,5.7,0.2,6.9-2.4v0c1.3-2.6,0.2-5.7-2.4-6.9C44.8,45.2,44,45,43.3,45z"/>
	<path class="st1" d="M37.1,70.6c-1.2,0-2.4-0.3-3.5-0.8c-1.9-0.9-3.3-2.6-4-4.6c-0.7-2-0.5-4.2,0.4-6.1c1.9-3.9,6.7-5.6,10.6-3.6
		c3.9,1.9,5.6,6.7,3.6,10.6c-0.9,1.9-2.6,3.3-4.6,4C38.8,70.5,37.9,70.6,37.1,70.6z M37.1,57.5c-1.9,0-3.8,1.1-4.7,2.9
		c-1.3,2.6-0.2,5.7,2.4,6.9c1.2,0.6,2.6,0.7,4,0.3c1.3-0.4,2.4-1.4,3-2.6v0c1.3-2.6,0.2-5.7-2.4-6.9C38.6,57.7,37.9,57.5,37.1,57.5z
		"/>
	<path class="st1" d="M69.1,40.2c-0.2,0-0.4,0-0.6-0.1c-0.7-0.3-1-1.2-0.6-1.9L76,21.6c0.3-0.7,1.2-1,1.9-0.6c0.7,0.3,1,1.2,0.6,1.9
		l-8.2,16.6C70.1,39.9,69.6,40.2,69.1,40.2z"/>
	<path class="st1" d="M65.7,53.7c-1.2,0-2.4-0.3-3.5-0.8c-1.9-0.9-3.3-2.6-4-4.6c-0.7-2-0.5-4.2,0.4-6.1c0.9-1.9,2.6-3.3,4.6-4
		c2-0.7,4.2-0.5,6.1,0.4c1.9,0.9,3.3,2.6,4,4.6c0.7,2,0.5,4.2-0.4,6.1c-0.9,1.9-2.6,3.3-4.6,4C67.4,53.5,66.5,53.7,65.7,53.7z
		 M65.7,40.5c-0.6,0-1.1,0.1-1.7,0.3c-1.3,0.4-2.4,1.4-3,2.6c-1.3,2.6-0.2,5.7,2.4,6.9c1.2,0.6,2.6,0.7,4,0.3c1.3-0.4,2.4-1.4,3-2.6
		v0c1.3-2.6,0.2-5.7-2.4-6.9C67.2,40.7,66.5,40.5,65.7,40.5z"/>
	<path class="st1" d="M59.5,66.2c-1.2,0-2.4-0.3-3.5-0.8c-1.9-0.9-3.3-2.6-4-4.6c-0.7-2-0.5-4.2,0.4-6.1c1.9-3.9,6.7-5.6,10.6-3.6
		c3.9,1.9,5.6,6.7,3.6,10.6v0c-0.9,1.9-2.6,3.3-4.6,4C61.2,66,60.4,66.2,59.5,66.2z M59.5,53c-1.9,0-3.8,1.1-4.7,2.9
		c-0.6,1.2-0.7,2.6-0.3,4c0.4,1.3,1.4,2.4,2.6,3c2.6,1.3,5.7,0.2,6.9-2.4c1.3-2.6,0.2-5.7-2.4-6.9C61.1,53.2,60.3,53,59.5,53z"/>
	<path class="st1" d="M53.3,78.6c-1.2,0-2.4-0.3-3.5-0.8c-1.9-0.9-3.3-2.6-4-4.6c-0.7-2-0.5-4.2,0.4-6.1s2.6-3.3,4.6-4
		c2-0.7,4.2-0.5,6.1,0.4c1.9,0.9,3.3,2.6,4,4.6c0.7,2,0.5,4.2-0.4,6.1C59.1,77,56.3,78.6,53.3,78.6z M53.4,65.5
		c-1.9,0-3.8,1.1-4.7,2.9c-0.6,1.2-0.7,2.6-0.3,4c0.4,1.3,1.4,2.4,2.6,3c2.6,1.3,5.7,0.2,6.9-2.4c0.6-1.2,0.7-2.6,0.3-4
		c-0.4-1.3-1.4-2.4-2.6-3C54.9,65.7,54.1,65.5,53.4,65.5z"/>
	<path class="st2" d="M36.7,66.4l-0.2,0l0,0c-0.3-0.1-0.5-0.5-0.4-0.9c0.1-0.3,0.6-0.5,0.9-0.4c0.3,0.1,0.5,0.6,0.4,0.9
		C37.2,66.2,37,66.4,36.7,66.4z M34.6,64.7c-0.2,0-0.5-0.1-0.6-0.3c-0.6-1-0.8-2.1-0.8-2.8l0-0.3v0v0c0.1-0.4,0.4-0.6,0.7-0.6
		c0.4,0,0.7,0.4,0.6,0.8v0.2c0,0.3,0,1.2,0.6,2c0.2,0.3,0.1,0.7-0.2,1C34.8,64.7,34.7,64.7,34.6,64.7z"/>
	<path class="st2" d="M51.2,73.7c-0.2,0-0.4-0.1-0.5-0.3c-0.1-0.1-0.2-0.3-0.2-0.5c0-0.2,0.1-0.4,0.3-0.5c0.3-0.2,0.7-0.2,1,0.1
		c0.2,0.3,0.2,0.7-0.1,1C51.5,73.7,51.3,73.7,51.2,73.7z M50.2,71.2L50.2,71.2c-0.2,0-0.4-0.1-0.5-0.2c-0.1-0.1-0.2-0.3-0.2-0.5
		c0-1.5,0.7-2.6,1-3l0,0c0.2-0.3,0.7-0.3,1-0.1c0.2,0.1,0.2,0.3,0.3,0.5c0,0.2,0,0.4-0.1,0.5l0,0c-0.1,0.1-0.2,0.3-0.3,0.6
		c-0.2,0.4-0.4,0.9-0.4,1.5C50.9,70.9,50.6,71.2,50.2,71.2z"/>
</g>
</svg>
