<?xml version="1.0" encoding="utf-8"?>
<!-- Generator: Adobe Illustrator 19.1.0, SVG Export Plug-In . SVG Version: 6.00 Build 0)  -->
<svg version="1.1" id="Layer_1" xmlns="http://www.w3.org/2000/svg" xmlns:xlink="http://www.w3.org/1999/xlink" x="0px" y="0px"
	 viewBox="0 0 100 100" style="enable-background:new 0 0 100 100;" xml:space="preserve">
<style type="text/css">
	.st0{fill:#FFD113;}
	.st1{fill:#231F20;}
	.st2{fill:#EE3F24;}
	.st3{fill:#FFD111;}
	.st4{fill:#FCD10F;}
	.st5{fill:#39B44A;}
	.st6{fill:#3CB44A;}
	.st7{fill:#7E51A0;}
	.st8{fill:#DCA3C9;}
	.st9{fill:#F6C8A0;}
	.st10{fill:#AED69A;}
	.st11{fill:#B68058;}
	.st12{fill:#7E52A0;}
</style>
<g>
	<path class="st1" d="M22.9,52.3l-0.1,0c-0.4-0.1-0.8-0.4-0.9-0.8c-0.1-0.6-0.1-1.1-0.2-1.7c0-0.5,0-1-0.1-1.4
		c-1-5.3,0.5-10.8,4.1-15.1c3.6-4.2,8.7-6.5,13.7-6.3c9.4,0.4,15.3,7.4,16.7,13.7c0.1,0.4-0.1,0.8-0.4,1.1c-0.3,0.2-0.8,0.3-1.1,0.1
		c-0.5-0.2-0.9-0.5-1.4-0.7C42.2,36,29,40.8,23.8,51.7C23.7,52.1,23.3,52.3,22.9,52.3z M38.8,29.1c-4.2,0-8.5,2.1-11.5,5.6
		c-3.2,3.7-4.5,8.5-3.7,13.3C30,38.2,42.6,34.3,53.4,39c-2-4.9-6.8-9.6-14.1-9.9C39.2,29.1,39,29.1,38.8,29.1z"/>
	<path class="st1" d="M30,63.5c-3.1,0-6.1-0.3-9.1-0.9c-0.3-0.1-0.6-0.2-0.8-0.4c-6.3-7.2-7.5-17.4-3.2-26.5
		c2.8-6,7.7-10.5,13.9-12.7c6.2-2.2,12.9-1.9,18.9,0.8c6.2,2.9,11,8.5,13,15.4c0.1,0.4,0,0.8-0.2,1.2c-0.2,0.3-0.6,0.6-1.1,0.6
		c-8.1,0.4-15.3,5.2-18.7,12.6c-1.2,2.5-1.9,5.1-2.1,7.8c-0.1,0.6-0.5,1.1-1.1,1.2C36.4,63.1,33.2,63.5,30,63.5z M21.9,59.9
		c5.2,1,10.7,1.1,16,0c0.3-2.6,1.1-5.2,2.3-7.7c3.6-7.7,10.9-13,19.3-14c-2-5.4-5.9-9.7-10.9-12.1c-5.3-2.5-11.2-2.7-16.7-0.8
		c-5.5,2-9.9,6-12.4,11.3C15.7,44.7,16.7,53.5,21.9,59.9z"/>
	<path class="st1" d="M46.2,69L46,69c-0.4-0.1-0.8-0.4-0.9-0.8C45,67.6,45,67,45,66.5c0-0.5,0-0.9-0.1-1.4
		c-0.9-5.1,0.2-9.8,3.2-13.5c3.3-4.1,8.7-6.7,14.8-7.1c9-0.5,14.8,6.1,16.5,13c0.1,0.4,0,0.8-0.4,1.1c-0.3,0.3-0.8,0.3-1.1,0.1
		c-0.5-0.2-0.9-0.5-1.4-0.7c-11-5.1-24.2-0.4-29.3,10.6C46.9,68.8,46.5,69,46.2,69z M63.8,46.5c-0.3,0-0.6,0-0.9,0
		c-5.5,0.3-10.4,2.6-13.3,6.3c-2.6,3.2-3.5,7.3-2.8,11.8c6.3-9.7,18.9-13.6,29.7-9C74.6,50.7,70.2,46.5,63.8,46.5z"/>
	<path class="st1" d="M50.7,80c-2.2,0-4.4-0.2-6.6-0.7c-0.6-0.1-1.1-0.7-1.1-1.4c0-3.4,0.3-7,1.8-10.4c5.7-12.3,20.4-17.6,32.6-11.8
		c4,1.9,7,4.1,9.2,6.9c0.4,0.5,0.4,1.2,0,1.7c-4.2,5.1-9.9,8.8-18.7,12C62.7,78.2,56.8,80,50.7,80z M45.8,76.7
		c7.4,1.4,14.8-0.7,21.2-3c7.7-2.8,13-6,16.8-10.3c-1.8-2-4.3-3.7-7.4-5.2c-10.9-5.1-23.9-0.4-28.9,10.5
		C46.1,71.3,45.9,74.1,45.8,76.7z"/>
	<path class="st1" d="M30.1,63.6c-3.1,0-6.2-0.4-9.3-1.1c-0.6-0.1-1.1-0.7-1.1-1.4c0-3.4,0.3-7,1.8-10.4C27.3,38.6,42,33.2,54.2,39
		c0.4,0.2,0.8,0.4,1.2,0.6c0.5,0.3,0.8,0.8,0.7,1.3c0,0.6-0.4,1-0.9,1.2c-5.6,2-10.1,6-12.6,11.4c-1.2,2.5-1.9,5.1-2.1,7.8
		c-0.1,0.6-0.5,1.1-1.1,1.2C36.3,63.2,33.2,63.6,30.1,63.6z M22.6,60.1c5.1,1,10.2,1,15.3,0c0.3-2.7,1.1-5.3,2.3-7.7
		c2.4-5,6.3-9.1,11.2-11.5C40.8,36.9,28.9,41.7,24.1,52C22.9,54.6,22.6,57.5,22.6,60.1z"/>
	<path class="st1" d="M44.4,79.2c-0.4,0-0.8-0.2-1-0.5c-6.3-7.2-7.5-17.4-3.2-26.5C45.9,40,60.6,34.6,72.9,40.4
		c8.7,4.1,14.2,13.1,14,23.1c0,0.8-0.6,1.3-1.4,1.4c-0.8,0-1.4-0.6-1.4-1.4c0.2-8.9-4.7-16.9-12.4-20.5c-10.9-5.1-24-0.4-29.1,10.6
		c-3.8,8.1-2.7,17.1,2.8,23.5c0.5,0.6,0.4,1.5-0.1,1.9C45.1,79.1,44.7,79.2,44.4,79.2z"/>
	<circle class="st4" cx="30.7" cy="36" r="1.7"/>
	<circle class="st4" cx="34.7" cy="32.6" r="1.7"/>
	<circle class="st4" cx="39.4" cy="34.1" r="1.7"/>
	<circle class="st4" cx="44.2" cy="32.8" r="1.7"/>
	<circle class="st2" cx="51.6" cy="55.2" r="1.7"/>
	<circle class="st2" cx="54.9" cy="51.5" r="1.7"/>
	<circle class="st2" cx="59.8" cy="51.8" r="1.7"/>
	<circle class="st2" cx="63.8" cy="49.1" r="1.7"/>
	<circle class="st2" cx="68.7" cy="50.5" r="1.7"/>
</g>
</svg>
