<?xml version="1.0" encoding="utf-8"?>
<!-- Generator: Adobe Illustrator 19.1.0, SVG Export Plug-In . SVG Version: 6.00 Build 0)  -->
<svg version="1.1" id="Layer_1" xmlns="http://www.w3.org/2000/svg" xmlns:xlink="http://www.w3.org/1999/xlink" x="0px" y="0px"
	 viewBox="0 0 100 100" style="enable-background:new 0 0 100 100;" xml:space="preserve">
<style type="text/css">
	.st0{fill:#FFD113;}
	.st1{fill:#231F20;}
	.st2{fill:#EE3F24;}
	.st3{fill:#FFD111;}
	.st4{fill:#FCD10F;}
	.st5{fill:#39B44A;}
	.st6{fill:#3CB44A;}
	.st7{fill:#7E51A0;}
	.st8{fill:#DCA3C9;}
	.st9{fill:#F6C8A0;}
	.st10{fill:#AED69A;}
	.st11{fill:#B68058;}
	.st12{fill:#7E52A0;}
</style>
<g>
	<path class="st1" d="M67.1,61.4c-1.2,0-2.4-0.3-3.5-0.8L50,53.8c-1.8-0.9-3.2-2.5-3.9-4.5c-0.7-2-0.5-4.1,0.4-5.9l11.2-22.3
		c1.9-3.8,6.6-5.4,10.4-3.5l13.6,6.8c3.8,1.9,5.4,6.6,3.5,10.4L74,57.2C72.7,59.9,69.9,61.4,67.1,61.4z M64.8,58.1
		c1.2,0.6,2.5,0.7,3.8,0.3c1.3-0.4,2.3-1.3,2.9-2.5l11.2-22.3c1.2-2.5,0.2-5.5-2.2-6.7l-13.6-6.8c-2.5-1.2-5.5-0.2-6.7,2.2L49,44.6
		c-0.6,1.2-0.7,2.5-0.3,3.8c0.4,1.3,1.3,2.3,2.5,2.9L64.8,58.1z"/>
	<path class="st1" d="M68.6,51.7c-0.3,0-0.6-0.1-0.8-0.3l-12.1-9.2c-0.6-0.5-0.7-1.3-0.3-1.9c0.5-0.6,1.3-0.7,1.9-0.3l12.1,9.2
		c0.6,0.5,0.7,1.3,0.3,1.9C69.4,51.5,69,51.7,68.6,51.7z"/>
	<path class="st1" d="M71.8,45c-0.2,0-0.4-0.1-0.6-0.2c-0.5-0.3-0.6-1-0.2-1.5c0.3-0.4,1-0.5,1.5-0.2c0.4,0.3,0.5,1,0.2,1.5
		C72.4,44.8,72.1,45,71.8,45z M68.5,42.5c-0.2,0-0.4-0.1-0.6-0.2c-0.2-0.2-0.4-0.4-0.4-0.7c0-0.3,0-0.6,0.2-0.8
		c0.3-0.4,1-0.5,1.5-0.2c0.2,0.2,0.4,0.4,0.4,0.7c0,0.3,0,0.6-0.2,0.8C69.1,42.3,68.8,42.5,68.5,42.5z M65.2,40
		c-0.2,0-0.4-0.1-0.6-0.2l-5.5-4.2c-0.2-0.2-0.4-0.4-0.4-0.7c0-0.3,0-0.5,0.2-0.8c0.3-0.4,1-0.5,1.5-0.2l5.5,4.2
		c0.2,0.2,0.4,0.4,0.4,0.7c0,0.3,0,0.5-0.2,0.8C65.8,39.8,65.5,40,65.2,40z"/>
	<path class="st1" d="M75,39c-0.3,0-0.6-0.1-0.8-0.3l-12.1-9.2c-0.6-0.5-0.7-1.3-0.3-1.9c0.5-0.6,1.3-0.7,1.9-0.3l12.1,9.2
		c0.6,0.5,0.7,1.3,0.3,1.9C75.9,38.8,75.4,39,75,39z"/>
	<path class="st1" d="M41.3,88.9c-0.2,0-0.4,0-0.6-0.1c-0.7-0.3-1-1.2-0.6-1.9l7.8-15.6c0.3-0.7,1.2-1,1.9-0.6
		c0.7,0.3,1,1.2,0.6,1.9l-7.8,15.6C42.2,88.6,41.8,88.9,41.3,88.9z"/>
	<path class="st5" d="M61.4,70.2c-0.7,0-1.4-0.2-2.1-0.5l-14.7-7.4c-1.1-0.5-1.9-1.5-2.3-2.7c-0.4-1.2-0.3-2.4,0.3-3.5l0.4-0.8
		c0.5-1.1,1.5-1.9,2.7-2.3c1.2-0.4,2.4-0.3,3.5,0.3l14.7,7.4c2.3,1.1,3.2,3.9,2,6.1l-0.4,0.8C65,68.8,64,69.6,62.9,70
		C62.4,70.1,61.9,70.2,61.4,70.2z M47.2,55.7c-0.2,0-0.4,0-0.6,0.1c-0.5,0.2-0.8,0.5-1.1,0.9l-0.4,0.8c-0.2,0.4-0.3,0.9-0.1,1.4
		c0.2,0.5,0.5,0.8,0.9,1.1l14.7,7.4c0.4,0.2,0.9,0.3,1.4,0.1c0.5-0.2,0.8-0.5,1.1-0.9l0.4-0.8c0.4-0.9,0.1-2-0.8-2.4L48,55.9
		C47.7,55.7,47.4,55.7,47.2,55.7z"/>
	<path class="st2" d="M55.7,75.8c-2,0-4-0.7-5.5-2.2l-10.3-9.7c-0.4-0.4-0.6-1.1-0.3-1.6l0.8-1.5c0.3-0.7,1.2-1,1.9-0.6l20.4,10.2
		c0.4,0.2,0.7,0.7,0.8,1.2c0,0.5-0.2,1-0.6,1.2l-2.5,1.7C58.9,75.3,57.3,75.8,55.7,75.8z M44.3,64.3l7.8,7.3
		c1.8,1.7,4.5,1.9,6.6,0.6l0.5-0.4L44.3,64.3z"/>
	<path class="st1" d="M39.9,42H29.1c-0.6,0-1.2,0-1.8-0.1c-0.4,0-0.7-0.2-0.9-0.5c-0.2-0.3-0.3-0.7-0.3-1c0.1-0.7,0.8-1.3,1.6-1.2
		c0.5,0.1,0.9,0.1,1.4,0.1h10.8c0.8,0,1.4,0.6,1.4,1.4C41.3,41.4,40.7,42,39.9,42z M22.7,39.4c-0.4,0-0.8-0.2-1.1-0.5
		c-0.5-0.6-0.3-1.5,0.3-1.9c0.6-0.5,1.5-0.3,1.9,0.3c0.2,0.3,0.3,0.7,0.3,1c-0.1,0.4-0.2,0.7-0.5,0.9C23.3,39.3,23,39.4,22.7,39.4z
		 M21.3,35.5c-0.7,0-1.3-0.5-1.4-1.2c0-0.4,0.1-0.7,0.3-1c0.2-0.3,0.6-0.5,0.9-0.5c0.7-0.1,1.4,0.5,1.5,1.2c0,0.4-0.1,0.7-0.3,1
		c-0.2,0.3-0.6,0.5-0.9,0.5H21.3z M21.3,31.4c-0.8,0-1.4-0.6-1.4-1.4v-8.3c0-1.6-0.1-2.8-0.4-3.8c-0.1-0.4,0-0.7,0.1-1.1
		c0.2-0.3,0.5-0.6,0.8-0.6c0.7-0.2,1.5,0.2,1.7,1c0.4,1.6,0.5,3.2,0.5,4.5V30C22.7,30.8,22,31.4,21.3,31.4z M17.3,15.2l-0.3,0
		c-0.4-0.1-0.7-0.3-0.9-0.6c-0.2-0.3-0.3-0.7-0.2-1c0.2-0.7,0.9-1.2,1.6-1.1l0,0c0.4,0.1,0.7,0.3,0.9,0.6c0.2,0.3,0.3,0.7,0.2,1.1
		C18.5,14.8,17.9,15.2,17.3,15.2z"/>
	<path class="st1" d="M33.2,35.4c-2.2,0-3.9-0.6-4.9-1.9c-0.9-1.1-1.3-2.5-1.3-4.4v-3.2c0-0.8,0.6-1.4,1.4-1.4
		c0.8,0,1.4,0.6,1.4,1.4V29c0,1.2,0.2,2.2,0.7,2.7c0.3,0.4,1,0.9,2.9,0.9h6.7c0.8,0,1.4,0.6,1.4,1.4c0,0.8-0.6,1.4-1.4,1.4H33.2z
		 M28.3,21.7c-0.8,0-1.4-0.6-1.4-1.4c0-0.8,0.6-1.4,1.4-1.4c0.8,0,1.4,0.6,1.4,1.4C29.7,21.1,29.1,21.7,28.3,21.7z"/>
	<path class="st1" d="M39.9,48.1H33c-0.8,0-1.4-0.6-1.4-1.4s0.6-1.4,1.4-1.4h6.9c0.8,0,1.4,0.6,1.4,1.4S40.7,48.1,39.9,48.1z
		 M27.4,48.1c-0.8,0-1.4-0.6-1.4-1.4s0.6-1.4,1.4-1.4c0.8,0,1.4,0.6,1.4,1.4S28.2,48.1,27.4,48.1z M23.3,48.1
		c-0.8,0-1.4-0.6-1.4-1.4s0.6-1.4,1.4-1.4c0.8,0,1.4,0.6,1.4,1.4S24.1,48.1,23.3,48.1z M19.1,48.1l-0.2,0c-1.7-0.2-3.1-1-3.8-2.2
		c-0.7-1-1-2.3-1-4v-0.1c0-0.8,0.6-1.4,1.4-1.4c0.8,0,1.4,0.6,1.4,1.4v0.1c0,1.1,0.2,1.9,0.5,2.5c0.3,0.5,0.8,0.8,1.9,1
		c0.4,0.1,0.7,0.2,0.9,0.5c0.2,0.3,0.3,0.7,0.2,1C20.4,47.5,19.8,48.1,19.1,48.1z M15.5,37.5c-0.8,0-1.4-0.6-1.4-1.4
		c0-0.8,0.6-1.4,1.4-1.4c0.8,0,1.4,0.6,1.4,1.4C16.9,36.9,16.3,37.5,15.5,37.5z"/>
</g>
</svg>
