<?xml version="1.0" encoding="utf-8"?>
<!-- Generator: Adobe Illustrator 19.1.0, SVG Export Plug-In . SVG Version: 6.00 Build 0)  -->
<svg version="1.1" id="Layer_1" xmlns="http://www.w3.org/2000/svg" xmlns:xlink="http://www.w3.org/1999/xlink" x="0px" y="0px"
	 viewBox="0 0 100 100" style="enable-background:new 0 0 100 100;" xml:space="preserve">
<style type="text/css">
	.st0{fill:#FFD113;}
	.st1{fill:#231F20;}
	.st2{fill:#EE3F24;}
	.st3{fill:#FFD111;}
	.st4{fill:#FCD10F;}
	.st5{fill:#39B44A;}
	.st6{fill:#3CB44A;}
	.st7{fill:#7E51A0;}
	.st8{fill:#DCA3C9;}
	.st9{fill:#F6C8A0;}
	.st10{fill:#AED69A;}
	.st11{fill:#B68058;}
	.st12{fill:#7E52A0;}
</style>
<g>
	<path class="st1" d="M42.7,38.5c-0.5,0-1-0.3-1.3-0.8l-7.8-17.5c-0.4-0.9-1.4-1.3-2.3-0.9c-0.4,0.2-0.8,0.5-0.9,1
		c-0.2,0.4-0.1,0.9,0.1,1.3l7.5,14.3c0.4,0.7,0.1,1.5-0.6,1.9c-0.7,0.4-1.5,0.1-1.9-0.6l-7.6-14.4c-0.6-1.1-0.6-2.4-0.2-3.5
		c0.4-1.2,1.3-2.1,2.4-2.6c2.3-1,4.9,0,5.9,2.3L44,36.5c0.3,0.7,0,1.5-0.7,1.8C43.1,38.4,42.9,38.5,42.7,38.5z"/>
	<path class="st1" d="M66.4,85.9H39.4c-0.8,0-1.4-0.6-1.4-1.4v-5.2c0-0.8,0.6-1.4,1.4-1.4s1.4,0.6,1.4,1.4v3.8H65v-3.8
		c0-0.8,0.6-1.4,1.4-1.4c0.8,0,1.4,0.6,1.4,1.4v5.2C67.8,85.3,67.1,85.9,66.4,85.9z"/>
	<path class="st1" d="M68.6,80.8H37.2c-0.7,0-1.3-0.5-1.4-1.2l-4.7-41.6c0-0.4,0.1-0.8,0.3-1.1c0.3-0.3,0.6-0.5,1-0.5h40.8
		c0.4,0,0.8,0.2,1,0.5c0.3,0.3,0.4,0.7,0.3,1.1L70,79.6C69.9,80.3,69.3,80.8,68.6,80.8z M38.4,78h29l4.4-38.9H34.1L38.4,78z"/>
	<path class="st11" d="M58.9,52.2c-2.3,0-4.7-0.8-6.6-2.3L51.3,49c-3.1-2.5-7.5-2.2-10.3,0.5c-0.5,0.5-1.4,0.5-2,0
		c-0.5-0.5-0.5-1.4,0-2c3.8-3.7,9.8-4,14-0.7l1.1,0.9c2.8,2.2,6.7,2.3,9.6,0.1l0.5-0.4c0.6-0.5,1.5-0.3,1.9,0.3
		c0.5,0.6,0.3,1.5-0.3,1.9L65.3,50C63.4,51.5,61.2,52.2,58.9,52.2z"/>
	<path class="st6" d="M47.2,76.1L47.2,76.1L47.2,76.1c-0.8,0-1.4-0.6-1.4-1.4c0-0.4,0.1-0.7,0.4-1c0.3-0.3,0.6-0.4,1-0.4h0
		c0.7,0,1.4,0.6,1.4,1.4C48.6,75.4,48,76,47.2,76.1z M51.4,75.7c-0.7,0-1.3-0.5-1.4-1.2c0-0.4,0.1-0.7,0.3-1
		c0.2-0.3,0.6-0.5,0.9-0.5c0.4,0,0.9-0.1,1.4-0.2h0l0.2,0c0.7,0,1.2,0.5,1.4,1.1c0.1,0.7-0.4,1.5-1.1,1.6c-0.2,0-0.8,0.1-1.6,0.2
		L51.4,75.7z M43.1,75.6L43.1,75.6c-0.2,0-0.3,0-0.5-0.1c-0.3-0.1-0.6-0.4-0.8-0.7c-0.2-0.3-0.2-0.7-0.1-1.1
		c0.2-0.7,1.1-1.1,1.8-0.8c0.3,0.1,0.6,0.4,0.8,0.7c0.2,0.3,0.2,0.7,0,1.1C44.2,75.2,43.7,75.6,43.1,75.6z M40.4,71.1
		c-0.7,0-1.2-0.5-1.4-1.1c-0.3-1.6-0.5-3.4-0.5-5.4c0-0.2,0-0.4,0-0.4v0v0c0-0.7,0.7-1.3,1.4-1.3c0.4,0,0.7,0.2,1,0.4
		c0.2,0.3,0.4,0.6,0.4,1c0,0,0,0.1,0,0.3c0,0.6,0,2.9,0.4,4.9c0.2,0.7-0.3,1.5-1.1,1.6L40.4,71.1z"/>
	<path class="st6" d="M63.8,75.3c-0.3,0-0.7-0.1-0.9-0.4c-4-3.6-8.7-3.7-8.8-3.7c-0.8,0-1.4-0.6-1.4-1.4c0-0.8,0.6-1.4,1.4-1.4
		c0.2,0,5.8,0,10.6,4.4c0.6,0.5,0.6,1.4,0.1,2C64.5,75.1,64.1,75.3,63.8,75.3z"/>
	<path class="st6" d="M45.3,59.8L45.3,59.8c-0.8,0-1.6-0.1-2.3-0.3c-0.4-0.1-0.6-0.3-0.8-0.7c-0.2-0.3-0.2-0.7-0.1-1
		c0.2-0.7,1-1.2,1.7-1c1.2,0.3,2.9,0.2,3.7-0.1c0.5-0.1,0.9-0.2,0.9-0.2h0c0.7-0.3,1.5,0.1,1.8,0.8c0.3,0.7-0.1,1.5-0.8,1.8l0,0
		C48.7,59.4,47.2,59.8,45.3,59.8z M39.7,55.8c-0.6,0-1.1-0.4-1.3-1c-0.1-0.4-0.1-0.7,0.1-1.1c0.2-0.3,0.5-0.6,0.8-0.7
		c0.7-0.2,1.5,0.2,1.7,0.9l0,0c0.2,0.7-0.2,1.5-0.9,1.7C40,55.8,39.8,55.8,39.7,55.8z"/>
	<path class="st6" d="M65.3,68.9L65.3,68.9c-0.4,0-0.7-0.2-1-0.4c-0.2-0.3-0.4-0.6-0.4-1c0,0,0-0.2,0-0.5c0-0.6,0-2-0.2-3.4
		c-0.1-0.4,0-0.7,0.3-1c0.2-0.3,0.5-0.5,0.9-0.5c0.7-0.1,1.5,0.4,1.6,1.2c0.2,1.5,0.3,2.9,0.3,3.8c0,0.3,0,0.5,0,0.5l0,0
		C66.6,68.3,66,68.9,65.3,68.9z M47,67c-0.6,0-1.2-0.4-1.3-1c-0.1-0.3-0.1-0.7,0.1-1.1c0.2-0.3,0.5-0.5,0.8-0.6h0
		c0.7-0.2,1.5,0.2,1.7,1c0.2,0.7-0.2,1.5-1,1.7h0C47.2,67,47.1,67,47,67z M52,64.7c-0.5,0-0.9-0.2-1.1-0.6c-0.4-0.6-0.3-1.5,0.4-1.9
		c0.9-0.6,1.7-1.3,2.2-2.1c0.2-0.2,0.3-0.4,0.4-0.6c0.5-0.6,1.4-0.7,1.9-0.2c0.3,0.2,0.5,0.6,0.5,0.9c0,0.4-0.1,0.7-0.3,1
		c-0.1,0.1-0.2,0.3-0.3,0.4c-0.7,1-1.6,1.9-2.9,2.8C52.6,64.6,52.3,64.7,52,64.7z M62.5,60.2l-0.3,0c-0.4-0.1-0.7-0.3-0.9-0.6
		c-0.2-0.3-0.3-0.7-0.2-1c0.2-0.7,0.9-1.2,1.6-1.1c0.7,0.2,1.2,0.9,1.1,1.6C63.7,59.8,63.1,60.2,62.5,60.2z M58.4,59.7
		c-0.7,0-1.3-0.5-1.4-1.2c0-0.4,0.1-0.7,0.3-1c0.2-0.3,0.6-0.5,0.9-0.5c0.8-0.1,1.5,0.5,1.5,1.2c0,0.4-0.1,0.7-0.3,1
		c-0.2,0.3-0.6,0.5-0.9,0.5H58.4z"/>
</g>
</svg>
