<?xml version="1.0" encoding="utf-8"?>
<!-- Generator: Adobe Illustrator 19.1.0, SVG Export Plug-In . SVG Version: 6.00 Build 0)  -->
<svg version="1.1" id="Layer_1" xmlns="http://www.w3.org/2000/svg" xmlns:xlink="http://www.w3.org/1999/xlink" x="0px" y="0px"
	 viewBox="0 0 100 100" style="enable-background:new 0 0 100 100;" xml:space="preserve">
<style type="text/css">
	.st0{fill:#FFD113;}
	.st1{fill:#231F20;}
	.st2{fill:#EE3F24;}
	.st3{fill:#FFD111;}
	.st4{fill:#FCD10F;}
	.st5{fill:#39B44A;}
	.st6{fill:#3CB44A;}
	.st7{fill:#7E51A0;}
	.st8{fill:#DCA3C9;}
	.st9{fill:#F6C8A0;}
	.st10{fill:#AED69A;}
	.st11{fill:#B68058;}
	.st12{fill:#7E52A0;}
</style>
<g>
	<path class="st1" d="M60.9,38.3c-0.3,0-0.6-0.1-0.9-0.3c-0.6-0.5-0.7-1.4-0.2-1.9l9.7-11.9c0.4-0.5,0.3-1.2-0.2-1.5
		c-0.2-0.2-0.5-0.3-0.8-0.2c-0.3,0-0.6,0.2-0.7,0.4l-7.5,10.6c-0.4,0.6-1.3,0.8-1.9,0.3c-0.6-0.4-0.8-1.3-0.3-1.9l7.5-10.6
		c0.7-0.9,1.6-1.4,2.7-1.5c1.1-0.1,2.1,0.2,2.9,0.9c1.6,1.4,1.9,3.8,0.5,5.4l-9.7,11.9C61.7,38.2,61.3,38.3,60.9,38.3z"/>
	<path class="st1" d="M61,82.7H38.2c-0.8,0-1.4-0.6-1.4-1.4v-5.2c0-0.8,0.6-1.4,1.4-1.4c0.8,0,1.4,0.6,1.4,1.4v3.8h20.1v-3.8
		c0-0.8,0.6-1.4,1.4-1.4c0.8,0,1.4,0.6,1.4,1.4v5.2C62.4,82.1,61.8,82.7,61,82.7z"/>
	<path class="st1" d="M58.2,71.6l-0.2,0c-0.6-0.1-0.9-0.7-0.8-1.2l0.2-0.8c0.1-0.5,0.7-0.9,1.2-0.8c0.6,0.1,0.9,0.7,0.8,1.2
		l-0.2,0.8C59.1,71.3,58.7,71.6,58.2,71.6z M59.2,66.8l-0.2,0c-0.6-0.1-0.9-0.7-0.8-1.2c0.1-0.5,0.7-0.9,1.2-0.8
		c0.6,0.1,0.9,0.7,0.8,1.2C60.1,66.5,59.7,66.8,59.2,66.8z M60.1,62.8l-0.2,0c-0.6-0.1-0.9-0.7-0.8-1.2c0.1-0.6,0.7-0.9,1.2-0.8
		c0.6,0.1,0.9,0.7,0.8,1.2C61,62.4,60.6,62.8,60.1,62.8z M61,58.7l-0.2,0c-0.6-0.1-0.9-0.7-0.8-1.2l1.5-6.7c0.1-0.6,0.7-0.9,1.2-0.8
		c0.6,0.1,0.9,0.7,0.8,1.2L62,57.9C61.9,58.4,61.5,58.7,61,58.7z"/>
	<path class="st1" d="M49.9,40.2c-0.4,0-0.7-0.1-1-0.4c-2-2-4.8-2.9-7.8-2.2c-0.7,0.2-1.3-0.2-1.6-0.8c-0.6-1.3-0.8-2.7-0.8-4.2
		c0-6,4.9-10.9,10.9-10.9c6,0,10.9,4.9,10.9,10.9c0,1.4-0.3,2.7-0.8,4c-0.2,0.6-0.9,1-1.5,0.8c-0.5-0.1-1-0.1-1.5-0.1
		c-2.2,0-4.3,0.9-5.8,2.4C50.6,40.1,50.3,40.2,49.9,40.2z M43.1,34.6c2.5,0,4.9,0.8,6.8,2.4c2.1-1.7,4.8-2.6,7.6-2.3
		c0.2-0.7,0.3-1.3,0.3-2c0-4.5-3.7-8.2-8.2-8.2c-4.5,0-8.2,3.7-8.2,8.2c0,0.7,0.1,1.4,0.3,2.1C42.2,34.6,42.6,34.6,43.1,34.6z"/>
	<path class="st1" d="M52.6,47H33.6c-0.8,0-1.4-0.6-1.4-1.4l0-0.2c0-6,4.9-10.9,10.9-10.9c6,0,10.9,4.9,10.9,10.9l0,0.2
		C54,46.4,53.4,47,52.6,47z M35,44.3h16.1c-0.6-3.9-4-6.9-8.1-6.9C39,37.4,35.6,40.4,35,44.3z"/>
	<path class="st1" d="M62.9,77.5H36.3c-0.7,0-1.3-0.5-1.4-1.2l-5.1-30.5c-0.1-0.4,0-0.8,0.3-1.1c0.3-0.3,0.6-0.5,1.1-0.5h36.9
		c0.4,0,0.8,0.2,1.1,0.5c0.3,0.3,0.4,0.7,0.3,1.1l-5.1,30.5C64.2,77,63.6,77.5,62.9,77.5z M37.4,74.8h24.3L66.4,47H32.8L37.4,74.8z"
		/>
	<path class="st1" d="M66.2,47H52.6c-0.4,0-0.7-0.1-1-0.4c-0.3-0.3-0.4-0.6-0.4-1l0-0.2c0-2.1-0.8-4.2-2.3-5.7
		c-0.5-0.5-0.5-1.4,0-1.9c2.1-2.1,4.8-3.3,7.8-3.3c6,0,10.9,4.9,10.9,10.9l0,0.2C67.6,46.4,67,47,66.2,47z M53.9,44.3h10.8
		c-0.6-3.9-4-6.9-8.1-6.9c-1.8,0-3.5,0.6-4.9,1.6C53,40.5,53.7,42.3,53.9,44.3z"/>
	<path class="st8" d="M51.7,34c-1.6,0-2.2-1-2.6-1.7c-0.4-0.7-0.6-1.1-1.5-1l-0.1,0c-2.4,0-3.4-1.6-3.7-2.5
		c-0.1-0.4,0.1-0.7,0.5-0.8c0.4-0.1,0.7,0.1,0.8,0.5c0,0.2,0.4,1.4,2.3,1.4l0.1,0c1.7,0,2.2,1,2.6,1.7c0.4,0.6,0.6,1,1.4,1
		c0.6,0,1-0.1,1.3-0.4c0.4-0.4,0.4-1,0.3-1.5l0-0.2c0-0.4,0.3-0.7,0.7-0.7c0.4,0,0.7,0.3,0.7,0.7l0,0.1c0,0.6,0,1.7-0.7,2.5
		C53.4,33.7,52.7,34,51.7,34z"/>
	<path class="st9" d="M59.7,43.5c-1.2,0-1.7-0.8-1.9-1.2c-0.2-0.4-0.3-0.5-0.7-0.5c-1.8,0-2.5-1.2-2.7-1.8c-0.1-0.4,0.1-0.7,0.5-0.8
		c0.4-0.1,0.7,0.1,0.8,0.5c0,0.1,0.3,0.8,1.3,0.8c1.3,0,1.7,0.8,2,1.2c0.2,0.4,0.3,0.5,0.7,0.5c0.2,0,0.5,0,0.7-0.2
		c0.2-0.2,0.2-0.5,0.2-0.8l0.7-0.1h0.7c0,0.5,0,1.3-0.6,1.9C61,43.3,60.4,43.5,59.7,43.5z"/>
	<path class="st10" d="M45.4,43.5c-1.2,0-1.7-0.8-1.9-1.2c-0.2-0.4-0.3-0.5-0.7-0.5c-1.8,0-2.5-1.2-2.7-1.8
		c-0.1-0.4,0.1-0.7,0.5-0.8c0.4-0.1,0.7,0.1,0.8,0.5c0,0.1,0.3,0.8,1.3,0.8c1.3,0,1.7,0.8,2,1.2c0.2,0.4,0.3,0.5,0.7,0.5
		c0.2,0,0.5,0,0.7-0.2c0.2-0.2,0.2-0.5,0.2-0.8l0.7-0.1h0.7c0,0.5,0,1.3-0.6,1.9C46.6,43.3,46.1,43.5,45.4,43.5z"/>
</g>
</svg>
