<?xml version="1.0" encoding="utf-8"?>
<!-- Generator: Adobe Illustrator 14.0.0, SVG Export Plug-In . SVG Version: 6.00 Build 43363)  -->
<!DOCTYPE svg PUBLIC "-//W3C//DTD SVG 1.1//EN" "http://www.w3.org/Graphics/SVG/1.1/DTD/svg11.dtd">
<svg version="1.1" xmlns="http://www.w3.org/2000/svg" xmlns:xlink="http://www.w3.org/1999/xlink" x="0px" y="0px" width="50px"
	 height="50px" viewBox="0 0 50 50" enable-background="new 0 0 50 50" xml:space="preserve">
<g id="Layer_3">
</g>
<g id="Layer_2">
	<g>
		<path fill="none" stroke="#FFFFFF" stroke-linecap="round" stroke-linejoin="round" d="M29.281,44.938c-2,0-7.875,0-8.25,0
			c0,2.277,1.848,4.125,4.125,4.125C27.436,49.062,29.281,47.215,29.281,44.938z"/>
		<path fill="none" stroke="#FFFFFF" stroke-linecap="round" stroke-linejoin="round" d="M38.857,30.839v-10.89
			C38.857,6.438,25.836,6.709,25,6.74c-0.838-0.031-13.859-0.303-13.859,13.209v10.89c0,0-10.426,1.735-10.426,14.017
			c2.904,0,22.826,0,24.242,0c0.053,0,0.086,0,0.086,0c1.414,0,21.338,0,24.242,0C49.285,32.574,38.857,30.839,38.857,30.839z"/>
		<path fill="none" stroke="#6ECCC3" stroke-linecap="round" d="M29.906,11.688c0,0,5.125,1,5.125,6.75"/>
		<circle fill="none" stroke="#FFFFFF" stroke-linecap="round" stroke-linejoin="round" cx="25.156" cy="3.688" r="2.75"/>
	</g>
</g>
</svg>
