<?xml version="1.0" encoding="utf-8"?>
<!-- Generator: Adobe Illustrator 14.0.0, SVG Export Plug-In . SVG Version: 6.00 Build 43363)  -->
<!DOCTYPE svg PUBLIC "-//W3C//DTD SVG 1.1//EN" "http://www.w3.org/Graphics/SVG/1.1/DTD/svg11.dtd">
<svg version="1.1" id="Layer_2_1_" xmlns="http://www.w3.org/2000/svg" xmlns:xlink="http://www.w3.org/1999/xlink" x="0px" y="0px"
	 width="50px" height="37.5px" viewBox="0 6.875 50 37.5" enable-background="new 0 6.875 50 37.5" xml:space="preserve">
<g>
	<path fill="none" stroke="#6ECCC3" stroke-linecap="round" stroke-linejoin="round" d="M19.477,34.062v1.152
		c0,2.122,1.601,3.843,3.574,3.843h13.738l7.512,4.491v-4.491h1.376c1.976,0,3.574-1.721,3.574-3.843v-9.688
		c0-2.122-1.599-3.842-3.574-3.842h-1.003"/>
	<path fill="none" stroke="#FFFFFF" stroke-linecap="round" stroke-linejoin="round" d="M39.383,7.874H6.018
		c-2.91,0-5.269,2.538-5.269,5.667v14.281c0,3.129,2.358,5.666,5.269,5.666h2.029v6.625l11.079-6.625h20.257
		c2.911,0,5.268-2.537,5.268-5.666V13.541C44.65,10.412,42.294,7.874,39.383,7.874z"/>
	<path fill="none" stroke="#FFFFFF" stroke-linecap="round" stroke-linejoin="round" d="M7.572,11.931
		c-1.782,0-2.729,1.059-2.729,2.974"/>
	<path fill="none" stroke="#FFFFFF" stroke-linecap="round" stroke-linejoin="round" d="M24.542,43.751"/>
</g>
</svg>
