<?xml version="1.0" encoding="utf-8"?>
<!-- Generator: Adobe Illustrator 14.0.0, SVG Export Plug-In . SVG Version: 6.00 Build 43363)  -->
<!DOCTYPE svg PUBLIC "-//W3C//DTD SVG 1.1//EN" "http://www.w3.org/Graphics/SVG/1.1/DTD/svg11.dtd">
<svg version="1.1" xmlns="http://www.w3.org/2000/svg" xmlns:xlink="http://www.w3.org/1999/xlink" x="0px" y="0px" width="50px"
	 height="33.998px" viewBox="0 0 50 33.998" enable-background="new 0 0 50 33.998" xml:space="preserve">
<g id="Layer_5">
</g>
<g id="Layer_3">
	<g>
		<path fill="none" stroke="#6ECCC3" stroke-linejoin="round" d="M43.545,20.239c0.402-0.696,0.631-3.776,0.631-4.638
			c0-2.621-2.127-4.745-4.748-4.745s-4.748,2.124-4.748,4.745c0,0.887,0.244,3.988,0.666,4.699c0.828,1.391,2.346,2.646,4.082,2.646
			C41.189,22.947,42.725,21.663,43.545,20.239z"/>
		<path fill="none" stroke="#6ECCC3" stroke-linejoin="round" d="M29.543,33.24c1.359,0,8.031,0,9.791,0c0.035,0,0.076,0,0.107,0
			c1.76,0,8.434,0,9.793,0c0-4.328-3.41-10.604-6.547-9.035c-1.961,0.98-2.883,1.221-3.299,1.262
			c-0.395-0.039-1.23-0.253-2.955-1.092"/>
		<path fill="none" stroke="#6ECCC3" stroke-linejoin="round" d="M6.453,20.239c-0.401-0.696-0.63-3.776-0.63-4.638
			c0-2.621,2.126-4.745,4.747-4.745c2.622,0,4.747,2.124,4.747,4.745c0,0.887-0.242,3.988-0.665,4.699
			c-0.827,1.391-2.346,2.646-4.082,2.646C8.811,22.947,7.273,21.663,6.453,20.239z"/>
		<path fill="none" stroke="#6ECCC3" stroke-linejoin="round" d="M20.457,33.24c-1.359,0-8.033,0-9.792,0c-0.036,0-0.075,0-0.107,0
			c-1.759,0-8.433,0-9.792,0c0-4.328,3.408-10.604,6.546-9.035c1.961,0.98,2.882,1.221,3.3,1.262
			c0.393-0.039,1.23-0.253,2.954-1.092"/>
		<path fill="none" stroke="#FFFFFF" stroke-linejoin="round" d="M30.906,14.696c0.57-0.994,0.898-5.388,0.898-6.614
			c0-3.74-3.033-6.771-6.771-6.771c-3.741,0-6.772,3.031-6.772,6.771c0,1.264,0.346,5.688,0.948,6.7
			c1.181,1.983,3.348,3.775,5.824,3.775C27.545,18.557,29.736,16.725,30.906,14.696z"/>
		<path fill="none" stroke="#FFFFFF" stroke-linejoin="round" d="M29.682,20.352c-2.797,1.4-4.11,1.74-4.707,1.8
			c-0.597-0.06-1.911-0.399-4.708-1.8c-4.476-2.238-9.337,6.714-9.337,12.888c1.938,0,11.458,0,13.968,0c0.053,0,0.107,0,0.153,0
			c2.51,0,12.029,0,13.969,0C39.02,27.066,34.156,18.114,29.682,20.352z"/>
	</g>
</g>
</svg>
