<?xml version="1.0" encoding="utf-8"?>
<!-- Generator: Adobe Illustrator 14.0.0, SVG Export Plug-In . SVG Version: 6.00 Build 43363)  -->
<!DOCTYPE svg PUBLIC "-//W3C//DTD SVG 1.1//EN" "http://www.w3.org/Graphics/SVG/1.1/DTD/svg11.dtd">
<svg version="1.1" id="Layer_2" xmlns="http://www.w3.org/2000/svg" xmlns:xlink="http://www.w3.org/1999/xlink" x="0px" y="0px"
	 width="50px" height="41.375px" viewBox="0 0 50 41.375" enable-background="new 0 0 50 41.375" xml:space="preserve">
<g>
	<path fill="none" stroke="#6ECCC3" d="M25.982,17.614c0.698-1.215,1.097-6.581,1.097-8.08c0-4.57-3.703-8.273-8.271-8.273
		c-4.569,0-8.273,3.703-8.273,8.273c0,1.544,0.423,6.948,1.159,8.186c1.442,2.423,4.089,4.612,7.114,4.612
		C21.875,22.332,24.554,20.096,25.982,17.614z"/>
	<path fill="none" stroke="#6ECCC3" stroke-linecap="round" d="M32.621,29.149c-2.21-3.687-5.237-6.072-8.134-4.624
		c-3.416,1.71-5.021,2.127-5.75,2.2c-0.73-0.073-2.335-0.49-5.752-2.2C7.517,21.791,1.577,32.729,1.577,40.271
		c2.369,0,14.001,0,17.064,0c0.065,0,0.132,0,0.188,0c3.066,0,14.698,0,17.067,0"/>
	<path fill="none" stroke="#FFFFFF" d="M41.425,24.388c0.49-0.851,0.771-4.614,0.771-5.665c0-3.203-2.599-5.799-5.8-5.799
		c-3.203,0-5.8,2.596-5.8,5.799c0,1.082,0.296,4.871,0.812,5.739c1.012,1.698,2.867,3.233,4.987,3.233
		C38.546,27.695,40.423,26.127,41.425,24.388z"/>
	<path fill="none" stroke="#FFFFFF" d="M40.377,29.231c-2.396,1.2-3.521,1.491-4.03,1.543c-0.512-0.052-1.637-0.343-4.033-1.543
		c-3.833-1.916-7.998,5.752-7.998,11.039c1.662,0,9.814,0,11.965,0c0.043,0,0.092,0,0.131,0c2.149,0,10.303,0,11.964,0
		C48.375,34.983,44.21,27.315,40.377,29.231z"/>
</g>
</svg>
