<?xml version="1.0" encoding="utf-8"?>
<!-- Generator: Adobe Illustrator 14.0.0, SVG Export Plug-In . SVG Version: 6.00 Build 43363)  -->
<!DOCTYPE svg PUBLIC "-//W3C//DTD SVG 1.1//EN" "http://www.w3.org/Graphics/SVG/1.1/DTD/svg11.dtd">
<svg version="1.1" id="Layer_1" xmlns="http://www.w3.org/2000/svg" xmlns:xlink="http://www.w3.org/1999/xlink" x="0px" y="0px"
	 width="50px" height="41.5px" viewBox="0 0 50 41.5" enable-background="new 0 0 50 41.5" xml:space="preserve">
<g>
	<path fill="none" stroke="#6ECCC3" d="M41.478,24.49c0.49-0.85,0.771-4.613,0.771-5.664c0-3.204-2.599-5.8-5.8-5.8
		c-3.204,0-5.801,2.596-5.801,5.8c0,1.082,0.296,4.871,0.812,5.738c1.013,1.699,2.867,3.234,4.988,3.234
		C38.599,27.799,40.476,26.23,41.478,24.49z"/>
	<path fill="none" stroke="#6ECCC3" d="M24.369,40.375c1.662,0,9.814,0,11.963,0c0.045,0,0.093,0,0.131,0c2.149,0,10.304,0,11.965,0
		c0-5.289-4.165-12.955-7.998-11.039c-2.396,1.199-3.521,1.49-4.031,1.543c-0.48-0.051-1.503-0.309-3.609-1.336"/>
	<path fill="none" stroke="#FFFFFF" d="M26.035,17.717c0.698-1.213,1.097-6.581,1.097-8.08c0-4.57-3.703-8.274-8.271-8.274
		c-4.571,0-8.274,3.704-8.274,8.274c0,1.543,0.422,6.949,1.159,8.185c1.442,2.424,4.089,4.613,7.115,4.613
		C21.928,22.436,24.605,20.199,26.035,17.717z"/>
	<path fill="none" stroke="#FFFFFF" d="M24.54,24.629c-3.417,1.709-5.021,2.127-5.75,2.199c-0.73-0.072-2.334-0.49-5.753-2.199
		C7.569,21.895,1.629,32.832,1.629,40.375c2.369,0,14,0,17.065,0c0.065,0,0.131,0,0.188,0c3.066,0,14.697,0,17.066,0
		C35.948,32.832,30.008,21.895,24.54,24.629z"/>
</g>
</svg>
