<?xml version="1.0" encoding="utf-8"?>
<!-- Generator: Adobe Illustrator 14.0.0, SVG Export Plug-In . SVG Version: 6.00 Build 43363)  -->
<!DOCTYPE svg PUBLIC "-//W3C//DTD SVG 1.1//EN" "http://www.w3.org/Graphics/SVG/1.1/DTD/svg11.dtd">
<svg version="1.1" id="Layer_2_1_" xmlns="http://www.w3.org/2000/svg" xmlns:xlink="http://www.w3.org/1999/xlink" x="0px" y="0px"
	 width="50px" height="50px" viewBox="0 0 50 50" enable-background="new 0 0 50 50" xml:space="preserve">
<g>
	<circle fill="none" stroke="#6ECCC3" cx="25" cy="25.606" r="10"/>
	<path fill="none" stroke="#FFFFFF" stroke-linejoin="round" d="M29.5,1.606h-9v6.59c-1.708,0.44-3.314,1.122-4.786,2.012
		l-4.679-4.68l-6.364,6.363l4.741,4.741c-0.842,1.458-1.479,3.044-1.887,4.724H0.75v9h6.904c0.441,1.615,1.101,3.136,1.947,4.535
		l-4.931,4.931l6.364,6.364l4.991-4.992c1.386,0.8,2.887,1.412,4.474,1.822v7.09h9v-7.09c1.587-0.409,3.088-1.022,4.474-1.822
		l4.991,4.992l6.364-6.363l-4.931-4.931c0.847-1.4,1.506-2.921,1.947-4.536h6.904v-9h-6.775c-0.407-1.68-1.045-3.266-1.887-4.724
		l4.741-4.741l-6.363-6.364l-4.681,4.681c-1.472-0.89-3.077-1.571-4.785-2.012V1.606z"/>
</g>
</svg>
