<?xml version="1.0" encoding="utf-8"?>
<!-- Generator: Adobe Illustrator 14.0.0, SVG Export Plug-In . SVG Version: 6.00 Build 43363)  -->
<!DOCTYPE svg PUBLIC "-//W3C//DTD SVG 1.1//EN" "http://www.w3.org/Graphics/SVG/1.1/DTD/svg11.dtd">
<svg version="1.1" id="Layer_2_1_" xmlns="http://www.w3.org/2000/svg" xmlns:xlink="http://www.w3.org/1999/xlink" x="0px" y="0px"
	 width="37.667px" height="50px" viewBox="6.167 0 37.667 50" enable-background="new 6.167 0 37.667 50" xml:space="preserve">
<g>
	<path fill="none" stroke="#6ECCC3" d="M29.541,31.078c0-2.507-2.033-4.54-4.542-4.54c-2.506,0-4.541,2.033-4.541,4.54
		c0,1.399,0.647,2.634,1.64,3.468c0,2.469,0,3.517,0,5.87c0,4.035,2.771,3.659,2.777,3.659c0.004,0,2.775,0.376,2.775-3.659
		c0-2.288,0-3.178,0-5.661C28.79,33.927,29.541,32.595,29.541,31.078z"/>
	<path fill="none" stroke="#FFFFFF" d="M11.258,20.087v-6.058c0,0-0.783-13.11,13.562-13.11c14.468,0,13.924,12.297,13.924,13.201
		c0,0.904,0,5.787,0,5.787"/>
	<path fill="none" stroke="#FFFFFF" d="M7.519,44.909c0,2.306,1.868,4.172,4.171,4.172H38.31c2.304,0,4.171-1.866,4.171-4.172
		V23.897c0-2.304-1.867-4.17-4.171-4.17H11.69c-2.304,0-4.171,1.867-4.171,4.17V44.909z"/>
</g>
</svg>
