<?xml version="1.0" encoding="utf-8"?>
<!-- Generator: Adobe Illustrator 14.0.0, SVG Export Plug-In . SVG Version: 6.00 Build 43363)  -->
<!DOCTYPE svg PUBLIC "-//W3C//DTD SVG 1.1//EN" "http://www.w3.org/Graphics/SVG/1.1/DTD/svg11.dtd">
<svg version="1.1" id="Layer_2_1_" xmlns="http://www.w3.org/2000/svg" xmlns:xlink="http://www.w3.org/1999/xlink" x="0px" y="0px"
	 width="50px" height="50px" viewBox="0 0 50 50" enable-background="new 0 0 50 50" xml:space="preserve">
<g>
	<g>
		<path fill="none" stroke="#FFFFFF" d="M31.646,6.754c-5.184-6.782-14.92-8.079-21.701-2.895
			c-6.779,5.184-8.08,14.917-2.895,21.699c4.521,5.915,12.504,7.656,18.97,4.565l1.65,2.158l-1.011,0.772L39.11,49.318l3.369-2.575
			l3.646-2.787L33.673,27.691l-0.946,0.725l-1.65-2.157C35.755,20.829,36.168,12.669,31.646,6.754z M11.432,22.209
			c-3.339-4.367-2.502-10.634,1.863-13.97c4.367-3.34,10.634-2.503,13.973,1.864c3.336,4.364,2.499,10.631-1.868,13.97
			C21.037,27.411,14.769,26.574,11.432,22.209z"/>
	</g>
	<path fill="none" stroke="#6ECCC3" stroke-linecap="round" d="M25.412,13.049c-1.078-2.07-3.245-3.485-5.741-3.485"/>
</g>
</svg>
