<svg width="20" height="20" xmlns="http://www.w3.org/2000/svg"><path d="M18 7V4.621a.5.5 0 0 0-.854-.353L11.414 10l5.732 5.732a.5.5 0 0 0 .854-.353V13a1 1 0 0 1 2 0v5a2 2 0 0 1-2 2h-5a1 1 0 0 1 0-2h2.379a.5.5 0 0 0 .353-.854L10 11.414l-5.732 5.732a.5.5 0 0 0 .353.854H7a1 1 0 0 1 0 2H2a2 2 0 0 1-2-2v-5a1 1 0 0 1 2 0v2.379a.5.5 0 0 0 .854.353L8.586 10 2.854 4.268A.5.5 0 0 0 2 4.621V7a1 1 0 0 1-2 0V2a2 2 0 0 1 2-2h5a1 1 0 0 1 0 2H4.621a.5.5 0 0 0-.353.854L10 8.586l5.732-5.732A.5.5 0 0 0 15.379 2H13a1 1 0 0 1 0-2h5a2 2 0 0 1 2 2v5a1 1 0 0 1-2 0" fill="#000" fill-rule="evenodd"/></svg>