<svg width="20" height="20" xmlns="http://www.w3.org/2000/svg"><path d="M2 4c0-1.103.897-2 2-2s2 .897 2 2-.897 2-2 2-2-.897-2-2m5.86 1h9.144l-.424.424a.999.999 0 1 0 1.415 1.412l1.422-1.426c.777-.78.777-2.04 0-2.82l-1.42-1.426a1 1 0 1 0-1.417 1.412l.424.424H7.86A4 4 0 0 0 3.051.109a3.975 3.975 0 0 0-2.94 2.937A4.006 4.006 0 0 0 4 8c1.861 0 3.412-1 3.858-3M2 16c0-1.102.897-2 2-2s2 .898 2 2c0 1.104-.897 2-2 2s-2-.896-2-2m5.86 1h9.144l-.424.424a.999.999 0 1 0 1.415 1.413l1.422-1.426a1.997 1.997 0 0 0 0-2.82l-1.42-1.426a1 1 0 1 0-1.417 1.412l.424.423H7.86a4 4 0 0 0-4.808-2.89 3.972 3.972 0 0 0-2.94 2.937A4.006 4.006 0 0 0 4 20c1.861 0 3.412-1 3.858-3" fill="#000" fill-rule="evenodd"/></svg>