<svg width="20" height="24" xmlns="http://www.w3.org/2000/svg"><path d="M1.998 10.89H16.98c.552 0 1 .443 1 .99v4.95c0 .546-.448.99-1 .99H4.202a.495.495 0 0 1-.352-.846l1.68-1.665a.984.984 0 0 0 0-1.4 1.007 1.007 0 0 0-1.414 0L.586 17.41a1.967 1.967 0 0 0 0 2.8l3.53 3.5c.39.387 1.023.387 1.414 0a.984.984 0 0 0 0-1.4l-1.68-1.666a.494.494 0 0 1 .352-.844H17.98a1.988 1.988 0 0 0 1.998-1.98v-6.93H20c0-1.094-.917-1.98-2.02-1.98H2.996a.995.995 0 0 1-1-.99V2.97c0-.546.448-.99 1-.99h15.981a.995.995 0 0 0 .999-.99.995.995 0 0 0-.999-.99H1.998C.894 0 .023.99.023 1.98H0v6.93h.023c0 1.094.871 1.98 1.975 1.98" fill="#000" fill-rule="evenodd"/></svg>