<svg width="20" height="20" xmlns="http://www.w3.org/2000/svg"><path d="M12 11a.998.998 0 0 1-.998.998H8.998A.998.998 0 0 1 8 11V8.997c0-.552.447-.999.998-.999h2.004c.551 0 .998.447.998.999V11zm7 3.987a1 1 0 0 0-1 1v.599l-4.076-4.076c.147-.548.093-4.685.004-5.023L18 3.415v.6a1 1 0 0 0 2 0l-.005-2.014A1.999 1.999 0 0 0 18 .006L15.986.001a.999.999 0 1 0 0 1.997h.6l-4.074 4.074c-.323-.085-4.479-.143-5.024 0L3.415 1.998h.6A.999.999 0 1 0 4.014 0L2 .005A2 2 0 0 0 .004 2.001L0 4.014a1 1 0 0 0 2 .001v-.599l4.072 4.072c-.082.312-.144 4.468.004 5.022L2 16.587v-.6a1 1 0 0 0-2 0l.005 2.014A1.999 1.999 0 0 0 2 19.996l2.014.005a1.001 1.001 0 0 0 0-2.003h-.6l4.075-4.075c.322.087 4.477.146 5.022.001l4.074 4.074h-.6a1.001 1.001 0 0 0 .001 2.003L18 19.997a2 2 0 0 0 1.996-1.996L20 15.987a1 1 0 0 0-1-1z" fill="#000" fill-rule="evenodd"/></svg>