<svg width="12" height="20" xmlns="http://www.w3.org/2000/svg"><path d="M8.121 11.878a.999.999 0 0 0-1.414 0L6 12.586l-.707-.708a1 1 0 1 0-1.415 1.414l.707.707-.707.708a1.002 1.002 0 0 0 0 1.415c.391.39 1.024.39 1.415 0L6 15.414l.707.708a1 1 0 0 0 1.414-1.415l-.707-.708.707-.707a.999.999 0 0 0 0-1.414zM10 17a1 1 0 0 1-1 1H3a1 1 0 0 1-1-1V6.113a.5.5 0 0 1 .15-.357L5.301 2.68a1 1 0 0 1 1.397 0l3.151 3.075a.501.501 0 0 1 .151.357v10.886zm1.698-12.234L7.396.569a2 2 0 0 0-2.793 0L.301 4.765A1.002 1.002 0 0 0 0 5.48V18a2 2 0 0 0 2 2h8a2 2 0 0 0 2-2V5.48c0-.268-.109-.527-.302-.715z" fill="#000" fill-rule="evenodd"/></svg>