<svg width="20" height="20" xmlns="http://www.w3.org/2000/svg"><path d="M11 1a1 1 0 0 0-2 0v18a1 1 0 0 0 2 0V1zm8 8h-2.136a.5.5 0 0 1-.353-.854l1.681-1.681a.999.999 0 0 0 0-1.414V5.05a1 1 0 0 0-1.414 0l-3.535 3.535-.002.002c-.78.78-.78 2.046 0 2.826l3.537 3.537a1 1 0 0 0 1.414-1.414l-1.683-1.682a.5.5 0 0 1 .354-.854H19a1 1 0 0 0 0-2zM3.222 5.05a1.001 1.001 0 0 0-1.415 1.415l1.681 1.681A.5.5 0 0 1 3.135 9H1a1 1 0 0 0 0 2h2.137a.5.5 0 0 1 .353.854l-1.683 1.682a1 1 0 0 0 1.414 1.414l3.537-3.537c.78-.78.78-2.046 0-2.826L3.222 5.05z" fill="#000" fill-rule="evenodd"/></svg>