<svg width="20" height="20" xmlns="http://www.w3.org/2000/svg"><path d="M.999 7.983h4.999c1 0 1.999-.892 1.999-1.993V1a1 1 0 0 0-2 0v2.372a.5.5 0 0 1-.853.353L1.707.293a1 1 0 0 0-1.414 0 .997.997 0 0 0 0 1.41L3.73 5.137a.498.498 0 0 1-.353.852H.998c-.542 0-.978.279-.992.812.028.54.459 1.183.993 1.183zm15.263 6.84a.499.499 0 0 1 .353-.852h2.376c.552 0 1-.607 1-1.159v-.08c0-.552-.448-.757-1-.757H13.992a1.996 1.996 0 0 0-1.997 1.995V18.96a1 1 0 0 0 1 .997h.002a.996.996 0 0 0 .997-.997v-2.375a.5.5 0 0 1 .853-.353l3.445 3.44a1 1 0 0 0 1.413 0 .998.998 0 0 0 0-1.413l-3.443-3.437zm3.457-13.12a.996.996 0 0 0-.012-1.398l-.01-.01a1 1 0 0 0-1.414 0l-8.99 8.98-.003-.001-8.962 8.948a.997.997 0 0 0 .036 1.446l.082.074c.393.354.995.342 1.372-.029l9.177-9.028v.001l8.724-8.982zM0 6.746c0 .018.005.037.006.055-.001.01-.006.016-.006.025v-.08z" fill="#000" fill-rule="evenodd"/></svg>