<svg width="20" height="20" xmlns="http://www.w3.org/2000/svg"><path d="M12 11.002a.998.998 0 0 1-.998.998H8.998A.998.998 0 0 1 8 11.002V8.999c0-.552.447-1 .998-1h2.004c.55 0 .998.448.998 1v2.003zm7.417-2.413l-1.421-1.427a1 1 0 1 0-1.415 1.414l.423.424H14V8a2 2 0 0 0-2-2h-1V2.994l.424.424a1 1 0 0 0 1.414-1.414L11.41.583a2 2 0 0 0-2.822 0l-1.427 1.42a.999.999 0 1 0 1.414 1.415L9 2.994V6H8a2 2 0 0 0-2 2v1H2.996l.424-.424a1 1 0 0 0-1.416-1.414L.583 8.589a2 2 0 0 0 0 2.823l1.42 1.426a1 1 0 1 0 1.416-1.414L2.996 11H6v1a2 2 0 0 0 2 2h1v3.007l-.424-.424a1 1 0 0 0-1.414 1.414l1.427 1.42a2 2 0 0 0 2.822 0l1.427-1.42a.999.999 0 1 0-1.414-1.414l-.424.424V14h1a2 2 0 0 0 2-2v-1h3.004l-.424.424a1 1 0 0 0 1.416 1.414l1.42-1.426a2 2 0 0 0 0-2.823z" fill="#000" fill-rule="evenodd"/></svg>