<svg width="18" height="20" xmlns="http://www.w3.org/2000/svg"><path d="M16.323 14.848l-1.475 1.412a.49.49 0 0 1-.829-.363V1c0-.552-.464-1-1.016-1h.008a.994.994 0 0 0-.993 1v14.882c0 .441-.546.666-.864.36l-1.463-1.404a.996.996 0 0 0-1.411.04l-.005.002a.991.991 0 0 0 .043 1.397l3.34 3.177a2.002 2.002 0 0 0 2.755-.007l3.28-3.149a.989.989 0 0 0 .042-1.39l-.01-.01a.99.99 0 0 0-1.402-.05M.275 5.102l-.01-.01a.989.989 0 0 1 .042-1.39L3.587.553A2.003 2.003 0 0 1 6.343.545l3.34 3.178a.99.99 0 0 1 .044 1.396l-.003.003a.99.99 0 0 1-1.407.04L6.863 3.757a.501.501 0 0 0-.849.36V19a1 1 0 0 1-2.001 0V4.103a.5.5 0 0 0-.845-.363L1.677 5.152a.99.99 0 0 1-1.402-.05" fill="#000" fill-rule="evenodd"/></svg>