<svg width="20" height="20" xmlns="http://www.w3.org/2000/svg"><path d="M6.673 5.726l-.004.003a.995.995 0 0 0-.049 1.408l.957 1.021A.5.5 0 0 1 7.212 9H1a1 1 0 1 0 0 2h6.197a.5.5 0 0 1 .361.845l-.928.974a.994.994 0 0 0 1.441 1.367l2.689-2.848a2 2 0 0 0-.007-2.753L8.067 5.769a.993.993 0 0 0-1.394-.043M18.222 0h-6.445C10.8 0 10 .68 10 2.111v.896c0 .548.444.993.993.993h.013A.994.994 0 0 0 12 3.007v-.014c0-.548.444-.993.993-.993h4.013c.549 0 .994.445.994.993v14.014a.994.994 0 0 1-.994.993h-4.013a.993.993 0 0 1-.993-.993v-.014a.994.994 0 0 0-.994-.993h-.013a.993.993 0 0 0-.993.993v1.118c0 1.182.847 1.889 1.777 1.889h6.445c.982 0 1.778-.796 1.778-1.778V1.778C20 .796 19.204 0 18.222 0" fill="#000" fill-rule="evenodd"/></svg>