<svg width="14" height="20" xmlns="http://www.w3.org/2000/svg"><path d="M13.008 4.033c.55.002.994.452.992 1.005l-.07 12.964A1.997 1.997 0 0 1 11.932 20l-9.95-.023A1.997 1.997 0 0 1 0 17.968l.08-15.97A1.997 1.997 0 0 1 2.074 0l5.97.015c1.1.003 1.988.903 1.985 2.009L9.96 13.986a1.997 1.997 0 0 1-1.994 1.999l-1.99-.006a1.997 1.997 0 0 1-1.985-2.01l.06-8.957a1 1 0 0 1 .997-.999c.55.002.994.452.992 1.005l-.056 7.955a1 1 0 0 0 .992 1.005.998.998 0 0 0 .998-.999l.062-9.959a.999.999 0 0 0-.993-1.004l-3.979-.01a.998.998 0 0 0-.997 1l-.074 13.962a1.002 1.002 0 0 0 .996 1.008l7.952.017c.55.002 1-.447 1.001-1.002l.068-11.959a.999.999 0 0 1 .998-.999" fill="#000" fill-rule="evenodd"/></svg>