<svg width="24" height="24" xmlns="http://www.w3.org/2000/svg"><path d="M8.947 10.234l4.085 2.539a.506.506 0 0 1 0 .866l-4.085 2.54a.511.511 0 0 1-.777-.434v-5.077a.51.51 0 0 1 .777-.434zm4.33-4.139H7.148V5.08a3.06 3.06 0 0 1 3.063-3.047c1.69 0 3.064 1.016 3.064 3.047v1.016zM17.048 9l.75 5.223a6.134 6.134 0 0 1 2.01-.376l-.863-6.007a2.039 2.039 0 0 0-2.023-1.744H15.32V5.08c0-3.047-2.29-5.079-5.107-5.079-2.815 0-5.106 2.279-5.106 5.08v1.015H3.814c-1.016 0-2.19.744-2.335 1.744L.021 18a2.036 2.036 0 0 0 2.022 2.318h11.763c-.007 0-.019-.252-.019-.38 0-.573.086-.635.234-1.651H3.22a1.018 1.018 0 0 1-1.011-1.16l1.167-8.127a1.02 1.02 0 0 1 1.011-.872h.718v2.032c0 .56.457 1.016 1.021 1.016.565 0 1.022-.456 1.022-1.016V8.127h6.127v2.032c0 .56.458 1.016 1.022 1.016.564 0 1.02-.456 1.02-1.016V8.127h.72c.509 0 .94.372 1.011.872zm2.866 12.97a2.04 2.04 0 0 1-2.043-2.032 2.04 2.04 0 0 1 2.043-2.032 2.04 2.04 0 0 1 2.042 2.032 2.04 2.04 0 0 1-2.042 2.031zm0-6.096c-2.256 0-4.085 1.82-4.085 4.064 0 2.244 1.829 4.063 4.085 4.063C22.17 24 24 22.18 24 19.937c0-2.245-1.83-4.064-4.085-4.064z" fill="#000" fill-rule="evenodd"/></svg>