<svg width="20" height="20" xmlns="http://www.w3.org/2000/svg"><path d="M12.76 12.573a.5.5 0 0 1 0 .853l-4 2.499a.5.5 0 0 1-.76-.426V10.5a.5.5 0 0 1 .76-.426l4 2.499zM16.846 18H3.153a1 1 0 0 1-.99-1.142C3.491 7.557 2.907 8 5 8c0 1.639-.248 3 1 3a1 1 0 0 0 1-1V8h6v2a1 1 0 0 0 2 0V8c.837 0 1.563-.06 1.694.858l1.143 8a1 1 0 0 1-.99 1.142zM7 5c0-1.655 1.346-3 3-3 1.655 0 3 1 3 3v1H7V5zm12.98 12.717l-1.429-10C18.267 5.733 16.235 6 15 6V5c0-3-2.244-5-5-5-2.758 0-5 2.243-5 5v1H3.733c-.995 0-2.145.732-2.286 1.717l-1.428 10A2 2 0 0 0 2 20h16a2 2 0 0 0 1.98-2.283z" fill="#000" fill-rule="evenodd"/></svg>