<svg width="20" height="20" xmlns="http://www.w3.org/2000/svg"><path d="M16.5 14.646a7.95 7.95 0 0 1-1.499-4.624c.997.174 1.984.408 2.963.686a7.941 7.941 0 0 1-1.464 3.938zM11 17.931V9.614c.672.023 1.343.067 2.013.136-.003.084-.013.166-.013.25 0 2.318.796 4.445 2.119 6.141A7.97 7.97 0 0 1 11 17.931zm0-15.862a7.97 7.97 0 0 1 4.119 1.79 9.956 9.956 0 0 0-1.86 3.908A31.037 31.037 0 0 0 11 7.614V2.069zm5.5 3.285a7.938 7.938 0 0 1 1.37 3.251 31.036 31.036 0 0 0-2.616-.57A7.96 7.96 0 0 1 16.5 5.354zM9 7.614c-.755.024-1.507.074-2.259.153a9.956 9.956 0 0 0-1.86-3.908A7.97 7.97 0 0 1 9 2.069v5.545zm0 10.317a7.97 7.97 0 0 1-4.119-1.79A9.948 9.948 0 0 0 7 10c0-.084-.01-.166-.013-.25.67-.069 1.341-.113 2.013-.136v8.317zm-6.964-7.223a29.279 29.279 0 0 1 2.963-.686A7.95 7.95 0 0 1 3.5 14.646a7.941 7.941 0 0 1-1.464-3.938zM3.5 5.354a7.96 7.96 0 0 1 1.246 2.681c-.879.15-1.75.344-2.616.57A7.938 7.938 0 0 1 3.5 5.354zm14.381-1.495A10.018 10.018 0 0 0 16.5 2.41 9.953 9.953 0 0 0 10 0a9.953 9.953 0 0 0-6.5 2.41c-.508.435-.969.921-1.381 1.449A9.948 9.948 0 0 0 0 10c0 2.318.796 4.445 2.119 6.141.412.528.873 1.014 1.381 1.449A9.953 9.953 0 0 0 10 20a9.953 9.953 0 0 0 6.5-2.41c.508-.435.969-.921 1.381-1.449A9.948 9.948 0 0 0 20 10a9.948 9.948 0 0 0-2.119-6.141z" fill="#000" fill-rule="evenodd"/></svg>