<svg width="20" height="20" xmlns="http://www.w3.org/2000/svg"><path d="M17.608 3.715l-9.74 9.566c-.942.925-2.407-.465-1.44-1.414l9.74-9.566a1.03 1.03 0 0 1 1.44 0 .989.989 0 0 1 0 1.414m1.6-2.66a3.092 3.092 0 0 0-4.48-.168l-9.74 9.566a2.949 2.949 0 0 0-.588 3.405L.3 17.887a.986.986 0 0 0 0 1.414c.397.39 1.042.39 1.44 0l4.101-4.028a3.061 3.061 0 0 0 3.468-.578l9.626-9.454c1.15-1.13 1.335-2.976.274-4.186M16.59 15.3a1.968 1.968 0 0 1-.582-1.28c.474.032.94.217 1.302.573.362.355.55.813.582 1.279a2.041 2.041 0 0 1-1.302-.572m-2.16 2.12a1.973 1.973 0 0 1-.3-2.442 3.94 3.94 0 0 0 1.02 1.736 4.042 4.042 0 0 0 1.768 1 2.065 2.065 0 0 1-2.488-.293m-1.44-4.243a3.95 3.95 0 0 0 0 5.657 4.127 4.127 0 0 0 5.76 0c3.825-3.757-2.006-9.344-5.76-5.657" fill="#000" fill-rule="evenodd"/></svg>