<svg width="20" height="20" xmlns="http://www.w3.org/2000/svg"><path d="M4.343 2.929A.999.999 0 1 1 2.93 4.343a.999.999 0 1 1 1.414-1.414m12.728 12.728a1 1 0 1 1-1.416 1.414 1 1 0 0 1 1.416-1.414M11.001 19a1 1 0 1 1-2.002 0A1 1 0 0 1 11 19M9 1a1 1 0 1 1 2 0 1 1 0 0 1-2 0M4.343 15.657A.999.999 0 1 1 2.93 17.07a.999.999 0 1 1 1.414-1.414M17.071 2.929a1 1 0 1 1-1.416 1.414 1 1 0 0 1 1.416-1.414m2.93 7.07a1 1 0 1 1-2.002 0A1 1 0 0 1 20 10M2 10a1 1 0 1 1-2 0 1 1 0 0 1 2 0m8 2c-1.103 0-2-.896-2-2 0-1.102.897-2 2-2s2 .898 2 2c0 1.104-.897 2-2 2m0-6A4 4 0 1 0 10 14a4 4 0 0 0 0-8" fill="#000" fill-rule="evenodd"/></svg>