<svg width="20" height="20" xmlns="http://www.w3.org/2000/svg"><path d="M2.929 2.929a.999.999 0 1 0 1.414 1.414.999.999 0 1 0-1.414-1.414m12.728 12.728a.999.999 0 1 0 1.414 1.414.999.999 0 1 0-1.414-1.414M10 18a1 1 0 1 0 0 2 1 1 0 0 0 0-2m0-16a1 1 0 1 0 0-2 1 1 0 0 0 0 2M2.929 15.657a.999.999 0 1 0 1.414 1.414.999.999 0 1 0-1.414-1.414M15.657 2.929a.999.999 0 1 0 1.414 1.414.999.999 0 1 0-1.414-1.414M19 8.999a1 1 0 1 0 0 2.002A1 1 0 0 0 19 9M1 9a1 1 0 1 0 0 2 1 1 0 0 0 0-2m13 1a4 4 0 1 1-8 0 4 4 0 0 1 8 0" fill="#000" fill-rule="evenodd"/></svg>