<svg width="20" height="20" xmlns="http://www.w3.org/2000/svg"><path d="M14 4a2 2 0 0 0-2-2H8a2 2 0 0 0-2 2v12a2 2 0 0 0 2 2h4a2 2 0 0 0 2-2V4zm2 2v3h3a1 1 0 0 1 0 2h-3v3a4 4 0 0 1 4 4v1a1 1 0 0 1-2 0v-1a2 2 0 0 0-2-2 4 4 0 0 1-4 4H8a4 4 0 0 1-4-4 2 2 0 0 0-2 2v1a1 1 0 0 1-2 0v-1a4 4 0 0 1 4-4v-3H1a1 1 0 0 1 0-2h3V6a4 4 0 0 1-4-4V1a1 1 0 0 1 2 0v1a2 2 0 0 0 2 2 4 4 0 0 1 4-4h4a4 4 0 0 1 4 4 2 2 0 0 0 2-2V1a1 1 0 0 1 2 0v1a4 4 0 0 1-4 4zm-4 8a1 1 0 1 0 0 2 1 1 0 0 0 0-2zm-3 1a1 1 0 1 1-2 0 1 1 0 0 1 2 0z" fill="#000" fill-rule="evenodd"/></svg>