<svg width="20" height="20" xmlns="http://www.w3.org/2000/svg"><path d="M6 6h8V2H6v4zm-2 8V9.104C4 8.552 4.534 8 5.086 8h10c.552 0 .914.552.914 1.104V14H4zm11.086 4.104a1 1 0 1 1 0-2 1 1 0 0 1 0 2zm-11-1a1 1 0 1 1 2 0 1 1 0 0 1-2 0zM20 1.052v-.026C20 .474 19.638 0 19.086 0h-18C.534 0 0 .5 0 1.052v-.026C0 1.578.534 2 1.086 2H4v4.104a2 2 0 0 0-2 2v10C2 19.209 2.981 20 4.086 20h12C17.191 20 18 19.209 18 18.104v-10a2 2 0 0 0-2-2V2h3.086c.552 0 .914-.396.914-.948z" fill="#000" fill-rule="evenodd"/></svg>