<svg width="20" height="20" xmlns="http://www.w3.org/2000/svg"><path d="M5 16a1 1 0 1 1 0-2 1 1 0 0 1 0 2m10-2a1 1 0 1 1 0 2 1 1 0 0 1 0-2M6.602 2h6.796a1 1 0 0 1 .99.859L15.694 12H4.306l1.306-9.141A1 1 0 0 1 6.602 2M20 9a1 1 0 0 0-1-1h-1.857l-.898-6.283A2 2 0 0 0 14.265 0h-8.53a2 2 0 0 0-1.98 1.717L2.857 8H1a1 1 0 0 0 0 2h1.571l-.285 2H2a2 2 0 0 0-2 2v2a2 2 0 0 0 2 2v1a1 1 0 0 0 1 1h2a1 1 0 0 0 1-1v-1h8v1a1 1 0 0 0 1 1h2a1 1 0 0 0 1-1v-1a2 2 0 0 0 2-2v-2a2 2 0 0 0-2-2h-.286l-.285-2H19a1 1 0 0 0 1-1" fill="#000" fill-rule="evenodd"/></svg>