<svg width="20" height="20" xmlns="http://www.w3.org/2000/svg"><path d="M7.823 7.783L9 8.46V1.083a1 1 0 0 1 2 0V8.46l1.178-.677a.867.867 0 0 1 .864 1.503l-2.543 1.463a1.002 1.002 0 0 1-.997 0L6.958 9.286a.867.867 0 0 1 .865-1.503M15 18c-.551 0-1-.449-1-1 0-1.322 2-1.322 2 0 0 .551-.448 1-1 1M3 18c-.551 0-1-.449-1-1 0-1.322 2-1.322 2 0 0 .551-.448 1-1 1M19 0h-3c-1 0-2 .661-2 2.375V12H4V7c0-2.005 3 .004 3-2a1 1 0 0 0-1-1H4a2 2 0 0 0-2 2v8.183a2.991 2.991 0 0 0-1.941 3.416A3.002 3.002 0 0 0 6 17a2.992 2.992 0 0 0-2-2.817V14h10v.183a2.991 2.991 0 0 0-1.941 3.416A3.002 3.002 0 0 0 18 17a2.992 2.992 0 0 0-2-2.817C16 .696 15.008 2 19 2a1 1 0 1 0 0-2" fill="#000" fill-rule="evenodd"/></svg>