<svg width="20" height="20" xmlns="http://www.w3.org/2000/svg"><path d="M19 0h-3a2 2 0 0 0-2 2v10H4V6.998C4 6.447 4.447 6 4.998 6H9a1 1 0 0 0 0-2H4a2 2 0 0 0-2 2v8.184A2.991 2.991 0 0 0 3 20a3 3 0 0 0 3-3 2.99 2.99 0 0 0-2-2.816V14h10v.184A2.991 2.991 0 0 0 15 20a3 3 0 0 0 3-3 2.99 2.99 0 0 0-2-2.816V2.998c0-.551.447-.998.998-.998H19a1 1 0 0 0 0-2M3 15.951l.33.117c.334.119.67.453.67.932a1.002 1.002 0 0 1-1.978.219.995.995 0 0 1 .648-1.151l.33-.117m12 0l.33.117c.334.119.67.453.67.932a1.002 1.002 0 0 1-1.978.219.995.995 0 0 1 .648-1.151l.33-.117" fill="#000" fill-rule="evenodd"/></svg>