<svg width="20" height="20" xmlns="http://www.w3.org/2000/svg"><path d="M16 11h2V9h-2v2zm-1 2h.188A6.032 6.032 0 0 1 13 15.188V15a1 1 0 0 0-1-1H8a1 1 0 0 0-1 1v.188A6.032 6.032 0 0 1 4.812 13H5a1 1 0 0 0 1-1V8a1 1 0 0 0-1-1h-.188A6.024 6.024 0 0 1 7 4.812V5a1 1 0 0 0 1 1h4a1 1 0 0 0 1-1v-.188C13.907 5.338 14.662 6 15.188 7H15a1 1 0 0 0-1 1v4a1 1 0 0 0 1 1zm-6 5h2v-2H9v2zM9 4h2V2H9v2zm-5 7H2V9h2v2zm15-4h-1.587A8.027 8.027 0 0 0 13 2.587V1a1 1 0 0 0-1-1H8a1 1 0 0 0-1 1v1.587A8.015 8.015 0 0 0 2.587 7H1a1 1 0 0 0-1 1v4a1 1 0 0 0 1 1h1.587A8.02 8.02 0 0 0 7 17.413V19a1 1 0 0 0 1 1h4a1 1 0 0 0 1-1v-1.587A8.02 8.02 0 0 0 17.413 13H19a1 1 0 0 0 1-1V8a1 1 0 0 0-1-1z" fill="#000" fill-rule="evenodd"/></svg>