<svg width="20" height="20" xmlns="http://www.w3.org/2000/svg"><path d="M17.858 11.773c-1.297-5.307-8.702-4.487-9.516-.486a21.797 21.797 0 0 0-.285 1.838A1 1 0 0 1 7.055 14a1.01 1.01 0 0 1-1.01-1.036l.02-.765c-2.152-.808-4.425 1.051-4.01 3.355C2.319 17.008 3.697 18 5.178 18h7.859v-.005c3.127-.05 5.618-2.964 4.822-6.222M5.014 10c.542 0 1.056.108 1.544.267A7.002 7.002 0 0 1 13.007 6a4.94 4.94 0 0 0-2.98-1c-2.764 0-5.013 2.242-5.013 5M20 13c0 3.828-2.953 6.934-6.964 6.994l-.03.003.03.003H5.014A5.007 5.007 0 0 1 0 15a4.998 4.998 0 0 1 3.028-4.589C2.782 6.363 6.014 3 10.028 3a7.018 7.018 0 0 1 6.242 3.806A6.993 6.993 0 0 1 20 13M4.355 4.343a.998.998 0 0 0 0-1.415 1.005 1.005 0 0 0-1.418 0 1 1 0 0 0 0 1.415c.392.39 1.027.39 1.418 0m12.763 0a.998.998 0 0 0 0-1.415 1.005 1.005 0 0 0-1.418 0 1 1 0 0 0 0 1.415c.392.39 1.027.39 1.418 0M1.003 11a1.001 1.001 0 1 0 0-2 1.001 1.001 0 1 0 0 2M9.025 1c0-.553.45-1 1.003-1a1 1 0 1 1 0 2 1.002 1.002 0 0 1-1.003-1" fill="#000" fill-rule="evenodd"/></svg>