<svg width="20" height="14" xmlns="http://www.w3.org/2000/svg"><path d="M10.028 7.994h6.016V5.992h-6.016v2.002zm7.83-2.23c-1.31-5.36-8.712-4.447-9.516-.486a21.877 21.877 0 0 0-.286 1.84 1 1 0 0 1-1 .876 1.01 1.01 0 0 1-1.011-1.037l.02-.766a2.99 2.99 0 0 0-1.051-.2 3.009 3.009 0 0 0-2.958 3.56c.262 1.454 1.64 2.447 3.121 2.447h7.859v-.005c3.127-.05 5.618-2.967 4.822-6.228zM20 6.994c0 3.833-2.953 6.942-6.964 7.001l-.03.003.03.003H5.014A5.01 5.01 0 0 1 0 8.995 5.01 5.01 0 0 1 5.014 3.99c.542 0 1.055.108 1.544.267C9.523-2.716 20-.643 20 6.993zm-6.964 4.988v.012c-.027 0-.053.005-.08.005.055 0 .08-.015.08-.017z" fill="#000" fill-rule="evenodd"/></svg>