<svg width="20" height="20" xmlns="http://www.w3.org/2000/svg"><path d="M7 16.997v2.002a1 1 0 1 1-2 0v-2.002a1 1 0 1 1 2 0m7.996 0v2.002a1 1 0 1 1-1.999 0v-2.002a1 1 0 1 1 2 0m-4 0v2.002a1 1 0 1 1-1.998 0v-2.002a1 1 0 1 1 1.999 0m3.93-5.005H4.117c-.484 0-.954-.16-1.327-.437-2.101-1.563.353-4.793 2.447-3.126-2.06-6.795 8.325-9.054 9.66-2.433.016 0 .032-.003.05-.005a.273.273 0 0 1 .05-.005c1.365 0 2.521.954 2.88 2.174.552 1.885-.826 3.832-2.949 3.832m4.177-5.838a5.044 5.044 0 0 0-2.663-1.933.031.031 0 0 1-.014-.007.038.038 0 0 1-.01-.013C13.605-2.295 3.972-.94 3.066 6.083a.034.034 0 0 1-.01.02.039.039 0 0 1-.018.012c-3.123.778-4.153 4.81-1.586 6.904a4.365 4.365 0 0 0 2.75.975h10.565c4.218 0 6.655-4.524 4.339-7.84" fill="#000" fill-rule="evenodd"/></svg>