<svg width="20" height="14" xmlns="http://www.w3.org/2000/svg"><path d="M14.039 4h-2.006v2h-2.005v2h2.005v2h2.006V8h2.005V6H14.04V4zm3.82 1.773c-.458-1.87-2.017-3.357-3.919-3.693-2.54-.448-5.187 1.186-5.598 3.208a21.816 21.816 0 0 0-.286 1.837 1 1 0 0 1-1 .875 1.01 1.01 0 0 1-1.011-1.035l.02-.765A2.97 2.97 0 0 0 5.015 6a3.007 3.007 0 0 0-2.958 3.555C2.318 11.009 3.696 12 5.177 12h7.859v-.005c3.127-.05 5.618-2.964 4.822-6.222zM20 7c0 3.829-2.953 6.935-6.964 6.995l-.03.002.03.003H5.014A5.007 5.007 0 0 1 0 9c0-2.761 2.245-5 5.014-5a4.97 4.97 0 0 1 1.544.267A7.002 7.002 0 0 1 13.008 0 6.987 6.987 0 0 1 20 7zm-6.964 4.984v.011c-.027.001-.053.005-.08.005.055 0 .08-.014.08-.016z" fill="#000" fill-rule="evenodd"/></svg>