<svg width="20" height="20" xmlns="http://www.w3.org/2000/svg"><path d="M17.671 17.671a1.004 1.004 0 1 1-1.418-1.42 1.004 1.004 0 0 1 1.418 1.42M10.71 10.71a1.004 1.004 0 1 1-1.418-1.42 1.004 1.004 0 0 1 1.418 1.42M3.718 17.7A1.004 1.004 0 1 1 2.3 16.28a1.004 1.004 0 0 1 1.418 1.42m.029-13.953a1.004 1.004 0 1 1-1.418-1.42 1.004 1.004 0 0 1 1.418 1.42M16.282 2.3A1.004 1.004 0 1 1 17.7 3.72a1.004 1.004 0 0 1-1.418-1.42m-.608 11.955l-2.967-2.967c.494-.923.387-1.76 0-2.576l2.997-2.997a2.997 2.997 0 0 0 3.414-.58 3.007 3.007 0 0 0 0-4.253 3.007 3.007 0 0 0-4.254 0 3 3 0 0 0-.579 3.414l-2.997 2.998c-.816-.388-1.653-.495-2.576 0L5.745 4.327C6.16 3.324 6.09 1.835 5.166.91A3.008 3.008 0 1 0 .911 5.166c.924.925 2.413.995 3.416.579l2.967 2.967c-.495.923-.388 1.76 0 2.576l-2.998 2.997a2.999 2.999 0 0 0-3.414.58 3.007 3.007 0 0 0 0 4.253 3.007 3.007 0 0 0 4.254 0 2.997 2.997 0 0 0 .579-3.414l2.997-2.997c.816.387 1.653.494 2.576 0l2.967 2.967c-.415 1.002-.346 2.49.58 3.415a3.007 3.007 0 0 0 4.254 0 3.007 3.007 0 0 0 0-4.254c-.924-.926-2.413-.996-3.415-.58" fill="#000" fill-rule="evenodd"/></svg>