<svg width="20" height="8" xmlns="http://www.w3.org/2000/svg"><path d="M16 6c-1.103 0-2-.897-2-2s.897-2 2-2 2 .897 2 2-.897 2-2 2m-6 0c-1.103 0-2-.897-2-2s.897-2 2-2 2 .897 2 2-.897 2-2 2M4 6c-1.103 0-2-.897-2-2s.897-2 2-2 2 .897 2 2-.897 2-2 2m12-6a3.972 3.972 0 0 0-3 1.38A3.972 3.972 0 0 0 10 0a3.972 3.972 0 0 0-3 1.38A3.972 3.972 0 0 0 4 0a4 4 0 0 0 0 8 3.972 3.972 0 0 0 3-1.38A3.972 3.972 0 0 0 10 8a3.972 3.972 0 0 0 3-1.38A3.972 3.972 0 0 0 16 8a4 4 0 0 0 0-8" fill="#000" fill-rule="evenodd"/></svg>