<svg width="20" height="20" xmlns="http://www.w3.org/2000/svg"><path d="M3.586 10L5 8.797v2.406L3.586 10zM15 8.797L16.415 10 15 11.203V8.797zM8.797 15h2.406L10 16.414 8.797 15zM10 3.586L11.203 5H8.797L10 3.586zM18 12a1 1 0 0 1-1 1h-2a2 2 0 0 0-2 2v2a1 1 0 0 1-1 1H8a1 1 0 0 1-1-1v-2a2 2 0 0 0-2-2H3a1 1 0 0 1-1-1V8a1 1 0 0 1 1-1h2a2 2 0 0 0 2-2V3a1 1 0 0 1 1-1h4a1 1 0 0 1 1 1v2a2 2 0 0 0 2 2h2a1 1 0 0 1 1 1v4zm0-7h-2a1 1 0 0 1-1-1V2a2 2 0 0 0-2-2H7a2 2 0 0 0-2 2v2a1 1 0 0 1-1 1H2a2 2 0 0 0-2 2v6.001C0 14.105.895 15 1.999 15H4c.552 0 .999.45.999 1.002V18a2 2 0 0 0 2 2h6a2 2 0 0 0 2-2v-2a1 1 0 0 1 1-1h2a2 2 0 0 0 2-2V7a2 2 0 0 0-2-2z" fill="#000" fill-rule="evenodd"/></svg>