<svg width="20" height="20" xmlns="http://www.w3.org/2000/svg"><path d="M14.5 12l.25-2h2.583l-.438 1.316a1.001 1.001 0 0 1-.949.684H14.5zm-6.859 1.124L6.25 2h7.5l-1.391 11.124a1 1 0 0 1-.992.876H8.633a1 1 0 0 1-.992-.876zm-4.536-1.808L2.667 10H5.25l.25 2H4.054c-.43 0-.812-.275-.949-.684zM13 20v-2h-2v-2h1.234a2 2 0 0 0 1.985-1.752L14.25 14h2.308a2 2 0 0 0 1.898-1.368L20 8h-5l1-8H4l1 8H0l1.544 4.632A2 2 0 0 0 3.442 14H5.75l.031.248A2 2 0 0 0 7.766 16H9v2H7v2h6z" fill="#000" fill-rule="evenodd"/></svg>