<svg width="20" height="20" xmlns="http://www.w3.org/2000/svg"><path d="M17.416 13h-4.098a6.961 6.961 0 0 0 .602-2h4.006a7.981 7.981 0 0 1-.51 2zm-1.76 2.657A7.948 7.948 0 0 1 10 18a7.95 7.95 0 0 1-4.003-1.08c.334.048.668.08 1.003.08a6.979 6.979 0 0 0 4.896-2h4.347a7.832 7.832 0 0 1-.585.657zM3.466 6.464A4.967 4.967 0 0 1 6.999 5c1.337 0 2.593.52 3.536 1.464a5.006 5.006 0 0 1 0 7.072A4.968 4.968 0 0 1 7 15a4.967 4.967 0 0 1-3.534-1.464 5.006 5.006 0 0 1 0-7.072zM9.998 2a7.948 7.948 0 0 1 6.243 3h-4.348A6.979 6.979 0 0 0 7 3c-.335 0-.67.032-1.003.08A7.95 7.95 0 0 1 10 2zm7.417 5c.26.645.426 1.318.51 2H13.92a6.961 6.961 0 0 0-.602-2h4.098zm-.345-4.071A9.969 9.969 0 0 0 10 0a9.968 9.968 0 0 0-7.07 2.929A9.972 9.972 0 0 0-.002 10c0 .224.012.448.033.671a9.956 9.956 0 0 0 2.896 6.4A9.968 9.968 0 0 0 10 20c2.56 0 5.12-.976 7.072-2.929 3.905-3.905 3.905-10.237 0-14.142z" fill="#000" fill-rule="evenodd"/></svg>