<svg width="20" height="20" xmlns="http://www.w3.org/2000/svg"><path d="M5.086 18h-.531a.5.5 0 0 1-.352-.853l5.083-5.056a.978.978 0 1 0-1.384-1.383l-5.047 5.087A.5.5 0 0 1 2 15.444V15a1 1 0 1 0-2 0v3a2 2 0 0 0 2 2h3.086a1 1 0 1 0 0-2M20 6v12.2a1.8 1.8 0 0 1-1.8 1.8H9a1 1 0 0 1 0-2h8a1 1 0 0 0 1-1V7a1 1 0 0 0-1-1h-7a2 2 0 0 1-2-2V2.8a.8.8 0 0 0-.8-.8H3a1 1 0 0 0-1 1v8a1 1 0 1 1-2 0V2.2C0 .99.99 0 2.2 0H8a2 2 0 0 1 2 2v.8c0 .66.54 1.2 1.2 1.2H18a2 2 0 0 1 2 2" fill="#000" fill-rule="evenodd"/></svg>