<svg width="20" height="20" xmlns="http://www.w3.org/2000/svg"><path d="M8 15.02c0 .542.439.98.98.98h.04a.98.98 0 0 0 .98-.98V12a2 2 0 0 0-2-2H4.872c-.535 0-.872.43-.872.966v.04c0 .547.325.995.872.995h.551a.5.5 0 0 1 .353.853L.696 17.91a.98.98 0 0 0-.003 1.387l.005.006a.98.98 0 0 0 1.388-.002l5.059-5.09a.5.5 0 0 1 .855.352v.458zM20 6v12.425c0 .87-.706 1.576-1.576 1.576H9a1 1 0 0 1 0-2h8a1 1 0 0 0 1-1V6.576a.576.576 0 0 0-.576-.575h-6.815A2 2 0 0 1 8.813 4.88L7.678 2.56A1 1 0 0 0 6.779 2H3a1 1 0 0 0-1 1v8a1 1 0 0 1-2 0V2.426A2.431 2.431 0 0 1 2.424 0h4.764a2 2 0 0 1 1.789 1.104l.894 1.79A2 2 0 0 0 11.66 4H18a2 2 0 0 1 2 2z" fill="#000" fill-rule="evenodd"/></svg>