<svg width="20" height="20" xmlns="http://www.w3.org/2000/svg"><path d="M18 6H8V2H2v16h16V6zm2-2v16H0V0h10v4h10zM6.473 10.493l1.576-.228a.757.757 0 0 0 .569-.414l.704-1.429a.747.747 0 0 1 .678-.42c.27 0 .539.14.678.42l.704 1.429a.759.759 0 0 0 .57.414l1.575.228c.62.09.868.852.419 1.29l-1.14 1.11a.754.754 0 0 0-.217.67l.269 1.568a.759.759 0 0 1-.745.886.753.753 0 0 1-.352-.088l-1.409-.741a.754.754 0 0 0-.704 0l-1.409.74a.753.753 0 0 1-.352.09.759.759 0 0 1-.745-.887l.269-1.568a.754.754 0 0 0-.217-.67l-1.14-1.11a.756.756 0 0 1 .419-1.29z" fill="#000" fill-rule="evenodd"/></svg>