<svg width="20" height="20" xmlns="http://www.w3.org/2000/svg"><path d="M19 12a1 1 0 1 0 0 2.001 1 1 0 0 0 0-2zm0-4a1 1 0 1 0 0 2.001 1 1 0 0 0 0-2zM1 18a1 1 0 1 0 0 2.001 1 1 0 0 0 0-2zM18 6h2V4h-2v2zM1 10a1 1 0 1 0 0 2.001 1 1 0 0 0 0-2zm0-4a1 1 0 1 0 0 2.001 1 1 0 0 0 0-2zm0 8a1 1 0 1 0 0 2.001 1 1 0 0 0 0-2zm8 4a1 1 0 1 0 0 2.001 1 1 0 0 0 0-2zm-4 0a1 1 0 1 0 0 2.001 1 1 0 0 0 0-2zm8 0a1 1 0 1 0 0 2.001 1 1 0 0 0 0-2zm2-14a1 1 0 1 0 0 2.001 1 1 0 0 0 0-2zm-4 0h-.563L10 3.129V5a1 1 0 1 0 1-1zM8 1a1 1 0 1 0-1 1h.416L8 3.195V1zm11 15a1 1 0 0 0-1 1 1 1 0 0 1-1 1 1 1 0 0 0 0 2h1a2 2 0 0 0 2-2v-1a1 1 0 0 0-1-1zM4 1a1 1 0 0 1-1 1 1 1 0 0 0-1 1 1 1 0 0 1-2 0V2a2 2 0 0 1 2-2h1a1 1 0 0 1 1 1z" fill="#000" fill-rule="evenodd"/></svg>