<svg width="20" height="20" xmlns="http://www.w3.org/2000/svg"><path d="M5.086 18h-.531a.5.5 0 0 1-.352-.853l5.083-5.056a.978.978 0 1 0-1.384-1.383l-5.047 5.087A.5.5 0 0 1 2 15.444V15a1 1 0 1 0-2 0v3a2 2 0 0 0 2 2h3.086a1 1 0 1 0 0-2M20 6v12.424c0 .87-.705 1.576-1.576 1.576H9a1 1 0 0 1 0-2h8a1 1 0 0 0 1-1V6.576a.576.576 0 0 0-.576-.575H10.61A2 2 0 0 1 8.813 4.88L7.678 2.56A1 1 0 0 0 6.78 2H3a1 1 0 0 0-1 1v8a1 1 0 1 1-2 0V2.426A2.431 2.431 0 0 1 2.424 0h4.764a2 2 0 0 1 1.789 1.104l.895 1.79A1.998 1.998 0 0 0 11.66 4H18a2 2 0 0 1 2 2" fill="#000" fill-rule="evenodd"/></svg>