<svg width="20" height="20" xmlns="http://www.w3.org/2000/svg"><path d="M8 15a1 1 0 0 0 2 0v-3a2 2 0 0 0-2-2H4.892a1 1 0 1 0 0 2h.531a.5.5 0 0 1 .353.854L.698 17.91a.984.984 0 1 0 1.391 1.39l5.056-5.089a.5.5 0 0 1 .855.353v.438zm12-9v12.2a1.8 1.8 0 0 1-1.8 1.8H9a1 1 0 0 1 0-2h8a1 1 0 0 0 1-1V7a1 1 0 0 0-1-1h-7a2 2 0 0 1-2-2V2.8a.8.8 0 0 0-.8-.8H3a1 1 0 0 0-1 1v8a1 1 0 0 1-2 0V2.2A2.2 2.2 0 0 1 2.2 0H8a2 2 0 0 1 2 2v.8c0 .66.54 1.2 1.2 1.2H18a2 2 0 0 1 2 2z" fill="#000" fill-rule="evenodd"/></svg>