<svg width="20" height="20" xmlns="http://www.w3.org/2000/svg"><path d="M19 12a1 1 0 1 0 0 2.001 1 1 0 0 0 0-2m-4-8a1 1 0 1 0 0 2 1 1 0 0 0 0-2m4 4a1 1 0 1 0 0 2 1 1 0 0 0 0-2M3 0H2a2 2 0 0 0-2 2v1a1 1 0 0 0 2 0 1 1 0 0 1 1-1c1.321 0 1.323-2 0-2m16 16a1 1 0 0 0-1 1 1 1 0 0 1-1 1 1 1 0 0 0 0 2h1a2 2 0 0 0 2-2v-1a1 1 0 0 0-1-1M1 18a1 1 0 1 0 0 2 1 1 0 0 0 0-2m12 0a1 1 0 1 0 0 2 1 1 0 0 0 0-2M1 6a1 1 0 1 0 0 2 1 1 0 0 0 0-2m0 4a1 1 0 1 0 0 2 1 1 0 0 0 0-2m18-4A1 1 0 1 0 19 4a1 1 0 0 0 0 2M1 14a1 1 0 1 0 0 2.001 1 1 0 0 0 0-2M11 4a1 1 0 1 0 0 2 1 1 0 0 0 0-2M7 0a1 1 0 1 0 0 2 1 1 0 0 0 0-2M5 18a1 1 0 1 0 0 2 1 1 0 0 0 0-2m5 1A1 1 0 1 1 8 19a1 1 0 0 1 2 0" fill="#000" fill-rule="evenodd"/></svg>