<svg width="20" height="20" xmlns="http://www.w3.org/2000/svg"><path d="M10.375 7.283a2 2 0 1 1 .001 4 2 2 0 0 1-.001-4M20 19a1 1 0 0 1-1 1H1a1 1 0 0 1 0-2h18a1 1 0 0 1 1 1m-3.832-5.936l-9.516.618a1 1 0 0 1-1.062-1.056l.528-8.88a.997.997 0 0 1 .781-.917l3.218-.713a.997.997 0 0 1 .911.258l6.381 6.18c.248.24.354.592.281.93l-.611 2.796a1 1 0 0 1-.911.784m3.032-5.56L12.033.564a2.003 2.003 0 0 0-1.824-.517L5.73 1.04a2 2 0 0 0-1.564 1.834l-.639 10.763a2 2 0 0 0 2.126 2.115l11.395-.74a2 2 0 0 0 1.824-1.569l.89-4.075a1.999 1.999 0 0 0-.562-1.863" fill="#000" fill-rule="evenodd"/></svg>