<svg width="20" height="20" xmlns="http://www.w3.org/2000/svg"><path d="M12 7a1 1 0 0 1 1-1h2a1 1 0 0 1 1 1v2a1 1 0 0 1-1 1h-2c-.55 0-1-.45-1-1V7zM8 9a1 1 0 0 1-1 1H5c-.55 0-1-.45-1-1V7a1 1 0 0 1 1-1h2a1 1 0 0 1 1 1v2zm-.908 2.399c.695 2.915 5.121 2.915 5.816 0 .112-.467.504-.814.984-.814.616 0 1.118.552.999 1.156-1.014 5.125-8.768 5.125-9.782 0-.119-.604.383-1.156.999-1.156.48 0 .872.347.984.814zM18 17a1 1 0 0 1-1 1H3a1 1 0 0 1-1-1V3a1 1 0 0 1 1-1h14a1 1 0 0 1 1 1v14zm2-15a2 2 0 0 0-2-2H2a2 2 0 0 0-2 2v16a2 2 0 0 0 2 2h16a2 2 0 0 0 2-2V2z" fill="#000" fill-rule="evenodd"/></svg>