<svg width="20" height="20" xmlns="http://www.w3.org/2000/svg"><path d="M16 7a1 1 0 0 1-1 1h-2a1 1 0 0 1 0-2h2a1 1 0 0 1 1 1zm-8.91 4.704c.691 2.923 5.129 2.819 5.82-.104.109-.464.499-.6.975-.6h.017c.611 0 1.108.444.991 1.043-1.007 5.138-8.779 5.034-9.786-.104-.117-.599.38-.939.991-.939h.017c.476 0 .866.24.975.704zM8 7a1 1 0 0 1-1 1H5a1 1 0 0 1 0-2h2a1 1 0 0 1 1 1zm10 10a1 1 0 0 1-1 1H3a1 1 0 0 1-1-1V3a1 1 0 0 1 1-1h14a1 1 0 0 1 1 1v14zm2-15a2 2 0 0 0-2-2H2a2 2 0 0 0-2 2v16a2 2 0 0 0 2 2h16a2 2 0 0 0 2-2V2z" fill="#000" fill-rule="evenodd"/></svg>