<svg width="20" height="20" xmlns="http://www.w3.org/2000/svg"><path d="M14 12h1c.552 0 1 .247 1 .799v-.201c0 .552 0 1.013-1 1.013v.026c-1 0-1 .499-1 1.052v.103c0 .553-.448 1.208-1 1.208h-2c-.552 0-1-.551-1-1.104v-.104C10 14.24 9.552 14 9 14H5c-.552 0-1-.551-1-1.104v-.104C4 12.24 4.448 12 5 12h9zm2-5a1 1 0 0 1-1 1h-2a1 1 0 0 1 0-2h2a1 1 0 0 1 1 1zM8 7a1 1 0 0 1-1 1H5a1 1 0 0 1 0-2h2a1 1 0 0 1 1 1zm10 10a1 1 0 0 1-1 1H3a1 1 0 0 1-1-1V3a1 1 0 0 1 1-1h14a1 1 0 0 1 1 1v14zm2-15a2 2 0 0 0-2-2H2a2 2 0 0 0-2 2v16a2 2 0 0 0 2 2h16a2 2 0 0 0 2-2V2z" fill="#000" fill-rule="evenodd"/></svg>