<svg width="20" height="20" xmlns="http://www.w3.org/2000/svg"><path d="M16 13a1 1 0 0 1-1 1H5a1 1 0 0 1 0-2h10a1 1 0 0 1 1 1zm.414-8.829a.999.999 0 0 1 0 1.414l-1 1 1 1A.999.999 0 1 1 15 8.999l-1-1-1 1a.999.999 0 1 1-1.414-1.414l1-1-1-1A.999.999 0 1 1 13 4.171l1 1 1-1a.999.999 0 0 1 1.414 0zM3.586 8.999a.999.999 0 0 1 0-1.414l1-1-1-1A.999.999 0 1 1 5 4.171l1 1 1-1a.999.999 0 1 1 1.414 1.414l-1 1 1 1A.999.999 0 1 1 7 8.999l-1-1-1 1a.999.999 0 0 1-1.414 0zM18 17a1 1 0 0 1-1 1H3a1 1 0 0 1-1-1V3a1 1 0 0 1 1-1h14a1 1 0 0 1 1 1v14zm2-15a2 2 0 0 0-2-2H2a2 2 0 0 0-2 2v16a2 2 0 0 0 2 2h16a2 2 0 0 0 2-2V2z" fill="#000" fill-rule="evenodd"/></svg>