<svg width="20" height="20" xmlns="http://www.w3.org/2000/svg"><path d="M7.092 11.4c.695 2.913 5.12 2.913 5.816 0 .112-.469.504-.815.984-.815.616 0 1.118.552.999 1.156-1.014 5.125-8.768 5.125-9.782 0-.12-.604.383-1.156.999-1.156.48 0 .872.346.984.814zm9.322-7.23v.001a.999.999 0 0 1 0 1.414l-1 1 1 1A1 1 0 0 1 15 9l-1-1-1 1a1 1 0 0 1-1.414-1.414l1-1-1-1A1 1 0 0 1 13 4.17l1 1 1-1a1 1 0 0 1 1.414 0zM3.586 9a1 1 0 0 1 0-1.415l1-1-1-1A1 1 0 0 1 5 4.17l1 1 1-1a1 1 0 0 1 1.414 1.415l-1 1 1 1A.999.999 0 1 1 7 9L6 8 5 9a1 1 0 0 1-1.414 0zM18 17a1 1 0 0 1-1 1H3a1 1 0 0 1-1-1V3a1 1 0 0 1 1-1h14a1 1 0 0 1 1 1v14zm2-15a2 2 0 0 0-2-2H2a2 2 0 0 0-2 2v16a2 2 0 0 0 2 2h16a2 2 0 0 0 2-2V2z" fill="#000" fill-rule="evenodd"/></svg>