<svg width="20" height="20" xmlns="http://www.w3.org/2000/svg"><path d="M16 13.415a1 1 0 0 1-1 1H5a1 1 0 0 1 0-2h10a1 1 0 0 1 1 1M10 18c-4.411 0-8-3.589-8-8 0-1.589.471-3.067 1.273-4.313L4.586 7l-1 1A.999.999 0 1 0 5 9.414l1-1 1 1A.999.999 0 1 0 8.414 8l-1-1 1-1A.999.999 0 1 0 7 4.586l-1 1-1.437-1.437A7.96 7.96 0 0 1 10 2c2.1 0 4.008.82 5.437 2.149L14 5.586l-1-1A.999.999 0 1 0 11.586 6l1 1-1 1A.999.999 0 1 0 13 9.414l1-1 1 1A.999.999 0 1 0 16.414 8l-1-1 1.313-1.313A7.942 7.942 0 0 1 18 10c0 4.411-3.589 8-8 8m0-18C4.477 0 0 4.477 0 10s4.477 10 10 10 10-4.477 10-10S15.523 0 10 0" fill="#000" fill-rule="evenodd"/></svg>