<svg width="20" height="20" xmlns="http://www.w3.org/2000/svg"><path d="M16 7a1 1 0 0 1-1 1h-2a1 1 0 0 1 0-2h2a1 1 0 0 1 1 1zM8 7a1 1 0 0 1-1 1H5a1 1 0 0 1 0-2h2a1 1 0 0 1 1 1zm8 6.689v.896c0 .552-.448 1.026-1 1.026v.026c-.552 0-1-.396-1-.948v.103c0-.552-.448-.792-1-.792H7c-.552 0-1 .24-1 .792v-.207a1 1 0 0 1-2 0v-.896c0-1.105.896-1.702 2-1.702L14 12c1 0 2 .584 2 1.689zM18 17a1 1 0 0 1-1 1H3a1 1 0 0 1-1-1V3a1 1 0 0 1 1-1h14a1 1 0 0 1 1 1v14zm2-15a2 2 0 0 0-2-2H2a2 2 0 0 0-2 2v16a2 2 0 0 0 2 2h16a2 2 0 0 0 2-2V2z" fill="#000" fill-rule="evenodd"/></svg>