<svg width="20" height="20" xmlns="http://www.w3.org/2000/svg"><path d="M14.89 12.156c-1.013 5.125-8.767 5.125-9.78 0-.12-.604.382-1.156.998-1.156.48 0 .873.346.984.814.695 2.914 5.12 2.914 5.816 0 .112-.468.504-.814.984-.814.616 0 1.119.552.999 1.156M10 18c-4.411 0-8-3.589-8-8 0-1.589.47-3.067 1.273-4.313L4.586 7l-1 1A1 1 0 0 0 5 9.414l1-1 1 1a1 1 0 1 0 1.414-1.415l-1-.999 1-1A1 1 0 1 0 7 4.585l-1 1-1.437-1.437a7.956 7.956 0 0 1 10.874 0L14 5.585l-1-1a1 1 0 0 0-1.414 0 1.002 1.002 0 0 0 0 1.415l1 1-1 1A1 1 0 0 0 13 9.414l1-1 1 1a1 1 0 1 0 1.414-1.415l-1-.999 1.313-1.313A7.942 7.942 0 0 1 18 10c0 4.411-3.59 8-8 8m0-18C4.477 0 0 4.477 0 10c0 5.522 4.477 10 10 10s10-4.478 10-10c0-5.523-4.477-10-10-10" fill="#000" fill-rule="evenodd"/></svg>