<svg width="20" height="20" xmlns="http://www.w3.org/2000/svg"><path d="M4 15a1 1 0 0 0-1-1H2v2h1a1 1 0 0 0 1-1m1.996-.16A3 3 0 0 1 3 18H2v1a1 1 0 0 1-2 0v-6a1 1 0 0 1 1-1h1.83c1.625 0 3.081 1.216 3.166 2.84M12 12a1 1 0 0 0-1 1v1a1 1 0 0 1-2 0v-1a1 1 0 0 0-2 0v2a2 2 0 0 0 2 2v2a1 1 0 0 0 2 0v-2a2 2 0 0 0 2-2v-2a1 1 0 0 0-1-1m8-6.014V18a2 2 0 0 1-2 2h-2a1 1 0 0 1 0-2h1a1 1 0 0 0 1-1V8h-4a2 2 0 0 1-2-2V2H3a1 1 0 0 0-1 1v6a1 1 0 0 1-2 0V2a2 2 0 0 1 2-2h11.589c.251 0 .493.093.677.264l5.412 4.986a1 1 0 0 1 .322.735" fill="#000" fill-rule="evenodd"/></svg>