<svg width="14" height="20" xmlns="http://www.w3.org/2000/svg"><path d="M11 15a1 1 0 0 1-1 1H7a1 1 0 0 1 0-2h3a1 1 0 0 1 1 1zm0-3a1 1 0 0 1-1 1H7a1 1 0 0 1 0-2h3a1 1 0 0 1 1 1zm0-3a1 1 0 0 1-1 1H7a1 1 0 0 1 0-2h3a1 1 0 0 1 1 1zm-6 6a1 1 0 1 1-2 0 1 1 0 0 1 2 0zm0-3a1 1 0 1 1-2 0 1 1 0 0 1 2 0zm0-3a1 1 0 1 1-2 0 1 1 0 0 1 2 0zm7 8a1 1 0 0 1-1 1H3a1 1 0 0 1-1-1V4.5a.5.5 0 0 1 .5-.5H3a2 2 0 0 0 2 2h4a2 2 0 0 0 2-2h.5a.5.5 0 0 1 .5.5V17zM5 3a1 1 0 0 1 1-1h2a1 1 0 0 1 0 2H6a1 1 0 0 1-1-1zm7-1h-1a2 2 0 0 0-2-2H5a2 2 0 0 0-2 2H2a2 2 0 0 0-2 2v14a2 2 0 0 0 2 2h10a2 2 0 0 0 2-2V4a2 2 0 0 0-2-2z" fill="#000" fill-rule="evenodd"/></svg>