<svg width="20" height="20" xmlns="http://www.w3.org/2000/svg"><path d="M19.725 6.044L14.275.311a1.003 1.003 0 0 0-.725-.31H2a2 2 0 0 0-2 2v7a1 1 0 0 0 2 0V3a1 1 0 0 1 1-1h9v4a2 2 0 0 0 2 2h4v1a1 1 0 0 0 2 0V6.732a1 1 0 0 0-.275-.689M3.995 15a1 1 0 0 0-1-1h-1v2h1a1 1 0 0 0 1-1m.726 2.45l.628 1.256a.894.894 0 1 1-1.6.8L2.996 18H2v1a1 1 0 1 1-2 0v-6a1 1 0 0 1 1-1h1.849c1.562 0 2.97 1.13 3.13 2.684a2.99 2.99 0 0 1-1.258 2.765M16.496 14H19a1 1 0 1 0 0-2h-3.004A1.996 1.996 0 0 0 14 13.996V15a2 2 0 0 0 2 2h1.496a.5.5 0 0 1 0 1H15a1 1 0 0 0 0 2h3.016A1.983 1.983 0 0 0 20 18.017V16.98A1.979 1.979 0 0 0 18.02 15h-1.524a.5.5 0 0 1 0-1M9 14.5a.5.5 0 0 0 .5.5h1.52c1.094 0 1.98.886 1.98 1.98v1.041a1.979 1.979 0 0 1-1.98 1.98H8a1 1 0 0 1 0-2h2.5a.5.5 0 0 0 0-1H9a2 2 0 0 1-2-2v-1a2 2 0 0 1 2-2h3a1 1 0 1 1 0 2H9.5a.5.5 0 0 0-.5.5" fill="#000" fill-rule="evenodd"/></svg>