<svg width="14" height="20" xmlns="http://www.w3.org/2000/svg"><path d="M8.897 12.908c-1.902 1.746-2.151 1.528-3.849-.05-1.595-1.483-1.191-3.257-.031-3.656.732-.253 1.419.062 1.867.631a.149.149 0 0 0 .232-.002c.416-.532 1.038-.842 1.734-.669 1.281.319 1.753 2.182.047 3.746zM12 17a1 1 0 0 1-1 1H3a1 1 0 0 1-1-1V4.5a.5.5 0 0 1 .5-.5H3a2 2 0 0 0 2 2h4a2 2 0 0 0 2-2h.5a.5.5 0 0 1 .5.5V17zM6 2h2a1 1 0 1 1 0 2H6a1 1 0 0 1 0-2zm6 0h-1a2 2 0 0 0-2-2H5a2 2 0 0 0-2 2H2a2 2 0 0 0-2 2v14a2 2 0 0 0 2 2h10a2 2 0 0 0 2-2V4a2 2 0 0 0-2-2z" fill="#000" fill-rule="evenodd"/></svg>