<svg width="20" height="20" xmlns="http://www.w3.org/2000/svg"><path d="M13.98 0H0v10h2V2h10v6h6v2h2V6.439L13.98.001zM18 15.106a1 1 0 0 0-1-1h-1v2h1a1 1 0 0 0 1-1zm2-.104a3 3 0 0 1-3 3h-1v2h-2v-8h3a3 3 0 0 1 3 3zM4 17.105c0 .553-.448.896-1 .896H0v2h4c1.104 0 2-.792 2-1.896v-6.104H4v5.104zm9-5.104v2H9.5a.5.5 0 0 0 0 1h1.521c1.093 0 1.98.99 1.98 2.083v1.042C13 19.219 12.113 20 11.02 20h-4.02v-2h3.5a.5.5 0 0 0 0-1H9c-1.106 0-2-.792-2-1.896v-1c0-1.104.894-2.104 2-2.104h4z" fill="#000" fill-rule="evenodd"/></svg>