<svg width="20" height="20" xmlns="http://www.w3.org/2000/svg"><path d="M20 6.733V9a1 1 0 0 1-2 0V8h-4a2 2 0 0 1-2-2V2H3a1 1 0 0 0-1 1v6a1 1 0 0 1-2 0V2a2 2 0 0 1 2-2h11.55c.274 0 .536.113.725.311l5.45 5.733c.176.186.275.433.275.69M13 13v6a1 1 0 0 1-2 0v-2H9v2a1 1 0 0 1-2 0v-6a1 1 0 0 1 2 0v2h2v-2a1 1 0 0 1 2 0m4 3h-1v-2h1a1 1 0 0 1 0 2m-.17-4H15a1 1 0 0 0-1 1v6a1 1 0 0 0 2 0v-1h1a3 3 0 0 0 2.996-3.16C19.911 13.216 18.455 12 16.83 12M3 16H2v-2h1a1 1 0 0 1 0 2m-.17-4H1a1 1 0 0 0-1 1v6a1 1 0 0 0 2 0v-1h1a3 3 0 0 0 2.996-3.16C5.911 13.216 4.455 12 2.83 12" fill="#000" fill-rule="evenodd"/></svg>