<svg width="20" height="20" xmlns="http://www.w3.org/2000/svg"><path d="M19.725 6.044L14.275.311a1.003 1.003 0 0 0-.725-.31H2a2 2 0 0 0-2 2v7a1 1 0 0 0 2 0V3a1 1 0 0 1 1-1h9v4a2 2 0 0 0 2 2h4v1a1 1 0 0 0 2 0V6.732a1 1 0 0 0-.275-.689M11.875 12c-.5 0-.921.373-.983.87L10.25 18h-.5l-.641-5.13a.992.992 0 1 0-1.97.246l.752 6.008a1 1 0 0 0 .992.876h2.234a1 1 0 0 0 .993-.876l.75-6.008A.993.993 0 0 0 11.877 12m6.23 2H19a1 1 0 1 0 0-2h-1a4 4 0 0 0-3.981 4.393c.198 2.08 2.064 3.607 4.153 3.607H19a1 1 0 0 0 1-1v-2a1 1 0 1 0-2 0v1a2.001 2.001 0 0 1-1.972-2.336c.16-.983 1.083-1.664 2.079-1.664M2 14.5a.5.5 0 0 0 .5.5h1.52C5.115 15 6 15.886 6 16.98v1.041a1.979 1.979 0 0 1-1.98 1.98H1a1 1 0 0 1 0-2h2.5a.5.5 0 0 0 0-1H2a2 2 0 0 1-2-2v-1a2 2 0 0 1 2-2h3a1 1 0 1 1 0 2H2.5a.5.5 0 0 0-.5.5" fill="#000" fill-rule="evenodd"/></svg>