<svg width="20" height="20" xmlns="http://www.w3.org/2000/svg"><path d="M13.98 0H0v10h2V2h10v6h6v2h2V6.439L13.98.001zM4 15.106a1 1 0 0 0-1-1H2v2h1a1 1 0 0 0 1-1zm2-.104a3 3 0 0 1-3 3H2v2H0v-8h3a3 3 0 0 1 3 3zm12 .104c0-.552-.448-1.104-1-1.104h-1v4h1c.552 0 1-.343 1-.896v-2zm2-.104v2a3 3 0 0 1-3 3h-3v-8h3c1.65 0 3 1.35 3 3zm-7-3v2H9.5a.5.5 0 0 0 0 1h1.521c1.093 0 1.98.99 1.98 2.083v1.042C13 19.219 12.113 20 11.02 20h-4.02v-2h3.5a.5.5 0 0 0 0-1H9c-1.106 0-2-.792-2-1.896v-1c0-1.104.894-2.104 2-2.104h4z" fill="#000" fill-rule="evenodd"/></svg>