<svg width="20" height="20" xmlns="http://www.w3.org/2000/svg"><path d="M13.98 0H0v10h2V2h10v6h6v2h2V6.439L13.98.001zM3.995 15.106a1 1 0 0 0-1-1h-1v2h1a1 1 0 0 0 1-1zm.724 2.37l1.276 2.526h-2l-1-2H2v2H0v-8h2.996c1.657 0 3 1.395 3 3.052 0 1.013-.506 1.88-1.276 2.423zm11.276-5.474C14.891 12 14 13 14 14.105v1c0 1.104.891 1.896 1.996 1.896h1.5a.5.5 0 0 1 0 1H14v2h4.017C19.11 20 20 19.219 20 18.126v-1.042c0-1.092-.89-2.083-1.983-2.083h-1.52a.5.5 0 0 1 0-1H20v-2h-4.004zM13 12v2H9.5a.5.5 0 0 0 0 1h1.521c1.093 0 1.98.99 1.98 2.083v1.042C13 19.219 12.113 20 11.02 20h-4.02v-2h3.5a.5.5 0 0 0 0-1H9c-1.106 0-2-.792-2-1.896v-1c0-1.104.894-2.104 2-2.104h4z" fill="#000" fill-rule="evenodd"/></svg>