<svg width="20" height="20" xmlns="http://www.w3.org/2000/svg"><path d="M18 17.011a.99.99 0 0 1-.989.989H2.989A.99.99 0 0 1 2 17.011V2.989A.99.99 0 0 1 2.989 2H7v10.201a.5.5 0 0 1-.846.36l-.959-.919a.989.989 0 0 0-1.363 1.433l2.856 2.694a2 2 0 0 0 2.753-.009l2.813-2.685a.99.99 0 0 0 .041-1.39l-.014-.015a.99.99 0 0 0-1.398-.05l-1.042.971A.5.5 0 0 1 9 12.225V2h3v4a2 2 0 0 0 2 2h4v9.011zM19.71 5.71L14.29.29a.988.988 0 0 0-.7-.29H2a2 2 0 0 0-2 2v16a2 2 0 0 0 2 2h16a2 2 0 0 0 2-2V6.41a.988.988 0 0 0-.29-.7z" fill="#000" fill-rule="evenodd"/></svg>