<svg width="20" height="20" xmlns="http://www.w3.org/2000/svg"><path d="M19.725 6.044L14.275.311a1.003 1.003 0 0 0-.725-.31H2a2 2 0 0 0-2 2v7a1 1 0 0 0 2 0V3a1 1 0 0 1 1-1h9v4a2 2 0 0 0 2 2h4v1a1 1 0 0 0 2 0V6.732a1 1 0 0 0-.275-.689zM4 15a1 1 0 0 0-1-1H2v2h1a1 1 0 0 0 1-1zm1.996-.16A3 3 0 0 1 3 18H2v1a1 1 0 1 1-2 0v-6a1 1 0 0 1 1-1h1.83c1.625 0 3.08 1.217 3.166 2.84zM18 15a1 1 0 0 0-1-1h-1v4h1a1 1 0 0 0 1-1v-2zm2 0v2a3 3 0 0 1-3 3h-2a1 1 0 0 1-1-1v-6a1 1 0 0 1 1-1h2a3 3 0 0 1 3 3zm-11-.5a.5.5 0 0 0 .5.5h1.52c1.094 0 1.98.886 1.98 1.98v1.041a1.979 1.979 0 0 1-1.98 1.98H8a1 1 0 0 1 0-2h2.5a.5.5 0 0 0 0-1H9a2 2 0 0 1-2-2v-1a2 2 0 0 1 2-2h3a1 1 0 1 1 0 2H9.5a.5.5 0 0 0-.5.5z" fill="#000" fill-rule="evenodd"/></svg>