<svg width="20" height="20" xmlns="http://www.w3.org/2000/svg"><path d="M19.725 6.044L14.275.311a1.003 1.003 0 0 0-.725-.31H2a2 2 0 0 0-2 2v7c0 .551.47 1 1.023 1h.01C1.587 10 2 9.551 2 9V3a1 1 0 0 1 1-1h9v4a2 2 0 0 0 2 2h4v1c0 .551.47 1 1.023 1h.01c.553 0 .967-.449.967-1V6.732a1 1 0 0 0-.275-.689M11 15a1 1 0 0 0-1-1H9v2h1a1 1 0 0 0 1-1m.725 2.45l.628 1.256a.894.894 0 1 1-1.6.8L10 18H9v1c0 .552-.414 1-.966 1h-.011C7.47 20 7 19.552 7 19v-6a1 1 0 0 1 1-1h1.853c1.562 0 2.97 1.13 3.13 2.684a2.99 2.99 0 0 1-1.258 2.765M2.5 14H5a1 1 0 1 0 0-2H2a2 2 0 0 0-2 2v1a2 2 0 0 0 2 2h1.5a.5.5 0 0 1 0 1H1a1 1 0 0 0 0 2h3.02A1.979 1.979 0 0 0 6 18.021V16.98A1.979 1.979 0 0 0 4.02 15H2.5a.5.5 0 0 1 0-1m13.528 2.336C16.187 17.32 17.11 18 18.107 18H19a1 1 0 1 1 0 2h-.828c-2.09 0-3.955-1.527-4.153-3.607A4 4 0 0 1 17.999 12h1a1 1 0 1 1 0 2h-1a2.001 2.001 0 0 0-1.971 2.336" fill="#000" fill-rule="evenodd"/></svg>