<svg width="20" height="20" xmlns="http://www.w3.org/2000/svg"><path d="M4.488 12h.53c.447 0 .67.75.353 1.064l-5.083 5.16a1.042 1.042 0 0 0-.004 1.435c.382.385 1.006.412 1.388.027l5.26-5.075C7.246 14.294 8 14.53 8 14.976v.443a1 1 0 0 0 2 0v-3c0-1.105-1.322-2.418-2.426-2.418H4.488a1 1 0 1 0 0 2M20 6.49v11.51a2 2 0 0 1-2 2H9a1 1 0 0 1 0-2h8a1 1 0 0 0 1-1V8h-4a2 2 0 0 1-2-2V2H3a1 1 0 0 0-1 1v8a1 1 0 0 1-2 0V2a2 2 0 0 1 2-2h11.582a1 1 0 0 1 .712.298l5.418 5.49a.997.997 0 0 1 .288.703" fill="#000" fill-rule="evenodd"/></svg>