<svg width="22" height="20" xmlns="http://www.w3.org/2000/svg"><path d="M21 10a1 1 0 1 0 0 2.001 1 1 0 0 0 0-2m-8 8a1 1 0 1 0 0 2 1 1 0 0 0 0-2m4 0a1 1 0 1 0 0 2 1 1 0 0 0 0-2m4 0a1 1 0 1 0 0 2 1 1 0 0 0 0-2M5 18H1a1 1 0 0 0 0 2h4a1 1 0 0 0 0-2M3 2A1 1 0 1 0 3 0a1 1 0 0 0 0 2m18 12a1 1 0 1 0 0 2.001 1 1 0 0 0 0-2M7 0a1 1 0 1 0 0 2 1 1 0 0 0 0-2m4 0a1 1 0 1 0 0 2 1 1 0 0 0 0-2M3 6A1 1 0 1 0 3 4a1 1 0 0 0 0 2m0 8a1 1 0 1 0 0-2 1 1 0 0 0 0 2m6 4a1 1 0 1 0 0 2.001 1 1 0 0 0 0-2M21.707 5.707L16.293.293a1 1 0 0 0-.707-.292H15a1 1 0 0 0-1 1v5a2 2 0 0 0 2 2h5a1 1 0 0 0 1-1v-.586a1 1 0 0 0-.293-.708M2 9.001a1 1 0 1 1 2 0 1 1 0 0 1-2 0" fill="#000" fill-rule="evenodd"/></svg>