<svg width="20" height="20" xmlns="http://www.w3.org/2000/svg"><path d="M19.678 5.25L14.267.265a1.002 1.002 0 0 0-.678-.263H1.999a2 2 0 0 0-2 2v7a1 1 0 0 0 2 0V3a1 1 0 0 1 1-1h9v4a2 2 0 0 0 2 2h4v9a1 1 0 0 1-1 1h-1a1 1 0 0 0 0 2h2a2 2 0 0 0 2-2V5.986a.997.997 0 0 0-.321-.735M5 12a1 1 0 0 0-1 1v4a1 1 0 0 1-1 1H1a1 1 0 0 0 0 2h3a2 2 0 0 0 2-2v-5a1 1 0 0 0-1-1m4 2.5a.5.5 0 0 0 .5.5h1.52c1.094 0 1.98.886 1.98 1.978v1.043A1.979 1.979 0 0 1 11.02 20H8a1 1 0 0 1 0-2h2.5a.5.5 0 1 0 0-1H9a2 2 0 0 1-2-2v-1a2 2 0 0 1 2-2h3a1 1 0 0 1 1 1c0 1.242-1.258 1-3.5 1a.5.5 0 0 0-.5.5" fill="#000" fill-rule="evenodd"/></svg>