<svg width="20" height="20" xmlns="http://www.w3.org/2000/svg"><path d="M13.946 11.781l-1.14 1.111a.757.757 0 0 0-.218.669l.27 1.57a.758.758 0 0 1-.745.885.753.753 0 0 1-.352-.089l-1.409-.741a.766.766 0 0 0-.704 0l-1.409.741a.753.753 0 0 1-1.097-.796l.269-1.57a.754.754 0 0 0-.217-.669l-1.14-1.111a.756.756 0 0 1 .419-1.289l1.575-.229a.756.756 0 0 0 .57-.414l.704-1.427A.748.748 0 0 1 10 8c.27 0 .539.141.678.422l.704 1.427a.757.757 0 0 0 .569.414l1.576.229c.62.09.868.852.419 1.289zM18 17a1 1 0 0 1-1 1H3a1 1 0 0 1-1-1V3a1 1 0 0 1 1-1h9v4a2 2 0 0 0 2 2h4v9zm1.707-11.293L14.293.293A1.003 1.003 0 0 0 13.586 0H2a2 2 0 0 0-2 2v16a2 2 0 0 0 2 2h16a2 2 0 0 0 2-2V6.414a1 1 0 0 0-.293-.707z" fill="#000" fill-rule="evenodd"/></svg>