<svg width="14" height="20" xmlns="http://www.w3.org/2000/svg"><path d="M12 4.5a.5.5 0 0 0-.5-.5H11a2 2 0 0 1-2 2H5a2 2 0 0 1-2-2h-.5a.5.5 0 0 0-.5.5V17a1 1 0 0 0 1 1h8a1 1 0 0 0 1-1V4.5zM5 3a1 1 0 0 0 1 1h2a1 1 0 0 0 0-2H6a1 1 0 0 0-1 1zm9 1v14a2 2 0 0 1-2 2H2a2 2 0 0 1-2-2V4a2 2 0 0 1 2-2h1a2 2 0 0 1 2-2h4a2 2 0 0 1 2 2h1a2 2 0 0 1 2 2zM9.828 8.879a.999.999 0 0 1 0 1.414l-3.535 3.535-2.121-2.121a.999.999 0 1 1 1.414-1.414l.707.707 2.121-2.121a.999.999 0 0 1 1.414 0z" fill="#000" fill-rule="evenodd"/></svg>