<svg width="20" height="20" xmlns="http://www.w3.org/2000/svg"><path d="M19.725 6.044L14.275.311a1.003 1.003 0 0 0-.725-.31H2a2 2 0 0 0-2 2v7a1 1 0 0 0 2 0V3a1 1 0 0 1 1-1h9v4a2 2 0 0 0 2 2h4v1a1 1 0 0 0 2 0V6.732a1 1 0 0 0-.275-.689zM17.995 15a1 1 0 0 0-1-1h-1v2h1a1 1 0 0 0 1-1zm.726 2.45l.628 1.256a.894.894 0 1 1-1.6.8L16.996 18H16v1a1 1 0 1 1-2 0v-6a1 1 0 0 1 1-1h1.849c1.562 0 2.97 1.13 3.13 2.684a2.99 2.99 0 0 1-1.258 2.765zM11 14.5a.5.5 0 0 0-.5-.5h-1a.5.5 0 0 0-.5.5V16h2v-1.5zm2-1.5v6a1 1 0 1 1-2 0v-1H9v1a1 1 0 1 1-2 0v-6a1 1 0 0 1 1-1h4a1 1 0 0 1 1 1zm-7 0v5a2 2 0 0 1-2 2H1a1 1 0 0 1 0-2h2a1 1 0 0 0 1-1v-4a1 1 0 0 1 2 0z" fill="#000" fill-rule="evenodd"/></svg>