<svg width="24" height="23" xmlns="http://www.w3.org/2000/svg"><path d="M4.92 17.27a.196.196 0 0 1-.307.003c-2.132-2.734-5.885.788-2.424 4.04 2.603 2.449 2.976 2.022 5.083.069 3.617-3.355-.253-6.822-2.352-4.111zM21.8 12.127h1.981v-2.004h-1.98v2.004zm-7.925 8.014h1.981v-2.004h-1.98v2.004zm3.963 0h1.98v-2.004h-1.98v2.004zm3.962 0h1.981v-2.004h-1.98v2.004zM3.97 2.109H5.95V.105H3.97V2.11zM21.8 16.133h1.981v-2.004h-1.98v2.004zM7.932 2.109h1.982V.105H7.932V2.11zm3.963 0h1.981V.105h-1.981V2.11zM3.97 6.115H5.95V4.112H3.97v2.003zm0 8.014H5.95v-2.003H3.97v2.003zm5.944 6.01h1.98v-2.003h-1.98v2.004zM17.839.002h-1.982v8.014h7.925v-1.9L17.84.001zM3.969 10.122h1.982V8.12H3.97v2.003z" fill="#000" fill-rule="evenodd"/></svg>