<svg width="20" height="20" xmlns="http://www.w3.org/2000/svg"><path d="M12 11.002V8.999a.998.998 0 0 0-.998-1H8.998A.998.998 0 0 0 8 9v2.003c0 .55.447.998.998.998h2.004a.998.998 0 0 0 .998-.998zM12 14h-1v1a1 1 0 1 1-2 0v-1H8a2 2 0 0 1-2-2v-1H5a1 1 0 1 1 0-2h1V8a2 2 0 0 1 2-2h1V5a1 1 0 0 1 2 0v1h1a2 2 0 0 1 2 2v1h1a1 1 0 0 1 0 2h-1v1a2 2 0 0 1-2 2zm6-14h-5a1 1 0 0 0 0 2h4a1 1 0 0 1 1 1v4a1 1 0 1 0 2 0V2a2 2 0 0 0-2-2zm1 12a1 1 0 0 0-1 1v4a1 1 0 0 1-1 1h-4a1 1 0 0 0 0 2h5a2 2 0 0 0 2-2v-5a1 1 0 0 0-1-1zM7 18H3a1 1 0 0 1-1-1v-4a1 1 0 0 0-2 0v5a2 2 0 0 0 2 2h5a1 1 0 1 0 0-2zM1 8a1 1 0 0 0 1-1V3a1 1 0 0 1 1-1h4a1 1 0 1 0 0-2H2a2 2 0 0 0-2 2v5a1 1 0 0 0 1 1zm-.99 2l-.01.01v-.02l.01.01z" fill="#000" fill-rule="evenodd"/></svg>