<svg width="20" height="20" xmlns="http://www.w3.org/2000/svg"><path d="M20 2v5a1 1 0 0 1-2 0V3a1 1 0 0 0-1-1h-4a1 1 0 0 1 0-2h5a2 2 0 0 1 2 2zm-2 18h-5a1 1 0 0 1 0-2h4a1 1 0 0 0 1-1v-4a1 1 0 0 1 2 0v5a2 2 0 0 1-2 2zM0 18v-5a1 1 0 0 1 2 0v4a1 1 0 0 0 1 1h4a1 1 0 0 1 0 2H2a2 2 0 0 1-2-2zM0 7V2a2 2 0 0 1 2-2h5a1 1 0 0 1 0 2H3a1 1 0 0 0-1 1v4a1 1 0 0 1-2 0zm.01 3l-.01.01v-.02l.01.01zM10 12c-1.103 0-2-.897-2-2s.897-2 2-2 2 .897 2 2-.897 2-2 2zm3.859-1H15a1 1 0 0 0 0-2h-1.141A3.987 3.987 0 0 0 11 6.141V5a1 1 0 0 0-2 0v1.141A3.987 3.987 0 0 0 6.141 9H5a1 1 0 0 0 0 2h1.141A3.987 3.987 0 0 0 9 13.859V15a1 1 0 0 0 2 0v-1.141A3.987 3.987 0 0 0 13.859 11z" fill="#000" fill-rule="evenodd"/></svg>