<svg width="20" height="20" xmlns="http://www.w3.org/2000/svg"><path d="M3 7v6a1 1 0 0 0 2 0v-2h2v2a1 1 0 0 0 2 0V7a1 1 0 0 0-2 0v2H5V7a1 1 0 0 0-2 0zm12 1.5a.5.5 0 0 0-.5-.5H13v4h1.5c.275 0 .5-.225.5-.5v-3zm.395 5.5H12a1 1 0 0 1-1-1V7a1 1 0 0 1 1-1h3.395C16.282 6 17 6.718 17 7.605v4.79c0 .887-.718 1.605-1.605 1.605zM2 0a2 2 0 0 0-2 2v1a1 1 0 0 0 2 0 1 1 0 0 1 1-1h14a1 1 0 0 1 1 1 1 1 0 0 0 2 0V2a2 2 0 0 0-2-2H2zm16 17a1 1 0 0 1 2 0v1a2 2 0 0 1-2 2H2a2 2 0 0 1-2-2v-1a1 1 0 0 1 2 0 1 1 0 0 0 1 1h14a1 1 0 0 0 1-1z" fill="#000" fill-rule="evenodd"/></svg>