<svg width="12" height="20" xmlns="http://www.w3.org/2000/svg"><path d="M5 16h2v1a1 1 0 0 1-2 0v-1zm0 4h2a2 2 0 0 0 2-2v-3a1 1 0 0 0-1-1H4a1 1 0 0 0-1 1v3a2 2 0 0 0 2 2zm3.162-9.979c-2.68-.028-1.694-.028-4.325 0C2.981 8.931 2 6.79 2 5.851 2 3.728 3.794 2 6 2s4 1.728 4 3.851c0 .939-.981 3.08-1.838 4.17zM6 0C2.686 0 0 2.62 0 5.851c0 1.63 1.42 4.537 2.652 5.848.197.209.467.329.754.326 3.706-.038 5.195.001 5.188 0a1.02 1.02 0 0 0 .754-.326C10.58 10.388 12 7.481 12 5.851 12 2.62 9.314 0 6 0z" fill="#000" fill-rule="evenodd"/></svg>