<svg width="20" height="20" xmlns="http://www.w3.org/2000/svg"><path d="M14.022 9.954a3.987 3.987 0 0 1-3.985-3.982 3.987 3.987 0 0 1 3.985-3.981 3.987 3.987 0 0 1 3.985 3.981 3.987 3.987 0 0 1-3.985 3.982m0-9.954a5.975 5.975 0 0 0-5.978 5.972c0 1.294.417 2.49 1.117 3.468l-4.806 4.802-1.392-1.392-1.409 1.409 1.392 1.39L0 18.593 1.409 20l1.42-1.42 1.381 1.38 1.41-1.407-1.382-1.38 1.972-1.97 1.4 1.4 1.41-1.408-1.401-1.4 2.954-2.95A5.975 5.975 0 0 0 20 5.973 5.975 5.975 0 0 0 14.022 0" fill="#000" fill-rule="evenodd"/></svg>