<svg width="20" height="20" xmlns="http://www.w3.org/2000/svg"><path d="M8.167 14.948v-.052l-.004.026c0 .009.004.017.004.026zM7 14H6a4.004 4.004 0 0 1-3.98-4.399C2.222 7.523 4.09 6 6.178 6H7c.544 0 1.144-.534 1.163-1.078C8.143 4.384 7.543 4 7 4h-.748C2.967 4 .102 6.532.002 9.816A6 6 0 0 0 6 16h1c.544 0 1.144-.534 1.163-1.078C8.143 14.384 7.543 14 7 14zm1.167-9.104l-.004.026c0 .009.004.017.004.026v-.052zM13.749 4h-.75c-.551 0-1 .344-1 .896v.052C12 5.5 12.449 6 13 6h.823c2.088 0 3.956 1.523 4.159 3.601A4.005 4.005 0 0 1 14 14h-1c-.552 0-1 .344-1 .896v.052C12 15.5 12.448 16 13 16h1a6 6 0 0 0 5.998-6.184C19.898 6.532 17.034 4 13.748 4zm-3.75 9a1 1 0 0 0-1 1v5a1 1 0 0 0 2 0v-5a1 1 0 0 0-1-1zm0-6a1 1 0 0 0 1-1V1a1 1 0 1 0-2 0v5a1 1 0 0 0 1 1zM5.168 9h10a1 1 0 0 1 0 2h-10a1 1 0 0 1 0-2z" fill="#000" fill-rule="evenodd"/></svg>