<svg width="14" height="20" xmlns="http://www.w3.org/2000/svg"><path d="M9.121 15.121a1 1 0 0 1-1.414 0L7 14.414l-.707.707a1.001 1.001 0 0 1-1.415-1.414L5.585 13l-.707-.707a1.002 1.002 0 0 1 0-1.415 1.002 1.002 0 0 1 1.415 0l.707.707.707-.707a1 1 0 0 1 1.414 1.415L8.414 13l.707.707a.999.999 0 0 1 0 1.414zM12 17.001a1 1 0 0 1-1 1H3a1 1 0 0 1-1-1V9a1 1 0 0 1 1-1h8a1 1 0 0 1 1 1v8zM5 4c0-1.104.897-2 2-2 1.102 0 2 1 2 2v2H5V4zm7 2h-1V4C11 1.751 8.739-.496 6.164.094 4.266.53 3 2.341 3 4.288V6H2a2 2 0 0 0-2 2v10a2 2 0 0 0 2 2h10a2 2 0 0 0 2-2V8a2 2 0 0 0-2-2z" fill="#000" fill-rule="evenodd"/></svg>