<svg width="20" height="20" xmlns="http://www.w3.org/2000/svg"><path d="M11 0v2.03c3.94.497 7 3.878 7 7.97s-3.06 7.473-7 7.97V20c5.053-.505 9-4.788 9-10S16.053.506 11 0M6.667 12.17l1.47-1.453A2.006 2.006 0 0 1 10 7.987c.253 0 .492.049.714.134l1.467-1.48c-.627-.419-1.371-.687-2.181-.687-1.858 0-3.411.98-3.858 2.99H4.09c.158-1.005.551-1.779 1.092-2.522L3.747 5.006A8.006 8.006 0 0 0 2 10.001c0 4.091 3.06 7.472 7 7.97V20c-5.053-.505-9-4.788-9-10S3.947.506 9 0v2.03a7.933 7.933 0 0 0-3.822 1.565l1.439 1.44C7.582 4.365 8.738 3.943 10 3.943c2.972 0 5.433 1.985 5.91 5h-2.052c-.077 0-.198-.553-.337-.82l-1.55 1.583c.014.097.029.191.029.291 0 1.111-.895 2.009-2 2.009-.1 0-.195-.018-.291-.033L8.146 13.54a3.916 3.916 0 0 0 1.854.456c1.858 0 3.411-1.03 3.858-3.04h2.052c-.477 3.015-2.938 5.025-5.91 5.025s-5.433-2.01-5.91-5.026h2.052c.111 0 .29.855.525 1.216" fill="#000" fill-rule="evenodd"/></svg>