<svg width="20" height="20" xmlns="http://www.w3.org/2000/svg"><path d="M15 11.957a.273.273 0 0 0-.05.005c-.017.002-.033.005-.05.005-1.033-5.124-8.262-5.412-9.682-.353-.266.947-.33 1.636.02 2.783-2.109-1.675-4.549 1.586-2.45 3.145.374.278.844.458 1.33.458h10.814c1.092 0 2.495-.771 2.913-2.074.672-2.098-.955-3.969-2.845-3.969m-1.706-5.16c1.505.81 2.53 1.995 3.128 3.377a.04.04 0 0 0 .01.012.026.026 0 0 0 .013.008 5.02 5.02 0 0 1 1.488.74c.04-.321.066-.646.066-.977a8.006 8.006 0 0 0-4.25-7.063c.104 1.235.011 2.459-.455 3.903m6.255 6.108c.9 1.963.45 4.298-1.268 5.776A5.424 5.424 0 0 1 14.771 20H4.2a4.39 4.39 0 0 1-2.75-.996 3.895 3.895 0 0 1-1.417-2.515 3.977 3.977 0 0 1 .685-2.814l.01-.01a9.642 9.642 0 0 1-.686-2.854 7.72 7.72 0 0 0 3.081.903 6.992 6.992 0 0 1 2.724-4.391.97.97 0 0 1-.344-.276A1 1 0 1 1 7.09 5.829a.994.994 0 0 1 .195.682c1.384-.585 2.736-.681 4.134-.392A7.885 7.885 0 0 0 10.854 0C17.14.536 21.45 6.757 19.55 12.905M6.274 3.427a1 1 0 1 0-1.218-1.586 1 1 0 0 0 1.218 1.586M1.7 6.679a1 1 0 1 1 1.587-1.218A1 1 0 0 1 1.7 6.68" fill="#000" fill-rule="evenodd"/></svg>