<svg width="20" height="20" xmlns="http://www.w3.org/2000/svg"><path d="M6 15a1 1 0 0 0-1-1H3a1 1 0 0 0-1 1v2a1 1 0 0 0 1 1h2a1 1 0 0 0 1-1v-2zm2-1v4a2 2 0 0 1-2 2H2a2 2 0 0 1-2-2v-4a2 2 0 0 1 2-2h4a2 2 0 0 1 2 2zm8-3.99a1 1 0 0 0-1 1v3c0 .552-.448.99-1 .99h-3a1 1 0 0 0 0 2h4c1.105 0 2-.886 2-1.99v-4a1 1 0 0 0-1-1zM18 3a1 1 0 0 0-1-1h-2a1 1 0 0 0-1 1v2a1 1 0 0 0 1 1h2a1 1 0 0 0 1-1V3zm2-1v4a2 2 0 0 1-2 2h-4a2 2 0 0 1-2-2V2a2 2 0 0 1 2-2h4a2 2 0 0 1 2 2zM10 4a1 1 0 0 1-1 1H6c-.552 0-1 .457-1 1.01v3a1 1 0 0 1-2 0v-4C3 3.905 3.895 3 5 3h4a1 1 0 0 1 1 1z" fill="#000" fill-rule="evenodd"/></svg>