<svg width="20" height="20" xmlns="http://www.w3.org/2000/svg"><path d="M6 15a1 1 0 0 0-1-1H3a1 1 0 0 0-1 1v2a1 1 0 0 0 1 1h2a1 1 0 0 0 1-1v-2zm2-1v4a2 2 0 0 1-2 2H2a2 2 0 0 1-2-2v-4a2 2 0 0 1 2-2h4a2 2 0 0 1 2 2zM18 3a1 1 0 0 0-1-1h-2a1 1 0 0 0-1 1v2a1 1 0 0 0 1 1h2a1 1 0 0 0 1-1V3zm2-1v4a2 2 0 0 1-2 2h-4a2 2 0 0 1-2-2V2a2 2 0 0 1 2-2h4a2 2 0 0 1 2 2zm-3 8h-2a.996.996 0 1 0 0 1.99v2c0 .553-.448 1.01-1 1.01h-2c0-1-.448-1.005-1-1.005s-1 .443-1 .995v2c0 .553.448 1.005 1 1.005S12 18 12 17h3c1.105 0 2-.905 2-2.01v-3A.996.996 0 1 0 17 10zm-7-5a1 1 0 0 1-2 0H6a1 1 0 0 0-1 1v2a1 1 0 0 1 0 2H3a1 1 0 0 1 0-2V5a2 2 0 0 1 2-2h3a1 1 0 0 1 2 0v2z" fill="#000" fill-rule="evenodd"/></svg>