<svg width="20" height="20" xmlns="http://www.w3.org/2000/svg"><path d="M6 15a1 1 0 0 0-1-1H3a1 1 0 0 0-1 1v2a1 1 0 0 0 1 1h2a1 1 0 0 0 1-1v-2zm2-1v4a2 2 0 0 1-2 2H2a2 2 0 0 1-2-2v-4a2 2 0 0 1 2-2h4a2 2 0 0 1 2 2zM18 3a1 1 0 0 0-1-1h-2a1 1 0 0 0-1 1v2a1 1 0 0 0 1 1h2a1 1 0 0 0 1-1V3zm2-1v4a2 2 0 0 1-2 2h-4a2 2 0 0 1-2-2V2a2 2 0 0 1 2-2h4a2 2 0 0 1 2 2zm-2 8.995a.996.996 0 0 1-1 .995v3c0 1.105-.895 2.01-2 2.01h-3c0 1-.448.995-1 .995s-1-.452-1-1.005v-2a.996.996 0 0 1 1-.995c.552 0 1 .005 1 1.005h2c.552 0 1-.457 1-1.01v-2A.996.996 0 1 1 15 10h2c.552 0 1 .443 1 .995z" fill="#000" fill-rule="evenodd"/></svg>