<svg width="20" height="20" xmlns="http://www.w3.org/2000/svg"><path d="M19.719 11.397l-.04-.041a1.029 1.029 0 0 0-1.403-.055l-.91.794V2c0-1.105-.916-2-2.044-2H2.043C.914 0 0 .895 0 2v1.01A1 1 0 0 0 1.011 4h.02a1 1 0 0 0 1.012-.99v-.02A1 1 0 0 1 3.054 2h11.257a1 1 0 0 1 1.011.99v9.105l-.823-.752a1.027 1.027 0 0 0-1.43.049l-.003.004a.974.974 0 0 0 .05 1.4l1.9 1.729a2.075 2.075 0 0 0 2.785-.004l1.878-1.715a.975.975 0 0 0 .04-1.41zM8.172 7.99A1 1 0 0 0 7.161 7H3.054a1 1 0 0 0-1.01.99v9.02a1 1 0 0 0 1.01.99h4.107a1 1 0 0 0 1.011-.99V7.99zM10.215 7v11c0 1.105-.915 2-2.043 2H2.043C.914 20 0 19.105 0 18V7c0-1.105.914-2 2.043-2h6.129c1.128 0 2.043.895 2.043 2zm-4.086 7.99v.02a1 1 0 0 1-1.011.99h-.02a1 1 0 0 1-1.012-.99v-.02A1 1 0 0 1 5.097 14h.02a1 1 0 0 1 1.012.99z" fill="#000" fill-rule="evenodd"/></svg>