<svg width="22" height="22" xmlns="http://www.w3.org/2000/svg"><path d="M22 18.955a1 1 0 0 1-1 .998h-1v1.05a1 1 0 0 1-2 0v-1.05h-1a1 1 0 0 1-1-.998 1 1 0 0 1 1-.997h1v-.946a1 1 0 0 1 2 0v.946h1a1 1 0 0 1 1 .997M10.623 9.91a7.862 7.862 0 0 0-.654-.033c-.203 0-.402.015-.601.03A2.998 2.998 0 0 1 7 6.983a3 3 0 0 1 6 0 2.999 2.999 0 0 1-2.377 2.927m-8.605 7.05c-.014.005-.004 0-.018.006V2.986c0-.55.448-.99 1-.99h6.847A4.994 4.994 0 0 0 5 6.98c0 1.441.622 2.731 1.602 3.642-2.478 1.147-4.27 3.516-4.584 6.338M14.903 5.976a4.955 4.955 0 0 0-4.837-3.98H17a1 1 0 0 1 1 .997v8.979a1 1 0 0 0 2 0V1.995A1.997 1.997 0 0 0 18 0H2C.895 0 0 .893 0 1.995v15.963c0 1.101.895 1.995 2 1.995h10a1 1 0 0 0 1-.998 1 1 0 0 0-1-.997H3.975c-.001 0-.006-.066-.006-.107 0-6.084 7.386-6.888 9.241-5.168 1.073.995 2.464-.59 1.386-1.354a7.93 7.93 0 0 0-1.221-.712c1.214-1.114 1.889-2.785 1.528-4.641" fill="#000" fill-rule="evenodd"/></svg>