<svg width="23" height="24" xmlns="http://www.w3.org/2000/svg"><path d="M23 16.014v5.004h-.002a2 2 0 0 1-3.998-.02c0-1.106.895-2.002 2-2.002v-.98h-4v4.003h-.002A2 2 0 0 1 13 22c0-1.106.895-2.002 2-2.002v-3.983h8zm-21 1V3.004a1 1 0 0 1 1-1.001h6.936A5.001 5.001 0 0 0 5 7.003c0 1.445.622 2.74 1.602 3.653a7.991 7.991 0 0 0-4.59 6.418c-.001-.021-.012-.038-.012-.06zM13 7.007a3.006 3.006 0 0 1-2.377 2.936 6.184 6.184 0 0 0-1.255-.003A3.005 3.005 0 0 1 7 7.006a3.005 3.005 0 0 1 3-3.002c1.654 0 3 1.347 3 3.002zm-.91 11.01H3.975a1.07 1.07 0 0 1-.006-.107 6.006 6.006 0 0 1 5.37-5.966c.935.126.602.065 1.284-.022.948.104 1.824.094 2.587.803.184.17.411.287.662.287 1.183 0 1.392-1.17.724-1.645a7.925 7.925 0 0 0-1.221-.715C14.368 9.737 15 8.451 15 6.993a4.993 4.993 0 0 0-4.936-4.991H17a1 1 0 0 1 1 1v9.099c0 .503.408.91.91.91h.18a.91.91 0 0 0 .91-.91V2A2 2 0 0 0 18 0H2a2 2 0 0 0-2 2.002v16.014c0 1.105.895 2.002 2 2.002h10.09a.91.91 0 0 0 .91-.911c0-.759-.406-1.091-.91-1.091z" fill="#000" fill-rule="evenodd"/></svg>