<svg width="20" height="20" xmlns="http://www.w3.org/2000/svg"><path d="M20 2.997v1.999h-3v2.997h-2V4.996h-3V2.997h3V0h2v2.997h3zM8.042 11.891L8 11.89l-.042.002A1.999 1.999 0 0 1 6 9.897a2.001 2.001 0 0 1 4 0 1.999 1.999 0 0 1-1.958 1.994zm2.984.593A3.958 3.958 0 0 0 12 9.897a3.998 3.998 0 0 0-4-3.996c-2.209 0-4 1.79-4 3.996 0 .992.375 1.889.974 2.587C2.057 13.674 0 16.638 0 19.982c0 .04.005 0 .006 0H2c0-3.29 2.669-6.07 5.958-6.092.014 0 .027.004.042.004.015 0 .028-.004.042-.004C11.331 13.913 14 16.69 14 19.982h2c0-3.344-2.057-6.307-4.974-7.498z" fill="#000" fill-rule="evenodd"/></svg>