<svg width="20" height="17" xmlns="http://www.w3.org/2000/svg"><path d="M12 2h8V0h-8v2zM2.312 15a6.002 6.002 0 0 1 5.646-4.098c.014 0 .027.004.042.004.015 0 .028-.004.042-.004A6.002 6.002 0 0 1 13.69 15H2.312zM8 4.906c1.103 0 2 .897 2 2a2 2 0 0 1-1.958 1.996L8 8.9l-.042.002A2 2 0 0 1 6 6.906c0-1.103.897-2 2-2zm3.026 4.589A3.964 3.964 0 0 0 12 6.906a4 4 0 0 0-8 0c0 .993.375 1.89.974 2.589A7.985 7.985 0 0 0 0 16.89c0 .04.005.11.006.11h15.988s.006-.066.006-.107a7.99 7.99 0 0 0-4.974-7.398z" fill="#000" fill-rule="evenodd"/></svg>