<svg width="19" height="19" xmlns="http://www.w3.org/2000/svg"><path d="M18.708 4.507a.991.991 0 0 1 0 1.405.996.996 0 0 1-1.408 0l-1.408-1.405-1.409 1.405a.996.996 0 0 1-1.408 0 .993.993 0 0 1 0-1.405l1.408-1.405-1.408-1.405a.994.994 0 0 1 0-1.406.998.998 0 0 1 1.408 0l1.409 1.406L17.3.29a.998.998 0 0 1 1.408 0 .992.992 0 0 1 0 1.406L17.3 3.102l1.408 1.405zM7.937 10.953l-.043-.002-.042.002a1.99 1.99 0 0 1-1.95-1.983 1.992 1.992 0 0 1 3.984 0c0 1.081-.87 1.96-1.95 1.983zm2.97.59a3.925 3.925 0 0 0 .796-3.748A3.942 3.942 0 0 0 8.823 5.1C6.217 4.515 3.91 6.473 3.91 8.97c0 .987.373 1.877.97 2.573C2.309 12.59.41 15.023.01 17.876-.074 18.47.402 19 1.003 19c.492 0 .907-.36.976-.846.41-2.89 2.885-5.192 5.873-5.213.014 0 .028.004.042.004.015 0 .028-.004.043-.004 2.988.02 5.463 2.263 5.872 5.153.07.486.485.785.977.785h.003c.6 0 1.076-.47.992-1.063a7.982 7.982 0 0 0-4.874-6.273z" fill="#000" fill-rule="evenodd"/></svg>