<svg width="20" height="20" xmlns="http://www.w3.org/2000/svg"><path d="M16 18c-1.103 0-2-.897-2-2s.897-2 2-2 2 .897 2 2-.897 2-2 2M6 16c0 1.103-.897 2-2 2s-2-.897-2-2 .897-2 2-2 2 .897 2 2m11-3.859V2a2 2 0 0 0-2-2h-3a1 1 0 0 0 0 2h2a1 1 0 0 1 1 1v3.992L5 9.469V8h1a1 1 0 0 0 0-2H2a1 1 0 0 0 0 2h1v4.141a3.995 3.995 0 0 0-2.89 4.808 3.973 3.973 0 0 0 2.936 2.941A4.006 4.006 0 0 0 8 16a3.991 3.991 0 0 0-3-3.859v-.612l10-2.477v3.089a3.995 3.995 0 0 0-2.89 4.808 3.973 3.973 0 0 0 2.936 2.941A4.006 4.006 0 0 0 20 16a3.991 3.991 0 0 0-3-3.859" fill="#000" fill-rule="evenodd"/></svg>