<svg width="20" height="20" xmlns="http://www.w3.org/2000/svg"><path d="M5.5 14.5a.992.992 0 1 1-1.405 1.405A.992.992 0 1 1 5.5 14.5M17.31 5.5l-2.678 2.679-.703-.702a.992.992 0 1 0-1.405 1.404l.703.703-1.405 1.405-.702-.703a.994.994 0 0 0-1.405 1.406l.702.702-1.405 1.405-.703-.702A.992.992 0 1 0 6.904 14.5l.703.703L5.5 17.31a.992.992 0 0 1-1.405 0L2.69 15.905a.992.992 0 0 1 0-1.405L14.501 2.69a.992.992 0 0 1 1.405 0l1.405 1.404a.992.992 0 0 1 0 1.405m2.107-2.108l-2.81-2.81a1.987 1.987 0 0 0-2.809 0L.582 13.799a1.987 1.987 0 0 0 0 2.81l2.81 2.81a1.987 1.987 0 0 0 2.81 0l2.81-2.81 1.405-1.405 1.405-1.405 1.405-1.405 1.405-1.405 1.405-1.405L19.418 6.2a1.987 1.987 0 0 0 0-2.81" fill="#000" fill-rule="evenodd"/></svg>