<svg width="20" height="20" xmlns="http://www.w3.org/2000/svg"><path d="M6.5 12H4a1 1 0 0 0 0 2h3a2 2 0 0 0 2-2v-1a2 2 0 0 0-2-2H5.5a.5.5 0 0 1 0-1H8a1 1 0 0 0 0-2H5.738c-1.085 0-2.118.609-2.534 1.611A2.41 2.41 0 0 0 5.395 11H6.5a.5.5 0 0 1 0 1zM15 8.5a.5.5 0 0 0-.5-.5H13v4h1.5c.275 0 .5-.225.5-.5v-3zm0 5.5h-3a1 1 0 0 1-1-1V7a1 1 0 0 1 1-1h3a2 2 0 0 1 2 2v4a2 2 0 0 1-2 2zM0 2v1a1 1 0 0 0 2 0 1 1 0 0 1 1-1h14a1 1 0 0 1 1 1 1 1 0 0 0 2 0V2a2 2 0 0 0-2-2H2a2 2 0 0 0-2 2zm18 15a1 1 0 0 1 2 0v1a2 2 0 0 1-2 2H2a2 2 0 0 1-2-2v-1a1 1 0 0 1 2 0 1 1 0 0 0 1 1h14a1 1 0 0 0 1-1z" fill="#000" fill-rule="evenodd"/></svg>