<svg width="20" height="20" xmlns="http://www.w3.org/2000/svg"><path d="M16 11.875c-1.103 0-2-.897-2-2s.897-2 2-2 2 .897 2 2-.897 2-2 2M4 18c-1.103 0-2-.897-2-2s.897-2 2-2c2.643 0 2.644 4 0 4M4 6c-1.103 0-2-.897-2-2s.897-2 2-2c2.643 0 2.644 4 0 4m12-.125c-1.221 0-2.3.559-3.034 1.421L7.959 4.405C8.212 1.919 6.269 0 4 0a4 4 0 0 0 0 8 3.989 3.989 0 0 0 3.257-1.691l4.822 2.784a3.939 3.939 0 0 0 .009 1.611l-4.947 2.847A3.975 3.975 0 0 0 4 12a4 4 0 0 0 0 8c2.362 0 4.324-2.072 3.939-4.601l5.056-2.909A3.974 3.974 0 0 0 16 13.875a4 4 0 0 0 0-8" fill="#000" fill-rule="evenodd"/></svg>