<svg width="20" height="20" xmlns="http://www.w3.org/2000/svg"><path d="M12 14a2 2 0 0 0-2-2V8.999c0-.552.447-.999 1-.999h1a2 2 0 0 0 2 2v-.001 3c0 .553-.449 1.001-1 1.001h-1zm4-6a2 2 0 0 0-2-2h-4a2 2 0 0 0-2 2v6a2 2 0 0 0 2 2h4a2 2 0 0 0 2-2V8zm1 10H3a1 1 0 0 1-1-1.001V7.044a.5.5 0 0 1 .146-.354L6.69 2.146A.499.499 0 0 1 7.043 2H17A1 1 0 0 1 18 2.999v14c0 .553-.449 1.001-1 1.001zM5.705.296L.296 5.707a1 1 0 0 0-.293.706L0 17.999A2 2 0 0 0 2 20h16a2.001 2.001 0 0 0 2-2.001V2a2 2 0 0 0-2-2L6.412.004c-.265 0-.519.105-.707.292z" fill="#000" fill-rule="evenodd"/></svg>