<svg width="20" height="20" xmlns="http://www.w3.org/2000/svg"><path d="M19.935 10.555l-.022-.073a1.71 1.71 0 0 0-1.65-1.153c-.19.002-.38.033-.562.094l-1.964.668-1.268-3.79 1.889-.648c.788-.266 1.447-1.097 1.182-2.029l-.022-.068c-.238-.713-.888-1.171-1.654-1.165a1.876 1.876 0 0 0-.517.076l-1.942.655-.646-1.928a1.737 1.737 0 0 0-.876-1.01 1.72 1.72 0 0 0-1.33-.091A1.75 1.75 0 0 0 9.437 2.23l.023.08.644 1.924 1.16 3.466 1.176 3.512-3.723 1.266-1.261-3.768 3.282-1.128-.634-3.348L6.377 5.49l-.642-1.918a1.737 1.737 0 0 0-2.206-1.1A1.749 1.749 0 0 0 2.412 4.61l.024.078.64 1.915 1.084 3.24L5.418 13.6l-1.876.637a1.758 1.758 0 0 0-1.096 2.23c.23.687.865 1.129 1.617 1.123a1.95 1.95 0 0 0 .6-.103l1.844-.633.653 1.952A1.74 1.74 0 0 0 8.825 20a1.75 1.75 0 0 0 1.635-2.31l-.66-1.97 3.72-1.278.665 1.988a1.74 1.74 0 0 0 2.205 1.1c.882-.298 1.373-1.239 1.108-2.173l-.014-.045-.67-2.003 2.063-.71s.639-.279.842-.596a1.81 1.81 0 0 0 .216-1.448zM3.75 9.983c-.478.164-.958.33-1.472.505a1.837 1.837 0 0 1-.575.099 1.654 1.654 0 0 1-1.636-1.22 1.746 1.746 0 0 1 1.12-2.129l1.855-.624.708 3.37z" fill="#000" fill-rule="evenodd"/></svg>