<svg width="16" height="20" xmlns="http://www.w3.org/2000/svg"><path d="M8 14.17a2.006 2.006 0 0 1-2.008-2c0-1.103.9-2 2.008-2 1.107 0 2.008.897 2.008 2s-.9 2-2.008 2m0-6a4.009 4.009 0 0 0-4.017 4A4.009 4.009 0 0 0 8 16.171a4.009 4.009 0 0 0 4.016-4.001A4.009 4.009 0 0 0 8 8.17M5.992 5.167c0-1.105.9-2 2.008-2 1.11 0 2.008.895 2.008 2 0 1.106-.899 2-2.008 2a2.004 2.004 0 0 1-2.008-2m1.98 12.837c-2.58 0-4.937-1.71-5.733-4.157-.793-2.438.12-5.109 2.105-6.621.55-.42.752-1.114.662-1.799-.225-1.696 1.093-3.427 2.967-3.427 1.872 0 3.19 1.73 2.967 3.427-.09.684.11 1.38.66 1.799 1.987 1.512 2.898 4.183 2.106 6.621-.795 2.447-3.152 4.157-5.733 4.157m5.342-11.966c-.24-.216-.36-.52-.347-.84C13.076 2.431 10.833 0 7.973 0 5.11 0 2.869 2.433 2.977 5.2c.012.32-.108.624-.348.838-4.244 3.78-3.261 11.086 2.311 13.378 2.95 1.213 6.437.493 8.69-1.758 3.496-3.488 2.898-8.753-.315-11.62" fill="#000" fill-rule="evenodd"/></svg>