<svg width="20" height="20" xmlns="http://www.w3.org/2000/svg"><path d="M16.612 14.499A9.962 9.962 0 0 0 10 12a9.962 9.962 0 0 0-6.612 2.499A7.96 7.96 0 0 1 2 10c0-1.666.513-3.215 1.388-4.498A9.96 9.96 0 0 0 10 8a9.96 9.96 0 0 0 6.612-2.498A7.959 7.959 0 0 1 18 10a7.96 7.96 0 0 1-1.388 4.499M10 18a7.965 7.965 0 0 1-5.285-2A7.965 7.965 0 0 1 10 14c2.024 0 3.875.756 5.285 2A7.965 7.965 0 0 1 10 18m0-16c2.024 0 3.875.756 5.285 2A7.965 7.965 0 0 1 10 6a7.965 7.965 0 0 1-5.285-2A7.965 7.965 0 0 1 10 2m0-2C4.484 0 0 4.472 0 10c0 5.519 4.474 10 10 10 5.522 0 10-4.478 10-10 0-5.51-4.465-10-10-10" fill="#000" fill-rule="evenodd"/></svg>