<svg width="20" height="16" xmlns="http://www.w3.org/2000/svg"><path d="M18.87 5.255a3.844 3.844 0 0 0-5.458 0L7.27 11.432a.974.974 0 0 0 0 1.372c.377.38.988.38 1.365 0l6.14-6.176a1.921 1.921 0 0 1 2.73 0 1.948 1.948 0 0 1 0 2.745l-6.022 6.058a1.923 1.923 0 0 0 2.729 0l4.658-4.686a3.899 3.899 0 0 0 0-5.49m-2.047 2.06a.961.961 0 0 0-1.366 0l-6.14 6.175a1.921 1.921 0 0 1-2.729 0 .961.961 0 0 0-1.364 0 .974.974 0 0 0 0 1.372 3.843 3.843 0 0 0 5.459 0l6.14-6.176a.974.974 0 0 0 0-1.372m-2.048-6.177a3.844 3.844 0 0 0-5.458 0l-6.14 6.177a.975.975 0 0 0 0 1.372c.376.38.988.38 1.364 0l6.142-6.176a1.92 1.92 0 0 1 2.727 0c.377.38.988.38 1.365 0a.975.975 0 0 0 0-1.373m-2.047 2.059a.96.96 0 0 0-1.363 0L5.224 9.373a1.923 1.923 0 0 1-2.73 0 1.95 1.95 0 0 1 0-2.746L8.518.57a1.922 1.922 0 0 0-2.73 0L1.13 5.255a3.9 3.9 0 0 0 0 5.49 3.843 3.843 0 0 0 5.46 0l6.14-6.176a.975.975 0 0 0 0-1.373" fill="#000" fill-rule="evenodd"/></svg>