<svg width="20" height="20" xmlns="http://www.w3.org/2000/svg"><path d="M2.929 4.343a.999.999 0 1 1 1.414-1.414.999.999 0 1 1-1.414 1.414m14.142 11.314a.999.999 0 1 1-1.414 1.414.999.999 0 1 1 1.414-1.414m-12.728 0a.999.999 0 1 1-1.414 1.414.999.999 0 1 1 1.414-1.414M17.071 2.929a.999.999 0 1 1-1.414 1.414.999.999 0 1 1 1.414-1.414M2 10a1 1 0 1 1-2 0 1 1 0 0 1 2 0m18 0a1 1 0 1 1-2 0 1 1 0 0 1 2 0m-9 9a1 1 0 1 1-2 0 1 1 0 0 1 2 0M9 1a1 1 0 1 1 2 0 1 1 0 0 1-2 0m1 14c-2.757 0-5-2.243-5-5s2.243-5 5-5 5 2.243 5 5-2.243 5-5 5m0-12a7 7 0 1 0 0 14 7 7 0 0 0 0-14" fill="#000" fill-rule="evenodd"/></svg>