<svg width="20" height="20" xmlns="http://www.w3.org/2000/svg"><path d="M2.929 4.343a.999.999 0 1 1 1.414-1.414.999.999 0 1 1-1.414 1.414m14.142 11.314a.999.999 0 1 1-1.414 1.414.999.999 0 1 1 1.414-1.414m-12.728 0a.999.999 0 1 1-1.414 1.414.999.999 0 1 1 1.414-1.414M17.071 2.929a.999.999 0 1 1-1.414 1.414.999.999 0 1 1 1.414-1.414M2 10a1 1 0 1 1-2 0 1 1 0 0 1 2 0m18 0a1 1 0 1 1-2 0 1 1 0 0 1 2 0m-9 9a1 1 0 1 1-2 0 1 1 0 0 1 2 0M9 1a1 1 0 1 1 2 0 1 1 0 0 1-2 0m4.536 12.535a5.01 5.01 0 0 1-7.751-.838c-1.084-1.658-1.044-3.88.08-5.511 1.156-1.679 3.043-2.364 4.824-2.118l-2.81 2.811a.999.999 0 1 0 1.414 1.414l3.464-3.464a4.985 4.985 0 0 1 1.414 1.414l-3.464 3.464a1 1 0 0 0 1.414 1.414l2.811-2.81c.207 1.499-.246 3.074-1.396 4.224M14.95 5.05a7 7 0 1 0-9.9 9.899 7 7 0 0 0 9.9-9.899" fill="#000" fill-rule="evenodd"/></svg>