<svg width="20" height="20" xmlns="http://www.w3.org/2000/svg"><path d="M14.233 7.229a1.035 1.035 0 0 1 0-1.444l2.12-2.167a.987.987 0 0 1 1.416 0c.39.4.39 1.046 0 1.445L15.647 7.23c-.39.399-1.023.399-1.414 0zM9 4.084V1.021A1.01 1.01 0 0 1 10 0c.552 0 1 .456 1 1.021v3.063c0 .564-.448 1.021-1 1.021-.553 0-1-.457-1-1.021zm-6.768.98a1.036 1.036 0 0 1 0-1.446.986.986 0 0 1 1.414 0l2.122 2.167c.39.398.39 1.045 0 1.444a.986.986 0 0 1-1.415 0L2.233 5.063zm12.754 11.408a20.233 20.233 0 0 0-9.973 0c-.003-.046-.013-.09-.013-.136 0-2.815 2.243-5.105 5-5.105s5 2.29 5 5.105c0 .046-.011.09-.014.136zm4.444 1.587c-.83-.387-1.657-.721-2.482-1.006.453-4.23-2.837-7.864-6.948-7.864-4.118 0-7.401 3.641-6.948 7.864-.825.285-1.652.619-2.482 1.006-.513.239-.716.88-.46 1.392a.992.992 0 0 0 1.318.453c5.795-2.694 11.349-2.694 17.144 0a.99.99 0 0 0 1.317-.453c.256-.512.053-1.153-.46-1.392z" fill="#000" fill-rule="evenodd"/></svg>