<svg width="20" height="18" xmlns="http://www.w3.org/2000/svg"><path d="M15.646 7.08l2.121-2.121a1 1 0 0 0-1.414-1.415l-2.121 2.122a.999.999 0 1 0 1.414 1.414zM10 5a1 1 0 0 0 1-1V1a1 1 0 1 0-2 0v3a1 1 0 0 0 1 1zM4.353 7.08a.999.999 0 1 0 1.414-1.414L3.646 3.544a1 1 0 1 0-1.414 1.415L4.353 7.08zM15 15.804c0-2.757-2.243-4.882-5-4.882s-5 2.164-5 4.921c0 .107.025.157.031.157h9.937a.466.466 0 0 0 .032-.196zM20 17a1 1 0 0 1-1 1H1a1 1 0 1 1 0-2h2.015A.897.897 0 0 1 3 15.804c0-3.786 3.005-6.757 6.761-6.879 2.564-.082 4.892 1.421 6.109 3.68C17.154 14.989 17.005 16 16.984 16H19a1 1 0 0 1 1 1zm-6-1.005c-1 .003 0-.005 0-.011v.011z" fill="#000" fill-rule="evenodd"/></svg>