<svg width="20" height="20" xmlns="http://www.w3.org/2000/svg"><path d="M11.29 17.176L2.268 8.141a.522.522 0 0 1-.154-.37V3.13c0-.577.467-1.043 1.042-1.043h4.635a.52.52 0 0 1 .368.152l9.02 9.035a1.045 1.045 0 0 1 0 1.476l-4.418 4.426a1.04 1.04 0 0 1-1.473 0zm4.65-10.094C15.767 6.907 9.002.132 9.176.305A1.044 1.044 0 0 0 8.438 0H2.115C.965 0 .032.934.032 2.087c0 6.32-.179 6.585.306 7.07L10.553 19.39a2.08 2.08 0 0 0 2.945 0l5.892-5.9a2.09 2.09 0 0 0 0-2.952l-3.45-3.455z" fill="#000" fill-rule="evenodd"/></svg>