<svg width="20" height="20" xmlns="http://www.w3.org/2000/svg"><path d="M3.978 5.02a1.044 1.044 0 1 1 2.087 0 1.044 1.044 0 0 1-2.087 0zm7.297 12.156L2.24 8.141a.521.521 0 0 1-.153-.37V3.13c0-.577.467-1.045 1.044-1.045h4.64c.14 0 .272.056.37.154l9.035 9.035a1.044 1.044 0 0 1 0 1.476l-4.426 4.426a1.044 1.044 0 0 1-1.475 0zm4.659-10.094C15.76 6.907 8.984.132 9.158.305A1.046 1.046 0 0 0 8.421 0H2.087A2.087 2.087 0 0 0 0 2.085V8.42c0 .277.11.542.306.738l10.231 10.23a2.086 2.086 0 0 0 2.95 0l5.902-5.9a2.086 2.086 0 0 0 0-2.951l-3.455-3.455z" fill="#000" fill-rule="evenodd"/></svg>