<svg width="20" height="20" xmlns="http://www.w3.org/2000/svg"><path d="M14 10a1 1 0 0 1 1-1h.91A6.008 6.008 0 0 0 11 4.09V5a1 1 0 0 1-2 0v-.91A6.008 6.008 0 0 0 4.09 9H5a1 1 0 0 1 0 2h-.91A6.008 6.008 0 0 0 9 15.91V15a1 1 0 0 1 2 0v.91A6.008 6.008 0 0 0 15.91 11H15a1 1 0 0 1-1-1m6 0a1 1 0 0 1-1 1h-1.069A7.994 7.994 0 0 1 11 17.931V19a1 1 0 0 1-2 0v-1.069A7.994 7.994 0 0 1 2.069 11H1a1 1 0 0 1 0-2h1.069A7.994 7.994 0 0 1 9 2.069V1a1 1 0 0 1 2 0v1.069A7.994 7.994 0 0 1 17.931 9H19a1 1 0 0 1 1 1m-7 0a1 1 0 0 1-1 1h-1v1a1 1 0 0 1-2 0v-1H8a1 1 0 0 1 0-2h1V8a1 1 0 0 1 2 0v1h1a1 1 0 0 1 1 1" fill="#000" fill-rule="evenodd"/></svg>