<svg width="20" height="20" xmlns="http://www.w3.org/2000/svg"><path d="M11 10a1 1 0 1 1-2 0 1 1 0 0 1 2 0m4 1h.91A6.008 6.008 0 0 1 11 15.91V15a1 1 0 0 0-2 0v.91A6.008 6.008 0 0 1 4.09 11H5a1 1 0 0 0 0-2h-.91A6.008 6.008 0 0 1 9 4.09V5a1 1 0 0 0 2 0v-.91A6.008 6.008 0 0 1 15.91 9H15a1 1 0 0 0 0 2m4-2h-1.069A7.994 7.994 0 0 0 11 2.069V1a1 1 0 0 0-2 0v1.069A7.994 7.994 0 0 0 2.069 9H1a1 1 0 0 0 0 2h1.069A7.994 7.994 0 0 0 9 17.931V19a1 1 0 0 0 2 0v-1.069A7.994 7.994 0 0 0 17.931 11H19a1 1 0 0 0 0-2" fill="#000" fill-rule="evenodd"/></svg>