<svg width="20" height="20" xmlns="http://www.w3.org/2000/svg"><path d="M14.504 13.447L6.556 5.499c1.722-3.733 6.78-4.645 9.687-1.74 2.906 2.907 1.994 7.966-1.74 9.688zm-2.286.543c-3.427.12-6.326-2.778-6.205-6.205l6.205 6.205zm-9.51 3.305a.999.999 0 0 1 0-1.414l2.98-2.98a8.087 8.087 0 0 0 1.414 1.414l-2.98 2.98a1 1 0 0 1-1.414 0zM12.76.035C6.738-.526 2.33 5.696 4.636 11.125l-4.05 4.05a2 2 0 0 0 0 2.828L2 19.416a2 2 0 0 0 2.828 0l4.049-4.05c5.158 2.19 11.259-1.673 11.12-7.566-.093-3.993-3.261-7.392-7.237-7.764z" fill="#000" fill-rule="evenodd"/></svg>