<svg width="20" height="20" xmlns="http://www.w3.org/2000/svg"><path d="M4 9a1 1 0 1 1-2 0 1 1 0 0 1 2 0zm4.594-1.406a1 1 0 1 1-2 0 1 1 0 0 1 2 0zM10 3a1 1 0 1 1-2 0 1 1 0 0 1 2 0zm5 15c-1.654 0-3-1.346-3-3 0-1.302.839-2.401 2-2.816V10h2v2.184c1.161.415 2 1.514 2 2.816 0 1.654-1.346 3-3 3zM14 8h2V6h-2v2zm0-4h2V2h-2v2zm4 7.023V0h-6v11.023c-1.208.912-2 2.347-2 3.977a5 5 0 0 0 10 0c0-1.63-.792-3.065-2-3.977zM3 4c-.551 0-1-.449-1-1 0-.551.449-1 1-1 .551 0 1 .449 1 1 0 .551-.449 1-1 1zm0-4a3 3 0 1 0 0 6 3 3 0 0 0 0-6z" fill="#000" fill-rule="evenodd"/></svg>