<svg width="20" height="20" xmlns="http://www.w3.org/2000/svg"><path d="M17 11.063c0 .518-.42.937-.937.937h-4.125a.937.937 0 0 1-.938-.937V3.938c0-.518.42-.938.938-.938h4.125c.517 0 .937.42.937.938v7.125zm-8 5c0 .518-.42.937-.938.937H3.937A.937.937 0 0 1 3 16.063V3.938C3 3.42 3.42 3 3.937 3h4.125C8.58 3 9 3.42 9 3.938v12.125zM18.047 0H1.953A1.953 1.953 0 0 0 0 1.954v16.093c0 1.079.874 1.954 1.953 1.954h16.094A1.953 1.953 0 0 0 20 18.047V1.954A1.953 1.953 0 0 0 18.047 0z" fill="#000" fill-rule="evenodd"/></svg>