<svg width="20" height="20" xmlns="http://www.w3.org/2000/svg"><path d="M11.386 13.898l-.707.707a.999.999 0 0 1-1.414 0l-.707-.707a2 2 0 0 1 2.828 0zm2.828-2.828L12.8 12.484a4.004 4.004 0 0 0-5.657 0L5.729 11.07a5.998 5.998 0 0 1 8.485 0zm1.99-3.579a1.01 1.01 0 0 1 .088 1.501l-.663.663a8 8 0 0 0-11.314 0l-.663-.663a1.01 1.01 0 0 1 .087-1.501 10.004 10.004 0 0 1 12.465 0zM18 17a1 1 0 0 1-1 1H3a1 1 0 0 1-1-1V3a1 1 0 0 1 1-1h14a1 1 0 0 1 1 1v14zm0-17H2a2 2 0 0 0-2 2v16a2 2 0 0 0 2 2h16a2 2 0 0 0 2-2V2a2 2 0 0 0-2-2z" fill="#000" fill-rule="evenodd"/></svg>