<?xml version="1.0" encoding="utf-8"?>
<!-- Generator: Adobe Illustrator 16.0.0, SVG Export Plug-In . SVG Version: 6.00 Build 0)  -->
<!DOCTYPE svg PUBLIC "-//W3C//DTD SVG 1.1//EN" "http://www.w3.org/Graphics/SVG/1.1/DTD/svg11.dtd">
<svg version="1.1" id="Layer_1" xmlns="http://www.w3.org/2000/svg" xmlns:xlink="http://www.w3.org/1999/xlink" x="0px" y="0px"
	 width="100px" height="100px" viewBox="0 0 100 100" enable-background="new 0 0 100 100" xml:space="preserve">
<g>
	<path d="M20.964,84H64c1.104,0,2-0.896,2-2s-0.896-2-2-2H23.024c0.908-15,11.871-27.118,15.146-30.332
		c2.294,1.122,4.862,1.74,7.584,1.74c2.696,0,5.239-0.65,7.517-1.753c1.571,1.471,5.984,5.886,9.654,12.305
		c0.369,0.646,1.045,1.004,1.738,1.004c0.337,0,0.678-0.087,0.991-0.267c0.959-0.548,1.292-1.771,0.743-2.729
		c-3.49-6.104-7.522-10.456-9.646-12.534c3.872-3.184,6.347-8.009,6.347-13.402c0-9.565-7.781-17.347-17.345-17.347
		c-9.565,0-17.347,7.782-17.347,17.347c0,5.371,2.455,10.178,6.299,13.363c-4.454,4.486-15.743,17.589-15.743,34.546
		C18.964,83.045,19.86,84,20.964,84z M32.408,34.032c0-7.359,5.987-13.347,13.347-13.347c7.359,0,13.345,5.987,13.345,13.347
		s-5.986,13.347-13.345,13.347C38.395,47.378,32.408,41.391,32.408,34.032z"/>
	<path d="M60,71c-1.104,0-2,0.896-2,2s0.896,2,2,2h8v8.881c0,1.104,0.896,2,2,2s2-0.896,2-2V75h9c1.104,0,2-0.896,2-2s-0.896-2-2-2
		h-9v-9.119c0-1.104-0.896-2-2-2s-2,0.896-2,2V71H60z"/>
</g>
</svg>
