<?xml version="1.0" encoding="utf-8"?>
<!-- Generator: Adobe Illustrator 16.0.0, SVG Export Plug-In . SVG Version: 6.00 Build 0)  -->
<!DOCTYPE svg PUBLIC "-//W3C//DTD SVG 1.1//EN" "http://www.w3.org/Graphics/SVG/1.1/DTD/svg11.dtd">
<svg version="1.1" id="Layer_1" xmlns="http://www.w3.org/2000/svg" xmlns:xlink="http://www.w3.org/1999/xlink" x="0px" y="0px"
	 width="100px" height="100px" viewBox="0 0 100 100" enable-background="new 0 0 100 100" xml:space="preserve">
<g>
	<path d="M80.071,57.494c-0.433-1.018-1.604-1.49-2.623-1.059l-10.635,4.52c-1.017,0.433-1.49,1.606-1.059,2.623
		c0.433,1.018,1.604,1.489,2.623,1.059l5.577-2.477C71.245,71.857,62.5,78.943,52.5,79.907V35.146c4-0.986,7.044-4.514,7.044-8.715
		c0-4.962-3.912-8.999-8.874-8.999c-4.962,0-9.188,4.037-9.188,8.999c0,4.349,3.018,7.985,7.018,8.819v44.705
		c-10-0.694-18.939-7.847-21.669-17.983l6.393,2.664c1.018,0.431,2.253-0.041,2.686-1.059c0.432-1.017-0.011-2.19-1.027-2.623
		l-10.619-4.52c-1.019-0.432-2.184,0.041-2.615,1.059l-4.516,10.634c-0.432,1.017,0.044,2.19,1.061,2.623
		c0.255,0.108,0.521,0.16,0.782,0.16c0.778-0.001,1.519-0.457,1.842-1.219l2.575-6.057c3.544,12.087,14.506,20.391,27.274,20.391
		c12.844,0,24.086-8.713,27.431-20.952l2.812,6.618c0.323,0.762,1.063,1.219,1.842,1.219c0.261,0,0.526-0.052,0.781-0.16
		c1.017-0.433,1.491-1.606,1.059-2.623L80.071,57.494z M45.795,26.432c0-2.757,2.243-4.999,5-4.999c2.756,0,4.999,2.242,4.999,4.999
		s-2.243,5-4.999,5C48.038,31.432,45.795,29.188,45.795,26.432z"/>
</g>
</svg>
