<?xml version="1.0" encoding="utf-8"?>
<!-- Generator: Adobe Illustrator 16.0.0, SVG Export Plug-In . SVG Version: 6.00 Build 0)  -->
<!DOCTYPE svg PUBLIC "-//W3C//DTD SVG 1.1//EN" "http://www.w3.org/Graphics/SVG/1.1/DTD/svg11.dtd">
<svg version="1.1" id="Layer_1" xmlns="http://www.w3.org/2000/svg" xmlns:xlink="http://www.w3.org/1999/xlink" x="0px" y="0px"
	 width="100px" height="100px" viewBox="0 0 100 100" enable-background="new 0 0 100 100" xml:space="preserve">
<g>
	<path d="M14,31.5h4.5v44.49c0,4.277,4.457,7.51,9.141,7.51h47.082c4.353,0,6.777-2.79,6.777-7.51V31.5H87
		c1.104,0,1.5-0.515,1.5-1.619v-6.654c0-1.898,0.5-6.727-4.224-6.727H17.78c-3.457,0-6.28,2.931-6.28,6.727v6.654
		C11.5,30.985,12.896,31.5,14,31.5z M77.5,75.99c0,1.17,0.181,3.51-2.777,3.51H27.641c-2.195,0-5.141-1.217-5.141-3.51V31.5h55
		V75.99z M15.5,23.227c0-2.346,1.84-2.727,2.28-2.727h66.496c0.295,0,0.194,0.235,0.209,0.235c0.099,0.121,0.015,0.772,0.015,2.491
		V27.5H80H21h-5.5V23.227z"/>
	<path d="M65.5,52.5c0-2.209-1.791-4-4-4h-22c-2.209,0-4,1.791-4,4v6c0,2.209,1.791,4,4,4h22c2.209,0,4-1.791,4-4V52.5z M39.5,52.5
		H62l0.003,6H39.5V52.5z"/>
</g>
</svg>
