<?xml version="1.0" encoding="utf-8"?>
<!-- Generator: Adobe Illustrator 16.0.0, SVG Export Plug-In . SVG Version: 6.00 Build 0)  -->
<!DOCTYPE svg PUBLIC "-//W3C//DTD SVG 1.1//EN" "http://www.w3.org/Graphics/SVG/1.1/DTD/svg11.dtd">
<svg version="1.1" id="Layer_1" xmlns="http://www.w3.org/2000/svg" xmlns:xlink="http://www.w3.org/1999/xlink" x="0px" y="0px"
	 width="100px" height="100px" viewBox="0 0 100 100" enable-background="new 0 0 100 100" xml:space="preserve">
<g>
	<path d="M41.258,71.667c0.391,0.391,0.902,0.586,1.414,0.586s1.023-0.195,1.414-0.586c0.781-0.781,0.781-1.988,0-2.769L29.125,54
		H78c1.104,0,2-0.896,2-2s-0.896-2-2-2H28.28l15.804-15.864c0.781-0.781,0.781-2.077,0-2.858c-0.781-0.781-2.047-0.796-2.828-0.015
		L22.46,50.052c-0.375,0.375-0.586,0.88-0.586,1.411s0.211,1.037,0.586,1.412L41.258,71.667z"/>
</g>
</svg>
