<?xml version="1.0" encoding="utf-8"?>
<!-- Generator: Adobe Illustrator 16.0.0, SVG Export Plug-In . SVG Version: 6.00 Build 0)  -->
<!DOCTYPE svg PUBLIC "-//W3C//DTD SVG 1.1//EN" "http://www.w3.org/Graphics/SVG/1.1/DTD/svg11.dtd">
<svg version="1.1" id="Layer_1" xmlns="http://www.w3.org/2000/svg" xmlns:xlink="http://www.w3.org/1999/xlink" x="0px" y="0px"
	 width="100px" height="100px" viewBox="0 0 100 100" enable-background="new 0 0 100 100" xml:space="preserve">
<g>
	<path d="M57.289,71.667c0.391,0.391,0.902,0.586,1.414,0.586s1.023-0.195,1.414-0.586l18.798-18.794
		c0.375-0.375,0.586-0.884,0.586-1.414s-0.211-1.039-0.586-1.414L60.119,31.249c-0.781-0.781-2.047-0.781-2.828,0
		c-0.781,0.781-0.781,2.107,0,2.888L72.095,49H23c-1.104,0-2,0.896-2,2s0.896,2,2,2h50.251L57.289,68.898
		C56.508,69.679,56.508,70.886,57.289,71.667z"/>
</g>
</svg>
