<?xml version="1.0" encoding="utf-8"?>
<!-- Generator: Adobe Illustrator 16.0.0, SVG Export Plug-In . SVG Version: 6.00 Build 0)  -->
<!DOCTYPE svg PUBLIC "-//W3C//DTD SVG 1.1//EN" "http://www.w3.org/Graphics/SVG/1.1/DTD/svg11.dtd">
<svg version="1.1" id="Layer_1" xmlns="http://www.w3.org/2000/svg" xmlns:xlink="http://www.w3.org/1999/xlink" x="0px" y="0px"
	 width="100px" height="100px" viewBox="0 0 100 100" enable-background="new 0 0 100 100" xml:space="preserve">
<g>
	<path d="M50.668,83.539c17.92,0,32.5-14.579,32.5-32.5s-14.58-32.5-32.5-32.5c-17.92,0-32.5,14.579-32.5,32.5
		S32.748,83.539,50.668,83.539z M50.668,22.539c15.715,0,28.5,12.785,28.5,28.5s-12.785,28.5-28.5,28.5s-28.5-12.785-28.5-28.5
		S34.953,22.539,50.668,22.539z"/>
	<circle cx="51.186" cy="62.194" r="3.345"/>
	<path d="M50.5,53.881c1.104,0,2-0.896,2-2v-17c0-1.104-0.896-2-2-2s-2,0.896-2,2v17C48.5,52.985,49.396,53.881,50.5,53.881z"/>
</g>
</svg>
