<?xml version="1.0" encoding="utf-8"?>
<!-- Generator: Adobe Illustrator 16.0.0, SVG Export Plug-In . SVG Version: 6.00 Build 0)  -->
<!DOCTYPE svg PUBLIC "-//W3C//DTD SVG 1.1//EN" "http://www.w3.org/Graphics/SVG/1.1/DTD/svg11.dtd">
<svg version="1.1" id="Layer_1" xmlns="http://www.w3.org/2000/svg" xmlns:xlink="http://www.w3.org/1999/xlink" x="0px" y="0px"
	 width="100px" height="100px" viewBox="0 0 100 100" enable-background="new 0 0 100 100" xml:space="preserve">
<g>
	<path d="M31,50.5c0-1.104-0.896-2-2-2h-9c-1.104,0-2,0.896-2,2s0.896,2,2,2h9C30.104,52.5,31,51.604,31,50.5z"/>
	<path d="M81,48.5h-8c-1.104,0-2,0.896-2,2s0.896,2,2,2h8c1.104,0,2-0.896,2-2S82.104,48.5,81,48.5z"/>
	<path d="M52.5,81.881v-9c0-1.104-0.896-2-2-2s-2,0.896-2,2v9c0,1.104,0.896,2,2,2S52.5,82.985,52.5,81.881z"/>
	<path d="M48.5,19.881v9c0,1.104,0.896,2,2,2s2-0.896,2-2v-9c0-1.104-0.896-2-2-2S48.5,18.776,48.5,19.881z"/>
	<path d="M37.092,67.799c0.781-0.781,0.781-2.047,0-2.828s-2.047-0.781-2.828,0l-5.844,5.844c-0.781,0.781-0.781,2.047,0,2.828
		c0.391,0.391,0.902,0.586,1.414,0.586s1.023-0.195,1.414-0.586L37.092,67.799z"/>
	<path d="M74.752,30.139c0.781-0.781,0.781-2.047,0-2.828s-2.047-0.781-2.828,0l-5.844,5.844c-0.781,0.781-0.781,2.047,0,2.828
		c0.391,0.391,0.902,0.586,1.414,0.586s1.023-0.195,1.414-0.586L74.752,30.139z"/>
	<path d="M68.26,64.971c-0.781-0.781-2.047-0.781-2.828,0c-0.781,0.78-0.781,2.047,0,2.828l5.842,5.844
		c0.391,0.391,0.902,0.586,1.414,0.586s1.023-0.195,1.414-0.586c0.781-0.78,0.781-2.047,0-2.828L68.26,64.971z"/>
	<path d="M36.443,33.154L30.6,27.311c-0.781-0.781-2.047-0.781-2.828,0s-0.781,2.047,0,2.828l5.844,5.844
		c0.391,0.391,0.902,0.586,1.414,0.586s1.023-0.195,1.414-0.586C37.225,35.201,37.225,33.936,36.443,33.154z"/>
	<path d="M51.299,33.184c-9.478,0-17.188,7.711-17.188,17.189s7.711,17.189,17.188,17.189c9.479,0,17.189-7.711,17.189-17.189
		S60.777,33.184,51.299,33.184z M51.299,63.562c-7.272,0-13.188-5.917-13.188-13.189s5.916-13.189,13.188-13.189
		s13.189,5.917,13.189,13.189S58.571,63.562,51.299,63.562z"/>
</g>
</svg>
