<?xml version="1.0" encoding="utf-8"?>
<!-- Generator: Adobe Illustrator 16.0.0, SVG Export Plug-In . SVG Version: 6.00 Build 0)  -->
<!DOCTYPE svg PUBLIC "-//W3C//DTD SVG 1.1//EN" "http://www.w3.org/Graphics/SVG/1.1/DTD/svg11.dtd">
<svg version="1.1" id="Layer_1" xmlns="http://www.w3.org/2000/svg" xmlns:xlink="http://www.w3.org/1999/xlink" x="0px" y="0px"
	 width="100px" height="100px" viewBox="0 0 100 100" enable-background="new 0 0 100 100" xml:space="preserve">
<g>
	<path d="M36.689,50.442c0,7.583,6.169,13.752,13.751,13.752c7.583,0,13.752-6.169,13.752-13.752S58.023,36.69,50.44,36.69
		C42.858,36.69,36.689,42.859,36.689,50.442z M50.44,40.69c5.377,0,9.752,4.375,9.752,9.752s-4.375,9.752-9.752,9.752
		s-9.751-4.375-9.751-9.752S45.063,40.69,50.44,40.69z"/>
	<circle cx="50.378" cy="31.392" r="2.709"/>
	<circle cx="50.377" cy="69.391" r="2.708"/>
	<circle cx="31.378" cy="50.391" r="2.709"/>
	<circle cx="69.378" cy="50.392" r="2.709"/>
	<circle cx="36.942" cy="36.957" r="2.709"/>
	<circle cx="63.812" cy="63.826" r="2.708"/>
	<circle cx="36.943" cy="63.826" r="2.709"/>
	<circle cx="63.813" cy="36.956" r="2.709"/>
</g>
</svg>
