<?xml version="1.0" encoding="utf-8"?>
<!-- Generator: Adobe Illustrator 16.0.0, SVG Export Plug-In . SVG Version: 6.00 Build 0)  -->
<!DOCTYPE svg PUBLIC "-//W3C//DTD SVG 1.1//EN" "http://www.w3.org/Graphics/SVG/1.1/DTD/svg11.dtd">
<svg version="1.1" id="Layer_1" xmlns="http://www.w3.org/2000/svg" xmlns:xlink="http://www.w3.org/1999/xlink" x="0px" y="0px"
	 width="100px" height="100px" viewBox="0 0 100 100" enable-background="new 0 0 100 100" xml:space="preserve">
<g>
	<path d="M95.5,24.78c0-4.573-3.707-8.28-8.279-8.28H13.779c-4.573,0-8.279,3.707-8.279,8.28V76.22c0,4.573,3.707,8.28,8.279,8.28
		h73.441c4.572,0,8.279-3.707,8.279-8.28V24.78z M14.279,20.5h73.441c2.359,0,3.779,2.301,3.779,4.661V32.5h-82v-7.339
		C9.5,22.801,11.919,20.5,14.279,20.5z M87.721,80.5H14.279c-2.36,0-4.779-1.539-4.779-3.899V36.5h82v40.101
		C91.5,78.961,90.08,80.5,87.721,80.5z"/>
	<circle cx="15.948" cy="27.214" r="3.47"/>
	<circle cx="25.317" cy="27.214" r="3.47"/>
	<circle cx="34.687" cy="27.214" r="3.47"/>
</g>
</svg>
