<?xml version="1.0" encoding="utf-8"?>
<!-- Generator: Adobe Illustrator 16.0.0, SVG Export Plug-In . SVG Version: 6.00 Build 0)  -->
<!DOCTYPE svg PUBLIC "-//W3C//DTD SVG 1.1//EN" "http://www.w3.org/Graphics/SVG/1.1/DTD/svg11.dtd">
<svg version="1.1" id="Layer_1" xmlns="http://www.w3.org/2000/svg" xmlns:xlink="http://www.w3.org/1999/xlink" x="0px" y="0px"
	 width="100px" height="100px" viewBox="0 0 100 100" enable-background="new 0 0 100 100" xml:space="preserve">
<g>
	<path d="M51.016,36.562c-10.369,0-18.805,8.437-18.805,18.806s8.436,18.806,18.805,18.806c10.37,0,18.807-8.437,18.807-18.806
		S61.386,36.562,51.016,36.562z M51.016,70.173c-8.164,0-14.805-6.642-14.805-14.806s6.641-14.806,14.805-14.806
		c8.164,0,14.807,6.642,14.807,14.806S59.18,70.173,51.016,70.173z"/>
	<path d="M51.152,43.314c-6.721,0-12.189,5.468-12.189,12.188c0,1.104,0.896,2,2,2s2-0.896,2-2c0-4.515,3.674-8.188,8.189-8.188
		c1.104,0,2-0.896,2-2S52.257,43.314,51.152,43.314z"/>
	<path d="M84,26h-2v-2.542C82,20.227,79.483,18,76.016,18h-9C63.586,18,61,20.278,61,23.458V26H18c-5.514,0-10,4.367-10,9.881v38
		C8,79.395,12.486,84,18,84h66c5.514,0,10-4.605,10-10.119v-38C94,30.367,89.514,26,84,26z M65,23.458
		C65,21.925,66.809,22,67.016,22h9C76.348,22,78,21.957,78,23.458V26H65V23.458z M90,74c0,3.313-2.687,6-6,6H18
		c-3.313,0-6-2.687-6-6V36c0-3.313,2.687-6,6-6h66c3.313,0,6,2.687,6,6V74z"/>
</g>
</svg>
