<?xml version="1.0" encoding="utf-8"?>
<!-- Generator: Adobe Illustrator 16.0.0, SVG Export Plug-In . SVG Version: 6.00 Build 0)  -->
<!DOCTYPE svg PUBLIC "-//W3C//DTD SVG 1.1//EN" "http://www.w3.org/Graphics/SVG/1.1/DTD/svg11.dtd">
<svg version="1.1" id="Layer_1" xmlns="http://www.w3.org/2000/svg" xmlns:xlink="http://www.w3.org/1999/xlink" x="0px" y="0px"
	 width="100px" height="100px" viewBox="0 0 100 100" enable-background="new 0 0 100 100" xml:space="preserve">
<g>
	<path d="M96,65.5H48.155l41.146-10.905c2.037-0.653,7.199-2.2,7.199-7.714v-15c0-4.411-3.144-8.381-7.622-8.381H24.439
		l-1.304-5.464c-0.215-0.9-1.02-1.536-1.945-1.536H5c-1.104,0-2,0.896-2,2s0.896,2,2,2h14.611l11.321,47.464
		c0.215,0.9,1.02,1.536,1.945,1.536h0.085c0.002,0,0.004,0,0.006,0s0.005,0,0.008,0h6.167c-1.483,2-2.399,3.916-2.399,6.261
		c0,4.924,4.006,9.024,8.93,9.024s8.93-4.148,8.93-9.072c0-2.345-0.916-4.213-2.399-6.213h23.939c-1.483,2-2.399,3.916-2.399,6.261
		c0,4.924,4.006,9.024,8.93,9.024s8.93-4.148,8.93-9.072c0-2.345-0.916-4.213-2.399-6.213H96c1.104,0,2-0.896,2-2
		S97.104,65.5,96,65.5z M45.674,80.881c-2.718,0-4.93-2.212-4.93-4.93s2.212-4.93,4.93-4.93s4.93,2.212,4.93,4.93
		S48.392,80.881,45.674,80.881z M82.674,80.881c-2.718,0-4.93-2.212-4.93-4.93s2.212-4.93,4.93-4.93s4.93,2.212,4.93,4.93
		S85.392,80.881,82.674,80.881z M25.394,27.5h63.484c2.234,0,3.622,2.213,3.622,4.381v15c0,1.559-0.545,2.852-4.328,4.068
		L34.227,65.25L25.394,27.5z"/>
</g>
</svg>
