<?xml version="1.0" encoding="utf-8"?>
<!-- Generator: Adobe Illustrator 16.0.0, SVG Export Plug-In . SVG Version: 6.00 Build 0)  -->
<!DOCTYPE svg PUBLIC "-//W3C//DTD SVG 1.1//EN" "http://www.w3.org/Graphics/SVG/1.1/DTD/svg11.dtd">
<svg version="1.1" id="Layer_1" xmlns="http://www.w3.org/2000/svg" xmlns:xlink="http://www.w3.org/1999/xlink" x="0px" y="0px"
	 width="100px" height="100px" viewBox="0 0 100 100" enable-background="new 0 0 100 100" xml:space="preserve">
<g>
	<path d="M72,23.199C72,19.775,69.224,17,65.8,17H35.2c-3.424,0-6.2,2.775-6.2,6.199v55.602C29,82.225,31.776,85,35.2,85h30.6
		c3.424,0,6.2-2.775,6.2-6.199V23.199z M68,78.801C68,80.016,67.015,81,65.8,81H35.2c-1.215,0-2.2-0.984-2.2-2.199V23.199
		C33,21.985,33.985,21,35.2,21h30.6c1.215,0,2.2,0.985,2.2,2.199V78.801z"/>
	<path d="M65,26c0-1.104-0.896-2-2-2H38c-1.104,0-2,0.896-2,2v42c0,1.104,0.896,2,2,2h25c1.104,0,2-0.896,2-2V26z M40,28h21v38H40
		V28z"/>
	<circle cx="50.341" cy="75.003" r="3.455"/>
</g>
</svg>
