<?xml version="1.0" encoding="utf-8"?>
<!-- Generator: Adobe Illustrator 16.0.0, SVG Export Plug-In . SVG Version: 6.00 Build 0)  -->
<!DOCTYPE svg PUBLIC "-//W3C//DTD SVG 1.1//EN" "http://www.w3.org/Graphics/SVG/1.1/DTD/svg11.dtd">
<svg version="1.1" id="Layer_1" xmlns="http://www.w3.org/2000/svg" xmlns:xlink="http://www.w3.org/1999/xlink" x="0px" y="0px"
	 width="100px" height="100px" viewBox="0 0 100 100" enable-background="new 0 0 100 100" xml:space="preserve">
<g>
	<path d="M88.427,38.5h-4.518c-0.603-4-4.464-8-9.134-8H17.225c-5.086,0-9.725,4.519-9.725,9.605v20.551
		c0,5.087,4.638,8.844,9.725,8.844h57.551c5.011,0,9.092-4,9.213-9h4.438c2.692,0,4.073-1.227,4.073-3.529V43.727
		C92.5,41.485,91.002,38.5,88.427,38.5z M79.5,60.275c0,2.886-2.339,5.225-5.225,5.225H16.725c-2.885,0-5.225-2.339-5.225-5.225
		V39.725c0-2.885,2.339-5.225,5.225-5.225h57.551c2.886,0,5.225,2.339,5.225,5.225V60.275z M88.5,56.802
		c0,0.038,0.195-0.302-0.073-0.302H83.5V42.881l4.393-0.003c0.22,0.055,0.607,0.555,0.607,0.849V56.802z"/>
	<path d="M29.5,41.908c0-2.435-1.974-4.408-4.408-4.408h-5.184c-2.435,0-4.408,1.974-4.408,4.408v15.184
		c0,2.435,1.974,4.408,4.408,4.408h5.184c2.435,0,4.408-1.974,4.408-4.408V41.908z M25.5,57.092c0,0.226-0.183,0.408-0.408,0.408
		h-5.184c-0.226,0-0.408-0.183-0.408-0.408V41.908c0-0.226,0.183-0.408,0.408-0.408h5.184c0.226,0,0.408,0.183,0.408,0.408V57.092z"
		/>
	<path d="M46.5,41.908c0-2.435-1.974-4.408-4.408-4.408h-5.184c-2.435,0-4.408,1.974-4.408,4.408v15.184
		c0,2.435,1.974,4.408,4.408,4.408h5.184c2.435,0,4.408-1.974,4.408-4.408V41.908z M42.5,57.092c0,0.226-0.183,0.408-0.408,0.408
		h-5.184c-0.226,0-0.408-0.183-0.408-0.408V41.908c0-0.226,0.183-0.408,0.408-0.408h5.184c0.226,0,0.408,0.183,0.408,0.408V57.092z"
		/>
	<path d="M63.5,41.908c0-2.435-1.974-4.408-4.408-4.408h-5.184c-2.435,0-4.408,1.974-4.408,4.408v15.184
		c0,2.435,1.974,4.408,4.408,4.408h5.184c2.435,0,4.408-1.974,4.408-4.408V41.908z M59.5,57.092c0,0.226-0.183,0.408-0.408,0.408
		h-5.184c-0.226,0-0.408-0.183-0.408-0.408V41.908c0-0.226,0.183-0.408,0.408-0.408h5.184c0.226,0,0.408,0.183,0.408,0.408V57.092z"
		/>
</g>
</svg>
