<?xml version="1.0" encoding="utf-8"?>
<!-- Generator: Adobe Illustrator 16.0.0, SVG Export Plug-In . SVG Version: 6.00 Build 0)  -->
<!DOCTYPE svg PUBLIC "-//W3C//DTD SVG 1.1//EN" "http://www.w3.org/Graphics/SVG/1.1/DTD/svg11.dtd">
<svg version="1.1" id="Layer_1" xmlns="http://www.w3.org/2000/svg" xmlns:xlink="http://www.w3.org/1999/xlink" x="0px" y="0px"
	 width="100px" height="100px" viewBox="0 0 100 100" enable-background="new 0 0 100 100" xml:space="preserve">
<g>
	<path d="M33,57h20c1.104,0,2-1.015,2-2.119v-24c0-1.104-0.896-2-2-2s-2,0.896-2,2V53H33c-1.104,0-2,0.896-2,2S31.896,57,33,57z"/>
	<path d="M50.523,84.881c18.472,0,33.5-15.027,33.5-33.5c0-18.472-15.028-33.5-33.5-33.5s-33.5,15.028-33.5,33.5
		C17.023,69.854,32.052,84.881,50.523,84.881z M50.523,21.881c16.267,0,29.5,13.234,29.5,29.5c0,16.266-13.233,29.5-29.5,29.5
		s-29.5-13.234-29.5-29.5C21.023,35.115,34.257,21.881,50.523,21.881z"/>
</g>
</svg>
