<?xml version="1.0" encoding="utf-8"?>
<!-- Generator: Adobe Illustrator 16.0.0, SVG Export Plug-In . SVG Version: 6.00 Build 0)  -->
<!DOCTYPE svg PUBLIC "-//W3C//DTD SVG 1.1//EN" "http://www.w3.org/Graphics/SVG/1.1/DTD/svg11.dtd">
<svg version="1.1" id="Layer_1" xmlns="http://www.w3.org/2000/svg" xmlns:xlink="http://www.w3.org/1999/xlink" x="0px" y="0px"
	 width="100px" height="100px" viewBox="0 0 100 100" enable-background="new 0 0 100 100" xml:space="preserve">
<g>
	<path d="M77.258,37.494c-1.375,0-2.764,0.164-4.276,0.511c-4.115-9.401-13.534-15.606-23.957-15.606
		c-13.11,0-24.034,9.643-25.863,22.363c-1.114-0.215-2.249-0.323-3.395-0.323c-9.824,0-17.816,7.759-17.816,17.529
		C1.95,71.74,9.942,79.5,19.767,79.5h57.491c11.726,0,21.266-9.308,21.266-20.981C98.523,46.82,88.983,37.494,77.258,37.494z
		 M77.258,75.5H19.767c-7.618,0-13.816-5.966-13.816-13.532c0-7.565,6.198-13.625,13.816-13.625c1.401,0,2.782,0.255,4.093,0.663
		l0.458,0.169c0.591,0.186,1.234,0.102,1.745-0.25c0.51-0.354,0.826-0.918,0.857-1.537c0.595-11.772,10.304-20.992,22.104-20.992
		c9.319,0,17.689,5.851,20.828,14.557c0.063,0.175,0.15,0.34,0.26,0.491l0.078,0.109c0.497,0.691,1.378,0.992,2.195,0.748
		c1.863-0.558,3.365-0.806,4.872-0.806c9.521,0,17.266,7.532,17.266,17.024C94.523,67.987,86.778,75.5,77.258,75.5z"/>
</g>
</svg>
