<?xml version="1.0" encoding="utf-8"?>
<!-- Generator: Adobe Illustrator 16.0.0, SVG Export Plug-In . SVG Version: 6.00 Build 0)  -->
<!DOCTYPE svg PUBLIC "-//W3C//DTD SVG 1.1//EN" "http://www.w3.org/Graphics/SVG/1.1/DTD/svg11.dtd">
<svg version="1.1" id="Layer_1" xmlns="http://www.w3.org/2000/svg" xmlns:xlink="http://www.w3.org/1999/xlink" x="0px" y="0px"
	 width="100px" height="100px" viewBox="0 0 100 100" enable-background="new 0 0 100 100" xml:space="preserve">
<g>
	<path d="M82.5,72.286V43.881c0-1.104-0.396-2.381-1.5-2.381H36c-1.104,0-2.5,1.276-2.5,2.381V48.5h-1.218
		c-7.615,0-13.81,6.28-13.81,14s6.195,14,13.81,14h2.23c2.18,10,11.113,17,21.775,17h5.791C74.006,93.5,82.5,84.597,82.5,72.286z
		 M32.282,72.5c-5.409,0-9.81-4.486-9.81-10s4.4-10,9.81-10H33.5v19.786c0,0.199,0.51,0.214,0.516,0.214H32.282z M37.5,72.286V45.5
		h41v26.786c0,10.03-6.774,17.214-16.421,17.214h-5.791C46.204,89.5,37.5,81.988,37.5,72.286z"/>
	<path d="M50.381,35.029c-0.884,0.65-1.08,1.893-0.435,2.784c0.391,0.54,1.002,0.827,1.622,0.827c0.406,0,0.816-0.123,1.17-0.38
		c0.307-0.221,2.995-2.26,3.268-5.685c0.19-2.379-0.828-4.699-3.025-6.896c-3.864-3.864-0.684-7.439-0.016-8.108
		c0.789-0.772,0.804-2.039,0.031-2.829c-0.771-0.789-2.037-0.804-2.828-0.032c-0.124,0.122-3.041,3.019-3.064,7.034
		c-0.014,2.452,1.012,4.728,3.048,6.764c1.321,1.321,1.95,2.575,1.869,3.725C51.906,33.847,50.433,34.99,50.381,35.029z"/>
	<path d="M64.457,35.027c-0.887,0.649-1.083,1.894-0.438,2.785c0.391,0.541,1.002,0.828,1.621,0.828c0.406,0,0.816-0.123,1.172-0.38
		c0.146-0.105,3.591-2.644,3.924-6.818c0.227-2.853-1.012-5.653-3.683-8.324c-1.685-1.685-2.538-3.474-2.536-5.315
		c0.003-3.188,2.502-5.713,2.52-5.731c0.791-0.772,0.805-2.039,0.033-2.829c-0.771-0.789-2.039-0.804-2.828-0.032
		c-0.151,0.148-3.697,3.67-3.725,8.541c-0.018,2.961,1.23,5.719,3.708,8.195c1.794,1.794,2.644,3.527,2.525,5.15
		C66.583,33.402,64.512,34.987,64.457,35.027z"/>
</g>
</svg>
