<?xml version="1.0" encoding="utf-8"?>
<!-- Generator: Adobe Illustrator 16.0.0, SVG Export Plug-In . SVG Version: 6.00 Build 0)  -->
<!DOCTYPE svg PUBLIC "-//W3C//DTD SVG 1.1//EN" "http://www.w3.org/Graphics/SVG/1.1/DTD/svg11.dtd">
<svg version="1.1" id="Layer_1" xmlns="http://www.w3.org/2000/svg" xmlns:xlink="http://www.w3.org/1999/xlink" x="0px" y="0px"
	 width="100px" height="100px" viewBox="0 0 100 100" enable-background="new 0 0 100 100" xml:space="preserve">
<g>
	<path d="M53.158,54.5c9.838,0,17.342-7.992,17.342-18.283V18.881c0-1.104-0.396-2.381-1.5-2.381H32c-1.104,0-2.5,1.276-2.5,2.381
		v17.336c0,9.96,9,18.379,18,18.64V80.5H36c-1.104,0-2,0.896-2,2s0.896,2,2,2h29c1.104,0,2-0.896,2-2s-0.896-2-2-2H51.5v-26H53.158z
		 M33.5,36.217V20.5h33v15.717c0,7.949-5.838,14.283-13.342,14.283h-4.696C40.758,50.5,33.5,44.028,33.5,36.217z"/>
</g>
</svg>
