<?xml version="1.0" encoding="utf-8"?>
<!-- Generator: Adobe Illustrator 16.0.0, SVG Export Plug-In . SVG Version: 6.00 Build 0)  -->
<!DOCTYPE svg PUBLIC "-//W3C//DTD SVG 1.1//EN" "http://www.w3.org/Graphics/SVG/1.1/DTD/svg11.dtd">
<svg version="1.1" id="Layer_1" xmlns="http://www.w3.org/2000/svg" xmlns:xlink="http://www.w3.org/1999/xlink" x="0px" y="0px"
	 width="100px" height="100px" viewBox="0 0 100 100" enable-background="new 0 0 100 100" xml:space="preserve">
<g>
	<path d="M65.5,31.5h-29c-3.341,0-7,3.538-7,6.877v1c0,3.445,3.805,5.123,7,5.123l0,0v35.209c0,7.536,6.056,13.668,13.5,13.668
		s13.5-6.132,13.5-13.668V44.5h2c3.29,0,5-1.831,5-5.123v-1C70.5,35.184,68.942,31.5,65.5,31.5z M50,89.377
		c-5.327,0-9.5-4.247-9.5-9.668V61.99c2-0.452,5.888-1.147,8.836,1.801c1.413,1.413,3.282,2.156,5.18,2.156
		c0.067,0-0.053-0.001,0.015-0.003c1.883-0.052,3.97-0.812,4.97-1.725v15.489C59.5,85.13,55.327,89.377,50,89.377z M66.5,39.377
		c0,1.11,0.107,1.123-1,1.123H62c-1.104,0-2.5,1.276-2.5,2.381v16.355c-1,1.151-3.164,2.658-5.018,2.71
		c-0.883,0.039-1.748-0.287-2.443-0.983c-3.835-3.836-8.539-3.635-11.539-3.078V42.881c0-1.104-0.396-2.381-1.5-2.381h-2.5
		c-1.207,0-3-0.224-3-1.123v-1c0-1.097,1.902-2.877,3-2.877h29c0.897,0,1,1.672,1,2.877V39.377z"/>
	<path d="M42.334,22.932c0,4.073,3.313,7.387,7.387,7.387s7.387-3.313,7.387-7.387c0-4.074-3.313-7.389-7.387-7.389
		S42.334,18.857,42.334,22.932z M49.721,18.543c2.419,0,4.387,1.969,4.387,4.389c0,2.419-1.968,4.387-4.387,4.387
		s-4.387-1.968-4.387-4.387C45.334,20.512,47.302,18.543,49.721,18.543z"/>
	<path d="M57.459,14.627c0,3.01,2.449,5.459,5.459,5.459s5.458-2.449,5.458-5.459s-2.448-5.459-5.458-5.459
		S57.459,11.617,57.459,14.627z M62.918,12.168c1.355,0,2.458,1.104,2.458,2.459s-1.103,2.459-2.458,2.459s-2.459-1.104-2.459-2.459
		S61.562,12.168,62.918,12.168z"/>
</g>
</svg>
