<?xml version="1.0" encoding="utf-8"?>
<!-- Generator: Adobe Illustrator 16.0.0, SVG Export Plug-In . SVG Version: 6.00 Build 0)  -->
<!DOCTYPE svg PUBLIC "-//W3C//DTD SVG 1.1//EN" "http://www.w3.org/Graphics/SVG/1.1/DTD/svg11.dtd">
<svg version="1.1" id="Layer_1" xmlns="http://www.w3.org/2000/svg" xmlns:xlink="http://www.w3.org/1999/xlink" x="0px" y="0px"
	 width="100px" height="100px" viewBox="0 0 100 100" enable-background="new 0 0 100 100" xml:space="preserve">
<g>
	<path d="M65.382,20.5h-29c-3.137,0-6.882,2.491-6.882,6.022v1c0,3.328,3.542,5.978,6.882,5.978H36.5v34.354
		c0,7.536,6.056,13.668,13.5,13.668s13.5-6.132,13.5-13.668V33.5h1.882c3.15,0,5.118-2.412,5.118-5.978v-1
		C70.5,23.201,68.689,20.5,65.382,20.5z M50,77.522c-5.327,0-9.5-4.247-9.5-9.668V50.104c2-0.451,5.84-1.045,8.718,1.833
		c1.413,1.413,3.281,2.156,5.18,2.156c0.067,0-0.053-0.001,0.015-0.003c1.933-0.054,4.088-0.852,5.088-1.798v15.562
		C59.5,73.275,55.327,77.522,50,77.522z M66.5,27.522c0,1.134-0.119,1.978-1.118,1.978H62c-1.104,0-2.5,1.276-2.5,2.381v15.395
		c-1,1.181-3.222,2.767-5.143,2.816c-0.901,0.005-1.743-0.29-2.437-0.983C48.138,45.324,43.5,45.47,40.5,46.01V31.881
		c0-1.104-0.396-2.381-1.5-2.381h-2.618c-1.113,0-2.882-0.875-2.882-1.978v-1c0-0.982,1.731-2.022,2.882-2.022h29
		c1.104,0,1.118,0.902,1.118,2.022V27.522z"/>
</g>
</svg>
