<?xml version="1.0" encoding="utf-8"?>
<!-- Generator: Adobe Illustrator 16.0.0, SVG Export Plug-In . SVG Version: 6.00 Build 0)  -->
<!DOCTYPE svg PUBLIC "-//W3C//DTD SVG 1.1//EN" "http://www.w3.org/Graphics/SVG/1.1/DTD/svg11.dtd">
<svg version="1.1" id="Layer_1" xmlns="http://www.w3.org/2000/svg" xmlns:xlink="http://www.w3.org/1999/xlink" x="0px" y="0px"
	 width="100px" height="100px" viewBox="0 0 100 100" enable-background="new 0 0 100 100" xml:space="preserve">
<g>
	<path d="M71.5,22.881c-1.104,0-2,0.896-2,2v29.752l-7.447-7.698c-0.781-0.781-1.922-0.781-2.703,0s-0.719,2.047,0.062,2.828
		l11.121,11.092c0.375,0.375,0.9,0.586,1.43,0.586c0.531,0,1.047-0.211,1.422-0.586L84.48,49.763
		c0.781-0.781,0.783-2.047,0.002-2.828c-0.779-0.781-2.296-0.781-3.077,0L73.5,54.592V24.881C73.5,23.776,72.604,22.881,71.5,22.881
		z"/>
	<path d="M77.75,38.616c-1.096-0.073-2.054,0.767-2.125,1.868c-0.07,1.103,0.766,2.053,1.869,2.124
		c8.572,0.55,15.037,7.132,15.037,15.562c0,8.702-7.082,15.329-16.123,15.329H22.325c-7.342,0-12.879-5.087-12.879-12.085
		c0-6.9,5.657-12.21,12.879-12.21c1.268,0,2.556,0.248,3.783,0.626L26.538,50c0.592,0.2,1.246,0.122,1.764-0.23
		c0.518-0.353,0.84-0.921,0.872-1.547c0.556-11.012,9.638-19.635,20.676-19.635c5.754,0,11.288,2.4,15.184,6.583
		c0.754,0.809,2.019,0.852,2.826,0.101c0.809-0.753,0.854-2.018,0.101-2.827c-4.649-4.991-11.251-7.854-18.111-7.854
		c-12.346,0-22.642,9.047-24.429,21.004c-1.031-0.196-2.066-0.295-3.095-0.295c-9.465,0-16.879,6.972-16.879,16.115
		c0,9.126,7.414,16.085,16.879,16.085h54.083c11.284,0,20.123-8.384,20.123-19.329C96.531,47.601,88.457,39.303,77.75,38.616z"/>
</g>
</svg>
