<?xml version="1.0" encoding="utf-8"?>
<!-- Generator: Adobe Illustrator 16.0.0, SVG Export Plug-In . SVG Version: 6.00 Build 0)  -->
<!DOCTYPE svg PUBLIC "-//W3C//DTD SVG 1.1//EN" "http://www.w3.org/Graphics/SVG/1.1/DTD/svg11.dtd">
<svg version="1.1" id="Layer_1" xmlns="http://www.w3.org/2000/svg" xmlns:xlink="http://www.w3.org/1999/xlink" x="0px" y="0px"
	 width="100px" height="100px" viewBox="0 0 100 100" enable-background="new 0 0 100 100" xml:space="preserve">
<g>
	<path d="M33.027,51.458c1.361,1.862,2.769,3.787,4.091,5.705c1.238,1.798,2.503,3.581,3.767,5.362l1.308,1.845
		c2.081,3.052,3.878,5.688,7.682,5.688c3.949,0,6.032-3.186,7.663-5.684c0.261-0.368,0.519-0.742,0.777-1.116
		c0.313-0.454,0.627-0.908,0.945-1.352l0.089-0.123c2.649-3.687,5.39-7.499,7.996-11.297c0.418-0.608,0.845-1.219,1.273-1.831
		c0.916-1.309,1.864-2.662,2.739-4.024c0.222-0.345,0.507-0.711,0.805-1.098c1.34-1.74,3.583-4.843,1.785-8.008
		c-1.005-1.77-3.175-4.025-5.983-4.025H31.782c-3.215,0-6.302,2.903-6.605,5.995c-0.248,2.523,1.27,4.686,2.489,6.348
		c0.227,0.308,0.445,0.652,0.638,0.937C29.829,47.034,31.455,49.307,33.027,51.458z M31.782,35.5h36.182
		c0.842,0,1.919,0.969,2.505,2.001c0.416,0.73-0.119,1.735-1.476,3.497c-0.363,0.472-0.706,0.964-1.001,1.423
		c-0.832,1.295-1.757,2.639-2.65,3.917c-0.436,0.622-0.869,1.253-1.295,1.873c-2.582,3.763-5.31,7.563-7.947,11.233l-0.088,0.126
		c-0.333,0.463-0.661,0.939-0.989,1.414c-0.249,0.361-0.498,0.723-0.791,1.139c-1.778,2.721-2.83,3.936-4.357,3.936
		c-1.491,0-2.23-0.792-4.396-3.969l-1.33-1.878c-1.253-1.767-2.508-3.535-3.736-5.317c-1.353-1.964-2.777-3.912-4.154-5.796
		c-1.552-2.123-3.155-4.317-4.641-6.512c-0.22-0.324-0.468-0.663-0.726-1.015c-0.858-1.17-1.831-2.686-1.733-3.685
		C29.258,36.86,30.656,35.5,31.782,35.5z"/>
</g>
</svg>
