<?xml version="1.0" encoding="utf-8"?>
<!-- Generator: Adobe Illustrator 16.0.0, SVG Export Plug-In . SVG Version: 6.00 Build 0)  -->
<!DOCTYPE svg PUBLIC "-//W3C//DTD SVG 1.1//EN" "http://www.w3.org/Graphics/SVG/1.1/DTD/svg11.dtd">
<svg version="1.1" id="Layer_1" xmlns="http://www.w3.org/2000/svg" xmlns:xlink="http://www.w3.org/1999/xlink" x="0px" y="0px"
	 width="100px" height="100px" viewBox="0 0 100 100" enable-background="new 0 0 100 100" xml:space="preserve">
<g>
	<path d="M50.5,45.881c-1.104,0-2,0.896-2,2v31.205l-9.805-10.058c-0.781-0.781-1.922-0.781-2.703,0
		c-0.781,0.78-0.719,2.047,0.062,2.828L48.75,84.523c0.375,0.375,0.899,0.586,1.43,0.586s1.047-0.211,1.422-0.586l12.672-12.667
		c0.781-0.781,0.783-2.047,0.002-2.828s-2.296-0.781-3.077,0L52.5,77.477V47.881C52.5,46.776,51.604,45.881,50.5,45.881z"/>
	<path d="M90.318,47.171c0-9.756-8.016-17.597-17.867-17.597c-1.184,0-2.301,0.223-3.356,0.471
		c-3.524-7.676-11.304-12.694-19.896-12.694c-10.85,0-19.911,7.9-21.597,18.369c-0.823-0.139-1.659-0.202-2.501-0.202
		c-8.426,0-15.025,6.26-15.025,14.49c0,8.231,6.6,14.492,15.025,14.492H41c1.104,0,2-0.896,2-2s-0.896-2-2-2H25.102
		c-6.183,0-11.025-4.501-11.025-10.489c0-5.987,4.843-10.583,11.025-10.583c1.116,0,2.219,0.214,3.258,0.537l0.377,0.145
		c0.589,0.191,1.237,0.106,1.748-0.247c0.512-0.354,0.829-0.918,0.86-1.539c0.481-9.507,8.324-16.952,17.854-16.952
		c7.525,0,14.286,4.727,16.821,11.761c0.238,0.66,0.87,1.161,1.56,1.296c0.317,0.063,0.647,0.046,0.958-0.044
		c1.442-0.431,2.66-0.716,3.913-0.716c7.646,0,13.867,5.952,13.867,13.502c0,7.581-6.091,13.329-13.867,13.329H60
		c-1.104,0-2,0.896-2,2s0.896,2,2,2h12.451C82.47,64.5,90.318,56.995,90.318,47.171z"/>
</g>
</svg>
