<?xml version="1.0" encoding="utf-8"?>
<!-- Generator: Adobe Illustrator 16.0.0, SVG Export Plug-In . SVG Version: 6.00 Build 0)  -->
<!DOCTYPE svg PUBLIC "-//W3C//DTD SVG 1.1//EN" "http://www.w3.org/Graphics/SVG/1.1/DTD/svg11.dtd">
<svg version="1.1" id="Layer_1" xmlns="http://www.w3.org/2000/svg" xmlns:xlink="http://www.w3.org/1999/xlink" x="0px" y="0px"
	 width="100px" height="100px" viewBox="0 0 100 100" enable-background="new 0 0 100 100" xml:space="preserve">
<g>
	<path d="M50.5,24.881c-1.104,0-2,0.896-2,2v32.844l-8.523-8.771c-0.781-0.781-1.922-0.781-2.704,0
		c-0.781,0.781-0.718,2.048,0.063,2.828L50.26,66.672c0.375,0.375,0.9,0.586,1.429,0.586c0.531,0,1.048-0.211,1.423-0.586
		l12.894-12.893c0.781-0.781,0.783-2.048,0.002-2.828c-0.781-0.781-2.297-0.781-3.078,0L52.5,61.135V26.881
		C52.5,25.776,51.604,24.881,50.5,24.881z"/>
	<path d="M72.5,72.207v-6.326c0-1.104-0.896-2-2-2s-2,0.896-2,2v6.326c0,0.319,0.461,0.293,0.424,0.293H32.739
		c-0.342,0-1.239-0.027-1.239-0.293v-6.326c0-1.104-0.896-2-2-2s-2,0.896-2,2v6.326c0,2.49,2.714,4.293,5.239,4.293h36.349
		C71.035,76.5,72.5,75.436,72.5,72.207z"/>
</g>
</svg>
