<?xml version="1.0" encoding="utf-8"?>
<!-- Generator: Adobe Illustrator 16.0.0, SVG Export Plug-In . SVG Version: 6.00 Build 0)  -->
<!DOCTYPE svg PUBLIC "-//W3C//DTD SVG 1.1//EN" "http://www.w3.org/Graphics/SVG/1.1/DTD/svg11.dtd">
<svg version="1.1" id="Layer_1" xmlns="http://www.w3.org/2000/svg" xmlns:xlink="http://www.w3.org/1999/xlink" x="0px" y="0px"
	 width="100px" height="100px" viewBox="0 0 100 100" enable-background="new 0 0 100 100" xml:space="preserve">
<g>
	<path d="M58.741,55.019L52.5,61.01V39.881c0-1.104-0.896-2-2-2s-2,0.896-2,2v21.908l-6.52-6.771c-0.78-0.781-1.922-0.781-2.703,0
		s-0.719,2.047,0.062,2.828l9.825,9.795c0.375,0.375,0.899,0.586,1.43,0.586s1.047-0.211,1.422-0.586l0.147-0.143
		c0.173-0.126,0.326-0.277,0.451-0.451l9.203-9.201c0.781-0.781,0.656-2.047-0.125-2.828C60.914,54.237,59.521,54.237,58.741,55.019
		z"/>
	<path d="M76.791,37.795c-1.252,0-2.365,0.347-3.347,0.652c-0.246,0.076-0.487,0.151-0.722,0.217
		c-4.002-9.179-13.133-15.237-23.221-15.237c-12.673,0-23.236,9.248-25.049,21.467c-1.082-0.213-2.162-0.32-3.228-0.32
		c-9.694,0-17.287,7.136-17.287,16.488c0,9.324,7.593,16.438,17.287,16.438h55.566c11.562,0,20.621-8.554,20.621-19.716
		C97.412,46.469,88.354,37.795,76.791,37.795z M76.791,73.5H21.225c-7.575,0-13.287-5.239-13.287-12.438
		c0-7.229,5.712-12.583,13.287-12.583c1.289,0,2.616,0.257,3.886,0.651l0.443,0.177c0.593,0.204,1.251,0.13,1.772-0.22
		c0.521-0.353,0.847-0.923,0.879-1.552c0.569-11.278,9.924-20.11,21.296-20.11c8.961,0,17.025,5.68,20.068,14.133
		c0.285,0.793,1.113,1.323,1.957,1.323c1.131,0,2.18-0.326,3.105-0.614c0.779-0.243,1.514-0.471,2.158-0.471
		c9.32,0,16.621,6.917,16.621,15.989C93.412,66.703,86.111,73.5,76.791,73.5z"/>
</g>
</svg>
