<?xml version="1.0" encoding="utf-8"?>
<!-- Generator: Adobe Illustrator 16.0.0, SVG Export Plug-In . SVG Version: 6.00 Build 0)  -->
<!DOCTYPE svg PUBLIC "-//W3C//DTD SVG 1.1//EN" "http://www.w3.org/Graphics/SVG/1.1/DTD/svg11.dtd">
<svg version="1.1" id="Layer_1" xmlns="http://www.w3.org/2000/svg" xmlns:xlink="http://www.w3.org/1999/xlink" x="0px" y="0px"
	 width="100px" height="100px" viewBox="0 0 100 100" enable-background="new 0 0 100 100" xml:space="preserve">
<g>
	<path d="M81.488,26.5H51.223l-9.312-9.407c-0.375-0.379-0.887-0.593-1.421-0.593h-21C13.901,16.5,8.5,21.628,8.5,27.039v48
		c0,5.335,5.303,9.461,10.989,9.461h63c5.423,0,9.012-3.851,9.012-9.461v-38C91.5,31.628,87.088,26.5,81.488,26.5z M87.5,75.039
		c0,3.385-1.818,5.461-5.012,5.461h-63c-3.517,0-6.989-2.294-6.989-5.461v-48c0-3.223,3.593-6.539,6.989-6.539h20.166l9.312,9.407
		c0.375,0.379,0.887,0.593,1.421,0.593h31.1c3.408,0,6.012,3.316,6.012,6.539V75.039z"/>
</g>
</svg>
