<?xml version="1.0" encoding="utf-8"?>
<!-- Generator: Adobe Illustrator 16.0.0, SVG Export Plug-In . SVG Version: 6.00 Build 0)  -->
<!DOCTYPE svg PUBLIC "-//W3C//DTD SVG 1.1//EN" "http://www.w3.org/Graphics/SVG/1.1/DTD/svg11.dtd">
<svg version="1.1" id="Layer_1" xmlns="http://www.w3.org/2000/svg" xmlns:xlink="http://www.w3.org/1999/xlink" x="0px" y="0px"
	 width="100px" height="100px" viewBox="0 0 100 100" enable-background="new 0 0 100 100" xml:space="preserve">
<g>
	<path d="M50.197,84.199c18.273,0,33.141-14.868,33.141-33.143c0-18.272-14.867-33.138-33.141-33.138S17.057,32.784,17.057,51.057
		C17.057,69.331,31.924,84.199,50.197,84.199z M50.197,80.199c-7.421,0-14.199-2.793-19.35-7.377l41.113-41.114
		c4.584,5.15,7.377,11.928,7.377,19.349C79.338,67.126,66.266,80.199,50.197,80.199z M50.197,21.919
		c7.21,0,13.812,2.638,18.905,6.991L28.049,69.964c-4.354-5.094-6.992-11.696-6.992-18.907
		C21.057,34.99,34.129,21.919,50.197,21.919z"/>
</g>
</svg>
