<?xml version="1.0" encoding="utf-8"?>
<!-- Generator: Adobe Illustrator 16.0.0, SVG Export Plug-In . SVG Version: 6.00 Build 0)  -->
<!DOCTYPE svg PUBLIC "-//W3C//DTD SVG 1.1//EN" "http://www.w3.org/Graphics/SVG/1.1/DTD/svg11.dtd">
<svg version="1.1" id="Layer_1" xmlns="http://www.w3.org/2000/svg" xmlns:xlink="http://www.w3.org/1999/xlink" x="0px" y="0px"
	 width="100px" height="100px" viewBox="0 0 100 100" enable-background="new 0 0 100 100" xml:space="preserve">
<g>
	<path d="M29.357,64.43c0.31,0,0.74-0.072,1.018-0.21l17.789-8.966c0.186-0.093,0.336-0.193,0.336-0.291v4.904
		c0,2.559,2.21,4.562,4.713,4.562c0.312,0,0.744-0.073,1.023-0.213l17.891-8.963c2.436-1.213,3.701-2.893,3.701-4.992
		c0-1.474-0.615-3.536-3.601-4.989l-17.876-8.967c-0.278-0.14-0.831-0.212-1.143-0.212c-2.503,0-4.709,2.004-4.709,4.562v4.908
		c0-0.076-0.018-0.156-0.164-0.228l-17.829-8.966c-0.252-0.126-0.464-0.197-0.745-0.209l-0.432-0.005
		c-2.586,0-4.83,1.977-4.83,4.499v19.211C24.5,62.383,26.816,64.43,29.357,64.43z M52.5,40.656c0-0.141,0.294-0.346,0.434-0.466
		l17.413,8.669c0.921,0.447,1.45,0.92,1.45,1.402c0,0.17,0.031,0.688-1.429,1.415l-17.451,8.655
		c-0.139-0.12-0.417-0.325-0.417-0.465V40.656z M28.5,40.656c0-0.208,0.383-0.375,0.605-0.452l17.589,8.721
		c0.398,0.194,1.39,0.712,1.39,1.337c0,0.17,0.031,0.688-1.423,1.412l-17.626,8.674c-0.177-0.101-0.535-0.282-0.535-0.48V40.656z"/>
	<path d="M86.5,29.526c0-4.985-4.041-9.026-9.025-9.026H21.525c-4.984,0-9.025,4.041-9.025,9.026v40.947
		c0,4.985,4.041,9.026,9.025,9.026h55.949c4.984,0,9.025-4.041,9.025-9.026V29.526z M82.5,70.474c0,2.776-2.25,5.026-5.025,5.026
		H21.525c-2.775,0-5.025-2.25-5.025-5.026V29.526c0-2.776,2.25-5.026,5.025-5.026h55.949c2.775,0,5.025,2.25,5.025,5.026V70.474z"/>
</g>
</svg>
