<?xml version="1.0" encoding="utf-8"?>
<!-- Generator: Adobe Illustrator 16.0.0, SVG Export Plug-In . SVG Version: 6.00 Build 0)  -->
<!DOCTYPE svg PUBLIC "-//W3C//DTD SVG 1.1//EN" "http://www.w3.org/Graphics/SVG/1.1/DTD/svg11.dtd">
<svg version="1.1" id="Layer_1" xmlns="http://www.w3.org/2000/svg" xmlns:xlink="http://www.w3.org/1999/xlink" x="0px" y="0px"
	 width="100px" height="100px" viewBox="0 0 100 100" enable-background="new 0 0 100 100" xml:space="preserve">
<g>
	<path d="M85.604,50.539c0-1.854-0.818-4.461-4.696-6.346L55.432,31.429c-0.277-0.14-0.834-0.212-1.146-0.212
		c-3.104,0-5.786,2.479-5.786,5.646v8.478c0-0.385-0.834-0.742-1.479-1.055L21.612,31.521c-0.253-0.126-0.716-0.197-0.998-0.209
		c-3.32-0.139-6.114,2.35-6.114,5.551v27.353c0,3.114,2.787,5.648,5.906,5.648c0.311,0,0.741-0.072,1.02-0.211l25.349-12.764
		c0.723-0.359,1.726-0.753,1.726-1.172v8.498c0,3.167,2.682,5.648,5.786,5.648c0.312,0,0.744-0.073,1.022-0.213l25.477-12.762
		C83.94,55.317,85.604,53.181,85.604,50.539z M45.301,53.31L20.023,65.818c-0.729-0.172-1.523-0.826-1.523-1.604V36.862
		c0-0.8,0.801-1.406,1.665-1.53l25.214,12.541c1.067,0.519,2.402,1.401,2.402,2.666C47.781,50.95,47.844,52.043,45.301,53.31z
		 M53.905,65.816c-0.68-0.173-1.405-0.804-1.405-1.602V36.862c0-0.797,0.727-1.427,1.406-1.599L79.013,47.78
		c2.466,1.199,2.528,2.373,2.528,2.759c0,0.411-0.094,1.505-2.639,2.772L53.905,65.816z"/>
</g>
</svg>
