<?xml version="1.0" encoding="utf-8"?>
<!-- Generator: Adobe Illustrator 16.0.0, SVG Export Plug-In . SVG Version: 6.00 Build 0)  -->
<!DOCTYPE svg PUBLIC "-//W3C//DTD SVG 1.1//EN" "http://www.w3.org/Graphics/SVG/1.1/DTD/svg11.dtd">
<svg version="1.1" id="Layer_1" xmlns="http://www.w3.org/2000/svg" xmlns:xlink="http://www.w3.org/1999/xlink" x="0px" y="0px"
	 width="100px" height="100px" viewBox="0 0 100 100" enable-background="new 0 0 100 100" xml:space="preserve">
<g>
	<path d="M66.458,17.108c-6.167,0-12.007,2.642-16.08,7.175c-4.074-4.531-9.921-7.174-16.078-7.174
		c-11.913,0-21.604,9.692-21.604,21.605c0,4.868,1.516,8.942,4.915,13.207c1.478,1.855,3.139,3.557,4.896,5.355l1.222,1.262
		c3.552,3.67,7.237,7.335,10.8,10.864c1.774,1.758,3.548,3.545,5.311,5.309c1.782,1.785,3.568,3.626,5.355,5.409l3.825,3.747
		c0.375,0.375,0.884,0.632,1.414,0.632c0.001,0,0.002,0,0.003,0c0.531,0,1.04-0.259,1.415-0.636
		c1.395-1.402,2.792-2.944,4.191-4.343c2.551-2.549,5.094-5.06,7.636-7.617c3.341-3.36,6.682-6.697,10.042-10.038
		c0.723-0.718,1.463-1.423,2.208-2.143c5.687-5.5,12.133-11.729,12.133-21.017C88.062,26.794,78.37,17.108,66.458,17.108z
		 M73.147,56.859c-0.758,0.733-1.512,1.463-2.247,2.194c-3.366,3.346-6.712,6.712-10.059,10.078
		c-2.539,2.555-5.078,5.109-7.626,7.655c-0.93,0.928-1.858,1.858-2.786,2.79l-2.41-2.406c-1.785-1.78-3.569-3.562-5.351-5.346
		c-1.769-1.77-3.547-3.53-5.325-5.292c-3.549-3.516-7.218-7.151-10.74-10.79l-1.236-1.27c-1.685-1.724-3.276-3.352-4.629-5.049
		c-2.834-3.555-4.043-6.759-4.043-10.712c0-9.707,7.897-17.604,17.604-17.604c5.701,0,11.076,2.879,14.36,7.514l0.068,0.006
		c0.372,0.541,0.984,0.872,1.641,0.872c0.003,0,0.006,0,0.009,0c0.653,0,1.265-0.321,1.64-0.858
		c3.296-4.715,8.694-7.628,14.44-7.628c9.707,0,17.604,7.945,17.604,17.652C84.062,46.257,78.761,51.432,73.147,56.859z"/>
</g>
</svg>
