<?xml version="1.0" encoding="utf-8"?>
<!-- Generator: Adobe Illustrator 16.0.0, SVG Export Plug-In . SVG Version: 6.00 Build 0)  -->
<!DOCTYPE svg PUBLIC "-//W3C//DTD SVG 1.1//EN" "http://www.w3.org/Graphics/SVG/1.1/DTD/svg11.dtd">
<svg version="1.1" id="Layer_1" xmlns="http://www.w3.org/2000/svg" xmlns:xlink="http://www.w3.org/1999/xlink" x="0px" y="0px"
	 width="100px" height="100px" viewBox="0 0 100 100" enable-background="new 0 0 100 100" xml:space="preserve">
<g>
	<path d="M37.577,58.729l1.888,1.338c1.775,1.26,3.554,2.521,5.346,3.757c1.92,1.322,3.848,2.731,5.712,4.094
		c2.149,1.571,4.373,3.195,6.625,4.72c0.295,0.199,0.601,0.427,0.917,0.661c1.5,1.11,3.367,2.492,5.644,2.492
		c0.178,0,0.105-0.009,0.283-0.026c3.067-0.301,5.509-3.388,5.509-6.605V32.977c0-2.329-1.237-4.678-3.538-5.983
		c-0.778-0.441-1.487-0.666-2.353-0.666c-2.149,0-3.841,1.355-5.25,2.445c-0.403,0.312-0.753,0.606-1.072,0.811
		c-1.34,0.862-2.651,1.794-3.936,2.694c-0.632,0.443-1.254,0.886-1.883,1.317c-3.684,2.528-7.374,5.185-10.946,7.753l-0.46,0.332
		c-0.442,0.318-0.895,0.631-1.347,0.943c-0.376,0.26-0.75,0.519-1.058,0.738c-2.559,1.673-5.743,3.754-5.743,7.705
		C31.915,54.87,34.552,56.667,37.577,58.729z M39.909,46.667c0.356-0.252,0.719-0.503,1.081-0.753
		c0.473-0.326,0.944-0.653,1.407-0.985l0.464-0.333c3.556-2.557,7.231-5.199,10.88-7.703c0.64-0.439,1.281-0.89,1.924-1.341
		c1.251-0.878,2.545-1.786,3.816-2.604c0.464-0.298,0.912-0.645,1.387-1.011c0.928-0.718,2.083-1.61,2.866-1.61
		c0.171,0,0.076,0.045,0.253,0.145c1.021,0.58,1.513,1.633,1.513,2.505v36.182c0,1.128-0.896,2.526-1.9,2.625
		c-0.999,0.1-2.146-0.861-3.28-1.7c-0.364-0.271-0.654-0.53-0.992-0.759c-2.192-1.483-4.354-3.087-6.476-4.637
		c-1.887-1.379-3.821-2.805-5.787-4.158c-1.776-1.225-3.532-2.476-5.293-3.726l-1.918-1.36c-3.149-2.147-3.94-2.887-3.94-4.377
		C35.913,49.538,37.128,48.486,39.909,46.667z"/>
</g>
</svg>
