<?xml version="1.0" encoding="utf-8"?>
<!-- Generator: Adobe Illustrator 16.0.0, SVG Export Plug-In . SVG Version: 6.00 Build 0)  -->
<!DOCTYPE svg PUBLIC "-//W3C//DTD SVG 1.1//EN" "http://www.w3.org/Graphics/SVG/1.1/DTD/svg11.dtd">
<svg version="1.1" id="Layer_1" xmlns="http://www.w3.org/2000/svg" xmlns:xlink="http://www.w3.org/1999/xlink" x="0px" y="0px"
	 width="100px" height="100px" viewBox="0 0 100 100" enable-background="new 0 0 100 100" xml:space="preserve">
<g>
	<path d="M22,37.5h4c1.104,0,2-0.896,2-2s-0.896-2-2-2h-4c-1.104,0-2,0.896-2,2S20.896,37.5,22,37.5z"/>
	<path d="M22,52.5h4c1.104,0,2-0.896,2-2s-0.896-2-2-2h-4c-1.104,0-2,0.896-2,2S20.896,52.5,22,52.5z"/>
	<path d="M22,67.5h4c1.104,0,2-0.896,2-2s-0.896-2-2-2h-4c-1.104,0-2,0.896-2,2S20.896,67.5,22,67.5z"/>
	<path d="M36,37.5h44c1.104,0,2-0.896,2-2s-0.896-2-2-2H36c-1.104,0-2,0.896-2,2S34.896,37.5,36,37.5z"/>
	<path d="M36,52.5h44c1.104,0,2-0.896,2-2s-0.896-2-2-2H36c-1.104,0-2,0.896-2,2S34.896,52.5,36,52.5z"/>
	<path d="M36,67.5h44c1.104,0,2-0.896,2-2s-0.896-2-2-2H36c-1.104,0-2,0.896-2,2S34.896,67.5,36,67.5z"/>
</g>
</svg>
