<?xml version="1.0" encoding="utf-8"?>
<!-- Generator: Adobe Illustrator 16.0.0, SVG Export Plug-In . SVG Version: 6.00 Build 0)  -->
<!DOCTYPE svg PUBLIC "-//W3C//DTD SVG 1.1//EN" "http://www.w3.org/Graphics/SVG/1.1/DTD/svg11.dtd">
<svg version="1.1" id="Layer_1" xmlns="http://www.w3.org/2000/svg" xmlns:xlink="http://www.w3.org/1999/xlink" x="0px" y="0px"
	 width="100px" height="100px" viewBox="0 0 100 100" enable-background="new 0 0 100 100" xml:space="preserve">
<g>
	<path d="M17.775,51.509c0.141,0.864,0.827,1.537,1.693,1.66l25.406,3.603l3.604,25.407c0.123,0.866,0.796,1.553,1.66,1.693
		c0.107,0.017,0.215,0.025,0.321,0.025c0.748,0,1.446-0.421,1.789-1.107l30.062-60.28c0.399-0.6,0.432-1.363,0.113-1.997
		c-0.008-0.016-0.016-0.03-0.023-0.046c-0.091-0.17-0.198-0.332-0.342-0.476c-0.002-0.002-0.005-0.003-0.007-0.005
		c-0.001-0.002-0.002-0.004-0.002-0.004l-0.38-0.381c-0.608-0.611-1.539-0.765-2.309-0.378L18.857,49.398
		C18.074,49.789,17.636,50.645,17.775,51.509z M51.537,75.255l-2.722-19.192l24.521-24.521L51.537,75.255z M71.715,27.507
		L46.29,52.932L26.393,50.11L71.715,27.507z"/>
</g>
</svg>
