<?xml version="1.0" encoding="utf-8"?>
<!-- Generator: Adobe Illustrator 16.0.0, SVG Export Plug-In . SVG Version: 6.00 Build 0)  -->
<!DOCTYPE svg PUBLIC "-//W3C//DTD SVG 1.1//EN" "http://www.w3.org/Graphics/SVG/1.1/DTD/svg11.dtd">
<svg version="1.1" id="Layer_1" xmlns="http://www.w3.org/2000/svg" xmlns:xlink="http://www.w3.org/1999/xlink" x="0px" y="0px"
	 width="100px" height="100px" viewBox="0 0 100 100" enable-background="new 0 0 100 100" xml:space="preserve">
<g>
	<path d="M27.179,40.07c0,6.769,3.65,12.864,6.87,18.243c0.631,1.054,1.254,2.094,1.841,3.123c2.021,3.544,4.02,7.102,6.019,10.658
		c1.331,2.369,2.662,4.739,4,7.104l0.535,0.947c0.619,1.095,1.238,2.189,1.851,3.288c0.366,0.656,1.047,1.025,1.749,1.025
		c0.093,0,0.186-0.006,0.278-0.02c0.792,0.113,1.609-0.262,2.024-1.003l13.816-24.635c0.376-0.67,0.759-1.337,1.141-2.003
		c2.907-5.067,5.913-10.307,5.913-16.729c0-12.692-10.326-23.018-23.019-23.018S27.179,27.378,27.179,40.07z M69.216,40.07
		c0,5.356-2.614,9.913-5.382,14.737c-0.39,0.678-0.778,1.356-1.16,2.037L50.319,78.873c-0.132-0.232-0.263-0.465-0.395-0.697
		l-0.534-0.945c-1.337-2.362-2.666-4.729-3.995-7.095c-2.003-3.564-4.006-7.13-6.031-10.681c-0.601-1.054-1.237-2.118-1.883-3.196
		c-3.099-5.175-6.303-10.526-6.303-16.188c0-10.486,8.531-19.018,19.019-19.018S69.216,29.584,69.216,40.07z"/>
	<path d="M35.819,39.1c0,7.857,6.393,14.25,14.25,14.25s14.25-6.393,14.25-14.25s-6.393-14.25-14.25-14.25
		S35.819,31.242,35.819,39.1z M60.319,39.1c0,5.652-4.598,10.25-10.25,10.25s-10.25-4.598-10.25-10.25s4.598-10.25,10.25-10.25
		S60.319,33.447,60.319,39.1z"/>
</g>
</svg>
