<?xml version="1.0" encoding="utf-8"?>
<!-- Generator: Adobe Illustrator 16.0.0, SVG Export Plug-In . SVG Version: 6.00 Build 0)  -->
<!DOCTYPE svg PUBLIC "-//W3C//DTD SVG 1.1//EN" "http://www.w3.org/Graphics/SVG/1.1/DTD/svg11.dtd">
<svg version="1.1" id="Layer_1" xmlns="http://www.w3.org/2000/svg" xmlns:xlink="http://www.w3.org/1999/xlink" x="0px" y="0px"
	 width="100px" height="100px" viewBox="0 0 100 100" enable-background="new 0 0 100 100" xml:space="preserve">
<g>
	<path d="M70,33.5H32c-1.104,0-2,0.896-2,2s0.896,2,2,2h38c1.104,0,2-0.896,2-2S71.104,33.5,70,33.5z"/>
	<path d="M70,48.5H32c-1.104,0-2,0.896-2,2s0.896,2,2,2h38c1.104,0,2-0.896,2-2S71.104,48.5,70,48.5z"/>
	<path d="M70,63.5H32c-1.104,0-2,0.896-2,2s0.896,2,2,2h38c1.104,0,2-0.896,2-2S71.104,63.5,70,63.5z"/>
	<path d="M87.5,26.5c0-5.523-4.478-10-10-10h-55c-5.523,0-10,4.477-10,10v47c0,5.522,4.477,10,10,10h55c5.522,0,10-4.478,10-10V26.5
		z M83.5,73.5c0,3.313-2.687,6-6,6h-55c-3.313,0-6-2.687-6-6v-47c0-3.313,2.687-6,6-6h55c3.313,0,6,2.687,6,6V73.5z"/>
</g>
</svg>
