<?xml version="1.0" encoding="utf-8"?>
<!-- Generator: Adobe Illustrator 16.0.0, SVG Export Plug-In . SVG Version: 6.00 Build 0)  -->
<!DOCTYPE svg PUBLIC "-//W3C//DTD SVG 1.1//EN" "http://www.w3.org/Graphics/SVG/1.1/DTD/svg11.dtd">
<svg version="1.1" id="Layer_1" xmlns="http://www.w3.org/2000/svg" xmlns:xlink="http://www.w3.org/1999/xlink" x="0px" y="0px"
	 width="100px" height="100px" viewBox="0 0 100 100" enable-background="new 0 0 100 100" xml:space="preserve">
<g>
	<path d="M26,37.5h49c1.104,0,2-0.896,2-2s-0.896-2-2-2H26c-1.104,0-2,0.896-2,2S24.896,37.5,26,37.5z"/>
	<path d="M26,52.5h49c1.104,0,2-0.896,2-2s-0.896-2-2-2H26c-1.104,0-2,0.896-2,2S24.896,52.5,26,52.5z"/>
	<path d="M26,67.5h49c1.104,0,2-0.896,2-2s-0.896-2-2-2H26c-1.104,0-2,0.896-2,2S24.896,67.5,26,67.5z"/>
</g>
</svg>
