<?xml version="1.0" encoding="utf-8"?>
<!-- Generator: Adobe Illustrator 16.0.0, SVG Export Plug-In . SVG Version: 6.00 Build 0)  -->
<!DOCTYPE svg PUBLIC "-//W3C//DTD SVG 1.1//EN" "http://www.w3.org/Graphics/SVG/1.1/DTD/svg11.dtd">
<svg version="1.1" id="Layer_1" xmlns="http://www.w3.org/2000/svg" xmlns:xlink="http://www.w3.org/1999/xlink" x="0px" y="0px"
	 width="100px" height="100px" viewBox="0 0 100 100" enable-background="new 0 0 100 100" xml:space="preserve">
<g>
	<path d="M30.183,50.762c0-6.264-5.095-11.359-11.356-11.359c-6.261,0-11.354,5.096-11.354,11.359
		c0,6.259,5.094,11.352,11.354,11.352C25.088,62.113,30.183,57.021,30.183,50.762z M11.472,50.762c0-4.058,3.299-7.359,7.354-7.359
		c4.057,0,7.356,3.302,7.356,7.359c0,4.054-3.3,7.352-7.356,7.352C14.771,58.113,11.472,54.815,11.472,50.762z"/>
	<path d="M61.355,50.762c0-6.264-5.095-11.359-11.356-11.359c-6.261,0-11.354,5.096-11.354,11.359
		c0,6.259,5.094,11.352,11.354,11.352C56.261,62.113,61.355,57.021,61.355,50.762z M49.999,58.113c-4.056,0-7.354-3.298-7.354-7.352
		c0-4.058,3.299-7.359,7.354-7.359c4.057,0,7.356,3.302,7.356,7.359C57.355,54.815,54.056,58.113,49.999,58.113z"/>
	<path d="M81.172,39.402c-6.262,0-11.355,5.096-11.355,11.359c0,6.259,5.094,11.352,11.355,11.352s11.356-5.093,11.356-11.352
		C92.528,44.498,87.434,39.402,81.172,39.402z M81.172,58.113c-4.056,0-7.355-3.298-7.355-7.352c0-4.058,3.3-7.359,7.355-7.359
		c4.057,0,7.356,3.302,7.356,7.359C88.528,54.815,85.229,58.113,81.172,58.113z"/>
</g>
</svg>
