<?xml version="1.0" encoding="utf-8"?>
<!-- Generator: Adobe Illustrator 16.0.0, SVG Export Plug-In . SVG Version: 6.00 Build 0)  -->
<!DOCTYPE svg PUBLIC "-//W3C//DTD SVG 1.1//EN" "http://www.w3.org/Graphics/SVG/1.1/DTD/svg11.dtd">
<svg version="1.1" id="Layer_1" xmlns="http://www.w3.org/2000/svg" xmlns:xlink="http://www.w3.org/1999/xlink" x="0px" y="0px"
	 width="100px" height="100px" viewBox="0 0 100 100" enable-background="new 0 0 100 100" xml:space="preserve">
<g>
	<path d="M71.5,68.881v-36c0-1.104-0.896-2-2-2s-2,0.896-2,2v36c0,1.104,0.896,2,2,2S71.5,69.985,71.5,68.881z"/>
	<path d="M34.045,31.542c-3.019,0-5.545,2.427-5.545,5.646V64.54c0,3.22,2.526,5.648,5.545,5.648c0.314,0,0.749-0.074,1.029-0.216
		l25.228-12.759c3.156-1.572,4.787-3.709,4.787-6.35c0-1.88-0.782-4.509-4.557-6.344L35.062,31.756
		C34.782,31.615,34.357,31.542,34.045,31.542z M61.12,50.864c0,0.411,0,1.504-2.552,2.775L33.666,66.139
		c-0.867-0.25-1.166-1.354-1.166-1.599V37.188c0-0.243,0.299-1.348,1.168-1.596l24.981,12.514
		C60.995,49.246,61.12,50.422,61.12,50.864z"/>
</g>
</svg>
