<?xml version="1.0" encoding="utf-8"?>
<!-- Generator: Adobe Illustrator 16.0.0, SVG Export Plug-In . SVG Version: 6.00 Build 0)  -->
<!DOCTYPE svg PUBLIC "-//W3C//DTD SVG 1.1//EN" "http://www.w3.org/Graphics/SVG/1.1/DTD/svg11.dtd">
<svg version="1.1" id="Layer_1" xmlns="http://www.w3.org/2000/svg" xmlns:xlink="http://www.w3.org/1999/xlink" x="0px" y="0px"
	 width="100px" height="100px" viewBox="0 0 100 100" enable-background="new 0 0 100 100" xml:space="preserve">
<g>
	<path d="M38.426,64.586c0.309,0,0.738-0.071,1.015-0.209l17.86-8.967c1.771-0.882,3.199-2.014,3.199-3.372v10.843
		c0,1.104,0.896,2,2,2s2-0.896,2-2v-25c0-1.104-0.896-2-2-2s-2,0.896-2,2v10.936c0-1.147-1.139-2.391-3.193-3.39L39.443,36.46
		c-0.277-0.138-0.771-0.21-1.08-0.21c-2.534,0-4.863,2.089-4.863,4.562v19.212C33.5,62.496,35.892,64.586,38.426,64.586z
		 M37.5,40.812c0-0.188,0.407-0.38,0.612-0.483l17.553,8.688c0.449,0.218,1.556,0.792,1.556,1.401c0,0.171,0.031,0.689-1.42,1.412
		l-17.703,8.679c-0.206-0.104-0.598-0.295-0.598-0.484V40.812z"/>
	<path d="M86.5,29.526c0-4.985-4.041-9.026-9.026-9.026H21.526c-4.985,0-9.026,4.041-9.026,9.026v40.947
		c0,4.985,4.041,9.026,9.026,9.026h55.947c4.985,0,9.026-4.041,9.026-9.026V29.526z M82.5,70.474c0,2.776-2.25,5.026-5.026,5.026
		H21.526c-2.776,0-5.026-2.25-5.026-5.026V29.526c0-2.776,2.25-5.026,5.026-5.026h55.947c2.776,0,5.026,2.25,5.026,5.026V70.474z"/>
</g>
</svg>
