<?xml version="1.0" encoding="utf-8"?>
<!-- Generator: Adobe Illustrator 16.0.0, SVG Export Plug-In . SVG Version: 6.00 Build 0)  -->
<!DOCTYPE svg PUBLIC "-//W3C//DTD SVG 1.1//EN" "http://www.w3.org/Graphics/SVG/1.1/DTD/svg11.dtd">
<svg version="1.1" id="Layer_1" xmlns="http://www.w3.org/2000/svg" xmlns:xlink="http://www.w3.org/1999/xlink" x="0px" y="0px"
	 width="100px" height="100px" viewBox="0 0 100 100" enable-background="new 0 0 100 100" xml:space="preserve">
<g>
	<path d="M38.109,84.022c6.348,0,11.395-4.474,12.676-10.438c0-0.578-0.285-0.979-0.285-1.703V33.822
		c1-0.002,0.312-0.005,0.344-0.008c9.67-1.069,21.694,8.744,21.812,8.844c0.598,0.497,1.489,0.604,2.191,0.274
		c0.703-0.329,1.184-1.034,1.184-1.811c0-6.581-2.065-11.969-6.171-16.013c-7.896-7.778-20.649-7.684-21.147-7.673
		c-1.094,0.017-2.213,0.907-2.213,2v42.601c-2-2.733-4.7-4.466-8.641-4.466c-7.305,0-13.101,5.921-13.101,13.226
		S30.805,84.022,38.109,84.022z M50.5,21.528c4,0.291,11.308,1.493,16.318,6.43c2.412,2.376,4.083,5.369,4.747,8.931
		c-4.329-2.92-12.043-7.152-19.311-7.152c-0.523,0-0.755,0.021-1.755,0.068V21.528z"/>
</g>
</svg>
