<?xml version="1.0" encoding="utf-8"?>
<!-- Generator: Adobe Illustrator 16.0.0, SVG Export Plug-In . SVG Version: 6.00 Build 0)  -->
<!DOCTYPE svg PUBLIC "-//W3C//DTD SVG 1.1//EN" "http://www.w3.org/Graphics/SVG/1.1/DTD/svg11.dtd">
<svg version="1.1" id="Layer_1" xmlns="http://www.w3.org/2000/svg" xmlns:xlink="http://www.w3.org/1999/xlink" x="0px" y="0px"
	 width="100px" height="100px" viewBox="0 0 100 100" enable-background="new 0 0 100 100" xml:space="preserve">
<g>
	<path d="M45.5,35.881c-1.104,0-2,0.896-2,2v25c0,1.104,0.896,2,2,2s2-0.896,2-2v-25C47.5,36.776,46.604,35.881,45.5,35.881z"/>
	<path d="M56.5,35.881c-1.104,0-2,0.896-2,2v25c0,1.104,0.896,2,2,2s2-0.896,2-2v-25C58.5,36.776,57.604,35.881,56.5,35.881z"/>
	<path d="M87.5,29.526c0-4.985-4.041-9.026-9.025-9.026H22.525c-4.984,0-9.025,4.041-9.025,9.026v40.947
		c0,4.985,4.041,9.026,9.025,9.026h55.949c4.984,0,9.025-4.041,9.025-9.026V29.526z M83.5,70.474c0,2.776-2.25,5.026-5.025,5.026
		H22.525c-2.775,0-5.025-2.25-5.025-5.026V29.526c0-2.776,2.25-5.026,5.025-5.026h55.949c2.775,0,5.025,2.25,5.025,5.026V70.474z"/>
</g>
</svg>
