<?xml version="1.0" encoding="utf-8"?>
<!-- Generator: Adobe Illustrator 16.0.0, SVG Export Plug-In . SVG Version: 6.00 Build 0)  -->
<!DOCTYPE svg PUBLIC "-//W3C//DTD SVG 1.1//EN" "http://www.w3.org/Graphics/SVG/1.1/DTD/svg11.dtd">
<svg version="1.1" id="Layer_1" xmlns="http://www.w3.org/2000/svg" xmlns:xlink="http://www.w3.org/1999/xlink" x="0px" y="0px"
	 width="100px" height="100px" viewBox="0 0 100 100" enable-background="new 0 0 100 100" xml:space="preserve">
<g>
	<path d="M50,17.381c-1.381,0-2.5,1.119-2.5,2.5v17c0,1.381,1.119,2.5,2.5,2.5s2.5-1.119,2.5-2.5v-17
		C52.5,18.5,51.381,17.381,50,17.381z"/>
	<path d="M50,62.381c-1.381,0-2.5,1.119-2.5,2.5v17c0,1.381,1.119,2.5,2.5,2.5s2.5-1.119,2.5-2.5v-17
		C52.5,63.5,51.381,62.381,50,62.381z"/>
	<path d="M38.5,51c0-1.381-1.119-2.5-2.5-2.5H19c-1.381,0-2.5,1.119-2.5,2.5s1.119,2.5,2.5,2.5h17C37.381,53.5,38.5,52.381,38.5,51z
		"/>
	<path d="M81,48.5H64c-1.381,0-2.5,1.119-2.5,2.5s1.119,2.5,2.5,2.5h17c1.381,0,2.5-1.119,2.5-2.5S82.381,48.5,81,48.5z"/>
	<path d="M30.579,26.981c-0.977-0.977-2.559-0.977-3.535,0s-0.977,2.559,0,3.535l12.021,12.021c0.488,0.488,1.128,0.732,1.768,0.732
		s1.279-0.244,1.768-0.732c0.977-0.977,0.977-2.559,0-3.535L30.579,26.981z"/>
	<path d="M62.398,58.801c-0.977-0.977-2.559-0.977-3.535,0s-0.977,2.559,0,3.535l12.021,12.021c0.488,0.488,1.128,0.732,1.768,0.732
		s1.279-0.244,1.768-0.732c0.977-0.977,0.977-2.559,0-3.535L62.398,58.801z"/>
	<path d="M39.064,59.508L27.044,71.528c-0.977,0.977-0.977,2.559,0,3.535c0.488,0.488,1.128,0.732,1.768,0.732
		s1.279-0.244,1.768-0.732L42.6,63.043c0.977-0.977,0.977-2.559,0-3.535S40.041,58.531,39.064,59.508z"/>
	<path d="M58.863,43.244c0.488,0.488,1.128,0.732,1.768,0.732s1.279-0.244,1.768-0.732l12.021-12.021
		c0.977-0.977,0.977-2.559,0-3.535s-2.559-0.977-3.535,0L58.863,39.709C57.887,40.686,57.887,42.268,58.863,43.244z"/>
</g>
</svg>
