<?xml version="1.0" encoding="utf-8"?>
<!-- Generator: Adobe Illustrator 16.0.0, SVG Export Plug-In . SVG Version: 6.00 Build 0)  -->
<!DOCTYPE svg PUBLIC "-//W3C//DTD SVG 1.1//EN" "http://www.w3.org/Graphics/SVG/1.1/DTD/svg11.dtd">
<svg version="1.1" id="Layer_1" xmlns="http://www.w3.org/2000/svg" xmlns:xlink="http://www.w3.org/1999/xlink" x="0px" y="0px"
	 width="100px" height="100px" viewBox="0 0 100 100" enable-background="new 0 0 100 100" xml:space="preserve">
<g>
	<path d="M35.5,64.881c1.104,0,2-0.896,2-2v-25c0-1.104-0.896-2-2-2s-2,0.896-2,2v25C33.5,63.985,34.396,64.881,35.5,64.881z"/>
	<path d="M41.689,55.408l17.894,8.966c0.277,0.14,0.334,0.212,0.646,0.212c2.493,0,4.271-2.047,4.271-4.562V40.812
		c0-2.516-1.778-4.562-4.271-4.562c-0.311,0-0.492,0.072-0.771,0.212l-17.829,8.956c-3.031,1.473-3.637,3.531-3.637,4.999
		C37.992,52.519,39.258,54.198,41.689,55.408z M43.461,49.005l17.06-8.664c0.141,0.099-0.021,0.269-0.021,0.471v19.212
		c0,0.202,0.161,0.373,0.021,0.472L43.352,51.83c-1.453-0.724-1.391-1.242-1.391-1.413C41.961,49.827,42.793,49.329,43.461,49.005z"
		/>
	<path d="M86.5,29.526c0-4.985-4.041-9.026-9.025-9.026H21.525c-4.984,0-9.025,4.041-9.025,9.026v40.947
		c0,4.985,4.041,9.026,9.025,9.026h55.949c4.984,0,9.025-4.041,9.025-9.026V29.526z M82.5,70.474c0,2.776-2.25,5.026-5.025,5.026
		H21.525c-2.775,0-5.025-2.25-5.025-5.026V29.526c0-2.776,2.25-5.026,5.025-5.026h55.949c2.775,0,5.025,2.25,5.025,5.026V70.474z"/>
</g>
</svg>
