<?xml version="1.0" encoding="utf-8"?>
<!-- Generator: Adobe Illustrator 16.0.0, SVG Export Plug-In . SVG Version: 6.00 Build 0)  -->
<!DOCTYPE svg PUBLIC "-//W3C//DTD SVG 1.1//EN" "http://www.w3.org/Graphics/SVG/1.1/DTD/svg11.dtd">
<svg version="1.1" id="Layer_1" xmlns="http://www.w3.org/2000/svg" xmlns:xlink="http://www.w3.org/1999/xlink" x="0px" y="0px"
	 width="100px" height="100px" viewBox="0 0 100 100" enable-background="new 0 0 100 100" xml:space="preserve">
<g>
	<path d="M31.5,68.881v-36c0-1.104-0.896-2-2-2s-2,0.896-2,2v36c0,1.104,0.896,2,2,2S31.5,69.985,31.5,68.881z"/>
	<path d="M34.143,50.864c0,2.642,1.6,4.777,4.767,6.355l26.047,12.765c0.273,0.135,0.325,0.204,0.63,0.204
		c2.915,0,5.914-2.319,5.914-5.648V37.188c0-3.327-2.999-5.646-5.914-5.646c-0.308,0-0.486,0.071-0.763,0.208L39.112,44.508
		C34.953,46.53,34.143,49.08,34.143,50.864z M65.976,35.581c0.908,0.176,1.524,0.92,1.524,1.606V64.54
		c0,0.688-0.619,1.436-1.528,1.61L40.556,53.634c-2.538-1.265-2.476-2.358-2.476-2.77c0-1.225,1.648-2.254,2.7-2.766L65.976,35.581z
		"/>
</g>
</svg>
