<?xml version="1.0" encoding="utf-8"?>
<!-- Generator: Adobe Illustrator 16.0.0, SVG Export Plug-In . SVG Version: 6.00 Build 0)  -->
<!DOCTYPE svg PUBLIC "-//W3C//DTD SVG 1.1//EN" "http://www.w3.org/Graphics/SVG/1.1/DTD/svg11.dtd">
<svg version="1.1" id="Layer_1" xmlns="http://www.w3.org/2000/svg" xmlns:xlink="http://www.w3.org/1999/xlink" x="0px" y="0px"
	 width="100px" height="100px" viewBox="0 0 100 100" enable-background="new 0 0 100 100" xml:space="preserve">
<g>
	<path d="M50,18.539c-17.921,0-32.5,14.579-32.5,32.5s14.579,32.5,32.5,32.5s32.5-14.579,32.5-32.5S67.921,18.539,50,18.539z
		 M50,79.539c-15.715,0-28.5-12.785-28.5-28.5s12.785-28.5,28.5-28.5s28.5,12.785,28.5,28.5S65.715,79.539,50,79.539z"/>
	<circle cx="49.482" cy="33.999" r="3.345"/>
	<path d="M55.13,64.641c-1.495,1.535-3.208,2.281-5.235,2.281c-4.355,0-8.176-3.625-8.176-7.757c0-4.203,3.084-7.754,7.031-7.754
		c1.104,0,1.75-0.896,1.75-2v-6.53c0-1.104-0.896-2-2-2s-2,0.896-2,2v4.724c-5,1.017-9.031,5.898-9.031,11.561
		c0,6.373,5.701,11.757,12.301,11.757c3.119,0,5.907-1.174,8.163-3.49c0.771-0.791,0.785-2.058-0.006-2.828
		C57.136,63.832,55.899,63.85,55.13,64.641z"/>
</g>
</svg>
