<?xml version="1.0" encoding="utf-8"?>
<!-- Generator: Adobe Illustrator 16.0.0, SVG Export Plug-In . SVG Version: 6.00 Build 0)  -->
<!DOCTYPE svg PUBLIC "-//W3C//DTD SVG 1.1//EN" "http://www.w3.org/Graphics/SVG/1.1/DTD/svg11.dtd">
<svg version="1.1" id="Layer_1" xmlns="http://www.w3.org/2000/svg" xmlns:xlink="http://www.w3.org/1999/xlink" x="0px" y="0px"
	 width="100px" height="100px" viewBox="0 0 100 100" enable-background="new 0 0 100 100" xml:space="preserve">
<g>
	<path d="M50.882,18.539c-17.921,0-32.5,14.579-32.5,32.5s14.579,32.5,32.5,32.5s32.5-14.579,32.5-32.5S68.803,18.539,50.882,18.539
		z M50.882,79.539c-15.715,0-28.5-12.785-28.5-28.5s12.785-28.5,28.5-28.5s28.5,12.785,28.5,28.5S66.597,79.539,50.882,79.539z"/>
	<circle cx="51.399" cy="68.08" r="3.345"/>
	<path d="M50.767,31.328c-3.067,0-6.022,1.3-8.32,3.66c-0.771,0.792-0.754,2.058,0.037,2.828c0.791,0.771,2.059,0.754,2.828-0.037
		c1.539-1.581,3.477-2.451,5.455-2.451c4.326,0,7.846,3.441,7.846,7.671c0,4.085-3.808,7.668-7.862,7.668
		c-1.104,0-2.25,0.896-2.25,2v7.214c0,1.104,0.896,2,2,2s2-0.896,2-2v-5.396c6-0.984,9.862-5.845,9.862-11.486
		C62.362,36.563,57.299,31.328,50.767,31.328z"/>
</g>
</svg>
