<?xml version="1.0" encoding="utf-8"?>
<!-- Generator: Adobe Illustrator 16.0.0, SVG Export Plug-In . SVG Version: 6.00 Build 0)  -->
<!DOCTYPE svg PUBLIC "-//W3C//DTD SVG 1.1//EN" "http://www.w3.org/Graphics/SVG/1.1/DTD/svg11.dtd">
<svg version="1.1" id="Layer_1" xmlns="http://www.w3.org/2000/svg" xmlns:xlink="http://www.w3.org/1999/xlink" x="0px" y="0px"
	 width="100px" height="100px" viewBox="0 0 100 100" enable-background="new 0 0 100 100" xml:space="preserve">
<g>
	<circle cx="49.075" cy="72.92" r="4.435"/>
	<path d="M63.321,39.65c0-8.183-6.702-14.84-15.095-14.84c-3.9,0-7.453,1.596-10.391,4.614c-0.771,0.791-0.722,2.058,0.07,2.828
		c0.791,0.77,2.071,0.754,2.844-0.039c1.511-1.553,4.062-3.403,7.594-3.403c6.082,0,11.224,4.964,11.224,10.84
		c0,6.077-4.892,10.838-10.819,10.838c-1.104,0-2.248,0.896-2.248,2v9.393c0,1.104,0.896,2,2,2s2-0.896,2-2v-7.532
		C58.5,53.354,63.321,47.142,63.321,39.65z"/>
</g>
</svg>
