<?xml version="1.0" encoding="utf-8"?>
<!-- Generator: Adobe Illustrator 16.0.0, SVG Export Plug-In . SVG Version: 6.00 Build 0)  -->
<!DOCTYPE svg PUBLIC "-//W3C//DTD SVG 1.1//EN" "http://www.w3.org/Graphics/SVG/1.1/DTD/svg11.dtd">
<svg version="1.1" id="Layer_1" xmlns="http://www.w3.org/2000/svg" xmlns:xlink="http://www.w3.org/1999/xlink" x="0px" y="0px"
	 width="100px" height="100px" viewBox="0 0 100 100" enable-background="new 0 0 100 100" xml:space="preserve">
<g>
	<circle cx="51.902" cy="29.107" r="4.434"/>
	<path d="M37.171,62.467c0,8.095,7.092,14.934,15.338,14.934c4.019,0,7.697-1.532,10.519-4.432c0.771-0.791,0.784-2.058-0.008-2.828
		c-0.791-0.77-2.041-0.754-2.812,0.039c-2.08,2.137-4.625,3.221-7.581,3.221c-6.078,0-11.209-5.007-11.209-10.934
		c0-6.026,4.498-10.929,10.331-10.929c1.104,0,1.752-0.896,1.752-2v-8.657c0-1.104-0.896-2-2-2s-2,0.896-2,2v6.797
		C42.5,48.68,37.171,54.93,37.171,62.467z"/>
</g>
</svg>
