<?xml version="1.0" encoding="utf-8"?>
<!-- Generator: Adobe Illustrator 16.0.0, SVG Export Plug-In . SVG Version: 6.00 Build 0)  -->
<!DOCTYPE svg PUBLIC "-//W3C//DTD SVG 1.1//EN" "http://www.w3.org/Graphics/SVG/1.1/DTD/svg11.dtd">
<svg version="1.1" id="Layer_1" xmlns="http://www.w3.org/2000/svg" xmlns:xlink="http://www.w3.org/1999/xlink" x="0px" y="0px"
	 width="100px" height="100px" viewBox="0 0 100 100" enable-background="new 0 0 100 100" xml:space="preserve">
<g>
	<path d="M51.221,40.367c-5.521,0-10.014,4.492-10.014,10.014c0,5.522,4.492,10.015,10.014,10.015s10.014-4.492,10.014-10.015
		C61.234,44.859,56.742,40.367,51.221,40.367z M51.221,56.396c-3.316,0-6.014-2.698-6.014-6.015s2.698-6.014,6.014-6.014
		c3.316,0,6.014,2.697,6.014,6.014S54.537,56.396,51.221,56.396z"/>
	<path d="M87.5,29.526c0-4.985-4.041-9.026-9.025-9.026H22.525c-4.984,0-9.025,4.041-9.025,9.026v40.947
		c0,4.985,4.041,9.026,9.025,9.026h55.949c4.984,0,9.025-4.041,9.025-9.026V29.526z M83.5,70.474c0,2.776-2.25,5.026-5.025,5.026
		H22.525c-2.775,0-5.025-2.25-5.025-5.026V29.526c0-2.776,2.25-5.026,5.025-5.026h55.949c2.775,0,5.025,2.25,5.025,5.026V70.474z"/>
</g>
</svg>
