<?xml version="1.0" encoding="utf-8"?>
<!-- Generator: Adobe Illustrator 16.0.0, SVG Export Plug-In . SVG Version: 6.00 Build 0)  -->
<!DOCTYPE svg PUBLIC "-//W3C//DTD SVG 1.1//EN" "http://www.w3.org/Graphics/SVG/1.1/DTD/svg11.dtd">
<svg version="1.1" id="Layer_1" xmlns="http://www.w3.org/2000/svg" xmlns:xlink="http://www.w3.org/1999/xlink" x="0px" y="0px"
	 width="100px" height="100px" viewBox="0 0 100 100" enable-background="new 0 0 100 100" xml:space="preserve">
<g>
	<path d="M24.377,85H55c1.104,0,2-0.896,2-2s-0.896-2-2-2H26.436c0.9-15,11.851-27.263,15.016-30.395
		c2.327,1.162,4.941,1.803,7.714,1.803c2.695,0,5.24-0.651,7.518-1.753c1.57,1.471,5.983,5.886,9.654,12.305
		c0.369,0.646,1.044,1.004,1.738,1.004c0.336,0,0.678-0.087,0.99-0.267c0.959-0.548,1.293-1.771,0.744-2.729
		c-3.49-6.104-7.523-10.456-9.646-12.534c3.872-3.184,6.347-8.009,6.347-13.402c0-9.565-7.781-17.347-17.346-17.347
		S31.82,25.467,31.82,35.032c0,5.323,2.415,10.089,6.201,13.274c-4.329,4.39-15.645,17.557-15.645,34.635
		C22.377,84.045,23.272,85,24.377,85z M35.82,35.032c0-7.359,5.987-13.347,13.346-13.347c7.359,0,13.346,5.987,13.346,13.347
		s-5.986,13.347-13.346,13.347C41.807,48.378,35.82,42.391,35.82,35.032z"/>
	<path d="M63.914,66.207c-0.78-0.781-2.048-0.781-2.828,0c-0.781,0.781-0.781,2.048,0,2.828l5.657,5.658l-6.364,6.363
		c-0.781,0.781-0.781,2.048,0,2.828c0.391,0.391,0.902,0.586,1.414,0.586s1.023-0.195,1.414-0.586l6.364-6.363l6.364,6.363
		c0.391,0.391,0.902,0.586,1.414,0.586s1.023-0.195,1.414-0.586c0.781-0.78,0.781-2.047,0-2.828l-6.364-6.363l6.364-6.365
		c0.781-0.78,0.781-2.047,0-2.828c-0.78-0.781-2.048-0.781-2.828,0l-6.364,6.365L63.914,66.207z"/>
</g>
</svg>
