<?xml version="1.0" encoding="utf-8"?>
<!-- Generator: Adobe Illustrator 16.0.0, SVG Export Plug-In . SVG Version: 6.00 Build 0)  -->
<!DOCTYPE svg PUBLIC "-//W3C//DTD SVG 1.1//EN" "http://www.w3.org/Graphics/SVG/1.1/DTD/svg11.dtd">
<svg version="1.1" id="Layer_1" xmlns="http://www.w3.org/2000/svg" xmlns:xlink="http://www.w3.org/1999/xlink" x="0px" y="0px"
	 width="100px" height="100px" viewBox="0 0 100 100" enable-background="new 0 0 100 100" xml:space="preserve">
<g>
	<path d="M28.793,55.251l17.839,8.966c0.278,0.14,0.336,0.213,0.648,0.213c2.506,0,4.22-2.004,4.22-4.562V54.97
		c1,0.096,0.58,0.193,0.762,0.284L70.37,64.22c0.277,0.138,0.396,0.21,0.705,0.21c2.544,0,4.425-2.047,4.425-4.562V40.656
		c0-2.48-1.821-4.499-4.367-4.499l-0.088,0.005c-0.281,0.012-0.494,0.083-0.745,0.209l-18.155,8.955
		c-0.15,0.073,0.355,0.156-0.645,0.234v-4.904c0-2.559-1.713-4.562-4.22-4.562c-0.311,0-0.493,0.072-0.771,0.212l-17.8,8.956
		c-3.01,1.464-3.611,3.527-3.611,5C25.098,52.362,26.364,54.042,28.793,55.251z M54.192,48.915l17.202-8.714
		c0.214,0.077,0.105,0.247,0.105,0.455v19.211c0,0.195,0.122,0.378-0.057,0.479L54.17,51.674c-1.453-0.724-1.391-1.242-1.391-1.412
		C52.779,49.638,53.771,49.119,54.192,48.915z M30.542,48.849l17.021-8.659c0.143,0.12-0.062,0.326-0.062,0.467v19.211
		c0,0.141,0.205,0.347,0.063,0.466l-17.105-8.659c-1.454-0.724-1.391-1.242-1.391-1.412C29.066,49.78,29.597,49.309,30.542,48.849z"
		/>
	<path d="M87.5,29.526c0-4.985-4.041-9.026-9.025-9.026H22.525c-4.984,0-9.025,4.041-9.025,9.026v40.947
		c0,4.985,4.041,9.026,9.025,9.026h55.949c4.984,0,9.025-4.041,9.025-9.026V29.526z M83.5,70.474c0,2.776-2.25,5.026-5.025,5.026
		H22.525c-2.775,0-5.025-2.25-5.025-5.026V29.526c0-2.776,2.25-5.026,5.025-5.026h55.949c2.775,0,5.025,2.25,5.025,5.026V70.474z"/>
</g>
</svg>
