<?xml version="1.0" encoding="utf-8"?>
<!-- Generator: Adobe Illustrator 16.0.0, SVG Export Plug-In . SVG Version: 6.00 Build 0)  -->
<!DOCTYPE svg PUBLIC "-//W3C//DTD SVG 1.1//EN" "http://www.w3.org/Graphics/SVG/1.1/DTD/svg11.dtd">
<svg version="1.1" id="Layer_1" xmlns="http://www.w3.org/2000/svg" xmlns:xlink="http://www.w3.org/1999/xlink" x="0px" y="0px"
	 width="100px" height="100px" viewBox="0 0 100 100" enable-background="new 0 0 100 100" xml:space="preserve">
<g>
	<path d="M57.592,37.007c-0.78-0.781-2.048-0.781-2.828,0c-0.781,0.781-0.781,1.856,0,2.638l8.045,7.855H34c-1.104,0-2,0.896-2,2
		s0.896,2,2,2h28.561l-7.797,7.986c-0.781,0.78-0.781,2.143,0,2.924c0.391,0.391,0.902,0.633,1.414,0.633s1.023-0.171,1.414-0.562
		l11.336-11.322c0.375-0.375,0.586-0.878,0.586-1.408s-0.211-1.036-0.586-1.411L57.592,37.007z"/>
	<path d="M50.863,16.299c-18.448,0-33.457,15.009-33.457,33.457c0,18.449,15.009,33.458,33.457,33.458S84.32,68.205,84.32,49.756
		C84.32,31.308,69.312,16.299,50.863,16.299z M50.863,79.214c-16.243,0-29.457-13.215-29.457-29.458
		c0-16.242,13.214-29.457,29.457-29.457c16.242,0,29.457,13.215,29.457,29.457C80.32,65.999,67.105,79.214,50.863,79.214z"/>
</g>
</svg>
