<?xml version="1.0" encoding="utf-8"?>
<!-- Generator: Adobe Illustrator 16.0.0, SVG Export Plug-In . SVG Version: 6.00 Build 0)  -->
<!DOCTYPE svg PUBLIC "-//W3C//DTD SVG 1.1//EN" "http://www.w3.org/Graphics/SVG/1.1/DTD/svg11.dtd">
<svg version="1.1" id="Layer_1" xmlns="http://www.w3.org/2000/svg" xmlns:xlink="http://www.w3.org/1999/xlink" x="0px" y="0px"
	 width="100px" height="100px" viewBox="0 0 100 100" enable-background="new 0 0 100 100" xml:space="preserve">
<g>
	<path d="M59.928,49.044L44.696,32.239c-0.743-0.817-2.007-0.882-2.825-0.139c-0.818,0.741-0.88,2.006-0.139,2.824L55.77,50.412
		L40.283,64.449c-0.818,0.741-0.88,2.006-0.139,2.824c0.395,0.436,0.938,0.657,1.482,0.657c0.479,0,0.96-0.171,1.343-0.519
		l16.804-15.231c0.451-0.408,0.663-0.975,0.646-1.539C60.492,50.082,60.337,49.495,59.928,49.044z"/>
	<path d="M83.494,49.756c0-18.448-15.01-33.457-33.458-33.457c-18.449,0-33.458,15.009-33.458,33.457
		c0,18.449,15.009,33.458,33.458,33.458C68.484,83.214,83.494,68.205,83.494,49.756z M50.037,79.214
		c-16.243,0-29.458-13.215-29.458-29.458c0-16.242,13.215-29.457,29.458-29.457c16.243,0,29.458,13.215,29.458,29.457
		C79.494,65.999,66.279,79.214,50.037,79.214z"/>
</g>
</svg>
