<?xml version="1.0" encoding="utf-8"?>
<!-- Generator: Adobe Illustrator 16.0.0, SVG Export Plug-In . SVG Version: 6.00 Build 0)  -->
<!DOCTYPE svg PUBLIC "-//W3C//DTD SVG 1.1//EN" "http://www.w3.org/Graphics/SVG/1.1/DTD/svg11.dtd">
<svg version="1.1" id="Layer_1" xmlns="http://www.w3.org/2000/svg" xmlns:xlink="http://www.w3.org/1999/xlink" x="0px" y="0px"
	 width="100px" height="100px" viewBox="0 0 100 100" enable-background="new 0 0 100 100" xml:space="preserve">
<g>
	<path d="M18.847,62.928c0.009,0,0.945-0.137,2.38-0.137c2.891,0,8.291,0.561,12.087,4.303l0.053,0.064
		c0.04,0.049,0.082,0.095,0.126,0.139c5.495,5.494,4.231,14.453,4.218,14.543c-0.111,0.732,0.191,1.465,0.786,1.906
		c0.351,0.26,0.77,0.394,1.191,0.394c0.294,0,0.59-0.065,0.865-0.196l5.158-2.477c11.42-5.047,10.758-13.872,9.865-17.623
		c3.841-2.429,9.971-8.081,10.736-8.792c18.899-16.993,16.859-34.855,16.764-35.607c-0.057-0.443-0.261-0.855-0.578-1.169
		l-0.129-0.127c-0.312-0.309-0.717-0.506-1.152-0.562c-0.081-0.01-0.826-0.101-2.102-0.101c-5.516,0-19.822,1.643-33.484,16.841
		c-0.72,0.776-6.296,6.826-8.714,10.651c-0.939-0.227-2.201-0.437-3.66-0.437c-3.524,0-10.032,1.346-13.989,10.303l-2.523,5.237
		c-0.321,0.668-0.246,1.457,0.193,2.054C17.378,62.731,18.109,63.035,18.847,62.928z M70.584,44.472
		c-10.324-3.666-14.34-14.254-14.396-14.405c-0.008-0.022-0.021-0.041-0.03-0.062c0.96-0.73,1.911-1.403,2.851-2.015
		c1.725,3.447,5.893,10.124,13.627,13.726c-0.604,0.92-1.26,1.852-1.977,2.792C70.633,44.497,70.61,44.481,70.584,44.472z
		 M79.189,21.486c0.027,2.821-0.459,9.183-4.498,16.763c-7.025-3.129-10.803-9.428-12.221-12.304
		C69.841,22.041,76.108,21.465,79.189,21.486z M22.901,56.521c2.34-5.295,5.825-7.979,10.358-7.979c2.2,0,3.833,0.667,3.839,0.669
		c0.491,0.21,1.047,0.214,1.542,0.013c0.496-0.203,0.889-0.595,1.093-1.089c0.847-2.054,5.867-7.89,8.853-11.11
		c1.452-1.616,2.909-3.058,4.357-4.358c1.416,3.113,5.869,11.262,15.026,15.08c-1.3,1.446-2.74,2.9-4.355,4.352
		c-3.23,3-9.124,8.075-11.18,8.925c-0.496,0.204-0.889,0.6-1.09,1.097s-0.195,1.054,0.019,1.546
		c0.162,0.375,3.847,9.23-7.325,14.169l-2.188,1.05c-0.074-3.783-0.987-9.822-5.461-14.348l-0.057-0.068
		c-0.04-0.049-0.082-0.096-0.126-0.139c-4.567-4.567-10.764-5.453-14.401-5.533L22.901,56.521z"/>
</g>
</svg>
