<?xml version="1.0" encoding="utf-8"?>
<!-- Generator: Adobe Illustrator 16.0.0, SVG Export Plug-In . SVG Version: 6.00 Build 0)  -->
<!DOCTYPE svg PUBLIC "-//W3C//DTD SVG 1.1//EN" "http://www.w3.org/Graphics/SVG/1.1/DTD/svg11.dtd">
<svg version="1.1" id="Layer_1" xmlns="http://www.w3.org/2000/svg" xmlns:xlink="http://www.w3.org/1999/xlink" x="0px" y="0px"
	 width="100px" height="100px" viewBox="0 0 100 100" enable-background="new 0 0 100 100" xml:space="preserve">
<g>
	<path d="M18.107,51.509c0.141,0.864,0.827,1.537,1.693,1.66l25.406,3.603l3.604,25.407c0.123,0.866,0.796,1.553,1.66,1.693
		c0.107,0.017,0.215,0.025,0.321,0.025c0.748,0,1.446-0.421,1.789-1.107l30.174-60.504c0.383-0.769,0.232-1.696-0.374-2.305
		l-0.379-0.38c-0.607-0.611-1.539-0.765-2.309-0.378L19.189,49.398C18.406,49.789,17.968,50.645,18.107,51.509z M76.884,25.095
		l-25.015,50.16l-2.865-20.202c-0.062-0.429-0.26-0.826-0.566-1.133l-0.379-0.379c-0.307-0.307-0.704-0.505-1.133-0.566
		L26.725,50.11L76.884,25.095z"/>
</g>
</svg>
