<?xml version="1.0" encoding="utf-8"?>
<!-- Generator: Adobe Illustrator 16.0.0, SVG Export Plug-In . SVG Version: 6.00 Build 0)  -->
<!DOCTYPE svg PUBLIC "-//W3C//DTD SVG 1.1//EN" "http://www.w3.org/Graphics/SVG/1.1/DTD/svg11.dtd">
<svg version="1.1" id="Layer_1" xmlns="http://www.w3.org/2000/svg" xmlns:xlink="http://www.w3.org/1999/xlink" x="0px" y="0px"
	 width="100px" height="100px" viewBox="0 0 100 100" enable-background="new 0 0 100 100" xml:space="preserve">
<g>
	<path d="M50.666,64.507c7.479,0,13.563-6.084,13.563-13.562c0-7.479-6.085-13.564-13.563-13.564
		c-7.479,0-13.563,6.085-13.563,13.564C37.103,58.423,43.187,64.507,50.666,64.507z M50.666,41.38c5.273,0,9.563,4.291,9.563,9.564
		c0,5.272-4.29,9.562-9.563,9.562s-9.563-4.29-9.563-9.562C41.103,45.67,45.393,41.38,50.666,41.38z"/>
	<path d="M21.349,59h5.013c0.489,2,1.123,2.938,1.894,4.344l-3.566,3.537c-1.627,1.625-1.628,4.259,0,5.888l4.613,4.606
		c0.789,0.787,1.837,1.217,2.952,1.217c1.115,0,2.164-0.436,2.95-1.223l3.701-3.702c1.349,0.703,2.712,1.264,4.115,1.695L43,80.766
		C43,82.989,45.076,85,47.442,85h6.523C56.229,85,58,83.047,58,80.706v-5.359c1.709-0.47,3.006-1.081,4.312-1.827l3.87,3.848
		c0.789,0.787,1.839,1.221,2.957,1.221s2.168-0.434,2.955-1.221l4.621-4.613c1.626-1.629,1.627-4.277,0.002-5.902l-3.748-3.75
		l-0.09-0.06C73.576,61.728,74.156,60,74.611,59h5.447C82.306,59,84,57.047,84,54.613V48.09C84,45.69,82.306,44,80.059,44H74.77
		c-0.445-2-1.028-3.005-1.744-4.395l3.694-3.724c1.626-1.627,1.626-4.29-0.001-5.918l-4.613-4.62
		c-0.788-0.789-1.836-1.226-2.951-1.226c-1.113,0-2.162,0.432-2.951,1.22l-3.561,3.56c-1.449-0.784-3.016-1.443-4.636-1.948
		L58,22.057C58,19.71,56.266,18,53.966,18h-6.523C45.034,18,43,19.766,43,21.997v4.927c-1.29,0.428-2.9,1.034-4.435,1.814
		l-3.383-3.401c-0.788-0.789-1.834-1.222-2.945-1.222c-1.11,0-2.157,0.434-2.947,1.223l-4.607,4.612
		c-1.625,1.627-1.624,4.275,0.003,5.903l3.392,3.45C27.252,40.775,26.62,42,26.15,44h-4.801C18.991,44,17,45.808,17,48.09v6.523
		C17,56.887,19.032,59,21.349,59z M21.349,48h6.394c0.959,0,1.783-0.74,1.964-1.682c0.493-2.56,1.298-4.228,2.611-6.355
		c0.509-0.824,0.354-1.909-0.367-2.555l-4.436-4.376c-0.068-0.069-0.069-0.183-0.001-0.251l4.605-4.613
		c0.025-0.026,0.213-0.023,0.231-0.006l3.765,3.786l0.508,0.601c0.639,0.757,1.737,0.933,2.579,0.411
		c2.127-1.313,4.894-2.219,6.354-2.642C46.412,30.07,47,29.287,47,28.396V22.07c0.071-0.077,0.26-0.189,0.442-0.189l6.533-0.024
		C53.982,21.868,54,21.913,54,21.997v4.884c0,0.038,0.001,0.075,0.003,0.112l0.091,1.607c0.049,0.874,0.66,1.615,1.51,1.828
		c2.268,0.568,4.449,1.494,6.309,2.676c0.806,0.511,1.857,0.384,2.516-0.303l4.604-4.635c0.066-0.068,0.178-0.069,0.246,0
		l4.612,4.611c0.068,0.068,0.068,0.18,0.001,0.248l-3.823,3.823l-0.925,0.898c-0.665,0.646-0.799,1.664-0.324,2.46
		c1.139,1.906,1.967,4.025,2.462,6.182C71.488,47.295,72.297,48,73.229,48h6.743C79.986,48,80,47.998,80,48.09v6.523
		C80,54.735,79.977,55,79.954,55h-6.849c-0.915,0-1.713,0.562-1.938,1.448c-0.511,2.014-1.315,3.909-2.392,5.696
		c-0.423,0.701-0.375,1.576,0.123,2.229l0.971,1.268c0.054,0.071,0.112,0.135,0.176,0.197l3.843,3.844
		c0.067,0.067,0.065,0.177-0.001,0.244l-4.62,4.612c-0.067,0.067-0.187,0.071-0.261-0.005l-3.892-3.867l-1.134-1.088
		c-0.656-0.632-1.656-0.738-2.432-0.262c-1.959,1.203-3.293,1.967-5.93,2.48C54.679,71.979,54,72.803,54,73.76v6.946
		C54,80.818,53.969,81,53.984,81l0,0c-0.002,0-0.008,0-0.019,0h-6.523c-0.179,0-0.411-0.216-0.442-0.234l-0.001-4.777l0.08-2.048
		c0.038-0.959-0.611-1.815-1.545-2.032c-2.051-0.479-3.991-1.274-5.93-2.426c-0.317-0.189-0.67-0.283-1.021-0.283
		c-0.504,0-1.004,0.189-1.387,0.558l-4.821,4.782c-0.067,0.067-0.179,0.064-0.245-0.001l-4.611-4.612
		c-0.068-0.067-0.069-0.178,0-0.246l4.666-4.674c0.656-0.662,0.768-1.689,0.268-2.478c-1.205-1.901-2.096-3.906-2.646-6.082
		C29.58,55.559,28.781,55,27.866,55c-0.002,0-0.005,0-0.007,0l-6.511-0.057c-0.114,0-0.326-0.203-0.349-0.301l-0.002-6.456
		C21.023,48.104,21.209,48,21.349,48z"/>
</g>
</svg>
