<?xml version="1.0" encoding="utf-8"?>
<!-- Generator: Adobe Illustrator 16.0.0, SVG Export Plug-In . SVG Version: 6.00 Build 0)  -->
<!DOCTYPE svg PUBLIC "-//W3C//DTD SVG 1.1//EN" "http://www.w3.org/Graphics/SVG/1.1/DTD/svg11.dtd">
<svg version="1.1" id="Layer_1" xmlns="http://www.w3.org/2000/svg" xmlns:xlink="http://www.w3.org/1999/xlink" x="0px" y="0px"
	 width="100px" height="100px" viewBox="0 0 100 100" enable-background="new 0 0 100 100" xml:space="preserve">
<g>
	<path d="M28,58.381c-1.381,0-2.5,1.119-2.5,2.5v21c0,1.381,1.119,2.5,2.5,2.5s2.5-1.119,2.5-2.5v-21
		C30.5,59.5,29.381,58.381,28,58.381z"/>
	<path d="M43,43.381c-1.381,0-2.5,1.119-2.5,2.5v36c0,1.381,1.119,2.5,2.5,2.5s2.5-1.119,2.5-2.5v-36
		C45.5,44.5,44.381,43.381,43,43.381z"/>
	<path d="M57,27.381c-1.381,0-2.5,1.119-2.5,2.5v52c0,1.381,1.119,2.5,2.5,2.5s2.5-1.119,2.5-2.5v-52
		C59.5,28.5,58.381,27.381,57,27.381z"/>
	<path d="M72,16.381c-1.381,0-2.5,1.119-2.5,2.5v63c0,1.381,1.119,2.5,2.5,2.5s2.5-1.119,2.5-2.5v-63
		C74.5,17.5,73.381,16.381,72,16.381z"/>
</g>
</svg>
