<?xml version="1.0" encoding="utf-8"?>
<!-- Generator: Adobe Illustrator 16.0.0, SVG Export Plug-In . SVG Version: 6.00 Build 0)  -->
<!DOCTYPE svg PUBLIC "-//W3C//DTD SVG 1.1//EN" "http://www.w3.org/Graphics/SVG/1.1/DTD/svg11.dtd">
<svg version="1.1" id="Layer_1" xmlns="http://www.w3.org/2000/svg" xmlns:xlink="http://www.w3.org/1999/xlink" x="0px" y="0px"
	 width="100px" height="100px" viewBox="0 0 100 100" enable-background="new 0 0 100 100" xml:space="preserve">
<g>
	<circle cx="50.58" cy="72.607" r="7.442"/>
	<path d="M50.348,52.904c-6.839,0-13.212,3.068-17.485,8.419c-0.689,0.863-0.549,2.121,0.314,2.811
		c0.368,0.295,0.809,0.438,1.247,0.438c0.587,0,1.169-0.258,1.563-0.752c3.511-4.395,8.744-6.915,14.36-6.915
		c5.599,0,10.822,2.506,14.33,6.875c0.692,0.862,1.951,0.999,2.812,0.308c0.861-0.691,0.999-1.95,0.308-2.812
		C63.525,55.955,57.165,52.904,50.348,52.904z"/>
	<path d="M49.96,36.5c0,0-0.003,0-0.004,0c-10.815,0-20.896,5.271-27.653,13.731c-0.689,0.863-0.549,2.438,0.314,3.128
		c0.368,0.295,0.81,0.484,1.247,0.484c0.587,0,1.169-0.646,1.563-1.14C31.423,45.198,40.364,40.5,49.957,40.5h0.003
		c9.563,0,18.486,4.639,24.479,12.104c0.692,0.862,1.951,1.262,2.812,0.568c0.861-0.691,0.999-2.203,0.308-3.064
		C70.802,41.691,60.743,36.5,49.96,36.5z"/>
	<path d="M50.272,22.4c-14.831,0.004-28.657,6.662-37.932,18.267c-0.689,0.863-0.549,2.122,0.313,2.812
		c0.369,0.295,0.81,0.438,1.248,0.438c0.587,0,1.168-0.257,1.563-0.751c8.512-10.65,21.198-16.761,34.808-16.765
		c13.569,0,26.23,6.075,34.737,16.668c0.693,0.862,1.95,0.998,2.812,0.308c0.861-0.691,0.999-1.95,0.308-2.812
		C78.859,29.021,65.062,22.4,50.272,22.4z"/>
</g>
</svg>
