<?xml version="1.0" encoding="utf-8"?>
<!-- Generator: Adobe Illustrator 16.0.0, SVG Export Plug-In . SVG Version: 6.00 Build 0)  -->
<!DOCTYPE svg PUBLIC "-//W3C//DTD SVG 1.1//EN" "http://www.w3.org/Graphics/SVG/1.1/DTD/svg11.dtd">
<svg version="1.1" id="Layer_1" xmlns="http://www.w3.org/2000/svg" xmlns:xlink="http://www.w3.org/1999/xlink" x="0px" y="0px"
	 width="100px" height="100px" viewBox="0 0 100 100" enable-background="new 0 0 100 100" xml:space="preserve">
<g>
	<path d="M82,49.5c0-1.104-0.896-2-2-2H41.588l8.511-8.32c0.781-0.781,0.781-1.952,0-2.733c-0.78-0.781-2.047-0.734-2.828,0.047
		L34.457,49.332c-0.375,0.375-0.586,0.896-0.586,1.426s0.211,1.045,0.586,1.42l12.815,12.815c0.391,0.391,0.902,0.587,1.414,0.587
		s1.024-0.194,1.415-0.585c0.781-0.781,0.781-2.237,0-3.018L39.812,51.5H80C81.104,51.5,82,50.604,82,49.5z"/>
	<path d="M62.5,75.781v-11.9c0-1.104-0.896-2-2-2s-2,0.896-2,2v11.9c0,2.691-2.036,3.719-4.541,3.719H27.958
		c-2.388,0-5.458-0.902-5.458-3.719v-49.74c0-2.7,2.863-5.541,5.458-5.541h26.001c2.592,0,4.541,2.889,4.541,5.541v11.84
		c0,1.104,0.896,2,2,2s2-0.896,2-2v-11.84c0-4.88-3.725-9.541-8.541-9.541H27.958c-4.772,0-9.458,4.661-9.458,9.541v49.74
		c0,4.617,4.351,7.719,9.458,7.719h26.001C59.113,83.5,62.5,80.398,62.5,75.781z"/>
</g>
</svg>
