<?xml version="1.0" encoding="utf-8"?>
<!-- Generator: Adobe Illustrator 16.0.0, SVG Export Plug-In . SVG Version: 6.00 Build 0)  -->
<!DOCTYPE svg PUBLIC "-//W3C//DTD SVG 1.1//EN" "http://www.w3.org/Graphics/SVG/1.1/DTD/svg11.dtd">
<svg version="1.1" id="Layer_1" xmlns="http://www.w3.org/2000/svg" xmlns:xlink="http://www.w3.org/1999/xlink" x="0px" y="0px"
	 width="100px" height="100px" viewBox="0 0 100 100" enable-background="new 0 0 100 100" xml:space="preserve">
<g>
	<path d="M21,51.5h39.899L50.61,61.978c-0.781,0.78-0.781,2.142-0.001,2.923c0.391,0.391,0.902,0.634,1.415,0.634
		c0.512,0,1.023-0.171,1.414-0.562l12.815-12.801c0.375-0.375,0.586-0.878,0.586-1.408s-0.211-1.036-0.586-1.411l-0.608-0.607
		c-0.138-0.2-0.312-0.374-0.513-0.511L53.439,36.542c-0.781-0.781-2.048-0.781-2.828,0c-0.781,0.781-0.781,1.856,0,2.638l8.512,8.32
		H21c-1.104,0-2,0.896-2,2S19.896,51.5,21,51.5z"/>
	<path d="M81.5,75.781v-49.74c0-4.794-3.908-9.541-8.747-9.541H46.752c-4.744,0-9.252,4.576-9.252,9.541v11.84c0,1.104,0.896,2,2,2
		s2-0.896,2-2v-11.84c0-2.749,2.721-5.541,5.252-5.541h26.001c2.647,0,4.747,2.937,4.747,5.541v49.74
		c0,2.663-2.203,3.719-4.747,3.719H46.752c-2.365,0-5.252-0.887-5.252-3.719v-11.9c0-1.104-0.896-2-2-2s-2,0.896-2,2v11.9
		c0,4.693,4.181,7.719,9.252,7.719h26.001C77.938,83.5,81.5,80.323,81.5,75.781z"/>
</g>
</svg>
