<?xml version="1.0" encoding="utf-8"?>
<!-- Generator: Adobe Illustrator 16.0.0, SVG Export Plug-In . SVG Version: 6.00 Build 0)  -->
<!DOCTYPE svg PUBLIC "-//W3C//DTD SVG 1.1//EN" "http://www.w3.org/Graphics/SVG/1.1/DTD/svg11.dtd">
<svg version="1.1" id="Layer_1" xmlns="http://www.w3.org/2000/svg" xmlns:xlink="http://www.w3.org/1999/xlink" x="0px" y="0px"
	 width="100px" height="100px" viewBox="0 0 100 100" enable-background="new 0 0 100 100" xml:space="preserve">
<g>
	<path d="M17.99,83.637c0.391,0.391,0.902,0.586,1.414,0.586s1.023-0.195,1.414-0.586l15.03-15.221
		c0.567,0.175,1.159,0.084,1.766,0.084h9.744c2.042,1,11.351,8.504,19.323,15.493c0.372,0.326,0.843,0.591,1.318,0.591
		c0.28,0,0.312-0.011,0.575-0.131c0.716-0.323,0.925-0.988,0.925-1.773V34.455l13.854-13.604c0.781-0.781,0.906-2.047,0.125-2.828
		s-2.234-0.781-3.016,0L69.5,28.799v-9.361c0-0.792-0.218-1.51-0.942-1.83c-0.725-0.319-1.446-0.372-2.03,0.162
		C58.576,25.023,49.411,33.5,47.344,33.5h-9.729c-3.709,0-7.114,3.081-7.114,6.528V62.09c0,1.556,0.824,3.027,1.757,4.202
		L17.865,80.809C17.084,81.59,17.209,82.855,17.99,83.637z M65.5,78.291C50.5,64.88,48.281,64.5,47.542,64.5h-7.968L65.5,38.455
		V78.291z M34.5,62.09V40.028c0-1.344,1.829-2.528,3.114-2.528h9.928c0.744,0,2.958,0.38,17.958-13.556v8.854L34.891,63.408
		C34.652,62.998,34.5,62.545,34.5,62.09z"/>
</g>
</svg>
