<?xml version="1.0" encoding="utf-8"?>
<!-- Generator: Adobe Illustrator 16.0.0, SVG Export Plug-In . SVG Version: 6.00 Build 0)  -->
<!DOCTYPE svg PUBLIC "-//W3C//DTD SVG 1.1//EN" "http://www.w3.org/Graphics/SVG/1.1/DTD/svg11.dtd">
<svg version="1.1" id="Layer_1" xmlns="http://www.w3.org/2000/svg" xmlns:xlink="http://www.w3.org/1999/xlink" x="0px" y="0px"
	 width="100px" height="100px" viewBox="0 0 100 100" enable-background="new 0 0 100 100" xml:space="preserve">
<g>
	<path d="M62.5,44.501c0-3.867-3.135-7.001-7.002-7.001H43.502c-3.867,0-7.002,3.134-7.002,7.001v11.998
		c0,3.866,3.135,7.001,7.002,7.001h11.996c3.867,0,7.002-3.135,7.002-7.001V44.501z M58.5,56.499c0,1.657-1.344,3.001-3.002,3.001
		H43.502c-1.658,0-3.002-1.344-3.002-3.001V44.501c0-1.657,1.344-3.001,3.002-3.001h11.996c1.658,0,3.002,1.344,3.002,3.001V56.499z
		"/>
</g>
</svg>
