<?xml version="1.0" encoding="utf-8"?>
<!-- Generator: Adobe Illustrator 16.0.0, SVG Export Plug-In . SVG Version: 6.00 Build 0)  -->
<!DOCTYPE svg PUBLIC "-//W3C//DTD SVG 1.1//EN" "http://www.w3.org/Graphics/SVG/1.1/DTD/svg11.dtd">
<svg version="1.1" id="Layer_1" xmlns="http://www.w3.org/2000/svg" xmlns:xlink="http://www.w3.org/1999/xlink" x="0px" y="0px"
	 width="100px" height="100px" viewBox="0 0 100 100" enable-background="new 0 0 100 100" xml:space="preserve">
<g>
	<path d="M61.5,45.013c0-3.044-2.469-5.513-5.514-5.513h-8.973c-3.045,0-5.514,2.468-5.514,5.513v8.975
		c0,3.045,2.469,5.513,5.514,5.513h8.973c3.045,0,5.514-2.468,5.514-5.513V45.013z M57.5,53.987c0,0.835-0.678,1.513-1.514,1.513
		h-8.973c-0.836,0-1.514-0.678-1.514-1.513v-8.975c0-0.835,0.678-1.513,1.514-1.513h8.973c0.836,0,1.514,0.677,1.514,1.513V53.987z"
		/>
	<path d="M87.5,29.526c0-4.985-4.041-9.026-9.026-9.026H22.526c-4.985,0-9.026,4.041-9.026,9.026v40.947
		c0,4.985,4.041,9.026,9.026,9.026h55.947c4.985,0,9.026-4.041,9.026-9.026V29.526z M83.5,70.474c0,2.776-2.25,5.026-5.026,5.026
		H22.526c-2.776,0-5.026-2.25-5.026-5.026V29.526c0-2.776,2.25-5.026,5.026-5.026h55.947c2.776,0,5.026,2.25,5.026,5.026V70.474z"/>
</g>
</svg>
