<?xml version="1.0" encoding="utf-8"?>
<!-- Generator: Adobe Illustrator 16.0.0, SVG Export Plug-In . SVG Version: 6.00 Build 0)  -->
<!DOCTYPE svg PUBLIC "-//W3C//DTD SVG 1.1//EN" "http://www.w3.org/Graphics/SVG/1.1/DTD/svg11.dtd">
<svg version="1.1" id="Layer_1" xmlns="http://www.w3.org/2000/svg" xmlns:xlink="http://www.w3.org/1999/xlink" x="0px" y="0px"
	 width="100px" height="100px" viewBox="0 0 100 100" enable-background="new 0 0 100 100" xml:space="preserve">
<g>
	<path d="M85.5,45.289c0-5.188-3.721-9.789-8.908-9.789h-5.62c-0.744-10-9.411-18.616-19.984-18.616S31.747,25.5,31.003,35.5h-5.595
		c-5.188,0-9.908,4.602-9.908,9.789v30.184c0,5.188,4.721,9.027,9.908,9.027h51.184c5.188,0,8.908-3.84,8.908-9.027V45.289z
		 M34.5,39.5v41h-4v-41H34.5z M38.5,39.5h24v41h-24V39.5z M66.5,39.5h4v41h-4V39.5z M50.987,20.884
		c8.368,0,15.253,6.616,15.984,14.616H35.003C35.735,27.5,42.62,20.884,50.987,20.884z M19.5,75.473V45.289
		c0-2.982,2.926-5.789,5.908-5.789H26.5v41h-1.092C22.426,80.5,19.5,78.455,19.5,75.473z M81.5,75.473
		c0,2.982-1.926,5.027-4.908,5.027H74.5v-41h2.092c2.982,0,4.908,2.807,4.908,5.789V75.473z"/>
</g>
</svg>
