<?xml version="1.0" encoding="utf-8"?>
<!-- Generator: Adobe Illustrator 16.0.0, SVG Export Plug-In . SVG Version: 6.00 Build 0)  -->
<!DOCTYPE svg PUBLIC "-//W3C//DTD SVG 1.1//EN" "http://www.w3.org/Graphics/SVG/1.1/DTD/svg11.dtd">
<svg version="1.1" id="Layer_1" xmlns="http://www.w3.org/2000/svg" xmlns:xlink="http://www.w3.org/1999/xlink" x="0px" y="0px"
	 width="100px" height="100px" viewBox="0 0 100 100" enable-background="new 0 0 100 100" xml:space="preserve">
<g>
	<path d="M76.562,63.58c3.027-6.356,3.398-13.511,1.045-20.146C72.749,29.74,57.656,22.551,43.958,27.406
		c-6.63,2.352-11.894,7.114-14.892,13.324l-2.899-8.173c-0.37-1.04-1.51-1.585-2.554-1.216c-1.041,0.369-1.585,1.513-1.216,2.554
		l4.652,13.116c0.177,0.5,0.546,0.908,1.024,1.137c0.271,0.129,0.565,0.194,0.86,0.194c0.226,0,0.452-0.038,0.669-0.115
		l13.846-4.911c1.041-0.369,1.585-1.513,1.216-2.554c-0.37-1.04-1.51-1.585-2.554-1.216l-9.692,3.438
		c2.496-5.518,7.073-9.75,12.877-11.809c11.612-4.119,24.42,1.979,28.542,13.597c1.996,5.628,1.682,11.696-0.887,17.087
		s-7.082,9.459-12.711,11.456c-8.408,2.984-17.772,0.688-23.852-5.846c-0.752-0.811-2.02-0.853-2.826-0.102
		c-0.809,0.752-0.854,2.018-0.102,2.826c5.081,5.462,12.108,8.41,19.302,8.41c2.951,0,5.932-0.496,8.815-1.52
		C68.213,74.731,73.534,69.936,76.562,63.58z"/>
	<path d="M57,59.5c1.104,0,1.5-0.515,1.5-1.619v-18c0-1.104-0.896-2-2-2s-2,0.896-2,2V55.5H42c-1.104,0-2,0.896-2,2s0.896,2,2,2H57z
		"/>
</g>
</svg>
