<?xml version="1.0" encoding="utf-8"?>
<!-- Generator: Adobe Illustrator 16.0.0, SVG Export Plug-In . SVG Version: 6.00 Build 0)  -->
<!DOCTYPE svg PUBLIC "-//W3C//DTD SVG 1.1//EN" "http://www.w3.org/Graphics/SVG/1.1/DTD/svg11.dtd">
<svg version="1.1" id="Layer_1" xmlns="http://www.w3.org/2000/svg" xmlns:xlink="http://www.w3.org/1999/xlink" x="0px" y="0px"
	 width="100px" height="100px" viewBox="0 0 100 100" enable-background="new 0 0 100 100" xml:space="preserve">
<g>
	<path d="M89,29.796C89,26.424,86.33,24,82.789,24H19.188C15.66,24,13,26.424,13,29.796v41.6C13,74.911,15.834,78,19.188,78h63.601
		C86.156,78,89,74.911,89,71.396V29.796z M85,71.396C85,72.673,83.926,74,82.789,74H19.188C18.043,74,17,72.696,17,71.396v-41.6
		C17,28.48,18.134,28,19.188,28h63.601C83.854,28,85,28.48,85,29.796V71.396z"/>
	<path d="M82,33c0-1.104-0.896-2-2-2H29c-1.104,0-2,0.896-2,2v36c0,1.104,0.896,2,2,2h51c1.104,0,2-0.896,2-2V33z M78,67H31V35h47
		V67z"/>
	<circle cx="21.944" cy="51.096" r="3.455"/>
</g>
</svg>
