<?xml version="1.0" encoding="utf-8"?>
<!-- Generator: Adobe Illustrator 16.0.0, SVG Export Plug-In . SVG Version: 6.00 Build 0)  -->
<!DOCTYPE svg PUBLIC "-//W3C//DTD SVG 1.1//EN" "http://www.w3.org/Graphics/SVG/1.1/DTD/svg11.dtd">
<svg version="1.1" id="Layer_1" xmlns="http://www.w3.org/2000/svg" xmlns:xlink="http://www.w3.org/1999/xlink" x="0px" y="0px"
	 width="100px" height="100px" viewBox="0 0 100 100" enable-background="new 0 0 100 100" xml:space="preserve">
<g>
	<path d="M84.728,24.5H36.828c-3.499,0-4.873,1.509-6.328,2.905c-0.294,0.283-0.613,0.685-0.982,1.01
		c-0.045,0.04-0.088,0.128-0.129,0.172L9.93,49.157c-0.721,0.761-0.731,1.962-0.024,2.737l19.459,21.298
		c0.07,0.076,0.146-0.04,0.227,0.024c2.194,1.756,3.463,2.284,7.237,2.284h47.899c4.35,0,6.772-2.659,6.772-7.184V33.141
		C91.5,28.432,88.873,24.5,84.728,24.5z M87.5,68.316c0,1.331,0.075,3.184-2.772,3.184H36.828c-2.675,0-3.106-0.101-4.616-1.307
		L14.113,50.485l18.119-19.083c0.387-0.344,0.725-0.833,1.037-1.134c1.281-1.229,1.668-1.767,3.559-1.767h47.899
		c2.248,0,2.772,2.589,2.772,4.641V68.316z"/>
	<path d="M35.525,43.076c-4.297,0-7.793,3.496-7.793,7.794c0,4.297,3.496,7.793,7.793,7.793s7.793-3.496,7.793-7.793
		C43.318,46.572,39.822,43.076,35.525,43.076z M35.525,54.663c-2.092,0-3.793-1.701-3.793-3.793s1.701-3.794,3.793-3.794
		s3.793,1.702,3.793,3.794S37.617,54.663,35.525,54.663z"/>
</g>
</svg>
