<?xml version="1.0" encoding="utf-8"?>
<!-- Generator: Adobe Illustrator 16.0.0, SVG Export Plug-In . SVG Version: 6.00 Build 0)  -->
<!DOCTYPE svg PUBLIC "-//W3C//DTD SVG 1.1//EN" "http://www.w3.org/Graphics/SVG/1.1/DTD/svg11.dtd">
<svg version="1.1" id="Layer_1" xmlns="http://www.w3.org/2000/svg" xmlns:xlink="http://www.w3.org/1999/xlink" x="0px" y="0px"
	 width="100px" height="100px" viewBox="0 0 100 100" enable-background="new 0 0 100 100" xml:space="preserve">
<g>
	<path d="M71.449,36.874c5.458,0,9.898-4.438,9.898-9.893c0-5.461-4.44-9.903-9.898-9.903s-9.898,4.442-9.898,9.903
		c0,0.729,0.085,1.438,0.235,2.123l-27.28,12.965c-1.586-1.081-3.5-1.716-5.561-1.716c-5.458,0-9.898,4.442-9.898,9.903
		c0,5.455,4.44,9.894,9.898,9.894c1.916,0,3.7-0.556,5.218-1.502l27.771,13.198c-0.244,0.858-0.383,1.761-0.383,2.697
		c0,5.455,4.44,9.894,9.898,9.894s9.898-4.438,9.898-9.894c0-5.46-4.44-9.902-9.898-9.902c-3.091,0-5.854,1.426-7.67,3.653
		L37.22,55.672c1.023-1.558,1.624-3.416,1.624-5.415c0-1.88-0.536-3.633-1.448-5.132l26.031-12.371
		C65.227,35.244,68.147,36.874,71.449,36.874z M71.449,68.642c3.252,0,5.898,2.647,5.898,5.902c0,3.25-2.646,5.894-5.898,5.894
		s-5.898-2.644-5.898-5.894C65.551,71.289,68.197,68.642,71.449,68.642z M23.047,50.257c0-3.255,2.646-5.903,5.898-5.903
		s5.898,2.648,5.898,5.903c0,3.25-2.646,5.894-5.898,5.894S23.047,53.507,23.047,50.257z M71.449,21.078
		c3.252,0,5.898,2.648,5.898,5.903c0,3.249-2.646,5.893-5.898,5.893s-5.898-2.644-5.898-5.893
		C65.551,23.727,68.197,21.078,71.449,21.078z"/>
</g>
</svg>
