<?xml version="1.0" encoding="utf-8"?>
<!-- Generator: Adobe Illustrator 16.0.0, SVG Export Plug-In . SVG Version: 6.00 Build 0)  -->
<!DOCTYPE svg PUBLIC "-//W3C//DTD SVG 1.1//EN" "http://www.w3.org/Graphics/SVG/1.1/DTD/svg11.dtd">
<svg version="1.1" id="Layer_1" xmlns="http://www.w3.org/2000/svg" xmlns:xlink="http://www.w3.org/1999/xlink" x="0px" y="0px"
	 width="100px" height="100px" viewBox="0 0 100 100" enable-background="new 0 0 100 100" xml:space="preserve">
<g>
	<path d="M77.523,31.758c-10.416,0-18.891,8.283-18.891,18.699c0,6.255,3.068,12.043,7.765,15.043H34.649
		c4.696-3,7.765-8.788,7.765-15.043c0-10.416-8.475-18.794-18.891-18.794S4.633,40.184,4.633,50.6
		c0,9.826,7.543,17.751,17.142,18.637C22.113,69.502,22.535,69.5,23,69.5h54c0.433,0,0.83,0.05,1.157-0.184
		c10.121-0.338,18.257-8.561,18.257-18.764C96.414,40.136,87.939,31.758,77.523,31.758z M8.633,50.647
		c0-8.21,6.68-14.89,14.891-14.89s14.891,6.68,14.891,14.89c0,8.211-6.68,14.892-14.891,14.892S8.633,58.858,8.633,50.647z
		 M77.523,65.539c-8.211,0-14.891-6.681-14.891-14.892c0-8.21,6.68-14.89,14.891-14.89s14.891,6.68,14.891,14.89
		C92.414,58.858,85.734,65.539,77.523,65.539z"/>
</g>
</svg>
