<?xml version="1.0" encoding="utf-8"?>
<!-- Generator: Adobe Illustrator 16.0.0, SVG Export Plug-In . SVG Version: 6.00 Build 0)  -->
<!DOCTYPE svg PUBLIC "-//W3C//DTD SVG 1.1//EN" "http://www.w3.org/Graphics/SVG/1.1/DTD/svg11.dtd">
<svg version="1.1" id="Layer_1" xmlns="http://www.w3.org/2000/svg" xmlns:xlink="http://www.w3.org/1999/xlink" x="0px" y="0px"
	 width="100px" height="100px" viewBox="0 0 100 100" enable-background="new 0 0 100 100" xml:space="preserve">
<g>
	<path d="M49.705,82.394c0.35,0.3,0.798,0.487,1.295,0.487c0.506,0,0.963-0.194,1.316-0.505
		c16.373-0.833,29.541-14.017,30.352-30.396c0.209-0.315,0.332-0.693,0.332-1.1c0-0.387-0.115-0.745-0.305-1.05
		c-0.294-17.416-14.543-31.496-32.027-31.496c-17.667,0-32.041,14.374-32.041,32.042C18.627,67.722,32.482,81.881,49.705,82.394z
		 M49,22.389v17.492c0,1.104,0.896,2,2,2s2-0.896,2-2V22.439C66.883,23.589,77.929,35,78.668,49H62c-1.104,0-2,0.896-2,2
		s0.896,2,2,2h16.592C77.389,66,66.547,77.191,53,78.313V61.881c0-1.104-0.896-2-2-2s-2,0.896-2,2v16.483
		C35.145,77.547,23.967,67,22.745,53H40c1.104,0,2-0.896,2-2s-0.896-2-2-2H22.668C23.419,35,34.807,23.226,49,22.389z"/>
</g>
</svg>
