<?xml version="1.0" encoding="utf-8"?>
<!-- Generator: Adobe Illustrator 16.0.0, SVG Export Plug-In . SVG Version: 6.00 Build 0)  -->
<!DOCTYPE svg PUBLIC "-//W3C//DTD SVG 1.1//EN" "http://www.w3.org/Graphics/SVG/1.1/DTD/svg11.dtd">
<svg version="1.1" id="Layer_1" xmlns="http://www.w3.org/2000/svg" xmlns:xlink="http://www.w3.org/1999/xlink" x="0px" y="0px"
	 width="100px" height="100px" viewBox="0 0 100 100" enable-background="new 0 0 100 100" xml:space="preserve">
<g>
	<path d="M24,30.5h54c1.104,0,2-0.896,2-2s-0.896-2-2-2H24c-1.104,0-2,0.896-2,2S22.896,30.5,24,30.5z"/>
	<path d="M24,44.5h54c1.104,0,2-0.896,2-2s-0.896-2-2-2H24c-1.104,0-2,0.896-2,2S22.896,44.5,24,44.5z"/>
	<path d="M24,59.5h54c1.104,0,2-0.896,2-2s-0.896-2-2-2H24c-1.104,0-2,0.896-2,2S22.896,59.5,24,59.5z"/>
	<path d="M24,73.5h32c1.104,0,2-0.896,2-2s-0.896-2-2-2H24c-1.104,0-2,0.896-2,2S22.896,73.5,24,73.5z"/>
</g>
</svg>
