<?xml version="1.0" encoding="utf-8"?>
<!-- Generator: Adobe Illustrator 16.0.0, SVG Export Plug-In . SVG Version: 6.00 Build 0)  -->
<!DOCTYPE svg PUBLIC "-//W3C//DTD SVG 1.1//EN" "http://www.w3.org/Graphics/SVG/1.1/DTD/svg11.dtd">
<svg version="1.1" id="Layer_1" xmlns="http://www.w3.org/2000/svg" xmlns:xlink="http://www.w3.org/1999/xlink" x="0px" y="0px"
	 width="100px" height="100px" viewBox="0 0 100 100" enable-background="new 0 0 100 100" xml:space="preserve">
<g>
	<path d="M36.289,84.531c0.332,0.213,0.707,0.316,1.079,0.316c0.575,0,1.144-0.248,1.536-0.718l31.715-37.967
		c0.498-0.596,0.605-1.367,0.276-2.07C70.566,43.39,69.86,43,69.084,43H56.457l11.812-23.781c0.444-0.893,0.164-2.005-0.657-2.57
		c-0.824-0.565-1.935-0.453-2.607,0.282L31.442,53.537c-0.536,0.585-0.676,1.486-0.356,2.212C31.405,56.476,32.124,57,32.917,57
		h14.635L35.564,82.046C35.13,82.955,35.44,83.986,36.289,84.531z M52.527,55.742c0.296-0.619,0.253-1.288-0.113-1.868
		C52.048,53.292,51.409,53,50.723,53H37.464L58.36,30.143l-6.924,13.876c-0.309,0.62-0.275,1.4,0.09,1.989
		c0.364,0.589,1.008,0.992,1.7,0.992h11.581L46.02,69.432L52.527,55.742z"/>
</g>
</svg>
