<?xml version="1.0" encoding="utf-8"?>
<!-- Generator: Adobe Illustrator 16.0.0, SVG Export Plug-In . SVG Version: 6.00 Build 0)  -->
<!DOCTYPE svg PUBLIC "-//W3C//DTD SVG 1.1//EN" "http://www.w3.org/Graphics/SVG/1.1/DTD/svg11.dtd">
<svg version="1.1" id="Layer_1" xmlns="http://www.w3.org/2000/svg" xmlns:xlink="http://www.w3.org/1999/xlink" x="0px" y="0px"
	 width="100px" height="100px" viewBox="0 0 100 100" enable-background="new 0 0 100 100" xml:space="preserve">
<g>
	<path d="M39.5,75.881c1.104,0,2-0.896,2-2v-31c0-1.104-0.896-2-2-2s-2,0.896-2,2v31C37.5,74.985,38.396,75.881,39.5,75.881z"/>
	<path d="M50.5,75.881c1.104,0,2-0.896,2-2v-31c0-1.104-0.896-2-2-2s-2,0.896-2,2v31C48.5,74.985,49.396,75.881,50.5,75.881z"/>
	<path d="M61.5,75.881c1.104,0,2-0.896,2-2v-31c0-1.104-0.896-2-2-2s-2,0.896-2,2v31C59.5,74.985,60.396,75.881,61.5,75.881z"/>
	<path d="M32.72,83.5h36.839c3.492,0,5.941-2.464,5.941-5.83V36.5h4c3.033,0,5.5-2.468,5.5-5.5s-2.467-5.5-5.5-5.5h-12v-2.562
		c0-3.51-1.916-6.438-5.243-6.438H40.254c-3.241,0-5.754,2.701-5.754,6.438V25.5h-12c-3.033,0-5.5,2.468-5.5,5.5s2.467,5.5,5.5,5.5
		h3v41.17C25.5,80.979,29.14,83.5,32.72,83.5z M38.5,22.938c0-2.057,1.254-2.438,1.754-2.438h22.003
		c1.517,0,1.243,1.669,1.243,2.438V25.5h-25V22.938z M22.5,32.5c-0.827,0-1.5-0.673-1.5-1.5s0.673-1.5,1.5-1.5h57
		c0.827,0,1.5,0.673,1.5,1.5s-0.673,1.5-1.5,1.5H22.5z M71.5,36.5v41.17c0,1.157-0.664,1.83-1.941,1.83H32.72
		c-1.347,0-3.22-0.735-3.22-1.83V36.5H71.5z"/>
</g>
</svg>
