<?xml version="1.0" encoding="utf-8"?>
<!-- Generator: Adobe Illustrator 16.0.0, SVG Export Plug-In . SVG Version: 6.00 Build 0)  -->
<!DOCTYPE svg PUBLIC "-//W3C//DTD SVG 1.1//EN" "http://www.w3.org/Graphics/SVG/1.1/DTD/svg11.dtd">
<svg version="1.1" id="Layer_1" xmlns="http://www.w3.org/2000/svg" xmlns:xlink="http://www.w3.org/1999/xlink" x="0px" y="0px"
	 width="100px" height="100px" viewBox="0 0 100 100" enable-background="new 0 0 100 100" xml:space="preserve">
<g>
	<path d="M33,85h34c5.514,0,10-4.605,10-10.119v-22c0-5.514-4.486-10-10-10v-8.167C67,25.275,59.752,18,50.5,18h-0.334
		C40.7,18,33,25.492,33,34.774c0,1.104,0.896,1.97,2,1.97s2-0.851,2-1.955C37,27.832,43.029,22,50.166,22H50.5
		C57.51,22,63,27.518,63,34.714V43H33c-5.514,0-10,4.367-10,9.881v22C23,80.395,27.486,85,33,85z M73,75c0,3.313-2.687,6-6,6H33
		c-3.313,0-6-2.687-6-6V53c0-3.313,2.687-6,6-6h34c3.313,0,6,2.687,6,6V75z"/>
	<path d="M47,66.718v4.288C47,72.594,48.287,74,49.875,74h0.25C51.713,74,53,72.594,53,71.006v-4.288
		c1.864-1.05,3.125-3.045,3.125-5.337c0-3.383-2.742-6.125-6.125-6.125s-6.125,2.742-6.125,6.125
		C43.875,63.673,45.136,65.668,47,66.718z"/>
</g>
</svg>
