<?xml version="1.0" encoding="utf-8"?>
<!-- Generator: Adobe Illustrator 16.0.0, SVG Export Plug-In . SVG Version: 6.00 Build 0)  -->
<!DOCTYPE svg PUBLIC "-//W3C//DTD SVG 1.1//EN" "http://www.w3.org/Graphics/SVG/1.1/DTD/svg11.dtd">
<svg version="1.1" id="Layer_1" xmlns="http://www.w3.org/2000/svg" xmlns:xlink="http://www.w3.org/1999/xlink" x="0px" y="0px"
	 width="100px" height="100px" viewBox="0 0 100 100" enable-background="new 0 0 100 100" xml:space="preserve">
<g>
	<path d="M34.205,58.578c0.479,0,0.959-0.171,1.342-0.519l15.487-14.037l14.037,15.486c0.395,0.436,0.938,0.657,1.482,0.657
		c0.479,0,0.959-0.171,1.342-0.519c0.818-0.741,0.881-2.006,0.139-2.824L52.803,40.02c-0.408-0.451-0.977-0.664-1.541-0.647
		c-0.56-0.071-1.145,0.084-1.596,0.493L32.861,55.097c-0.818,0.741-0.881,2.006-0.139,2.824
		C33.117,58.356,33.66,58.578,34.205,58.578z"/>
	<path d="M50.378,83.214c18.449,0,33.458-15.009,33.458-33.458c0-18.448-15.009-33.457-33.458-33.457
		c-18.448,0-33.457,15.009-33.457,33.457C16.921,68.205,31.93,83.214,50.378,83.214z M50.378,20.299
		c16.243,0,29.458,13.215,29.458,29.457c0,16.243-13.215,29.458-29.458,29.458c-16.242,0-29.457-13.215-29.457-29.458
		C20.921,33.514,34.136,20.299,50.378,20.299z"/>
</g>
</svg>
