<?xml version="1.0" encoding="utf-8"?>
<!-- Generator: Adobe Illustrator 16.0.0, SVG Export Plug-In . SVG Version: 6.00 Build 0)  -->
<!DOCTYPE svg PUBLIC "-//W3C//DTD SVG 1.1//EN" "http://www.w3.org/Graphics/SVG/1.1/DTD/svg11.dtd">
<svg version="1.1" id="Layer_1" xmlns="http://www.w3.org/2000/svg" xmlns:xlink="http://www.w3.org/1999/xlink" x="0px" y="0px"
	 width="100px" height="100px" viewBox="0 0 100 100" enable-background="new 0 0 100 100" xml:space="preserve">
<g>
	<path d="M49.5,79.881c1.104,0,2-0.896,2-2V26.191l16.357,16.11c0.391,0.391,1.027,0.586,1.539,0.586s1.086-0.195,1.477-0.586
		c0.781-0.78,0.812-2.047,0.031-2.828L52.066,20.616c-0.75-0.75-2.07-0.75-2.821,0l-18.85,18.857
		c-0.781,0.781-0.779,2.048,0.002,2.828c0.781,0.781,1.798,0.781,2.58,0L47.5,27.528v50.353C47.5,78.985,48.396,79.881,49.5,79.881z
		"/>
</g>
</svg>
