<?xml version="1.0" encoding="utf-8"?>
<!-- Generator: Adobe Illustrator 16.0.0, SVG Export Plug-In . SVG Version: 6.00 Build 0)  -->
<!DOCTYPE svg PUBLIC "-//W3C//DTD SVG 1.1//EN" "http://www.w3.org/Graphics/SVG/1.1/DTD/svg11.dtd">
<svg version="1.1" id="Layer_1" xmlns="http://www.w3.org/2000/svg" xmlns:xlink="http://www.w3.org/1999/xlink" x="0px" y="0px"
	 width="100px" height="100px" viewBox="0 0 100 100" enable-background="new 0 0 100 100" xml:space="preserve">
<g>
	<path d="M49.5,79.881c1.104,0,2-0.896,2-2V47.649l10.023,9.773c0.391,0.391,1.027,0.586,1.539,0.586s1.086-0.195,1.477-0.586
		c0.781-0.781,0.812-2.047,0.031-2.828L51.92,41.929c-0.781-0.781-2.039-0.781-2.82,0L36.438,54.595
		c-0.781,0.781-0.779,2.047,0.002,2.828s1.798,0.781,2.579,0l8.481-8.73v29.188C47.5,78.985,48.396,79.881,49.5,79.881z"/>
	<path d="M25.428,68.5H40c1.104,0,2-0.896,2-2s-0.896-2-2-2H25.428c-6.286,0-11.027-4.299-11.027-10.252
		c0-5.951,4.741-10.344,11.027-10.344c1.121,0,2.223,0.213,3.275,0.541l0.377,0.141c0.589,0.184,1.232,0.096,1.738-0.258
		c0.507-0.354,0.822-0.916,0.853-1.533c0.479-9.512,8.322-16.96,17.854-16.96c7.529,0,14.288,4.721,16.819,11.746
		c0.349,0.967,1.373,1.506,2.367,1.263c0.029-0.008,0.125-0.032,0.154-0.041c1.275-0.382,2.595-0.776,3.911-0.776
		c7.776,0,13.867,5.771,13.867,13.383c0,7.447-6.091,13.091-13.867,13.091H60c-1.104,0-2,0.896-2,2s0.896,2,2,2h12.777
		c10.019,0,17.867-7.4,17.867-17.091c0-9.854-7.849-17.478-17.867-17.478c-1.218,0-2.344,0.253-3.379,0.515
		c-3.531-7.642-11.295-12.633-19.873-12.633c-10.853,0-19.916,7.907-21.598,18.381c-0.822-0.138-1.657-0.201-2.5-0.201
		c-8.427,0-15.027,6.155-15.027,14.252C10.4,62.344,17.001,68.5,25.428,68.5z"/>
</g>
</svg>
