<?xml version="1.0" encoding="utf-8"?>
<!-- Generator: Adobe Illustrator 16.0.0, SVG Export Plug-In . SVG Version: 6.00 Build 0)  -->
<!DOCTYPE svg PUBLIC "-//W3C//DTD SVG 1.1//EN" "http://www.w3.org/Graphics/SVG/1.1/DTD/svg11.dtd">
<svg version="1.1" id="Layer_1" xmlns="http://www.w3.org/2000/svg" xmlns:xlink="http://www.w3.org/1999/xlink" x="0px" y="0px"
	 width="100px" height="100px" viewBox="0 0 100 100" enable-background="new 0 0 100 100" xml:space="preserve">
<g>
	<path d="M51.387,38.449c-0.752-0.751-2.079-0.75-2.829,0l-9.794,9.796c-0.781,0.781-0.781,2.048,0,2.828
		c0.391,0.391,0.902,0.586,1.414,0.586s0.774-0.195,1.165-0.586l5.157-5.408v20.216c0,1.104,0.896,2,2,2s2-0.896,2-2v-22.16
		l7.604,7.353c0.779,0.781,2.172,0.781,2.953,0s0.844-2.047,0.062-2.828L51.387,38.449z"/>
	<path d="M76.152,37.795c-1.253,0-2.365,0.347-3.348,0.652c-0.245,0.076-0.486,0.151-0.722,0.217
		c-3.999-9.178-13.13-15.237-23.218-15.237c-12.673,0-23.237,9.248-25.051,21.467c-1.083-0.213-2.163-0.32-3.229-0.32
		c-9.694,0-17.287,7.136-17.287,16.488c0,9.324,7.593,16.438,17.287,16.438h55.567c11.563,0,20.621-8.554,20.621-19.716
		C96.773,46.469,87.716,37.795,76.152,37.795z M76.152,73.5H20.585c-7.575,0-13.287-5.239-13.287-12.438
		c0-7.109,5.836-12.583,13.287-12.583c1.289,0,2.617,0.257,3.886,0.65l0.442,0.177c0.594,0.206,1.25,0.132,1.773-0.219
		c0.522-0.352,0.848-0.923,0.879-1.552c0.57-11.278,9.925-20.11,21.298-20.11c8.959,0,17.024,5.68,20.067,14.133
		c0.285,0.793,1.114,1.323,1.957,1.323c1.131,0,2.181-0.326,3.105-0.615c0.778-0.242,1.514-0.47,2.158-0.47
		c9.32,0,16.621,6.917,16.621,15.989C92.773,66.703,85.473,73.5,76.152,73.5z"/>
</g>
</svg>
