<?xml version="1.0" encoding="utf-8"?>
<!-- Generator: Adobe Illustrator 16.0.0, SVG Export Plug-In . SVG Version: 6.00 Build 0)  -->
<!DOCTYPE svg PUBLIC "-//W3C//DTD SVG 1.1//EN" "http://www.w3.org/Graphics/SVG/1.1/DTD/svg11.dtd">
<svg version="1.1" id="Layer_1" xmlns="http://www.w3.org/2000/svg" xmlns:xlink="http://www.w3.org/1999/xlink" x="0px" y="0px"
	 width="100px" height="100px" viewBox="0 0 100 100" enable-background="new 0 0 100 100" xml:space="preserve">
<g>
	<path d="M24.841,85h49.668c1.104,0,2-0.955,2-2.06c0-17.244-11.565-30.315-15.818-34.528c3.837-3.185,6.286-8.001,6.286-13.366
		c0-9.565-7.781-17.354-17.346-17.354s-17.346,7.778-17.346,17.343c0,5.353,2.439,10.143,6.263,13.328
		c-4.333,4.355-15.707,17.479-15.707,34.578C22.841,84.046,23.736,85,24.841,85z M36.285,35.032c0-7.359,5.987-13.346,13.346-13.346
		c7.359,0,13.346,5.987,13.346,13.346S56.99,48.378,49.631,48.378C42.272,48.378,36.285,42.391,36.285,35.032z M42,50.645
		c2.306,1.136,4.89,1.763,7.63,1.763c2.727,0,5.297-0.605,7.595-1.731C60.152,53.489,71.529,65,72.449,81H26.9
		C27.809,66,38.888,53.691,42,50.645z"/>
</g>
</svg>
