<?xml version="1.0" encoding="utf-8"?>
<!-- Generator: Adobe Illustrator 16.0.0, SVG Export Plug-In . SVG Version: 6.00 Build 0)  -->
<!DOCTYPE svg PUBLIC "-//W3C//DTD SVG 1.1//EN" "http://www.w3.org/Graphics/SVG/1.1/DTD/svg11.dtd">
<svg version="1.1" id="Layer_1" xmlns="http://www.w3.org/2000/svg" xmlns:xlink="http://www.w3.org/1999/xlink" x="0px" y="0px"
	 width="100px" height="100px" viewBox="0 0 100 100" enable-background="new 0 0 100 100" xml:space="preserve">
<g>
	<path d="M61.281,74.365c-0.781-0.781-2.048-0.78-2.829,0c-0.781,0.781-0.781,2.047-0.001,2.828l6.814,6.815
		c0.133,0.198,0.297,0.378,0.503,0.524c0.351,0.248,0.755,0.367,1.154,0.367c0.627,0,1.244-0.293,1.634-0.844l12.076-17.049
		c0.639-0.9,0.426-2.149-0.476-2.787c-0.901-0.641-2.149-0.426-2.788,0.475L66.688,79.774L61.281,74.365z"/>
	<path d="M21.951,85H58c1.104,0,2-0.896,2-2s-0.896-2-2-2H24.01c0.896-15,11.842-27.349,14.942-30.431
		c2.346,1.186,4.987,1.839,7.79,1.839c2.695,0,5.237-0.651,7.516-1.752c1.956,1.831,8.452,8.359,12.331,17.736
		c0.318,0.771,1.062,1.232,1.849,1.232c0.255,0,0.514-0.051,0.763-0.154c1.021-0.422,1.507-1.593,1.084-2.613
		C66.48,57.661,60.499,51.13,57.74,48.434c3.872-3.184,6.347-8.009,6.347-13.402c0-9.565-7.781-17.347-17.346-17.347
		c-9.565,0-17.347,7.782-17.347,17.347c0,5.296,2.392,10.038,6.145,13.222c-4.257,4.334-15.588,17.539-15.588,34.687
		C19.951,84.045,20.847,85,21.951,85z M33.395,35.032c0-7.359,5.987-13.347,13.347-13.347c7.358,0,13.346,5.987,13.346,13.347
		S54.1,48.378,46.741,48.378C39.382,48.378,33.395,42.391,33.395,35.032z"/>
</g>
</svg>
