<?xml version="1.0" encoding="utf-8"?>
<!-- Generator: Adobe Illustrator 16.0.0, SVG Export Plug-In . SVG Version: 6.00 Build 0)  -->
<!DOCTYPE svg PUBLIC "-//W3C//DTD SVG 1.1//EN" "http://www.w3.org/Graphics/SVG/1.1/DTD/svg11.dtd">
<svg version="1.1" id="Layer_1" xmlns="http://www.w3.org/2000/svg" xmlns:xlink="http://www.w3.org/1999/xlink" x="0px" y="0px"
	 width="100px" height="100px" viewBox="0 0 100 100" enable-background="new 0 0 100 100" xml:space="preserve">
<g>
	<path d="M10.5,56.377v20.008c0,4.685,4.312,8.115,8.996,8.115h41.008c4.685,0,7.996-3.431,7.996-8.115v-0.268l15.1,7.501
		c0.28,0.142,0.464,0.215,0.777,0.215c2.943,0,5.123-2.396,5.123-5.454V52.487c0-3.058-2.055-5.452-4.998-5.452
		c-0.312,0-0.494,0.073-0.773,0.213l-14.945,7.543c-0.722-3.802-3.95-6.705-7.913-6.89c4.167-3.066,6.903-7.989,6.903-13.548
		c0-9.28-7.541-16.831-16.822-16.831c-7.581,0-13.998,5.042-16.097,11.946c-2.309-2.322-5.501-3.764-9.027-3.764
		c-7.024,0-12.738,5.715-12.738,12.738c0,3.867,1.489,7.331,4.219,9.669C13.555,48.992,10.5,52.359,10.5,56.377z M84.621,51.088
		c0.602,0.183,0.879,0.81,0.879,1.399v25.892c0,0.59-0.277,1.218-0.877,1.401L68.5,71.636V59.189L84.621,51.088z M37.242,43.687
		c1.039,1.464,2.307,2.813,3.75,3.813h-6.637C35.542,46.5,36.524,45.136,37.242,43.687z M38.13,34.354
		c0-7.075,5.755-12.831,12.829-12.831c7.075,0,12.83,5.756,12.83,12.831c0,7.073-5.755,12.828-12.83,12.828
		c-6.016,0-11.063-4.168-12.443-9.764c-0.056-0.693-0.17-1.368-0.333-2.025C38.155,35.049,38.13,34.704,38.13,34.354z M25.83,29.705
		c3.97,0,7.324,2.664,8.384,6.296c0.067,0.689,0.185,1.363,0.333,2.026c0.006,0.139,0.021,0.275,0.021,0.416
		c0,4.818-3.92,8.738-8.738,8.738c-4.819,0-8.739-3.92-8.739-8.738S21.011,29.705,25.83,29.705z M64.5,76.004
		c0,2.483-2.013,4.496-4.496,4.496H18.996c-2.483,0-4.496-2.013-4.496-4.496V55.996c0-2.483,2.013-4.496,4.496-4.496h41.008
		c2.483,0,4.496,2.013,4.496,4.496V76.004z"/>
</g>
</svg>
