<?xml version="1.0" encoding="utf-8"?>
<!-- Generator: Adobe Illustrator 16.0.0, SVG Export Plug-In . SVG Version: 6.00 Build 0)  -->
<!DOCTYPE svg PUBLIC "-//W3C//DTD SVG 1.1//EN" "http://www.w3.org/Graphics/SVG/1.1/DTD/svg11.dtd">
<svg version="1.1" id="Layer_1" xmlns="http://www.w3.org/2000/svg" xmlns:xlink="http://www.w3.org/1999/xlink" x="0px" y="0px"
	 width="100px" height="100px" viewBox="0 0 100 100" enable-background="new 0 0 100 100" xml:space="preserve">
<g>
	<circle cx="50.988" cy="69.306" r="3.632"/>
	<path d="M50.5,59.881c1.104,0,2-0.896,2-2v-19c0-1.104-0.896-2-2-2s-2,0.896-2,2v19C48.5,58.985,49.396,59.881,50.5,59.881z"/>
	<path d="M58.278,23.076l-0.091-0.141c-1.852-2.854-3.766-5.806-7.199-5.806c-3.578,0-5.45,2.994-7.26,5.891
		c-0.009,0.014-0.065,0.104-0.074,0.119L11.986,76.8c-0.182,0.308-0.278,0.469-0.278,0.826c0,3.896,3.135,6.874,6.988,6.874h64.585
		c3.854,0,6.988-2.979,6.988-6.874c0-0.357-0.096-0.614-0.277-0.921L58.278,23.076z M83.281,80.5H18.696
		c-1.461,0-2.717-0.951-2.95-2.394l31.374-53.061c1.554-2.487,2.572-3.963,3.868-3.963c1.261,0,2.457,1.87,3.843,4.006L86.23,78.095
		C85.998,79.537,84.742,80.5,83.281,80.5z"/>
</g>
</svg>
