<?xml version="1.0" encoding="utf-8"?>
<!-- Generator: Adobe Illustrator 16.0.0, SVG Export Plug-In . SVG Version: 6.00 Build 0)  -->
<!DOCTYPE svg PUBLIC "-//W3C//DTD SVG 1.1//EN" "http://www.w3.org/Graphics/SVG/1.1/DTD/svg11.dtd">
<svg version="1.1" id="Layer_1" xmlns="http://www.w3.org/2000/svg" xmlns:xlink="http://www.w3.org/1999/xlink" x="0px" y="0px"
	 width="100px" height="100px" viewBox="0 0 100 100" enable-background="new 0 0 100 100" xml:space="preserve">
<g>
	<path d="M48,38h-5v-5.119c0-1.104-0.896-2-2-2s-2,0.896-2,2V38h-5c-1.104,0-2,0.896-2,2s0.896,2,2,2h5v4.881c0,1.104,0.896,2,2,2
		s2-0.896,2-2V42h5c1.104,0,2-0.896,2-2S49.104,38,48,38z"/>
	<path d="M40.879,16.837c-12.892,0-23.379,10.488-23.379,23.38c0,12.891,10.487,23.379,23.379,23.379
		c5.461,0,10.486-1.887,14.471-5.037l24.816,24.817c0.391,0.391,0.902,0.586,1.414,0.586s1.023-0.195,1.414-0.586
		c0.781-0.78,0.781-2.048,0-2.828L58.27,55.822c3.721-4.142,5.989-9.613,5.989-15.605C64.259,27.325,53.771,16.837,40.879,16.837z
		 M21.5,40.217c0-10.686,8.693-19.38,19.379-19.38c10.687,0,19.38,8.694,19.38,19.38c0,5.396-2.221,10.279-5.792,13.795
		c-0.174,0.092-0.341,0.202-0.487,0.349c-0.105,0.105-0.194,0.222-0.271,0.343c-3.422,3.033-7.907,4.893-12.829,4.893
		C30.193,59.596,21.5,50.902,21.5,40.217z"/>
</g>
</svg>
