<?xml version="1.0" encoding="utf-8"?>
<!-- Generator: Adobe Illustrator 18.1.1, SVG Export Plug-In . SVG Version: 6.00 Build 0)  -->
<!DOCTYPE svg PUBLIC "-//W3C//DTD SVG 1.1//EN" "http://www.w3.org/Graphics/SVG/1.1/DTD/svg11.dtd">
<svg version="1.1" id="Layer_1" xmlns="http://www.w3.org/2000/svg" xmlns:xlink="http://www.w3.org/1999/xlink" x="0px" y="0px"
	 width="516px" height="1564px" viewBox="0 0 516 1564" enable-background="new 0 0 516 1564" xml:space="preserve">
<path fill="#444444" d="M438,1512v-2h24v2H438z M438,1506h24v2h-24V1506z M438,1502h24v2h-24V1502z M438,1498h24v2h-24V1498z
	 M438,1494h24v2h-24V1494z"/>
<path fill="#444444" d="M344,1512v-2h22v2H344z M354,1506h12v2h-12V1506z M346,1502h20v2h-20V1502z M342,1498h24v2h-24V1498z
	 M350,1494h16v2h-16V1494z"/>
<path fill="#444444" d="M246,1512v-2h24v2H246z M264,1498v2h-12v-2H264z M252,1508v-2h12v2H252z M248,1502h20v2h-20V1502z M246,1494
	h24v2h-24V1494z"/>
<path fill="#444444" d="M150,1500v-2h24v2H150z M150,1494h16v2h-16V1494z M170,1504h-20v-2h20V1504z M162,1508h-12v-2h12V1508z
	 M172,1512h-22v-2h22V1512z"/>
<path fill="#444444" d="M71,1514v-2h4v-4h2v6H71z M75,1504h2v2h-2V1504z M75,1500h2v2h-2V1500z M75,1494h-4v-2h6v6h-2V1494z
	 M67,1512h2v2h-2V1512z M67,1492h2v2h-2V1492z M63,1512h2v2h-2V1512z M63,1492h2v2h-2V1492z M55,1508h2v4h4v2h-6V1508z M57,1498h-2
	v-6h6v2h-4V1498z M57,1502h-2v-2h2V1502z M57,1506h-2v-2h2V1506z"/>
<path fill="#444444" d="M455,1418v-2h4v-4h2v6H455z M459,1398h-4v-2h6v6h-2V1398z M441,1402h-2v-6h6v2h-4V1402z M443,1400h14v14h-14
	V1400z M445,1412h10v-10h-10V1412z M441,1416h4v2h-6v-6h2V1416z"/>
<path fill="#444444" d="M343,1418v-6h22v6H343z M363,1414h-18v2h18V1414z M343,1404h22v6h-22V1404z M345,1408h18v-2h-18V1408z
	 M343,1396h22v6h-22V1396z M345,1400h18v-2h-18V1400z"/>
<path fill="#444444" d="M263,1418v-6h6v6H263z M267,1414h-2v2h2V1414z M263,1404h6v6h-6V1404z M265,1408h2v-2h-2V1408z M263,1396h6
	v6h-6V1396z M265,1400h2v-2h-2V1400z M255,1412h6v6h-6V1412z M257,1416h2v-2h-2V1416z M255,1404h6v6h-6V1404z M257,1408h2v-2h-2
	V1408z M255,1396h6v6h-6V1396z M257,1400h2v-2h-2V1400z M247,1412h6v6h-6V1412z M249,1416h2v-2h-2V1416z M247,1404h6v6h-6V1404z
	 M249,1408h2v-2h-2V1408z M247,1396h6v6h-6V1396z M249,1400h2v-2h-2V1400z"/>
<path fill="#444444" d="M174,1413v6h-6v-2h-12v2h-6v-6h2v-12h-2v-6h6v2h12v-2h6v6h-2v12H174z M152,1417h2v-2h-2V1417z M154,1397h-2
	v2h2V1397z M168,1399h-12v2h-2v12h2v2h12v-2h2v-12h-2V1399z M172,1397h-2v2h2V1397z M170,1415v2h2v-2H170z M163,1411h-2v-3h-3v-2h3
	v-3h2v3h3v2h-3V1411z"/>
<path fill="#444444" d="M78,1401v-6h-6v2h-3v-2h-6v2h-3v-2h-6v6h2v3h-2v6h2v3h-2v6h6v-2h3v2h6v-2h3v2h6v-6h-2v-3h2v-6h-2v-3H78z
	 M74,1397h2v2h-2V1397z M65,1397h2v2h-2V1397z M56,1397h2v2h-2V1397z M56,1406h2v2h-2V1406z M58,1417h-2v-2h2V1417z M67,1417h-2v-2
	h2V1417z M76,1417h-2v-2h2V1417z M76,1408h-2v-2h2V1408z M74,1404h-2v6h2v3h-2v2h-3v-2h-6v2h-3v-2h-2v-3h2v-6h-2v-3h2v-2h3v2h6v-2h3
	v2h2V1404z"/>
<path fill="#444444" d="M460,1314v4h-22v-14h22v4h2v6H460z M458,1306h-18v10h18V1306z M444,1314h-2v-6h2V1314z M448,1314h-2v-6h2
	V1314z M452,1314h-2v-6h2V1314z M456,1314h-2v-6h2V1314z"/>
<path fill="#444444" d="M364,1314v4h-22v-14h22v4h2v6H364z M362,1306h-18v10h18V1306z M348,1314h-2v-6h2V1314z M352,1314h-2v-6h2
	V1314z M356,1314h-2v-6h2V1314z"/>
<path fill="#444444" d="M268,1314v4h-22v-14h22v4h2v6H268z M266,1306h-18v10h18V1306z M252,1314h-2v-6h2V1314z M256,1314h-2v-6h2
	V1314z"/>
<path fill="#444444" d="M172,1314v4h-22v-14h22v4h2v6H172z M170,1306h-18v10h18V1306z M156,1314h-2v-6h2V1314z"/>
<path fill="#444444" d="M57,1320v-18h18v18H57z M73,1304H59v14h14V1304z M70,1312h-8v-2h8V1312z"/>
<path fill="#444444" d="M441,1224v-18h18v18H441z M457,1208h-14v14h14V1208z M449,1211h2v3h3v2h-3v3h-2v-3h-3v-2h3V1211z"/>
<path fill="#444444" d="M343,1226v-14h16v-6h-10v4h-2v-6h14v8h4v14H343z M363,1214h-18v10h18V1214z M355,1220h-2v-2h2V1220z"/>
<path fill="#444444" d="M247,1226v-14h4v-8h14v8h4v14H247z M263,1206h-10v6h10V1206z M267,1214h-18v10h18V1214z M259,1220h-2v-2h2
	V1220z"/>
<path fill="#444444" d="M169,1205v-4h-14v4h-6v2h2v22h22v-22h2v-2H169z M157,1203h10v2h-10V1203z M171,1227h-18v-20h18V1227z"/>
<path fill="#444444" d="M77,1207v22H55v-22h-2v-2h6v-4h14v4h6v2H77z M71,1203H61v2h10V1203z M75,1207H57v20h18V1207z M63,1223h-2
	v-12h2V1223z M67,1223h-2v-12h2V1223z M71,1223h-2v-12h2V1223z"/>
<path fill="#444444" d="M434,1106v26h32v-26H434z M458,1108v4h-16v-4H458z M436,1108h4v4h-4V1108z M436,1114h13v4h-13V1114z
	 M458,1124h-16v-4h16V1124z M436,1120h4v4h-4V1120z M436,1130v-4h13v4H436z M464,1130h-13v-4h13V1130z M464,1124h-4v-4h4V1124z
	 M464,1118h-13v-4h13V1118z M464,1112h-4v-4h4V1112z"/>
<path fill="#444444" d="M365,1126v-20h-22v20h-2v6h26v-6H365z M355,1118h8v8h-8V1118z M363,1108v8h-8v-8H363z M345,1108h8v8h-8V1108
	z M345,1118h8v8h-8V1118z M365,1130h-22v-2h22V1130z"/>
<path fill="#444444" d="M245,1134v-2h2v-28h22v28h2v2H245z M267,1106h-18v26h18V1106z M265,1120h-2v-2h2V1120z"/>
<path fill="#444444" d="M174,1113v14h-2v-8h-20v8h-2v-14h-2v-2h28v2H174z M172,1113h-20v4h20V1113z M163,1116h-2v-2h2V1116z"/>
<path fill="#444444" d="M80,1111v18h-2v-6h-8h-2v-8H54v14h-2v-18h-2v-2h32v2H80z M68,1111H54v2h14V1111z M78,1111h-8v4h8V1111z
	 M78,1117h-8v4h8V1117z M75,1120h-2v-2h2V1120z M75,1114h-2v-2h2V1114z"/>
<path fill="#444444" d="M462,1019v-6h-24v6h-4v12h4v2h2v-2h20v2h2v-2h4v-12H462z M451,1015h9v10h-9V1015z M440,1015h9v10h-9V1015z
	 M464,1029h-28v-8h2v6h24v-6h2V1029z"/>
<path fill="#444444" d="M364,1018v-6h-20v6h-4v14h4v2h2v-2h16v2h2v-2h4v-14H364z M344,1030h-2v-10h2V1030z M362,1030h-16v-4h16V1030
	z M362,1024h-16v-10h16V1024z M366,1030h-2v-10h2V1030z"/>
<path fill="#444444" d="M270,1037v-2h-24v2h-2v-28h28v28H270z M270,1011h-24v22h24V1011z M268,1031h-20v-18h20V1031z M266,1015h-16
	v6h16V1015z M266,1023h-16v6h16V1023z M259,1027h-2v-2h2V1027z M259,1019h-2v-2h2V1019z"/>
<path fill="#444444" d="M174,1037v-2h-24v2h-2v-28h28v28H174z M174,1011h-24v6h24V1011z M174,1019h-24v6h24V1019z M174,1027h-24v6
	h24V1027z M163,1031h-2v-2h2V1031z M163,1023h-2v-2h2V1023z M163,1015h-2v-2h2V1015z"/>
<path fill="#444444" d="M77,1039v-2H55v2h-2v-32h26v32H77z M65,1009H55v22h10V1009z M77,1009H67v22h10V1009z M77,1033H55v2h22V1033z
	 M71,1021h-2v-2h2V1021z M63,1021h-2v-2h2V1021z"/>
<path fill="#444444" d="M439,938v-22h22v22H439z M459,918h-18v18h18V918z M451,926h4v2h-4h-2v-6h2V926z"/>
<path fill="#444444" d="M362,936v4h-20v-22h4v-4h20v22H362z M346,920h-2v18h16v-2h-14V920z M364,916h-16v18h16V916z M362,930h-12
	v-12h12V930z M360,920h-8v8h8V920z"/>
<path fill="#444444" d="M246,914v26h24v-26H246z M264,916v10h-12v-10H264z M248,916h2v2h-2V916z M248,920h2v2h-2V920z M248,924h2v2
	h-2V924z M248,928h2v2h-2V928z M248,932h2v2h-2V932z M248,938v-2h2v2H248z M252,938v-10h12v10H252z M268,938h-2v-2h2V938z M268,934
	h-2v-2h2V934z M268,930h-2v-2h2V930z M268,926h-2v-2h2V926z M268,922h-2v-2h2V922z M268,918h-2v-2h2V918z"/>
<path fill="#444444" d="M150,940v-26h24v26H150z M172,916h-20v22h20V916z M161,922h-6v-2h6V922z M161,926h-6v-2h6V926z M169,930h-14
	v-2h14V930z M169,934h-14v-2h14V934z M163,920h6v6h-6V920z M165,924h2v-2h-2V924z"/>
<path fill="#444444" d="M54,940v-26h24v26H54z M76,916H56v22h20V916z M73,926H59v-6h14V926z M71,922H61v2h10V922z M73,930H59v-2h14
	V930z M73,934H59v-2h14V934z"/>
<path fill="#444444" d="M438,844v-26h24v26H438z M460,820h-20v22h20V820z M457,826h-14v-2h14V826z M457,830h-14v-2h14V830z M457,834
	h-14v-2h14V834z M450,838h-7v-2h7V838z"/>
<path fill="#444444" d="M260,817v-2h-8v32h8v-28h2v6h2v-8H260z M258,845h-4v-16h4V845z M258,827h-4v-10h4V827z"/>
<path fill="#444444" d="M358,817h-2v-2h-8v30h2h1v2h2v-2h1h2v-26h2v6h2v-8H358z M354,843h-4v-22h4V843z M354,819h-4v-2h4V819z"/>
<path fill="#444444" d="M156,815v32h12v-32H156z M166,845h-8v-3h4v-2h-4v-2h2v-2h-2v-2h4v-2h-4v-2h2v-2h-2v-2h4v-2h-4v-2h2v-2h-2v-3
	h8V845z"/>
<path fill="#444444" d="M55,816v5h-2v2h2v4h-2v2h2v4h-2v2h2v4h-2v2h2v5h24v-30H55z M57,844v-3h2v-2h-2v-4h2v-2h-2v-4h2v-2h-2v-4h2
	v-2h-2v-3h16v26H57z M77,844h-2v-26h2V844z"/>
<path fill="#444444" d="M457,723v-2h-2v2h-10v-2h-2v2h-6v26h26v-26H457z M461,747h-22v-14h22V747z M461,731h-22v-6h4v2h2v-2h10v2h2
	v-2h4V731z"/>
<path fill="#444444" d="M341,749v-26h6v-2h2v2h10v-2h2v2h6v26H341z M365,725h-4v2h-2v-2h-10v2h-2v-2h-4v6h22V725z M365,733h-22v14
	h22V733z M349,739h-2v-2h2V739z M349,743h-2v-2h2V743z M353,739h-2v-2h2V739z M353,743h-2v-2h2V743z M357,739h-2v-2h2V739z M357,743
	h-2v-2h2V743z M361,739h-2v-2h2V739z M361,743h-2v-2h2V743z"/>
<path fill="#444444" d="M246,748v-26h24v26H246z M250,724h-2v22h2V724z M268,724h-16v22h16V724z M266,730h-12v-2h12V730z M266,734
	h-12v-2h12V734z"/>
<path fill="#444444" d="M169,725v-2h-6v-2h-2v2h-6v2h-5v24h24v-24H169z M157,725h10v2h-10V725z M172,747h-20v-20h3v2h14v-2h3V747z"
	/>
<path fill="#444444" d="M54,749v-24h5v-2h6v-2h2v2h6v2h5v24H54z M71,725H61v2h10V725z M76,727h-3v2H59v-2h-3v20h20V727z M73,735H59
	v-2h14V735z M73,739H59v-2h14V739z M66,743h-7v-2h7V743z"/>
<path fill="#444444" d="M438,653v-24h5v-2h6v-2h2v2h6v2h5v24H438z M455,629h-10v2h10V629z M460,631h-3v2h-14v-2h-3v20h20V631z
	 M445,639h-2v-2h2V639z M445,643h-2v-2h2V643z M445,647h-2v-2h2V647z M457,639h-10v-2h10V639z M457,643h-10v-2h10V643z M457,647h-10
	v-2h10V647z"/>
<path fill="#444444" d="M361,627v-2h-2v2h-4v-2h-2v2h-4v-2h-2v2h-5v26h24v-26H361z M364,651h-20v-22h3v2h2v-2h4v2h2v-2h4v2h2v-2h3
	V651z"/>
<path fill="#444444" d="M246,653v-26h5v-2h2v2h4v-2h2v2h4v-2h2v2h5v26H246z M268,629h-3v2h-2v-2h-4v2h-2v-2h-4v2h-2v-2h-3v22h20V629
	z M265,638h-14v-2h14V638z M265,642h-14v-2h14V642z M265,646h-14v-2h14V646z"/>
<path fill="#444444" d="M169,633v-4h-6v-2h-2v2h-6v4h-6v8h2v10h22v-10h2v-8H169z M167,631v2h-4v-2H167z M157,631h4v2h-4V631z
	 M151,635h10v4h-10V635z M153,649v-8h8v8H153z M171,649h-8v-8h8V649z M173,639h-10v-4h10V639z"/>
<path fill="#444444" d="M73,631v-4H59v4h-4v20h22v-20H73z M61,629h10v2H61V629z M75,649H57v-16h2v2h2v-2h10v2h2v-2h2V649z"/>
<path fill="#444444" d="M437,555v-20h6v-4h14v4h6v20H437z M455,533h-10v2h10V533z M461,537h-22v16h22V537z M449,541h2v3h3v2h-3v3h-2
	v-3h-3v-2h3V541z"/>
<path fill="#444444" d="M361,535v-4h-14v4h-6v20h26v-20H361z M349,533h10v2h-10V533z M343,553v-16h2v16H343z M347,553v-16h14v16H347
	z M365,553h-2v-16h2V553z"/>
<path fill="#444444" d="M265,535v-4h-14v4h-6v20h26v-20H265z M253,533h10v2h-10V533z M269,553h-22v-10h4v2h2v-2h10v2h2v-2h4V553z
	 M269,541h-22v-4h22V541z"/>
<path fill="#444444" d="M169,535v-4h-14v4h-6v20h26v-20H169z M157,533h10v2h-10V533z M167,541h-10v-4h10V541z M151,537h4v4h-4V537z
	 M173,553h-22v-10h4v2h2v-2h10v2h2v-2h4V553z M173,541h-4v-4h4V541z"/>
<path fill="#444444" d="M57,558v-8h-4v-12h4v-4h22v24H57z M57,540h-2v8h2V540z M77,536H59v20h18V536z M71,528h2v4h-2V528z M67,528h2
	v4h-2V528z M63,528h2v4h-2V528z"/>
<path fill="#444444" d="M436,460v-2h28v2H436z M440,448h-4v-8h4h22v16h-22V448z M440,442h-2v4h2V442z M442,454h18v-12h-18V454z
	 M454,434h2v4h-2V434z M450,434h2v4h-2V434z M446,434h2v4h-2V434z"/>
<path fill="#444444" d="M342,459v-24h24v24H342z M360,437h-12v6h12V437z M364,437h-2v8h-16v-8h-2v20h20V437z M358,442h-2v-4h2V442z"
	/>
<path fill="#444444" d="M244,457v-16h13v-4h2v4h13v16H244z M270,443h-24v12h24V443z M251,445h2v3h3v2h-3v3h-2v-3h-3v-2h3V445z
	 M262,450h-2v-2h2V450z M265,447h-2v-2h2V447z M265,453h-2v-2h2V453z M268,450h-2v-2h2V450z"/>
<path fill="#444444" d="M155,458v-18h6v-4h2v4h6v18H155z M167,442h-10v14h10V442z M163,448h-2v-4h2V448z"/>
<path fill="#444444" d="M51,458v-18h14v-4h2v4h14v18H51z M79,442H53v14h26V442z M57,446h-2v-2h2V446z M57,454h-2v-2h2V454z M57,448
	h2v2h-2V448z M73,454H59v-2h14V454z M73,448h2v2h-2V448z M77,454h-2v-2h2V454z M75,444h2v2h-2V444z M71,450h-2v-2h2V450z M71,444h2
	v2h-2V444z M67,450h-2v-2h2V450z M67,444h2v2h-2V444z M63,450h-2v-2h2V450z M63,444h2v2h-2V444z M59,444h2v2h-2V444z"/>
<path fill="#444444" d="M439,363v-24h22v24H439z M459,341h-18v4h18V341z M459,347h-18v14h18V347z M445,351h-2v-2h2V351z M445,355h-2
	v-2h2V355z M445,359h-2v-2h2V359z M449,351h-2v-2h2V351z M449,355h-2v-2h2V355z M449,359h-2v-2h2V359z M453,351h-2v-2h2V351z
	 M453,355h-2v-2h2V355z M453,359h-2v-2h2V359z M457,351h-2v-2h2V351z M457,359h-2v-6h2V359z"/>
<path fill="#444444" d="M362,360v3h-16v-3h-6v-15h6v-6h16v6h6v15H362z M348,361h12v-4h-12V361z M360,341h-12v4h12V341z M366,347h-24
	v11h4v-3h16v3h4V347z M362,349h2v2h-2V349z"/>
<path fill="#444444" d="M249,363v-24h18v24H249z M265,341h-14v20h14V341z M263,357h-10v-14h10V357z M261,345h-6v10h6V345z M259,360
	h-2v-2h2V360z"/>
<path fill="#444444" d="M154,363v-24h16v24H154z M168,341h-12v2h12V341z M168,345h-12v10h12V345z M168,357h-12v4h12V357z M163,360
	h-2v-2h2V360z"/>
<path fill="#444444" d="M58,363v-24h16v24H58z M72,341H60v14h12V341z M72,357H60v4h12V357z M67,360h-2v-2h2V360z"/>
<path fill="#444444" d="M442,267v-24h16v24H442z M456,245h-12v20h12V245z M451,263h-2v-2h2V263z"/>
<path fill="#444444" d="M342,269v-28h24v28H342z M364,243h-20v24h20V243z M362,263h-16v-18h16V263z M360,247h-12v14h12V247z
	 M355,266h-2v-2h2V266z"/>
<path fill="#444444" d="M246,269v-28h24v28H246z M268,243h-20v2h20V243z M268,247h-20v14h20V247z M268,263h-20v4h20V263z M259,266
	h-2v-2h2V266z"/>
<path fill="#444444" d="M150,269v-28h24v28H150z M172,243h-20v18h20V243z M172,263h-20v4h20V263z M163,266h-2v-2h2V266z"/>
<path fill="#444444" d="M54,269v-28h24v28H54z M76,243H56v24h20V243z M67,265h-2v-2h2V265z"/>
<path fill="#444444" d="M167,169v2h2v2h-14v-2h2v-2h-11v-24h32v24H167z M159,171h6v-2h-6V171z M176,147h-28v14h28V147z M176,163h-28
	v4h28V163z M163,166h-2v-2h2V166z"/>
<path fill="#444444" d="M440,174v-30h20v30H440z M458,146h-16v4h16V146z M458,152h-16v4h16V152z M458,158h-16v14h16V158z M451,168
	h-2v-2h2V168z"/>
<path fill="#444444" d="M370,167v-20h-32v20h15v2h-4v2h10v-2h-4v-2H370z M340,165v-16h28v16H340z"/>
<path fill="#444444" d="M242,171v-2h32v2H242z M244,147h28v20h-28V147z M246,165h24v-16h-24V165z"/>
<path fill="#444444" d="M50,172v-26h32v26H50z M73,170h2v-2h-2V170z M65,170h2v-2h-2V170z M57,170h2v-2h-2V170z M80,148H52v6h28V148
	z M80,156H52v14h3v-4h6v4h2v-4h6v4h2v-4h6v4h3V156z M71,158h6v6h-6V158z M73,162h2v-2h-2V162z M63,158h6v6h-6V158z M65,162h2v-2h-2
	V162z M55,158h6v6h-6V158z M57,162h2v-2h-2V162z M56,152h-2v-2h2V152z M59,152h-2v-2h2V152z M62,152h-2v-2h2V152z"/>
<path fill="#444444" d="M434,76V50h32v26H434z M458,74h2v-2h-2V74z M450,74h2v-2h-2V74z M436,74h8V60h-8V74z M464,52h-28v6h28V52z
	 M464,60h-18v14h2v-4h6v4h2v-4h6v4h2V60z M456,62h6v6h-6V62z M458,66h2v-2h-2V66z M448,62h6v6h-6V62z M450,66h2v-2h-2V66z M440,56
	h-2v-2h2V56z M443,56h-2v-2h2V56z M446,56h-2v-2h2V56z M438,70h4v2h-4V70z M438,66h4v2h-4V66z M438,62h4v2h-4V62z"/>
<path fill="#444444" d="M338,76V50h32v26H338z M368,52h-28v6h28V52z M368,60h-28v14h28V60z M358,64h-16v-2h16V64z M358,68h-16v-2h16
	V68z M366,72h-24v-2h24V72z M360,62h6v6h-6V62z M362,66h2v-2h-2V66z M344,56h-2v-2h2V56z M347,56h-2v-2h2V56z M350,56h-2v-2h2V56z"
	/>
<path fill="#444444" d="M242,76V50h32v26H242z M272,52h-28v6h28V52z M272,60h-28v14h28V60z M266,64h-20v-2h20V64z M270,68h-24v-2h24
	V68z M258,72h-12v-2h12V72z M248,56h-2v-2h2V56z M251,56h-2v-2h2V56z M254,56h-2v-2h2V56z"/>
<path fill="#444444" d="M146,76V50h32v26H146z M176,52h-28v6h28V52z M176,60h-28v14h28V60z M162,64h-12v-2h12V64z M162,68h-12v-2h12
	V68z M162,72h-12v-2h12V72z M174,72h-10V62h10V72z M172,64h-6v6h6V64z M152,56h-2v-2h2V56z M155,56h-2v-2h2V56z M158,56h-2v-2h2V56z
	"/>
<path fill="#444444" d="M50,76V50h32v26H50z M80,52H52v6h28V52z M80,60H52v14h28V60z M56,56h-2v-2h2V56z M59,56h-2v-2h2V56z M62,56
	h-2v-2h2V56z"/>
</svg>
