<?xml version="1.0" encoding="utf-8"?>
<!-- Generator: Adobe Illustrator 16.0.0, SVG Export Plug-In . SVG Version: 6.00 Build 0)  -->
<!DOCTYPE svg PUBLIC "-//W3C//DTD SVG 1.1//EN" "http://www.w3.org/Graphics/SVG/1.1/DTD/svg11.dtd">
<svg version="1.1" id="Layer_1" xmlns="http://www.w3.org/2000/svg" xmlns:xlink="http://www.w3.org/1999/xlink" x="0px" y="0px"
	 width="128px" height="128px" viewBox="0 0 128 128" enable-background="new 0 0 128 128" xml:space="preserve">
<g>
	<g>
		<path fill-rule="evenodd" clip-rule="evenodd" d="M80,24H24v8h56V24z M24,48h56v-8H24V48z M80,56H24v8h56V56z M24,80h16v-8H24V80z
			 M96.73,89.162L84,95.531L53.789,80.422c-1.977-0.992-4.379-0.188-5.367,1.789s-0.188,4.375,1.789,5.367L75.059,100
			l-24.848,12.422c-1.977,0.992-2.777,3.391-1.789,5.367c0.703,1.398,2.113,2.211,3.582,2.211c0.602,0,1.211-0.133,1.785-0.422
			l30.215-15.109l12.73,6.363c0.719-2.637,1.98-5.033,3.637-7.117L92.945,100l7.426-3.715C98.711,94.199,97.445,91.803,96.73,89.162
			z M104,16c0-8.836-7.164-16-16-16H16C7.164,0,0,7.164,0,16v72c0,8.836,7.164,16,16,16h33.168l8-4l-8.004-4H16
			c-4.414,0-8-3.586-8-8V16c0-4.414,3.586-8,8-8h72c4.414,0,8,3.586,8,8v64.578l0.32-0.156c0.914-5.031,3.754-9.367,7.68-12.336V16z
			 M116,96c6.625,0,12-5.373,12-12c0-6.629-5.375-12-12-12c-6.629,0-12,5.371-12,12C104,90.627,109.371,96,116,96z M116,80
			c2.211,0,4,1.791,4,4c0,2.207-1.789,4-4,4s-4-1.793-4-4C112,81.791,113.789,80,116,80z M116,104c-6.629,0-12,5.371-12,12
			c0,6.625,5.371,12,12,12c6.625,0,12-5.375,12-12C128,109.371,122.625,104,116,104z M116,120c-2.211,0-4-1.789-4-4s1.789-4,4-4
			s4,1.789,4,4S118.211,120,116,120z"/>
	</g>
</g>
</svg>
