<?xml version="1.0" encoding="utf-8"?>
<!-- Generator: Adobe Illustrator 16.0.0, SVG Export Plug-In . SVG Version: 6.00 Build 0)  -->
<!DOCTYPE svg PUBLIC "-//W3C//DTD SVG 1.1//EN" "http://www.w3.org/Graphics/SVG/1.1/DTD/svg11.dtd">
<svg version="1.1" id="Layer_1" xmlns="http://www.w3.org/2000/svg" xmlns:xlink="http://www.w3.org/1999/xlink" x="0px" y="0px"
	 width="128px" height="128px" viewBox="0 0 128 128" enable-background="new 0 0 128 128" xml:space="preserve">
<g>
	<g>
		<path d="M48,55.981c0,2.211,1.789,4,4,4h40c2.211,0,4-1.789,4-4s-1.789-4-4-4H52C49.789,51.981,48,53.77,48,55.981z M92,67.981H52
			c-2.211,0-4,1.789-4,4s1.789,4,4,4h40c2.211,0,4-1.789,4-4S94.211,67.981,92,67.981z M92,83.981H52c-2.211,0-4,1.789-4,4
			s1.789,4,4,4h40c2.211,0,4-1.789,4-4S94.211,83.981,92,83.981z M92,99.981H52c-2.211,0-4,1.789-4,4s1.789,4,4,4h40
			c2.211,0,4-1.789,4-4S94.211,99.981,92,99.981z M16,123.981C15.336,124.067,16.684,123.981,16,123.981L16,123.981z M108,3.981H48
			c-8.836,0-16,7.164-16,16v64H20c-11.047,0-20,8.953-20,20c0,10.359,5.906,18.984,16,20h80c8.836,0,16-7.164,16-16V43.579
			c9.129-1.855,16-9.922,16-19.598C128,12.934,119.047,3.981,108,3.981z M32,104.021c0,6.492-5.168,11.75-11.613,11.961H20
			c-6.617,0-12-5.383-12-12s5.383-12,12-12h12V104.021z M104,107.981c0,4.414-3.59,8-8,8H35.91c2.527-3.344,4.09-7.453,4.09-11.961
			v-84.04c0-4.41,3.59-8,8-8h15.91c1.762,2.333,3.036,5.045,3.658,8H52c-2.211,0-4,1.789-4,4s1.789,4,4,4h15.569
			c-0.61,2.909-1.852,5.583-3.569,7.891v0.109H52c-2.211,0-4,1.789-4,4s1.789,4,4,4h52V107.981z M108,35.981H73.297
			c1.73-3.641,2.703-7.707,2.703-12s-0.973-8.359-2.703-12H108c6.617,0,12,5.383,12,12S114.617,35.981,108,35.981z"/>
	</g>
</g>
</svg>
