<?xml version="1.0" encoding="utf-8"?>
<!-- Generator: Adobe Illustrator 16.0.0, SVG Export Plug-In . SVG Version: 6.00 Build 0)  -->
<!DOCTYPE svg PUBLIC "-//W3C//DTD SVG 1.1//EN" "http://www.w3.org/Graphics/SVG/1.1/DTD/svg11.dtd">
<svg version="1.1" id="Layer_1" xmlns="http://www.w3.org/2000/svg" xmlns:xlink="http://www.w3.org/1999/xlink" x="0px" y="0px"
	 width="128px" height="128px" viewBox="0 0 128 128" enable-background="new 0 0 128 128" xml:space="preserve">
<g>
	<g>
		<path d="M108,24v-0.18C100.844,18.602,92.422,16,84,16c-6.914,0-13.785,1.852-20,5.367C57.785,17.852,50.914,16,44,16
			c-8.422,0-16.844,2.602-24,7.82V24c-8.836,0-16,7.164-16,16v48c0,8.836,7.164,16,16,16h32.738c1.656,4.648,6.055,8,11.262,8
			s9.605-3.352,11.262-8H108c8.836,0,16-7.164,16-16V40C124,31.164,116.836,24,108,24z M68,28.195
			c4.875-2.742,10.336-4.172,16-4.172s11.125,1.43,16,4.172v54.648c-5.098-1.781-10.484-2.688-16-2.688s-10.902,0.906-16,2.688
			V28.195z M28,28.195c4.875-2.742,10.336-4.172,16-4.172s11.125,1.43,16,4.172v54.648c-5.098-1.781-10.484-2.688-16-2.688
			s-10.902,0.906-16,2.688V28.195z M116,88c0,4.414-3.59,8-8,8H68v4c0,2.211-1.789,4-4,4s-4-1.789-4-4v-4H20c-4.41,0-8-3.586-8-8V40
			c0-4.414,3.59-8,8-8v57c0,2.211,1.789,4,4,4c0.395,0,13.832-4.82,20-4.82c6.355,0,12.656,1.625,18.461,4.609l0.066-0.039
			l0.004-0.008c0.457,0.18,0.945,0.297,1.469,0.297s1.012-0.117,1.469-0.297l0.004,0.008l0.066,0.039
			C71.344,89.805,77.645,88.18,84,88.18c6.168,0,19.605,4.82,20,4.82c2.211,0,4-1.789,4-4V32c4.41,0,8,3.586,8,8V88z M52,32H36v8h16
			V32z M52,48H36v8h16V48z M52,64H36v8h16V64z M92,32H76v8h16V32z M92,48H76v8h16V48z M92,64H76v8h16V64z"/>
	</g>
</g>
</svg>
