<?xml version="1.0" encoding="utf-8"?>
<!-- Generator: Adobe Illustrator 16.0.0, SVG Export Plug-In . SVG Version: 6.00 Build 0)  -->
<!DOCTYPE svg PUBLIC "-//W3C//DTD SVG 1.1//EN" "http://www.w3.org/Graphics/SVG/1.1/DTD/svg11.dtd">
<svg version="1.1" id="Layer_1" xmlns="http://www.w3.org/2000/svg" xmlns:xlink="http://www.w3.org/1999/xlink" x="0px" y="0px"
	 width="128px" height="128px" viewBox="0 0 128 128" enable-background="new 0 0 128 128" xml:space="preserve">
<g>
	<g>
		<path fill-rule="evenodd" clip-rule="evenodd" d="M80,112h16v-8H80V112z M72,88H40v8h32V88z M72,104H40v8h32V104z M80,96h32v-8H80
			V96z M96,32H72v8h24V32z M112,48H40v32h72V48z M104,72H48V56h56V72z M64,16H40v24h24V16z M112,16H72v8h40V16z M24,0v48H0v64
			c0,8.836,7.164,16,16,16h88c13.258,0,24-10.742,24-24V0H24z M8,56h8v8H8V56z M8,72h8v8H8V72z M8,88h8v8H8V88z M16,120v-8H8v-8h8v8
			h8C24,116.422,20.422,120,16,120z M120,104c0,8.82-7.18,16-16,16H30.633c0.883-2.5,1.367-5.195,1.367-8V8h88V104z"/>
	</g>
</g>
</svg>
