<?xml version="1.0" encoding="utf-8"?>
<!-- Generator: Adobe Illustrator 16.0.0, SVG Export Plug-In . SVG Version: 6.00 Build 0)  -->
<!DOCTYPE svg PUBLIC "-//W3C//DTD SVG 1.1//EN" "http://www.w3.org/Graphics/SVG/1.1/DTD/svg11.dtd">
<svg version="1.1" id="Layer_1" xmlns="http://www.w3.org/2000/svg" xmlns:xlink="http://www.w3.org/1999/xlink" x="0px" y="0px"
	 width="128px" height="128px" viewBox="0 0 128 128" enable-background="new 0 0 128 128" xml:space="preserve">
<g>
	<g>
		<path d="M40.452,95.078l-0.117-0.117l-21.914,14.617l14.617-21.914l-0.117-0.117c1.563-1.563,1.555-4.102,0-5.656
			c-1.563-1.563-4.094-1.563-5.656,0L0.671,121.781c-1.055,1.586-0.852,3.695,0.5,5.047C1.944,127.602,2.968,128,3.999,128
			c0.766,0,1.539-0.219,2.219-0.672l39.891-26.594c1.563-1.563,1.555-4.102,0-5.656C44.546,93.516,42.015,93.516,40.452,95.078z
			 M125.655,50.344l-48-48C76.124,0.813,74.077,0,71.999,0c-1.031,0-2.07,0.195-3.063,0.609C65.952,1.844,63.999,4.766,63.999,8
			v12.688L36.687,48H23.999c-3.234,0-6.156,1.953-7.391,4.938c-1.242,2.992-0.555,6.43,1.734,8.719l48,48
			c1.531,1.531,3.578,2.344,5.656,2.344c1.031,0,2.07-0.195,3.063-0.609c2.984-1.234,4.938-4.156,4.938-7.391V91.313L107.312,64
			h12.688c3.234,0,6.156-1.953,7.391-4.938C128.632,56.07,127.944,52.633,125.655,50.344z M103.999,56l-32,32v16l-48-48h16l32-32V8
			l48,48H103.999z"/>
	</g>
</g>
</svg>
