<?xml version="1.0" encoding="utf-8"?>
<!-- Generator: Adobe Illustrator 16.0.0, SVG Export Plug-In . SVG Version: 6.00 Build 0)  -->
<!DOCTYPE svg PUBLIC "-//W3C//DTD SVG 1.1//EN" "http://www.w3.org/Graphics/SVG/1.1/DTD/svg11.dtd">
<svg version="1.1" id="Layer_1" xmlns="http://www.w3.org/2000/svg" xmlns:xlink="http://www.w3.org/1999/xlink" x="0px" y="0px"
	 width="128px" height="128px" viewBox="0 0 128 128" enable-background="new 0 0 128 128" xml:space="preserve">
<g id="Attach">
	<path d="M92,32c-2.211,0-4,1.789-4,4v60c0,13.234-10.766,24-24,24s-24-10.766-24-24V24c0-8.82,7.18-16,16-16s16,7.18,16,16v60
		c0,4.414-3.586,8-8,8s-8-3.586-8-8V36c0-2.211-1.789-4-4-4s-4,1.789-4,4v48c0,8.82,7.18,16,16,16s16-7.18,16-16V24
		C80,10.766,69.234,0,56,0S32,10.766,32,24v72c0,17.648,14.352,32,32,32s32-14.352,32-32V36C96,33.789,94.211,32,92,32z"/>
</g>
</svg>
