<?xml version="1.0" encoding="utf-8"?>
<!-- Generator: Adobe Illustrator 16.0.0, SVG Export Plug-In . SVG Version: 6.00 Build 0)  -->
<!DOCTYPE svg PUBLIC "-//W3C//DTD SVG 1.1//EN" "http://www.w3.org/Graphics/SVG/1.1/DTD/svg11.dtd">
<svg version="1.1" id="Layer_1" xmlns="http://www.w3.org/2000/svg" xmlns:xlink="http://www.w3.org/1999/xlink" x="0px" y="0px"
	 width="128px" height="128px" viewBox="0 0 128 128" enable-background="new 0 0 128 128" xml:space="preserve">
<g>
	<g>
		<path d="M97.469,32H30.531C28.117,38.793,22.793,44.121,16,46.531v34.938C22.793,83.875,28.125,89.207,30.531,96h66.938
			c2.41-6.793,7.738-12.121,14.531-14.531V46.531C105.207,44.121,99.879,38.793,97.469,32z M104,76.441
			c-4.789,2.785-8.773,6.77-11.559,11.559H64H35.559c-2.785-4.789-6.77-8.773-11.559-11.559V51.559
			c4.789-2.785,8.773-6.77,11.559-11.559H64h28.441c2.785,4.789,6.77,8.773,11.559,11.559V76.441z M88,64c0-13.254-10.746-24-24-24
			S40,50.746,40,64c0,13.252,10.746,24,24,24S88,77.252,88,64z M64,80c-8.824,0-16-7.176-16-16s7.176-16,16-16s16,7.176,16,16
			S72.824,80,64,80z M0,16v96h128V16H0z M120,96c-4.422,0-8,3.578-8,8H16c0-4.422-3.578-8-8-8V32c4.422,0,8-3.578,8-8h96
			c0,4.422,3.578,8,8,8V96z M20,40c2.211,0,4-1.789,4-4s-1.789-4-4-4s-4,1.789-4,4S17.789,40,20,40z M20,88c-2.211,0-4,1.789-4,4
			s1.789,4,4,4s4-1.789,4-4S22.211,88,20,88z M108,88c-2.211,0-4,1.789-4,4s1.789,4,4,4s4-1.789,4-4S110.211,88,108,88z M108,32
			c-2.211,0-4,1.789-4,4s1.789,4,4,4s4-1.789,4-4S110.211,32,108,32z"/>
	</g>
</g>
</svg>
