<?xml version="1.0" encoding="utf-8"?>
<!-- Generator: Adobe Illustrator 16.0.0, SVG Export Plug-In . SVG Version: 6.00 Build 0)  -->
<!DOCTYPE svg PUBLIC "-//W3C//DTD SVG 1.1//EN" "http://www.w3.org/Graphics/SVG/1.1/DTD/svg11.dtd">
<svg version="1.1" id="Layer_1" xmlns="http://www.w3.org/2000/svg" xmlns:xlink="http://www.w3.org/1999/xlink" x="0px" y="0px"
	 width="128px" height="128px" viewBox="0 0 128 128" enable-background="new 0 0 128 128" xml:space="preserve">
<g>
	<g>
		<path d="M112,16H16C7.164,16,0,23.164,0,32v64c0,8.836,7.164,16,16,16h96c8.836,0,16-7.164,16-16V32C128,23.164,120.836,16,112,16
			z M120,96c0,4.414-3.59,8-8,8H16c-4.41,0-8-3.586-8-8V32c0-4.414,3.59-8,8-8h96c4.41,0,8,3.586,8,8V96z M80,40
			c-4.689,0-9.029,1.398-12.727,3.723C72.639,48.824,76,56.012,76,64c0,7.986-3.361,15.174-8.727,20.275
			C70.971,86.602,75.311,88,80,88c13.254,0,24-10.746,24-24S93.254,40,80,40z M48,40c-13.254,0-24,10.746-24,24s10.746,24,24,24
			s24-10.746,24-24S61.254,40,48,40z"/>
	</g>
</g>
</svg>
