<?xml version="1.0" encoding="utf-8"?>
<!-- Generator: Adobe Illustrator 16.0.0, SVG Export Plug-In . SVG Version: 6.00 Build 0)  -->
<!DOCTYPE svg PUBLIC "-//W3C//DTD SVG 1.1//EN" "http://www.w3.org/Graphics/SVG/1.1/DTD/svg11.dtd">
<svg version="1.1" id="Layer_1" xmlns="http://www.w3.org/2000/svg" xmlns:xlink="http://www.w3.org/1999/xlink" x="0px" y="0px"
	 width="128px" height="128px" viewBox="0 0 128 128" enable-background="new 0 0 128 128" xml:space="preserve">
<g>
	<g>
		<path d="M123.316,100.688L86.625,64H88c2.125,0,4.156-0.844,5.656-2.344l8-8C103.219,52.094,104,50.047,104,48
			s-0.781-4.094-2.344-5.656l-40-40C60.093,0.781,58.046,0,56,0s-4.094,0.781-5.656,2.344l-8,8C40.843,11.844,40,13.875,40,16
			v12.688L28.687,40H16c-2.125,0-4.156,0.844-5.656,2.344l-8,8C0.781,51.906,0,53.953,0,56s0.781,4.094,2.344,5.656l40,40
			C43.906,103.219,45.953,104,48,104s4.094-0.781,5.656-2.344l8-8C63.156,92.156,64,90.125,64,88v-1.375l36.688,36.688
			C103.813,126.438,107.906,128,112,128c4.098,0,8.191-1.563,11.316-4.688C129.563,117.07,129.563,106.938,123.316,100.688z
			 M117.66,117.656c-1.512,1.508-3.523,2.344-5.66,2.344c-2.133,0-4.145-0.836-5.656-2.344L69.656,80.969L56,67.313v19.313V88l-8,8
			L8,56l8-8h12.688H32l2.344-2.344l11.313-11.313L48,32v-3.313V16l7.992-8c0.004,0,0.004,0,0.004,0H56l40,40l-8,8h-1.375H67.309
			l13.66,13.656l36.688,36.688c1.512,1.508,2.344,3.523,2.344,5.656C120,114.141,119.172,116.148,117.66,117.656z M56,112H8
			c-4.418,0-8,3.578-8,8s3.582,8,8,8h48c4.418,0,8-3.578,8-8S60.417,112,56,112z"/>
	</g>
</g>
</svg>
