<?xml version="1.0" encoding="utf-8"?>
<!-- Generator: Adobe Illustrator 16.0.0, SVG Export Plug-In . SVG Version: 6.00 Build 0)  -->
<!DOCTYPE svg PUBLIC "-//W3C//DTD SVG 1.1//EN" "http://www.w3.org/Graphics/SVG/1.1/DTD/svg11.dtd">
<svg version="1.1" id="Layer_1" xmlns="http://www.w3.org/2000/svg" xmlns:xlink="http://www.w3.org/1999/xlink" x="0px" y="0px"
	 width="128px" height="128px" viewBox="0 0 128 128" enable-background="new 0 0 128 128" xml:space="preserve">
<path d="M100,40H84V24c0-4.422-3.582-8-8-8H52c-4.418,0-8,3.578-8,8v40H28c-4.418,0-8,3.578-8,8v32c0,4.422,3.582,8,8,8h72
	c4.418,0,8-3.578,8-8V48C108,43.578,104.418,40,100,40z M44,104H28V72h16V104z M76,104H52V24h24V104z M100,104H84V48h16V104z"/>
</svg>
