<?xml version="1.0" encoding="utf-8"?>
<!-- Generator: Adobe Illustrator 16.0.0, SVG Export Plug-In . SVG Version: 6.00 Build 0)  -->
<!DOCTYPE svg PUBLIC "-//W3C//DTD SVG 1.1//EN" "http://www.w3.org/Graphics/SVG/1.1/DTD/svg11.dtd">
<svg version="1.1" id="Layer_1" xmlns="http://www.w3.org/2000/svg" xmlns:xlink="http://www.w3.org/1999/xlink" x="0px" y="0px"
	 width="128px" height="128px" viewBox="0 0 128 128" enable-background="new 0 0 128 128" xml:space="preserve">
<path fill-rule="evenodd" clip-rule="evenodd" d="M56.582,0.453c-13.823,1.61-27.231,7.666-37.835,18.269
	c-24.997,24.997-24.997,65.536,0,90.532C31.242,121.749,47.627,128,64.013,128c16.386,0,32.772-6.251,45.266-18.746
	c10.604-10.604,16.659-24.012,18.27-37.835H56.582V0.453z M117.836,79.421c-2.571,9.119-7.4,17.362-14.214,24.176
	c-10.58,10.58-24.646,16.401-39.609,16.401s-29.029-5.821-39.609-16.401c-21.84-21.84-21.84-57.377,0-79.217
	c6.814-6.813,15.058-11.643,24.176-14.213v69.255H117.836z M109.279,18.722C96.926,6.368,80.774,0.148,64.584,0v63.418h63.418
	C127.854,47.228,121.633,31.076,109.279,18.722z M72.585,8.65c11.721,1.79,22.535,7.228,31.037,15.729s13.94,19.316,15.729,31.037
	H72.585V8.65z"/>
</svg>
