<?xml version="1.0" encoding="utf-8"?>
<!-- Generator: Adobe Illustrator 16.0.0, SVG Export Plug-In . SVG Version: 6.00 Build 0)  -->
<!DOCTYPE svg PUBLIC "-//W3C//DTD SVG 1.1//EN" "http://www.w3.org/Graphics/SVG/1.1/DTD/svg11.dtd">
<svg version="1.1" id="Layer_1" xmlns="http://www.w3.org/2000/svg" xmlns:xlink="http://www.w3.org/1999/xlink" x="0px" y="0px"
	 width="128px" height="128px" viewBox="0 0 128 128" enable-background="new 0 0 128 128" xml:space="preserve">
<g>
	<g>
		<path d="M20,28.406V8c0-2.211-1.789-4-4-4s-4,1.789-4,4v20.406C13.293,28.141,14.629,28,16,28S18.707,28.141,20,28.406z
			 M12,83.594V120c0,2.211,1.789,4,4,4s4-1.789,4-4V83.594C18.707,83.859,17.371,84,16,84S13.293,83.859,12,83.594z M52,44.406V8
			c0-2.211-1.789-4-4-4s-4,1.789-4,4v36.406C45.293,44.141,46.629,44,48,44S50.707,44.141,52,44.406z M44,99.594V120
			c0,2.211,1.789,4,4,4s4-1.789,4-4V99.594C50.707,99.859,49.371,100,48,100S45.293,99.859,44,99.594z M84,20.406V8
			c0-2.211-1.789-4-4-4s-4,1.789-4,4v12.406C77.293,20.141,78.629,20,80,20S82.707,20.141,84,20.406z M76,75.594V120
			c0,2.211,1.789,4,4,4s4-1.789,4-4V75.594C82.707,75.859,81.371,76,80,76S77.293,75.859,76,75.594z M116,60.406V8
			c0-2.211-1.789-4-4-4s-4,1.789-4,4v52.406c1.293-0.266,2.629-0.406,4-0.406S114.707,60.141,116,60.406z M108,115.594V120
			c0,2.211,1.789,4,4,4s4-1.789,4-4v-4.406c-1.293,0.266-2.629,0.406-4,0.406S109.293,115.859,108,115.594z M16,36
			C9.371,36,4,41.371,4,48v16c0,6.629,5.371,12,12,12s12-5.371,12-12V48C28,41.371,22.629,36,16,36z M20,64c0,2.207-1.793,4-4,4
			s-4-1.793-4-4V48c0-2.207,1.793-4,4-4s4,1.793,4,4V64z M48,52c-6.629,0-12,5.371-12,12v16c0,6.629,5.371,12,12,12s12-5.371,12-12
			V64C60,57.371,54.629,52,48,52z M52,80c0,2.207-1.793,4-4,4s-4-1.793-4-4V64c0-2.207,1.793-4,4-4s4,1.793,4,4V80z M80,28
			c-6.629,0-12,5.371-12,12v16c0,6.629,5.371,12,12,12s12-5.371,12-12V40C92,33.371,86.629,28,80,28z M84,56c0,2.207-1.793,4-4,4
			s-4-1.793-4-4V40c0-2.207,1.793-4,4-4s4,1.793,4,4V56z M112,68c-6.629,0-12,5.371-12,12v16c0,6.629,5.371,12,12,12s12-5.371,12-12
			V80C124,73.371,118.629,68,112,68z M116,96c0,2.207-1.793,4-4,4s-4-1.793-4-4V80c0-2.207,1.793-4,4-4s4,1.793,4,4V96z"/>
	</g>
</g>
</svg>
