<?xml version="1.0" encoding="utf-8"?>
<!-- Generator: Adobe Illustrator 16.0.0, SVG Export Plug-In . SVG Version: 6.00 Build 0)  -->
<!DOCTYPE svg PUBLIC "-//W3C//DTD SVG 1.1//EN" "http://www.w3.org/Graphics/SVG/1.1/DTD/svg11.dtd">
<svg version="1.1" id="Layer_1" xmlns="http://www.w3.org/2000/svg" xmlns:xlink="http://www.w3.org/1999/xlink" x="0px" y="0px"
	 width="128px" height="128px" viewBox="0 0 128 128" enable-background="new 0 0 128 128" xml:space="preserve">
<g>
	<g>
		<path d="M100.773,21.57l-5.664,5.664c-1.563,1.563-1.563,4.086,0,5.656c1.57,1.563,4.094,1.563,5.664,0l5.656-5.656
			c1.563-1.57,1.563-4.094,0-5.664C104.859,20.008,102.336,20.008,100.773,21.57z M32.891,32.891c1.563-1.57,1.563-4.094,0-5.656
			l-5.656-5.664c-1.57-1.563-4.094-1.563-5.664,0c-1.563,1.57-1.563,4.094,0,5.664l5.664,5.656
			C28.797,34.453,31.32,34.453,32.891,32.891z M64,20c2.211,0,4-1.789,4-4V8c0-2.211-1.789-4-4-4s-4,1.789-4,4v8
			C60,18.211,61.789,20,64,20z M120,60h-8c-2.211,0-4,1.787-4,4c0,2.211,1.789,4,4,4h8c2.211,0,4-1.789,4-4
			C124,61.787,122.211,60,120,60z M16,60H8c-2.211,0-4,1.787-4,4c0,2.211,1.789,4,4,4h8c2.211,0,4-1.789,4-4
			C20,61.787,18.211,60,16,60z M64,44c-2.211,0-4,1.791-4,4s1.789,4,4,4c2.207,0,4-1.791,4-4S66.207,44,64,44z M64,28
			c-19.883,0-36,16.125-36,36c0,19.883,16.117,36,36,36s36-16.117,36-36C100,44.125,83.883,28,64,28z M64,92
			c-15.438,0-28-12.563-28-28s12.563-28,28-28s28,12.563,28,28S79.438,92,64,92z"/>
	</g>
</g>
</svg>
