<?xml version="1.0" encoding="utf-8"?>
<!-- Generator: Adobe Illustrator 16.0.0, SVG Export Plug-In . SVG Version: 6.00 Build 0)  -->
<!DOCTYPE svg PUBLIC "-//W3C//DTD SVG 1.1//EN" "http://www.w3.org/Graphics/SVG/1.1/DTD/svg11.dtd">
<svg version="1.1" id="Layer_1" xmlns="http://www.w3.org/2000/svg" xmlns:xlink="http://www.w3.org/1999/xlink" x="0px" y="0px"
	 width="128px" height="128px" viewBox="0 0 128 128" enable-background="new 0 0 128 128" xml:space="preserve">
<path d="M96.395,61.203c-2.602-2.184-6.016-4.363-10.309-6.574c4.746-0.23,9.098-2.121,12.648-5.5
	c3.891-3.723,5.945-8.5,5.945-13.82c0-5.617-2.367-10.91-7.039-15.723c-4.168-4.27-9.402-7.34-15.578-9.141
	C79.988,9.844,77.965,9.352,76,8.977V0H52v8.969c-7.824,1.621-14.461,4.832-19.797,9.586c-7.176,6.398-10.813,14.289-10.813,23.457
	c0,5.539,1.27,10.699,3.77,15.34c2.453,4.563,5.867,8.434,10.145,11.492c1.129,0.813,2.48,1.652,4.074,2.531
	c-5.16,0.16-9.77,2.016-13.379,5.398c-3.926,3.688-6,8.711-6,14.527c0,6.238,2.188,15.074,12.605,21.734
	c5.512,3.535,12.016,5.738,19.395,6.578V128h24v-9.473c8.426-1.93,15.355-5.234,20.652-9.852C104.18,102.121,108,94.043,108,84.672
	C108,75.664,104.094,67.77,96.395,61.203z M91.395,102.645c-5.555,4.844-13.387,7.879-23.395,9.191V120h-8v-8h-0.977
	c-8.805,0-16.172-1.898-22.109-5.707C30.969,102.492,28,97.496,28,91.301c0-3.625,1.16-6.52,3.473-8.691
	c2.309-2.164,5.191-3.246,8.637-3.246c3.289,0,5.969,0.891,8.035,2.684c2.059,1.793,3.086,4.105,3.086,6.934
	c0,3.762-1.75,6.699-5.246,8.824c-1.348,0.793-2.156,1.371-2.438,1.727s-0.422,0.754-0.422,1.191c0,1.195,1.004,2.254,3.016,3.184
	c2.777,1.328,7.066,2.082,12.883,2.258L60,106.125V71.637l-0.977-0.313c-9.422-3.621-15.766-6.613-19.063-8.984
	c-3.297-2.359-5.879-5.289-7.758-8.785c-1.883-3.492-2.813-7.34-2.813-11.543c0-6.813,2.703-12.641,8.137-17.484
	S50.113,16.844,59.023,16H60V8h8v8.086c3.445,0.105,7.352,0.738,11.82,2.039c4.859,1.418,8.887,3.762,12.078,7.031
	c3.18,3.277,4.781,6.66,4.781,10.152c0,3.145-1.152,5.816-3.465,8.027c-2.32,2.211-5.027,3.316-8.113,3.316
	c-2.777,0-5.113-0.828-7.023-2.496c-1.898-1.656-2.844-3.73-2.844-6.223c0-1.59,0.805-3.563,2.422-5.918
	c1.469-2.082,2.199-3.566,2.199-4.453c0-1.332-1.074-2.598-3.215-3.793c-1.973-1.098-4.922-1.664-8.641-1.836v33.535
	c11.031,4.188,18.809,8.133,23.203,11.82C97.063,72.285,100,78.082,100,84.672C100,91.656,97.133,97.648,91.395,102.645z
	 M46.789,26.727c-3.055,2.688-4.586,5.777-4.586,9.285c0,6.52,5.598,11.879,16.82,16.074L60,52.453V21.957l-0.977,0.016
	C53.93,22.461,49.852,24.047,46.789,26.727z M68,74.336v31.273c5.121-0.711,9.379-2.313,12.594-4.988
	c3.41-2.848,5.133-6,5.133-9.453c0-3.141-1.195-5.977-3.586-8.527C79.859,80.215,75.09,77.438,68,74.336z M76,94.012V87.82
	c0.141,0.125,0.242,0.227,0.313,0.301c1.246,1.328,1.414,2.285,1.414,3.047C77.727,91.992,77.145,92.949,76,94.012z"/>
</svg>
