<?xml version="1.0" encoding="utf-8"?>
<!-- Generator: Adobe Illustrator 16.0.0, SVG Export Plug-In . SVG Version: 6.00 Build 0)  -->
<!DOCTYPE svg PUBLIC "-//W3C//DTD SVG 1.1//EN" "http://www.w3.org/Graphics/SVG/1.1/DTD/svg11.dtd">
<svg version="1.1" id="Layer_1" xmlns="http://www.w3.org/2000/svg" xmlns:xlink="http://www.w3.org/1999/xlink" x="0px" y="0px"
	 width="128px" height="128px" viewBox="0 0 128 128" enable-background="new 0 0 128 128" xml:space="preserve">
<path d="M127.935,47.602c-0.063-1.285-0.355-2.566-1.047-3.719l-24.011-40C101.431,1.473,98.824,0,96.015,0H76.006H51.995H31.986
	c-2.81,0-5.417,1.473-6.862,3.883l-24.011,40C0.421,45.035,0.13,46.316,0.065,47.6c-0.023,0.232-0.078,0.457-0.063,0.686
	c0.059,1.645,0.596,3.268,1.653,4.625l56.025,72C59.197,126.859,61.53,128,64,128s4.803-1.141,6.319-3.09l56.025-72
	c1.055-1.357,1.594-2.98,1.652-4.625C128.013,48.059,127.958,47.832,127.935,47.602z M50.018,102.031L14.316,56.15l18.686,7.002
	L50.018,102.031z M42.107,64h43.785L64,114.02L42.107,64z M94.998,63.152l18.685-7.002l-35.699,45.881L94.998,63.152z
	 M118.665,45.736L94.67,54.73L81.313,8h14.702L118.665,45.736z M72.988,8l13.72,48H41.293L55.012,8H72.988z M31.986,8h14.702
	L33.33,54.73L9.335,45.736L31.986,8z"/>
</svg>
