<?xml version="1.0" encoding="utf-8"?>
<!-- Generator: Adobe Illustrator 16.0.0, SVG Export Plug-In . SVG Version: 6.00 Build 0)  -->
<!DOCTYPE svg PUBLIC "-//W3C//DTD SVG 1.1//EN" "http://www.w3.org/Graphics/SVG/1.1/DTD/svg11.dtd">
<svg version="1.1" id="Layer_1" xmlns="http://www.w3.org/2000/svg" xmlns:xlink="http://www.w3.org/1999/xlink" x="0px" y="0px"
	 width="128px" height="128px" viewBox="0 0 128 128" enable-background="new 0 0 128 128" xml:space="preserve">
<path d="M123.797,60C121.816,30.068,97.93,6.182,68,4.203V4h-8v0.203C30.068,6.182,6.182,30.068,4.203,60H4v8h0.203
	C6.182,97.93,30.068,121.816,60,123.797V124h8v-0.203c29.93-1.98,53.816-25.867,55.797-55.797H124v-8H123.797z M91.906,68h22.617
	c-3.164,4.656-11.445,9.648-23.656,12.797C91.422,76.695,91.766,72.414,91.906,68z M90.867,47.203
	c12.211,3.148,20.492,8.141,23.656,12.797H91.906C91.766,55.586,91.422,51.305,90.867,47.203z M113.559,48.285
	c-6.039-4.143-14.383-7.492-24.207-9.637c-2.145-9.824-5.494-18.168-9.637-24.207C95.766,19.543,108.457,32.234,113.559,48.285z
	 M80.797,37.133c-4.102-0.555-8.383-0.898-12.797-1.039V13.477C72.656,16.641,77.648,24.922,80.797,37.133z M60,13.477v22.617
	c-4.414,0.141-8.695,0.484-12.797,1.039C50.352,24.922,55.344,16.641,60,13.477z M60,44.094V60H44.094
	c0.164-5.195,0.648-10.047,1.383-14.523C49.953,44.742,54.805,44.258,60,44.094z M60,68v15.906
	c-5.195-0.164-10.047-0.648-14.523-1.383c-0.734-4.477-1.219-9.328-1.383-14.523H60z M60,91.906v22.617
	c-4.656-3.164-9.648-11.445-12.797-23.656C51.305,91.422,55.586,91.766,60,91.906z M68,114.523V91.906
	c4.414-0.141,8.695-0.484,12.797-1.039C77.648,103.078,72.656,111.359,68,114.523z M68,83.906V68h15.906
	c-0.164,5.195-0.648,10.047-1.383,14.523C78.047,83.258,73.195,83.742,68,83.906z M68,60V44.094
	c5.195,0.164,10.047,0.648,14.523,1.383c0.734,4.477,1.219,9.328,1.383,14.523H68z M48.285,14.441
	c-4.143,6.039-7.492,14.383-9.637,24.207c-9.824,2.145-18.168,5.494-24.207,9.637C19.543,32.234,32.234,19.543,48.285,14.441z
	 M36.094,60H13.477c3.164-4.656,11.445-9.648,23.656-12.797C36.578,51.305,36.234,55.586,36.094,60z M37.133,80.797
	C24.922,77.648,16.641,72.656,13.477,68h22.617C36.234,72.414,36.578,76.695,37.133,80.797z M14.441,79.715
	c6.039,4.141,14.383,7.492,24.207,9.637c2.145,9.824,5.494,18.168,9.637,24.207C32.234,108.457,19.543,95.766,14.441,79.715z
	 M79.715,113.559c4.143-6.039,7.492-14.383,9.637-24.207c9.824-2.145,18.168-5.496,24.207-9.637
	C108.457,95.766,95.766,108.457,79.715,113.559z"/>
</svg>
