<?xml version="1.0" encoding="utf-8"?>
<!-- Generator: Adobe Illustrator 16.0.0, SVG Export Plug-In . SVG Version: 6.00 Build 0)  -->
<!DOCTYPE svg PUBLIC "-//W3C//DTD SVG 1.1//EN" "http://www.w3.org/Graphics/SVG/1.1/DTD/svg11.dtd">
<svg version="1.1" id="Layer_1" xmlns="http://www.w3.org/2000/svg" xmlns:xlink="http://www.w3.org/1999/xlink" x="0px" y="0px"
	 width="128px" height="128px" viewBox="0 0 128 128" enable-background="new 0 0 128 128" xml:space="preserve">
<g>
	<g>
		<path fill-rule="evenodd" clip-rule="evenodd" d="M81.352,71.172c-2.625-1.305-4.477-4.031-4.477-7.172s1.742-5.93,4.367-7.234
			C94.883,48.305,104,33.234,104,16c0-8.836-7.164-16-16-16H40c-8.836,0-16,7.164-16,16c0,17.234,9.117,32.305,22.756,40.766
			c2.627,1.305,4.369,4.094,4.369,7.234s-1.852,5.867-4.477,7.172C33,79.633,24,94.758,24,112c0,8.836,7.164,16,16,16h48
			c8.836,0,16-7.164,16-16C104,94.758,95,79.633,81.352,71.172z M96,112c0,4.414-3.586,8-8,8v-8h-8v8h-8v-8h-8v8h-8v-8h-8v8h-8v-8
			h-8c0-2.727,0.277-5.401,0.796-8H40v-8h-4.702c3.133-7.259,8.385-13.504,15.319-17.875c2.151-1.148,3.976-2.771,5.383-4.692v6.565
			h8V72h-7.061c1.397-2.4,2.186-5.154,2.186-8c0-5.93-3.281-11.445-8.398-14.188C38.992,42.422,32,29.805,32,16c0-4.41,3.586-8,8-8
			h48c4.414,0,8,3.59,8,8c0,13.805-6.992,26.422-18.727,33.813C72.156,52.555,68.875,58.07,68.875,64H64v8h7.061
			c1.483,2.55,3.654,4.7,6.322,6.125C86.758,84.027,93.08,93.355,95.204,104H88v8H96z M80,96v-8h-8v8H80z M64,96v8h8v-8H64z M80,96
			v8h8v-8H80z M72,104v8h8v-8H72z M56,104v8h8v-8H56z M64,96v-8h-8v8H64z M48,96v8h8v-8H48z M40,104v8h8v-8H40z M48,88h-8v8h8V88z
			 M48,88h8v-8.002h-8V88z M72,88v-8.002h-8V88H72z"/>
	</g>
</g>
</svg>
