<?xml version="1.0" encoding="utf-8"?>
<!-- Generator: Adobe Illustrator 16.0.0, SVG Export Plug-In . SVG Version: 6.00 Build 0)  -->
<!DOCTYPE svg PUBLIC "-//W3C//DTD SVG 1.1//EN" "http://www.w3.org/Graphics/SVG/1.1/DTD/svg11.dtd">
<svg version="1.1" id="Layer_1" xmlns="http://www.w3.org/2000/svg" xmlns:xlink="http://www.w3.org/1999/xlink" x="0px" y="0px"
	 width="128px" height="128px" viewBox="0 0 128 128" enable-background="new 0 0 128 128" xml:space="preserve">
<g>
	<g>
		<path d="M108,8h-8V4c0-2.211-1.789-4-4-4s-4,1.789-4,4v4h-8V4c0-2.211-1.789-4-4-4s-4,1.789-4,4v4h-8V4c0-2.211-1.789-4-4-4
			s-4,1.789-4,4v4h-8V4c0-2.211-1.789-4-4-4s-4,1.789-4,4v4h-8V4c0-2.211-1.789-4-4-4s-4,1.789-4,4v4h-8C11.164,8,4,15.164,4,24v88
			c0,8.836,7.164,16,16,16h88c8.836,0,16-7.164,16-16V24C124,15.164,116.836,8,108,8z M116,112c0,4.414-3.59,8-8,8H20
			c-4.412,0-8-3.586-8-8V24c0-4.416,3.588-8,8-8h8v4c0,2.211,1.789,4,4,4s4-1.789,4-4v-4h8v4c0,2.211,1.789,4,4,4s4-1.789,4-4v-4h8
			v4c0,2.211,1.789,4,4,4s4-1.789,4-4v-4h8v4c0,2.211,1.789,4,4,4s4-1.789,4-4v-4h8v4c0,2.211,1.789,4,4,4s4-1.789,4-4v-4h8
			c4.41,0,8,3.584,8,8V112z M20,112h88V40H20V112z M92,48h8v8h-8V48z M92,64h8v8h-8V64z M92,80h8v8h-8V80z M92,96h8v8h-8V96z M76,48
			h8v8h-8V48z M76,64h8v8h-8V64z M76,80h8v8h-8V80z M76,96h8v8h-8V96z M60,48h8v8h-8V48z M60,64h8v8h-8V64z M60,80h8v8h-8V80z
			 M60,96h8v8h-8V96z M44,48h8v8h-8V48z M44,64h8v8h-8V64z M44,80h8v8h-8V80z M44,96h8v8h-8V96z M28,48h8v8h-8V48z M28,64h8v8h-8V64
			z M28,80h8v8h-8V80z M28,96h8v8h-8V96z"/>
	</g>
</g>
</svg>
