<?xml version="1.0" encoding="utf-8"?>
<!-- Generator: Adobe Illustrator 16.0.0, SVG Export Plug-In . SVG Version: 6.00 Build 0)  -->
<!DOCTYPE svg PUBLIC "-//W3C//DTD SVG 1.1//EN" "http://www.w3.org/Graphics/SVG/1.1/DTD/svg11.dtd">
<svg version="1.1" id="Layer_1" xmlns="http://www.w3.org/2000/svg" xmlns:xlink="http://www.w3.org/1999/xlink" x="0px" y="0px"
	 width="128px" height="128px" viewBox="0 0 128 128" enable-background="new 0 0 128 128" xml:space="preserve">
<g>
	<g>
		<path d="M32,56v-8h-8v8H32z M24,56h-8v8h8V56z M32,64h-8v8h8V64z M32,72v8h8v-8H32z M40,56h-8v8h8V56z M48,56v-8h-8v8H48z M40,64
			v8h8v-8H40z M48,72v8h8v-8H48z M56,64v-8h-8v8H56z M64,56v-8h-8v8H64z M56,64v8h8v-8H56z M64,72v8h8v-8H64z M64,56v8h8v-8H64z
			 M80,56v-8h-8v8H80z M72,64v8h8v-8H72z M80,64h8v-8h-8V64z M28,104c-6.629,0-12,5.371-12,12s5.371,12,12,12s12-5.371,12-12
			S34.629,104,28,104z M28,120c-2.207,0-4-1.793-4-4c0-2.211,1.793-4,4-4s4,1.789,4,4C32,118.207,30.207,120,28,120z M76,104
			c-6.629,0-12,5.371-12,12s5.371,12,12,12s12-5.371,12-12S82.629,104,76,104z M76,120c-2.207,0-4-1.793-4-4c0-2.211,1.793-4,4-4
			s4,1.789,4,4C80,118.207,78.207,120,76,120z M124,0h-15c-1.836,0-3.434,1.25-3.879,3.031L97.879,32H8
			c-2.465,0-4.789,1.137-6.305,3.078s-2.055,4.473-1.457,6.863l12,48C13.129,93.5,16.328,96,20,96h64c3.672,0,6.871-2.5,7.762-6.059
			L112.125,8H124c2.211,0,4-1.789,4-4S126.211,0,124,0z M93.899,48H88v8h3.919l-1.979,8H88v7.837L87.96,72H80v8h5.979L84,88h-4v-8
			h-8v8h-8v-8h-8v8h-8v-8h-8v8h-8v-8h-8v8h-4l-2-8h6v-8h-8v-0.001V64h-2l-2-8h4v-8h-6l-2-8h8v8h8v-8h8v8h8v-8h8v8h8v-8h8v8h8v-8h8v8
			h8v-8h7.879L93.899,48z"/>
	</g>
</g>
</svg>
