<?xml version="1.0" encoding="utf-8"?>
<!-- Generator: Adobe Illustrator 16.0.0, SVG Export Plug-In . SVG Version: 6.00 Build 0)  -->
<!DOCTYPE svg PUBLIC "-//W3C//DTD SVG 1.1//EN" "http://www.w3.org/Graphics/SVG/1.1/DTD/svg11.dtd">
<svg version="1.1" id="Layer_1" xmlns="http://www.w3.org/2000/svg" xmlns:xlink="http://www.w3.org/1999/xlink" x="0px" y="0px"
	 width="128px" height="128px" viewBox="0 0 128 128" enable-background="new 0 0 128 128" xml:space="preserve">
<g>
	<g>
		<path d="M104,56v7.998h7.999V56H104z M96,56h-8v7.998h8V56z M80,56h-8v7.998h8V56z M64,56h-8v7.998h8V56z M48,56h-8v7.998h8V56z
			 M32,56h-8v7.998h8V56z M96,63.999V72h8v-8.001H96z M88,72v-8.001h-8V72H88z M72,72v-8.001h-8V72H72z M56,72v-8.001h-8V72H56z
			 M40,72v-8.001h-8V72H40z M24,63.999h-8V72h8V63.999z M88,80h8v-8h-8V80z M80,80v-8h-8v8H80z M64,80v-8h-8v8H64z M48,80v-8h-8v8
			H48z M32,72h-8v8h8V72z M96,88h8v-8h-8V88z M80,88h8v-8h-8V88z M64,80v8h8v-8H64z M48,80v8h8v-8H48z M40,80h-8v8h8V80z M88,96h8
			v-8h-8V96z M72,88v8h8v-8H72z M56,88v8h8v-8H56z M40,88v8h8v-8H40z M32,88h-8v8h8V88z M96,104h8v-8h-8V104z M80,96v8h8v-8H80z
			 M64,96v8h8v-8H64z M48,96v8h8v-8H48z M32,96v8h8v-8H32z M76,24H52c-2.211,0-4,1.789-4,4s1.789,4,4,4h24c2.211,0,4-1.789,4-4
			S78.211,24,76,24z M125.46,36.618c-2.273-2.914-5.766-4.617-9.461-4.617H99.125c-1.688,0-3.039-1.086-3.617-2.563
			c-0.117-0.346-8.352-17.016-8.352-17.016C85.797,9.711,83.031,8,80,8H48c-3.031,0-5.797,1.711-7.156,4.422
			c0,0-8.156,16.477-8.25,16.711l-0.023-0.055l-0.039-0.008C32.063,30.75,30.579,32,28.75,32h-16.75
			c-3.695,0-7.188,1.703-9.461,4.617s-3.078,6.711-2.18,10.289l16,64C17.696,116.25,22.493,120,28,120h72
			c5.508,0,10.305-3.75,11.641-9.094l15.999-64C128.538,43.329,127.733,39.532,125.46,36.618z M119.882,44.969L115.124,64
			l-3.125-0.001V72h1.126l-1.126,4.502V72H104v8h7.125l-2,8H104v8h3.125l-2,8H104v4.5l-0.117,0.469
			C103.43,110.75,101.836,112,100,112h-4v-8h-8v8h-8v-8h-8v8h-8v-8h-8v8h-8v-8h-8v8h-8v-8h-8v4.5l-1.125-4.5H24v-8h-3.125l-2-8H24
			v-8h-7.125L16,76.499V72h-1.125l-2-8.001H16V56h-5.125l-2.76-11.039c-0.295-1.18-0.021-2.461,0.729-3.422
			C9.603,40.579,10.774,40,12.001,40h16.75c4.641,0,8.828-2.75,10.781-6.875c0.117-0.211,0.227-0.422,0.328-0.641
			C40.5,31.157,48,16,48,16h32l-0.016-0.039c0.008,0.023,7.563,15.313,8.07,16.391C89.875,37,94.219,40,99.125,40h16.874
			c1.227,0,2.398,0.578,3.156,1.539C119.905,42.5,120.179,43.782,119.882,44.969z"/>
	</g>
</g>
</svg>
