<?xml version="1.0" encoding="utf-8"?>
<!-- Generator: Adobe Illustrator 16.0.0, SVG Export Plug-In . SVG Version: 6.00 Build 0)  -->
<!DOCTYPE svg PUBLIC "-//W3C//DTD SVG 1.1//EN" "http://www.w3.org/Graphics/SVG/1.1/DTD/svg11.dtd">
<svg version="1.1" id="Layer_1" xmlns="http://www.w3.org/2000/svg" xmlns:xlink="http://www.w3.org/1999/xlink" x="0px" y="0px"
	 width="128px" height="128px" viewBox="0 0 128 128" enable-background="new 0 0 128 128" xml:space="preserve">
<g>
	<g>
		<path d="M127.891,118.684l-0.016-0.094V73.305c0.367-4.52-1.105-9.16-4.563-12.617l-56-56C64.188,1.561,60.094,0,56,0
			s-8.188,1.561-11.313,4.688l-40,39.998c-6.25,6.248-6.25,16.381,0,22.627l56,56C63.813,126.438,67.906,128,72,128h48
			c2.105,0,4.145-0.832,5.656-2.344C127.484,123.828,128.316,121.234,127.891,118.684z M72,120c-2.137,0-4.145-0.832-5.656-2.344
			l-56-56.004C8.832,60.145,8,58.137,8,56s0.832-4.145,2.344-5.656l40-40C51.855,8.832,53.863,8,56,8s4.145,0.832,5.656,2.344l56,56
			c2.219,2.219,2.359,4.91,2.246,6.313l-0.027,0.324v45.609l0.016,0.758L120,120H72z M88,71.998c-8.836,0-16,7.164-16,16.002
			c0,8.836,7.164,16,16,16s16-7.164,16-16C104,79.162,96.836,71.998,88,71.998z M88,96c-4.41,0-8-3.59-8-8s3.59-8,8-8s8,3.59,8,8
			S92.41,96,88,96z"/>
	</g>
</g>
</svg>
