<?xml version="1.0" encoding="utf-8"?>
<!-- Generator: Adobe Illustrator 16.0.0, SVG Export Plug-In . SVG Version: 6.00 Build 0)  -->
<!DOCTYPE svg PUBLIC "-//W3C//DTD SVG 1.1//EN" "http://www.w3.org/Graphics/SVG/1.1/DTD/svg11.dtd">
<svg version="1.1" id="Layer_1" xmlns="http://www.w3.org/2000/svg" xmlns:xlink="http://www.w3.org/1999/xlink" x="0px" y="0px"
	 width="128px" height="128px" viewBox="0 0 128 128" enable-background="new 0 0 128 128" xml:space="preserve">
<g>
	<g>
		<path d="M8.766,119.203c-0.498-0.504-0.775-1.199-0.768-1.906c0.023-1.344,0.393-13.309,6.707-19.625
			c2.912-2.914,9.015-6.07,17.989-10.561c9.578-4.785,14.888-7.639,17.336-9.953l5.396-5.102l-4.689-5.76
			c-7.385-9.072-11.623-19.09-11.623-27.482c0-6.473,0-13.809,3.063-19.877C45.846,11.68,53.188,8,64.009,8
			c10.817,0,18.163,3.68,21.827,10.936c3.063,6.07,3.063,13.406,3.063,19.879c0,8.391-4.238,18.408-11.625,27.482L75.889,68h10.135
			c6.911-9.561,10.876-19.957,10.876-29.186c0-7,0-15.713-3.92-23.482C89.446,8.338,81.555,0,64.009,0
			c-17.547,0-25.44,8.338-28.971,15.332c-3.923,7.77-3.923,16.48-3.923,23.482c0,10.318,4.926,22.1,13.419,32.533
			c-2.028,1.918-10.391,6.098-15.416,8.607c-9.967,4.984-16.29,8.279-20.07,12.061c-8.372,8.371-9.005,22.422-9.046,25.156
			c-0.045,2.852,1.057,5.609,3.063,7.648c2.005,2.031,4.744,3.18,7.601,3.18h57.314v-8H10.666
			C9.956,120,9.263,119.711,8.766,119.203z M116.965,100l7.518-7.516C126.749,90.219,128,87.203,128,84s-1.251-6.219-3.518-8.484
			C122.217,73.25,119.2,72,115.995,72c-3.204,0-6.221,1.25-8.487,3.516l-7.518,7.516l-7.519-7.516C90.205,73.25,87.189,72,83.985,72
			s-6.221,1.25-8.487,3.516S71.981,80.797,71.981,84s1.25,6.219,3.517,8.484L83.017,100l-7.519,7.516
			c-2.267,2.266-3.517,5.281-3.517,8.484s1.25,6.219,3.517,8.484S80.781,128,83.985,128s6.22-1.25,8.486-3.516l7.519-7.516
			l7.518,7.516c2.267,2.266,5.283,3.516,8.487,3.516c3.205,0,6.222-1.25,8.487-3.516c2.267-2.266,3.518-5.281,3.518-8.484
			s-1.251-6.219-3.518-8.484L116.965,100z M118.824,118.828c-0.781,0.781-1.805,1.172-2.829,1.172c-1.023,0-2.047-0.391-2.829-1.172
			L99.99,105.656l-13.176,13.172c-0.781,0.781-1.806,1.172-2.829,1.172s-2.048-0.391-2.829-1.172c-1.563-1.563-1.563-4.094,0-5.656
			L94.332,100L81.156,86.828c-1.563-1.563-1.563-4.094,0-5.656C81.938,80.391,82.962,80,83.985,80s2.048,0.391,2.829,1.172
			L99.99,94.344l13.176-13.172c0.782-0.781,1.806-1.172,2.829-1.172c1.024,0,2.048,0.391,2.829,1.172
			c1.563,1.563,1.563,4.094,0,5.656L105.648,100l13.176,13.172C120.388,114.734,120.388,117.266,118.824,118.828z"/>
	</g>
</g>
</svg>
