<?xml version="1.0" encoding="utf-8"?>
<!-- Generator: Adobe Illustrator 16.0.0, SVG Export Plug-In . SVG Version: 6.00 Build 0)  -->
<!DOCTYPE svg PUBLIC "-//W3C//DTD SVG 1.1//EN" "http://www.w3.org/Graphics/SVG/1.1/DTD/svg11.dtd">
<svg version="1.1" id="Layer_1" xmlns="http://www.w3.org/2000/svg" xmlns:xlink="http://www.w3.org/1999/xlink" x="0px" y="0px"
	 width="128px" height="128px" viewBox="0 0 128 128" enable-background="new 0 0 128 128" xml:space="preserve">
<g id="Male">
	<g>
		<path fill-rule="evenodd" clip-rule="evenodd" d="M104,8H81.375c-4.273,0-8.297,1.664-11.313,4.684
			c-3.023,3.031-4.688,7.051-4.688,11.316c0,4.41,1.797,8.41,4.688,11.305l-7.516,7.52C58.031,41.055,53.148,40,48,40
			C25.906,40,8,57.91,8,80s17.906,40,40,40s40-17.91,40-40c0-5.145-1.055-10.027-2.828-14.547l7.523-7.52
			c2.898,2.898,6.891,4.691,11.305,4.691c8.82,0,16-7.176,16-16V24C120,15.176,112.82,8,104,8z M112,46.625c0,4.41-3.586,8-8,8
			c-2.125,0-4.133-0.836-5.648-2.348l-5.656-5.656l-5.656,5.652L75.813,63.5l1.914,4.875C79.234,72.223,80,76.133,80,80
			c0,17.645-14.352,32-32,32S16,97.645,16,80s14.352-32,32-32c3.867,0,7.781,0.766,11.625,2.273l4.875,1.91l3.703-3.703l7.516-7.52
			l5.656-5.652l-5.648-5.656c-1.516-1.516-2.352-3.523-2.352-5.652c0-2.133,0.836-4.148,2.352-5.664
			c1.5-1.508,3.508-2.336,5.648-2.336H104c4.414,0,8,3.59,8,8V46.625z M48,56c-13.258,0-24,10.746-24,24s10.742,24,24,24
			s24-10.746,24-24S61.258,56,48,56z M48,96c-8.82,0-16-7.176-16-16s7.18-16,16-16s16,7.176,16,16S56.82,96,48,96z"/>
	</g>
</g>
</svg>
