<?xml version="1.0" encoding="utf-8"?>
<!-- Generator: Adobe Illustrator 16.0.0, SVG Export Plug-In . SVG Version: 6.00 Build 0)  -->
<!DOCTYPE svg PUBLIC "-//W3C//DTD SVG 1.1//EN" "http://www.w3.org/Graphics/SVG/1.1/DTD/svg11.dtd">
<svg version="1.1" id="Layer_1" xmlns="http://www.w3.org/2000/svg" xmlns:xlink="http://www.w3.org/1999/xlink" x="0px" y="0px"
	 width="128px" height="128px" viewBox="0 0 128 128" enable-background="new 0 0 128 128" xml:space="preserve">
<g>
	<g>
		<path d="M108,39.998h-8V32c0-17.672-14.328-32-32-32h-8C42.328,0,28,14.328,28,32v7.998h-8c-8.836,0-16,7.164-16,16.002v56
			c0,8.84,7.164,16,16,16h88c8.836,0,16-7.16,16-16V56C124,47.162,116.836,39.998,108,39.998z M36,32C36,18.766,46.766,8,60,8h8
			c13.234,0,24,10.766,24,24v7.998h-8V32c0-8.824-7.18-16-16-16h-8c-8.82,0-16,7.176-16,16v7.998h-8V32z M76,32v7.998H52V32
			c0-4.418,3.578-8,8-8h8C72.422,24,76,27.582,76,32z M116,112c0,4.41-3.586,8-8,8H20c-4.414,0-8-3.59-8-8V56c0-4.41,3.586-8,8-8h88
			c4.414,0,8,3.59,8,8V112z M64,64c-6.625,0-12,5.371-12,12c0,5.219,3.352,9.613,8,11.266V100c0,2.211,1.789,4,4,4s4-1.789,4-4
			V87.266c4.648-1.652,8-6.047,8-11.266C76,69.371,70.625,64,64,64z"/>
	</g>
</g>
</svg>
