<?xml version="1.0" encoding="utf-8"?>
<!-- Generator: Adobe Illustrator 16.0.0, SVG Export Plug-In . SVG Version: 6.00 Build 0)  -->
<!DOCTYPE svg PUBLIC "-//W3C//DTD SVG 1.1//EN" "http://www.w3.org/Graphics/SVG/1.1/DTD/svg11.dtd">
<svg version="1.1" id="Layer_1" xmlns="http://www.w3.org/2000/svg" xmlns:xlink="http://www.w3.org/1999/xlink" x="0px" y="0px"
	 width="128px" height="128px" viewBox="0 0 128 128" enable-background="new 0 0 128 128" xml:space="preserve">
<g>
	<g>
		<path fill-rule="evenodd" clip-rule="evenodd" d="M124.773,46.375c-3.023-4.008-7.754-6.367-12.773-6.367H75.996L76,39.984
			c-4.418,0-8-3.578-8-8c0-0.391,3.18-10.906,3.18-10.906c2.793-8.383-1.738-17.445-10.124-20.242C59.378,0.273,57.671,0,55.988,0
			C49.3,0,43.05,4.25,40.82,10.953l-8,24c-0.562,1.685-0.726,3.37-0.719,5.047H12C5.371,40,0,45.375,0,52v56c0,6.625,5.371,12,12,12
			h22.157c2.768,4.776,7.924,8,13.843,8h48c7.145,0,13.422-4.734,15.383-11.602l16-55.992
			C128.766,55.578,127.797,50.383,124.773,46.375z M96,120H48c-4.41,0-8-3.586-8-7.992V41.281c0.07-0.43,0.102-0.867,0.102-1.313
			c-0.004-1.047,0.094-1.844,0.309-2.484l8-24.008C49.5,10.203,52.546,8,55.988,8c0.852,0,1.699,0.141,2.539,0.422
			c4.188,1.398,6.458,5.938,4.996,10.344C60,30.414,60,30.594,60,31.984c0,8.531,6.711,15.523,15.133,15.977
			c0.285,0.031,0.574,0.047,0.863,0.047H112c2.496,0,4.883,1.188,6.387,3.188c1.504,1.992,1.992,4.609,1.305,7.016L118.037,64H92
			c-2.213,0-4,1.789-4,4s1.787,4,4,4h23.751l-2.286,8H84c-2.211,0-4,1.789-4,4s1.789,4,4,4h27.179l-2.286,8H76c-2.211,0-4,1.789-4,4
			s1.789,4,4,4h30.607l-2.916,10.203C102.715,117.617,99.555,120,96,120z"/>
	</g>
</g>
</svg>
