<?xml version="1.0" encoding="utf-8"?>
<!-- Generator: Adobe Illustrator 16.0.0, SVG Export Plug-In . SVG Version: 6.00 Build 0)  -->
<!DOCTYPE svg PUBLIC "-//W3C//DTD SVG 1.1//EN" "http://www.w3.org/Graphics/SVG/1.1/DTD/svg11.dtd">
<svg version="1.1" id="Layer_1" xmlns="http://www.w3.org/2000/svg" xmlns:xlink="http://www.w3.org/1999/xlink" x="0px" y="0px"
	 width="128px" height="128px" viewBox="0 0 128 128" enable-background="new 0 0 128 128" xml:space="preserve">
<g>
	<g>
		<path fill-rule="evenodd" clip-rule="evenodd" d="M127.383,67.594l-16-55.992C109.422,4.734,103.145,0,96,0H48
			C42.08,0,36.924,3.224,34.156,8H12C5.371,8,0,13.375,0,20v56c0,6.625,5.371,12,12,12h20.102c-0.007,1.678,0.157,3.361,0.719,5.047
			l8,24C43.05,123.75,49.3,128,55.988,128c1.684,0,3.391-0.273,5.068-0.836c8.385-2.797,12.917-11.859,10.124-20.242
			c0,0-3.18-10.516-3.18-10.906c0-4.422,3.582-8,8-8l-0.004-0.023H112c5.02,0,9.75-2.359,12.773-6.367
			S128.766,72.422,127.383,67.594z M103.691,13.797L106.607,24H76c-2.211,0-4,1.789-4,4s1.789,4,4,4h32.893l2.286,8H84
			c-2.211,0-4,1.789-4,4s1.789,4,4,4h29.465l2.286,8H92c-2.213,0-4,1.789-4,4s1.787,4,4,4h26.037l1.654,5.789
			c0.688,2.406,0.199,5.023-1.305,7.016c-1.504,2-3.891,3.188-6.387,3.188H75.996c-0.289,0-0.578,0.016-0.863,0.047
			C66.711,80.492,60,87.484,60,96.016c0,1.391,0,1.57,3.523,13.219c1.461,4.406-0.809,8.945-4.996,10.344
			c-0.84,0.281-1.688,0.422-2.539,0.422c-3.441,0-6.488-2.203-7.578-5.477l-8-24.008c-0.215-0.641-0.313-1.438-0.309-2.484
			c0-0.445-0.031-0.883-0.102-1.313V15.992C40,11.586,43.589,8,48,8h48C99.555,8,102.715,10.383,103.691,13.797z"/>
	</g>
</g>
</svg>
