<?xml version="1.0" encoding="utf-8"?>
<!-- Generator: Adobe Illustrator 16.0.0, SVG Export Plug-In . SVG Version: 6.00 Build 0)  -->
<!DOCTYPE svg PUBLIC "-//W3C//DTD SVG 1.1//EN" "http://www.w3.org/Graphics/SVG/1.1/DTD/svg11.dtd">
<svg version="1.1" id="Layer_1" xmlns="http://www.w3.org/2000/svg" xmlns:xlink="http://www.w3.org/1999/xlink" x="0px" y="0px"
	 width="128px" height="128px" viewBox="0 0 128 128" enable-background="new 0 0 128 128" xml:space="preserve">
<g>
	<g>
		<path d="M12,0C5.371,0,0,5.371,0,12v104c0,6.629,5.371,12,12,12s12-5.371,12-12V12C24,5.371,18.629,0,12,0z M16,116
			c0,2.207-1.793,4-4,4s-4-1.793-4-4V12c0-2.207,1.793-4,4-4s4,1.793,4,4V116z M56,40h-8v8h8V40z M56,24h-8v8h8V24z M64,32h-8v8h8
			V32z M64,48h-8v8h8V48z M64,56v8h8v-8H64z M72,48v8h8v-8H72z M72,40h-8v8h8V40z M72,32v-8h-8v8H72z M72,40h8v-8h-8V40z M88,48v-8
			h-8v8H88z M88,56h-8v8h8V56z M88,64v8h8v-8H88z M96,48h-8v8h8V48z M96,40v-8h-8v8H96z M96,48h8v-8h-8V48z M96,64h8v-8h-8V64z
			 M104,72h8v-8h-8V72z M104,56h8v-8h-8V56z M107.711,25.238c-18.473,0-36.949-18.477-55.422-18.477
			C45.523,6.762,38.762,9.238,32,16v64c6.766-6.766,13.523-9.238,20.289-9.238c18.473,0.004,36.949,18.477,55.422,18.477
			c6.766,0,13.527-2.477,20.289-9.238V16C121.234,22.766,114.477,25.238,107.711,25.238z M120,40h-8v8h8v8h-8v8h8v8h-8v8h2.2
			c-0.725,0.288-1.459,0.516-2.2,0.702V80h-8v0.912c-1.293-0.212-2.607-0.521-3.942-0.912H104v-8h-8v6.609
			c-2.604-1.012-5.274-2.245-8-3.573V72h-6.115c-0.627-0.313-1.255-0.624-1.885-0.934V64h-8v3.372
			c-5.172-2.173-10.482-3.867-16-4.415V56h-8v7.039c-2.742,0.349-5.413,1.029-8,2.051V56h8v-8h-8v-8h8v-8h-8v-8h8v-8h-2.2
			c2.084-0.829,4.229-1.238,6.489-1.238c2.464,0,5.02,0.466,7.652,1.238H56v8h8v-6.609c2.604,1.012,5.274,2.246,8,3.574V24h6.112
			c0.628,0.313,1.257,0.625,1.888,0.935V32h8v-3.371c2.628,1.104,5.292,2.082,8,2.853V32h1.962c1.986,0.483,3.998,0.841,6.038,1.043
			V40h8v-7.039c1.606-0.205,3.188-0.524,4.741-0.961H120V40z"/>
	</g>
</g>
</svg>
