<?xml version="1.0" encoding="utf-8"?>
<!-- Generator: Adobe Illustrator 16.0.0, SVG Export Plug-In . SVG Version: 6.00 Build 0)  -->
<!DOCTYPE svg PUBLIC "-//W3C//DTD SVG 1.1//EN" "http://www.w3.org/Graphics/SVG/1.1/DTD/svg11.dtd">
<svg version="1.1" id="Layer_1" xmlns="http://www.w3.org/2000/svg" xmlns:xlink="http://www.w3.org/1999/xlink" x="0px" y="0px"
	 width="128px" height="128px" viewBox="0 0 128 128" enable-background="new 0 0 128 128" xml:space="preserve">
<g>
	<g>
		<path d="M125.07,58.348C123.117,56.781,120.555,56,118,56c-2.563,0-5.117,0.781-7.074,2.348L95.689,68.874
			c-0.7-3.535-2.57-6.641-5.184-8.921C98.595,55.042,104,46.151,104,36.001c0-15.461-12.539-28-28-28
			c-10.185,0-19.101,5.443-24.001,13.577c-4.899-8.134-13.814-13.577-24-13.577C12.539,8.001,0,20.54,0,36.001
			c0,10.15,5.405,19.042,13.494,23.951C10.133,62.886,8,67.189,8,72v31.999c0,8.836,7.163,16,15.999,16H80
			c7.766,0,14.235-5.534,15.689-12.873l15.236,10.525c1.957,1.566,4.512,2.348,7.074,2.348c2.555,0,5.117-0.781,7.07-2.348
			c1.953-1.563,2.93-3.609,2.93-5.656V64.004C128,61.957,127.023,59.91,125.07,58.348z M56.414,56h-8.829
			c1.695-1.661,3.183-3.533,4.414-5.577C53.231,52.467,54.718,54.339,56.414,56z M8,36.001c0-11.027,8.972-20,19.999-20
			s20,8.973,20,20c0,11.026-8.973,19.999-20,19.999S8,47.027,8,36.001z M88,103.999c0,4.41-3.594,8-8,8H23.999c-4.41,0-8-3.59-8-8
			V72c0-4.41,3.59-8,8-8H80c4.406,0,8,3.59,8,8V103.999z M76,56c-11.031,0-20.001-8.973-20.001-19.999c0-11.027,8.97-20,20.001-20
			c11.023,0,20,8.973,20,20C96,47.027,87.023,56,76,56z M120,111.456c-0.461,0.336-1.219,0.543-2,0.543
			c-0.82,0-1.617-0.227-2.07-0.59c-0.148-0.121-0.297-0.234-0.453-0.34L96,97.621V78.379l19.477-13.449
			c0.156-0.105,0.305-0.219,0.453-0.34c0.453-0.363,1.25-0.59,2.07-0.59c0.734,0,1.453,0.184,2,0.563V111.456z M39.999,36.001
			c0-6.617-5.383-12-12-12s-12,5.383-12,12c0,6.616,5.383,11.999,12,11.999S39.999,42.617,39.999,36.001z M23.999,36.001
			c0-2.211,1.789-4,4-4s4,1.789,4,4s-1.789,4-4,4S23.999,38.212,23.999,36.001z M76,24.001c-6.617,0-12,5.383-12,12
			C64,42.617,69.383,48,76,48s12-5.383,12-11.999C88,29.384,82.617,24.001,76,24.001z M76,40.001c-2.211,0-4-1.789-4-4s1.789-4,4-4
			s4,1.789,4,4S78.211,40.001,76,40.001z M23.999,103.999H80V72H23.999V103.999z M31.999,80H72v16H31.999V80z"/>
	</g>
</g>
</svg>
