<?xml version="1.0" encoding="utf-8"?>
<!-- Generator: Adobe Illustrator 16.0.0, SVG Export Plug-In . SVG Version: 6.00 Build 0)  -->
<!DOCTYPE svg PUBLIC "-//W3C//DTD SVG 1.1//EN" "http://www.w3.org/Graphics/SVG/1.1/DTD/svg11.dtd">
<svg version="1.1" id="Layer_1" xmlns="http://www.w3.org/2000/svg" xmlns:xlink="http://www.w3.org/1999/xlink" x="0px" y="0px"
	 width="128px" height="128px" viewBox="0 0 128 128" enable-background="new 0 0 128 128" xml:space="preserve">
<g>
	<g>
		<path fill-rule="evenodd" clip-rule="evenodd" d="M0,0v96c0,1.07,0.219,2.117,0.625,3.078c0.406,0.977,0.992,1.852,1.727,2.586
			l23.984,23.984c0.734,0.734,1.609,1.32,2.586,1.727C29.883,127.781,30.93,128,32,128h96V0H0z M24,8h80v40H24V8z M64,119.992H48V96
			h16V119.992z M104,119.999l-9.142-0.001L72,119.992V88H48v-8h56V119.999z M120,120l-8-0.001V72H40v47.993l-8.008-0.001L8,96V8h8
			v48h96V24h8V120z M120,16h-8V8h8V16z M32,24h64v-8H32V24z M32,40h64v-8H32V40z"/>
	</g>
</g>
</svg>
