<?xml version="1.0" encoding="utf-8"?>
<!-- Generator: Adobe Illustrator 16.0.0, SVG Export Plug-In . SVG Version: 6.00 Build 0)  -->
<!DOCTYPE svg PUBLIC "-//W3C//DTD SVG 1.1//EN" "http://www.w3.org/Graphics/SVG/1.1/DTD/svg11.dtd">
<svg version="1.1" id="Layer_1" xmlns="http://www.w3.org/2000/svg" xmlns:xlink="http://www.w3.org/1999/xlink" x="0px" y="0px"
	 width="128px" height="128px" viewBox="0 0 128 128" enable-background="new 0 0 128 128" xml:space="preserve">
<path d="M64,4C28.648,4,0,32.649,0,68v28c0,6.617,5.383,12,12,12h5.469c3.305,8,12.094,15.995,22.531,15.995
	c8.836,0,16-7.159,16-15.995V76c0-8.84-7.164-16.003-16-16.003c-6.086,0-11.578,2.336-15.805,6.066
	C25.227,44.922,42.609,27.997,64,27.997s38.773,16.926,39.805,38.066c-4.227-3.73-9.719-6.066-15.805-6.066
	c-8.836,0-16,7.164-16,16.003v32c0,8.836,7.164,15.995,16,15.995c10.438,0,19.227-7.995,22.531-15.995H116c6.617,0,12-5.383,12-12
	V68C128,32.649,99.352,4,64,4z M16,100h-4c-2.211,0-4-1.789-4-4v-4h4c2.211,0,4,1.785,4,4V100z M40,68c4.414,0,8,3.582,8,8v32
	c0,4.414-3.586,8-8,8c-8.82,0-16-7.18-16-16V84C24,75.18,31.18,68,40,68z M104,100c0,8.82-7.18,16-16,16c-4.414,0-8-3.586-8-8V76
	c0-4.418,3.586-8,8-8c8.82,0,16,7.18,16,16V100z M120,96c0,2.211-1.789,4-4,4h-4v-4c0-2.215,1.789-4,4-4h4V96z M120,84h-4
	c-1.406,0-2.742,0.289-4,0.73V68c0-26.507-21.492-48-48-48S16,41.493,16,68v16.73C14.742,84.289,13.406,84,12,84H8V68
	c0-30.878,25.125-56.003,56-56.003S120,37.122,120,68V84z"/>
</svg>
