<?xml version="1.0" encoding="utf-8"?>
<!-- Generator: Adobe Illustrator 16.0.0, SVG Export Plug-In . SVG Version: 6.00 Build 0)  -->
<!DOCTYPE svg PUBLIC "-//W3C//DTD SVG 1.1//EN" "http://www.w3.org/Graphics/SVG/1.1/DTD/svg11.dtd">
<svg version="1.1" id="Layer_1" xmlns="http://www.w3.org/2000/svg" xmlns:xlink="http://www.w3.org/1999/xlink" x="0px" y="0px"
	 width="128px" height="128px" viewBox="0 0 128 128" enable-background="new 0 0 128 128" xml:space="preserve">
<g>
	<g>
		<path d="M60,72v8h8v-8H60z M68,72h8v-8h-8V72z M60,72v-8h-8v8H60z M68,56h-8v8h8V56z M68,56h8v-8h-8V56z M60,48h-8v8h8V48z M68,40
			h-8v8h8V40z M68,40h8v-8h-8V40z M60,32h-8v8h8V32z M68,24h-8v8h8V24z M76,24v-8h-8v8H76z M60,16h-8v8h8V16z M108,68
			c0-2.211-1.789-4-4-4s-4,1.789-4,4c0,19.852-16.148,36-36,36S28,87.852,28,68c0-2.211-1.789-4-4-4s-4,1.789-4,4
			c0,22.945,17.578,41.773,40,43.797V120H40c-2.211,0-4,1.789-4,4s1.789,4,4,4h48c2.211,0,4-1.789,4-4s-1.789-4-4-4H68v-8.203
			C90.422,109.773,108,90.945,108,68z M64,96c15.465,0,28-12.539,28-28V28C92,12.539,79.465,0,64,0S36,12.539,36,28v40
			C36,83.461,48.535,96,64,96z M44,64h8v-8h-8v-8h8v-8h-8v-8h8v-8h-7.597C45.998,16.173,52.175,9.998,60,8.403V16h8V8.403
			C75.825,9.998,82.002,16.173,83.597,24H76v8h8v8h-8v8h8v8h-8v8h8v4c0,1.37-0.14,2.707-0.403,4H76v8h3.963
			C78.832,81.5,77.5,82.832,76,83.963V80h-8v7.597C66.707,87.86,65.369,88,64,88c-1.37,0-2.707-0.14-4-0.403V80h-8v3.963
			C50.5,82.832,49.167,81.5,48.037,80H52v-8h-7.597C44.14,70.707,44,69.37,44,68V64z"/>
	</g>
</g>
</svg>
