<?xml version="1.0" encoding="utf-8"?>
<!-- Generator: Adobe Illustrator 16.0.0, SVG Export Plug-In . SVG Version: 6.00 Build 0)  -->
<!DOCTYPE svg PUBLIC "-//W3C//DTD SVG 1.1//EN" "http://www.w3.org/Graphics/SVG/1.1/DTD/svg11.dtd">
<svg version="1.1" id="Layer_1" xmlns="http://www.w3.org/2000/svg" xmlns:xlink="http://www.w3.org/1999/xlink" x="0px" y="0px"
	 width="128px" height="128px" viewBox="0 0 128 128" enable-background="new 0 0 128 128" xml:space="preserve">
<g>
	<g>
		<path fill-rule="evenodd" clip-rule="evenodd" d="M80,104H48v8h32V104z M80,72H48v8h32V72z M80,88H48v8h32V88z M108,48
			c-2.211,0-4,1.789-4,4s1.789,4,4,4s4-1.789,4-4S110.211,48,108,48z M108,64c-2.211,0-4,1.789-4,4s1.789,4,4,4s4-1.789,4-4
			S110.211,64,108,64z M108,80c-2.211,0-4,1.789-4,4s1.789,4,4,4s4-1.789,4-4S110.211,80,108,80z M112,32H96V16
			c0-8.836-7.164-16-16-16H48c-8.836,0-16,7.164-16,16v16H16C7.164,32,0,39.164,0,48v40c0,8.836,7.164,16,16,16h16v8
			c0,8.836,7.164,16,16,16h32c8.836,0,16-7.164,16-16v-8h16c8.836,0,16-7.164,16-16V48C128,39.164,120.836,32,112,32z M40,16
			c0-4.414,3.59-8,8-8h32c4.41,0,8,3.586,8,8v16H40V16z M88,104v8c0,4.414-3.59,8-8,8H48c-4.41,0-8-3.586-8-8v-8V64h48V104z M120,88
			c0,4.414-3.59,8-8,8H96V56H32v40H16c-4.41,0-8-3.586-8-8V48c0-4.414,3.59-8,8-8h16h4.25h56H96h16c4.41,0,8,3.586,8,8V88z"/>
	</g>
</g>
</svg>
