<?xml version="1.0" encoding="utf-8"?>
<!-- Generator: Adobe Illustrator 16.0.0, SVG Export Plug-In . SVG Version: 6.00 Build 0)  -->
<!DOCTYPE svg PUBLIC "-//W3C//DTD SVG 1.1//EN" "http://www.w3.org/Graphics/SVG/1.1/DTD/svg11.dtd">
<svg version="1.1" id="Layer_1" xmlns="http://www.w3.org/2000/svg" xmlns:xlink="http://www.w3.org/1999/xlink" x="0px" y="0px"
	 width="128px" height="128px" viewBox="0 0 128 128" enable-background="new 0 0 128 128" xml:space="preserve">
<g id="Football_2">
	<g>
		<path d="M64,0C28.652,0,0,28.656,0,64s28.652,64,64,64s64-28.656,64-64S99.348,0,64,0z M109.434,31.391
			c6.484,9.008,10.371,19.988,10.527,31.875l-11.703-14.07L109.434,31.391z M101.68,27.422l-1.328,20.133l-9.898,3.215
			l-21.75-15.801L68,34.457V24.07l18.742-7.492L101.68,27.422z M85.813,57.289L77.484,82.93H50.516l-8.328-25.641L64,41.445
			L85.813,57.289z M64,8c5.727,0,11.25,0.871,16.453,2.477L64,17.047l-16.445-6.574C52.758,8.871,58.277,8,64,8z M41.266,16.57
			L60,24.07v10.387l-0.703,0.512L37.545,50.77l-9.896-3.215L26.32,27.43L41.266,16.57z M18.564,31.391l1.178,17.805L8.037,63.266
			C8.191,51.379,12.08,40.398,18.564,31.391z M12.273,70.672L25.18,55.164l8.842,2.875l0.557,1.719l8.328,25.641l0.09,0.273
			l-5.457,7.523l-19.57-4.953L12.273,70.672z M18.598,96.652l18.051,4.566L46.75,117.25
			C35.305,113.531,25.496,106.215,18.598,96.652z M54.758,114.961l-10.75-17.07l4.445-6.117l0.613-0.844h29.871l5.055,6.961
			l-10.766,17.078L54.758,114.961z M81.246,117.254l10.113-16.035l18.043-4.566C102.5,106.219,92.691,113.535,81.246,117.254z
			 M110.023,88.242l-19.555,4.953l-1.758-2.422l-3.707-5.102l0.09-0.273l8.328-25.641l0.555-1.719l8.844-2.875l12.906,15.508
			L110.023,88.242z"/>
	</g>
</g>
</svg>
