<?xml version="1.0" encoding="utf-8"?>
<!-- Generator: Adobe Illustrator 16.0.0, SVG Export Plug-In . SVG Version: 6.00 Build 0)  -->
<!DOCTYPE svg PUBLIC "-//W3C//DTD SVG 1.1//EN" "http://www.w3.org/Graphics/SVG/1.1/DTD/svg11.dtd">
<svg version="1.1" id="Layer_1" xmlns="http://www.w3.org/2000/svg" xmlns:xlink="http://www.w3.org/1999/xlink" x="0px" y="0px"
	 width="128px" height="128px" viewBox="0 0 128 128" enable-background="new 0 0 128 128" xml:space="preserve">
<g id="Basketball_2">
	<g>
		<path d="M64,4C30.863,4,4,30.859,4,64s26.863,60,60,60s60-26.859,60-60S97.137,4,64,4z M12,64c0-12.57,4.484-24.109,11.938-33.109
			C31.426,39.898,36,51.398,36,64c0,12.594-4.578,24.102-12.07,33.102C16.484,88.102,12,76.563,12,64z M60,115.797
			c-11.633-0.891-22.18-5.617-30.422-12.93C38.527,92.398,44,78.867,44,64c0-14.859-5.488-28.375-14.438-38.852
			C37.805,17.828,48.359,13.094,60,12.203V115.797z M68,115.797V12.203c11.633,0.891,22.18,5.617,30.422,12.93
			C89.473,35.609,84,49.141,84,64c0,14.867,5.469,28.398,14.422,38.875C90.18,110.18,79.629,114.906,68,115.797z M104.035,97.141
			C96.547,88.133,92,76.602,92,64s4.566-24.109,12.055-33.117C111.512,39.883,116,51.43,116,64
			C116,76.586,111.504,88.133,104.035,97.141z"/>
	</g>
</g>
</svg>
