<?xml version="1.0" encoding="utf-8"?>
<!-- Generator: Adobe Illustrator 16.0.0, SVG Export Plug-In . SVG Version: 6.00 Build 0)  -->
<!DOCTYPE svg PUBLIC "-//W3C//DTD SVG 1.1//EN" "http://www.w3.org/Graphics/SVG/1.1/DTD/svg11.dtd">
<svg version="1.1" id="Layer_1" xmlns="http://www.w3.org/2000/svg" xmlns:xlink="http://www.w3.org/1999/xlink" x="0px" y="0px"
	 width="128px" height="128px" viewBox="0 0 128 128" enable-background="new 0 0 128 128" xml:space="preserve">
<path d="M120,96c0-4.422-3.578-8-8-8H96c-4.422,0-8,3.578-8,8h-8V59.684C89.555,54.148,96,43.836,96,32C96,14.328,81.672,0,64,0
	S32,14.328,32,32c0,11.836,6.445,22.148,16,27.684V96h-8c0-4.422-3.578-8-8-8H16c-4.422,0-8,3.578-8,8c-4.422,0-8,3.578-8,8v16
	c0,4.422,3.578,8,8,8h112c4.422,0,8-3.578,8-8v-16C128,99.578,124.422,96,120,96z M112,96v8H96v-8H112z M40,32
	C40,18.766,50.766,8,64,8s24,10.766,24,24S77.234,56,64,56S40,45.234,40,32z M64,64c2.766,0,5.438-0.387,8-1.051V96H56V62.949
	C58.563,63.613,61.234,64,64,64z M32,96v8H16v-8H32z M120,120H8v-8h32v-8h48v8h32V120z"/>
</svg>
