<?xml version="1.0" encoding="utf-8"?>
<!-- Generator: Adobe Illustrator 16.0.0, SVG Export Plug-In . SVG Version: 6.00 Build 0)  -->
<!DOCTYPE svg PUBLIC "-//W3C//DTD SVG 1.1//EN" "http://www.w3.org/Graphics/SVG/1.1/DTD/svg11.dtd">
<svg version="1.1" id="Layer_1" xmlns="http://www.w3.org/2000/svg" xmlns:xlink="http://www.w3.org/1999/xlink" x="0px" y="0px"
	 width="128px" height="128px" viewBox="0 0 128 128" enable-background="new 0 0 128 128" xml:space="preserve">
<g>
	<g>
		<path d="M84,20H44C19.699,20,0,39.703,0,64s19.699,44,44,44c7.211,0,13.996-1.766,20-4.844C70.004,106.234,76.789,108,84,108
			c24.301,0,44-19.703,44-44S108.301,20,84,20z M84,100c-5.719,0-11.223-1.336-16.352-3.961c-1.145-0.586-2.395-0.883-3.648-0.883
			s-2.504,0.297-3.648,0.883C55.223,98.664,49.719,100,44,100C24.148,100,8,83.852,8,64s16.148-36,36-36h40
			c19.852,0,36,16.148,36,36S103.852,100,84,100z M104,68c-4.418,0-8,3.578-8,8s3.582,8,8,8s8-3.578,8-8S108.418,68,104,68z M88,76
			c-4.418,0-8,3.578-8,8s3.582,8,8,8s8-3.578,8-8S92.418,76,88,76z M104,60c4.418,0,8-3.578,8-8s-3.582-8-8-8s-8,3.578-8,8
			S99.582,60,104,60z M88,68c4.418,0,8-3.578,8-8s-3.582-8-8-8s-8,3.578-8,8S83.582,68,88,68z M60,52h-4v-4c0-6.617-5.383-12-12-12
			s-12,5.383-12,12v4h-4c-6.617,0-12,5.383-12,12s5.383,12,12,12h4v4c0,6.617,5.383,12,12,12s12-5.383,12-12v-4h4
			c6.617,0,12-5.383,12-12S66.617,52,60,52z M60,68h-8c-2.211,0-4,1.789-4,4v8c0,2.203-1.793,4-4,4s-4-1.797-4-4v-8
			c0-2.211-1.789-4-4-4h-8c-2.207,0-4-1.797-4-4s1.793-4,4-4h8c2.211,0,4-1.789,4-4v-8c0-2.203,1.793-4,4-4s4,1.797,4,4v8
			c0,2.211,1.789,4,4,4h8c2.207,0,4,1.797,4,4S62.207,68,60,68z"/>
	</g>
</g>
</svg>
