<?xml version="1.0" encoding="utf-8"?>
<!-- Generator: Adobe Illustrator 16.0.0, SVG Export Plug-In . SVG Version: 6.00 Build 0)  -->
<!DOCTYPE svg PUBLIC "-//W3C//DTD SVG 1.1//EN" "http://www.w3.org/Graphics/SVG/1.1/DTD/svg11.dtd">
<svg version="1.1" id="Layer_1" xmlns="http://www.w3.org/2000/svg" xmlns:xlink="http://www.w3.org/1999/xlink" x="0px" y="0px"
	 width="128px" height="128px" viewBox="0 0 128 128" enable-background="new 0 0 128 128" xml:space="preserve">
<path d="M80,80h-4V12c0-6.625-5.375-12-12-12S52,5.375,52,12v68h-4c-6.625,0-12,5.375-12,12s5.375,12,12,12h4v12
	c0,6.625,5.375,12,12,12s12-5.375,12-12v-12h4c6.625,0,12-5.375,12-12S86.625,80,80,80z M60,12c0-2.203,1.797-4,4-4s4,1.797,4,4v68
	h-8V12z M68,96h-8v-8h8V96z M48,96c-2.203,0-4-1.797-4-4s1.797-4,4-4h4v8H48z M68,116c0,2.203-1.797,4-4,4s-4-1.797-4-4v-12h8V116z
	 M80,96h-4v-8h4c2.203,0,4,1.797,4,4S82.203,96,80,96z"/>
</svg>
