<?xml version="1.0" encoding="utf-8"?>
<!-- Generator: Adobe Illustrator 16.0.0, SVG Export Plug-In . SVG Version: 6.00 Build 0)  -->
<!DOCTYPE svg PUBLIC "-//W3C//DTD SVG 1.1//EN" "http://www.w3.org/Graphics/SVG/1.1/DTD/svg11.dtd">
<svg version="1.1" id="Layer_1" xmlns="http://www.w3.org/2000/svg" xmlns:xlink="http://www.w3.org/1999/xlink" x="0px" y="0px"
	 width="128px" height="128px" viewBox="0 0 128 128" enable-background="new 0 0 128 128" xml:space="preserve">
<g id="Gun_2">
	<g>
		<path d="M118.398,32L120,24H23.262c-1.656-4.648-6.055-8-11.262-8C5.383,16,0,21.383,0,28c0,5.922,4.32,10.82,9.969,11.797
			L15.289,60L2.301,104c-1.301,4.422,1.328,8,5.875,8h24.699c4.547,0,9.289-3.578,10.594-8l4.383-14.852
			C51.43,90.914,55.547,92,60,92c13.234,0,24-8.969,24-20c0-2.844-0.742-5.547-2.031-8H112l1.602-8H128V32H118.398z M35.797,101.734
			c-0.324,1.094-1.992,2.266-2.922,2.266H10.641l11.809-40h24.488L35.797,101.734z M60,84c-3.734,0-7.129-1.008-9.855-2.617
			l3.73-12.633l4.516,9.039C59.094,79.188,60.504,80,61.973,80c0.602,0,1.211-0.133,1.785-0.422
			c1.977-0.992,2.777-3.391,1.789-5.367L60.441,64H71.84c2.559,2.125,4.16,4.914,4.16,8C76,78.617,68.824,84,60,84z M105.441,56
			H22.508l-4.805-18.242l-1.309-4.969l-5.063-0.875C9.402,31.578,8,29.938,8,28c0-2.203,1.793-4,4-4c1.914,0,3.25,1.352,3.727,2.688
			L17.621,32h27.176L48,48h59.043L105.441,56z M108.641,40H54.563l-1.602-8h57.281L108.641,40z M120,48h-4.801l1.602-8H120V48z"/>
	</g>
</g>
</svg>
