<?xml version="1.0" encoding="utf-8"?>
<!-- Generator: Adobe Illustrator 16.0.0, SVG Export Plug-In . SVG Version: 6.00 Build 0)  -->
<!DOCTYPE svg PUBLIC "-//W3C//DTD SVG 1.1//EN" "http://www.w3.org/Graphics/SVG/1.1/DTD/svg11.dtd">
<svg version="1.1" id="Layer_1" xmlns="http://www.w3.org/2000/svg" xmlns:xlink="http://www.w3.org/1999/xlink" x="0px" y="0px"
	 width="128px" height="128px" viewBox="0 0 128 128" enable-background="new 0 0 128 128" xml:space="preserve">
<g id="Food">
	<g>
		<path fill-rule="evenodd" clip-rule="evenodd" d="M44,0c-3.07,0-5.875,1.16-8,3.063C33.875,1.16,31.07,0,28,0s-5.875,1.16-8,3.063
			C17.875,1.16,15.07,0,12,0C5.383,0,0,5.383,0,12v32c0,9.656,5.084,14.742,9.172,18.828C12.988,66.645,16,69.656,16,76v40
			c0,6.617,5.383,12,12,12s12-5.383,12-12V76c0-6.344,3.012-9.355,6.828-13.172C50.914,58.742,56,53.656,56,44V12
			C56,5.383,50.617,0,44,0z M48,44c0,6.344-3.012,9.355-6.828,13.172C37.086,61.258,32,66.344,32,76v40c0,2.211-1.789,4-4,4
			s-4-1.789-4-4V76c0-9.656-5.086-14.742-9.172-18.828C11.012,53.355,8,50.344,8,44V12c0-2.211,1.789-4,4-4s4,1.789,4,4v24
			c0,2.211,1.789,4,4,4s4-1.789,4-4V12c0-2.211,1.789-4,4-4s4,1.789,4,4v24c0,2.211,1.789,4,4,4s4-1.789,4-4V12c0-2.211,1.789-4,4-4
			s4,1.789,4,4V44z M118.828,65.172C115.012,61.355,112,58.344,112,52V12c0-6.617-5.383-12-12-12S88,5.383,88,12v40
			c0,6.344-3.012,9.355-6.828,13.172C77.086,69.258,72,74.344,72,84c0,1.797,0.316,44,28,44s28-42.203,28-44
			C128,74.344,122.914,69.258,118.828,65.172z M100,120c-19.711,0-20-35.609-20-36c0-6.344,3.012-9.355,6.828-13.172
			C90.914,66.742,96,61.656,96,52V12c0-2.211,1.789-4,4-4s4,1.789,4,4v40c0,9.656,5.086,14.742,9.172,18.828
			C116.988,74.645,120,77.656,120,84C120,84.359,119.77,120,100,120z"/>
	</g>
</g>
</svg>
