<?xml version="1.0" encoding="utf-8"?>
<!-- Generator: Adobe Illustrator 16.0.0, SVG Export Plug-In . SVG Version: 6.00 Build 0)  -->
<!DOCTYPE svg PUBLIC "-//W3C//DTD SVG 1.1//EN" "http://www.w3.org/Graphics/SVG/1.1/DTD/svg11.dtd">
<svg version="1.1" id="Layer_1" xmlns="http://www.w3.org/2000/svg" xmlns:xlink="http://www.w3.org/1999/xlink" x="0px" y="0px"
	 width="128px" height="128px" viewBox="0 0 128 128" enable-background="new 0 0 128 128" xml:space="preserve">
<g>
	<g>
		<path d="M16,32v8h8v-8H16z M32,24h-8v8h8V24z M32,24h8v-8h-8V24z M48,32v-8h-8v8H48z M32,32v8h8v-8H32z M48,32v8h8v-8H48z M56,24
			v-8h-8v8H56z M64,32v-8h-8v8H64z M64,32v8h8v-8H64z M72,24v-8h-8v8H72z M80,32v-8h-8v8H80z M88,24v-8h-8v8H88z M88,32h8v-8h-8V32z
			 M80,32v8h8v-8H80z M96,40h8v-8h-8V40z M8,56h112c4.223,0,7.59-3.297,7.887-7.445C124.234,21.156,100.398,0,72,0H56
			C27.602,0,3.766,21.156,0.113,48.555C0.41,52.703,3.777,56,8,56z M40,10.723V16h8V8.672C50.609,8.236,53.281,8,56,8v8h8V8h8v8h8
			V8.672c2.747,0.458,5.42,1.148,8,2.05V16h8v-1.643c0.913,0.519,1.808,1.067,2.683,1.643H96v8h8v-3.953
			c1.418,1.24,2.765,2.557,4.029,3.953H104v8h8v-2.981c0.668,0.97,1.307,1.961,1.903,2.981H112v8h5.627
			c0.916,2.57,1.623,5.241,2.088,8L112,47.999V40h-8v7.998l-8-0.001V40h-8v7.996l-8-0.001V40h-8v7.993l-8-0.001V40h-8v7.991
			l-8-0.001V40h-8v7.989l-8-0.001V40h-8v7.986l-8-0.001V40h-5.625C15.273,26.266,26.299,15.512,40,10.723z M120,96H8
			c-4.418,0-8,3.578-8,8c3.57,13.773,17.109,24,32,24h64c14.891,0,28.43-10.227,32-24C128,99.578,124.418,96,120,96z M96,120H32
			c-10.426,0-20.207-6.75-23.625-16h111.25C116.207,113.25,106.426,120,96,120z M12,88h104c6.629,0,12-5.375,12-12s-5.371-12-12-12
			H12C5.371,64,0,69.375,0,76S5.371,88,12,88z M12,72h104c2.207,0,4,1.797,4,4s-1.793,4-4,4H12c-2.207,0-4-1.797-4-4S9.793,72,12,72
			z"/>
	</g>
</g>
</svg>
