<?xml version="1.0" encoding="utf-8"?>
<!-- Generator: Adobe Illustrator 16.0.0, SVG Export Plug-In . SVG Version: 6.00 Build 0)  -->
<!DOCTYPE svg PUBLIC "-//W3C//DTD SVG 1.1//EN" "http://www.w3.org/Graphics/SVG/1.1/DTD/svg11.dtd">
<svg version="1.1" id="Layer_1" xmlns="http://www.w3.org/2000/svg" xmlns:xlink="http://www.w3.org/1999/xlink" x="0px" y="0px"
	 width="128px" height="128px" viewBox="0 0 128 128" enable-background="new 0 0 128 128" xml:space="preserve">
<g>
	<g>
		<path fill-rule="evenodd" clip-rule="evenodd" d="M72,76c0-11.047-8.953-20-20-20s-20,8.953-20,20s8.953,20,20,20S72,87.047,72,76
			z M52,88c-6.627,0-12-5.371-12-12s5.373-12,12-12s12,5.371,12,12S58.627,88,52,88z M64,0L0,107.453
			C18.266,120.422,40.289,128,64,128s45.734-7.578,64-20.547L64,0z M64,15.633L75.178,34.4C73.175,32.899,70.695,32,68,32
			c-6.625,0-12,5.371-12,12s5.375,12,12,12s12-5.371,12-12c0-0.592-0.058-1.17-0.14-1.739l29.257,49.122
			c-2.215,1.337-4.48,2.56-6.781,3.689C103.392,92.938,104,90.542,104,88c0-8.836-7.164-16-16-16s-16,7.164-16,16
			c0,6.29,3.64,11.717,8.919,14.331C75.38,103.432,69.723,104,64,104c-15.945,0-31.406-4.344-45.117-12.617L64,15.633z M72,44
			c0,2.207-1.789,4-4,4s-4-1.793-4-4c0-2.211,1.789-4,4-4S72,41.789,72,44z M96,88c0,4.418-3.582,8-8,8s-8-3.582-8-8s3.582-8,8-8
			S96,83.582,96,88z M10.781,104.984l4.016-6.742C29.297,106.977,46.082,112,64,112s34.703-5.023,49.203-13.758l4.016,6.742
			C101.086,114.828,82.832,120,64,120S26.914,114.828,10.781,104.984z"/>
	</g>
</g>
</svg>
