<?xml version="1.0" encoding="utf-8"?>
<!-- Generator: Adobe Illustrator 16.0.0, SVG Export Plug-In . SVG Version: 6.00 Build 0)  -->
<!DOCTYPE svg PUBLIC "-//W3C//DTD SVG 1.1//EN" "http://www.w3.org/Graphics/SVG/1.1/DTD/svg11.dtd">
<svg version="1.1" id="Layer_1" xmlns="http://www.w3.org/2000/svg" xmlns:xlink="http://www.w3.org/1999/xlink" x="0px" y="0px"
	 width="128px" height="128px" viewBox="0 0 128 128" enable-background="new 0 0 128 128" xml:space="preserve">
<g>
	<g>
		<path d="M24,76v8h8v-8H24z M24,68h-8v8h8V68z M48,52v-8h-8v8H48z M48,60h-8v8h8V60z M32,68v8h8v-8H32z M40,76v8h8v-8H40z M48,68v8
			h8v-8H48z M56,52h-8v8h8V52z M64,52v-8h-8v8H64z M56,60v8h8v-8H56z M56,76v8h8v-8H56z M64,68v8h8v-8H64z M64,60h8v-8h-8V60z
			 M72,60v8h8v-8H72z M125.391,36.25c-1.555-0.586-3.328-0.125-4.43,1.148c-0.086,0.102-8.555,9.945-20.523,21.18
			C77.68,38.281,58.711,28,44,28C9.281,28,0.211,62.68,0.117,63.031c-0.156,0.633-0.156,1.305,0,1.938C0.211,65.32,9.281,100,44,100
			c14.711,0,33.68-10.281,56.438-30.578c11.969,11.234,20.438,21.078,20.523,21.18c1.102,1.281,2.875,1.742,4.43,1.148
			C126.961,91.172,128,89.672,128,88V40C128,38.328,126.961,36.828,125.391,36.25z M89.854,68c-0.622,0.524-1.238,1.035-1.854,1.543
			V68h-8v7.819c-0.079,0.059-0.16,0.123-0.238,0.181H72v5.351c-1.48,0.948-2.929,1.825-4.354,2.649H64v2.006
			c-2.789,1.448-5.457,2.636-8,3.562V84h-8v7.668C46.619,91.872,45.276,92,44,92c-1.386,0-2.712-0.078-4-0.204V84h-8v6.1
			c-3.002-1.014-5.657-2.378-8-3.963V84h-2.832c-1.978-1.658-3.697-3.455-5.168-5.283V76h-2.007c-1.98-2.907-3.392-5.728-4.357-8H16
			v-8H9.636c0.965-2.272,2.377-5.092,4.357-8H16v-2.717c1.471-1.828,3.19-3.625,5.168-5.283H24v-2.136
			c2.343-1.585,4.998-2.949,8-3.964V44h8v-7.795C41.288,36.079,42.614,36,44,36c1.276,0,2.619,0.128,4,0.332V44h8v-5.567
			c2.543,0.925,5.211,2.113,8,3.562V44h3.646c1.426,0.824,2.874,1.701,4.354,2.649V52h7.762c0.078,0.058,0.159,0.122,0.238,0.18V60
			h8v-1.543c0.615,0.507,1.231,1.019,1.854,1.543H88v8H89.854z M120,77.648c-0.498-0.527-1.024-1.081-1.567-1.648H120V77.648z
			 M120,68h-8v1.458c-0.484-0.479-0.98-0.967-1.483-1.458H112v-8h-1.483c0.503-0.491,0.999-0.978,1.483-1.458V60h8V68z M120,52
			h-1.567c0.543-0.567,1.069-1.121,1.567-1.648V52z M40,56c0-6.617-5.383-12-12-12s-12,5.383-12,12s5.383,12,12,12S40,62.617,40,56z
			 M24,56c0-2.211,1.789-4,4-4s4,1.789,4,4s-1.789,4-4,4S24,58.211,24,56z"/>
	</g>
</g>
</svg>
