<?xml version="1.0" encoding="utf-8"?>
<!-- Generator: Adobe Illustrator 16.0.0, SVG Export Plug-In . SVG Version: 6.00 Build 0)  -->
<!DOCTYPE svg PUBLIC "-//W3C//DTD SVG 1.1//EN" "http://www.w3.org/Graphics/SVG/1.1/DTD/svg11.dtd">
<svg version="1.1" id="Layer_1" xmlns="http://www.w3.org/2000/svg" xmlns:xlink="http://www.w3.org/1999/xlink" x="0px" y="0px"
	 width="128px" height="128px" viewBox="0 0 128 128" enable-background="new 0 0 128 128" xml:space="preserve">
<g>
	<g>
		<path d="M24,72h-8v8h8V72z M24,56h-8v8h8V56z M24,40h-8v8h8V40z M32,48h-8v8h8V48z M32,64h-8v8h8V64z M32,80h-8v8h8V80z M24,96v8
			h8v-8H24z M32,104v8h8v-8H32z M32,88v8h8v-8H32z M40,72h-8v8h8V72z M40,56h-8v8h8V56z M40,48v-8h-8v8H40z M48,56v-8h-8v8H48z
			 M48,64h-8v8h8V64z M40,80v8h8v-8H40z M40,96v8h8v-8H40z M48,104v8h8v-8H48z M56,96v8h8v-8H56z M48,88v8h8v-8H48z M48,72v8h8v-8
			H48z M56,64v-8h-8v8H56z M56,48v-8h-8v8H56z M64,56v-8h-8v8H64z M56,72h8v-8h-8V72z M56,80v8h8v-8H56z M64,88v8h8v-8H64z M64,80h8
			v-8h-8V80z M64,64h8v-8h-8V64z M72,48v-8h-8v8H72z M72,48v8h8v-8H72z M88,48v-8h-8v8H88z M72,72h8v-8h-8V72z M24,88h-8v8h8V88z
			 M16,104v8h8v-8H16z M64,104v8h8v-8H64z M72,96v8h8v-8H72z M72,88h8v-8h-8V88z M116,32H96V20C96,8.953,74.508,0,48,0S0,8.953,0,20
			v88c0,11.047,21.492,20,48,20s48-8.953,48-20v-4.766c0.914-0.32,1.816-0.695,2.637-1.234l24.02-16.016
			C126.004,83.75,128,80.023,128,76V44C128,37.383,122.617,32,116,32z M104,56v13.578l-8,5.328V56H104z M48,8
			c26.246,0,40,8.914,40,12S74.246,32,48,32S8,23.086,8,20S21.754,8,48,8z M8,31.047C8.518,31.372,9.061,31.689,9.622,32H8V31.047z
			 M112,83.474V80h-8v8h1.211L104,88.808V88h-8v6.141l-1.781,1.188c-0.008,0-0.016,0-0.02,0.008L88,99.469V104h-8v8h4.24
			c-1.152,0.738-2.565,1.502-4.24,2.253V112h-8v5.066c-2.401,0.656-5.072,1.239-8,1.712V112h-8v7.705
			c-2.525,0.188-5.186,0.295-8,0.295v-8h-8v7.705c-2.852-0.211-5.521-0.527-8-0.927V112h-8v5.066C13.44,114.183,8,109.94,8,108v-4h8
			v-8H8v-8h8v-8H8v-8h8v-8H8v-8h8v-8H8v-8h8v-5.11c2.452,0.917,5.133,1.726,8,2.419V40h8v-1.15c2.573,0.38,5.246,0.67,8,0.863V40h8
			c2.729,0,5.396-0.104,8-0.287V40h8v-1.15c2.796-0.413,5.47-0.93,8-1.541V40h8v-5.11c3.037-1.134,5.735-2.423,8-3.843V40h8v8h-8v8
			h-8v8h8v8h-8v8h8v8h-8v8h8v-6.148l24-15.992V80h5.211L112,83.474z M120,72h-8v-8h8V72z M120,56h-8v-8h-8v-8h8v8h8V56z"/>
	</g>
</g>
</svg>
