<?xml version="1.0" encoding="utf-8"?>
<!-- Generator: Adobe Illustrator 16.0.0, SVG Export Plug-In . SVG Version: 6.00 Build 0)  -->
<!DOCTYPE svg PUBLIC "-//W3C//DTD SVG 1.1//EN" "http://www.w3.org/Graphics/SVG/1.1/DTD/svg11.dtd">
<svg version="1.1" id="Layer_1" xmlns="http://www.w3.org/2000/svg" xmlns:xlink="http://www.w3.org/1999/xlink" x="0px" y="0px"
	 width="128px" height="128px" viewBox="0 0 128 128" enable-background="new 0 0 128 128" xml:space="preserve">
<g>
	<g>
		<path d="M60,88h8v-8h-8V88z M60,72h-8v8h8V72z M36,72v8h8v-8H36z M36,64h-8v8h8V64z M44,64v8h8v-8H44z M60,64v8h8v-8H60z M68,72v8
			h8v-8H68z M76,64v8h8v-8H76z M84,72v8h8v-8H84z M92,72h8v-8h-8V72z M84,64h8v-8h-8V64z M76,64v-8h-8v8H76z M60,64v-8h-8v8H60z
			 M44,56h-8v8h8V56z M36,48h-8v8h8V48z M52,48h-8v8h8V48z M68,48h-8v8h8V48z M84,48h-8v8h8V48z M92,48v8h8v-8H92z M97.594,5.211
			C95.352,1.953,91.648,0,87.695,0H40.304c-3.953,0-7.656,1.953-9.898,5.211c-2.93,4.273-28.218,42.531-14.132,69.281
			C22.461,86.234,34.515,93.125,52,95.234V104H40c-6.625,0-12,5.375-12,12s5.375,12,12,12h48c6.625,0,12-5.375,12-12
			s-5.375-12-12-12H76v-8.766c17.484-2.109,29.539-9,35.727-20.742C125.813,47.742,100.523,9.484,97.594,5.211z M107.127,64
			c-0.537,2.347-1.347,4.615-2.479,6.766c-0.223,0.423-0.467,0.828-0.709,1.234H100v5.078c-1.055,1.056-2.222,2.023-3.481,2.922H92
			v2.687c-2.392,1.172-5.062,2.14-8,2.918V80h-8v7.156c-0.322,0.043-0.634,0.094-0.961,0.133C71.023,87.773,68,91.188,68,95.234V104
			c0,4.422,3.578,8,8,8h12c2.203,0,4,1.797,4,4s-1.797,4-4,4H40c-2.203,0-4-1.797-4-4s1.797-4,4-4h12c4.422,0,8-3.578,8-8v-8.766
			c0-4.047-3.023-7.461-7.039-7.945c-0.328-0.039-0.638-0.09-0.961-0.133V80h-8v5.604c-2.939-0.778-5.609-1.746-8-2.918V80H31.48
			c-1.259-0.898-2.426-1.867-3.481-2.922V72h-3.939c-0.242-0.406-0.486-0.812-0.709-1.234c-1.132-2.15-1.941-4.419-2.479-6.766H28
			v-8h-7.963C20.063,34.768,36.152,10.974,37,9.75C37.75,8.656,38.984,8,40.304,8h47.391c1.32,0,2.555,0.656,3.297,1.734
			c0.854,1.236,16.943,25.033,16.971,46.266H100v8H107.127z"/>
	</g>
</g>
</svg>
