<?xml version="1.0" encoding="utf-8"?>
<!-- Generator: Adobe Illustrator 16.0.0, SVG Export Plug-In . SVG Version: 6.00 Build 0)  -->
<!DOCTYPE svg PUBLIC "-//W3C//DTD SVG 1.1//EN" "http://www.w3.org/Graphics/SVG/1.1/DTD/svg11.dtd">
<svg version="1.1" id="Layer_1" xmlns="http://www.w3.org/2000/svg" xmlns:xlink="http://www.w3.org/1999/xlink" x="0px" y="0px"
	 width="128px" height="128px" viewBox="0 0 128 128" enable-background="new 0 0 128 128" xml:space="preserve">
<g id="Cargo_1">
	<g>
		<path d="M56,16v16H38.383c-8.836,0-19.34,7.164-23.461,16L0,71.992V80c0,8.836,7.164,16,16,16c0,8.836,7.16,16,16,16
			s16-7.164,16-16h32c0,8.836,7.16,16,16,16s16-7.164,16-16c8.836,0,16-7.164,16-16V16H56z M32,104c-4.41,0-8-3.586-8-8s3.59-8,8-8
			s8,3.586,8,8S36.41,104,32,104z M96,104c-4.41,0-8-3.586-8-8s3.59-8,8-8s8,3.586,8,8S100.41,104,96,104z M120,80
			c0,4.414-3.59,8-8,8h-2.219c-2.77-4.766-7.871-8-13.781-8s-11.012,3.234-13.781,8H45.781c-2.77-4.766-7.871-8-13.781-8
			s-11.012,3.234-13.781,8H16c-4.41,0-8-3.586-8-8v-8l6.395-8l7.32-11.773l0.254-0.414l0.203-0.43
			C24.949,45.422,32.676,40,38.383,40H56v32h64V80z M120,64H64V24h56V64z"/>
	</g>
</g>
</svg>
