<?xml version="1.0" encoding="utf-8"?>
<!-- Generator: Adobe Illustrator 16.0.0, SVG Export Plug-In . SVG Version: 6.00 Build 0)  -->
<!DOCTYPE svg PUBLIC "-//W3C//DTD SVG 1.1//EN" "http://www.w3.org/Graphics/SVG/1.1/DTD/svg11.dtd">
<svg version="1.1" id="Layer_1" xmlns="http://www.w3.org/2000/svg" xmlns:xlink="http://www.w3.org/1999/xlink" x="0px" y="0px"
	 width="128px" height="128px" viewBox="0 0 128 128" enable-background="new 0 0 128 128" xml:space="preserve">
<g id="Bus_2">
	<g>
		<path d="M112,20H16C7.164,20,0,27.164,0,36v40c0,8.836,7.164,16,16,16c0,8.836,7.16,16,16,16s16-7.164,16-16h32
			c0,8.836,7.16,16,16,16s16-7.164,16-16c8.836,0,16-7.164,16-16V36C128,27.164,120.836,20,112,20z M8,44h16v16H8V44z M32,100
			c-4.41,0-8-3.586-8-8s3.59-8,8-8s8,3.586,8,8S36.41,100,32,100z M96,100c-4.41,0-8-3.586-8-8s3.59-8,8-8s8,3.586,8,8
			S100.41,100,96,100z M120,76c0,4.414-3.59,8-8,8h-2.219c-2.77-4.766-7.871-8-13.781-8s-11.012,3.234-13.781,8H45.781
			c-2.77-4.766-7.871-8-13.781-8s-11.012,3.234-13.781,8H16c-4.41,0-8-3.586-8-8v-8h112V76z M32,60V44h16v16H32z M56,60V44h16v16H56
			z M80,60V44h16v16H80z M120,60h-16V44h16V60z M8,36c0-4.414,3.59-8,8-8h96c4.41,0,8,3.586,8,8H8z"/>
	</g>
</g>
</svg>
