<?xml version="1.0" encoding="utf-8"?>
<!-- Generator: Adobe Illustrator 16.0.0, SVG Export Plug-In . SVG Version: 6.00 Build 0)  -->
<!DOCTYPE svg PUBLIC "-//W3C//DTD SVG 1.1//EN" "http://www.w3.org/Graphics/SVG/1.1/DTD/svg11.dtd">
<svg version="1.1" id="Layer_1" xmlns="http://www.w3.org/2000/svg" xmlns:xlink="http://www.w3.org/1999/xlink" x="0px" y="0px"
	 width="128px" height="128px" viewBox="0 0 128 128" enable-background="new 0 0 128 128" xml:space="preserve">
<g id="Plane">
	<g>
		<path d="M124.117,57.141L82.961,32.539C81.27,32.078,80,30.594,80,28.75V16c0-8.836-7.164-16-16-16S48,7.164,48,16v12.75
			c0,1.844-1.27,3.328-2.961,3.789L3.883,57.141C1.473,58.586,0,61.188,0,64v8c0,2.398,1.074,4.664,2.93,6.188
			C4.371,79.367,6.168,80,8,80c0.523,0,1.047-0.055,1.57-0.156L48,72.156V92.75c0,1.844-1.27,3.328-2.961,3.789l0.012,0.047
			l0.098,0.086c-0.234,0.094-0.496,0.055-0.727,0.172l-16,8C25.711,106.203,24,108.969,24,112v8c0,4.422,3.582,8,8,8l32-8l32,8
			c4.418,0,8-3.578,8-8v-8c0-3.031-1.711-5.797-4.422-7.156l-16-8c-0.23-0.117-0.492-0.078-0.727-0.172l0.098-0.086l0.012-0.047
			C81.27,96.078,80,94.594,80,92.75V72.156l38.43,7.688C118.953,79.945,119.477,80,120,80c1.832,0,3.629-0.633,5.07-1.813
			C126.926,76.664,128,74.398,128,72v-8C128,61.188,126.527,58.586,124.117,57.141z M120,72l-40-8h-0.008
			c-1.086,0-2.109,0.227-3.047,0.617c-0.945,0.391-1.836,0.961-2.602,1.727S73.008,68,72.617,68.945S72.004,70.906,72,71.992V96
			c0,1.086,0.227,2.109,0.617,3.055s0.961,1.836,1.727,2.602S96,112,96,112v8l-32-8l-32,8v-8c0,0,20.891-9.578,21.656-10.344
			s1.336-1.656,1.727-2.602S56,97.086,56,96V72c0-1.086-0.227-2.109-0.617-3.055s-0.961-1.836-1.727-2.602S52,65.008,51.055,64.617
			C50.113,64.227,49.086,64,48,64v0.008L47.992,64L8,72v-8c0,0,44.891-25.578,45.656-26.344s1.336-1.656,1.727-2.602
			S56,33.086,56,32V16c0-4.414,3.59-8,8-8s8,3.586,8,8v16c0,1.086,0.227,2.109,0.617,3.055s0.961,1.836,1.727,2.602S120,64,120,64
			V72z"/>
	</g>
</g>
</svg>
