<?xml version="1.0" encoding="utf-8"?>
<!-- Generator: Adobe Illustrator 16.0.0, SVG Export Plug-In . SVG Version: 6.00 Build 0)  -->
<!DOCTYPE svg PUBLIC "-//W3C//DTD SVG 1.1//EN" "http://www.w3.org/Graphics/SVG/1.1/DTD/svg11.dtd">
<svg version="1.1" id="Layer_1" xmlns="http://www.w3.org/2000/svg" xmlns:xlink="http://www.w3.org/1999/xlink" x="0px" y="0px"
	 width="128px" height="128px" viewBox="0 0 128 128" enable-background="new 0 0 128 128" xml:space="preserve">
<g id="Boat_2">
	<g>
		<path fill-rule="evenodd" clip-rule="evenodd" d="M47.985,12.002c0-6.625-5.37-12-11.997-12s-11.996,5.375-11.996,12v67.999
			h23.992V12.002z M39.987,72.001H31.99V12.002c0-2.203,1.792-4,3.999-4c2.206,0,3.999,1.797,3.999,4V72.001z M0,88.001v24
			L15.996,128h71.977c22.083,0,39.988-17.905,39.988-39.999H0z M87.973,120.001H19.307l-11.31-11.313V96.001h110.955
			C115.391,109.79,102.851,120.001,87.973,120.001z M59.981,80.001h47.985c0.059,0,0.105,0,0.16,0c2.206,0,3.999-1.789,3.999-4
			c0-1.195-0.523-2.266-1.352-3L63.309,1.784c-0.976-1.469-2.796-2.125-4.487-1.609c-1.687,0.508-2.839,2.063-2.839,3.828v71.999
			C55.983,78.212,57.771,80.001,59.981,80.001z M63.98,17.212l36.516,54.789H63.98V17.212z"/>
	</g>
</g>
</svg>
