<?xml version="1.0" encoding="utf-8"?>
<!-- Generator: Adobe Illustrator 16.0.0, SVG Export Plug-In . SVG Version: 6.00 Build 0)  -->
<!DOCTYPE svg PUBLIC "-//W3C//DTD SVG 1.1//EN" "http://www.w3.org/Graphics/SVG/1.1/DTD/svg11.dtd">
<svg version="1.1" id="Layer_1" xmlns="http://www.w3.org/2000/svg" xmlns:xlink="http://www.w3.org/1999/xlink" x="0px" y="0px"
	 width="128px" height="128px" viewBox="0 0 128 128" enable-background="new 0 0 128 128" xml:space="preserve">
<g>
	<g>
		<path d="M112,96h-10.234L71.59,5.469C70.5,2.203,67.445,0,64,0s-6.5,2.203-7.59,5.469L26.234,96H16c-8.836,0-16,7.164-16,16
			s7.164,16,16,16h96c8.836,0,16-7.164,16-16S120.836,96,112,96z M64,8v8h2.666l2.666,8H64v-8h-2.67l2.666-8H64z M55.996,32H72
			l5.332,16H50.664L55.996,32z M56,64v-8h8v8h8v-8h8v8h2.666l2.666,8H80v-8h-8v8h-8v-8H56v8h-8v-8h-2.666L48,56v8H56z M40,80h48
			l5.332,16H34.668L40,80z M112,120v-8h-8v8h-8v-8h-8v8h-8v-8h-8v8h-8v-8h-8v8h-8v-8h-8v8h-8v-8h-8v8h-8v-8H8c0-4.41,3.59-8,8-8v8h8
			v-8h2.234H32v8h8v-8h8v8h8v-8h8v8h8v-8h8v8h8v-8h8v8h8v-8h8v8h8C120,116.41,116.41,120,112,120z"/>
	</g>
</g>
</svg>
