<?xml version="1.0" encoding="utf-8"?>
<!-- Generator: Adobe Illustrator 16.0.0, SVG Export Plug-In . SVG Version: 6.00 Build 0)  -->
<!DOCTYPE svg PUBLIC "-//W3C//DTD SVG 1.1//EN" "http://www.w3.org/Graphics/SVG/1.1/DTD/svg11.dtd">
<svg version="1.1" id="Layer_1" xmlns="http://www.w3.org/2000/svg" xmlns:xlink="http://www.w3.org/1999/xlink" x="0px" y="0px"
	 width="128px" height="128px" viewBox="0 0 128 128" enable-background="new 0 0 128 128" xml:space="preserve">
<g>
	<g>
		<path fill-rule="evenodd" clip-rule="evenodd" d="M122.243,43.707l-48.001-40C71.277,1.234,67.637,0,64,0
			c-3.637,0-7.277,1.234-10.242,3.707L46.66,9.621C44.195,3.964,38.566,0,32,0c-8.836,0-16,7.164-16,16v19.172L5.755,43.707
			c-5.174,4.313-7.092,11.407-4.799,17.739C3.249,67.781,9.265,72,16,72v40c0,8.836,7.164,16,16,16h8v-8h-8c-4.412,0-8-3.59-8-8V72
			v-8h-8c-3.356,0-6.379-2.121-7.52-5.277C7.335,55.567,8.3,52,10.878,49.851l10.243-8.535L24,38.917v-3.746V16c0-4.41,3.588-8,8-8
			c3.176,0,6.051,1.891,7.328,4.816l4.258,9.777l8.195-6.828l7.102-5.914C60.312,8.656,62.128,8,64,8
			c1.872,0,3.688,0.656,5.122,1.852l48.001,40c2.578,2.149,3.543,5.716,2.398,8.872c-1.141,3.156-4.164,5.277-7.52,5.277h-8v8v40
			c0,4.41-3.59,8-8.001,8h-8v8h8c8.837,0,16.001-7.164,16.001-16V72c6.734,0,12.75-4.219,15.043-10.554
			C129.337,55.114,127.419,48.019,122.243,43.707z M56,56H32v24h24V56z M48,72h-8v-8h8V72z M96,56H72v24h24V56z M88,72h-8v-8h8V72z
			 M48,128h32V88H48V128z M56,112h8v-8h-8v-8h16v24H56V112z"/>
	</g>
</g>
</svg>
