<?xml version="1.0" encoding="utf-8"?>
<!-- Generator: Adobe Illustrator 16.0.0, SVG Export Plug-In . SVG Version: 6.00 Build 0)  -->
<!DOCTYPE svg PUBLIC "-//W3C//DTD SVG 1.1//EN" "http://www.w3.org/Graphics/SVG/1.1/DTD/svg11.dtd">
<svg version="1.1" id="Layer_1" xmlns="http://www.w3.org/2000/svg" xmlns:xlink="http://www.w3.org/1999/xlink" x="0px" y="0px"
	 width="128px" height="128px" viewBox="0 0 128 128" enable-background="new 0 0 128 128" xml:space="preserve">
<g id="Wrench">
	<g>
		<path d="M120.969,87.027l-19.461-19.465C103.063,62.641,104,57.438,104,52c0-28.727-23.281-52-52-52
			c-7.797,0-15.164,1.766-21.805,4.836L64,38.641l-5.359,19.996l-20,5.359L4.836,30.195C1.766,36.832,0,44.203,0,52
			c0,28.727,23.281,52,52,52c5.438,0,10.641-0.934,15.57-2.496l19.461,19.465C91.719,125.656,97.859,128,104,128
			c6.145,0,12.285-2.344,16.969-7.031C130.344,111.598,130.344,96.402,120.969,87.027z M115.313,115.313
			C112.289,118.336,108.273,120,104,120s-8.289-1.664-11.313-4.688L73.227,95.848c-1.523-1.523-3.566-2.344-5.656-2.344
			c-0.809,0-1.625,0.125-2.418,0.371C60.711,95.285,56.285,96,52,96C27.738,96,8,76.262,8,52c0-2.289,0.18-4.555,0.531-6.793
			l24.453,24.445c1.52,1.523,3.563,2.344,5.656,2.344c0.691,0,1.387-0.09,2.07-0.273l20-5.359c2.762-0.738,4.918-2.895,5.656-5.656
			l5.359-19.996c0.742-2.758-0.047-5.703-2.07-7.727L45.207,8.535C47.445,8.18,49.711,8,52,8c24.262,0,44,19.738,44,44
			c0,4.273-0.715,8.699-2.121,13.152c-0.898,2.848-0.137,5.957,1.973,8.066l19.461,19.465C118.336,95.707,120,99.727,120,104
			S118.336,112.289,115.313,115.313z"/>
	</g>
</g>
</svg>
