<?xml version="1.0" encoding="utf-8"?>
<!-- Generator: Adobe Illustrator 16.0.0, SVG Export Plug-In . SVG Version: 6.00 Build 0)  -->
<!DOCTYPE svg PUBLIC "-//W3C//DTD SVG 1.1//EN" "http://www.w3.org/Graphics/SVG/1.1/DTD/svg11.dtd">
<svg version="1.1" id="Layer_1" xmlns="http://www.w3.org/2000/svg" xmlns:xlink="http://www.w3.org/1999/xlink" x="0px" y="0px"
	 width="128px" height="128px" viewBox="0 0 128 128" enable-background="new 0 0 128 128" xml:space="preserve">
<g>
	<g>
		<path d="M109.258,42.746c-0.016-0.02-0.039-0.023-0.063-0.039C97.617,31.148,81.641,24,63.992,24s-33.633,7.156-45.203,18.715
			c-0.016,0.016-0.031,0.02-0.047,0.031c-1.563,1.563-1.563,4.094,0,5.656c1.57,1.563,4.094,1.563,5.664,0l0.016,0.02
			C34.555,38.281,48.555,32,63.992,32c15.445,0,29.445,6.285,39.586,16.426l0.023-0.023c1.563,1.563,4.094,1.563,5.656,0
			S110.82,44.309,109.258,42.746z M97.898,54.031c-8.672-8.668-20.656-14.027-33.891-14.027H64c0,0,0,0-0.008,0
			c-13.242,0-25.227,5.363-33.914,14.043c-0.008,0.008-0.008,0.008-0.016,0.012c-1.563,1.563-1.563,4.094,0,5.656
			s4.086,1.563,5.648,0.004l0.016,0.012c7.242-7.242,17.242-11.727,28.266-11.727h0.016c11.023,0,21.023,4.488,28.258,11.73
			l0.016-0.02c1.57,1.563,4.094,1.563,5.664,0c1.563-1.563,1.563-4.094,0-5.656C97.93,54.047,97.914,54.043,97.898,54.031z
			 M86.578,65.34C80.781,59.57,72.805,56.008,64,56.004c-8.82,0-16.813,3.574-22.602,9.352c-0.008,0.008-0.016,0.008-0.023,0.016
			c-1.563,1.566-1.563,4.094,0,5.66c1.563,1.563,4.094,1.563,5.656,0v0.004C51.563,66.5,57.594,64.004,64,64.004
			c6.617,0.004,12.613,2.691,16.961,7.035l0.008-0.008c1.563,1.563,4.094,1.563,5.656,0c1.563-1.566,1.563-4.094,0-5.66
			C86.609,65.355,86.594,65.352,86.578,65.34z M64,72.004h-0.008c-8.828,0-15.992,7.168-15.992,16C48,96.84,55.156,104,64,104h0.008
			C72.836,104,80,96.836,80,88.004C80,79.164,72.836,72.004,64,72.004z M64,96c-4.416,0-8-3.586-8-7.996s3.584-8,8-8
			c4.414,0,8,3.59,8,8S68.414,96,64,96z"/>
	</g>
</g>
</svg>
