<?xml version="1.0" encoding="utf-8"?>
<!-- Generator: Adobe Illustrator 16.0.0, SVG Export Plug-In . SVG Version: 6.00 Build 0)  -->
<!DOCTYPE svg PUBLIC "-//W3C//DTD SVG 1.1//EN" "http://www.w3.org/Graphics/SVG/1.1/DTD/svg11.dtd">
<svg version="1.1" id="Layer_1" xmlns="http://www.w3.org/2000/svg" xmlns:xlink="http://www.w3.org/1999/xlink" x="0px" y="0px"
	 width="128px" height="128px" viewBox="0 0 128 128" enable-background="new 0 0 128 128" xml:space="preserve">
<g>
	<g>
		<path d="M120,16H8c-4.418,0-8,3.582-8,8v80c0,4.418,3.582,8,8,8h112c4.418,0,8-3.582,8-8V24C128,19.582,124.418,16,120,16z
			 M120,104H8V24h112V104z M25.172,94.828C25.953,95.609,26.977,96,28,96s2.047-0.391,2.828-1.172l21.961-21.961l13.422,6.711
			c1.73,0.867,3.832,0.371,4.988-1.18l20.609-27.477l12.863,19.297c1.219,1.836,3.703,2.324,5.547,1.109
			c1.84-1.227,2.336-3.707,1.109-5.547l-16-24c-0.719-1.082-1.918-1.742-3.219-1.781c-1.254-0.043-2.535,0.563-3.309,1.602
			L66.805,70.93l-13.016-6.508c-1.531-0.77-3.391-0.469-4.617,0.75l-24,24C23.609,90.734,23.609,93.266,25.172,94.828z M32,64
			c8.824,0,16-7.176,16-16s-7.176-16-16-16s-16,7.176-16,16S23.176,64,32,64z M32,40c4.422,0,8,3.578,8,8s-3.578,8-8,8s-8-3.578-8-8
			S27.578,40,32,40z"/>
	</g>
</g>
</svg>
