<?xml version="1.0" encoding="utf-8"?>
<!-- Generator: Adobe Illustrator 16.0.0, SVG Export Plug-In . SVG Version: 6.00 Build 0)  -->
<!DOCTYPE svg PUBLIC "-//W3C//DTD SVG 1.1//EN" "http://www.w3.org/Graphics/SVG/1.1/DTD/svg11.dtd">
<svg version="1.1" id="Layer_1" xmlns="http://www.w3.org/2000/svg" xmlns:xlink="http://www.w3.org/1999/xlink" x="0px" y="0px"
	 width="128px" height="128px" viewBox="0 0 128 128" enable-background="new 0 0 128 128" xml:space="preserve">
<g>
	<g>
		<path d="M60,59.998v-8h-8v8H60z M52,59.998h-8v8h8V59.998z M44,75.998v8.001h8v-8.001H44z M60,35.997h-8v8h8V35.997z
			 M68.001,35.997v-8H60v8H68.001z M68.001,43.997H60v8.001h8.001V43.997z M68.001,43.997h8v-8h-8V43.997z M68.001,59.998h8v-8h-8
			V59.998z M76.001,67.998h8v-8h-8V67.998z M76.001,75.998v8.001h8v-8.001H76.001z M114.83,93.171L97.658,75.982h6.344
			c1.617,0,3.078-0.984,3.695-2.469c0.617-1.508,0.273-3.227-0.867-4.367L89.657,51.959h6.345c1.539,0,2.938-0.891,3.602-2.266
			c0.672-1.392,0.484-3.032-0.477-4.243L67.126,5.418c-1.517-1.891-4.736-1.891-6.251,0L28.874,45.45
			c-0.961,1.211-1.148,2.852-0.477,4.243c0.664,1.375,2.063,2.266,3.602,2.266h6.345L21.17,69.146
			c-1.141,1.141-1.484,2.859-0.867,4.367c0.617,1.484,2.078,2.469,3.695,2.469h6.344L13.17,93.171
			c-1.141,1.141-1.484,2.859-0.867,4.359c0.617,1.484,2.079,2.469,3.696,2.469H48c2.211,0,4-1.797,4-4c0-2.219-1.789-4-4-4h-4v-8
			h-8.001v8H25.655l7.993-8h2.351v-2.354l5.643-5.647H44v-8h-3.686c-0.105-0.008-0.208-0.023-0.314-0.023h-4.001v-2.346l5.626-5.631
			H44v-2.377l5.618-5.623H52v-8.001h-3.392c-0.199-0.03-0.402-0.047-0.608-0.047h-7.68l6.359-7.953H52v-6.655l1.075-1.345H60v-8
			l-2.638,2.638L60,19.335v0.662h8.001v-0.66l2.633,3.293l-2.633-2.633v8h6.924l1.076,1.346v6.654h5.32l2.68,3.351v4.602h-4
			c-0.206,0-0.409,0.017-0.608,0.047h-3.392v8.001h2.382l5.618,5.624v2.376h2.374l5.626,5.631v2.346h-4
			c-0.106,0-0.21,0.016-0.314,0.023h-3.686v8h2.358l5.642,5.646v2.354h2.352l7.993,8H92.001v-8h-8v8h-4c-2.211,0-4,1.781-4,4
			c0,2.203,1.789,4,4,4h32.001c1.617,0,3.078-0.984,3.695-2.469C116.314,96.03,115.971,94.312,114.83,93.171z M68.001,75.998h8v-8
			h-8v-4v-4H60v4v4h-8v8h8v8.001h-8v8h8V120c0,2.211,1.789,4,4,4c2.211,0,4.001-1.789,4.001-4V91.999h8v-8h-8V75.998z"/>
	</g>
</g>
</svg>
