<?xml version="1.0" encoding="utf-8"?>
<!-- Generator: Adobe Illustrator 16.0.0, SVG Export Plug-In . SVG Version: 6.00 Build 0)  -->
<!DOCTYPE svg PUBLIC "-//W3C//DTD SVG 1.1//EN" "http://www.w3.org/Graphics/SVG/1.1/DTD/svg11.dtd">
<svg version="1.1" id="Layer_1" xmlns="http://www.w3.org/2000/svg" xmlns:xlink="http://www.w3.org/1999/xlink" x="0px" y="0px"
	 width="128px" height="128px" viewBox="0 0 128 128" enable-background="new 0 0 128 128" xml:space="preserve">
<g>
	<g>
		<path d="M120,0H24c-4.422,0-8,3.582-8,8v32h8V8h96v112H24V88h-8v32c0,4.422,3.578,8,8,8h96c4.422,0,8-3.578,8-8V8
			C128,3.582,124.422,0,120,0z M88,16v96h24V16H88z M104,104h-8V24h8V104z M32.008,80c0,4.098,1.563,8.195,4.68,11.313
			C39.711,94.336,43.727,96,48,96s8.289-1.664,11.313-4.688l16-16C78.336,72.289,80,68.273,80,64s-1.664-8.289-4.688-11.313l-16-16
			C56.289,33.664,52.273,32,48,32s-8.289,1.664-11.313,4.688c-3.117,3.117-4.68,7.215-4.68,11.313H16C7.18,48,0,55.176,0,64
			c0,8.82,7.18,16,16,16H32.008z M8,64c0-4.418,3.578-8,8-8h28.688l-2.344-2.344c-3.125-3.125-3.125-8.188,0-11.313
			C43.906,40.781,45.953,40,48,40s4.094,0.781,5.656,2.344l16,16c3.125,3.125,3.125,8.188,0,11.313l-16,16
			C52.094,87.219,50.047,88,48,88s-4.094-0.781-5.656-2.344c-3.125-3.125-3.125-8.188,0-11.313L44.688,72H16
			C11.578,72,8,68.418,8,64z"/>
	</g>
</g>
</svg>
