<?xml version="1.0" encoding="utf-8"?>
<!-- Generator: Adobe Illustrator 16.0.0, SVG Export Plug-In . SVG Version: 6.00 Build 0)  -->
<!DOCTYPE svg PUBLIC "-//W3C//DTD SVG 1.1//EN" "http://www.w3.org/Graphics/SVG/1.1/DTD/svg11.dtd">
<svg version="1.1" id="Layer_1" xmlns="http://www.w3.org/2000/svg" xmlns:xlink="http://www.w3.org/1999/xlink" x="0px" y="0px"
	 width="128px" height="128px" viewBox="0 0 128 128" enable-background="new 0 0 128 128" xml:space="preserve">
<g>
	<g>
		<path d="M120,16H97.766c2.133,2.367,3.738,5.063,4.781,8H120v96H8V24h17.453c1.043-2.938,2.648-5.633,4.781-8H8
			c-4.418,0-8,3.578-8,8v96c0,4.422,3.582,8,8,8h112c4.418,0,8-3.578,8-8V24C128,19.578,124.418,16,120,16z M16,112h96V88H16V112z
			 M24,96h80v8H24V96z M48,47.992V64c0,8.82,7.176,16,16,16c8.82,0,16-7.18,16-16V47.992c4.098,0,8.195-1.563,11.313-4.68
			C94.336,40.289,96,36.273,96,32s-1.664-8.289-4.688-11.313l-16-16C72.289,1.664,68.273,0,64,0s-8.289,1.664-11.313,4.688l-16,16
			C33.664,23.711,32,27.727,32,32s1.664,8.289,4.688,11.313C39.805,46.43,43.902,47.992,48,47.992z M42.344,26.344l16-16
			c3.125-3.125,8.188-3.125,11.313,0l16,16C87.219,27.906,88,29.953,88,32s-0.781,4.094-2.344,5.656
			c-3.125,3.125-8.188,3.125-11.313,0L72,35.313V64c0,4.422-3.582,8-8,8s-8-3.578-8-8V35.313l-2.344,2.344
			c-3.125,3.125-8.188,3.125-11.313,0C40.781,36.094,40,34.047,40,32S40.781,27.906,42.344,26.344z"/>
	</g>
</g>
</svg>
