<?xml version="1.0" encoding="utf-8"?>
<!-- Generator: Adobe Illustrator 16.0.0, SVG Export Plug-In . SVG Version: 6.00 Build 0)  -->
<!DOCTYPE svg PUBLIC "-//W3C//DTD SVG 1.1//EN" "http://www.w3.org/Graphics/SVG/1.1/DTD/svg11.dtd">
<svg version="1.1" id="Layer_1" xmlns="http://www.w3.org/2000/svg" xmlns:xlink="http://www.w3.org/1999/xlink" x="0px" y="0px"
	 width="128px" height="128px" viewBox="0 0 128 128" enable-background="new 0 0 128 128" xml:space="preserve">
<g>
	<g>
		<path d="M16,72v8h8v-8H16z M32,72v-8h-8v8H32z M24,56h-8v8h8V56z M32,56v-8h-8v8H32z M120,48h-8v-8c0-4.422-3.578-8-8-8H8
			c-4.422,0-8,3.578-8,8v48c0,4.422,3.578,8,8,8h96c4.422,0,8-3.578,8-8v-8h8c4.422,0,8-3.578,8-8V56C128,51.578,124.422,48,120,48z
			 M104,88H32v-8h-8v8h-8v-8H8v-8h8v-8H8v-8h8v-8H8v-8h8v8h8v-8h80V88z M120,72h-8V56h8V72z"/>
	</g>
</g>
</svg>
