<?xml version="1.0" encoding="utf-8"?>
<!-- Generator: Adobe Illustrator 16.0.0, SVG Export Plug-In . SVG Version: 6.00 Build 0)  -->
<!DOCTYPE svg PUBLIC "-//W3C//DTD SVG 1.1//EN" "http://www.w3.org/Graphics/SVG/1.1/DTD/svg11.dtd">
<svg version="1.1" id="Layer_1" xmlns="http://www.w3.org/2000/svg" xmlns:xlink="http://www.w3.org/1999/xlink" x="0px" y="0px"
	 width="128px" height="128px" viewBox="0 0 128 128" enable-background="new 0 0 128 128" xml:space="preserve">
<path d="M64,0c0,0-40,48-40,88c0,22.094,17.91,40,40,40s40-17.906,40-40C104,48,64,0,64,0z M56,112c0-4.414,3.59-8,8-8s8,3.586,8,8
	s-3.59,8-8,8S56,116.414,56,112z M79.43,116.02c0.336-1.293,0.57-2.621,0.57-4.02c0-8.836-7.164-16-16-16s-16,7.164-16,16
	c0,1.398,0.236,2.727,0.572,4.02C38.703,110.563,32,100.055,32,88c0-27.43,21.215-60.039,32.004-74.852
	C74.797,27.945,96,60.516,96,88C96,100.055,89.297,110.563,79.43,116.02z"/>
</svg>
