<?xml version="1.0" encoding="utf-8"?>
<!-- Generator: Adobe Illustrator 16.0.0, SVG Export Plug-In . SVG Version: 6.00 Build 0)  -->
<!DOCTYPE svg PUBLIC "-//W3C//DTD SVG 1.1//EN" "http://www.w3.org/Graphics/SVG/1.1/DTD/svg11.dtd">
<svg version="1.1" id="Layer_1" xmlns="http://www.w3.org/2000/svg" xmlns:xlink="http://www.w3.org/1999/xlink" x="0px" y="0px"
	 width="128px" height="128px" viewBox="0 0 128 128" enable-background="new 0 0 128 128" xml:space="preserve">
<g id="Syringe_2">
	<g>
		<path fill="#B0BEC5" d="M112.707,1429.293l-4-4c-0.391-0.391-1.023-0.391-1.414,0l-2,2c-0.391,0.391-0.391,1.023,0,1.414
			l1.293,1.293l-4.586,4.586l-1.293-1.293c-0.391-0.391-1.023-0.391-1.414,0l-12,12c-0.391,0.391-0.391,1.023,0,1.414l1.293,1.293
			l-7.293,7.293c-0.391,0.391-0.391,1.023,0,1.414c0.195,0.195,0.451,0.293,0.707,0.293s0.512-0.098,0.707-0.293l7.293-7.293
			l1.293,1.293c0.195,0.195,0.451,0.293,0.707,0.293s0.512-0.098,0.707-0.293l12-12c0.391-0.391,0.391-1.023,0-1.414l-1.293-1.293
			l4.586-4.586l1.293,1.293c0.195,0.195,0.451,0.293,0.707,0.293s0.512-0.098,0.707-0.293l2-2
			C113.098,1430.316,113.098,1429.684,112.707,1429.293z M100,1435.414l0.586,0.586L98,1438.586L97.414,1438L100,1435.414z
			 M92,1448.586L89.414,1446l6.586-6.586l2.586,2.586L92,1448.586z M100,1440.586L99.414,1440l2.586-2.586l0.586,0.586L100,1440.586
			z M110,1430.586l-2.586-2.586l0.586-0.586l2.586,2.586L110,1430.586z"/>
	</g>
</g>
<path d="M126.828,17.172l-16-16c-1.563-1.563-4.094-1.563-5.656,0l-8,8c-1.563,1.563-1.563,4.094,0,5.656L102.344,20L84,38.344
	l-5.172-5.172c-1.563-1.563-4.094-1.563-5.656,0l-48,48c-1.563,1.563-1.563,4.094,0,5.656L30.344,92L1.172,121.172
	c-1.563,1.563-1.563,4.094,0,5.656C1.953,127.609,2.977,128,4,128s2.047-0.391,2.828-1.172L36,97.656l5.172,5.172
	C41.953,103.609,42.977,104,44,104s2.047-0.391,2.828-1.172l48-48c1.563-1.563,1.563-4.094,0-5.656L89.656,44L108,25.656
	l5.172,5.172C113.953,31.609,114.977,32,116,32s2.047-0.391,2.828-1.172l8-8C128.391,21.266,128.391,18.734,126.828,17.172z
	 M76,41.656L78.344,44L68,54.344L65.656,52L76,41.656z M44,94.344L33.656,84L60,57.656L70.344,68L44,94.344z M76,62.344L73.656,60
	L84,49.656L86.344,52L76,62.344z M116,22.344L105.656,12L108,9.656L118.344,20L116,22.344z"/>
</svg>
