<?xml version="1.0" encoding="utf-8"?>
<!-- Generator: Adobe Illustrator 16.0.0, SVG Export Plug-In . SVG Version: 6.00 Build 0)  -->
<!DOCTYPE svg PUBLIC "-//W3C//DTD SVG 1.1//EN" "http://www.w3.org/Graphics/SVG/1.1/DTD/svg11.dtd">
<svg version="1.1" id="Layer_1" xmlns="http://www.w3.org/2000/svg" xmlns:xlink="http://www.w3.org/1999/xlink" x="0px" y="0px"
	 width="128px" height="128px" viewBox="0 0 128 128" enable-background="new 0 0 128 128" xml:space="preserve">
<g id="Syringe_2">
	<g>
		<path fill="#B0BEC5" d="M112.707,1429.293l-4-4c-0.391-0.391-1.023-0.391-1.414,0l-2,2c-0.391,0.391-0.391,1.023,0,1.414
			l1.293,1.293l-4.586,4.586l-1.293-1.293c-0.391-0.391-1.023-0.391-1.414,0l-12,12c-0.391,0.391-0.391,1.023,0,1.414l1.293,1.293
			l-7.293,7.293c-0.391,0.391-0.391,1.023,0,1.414c0.195,0.195,0.451,0.293,0.707,0.293s0.512-0.098,0.707-0.293l7.293-7.293
			l1.293,1.293c0.195,0.195,0.451,0.293,0.707,0.293s0.512-0.098,0.707-0.293l12-12c0.391-0.391,0.391-1.023,0-1.414l-1.293-1.293
			l4.586-4.586l1.293,1.293c0.195,0.195,0.451,0.293,0.707,0.293s0.512-0.098,0.707-0.293l2-2
			C113.098,1430.316,113.098,1429.684,112.707,1429.293z M100,1435.414l0.586,0.586L98,1438.586L97.414,1438L100,1435.414z
			 M92,1448.586L89.414,1446l6.586-6.586l2.586,2.586L92,1448.586z M100,1440.586L99.414,1440l2.586-2.586l0.586,0.586L100,1440.586
			z M110,1430.586l-2.586-2.586l0.586-0.586l2.586,2.586L110,1430.586z"/>
	</g>
</g>
<g id="Glasses">
	<g>
		<path d="M124,60h-4c0-8.836-7.164-16-16-16H88c-5.848,0-10.906,3.168-13.699,7.852C71.512,49.484,67.945,48,64,48
			s-7.512,1.484-10.301,3.852C50.906,47.168,45.848,44,40,44H24c-8.836,0-16,7.164-16,16H4c-2.211,0-4,1.789-4,4s1.789,4,4,4h4
			c0,8.836,7.164,16,16,16h16c8.836,0,16-7.164,16-16v-4c0-4.41,3.59-8,8-8s8,3.59,8,8v4c0,8.836,7.164,16,16,16h16
			c8.836,0,16-7.164,16-16h4c2.211,0,4-1.789,4-4S126.211,60,124,60z M48,68c0,4.41-3.59,8-8,8H24c-4.41,0-8-3.59-8-8v-8
			c0-4.41,3.59-8,8-8h16c4.41,0,8,3.59,8,8V68z M112,68c0,4.41-3.59,8-8,8H88c-4.41,0-8-3.59-8-8v-8c0-4.41,3.59-8,8-8h16
			c4.41,0,8,3.59,8,8V68z"/>
	</g>
</g>
</svg>
