<?xml version="1.0" encoding="utf-8"?>
<!-- Generator: Adobe Illustrator 16.0.0, SVG Export Plug-In . SVG Version: 6.00 Build 0)  -->
<!DOCTYPE svg PUBLIC "-//W3C//DTD SVG 1.1//EN" "http://www.w3.org/Graphics/SVG/1.1/DTD/svg11.dtd">
<svg version="1.1" id="Layer_1" xmlns="http://www.w3.org/2000/svg" xmlns:xlink="http://www.w3.org/1999/xlink" x="0px" y="0px"
	 width="128px" height="128px" viewBox="0 0 128 128" enable-background="new 0 0 128 128" xml:space="preserve">
<g>
	<g>
		<path d="M64,4C30.859,4,4,30.859,4,64c0-6.625,5.375-12,12-12s12,5.375,12,12c0,2.211,1.789,4,4,4s4-1.789,4-4
			c0-6.625,5.375-12,12-12s12,5.375,12,12c0,2.211,1.789,4,4,4s4-1.789,4-4c0-6.625,5.375-12,12-12s12,5.375,12,12
			c0,2.211,1.789,4,4,4s4-1.789,4-4c0-6.625,5.375-12,12-12s12,5.375,12,12C124,30.859,97.141,4,64,4z M96,52.016
			C92.352,47.148,86.531,44,80,44s-12.352,3.148-16,8.016C60.352,47.148,54.531,44,48,44s-12.352,3.148-16,8.016
			C28.352,47.148,22.531,44,16,44c7.852-18.773,26.406-32,48-32s40.148,13.227,48,32C105.469,44,99.648,47.148,96,52.016z
			 M60,75.266V112c0,2.203-1.797,4-4,4s-4-1.797-4-4c0-2.211-1.789-4-4-4s-4,1.789-4,4c0,6.617,5.383,12,12,12s12-5.383,12-12
			V75.266C66.742,75.711,65.406,76,64,76S61.258,75.711,60,75.266z"/>
	</g>
</g>
</svg>
