<?xml version="1.0" encoding="utf-8"?>
<!-- Generator: Adobe Illustrator 16.0.0, SVG Export Plug-In . SVG Version: 6.00 Build 0)  -->
<!DOCTYPE svg PUBLIC "-//W3C//DTD SVG 1.1//EN" "http://www.w3.org/Graphics/SVG/1.1/DTD/svg11.dtd">
<svg version="1.1" id="Layer_1" xmlns="http://www.w3.org/2000/svg" xmlns:xlink="http://www.w3.org/1999/xlink" x="0px" y="0px"
	 width="128px" height="128px" viewBox="0 0 128 128" enable-background="new 0 0 128 128" xml:space="preserve">
<g id="Syringe_2">
	<g>
		<path fill="#B0BEC5" d="M112.707,1429.293l-4-4c-0.391-0.391-1.023-0.391-1.414,0l-2,2c-0.391,0.391-0.391,1.023,0,1.414
			l1.293,1.293l-4.586,4.586l-1.293-1.293c-0.391-0.391-1.023-0.391-1.414,0l-12,12c-0.391,0.391-0.391,1.023,0,1.414l1.293,1.293
			l-7.293,7.293c-0.391,0.391-0.391,1.023,0,1.414c0.195,0.195,0.451,0.293,0.707,0.293s0.512-0.098,0.707-0.293l7.293-7.293
			l1.293,1.293c0.195,0.195,0.451,0.293,0.707,0.293s0.512-0.098,0.707-0.293l12-12c0.391-0.391,0.391-1.023,0-1.414l-1.293-1.293
			l4.586-4.586l1.293,1.293c0.195,0.195,0.451,0.293,0.707,0.293s0.512-0.098,0.707-0.293l2-2
			C113.098,1430.316,113.098,1429.684,112.707,1429.293z M100,1435.414l0.586,0.586L98,1438.586L97.414,1438L100,1435.414z
			 M92,1448.586L89.414,1446l6.586-6.586l2.586,2.586L92,1448.586z M100,1440.586L99.414,1440l2.586-2.586l0.586,0.586L100,1440.586
			z M110,1430.586l-2.586-2.586l0.586-0.586l2.586,2.586L110,1430.586z"/>
	</g>
</g>
<path d="M108,44c0-24.297-19.703-44-44-44S20,19.703,20,44c0,14.438,6.988,27.215,17.732,35.238l-0.061,0.012l-0.039,0.047
	C41.477,82.227,44,86.797,44,92v20c0,8.836,7.164,16,16,16h8c8.836,0,16-7.164,16-16V92c0-5.203,2.523-9.773,6.367-12.703
	l-0.039-0.047l-0.059-0.012C101.012,71.215,108,58.438,108,44z M28,44C28,24.148,44.148,8,64,8s36,16.148,36,36
	c0,12.883-6.824,24.172-17.023,30.535c-0.008-0.02-0.008-0.047-0.016-0.066c-2.168,1.359-4.512,2.418-6.961,3.285V56h4
	c6.617,0,12-5.383,12-12s-5.383-12-12-12s-12,5.383-12,12v4h-8v-4c0-6.617-5.383-12-12-12s-12,5.383-12,12s5.383,12,12,12h4v21.754
	c-2.447-0.867-4.791-1.926-6.961-3.285c-0.008,0.02-0.008,0.047-0.016,0.066C34.822,68.172,28,56.883,28,44z M76,100.801
	l-23.447,14.066C52.209,113.973,52,113.012,52,112v-4.801l24-14.395V100.801z M52,48h-4c-2.207,0-4-1.797-4-4s1.793-4,4-4
	s4,1.797,4,4V48z M68,79.766C66.684,79.91,65.352,80,64,80s-2.686-0.09-4-0.234V56h8V79.766z M76,48v-4c0-2.203,1.793-4,4-4
	s4,1.797,4,4s-1.793,4-4,4H76z M64,88c2.707,0,5.344-0.281,7.914-0.75L52,99.199V86.301C55.82,87.383,59.834,88,64,88z M68,120h-8
	c-0.742,0-1.447-0.133-2.129-0.324L76,108.801V112C76,116.414,72.41,120,68,120z"/>
</svg>
