<?xml version="1.0" encoding="utf-8"?>
<!-- Generator: Adobe Illustrator 16.0.0, SVG Export Plug-In . SVG Version: 6.00 Build 0)  -->
<!DOCTYPE svg PUBLIC "-//W3C//DTD SVG 1.1//EN" "http://www.w3.org/Graphics/SVG/1.1/DTD/svg11.dtd">
<svg version="1.1" id="Layer_1" xmlns="http://www.w3.org/2000/svg" xmlns:xlink="http://www.w3.org/1999/xlink" x="0px" y="0px"
	 width="128px" height="128px" viewBox="0 0 128 128" enable-background="new 0 0 128 128" xml:space="preserve">
<g>
	<g>
		<path d="M48,72h-8v8h8V72z M48,64v8h8v-8H48z M40,64h-8v8h8V64z M32,56h-8v8h8V56z M40,56v8h8v-8H40z M64,64v-8h-8v8H64z M64,40
			h-8v8h8V40z M56,56v-8h-8v8H56z M40,56v-8h-8v8H40z M112.414,10.391C109.844,8.805,106.922,8,104,8
			c-2.445,0-4.898,0.563-7.156,1.688L52.219,32H24c-8.836,0-16,7.164-16,16v16c0,8.836,7.164,16,16,16v24c0,8.836,7.164,16,16,16
			s16-7.164,16-16V81.891l40.844,20.422C99.102,103.438,101.555,104,104,104c2.922,0,5.844-0.805,8.414-2.391
			C117.125,98.695,120,93.547,120,88V24C120,18.453,117.125,13.305,112.414,10.391z M112,88c0,2.75-1.453,5.359-3.789,6.805
			C106.945,95.586,105.484,96,104,96c-1.234,0-2.477-0.297-3.578-0.844L64,76.945V72h-8v1.891c-1.461,0-2.922,0.398-4.203,1.195
			C49.438,76.547,48,79.117,48,81.891V88h-8v8h8v8h-8v8c-4.414,0-8-3.586-8-8h8v-8h-8v-8h8v-8h-8v-8h-8v-8h-8v-8h8v-8h-8
			c0-4.414,3.586-8,8-8v8h8v-8h8v8h8v-8h4.219c1.242,0,2.469-0.289,3.578-0.844l44.617-22.313C101.523,16.297,102.766,16,104,16
			c1.484,0,2.945,0.414,4.203,1.195C110.547,18.641,112,21.25,112,24V88z"/>
	</g>
</g>
</svg>
