<?xml version="1.0" encoding="utf-8"?>
<!-- Generator: Adobe Illustrator 16.0.0, SVG Export Plug-In . SVG Version: 6.00 Build 0)  -->
<!DOCTYPE svg PUBLIC "-//W3C//DTD SVG 1.1//EN" "http://www.w3.org/Graphics/SVG/1.1/DTD/svg11.dtd">
<svg version="1.1" id="Layer_1" xmlns="http://www.w3.org/2000/svg" xmlns:xlink="http://www.w3.org/1999/xlink" x="0px" y="0px"
	 width="128px" height="128px" viewBox="0 0 128 128" enable-background="new 0 0 128 128" xml:space="preserve">
<g id="Syringe_2">
	<g>
		<path fill="#B0BEC5" d="M112.707,1429.293l-4-4c-0.391-0.391-1.023-0.391-1.414,0l-2,2c-0.391,0.391-0.391,1.023,0,1.414
			l1.293,1.293l-4.586,4.586l-1.293-1.293c-0.391-0.391-1.023-0.391-1.414,0l-12,12c-0.391,0.391-0.391,1.023,0,1.414l1.293,1.293
			l-7.293,7.293c-0.391,0.391-0.391,1.022,0,1.414c0.195,0.194,0.451,0.293,0.707,0.293s0.512-0.099,0.707-0.293l7.293-7.293
			l1.293,1.293c0.195,0.194,0.451,0.293,0.707,0.293s0.512-0.099,0.707-0.293l12-12c0.391-0.392,0.391-1.023,0-1.414l-1.293-1.293
			l4.586-4.586l1.293,1.293c0.195,0.194,0.451,0.293,0.707,0.293s0.512-0.099,0.707-0.293l2-2
			C113.098,1430.316,113.098,1429.684,112.707,1429.293z M100,1435.414l0.586,0.586L98,1438.586L97.414,1438L100,1435.414z
			 M92,1448.586L89.414,1446l6.586-6.586l2.586,2.586L92,1448.586z M100,1440.586L99.414,1440l2.586-2.586l0.586,0.586L100,1440.586
			z M110,1430.586l-2.586-2.586l0.586-0.586l2.586,2.586L110,1430.586z"/>
	</g>
</g>
<g id="Couch">
	<g>
		<path d="M104,56c-2.93,0-5.637,0.844-8,2.219V16c0-4.422-3.582-8-8-8H40c-4.418,0-8,3.578-8,8v42.219
			C29.637,56.844,26.93,56,24,56c-8.836,0-16,7.164-16,16c0,5.906,3.238,11.008,8,13.781V108c0,6.617,5.383,12,12,12
			c2.496,0,4.813-0.766,6.734-2.078C36.148,119.18,37.961,120,40,120h48c2.039,0,3.852-0.82,5.266-2.078
			C95.188,119.234,97.504,120,100,120c6.617,0,12-5.383,12-12V85.781c4.762-2.773,8-7.875,8-13.781C120,63.164,112.836,56,104,56z
			 M32,108c0,2.211-1.789,4-4,4s-4-1.789-4-4V88c2.93,0,5.637-0.844,8-2.219V108z M24,80c-4.41,0-8-3.586-8-8s3.59-8,8-8
			s8,3.586,8,8S28.41,80,24,80z M88,112H40V93.773C42.363,95.156,45.074,96,48,96h32c2.926,0,5.637-0.844,8-2.227V112z M80,88H48
			c-4.418,0-8-3.578-8-8s3.582-8,8-8h32c4.418,0,8,3.578,8,8S84.418,88,80,88z M88,66.227C85.637,64.844,82.926,64,80,64H48
			c-2.926,0-5.637,0.844-8,2.227V16h48V66.227z M104,108c0,2.211-1.789,4-4,4s-4-1.789-4-4V85.781c2.363,1.375,5.07,2.219,8,2.219
			V108z M104,80c-4.41,0-8-3.586-8-8s3.59-8,8-8s8,3.586,8,8S108.41,80,104,80z"/>
	</g>
</g>
</svg>
