<?xml version="1.0" encoding="utf-8"?>
<!-- Generator: Adobe Illustrator 16.0.0, SVG Export Plug-In . SVG Version: 6.00 Build 0)  -->
<!DOCTYPE svg PUBLIC "-//W3C//DTD SVG 1.1//EN" "http://www.w3.org/Graphics/SVG/1.1/DTD/svg11.dtd">
<svg version="1.1" id="Layer_1" xmlns="http://www.w3.org/2000/svg" xmlns:xlink="http://www.w3.org/1999/xlink" x="0px" y="0px"
	 width="128px" height="128px" viewBox="0 0 128 128" enable-background="new 0 0 128 128" xml:space="preserve">
<g id="Syringe_2">
	<g>
		<path fill="#B0BEC5" d="M112.707,1429.293l-4-4c-0.391-0.391-1.023-0.391-1.414,0l-2,2c-0.391,0.391-0.391,1.023,0,1.414
			l1.293,1.293l-4.586,4.586l-1.293-1.293c-0.391-0.391-1.023-0.391-1.414,0l-12,12c-0.391,0.391-0.391,1.023,0,1.414l1.293,1.293
			l-7.293,7.293c-0.391,0.391-0.391,1.022,0,1.414c0.195,0.194,0.451,0.293,0.707,0.293s0.512-0.099,0.707-0.293l7.293-7.293
			l1.293,1.293c0.195,0.194,0.451,0.293,0.707,0.293s0.512-0.099,0.707-0.293l12-12c0.391-0.392,0.391-1.023,0-1.414l-1.293-1.293
			l4.586-4.586l1.293,1.293c0.195,0.194,0.451,0.293,0.707,0.293s0.512-0.099,0.707-0.293l2-2
			C113.098,1430.316,113.098,1429.684,112.707,1429.293z M100,1435.414l0.586,0.586L98,1438.586L97.414,1438L100,1435.414z
			 M92,1448.586L89.414,1446l6.586-6.586l2.586,2.586L92,1448.586z M100,1440.586L99.414,1440l2.586-2.586l0.586,0.586L100,1440.586
			z M110,1430.586l-2.586-2.586l0.586-0.586l2.586,2.586L110,1430.586z"/>
	</g>
</g>
<g id="Shirt">
	<g>
		<path d="M122.531,24.414C122.531,24.414,86.035,8,80,8c-4.418,0-8,3.578-8,8c0,4.414-3.59,8-8,8s-8-3.586-8-8c0-4.422-3.582-8-8-8
			C41.965,8,5.469,24.414,5.469,24.414C2.203,25.5,0,28.555,0,32v16c0,2.57,1.234,4.984,3.324,6.492C4.703,55.484,6.344,56,8,56
			c0.852,0,1.703-0.133,2.531-0.414L32,48.43V104c0,8.836,7.164,16,16,16h32c8.836,0,16-7.164,16-16V48.43l21.469,7.156
			C118.297,55.867,119.148,56,120,56c1.656,0,3.297-0.516,4.676-1.508C126.766,52.984,128,50.57,128,48V32
			C128,28.555,125.797,25.5,122.531,24.414z M120,48l-21.469-7.156c-0.828-0.281-1.68-0.414-2.531-0.414
			c-1.656,0-3.297,0.516-4.676,1.508C89.234,43.445,88,45.859,88,48.43V104c0,4.414-3.59,8-8,8H48c-4.41,0-8-3.586-8-8V48.43
			c0-2.57-1.234-4.984-3.324-6.492c-1.379-0.992-3.02-1.508-4.676-1.508c-0.852,0-1.703,0.133-2.531,0.414L8,48L7.992,32.008
			c0.258-0.086,0.512-0.188,0.758-0.297C24.707,24.531,44.383,16.484,48,16c0,8.82,7.176,16,16,16
			c8.809,0,15.98-7.156,15.988-15.961c4.641,0.859,23.715,8.68,39.262,15.672c0.246,0.109,0.492,0.203,0.75,0.289V48z"/>
	</g>
</g>
</svg>
