<?xml version="1.0" encoding="utf-8"?>
<!-- Generator: Adobe Illustrator 14.0.0, SVG Export Plug-In . SVG Version: 6.00 Build 43363)  -->
<!DOCTYPE svg PUBLIC "-//W3C//DTD SVG 1.1//EN" "http://www.w3.org/Graphics/SVG/1.1/DTD/svg11.dtd">
<svg version="1.1" xmlns="http://www.w3.org/2000/svg" xmlns:xlink="http://www.w3.org/1999/xlink" x="0px" y="0px" width="800px"
	 height="600px" viewBox="0 0 800 600" enable-background="new 0 0 800 600" xml:space="preserve">
<g id="Layer_1">
	<rect fill="#0660B2" width="800" height="600"/>
</g>
<g id="Layer_2">
	<g id="guides" display="none">
	</g>
	<g id="guides_1_" display="none">
	</g>
	<g id="guides_2_" display="none">
	</g>
	<g id="guides_4_" display="none">
	</g>
	<g>
		<g>
			<g>
				<circle fill="none" stroke="#FFFFFF" stroke-linecap="round" stroke-linejoin="round" cx="466.602" cy="158.455" r="33.76"/>
				<path fill="none" stroke="#34CBB4" stroke-linecap="round" stroke-linejoin="round" d="M485.18,152.403h-12.528v-12.526
					c0-0.704-0.569-1.274-1.274-1.274h-9.556c-0.702,0-1.272,0.57-1.272,1.274v12.526h-12.528c-0.704,0-1.272,0.572-1.272,1.274
					v9.556c0,0.702,0.568,1.274,1.272,1.274h12.528v12.527c0,0.704,0.57,1.274,1.272,1.274h9.556c0.703,0,1.274-0.57,1.274-1.274
					v-12.527h12.528c0.702,0,1.273-0.57,1.273-1.274v-9.556C486.453,152.975,485.884,152.403,485.18,152.403z"/>
			</g>
			<g id="Layer_4">
				<g>
					<path fill="none" stroke="#34CBB4" stroke-linecap="round" stroke-linejoin="round" d="M331.353,149.54
						c-6.905-7.229-17.698,3.05-10.854,10.313l10.851,9.978v0.002h0.003l0,0v-0.002l10.847-9.978
						C349.047,152.589,338.256,142.311,331.353,149.54z"/>
				</g>
				<polygon fill="none" stroke="#FFFFFF" stroke-linecap="round" stroke-linejoin="round" points="323.467,192.781 
					351.968,192.781 351.968,124.129 308.994,124.129 308.994,178.425 				"/>
				<polyline fill="none" stroke="#FFFFFF" stroke-linecap="round" stroke-linejoin="round" points="346.869,156.961 
					335.606,156.961 332.297,160.386 328.291,152.313 325.039,156.961 315.52,156.961 				"/>
				<polyline fill="none" stroke="#FFFFFF" stroke-linecap="round" stroke-linejoin="round" points="323.467,192.334 
					323.467,178.604 309.439,178.604 				"/>
			</g>
			<g>
				<g id="Layer_7_copy_2">
					<path fill="none" stroke="#FFFFFF" d="M613.373,138.396c1.534,0.653,2.978,1.488,4.3,2.475
						c5.081,3.796,8.377,9.857,8.377,16.673c0,11.468-9.333,20.802-20.8,20.802l0,0c-9.128,0-16.901-6.191-19.695-14.38
						 M592.214,163.966c2.312,4.88,7.286,7.987,13.036,7.987c7.942,0,14.408-6.462,14.408-14.409
						c0-6.754-4.668-12.438-10.953-13.991"/>
				</g>
				<g id="Layer_5">
					
						<line fill="none" stroke="#FFFFFF" stroke-linecap="round" stroke-linejoin="round" x1="605.687" y1="169.208" x2="605.687" y2="186.122"/>
					
						<line fill="none" stroke="#34CBB4" stroke-linecap="round" stroke-linejoin="round" x1="598.443" y1="163.993" x2="579.394" y2="163.993"/>
					<polygon fill="none" stroke="#FFFFFF" stroke-linecap="round" stroke-linejoin="round" points="588.87,192.927 
						622.503,192.927 620.316,187.095 591.057,187.095 					"/>
				</g>
				<g id="Layer_7_copy">
					
						<line fill="none" stroke="#34CBB4" stroke-linecap="round" stroke-linejoin="round" x1="602.158" y1="149.014" x2="594.734" y2="141.591"/>
					
						<rect x="599.12" y="125.533" transform="matrix(-0.7071 -0.7072 0.7072 -0.7071 933.6848 665.8615)" fill="none" stroke="#FFFFFF" stroke-linecap="round" stroke-linejoin="round" width="11.278" height="28.017"/>
					
						<rect x="612.999" y="125.625" transform="matrix(-0.7071 -0.7071 0.7071 -0.7071 961.5595 654.3146)" fill="none" stroke="#FFFFFF" stroke-linecap="round" stroke-linejoin="round" width="6.607" height="4.745"/>
				</g>
			</g>
			<g>
				
					<line fill="none" stroke="#34CBB4" stroke-linecap="round" stroke-linejoin="round" x1="212.326" y1="164.213" x2="186.565" y2="164.213"/>
				<g>
					<path fill="none" stroke="#FFFFFF" stroke-linecap="round" stroke-linejoin="round" d="M221.965,186.811l2.976-3.986
						L204.9,152.412V130.1h-10.968v22.312l-19.981,30.412l2.976,3.986H221.965z"/>
					
						<line fill="none" stroke="#FFFFFF" stroke-linecap="round" stroke-linejoin="round" x1="207.413" y1="130.1" x2="191.417" y2="130.1"/>
				</g>
				
					<line fill="none" stroke="#FFFFFF" stroke-linecap="round" stroke-linejoin="round" x1="202.185" y1="170.774" x2="196.706" y2="170.774"/>
				
					<line fill="none" stroke="#FFFFFF" stroke-linecap="round" stroke-linejoin="round" x1="202.185" y1="175.611" x2="196.706" y2="175.611"/>
				
					<line fill="none" stroke="#FFFFFF" stroke-linecap="round" stroke-linejoin="round" x1="202.185" y1="180.818" x2="196.706" y2="180.818"/>
			</g>
		</g>
		<g>
			<g>
				<path fill="none" stroke="#34CBB4" stroke-linecap="round" stroke-linejoin="round" d="M456.453,309.149l-5.324,5.325
					l1.644,1.642l-9.623,9.623c0,0-4.965,4.896-9.857,0.003l19.117-19.118"/>
				
					<line fill="none" stroke="#34CBB4" stroke-linecap="round" stroke-linejoin="round" x1="447.02" y1="316.938" x2="441.622" y2="322.336"/>
				<path fill="none" stroke="#FFFFFF" stroke-linecap="round" stroke-linejoin="round" d="M458.228,309.842l30.687-30.686
					c1.686-1.686,1.685-4.418,0-6.103l0,0c-1.684-1.685-4.417-1.687-6.102,0l-32.452,32.449L458.228,309.842z"/>
				<path fill="none" stroke="#FFFFFF" stroke-linecap="round" stroke-linejoin="round" d="M453.269,303.005l7.479,4.125"/>
				<path fill="none" stroke="#FFFFFF" stroke-linecap="round" stroke-linejoin="round" d="M455.766,300.508l7.403,4.082"/>
				<path fill="none" stroke="#FFFFFF" stroke-linecap="round" stroke-linejoin="round" d="M458.265,298.008l7.146,3.941"/>
			</g>
			<g>
				
					<line fill="none" stroke="#FFFFFF" stroke-linecap="round" stroke-linejoin="round" x1="618.002" y1="280.378" x2="610.014" y2="272.391"/>
				
					<line fill="none" stroke="#FFFFFF" stroke-linecap="round" stroke-linejoin="round" x1="599.36" y1="299.019" x2="591.372" y2="291.03"/>
				
					<line fill="none" stroke="#34CBB4" stroke-linecap="round" stroke-linejoin="round" x1="585.545" y1="305.179" x2="581.55" y2="301.184"/>
				
					<line fill="none" stroke="#34CBB4" stroke-linecap="round" stroke-linejoin="round" x1="586.876" y1="301.517" x2="583.881" y2="298.521"/>
				
					<line fill="none" stroke="#34CBB4" stroke-linecap="round" stroke-linejoin="round" x1="581.884" y1="306.51" x2="578.888" y2="303.515"/>
				
					<rect x="574.981" y="311.056" transform="matrix(-0.7072 -0.707 0.707 -0.7072 765.4185 942.1647)" fill="none" stroke="#FFFFFF" stroke-linecap="round" stroke-linejoin="round" width="5.646" height="3.061"/>
				
					<line fill="none" stroke="#FFFFFF" stroke-linecap="round" stroke-linejoin="round" x1="614.009" y1="276.383" x2="595.365" y2="295.025"/>
				
					<line fill="none" stroke="#FFFFFF" stroke-linecap="round" stroke-linejoin="round" x1="576.391" y1="314.001" x2="563.073" y2="327.318"/>
				
					<rect x="586.388" y="279.758" transform="matrix(-0.7071 -0.7071 0.7071 -0.7071 799.701 927.9565)" fill="none" stroke="#FFFFFF" stroke-linecap="round" stroke-linejoin="round" width="11.297" height="37.193"/>
			</g>
			<g>
				<path fill="none" stroke="#34CBB4" stroke-linecap="round" stroke-linejoin="round" d="M211.046,308.416l12.826-12.827
					c5.011-5.011,5.15-12.993,0.313-17.833l0,0c-4.837-4.837-12.823-4.697-17.834,0.313l-12.828,12.825"/>
				<path fill="none" stroke="#34CBB4" stroke-linecap="round" stroke-linejoin="round" d="M225.499,276.444"/>
				<path fill="none" stroke="#FFFFFF" stroke-linecap="round" stroke-linejoin="round" d="M192.097,290.224l-11.33,11.329
					c-5.611,5.611-5.768,14.555-0.35,19.971l0,0c5.417,5.418,14.36,5.263,19.97-0.351l11.33-11.328L192.097,290.224z"/>
				<path fill="none" stroke="#34CBB4" stroke-linecap="round" stroke-linejoin="round" d="M225.499,276.444"/>
				<path fill="none" stroke="#FFFFFF" stroke-linecap="round" stroke-linejoin="round" d="M185.424,320.522
					c2.718,1.485,5.998,1.639,8.914,0.476"/>
				<g id="guides_3_" display="none">
				</g>
			</g>
			<g>
				<path fill="none" stroke="#34CBB4" stroke-linecap="round" stroke-linejoin="round" d="M330.883,300.344l15.076-0.051"/>
				<g>
					<path fill="none" stroke="#FFFFFF" stroke-linecap="round" stroke-linejoin="round" d="M357.518,273.367l-45.39,45.389
						c-2.142,2.141-2.14,5.616-0.001,7.755l0,0c2.143,2.143,5.617,2.143,7.753,0l45.394-45.386L357.518,273.367z"/>
					
						<line fill="none" stroke="#FFFFFF" stroke-linecap="round" stroke-linejoin="round" x1="367.05" y1="282.898" x2="355.741" y2="271.59"/>
				</g>
			</g>
		</g>
		<g>
			<g>
				<path fill="none" stroke="#34CBB4" stroke-linecap="round" stroke-linejoin="round" d="M320.021,414.809
					c0,0,4.745,3.419,10.7,0.714c5.229-2.379,6.657-1.901,10.698-0.714"/>
				<g id="Layer_7_1_">
					<g>
						<path fill="none" stroke="#FFFFFF" stroke-linecap="round" stroke-linejoin="round" d="M331.174,435.269v4.354
							c0,1.984-1.607,3.592-3.594,3.592h-10.123c0,0-3.354-0.273-3.354,3.249c0,3.661,3.354,3.243,3.354,3.243h26.288
							c0,0,3.11-0.134,3.11,3.252c0,3.385-2.207,3.454-3.174,3.454c-0.975,0-9.398,0-9.398,0s-3.043,0.037-3.043,2.807"/>
					</g>
				</g>
				<path fill="none" stroke="#FFFFFF" stroke-linecap="round" stroke-linejoin="round" d="M341.895,423.231
					c0,6.04-4.895,10.938-10.936,10.938l0,0c-6.04,0-10.938-4.898-10.938-10.938v-12.213c0-6.039,21.874-6.039,21.874,0V423.231z"/>
				<path fill="none" stroke="#FFFFFF" stroke-linecap="round" stroke-linejoin="round" d="M337.846,426.577
					c-0.976,2.099-2.85,3.695-5.132,4.292"/>
				<path fill="none" stroke="#FFFFFF" stroke-linecap="round" stroke-linejoin="round" d="M329.649,468.981
					c0,0.47,0.167,0.857,0.371,0.857h2.351c0.205,0,0.371-0.388,0.371-0.857v-8.278c0-0.471-0.166-0.855-0.371-0.855h-2.351
					c-0.204,0-0.371,0.385-0.371,0.855V468.981z"/>
				
					<line fill="none" stroke="#FFFFFF" stroke-linecap="round" stroke-linejoin="round" x1="331.195" y1="470.311" x2="331.195" y2="476.017"/>
			</g>
			<g id="Layer_7">
				<g>
					<circle fill="none" stroke="#FFFFFF" stroke-linecap="round" stroke-linejoin="round" cx="195.122" cy="469.674" r="5.115"/>
					<circle fill="none" stroke="#34CBB4" stroke-linecap="round" stroke-linejoin="round" cx="195.123" cy="469.675" r="2.349"/>
					<polyline fill="none" stroke="#FFFFFF" stroke-linecap="round" stroke-linejoin="round" points="190.898,434.382 
						195.122,440.517 199.343,434.382 					"/>
					<path fill="none" stroke="#FFFFFF" stroke-linecap="round" stroke-linejoin="round" d="M195.055,440.447v4.357
						c0,1.984-1.607,3.588-3.595,3.588h-10.123c0,0-3.353-0.272-3.353,3.253c0,3.66,3.353,3.242,3.353,3.242h26.288
						c0,0,3.111-0.131,3.111,3.255c0,3.385-2.207,3.452-3.175,3.452c-0.973,0-9.398,0-9.398,0s-3.042,0.039-3.042,2.805"/>
					<path fill="none" stroke="#FFFFFF" stroke-linecap="round" stroke-linejoin="round" d="M186.831,408.802
						c-2.341,0-3.316,1.591-2.692,4.239l3.316,16.811c0.933,2.579,1.899,4.24,4.238,4.24h6.859c2.345,0,3.412-1.866,4.245-4.24
						l3.315-16.811c0.758-2.648-0.078-4.239-2.419-4.239"/>
					<path fill="none" stroke="#34CBB4" stroke-linecap="round" stroke-linejoin="round" d="M200.455,409.381
						c0,0.321,0.262,0.579,0.582,0.579h1.659c0.325,0,0.582-0.258,0.582-0.579v-1.082c0-0.319-0.261-0.581-0.582-0.581h-1.659
						c-0.32,0-0.582,0.262-0.582,0.581V409.381L200.455,409.381z"/>
					<path fill="none" stroke="#34CBB4" stroke-linecap="round" stroke-linejoin="round" d="M187.37,409.381
						c0,0.321,0.261,0.579,0.58,0.579h1.664c0.318,0,0.58-0.258,0.58-0.579v-1.082c0-0.319-0.262-0.581-0.58-0.581h-1.664
						c-0.32,0-0.58,0.262-0.58,0.581V409.381z"/>
				</g>
			</g>
			<g id="Layer_4_1_">
				<g>
					<path fill="none" stroke="#FFFFFF" stroke-linecap="round" stroke-linejoin="round" d="M450.318,424.779
						c-12.761-13.359-32.705,5.635-20.057,19.059l20.052,18.438v0.006h0.005l0,0v-0.006l20.048-18.438
						C483.019,430.414,463.077,411.42,450.318,424.779z"/>
				</g>
				<polyline fill="none" stroke="#34CBB4" stroke-linecap="round" stroke-linejoin="round" points="478.992,438.493 
					458.181,438.493 452.064,444.82 444.66,429.906 438.65,438.493 421.059,438.493 				"/>
			</g>
			<g>
				
					<rect x="570.056" y="424.982" fill="none" stroke="#FFFFFF" stroke-linecap="round" stroke-linejoin="round" width="38.622" height="44.676"/>
				
					<line fill="none" stroke="#FFFFFF" stroke-linecap="round" stroke-linejoin="round" x1="608.678" y1="463.537" x2="570.056" y2="463.537"/>
				
					<line fill="none" stroke="#FFFFFF" stroke-linecap="round" stroke-linejoin="round" x1="570.056" y1="431.104" x2="608.678" y2="431.104"/>
				
					<rect x="572.541" y="412.848" fill="none" stroke="#FFFFFF" stroke-linecap="round" stroke-linejoin="round" width="33.651" height="6.823"/>
				<g>
					
						<line fill="none" stroke="#FFFFFF" stroke-linecap="round" stroke-linejoin="round" x1="575.02" y1="424.44" x2="575.02" y2="419.913"/>
					
						<line fill="none" stroke="#FFFFFF" stroke-linecap="round" stroke-linejoin="round" x1="603.714" y1="419.913" x2="603.714" y2="424.44"/>
				</g>
				<path fill="none" stroke="#34CBB4" stroke-linecap="round" stroke-linejoin="round" d="M599.693,443.956h-6.965v-6.961
					c0-0.394-0.315-0.709-0.708-0.709h-5.311c-0.39,0-0.707,0.315-0.707,0.709v6.961h-6.964c-0.392,0-0.707,0.318-0.707,0.709v5.312
					c0,0.391,0.315,0.707,0.707,0.707h6.964v6.964c0,0.391,0.317,0.707,0.707,0.707h5.311c0.392,0,0.708-0.316,0.708-0.707v-6.964
					h6.965c0.39,0,0.709-0.315,0.709-0.707v-5.312C600.402,444.274,600.086,443.956,599.693,443.956z"/>
				<g>
					
						<line fill="none" stroke="#FFFFFF" stroke-linecap="round" stroke-linejoin="round" x1="601.513" y1="413.612" x2="601.513" y2="419.543"/>
					
						<line fill="none" stroke="#FFFFFF" stroke-linecap="round" stroke-linejoin="round" x1="596.654" y1="419.161" x2="596.654" y2="413.612"/>
					
						<line fill="none" stroke="#FFFFFF" stroke-linecap="round" stroke-linejoin="round" x1="591.795" y1="413.612" x2="591.795" y2="419.543"/>
					
						<line fill="none" stroke="#FFFFFF" stroke-linecap="round" stroke-linejoin="round" x1="586.938" y1="419.161" x2="586.938" y2="413.612"/>
					
						<line fill="none" stroke="#FFFFFF" stroke-linecap="round" stroke-linejoin="round" x1="582.079" y1="413.612" x2="582.079" y2="419.543"/>
					
						<line fill="none" stroke="#FFFFFF" stroke-linecap="round" stroke-linejoin="round" x1="577.221" y1="419.161" x2="577.221" y2="413.612"/>
				</g>
			</g>
		</g>
	</g>
</g>
</svg>
