<?xml version="1.0" encoding="utf-8"?>
<!-- Generator: Adobe Illustrator 21.1.0, SVG Export Plug-In . SVG Version: 6.00 Build 0)  -->
<svg version="1.1" id="Layer_1" xmlns="http://www.w3.org/2000/svg" xmlns:xlink="http://www.w3.org/1999/xlink" x="0px" y="0px"
	 viewBox="0 0 100 100" enable-background="new 0 0 100 100" xml:space="preserve">
<g>
	<path fill="#6AC9CC" d="M24.68,33.335c0,0,14.51,13.141-1.132,31.698c0,0-1.504,5.431,2.319,5.659c0,0,6.654-5.859,9.475-16.571
		c2.822-10.714-1.602-19.31-8.624-26.458c0,0-16.876,4.052-20.371,22.187c-2.836,14.716,3.864,19.748,3.864,19.748
		s2.363,1.059,3.797-3.255C14.009,66.344,0.111,46.388,24.68,33.335z"/>
	<g>
		<path fill="#FEE36F" d="M26.718,27.663c4.979,5.069,8.649,10.867,9.358,17.631c4.149-7.168,8.046-15.616,4.609-22.883
			c-5.018-10.609-20.141-9.648-26.524,0.841C10.194,29.77,8.453,37.24,8.239,43.664C13.817,30.762,26.718,27.663,26.718,27.663z"/>
		<path fill="#FEE36F" d="M28.04,68.37c-1.275,1.53-2.173,2.323-2.173,2.323c-3.823-0.229-2.319-5.659-2.319-5.659
			C39.19,46.476,24.68,33.335,24.68,33.335C0.111,46.388,14.009,66.344,14.009,66.344c-1.435,4.313-3.797,3.255-3.797,3.255
			S9.373,68.964,8.415,67.5c-0.947,3.403-2.052,6.498-2.485,8.616C4.917,81.07,4.902,92.861,15.835,94.36
			c10.936,1.498,14.206-10.021,12.55-19.915C28.134,72.944,28.032,71.896,28.04,68.37z"/>
	</g>
	<path fill="#6AC9CC" d="M75.32,23.936c0,0-14.51,13.141,1.132,31.698c0,0,1.504,5.431-2.319,5.659c0,0-6.654-5.859-9.475-16.571
		c-2.822-10.714,1.602-19.31,8.624-26.458c0,0,16.876,4.052,20.371,22.187c2.836,14.716-3.864,19.748-3.864,19.748
		s-2.363,1.059-3.797-3.255C85.991,56.944,99.889,36.989,75.32,23.936z"/>
	<g>
		<path fill="#FEE36F" d="M73.282,18.264c-4.979,5.069-8.649,10.867-9.358,17.631c-4.149-7.168-8.046-15.616-4.609-22.883
			c5.018-10.609,20.141-9.648,26.524,0.841c3.967,6.518,5.708,13.988,5.923,20.412C86.183,21.362,73.282,18.264,73.282,18.264z"/>
		<path fill="#FEE36F" d="M71.96,58.971c1.275,1.53,2.173,2.323,2.173,2.323c3.823-0.229,2.319-5.659,2.319-5.659
			C60.81,37.077,75.32,23.936,75.32,23.936c24.569,13.053,10.671,33.008,10.671,33.008c1.435,4.314,3.797,3.255,3.797,3.255
			s0.839-0.634,1.796-2.098c0.947,3.403,2.052,6.498,2.485,8.616c1.013,4.954,1.028,16.745-9.905,18.244
			c-10.936,1.498-14.206-10.021-12.55-19.915C71.866,63.545,71.968,62.497,71.96,58.971z"/>
	</g>
	<path fill="#136296" d="M41.142,22.195c-2.207-4.665-6.48-7.498-11.726-7.774c-6.159-0.322-12.322,3.04-15.687,8.568
		c-3.608,5.927-5.734,13.232-5.993,20.579c-0.799,1.858-1.448,3.914-1.886,6.186C4.023,59.242,6.068,64.778,7.86,67.599
		c-0.361,1.283-0.737,2.508-1.101,3.69c-0.569,1.846-1.061,3.441-1.324,4.725C4.626,79.97,4.724,86.06,7.663,90.208
		c1.844,2.603,4.571,4.168,8.104,4.653C16.444,94.953,17.099,95,17.732,95c2.965,0,5.451-1.015,7.406-3.029
		c4.209-4.336,4.694-11.939,3.746-17.609c-0.237-1.414-0.342-2.412-0.338-5.794c2.23-2.696,5.496-7.526,7.285-14.317
		c0.796-3.022,1.053-5.968,0.77-8.855C40.832,38.062,44.64,29.592,41.142,22.195z M14.593,23.515
		c3.174-5.216,8.967-8.395,14.77-8.084c4.862,0.255,8.822,2.878,10.865,7.196c3.123,6.602-0.027,14.285-3.849,21.113
		c-0.12-0.701-0.276-1.398-0.461-2.092c-0.003-0.01-0.005-0.019-0.008-0.029c-0.085-0.318-0.177-0.635-0.275-0.951
		c-0.013-0.041-0.024-0.081-0.037-0.122c-0.104-0.326-0.212-0.651-0.331-0.976c-0.034-0.095-0.073-0.189-0.109-0.284
		c-0.078-0.207-0.157-0.413-0.24-0.619c-0.078-0.191-0.16-0.382-0.243-0.573c-0.044-0.101-0.087-0.201-0.132-0.301
		c-0.098-0.22-0.2-0.439-0.306-0.658c-0.026-0.054-0.053-0.108-0.079-0.162c-0.517-1.06-1.115-2.113-1.793-3.162
		c-0.009-0.015-0.019-0.029-0.028-0.044c-0.165-0.255-0.336-0.51-0.511-0.764c-0.022-0.033-0.045-0.065-0.068-0.098
		c-0.499-0.72-1.036-1.438-1.612-2.155c-0.069-0.086-0.136-0.171-0.205-0.257c-0.136-0.166-0.276-0.332-0.415-0.498
		c-0.127-0.151-0.255-0.301-0.385-0.452c-0.122-0.141-0.246-0.282-0.371-0.424c-0.168-0.189-0.339-0.378-0.513-0.567
		c-0.102-0.111-0.203-0.222-0.306-0.333c-0.284-0.304-0.573-0.608-0.871-0.911c-0.043-0.044-0.094-0.075-0.148-0.1
		c-0.013-0.006-0.025-0.012-0.039-0.017c-0.054-0.02-0.111-0.033-0.169-0.034c-0.002,0-0.003-0.001-0.005-0.001
		c-0.039,0-0.079,0.005-0.118,0.014c-0.004,0.001-0.025,0.006-0.056,0.014c-0.008,0.002-0.015,0.004-0.025,0.007
		c-0.031,0.008-0.071,0.019-0.121,0.033c-0.013,0.004-0.025,0.007-0.04,0.011c-0.061,0.017-0.132,0.038-0.214,0.063
		c-0.006,0.002-0.012,0.003-0.018,0.005c-2.229,0.669-11.858,4.051-17.223,13.847C9.491,34.819,11.475,28.637,14.593,23.515z
		 M27.887,74.528c1.141,6.818-0.222,13.388-3.474,16.738c-2.136,2.201-4.998,3.073-8.509,2.593c-3.245-0.445-5.74-1.87-7.416-4.235
		c-2.751-3.884-2.831-9.649-2.063-13.406c0.253-1.236,0.738-2.809,1.3-4.63c0.292-0.946,0.591-1.917,0.885-2.927
		c0.686,0.865,1.222,1.285,1.298,1.342c0.03,0.022,0.062,0.042,0.097,0.057c0.004,0.002,0.021,0.009,0.043,0.017
		c0.16,0.062,0.8,0.264,1.599,0.014c0.093-0.029,0.185-0.058,0.282-0.1c0.141-0.062,0.278-0.137,0.412-0.222
		c0.896-0.573,1.618-1.668,2.149-3.265c0.05-0.151,0.026-0.317-0.065-0.448c-0.055-0.079-5.469-7.991-3.316-16.904
		c1.456-6.028,5.992-11.139,13.483-15.195c1.824,1.869,12.572,14.14-1.43,30.751c-0.047,0.056-0.081,0.121-0.101,0.191
		c-0.037,0.133-0.887,3.278,0.403,5.084c0.532,0.744,1.33,1.153,2.374,1.215c0.01,0.001,0.02,0.001,0.03,0.001
		c0.032,0,0.062-0.011,0.093-0.017c0.027-0.005,0.055-0.005,0.081-0.015c0.058-0.021,0.113-0.053,0.16-0.094
		c0.073-0.064,0.581-0.519,1.337-1.345C27.559,72.286,27.67,73.235,27.887,74.528z M34.854,53.993
		c-2.508,9.522-8.155,15.217-9.165,16.177c-0.626-0.078-1.085-0.332-1.402-0.774c-0.9-1.258-0.402-3.609-0.277-4.126
		c11.174-13.325,6.986-24.019,3.62-29.099c-0.063-0.095-0.125-0.187-0.187-0.278c-0.763-1.115-1.467-1.935-1.917-2.419
		c-0.064-0.069-0.121-0.129-0.175-0.184c-0.054-0.056-0.104-0.107-0.146-0.149c-0.111-0.111-0.176-0.172-0.185-0.18
		c-0.158-0.143-0.389-0.171-0.577-0.072c-7.952,4.225-12.769,9.617-14.317,16.025c-0.651,2.694-0.658,5.278-0.333,7.601
		c0.065,0.464,0.143,0.918,0.232,1.361c0.045,0.221,0.092,0.439,0.141,0.655c0.943,4.088,2.749,7.065,3.283,7.886
		c-0.495,1.384-1.151,2.295-1.904,2.638c-0.057,0.026-0.113,0.047-0.167,0.065c-0.439,0.149-0.79,0.071-0.912,0.034
		c-0.07-0.059-0.208-0.181-0.392-0.369c-0.003-0.004-0.007-0.007-0.01-0.01c-0.059-0.061-0.124-0.129-0.192-0.204
		c-0.011-0.012-0.022-0.025-0.033-0.037c-0.053-0.058-0.108-0.122-0.165-0.189c-0.051-0.06-0.104-0.125-0.158-0.192
		c-0.014-0.017-0.027-0.033-0.041-0.05c-1.695-2.13-4.668-7.586-2.631-18.156c3.149-16.339,17.553-21.091,19.72-21.717
		c0.298,0.307,0.585,0.614,0.869,0.921c0.106,0.115,0.209,0.23,0.313,0.345c0.169,0.187,0.335,0.374,0.498,0.561
		c0.126,0.145,0.254,0.29,0.377,0.435c0.109,0.128,0.213,0.256,0.319,0.384c0.322,0.389,0.635,0.778,0.934,1.167
		c0.018,0.024,0.037,0.048,0.055,0.071c2.364,3.098,3.996,6.236,4.906,9.438c0.005,0.016,0.009,0.032,0.014,0.048
		c0.07,0.25,0.136,0.5,0.198,0.751c0.014,0.059,0.027,0.119,0.041,0.178c0.08,0.339,0.151,0.678,0.216,1.019
		c0.034,0.182,0.069,0.363,0.099,0.546c0.022,0.132,0.04,0.265,0.059,0.397c0.032,0.221,0.061,0.442,0.086,0.663
		C35.879,48.036,35.648,50.977,34.854,53.993z"/>
	<path fill="#136296" d="M41.642,43.756c-0.244-0.137-0.552-0.051-0.689,0.193c-0.207,0.367-0.415,0.731-0.624,1.092
		c-0.14,0.242-0.057,0.551,0.184,0.691c0.08,0.046,0.167,0.068,0.253,0.068c0.175,0,0.344-0.09,0.438-0.252
		c0.211-0.364,0.421-0.732,0.63-1.102C41.971,44.202,41.885,43.893,41.642,43.756z"/>
	<path fill="#136296" d="M43.846,39.454c-0.252-0.119-0.554-0.012-0.673,0.241c-0.324,0.685-0.684,1.406-1.071,2.145
		c-0.13,0.247-0.034,0.553,0.213,0.682c0.075,0.039,0.155,0.058,0.234,0.058c0.182,0,0.358-0.098,0.448-0.271
		c0.393-0.75,0.76-1.484,1.089-2.182C44.206,39.875,44.098,39.573,43.846,39.454z"/>
	<path fill="#136296" d="M45.609,34.953c-0.265-0.088-0.551,0.056-0.639,0.321c-0.239,0.721-0.519,1.473-0.83,2.234
		c-0.106,0.258,0.018,0.554,0.276,0.659c0.063,0.026,0.128,0.038,0.191,0.038c0.199,0,0.388-0.118,0.468-0.314
		c0.32-0.783,0.608-1.556,0.855-2.299C46.018,35.327,45.875,35.041,45.609,34.953z"/>
	<path fill="#136296" d="M46.614,30.23c-0.277-0.037-0.53,0.162-0.564,0.439c-0.094,0.749-0.237,1.531-0.426,2.323
		c-0.065,0.272,0.103,0.544,0.374,0.609c0.039,0.009,0.079,0.014,0.118,0.014c0.229,0,0.436-0.156,0.491-0.388
		c0.197-0.828,0.347-1.646,0.446-2.432C47.088,30.517,46.892,30.264,46.614,30.23z"/>
	<path fill="#136296" d="M46.394,25.416c-0.275,0.048-0.46,0.309-0.412,0.584c0.129,0.746,0.199,1.528,0.207,2.325
		c0.003,0.277,0.229,0.5,0.506,0.5c0.002,0,0.003,0,0.005,0c0.279-0.003,0.503-0.232,0.5-0.511
		c-0.009-0.851-0.084-1.687-0.222-2.486C46.931,25.554,46.67,25.369,46.394,25.416z"/>
	<path fill="#136296" d="M45.386,23.749c0.075,0.206,0.269,0.334,0.475,0.334c0.057,0,0.115-0.01,0.172-0.03
		c0.262-0.095,0.398-0.385,0.303-0.648c-0.148-0.408-0.318-0.816-0.505-1.21c-0.119-0.253-0.421-0.36-0.673-0.241
		c-0.253,0.119-0.36,0.421-0.241,0.673C45.092,22.993,45.249,23.37,45.386,23.749z"/>
	<path fill="#136296" d="M33.237,68.371c0.001-0.279-0.225-0.506-0.504-0.507c0,0-0.001,0-0.001,0c-0.279,0-0.505,0.226-0.506,0.504
		c-0.008,3.622,0.101,4.659,0.352,6.159c0.704,4.203,0.479,8.388-0.632,11.784c-0.087,0.265,0.058,0.551,0.323,0.638
		c0.052,0.017,0.105,0.025,0.157,0.025c0.213,0,0.411-0.136,0.48-0.349c1.161-3.548,1.399-7.904,0.669-12.266
		C33.334,72.919,33.229,71.917,33.237,68.371z"/>
	<path fill="#136296" d="M94.565,66.616c-0.263-1.285-0.754-2.879-1.324-4.725c-0.364-1.182-0.74-2.407-1.101-3.69
		c1.791-2.821,3.837-8.357,2.009-17.845c-0.438-2.272-1.086-4.328-1.886-6.186c-0.258-7.346-2.385-14.651-5.992-20.579
		c-3.364-5.528-9.526-8.893-15.687-8.568c-5.245,0.275-9.519,3.109-11.726,7.774c-3.498,7.397,0.31,15.867,4.541,23.2
		c-0.283,2.887-0.026,5.833,0.77,8.855c1.789,6.792,5.055,11.621,7.285,14.317c0.004,3.382-0.101,4.38-0.338,5.794
		c-0.949,5.67-0.463,13.273,3.746,17.609c1.956,2.015,4.44,3.029,7.406,3.029c0.633,0,1.289-0.046,1.965-0.139
		c3.533-0.484,6.26-2.05,8.104-4.653C95.276,76.661,95.374,70.571,94.565,66.616z M59.772,13.228
		c2.043-4.318,6.003-6.941,10.865-7.196c0.256-0.014,0.512-0.02,0.768-0.02c5.538,0,10.969,3.119,14.002,8.104
		c3.118,5.122,5.102,11.303,5.69,17.637c-5.363-9.792-14.988-13.176-17.221-13.846c-0.009-0.003-0.016-0.005-0.025-0.008
		c-0.08-0.024-0.15-0.044-0.209-0.061c-0.015-0.004-0.026-0.008-0.04-0.011c-0.05-0.014-0.09-0.025-0.121-0.033
		c-0.01-0.003-0.017-0.005-0.025-0.007c-0.031-0.008-0.052-0.013-0.056-0.014c-0.172-0.042-0.354,0.011-0.479,0.137
		c-0.298,0.303-0.587,0.607-0.871,0.911c-0.105,0.113-0.207,0.225-0.311,0.338c-0.171,0.186-0.34,0.373-0.506,0.56
		c-0.128,0.144-0.254,0.288-0.379,0.433c-0.126,0.146-0.25,0.292-0.373,0.438c-0.144,0.17-0.287,0.34-0.426,0.511
		c-0.062,0.076-0.122,0.153-0.183,0.229c-0.586,0.728-1.132,1.457-1.638,2.188c-0.019,0.027-0.038,0.055-0.057,0.082
		c-0.178,0.258-0.351,0.517-0.518,0.776c-0.006,0.01-0.012,0.019-0.018,0.029c-0.682,1.054-1.282,2.113-1.802,3.178
		c-0.025,0.05-0.05,0.101-0.074,0.151c-0.106,0.221-0.209,0.443-0.309,0.665c-0.044,0.098-0.086,0.195-0.129,0.293
		c-0.084,0.193-0.167,0.386-0.246,0.58c-0.083,0.204-0.161,0.408-0.238,0.613c-0.036,0.096-0.076,0.192-0.111,0.289
		c-0.118,0.325-0.227,0.65-0.331,0.976c-0.013,0.04-0.024,0.08-0.037,0.12c-0.099,0.317-0.19,0.634-0.276,0.952
		c-0.003,0.01-0.005,0.019-0.008,0.029c-0.185,0.694-0.341,1.391-0.461,2.092C59.798,27.513,56.649,19.83,59.772,13.228z
		 M64.452,35.754c0.025-0.222,0.054-0.443,0.086-0.664c0.019-0.132,0.038-0.265,0.059-0.397c0.029-0.182,0.064-0.362,0.098-0.543
		c0.065-0.343,0.136-0.684,0.217-1.025c0.014-0.057,0.026-0.115,0.04-0.172c0.062-0.252,0.128-0.503,0.199-0.754
		c0.004-0.014,0.008-0.029,0.012-0.043c0.91-3.205,2.544-6.345,4.91-9.445c0.013-0.017,0.027-0.034,0.04-0.051
		c0.307-0.401,0.629-0.801,0.961-1.2c0.101-0.121,0.2-0.243,0.303-0.364c0.125-0.147,0.254-0.294,0.382-0.44
		c0.162-0.185,0.326-0.371,0.494-0.556c0.104-0.116,0.209-0.231,0.315-0.347c0.283-0.307,0.57-0.613,0.868-0.92
		c2.167,0.626,16.571,5.378,19.72,21.717c2.603,13.504-3.022,18.699-3.62,19.206c-0.004,0.001-0.01,0.003-0.014,0.004
		c-0.124,0.035-0.431,0.096-0.816-0.012c-0.016-0.005-0.032-0.008-0.049-0.013c-0.035-0.011-0.071-0.026-0.107-0.04
		c-0.026-0.01-0.052-0.019-0.079-0.031c-0.056-0.025-0.11-0.059-0.165-0.09c-0.039-0.022-0.079-0.04-0.117-0.066
		c-0.053-0.035-0.104-0.077-0.155-0.118c-0.038-0.03-0.077-0.056-0.115-0.089c-0.05-0.044-0.098-0.096-0.147-0.146
		c-0.037-0.038-0.075-0.072-0.112-0.113c-0.048-0.053-0.093-0.115-0.14-0.173c-0.036-0.045-0.073-0.087-0.108-0.135
		c-0.046-0.064-0.09-0.135-0.135-0.204c-0.033-0.052-0.068-0.099-0.101-0.153c-0.047-0.078-0.092-0.165-0.137-0.25
		c-0.028-0.053-0.058-0.101-0.085-0.156c-0.051-0.101-0.099-0.211-0.147-0.319c-0.02-0.046-0.042-0.087-0.062-0.134
		c-0.067-0.159-0.132-0.325-0.194-0.5c0.9-1.383,5.406-8.882,3.324-17.502c-1.548-6.408-6.365-11.8-14.317-16.025
		c-0.188-0.099-0.419-0.071-0.577,0.072c-0.148,0.135-14.646,13.642,1.012,32.312c0.217,0.859,0.527,2.995-0.278,4.122
		c-0.316,0.443-0.776,0.697-1.403,0.775c-1.01-0.96-6.657-6.655-9.165-16.177C64.352,41.578,64.121,38.637,64.452,35.754z
		 M91.512,80.224c-1.676,2.365-4.171,3.791-7.416,4.235c-3.51,0.48-6.372-0.392-8.509-2.593c-3.251-3.35-4.615-9.92-3.474-16.738
		c0.216-1.293,0.328-2.242,0.349-4.801c0.685,0.748,1.163,1.189,1.302,1.314c0.019,0.017,0.031,0.028,0.035,0.031
		c0.001,0.001,0.003,0.001,0.004,0.003c0.047,0.04,0.1,0.071,0.156,0.092c0.026,0.01,0.053,0.01,0.081,0.015
		c0.031,0.006,0.061,0.017,0.093,0.017c0.01,0,0.02,0,0.03-0.001c1.044-0.062,1.842-0.471,2.374-1.215
		c1.29-1.805,0.439-4.951,0.403-5.084c-0.02-0.07-0.054-0.135-0.101-0.191c-6.357-7.541-8.493-15.042-6.347-22.294
		c1.353-4.573,4.077-7.603,4.916-8.458c0.468,0.253,0.924,0.511,1.369,0.772c6.673,3.923,10.744,8.765,12.112,14.413
		c0.674,2.782,0.608,5.469,0.198,7.852c-0.903,5.241-3.474,9.008-3.511,9.062c-0.045,0.065-0.074,0.14-0.085,0.217
		c-0.011,0.077-0.005,0.156,0.021,0.232c0.61,1.836,1.472,3.009,2.56,3.487c0.453,0.199,0.865,0.237,1.195,0.219
		c0.331-0.018,0.578-0.092,0.679-0.13c0.029-0.011,0.046-0.018,0.05-0.02c0.034-0.015,0.067-0.035,0.097-0.057
		c0.076-0.057,0.612-0.477,1.298-1.342c0.294,1.01,0.593,1.981,0.885,2.927c0.562,1.821,1.047,3.394,1.299,4.63
		C94.343,70.575,94.264,76.341,91.512,80.224z"/>
	<path fill="#136296" d="M55.081,13.228c0.119-0.253,0.012-0.554-0.241-0.673c-0.252-0.119-0.554-0.012-0.673,0.241
		c-3.523,7.448,0.363,15.985,4.628,23.353c0.094,0.162,0.263,0.252,0.438,0.252c0.086,0,0.173-0.022,0.253-0.068
		c0.242-0.14,0.324-0.449,0.184-0.691C55.536,28.501,51.758,20.253,55.081,13.228z"/>
	<path fill="#136296" d="M67.712,75.732c-0.069-0.271-0.344-0.434-0.615-0.365c-0.271,0.069-0.434,0.344-0.365,0.615
		c0.108,0.424,0.23,0.843,0.361,1.246c0.07,0.213,0.268,0.349,0.481,0.349c0.052,0,0.105-0.008,0.157-0.025
		c0.265-0.087,0.41-0.373,0.323-0.638C67.93,76.532,67.815,76.134,67.712,75.732z"/>
	<path fill="#136296" d="M66.478,64.638c-0.043,0.276,0.145,0.534,0.421,0.578c0.027,0.004,0.053,0.006,0.079,0.006
		c0.244,0,0.459-0.178,0.499-0.427c0.126-0.796,0.195-1.458,0.238-2.283c0.015-0.279-0.2-0.517-0.478-0.531
		c-0.275-0.02-0.517,0.199-0.531,0.478C66.657,63.38,66.579,63.996,66.478,64.638z"/>
	<path fill="#136296" d="M66.166,66.888c-0.077,0.758-0.126,1.525-0.144,2.279c-0.007,0.279,0.214,0.511,0.493,0.518
		c0.004,0,0.009,0,0.013,0c0.273,0,0.498-0.218,0.505-0.493c0.018-0.729,0.065-1.469,0.139-2.202
		c0.028-0.278-0.174-0.526-0.452-0.554C66.442,66.404,66.194,66.611,66.166,66.888z"/>
	<path fill="#136296" d="M66.859,74.157c0.276-0.04,0.468-0.297,0.427-0.573c-0.104-0.707-0.177-1.443-0.22-2.188
		c-0.016-0.279-0.25-0.489-0.533-0.476c-0.279,0.016-0.492,0.255-0.476,0.533c0.044,0.775,0.121,1.542,0.229,2.278
		c0.037,0.252,0.253,0.432,0.499,0.432C66.809,74.163,66.834,74.161,66.859,74.157z"/>
	<path fill="#136296" d="M67.262,60.741c0.001,0,0.002,0,0.004,0c0.278,0,0.504-0.224,0.506-0.502
		c0.003-0.385,0.004-0.806,0.002-1.269c-0.001-0.279-0.227-0.504-0.506-0.504c0,0-0.001,0-0.001,0
		c-0.279,0.001-0.505,0.228-0.504,0.507c0.001,0.46,0,0.878-0.002,1.26C66.759,60.511,66.983,60.739,67.262,60.741z"/>
</g>
</svg>
