<?xml version="1.0" encoding="utf-8"?>
<!-- Generator: Adobe Illustrator 21.1.0, SVG Export Plug-In . SVG Version: 6.00 Build 0)  -->
<svg version="1.1" id="Layer_1" xmlns="http://www.w3.org/2000/svg" xmlns:xlink="http://www.w3.org/1999/xlink" x="0px" y="0px"
	 viewBox="0 0 100 100" enable-background="new 0 0 100 100" xml:space="preserve">
<g>
	<path fill="#FEE36F" d="M50,9.294C36.18,19.743,33.146,53.785,33.146,53.785C38.876,48.055,50,48.188,50,48.188
		s11.124-0.133,16.854,5.597C66.854,53.785,63.82,19.743,50,9.294z"/>
	<path fill="#3792CF" d="M50,9.294c0,0-34.129-0.758-44.494,39.562c0,0,14.579-7.71,27.64,4.929
		C33.146,53.785,36.18,19.743,50,9.294z"/>
	<path fill="#F0566F" d="M50,9.294c0,0,34.129-0.758,44.494,39.562c0,0-14.579-7.71-27.64,4.929
		C66.854,53.785,63.82,19.743,50,9.294z"/>
	<path fill="#FFFFFF" d="M50,9.294c0,0,1.422-0.031,3.772,0.261c0.006-0.087,0.013-0.173,0.013-0.261
		c0-2.09-1.695-3.785-3.785-3.785s-3.785,1.695-3.785,3.785c0,0.088,0.007,0.174,0.013,0.261C48.578,9.263,50,9.294,50,9.294z"/>
	<g>
		<path fill="#136296" d="M66.854,54.291c-0.131,0-0.261-0.051-0.357-0.148c-5.513-5.513-16.395-5.45-16.49-5.449
			c-0.114-0.003-10.991-0.062-16.502,5.449c-0.151,0.15-0.38,0.19-0.571,0.1c-0.193-0.09-0.309-0.291-0.29-0.503
			c0.125-1.399,3.213-34.386,17.052-44.849c0.181-0.136,0.43-0.136,0.61,0c13.839,10.464,16.927,43.45,17.052,44.849
			c0.019,0.212-0.097,0.413-0.29,0.503C66.999,54.275,66.926,54.291,66.854,54.291z M50,9.933
			c-11.722,9.274-15.485,36.316-16.21,42.589c5.982-4.902,15.778-4.846,16.216-4.84c0.424-0.007,10.221-0.062,16.204,4.84
			C65.484,46.249,61.719,19.206,50,9.933z"/>
	</g>
	<g>
		<path fill="#136296" d="M33.146,54.291c-0.129,0-0.256-0.049-0.352-0.142C20.142,41.905,5.884,49.228,5.742,49.303
			c-0.177,0.094-0.393,0.074-0.55-0.05c-0.157-0.124-0.227-0.329-0.177-0.523c5.402-21.014,17.338-30.756,26.4-35.228
			c9.824-4.849,18.239-4.724,18.595-4.713c0.215,0.005,0.403,0.145,0.47,0.35c0.066,0.205-0.004,0.429-0.176,0.559
			C36.82,19.893,33.68,53.492,33.65,53.83c-0.017,0.194-0.145,0.361-0.327,0.429C33.265,54.28,33.206,54.291,33.146,54.291z
			 M16.053,46.058c4.932,0,10.945,1.455,16.692,6.659c0.612-5.686,4.071-32.494,15.781-42.867c-2.837,0.18-9.447,0.988-16.705,4.58
			c-8.708,4.309-20.137,13.618-25.555,33.532C7.928,47.279,11.537,46.058,16.053,46.058z"/>
	</g>
	<g>
		<path fill="#136296" d="M66.854,54.291c-0.059,0-0.119-0.01-0.176-0.032c-0.183-0.068-0.31-0.235-0.327-0.429
			c-0.03-0.338-3.173-33.939-16.655-44.133c-0.171-0.13-0.242-0.354-0.176-0.559c0.066-0.205,0.255-0.345,0.47-0.35
			c0.355-0.012,8.769-0.137,18.595,4.713c9.062,4.472,20.998,14.214,26.4,35.228c0.05,0.194-0.02,0.398-0.177,0.523
			c-0.157,0.124-0.373,0.143-0.549,0.05c-0.143-0.075-14.418-7.38-27.053,4.846C67.109,54.241,66.983,54.291,66.854,54.291z
			 M51.474,9.85c11.711,10.374,15.169,37.184,15.781,42.867c11.009-9.968,23.001-6.183,26.479-4.756
			c-5.418-19.913-16.847-29.222-25.555-33.532C60.922,10.838,54.312,10.03,51.474,9.85z"/>
	</g>
	<g>
		<path fill="#136296" d="M46.228,10.061c-0.117,0-0.231-0.04-0.321-0.116c-0.107-0.088-0.173-0.217-0.183-0.355
			c-0.008-0.119-0.014-0.207-0.014-0.296c0-2.366,1.925-4.291,4.291-4.291s4.291,1.925,4.291,4.291c0,0.089-0.006,0.176-0.012,0.264
			c-0.009,0.138-0.077,0.283-0.184,0.372c-0.107,0.088-0.248,0.147-0.385,0.128c-2.278-0.283-3.686-0.259-3.699-0.257
			c-0.007,0-0.015,0-0.022,0c-0.012-0.001-1.42-0.026-3.699,0.257C46.269,10.059,46.248,10.061,46.228,10.061z M50,6.015
			c-1.705,0-3.11,1.307-3.265,2.972c1.944-0.214,3.13-0.201,3.265-0.198c0.137-0.003,1.323-0.016,3.265,0.198
			C53.11,7.322,51.705,6.015,50,6.015z"/>
	</g>
	<g>
		<g>
			<path fill="#FFFFFF" d="M61.249,45.955c-0.086,0-0.174-0.022-0.255-0.069c-0.003-0.002-0.377-0.219-1.08-0.516
				c-0.257-0.109-0.377-0.405-0.269-0.662c0.109-0.257,0.403-0.378,0.663-0.269c0.771,0.326,1.181,0.565,1.198,0.575
				c0.24,0.141,0.321,0.451,0.18,0.691C61.592,45.866,61.423,45.955,61.249,45.955z"/>
		</g>
		<g>
			<path fill="#FFFFFF" d="M57.942,44.643c-0.047,0-0.095-0.007-0.143-0.021c-0.704-0.207-1.441-0.388-2.19-0.535
				c-0.274-0.054-0.452-0.32-0.398-0.594c0.055-0.274,0.321-0.453,0.594-0.398c0.78,0.154,1.547,0.341,2.28,0.558
				c0.268,0.079,0.421,0.36,0.342,0.628C58.362,44.5,58.161,44.643,57.942,44.643z M42.019,44.549c-0.22,0-0.422-0.144-0.485-0.365
				c-0.078-0.268,0.077-0.549,0.345-0.627c0.718-0.208,1.489-0.387,2.292-0.532c0.279-0.052,0.538,0.133,0.588,0.408
				c0.049,0.275-0.133,0.538-0.408,0.587c-0.769,0.139-1.505,0.31-2.19,0.509C42.113,44.542,42.066,44.549,42.019,44.549z
				 M53.434,43.744c-0.019,0-0.038-0.001-0.057-0.003c-0.737-0.083-1.496-0.14-2.257-0.167c-0.279-0.01-0.497-0.245-0.487-0.524
				c0.01-0.279,0.248-0.501,0.523-0.487c0.787,0.029,1.572,0.087,2.334,0.173c0.277,0.031,0.477,0.282,0.446,0.559
				C53.906,43.554,53.687,43.744,53.434,43.744z M46.54,43.715c-0.257,0-0.477-0.195-0.503-0.457
				c-0.027-0.278,0.176-0.525,0.454-0.552c0.751-0.073,1.535-0.122,2.33-0.146c0.285-0.006,0.513,0.211,0.521,0.49
				c0.008,0.279-0.211,0.512-0.49,0.521c-0.773,0.023-1.534,0.071-2.263,0.142C46.573,43.714,46.556,43.715,46.54,43.715z"/>
		</g>
		<g>
			<path fill="#FFFFFF" d="M38.751,45.954c-0.154,0-0.307-0.07-0.406-0.203c-0.166-0.223-0.121-0.538,0.101-0.706
				c0.016-0.012,0.4-0.297,1.194-0.666c0.256-0.118,0.555-0.007,0.672,0.246c0.118,0.253,0.007,0.554-0.246,0.671
				c-0.686,0.318-1.011,0.556-1.015,0.558C38.961,45.922,38.856,45.954,38.751,45.954z"/>
		</g>
	</g>
	<g>
		<g>
			<path fill="#FFFFFF" d="M30.091,46.65c-0.122,0-0.244-0.044-0.341-0.132c-0.003-0.003-0.337-0.306-0.945-0.747
				c-0.226-0.164-0.277-0.48-0.113-0.706c0.163-0.226,0.479-0.277,0.706-0.113c0.66,0.478,1.02,0.806,1.034,0.82
				c0.206,0.189,0.22,0.508,0.031,0.714C30.364,46.595,30.228,46.65,30.091,46.65z"/>
		</g>
		<g>
			<path fill="#FFFFFF" d="M26.868,44.472c-0.081,0-0.163-0.019-0.239-0.06c-0.756-0.407-1.543-0.768-2.336-1.073
				c-0.261-0.1-0.391-0.393-0.291-0.653c0.1-0.261,0.392-0.391,0.653-0.291c0.833,0.32,1.659,0.699,2.453,1.127
				c0.246,0.132,0.338,0.439,0.206,0.685C27.222,44.376,27.048,44.472,26.868,44.472z M21.958,42.591
				c-0.039,0-0.078-0.004-0.118-0.014c-0.836-0.199-1.687-0.339-2.529-0.418c-0.278-0.026-0.482-0.272-0.457-0.55
				c0.026-0.278,0.276-0.484,0.551-0.456c0.889,0.083,1.787,0.231,2.669,0.441c0.272,0.064,0.439,0.337,0.375,0.609
				C22.394,42.435,22.186,42.591,21.958,42.591z M14.111,42.429c-0.237,0-0.448-0.167-0.496-0.409
				c-0.054-0.274,0.125-0.54,0.399-0.593c0.889-0.174,1.793-0.285,2.686-0.331c0.26-0.021,0.516,0.2,0.531,0.479
				c0.014,0.279-0.2,0.516-0.479,0.531c-0.845,0.043-1.7,0.149-2.542,0.314C14.175,42.426,14.143,42.429,14.111,42.429z"/>
		</g>
		<g>
			<path fill="#FFFFFF" d="M10.372,43.554c-0.199,0-0.388-0.119-0.468-0.315c-0.106-0.258,0.019-0.553,0.277-0.659
				c0.403-0.164,0.811-0.317,1.213-0.453c0.266-0.09,0.552,0.052,0.641,0.316c0.089,0.264-0.052,0.551-0.317,0.641
				c-0.383,0.13-0.772,0.276-1.156,0.432C10.501,43.542,10.436,43.554,10.372,43.554z"/>
		</g>
	</g>
	<g>
		<g>
			<path fill="#FFFFFF" d="M69.909,46.65c-0.137,0-0.273-0.055-0.373-0.164c-0.189-0.206-0.175-0.525,0.031-0.714
				c0.015-0.014,0.374-0.342,1.034-0.82c0.227-0.164,0.543-0.113,0.706,0.113c0.164,0.226,0.114,0.542-0.113,0.706
				c-0.608,0.44-0.942,0.743-0.945,0.747C70.153,46.607,70.031,46.65,69.909,46.65z"/>
		</g>
		<g>
			<path fill="#FFFFFF" d="M73.132,44.472c-0.18,0-0.355-0.096-0.446-0.266c-0.132-0.246-0.04-0.552,0.206-0.685
				c0.794-0.428,1.619-0.807,2.453-1.127c0.261-0.1,0.553,0.03,0.653,0.291c0.1,0.26-0.03,0.553-0.291,0.653
				c-0.793,0.305-1.58,0.666-2.336,1.073C73.295,44.452,73.213,44.472,73.132,44.472z M78.042,42.591
				c-0.229,0-0.436-0.156-0.491-0.389c-0.065-0.272,0.103-0.544,0.375-0.609c0.882-0.21,1.78-0.358,2.669-0.441
				c0.276-0.027,0.524,0.178,0.551,0.456c0.026,0.278-0.179,0.524-0.457,0.55c-0.842,0.079-1.693,0.219-2.529,0.418
				C78.12,42.587,78.081,42.591,78.042,42.591z M85.889,42.429c-0.032,0-0.065-0.003-0.098-0.009
				c-0.842-0.165-1.698-0.27-2.542-0.314c-0.279-0.014-0.494-0.252-0.479-0.531c0.014-0.279,0.266-0.5,0.531-0.479
				c0.893,0.046,1.796,0.157,2.686,0.331c0.274,0.054,0.453,0.319,0.399,0.593C86.338,42.261,86.126,42.429,85.889,42.429z"/>
		</g>
		<g>
			<path fill="#FFFFFF" d="M89.628,43.554c-0.064,0-0.128-0.012-0.191-0.038c-0.384-0.157-0.773-0.302-1.156-0.432
				c-0.265-0.09-0.406-0.377-0.317-0.641c0.09-0.264,0.377-0.406,0.641-0.316c0.402,0.137,0.81,0.289,1.213,0.453
				c0.258,0.105,0.383,0.4,0.277,0.659C90.016,43.435,89.827,43.554,89.628,43.554z"/>
		</g>
	</g>
	<g>
		<path fill="#136296" d="M94.494,82.799H5.506C5.226,82.799,5,82.572,5,82.293s0.226-0.506,0.506-0.506h88.989
			c0.279,0,0.506,0.226,0.506,0.506S94.774,82.799,94.494,82.799z"/>
	</g>
	<g>
		<g>
			<path fill="#136296" d="M7.275,86.486h-1.77C5.226,86.486,5,86.259,5,85.98c0-0.279,0.226-0.506,0.506-0.506h1.77
				c0.279,0,0.506,0.226,0.506,0.506C7.781,86.259,7.555,86.486,7.275,86.486z"/>
		</g>
		<g>
			<path fill="#136296" d="M89.306,86.486h-3.418c-0.279,0-0.506-0.226-0.506-0.506c0-0.279,0.226-0.506,0.506-0.506h3.418
				c0.279,0,0.506,0.226,0.506,0.506C89.812,86.259,89.586,86.486,89.306,86.486z M82.471,86.486h-3.418
				c-0.279,0-0.506-0.226-0.506-0.506c0-0.279,0.226-0.506,0.506-0.506h3.418c0.279,0,0.506,0.226,0.506,0.506
				C82.976,86.259,82.75,86.486,82.471,86.486z M75.635,86.486h-3.418c-0.279,0-0.506-0.226-0.506-0.506
				c0-0.279,0.226-0.506,0.506-0.506h3.418c0.279,0,0.506,0.226,0.506,0.506C76.14,86.259,75.914,86.486,75.635,86.486z
				 M68.799,86.486h-3.418c-0.279,0-0.506-0.226-0.506-0.506c0-0.279,0.226-0.506,0.506-0.506h3.418
				c0.279,0,0.506,0.226,0.506,0.506C69.304,86.259,69.078,86.486,68.799,86.486z M61.963,86.486h-3.418
				c-0.279,0-0.506-0.226-0.506-0.506c0-0.279,0.226-0.506,0.506-0.506h3.418c0.279,0,0.506,0.226,0.506,0.506
				C62.469,86.259,62.242,86.486,61.963,86.486z M55.127,86.486h-3.418c-0.279,0-0.506-0.226-0.506-0.506
				c0-0.279,0.226-0.506,0.506-0.506h3.418c0.279,0,0.506,0.226,0.506,0.506C55.632,86.259,55.406,86.486,55.127,86.486z
				 M48.291,86.486h-3.418c-0.279,0-0.506-0.226-0.506-0.506c0-0.279,0.226-0.506,0.506-0.506h3.418
				c0.279,0,0.506,0.226,0.506,0.506C48.797,86.259,48.571,86.486,48.291,86.486z M41.455,86.486h-3.418
				c-0.279,0-0.506-0.226-0.506-0.506c0-0.279,0.226-0.506,0.506-0.506h3.418c0.279,0,0.506,0.226,0.506,0.506
				C41.96,86.259,41.734,86.486,41.455,86.486z M34.619,86.486h-3.418c-0.279,0-0.506-0.226-0.506-0.506
				c0-0.279,0.226-0.506,0.506-0.506h3.418c0.279,0,0.506,0.226,0.506,0.506C35.125,86.259,34.899,86.486,34.619,86.486z
				 M27.783,86.486h-3.418c-0.279,0-0.506-0.226-0.506-0.506c0-0.279,0.226-0.506,0.506-0.506h3.418
				c0.279,0,0.506,0.226,0.506,0.506C28.289,86.259,28.062,86.486,27.783,86.486z M20.947,86.486h-3.418
				c-0.279,0-0.506-0.226-0.506-0.506c0-0.279,0.226-0.506,0.506-0.506h3.418c0.279,0,0.506,0.226,0.506,0.506
				C21.453,86.259,21.227,86.486,20.947,86.486z M14.111,86.486h-3.418c-0.279,0-0.506-0.226-0.506-0.506
				c0-0.279,0.226-0.506,0.506-0.506h3.418c0.279,0,0.506,0.226,0.506,0.506C14.617,86.259,14.391,86.486,14.111,86.486z"/>
		</g>
		<g>
			<path fill="#136296" d="M94.494,86.486h-1.77c-0.279,0-0.506-0.226-0.506-0.506c0-0.279,0.226-0.506,0.506-0.506h1.77
				c0.279,0,0.506,0.226,0.506,0.506C95,86.259,94.774,86.486,94.494,86.486z"/>
		</g>
	</g>
	<g>
		<g>
			<path fill="#136296" d="M8.034,90.865H5.506C5.226,90.865,5,90.638,5,90.359c0-0.279,0.226-0.506,0.506-0.506h2.528
				c0.279,0,0.506,0.226,0.506,0.506C8.539,90.638,8.313,90.865,8.034,90.865z"/>
		</g>
		<g>
			<path fill="#136296" d="M87.029,90.865h-4.937c-0.279,0-0.506-0.226-0.506-0.506c0-0.279,0.226-0.506,0.506-0.506h4.937
				c0.279,0,0.506,0.226,0.506,0.506C87.535,90.638,87.308,90.865,87.029,90.865z M77.155,90.865h-4.937
				c-0.279,0-0.506-0.226-0.506-0.506c0-0.279,0.226-0.506,0.506-0.506h4.937c0.279,0,0.506,0.226,0.506,0.506
				C77.66,90.638,77.434,90.865,77.155,90.865z M67.28,90.865h-4.937c-0.279,0-0.506-0.226-0.506-0.506
				c0-0.279,0.226-0.506,0.506-0.506h4.937c0.279,0,0.506,0.226,0.506,0.506C67.786,90.638,67.56,90.865,67.28,90.865z
				 M57.406,90.865h-4.938c-0.279,0-0.506-0.226-0.506-0.506c0-0.279,0.226-0.506,0.506-0.506h4.938
				c0.279,0,0.506,0.226,0.506,0.506C57.912,90.638,57.685,90.865,57.406,90.865z M47.531,90.865h-4.937
				c-0.279,0-0.506-0.226-0.506-0.506c0-0.279,0.226-0.506,0.506-0.506h4.937c0.279,0,0.506,0.226,0.506,0.506
				C48.037,90.638,47.811,90.865,47.531,90.865z M37.657,90.865H32.72c-0.279,0-0.506-0.226-0.506-0.506
				c0-0.279,0.226-0.506,0.506-0.506h4.937c0.279,0,0.506,0.226,0.506,0.506C38.162,90.638,37.936,90.865,37.657,90.865z
				 M27.782,90.865h-4.937c-0.279,0-0.506-0.226-0.506-0.506c0-0.279,0.226-0.506,0.506-0.506h4.937
				c0.279,0,0.506,0.226,0.506,0.506C28.288,90.638,28.062,90.865,27.782,90.865z M17.908,90.865h-4.937
				c-0.279,0-0.506-0.226-0.506-0.506c0-0.279,0.226-0.506,0.506-0.506h4.937c0.279,0,0.506,0.226,0.506,0.506
				C18.414,90.638,18.188,90.865,17.908,90.865z"/>
		</g>
		<g>
			<path fill="#136296" d="M94.494,90.865h-2.528c-0.279,0-0.506-0.226-0.506-0.506c0-0.279,0.226-0.506,0.506-0.506h2.528
				c0.279,0,0.506,0.226,0.506,0.506C95,90.638,94.774,90.865,94.494,90.865z"/>
		</g>
	</g>
	<g>
		<g>
			<path fill="#136296" d="M7.275,94.997h-1.77C5.226,94.997,5,94.77,5,94.491s0.226-0.506,0.506-0.506h1.77
				c0.279,0,0.506,0.226,0.506,0.506S7.555,94.997,7.275,94.997z"/>
		</g>
		<g>
			<path fill="#136296" d="M89.306,94.997h-3.418c-0.279,0-0.506-0.226-0.506-0.506s0.226-0.506,0.506-0.506h3.418
				c0.279,0,0.506,0.226,0.506,0.506S89.586,94.997,89.306,94.997z M82.471,94.997h-3.418c-0.279,0-0.506-0.226-0.506-0.506
				s0.226-0.506,0.506-0.506h3.418c0.279,0,0.506,0.226,0.506,0.506S82.75,94.997,82.471,94.997z M75.635,94.997h-3.418
				c-0.279,0-0.506-0.226-0.506-0.506s0.226-0.506,0.506-0.506h3.418c0.279,0,0.506,0.226,0.506,0.506S75.914,94.997,75.635,94.997z
				 M68.799,94.997h-3.418c-0.279,0-0.506-0.226-0.506-0.506s0.226-0.506,0.506-0.506h3.418c0.279,0,0.506,0.226,0.506,0.506
				S69.078,94.997,68.799,94.997z M61.963,94.997h-3.418c-0.279,0-0.506-0.226-0.506-0.506s0.226-0.506,0.506-0.506h3.418
				c0.279,0,0.506,0.226,0.506,0.506S62.242,94.997,61.963,94.997z M55.127,94.997h-3.418c-0.279,0-0.506-0.226-0.506-0.506
				s0.226-0.506,0.506-0.506h3.418c0.279,0,0.506,0.226,0.506,0.506S55.406,94.997,55.127,94.997z M48.291,94.997h-3.418
				c-0.279,0-0.506-0.226-0.506-0.506s0.226-0.506,0.506-0.506h3.418c0.279,0,0.506,0.226,0.506,0.506S48.571,94.997,48.291,94.997z
				 M41.455,94.997h-3.418c-0.279,0-0.506-0.226-0.506-0.506s0.226-0.506,0.506-0.506h3.418c0.279,0,0.506,0.226,0.506,0.506
				S41.734,94.997,41.455,94.997z M34.619,94.997h-3.418c-0.279,0-0.506-0.226-0.506-0.506s0.226-0.506,0.506-0.506h3.418
				c0.279,0,0.506,0.226,0.506,0.506S34.899,94.997,34.619,94.997z M27.783,94.997h-3.418c-0.279,0-0.506-0.226-0.506-0.506
				s0.226-0.506,0.506-0.506h3.418c0.279,0,0.506,0.226,0.506,0.506S28.062,94.997,27.783,94.997z M20.947,94.997h-3.418
				c-0.279,0-0.506-0.226-0.506-0.506s0.226-0.506,0.506-0.506h3.418c0.279,0,0.506,0.226,0.506,0.506S21.227,94.997,20.947,94.997z
				 M14.111,94.997h-3.418c-0.279,0-0.506-0.226-0.506-0.506s0.226-0.506,0.506-0.506h3.418c0.279,0,0.506,0.226,0.506,0.506
				S14.391,94.997,14.111,94.997z"/>
		</g>
		<g>
			<path fill="#136296" d="M94.494,94.997h-1.77c-0.279,0-0.506-0.226-0.506-0.506s0.226-0.506,0.506-0.506h1.77
				c0.279,0,0.506,0.226,0.506,0.506S94.774,94.997,94.494,94.997z"/>
		</g>
	</g>
	<g>
		<path fill="#136296" d="M50,82.799c-0.279,0-0.506-0.226-0.506-0.506V48.188c0-0.279,0.226-0.506,0.506-0.506
			s0.506,0.226,0.506,0.506v34.105C50.506,82.572,50.279,82.799,50,82.799z"/>
	</g>
</g>
</svg>
