<?xml version="1.0" encoding="utf-8"?>
<!-- Generator: Adobe Illustrator 21.1.0, SVG Export Plug-In . SVG Version: 6.00 Build 0)  -->
<svg version="1.1" id="Layer_1" xmlns="http://www.w3.org/2000/svg" xmlns:xlink="http://www.w3.org/1999/xlink" x="0px" y="0px"
	 viewBox="0 0 100 100" enable-background="new 0 0 100 100" xml:space="preserve">
<g>
	<ellipse fill="#F0566F" cx="50" cy="50.017" rx="38.594" ry="38.609"/>
	<ellipse fill="#FFFFFF" cx="35.673" cy="46.215" rx="5.699" ry="5.701"/>
	<path fill="#FEE36F" d="M66.485,15.1c-15.683,7.922-27.489,26.489-27.489,26.489c1.437,1.035,2.377,2.719,2.377,4.626
		c0,0.564-0.085,1.108-0.238,1.623l0.002,0.001c24.527,2.647,38.788-0.764,46.848-4.69C85.753,30.712,77.567,20.345,66.485,15.1z"/>
	<path fill="#FEE36F" d="M40.244,49.61c-1.039,1.397-2.697,2.306-4.571,2.306l0,0l0,0l0,0c-0.205,0-0.407-0.012-0.606-0.033
		c-0.055-0.006-0.108-0.017-0.163-0.025c-0.145-0.02-0.288-0.041-0.429-0.071c-0.055-0.012-0.107-0.028-0.161-0.041
		c-0.14-0.034-0.279-0.071-0.414-0.115c-0.046-0.015-0.09-0.033-0.135-0.05c-0.142-0.051-0.283-0.105-0.42-0.166
		c-0.034-0.016-0.068-0.033-0.102-0.049c-0.146-0.069-0.289-0.143-0.428-0.224c-0.023-0.013-0.045-0.027-0.068-0.041
		c-0.149-0.089-0.293-0.185-0.432-0.287c-0.012-0.009-0.024-0.018-0.037-0.027c-0.148-0.11-0.29-0.227-0.427-0.351
		c-0.004-0.004-0.009-0.008-0.013-0.012c-0.142-0.13-0.278-0.266-0.406-0.41c0,0,0,0,0,0l-0.004,0.004
		c-6.111,8.81-8.718,18.233-9.659,26.322C28.814,83.898,38.854,88.626,50,88.626c2.86,0,5.646-0.314,8.328-0.904
		C58.78,68.058,46.991,55.287,40.244,49.61z"/>
	<path fill="#FEE36F" d="M17.903,28.573c-4.103,6.134-6.498,13.509-6.498,21.445c0,0.143,0.004,0.286,0.005,0.428
		c7.558,0.011,15.04-1.771,18.749-2.809c-0.117-0.455-0.186-0.93-0.186-1.422c0-2.455,1.554-4.542,3.73-5.345
		C29.48,35.773,23.841,31.129,17.903,28.573z"/>
	<g>
		<path fill="#136296" d="M50,89.132c-21.56,0-39.1-17.547-39.1-39.115S28.44,10.902,50,10.902s39.1,17.547,39.1,39.115
			S71.56,89.132,50,89.132z M50,11.914c-21.002,0-38.089,17.093-38.089,38.103S28.998,88.12,50,88.12s38.089-17.093,38.089-38.103
			S71.002,11.914,50,11.914z"/>
	</g>
	<g>
		<path fill="#136296" d="M35.673,52.422c-3.421,0-6.205-2.785-6.205-6.207c0-3.423,2.783-6.207,6.205-6.207
			c3.421,0,6.205,2.784,6.205,6.207C41.878,49.637,39.095,52.422,35.673,52.422z M35.673,41.019c-2.864,0-5.193,2.331-5.193,5.195
			c0,2.865,2.33,5.196,5.193,5.196c2.864,0,5.193-2.331,5.193-5.196C40.867,43.35,38.537,41.019,35.673,41.019z"/>
	</g>
	<g>
		<path fill="#136296" d="M57.329,49.272c-4.832,0-10.226-0.28-16.247-0.93c-0.099-0.011-0.193-0.05-0.27-0.114
			c-0.155-0.129-0.22-0.34-0.162-0.533c0.144-0.485,0.217-0.983,0.217-1.479c0-1.663-0.81-3.239-2.166-4.216
			c-0.218-0.157-0.275-0.456-0.131-0.682c0.119-0.187,12.062-18.775,27.688-26.668c0.14-0.071,0.304-0.073,0.444-0.006
			c11.414,5.402,19.557,16.025,21.782,28.416c0.04,0.223-0.073,0.445-0.277,0.544C82.466,46.399,72.799,49.272,57.329,49.272z
			 M41.763,47.397c24.323,2.548,38.21-1.006,45.655-4.537C85.17,31.033,77.379,20.903,66.492,15.664
			c-14.038,7.199-25.039,23.139-26.818,25.813c1.388,1.175,2.204,2.913,2.204,4.738C41.878,46.61,41.84,47.006,41.763,47.397z"/>
	</g>
	<g>
		<path fill="#136296" d="M50,89.132c-10.803,0-21.227-4.537-28.601-12.447c-0.101-0.109-0.15-0.256-0.132-0.404
			c1.159-9.968,4.438-18.901,9.746-26.552c0.017-0.025,0.037-0.048,0.058-0.069c0.098-0.098,0.243-0.153,0.373-0.15
			c0.139,0.004,0.272,0.063,0.365,0.166c0.118,0.131,0.241,0.256,0.371,0.374c0.136,0.124,0.266,0.23,0.4,0.331
			c0.16,0.118,0.292,0.205,0.427,0.286l-0.193,0.475l0.254-0.437c0.126,0.074,0.256,0.141,0.39,0.204
			c0.002,0.001,0.043,0.021,0.046,0.023l0.047,0.022c0.124,0.056,0.252,0.105,0.382,0.151l0.123,0.045
			c0.123,0.041,0.249,0.073,0.377,0.104l0.147,0.038c0.128,0.027,0.26,0.046,0.392,0.064l0.147,0.023
			c0.183,0.02,0.367,0.03,0.554,0.03c1.654,0,3.172-0.766,4.165-2.102c0.083-0.112,0.209-0.184,0.348-0.201
			c0.137-0.016,0.278,0.026,0.384,0.115c7.016,5.904,18.718,18.757,18.264,38.511c-0.005,0.233-0.169,0.432-0.397,0.482
			C55.675,88.824,52.836,89.132,50,89.132z M22.299,76.165C29.472,83.766,39.554,88.12,50,88.12c2.63,0,5.262-0.272,7.83-0.809
			c0.274-18.744-10.656-31.094-17.519-36.981c-1.179,1.336-2.841,2.092-4.637,2.092c-0.214,0-0.436-0.012-0.66-0.036
			c-0.041-0.004-0.084-0.011-0.127-0.018l-0.05-0.008c-0.157-0.021-0.313-0.044-0.467-0.077c-0.042-0.009-0.083-0.02-0.125-0.031
			l-0.051-0.014c-0.152-0.037-0.303-0.077-0.451-0.125l-0.101-0.036c-0.202-0.073-0.355-0.132-0.504-0.199l-0.08-0.039
			c-0.189-0.09-0.345-0.171-0.497-0.259l-0.055-0.034c-0.18-0.108-0.337-0.212-0.489-0.324c-0.201-0.15-0.356-0.277-0.504-0.411
			c-0.003-0.003-0.006-0.005-0.009-0.008C26.532,58.144,23.437,66.673,22.299,76.165z"/>
	</g>
	<g>
		<path fill="#136296" d="M11.485,50.951c-0.025,0-0.049,0-0.075,0c-0.277,0-0.502-0.224-0.505-0.501L10.9,50.017
			c0-7.775,2.276-15.288,6.583-21.726c0.136-0.203,0.398-0.279,0.62-0.183c5.615,2.417,11.443,6.951,15.99,12.44
			c0.105,0.126,0.142,0.296,0.099,0.454c-0.042,0.158-0.159,0.286-0.314,0.343c-2.033,0.75-3.399,2.707-3.399,4.87
			c0,0.422,0.057,0.858,0.17,1.296c0.069,0.266-0.089,0.539-0.354,0.613C26.516,49.181,19.057,50.951,11.485,50.951z M18.09,29.207
			c-4.029,6.17-6.163,13.327-6.179,20.731c7.01-0.062,13.877-1.63,17.653-2.661c-0.064-0.358-0.096-0.713-0.096-1.062
			c0-2.347,1.346-4.492,3.412-5.537C28.607,35.666,23.266,31.523,18.09,29.207z"/>
	</g>
	<g>
		<path fill="#136296" d="M48.235,95c-0.007,0-0.013,0-0.02,0c-1.203-0.047-2.418-0.143-3.61-0.285
			c-0.277-0.033-0.475-0.285-0.442-0.562c0.033-0.277,0.282-0.473,0.562-0.442c1.166,0.14,2.354,0.233,3.53,0.279
			c0.279,0.011,0.496,0.246,0.485,0.525C48.729,94.786,48.505,95,48.235,95z M51.817,94.998c-0.27,0-0.494-0.213-0.505-0.485
			c-0.011-0.279,0.206-0.515,0.485-0.526c1.178-0.048,2.366-0.143,3.529-0.284c0.278-0.032,0.529,0.164,0.563,0.442
			c0.033,0.277-0.164,0.529-0.441,0.563c-1.19,0.144-2.405,0.241-3.61,0.29C51.831,94.998,51.824,94.998,51.817,94.998z
			 M41.127,94.149c-0.033,0-0.067-0.003-0.101-0.01c-1.18-0.239-2.364-0.529-3.52-0.862c-0.268-0.078-0.423-0.358-0.346-0.626
			c0.077-0.268,0.356-0.423,0.626-0.346c1.129,0.326,2.286,0.609,3.44,0.843c0.274,0.055,0.451,0.322,0.396,0.596
			C41.574,93.984,41.363,94.149,41.127,94.149z M58.922,94.139c-0.236,0-0.446-0.165-0.495-0.405
			c-0.056-0.274,0.121-0.541,0.395-0.596c1.151-0.234,2.308-0.519,3.439-0.847c0.269-0.078,0.549,0.077,0.627,0.345
			c0.078,0.268-0.077,0.549-0.345,0.627c-1.157,0.335-2.34,0.627-3.519,0.866C58.99,94.136,58.956,94.139,58.922,94.139z
			 M34.249,92.165c-0.06,0-0.12-0.011-0.179-0.033c-1.124-0.426-2.246-0.903-3.336-1.421c-0.252-0.12-0.36-0.421-0.24-0.674
			c0.119-0.252,0.421-0.36,0.673-0.24c1.065,0.505,2.162,0.972,3.26,1.389c0.261,0.099,0.393,0.391,0.294,0.652
			C34.646,92.041,34.453,92.165,34.249,92.165z M65.799,92.147c-0.204,0-0.396-0.124-0.473-0.327
			c-0.099-0.261,0.032-0.553,0.293-0.653c1.098-0.417,2.193-0.885,3.255-1.39c0.252-0.121,0.554-0.013,0.674,0.239
			c0.12,0.252,0.013,0.554-0.239,0.674c-1.087,0.517-2.207,0.996-3.33,1.423C65.92,92.136,65.859,92.147,65.799,92.147z
			 M27.777,89.094c-0.086,0-0.173-0.022-0.252-0.068c-1.039-0.6-2.07-1.253-3.064-1.938c-0.23-0.159-0.287-0.474-0.129-0.704
			c0.159-0.23,0.473-0.288,0.704-0.129c0.971,0.671,1.979,1.308,2.995,1.895c0.242,0.14,0.325,0.449,0.185,0.691
			C28.121,89.003,27.951,89.094,27.777,89.094z M72.26,89.072c-0.175,0-0.344-0.09-0.438-0.252c-0.14-0.242-0.057-0.551,0.184-0.691
			c1.015-0.587,2.021-1.226,2.991-1.896c0.228-0.16,0.544-0.102,0.703,0.128c0.159,0.23,0.102,0.545-0.128,0.704
			c-0.992,0.686-2.021,1.339-3.059,1.94C72.433,89.05,72.346,89.072,72.26,89.072z M21.883,85.023c-0.112,0-0.225-0.037-0.319-0.114
			c-0.931-0.761-1.844-1.569-2.713-2.403c-0.201-0.193-0.208-0.513-0.015-0.715c0.194-0.202,0.513-0.208,0.715-0.015
			c0.849,0.815,1.742,1.605,2.653,2.349c0.216,0.177,0.248,0.495,0.072,0.712C22.176,84.96,22.03,85.023,21.883,85.023z
			 M78.146,84.999c-0.147,0-0.292-0.063-0.392-0.186c-0.177-0.216-0.145-0.535,0.072-0.712c0.911-0.745,1.802-1.536,2.651-2.351
			c0.201-0.193,0.521-0.187,0.714,0.014c0.194,0.202,0.187,0.522-0.014,0.715c-0.868,0.834-1.78,1.643-2.711,2.405
			C78.372,84.961,78.259,84.999,78.146,84.999z M16.717,80.064c-0.139,0-0.278-0.057-0.378-0.17
			c-0.797-0.899-1.57-1.842-2.295-2.804c-0.168-0.223-0.123-0.54,0.099-0.708c0.225-0.169,0.541-0.123,0.709,0.099
			c0.709,0.94,1.464,1.863,2.244,2.741c0.185,0.209,0.166,0.529-0.042,0.714C16.957,80.023,16.837,80.064,16.717,80.064z
			 M83.309,80.036c-0.119,0-0.239-0.042-0.335-0.127c-0.209-0.185-0.228-0.505-0.043-0.714c0.78-0.881,1.535-1.804,2.242-2.744
			c0.167-0.223,0.484-0.268,0.708-0.1c0.223,0.168,0.268,0.485,0.1,0.708c-0.723,0.962-1.495,1.906-2.293,2.807
			C83.587,79.978,83.448,80.036,83.309,80.036z M12.408,74.346c-0.167,0-0.331-0.083-0.428-0.235
			c-0.645-1.017-1.256-2.072-1.816-3.134c-0.13-0.247-0.036-0.553,0.212-0.683c0.247-0.13,0.552-0.036,0.683,0.212
			c0.547,1.039,1.145,2.07,1.776,3.064c0.15,0.236,0.079,0.548-0.156,0.698C12.595,74.321,12.501,74.346,12.408,74.346z
			 M87.614,74.311c-0.092,0-0.186-0.025-0.27-0.079c-0.236-0.149-0.306-0.462-0.157-0.698c0.63-0.995,1.227-2.027,1.774-3.068
			c0.13-0.247,0.436-0.342,0.683-0.212c0.247,0.13,0.342,0.436,0.212,0.683c-0.559,1.065-1.17,2.121-1.815,3.139
			C87.945,74.228,87.781,74.311,87.614,74.311z M9.073,68.014c-0.196,0-0.383-0.115-0.465-0.307
			c-0.473-1.106-0.907-2.245-1.288-3.385c-0.089-0.265,0.054-0.552,0.319-0.64C7.904,63.594,8.19,63.736,8.279,64
			c0.373,1.114,0.796,2.227,1.259,3.309c0.11,0.257-0.009,0.554-0.266,0.664C9.206,68,9.139,68.014,9.073,68.014z M90.947,67.969
			c-0.066,0-0.134-0.013-0.198-0.041c-0.257-0.11-0.376-0.407-0.267-0.664c0.462-1.084,0.885-2.2,1.257-3.315
			c0.088-0.265,0.372-0.409,0.639-0.32c0.265,0.088,0.408,0.375,0.319,0.64c-0.38,1.141-0.813,2.282-1.286,3.392
			C91.33,67.854,91.143,67.969,90.947,67.969z M6.8,61.226c-0.227,0-0.434-0.154-0.49-0.385c-0.287-1.165-0.531-2.36-0.725-3.551
			c-0.045-0.276,0.142-0.536,0.418-0.58c0.277-0.047,0.535,0.143,0.58,0.418c0.189,1.164,0.428,2.332,0.709,3.471
			c0.067,0.271-0.099,0.545-0.37,0.612C6.881,61.221,6.84,61.226,6.8,61.226z M93.214,61.173c-0.04,0-0.08-0.005-0.121-0.015
			c-0.272-0.067-0.437-0.341-0.37-0.612c0.28-1.14,0.517-2.308,0.704-3.472c0.044-0.276,0.304-0.465,0.58-0.419
			c0.276,0.044,0.463,0.304,0.419,0.58c-0.192,1.191-0.434,2.386-0.721,3.552C93.648,61.018,93.441,61.173,93.214,61.173z
			 M5.651,54.158c-0.261,0-0.482-0.201-0.504-0.465C5.051,52.496,5.001,51.278,5,50.072c0-0.28,0.226-0.506,0.505-0.507h0
			c0.279,0,0.505,0.226,0.506,0.505c0.001,1.179,0.05,2.37,0.145,3.541c0.022,0.279-0.185,0.522-0.464,0.545
			C5.678,54.158,5.665,54.158,5.651,54.158z M94.353,54.103c-0.013,0-0.027,0-0.04-0.001c-0.278-0.022-0.486-0.266-0.464-0.544
			c0.093-1.171,0.14-2.362,0.14-3.54v-0.108c0-0.279,0.226-0.506,0.506-0.506S95,49.63,95,49.909v0.108
			c0,1.205-0.048,2.423-0.143,3.62C94.836,53.902,94.614,54.103,94.353,54.103z M5.644,46.997c-0.013,0-0.027,0-0.04-0.001
			c-0.278-0.022-0.486-0.265-0.465-0.544c0.094-1.199,0.238-2.41,0.428-3.598c0.044-0.275,0.3-0.466,0.579-0.42
			c0.276,0.044,0.463,0.303,0.419,0.579c-0.186,1.162-0.326,2.346-0.418,3.518C6.127,46.796,5.905,46.997,5.644,46.997z
			 M94.343,46.834c-0.261,0-0.482-0.2-0.504-0.465c-0.096-1.172-0.241-2.355-0.431-3.516c-0.045-0.276,0.142-0.536,0.418-0.581
			c0.276-0.044,0.535,0.142,0.581,0.417c0.194,1.188,0.343,2.398,0.441,3.597c0.023,0.278-0.185,0.523-0.463,0.545
			C94.371,46.834,94.357,46.834,94.343,46.834z M6.775,39.926c-0.04,0-0.08-0.005-0.12-0.015c-0.271-0.066-0.437-0.34-0.371-0.611
			c0.285-1.168,0.622-2.34,1.001-3.483c0.088-0.265,0.374-0.409,0.639-0.321c0.265,0.088,0.409,0.374,0.321,0.639
			c-0.371,1.118-0.7,2.263-0.979,3.405C7.209,39.771,7.003,39.926,6.775,39.926z M93.186,39.768c-0.227,0-0.433-0.154-0.49-0.384
			c-0.284-1.144-0.618-2.288-0.991-3.401c-0.089-0.265,0.054-0.552,0.318-0.64c0.265-0.089,0.552,0.054,0.64,0.318
			c0.382,1.138,0.723,2.309,1.014,3.479c0.067,0.271-0.098,0.546-0.369,0.613C93.267,39.763,93.226,39.768,93.186,39.768z
			 M9.032,33.127c-0.066,0-0.133-0.013-0.198-0.041c-0.257-0.109-0.377-0.406-0.267-0.663c0.472-1.11,0.994-2.213,1.552-3.278
			c0.129-0.247,0.435-0.343,0.683-0.213c0.247,0.13,0.343,0.435,0.213,0.683c-0.546,1.041-1.056,2.119-1.517,3.204
			C9.415,33.012,9.228,33.127,9.032,33.127z M90.907,32.983c-0.196,0-0.383-0.115-0.465-0.307c-0.463-1.078-0.976-2.153-1.526-3.194
			c-0.131-0.247-0.037-0.553,0.21-0.684c0.248-0.131,0.554-0.036,0.683,0.211c0.563,1.065,1.089,2.165,1.562,3.269
			c0.11,0.257-0.009,0.554-0.265,0.664C91.041,32.97,90.973,32.983,90.907,32.983z M12.357,26.78c-0.092,0-0.186-0.025-0.27-0.078
			c-0.236-0.149-0.307-0.462-0.158-0.698c0.643-1.018,1.335-2.022,2.058-2.985c0.167-0.224,0.484-0.269,0.708-0.101
			c0.223,0.168,0.268,0.485,0.101,0.708c-0.707,0.942-1.384,1.923-2.012,2.918C12.688,26.697,12.525,26.78,12.357,26.78z
			 M87.563,26.654c-0.167,0-0.331-0.083-0.427-0.234c-0.631-0.991-1.31-1.97-2.02-2.909c-0.168-0.223-0.124-0.54,0.099-0.709
			c0.222-0.169,0.54-0.124,0.708,0.099c0.725,0.961,1.421,1.962,2.066,2.976c0.15,0.236,0.08,0.548-0.155,0.698
			C87.751,26.628,87.656,26.654,87.563,26.654z M16.656,21.051c-0.119,0-0.238-0.042-0.335-0.127
			c-0.209-0.185-0.229-0.505-0.044-0.714c0.797-0.902,1.641-1.783,2.507-2.617c0.2-0.193,0.521-0.188,0.715,0.013
			c0.194,0.201,0.188,0.522-0.014,0.715c-0.847,0.816-1.671,1.677-2.451,2.559C16.935,20.993,16.796,21.051,16.656,21.051z
			 M83.247,20.941c-0.139,0-0.278-0.057-0.378-0.17c-0.781-0.878-1.608-1.736-2.459-2.55c-0.202-0.193-0.209-0.513-0.016-0.715
			c0.193-0.202,0.514-0.208,0.715-0.016c0.871,0.833,1.717,1.711,2.515,2.609c0.186,0.209,0.167,0.528-0.041,0.714
			C83.487,20.899,83.367,20.941,83.247,20.941z M21.812,16.081c-0.147,0-0.291-0.063-0.392-0.185
			c-0.177-0.216-0.146-0.535,0.071-0.712c0.931-0.763,1.903-1.498,2.891-2.183c0.23-0.16,0.545-0.102,0.704,0.127
			c0.159,0.229,0.102,0.545-0.127,0.704c-0.966,0.67-1.917,1.388-2.827,2.134C22.038,16.044,21.925,16.081,21.812,16.081z
			 M78.074,15.989c-0.112,0-0.225-0.037-0.318-0.113c-0.915-0.745-1.869-1.46-2.836-2.126c-0.23-0.159-0.288-0.473-0.129-0.704
			c0.158-0.229,0.472-0.287,0.703-0.13c0.989,0.681,1.965,1.413,2.9,2.174c0.217,0.176,0.249,0.495,0.073,0.712
			C78.367,15.925,78.221,15.989,78.074,15.989z M27.694,12.001c-0.174,0-0.344-0.09-0.438-0.252
			c-0.14-0.242-0.058-0.551,0.184-0.691c1.042-0.606,2.12-1.174,3.203-1.691c0.253-0.12,0.554-0.013,0.674,0.239
			c0.12,0.252,0.013,0.554-0.238,0.674c-1.058,0.505-2.111,1.061-3.13,1.653C27.867,11.979,27.78,12.001,27.694,12.001z
			 M72.176,11.925c-0.085,0-0.172-0.022-0.252-0.067c-1.022-0.589-2.078-1.142-3.14-1.644c-0.252-0.119-0.36-0.421-0.241-0.673
			c0.119-0.252,0.419-0.361,0.674-0.241c1.086,0.514,2.167,1.08,3.212,1.681c0.242,0.139,0.325,0.449,0.186,0.691
			C72.521,11.834,72.351,11.925,72.176,11.925z M34.15,8.919c-0.203,0-0.396-0.124-0.473-0.326C33.578,8.332,33.709,8.04,33.97,7.94
			c1.123-0.429,2.279-0.817,3.435-1.153c0.269-0.08,0.549,0.076,0.627,0.344C38.11,7.4,37.956,7.68,37.687,7.758
			c-1.13,0.329-2.259,0.708-3.357,1.127C34.271,8.908,34.21,8.919,34.15,8.919z M65.7,8.862c-0.059,0-0.119-0.011-0.178-0.033
			c-1.1-0.415-2.231-0.79-3.362-1.115c-0.268-0.077-0.423-0.357-0.346-0.626c0.077-0.269,0.357-0.425,0.626-0.347
			c1.156,0.332,2.313,0.716,3.439,1.141c0.262,0.099,0.394,0.39,0.295,0.652C66.096,8.737,65.904,8.862,65.7,8.862z M41.023,6.918
			c-0.235,0-0.446-0.165-0.495-0.404c-0.056-0.274,0.12-0.541,0.394-0.597c1.177-0.241,2.38-0.438,3.575-0.583
			c0.279-0.031,0.529,0.164,0.563,0.441c0.034,0.277-0.163,0.53-0.44,0.563c-1.169,0.143-2.344,0.334-3.494,0.57
			C41.09,6.915,41.056,6.918,41.023,6.918z M58.82,6.886c-0.033,0-0.067-0.003-0.1-0.01c-1.152-0.232-2.329-0.419-3.497-0.557
			c-0.277-0.033-0.475-0.284-0.443-0.562c0.033-0.277,0.281-0.476,0.561-0.443c1.195,0.141,2.398,0.333,3.578,0.57
			c0.274,0.055,0.451,0.322,0.396,0.596C59.267,6.72,59.056,6.886,58.82,6.886z M48.128,6.05c-0.27,0-0.493-0.213-0.505-0.485
			c-0.011-0.279,0.205-0.515,0.484-0.526C48.738,5.013,49.37,5.007,50,5c0.58,0,1.156,0.011,1.731,0.033
			c0.279,0.011,0.497,0.245,0.486,0.525c-0.01,0.279-0.222,0.495-0.524,0.487c-0.567-0.021-1.141-0.023-1.709-0.032
			c-0.606,0-1.223,0.013-1.834,0.038C48.142,6.05,48.136,6.05,48.128,6.05z"/>
	</g>
</g>
</svg>
