<?xml version="1.0" encoding="utf-8"?>
<!-- Generator: Adobe Illustrator 21.1.0, SVG Export Plug-In . SVG Version: 6.00 Build 0)  -->
<svg version="1.1" id="Layer_1" xmlns="http://www.w3.org/2000/svg" xmlns:xlink="http://www.w3.org/1999/xlink" x="0px" y="0px"
	 viewBox="0 0 100 100" enable-background="new 0 0 100 100" xml:space="preserve">
<g>
	<path fill="#F0566F" d="M52.736,82.294c4.005-4.681,7.968-9.995,11.703-15.807c16.614-25.849,22.449-51.71,13.033-57.761
		c-9.416-6.051-30.518,9.998-47.133,35.848c-8.687,13.515-14.424,27.032-16.578,37.721H52.736z"/>
	<path fill="#F4A671" d="M52.736,82.294c4.005-4.681,7.968-9.995,11.703-15.807c16.614-25.849,22.449-51.71,13.033-57.761
		L30.187,82.294H52.736z"/>
	<circle fill="#FEE36F" cx="17.704" cy="17.705" r="9.036"/>
	<g>
		<path fill="#136296" d="M52.736,82.799H13.761c-0.152,0-0.295-0.068-0.391-0.185c-0.096-0.118-0.134-0.272-0.104-0.42
			c2.238-11.102,8.306-24.914,16.649-37.894c8.067-12.55,17.437-23.21,26.385-30.016c9.084-6.909,16.7-9.035,21.446-5.984
			c4.746,3.05,5.977,10.861,3.465,21.993c-2.474,10.966-8.279,23.917-16.346,36.467c-3.662,5.697-7.613,11.033-11.744,15.862
			C53.024,82.735,52.884,82.799,52.736,82.799z M14.382,81.788h38.121c4.047-4.747,7.919-9.986,11.511-15.575
			c8.004-12.453,13.761-25.289,16.21-36.143c2.411-10.687,1.337-18.117-3.025-20.92c-4.363-2.804-11.568-0.694-20.288,5.938
			c-8.856,6.736-18.142,17.304-26.146,29.758C22.639,57.489,16.691,70.91,14.382,81.788z"/>
	</g>
	<g>
		<path fill="#136296" d="M94.494,82.799H5.506C5.227,82.799,5,82.573,5,82.294s0.226-0.506,0.506-0.506h88.989
			c0.279,0,0.506,0.226,0.506,0.506S94.774,82.799,94.494,82.799z"/>
	</g>
	<g>
		<g>
			<path fill="#136296" d="M7.276,86.487h-1.77C5.227,86.487,5,86.26,5,85.981s0.226-0.506,0.506-0.506h1.77
				c0.279,0,0.506,0.226,0.506,0.506S7.555,86.487,7.276,86.487z"/>
		</g>
		<g>
			<path fill="#136296" d="M89.307,86.487h-3.418c-0.279,0-0.506-0.226-0.506-0.506s0.226-0.506,0.506-0.506h3.418
				c0.279,0,0.506,0.226,0.506,0.506S89.586,86.487,89.307,86.487z M82.471,86.487h-3.418c-0.279,0-0.506-0.226-0.506-0.506
				s0.226-0.506,0.506-0.506h3.418c0.279,0,0.506,0.226,0.506,0.506S82.75,86.487,82.471,86.487z M75.635,86.487h-3.418
				c-0.279,0-0.506-0.226-0.506-0.506s0.226-0.506,0.506-0.506h3.418c0.279,0,0.506,0.226,0.506,0.506S75.914,86.487,75.635,86.487z
				 M68.799,86.487h-3.418c-0.279,0-0.506-0.226-0.506-0.506s0.226-0.506,0.506-0.506h3.418c0.279,0,0.506,0.226,0.506,0.506
				S69.078,86.487,68.799,86.487z M61.963,86.487h-3.418c-0.279,0-0.506-0.226-0.506-0.506s0.226-0.506,0.506-0.506h3.418
				c0.279,0,0.506,0.226,0.506,0.506S62.242,86.487,61.963,86.487z M55.127,86.487h-3.418c-0.279,0-0.506-0.226-0.506-0.506
				s0.226-0.506,0.506-0.506h3.418c0.279,0,0.506,0.226,0.506,0.506S55.406,86.487,55.127,86.487z M48.291,86.487h-3.418
				c-0.279,0-0.506-0.226-0.506-0.506s0.226-0.506,0.506-0.506h3.418c0.279,0,0.506,0.226,0.506,0.506S48.57,86.487,48.291,86.487z
				 M41.455,86.487h-3.418c-0.279,0-0.506-0.226-0.506-0.506s0.226-0.506,0.506-0.506h3.418c0.279,0,0.506,0.226,0.506,0.506
				S41.734,86.487,41.455,86.487z M34.619,86.487h-3.418c-0.279,0-0.506-0.226-0.506-0.506s0.226-0.506,0.506-0.506h3.418
				c0.279,0,0.506,0.226,0.506,0.506S34.899,86.487,34.619,86.487z M27.783,86.487h-3.418c-0.279,0-0.506-0.226-0.506-0.506
				s0.226-0.506,0.506-0.506h3.418c0.279,0,0.506,0.226,0.506,0.506S28.063,86.487,27.783,86.487z M20.947,86.487H17.53
				c-0.279,0-0.506-0.226-0.506-0.506s0.226-0.506,0.506-0.506h3.418c0.279,0,0.506,0.226,0.506,0.506S21.227,86.487,20.947,86.487z
				 M14.111,86.487h-3.418c-0.279,0-0.506-0.226-0.506-0.506s0.226-0.506,0.506-0.506h3.418c0.279,0,0.506,0.226,0.506,0.506
				S14.391,86.487,14.111,86.487z"/>
		</g>
		<g>
			<path fill="#136296" d="M94.494,86.487h-1.77c-0.279,0-0.506-0.226-0.506-0.506s0.226-0.506,0.506-0.506h1.77
				c0.279,0,0.506,0.226,0.506,0.506S94.774,86.487,94.494,86.487z"/>
		</g>
	</g>
	<g>
		<g>
			<path fill="#136296" d="M8.034,90.866H5.506C5.227,90.866,5,90.64,5,90.36c0-0.279,0.226-0.506,0.506-0.506h2.528
				c0.279,0,0.506,0.226,0.506,0.506C8.54,90.64,8.313,90.866,8.034,90.866z"/>
		</g>
		<g>
			<path fill="#136296" d="M87.029,90.866h-4.937c-0.279,0-0.506-0.226-0.506-0.506c0-0.279,0.226-0.506,0.506-0.506h4.937
				c0.279,0,0.506,0.226,0.506,0.506C87.535,90.64,87.308,90.866,87.029,90.866z M77.155,90.866h-4.937
				c-0.279,0-0.506-0.226-0.506-0.506c0-0.279,0.226-0.506,0.506-0.506h4.937c0.279,0,0.506,0.226,0.506,0.506
				C77.66,90.64,77.434,90.866,77.155,90.866z M67.28,90.866h-4.937c-0.279,0-0.506-0.226-0.506-0.506
				c0-0.279,0.226-0.506,0.506-0.506h4.937c0.279,0,0.506,0.226,0.506,0.506C67.786,90.64,67.559,90.866,67.28,90.866z
				 M57.406,90.866h-4.937c-0.279,0-0.506-0.226-0.506-0.506c0-0.279,0.226-0.506,0.506-0.506h4.937
				c0.279,0,0.506,0.226,0.506,0.506C57.911,90.64,57.685,90.866,57.406,90.866z M47.532,90.866h-4.937
				c-0.279,0-0.506-0.226-0.506-0.506c0-0.279,0.226-0.506,0.506-0.506h4.937c0.279,0,0.506,0.226,0.506,0.506
				C48.037,90.64,47.811,90.866,47.532,90.866z M37.657,90.866H32.72c-0.279,0-0.506-0.226-0.506-0.506
				c0-0.279,0.226-0.506,0.506-0.506h4.937c0.279,0,0.506,0.226,0.506,0.506C38.163,90.64,37.936,90.866,37.657,90.866z
				 M27.783,90.866h-4.937c-0.279,0-0.506-0.226-0.506-0.506c0-0.279,0.226-0.506,0.506-0.506h4.937
				c0.279,0,0.506,0.226,0.506,0.506C28.288,90.64,28.062,90.866,27.783,90.866z M17.908,90.866h-4.937
				c-0.279,0-0.506-0.226-0.506-0.506c0-0.279,0.226-0.506,0.506-0.506h4.937c0.279,0,0.506,0.226,0.506,0.506
				C18.414,90.64,18.188,90.866,17.908,90.866z"/>
		</g>
		<g>
			<path fill="#136296" d="M94.494,90.866h-2.528c-0.279,0-0.506-0.226-0.506-0.506c0-0.279,0.226-0.506,0.506-0.506h2.528
				c0.279,0,0.506,0.226,0.506,0.506C95,90.64,94.774,90.866,94.494,90.866z"/>
		</g>
	</g>
	<g>
		<g>
			<path fill="#136296" d="M7.276,94.998h-1.77C5.227,94.998,5,94.771,5,94.492s0.226-0.506,0.506-0.506h1.77
				c0.279,0,0.506,0.226,0.506,0.506S7.555,94.998,7.276,94.998z"/>
		</g>
		<g>
			<path fill="#136296" d="M89.307,94.998h-3.418c-0.279,0-0.506-0.226-0.506-0.506s0.226-0.506,0.506-0.506h3.418
				c0.279,0,0.506,0.226,0.506,0.506S89.586,94.998,89.307,94.998z M82.471,94.998h-3.418c-0.279,0-0.506-0.226-0.506-0.506
				s0.226-0.506,0.506-0.506h3.418c0.279,0,0.506,0.226,0.506,0.506S82.75,94.998,82.471,94.998z M75.635,94.998h-3.418
				c-0.279,0-0.506-0.226-0.506-0.506s0.226-0.506,0.506-0.506h3.418c0.279,0,0.506,0.226,0.506,0.506S75.914,94.998,75.635,94.998z
				 M68.799,94.998h-3.418c-0.279,0-0.506-0.226-0.506-0.506s0.226-0.506,0.506-0.506h3.418c0.279,0,0.506,0.226,0.506,0.506
				S69.078,94.998,68.799,94.998z M61.963,94.998h-3.418c-0.279,0-0.506-0.226-0.506-0.506s0.226-0.506,0.506-0.506h3.418
				c0.279,0,0.506,0.226,0.506,0.506S62.242,94.998,61.963,94.998z M55.127,94.998h-3.418c-0.279,0-0.506-0.226-0.506-0.506
				s0.226-0.506,0.506-0.506h3.418c0.279,0,0.506,0.226,0.506,0.506S55.406,94.998,55.127,94.998z M48.291,94.998h-3.418
				c-0.279,0-0.506-0.226-0.506-0.506s0.226-0.506,0.506-0.506h3.418c0.279,0,0.506,0.226,0.506,0.506S48.57,94.998,48.291,94.998z
				 M41.455,94.998h-3.418c-0.279,0-0.506-0.226-0.506-0.506s0.226-0.506,0.506-0.506h3.418c0.279,0,0.506,0.226,0.506,0.506
				S41.734,94.998,41.455,94.998z M34.619,94.998h-3.418c-0.279,0-0.506-0.226-0.506-0.506s0.226-0.506,0.506-0.506h3.418
				c0.279,0,0.506,0.226,0.506,0.506S34.899,94.998,34.619,94.998z M27.783,94.998h-3.418c-0.279,0-0.506-0.226-0.506-0.506
				s0.226-0.506,0.506-0.506h3.418c0.279,0,0.506,0.226,0.506,0.506S28.063,94.998,27.783,94.998z M20.947,94.998H17.53
				c-0.279,0-0.506-0.226-0.506-0.506s0.226-0.506,0.506-0.506h3.418c0.279,0,0.506,0.226,0.506,0.506S21.227,94.998,20.947,94.998z
				 M14.111,94.998h-3.418c-0.279,0-0.506-0.226-0.506-0.506s0.226-0.506,0.506-0.506h3.418c0.279,0,0.506,0.226,0.506,0.506
				S14.391,94.998,14.111,94.998z"/>
		</g>
		<g>
			<path fill="#136296" d="M94.494,94.998h-1.77c-0.279,0-0.506-0.226-0.506-0.506s0.226-0.506,0.506-0.506h1.77
				c0.279,0,0.506,0.226,0.506,0.506S94.774,94.998,94.494,94.998z"/>
		</g>
	</g>
	<g>
		<path fill="#136296" d="M52.736,82.799H30.187c-0.185,0-0.355-0.101-0.444-0.263c-0.089-0.162-0.081-0.36,0.019-0.516
			L77.046,8.452c0.151-0.235,0.464-0.303,0.699-0.152c4.746,3.05,5.977,10.861,3.465,21.993
			c-2.474,10.966-8.279,23.917-16.346,36.467c-3.662,5.697-7.613,11.033-11.744,15.862C53.024,82.735,52.884,82.799,52.736,82.799z
			 M31.113,81.788h21.39c4.047-4.747,7.919-9.986,11.511-15.575c8.004-12.453,13.761-25.289,16.21-36.143
			c2.333-10.339,1.404-17.63-2.61-20.631L31.113,81.788z"/>
	</g>
	<g>
		<path fill="#136296" d="M16.443,30.343c-0.017,0-0.035-0.001-0.052-0.003c-0.883-0.091-1.758-0.275-2.599-0.547
			c-0.266-0.086-0.411-0.371-0.325-0.637c0.086-0.265,0.37-0.412,0.637-0.325c0.773,0.25,1.578,0.419,2.39,0.503
			c0.278,0.028,0.48,0.277,0.451,0.554C16.918,30.15,16.699,30.343,16.443,30.343z M18.99,30.341c-0.256,0-0.475-0.193-0.502-0.453
			c-0.029-0.278,0.172-0.527,0.45-0.556c0.812-0.085,1.616-0.256,2.389-0.508c0.266-0.086,0.551,0.059,0.637,0.324
			c0.087,0.266-0.059,0.551-0.324,0.637c-0.84,0.274-1.714,0.459-2.597,0.552C19.025,30.34,19.007,30.341,18.99,30.341z
			 M11.617,28.784c-0.086,0-0.173-0.022-0.252-0.068c-0.767-0.442-1.49-0.967-2.149-1.559c-0.208-0.187-0.225-0.506-0.038-0.714
			c0.186-0.207,0.506-0.225,0.714-0.038c0.607,0.545,1.272,1.028,1.978,1.435c0.242,0.139,0.325,0.449,0.185,0.69
			C11.962,28.693,11.792,28.784,11.617,28.784z M23.811,28.772c-0.175,0-0.344-0.09-0.438-0.252
			c-0.14-0.241-0.058-0.551,0.184-0.691c0.705-0.408,1.369-0.892,1.975-1.439c0.207-0.188,0.527-0.171,0.714,0.037
			c0.187,0.207,0.17,0.527-0.037,0.714c-0.658,0.593-1.379,1.119-2.145,1.563C23.984,28.75,23.897,28.772,23.811,28.772z
			 M7.847,25.396c-0.156,0-0.31-0.072-0.409-0.207c-0.523-0.717-0.971-1.489-1.333-2.295c-0.114-0.255,0-0.554,0.255-0.668
			c0.254-0.114,0.554,0,0.668,0.255c0.332,0.742,0.745,1.453,1.227,2.112c0.165,0.226,0.115,0.542-0.11,0.707
			C8.054,25.364,7.95,25.396,7.847,25.396z M27.575,25.377c-0.103,0-0.207-0.031-0.297-0.097c-0.226-0.164-0.276-0.48-0.111-0.706
			c0.48-0.66,0.891-1.371,1.223-2.115c0.114-0.256,0.414-0.37,0.668-0.256c0.255,0.114,0.37,0.413,0.256,0.668
			c-0.36,0.808-0.807,1.582-1.329,2.299C27.886,25.305,27.732,25.377,27.575,25.377z M5.774,20.77c-0.234,0-0.443-0.162-0.494-0.4
			C5.096,19.509,5.002,18.621,5,17.731c-0.001-0.279,0.225-0.506,0.504-0.507c0,0,0.001,0,0.001,0c0.279,0,0.505,0.226,0.506,0.504
			c0.002,0.82,0.089,1.637,0.258,2.43c0.058,0.273-0.116,0.542-0.389,0.6C5.845,20.767,5.809,20.77,5.774,20.77z M29.638,20.746
			c-0.035,0-0.07-0.003-0.105-0.011c-0.273-0.058-0.448-0.326-0.39-0.599c0.168-0.793,0.253-1.611,0.253-2.43
			c0-0.279,0.226-0.531,0.506-0.531c0.279,0,0.505,0.201,0.505,0.48h-0.506l0.506,0.043c0,0.897-0.093,1.785-0.275,2.647
			C30.082,20.583,29.872,20.746,29.638,20.746z M5.765,15.701c-0.034,0-0.069-0.003-0.104-0.011
			c-0.273-0.057-0.449-0.325-0.392-0.598c0.181-0.867,0.455-1.717,0.814-2.527c0.113-0.255,0.412-0.371,0.667-0.257
			c0.255,0.113,0.371,0.412,0.257,0.667c-0.33,0.745-0.582,1.527-0.749,2.324C6.21,15.537,5.999,15.701,5.765,15.701z
			 M29.627,15.627c-0.233,0-0.443-0.162-0.494-0.399c-0.172-0.796-0.428-1.577-0.763-2.32c-0.115-0.255-0.001-0.554,0.253-0.669
			c0.255-0.115,0.554-0.001,0.669,0.253c0.364,0.808,0.643,1.657,0.83,2.522c0.059,0.273-0.115,0.542-0.388,0.601
			C29.698,15.624,29.662,15.627,29.627,15.627z M7.817,11.065c-0.103,0-0.206-0.031-0.296-0.096
			c-0.226-0.164-0.277-0.48-0.113-0.706c0.519-0.717,1.115-1.381,1.772-1.976c0.207-0.188,0.527-0.171,0.714,0.035
			c0.187,0.207,0.172,0.527-0.035,0.714c-0.605,0.548-1.154,1.16-1.631,1.82C8.128,10.993,7.973,11.065,7.817,11.065z
			 M27.548,11.005c-0.156,0-0.309-0.072-0.408-0.207c-0.482-0.657-1.035-1.266-1.642-1.81c-0.208-0.186-0.226-0.506-0.04-0.714
			c0.186-0.208,0.506-0.227,0.714-0.04c0.66,0.59,1.26,1.251,1.783,1.965c0.165,0.225,0.117,0.541-0.109,0.707
			C27.756,10.973,27.651,11.005,27.548,11.005z M11.576,7.663c-0.174,0-0.344-0.09-0.437-0.251c-0.14-0.241-0.059-0.551,0.183-0.691
			c0.767-0.446,1.582-0.812,2.422-1.088c0.266-0.088,0.551,0.058,0.638,0.323c0.087,0.265-0.058,0.551-0.323,0.638
			c-0.773,0.254-1.523,0.59-2.228,1.001C11.75,7.641,11.662,7.663,11.576,7.663z M23.767,7.625c-0.085,0-0.172-0.021-0.251-0.067
			c-0.708-0.406-1.46-0.738-2.234-0.987c-0.266-0.085-0.412-0.37-0.327-0.636c0.085-0.266,0.37-0.413,0.636-0.327
			c0.842,0.27,1.66,0.631,2.429,1.073c0.242,0.139,0.326,0.448,0.187,0.69C24.113,7.534,23.943,7.625,23.767,7.625z M16.392,6.083
			c-0.255,0-0.475-0.192-0.502-0.452c-0.03-0.277,0.171-0.527,0.449-0.556c0.451-0.048,0.902-0.068,1.366-0.073
			c0.429,0,0.862,0.022,1.287,0.064c0.278,0.028,0.48,0.276,0.453,0.554c-0.028,0.278-0.278,0.483-0.554,0.453
			c-0.391-0.039-0.79-0.059-1.186-0.059c-0.002,0-0.004,0-0.006,0c-0.417,0-0.838,0.022-1.251,0.067
			C16.428,6.082,16.409,6.083,16.392,6.083z"/>
	</g>
	<g>
		<path fill="#136296" d="M17.704,27.246c-5.261,0-9.542-4.28-9.542-9.541s4.28-9.541,9.542-9.541s9.542,4.28,9.542,9.541
			S22.965,27.246,17.704,27.246z M17.704,9.175c-4.704,0-8.53,3.826-8.53,8.53c0,4.704,3.827,8.53,8.53,8.53s8.53-3.826,8.53-8.53
			C26.234,13.002,22.407,9.175,17.704,9.175z"/>
	</g>
</g>
</svg>
