<?xml version="1.0" encoding="utf-8"?>
<!-- Generator: Adobe Illustrator 21.1.0, SVG Export Plug-In . SVG Version: 6.00 Build 0)  -->
<svg version="1.1" id="Layer_1" xmlns="http://www.w3.org/2000/svg" xmlns:xlink="http://www.w3.org/1999/xlink" x="0px" y="0px"
	 viewBox="0 0 100 100" enable-background="new 0 0 100 100" xml:space="preserve">
<g>
	<polygon fill="#F68C43" points="12.632,94.492 29.921,40.142 47.211,94.492 	"/>
	<polygon fill="#F0566F" points="29.921,40.142 70.079,40.142 87.368,94.492 47.211,94.492 	"/>
	<path fill="#FEE36F" d="M70.078,40.142l7.087,22.277c10.229-4.729,17.329-15.074,17.329-27.082
		c0-16.474-13.356-29.829-29.831-29.829S34.831,18.863,34.831,35.337c0,1.636,0.137,3.24,0.391,4.805H70.078z"/>
	<path fill="#136296" d="M94.494,93.986h-6.756L77.78,62.683C88.254,57.651,95,46.969,95,35.337
		C95,18.611,81.391,5.002,64.663,5.002S34.326,18.611,34.326,35.337c0,1.422,0.11,2.865,0.314,4.299h-4.718
		c-0.049,0-0.096,0.009-0.142,0.023c-0.013,0.004-0.025,0.009-0.038,0.013c-0.009,0.004-0.019,0.006-0.028,0.011
		c-0.024,0.011-0.045,0.024-0.067,0.038c-0.012,0.008-0.024,0.014-0.035,0.023c-0.013,0.01-0.025,0.021-0.037,0.032
		c-0.009,0.008-0.016,0.017-0.023,0.025c-0.013,0.014-0.028,0.026-0.039,0.042c0,0,0,0,0,0.001c-0.014,0.02-0.022,0.044-0.034,0.066
		c-0.01,0.018-0.02,0.035-0.028,0.055c-0.003,0.009-0.009,0.015-0.012,0.024L12.262,93.986H5.506C5.226,93.986,5,94.213,5,94.492
		s0.226,0.506,0.506,0.506h7.126h34.58h40.157h7.126c0.279,0,0.506-0.226,0.506-0.506S94.774,93.986,94.494,93.986z M29.416,93.986
		H13.323l16.093-50.587V93.986z M64.663,6.014c16.17,0,29.326,13.154,29.326,29.324c0,11.197-6.464,21.487-16.517,26.377
		L70.56,39.989c-0.067-0.21-0.262-0.352-0.482-0.352H35.655c-0.211-1.434-0.318-2.878-0.318-4.299
		C35.337,19.168,48.493,6.014,64.663,6.014z M30.427,93.986V43.4l9.439,29.671l6.654,20.916H30.427z M47.581,93.986L30.613,40.648
		h4.609h34.487l6.975,21.925l0,0l9.993,31.413H47.581z"/>
	<g>
		<path fill="#FFFFFF" d="M35.312,42.428c-0.087-0.265-0.374-0.411-0.638-0.322c-0.265,0.087-0.41,0.373-0.322,0.638l0.551,1.678
			c0.07,0.213,0.268,0.348,0.48,0.348c0.052,0,0.105-0.008,0.158-0.025c0.265-0.087,0.41-0.373,0.323-0.638L35.312,42.428z"/>
		<path fill="#FFFFFF" d="M43.649,68.131c-0.085-0.266-0.369-0.416-0.635-0.327c-0.266,0.085-0.413,0.369-0.328,0.635
			c0.368,1.151,0.734,2.3,1.095,3.436c0.068,0.215,0.267,0.353,0.482,0.353c0.051,0,0.102-0.007,0.153-0.024
			c0.266-0.084,0.413-0.369,0.329-0.635C44.383,70.433,44.017,69.284,43.649,68.131z"/>
		<path fill="#FFFFFF" d="M41.442,61.26c-0.086-0.266-0.371-0.41-0.636-0.326c-0.266,0.086-0.412,0.371-0.326,0.636l1.105,3.431
			c0.069,0.215,0.268,0.351,0.481,0.351c0.051,0,0.103-0.008,0.155-0.024c0.266-0.085,0.412-0.37,0.327-0.636L41.442,61.26z"/>
		<path fill="#FFFFFF" d="M39.22,54.396c-0.086-0.265-0.371-0.411-0.637-0.325c-0.266,0.086-0.411,0.371-0.325,0.637l1.113,3.431
			c0.069,0.214,0.268,0.35,0.481,0.35c0.052,0,0.104-0.008,0.156-0.025c0.266-0.086,0.411-0.371,0.325-0.637L39.22,54.396z"/>
		<path fill="#FFFFFF" d="M36.984,47.532c-0.087-0.265-0.371-0.41-0.638-0.324c-0.265,0.087-0.41,0.372-0.324,0.638l1.12,3.431
			c0.07,0.214,0.268,0.349,0.481,0.349c0.052,0,0.105-0.008,0.157-0.025c0.266-0.087,0.411-0.372,0.324-0.637L36.984,47.532z"/>
		<path fill="#FFFFFF" d="M45.833,75.009c-0.084-0.266-0.367-0.413-0.634-0.33c-0.266,0.084-0.414,0.368-0.33,0.634
			c0.371,1.178,0.732,2.328,1.079,3.441c0.067,0.216,0.267,0.355,0.482,0.355c0.05,0,0.101-0.007,0.151-0.023
			c0.267-0.083,0.415-0.367,0.332-0.633C46.566,77.34,46.204,76.188,45.833,75.009z"/>
		<path fill="#FFFFFF" d="M49.03,85.358c-0.317-1.061-0.669-2.22-1.049-3.457c-0.082-0.267-0.364-0.417-0.632-0.335
			c-0.267,0.082-0.417,0.365-0.335,0.632c0.379,1.234,0.731,2.392,1.047,3.449c0.065,0.219,0.267,0.361,0.484,0.361
			c0.048,0,0.097-0.007,0.145-0.021C48.958,85.907,49.11,85.625,49.03,85.358z"/>
		<path fill="#FFFFFF" d="M51.77,90.131h-1.377c-0.102-0.391-0.223-0.838-0.363-1.338c-0.075-0.269-0.353-0.427-0.623-0.351
			c-0.269,0.075-0.426,0.354-0.351,0.623c0.185,0.661,0.338,1.23,0.454,1.693c0.056,0.225,0.258,0.383,0.491,0.383h1.77
			c0.279,0,0.506-0.226,0.506-0.506S52.049,90.131,51.77,90.131z"/>
		<path fill="#FFFFFF" d="M77.537,90.131h-3.221c-0.279,0-0.506,0.226-0.506,0.506s0.226,0.506,0.506,0.506h3.221
			c0.279,0,0.506-0.226,0.506-0.506S77.817,90.131,77.537,90.131z"/>
		<path fill="#FFFFFF" d="M71.095,90.131h-3.221c-0.279,0-0.506,0.226-0.506,0.506s0.226,0.506,0.506,0.506h3.221
			c0.279,0,0.506-0.226,0.506-0.506S71.375,90.131,71.095,90.131z"/>
		<path fill="#FFFFFF" d="M58.212,90.131h-3.221c-0.279,0-0.506,0.226-0.506,0.506s0.226,0.506,0.506,0.506h3.221
			c0.279,0,0.506-0.226,0.506-0.506S58.491,90.131,58.212,90.131z"/>
		<path fill="#FFFFFF" d="M64.654,90.131h-3.221c-0.279,0-0.506,0.226-0.506,0.506s0.226,0.506,0.506,0.506h3.221
			c0.279,0,0.506-0.226,0.506-0.506S64.933,90.131,64.654,90.131z"/>
		<path fill="#FFFFFF" d="M82.528,90.131h-1.77c-0.279,0-0.506,0.226-0.506,0.506s0.226,0.506,0.506,0.506h1.77
			c0.279,0,0.506-0.226,0.506-0.506S82.807,90.131,82.528,90.131z"/>
	</g>
</g>
</svg>
