<?xml version="1.0" encoding="utf-8"?>
<!-- Generator: Adobe Illustrator 21.1.0, SVG Export Plug-In . SVG Version: 6.00 Build 0)  -->
<svg version="1.1" id="Layer_1" xmlns="http://www.w3.org/2000/svg" xmlns:xlink="http://www.w3.org/1999/xlink" x="0px" y="0px"
	 viewBox="0 0 100 100" enable-background="new 0 0 100 100" xml:space="preserve">
<g>
	<path fill="#32BCAF" d="M90.309,42.229h-2.998L75.742,9.968c-0.959-2.675-3.495-4.459-6.336-4.459H30.595
		c-2.842,0-5.377,1.784-6.336,4.459l-11.57,32.261H9.691c-2.311,0-4.185,1.874-4.185,4.185v30.874c0,2.311,1.874,4.185,4.185,4.185
		h80.618c2.311,0,4.185-1.874,4.185-4.185V46.414C94.494,44.102,92.621,42.229,90.309,42.229z"/>
	<path fill="#6AC9CC" d="M69.524,15.433c-0.816-2.433-3.096-4.072-5.662-4.072H36.139c-2.566,0-4.846,1.639-5.662,4.072
		l-9.075,27.04h57.198L69.524,15.433z"/>
	<circle fill="#00A79D" cx="21.468" cy="63.3" r="7.183"/>
	<circle fill="#00A79D" cx="78.599" cy="63.3" r="7.183"/>
	<circle fill="#FFFFFF" cx="21.468" cy="61.973" r="7.183"/>
	<circle fill="#FFFFFF" cx="78.599" cy="61.973" r="7.183"/>
	<path fill="#2E98D5" d="M14.285,81.472v9.627c0,1.873,1.519,3.392,3.392,3.392h7.582c1.873,0,3.392-1.519,3.392-3.392v-9.627
		H14.285z"/>
	<path fill="#2E98D5" d="M71.416,81.472v9.627c0,1.873,1.519,3.392,3.392,3.392h7.582c1.873,0,3.392-1.519,3.392-3.392v-9.627
		H71.416z"/>
	<path fill="#FEE36F" d="M8.104,23.878c-1.265,0-2.146,1.254-1.718,2.444l1.719,4.775c0.261,0.724,0.948,1.207,1.718,1.207h6.425
		l3.022-8.426H8.104z"/>
	<path fill="#FEE36F" d="M91.896,23.878c1.265,0,2.146,1.254,1.718,2.444l-1.719,4.775c-0.261,0.724-0.948,1.207-1.718,1.207h-6.425
		l-3.022-8.426H91.896z"/>
	<g>
		<path fill="#9FDADF" d="M44.838,42.474l25.278-25.276l-0.592-1.764c-0.816-2.433-3.096-4.072-5.662-4.072h-4.077L28.669,42.474
			H44.838z"/>
		<path fill="#9FDADF" d="M29.149,19.387L21.577,41.95c0.002,0.177,0.01,0.352,0.027,0.524h0.625l31.115-31.112H37.176
			L29.149,19.387z"/>
	</g>
	<g>
		<g>
			<path fill="#FFFFFF" d="M33.402,66.999c-0.279,0-0.506-0.226-0.506-0.506v-9.042c0-0.279,0.226-0.506,0.506-0.506
				c0.279,0,0.506,0.226,0.506,0.506v9.042C33.908,66.773,33.681,66.999,33.402,66.999z"/>
		</g>
		<g>
			<path fill="#FFFFFF" d="M38.154,66.999c-0.279,0-0.506-0.226-0.506-0.506v-9.042c0-0.279,0.226-0.506,0.506-0.506
				s0.506,0.226,0.506,0.506v9.042C38.66,66.773,38.433,66.999,38.154,66.999z"/>
		</g>
		<g>
			<path fill="#FFFFFF" d="M42.906,66.999c-0.279,0-0.506-0.226-0.506-0.506v-9.042c0-0.279,0.226-0.506,0.506-0.506
				c0.279,0,0.506,0.226,0.506,0.506v9.042C43.411,66.773,43.185,66.999,42.906,66.999z"/>
		</g>
		<g>
			<path fill="#FFFFFF" d="M47.657,66.999c-0.279,0-0.506-0.226-0.506-0.506v-9.042c0-0.279,0.226-0.506,0.506-0.506
				c0.279,0,0.506,0.226,0.506,0.506v9.042C48.163,66.773,47.937,66.999,47.657,66.999z"/>
		</g>
		<g>
			<path fill="#FFFFFF" d="M52.409,66.999c-0.279,0-0.506-0.226-0.506-0.506v-9.042c0-0.279,0.226-0.506,0.506-0.506
				s0.506,0.226,0.506,0.506v9.042C52.915,66.773,52.688,66.999,52.409,66.999z"/>
		</g>
		<g>
			<path fill="#FFFFFF" d="M57.161,66.999c-0.279,0-0.506-0.226-0.506-0.506v-9.042c0-0.279,0.226-0.506,0.506-0.506
				c0.279,0,0.506,0.226,0.506,0.506v9.042C57.666,66.773,57.44,66.999,57.161,66.999z"/>
		</g>
		<g>
			<path fill="#FFFFFF" d="M61.912,66.999c-0.279,0-0.506-0.226-0.506-0.506v-9.042c0-0.279,0.226-0.506,0.506-0.506
				c0.279,0,0.506,0.226,0.506,0.506v9.042C62.418,66.773,62.192,66.999,61.912,66.999z"/>
		</g>
		<g>
			<path fill="#FFFFFF" d="M66.664,66.999c-0.279,0-0.506-0.226-0.506-0.506v-9.042c0-0.279,0.226-0.506,0.506-0.506
				s0.506,0.226,0.506,0.506v9.042C67.17,66.773,66.943,66.999,66.664,66.999z"/>
		</g>
	</g>
	<g>
		<path fill="#136296" d="M21.401,42.979h57.198c0.163,0,0.316-0.078,0.411-0.21c0.095-0.132,0.12-0.302,0.069-0.456l-9.075-27.04
			c-0.887-2.642-3.355-4.417-6.142-4.417H36.139c-2.787,0-5.255,1.775-6.142,4.417l-9.075,27.04
			c-0.052,0.154-0.026,0.324,0.069,0.456C21.086,42.901,21.239,42.979,21.401,42.979z M30.956,15.594
			c0.748-2.229,2.831-3.727,5.183-3.727h27.723c2.352,0,4.435,1.498,5.183,3.727l8.852,26.374H22.104L30.956,15.594z"/>
		<path fill="#136296" d="M21.468,69.661c4.239,0,7.689-3.449,7.689-7.688s-3.449-7.688-7.689-7.688s-7.688,3.449-7.688,7.688
			S17.228,69.661,21.468,69.661z M21.468,55.296c3.682,0,6.677,2.995,6.677,6.677c0,3.682-2.995,6.677-6.677,6.677
			c-3.682,0-6.677-2.995-6.677-6.677C14.79,58.291,17.786,55.296,21.468,55.296z"/>
		<path fill="#136296" d="M70.91,61.973c0,4.239,3.449,7.688,7.688,7.688s7.688-3.449,7.688-7.688s-3.449-7.688-7.688-7.688
			S70.91,57.734,70.91,61.973z M85.276,61.973c0,3.682-2.995,6.677-6.677,6.677s-6.677-2.995-6.677-6.677
			c0-3.681,2.995-6.677,6.677-6.677S85.276,58.291,85.276,61.973z"/>
		<path fill="#136296" d="M86.287,91.099v-9.121h4.022c2.587,0,4.691-2.104,4.691-4.69V46.414c0-2.586-2.104-4.691-4.691-4.691
			h-2.642l-3.196-8.913h5.706c0.98,0,1.862-0.62,2.194-1.542l1.719-4.775c0.257-0.713,0.15-1.51-0.286-2.13
			c-0.436-0.621-1.149-0.991-1.908-0.991h-10.81L76.218,9.797c-1.028-2.867-3.766-4.794-6.813-4.794H30.595
			c-3.047,0-5.784,1.927-6.813,4.794l-4.869,13.576H8.104c-0.758,0-1.472,0.37-1.908,0.991c-0.436,0.62-0.543,1.417-0.286,2.13
			l1.719,4.775c0.332,0.922,1.214,1.542,2.194,1.542h5.706l-3.196,8.913H9.691C7.104,41.723,5,43.827,5,46.414v30.874
			c0,2.586,2.104,4.69,4.691,4.69h4.088v9.121c0,1.145,0.499,2.172,1.288,2.886H5.506C5.226,93.985,5,94.212,5,94.491
			s0.226,0.506,0.506,0.506h12.171h7.582h49.549h7.582h12.105c0.279,0,0.506-0.226,0.506-0.506s-0.226-0.506-0.506-0.506H85
			C85.788,93.272,86.287,92.244,86.287,91.099z M81.449,24.384h10.447c0.436,0,0.83,0.204,1.08,0.561
			c0.251,0.356,0.31,0.796,0.162,1.206l-1.719,4.775c-0.188,0.522-0.687,0.873-1.242,0.873h-6.069l-2.488-6.938L81.449,24.384z
			 M9.823,31.799c-0.555,0-1.054-0.351-1.242-0.873l-1.719-4.775c-0.148-0.41-0.089-0.849,0.162-1.206
			c0.251-0.357,0.644-0.561,1.08-0.561h10.447l-0.171,0.477l-2.488,6.938H9.823z M6.011,77.287V46.414c0-2.029,1.651-3.68,3.68-3.68
			h2.998c0.214,0,0.404-0.134,0.476-0.335l3.559-9.924c0,0,0,0,0,0l2.131-5.943l5.879-16.394c0.885-2.467,3.24-4.124,5.861-4.124
			h38.811c2.621,0,4.976,1.657,5.861,4.124l5.879,16.394l2.131,5.943c0,0,0,0,0,0l3.559,9.924c0.072,0.201,0.262,0.335,0.476,0.335
			h2.998c2.029,0,3.68,1.651,3.68,3.68v30.874c0,2.029-1.651,3.679-3.68,3.679h-4.528H71.416H28.651H14.285H9.691
			C7.662,80.967,6.011,79.316,6.011,77.287z M17.677,93.985c-1.591,0-2.886-1.295-2.886-2.886v-9.121h13.355v9.121
			c0,1.591-1.295,2.886-2.886,2.886H17.677z M27.869,93.985c0.789-0.714,1.288-1.741,1.288-2.886v-9.121H70.91v9.121
			c0,1.145,0.499,2.172,1.288,2.886H27.869z M74.808,93.985c-1.591,0-2.886-1.295-2.886-2.886v-9.121h13.354v9.121
			c0,1.591-1.295,2.886-2.886,2.886H74.808z"/>
	</g>
	<g>
		<g>
			<path fill="#FFFFFF" d="M29.915,39.046h-1.264c-0.279,0-0.506-0.226-0.506-0.506c0-0.279,0.226-0.506,0.506-0.506h1.264
				c0.279,0,0.506,0.226,0.506,0.506C30.42,38.819,30.194,39.046,29.915,39.046z"/>
		</g>
		<g>
			<path fill="#FFFFFF" d="M67.469,39.046h-2.682c-0.279,0-0.506-0.226-0.506-0.506c0-0.279,0.226-0.506,0.506-0.506h2.682
				c0.279,0,0.506,0.226,0.506,0.506C67.975,38.819,67.748,39.046,67.469,39.046z M62.104,39.046h-2.682
				c-0.279,0-0.506-0.226-0.506-0.506c0-0.279,0.226-0.506,0.506-0.506h2.682c0.279,0,0.506,0.226,0.506,0.506
				C62.61,38.819,62.383,39.046,62.104,39.046z M56.739,39.046h-2.683c-0.279,0-0.506-0.226-0.506-0.506
				c0-0.279,0.226-0.506,0.506-0.506h2.683c0.279,0,0.506,0.226,0.506,0.506C57.245,38.819,57.019,39.046,56.739,39.046z
				 M51.374,39.046h-2.682c-0.279,0-0.506-0.226-0.506-0.506c0-0.279,0.226-0.506,0.506-0.506h2.682
				c0.279,0,0.506,0.226,0.506,0.506C51.88,38.819,51.654,39.046,51.374,39.046z M46.01,39.046h-2.683
				c-0.279,0-0.506-0.226-0.506-0.506c0-0.279,0.226-0.506,0.506-0.506h2.683c0.279,0,0.506,0.226,0.506,0.506
				C46.515,38.819,46.289,39.046,46.01,39.046z M40.645,39.046h-2.682c-0.279,0-0.506-0.226-0.506-0.506
				c0-0.279,0.226-0.506,0.506-0.506h2.682c0.279,0,0.506,0.226,0.506,0.506C41.15,38.819,40.924,39.046,40.645,39.046z
				 M35.28,39.046h-2.682c-0.279,0-0.506-0.226-0.506-0.506c0-0.279,0.226-0.506,0.506-0.506h2.682c0.279,0,0.506,0.226,0.506,0.506
				C35.785,38.819,35.559,39.046,35.28,39.046z"/>
		</g>
		<g>
			<path fill="#FFFFFF" d="M71.416,39.046h-1.264c-0.279,0-0.506-0.226-0.506-0.506c0-0.279,0.226-0.506,0.506-0.506h1.264
				c0.279,0,0.506,0.226,0.506,0.506C71.921,38.819,71.695,39.046,71.416,39.046z"/>
		</g>
	</g>
</g>
</svg>
