<?xml version="1.0" encoding="utf-8"?>
<!-- Generator: Adobe Illustrator 21.1.0, SVG Export Plug-In . SVG Version: 6.00 Build 0)  -->
<svg version="1.1" id="Layer_1" xmlns="http://www.w3.org/2000/svg" xmlns:xlink="http://www.w3.org/1999/xlink" x="0px" y="0px"
	 viewBox="0 0 100 100" enable-background="new 0 0 100 100" xml:space="preserve">
<g>
	<path fill="#3792CF" d="M84.584,5.509H15.416c-2.159,0-3.909,1.471-3.909,3.286v82.409c0,1.815,1.75,3.286,3.909,3.286h69.168
		c2.159,0,3.91-1.471,3.91-3.286V8.795C88.494,6.98,86.743,5.509,84.584,5.509z"/>
	<path fill="#257DAF" d="M24.833,90.109h-0.02c-2.734,0-4.971-2.237-4.971-4.971V14.862c0-2.734,2.237-4.971,4.971-4.971h0.02
		c2.734,0,4.971,2.237,4.971,4.971v70.276C29.804,87.872,27.567,90.109,24.833,90.109z"/>
	<path fill="#FFFFFF" d="M23.25,90.109h-0.02c-2.734,0-4.971-2.237-4.971-4.971V14.862c0-2.734,2.237-4.971,4.971-4.971h0.02
		c2.734,0,4.971,2.237,4.971,4.971v70.276C28.221,87.872,25.984,90.109,23.25,90.109z"/>
	<g>
		<ellipse fill="#FEE36F" cx="58.854" cy="38.034" rx="20.766" ry="20.729"/>
		<ellipse fill="#FEE36F" cx="58.854" cy="38.034" rx="10.247" ry="20.729"/>
		<path fill="#FEE36F" d="M44.747,22.828c3.704,3.426,8.66,5.523,14.108,5.523s10.404-2.097,14.108-5.523
			c-3.704-3.426-8.66-5.523-14.108-5.523S48.451,19.402,44.747,22.828z"/>
		<path fill="#FEE36F" d="M44.747,53.24c3.704-3.426,8.66-5.523,14.108-5.523s10.404,2.097,14.108,5.523
			c-3.704,3.426-8.66,5.523-14.108,5.523S48.451,56.666,44.747,53.24z"/>
	</g>
	<g>
		<path fill="#136296" d="M84.584,94.997H15.416c-2.435,0-4.416-1.701-4.416-3.792V8.795c0-2.091,1.981-3.792,4.416-3.792h69.168
			C87.019,5.003,89,6.704,89,8.795v82.409C89,93.296,87.019,94.997,84.584,94.997z M15.416,6.015c-1.877,0-3.403,1.247-3.403,2.781
			v82.409c0,1.533,1.526,2.781,3.403,2.781h69.168c1.877,0,3.403-1.247,3.403-2.781V8.795c0-1.533-1.526-2.781-3.403-2.781H15.416z"
			/>
	</g>
	<g>
		<path fill="#136296" d="M23.24,90.614c-3.026,0-5.487-2.457-5.487-5.477V14.863c0-3.02,2.462-5.477,5.487-5.477
			s5.487,2.457,5.487,5.477v70.275C28.727,88.157,26.266,90.614,23.24,90.614z M23.24,10.397c-2.467,0-4.474,2.003-4.474,4.466
			v70.275c0,2.462,2.007,4.466,4.474,4.466c2.467,0,4.474-2.003,4.474-4.466V14.863C27.714,12.4,25.707,10.397,23.24,10.397z"/>
	</g>
	<g>
		<g>
			<path fill="#136296" d="M58.854,59.268c-11.73,0-21.273-9.526-21.273-21.234S47.124,16.8,58.854,16.8s21.273,9.526,21.273,21.234
				S70.584,59.268,58.854,59.268z M58.854,17.811c-11.171,0-20.26,9.072-20.26,20.223s9.089,20.223,20.26,20.223
				s20.26-9.072,20.26-20.223S70.025,17.811,58.854,17.811z"/>
		</g>
		<g>
			<path fill="#136296" d="M79.62,38.54H38.088c-0.28,0-0.506-0.226-0.506-0.506c0-0.279,0.227-0.506,0.506-0.506H79.62
				c0.28,0,0.506,0.226,0.506,0.506C80.127,38.313,79.9,38.54,79.62,38.54z"/>
		</g>
		<g>
			<path fill="#136296" d="M58.854,59.268c-0.28,0-0.506-0.226-0.506-0.506V17.305c0-0.279,0.227-0.506,0.506-0.506
				c0.28,0,0.506,0.226,0.506,0.506v41.457C59.361,59.042,59.134,59.268,58.854,59.268z"/>
		</g>
		<g>
			<path fill="#136296" d="M58.854,59.268c-5.93,0-10.754-9.526-10.754-21.234S52.925,16.8,58.854,16.8
				c5.93,0,10.754,9.526,10.754,21.234S64.784,59.268,58.854,59.268z M58.854,17.811c-5.371,0-9.741,9.072-9.741,20.223
				s4.369,20.223,9.741,20.223c5.371,0,9.741-9.072,9.741-20.223S64.225,17.811,58.854,17.811z"/>
		</g>
		<g>
			<path fill="#136296" d="M58.854,28.857c-5.375,0-10.507-2.009-14.452-5.658c-0.103-0.096-0.162-0.23-0.162-0.371
				c0-0.141,0.059-0.275,0.162-0.371c3.945-3.649,9.077-5.658,14.452-5.658c5.375,0,10.508,2.009,14.452,5.658
				c0.103,0.096,0.162,0.23,0.162,0.371c0,0.141-0.059,0.275-0.162,0.371C69.362,26.848,64.229,28.857,58.854,28.857z
				 M45.503,22.828c3.699,3.239,8.418,5.017,13.351,5.017c4.934,0,9.653-1.778,13.352-5.017c-3.699-3.24-8.418-5.018-13.352-5.018
				S49.202,19.589,45.503,22.828z"/>
		</g>
		<g>
			<path fill="#136296" d="M58.854,59.268c-5.375,0-10.507-2.009-14.452-5.658c-0.103-0.096-0.162-0.23-0.162-0.371
				s0.059-0.275,0.162-0.371c3.945-3.648,9.077-5.658,14.452-5.658c5.375,0,10.508,2.009,14.452,5.658
				c0.103,0.096,0.162,0.23,0.162,0.371s-0.059,0.275-0.162,0.371C69.362,57.259,64.229,59.268,58.854,59.268z M45.503,53.24
				c3.699,3.239,8.418,5.017,13.351,5.017c4.934,0,9.653-1.778,13.352-5.017c-3.699-3.239-8.418-5.017-13.352-5.017
				C53.921,48.223,49.202,50,45.503,53.24z"/>
		</g>
	</g>
	<g>
		<path fill="#136296" d="M79.62,69.38H38.088c-0.28,0-0.506-0.226-0.506-0.506s0.227-0.506,0.506-0.506H79.62
			c0.28,0,0.506,0.226,0.506,0.506S79.9,69.38,79.62,69.38z"/>
	</g>
	<g>
		<path fill="#FFFFFF" d="M79.62,79.491H38.088c-0.28,0-0.506-0.226-0.506-0.506s0.227-0.506,0.506-0.506H79.62
			c0.28,0,0.506,0.226,0.506,0.506S79.9,79.491,79.62,79.491z"/>
	</g>
	<g>
		<g>
			<path fill="#136296" d="M23.24,16.253c-0.28,0-0.506-0.226-0.506-0.506v-1.77c0-0.279,0.227-0.506,0.506-0.506
				s0.506,0.226,0.506,0.506v1.77C23.747,16.026,23.52,16.253,23.24,16.253z"/>
		</g>
		<g>
			<path fill="#136296" d="M23.24,81.153c-0.28,0-0.506-0.226-0.506-0.506v-3.605c0-0.279,0.227-0.506,0.506-0.506
				s0.506,0.226,0.506,0.506v3.605C23.747,80.926,23.52,81.153,23.24,81.153z M23.24,73.942c-0.28,0-0.506-0.226-0.506-0.506v-3.605
				c0-0.279,0.227-0.506,0.506-0.506s0.506,0.226,0.506,0.506v3.605C23.747,73.715,23.52,73.942,23.24,73.942z M23.24,66.731
				c-0.28,0-0.506-0.226-0.506-0.506v-3.605c0-0.279,0.227-0.506,0.506-0.506s0.506,0.226,0.506,0.506v3.605
				C23.747,66.504,23.52,66.731,23.24,66.731z M23.24,59.519c-0.28,0-0.506-0.226-0.506-0.506v-3.605
				c0-0.279,0.227-0.506,0.506-0.506s0.506,0.226,0.506,0.506v3.605C23.747,59.293,23.52,59.519,23.24,59.519z M23.24,52.308
				c-0.28,0-0.506-0.226-0.506-0.506v-3.605c0-0.279,0.227-0.506,0.506-0.506s0.506,0.226,0.506,0.506v3.605
				C23.747,52.082,23.52,52.308,23.24,52.308z M23.24,45.097c-0.28,0-0.506-0.226-0.506-0.506v-3.605
				c0-0.279,0.227-0.506,0.506-0.506s0.506,0.226,0.506,0.506v3.605C23.747,44.871,23.52,45.097,23.24,45.097z M23.24,37.886
				c-0.28,0-0.506-0.226-0.506-0.506v-3.605c0-0.279,0.227-0.506,0.506-0.506s0.506,0.226,0.506,0.506v3.605
				C23.747,37.659,23.52,37.886,23.24,37.886z M23.24,30.675c-0.28,0-0.506-0.226-0.506-0.506v-3.605
				c0-0.279,0.227-0.506,0.506-0.506s0.506,0.226,0.506,0.506v3.605C23.747,30.448,23.52,30.675,23.24,30.675z M23.24,23.464
				c-0.28,0-0.506-0.226-0.506-0.506v-3.605c0-0.279,0.227-0.506,0.506-0.506s0.506,0.226,0.506,0.506v3.605
				C23.747,23.237,23.52,23.464,23.24,23.464z"/>
		</g>
		<g>
			<path fill="#136296" d="M23.24,86.528c-0.28,0-0.506-0.226-0.506-0.506v-1.77c0-0.279,0.227-0.506,0.506-0.506
				s0.506,0.226,0.506,0.506v1.77C23.747,86.302,23.52,86.528,23.24,86.528z"/>
		</g>
	</g>
</g>
</svg>
