<?xml version="1.0" encoding="utf-8"?>
<!-- Generator: Adobe Illustrator 21.1.0, SVG Export Plug-In . SVG Version: 6.00 Build 0)  -->
<svg version="1.1" id="Layer_1" xmlns="http://www.w3.org/2000/svg" xmlns:xlink="http://www.w3.org/1999/xlink" x="0px" y="0px"
	 viewBox="0 0 100 100" enable-background="new 0 0 100 100" xml:space="preserve">
<g>
	<path fill="#F68C43" d="M76.485,16.686l-0.594-0.556c-2.364-2.213-4.358-4.86-5.892-7.822c-0.896-1.73-2.572-2.799-4.387-2.799
		H34.389c-1.816,0-3.491,1.069-4.387,2.799l0,0c-1.535,2.962-3.529,5.609-5.892,7.822l-0.594,0.556
		c-3.621,3.39-5.706,8.346-5.706,13.564v46.248c0,4.887,3.617,8.849,8.078,8.849h48.226c4.461,0,8.078-3.962,8.078-8.849V30.249
		C82.191,25.032,80.106,20.075,76.485,16.686z"/>
	<path fill="#DB742B" d="M70.858,32.409H61.82v1.264c0,1.326-1.07,2.402-2.389,2.402H40.569c-1.319,0-2.389-1.075-2.389-2.402
		v-1.264h-9.038c-2.352,0-4.26,1.917-4.26,4.281v18.486c0,2.365,1.907,4.282,4.26,4.282h41.716c2.352,0,4.26-1.917,4.26-4.282
		V36.691C75.117,34.326,73.21,32.409,70.858,32.409z"/>
	<path fill="#6AC9CC" d="M70.858,31.041H61.82v1.264c0,1.326-1.07,2.402-2.389,2.402H40.569c-1.319,0-2.389-1.075-2.389-2.402
		v-1.264h-9.038c-2.352,0-4.26,1.917-4.26,4.281v18.486c0,2.365,1.907,4.282,4.26,4.282h41.716c2.352,0,4.26-1.917,4.26-4.282
		V35.322C75.117,32.958,73.21,31.041,70.858,31.041z"/>
	<ellipse fill="#DB742B" cx="29.85" cy="71.972" rx="4.967" ry="4.993"/>
	<ellipse fill="#DB742B" cx="70.15" cy="71.972" rx="4.967" ry="4.993"/>
	<ellipse fill="#FFFFFF" cx="29.85" cy="70.656" rx="4.967" ry="4.993"/>
	<ellipse fill="#FFFFFF" cx="70.15" cy="70.656" rx="4.967" ry="4.993"/>
	<path fill="#50AFAF" d="M57.902,35.844H42.098c-2.164,0-3.918-1.754-3.918-3.918v0c0-2.164,1.754-3.918,3.918-3.918h15.804
		c2.164,0,3.918,1.754,3.918,3.918v0C61.82,34.09,60.066,35.844,57.902,35.844z"/>
	<path fill="#FEE36F" d="M57.902,34.706H42.098c-2.164,0-3.918-1.754-3.918-3.918v0c0-2.164,1.754-3.918,3.918-3.918h15.804
		c2.164,0,3.918,1.754,3.918,3.918v0C61.82,32.952,60.066,34.706,57.902,34.706z"/>
	<path fill="#FEE36F" d="M30.002,8.308L30.002,8.308c-1.472,2.841-3.369,5.387-5.607,7.542h51.21
		c-2.237-2.156-4.135-4.702-5.607-7.542c-0.896-1.73-2.572-2.799-4.387-2.799H34.389C32.573,5.509,30.898,6.578,30.002,8.308z"/>
	<g>
		<path fill="#9FDADF" d="M44.351,58.089l26.89-27.029c-0.126-0.011-0.254-0.019-0.383-0.019H61.82v1.264
			c0,1.326-1.07,2.402-2.389,2.402h-5.807L30.361,58.089H44.351z"/>
		<path fill="#9FDADF" d="M40.569,34.706c-1.319,0-2.389-1.075-2.389-2.402v-1.264h-0.47L24.883,43.934v9.874
			c0,1.158,0.46,2.208,1.203,2.978l21.966-22.08H40.569z"/>
	</g>
	<g>
		<path fill="#136296" d="M86.247,94.053l-14.211-8.2h2.076c4.731,0,8.581-4.196,8.581-9.354V30.249
			c0-5.365-2.138-10.444-5.866-13.934l-0.594-0.556c-0.096-0.089-0.186-0.184-0.281-0.274c-0.829-0.799-1.608-1.649-2.334-2.546
			c0,0,0-0.001-0.001-0.001c-0.239-0.296-0.473-0.597-0.7-0.903c-0.017-0.023-0.034-0.047-0.051-0.071
			c-0.21-0.284-0.416-0.573-0.616-0.866c-0.042-0.062-0.082-0.126-0.124-0.188c-0.173-0.258-0.345-0.517-0.51-0.781
			c-0.084-0.134-0.163-0.272-0.245-0.408c-0.12-0.199-0.242-0.397-0.357-0.599c-0.196-0.344-0.387-0.693-0.571-1.048
			c-0.981-1.894-2.833-3.071-4.833-3.071H34.389c-0.447,0-0.884,0.067-1.308,0.179c-0.051,0.013-0.103,0.019-0.153,0.034
			c-0.632,0.188-1.222,0.505-1.752,0.916c-0.653,0.506-1.214,1.157-1.62,1.941v0c-0.184,0.355-0.375,0.704-0.571,1.049
			c-0.109,0.19-0.223,0.376-0.336,0.563c-0.089,0.149-0.176,0.299-0.268,0.446c-0.158,0.252-0.322,0.499-0.487,0.746
			c-0.05,0.075-0.097,0.151-0.148,0.225c-0.195,0.286-0.396,0.566-0.601,0.844c-0.022,0.03-0.044,0.061-0.066,0.092
			c-0.224,0.3-0.453,0.596-0.688,0.887c-0.005,0.006-0.009,0.012-0.014,0.017c-0.723,0.893-1.498,1.739-2.323,2.535
			c-0.097,0.093-0.19,0.19-0.289,0.282l-0.594,0.556c-3.728,3.49-5.866,8.568-5.866,13.934v46.249c0,5.158,3.849,9.354,8.581,9.354
			h2.076l-14.211,8.2c-0.241,0.139-0.324,0.448-0.186,0.69c0.093,0.163,0.262,0.254,0.437,0.254c0.085,0,0.171-0.021,0.25-0.067
			l15.73-9.077h40.033l15.73,9.077c0.079,0.046,0.165,0.067,0.25,0.067c0.174,0,0.344-0.091,0.437-0.254
			C86.571,94.501,86.488,94.192,86.247,94.053z M25.613,15.339c0.703-0.739,1.369-1.516,1.994-2.33
			c0.011-0.014,0.022-0.028,0.033-0.042c0.151-0.197,0.297-0.399,0.443-0.6c0.085-0.117,0.17-0.234,0.254-0.352
			c0.12-0.171,0.239-0.345,0.356-0.519c0.107-0.16,0.213-0.321,0.318-0.483c0.098-0.152,0.195-0.303,0.29-0.457
			c0.127-0.206,0.251-0.414,0.374-0.624c0.071-0.121,0.144-0.241,0.213-0.363c0.192-0.339,0.38-0.681,0.56-1.028
			c0.808-1.558,2.318-2.526,3.941-2.526h31.222c1.624,0,3.134,0.968,3.941,2.526c0.179,0.346,0.366,0.687,0.558,1.024
			c0.073,0.128,0.149,0.254,0.223,0.381c0.119,0.203,0.239,0.405,0.362,0.604c0.098,0.158,0.198,0.315,0.299,0.471
			c0.101,0.157,0.204,0.313,0.308,0.467c0.12,0.178,0.24,0.356,0.364,0.531c0.08,0.114,0.163,0.227,0.245,0.34
			c0.148,0.205,0.297,0.41,0.451,0.61c0.007,0.009,0.015,0.019,0.022,0.028c0.629,0.821,1.3,1.603,2.009,2.347H25.609
			C25.61,15.343,25.612,15.341,25.613,15.339z M25.887,84.841c-4.177,0-7.575-3.743-7.575-8.343V30.249
			c0-5.086,2.021-9.895,5.546-13.194l0.594-0.556c0.05-0.047,0.097-0.096,0.147-0.143h50.802c0.05,0.047,0.097,0.097,0.147,0.144
			l0.594,0.556c3.525,3.299,5.546,8.108,5.546,13.194v46.249c0,4.601-3.398,8.343-7.575,8.343H25.887z"/>
		<path fill="#136296" d="M56.455,10.174H43.541c-0.278,0-0.503,0.226-0.503,0.506s0.225,0.506,0.503,0.506h12.914
			c0.278,0,0.503-0.226,0.503-0.506S56.733,10.174,56.455,10.174z"/>
		<path fill="#136296" d="M29.849,65.158c-3.016,0-5.47,2.466-5.47,5.498c0,3.032,2.454,5.498,5.47,5.498s5.47-2.466,5.47-5.498
			C35.319,67.625,32.866,65.158,29.849,65.158z M29.849,75.143c-2.461,0-4.464-2.013-4.464-4.487c0-2.474,2.003-4.487,4.464-4.487
			s4.464,2.013,4.464,4.487C34.313,73.13,32.311,75.143,29.849,75.143z"/>
		<path fill="#136296" d="M70.151,65.158c-3.016,0-5.47,2.466-5.47,5.498c0,3.032,2.454,5.498,5.47,5.498
			c3.016,0,5.47-2.466,5.47-5.498C75.62,67.625,73.167,65.158,70.151,65.158z M70.151,75.143c-2.461,0-4.464-2.013-4.464-4.487
			c0-2.474,2.003-4.487,4.464-4.487c2.461,0,4.464,2.013,4.464,4.487C74.614,73.13,72.612,75.143,70.151,75.143z"/>
		<path fill="#136296" d="M29.142,58.595h41.716c2.626,0,4.763-2.147,4.763-4.787V35.322c0-2.639-2.136-4.787-4.763-4.787h-8.535
			v-1.264c0-1.603-1.297-2.907-2.892-2.907H40.569c-1.595,0-2.892,1.304-2.892,2.907v1.264h-8.535c-2.626,0-4.763,2.147-4.763,4.787
			v18.485C24.38,56.447,26.516,58.595,29.142,58.595z M38.683,31.041v-1.77c0-1.045,0.846-1.896,1.886-1.896h18.862
			c1.04,0,1.886,0.85,1.886,1.896v1.77v1.264c0,1.045-0.846,1.896-1.886,1.896H40.569c-1.04,0-1.886-0.85-1.886-1.896V31.041z
			 M25.386,35.322c0-2.082,1.685-3.776,3.757-3.776h8.535v0.758c0,1.603,1.297,2.907,2.892,2.907h18.862
			c1.595,0,2.892-1.304,2.892-2.907v-0.758h8.535c2.071,0,3.757,1.694,3.757,3.776v18.485c0,2.082-1.685,3.776-3.757,3.776H29.142
			c-2.071,0-3.757-1.694-3.757-3.776V35.322z"/>
		<path fill="#136296" d="M39.878,66.979c-0.278,0-0.503,0.226-0.503,0.506v6.343c0,0.279,0.225,0.506,0.503,0.506
			s0.503-0.226,0.503-0.506v-6.343C40.381,67.205,40.155,66.979,39.878,66.979z"/>
		<path fill="#136296" d="M44.939,66.979c-0.278,0-0.503,0.226-0.503,0.506v6.343c0,0.279,0.225,0.506,0.503,0.506
			s0.503-0.226,0.503-0.506v-6.343C45.442,67.205,45.217,66.979,44.939,66.979z"/>
		<path fill="#136296" d="M50,66.979c-0.278,0-0.503,0.226-0.503,0.506v6.343c0,0.279,0.225,0.506,0.503,0.506
			s0.503-0.226,0.503-0.506v-6.343C50.503,67.205,50.278,66.979,50,66.979z"/>
		<path fill="#136296" d="M55.061,66.979c-0.278,0-0.503,0.226-0.503,0.506v6.343c0,0.279,0.225,0.506,0.503,0.506
			s0.503-0.226,0.503-0.506v-6.343C55.564,67.205,55.339,66.979,55.061,66.979z"/>
		<path fill="#136296" d="M60.122,66.979c-0.278,0-0.503,0.226-0.503,0.506v6.343c0,0.279,0.225,0.506,0.503,0.506
			s0.503-0.226,0.503-0.506v-6.343C60.625,67.205,60.4,66.979,60.122,66.979z"/>
	</g>
	<path fill="#FFFFFF" d="M29.849,45.934h1.257c0.278,0,0.503-0.226,0.503-0.506c0-0.279-0.225-0.506-0.503-0.506h-1.257
		c-0.278,0-0.503,0.226-0.503,0.506C29.346,45.707,29.572,45.934,29.849,45.934z"/>
	<path fill="#FFFFFF" d="M58.817,45.934h2.519c0.278,0,0.503-0.226,0.503-0.506c0-0.279-0.225-0.506-0.503-0.506h-2.519
		c-0.278,0-0.503,0.226-0.503,0.506C58.314,45.707,58.539,45.934,58.817,45.934z"/>
	<path fill="#FFFFFF" d="M33.626,45.934h2.519c0.278,0,0.503-0.226,0.503-0.506c0-0.279-0.225-0.506-0.503-0.506h-2.519
		c-0.278,0-0.503,0.226-0.503,0.506C33.123,45.707,33.348,45.934,33.626,45.934z"/>
	<path fill="#FFFFFF" d="M63.855,45.934h2.519c0.278,0,0.503-0.226,0.503-0.506c0-0.279-0.225-0.506-0.503-0.506h-2.519
		c-0.278,0-0.503,0.226-0.503,0.506C63.352,45.707,63.577,45.934,63.855,45.934z"/>
	<path fill="#FFFFFF" d="M43.702,45.934h2.519c0.278,0,0.503-0.226,0.503-0.506c0-0.279-0.225-0.506-0.503-0.506h-2.519
		c-0.278,0-0.503,0.226-0.503,0.506C43.199,45.707,43.425,45.934,43.702,45.934z"/>
	<path fill="#FFFFFF" d="M53.779,45.934h2.519c0.278,0,0.503-0.226,0.503-0.506c0-0.279-0.225-0.506-0.503-0.506h-2.519
		c-0.278,0-0.503,0.226-0.503,0.506C53.276,45.707,53.501,45.934,53.779,45.934z"/>
	<path fill="#FFFFFF" d="M38.664,45.934h2.519c0.278,0,0.503-0.226,0.503-0.506c0-0.279-0.225-0.506-0.503-0.506h-2.519
		c-0.278,0-0.503,0.226-0.503,0.506C38.161,45.707,38.386,45.934,38.664,45.934z"/>
	<path fill="#FFFFFF" d="M48.74,45.934h2.519c0.278,0,0.503-0.226,0.503-0.506c0-0.279-0.225-0.506-0.503-0.506H48.74
		c-0.278,0-0.503,0.226-0.503,0.506C48.237,45.707,48.463,45.934,48.74,45.934z"/>
	<path fill="#FFFFFF" d="M68.893,45.934h1.257c0.278,0,0.503-0.226,0.503-0.506c0-0.279-0.225-0.506-0.503-0.506h-1.257
		c-0.278,0-0.503,0.226-0.503,0.506C68.39,45.707,68.615,45.934,68.893,45.934z"/>
</g>
</svg>
