<?xml version="1.0" encoding="utf-8"?>
<!-- Generator: Adobe Illustrator 21.1.0, SVG Export Plug-In . SVG Version: 6.00 Build 0)  -->
<svg version="1.1" id="Layer_1" xmlns="http://www.w3.org/2000/svg" xmlns:xlink="http://www.w3.org/1999/xlink" x="0px" y="0px"
	 viewBox="0 0 100 100" enable-background="new 0 0 100 100" xml:space="preserve">
<g>
	<rect x="12.331" y="12.334" fill="#FBE7CD" width="75.337" height="75.331"/>
	<polygon fill="#F68C43" points="78.148,35.684 81.197,32.635 78.644,30.083 75.595,33.132 72.547,30.083 69.994,32.635 
		73.043,35.684 69.994,38.732 72.547,41.285 75.595,38.236 78.644,41.285 81.197,38.732 	"/>
	<path fill="#136296" d="M72.189,29.726l-2.552,2.552c-0.198,0.197-0.198,0.517,0,0.715l2.691,2.691l-2.691,2.691
		c-0.198,0.197-0.198,0.517,0,0.715l2.552,2.552c0.099,0.099,0.228,0.148,0.357,0.148c0.129,0,0.259-0.049,0.357-0.148l2.691-2.691
		l2.691,2.691c0.198,0.197,0.517,0.197,0.715,0l2.553-2.552c0.095-0.095,0.148-0.223,0.148-0.357c0-0.134-0.053-0.263-0.148-0.357
		l-2.691-2.691l2.691-2.691c0.198-0.197,0.198-0.517,0-0.715l-2.553-2.552c-0.198-0.197-0.517-0.197-0.715,0l-2.691,2.691
		l-2.691-2.691C72.706,29.528,72.386,29.528,72.189,29.726z M75.953,33.489l2.691-2.691l1.838,1.837l-2.691,2.691
		c-0.198,0.197-0.198,0.517,0,0.715l2.691,2.691l-1.838,1.837l-2.691-2.691c-0.099-0.099-0.228-0.148-0.357-0.148
		c-0.129,0-0.259,0.049-0.357,0.148l-2.691,2.691l-1.837-1.837l2.691-2.691c0.198-0.197,0.198-0.517,0-0.715l-2.691-2.691
		l1.837-1.837l2.691,2.691C75.435,33.687,75.755,33.687,75.953,33.489z"/>
	<g>
		<path fill="#136296" d="M70.129,20.079c-0.252-0.12-0.554-0.014-0.674,0.238c-0.12,0.252-0.014,0.554,0.238,0.674
			c1.003,0.479,1.903,1.221,2.675,2.208c0.1,0.127,0.248,0.194,0.398,0.194c0.109,0,0.219-0.035,0.311-0.107
			c0.22-0.172,0.259-0.49,0.087-0.71C72.296,21.465,71.274,20.625,70.129,20.079z"/>
		<path fill="#136296" d="M59.032,21.776c-1.012,0.59-2.073,1.295-3.154,2.096c-0.224,0.166-0.271,0.483-0.105,0.707
			c0.099,0.134,0.252,0.204,0.407,0.204c0.105,0,0.21-0.032,0.301-0.099c1.051-0.779,2.08-1.464,3.06-2.034
			c0.241-0.141,0.323-0.45,0.182-0.691C59.583,21.718,59.274,21.637,59.032,21.776z"/>
		<path fill="#136296" d="M52.901,40.703c-0.275,0.05-0.457,0.313-0.407,0.588c0.186,1.028,0.41,2.371,0.495,3.642
			c0.018,0.267,0.24,0.472,0.504,0.472c0.011,0,0.023,0,0.034-0.001c0.279-0.019,0.49-0.259,0.471-0.538
			c-0.088-1.321-0.318-2.701-0.509-3.755C53.439,40.836,53.177,40.651,52.901,40.703z"/>
		<path fill="#136296" d="M62.649,21.11c0.058,0,0.116-0.01,0.173-0.031c1.234-0.45,2.406-0.7,3.483-0.744
			c0.279-0.011,0.496-0.246,0.485-0.525c-0.011-0.279-0.241-0.493-0.525-0.485c-1.182,0.047-2.457,0.318-3.789,0.804
			c-0.262,0.096-0.397,0.386-0.302,0.648C62.249,20.983,62.443,21.11,62.649,21.11z"/>
		<path fill="#136296" d="M52.298,38.036c0.03,0,0.06-0.002,0.09-0.008c0.275-0.05,0.457-0.313,0.408-0.587
			c-0.271-1.499-0.428-2.624-0.509-3.647c-0.022-0.278-0.271-0.486-0.544-0.464c-0.278,0.022-0.486,0.266-0.464,0.544
			c0.084,1.058,0.245,2.213,0.522,3.747C51.845,37.865,52.058,38.036,52.298,38.036z"/>
		<path fill="#136296" d="M51.814,30.61c0.031,0.005,0.061,0.008,0.091,0.008c0.24,0,0.453-0.171,0.497-0.415
			c0.228-1.255,0.675-2.291,1.367-3.168c0.173-0.219,0.135-0.537-0.084-0.71c-0.219-0.172-0.537-0.136-0.71,0.084
			c-0.796,1.01-1.309,2.191-1.568,3.613C51.358,30.297,51.54,30.56,51.814,30.61z"/>
		<path fill="#136296" d="M75.035,25.992c-0.097-0.262-0.389-0.395-0.65-0.298c-0.262,0.098-0.395,0.389-0.298,0.65
			c0.347,0.933,0.48,1.607,0.481,1.613c0.047,0.241,0.259,0.409,0.496,0.409c0.032,0,0.064-0.003,0.097-0.009
			c0.274-0.053,0.453-0.318,0.4-0.592C75.555,27.736,75.413,27.01,75.035,25.992z"/>
		<path fill="#136296" d="M26.773,73.878c-0.141-0.241-0.45-0.321-0.692-0.181c-0.241,0.141-0.322,0.451-0.181,0.692
			c0.561,0.959,1.025,1.509,1.044,1.532c0.1,0.118,0.242,0.179,0.386,0.179c0.115,0,0.231-0.039,0.326-0.12
			c0.213-0.18,0.239-0.499,0.059-0.712C27.711,75.262,27.285,74.754,26.773,73.878z"/>
		<path fill="#136296" d="M24.91,67.32c0-0.149,0.003-0.3,0.009-0.452c0.011-0.279-0.206-0.514-0.485-0.525
			c-0.28-0.024-0.515,0.206-0.526,0.485c-0.007,0.165-0.01,0.329-0.01,0.492c0,1.138,0.158,2.294,0.469,3.439
			c0.061,0.225,0.265,0.373,0.488,0.373c0.044,0,0.088-0.005,0.133-0.018c0.27-0.073,0.429-0.351,0.355-0.621
			C25.056,69.435,24.91,68.367,24.91,67.32z"/>
		<path fill="#136296" d="M47.769,52.749c-0.997,0.261-2.165,0.422-3.676,0.506c-0.279,0.015-0.492,0.254-0.477,0.533
			c0.015,0.269,0.238,0.477,0.504,0.477c0.009,0,0.019,0,0.028-0.001c1.581-0.087,2.813-0.258,3.877-0.538
			c0.27-0.071,0.432-0.347,0.361-0.617C48.316,52.839,48.039,52.677,47.769,52.749z"/>
		<path fill="#136296" d="M27.278,59.365c-0.227-0.162-0.543-0.111-0.706,0.115c-0.803,1.117-1.434,2.283-1.875,3.465
			c-0.098,0.262,0.035,0.553,0.297,0.65c0.058,0.022,0.118,0.032,0.177,0.032c0.205,0,0.398-0.125,0.474-0.329
			c0.41-1.099,0.998-2.185,1.749-3.229C27.556,59.844,27.504,59.528,27.278,59.365z"/>
		<path fill="#136296" d="M32.606,54.531c-1.3,0.495-2.417,1.157-3.415,2.024c-0.211,0.183-0.233,0.503-0.05,0.713
			c0.1,0.115,0.24,0.174,0.382,0.174c0.118,0,0.236-0.041,0.331-0.124c0.907-0.788,1.925-1.391,3.112-1.843
			c0.261-0.099,0.392-0.392,0.293-0.652C33.159,54.562,32.867,54.431,32.606,54.531z"/>
		<path fill="#136296" d="M40.288,53.368c-1.162,0.032-2.529,0.087-3.861,0.256c-0.277,0.035-0.473,0.288-0.438,0.565
			c0.033,0.255,0.25,0.442,0.501,0.442c0.021,0,0.043-0.001,0.064-0.004c1.288-0.163,2.624-0.217,3.761-0.248
			c0.279-0.008,0.499-0.24,0.492-0.519C40.8,53.581,40.578,53.374,40.288,53.368z"/>
		<path fill="#136296" d="M70.067,68.509c-0.173-0.22-0.491-0.258-0.71-0.085c-0.219,0.173-0.257,0.49-0.085,0.71
			c0.667,0.848,1.358,1.735,2.072,2.662c0.099,0.129,0.249,0.197,0.401,0.197c0.108,0,0.217-0.034,0.308-0.105
			c0.221-0.17,0.262-0.488,0.092-0.709C71.429,70.25,70.737,69.361,70.067,68.509z"/>
		<path fill="#136296" d="M56.763,53.147c-0.199-0.196-0.52-0.191-0.715,0.008c-0.195,0.2-0.191,0.52,0.008,0.715
			c0.73,0.713,1.519,1.521,2.345,2.401c0.099,0.106,0.234,0.159,0.369,0.159c0.124,0,0.249-0.045,0.346-0.137
			c0.203-0.191,0.214-0.511,0.022-0.714C58.303,54.688,57.504,53.87,56.763,53.147z"/>
		<path fill="#136296" d="M61.425,58.084c-0.185-0.209-0.505-0.229-0.714-0.042c-0.209,0.185-0.227,0.505-0.042,0.713
			c0.705,0.793,1.449,1.648,2.21,2.541c0.1,0.118,0.242,0.178,0.385,0.178c0.116,0,0.233-0.039,0.328-0.121
			c0.212-0.181,0.238-0.5,0.057-0.712C62.883,59.742,62.135,58.882,61.425,58.084z"/>
		<path fill="#136296" d="M65.825,63.236c-0.178-0.215-0.496-0.245-0.712-0.068c-0.215,0.178-0.246,0.497-0.068,0.712
			c0.678,0.821,1.387,1.692,2.129,2.615c0.1,0.124,0.246,0.189,0.394,0.189c0.111,0,0.223-0.037,0.317-0.112
			c0.218-0.175,0.252-0.493,0.077-0.711C67.217,64.934,66.505,64.06,65.825,63.236z"/>
		<path fill="#136296" d="M74.204,73.875c-0.169-0.222-0.486-0.266-0.708-0.097c-0.223,0.169-0.266,0.486-0.098,0.709
			c0.35,0.461,0.705,0.932,1.065,1.411c0.099,0.132,0.251,0.202,0.405,0.202c0.106,0,0.212-0.033,0.303-0.101
			c0.223-0.168,0.268-0.485,0.1-0.708C74.911,74.809,74.555,74.338,74.204,73.875z"/>
		<path fill="#F0566F" d="M53.163,50.039c0.215-0.4,0.393-0.833,0.527-1.296c0.077-0.268-0.077-0.549-0.346-0.626
			c-0.27-0.077-0.549,0.078-0.626,0.346c-0.127,0.442-0.31,0.839-0.521,1.207c-0.296-0.033-0.778-0.089-1.412-0.172
			c-0.273-0.036-0.531,0.158-0.567,0.435c-0.037,0.277,0.158,0.531,0.435,0.567c0.325,0.043,0.608,0.078,0.852,0.108
			c-0.172,0.189-0.351,0.369-0.54,0.534c-0.21,0.184-0.232,0.503-0.049,0.713c0.1,0.115,0.24,0.173,0.381,0.173
			c0.118,0,0.236-0.041,0.332-0.124c0.35-0.306,0.677-0.648,0.974-1.023c0.218,0.148,0.542,0.385,0.986,0.748
			c0.216,0.177,0.535,0.146,0.712-0.071c0.177-0.216,0.145-0.535-0.071-0.711C53.758,50.46,53.411,50.207,53.163,50.039z"/>
		<path fill="#136296" d="M47.078,49.942c0.241,0,0.454-0.172,0.497-0.417c0.049-0.275-0.135-0.537-0.41-0.586
			c-1.249-0.221-2.457-0.465-3.591-0.725c-0.273-0.061-0.543,0.107-0.606,0.379c-0.062,0.272,0.107,0.544,0.379,0.606
			c1.15,0.264,2.375,0.512,3.641,0.736C47.019,49.939,47.049,49.942,47.078,49.942z"/>
		<path fill="#136296" d="M37.539,33.657c0.085,0.056,0.182,0.083,0.277,0.083c0.165,0,0.326-0.08,0.423-0.228
			c0.659-1.004,1.147-2.157,1.492-3.524c0.068-0.271-0.096-0.546-0.367-0.614c-0.271-0.068-0.546,0.096-0.614,0.367
			c-0.316,1.256-0.76,2.307-1.356,3.215C37.241,33.19,37.305,33.504,37.539,33.657z"/>
		<path fill="#136296" d="M31.897,41.563c-0.02-0.279-0.257-0.489-0.54-0.469c-0.278,0.02-0.489,0.261-0.469,0.54
			c0.086,1.224,0.775,2.369,2.048,3.404c0.094,0.076,0.207,0.113,0.319,0.113c0.147,0,0.293-0.064,0.393-0.187
			c0.176-0.217,0.143-0.535-0.073-0.711C32.527,43.401,31.963,42.496,31.897,41.563z"/>
		<path fill="#136296" d="M36.228,46.958c1.025,0.453,2.209,0.885,3.519,1.286c0.049,0.015,0.099,0.022,0.148,0.022
			c0.216,0,0.416-0.14,0.483-0.358c0.082-0.267-0.068-0.55-0.336-0.631c-1.272-0.389-2.418-0.808-3.406-1.244
			c-0.255-0.113-0.554,0.003-0.667,0.258C35.857,46.547,35.973,46.846,36.228,46.958z"/>
		<path fill="#136296" d="M34.953,35.44c-0.257,0.191-0.512,0.371-0.761,0.547c-0.813,0.574-1.581,1.116-2.179,1.853
			c-0.176,0.217-0.143,0.535,0.074,0.711c0.094,0.076,0.206,0.113,0.318,0.113c0.147,0,0.293-0.064,0.393-0.187
			c0.511-0.629,1.223-1.132,1.978-1.665c0.256-0.181,0.517-0.365,0.781-0.561c0.224-0.166,0.271-0.483,0.104-0.707
			C35.494,35.32,35.177,35.273,34.953,35.44z"/>
		<path fill="#136296" d="M39.741,26.681c0.01,0,0.02,0.001,0.03,0.001c0.266,0,0.489-0.207,0.504-0.476
			c0.033-0.57,0.05-1.175,0.05-1.798c0-0.279-0.226-0.506-0.506-0.506c-0.279,0-0.506,0.226-0.506,0.506
			c0,0.604-0.016,1.189-0.048,1.74C39.25,26.425,39.463,26.664,39.741,26.681z"/>
	</g>
	<g>
		<path fill="#136296" d="M94.494,92.216c-0.279,0-0.506,0.226-0.506,0.506v1.264h-1.264c-0.279,0-0.506,0.226-0.506,0.506
			s0.226,0.506,0.506,0.506h1.77c0.279,0,0.506-0.226,0.506-0.506v-1.77C95,92.442,94.774,92.216,94.494,92.216z"/>
		<path fill="#136296" d="M27.783,93.985h-3.418c-0.279,0-0.506,0.226-0.506,0.506s0.226,0.506,0.506,0.506h3.418
			c0.279,0,0.506-0.226,0.506-0.506S28.062,93.985,27.783,93.985z"/>
		<path fill="#136296" d="M41.455,93.985h-3.418c-0.279,0-0.506,0.226-0.506,0.506s0.226,0.506,0.506,0.506h3.418
			c0.279,0,0.506-0.226,0.506-0.506S41.734,93.985,41.455,93.985z"/>
		<path fill="#136296" d="M48.291,93.985h-3.418c-0.279,0-0.506,0.226-0.506,0.506s0.226,0.506,0.506,0.506h3.418
			c0.279,0,0.506-0.226,0.506-0.506S48.57,93.985,48.291,93.985z"/>
		<path fill="#136296" d="M34.619,93.985h-3.418c-0.279,0-0.506,0.226-0.506,0.506s0.226,0.506,0.506,0.506h3.418
			c0.279,0,0.506-0.226,0.506-0.506S34.898,93.985,34.619,93.985z"/>
		<path fill="#136296" d="M14.111,93.985h-3.418c-0.279,0-0.506,0.226-0.506,0.506s0.226,0.506,0.506,0.506h3.418
			c0.279,0,0.506-0.226,0.506-0.506S14.391,93.985,14.111,93.985z"/>
		<path fill="#136296" d="M55.127,93.985h-3.418c-0.279,0-0.506,0.226-0.506,0.506s0.226,0.506,0.506,0.506h3.418
			c0.279,0,0.506-0.226,0.506-0.506S55.406,93.985,55.127,93.985z"/>
		<path fill="#136296" d="M20.947,93.985h-3.418c-0.279,0-0.506,0.226-0.506,0.506s0.226,0.506,0.506,0.506h3.418
			c0.279,0,0.506-0.226,0.506-0.506S21.226,93.985,20.947,93.985z"/>
		<path fill="#136296" d="M89.307,93.985h-3.418c-0.279,0-0.506,0.226-0.506,0.506s0.226,0.506,0.506,0.506h3.418
			c0.279,0,0.506-0.226,0.506-0.506S89.586,93.985,89.307,93.985z"/>
		<path fill="#136296" d="M82.471,93.985h-3.418c-0.279,0-0.506,0.226-0.506,0.506s0.226,0.506,0.506,0.506h3.418
			c0.279,0,0.506-0.226,0.506-0.506S82.75,93.985,82.471,93.985z"/>
		<path fill="#136296" d="M75.635,93.985h-3.418c-0.279,0-0.506,0.226-0.506,0.506s0.226,0.506,0.506,0.506h3.418
			c0.279,0,0.506-0.226,0.506-0.506S75.914,93.985,75.635,93.985z"/>
		<path fill="#136296" d="M61.963,93.985h-3.418c-0.279,0-0.506,0.226-0.506,0.506s0.226,0.506,0.506,0.506h3.418
			c0.279,0,0.506-0.226,0.506-0.506S62.242,93.985,61.963,93.985z"/>
		<path fill="#136296" d="M68.799,93.985h-3.418c-0.279,0-0.506,0.226-0.506,0.506s0.226,0.506,0.506,0.506h3.418
			c0.279,0,0.506-0.226,0.506-0.506S69.078,93.985,68.799,93.985z"/>
		<path fill="#136296" d="M7.275,93.985H6.011v-1.264c0-0.279-0.226-0.506-0.506-0.506C5.226,92.216,5,92.442,5,92.721v1.77
			c0,0.279,0.226,0.506,0.506,0.506h1.77c0.279,0,0.506-0.226,0.506-0.506S7.555,93.985,7.275,93.985z"/>
		<path fill="#136296" d="M5.506,89.809c0.279,0,0.506-0.226,0.506-0.506v-3.418c0-0.279-0.226-0.506-0.506-0.506
			C5.226,85.381,5,85.607,5,85.886v3.418C5,89.583,5.226,89.809,5.506,89.809z"/>
		<path fill="#136296" d="M5.506,21.455c0.279,0,0.506-0.226,0.506-0.506v-3.418c0-0.279-0.226-0.506-0.506-0.506
			C5.226,17.026,5,17.253,5,17.532v3.418C5,21.229,5.226,21.455,5.506,21.455z"/>
		<path fill="#136296" d="M5.506,35.126c0.279,0,0.506-0.226,0.506-0.506v-3.418c0-0.279-0.226-0.506-0.506-0.506
			C5.226,30.697,5,30.924,5,31.203v3.418C5,34.9,5.226,35.126,5.506,35.126z"/>
		<path fill="#136296" d="M5.506,48.797c0.279,0,0.506-0.226,0.506-0.506v-3.418c0-0.279-0.226-0.506-0.506-0.506
			C5.226,44.368,5,44.594,5,44.874v3.418C5,48.57,5.226,48.797,5.506,48.797z"/>
		<path fill="#136296" d="M5.506,41.961c0.279,0,0.506-0.226,0.506-0.506v-3.418c0-0.279-0.226-0.506-0.506-0.506
			C5.226,37.533,5,37.759,5,38.038v3.418C5,41.735,5.226,41.961,5.506,41.961z"/>
		<path fill="#136296" d="M5.506,82.974c0.279,0,0.506-0.226,0.506-0.506v-3.418c0-0.279-0.226-0.506-0.506-0.506
			C5.226,78.545,5,78.771,5,79.051v3.418C5,82.748,5.226,82.974,5.506,82.974z"/>
		<path fill="#136296" d="M5.506,69.303c0.279,0,0.506-0.226,0.506-0.506V65.38c0-0.279-0.226-0.506-0.506-0.506
			C5.226,64.874,5,65.1,5,65.38v3.418C5,69.077,5.226,69.303,5.506,69.303z"/>
		<path fill="#136296" d="M5.506,76.139c0.279,0,0.506-0.226,0.506-0.506v-3.418c0-0.279-0.226-0.506-0.506-0.506
			C5.226,71.71,5,71.936,5,72.215v3.418C5,75.912,5.226,76.139,5.506,76.139z"/>
		<path fill="#136296" d="M5.506,55.632c0.279,0,0.506-0.226,0.506-0.506v-3.418c0-0.279-0.226-0.506-0.506-0.506
			C5.226,51.203,5,51.429,5,51.709v3.418C5,55.406,5.226,55.632,5.506,55.632z"/>
		<path fill="#136296" d="M5.506,14.62c0.279,0,0.506-0.226,0.506-0.506v-3.418c0-0.279-0.226-0.506-0.506-0.506
			C5.226,10.191,5,10.417,5,10.696v3.418C5,14.393,5.226,14.62,5.506,14.62z"/>
		<path fill="#136296" d="M5.506,62.468c0.279,0,0.506-0.226,0.506-0.506v-3.418c0-0.279-0.226-0.506-0.506-0.506
			C5.226,58.039,5,58.265,5,58.544v3.418C5,62.242,5.226,62.468,5.506,62.468z"/>
		<path fill="#136296" d="M5.506,28.29c0.279,0,0.506-0.226,0.506-0.506v-3.418c0-0.279-0.226-0.506-0.506-0.506
			C5.226,23.862,5,24.088,5,24.367v3.418C5,28.064,5.226,28.29,5.506,28.29z"/>
		<path fill="#136296" d="M7.275,5.003h-1.77C5.226,5.003,5,5.23,5,5.509v1.77c0,0.279,0.226,0.506,0.506,0.506
			c0.279,0,0.506-0.226,0.506-0.506V6.015h1.264c0.279,0,0.506-0.226,0.506-0.506C7.781,5.23,7.555,5.003,7.275,5.003z"/>
		<path fill="#136296" d="M72.217,6.015h3.418c0.279,0,0.506-0.226,0.506-0.506c0-0.279-0.226-0.506-0.506-0.506h-3.418
			c-0.279,0-0.506,0.226-0.506,0.506C71.711,5.788,71.938,6.015,72.217,6.015z"/>
		<path fill="#136296" d="M58.545,6.015h3.418c0.279,0,0.506-0.226,0.506-0.506c0-0.279-0.226-0.506-0.506-0.506h-3.418
			c-0.279,0-0.506,0.226-0.506,0.506C58.039,5.788,58.266,6.015,58.545,6.015z"/>
		<path fill="#136296" d="M65.381,6.015h3.418c0.279,0,0.506-0.226,0.506-0.506c0-0.279-0.226-0.506-0.506-0.506h-3.418
			c-0.279,0-0.506,0.226-0.506,0.506C64.875,5.788,65.102,6.015,65.381,6.015z"/>
		<path fill="#136296" d="M51.709,6.015h3.418c0.279,0,0.506-0.226,0.506-0.506c0-0.279-0.226-0.506-0.506-0.506h-3.418
			c-0.279,0-0.506,0.226-0.506,0.506C51.203,5.788,51.43,6.015,51.709,6.015z"/>
		<path fill="#136296" d="M44.873,6.015h3.418c0.279,0,0.506-0.226,0.506-0.506c0-0.279-0.226-0.506-0.506-0.506h-3.418
			c-0.279,0-0.506,0.226-0.506,0.506C44.367,5.788,44.594,6.015,44.873,6.015z"/>
		<path fill="#136296" d="M85.889,6.015h3.418c0.279,0,0.506-0.226,0.506-0.506c0-0.279-0.226-0.506-0.506-0.506h-3.418
			c-0.279,0-0.506,0.226-0.506,0.506C85.383,5.788,85.609,6.015,85.889,6.015z"/>
		<path fill="#136296" d="M38.037,6.015h3.418c0.279,0,0.506-0.226,0.506-0.506c0-0.279-0.226-0.506-0.506-0.506h-3.418
			c-0.279,0-0.506,0.226-0.506,0.506C37.531,5.788,37.758,6.015,38.037,6.015z"/>
		<path fill="#136296" d="M17.529,6.015h3.418c0.279,0,0.506-0.226,0.506-0.506c0-0.279-0.226-0.506-0.506-0.506h-3.418
			c-0.279,0-0.506,0.226-0.506,0.506C17.023,5.788,17.25,6.015,17.529,6.015z"/>
		<path fill="#136296" d="M79.053,6.015h3.418c0.279,0,0.506-0.226,0.506-0.506c0-0.279-0.226-0.506-0.506-0.506h-3.418
			c-0.279,0-0.506,0.226-0.506,0.506C78.547,5.788,78.774,6.015,79.053,6.015z"/>
		<path fill="#136296" d="M24.365,6.015h3.418c0.279,0,0.506-0.226,0.506-0.506c0-0.279-0.226-0.506-0.506-0.506h-3.418
			c-0.279,0-0.506,0.226-0.506,0.506C23.859,5.788,24.086,6.015,24.365,6.015z"/>
		<path fill="#136296" d="M10.693,6.015h3.418c0.279,0,0.506-0.226,0.506-0.506c0-0.279-0.226-0.506-0.506-0.506h-3.418
			c-0.279,0-0.506,0.226-0.506,0.506C10.188,5.788,10.414,6.015,10.693,6.015z"/>
		<path fill="#136296" d="M31.201,6.015h3.418c0.279,0,0.506-0.226,0.506-0.506c0-0.279-0.226-0.506-0.506-0.506h-3.418
			c-0.279,0-0.506,0.226-0.506,0.506C30.695,5.788,30.922,6.015,31.201,6.015z"/>
		<path fill="#136296" d="M94.494,5.003h-1.77c-0.279,0-0.506,0.226-0.506,0.506c0,0.279,0.226,0.506,0.506,0.506h1.264v1.264
			c0,0.279,0.226,0.506,0.506,0.506C94.774,7.784,95,7.558,95,7.279v-1.77C95,5.23,94.774,5.003,94.494,5.003z"/>
		<path fill="#136296" d="M94.494,64.874c-0.279,0-0.506,0.226-0.506,0.506v3.418c0,0.279,0.226,0.506,0.506,0.506
			c0.279,0,0.506-0.226,0.506-0.506V65.38C95,65.1,94.774,64.874,94.494,64.874z"/>
		<path fill="#136296" d="M94.494,23.861c-0.279,0-0.506,0.226-0.506,0.506v3.418c0,0.279,0.226,0.506,0.506,0.506
			c0.279,0,0.506-0.226,0.506-0.506v-3.418C95,24.088,94.774,23.861,94.494,23.861z"/>
		<path fill="#136296" d="M94.494,30.697c-0.279,0-0.506,0.226-0.506,0.506v3.418c0,0.279,0.226,0.506,0.506,0.506
			c0.279,0,0.506-0.226,0.506-0.506v-3.418C95,30.923,94.774,30.697,94.494,30.697z"/>
		<path fill="#136296" d="M94.494,10.191c-0.279,0-0.506,0.226-0.506,0.506v3.418c0,0.279,0.226,0.506,0.506,0.506
			c0.279,0,0.506-0.226,0.506-0.506v-3.418C95,10.417,94.774,10.191,94.494,10.191z"/>
		<path fill="#136296" d="M94.494,44.368c-0.279,0-0.506,0.226-0.506,0.506v3.418c0,0.279,0.226,0.506,0.506,0.506
			c0.279,0,0.506-0.226,0.506-0.506v-3.418C95,44.594,94.774,44.368,94.494,44.368z"/>
		<path fill="#136296" d="M94.494,17.026c-0.279,0-0.506,0.226-0.506,0.506v3.418c0,0.279,0.226,0.506,0.506,0.506
			c0.279,0,0.506-0.226,0.506-0.506v-3.418C95,17.252,94.774,17.026,94.494,17.026z"/>
		<path fill="#136296" d="M94.494,37.532c-0.279,0-0.506,0.226-0.506,0.506v3.418c0,0.279,0.226,0.506,0.506,0.506
			c0.279,0,0.506-0.226,0.506-0.506v-3.418C95,37.759,94.774,37.532,94.494,37.532z"/>
		<path fill="#136296" d="M94.494,78.545c-0.279,0-0.506,0.226-0.506,0.506v3.418c0,0.279,0.226,0.506,0.506,0.506
			c0.279,0,0.506-0.226,0.506-0.506v-3.418C95,78.771,94.774,78.545,94.494,78.545z"/>
		<path fill="#136296" d="M94.494,85.38c-0.279,0-0.506,0.226-0.506,0.506v3.418c0,0.279,0.226,0.506,0.506,0.506
			c0.279,0,0.506-0.226,0.506-0.506v-3.418C95,85.606,94.774,85.38,94.494,85.38z"/>
		<path fill="#136296" d="M94.494,71.709c-0.279,0-0.506,0.226-0.506,0.506v3.418c0,0.279,0.226,0.506,0.506,0.506
			c0.279,0,0.506-0.226,0.506-0.506v-3.418C95,71.935,94.774,71.709,94.494,71.709z"/>
		<path fill="#136296" d="M94.494,51.203c-0.279,0-0.506,0.226-0.506,0.506v3.418c0,0.279,0.226,0.506,0.506,0.506
			c0.279,0,0.506-0.226,0.506-0.506v-3.418C95,51.429,94.774,51.203,94.494,51.203z"/>
		<path fill="#136296" d="M94.494,58.038c-0.279,0-0.506,0.226-0.506,0.506v3.418c0,0.279,0.226,0.506,0.506,0.506
			c0.279,0,0.506-0.226,0.506-0.506v-3.418C95,58.265,94.774,58.038,94.494,58.038z"/>
	</g>
	<path fill="#136296" d="M12.331,11.829c-0.279,0-0.506,0.226-0.506,0.506v75.331c0,0.279,0.226,0.506,0.506,0.506h75.337
		c0.279,0,0.506-0.226,0.506-0.506V12.334c0-0.279-0.226-0.506-0.506-0.506H12.331z M87.163,87.16H12.837V12.84h74.326V87.16z"/>
</g>
</svg>
