<?xml version="1.0" encoding="utf-8"?>
<!-- Generator: Adobe Illustrator 21.1.0, SVG Export Plug-In . SVG Version: 6.00 Build 0)  -->
<svg version="1.1" id="Layer_1" xmlns="http://www.w3.org/2000/svg" xmlns:xlink="http://www.w3.org/1999/xlink" x="0px" y="0px"
	 viewBox="0 0 100 100" enable-background="new 0 0 100 100" xml:space="preserve">
<g>
	<path fill="#F68C43" d="M19.619,28.709v15.564c0,2.973,2.421,5.384,5.408,5.384h20.844V41.63h8.259v8.027h20.844
		c2.986,0,5.408-2.41,5.408-5.384V28.709H19.619z"/>
	<path fill="#F68C43" d="M54.129,49.657v12.334h-8.259V49.657H25.125v38.104c0,3.717,3.026,6.73,6.759,6.73h36.231
		c3.733,0,6.759-3.013,6.759-6.73V49.657H54.129z"/>
	<path fill="#F0566F" d="M81.192,5.509H18.808c-4.032,0-7.3,3.254-7.3,7.268v8.663c0,4.014,3.268,7.268,7.3,7.268h62.384
		c4.032,0,7.3-3.254,7.3-7.268v-8.663C88.492,8.763,85.224,5.509,81.192,5.509z"/>
	<rect x="45.871" y="41.63" fill="#FFFFFF" width="8.259" height="20.361"/>
	<path fill="#F0566F" d="M20.258,60.302c-2.498,0-4.523,2.016-4.523,4.503V84.09c0,2.487,2.025,4.503,4.523,4.503h4.867v-28.29
		H20.258z"/>
	<path fill="#F0566F" d="M79.742,60.302c2.498,0,4.523,2.016,4.523,4.503V84.09c0,2.487-2.025,4.503-4.523,4.503h-4.867v-28.29
		H79.742z"/>
	<rect x="27.12" y="5.509" fill="#FEE36F" width="6.489" height="23.2"/>
	<rect x="66.39" y="5.509" fill="#FEE36F" width="6.489" height="23.2"/>
	<path fill="#FEE36F" d="M54.129,55.727v6.265h-8.259v-6.265H30.274v27.529c0,2.947,2.4,5.337,5.36,5.337h28.732
		c2.96,0,5.36-2.389,5.36-5.337V55.727H54.129z"/>
	<g>
		<path fill="#136296" d="M74.973,50.163H54.129c-0.281,0-0.508-0.226-0.508-0.506v-7.521h-7.243v7.521
			c0,0.279-0.227,0.506-0.508,0.506H25.027c-3.262,0-5.915-2.642-5.915-5.889V28.709c0-0.279,0.227-0.506,0.508-0.506h60.762
			c0.281,0,0.508,0.226,0.508,0.506v15.565C80.889,47.521,78.235,50.163,74.973,50.163z M54.637,49.152h20.336
			c2.702,0,4.899-2.188,4.899-4.878V29.214H20.127v15.059c0,2.69,2.198,4.878,4.899,4.878h20.336V41.63
			c0-0.279,0.227-0.506,0.508-0.506h8.259c0.281,0,0.508,0.226,0.508,0.506V49.152z"/>
	</g>
	<g>
		<rect x="54.129" y="49.657" fill="#DB742B" width="20.745" height="1.39"/>
		<rect x="25.125" y="49.657" fill="#DB742B" width="20.745" height="1.39"/>
	</g>
	<g>
		<path fill="#136296" d="M68.116,94.997H31.884c-4.007,0-7.267-3.246-7.267-7.236V49.657c0-0.279,0.227-0.506,0.508-0.506h20.745
			c0.281,0,0.508,0.226,0.508,0.506v11.829h7.243V49.657c0-0.279,0.227-0.506,0.508-0.506h20.745c0.281,0,0.508,0.226,0.508,0.506
			v38.104C75.383,91.751,72.123,94.997,68.116,94.997z M25.633,50.163v37.598c0,3.432,2.804,6.224,6.251,6.224h36.231
			c3.447,0,6.251-2.792,6.251-6.224V50.163h-19.73v11.829c0,0.279-0.227,0.506-0.508,0.506h-8.259c-0.281,0-0.508-0.226-0.508-0.506
			V50.163H25.633z"/>
	</g>
	<g>
		<path fill="#136296" d="M81.192,29.214H18.808c-4.305,0-7.808-3.487-7.808-7.774v-8.663c0-4.287,3.503-7.774,7.808-7.774h62.384
			c4.305,0,7.808,3.487,7.808,7.774v8.663C89,25.727,85.497,29.214,81.192,29.214z M18.808,6.015c-3.746,0-6.792,3.034-6.792,6.763
			v8.663c0,3.729,3.047,6.763,6.792,6.763h62.384c3.746,0,6.792-3.034,6.792-6.763v-8.663c0-3.729-3.047-6.763-6.792-6.763H18.808z"
			/>
	</g>
	<g>
		<path fill="#136296" d="M54.129,62.497h-8.259c-0.281,0-0.508-0.226-0.508-0.506V41.63c0-0.279,0.227-0.506,0.508-0.506h8.259
			c0.281,0,0.508,0.226,0.508,0.506v20.361C54.637,62.271,54.41,62.497,54.129,62.497z M46.378,61.486h7.243v-19.35h-7.243V61.486z"
			/>
	</g>
	<g>
		<path fill="#136296" d="M25.125,89.098h-4.867c-2.774,0-5.031-2.247-5.031-5.009V64.805c0-2.762,2.257-5.008,5.031-5.008h4.867
			c0.281,0,0.508,0.226,0.508,0.506v28.29C25.633,88.872,25.406,89.098,25.125,89.098z M20.258,60.808
			c-2.214,0-4.015,1.793-4.015,3.997V84.09c0,2.204,1.801,3.997,4.015,3.997h4.359V60.808H20.258z"/>
	</g>
	<g>
		<path fill="#136296" d="M79.742,89.098h-4.867c-0.281,0-0.508-0.226-0.508-0.506v-28.29c0-0.279,0.227-0.506,0.508-0.506h4.867
			c2.774,0,5.031,2.247,5.031,5.008V84.09C84.772,86.851,82.516,89.098,79.742,89.098z M75.383,88.087h4.359
			c2.214,0,4.015-1.793,4.015-3.997V64.805c0-2.204-1.801-3.997-4.015-3.997h-4.359V88.087z"/>
	</g>
	<g>
		<path fill="#136296" d="M33.61,29.214h-6.489c-0.281,0-0.508-0.226-0.508-0.506v-23.2c0-0.279,0.227-0.506,0.508-0.506h6.489
			c0.281,0,0.508,0.226,0.508,0.506v23.2C34.117,28.988,33.89,29.214,33.61,29.214z M27.628,28.203h5.473V6.015h-5.473V28.203z"/>
	</g>
	<g>
		<path fill="#136296" d="M72.879,29.214H66.39c-0.281,0-0.508-0.226-0.508-0.506v-23.2c0-0.279,0.227-0.506,0.508-0.506h6.489
			c0.281,0,0.508,0.226,0.508,0.506v23.2C73.387,28.988,73.16,29.214,72.879,29.214z M66.898,28.203h5.473V6.015h-5.473V28.203z"/>
	</g>
	<g>
		<path fill="#136296" d="M69.635,77.47h-39.27c-0.281,0-0.508-0.226-0.508-0.506s0.227-0.506,0.508-0.506h39.27
			c0.281,0,0.508,0.226,0.508,0.506S69.916,77.47,69.635,77.47z"/>
	</g>
	<g>
		<g>
			<path fill="#136296" d="M54.129,58.002c-0.281,0-0.508-0.226-0.508-0.506v-1.77c0-0.279,0.227-0.506,0.508-0.506h1.777
				c0.281,0,0.508,0.226,0.508,0.506c0,0.279-0.227,0.506-0.508,0.506h-1.27v1.264C54.637,57.775,54.41,58.002,54.129,58.002z"/>
		</g>
		<g>
			<path fill="#136296" d="M54.129,62.497h-1.777c-0.281,0-0.508-0.226-0.508-0.506s0.227-0.506,0.508-0.506h1.27v-1.264
				c0-0.279,0.227-0.506,0.508-0.506c0.281,0,0.508,0.226,0.508,0.506v1.77C54.637,62.271,54.41,62.497,54.129,62.497z"/>
		</g>
		<g>
			<path fill="#136296" d="M47.648,62.497h-1.777c-0.281,0-0.508-0.226-0.508-0.506v-1.77c0-0.279,0.227-0.506,0.508-0.506
				c0.281,0,0.508,0.226,0.508,0.506v1.264h1.27c0.281,0,0.508,0.226,0.508,0.506S47.929,62.497,47.648,62.497z"/>
		</g>
		<g>
			<path fill="#136296" d="M45.871,58.002c-0.281,0-0.508-0.226-0.508-0.506v-1.264h-1.27c-0.281,0-0.508-0.226-0.508-0.506
				c0-0.279,0.227-0.506,0.508-0.506h1.777c0.281,0,0.508,0.226,0.508,0.506v1.77C46.378,57.775,46.151,58.002,45.871,58.002z"/>
		</g>
		<g>
			<path fill="#136296" d="M40.079,56.232h-4.014c-0.281,0-0.508-0.226-0.508-0.506c0-0.279,0.227-0.506,0.508-0.506h4.014
				c0.281,0,0.508,0.226,0.508,0.506C40.587,56.006,40.36,56.232,40.079,56.232z"/>
		</g>
		<g>
			<path fill="#136296" d="M30.274,58.002c-0.281,0-0.508-0.226-0.508-0.506v-1.77c0-0.279,0.227-0.506,0.508-0.506h1.777
				c0.281,0,0.508,0.226,0.508,0.506c0,0.279-0.227,0.506-0.508,0.506h-1.27v1.264C30.782,57.775,30.555,58.002,30.274,58.002z"/>
		</g>
		<g>
			<path fill="#136296" d="M64.366,89.098h-1.756c-0.281,0-0.508-0.226-0.508-0.506c0-0.279,0.227-0.506,0.508-0.506h1.756
				c0.564,0,1.115-0.095,1.64-0.283c0.262-0.096,0.555,0.042,0.65,0.305s-0.042,0.552-0.306,0.647
				C65.714,88.983,65.047,89.098,64.366,89.098z M59.005,89.098h-3.604c-0.281,0-0.508-0.226-0.508-0.506
				c0-0.279,0.227-0.506,0.508-0.506h3.604c0.281,0,0.508,0.226,0.508,0.506C59.513,88.872,59.286,89.098,59.005,89.098z
				 M51.797,89.098h-3.604c-0.281,0-0.508-0.226-0.508-0.506c0-0.279,0.227-0.506,0.508-0.506h3.604
				c0.281,0,0.508,0.226,0.508,0.506C52.304,88.872,52.077,89.098,51.797,89.098z M44.588,89.098h-3.604
				c-0.281,0-0.508-0.226-0.508-0.506c0-0.279,0.227-0.506,0.508-0.506h3.604c0.281,0,0.508,0.226,0.508,0.506
				C45.096,88.872,44.869,89.098,44.588,89.098z M37.38,89.098h-1.746c-0.685,0-1.355-0.116-1.994-0.346
				c-0.264-0.095-0.4-0.385-0.305-0.647c0.096-0.263,0.387-0.398,0.65-0.304c0.527,0.19,1.082,0.286,1.648,0.286h1.746
				c0.281,0,0.508,0.226,0.508,0.506C37.888,88.872,37.661,89.098,37.38,89.098z M68.924,86.569c-0.091,0-0.183-0.024-0.267-0.076
				c-0.238-0.147-0.311-0.459-0.164-0.696c0.474-0.761,0.725-1.64,0.725-2.542v-0.63c0-0.279,0.227-0.506,0.508-0.506
				s0.508,0.226,0.508,0.506v0.631c0,1.09-0.304,2.153-0.878,3.074C69.26,86.484,69.094,86.569,68.924,86.569z M31.07,86.561
				c-0.17,0-0.337-0.085-0.432-0.24c-0.57-0.92-0.871-1.979-0.871-3.065v-0.641c0-0.279,0.227-0.506,0.508-0.506
				c0.281,0,0.508,0.226,0.508,0.506v0.641c0,0.898,0.249,1.774,0.72,2.534c0.147,0.237,0.073,0.549-0.166,0.696
				C31.253,86.537,31.161,86.561,31.07,86.561z M69.726,79.542c-0.281,0-0.508-0.226-0.508-0.506v-3.588
				c0-0.279,0.227-0.506,0.508-0.506s0.508,0.226,0.508,0.506v3.588C70.234,79.316,70.007,79.542,69.726,79.542z M30.274,79.532
				c-0.281,0-0.508-0.226-0.508-0.506v-3.588c0-0.279,0.227-0.506,0.508-0.506c0.281,0,0.508,0.226,0.508,0.506v3.588
				C30.782,79.306,30.555,79.532,30.274,79.532z M69.726,72.365c-0.281,0-0.508-0.226-0.508-0.506v-3.588
				c0-0.279,0.227-0.506,0.508-0.506s0.508,0.226,0.508,0.506v3.588C70.234,72.139,70.007,72.365,69.726,72.365z M30.274,72.355
				c-0.281,0-0.508-0.226-0.508-0.506v-3.588c0-0.279,0.227-0.506,0.508-0.506c0.281,0,0.508,0.226,0.508,0.506v3.588
				C30.782,72.129,30.555,72.355,30.274,72.355z M69.726,65.189c-0.281,0-0.508-0.226-0.508-0.506v-3.588
				c0-0.279,0.227-0.506,0.508-0.506s0.508,0.226,0.508,0.506v3.588C70.234,64.962,70.007,65.189,69.726,65.189z M30.274,65.178
				c-0.281,0-0.508-0.226-0.508-0.506v-3.588c0-0.279,0.227-0.506,0.508-0.506c0.281,0,0.508,0.226,0.508,0.506v3.588
				C30.782,64.952,30.555,65.178,30.274,65.178z"/>
		</g>
		<g>
			<path fill="#136296" d="M69.726,58.002c-0.281,0-0.508-0.226-0.508-0.506v-1.264h-1.27c-0.281,0-0.508-0.226-0.508-0.506
				c0-0.279,0.227-0.506,0.508-0.506h1.777c0.281,0,0.508,0.226,0.508,0.506v1.77C70.234,57.775,70.007,58.002,69.726,58.002z"/>
		</g>
		<g>
			<path fill="#136296" d="M63.935,56.232h-4.014c-0.281,0-0.508-0.226-0.508-0.506c0-0.279,0.227-0.506,0.508-0.506h4.014
				c0.281,0,0.508,0.226,0.508,0.506C64.443,56.006,64.215,56.232,63.935,56.232z"/>
		</g>
	</g>
	<g>
		<path fill="#FFFFFF" d="M31.888,46.094h-4.33c-1.968,0-3.569-1.594-3.569-3.553v-3.694c0-0.279,0.227-0.506,0.508-0.506
			s0.508,0.226,0.508,0.506v3.694c0,1.402,1.146,2.542,2.553,2.542h4.33c0.281,0,0.508,0.226,0.508,0.506
			C32.396,45.867,32.169,46.094,31.888,46.094z"/>
	</g>
</g>
</svg>
