<?xml version="1.0" encoding="utf-8"?>
<!-- Generator: Adobe Illustrator 21.1.0, SVG Export Plug-In . SVG Version: 6.00 Build 0)  -->
<svg version="1.1" id="Layer_1" xmlns="http://www.w3.org/2000/svg" xmlns:xlink="http://www.w3.org/1999/xlink" x="0px" y="0px"
	 viewBox="0 0 100 100" enable-background="new 0 0 100 100" xml:space="preserve">
<g>
	<path fill="#3792CF" d="M64.224,34.453c-0.71-1.739-3.173-1.739-3.883,0l-24.51,60.039h52.903L64.224,34.453z"/>
	<path fill="#6AC9CC" d="M34.616,45.115c-0.584-1.43-2.609-1.43-3.193,0L11.266,94.492h24.565l9.471-23.2L34.616,45.115z"/>
	<circle fill="#FEE36F" cx="50" cy="17.705" r="9.036"/>
	<path fill="#136296" d="M94.494,93.986h-5.42L64.692,34.262c-0.408-0.999-1.331-1.619-2.41-1.619c-1.078,0-2.002,0.62-2.409,1.619
		L45.302,69.954L35.084,44.924c-0.349-0.856-1.14-1.387-2.065-1.387s-1.715,0.531-2.065,1.387L10.926,93.986h-5.42
		C5.226,93.986,5,94.213,5,94.492s0.226,0.506,0.506,0.506h5.76h24.565h52.903h5.76c0.279,0,0.506-0.226,0.506-0.506
		S94.774,93.986,94.494,93.986z M31.891,45.307c0.228-0.559,0.733-0.758,1.129-0.758s0.9,0.199,1.129,0.758l10.608,25.985
		l-8.441,20.677l-0.824,2.018H12.018L31.891,45.307z M36.583,93.986l0.274-0.672l8.913-21.832l0-0.001l15.039-36.838
		c0.298-0.73,0.956-0.99,1.473-0.99c0.517,0,1.175,0.26,1.473,0.99l24.226,59.343H36.583z"/>
	<path fill="#136296" d="M38.656,22.225c-0.255,0.114-0.369,0.413-0.255,0.668c0.361,0.806,0.81,1.578,1.333,2.295
		c0.099,0.136,0.253,0.207,0.409,0.207c0.103,0,0.208-0.032,0.298-0.097c0.225-0.165,0.275-0.481,0.11-0.707
		c-0.481-0.659-0.894-1.37-1.227-2.112C39.21,22.225,38.91,22.111,38.656,22.225z"/>
	<path fill="#136296" d="M40.113,11.065c0.157,0,0.311-0.073,0.41-0.209c0.478-0.66,1.027-1.272,1.631-1.82
		c0.207-0.187,0.223-0.507,0.035-0.714c-0.187-0.207-0.507-0.223-0.714-0.035c-0.656,0.595-1.253,1.26-1.772,1.976
		c-0.164,0.226-0.113,0.542,0.113,0.706C39.906,11.034,40.01,11.065,40.113,11.065z"/>
	<path fill="#136296" d="M37.957,15.69c0.035,0.007,0.07,0.011,0.104,0.011c0.234,0,0.445-0.164,0.495-0.402
		c0.167-0.797,0.419-1.579,0.749-2.324c0.113-0.255-0.002-0.554-0.257-0.667c-0.256-0.113-0.554,0.002-0.667,0.257
		c-0.359,0.81-0.633,1.661-0.814,2.527C37.509,15.365,37.684,15.633,37.957,15.69z"/>
	<path fill="#136296" d="M57.828,26.39c-0.606,0.546-1.27,1.03-1.975,1.439c-0.242,0.14-0.324,0.45-0.184,0.691
		c0.094,0.162,0.263,0.252,0.438,0.252c0.086,0,0.173-0.022,0.253-0.068c0.765-0.444,1.487-0.969,2.145-1.563
		c0.207-0.187,0.224-0.507,0.037-0.714C58.355,26.219,58.035,26.202,57.828,26.39z"/>
	<path fill="#136296" d="M53.623,28.825c-0.773,0.252-1.577,0.422-2.389,0.508c-0.278,0.029-0.479,0.278-0.45,0.556
		c0.027,0.26,0.247,0.453,0.502,0.453c0.018,0,0.035-0.001,0.053-0.003c0.883-0.093,1.756-0.278,2.597-0.552
		c0.265-0.086,0.411-0.372,0.324-0.637C54.174,28.884,53.89,28.739,53.623,28.825z"/>
	<path fill="#136296" d="M38.07,20.77c0.035,0,0.071-0.003,0.106-0.011c0.273-0.058,0.447-0.327,0.389-0.6
		c-0.169-0.793-0.256-1.61-0.258-2.43c-0.001-0.279-0.227-0.504-0.506-0.504c0,0-0.001,0-0.001,0
		c-0.279,0.001-0.505,0.228-0.504,0.507c0.002,0.889,0.096,1.777,0.28,2.639C37.627,20.608,37.837,20.77,38.07,20.77z"/>
	<path fill="#136296" d="M46.399,28.832c-0.266-0.086-0.551,0.06-0.637,0.325c-0.086,0.266,0.059,0.551,0.325,0.637
		c0.841,0.272,1.715,0.456,2.599,0.547c0.018,0.002,0.035,0.003,0.052,0.003c0.256,0,0.476-0.194,0.502-0.454
		c0.029-0.278-0.174-0.526-0.451-0.554C47.977,29.252,47.173,29.082,46.399,28.832z"/>
	<path fill="#136296" d="M42.189,26.405c-0.207-0.187-0.527-0.169-0.714,0.038c-0.187,0.208-0.17,0.527,0.038,0.714
		c0.659,0.592,1.382,1.117,2.149,1.559c0.079,0.046,0.166,0.068,0.252,0.068c0.175,0,0.345-0.091,0.438-0.253
		c0.139-0.242,0.057-0.551-0.185-0.69C43.461,27.433,42.795,26.95,42.189,26.405z"/>
	<path fill="#136296" d="M59.436,10.798c0.099,0.135,0.252,0.207,0.408,0.207c0.104,0,0.208-0.032,0.298-0.098
		c0.225-0.165,0.274-0.481,0.109-0.707c-0.523-0.714-1.123-1.375-1.783-1.965c-0.208-0.187-0.528-0.169-0.714,0.04
		c-0.186,0.208-0.168,0.528,0.04,0.714C58.401,9.532,58.953,10.141,59.436,10.798z"/>
	<path fill="#136296" d="M61.353,22.203c-0.254-0.113-0.554,0.001-0.668,0.256c-0.331,0.744-0.743,1.455-1.223,2.115
		c-0.164,0.226-0.115,0.542,0.111,0.706c0.09,0.065,0.194,0.097,0.297,0.097c0.156,0,0.31-0.072,0.409-0.208
		c0.522-0.717,0.969-1.49,1.329-2.299C61.723,22.615,61.608,22.316,61.353,22.203z"/>
	<path fill="#136296" d="M61.692,17.705c0,0.82-0.085,1.637-0.253,2.43c-0.058,0.273,0.117,0.541,0.39,0.599
		c0.035,0.007,0.071,0.011,0.105,0.011c0.234,0,0.444-0.163,0.494-0.401c0.182-0.862,0.275-1.75,0.275-2.647l-0.506-0.043h0.506
		c0-0.279-0.226-0.48-0.505-0.48C61.919,17.174,61.692,17.426,61.692,17.705z"/>
	<path fill="#136296" d="M61.429,15.228c0.051,0.237,0.261,0.399,0.494,0.399c0.035,0,0.071-0.004,0.107-0.011
		c0.273-0.059,0.446-0.328,0.388-0.601c-0.187-0.865-0.466-1.714-0.83-2.522c-0.115-0.254-0.414-0.368-0.669-0.253
		c-0.255,0.115-0.368,0.414-0.253,0.669C61.001,13.652,61.258,14.432,61.429,15.228z"/>
	<path fill="#136296" d="M53.578,6.571c0.775,0.249,1.526,0.581,2.234,0.987c0.079,0.046,0.166,0.067,0.251,0.067
		c0.175,0,0.345-0.091,0.439-0.254c0.139-0.242,0.056-0.551-0.187-0.69c-0.769-0.442-1.586-0.803-2.429-1.073
		c-0.267-0.087-0.551,0.061-0.636,0.327C53.166,6.201,53.312,6.486,53.578,6.571z"/>
	<path fill="#136296" d="M43.872,7.663c0.086,0,0.174-0.022,0.254-0.069c0.706-0.411,1.455-0.747,2.228-1.001
		c0.265-0.087,0.41-0.373,0.323-0.638c-0.087-0.265-0.372-0.411-0.638-0.323c-0.84,0.276-1.655,0.641-2.422,1.088
		c-0.241,0.14-0.323,0.45-0.183,0.691C43.528,7.573,43.698,7.663,43.872,7.663z"/>
	<path fill="#136296" d="M48.688,6.083c0.018,0,0.036-0.001,0.054-0.003c0.413-0.044,0.834-0.067,1.251-0.067
		c0.002,0,0.004,0,0.006,0c0.396,0,0.795,0.02,1.186,0.059c0.277,0.03,0.526-0.175,0.554-0.453c0.028-0.278-0.175-0.526-0.453-0.554
		C50.863,5.024,50.43,5.002,50,5.002c-0.467,0.005-0.915,0.024-1.366,0.073c-0.278,0.03-0.479,0.279-0.449,0.556
		C48.213,5.891,48.433,6.083,48.688,6.083z"/>
	<path fill="#136296" d="M50,27.246c5.261,0,9.542-4.28,9.542-9.541S55.261,8.164,50,8.164s-9.542,4.28-9.542,9.541
		S44.739,27.246,50,27.246z M50,9.175c4.704,0,8.53,3.826,8.53,8.53c0,4.704-3.827,8.53-8.53,8.53s-8.53-3.826-8.53-8.53
		C41.47,13.002,45.296,9.175,50,9.175z"/>
	<g>
		<path fill="#FFFFFF" d="M62.465,38.28c-0.26-0.1-0.553,0.029-0.654,0.289l-0.638,1.648c-0.101,0.26,0.029,0.553,0.289,0.654
			c0.06,0.023,0.122,0.034,0.183,0.034c0.203,0,0.394-0.123,0.472-0.323l0.638-1.649C62.855,38.673,62.726,38.38,62.465,38.28z"/>
		<path fill="#FFFFFF" d="M52.888,62.947c-0.258-0.102-0.553,0.027-0.654,0.287l-1.282,3.287c-0.101,0.26,0.027,0.553,0.287,0.655
			c0.06,0.024,0.122,0.035,0.183,0.035c0.202,0,0.393-0.122,0.471-0.322l1.282-3.287C53.277,63.342,53.148,63.048,52.888,62.947z"/>
		<path fill="#FFFFFF" d="M58.002,49.795c-0.26-0.102-0.554,0.028-0.654,0.288l-1.277,3.289c-0.101,0.26,0.028,0.553,0.288,0.655
			c0.06,0.023,0.122,0.034,0.183,0.034c0.202,0,0.394-0.122,0.471-0.322l1.277-3.289C58.391,50.189,58.262,49.896,58.002,49.795z"/>
		<path fill="#FFFFFF" d="M60.554,43.213c-0.259-0.1-0.553,0.028-0.654,0.289l-1.276,3.291c-0.101,0.26,0.028,0.553,0.289,0.654
			c0.06,0.023,0.122,0.035,0.183,0.035c0.202,0,0.394-0.123,0.471-0.323l1.276-3.291C60.944,43.607,60.815,43.314,60.554,43.213z"/>
		<path fill="#FFFFFF" d="M55.447,56.373c-0.26-0.102-0.553,0.028-0.654,0.288l-1.279,3.288c-0.101,0.26,0.028,0.553,0.288,0.654
			c0.06,0.024,0.122,0.035,0.183,0.035c0.202,0,0.394-0.122,0.472-0.322l1.279-3.288C55.836,56.767,55.707,56.474,55.447,56.373z"/>
		<path fill="#FFFFFF" d="M50.324,69.522c-0.261-0.103-0.554,0.027-0.655,0.287l-1.284,3.286c-0.102,0.26,0.027,0.553,0.287,0.655
			c0.06,0.024,0.123,0.035,0.184,0.035c0.202,0,0.393-0.122,0.471-0.321l1.285-3.286C50.713,69.917,50.585,69.623,50.324,69.522z"/>
		<path fill="#FFFFFF" d="M45.174,82.66c-0.259-0.101-0.553,0.026-0.656,0.285c-0.455,1.154-0.889,2.252-1.297,3.28
			c-0.103,0.26,0.024,0.553,0.284,0.657c0.061,0.024,0.124,0.036,0.186,0.036c0.201,0,0.392-0.121,0.47-0.319
			c0.408-1.029,0.843-2.128,1.298-3.282C45.561,83.057,45.434,82.763,45.174,82.66z"/>
		<path fill="#FFFFFF" d="M47.754,76.093c-0.26-0.102-0.553,0.027-0.655,0.286l-1.289,3.284c-0.102,0.26,0.026,0.553,0.286,0.656
			c0.061,0.024,0.123,0.035,0.185,0.035c0.202,0,0.393-0.121,0.471-0.32l1.289-3.285C48.143,76.488,48.014,76.195,47.754,76.093z"/>
		<path fill="#FFFFFF" d="M42.589,89.181c-0.261-0.104-0.554,0.023-0.657,0.281c-0.236,0.588-0.456,1.136-0.659,1.638
			c-0.105,0.259,0.02,0.553,0.279,0.658c0.062,0.025,0.126,0.037,0.189,0.037c0.2,0,0.389-0.119,0.469-0.316
			c0.203-0.504,0.424-1.052,0.66-1.641C42.974,89.579,42.848,89.285,42.589,89.181z"/>
	</g>
</g>
</svg>
