<?xml version="1.0" standalone="no"?>
<!DOCTYPE svg PUBLIC "-//W3C//DTD SVG 1.1//EN" "http://www.w3.org/Graphics/SVG/1.1/DTD/svg11.dtd">
<svg xmlns="http://www.w3.org/2000/svg">
<metadata>Generated by Fontastic.me</metadata>
<defs>
<font id="city-icons" horiz-adv-x="512">
<font-face font-family="city-icons" units-per-em="512" ascent="480" descent="-32"/>
<missing-glyph horiz-adv-x="512" />

<glyph unicode="&#97;" d="M427 416c-55-17-185-80-185-80l-135-58c0 0-15-23-55 16 0 0-25 26-42 21-17-4-8-16-4-25 4-8 34-79 34-79 0 0 29-34 139 12 109 46 84 34 84 34l-30-160c0 0 0-16 17-4 17 13 30 25 30 25l84 185c0 0 126 59 143 80 17 21-25 50-80 33z m-316-38l72-46c0 0 76 34 71 34-4 0-96 38-118 33-21-4-33-12-33-12 0 0-4 0 8-9z"/>
<glyph unicode="&#98;" d="M456 261c0 57-23 108-61 145l18 18 42-43c14 14 23 34 23 55 0 42-34 76-76 76-21 0-41-9-54-23l40-41-21-20c-27 18-59 30-94 33l0 26c0 10-8 18-18 18-9 0-17-8-17-18l0-26c-35-3-68-15-96-34l-28 28 36 37c-12 12-30 20-49 20-38 0-68-31-68-69 0-19 7-36 20-48l36 36 26-26c-37-37-61-88-61-144 0-73 40-137 98-172l-52-53c-7-6-7-18 0-24 3-4 8-5 12-5 5 0 9 1 13 5l61 61c22-8 45-13 69-13 25 0 48 5 70 13l61-61c4-4 8-5 13-5 4 0 8 1 12 5 7 7 7 18 0 24l-53 53c59 35 98 99 98 172z m-147-53c-3-4-8-5-12-5-2 0-4 0-5 0-3 1-6 3-8 5l-41 41c0 0-1 1-1 1-1 1-2 3-3 4 0 1 0 2 0 2-1 1-1 1-1 2 0 0 0 0 0 1 0 0 0 1 0 2l0 75c0 10 8 18 17 18 10 0 18-8 18-18l0-68 30-29 6-7c2-2 4-4 4-7 2-6 1-13-4-17z"/>
<glyph unicode="&#99;" d="M272 359l-1-1c-1 0-2 0-3 0 3 30 13 75 38 86 8 3 12 12 8 20-3 8-12 11-20 8-11-5-21-13-29-24-5 14-19 32-52 45-67 26-96 18-96 18 0 0 20-144 131-98-2-7-4-14-6-22-2-11-3-21-4-30-118 48-262-12-210-164 15-95 134-201 228-201 0 0 0 0 1 1 0 0 0 0 0 0 0-1 0-1 0-1 94 0 213 106 228 201 53 154-95 214-213 162z m148-118c-1 0-1 0-2 0-8 0-14 5-15 13-1 8-4 16-8 25-4 9-9 16-14 22-6 6-6 16 1 21 1 2 4 3 6 4 5 1 11 0 15-4-4 4-10 5-15 4 6-2 12-5 18-7 6-8 12-17 17-27 5-11 9-23 10-34 1-8-5-16-13-17z"/>
<glyph unicode="&#100;" d="M494 231l-59-34c-22-13-59-34-81-46l-59-34c-22-13-41-2-41 23l0 43-244 0c-6 0-10 4-10 9l0 124c0 6 4 10 10 10l244 0 0 42c0 26 19 36 41 24l59-34c22-13 59-34 81-47l59-34c23-12 23-33 0-46z"/>
<glyph unicode="&#101;" d="M366 512c-7 0-14-3-21-9l-177 0c-7 6-14 9-21 9-9 0-16-4-23-11-5-2-9-7-10-13-31-49-45-163-45-217 0-67 16-137 46-167 2-8 9-13 17-13l1 0c5-1 9-2 14-2 5 0 9 1 13 2l5 0 0-39-15 0c-5 0-9-5-9-10 0-5 4-10 9-10l15 0 0-23c0-5 5-10 10-10 5 0 10 5 10 10l0 23 6 0c6 0 10 5 10 10 0 5-4 10-10 10l-6 0 0 39 148 0 0-39-15 0c-6 0-10-5-10-10 0-5 4-10 10-10l15 0 0-23c0-5 4-10 9-10 6 0 10 5 10 10l0 23 7 0c5 0 10 5 10 10 0 5-5 10-10 10l-7 0 0 39 1 0c4-1 9-2 13-2 5 0 10 1 14 2 6 0 12 4 15 9 32 28 49 101 49 171 0 71-22 241-78 241z m-16-358l0-9-191 0 0 85 191 0 0-76z m48-4l0 181c-1 0-2 0-3 0l-281 0 0-175c-11 26-18 66-18 115 0 45 7 100 18 144l0-72 281 0c1 0 2 0 3-1l0 81c0-2 1-4 1-7 12-44 19-100 19-145 0-53-9-94-20-121z m-177 65l-47 0 0-55 161 0 0 55z"/>
<glyph unicode="&#102;" d="M478 374l-13-12c-2-3-5-4-8-4-3 0-5 1-8 4-4 4-4 11 0 15l17 17c-45 69-123 114-212 114-140 0-254-114-254-254 0-63 23-120 60-164l20 20c4 4 11 4 16 0 4-5 4-12 0-16l-21-20c46-46 109-74 179-74 35 0 68 7 98 20l-14 14c-4 5-4 12 1 16 4 4 11 4 16-1l18-19c80 42 135 127 135 224 0 44-11 85-30 120z m-404-133c-1-1-3-1-5-1-4 0-8 2-10 5l-18 35c-3 5-1 12 5 15 5 3 12 1 15-5l18-34c3-6 1-12-5-15z m171 222c6 2 12 0 15-6l15-36c3-6 0-12-5-15-2 0-3 0-5 0-4 0-8 2-10 6l-16 36c-2 6 0 12 6 15z m-108-69l-28-28c-2-2-5-3-7-3-3 0-6 1-8 3-5 5-5 12 0 16l28 28c4 4 11 4 15 0 4-5 4-12 0-16z m108-353c-1-1-3-1-5-1-4 0-8 2-10 6l-18 34c-3 6-1 12 5 15 5 3 12 1 14-4l19-35c3-5 1-12-5-15z m108 128c5-4 4-11 0-15-2-2-5-3-8-3-3 0-6 1-8 3l-16 18c-18-15-42-24-67-24-24 0-47 8-64 22-1-1-1-2-2-2l-28-28c-2-2-5-3-8-3-2 0-5 1-7 3-5 4-5 11 0 16l27 27c1 1 1 1 2 2-16 18-26 42-26 69 0 59 47 106 106 106 59 0 106-47 106-106 0-25-9-48-23-67l0 0z m13 206c-5 2-8 9-5 14l15 36c3 6 9 8 15 6 6-2 8-9 6-15l-16-35c-2-5-6-7-10-7-2 0-3 0-5 1z m54-255l-29-26c-2-2-5-3-8-3-3 0-6 1-8 3-4 5-4 12 1 16l29 26c4 5 11 4 15 0 4-5 4-12 0-16z m28 119c-2-3-5-5-9-5-2 0-4 0-6 1l-34 20c-5 3-7 10-4 15 3 5 10 7 15 4l34-20c6-3 7-9 4-15z"/>
<glyph unicode="&#103;" d="M328 395c0 0 0 1 0 1-1 64-53 116-117 116-65 0-118-53-118-117 0-61 47-158 107-169 0 0 0-1 0-1l0-211c0-6 5-11 11-11 6 0 11 5 11 11l0 211c0 0 0 1-1 1 13 2 25 8 36 17 41 32 71 103 71 152z m-117 67c-39 0-71-31-71-70 0-6 1-12 2-19 1-6-3-12-9-13 0 0-1 0-2 0-5 0-9 4-10 9-2 8-3 16-3 23 0 51 42 92 93 92 6 0 11-5 11-11 0-6-5-11-11-11z m139-68c-1-56-34-134-83-171 14-20 31-37 50-41l0-168c0-6 5-11 11-11 6 0 11 5 11 11l0 168c43 10 77 81 77 126 0 41-28 76-66 86z"/>
<glyph unicode="&#104;" d="M0 123c14-13 30-25 47-35 58-34 135-48 216-34 156 26 265 146 245 268-1 6-2 12-4 17-2 8-4 16-7 23l-11 56c0 3 0 5-1 8 0 0 0 0 0 0 0 13-10 24-23 25l-53 16c-15 2-27-10-29-25l-8-93c-1-2 0-4 0-6-1-1-1-2-2-3 1-6 0-12-1-19-11-64-87-124-186-141-31-5-60-6-88-3-3 1-6 1-9 2-8 0-17 0-25-1-37-7-64-31-61-55z"/>
<glyph unicode="&#105;" d="M108 380l-9 0c-11 0-20-9-20-20l0-209c0-11 9-20 20-20l9 0c11 0 20 9 20 20l0 209c0 11-9 20-20 20z m-59-50c0 11-9 20-19 20l-10 0c-11 0-20-9-20-20l0-149c0-11 9-20 20-20l10 0c10 0 19 9 19 20l0 0z m365 50l-10 0c-11 0-19-9-19-20l0-209c0-11 8-20 19-20l10 0c11 0 20 9 20 20l0 209c0 11-9 20-20 20z m79-30l-10 0c-11 0-20-9-20-20l0-149c0-11 9-20 20-20l10 0c11 0 20 9 20 20l0 149c0 11-9 20-20 20z m-128-83l-217 0c-7 0-12-5-12-12 0-6 5-12 12-12l217 0c6 0 12 6 12 12 0 7-6 12-12 12z"/>
<glyph unicode="&#106;" d="M436 437c-49 48-113 75-181 75-68 0-132-27-180-75-48-48-75-112-75-180 0-68 27-132 75-180 48-48 112-75 180-75 68 0 132 27 181 75 48 48 74 112 74 180 0 68-26 132-74 180z m-217 48c6 6 16 6 21 0l12-12 11 12c6 6 16 6 22 0 6-6 6-16 0-22l-22-22c-3-3-7-4-11-4-4 0-8 1-11 4l-22 22c-6 6-6 16 0 22z m2-48c8 4 17 2 21-5l8-14 14 8c7 4 17 1 21-6 4-7 2-17-6-21l-27-15c-2-2-5-2-7-2-2 0-4 0-6 1-1 0-2 1-4 2 0 0-1 0-1 1-1 1-2 2-3 3l0 0-15 27c-4 8-2 17 5 21z m-10-47c8 2 17-2 19-10l4-16 16 4c8 2 16-3 18-11 3-8-2-16-10-18l-31-8c-1-1-2-1-4-1-6 0-13 5-14 11l-8 31c-3 8 2 16 10 18z m-37-57c0 8 7 15 15 15 9 0 16-7 16-15l0-17 16 0c8 0 15-6 15-15 0-8-7-15-15-15l-32 0c-4 0-8 2-10 4-1 1-2 2-2 3 0 0-1 0-1 1-1 1-1 3-1 4-1 1-1 2-1 3z m-102-106c5-6 5-15 0-21-3-3-7-5-11-5-4 0-8 2-11 5l-22 22c-6 6-6 16 0 21l22 23c6 6 16 6 22 0 5-6 5-16 0-22l-12-11z m62-4c-3-5-8-8-13-8-3 0-5 1-8 2l-27 16c-7 4-10 13-5 21l15 27c4 7 14 10 21 5 7-4 10-13 6-20l-8-14 14-8c7-5 9-14 5-21z m56 32c-2-7-8-11-14-11-2 0-3 0-4 0l-31 9c-8 2-13 10-10 18l8 30c2 9 10 13 18 11 8-2 13-10 11-18l-4-16 15-4c9-2 13-11 11-19z m80-203l-22-22c-3-3-7-5-11-5-4 0-8 2-11 5l-22 22c-6 6-6 16 0 21 6 6 16 6 21 0l12-11 11 11c6 6 16 6 22 0 6-5 6-15 0-21z m9 46l-27-15c-3-2-5-3-8-3-5 0-10 3-13 8l-16 27c-4 8-1 17 6 21 7 4 16 2 21-6l8-14 14 9c7 4 16 1 21-6 4-7 1-17-6-21z m21 43l-31-9c-1 0-2 0-4 0-3 0-6 1-9 3 0 1-1 1-2 2 0 0-1 1-1 2-1 0-1 1-1 2-1 1-1 1-1 2l-8 30c-3 9 2 17 10 19 9 2 17-3 19-11l4-15 16 4c8 2 16-3 18-11 3-8-2-16-10-18z m31 35l-32 0c-3 0-7 1-9 4-1 0-1 0-1 1-3 2-5 6-5 10l0 32c0 8 7 15 15 15 5 0 8-2 11-5 3-2 5-6 5-10l0-17 16 0c8 0 15-6 15-15 0-8-7-15-15-15z m58 37c-2-7-8-11-15-11-1 0-3 0-4 0l-30 9c-9 2-13 10-11 18l8 30c2 8 10 13 19 11 8-2 13-10 10-18l-4-16 16-4c8-2 13-11 11-19z m46 10c-2-5-8-7-13-7-2 0-5 0-7 2l-28 15c-7 4-9 14-5 21l15 27c5 7 14 10 21 6 8-4 10-14 6-21l-8-14 14-8c7-4 10-14 5-21z m48-2c-3-3-7-5-11-5-3 0-7 2-10 5l-23 22c-5 6-5 16 0 21l23 23c6 6 15 6 21 0 6-6 6-16 0-22l-11-11 11-12c6-6 6-15 0-21z"/>
<glyph unicode="&#107;" d="M511 311l-58-231c0-11-8-19-19-19l-45 0 0 116c0 7-6 13-13 13-7 0-13-6-13-13l0-116-95 0 0 116c0 7-5 13-12 13-8 0-13-6-13-13l0-116-95 0 0 116c0 7-6 13-13 13-7 0-13-6-13-13l0-116-45 0c-11 0-19 8-19 19l-58 231c0 11 8 19 19 19l25 0 121 120c5 5 13 5 18 0 5-5 5-13 0-18l-102-102 349 0-102 102c-5 5-5 13 0 18 5 5 13 5 18 0l121-120 25 0c11 0 19-8 19-19z"/>
<glyph unicode="&#108;" d="M509 277c-5-1-10-2-15-4-22-5-44-10-60-15-45-14-57-21-78-52l106-70 12-9c1 2 2 3 3 5 25 44 36 95 32 145z m-435-24c45 14 57 21 78 52l-105 70-13 9c0-1-1-1-1-1-26-46-37-97-32-148 5 1 10 2 15 3 22 5 43 10 58 15z m104 35c-27-37-43-48-95-64-17-5-39-11-63-16-5-1-9-2-14-3 1-6 2-11 3-16 15-55 48-102 92-135l9 12 123 185z m80-54l-123-185-8-12c1-1 2-1 2-2 39-22 82-33 126-33 16 0 32 2 48 5-1 5-2 10-3 15-4 23-7 46-9 64-5 54-2 73 23 112z m81-53c-20-32-22-46-18-93 2-16 5-37 9-59 1-5 2-10 3-15 49 16 93 47 124 88l-12 8z m-170 149c20 32 22 46 18 93-2 16-5 38-9 61-1 5-2 10-3 15-49-16-93-48-125-90l13-8z m81-53l125 188 8 12c-1 1-2 1-2 2-39 22-82 33-126 33-17 0-34-2-51-5 1-5 2-10 3-15 5-25 8-48 10-67 5-54 2-73-22-112z m80-54c27 37 43 48 95 64 17 6 41 11 65 17 5 1 10 2 15 3-1 6-3 12-4 18-15 55-48 102-92 136l-9-13-125-188z"/>
<glyph unicode="&#109;" d="M439 493l-24 17c-5 4-12 2-16-3l-141-201c0 0 0 0 0 0l0 0-4-6c0-1-1-2-1-3l0 0-94-145 43-7 93 122 0 0c0 1 1 2 2 2l145 208c3 5 2 12-3 16z m-334-477l16 22-32 6-7-12c0 0-1 0-1-1l0 0c-4 2-10 1-12-3-4-5-2-11 2-14l21-15c1-1 3-1 5-1 3 0 7 1 8 4 3 4 3 10-1 13 0 0 0 0 0 0 0 0 1 1 1 1z m-4 46l34-6 20 26-36 7z m29 45l38-7 21 27-41 7z"/>
<glyph unicode="&#110;" d="M473 248c0 69-46 128-108 149 3 33 7 48 7 48 0 12-7 21-17 25-1 15-13 26-28 26-14 0-25-10-27-24l-9 0c-3 14-14 24-28 24-7 0-13-3-18-7-2 13-14 23-27 23-11 0-20-6-25-15-4 3-9 4-14 4-6 0-11-2-16-6-1 1-1 1-2 1-7 0-13-3-18-7-2 13-13 23-27 23-11 0-20-6-25-15-4 3-8 4-13 4-16 0-28-13-28-28 0-2 0-3 0-5-8-5-13-13-13-23 0 0 15-61 15-204 0-144-15-211-15-211 0-15 13-27 28-27l279 0c15 0 28 12 28 27 0 0-5 23-9 69 64 20 110 79 110 149z m-113-110c-2 29-3 63-3 103 0 48 2 86 4 117 43-18 74-61 74-110 0-49-31-92-75-110z"/>
<glyph unicode="&#111;" d="M328 300l0 1c-1 24-15 45-34 57l-6 146c0 4-4 8-10 8l-41 0c-6 0-10-4-10-8l-6-146c-19-12-33-33-34-57 0 0 0 0 0 0l0-276c0 0 0 0 0 0 0-1 0-1 0-1 0-12 32-21 70-21 39 0 71 9 71 21 0 0 0 0 0 1 0 0 0 0 0 0l0 271c0 1 0 2 0 2 0 1 0 1 0 2z"/>
<glyph unicode="&#112;" d="M433 242c-1 0-2-1-3-1l-6 32 5 0c7 0 13 6 13 13 0 6-6 12-13 12l-10 0-4 22 30 0c6 0 12 6 12 12 0 7-6 13-12 13l-96 0c-7 0-12-6-12-13 0-6 5-12 12-12l40 0 5-22-239 0 40 92 0 1c7 15 11 19 16 19l50 0c6 0 12 5 12 12 0 7-6 12-12 12l-50 0c-25 0-34-24-38-34l-70-161c-7 2-14 3-21 3-45 0-82-37-82-83 0-45 37-82 82-82 45 0 82 37 82 82 0 30-15 55-38 70l8 19 141-105 78 0c7-38 40-66 80-66 45 0 82 37 82 82 0 46-37 83-82 83z m-289 30l1 1 254 0 7-36c-30-11-52-38-55-70l-68 0z"/>
<glyph unicode="&#113;" d="M499 467l-231-76 0-342 231 76c7 0 12 6 12 12l0 318c0 7-5 12-12 12z m-36-231c0-7-5-12-12-12l-126-40c-7 0-12 5-12 12l0 121c0 6 5 12 12 12l126 40c7 0 12-6 12-12z m-451 231c-7 0-12-5-12-12l0-318c0-6 5-12 12-12l232-76 0 342z m184-287c-1-5-6-8-11-8-1 0-2 0-4 0l-133 40c-6 2-10 9-8 15 2 7 9 10 15 8l133-40c7-2 10-9 8-15z m0 48c-1-5-6-8-11-8-1 0-2 0-4 0l-133 40c-6 2-10 9-8 15 2 7 9 10 15 9l133-41c7-1 10-8 8-15z m0 49c-1-5-6-9-11-9-1 0-2 0-4 1l-133 40c-6 2-10 8-8 15 2 6 9 10 15 8l133-40c7-2 10-9 8-15z m0 48c-1-5-6-8-11-8-1 0-2 0-4 0l-133 40c-6 2-10 9-8 15 2 7 9 10 15 8l133-40c7-2 10-9 8-15z"/>
<glyph unicode="&#114;" d="M311 331l-110 0c-10 0-19-9-19-19l0-110c0-11 9-19 19-19l110 0c11 0 20 8 20 19l0 110c0 10-9 19-20 19z m-196 14l-79 33c-1 0-3 1-5 1-22 3-30-15-31-32l0 0c0-1 0-2 0-3 0-1 0-1 0-2l0-170c0-1 0-2 0-3 0-1 0-2 0-2 0 0 0 0 0 0 1-18 9-35 31-32 2 0 3 0 5 0l79 33c20 9 36 16 36 36l0 20-76-8c0 0-1 0-1 0-7 0-12 4-13 11-1 7 4 13 11 14l79 9 0 14-79 8c-7 1-12 8-11 14 1 7 7 13 14 12l76-9 0 20c0 20-15 27-36 36z m397-1c0 1 0 2 0 3 0 0 0 0 0 0-1 17-9 35-31 32-1 0-3-1-5-1l-78-33c-21-9-37-16-37-36l0-20 76 9c7 1 14-5 15-12 0-6-5-13-12-14l-79-8 0-14 79-9c7-1 12-7 12-14-1-7-7-11-13-11-1 0-1 0-2 0l-76 8 0-20c0-20 16-27 37-36l78-32c2-1 4-1 5-1 22-4 30 14 31 32l0 0c0 1 0 1 0 2 0 1 0 2 0 3l0 170c0 1 0 1 0 2z"/>
<glyph unicode="&#115;" d="M491 378l-29 0c-5 8-14 13-24 13l-13 0c-10 0-19-5-24-13l-39 0 0 37c0 18-15 33-34 33l-148 0c-18 0-33-15-33-33l0-37-39 0c-5 8-14 13-24 13l-14 0c-10 0-19-5-24-13l-28 0c-10 0-18-8-18-18l0-275c0-10 8-18 18-18l473 0c10 0 18 8 18 18l0 275c0 10-8 18-18 18z m-313 37c0 1 1 2 2 2l148 0c2 0 3-1 3-2l0-37-153 0z"/>
<glyph unicode="&#116;" d="M411 252c-53 10-117 12-180 7l194 161c3 2 3 5 2 8-2 2-5 3-7 1l-225-174c-4-1-8-1-12-2-10-1-21-3-32-5-10-2-20-6-28-9-28-14-25-29 5-36l-59-46 0 0c-7 2-16 0-24-6-4-4-8-8-10-12 0 0 0 0 0 0-1-2-25-38-35-42 1-2 40 5 52 8 0 0 0 0 0 0 1 0 1 0 2 0 0 0 0 0 0 0 0 0 0 0 0 0 5 1 9 4 13 7 7 6 12 14 14 21l0 0 76 64c43-12 62-28 45-45-8-8-25-16-48-22-8-2-16-4-26-6-5-2-9-3-13-5-26-13-22-28 10-34 1 0 2 0 3-1 10-1 20-1 31-2 105-4 226 14 298 49 93 44 72 98-46 121z m-213-35c-6 0-11 0-16 0-13 2-23 5-23 10 0 0 0 0 0 0 0 3 4 6 10 8 0 0 0 0 0 0 7 2 17 3 29 4 3 0 6 0 9-1 17 0 30-5 30-10 0-6-17-11-39-11z m78-99c-26-1-48 5-48 13 0 7 21 14 48 14 27 0 49-5 49-13 0-8-22-14-49-14z m25 103c-21-1-39 4-39 10 0 6 17 11 39 12 22 0 39-5 39-11 0-6-17-11-39-11z m90-81c-27 0-49 6-49 13 0 8 22 14 49 15 27 0 48-6 49-13 0-8-22-14-49-15z m33 67c-22 0-39 4-40 10 0 7 18 12 39 12 22 0 39-4 39-10 1-6-17-12-38-12z"/>
<glyph unicode="&#117;" d="M36 110l440 0c16 0 30 14 30 30l0 8c0 16-14 29-30 29l-440 0c-17 0-30-13-30-29l0-8c0-16 13-30 30-30z m0 216l440 0c14 0 25 10 29 22l1 0 0 51-53 0c-8 0-16 7-16 16 0 9 8 16 16 16l51 0c-12 46-118 81-248 81-25 0-50-1-72-4l6-9c6-7 4-17-3-22-3-2-6-3-10-3-4 0-9 2-12 6l-18 23c-26-4-50-11-71-18l7-5c7-5 8-15 3-22-3-4-8-7-13-7-3 0-7 1-10 4l-20 15c-23-14-37-30-37-47l0-75 1 0c3-12 15-22 29-22z m336 126c4 8 14 11 22 7l14-7c8-4 12-14 8-22-3-5-9-8-15-8-2 0-5 0-7 1l-15 8c-8 4-11 13-7 21z m-31-60l15-7c8-4 11-14 7-21-2-6-8-9-14-9-2 0-5 0-7 1l-15 8c-8 4-11 13-7 21 4 8 13 11 21 7z m-79 98l45 15c8 3 17-2 20-10 3-9-2-18-10-21l-45-14c-2-1-3-1-5-1-7 0-13 4-15 11-3 8 2 17 10 20z m-87-54c7 5 18 3 23-4l22-29c5-7 4-18-3-23-3-2-6-3-10-3-5 0-9 2-13 6l-22 30c-5 7-4 17 3 23z m-133-37l38 23c7 4 17 2 22-6 4-7 2-17-6-22l-37-22c-3-2-5-2-8-2-6 0-11 2-14 7-5 8-2 18 5 22z m-6-177l171 0c17 0 30 13 30 30l0 7c0 17-13 30-30 30l-171 0c-17 0-30-13-30-30l0-7c0-17 13-30 30-30z m440 67l-172 0c-16 0-30-13-30-30l0-7c0-17 14-30 30-30l172 0c16 0 30 13 30 30l0 7c0 17-14 30-30 30z m-470-223l0-45 1 0c3-13 15-22 29-22l440 0c14 0 25 9 29 22l1 0 0 45z"/>
<glyph unicode="&#118;" d="M515 339c0 8-7 15-16 15l-66 0c-1 7-8 12-15 12l-366 0c-5 0-9-2-12-4-2-3-4-6-4-9l-20-1c-9 0-16-7-16-15l10-146c0-9 7-16 16-16l25 0c5-13 16-22 31-22 6 0 11 2 16 5 6-8 15-12 25-12 17 0 31 13 32 29l209 0c4-13 16-22 30-22 6 0 12 2 16 5 6-8 15-12 26-12 17 0 30 13 31 29l20 0c9 0 16 7 16 16l2 22 1 10c5 4 9 11 9 19l0 79c0 2 0 4-1 5l1 8z m-418-65c0-8-6-14-13-14l-28 0c-8 0-14 6-14 14l0 27c0 8 6 14 14 14l28 0c7 0 13-6 13-14l0-27z m82 0c0-8-6-14-14-14l-28 0c-7 0-14 6-14 14l0 27c0 8 7 14 14 14l28 0c8 0 14-6 14-14z m72 0c0-8-7-14-14-14l-28 0c-8 0-14 6-14 14l0 27c0 8 6 14 14 14l28 0c7 0 14-6 14-14z m75 0c0-8-6-14-14-14l-28 0c-7 0-13 6-13 14l0 27c0 8 6 14 13 14l28 0c8 0 14-6 14-14z m72 0c0-8-6-14-14-14l-28 0c-8 0-14 6-14 14l0 27c0 8 6 14 14 14l28 0c8 0 14-6 14-14z m98-32c0-3-3-6-7-6l-31 0c-4 0-7 3-7 6l0 79c0 3 3 6 7 6l31 0c4 0 7-3 7-6z"/>
<glyph unicode="&#119;" d="M74 339l361 0c10 0 18 9 18 19l0 37c0 10-8 18-18 18l-361 0c-11 0-19-8-19-18l0-37c0-10 8-19 19-19z m333 86c6 0 11 5 11 11l0 28c0 6-5 11-11 11-6 0-11-5-11-11l0-28c0-6 5-11 11-11z m-51 0c6 0 11 5 11 11l0 28c0 6-5 11-11 11-6 0-11-5-11-11l0-28c0-6 5-11 11-11z m-282-182l361 0c10 0 18 8 18 18l0 37c0 10-8 18-18 18l-361 0c-11 0-19-8-19-18l0-37c0-10 8-18 19-18z m180 182c6 0 11 5 11 11l0 28c0 6-5 11-11 11-6 0-11-5-11-11l0-28c0-6 5-11 11-11z m-153 0c6 0 11 5 11 11l0 28c0 6-5 11-11 11-6 0-11-5-11-11l0-28c0-6 5-11 11-11z m396-204l-486 0c-6 0-11-4-11-11 0-6 5-11 11-11l40 0c-1-1-1-1-1-2l0-14c0-10 10-19 22-19l105 0c23-19 60-58 61-108l-35 0c-6 0-11-5-11-11 0-6 5-11 11-11l111 0c6 0 11 5 11 11 0 6-5 11-11 11l-44 0c1 50 38 89 61 108l105 0c12 0 22 9 22 19l0 14c0 1 0 1-1 2l40 0c6 0 11 5 11 11 0 7-5 11-11 11z m-345 204c6 0 11 5 11 11l0 28c0 6-5 11-11 11-6 0-11-5-11-11l0-28c0-6 5-11 11-11z m153 0c6 0 11 5 11 11l0 28c0 6-5 11-11 11-6 0-11-5-11-11l0-28c0-6 5-11 11-11z m-102 0c6 0 11 5 11 11l0 28c0 6-5 11-11 11-6 0-11-5-11-11l0-28c0-6 5-11 11-11z"/>
<glyph unicode="&#120;" d="M471-1c10 0 18 8 18 18l0 80-97-98z m0 469l-42 0 0 28c0 9-7 16-16 16-8 0-16-7-16-16l0-28-30 0 0 28c0 9-8 16-16 16-9 0-16-7-16-16l0-28-31 0 0 28c0 9-7 16-16 16-9 0-16-7-16-16l0-28-31 0 0 28c0 9-7 16-16 16-8 0-16-7-16-16l0-28-30 0 0 28c0 9-8 16-16 16-9 0-16-7-16-16l0-28-31 0 0 28c0 9-7 16-16 16-9 0-16-7-16-16l0-28-42 0c-10 0-18-8-18-18l0-433c0-10 8-18 18-18l305 0 142 144 0 307c0 10-8 18-18 18z m-199-343c0-9-7-16-16-16-1 0-2 0-3 0-1 0-2 0-3 0l-78 0c-9 0-16 7-16 16 0 9 7 16 16 16l68 0 0 50-68 0c-9 0-16 7-16 16 0 9 7 16 16 16l68 0 0 46-68 0c-9 0-16 7-16 16 0 9 7 16 16 16l78 0c1 0 2 0 3-1 1 1 2 1 3 1 9 0 16-7 16-16z m85 0c0-9-7-16-16-16-9 0-16 7-16 16l0 160c0 9 7 16 16 16 9 0 16-7 16-16z"/>
<glyph unicode="&#121;" d="M258 319c-55 0-99-44-99-99 0-18 6-36 15-51 17-28 48-47 84-47 35 0 66 19 84 47 9 15 14 33 14 51 0 55-44 99-98 99z m235 80l-52 0 0 2c0 9-7 16-16 16l-291 0 0 9c0 12-10 22-22 22l-90 0c-12 0-22-10-22-22l0-340c0-13 10-23 22-23l471 0c12 0 22 10 22 23l0 291c0 12-10 22-22 22z m-122-230c-19-43-63-74-113-74-51 0-95 31-114 74-7 16-11 33-11 51 0 69 56 125 125 125 68 0 124-56 124-125 0-18-4-35-11-51z m12 185c-8 0-14 6-14 14 0 8 6 14 14 14 8 0 15-6 15-14 0-8-7-14-15-14z"/>
<glyph unicode="&#122;" d="M455 346l-63-26 0 27c0 11-9 20-20 20l-10 0c14 15 22 36 22 58 0 48-39 87-87 87-48 0-86-39-86-87 0-22 8-43 22-58l-53 0c7 10 11 23 11 36 0 36-29 65-64 65-36 0-65-29-65-65 0-13 4-26 11-36-11-1-19-9-19-20l0-113c0-11 9-20 20-20l43 0 0-15c0-11 8-19 19-19l24 0-62-161c-2-6 1-13 7-15 1-1 3-1 4-1 5 0 9 3 11 7l64 170 27 0 0-111c0-7 5-12 12-12 6 0 12 5 12 12l0 111 25 0 64-170c2-4 6-7 11-7 1 0 3 0 4 1 6 2 9 9 7 15l-61 161 2 0c11 0 20 8 20 19l0 15 65 0c11 0 20 9 20 20l0 27 63-26c4-2 7 0 7 4l0 103c0 4-3 6-7 4z"/>
<glyph unicode="&#65;" d="M399 468c0 0 0 0 0 0 0 1 0 1 0 2 0 2-1 4-5 6-2 2-5 4-9 4-11 4-26 7-45 9 4 4 6 9 4 14-2 7-10 11-16 8l-30-10c-3-1-6-4-7-8-11 1-22 1-33 1-56 0-105-6-128-14-3 0-7-2-9-4 0 0 0 0 0 0-3-2-5-4-5-6 0-1 0-1 0-2 0-1 0-2 0-3l0-243 283 181 0 62c0 1 0 2 0 3z m-283-390l283 181 0 113-283-181z m0-31c0 0 0 0 0 0 0 0 0-1 0-1 0 0 0 1 0 1 0-2 1-4 2-6 0 0 0 0 0 1 0-1 0-1 0-1 0 0 0 0 1 0 12-22 70-38 139-38 68 0 126 16 138 38 1 0 1 0 1 0 0 0 0 1 0 1 1 1 1 2 1 3 1 0 1 1 1 2 0 1 0 2 0 3l0 178-283-181 0 0z"/>
<glyph unicode="&#66;" d="M498 420l-479 0c-11 0-19-8-19-18l0-94 517 0 0 94c0 10-9 18-19 18z m-498-314c0-11 8-19 19-19l479 0c10 0 19 8 19 19l0 176-517 0z"/>
<glyph unicode="&#67;" d="M300 312c0 0 1-1 1-1 1 0 2 1 2 1l204 0c3 0 6 2 7 5 0 1 0 3 0 4-6 68-62 126-140 150 0 0-1 1-1 1-1 0-1 0-1 0-3 0-5-1-6-3 0 0 0 0 0 0l-1-2c0 0 0 0 0 0l-69-144c-1-1-1-2-1-3 0-1-1-1-1-2 0-3 3-6 6-6z m207-26l-399 0 0 44c0 50-41 90-91 90-9 0-17-8-17-17 0-9 8-17 17-17 31 0 57-25 57-56l0-44-1 0c0-1 0-1 0-2 0-63 43-118 107-148-25-2-45-22-45-48 0-27 22-49 49-49 27 0 48 22 48 49 0 13-5 25-14 34 24-7 49-10 76-10 26 0 51 3 75 10-9-9-14-21-14-34 0-27 22-49 49-49 27 0 49 22 49 49 0 26-21 46-46 48 62 29 104 81 107 141l0 0c0 0 0 0 0 0 0 2 0 3 0 4-1 3-4 5-7 5z"/>
<glyph unicode="&#68;" d="M498 469l-55 0-43-121c-2 0-4 1-6 1l-374 0c-11 0-20-9-20-20l39-163c5-15 9-20 20-20l275 0c2 0 4 0 6 1 0 0 1 0 2 0 1-2 2-4 2-7l0-22c0-6-6-11-12-11l-277 0c-5 0-10-5-10-11 0-5 5-10 10-10l40 0c-4-5-6-11-6-17 0-15 12-28 27-28 16 0 28 13 28 28 0 6-2 12-6 17l123 0c-4-5-6-11-6-17 0-15 12-28 27-28 16 0 28 13 28 28 0 6-2 12-6 17l28 0c18 0 33 14 33 32l0 22c0 9-4 16-9 22l102 287 40 0c6 0 11 4 11 10 0 6-5 10-11 10z"/>
<glyph unicode="&#69;" d="M93 125l0 2c-1-1-2-1-2-2z m375 135l-51 0 0 140c0 15-12 28-27 28-16 0-28-13-28-28l0-191c0-2 0-4 1-6l-14 0c0 2 1 4 1 6l0 233c0 15-13 28-28 28-15 0-28-13-28-28l0-233c0-2 1-4 1-6l-14 0c1 2 1 4 1 6l0 275c0 16-12 28-28 28-15 0-27-12-27-28l0-275c0-2 0-4 0-6l-13 0c0 2 0 4 0 6l0 233c0 15-12 28-27 28-15 0-28-13-28-28l0-233c0-2 0-4 1-6l-15 0c1 2 1 4 1 6l0 191c0 15-12 28-28 28-15 0-27-13-27-28l0-140-51 0c-6 0-11-4-11-10 0-6 5-11 11-11l22 0 0-81c0-1 0-1 0-2l0-142c0-7 5-13 12-13 7 0 13 6 13 13l0 43 334 0 0-43c0-7 6-13 12-13 7 0 13 6 13 13l0 142c0 1 0 1 0 2l0 81 22 0c6 0 11 5 11 11 0 6-5 10-11 10z m-350-86l0 1 2 0c1 0 2 0 3 0l263 0c1 0 2 0 3 0l1 0 0 0c5-2 9-7 9-12 0-6-4-11-9-12l0 0-1 0c-1-1-2-1-3-1l-263 0c-2 0-3 0-4 1l-1 0 0 0c-5 2-8 6-8 12 0 5 3 10 8 11z m303-66c-1-1-1-1-2-2-2-2-5-3-8-3l-313 0c-4 0-6 1-9 3-1 1-1 2-2 3-1 2-2 4-2 6 0 3 1 5 2 7 1 1 2 2 4 3 0 1 1 1 2 2 2 0 3 1 5 1l9 0c0-1 0-1 0-1 0 0 0 0 1 1l292 0c0-1 1-1 1-1 0 0 0 0 0 0 0 0 0 0 0 1l10 0c3 0 5-1 7-3 1 0 2-1 3-2 1-2 2-5 2-8 0-3-1-5-2-7z"/>
<glyph unicode="&#70;" d="M325 329l0 62c0 9-7 16-16 16l-293 0c-9 0-16-7-16-16l0-181c0-9 7-17 16-17l35 0 10-16 16-29 17 29 9 16 134 0 0 107c0 16 13 29 29 29z m176-16l-235 0c-7 0-13-6-13-13l0-146c0-7 6-13 13-13l166 0 7-13 13-23 14 23 7 13 28 0c7 0 13 6 13 13l0 146c0 7-6 13-13 13z"/>
<glyph unicode="&#71;" d="M500 321l-75-75c-3-3-7-4-10-4-4 0-8 1-11 4-6 6-6 16 0 21l61 61-70 0-82-82c-3-3-6-4-10-4-4 0-8 1-11 4-6 6-6 16 0 21l61 61-69 0-82-82c-3-3-7-4-11-4-4 0-8 1-11 4-5 6-5 16 0 21l61 61-69 0-82-82c-3-3-7-4-11-4-4 0-7 1-10 4-6 6-6 16 0 21l61 61-69 0 39 10 57 95-67-17-56-93c3 0 5 0 8 0l18 5 0 0 0 0 0 0-54-54 0-253c0-11 8-20 19-20l460 0c11 0 20 9 20 20l0 287c0 5-2 10-5 13z m-485 28l34 57-26-7c-11-2-17-13-15-24z m194 16l57 95-68-16-57-96z m108 27l57 96-67-17-57-96z m108 28l55 91c-4 1-8 1-12 0l-53-13-57-95z m63 15c10 3 17 14 14 24l-5 21-31-50z"/>
<glyph unicode="&#72;" d="M323 306l-13 0c-2 9-20 17-43 18l0 87c7 2 11 6 11 11 0 5-4 9-11 11l0 69c0 6-4 10-9 10-6 0-10-4-10-10l0-69c-7-2-11-6-11-11 0-5 4-9 11-11l0-87c-23-1-41-9-43-18l-13 0c-9 0-15-7-15-16l5-77c0-8 7-15 15-15l21 0c2-4 6-8 11-11l-12-175c0-8 6-14 14-14l53 0c8 0 14 6 14 14l-12 175c5 3 9 7 11 11l21 0c9 0 15 7 15 15l5 77c0 9-6 16-15 16z"/>
<glyph unicode="&#73;" d="M415 456c0 2-1 5-2 7 3 3 5 7 5 12 0 8-6 14-14 14l-11 0c2 3 3 5 3 8 0 8-7 15-15 15l-251 0c-8 0-15-7-15-15 0-3 1-5 3-8l-11 0c-8 0-14-6-14-14 0-5 2-9 5-12-1-2-2-5-2-7 0-2 0-3 1-5-3-3-4-6-4-10 0-8 6-15 14-15l0 0 49-392 0 0c0 0 0 0 0 0 0 0 0-1 0-1 0 0 0 0 0 0 0-1 0-1 0-1 1-5 5-9 10-11 0 0 0 0 0 0 16-9 50-16 90-16 39 0 73 7 89 16 0 0 0 0 0 0 5 2 9 6 10 11 0 0 0 0 0 1 0 0 0 0 0 0 0 0 0 1 0 1 0 0 0 0 0 0 0 0 0 0 0 0l0 0 49 392 0 0c8 0 14 7 14 15 0 4-1 7-4 10 1 2 1 3 1 5z m-159-285c-48 0-87 39-87 87 0 48 39 87 87 87 47 0 86-39 86-87 0-48-39-87-86-87z"/>
<glyph unicode="&#74;" d="M502 354c-7 0-13-5-13-13l0-74-18 0 0 74c0 8-6 13-13 13-8 0-14-5-14-13l0-74-18 0 0 74c0 8-6 13-13 13-7 0-13-5-13-13l0-74-18 0 0 74c0 8-6 13-13 13-8 0-13-5-13-13l0-74-19 0 0 74c0 8-5 13-13 13-7 0-13-5-13-13l0-74-18 0 0 74c0 8-6 13-13 13-7 0-13-5-13-13l0-74-18 0 0 74c0 8-6 13-14 13-7 0-13-5-13-13l0-74-18 0 0 74c0 8-6 13-13 13-7 0-13-5-13-13l0-74-18 0 0 74c0 8-6 13-13 13-8 0-14-5-14-13l0-74-18 0 0 74c0 8-6 13-13 13-7 0-13-5-13-13l0-74-18 0 0 74c0 8-6 13-13 13-8 0-14-5-14-13l0-74-18 0 0 74c0 8-6 13-13 13-7 0-13-5-13-13l0-163c0-3 1-6 2-8 2-5 7-8 13-8l486 0c5 0 10 3 12 8 1 2 2 5 2 8l0 163c0 8-6 13-13 13z"/>
<glyph unicode="&#75;" d="M495 300l-4 0c0 0 0 0-1 0l-55 51 0 75c0 0 0 1 0 1 0 0 0 0 0 0 0 1 0 1 0 2l-3 13c0 5-7 7-13 6 0 0-67-12-125-22l0 17c0 8-7 15-15 15l-52 0-34 46 0 0c-2 3-6 4-9 3 0 0-1 0-1-1 0 0 0 0 0 0-1 0-2-1-2-2l-34-46-52 0c-8 0-15-7-15-15l0-62c-38-8-70-15-70-15-6-2-11-6-10-11l3-13c1-5 7-7 13-6 0 0 28 5 64 12l0-28c0-9 7-16 15-16l31 0 0-2c0 1 0 2 0 2l0 0c0 0 0-1 0-2l0-274c0-11 9-20 20-20l82 0c11 0 20 9 20 20l0 276 31 0c8 0 15 7 15 16l0 69c47 11 103 23 123 28l0-66-55-51c0 0-1 0-1 0l-4 0c-8 0-15-7-15-16l0-138c0-8 7-15 15-15l138 0c9 0 16 7 16 15l0 138c0 9-7 16-16 16z m-308 188l22-30-44 0z m0-313l-42 36 42 36 42-36z m0-20l42-36-42-36-42 36z m-44 149l88 0-44-38z m-2-18l34-29-34-30z m0-92l34-29-34-29z m0-91l34-30-34-29z m87-80l-82 0c-2 0-3 1-4 2l45 39 45-39c-1-2-2-2-4-2z m5 21l-34 29 34 30z m0 92l-34 29 34 29z m0 91l-34 30 34 29z m13-103c0 0 0 0 0 0 0 0 0 0 0 0 0 0 0 0 0 0z m0 91c0 1 0 1 0 1 0 0 0 0 0-1 0 0 0 0 0 0z m10 167c0 0 0-1 0-1-1-3-3-4-5-4l-81 0c-3 0-5 2-5 5l0 36c0 3 2 5 5 5l81 0c2 0 4-2 5-4 0-1 0-1 0-1z m161-82l-28 0 28 25z m18 0l0 25 28-25z"/>
<glyph unicode="&#76;" d="M72 390c-5 0-9-4-9-9l0-56c0-7-6-14-13-15l0 68c0 5-4 9-9 9-5 0-10-4-10-9l0-68c-7 1-12 8-12 15l0 56c0 5-5 9-10 9-5 0-9-4-9-9l0-56c0-18 14-32 31-33l0-151c0-5 5-9 10-9 5 0 9 4 9 9l0 151c18 1 31 15 31 33l0 56c0 5-4 9-9 9z m398 0c-16 0-15-32-15-72 0-26 0-49 4-62l0-115c0-5 4-9 9-9 5 0 10 4 10 9l0 107c14 7 31 36 31 70 0 40-23 72-39 72z m-206 29c-89 0-161-72-161-161 0-89 72-161 161-161 89 0 162 72 162 161 0 89-73 161-162 161z"/>
<glyph unicode="&#77;" d="M258 512c-143 0-258-115-258-257 0-143 115-258 258-258 142 0 257 116 257 258 0 142-115 257-257 257z m163-299l0 0c0-10-9-19-19-19l-289 0c-10 0-19 9-19 19l0 83c0 11 9 19 19 19l289 0c10 0 19-8 19-19z"/>
<glyph unicode="&#78;" d="M504 377c0 0-82 1-112 9-30 8-102 46-102 46-9 2-17-3-19-11l-14-53 24-135c1-3 1-7 2-10 0-5 0-10 0-14 29 2 58-3 84-13 0 0 1 0 1 0 14-5 28-12 40-20 6-4 9-10 10-15 2-7 1-14-3-18-8-8-20-8-30-1-6 4-13 8-20 12 0 0 0 0 0 0-26 12-57 17-89 12-5-16-14-30-24-43 16-18 38-32 63-38 64-17 130 20 151 82 1 3 2 6 2 9l47 182c2 9-3 17-11 19z m-150-78c-4-17-21-27-38-23-17 4-27 21-23 38 5 17 22 27 38 23 17-4 27-21 23-38z m90-23c-4-17-21-27-38-23-17 4-27 21-23 38 5 17 22 27 39 23 16-4 27-21 22-38z m-184-100c2 9 4 18 4 28 0 0 0 0 0 1 1 5 1 11 0 16 0 3-1 6-1 9l-17 94-16 91c-1 3-4 6-7 6-10-5-76-33-106-39-10-1-27-2-49-2-14 0-28 0-40 0-11 1-20 1-24 1-1 0-2-1-3-2-1-1-1-3-1-5l33-185c1-3 1-6 2-9 13-51 60-87 113-87 7 0 14 0 20 2 30 5 55 21 72 44 7 8 12 16 15 26 2 3 3 7 5 11z m-88 162c17 3 34-8 37-25 3-17-9-34-26-37-17-3-33 8-36 26-3 17 8 33 25 36z m-117-53c-3 17 9 34 26 37 17 3 33-9 36-26 3-17-8-33-25-36-17-3-34 8-37 25z m168-105c0 0 0 0-1 0-40-25-88-33-134-24-14 2-23 15-19 25 4 10 16 15 27 13 36-7 74 0 106 19 6 4 13 5 19 3 4 0 8-3 11-6 6-8 3-22-9-30z"/>
<glyph unicode="&#79;" d="M502 361l-68 0 0 5 68 0c5 0 9 4 9 9 0 5-4 9-9 9l-68 0 0 28c0 5-4 9-9 9-5 0-9-4-9-9l0-28-68 0c-5 0-9-4-9-9 0-5 4-9 9-9l68 0 0-5-68 0c-5 0-9-4-9-9 0-5 4-10 9-10l68 0 0-178c-1 0-1 0-2-1l-26-26-10 9c19 22 31 50 31 80 0 67-55 121-121 121-46 0-85-25-106-61l0 5c0 11-8 19-19 19l-144 0c-11 0-19-8-19-19l0-18c0-10 8-19 19-19l63 0 0-90c-1 0-2-1-2-1l-46-46c-4-4-4-9 0-13 1-2 4-2 6-2 2 0 5 0 6 2l36 35 0-38c0-5 4-9 9-9 5 0 9 4 9 9l0 38 35-35c2-2 4-2 7-2 2 0 4 0 6 2 4 4 4 9 0 13l-46 46c-1 0-1 1-2 1l0 90 63 0c3 0 5 1 7 2-2-10-4-20-4-30 0-30 12-58 31-80l-30-29c-3-4-3-9 0-13 2-2 4-2 6-2 3 0 5 0 7 2l30 30c21-18 48-28 77-28 30 0 57 10 78 28l10-10-7-7c-4-3-4-9 0-13 2-1 4-2 6-2 3 0 5 1 7 2l7 7 7-7c2-2 4-2 7-2 2 0 4 0 6 2 3 4 3 9 0 13l-7 7 15 16 0-29c0-5 4-9 9-9 5 0 9 4 9 9l0 29 36-36c1-1 4-2 6-2 2 0 5 1 6 2 4 4 4 10 0 13l-46 46c0 1-1 1-2 1l0 178 68 0c5 0 9 5 9 10 0 5-4 9-9 9z"/>
<glyph unicode="&#80;" d="M127 149l-45 0c-7 0-12-6-12-12l0-125c0-7 5-12 12-12l47 0c-1 2-2 4-2 6z m247 0l-35 0-10 337c4 3 7 7 7 12 0 8-6 14-14 14l-105 0c-4 0-8-2-10-4-3-2-4-6-4-10 0-2 1-5 2-7l-15-342 19 0 14 336 87 0 10-336-174 0 0-143c0-2-1-4-2-6l232 0c-2 2-2 4-2 6z m59 0l-41 0 0-143c0-2 0-4-2-6l43 0c7 0 12 6 12 12l0 125c0 6-5 12-12 12z"/>
<glyph unicode="&#81;" d="M267 165c62-2 126-4 157 8 15 6 22 14 22 24 0 19-29 37-55 50 0 0 0 0 0 0 0 0 0 0 0 0 3 15-3 28-13 30-3 0-6 0-9-2-2 2-4 3-7 4-3 0-6-1-9-2-2 3-5 4-9 5-3 0-6-1-9-2-2 3-6 5-9 5-3 1-5 0-7 0-2 1-4 2-6 2-4 0-7-1-11-3 0 0 0 0 0 0-24 14-61 28-98 41l0 0c2 5 0 9-4 11l-56 23c-1 1-3 1-4 1 0 0 0 0 0 0-1 2-2 5-3 8 0 0 0 0 0 1 0 0 0 0 0 0 0 0 0 1 1 1 4 6 0 15-8 21-9 5-19 5-23-1 0 0 0 0 0-1-6 1-13 0-19-3-19-8-27-30-19-49 9-18 31-27 49-18 6 2 11 6 15 11 52-15 123-39 159-59l0 0c-2-2-3-5-3-8 0-1-1-2-1-3-40-4-110 1-166 6-1 2-4 4-6 4l-48 8c-1 5-2 11-5 16-8 19-27 29-41 22-10-4-16-15-15-28-6-3-8-11-6-20 2-9 9-16 16-14 2 0 3 1 4 2 10-9 21-12 31-8 3 2 6 4 8 6l52-8c3-1 6 1 8 3 39-3 89-7 130-7 15 0 28 0 40 2 2-6 6-10 12-11 2 0 4 0 6 1 2-1 4-2 6-2 3-1 7 0 10 2 2-4 5-6 9-6 3-1 6 0 9 2 2-3 5-5 9-5 2 0 5 0 8 1 2-1 5-3 7-3 6-1 13 3 18 9 0 0 0 0 0 0 28-14 46-28 46-35 0-2-3-5-12-9-28-11-93-9-150-7-74 3-116 3-130-10-3-3-4-7-4-12 1-33 81-39 261-40 15 0 30 0 44 0l2 16c-14 0-30 1-46 1-55 0-118 0-166 5-70 5-78 16-78 19 8 8 73 6 116 5z m-147 173c-1-1-2-3-3-4-6-6-17-8-27-3-10 6-15 18-10 28 5 10 18 13 29 7 7-3 11-9 12-16 1-4 1-8-1-12z m382-205c-13 1-31 2-52 2l-3-16c22-1 40-1 53-3 0 0 0 0 1 0 4 0 8 4 8 8 0 4-3 8-7 9z"/>
<glyph unicode="&#82;" d="M401 485c0 0-89 22-162-138-55 84-115 74-115 74 0 0-112-4-124-238 0 0 22-174 165-162 64 7 97 47 113 88 14-9 31-16 51-20 142-23 177 149 177 149 7 233-105 247-105 247z"/>
<glyph unicode="&#83;" d="M67 335l0-314c0-11 8-19 18-19l162 0 0 352-162 0c-10 0-18-9-18-19z m363 19l-161 0 0-352 161 0c11 0 19 8 19 19l0 314c0 10-8 19-19 19z m-295 95c3-5 8-14 11-19l8-15c3-5 9-5 12 0l8 15c3 5 8 14 11 19l8 15c4 5 1 10-5 10l-11 0 0 36c0 1-1 2-2 2l-30 0c-1 0-2-1-2-2l0-36-11 0c-6 0-9-5-6-10z m193 0l10 0 0-36c0-1 2-2 3-2l30 0c1 0 2 1 2 2l0 36 11 0c6 0 9 5 5 10l-8 15c-3 5-8 14-11 19l-8 15c-4 5-9 5-12 0l-8-15c-3-5-8-14-11-19l-9-15c-3-5 0-10 6-10z"/>
<glyph unicode="&#84;" d="M507 171l0 191-127-106z m-507 191l0-191 127 85z m301-172c-13-11-30-16-47-16-18 0-35 5-47 16l-57 47-150-101 0-36c0-8 7-14 15-14l478 0c8 0 14 6 14 14l0 36-150 101z m192 240l-478 0c-8 0-15-6-15-14l0-16 226-188c7-6 17-9 28-9 10 0 20 3 28 9l225 188 0 16c0 8-6 14-14 14z"/>
<glyph unicode="&#85;" d="M467 282l0 12 25 1 0 2c0 6-6 11-13 11l-30-1c-3 19-8 36-16 53l22-1c5 0 10 5 10 10l1 13-19 1 1 12 25-1 0 3c1 6-5 11-13 11l-35 0c-7 1-14-4-14-10l0-2 26-1-1-12-17 0c-12 20-29 37-47 50l3 0c6 0 10 5 10 10l1 13-18 1 0 12 26-1 0 3c0 6-6 11-14 11l-34 1c-8 0-14-5-14-10l0-3 25-1 0-12-18 0 0-4c-19 8-39 14-60 16l0 0c0 2 1 3 1 5l0 8 0 5 0 0 0 0-18 0 0 12 25 0 0 0 0 0 0 1 0 2c0 0 0 1 0 2-1 4-7 8-13 8l-18 0-17 0c-7 0-12-4-13-8-1-1-1-2-1-2l0-2 0-1 0 0 0 0 26 0 0-12-18 0 0 0 0 0 0-5 0-8c0-2 0-3 1-5l0 0c-21-2-42-8-60-17l0 5-18 0-1 12 26 1 0 3c0 5-6 10-14 10l-35-1c-7 0-13-5-13-11l0-3 26 1 0-12-18-1 0-13c0-5 5-10 11-10l5 0c-19-14-36-31-49-50l0 0-18 0 0 12 25 1 0 2c0 6-6 11-13 10l-35 0c-8 0-14-5-14-11l0-3 26 1 0-12-18-1 0-13c0-5 5-10 11-10l23 1c-7-17-13-34-16-53l-31 1c-7 0-14-5-14-11l0-2 26-1 0-12-18 0 0-13c0-6 4-10 10-10l25 0 0 0c3-24 9-47 19-68l-23 0c-8 0-14-5-14-10l0-3 26 0 0-12-18 0 0-14c0-5 4-10 10-10l27 0c5 0 10 5 10 11l0 9c11-15 24-28 38-39l-4-6-6 0c-8 1-14-4-14-10l0-2 12-1-53-77-32 0c-4 0-8-3-8-8l0-15 40 0c2-1 3-1 4-1 1 0 2 0 3 1l40 0 0 15c0 5-3 8-7 8l-14 0 29 42c1 0 2 0 3 0l26-1c6 0 11 4 11 10l0 13-18 1 0 10 2 2 17-1c0 0 0 0 0 0 23-11 49-19 76-20l0-5-11 0 0 0-2 0 0-13c0-6 5-11 10-11l3 0 0-16-24 0c-5 0-8-3-8-8l0-15 87 0 0 15c0 5-4 8-8 8l-25 0 0 16 3 0c6 0 10 5 10 11l1 13-2 0 0 0-12 0 0 5c0 0 0 0 0 0 28 1 54 8 78 20l0 0 15 1 3-3 0-9-19-1 1-13c0-6 5-10 10-10l27 1c1 0 1 0 2 0l29-42-14 0c-4 0-8-3-8-8l0-15 41 0c1-1 2-1 3-1 1 0 2 0 3 1l40 0 0 15c0 5-3 8-8 8l-31 0-53 77 13 1 0 2c0 6-7 11-14 10l-8 0-3 5c15 11 28 24 39 38l0-7c0-6 4-11 10-11l26 0c6 0 11 5 11 10l0 14-18 0 0 12 26 0-1 3c1 5-6 10-13 10l-22 0c10 21 17 44 19 68l0 0 23 0c6 0 11 5 11 10l0 13z m-404 0l-6 0 0 12 6 0c0-4 0-8 0-12z m102 141c0 0 0 0 0 0l20-34c-17-10-31-24-42-41 0 0 0 0 0 0l-33 19c14 22 33 42 55 56z m-18-203c-8 15-13 33-14 51 0 0 0 0 0 0l103 0z m81 34l-50-72c-10 8-18 17-26 28l0 0z m-95 28c1 18 6 36 14 51l89-51z m19 61c10 15 23 27 38 37l51-89z m-47 15l33-19c-9-18-15-37-16-57l-38 0c1 27 8 53 21 76z m-23-192l0 12 8 0c2-4 5-8 7-12l0 0z m2 105l38 0c0 0 0 0 0 0 1-20 7-40 16-57l-33-19c0 0 0 0 0 0-13 23-20 49-21 76z m66-130c-15 12-29 28-40 45l33 19c0 0 0 0 0 0 8-12 18-23 29-33z m95-37c-25 2-49 9-70 21l19 33c16-8 33-13 51-15z m0 50c-16 2-32 6-45 13l24 43 21 31z m6 143l-52 88c16 9 33 13 52 14z m0 113c-21-1-40-6-57-15l-19 33c23 12 48 20 76 21z m179-128l-40 0c-1 20-6 39-15 57l34 19c12-23 20-49 21-76z m-146-28l76-44c-7-11-16-21-26-29z m29-87c0 0 0 0 0 0-14-7-29-11-46-13 0 0 0 0 0 0l0 86 25-36z m-36 104l102 0c0 0 0 0 0 0 0-18-5-36-13-51z m-6 20l51 89c16-10 28-22 38-37z m6-9l89 51c0 0 0 0 0 0 8-15 13-33 13-51z m71 141l0 0c3-2 6-4 9-6 0 0 0 0 0 0 0 0 0 0 0 0 1-1 1-1 2-2 0 0 0 0 0 0 18-13 33-29 45-47l-35-20c0 0 0 0 0 0-10 17-24 31-41 41 0 0 0 0 0 0z m-86 26l0 0c27-1 53-8 76-20l-19-34c-18 9-37 14-57 15l0 0 0 39z m0-152l0 102c0 0 0 0 0 0 18-1 36-5 51-14z m76-173c-21-11-45-18-71-20 0 0 0 0 0 0l0 39c0 0 0 0 0 0 19 2 36 7 51 15 0 0 0 0 1 0z m66 61c-11-17-25-33-42-45l-22 32c12 9 22 20 29 33l1 0 34-20 0 0z m5 10l-34 19 0 0c9 17 14 37 15 57 0 0 0 0 0 0l40 0c-1-28-8-53-21-76z m22-29l-14 0 0 0c3 4 5 8 7 12 1 0 1 0 1 0l6 0z m20 116c0 4 0 8 0 12l5 0 0-12 0 0z"/>
<glyph unicode="&#86;" d="M427 512l-336 0c-9 0-16-7-16-16l0-477c0-8 7-16 16-16l336 0c8 0 16 8 16 16l0 477c0 9-8 16-16 16z m-291-478c0-4-3-7-7-7l-18 0c-4 0-8 3-8 7l0 18c0 4 4 7 8 7l18 0c4 0 7-3 7-7z m0 53c0-4-3-7-7-7l-18 0c-4 0-8 3-8 7l0 19c0 3 4 7 8 7l18 0c4 0 7-4 7-7z m0 54c0-4-3-7-7-7l-18 0c-4 0-8 3-8 7l0 18c0 4 4 7 8 7l18 0c4 0 7-3 7-7z m0 53c0-4-3-7-7-7l-18 0c-4 0-8 3-8 7l0 18c0 4 4 8 8 8l18 0c4 0 7-4 7-8z m0 54c0-4-3-7-7-7l-18 0c-4 0-8 3-8 7l0 18c0 4 4 7 8 7l18 0c4 0 7-3 7-7z m0 53c0-4-3-7-7-7l-18 0c-4 0-8 3-8 7l0 18c0 4 4 8 8 8l18 0c4 0 7-4 7-8z m0 54c0-4-3-7-7-7l-18 0c-4 0-8 3-8 7l0 18c0 4 4 7 8 7l18 0c4 0 7-3 7-7z m0 53c0-4-3-7-7-7l-18 0c-4 0-8 3-8 7l0 18c0 4 4 8 8 8l18 0c4 0 7-4 7-8z m0 54c0-4-3-7-7-7l-18 0c-4 0-8 3-8 7l0 18c0 4 4 7 8 7l18 0c4 0 7-3 7-7z m221-408c0-8-9-16-20-16l-157 0c-11 0-20 8-20 16l0 59c0 9 9 16 20 16l157 0c11 0 20-7 20-16z m0 118c0-9-9-16-20-16l-157 0c-11 0-20 7-20 16l0 58c0 9 9 16 20 16l157 0c11 0 20-7 20-16z m0 117c0-9-9-16-20-16l-157 0c-11 0-20 7-20 16l0 59c0 9 9 16 20 16l157 0c11 0 20-7 20-16z m0 118c0-9-9-16-20-16l-157 0c-11 0-20 7-20 16l0 58c0 9 9 16 20 16l157 0c11 0 20-7 20-16z m57-373c0-4-3-7-7-7l-18 0c-4 0-8 3-8 7l0 18c0 4 4 7 8 7l18 0c4 0 7-3 7-7z m0 53c0-4-3-7-7-7l-18 0c-4 0-8 3-8 7l0 19c0 3 4 7 8 7l18 0c4 0 7-4 7-7z m0 54c0-4-3-7-7-7l-18 0c-4 0-8 3-8 7l0 18c0 4 4 7 8 7l18 0c4 0 7-3 7-7z m0 53c0-4-3-7-7-7l-18 0c-4 0-8 3-8 7l0 18c0 4 4 8 8 8l18 0c4 0 7-4 7-8z m0 54c0-4-3-7-7-7l-18 0c-4 0-8 3-8 7l0 18c0 4 4 7 8 7l18 0c4 0 7-3 7-7z m0 53c0-4-3-7-7-7l-18 0c-4 0-8 3-8 7l0 18c0 4 4 8 8 8l18 0c4 0 7-4 7-8z m0 54c0-4-3-7-7-7l-18 0c-4 0-8 3-8 7l0 18c0 4 4 7 8 7l18 0c4 0 7-3 7-7z m0 53c0-4-3-7-7-7l-18 0c-4 0-8 3-8 7l0 18c0 4 4 8 8 8l18 0c4 0 7-4 7-8z m0 54c0-4-3-7-7-7l-18 0c-4 0-8 3-8 7l0 18c0 4 4 7 8 7l18 0c4 0 7-3 7-7z"/>
<glyph unicode="&#87;" d="M232 167l-20-47-7-16c-2-5 0-11 6-13 1-1 2-1 3-1 4 0 8 2 10 6l19 45-6 13z m269 163c-53-12-94 66-143 87-2 1-3 1-5 1-1 1-2 2-4 3-5 2-11 0-13-6l-81-192-80 192c-2 6-8 8-13 6-2-1-3-2-4-3-2 0-4 0-6-1-48-21-90-99-143-87-8 2-11-4-7-14 13-38 27-74 40-107 4-9 13-15 20-12 42 18 78 78 121 88 7 1 14 1 22 0 1 0 1 0 2-1 0 0 1 0 1 0l36-87 0-1 5-13 6-13 0 1 32-75c1-4 5-6 9-6 1 0 3 0 4 1 5 2 8 8 5 13l-39 93 0 0 37 87c1 0 1 0 2 1 54 12 95-67 144-88 7-3 16 3 20 12 13 33 26 69 40 107 4 10 0 16-8 14z"/>
<glyph unicode="&#88;" d="M21 21c25-25 88-27 158-10l-168 168c-17-70-15-133 10-158z m101 364c-48-48-82-113-102-176l189-189c63 20 128 54 176 102 48 48 83 113 103 176l-189 189c-63-20-129-54-177-102z m250-81c5-6 5-14 0-19-3-3-7-4-10-4-3 0-7 1-9 4l-24 23-18-18 23-24c6-5 6-13 0-19-2-2-6-4-9-4-4 0-7 2-10 4l-23 24-18-19 23-23c5-5 5-14 0-19-3-2-6-4-9-4-4 0-7 2-10 4l-23 23-18-18 23-23c5-5 5-14 0-19-3-3-6-4-10-4-3 0-7 1-9 4l-23 23-13-13c-2-2-5-3-7-4l25-24c5-6 5-14 0-19-3-3-7-4-10-4-3 0-7 1-9 4l-68 67c-5 6-5 14 0 19 5 6 14 6 19 0l27-27c0 3 2 5 4 7l13 13-26 26c-5 5-5 13 0 19 5 5 14 5 19 0l26-26 18 18-26 26c-5 5-5 14 0 19 6 5 14 5 19 0l26-26 18 19-25 25c-6 5-6 14 0 19 5 5 13 5 19 0l25-25 18 18-25 25c-5 6-5 14 0 19 5 6 14 6 19 0z m114 182c-25 25-87 27-158 10l168-168c17 70 15 133-10 158z"/>
<glyph unicode="&#89;" d="M222 94l-105-9 4-36c0-3 1-6 1-9 7-24 30-41 56-38 26 2 45 23 47 48 1 3 1 6 0 9z m-99 14l87 8c2 1 9 1 4 14-5 13-13 57-7 93l0 0c7 24 9 59 5 108-5 46-29 114-68 110-39-4-73-84-71-131 3-26 11-61 22-91 0 0 23-71 19-92-4-21 9-19 9-19z m177 19c0-3 0-6 1-9 2-25 23-45 49-46 26-2 48 16 54 40 1 3 1 6 1 9l2 36-105 5z m143 256c1 48-37 127-76 129-39 2-61-67-63-112-3-50 1-84 9-108l0 0c7-36 1-80-4-93-5-13 2-14 5-15l87-5c0 0 13 0 8 20-4 22 15 93 15 93 11 30 17 66 19 91z"/>
<glyph unicode="&#90;" d="M428 485l-36-93c-3-6-8-11-14-12l-129-339c0-2-1-3-3-4-13-19-62-33-95-33-19 0-41 10-54 24-13 14-16 33-16 45 0 22 61 18 99 12 22-4 41-8 54-16l122 320c-3 5-4 11-2 17l36 93c4 11 16 16 27 12 10-4 15-16 11-26z"/>
<glyph unicode="&#48;" d="M293 365l-74 0c-7 0-13-5-13-12 0-5 4-9 8-11 0-7 5-12 12-12l5 0 13-227 0-95c0-7 5-12 12-12 6 0 12 5 12 12l0 94 13 228 5-1c6 0 11 6 11 12l0 1c5 2 8 6 8 11 0 7-5 12-12 12z m30 80c0-37-30-67-67-67-37 0-67 30-67 67 0 37 30 67 67 67 37 0 67-30 67-67z"/>
<glyph unicode="&#49;" d="M264 197c-6 0-12 2-16 5l-146 77 0-119c0-9 6-15 15-15 0 0 77 12 145 12 67 0 137-12 137-12 8 0 15 6 15 15l0 113-134-71c-4-3-10-5-16-5z m-186-56c-1 2-4 4-6 4l0 171 185-98 0 0c4-3 11-3 14-1l0 1 243 129-253 88-1 0c-3 2-10 2-13 0l-1 0-1-1-245-80 54-28 0-181c-3 0-5-2-7-4l-26-47c-3-4-1-10 3-12 2-1 3-2 5-2 3 0 6 2 8 5l17 30 0-29c0-5 4-9 9-9 5 0 9 4 9 9l0 29 17-30c1-3 4-5 8-5 1 0 3 1 4 2 5 2 6 8 4 12z"/>
<glyph unicode="&#50;" d="M411 438c-22 10-44 8-50-4-6-12 8-30 30-40 22-10 66-19 72-7 6 12-30 40-52 51z m-122-166c-8-3-17-4-26-4-11 0-22 2-32 7-1 0-1 0-2 0-12-10-19-26-20-42 0-1 0-2 0-3 0-9 2-18 5-25 2-4 3-7 6-10 3-4 6-8 10-12 6-5 13-9 20-11 6-2 11-3 16-3 2 0 3 0 4 0 3 0 5 0 8 0 24 3 44 21 51 44-22 12-37 33-40 59z m-87 78c0-1 0-2 0-3 0-3 0-7 1-10l0 0c2-13 9-25 18-34 2-2 4-4 7-6 1 0 2-1 4-2 1-1 3-2 5-3 4-2 9-3 13-4 5-1 9-2 13-2 7 0 14 1 20 3 2 1 4 2 6 3 0 2 1 3 1 5 0 3 1 6 2 9 6 18 17 33 33 43-1 17-9 33-21 44 2 2 3 4 5 7 2 2 4 4 6 7 24 28 69 76 109 80 7 1 12 7 12 14-1 7-7 12-14 11-47-5-94-51-126-89-2-3-4-5-6-8-1-1-2-2-2-2l-4-5c-1-1-1-2-2-3-6 2-12 3-19 3-14 0-28-5-39-14-12-10-21-26-22-44z m-67-251c-7-2-15-3-22-3-15 0-29 4-40 10-13-11-22-27-22-46 0-34 28-61 62-61 32 0 58 25 61 56-18 9-32 25-39 44z m-63 30c3-2 6-4 9-6 4-2 8-4 12-5 6-2 13-4 20-4 6 0 12 1 18 3 0 1 0 1 0 1 0 2 0 5 0 7 0 1 0 2 0 3 0 3 0 7 1 10 4 24 18 44 39 56-2 6-5 11-8 16-3-1-7-1-11-1-23 0-43 9-58 25-25-8-43-31-43-59 0-18 8-34 21-46z m112 207c-11-6-25-10-39-10-12 0-24 3-34 8-13-11-20-27-20-46 0-12 3-24 10-34 2-3 5-6 7-8 4-4 8-7 13-10 7-4 14-7 23-8 2 0 5-1 8-1 2 0 5 1 7 1 4 0 8 1 11 2 8 3 15 6 21 11 2 17 10 33 22 44-15 13-26 31-29 51z m-74 20c3-2 6-4 9-5 4-2 9-4 14-5 4-1 8-1 12-1 7 0 14 1 20 3 4 2 8 4 12 6 3 1 5 3 7 5 0 1 0 1 1 2 2 16 10 31 22 42 0 1 0 2 0 3 0 34-28 61-62 61-34 0-61-27-61-61 0-21 10-39 26-50z m103-70c0 0 0 0 0-1 0 0 0 0 0 0z m155 57c-9 0-17-2-25-6-4-1-8-3-11-6-11-8-19-19-22-32-1-2-2-4-2-6 0-1 0-3 0-4-1-2-1-5-1-7 0-1 0-1 0-1 0-1 0-2 0-3 1-18 10-34 24-45 3-2 6-4 10-5 2-2 6-3 9-4 6-2 12-3 18-3 34 0 62 27 62 61 0 34-28 61-62 61z m-165-157c-4-1-7-2-11-3-3-1-6-2-9-3-3-2-6-4-9-6-14-10-23-26-24-43 0-1 0-3 0-4 0-1 0-1 0-2 0-1 0-3 0-5 0-1 0-3 0-4 1-3 2-6 3-9 0-1 0-1 0-1 3-10 9-20 18-27 3-3 7-6 12-8 3-1 6-3 10-4 5-2 12-3 18-3 34 0 61 28 61 61 0 9-2 18-5 25-27 1-50 15-64 36z"/>
<glyph unicode="&#51;" d="M411 367l-308 0c-5 0-9-4-9-9 0-4 4-8 9-8l0 0c3-64 45-117 101-138l-87-199c-2-6 1-13 7-16 1-1 3-1 4-1 5 0 9 3 11 7l89 203c5-1 11-2 17-2l0-144c0-7 5-12 12-12 7 0 12 5 12 12l0 144c6 0 12 1 17 2l89-203c2-4 6-7 11-7 1 0 3 0 5 1 6 3 8 10 6 16l-87 199c57 21 98 74 101 138l0 0c5 0 9 4 9 8 0 5-4 9-9 9z m-242 82c11 0 20-9 20-19 0-11-9-20-20-20-3 0-6-2-6-6 0-3 3-6 6-6 18 0 32 14 32 32 0 17-14 31-32 31-10 0-19 9-19 20 0 10 9 19 19 19 4 0 6 3 6 6 0 3-2 6-6 6-17 0-31-14-31-31 0-18 14-32 31-32z m66 0c7 0 12-5 12-12 0-7-5-12-12-12-3 0-6-3-6-6 0-4 3-6 6-6 14 0 24 11 24 24 0 13-10 24-24 24-6 0-12 6-12 12 0 7 6 12 12 12 4 0 6 3 6 6 0 4-2 6-6 6-13 0-24-10-24-24 0-13 11-24 24-24z"/>
<glyph unicode="&#52;" d="M378 391l-20-26-4 5 35 82c3 5 4 11 4 17 0 11-5 22-13 31-4 3-8 6-14 9-22 9-47-1-56-23l-42-97c-4 5-10 7-17 8l0 0c0 0-1 0-1 0 2 3 6 8 9 8l1 0c0 0 1 0 1 1 0 1-1 2-1 2l-1 0c-1 0-3-1-4-2 0 2 0 5-3 9-7 6-10 7-10 7 0 0-6-18 10-18-2-2-3-4-4-6-11 12-31 13-33-7 0 0 0 0 0 0 0-1 0-1 0-2-6 2-12 1-18-1l0 0c-1 0-1 0-1 0 0 4 2 9 5 11 1 0 1 1 1 2-1 0-1 1-2 0-2 0-3-1-4-3 0 2-2 5-6 7-9 3-12 2-12 2 0 0 2-19 17-12-1-3-2-5-2-7-5 2-10 3-15 2l-1 1-1-2c0 0 0 0 0 0-6-2-11-6-11-13l-8-11-20 26-16-21 12-353c0-9 7-16 16-16l217 0c9 0 16 7 16 16l12 353z m-60 69c17-2 32-8 44-17 2-1 2-4 1-6-1-1-2-2-4-2-1 0-2 0-3 1-11 8-24 13-39 15-2 0-4 2-4 5 1 2 3 4 5 4z m24-72c0-1-1-1-1-1-1-1-2-1-3-1-1 0-2 0-3 1 0 0 0 0 0 0-11 8-24 13-39 14-2 1-4 3-4 5 1 3 3 5 5 5 17-2 32-8 44-17 2-1 2-4 1-6z"/>
<glyph unicode="&#53;" d="M349 175c-16 28 0 72 0 72 23 61-34 74-69 77 0 0 0 0 0 0l0 100c0 0 0 0 0 0 5 2 8 7 8 13l0 10 9 0c5 0 9 4 9 9 0 5-4 9-9 9l-9 0 0 4 9 0c5 0 9 4 9 9 0 5-4 9-9 9l-9 0 0 10c0 8-7 15-15 15l-34 0c-9 0-15-7-15-15l0-10-10 0c-5 0-9-4-9-9 0-5 4-9 9-9l10 0 0-4-10 0c-5 0-9-4-9-9 0-5 4-9 9-9l10 0 0-10c0-6 3-10 7-13l0-100c-35-3-92-16-69-77 0 0 17-44 0-72-16-29-114-154 90-174l8 0c203 20 105 145 89 174z m-85 290l0 24c0 3 2 5 5 5 2 0 5-2 5-5l0-41c0 0-1-1-1-1 0-2-2-3-4-3-2 0-4 1-4 3 0 0-1 1-1 1z m-26 0l0 24c0 3 2 5 5 5 2 0 4-2 4-5l0-41c0 0 0-1 0-1-1-2-2-3-4-3-2 0-4 1-5 3 0 0 0 1 0 1z m18-242c21 0 38-17 38-38 0-21-17-37-38-37-21 0-38 16-38 37 0 21 17 38 38 38z m41-141l-83 0c-5 0-9 4-9 9 0 5 4 9 9 9l83 0c5 0 9-4 9-9 0-5-4-9-9-9z"/>
<glyph unicode="&#54;" d="M503 504c-5 5-12 8-21 8-28 0-71-25-110-64-26-26-49-58-59-85l-113-10c-2-1-3-1-5-2 0 0 0-1 0-1l-184-185c-8-7-8-19 0-26l129-130c7-7 19-7 26 0l184 185c0 0 1 1 1 1 1 1 1 2 2 4l10 114c25 9 56 31 84 60 25 24 44 50 55 74 12 26 12 46 1 57z m-181-207c-7-7-18-7-25 0-7 7-7 18 0 24 4 4 9 6 13 5 2-3 4-7 7-10 2-2 6-4 10-6 0-5-2-10-5-13z m167 156c-10-22-28-47-51-71-25-24-52-44-74-53l1 19c2 7-10 19-17 18l-19-2c1 1 1 2 2 4 10 22 28 47 51 70 36 36 76 60 100 60 5 0 9-1 11-4 7-6 5-22-4-41z"/>
<glyph unicode="&#55;" d="M433 231c-2 6-5 11-8 16-10 15-26 25-42 28-2 1-3 1-5 1l-18 0c7 15 11 32 11 50 0 8 0 16-2 23 9 3 15 11 15 21l0 18c0 8-4 15-10 18-6 60-56 106-116 106-61 0-110-46-116-106-6-3-11-10-11-18l0-18c0-10 7-18 16-21-2-7-3-15-3-23 0-18 4-35 12-50l-4 0c-2 0-4 0-6 0-2 0-4 0-6 0-8-1-15-3-22-6-20-9-35-28-38-51 0-2-1-3-1-5 0-2 0-3 0-5 0-1 0-3 0-4 0 0 0 0 0 0l0 0c0-2 0-3 1-4 0 0 0 0 0 0 0 0 0 0 0-1 0-1 0-2 0-3 0-1 1-1 1-2 0-1 0-2 0-3 0 0 0 0 0 0 2-6 5-12 8-18 0 0 1-1 1-2 4-5 8-10 13-14 2-2 4-3 5-4 2-1 4-2 6-3 0 0 0 0 0 0l26-18c-2-2-3-4-4-6l-35-26c-3-2-4-6-2-9 2-2 4-3 6-3 1 0 2 1 4 2l32 23 5-7-32-24c-3-2-4-6-2-9 2-2 4-3 6-3 1 0 3 1 4 1l31 23 5-7-31-23c-3-2-4-6-2-9 2-2 4-3 6-3 1 0 3 0 4 1l31 23 5-8-31-22c-3-2-4-6-1-9 1-2 3-3 5-3 1 0 3 0 4 1l30 22 6-7-31-22c-3-2-3-7-1-10 1-1 3-2 5-2 1 0 3 0 4 1l30 22 5-8-30-21c-3-3-3-7-1-10 1-2 3-2 5-2 2 0 3 0 4 1l31 22c4-1 7 0 10 2l43 29 42-29c1-1 2-1 4-2 1 0 3 0 4 0 1 0 2 0 2 0 0 0 1 1 1 1l0 0 31-23c2-1 3-1 4-1 2 0 4 1 6 2 2 3 1 7-2 10l-30 22 5 7 30-22c2-1 3-1 4-1 2 0 4 1 6 2 2 3 1 8-2 10l-31 22 5 8 32-23c1-1 2-1 3-1 3 0 5 1 6 3 2 3 1 7-2 9l-31 23 5 7 32-23c1-1 2-1 4-1 2 0 4 1 5 3 2 3 1 7-2 9l-31 23 5 8 32-24c1 0 2-1 4-1 2 0 4 1 5 3 2 3 2 7-1 9l-33 24 5 7 33-23c1-1 2-2 4-2 2 0 4 1 5 3 2 3 2 7-1 9l-37 27c0 2-1 4-3 5l15 10 11 8 0 0c2 1 4 2 5 3 2 1 4 2 5 4 6 5 11 10 15 16 2 5 4 9 6 14 5 14 5 29 0 43z"/>
<glyph unicode="&#56;" d="M490 150l-17 0 0 30c0 3-1 6-3 8l0 112c0 117-95 212-211 212-117 0-212-95-212-212l0-111c-2-2-3-5-3-9l0-27-18 0c-9 0-16-7-16-16l0-73c0-9 7-16 16-16l18 0 0-27c0-9 7-17 16-17l84 0c9 0 16 8 16 17l0 159c0 9-7 16-16 16l-70 0 0 104c0 102 83 185 185 185 102 0 184-83 184-185l0-104-70 0c-9 0-16-7-16-16l0-159c0-9 7-17 16-17l83 0c9 0 17 8 17 17l0 25 17 0c9 0 16 7 16 16l0 72c0 9-7 16-16 16z"/>
<glyph unicode="&#57;" d="M348 91l-124 0c0 123 76 227 183 270 2 0 3 0 4 1 2 2 4 4 4 7 0 1 0 2-1 3 0 1 0 1 0 1 0 0-1 1-1 1-40 63-110 105-189 105-124 0-224-100-224-224 0-60 24-114 63-155 0 0 0 0 0 0 1-1 2-1 3-2l63 0c13 0 24-10 24-24l0-24c0-4 2-7 5-8 1 0 1-1 2-1 20-6 42-9 64-9 47 0 91 15 127 40 0 0 0 0 1 0 1 1 2 1 3 3 1 1 2 4 2 6 0 6-4 10-9 10z m-200 55c-20 0-36 16-36 35 0 20 16 35 36 35 19 0 35-15 35-35 0-19-16-35-35-35z m365-19c0 8-7 14-15 14l-133 0 0 138c19 16 43 30 73 39 7 2 11 10 9 18-2 7-10 12-18 9-152-45-178-209-179-216-1-4 1-8 3-12 3-3 7-5 11-5l117 0c6-28 32-50 63-50 32 0 59 24 64 55l0 0c3 2 5 6 5 10z m-175 14l-56 0c6 24 22 70 56 110z m106-57c-18 0-34 12-40 28-2 5-3 10-3 15 0 6-5 11-11 11l0 0c6 0 11-5 11-11 0-5 1-10 3-15l81 0c-6-16-22-28-41-28z"/>
<glyph unicode="&#33;" d="M464 509c-13 7-29 2-37-11l-249-447-118 0c-15 0-27-12-27-27 0-15 12-27 27-27l134 0c1 0 2 0 3 0 0 0 0 0 1 0 0 0 1 1 2 1 1 0 1 0 2 0 0 0 0 0 0 0 1 1 2 1 3 1 0 0 1 1 2 1 0 0 0 0 1 1 0 0 0 0 0 0 1 0 2 1 3 2 0 0 1 0 1 1 0 0 1 0 1 0 0 1 0 1 1 1 0 0 0 1 1 1 0 1 1 1 1 2 1 1 1 2 2 3l0 1 257 460c7 13 2 29-11 37z"/>
<glyph unicode="&#34;" d="M488 353l-136 0 0 135c0 10-9 19-20 19l-156 0c-11 0-20-9-20-19l0-135-136 0c-11 0-20-9-20-20l0-154c0-11 9-19 20-19l136 0 0-136c0-10 9-19 20-19l156 0c11 0 20 9 20 19l0 136 136 0c11 0 20 8 20 19l0 154c0 11-9 20-20 20z"/>
<glyph unicode="&#35;" d="M223 438c7 0 13-6 13-13 0-7-6-13-13-13-7 0-12-5-12-12 0-6 5-12 12-12 20 0 37 17 37 37 0 20-17 37-37 37-7 0-13 6-13 13 0 8 6 13 13 13 7 0 12 6 12 12 0 7-5 12-12 12-20 0-37-17-37-37 0-20 17-37 37-37z m-85 0c7 0 13-6 13-13 0-7-6-13-13-13-7 0-12-5-12-12 0-6 5-12 12-12 20 0 37 17 37 37 0 20-17 37-37 37-7 0-13 6-13 13 0 8 6 13 13 13 6 0 12 6 12 12 0 7-6 12-12 12-20 0-37-17-37-37 0-20 17-37 37-37z m324-149c-6 6-14 9-22 10l-49 1 11 59c0 11-9 20-20 20-109-12-108-10-158-10-66 0-160 10-160 10-11 0-20-9-20-20l57-297c0-5 1-9 3-12 14-29 62-50 119-50 57 0 105 21 119 50 2 3 3 7 3 12l15 80 46-2 1 0c17 0 30 12 32 28l31 96 0 2c1 9-2 16-8 23z m-47-117l0-1c0-5-3-8-8-8l0 0-42 2 21 112 53-2c2 0 4-1 5-2 2-2 2-3 3-5z"/>
<glyph unicode="&#36;" d="M432 126l-419 0c-7 0-13-6-13-13 0-8 6-14 13-14l419 0c7 0 13 6 13 14 0 7-6 13-13 13z m0 268l-1 0c0 7 1 15 1 23l-419 0c0-142 94-257 210-257 62 0 118 34 157 87 14-12 32-19 52-19 45 0 82 37 82 83 0 46-37 83-82 83z m0-139c-15 0-28 6-38 15 16 28 28 61 34 97 1 0 2 0 4 0 30 0 55-25 55-56 0-31-25-56-55-56z"/>
<glyph unicode="&#37;" d="M258 512c-143 0-258-115-258-257 0-142 115-258 258-258 142 0 257 116 257 258 0 142-115 257-257 257z m21-383c0-12-10-22-21-22-12 0-22 10-22 22l0 143c0 12 10 21 22 21 11 0 21-9 21-21z m0 222c0-12-10-22-21-22-12 0-22 10-22 22l0 7c0 12 10 21 22 21 11 0 21-9 21-21z"/>
<glyph unicode="&#38;" d="M492 266l-199 0 55 44c1 0 3 1 4 2l77 49c2 3 3 7 1 10l-18 21c-2 3-6 3-9 1l-65-64c-2-1-2-3-2-6l-49-39-1 6c0 9-6 16-15 18 5 5 7 11 7 18 0 16-12 28-28 28-15 0-28-12-28-28 0-7 3-14 7-19-7-2-12-9-12-17l3-24-201 0c-11-1-19-9-19-19l0-2c0-10 8-20 19-22 56-10 112-16 169-19l-7-5c-1 0-3-1-4-2l-77-49c-2-3-3-7-1-10l18-21c2-3 6-4 9-1l65 64c2 1 2 3 2 5l22 18c93-3 186 4 277 20 11 2 19 12 19 22l0 2c0 10-8 18-19 19z"/>
<glyph unicode="&#39;" d="M502 310l-248 0 0 2c0 4 0 18 6 30 6 13 18 20 35 20l71 0c11 0 26 8 26 27 0 5-4 9-9 9-5 0-10-4-10-9 0-5-2-8-7-8l-71 0c-31 0-46-17-52-31-8-16-8-32-8-39l0-1-221 0c-8 0-14-6-14-14l0-166c0-8 6-14 14-14l488 0c7 0 13 6 13 14l0 166c0 8-6 14-13 14z m-259-38c0 2 1 4 3 4l23 0c2 0 4-2 4-4l0-23c0-2-2-3-4-3l-23 0c-2 0-3 1-3 3z m-52 0c0 2 2 4 3 4l24 0c2 0 3-2 3-4l0-23c0-2-1-3-3-3l-24 0c-1 0-3 1-3 3z m0-47c0 2 2 3 3 3l24 0c2 0 3-1 3-3l0-24c0-2-1-3-3-3l-24 0c-1 0-3 1-3 3z m-51 47c0 2 1 4 3 4l23 0c2 0 4-2 4-4l0-23c0-2-2-3-4-3l-23 0c-2 0-3 1-3 3z m0-47c0 2 1 3 3 3l23 0c2 0 4-1 4-3l0-24c0-2-2-3-4-3l-23 0c-2 0-3 1-3 3z m-52 47c0 2 2 4 3 4l24 0c2 0 3-2 3-4l0-23c0-2-1-3-3-3l-24 0c-1 0-3 1-3 3z m0-47c0 2 2 3 3 3l24 0c2 0 3-1 3-3l0-24c0-2-1-3-3-3l-24 0c-1 0-3 1-3 3z m-24-75l-24 0c-2 0-3 2-3 4l0 23c0 2 1 3 3 3l24 0c1 0 3-1 3-3l0-23 0 0c0-2-2-4-3-4z m0 48l-24 0c-2 0-3 1-3 3l0 24c0 2 1 3 3 3l24 0c1 0 3-1 3-3l0-24 0 0c0-2-2-3-3-3z m0 48l-24 0c-2 0-3 1-3 3l0 23c0 2 1 4 3 4l24 0c1 0 3-2 3-4l0-23 0 0c0-2-2-3-3-3z m209-92c0-2-2-4-4-4l-178 0c-1 0-3 2-3 4l0 23c0 2 2 3 3 3l178 0c2 0 4-1 4-3z m51 0c0-2-1-4-3-4l-24 0c-2 0-3 2-3 4l0 44-48 0c-2 0-3 1-3 3l0 24c0 2 1 3 3 3l75 0c2 0 3-1 3-3z m0 95c0-2-1-3-3-3l-24 0c-2 0-3 1-3 3l0 23c0 2 1 4 3 4l24 0c2 0 3-2 3-4z m52-95c0-2-2-4-4-4l-23 0c-2 0-3 2-3 4l0 23c0 2 1 3 3 3l23 0c2 0 4-1 4-3z m0 47c0-2-2-3-4-3l-23 0c-2 0-3 1-3 3l0 24c0 2 1 3 3 3l23 0c2 0 4-1 4-3z m0 48c0-2-2-3-4-3l-23 0c-2 0-3 1-3 3l0 23c0 2 1 4 3 4l23 0c2 0 4-2 4-4z m51-95c0-2-1-4-3-4l-24 0c-2 0-3 2-3 4l0 23c0 2 1 3 3 3l24 0c2 0 3-1 3-3z m0 47c0-2-1-3-3-3l-24 0c-2 0-3 1-3 3l0 24c0 2 1 3 3 3l24 0c2 0 3-1 3-3z m0 48c0-2-1-3-3-3l-24 0c-2 0-3 1-3 3l0 23c0 2 1 4 3 4l24 0c2 0 3-2 3-4z m51-95c0-2-1-4-3-4l-23 0c-2 0-4 2-4 4l0 23c0 2 2 3 4 3l23 0c2 0 3-1 3-3z m0 47c0-2-1-3-3-3l-23 0c-2 0-4 1-4 3l0 24c0 2 2 3 4 3l23 0c2 0 3-1 3-3z m0 48c0-2-1-3-3-3l-23 0c-2 0-4 1-4 3l0 23c0 2 2 4 4 4l23 0c2 0 3-2 3-4z"/>
<glyph unicode="&#40;" d="M499 141l-22 0c0 1 0 3 0 5l0 256c0 8-7 16-16 16l-419 0c-8 0-16-8-16-16l0-256c0-2 1-4 1-5l-15 0c-7 0-12-8-12-17l0-14c0-10 5-17 12-17l487 0c7 0 12 7 12 17l0 14c0 9-5 17-12 17z m-212-25l-62 0c-7 0-13 6-13 12 0 1 0 1 1 2 0 6 5 11 12 11l62 0c6 0 11-5 12-11 0-1 0-1 0-2 0-6-5-12-12-12z m156 64c0-7-5-12-12-12l-358 0c-7 0-12 5-12 12l0 188 0 0c0 6 5 12 12 12l358 0c7 0 12-6 12-12z"/>
<glyph unicode="&#41;" d="M509 21c-13 27-37 53-70 77 12 46-4 100-43 140-2 44-25 94-68 138-72 73-138 131-138 131 0 0-53-133-46-235-78-20-144-49-144-49 0 0 92-38 159-130 67-92 181-98 239-54 12 9 22 21 30 33 27-20 46-42 56-63 2-5 7-8 12-8 2 0 5 1 6 2 7 3 10 11 7 18z m-281 312c-2 8 2 15 10 17 7 2 15-3 16-10 0 0 6-21 16-50-9 1-19 0-29-1-9 26-13 43-13 44z m163-221c-2-4-7-7-12-7-2 0-5 1-7 2-15 8-31 15-44 21-31 14-55 21-55 21-7 2-11 10-9 17 2 7 10 12 17 9 2 0 35-11 77-30 9-4 18-9 28-14 6-4 9-12 5-19z"/>
<glyph unicode="&#42;" d="M500 318c9 0 14 2 14 6 0 2-1 5-3 7-2 1-3 3-6 5l-224 164c-13 10-35 10-48 0l-224-164c-6-5-9-9-9-12 0-1 0-2 1-3 3-2 7-3 13-3l46 0 0-197-7 0c-12 0-21-9-21-21l0-24-9 0c-12 0-21-9-21-21l0-27c0-12 9-21 21-21l466 0c12 0 21 9 21 21l0 27c0 12-9 21-21 21l-9 0 0 24c0 12-9 21-21 21l-7 0 0 197z m-330-197l-49 0 0 197 49 0z m110 0l-48 0 0 197 48 0z m-23 262c-14 0-26 12-26 26 0 15 12 26 26 26 14 0 26-11 26-26 0-14-12-26-26-26z m133-262l-48 0 0 197 48 0z"/>
<glyph unicode="&#43;" d="M407 361c0 84-67 151-150 151-83 0-150-67-150-151 0-21 4-41 12-59l0-1 2-3 136-301 136 301 2 3 0 1 0 0c8 18 12 38 12 59z m-92-59c-15-14-35-24-58-24-23 0-43 10-58 24-15 15-25 36-25 59 0 46 37 83 83 83 46 0 83-37 83-83 0-23-10-44-25-59z"/>
<glyph unicode="&#44;" d="M108 396c0 7-5 10-13 13l-82 31c-7 0-13-6-13-13l0-309c0-7 6-10 13-13l82-31c7 0 13 6 13 13l0 0z m121 44l-81-31c-8-3-14-6-14-13l0-309c0-7 6-13 14-13l81 31c8 3 14 6 14 13l0 309c0 7-6 13-14 13z m148-44c0 7-5 10-13 13l-82 31c-7 0-13-6-13-13l0-309c0-7 5-10 13-13l82-31c7 0 13 6 13 13l0 0z m121 44l-82-31c-7-3-13-6-13-13l0-309c0-7 6-13 13-13l82 31c8 3 13 6 13 13l0 309c0 7-6 13-13 13z"/>
<glyph unicode="&#45;" d="M398 176c31 23 62 46 92 70-12 7-31 6-33 22 0 5 3 11 5 18 5 18 12 40 17 55-9-1-20-3-32-5-11-2-25-6-34-4-6 1-11 7-13 13-3 6-5 14-8 21-14-13-29-33-43-51-4-4-12-14-20-12-8 3-5 14-3 24 8 38 17 83 24 119-12-5-22-17-33-21-11-5-19-1-25 8-3 5-5 12-8 19-7 19-18 45-25 60-11-26-24-52-34-79-7-7-12-13-24-9-8 3-19 12-26 17-2 2-7 5-8 3 8-46 19-89 25-137-9-11-18 2-24 9-13 16-25 29-36 42-3 3-4 8-8 8-5-12-6-28-17-33-9-4-24 0-37 3-12 2-23 4-32 5 5-16 11-38 16-55 3-8 6-14 5-20-1-4-4-8-7-10-7-5-19-5-26-11 31-23 63-46 93-69 10-7 21-15 28-26 3-21-10-30-11-45 27 6 58 12 86 17 9 2 21 6 28-2-2-43-3-78-5-122 9 0 18 0 26 0-1 37-3 82-4 123 7 7 18 3 27 1 29-5 60-11 87-17-3 17-14 24-12 46 7 11 19 17 29 25z"/>
<glyph unicode="&#46;" d="M415 396c0 0 0 1 0 1 0 1 0 1-1 2 0 0 0 0 0 1 0 0 0 0 0 1-1 0-1 1-1 1 0 0-1 1-1 1 0 0-1 1-1 1 0 0 0 0 0 0 0 0-1 1-1 1 0 0-1 1-1 1 0 0-1 0-1 0-1 1-1 1-1 1-1 0-1 0-2 0 0 1-1 1-1 1-1 0-1 0-2 0 0 0 0 0-1 0l-82 0 6 21c12 2 21 13 21 26 0 7-2 14-7 19l7 20c2 7-2 15-9 17-7 3-15-1-17-9l-7-20c-12-3-21-14-21-27 0-7 3-13 7-18l-9-29-179 0c0 0-1 0-1 0 0 0-1 0-1 0-1 0-1 0-2-1 0 0-1 0-1 0-1 0-1 0-1-1-1 0-1 0-1 0-1 0-1-1-2-1 0 0 0-1 0-1 0 0-1 0-1 0 0 0 0-1-1-1 0 0 0-1 0-1-1 0-1-1-1-1 0-1 0-1-1-1 0-1 0-1 0-1 0-1 0-1 0-2 0 0 0-1-1-1 0 0 0-1 0-2 0 0 0 0 0 0 0 0 0 0 0-1 0 0 0-1 1-1 0-1 0-1 0-1 0-1 0-1 0-2 0 0 1-1 1-1 0 0 0-1 1-1 0-1 0-1 1-1 0-1 0-1 0-1l142-148 0-213c0 0 0 0 0-1l-51 0c-8 0-14-6-14-13 0-8 6-14 14-14l129 0c7 0 14 6 14 14 0 7-7 13-14 13l-51 0c0 1 0 1 0 1l0 213 141 148c1 0 1 0 1 1 0 0 1 0 1 1 0 0 0 1 1 1 0 0 0 1 0 1 0 1 1 1 1 1 0 1 0 1 0 2 0 0 0 1 0 1 0 1 0 1 0 1 0 0 0 0 0 0 0 1 0 2 0 2z"/>
<glyph unicode="&#47;" d="M414 441l-44 71-1-3-222 0-2 3-44-71 1 0 119-276-1-1 23 0c0-1 0-1 0-2l0-21c0-1 0-1 0-1-33-7-57-36-57-71 0-40 32-72 72-72 40 0 72 32 72 72 0 35-25 64-58 71 0 0 1 0 1 1l0 21c0 1-1 1-1 2l23 0 0 1 119 276z m-156-190l-82 190 164 0z"/>
<glyph unicode="&#58;" d="M393 444c-14 14-27 28-39 42-1 2-3 4-5 6 0-1-1-1-1-2-1 0-1-1-1-1-1-1-1-1-2-2 0 0 0-1-1-1-1-1-1-2-2-3 0-1-1-1-1-2 0 0 0-1-1-1 0-1 0-1-1-2-1-2-2-4-3-6 0-1 0-2 0-2-1-1-1-2-1-3 0-1-1-1-1-1 0-1 0-3-1-4l-269-304c-9-10-11-23-5-34l0 0c-6-8-9-18-9-27 1-11 6-21 14-29 7-6 17-10 27-10 1 0 1 0 2 0 11 1 21 6 28 14 0 0 1 1 1 1 1 1 2 1 3 2 6 8 18 8 25 2 4-4 6-8 6-13 0-5-1-9-4-13 0 0-1 0-1 0l-30-30c-4-5-4-12 0-16 2-3 5-4 8-4 3 0 6 1 8 4l31 30c0 0 0 1 0 1 0 0 0 0 0 0 7 8 11 18 10 29 0 11-5 21-13 28-16 15-42 14-57-3 0 0-1 0-1-1-1-1-2-1-3-2-3-4-7-6-12-6-5-1-10 1-13 4-4 4-6 8-6 13 0 3 0 7 2 10 11-5 24-3 32 6l158 141 0-212c0-6 5-11 12-11 6 0 11 5 11 11l0 232 122 110c0 0 0 0 0 0 1 0 3 1 4 1 1 0 2 1 4 1 0 0 1 0 1 1 1 0 2 0 3 1 1 0 3 1 4 2 0 0 1 0 1 1 1 0 2 1 3 1 2 1 3 2 4 3 1 1 2 2 3 3 0 0 1 0 1 0 0 1 1 1 2 2-2 1-4 3-6 5-14 12-28 25-41 38z m48 49c-20 20-50 24-74 12 2-2 4-5 6-7 11-13 23-25 35-38 13-13 26-24 38-35 2-2 5-4 7-6 12 24 8 54-12 74z"/>
<glyph unicode="&#59;" d="M491 308c-4 8-23 6-45-3l29 46 0 1 3 5c1 1 2 3 2 4 15 35 3 77-30 97-34 21-76 14-100-15-2-1-3-3-4-4 0 0 0-1 0-1 0 0 0 0 0 0-1-2-2-3-3-5l0 0c-7-18-30-68-43-89-16-26-60-78-60-78-4-6-2-15 4-19l76-46-87-164c-3-4-5-7-7-10-1-1-2-3-3-4 0 0 0 0-1 0-2 0-4 1-6 2-1 1-2 3-2 4l0 121c0 9-3 17-9 23-5 6-13 9-21 9-9 1-17-2-23-8-6-6-9-13-9-21l-1 0c0-5-4-8-9-8-2 0-4 1-6 3-1 1-2 4-2 6l2 70 99 42c7 3 10 11 7 18l-24 57c4 12 7 26 8 41 3 38-4 70-16 71-8 1-17-15-23-39l-21 51-3 6c0 1-1 3-2 4-20 32-61 46-97 31-36-16-54-55-45-91 0-2 1-4 1-5 0 0 1-1 1-1 0 0 0 0 0 0 1-2 1-4 2-5l1 0c10-17 37-64 47-87 12-28 29-94 29-94 2-6 8-9 13-8l-2-60c0-9 3-17 9-23 6-6 13-10 22-10 0 0 0 0 1 0 16 0 30 13 31 29l0 0c0 3 1 5 3 7 1 1 4 2 6 2 2 0 4-1 6-3 2-2 3-4 3-6l0-118-1 0c0-2 0-4 1-6l0-2 0 0c1-5 4-11 8-15 5-6 13-10 22-10l0 0c14 0 19 9 23 15 2 3 4 6 6 9l1 1 87 164 14-9c7-4 15-2 19 4l33 53c11 4 24 10 37 17 33 20 55 44 49 54z"/>
<glyph unicode="&#60;" d="M364 495c-19 14-19 14-19 14-24 10-39-7-35-38 0 0 20-139-48-237-68-98-204-127-204-127-31-7-42-27-24-46 0 0 0 0 20-14 123-86 292-56 377 67 86 124 56 294-67 381z"/>
<glyph unicode="&#61;" d="M447 401c0 0 0 1 0 2 0 0 0 0 0 0 0 3-1 5-3 7 0 1-1 1-1 1 0 1-1 1-1 1-1 1-3 2-4 2l-1 1-254 96 0 0c0 0-1 0-1 0 0 0 0 0-1 1 0 0-1 0-2 0 0 0-1 0-1 0-1 0-1 0-2 0 0 0-1 0-1 0 0 0-1 0-1 0 0 0 0-1-1-1 0 0-1 0-1 0 0 0-1 0-1-1 0 0-1 0-1 0-1-1-1-1-2-1 0-1 0-1-1-1 0-1-1-1-1-2-1-1-2-2-2-3 0-1 0-1 0-1 0-1-1-1-1-1 0-1 0-1 0-2 0-1 0-1 0-2l0-280c-10 7-22 10-34 10-35 0-64-28-64-63 0-34 29-62 64-62 35 0 63 28 63 62 0 1 0 2 0 2 0 1 0 1 0 2l0 173 226-86 0-134c-10 6-22 10-34 10-35 0-64-28-64-63 0-35 29-63 64-63 35 0 63 28 63 63 0 0 0 1 0 1 0 1 0 1 0 2l0 330z m-29-114l-226 85 0 36 226-86z"/>
<glyph unicode="&#62;" d="M447 401c0 0 0 0 0 0 0 1 0 1 0 2 0 0 0 1 0 1 0 0 0 1 0 1-1 1-1 1-1 2 0 0 0 0 0 1-1 0-1 1-1 1 0 0-1 1-1 1 0 1-1 1-1 1 0 1-1 1-1 1 0 0-1 1-1 1-1 0-1 0-1 1-1 0-1 0-2 0 0 0 0 0 0 0l-255 97c0 0-1 0-1 0 0 0-1 1-2 1 0 0-1 0-1 0-1 0-1 0-1 0 0 0 0 0 0 0-1 0-2 0-2 0-1 0-1 0-1 0-1 0-1-1-2-1 0 0-1 0-1 0-1 0-1-1-1-1-1 0-1 0-2-1 0 0 0 0-1 0 0-1 0-1-1-1 0-1 0-1-1-1 0-1 0-1-1-2 0 0 0 0 0-1 0 0-1-1-1-1 0 0 0 0 0 0 0-1 0-1 0-1 0-1-1-1-1-2 0 0 0-1 0-2 0 0 0 0 0-1l0-280c-10 7-22 10-34 10-35 0-64-28-64-63 0-34 29-62 64-62 35 0 63 28 63 62 0 1 0 1 0 2 0 1 0 1 0 2l0 240 226-86 0-201c-10 6-22 10-34 10-35 0-64-28-64-63 0-35 29-63 64-63 35 0 63 28 63 63 0 0 0 1 0 1 0 1 0 1 0 2z"/>
<glyph unicode="&#63;" d="M265 268l-256 0c-5 0-9-4-9-9l0-34c0-5 4-9 9-9l21 0 10-150c0-19 15-34 34-34l126 0c19 0 34 15 34 34l7 106-99 40c-1-1-3-1-5-1-4 0-8 2-10 5-2 2-3 5-3 7 0 7 6 13 13 13 5 0 10-3 12-8l29-12 65-26 2 26 20 0c5 0 9 4 9 9l0 34c0 5-4 9-9 9z m178-27l0 144c18 6 40 24 40 77l0 17-114 0 0-17c0-53 22-71 40-77l0-145c-39-7-68-40-69-81 0-1-1-2-1-3l0-100c0-13 11-24 25-24l124 0c14 0 25 11 25 24l0 100c-1 42-30 77-70 85z m-17 175c0 0 0 0 0 0l0 0c-14 0-20 14-22 29l44 0c-2-15-8-29-22-29z m-391-123l59 59 72-44c2-1 4-2 6-1l53 8 7-19c1-4 4-6 8-6 1 0 2 0 3 1 4 1 6 6 5 10l-9 26c-2 4-6 6-10 6l-57-9-75 46c-3 2-7 1-10-1l-64-64c-4-4-4-9 0-12 3-4 8-4 12 0z"/>
<glyph unicode="&#64;" d="M381 165l-60 0-24 238 23 33 1 1 2 3 0 5c0 37-30 67-67 67-37 0-67-30-67-67l0-5 2-3c1 0 1-1 1-1l24-33-25-238-60 0c-7 0-13-6-13-14 0-5 3-10 8-12l0-123c0-9 7-16 15-16l230 0c9 0 16 7 16 16l0 123c4 2 8 7 8 12 0 8-7 14-14 14z m-163 0l26 246-27 38c0 0 0 0 0 0 0 1 0 2 0 3 1 2 1 3 1 5 1 0 1 1 1 2 0 1 0 1 1 1 0 1 0 2 1 3 0 1 1 2 2 3 0 1 1 2 1 3 1 0 1 0 1 0 0 1 1 2 2 2 0 1 0 1 0 1 1 1 2 1 2 2 3 2 5 4 8 5 0 1 1 1 1 1 2 1 4 2 5 2 1 1 2 1 2 1 1 0 1 0 1 0 1 0 2 1 2 1 3 0 5 1 8 1 3 0 6-1 8-1 1 0 1-1 2-1 0 0 1 0 1 0 1 0 1 0 2-1 2 0 3-1 5-2 1 0 1 0 2-1 2-1 5-3 7-5 1-1 2-1 2-2 0 0 0 0 1 0 0-1 1-2 2-3 0 0 0 0 0 0 1-1 1-2 2-3 0-1 1-2 1-3 0 0 1-1 1-1 0-1 1-1 1-2 0-1 0-1 0-1 1-1 1-2 1-3 0-1 1-2 1-2 0-1 0-2 0-3 0-1 1-1 1-2l0 0-28-38 26-246-76 0z"/>
<glyph unicode="&#91;" d="M356 509c-21 6-44 3-64-11-19-13-34-33-41-57l-77-249c-11-36 4-72 35-81 30-10 63 12 74 47l37 121c3 7-1 14-8 16-6 2-13-2-16-9l-37-121c-7-22-26-36-43-30-17 5-25 27-18 49l77 250c6 18 17 34 31 43 14 9 29 12 42 8 29-9 44-46 32-84l-94-306c-8-25-24-47-44-60-19-13-40-16-59-11-20 6-35 21-44 43-9 22-9 48-1 74l55 177c2 7-2 14-9 16-6 2-13-2-15-8l-55-178c-10-31-9-63 2-91 12-28 33-48 59-56 9-3 17-4 26-4 19 0 38 6 55 17 25 17 44 43 54 74l94 306c16 50-6 102-48 115z"/>
<glyph unicode="&#93;" d="M258 512c-143 0-258-115-258-257 0-142 115-258 258-258 142 0 257 116 257 258 0 142-115 257-257 257z m95-225c0-1 0-2 0-3-3-37-34-77-115-83l0-69c0-12-9-22-21-22-12 0-22 10-22 22l0 223c0 12 10 22 22 22 0 0 0 0 0 0l0 0c62 0 135-23 136-87l0-3z m-115 46l0-89c44 4 72 21 72 45 0 23-28 40-72 44z"/>
<glyph unicode="&#94;" d="M84 88c-5-5-4-12 1-17l22-18c5-4 12-3 17 2l14 17-40 33z m313 326c-1 0-1 0-1 0-1 1-1 1-2 1 0 0 0 1-1 1l0 0c-1 1-2 2-2 4l-7 14-12-6c-5-3-7-8-4-10l12-10c3-2 7-6 10-8l11-10c3-2 7 0 10 6l3 11-16 6c0 0-1 0-1 1z m27 42l-18-10 5-12 11-4 7 21c2 6 1 7-5 5z m-66-61c-5 4-12 3-17-2l-34-41 10 52c1 7-3 13-10 14l-27 6c-7 1-13-3-14-10l-28-143-125-148 40-33 65 76-19-98 51-10 37 190 94 112c5 5 4 13-1 17z m-168-372c-1-7 3-13 10-14l27-5c7-2 13 3 15 9l4 21-52 10z m128 462l-4 22c-2 6-3 6-7 2l-11-18 10-8z m-41-36l15-3c3-1 9-2 13-3l15-2c3-1 5 3 5 9l-3 12-17-3c-1 0-1 0-2 0-1 0-1 0-2 0 0 0 0 0 0 0 0 0-1 0-1 0-1 0-1 0-1 1 0 0-1 0-1 0-1 0-1 1-2 1l-13 10-7-12c-3-5-3-10 1-10z"/>
<glyph unicode="&#95;" d="M501 268l-124 0-53 122 94 0c7 0 14 6 14 14l0 17c0 8-7 14-14 14l-321 0c-7 0-13-6-13-14l0-17c0-8 6-14 13-14l94 0-53-122-124 0c-8 0-14-6-14-14l0-14c0-8 6-14 14-14l106 0-49-111c-6-14 0-30 14-35 4-2 7-3 11-3 10 0 20 6 24 16l58 133 159 0 58-133c4-10 14-16 24-16 4 0 8 1 11 3 14 5 20 21 14 35l-48 111 105 0c8 0 14 6 14 14l0 14c0 8-6 14-14 14z m-305 0l53 122c0 0 0 0 0 0l17 0c0 0 0 0 0 0l53-122z"/>
<glyph unicode="&#96;" d="M512 248c0 1 0 3 0 5-1 6-1 13-2 20-1 1-1 3-1 5-1 2-1 4-2 6 0 2 0 3 0 5-2 5-3 10-5 16 0 1-1 2-1 4-1 3-2 5-3 8-1 2-1 4-2 5-1 2-1 4-2 5 0 1-1 3-2 4 0 1-1 3-1 4-2 3-3 6-5 9 0 1-1 2-2 3-2 4-4 8-6 11-1 1-1 3-2 4-4 7-9 13-14 20-2 2-5 5-7 8 0 0 0 0 0 0-4 5-8 9-12 13-4 4-9 9-14 13-5 4-11 8-16 12-2 1-3 2-5 4-1 1-3 2-5 3-3 2-6 4-9 6-2 1-4 1-5 2-2 1-4 2-5 3-2 1-4 2-6 3-1 1-3 1-4 2 0 0-1 0-1 0-2 1-3 2-5 2-2 1-3 2-5 2-2 1-4 2-6 3-1 0-3 1-5 1-2 1-3 2-5 2l-1 0c-3 1-7 2-11 3-2 1-4 1-6 2-1 0-3 1-5 1-4 1-8 1-11 2-1 0-1 0-1 0-4 1-8 1-12 2-2 0-4 0-5 0-2 0-4 0-6 1-6-1-10-6-12-11 0-1-1-3-1-4l0-233-223 0c-5-1-10-5-12-10 11-120 112-214 235-214 4 0 8 0 12 0l0 0c2 0 4 0 6 1 3 0 5 0 8 0 3 1 5 1 8 1 2 1 4 1 6 1 6 1 11 2 16 4 2 0 4 0 5 1 2 0 4 1 6 1 1 1 3 1 5 2 3 1 7 2 10 4 2 0 4 1 5 2 2 0 3 1 4 1 2 1 3 1 4 2 1 0 2 1 3 1 1 0 2 1 4 2 11 5 21 11 31 18 1 0 2 1 3 2 3 2 6 4 9 7 1 0 2 1 4 2 4 4 7 7 11 10 3 3 5 5 8 7 5 6 10 11 15 17 2 2 3 5 5 7 1 1 2 3 3 4 4 6 8 12 12 18 1 1 2 2 2 4 1 1 2 3 3 4 0 0 0 0 0 1 1 1 2 3 2 4 1 1 2 3 3 4 0 2 1 4 2 6 1 1 1 3 2 4 1 2 1 3 2 5 0 0 0 0 0 0 1 2 1 3 2 5 1 1 1 3 2 5 0 1 1 3 1 5 1 1 2 3 2 5 1 2 1 3 2 5 0 2 1 3 1 5 0 2 1 4 1 6 1 1 1 3 1 4 1 2 1 4 1 6 1 5 2 10 3 16 0 1 0 3 0 5 1 7 1 15 1 22 0 4 0 8 0 12z m-276 32l0 217c0 7-5 14-12 15 0 0 0 0 0 0-2 0-3 0-4 0-1 0-2 0-3 0-2-1-4-1-6-1-2 0-4 0-6-1-2 0-4 0-6-1-2 0-3 0-5 0-2-1-5-1-8-2-2 0-3-1-4-1-2 0-3-1-4-1-3-1-6-1-9-2-2-1-4-1-6-2-2-1-4-2-6-2-2-1-4-2-6-3-2 0-4-1-6-2-5-2-9-4-14-6-2-1-4-2-7-4 0 0 0 0 0 0-2-1-5-2-7-4-4-2-8-4-11-7-1-1-3-1-4-2 0-1-1-1-1-1-1-1-2-2-4-3-3-2-6-4-8-6-4-3-7-6-11-9-7-6-14-13-20-20-2-3-4-6-6-8-2-2-3-3-4-4 0-1-1-2-2-3-6-8-11-16-16-25-1-1-1-2-2-3 0-1 0-1 0-1-1-2-3-4-4-7-1-2-2-5-4-9-3-7-6-15-9-24-1-1-1-3-2-5 0-2-1-3-1-5-1-2-1-3-1-4-1-4-2-8-3-11 0-3-1-5-1-7 0-3-1-6-1-9-1-2-1-3-1-5 0-2 0-4 0-6-1-1-1-2-1-3 0-2 0-3 0-4l0-9c0-9 7-16 15-16l206 0c8 0 15 7 15 16z"/>
<glyph unicode="&#123;" d="M434 485c-116 36-240 36-356 0-13-4-20-17-16-28 4-12 8-24 13-36 2-6 6-10 11-12l163-399c6-13 15-13 20 0l157 399c5 2 9 6 11 12 4 12 8 24 13 36 4 11-3 24-16 28z m-214-119c-1-17-15-30-33-30-17 0-31 13-32 30 0 1 0 2 0 2 0 18 14 33 32 33 19 0 33-15 33-33 0 0 0-1 0-2z m42-218c-18 0-33 15-33 33 0 18 15 33 33 33 18 0 32-15 32-33 0-18-14-33-32-33z m44 115c-18 0-33 15-33 33 0 18 15 33 33 33 18 0 33-15 33-33 0-18-15-33-33-33z"/>
<glyph unicode="&#124;" d="M467 226l0 57c0 5 4 9 9 9l33 0c-10 66-45 125-95 164l-16-28c-3-5-8-6-13-4l-49 29c-4 2-6 8-3 12l16 29c-29 12-61 18-94 18-34 0-66-6-95-18l16-29c3-4 1-10-3-12l-49-29c-5-2-10-1-13 4l-16 28c-50-39-85-98-95-164l33 0c5 0 9-4 9-9l0-57c0-5-4-9-9-9l-33 0c10-66 45-124 95-164l16 29c3 4 8 5 13 3l49-28c4-3 6-9 3-13l-16-29c29-11 61-18 95-18 33 0 65 7 94 18l-16 29c-3 4-1 10 3 13l49 28c5 2 10 1 13-3l16-29c50 40 85 98 95 164l-33 0c-5 0-9 4-9 9z m-140 143c5 7 14 8 20 3 18-14 32-32 42-52 3-7 0-16-7-19-2-1-4-2-6-2-5 0-11 3-13 8-8 16-20 31-34 42-6 5-7 14-2 20z m-207-50c10 20 24 38 41 52 6 5 15 4 20-2 5-6 4-15-2-20-14-12-25-26-33-42-3-5-8-8-13-8-2 0-4 0-6 1-8 3-11 12-7 19z m19-136c-2-1-4-1-6-1-5 0-10 2-13 8-10 20-15 42-15 64 0 8 7 15 15 15l0 0c8 0 14-7 14-15 0-18 4-36 12-52 3-7 1-16-7-19z m100-63c-2-7-8-11-14-11-1 0-2 0-4 0-21 5-42 15-59 29-7 5-8 14-3 20 5 6 14 7 21 2 14-11 30-19 48-23 8-2 12-9 11-17z m-12 252c-1 0-2 0-3 0-6 0-12 4-14 11-2 8 3 15 11 17 22 5 45 5 66 0 8-1 13-9 11-17-2-8-9-12-17-11-18 4-36 4-54 0z m121-234c-18-14-38-24-60-29-1 0-2 0-3 0-7 0-13 4-14 11-2 8 3 15 10 17 18 4 35 12 49 23 6 5 15 4 20-2 5-6 4-15-2-20z m56 117c0-23-5-45-15-65-2-5-8-8-13-8-2 0-4 0-6 1-7 4-10 12-7 19 8 17 12 34 12 53l0 0c0 8 6 15 14 15 8 0 15-7 15-15l-15 0z"/>
<glyph unicode="&#125;" d="M16 306l42 0c5 0 10 4 10 10 0 6-5 10-10 10l-42 0c-5 0-10-4-10-10 0-6 5-10 10-10z m90-26l-96 0c-5 0-10-4-10-10 0-6 5-10 10-10l96 0c5 0 10 4 10 10 0 6-5 10-10 10z m-30-42l-36 0c-6 0-10-4-10-10 0-6 4-10 10-10l36 0c5 0 10 4 10 10 0 6-5 10-10 10z m437 61c2 52-73 95-170 96-99 2-183-40-188-94 0-1-1-3-1-4l0 0-11-72 0 0c-1-3-2-6-2-10 0-1 0-1 0-2l0-1 0 0c-2-51 73-94 170-95 93-2 174 36 187 85l0 0 0 0c1 3 1 6 1 9 0 0 0 1 1 2l0 0 11 74c0 0 0 0 0 0 1 2 1 3 1 5 0 0 1 1 1 2 0 1 0 2 0 2 0 1 0 2 0 3l0 0 0 0z m-176 31c31-1 55-15 54-32-1-7-6-14-15-19-11-7-27-11-45-11-20 1-36 6-46 14-6 5-9 11-8 18 1 17 28 30 60 30z m115-104c-32-20-77-31-124-31-1 0-3 0-4 0-53 1-101 16-129 40-4 4-5 10-1 14 3 5 10 5 14 2 25-22 68-35 116-35 45-1 88 9 118 27 4 3 11 2 14-3 2-5 1-11-4-14z"/>
<glyph unicode="&#126;" d="M455 296c0 10-8 18-18 18l-53 0 0 111c0 27-14 47-33 47l-26 0c-4 24-17 40-33 40l-131 0c-19 0-33-23-33-54l0-144-55 0c-10 0-18-8-18-18l-38-274c0-10 8-18 18-18l440 0c10 0 17 8 17 18z m-268 130l-16-112-12 0 0 144 0 0c0 12 3 20 5 23l125 0c1-2 3-5 4-9l-73 0c-19 0-33-20-33-46z m68-295c-15 0-28 13-28 28 0 15 13 28 28 28 15 0 28-13 28-28 0-15-13-28-28-28z m-52 183l15 108 0 3c0 8 2 14 4 16l74 0 0 0 15-127z m150 0l-11 0-14 127 21 0c1-2 4-8 4-16l0-111z"/>
<glyph unicode="&#92;" d="M431 370c-4 0-9 0-13-1-19 38-58 65-103 65-4 0-8-1-12-1-25 26-60 42-100 42-65 0-120-46-134-108-39-7-69-41-69-82 0-46 37-83 83-83 20 0 38 7 52 18 20-12 43-18 68-18 21 0 41 4 59 13 16-8 34-13 53-13 23 0 45 7 63 19 15-12 33-19 53-19 46 0 84 37 84 84 0 47-38 84-84 84z m-339-227c-14 0-26-40-26-54 0-14 12-26 26-26 14 0 26 12 26 26 0 14-12 54-26 54z m223-24c-14 0-26-40-26-54 0-14 12-26 26-26 14 0 25 12 25 26 0 14-11 54-25 54z m-113 62c-14 0-25-40-25-54 0-14 11-26 25-26 14 0 26 12 26 26 0 14-12 54-26 54z m220-11c-14 0-25-40-25-54 0-14 11-25 25-25 15 0 26 11 26 25 0 14-11 54-26 54z"/>
<glyph unicode="&#57344;" d="M256 311c-30 0-54-25-54-55 0-30 24-55 54-55 30 0 55 25 55 55 0 30-25 55-55 55z m0-77c-12 0-22 10-22 22 0 12 10 22 22 22 12 0 22-10 22-22 0-12-10-22-22-22z m0 144c-67 0-122-55-122-122 0-67 55-122 122-122 68 0 122 55 122 122 0 67-54 122-122 122z m0-204c-45 0-82 37-82 82 0 45 37 82 82 82 45 0 82-37 82-82 0-45-37-82-82-82z m0 267c-102 0-185-83-185-185 0-102 83-185 185-185 102 0 185 83 185 185 0 102-83 185-185 185z m0-334c-82 0-149 67-149 149 0 83 67 150 149 150 83 0 150-67 150-150 0-82-67-149-150-149z m0 405c-141 0-256-115-256-256 0-141 115-256 256-256 142 0 256 115 256 256 0 141-114 256-256 256z m0-468c-117 0-212 95-212 212 0 117 95 212 212 212 117 0 213-95 213-212 0-117-96-212-213-212z"/>
<glyph unicode="&#57345;" d="M496 334l-3 0 0 52c0 6-6 11-12 11l-129 0c-7 0-12-5-12-11l0-24c0-6 5-12 12-12 6 0 12 6 12 12l0 12 105 0 0-40-4 0c-9 0-16-8-16-17l0-28-246 0 0 16 166 0c7 0 12 6 12 12 0 7-5 12-12 12l-166 0 0 15c0 6-5 11-11 11-7 0-12-5-12-11l0-15-166 0c-7 0-12-5-12-12 0-6 5-12 12-12l166 0 0-16-163 0c-10 0-17-7-17-17l0-100c0-9 7-16 17-16l30 0 0-26c0-7 5-12 12-12 6 0 12 5 12 12l0 26 376 0 0-26c0-7 6-12 12-12 7 0 12 5 12 12l0 26 25 0c9 0 17 7 17 16l0 145c0 9-8 17-17 17z m-176-137c-14 0-25 11-25 25 0 14 11 26 25 26 15 0 26-12 26-26 0-14-11-25-26-25z m72 9c-9 0-17 7-17 16 0 9 8 17 17 17 9 0 17-8 17-17 0-9-8-16-17-16z"/>
<glyph unicode="&#57346;" d="M198 147l-78 2-3 0c0 0-1 0-2 0-2 2-3 5-3 8l2 3 27 45 10-7c4-1 6 0 6 4l-21 91c0 4-2 5-6 4l-90-24c-3-2-3-5 0-7l10-6-48-79c-3-5-3-10 0-14l0 0 62-117 0 0 1-2 0 0c3-3 6-6 10-6l121-2c7 0 13 5 13 12l2 82c0 7-6 13-13 13z m310 31l-60 105c-3 6-11 8-17 4l-71-41c-6-3-8-11-4-17l39-68 1-2c0-1 0-2 0-2 0-3-2-6-4-7l-4 0-52 0 0 12c0 4-3 5-6 4l-67-66c-3-2-3-5 0-7l67-65c3-2 6 0 6 3l0 12 92 0c5 0 10 3 12 7l0 0 68 114 0 0 1 2 0 0c2 4 2 8-1 12z m-241 214l2-3 27-45-10-6c-4-2-4-5 0-7l90-23c3-2 6-1 6 3l21 91c0 4-2 5-5 4l-11-7-47 80c-3 4-8 6-12 6l0 0-133 0-2 0c-4-1-8-3-10-7l-58-106c-4-6-2-13 5-17l71-39c6-4 14-2 17 4l38 69 2 3c0 0 1 1 1 1 3 2 6 1 8-1z"/>
<glyph unicode="&#57347;" d="M512 184c0 1 0 1 0 2l-7 34c-2 10-8 21-15 24-2 1-7 4-13 6-2 1-5 2-7 4-5 2-9 4-9 4 0 0 0 0 0 0-5 2-11 5-17 7-38 18-88 41-133 61l-78-43c-2-1-5-2-7-2-5 0-10 3-13 7-1 1-1 1-1 2-3 5-2 11 1 16 1 2 3 3 5 5l57 31c-27 12-49 22-62 28l0-1-90 0c-9 0-16 8-16 16 0 9 7 16 16 16l90 0 0 71c0 14-12 26-26 26l-71-7c-14 0-25-11-25-26l0-13-58 0c-14 0-26-11-26-25l0-234c0-14 12-26 26-26l50 0-11-19-19 0c-12 0-21-8-23-19l0-1c-18-10-30-29-30-51 0-32 26-59 58-59 33 0 59 27 59 59l12 0c0-32 26-59 58-59 32 0 59 27 59 59l11 0c0-32 26-59 58-59 33 0 59 27 59 59l12 0c0-32 26-59 58-59 32 0 59 27 59 59 0 32-25 58-56 59-4 7-12 12-20 12l-16 0-11 19 96 0c10 0 17 8 16 17z m-454-140c-18 0-33 15-33 33 0 7 2 12 5 17 3-9 12-17 23-17l38 0c0-18-14-33-33-33z m33 194c-3-3-8-6-13-6-11 0-20 9-20 20 0 10 9 19 20 19 5 0 9-2 13-5 4-4 6-9 6-14 0-6-2-10-6-14z m96-194c-18 0-33 15-33 33l66 0c0-18-15-33-33-33z m6 104l-11 19 120 0-11-19z m122-104c-18 0-32 15-32 33l66 0c0-18-15-33-34-33z m112 33c13 0 23 11 23 24l0 9c15-3 27-16 27-33 0-18-15-33-33-33-18 0-33 15-33 33z"/>
<glyph unicode="&#57348;" d="M344 355l-30 0 0 145c0 7-5 12-12 12l-96 0c-7 0-12-5-12-12l0-145-30 0c-9 0-16-7-16-16l0-293c0-9 7-16 16-16l14 0 0-17c0-7 5-12 12-12 6 0 12 5 12 12l0 17 114 0 0-17c0-7 5-12 12-12 6 0 12 5 12 12l0 17 4 0c9 0 16 7 16 16l0 293c0 9-7 16-16 16z m-126 133l72 0 0-133-72 0z m67-192l-62 0c-6 0-12 5-12 12 0 7 6 12 12 12l62 0c7 0 12-5 12-12 0-7-5-12-12-12z"/>
<glyph unicode="&#57349;" d="M448 244c-26 1-65 17-104 39l-1 0-19-22c-2-2-5-4-8-4-3 0-5 1-7 3-5 4-5 11-1 15l16 19c-5 3-11 7-16 10l-19-21c-2-3-5-4-8-4-3 0-5 1-7 3-5 4-5 11-1 15l16 18c-7 5-13 9-20 13l-19-23c-2-2-5-3-8-3-3 0-5 1-7 3-5 3-5 10-1 15l17 20c-27 18-48 34-55 40-20 17-67-23-42-58 0 0 11-8-10-14-21-5-29-21-74 23-17 18-36 7-39-7l-19-85c0 0-12-28 0-47-9-14-19-44-6-50 14-6 136-16 179-7 6 2 15 2 25 3l0 7c0 6 4 11 10 11 6 0 11-5 11-11l0-7c64 1 161-7 191-6 39 1 71 14 83 38 13 23 9 72-57 74z m-310-22l-76 0c-6 0-11 5-11 11 0 6 5 11 11 11l76 0c6 0 11-5 11-11 0-6-5-11-11-11z"/>
<glyph unicode="&#57350;" d="M37 148c0 0 47-1 78-4 30-4 74-15 74-15 16-2 29 10 29 25l0 119c0 16 0 42 0 58l0 125c0 16-7 18-15 5l-179-286c-9-13-3-25 13-27z m283 63l152 0c16 0 21 10 11 23l-174 228c-9 12-17 9-17-6l0-126c0-16 0-42 0-57l0-33c0-16 13-29 28-29z m99-19l-92 0c-7 0-12-6-12-13l-12-44c0-7 6-12 13-12l114 0c7 0 13 5 13 12l-12 44c0 7-5 13-12 13z m66-102l-217 10 0 375c0 7-6 13-13 13-7 0-13-6-13-13l0-374-219 10c-12 0-26-9-23-23l12-44c3-13 10-22 22-22l440 0c12 0 15 9 22 22l12 23c6 17-10 23-23 23z"/>
<glyph unicode="&#57351;" d="M510 154l-188 68-152 140c5 12 5 25 1 37-5 14-14 25-27 32-8 4-16 5-25 5-21 0-40-11-49-30-6-13-8-28-3-41 5-14 15-25 28-32 7-4 16-6 24-6 13 0 24 5 34 12l98-85-14-29-127 28c0 20-11 40-31 50-7 3-16 5-24 5-21 0-40-11-49-30-7-13-8-28-3-41 4-14 14-25 27-32 8-4 16-6 25-6 19 0 36 10 46 26l204-36 167-109 4 5-149 113 181-50z m-355 210c-7-14-21-22-36-22-6 0-12 1-18 4-9 5-17 13-20 23-3 10-3 21 2 31 7 13 21 22 36 22 6 0 12-2 18-4 10-5 17-13 20-23 4-11 3-21-2-31z m-64-128c-7-14-21-22-36-22-6 0-12 1-18 4-10 5-17 13-20 23-4 10-3 21 2 31 7 13 21 22 36 22 6 0 12-2 18-4 20-10 28-34 18-54z m160-14l12 22 38-32z"/>
<glyph unicode="&#57352;" d="M466 466c-62 62-163 62-225 0-62-62-62-163 0-225 62-62 163-62 225 0 62 62 62 163 0 225z m-35-191c-43-43-113-43-156 0-43 43-43 113 0 156 43 43 113 43 156 0 43-43 43-113 0-156z m-209-53c-10 9-14 21-23 11l-193-188c-9-9-7-27 2-36 10-10 28-12 37-3l188 193c10 9-2 13-11 23z"/>
<glyph unicode="&#57353;" d="M512 339c-54-25-73-65-73-65l-2-5c-14 3-30 7-48 10-6 1-12 2-19 4-7 1-15 2-23 3-8 2-18 3-27 4-14 2-28 4-42 5-14 29-14 64-14 64-36-26-48-48-51-60-70 2-144-4-213-26 0 0 57-53 143-72 3 0 6-1 9-1 3-11 10-24 26-37 0 0-7 16-2 34 1 0 3 0 5 0 2-12 10-32 41-44-1 1-17 20-11 44 42 2 89 10 130 19 7-6 14-12 24-18 0 0-4 9-6 22 9 2 18 5 26 7 3-2 7-5 10-7 0 0-1 4-3 9 21 5 37 10 48 13 51-55 62-43 62-43-43 50 12 142 10 140z"/>
<glyph unicode="&#57354;" d="M498 488c0 13-10 24-24 24l-433 0c-14 0-24-11-24-24l-6-464c0-13 11-24 24-24l445 0c13 0 24 11 24 24z m-129-78c-7-105-55-184-115-184-60 0-107 79-115 184-8 5-13 14-13 24 0 16 12 28 27 28 16 0 28-12 28-28 0-9-5-18-12-23 7-94 47-155 85-155 38 0 79 61 85 155-7 5-12 14-12 23 0 16 13 28 28 28 15 0 28-12 28-28 0-10-6-19-14-24z"/>
<glyph unicode="&#57355;" d="M516 97c-2 11-12 18-22 16-4 0-8-1-12-1l-3 42 5 0c9 0 15 7 15 16 0 0 0 1-1 1l-5 32c-2 9-8 18-14 21l0 0c-3 1-7 3-12 6-2 1-5 2-7 3-5 2-8 3-8 3 0 0 0 1 0 1-5 2-10 4-16 7-35 15-81 36-123 55-11 5-22 10-32 15-25 11-46 20-58 25l0 93c0 13-11 24-24 24l-65-6c-13 0-23-11-23-24l0-12-54 0c-13 0-23-10-23-23l0-213c0-12 9-22 21-24l0 0-17-43c-5 1-10 2-16 2-10 2-20-5-22-16-1-11 6-20 17-22 80-12 160-18 241-18 81 0 161 6 242 18 10 2 18 11 16 22z m-249 182c2 6 10 9 16 6 6-3 9-10 6-17-3-6-10-9-16-6-7 3-9 10-6 17z m-38 17c3 6 11 9 17 6 6-3 9-11 6-17-3-6-10-9-16-6-7 3-9 10-7 17z m-37 17c3 6 10 9 17 6 6-3 9-11 6-17-3-6-10-9-17-6-6 3-9 10-6 17z m-22 50c7 0 13-5 13-12 0-7-6-13-13-13-6 0-12 6-12 13 0 7 6 12 12 12z m-55-261l1 2 11 50 151 0 16-50 2-8c-60-1-120 1-181 6z m211 149c-3-6-10-9-16-6-6 3-9 11-6 17 3 6 10 9 16 6 6-3 9-10 6-17z m93-147c-22-2-44-4-65-5l1 5 17 50 42 0 3-4 24-44c-8-1-15-1-22-2z"/>
<glyph unicode="&#57356;" d="M460 334c0 0 1 0 1 1 0 0 0 0 0 0 1 0 1 0 1 0l47 39c5 3 5 9 2 14-4 4-10 5-14 1l-47-37-382-172-60-10c-5-1-9-6-8-12 1-5 5-8 10-8 1 0 1 0 2 0l60 10c0 0 0 0 0 0 1 0 1 0 1 0 1 0 1 0 1 1 0 0 1 0 1 0l11 5c-2-8-2-16 2-24 6-13 19-22 33-22 5 0 10 1 14 3 19 9 27 30 19 48-4 8-10 14-17 18l271 122c-2-8-1-17 2-24 6-13 19-22 33-22 5 0 10 1 15 3 18 9 26 30 18 48-4 8-10 14-17 18l1 0c0 0 0 0 0 0z m-333-192c-2-1-4-2-6-2-6 0-12 4-15 10-3 8 0 17 8 21 2 1 4 1 7 1 6 0 12-3 14-9 4-8 0-18-8-21z m323 145c-2-1-5-2-7-2-6 0-12 4-14 10-2 4-2 8-1 12 2 4 5 7 9 9 2 1 4 1 6 1 6 0 12-3 15-9 3-8 0-18-8-21z"/>
<glyph unicode="&#57357;" d="M45 76l-12 0c0 1 0 1 0 1l0 319c2 2 3 5 3 8l0 54c0 3-1 6-3 8-2 2-5 3-8 3-7 0-12-5-12-11l0-54c0-3 1-6 3-8l0-319c0 0 0 0 0-1l-12 0c-2 0-4-2-4-4 0-2 2-4 4-4l16 0 0-25c0-2 2-4 5-4 2 0 4 2 4 4l0 25 16 0c2 0 4 2 4 4 0 2-2 4-4 4z m328-20c0 0 0 1 0 1l-1 1-1 3-73 154-31-67 53-113 1-2c0 0 0-1 1-1 7-14 20-23 32-23 3 0 6 1 9 2 14 6 18 26 10 45 0 0 0 0 0 0z m-130 278l-67 141c0 1 0 1 0 1-1 1-1 1-1 2-8 16-21 26-34 26-3 0-6-1-9-2-14-7-18-28-9-48 0-1 1-2 1-2 0-1 0-1 0-1l87-185z m262-258l-12 0 0 320c2 2 3 5 3 8l0 54c0 3-1 6-3 8-2 2-5 3-8 3-6 0-12-5-12-11l0-54c0-3 1-6 3-8l0-319c0 0 0 0 0-1l-11 0c-3 0-5-2-5-4 0-2 2-4 5-4l16 0 0-25c0-2 2-4 4-4 2 0 4 2 4 4l0 25 16 0c2 0 4 2 4 4 0 2-2 4-4 4z m-128 426c-2 1-5 2-9 2-12 0-26-10-33-26-1-1-1-1-1-2 0 0 0 0-1-1l-66-141-6-13-6-13-32-67-6-13-6-13-73-154-1-3 0-1c-1 0-1-1-1-1 0 0 0 0 0 0-7-19-3-39 10-45 3-1 6-2 10-2 11 0 24 9 32 23 0 0 0 1 0 1l2 2 53 113 6 13 6 13 31 67 6 13 6 12 87 185c0 0 0 0 0 1 1 0 1 1 2 2 9 20 5 41-10 48z"/>
<glyph unicode="&#57358;" d="M386 512l-262 0c-9 0-16-7-16-16l0-478c0-9 7-16 16-16l262 0c9 0 17 7 17 16l0 478c0 9-8 16-17 16z m-131-479c-8 0-14 7-14 15 0 8 6 14 14 14 8 0 15-6 15-14 0-8-7-15-15-15z m111 73c0-9-7-17-16-17l-189 0c-9 0-17 8-17 17l0 350c0 9 8 16 17 16l189 0c9 0 16-7 16-16z"/>
<glyph unicode="&#57359;" d="M491 211l-72 0 85 96c0 0 0 0 0 0 1 1 1 1 1 1 0 0 0 0 0 1 1 0 1 0 1 1 0 1 1 1 1 2 0 0 0 1 0 1 1 1 1 1 1 2 0 1 0 1 0 1 0 1 0 2 0 3 0 2 0 3-1 4 0 0 0 1 0 1 0 1-1 1-1 2 0 0 0 0-1 1 0 0 0 0 0 0 0 1-1 2-1 2-1 0-1 1-1 1 0 0 0 0-1 0 0 1-1 2-2 2-1 0-1 1-1 1-1 0-1 0-2 0 0 0 0 0 0 0 0 1-1 1-1 1 0 0 0 0 0 0-1 0-1 0-2 0 0 0 0 0 0 0 0 0-1 0-1 0-1 0-1 0-2 0l-109 0c-9 0-16-7-16-16 0-9 7-17 16-17l72 0-84-95c-1-1-1-2-2-2 0-1 0-1 0-1 0 0 0 0 0 0-1-1-1-1-1-2 0 0 0 0 0-1 0 0-1 0-1-1 0-1 0-1 0-2 0 0 0-1 0-1 0-1 0-2 0-3 0-1 0-2 0-3 1-1 1-1 1-2 0 0 0-1 1-1 0-1 0-1 0-1 0-1 1-1 1-1 0-1 1-2 2-3 2-1 4-2 6-3 0 0 0 0 1 0 0 0 0-1 0-1 1 0 1 0 1 0 0 0 0 0 1 0 0 0 0 0 1 0 0 0 1 0 1 0l109 0c10 0 17 7 17 17 0 9-7 16-17 16z m-182 0l-73 0 85 96c0 0 0 0 0 0 1 1 1 1 1 1 2 2 3 5 3 7 0 1 0 1 0 1 0 1 0 2 0 3 0 2 0 3-1 4 0 1-1 2-1 3 0 1-1 1-1 1 0 1 0 1-1 1 0 1 0 1-1 2 0 0 0 0 0 0-1 0-1 0-1 1 0 0-1 0-1 1 0 0-1 0-1 0 0 0-1 1-1 1-1 0-1 0-1 0-1 0-1 0-1 1-1 0-2 0-3 0 0 0-1 0-1 0 0 0-1 0-1 0l-110 0c-9 0-16-7-16-16 0-9 7-17 16-17l73 0-85-95c-1-1-1-2-2-3 0 0 0-1 0-1-1-1-1-1-1-1 0-1 0-1 0-1 0 0 0-1 0-1-1 0-1-1-1-2 0 0 0-1 0-1 0-1 0-2 0-3 0-1 0-2 1-3 0-1 0-2 0-2 0-1 1-1 1-2 0 0 1-1 1-1 1-1 1-2 2-3 1 0 1 0 1 0 0-1 1-1 1-1 2-2 4-2 7-3 0 0 1 0 1 0 0 0 1 0 1 0l110 0c9 0 16 7 16 17 0 9-7 16-16 16z m-183 0l-72 0 84 96c0 0 0 0 1 0 0 1 0 1 0 1 2 2 3 5 3 7 0 1 0 1 0 1 0 1 0 2 0 3 0 2 0 3 0 4-1 1-1 2-2 3 0 1-1 1-1 1 0 1 0 1-1 1 0 1 0 1-1 2 0 0 0 0 0 0 0 0-1 1-1 1 0 0-1 0-1 1 0 0 0 0 0 0-1 0-1 0-1 0-1 1-1 1-2 1 0 0 0 0 0 0 0 0-1 0-1 1-1 0-2 0-3 0 0 0 0 0-1 0 0 0-1 0-1 0l-109 0c-10 0-17-7-17-16 0-9 7-17 17-17l72 0-85-95c0-1-1-2-1-2-1-1-1-1-1-1 0 0 0 0 0 0 0-1 0-1-1-2 0 0 0 0 0-1 0 0 0 0 0-1-1-1-1-1-1-2 0 0 0-1 0-1 0-1 0-2 0-3 0-1 0-2 1-3 0-1 0-1 0-2 1 0 1-1 1-1 0-1 0-1 1-1 0-1 0-1 0-1 1-1 2-2 3-3 1-1 3-2 5-3 0 0 1 0 1 0 0-1 0-1 0-1 1 0 1 0 2 0 0 0 0 0 0 0 0 0 1 0 1 0 1 0 1 0 2 0l109 0c9 0 16 7 16 17 0 9-7 16-16 16z"/>
<glyph unicode="&#57360;" d="M511 250c0 0 0 1 1 1 0 1 0 1 0 1 0 1 0 1 0 2 0 0 0 0 0 1 0 0 1 1 1 1 0 0-1 1-1 1 0 1 0 1 0 1 0 1 0 1 0 2 0 0 0 0 0 1-1 0-1 0-1 1 0 0 0 1-1 1 0 0 0 1 0 1-1 0-1 1-1 1 0 0 0 0 0 0 0 0 0 0 0 0l-49 47c0 0 0 0 0 0-1 0-1 1-1 1-1 0-1 0-2 1 0 0 0 0-1 0 0 0 0 0-1 1 0 0-1 0-1 0-1 0-1 0-2 0 0 0 0 0 0 0 0 0 0 0-1 0 0 0-1 0-1 0-1 0-1 0-1 0-1 0-1 0-2-1 0 0 0 0 0 0-1 0-1 0-1 0-1-1-1-1-2-1 0 0 0 0 0-1-1 0-1 0-1-1 0 0-1 0-1 0 0 0 0 0 0 0 0-1-1-1-1-2 0 0 0 0-1-1 0 0 0 0 0-1 0 0 0-1-1-1 0 0 0-1 0-1 0-1 0-1 0-2 0 0 0 0 0-1l0-33-14 0 0 33c0 1 0 1 0 1 0 1 0 1 0 2 0 0 0 1-1 1 0 0 0 1 0 1 0 1 0 1-1 1 0 1 0 1 0 1 0 1-1 1-1 2 0 0 0 0-1 0 0 0 0 0 0 0 0 1-1 1-1 1 0 1 0 1-1 1 0 0 0 0-1 1 0 0 0 0-1 0 0 0 0 0 0 0-1 1-2 1-2 1 0 0-1 0-1 0 0 0-1 0-2 0 0 0 0 0 0 0 0 0 0 0-1 0 0 0-1 0-1 0-1 0-1 0-1 0-1-1-1-1-1-1-1 0-1 0-2 0 0-1 0-1-1-1 0 0 0-1-1-1 0 0 0 0-1 0l-40-40c0 1-1 2-1 3 0 1 0 1 0 2 0 1-1 2-1 3 0 1 0 1 0 2 0 1-1 2-1 3 0 1 0 1-1 2 0 0 0 1 0 1 0 1 0 1-1 2 0 1 0 1 0 2-1 1-1 2-1 3-1 1-1 1-1 2-1 1-1 2-1 3-1 0-1 1-1 2-1 1-1 1-1 2-1 1-1 2-2 3 0 0 0 1-1 2 0 0-1 1-1 2-1 1-1 1-1 2-1 1-2 2-2 3-1 0-1 1-1 1-1 1-1 2-2 3l57 1c0 0 0 0 1 0 0 0 1 0 1 0 0 0 1 0 1 0 1 0 1 0 1 1 1 0 1 0 2 0 0 0 0 1 1 1 0 0 0 0 1 1 0 0 0 0 0 0 0 0 0 0 1 0 0 1 0 1 1 2 0 0 0 0 0 0 0 1 1 1 1 2 0 0 0 0 0 1 0 0 0 0 0 0 1 1 1 1 1 2 0 0 0 0 0 1 0 0 0 1 0 1 0 0 0 0 0 1 0 0 0 0 0 0 0 1 0 1 0 2 0 0 0 1-1 1 0 1 0 1 0 1 0 1 0 1-1 2 0 0 0 0 0 0-1 1-1 2-2 3l-23 23 9 10 24-24c0 0 1 0 1 0 0-1 1-1 1-1 0-1 1-1 1-1 1 0 1 0 1-1 1 0 1 0 2 0 0 0 0 0 1 0 0 0 1 0 1 0 0-1 1-1 1-1 0 0 0 0 0 0 0 0 0 0 0 0 1 0 2 0 3 1 0 0 1 0 1 0 0 0 1 0 1 0 1 1 1 1 2 1 0 0 0 0 0 1 1 0 2 1 2 1 0 0 0 0 0 0 0 0 1 1 1 1 0 0 0 1 1 1 0 0 0 1 0 1 1 0 1 1 1 1 0 1 0 1 0 1 0 1 1 1 1 2 0 0 0 1 0 1 0 0 0 1 0 1l1 67c0 0 0 0 0 0 0 0 0 0 0 0 0 1 0 1 0 1 0 1 0 1 0 2 0 0 0 1-1 1 0 1 0 1 0 1-2 4-6 7-11 8 0 0 0 0 0 0 0 0 0 0-1 0 0 0 0 0 0 0 0 0 0 0 0 0l-67-2c0 0 0 0-1 0 0 0-1 0-1 0-1 0-1 0-1 0-1 0-1 0-1-1-1 0-1 0-2 0 0 0 0 0-1-1 0 0 0 0-1-1 0 0 0 0-1 0 0 0 0 0 0 0 0-1 0-1-1-2 0 0 0 0 0 0 0-1-1-1-1-2 0 0 0 0 0 0 0-1 0-1-1-1 0-1 0-1 0-2 0 0 0 0 0-1 0 0 0-1 0-1 0 0 0 0 0 0 0-1 0-1 0-1 0-1 0-1 0-2 0 0 0-1 0-1 1 0 1-1 1-1 0-1 0-1 0-1 1-1 1-1 1-1 0-1 1-1 1-2 0 0 0 0 1 0l23-24-9-10-24 24c-1 0-1 0-1 1 0 0-1 0-1 0-1 1-1 1-1 1-1 0-1 0-1 1-1 0-1 0-2 0 0 0 0 0-1 0 0 1-1 1-1 1 0 0-1 0-1 0 0 0 0 0 0 0 0 0 0 0-1 0 0 0-1 0-2-1 0 0-1 0-1 0 0 0-1 0-1 0-1 0-1-1-2-1 0 0 0 0 0 0-1-1-2-1-2-2 0 0 0 0 0 0 0 0-1 0-1-1 0 0 0 0-1-1 0 0 0-1 0-1-1 0-1-1-1-1 0 0 0-1 0-1 0-1-1-1-1-1 0-1 0-1 0-2 0 0 0 0 0-1l-1-56c-1 0-1 1-2 1-1 1-1 1-2 1-1 1-2 2-3 2 0 1-1 1-1 1 0 0-1 0-1 1-1 0-1 0-2 1-1 0-1 0-2 1-1 0-2 1-3 1 0 1-1 1-2 1 0 1-1 1-2 1-1 1-2 1-2 1-1 1-2 1-3 1-1 1-2 1-2 1-1 1-2 1-3 1-1 0-2 1-3 1 0 0-1 0-1 0-1 1-3 1-4 1 0 0-1 1-1 1-2 0-3 0-4 0 0 1-1 1-2 1-1 0-1 0-2 0l39 41c0 0 0 0 0 1 1 0 1 0 1 1 1 0 1 1 1 1 0 0 0 1 1 1 0 0 0 1 0 1 0 1 0 1 0 1 0 1 0 1 0 2 0 0 0 0 0 1 0 0 0 0 0 0 0 0 0 1 0 2 0 0 0 0 0 0 0 1 0 1 0 2 0 0 0 0-1 1 0 0 0 0 0 1 0 0 0 0-1 1 0 0 0 0 0 1-1 0-1 0-1 1 0 0 0 0 0 0-1 0-1 0-1 0 0 1-1 1-1 1-1 1-1 1-1 1-1 0-1 0-1 0-1 1-1 1-2 1 0 0 0 0-1 0 0 0-1 0-1 0-1 0-1 0-1 0l-34 0 0 14 34 0c1 0 1 1 2 1 1 0 1 0 1 0 1 0 1 0 2 0 0 1 0 1 1 1 0 0 0 0 1 1 0 0 0 0 1 0 0 1 0 1 1 1 0 0 0 0 0 0 0 0 0 1 1 1 0 1 0 1 0 1 1 0 1 1 1 1 0 1 0 1 0 1 1 0 1 1 1 1 0 1 0 1 0 2 0 0 0 0 0 0 0 1 0 1 0 2 0 0 0 0 0 0 0 0 0 1 0 1 0 0 0 1 0 1 0 1 0 1 0 2 0 0 0 0 0 1-1 0-1 1-1 1 0 0 0 1-1 1 0 0 0 1-1 1 0 0 0 1 0 1l-47 48c0 0 0 0 0 0 0 0 0 0 0 0 0 1 0 1-1 1 0 0 0 1-1 1 0 0 0 0-1 1 0 0-1 0-1 0 0 0-1 0-1 0 0 1-1 1-1 1-1 0-1 0-1 0-1 0-1 0-2 0 0 0-1 0-1 0 0 0-1 0-1 0-1 0-1 0-1-1-1 0-1 0-1 0-1 0-1 0-2-1 0 0 0 0-1 0 0 0 0-1-1-1 0 0 0 0-1-1 0 0 0 0 0 0 0 0 0 0 0 0l-46-48c-1 0-1-1-1-1 0 0-1-1-1-1 0 0 0-1 0-1-1 0-1-1-1-1 0-1 0-1 0-1-1-1-1-1-1-2 0 0 0-1 0-1 0 0 0-1 0-1 0 0 0 0 0 0 0-1 0-1 0-2 0 0 0 0 0-1 0 0 1-1 1-1 0 0 0-1 0-1 0 0 0 0 1-1 0 0 0-1 0-1 0 0 1 0 1-1 0 0 0-1 1-1 0 0 0 0 0 0 0 0 0 0 1-1 0 0 0 0 1-1 0 0 1 0 1 0 0 0 1 0 1-1 0 0 1 0 1 0 1 0 1 0 1 0 1-1 2-1 3-1l34 0 0-14-34 0c-1 0-1 0-1 0-1 0-1 0-2 0 0 0 0 0-1 0 0 0-1 0-1 0 0-1-1-1-1-1 0 0-1 0-1-1-1 0-1 0-1-1-1 0-1 0-1 0 0 0 0 0 0 0-1-1-1-1-1-1 0-1-1-1-1-1 0-1 0-1 0-1-1-1-1-1-1-1 0-1 0-1 0-1 0-1-1-1-1-2 0 0 0 0 0 0 0-1 0-2 0-2 0 0 0 0 0 0 0-1 0-1 0-1 0-1 0-1 0-2 0 0 1 0 1-1 0 0 0-1 0-1 0 0 0-1 1-1 0 0 0-1 0-1 0-1 1-1 1-1 0-1 0-1 1-1l39-41c-1 0-2 0-3 0 0 0-1 0-2-1-1 0-2 0-3 0-1 0-1 0-2-1-1 0-2 0-3-1-1 0-1 0-2 0l0 0c-1 0-2-1-3-1-1 0-1 0-2-1-1 0-2 0-3-1 0 0-1 0-2-1-1 0-2 0-2-1-1 0-2 0-3-1 0 0-1 0-2-1-1 0-2-1-3-1 0-1-1-1-1-1-1-1-2-1-3-2-1 0-1 0-2-1-1 0-2-1-3-2 0 0-1 0-1-1-1 0-2-1-2-1l-1 56c0 1-1 1-1 1 0 1 0 1 0 2 0 0 0 1 0 1 0 0 0 1 0 1-2 4-6 8-12 8 0 0 0 0 0 0 0 0 0 0 0 0-1 0-1 0-1 0-1 0-1 0-2-1 0 0 0 0-1 0 0 0-1 0-1 0 0-1-1-1-1-1-1 0-1 0-1-1-1 0-1 0-1 0-1-1-1-1-1-1l-24-24-10 10 24 24c0 0 0 0 0 0 1 1 1 1 2 2 0 0 0 0 0 1 0 0 1 0 1 1 0 0 0 1 0 1 0 0 0 1 0 1 1 1 1 1 1 2 0 0 0 0 0 1 0 0 0 0 0 0 0 0 0 1 0 1 0 1 0 1 0 1-1 1-1 1-1 2 0 0 0 0 0 1 0 0 0 0-1 0 0 1 0 1 0 2 0 0-1 0-1 0 0 1 0 1-1 2 0 0 0 0 0 0 0 0 0 0-1 0 0 1 0 1-1 1 0 0 0 1-1 1 0 0-1 0-1 0 0 1-1 1-1 1-1 0-1 0-1 0-1 0-1 0-2 0 0 0 0 0-1 0l-67 2c0 0 0 0 0 0 0 0 0 0 0 0 0 0 0 0 0 0-1 0-1 0-1 0-1 0-1 0-2-1 0 0 0 0-1 0 0 0-1 0-1 0 0 0-1-1-1-1 0 0-1 0-1 0 0-1-1-1-1-1 0 0-1-1-1-1 0 0 0-1-1-1 0 0 0-1-1-1 0 0 0-1 0-1 0 0-1-1-1-1 0 0 0-1 0-1 0-1 0-1 0-1 0-1 0-1-1-2 0 0 0 0 0-1 0 0 0 0 0 0 0 0 0 0 0 0l2-67c0 0 0-1 0-1 0-1 0-1 0-1 0-1 0-1 0-2 0 0 0 0 1-1 0 0 0-1 0-1 0 0 1-1 1-1 0-1 0-1 1-1 0-1 0-1 0-1 0 0 0 0 0 0 1-1 2-1 2-2 0 0 1 0 1 0 0 0 1 0 1-1 1 0 1 0 2 0 0 0 0 0 1 0 1-1 1-1 2-1 0 0 0 0 0 0 0 0 0 0 0 0 1 0 1 0 1 0 1 1 1 1 2 1 0 0 1 0 1 0 0 0 1 0 1 0 1 1 1 1 1 1 1 0 1 0 1 1 1 0 1 0 2 1 0 0 0 0 0 0l24 24 10-10-24-24c0 0 0 0 0 0-1-1-1-1-1-2-1 0-1 0-1-1 0 0 0 0-1-1 0 0 0-1 0-1 0 0 0-1 0-1 0-1 0-1-1-2 0 0 0 0 0-1 0 0 0 0 0 0 0 0 0-1 1-1 0-1 0-1 0-1 0-1 0-1 0-2 0 0 0 0 0 0 0-1 1-1 1-1 0-1 0-1 0-2 1 0 1 0 1 0 0-1 1-1 1-2 0 0 0 0 0 0 0 0 1 0 1 0 0-1 1-1 1-1 0 0 1-1 1-1 0 0 1 0 1 0 0-1 1-1 1-1 1 0 1 0 1 0 1 0 1 0 2 0 0 0 1 0 1 0l56-1c0-1-1-2-1-3-1 0-1-1-1-1-1-1-1-2-2-3 0-1-1-1-1-2-1-1-1-2-2-3 0 0 0-1-1-1 0-1-1-2-1-3 0-1-1-1-1-2 0-1-1-2-1-3-1 0-1-1-1-2-1-1-1-1-1-2-1-1-1-2-1-3 0-1-1-1-1-2 0-1-1-2-1-3 0-1 0-1 0-2-1-1-1-2-1-3 0-1-1-1-1-2 0-1 0-2 0-3-1-1-1-1-1-2 0-1 0-2 0-3l-41 40c0 0 0 0-1 0 0 0 0 1-1 1 0 0 0 0-1 1 0 0-1 0-1 0 0 0-1 0-1 1-1 0-1 0-1 0-1 0-1 0-2 0 0 0 0 0-1 0 0 0 0 0 0 0 0 0-1 0-2 0 0 0 0 0 0 0-1 0-1 0-2-1 0 0 0 0-1 0 0 0 0 0-1 0 0-1-1-1-1-1 0 0 0 0-1-1 0 0 0 0-1-1 0 0 0 0 0 0 0 0 0 0 0 0-1-1-1-1-1-2-1 0-1 0-1-1 0 0 0 0 0-1-1 0-1-1-1-1 0 0 0-1 0-1 0-1 0-1 0-2 0 0 0 0 0-1l0-33-14 0 0 33c0 1 0 1 0 1 0 1 0 1-1 2 0 0 0 1 0 1 0 0 0 1 0 1 0 1-1 1-1 1 0 1 0 1 0 1-1 1-1 1-1 2-1 0-1 0-1 0 0 0 0 0 0 0 0 1-1 1-1 1 0 1-1 1-1 1 0 0-1 0-1 1 0 0-1 0-1 0 0 0-1 0-1 0 0 1-1 1-1 1-1 0-1 0-1 0-1 0-1 0-2 0 0 0 0 0 0 0 0 0-1 0-1 0 0 0-1 0-1 0-1 0-1 0-2 0 0-1 0-1-1-1 0 0-1 0-1 0 0-1-1-1-1-1 0 0-1-1-1-1 0 0-1 0-1 0l-48-47c0 0 0 0 0 0 0 0 0 0 0 0-1-1-1-1-1-1 0 0-1-1-1-1 0 0 0-1-1-1 0-1 0-1 0-1 0-1 0-1 0-1-1-1-1-1-1-2 0 0 0 0 0-1 0 0 0-1 0-1 0 0 0-1 0-1 0-1 0-1 0-1 0-1 0-1 1-2 0 0 0 0 0-1 0 0 0-1 0-1 1 0 1-1 1-1 0 0 1-1 1-1 0 0 0-1 1-1 0 0 0 0 0 0 0 0 0 0 0 0l48-47c0 0 1 0 1 0 0-1 1-1 1-1 0 0 1-1 1-1 0 0 1 0 1 0 1 0 1-1 2-1 0 0 0 0 0 0 1 0 2 0 3 0 0 0 0 0 0 0 1 0 2 0 2 0 1 0 1 0 2 0 0 1 1 1 1 1 1 0 1 1 2 1 0 0 0 0 0 0 1 1 2 1 2 2 0 0 0 0 0 0 0 0 0 0 1 0 0 1 0 1 1 2 0 0 0 0 0 1 0 0 1 0 1 1 0 0 0 1 0 1 0 0 0 1 0 1 0 1 1 1 1 2 0 0 0 0 0 0l0 34 14 0 0-34c0 0 0 0 0 0 0-1 0-1 0-2 0 0 0-1 0-1 0 0 0-1 1-1 0-1 0-1 0-1 0-1 0-1 1-1 0-1 0-1 1-2 0 0 0 0 0 0 0 0 0 0 0 0 1-1 1-1 2-2 0 0 0 0 0 0 1-1 2-1 2-1 1 0 1 0 1-1 1 0 1 0 2 0 1 0 1 0 2 0 0 0 0 0 0 0l0 0c1 0 2 0 3 0 0 0 0 0 1 0 0 0 1 1 1 1 0 0 1 0 1 0 1 0 1 1 1 1 1 0 1 0 1 1 1 0 1 0 1 0l41 40c0-1 0-2 0-3 0-1 0-1 1-2 0-1 0-2 0-3 0-1 1-2 1-2 0-1 0-2 1-3 0-1 0-2 0-2 0-1 1-2 1-3 0-1 1-2 1-2 0-1 0-2 1-3 0-1 0-1 1-2 0-1 0-2 1-2 0-1 0-2 1-3 0-1 0-1 1-2 0-1 1-2 1-3 1 0 1-1 1-1 1-1 1-3 2-4 0 0 0 0 1-1 0-1 1-2 2-3 0 0 0-1 1-1 0-1 1-2 1-3l-56-1c0 0-1 0-1 0-1 0-1 0-2 0 0 0 0 0-1 0 0 0-1-1-1-1 0 0-1 0-1 0 0-1-1-1-1-1 0 0-1-1-1-1 0 0-1 0-1 0 0 0 0 0 0-1 0 0-1 0-1-1 0 0 0 0-1 0 0-1 0-1 0-2 0 0-1 0-1-1 0 0 0 0 0-1 0 0 0-1 0-1 0 0 0-1 0-1-1 0-1-1-1-2 0 0 0 0 0 0 0 0 0 0 0-1 1 0 1 0 1-1 0 0 0-1 0-1 0-1 0-1 0-1 1-1 1-1 1-2 0 0 0 0 1 0 0-1 0-1 1-2 0 0 0 0 0 0l24-24-10-10-24 24c0 0 0 0 0 0-1 1-1 1-2 1 0 0 0 1-1 1 0 0 0 0-1 0 0 1-1 1-1 1 0 0-1 0-1 0-1 0-1 0-2 0 0 0 0 0-1 0 0 0 0 0 0 0 0 0 0 0 0 0-1 0-2 0-2 0-1 0-1 0-1 0-1 0-1 0-2 0 0-1-1-1-1-1 0 0-1 0-1-1 0 0-1-1-2-1 0 0 0 0 0 0 0 0 0-1 0-1-1 0-1-1-1-1 0 0-1-1-1-1 0 0 0-1 0-1-1-1-1-1-1-1 0-1 0-1 0-2 0 0 0-1 0-1 0 0 0-1 0-1l-2-67c0 0 0 0 0 0 0 0 0 0 0 0 0-1 0-1 0-1 0-1 1-1 1-2 0 0 0 0 0-1 0 0 0-1 0-1 0 0 1-1 1-1 0-1 0-1 0-1 1-1 1-1 1-1 1 0 1-1 1-1 0 0 1-1 1-1 0 0 1 0 1-1 0 0 1 0 1 0 0 0 1-1 1-1 0 0 1 0 1 0 1 0 1 0 1-1 1 0 1 0 2 0 0 0 0 0 1 0 0 0 0 0 0 0l0 0c0 0 0 0 0 0l67 1c1 0 1 0 1 0 1 1 1 1 2 1 0 0 0 0 1 0 0 0 1 0 1 0 0 1 1 1 1 1 0 0 1 0 1 1 1 0 1 0 1 1 1 0 1 0 1 0 0 0 0 0 0 0 0 1 1 1 1 2 0 0 1 0 1 0 0 1 0 1 0 1 1 1 1 1 1 1 0 1 0 1 0 1 0 1 0 1 1 2 0 0 0 0 0 1 0 0 0 1 0 1 0 0 0 0 0 0 0 1 0 1 0 1 0 1 0 1-1 2 0 0 0 0 0 1 0 0 0 1 0 1 0 0-1 1-1 1 0 1 0 1 0 1-1 1-1 1-2 2 0 0 0 0 0 0l-24 24 10 10 24-24c0 0 0 0 1-1 0 0 0 0 1-1 0 0 0 0 1 0 0 0 0-1 1-1 0 0 1 0 1 0 0 0 1 0 1-1 1 0 1 0 2 0 0 0 0 0 1 0 0 0 0 0 0 0l0 0c0 0 0 0 0 0 1 0 2 0 2 0 1 1 1 1 2 1 0 0 0 0 1 0 0 0 1 1 1 1 0 0 1 0 1 0 1 1 1 1 2 2 0 0 0 0 0 0 0 0 0 0 0 0 1 1 1 1 1 2 1 0 1 0 1 1 0 0 0 1 1 1 0 0 0 1 0 1 0 0 0 1 0 1 0 1 0 1 0 2 0 0 1 0 1 1l1 56c0 0 1-1 2-2 0 0 1 0 1 0 0 0 0 0 0 0 1-1 2-2 3-2 1-1 1-1 2-1 0-1 1-1 2-1 0-1 0-1 1-1 0 0 1-1 1-1 1 0 2-1 3-1 1-1 1-1 2-1 1-1 2-1 3-2 1 0 1 0 2 0 1-1 2-1 2-1 1-1 2-1 3-1 1-1 1-1 2-1 1 0 2-1 3-1 1 0 1 0 2-1 1 0 2 0 3 0 1-1 1-1 2-1 1 0 2 0 3-1 1 0 2 0 2 0 1 0 2 0 3 0l-39-41c-1 0-1-1-1-1 0 0-1-1-1-1 0 0 0-1 0-1-1 0-1-1-1-1 0-1 0-1 0-1-1-1-1-1-1-2 0 0 0-1 0-1 0 0 0-1 0-1 0 0 0 0 0 0 0-1 0-1 0-2 0 0 0 0 0-1 0 0 1 0 1-1 0 0 0-1 0-1 0 0 0 0 0-1 1 0 1-1 1-1 0 0 1 0 1-1 0 0 0-1 1-1 0 0 0 0 0 0 0 0 0 0 1-1 0 0 0 0 1 0 0-1 0-1 1-1 0 0 1 0 1-1 0 0 1 0 1 0 1 0 1 0 1 0 1 0 2-1 3-1l34 0 0-14-34 0c-1 0-1 0-1 0-1 0-1 0-2 0 0 0 0 0-1 0 0 0-1 0-1 0 0-1-1-1-1-1-1 0-1 0-1-1-1 0-1 0-1-1-1 0-1 0-1 0 0 0 0 0 0 0-1-1-1-1-1-1 0-1-1-1-1-1 0 0 0-1 0-1-1-1-1-1-1-1 0-1 0-1 0-1 0-1-1-1-1-2 0 0 0 0 0 0 0-1 0-2 0-2 0 0 0 0 0 0 0-1 0-1 0-1 0-1 0-1 0-2 0 0 0 0 1-1 0 0 0-1 0-1 0 0 0-1 0-1 1 0 1-1 1-1 0-1 1-1 1-1 0-1 0-1 1-1l46-48c0 0 0 0 0 0 0 0 0-1 0-1 1 0 1 0 1 0 1-1 1-1 1-1 1 0 1-1 2-1 0 0 0 0 0 0 1 0 2-1 2-1 0 0 1 0 1 0 1 0 1 0 2 0 1 0 2 0 3 0 0 0 0 0 0 0 1 0 1 1 2 1 0 0 1 0 1 0 0 0 1 1 1 1 1 0 1 0 1 1 0 0 1 0 1 0 0 0 0 1 0 1 0 0 0 0 0 0l47 48c0 0 0 0 0 1 1 0 1 0 1 1 1 0 1 1 1 1 0 0 0 1 0 1 1 0 1 1 1 1 0 1 0 1 0 1 0 1 0 1 0 2 0 0 0 0 0 1 0 0 0 0 0 0 0 0 0 1 0 2 0 0 0 0 0 0 0 1 0 1 0 2 0 0 0 0-1 1 0 0 0 0 0 1 0 0-1 0-1 1 0 0 0 0 0 1-1 0-1 0-1 1 0 0 0 0 0 0-1 0-1 0-1 0-1 1-1 1-1 1-1 1-1 1-1 1-1 0-1 0-2 1 0 0 0 0-1 0 0 0-1 0-1 0 0 0-1 0-1 0-1 0-1 0-1 0l-34 0 0 14 34 0c1 0 1 1 2 1 1 0 1 0 1 0 1 0 1 0 2 0 0 1 0 1 1 1 0 0 0 0 1 1 0 0 0 0 1 0 0 1 0 1 1 1 0 0 0 0 0 0 0 0 0 1 1 1 0 1 0 1 0 1 0 0 1 1 1 1 0 1 0 1 0 1 1 0 1 1 1 1 0 1 0 1 0 1 0 1 0 1 0 1 0 1 0 1 0 2 0 0 0 0 0 0 0 0 0 1 0 1 0 0 0 1 0 1 0 1 0 1 0 2 0 0 0 0-1 1 0 0 0 1 0 1 0 0 0 1-1 1 0 0 0 1-1 1 0 0 0 1 0 1l-39 41c1 0 2 0 2 0 1 0 2 0 2 0 1 1 2 1 4 1 0 0 1 0 1 1 1 0 2 0 4 0 0 1 1 1 1 1 1 0 2 1 3 1 1 0 2 0 2 1 1 0 2 0 3 1 1 0 2 0 2 0 1 1 2 1 3 2 1 0 1 0 2 1 1 0 2 0 2 1 1 0 2 1 3 1 1 0 1 1 2 1 1 1 2 1 3 2 0 0 1 0 1 1 1 0 2 1 3 1 1 1 1 1 2 2 0 0 1 1 2 1l1-56c0-1 0-1 0-1 0-1 0-1 0-2 0 0 0-1 1-1 0 0 0-1 0-1 0 0 0-1 1-1 0-1 0-1 0-1 0-1 1-1 1-2 0 0 0 0 1 0 0 0 0 0 0 0 0-1 1-1 2-2 0 0 0 0 0 0 1 0 1-1 2-1 0 0 1 0 1 0 0 0 1 0 1-1 1 0 2 0 2 0 1 0 1 0 1 0 0 0 0 0 0 0 0 0 0 0 0 0 0 0 0 0 1 0 0 0 1 0 1 0 1 1 1 1 1 1 1 0 1 0 2 0 0 0 0 1 1 1 0 0 0 0 1 0 0 1 1 1 1 1 0 1 0 1 1 1l23 24 10-10-23-24c0 0 0 0 0 0l-1 0c0 0 0 0 0 0 0-1-1-1-1-2 0 0 0 0-1-1 0 0 0-1 0-1 0 0-1-1-1-1 0-1 0-1 0-1 0-1 0-1 0-2 0 0 0 0 0-1 0 0 0 0 0 0 0 0 0-1 0-2 0 0 0 0 0 0 0-1 0-1 0-2 0 0 0 0 1-1 0 0 0 0 0-1 0 0 0 0 1-1 0 0 0 0 0 0 1-1 1-1 1-2 0 0 0 0 0 0 1 0 1 0 1 0 0-1 1-1 1-1 1-1 1-1 1-1 1 0 1 0 1-1 1 0 1 0 2 0 0 0 0 0 1 0 0 0 1-1 1-1 1 0 1 0 1 0l67-1c0 0 0 0 0 0 0 0 0 0 0 0 0 0 1 0 1 0 0 0 0 0 1 0 0 0 1 0 1 0 0 1 1 1 1 1 1 0 1 0 1 0 1 0 1 1 1 1 1 0 1 0 2 0 0 1 0 1 0 1 1 0 1 1 1 1 1 0 1 0 1 1 0 0 1 0 1 1 0 0 0 0 1 1 0 0 0 1 0 1 0 0 0 1 0 1 1 0 1 1 1 1 0 1 0 1 0 2 0 0 0 0 0 1 0 0 0 0 0 0 0 0 0 0 0 0l-1 67c0 0 0 1 0 1 0 0 0 1 0 1 0 1-1 1-1 2 0 0 0 0 0 1 0 0-1 1-1 1 0 0 0 1 0 1-1 0-1 1-1 1-1 0-1 1-1 1 0 0 0 0 0 0 0 0-1 1-2 1 0 0 0 1 0 1-1 0-1 0-2 1 0 0-1 0-1 0-1 0-1 0-1 0-1 0-2 0-3 0 0 0 0 0 0 0 0 0 0 0 0 0 0 0-1 0-1 0 0 0-1 0-1 0-1 0-1 0-2 0 0 0 0 0-1-1 0 0-1 0-1 0 0 0-1-1-1-1 0 0-1 0-1-1 0 0-1 0-1 0l-24-24-10 10 24 23c0 1 0 1 0 1l0 0c0 0 1 0 1 0 0 1 1 1 1 1 0 1 0 1 0 1 1 1 1 1 1 2 0 0 0 0 0 1 1 0 1 1 1 1 0 0 0 1 0 1 0 1 0 1 0 1 0 0 0 0 0 0 0 1 0 2 0 2 0 0 0 1 0 1 0 0 0 1-1 1 0 1 0 1 0 1 0 1 0 1 0 1 0 1-1 1-1 1 0 1 0 1 0 1-1 1-1 1-2 1 0 0 0 1 0 1 0 0 0 0 0 0-1 0-1 1-1 1-1 0-1 0-1 1-1 0-1 0-2 0 0 0 0 0-1 1 0 0-1 0-1 0 0 0-1 0-1 0-1 0-1 0-1 0l-57 1c1 1 1 2 2 2 0 1 0 1 1 2 0 1 1 2 1 3 1 0 1 1 2 2 0 0 1 1 1 2 0 1 1 1 1 2 1 1 1 2 2 3 0 0 0 1 1 2 0 1 0 1 1 2 0 1 0 2 1 3 0 0 0 1 1 2 0 1 0 2 1 3 0 0 0 1 0 2 1 1 1 2 1 3 1 0 1 1 1 1 0 2 0 3 1 4 0 0 0 1 0 1 0 2 1 3 1 4 0 0 0 1 0 1 0 1 1 2 1 3l40-39c1 0 1 0 1 0 1-1 1-1 1-1 1 0 1-1 1-1 1 0 1 0 1 0 1-1 1-1 2-1 0 0 0 0 1 0 1 0 1 0 2 0 0 0 0 0 0 0 1 0 2 0 3 0 0 0 1 0 1 0 0 1 1 1 1 1 1 0 2 0 2 1 0 0 1 0 1 0 0 1 1 1 1 2 0 0 0 0 0 0 1 0 1 0 1 0 0 1 1 1 1 1 0 1 0 1 0 2 1 0 1 0 1 1 0 0 0 1 0 1 0 0 1 1 1 1 0 1 0 1 0 2 0 0 0 0 0 0l0 34 14 0 0-34c0 0 0 0 0 0 0-1 0-1 0-2 0 0 0-1 0-1 1-1 1-1 1-1 0-1 0-1 0-1 1-1 1-1 1-2 0 0 1 0 1-1 0 0 0 0 0 0 0 0 0 0 0 0 1-1 1-1 2-2 0 0 0 0 0 0 1-1 2-1 3-1 0 0 0-1 1-1 0 0 1 0 1 0 1 0 2 0 2 0 0 0 1 0 1 0 0 0 1 0 2 0 0 0 1 0 1 0 0 0 1 0 1 1 1 0 1 0 1 0 1 0 1 1 1 1 1 0 1 0 2 1 0 0 0 0 0 0l49 47c0 0 0 0 0 0 0 0 0 0 0 0 0 0 0 1 1 1 0 0 0 1 0 1 1 0 1 1 1 1z"/>
<glyph unicode="&#57361;" d="M255 512c-141 0-255-114-255-255 0-141 114-255 255-255 141 0 255 114 255 255 0 141-114 255-255 255z m158-116c5 4 13 2 17-4l19-31c3-6 1-14-5-17-2-1-4-2-6-2-5 0-9 2-11 6l-19 31c-3 6-1 14 5 17z m-132 60l11 23c37-7 71-22 100-44l-13-26c-3-5-9-10-15-10l-42-3c-6-1-13 3-16 8l-24 35c-3 4-3 12-1 17z m-5-101l10 20c4 8 13 11 21 8 7-4 10-13 7-21l-10-20c-3-6-8-9-14-9-2 0-4 1-6 2-8 3-11 12-8 20z m-104 110c17 7 35 12 54 15l0 0c3-2 4-4 5-7 2-7-3-14-9-16l-35-8c-1 0-2 0-3 0-6 0-11 4-13 10 0 2 0 4 1 6z m-1-113l17-15c5-5 5-13 0-18-2-3-5-4-9-4-3 0-6 1-9 3l-16 16c-5 5-5 13-1 18 5 5 13 5 18 0z m-141-95c0 18 3 35 7 52l0 0c1 1 3 1 6 1 6-1 12-7 11-14l-3-36c0-6-6-11-13-11 0 0 0 0-1 0-2 0-5 1-7 3 0 1 0 3 0 5z m88-119c-1-5-5-12-10-15l-23-12c-24 27-41 60-49 97l21 11c5 3 13 2 18-1l36-22c4-3 8-10 8-16z m-27 210c-6-1-13 1-17 5l-15 14c18 32 44 59 75 79l15-15c4-4 6-12 5-17l-10-41c-2-6-7-11-12-13z m42-149c-3 6-1 14 5 17l21 11c6 3 13 1 17-5 3-6 1-14-5-17l-20-11c-2-1-4-2-6-2-5 0-9 3-12 7z m63-142c-2-5-7-8-12-8-2 0-3 0-5 1l-33 14c-6 3-9 10-7 16 3 7 10 10 17 7l33-14c6-2 9-10 7-16z m20 157l-24 35c-3 4-4 12-1 17l18 38c3 5 9 10 15 10l42 3c6 1 13-3 16-7l24-36c3-4 4-12 1-17l-19-38c-2-5-9-10-14-10l-42-3c-6 0-13 3-16 8z m67-67c1-7-3-13-10-15-1 0-2 0-2 0-6 0-12 4-13 11l-4 22c-1 7 3 13 10 15 7 1 14-4 15-10z m-28-115c-6 0-13 1-19 1l-6 33c-1 6 2 13 6 17l33 27c4 4 12 5 17 3l40-14c5-2 10-8 11-14l6-35c-27-11-57-18-88-18z m112 202c-1 0-1 0-2 0l-22 3c-7 0-12 7-11 14 0 7 7 12 14 11l22-3c7-1 12-8 11-14-1-7-6-11-12-11z m62-104l-24-27c-2-3-6-5-9-5-3 0-6 1-8 3-6 5-6 13-2 18l24 27c4 6 12 6 18 2 5-5 5-13 1-18z m0 53c-5 1-12 6-14 11l-16 40c-2 5-1 13 3 17l26 33c3 5 11 8 16 7l34-5c1-9 2-19 2-29 0-28-5-54-14-79z"/>
<glyph unicode="&#57362;" d="M368 206c1 3 3 5 5 7-3 1-5 2-8 2l-196 0c-9 0-16-7-16-16l0-174c114 31 196 100 215 181z m-208-204c3-1 6-2 9-2l196 0c9 0 16 7 16 15l0 153c-33-75-114-136-221-166z m316 287c-1 1-2 1-4 1 0 1-1 3-1 6 0 2 1 4 1 5 6 1 11 6 11 12 0 6-6 11-12 11-13 0-24-12-24-28 0-14 8-25 19-28 1 0 2-1 3-1 1-1 1-3 1-5 0-3 0-5-1-5-6-1-10-6-10-12 0-7 5-12 12-12 13 0 23 13 23 29 0 14-8 24-18 27z m-67 0c-1 1-2 1-3 1-1 1-2 3-2 6 0 2 1 4 2 5 5 1 10 6 10 12 0 6-6 11-12 11-13 0-23-12-23-28 0-14 7-25 18-28 1 0 2-1 3-1 1-1 2-3 2-5 0-3-1-5-2-5-6-1-10-6-10-12 0-7 5-12 12-12 13 0 23 13 23 29 0 14-8 24-18 27z m-364 35c-6 0-11-5-11-11 0-6 4-11 10-12 0-1 1-3 1-5 0-3-1-5-1-6-1 0-2 0-4-1-10-3-18-13-18-27 0-16 10-29 23-29 7 0 12 5 12 12 0 6-4 11-10 12 0 0-1 2-1 5 0 2 1 4 1 5 1 0 2 1 3 1 11 3 19 14 19 28 0 16-10 28-24 28z m67 0c-6 0-12-5-12-11 0-6 5-11 11-12 0-1 1-3 1-5 0-3-1-5-1-6-2 0-3 0-4-1-10-3-18-13-18-27 0-16 10-29 23-29 7 0 12 5 12 12 0 6-4 11-10 12-1 0-1 2-1 5 0 2 0 4 1 5 1 0 2 1 3 1 11 3 19 14 19 28 0 16-11 28-24 28z m49-4c0-54 44-97 98-97 54 0 98 43 98 97 0 12-2 24-6 34 11 13 18 28 18 45 0 15-5 29-15 40-1 1-3 1-5 2-4 1-9 2-14 3-6 2-11 8-9 15 0 0 0 1 1 2 2 5 7 8 13 7 1-1 3-1 4-1-12 26-41 45-75 45-45 0-81-31-81-70 10 4 20 7 33 10 4 1 8 0 11-3 2-2 3-4 3-6 1-2 1-4 0-6-1-4-4-7-9-8-4-1-8-2-12-3-8-3-15-5-21-8-4-2-7-4-10-6 0 0 0 0 0 0-4-5-8-10-11-15-1-2-2-4-3-7l0 0c-3-7-4-15-4-23 0-5 0-9 2-14l0 0c-4-10-6-21-6-33z m24 1c0 23 10 43 27 57 3 2 6 5 10 7 11 6 23 10 37 10 17 0 33-6 46-16 8-7 15-14 20-23 2-6 5-11 6-17 2-6 2-12 2-19 0-41-33-74-74-74-41 0-74 33-74 74z"/>
<glyph unicode="&#57363;" d="M491 461l-465 0c-15 0-26-12-26-25l0-285c0-14 11-25 26-25l55 0 15-26 26-45 27 45 15 26 327 0c14 0 26 11 26 25l0 285c0 13-12 25-26 25z"/>
<glyph unicode="&#57364;" d="M238 343c1-2 2-4 3-6 0 0 0 0 0 0 4-7 10-12 16-16 7-4 15-6 24-6 26 0 47 21 47 47 0 7-1 13-4 18-7 17-23 29-43 29-26 0-47-21-47-47 0-7 1-13 4-19z m154 169l-267 0c-9 0-17-8-17-17l0-481c0-9 8-17 17-17l267 0c9 0 16 8 16 17l0 481c0 9-7 17-16 17z m-265-29c0 5 4 10 10 10 5 0 9-5 9-10 0-5-4-9-9-9-6 0-10 4-10 9z m132-436c-63 0-115 52-115 115 0 29 11 55 29 76-19 10-33 31-33 54 0 30 22 55 50 61 0 3 0 6 0 9 0 51 41 92 91 92 50 0 91-41 91-92 0-46-34-85-79-90 47-15 80-59 80-110 0-63-51-115-114-115z m121 427c-5 0-9 4-9 9 0 5 4 10 9 10 5 0 9-5 9-10 0-5-4-9-9-9z m-193-205c4-3 10-5 15-5 2 0 4 0 5 0l0 0c5 1 9 3 12 6 6 4 9 10 11 16 0 2 0 4 0 6 0 13-8 24-20 27-2 1-5 1-8 1 0 0-1 0-2 0-14-1-26-13-26-28 0-10 5-18 13-23z m72-29c-43 0-78-35-78-78 0-43 35-78 78-78 43 0 78 35 78 78 0 43-35 78-78 78z m0-123c-25 0-44 20-44 45 0 25 19 44 44 44 24 0 44-19 44-44 0-25-20-45-44-45z"/>
<glyph unicode="&#57365;" d="M499 501l-98 0c-6 0-11-5-11-11l0-87-86 0c-6 0-11-5-11-11l0-87-87 0c-6 0-11-5-11-11l0-88-87 0c-6 0-10-5-10-11l0-87-87 0c-6 0-11-5-11-11l0-76c0-6 5-11 11-11l488 0c6 0 11 5 11 11l0 469c0 6-5 11-11 11z"/>
<glyph unicode="&#57366;" d="M427 491l-175-296c0 0-13-22-52-18-39 5-48 5-65-12-17-18-30-22-82-31-52-8-78-42-21-68 56-26 166-43 166-43l49 0c0 0 39 13 78 116 35 99 95 107 95 107 0 0 8-143 5-178l0 0c0 0 0-1-1-1 0 0 0 0 0 0 0-1 0-2 0-3 0-11 5-20 11-20 3 0 5 2 7 5 0 5 1 13 2 25 7 63 25 209 64 272-2 38 8 68-81 145z"/>
<glyph unicode="&#57367;" d="M510 255c1 0 1-1 1-1 0 0 0 1-1 1l0 0c0 0 0 0 0 0 0 1 0 1 0 1 0 0 0 0 0 0-1 3-2 7-4 10-4 6-10 11-17 13-9 3-18 2-26 0-10-1-20-4-30-5-8-1-15-3-23-3l1 8c0 6-5 11-11 11l-15 0 21 5c5 1 7 5 6 9-1 4-5 7-9 6l-36-8c-2 2-5 3-7 2l-23-5c-1 2-3 3-5 4l-39 10c-4 2-9-1-10-5 0 0 0-1 0-1l-8-2c1 1 1 3 0 5-1 5-5 7-9 6l-16-3c0 0-1 0-2 0l-39 11c-4 1-9-1-10-5-1-5 1-9 6-10l17-5c0 0 0 0 0 0l-35 9c-1 1-2 1-4 1l-19 5c-4 1-9-1-10-6-1-4 2-8 6-9l3-1c-2-1-3-2-5-3 0 0-1 0-2 0-1 0-3 0-4 0l-20 5c-5 2-9-1-10-5-1-4 1-9 5-10l2 0-18 0c-6 0-11-5-11-11l1-8c-5 0-9 1-14 2-14 2-28 5-43 7-6 1-12 2-19 0-6-1-11-4-15-8-14-13-13-36 3-48 5-4 12-6 18-7 7-2 15-3 22-4 15-3 30-5 46-7 3-1 7-1 10-1l2-9c0-6 4-11 10-11l268 0c6 0 11 5 11 11l1 9c21 2 41 5 62 9 13 2 28 3 38 12 8 8 12 19 9 29z"/>
<glyph unicode="&#57368;" d="M79 269l-67 0c-7 0-12-5-12-12 0-7 5-12 12-12l67 0c6 0 12 5 12 12 0 7-6 12-12 12z m43 104c2-2 5-3 8-3 3 0 7 1 9 3 5 5 5 13 0 17l-24 24c-4 5-12 5-17 0-5-5-5-13 0-17z m133-280c-7 0-12-5-12-12l0-66c0-7 5-13 12-13 7 0 12 6 12 13l0 66c0 3-1 6-3 9-3 2-6 3-9 3z m243 176l-67 0c-6 0-12-5-12-12 0-7 6-12 12-12l67 0c7 0 12 5 12 12 0 7-5 12-12 12z m-110-128c-4 5-12 5-17 0-5-5-5-12 0-17l24-23c2-3 5-4 8-4 3 0 6 1 9 4 5 4 5 12 0 17z m-266 0l-24-23c-5-5-5-13 0-17 3-3 6-4 9-4 3 0 6 1 8 4l24 23c5 5 5 12 0 17-5 5-13 5-17 0z m133 280c7 0 12 6 12 12l0 67c0 7-5 12-12 12-7 0-12-5-12-12l0-67c0-6 5-12 12-12z m140-7l-24-24c-5-4-5-12 0-17 2-2 6-3 9-3 3 0 6 1 8 3l24 24c5 4 5 12 0 17-5 5-13 5-17 0z m-140-42c-63 0-115-52-115-115 0-63 52-114 115-114 63 0 115 51 115 114 0 63-52 115-115 115z"/>
<glyph unicode="&#57369;" d="M507 363c-2 5-9 7-14 5l-338-176c-5-3-7-9-5-14 2-4 6-6 9-6 2 0 3 0 5 1l339 177c5 2 7 8 4 13z m-390-196c1 1 2 3 2 5 0 7-10 12-22 12-8 0-14-2-18-6-4 3-10 4-16 4-4 0-8 0-11-1-4 2-9 3-15 3-12 0-22-5-22-12 0-3 2-5 4-7-12-4-19-9-19-15 0 0 0-1 0-1 0-1 0-2 0-3l0-57c0 0 0 0 0-1 0 0 0 0 0 0 0-2 1-4 2-6 0 0 0 0 0 0 1-1 3-2 4-3 12-7 36-13 65-13 29 0 54 6 65 13 2 1 3 2 4 3 0 0 0 0 0 0 2 2 2 4 2 6 0 0 0 0 0 0 0 1 0 1 0 1l0 57c0 1 0 2 0 3 0 0 0 1 0 1 0 7-10 13-25 17z m19 30c2 0 4 1 6 2l306 229c5 4 6 10 2 15-3 4-10 5-14 2l-306-229c-4-4-5-10-2-15 2-2 5-4 8-4z"/>
<glyph unicode="&#57370;" d="M455 512l-397 0c-8 0-14-7-14-15l0-477c0-8 6-15 14-15l397 0c8 0 15 7 15 15l0 477c0 8-7 15-15 15z m-198-488c-8 0-14 6-14 14 0 8 6 14 14 14 7 0 14-6 14-14 0-8-7-14-14-14z m178 63c0-6-5-12-12-12l-333 0c-7 0-12 6-12 12l0 382c0 6 5 12 12 12l333 0c7 0 12-6 12-12z"/>
<glyph unicode="&#57371;" d="M505 272l-496 0c-5 0-9-4-9-9l0-100c0-5 4-9 9-9 5 0 9 4 9 9l0 92 20 0 0-92c0-1 0-2 1-3-1 0-1-1-1-2 0-2 2-4 5-4l428 0c2 0 4 2 4 4 0 2-1 3-2 4 0 0 0 1 0 1l0 92 23 0 0-92c0-5 4-9 9-9 4 0 8 4 8 9l0 100c0 5-4 9-8 9z m-64-17l15 0 0-12-15 0z m0-21l15 0 0-11-15 0z m0-20l15 0 0-10-15 0z m0-19l15 0 0-10-15 0z m-25 60l17 0 0-12-17 0z m0-21l17 0 0-11-17 0z m0-20l17 0 0-10-17 0z m0-19l17 0 0-10-17 0z m-25 60l16 0 0-12-16 0z m0-21l16 0 0-11-16 0z m0-20l16 0 0-10-16 0z m0-19l16 0 0-10-16 0z m-26 60l17 0 0-12-17 0z m0-21l17 0 0-11-17 0z m0-20l17 0 0-10-17 0z m0-19l17 0 0-10-17 0z m-25 60l16 0 0-12-16 0z m0-21l16 0 0-11-16 0z m0-20l16 0 0-10-16 0z m0-19l16 0 0-10-16 0z m-26 60l17 0 0-12-17 0z m0-21l17 0 0-11-17 0z m0-20l17 0 0-10-17 0z m0-19l17 0 0-10-17 0z m-25 9l0 10 16 0 0-10z m16-9l0-10-16 0 0 10z m-16 60l16 0 0-12-16 0z m0-21l16 0 0-11-16 0z m-24 21l15 0 0-12-15 0z m0-21l15 0 0-11-15 0z m0-20l15 0 0-10-15 0z m0-19l15 0 0-10-15 0z m-32 60l15 0 0-12-15 0z m0-21l15 0 0-11-15 0z m0-20l15 0 0-10-15 0z m0-19l15 0 0-10-15 0z m-25 60l17 0 0-12-17 0z m0-21l17 0 0-11-17 0z m0-20l17 0 0-10-17 0z m0-19l17 0 0-10-17 0z m-25 60l16 0 0-12-16 0z m0-21l16 0 0-11-16 0z m0-20l16 0 0-10-16 0z m0-19l16 0 0-10-16 0z m-26 60l17 0 0-12-17 0z m0-21l17 0 0-11-17 0z m0-20l17 0 0-10-17 0z m0-19l17 0 0-10-17 0z m-25 60l16 0 0-12-16 0z m0-21l16 0 0-11-16 0z m0-20l16 0 0-10-16 0z m0-19l16 0 0-10-16 0z m-26 60l17 0 0-12-17 0z m0-21l17 0 0-11-17 0z m0-20l17 0 0-10-17 0z m0-19l17 0 0-10-17 0z m-25 60l16 0 0-12-16 0z m0-21l16 0 0-11-16 0z m0-20l16 0 0-10-16 0z m0-19l16 0 0-10-16 0z m-25 60l16 0 0-12-16 0z m0-21l16 0 0-11-16 0z m0-20l16 0 0-10-16 0z m0-19l16 0 0-10-16 0z m0-33c0 1 0 1 0 1l0 13 16 0 0-13c0 0 0 0 0-1z m25 0c0 1 0 1 0 1l0 13 16 0 0-13c0 0 0 0 0-1z m25 0c0 1 0 1 0 1l0 13 17 0 0-13c0 0 0 0 0-1z m26 0c0 1 0 1 0 1l0 13 16 0 0-13c0 0 0 0 0-1z m25 0c0 1 0 1 0 1l0 13 17 0 0-13c0 0 0 0 0-1z m26 0c0 1 0 1 0 1l0 13 16 0 0-13c0 0 0 0 0-1z m25 0c0 1 0 1 0 1l0 13 17 0 0-13c0 0 0 0 0-1z m25 0c0 1 0 1 0 1l0 13 15 0 0-13c0 0 0 0 0-1z m32 0c0 1 0 1 0 1l0 13 15 0 0-13c0 0 0 0 0-1z m24 0c0 1 0 1 0 1l0 13 16 0 0-13c0 0 0 0 0-1z m25 0c0 1 0 1 0 1l0 13 17 0 0-13c0 0 0 0 0-1z m26 0c0 1 0 1 0 1l0 13 16 0 0-13c0 0 0 0 0-1z m25 0c0 1 0 1 0 1l0 13 17 0 0-13c0 0 0 0 0-1z m26 0c0 1 0 1 0 1l0 13 16 0 0-13c0 0 0 0 0-1z m25 0c0 1 0 1 0 1l0 13 17 0 0-13c0 0 0 0 0-1z m25 0c0 1 0 1 0 1l0 13 15 0 0-13c0 0 0 0 0-1z m-74 186c0-7-5-13-12-13-7 0-13 6-13 13 0 7 6 13 13 13 7 0 12-6 12-13z"/>
</font>
</defs>
</svg>
