<?xml version="1.0" encoding="utf-8"?>
<!-- Generator: Adobe Illustrator 22.0.1, SVG Export Plug-In . SVG Version: 6.00 Build 0)  -->
<svg version="1.1" id="Layer_1" xmlns="http://www.w3.org/2000/svg" xmlns:xlink="http://www.w3.org/1999/xlink" x="0px" y="0px"
	 viewBox="0 0 30 34" style="enable-background:new 0 0 30 34;" xml:space="preserve">
<style type="text/css">
	.st0{ fill: silver; }
</style>
<path class="st0" d="M30,0c-3.9,0-5.9,1.6-7.8,3.1C20.3,4.6,18.6,6,15,6c-3.6,0-5.3-1.4-7.2-2.9C5.9,1.6,3.9,0,0,0c0,0,0,0,0,0v1
	c0,0,0,0,0,0c3.5,0,5.3,1.4,7.2,2.9C9.1,5.4,11.1,7,15,7c3.9,0,5.9-1.6,7.8-3.1C24.7,2.4,26.4,1,30,1c0,0,0,0,0,0L30,0
	C30,0,30,0,30,0"/>
<path class="st0" d="M21.4,0h-1.9c-1.2,0.6-2.5,1-4.4,1c-1.9,0-3.3-0.4-4.4-1H8.6C10.2,1.1,12,2,15,2S19.8,1.1,21.4,0"/>
<path class="st0" d="M22.2,7.9c-1.9,1.5-3.6,2.9-7.2,2.9c-3.6,0-5.3-1.4-7.2-2.9C5.9,6.4,3.9,4.8,0,4.8c0,0,0,0,0,0v1c0,0,0,0,0,0
	c3.5,0,5.3,1.4,7.2,2.9c1.9,1.5,3.9,3.1,7.8,3.1c3.9,0,5.9-1.6,7.8-3.1c1.9-1.5,3.6-2.9,7.2-2.9c0,0,0,0,0,0v-1c0,0,0,0,0,0
	C26.1,4.8,24.1,6.4,22.2,7.9"/>
<path class="st0" d="M22.2,12.7c-1.9,1.5-3.6,2.9-7.2,2.9c-3.6,0-5.3-1.4-7.2-2.9C5.9,11.2,3.9,9.6,0,9.6c0,0,0,0,0,0v1c0,0,0,0,0,0
	c3.5,0,5.3,1.4,7.2,2.9c1.9,1.5,3.9,3.1,7.8,3.1c3.9,0,5.9-1.6,7.8-3.1c1.9-1.5,3.6-2.9,7.2-2.9c0,0,0,0,0,0v-1c0,0,0,0,0,0
	C26.1,9.6,24.1,11.2,22.2,12.7"/>
<path class="st0" d="M22.2,17.5c-1.9,1.5-3.6,2.9-7.2,2.9c-3.6,0-5.3-1.4-7.2-2.9C5.9,16,3.9,14.4,0,14.4c0,0,0,0,0,0v1c0,0,0,0,0,0
	c3.5,0,5.3,1.4,7.2,2.9c1.9,1.5,3.9,3.1,7.8,3.1c3.9,0,5.9-1.6,7.8-3.1c1.9-1.5,3.6-2.9,7.2-2.9c0,0,0,0,0,0v-1c0,0,0,0,0,0
	C26.1,14.4,24.1,16,22.2,17.5"/>
<path class="st0" d="M22.2,22.3c-1.9,1.5-3.6,2.9-7.2,2.9c-3.6,0-5.3-1.4-7.2-2.9c-1.9-1.5-3.9-3.1-7.8-3.1c0,0,0,0,0,0v1
	c0,0,0,0,0,0c3.5,0,5.3,1.4,7.2,2.9c1.9,1.5,3.9,3.1,7.8,3.1c3.9,0,5.9-1.6,7.8-3.1c1.9-1.5,3.6-2.9,7.2-2.9c0,0,0,0,0,0v-1
	c0,0,0,0,0,0C26.1,19.2,24.1,20.8,22.2,22.3"/>
<path class="st0" d="M22.2,27.1C20.3,28.6,18.6,30,15,30c-3.6,0-5.3-1.4-7.2-2.9C5.9,25.6,3.9,24,0,24c0,0,0,0,0,0v1c0,0,0,0,0,0
	c3.5,0,5.3,1.4,7.2,2.9C9.1,29.4,11.1,31,15,31c3.9,0,5.9-1.6,7.8-3.1c1.9-1.5,3.6-2.9,7.2-2.9c0,0,0,0,0,0v-1c0,0,0,0,0,0
	C26.1,24,24.1,25.6,22.2,27.1"/>
<path class="st0" d="M22.2,32.1c-0.9,0.7-1.7,1.4-2.7,1.9h1.9c0.5-0.4,1-0.7,1.4-1.1c1.9-1.5,3.6-2.9,7.1-2.9c0,0,0,0,0,0v-1
	c0,0,0,0,0,0C26.1,29,24.1,30.6,22.2,32.1"/>
<path class="st0" d="M0,29C0,29,0,29,0,29l0,1c0,0,0,0,0,0c3.5,0,5.3,1.4,7.2,2.9c0.5,0.4,0.9,0.8,1.4,1.1h1.9
	c-1-0.5-1.9-1.2-2.7-1.9C5.9,30.6,3.9,29,0,29"/>
</svg>
