<?xml version="1.0" encoding="UTF-8" standalone="no"?>
<svg width="90px" height="90px" viewBox="0 0 90 90" version="1.1" xmlns="http://www.w3.org/2000/svg" xmlns:xlink="http://www.w3.org/1999/xlink" xmlns:sketch="http://www.bohemiancoding.com/sketch/ns">
    <!-- Generator: Sketch 3.4.3 (16044) - http://www.bohemiancoding.com/sketch -->
    <title>ic_bell_outline</title>
    <desc>Created with Sketch.</desc>
    <defs></defs>
    <g id="Page-1" stroke="none" stroke-width="1" fill="none" fill-rule="evenodd" sketch:type="MSPage">
        <g id="ic_bell_outline" sketch:type="MSArtboardGroup">
            <g id="Group" sketch:type="MSLayerGroup" transform="translate(10.000000, 8.000000)">
                <path d="M46,38.0088187 C46,37.8774482 45.9957937,37.7470648 45.9875088,37.6177963 C45.9958095,37.4128964 46,37.2069376 46,37 C46,28.7157288 39.2842712,22 31,22 C22.7157288,22 16,28.7157288 16,37 C16,37.207003 16.0041931,37.4130266 16.0124991,37.6179906 C16.004209,37.7471978 16,37.8775165 16,38.0088187 L16,46 C15.9906833,46.1641669 16,46.3309955 16,46.5 C16,48.8198874 14.2445151,50.7297594 11.9894747,50.9736866 C9.23902544,51 7,53.2441952 7,56 C7,58.7614237 9.23479023,61 12.0010033,61 L49.9989967,61 C52.7609746,61 55,58.7558048 55,56 C55,53.2389101 52.7657501,51.0005413 50,51.0000001 C47.7628938,50.7378096 46,48.8247778 46,46.5 C46,46.3309955 46.0093167,46.1641669 46.0274644,46 L46,38.0088187 Z" id="Oval-42-Copy" stroke="#FFFFFF" stroke-width="4" sketch:type="MSShapeGroup" transform="translate(31.000000, 41.500000) rotate(-330.000000) translate(-31.000000, -41.500000) "></path>
                <g id="Rectangle-18-Copy-3-+-Rectangle-18-+-Rectangle-18-Copy-+-Oval-42" transform="translate(46.133975, 14.401924) rotate(-330.000000) translate(-46.133975, -14.401924) translate(30.633975, 6.901924)" sketch:type="MSShapeGroup">
                    <g id="Rectangle-18-+-Rectangle-18-Copy-+-Oval-42" transform="translate(0.000000, 0.000000)">
                        <path d="M9.99356049,10.3758223 C8.42265279,11.0598916 5.27642529,12.4299515 5.27642529,12.4299515 C2.36233607,13.6989241 9.23705556e-14,12.1471345 9.23705556e-14,8.97665431 L9.23705556e-14,5.26668324 C9.23705556e-14,2.09050722 2.36197461,0.544256016 5.2688058,1.81006809 L10.8121586,4.38079166" id="Rectangle-18" stroke="#FFFFFF" stroke-width="4"></path>
                        <path d="M29.9660385,10.2976014 C29.9660385,10.2976014 29.8450559,10.3502847 29.7889609,10.3747119 C28.2172031,11.0591513 25.0704354,12.4294464 25.0704354,12.4294464 C22.1557056,13.698698 19.7928503,12.1471345 19.7928503,8.97665431 L19.7928503,5.26668324 C19.7928503,2.09050722 22.1548249,0.544256016 25.0616561,1.81006809 L30.1731883,4.23463397" id="Rectangle-18-Copy" stroke="#FFFFFF" stroke-width="4" transform="translate(24.983019, 7.120374) scale(-1, 1) translate(-24.983019, -7.120374) "></path>
                        <circle id="Oval-42" cx="15.5" cy="7.5" r="5.5"></circle>
                        <path d="M15.5,15 C19.6421356,15 23,11.6421356 23,7.5 C23,3.35786438 19.6421356,-3.90798505e-14 15.5,-3.90798505e-14 C11.3578644,-3.90798505e-14 8,3.35786438 8,7.5 C8,11.6421356 11.3578644,15 15.5,15 L15.5,15 Z M15.5,11 C13.5670034,11 12,9.43299662 12,7.5 C12,5.56700338 13.5670034,4 15.5,4 C17.4329966,4 19,5.56700338 19,7.5 C19,9.43299662 17.4329966,11 15.5,11 L15.5,11 Z" id="Shape" fill="#FFFFFF"></path>
                    </g>
                </g>
            </g>
        </g>
    </g>
</svg>