<?xml version="1.0" encoding="UTF-8" standalone="no"?>
<svg width="90px" height="90px" viewBox="0 0 90 90" version="1.1" xmlns="http://www.w3.org/2000/svg" xmlns:xlink="http://www.w3.org/1999/xlink" xmlns:sketch="http://www.bohemiancoding.com/sketch/ns">
    <!-- Generator: Sketch 3.4.3 (16044) - http://www.bohemiancoding.com/sketch -->
    <title>ic_candy_outline</title>
    <desc>Created with Sketch.</desc>
    <defs></defs>
    <g id="Page-1" stroke="none" stroke-width="1" fill="none" fill-rule="evenodd" sketch:type="MSPage">
        <g id="ic_candy_outline" sketch:type="MSArtboardGroup" fill="#FFFFFF">
            <g id="Oval-7-Copy-+-Rectangle-+-Rectangle-Copy" sketch:type="MSLayerGroup" transform="translate(19.000000, 12.000000)">
                <path d="M33,23 C33,17.4544227 28.9377657,13 24,13 C18.2532949,13 14,17.2532949 14,23 C14,25.7614237 11.7614237,28 9,28 C6.23857625,28 4,25.7614237 4,23 C4,22.8404704 4.00740736,22.6821421 4.02210601,22.5252832 C4.57712239,12.1283177 13.1229771,4 23.5,4 C33.9518496,4 42.5342201,12.2419215 42.9816785,22.6461982 C42.9947069,22.848995 42.9992819,22.9721562 43.0002649,23.0325478 L43,58 C43,60.7614237 40.7614237,63 38,63 C35.2385763,63 33,60.7614237 33,58 L33,23 L33,23 Z M29,23 L29,58 C29,62.9705627 33.0294373,67 38,67 C42.9705627,67 47,62.9705627 47,58 L47,23 C46.9977283,22.8441516 46.9907242,22.6555984 46.9753451,22.4263783 C46.4385723,9.93194879 36.0963646,0 23.5,0 C10.9937216,0 0.69565903,9.79491543 0.0336564937,22.2323858 C0.0132335716,22.4329641 0,22.7158245 0,23 C0,27.9705627 4.02943725,32 9,32 C13.9705627,32 18,27.9705627 18,23 C18,19.4624339 20.4624339,17 24,17 C26.6421478,17 29,19.5854911 29,23 L29,23 Z" id="Shape" sketch:type="MSShapeGroup"></path>
            </g>
        </g>
    </g>
</svg>