<?xml version="1.0" encoding="UTF-8" standalone="no"?>
<svg width="90px" height="90px" viewBox="0 0 90 90" version="1.1" xmlns="http://www.w3.org/2000/svg" xmlns:xlink="http://www.w3.org/1999/xlink" xmlns:sketch="http://www.bohemiancoding.com/sketch/ns">
    <!-- Generator: Sketch 3.4.3 (16044) - http://www.bohemiancoding.com/sketch -->
    <title>ic_deer_outline</title>
    <desc>Created with Sketch.</desc>
    <defs></defs>
    <g id="Page-1" stroke="none" stroke-width="1" fill="none" fill-rule="evenodd" sketch:type="MSPage">
        <g id="ic_deer_outline" sketch:type="MSArtboardGroup" fill="#FFFFFF">
            <g id="Group" sketch:type="MSLayerGroup" transform="translate(14.000000, 12.000000)">
                <path d="M47.7008772,8.70087719 L47.7008772,5.99419284 C47.7008772,4.88962334 46.8054467,3.99419284 45.7008772,3.99419284 C44.5963077,3.99419284 43.7008772,4.88962334 43.7008772,5.99419284 L43.7008772,13.7008772 C43.7008772,14.8054467 44.5963077,15.7008772 45.7008772,15.7008772 C46.8054467,15.7008772 47.7008772,14.8054467 47.7008772,13.7008772 L47.7008772,12.7008772 L59.4055772,12.7008772 C59.4552374,12.7008772 59.5044748,12.6990673 59.5532272,12.6955098 C59.6019795,12.6990673 59.651217,12.7008772 59.7008772,12.7008772 C60.8054467,12.7008772 61.7008772,11.8054467 61.7008772,10.7008772 L61.7008772,2.99419284 C61.7008772,1.88962334 60.8054467,0.994192839 59.7008772,0.994192839 C58.5963077,0.994192839 57.7008772,1.88962334 57.7008772,2.99419284 L57.7008772,8.70087719 L54.7008772,8.70087719 L54.7008772,2.99419284 C54.7008772,1.88962334 53.8054467,0.994192839 52.7008772,0.994192839 C51.5963077,0.994192839 50.7008772,1.88962334 50.7008772,2.99419284 L50.7008772,8.70087719 L47.7008772,8.70087719 Z M14,8.70668435 L14,6 C14,4.8954305 14.8954305,4 16,4 C17.1045695,4 18,4.8954305 18,6 L18,13.7066844 C18,14.8112539 17.1045695,15.7066844 16,15.7066844 C14.8954305,15.7066844 14,14.8112539 14,13.7066844 L14,12.7066844 L2.29530001,12.7066844 C2.24563982,12.7066844 2.19640236,12.7048744 2.14765,12.7013169 C2.09889765,12.7048744 2.04966019,12.7066844 2,12.7066844 C0.8954305,12.7066844 0,11.8112539 0,10.7066844 L0,3 C0,1.8954305 0.8954305,1 2,1 C3.1045695,1 4,1.8954305 4,3 L4,8.70668435 L7,8.70668435 L7,3 C7,1.8954305 7.8954305,1 9,1 C10.1045695,1 11,1.8954305 11,3 L11,8.70668435 L14,8.70668435 Z" id="Path-58" sketch:type="MSShapeGroup"></path>
                <path d="M18,25.00181 C18,23.8943742 18.89323,23 19.9992748,23 L42.0007252,23 C43.1040106,23 44,23.8967771 44,25.00181 L44,49.9961276 C44,57.1787504 38.180741,63 31,63 C23.8164319,63 18,57.18498 18,49.9961276 L18,25.00181 L18,25.00181 Z M14,25.00181 L14,49.9961276 C14,59.3943364 21.6075103,67 31,67 C40.3901863,67 48,59.3875832 48,49.9961276 L48,25.00181 C48,21.6884246 45.3139369,19 42.0007252,19 L19.9992748,19 C16.6829439,19 14,21.6863807 14,25.00181 L14,25.00181 Z" id="Shape" sketch:type="MSShapeGroup"></path>
                <path d="M25.5,44 C27.4329966,44 29,42.4329966 29,40.5 C29,38.5670034 27.4329966,37 25.5,37 C23.5670034,37 22,38.5670034 22,40.5 C22,42.4329966 23.5670034,44 25.5,44 Z M31,56 C33.209139,56 35,54.209139 35,52 C35,49.790861 33.209139,48 31,48 C28.790861,48 27,49.790861 27,52 C27,54.209139 28.790861,56 31,56 Z M36.5,44 C38.4329966,44 40,42.4329966 40,40.5 C40,38.5670034 38.4329966,37 36.5,37 C34.5670034,37 33,38.5670034 33,40.5 C33,42.4329966 34.5670034,44 36.5,44 Z" id="Oval-25" sketch:type="MSShapeGroup"></path>
            </g>
        </g>
    </g>
</svg>