<?xml version="1.0" encoding="UTF-8" standalone="no"?>
<svg width="90px" height="90px" viewBox="0 0 90 90" version="1.1" xmlns="http://www.w3.org/2000/svg" xmlns:xlink="http://www.w3.org/1999/xlink" xmlns:sketch="http://www.bohemiancoding.com/sketch/ns">
    <!-- Generator: Sketch 3.4.3 (16044) - http://www.bohemiancoding.com/sketch -->
    <title>ic_gift_outline</title>
    <desc>Created with Sketch.</desc>
    <defs></defs>
    <g id="Page-1" stroke="none" stroke-width="1" fill="none" fill-rule="evenodd" sketch:type="MSPage">
        <g id="ic_gift_outline" sketch:type="MSArtboardGroup" fill="#FFFFFF">
            <g id="Group" sketch:type="MSLayerGroup" transform="translate(17.000000, 12.000000)">
                <path d="M4,17.9999602 C4,18.5552359 3.55223683,19 3.00680574,19 L54.9931943,19 C54.4431322,19 54,18.5577492 54,17.9999602 L54,33.0000398 C54,32.4447641 54.4477632,32 54.9931943,32 L3.00680574,32 C3.55686784,32 4,32.4422508 4,33.0000398 L4,17.9999602 L4,17.9999602 Z M0,17.9999602 L0,33.0000398 C0,34.6531744 1.34950953,36 3.00680574,36 L54.9931943,36 C56.6509069,36 58,34.6599431 58,33.0000398 L58,17.9999602 C58,16.3468256 56.6504905,15 54.9931943,15 L3.00680574,15 C1.34909311,15 0,16.3400569 0,17.9999602 L0,17.9999602 Z" id="Shape" sketch:type="MSShapeGroup"></path>
                <g id="Oval-17-+-Oval-17-Copy" transform="translate(14.000000, 0.000000)" sketch:type="MSShapeGroup">
                    <path d="M15.5956513,16.0496033 C15.5935635,15.9600036 15.5883418,15.803904 15.5787306,15.5905624 C15.5629999,15.2413824 15.5403559,14.853871 15.5094979,14.4371482 C15.421008,13.2421297 15.2837616,12.0450074 15.0852322,10.9140672 C14.6506146,8.43823013 14.00951,6.6100151 12.8890873,5.48959236 C10.1554173,2.75592232 5.7232624,2.75592232 2.98959236,5.48959236 C0.255922318,8.2232624 0.255922318,12.6554173 2.98959236,15.3890873 C4.1100151,16.50951 5.93823013,17.1506146 8.41406723,17.5852322 C9.54500739,17.7837616 10.7421297,17.921008 11.9371482,18.0094979 C12.353871,18.0403559 12.7413824,18.0629999 13.0905624,18.0787306 C13.303904,18.0883418 13.4600036,18.0935635 13.5496033,18.0956513 L15.6444652,18.1444652 L15.5956513,16.0496033 L15.5956513,16.0496033 Z M11.5967368,16.1427848 L13.6427848,14.0967368 C13.5812493,14.0953029 13.4539704,14.0910453 13.270582,14.0827836 C12.9585455,14.0687261 12.6092727,14.0483166 12.2325356,14.0204196 C11.1605257,13.9410383 10.0906198,13.8183769 9.10566685,13.6454746 C7.40473638,13.346887 6.17193786,12.9145785 5.81801948,12.5606602 C4.64644661,11.3890873 4.64644661,9.48959236 5.81801948,8.31801948 C6.98959236,7.14644661 8.8890873,7.14644661 10.0606602,8.31801948 C10.4145785,8.67193786 10.846887,9.90473638 11.1454746,11.6056668 C11.3183769,12.5906198 11.4410383,13.6605257 11.5204196,14.7325356 C11.5483166,15.1092727 11.5687261,15.4585455 11.5827836,15.770582 C11.5910453,15.9539704 11.5953029,16.0812493 11.5967368,16.1427848 L11.5967368,16.1427848 Z" id="Shape"></path>
                    <path d="M18.4889037,16.5628891 C18.4911242,16.4782978 18.4973311,16.3077883 18.5090401,16.0638763 C18.528862,15.6509654 18.5572058,15.189289 18.5955417,14.6915005 C18.7047371,13.2736085 18.8712666,11.8578132 19.1047613,10.5499975 C19.5220187,8.21291693 20.1226909,6.51334805 20.7050366,5.93100234 C22.4792777,4.15676123 25.3407086,4.14832043 27.0961941,5.90380592 C28.8516796,7.65929142 28.8432388,10.5207223 27.0689977,12.2949634 C26.486652,12.8773091 24.7870831,13.4779813 22.4500025,13.8952387 C21.1421868,14.1287334 19.7263915,14.2952629 18.3084995,14.4044583 C17.810711,14.4427942 17.3490346,14.471138 16.9361237,14.4909599 C16.6922117,14.5026689 16.5217022,14.5088758 16.4371109,14.5110963 L18.4889037,16.5628891 L18.4889037,16.5628891 Z M14.4902811,16.4579262 L14.4349701,18.5650299 L16.5420738,18.5097189 C16.6547302,18.5067617 16.8540602,18.4995057 17.1279236,18.4863588 C17.5779715,18.4647542 18.0778778,18.4340633 18.6156399,18.392649 C20.1564639,18.2739863 21.6993846,18.0925039 23.1530371,17.8329719 C26.2603936,17.278191 28.5528322,16.4679831 29.8974248,15.1233905 C33.2300398,11.7907755 33.2459515,6.3967091 29.9246212,3.0753788 C26.6032909,-0.2459515 21.2092245,-0.2300398 17.8766095,3.10257521 C16.5320169,4.4471678 15.721809,6.73960638 15.1670281,9.84696293 C14.9074961,11.3006154 14.7260137,12.8435361 14.607351,14.3843601 C14.5659367,14.9221222 14.5352458,15.4220285 14.5136412,15.8720764 C14.5004943,16.1459398 14.4932383,16.3452698 14.4902811,16.4579262 L14.4902811,16.4579262 Z" id="Shape"></path>
                </g>
                <path d="M4,60.0070346 C4,61.6646104 5.35517812,63 7.00355521,63 L50.9964448,63 C52.650478,63 54,61.6632853 54,60.0070346 L54,34 L54,32 L52,32 L6,32 L4,32 L4,34 L4,60.0070346 L4,60.0070346 Z M8,60.0070346 L8,34 L6,36 L52,36 L50,34 L50,60.0070346 C50,59.4455631 50.4498322,59 50.9964448,59 L7.00355521,59 C7.55125363,59 8,59.4421937 8,60.0070346 L8,60.0070346 Z" id="Shape" sketch:type="MSShapeGroup"></path>
            </g>
        </g>
    </g>
</svg>