<?xml version="1.0" encoding="UTF-8" standalone="no"?>
<svg width="90px" height="90px" viewBox="0 0 90 90" version="1.1" xmlns="http://www.w3.org/2000/svg" xmlns:xlink="http://www.w3.org/1999/xlink" xmlns:sketch="http://www.bohemiancoding.com/sketch/ns">
    <!-- Generator: Sketch 3.4.3 (16044) - http://www.bohemiancoding.com/sketch -->
    <title>ic_snowman_outline</title>
    <desc>Created with Sketch.</desc>
    <defs></defs>
    <g id="Page-1" stroke="none" stroke-width="1" fill="none" fill-rule="evenodd" sketch:type="MSPage">
        <g id="ic_snowman_outline" sketch:type="MSArtboardGroup">
            <g id="Group" sketch:type="MSLayerGroup" transform="translate(-7.000000, 0.000000)">
                <path d="M29.4353818,45.9743596 C29.1496887,47.4388218 29,48.9519301 29,50.5 C29,63.4786916 39.5213084,74 52.5,74 C65.4786916,74 76,63.4786916 76,50.5 C76,39.1397836 67.9391447,29.6622809 57.225146,27.4752039" id="Oval-120" stroke="#FFFFFF" stroke-width="4" sketch:type="MSShapeGroup"></path>
                <path d="M50.5,52 C52.4329966,52 54,50.4329966 54,48.5 C54,46.5670034 52.4329966,45 50.5,45 C48.5670034,45 47,46.5670034 47,48.5 C47,50.4329966 48.5670034,52 50.5,52 Z M61.5,52 C63.4329966,52 65,50.4329966 65,48.5 C65,46.5670034 63.4329966,45 61.5,45 C59.5670034,45 58,46.5670034 58,48.5 C58,50.4329966 59.5670034,52 61.5,52 Z" id="Oval-25" fill="#FFFFFF" sketch:type="MSShapeGroup"></path>
                <g id="Rectangle-38-+-Rectangle-39" transform="translate(37.680572, 29.473300) rotate(-13.000000) translate(-37.680572, -29.473300) translate(4.680572, 6.973300)" sketch:type="MSShapeGroup">
                    <g id="Group" transform="translate(32.990654, 22.510784) rotate(-21.000000) translate(-32.990654, -22.510784) translate(2.490654, 10.510784)">
                        <rect id="Rectangle-38" fill="#FFFFFF" x="0.881614193" y="19.6580751" width="60" height="4" rx="4"></rect>
                        <rect id="Rectangle-39-Copy" stroke="#FFFFFF" stroke-width="4" x="13.3816142" y="0.658075145" width="36" height="21" rx="4"></rect>
                    </g>
                </g>
                <path d="M54,56.7539601 C54,54.7307467 55.5734147,53.5778962 57.5020424,54.175194 L66.1704559,56.8598099 C68.0196237,57.4324989 68.0024193,58.3071657 66.1322088,58.8133841 L57.5408446,61.1388481 C55.5852901,61.6681669 54,60.4662271 54,58.4339127 L54,56.7539601 Z" id="Rectangle-37" stroke="#FFFFFF" stroke-width="4" sketch:type="MSShapeGroup"></path>
            </g>
        </g>
    </g>
</svg>