<?xml version="1.0" encoding="UTF-8" standalone="no"?>
<svg width="90px" height="90px" viewBox="0 0 90 90" version="1.1" xmlns="http://www.w3.org/2000/svg" xmlns:xlink="http://www.w3.org/1999/xlink" xmlns:sketch="http://www.bohemiancoding.com/sketch/ns">
    <!-- Generator: Sketch 3.4.3 (16044) - http://www.bohemiancoding.com/sketch -->
    <title>ic_snowflake_outline</title>
    <desc>Created with Sketch.</desc>
    <defs></defs>
    <g id="Page-1" stroke="none" stroke-width="1" fill="none" fill-rule="evenodd" sketch:type="MSPage">
        <g id="ic_snowflake_outline" sketch:type="MSArtboardGroup" fill="#FFFFFF">
            <g id="Group" sketch:type="MSLayerGroup" transform="translate(7.000000, 7.000000)">
                <path d="M35,6.99478281 C35,5.34356266 36.3460101,4 38,4 C39.6534898,4 41,5.34685583 41,6.99478281 L41,12.0052172 C41,13.6564373 39.6539899,15 38,15 C36.3465102,15 35,13.6531442 35,12.0052172 L35,6.99478281 L35,6.99478281 Z M31,6.99478281 L31,12.0052172 C31,15.8620534 34.1371413,19 38,19 C41.8615009,19 45,15.8672076 45,12.0052172 L45,6.99478281 C45,3.13794662 41.8628587,0 38,0 C34.1384991,0 31,3.1327924 31,6.99478281 L31,6.99478281 Z M35,63.9947828 C35,62.3435627 36.3460101,61 38,61 C39.6534898,61 41,62.3468558 41,63.9947828 L41,69.0052172 C41,70.6564373 39.6539899,72 38,72 C36.3465102,72 35,70.6531442 35,69.0052172 L35,63.9947828 L35,63.9947828 Z M31,63.9947828 L31,69.0052172 C31,72.8620534 34.1371413,76 38,76 C41.8615009,76 45,72.8672076 45,69.0052172 L45,63.9947828 C45,60.1379466 41.8628587,57 38,57 C34.1384991,57 31,60.1327924 31,63.9947828 L31,63.9947828 Z" id="Shape" sketch:type="MSShapeGroup"></path>
                <path d="M36.1151107,45.4082989 C35.5177337,44.0534781 33.9964446,43.1766865 32.5266696,43.3365114 L28.873346,43.733778 C28.3834035,43.7870549 28.0172856,43.7633371 27.8006318,43.6957117 C27.7644592,43.6844209 27.8225676,43.7269715 27.8867034,43.8377903 C27.9511322,43.9491154 27.9591729,44.021872 27.9672229,43.985917 C28.0167266,43.7648092 28.1792808,43.4356244 28.4710756,43.0370252 L30.6417803,40.0717874 C31.516401,38.8770333 31.5150803,37.1211625 30.6417803,35.9282126 L28.4710756,32.9629748 C28.1799652,32.5653106 28.0174465,32.2363843 27.9676849,32.0149439 C27.9593767,31.9779721 27.951581,32.0495707 27.887677,32.1605233 C27.823481,32.2719829 27.7644923,32.3153247 27.7996553,32.3043186 C28.0158921,32.2366362 28.3822516,32.2128199 28.873346,32.266222 L32.5266696,32.6634886 C33.9986674,32.8235552 35.5186357,31.9444761 36.1151107,30.5917011 L37.5977296,27.2291968 C37.7965617,26.7782557 38.0001609,26.4730472 38.1670531,26.3192322 C38.1949175,26.2935512 38.1290134,26.3225993 38.0009736,26.3227331 C37.8723488,26.3228675 37.8053194,26.2934527 37.8324324,26.3184016 C37.9991655,26.4718271 38.2029708,26.7771955 38.4022704,27.2291968 L39.8848893,30.5917011 C40.4822663,31.9465219 42.0035554,32.8233135 43.4733304,32.6634886 L47.126654,32.266222 C47.6165965,32.2129451 47.9827144,32.2366629 48.1993682,32.3042883 C48.2355408,32.3155791 48.1774324,32.2730285 48.1132966,32.1622097 C48.0488678,32.0508846 48.0408271,31.978128 48.0327771,32.014083 C47.9832734,32.2351908 47.8207192,32.5643756 47.5289244,32.9629748 L45.3582197,35.9282126 C44.483599,37.1229667 44.4849197,38.8788375 45.3582197,40.0717874 L47.5289244,43.0370252 C47.8200348,43.4346894 47.9825535,43.7636157 48.0323151,43.9850561 C48.0406233,44.0220279 48.048419,43.9504293 48.112323,43.8394767 C48.176519,43.7280171 48.2355077,43.6846753 48.2003447,43.6956814 C47.9841079,43.7633638 47.6177484,43.7871801 47.126654,43.733778 L43.4733304,43.3365114 C42.0013326,43.1764448 40.4813643,44.0555239 39.8848893,45.4082989 L38.4022704,48.7708032 C38.2034383,49.2217443 37.9998391,49.5269528 37.8329469,49.6807678 C37.8050825,49.7064488 37.8709866,49.6774007 37.9990264,49.6772669 C38.1276512,49.6771325 38.1946806,49.7065473 38.1675676,49.6815984 C38.0008345,49.5281729 37.7970292,49.2228045 37.5977296,48.7708032 L36.1151107,45.4082989 L36.1151107,45.4082989 Z M32.4551024,47.0220953 L33.9377213,50.3845997 C35.8744691,54.7770453 40.1274904,54.7726012 42.0622787,50.3845997 L43.5448976,47.0220953 C43.4384447,47.2635252 43.3034232,47.3416153 43.0409149,47.3130699 L46.6942386,47.7103364 C51.466582,48.2292864 53.5892439,44.5438398 50.7565173,40.6742633 L48.5858126,37.7090254 C48.7416705,37.9219313 48.7417878,38.0779084 48.5858126,38.2909746 L50.7565173,35.3257367 C53.5921129,31.4522411 51.4617535,27.7712386 46.6942386,28.2896636 L43.0409149,28.6869301 C43.3032258,28.6584062 43.4383646,28.7362931 43.5448976,28.9779047 L42.0622787,25.6154003 C40.1255309,21.2229547 35.8725096,21.2273988 33.9377213,25.6154003 L32.4551024,28.9779047 C32.5615553,28.7364748 32.6965768,28.6583847 32.9590851,28.6869301 L29.3057614,28.2896636 C24.533418,27.7707136 22.4107561,31.4561602 25.2434827,35.3257367 L27.4141874,38.2909746 C27.2583295,38.0780687 27.2582122,37.9220916 27.4141874,37.7090254 L25.2434827,40.6742633 C22.4078871,44.5477589 24.5382465,48.2287614 29.3057614,47.7103364 L32.9590851,47.3130699 C32.6967742,47.3415938 32.5616354,47.2637069 32.4551024,47.0220953 L32.4551024,47.0220953 Z" id="Shape" sketch:type="MSShapeGroup"></path>
                <path d="M57.0002722,14.7570871 C57.0028936,14.7544657 56.9971142,14.7544735 56.9997278,14.7570871 L61.2429129,19.0002722 C61.2455343,19.0028936 61.2455265,18.9971142 61.2429129,18.9997278 L56.9997278,23.2429129 C56.9971064,23.2455343 57.0028858,23.2455265 57.0002722,23.2429129 L52.7570871,18.9997278 C52.7544657,18.9971064 52.7544735,19.0028858 52.7570871,19.0002722 L57.0002722,14.7570871 L57.0002722,14.7570871 Z M54.1718451,11.9286599 L49.9286599,16.1718451 C48.3622329,17.7382721 48.3656526,20.2651475 49.9286599,21.8281549 L54.1718451,26.0713401 C55.7382721,27.6377671 58.2651475,27.6343474 59.8281549,26.0713401 L64.0713401,21.8281549 C65.6377671,20.2617279 65.6343474,17.7348525 64.0713401,16.1718451 L59.8281549,11.9286599 C58.2617279,10.3622329 55.7348525,10.3656526 54.1718451,11.9286599 L54.1718451,11.9286599 Z" id="Shape" sketch:type="MSShapeGroup"></path>
                <path d="M21.8281549,11.9286599 C20.2651475,10.3656526 17.7382721,10.3622329 16.1718451,11.9286599 L11.9286599,16.1718451 C10.3656526,17.7348525 10.3622329,20.2617279 11.9286599,21.8281549 L16.1718451,26.0713401 C17.7348525,27.6343474 20.2617279,27.6377671 21.8281549,26.0713401 L26.0713401,21.8281549 C27.6343474,20.2651475 27.6377671,17.7382721 26.0713401,16.1718451 L21.8281549,11.9286599 L21.8281549,11.9286599 Z M18.9997278,14.7570871 L23.2429129,19.0002722 C23.2455265,19.0028858 23.2455343,18.9971064 23.2429129,18.9997278 L18.9997278,23.2429129 C18.9971142,23.2455265 19.0028936,23.2455343 19.0002722,23.2429129 L14.7570871,18.9997278 C14.7544735,18.9971142 14.7544657,19.0028936 14.7570871,19.0002722 L19.0002722,14.7570871 C19.0028858,14.7544735 18.9971064,14.7544657 18.9997278,14.7570871 L18.9997278,14.7570871 Z" id="Shape" sketch:type="MSShapeGroup"></path>
                <path d="M57.0002722,52.7570871 C57.0028936,52.7544657 56.9971142,52.7544735 56.9997278,52.7570871 L61.2429129,57.0002722 C61.2455343,57.0028936 61.2455265,56.9971142 61.2429129,56.9997278 L56.9997278,61.2429129 C56.9971064,61.2455343 57.0028858,61.2455265 57.0002722,61.2429129 L52.7570871,56.9997278 C52.7544657,56.9971064 52.7544735,57.0028858 52.7570871,57.0002722 L57.0002722,52.7570871 L57.0002722,52.7570871 Z M54.1718451,49.9286599 L49.9286599,54.1718451 C48.3622329,55.7382721 48.3656526,58.2651475 49.9286599,59.8281549 L54.1718451,64.0713401 C55.7382721,65.6377671 58.2651475,65.6343474 59.8281549,64.0713401 L64.0713401,59.8281549 C65.6377671,58.2617279 65.6343474,55.7348525 64.0713401,54.1718451 L59.8281549,49.9286599 C58.2617279,48.3622329 55.7348525,48.3656526 54.1718451,49.9286599 L54.1718451,49.9286599 Z" id="Shape" sketch:type="MSShapeGroup"></path>
                <path d="M21.8281549,49.9286599 C20.2651475,48.3656526 17.7382721,48.3622329 16.1718451,49.9286599 L11.9286599,54.1718451 C10.3656526,55.7348525 10.3622329,58.2617279 11.9286599,59.8281549 L16.1718451,64.0713401 C17.7348525,65.6343474 20.2617279,65.6377671 21.8281549,64.0713401 L26.0713401,59.8281549 C27.6343474,58.2651475 27.6377671,55.7382721 26.0713401,54.1718451 L21.8281549,49.9286599 L21.8281549,49.9286599 Z M18.9997278,52.7570871 L23.2429129,57.0002722 C23.2455265,57.0028858 23.2455343,56.9971064 23.2429129,56.9997278 L18.9997278,61.2429129 C18.9971142,61.2455265 19.0028936,61.2455343 19.0002722,61.2429129 L14.7570871,56.9997278 C14.7544735,56.9971142 14.7544657,57.0028936 14.7570871,57.0002722 L19.0002722,52.7570871 C19.0028858,52.7544735 18.9971064,52.7544657 18.9997278,52.7570871 L18.9997278,52.7570871 Z" id="Shape" sketch:type="MSShapeGroup"></path>
                <g id="Rectangle-23-+-Rectangle-23" transform="translate(38.000000, 38.000000) rotate(-270.000000) translate(-38.000000, -38.000000) translate(31.000000, 0.000000)" sketch:type="MSShapeGroup">
                    <path d="M4,6.99478281 C4,5.34356266 5.34601008,4 7,4 C8.65348982,4 10,5.34685583 10,6.99478281 L10,12.0052172 C10,13.6564373 8.65398992,15 7,15 C5.34651018,15 4,13.6531442 4,12.0052172 L4,6.99478281 L4,6.99478281 Z M-7.10542736e-15,6.99478281 L-7.10542736e-15,12.0052172 C-7.10542736e-15,15.8620534 3.13714133,19 7,19 C10.8615009,19 14,15.8672076 14,12.0052172 L14,6.99478281 C14,3.13794662 10.8628587,0 7,0 C3.13849906,0 -7.10542736e-15,3.1327924 -7.10542736e-15,6.99478281 L-7.10542736e-15,6.99478281 Z M4,63.9947828 C4,62.3435627 5.34601008,61 7,61 C8.65348982,61 10,62.3468558 10,63.9947828 L10,69.0052172 C10,70.6564373 8.65398992,72 7,72 C5.34651018,72 4,70.6531442 4,69.0052172 L4,63.9947828 L4,63.9947828 Z M-7.10542736e-15,63.9947828 L-7.10542736e-15,69.0052172 C-7.10542736e-15,72.8620534 3.13714133,76 7,76 C10.8615009,76 14,72.8672076 14,69.0052172 L14,63.9947828 C14,60.1379466 10.8628587,57 7,57 C3.13849906,57 -7.10542736e-15,60.1327924 -7.10542736e-15,63.9947828 L-7.10542736e-15,63.9947828 Z" id="Shape"></path>
                </g>
            </g>
        </g>
    </g>
</svg>