<?xml version="1.0" encoding="UTF-8" standalone="no"?>
<svg width="90px" height="90px" viewBox="0 0 90 90" version="1.1" xmlns="http://www.w3.org/2000/svg" xmlns:xlink="http://www.w3.org/1999/xlink" xmlns:sketch="http://www.bohemiancoding.com/sketch/ns">
    <!-- Generator: Sketch 3.4.3 (16044) - http://www.bohemiancoding.com/sketch -->
    <title>ic_santa_outline</title>
    <desc>Created with Sketch.</desc>
    <defs></defs>
    <g id="Page-1" stroke="none" stroke-width="1" fill="none" fill-rule="evenodd" sketch:type="MSPage">
        <g id="ic_santa_outline" sketch:type="MSArtboardGroup">
            <g id="Group" sketch:type="MSLayerGroup" transform="translate(19.000000, 10.000000)">
                <path d="M46.173005,39.350563 C47.3222164,40.3764468 48.8382889,41 50.5,41 C54.0898509,41 57,38.0898509 57,34.5 C57,30.9101491 54.0898509,28 50.5,28" id="Oval-36" stroke="#FFFFFF" stroke-width="4" sketch:type="MSShapeGroup"></path>
                <path d="M5.91933313,41.1645002 C5.32164307,39.215188 5,37.1451559 5,35 C5,33.9028552 5.08413648,32.9059005 5.24630927,31.9999984 L46.7537011,32 L46.7536907,31.9999984 C46.9158635,32.9059005 47,33.9028552 47,35 C47,36.5436876 46.8334382,38.0484725 46.5173061,39.4973635" id="Oval-2" stroke="#FFFFFF" stroke-width="4" sketch:type="MSShapeGroup"></path>
                <path d="M20.5,38 C22.4329966,38 24,36.4329966 24,34.5 C24,32.5670034 22.4329966,31 20.5,31 C18.5670034,31 17,32.5670034 17,34.5 C17,36.4329966 18.5670034,38 20.5,38 Z M31.5,38 C33.4329966,38 35,36.4329966 35,34.5 C35,32.5670034 33.4329966,31 31.5,31 C29.5670034,31 28,32.5670034 28,34.5 C28,36.4329966 29.5670034,38 31.5,38 Z" id="Oval-25" fill="#FFFFFF" sketch:type="MSShapeGroup"></path>
                <path d="M46,20 C46,8.954305 37.045695,0 26,0 C14.954305,0 6,8.954305 6,20" id="Oval-30-Copy" stroke="#FFFFFF" stroke-width="4" sketch:type="MSShapeGroup"></path>
                <rect id="Rectangle-14" stroke="#FFFFFF" stroke-width="4" sketch:type="MSShapeGroup" x="0" y="20" width="52" height="12" rx="2"></rect>
                <path d="M19.3042958,44.0478127 C12.9428752,42.5971168 6,40 6,40 L6,53.5 C6,60.9574835 12.0443112,67 19.5003469,67 L32.4996531,67 C39.9465884,67 46,60.9558441 46,53.5 L46,40 C46,40 39.0691147,42.6055644 32.6935426,44.0548758 C31.8156042,46.9181277 29.1509257,49 26,49 C22.8464839,49 20.180015,46.9147033 19.3042958,44.0478127 Z" id="Rectangle-15-Copy-2" stroke="#FFFFFF" stroke-width="4" sketch:type="MSShapeGroup"></path>
                <path d="M19.3042958,44.0478127 C12.9428752,42.5971168 6,40 6,40 L6,53.5 C6,60.9574835 12.0443112,67 19.5003469,67 L32.4996531,67 C39.9465884,67 46,60.9558441 46,53.5 L46,40 C46,40 39.0691147,42.6055644 32.6935426,44.0548758 C31.8156042,46.9181277 29.1509257,49 26,49 C22.8464839,49 20.180015,46.9147033 19.3042958,44.0478127 Z" id="Rectangle-15-Copy-3" stroke="#FFFFFF" stroke-width="4" sketch:type="MSShapeGroup"></path>
            </g>
        </g>
    </g>
</svg>