<?xml version="1.0" encoding="UTF-8" standalone="no"?>
<svg width="90px" height="90px" viewBox="0 0 90 90" version="1.1" xmlns="http://www.w3.org/2000/svg" xmlns:xlink="http://www.w3.org/1999/xlink" xmlns:sketch="http://www.bohemiancoding.com/sketch/ns">
    <!-- Generator: Sketch 3.4.3 (16044) - http://www.bohemiancoding.com/sketch -->
    <title>ic_tree_outline</title>
    <desc>Created with Sketch.</desc>
    <defs></defs>
    <g id="Page-1" stroke="none" stroke-width="1" fill="none" fill-rule="evenodd" sketch:type="MSPage">
        <g id="ic_tree_outline" sketch:type="MSArtboardGroup">
            <g id="Group" sketch:type="MSLayerGroup" transform="translate(24.000000, 6.000000)">
                <path d="M31,51 C34.7310731,55.4857229 39.5,60.5 39.5,60.5 C44.493741,66.5037792 42.1631436,71.8321098 34.0810675,70.8457996 C34.0810675,70.8457996 25.4683085,69.6046571 21.0656466,69.6046571 C16.6629846,69.6046571 8.05022562,70.8457996 8.05022562,70.8457996 C-0.028348468,71.8546124 -1.492537,65.5023316 3.5,59.5 C3.5,59.5 7.35378814,55.3836976 11,51" id="Triangle-1-Copy" stroke="#FFFFFF" stroke-width="4" sketch:type="MSShapeGroup"></path>
                <path d="M15.0507069,31.5055845 C18.3439672,27.0678147 23.6777363,27.0601864 26.9766576,31.5055845 L36.2548899,44.0082883 C39.5481502,48.4460581 37.7453805,51.8735138 32.228377,51.677914 C32.228377,51.677914 25.7979977,51.3930584 21.0136822,51.3930584 C16.2293668,51.3930584 9.79898745,51.677914 9.79898745,51.677914 C4.28194544,51.8798665 2.47355326,48.4536864 5.77247456,44.0082883 L15.0507069,31.5055845 Z" id="Triangle-1" stroke="#FFFFFF" stroke-width="4" sketch:type="MSShapeGroup"></path>
                <path d="M16.5503952,20.6686817 L16.8219279,16.2632726 L16.8704613,15.4758557 L16.3683649,14.8673493 L13.5566681,11.4393181 L17.8415582,10.3333267 L18.6054338,10.1361595 L19.0290015,9.47059866 L21.4116969,5.72353524 L23.7963549,9.47059866 L24.2199226,10.1361595 L24.9837982,10.3333267 L29.2878302,11.4365665 L26.4569915,14.8673493 L25.9548951,15.4758557 L26.0034285,16.2632726 L26.28692,20.6986414 L22.1465585,19.0654527 L21.4126782,18.7759695 L20.6787979,19.0654527 L16.5503952,20.6686817 Z M26.810109,25.2049608 C28.6721023,25.9394345 30.525179,24.6051177 30.4013314,22.5957851 L30.0303719,16.8215951 L33.7371271,12.3292616 C35.0110406,10.7853656 34.3146621,8.61065832 32.3654022,8.1075265 L26.7563296,6.67151501 L23.6321757,1.76246602 C22.5575043,0.073812194 20.274042,0.0640859671 19.1931807,1.76246602 L16.0916155,6.65391428 L10.4599542,8.1075265 C8.52185725,8.607777 7.8069784,10.7764731 9.08822933,12.3292616 L12.7808884,16.805952 L12.424025,22.5957851 C12.3008866,24.5936107 14.1425295,25.9436649 16.0152474,25.2049608 L21.4280336,23.069857 L26.810109,25.2049608 Z" id="Shape" fill="#FFFFFF" sketch:type="MSShapeGroup"></path>
            </g>
        </g>
    </g>
</svg>