<?xml version="1.0" encoding="UTF-8" standalone="no"?>
<svg width="90px" height="90px" viewBox="0 0 90 90" version="1.1" xmlns="http://www.w3.org/2000/svg" xmlns:xlink="http://www.w3.org/1999/xlink" xmlns:sketch="http://www.bohemiancoding.com/sketch/ns">
    <!-- Generator: Sketch 3.4.3 (16044) - http://www.bohemiancoding.com/sketch -->
    <title>ic_toy_outline</title>
    <desc>Created with Sketch.</desc>
    <defs></defs>
    <g id="Page-1" stroke="none" stroke-width="1" fill="none" fill-rule="evenodd" sketch:type="MSPage">
        <g id="ic_toy_outline" sketch:type="MSArtboardGroup" fill="#FFFFFF">
            <g id="Group" sketch:type="MSLayerGroup" transform="translate(16.000000, 16.000000)">
                <path d="M30.1594203,52.3283582 L30.1594203,52.3283582 C42.1146493,52.3283582 51.7971014,42.7007218 51.7971014,30.8358209 C51.7971014,18.97092 42.1146493,9.34328358 30.1594203,9.34328358 C18.2041912,9.34328358 8.52173913,18.97092 8.52173913,30.8358209 C8.52173913,42.7007218 18.2041912,52.3283582 30.1594203,52.3283582 L30.1594203,52.3283582 Z M30.1594203,56.3283582 L30.1594203,56.3283582 C16.00012,56.3283582 4.52173913,44.9149605 4.52173913,30.8358209 C4.52173913,16.7566813 16.00012,5.34328358 30.1594203,5.34328358 C44.3187206,5.34328358 55.7971014,16.7566813 55.7971014,30.8358209 C55.7971014,44.9149605 44.3187206,56.3283582 30.1594203,56.3283582 L30.1594203,56.3283582 Z" id="Shape" sketch:type="MSShapeGroup"></path>
                <path d="M10.9910923,15.8029485 L5.75453336,10.5960356 C6.15379639,10.9930383 6.18682637,11.7083868 5.69721437,12.1952269 L12.2371705,5.69229579 C11.7499548,6.1767532 11.0566468,6.14261601 10.6610817,5.74929029 L15.8976406,10.9562032 L18.7180272,8.11975842 L13.4814683,2.91284551 C12.3756085,1.81324635 10.5554558,1.72362542 9.4167838,2.85585101 L2.87682769,9.35878216 C1.73201143,10.4971172 1.81622067,12.3208833 2.93414668,13.4324804 L8.17070558,18.6393933 L10.9910923,15.8029485 L10.9910923,15.8029485 Z" id="Shape" sketch:type="MSShapeGroup"></path>
                <path d="M11.2152758,3.78445022 C10.3882456,1.52869257 8.22948099,0 5.7826087,0 C2.59149596,0 0,2.5768246 0,5.76119403 C0,8.04867174 1.35073844,10.0897293 3.40449343,11.0136628 C4.1464376,11.3474452 4.95406387,11.5223881 5.7826087,11.5223881 L5.7826087,7.52238806 C5.52251156,7.52238806 5.273945,7.46854514 5.04557372,7.36580656 C4.41256157,7.08103005 4,6.4576215 4,5.76119403 C4,4.79106325 4.79556723,4 5.7826087,4 C6.54089118,4 7.20683487,4.47157674 7.45972703,5.16135009 L11.2152758,3.78445022 L11.2152758,3.78445022 Z" id="Shape" sketch:type="MSShapeGroup"></path>
            </g>
        </g>
    </g>
</svg>