<?xml version="1.0" encoding="utf-8"?>
<!-- Generator: Adobe Illustrator 21.1.0, SVG Export Plug-In . SVG Version: 6.00 Build 0)  -->
<svg version="1.1" xmlns="http://www.w3.org/2000/svg" xmlns:xlink="http://www.w3.org/1999/xlink" x="0px" y="0px"
	 width="63.915px" height="51.9px" viewBox="0 0 63.915 51.9" enable-background="new 0 0 63.915 51.9" xml:space="preserve">
<g id="background">
</g>
<g id="_x31_">
</g>
<g id="_x32__1_">
</g>
<g id="_x33__1_">
</g>
<g id="_x34__1_">
</g>
<g id="_x35__1_">
</g>
<g id="_x36__1_">
</g>
<g id="_x37__1_">
</g>
<g id="_x38__1_">
</g>
<g id="_x39__1_">
</g>
<g id="_x31_0_1_">
</g>
<g id="_x31_1_1_">
</g>
<g id="_x31_2_1_">
	<path fill="#20293B" d="M47.15,2.562c8.129,0,14.203,3.368,14.203,6.379s-6.074,6.379-14.203,6.379
		c-8.129,0-14.203-3.368-14.203-6.379S39.022,2.562,47.15,2.562 M47.15,0c-9.259,0-16.765,4.003-16.765,8.941
		s7.506,8.941,16.765,8.941s16.765-4.003,16.765-8.941S56.409,0,47.15,0L47.15,0z"/>
	<path fill="#20293B" d="M63.915,8.941C63.915,4.003,56.409,0,47.15,0c-9.259,0-16.765,4.003-16.765,8.941
		c0,1.087,0.382,2.124,1.048,3.087v31.49c0,4.629,7.037,8.382,15.717,8.382s15.717-3.753,15.717-8.382v-31.49
		C63.533,11.065,63.915,10.028,63.915,8.941z M47.15,2.562c8.129,0,14.203,3.368,14.203,6.379c0,3.011-6.074,6.379-14.203,6.379
		s-14.203-3.368-14.203-6.379C32.948,5.93,39.022,2.562,47.15,2.562z M47.15,49.331c-8.146,0-13.148-3.386-13.148-5.813v-29.04
		c3.07,2.071,7.813,3.404,13.148,3.404c5.335,0,10.077-1.333,13.148-3.404v29.04C60.298,45.945,55.296,49.331,47.15,49.331z"/>
	<g>
		<ellipse fill="#20293B" cx="47.15" cy="8.941" rx="2.096" ry="1.118"/>
	</g>
	<path fill="#20293B" d="M37.578,1.607H2.619C1.173,1.607,0,2.779,0,4.226v33.529c0,1.447,1.173,2.619,2.619,2.619h28.814V12.028
		c-0.666-0.964-1.048-2-1.048-3.087C30.386,5.903,33.234,3.222,37.578,1.607z M9.43,38.279H5.239v-4.191H9.43V38.279z M9.43,7.893
		H5.239V3.702H9.43V7.893z M19.908,38.279h-4.191v-4.191h4.191V38.279z M19.908,7.893h-4.191V3.702h4.191V7.893z M30.386,38.279
		h-4.191v-4.191h4.191V38.279z M30.386,7.893h-4.191V3.702h4.191V7.893z"/>
	
		<line fill="none" stroke="#20293B" stroke-width="1.5" stroke-linejoin="round" stroke-miterlimit="10" x1="45.055" y1="21.515" x2="45.055" y2="25.706"/>
	
		<line fill="none" stroke="#20293B" stroke-width="1.5" stroke-linejoin="round" stroke-miterlimit="10" x1="49.246" y1="21.515" x2="49.246" y2="31.992"/>
	
		<line fill="none" stroke="#20293B" stroke-width="1.5" stroke-linejoin="round" stroke-miterlimit="10" x1="39.816" y1="15.228" x2="39.816" y2="48.757"/>
</g>
<g id="_x31_3">
</g>
</svg>
