<?xml version="1.0" encoding="utf-8"?>
<!-- Generator: Adobe Illustrator 21.1.0, SVG Export Plug-In . SVG Version: 6.00 Build 0)  -->
<svg version="1.1" xmlns="http://www.w3.org/2000/svg" xmlns:xlink="http://www.w3.org/1999/xlink" x="0px" y="0px" width="64px"
	 height="63.975px" viewBox="0 0 64 63.975" enable-background="new 0 0 64 63.975" xml:space="preserve">
<g id="background">
</g>
<g id="_x31_">
</g>
<g id="_x32__1_">
</g>
<g id="_x33__1_">
</g>
<g id="_x34__1_">
	<path fill="#20293B" d="M23.2,20.075c11.414,0,20.7,9.286,20.7,20.7c0,11.414-9.286,20.7-20.7,20.7s-20.7-9.286-20.7-20.7
		C2.5,29.361,11.786,20.075,23.2,20.075 M23.2,17.575c-12.813,0-23.2,10.387-23.2,23.2c0,12.813,10.387,23.2,23.2,23.2
		s23.2-10.387,23.2-23.2C46.4,27.962,36.013,17.575,23.2,17.575L23.2,17.575z"/>
	<path fill="none" stroke="#20293B" stroke-width="1.5" stroke-miterlimit="10" d="M33.929,39.881
		c0,6.419-5.204,11.624-11.624,11.624"/>
	<path fill="none" stroke="#20293B" stroke-width="1.5" stroke-miterlimit="10" d="M38.4,40.775c0,8.395-6.805,15.2-15.2,15.2"/>
	<path fill="none" stroke="#20293B" stroke-width="1.5" stroke-miterlimit="10" d="M12.471,41.669
		c0-6.419,5.204-11.624,11.624-11.624"/>
	<path fill="none" stroke="#20293B" stroke-width="1.5" stroke-miterlimit="10" d="M8,40.775c0-8.395,6.805-15.2,15.2-15.2"/>
	<path fill="#20293B" d="M23.2,39.275c0.827,0,1.5,0.673,1.5,1.5s-0.673,1.5-1.5,1.5s-1.5-0.673-1.5-1.5S22.373,39.275,23.2,39.275
		 M23.2,36.775c-2.209,0-4,1.791-4,4s1.791,4,4,4s4-1.791,4-4S25.409,36.775,23.2,36.775L23.2,36.775z"/>
	<polygon fill="#20293B" points="53.25,18.5 48,18.5 48,16 50.75,16 50.75,3.2 56,3.2 56,5.7 53.25,5.7 	"/>
	<polygon fill="#20293B" points="61.25,15.3 56,15.3 56,12.8 58.75,12.8 58.75,0 64,0 64,2.5 61.25,2.5 	"/>
</g>
<g id="_x35__1_">
</g>
<g id="_x36__1_">
</g>
<g id="_x37__1_">
</g>
<g id="_x38__1_">
</g>
<g id="_x39__1_">
</g>
<g id="_x31_0_1_">
</g>
<g id="_x31_1_1_">
</g>
<g id="_x31_2_1_">
</g>
<g id="_x31_3">
</g>
</svg>
