<?xml version="1.0" encoding="utf-8"?>
<!-- Generator: Adobe Illustrator 21.1.0, SVG Export Plug-In . SVG Version: 6.00 Build 0)  -->
<svg version="1.1" xmlns="http://www.w3.org/2000/svg" xmlns:xlink="http://www.w3.org/1999/xlink" x="0px" y="0px" width="63.75px"
	 height="31.875px" viewBox="0 0 63.75 31.875" enable-background="new 0 0 63.75 31.875" xml:space="preserve">
<g id="background">
</g>
<g id="_x31_">
</g>
<g id="_x32__1_">
</g>
<g id="_x33__1_">
</g>
<g id="_x34__1_">
</g>
<g id="_x35__1_">
</g>
<g id="_x36__1_">
	<path fill="#20293B" d="M53.054,2.5v26.875H2.5V5.688h23.911h1.886l0.518-1.813L29.207,2.5H53.054 M55.554,0H27.322l-0.911,3.188
		H2.277C1.019,3.188,0,4.207,0,5.464v24.134c0,1.257,1.019,2.277,2.277,2.277h53.277V0L55.554,0z"/>
	<path fill="#20293B" d="M61.25,2.5v26.875h-5.929V2.5H61.25 M61.473,0h-8.652v31.875h8.652c1.257,0,2.277-1.019,2.277-2.277V2.277
		C63.75,1.019,62.731,0,61.473,0L61.473,0z"/>
	<path fill="#20293B" d="M48.951,9.107h-6.83c-0.629,0-1.138-0.51-1.138-1.138V6.603c0-0.629,0.51-1.138,1.138-1.138h6.83
		c0.629,0,1.138,0.51,1.138,1.138v1.366C50.089,8.597,49.58,9.107,48.951,9.107z"/>
	
		<rect x="1.821" y="12.75" fill="none" stroke="#20293B" stroke-width="1.5" stroke-linejoin="round" stroke-miterlimit="10" width="51.911" height="10.018"/>
	<circle fill="#20293B" cx="22.768" cy="17.759" r="8.196"/>
	<path fill="#20293B" d="M22.768,4.554h-5.464V2.049c0-0.629,0.51-1.138,1.138-1.138h3.188c0.629,0,1.138,0.51,1.138,1.138V4.554z"
		/>
	<path fill="#20293B" d="M14.571,4.554h-3.643V2.049c0-0.629,0.51-1.138,1.138-1.138h1.366c0.629,0,1.138,0.51,1.138,1.138V4.554z"
		/>
</g>
<g id="_x37__1_">
</g>
<g id="_x38__1_">
</g>
<g id="_x39__1_">
</g>
<g id="_x31_0_1_">
</g>
<g id="_x31_1_1_">
</g>
<g id="_x31_2_1_">
</g>
<g id="_x31_3">
</g>
</svg>
