<?xml version="1.0" encoding="utf-8"?>
<!-- Generator: Adobe Illustrator 21.1.0, SVG Export Plug-In . SVG Version: 6.00 Build 0)  -->
<svg version="1.1" xmlns="http://www.w3.org/2000/svg" xmlns:xlink="http://www.w3.org/1999/xlink" x="0px" y="0px"
	 width="37.204px" height="64px" viewBox="0 0 37.204 64" enable-background="new 0 0 37.204 64" xml:space="preserve">
<g id="background">
</g>
<g id="_x31_">
</g>
<g id="_x32__1_">
</g>
<g id="_x33__1_">
</g>
<g id="_x34__1_">
</g>
<g id="_x35__1_">
</g>
<g id="_x36__1_">
</g>
<g id="_x37__1_">
</g>
<g id="_x38__1_">
	<g>
		<path fill="#20293B" d="M25.93,9.002c4.838,0,8.774,3.936,8.774,8.774v34.95c0,4.838-3.936,8.774-8.774,8.774H12.401
			c-4.838,0-8.774-3.936-8.774-8.774v-34.95c0-4.838,3.936-8.774,8.774-8.774H25.93 M25.93,6.502H12.401
			c-6.227,0-11.274,5.048-11.274,11.274v34.95C1.127,58.952,6.175,64,12.401,64H25.93c6.226,0,11.274-5.048,11.274-11.274v-34.95
			C37.204,11.55,32.157,6.502,25.93,6.502L25.93,6.502z"/>
	</g>
	<path fill="#20293B" d="M28.185,0L28.185,0C26.94,0,25.93,1.01,25.93,2.255v6.764h4.51V2.255C30.44,1.01,29.431,0,28.185,0z"/>
	
		<rect x="9.019" y="20.031" fill="none" stroke="#20293B" stroke-width="1.5" stroke-linejoin="round" stroke-miterlimit="10" width="20.293" height="10.147"/>
	<circle fill="#20293B" cx="12.401" cy="38.07" r="2.255"/>
	<circle fill="#20293B" cx="19.166" cy="38.07" r="2.255"/>
	<circle fill="#20293B" cx="25.93" cy="38.07" r="2.255"/>
	<circle fill="#20293B" cx="12.401" cy="45.961" r="2.255"/>
	<circle fill="#20293B" cx="19.166" cy="45.961" r="2.255"/>
	<circle fill="#20293B" cx="25.93" cy="45.961" r="2.255"/>
	<circle fill="#20293B" cx="12.401" cy="53.853" r="2.255"/>
	<circle fill="#20293B" cx="19.166" cy="53.853" r="2.255"/>
	<circle fill="#20293B" cx="25.93" cy="53.853" r="2.255"/>
	
		<line fill="#FFFFFF" stroke="#20293B" stroke-width="1.5" stroke-linecap="round" stroke-linejoin="round" stroke-miterlimit="10" x1="14.656" y1="14.394" x2="23.676" y2="14.394"/>
	<path fill="#20293B" d="M0.822,26.796h0.611c0.454,0,0.822-0.368,0.822-0.822v-7.375c0-0.454-0.368-0.822-0.822-0.822H0.822
		C0.368,17.776,0,18.144,0,18.598v7.375C0,26.427,0.368,26.796,0.822,26.796z"/>
</g>
<g id="_x39__1_">
</g>
<g id="_x31_0_1_">
</g>
<g id="_x31_1_1_">
</g>
<g id="_x31_2_1_">
</g>
<g id="_x31_3">
</g>
</svg>
