<?xml version="1.0" encoding="utf-8"?>
<!-- Generator: Adobe Illustrator 21.1.0, SVG Export Plug-In . SVG Version: 6.00 Build 0)  -->
<svg version="1.1" xmlns="http://www.w3.org/2000/svg" xmlns:xlink="http://www.w3.org/1999/xlink" x="0px" y="0px"
	 width="63.979px" height="38.575px" viewBox="0 0 63.979 38.575" enable-background="new 0 0 63.979 38.575" xml:space="preserve">
<g id="background">
</g>
<g id="_x31_">
</g>
<g id="_x32__1_">
</g>
<g id="_x33__1_">
</g>
<g id="_x34__1_">
</g>
<g id="_x35__1_">
</g>
<g id="_x36__1_">
</g>
<g id="_x37__1_">
</g>
<g id="_x38__1_">
</g>
<g id="_x39__1_">
</g>
<g id="_x31_0_1_">
</g>
<g id="_x31_1_1_">
	<g>
		<path fill="#20293B" d="M61.479,2.5v33.575H2.5V2.5H61.479 M61.626,0H2.352C1.053,0,0,1.053,0,2.352v33.871
			c0,1.299,1.053,2.352,2.352,2.352h59.274c1.299,0,2.352-1.053,2.352-2.352V2.352C63.979,1.053,62.925,0,61.626,0L61.626,0z"/>
	</g>
	
		<rect x="7.527" y="6.586" fill="none" stroke="#20293B" stroke-width="1.5" stroke-linejoin="round" stroke-miterlimit="10" width="48.925" height="18.817"/>
	<polygon fill="none" stroke="#20293B" stroke-width="1.5" stroke-linejoin="round" stroke-miterlimit="10" points="48.925,31.048 
		15.054,31.048 13.172,36.694 50.806,36.694 	"/>
	<g>
		<defs>
			<path id="XMLID_6_" d="M44.22,18.817H19.758c-1.552,0-2.823-1.27-2.823-2.823v0c0-1.552,1.27-2.823,2.823-2.823H44.22
				c1.552,0,2.823,1.27,2.823,2.823v0C47.043,17.547,45.773,18.817,44.22,18.817z"/>
		</defs>
		<clipPath id="XMLID_2_">
			<use xlink:href="#XMLID_6_"  overflow="visible"/>
		</clipPath>
		<path clip-path="url(#XMLID_2_)" fill="none" stroke="#20293B" stroke-linejoin="round" stroke-miterlimit="10" d="M43.28,20.699
			c-2.598,0-4.704-2.106-4.704-4.704s2.106-4.704,4.704-4.704"/>
		<path clip-path="url(#XMLID_2_)" fill="none" stroke="#20293B" stroke-linejoin="round" stroke-miterlimit="10" d="M20.699,20.699
			c2.598,0,4.704-2.106,4.704-4.704s-2.106-4.704-4.704-4.704"/>
		<path clip-path="url(#XMLID_2_)" fill="none" stroke="#20293B" stroke-linejoin="round" stroke-miterlimit="10" d="M41.868,21.64
			c-3.118,0-5.645-2.527-5.645-5.645s2.527-5.645,5.645-5.645"/>
		
			<use xlink:href="#XMLID_6_"  overflow="visible" fill="none" stroke="#20293B" stroke-width="1.5" stroke-linejoin="round" stroke-miterlimit="10"/>
	</g>
	
		<circle fill="none" stroke="#20293B" stroke-width="1.5" stroke-linejoin="round" stroke-miterlimit="10" cx="44.22" cy="15.995" r="2.823"/>
	
		<circle fill="none" stroke="#20293B" stroke-width="1.5" stroke-linejoin="round" stroke-miterlimit="10" cx="19.758" cy="15.995" r="2.823"/>
	
		<line fill="none" stroke="#20293B" stroke-width="1.5" stroke-linejoin="round" stroke-miterlimit="10" x1="43.28" y1="31.048" x2="44.22" y2="36.694"/>
	
		<line fill="none" stroke="#20293B" stroke-width="1.5" stroke-linejoin="round" stroke-miterlimit="10" x1="20.699" y1="31.048" x2="19.758" y2="36.694"/>
	<rect x="46.573" y="33.401" fill="#20293B" width="0.941" height="0.941"/>
	<rect x="16.465" y="33.401" fill="#20293B" width="0.941" height="0.941"/>
</g>
<g id="_x31_2_1_">
</g>
<g id="_x31_3">
</g>
</svg>
