<?xml version="1.0" encoding="utf-8"?>
<!-- Generator: Adobe Illustrator 21.1.0, SVG Export Plug-In . SVG Version: 6.00 Build 0)  -->
<svg version="1.1" xmlns="http://www.w3.org/2000/svg" xmlns:xlink="http://www.w3.org/1999/xlink" x="0px" y="0px" width="51.71px"
	 height="63.847px" viewBox="0 0 51.71 63.847" enable-background="new 0 0 51.71 63.847" xml:space="preserve">
<g id="background">
</g>
<g id="_x31_">
</g>
<g id="_x32__1_">
</g>
<g id="_x33__1_">
</g>
<g id="_x34__1_">
</g>
<g id="_x35__1_">
</g>
<g id="_x36__1_">
</g>
<g id="_x37__1_">
</g>
<g id="_x38__1_">
</g>
<g id="_x39__1_">
	<path fill="#20293B" d="M30.849,2.5c6.449,0,11.695,5.246,11.695,11.695v22.712c0,6.449-5.246,11.695-11.695,11.695h-9.989
		c-6.449,0-11.695-5.246-11.695-11.695V14.195C9.166,7.746,14.412,2.5,20.861,2.5H30.849 M30.849,0h-9.989
		C13.021,0,6.666,6.355,6.666,14.195v22.712c0,7.84,6.355,14.195,14.195,14.195h9.989c7.84,0,14.195-6.355,14.195-14.195V14.195
		C45.045,6.355,38.689,0,30.849,0L30.849,0z"/>
	<linearGradient id="SVGID_1_" gradientUnits="userSpaceOnUse" x1="29.7127" y1="12.4918" x2="43.2143" y2="12.4918">
		<stop  offset="0" style="stop-color:#009FDE"/>
		<stop  offset="1" style="stop-color:#3054E1"/>
	</linearGradient>
	
		<line fill="url(#SVGID_1_)" stroke="#20293B" stroke-width="2.5" stroke-miterlimit="10" x1="43.214" y1="12.492" x2="29.713" y2="12.492"/>
	<linearGradient id="SVGID_2_" gradientUnits="userSpaceOnUse" x1="8.4959" y1="12.4918" x2="21.9975" y2="12.4918">
		<stop  offset="0" style="stop-color:#009FDE"/>
		<stop  offset="1" style="stop-color:#3054E1"/>
	</linearGradient>
	
		<line fill="url(#SVGID_2_)" stroke="#20293B" stroke-width="2.5" stroke-miterlimit="10" x1="21.998" y1="12.492" x2="8.496" y2="12.492"/>
	<linearGradient id="SVGID_3_" gradientUnits="userSpaceOnUse" x1="29.7127" y1="21.5767" x2="43.2143" y2="21.5767">
		<stop  offset="0" style="stop-color:#009FDE"/>
		<stop  offset="1" style="stop-color:#3054E1"/>
	</linearGradient>
	
		<line fill="url(#SVGID_3_)" stroke="#20293B" stroke-width="2.5" stroke-miterlimit="10" x1="43.214" y1="21.577" x2="29.713" y2="21.577"/>
	<linearGradient id="SVGID_4_" gradientUnits="userSpaceOnUse" x1="8.4959" y1="21.5767" x2="21.9975" y2="21.5767">
		<stop  offset="0" style="stop-color:#009FDE"/>
		<stop  offset="1" style="stop-color:#3054E1"/>
	</linearGradient>
	
		<line fill="url(#SVGID_4_)" stroke="#20293B" stroke-width="2.5" stroke-miterlimit="10" x1="21.998" y1="21.577" x2="8.496" y2="21.577"/>
	<linearGradient id="SVGID_5_" gradientUnits="userSpaceOnUse" x1="29.7127" y1="30.6616" x2="43.2143" y2="30.6616">
		<stop  offset="0" style="stop-color:#009FDE"/>
		<stop  offset="1" style="stop-color:#3054E1"/>
	</linearGradient>
	
		<line fill="url(#SVGID_5_)" stroke="#20293B" stroke-width="2.5" stroke-miterlimit="10" x1="43.214" y1="30.662" x2="29.713" y2="30.662"/>
	<linearGradient id="SVGID_6_" gradientUnits="userSpaceOnUse" x1="8.4959" y1="30.6616" x2="21.9975" y2="30.6616">
		<stop  offset="0" style="stop-color:#009FDE"/>
		<stop  offset="1" style="stop-color:#3054E1"/>
	</linearGradient>
	
		<line fill="url(#SVGID_6_)" stroke="#20293B" stroke-width="2.5" stroke-miterlimit="10" x1="21.998" y1="30.662" x2="8.496" y2="30.662"/>
	<linearGradient id="SVGID_7_" gradientUnits="userSpaceOnUse" x1="29.7127" y1="39.7465" x2="43.2143" y2="39.7465">
		<stop  offset="0" style="stop-color:#009FDE"/>
		<stop  offset="1" style="stop-color:#3054E1"/>
	</linearGradient>
	
		<line fill="url(#SVGID_7_)" stroke="#20293B" stroke-width="2.5" stroke-miterlimit="10" x1="43.214" y1="39.746" x2="29.713" y2="39.746"/>
	<linearGradient id="SVGID_8_" gradientUnits="userSpaceOnUse" x1="8.4959" y1="39.7465" x2="21.9975" y2="39.7465">
		<stop  offset="0" style="stop-color:#009FDE"/>
		<stop  offset="1" style="stop-color:#3054E1"/>
	</linearGradient>
	
		<line fill="url(#SVGID_8_)" stroke="#20293B" stroke-width="2.5" stroke-miterlimit="10" x1="21.998" y1="39.746" x2="8.496" y2="39.746"/>
	<path fill="#20293B" d="M49.21,27.255v15.331c0,7.138-5.807,12.945-12.945,12.945h-20.82C8.307,55.531,2.5,49.724,2.5,42.585
		V27.255H0v15.331c0,8.517,6.929,15.445,15.445,15.445h9.16v5.816h2.5v-5.816h9.16c8.516,0,15.445-6.929,15.445-15.445V27.255H49.21
		z"/>
</g>
<g id="_x31_0_1_">
</g>
<g id="_x31_1_1_">
</g>
<g id="_x31_2_1_">
</g>
<g id="_x31_3">
</g>
</svg>
