<?xml version="1.0" encoding="utf-8"?>
<!-- Generator: Adobe Illustrator 21.1.0, SVG Export Plug-In . SVG Version: 6.00 Build 0)  -->
<svg version="1.1" xmlns="http://www.w3.org/2000/svg" xmlns:xlink="http://www.w3.org/1999/xlink" x="0px" y="0px"
	 width="63.867px" height="30.207px" viewBox="0 0 63.867 30.207" enable-background="new 0 0 63.867 30.207" xml:space="preserve">
<g id="background">
</g>
<g id="_x31_">
</g>
<g id="_x32__1_">
</g>
<g id="_x33__1_">
</g>
<g id="_x34__1_">
</g>
<g id="_x35__1_">
</g>
<g id="_x36__1_">
</g>
<g id="_x37__1_">
</g>
<g id="_x38__1_">
</g>
<g id="_x39__1_">
</g>
<g id="_x31_0_1_">
</g>
<g id="_x31_1_1_">
</g>
<g id="_x31_2_1_">
</g>
<g id="_x31_3">
	<path fill="#20293B" d="M49.195,3.363c6.712,0,12.172,5.46,12.172,12.172c0,6.712-5.46,12.172-12.172,12.172
		c-4.761,0-9.112-2.811-11.083-7.162c-0.405-0.894-1.296-1.468-2.277-1.468h-7.803c-0.982,0-1.872,0.574-2.277,1.468
		c-1.971,4.351-6.321,7.162-11.083,7.162C7.96,27.707,2.5,22.247,2.5,15.535c0-6.712,5.46-12.172,12.172-12.172H49.195
		 M49.195,0.863H14.672C6.569,0.863,0,7.432,0,15.535c0,8.103,6.569,14.672,14.672,14.672c5.947,0,11.056-3.545,13.36-8.631h7.803
		c2.304,5.086,7.413,8.631,13.36,8.631c8.103,0,14.672-6.569,14.672-14.672C63.867,7.432,57.298,0.863,49.195,0.863L49.195,0.863z"
		/>
	
		<circle fill="none" stroke="#20293B" stroke-width="1.5" stroke-linejoin="round" stroke-miterlimit="10" cx="14.672" cy="15.535" r="6.905"/>
	<path fill="#20293B" d="M49.195,6.041c-5.243,0-9.494,4.25-9.494,9.494s4.25,9.494,9.494,9.494c5.243,0,9.494-4.25,9.494-9.494
		S54.438,6.041,49.195,6.041z M44.879,17.261c-0.953,0-1.726-0.773-1.726-1.726s0.773-1.726,1.726-1.726s1.726,0.773,1.726,1.726
		S45.833,17.261,44.879,17.261z M49.195,21.577c-0.953,0-1.726-0.773-1.726-1.726s0.773-1.726,1.726-1.726
		c0.953,0,1.726,0.773,1.726,1.726S50.148,21.577,49.195,21.577z M49.195,12.946c-0.953,0-1.726-0.773-1.726-1.726
		s0.773-1.726,1.726-1.726c0.953,0,1.726,0.773,1.726,1.726S50.148,12.946,49.195,12.946z M53.51,17.261
		c-0.953,0-1.726-0.773-1.726-1.726s0.773-1.726,1.726-1.726s1.726,0.773,1.726,1.726S54.463,17.261,53.51,17.261z"/>
	<polygon fill="#20293B" points="15.751,14.411 15.751,12.083 13.593,12.083 13.593,14.411 11.112,14.411 11.112,16.569 
		13.593,16.569 13.593,18.987 15.751,18.987 15.751,16.569 18.125,16.569 18.125,14.411 	"/>
	<path fill="#20293B" d="M32.112,16.145L32.112,16.145c-0.337-0.337-0.337-0.884,0-1.221l2.158-2.158
		c0.337-0.337,0.884-0.337,1.221,0l0,0c0.337,0.337,0.337,0.884,0,1.221l-2.158,2.158C32.996,16.482,32.449,16.482,32.112,16.145z"
		/>
	<path fill="#20293B" d="M27.008,16.145L27.008,16.145c-0.337-0.337-0.337-0.884,0-1.221l2.158-2.158
		c0.337-0.337,0.884-0.337,1.221,0l0,0c0.337,0.337,0.337,0.884,0,1.221l-2.158,2.158C27.891,16.482,27.345,16.482,27.008,16.145z"
		/>
	<path fill="#20293B" d="M21.577,0l-7.768,0c-0.953,0-1.726,0.773-1.726,1.726v0h11.22v0C23.303,0.773,22.53,0,21.577,0z"/>
	<path fill="#20293B" d="M50.058,0L42.29,0c-0.953,0-1.726,0.773-1.726,1.726v0h11.22v0C51.784,0.773,51.011,0,50.058,0z"/>
</g>
</svg>
