<?xml version="1.0" encoding="utf-8"?>
<!-- Generator: Adobe Illustrator 21.1.0, SVG Export Plug-In . SVG Version: 6.00 Build 0)  -->
<svg version="1.1" xmlns="http://www.w3.org/2000/svg" xmlns:xlink="http://www.w3.org/1999/xlink" x="0px" y="0px"
	 width="63.814px" height="56.98px" viewBox="0 0 63.814 56.98" enable-background="new 0 0 63.814 56.98" xml:space="preserve">
<g id="background">
</g>
<g id="_x31_">
</g>
<g id="_x32__1_">
</g>
<g id="_x33__1_">
</g>
<g id="_x34__1_">
</g>
<g id="_x35__1_">
</g>
<g id="_x36__1_">
</g>
<g id="_x37__1_">
	<path fill="none" stroke="#20293B" stroke-width="1.5" stroke-linejoin="round" stroke-miterlimit="10" d="M56.233,14.534
		l-0.548-7.668c-0.219-3.06-2.765-5.431-5.833-5.431H13.987c-3.079,0-5.63,2.387-5.835,5.459L7.581,15.47"/>
	<path fill="#20293B" d="M59.026,56.98H4.788c-1.322,0-2.597-0.554-3.499-1.519c-0.901-0.966-1.368-2.276-1.278-3.594l2.328-34.15
		c0.171-2.502,2.269-4.462,4.777-4.462h49.582c2.509,0,4.606,1.96,4.776,4.463l2.329,34.15c0.09,1.318-0.377,2.628-1.278,3.594
		C61.623,56.427,60.348,56.98,59.026,56.98z M7.116,15.813c-1.168,0-2.145,0.913-2.225,2.079l-2.328,34.15
		c-0.042,0.623,0.169,1.217,0.595,1.674c0.427,0.456,1.005,0.707,1.63,0.707h54.238c0.624,0,1.203-0.251,1.63-0.707
		c0.427-0.457,0.637-1.051,0.595-1.674l-2.329-34.15c-0.079-1.165-1.056-2.078-2.224-2.078H7.116z"/>
	<path fill="none" stroke="#20293B" stroke-miterlimit="10" d="M49.684,2.371H14.13c-0.517,0-0.936-0.419-0.936-0.936v0
		c0-0.517,0.419-0.936,0.936-0.936h35.554c0.517,0,0.936,0.419,0.936,0.936v0C50.619,1.952,50.2,2.371,49.684,2.371z"/>
	<line fill="none" stroke="#20293B" stroke-width="1.5" stroke-miterlimit="10" x1="1.967" y1="36.054" x2="61.847" y2="36.054"/>
	<line fill="none" stroke="#20293B" stroke-width="1.5" stroke-miterlimit="10" x1="1.967" y1="40.732" x2="61.847" y2="40.732"/>
	<line fill="none" stroke="#20293B" stroke-width="1.5" stroke-miterlimit="10" x1="1.967" y1="45.41" x2="61.847" y2="45.41"/>
	<line fill="none" stroke="#20293B" stroke-width="1.5" stroke-miterlimit="10" x1="1.967" y1="50.088" x2="61.847" y2="50.088"/>
	<circle fill="#20293B" cx="45.941" cy="24.826" r="1.121"/>
	<path fill="#20293B" d="M45.941,17.341c-4.134,0-7.485,3.351-7.485,7.485s3.351,7.485,7.485,7.485c4.134,0,7.485-3.351,7.485-7.485
		S50.075,17.341,45.941,17.341z M45.192,18.277h1.5v2.807h-1.5V18.277z M45.942,27.447c-1.446,0-2.622-1.176-2.622-2.622
		s1.176-2.621,2.622-2.621c1.445,0,2.621,1.176,2.621,2.621S47.387,27.447,45.942,27.447z"/>
	<circle fill="#20293B" cx="17.851" cy="43.115" r="6.769"/>
	<rect x="18.622" y="23.89" fill="#20293B" width="4.114" height="2.807"/>
	<rect x="13.009" y="23.89" fill="#20293B" width="4.113" height="2.807"/>
	<path fill="#20293B" d="M11.509,23.89H8.984c-0.775,0-1.403,0.628-1.403,1.403s0.628,1.403,1.403,1.403h2.525V23.89z"/>
	<path fill="#20293B" d="M26.761,23.89h-2.524v2.807h2.524c0.775,0,1.403-0.628,1.403-1.403S27.536,23.89,26.761,23.89z"/>
</g>
<g id="_x38__1_">
</g>
<g id="_x39__1_">
</g>
<g id="_x31_0_1_">
</g>
<g id="_x31_1_1_">
</g>
<g id="_x31_2_1_">
</g>
<g id="_x31_3">
</g>
</svg>
