<svg xmlns="http://www.w3.org/2000/svg" viewBox="0 0 96 96"><title>Persuaid Iconset</title>
<desc>Iconset Persuaid</desc>
<metadata><?xpacket begin="﻿" id="W5M0MpCehiHzreSzNTczkc9d"?>
<x:xmpmeta xmlns:x="adobe:ns:meta/" x:xmptk="Adobe XMP Core 5.6-c143 79.161356, 2017/09/07-01:11:22        ">
   <rdf:RDF xmlns:rdf="http://www.w3.org/1999/02/22-rdf-syntax-ns#">
      <rdf:Description rdf:about=""
            xmlns:xmp="http://ns.adobe.com/xap/1.0/"
            xmlns:dc="http://purl.org/dc/elements/1.1/"
            xmlns:photoshop="http://ns.adobe.com/photoshop/1.0/"
            xmlns:xmpRights="http://ns.adobe.com/xap/1.0/rights/"
            xmlns:xmpMM="http://ns.adobe.com/xap/1.0/mm/"
            xmlns:stEvt="http://ns.adobe.com/xap/1.0/sType/ResourceEvent#">
         <xmp:CreateDate>2015-11-30T17:16:01+01:00</xmp:CreateDate>
         <xmp:MetadataDate>2018-08-22T17:18:29+02:00</xmp:MetadataDate>
         <dc:title>
            <rdf:Alt>
               <rdf:li xml:lang="x-default">Persuaid Iconset</rdf:li>
            </rdf:Alt>
         </dc:title>
         <dc:rights>
            <rdf:Alt>
               <rdf:li xml:lang="x-default">© Persuaid 2018. All rights reserved.</rdf:li>
            </rdf:Alt>
         </dc:rights>
         <dc:creator>
            <rdf:Seq>
               <rdf:li>Tobias Wibbeke</rdf:li>
            </rdf:Seq>
         </dc:creator>
         <dc:description>
            <rdf:Alt>
               <rdf:li xml:lang="x-default">Iconset Persuaid</rdf:li>
            </rdf:Alt>
         </dc:description>
         <photoshop:ColorMode>3</photoshop:ColorMode>
         <photoshop:DocumentAncestors>
            <rdf:Bag>
               <rdf:li>0873518BF6912EFD4766990C4D25551B</rdf:li>
               <rdf:li>09F803ABF2B8168C111289953D19B0BD</rdf:li>
               <rdf:li>541B6538F0DE75543B8E50186559AAE9</rdf:li>
               <rdf:li>54A15BC4A85368316D15C9AB0DF33C7F</rdf:li>
               <rdf:li>83DDB2F89EAF8ACD03447E0EDEE1742F</rdf:li>
               <rdf:li>9100F0C02D3A9856BD3A23CDBF4F2B7E</rdf:li>
               <rdf:li>F34013D5C71AFDB68A7DAAC6B8DDC337</rdf:li>
               <rdf:li>xmp.did:09d7ff2f-0dfd-4de8-97a6-cda3fb2cf8dd</rdf:li>
               <rdf:li>xmp.did:b67f30a8-6cc7-4bbf-a790-fe0dd782df27</rdf:li>
            </rdf:Bag>
         </photoshop:DocumentAncestors>
         <photoshop:AuthorsPosition>Persuaid | Tobias Wibbeke</photoshop:AuthorsPosition>
         <photoshop:CaptionWriter>Tobias Wibbeke</photoshop:CaptionWriter>
         <xmpRights:Marked>True</xmpRights:Marked>
         <xmpRights:WebStatement>www.persuaid.de</xmpRights:WebStatement>
         <xmpMM:InstanceID>xmp.iid:6d690f6a-629e-4830-a21a-ba0781ca9d08</xmpMM:InstanceID>
         <xmpMM:DocumentID>xmp.did:6d690f6a-629e-4830-a21a-ba0781ca9d08</xmpMM:DocumentID>
         <xmpMM:OriginalDocumentID>xmp.did:6d690f6a-629e-4830-a21a-ba0781ca9d08</xmpMM:OriginalDocumentID>
         <xmpMM:History>
            <rdf:Seq>
               <rdf:li>
                  <rdf:Description>
                     <stEvt:action>saved</stEvt:action>
                     <stEvt:instanceID>xmp.iid:6d690f6a-629e-4830-a21a-ba0781ca9d08</stEvt:instanceID>
                     <stEvt:when>2018-08-22T17:18:29+02:00</stEvt:when>
                     <stEvt:softwareAgent>Adobe Bridge CC 2018 (Macintosh)</stEvt:softwareAgent>
                     <stEvt:changed>/metadata</stEvt:changed>
                  </rdf:Description>
               </rdf:li>
            </rdf:Seq>
         </xmpMM:History>
      </rdf:Description>
   </rdf:RDF>
</x:xmpmeta>
                                                                                                    
                                                                                                    
                                                                                                    
                                                                                                    
                                                                                                    
                                                                                                    
                                                                                                    
                                                                                                    
                                                                                                    
                                                                                                    
                                                                                                    
                                                                                                    
                                                                                                    
                                                                                                    
                                                                                                    
                                                                                                    
                                                                                                    
                                                                                                    
                                                                                                    
                                                                                                    
                           
<?xpacket end="w"?></metadata>
<path fill="none" d="M0 0h96v96H0z"/><path d="M83 94h-3.1c-.4-2.4-2.1-4-4.4-4-.2 0-.4 0-.6.1L65.5 70c.9-.2 1.5-1 1.5-1.9 0-1.1-.9-2-2-2h-1.3l-4.8-10.4c2.7-1.3 5.3-3 7.5-5.2 4.8-4.8 7.3-11.1 7.6-17.4h3c.6 0 1-.4 1-1s-.4-1-1-1h-3c-.2-6.3-2.8-12.6-7.6-17.4C63.1 10.3 59.2 8.1 55 7c0-3.8-3.2-7-7-7s-7 3.2-7 7c-4.2 1.2-8.1 3.4-11.4 6.6-4.8 4.8-7.3 11.1-7.6 17.4h-3c-.6 0-1 .4-1 1s.4 1 1 1h3c.2 6.3 2.8 12.6 7.6 17.4 2.1 2.1 4.6 3.8 7.1 5.1L32 66h-1c-1.1 0-2 .9-2 2 0 .8.5 1.5 1.2 1.8l-4.8 10.5c-.7-.2-1.6-.3-2.4-.3-2.1 0-4.1.8-5.7 2.3-1.5 1.6-2.3 3.6-2.3 5.7s.8 4.1 2.3 5.7c1.5 1.5 3.5 2.3 5.7 2.3s4.1-.8 5.7-2.3c1.5-1.5 2.3-3.5 2.3-5.7s-.8-4.1-2.3-5.7c-.4-.4-.9-.8-1.4-1.1L32.4 70h31L73 90.8c-.2.1-.4.3-.5.4-.7.7-1.2 1.7-1.4 2.8H68c-.6 0-1 .4-1 1s.4 1 1 1h15c.6 0 1-.4 1-1s-.4-1-1-1zm-57.2-3.2c-1.5 1.5-4.1 1.5-5.7 0-.7-.7-1.1-1.7-1.1-2.8s.4-2.1 1.2-2.8S21.9 84 23 84s2.1.4 2.8 1.2S27 86.9 27 88s-.4 2.1-1.2 2.8zM48 2c2.5 0 4.7 2 4.9 4.5-3.3-.6-6.6-.6-9.9 0C43.3 4 45.5 2 48 2zM32.4 16.4c8.6-8.6 22.5-8.6 31.1 0 4 4 6.1 9.3 6.4 14.6H26.1c.2-5.3 2.3-10.5 6.3-14.6zM26.1 33H70c-.2 5.3-2.4 10.5-6.4 14.6-8.6 8.6-22.5 8.6-31.1 0-4.1-4.1-6.2-9.3-6.4-14.6zm8.1 33l4.4-9.8c3 1.2 6.2 1.8 9.4 1.8 3.1 0 6.1-.5 9-1.6l4.5 9.6H34.2zm39.7 26.6c.4-.4.9-.6 1.6-.6 1.4 0 2.1.9 2.3 2h-4.7c.2-.6.4-1 .8-1.4z"/><path d="M55 26H41c-.6 0-1 .4-1 1s.4 1 1 1h14c.6 0 1-.4 1-1s-.4-1-1-1z"/></svg>