<svg xmlns="http://www.w3.org/2000/svg" viewBox="0 0 96 96"><title>Persuaid Iconset</title>
<desc>Iconset Persuaid</desc>
<metadata><?xpacket begin="﻿" id="W5M0MpCehiHzreSzNTczkc9d"?>
<x:xmpmeta xmlns:x="adobe:ns:meta/" x:xmptk="Adobe XMP Core 5.6-c143 79.161356, 2017/09/07-01:11:22        ">
   <rdf:RDF xmlns:rdf="http://www.w3.org/1999/02/22-rdf-syntax-ns#">
      <rdf:Description rdf:about=""
            xmlns:xmp="http://ns.adobe.com/xap/1.0/"
            xmlns:dc="http://purl.org/dc/elements/1.1/"
            xmlns:photoshop="http://ns.adobe.com/photoshop/1.0/"
            xmlns:xmpRights="http://ns.adobe.com/xap/1.0/rights/"
            xmlns:xmpMM="http://ns.adobe.com/xap/1.0/mm/"
            xmlns:stEvt="http://ns.adobe.com/xap/1.0/sType/ResourceEvent#">
         <xmp:CreateDate>2015-11-30T17:16:01+01:00</xmp:CreateDate>
         <xmp:MetadataDate>2018-08-22T17:18:29+02:00</xmp:MetadataDate>
         <dc:title>
            <rdf:Alt>
               <rdf:li xml:lang="x-default">Persuaid Iconset</rdf:li>
            </rdf:Alt>
         </dc:title>
         <dc:rights>
            <rdf:Alt>
               <rdf:li xml:lang="x-default">© Persuaid 2018. All rights reserved.</rdf:li>
            </rdf:Alt>
         </dc:rights>
         <dc:creator>
            <rdf:Seq>
               <rdf:li>Tobias Wibbeke</rdf:li>
            </rdf:Seq>
         </dc:creator>
         <dc:description>
            <rdf:Alt>
               <rdf:li xml:lang="x-default">Iconset Persuaid</rdf:li>
            </rdf:Alt>
         </dc:description>
         <photoshop:ColorMode>3</photoshop:ColorMode>
         <photoshop:DocumentAncestors>
            <rdf:Bag>
               <rdf:li>0873518BF6912EFD4766990C4D25551B</rdf:li>
               <rdf:li>09F803ABF2B8168C111289953D19B0BD</rdf:li>
               <rdf:li>541B6538F0DE75543B8E50186559AAE9</rdf:li>
               <rdf:li>54A15BC4A85368316D15C9AB0DF33C7F</rdf:li>
               <rdf:li>83DDB2F89EAF8ACD03447E0EDEE1742F</rdf:li>
               <rdf:li>9100F0C02D3A9856BD3A23CDBF4F2B7E</rdf:li>
               <rdf:li>F34013D5C71AFDB68A7DAAC6B8DDC337</rdf:li>
               <rdf:li>xmp.did:09d7ff2f-0dfd-4de8-97a6-cda3fb2cf8dd</rdf:li>
               <rdf:li>xmp.did:b67f30a8-6cc7-4bbf-a790-fe0dd782df27</rdf:li>
            </rdf:Bag>
         </photoshop:DocumentAncestors>
         <photoshop:AuthorsPosition>Persuaid | Tobias Wibbeke</photoshop:AuthorsPosition>
         <photoshop:CaptionWriter>Tobias Wibbeke</photoshop:CaptionWriter>
         <xmpRights:Marked>True</xmpRights:Marked>
         <xmpRights:WebStatement>www.persuaid.de</xmpRights:WebStatement>
         <xmpMM:InstanceID>xmp.iid:a1d2aef2-75f7-49bc-9b89-fb1d4528c958</xmpMM:InstanceID>
         <xmpMM:DocumentID>xmp.did:a1d2aef2-75f7-49bc-9b89-fb1d4528c958</xmpMM:DocumentID>
         <xmpMM:OriginalDocumentID>xmp.did:a1d2aef2-75f7-49bc-9b89-fb1d4528c958</xmpMM:OriginalDocumentID>
         <xmpMM:History>
            <rdf:Seq>
               <rdf:li>
                  <rdf:Description>
                     <stEvt:action>saved</stEvt:action>
                     <stEvt:instanceID>xmp.iid:a1d2aef2-75f7-49bc-9b89-fb1d4528c958</stEvt:instanceID>
                     <stEvt:when>2018-08-22T17:18:29+02:00</stEvt:when>
                     <stEvt:softwareAgent>Adobe Bridge CC 2018 (Macintosh)</stEvt:softwareAgent>
                     <stEvt:changed>/metadata</stEvt:changed>
                  </rdf:Description>
               </rdf:li>
            </rdf:Seq>
         </xmpMM:History>
      </rdf:Description>
   </rdf:RDF>
</x:xmpmeta>
                                                                                                    
                                                                                                    
                                                                                                    
                                                                                                    
                                                                                                    
                                                                                                    
                                                                                                    
                                                                                                    
                                                                                                    
                                                                                                    
                                                                                                    
                                                                                                    
                                                                                                    
                                                                                                    
                                                                                                    
                                                                                                    
                                                                                                    
                                                                                                    
                                                                                                    
                                                                                                    
                           
<?xpacket end="w"?></metadata>
<path fill="none" d="M0 0h96v96H0z"/><path d="M68 47.7c-.4-.4-.9-.7-1.5-.7H46.1l-8.2-28.9 22-6.5c.4-.1.7-.6.7-1s-.4-.8-.8-.9L34.1 4.9 33 .8c-.2-.5-.7-.8-1.2-.7-.5.2-.8.7-.7 1.2l1.2 4.1-19.8 18.3c-.4.3-.5.9-.2 1.3.2.3.5.5.9.5h.3L36 18.7 44 47H29.5c-.6 0-1.1.2-1.5.7s-.6 1-.5 1.6l5 45c.1 1 1 1.8 2 1.8h27c1 0 1.9-.8 2-1.8l5-45c.1-.6-.1-1.2-.5-1.6zM37.3 16.2L35 7.9l10 6-7.7 2.3zm10.3-3.1l-9-5.4 16.7 3.1-7.7 2.3zm-17.8-2.7l-4.7 9.2c-.1.1-.1.2-.1.3l-8 2.4 12.8-11.9zm-2.2 8.7l5.5-10.6 2.4 8.3-7.9 2.3zM64.3 51l-.8 7.2c-.7-.5-1.5-1.2-3-1.2-1.6 0-2.4.7-3.1 1.2-.6.5-1 .8-1.9.8-.9 0-1.3-.3-1.9-.8-.7-.5-1.5-1.2-3.1-1.2-.6 0-1.1.1-1.5.2L47.2 51h17.1zm-19.1 0l2.1 7.3c-.5.4-.9.7-1.7.7-.9 0-1.3-.3-1.9-.8-.7-.5-1.5-1.2-3.1-1.2s-2.4.7-3.1 1.2c-.6.5-1 .8-1.9.8s-1.3-.3-1.9-.8c-.4-.3-.8-.6-1.3-.8l-.7-6.4h13.5zm-12.5 9c.6.5 1.5 1 2.9 1 1.6 0 2.4-.7 3.1-1.2.6-.5 1-.8 1.9-.8.9 0 1.3.3 1.9.8.7.5 1.5 1.2 3.1 1.2 1 0 1.7-.3 2.3-.6L54.3 83l-4.4-2-4.1-1.9c-.5-.2-1.1 0-1.3.5l-4.4 9.6c-.2.5 0 1.1.5 1.3l3.2 1.5h-7.5l-3.6-32zm15.9 32l-6.3-2.9 3.5-7.8 3.2 1.4 4.6 2.1-3.2 7.2h-1.8zm6.6-5.7l1.6 5.7h-4.2l2.6-5.7zm4.5 5.7h-.8v-.2l-9.3-32.7c.3-.1.5-.2.9-.2.9 0 1.3.3 1.9.8.7.5 1.5 1.2 3.1 1.2s2.4-.7 3.1-1.2c.6-.5 1-.8 1.9-.8s1.3.3 1.9.8c.3.2.6.5.9.7L59.7 92z"/><path d="M55.3 66.4c-.3.3-.4.7-.4 1.1 0 .4.2.8.4 1.1.3.3.7.4 1.1.4.4 0 .8-.2 1.1-.4.3-.3.4-.7.4-1.1 0-.4-.2-.8-.4-1.1-.6-.5-1.6-.5-2.2 0zM39.1 65.1c0 .1.1.2.1.3.1.1.1.2.2.2.3.3.7.4 1.1.4h.3c.1 0 .2 0 .3-.1.1 0 .2-.1.3-.1.1-.1.2-.1.2-.2.3-.3.4-.7.4-1.1v-.3c0-.1 0-.2-.1-.3 0-.1-.1-.2-.1-.3-.1-.1-.1-.2-.2-.2-.1-.1-.2-.1-.2-.2-.1-.1-.2-.1-.3-.1-.1 0-.2-.1-.3-.1h-.6c-.1 0-.2 0-.3.1-.1 0-.2.1-.3.1-.1.1-.2.1-.2.2l-.2.2c-.1.1-.1.2-.1.3 0 .1-.1.2-.1.3v.6c0 .1.1.2.1.3zM43.7 72.8c.1 0 .2.1.3.1.1 0 .2.1.3.1h.6c.1 0 .2 0 .3-.1.1 0 .2-.1.3-.1.1-.1.2-.1.2-.2.3-.3.4-.7.4-1.1 0-.4-.2-.8-.4-1.1-.1-.1-.2-.1-.2-.2-.1-.1-.2-.1-.3-.1-.1 0-.2-.1-.3-.1h-.6c-.1 0-.2 0-.3.1-.1 0-.2.1-.3.1-.1.1-.2.1-.2.2l-.2.2c-.1.1-.1.2-.1.3 0 .1-.1.2-.1.3v.3c0 .4.2.8.4 1.1l.2.2zM40.3 78.8c.1-.1.2-.1.2-.2l.2-.2c0-.1.1-.2.1-.3 0-.1.1-.2.1-.3v-.3-.3c0-.1 0-.2-.1-.3 0-.1-.1-.2-.1-.3-.1-.1-.1-.2-.2-.2-.1-.1-.2-.1-.2-.2-.1-.1-.2-.1-.3-.1-.1 0-.2-.1-.3-.1-.5-.1-1 .1-1.4.4l-.2.2c-.1.1-.1.2-.1.3 0 .1-.1.2-.1.3v.6c0 .1 0 .2.1.3 0 .1.1.2.1.3.1.1.1.2.2.2l.2.2c.1 0 .2.1.3.1.1 0 .2.1.3.1h.6c.1 0 .2 0 .3-.1.2-.1.2-.1.3-.1z"/></svg>