<svg xmlns="http://www.w3.org/2000/svg" viewBox="0 0 96 96"><title>Persuaid Iconset</title>
<desc>Iconset Persuaid</desc>
<metadata><?xpacket begin="﻿" id="W5M0MpCehiHzreSzNTczkc9d"?>
<x:xmpmeta xmlns:x="adobe:ns:meta/" x:xmptk="Adobe XMP Core 5.6-c143 79.161356, 2017/09/07-01:11:22        ">
   <rdf:RDF xmlns:rdf="http://www.w3.org/1999/02/22-rdf-syntax-ns#">
      <rdf:Description rdf:about=""
            xmlns:xmp="http://ns.adobe.com/xap/1.0/"
            xmlns:dc="http://purl.org/dc/elements/1.1/"
            xmlns:photoshop="http://ns.adobe.com/photoshop/1.0/"
            xmlns:xmpRights="http://ns.adobe.com/xap/1.0/rights/"
            xmlns:xmpMM="http://ns.adobe.com/xap/1.0/mm/"
            xmlns:stEvt="http://ns.adobe.com/xap/1.0/sType/ResourceEvent#">
         <xmp:CreateDate>2015-11-30T17:16:01+01:00</xmp:CreateDate>
         <xmp:MetadataDate>2018-08-22T17:18:29+02:00</xmp:MetadataDate>
         <dc:title>
            <rdf:Alt>
               <rdf:li xml:lang="x-default">Persuaid Iconset</rdf:li>
            </rdf:Alt>
         </dc:title>
         <dc:rights>
            <rdf:Alt>
               <rdf:li xml:lang="x-default">© Persuaid 2018. All rights reserved.</rdf:li>
            </rdf:Alt>
         </dc:rights>
         <dc:creator>
            <rdf:Seq>
               <rdf:li>Tobias Wibbeke</rdf:li>
            </rdf:Seq>
         </dc:creator>
         <dc:description>
            <rdf:Alt>
               <rdf:li xml:lang="x-default">Iconset Persuaid</rdf:li>
            </rdf:Alt>
         </dc:description>
         <photoshop:ColorMode>3</photoshop:ColorMode>
         <photoshop:DocumentAncestors>
            <rdf:Bag>
               <rdf:li>0873518BF6912EFD4766990C4D25551B</rdf:li>
               <rdf:li>09F803ABF2B8168C111289953D19B0BD</rdf:li>
               <rdf:li>541B6538F0DE75543B8E50186559AAE9</rdf:li>
               <rdf:li>54A15BC4A85368316D15C9AB0DF33C7F</rdf:li>
               <rdf:li>83DDB2F89EAF8ACD03447E0EDEE1742F</rdf:li>
               <rdf:li>9100F0C02D3A9856BD3A23CDBF4F2B7E</rdf:li>
               <rdf:li>F34013D5C71AFDB68A7DAAC6B8DDC337</rdf:li>
               <rdf:li>xmp.did:09d7ff2f-0dfd-4de8-97a6-cda3fb2cf8dd</rdf:li>
               <rdf:li>xmp.did:b67f30a8-6cc7-4bbf-a790-fe0dd782df27</rdf:li>
            </rdf:Bag>
         </photoshop:DocumentAncestors>
         <photoshop:AuthorsPosition>Persuaid | Tobias Wibbeke</photoshop:AuthorsPosition>
         <photoshop:CaptionWriter>Tobias Wibbeke</photoshop:CaptionWriter>
         <xmpRights:Marked>True</xmpRights:Marked>
         <xmpRights:WebStatement>www.persuaid.de</xmpRights:WebStatement>
         <xmpMM:InstanceID>xmp.iid:006aaae0-4da7-48c4-a4c4-15ef2011484c</xmpMM:InstanceID>
         <xmpMM:DocumentID>xmp.did:006aaae0-4da7-48c4-a4c4-15ef2011484c</xmpMM:DocumentID>
         <xmpMM:OriginalDocumentID>xmp.did:006aaae0-4da7-48c4-a4c4-15ef2011484c</xmpMM:OriginalDocumentID>
         <xmpMM:History>
            <rdf:Seq>
               <rdf:li>
                  <rdf:Description>
                     <stEvt:action>saved</stEvt:action>
                     <stEvt:instanceID>xmp.iid:006aaae0-4da7-48c4-a4c4-15ef2011484c</stEvt:instanceID>
                     <stEvt:when>2018-08-22T17:18:29+02:00</stEvt:when>
                     <stEvt:softwareAgent>Adobe Bridge CC 2018 (Macintosh)</stEvt:softwareAgent>
                     <stEvt:changed>/metadata</stEvt:changed>
                  </rdf:Description>
               </rdf:li>
            </rdf:Seq>
         </xmpMM:History>
      </rdf:Description>
   </rdf:RDF>
</x:xmpmeta>
                                                                                                    
                                                                                                    
                                                                                                    
                                                                                                    
                                                                                                    
                                                                                                    
                                                                                                    
                                                                                                    
                                                                                                    
                                                                                                    
                                                                                                    
                                                                                                    
                                                                                                    
                                                                                                    
                                                                                                    
                                                                                                    
                                                                                                    
                                                                                                    
                                                                                                    
                                                                                                    
                           
<?xpacket end="w"?></metadata>
<path fill="none" d="M0 0h96v96H0z"/><path d="M57 13c.6 0 1-.4 1-1v-1h1c.6 0 1-.4 1-1s-.4-1-1-1h-2c-.6 0-1 .4-1 1v2c0 .6.4 1 1 1zM49.7 6.3c-.1 0-.1-.1-.1-.1-.1 0-.1-.1-.2-.1s-.1 0-.2-.1h-.4c-.1 0-.1 0-.2.1-.1 0-.1 0-.2.1-.1 0-.1.1-.1.1-.1.1-.2.2-.2.3-.1.1-.1.3-.1.4 0 .3.1.5.3.7.1.1.2.2.3.2.1.1.3.1.4.1.1 0 .3 0 .4-.1s.2-.1.3-.2c.2-.2.3-.4.3-.7 0-.1 0-.3-.1-.4 0-.1-.1-.2-.2-.3zM67.6 27c.1 0 .2.1.4.1.1 0 .3 0 .4-.1.1 0 .2-.1.3-.2.2-.2.3-.4.3-.7v-.2c0-.1 0-.1-.1-.2 0-.1 0-.1-.1-.2 0-.1-.1-.1-.1-.2-.1-.1-.2-.2-.3-.2-.2-.1-.5-.1-.8 0-.1 0-.2.1-.3.2 0 0-.1.1-.1.2 0 0-.1.1-.1.2s0 .1-.1.2v.2c0 .3.1.5.3.7 0 0 .2.1.3.2zM65 18c.1 0 .3 0 .4-.1s.2-.1.3-.2c.1-.1.2-.2.2-.3.1-.1.1-.3.1-.4s0-.3-.1-.4c-.1-.1-.1-.2-.2-.3-.1 0-.1-.1-.1-.1-.1 0-.1-.1-.2-.1s-.1 0-.2-.1c-.2 0-.4 0-.6.1-.1 0-.2.1-.3.2-.1.1-.2.2-.2.3 0 .1-.1.2-.1.4 0 .3.1.5.3.7.2.2.4.3.7.3zM28.7 0h-.1c-4.3 0-8.5 1.8-11.5 4.9C14.3 8 12.8 12 13 16.3l2.6 35c.5 7.5 5.7 12.7 12.7 12.7 7 0 12.4-5.3 13-13L44 15.8c.2-4.1-1.2-8-4-11.1-3-3-7-4.7-11.3-4.7zm-.4 60c-4.9 0-8.4-3.6-8.7-9l-2-26.9 10.9-5.2 10.9 5.2-2 26.6C37 55.3 34 60 28.3 60zM40 15.6l-.5 6.3-10-4.8V9c0-.6-.4-1-1-1s-1 .4-1 1v8.2l-10 4.8-.5-6c-.2-3.1.9-6.1 3.1-8.3C22.3 5.3 25.3 4 28.6 4h.1c3.2 0 6.1 1.3 8.3 3.5 2.1 2.3 3.2 5.1 3 8.1zM39 83c-.6 0-1 .4-1 1v1h-1c-.6 0-1 .4-1 1s.4 1 1 1h2c.6 0 1-.4 1-1v-2c0-.6-.4-1-1-1zM47.7 89.3s-.1-.1-.2-.1-.1-.1-.2-.1-.1-.1-.2-.1c-.2 0-.4 0-.6.1-.1 0-.2.1-.3.2-.1.1-.2.2-.2.3v.4c0 .1 0 .3.1.4.1.1.1.2.2.3.1.1.2.2.3.2s.2.1.4.1c.3 0 .5-.1.7-.3.2-.2.3-.4.3-.7 0-.1 0-.3-.1-.4-.1-.1-.1-.2-.2-.3zM28.7 69.3c-.4-.4-1-.4-1.4 0-.1.1-.2.2-.2.3 0 .1-.1.2-.1.4 0 .3.1.5.3.7.2.2.4.3.7.3s.5-.1.7-.3c.2-.2.3-.4.3-.7 0-.1 0-.3-.1-.4 0-.1-.1-.2-.2-.3zM30.6 78.1c-.1 0-.2.1-.3.2-.2.2-.3.4-.3.7 0 .3.1.5.3.7.2.2.4.3.7.3s.5-.1.7-.3c.2-.2.3-.4.3-.7 0-.3-.1-.5-.3-.7-.3-.3-.7-.4-1.1-.2zM78.9 36.8c-2.9-3-7-4.8-11.2-4.8h-.1c-4.3 0-8.5 1.8-11.5 4.9C53.3 40 51.8 44 52 48.3l2.6 35c.5 7.5 5.7 12.7 12.7 12.7 7 0 12.4-5.3 13-13L83 47.8c.2-4.1-1.2-8-4.1-11zm-19.8 2.9c2.2-2.4 5.3-3.7 8.5-3.7h.1c3.2 0 6.1 1.3 8.3 3.5 2.1 2.2 3.1 5.1 3 8l-.5 6.3-10-4.8v-8c0-.6-.4-1-1-1s-1 .4-1 1v8.2l-10 4.8-.5-6c-.2-3.1.9-6.1 3.1-8.3zM67.3 92c-4.9 0-8.4-3.6-8.7-9l-2-26.9 10.9-5.2 10.9 5.2-2 26.6C76 87.3 73 92 67.3 92z"/></svg>