<svg xmlns="http://www.w3.org/2000/svg" viewBox="0 0 96 96"><title>Persuaid Iconset</title>
<desc>Iconset Persuaid</desc>
<metadata><?xpacket begin="﻿" id="W5M0MpCehiHzreSzNTczkc9d"?>
<x:xmpmeta xmlns:x="adobe:ns:meta/" x:xmptk="Adobe XMP Core 5.6-c143 79.161356, 2017/09/07-01:11:22        ">
   <rdf:RDF xmlns:rdf="http://www.w3.org/1999/02/22-rdf-syntax-ns#">
      <rdf:Description rdf:about=""
            xmlns:xmp="http://ns.adobe.com/xap/1.0/"
            xmlns:dc="http://purl.org/dc/elements/1.1/"
            xmlns:photoshop="http://ns.adobe.com/photoshop/1.0/"
            xmlns:xmpRights="http://ns.adobe.com/xap/1.0/rights/"
            xmlns:xmpMM="http://ns.adobe.com/xap/1.0/mm/"
            xmlns:stEvt="http://ns.adobe.com/xap/1.0/sType/ResourceEvent#">
         <xmp:CreateDate>2015-11-30T17:16:01+01:00</xmp:CreateDate>
         <xmp:MetadataDate>2018-08-22T17:18:29+02:00</xmp:MetadataDate>
         <dc:title>
            <rdf:Alt>
               <rdf:li xml:lang="x-default">Persuaid Iconset</rdf:li>
            </rdf:Alt>
         </dc:title>
         <dc:rights>
            <rdf:Alt>
               <rdf:li xml:lang="x-default">© Persuaid 2018. All rights reserved.</rdf:li>
            </rdf:Alt>
         </dc:rights>
         <dc:creator>
            <rdf:Seq>
               <rdf:li>Tobias Wibbeke</rdf:li>
            </rdf:Seq>
         </dc:creator>
         <dc:description>
            <rdf:Alt>
               <rdf:li xml:lang="x-default">Iconset Persuaid</rdf:li>
            </rdf:Alt>
         </dc:description>
         <photoshop:ColorMode>3</photoshop:ColorMode>
         <photoshop:DocumentAncestors>
            <rdf:Bag>
               <rdf:li>0873518BF6912EFD4766990C4D25551B</rdf:li>
               <rdf:li>09F803ABF2B8168C111289953D19B0BD</rdf:li>
               <rdf:li>541B6538F0DE75543B8E50186559AAE9</rdf:li>
               <rdf:li>54A15BC4A85368316D15C9AB0DF33C7F</rdf:li>
               <rdf:li>83DDB2F89EAF8ACD03447E0EDEE1742F</rdf:li>
               <rdf:li>9100F0C02D3A9856BD3A23CDBF4F2B7E</rdf:li>
               <rdf:li>F34013D5C71AFDB68A7DAAC6B8DDC337</rdf:li>
               <rdf:li>xmp.did:09d7ff2f-0dfd-4de8-97a6-cda3fb2cf8dd</rdf:li>
               <rdf:li>xmp.did:b67f30a8-6cc7-4bbf-a790-fe0dd782df27</rdf:li>
            </rdf:Bag>
         </photoshop:DocumentAncestors>
         <photoshop:AuthorsPosition>Persuaid | Tobias Wibbeke</photoshop:AuthorsPosition>
         <photoshop:CaptionWriter>Tobias Wibbeke</photoshop:CaptionWriter>
         <xmpRights:Marked>True</xmpRights:Marked>
         <xmpRights:WebStatement>www.persuaid.de</xmpRights:WebStatement>
         <xmpMM:InstanceID>xmp.iid:b08aa6a7-6608-45fb-8b87-143fbd38ca12</xmpMM:InstanceID>
         <xmpMM:DocumentID>xmp.did:b08aa6a7-6608-45fb-8b87-143fbd38ca12</xmpMM:DocumentID>
         <xmpMM:OriginalDocumentID>xmp.did:b08aa6a7-6608-45fb-8b87-143fbd38ca12</xmpMM:OriginalDocumentID>
         <xmpMM:History>
            <rdf:Seq>
               <rdf:li>
                  <rdf:Description>
                     <stEvt:action>saved</stEvt:action>
                     <stEvt:instanceID>xmp.iid:b08aa6a7-6608-45fb-8b87-143fbd38ca12</stEvt:instanceID>
                     <stEvt:when>2018-08-22T17:18:29+02:00</stEvt:when>
                     <stEvt:softwareAgent>Adobe Bridge CC 2018 (Macintosh)</stEvt:softwareAgent>
                     <stEvt:changed>/metadata</stEvt:changed>
                  </rdf:Description>
               </rdf:li>
            </rdf:Seq>
         </xmpMM:History>
      </rdf:Description>
   </rdf:RDF>
</x:xmpmeta>
                                                                                                    
                                                                                                    
                                                                                                    
                                                                                                    
                                                                                                    
                                                                                                    
                                                                                                    
                                                                                                    
                                                                                                    
                                                                                                    
                                                                                                    
                                                                                                    
                                                                                                    
                                                                                                    
                                                                                                    
                                                                                                    
                                                                                                    
                                                                                                    
                                                                                                    
                                                                                                    
                           
<?xpacket end="w"?></metadata>
<path fill="none" d="M0 0h96v96H0z"/><path d="M95.7 50c0-.1.1-.1.1-.2s.1-.1.1-.2 0-.1.1-.2v-.2-.2-.2-.2-.2c0-.1 0-.1-.1-.2 0-.1 0-.1-.1-.2 0-.1-.1-.1-.1-.2s-.1-.1-.1-.2c0 0 0-.1-.1-.1-.4-.5-9.5-11.3-25.4-17.9-.9-.4-1.8-.7-2.8-1.1l-.8-.3c-.6-.2-1.3-.5-1.8-.7-.5-1.6-2-2.7-3.8-2.7-1.9 0-3.4 1.3-3.9 3h-2.1c-.6 0-1 .4-1 1s.4 1 1 1H57c.4 1.7 2 3 3.9 3 1.2 0 2.2-.5 2.9-1.3.4.2.9.3 1.3.5l.8.3c.6.2 1.2.5 1.8.7-2.8 7.2-9.8 12-17.5 12-3.5 0-6.9-1-10-2.8-.1-.1-.2-.1-.3-.1H19.6c-.3 0-.6.1-.8.4L15.2 47H8.9c-.3 0-.6.2-.8.4l-5 7.3L1 57.9l-.7 1s0 .1-.1.1l-.1.2c-.1.2-.1.4-.1.6 0 .4 0 .8.2 1.1l6 11c.4.6 1 1 1.8 1h58c.6 0 14.7-.1 24.4-9.6.4-.4.6-.9.6-1.4v-7.2l4.4-4.4s0-.1.1-.1l.1-.1c.1 0 .1 0 .1-.1zM61 31c-1.1 0-2-.9-2-2s.9-2 2-2 2 .9 2 2-.9 2-2 2zM9.4 49h6.3c.3 0 .6-.1.8-.4l3.7-4.6h2.6l-1.4 1.9c-.3.4-.2 1.1.2 1.4.2.1.4.2.6.2.3 0 .6-.1.8-.4l2.2-3.1h2.5l-1.4 1.9c-.3.4-.2 1.1.2 1.4.2.1.4.2.6.2.3 0 .6-.1.8-.4l2.2-3.1h2.5l-1.4 1.9c-.3.4-.2 1.1.2 1.4.2.1.4.2.6.2.3 0 .6-.1.8-.4L35 44h2.5l-1.4 1.9c-.3.4-.2 1.1.2 1.4.2.1.4.2.6.2.3 0 .6-.1.8-.4l2-2.8C42.8 46 46.3 47 49.9 47c8.5 0 16.2-5.3 19.4-13.1 11.2 4.9 18.8 12.1 21.6 15L88.2 52H66.8l1.4-2h4.9c.6 0 1-.4 1-1s-.4-1-1-1h-5.4c-.3 0-.6.2-.8.4L64.3 52h-57l2.1-3zM66 69H9.2l-4.9-8.9L7.1 56H87v5.1C78.5 68.9 66.1 69 66 69z"/><path d="M24 61H14c-.6 0-1 .4-1 1s.4 1 1 1h10c.6 0 1-.4 1-1s-.4-1-1-1zM32 61h-2c-.6 0-1 .4-1 1s.4 1 1 1h2c.6 0 1-.4 1-1s-.4-1-1-1zM76 61c-.6 0-1 .4-1 1s.5 1 1 1 1-.4 1-1-.4-1-1-1zM72 61h-5c-.6 0-1 .4-1 1s.4 1 1 1h5c.6 0 1-.4 1-1s-.4-1-1-1z"/></svg>