<svg xmlns="http://www.w3.org/2000/svg" viewBox="0 0 96 96"><title>Persuaid Iconset</title>
<desc>Iconset Persuaid</desc>
<metadata><?xpacket begin="﻿" id="W5M0MpCehiHzreSzNTczkc9d"?>
<x:xmpmeta xmlns:x="adobe:ns:meta/" x:xmptk="Adobe XMP Core 5.6-c143 79.161356, 2017/09/07-01:11:22        ">
   <rdf:RDF xmlns:rdf="http://www.w3.org/1999/02/22-rdf-syntax-ns#">
      <rdf:Description rdf:about=""
            xmlns:xmp="http://ns.adobe.com/xap/1.0/"
            xmlns:dc="http://purl.org/dc/elements/1.1/"
            xmlns:photoshop="http://ns.adobe.com/photoshop/1.0/"
            xmlns:xmpRights="http://ns.adobe.com/xap/1.0/rights/"
            xmlns:xmpMM="http://ns.adobe.com/xap/1.0/mm/"
            xmlns:stEvt="http://ns.adobe.com/xap/1.0/sType/ResourceEvent#">
         <xmp:CreateDate>2015-11-30T17:16:01+01:00</xmp:CreateDate>
         <xmp:MetadataDate>2018-08-22T17:18:30+02:00</xmp:MetadataDate>
         <dc:title>
            <rdf:Alt>
               <rdf:li xml:lang="x-default">Persuaid Iconset</rdf:li>
            </rdf:Alt>
         </dc:title>
         <dc:rights>
            <rdf:Alt>
               <rdf:li xml:lang="x-default">© Persuaid 2018. All rights reserved.</rdf:li>
            </rdf:Alt>
         </dc:rights>
         <dc:creator>
            <rdf:Seq>
               <rdf:li>Tobias Wibbeke</rdf:li>
            </rdf:Seq>
         </dc:creator>
         <dc:description>
            <rdf:Alt>
               <rdf:li xml:lang="x-default">Iconset Persuaid</rdf:li>
            </rdf:Alt>
         </dc:description>
         <photoshop:ColorMode>3</photoshop:ColorMode>
         <photoshop:DocumentAncestors>
            <rdf:Bag>
               <rdf:li>0873518BF6912EFD4766990C4D25551B</rdf:li>
               <rdf:li>09F803ABF2B8168C111289953D19B0BD</rdf:li>
               <rdf:li>541B6538F0DE75543B8E50186559AAE9</rdf:li>
               <rdf:li>54A15BC4A85368316D15C9AB0DF33C7F</rdf:li>
               <rdf:li>83DDB2F89EAF8ACD03447E0EDEE1742F</rdf:li>
               <rdf:li>9100F0C02D3A9856BD3A23CDBF4F2B7E</rdf:li>
               <rdf:li>F34013D5C71AFDB68A7DAAC6B8DDC337</rdf:li>
               <rdf:li>xmp.did:09d7ff2f-0dfd-4de8-97a6-cda3fb2cf8dd</rdf:li>
               <rdf:li>xmp.did:b67f30a8-6cc7-4bbf-a790-fe0dd782df27</rdf:li>
            </rdf:Bag>
         </photoshop:DocumentAncestors>
         <photoshop:AuthorsPosition>Persuaid | Tobias Wibbeke</photoshop:AuthorsPosition>
         <photoshop:CaptionWriter>Tobias Wibbeke</photoshop:CaptionWriter>
         <xmpRights:Marked>True</xmpRights:Marked>
         <xmpRights:WebStatement>www.persuaid.de</xmpRights:WebStatement>
         <xmpMM:InstanceID>xmp.iid:41766354-db44-4f47-8b05-17b9915b6b15</xmpMM:InstanceID>
         <xmpMM:DocumentID>xmp.did:41766354-db44-4f47-8b05-17b9915b6b15</xmpMM:DocumentID>
         <xmpMM:OriginalDocumentID>xmp.did:41766354-db44-4f47-8b05-17b9915b6b15</xmpMM:OriginalDocumentID>
         <xmpMM:History>
            <rdf:Seq>
               <rdf:li>
                  <rdf:Description>
                     <stEvt:action>saved</stEvt:action>
                     <stEvt:instanceID>xmp.iid:41766354-db44-4f47-8b05-17b9915b6b15</stEvt:instanceID>
                     <stEvt:when>2018-08-22T17:18:30+02:00</stEvt:when>
                     <stEvt:softwareAgent>Adobe Bridge CC 2018 (Macintosh)</stEvt:softwareAgent>
                     <stEvt:changed>/metadata</stEvt:changed>
                  </rdf:Description>
               </rdf:li>
            </rdf:Seq>
         </xmpMM:History>
      </rdf:Description>
   </rdf:RDF>
</x:xmpmeta>
                                                                                                    
                                                                                                    
                                                                                                    
                                                                                                    
                                                                                                    
                                                                                                    
                                                                                                    
                                                                                                    
                                                                                                    
                                                                                                    
                                                                                                    
                                                                                                    
                                                                                                    
                                                                                                    
                                                                                                    
                                                                                                    
                                                                                                    
                                                                                                    
                                                                                                    
                                                                                                    
                           
<?xpacket end="w"?></metadata>
<path fill="none" d="M0 0h96v96H0z"/><path d="M80.8 21.3c.7-.3 1.2-1 1.2-1.8V2c0-1.1-.9-2-2-2H67c-.5 0-1 .2-1.4.6L47.9 18.4 28.4.5C28 .2 27.5 0 27 0H16c-1.1 0-2 .9-2 2v17.7c0 .8.5 1.5 1.2 1.8 5.7 2.6 9.3 8.3 9.3 14.5 0 6.2-3.7 11.9-9.3 14.5-.7.3-1.2 1-1.2 1.8V94c0 1.1.9 2 2 2h64c1.1 0 2-.9 2-2V52.2c0-.8-.5-1.5-1.2-1.8-5.7-2.6-9.3-8.3-9.3-14.5 0-6.2 3.7-11.9 9.3-14.6zM28.5 36c0-7.3-4.1-14.1-10.5-17.6V4h8.2L46 22.1V57h-5.3c-.1-.1-.2-.3-.3-.4-.5-.5-1.2-.7-1.8-.5-.1 0-.3.1-.4.1-.1 0-.2.1-.3.2-.1.1-.2.1-.3.2-.4.4-.6.9-.6 1.4v.4c0 .1.1.2.1.4.1.1.1.2.2.3.1.1.2.2.2.3.1.1.2.2.3.2.1.1.2.1.3.2.1.1.2.1.4.1h.4c.5 0 1-.2 1.4-.6.1-.1.2-.2.2-.3 0 0 0-.1.1-.1H46v8h-5.3s0-.1-.1-.1c-.1-.1-.2-.2-.2-.3-.5-.5-1.2-.7-1.8-.5-.1 0-.3.1-.4.1-.1 0-.2.1-.3.2-.1.1-.2.1-.3.2-.1.1-.2.2-.2.3-.1.1-.1.2-.2.3 0 .1-.1.2-.1.4v.4c0 .5.2 1 .6 1.4.1.1.2.2.3.2.1.1.2.1.3.2.1.1.2.1.4.1h.4c.5 0 1-.2 1.4-.6.1-.1.2-.3.3-.4H46v7H18V53.6c6.4-3.5 10.5-10.3 10.5-17.6zM63 78v7h-5v-7h5zm7 0v7h-5v-7h5zm8 0v7h-6v-7h6zm-22 7h-6v-7h6v7zm-10 0h-6v-7h6v7zm-13 0v-7h5v7h-5zm-7 0v-7h5v7h-5zm-8 0v-7h6v7h-6zm0 2h28v5H18v-5zm32 5v-5h28v5H50zm17.5-56.1c0 7.3 4.1 14.1 10.5 17.6V76H50v-7h5.3c.1.1.2.3.3.4.1.1.2.2.3.2.1.1.2.1.3.2.1.1.2.1.4.1h.4c.5 0 1-.2 1.4-.6.4-.3.6-.8.6-1.3v-.4c0-.1-.1-.2-.1-.4 0-.1-.1-.2-.2-.3-.1-.1-.2-.2-.2-.3-.5-.5-1.2-.7-1.8-.5-.1 0-.3.1-.4.1-.1 0-.2.1-.3.2-.1.1-.2.1-.3.2-.1.1-.2.3-.3.4H50v-8h5.3c.1.1.2.3.3.4.4.4.9.6 1.4.6s1-.2 1.4-.6c.4-.4.6-.9.6-1.4v-.4c0-.1-.1-.2-.1-.4 0-.1-.1-.2-.2-.4-.1-.1-.2-.2-.2-.3-.5-.5-1.2-.7-1.8-.5-.1 0-.3.1-.4.1-.1 0-.2.1-.3.2-.1.1-.2.1-.3.2-.1.1-.2.2-.2.3 0 0 0 .1-.1.1H50V22L67.9 4H78v14.3c-6.4 3.5-10.5 10.2-10.5 17.6z"/><path d="M37 40c2.2 0 4-1.8 4-4s-1.8-4-4-4-4 1.8-4 4 1.8 4 4 4zm0-6c1.1 0 2 .9 2 2s-.9 2-2 2-2-.9-2-2 .9-2 2-2z"/></svg>