<?xml version="1.0" encoding="utf-8"?>
<!-- Generator: Adobe Illustrator 22.1.0, SVG Export Plug-In . SVG Version: 6.00 Build 0)  -->
<svg version="1.1" id="Ebene_1" xmlns="http://www.w3.org/2000/svg" xmlns:xlink="http://www.w3.org/1999/xlink" x="0px" y="0px"
	 viewBox="0 0 96 96" style="enable-background:new 0 0 96 96;" xml:space="preserve">
<title>Persuaid Iconset</title>
<desc>Iconset Persuaid</desc>
<metadata><?xpacket begin="﻿" id="W5M0MpCehiHzreSzNTczkc9d"?>
<x:xmpmeta xmlns:x="adobe:ns:meta/" x:xmptk="Adobe XMP Core 5.6-c143 79.161356, 2017/09/07-01:11:22        ">
   <rdf:RDF xmlns:rdf="http://www.w3.org/1999/02/22-rdf-syntax-ns#">
      <rdf:Description rdf:about=""
            xmlns:xmp="http://ns.adobe.com/xap/1.0/"
            xmlns:dc="http://purl.org/dc/elements/1.1/"
            xmlns:photoshop="http://ns.adobe.com/photoshop/1.0/"
            xmlns:xmpRights="http://ns.adobe.com/xap/1.0/rights/"
            xmlns:xmpMM="http://ns.adobe.com/xap/1.0/mm/"
            xmlns:stEvt="http://ns.adobe.com/xap/1.0/sType/ResourceEvent#">
         <xmp:CreateDate>2015-11-30T17:16:01+01:00</xmp:CreateDate>
         <xmp:MetadataDate>2018-08-22T17:18:29+02:00</xmp:MetadataDate>
         <dc:title>
            <rdf:Alt>
               <rdf:li xml:lang="x-default">Persuaid Iconset</rdf:li>
            </rdf:Alt>
         </dc:title>
         <dc:rights>
            <rdf:Alt>
               <rdf:li xml:lang="x-default">© Persuaid 2018. All rights reserved.</rdf:li>
            </rdf:Alt>
         </dc:rights>
         <dc:creator>
            <rdf:Seq>
               <rdf:li>Tobias Wibbeke</rdf:li>
            </rdf:Seq>
         </dc:creator>
         <dc:description>
            <rdf:Alt>
               <rdf:li xml:lang="x-default">Iconset Persuaid</rdf:li>
            </rdf:Alt>
         </dc:description>
         <photoshop:ColorMode>3</photoshop:ColorMode>
         <photoshop:DocumentAncestors>
            <rdf:Bag>
               <rdf:li>0873518BF6912EFD4766990C4D25551B</rdf:li>
               <rdf:li>09F803ABF2B8168C111289953D19B0BD</rdf:li>
               <rdf:li>541B6538F0DE75543B8E50186559AAE9</rdf:li>
               <rdf:li>54A15BC4A85368316D15C9AB0DF33C7F</rdf:li>
               <rdf:li>83DDB2F89EAF8ACD03447E0EDEE1742F</rdf:li>
               <rdf:li>9100F0C02D3A9856BD3A23CDBF4F2B7E</rdf:li>
               <rdf:li>F34013D5C71AFDB68A7DAAC6B8DDC337</rdf:li>
               <rdf:li>xmp.did:09d7ff2f-0dfd-4de8-97a6-cda3fb2cf8dd</rdf:li>
               <rdf:li>xmp.did:b67f30a8-6cc7-4bbf-a790-fe0dd782df27</rdf:li>
            </rdf:Bag>
         </photoshop:DocumentAncestors>
         <photoshop:AuthorsPosition>Persuaid | Tobias Wibbeke</photoshop:AuthorsPosition>
         <photoshop:CaptionWriter>Tobias Wibbeke</photoshop:CaptionWriter>
         <xmpRights:Marked>True</xmpRights:Marked>
         <xmpRights:WebStatement>www.persuaid.de</xmpRights:WebStatement>
         <xmpMM:InstanceID>xmp.iid:030a0c63-7583-4bd8-9dc2-9559f96efdb3</xmpMM:InstanceID>
         <xmpMM:DocumentID>xmp.did:030a0c63-7583-4bd8-9dc2-9559f96efdb3</xmpMM:DocumentID>
         <xmpMM:OriginalDocumentID>xmp.did:030a0c63-7583-4bd8-9dc2-9559f96efdb3</xmpMM:OriginalDocumentID>
         <xmpMM:History>
            <rdf:Seq>
               <rdf:li>
                  <rdf:Description>
                     <stEvt:action>saved</stEvt:action>
                     <stEvt:instanceID>xmp.iid:030a0c63-7583-4bd8-9dc2-9559f96efdb3</stEvt:instanceID>
                     <stEvt:when>2018-08-22T17:18:29+02:00</stEvt:when>
                     <stEvt:softwareAgent>Adobe Bridge CC 2018 (Macintosh)</stEvt:softwareAgent>
                     <stEvt:changed>/metadata</stEvt:changed>
                  </rdf:Description>
               </rdf:li>
            </rdf:Seq>
         </xmpMM:History>
      </rdf:Description>
   </rdf:RDF>
</x:xmpmeta>
                                                                                                    
                                                                                                    
                                                                                                    
                                                                                                    
                                                                                                    
                                                                                                    
                                                                                                    
                                                                                                    
                                                                                                    
                                                                                                    
                                                                                                    
                                                                                                    
                                                                                                    
                                                                                                    
                                                                                                    
                                                                                                    
                                                                                                    
                                                                                                    
                                                                                                    
                                                                                                    
                           
<?xpacket end="w"?></metadata>
<path d="M48,0C21.5,0,0,21.5,0,48s21.5,48,48,48s48-21.5,48-48S74.5,0,48,0z M81.8,19.9L66.1,35.6c-0.7-1.1-1.6-2.1-2.5-3.1
	c-1-1-2-1.8-3.1-2.6l15.7-15.7C78.2,15.9,80.1,17.8,81.8,19.9z M60.7,60.7c-7,7-18.4,7-25.5,0c-7-7-7-18.4,0-25.5
	C38.8,31.8,43.4,30,48,30s9.2,1.8,12.7,5.3C67.7,42.3,67.7,53.7,60.7,60.7z M48,4c10,0,19.2,3.3,26.6,8.9L58.7,28.8
	c-6.6-3.7-14.8-3.7-21.4-0.1L21.5,12.9C28.8,7.3,38,4,48,4z M19.9,14.2l15.7,15.7c-1.1,0.7-2.2,1.6-3.2,2.6c-1,1-1.8,2-2.5,3.1
	L14.2,19.8C15.9,17.8,17.8,15.9,19.9,14.2z M12.9,74.6C7.3,67.2,4,58,4,48c0-10,3.3-19.2,9-26.6l15.8,15.8c-3.8,6.7-3.7,14.9,0,21.5
	L12.9,74.6z M14.2,76.2l15.7-15.7c0.7,1.1,1.6,2.1,2.5,3c1,1,2.1,1.8,3.2,2.6L19.9,81.8C17.8,80.1,15.9,78.2,14.2,76.2z M48,92
	c-10,0-19.2-3.3-26.6-8.9l15.9-15.9C40.6,69,44.3,70,48,70c3.7,0,7.4-0.9,10.8-2.8L74.6,83C67.2,88.7,58,92,48,92z M76.2,81.8
	L60.5,66.1c1.1-0.7,2.1-1.6,3.1-2.5c1-1,1.8-2,2.6-3.1l15.7,15.7C80.1,78.2,78.2,80.1,76.2,81.8z M67.3,58.7
	c3.7-6.7,3.7-14.8-0.1-21.4l15.9-15.9C88.7,28.8,92,38,92,48c0,10-3.3,19.2-8.9,26.5L67.3,58.7z M48,19c2.2,0,4-1.8,4-4s-1.8-4-4-4
	s-4,1.8-4,4S45.8,19,48,19z M48,13c1.1,0,2,0.9,2,2s-0.9,2-2,2s-2-0.9-2-2S46.9,13,48,13z"/>
</svg>
