<svg xmlns="http://www.w3.org/2000/svg" viewBox="0 0 96 96"><title>Persuaid Iconset</title>
<desc>Iconset Persuaid</desc>
<metadata><?xpacket begin="﻿" id="W5M0MpCehiHzreSzNTczkc9d"?>
<x:xmpmeta xmlns:x="adobe:ns:meta/" x:xmptk="Adobe XMP Core 5.6-c143 79.161356, 2017/09/07-01:11:22        ">
   <rdf:RDF xmlns:rdf="http://www.w3.org/1999/02/22-rdf-syntax-ns#">
      <rdf:Description rdf:about=""
            xmlns:xmp="http://ns.adobe.com/xap/1.0/"
            xmlns:dc="http://purl.org/dc/elements/1.1/"
            xmlns:photoshop="http://ns.adobe.com/photoshop/1.0/"
            xmlns:xmpRights="http://ns.adobe.com/xap/1.0/rights/"
            xmlns:xmpMM="http://ns.adobe.com/xap/1.0/mm/"
            xmlns:stEvt="http://ns.adobe.com/xap/1.0/sType/ResourceEvent#">
         <xmp:CreateDate>2015-11-30T17:16:01+01:00</xmp:CreateDate>
         <xmp:MetadataDate>2018-08-22T17:18:30+02:00</xmp:MetadataDate>
         <dc:title>
            <rdf:Alt>
               <rdf:li xml:lang="x-default">Persuaid Iconset</rdf:li>
            </rdf:Alt>
         </dc:title>
         <dc:rights>
            <rdf:Alt>
               <rdf:li xml:lang="x-default">© Persuaid 2018. All rights reserved.</rdf:li>
            </rdf:Alt>
         </dc:rights>
         <dc:creator>
            <rdf:Seq>
               <rdf:li>Tobias Wibbeke</rdf:li>
            </rdf:Seq>
         </dc:creator>
         <dc:description>
            <rdf:Alt>
               <rdf:li xml:lang="x-default">Iconset Persuaid</rdf:li>
            </rdf:Alt>
         </dc:description>
         <photoshop:ColorMode>3</photoshop:ColorMode>
         <photoshop:DocumentAncestors>
            <rdf:Bag>
               <rdf:li>0873518BF6912EFD4766990C4D25551B</rdf:li>
               <rdf:li>09F803ABF2B8168C111289953D19B0BD</rdf:li>
               <rdf:li>541B6538F0DE75543B8E50186559AAE9</rdf:li>
               <rdf:li>54A15BC4A85368316D15C9AB0DF33C7F</rdf:li>
               <rdf:li>83DDB2F89EAF8ACD03447E0EDEE1742F</rdf:li>
               <rdf:li>9100F0C02D3A9856BD3A23CDBF4F2B7E</rdf:li>
               <rdf:li>F34013D5C71AFDB68A7DAAC6B8DDC337</rdf:li>
               <rdf:li>xmp.did:09d7ff2f-0dfd-4de8-97a6-cda3fb2cf8dd</rdf:li>
               <rdf:li>xmp.did:b67f30a8-6cc7-4bbf-a790-fe0dd782df27</rdf:li>
            </rdf:Bag>
         </photoshop:DocumentAncestors>
         <photoshop:AuthorsPosition>Persuaid | Tobias Wibbeke</photoshop:AuthorsPosition>
         <photoshop:CaptionWriter>Tobias Wibbeke</photoshop:CaptionWriter>
         <xmpRights:Marked>True</xmpRights:Marked>
         <xmpRights:WebStatement>www.persuaid.de</xmpRights:WebStatement>
         <xmpMM:InstanceID>xmp.iid:c5bde86f-887e-41a7-bf1d-8e57a0b06ba0</xmpMM:InstanceID>
         <xmpMM:DocumentID>xmp.did:c5bde86f-887e-41a7-bf1d-8e57a0b06ba0</xmpMM:DocumentID>
         <xmpMM:OriginalDocumentID>xmp.did:c5bde86f-887e-41a7-bf1d-8e57a0b06ba0</xmpMM:OriginalDocumentID>
         <xmpMM:History>
            <rdf:Seq>
               <rdf:li>
                  <rdf:Description>
                     <stEvt:action>saved</stEvt:action>
                     <stEvt:instanceID>xmp.iid:c5bde86f-887e-41a7-bf1d-8e57a0b06ba0</stEvt:instanceID>
                     <stEvt:when>2018-08-22T17:18:30+02:00</stEvt:when>
                     <stEvt:softwareAgent>Adobe Bridge CC 2018 (Macintosh)</stEvt:softwareAgent>
                     <stEvt:changed>/metadata</stEvt:changed>
                  </rdf:Description>
               </rdf:li>
            </rdf:Seq>
         </xmpMM:History>
      </rdf:Description>
   </rdf:RDF>
</x:xmpmeta>
                                                                                                    
                                                                                                    
                                                                                                    
                                                                                                    
                                                                                                    
                                                                                                    
                                                                                                    
                                                                                                    
                                                                                                    
                                                                                                    
                                                                                                    
                                                                                                    
                                                                                                    
                                                                                                    
                                                                                                    
                                                                                                    
                                                                                                    
                                                                                                    
                                                                                                    
                                                                                                    
                           
<?xpacket end="w"?></metadata>
<path fill="none" d="M0 0h96v96H0z"/><path d="M72 58h-1V48h1c1.1 0 2-.9 2-2s-.9-2-2-2h-1V25.9c0-3.2-1.2-6.2-3.5-8.4L52.2 1.8C51.1.6 49.6 0 48 0s-3.1.6-4.3 1.8L28.5 17.5c-2.2 2.2-3.5 5.2-3.5 8.4V44h-1c-1.1 0-2 .9-2 2s.9 2 2 2h1v10h-1c-1.1 0-2 .9-2 2s.9 2 2 2h1v10.5C25 85 34.9 95.6 47.2 96h1.6C61.1 95.6 71 85 71 72.5V62h1c1.1 0 2-.9 2-2s-.9-2-2-2zm-5 0h-6V48h6v10zm-11 4h3v6.5c0 .8-.7 1.5-1.5 1.5s-1.5-.7-1.5-1.5V62zm0-4V48h3v10h-3zm-19 4h3v6.5c0 .8-.7 1.5-1.5 1.5s-1.5-.7-1.5-1.5V62zm0-4V48h3v10h-3zm3-14h-3v-5.5c0-.8.7-1.5 1.5-1.5s1.5.7 1.5 1.5V44zm2 4h12v10H42V48zm17-4h-3v-5.5c0-.8.7-1.5 1.5-1.5s1.5.7 1.5 1.5V44zM29 25.9c0-2.1.8-4.1 2.3-5.6L46.6 4.6c.4-.4.9-.6 1.4-.6s1 .2 1.4.6l15.3 15.8c1.5 1.5 2.3 3.5 2.3 5.6v18h-6v-5.5c0-1.9-1.6-3.5-3.5-3.5S54 36.6 54 38.5V44H42v-5.5c0-1.9-1.6-3.5-3.5-3.5S35 36.6 35 38.5V44h-6V25.9zM29 48h6v10h-6V48zm38 24.5c0 10.4-8.2 19.1-18.3 19.5h-1.4C37.2 91.7 29 82.9 29 72.5V62h6v6.5c0 1.9 1.6 3.5 3.5 3.5s3.5-1.6 3.5-3.5V62h12v6.5c0 1.9 1.6 3.5 3.5 3.5s3.5-1.6 3.5-3.5V62h6v10.5z"/><path d="M48 24c2.2 0 4-1.8 4-4s-1.8-4-4-4-4 1.8-4 4 1.8 4 4 4zm0-6c1.1 0 2 .9 2 2s-.9 2-2 2-2-.9-2-2 .9-2 2-2z"/></svg>