<svg xmlns="http://www.w3.org/2000/svg" viewBox="0 0 96 96"><title>Persuaid Iconset</title>
<desc>Iconset Persuaid</desc>
<metadata><?xpacket begin="﻿" id="W5M0MpCehiHzreSzNTczkc9d"?>
<x:xmpmeta xmlns:x="adobe:ns:meta/" x:xmptk="Adobe XMP Core 5.6-c143 79.161356, 2017/09/07-01:11:22        ">
   <rdf:RDF xmlns:rdf="http://www.w3.org/1999/02/22-rdf-syntax-ns#">
      <rdf:Description rdf:about=""
            xmlns:xmp="http://ns.adobe.com/xap/1.0/"
            xmlns:dc="http://purl.org/dc/elements/1.1/"
            xmlns:photoshop="http://ns.adobe.com/photoshop/1.0/"
            xmlns:xmpRights="http://ns.adobe.com/xap/1.0/rights/"
            xmlns:xmpMM="http://ns.adobe.com/xap/1.0/mm/"
            xmlns:stEvt="http://ns.adobe.com/xap/1.0/sType/ResourceEvent#">
         <xmp:CreateDate>2015-11-30T17:16:01+01:00</xmp:CreateDate>
         <xmp:MetadataDate>2018-08-22T17:18:30+02:00</xmp:MetadataDate>
         <dc:title>
            <rdf:Alt>
               <rdf:li xml:lang="x-default">Persuaid Iconset</rdf:li>
            </rdf:Alt>
         </dc:title>
         <dc:rights>
            <rdf:Alt>
               <rdf:li xml:lang="x-default">© Persuaid 2018. All rights reserved.</rdf:li>
            </rdf:Alt>
         </dc:rights>
         <dc:creator>
            <rdf:Seq>
               <rdf:li>Tobias Wibbeke</rdf:li>
            </rdf:Seq>
         </dc:creator>
         <dc:description>
            <rdf:Alt>
               <rdf:li xml:lang="x-default">Iconset Persuaid</rdf:li>
            </rdf:Alt>
         </dc:description>
         <photoshop:ColorMode>3</photoshop:ColorMode>
         <photoshop:DocumentAncestors>
            <rdf:Bag>
               <rdf:li>0873518BF6912EFD4766990C4D25551B</rdf:li>
               <rdf:li>09F803ABF2B8168C111289953D19B0BD</rdf:li>
               <rdf:li>541B6538F0DE75543B8E50186559AAE9</rdf:li>
               <rdf:li>54A15BC4A85368316D15C9AB0DF33C7F</rdf:li>
               <rdf:li>83DDB2F89EAF8ACD03447E0EDEE1742F</rdf:li>
               <rdf:li>9100F0C02D3A9856BD3A23CDBF4F2B7E</rdf:li>
               <rdf:li>F34013D5C71AFDB68A7DAAC6B8DDC337</rdf:li>
               <rdf:li>xmp.did:09d7ff2f-0dfd-4de8-97a6-cda3fb2cf8dd</rdf:li>
               <rdf:li>xmp.did:b67f30a8-6cc7-4bbf-a790-fe0dd782df27</rdf:li>
            </rdf:Bag>
         </photoshop:DocumentAncestors>
         <photoshop:AuthorsPosition>Persuaid | Tobias Wibbeke</photoshop:AuthorsPosition>
         <photoshop:CaptionWriter>Tobias Wibbeke</photoshop:CaptionWriter>
         <xmpRights:Marked>True</xmpRights:Marked>
         <xmpRights:WebStatement>www.persuaid.de</xmpRights:WebStatement>
         <xmpMM:InstanceID>xmp.iid:7cd86d3c-c3d9-4e9e-9dfd-affafb7e3e7a</xmpMM:InstanceID>
         <xmpMM:DocumentID>xmp.did:7cd86d3c-c3d9-4e9e-9dfd-affafb7e3e7a</xmpMM:DocumentID>
         <xmpMM:OriginalDocumentID>xmp.did:7cd86d3c-c3d9-4e9e-9dfd-affafb7e3e7a</xmpMM:OriginalDocumentID>
         <xmpMM:History>
            <rdf:Seq>
               <rdf:li>
                  <rdf:Description>
                     <stEvt:action>saved</stEvt:action>
                     <stEvt:instanceID>xmp.iid:7cd86d3c-c3d9-4e9e-9dfd-affafb7e3e7a</stEvt:instanceID>
                     <stEvt:when>2018-08-22T17:18:30+02:00</stEvt:when>
                     <stEvt:softwareAgent>Adobe Bridge CC 2018 (Macintosh)</stEvt:softwareAgent>
                     <stEvt:changed>/metadata</stEvt:changed>
                  </rdf:Description>
               </rdf:li>
            </rdf:Seq>
         </xmpMM:History>
      </rdf:Description>
   </rdf:RDF>
</x:xmpmeta>
                                                                                                    
                                                                                                    
                                                                                                    
                                                                                                    
                                                                                                    
                                                                                                    
                                                                                                    
                                                                                                    
                                                                                                    
                                                                                                    
                                                                                                    
                                                                                                    
                                                                                                    
                                                                                                    
                                                                                                    
                                                                                                    
                                                                                                    
                                                                                                    
                                                                                                    
                                                                                                    
                           
<?xpacket end="w"?></metadata>
<path fill="none" d="M0 0h96v96H0z"/><path d="M94.4 43l-39-10.9 4.1-1.2c1.1-.3 1.7-1.4 1.4-2.5-.3-1.1-1.4-1.7-2.5-1.4L48 30l-10.5-2.9c-1.1-.3-2.2.3-2.5 1.4s.3 2.2 1.4 2.5l4.1 1.2L1.6 43c-.9.2-1.6 1-1.6 2 0 1.1.9 2 2 2h6v6c0 9.4 7.6 17 17 17s17-7.6 17-17v-1l6-4.5 6 4.5v1c0 9.4 7.6 17 17 17s17-7.6 17-17v-6h6c1.1 0 2-.9 2-2 0-1-.7-1.8-1.6-2zM61.7 62.1c-.9-.9-1.7-2-2.3-3.2L84 51.1V53c0 .7-.1 1.4-.2 2l-22.1 7.1zM58 53.4L78 47h6v2l-25.3 8.1c-.4-1.2-.6-2.4-.7-3.7zm0-2.1V47h13.5L58 51.3zM15.7 62.1c-.9-.9-1.7-2-2.3-3.2L38 51.1V53c0 .7-.1 1.4-.2 2l-22.1 7.1zM38 49l-25.3 8.1c-.4-1.2-.6-2.4-.6-3.7L32 47h6v2zm-26 2.3V47h13.5L12 51.3zM25 66c-2.8 0-5.3-.9-7.5-2.4l19.7-6.3C35.5 62.4 30.6 66 25 66zm24.2-22.6c-.7-.5-1.7-.5-2.4 0L42 47v-2c0-1.1-.9-2-2-2H16.5L48 34.2 79.5 43H56c-1.1 0-2 .9-2 2v2l-4.8-3.6zM71 66c-2.8 0-5.3-.9-7.5-2.4l19.7-6.3C81.5 62.4 76.6 66 71 66z"/></svg>