<svg xmlns="http://www.w3.org/2000/svg" viewBox="0 0 96 96"><title>Persuaid Iconset</title>
<desc>Iconset Persuaid</desc>
<metadata><?xpacket begin="﻿" id="W5M0MpCehiHzreSzNTczkc9d"?>
<x:xmpmeta xmlns:x="adobe:ns:meta/" x:xmptk="Adobe XMP Core 5.6-c143 79.161356, 2017/09/07-01:11:22        ">
   <rdf:RDF xmlns:rdf="http://www.w3.org/1999/02/22-rdf-syntax-ns#">
      <rdf:Description rdf:about=""
            xmlns:xmp="http://ns.adobe.com/xap/1.0/"
            xmlns:dc="http://purl.org/dc/elements/1.1/"
            xmlns:photoshop="http://ns.adobe.com/photoshop/1.0/"
            xmlns:xmpRights="http://ns.adobe.com/xap/1.0/rights/"
            xmlns:xmpMM="http://ns.adobe.com/xap/1.0/mm/"
            xmlns:stEvt="http://ns.adobe.com/xap/1.0/sType/ResourceEvent#">
         <xmp:CreateDate>2015-11-30T17:16:01+01:00</xmp:CreateDate>
         <xmp:MetadataDate>2018-08-22T17:18:30+02:00</xmp:MetadataDate>
         <dc:title>
            <rdf:Alt>
               <rdf:li xml:lang="x-default">Persuaid Iconset</rdf:li>
            </rdf:Alt>
         </dc:title>
         <dc:rights>
            <rdf:Alt>
               <rdf:li xml:lang="x-default">© Persuaid 2018. All rights reserved.</rdf:li>
            </rdf:Alt>
         </dc:rights>
         <dc:creator>
            <rdf:Seq>
               <rdf:li>Tobias Wibbeke</rdf:li>
            </rdf:Seq>
         </dc:creator>
         <dc:description>
            <rdf:Alt>
               <rdf:li xml:lang="x-default">Iconset Persuaid</rdf:li>
            </rdf:Alt>
         </dc:description>
         <photoshop:ColorMode>3</photoshop:ColorMode>
         <photoshop:DocumentAncestors>
            <rdf:Bag>
               <rdf:li>0873518BF6912EFD4766990C4D25551B</rdf:li>
               <rdf:li>09F803ABF2B8168C111289953D19B0BD</rdf:li>
               <rdf:li>541B6538F0DE75543B8E50186559AAE9</rdf:li>
               <rdf:li>54A15BC4A85368316D15C9AB0DF33C7F</rdf:li>
               <rdf:li>83DDB2F89EAF8ACD03447E0EDEE1742F</rdf:li>
               <rdf:li>9100F0C02D3A9856BD3A23CDBF4F2B7E</rdf:li>
               <rdf:li>F34013D5C71AFDB68A7DAAC6B8DDC337</rdf:li>
               <rdf:li>xmp.did:09d7ff2f-0dfd-4de8-97a6-cda3fb2cf8dd</rdf:li>
               <rdf:li>xmp.did:b67f30a8-6cc7-4bbf-a790-fe0dd782df27</rdf:li>
            </rdf:Bag>
         </photoshop:DocumentAncestors>
         <photoshop:AuthorsPosition>Persuaid | Tobias Wibbeke</photoshop:AuthorsPosition>
         <photoshop:CaptionWriter>Tobias Wibbeke</photoshop:CaptionWriter>
         <xmpRights:Marked>True</xmpRights:Marked>
         <xmpRights:WebStatement>www.persuaid.de</xmpRights:WebStatement>
         <xmpMM:InstanceID>xmp.iid:f3c2a03c-32d5-4aa0-88fe-792b35348153</xmpMM:InstanceID>
         <xmpMM:DocumentID>xmp.did:f3c2a03c-32d5-4aa0-88fe-792b35348153</xmpMM:DocumentID>
         <xmpMM:OriginalDocumentID>xmp.did:f3c2a03c-32d5-4aa0-88fe-792b35348153</xmpMM:OriginalDocumentID>
         <xmpMM:History>
            <rdf:Seq>
               <rdf:li>
                  <rdf:Description>
                     <stEvt:action>saved</stEvt:action>
                     <stEvt:instanceID>xmp.iid:f3c2a03c-32d5-4aa0-88fe-792b35348153</stEvt:instanceID>
                     <stEvt:when>2018-08-22T17:18:30+02:00</stEvt:when>
                     <stEvt:softwareAgent>Adobe Bridge CC 2018 (Macintosh)</stEvt:softwareAgent>
                     <stEvt:changed>/metadata</stEvt:changed>
                  </rdf:Description>
               </rdf:li>
            </rdf:Seq>
         </xmpMM:History>
      </rdf:Description>
   </rdf:RDF>
</x:xmpmeta>
                                                                                                    
                                                                                                    
                                                                                                    
                                                                                                    
                                                                                                    
                                                                                                    
                                                                                                    
                                                                                                    
                                                                                                    
                                                                                                    
                                                                                                    
                                                                                                    
                                                                                                    
                                                                                                    
                                                                                                    
                                                                                                    
                                                                                                    
                                                                                                    
                                                                                                    
                                                                                                    
                           
<?xpacket end="w"?></metadata>
<path fill="none" d="M0 0h96v96H0z"/><path d="M95 47H72c-.1-3.6-1.1-7.1-2.7-10.1l19.9-11.5c.5-.3.6-.9.4-1.4-.3-.5-.9-.6-1.4-.4L68.3 35.1c-1.9-3-4.4-5.5-7.4-7.4L72.4 7.8c.3-.5.1-1.1-.4-1.4-.5-.3-1.1-.1-1.4.4L59.1 26.7C56 25.1 52.6 24.1 49 24V1c0-.6-.4-1-1-1s-1 .4-1 1v23c-3.6.1-7.1 1.1-10.1 2.7L25.4 6.8c-.3-.5-.9-.6-1.4-.4-.5.3-.6.9-.4 1.4l11.5 19.9c-3 1.9-5.5 4.4-7.4 7.4L7.8 23.6c-.5-.3-1.1-.1-1.4.4-.3.5-.1 1.1.4 1.4l19.9 11.5C25.1 40 24.1 43.4 24 47H1c-.6 0-1 .4-1 1s.4 1 1 1h23c.1 3.6 1.1 7.1 2.7 10.1L6.8 70.6c-.5.3-.6.9-.4 1.4.2.3.5.5.9.5.2 0 .3 0 .5-.1l19.9-11.5c1.9 3 4.4 5.5 7.4 7.4L23.6 88.2c-.3.5-.1 1.1.4 1.4.2.1.3.1.5.1.3 0 .7-.2.9-.5l11.5-19.9C40 70.9 43.4 71.9 47 72v23c0 .6.4 1 1 1s1-.4 1-1V72c3.6-.1 7.1-1.1 10.1-2.7l11.5 19.9c.2.3.5.5.9.5.2 0 .3 0 .5-.1.5-.3.6-.9.4-1.4L60.9 68.3c3-1.9 5.5-4.4 7.4-7.4l19.9 11.5c.2.1.3.1.5.1.3 0 .7-.2.9-.5.3-.5.1-1.1-.4-1.4L69.3 59.1C70.9 56 71.9 52.6 72 49h23c.6 0 1-.4 1-1s-.4-1-1-1zM48 68c-11 0-20-9-20-20s9-20 20-20 20 9 20 20-9 20-20 20z"/></svg>