<svg xmlns="http://www.w3.org/2000/svg" viewBox="0 0 96 96"><title>Persuaid Iconset</title>
<desc>Iconset Persuaid</desc>
<metadata><?xpacket begin="﻿" id="W5M0MpCehiHzreSzNTczkc9d"?>
<x:xmpmeta xmlns:x="adobe:ns:meta/" x:xmptk="Adobe XMP Core 5.6-c143 79.161356, 2017/09/07-01:11:22        ">
   <rdf:RDF xmlns:rdf="http://www.w3.org/1999/02/22-rdf-syntax-ns#">
      <rdf:Description rdf:about=""
            xmlns:xmp="http://ns.adobe.com/xap/1.0/"
            xmlns:dc="http://purl.org/dc/elements/1.1/"
            xmlns:photoshop="http://ns.adobe.com/photoshop/1.0/"
            xmlns:xmpRights="http://ns.adobe.com/xap/1.0/rights/"
            xmlns:xmpMM="http://ns.adobe.com/xap/1.0/mm/"
            xmlns:stEvt="http://ns.adobe.com/xap/1.0/sType/ResourceEvent#">
         <xmp:CreateDate>2015-11-30T17:16:01+01:00</xmp:CreateDate>
         <xmp:MetadataDate>2018-08-22T17:18:30+02:00</xmp:MetadataDate>
         <dc:title>
            <rdf:Alt>
               <rdf:li xml:lang="x-default">Persuaid Iconset</rdf:li>
            </rdf:Alt>
         </dc:title>
         <dc:rights>
            <rdf:Alt>
               <rdf:li xml:lang="x-default">© Persuaid 2018. All rights reserved.</rdf:li>
            </rdf:Alt>
         </dc:rights>
         <dc:creator>
            <rdf:Seq>
               <rdf:li>Tobias Wibbeke</rdf:li>
            </rdf:Seq>
         </dc:creator>
         <dc:description>
            <rdf:Alt>
               <rdf:li xml:lang="x-default">Iconset Persuaid</rdf:li>
            </rdf:Alt>
         </dc:description>
         <photoshop:ColorMode>3</photoshop:ColorMode>
         <photoshop:DocumentAncestors>
            <rdf:Bag>
               <rdf:li>0873518BF6912EFD4766990C4D25551B</rdf:li>
               <rdf:li>09F803ABF2B8168C111289953D19B0BD</rdf:li>
               <rdf:li>541B6538F0DE75543B8E50186559AAE9</rdf:li>
               <rdf:li>54A15BC4A85368316D15C9AB0DF33C7F</rdf:li>
               <rdf:li>83DDB2F89EAF8ACD03447E0EDEE1742F</rdf:li>
               <rdf:li>9100F0C02D3A9856BD3A23CDBF4F2B7E</rdf:li>
               <rdf:li>F34013D5C71AFDB68A7DAAC6B8DDC337</rdf:li>
               <rdf:li>xmp.did:09d7ff2f-0dfd-4de8-97a6-cda3fb2cf8dd</rdf:li>
               <rdf:li>xmp.did:b67f30a8-6cc7-4bbf-a790-fe0dd782df27</rdf:li>
            </rdf:Bag>
         </photoshop:DocumentAncestors>
         <photoshop:AuthorsPosition>Persuaid | Tobias Wibbeke</photoshop:AuthorsPosition>
         <photoshop:CaptionWriter>Tobias Wibbeke</photoshop:CaptionWriter>
         <xmpRights:Marked>True</xmpRights:Marked>
         <xmpRights:WebStatement>www.persuaid.de</xmpRights:WebStatement>
         <xmpMM:InstanceID>xmp.iid:9690e5ed-e98b-4602-bd79-835feab7759c</xmpMM:InstanceID>
         <xmpMM:DocumentID>xmp.did:9690e5ed-e98b-4602-bd79-835feab7759c</xmpMM:DocumentID>
         <xmpMM:OriginalDocumentID>xmp.did:9690e5ed-e98b-4602-bd79-835feab7759c</xmpMM:OriginalDocumentID>
         <xmpMM:History>
            <rdf:Seq>
               <rdf:li>
                  <rdf:Description>
                     <stEvt:action>saved</stEvt:action>
                     <stEvt:instanceID>xmp.iid:9690e5ed-e98b-4602-bd79-835feab7759c</stEvt:instanceID>
                     <stEvt:when>2018-08-22T17:18:30+02:00</stEvt:when>
                     <stEvt:softwareAgent>Adobe Bridge CC 2018 (Macintosh)</stEvt:softwareAgent>
                     <stEvt:changed>/metadata</stEvt:changed>
                  </rdf:Description>
               </rdf:li>
            </rdf:Seq>
         </xmpMM:History>
      </rdf:Description>
   </rdf:RDF>
</x:xmpmeta>
                                                                                                    
                                                                                                    
                                                                                                    
                                                                                                    
                                                                                                    
                                                                                                    
                                                                                                    
                                                                                                    
                                                                                                    
                                                                                                    
                                                                                                    
                                                                                                    
                                                                                                    
                                                                                                    
                                                                                                    
                                                                                                    
                                                                                                    
                                                                                                    
                                                                                                    
                                                                                                    
                           
<?xpacket end="w"?></metadata>
<path fill="none" d="M0 0h96v96H0z"/><path d="M15.7 29.3c-.1-.1-.2-.2-.3-.2-.2-.1-.4-.1-.6-.1-.1 0-.1 0-.2.1-.1 0-.1 0-.2.1-.1 0-.1.1-.1.1-.1.1-.2.2-.2.3 0 .1-.1.2-.1.4s0 .3.1.4c.1.1.1.2.2.3.1.1.2.2.3.2.1 0 .2.1.4.1.3 0 .5-.1.7-.3.1-.1.2-.2.2-.3 0-.1.1-.2.1-.4s0-.3-.1-.4c0-.1-.1-.2-.2-.3zM80.6 30.9c.1 0 .2.1.4.1.3 0 .5-.1.7-.3.1-.1.2-.2.2-.3 0-.1.1-.2.1-.4s0-.3-.1-.4c-.1-.1-.1-.2-.2-.3-.4-.4-1.1-.4-1.4 0-.1.1-.2.2-.2.3 0 .1-.1.2-.1.4 0 .3.1.5.3.7.1.1.2.2.3.2zM23.7 29.3c-.4-.4-1-.4-1.4 0-.1.1-.2.2-.2.3 0 .1-.1.2-.1.4s0 .3.1.4c.1.1.1.2.2.3.2.2.4.3.7.3.1 0 .3 0 .4-.1.1-.1.2-.1.3-.2.1-.1.2-.2.2-.3 0-.1.1-.2.1-.4s0-.3-.1-.4c0-.1-.1-.2-.2-.3zM72.3 30.7c.1.1.2.2.3.2.1 0 .2.1.4.1.3 0 .5-.1.7-.3.1-.1.2-.2.2-.3 0-.1.1-.2.1-.4s0-.3-.1-.4c-.1-.1-.1-.2-.2-.3-.1-.1-.2-.2-.3-.2-.2-.1-.4-.1-.6-.1-.1 0-.1 0-.2.1-.1 0-.1 0-.2.1-.1 0-.1.1-.1.1-.1.1-.2.2-.2.3-.1.1-.1.3-.1.4s0 .3.1.4c0 .1.1.2.2.3zM30.9 29.6c-.1-.1-.1-.2-.2-.3-.4-.4-1.1-.4-1.4 0-.1.1-.2.2-.2.3 0 .1-.1.2-.1.4s0 .3.1.4c.1.1.1.2.2.3.1.1.2.2.3.2.1 0 .2.1.4.1.3 0 .5-.1.7-.3.1-.1.2-.2.2-.3.1-.1.1-.3.1-.4s0-.3-.1-.4zM65.1 30.4c.1.1.1.2.2.3.1.1.2.2.3.2.1 0 .2.1.4.1.1 0 .3 0 .4-.1.1-.1.2-.1.3-.2.1-.1.2-.2.2-.3.1-.1.1-.3.1-.4s0-.3-.1-.4c-.1-.1-.1-.2-.2-.3-.3-.3-.7-.4-1.1-.2-.1 0-.2.1-.3.2-.1.1-.2.2-.2.3 0 .1-.1.2-.1.4s0 .3.1.4z"/><path d="M96 63.2l-5-28.3V25c0-1.1-.9-2-2-2H7c-1.1 0-2 .9-2 2v9.8L0 63.2c-.2 1 .4 1.9 1.3 2.2l36 12.5c.6.2 1.3.1 1.8-.3l8.9-6.2 8.9 6.2c.3.2.7.4 1.1.4.2 0 .4 0 .7-.1l36-12.5c.9-.3 1.4-1.3 1.3-2.2zM80.7 37h6.6l1.5 8.5C87.7 47.1 85.9 48 84 48c-3.3 0-6-2.7-6-6 0-2.1 1.1-3.9 2.7-5zm6.3-4H60v-6h27v6zm-21 9c0 3.3-2.7 6-6 6s-6-2.7-6-6c0-2.1 1.1-3.9 2.7-5h6.6c1.6 1.1 2.7 2.9 2.7 5zm-24 0c0 3.3-2.7 6-6 6s-6-2.7-6-6c0-2.1 1.1-3.9 2.7-5h6.6c1.6 1.1 2.7 2.9 2.7 5zm-4-9v-6h9v2h-5c-.6 0-1 .4-1 1s.4 1 1 1h5v2h-9zm11-2h5c.6 0 1-.4 1-1s-.4-1-1-1h-5v-2h9v6h-9v-2zM9 27h27v6H9v-6zm9 15c0 3.3-2.7 6-6 6-1.9 0-3.7-.9-4.8-2.4L8.7 37h6.6c1.6 1.1 2.7 2.9 2.7 5zm-1 22c0-3.3 2.7-6 6-6s6 2.7 6 6c0 2.4-1.5 4.6-3.6 5.5l-7.6-2.7C17.3 66 17 65 17 64zm29.9 3.4L44.7 69C43 67.8 42 66 42 64c0-3.3 2.7-6 6-6s6 2.7 6 6c0 2-1 3.8-2.6 4.9l-2.2-1.6c-.7-.4-1.7-.4-2.3.1zM67 64c0-3.3 2.7-6 6-6s6 2.7 6 6c0 1-.3 2-.7 2.8l-7.6 2.7c-2.2-.9-3.7-3.1-3.7-5.5zm13.7 2c.2-.6.3-1.3.3-2 0-4.4-3.6-8-8-8s-8 3.6-8 8c0 2.6 1.2 4.9 3.2 6.4l-9.9 3.4-5.2-3.6c1.8-1.5 2.9-3.7 2.9-6.1 0-4.4-3.6-8-8-8s-8 3.6-8 8c0 2.4 1.1 4.6 2.9 6.1l-5.2 3.6-9.9-3.4c1.9-1.5 3.2-3.8 3.2-6.4 0-4.4-3.6-8-8-8s-8 3.6-8 8c0 .7.1 1.3.3 2l-11-3.8L6.7 48c1.4 1.2 3.3 2 5.3 2 4.4 0 8-3.6 8-8 0-1.9-.7-3.6-1.8-5h11.5c-1.1 1.4-1.8 3.1-1.8 5 0 4.4 3.6 8 8 8s8-3.6 8-8c0-1.9-.7-3.6-1.8-5h11.5c-1.1 1.4-1.8 3.1-1.8 5 0 4.4 3.6 8 8 8s8-3.6 8-8c0-1.9-.7-3.6-1.8-5h11.5c-1.1 1.4-1.8 3.1-1.8 5 0 4.4 3.6 8 8 8 2 0 3.8-.7 5.3-2l2.5 14.2L80.7 66z"/></svg>