<svg xmlns="http://www.w3.org/2000/svg" viewBox="0 0 96 96"><title>Persuaid Iconset</title>
<desc>Iconset Persuaid</desc>
<metadata><?xpacket begin="﻿" id="W5M0MpCehiHzreSzNTczkc9d"?>
<x:xmpmeta xmlns:x="adobe:ns:meta/" x:xmptk="Adobe XMP Core 5.6-c143 79.161356, 2017/09/07-01:11:22        ">
   <rdf:RDF xmlns:rdf="http://www.w3.org/1999/02/22-rdf-syntax-ns#">
      <rdf:Description rdf:about=""
            xmlns:xmp="http://ns.adobe.com/xap/1.0/"
            xmlns:dc="http://purl.org/dc/elements/1.1/"
            xmlns:photoshop="http://ns.adobe.com/photoshop/1.0/"
            xmlns:xmpRights="http://ns.adobe.com/xap/1.0/rights/"
            xmlns:xmpMM="http://ns.adobe.com/xap/1.0/mm/"
            xmlns:stEvt="http://ns.adobe.com/xap/1.0/sType/ResourceEvent#">
         <xmp:CreateDate>2015-11-30T17:16:01+01:00</xmp:CreateDate>
         <xmp:MetadataDate>2018-08-22T17:18:30+02:00</xmp:MetadataDate>
         <dc:title>
            <rdf:Alt>
               <rdf:li xml:lang="x-default">Persuaid Iconset</rdf:li>
            </rdf:Alt>
         </dc:title>
         <dc:rights>
            <rdf:Alt>
               <rdf:li xml:lang="x-default">© Persuaid 2018. All rights reserved.</rdf:li>
            </rdf:Alt>
         </dc:rights>
         <dc:creator>
            <rdf:Seq>
               <rdf:li>Tobias Wibbeke</rdf:li>
            </rdf:Seq>
         </dc:creator>
         <dc:description>
            <rdf:Alt>
               <rdf:li xml:lang="x-default">Iconset Persuaid</rdf:li>
            </rdf:Alt>
         </dc:description>
         <photoshop:ColorMode>3</photoshop:ColorMode>
         <photoshop:DocumentAncestors>
            <rdf:Bag>
               <rdf:li>0873518BF6912EFD4766990C4D25551B</rdf:li>
               <rdf:li>09F803ABF2B8168C111289953D19B0BD</rdf:li>
               <rdf:li>541B6538F0DE75543B8E50186559AAE9</rdf:li>
               <rdf:li>54A15BC4A85368316D15C9AB0DF33C7F</rdf:li>
               <rdf:li>83DDB2F89EAF8ACD03447E0EDEE1742F</rdf:li>
               <rdf:li>9100F0C02D3A9856BD3A23CDBF4F2B7E</rdf:li>
               <rdf:li>F34013D5C71AFDB68A7DAAC6B8DDC337</rdf:li>
               <rdf:li>xmp.did:09d7ff2f-0dfd-4de8-97a6-cda3fb2cf8dd</rdf:li>
               <rdf:li>xmp.did:b67f30a8-6cc7-4bbf-a790-fe0dd782df27</rdf:li>
            </rdf:Bag>
         </photoshop:DocumentAncestors>
         <photoshop:AuthorsPosition>Persuaid | Tobias Wibbeke</photoshop:AuthorsPosition>
         <photoshop:CaptionWriter>Tobias Wibbeke</photoshop:CaptionWriter>
         <xmpRights:Marked>True</xmpRights:Marked>
         <xmpRights:WebStatement>www.persuaid.de</xmpRights:WebStatement>
         <xmpMM:InstanceID>xmp.iid:92183d56-b041-4a73-8a00-2f43232245b6</xmpMM:InstanceID>
         <xmpMM:DocumentID>xmp.did:92183d56-b041-4a73-8a00-2f43232245b6</xmpMM:DocumentID>
         <xmpMM:OriginalDocumentID>xmp.did:92183d56-b041-4a73-8a00-2f43232245b6</xmpMM:OriginalDocumentID>
         <xmpMM:History>
            <rdf:Seq>
               <rdf:li>
                  <rdf:Description>
                     <stEvt:action>saved</stEvt:action>
                     <stEvt:instanceID>xmp.iid:92183d56-b041-4a73-8a00-2f43232245b6</stEvt:instanceID>
                     <stEvt:when>2018-08-22T17:18:30+02:00</stEvt:when>
                     <stEvt:softwareAgent>Adobe Bridge CC 2018 (Macintosh)</stEvt:softwareAgent>
                     <stEvt:changed>/metadata</stEvt:changed>
                  </rdf:Description>
               </rdf:li>
            </rdf:Seq>
         </xmpMM:History>
      </rdf:Description>
   </rdf:RDF>
</x:xmpmeta>
                                                                                                    
                                                                                                    
                                                                                                    
                                                                                                    
                                                                                                    
                                                                                                    
                                                                                                    
                                                                                                    
                                                                                                    
                                                                                                    
                                                                                                    
                                                                                                    
                                                                                                    
                                                                                                    
                                                                                                    
                                                                                                    
                                                                                                    
                                                                                                    
                                                                                                    
                                                                                                    
                           
<?xpacket end="w"?></metadata>
<path fill="none" d="M0 0h96v96H0z"/><path d="M41.6 2.2c-.1 0-1.4-.5-3.4-1.1C35.5.4 33.1 0 31.1 0h-.2c-2.1 0-4.5.4-7.1 1.1-2 .5-3.4 1-3.4 1.1-.9.3-1.4 1.1-1.4 1.9L21.1 92c0 .7.4 1.3.9 1.6.1.1.8.5 2.1 1 1.4.6 3.6 1.3 6.7 1.3h.2c3.1 0 5.3-.7 6.7-1.3 1.3-.5 2-.9 2.1-1 .6-.4.9-1 .9-1.6l2.1-87.9c.1-.8-.4-1.6-1.2-1.9zm-16 57.7l-1.3-.5-.5-21.7 1.7-.7c3.6-1.4 7.3-1.4 10.9 0l1.7.6-.5 21.7-1.3.5c-3.5 1.5-7.2 1.5-10.7.1zM38.9 5.5l-.7 30.1-1-.4c-1.7-.7-3.4-1-5.2-1.2V4.1c1.5.1 3.3.4 5.2.9.6.2 1.2.4 1.7.5zM24.7 5c1.9-.5 3.7-.8 5.3-.9V34c-1.7.1-3.5.5-5.2 1.2l-1 .4L23 5.5c.5-.1 1.1-.3 1.7-.5zm.4 85.7l-.7-29.1.5.2c1.7.7 3.4 1.1 5.1 1.2v29c-2-.1-3.4-.6-4.3-1-.2-.2-.4-.2-.6-.3zm11.1.2c-.9.4-2.3.8-4.2 1v-29c1.7-.1 3.4-.5 5.1-1.2l.5-.2-.7 29.1c-.2.2-.4.2-.7.3z"/><path d="M33 40h-4c-.6 0-1 .4-1 1s.4 1 1 1h4c.6 0 1-.4 1-1s-.4-1-1-1zM33 55h-4c-.6 0-1 .4-1 1s.4 1 1 1h4c.6 0 1-.4 1-1s-.4-1-1-1zM75.7 2.2c-.1 0-1.4-.5-3.4-1.1C69.6.4 67.2 0 65.2 0H65c-2.1 0-4.5.4-7.1 1.1-2 .5-3.4 1-3.4 1.1-1 .3-1.5 1.1-1.5 1.9L55.2 92c0 .7.4 1.3.9 1.6.1.1.8.5 2.1 1 1.4.6 3.6 1.3 6.7 1.3h.2c3.1 0 5.3-.7 6.7-1.3 1.3-.5 2-.9 2.1-1 .6-.4.9-1 .9-1.6L77 4.1c0-.8-.5-1.6-1.3-1.9zm-16 57.7l-1.3-.5-.5-21.7 1.7-.6c3.6-1.4 7.3-1.4 10.9 0l1.7.7-.5 21.7-1.3.5c-3.6 1.3-7.3 1.3-10.7-.1zM72.9 5.5l-.7 30.1-1-.4c-1.7-.7-3.4-1-5.2-1.2V4.1c1.5.1 3.3.4 5.3.9.6.2 1.2.4 1.6.5zM58.8 5c1.9-.5 3.7-.8 5.2-.9V34c-1.7.1-3.5.5-5.2 1.2l-1 .4-.7-30.1c.4-.1 1-.3 1.7-.5zm.3 85.7l-.7-29.1.5.2c1.7.7 3.4 1 5.1 1.2v29c-1.9-.1-3.3-.6-4.2-1-.3-.2-.5-.2-.7-.3zm11.2.2c-.9.4-2.3.9-4.3 1v-29c1.7-.1 3.4-.5 5.1-1.2l.5-.2-.7 29.1c-.2.2-.4.2-.6.3z"/><path d="M67 40h-4c-.6 0-1 .4-1 1s.4 1 1 1h4c.6 0 1-.4 1-1s-.5-1-1-1zM67 55h-4c-.6 0-1 .4-1 1s.4 1 1 1h4c.6 0 1-.4 1-1s-.5-1-1-1z"/></svg>