<?xml version="1.0" encoding="utf-8"?>
<!-- Generator: Adobe Illustrator 22.1.0, SVG Export Plug-In . SVG Version: 6.00 Build 0)  -->
<svg version="1.1" id="WarningFlagAmbulance_x5F_Sunnycons"
	 xmlns="http://www.w3.org/2000/svg" xmlns:xlink="http://www.w3.org/1999/xlink" x="0px" y="0px" viewBox="0 0 96 96"
	 style="enable-background:new 0 0 96 96;" xml:space="preserve">
<title>Persuaid Iconset</title>
<desc>Iconset Persuaid</desc>
<metadata><?xpacket begin="﻿" id="W5M0MpCehiHzreSzNTczkc9d"?>
<x:xmpmeta xmlns:x="adobe:ns:meta/" x:xmptk="Adobe XMP Core 5.6-c143 79.161356, 2017/09/07-01:11:22        ">
   <rdf:RDF xmlns:rdf="http://www.w3.org/1999/02/22-rdf-syntax-ns#">
      <rdf:Description rdf:about=""
            xmlns:xmp="http://ns.adobe.com/xap/1.0/"
            xmlns:dc="http://purl.org/dc/elements/1.1/"
            xmlns:photoshop="http://ns.adobe.com/photoshop/1.0/"
            xmlns:xmpRights="http://ns.adobe.com/xap/1.0/rights/"
            xmlns:xmpMM="http://ns.adobe.com/xap/1.0/mm/"
            xmlns:stEvt="http://ns.adobe.com/xap/1.0/sType/ResourceEvent#">
         <xmp:CreateDate>2015-11-30T17:16:01+01:00</xmp:CreateDate>
         <xmp:MetadataDate>2018-08-22T17:18:30+02:00</xmp:MetadataDate>
         <dc:title>
            <rdf:Alt>
               <rdf:li xml:lang="x-default">Persuaid Iconset</rdf:li>
            </rdf:Alt>
         </dc:title>
         <dc:rights>
            <rdf:Alt>
               <rdf:li xml:lang="x-default">© Persuaid 2018. All rights reserved.</rdf:li>
            </rdf:Alt>
         </dc:rights>
         <dc:creator>
            <rdf:Seq>
               <rdf:li>Tobias Wibbeke</rdf:li>
            </rdf:Seq>
         </dc:creator>
         <dc:description>
            <rdf:Alt>
               <rdf:li xml:lang="x-default">Iconset Persuaid</rdf:li>
            </rdf:Alt>
         </dc:description>
         <photoshop:ColorMode>3</photoshop:ColorMode>
         <photoshop:DocumentAncestors>
            <rdf:Bag>
               <rdf:li>0873518BF6912EFD4766990C4D25551B</rdf:li>
               <rdf:li>09F803ABF2B8168C111289953D19B0BD</rdf:li>
               <rdf:li>541B6538F0DE75543B8E50186559AAE9</rdf:li>
               <rdf:li>54A15BC4A85368316D15C9AB0DF33C7F</rdf:li>
               <rdf:li>83DDB2F89EAF8ACD03447E0EDEE1742F</rdf:li>
               <rdf:li>9100F0C02D3A9856BD3A23CDBF4F2B7E</rdf:li>
               <rdf:li>F34013D5C71AFDB68A7DAAC6B8DDC337</rdf:li>
               <rdf:li>xmp.did:09d7ff2f-0dfd-4de8-97a6-cda3fb2cf8dd</rdf:li>
               <rdf:li>xmp.did:b67f30a8-6cc7-4bbf-a790-fe0dd782df27</rdf:li>
            </rdf:Bag>
         </photoshop:DocumentAncestors>
         <photoshop:AuthorsPosition>Persuaid | Tobias Wibbeke</photoshop:AuthorsPosition>
         <photoshop:CaptionWriter>Tobias Wibbeke</photoshop:CaptionWriter>
         <xmpRights:Marked>True</xmpRights:Marked>
         <xmpRights:WebStatement>www.persuaid.de</xmpRights:WebStatement>
         <xmpMM:InstanceID>xmp.iid:f0995ee1-3f06-463e-a3c3-a96821f0c3ff</xmpMM:InstanceID>
         <xmpMM:DocumentID>xmp.did:f0995ee1-3f06-463e-a3c3-a96821f0c3ff</xmpMM:DocumentID>
         <xmpMM:OriginalDocumentID>xmp.did:f0995ee1-3f06-463e-a3c3-a96821f0c3ff</xmpMM:OriginalDocumentID>
         <xmpMM:History>
            <rdf:Seq>
               <rdf:li>
                  <rdf:Description>
                     <stEvt:action>saved</stEvt:action>
                     <stEvt:instanceID>xmp.iid:f0995ee1-3f06-463e-a3c3-a96821f0c3ff</stEvt:instanceID>
                     <stEvt:when>2018-08-22T17:18:30+02:00</stEvt:when>
                     <stEvt:softwareAgent>Adobe Bridge CC 2018 (Macintosh)</stEvt:softwareAgent>
                     <stEvt:changed>/metadata</stEvt:changed>
                  </rdf:Description>
               </rdf:li>
            </rdf:Seq>
         </xmpMM:History>
      </rdf:Description>
   </rdf:RDF>
</x:xmpmeta>
                                                                                                    
                                                                                                    
                                                                                                    
                                                                                                    
                                                                                                    
                                                                                                    
                                                                                                    
                                                                                                    
                                                                                                    
                                                                                                    
                                                                                                    
                                                                                                    
                                                                                                    
                                                                                                    
                                                                                                    
                                                                                                    
                                                                                                    
                                                                                                    
                                                                                                    
                                                                                                    
                           
<?xpacket end="w"?></metadata>
<style type="text/css">
	.st0{fill:none;}
</style>
<rect class="st0" width="96" height="96"/>
<g>
	<path d="M81.1,36l5.8-18.4c0.2-0.6,0.1-1.3-0.3-1.8c-0.4-0.5-1-0.8-1.6-0.8H18V2c0-1.1-0.9-2-2-2s-2,0.9-2,2v22h-1
		c-0.6,0-1,0.4-1,1s0.4,1,1,1h1v20h-1c-0.6,0-1,0.4-1,1s0.4,1,1,1h1v35.2c-3.4,0.9-6,4-6,7.7v5h4v-5c0-2.2,1.8-4,4-4s4,1.8,4,4v5h4
		v-5c0-3.7-2.6-6.8-6-7.7V57h67c0.6,0,1.2-0.3,1.6-0.8c0.4-0.5,0.5-1.2,0.3-1.8L81.1,36z M18,53v-5h2.3c0.1,0.1,0.2,0.3,0.3,0.4
		C21,48.8,21.5,49,22,49s1-0.2,1.4-0.6C23.8,48,24,47.5,24,47s-0.2-1-0.6-1.4c-0.7-0.8-2.1-0.8-2.8,0c-0.1,0.1-0.2,0.3-0.3,0.4H18
		V26h2.3c0.1,0.1,0.2,0.3,0.3,0.4c0.1,0.1,0.2,0.2,0.3,0.3c0.1,0.1,0.2,0.1,0.3,0.2c0.1,0,0.2,0.1,0.4,0.1c0.1,0,0.3,0,0.4,0
		s0.3,0,0.4,0c0.1,0,0.3-0.1,0.4-0.1c0.1,0,0.2-0.1,0.3-0.2c0.1-0.1,0.2-0.2,0.3-0.3C23.8,26,24,25.5,24,25c0-0.1,0-0.3,0-0.4
		c0-0.1-0.1-0.2-0.1-0.4c0-0.1-0.1-0.2-0.2-0.3c-0.1-0.1-0.2-0.2-0.2-0.3c-0.1-0.1-0.2-0.2-0.3-0.2c-0.1-0.1-0.2-0.1-0.3-0.2
		c-0.1,0-0.2-0.1-0.4-0.1c-0.3,0-0.5,0-0.8,0c-0.1,0-0.2,0.1-0.4,0.1c-0.1,0.1-0.2,0.1-0.3,0.2c-0.1,0.1-0.2,0.2-0.3,0.2
		c-0.1,0.1-0.2,0.2-0.2,0.3c0,0,0,0.1-0.1,0.1H18v-5h64.3l-5.2,16.4c-0.1,0.4-0.1,0.8,0,1.2L82.3,53H18z"/>
	<path d="M66.8,26.4C66.6,26.2,66.3,26,66,26h-2c0-1.1-0.9-2-2-2s-2,0.9-2,2H37c-0.6,0-1,0.4-1,1v16c0,0.6,0.4,1,1,1h3.7
		c0.4,1.4,1.8,2.5,3.3,2.5s2.9-1.1,3.3-2.5h11.3c0.4,1.4,1.8,2.5,3.3,2.5c1.6,0,2.9-1.1,3.3-2.5c0,0,0.1,0,0.1,0H69
		c0.3,0,0.6-0.2,0.8-0.4l2-3c0.1-0.2,0.2-0.4,0.2-0.6v-6c0-0.2-0.1-0.4-0.2-0.6L66.8,26.4z M65.5,28l4.3,6H63v-6H65.5z M38,28h23
		v11.7c-1.1,0.3-2,1.2-2.3,2.3H47.3c-0.4-1.4-1.8-2.5-3.3-2.5s-2.9,1.1-3.3,2.5H38V28z M44,44.5c-0.8,0-1.5-0.7-1.5-1.5
		s0.7-1.5,1.5-1.5s1.5,0.7,1.5,1.5S44.8,44.5,44,44.5z M62,44.5c-0.8,0-1.5-0.7-1.5-1.5s0.7-1.5,1.5-1.5s1.5,0.7,1.5,1.5
		S62.8,44.5,62,44.5z M68.5,42h-3c0,0-0.1,0-0.1,0c-0.3-1.1-1.2-2-2.3-2.4V36h7v3.7L68.5,42z"/>
	<path d="M42,34h1v1c0,0.6,0.4,1,1,1s1-0.4,1-1v-1h1c0.6,0,1-0.4,1-1s-0.4-1-1-1h-1v-1c0-0.6-0.4-1-1-1s-1,0.4-1,1v1h-1
		c-0.6,0-1,0.4-1,1S41.4,34,42,34z"/>
	<path d="M31,42h-2c-0.6,0-1,0.4-1,1s0.4,1,1,1h2c0.6,0,1-0.4,1-1S31.6,42,31,42z"/>
	<path d="M34,38h-2c-0.6,0-1,0.4-1,1s0.4,1,1,1h2c0.6,0,1-0.4,1-1S34.6,38,34,38z"/>
	<path d="M29.9,36c0.6,0,1-0.4,1-1s-0.4-1-1-1h-1.7c-0.6,0-1,0.4-1,1s0.4,1,1,1H29.9z"/>
</g>
</svg>
