<svg xmlns="http://www.w3.org/2000/svg" viewBox="0 0 96 96"><title>Persuaid Iconset</title>
<desc>Iconset Persuaid</desc>
<metadata><?xpacket begin="﻿" id="W5M0MpCehiHzreSzNTczkc9d"?>
<x:xmpmeta xmlns:x="adobe:ns:meta/" x:xmptk="Adobe XMP Core 5.6-c143 79.161356, 2017/09/07-01:11:22        ">
   <rdf:RDF xmlns:rdf="http://www.w3.org/1999/02/22-rdf-syntax-ns#">
      <rdf:Description rdf:about=""
            xmlns:xmp="http://ns.adobe.com/xap/1.0/"
            xmlns:dc="http://purl.org/dc/elements/1.1/"
            xmlns:photoshop="http://ns.adobe.com/photoshop/1.0/"
            xmlns:xmpRights="http://ns.adobe.com/xap/1.0/rights/"
            xmlns:xmpMM="http://ns.adobe.com/xap/1.0/mm/"
            xmlns:stEvt="http://ns.adobe.com/xap/1.0/sType/ResourceEvent#">
         <xmp:CreateDate>2015-11-30T17:16:01+01:00</xmp:CreateDate>
         <xmp:MetadataDate>2018-08-22T17:18:30+02:00</xmp:MetadataDate>
         <dc:title>
            <rdf:Alt>
               <rdf:li xml:lang="x-default">Persuaid Iconset</rdf:li>
            </rdf:Alt>
         </dc:title>
         <dc:rights>
            <rdf:Alt>
               <rdf:li xml:lang="x-default">© Persuaid 2018. All rights reserved.</rdf:li>
            </rdf:Alt>
         </dc:rights>
         <dc:creator>
            <rdf:Seq>
               <rdf:li>Tobias Wibbeke</rdf:li>
            </rdf:Seq>
         </dc:creator>
         <dc:description>
            <rdf:Alt>
               <rdf:li xml:lang="x-default">Iconset Persuaid</rdf:li>
            </rdf:Alt>
         </dc:description>
         <photoshop:ColorMode>3</photoshop:ColorMode>
         <photoshop:DocumentAncestors>
            <rdf:Bag>
               <rdf:li>0873518BF6912EFD4766990C4D25551B</rdf:li>
               <rdf:li>09F803ABF2B8168C111289953D19B0BD</rdf:li>
               <rdf:li>541B6538F0DE75543B8E50186559AAE9</rdf:li>
               <rdf:li>54A15BC4A85368316D15C9AB0DF33C7F</rdf:li>
               <rdf:li>83DDB2F89EAF8ACD03447E0EDEE1742F</rdf:li>
               <rdf:li>9100F0C02D3A9856BD3A23CDBF4F2B7E</rdf:li>
               <rdf:li>F34013D5C71AFDB68A7DAAC6B8DDC337</rdf:li>
               <rdf:li>xmp.did:09d7ff2f-0dfd-4de8-97a6-cda3fb2cf8dd</rdf:li>
               <rdf:li>xmp.did:b67f30a8-6cc7-4bbf-a790-fe0dd782df27</rdf:li>
            </rdf:Bag>
         </photoshop:DocumentAncestors>
         <photoshop:AuthorsPosition>Persuaid | Tobias Wibbeke</photoshop:AuthorsPosition>
         <photoshop:CaptionWriter>Tobias Wibbeke</photoshop:CaptionWriter>
         <xmpRights:Marked>True</xmpRights:Marked>
         <xmpRights:WebStatement>www.persuaid.de</xmpRights:WebStatement>
         <xmpMM:InstanceID>xmp.iid:f1c14311-4e40-44fc-9afb-da61411b7067</xmpMM:InstanceID>
         <xmpMM:DocumentID>xmp.did:f1c14311-4e40-44fc-9afb-da61411b7067</xmpMM:DocumentID>
         <xmpMM:OriginalDocumentID>xmp.did:f1c14311-4e40-44fc-9afb-da61411b7067</xmpMM:OriginalDocumentID>
         <xmpMM:History>
            <rdf:Seq>
               <rdf:li>
                  <rdf:Description>
                     <stEvt:action>saved</stEvt:action>
                     <stEvt:instanceID>xmp.iid:f1c14311-4e40-44fc-9afb-da61411b7067</stEvt:instanceID>
                     <stEvt:when>2018-08-22T17:18:30+02:00</stEvt:when>
                     <stEvt:softwareAgent>Adobe Bridge CC 2018 (Macintosh)</stEvt:softwareAgent>
                     <stEvt:changed>/metadata</stEvt:changed>
                  </rdf:Description>
               </rdf:li>
            </rdf:Seq>
         </xmpMM:History>
      </rdf:Description>
   </rdf:RDF>
</x:xmpmeta>
                                                                                                    
                                                                                                    
                                                                                                    
                                                                                                    
                                                                                                    
                                                                                                    
                                                                                                    
                                                                                                    
                                                                                                    
                                                                                                    
                                                                                                    
                                                                                                    
                                                                                                    
                                                                                                    
                                                                                                    
                                                                                                    
                                                                                                    
                                                                                                    
                                                                                                    
                                                                                                    
                           
<?xpacket end="w"?></metadata>
<path fill="none" d="M0 0h96v96H0z"/><path d="M95.9 32.5c-.1-.4-3.6-10-12.8-19.1l-.2-.2C73.7 4 64 .6 63.6.4c-.6-.2-1.2-.1-1.8.2-.2.1-15.4 10.3-33.3 28.1C10.7 46.5.4 61.6.3 61.8c-.4.5-.4 1.2-.2 1.8.1.4 3.6 10 12.8 19.1l.2.2C22.3 92 32 95.5 32.4 95.6c.2.1.4.1.7.1.4 0 .8-.1 1.1-.3.2-.1 15.4-10.3 33.3-28.1s28.1-32.9 28.2-33c.3-.6.4-1.2.2-1.8zM4.3 63.1c2.4-3.4 11.9-16.5 27.1-31.6 15.2-15.1 28.4-24.6 31.8-27 2.5 1 9.5 4.3 16.2 10.8l-11 10.9-.3-.5-3.6-7.5c-.2-.5-.8-.7-1.3-.5L52 23.2c-.2.1-.4.3-.5.6-.1.3-.1.5 0 .8l6.1 12.5L37 57.5l-5.1-2.4-7.5-3.6c-.5-.2-1.1 0-1.3.5l-5.5 11.2c-.1.2-.1.5 0 .8.1.3.3.5.5.6l7.5 3.6.5.3-11 10.9C8.6 72.6 5.3 65.6 4.3 63.1zm69-22.5l-9.5 4.6-1.4-2.9 9.5-4.6 1.4 2.9zm-11.8-.1l-1.7-3.6c0-.1 0-.1-.1-.2L57.4 32l9.5-4.6L71 36l-9.5 4.5zm-7.8-15.9l9.5-4.6 2.8 5.7-9.5 4.6-2.8-5.7zm-8.5 39.1l-4.6 9.4-2.9-1.4 4.6-9.4 2.9 1.4zm-9.3 7.1l-8.5-4.1 4.6-9.4 4.8 2.3c.1 0 .1.1.2.1l3.6 1.7-4.7 9.4zm-16.1-7.7l4.6-9.4 5.7 2.7-4.6 9.4-5.7-2.7zm44.8 1.4c-15.2 15.1-28.4 24.6-31.8 27-2.5-1-9.5-4.3-16.2-10.8L28 69.3l7.9 3.8 4.7 2.3c.1.1.3.1.4.1.4 0 .7-.2.9-.6l5.5-11.2c.1-.2.1-.5 0-.8-.1-.3-.3-.5-.5-.6L42.2 60l-3.3-1.6L58.5 39l3.9 8c.2.4.5.6.9.6.1 0 .3 0 .4-.1L75 42c.2-.1.4-.3.5-.6.1-.3.1-.5 0-.8l-6.1-12.5 11.5-11.4c6.5 6.7 9.8 13.7 10.9 16.1-2.5 3.5-12 16.6-27.2 31.7z"/><path d="M32.7 40.7c.3 0 .5-.1.7-.3l6.9-6.8c.4-.4.4-1 0-1.4-.4-.4-1-.4-1.4 0L32 39c-.4.4-.4 1 0 1.4.2.2.5.3.7.3zM62.5 55.6l-6.9 6.8c-.4.4-.4 1 0 1.4.2.2.5.3.7.3.3 0 .5-.1.7-.3l7-6.8c.4-.4.4-1 0-1.4-.4-.4-1.1-.4-1.5 0z"/></svg>