<svg xmlns="http://www.w3.org/2000/svg" viewBox="0 0 96 96"><title>Persuaid Iconset</title>
<desc>Iconset Persuaid</desc>
<metadata><?xpacket begin="﻿" id="W5M0MpCehiHzreSzNTczkc9d"?>
<x:xmpmeta xmlns:x="adobe:ns:meta/" x:xmptk="Adobe XMP Core 5.6-c143 79.161356, 2017/09/07-01:11:22        ">
   <rdf:RDF xmlns:rdf="http://www.w3.org/1999/02/22-rdf-syntax-ns#">
      <rdf:Description rdf:about=""
            xmlns:xmp="http://ns.adobe.com/xap/1.0/"
            xmlns:dc="http://purl.org/dc/elements/1.1/"
            xmlns:photoshop="http://ns.adobe.com/photoshop/1.0/"
            xmlns:xmpRights="http://ns.adobe.com/xap/1.0/rights/"
            xmlns:xmpMM="http://ns.adobe.com/xap/1.0/mm/"
            xmlns:stEvt="http://ns.adobe.com/xap/1.0/sType/ResourceEvent#">
         <xmp:CreateDate>2015-11-30T17:16:01+01:00</xmp:CreateDate>
         <xmp:MetadataDate>2018-08-22T17:18:30+02:00</xmp:MetadataDate>
         <dc:title>
            <rdf:Alt>
               <rdf:li xml:lang="x-default">Persuaid Iconset</rdf:li>
            </rdf:Alt>
         </dc:title>
         <dc:rights>
            <rdf:Alt>
               <rdf:li xml:lang="x-default">© Persuaid 2018. All rights reserved.</rdf:li>
            </rdf:Alt>
         </dc:rights>
         <dc:creator>
            <rdf:Seq>
               <rdf:li>Tobias Wibbeke</rdf:li>
            </rdf:Seq>
         </dc:creator>
         <dc:description>
            <rdf:Alt>
               <rdf:li xml:lang="x-default">Iconset Persuaid</rdf:li>
            </rdf:Alt>
         </dc:description>
         <photoshop:ColorMode>3</photoshop:ColorMode>
         <photoshop:DocumentAncestors>
            <rdf:Bag>
               <rdf:li>0873518BF6912EFD4766990C4D25551B</rdf:li>
               <rdf:li>09F803ABF2B8168C111289953D19B0BD</rdf:li>
               <rdf:li>541B6538F0DE75543B8E50186559AAE9</rdf:li>
               <rdf:li>54A15BC4A85368316D15C9AB0DF33C7F</rdf:li>
               <rdf:li>83DDB2F89EAF8ACD03447E0EDEE1742F</rdf:li>
               <rdf:li>9100F0C02D3A9856BD3A23CDBF4F2B7E</rdf:li>
               <rdf:li>F34013D5C71AFDB68A7DAAC6B8DDC337</rdf:li>
               <rdf:li>xmp.did:09d7ff2f-0dfd-4de8-97a6-cda3fb2cf8dd</rdf:li>
               <rdf:li>xmp.did:b67f30a8-6cc7-4bbf-a790-fe0dd782df27</rdf:li>
            </rdf:Bag>
         </photoshop:DocumentAncestors>
         <photoshop:AuthorsPosition>Persuaid | Tobias Wibbeke</photoshop:AuthorsPosition>
         <photoshop:CaptionWriter>Tobias Wibbeke</photoshop:CaptionWriter>
         <xmpRights:Marked>True</xmpRights:Marked>
         <xmpRights:WebStatement>www.persuaid.de</xmpRights:WebStatement>
         <xmpMM:InstanceID>xmp.iid:b47d5d09-ac17-40ea-8fd7-e248aea8b0b2</xmpMM:InstanceID>
         <xmpMM:DocumentID>xmp.did:b47d5d09-ac17-40ea-8fd7-e248aea8b0b2</xmpMM:DocumentID>
         <xmpMM:OriginalDocumentID>xmp.did:b47d5d09-ac17-40ea-8fd7-e248aea8b0b2</xmpMM:OriginalDocumentID>
         <xmpMM:History>
            <rdf:Seq>
               <rdf:li>
                  <rdf:Description>
                     <stEvt:action>saved</stEvt:action>
                     <stEvt:instanceID>xmp.iid:b47d5d09-ac17-40ea-8fd7-e248aea8b0b2</stEvt:instanceID>
                     <stEvt:when>2018-08-22T17:18:30+02:00</stEvt:when>
                     <stEvt:softwareAgent>Adobe Bridge CC 2018 (Macintosh)</stEvt:softwareAgent>
                     <stEvt:changed>/metadata</stEvt:changed>
                  </rdf:Description>
               </rdf:li>
            </rdf:Seq>
         </xmpMM:History>
      </rdf:Description>
   </rdf:RDF>
</x:xmpmeta>
                                                                                                    
                                                                                                    
                                                                                                    
                                                                                                    
                                                                                                    
                                                                                                    
                                                                                                    
                                                                                                    
                                                                                                    
                                                                                                    
                                                                                                    
                                                                                                    
                                                                                                    
                                                                                                    
                                                                                                    
                                                                                                    
                                                                                                    
                                                                                                    
                                                                                                    
                                                                                                    
                           
<?xpacket end="w"?></metadata>
<path fill="none" d="M96 0v96H0V0z"/><path d="M81.1 36l5.8-18.4c.2-.6.1-1.3-.3-1.8s-1-.8-1.6-.8H18V2c0-1.1-.9-2-2-2s-2 .9-2 2v22h-1c-.6 0-1 .4-1 1s.4 1 1 1h1v20h-1c-.6 0-1 .4-1 1s.4 1 1 1h1v35.2c-3.4.9-6 4-6 7.7v5h4v-5c0-2.2 1.8-4 4-4s4 1.8 4 4v5h4v-5c0-3.7-2.6-6.8-6-7.7V57h67c.6 0 1.2-.3 1.6-.8.4-.5.5-1.2.3-1.8L81.1 36zM68 34.9V39l-7 .5v-5.2l7 .6zm-9 4.8l-7 .5v-6.5l7 .5v5.5zm-9 .6l-7 .5V33l7 .5v6.8zM43 53V42.9L69.1 41c.5 0 .9-.5.9-1v-6c0-.5-.4-1-.9-1L43 31v-4c0-.6-.4-1-1-1s-1 .4-1 1v26H18v-5h2.3c.1.1.2.3.3.4.4.4.9.6 1.4.6.3 0 .5 0 .8-.2.2-.1.5-.2.6-.4.4-.4.6-.9.6-1.4v-.4c0-.1-.1-.2-.1-.4 0-.1-.1-.2-.2-.3-.1-.1-.2-.2-.2-.3-.1-.1-.2-.2-.3-.2-.1-.1-.2-.1-.3-.2-.1 0-.2-.1-.4-.1-.6-.1-1.3.1-1.8.5-.1.1-.2.3-.3.4H18V26h2.3c.1.1.2.3.3.4.4.4.9.6 1.4.6s1-.2 1.4-.6c.2-.2.3-.4.4-.6.2-.3.2-.5.2-.8 0-.5-.2-1-.6-1.4-.5-.5-1.2-.7-1.8-.5-.1 0-.3.1-.4.1-.1.1-.2.1-.3.2-.1.1-.2.2-.3.2-.1.1-.2.3-.3.4H18v-5h64.3l-5.2 16.4c-.1.4-.1.8 0 1.2L82.3 53H43z"/><path d="M34 40h-3c-.6 0-1 .4-1 1s.4 1 1 1h3c.6 0 1-.4 1-1s-.4-1-1-1zM38 36h-4c-.6 0-1 .4-1 1s.4 1 1 1h4c.6 0 1-.4 1-1s-.4-1-1-1zM33 34c.6 0 1-.4 1-1s-.4-1-1-1h-3c-.6 0-1 .4-1 1s.4 1 1 1h3z"/></svg>