<?xml version="1.0" encoding="utf-8"?>
<!-- Generator: Adobe Illustrator 18.0.0, SVG Export Plug-In . SVG Version: 6.00 Build 0)  -->
<!DOCTYPE svg PUBLIC "-//W3C//DTD SVG 1.1//EN" "http://www.w3.org/Graphics/SVG/1.1/DTD/svg11.dtd">
<svg version="1.1" id="Layer_1" xmlns="http://www.w3.org/2000/svg" xmlns:xlink="http://www.w3.org/1999/xlink" x="0px" y="0px"
	 viewBox="0 0 100 100" enable-background="new 0 0 100 100" xml:space="preserve">
<path d="M39,43.5l21.1-21.1H26.3c-2.7,0-4.6,2.5-4,5.1C23.7,33.8,27.8,43.5,39,43.5z M93.6,18L93.6,18c-6.3-6.3-16.5-6.3-22.7,0
	L36.8,52.1c-8.9,8.9-16.9,12.2-26.1,7.1l-9,9l22.6,14.9c10.9,6.8,23.5,3.5,33.7-6.7l8.3-8.3c2,8.4,10.1,11.6,15.5,12.9
	c2.6,0.6,5.1-1.4,5.1-4V47.4l6.7-6.7C99.9,34.5,99.9,24.3,93.6,18z M38.6,58.5C32,65,26.2,68.2,20.4,68.2c-3,0-5.9-0.8-8.9-2.5
	c-0.5-0.3-0.7-0.9-0.4-1.4c0.3-0.5,0.9-0.7,1.4-0.4c8,4.5,15.4,2.4,24.7-6.9c0.4-0.4,1-0.4,1.4,0S38.9,58.1,38.6,58.5z M82.2,26.7
	l-6.5-6.5c3.6-3.6,9.4-3.6,13,0L82.2,26.7z"/>
</svg>
