<?xml version="1.0" encoding="utf-8"?>
<!-- Generator: Adobe Illustrator 18.0.0, SVG Export Plug-In . SVG Version: 6.00 Build 0)  -->
<!DOCTYPE svg PUBLIC "-//W3C//DTD SVG 1.1//EN" "http://www.w3.org/Graphics/SVG/1.1/DTD/svg11.dtd">
<svg version="1.1" id="Layer_1" xmlns="http://www.w3.org/2000/svg" xmlns:xlink="http://www.w3.org/1999/xlink" x="0px" y="0px"
	 viewBox="0 0 100 100" enable-background="new 0 0 100 100" xml:space="preserve">
<path d="M77.3,31.9c0,0-5.3-6.3-5.3-16.4V9.9c0-4.1-1.8-8.6-5.8-8.6v10.7c0,0,1.5,20.6-16.2,20.6S33.8,12.1,33.8,12.1v-10
	c-4.1,0-5.8,3.8-5.8,7.8v5.6c0,10.1-5.3,16.4-5.3,16.4s5,4.2,5,29.8c0,5.4-0.2,12.1-0.6,16.3c11.1,2,17.6,9.2,18.6,20.6h8.7
	C55.2,87.2,61.8,80,72.9,78c-0.3-4.1-0.6-10.9-0.6-16.3C72.3,36.1,77.3,31.9,77.3,31.9z M33.7,74.1c0,0.5-0.5,0.9-1,0.9
	c0,0,0,0-0.1,0c-0.6,0-1-0.5-0.9-1.1c1.6-25.1-3.1-40.7-3.1-40.8c-0.2-0.5,0.1-1.1,0.7-1.2c0.5-0.2,1.1,0.1,1.2,0.7
	C30.6,32.7,35.3,48.6,33.7,74.1z M71.7,33.1c0,0.2-4.7,15.7-3.1,40.8c0,0.6-0.4,1-0.9,1.1c0,0,0,0-0.1,0c-0.5,0-1-0.4-1-0.9
	c-1.6-25.5,3.1-41.4,3.2-41.5c0.2-0.5,0.7-0.8,1.2-0.7C71.5,32.1,71.8,32.6,71.7,33.1z"/>
</svg>
