<?xml version="1.0" encoding="utf-8"?>
<!-- Generator: Adobe Illustrator 18.0.0, SVG Export Plug-In . SVG Version: 6.00 Build 0)  -->
<!DOCTYPE svg PUBLIC "-//W3C//DTD SVG 1.1//EN" "http://www.w3.org/Graphics/SVG/1.1/DTD/svg11.dtd">
<svg version="1.1" id="Layer_1" xmlns="http://www.w3.org/2000/svg" xmlns:xlink="http://www.w3.org/1999/xlink" x="0px" y="0px"
	 viewBox="0 0 100 100" enable-background="new 0 0 100 100" xml:space="preserve">
<path d="M96.8,89.2l-7.9-78.5H11.1L3.2,89.2h43.4V70.5c0-10.9,1-15.1,3.4-15.1c2.5,0,3.5,4.5,3.5,15.4v18.4H96.8z M84.2,21.5
	c0.6-0.1,1,0.3,1.1,0.9l6,60.2c0.1,0.5-0.3,1-0.9,1.1c0,0-0.1,0-0.1,0c-0.5,0-0.9-0.4-1-0.9l-6-60.2C83.2,22,83.6,21.5,84.2,21.5z
	 M10.6,82.8c-0.1,0.5-0.5,0.9-1,0.9c0,0-0.1,0-0.1,0c-0.5-0.1-1-0.5-0.9-1.1l6-60.2c0.1-0.5,0.5-1,1.1-0.9c0.5,0.1,1,0.5,0.9,1.1
	L10.6,82.8z M50,24.9c-1.4,3.1-4.5,5.2-8.1,5.2c-0.6,0-1-0.4-1-1s0.4-1,1-1c3.8,0,6.9-3.1,6.9-6.9v-0.6c-1.1,1.3-2.7,2.6-4.8,3.4
	c-1.4,0.5-2.6,0.8-3.7,0.8c-1.9,0-3.2-0.9-3.8-2.6c-0.7-1.8-0.4-4.4,4.7-6.2c1.1-0.4,2.4-0.6,3.7-0.6c2.4,0,4.5,0.7,5.1,0.9
	c0.7-0.3,2.7-0.9,5.1-0.9c1.3,0,2.6,0.2,3.7,0.6c2.1,0.8,3.5,1.6,4.2,2.7c0.7,1,0.9,2.2,0.4,3.4c-0.6,1.7-1.9,2.6-3.8,2.6h0
	c-1,0-2.2-0.3-3.7-0.8c-2.3-0.8-4-2.5-5.2-3.8v0.3c0.2,0.2,0.4,0.5,0.4,0.8c0,3.8,3.1,6.9,6.9,6.9c0.6,0,1,0.4,1,1s-0.4,1-1,1
	C54.5,30.1,51.4,27.9,50,24.9z M56.7,22.1c1.2,0.4,2.2,0.6,3,0.6h0c1.3,0,1.7-0.6,2-1.2c0.2-0.6,0.2-1.1-0.2-1.6
	c-0.4-0.5-1.2-1.2-3.3-2c-0.9-0.3-1.9-0.5-3-0.5c-1.4,0-2.7,0.3-3.5,0.5C52.5,19.2,54.2,21.2,56.7,22.1z M41.8,17.9
	c-4.2,1.5-3.7,3-3.5,3.6c0.2,0.6,0.6,1.2,2,1.2c0.8,0,1.8-0.2,3-0.6c2.4-0.9,4.2-2.9,5-4.2c-0.9-0.2-2.1-0.5-3.5-0.5
	C43.8,17.4,42.7,17.6,41.8,17.9z"/>
</svg>
