<?xml version="1.0" encoding="utf-8"?>
<!-- Generator: Adobe Illustrator 18.0.0, SVG Export Plug-In . SVG Version: 6.00 Build 0)  -->
<!DOCTYPE svg PUBLIC "-//W3C//DTD SVG 1.1//EN" "http://www.w3.org/Graphics/SVG/1.1/DTD/svg11.dtd">
<svg version="1.1" id="Layer_1" xmlns="http://www.w3.org/2000/svg" xmlns:xlink="http://www.w3.org/1999/xlink" x="0px" y="0px"
	 viewBox="0 0 100 100" enable-background="new 0 0 100 100" xml:space="preserve">
<path d="M50,3.7C24.5,3.7,3.7,24.5,3.7,50c0,25.5,20.8,46.3,46.3,46.3S96.3,75.5,96.3,50C96.3,24.5,75.5,3.7,50,3.7z M92.3,50
	c0,1.8-0.1,3.6-0.4,5.4c-8.5,7-17.6,7.6-23.9,6.7c-0.8,2.7-3.2,4.8-6.1,5.2v23.2c-3.8,1.1-7.8,1.7-12,1.7c-9.5,0-18.4-3.2-25.4-8.5
	c15.6-1.5,26.2-11.7,31.5-18.3c-1.5-1.4-2.5-3.3-2.5-5.5c0-1.9,0.7-3.6,1.9-4.9c-7-6.7-22.2-17.9-45.5-18.9
	c3.2-9.2,9.5-17,17.6-22.1C51,16.5,57.5,40.5,59.3,52.8c0.5-0.1,1.1-0.2,1.7-0.2c2.8,0,5.3,1.6,6.5,3.9c6.2-4.3,14.1-13.7,15-33.5
	C88.7,30.3,92.3,39.7,92.3,50z"/>
</svg>
