<?xml version="1.0" encoding="utf-8"?>
<!-- Generator: Adobe Illustrator 18.0.0, SVG Export Plug-In . SVG Version: 6.00 Build 0)  -->
<!DOCTYPE svg PUBLIC "-//W3C//DTD SVG 1.1//EN" "http://www.w3.org/Graphics/SVG/1.1/DTD/svg11.dtd">
<svg version="1.1" id="Layer_1" xmlns="http://www.w3.org/2000/svg" xmlns:xlink="http://www.w3.org/1999/xlink" x="0px" y="0px"
	 viewBox="0 0 100 100" enable-background="new 0 0 100 100" xml:space="preserve">
<path d="M87.8,45.4c-0.9-3-2.6-7.5-5.3-12.2c-1.8-3.2-3.9-6-5.8-8.3c2.5-1.7,6.8-5.2,8.6-10.4C87.8,7.7,86.9,3.6,82.7,2
	c-0.8-0.3-1.5-0.4-2.2-0.4c-3.2,0-5.8,2.7-7.8,8.3c-1.4,3.9-1.2,7.9-0.6,10.9c-1.3-0.2-2.6,0.2-3.5,1.2c-2.3,2.6-5.5,6.6-8.2,11.2
	c-2.7,4.6-4.3,9.1-5.3,12.2c0,0.1-0.1,0.3-0.1,0.4H45c0-0.1,0-0.3-0.1-0.4c-0.9-3-2.6-7.5-5.3-12.2c-2.7-4.6-5.9-8.6-8.2-11.2
	c-0.9-1-2.3-1.4-3.5-1.2c0.6-3,0.8-7-0.6-10.9c-2-5.6-4.5-8.3-7.8-8.3c-0.7,0-1.4,0.1-2.2,0.4c-4.2,1.5-5.1,5.7-2.7,12.4
	c1.9,5.2,6.1,8.7,8.6,10.4c-1.9,2.3-4,5.2-5.8,8.3c-2.7,4.6-4.3,9.1-5.3,12.2c-0.7,2.1,0.6,4.4,2.8,4.9c2.8,0.7,7.2,1.4,13.6,1.4
	s10.8-0.7,13.6-1.4c1.3-0.3,2.3-1.3,2.7-2.5h10.3c0.4,1.2,1.4,2.2,2.7,2.5c2.8,0.7,7.2,1.4,13.6,1.4s10.8-0.7,13.6-1.4
	C87.2,49.7,88.5,47.5,87.8,45.4z M25.5,22.2c-0.3,0.4-0.6,0.7-1,1.1c-2.2-1.5-6.3-4.8-8-9.6c-2.7-7.4-0.4-9.2,1.5-9.8
	c0.5-0.2,1-0.3,1.5-0.3c2.3,0,4.3,2.3,5.9,6.9C26.9,14.9,26.2,19.4,25.5,22.2z M39.2,45.3c-0.1,0-0.2,0-0.3,0c-0.4,0-0.8-0.3-1-0.7
	c-0.7-2.3-2-5.8-4-9.3c-2.1-3.5-4.6-6.6-6.3-8.6c-0.4-0.4-0.3-1,0.1-1.4c0.4-0.4,1-0.3,1.4,0.1c1.8,2,4.4,5.2,6.5,8.9
	c2.1,3.7,3.5,7.3,4.2,9.7C40,44.6,39.7,45.2,39.2,45.3z M74.6,10.6c1.6-4.6,3.6-6.9,5.9-6.9c0.5,0,1,0.1,1.5,0.3
	c1.9,0.7,4.2,2.5,1.5,9.8c-1.7,4.8-5.8,8.1-8,9.6c-0.3-0.4-0.7-0.8-1-1.1C73.8,19.4,73.1,14.9,74.6,10.6z M82.5,45.3
	c-0.1,0-0.2,0-0.3,0c-0.4,0-0.8-0.3-1-0.7c-0.7-2.3-2-5.8-4-9.3c-2.1-3.5-4.6-6.6-6.3-8.6c-0.4-0.4-0.3-1,0.1-1.4
	c0.4-0.4,1-0.3,1.4,0.1c1.8,2,4.4,5.2,6.5,8.9c2.1,3.7,3.5,7.3,4.2,9.7C83.3,44.6,83,45.2,82.5,45.3z M20.5,71.8
	c14.3,2.5,22.7,11.9,23.9,26.6h11.2c1.2-14.7,9.6-24.1,23.9-26.6V61.3h-59V71.8z"/>
</svg>
