<?xml version="1.0" encoding="utf-8"?>
<!-- Generator: Adobe Illustrator 18.0.0, SVG Export Plug-In . SVG Version: 6.00 Build 0)  -->
<!DOCTYPE svg PUBLIC "-//W3C//DTD SVG 1.1//EN" "http://www.w3.org/Graphics/SVG/1.1/DTD/svg11.dtd">
<svg version="1.1" id="Layer_1" xmlns="http://www.w3.org/2000/svg" xmlns:xlink="http://www.w3.org/1999/xlink" x="0px" y="0px"
	 viewBox="0 0 100 100" enable-background="new 0 0 100 100" xml:space="preserve">
<path d="M86.5,4L84,2.2L68.5,17.7h4.2L86.5,4z M74.9,21.7c-3.5,0-24.3,0-24.3,0s-6.4,0-12.8,0H20.4c1.2-2.9,4.1-4,8-4h14l3.2-3.2
	c-7.3-7.3-19.3-7.3-26.6,0s-7.3,19.3,0,26.6l8.3-8.5c3.6,3.6,10,10,13.8,13.8c5.5,5.5,7.5,8.4,7.5,12.4c0,7.7,0,28.9,0,28.9
	c0,2.8-1.8,4.8-4,4.8h-9.7c-2.9,0-5.3,2.4-5.3,5.3h42.1c0-2.9-2.4-5.3-5.3-5.3h-9.7c-2.2,0-4-2-4-4.8c0,0,0-21.2,0-28.9
	c0-3.9,1.9-6.8,7.5-12.4c5.6-5.6,16.6-16.6,16.6-16.6C81.1,25.3,79.8,21.7,74.9,21.7z M70.3,28.3L54.7,43.9
	c-0.2,0.2-0.5,0.3-0.7,0.3s-0.5-0.1-0.7-0.3c-0.4-0.4-0.4-1,0-1.4l15.6-15.6c0.4-0.4,1-0.4,1.4,0S70.7,27.9,70.3,28.3z"/>
</svg>
