<?xml version="1.0" encoding="utf-8"?>
<!-- Generator: Adobe Illustrator 18.0.0, SVG Export Plug-In . SVG Version: 6.00 Build 0)  -->
<!DOCTYPE svg PUBLIC "-//W3C//DTD SVG 1.1//EN" "http://www.w3.org/Graphics/SVG/1.1/DTD/svg11.dtd">
<svg version="1.1" id="Layer_1" xmlns="http://www.w3.org/2000/svg" xmlns:xlink="http://www.w3.org/1999/xlink" x="0px" y="0px"
	 viewBox="0 0 100 100" enable-background="new 0 0 100 100" xml:space="preserve">
<path d="M77.1,4l-2.5-1.7L59.1,17.7h4.2L77.1,4z M65.4,59.1c0-2.3-0.4-4.5-1.1-6.5h0c0,0,0-0.1-0.1-0.1c0-0.1,0-0.1-0.1-0.2
	c-0.6-1.6-3.5-9.5-3.5-16.6c0-6,3-13.9,3-13.9H32.8c1.2-2.9,4.1-4,8-4h11l3.2-3.2c-7.3-7.3-19.3-7.3-26.6,0s-7.3,19.3,0,26.6
	l8.6-8.8c0.2,1.2,0.3,2.3,0.3,3.4c0,7.1-2.8,15-3.4,16.6c0,0.1,0,0.1-0.1,0.2c0,0.1,0,0.1,0,0.1h0c-0.7,2-1.1,4.2-1.1,6.5
	c0,5.9,2.6,11.9,6.8,15.6h0c0,0,0,0,0,0c0.8,0.7,1.7,1.4,2.7,1.9c4.4,3.6,3.7,6,3.7,10.1v0.9c0,2.8-0.8,4.8-3,4.8h-2.7
	c-2.9,0-5.3,2.4-5.3,5.3H63c0-2.9-2.4-5.3-5.3-5.3H55c-2.2,0-3-2-3-4.8v-0.9c0-4.1-0.6-6.5,3.8-10.1c1-0.5,1.9-1.2,2.7-1.9
	c0,0,0,0,0,0h0C62.8,71,65.4,65,65.4,59.1z M58.9,54.6c-0.1,0-0.2,0.1-0.4,0.1c-0.4,0-0.8-0.2-0.9-0.6c-0.1-0.4-3.5-8.8-3.5-15.9
	c0-6.5,1.5-10.6,1.5-10.8c0.2-0.5,0.8-0.8,1.3-0.6c0.5,0.2,0.8,0.8,0.6,1.3c0,0-1.4,4-1.4,10.1c0,6.7,3.4,15.1,3.4,15.2
	C59.7,53.8,59.4,54.3,58.9,54.6z"/>
</svg>
