<?xml version="1.0" encoding="utf-8"?>
<!-- Generator: Adobe Illustrator 18.0.0, SVG Export Plug-In . SVG Version: 6.00 Build 0)  -->
<!DOCTYPE svg PUBLIC "-//W3C//DTD SVG 1.1//EN" "http://www.w3.org/Graphics/SVG/1.1/DTD/svg11.dtd">
<svg version="1.1" id="Layer_1" xmlns="http://www.w3.org/2000/svg" xmlns:xlink="http://www.w3.org/1999/xlink" x="0px" y="0px"
	 viewBox="0 0 100 100" enable-background="new 0 0 100 100" xml:space="preserve">
<path d="M77.9,67.8c-7.4,0-8.9,5-13.8,7.1c0-0.5-0.1-1,0-1.6c0.2-7.4,6.5-13.2,13.8-13.2h15.6c1.5,0,2.4-1.8,1.3-2.9
	c-1.1-1.1-2.3-1.7-4.9-2.5c0,0,0-15.9-12.5-15.9c-4.4,0-8.5,1-12.2,2.9c-1.4-0.7-7-3-13.6-1.3c-1.2,0.3-1.3,1.9-0.2,2.4
	c2,1,4.1,2.9,4.2,6.9C52.1,54.4,50,60.1,50,66.3c0,2.1,0.2,4.1,0.7,6.1c-2.6-2.2-4.9-4.6-10-4.6c-9.3,0-9.3,8-18.6,8
	c-0.1,0-0.2,0-0.3,0c-0.4-1-0.6-2.2-0.6-3.4c0.1-4.9,4.3-8.8,9.2-8.8h10.4c1,0,1.6-1.2,0.9-1.9c-0.7-0.7-1.6-1.1-3.3-1.7
	c0,0,0-10.5-8.3-10.5c-2.9,0-5.7,0.7-8.1,1.9c-0.9-0.4-4.7-2-9-0.9c-0.8,0.2-0.9,1.3-0.2,1.6c1.4,0.6,2.8,1.9,2.8,4.6
	c-2.3,3.1-3.7,6.9-3.7,11c0,1.6,0.2,3.1,0.6,4.5c-3-2.1-5.8-4.4-10.8-4.4v24.4c0,3.4,2.7,6.1,6.1,6.1h84.2c3.4,0,6.1-2.7,6.1-6.1
	V75.8C88.9,75.8,87.2,67.8,77.9,67.8z M25.3,4c0-1.3-1-2.3-2.3-2.3s-2.3,1-2.3,2.3v5.1h4.7V4z M38.7,11.7c0.9-0.9,0.9-2.4,0-3.3
	c-0.9-0.9-2.4-0.9-3.3,0l-3.6,3.6l3.3,3.3L38.7,11.7z M31.8,33.6l3.6,3.6c0.9,0.9,2.4,0.9,3.3,0c0.9-0.9,0.9-2.4,0-3.3l-3.6-3.6
	L31.8,33.6z M36.6,25.2h5.1c1.3,0,2.3-1,2.3-2.3c0-1.3-1-2.3-2.3-2.3h-5.1V25.2z M4.1,25.2h5.1v-4.7H4.1c-1.3,0-2.3,1-2.3,2.3
	C1.8,24.1,2.8,25.2,4.1,25.2z M7.2,33.9c-0.9,0.9-0.9,2.4,0,3.3s2.4,0.9,3.3,0l3.6-3.6l-3.3-3.3L7.2,33.9z M23,34.3
	c6.3,0,11.5-5.1,11.5-11.5c0-6.3-5.1-11.5-11.5-11.5s-11.5,5.1-11.5,11.5C11.5,29.2,16.6,34.3,23,34.3z M10.8,15.4l3.3-3.3l-3.6-3.6
	c-0.9-0.9-2.4-0.9-3.3,0s-0.9,2.4,0,3.3L10.8,15.4z M20.6,41.7c0,1.3,1,2.3,2.3,2.3c1.3,0,2.3-1,2.3-2.3v-5.1h-4.7V41.7z"/>
</svg>
