<?xml version="1.0" encoding="utf-8"?>
<!-- Generator: Adobe Illustrator 18.0.0, SVG Export Plug-In . SVG Version: 6.00 Build 0)  -->
<!DOCTYPE svg PUBLIC "-//W3C//DTD SVG 1.1//EN" "http://www.w3.org/Graphics/SVG/1.1/DTD/svg11.dtd">
<svg version="1.1" id="Layer_1" xmlns="http://www.w3.org/2000/svg" xmlns:xlink="http://www.w3.org/1999/xlink" x="0px" y="0px"
	 viewBox="0 0 100 100" enable-background="new 0 0 100 100" xml:space="preserve">
<path d="M54.1,54L29.7,39.6c-6.5-3.8-14.8-2.8-20.2,2.6l-0.6,0.6C4.7,47,5.7,54.1,11,57c10,5.5,23,13.4,31.3,19.2
	c9.6,6.6,27.3,18.6,45.5,10.8c6.9-2.9,7.8-11.6,2.5-16.9C80.7,60.6,64.3,60.7,54.1,54z M35,48.4c-0.2,0.2-0.5,0.3-0.8,0.3
	c-0.2,0-0.5-0.1-0.7-0.2c-0.1-0.1-11.8-10.2-18.9-3.1c-0.4,0.4-1,0.4-1.4,0s-0.4-1,0-1.4c8.4-8.4,21.5,2.9,21.6,3
	C35.4,47.3,35.4,48,35,48.4z M78.2,79.1c-0.6,0-1-0.4-1-1c0-2.4-2.8-3.1-3.3-3.2c-32.6,0-35.3-6.3-35.5-7.6
	c-0.1-0.5,0.3-1.1,0.8-1.1c0.5-0.1,1,0.2,1.1,0.8c0.1,0.2,2.8,5.7,31.8,6c-2.6-3.7-10.4-13.2-24-13.2c-0.6,0-1-0.4-1-1s0.4-1,1-1
	c16.4,0,25,12.9,26.5,15.4c1.8,0.5,4.6,2,4.6,5.1C79.2,78.6,78.7,79.1,78.2,79.1z M11,23.7c7,3.8,15.4,8.9,22.7,13.5l22.6,13.3
	l0.1,0.1c3.2,2.1,7.4,3.6,11.8,4.9c6.2,1.3,12.9,1.1,19.6-1.8c6.9-2.9,7.8-11.6,2.5-16.9c-9.5-9.5-26-9.5-36.1-16.2L29.7,6.3
	C23.2,2.4,14.9,3.5,9.6,8.8L8.9,9.5C4.7,13.7,5.7,20.8,11,23.7z M39.2,32.8c0.5-0.1,1,0.2,1.1,0.8c0.1,0.2,2.8,5.7,31.8,6
	c-2.6-3.7-10.4-13.2-24-13.2c-0.6,0-1-0.4-1-1s0.4-1,1-1c16.4,0,25,12.9,26.5,15.4c1.8,0.5,4.6,2,4.6,5.1c0,0.6-0.4,1-1,1
	s-1-0.4-1-1c0-2.4-2.9-3.1-3.3-3.2c-32.6,0-35.3-6.3-35.5-7.6C38.3,33.4,38.6,32.9,39.2,32.8z M13.3,10.5c8.4-8.4,21.5,2.9,21.6,3
	c0.4,0.4,0.5,1,0.1,1.4c-0.2,0.2-0.5,0.3-0.8,0.3c-0.2,0-0.5-0.1-0.7-0.2c-0.1-0.1-11.8-10.2-18.9-3.1c-0.4,0.4-1,0.4-1.4,0
	S12.9,10.9,13.3,10.5z M89.1,56.7c-3,1.3-6.1,2.1-9.4,2.5c1.7,0.6,3.4,1.4,5.1,2.2c1.5-0.4,2.9-0.9,4.3-1.5c4-1.7,6.8-5.1,7.6-9.3
	c0.3-1.4,0.3-2.8,0.1-4.2c0,0.3-0.1,0.6-0.1,0.9C95.9,51.6,93.1,55,89.1,56.7z M9.4,29.8c2.3,1.3,4.7,2.6,7.2,4.1
	c1.5-0.3,3-0.5,4.5-0.6c-4-2.4-8-4.7-11.7-6.8c-3.4-1.9-5.7-5.1-6.2-9c0,0,0-0.1,0-0.1c-0.1,1.1-0.2,2.2,0,3.3
	C3.7,24.6,6,27.9,9.4,29.8z M96.7,80.7c-0.8,4.2-3.6,7.6-7.6,9.3c-4.4,1.9-9,2.8-13.7,2.8c-14.8,0-27.9-9.1-34.9-13.9
	c-8.1-5.6-20.8-13.4-31.1-19.1c-3.4-1.9-5.7-5.1-6.2-9c0,0,0-0.1,0-0.1c-0.1,1.1-0.2,2.2,0,3.3c0.5,3.8,2.8,7.1,6.2,9
	c10.2,5.6,23,13.5,31.1,19.1C47.5,87,60.6,96,75.4,96c4.8,0,9.4-0.9,13.7-2.8c4-1.7,6.8-5.1,7.6-9.3c0.3-1.4,0.3-2.8,0.1-4.2
	C96.8,80.1,96.7,80.4,96.7,80.7z"/>
</svg>
