<?xml version="1.0" encoding="utf-8"?>
<!-- Generator: Adobe Illustrator 18.0.0, SVG Export Plug-In . SVG Version: 6.00 Build 0)  -->
<!DOCTYPE svg PUBLIC "-//W3C//DTD SVG 1.1//EN" "http://www.w3.org/Graphics/SVG/1.1/DTD/svg11.dtd">
<svg version="1.1" id="Layer_1" xmlns="http://www.w3.org/2000/svg" xmlns:xlink="http://www.w3.org/1999/xlink" x="0px" y="0px"
	 viewBox="0 0 100 100" enable-background="new 0 0 100 100" xml:space="preserve">
<path d="M67.3,45c0-12.6-3-20.5-15.7-20.5c-12.5,0-15.6,6.6-15.7,16.5H6.2c-3.3,0-5.6,3.8-4.5,7.4c3.1,10.2,10.8,27.2,26.5,27.2
	c22.4,0,45.7-22.2,69.3-22.2C97.5,53.3,83.4,48.6,67.3,45z M40.3,39.9c0.7,0,16.8-0.9,23.2,2.2c0.5,0.2,0.7,0.8,0.5,1.3
	c-0.2,0.4-0.5,0.6-0.9,0.6c-0.1,0-0.3,0-0.4-0.1c-6-2.9-22.1-2-22.3-2c-0.6,0-1-0.4-1.1-0.9C39.3,40.4,39.7,40,40.3,39.9z
	 M78.8,53.3c-4.5,0-10.9,3.1-18.4,6.7C50.3,65,38.7,70.6,27.3,70.6c-7.4,0-12.8-5.9-16.1-10.9c-3.6-5.5-5.5-11.3-5.5-12.7
	c0-0.6,0.4-1,1-1s1,0.4,1,1c0,2,7.3,21.6,19.6,21.6c11,0,22.3-5.5,32.3-10.3c7.6-3.7,14.2-6.9,19.2-6.9c0.6,0,1,0.4,1,1
	S79.3,53.3,78.8,53.3z M62.8,67.4c-2.3,1.1-4.7,2.2-7,3.3c2.8,2,8.3,4.9,16.8,4.9c11.6,0,26.2-11.8,26-19.3
	C87.3,56.5,74,62,62.8,67.4z M90.9,61.8c-7,7.7-13.7,9.2-18.1,9.2c-2.9,0-4.7-0.7-4.9-0.7c-0.5-0.2-0.8-0.8-0.6-1.3
	c0.2-0.5,0.8-0.8,1.3-0.6c0.4,0.2,10.1,3.7,20.7-8c0.4-0.4,1-0.4,1.4-0.1C91.2,60.8,91.3,61.4,90.9,61.8z"/>
</svg>
