<?xml version="1.0" encoding="utf-8"?>
<!-- Generator: Adobe Illustrator 18.0.0, SVG Export Plug-In . SVG Version: 6.00 Build 0)  -->
<!DOCTYPE svg PUBLIC "-//W3C//DTD SVG 1.1//EN" "http://www.w3.org/Graphics/SVG/1.1/DTD/svg11.dtd">
<svg version="1.1" id="Layer_1" xmlns="http://www.w3.org/2000/svg" xmlns:xlink="http://www.w3.org/1999/xlink" x="0px" y="0px"
	 viewBox="0 0 100 100" enable-background="new 0 0 100 100" xml:space="preserve">
<path d="M72.3,39.6c-0.2,2-0.7,4-1.4,5.8c3.5,0.4,10.8,0,18.4-8.5c0.4-0.4,1-0.4,1.4-0.1c0.4,0.4,0.4,1,0.1,1.4
	c-7,7.6-13.7,9.2-18.1,9.2c-1,0-2-0.1-2.7-0.2c-0.8,1.6-1.7,3-2.8,4.3c1.6,0.2,3.3,0.4,5.2,0.4c11.6,0,26.2-11.8,26-19.3
	C90.3,33,81.1,35.9,72.3,39.6z M37.4,50.9c0.4,0.4,0.9,0.8,1.4,1.2h0c0,0-0.8,3.3-2.6,4.6c2.6,2.8,2.5,8.8,2.1,12.2
	c0.6-0.1,1.3,0.1,1.8,0.7c1.2,1.4,3,3.5,4.4,6c1.4,2.4,2.2,4.7,2.8,6.3h5.6c0.5-1.6,1.4-3.9,2.8-6.3c1.4-2.5,3.2-4.6,4.4-6
	c0.5-0.5,1.1-0.7,1.7-0.7c-0.4-3.4-0.7-9.2,2.2-12.2c-1.8-1.3-2.6-4.6-2.6-4.6h0c4.2-3.3,7-8.3,7.2-14c9.6-4.4,19.3-8.2,29.1-8.2
	c0,0-14-4.7-30.2-8.4C67.2,8.9,64.2,1,51.6,1C39.1,1,36,7.6,35.9,17.5H6.2c-3.3,0-5.6,3.8-4.5,7.4C4.8,35,12.5,52.1,28.2,52.1
	C31.2,52.1,34.3,51.7,37.4,50.9z M40.3,16.5c0.7,0,16.8-0.9,23.2,2.2c0.5,0.2,0.7,0.8,0.5,1.3c-0.2,0.4-0.5,0.6-0.9,0.6
	c-0.1,0-0.3,0-0.4-0.1c-6-2.9-22.1-2-22.3-2c-0.6,0-1-0.4-1.1-0.9C39.3,17,39.7,16.5,40.3,16.5z M11.2,36.2
	c-3.6-5.5-5.5-11.3-5.5-12.7c0-0.6,0.4-1,1-1s1,0.4,1,1c0,2,7.3,21.6,19.6,21.6c11,0,22.3-5.5,32.3-10.3c7.6-3.7,14.2-6.9,19.2-6.9
	c0.6,0,1,0.4,1,1s-0.4,1-1,1c-4.5,0-10.9,3.1-18.4,6.7c-10.2,4.9-21.7,10.5-33.1,10.5C19.9,47.1,14.5,41.2,11.2,36.2z M29.7,82.1
	c0.5-1.6,1.4-4,2.8-6.5c1.1-1.9,2.4-3.6,3.5-4.9c0.5-3.1,1.1-10.3-1.4-12.7c-0.1-0.1-0.2-0.3-0.3-0.5C27.8,62.2,23.5,71.1,23,79.7h0
	V99h7.7c0,0,0-5.7,0-10.4c0-2.6,0.8-3.4,1.4-3.7c-0.3-0.1-0.5-0.1-0.8-0.2C30,84.4,29.4,83.2,29.7,82.1z M54.2,84.7
	c-0.5-0.1-1-0.5-1.2-0.9h-6c-0.3,0.4-0.7,0.7-1.2,0.9c-1.5,0.4-3.9,0.7-7.3,0.7c-2.5,0-4.5-0.2-6-0.5V99h34.9V85
	c-1.5,0.3-3.4,0.5-5.9,0.5C58.1,85.4,55.7,85,54.2,84.7z M65.6,57.4c0,0.2-0.1,0.4-0.3,0.5c-2.7,2.7-2,9.8-1.4,12.7
	c1.1,1.3,2.4,3,3.5,4.9c1.4,2.5,2.3,4.9,2.8,6.5c0.4,1.1-0.3,2.3-1.5,2.6c-0.2,0.1-0.5,0.1-0.8,0.2c0.6,0.3,1.4,1.2,1.4,3.7
	c0,4.7,0,10.4,0,10.4h7.7V79.7h0C76.5,71.1,72.2,62.2,65.6,57.4z M68.2,81.2c-0.4-1.3-1.1-3.3-2.3-5.3c-1.2-2-2.6-3.7-3.6-4.8
	c-0.4-0.4-1-0.5-1.4-0.1c-0.4,0.4-0.5,1-0.1,1.4c0.9,1,2.2,2.7,3.3,4.5c1.1,1.9,1.8,3.7,2.1,4.9c0.1,0.4,0.5,0.7,1,0.7
	c0.1,0,0.2,0,0.3,0C68.1,82.3,68.4,81.7,68.2,81.2z M39.1,71.1c-0.4-0.4-1-0.5-1.4-0.1c-0.4,0.4-0.5,1-0.1,1.4
	c0.9,1,2.2,2.7,3.3,4.5c1.1,1.9,1.8,3.7,2.1,4.9c0.1,0.4,0.5,0.7,1,0.7c0.1,0,0.2,0,0.3,0c0.5-0.2,0.8-0.7,0.7-1.3
	c-0.4-1.3-1.1-3.3-2.3-5.3C41.5,73.9,40.1,72.2,39.1,71.1z"/>
</svg>
