<?xml version="1.0" encoding="utf-8"?>
<!-- Generator: Adobe Illustrator 18.0.0, SVG Export Plug-In . SVG Version: 6.00 Build 0)  -->
<!DOCTYPE svg PUBLIC "-//W3C//DTD SVG 1.1//EN" "http://www.w3.org/Graphics/SVG/1.1/DTD/svg11.dtd">
<svg version="1.1" id="Layer_1" xmlns="http://www.w3.org/2000/svg" xmlns:xlink="http://www.w3.org/1999/xlink" x="0px" y="0px"
	 viewBox="0 0 100 100" enable-background="new 0 0 100 100" xml:space="preserve">
<path d="M41.8,28.1c0,0-11.2,11.9-11.2,40.6v24.4c0,3,2.4,5.4,5.4,5.4h27.9c3,0,5.4-2.4,5.4-5.4V68.7c0-28.7-11.2-40.6-11.2-40.6
	H41.8z M45.1,34.5c-3.8,3.8-8,18.2-8,34.8c0,0.6-0.4,1-1,1s-1-0.4-1-1c0-17.3,4.3-32,8.5-36.2c0.4-0.4,1-0.4,1.4,0
	S45.4,34.1,45.1,34.5z M66.5,1.4H49.2c-1.6,0-2.9,1.3-2.9,2.9v0h0c0,0.1,0,0.1,0,0.2v7.6h-1.9c-1.4,0-2.6,1.2-2.6,2.6v9.3h16.5v-9.3
	c0-1.4-1.2-2.6-2.6-2.6h-1.9V4.6c0-0.1,0-0.1,0-0.2h15.7v0C69.4,2.8,68.1,1.4,66.5,1.4z M65.4,14.8v0.4c0,1.1,0.9,2,2,2s2-0.9,2-2
	v-0.4c0-3.6-2-7-2-7S65.4,11.2,65.4,14.8z M65.4,27.6v0.4c0,1.1,0.9,2,2,2s2-0.9,2-2v-0.4c0-3.6-2-7-2-7S65.4,24,65.4,27.6z"/>
</svg>
