<?xml version="1.0" encoding="utf-8"?>
<!-- Generator: Adobe Illustrator 18.0.0, SVG Export Plug-In . SVG Version: 6.00 Build 0)  -->
<!DOCTYPE svg PUBLIC "-//W3C//DTD SVG 1.1//EN" "http://www.w3.org/Graphics/SVG/1.1/DTD/svg11.dtd">
<svg version="1.1" id="Layer_1" xmlns="http://www.w3.org/2000/svg" xmlns:xlink="http://www.w3.org/1999/xlink" x="0px" y="0px"
	 viewBox="0 0 100 100" enable-background="new 0 0 100 100" xml:space="preserve">
<path d="M76.3,98.6c0,0-1.8-2.8-9-2.8c-5.4,0-6-2.5-11.1-3.8c1.1-10.4,4.9-31,17.5-46.3c-0.7,1.8-1.2,3.9-1.2,6.1
	c0,6.1,3.9,11.1,3.9,11.1s3.9-5,3.9-11.1c0-0.7-0.1-1.4-0.2-2.1c0.4,0.6,0.9,1.1,1.4,1.6c4.3,4.3,10.6,5.1,10.6,5.1
	s-0.8-6.3-5.1-10.6c-0.5-0.5-0.9-0.9-1.4-1.2c0.5,0.1,1.1,0.1,1.6,0.1c6.1,0,11.1-3.9,11.1-3.9s-5-3.9-11.1-3.9
	c-0.6,0-1.2,0-1.7,0.1c0.5-0.4,1.1-0.9,1.6-1.3c4.3-4.3,5.1-10.6,5.1-10.6s-6.3,0.8-10.6,5.1c-0.6,0.6-1.2,1.3-1.7,2
	c0.1-0.8,0.2-1.6,0.2-2.5c0-6.1-3.9-11.1-3.9-11.1s-3.9,5-3.9,11.1c0,0.7,0.1,1.4,0.1,2c-0.4-0.5-0.8-1-1.3-1.5
	c-4.3-4.3-10.6-5.1-10.6-5.1s0.8,6.3,5.1,10.6c0.5,0.5,1.1,1,1.6,1.4c-0.7-0.1-1.4-0.2-2.2-0.2c-6.1,0-11.1,3.9-11.1,3.9
	s5,3.9,11.1,3.9c2.6,0,4.9-0.7,6.8-1.5C61,55.9,56.3,72.2,54.3,83.8c-0.4-3.6-0.9-7.6-1.7-11.9c-2.9-16-7.9-28.8-14.9-38.4
	c2.1,0.7,4.5,1.2,7,1.2c7.9,0,14.3-5,14.3-5s-6.4-5-14.3-5c-0.9,0-1.8,0.1-2.7,0.2c0.7-0.5,1.4-1.1,2.1-1.8
	c5.6-5.6,6.6-13.7,6.6-13.7s-8.1,1-13.7,6.6c-0.6,0.6-1.1,1.2-1.6,1.8c0.1-0.7,0.1-1.4,0.1-2.1c0-7.9-5-14.3-5-14.3s-5,6.4-5,14.3
	c0,0.8,0.1,1.5,0.1,2.3c-0.5-0.7-1.1-1.4-1.7-2c-5.6-5.6-13.7-6.6-13.7-6.6s1,8.1,6.6,13.7c0.8,0.8,1.7,1.5,2.6,2.1
	c-1-0.2-2.1-0.3-3.2-0.3c-7.9,0-14.3,5-14.3,5s6.4,5,14.3,5c0.9,0,1.8-0.1,2.6-0.2c-0.7,0.5-1.3,1.1-2,1.7
	c-5.6,5.6-6.6,13.7-6.6,13.7s8.1-1,13.7-6.6c0.7-0.7,1.3-1.4,1.8-2.1c-0.1,0.9-0.2,1.9-0.2,2.8c0,7.9,5,14.3,5,14.3s5-6.4,5-14.3
	c0-2.6-0.5-5-1.2-7c12,17.2,14.9,41.9,15.6,54c-0.3,0-0.5,0-0.8,0c-12.4,0-14.7,7.3-14.7,7.3H76.3z M76.4,40.5c0,0-0.1,0.1-0.1,0.1
	c0-0.1,0.1-0.1,0.1-0.2C76.4,40.5,76.4,40.5,76.4,40.5z M80.1,89.6c-2.4,2.4-2.7,5.9-0.8,7.8c1.9,1.9,5.4,1.6,7.8-0.8
	c2.4-2.4,2.7-5.9,0.8-7.8S82.4,87.2,80.1,89.6z"/>
</svg>
