<?xml version="1.0" encoding="utf-8"?>
<!-- Generator: Adobe Illustrator 18.0.0, SVG Export Plug-In . SVG Version: 6.00 Build 0)  -->
<!DOCTYPE svg PUBLIC "-//W3C//DTD SVG 1.1//EN" "http://www.w3.org/Graphics/SVG/1.1/DTD/svg11.dtd">
<svg version="1.1" id="Layer_1" xmlns="http://www.w3.org/2000/svg" xmlns:xlink="http://www.w3.org/1999/xlink" x="0px" y="0px"
	 viewBox="0 0 100 100" enable-background="new 0 0 100 100" xml:space="preserve">
<path d="M6.4,79.2c0.7-0.2,1.3-0.3,1.7-0.4c4-0.8,9.2-1.3,15.2-1.5V46.7c0-2.8,2.3-5.1,5.1-5.1h13.4l0.5-4.9
	c0-0.5,0.1-10.8-6.8-17.8c-3.4-3.5-8-5.3-13.5-5.3c-5.5,0-10,1.8-13.5,5.3C1.9,25.9,2,36.2,2,36.7L6.4,79.2z M10.6,73.7
	c0,0-0.1,0-0.1,0c-0.5,0-0.9-0.4-1-0.9L6.4,42.4c-0.1-0.5,0.3-1,0.9-1.1c0.6-0.1,1,0.3,1.1,0.9l3.2,30.4
	C11.6,73.2,11.2,73.7,10.6,73.7z M11.6,21.8c2.7-2.7,6.2-4.1,10.6-4.1c4.4,0,7.9,1.4,10.6,4.1c4.7,4.7,5.5,12.3,5.7,15H6
	C6.1,34.1,6.9,26.5,11.6,21.8z M89.6,78.7c0-0.1,0.1-0.2,0.1-0.3l4.1-14.2l-5.4-1.6l9.5-32.8c0.5-1.7-0.5-3.4-2.1-3.9
	c-1.7-0.5-3.4,0.5-3.9,2.1l-9.5,32.8l-5.4-1.5V77c2.1,0.8,4.3,1.4,7.3,1.4C86.3,78.4,88,78.5,89.6,78.7z M84.4,82.4
	c-4.9,0-8.3-1.4-11.3-2.8V37.8l-10.1-9.6l-9.6,9.6v37.4c0,1-0.8,1.8-1.8,1.8s-1.8-0.8-1.8-1.8V46.7c0-0.6-0.5-1.1-1.1-1.1h-2.6
	c-0.6,0-1.1,0.5-1.1,1.1v2.9h-4v-2.9c0-0.6-0.5-1.1-1.1-1.1h-2.4c-0.6,0-1.1,0.5-1.1,1.1v2.9h-4v-2.9c0-0.6-0.5-1.1-1.1-1.1h-2.6
	c-0.6,0-1.1,0.5-1.1,1.1v34.6C12,81.4,2,83.5,2,86.3h96C98,86.3,94.8,82.4,84.4,82.4z"/>
</svg>
