<?xml version="1.0" encoding="utf-8"?>
<!-- Generator: Adobe Illustrator 18.0.0, SVG Export Plug-In . SVG Version: 6.00 Build 0)  -->
<!DOCTYPE svg PUBLIC "-//W3C//DTD SVG 1.1//EN" "http://www.w3.org/Graphics/SVG/1.1/DTD/svg11.dtd">
<svg version="1.1" id="Layer_1" xmlns="http://www.w3.org/2000/svg" xmlns:xlink="http://www.w3.org/1999/xlink" x="0px" y="0px"
	 viewBox="0 0 100 100" enable-background="new 0 0 100 100" xml:space="preserve">
<path d="M81.6,38.6C72,29,57.5,27.4,46.3,33.6L40.8,39c-6.4,6.4-7,17.4-1.1,24.2c6.5,7.4,17.8,7.9,24.9,1.3
	c3.4-3.1,4.1-8.2,1.3-11.9c-3.2-4.2-9.2-4.5-12.9-1.1c-1.1,1-1.4,2.8-0.5,4c0.9,1.3,2.6,1.6,3.8,0.9c0.5-0.2,1-0.2,1.4,0.2
	c0.5,0.5,0.4,1.4-0.2,1.8c-2.3,1.3-5.3,0.7-6.9-1.6c-1.6-2.2-1-5.2,1-7.1c4.6-4.1,11.8-3.7,15.9,1.3c3.7,4.6,2.7,11.5-1.7,15.4
	C58,73.4,45.9,73,38.6,65.3c-7.4-7.8-6.9-20.2,0.7-27.9l4.5-4.5c3.5-7.5,1.2-16.5-8-25.7L22.1,20.9C5.6,37.3,5.6,64,22.1,80.4
	c16.4,16.4,43.1,16.4,59.5,0C93.1,68.9,93.1,50.1,81.6,38.6z M44.3,44.4c-2.9,2.9-3.7,7.4-2,11.5c0.2,0.4,0,1-0.5,1.1
	c-0.1,0-0.2,0.1-0.3,0.1c-0.3,0-0.7-0.2-0.8-0.5c-1.9-4.8-1-10,2.4-13.4c0.3-0.3,0.9-0.3,1.2,0C44.6,43.6,44.6,44.1,44.3,44.4z
	 M25.6,26c-9.8,9.8-12.5,25.1-6.9,38.9c0.2,0.4,0,1-0.5,1.1c-0.1,0-0.2,0.1-0.3,0.1c-0.3,0-0.7-0.2-0.8-0.5
	c-5.9-14.5-3-30.5,7.3-40.8c0.3-0.3,0.9-0.3,1.2,0C26,25.1,26,25.7,25.6,26z"/>
</svg>
