<?xml version="1.0" encoding="utf-8"?>
<!-- Generator: Adobe Illustrator 18.0.0, SVG Export Plug-In . SVG Version: 6.00 Build 0)  -->
<!DOCTYPE svg PUBLIC "-//W3C//DTD SVG 1.1//EN" "http://www.w3.org/Graphics/SVG/1.1/DTD/svg11.dtd">
<svg version="1.1" id="Layer_1" xmlns="http://www.w3.org/2000/svg" xmlns:xlink="http://www.w3.org/1999/xlink" x="0px" y="0px"
	 viewBox="0 0 100 100" enable-background="new 0 0 100 100" xml:space="preserve">
<path d="M69.7,55.8c5.8,0.9,11.9,0.6,18.2-2.1c6.9-2.9,7.8-11.6,2.5-16.9c-2.9-2.9-6.5-4.9-10.3-6.5c-9.2-0.5-18.5,11.1-22.5,21
	c1.1,0.6,2.2,1.2,3.5,1.7C63.9,52.6,66.8,53.4,69.7,55.8z M9.6,42.1l-0.6,0.6C4.7,47,5.7,54.1,11,57c9.1,5,20.9,12.2,29.2,17.8
	c2.8-7.4,8.8-16.1,15.5-19.9c-0.5-0.3-1-0.6-1.5-0.9L29.7,39.6C23.2,35.7,14.9,36.8,9.6,42.1z M35,48.4c-0.2,0.2-0.5,0.3-0.8,0.3
	c-0.2,0-0.5-0.1-0.7-0.2c-0.1-0.1-11.8-10.2-18.9-3.1c-0.4,0.4-1,0.4-1.4,0s-0.4-1,0-1.4c8.4-8.4,21.5,2.9,21.6,3
	C35.4,47.3,35.4,48,35,48.4z M89.1,56.7c-3,1.3-6.1,2.1-9.4,2.5c1.7,0.6,3.4,1.4,5.1,2.2c1.5-0.4,2.9-0.9,4.3-1.5
	c4-1.7,6.8-5.1,7.6-9.3c0.3-1.4,0.3-2.8,0.1-4.2c0,0.3-0.1,0.6-0.1,0.9C95.9,51.6,93.1,55,89.1,56.7z M87.8,87
	c6.9-2.9,7.8-11.6,2.5-16.9c-3-3-6.7-5.1-10.7-6.7c-9.2-0.2-18.6,11.9-22.4,21.7C66.1,89.3,76.9,91.7,87.8,87z M96.7,80.7
	c-0.8,4.2-3.6,7.6-7.6,9.3c-4.4,1.9-9,2.8-13.7,2.8c-14.8,0-27.9-9.1-34.9-13.9c-8.1-5.6-20.8-13.4-31.1-19.1
	c-3.4-1.9-5.7-5.1-6.2-9c0,0,0-0.1,0-0.1c-0.1,1.1-0.2,2.2,0,3.3c0.5,3.8,2.8,7.1,6.2,9c10.2,5.6,23,13.5,31.1,19.1
	C47.5,87,60.6,96,75.3,96c4.8,0,9.4-0.9,13.7-2.8c4-1.7,6.8-5.1,7.6-9.3c0.3-1.4,0.3-2.8,0.1-4.2C96.8,80.1,96.7,80.4,96.7,80.7z
	 M9.4,29.8c2.3,1.3,4.7,2.6,7.2,4.1c1.5-0.3,3-0.5,4.5-0.6c-4-2.4-8-4.7-11.7-6.8c-3.4-1.9-5.7-5.1-6.2-9c0,0,0-0.1,0-0.1
	c-0.1,1.1-0.2,2.2,0,3.3C3.7,24.6,6,27.9,9.4,29.8z M11,23.7c7,3.8,15.4,8.9,22.7,13.5l6.6,3.9c2.9-7.3,8.8-15.8,15.5-19.5
	c-0.6-0.3-1.1-0.6-1.6-1L29.7,6.3C23.2,2.4,14.9,3.5,9.6,8.8L8.9,9.5C4.7,13.7,5.7,20.8,11,23.7z M13.3,10.5
	c8.4-8.4,21.5,2.9,21.6,3c0.4,0.4,0.5,1,0.1,1.4c-0.2,0.2-0.5,0.3-0.8,0.3c-0.2,0-0.5-0.1-0.7-0.2c-0.1-0.1-11.8-10.2-18.9-3.1
	c-0.4,0.4-1,0.4-1.4,0S12.9,10.9,13.3,10.5z"/>
</svg>
