<?xml version="1.0" encoding="utf-8"?>
<!-- Generator: Adobe Illustrator 18.0.0, SVG Export Plug-In . SVG Version: 6.00 Build 0)  -->
<!DOCTYPE svg PUBLIC "-//W3C//DTD SVG 1.1//EN" "http://www.w3.org/Graphics/SVG/1.1/DTD/svg11.dtd">
<svg version="1.1" id="Layer_1" xmlns="http://www.w3.org/2000/svg" xmlns:xlink="http://www.w3.org/1999/xlink" x="0px" y="0px"
	 viewBox="0 0 100 100" enable-background="new 0 0 100 100" xml:space="preserve">
<path d="M38.7,11.7c0.9-0.9,0.9-2.4,0-3.3c-0.9-0.9-2.4-0.9-3.3,0l-3.6,3.6l3.3,3.3L38.7,11.7z M25.3,4c0-1.3-1-2.3-2.3-2.3
	s-2.3,1-2.3,2.3v5.1h4.7V4z M23,34.3c6.3,0,11.5-5.1,11.5-11.5c0-6.3-5.1-11.5-11.5-11.5s-11.5,5.1-11.5,11.5
	C11.5,29.2,16.6,34.3,23,34.3z M31.8,33.6l3.6,3.6c0.9,0.9,2.4,0.9,3.3,0c0.9-0.9,0.9-2.4,0-3.3l-3.6-3.6L31.8,33.6z M4.1,25.2h5.1
	v-4.7H4.1c-1.3,0-2.3,1-2.3,2.3v0C1.8,24.1,2.8,25.2,4.1,25.2z M36.6,25.2h5.1c1.3,0,2.3-1,2.3-2.3v0c0-1.3-1-2.3-2.3-2.3h-5.1V25.2
	z M10.8,15.4l3.3-3.3l-3.6-3.6c-0.9-0.9-2.4-0.9-3.3,0c-0.9,0.9-0.9,2.4,0,3.3L10.8,15.4z M7.2,33.9c-0.9,0.9-0.9,2.4,0,3.3
	c0.9,0.9,2.4,0.9,3.3,0l3.6-3.6l-3.3-3.3L7.2,33.9z M20.6,41.7c0,1.3,1,2.3,2.3,2.3s2.3-1,2.3-2.3v-5.1h-4.7V41.7z M77.9,47.8
	c-9.3,0-9.3,8-18.6,8c-9.3,0-9.3-8-18.6-8c-9.3,0-9.3,8-18.6,8c-9.3,0-11-8-20.3-8v44.4c0,3.4,2.7,6.1,6.1,6.1h84.2
	c3.4,0,6.1-2.7,6.1-6.1V55.8C88.9,55.8,87.2,47.8,77.9,47.8z M15.6,65.1c1-1,2.4-0.6,3.1-0.4L43,68.3c-0.8,0.8-1.4,1.6-1.8,2.6
	l-0.1,0.4l-22.6-3.6c-0.3,0-0.5-0.1-0.8-0.1c-1,0-2,0.3-2.8,0.8c-0.1,0.1-0.2,0.2-0.3,0.2l-7.4,7.4l-0.7-1.8L15.6,65.1z M93.6,76.3
	c0,1.9-1.6,3.5-3.5,3.5h-6.5v0c0,0-0.1,0-0.1,0c-3.1,0.3-5.9-1.6-6.8-4.4h-0.2c-2.3,0-3.4,0.4-4.1,1.2c-0.2,0.4-0.3,0.7-0.6,1
	c0,0,0,0,0,0.1c-2.2,3.6-7.1,6.1-12.7,6.1c-3.3,0-8.2-1.4-10.5-3l4.3-2.3c1.2,0.5,4,1.3,6.2,1.3c2,0,3.9-0.4,5.4-1.1
	c-0.3-0.3-0.5-0.6-0.7-0.9l0,0l-12.1-0.7l-0.5,0.4c0,0-3.8,2.5-8.4,2.5c-3.7,0-21-4.9-25-6l-3.5,8.8l-3.7,0.3
	c-1.2,0.1-2.3-0.6-2.8-1.7l-0.9-2.1l3.9-3.9c0,0,0,0,0,0l0,0l4.8-4.8c0.2-0.2,0.3-0.3,0.5-0.4l0,0c1.3-1.3,3.4-0.3,3.4-0.3l22.9,3.7
	l0.7-1.8c1.3-3.2,5.5-4.7,8.8-3.6c2.4,0.8,5.4,1.5,9.1,1.5h24.7c2.1,0,3.9,1.7,3.8,3.8c0,0,0,0.1,0,0.1c-0.1,1.6-0.8,3.1-1.8,4.2
	h2.5c0.8,0,1.5-0.7,1.5-1.5V63.1h2V76.3z"/>
</svg>
