<?xml version="1.0" encoding="utf-8"?>
<!-- Generator: Adobe Illustrator 18.0.0, SVG Export Plug-In . SVG Version: 6.00 Build 0)  -->
<!DOCTYPE svg PUBLIC "-//W3C//DTD SVG 1.1//EN" "http://www.w3.org/Graphics/SVG/1.1/DTD/svg11.dtd">
<svg version="1.1" id="Layer_1" xmlns="http://www.w3.org/2000/svg" xmlns:xlink="http://www.w3.org/1999/xlink" x="0px" y="0px"
	 viewBox="0 0 100 100" enable-background="new 0 0 100 100" xml:space="preserve">
<path d="M88.2,26.3H87c2.7,2.6,4.4,6.2,4.4,10.2v40.7c0,4-1.7,7.6-4.4,10.2h1.2c5.5,0,10-4.5,10-10v-41
	C98.2,30.8,93.7,26.3,88.2,26.3z M87.4,36.3c0-5.5-4.5-10-10-10H11.8c-5.5,0-10,4.5-10,10v41c0,5.5,4.5,10,10,10h65.6
	c5.5,0,10-4.5,10-10V36.3z M43.2,19.2c0-1.4,1.1-2.5,2.5-2.5h8.7c1.4,0,2.5,1.1,2.5,2.5v3.4h4v-3.4c0-3.6-2.9-6.5-6.5-6.5h-8.7
	c-3.6,0-6.5,2.9-6.5,6.5v3.4h4V19.2z"/>
</svg>
