<?xml version="1.0" encoding="utf-8"?>
<!-- Generator: Adobe Illustrator 18.0.0, SVG Export Plug-In . SVG Version: 6.00 Build 0)  -->
<!DOCTYPE svg PUBLIC "-//W3C//DTD SVG 1.1//EN" "http://www.w3.org/Graphics/SVG/1.1/DTD/svg11.dtd">
<svg version="1.1" id="Layer_1" xmlns="http://www.w3.org/2000/svg" xmlns:xlink="http://www.w3.org/1999/xlink" x="0px" y="0px"
	 viewBox="0 0 100 100" enable-background="new 0 0 100 100" xml:space="preserve">
<path d="M72.5,17h-1.2c-8.3,0-15.1,6.8-15.1,15.1c0,1.7,1.3,3,3,3s3-1.3,3-3c0-4.2,2.9-9,8-9.6l20.4,20.5h-81l20.4-20.5
	c5,0.6,8,5.4,8,9.6c0,1.7,1.3,3,3,3s3-1.3,3-3c0-8.3-6.8-15.1-15.1-15.1h-1.2L1.8,43.1v14.3h6.1v7.9c0,9.7,8.3,17.6,17.3,17.6
	s17.3-7.9,17.3-17.6v-7.9h0c0-4.1,1.9-6.9,7.6-6.9c5,0,7.3,2.5,7.6,6.1v8.7c0,9.7,8.3,17.6,17.3,17.6s17.3-7.9,17.3-17.6v-7.9l6.1,0
	V43.1L72.5,17z M35.2,64.5c0,8-4.4,13.3-11,13.3c-0.6,0-1-0.4-1-1s0.4-1,1-1c5.4,0,9-4.6,9-11.3v-3.8c0-0.6,0.4-1,1-1s1,0.4,1,1
	V64.5z M86.8,64.5c0,8-4.4,13.3-11,13.3c-0.6,0-1-0.4-1-1s0.4-1,1-1c5.4,0,9-4.6,9-11.3v-3.8c0-0.6,0.4-1,1-1s1,0.4,1,1V64.5z"/>
</svg>
