<?xml version="1.0" encoding="utf-8"?>
<!-- Generator: Adobe Illustrator 18.0.0, SVG Export Plug-In . SVG Version: 6.00 Build 0)  -->
<!DOCTYPE svg PUBLIC "-//W3C//DTD SVG 1.1//EN" "http://www.w3.org/Graphics/SVG/1.1/DTD/svg11.dtd">
<svg version="1.1" id="Layer_1" xmlns="http://www.w3.org/2000/svg" xmlns:xlink="http://www.w3.org/1999/xlink" x="0px" y="0px"
	 viewBox="0 0 100 100" enable-background="new 0 0 100 100" xml:space="preserve">
<path d="M12.2,61.6c3.6,1.5,11.3,2.2,21.1,2.5c2.8-0.9,5.7-1.4,8.6-1.4c5.9,0,11.1,0.6,15.8,1.5c14.6-0.2,26.3-0.8,30.1-3.2
	c0.9-0.5,0.5-1.9-0.5-1.9H60.8v0c0-1.5-1.2-2.7-2.7-2.7h-2.3l9.9-9.1c1-1,1-2.7,0-3.8l-8.8-10.8c-0.1-0.1-0.1-0.2-0.2-0.2l6.7-5.3
	l0,0c1.6,0.4,3.3-0.1,4.6-1.3c1.9-1.9,1.9-5,0-7l3.6-3.6c0.2,0,0.3,0,0.5-0.1c2.6-0.6,4.8-2.7,5.3-5.4C78,6.2,75.5,2.7,72,1.9l0,0
	c0,0-3.6-1.1-7.4,1.4c-4,2.2-6.5,0.9-7.5,0.1c-0.2-0.2-0.5,0-0.4,0.3c0.3,0.9,1.1,2.3,3.5,3c-2.1,1.1-3.8,0.7-4.7,0.3
	C55.3,7,55,7.3,55.2,7.5c0.5,0.8,2.7,2,5.4,2c0,0-1.3,1.3-3.6,1.8c-0.3,0.1-0.3,0.5,0,0.6c1.4,0.3,4.8,0.3,6.7-0.8
	c1.6-0.9,2.5,0,3,0.7v0l-6,6H40c-2.6,0-5.2,1.3-7,3.6v0.1h24l-7.9,7.9c-2.3,2.3-1.2,5.9,1.6,8.7l8.6,8.3L56.6,49l-6.7,6.6
	c-0.5,0.5-0.8,1.2-0.8,1.9c0,0.7,0.2,1.3,0.5,1.8H38.1v0c0-1.5-1.2-2.7-2.7-2.7h-1.8L50,40.1l-0.7-0.6C48,38,47,36.5,46.4,35L27,57
	c-0.1,0.1-0.1,0.2-0.2,0.2l-0.1,0.1l0,0c-0.2,0.3-0.3,0.6-0.3,1c0,0.3,0.1,0.7,0.3,0.9h-14C11.3,59.3,11,61.1,12.2,61.6z M89.3,17.7
	H71.5l-1.6,1.5l1.3,2.2h25.1v-0.1C94.4,19,91.9,17.7,89.3,17.7z M79.1,79.7c0.9,0.2,1.4-1.4,0.6-2c-10.5-7.7-22.4-11-37.9-11
	c-14,0-28.5,12.5-38.1,31.6h41.4C51,85,59.4,75.5,79.1,79.7z M44.6,71.7c-5,0-9.3,0.9-12.8,2.7c-9.2,4.7-15.6,13.4-18.6,18.1
	C13,92.8,12.7,93,12.4,93c-0.2,0-0.4,0-0.5-0.2c-0.5-0.3-0.6-0.9-0.3-1.4c3.1-4.9,9.8-14,19.4-18.9c3.8-1.9,8.4-2.9,13.7-2.9h0
	c0.6,0,1,0.4,1,1S45.2,71.7,44.6,71.7z M69.2,82.5c-8,0-16.1,6.4-19.1,15.8h20.8c2.9-6.7,7.2-11.4,17-9.3c0.5,0.1,0.7-0.7,0.3-1
	C85.3,85.9,79.1,82.5,69.2,82.5z M69.2,87.5c-4.3,0-8.9,2.8-12,7.4c-0.2,0.3-0.5,0.4-0.8,0.4c-0.2,0-0.4-0.1-0.6-0.2
	c-0.5-0.3-0.6-0.9-0.3-1.4c3.4-5.1,8.6-8.3,13.6-8.3c0.6,0,1,0.4,1,1S69.7,87.5,69.2,87.5z"/>
</svg>
