<?xml version="1.0" encoding="utf-8"?>
<!-- Generator: Adobe Illustrator 18.0.0, SVG Export Plug-In . SVG Version: 6.00 Build 0)  -->
<!DOCTYPE svg PUBLIC "-//W3C//DTD SVG 1.1//EN" "http://www.w3.org/Graphics/SVG/1.1/DTD/svg11.dtd">
<svg version="1.1" id="Layer_1" xmlns="http://www.w3.org/2000/svg" xmlns:xlink="http://www.w3.org/1999/xlink" x="0px" y="0px"
	 viewBox="0 0 100 100" enable-background="new 0 0 100 100" xml:space="preserve">
<path d="M37.3,59.9c-0.1,1.8-1.3,3.6-2.8,5.1c4.4,3.4,9.8,5.3,15.5,5.3c5.7,0,11.1-1.9,15.6-5.3c-1.4-1.5-2.6-3.2-2.6-5
	C72.4,55.2,79,45.3,79,34c0-10.5-5.6-19.6-13.9-24.7v11.5c0,1.7-1.3,3-3,3c-1.7,0-3-1.3-3-3V6.5c-1.5-0.5-3.1-0.9-4.7-1.1v31.1
	c0,1.7-1.3,3-3,3c-1.7,0-3-1.3-3-3V5.2C33.2,6.1,21.2,18.6,21.2,34C21.2,45.3,27.8,55.2,37.3,59.9z M71.6,69.5c0,0-1.4-0.7-3-1.9
	c-5.2,4.3-11.8,6.7-18.6,6.7c-6.9,0-13.4-2.3-18.6-6.6c-1.6,1.1-2.8,1.8-2.8,1.8v0c-8.3,5.3-14.6,15-17.3,25.5h77.4
	C86,84.5,79.8,74.7,71.6,69.5z"/>
</svg>
