<?xml version="1.0" encoding="utf-8"?>
<!-- Generator: Adobe Illustrator 18.0.0, SVG Export Plug-In . SVG Version: 6.00 Build 0)  -->
<!DOCTYPE svg PUBLIC "-//W3C//DTD SVG 1.1//EN" "http://www.w3.org/Graphics/SVG/1.1/DTD/svg11.dtd">
<svg version="1.1" id="Layer_1" xmlns="http://www.w3.org/2000/svg" xmlns:xlink="http://www.w3.org/1999/xlink" x="0px" y="0px"
	 viewBox="0 0 100 100" enable-background="new 0 0 100 100" xml:space="preserve">
<path d="M38.7,11.7c0.9-0.9,0.9-2.4,0-3.3c-0.9-0.9-2.4-0.9-3.3,0l-3.6,3.6l3.3,3.3L38.7,11.7z M25.3,4c0-1.3-1-2.3-2.3-2.3
	s-2.3,1-2.3,2.3v5.1h4.7V4z M23,34.3c6.3,0,11.5-5.1,11.5-11.5c0-6.3-5.1-11.5-11.5-11.5s-11.5,5.1-11.5,11.5
	C11.5,29.2,16.6,34.3,23,34.3z M36.6,25.2h5.1c1.3,0,2.3-1,2.3-2.3v0c0-1.3-1-2.3-2.3-2.3h-5.1V25.2z M31.8,33.6l3.6,3.6
	c0.9,0.9,2.4,0.9,3.3,0c0.9-0.9,0.9-2.4,0-3.3l-3.6-3.6L31.8,33.6z M10.8,15.4l3.3-3.3l-3.6-3.6c-0.9-0.9-2.4-0.9-3.3,0
	s-0.9,2.4,0,3.3L10.8,15.4z M20.6,41.7c0,1.3,1,2.3,2.3,2.3s2.3-1,2.3-2.3v-5.1h-4.7V41.7z M4.1,25.2h5.1v-4.7H4.1
	c-1.3,0-2.3,1-2.3,2.3v0C1.8,24.1,2.8,25.2,4.1,25.2z M7.2,33.9c-0.9,0.9-0.9,2.4,0,3.3s2.4,0.9,3.3,0l3.6-3.6l-3.3-3.3L7.2,33.9z
	 M77.9,47.8c-9.3,0-9.3,8-18.6,8c-9.3,0-9.3-8-18.6-8c-9.3,0-9.3,8-18.6,8c-9.3,0-11-8-20.3-8v44.4c0,3.4,2.7,6.1,6.1,6.1h84.2
	c3.4,0,6.1-2.7,6.1-6.1V55.8C88.9,55.8,87.2,47.8,77.9,47.8z M38.4,69.2l-1.7,4.3l-0.7-0.3l-5.6-5.6L38.4,69.2z M12.7,68.4l-1.4,1.4
	c-1,1-2.6,1-3.7,0L7,69.2l4.3-4.3c0.5-0.5,1.3-0.8,2.1-0.6l8,1.6l-4.2,0.4v2.3c0,0.3,0,0.6,0.1,0.9L12.7,68.4z M88.7,70.5
	c0-3.6-4.6-6.6-10-6.6c-3.9,0-7.4,1.6-9,3.8h12.4c2.1,0,3.9,1.7,3.8,3.8c0,0,0,0.1,0,0.1c-0.2,3.2-2.7,5.9-5.9,6.2
	c-3.1,0.3-5.9-1.6-6.8-4.4H73c-2.3,0-3.4,0.4-4.1,1.2c-0.2,0.4-0.3,0.7-0.6,1c0,0,0,0,0,0.1c-2.2,3.6-7.1,6.1-12.7,6.1
	c-2.2,0-6.8-0.8-9.2-2.4l2.9-2.9c1.2,0.5,4,1.3,6.2,1.3c2,0,3.9-0.4,5.4-1.1c-0.3-0.3-0.5-0.6-0.7-0.9l0,0l-12.1-0.7l-0.5,0.4
	l-7.8,7.8c-1,1-2.6,1-3.6,0L24.9,71.1h-3.2c-1.4,0-2.6-1.2-2.6-2.6v-0.9h7.4v0c0,0,0.1,0,0.1,0c0.7,0,1.3,0.3,1.8,0.7l6.3,6.4
	l2.6,2.6l1.1-2.9l0,0l1.4-3.7c0-0.1,0.1-0.2,0.1-0.2l0.3-0.8c1.3-3.2,4.8-4.7,8-3.6c2.4,0.8,5.4,1.5,9.1,1.5h7.8
	c1.6-4.5,7.1-7.8,13.5-7.8c7.7,0,14,4.8,14,10.6H88.7z"/>
</svg>
