<?xml version="1.0" encoding="utf-8"?>
<!-- Generator: Adobe Illustrator 18.0.0, SVG Export Plug-In . SVG Version: 6.00 Build 0)  -->
<!DOCTYPE svg PUBLIC "-//W3C//DTD SVG 1.1//EN" "http://www.w3.org/Graphics/SVG/1.1/DTD/svg11.dtd">
<svg version="1.1" id="Layer_1" xmlns="http://www.w3.org/2000/svg" xmlns:xlink="http://www.w3.org/1999/xlink" x="0px" y="0px"
	 viewBox="0 0 100 100" enable-background="new 0 0 100 100" xml:space="preserve">
<path d="M79.3,31.9c0,0-5.3-6.3-5.3-16.4V9.9c0-4.1-1.8-8.6-5.8-8.6v10.7c0,0-0.5,20.6-18.2,20.6c-17.7,0-18.2-20.6-18.2-20.6v-10
	c-4.1,0-5.8,3.8-5.8,7.8v5.6c0,10.1-5.3,16.4-5.3,16.4s5,4.2,5,29.8s-2,36.9-2,36.9h52.6c0,0-2-11.3-2-36.9S79.3,31.9,79.3,31.9z
	 M31.1,93.7c0,0.5-0.5,0.9-1,0.9c0,0-0.1,0-0.1,0c-0.6,0-1-0.5-0.9-1.1c2-23.3,0.9-51-2.4-60.3c-0.2-0.5,0.1-1.1,0.6-1.3
	c0.5-0.2,1.1,0.1,1.3,0.6C32,42.3,33.2,69.7,31.1,93.7z M73.4,33.2c-3.4,9.4-4.5,37-2.4,60.3c0,0.5-0.4,1-0.9,1.1c0,0-0.1,0-0.1,0
	c-0.5,0-1-0.4-1-0.9c-2.1-24-1-51.4,2.6-61.2c0.2-0.5,0.8-0.8,1.3-0.6C73.3,32.1,73.6,32.7,73.4,33.2z"/>
</svg>
