<?xml version="1.0" encoding="utf-8"?>
<!-- Generator: Adobe Illustrator 18.0.0, SVG Export Plug-In . SVG Version: 6.00 Build 0)  -->
<!DOCTYPE svg PUBLIC "-//W3C//DTD SVG 1.1//EN" "http://www.w3.org/Graphics/SVG/1.1/DTD/svg11.dtd">
<svg version="1.1" id="Layer_1" xmlns="http://www.w3.org/2000/svg" xmlns:xlink="http://www.w3.org/1999/xlink" x="0px" y="0px"
	 viewBox="0 0 100 100" enable-background="new 0 0 100 100" xml:space="preserve">
<path d="M23,21.7l23.8,28l33.5,0L51.3,20H19.5l1,0.1C21.3,20.3,22.2,20.8,23,21.7z M68.8,20h-8.1l28.9,29.6l8.8,0L68.8,20z
	 M62.6,53.6c9.2,20.5,9.2,22.3,9.2,23c0,1.4-0.4,2.5-1,3.4l2.4,0c0.9-0.6,1.7-1.6,1.7-3.4c0-0.7-0.9-4.2-9.4-23L62.6,53.6z M54.1,20
	l28.9,29.6l3.8,0L57.9,20H54.1z M74.9,53.6l-7,0C77,74.1,77,75.9,77,76.6c0,1.4-0.4,2.5-1,3.4l3.5,0c3-0.1,5.7-3.2,4.1-6.6
	L74.9,53.6z M32.6,75.5c0.1-0.1,0.1-0.2,0-0.5L22,51.5H1.6L26.1,76h5.8C32.2,76,32.5,75.8,32.6,75.5z M44.9,53.6L16.4,21.1
	c-1.5,1.2-2.3,3.3-1.3,5.5l21.1,46.8c1.6,3.5-1.5,6.8-4.7,6.6l36.5,0c0.9-0.6,1.7-1.6,1.7-3.4c0-0.6-0.9-4.2-9.4-23L44.9,53.6z"/>
</svg>
