<?xml version="1.0" encoding="utf-8"?>
<!-- Generator: Adobe Illustrator 18.0.0, SVG Export Plug-In . SVG Version: 6.00 Build 0)  -->
<!DOCTYPE svg PUBLIC "-//W3C//DTD SVG 1.1//EN" "http://www.w3.org/Graphics/SVG/1.1/DTD/svg11.dtd">
<svg version="1.1" id="Layer_1" xmlns="http://www.w3.org/2000/svg" xmlns:xlink="http://www.w3.org/1999/xlink" x="0px" y="0px"
	 viewBox="0 0 100 100" enable-background="new 0 0 100 100" xml:space="preserve">
<path d="M14.2,46v-4h65.9c-4.2-15-19.9-26.2-38.6-26.2C19.6,15.8,1.8,31.1,1.8,50c0,18.3,16.6,33.2,37.5,34.2
	C24.5,77.4,14.2,62.8,14.2,46z M16.6,30.3c1.7-1.9,3.7-3.6,5.9-5c5.5-3.6,12-5.5,18.9-5.5c0.6,0,1,0.4,1,1s-0.4,1-1,1
	c-6.5,0-12.7,1.8-17.8,5.2c-2.1,1.4-3.9,2.9-5.5,4.7c-0.2,0.2-0.5,0.3-0.7,0.3c-0.2,0-0.5-0.1-0.7-0.3
	C16.2,31.4,16.2,30.7,16.6,30.3z M18.2,46c0,21.1,17.9,38.2,40,38.2s40-17.1,40-38.2H18.2z M80.5,52.8c1.1,0,2,0.5,2,1.2
	s-0.9,1.2-2,1.2c-1.1,0-3-1.2-3-1.2S79.3,52.8,80.5,52.8z M72.3,63.4c0.8,0.8,1.1,1.8,0.6,2.3c-0.5,0.5-1.5,0.2-2.3-0.6
	c-0.8-0.8-1.3-3-1.3-3S71.5,62.6,72.3,63.4z M58.4,66.2c0,0,1.2,1.9,1.2,3s-0.5,2-1.2,2s-1.2-0.9-1.2-2S58.4,66.2,58.4,66.2z
	 M44.6,63.4c0.8-0.8,3-1.3,3-1.3s-0.5,2.2-1.3,3c-0.8,0.8-1.8,1.1-2.3,0.6C43.5,65.2,43.8,64.2,44.6,63.4z M36.4,52.8
	c1.1,0,3,1.2,3,1.2s-1.9,1.2-3,1.2c-1.1,0-2-0.5-2-1.2S35.3,52.8,36.4,52.8z M58.2,78.4c-16.1,0-30.3-10.6-33.8-25.3
	c-0.1-0.5,0.2-1.1,0.7-1.2c0.5-0.1,1.1,0.2,1.2,0.7C29.6,66.4,43,76.4,58.2,76.4s28.6-10,31.9-23.8c0.1-0.5,0.7-0.9,1.2-0.7
	c0.5,0.1,0.9,0.7,0.7,1.2C88.5,67.7,74.3,78.4,58.2,78.4z"/>
</svg>
