<svg xmlns="http://www.w3.org/2000/svg" viewBox="0 0 102.2 100"><path fill="#ECCA8D" stroke="#D9A128" stroke-width="2" stroke-miterlimit="10" d="M101.2 92.4c0 3.7-3 6.6-6.6 6.6h-87C3.9 99 1 96 1 92.4V7.6C1 3.9 4 1 7.6 1h87c3.7 0 6.6 3 6.6 6.6v84.8z"/><g fill="#D9A128"><path d="M45.4 44s-5.2 3.9.6 8.2c0 0-1.9 5.4-4.6 5.6 0 0-1.7-.4-2.5-.7 0 0-1.7-.5-3.5.8 0 0-2.1.1-2.5-.6 0 0-2.8-2.3-3.7-6.7 0 0-1.6-5.8 3.4-8.1 0 0 1.6-.9 4.3.5 0 0 1.3.2 3.1-.6.1-.2 2.7-1.4 5.4 1.6zM36.9 41.7s-.4-4.4 4.5-5.3c0 0 1 4.6-4.5 5.3z"/><text transform="translate(51.462 56.496)" font-family="'ArialMT'" font-size="23">tv</text></g></svg>