<svg xmlns="http://www.w3.org/2000/svg" xmlns:xlink="http://www.w3.org/1999/xlink" viewBox="0 0 135.6 177.3"><path fill="#FFF" stroke="#D9A128" stroke-width="3" stroke-miterlimit="10" d="M134 171.8c0 2.2-1.8 4-4 4H5.5c-2.2 0-4-1.8-4-4V5.5c0-2.2 1.8-4 4-4h124.6c2.2 0 4 1.8 4 4v166.3h-.1z"/><path fill="#ECCA8D" d="M15.1 17.4h105.4v142.5H15.1z"/><defs><path id="a" d="M15.1 17.4h105.4v142.5H15.1z"/></defs><clipPath id="b"><use xlink:href="#a" overflow="visible"/></clipPath><path opacity=".4" clip-path="url(#b)" fill="#FCF5EA" d="M5.1 14.7v150h51l41-148 2-7z"/><g><path fill="none" stroke="#D9A128" stroke-width="2" stroke-linecap="round" stroke-linejoin="round" stroke-miterlimit="10" d="M15.1 17.4h105.4v142.5H15.1z"/></g><path fill="#D9A128" d="M65.6 8.3h2.5v2.5h-2.5z"/><circle fill="#FFF" stroke="#D9A128" stroke-width="2" stroke-miterlimit="10" cx="67.8" cy="167.4" r="3.8"/></svg>