<svg xmlns="http://www.w3.org/2000/svg" xmlns:xlink="http://www.w3.org/1999/xlink" viewBox="0 0 71 138.3"><path fill="#FFF" stroke="#D9A128" stroke-width="3" stroke-miterlimit="10" d="M69.5 132.7c0 2.3-1.8 4.1-4.1 4.1H5.6c-2.3 0-4.1-1.9-4.1-4.1V5.6c0-2.3 1.8-4.1 4.1-4.1h59.8c2.3 0 4.1 1.9 4.1 4.1v127.1z"/><path fill="#ECCA8D" d="M8.2 19.6h54.7v100.3H8.2z"/><defs><path id="a" d="M8.2 19.6h54.7v100.3H8.2z"/></defs><clipPath id="b"><use xlink:href="#a" overflow="visible"/></clipPath><path opacity=".4" clip-path="url(#b)" fill="#FCF5EA" d="M5.4 120.8V17.6h40.3L23.1 121.3z"/><g><path fill="none" stroke="#D9A128" stroke-width="2" stroke-miterlimit="10" d="M8.2 19.6h54.7v100.3H8.2z"/></g><g fill="#D9A128"><path d="M30.3 12h10.4v1.8H30.3zM34.3 7.1h2v2h-2z"/></g><circle fill="#FFF" stroke="#D9A128" stroke-width="2" stroke-miterlimit="10" cx="35.5" cy="128.2" r="3.2"/></svg>