<svg xmlns="http://www.w3.org/2000/svg" viewBox="0 0 44.8 90.8"><path fill="#FCF5EA" d="M43.3 68.4c0 11.6-9.4 20.9-20.9 20.9-11.6 0-20.9-9.4-20.9-20.9v-46c0-11.6 9.4-20.9 20.9-20.9h1c11.1.5 19.9 9.7 19.9 20.9v46z"/><path fill="none" stroke="#D9A128" stroke-width="3" stroke-miterlimit="10" d="M43.3 68.4c0 11.6-9.4 20.9-20.9 20.9-11.6 0-20.9-9.4-20.9-20.9v-46c0-11.6 9.4-20.9 20.9-20.9h1c11.1.5 19.9 9.7 19.9 20.9v46z"/><g fill="#D9A128"><path d="M28.2 62.4s-3.9 2.9.5 6.1c0 0-1.4 4-3.4 4.1 0 0-1.2-.3-1.9-.5 0 0-1.3-.3-2.6.6 0 0-1.6.1-1.8-.5 0 0-2.1-1.7-2.8-5 0 0-1.2-4.3 2.5-6 0 0 1.2-.6 3.2.3 0 0 .9.2 2.3-.4 0 0 2-.9 4 1.3zM21.9 60.7s-.3-3.2 3.3-4c0 .1.7 3.5-3.3 4z"/></g></svg>