<svg xmlns="http://www.w3.org/2000/svg" viewBox="0 0 60 89.2"><path fill="#FCF5EA" stroke="#D9A128" stroke-width="3" stroke-miterlimit="10" d="M1.5 2.9h57v84.8h-57z"/><g fill="none" stroke="#D9A128" stroke-linecap="round" stroke-linejoin="round" stroke-miterlimit="10"><path d="M2.7 27.5h55.8M2.7 35.5h55.8M2.7 43.5h55.8M2.7 51.5h55.8M2.7 59.5h55.8M2.7 67.5h55.8M2.7 75.5h55.8"/></g><g fill="#D9A128"><path d="M7 8.2h4.8v4.1H7zM16.8 8.2h4.8v4.1h-4.8zM27.2 8.2H32v4.1h-4.8zM37 8.2h4.8v4.1H37zM47.1 8.2h4.8v4.1h-4.8z"/></g><g fill="none" stroke="#D9A128" stroke-width="2" stroke-linecap="round" stroke-linejoin="round" stroke-miterlimit="10"><path d="M10.9 11.2c-2.8 0-5.1-2.3-5.1-5.1S8.1 1 10.9 1M20.7 11.2c-2.8 0-5.1-2.3-5.1-5.1S17.9 1 20.7 1M31.1 11.2c-2.8 0-5.1-2.3-5.1-5.1S28.3 1 31.1 1M40.9 11.2c-2.8 0-5.1-2.3-5.1-5.1S38.1 1 40.9 1M51.2 11.2c-2.8 0-5.1-2.3-5.1-5.1S48.4 1 51.2 1"/></g></svg>