<svg xmlns="http://www.w3.org/2000/svg" viewBox="0 0 100.372 21.408"><path fill="#D9A128" d="M97.972.101c1.3 0 2.4 1.3 2.4 2.8v15.7c0 1.5-1.1 2.8-2.4 2.8h-11.8c-1.3 0-2.4-1.3-2.4-2.8v-15.7c0-1.5 1.1-2.8 2.4-2.8h11.8z"/><path fill="#FCF5EA" stroke="#D9A128" stroke-width="3" stroke-miterlimit="10" d="M64.072 19.801h-50.5l-11-9.1 11.2-9.2 50.3.1h22.9v18.3z"/><path fill="#ECCA8D" stroke="#D9A128" stroke-width="2" stroke-miterlimit="10" d="M14.072 19.801h-1.5l-11-9.1 11.2-9.2h1.2l-1.2 5.8 1.2-.2-1.3 5.8h1.4z"/><g fill="#D9A128"><path d="M5.172 13.701v-6l-4.6 3z"/><path d="M5.172 9.601l-4.6 1.1 4.6-3z"/></g></svg>