<svg xmlns="http://www.w3.org/2000/svg" viewBox="0 0 53.6 152.1"><path fill="#ECCA8D" stroke="#D9A128" stroke-width="3" stroke-linecap="round" stroke-linejoin="round" stroke-miterlimit="10" d="M38.3 72.4c0 3.7-3 6.6-6.6 6.6H17.6c-3.7 0-6.6-3-6.6-6.6V8.1c0-3.7 3-6.6 6.6-6.6h14.1c3.7 0 6.6 3 6.6 6.6v64.3z"/><path fill="#ECCA8D" stroke="#D9A128" stroke-width="3" stroke-linecap="round" stroke-linejoin="round" stroke-miterlimit="10" d="M38.7 144c0 3.7-3 6.6-6.6 6.6H18c-3.7 0-6.6-3-6.6-6.6V79.7c0-3.7 3-6.6 6.6-6.6h14.1c3.7 0 6.6 3 6.6 6.6V144z"/><path fill="#D9A128" stroke="#D9A128" stroke-width="2" stroke-linecap="round" stroke-linejoin="round" stroke-miterlimit="10" d="M47.6 71.9h5v4.3h-5z"/><path fill="#FFF" stroke="#D9A128" stroke-width="5" stroke-miterlimit="10" d="M2.5 74.1c0 12.3 10 22.2 22.2 22.2 12.3 0 22.2-10 22.2-22.2 0-12.3-10-22.2-22.2-22.2-12.3 0-22.2 9.9-22.2 22.2z"/><circle fill="#D9A128" cx="24.8" cy="74.7" r="2.8"/><path fill="none" stroke="#D9A128" stroke-width="2" stroke-linecap="round" stroke-linejoin="round" stroke-miterlimit="10" d="M26.226 73.883l5.84-3.676.213.338-5.84 3.676zM24.5 63.8h.5v9.4h-.5z"/><g fill="#D9A128"><path d="M24.6 101.3h.8v4.2h-.8zM24.6 106.6h.8v4.2h-.8zM24.6 111.9h.8v4.2h-.8zM24.6 117.2h.8v4.2h-.8zM24.6 122.5h.8v4.2h-.8zM24.6 127.8h.8v4.2h-.8zM24.6 133.1h.8v4.2h-.8z"/></g><g fill="#D9A128"><path d="M24.2 11.2h.8v4.2h-.8zM24.2 16.5h.8v4.2h-.8zM24.2 21.8h.8V26h-.8zM24.2 27.1h.8v4.2h-.8zM24.2 32.4h.8v4.2h-.8zM24.2 37.7h.8v4.2h-.8zM24.2 43h.8v4.2h-.8z"/></g><path fill="#D9A128" stroke="#D9A128" stroke-width="2" stroke-linecap="round" stroke-linejoin="round" stroke-miterlimit="10" d="M10.9 11.8h26.6v4.8H10.9z"/></svg>