<?xml version="1.0" encoding="UTF-8" standalone="no"?>
<svg width="229px" height="153px" viewBox="0 0 229 153" version="1.1" xmlns="http://www.w3.org/2000/svg" xmlns:xlink="http://www.w3.org/1999/xlink">
    <!-- Generator: Sketch 3.8.1 (29687) - http://www.bohemiancoding.com/sketch -->
    <title>Background Pattern</title>
    <desc>Created with Sketch.</desc>
    <defs/>
    <g id="Pitch" stroke="none" stroke-width="1" fill="none" fill-rule="evenodd">
        <g id="Background-Pattern" fill="#E8E8E8">
            <path d="M40.547691,13.8609374 L51.9671905,13.8609374 L51.9671905,2.41438696 L40.547691,2.41438696 L40.547691,13.8609374 Z M38.1387266,16.2756082 L54.3758717,16.2756082 L54.3758717,0 L38.1387266,0 L38.1387266,16.2756082 Z M46.2574408,10.874819 C47.7655216,10.874819 48.9878459,9.64931538 48.9878459,8.13794604 C48.9878459,6.62629283 47.7655216,5.40078918 46.2574408,5.40078918 C44.74936,5.40078918 43.5267525,6.62629283 43.5267525,8.13794604 C43.5267525,9.64931538 44.74936,10.874819 46.2574408,10.874819 L46.2574408,10.874819 Z M97.7556394,13.8612212 L109.175139,13.8612212 L109.175139,2.41467084 L97.7556394,2.41467084 L97.7556394,13.8612212 Z M95.346675,16.2756082 L111.58382,16.2756082 L111.58382,0 L95.346675,0 L95.346675,16.2756082 Z M78.6864177,13.8612212 L90.1059172,13.8612212 L90.1059172,2.41467084 L78.6864177,2.41467084 L78.6864177,13.8612212 Z M21.3767978,13.8612212 L32.7962972,13.8612212 L32.7962972,2.41467084 L21.3767978,2.41467084 L21.3767978,13.8612212 Z M8.11871414,10.874819 C9.62679495,10.874819 10.8491192,9.64931538 10.8491192,8.13794604 C10.8491192,6.62629283 9.62679495,5.40078918 8.11871414,5.40078918 C6.61063332,5.40078918 5.38802583,6.62629283 5.38802583,8.13794604 C5.38802583,9.64931538 6.61063332,10.874819 8.11871414,10.874819 L8.11871414,10.874819 Z M65.3266625,10.874819 C63.8185817,10.874819 62.5962574,9.64931538 62.5962574,8.13794604 C62.5962574,6.62629283 63.8185817,5.40078918 65.3266625,5.40078918 C66.8347433,5.40078918 68.0573508,6.62629283 68.0573508,8.13794604 C68.0573508,9.64931538 66.8347433,10.874819 65.3266625,10.874819 L65.3266625,10.874819 Z M57.2082316,16.2756082 L73.4453766,16.2756082 L73.4453766,0 L57.2082316,0 L57.2082316,16.2756082 Z M27.1879359,29.9892126 C25.679855,29.9892126 24.4575308,28.7639928 24.4575308,27.2523396 C24.4575308,25.7406864 25.679855,24.5154666 27.1879359,24.5154666 C28.6960167,24.5154666 29.9186242,25.7406864 29.9186242,27.2523396 C29.9186242,28.7639928 28.6960167,29.9892126 27.1879359,29.9892126 L27.1879359,29.9892126 Z M19.0695049,35.3900018 L35.30665,35.3900018 L35.30665,19.1143936 L19.0695049,19.1143936 L19.0695049,35.3900018 Z M2.4089644,32.9756148 L13.8284639,32.9756148 L13.8284639,21.5290644 L2.4089644,21.5290644 L2.4089644,32.9756148 Z M59.7185843,32.9756148 L71.1380838,32.9756148 L71.1380838,21.5290644 L59.7185843,21.5290644 L59.7185843,32.9756148 Z M57.3096199,35.3902857 L73.546765,35.3902857 L73.546765,19.1146775 L57.3096199,19.1146775 L57.3096199,35.3902857 Z M43.628424,27.2523396 C43.628424,28.7639928 44.8507483,29.9892126 46.3588291,29.9892126 C47.8669099,29.9892126 49.0895174,28.7639928 49.0895174,27.2523396 C49.0895174,25.7406864 47.8669099,24.5154666 46.3588291,24.5154666 C44.8507483,24.5154666 43.628424,25.7406864 43.628424,27.2523396 L43.628424,27.2523396 Z M103.567061,29.9892126 C102.05898,29.9892126 100.836372,28.7639928 100.836372,27.2523396 C100.836372,25.7406864 102.05898,24.5154666 103.567061,24.5154666 C105.074858,24.5154666 106.297466,25.7406864 106.297466,27.2523396 C106.297466,28.7639928 105.074858,29.9892126 103.567061,29.9892126 L103.567061,29.9892126 Z M97.857311,32.9756148 L109.27681,32.9756148 L109.27681,21.5290644 L97.857311,21.5290644 L97.857311,32.9756148 Z M84.4975558,29.9892126 C86.0056366,29.9892126 87.2282441,28.7639928 87.2282441,27.2523396 C87.2282441,25.7406864 86.0056366,24.5154666 84.4975558,24.5154666 C82.989475,24.5154666 81.7671507,25.7406864 81.7671507,27.2523396 C81.7671507,28.7639928 82.989475,29.9892126 84.4975558,29.9892126 L84.4975558,29.9892126 Z M78.787806,32.9756148 L90.2073055,32.9756148 L90.2073055,21.5290644 L78.787806,21.5290644 L78.787806,32.9756148 Z M76.3791248,35.3900018 L92.6162699,35.3900018 L92.6162699,19.1143936 L76.3791248,19.1143936 L76.3791248,35.3900018 Z M46.2574408,43.6298602 C47.7655216,43.6298602 48.9878459,44.8553639 48.9878459,46.3670171 C48.9878459,47.8783864 47.7655216,49.1038901 46.2574408,49.1038901 C44.74936,49.1038901 43.5267525,47.8783864 43.5267525,46.3670171 C43.5267525,44.8553639 44.74936,43.6298602 46.2574408,43.6298602 L46.2574408,43.6298602 Z M38.1387266,54.5046793 L54.3758717,54.5046793 L54.3758717,38.2290711 L38.1387266,38.2290711 L38.1387266,54.5046793 Z M62.5962574,65.4814107 C62.5962574,66.9930639 63.8185817,68.2182837 65.3266625,68.2182837 C66.8347433,68.2182837 68.0573508,66.9930639 68.0573508,65.4814107 C68.0573508,63.9697575 66.8347433,62.7445377 65.3266625,62.7445377 C63.8185817,62.7445377 62.5962574,63.9697575 62.5962574,65.4814107 L62.5962574,65.4814107 Z M40.547691,71.2046859 L51.9671905,71.2046859 L51.9671905,59.7581355 L40.547691,59.7581355 L40.547691,71.2046859 Z M38.1387266,73.6193567 L54.3758717,73.6193567 L54.3758717,57.3437485 L38.1387266,57.3437485 L38.1387266,73.6193567 Z M8.11871414,68.2182837 C6.61063332,68.2182837 5.38802583,66.9930639 5.38802583,65.4814107 C5.38802583,63.9697575 6.61063332,62.7445377 8.11871414,62.7445377 C9.62679495,62.7445377 10.8491192,63.9697575 10.8491192,65.4814107 C10.8491192,66.9930639 9.62679495,68.2182837 8.11871414,68.2182837 L8.11871414,68.2182837 Z M2.4089644,71.2046859 L13.8284639,71.2046859 L13.8284639,59.7581355 L2.4089644,59.7581355 L2.4089644,71.2046859 Z M21.4781861,71.2046859 L32.8976856,71.2046859 L32.8976856,59.7581355 L21.4781861,59.7581355 L21.4781861,71.2046859 Z M19.0692217,73.6193567 L35.3063668,73.6193567 L35.3063668,57.3437485 L19.0692217,57.3437485 L19.0692217,73.6193567 Z M27.1879359,62.7445377 C25.679855,62.7445377 24.4575308,63.9697575 24.4575308,65.4814107 C24.4575308,66.9930639 25.679855,68.2182837 27.1879359,68.2182837 C28.6960167,68.2182837 29.9186242,66.9930639 29.9186242,65.4814107 C29.9186242,63.9697575 28.6960167,62.7445377 27.1879359,62.7445377 L27.1879359,62.7445377 Z M97.857311,71.2046859 L109.27681,71.2046859 L109.27681,59.7581355 L97.857311,59.7581355 L97.857311,71.2046859 Z M84.4975558,62.7445377 C86.0056366,62.7445377 87.2282441,63.9697575 87.2282441,65.4814107 C87.2282441,66.9930639 86.0056366,68.2182837 84.4975558,68.2182837 C82.989475,68.2182837 81.7671507,66.9930639 81.7671507,65.4814107 C81.7671507,63.9697575 82.989475,62.7445377 84.4975558,62.7445377 L84.4975558,62.7445377 Z M76.3788416,73.6193567 L92.6159867,73.6193567 L92.6159867,57.3437485 L76.3788416,57.3437485 L76.3788416,73.6193567 Z M21.4781861,52.0902923 L32.8976856,52.0902923 L32.8976856,40.6437419 L21.4781861,40.6437419 L21.4781861,52.0902923 Z M78.787806,52.0902923 L90.2073055,52.0902923 L90.2073055,40.6437419 L78.787806,40.6437419 L78.787806,52.0902923 Z M2.4089644,52.0902923 L13.8284639,52.0902923 L13.8284639,40.6437419 L2.4089644,40.6437419 L2.4089644,52.0902923 Z M0,54.5046793 L16.2371451,54.5046793 L16.2371451,38.2290711 L0,38.2290711 L0,54.5046793 Z M100.734984,46.3670171 C100.734984,47.8783864 101.957308,49.1038901 103.465389,49.1038901 C104.97347,49.1038901 106.196077,47.8783864 106.196077,46.3670171 C106.196077,44.8553639 104.97347,43.6298602 103.465389,43.6298602 C101.957308,43.6298602 100.734984,44.8553639 100.734984,46.3670171 L100.734984,46.3670171 Z M59.6169128,52.0900084 L71.0364122,52.0900084 L71.0364122,40.643458 L59.6169128,40.643458 L59.6169128,52.0900084 Z M57.2082316,54.5046793 L73.4453766,54.5046793 L73.4453766,38.2290711 L57.2082316,38.2290711 L57.2082316,54.5046793 Z M65.3266625,49.1038901 C66.8347433,49.1038901 68.0573508,47.8783864 68.0573508,46.3670171 C68.0573508,44.8553639 66.8347433,43.6298602 65.3266625,43.6298602 C63.8185817,43.6298602 62.5962574,44.8553639 62.5962574,46.3670171 C62.5962574,47.8783864 63.8185817,49.1038901 65.3266625,49.1038901 L65.3266625,49.1038901 Z M78.6864177,90.2418645 L90.1059172,90.2418645 L90.1059172,78.7953141 L78.6864177,78.7953141 L78.6864177,90.2418645 Z M97.7556394,90.2418645 L109.175139,90.2418645 L109.175139,78.7953141 L97.7556394,78.7953141 L97.7556394,90.2418645 Z M95.346675,92.6565354 L111.58382,92.6565354 L111.58382,76.3809271 L95.346675,76.3809271 L95.346675,92.6565354 Z M21.3767978,90.2418645 L32.7962972,90.2418645 L32.7962972,78.7953141 L21.3767978,78.7953141 L21.3767978,90.2418645 Z M40.547691,90.2418645 L51.9671905,90.2418645 L51.9671905,78.7953141 L40.547691,78.7953141 L40.547691,90.2418645 Z M38.1387266,92.6562515 L54.3758717,92.6562515 L54.3758717,76.3806433 L38.1387266,76.3806433 L38.1387266,92.6562515 Z M5.38802583,84.5185893 C5.38802583,86.0302425 6.61063332,87.2554623 8.11871414,87.2554623 C9.62679495,87.2554623 10.8491192,86.0302425 10.8491192,84.5185893 C10.8491192,83.0069361 9.62679495,81.7814325 8.11871414,81.7814325 C6.61063332,81.7814325 5.38802583,83.0069361 5.38802583,84.5185893 L5.38802583,84.5185893 Z M46.2574408,87.2554623 C47.7655216,87.2554623 48.9878459,86.0302425 48.9878459,84.5185893 C48.9878459,83.0069361 47.7655216,81.7814325 46.2574408,81.7814325 C44.74936,81.7814325 43.5267525,83.0069361 43.5267525,84.5185893 C43.5267525,86.0302425 44.74936,87.2554623 46.2574408,87.2554623 L46.2574408,87.2554623 Z M65.3266625,87.2554623 C63.8185817,87.2554623 62.5962574,86.0302425 62.5962574,84.5185893 C62.5962574,83.0069361 63.8185817,81.7814325 65.3266625,81.7814325 C66.8347433,81.7814325 68.0573508,83.0069361 68.0573508,84.5185893 C68.0573508,86.0302425 66.8347433,87.2554623 65.3266625,87.2554623 L65.3266625,87.2554623 Z M57.2082316,92.6562515 L73.4453766,92.6562515 L73.4453766,76.3806433 L57.2082316,76.3806433 L57.2082316,92.6562515 Z M27.1879359,106.37014 C25.679855,106.37014 24.4575308,105.144636 24.4575308,103.632983 C24.4575308,102.12133 25.679855,100.89611 27.1879359,100.89611 C28.6960167,100.89611 29.9186242,102.12133 29.9186242,103.632983 C29.9186242,105.144636 28.6960167,106.37014 27.1879359,106.37014 L27.1879359,106.37014 Z M19.0695049,111.770929 L35.30665,111.770929 L35.30665,95.4953207 L19.0695049,95.4953207 L19.0695049,111.770929 Z M2.4089644,109.356258 L13.8284639,109.356258 L13.8284639,97.9097077 L2.4089644,97.9097077 L2.4089644,109.356258 Z M59.7185843,109.356258 L71.1380838,109.356258 L71.1380838,97.9097077 L59.7185843,97.9097077 L59.7185843,109.356258 Z M57.3096199,111.770929 L73.546765,111.770929 L73.546765,95.4953207 L57.3096199,95.4953207 L57.3096199,111.770929 Z M43.628424,103.632983 C43.628424,105.144636 44.8507483,106.37014 46.3588291,106.37014 C47.8669099,106.37014 49.0895174,105.144636 49.0895174,103.632983 C49.0895174,102.12133 47.8669099,100.89611 46.3588291,100.89611 C44.8507483,100.89611 43.628424,102.12133 43.628424,103.632983 L43.628424,103.632983 Z M103.567061,100.89611 C105.074858,100.89611 106.297466,102.12133 106.297466,103.632983 C106.297466,105.144636 105.074858,106.37014 103.567061,106.37014 C102.05898,106.37014 100.836372,105.144636 100.836372,103.632983 C100.836372,102.12133 102.05898,100.89611 103.567061,100.89611 L103.567061,100.89611 Z M97.857311,109.356258 L109.27681,109.356258 L109.27681,97.9097077 L97.857311,97.9097077 L97.857311,109.356258 Z M78.787806,109.356258 L90.2073055,109.356258 L90.2073055,97.9097077 L78.787806,97.9097077 L78.787806,109.356258 Z M76.3791248,111.770929 L92.6162699,111.770929 L92.6162699,95.4953207 L76.3791248,95.4953207 L76.3791248,111.770929 Z M84.4975558,106.37014 C86.0056366,106.37014 87.2282441,105.144636 87.2282441,103.632983 C87.2282441,102.12133 86.0056366,100.89611 84.4975558,100.89611 C82.989475,100.89611 81.7671507,102.12133 81.7671507,103.632983 C81.7671507,105.144636 82.989475,106.37014 84.4975558,106.37014 L84.4975558,106.37014 Z M46.2574408,120.010504 C47.7655216,120.010504 48.9878459,121.236007 48.9878459,122.74766 C48.9878459,124.259314 47.7655216,125.484533 46.2574408,125.484533 C44.74936,125.484533 43.5267525,124.259314 43.5267525,122.74766 C43.5267525,121.236007 44.74936,120.010504 46.2574408,120.010504 L46.2574408,120.010504 Z M38.1387266,130.885606 L54.3758717,130.885606 L54.3758717,114.609998 L38.1387266,114.609998 L38.1387266,130.885606 Z M84.4975558,139.125181 C86.0056366,139.125181 87.2282441,140.350401 87.2282441,141.862054 C87.2282441,143.373707 86.0056366,144.599211 84.4975558,144.599211 C82.989475,144.599211 81.7671507,143.373707 81.7671507,141.862054 C81.7671507,140.350401 82.989475,139.125181 84.4975558,139.125181 L84.4975558,139.125181 Z M76.3788416,150 L92.6159867,150 L92.6159867,133.724392 L76.3788416,133.724392 L76.3788416,150 Z M21.4781861,128.470936 L32.8976856,128.470936 L32.8976856,117.024385 L21.4781861,117.024385 L21.4781861,128.470936 Z M97.857311,147.585329 L109.27681,147.585329 L109.27681,136.138779 L97.857311,136.138779 L97.857311,147.585329 Z M78.787806,128.470936 L90.2073055,128.470936 L90.2073055,117.024385 L78.787806,117.024385 L78.787806,128.470936 Z M2.4089644,128.470936 L13.8284639,128.470936 L13.8284639,117.024385 L2.4089644,117.024385 L2.4089644,128.470936 Z M0,130.885606 L16.2371451,130.885606 L16.2371451,114.609998 L0,114.609998 L0,130.885606 Z M40.547691,147.585329 L51.9671905,147.585329 L51.9671905,136.138779 L40.547691,136.138779 L40.547691,147.585329 Z M38.1387266,150 L54.3758717,150 L54.3758717,133.724392 L38.1387266,133.724392 L38.1387266,150 Z M106.196077,122.74766 C106.196077,121.236007 104.97347,120.010504 103.465389,120.010504 C101.957308,120.010504 100.734984,121.236007 100.734984,122.74766 C100.734984,124.259314 101.957308,125.484533 103.465389,125.484533 C104.97347,125.484533 106.196077,124.259314 106.196077,122.74766 L106.196077,122.74766 Z M65.3266625,139.125181 C63.8185817,139.125181 62.5962574,140.350401 62.5962574,141.862054 C62.5962574,143.373707 63.8185817,144.599211 65.3266625,144.599211 C66.8347433,144.599211 68.0573508,143.373707 68.0573508,141.862054 C68.0573508,140.350401 66.8347433,139.125181 65.3266625,139.125181 L65.3266625,139.125181 Z M8.11871414,139.125181 C9.62679495,139.125181 10.8491192,140.350401 10.8491192,141.862054 C10.8491192,143.373707 9.62679495,144.599211 8.11871414,144.599211 C6.61063332,144.599211 5.38802583,143.373707 5.38802583,141.862054 C5.38802583,140.350401 6.61063332,139.125181 8.11871414,139.125181 L8.11871414,139.125181 Z M2.4089644,147.585329 L13.8284639,147.585329 L13.8284639,136.138779 L2.4089644,136.138779 L2.4089644,147.585329 Z M65.3266625,120.010504 C63.8185817,120.010504 62.5962574,121.236007 62.5962574,122.74766 C62.5962574,124.259314 63.8185817,125.484533 65.3266625,125.484533 C66.8347433,125.484533 68.0573508,124.259314 68.0573508,122.74766 C68.0573508,121.236007 66.8347433,120.010504 65.3266625,120.010504 L65.3266625,120.010504 Z M59.6169128,128.470936 L71.0364122,128.470936 L71.0364122,117.024385 L59.6169128,117.024385 L59.6169128,128.470936 Z M57.2079484,130.885606 L73.4450934,130.885606 L73.4450934,114.609998 L57.2079484,114.609998 L57.2079484,130.885606 Z M27.1879359,139.125181 C25.679855,139.125181 24.4575308,140.350401 24.4575308,141.862054 C24.4575308,143.373707 25.679855,144.599211 27.1879359,144.599211 C28.6960167,144.599211 29.9186242,143.373707 29.9186242,141.862054 C29.9186242,140.350401 28.6960167,139.125181 27.1879359,139.125181 L27.1879359,139.125181 Z M21.4781861,147.585329 L32.8976856,147.585329 L32.8976856,136.138779 L21.4781861,136.138779 L21.4781861,147.585329 Z M19.0692217,150 L35.3063668,150 L35.3063668,133.724392 L19.0692217,133.724392 L19.0692217,150 Z M160.673621,139.125181 C162.181418,139.125181 163.404026,140.350401 163.404026,141.862054 C163.404026,143.373707 162.181418,144.599211 160.673621,144.599211 C159.16554,144.599211 157.942932,143.373707 157.942932,141.862054 C157.942932,140.350401 159.16554,139.125181 160.673621,139.125181 L160.673621,139.125181 Z M152.554907,150 L168.792052,150 L168.792052,133.724392 L152.554907,133.724392 L152.554907,150 Z M217.881569,139.125181 C216.373488,139.125181 215.150881,140.350401 215.150881,141.862054 C215.150881,143.373707 216.373488,144.599211 217.881569,144.599211 C219.38965,144.599211 220.612257,143.373707 220.612257,141.862054 C220.612257,140.350401 219.38965,139.125181 217.881569,139.125181 L217.881569,139.125181 Z M193.203986,147.585329 L204.623485,147.585329 L204.623485,136.138779 L193.203986,136.138779 L193.203986,147.585329 Z M116.825144,147.585329 L128.244644,147.585329 L128.244644,136.138779 L116.825144,136.138779 L116.825144,147.585329 Z M114.41618,150 L130.653325,150 L130.653325,133.724392 L114.41618,133.724392 L114.41618,150 Z M135.894366,147.585329 L147.313866,147.585329 L147.313866,136.138779 L135.894366,136.138779 L135.894366,147.585329 Z M179.742842,139.125181 C178.234762,139.125181 177.012437,140.350401 177.012437,141.862054 C177.012437,143.373707 178.234762,144.599211 179.742842,144.599211 C181.250923,144.599211 182.473531,143.373707 182.473531,141.862054 C182.473531,140.350401 181.250923,139.125181 179.742842,139.125181 L179.742842,139.125181 Z M174.033093,147.585329 L185.452592,147.585329 L185.452592,136.138779 L174.033093,136.138779 L174.033093,147.585329 Z M171.624128,150 L187.861273,150 L187.861273,133.724392 L171.624128,133.724392 L171.624128,150 Z M198.812347,120.010504 C200.320145,120.010504 201.542752,121.236007 201.542752,122.74766 C201.542752,124.259314 200.320145,125.484533 198.812347,125.484533 C197.304267,125.484533 196.081659,124.259314 196.081659,122.74766 C196.081659,121.236007 197.304267,120.010504 198.812347,120.010504 L198.812347,120.010504 Z M190.693633,130.885606 L206.930778,130.885606 L206.930778,114.609998 L190.693633,114.609998 L190.693633,130.885606 Z M212.171819,128.470936 L223.591319,128.470936 L223.591319,117.024385 L212.171819,117.024385 L212.171819,128.470936 Z M154.862199,128.470936 L166.281699,128.470936 L166.281699,117.024385 L154.862199,117.024385 L154.862199,128.470936 Z M152.453518,130.885323 L168.690663,130.885323 L168.690663,114.609714 L152.453518,114.609714 L152.453518,130.885323 Z M176.910766,122.74766 C176.910766,124.259314 178.133373,125.484533 179.641454,125.484533 C181.149252,125.484533 182.371859,124.259314 182.371859,122.74766 C182.371859,121.236007 181.149252,120.010504 179.641454,120.010504 C178.133373,120.010504 176.910766,121.236007 176.910766,122.74766 L176.910766,122.74766 Z M122.433223,120.010504 C123.941303,120.010504 125.163911,121.236007 125.163911,122.74766 C125.163911,124.259314 123.941303,125.484533 122.433223,125.484533 C120.925142,125.484533 119.702817,124.259314 119.702817,122.74766 C119.702817,121.236007 120.925142,120.010504 122.433223,120.010504 L122.433223,120.010504 Z M116.723473,128.470936 L128.142972,128.470936 L128.142972,117.024385 L116.723473,117.024385 L116.723473,128.470936 Z M135.792978,128.470936 L147.212477,128.470936 L147.212477,117.024385 L135.792978,117.024385 L135.792978,128.470936 Z M133.384013,130.885606 L149.621158,130.885606 L149.621158,114.609998 L133.384013,114.609998 L133.384013,130.885606 Z M141.502727,120.010504 C139.994647,120.010504 138.772039,121.236007 138.772039,122.74766 C138.772039,124.259314 139.994647,125.484533 141.502727,125.484533 C143.010525,125.484533 144.233133,124.259314 144.233133,122.74766 C144.233133,121.236007 143.010525,120.010504 141.502727,120.010504 L141.502727,120.010504 Z M179.742842,106.37014 C178.234762,106.37014 177.012154,105.144636 177.012154,103.632983 C177.012154,102.12133 178.234762,100.89611 179.742842,100.89611 C181.250923,100.89611 182.473531,102.12133 182.473531,103.632983 C182.473531,105.144636 181.250923,106.37014 179.742842,106.37014 L179.742842,106.37014 Z M171.624411,111.770929 L187.861557,111.770929 L187.861557,95.4953207 L171.624411,95.4953207 L171.624411,111.770929 Z M193.102598,90.2418645 L204.522097,90.2418645 L204.522097,78.7953141 L193.102598,78.7953141 L193.102598,90.2418645 Z M190.693633,92.6562515 L206.930778,92.6562515 L206.930778,76.3806433 L190.693633,76.3806433 L190.693633,92.6562515 Z M116.723473,90.2418645 L128.142972,90.2418645 L128.142972,78.7953141 L116.723473,78.7953141 L116.723473,90.2418645 Z M174.033093,90.2418645 L185.452592,90.2418645 L185.452592,78.7953141 L174.033093,78.7953141 L174.033093,90.2418645 Z M171.624411,92.6562515 L187.861557,92.6562515 L187.861557,76.3806433 L171.624411,76.3806433 L171.624411,92.6562515 Z M198.812064,87.2554623 C200.320145,87.2554623 201.542752,86.0302425 201.542752,84.5185893 C201.542752,83.0069361 200.320145,81.7814325 198.812064,81.7814325 C197.304267,81.7814325 196.081659,83.0069361 196.081659,84.5185893 C196.081659,86.0302425 197.304267,87.2554623 198.812064,87.2554623 L198.812064,87.2554623 Z M163.404026,84.5185893 C163.404026,83.0069361 162.181418,81.7814325 160.673338,81.7814325 C159.16554,81.7814325 157.942932,83.0069361 157.942932,84.5185893 C157.942932,86.0302425 159.16554,87.2554623 160.673338,87.2554623 C162.181418,87.2554623 163.404026,86.0302425 163.404026,84.5185893 L163.404026,84.5185893 Z M141.502727,87.2554623 C139.994647,87.2554623 138.772039,86.0302425 138.772039,84.5185893 C138.772039,83.0069361 139.994647,81.7814325 141.502727,81.7814325 C143.010525,81.7814325 144.233133,83.0069361 144.233133,84.5185893 C144.233133,86.0302425 143.010525,87.2554623 141.502727,87.2554623 L141.502727,87.2554623 Z M133.384013,92.6562515 L149.621158,92.6562515 L149.621158,76.3806433 L133.384013,76.3806433 L133.384013,92.6562515 Z M217.881569,81.7814325 C219.38965,81.7814325 220.612257,83.0069361 220.612257,84.5185893 C220.612257,86.0302425 219.38965,87.2554623 217.881569,87.2554623 C216.373488,87.2554623 215.150881,86.0302425 215.150881,84.5185893 C215.150881,83.0069361 216.373488,81.7814325 217.881569,81.7814325 L217.881569,81.7814325 Z M212.171819,90.2418645 L223.591319,90.2418645 L223.591319,78.7953141 L212.171819,78.7953141 L212.171819,90.2418645 Z M193.102598,109.356258 L204.522097,109.356258 L204.522097,97.9097077 L193.102598,97.9097077 L193.102598,109.356258 Z M135.792978,109.356258 L147.212477,109.356258 L147.212477,97.9097077 L135.792978,97.9097077 L135.792978,109.356258 Z M212.171819,109.356258 L223.591319,109.356258 L223.591319,97.9097077 L212.171819,97.9097077 L212.171819,109.356258 Z M209.762855,111.770929 L226,111.770929 L226,95.4953207 L209.762855,95.4953207 L209.762855,111.770929 Z M119.804206,103.632983 C119.804206,105.144636 121.026813,106.37014 122.534894,106.37014 C124.042692,106.37014 125.265299,105.144636 125.265299,103.632983 C125.265299,102.12133 124.042692,100.89611 122.534894,100.89611 C121.026813,100.89611 119.804206,102.12133 119.804206,103.632983 L119.804206,103.632983 Z M154.963871,109.356258 L166.38337,109.356258 L166.38337,97.9097077 L154.963871,97.9097077 L154.963871,109.356258 Z M152.554907,111.770929 L168.792052,111.770929 L168.792052,95.4953207 L152.554907,95.4953207 L152.554907,111.770929 Z M160.673621,100.89611 C159.16554,100.89611 157.942932,102.12133 157.942932,103.632983 C157.942932,105.144636 159.16554,106.37014 160.673621,106.37014 C162.181418,106.37014 163.404026,105.144636 163.404026,103.632983 C163.404026,102.12133 162.181418,100.89611 160.673621,100.89611 L160.673621,100.89611 Z M174.033093,71.2046859 L185.452592,71.2046859 L185.452592,59.7581355 L174.033093,59.7581355 L174.033093,71.2046859 Z M171.624128,73.6193567 L187.861273,73.6193567 L187.861273,57.3437485 L171.624128,57.3437485 L171.624128,73.6193567 Z M160.673621,62.7445377 C162.181418,62.7445377 163.404026,63.9697575 163.404026,65.4814107 C163.404026,66.9930639 162.181418,68.2182837 160.673621,68.2182837 C159.16554,68.2182837 157.942932,66.9930639 157.942932,65.4814107 C157.942932,63.9697575 159.16554,62.7445377 160.673621,62.7445377 L160.673621,62.7445377 Z M152.554907,73.6193567 L168.792052,73.6193567 L168.792052,57.3437485 L152.554907,57.3437485 L152.554907,73.6193567 Z M135.894366,71.2046859 L147.313866,71.2046859 L147.313866,59.7581355 L135.894366,59.7581355 L135.894366,71.2046859 Z M179.742842,62.7445377 C178.234762,62.7445377 177.012437,63.9697575 177.012437,65.4814107 C177.012437,66.9930639 178.234762,68.2182837 179.742842,68.2182837 C181.250923,68.2182837 182.473531,66.9930639 182.473531,65.4814107 C182.473531,63.9697575 181.250923,62.7445377 179.742842,62.7445377 L179.742842,62.7445377 Z M215.150881,65.4814107 C215.150881,66.9930639 216.373488,68.2182837 217.881569,68.2182837 C219.38965,68.2182837 220.612257,66.9930639 220.612257,65.4814107 C220.612257,63.9697575 219.38965,62.7445377 217.881569,62.7445377 C216.373488,62.7445377 215.150881,63.9697575 215.150881,65.4814107 L215.150881,65.4814107 Z M193.203986,71.2046859 L204.623485,71.2046859 L204.623485,59.7581355 L193.203986,59.7581355 L193.203986,71.2046859 Z M116.825144,71.2046859 L128.244644,71.2046859 L128.244644,59.7581355 L116.825144,59.7581355 L116.825144,71.2046859 Z M114.41618,73.6193567 L130.653325,73.6193567 L130.653325,57.3437485 L114.41618,57.3437485 L114.41618,73.6193567 Z M198.812347,43.6298602 C200.320145,43.6298602 201.542752,44.8553639 201.542752,46.3670171 C201.542752,47.8783864 200.320145,49.1038901 198.812347,49.1038901 C197.304267,49.1038901 196.081659,47.8783864 196.081659,46.3670171 C196.081659,44.8553639 197.304267,43.6298602 198.812347,43.6298602 L198.812347,43.6298602 Z M190.693633,54.5046793 L206.930778,54.5046793 L206.930778,38.2290711 L190.693633,38.2290711 L190.693633,54.5046793 Z M212.171819,52.0902923 L223.591319,52.0902923 L223.591319,40.6437419 L212.171819,40.6437419 L212.171819,52.0902923 Z M154.862199,52.0900084 L166.281699,52.0900084 L166.281699,40.643458 L154.862199,40.643458 L154.862199,52.0900084 Z M152.453518,54.5046793 L168.690663,54.5046793 L168.690663,38.2290711 L152.453518,38.2290711 L152.453518,54.5046793 Z M176.910766,46.3670171 C176.910766,47.8783864 178.133373,49.1038901 179.641454,49.1038901 C181.149252,49.1038901 182.371859,47.8783864 182.371859,46.3670171 C182.371859,44.8553639 181.149252,43.6298602 179.641454,43.6298602 C178.133373,43.6298602 176.910766,44.8553639 176.910766,46.3670171 L176.910766,46.3670171 Z M122.433223,49.1038901 C120.925142,49.1038901 119.702817,47.8783864 119.702817,46.3670171 C119.702817,44.8553639 120.925142,43.6298602 122.433223,43.6298602 C123.941303,43.6298602 125.163911,44.8553639 125.163911,46.3670171 C125.163911,47.8783864 123.941303,49.1038901 122.433223,49.1038901 L122.433223,49.1038901 Z M116.723473,52.0902923 L128.142972,52.0902923 L128.142972,40.6437419 L116.723473,40.6437419 L116.723473,52.0902923 Z M135.792978,52.0902923 L147.212477,52.0902923 L147.212477,40.6437419 L135.792978,40.6437419 L135.792978,52.0902923 Z M133.384013,54.5046793 L149.621158,54.5046793 L149.621158,38.2290711 L133.384013,38.2290711 L133.384013,54.5046793 Z M141.502727,43.6298602 C139.994647,43.6298602 138.772039,44.8553639 138.772039,46.3670171 C138.772039,47.8783864 139.994647,49.1038901 141.502727,49.1038901 C143.010525,49.1038901 144.233133,47.8783864 144.233133,46.3670171 C144.233133,44.8553639 143.010525,43.6298602 141.502727,43.6298602 L141.502727,43.6298602 Z M179.742842,29.9892126 C178.234762,29.9892126 177.012154,28.7639928 177.012154,27.2523396 C177.012154,25.7406864 178.234762,24.5154666 179.742842,24.5154666 C181.250923,24.5154666 182.473531,25.7406864 182.473531,27.2523396 C182.473531,28.7639928 181.250923,29.9892126 179.742842,29.9892126 L179.742842,29.9892126 Z M171.624411,35.3900018 L187.861557,35.3900018 L187.861557,19.1143936 L171.624411,19.1143936 L171.624411,35.3900018 Z M141.502727,10.874819 C139.994647,10.874819 138.772039,9.64931538 138.772039,8.13794604 C138.772039,6.62629283 139.994647,5.40078918 141.502727,5.40078918 C143.010525,5.40078918 144.233133,6.62629283 144.233133,8.13794604 C144.233133,9.64931538 143.010525,10.874819 141.502727,10.874819 L141.502727,10.874819 Z M133.384013,16.2756082 L149.621158,16.2756082 L149.621158,0 L133.384013,0 L133.384013,16.2756082 Z M193.102598,32.9756148 L204.522097,32.9756148 L204.522097,21.5290644 L193.102598,21.5290644 L193.102598,32.9756148 Z M116.723473,13.8612212 L128.142972,13.8612212 L128.142972,2.41467084 L116.723473,2.41467084 L116.723473,13.8612212 Z M135.792978,32.9756148 L147.212477,32.9756148 L147.212477,21.5290644 L135.792978,21.5290644 L135.792978,32.9756148 Z M212.171819,32.9756148 L223.591319,32.9756148 L223.591319,21.5290644 L212.171819,21.5290644 L212.171819,32.9756148 Z M209.762855,35.3902857 L226,35.3902857 L226,19.1146775 L209.762855,19.1146775 L209.762855,35.3902857 Z M174.033093,13.8609374 L185.452592,13.8609374 L185.452592,2.41438696 L174.033093,2.41438696 L174.033093,13.8609374 Z M171.624411,16.2756082 L187.861557,16.2756082 L187.861557,0 L171.624411,0 L171.624411,16.2756082 Z M119.804206,27.2523396 C119.804206,28.7639928 121.026813,29.9892126 122.534894,29.9892126 C124.042692,29.9892126 125.265299,28.7639928 125.265299,27.2523396 C125.265299,25.7406864 124.042692,24.5154666 122.534894,24.5154666 C121.026813,24.5154666 119.804206,25.7406864 119.804206,27.2523396 L119.804206,27.2523396 Z M160.673338,10.874819 C162.181418,10.874819 163.404026,9.64931538 163.404026,8.13794604 C163.404026,6.62629283 162.181418,5.40078918 160.673338,5.40078918 C159.16554,5.40078918 157.942932,6.62629283 157.942932,8.13794604 C157.942932,9.64931538 159.16554,10.874819 160.673338,10.874819 L160.673338,10.874819 Z M217.881569,10.874819 C216.373488,10.874819 215.150881,9.64931538 215.150881,8.13794604 C215.150881,6.62629283 216.373488,5.40078918 217.881569,5.40078918 C219.38965,5.40078918 220.612257,6.62629283 220.612257,8.13794604 C220.612257,9.64931538 219.38965,10.874819 217.881569,10.874819 L217.881569,10.874819 Z M212.171819,13.8612212 L223.591319,13.8612212 L223.591319,2.41467084 L212.171819,2.41467084 L212.171819,13.8612212 Z M154.963871,32.9756148 L166.38337,32.9756148 L166.38337,21.5290644 L154.963871,21.5290644 L154.963871,32.9756148 Z M152.554907,35.3900018 L168.792052,35.3900018 L168.792052,19.1143936 L152.554907,19.1143936 L152.554907,35.3900018 Z M160.673621,29.9892126 C162.181418,29.9892126 163.404026,28.7639928 163.404026,27.2523396 C163.404026,25.7406864 162.181418,24.5154666 160.673621,24.5154666 C159.16554,24.5154666 157.942932,25.7406864 157.942932,27.2523396 C157.942932,28.7639928 159.16554,29.9892126 160.673621,29.9892126 L160.673621,29.9892126 Z M198.812064,10.874819 C200.320145,10.874819 201.542752,9.64931538 201.542752,8.13794604 C201.542752,6.62629283 200.320145,5.40078918 198.812064,5.40078918 C197.304267,5.40078918 196.081659,6.62629283 196.081659,8.13794604 C196.081659,9.64931538 197.304267,10.874819 198.812064,10.874819 L198.812064,10.874819 Z M193.102598,13.8609374 L204.522097,13.8609374 L204.522097,2.41438696 L193.102598,2.41438696 L193.102598,13.8609374 Z M190.693633,16.2756082 L206.930778,16.2756082 L206.930778,0 L190.693633,0 L190.693633,16.2756082 Z" id="Page-1"/>
        </g>
    </g>
</svg>