<svg xmlns="http://www.w3.org/2000/svg" width="1500" height="1500">
  <g fill="#D2DCEA" fill-rule="evenodd">
    <path d="M236.28 211.24l-19.14-25.94 8.65-6.38 23.86 32.32-23.86 32.31-8.65-6.38 19.14-25.93zm-26.88 0l-19.15-25.94 8.66-6.38 23.86 32.32-23.86 32.31-8.66-6.38 19.15-25.93zm-26.88 0l-19.15-25.94 8.65-6.38 23.87 32.32-23.87 32.31-8.65-6.38 19.15-25.93zM1329.36 1309.95l-19.15-25.93 8.65-6.39 23.87 32.32-23.87 32.32-8.65-6.39 19.15-25.93zm-26.88 0l-19.15-25.93 8.65-6.39 23.86 32.32-23.86 32.32-8.65-6.39 19.15-25.93zm-26.88 0l-19.15-25.93 8.65-6.39 23.86 32.32-23.86 32.32-8.65-6.39 19.15-25.93zM1240.75 1161.69l-19.15-25.93 8.65-6.38 23.86 32.31-23.86 32.32-8.65-6.38 19.15-25.94zm-26.88 0l-19.15-25.93 8.65-6.38 23.86 32.31-23.86 32.32-8.65-6.38 19.15-25.94zm-26.89 0l-19.14-25.93 8.65-6.38 23.86 32.31-23.86 32.32-8.65-6.38 19.14-25.94zM224.52 25.66L243.47 0h13.36l-23.66 32.04-8.65-6.38zm-26.88 0L216.6 0h13.36L206.3 32.04l-8.65-6.38zm-26.88 0L189.7 0h13.37l-23.66 32.04-8.65-6.38zM814.71 272.6l-19.14-25.93 8.65-6.39 23.86 32.32-23.86 32.32-8.65-6.39 19.14-25.93zm-26.88 0l-19.14-25.93 8.65-6.39 23.86 32.32-23.86 32.32-8.65-6.39 19.14-25.93zm-26.88 0l-19.15-25.93 8.66-6.39 23.86 32.32-23.87 32.32-8.65-6.39 19.15-25.93zM611.96 202.32l-19.14-25.93 8.64-6.4 23.87 32.33-23.87 32.31-8.64-6.38 19.14-25.93zm-26.88 0l-19.15-25.93 8.65-6.4 23.87 32.33-23.87 32.31-8.65-6.38 19.15-25.93zm-26.88 0l-19.15-25.93 8.65-6.4 23.87 32.33-23.87 32.31-8.65-6.38 19.15-25.93zM811.13 957.02l6.38-8.65 25.94 19.15 25.93-19.15 6.38 8.65-32.31 23.87-32.32-23.87zm0-26.88l6.38-8.65 25.94 19.15 25.93-19.15 6.38 8.65L843.45 954l-32.32-23.86zm0-26.88l6.38-8.65 25.94 19.15 25.93-19.15 6.38 8.65-32.31 23.86-32.32-23.86zM952.3 1127.15l6.39-8.65 25.93 19.15 25.93-19.15 6.39 8.65-32.32 23.87-32.32-23.87zm0-26.88l6.39-8.65 25.93 19.15 25.93-19.15 6.39 8.65-32.32 23.87-32.32-23.87zm0-26.88l6.39-8.65 25.93 19.15 25.93-19.15 6.39 8.65-32.32 23.86-32.32-23.86zM1350 84.57l6.38-8.65 25.94 19.14 25.93-19.14 6.38 8.65-32.31 23.86L1350 84.57zm0-26.88l6.38-8.66 25.94 19.15 25.93-19.15 6.38 8.66-32.31 23.86L1350 57.69zm0-26.89l6.38-8.65 25.94 19.15 25.93-19.15 6.38 8.65-32.31 23.87L1350 30.8zM689.3 655.6l6.4-8.65 25.93 19.15 25.93-19.15 6.39 8.65-32.32 23.86-32.32-23.86zm0-26.88l6.4-8.65 25.93 19.15 25.93-19.15 6.39 8.65-32.32 23.86-32.32-23.86zm0-26.88l6.4-8.65 25.93 19.14 25.93-19.14 6.39 8.65-32.32 23.86-32.32-23.86zM1470.48 1027.23l25.93-19.15 3.59 4.87v5.84l-29.52 21.8-32.32-23.86 6.38-8.65 25.94 19.15zm0-26.89l25.93-19.14 3.59 4.86v5.85l-29.52 21.8-32.32-23.86 6.38-8.65 25.94 19.14zm0-26.88l25.93-19.14 3.59 4.86v5.85l-29.52 21.8-32.32-23.86 6.38-8.65 25.94 19.14zM614.22 964.29l6.39-8.65 25.93 19.14 25.93-19.14 6.39 8.65-32.32 23.86-32.32-23.86zm0-26.88l6.39-8.65 25.93 19.14 25.93-19.14 6.39 8.65-32.32 23.86-32.32-23.86zm0-26.89l6.39-8.65 25.93 19.15 25.93-19.15 6.39 8.65-32.32 23.87-32.32-23.87zM1071.21 1420.84c0 11.85-9.64 21.5-21.5 21.5a21.53 21.53 0 0 1-21.51-21.5 21.54 21.54 0 0 1 21.51-21.51c11.86 0 21.5 9.65 21.5 21.51zm-53.76 0a32.3 32.3 0 0 0 32.26 32.25 32.3 32.3 0 0 0 32.26-32.25 32.3 32.3 0 0 0-32.26-32.26 32.3 32.3 0 0 0-32.26 32.26zM165.3 1415.07c0 11.86-9.64 21.5-21.5 21.5a21.52 21.52 0 0 1-21.5-21.5 21.53 21.53 0 0 1 21.5-21.51c11.86 0 21.5 9.65 21.5 21.51zm-53.76 0a32.3 32.3 0 0 0 32.26 32.26 32.3 32.3 0 0 0 32.26-32.26 32.3 32.3 0 0 0-32.26-32.26 32.3 32.3 0 0 0-32.26 32.26zM1180.57 161.3c0 11.85-9.65 21.5-21.51 21.5a21.53 21.53 0 0 1-21.5-21.5c0-11.86 9.65-21.5 21.5-21.5a21.53 21.53 0 0 1 21.51 21.5zm-53.76 0a32.3 32.3 0 0 0 32.25 32.25 32.3 32.3 0 0 0 32.26-32.25 32.3 32.3 0 0 0-32.26-32.26 32.3 32.3 0 0 0-32.25 32.26zM1297.31 812.5c0 11.87-9.65 21.51-21.51 21.51a21.52 21.52 0 0 1-21.5-21.5c0-11.86 9.64-21.5 21.5-21.5a21.53 21.53 0 0 1 21.51 21.5zm-53.77 0a32.3 32.3 0 0 0 32.26 32.26 32.3 32.3 0 0 0 32.26-32.25 32.3 32.3 0 0 0-32.26-32.26 32.3 32.3 0 0 0-32.26 32.26zM321.16 1022.66a21.53 21.53 0 0 1-21.5 21.51 21.53 21.53 0 0 1-21.51-21.51c0-11.86 9.64-21.5 21.5-21.5s21.5 9.64 21.5 21.5zm-53.77 0a32.3 32.3 0 0 0 32.26 32.26 32.3 32.3 0 0 0 32.26-32.26 32.3 32.3 0 0 0-32.26-32.26 32.3 32.3 0 0 0-32.26 32.26zM869.95 390.57c0 11.86-9.64 21.5-21.5 21.5a21.53 21.53 0 0 1-21.5-21.5c0-11.86 9.64-21.5 21.5-21.5s21.5 9.64 21.5 21.5zm-53.76 0a32.3 32.3 0 0 0 32.26 32.26 32.3 32.3 0 0 0 32.26-32.26 32.3 32.3 0 0 0-32.26-32.26 32.3 32.3 0 0 0-32.26 32.26zM640.95 699.37c0 11.86-9.64 21.5-21.5 21.5a21.53 21.53 0 0 1-21.5-21.5c0-11.86 9.64-21.5 21.5-21.5s21.5 9.64 21.5 21.5zm-53.76 0a32.3 32.3 0 0 0 32.26 32.25 32.3 32.3 0 0 0 32.26-32.25 32.3 32.3 0 0 0-32.26-32.26 32.3 32.3 0 0 0-32.26 32.26zM960.48 453.6c0 11.85-9.64 21.5-21.5 21.5a21.53 21.53 0 0 1-21.5-21.5c0-11.87 9.64-21.51 21.5-21.51s21.5 9.64 21.5 21.5zm-53.76 0a32.3 32.3 0 0 0 32.26 32.25 32.3 32.3 0 0 0 32.26-32.26 32.3 32.3 0 0 0-32.26-32.26 32.3 32.3 0 0 0-32.26 32.26zM607.65 497.3c0 11.86-9.65 21.51-21.5 21.51a21.53 21.53 0 0 1-21.51-21.5c0-11.86 9.65-21.5 21.5-21.5 11.86 0 21.51 9.64 21.51 21.5zm-53.76 0a32.3 32.3 0 0 0 32.25 32.26 32.3 32.3 0 0 0 32.26-32.25 32.3 32.3 0 0 0-32.25-32.26 32.3 32.3 0 0 0-32.26 32.26zM709.42 351.55c0 11.86-9.65 21.5-21.5 21.5a21.53 21.53 0 0 1-21.51-21.5c0-11.86 9.65-21.5 21.5-21.5 11.86 0 21.51 9.64 21.51 21.5zm-53.76 0a32.3 32.3 0 0 0 32.25 32.26 32.3 32.3 0 0 0 32.26-32.26 32.3 32.3 0 0 0-32.25-32.26 32.3 32.3 0 0 0-32.26 32.26zM247.27 849.8c0 11.86-9.64 21.5-21.5 21.5a21.53 21.53 0 0 1-21.5-21.5c0-11.86 9.64-21.5 21.5-21.5s21.5 9.64 21.5 21.5zm-53.76 0a32.3 32.3 0 0 0 32.26 32.26 32.3 32.3 0 0 0 32.26-32.26 32.3 32.3 0 0 0-32.26-32.26 32.3 32.3 0 0 0-32.26 32.26zM913.7 1192.85c0 11.85-9.66 21.5-21.51 21.5a21.53 21.53 0 0 1-21.5-21.5 21.53 21.53 0 0 1 21.5-21.51c11.85 0 21.5 9.65 21.5 21.51zm-53.77 0a32.3 32.3 0 0 0 32.26 32.25 32.3 32.3 0 0 0 32.25-32.25 32.3 32.3 0 0 0-32.25-32.26 32.3 32.3 0 0 0-32.26 32.26zM342.33 449.6c0 11.86-9.65 21.5-21.5 21.5v10.76a32.3 32.3 0 0 0 32.25-32.26 32.3 32.3 0 0 0-32.26-32.25v10.75c11.86 0 21.5 9.64 21.5 21.5M1436.64 1245.22c0 11.86-9.65 21.5-21.5 21.5v10.75a32.29 32.29 0 0 0 32.25-32.25 32.3 32.3 0 0 0-32.25-32.26v10.75c11.85 0 21.5 9.65 21.5 21.51M134.84 1104.25a21.53 21.53 0 0 1-21.5 21.51v10.75a32.3 32.3 0 0 0 32.26-32.26 32.3 32.3 0 0 0-32.26-32.26v10.76c11.86 0 21.5 9.64 21.5 21.5M363.9 347.14c0 11.86-9.65 21.5-21.5 21.5v10.76a32.3 32.3 0 0 0 32.25-32.26 32.3 32.3 0 0 0-32.25-32.25v10.75c11.85 0 21.5 9.65 21.5 21.5M1431.5 11.5v10.76A32.3 32.3 0 0 0 1462.15 0h-11.63a21.5 21.5 0 0 1-19.02 11.5M78.75 318.77c0 11.86-9.65 21.5-21.5 21.5v10.76a32.3 32.3 0 0 0 32.25-32.26 32.3 32.3 0 0 0-32.25-32.26v10.76c11.85 0 21.5 9.64 21.5 21.5M845.32 732.39a32.3 32.3 0 0 0 32.26 32.26V753.9a21.53 21.53 0 0 1-21.5-21.51c0-11.86 9.64-21.5 21.5-21.5v-10.76a32.3 32.3 0 0 0-32.26 32.26M949.01 930.2a32.3 32.3 0 0 0 32.26 32.26v-10.75a21.53 21.53 0 0 1-21.5-21.5c0-11.86 9.64-21.5 21.5-21.5v-10.76a32.3 32.3 0 0 0-32.26 32.26M147.85 402.02a32.3 32.3 0 0 0 32.25 32.26v-10.75a21.53 21.53 0 0 1-21.5-21.5c0-11.86 9.65-21.51 21.5-21.51v-10.75a32.3 32.3 0 0 0-32.25 32.25M528.84 329.9a32.3 32.3 0 0 0 32.26 32.25V351.4a21.53 21.53 0 0 1-21.5-21.5c0-11.86 9.64-21.51 21.5-21.51v-10.75a32.3 32.3 0 0 0-32.26 32.25M634.54 815.78a32.3 32.3 0 0 0 32.26 32.26v-10.76a21.53 21.53 0 0 1-21.5-21.5c0-11.86 9.64-21.5 21.5-21.5v-10.76a32.3 32.3 0 0 0-32.26 32.26M542.5 873a32.3 32.3 0 0 0 32.26 32.26v-10.75a21.53 21.53 0 0 1-21.5-21.5c0-11.87 9.65-21.51 21.5-21.51v-10.75A32.3 32.3 0 0 0 542.51 873M484.37 986.21h10.75c0-11.86 9.65-21.5 21.5-21.5 11.87 0 21.51 9.64 21.51 21.5h10.75a32.3 32.3 0 0 0-32.25-32.25 32.3 32.3 0 0 0-32.26 32.25M1300.53 1144.69h10.75c0-11.86 9.65-21.5 21.5-21.5a21.53 21.53 0 0 1 21.51 21.5h10.75a32.3 32.3 0 0 0-32.26-32.26 32.3 32.3 0 0 0-32.25 32.26M14.19 244.93h10.75A32.3 32.3 0 0 0 0 213.54v11.2a21.52 21.52 0 0 1 14.19 20.19M1473.89 677.37h10.76c0-9.72 6.48-17.94 15.35-20.6v-11.05a32.3 32.3 0 0 0-26.11 31.65M1234.47 230.73h10.75c0-11.86 9.65-21.5 21.5-21.5a21.53 21.53 0 0 1 21.51 21.5h10.75a32.3 32.3 0 0 0-32.26-32.26 32.3 32.3 0 0 0-32.25 32.26M926.3 368.57h10.76c0-11.86 9.65-21.5 21.5-21.5 11.86 0 21.5 9.64 21.5 21.5h10.76a32.3 32.3 0 0 0-32.26-32.26 32.3 32.3 0 0 0-32.25 32.26M731.8 1052.5h10.75a21.53 21.53 0 0 1 21.51-21.51c11.86 0 21.5 9.65 21.5 21.51h10.76a32.3 32.3 0 0 0-32.26-32.26 32.3 32.3 0 0 0-32.26 32.26M1253.99 1431.49h10.75a21.53 21.53 0 0 1 21.5-21.51 21.54 21.54 0 0 1 21.51 21.51h10.75a32.3 32.3 0 0 0-32.26-32.26 32.3 32.3 0 0 0-32.25 32.26M923.5 168.31h10.75c0-11.85 9.65-21.5 21.5-21.5 11.87 0 21.51 9.65 21.51 21.5h10.76a32.3 32.3 0 0 0-32.26-32.25 32.3 32.3 0 0 0-32.26 32.25M1185.56 685.01h10.75c0-11.86 9.65-21.5 21.51-21.5 11.85 0 21.5 9.64 21.5 21.5h10.75a32.3 32.3 0 0 0-32.25-32.25 32.3 32.3 0 0 0-32.26 32.25M1017.72 210.78h10.75c0-11.86 9.65-21.5 21.51-21.5 11.86 0 21.5 9.64 21.5 21.5h10.76a32.3 32.3 0 0 0-32.26-32.26 32.3 32.3 0 0 0-32.26 32.26M798.67 1262.05a32.3 32.3 0 0 0 32.26-32.25h-10.75c0 11.85-9.65 21.5-21.5 21.5a21.53 21.53 0 0 1-21.51-21.5h-10.75a32.3 32.3 0 0 0 32.25 32.25M927.17 85.48a32.3 32.3 0 0 0 32.26-32.25h-10.76c0 11.85-9.64 21.5-21.5 21.5a21.53 21.53 0 0 1-21.5-21.5H894.9a32.3 32.3 0 0 0 32.26 32.25M39.6 155.75a32.3 32.3 0 0 0 32.26-32.26H61.11c0 11.86-9.65 21.5-21.5 21.5a21.53 21.53 0 0 1-21.51-21.5H7.35a32.3 32.3 0 0 0 32.25 32.26M996.58 616.2a32.3 32.3 0 0 0 32.26-32.25h-10.75c0 11.86-9.65 21.5-21.5 21.5a21.53 21.53 0 0 1-21.51-21.5h-10.75a32.3 32.3 0 0 0 32.25 32.26M362.58 839.26A32.3 32.3 0 0 0 394.83 807h-10.75c0 11.86-9.64 21.5-21.5 21.5a21.53 21.53 0 0 1-21.5-21.5h-10.76a32.3 32.3 0 0 0 32.26 32.26M762.15 1436.03a32.3 32.3 0 0 0 32.26-32.25h-10.76c0 11.85-9.64 21.5-21.5 21.5a21.53 21.53 0 0 1-21.5-21.5h-10.76a32.3 32.3 0 0 0 32.26 32.25M92.69 233.1a32.3 32.3 0 0 0 32.26-32.26h-10.76c0 11.85-9.64 21.5-21.5 21.5a21.53 21.53 0 0 1-21.5-21.5H60.42a32.3 32.3 0 0 0 32.26 32.25M1446.77 1356.11a32.29 32.29 0 0 0 32.25-32.25h-10.75c0 11.85-9.64 21.5-21.5 21.5a21.53 21.53 0 0 1-21.51-21.5h-10.75a32.3 32.3 0 0 0 32.26 32.25M1181.37 1067.31a32.3 32.3 0 0 0 32.26-32.26h-10.76a21.53 21.53 0 0 1-21.5 21.51 21.54 21.54 0 0 1-21.51-21.51h-10.75a32.3 32.3 0 0 0 32.26 32.26M120.6 73.01a32.3 32.3 0 0 0 32.26-32.26H142.1c0 11.86-9.64 21.51-21.5 21.51a21.53 21.53 0 0 1-21.5-21.5H88.33A32.3 32.3 0 0 0 120.6 73M915.1 556.14a32.3 32.3 0 0 0 32.26-32.26h-10.75c0 11.86-9.65 21.5-21.5 21.5a21.53 21.53 0 0 1-21.51-21.5h-10.75a32.3 32.3 0 0 0 32.25 32.26M268.25 543.2a32.3 32.3 0 0 0 32.25-32.25h-10.75c0 11.85-9.64 21.5-21.5 21.5a21.53 21.53 0 0 1-21.5-21.5h-10.76a32.3 32.3 0 0 0 32.26 32.26M373.2 1409.25v-21.5h10.76v21.5h21.5V1420h-21.5v21.51H373.2V1420h-21.5v-10.75h21.5zM710.87 522.79v-21.5h10.75v21.5h21.5v10.75h-21.5v21.5h-10.75v-21.5h-21.51v-10.75h21.5zM653.15 1383.28v-21.51h10.76v21.51h21.5v10.75h-21.5v21.51h-10.75v-21.51h-21.51v-10.75h21.5zM688.13 1292.73v-21.5h10.75v21.5h21.5v10.76h-21.5v21.5h-10.75v-21.5h-21.5v-10.76h21.5zM1162.46 1372.92v-21.51h10.75v21.51h21.51v10.75h-21.51v21.51h-10.75v-21.51h-21.51v-10.75h21.51zM944.1 244.5v-21.51h10.76v21.5h21.5v10.75h-21.5v21.51H944.1v-21.5h-21.5v-10.76h21.5zM651.16 1499.94h53.76v-3.1h-53.76z"/>
    <path d="M672.66 1499.94h10.76v-24.6h-10.76zM142.06 1202.06v-21.5h10.76v21.5h21.5v10.76h-21.5v21.5h-10.76v-21.5h-21.5v-10.76zM1393.42 771.9v-21.5h10.75v21.5h21.51v10.76h-21.51v21.5h-10.75v-21.5h-21.51V771.9zM575.56 36.27V14.76h10.75v21.51h21.51v10.75h-21.51v21.5h-10.75v-21.5h-21.51V36.27zM489.73 698.45v-21.51h10.75v21.51h21.5v10.75h-21.5v21.51h-10.75V709.2h-21.51v-10.75zM1353.14 1011.94v-21.51h10.75v21.51h21.5v10.75h-21.5v21.51h-10.75v-21.51h-21.51v-10.75zM1090.62 636.79v-21.5h10.75v21.5h21.51v10.76h-21.51v21.5h-10.75v-21.5h-21.5v-10.76zM468.2 1270.03v-21.5h10.76v21.5h21.5v10.76h-21.5v21.5H468.2v-21.5h-21.5v-10.76zM1085 1183.1v-21.51h10.76v21.51h21.5v10.75h-21.5v21.5H1085v-21.5h-21.5v-10.75zM377.14 666.81v-21.5h10.75v21.5h21.51v10.75h-21.51v21.51h-10.75v-21.51h-21.51v-10.75zM1022.48 415.13v-21.51h10.75v21.51h21.51v10.75h-21.51v21.51h-10.75v-21.51h-21.5v-10.75zM0 525.69h14.5v-10.76H0zM939.25 709.37v-21.5H950v21.5h21.51v10.75H950v21.51h-10.75v-21.51h-21.51v-10.75zM94.81 815.42v-21.5h10.76v21.5h21.5v10.76h-21.5v21.5H94.81v-21.5h-21.5v-10.76zM1181.95 272.44v-21.5h10.75v21.5h21.51v10.75h-21.51v21.51h-10.75v-21.51h-21.51v-10.75zM1082.44 1296.47v-21.5h10.75v21.5h21.51v10.76h-21.51v21.5h-10.75v-21.5h-21.51v-10.76zM556 1326.36v-21.51h10.76v21.51h21.5v10.75h-21.5v21.51H556v-21.51h-21.5v-10.75zM381.81 106V84.49h10.75V106h21.5v10.75h-21.5v21.51h-10.75v-21.51H360.3V106zM364.82 1228.11l-16.36-16.36 7.6-7.61 16.36 16.36 16.36-16.36 7.61 7.61-16.36 16.36 16.36 16.36-7.61 7.6-16.36-16.36-16.36 16.36-7.6-7.6zM1380.92 355.62l-16.36-16.36 7.6-7.6 16.36 16.36 16.36-16.36 7.6 7.6-16.36 16.36 16.36 16.36-7.6 7.6-16.36-16.36-16.36 16.36-7.6-7.6zM1323.71 518.86l-16.36-16.36 7.6-7.6 16.36 16.36 16.36-16.36 7.6 7.6-16.36 16.36 16.36 16.36-7.6 7.6-16.36-16.36-16.36 16.36-7.6-7.6zM278.35 617.38l-16.36-16.36 7.61-7.6 16.36 16.36 16.35-16.36 7.61 7.6-16.36 16.36 16.36 16.36-7.61 7.6-16.35-16.36-16.36 16.36-7.61-7.6zM3.92 1111.3L0 1115.21v15.21l11.52-11.52-7.6-7.6M11.52 1151.62L0 1140.1v15.21l3.92 3.91 7.6-7.6M671.24 446.46l-16.36-16.36 7.61-7.6 16.36 16.36 16.36-16.36 7.6 7.6-16.36 16.36 16.36 16.36-7.6 7.61-16.36-16.36-16.36 16.36-7.61-7.61zM153.5 519.85l-16.36-16.36 7.61-7.6 16.35 16.36 16.36-16.36 7.61 7.6-16.36 16.36 16.36 16.36-7.61 7.61-16.36-16.36-16.35 16.36-7.61-7.61 16.36-16.36zM284.73 273.25l-16.36-16.36 7.6-7.6 16.36 16.36 16.36-16.36 7.6 7.6-16.36 16.36 16.36 16.36-7.6 7.6-16.36-16.36-16.36 16.36-7.6-7.6zM467.31 160.06l-16.36-16.36 7.6-7.61 16.36 16.36 16.36-16.36 7.6 7.61-16.36 16.36 16.36 16.36-7.6 7.6-16.36-16.36-16.36 16.36-7.6-7.6zM1165.48 479.23l-16.36-16.36 7.6-7.6 16.36 16.36 16.36-16.36 7.61 7.6-16.36 16.36 16.36 16.36-7.61 7.6-16.36-16.35-16.36 16.35-7.6-7.6zM820.79 101.66L804.43 85.3l7.6-7.6 16.36 16.36 16.36-16.36 7.61 7.6L836 101.66l16.36 16.36-7.61 7.61-16.36-16.36-16.36 16.36-7.6-7.61zM1177.05 1267.07l-16.36-16.36 7.6-7.6 16.36 16.36 16.36-16.36 7.6 7.6-16.36 16.36 16.36 16.36-7.6 7.6-16.36-16.36-16.36 16.36-7.6-7.6zM614.73 589.13l-16.36-16.36 7.6-7.6 16.36 16.36 16.36-16.36 7.6 7.6-16.36 16.36 16.36 16.36-7.6 7.61-16.36-16.36-16.36 16.36-7.6-7.61zM449.39 1177.2l-16.36-16.36 7.6-7.61 16.36 16.36 16.36-16.36 7.6 7.61-16.35 16.36 16.35 16.36-7.6 7.6-16.36-16.36-16.36 16.36-7.6-7.6zM810.28 571.39l-16.36-16.36 7.61-7.6 16.36 16.36 16.36-16.36 7.6 7.6-16.36 16.36 16.36 16.36-7.6 7.61L817.89 579l-16.36 16.36-7.61-7.61zM469.88 517.65l-16.36-16.35 7.6-7.61 16.36 16.36 16.36-16.36 7.6 7.61-16.35 16.35 16.35 16.36-7.6 7.61-16.36-16.36-16.36 16.36-7.6-7.61zM815 8.57L823.56 0h15.2L822.6 16.18l-7.6-7.6zm47.92 0l-7.6 7.6L839.14 0h15.2l8.58 8.57zM694.95 172.33l-16.36-16.35 7.61-7.61 16.35 16.36 16.36-16.36 7.61 7.61-16.36 16.35 16.36 16.36-7.61 7.61-16.36-16.36-16.35 16.36-7.61-7.61zM1163.47 578.01l-16.36-16.36 7.6-7.61 16.36 16.37 16.36-16.37 7.6 7.61-16.36 16.36 16.36 16.36-7.6 7.6-16.36-16.36-16.36 16.36-7.6-7.6zM372.96 1101.76l-16.36-16.36 7.6-7.6 16.36 16.36 16.36-16.36 7.6 7.6-16.36 16.36 16.36 16.36-7.6 7.6-16.36-16.36-16.36 16.36-7.6-7.6 16.36-16.36zM653.6 1147.74l-16.36-16.35 7.6-7.61 16.36 16.36 16.36-16.36 7.61 7.61-16.36 16.35 16.36 16.36-7.61 7.61-16.36-16.36-16.36 16.36-7.6-7.61zM856.38 1082.85l-16.36-16.36 7.6-7.6 16.36 16.36 16.36-16.36 7.6 7.6-16.36 16.36 16.36 16.36-7.6 7.6-16.36-16.36-16.36 16.36-7.6-7.6zM1084.59 1085.12l-16.36-16.36 7.6-7.6 16.36 16.36 16.36-16.36 7.6 7.6-16.36 16.36 16.36 16.36-7.6 7.6-16.36-16.36-16.36 16.36-7.6-7.6zM120.57 136.73l-16.36-16.36 7.6-7.61 16.36 16.36 16.36-16.36 7.61 7.61-16.36 16.36 16.36 16.35-7.61 7.61-16.36-16.36-16.36 16.36-7.6-7.61 16.36-16.35zM1340.93 1214.9a8.07 8.07 0 1 1-16.14-.02 8.07 8.07 0 0 1 16.14.02zm-26.88 0a18.84 18.84 0 0 0 18.81 18.82 18.84 18.84 0 0 0 18.82-18.82 18.84 18.84 0 0 0-18.82-18.82 18.84 18.84 0 0 0-18.81 18.82zM674.4 1054.49a8.07 8.07 0 1 1-16.13-.02 8.07 8.07 0 0 1 16.13.02zm-26.88 0a18.85 18.85 0 0 0 18.82 18.82 18.84 18.84 0 0 0 18.82-18.82 18.84 18.84 0 0 0-18.82-18.82 18.84 18.84 0 0 0-18.82 18.82zM411.18 987.72a8.07 8.07 0 0 1-16.13 0 8.07 8.07 0 0 1 16.13 0zm-26.88 0a18.84 18.84 0 0 0 18.82 18.81 18.84 18.84 0 0 0 18.81-18.81 18.84 18.84 0 0 0-18.81-18.82 18.84 18.84 0 0 0-18.82 18.82zM1416.77 461.13a8.08 8.08 0 0 1-16.13 0 8.07 8.07 0 0 1 16.13 0zm-26.89 0a18.84 18.84 0 0 0 18.82 18.82 18.84 18.84 0 0 0 18.82-18.82 18.84 18.84 0 0 0-18.82-18.82 18.84 18.84 0 0 0-18.82 18.82zM1185.08 817.16a8.07 8.07 0 0 1-16.13 0 8.08 8.08 0 0 1 16.13 0zm-26.88 0a18.84 18.84 0 0 0 18.82 18.82 18.84 18.84 0 0 0 18.81-18.82 18.84 18.84 0 0 0-18.81-18.82 18.84 18.84 0 0 0-18.82 18.82zM433.94 429.63a8.07 8.07 0 0 1-16.13 0 8.07 8.07 0 0 1 16.13 0zm-26.88 0a18.84 18.84 0 0 0 18.82 18.82 18.84 18.84 0 0 0 18.81-18.81 18.84 18.84 0 0 0-18.81-18.82 18.84 18.84 0 0 0-18.82 18.81zM881.4 1417.44a8.08 8.08 0 0 1-16.13 0 8.07 8.07 0 0 1 16.13 0zm-26.88 0a18.84 18.84 0 0 0 18.81 18.82 18.84 18.84 0 0 0 18.82-18.82 18.84 18.84 0 0 0-18.82-18.82 18.85 18.85 0 0 0-18.82 18.82zM486.72 806a8.07 8.07 0 0 1-16.13 0 8.07 8.07 0 0 1 16.13 0zm-26.89 0a18.84 18.84 0 0 0 18.82 18.82A18.84 18.84 0 0 0 497.47 806a18.84 18.84 0 0 0-18.82-18.82A18.84 18.84 0 0 0 459.83 806zM63.85 1210.48a8.08 8.08 0 0 1-16.13 0 8.07 8.07 0 0 1 16.13 0zm-26.88 0a18.84 18.84 0 0 0 18.82 18.82 18.84 18.84 0 0 0 18.82-18.82 18.84 18.84 0 0 0-18.82-18.81 18.84 18.84 0 0 0-18.82 18.81zM1347.43 1478.39a8.07 8.07 0 1 1-16.14-.02 8.07 8.07 0 0 1 16.14.02zm-26.88 0a18.84 18.84 0 0 0 18.81 18.82 18.84 18.84 0 0 0 18.82-18.82 18.84 18.84 0 0 0-18.82-18.82 18.84 18.84 0 0 0-18.81 18.82zM1037.78 995a8.07 8.07 0 0 1-16.13 0 8.07 8.07 0 0 1 16.13 0zm-26.88 0a18.83 18.83 0 0 0 18.81 18.81 18.84 18.84 0 0 0 18.82-18.81 18.84 18.84 0 0 0-18.82-18.82A18.84 18.84 0 0 0 1010.9 995zM525.33 421a8.07 8.07 0 1 1-16.14-.02 8.07 8.07 0 0 1 16.14.02zm-26.88 0a18.84 18.84 0 0 0 18.82 18.81A18.84 18.84 0 0 0 536.09 421a18.84 18.84 0 0 0-18.82-18.82A18.84 18.84 0 0 0 498.45 421zM464.63 613.12a8.07 8.07 0 0 1-16.13 0 8.07 8.07 0 0 1 16.13 0zm-26.88 0a18.84 18.84 0 0 0 18.81 18.81 18.84 18.84 0 0 0 18.82-18.81 18.84 18.84 0 0 0-18.82-18.82 18.84 18.84 0 0 0-18.81 18.82zM905.95 632.77a8.07 8.07 0 0 1-16.13 0 8.07 8.07 0 0 1 16.13 0zm-26.88 0a18.84 18.84 0 0 0 18.82 18.81 18.84 18.84 0 0 0 18.81-18.81 18.84 18.84 0 0 0-18.81-18.82 18.84 18.84 0 0 0-18.82 18.82zM685.8 255.65a8.07 8.07 0 0 1-16.13 0 8.07 8.07 0 0 1 16.13 0zm-26.88 0a18.84 18.84 0 0 0 18.82 18.81 18.84 18.84 0 0 0 18.81-18.81 18.84 18.84 0 0 0-18.81-18.82 18.84 18.84 0 0 0-18.82 18.82zM1118.07 413.2a8.07 8.07 0 0 1-16.13 0 8.08 8.08 0 0 1 16.13 0zm-26.88 0a18.84 18.84 0 0 0 18.82 18.8 18.84 18.84 0 0 0 18.81-18.8 18.84 18.84 0 0 0-18.81-18.82 18.84 18.84 0 0 0-18.82 18.81zM830.08 822.1a8.07 8.07 0 0 1-16.13 0 8.07 8.07 0 0 1 16.13 0zm-26.89 0a18.84 18.84 0 0 0 18.82 18.82 18.84 18.84 0 0 0 18.82-18.82A18.84 18.84 0 0 0 822 803.3a18.84 18.84 0 0 0-18.82 18.81zM1324.06 719.18a8.08 8.08 0 0 1-16.13 0 8.07 8.07 0 0 1 16.13 0zm-26.89 0a18.84 18.84 0 0 0 18.82 18.82 18.84 18.84 0 0 0 18.82-18.82 18.84 18.84 0 0 0-18.82-18.81 18.84 18.84 0 0 0-18.82 18.81zM1054.61 897.93a8.08 8.08 0 0 1-16.13 0 8.07 8.07 0 0 1 16.13 0zm-26.88 0a18.84 18.84 0 0 0 18.81 18.82 18.84 18.84 0 0 0 18.82-18.82 18.84 18.84 0 0 0-18.82-18.82 18.84 18.84 0 0 0-18.81 18.82zM618.61 304.58a8.07 8.07 0 0 1-16.13 0 8.07 8.07 0 0 1 16.13 0zm-26.88 0a18.84 18.84 0 0 0 18.82 18.82 18.84 18.84 0 0 0 18.81-18.82 18.84 18.84 0 0 0-18.81-18.82 18.84 18.84 0 0 0-18.82 18.82zM871 198.74a8.07 8.07 0 0 1-16.13 0 8.07 8.07 0 0 1 16.13 0zm-26.88 0a18.84 18.84 0 0 0 18.82 18.82 18.84 18.84 0 0 0 18.81-18.82 18.84 18.84 0 0 0-18.81-18.82 18.84 18.84 0 0 0-18.82 18.82zM459.76 893a8.07 8.07 0 0 1-16.13 0 8.07 8.07 0 0 1 16.13 0zm-26.88 0a18.84 18.84 0 0 0 18.82 18.82A18.84 18.84 0 0 0 470.5 893a18.84 18.84 0 0 0-18.81-18.82A18.84 18.84 0 0 0 432.88 893zM319.22 178.5a8.07 8.07 0 1 1-16.15-.02 8.07 8.07 0 0 1 16.15.02zm-26.88 0a18.84 18.84 0 0 0 18.81 18.81 18.84 18.84 0 0 0 18.82-18.81 18.84 18.84 0 0 0-18.82-18.82 18.84 18.84 0 0 0-18.81 18.82zM484.18 287.48l-8.65-6.38 21.5-29.12 8.66 6.39-21.5 29.11zm-26.88 0l-8.65-6.38 21.5-29.12 8.66 6.39-21.51 29.11zm-26.88 0l-8.65-6.38 21.5-29.12 8.65 6.39-21.5 29.11zM1124.06 754.44l-8.65-6.4 21.5-29.11 8.65 6.39-21.5 29.12zm-26.88 0l-8.65-6.4 21.5-29.11 8.65 6.39-21.5 29.12zm-26.89 0l-8.64-6.4 21.5-29.11 8.65 6.39-21.51 29.12zM488.31 70.08l-8.64-6.38 21.5-29.12 8.65 6.39-21.5 29.11zm-26.88 0l-8.65-6.38 21.5-29.12 8.66 6.39-21.5 29.11zm-26.88 0l-8.65-6.38 21.5-29.12 8.66 6.39-21.5 29.11zM134.37 1009.56l-8.65-6.39 21.5-29.12 8.65 6.4-21.5 29.11zm-26.88 0l-8.65-6.39 21.5-29.12 8.65 6.4-21.5 29.11zm-26.88 0l-8.65-6.39 21.5-29.12 8.65 6.4-21.5 29.11zM351.14 929.82l-8.65-6.4 21.5-29.11 8.65 6.39-21.5 29.12zm-26.88 0l-8.65-6.4 21.5-29.11 8.65 6.39-21.5 29.12zm-26.89 0l-8.65-6.4 21.5-29.11 8.66 6.39-21.5 29.12zM765.86 761.15l-8.65-6.39 21.5-29.12 8.65 6.4-21.5 29.11zm-26.88 0l-8.65-6.39 21.5-29.12 8.65 6.4-21.5 29.11zm-26.89 0l-8.65-6.39 21.5-29.12 8.66 6.4-21.5 29.11zM279.4 1272.54l-21.5-29.12 8.65-6.39 21.5 29.12-8.64 6.39zm-26.87 0l-21.5-29.12 8.64-6.39 21.5 29.12-8.64 6.39zm-26.88 0l-21.5-29.12 8.64-6.39 21.5 29.12-8.64 6.39zM161.01 1326.96l-21.5-29.12 8.65-6.39 21.5 29.12-8.65 6.39zm-26.88 0l-21.5-29.12 8.65-6.39 21.5 29.12-8.65 6.39zm-26.88 0l-21.5-29.12 8.65-6.39 21.5 29.12-8.65 6.39zM1318.89 934.36l-21.5-29.12 8.65-6.39 21.5 29.12-8.65 6.4zm-26.88 0l-21.5-29.12 8.65-6.39 21.5 29.12-8.65 6.4zm-26.88 0l-21.5-29.12 8.65-6.39 21.5 29.12-8.65 6.4zM254.94 124.61l-21.5-29.12 8.64-6.38 21.5 29.11-8.64 6.4zm-26.88 0L206.55 95.5l8.65-6.38 21.5 29.11-8.64 6.4zm-26.89 0l-21.5-29.12 8.65-6.38 21.5 29.11-8.65 6.4zM105.53 465.96l-21.5-29.12 8.65-6.39 21.5 29.12-8.65 6.39zm-26.88 0l-21.5-29.12 8.65-6.39 21.5 29.12-8.65 6.39zm-26.88 0l-21.5-29.12 8.64-6.39 21.51 29.12-8.65 6.39zM212.49 324.58l-21.51-29.12 8.65-6.39 21.5 29.12-8.64 6.4zm-26.89 0l-21.5-29.12 8.65-6.39 21.5 29.12-8.65 6.4zm-26.88 0l-21.5-29.12 8.65-6.39 21.5 29.12-8.65 6.4zM1389 942.87l-6.38-8.65 29.12-21.5 6.38 8.64-29.12 21.5zm0-26.88l-6.38-8.65 29.12-21.5 6.38 8.64-29.12 21.5zm0-26.88l-6.38-8.65 29.12-21.5 6.38 8.64-29.12 21.5zM238.33 1413.14l-6.39-8.65 29.12-21.5 6.39 8.65-29.12 21.5zm0-26.88l-6.39-8.65 29.12-21.5 6.39 8.65-29.12 21.5zm0-26.88l-6.39-8.65 29.12-21.5 6.39 8.64-29.12 21.51zM1051.57 115.53l-6.39-8.65 29.12-21.5 6.39 8.65-29.12 21.5zm0-26.88l-6.39-8.65 29.12-21.5 6.39 8.64-29.12 21.51zm0-26.88l-6.39-8.65 29.12-21.5 6.39 8.64-29.12 21.5zM727.28 893.34l-6.38-8.65 29.11-21.5 6.4 8.64-29.13 21.5zm0-26.88l-6.38-8.65L750 836.3l6.4 8.64-29.13 21.5zm0-26.88l-6.38-8.65 29.11-21.5 6.4 8.64-29.13 21.5zM1176.98 996.25l-6.38-8.65 29.11-21.5 6.39 8.65-29.12 21.5zm0-26.88l-6.38-8.65 29.11-21.5 6.39 8.65-29.12 21.5zm0-26.88l-6.38-8.65 29.11-21.5 6.39 8.64-29.12 21.51zM1188.92 103.4l-6.39-8.65 29.12-21.5 6.39 8.65-29.12 21.5zm0-26.88l-6.39-8.65 29.12-21.5 6.39 8.65-29.12 21.5zm0-26.88l-6.39-8.65 29.12-21.5 6.39 8.65-29.12 21.5zM374.44 264.3l-6.38-8.64 29.12-21.5 6.38 8.64-29.12 21.5zm0-26.87l-6.38-8.65 29.12-21.5 6.38 8.64-29.12 21.5zm0-26.89l-6.38-8.64 29.12-21.5 6.38 8.64-29.12 21.5zM88.6 747.2l-6.38-8.65 29.12-21.5 6.39 8.65-29.12 21.5zm0-26.88l-6.38-8.65 29.12-21.5 6.39 8.65-29.12 21.5zm0-26.88l-6.38-8.65 29.12-21.5 6.39 8.65-29.12 21.5zM1262.98 1075.38l-6.39-8.65 29.12-21.5 6.38 8.65-29.11 21.5zm0-26.88l-6.39-8.65 29.12-21.5 6.38 8.65-29.11 21.5zm0-26.88l-6.39-8.65 29.12-21.5 6.38 8.65-29.11 21.5zM368.83 590.91l-6.39-8.64 29.12-21.51 6.39 8.65-29.12 21.5zm0-26.88l-6.39-8.65 29.12-21.5 6.39 8.65-29.12 21.5zm0-26.88l-6.39-8.65 29.12-21.5 6.39 8.65-29.12 21.5zM1408.27 632.7l-6.38-8.65 29.12-21.5 6.38 8.64-29.12 21.5zm0-26.88l-6.38-8.65 29.12-21.5 6.38 8.64-29.12 21.5zm0-26.89l-6.38-8.64 29.12-21.51 6.38 8.65-29.12 21.5zM72.63 1480.35L46.02 1500h18.1l14.9-11-6.39-8.65M49.9 1483.62l29.12-21.5-6.39-8.65-29.12 21.5 6.39 8.65M65.06 1076l-29.12-21.5 6.39-8.65 29.12 21.5-6.39 8.65zm0 26.88l-29.12-21.5 6.39-8.65 29.12 21.5-6.39 8.65zm0 26.88l-29.12-21.5 6.39-8.65 29.12 21.5-6.39 8.65zM298.59 1140.37l-29.12-21.5 6.38-8.65 29.12 21.5-6.38 8.65zm0 26.88l-29.12-21.5 6.38-8.65 29.12 21.5-6.38 8.65zm0 26.88l-29.12-21.5 6.38-8.65 29.12 21.5-6.38 8.65zM76.7 568.09l-29.11-21.5 6.39-8.65 29.12 21.5-6.4 8.65zm0 26.88l-29.11-21.5 6.39-8.65 29.12 21.5-6.4 8.65zm0 26.88l-29.11-21.5 6.39-8.65 29.12 21.5-6.4 8.65zM784.17 1126.54l-29.12-21.51 6.39-8.65 29.12 21.51-6.4 8.65zm0 26.88l-29.12-21.51 6.39-8.64 29.12 21.5-6.4 8.65zm0 26.88l-29.12-21.5 6.39-8.65 29.12 21.5-6.4 8.65zM316.57 61.52l-29.11-21.5 6.38-8.65 29.12 21.5-6.38 8.66zm0 26.89l-29.11-21.5 6.38-8.66 29.12 21.5-6.38 8.66zm0 26.88l-29.11-21.5 6.38-8.66 29.12 21.5-6.38 8.66zM925.67 822.74l-29.12-21.5 6.39-8.66 29.12 21.5-6.4 8.66zm0 26.88l-29.12-21.5 6.39-8.66 29.12 21.5-6.4 8.66zm0 26.88L896.55 855l6.39-8.65 29.12 21.5-6.4 8.65zM490.7 1057.92l-29.11-21.51 6.38-8.65 29.12 21.51-6.38 8.65zm0 26.88l-29.11-21.51 6.38-8.65 29.12 21.51-6.38 8.65zm0 26.88l-29.11-21.51 6.38-8.65 29.12 21.51-6.38 8.65zM302.48 723.46l-29.12-21.5 6.39-8.65 29.12 21.5-6.39 8.65zm0 26.88l-29.12-21.5 6.39-8.65 29.12 21.5-6.39 8.65zm0 26.88l-29.12-21.5 6.39-8.65 29.12 21.5-6.39 8.65zM565.07 1183.19l-29.12-21.5 6.38-8.65 29.13 21.5-6.4 8.65zm0 26.89l-29.12-21.51 6.38-8.65 29.13 21.51-6.4 8.65zm0 26.88l-29.12-21.51 6.38-8.65 29.13 21.51-6.4 8.65zM1255.18 410.6l-29.12-21.5 6.39-8.65 29.12 21.5-6.39 8.65zm0 26.88l-29.12-21.5 6.39-8.65 29.12 21.5-6.39 8.65zm0 26.88l-29.12-21.5 6.39-8.65 29.12 21.5-6.39 8.66zM584.96 1056.47l-29.12-21.51 6.39-8.65 29.12 21.51-6.39 8.65zm0 26.88l-29.12-21.51 6.39-8.65 29.12 21.51-6.39 8.65zm0 26.88l-29.12-21.51 6.39-8.65 29.12 21.51-6.39 8.65zM1091.81 508.31l-29.12-21.5 6.39-8.65 29.12 21.5-6.39 8.65zm0 26.88l-29.12-21.5 6.39-8.65 29.12 21.5-6.39 8.65zm0 26.88l-29.12-21.5 6.39-8.65 29.12 21.5-6.39 8.66zM806.68 676.13h10.75v-26.88h-10.75zM1414.94 1179.83h10.75v-26.88h-10.75zM427.92 1484.39h10.75v-26.89h-10.75zM280.56 378.17h10.75v-26.88h-10.75zM1471.78 746.28h10.76V719.4h-10.76zM228.66 402.28h10.76V375.4h-10.76zM292.58 1473.98h10.75v-26.88h-10.75zM764.26 1349.29h10.75v-26.89h-10.75zM598.36 411.6h10.75v-26.88h-10.75zM1205.44 1473.13h10.75v-26.88h-10.75zM777.36 184.94h10.75v-26.88h-10.75zM1273.06 127.44h10.75v-26.88h-10.75zM486.91 1418.2h10.75v-26.88h-10.75zM1000.37 534.23h10.76v-26.88h-10.76zM1389.84 1419.76h10.75v-26.88h-10.75zM719.91 101.2h10.75V74.32h-10.75zM40.81 913.92h10.75v-26.88H40.81zM739.14 967.52h10.76v-26.89h-10.76zM16.7 782.95h10.75v-26.89H16.7zM875.5 311.36h10.75v-26.88H875.5zM1463.28 916.98h10.75V890.1h-10.75zM1451.04 312.87h40.32v-10.75h-40.32zM1115.34 887.42h40.33v-10.75h-40.33zM432.55 356.43h40.32v-10.75h-40.32zM196.44 953.08h40.32v-10.75h-40.32zM540.87 118.91h40.32v-10.75h-40.32zM0 840.99h4.5v-10.75H0zM981.23 1230.34h40.32v-10.75h-40.32zM905.21 1292.97h40.32v-10.75h-40.32zM746.23 32.87h40.32V22.12h-40.32zM180.22 1035.48h40.32v-10.76h-40.32zM1056.25 349.98h40.32v-10.76h-40.32zM687.81 1220.89h40.32v-10.75h-40.32zM1324.99 285h26.88v-10.76h-26.88zM926.63 1366.47h26.89v-10.75h-26.89zM1334.99 854.59h26.89v-10.76h-26.89zM751.95 462.88h26.88v-10.76h-26.88zM26.62 1382.09H53.5v-10.75H26.62zM125.24 924.6h10.75v-40.32h-10.75zM617.33 1270.11h10.75v-40.32h-10.75zM1262.87 336.11h10.75v-40.32h-10.75zM1161.51 383.44h10.76v-40.32h-10.76zM841.13 1347.72h10.75v-40.32h-10.75zM1023.94 301.77h10.75v-40.32h-10.75zM1342.12 196.39h10.76v-40.32h-10.76zM1001.41 1335.76h10.76v-40.33h-10.76zM641.58 123.16h10.75V82.83h-10.75zM554.6 794.23h10.75v-40.32H554.6zM761.69 402.44h10.75v-40.33h-10.75zM371.65 756.89h53.76v-10.76h-53.76zM1414.08 148.1h53.76v-10.75h-53.76zM225.08 460.85h53.76V450.1h-53.76zM148.66 611.4h53.76v-10.75h-53.76zM398.69 1346.66h53.76v-10.75h-53.76zM1371.94 691.25h53.76V680.5h-53.76zM805.57 492.85h53.76V482.1h-53.76zM1189.8 746.1h53.76v-10.75h-53.76zM1045.83 822.46h53.76v-10.75h-53.76zM168.76 688h53.76v-10.76h-53.76zM899.64 1016.04h53.76v-10.75h-53.76zM160.85 765.53h53.76v-10.76h-53.76zM357.56 1499.94h10.75v-11.44h-10.75zM1012.07 724.45h10.76v-53.76h-10.76zM1100.06 999.68h10.75v-53.76h-10.75zM329.4 1357.43h10.75v-53.77H329.4zM1099.82 295.56h10.76v-53.77h-10.76zM581.1 1464.73h10.75v-53.77H581.1zM1128.49 17.66h10.75V0h-10.75zM934.91 1480.17h10.75v-53.76h-10.75zM1405.54 266.72h10.75v-53.76h-10.75zM983.57 836.91h10.76v-53.76h-10.76zM1467.04 432.61h10.76v-53.76h-10.76zM1314.62 648.44h10.75v-53.76h-10.75zM1315.15 433.5h10.76v-53.76h-10.76zM533.03 638.09h10.75v-53.76h-10.75zM205.07 1151.89h10.75v-53.77h-10.75zM1246.91 591.35h10.75v-53.76h-10.75zM1413.93 1107.81h10.75v-53.77h-10.75zM956.45 33.84h10.75c0-11.86 9.65-21.51 21.5-21.51 11.87 0 21.51 9.65 21.51 21.5h10.76a32.3 32.3 0 0 0-32.26-32.25 32.3 32.3 0 0 0-32.26 32.26M651.16 7.59h53.76V0h-53.76z"/>
    <path d="M672.66 29.1h10.76V0h-10.76zM49.9 37.38l-6.39-8.65 29.12-21.5 6.4 8.65-29.13 21.5zM43.51 1.85L46.02 0h18.1L49.9 10.5l-6.39-8.65zM233.17 1467.41l23.87 32.32-.2.27h-13.37l.2-.27-19.15-25.94 8.65-6.38zm-26.88 0l23.86 32.32-.2.27H216.6l.2-.27-19.15-25.94 8.65-6.38zm-26.88 0l23.86 32.32-.2.27H189.7l.2-.27-19.14-25.94 8.65-6.38zM846.56 1492.21l7.79 7.79h-15.21l-.18-.18-.19.18h-15.2l7.78-7.79-16.36-16.36 7.6-7.6 16.37 16.36 16.36-16.36 7.6 7.6-16.36 16.36zM357.56 42.26h10.75V0h-10.75zM1270.36 33.98h10.75V7.1h-10.75zM524.28 1476.78a8.08 8.08 0 0 1-16.13 0 8.07 8.07 0 0 1 16.13 0zm-26.88 0a18.84 18.84 0 0 0 18.82 18.82 18.84 18.84 0 0 0 18.81-18.82 18.84 18.84 0 0 0-18.81-18.81 18.84 18.84 0 0 0-18.82 18.81zM1431.5 1457.75v10.75c11.86 0 21.5 9.65 21.5 21.5 0 3.61-.9 7.01-2.48 10h11.63a32.13 32.13 0 0 0 1.61-10 32.3 32.3 0 0 0-32.26-32.25M1128.49 1499.94h10.75v-36.05h-10.75zM0 1012.95l2.8 3.78-2.8 2.06v-5.84zm0-26.89l2.8 3.79L0 991.9v-5.85zm0-26.88l2.8 3.79-2.8 2.06v-5.85zM27.66 677.37H38.4A32.3 32.3 0 0 0 0 645.72v11.05a21.53 21.53 0 0 1 27.66 20.6M36.99 992.01h10.75v-26.88H36.99zM25.31 381.62h10.75v-26.88H25.31zM15.19 1297.48h10.75v-40.32H15.19zM7.79 88.26h10.75V34.5H7.79zM1460.43 244.93h10.75c0-11.86 9.65-21.5 21.5-21.5 2.57 0 5.03.47 7.32 1.3v-11.19c-2.35-.55-4.8-.87-7.32-.87a32.3 32.3 0 0 0-32.25 32.26M1460.74 525.69H1500v-10.76h-39.26z"/>
    <path d="M1482.24 547.19h10.75v-53.76h-10.75zM1471.2 1159.22l28.8-28.8v-15.21l-36.41 36.41 7.61 7.6"/>
    <path d="M1463.59 1118.9l36.41 36.41v-15.21l-28.8-28.8-7.61 7.6M1464.18 840.99H1500v-10.75h-35.82zM1468.05 1450.21h26.89v-10.76h-26.89z"/>
  </g>
</svg>