<?xml version="1.0" encoding="utf-8"?>
<!-- Generator: Adobe Illustrator 19.1.0, SVG Export Plug-In . SVG Version: 6.00 Build 0)  -->
<svg version="1.1" id="Layer_2" xmlns="http://www.w3.org/2000/svg" xmlns:xlink="http://www.w3.org/1999/xlink" x="0px" y="0px"
	 viewBox="0 0 100 100" style="enable-background:new 0 0 100 100;" xml:space="preserve">
<style type="text/css">
	.st0{fill:#231F20;}
</style>
<g>
	<path class="st0" d="M75.8,69.4l-5.3-5.3l-4.2-4.2c-0.5-0.5-0.7-1.1-0.7-1.7s0.2-1.2,0.7-1.7l4-4l5.2-5.2c3.4-3.4,3.6-8.7,0.6-12.4
		c-1.7-2.1-4.3-3.3-7.1-3.4c-0.6-9-8.1-16.2-17.3-16.2S35,22.6,34.4,31.6c-2.8,0-5.3,1.2-7.1,3.4c-3,3.7-2.8,9,0.6,12.4l9.2,9.2
		c0.5,0.5,0.7,1.1,0.7,1.7s-0.2,1.2-0.7,1.7l-9.5,9.5c-1.8,1.8-2.7,4.1-2.7,6.6c0,2.5,1,4.8,2.7,6.6c1.8,1.8,4.1,2.7,6.6,2.7
		c2.5,0,4.8-1,6.6-2.7l5.3-5.3l3.9-3.9c0.4-0.4,1-0.7,1.7-0.7c0.6,0,1.2,0.2,1.7,0.7l9.2,9.2c1.8,1.8,4.1,2.7,6.6,2.7s4.8-1,6.6-2.7
		C79.4,78.9,79.4,73,75.8,69.4z M73.5,80.3c-1.2,1.2-2.7,1.8-4.3,1.8c-1.6,0-3.2-0.6-4.3-1.8L60,75.5l8.7-8.7l4.8,4.8
		c1.2,1.2,1.8,2.7,1.8,4.3C75.3,77.6,74.7,79.2,73.5,80.3z M44.3,74.6l-8.7-8.7l3.7-3.7c1.1-1.1,1.6-2.5,1.6-3.9s-0.6-2.9-1.6-3.9
		l-3.5-3.5l6.1-6.1c0.2,0.2,0.5,0.4,0.7,0.5c0,0,0.1,0,0.1,0.1c-0.7,1.5-1.1,4.1,1.6,6c0.5,0.4,1.2,0.7,2.1,0.7c0.9,0,2-0.3,3.3-1.3
		c0,0,1.2-1.1,2-2c0.9,1.1,3,3.3,5.3,3.3c0.7,0,1.4-0.2,2.1-0.7c2.7-1.8,2.3-4.4,1.6-6c0,0,0.1,0,0.1-0.1c0.2-0.2,0.5-0.4,0.7-0.5
		l6.1,6.1L64,54.3c-1.1,1.1-1.6,2.5-1.6,3.9s0.6,2.9,1.6,3.9l3.7,3.7l-8.7,8.7l-3.5-3.5c-1-1-2.4-1.6-3.9-1.6
		c-1.5,0-2.9,0.6-3.9,1.6L44.3,74.6z M43.4,75.5l-4.8,4.8c-1.2,1.2-2.7,1.8-4.3,1.8c-1.6,0-3.2-0.6-4.3-1.8
		c-1.2-1.2-1.8-2.7-1.8-4.3c0-1.6,0.6-3.2,1.8-4.3l4.8-4.8L43.4,75.5z M36.5,35.3c0.1,0.4,0.1,0.8,0.2,1.1c0,0.1,0,0.2,0.1,0.3
		c0.1,0.4,0.2,0.7,0.3,1.1c0,0.1,0.1,0.2,0.1,0.3c0.1,0.4,0.3,0.7,0.4,1c0,0.1,0.1,0.1,0.1,0.2c0.2,0.3,0.3,0.7,0.5,1c0,0,0,0,0,0.1
		c0.7,1.3,1.6,2.4,2.7,3.4l-6,6l-4.7-4.7c-2.2-2.2-2.4-5.7-0.4-8.1c1.6-2,4.3-2.7,6.7-1.9C36.5,35.2,36.5,35.2,36.5,35.3z
		 M66.6,36.7c0-0.1,0.1-0.2,0.1-0.3c0.1-0.4,0.2-0.7,0.2-1.1c0,0,0-0.1,0-0.1c2.4-0.8,5-0.1,6.7,1.9c2,2.4,1.8,5.9-0.4,8.1l-4.7,4.7
		l-6-6c1-1,1.9-2.1,2.6-3.4c0-0.1,0.1-0.1,0.1-0.2c0.2-0.3,0.3-0.6,0.5-1c0-0.1,0.1-0.2,0.1-0.3c0.1-0.3,0.3-0.7,0.4-1
		c0-0.1,0.1-0.2,0.1-0.3C66.4,37.4,66.5,37,66.6,36.7z M50.4,48.1c-1.1,1.3-3.4,3.4-5.4,2c-2.1-1.4-1.6-3.3-1.2-4.2
		c0,0,0.1,0,0.1,0.1c0.1,0.1,0.2,0.1,0.3,0.2c0.2,0.1,0.3,0.2,0.5,0.2c0.1,0,0.1,0.1,0.2,0.1c0.1,0,0.1,0.1,0.2,0.1
		c0.1,0,0.2,0.1,0.2,0.1c0.1,0,0.1,0.1,0.2,0.1c0.2,0.1,0.4,0.2,0.5,0.2c0,0,0,0,0,0c0.1,0,0.2,0.1,0.2,0.1c0.1,0.1,0.3,0.1,0.5,0.2
		c0.1,0,0.2,0.1,0.3,0.1c0.1,0,0.2,0.1,0.3,0.1c0.1,0,0.2,0.1,0.2,0.1c0.2,0.1,0.4,0.1,0.6,0.1c0.1,0,0.3,0.1,0.4,0.1
		c0.1,0,0.1,0,0.2,0c0.1,0,0.1,0,0.2,0c0.2,0,0.5,0.1,0.8,0.1c0.2,0,0.3,0.1,0.5,0.1c0,0,0.1,0,0.1,0C50.3,48.1,50.4,48.1,50.4,48.1
		C50.4,48.1,50.4,48.1,50.4,48.1z M53,48.1C53,48.1,53.1,48.1,53,48.1c0.1,0,0.1,0,0.2,0c0.2,0,0.3,0,0.5-0.1c0.3,0,0.5-0.1,0.8-0.1
		c0.1,0,0.1,0,0.2,0c0.1,0,0.1,0,0.2,0c0.1,0,0.3-0.1,0.4-0.1c0.2,0,0.4-0.1,0.6-0.1c0.1,0,0.2,0,0.2-0.1c0.1,0,0.2-0.1,0.3-0.1
		c0.1,0,0.2-0.1,0.3-0.1c0.1-0.1,0.3-0.1,0.4-0.2c0.1,0,0.2-0.1,0.3-0.1c0,0,0,0,0,0c0.2-0.1,0.4-0.1,0.5-0.2c0.1,0,0.1-0.1,0.2-0.1
		c0.1,0,0.2-0.1,0.2-0.1c0.1,0,0.1-0.1,0.2-0.1c0.1,0,0.1-0.1,0.2-0.1c0.2-0.1,0.3-0.2,0.5-0.2c0.1-0.1,0.2-0.1,0.3-0.2
		c0,0,0.1,0,0.1-0.1c0.4,0.9,0.8,2.8-1.2,4.2C56.4,51.5,54.1,49.4,53,48.1C53,48.1,53,48.1,53,48.1z M65.7,34.6
		c-0.3,2.5-1.4,4.9-2.8,6.8c0,0.1-0.1,0.1-0.1,0.2c-0.2,0.2-0.4,0.5-0.6,0.7c-0.1,0.1-0.2,0.2-0.2,0.3c-0.2,0.2-0.4,0.4-0.6,0.6
		c-0.1,0.1-0.2,0.2-0.3,0.3c-0.2,0.2-0.4,0.4-0.7,0.5c-0.1,0.1-0.2,0.2-0.3,0.3c-0.2,0.2-0.5,0.3-0.7,0.5c-0.1,0.1-0.3,0.2-0.4,0.2
		c-0.2,0.1-0.5,0.3-0.7,0.4c-0.1,0.1-0.3,0.1-0.4,0.2c-0.2,0.1-0.5,0.2-0.7,0.3c-0.2,0.1-0.3,0.1-0.5,0.2c-0.2,0.1-0.5,0.2-0.7,0.2
		c-0.2,0.1-0.4,0.1-0.6,0.2c-0.2,0-0.4,0.1-0.6,0.1c0,0,0,0,0,0c0,0-0.1,0-0.1,0c-0.2,0-0.5,0.1-0.7,0.1c-0.1,0-0.2,0-0.3,0
		c0,0-0.1,0-0.1,0c-0.1,0-0.2,0-0.2,0c-0.4,0-0.9,0.1-1.3,0.1s-0.9,0-1.3-0.1c-0.1,0-0.2,0-0.3,0c0,0-0.1,0-0.1,0
		c-0.1,0-0.2,0-0.3,0c-0.2,0-0.5-0.1-0.7-0.1c0,0-0.1,0-0.1,0c-0.2,0-0.4-0.1-0.6-0.1c-0.2,0-0.4-0.1-0.6-0.2
		c-0.2-0.1-0.5-0.2-0.7-0.2c-0.2-0.1-0.3-0.1-0.5-0.2c-0.3-0.1-0.5-0.2-0.7-0.3c-0.1-0.1-0.3-0.1-0.4-0.2c-0.3-0.1-0.5-0.3-0.7-0.4
		c-0.1-0.1-0.2-0.1-0.4-0.2c-0.2-0.2-0.5-0.3-0.7-0.5c-0.1-0.1-0.2-0.2-0.3-0.2c-0.2-0.2-0.5-0.4-0.7-0.6c-0.1-0.1-0.2-0.2-0.3-0.2
		c-0.2-0.2-0.5-0.4-0.7-0.6c-0.1-0.1-0.1-0.1-0.2-0.2c-0.2-0.2-0.5-0.5-0.7-0.8c0,0-0.1-0.1-0.1-0.1c-1.5-1.9-2.6-4.3-2.9-6.9l0,0
		c-0.1-0.6-0.1-1.2-0.1-1.8c0-7.8,6.3-14.1,14.1-14.1S65.8,25,65.8,32.8C65.8,33.4,65.8,34,65.7,34.6z"/>
	<path class="st0" d="M48.8,27.3c0-1.3-1.1-2.4-2.4-2.4C45.1,25,44,26,44,27.3c0,1.3,1.1,2.4,2.4,2.4C47.8,29.7,48.8,28.7,48.8,27.3
		z M45.3,27.3c0-0.6,0.5-1.1,1.1-1.1s1.1,0.5,1.1,1.1c0,0.6-0.5,1.1-1.1,1.1S45.3,28,45.3,27.3z"/>
	<path class="st0" d="M56.1,25c-1.3,0-2.4,1.1-2.4,2.4c0,1.3,1.1,2.4,2.4,2.4c1.3,0,2.4-1.1,2.4-2.4C58.5,26,57.5,25,56.1,25z
		 M56.1,28.5c-0.6,0-1.1-0.5-1.1-1.1c0-0.6,0.5-1.1,1.1-1.1c0.6,0,1.1,0.5,1.1,1.1C57.2,28,56.7,28.5,56.1,28.5z"/>
	<path class="st0" d="M51.7,37.8c2.2,0,4-1.8,4-4s-1.8-4-4-4s-4,1.8-4,4S49.5,37.8,51.7,37.8z M51.7,31c1.5,0,2.8,1.2,2.8,2.8
		s-1.2,2.8-2.8,2.8s-2.8-1.2-2.8-2.8S50.2,31,51.7,31z"/>
	<path class="st0" d="M57,39.1c0,0-2.2,0.8-5.3,0.8s-5.3-0.8-5.3-0.8c-0.2-0.1-0.5,0-0.7,0.1c-0.2,0.2-0.2,0.4-0.2,0.7
		c0,0,1.4,4.3,6.1,4.3s6.1-4.3,6.1-4.3c0.1-0.2,0-0.5-0.2-0.7C57.5,39.1,57.2,39,57,39.1z M51.7,42.9c-2.3,0-3.6-1.2-4.3-2.2
		c1,0.2,2.5,0.5,4.3,0.5S55,41,56,40.7C55.3,41.7,54,42.9,51.7,42.9z"/>
	<path class="st0" d="M51.7,57.6c1.3,0,2.3-1,2.3-2.3c0-1.3-1-2.3-2.3-2.3s-2.3,1-2.3,2.3C49.4,56.6,50.4,57.6,51.7,57.6z
		 M51.7,54.3c0.6,0,1,0.4,1,1c0,0.6-0.4,1-1,1s-1-0.4-1-1C50.7,54.8,51.1,54.3,51.7,54.3z"/>
	<path class="st0" d="M51.7,64.1c1.3,0,2.3-1,2.3-2.3c0-1.3-1-2.3-2.3-2.3s-2.3,1-2.3,2.3C49.4,63.1,50.4,64.1,51.7,64.1z
		 M51.7,60.8c0.6,0,1,0.4,1,1s-0.4,1-1,1s-1-0.4-1-1S51.1,60.8,51.7,60.8z"/>
</g>
</svg>
