<?xml version="1.0" encoding="utf-8"?>
<!-- Generator: Adobe Illustrator 19.1.0, SVG Export Plug-In . SVG Version: 6.00 Build 0)  -->
<svg version="1.1" id="Layer_2" xmlns="http://www.w3.org/2000/svg" xmlns:xlink="http://www.w3.org/1999/xlink" x="0px" y="0px"
	 viewBox="0 0 100 100" style="enable-background:new 0 0 100 100;" xml:space="preserve">
<style type="text/css">
	.st0{fill:#231F20;}
</style>
<g>
	<path class="st0" d="M50.4,44.9c-0.3-0.1-0.7,0-0.8,0.4c0,0-0.4,0.9-1.8,0.9c-1.4,0-1.8-0.8-1.8-0.9c-0.1-0.3-0.5-0.5-0.8-0.4
		c-0.3,0.1-0.5,0.5-0.4,0.8c0,0.1,0.7,1.7,3,1.7c2.3,0,3-1.7,3-1.7C50.8,45.4,50.7,45.1,50.4,44.9z"/>
	<circle class="st0" cx="44.2" cy="40.9" r="1.3"/>
	<circle class="st0" cx="50.6" cy="40.9" r="1.3"/>
	<path class="st0" d="M47.1,21.4c4.7-0.6,7.8-1.7,9.1-2.5c-1.4-0.4-4.7-0.6-9.4,0.1c-4.7,0.6-7.8,1.7-9.1,2.5
		C39.1,21.8,42.4,22,47.1,21.4z"/>
	<path class="st0" d="M78.9,34c-0.6-1.1-2-2.4-4.9-2.4c-3,0-6.7,1.3-9.2,2.3c-2.2-4.6-5.3-7.7-9.3-9.2c4.5-1.5,6.6-3.7,6.2-6.6
		c-0.4-2.7-2.7-4.2-6.9-4.6c-0.7-0.1-1.5-0.1-2.4-0.1c-1.9,0-4.1,0.2-6.3,0.5c-3.2,0.4-6.2,1.1-8.5,2c-4,1.5-5.8,3.6-5.4,6.3
		c0.4,2.6,2.5,4.1,6.4,4.5c-3.5,2.5-5.7,6.5-6.7,12c-1.7-0.3-3.4-0.5-5.1-0.5c-5.9,0-9.7,1.9-10.4,5.2c-0.5,2-0.1,3.9,1,5.6
		c0.8,1.1,2.2,2.4,4.7,3.3c-0.1,0.7,0,1.5,0.2,2.3c0.4,1.7,1.5,3.2,3.2,4.4c-0.1,0.9-0.1,2,0.4,3.1c1.1,2.6,4.1,4.3,8.7,5.2
		c1.2,0.2,2.1,0.3,3,0.3c0.4,0,0.8,0,1.2-0.1c0.6,3.5,1.7,7.1,3.3,10.6c1.5,3.3,4.8,5.5,8.5,5.5c0.6,0,1.1-0.1,1.7-0.2
		c0.4-0.1,0.9-0.2,1.3-0.3c1.5,1.6,4.2,4.1,7.5,4.1c0.4,0,0.7,0,1.1-0.1c1.6-0.3,2.8-1.1,3.4-2.5c0.5-1.1,0.5-2.5,0.2-3.7
		c0.9,0.4,1.9,0.7,2.9,0.7c1.4,0,2.6-0.5,3.5-1.5c1.1-1.2,1.6-2.6,1.4-4.1c-0.1-1.5-0.9-2.7-1.6-3.7c0.2-0.2,0.4-0.4,0.6-0.7
		c1.3-1.6,1.9-3.8,1.5-5.8c-0.4-2-1.6-3.8-3.4-4.9c3-1.9,4.6-4,4.9-6.3c0.1-1.2-0.1-2.2-0.5-3c1.3-1.8,1.4-3.5,1.3-4.6
		c-0.1-0.9-0.4-1.7-0.8-2.3c1.9-1.5,3.3-3.4,4-5.4C79.9,37.4,79.8,35.6,78.9,34z M34.6,21.9c-0.3-1.8,2.1-2.9,3.8-3.5
		c2.1-0.8,4.9-1.4,8-1.9c2-0.3,4-0.4,5.8-0.4c0.1,0,0.1,0,0.2,0c0.1,0,0.1,0,0.2,0c-0.1,0-0.1,0-0.2,0c0.8,0,1.5,0,2.2,0.1
		c1.9,0.2,4.4,0.6,4.6,2.4c0.5,3.5-8.9,5-11.8,5.4c-2.1,0.3-4.2,0.4-6,0.4c-0.8,0-1.5,0-2.2-0.1C37.4,24.1,34.9,23.7,34.6,21.9z
		 M35,64.1c-3.5-0.6-5.7-1.8-6.3-3.3c-0.6-1.3,0.2-2.6,0.2-2.6c0.1-0.2,0.1-0.3,0.1-0.5c0-0.2-0.2-0.3-0.3-0.4c-1.9-1-3-2.1-3.4-3.5
		c-0.4-1.6,0.5-3,0.5-3c0.1-0.2,0.1-0.4,0.1-0.6c-0.1-0.2-0.3-0.3-0.5-0.4c-2.6-0.4-4.5-1.3-5.4-2.6c-0.6-0.9-0.8-1.9-0.5-3
		c0.1-0.6,0.6-1.1,1.3-1.5c1.4-0.8,3.5-1.2,6-1.2c2.1,0,4.4,0.3,6.6,0.9c-0.1,0.6-0.1,1.2-0.1,1.8c0,0.5,0,0.9,0,1.4
		c0,0.2,0,0.3,0.1,0.5c0,0.3,0.1,0.6,0.1,0.9c0,0.2,0.1,0.4,0.1,0.5c0.1,0.3,0.1,0.5,0.2,0.8c0,0.2,0.1,0.4,0.2,0.5
		c0.1,0.2,0.1,0.5,0.2,0.7c0.1,0.2,0.1,0.4,0.2,0.5c0.1,0.2,0.2,0.5,0.3,0.7c0.1,0.2,0.2,0.3,0.2,0.5c0.1,0.2,0.2,0.4,0.3,0.6
		c0.1,0.2,0.2,0.3,0.3,0.5c0.1,0.2,0.2,0.4,0.3,0.6c0.1,0.2,0.2,0.3,0.3,0.5c0.1,0.2,0.2,0.4,0.3,0.5c0.1,0.1,0.2,0.3,0.3,0.4
		c0.1,0.2,0.2,0.3,0.3,0.5c0.1,0.1,0.2,0.3,0.3,0.4c0.1,0.1,0.2,0.3,0.3,0.4c0.1,0.1,0.2,0.2,0.3,0.4c0.1,0.1,0.2,0.3,0.3,0.4
		c0.1,0.1,0.2,0.2,0.3,0.3c0.1,0.1,0.2,0.2,0.3,0.3c0.1,0.1,0.2,0.2,0.3,0.3c0.1,0.1,0.2,0.2,0.2,0.2c0.1,0.1,0.2,0.2,0.2,0.2
		c0.1,0.1,0.1,0.1,0.2,0.2c0.1,0.1,0.1,0.1,0.2,0.2c0,0,0.1,0,0.1,0.1c0.1,0.1,0.1,0.1,0.1,0.1C40,60.1,40,62,40.1,64
		C38.5,64.4,37.4,64.6,35,64.1z M41.1,52.6C41.1,52.6,41.1,52.6,41.1,52.6L41.1,52.6C41.1,52.6,41.1,52.6,41.1,52.6
		c-0.2,0.6-0.3,1.3-0.4,1.9c0,0.1,0,0.2,0,0.2c-0.1,0.7-0.2,1.3-0.3,2c0,0,0-0.1-0.1-0.1c-0.1-0.1-0.1-0.1-0.2-0.2
		c-0.1-0.1-0.1-0.1-0.2-0.2c-0.1-0.1-0.2-0.2-0.2-0.3c-0.1-0.1-0.1-0.1-0.2-0.2c-0.1-0.1-0.2-0.2-0.2-0.3c-0.1-0.1-0.1-0.2-0.2-0.3
		c-0.1-0.1-0.2-0.2-0.3-0.3c-0.1-0.1-0.2-0.2-0.2-0.3c-0.1-0.1-0.2-0.2-0.3-0.3c-0.1-0.1-0.2-0.2-0.2-0.3c-0.1-0.1-0.2-0.2-0.3-0.4
		c-0.1-0.1-0.2-0.2-0.2-0.4c-0.1-0.1-0.2-0.3-0.3-0.4c-0.1-0.1-0.2-0.3-0.2-0.4c-0.1-0.1-0.2-0.3-0.3-0.4c-0.1-0.1-0.2-0.3-0.2-0.4
		c-0.1-0.1-0.2-0.3-0.2-0.4c-0.1-0.1-0.1-0.3-0.2-0.4c-0.1-0.2-0.1-0.3-0.2-0.5s-0.1-0.3-0.2-0.5c-0.1-0.2-0.1-0.3-0.2-0.5
		c-0.1-0.2-0.1-0.3-0.2-0.5c-0.1-0.2-0.1-0.3-0.2-0.5c-0.1-0.2-0.1-0.4-0.1-0.5c0-0.2-0.1-0.3-0.1-0.5c0-0.2-0.1-0.4-0.1-0.6
		c0-0.2-0.1-0.3-0.1-0.5c0-0.2,0-0.4-0.1-0.7c0-0.1,0-0.3,0-0.4c0-0.4,0-0.7,0-1.1c0,0,0,0,0,0c0-0.7,0.1-1.5,0.2-2.2
		c0.9-9.3,5-14.2,12.4-15.1c0.8-0.1,1.5-0.1,2.2-0.1c6.5,0,11,3.6,13.7,10.8c0,0,0,0,0,0c0.2,0.6,0.5,1.3,0.7,2
		c2.1,7-3.1,12.9-4.7,14.5c-0.2-0.2-0.3-0.3-0.5-0.5c-0.2-0.3-0.5-0.5-0.7-0.8c0,0,0,0,0,0l0,0c0,0,0,0,0,0c0,0,0,0,0,0
		c-0.1-0.1-0.2-0.2-0.3-0.3c-0.3-0.3-0.6-0.7-0.9-1c-0.1-0.1-0.1-0.2-0.2-0.2c0,0,0,0,0,0c0,0,0,0,0,0v0c0,0,0,0,0,0
		c-0.2-0.3-0.5-0.6-0.7-1c-0.2-0.3-0.5-0.6-0.7-1c0,0,0,0,0,0c0,0,0,0,0,0c-0.1-0.1-0.2-0.3-0.3-0.4c0.1-0.1,0.1-0.2,0.1-0.3
		c0.7-2.9,1-7.5-1.2-12.8c-0.1-0.3-0.5-0.5-0.8-0.3c0,0-3.3,1.4-11.4,0.6c-0.3,0-0.6,0.2-0.7,0.5c0,0.2-1.2,6.1,1.4,12.2
		c0.1,0.1,0.1,0.2,0.3,0.3c0,0,0.1,0,0.1,0.1c-0.2,0.4-0.3,0.8-0.5,1.3c0,0.1-0.1,0.2-0.1,0.3C41.5,51.2,41.3,51.8,41.1,52.6
		C41.1,52.5,41.1,52.5,41.1,52.6z M53.5,47.9c0,0-0.1,0-0.1,0.1c0,0,0,0,0,0c-1.6,0.9-3.5,1.3-5.3,1.3c-0.7,0-1.5-0.1-2.2-0.3
		c-0.2,0-0.4-0.1-0.6-0.2c-0.2,0-0.3-0.1-0.5-0.1c0,0-0.1,0-0.1,0c-0.2-0.1-0.4-0.2-0.6-0.2c-0.2-0.1-0.5-0.2-0.7-0.3c0,0,0,0,0,0
		c0,0,0,0,0,0c0,0,0,0,0,0c0,0,0,0,0,0C43.2,48,43.1,48,43,47.9c-1.9-4.6-1.5-9.1-1.3-10.7c6.2,0.5,9.5-0.2,10.8-0.5
		C54.3,41.3,54.1,45.3,53.5,47.9z M62.5,83.4c-0.1,0.2-0.3,0.5-1,0.6c-2.5,0.4-5-2.1-6-3.3c0.3-0.1,0.6-0.2,0.9-0.3
		c1.5-0.5,3.1-1.2,4.7-2C62,80,62.9,82.3,62.5,83.4z M69.6,78c-1.3,1.4-4.1-0.5-5.4-1.5c1.3-0.9,2.7-2,4-3.2c0.7,0.6,1.9,1.8,2,3.1
		C70.3,77,70.1,77.5,69.6,78z M70.7,66.4c0.2,1.2-0.1,2.3-0.8,3.2c-0.7,0.8-1.4,1.6-2.1,2.3c0,0,0,0,0,0c-1.5,1.5-3.1,2.8-4.9,3.9
		c0,0,0,0,0,0c-0.6,0.4-1.2,0.7-1.8,1.1c0,0,0,0,0,0c0,0-2.7,1.4-5.1,2.2c-0.6,0.2-1.1,0.4-1.7,0.5c0,0-0.1,0-0.1,0c0,0,0,0,0,0
		c-0.9,0.3-1.9,0.5-2.7,0.6c-2.7,0.5-5.5-1-6.6-3.5c-2-4.5-3-8.7-3.4-12.4c0,0,0,0,0-0.1c-0.2-2.3-0.2-4.6,0-6.9c0,0,0,0,0,0
		c0,0,0,0,0,0c0-0.4,0.1-0.8,0.2-1.2c0,0,0,0,0-0.1l0-0.2c0-0.2,0.1-0.5,0.1-0.7c0.1-0.5,0.2-0.9,0.3-1.4c0-0.1,0-0.1,0-0.2
		c0,0,0-0.1,0-0.1l0.1-0.3c0,0,0,0,0,0c0.1-0.5,0.3-1.1,0.4-1.6c0-0.1,0.1-0.2,0.1-0.3c0.2-0.6,0.4-1.3,0.7-1.9
		c0.3,0.1,0.7,0.3,1,0.4c0.4,0.1,0.7,0.2,1.1,0.3c0.1,0,0.1,0,0.2,0c0.3,0.1,0.6,0.1,0.9,0.2c0.1,0,0.1,0,0.2,0c0.3,0,0.7,0.1,1,0.1
		c0,0,0,0,0,0c0.1,0,0.3,0,0.4,0c0.2,0,0.3,0,0.5,0c0.2,0,0.4,0,0.6,0c0.3,0,0.5,0,0.8-0.1c0.1,0,0.1,0,0.2,0
		c0.6-0.1,1.2-0.3,1.7-0.5c0.1-0.1,0.3-0.1,0.4-0.2c0.3-0.1,0.5-0.2,0.8-0.3c0,0,0.1,0,0.1-0.1c0.4,0.5,0.7,1,1.1,1.5
		c0.1,0.1,0.1,0.2,0.2,0.2c0.3,0.4,0.7,0.9,1,1.3c0,0,0,0,0,0c0,0,0,0,0,0c0,0,0,0,0,0c0,0,0,0,0,0.1c0,0,0,0,0,0
		c0.1,0.1,0.2,0.2,0.3,0.4c0.3,0.3,0.6,0.7,0.9,1c0,0,0.1,0.1,0.1,0.1c2,2.3,4,4.2,5.9,5.7c0.1,0.1,0.2,0.1,0.3,0.2
		c0.5,0.4,0.9,0.7,1.4,1.1c0,0,0.1,0.1,0.1,0.1c0,0,0,0,0,0c1.4,1,2.7,1.8,3.9,2.5C69.8,64.2,70.5,65.2,70.7,66.4z M76.3,38.3
		c-0.7,2.1-2.7,4.1-5.2,5.3c-0.2,0.1-0.4,0.3-0.4,0.6c0,0.2,0.1,0.5,0.3,0.6c0,0,1.8,1,2,2.7c0.1,1.1-0.4,2.3-1.8,3.6
		c-0.1,0.1-0.2,0.3-0.2,0.5c0,0.2,0.1,0.3,0.2,0.5c0,0,1.1,1,0.9,2.3c-0.2,1.6-1.9,3.2-4.8,4.7c-0.6,0.3-1.3,0.6-2.1,0.9
		c0,0-0.1,0-0.1-0.1c-0.4-0.3-0.8-0.6-1.2-0.9c-0.1-0.1-0.2-0.1-0.3-0.2c-1.4-1.1-2.7-2.3-4-3.7c0.9-0.9,2.9-3.1,4.2-6.1
		c0,0,0-0.1,0.1-0.1c0.1-0.3,0.3-0.7,0.4-1c0-0.1,0.1-0.2,0.1-0.3c0.1-0.2,0.1-0.4,0.2-0.6c0.1-0.2,0.1-0.5,0.2-0.8
		c0-0.2,0.1-0.3,0.1-0.5c0-0.2,0.1-0.5,0.1-0.7c0-0.2,0-0.3,0.1-0.5c0-0.3,0.1-0.6,0.1-0.9c0-0.1,0-0.2,0-0.3c0-0.4,0-0.7,0-1.1
		c0-0.1,0-0.2,0-0.3c0-0.4-0.1-0.8-0.1-1.2c0-0.1,0-0.1,0-0.2c-0.1-0.4-0.2-0.9-0.3-1.3c-0.2-0.5-0.3-1-0.5-1.5
		c5.7-2.7,11-3.7,11.9-2.1v0C76.7,36.6,76.5,37.6,76.3,38.3z"/>
	<path class="st0" d="M48.5,59.2c-0.2,0-0.4,0.1-0.5,0.3c-0.8,1.3-3.1,1.9-4,2c-0.2,0-0.4,0.1-0.5,0.3c-0.1,0.2-0.1,0.4,0,0.6
		c0.8,2,2.5,3.7,4.3,4.2c0.3,0.1,0.6,0.1,0.9,0.1c0.6,0,1.1-0.2,1.6-0.5c2-1.6-0.6-5.9-1.2-6.7C49,59.3,48.8,59.2,48.5,59.2z
		 M49.5,65.2c-0.4,0.3-0.8,0.3-1.4,0.2C47,65.1,45.8,64,45,62.7c0.9-0.2,2.4-0.7,3.4-1.7C49.4,62.6,50.2,64.7,49.5,65.2z"/>
	<path class="st0" d="M57.4,56.5c-0.2-0.1-0.5,0-0.6,0.2c-1.4,1.9-4.4,1.3-4.4,1.3c-0.2,0-0.4,0-0.6,0.2c-0.1,0.1-0.2,0.3-0.2,0.6
		c0.1,0.4,0.6,3.8,2.3,5.1c0.4,0.3,0.9,0.5,1.4,0.5c0.1,0,0.3,0,0.4,0c0.7-0.1,1.2-0.5,1.6-1.1c1.3-1.9,0.6-5.8,0.5-6.2
		C57.8,56.7,57.7,56.5,57.4,56.5z M56.3,62.4c-0.2,0.3-0.5,0.5-0.8,0.5c-0.3,0.1-0.6,0-0.9-0.2c-0.9-0.6-1.4-2.3-1.6-3.4
		c1,0,2.5-0.1,3.8-0.9C57,59.7,57,61.5,56.3,62.4z"/>
</g>
</svg>
