<?xml version="1.0" encoding="utf-8"?>
<!-- Generator: Adobe Illustrator 19.1.0, SVG Export Plug-In . SVG Version: 6.00 Build 0)  -->
<svg version="1.1" id="Layer_2" xmlns="http://www.w3.org/2000/svg" xmlns:xlink="http://www.w3.org/1999/xlink" x="0px" y="0px"
	 viewBox="0 0 100 100" style="enable-background:new 0 0 100 100;" xml:space="preserve">
<style type="text/css">
	.st0{fill:#231F20;}
</style>
<g>
	<path class="st0" d="M69,56.9c-4.5-4-7.6-9-9.2-14.8C58.1,36,53,31.5,47.1,30.5c0.4-1.4,0.4-2.9,0-4.3c-0.9-3.5-4.1-5.9-7.7-5.9
		c-0.7,0-1.4,0.1-2.1,0.3c-2,0.6-3.8,1.9-4.8,3.7c-1.1,1.8-1.3,4-0.8,6c0.4,1.6,1.3,2.9,2.5,3.9c-4.3,3.8-6.3,9.8-4.7,15.6
		c0.1,0.7,1.6,8.9-1.2,18.1c-0.6,2.1-0.3,4.4,1.1,6.2c1.3,1.8,3.4,2.8,5.6,2.8c0.5,0,1.1-0.1,1.6-0.2c1.4,2.1,3.9,3.5,6.6,3.5
		c0.7,0,1.4-0.1,2.1-0.3c2-0.6,3.8-1.9,4.8-3.7c0.6-1.1,1-2.3,1-3.5l14.9-4c2.5-0.7,4.4-2.6,5-5.1C71.7,61.3,70.9,58.6,69,56.9z
		 M35.4,25.9c0.6-1.1,1.7-1.9,2.9-2.2c0.4-0.1,0.8-0.2,1.2-0.2c0.8,0,1.6,0.2,2.4,0.6c1.1,0.6,1.9,1.7,2.2,2.9
		c0.3,1.2,0.2,2.5-0.5,3.6c-0.6,1.1-1.7,1.9-2.9,2.2c-1.2,0.3-2.5,0.2-3.6-0.5c-1.1-0.6-1.9-1.7-2.2-2.9
		C34.6,28.3,34.8,27,35.4,25.9z M47.5,74.8c-0.6,1.1-1.7,1.9-2.9,2.2c-2.3,0.6-4.7-0.6-5.6-2.7l0.4-0.1l8.7-2.3
		C48.2,72.9,48,73.9,47.5,74.8z M68,63.1c-0.3,1.4-1.3,2.4-2.7,2.8l-29.1,7.9c-1.4,0.4-2.8,0-3.7-1c-1-1-1.3-2.4-0.9-3.8
		c3.1-10.5,1.3-19.4,1.2-19.8c-1-3.7-0.2-7.7,2.1-10.7c2.4-3.1,6-4.9,10-4.9c0,0,0,0,0,0c5.4,0,10.2,3.9,11.8,9.4
		c1.8,6.4,5.2,11.9,10.1,16.3C67.9,60.2,68.4,61.7,68,63.1z"/>
	<path class="st0" d="M38.1,30.9c0.5,0.3,1,0.4,1.5,0.4c0.3,0,0.5,0,0.8-0.1c0.8-0.2,1.4-0.7,1.8-1.4c0.4-0.7,0.5-1.5,0.3-2.2
		s-0.7-1.4-1.4-1.8c-0.7-0.4-1.5-0.5-2.2-0.3c-0.8,0.2-1.4,0.7-1.8,1.4c-0.4,0.7-0.5,1.5-0.3,2.2C36.9,29.8,37.4,30.5,38.1,30.9z
		 M39.1,26.7c0.1,0,0.3-0.1,0.4-0.1c0.7,0,1.4,0.5,1.6,1.2c0.2,0.9-0.3,1.8-1.2,2.1c-0.9,0.2-1.8-0.3-2.1-1.2
		C37.7,27.8,38.2,26.9,39.1,26.7z"/>
	<path class="st0" d="M61.1,58.1l-25.2,6.8c-0.3,0.1-0.5,0.4-0.4,0.8c0.1,0.3,0.3,0.5,0.6,0.5c0.1,0,0.1,0,0.2,0l25.2-6.8
		c0.3-0.1,0.5-0.4,0.4-0.8C61.8,58.2,61.5,58,61.1,58.1z"/>
</g>
</svg>
