<?xml version="1.0" encoding="utf-8"?>
<!-- Generator: Adobe Illustrator 19.1.0, SVG Export Plug-In . SVG Version: 6.00 Build 0)  -->
<svg version="1.1" id="Layer_2" xmlns="http://www.w3.org/2000/svg" xmlns:xlink="http://www.w3.org/1999/xlink" x="0px" y="0px"
	 viewBox="0 0 100 100" style="enable-background:new 0 0 100 100;" xml:space="preserve">
<style type="text/css">
	.st0{fill:#231F20;}
</style>
<g>
	<g>
		<path class="st0" d="M50.4,71.1c7.4,0,13.4-5.6,13.4-10.2c0-3.8-4.2-5.7-12.4-5.7c-5.1,0-11.3,0.9-13.6,3.6
			c-0.7,0.8-1,1.7-0.8,2.7C37.6,65.4,42.3,71.1,50.4,71.1z M38.9,59.7c1.6-1.9,6.7-3.2,12.6-3.2c5.1,0,11.1,0.8,11.1,4.4
			c0,3.6-5.1,8.9-12.2,8.9c-7.1,0-11.6-4.9-12.1-8.5C38.3,60.7,38.4,60.2,38.9,59.7z"/>
		<path class="st0" d="M44,53.4c2,0,3.6-1.6,3.6-3.6S46,46.1,44,46.1s-3.6,1.6-3.6,3.6S42,53.4,44,53.4z M44,47.4
			c1.3,0,2.4,1.1,2.4,2.4s-1.1,2.4-2.4,2.4c-1.3,0-2.4-1.1-2.4-2.4S42.7,47.4,44,47.4z"/>
		<path class="st0" d="M56.4,53.4c2,0,3.6-1.6,3.6-3.6s-1.6-3.6-3.6-3.6c-2,0-3.6,1.6-3.6,3.6S54.4,53.4,56.4,53.4z M56.4,47.4
			c1.3,0,2.4,1.1,2.4,2.4s-1.1,2.4-2.4,2.4c-1.3,0-2.4-1.1-2.4-2.4S55.1,47.4,56.4,47.4z"/>
		<path class="st0" d="M86.2,30.5c-3.1-5.9-5.6-9.6-7.3-11.2c-1-0.8-2.1-1.3-3.2-1.3c-1.8,0-3.4,1.1-4.2,2.8c-1,2.1-0.6,4.6,1.1,6.7
			c3.2,3.9,4.5,8.2,4.1,9.3c-0.1,0-0.3,0.1-0.4,0.1c-0.6,0-1.9-1-3.2-3.8c-0.9-1.9-2.5-3.1-4.2-3.1h0c-1.3,0-2.4,0.6-3.2,1.7
			c-1.2,1.8-1.2,4.4,0.1,7.4c0.4,0.9,0.3,1.4,0.3,1.5c0,0.1-0.1,0.1-0.2,0.2c-3.5-4.9-9.1-7.8-15.3-7.8s-11.8,2.9-15.3,7.8
			c-0.1-0.1-0.2-0.1-0.2-0.2c-0.1-0.1-0.1-0.6,0.3-1.5c1.2-3,1.2-5.6,0.1-7.4c-0.7-1.1-1.9-1.7-3.2-1.7c-1.7,0-3.3,1.2-4.2,3.1
			c-1.3,2.8-2.6,3.8-3.2,3.8c-0.1,0-0.2,0-0.4-0.1c-0.3-1.1,1-5.4,4.1-9.3c1.6-2,2-4.6,1.1-6.7c-0.8-1.7-2.4-2.8-4.2-2.8
			c0,0,0,0,0,0c-1.2,0-2.3,0.4-3.2,1.3c-1.8,1.5-4.2,5.3-7.3,11.2C11,37.6,11.1,45.3,15,49c3.3,3.1,10.4,5.9,16.1,6.4l-0.6,5.3
			c-0.3,2.6-0.2,5.1,0.4,7.3c2.3,8.3,9.9,14.1,18.6,14.1h2c8.6,0,16.3-5.8,18.6-14.1c0.6-2.2,0.8-4.7,0.4-7.3l-0.7-5.9
			c4.6-1,13.4-3.2,16.2-5.9C89.8,45.3,89.9,37.6,86.2,30.5z M78,50c-2.7,0.9-5.6,1.6-7.8,2.1c-0.9,0.1-1.7,0.2-2.5,0.1
			c-0.1,0-0.1,0-0.2,0l0-0.1c0-0.7,0-1.4-0.1-2c0-0.1,0-0.1,0-0.2c-0.2-2.1-0.8-4-1.7-5.7c1-0.2,2.3-0.8,3.1-2
			c0.7-1.1,0.7-2.6,0-4.3c-1.1-2.8-0.7-4.4,0-4.7c0.4-0.2,1,0.2,1.5,1.2c2.8,6,5.8,6.2,7.9,5.3c0.8-0.4,1.4-1.1,1.7-2.1
			c0.8-3.1-1.9-8.6-4.7-12.1c-1.2-1.5-1-3.1-0.3-3.8c0.6-0.6,1.4-0.5,2.1,0.1c0.8,0.7,2.8,3,6.6,10.2c3,5.6,3.1,12.1,0.4,14.7
			C82.5,47.8,80.4,49,78,50z M24.1,21.8c0.4-0.3,0.8-0.5,1.1-0.5c0.3,0,0.7,0.1,0.9,0.4c0.8,0.8,1,2.4-0.3,3.8
			c-2.9,3.5-5.5,9-4.7,12.1c0.2,1,0.8,1.7,1.7,2.1c2,0.9,5.1,0.7,7.9-5.3c0.5-1,1.1-1.4,1.5-1.2c0.7,0.3,1.1,2,0,4.7
			c-0.7,1.7-0.7,3.2,0,4.3c0.7,1.2,2,1.7,3,2C34.4,46,33.8,48,33.5,50c0,0,0,0.1,0,0.1c-0.1,0.7-0.1,1.3-0.1,2l0,0.1
			c0,0-0.1,0-0.2,0c-5.4,0.2-13.3-2.9-16.1-5.6c-2.7-2.6-2.6-9.1,0.4-14.7C21.4,24.7,23.3,22.5,24.1,21.8z M33.6,61.1l1-8.2
			c0,0,0,0,0,0l0.1-0.7c0-0.7,0-1.3,0.1-2c0-0.1,0-0.2,0-0.3c0.3-2,1-4,2-5.8c0,0,0-0.1,0-0.1c2.7-4.7,7.7-7.8,13.6-7.8
			c5.9,0,10.9,3.1,13.6,7.9c0,0,0,0,0,0.1c0.7,1.2,1.2,2.5,1.6,3.9c0,0,0,0.1,0,0.1c0.1,0.6,0.3,1.2,0.3,1.8c0,0.1,0,0.3,0.1,0.4
			c0.1,0.7,0.1,1.3,0.1,2l0.1,0.6l0,0l1,8.2c0.3,2.2,0.1,4.3-0.4,6.1C65,74.2,58.6,79,51.4,79h-2c-7.2,0-13.6-4.9-15.5-11.8
			C33.5,65.4,33.4,63.4,33.6,61.1z"/>
		<path class="st0" d="M53.8,73.7c0,0.1-1.2,1.5-3.3,1.5c-2.1,0-3.2-1.4-3.3-1.5c-0.2-0.3-0.6-0.3-0.9-0.1c-0.3,0.2-0.3,0.6-0.1,0.9
			c0.1,0.1,1.6,1.9,4.3,1.9s4.2-1.9,4.3-1.9c0.2-0.3,0.2-0.7-0.1-0.9C54.4,73.4,54,73.4,53.8,73.7z"/>
	</g>
	<g>
		<circle class="st0" cx="43.4" cy="49.9" r="1"/>
		<circle class="st0" cx="56.1" cy="49.9" r="1"/>
	</g>
</g>
</svg>
