<?xml version="1.0" encoding="utf-8"?>
<!-- Generator: Adobe Illustrator 19.1.0, SVG Export Plug-In . SVG Version: 6.00 Build 0)  -->
<svg version="1.1" id="Layer_2" xmlns="http://www.w3.org/2000/svg" xmlns:xlink="http://www.w3.org/1999/xlink" x="0px" y="0px"
	 viewBox="0 0 100 100" style="enable-background:new 0 0 100 100;" xml:space="preserve">
<style type="text/css">
	.st0{fill:#231F20;}
</style>
<g>
	<path class="st0" d="M61.4,54.7c-0.3-0.1-0.7,0.1-0.8,0.4c-0.3,0.9-1.3,1.3-2.2,1c0,0-0.1-0.1-0.2-0.1c-0.4-0.2-0.7-0.4-0.8-0.8
		c-0.2-0.4-0.2-0.9-0.1-1.3c0.1-0.3-0.1-0.7-0.4-0.8c-0.3-0.1-0.7,0.1-0.8,0.4c-0.3,0.8-0.2,1.6,0.1,2.3c0.2,0.5,0.6,0.9,1,1.2
		c-0.4,1.6-2.3,6.7-9.9,6.7c-8.9,0-10.5-6.9-10.5-7.2c0-0.1,0-0.1-0.1-0.2c1-0.9,1.3-2.4,0.7-3.7c-0.2-0.3-0.5-0.5-0.8-0.3
		c-0.3,0.2-0.5,0.5-0.3,0.8c0.4,0.9,0,2.1-0.9,2.5c-0.5,0.2-1,0.2-1.4,0.1c-0.5-0.2-0.9-0.5-1.1-1c-0.2-0.3-0.5-0.5-0.8-0.3
		c-0.3,0.2-0.5,0.5-0.3,0.8c0.4,0.8,1,1.3,1.8,1.6c0.3,0.1,0.7,0.2,1.1,0.2c0.3,0,0.7-0.1,1-0.2c0.3,1.2,2.6,8,11.7,8
		c8.2,0,10.5-5.5,11.1-7.5c0.2,0,0.3,0,0.5,0c1.2,0,2.4-0.8,2.8-2C61.9,55.2,61.7,54.8,61.4,54.7z"/>
	<path class="st0" d="M75.9,23.1c-1.6-1.8-3.8-2.8-6.2-3c-0.2,0-0.3,0-0.5,0c-1,0-2.1,0.2-3,0.5c-3.2-2.5-8.5-5-17.1-5.1
		c-0.2,0-0.3,0-0.5,0h0C35.7,15.5,30,25,27.9,30.1c-2.2,1.2-3.4,3-4.6,5.6c-1.4,3-1.6,5.9-0.7,8.1c-1.2,1.3-1.8,3-1.8,4.8
		c0,2.2,1,4.3,2.7,5.7c-1,6.1,1.5,13.4,6.6,18.9c4.7,5,8.6,7,10.9,8.1c0.6,0.3,1.3,0.7,1.6,0.9c0.3,1.3,1.4,2.6,3.4,2.6
		c4.1,0,13.9-6.7,18.3-11.7c3.1-3.5,7.9-11.3,6.8-18c2.4-1.2,4-3.7,4-6.5c0-1.8-0.6-3.4-1.7-4.7c0.5-1.7,0.5-3.9-0.3-6.5
		c3-1.4,5.1-4.3,5.3-7.8C78.3,27.2,77.5,24.9,75.9,23.1z M48.6,18.7c0.1,0,0.3,0,0.4,0c8.3,0.1,13.1,2.6,15.7,4.9
		c-0.1,0.1-0.1,0.1-0.2,0.2c-0.1,0-0.1,0.1-0.2,0.1c0,0-0.1,0.1-0.1,0.1c-0.3,0.2-0.5,0.5-0.7,0.8c-0.1,0.1-0.1,0.2-0.2,0.3
		c-0.2,0.3-0.4,0.6-0.5,0.9c0,0.1-0.1,0.2-0.1,0.3c-0.2,0.3-0.3,0.7-0.4,1.1c0,0.1,0,0.1,0,0.2c-0.1,0.4-0.2,0.8-0.2,1.3
		c0,0,0,0.1,0,0.1c-1.2-1.4-2.9-3.2-5.1-4.6c-0.3-0.2-0.7-0.1-0.9,0.2c-0.2,0.3-0.1,0.7,0.2,0.9c2.5,1.6,4.5,3.9,5.5,5.3
		c-0.2,0-0.3-0.1-0.5-0.1c-0.2-0.1-0.4-0.1-0.6-0.2c-0.3-0.1-0.6-0.1-0.9-0.2c-0.2-0.1-0.4-0.1-0.7-0.2c-0.3-0.1-0.6-0.1-0.9-0.2
		c-0.2,0-0.5-0.1-0.7-0.1c-0.3-0.1-0.6-0.1-0.9-0.1c-0.3,0-0.5-0.1-0.8-0.1c-0.3,0-0.6-0.1-0.9-0.1c-0.3,0-0.6-0.1-0.9-0.1
		c-0.3,0-0.6-0.1-0.9-0.1c-0.3,0-0.6,0-0.9-0.1c-0.3,0-0.6,0-0.9,0c-0.3,0-0.6,0-1,0c-0.3,0-0.6,0-0.9,0c-0.3,0-0.7,0-1,0
		c-0.3,0-0.6,0-0.9,0c-0.3,0-0.7,0-1,0c-0.3,0-0.6,0-0.9,0c-0.4,0-0.7,0-1.1,0.1c-0.3,0-0.6,0-0.9,0.1c-0.4,0-0.8,0.1-1.1,0.1
		c-0.3,0-0.6,0-0.9,0.1c-0.4,0-0.8,0.1-1.2,0.1c-0.3,0-0.6,0.1-0.9,0.1c-0.4,0.1-0.9,0.1-1.3,0.2c-0.3,0-0.5,0.1-0.8,0.1
		c-0.5,0.1-1,0.2-1.4,0.2c-0.2,0-0.4,0.1-0.7,0.1c-0.7,0.1-1.4,0.3-2.1,0.4c-0.3,0.1-0.6,0.1-0.9,0.2c-0.2,0-0.3,0.1-0.5,0.1
		c-0.1,0-0.2,0-0.3,0.1c-0.1,0-0.2,0-0.3,0.1C33.1,25.9,38,18.7,48.6,18.7z M26.1,37c1.2-2.7,2.1-3.7,3.9-4.4c0,0,0,0,0,0
		c0.5-0.2,1.1-0.4,2-0.6c0,0,0,0,0.1,0c0.3-0.1,0.6-0.1,0.9-0.2c1.2-0.2,2.4-0.5,3.6-0.7c0.1,0,0.3,0,0.4-0.1
		c1.1-0.2,2.3-0.3,3.4-0.4c0.2,0,0.4,0,0.6-0.1c1.1-0.1,2.2-0.2,3.2-0.3c0.2,0,0.4,0,0.6,0c1.1-0.1,2.1-0.1,3.1-0.1
		c0.3,0,0.6,0,0.9,0c0.3,0,0.6,0,0.9,0c0.4,0,0.7,0,1.1,0c0.3,0,0.6,0,0.9,0c0.4,0,0.7,0,1.1,0.1c0.3,0,0.6,0,0.8,0.1
		c0.3,0,0.7,0.1,1,0.1c0.3,0,0.5,0.1,0.8,0.1c0.3,0,0.7,0.1,1,0.1c0.3,0,0.5,0.1,0.8,0.1c0.3,0.1,0.7,0.1,1,0.2
		c0.2,0,0.5,0.1,0.7,0.1c0.3,0.1,0.6,0.1,0.9,0.2c0.2,0.1,0.4,0.1,0.7,0.2c0.3,0.1,0.6,0.2,0.9,0.2c0.2,0.1,0.4,0.1,0.6,0.2
		c0.2,0.1,0.5,0.1,0.7,0.2c0.6,1.1,1.4,2.1,2.5,2.8c0,0,0,0,0,0c0.5,0.3,1,0.6,1.6,0.8c0.1,0,0.1,0,0.2,0.1c0.2,0.1,0.4,0.1,0.7,0.2
		c0.1,0,0.2,0,0.2,0c0.3,0,0.6,0.1,0.9,0.1c0.1,0,0.2,0,0.2,0c0.2,0.3,0.3,0.5,0.4,0.7c1.3,3.7,1,5.9,0.3,6.7
		c-0.1,0.1-0.2,0.1-0.2,0.2c-0.2,0.1-0.3,0.1-0.5,0.2c0,0-0.1,0-0.1,0c-0.2,0-0.4,0-0.6-0.1l-0.7-0.2c-2.7-0.8-7.2-2.3-19-2.9
		c-9.2-0.5-13.5,1-16.6,2.2c-1.2,0.4-2.3,0.8-3.5,1c-0.3,0-0.5,0-0.7,0c-0.1,0-0.1,0-0.2,0c-0.2,0-0.3,0-0.5-0.1c-0.1,0-0.1,0-0.2,0
		c-0.4-0.1-0.8-0.4-1-0.7C24.9,41.9,25,39.5,26.1,37z M61.7,71c-5,5.8-15,11.4-16.1,10.5c-0.2-1.5-1.4-2.1-3.3-3.1
		c-2.3-1.1-5.7-2.9-10-7.5c-4.6-4.9-6.8-11.4-5.7-16.6c0.1-0.4,0.2-0.8,0.3-1.2c0.1-0.4,0.3-0.7,0.4-1l0.1-0.3
		c0.2-0.3,0.3-0.6,0.5-0.9c0-0.1,0.1-0.1,0.1-0.2l0,0c0.2-0.3,0.4-0.5,0.6-0.7c0,0,0.1-0.1,0.1-0.1c0,0,0,0,0.1,0
		c0.2-0.2,0.5-0.4,0.8-0.6c0.1,0,0.1-0.1,0.2-0.1L30,49c0.2-0.1,0.3-0.2,0.4-0.3c0.2-0.1,0.4-0.2,0.6-0.3c0.6-0.3,1.2-0.5,1.9-0.7
		c0.2-0.1,0.4-0.1,0.6-0.2c0.5-0.1,1-0.2,1.5-0.3c0.2,0,0.5-0.1,0.7-0.1c0.6-0.1,1.2-0.1,1.8-0.1c0.2,0,0.3,0,0.5,0
		c0.6,0,1.3,0,1.9,0.1c-0.2,0.5-0.2,1-0.1,1.6c0.2,1.1,0.6,1.9,1.4,2.6c1.3,1.1,3.4,1.6,6.6,1.6c5.7,0,6.8-1.7,6.8-4.5
		c0-0.2,0-0.4-0.1-0.6c1,0,2.3,0.1,3.2,0.2c0.2,0,0.5,0.1,0.7,0.1c0.5,0.1,0.9,0.2,1.3,0.3c0,0,0,0,0,0c0.5,0.1,1,0.3,1.4,0.4
		l0.4,0.1c0.3,0.1,0.6,0.2,0.9,0.4c0.1,0,0.1,0.1,0.2,0.1l0.1,0.1c0,0,0.1,0,0.1,0.1c0.2,0.1,0.5,0.3,0.7,0.4l0.2,0.1
		c0.1,0.1,0.2,0.1,0.2,0.2c0.2,0.1,0.4,0.3,0.6,0.4l0,0c0.1,0.1,0.2,0.2,0.3,0.3c0.2,0.1,0.3,0.3,0.5,0.4c0.1,0.1,0.2,0.2,0.4,0.4
		c0.2,0.2,0.3,0.4,0.5,0.6c0.1,0.1,0.1,0.2,0.2,0.3c0.1,0.2,0.2,0.3,0.3,0.5c0.1,0.1,0.2,0.3,0.2,0.4l0,0c0.1,0.3,0.3,0.6,0.4,1
		C69.3,60.5,64,68.5,61.7,71z M41.6,47c0.1-0.1,0.1-0.1,0.2-0.2c0,0,0,0,0.1-0.1c0.1-0.1,0.2-0.1,0.3-0.2c0,0,0.1-0.1,0.1-0.1
		c0.1-0.1,0.2-0.1,0.3-0.2c0.1,0,0.1-0.1,0.2-0.1c0.1-0.1,0.3-0.1,0.4-0.2c0.1,0,0.2-0.1,0.3-0.1c0.1,0,0.3-0.1,0.5-0.1
		c0.1,0,0.2-0.1,0.4-0.1c0.2,0,0.4-0.1,0.6-0.1c0.1,0,0.3-0.1,0.4-0.1c0.2,0,0.5-0.1,0.8-0.1c0.2,0,0.3,0,0.4,0c0.4,0,0.9,0,1.4,0
		c0.3,0,0.6,0,0.9,0.1c0.1,0,0.1,0,0.2,0c0.2,0,0.5,0.1,0.7,0.1c0.1,0,0.2,0,0.3,0.1c0.2,0.1,0.4,0.1,0.6,0.2c0.1,0,0.2,0.1,0.3,0.1
		c0.2,0.1,0.3,0.1,0.4,0.2c0.1,0.1,0.3,0.1,0.4,0.2c0,0,0.1,0,0.1,0.1c0.3,0.2,0.6,0.4,0.9,0.7c0,0,0.1,0.1,0.1,0.1
		c0.1,0.1,0.2,0.2,0.3,0.3c0,0,0.1,0.1,0.1,0.1c0.2,0.3,0.2,0.6,0.2,0.9c0,1.6,0,3.2-5.6,3.2c-3.5,0-5.1-0.7-5.9-1.4
		c-0.6-0.6-0.7-1.2-0.7-1.6C41.1,48,41.2,47.5,41.6,47z M68.1,52.7c-0.1-0.2-0.2-0.3-0.3-0.5c0,0-0.1-0.1-0.1-0.1
		c-0.1-0.2-0.3-0.4-0.4-0.6c0-0.1-0.1-0.1-0.1-0.2L67,51.2c0,0,0,0,0,0c-0.2-0.2-0.3-0.3-0.5-0.5c0,0,0,0-0.1-0.1
		c-0.1-0.1-0.2-0.1-0.2-0.2c0,0-0.1-0.1-0.1-0.1c-0.2-0.2-0.3-0.3-0.5-0.4c-0.1-0.1-0.2-0.1-0.3-0.2c-0.1-0.1-0.3-0.2-0.4-0.3
		c-0.1-0.1-0.3-0.2-0.5-0.3l-0.2-0.1c-0.1-0.1-0.3-0.2-0.5-0.2c-0.2-0.1-0.4-0.2-0.6-0.3c0,0-0.1,0-0.1-0.1
		c-0.3-0.1-0.5-0.2-0.8-0.3c-0.2-0.1-0.3-0.1-0.5-0.2l-0.1,0c-0.5-0.2-1-0.3-1.5-0.5c-0.5-0.1-1-0.2-1.5-0.3c0,0-0.1,0-0.1,0
		c-0.2,0-0.5-0.1-0.8-0.1c-1.1-0.1-2.4-0.2-3.8-0.2c-0.7-1-2-1.7-3.4-2.2c0,0,0,0,0,0c-0.5-0.2-1.1-0.3-1.7-0.4c-0.1,0-0.1,0-0.2,0
		c-0.3,0-0.6,0-0.8,0c-0.4,0-0.9,0-1.3,0c-0.2,0-0.3,0-0.4,0c-0.2,0-0.5,0-0.7,0.1c-0.2,0-0.3,0-0.5,0.1c-0.2,0-0.4,0.1-0.6,0.1
		c-0.2,0-0.3,0.1-0.4,0.1c-0.2,0-0.3,0.1-0.5,0.1c-0.1,0-0.3,0.1-0.4,0.1c-0.1,0-0.3,0.1-0.4,0.1c-0.1,0-0.2,0.1-0.3,0.2
		c-0.1,0.1-0.3,0.1-0.4,0.2c-0.1,0.1-0.2,0.1-0.3,0.2c-0.1,0.1-0.2,0.1-0.3,0.2c-0.1,0.1-0.2,0.2-0.3,0.3c-0.1,0.1-0.1,0.1-0.2,0.2
		c-0.3,0-0.6,0-0.8-0.1c-0.2,0-0.4,0-0.5,0c-0.4,0-0.7,0-1.1,0c-0.1,0-0.2,0-0.3,0c-0.4,0-0.8,0-1.2,0c-0.1,0-0.1,0-0.2,0
		c-0.4,0-0.8,0.1-1.2,0.1c0,0-0.1,0-0.1,0c-0.4,0-0.8,0.1-1.2,0.2c0,0-0.1,0-0.1,0c-0.4,0.1-0.7,0.2-1.1,0.3c0,0-0.1,0-0.1,0
		c-0.4,0.1-0.7,0.2-1.1,0.3c0,0-0.1,0-0.1,0c-0.4,0.1-0.8,0.3-1.1,0.4c-0.2,0.1-0.5,0.2-0.7,0.4c-0.1,0.1-0.3,0.2-0.4,0.3
		c0,0,0,0-0.1,0L29,48.1c0,0-0.1,0.1-0.1,0.1c-0.3,0.2-0.5,0.4-0.7,0.6c-0.1,0-0.1,0.1-0.2,0.1l-0.1,0.1c-0.1,0.1-0.2,0.2-0.2,0.2
		c-0.1,0.1-0.3,0.3-0.4,0.5c-0.1,0.1-0.1,0.2-0.2,0.3c0,0,0,0,0,0L27,50.2c-0.1,0.1-0.1,0.2-0.1,0.2c-0.2,0.2-0.3,0.5-0.4,0.7
		c0,0,0,0.1-0.1,0.1c-0.1,0.1-0.1,0.2-0.2,0.3c0,0,0,0,0,0c-0.1,0.1-0.1,0.3-0.2,0.4c0,0,0,0.1,0,0.1c-1.3-0.7-2.1-2.1-2.1-3.6
		c0-1.5,0.8-2.9,2.2-3.6c0.2,0.1,0.4,0.2,0.6,0.2c0.1,0,0.1,0,0.2,0c0.3,0.1,0.5,0.1,0.8,0.1c0,0,0.1,0,0.1,0c0,0,0,0,0.1,0
		c0.3,0,0.5,0,0.8-0.1c1.3-0.2,2.4-0.6,3.7-1.1c3-1.1,7.1-2.5,16.1-2.1c11.7,0.6,16.1,2,18.7,2.8l0.7,0.2c0.2,0.1,0.5,0.1,0.7,0.1
		c0.1,0,0.1,0,0.2,0c0.2,0,0.4,0,0.6,0c0.1,0,0.1,0,0.1,0c0.1,0,0.2-0.1,0.3-0.1c1.2,0.8,1.9,2.1,1.9,3.5
		C71.7,50.7,70.1,52.4,68.1,52.7z M69.3,34.9C69.3,34.9,69.3,34.9,69.3,34.9c-0.1,0-0.1,0-0.2,0c-0.1,0-0.2,0-0.3,0
		c-0.3,0-0.7-0.1-1-0.1c-0.1,0-0.2-0.1-0.3-0.1c-0.2-0.1-0.4-0.1-0.6-0.2c-0.1,0-0.2-0.1-0.3-0.1c-0.3-0.1-0.5-0.3-0.7-0.4
		c-0.2-0.1-0.3-0.2-0.4-0.3c-0.1-0.1-0.2-0.2-0.3-0.2c-0.5-0.5-1-1.1-1.3-1.8l0,0c-0.2-0.4-0.3-0.7-0.4-1.1c0-0.1,0-0.2-0.1-0.2
		c0-0.1,0-0.3-0.1-0.4c0-0.3-0.1-0.6,0-0.9c0-0.3,0.1-0.7,0.1-1c0-0.1,0-0.2,0.1-0.3c0.1-0.3,0.2-0.6,0.3-0.9c0-0.1,0.1-0.2,0.1-0.3
		c0.1-0.2,0.2-0.4,0.4-0.6c0.1-0.1,0.1-0.2,0.2-0.3c0.2-0.2,0.4-0.4,0.6-0.6c0.1-0.1,0.2-0.2,0.3-0.3c0.2-0.1,0.3-0.3,0.5-0.4
		c0.1,0,0.1-0.1,0.2-0.1c0,0,0,0,0,0c0.9-0.6,2-0.9,3-0.9c0.1,0,0.2,0,0.3,0c1.6,0.1,3,0.8,4,1.9c1,1.2,1.6,2.7,1.5,4.2
		C74.8,32.5,72.3,34.8,69.3,34.9z"/>
</g>
</svg>
