<?xml version="1.0" encoding="utf-8"?>
<!-- Generator: Adobe Illustrator 19.1.0, SVG Export Plug-In . SVG Version: 6.00 Build 0)  -->
<svg version="1.1" id="Layer_2" xmlns="http://www.w3.org/2000/svg" xmlns:xlink="http://www.w3.org/1999/xlink" x="0px" y="0px"
	 viewBox="0 0 100 100" style="enable-background:new 0 0 100 100;" xml:space="preserve">
<style type="text/css">
	.st0{fill:#231F20;}
</style>
<g>
	<path class="st0" d="M75.6,19.7c-3.3-4.2-6.8-5.1-9.1-5.1c-2.7,0-5.5,1.2-7.8,3.3c-2.1,1.9-5.2,4.6-7.4,6.4c-0.7-0.2-1.3-0.3-2-0.3
		c-0.8,0-1.6,0.1-2.4,0.4c-2.1-1.8-5.4-4.6-7.5-6.6c-2.3-2.1-5.1-3.3-7.8-3.3c-2.4,0-5.9,0.9-9.1,5.1C18.2,25,19.4,32,20.3,35
		c-1.9,2.1-3,4.8-3,7.7v1.5v3.1v17.9c0,4.2,1.3,7.5,7.7,11.2c0.9,0.5,2,1.1,3.2,1.7c0.1,0,0.1,0.1,0.2,0.1
		c6.4,3.1,14.6,6.1,15.5,6.4c2.2,0.8,4,1.1,5.8,1.1c1.9,0,3.7-0.4,5.4-1.3c1.4-0.7,4-2.3,8.3-5c1.5-1,3-1.9,4.4-2.8
		c1.9-1.2,3.5-2.2,4.2-2.7c3.3-2,4.3-4.1,4.3-9.5V46.6v-2.4v-1.5c0-1.6-0.2-3-0.7-4.1c0.4-0.5,0.8-1,1.2-1.7
		c0.1-0.1,0.1-0.2,0.2-0.4C77.2,36.2,80.9,26.6,75.6,19.7z M73.2,52.7v11.8c0,4.7-0.7,5.5-2.8,6.8c-0.5,0.3-1.2,0.7-2.1,1.3V56.2
		c0.5-0.3,1-0.7,1.5-0.9c0,0,0.1,0,0.1-0.1c0.2-0.1,0.4-0.2,0.5-0.3c0.1,0,0.1-0.1,0.2-0.1c0.2-0.1,0.4-0.2,0.5-0.3
		c0.2-0.1,0.4-0.2,0.6-0.4c0.1,0,0.1-0.1,0.2-0.1c0.1-0.1,0.3-0.2,0.4-0.3c0,0,0.1-0.1,0.1-0.1c0.2-0.1,0.3-0.3,0.4-0.4c0,0,0,0,0,0
		C73,53,73.1,52.9,73.2,52.7C73.2,52.7,73.2,52.7,73.2,52.7z M45.1,81.6c-0.6-0.2-3.9-1.4-7.8-3V62c0.1,0.1,0.3,0.1,0.4,0.2
		c0.2,0.1,0.4,0.1,0.5,0.2c0.3,0.1,0.6,0.2,0.9,0.4c0.2,0.1,0.3,0.1,0.5,0.2c0.3,0.1,0.5,0.2,0.8,0.3c0.2,0.1,0.3,0.1,0.5,0.2
		c0.2,0.1,0.5,0.2,0.7,0.3c0.2,0.1,0.3,0.1,0.4,0.2c0.2,0.1,0.4,0.2,0.6,0.2c0.1,0,0.2,0.1,0.4,0.1c0.2,0.1,0.4,0.1,0.5,0.2
		c0.1,0,0.2,0.1,0.3,0.1c0.1,0.1,0.3,0.1,0.4,0.1c0.1,0,0.2,0.1,0.2,0.1c0.2,0.1,0.3,0.1,0.3,0.1c0.3,0.1,0.7,0.2,1,0.3
		c0.1,0,0.3,0.1,0.4,0.1c0.3,0.1,0.5,0.1,0.8,0.2c0.2,0,0.3,0.1,0.5,0.1c0.2,0.1,0.5,0.1,0.8,0.1c0.2,0,0.4,0,0.6,0.1
		c0.3,0,0.5,0,0.8,0c0.1,0,0.2,0,0.4,0c0.1,0,0.2,0,0.3,0c0.1,0,0.3,0,0.4,0c0.3,0,0.5,0,0.8-0.1c0.2,0,0.3,0,0.5-0.1
		c0.3-0.1,0.6-0.1,0.9-0.2c0.1,0,0.3-0.1,0.4-0.1c0.4-0.1,0.9-0.3,1.3-0.5c0.2-0.1,0.3-0.2,0.5-0.3c0,0,0.1-0.1,0.2-0.1
		c0.2-0.1,0.3-0.2,0.5-0.3c0.1,0,0.1-0.1,0.2-0.1c0.2-0.1,0.4-0.2,0.6-0.3c0.1,0,0.2-0.1,0.3-0.2c0.2-0.1,0.4-0.3,0.7-0.4
		c0.1-0.1,0.2-0.1,0.3-0.2c0.2-0.1,0.5-0.3,0.7-0.5c0.1-0.1,0.2-0.1,0.3-0.2c0.3-0.2,0.6-0.3,0.9-0.5c0.1-0.1,0.2-0.2,0.4-0.2
		c0.3-0.2,0.6-0.4,0.9-0.5c0.2-0.1,0.4-0.2,0.5-0.3c0.1-0.1,0.2-0.1,0.3-0.2v16.4c-2.6,1.7-6.2,3.9-7.8,4.7
		C50.5,83.2,47.2,82.4,45.1,81.6z M46.1,28.3c0.2-0.1,0.3-0.2,0.5-0.4l0,0c0.8-0.4,1.6-0.7,2.5-0.7c0.8,0,1.6,0.2,2.2,0.5
		c0,0,0,0,0,0c0.4,0.2,0.8,0.5,1.1,0.8c0,0,0,0,0,0c0.1,0.1,0.2,0.2,0.4,0.4c0.1,0.1,0.2,0.2,0.2,0.3c0.1,0.1,0.2,0.2,0.2,0.3
		c0.1,0.2,0.3,0.4,0.4,0.7c0,0.1,0,0.1,0.1,0.2c0.1,0.2,0.2,0.4,0.2,0.7c0,0.1,0,0.2,0.1,0.3c0.1,0.3,0.1,0.6,0.1,0.9
		c0,0.3,0,0.6-0.1,1c0,0.2-0.1,0.4-0.2,0.6c0,0.1,0,0.2-0.1,0.3c-0.1,0.3-0.2,0.5-0.4,0.7c0,0,0,0,0,0.1c-0.2,0.3-0.3,0.5-0.6,0.7
		c0,0,0,0,0,0c-0.5,0.5-1,0.9-1.6,1.2c0,0-0.1,0-0.1,0c-0.3,0.1-0.5,0.2-0.8,0.3c-0.1,0-0.1,0-0.2,0.1c-0.3,0.1-0.7,0.1-1,0.1
		c-0.4,0-0.7,0-1.1-0.1c0,0-0.1,0-0.1,0c-0.3-0.1-0.6-0.2-0.9-0.3c0,0,0,0-0.1,0c-0.3-0.2-0.6-0.3-0.9-0.5c0,0,0,0,0,0
		c-0.3-0.2-0.6-0.5-0.8-0.8l0,0c-0.2-0.2-0.4-0.5-0.5-0.7c0,0,0-0.1,0-0.1c-0.1-0.2-0.2-0.4-0.3-0.7c0-0.1-0.1-0.2-0.1-0.3
		c0-0.2-0.1-0.3-0.1-0.5c-0.1-0.3-0.1-0.6-0.1-0.9c0,0,0,0,0,0c0,0,0,0,0,0c0-0.3,0-0.6,0.1-0.9c0-0.1,0-0.1,0-0.2
		c0.1-0.3,0.1-0.5,0.3-0.8c0-0.1,0.1-0.1,0.1-0.2c0.1-0.2,0.2-0.4,0.3-0.6c0.1-0.1,0.1-0.2,0.2-0.3c0.1-0.1,0.2-0.2,0.3-0.4
		c0.2-0.2,0.4-0.4,0.6-0.6C46.1,28.4,46.1,28.3,46.1,28.3z M45,27.6c-0.2,0.1-0.3,0.3-0.5,0.4c-0.2,0.2-0.3,0.4-0.5,0.6
		c-0.1,0.1-0.1,0.2-0.2,0.2c-0.2,0.3-0.3,0.6-0.5,0.9c0,0.1-0.1,0.1-0.1,0.2c-0.1,0.3-0.2,0.7-0.3,1c0,0,0,0.1,0,0.2
		c-0.1,0.4-0.1,0.8-0.1,1.2c0,0,0,0,0,0c0,0,0,0,0,0c0,0.4,0,0.7,0.1,1.1c0,0.1,0.1,0.3,0.1,0.4c0.1,0.2,0.1,0.4,0.2,0.6
		c0.2,0.4,0.4,0.9,0.6,1.2c0,0-0.1,0-0.1,0c-0.2,0.1-0.5,0.2-0.7,0.3c-0.1,0.1-0.3,0.1-0.4,0.2c-0.2,0.1-0.5,0.2-0.7,0.3
		c-0.2,0.1-0.4,0.2-0.6,0.3c-0.2,0.1-0.4,0.2-0.7,0.3c-0.3,0.1-0.6,0.2-0.9,0.3c-0.2,0.1-0.4,0.1-0.6,0.2c-0.3,0.1-0.6,0.2-0.9,0.3
		c-0.3,0.1-0.5,0.2-0.8,0.3c-0.2,0.1-0.5,0.2-0.7,0.2c-0.4,0.1-0.7,0.2-1.1,0.3c-0.1,0-0.3,0.1-0.4,0.1c-0.3,0.1-0.6,0.1-0.9,0.2
		c-0.2,0-0.4,0.1-0.6,0.1c-0.5,0.1-0.9,0.1-1.3,0.2c-5.1,0.3-7.1-1.2-8.7-3.8c0,0,0,0,0,0c-0.1-0.2-3.1-8.3,1-13.8
		c1.8-2.4,3.9-3.7,6-3.9c0.2,0,0.4,0,0.6,0c1.9,0,3.9,0.9,5.7,2.5c2.4,2.2,6.2,5.4,8.2,7.1C45.2,27.4,45.1,27.5,45,27.6z M32.1,40.6
		c-0.3,0.3-0.6,0.6-0.9,0.8c-0.1,0.1-0.2,0.2-0.2,0.3c-0.2,0.2-0.4,0.5-0.6,0.8c-0.1,0.1-0.1,0.2-0.2,0.3c-0.2,0.4-0.4,0.7-0.6,1.1
		c0,0,0,0,0,0c-0.2,0.4-0.3,0.8-0.4,1.3c0,0.1-0.1,0.3-0.1,0.4c-0.1,0.3-0.1,0.7-0.2,1c0,0.1,0,0.3-0.1,0.4c0,0.5-0.1,1-0.1,1.6v8.2
		c0,0-0.1,0-0.1,0c-0.3-0.2-0.7-0.3-1-0.5c-0.1,0-0.2-0.1-0.2-0.1c-0.3-0.2-0.6-0.3-0.9-0.5c-5.7-3.2-6.1-5.6-6.1-8.4v-4.5
		c0-2.4,0.9-4.5,2.6-6c0,0,0.1,0.1,0.1,0.1c0.2,0.2,0.3,0.4,0.5,0.7c0.1,0.1,0.2,0.2,0.3,0.3c0.2,0.2,0.3,0.3,0.5,0.5
		c0.1,0.1,0.2,0.2,0.4,0.3c0.2,0.1,0.3,0.3,0.5,0.4c0.1,0.1,0.3,0.2,0.5,0.3c0.2,0.1,0.4,0.2,0.5,0.3c0.2,0.1,0.4,0.2,0.5,0.2
		c0.2,0.1,0.4,0.1,0.6,0.2c0.2,0.1,0.4,0.1,0.6,0.2c0.2,0,0.4,0.1,0.6,0.1c0.2,0,0.5,0.1,0.7,0.1c0.2,0,0.5,0,0.7,0.1
		c0.2,0,0.5,0,0.8,0c0.1,0,0.2,0,0.3,0c0.2,0,0.4,0,0.6,0C31.9,40.5,32,40.5,32.1,40.6C32.2,40.5,32.2,40.5,32.1,40.6
		C32.1,40.5,32.1,40.6,32.1,40.6z M20.5,52.3c0,0,0.1,0.1,0.1,0.1c0.1,0.1,0.1,0.2,0.2,0.2c0.1,0.1,0.2,0.2,0.3,0.3
		c0.1,0.1,0.1,0.2,0.2,0.2c0.1,0.1,0.2,0.2,0.3,0.3c0.1,0.1,0.2,0.2,0.2,0.2c0.1,0.1,0.2,0.2,0.4,0.3c0.1,0.1,0.2,0.2,0.3,0.2
		c0.1,0.1,0.3,0.2,0.4,0.4c0.1,0.1,0.2,0.2,0.3,0.2c0.2,0.1,0.3,0.2,0.5,0.4c0.1,0.1,0.2,0.2,0.3,0.2c0.2,0.1,0.4,0.3,0.6,0.4
		c0.1,0.1,0.2,0.1,0.3,0.2c0.3,0.2,0.7,0.4,1.1,0.6c0.4,0.2,0.8,0.4,1.2,0.7c0,0,0.1,0,0.1,0.1c0.4,0.2,0.9,0.4,1.3,0.7
		c0.1,0,0.1,0.1,0.2,0.1v16.5c-0.8-0.4-1.6-0.8-2.2-1.2c-5.7-3.2-6.1-5.6-6.1-8.4V52.3z M61.5,59c-0.2,0.1-0.4,0.2-0.6,0.4
		c-0.1,0-0.1,0.1-0.2,0.1c-0.3,0.2-0.6,0.4-0.8,0.5c-0.1,0.1-0.2,0.1-0.3,0.2c-0.3,0.2-0.5,0.3-0.8,0.5c-0.1,0.1-0.2,0.1-0.3,0.2
		c-0.3,0.2-0.5,0.3-0.8,0.5c-0.1,0.1-0.2,0.1-0.3,0.2c-0.3,0.2-0.5,0.3-0.8,0.5c-0.1,0.1-0.2,0.1-0.3,0.2c-0.2,0.1-0.5,0.3-0.7,0.4
		c-0.1,0.1-0.2,0.1-0.3,0.2c-0.2,0.1-0.5,0.3-0.7,0.4c-0.1,0-0.1,0.1-0.2,0.1c-0.3,0.1-0.5,0.3-0.7,0.4c-3.2,1.6-6.5,0.8-8.7,0
		c-0.1,0-0.4-0.1-0.7-0.2c-0.1,0-0.2-0.1-0.3-0.1c-0.1,0-0.3-0.1-0.4-0.1c-0.1-0.1-0.3-0.1-0.4-0.2c-0.1,0-0.3-0.1-0.4-0.2
		c-0.2-0.1-0.4-0.1-0.6-0.2c-0.1-0.1-0.3-0.1-0.5-0.2c-0.2-0.1-0.4-0.2-0.7-0.3c-0.2-0.1-0.4-0.2-0.6-0.2c-0.2-0.1-0.5-0.2-0.7-0.3
		c-0.2-0.1-0.4-0.2-0.7-0.3c-0.2-0.1-0.5-0.2-0.7-0.3c-0.3-0.1-0.5-0.2-0.8-0.3c-0.2-0.1-0.3-0.1-0.5-0.2V49c0-2.9,1-4.4,3.8-5.7
		c2.7-1.2,6.6-2.4,7.6-2.7l7.2,3.4c0.1,0,5.8,1.8,5.8,8.9V59z M62.8,76.1V59.4v-6.5c0-1.4-0.2-2.6-0.6-3.7c0-0.1,0-0.1-0.1-0.2
		c-0.4-1.3-1.1-2.3-1.8-3.1c-0.3-0.4-0.6-0.7-0.9-1c-0.1-0.1-0.2-0.2-0.3-0.2c-0.6-0.5-1.2-0.9-1.7-1.2c-0.2-0.1-0.4-0.2-0.5-0.3
		c-0.5-0.2-0.8-0.3-0.8-0.3l-7.4-3.5c-0.1-0.1-0.3-0.1-0.4,0c-0.2,0.1-4.7,1.4-8,2.8c-3.2,1.5-4.5,3.5-4.5,6.9v12v16.8l-5.8-2.5
		V57.9v-9.3c0-0.5,0-1.1,0.1-1.6c0-0.2,0.1-0.3,0.1-0.5c0-0.3,0.1-0.6,0.1-0.9c0-0.2,0.1-0.4,0.2-0.6c0.1-0.2,0.1-0.5,0.2-0.7
		c0.1-0.2,0.2-0.3,0.3-0.5c0.1-0.2,0.2-0.4,0.3-0.6c0.1-0.2,0.2-0.3,0.3-0.5c0.1-0.2,0.2-0.4,0.4-0.5c0.1-0.1,0.3-0.3,0.4-0.4
		c0.2-0.2,0.3-0.3,0.5-0.5c0.1-0.1,0.3-0.2,0.5-0.3c0.2-0.1,0.4-0.3,0.6-0.4c0.2-0.1,0.3-0.2,0.5-0.3c0.2-0.1,0.5-0.3,0.8-0.4
		c0,0,0,0,0,0c0.4-0.1,0.8-0.2,1.2-0.3c0.1,0,0.2,0,0.2-0.1c0.9-0.2,1.8-0.5,2.6-0.8c0,0,0,0,0.1,0c1.7-0.6,3.3-1.3,4.5-1.8
		c0,0,0.1,0,0.1,0c0.2-0.1,0.4-0.2,0.6-0.3c0,0,0,0,0,0c1.1,1.2,2.7,1.9,4.5,1.9c0.4,0,0.8,0,1.2-0.1c0.2,0,0.3-0.1,0.5-0.1
		c0.2-0.1,0.5-0.1,0.7-0.2c0.2-0.1,0.5-0.2,0.7-0.4c0.1-0.1,0.2-0.1,0.3-0.2c0.3-0.2,0.6-0.4,0.9-0.7c0,0,0,0,0,0c0,0,0,0,0,0
		c0.2,0.1,0.4,0.2,0.6,0.3c0.1,0,0.2,0.1,0.2,0.1c0.2,0.1,0.3,0.1,0.5,0.2c0.1,0,0.2,0.1,0.3,0.1c0.2,0.1,0.4,0.2,0.6,0.2
		c0.1,0,0.2,0.1,0.2,0.1c0.6,0.2,1.2,0.5,1.8,0.7c0.1,0,0.1,0,0.2,0.1c0.3,0.1,0.6,0.2,0.9,0.3c0.1,0,0.1,0,0.2,0.1
		c0.7,0.2,1.4,0.5,2.1,0.7c0.2,0.1,0.4,0.2,0.6,0.4h0c3.5,2,5.3,5.9,5.3,11.3v4.4v17.6C66,74.1,64.6,75,62.8,76.1z M65.3,40.5
		c0.4,0,0.9,0,1.3,0c0,0,0.1,0,0.1,0c0.1,0,0.1,0,0.2,0c0.4,0,0.7,0,1.1,0c0.1,0,0.2,0,0.3,0c0.4,0,0.8-0.1,1.2-0.2
		c0.1,0,0.2,0,0.3-0.1c0.3-0.1,0.6-0.1,0.8-0.2c0.1,0,0.2-0.1,0.3-0.1c0.3-0.1,0.6-0.3,0.9-0.4c0.1,0,0.1-0.1,0.2-0.1
		c0.2-0.1,0.3-0.2,0.5-0.3c0.6,1,0.9,2.1,0.9,3.7v3.8c0,4.7-0.7,5.5-2.8,6.8c-0.1,0.1-0.3,0.2-0.5,0.3c-0.1,0-0.1,0.1-0.2,0.1
		c-0.1,0.1-0.3,0.2-0.4,0.3c-0.1,0.1-0.2,0.1-0.3,0.2c-0.1,0.1-0.2,0.2-0.4,0.2c-0.1,0.1-0.2,0.1-0.4,0.2v-3.2c0-0.6,0-1.2-0.1-1.8
		c0-0.1,0-0.3,0-0.4c-0.1-0.6-0.1-1.1-0.2-1.6c0,0,0-0.1,0-0.1c-0.1-0.5-0.2-0.9-0.3-1.3c0-0.1-0.1-0.2-0.1-0.3
		c-0.1-0.4-0.3-0.9-0.4-1.3c0-0.1-0.1-0.1-0.1-0.2c-0.1-0.3-0.3-0.7-0.5-1c0-0.1-0.1-0.2-0.1-0.2c-0.2-0.3-0.4-0.7-0.6-1
		c0-0.1-0.1-0.1-0.1-0.2c-0.2-0.3-0.4-0.5-0.6-0.7c0-0.1-0.1-0.1-0.1-0.2c-0.2-0.3-0.4-0.5-0.7-0.7c0,0,0,0,0-0.1c0,0,0,0,0,0
		C64.7,40.4,65,40.5,65.3,40.5z M72.2,37.6c0,0-0.1,0-0.1,0.1c-1.2,0.9-2.6,1.4-4.6,1.5c0,0-0.1,0-0.1,0c-0.3,0-0.6,0-0.9,0
		c-0.1,0-0.1,0-0.2,0c-0.3,0-0.7,0-1.1,0c-0.4,0-0.8-0.1-1.2-0.1c-0.1,0-0.2,0-0.4-0.1c-0.4-0.1-0.8-0.1-1.2-0.2
		c-0.2,0-0.4-0.1-0.6-0.2c-0.2-0.1-0.4-0.1-0.6-0.2c-0.3-0.1-0.5-0.2-0.8-0.2c-0.2,0-0.3-0.1-0.5-0.2c-0.3-0.1-0.6-0.2-0.8-0.3
		c-0.1,0-0.2-0.1-0.3-0.1c-0.5-0.2-1-0.4-1.4-0.5c-0.2-0.1-0.4-0.2-0.6-0.2c-0.2-0.1-0.3-0.1-0.5-0.2c-0.2-0.1-0.5-0.2-0.7-0.3
		c-0.1-0.1-0.2-0.1-0.4-0.2c-0.3-0.1-0.6-0.3-0.9-0.4c0,0,0,0,0,0c0.1-0.2,0.2-0.3,0.3-0.5c0.1-0.1,0.2-0.3,0.2-0.4
		c0.1-0.2,0.1-0.3,0.2-0.5c0.1-0.2,0.1-0.4,0.2-0.6c0-0.1,0.1-0.3,0.1-0.4c0.1-0.4,0.1-0.7,0.1-1.1c0-0.4,0-0.8-0.1-1.1
		c0-0.1,0-0.1,0-0.2c-0.1-0.3-0.2-0.7-0.3-1c0-0.1-0.1-0.2-0.1-0.2c-0.1-0.3-0.3-0.5-0.4-0.8c-0.1-0.1-0.1-0.2-0.2-0.2
		c-0.2-0.2-0.3-0.4-0.5-0.6c-0.1-0.1-0.2-0.2-0.3-0.3c-0.1-0.1-0.3-0.2-0.4-0.3c-0.1-0.1-0.2-0.2-0.3-0.2c2.2-1.9,5.7-4.8,7.9-6.9
		c1.9-1.8,4.1-2.6,6.2-2.4c2.2,0.2,4.2,1.5,6,3.9c4.2,5.5,1.1,13.7,1.1,13.7C73.6,36.2,73,37,72.2,37.6z"/>
</g>
</svg>
