<?xml version="1.0" encoding="utf-8"?>
<!-- Generator: Adobe Illustrator 19.1.0, SVG Export Plug-In . SVG Version: 6.00 Build 0)  -->
<svg version="1.1" id="Layer_2" xmlns="http://www.w3.org/2000/svg" xmlns:xlink="http://www.w3.org/1999/xlink" x="0px" y="0px"
	 viewBox="0 0 100 100" style="enable-background:new 0 0 100 100;" xml:space="preserve">
<style type="text/css">
	.st0{fill:#231F20;}
</style>
<g>
	<path class="st0" d="M66,25.7c-3.7-1.9-7.2-2.9-10.5-2.9c-6.6,0-12.1,3.8-15.8,11L22,67.7c-1.2,2.2-1.5,3.9-1.2,5.4
		c0.5,2.3,2.5,3.4,3.1,3.7c0.9,0.5,1.9,0.7,2.8,0.7c1.3,0,3.8-0.5,5.6-4l15-28.9c3.9-7.5,6.2-8.6,8.2-8.6c1.2,0,2.7,0.5,4.6,1.4
		c5.9,3.1,4.1,8.7,2.5,11.8c-1.9,3.6-1,7.3,1.9,8.8c0.8,0.4,1.7,0.7,2.6,0.7c1.7,0,4.1-0.8,6.1-4.7c1.9-3.6,4-8.3,3.7-13.5
		C76.8,34.4,73.1,29.4,66,25.7z M72,49.6c-0.1,0.3-0.3,0.6-0.4,0.9c-0.1,0.2-0.2,0.5-0.3,0.7c-0.1,0.1-0.1,0.3-0.2,0.4
		c-0.2,0.4-0.4,0.7-0.5,1c-0.9,1.8-2.5,3.7-4.5,2.6c-1-0.5-1.4-1.6-1.2-2.9c0,0,0,0,0,0c0-0.2,0.1-0.4,0.1-0.5c0-0.1,0-0.1,0.1-0.2
		c0.1-0.2,0.1-0.3,0.2-0.5c0-0.1,0-0.1,0.1-0.2l6.9-2.2C72.2,49.1,72.1,49.3,72,49.6z M25.4,74c-0.9-0.5-1.4-0.9-1.5-1.5
		c-0.2-0.7,0.1-1.8,0.9-3.3l3.1-6l2.3,7.4L29.5,72c-0.6,1.1-1.2,1.8-1.9,2.1C27,74.4,26.2,74.4,25.4,74z M31.4,56.5l1.4-2.6l2.3,7.4
		l-4,7.6l-2.3-7.4L31.4,56.5z M33.6,52.3l4-7.7l2.3,7.4l-4,7.7L33.6,52.3z M44.6,43.1l-3.8,7.2l0,0.1L38.4,43l2.7-5.2l1.3-2.5
		l2.3,7.4C44.7,42.9,44.6,43,44.6,43.1z M43.3,33.9c1.2-2,2.8-4,4.7-5.4l2.1,6.7c-1.6,1.4-3,3.5-4.5,6.1L43.3,33.9z M53.8,33.1
		C53.8,33.1,53.7,33.1,53.8,33.1c-0.4,0.1-0.7,0.2-0.9,0.3c-0.1,0-0.2,0.1-0.3,0.1c-0.2,0.1-0.5,0.2-0.7,0.4
		c-0.2,0.1-0.4,0.3-0.6,0.4c0,0-0.1,0-0.1,0.1l-2.1-6.6c1.8-1.1,3.7-1.7,5.8-1.7l2.2,7C55.9,32.8,54.8,32.8,53.8,33.1z M56.2,26
		c2.4,0.1,5.2,0.9,8.3,2.5c2.7,1.4,4.7,3,6.3,4.8l-7.5,2.4c-0.5-0.4-1-0.7-1.6-1c-1.1-0.6-2.1-1-3.1-1.3L56.2,26z M72.2,35.3
		c0.1,0.1,0.1,0.2,0.2,0.3c0.3,0.5,0.5,1,0.7,1.6c0.1,0.1,0.1,0.3,0.1,0.4c0.1,0.4,0.2,0.8,0.3,1.2c0.1,0.2,0.1,0.5,0.1,0.7
		c0,0.2,0.1,0.4,0.1,0.6l-6.5,2c-0.3-2.1-1.3-4-2.9-5.5l7.2-2.3C71.9,34.7,72.1,35,72.2,35.3z M66.1,49.5c0.9-2.1,1.4-4.2,1.3-6.1
		l6.4-2c0,2-0.4,4.1-1,6L66.1,49.5z"/>
</g>
</svg>
