<?xml version="1.0" encoding="utf-8"?>
<!-- Generator: Adobe Illustrator 19.1.0, SVG Export Plug-In . SVG Version: 6.00 Build 0)  -->
<svg version="1.1" id="Layer_2" xmlns="http://www.w3.org/2000/svg" xmlns:xlink="http://www.w3.org/1999/xlink" x="0px" y="0px"
	 viewBox="0 0 100 100" style="enable-background:new 0 0 100 100;" xml:space="preserve">
<style type="text/css">
	.st0{fill:#231F20;}
</style>
<g>
	<path class="st0" d="M75.8,59.1c-2.4-1-8.6-4.5-8.7-8.7c0-1-0.6-1.8-1.4-2.2c-0.4-0.2-0.7-0.3-1.1-0.3c-0.5,0-1.1,0.2-1.5,0.5
		c0,0-2.5,1.8-5.1,1.9c-0.8-2.1-2.5-3.8-4.5-4.7c0.4-0.2,0.9-0.4,1.4-0.6c0.9-0.3,1.6-1,1.8-2s-0.2-1.9-1-2.5c0,0-5-3.8-5.5-8.3
		c-0.2-1.8,0.3-3.6,1.7-5.3c0.8-0.9,0.8-2.3,0-3.2c-0.5-0.6-1.2-1-2-1c-0.4,0-0.8,0.1-1.1,0.3l0,0c0,0-1.3,0.6-3.1,0.6
		c-4,0-7.7-2.6-10.9-7.5c-0.5-0.8-1.3-1.2-2.2-1.2c-0.3,0-0.5,0-0.8,0.1c-1.1,0.4-1.8,1.4-1.7,2.6c0,0.4,0.5,9-7.6,12.9
		c-1,0.5-1.5,1.5-1.4,2.6s0.9,1.9,1.9,2.2c0,0,4.6,1.2,6.2,4.7c1.1,2.3,0.7,5.2-0.9,8.6c-0.4,0.8-0.3,1.7,0.1,2.4
		c0.5,0.7,1.2,1.2,2.1,1.2c0,0,0.6,0,1.5,0.2c-0.8,1.4-1.2,3-1.2,4.7c0,2,0.6,4,1.7,5.6c-0.4,2.9-2.5,4.3-6.5,4.3
		c-0.1,0-0.3,0-0.4,0c0,0,0,0-0.1,0c-0.9,0-1.7,0.4-2.1,1.1c-0.5,0.7-0.6,1.7-0.2,2.5c0.1,0.2,2.7,6.1-1.4,8.6
		c-1.1,0.7-1.5,2.1-1,3.3c0.4,0.9,1.3,1.5,2.3,1.5c0.3,0,0.6,0,0.8-0.1c0,0,3.2-1.1,6.6-1.1c2.6,0,4.6,0.6,5.7,1.9
		c0.5,0.5,1.2,0.8,1.9,0.8c0.3,0,0.6,0,0.9-0.1c1-0.3,1.6-1.2,1.7-2.2c0-0.6,0.6-5.6,6.4-6.9c1.1,0.4,2.3,0.6,3.6,0.6
		c5,0,9.2-3.5,10.2-8.2c0.9,0.4,1.8,1.1,2.7,1.9c0.5,0.4,1.1,0.7,1.7,0.7c0.2,0,0.5,0,0.7-0.1c0.8-0.2,1.5-0.9,1.8-1.7
		c0,0,1.8-5.7,5.8-5.7c0.3,0,0.6,0,0.9,0.1c0.1,0,0.3,0,0.4,0c1.1,0,2.1-0.7,2.4-1.8C77.6,61,77,59.6,75.8,59.1z M57.8,66.6
		c0,4-3.3,7.2-7.2,7.2c-1.1,0-2.1-0.3-3.1-0.7c-0.6-0.3-1.2-0.7-1.7-1.1c0,0,0,0,0,0c-0.8-0.7-1.4-1.5-1.8-2.4c0,0,0,0,0,0
		c-0.1-0.3-0.3-0.6-0.4-0.9c0,0,0,0,0,0c-0.1-0.3-0.1-0.6-0.2-0.9c0-0.1,0-0.1,0-0.2c0-0.3-0.1-0.6-0.1-0.9c0-0.3,0-0.6,0.1-0.9
		c0,0,0-0.1,0-0.1c0-0.3,0.1-0.6,0.2-0.9c0,0,0,0,0-0.1c0.2-0.6,0.4-1.1,0.7-1.6c0,0,0,0,0,0c0.1-0.2,0.3-0.4,0.4-0.7
		c0,0,0.1-0.1,0.1-0.1c0.1-0.2,0.3-0.4,0.4-0.5c0,0,0.1-0.1,0.1-0.1c0.6-0.6,1.3-1.1,2-1.5c0,0,0,0,0,0c0.2-0.1,0.5-0.2,0.8-0.3
		c0,0,0,0,0,0c0.7-0.2,1.3-0.4,2-0.4c0.1,0,0.1,0,0.2,0c0.7,0,1.4,0.1,2.1,0.2h0c0,0,0,0,0,0c0.7,0.2,1.3,0.5,1.9,0.8
		c0,0,0.1,0,0.1,0.1c0.3,0.2,0.5,0.4,0.8,0.6c0,0,0,0,0.1,0.1c0.2,0.2,0.5,0.4,0.7,0.7c0,0,0,0,0,0c0.9,1.1,1.5,2.4,1.7,3.9
		c0,0,0,0.1,0,0.1C57.8,66.1,57.8,66.4,57.8,66.6z M45.5,73.5c-5.7,1.6-7.4,6.2-7.9,8.4c-2-1.6-4.7-2.1-7.2-2.1
		c-1.8,0-3.6,0.3-4.9,0.6c2.7-3.3,1.5-8,0.8-9.9c6.8-0.2,8.7-4.1,9.2-6.8c0,0,0,0,0,0c0.2,0.2,0.4,0.4,0.7,0.5c0,0,0,0,0.1,0
		c0.2,0.1,0.5,0.3,0.7,0.4c0,0,0,0,0.1,0c0.2,0.1,0.5,0.2,0.7,0.3c0,0,0,0,0,0c0.3,0.1,0.5,0.2,0.8,0.3c0,0,0,0,0.1,0
		c0.2,0.1,0.5,0.1,0.8,0.2c0,0,0.1,0,0.1,0c0.2,0,0.4,0.1,0.7,0.1c0.1,0,0.2,0,0.3,0c0.1,0,0.1,0,0.2,0c0.1,0,0.1,0,0.2,0
		c0.3,0,0.6,0,0.9-0.1c0.1,0,0.1,0,0.2,0c-0.9,2.1-3.4,6.5-8.3,8.5c-0.3,0.1-0.5,0.5-0.3,0.8c0.1,0.2,0.3,0.4,0.6,0.4
		c0.1,0,0.2,0,0.2,0c4.1-1.7,6.6-4.9,8-7.3c0,0,0,0,0,0c0,0.3,0.1,0.5,0.1,0.7c0,0.1,0,0.1,0.1,0.2c0.1,0.3,0.1,0.5,0.2,0.7
		c0,0,0,0.1,0.1,0.1c0.1,0.3,0.2,0.6,0.4,0.8c0,0,0,0,0,0c0.4,0.9,1,1.6,1.7,2.3c0,0,0.1,0.1,0.1,0.1C45,73.1,45.2,73.3,45.5,73.5
		C45.5,73.5,45.5,73.5,45.5,73.5z M31.9,38.8c-1.6-3.5-4.9-5.2-6.9-6c6.3-3.8,7.7-10.1,8-13.3c5.8,7.8,12,7.7,15.1,7
		c-1.1,1.9-1.6,4-1.3,6.1c0.6,4.6,4.2,8.2,5.9,9.7c-2.1,0.9-4,2.5-5.5,4.9c-0.9,0.4-1.8,1-2.5,1.8c0,0.1-0.1,0.1-0.1,0.2
		c-0.2,0.2-0.3,0.4-0.4,0.6c0,0-0.1,0.1-0.1,0.1c0,0,0,0-0.1,0c-1-0.5-2.2-0.7-3.3-0.7c-1.2,0-2.4,0.3-3.4,0.8
		c-0.1,0-0.1,0.1-0.2,0.1c-0.2,0.1-0.4,0.2-0.7,0.4c0,0-0.1,0-0.1,0.1c-2-0.7-3.9-1-5-1.1C33.1,45.4,33.3,41.8,31.9,38.8z
		 M44.9,60.2c-0.2,0.2-0.3,0.3-0.5,0.5c-0.1,0.1-0.1,0.1-0.2,0.2c-0.1,0.2-0.3,0.3-0.4,0.5c-0.1,0.1-0.1,0.1-0.2,0.2
		c-0.1,0.2-0.3,0.4-0.4,0.6c0,0.1-0.1,0.1-0.1,0.2c-0.1,0.2-0.2,0.4-0.4,0.7c0,0,0,0.1-0.1,0.1c-0.1,0.3-0.2,0.5-0.3,0.8
		c-0.2,0-0.3,0.1-0.5,0.1c-0.1,0-0.2,0-0.2,0c-2,0.3-4-0.3-5.5-1.6c0,0,0,0-0.1,0c-0.2-0.2-0.4-0.4-0.6-0.6c-1-1.2-1.7-2.8-1.7-4.5
		c0-2.3,1.2-4.4,3-5.6c0.3-0.2,0.5-0.3,0.8-0.5c0,0,0,0,0,0c1.7-0.8,3.8-0.9,5.5-0.3c0,0,0,0,0,0c0.3,0.1,0.6,0.2,0.8,0.4
		c0,0,0.1,0,0.1,0.1c0.2,0.1,0.4,0.3,0.6,0.4c0.1,0,0.1,0.1,0.2,0.1c0.2,0.2,0.4,0.3,0.6,0.5c0,0,0,0,0,0c0.2,0.2,0.4,0.4,0.6,0.6
		c0,0,0.1,0.1,0.1,0.1c0.1,0.2,0.3,0.4,0.4,0.6c0,0,0,0.1,0.1,0.1c0.3,0.5,0.5,1,0.7,1.5c0,0.1,0,0.1,0,0.2c0.1,0.2,0.1,0.4,0.1,0.7
		c0,0.1,0,0.1,0,0.2c0,0.3,0.1,0.6,0.1,0.8c0,0.2,0,0.5,0,0.8c0,0.1,0,0.2,0,0.2c0,0.1,0,0.2-0.1,0.4c-0.9,0.3-1.6,0.8-2.3,1.4
		C45,60.2,45,60.2,44.9,60.2z M55.3,53.6c0,0.2,0,0.5-0.1,0.7c0,0.1,0,0.2,0,0.2c0,0.2-0.1,0.3-0.1,0.5c0,0.1-0.1,0.2-0.1,0.3
		c0,0.1-0.1,0.3-0.1,0.4c0,0.1-0.1,0.2-0.1,0.3c-0.1,0.1-0.1,0.3-0.2,0.4c-0.1,0.1-0.1,0.2-0.2,0.3c-0.1,0.1-0.2,0.2-0.2,0.3
		c-0.1,0.1-0.1,0.2-0.2,0.2c-0.1,0.1-0.2,0.2-0.3,0.3c-0.1,0.1-0.2,0.1-0.2,0.2c-0.1,0.1-0.2,0.2-0.3,0.3c-0.1,0.1-0.2,0.1-0.3,0.2
		c-0.1,0.1-0.2,0.1-0.3,0.2c-0.3-0.1-0.6-0.1-0.9-0.2c0,0,0,0-0.1,0c-0.3,0-0.6-0.1-1-0.1c-0.6,0-1.2,0.1-1.8,0.2
		c0-0.3,0.1-0.6,0.1-0.9c0-0.3,0-0.6-0.1-0.9c0-0.1,0-0.2,0-0.2c0-0.2-0.1-0.5-0.1-0.7c0-0.1,0-0.2-0.1-0.2
		c-0.1-0.2-0.1-0.5-0.2-0.7c0-0.1,0-0.1-0.1-0.2c-0.2-0.6-0.5-1.1-0.9-1.6c0,0-0.1-0.1-0.1-0.1c-0.1-0.2-0.3-0.4-0.5-0.6
		c-0.1-0.1-0.1-0.1-0.2-0.2c-0.2-0.2-0.3-0.3-0.5-0.5c-0.1-0.1-0.1-0.1-0.2-0.2c-0.2-0.2-0.5-0.4-0.7-0.5c0.1-0.1,0.1-0.2,0.2-0.3
		c0,0,0.1-0.1,0.1-0.1c0.6-0.8,1.4-1.4,2.4-1.8c0,0,0,0,0,0c0.6-0.2,1.2-0.3,1.9-0.3c2.8,0,5.1,2.1,5.4,4.7c0,0,0,0.1,0,0.1
		C55.3,53.2,55.3,53.4,55.3,53.6z M57.8,62.2C57.8,62.2,57.8,62.2,57.8,62.2c-0.2-0.3-0.4-0.6-0.6-0.8c0,0,0,0-0.1-0.1
		c-0.2-0.3-0.4-0.5-0.7-0.7c0,0,0,0,0,0c-0.2-0.2-0.4-0.4-0.7-0.6c-0.1-0.1-0.1-0.1-0.2-0.2c-0.2-0.1-0.4-0.3-0.6-0.4
		c-0.1,0-0.1-0.1-0.2-0.1c-0.1,0-0.1-0.1-0.2-0.1c1.9-0.3,5.2-0.5,9.4,0.9c0.1,0,0.1,0,0.2,0c0.3,0,0.5-0.2,0.6-0.4
		c0.1-0.3-0.1-0.7-0.4-0.8c-4-1.3-7.2-1.3-9.3-1c0.2-0.2,0.3-0.4,0.4-0.6c0-0.1,0.1-0.1,0.1-0.2c0.1-0.2,0.2-0.4,0.3-0.6
		c0-0.1,0.1-0.2,0.1-0.3c0.1-0.2,0.1-0.3,0.2-0.5c0-0.1,0.1-0.2,0.1-0.3c0-0.2,0.1-0.4,0.1-0.6c0-0.1,0-0.2,0-0.3
		c0-0.3,0.1-0.6,0.1-0.9c0,0,0-0.1,0-0.1c3,0.3,5.9-1.1,7.3-1.9c0.7,4.5,5.2,7.7,8.1,9.3c-4.2,0.8-6.4,5-7.2,6.9c-2-1.7-4-2.6-6-2.7
		C58.7,64,58.4,63,57.8,62.2z"/>
	<path class="st0" d="M41.6,45.5c0,0.4,0.3,0.6,0.6,0.6c0,0,0,0,0,0c0.3,0,0.6-0.3,0.6-0.6c0.2-9.9-3.2-14.6-3.4-14.8
		c-0.2-0.3-0.6-0.3-0.9-0.1c-0.3,0.2-0.3,0.6-0.1,0.9C38.6,31.5,41.8,36,41.6,45.5z"/>
</g>
</svg>
