<?xml version="1.0" encoding="utf-8"?>
<!-- Generator: Adobe Illustrator 19.1.0, SVG Export Plug-In . SVG Version: 6.00 Build 0)  -->
<svg version="1.1" id="Layer_2" xmlns="http://www.w3.org/2000/svg" xmlns:xlink="http://www.w3.org/1999/xlink" x="0px" y="0px"
	 viewBox="0 0 100 100" style="enable-background:new 0 0 100 100;" xml:space="preserve">
<style type="text/css">
	.st0{fill:#231F20;}
</style>
<g>
	<path class="st0" d="M75.2,58.7c0,0-0.1-0.1-0.3-0.3c0.9-5.2,0.2-10.5-2.1-15.3c-1.1-2.3-2.6-4.5-4.5-6.4c0-1.8-0.4-3.6-1.2-5.3
		c-0.5-0.9-1-1.8-1.7-2.6c0.6-2.8-0.9-5.6-3.7-6.6c-0.6-0.2-1.2-0.3-1.8-0.3h0c-2.1,0-3.9,1.1-4.9,2.9c-1.3,0.2-2.5,0.5-3.7,1.1
		c-1.7,0.8-3.1,2-4.2,3.4c-2.6,0.4-5.1,1.1-7.5,2.2c-4.7,2.3-8.6,6.1-11.1,10.7c-0.2,0.1-0.4,0.1-0.4,0.1c-2.3,0.7-3.7,3.2-3,5.5
		c0.2,0.6,0.5,1.2,0.9,1.7c-0.9,5.2-0.2,10.5,2.1,15.3c4.1,8.5,12.9,14,22.4,14c3.8,0,7.4-0.8,10.8-2.5c4.7-2.3,8.6-6,11.1-10.7
		c0.6-0.1,1.2-0.4,1.7-0.7c1-0.7,1.6-1.7,1.8-2.9C76.1,60.9,75.9,59.7,75.2,58.7z M72.3,62.3c-0.3,0.2-0.8,0.3-1.2,0.2c0,0,0,0,0,0
		c0,0,0,0,0,0c-0.1,0-0.2-0.1-0.3-0.2c-0.1-0.1-0.2-0.2-0.2-0.3c0-0.1-5-6.9-18.8-11.7c-13.8-4.8-21.9-2.5-22-2.5
		c-0.2,0-0.3,0-0.5,0c0,0-0.1,0-0.1,0c-0.5-0.1-0.9-0.4-1-0.9c-0.2-0.7,0.2-1.4,0.9-1.6c0.1,0,0.5-0.1,1.3-0.3c0,0,0,0,0,0
		c1.6-0.3,4.8-0.6,9.3-0.2c0,0,0,0,0,0c1.4,0.1,2.9,0.4,4.6,0.7c0.1,0,0.3,0.1,0.4,0.1c0.4,0.1,0.7,0.2,1.1,0.2
		c0.4,0.1,0.7,0.2,1.1,0.3c0.3,0.1,0.7,0.2,1,0.3c0.5,0.1,0.9,0.3,1.4,0.4c0.3,0.1,0.6,0.2,0.9,0.3c0.8,0.2,1.6,0.5,2.4,0.8
		c0.8,0.3,1.6,0.6,2.4,0.9c0.3,0.1,0.5,0.2,0.8,0.3c0.5,0.2,1,0.4,1.4,0.6c0.3,0.1,0.6,0.3,0.9,0.4c0.4,0.2,0.8,0.4,1.2,0.6
		c0.3,0.1,0.6,0.3,0.8,0.4c0.4,0.2,0.7,0.4,1.1,0.6c0.5,0.3,1.1,0.6,1.6,0.9c0.2,0.1,0.4,0.2,0.6,0.3c0.3,0.2,0.7,0.4,1,0.6
		c0.2,0.1,0.3,0.2,0.5,0.3c0.3,0.2,0.6,0.4,0.9,0.6c0.1,0.1,0.2,0.1,0.3,0.2c1.1,0.7,2,1.5,2.8,2.1c0,0,0,0,0,0
		c0.3,0.2,0.5,0.4,0.7,0.6c0,0,0.1,0.1,0.1,0.1c1,0.8,1.7,1.6,2.1,2.1c0,0,0,0,0,0c0.5,0.6,0.8,1,0.9,1.1c0.2,0.3,0.3,0.6,0.2,1
		C72.7,61.8,72.5,62.1,72.3,62.3z M29.3,49.2c0,0,0.1,0,0.1,0c0.1,0,0.2,0,0.2,0c0.1,0,0.3,0,0.4-0.1c0.1,0,8-2.1,21.2,2.5
		c0.8,0.3,1.6,0.6,2.4,0.9c0.2,0.1,0.4,0.2,0.6,0.3c0.5,0.2,1.1,0.4,1.6,0.7c0.3,0.1,0.5,0.2,0.8,0.4c0.4,0.2,0.8,0.4,1.2,0.6
		c0.3,0.1,0.6,0.3,0.9,0.4c0.3,0.2,0.7,0.3,1,0.5c0.3,0.2,0.6,0.3,0.9,0.5c0.3,0.1,0.5,0.3,0.8,0.4c0.3,0.2,0.6,0.4,0.9,0.5
		c0.2,0.1,0.4,0.3,0.6,0.4c0.3,0.2,0.6,0.4,0.8,0.6c0.2,0.1,0.3,0.2,0.5,0.3c0.3,0.2,0.6,0.4,0.8,0.6c0.1,0.1,0.2,0.2,0.3,0.3
		c0.3,0.2,0.5,0.4,0.8,0.6c0.1,0.1,0.1,0.1,0.2,0.2c0.3,0.2,0.5,0.4,0.8,0.7c0,0,0.1,0.1,0.1,0.1c0.3,0.2,0.5,0.4,0.7,0.7
		c0,0,0,0,0,0c1.1,1,1.6,1.7,1.6,1.7c0,0,0.1,0.1,0.1,0.1c0.1,0.2,0.3,0.3,0.4,0.5c-2.1,4.4-5.7,8-10.1,10.2
		c-10.8,5.2-23.8,0.7-29-10.1C28.8,59,28.2,54,29.3,49.2z M34,43.5c-0.2,0-0.4,0-0.5,0c-0.2,0-0.5,0-0.7,0c-0.2,0-0.3,0-0.5,0
		c-0.2,0-0.5,0-0.7,0.1c-0.1,0-0.2,0-0.3,0c0,0,0,0,0,0c2.2-4,5.5-7.3,9.6-9.3c2.4-1.2,5-1.9,7.5-2.1c0,0,0,0,0.1,0
		c6.1-0.5,12.2,1.6,16.7,5.8c0,0,0,0,0.1,0c1.9,1.8,3.4,3.9,4.6,6.3c2,4.1,2.6,8.8,1.8,13.2c-0.7-0.7-1.7-1.6-3-2.6
		c0,0-0.1,0-0.1-0.1c-0.8-0.6-1.6-1.2-2.6-1.9C66,53.1,65.9,53,65.8,53c-0.4-0.3-0.9-0.6-1.3-0.8c-0.1-0.1-0.2-0.1-0.3-0.2
		c-0.5-0.3-1.1-0.6-1.6-1c-0.1-0.1-0.3-0.2-0.4-0.2c-0.5-0.3-0.9-0.5-1.4-0.8c-0.2-0.1-0.3-0.2-0.5-0.3c-0.6-0.3-1.3-0.6-2-0.9
		c-0.1-0.1-0.3-0.1-0.4-0.2c-0.6-0.3-1.2-0.5-1.8-0.8c-0.2-0.1-0.4-0.2-0.6-0.3c-0.8-0.3-1.6-0.6-2.4-0.9c-7.7-2.7-13.9-3.3-18-3.3
		C34.6,43.5,34.3,43.5,34,43.5z M56.8,27.9C56.8,27.9,56.8,27.9,56.8,27.9c0.2,0,0.4,0,0.7,0.1c0,0,0.1,0,0.1,0
		c0.2,0,0.4,0.1,0.6,0.1c0.1,0,0.1,0,0.2,0c0.2,0,0.4,0.1,0.5,0.1c0.1,0,0.1,0,0.2,0.1c0.2,0.1,0.4,0.1,0.6,0.2c0,0,0.1,0,0.1,0
		c0.9,0.3,1.7,0.8,2.4,1.4c0,0,0,0,0,0c0.9,0.8,1.7,1.7,2.2,2.9c0.5,1.1,0.8,2.3,0.9,3.5c-4.3-3.6-9.8-5.5-15.3-5.3
		c0.8-0.9,1.8-1.7,2.9-2.2C54,28.2,55.4,27.9,56.8,27.9z M59.7,27.2c-0.7-0.2-1.4-0.4-2.1-0.5c0,0,0,0,0,0c0.2-0.6,0.7-1,1.2-1.3
		c0.6-0.3,1.3-0.3,1.9-0.1c0.6,0.2,1.1,0.7,1.4,1.3c0.3,0.6,0.3,1.3,0.1,2c-0.3-0.2-0.7-0.4-1-0.6c0,0,0,0,0,0
		c-0.3-0.2-0.7-0.3-1.1-0.5c0,0-0.1,0-0.1,0C59.9,27.3,59.8,27.2,59.7,27.2z"/>
	<path class="st0" d="M37.9,68.2c-0.2,0.6-0.1,1.6,1.6,2.9c1.1,0.9,2.8,1.7,4.6,2.3c1.8,0.6,3.7,1,5.2,1c1.4,0,2.5-0.4,2.8-1.3
		c0.6-1.9-2.7-4-6.2-5.2c-1.8-0.6-3.6-1-5-1C38.8,66.9,38.1,67.6,37.9,68.2z M39.1,68.6c0-0.1,0.4-0.4,1.6-0.4c0.1,0,0.1,0,0.2,0
		c1.3,0,2.9,0.4,4.6,0.9c3.9,1.4,5.5,3.1,5.4,3.6c-0.2,0.5-2.5,0.8-6.4-0.5c-1.7-0.6-3.2-1.3-4.2-2.1C39.2,69.2,39.1,68.7,39.1,68.6
		z"/>
	<path class="st0" d="M41.3,42.3c0.3,0.1,0.5,0.1,0.8,0.1c1,0,2-0.6,2.3-1.7c0.2-0.6,0.2-1.3-0.1-1.9c-0.3-0.6-0.8-1-1.4-1.3
		c-1.3-0.4-2.7,0.2-3.1,1.5C39.3,40.4,40,41.9,41.3,42.3z M41,39.6c0.1-0.3,0.3-0.5,0.6-0.7c0.2-0.1,0.3-0.1,0.5-0.1
		c0.1,0,0.3,0,0.4,0.1c0.3,0.1,0.5,0.3,0.7,0.6c0.1,0.3,0.2,0.6,0.1,0.9c-0.1,0.3-0.3,0.5-0.6,0.7c-0.3,0.1-0.6,0.2-0.9,0.1
		C41.1,40.9,40.8,40.2,41,39.6z"/>
	<path class="st0" d="M53.8,45.3c0.3,0.1,0.5,0.1,0.8,0.1c1,0,2-0.6,2.3-1.7c0.4-1.3-0.2-2.7-1.5-3.1c-1.3-0.4-2.7,0.2-3.1,1.5
		c-0.2,0.6-0.2,1.3,0.1,1.9C52.7,44.6,53.2,45.1,53.8,45.3z M53.5,42.6c0.2-0.5,0.6-0.8,1.1-0.8c0.1,0,0.3,0,0.4,0.1
		c0.3,0.1,0.5,0.3,0.7,0.6c0.1,0.3,0.2,0.6,0.1,0.9c-0.2,0.6-0.9,1-1.5,0.7c-0.3-0.1-0.5-0.3-0.7-0.6C53.4,43.2,53.4,42.9,53.5,42.6
		z"/>
	<path class="st0" d="M65.4,50.7c0.3,0.1,0.5,0.1,0.8,0.1c1,0,2-0.6,2.3-1.7c0.4-1.3-0.2-2.7-1.5-3.1c-1.3-0.4-2.7,0.2-3.1,1.5
		c-0.2,0.6-0.2,1.3,0.1,1.9C64.3,50,64.8,50.5,65.4,50.7z M65.1,48c0.2-0.5,0.6-0.8,1.1-0.8c0.1,0,0.3,0,0.4,0.1
		c0.6,0.2,1,0.9,0.7,1.5c-0.2,0.6-0.9,1-1.5,0.7c-0.3-0.1-0.5-0.3-0.7-0.6C65,48.6,65,48.3,65.1,48z"/>
	<path class="st0" d="M36.6,55.8c0.3,0.1,0.5,0.1,0.8,0.1c1,0,2-0.6,2.3-1.7c0.4-1.3-0.2-2.7-1.5-3.1c-0.6-0.2-1.3-0.2-1.9,0.1
		c-0.6,0.3-1,0.8-1.3,1.4C34.6,54,35.3,55.4,36.6,55.8z M36.3,53.1c0.1-0.3,0.3-0.5,0.6-0.7c0.2-0.1,0.3-0.1,0.5-0.1
		c0.1,0,0.3,0,0.4,0.1c0.6,0.2,1,0.9,0.7,1.5c-0.2,0.6-0.9,1-1.5,0.7C36.4,54.4,36.1,53.7,36.3,53.1z"/>
	<path class="st0" d="M49.1,58.8c0.3,0.1,0.5,0.1,0.8,0.1c0.4,0,0.7-0.1,1.1-0.2c0.6-0.3,1-0.8,1.3-1.4c0.2-0.6,0.2-1.3-0.1-1.9
		c-0.3-0.6-0.8-1-1.4-1.3c-1.3-0.4-2.7,0.2-3.1,1.5C47.1,56.9,47.8,58.4,49.1,58.8z M48.8,56.1c0.2-0.5,0.6-0.8,1.1-0.8
		c0.1,0,0.3,0,0.4,0.1c0.3,0.1,0.5,0.3,0.7,0.6c0.1,0.3,0.2,0.6,0.1,0.9c-0.1,0.3-0.3,0.5-0.6,0.7c-0.3,0.1-0.6,0.2-0.9,0.1
		C48.9,57.4,48.6,56.7,48.8,56.1z"/>
	<path class="st0" d="M60.7,64.2c0.3,0.1,0.5,0.1,0.8,0.1c1,0,2-0.6,2.3-1.7c0.4-1.3-0.2-2.7-1.5-3.1c-1.3-0.4-2.7,0.2-3.1,1.5
		C58.8,62.3,59.4,63.8,60.7,64.2z M60.4,61.5c0.1-0.3,0.3-0.5,0.6-0.7c0.2-0.1,0.3-0.1,0.5-0.1c0.1,0,0.3,0,0.4,0.1
		c0.6,0.2,1,0.9,0.7,1.5c-0.1,0.3-0.3,0.5-0.6,0.7c-0.3,0.1-0.6,0.2-0.9,0.1C60.5,62.8,60.2,62.1,60.4,61.5z"/>
</g>
</svg>
