<?xml version="1.0" encoding="utf-8"?>
<!-- Generator: Adobe Illustrator 19.1.0, SVG Export Plug-In . SVG Version: 6.00 Build 0)  -->
<svg version="1.1" id="Layer_2" xmlns="http://www.w3.org/2000/svg" xmlns:xlink="http://www.w3.org/1999/xlink" x="0px" y="0px"
	 viewBox="0 0 100 100" style="enable-background:new 0 0 100 100;" xml:space="preserve">
<style type="text/css">
	.st0{fill:#231F20;}
</style>
<g>
	<path class="st0" d="M76.5,44.4c0-14.7-12-26.7-26.7-26.7s-26.7,12-26.7,26.7c0,5,1.4,9.9,4.1,14.1c-1.4,1.5-3.3,5-3.3,12.2
		c0,10.5,14,11.9,26.1,11.9c14.1,0,25.8-0.9,25.8-11.6c0-5.6-1.8-10-3.6-12C74.9,54.7,76.5,49.6,76.5,44.4z M68.1,58.8
		c-0.1,0-0.3,0-0.4,0c-0.1,0-0.2,0-0.4,0c-0.1,0-0.3,0-0.4,0c-0.1,0-0.3,0-0.4,0c-0.2,0-0.4,0.1-0.7,0.1c-0.1,0-0.2,0-0.3,0
		c-0.3,0.1-0.7,0.1-1.1,0.2c-2.1,0.4-4.9,0.9-9.3,1.1c-0.3,0-0.5,0-0.8,0v-3.1c3.8-0.3,7.5-0.8,11.2-1.7c0.2-0.1,0.4-0.2,0.5-0.4
		c0.1-0.2,0-0.4-0.1-0.6l-4.7-6h1.5c0.2,0,0.5-0.1,0.6-0.4c0.1-0.2,0.1-0.5-0.1-0.7l-7.6-9.8h3.2c0.2,0,0.5-0.1,0.6-0.4
		c0.1-0.2,0.1-0.5-0.1-0.7l-9-11.6c-0.2-0.3-0.8-0.3-1,0l-9,11.6c-0.1,0.2-0.2,0.5-0.1,0.7c0.1,0.2,0.3,0.4,0.6,0.4H44l-7.6,9.8
		c-0.1,0.2-0.2,0.5-0.1,0.7c0.1,0.2,0.3,0.4,0.6,0.4h1.5l-4.7,6c-0.1,0.2-0.2,0.4-0.1,0.6c0.1,0.2,0.2,0.4,0.5,0.4
		c3.7,0.9,7.4,1.5,11.2,1.7v3.1c-5.9-0.3-9.3-1.1-11.5-1.7c-0.5-0.1-0.9-0.2-1.3-0.3c-0.1,0-0.1,0-0.2,0c-0.1,0-0.2,0-0.3,0
		c-0.1,0-0.2,0-0.3-0.1c-0.1,0-0.2,0-0.3,0c-0.1,0-0.1,0-0.2,0c0,0,0,0-0.1,0c-0.1,0-0.2,0-0.3,0c0,0-0.1,0-0.1,0
		c-3-4.1-4.5-8.8-4.5-13.8c0-13,10.5-23.5,23.5-23.5c13,0,23.5,10.5,23.5,23.5c0,5.3-1.7,10.3-5,14.5C68.2,58.9,68.2,58.9,68.1,58.8
		z M40.2,47.6c-0.1-0.2-0.3-0.4-0.6-0.4h-1.5l7.6-9.8c0.1-0.2,0.2-0.5,0.1-0.7c-0.1-0.2-0.3-0.4-0.6-0.4h-3.2l7.7-9.9l7.7,9.9h-3.2
		c-0.2,0-0.5,0.1-0.6,0.4c-0.1,0.2-0.1,0.5,0.1,0.7l7.6,9.8h-1.5c-0.2,0-0.5,0.1-0.6,0.4c-0.1,0.2-0.1,0.5,0.1,0.7l4.9,6.3
		c-3.6,0.8-7.2,1.3-10.8,1.5c-0.2,0-0.3,0-0.5,0c-2.1,0.1-4.2,0.1-6.3,0c-0.2,0-0.4,0-0.5,0c-3.6-0.2-7.3-0.7-10.8-1.5l4.9-6.3
		C40.3,48,40.3,47.8,40.2,47.6z M46.5,57.3c2.2,0.1,4.4,0.1,6.5,0v3.1c-0.1,0-0.1,0-0.2,0c-0.4,0-0.8,0-1.2,0c-0.1,0-0.2,0-0.2,0
		c-1.6,0-3.3,0-4.9,0V57.3z M29.9,60.2c0.1,0,0.1-0.1,0.2-0.2c0.2-0.3,0.4-0.4,0.7-0.5c0.1,0,0.2-0.1,0.4-0.1c0,0,0.1,0,0.1,0
		c0.1,0,0.3,0,0.4,0c0.1,0,0.1,0,0.2,0c0.1,0,0.3,0.1,0.5,0.1c0.1,0,0.1,0,0.2,0c0.3,0.1,0.5,0.1,0.8,0.2c2.3,0.6,5.9,1.5,12.4,1.7
		c0,0,0,0,0,0c0,0,0,0,0,0c0.5,0,1,0,1.6,0c0.1,0,0.1,0,0.2,0c0.6,0,1.2,0,1.8,0c0.7,0,1.3,0,1.9,0c0.2,0,0.4,0,0.5,0
		c0.2,0,0.4,0,0.6,0c0.2,0,0.4,0,0.7,0c0.1,0,0.3,0,0.4,0c0,0,0,0,0,0c5.4-0.2,8.8-0.8,11-1.2c0.4-0.1,0.8-0.1,1.2-0.2
		c0,0,0.1,0,0.1,0c0.3-0.1,0.6-0.1,0.9-0.1c0,0,0.1,0,0.1,0c0.6-0.1,1,0,1.4,0.1c0.5,0.1,0.8,0.4,1.3,0.8c1.1,1.1,2.9,4.7,2.9,10
		c0,6.4-5.5,8.4-22.6,8.4c-15.9,0-22.9-2.7-22.9-8.7C27,62.1,29.9,60.3,29.9,60.2z"/>
	<path class="st0" d="M39.2,73h21c0.4,0,0.6-0.3,0.6-0.6v-7c0-0.4-0.3-0.6-0.6-0.6h-21c-0.4,0-0.6,0.3-0.6,0.6v7
		C38.6,72.7,38.9,73,39.2,73z M39.9,66h19.8v5.7H39.9V66z"/>
	<path class="st0" d="M43,67.5c-0.4,0-0.6,0.3-0.6,0.6v1.7c0,0.4,0.3,0.6,0.6,0.6s0.6-0.3,0.6-0.6v-1.7C43.7,67.8,43.4,67.5,43,67.5
		z"/>
	<path class="st0" d="M45.9,68.2c-0.4,0-0.6,0.3-0.6,0.6v1c0,0.4,0.3,0.6,0.6,0.6s0.6-0.3,0.6-0.6v-1C46.5,68.5,46.2,68.2,45.9,68.2
		z"/>
	<path class="st0" d="M48.7,68.1c-0.4,0-0.6,0.3-0.6,0.6v1.1c0,0.4,0.3,0.6,0.6,0.6s0.6-0.3,0.6-0.6v-1.1
		C49.3,68.4,49,68.1,48.7,68.1z"/>
	<path class="st0" d="M51.5,68.7c-0.4,0-0.6,0.3-0.6,0.6v0.6c0,0.4,0.3,0.6,0.6,0.6s0.6-0.3,0.6-0.6v-0.6
		C52.1,69,51.9,68.7,51.5,68.7z"/>
	<path class="st0" d="M54.3,68.3c-0.4,0-0.6,0.3-0.6,0.6v1c0,0.4,0.3,0.6,0.6,0.6s0.6-0.3,0.6-0.6v-1C55,68.6,54.7,68.3,54.3,68.3z"
		/>
	<path class="st0" d="M57.2,68.1c-0.4,0-0.6,0.3-0.6,0.6v1.1c0,0.4,0.3,0.6,0.6,0.6s0.6-0.3,0.6-0.6v-1.1
		C57.8,68.4,57.5,68.1,57.2,68.1z"/>
	<path class="st0" d="M55.6,53.3c1.4,0,2.5-1.1,2.5-2.5c0-1.4-1.1-2.5-2.5-2.5c-1.4,0-2.5,1.1-2.5,2.5C53,52.2,54.2,53.3,55.6,53.3z
		 M55.6,49.5c0.7,0,1.3,0.6,1.3,1.3S56.3,52,55.6,52s-1.3-0.6-1.3-1.3S54.9,49.5,55.6,49.5z"/>
	<path class="st0" d="M46.3,45.6c1.4,0,2.5-1.1,2.5-2.5c0-1.4-1.1-2.5-2.5-2.5c-1.4,0-2.5,1.1-2.5,2.5
		C43.8,44.5,44.9,45.6,46.3,45.6z M46.3,41.9c0.7,0,1.3,0.6,1.3,1.3s-0.6,1.3-1.3,1.3s-1.3-0.6-1.3-1.3S45.6,41.9,46.3,41.9z"/>
</g>
</svg>
