<?xml version="1.0" encoding="utf-8"?>
<!-- Generator: Adobe Illustrator 19.1.0, SVG Export Plug-In . SVG Version: 6.00 Build 0)  -->
<svg version="1.1" id="Layer_2" xmlns="http://www.w3.org/2000/svg" xmlns:xlink="http://www.w3.org/1999/xlink" x="0px" y="0px"
	 viewBox="0 0 100 100" style="enable-background:new 0 0 100 100;" xml:space="preserve">
<style type="text/css">
	.st0{fill:#231F20;}
</style>
<g>
	<path class="st0" d="M76.2,58.4c0-0.3,0-0.6-0.1-0.9c0-0.4-0.1-0.8-0.2-1.2c0-0.3-0.1-0.5-0.2-0.8l0-0.1c-0.1-0.2-0.1-0.4-0.1-0.6
		c-0.1-0.3-0.2-0.6-0.2-0.9c0-0.2-0.1-0.3-0.1-0.5c-0.5-1.6-1.1-3.2-1.9-4.8c-0.9-1.7-1.9-3.3-2.9-4.8c-1.8-2.4-3.7-5.5-5.6-8.5
		c1.4-2.9,1-6.1-1.2-8.5c-1.5-1.6-2-3.1-2.6-4.7c-0.4-1.2-0.9-2.4-1.7-3.5c-1-1.4-3-3.1-6.5-3.1c-2.5,0-5,0.8-6.6,1.5
		c-3.2,1.3-12.8,7.6-16.1,11.1c-5.1,5.4-1.9,10.4-0.9,12.1c0.5,0.8,0.8,1.6,1.2,2.5c0.8,2,1.8,4.5,4.5,5.8c1.2,0.6,2.4,1,3.6,1.2
		c0.8,1.4,1.5,2.5,1.9,3.2c0.4,0.6,0.7,2,0.2,3.9c-0.6,2.4-2.2,4.4-4.3,5.7c-1.4,0.8-2.6,1.8-3.4,3.1c-0.1,0.1-0.2,0.3-0.3,0.4
		c-2.5,4.1-1.3,9.9,3,14.5c2.5,2.6,5.1,3.9,8.1,3.9c3.2,0,6.8-1.4,11.8-4.6c1.5-1,2.9-1.8,4.1-2.6c4.5-2.9,7.2-4.6,10.2-6.7
		c0.5-0.4,1.1-0.8,1.6-1.2c0.5-0.4,0.9-0.8,1.4-1.2c0.1-0.1,0.2-0.2,0.3-0.3l0.1-0.1c0.3-0.3,0.6-0.7,0.8-1c0.1-0.2,0.2-0.3,0.3-0.5
		c0.2-0.3,0.4-0.7,0.6-1.1l0-0.1c0.1-0.1,0.1-0.2,0.2-0.4c0.2-0.5,0.4-1,0.6-1.6c0-0.1,0.1-0.2,0.1-0.4c0.1-0.5,0.2-0.9,0.3-1.2
		c0-0.2,0.1-0.4,0.1-0.6c0-0.3,0.1-0.7,0.1-1c0-0.3,0-0.5,0-0.7C76.2,59.1,76.2,58.7,76.2,58.4z M70.8,65.6
		c-0.1,0.1-0.2,0.2-0.3,0.3c-0.3,0.3-0.7,0.7-1.1,0.9c-0.4,0.3-0.7,0.5-1,0.8c-0.4-0.6-0.9-1.7-1.3-2.8l1.1,0.2c0,0,0.1,0,0.1,0
		c0.3,0,0.6-0.2,0.6-0.5c0.1-0.3-0.2-0.7-0.5-0.7l-1.7-0.3c-0.1-0.6-0.2-1.2-0.1-1.8l1.4,0.5c0.1,0,0.1,0,0.2,0
		c0.3,0,0.5-0.2,0.6-0.4c0.1-0.3-0.1-0.7-0.4-0.8l-1.6-0.6c0.1-0.3,0.3-0.7,0.6-1l0.4-0.5c1.7-2.1,2.7-3.3,3.2-5.3c0,0,0-0.1,0-0.1
		l0.2-1.5c1.1,2.6,2.1,6.2,1.5,9.5c0,0,0,0,0,0c-0.1,0.3-0.1,0.6-0.2,0.9c0,0.1-0.1,0.1-0.1,0.2c-0.1,0.4-0.3,0.8-0.5,1.2
		c-0.1,0.2-0.2,0.4-0.3,0.6c-0.1,0.2-0.2,0.3-0.3,0.4C71.2,65.2,71,65.4,70.8,65.6z M34.5,69.9c0-0.3,0.1-0.5,0.2-0.8
		c0.2,0.6,0.5,1.3,0.8,2.1c0.1,0.2,0.3,0.4,0.6,0.4c0.1,0,0.2,0,0.3-0.1c0.3-0.1,0.5-0.5,0.3-0.8c-0.7-1.4-1-2.7-1.2-3.2
		c0.6-0.8,1.3-1.5,2.3-2c2.9-1.7,5.1-4.4,5.9-7.7c0.6-2.4,0.4-4.8-0.6-6.4c-0.5-0.8-1.2-2-2-3.3c0.9-0.1,1.9-0.4,3-0.8
		c0,0,0.1,0,0.1,0c0.5-0.2,1-0.4,1.5-0.7c0.1,0,0.2-0.1,0.3-0.1c0.5-0.3,1.1-0.5,1.7-0.9c4.5-2.5,8.7-5.2,12.9-8.1
		c0.4-0.3,0.9-0.7,1.2-1c2.1,3.3,4.2,6.7,6.1,9.3c0.9,1.2,1.7,2.6,2.5,4.1l-0.5,3.4c-0.5,1.7-1.4,2.8-3,4.8l-0.4,0.5
		c-0.3,0.4-0.6,0.9-0.8,1.3l-1.2-0.4c-0.3-0.1-0.7,0.1-0.8,0.4c-0.1,0.3,0.1,0.7,0.4,0.8l1.3,0.5c-0.1,0.7-0.1,1.3,0,2l-1-0.2
		c-0.3-0.1-0.7,0.2-0.8,0.5c-0.1,0.3,0.2,0.7,0.5,0.7l1.5,0.3c0.5,1.7,1.2,3.1,1.7,3.9c-2.7,1.9-5.3,3.6-9.5,6.3l-4.1,2.6
		c-7.9,5.1-11.9,5.4-15.8,1.2C35.4,75.9,34.1,72.6,34.5,69.9z M56.7,20.6c0.6,0.8,0.9,1.7,1.3,2.7c0.6,1.7,1.4,3.6,3.2,5.7
		c0.9,1,1.3,2.2,1.2,3.4c-0.1,0.9-0.5,1.8-1.1,2.6c0,0,0,0,0,0c-0.2,0.3-0.4,0.5-0.7,0.7c0,0,0,0-0.1,0.1c-0.2,0.2-0.5,0.4-0.8,0.6
		c-4.1,2.9-8.3,5.5-12.8,8c-0.3,0.2-0.7,0.4-1,0.5c-0.1,0.1-0.3,0.1-0.4,0.2c-0.2,0.1-0.4,0.2-0.6,0.3c-0.2,0.1-0.3,0.1-0.5,0.2
		c-0.1,0.1-0.3,0.1-0.4,0.2c-0.2,0.1-0.3,0.1-0.5,0.2c-0.1,0-0.2,0.1-0.3,0.1c-0.2,0.1-0.4,0.1-0.5,0.2c-0.1,0-0.2,0-0.2,0.1
		c-0.2,0.1-0.4,0.1-0.6,0.1c-0.1,0-0.1,0-0.2,0c-2.3,0.5-3.9,0.1-5.6-0.7c-1.6-0.8-2.3-2.4-3-4.2c-0.4-1-0.8-2.1-1.5-3.1
		c-1.5-2.4-2.5-5.1,0.5-8.2c3.2-3.3,12.4-9.3,15.1-10.4C49.5,19.2,54.5,17.5,56.7,20.6z"/>
	<path class="st0" d="M34.6,34.7c1.5,0,4.5-0.7,9.9-4c8.2-5.1,9.5-6.9,9.5-9.1c0-0.4-0.3-0.6-0.6-0.6s-0.6,0.3-0.6,0.6
		c0,1.4-0.7,2.8-8.9,8c-7.5,4.7-9.8,3.8-9.9,3.7c-0.3-0.2-0.7-0.1-0.9,0.2c-0.2,0.3-0.1,0.7,0.2,0.9C33.4,34.5,33.8,34.7,34.6,34.7z
		"/>
	<path class="st0" d="M42.3,77.4c0.3,0,0.6,0.1,0.9,0.1c0.9,0,2-0.2,3.2-0.6c0.3-0.1,0.5-0.5,0.4-0.8c-0.1-0.3-0.5-0.5-0.8-0.4
		c-1.4,0.4-2.5,0.6-3.5,0.4c-0.3,0-0.7,0.2-0.7,0.5C41.7,77,41.9,77.3,42.3,77.4z"/>
	<path class="st0" d="M49.6,75.4c0.1,0,0.2,0,0.3-0.1c0.4-0.2,0.7-0.4,1.1-0.7c0.3-0.2,0.4-0.6,0.2-0.9c-0.2-0.3-0.6-0.4-0.9-0.2
		c-0.4,0.2-0.7,0.5-1,0.7c-0.3,0.2-0.4,0.6-0.2,0.9C49.2,75.3,49.4,75.4,49.6,75.4z"/>
	<path class="st0" d="M39,75.7c0.2,0,0.3-0.1,0.5-0.2c0.2-0.3,0.2-0.7,0-0.9c-0.3-0.3-0.6-0.5-0.8-0.9c-0.2-0.3-0.6-0.3-0.9-0.1
		c-0.3,0.2-0.3,0.6-0.1,0.9c0.3,0.4,0.6,0.7,0.9,1C38.7,75.7,38.8,75.7,39,75.7z"/>
	<path class="st0" d="M51.1,33c-1,0-1.9,0.5-2.5,1.3c-1.3-0.3-2.3-1.8-2.3-1.8c-0.1-0.2-0.4-0.3-0.6-0.3c-0.2,0-0.4,0.2-0.5,0.4
		c-0.8,2.2-0.4,3.6-0.1,4.3c-0.7,0.6-1.2,1.5-1.2,2.5c0,1.8,1.4,3.2,3.2,3.2c1.8,0,3.2-1.4,3.2-3.2c0-0.1,0-0.1,0-0.2
		c0.3,0.1,0.6,0.1,0.9,0.1c1.8,0,3.2-1.4,3.2-3.2C54.3,34.5,52.9,33,51.1,33z M46.1,34.2c0.5,0.5,1.2,1,2,1.3
		c-0.1,0.2-0.1,0.5-0.1,0.8c0,0.1,0,0.1,0,0.2c-0.3-0.1-0.6-0.1-0.9-0.1c-0.3,0-0.6,0.1-0.9,0.1C46.1,36,45.9,35.3,46.1,34.2z
		 M47.1,41.3c-1.1,0-1.9-0.9-1.9-1.9s0.9-1.9,1.9-1.9s1.9,0.9,1.9,1.9S48.1,41.3,47.1,41.3z M51.1,38.1c-1.1,0-1.9-0.9-1.9-1.9
		c0-0.3,0.1-0.7,0.3-0.9c0,0,0,0,0,0c0.3-0.6,0.9-1,1.7-1c1.1,0,1.9,0.9,1.9,1.9C53,37.3,52.2,38.1,51.1,38.1z"/>
</g>
</svg>
