<?xml version="1.0" encoding="utf-8"?>
<!-- Generator: Adobe Illustrator 19.1.0, SVG Export Plug-In . SVG Version: 6.00 Build 0)  -->
<svg version="1.1" id="Layer_2" xmlns="http://www.w3.org/2000/svg" xmlns:xlink="http://www.w3.org/1999/xlink" x="0px" y="0px"
	 viewBox="0 0 100 100" style="enable-background:new 0 0 100 100;" xml:space="preserve">
<style type="text/css">
	.st0{fill:#231F20;}
</style>
<g>
	<path class="st0" d="M73.6,75c-0.4-1.1-1.1-2.1-2-2.9c0.1-1.3,0.1-2.9-0.8-4.4c0.3-1.4,0.4-2.8,0.4-4.2c0-3-0.6-6.1-1.9-8.8
		c0.4-0.7,0.6-1.4,0.7-2.1c0.5-3.1-2.6-6.3-5.3-8.4c0.2-1.1,0.4-2.2,0.4-3.3c0-3.7-1.3-7.3-3.7-10.1c0.5-0.5,0.9-1.1,1.3-1.7
		c1.1-2,1-4.8-0.3-7c-1.4-2.3-3.8-3.7-6.8-3.7c-0.9,0-1.8,0.1-2.7,0.3c-1.1-1.5-3.3-3.3-6.8-3.3c-1,0-2.1,0.1-3.2,0.4
		c-4.1,1-7.1,3.1-8.6,5.9c-1,1.9-1.1,3.9-0.5,5.7c0.7,1.8,1.7,3.5,2.5,4.7c-1.7,2.6-2.6,5.6-2.6,8.7c0,1.1,0.1,2.3,0.4,3.4
		c-1.8,1.6-4.6,4.5-5.1,6.9c-0.2,1.1,0,2.3,0.5,3.4c-1.3,2.8-1.9,5.9-1.9,8.9c0,1.4,0.2,2.9,0.5,4.3c-0.5,0.9-0.8,2.1-0.8,3.4
		c-0.6,0.4-1.1,1-1.6,1.7c-0.6,1.1-1.3,2.9-0.5,5.6c1.8,6.3,11.6,6.8,24.2,6.8c17.8,0,21.7-2.8,23.2-4.9
		C73.9,78.7,74.2,76.8,73.6,75z M50.8,21.5c-0.2,0.1-0.4,0.2-0.6,0.3c-0.1,0-0.1,0.1-0.2,0.1c-1.7,1-2.5,2.2-2.9,3.1
		c-0.4,1-0.4,1.9-0.4,2.4c-2,0.4-3.8,1.2-5.3,2.4c-0.1,0.1-0.2,0.1-0.3,0.2c-0.2,0.2-0.4,0.3-0.6,0.5c-0.1,0.1-0.2,0.2-0.3,0.3
		c-0.2,0.2-0.3,0.3-0.5,0.5c-0.7-0.9-2-2.8-2.7-4.9c-0.4-1-0.3-2.1,0.3-3.1c1-2,3.4-3.5,6.5-4.3c0.9-0.2,1.7-0.3,2.4-0.3
		c3.3,0,4.4,2.2,4.4,2.2L50.8,21.5C50.8,21.5,50.8,21.5,50.8,21.5z M53.4,21.9c2.7-0.7,4.9-0.3,6.1,1.3c1.1,1.4,1.1,3.3,0.6,4.3
		c-0.5,0.9-1.3,1.7-2.3,2.4c-0.1-0.1-0.2-0.1-0.2-0.2c-0.2-0.1-0.3-0.2-0.5-0.3c-0.2-0.1-0.4-0.3-0.6-0.4c-0.1-0.1-0.2-0.1-0.4-0.2
		c-0.7-0.4-1.5-0.7-2.3-1c-0.1,0-0.1,0-0.2-0.1c-0.3-0.1-0.7-0.2-1-0.3c-0.1,0-0.2,0-0.3-0.1c-0.3-0.1-0.6-0.1-1-0.1
		c-0.1,0-0.2,0-0.3,0c-0.4,0-0.9-0.1-1.3-0.1c-0.3,0-0.7,0-1.1,0.1c-0.1,0-0.3,0-0.4,0c0,0,0,0,0,0c0-0.1,0-0.2,0-0.3
		c0,0,0-0.1,0-0.1c0-0.1,0-0.2,0-0.3c0-0.1,0-0.2,0-0.3c0,0,0-0.1,0-0.1c0-0.1,0-0.2,0.1-0.3c0,0,0,0,0,0c0.3-1.1,1.3-2.4,3.7-3.4
		c0,0,0,0,0,0C52.3,22.2,52.8,22.1,53.4,21.9z M40.3,32.5c0.2-0.2,0.4-0.4,0.6-0.6c0,0,0.1-0.1,0.1-0.1c1.8-1.7,4.1-2.8,6.6-3.2l0,0
		c0.3,0,0.5-0.1,0.8-0.1c0.4,0,0.7-0.1,1.1-0.1c0.4,0,0.9,0,1.3,0.1h0c0,0,0,0,0,0c0.1,0,0.1,0,0.2,0c0,0,0,0,0,0c0,0,0,0,0,0
		c0.4,0,0.8,0.1,1.2,0.2c0,0,0,0,0,0c0.3,0.1,0.5,0.1,0.8,0.2c0.1,0,0.2,0.1,0.3,0.1c0.3,0.1,0.5,0.2,0.8,0.3c0.1,0,0.2,0.1,0.3,0.1
		c0.3,0.1,0.5,0.3,0.8,0.4c0.1,0,0.2,0.1,0.2,0.1c0.3,0.2,0.6,0.4,0.9,0.6c0.2,0.1,0.4,0.3,0.5,0.4c3.1,2.3,5,5.9,5,10
		c0,1.5-0.3,2.9-0.7,4.2c-0.3,0.8-0.7,1.6-1.1,2.3c-0.1,0.1-0.1,0.2-0.2,0.3c-0.1,0.2-0.2,0.3-0.3,0.5c-0.1,0.1-0.2,0.3-0.3,0.4
		c-0.1,0.1-0.2,0.3-0.3,0.4c-0.1,0.2-0.3,0.3-0.4,0.5c-0.1,0.1-0.2,0.2-0.3,0.3c-0.2,0.2-0.5,0.5-0.8,0.7c-0.1,0.1-0.2,0.1-0.3,0.2
		c-0.2,0.1-0.4,0.3-0.6,0.4c-0.1,0.1-0.3,0.2-0.4,0.3c-0.2,0.1-0.3,0.2-0.5,0.3c-0.1,0.1-0.3,0.2-0.4,0.2c-0.2,0.1-0.4,0.2-0.6,0.3
		c-0.1,0.1-0.3,0.1-0.4,0.2c-0.3,0.1-0.6,0.2-1,0.4c-0.1,0-0.3,0.1-0.4,0.1c-0.2,0.1-0.5,0.1-0.7,0.2c-0.1,0-0.3,0.1-0.4,0.1
		c-0.2,0-0.5,0.1-0.7,0.1c-0.1,0-0.3,0-0.4,0c-0.4,0-0.8,0.1-1.1,0.1c-0.4,0-0.8,0-1.1-0.1c-0.1,0-0.3,0-0.4,0
		c-0.2,0-0.5-0.1-0.7-0.1c-0.1,0-0.3-0.1-0.4-0.1c-0.2-0.1-0.5-0.1-0.7-0.2c-0.1,0-0.3-0.1-0.4-0.1c-0.3-0.1-0.7-0.2-1-0.4
		c-0.1-0.1-0.3-0.1-0.4-0.2c-0.2-0.1-0.4-0.2-0.6-0.3c-0.1-0.1-0.3-0.2-0.4-0.2c-0.2-0.1-0.4-0.2-0.5-0.3c-0.1-0.1-0.3-0.2-0.4-0.3
		c-0.2-0.1-0.4-0.3-0.6-0.4c-0.1-0.1-0.2-0.1-0.3-0.2c-0.3-0.2-0.5-0.5-0.8-0.7c-0.1-0.1-0.2-0.2-0.3-0.3c-0.1-0.2-0.3-0.3-0.4-0.5
		c-0.1-0.1-0.2-0.3-0.3-0.4c-0.1-0.1-0.2-0.3-0.3-0.4c-0.1-0.2-0.2-0.3-0.3-0.5c-0.1-0.1-0.1-0.2-0.2-0.3c-0.4-0.7-0.8-1.5-1.1-2.3
		c-0.5-1.3-0.7-2.7-0.7-4.1C37,37.7,38.3,34.7,40.3,32.5z M36.9,46.3c0.1,0.2,0.2,0.5,0.4,0.7c0,0.1,0.1,0.2,0.1,0.2
		c0.1,0.2,0.2,0.4,0.3,0.6c0.1,0.1,0.2,0.3,0.3,0.4c0.1,0.2,0.2,0.3,0.3,0.5c0.1,0.2,0.3,0.4,0.4,0.6c0.1,0.1,0.2,0.2,0.3,0.3
		c0.2,0.3,0.5,0.6,0.7,0.8c0.1,0.1,0.2,0.2,0.3,0.3c0.2,0.2,0.4,0.4,0.6,0.5c0.1,0.1,0.2,0.2,0.3,0.3c0.2,0.2,0.4,0.3,0.7,0.5
		c0.1,0.1,0.2,0.1,0.3,0.2c0.3,0.2,0.6,0.4,1,0.6c0.1,0.1,0.3,0.1,0.4,0.2c0.2,0.1,0.4,0.2,0.7,0.3c0.2,0.1,0.3,0.1,0.5,0.2
		c0.3,0.1,0.5,0.2,0.8,0.3c0.1,0,0.2,0.1,0.4,0.1c0.4,0.1,0.7,0.2,1.1,0.3c0.1,0,0.3,0.1,0.4,0.1c0.3,0.1,0.6,0.1,0.9,0.1
		c0.1,0,0.3,0,0.4,0c0.4,0,0.8,0.1,1.2,0.1c0.4,0,0.8,0,1.3-0.1c0.1,0,0.3,0,0.4,0c0.3,0,0.6-0.1,0.9-0.1c0.1,0,0.3,0,0.4-0.1
		c0.4-0.1,0.7-0.2,1.1-0.3c0.1,0,0.2-0.1,0.4-0.1c0.3-0.1,0.5-0.2,0.8-0.3c0.2-0.1,0.3-0.1,0.5-0.2c0.2-0.1,0.4-0.2,0.6-0.3
		c0.1-0.1,0.3-0.1,0.4-0.2c0.3-0.2,0.6-0.4,1-0.6c0.1-0.1,0.2-0.1,0.3-0.2c0.2-0.2,0.5-0.3,0.7-0.5c0.1-0.1,0.2-0.2,0.3-0.3
		c0.2-0.2,0.4-0.3,0.6-0.5c0.1-0.1,0.2-0.2,0.3-0.3c0.2-0.2,0.5-0.5,0.7-0.7c0.1-0.1,0.2-0.3,0.3-0.4c0.2-0.2,0.3-0.4,0.5-0.6
		c0.1-0.2,0.2-0.3,0.3-0.5c0.1-0.2,0.2-0.3,0.3-0.5c0.1-0.2,0.2-0.4,0.3-0.6c0.1-0.1,0.1-0.2,0.2-0.3c0.1-0.2,0.2-0.4,0.3-0.7
		c2.2,1.7,5,4.4,4.8,5.9c-0.1,0.4-0.2,1.1-0.9,1.9c0,0-0.1,0-0.1,0.1c-0.9,1-2.5,1.8-4.7,2.5c0,0-0.1,0-0.1,0
		c-0.3,0.1-0.5,0.2-0.8,0.2c-0.1,0-0.1,0-0.2,0c-0.3,0.1-0.7,0.2-1,0.2c0,0-0.1,0-0.1,0c-0.3,0.1-0.6,0.1-0.9,0.2
		c-0.2,0-0.3,0.1-0.5,0.1c-0.2,0-0.4,0.1-0.7,0.1c-0.2,0-0.4,0.1-0.5,0.1c-0.2,0-0.4,0.1-0.7,0.1c-0.2,0-0.4,0.1-0.6,0.1
		c-0.2,0-0.5,0.1-0.7,0.1c-0.2,0-0.4,0.1-0.6,0.1c-0.3,0-0.5,0.1-0.8,0.1c-0.2,0-0.4,0-0.6,0.1c-0.3,0-0.7,0.1-1,0.1
		c-0.1,0-0.3,0-0.4,0c-0.5,0-1,0.1-1.6,0.1c-0.7,0-1.3,0.1-1.9,0.1c-0.3,0-0.5,0-0.8,0c-0.1,0-0.3,0-0.4,0c0,0,0,0,0,0h0
		c-0.7,0-1.4,0-2,0c-0.1,0-0.2,0-0.3,0c-0.2,0-0.4,0-0.5,0c-0.5,0-1-0.1-1.4-0.1c0,0-0.1,0-0.1,0c-0.2,0-0.3,0-0.5-0.1
		c-1.3-0.2-2.4-0.5-3.5-0.8c0,0,0,0,0,0c-2.9-1-4.3-2.4-4.9-3.3c0,0,0,0,0,0c-0.7-1-0.9-1.9-0.8-2.4C32.6,50.3,35.3,47.7,36.9,46.3z
		 M47.1,67.6c0.1,0.1,0.1,0.3,0.2,0.4c0.1,0.2,0.2,0.4,0.3,0.6c-1.5,1.3-4.5,2.8-10,3.3c0,0-0.1,0-0.1,0c0-0.1,0-0.2,0-0.2
		c-0.1-0.5-0.2-1-0.2-1.5c0,0,0-0.1,0-0.1c-0.1-0.6-0.1-1.2-0.2-1.9c1.6-0.2,5.2-1,9.1-3.7c0.1,0.4,0.2,0.8,0.3,1.2c0,0,0,0.1,0,0.1
		c0.1,0.3,0.2,0.6,0.3,1c0,0.1,0.1,0.2,0.1,0.3C46.8,67.1,46.9,67.4,47.1,67.6z M48.5,70.4c0.5,0.9,1,1.8,1,2.2
		c-0.1,0.5-0.9,1.5-2.7,2.7c-2.3,1.5-4.8,2.4-5.9,2c-1.5-0.4-2.6-1.8-3.3-4.2c4.6-0.5,8.1-1.6,10.4-3.5
		C48.2,69.9,48.4,70.2,48.5,70.4z M36.8,65.7c0-2.5,0.5-4.8,1.4-6.9c1.9,0.6,4.4,1,7.5,1c-0.1,1.1,0,2.2,0.1,3.2
		c-3.8,2.7-7.3,3.6-8.9,3.8C36.8,66.5,36.8,66.1,36.8,65.7z M30.4,73.3c0.2,0,0.4-0.2,0.4-0.3c0.1-0.2,0.1-0.4,0-0.6
		c-0.8-1.5,0.2-3.2,0.5-3.6c0,0,0.1-0.1,0.1-0.1c0.1-0.2,0.2-0.4,0.1-0.5c-0.4-1.6-0.6-3.1-0.6-4.6c0-2.7,0.6-5.4,1.8-7.8
		c0.1,0.1,0.2,0.3,0.4,0.4c0,0,0,0,0,0c0.1,0.1,0.2,0.2,0.3,0.3c0.1,0.1,0.1,0.1,0.2,0.2c0,0,0,0,0.1,0c0.8,0.6,1.9,1.3,3.3,1.8
		c-1,2.2-1.5,4.6-1.5,7.3c0,2,0.1,3.7,0.3,5.1c0,0.3,0.1,0.5,0.1,0.8c0,0,0,0,0,0.1c0.1,0.3,0.1,0.7,0.2,1c0,0,0,0,0,0
		c1,4,2.8,5.4,4.4,5.9c0.3,0.1,0.6,0.1,0.9,0.1c1.9,0,4.3-1.2,6-2.3c0.9-0.6,3-2.2,3.2-3.6c0.1-0.8-0.4-1.7-1.1-3
		c-0.3-0.5-0.6-1-0.9-1.6c-0.1-0.2-0.2-0.4-0.3-0.6c-0.1-0.1-0.1-0.3-0.2-0.5c-0.1-0.2-0.2-0.5-0.3-0.8c-0.1-0.1-0.1-0.3-0.2-0.4
		c-0.1-0.3-0.2-0.6-0.3-1c0-0.1-0.1-0.3-0.1-0.4c-0.1-0.4-0.2-0.7-0.3-1.1c-0.2-1.1-0.3-2.3-0.2-3.6c0.3,0,0.6,0,0.9,0
		c0.6,0,1.1-0.1,1.7-0.1c1-0.1,2-0.2,2.9-0.2c0.1,0,0.2,0,0.4,0c6.8-0.7,11.1-2,13.5-3.9c1.2,2.5,1.8,5.2,1.8,8
		c0,1.5-0.2,3.1-0.6,4.6c-0.1,0.2,0,0.4,0.2,0.6c0,0,0,0,0,0c1.4,1.7,0.5,4.4,0.4,4.4c-0.1,0.2-0.1,0.3,0,0.5
		c0.1,0.2,0.2,0.3,0.4,0.3c1.1,0.4,1.8,1.1,2.1,1.9c0.3,0.8,0.1,1.7-0.6,2.6c-0.7,1.1-4.2,3.5-20.5,3.5c-10.4,0-19.9-0.3-21.1-4.5
		c-0.4-1.2-0.3-2.3,0.1-3C29.2,73.6,30.4,73.3,30.4,73.3z"/>
	<path class="st0" d="M48.9,48.5c0.5,0.4,1.2,0.5,1.8,0.5c0.4,0,0.9-0.1,1.4-0.3l8.3-4.7c0.2-0.1,0.4-0.4,0.3-0.7
		c-0.1-0.3-0.3-0.5-0.6-0.5l-9.5-0.4c0,0,0,0-0.1,0c-1.7,0.1-3.1,1.6-3.1,3.3C47.4,46.9,48,47.9,48.9,48.5z M50.5,43.8l7.2,0.3
		l-6.3,3.6c-0.6,0.3-1.3,0.2-1.9-0.2c-0.6-0.4-0.9-1-0.9-1.7C48.7,44.8,49.5,43.9,50.5,43.8z"/>
	<path class="st0" d="M57.6,27.9c0.2,0,0.4-0.1,0.5-0.2c0,0,0,0,0,0c0.5-0.7,0.6-1.3,0.6-1.7c0-0.3-0.1-0.7-0.2-1
		c-0.1-0.3-0.5-0.4-0.8-0.3c-0.3,0.2-0.5,0.5-0.3,0.9c0.1,0.1,0.1,0.3,0.1,0.4c0,0.3-0.1,0.5-0.2,0.7c-0.1,0.1-0.1,0.2-0.1,0.2
		c0,0,0,0,0,0c-0.1,0.1-0.2,0.3-0.1,0.5c0,0.2,0.1,0.3,0.2,0.4C57.3,27.8,57.4,27.9,57.6,27.9z"/>
	<path class="st0" d="M55.7,24.3C55.7,24.3,55.7,24.3,55.7,24.3c0.1,0,0.2,0,0.2,0c0.3,0,0.5-0.2,0.6-0.4c0.1-0.3-0.1-0.7-0.4-0.8
		c0,0,0,0,0,0c-0.3-0.1-0.7,0.1-0.8,0.4C55.2,23.9,55.4,24.2,55.7,24.3z"/>
	<path class="st0" d="M51.2,25.5c-0.1,0.2-0.1,0.3,0,0.5c0.1,0.2,0.2,0.3,0.3,0.4c0.1,0,0.2,0.1,0.3,0.1c0.2,0,0.5-0.1,0.6-0.4
		c0,0,0,0,0,0c0,0,0.1-0.3,0.4-0.6c0.2-0.3,0.6-0.7,1.1-1c0.1-0.1,0.3-0.2,0.3-0.4c0.1-0.2,0-0.3-0.1-0.5c-0.2-0.3-0.6-0.4-0.9-0.3
		C52.1,24,51.4,25,51.2,25.5C51.2,25.5,51.2,25.5,51.2,25.5z"/>
	<path class="st0" d="M43.7,21.8c-5.3,1.4-5.5,4.4-5.5,4.6c0,0.3,0.3,0.6,0.6,0.7c0,0,0,0,0,0c0.3,0,0.6-0.3,0.6-0.6
		c0-0.1,0.2-2.3,4.5-3.4c0.3-0.1,0.5-0.4,0.5-0.8C44.4,21.9,44.1,21.7,43.7,21.8z"/>
	<path class="st0" d="M42,25.2c-2.1,0.9-2.3,2.8-2.3,2.8c0,0.3,0.2,0.7,0.6,0.7c0,0,0,0,0.1,0c0.3,0,0.6-0.2,0.6-0.6
		c0,0,0.2-1.2,1.5-1.8c0.3-0.1,0.5-0.5,0.3-0.8C42.7,25.2,42.3,25.1,42,25.2z"/>
	<circle class="st0" cx="45" cy="38.2" r="2.3"/>
	<circle class="st0" cx="54.9" cy="38.2" r="2.3"/>
</g>
</svg>
