<?xml version="1.0" encoding="utf-8"?>
<!-- Generator: Adobe Illustrator 14.0.0, SVG Export Plug-In . SVG Version: 6.00 Build 43363)  -->
<!DOCTYPE svg PUBLIC "-//W3C//DTD SVG 1.1//EN" "http://www.w3.org/Graphics/SVG/1.1/DTD/svg11.dtd">
<svg version="1.1" xmlns="http://www.w3.org/2000/svg" xmlns:xlink="http://www.w3.org/1999/xlink" x="0px" y="0px" width="800px"
	 height="600px" viewBox="0 0 800 600" enable-background="new 0 0 800 600" xml:space="preserve">
<g id="Layer_2">
	<rect fill="#143068" width="800" height="600"/>
</g>
<g id="Layer_1">
	<g>
		<g>
			<g>
				<path fill="none" stroke="#F45389" stroke-linejoin="round" d="M244.223,400.581l1.207,1.208c-1.843,3.307-5.69,3.1-5.69,3.1
					c-6.485,0-6.008-4.339-6.008-4.339l0.763-9.25c0.191-2.529-2.289-2.48-2.289-2.48v-1.526h8.392l-0.762,13.16
					c0,0,0.063,1.656,1.971,1.592C243.713,401.98,244.223,400.581,244.223,400.581z"/>
				<circle fill="none" stroke="#F45389" stroke-linejoin="round" cx="237.292" cy="380.616" r="3.561"/>
			</g>
			<circle fill="none" stroke="#FFFFFF" stroke-linejoin="round" cx="238.817" cy="390.974" r="23.667"/>
		</g>
		<g>
			
				<line fill="none" stroke="#F45389" stroke-linecap="round" stroke-linejoin="round" x1="319.169" y1="376.474" x2="319.169" y2="405.473"/>
			<circle fill="none" stroke="#FFFFFF" stroke-linejoin="round" cx="319.169" cy="390.974" r="23.667"/>
			
				<line fill="none" stroke="#F45389" stroke-linecap="round" stroke-linejoin="round" x1="333.669" y1="390.974" x2="304.669" y2="390.974"/>
		</g>
		<g>
			<circle fill="none" stroke="#FFFFFF" stroke-linejoin="round" cx="482.613" cy="390.974" r="23.667"/>
			
				<line fill="none" stroke="#F45389" stroke-linecap="round" stroke-linejoin="round" x1="497.113" y1="390.974" x2="468.113" y2="390.974"/>
		</g>
		<g>
			<circle fill="none" stroke="#FFFFFF" stroke-linejoin="round" cx="561.183" cy="390.974" r="23.667"/>
			<polyline fill="none" stroke="#F45389" stroke-linecap="round" stroke-linejoin="round" points="574.095,382.977 
				556.793,398.971 548.271,391.872 			"/>
		</g>
		
			<line fill="none" stroke="#F45389" stroke-linecap="round" stroke-linejoin="round" x1="410.974" y1="380.721" x2="390.468" y2="401.227"/>
		<circle fill="none" stroke="#FFFFFF" stroke-linejoin="round" cx="400.721" cy="390.974" r="23.667"/>
		
			<line fill="none" stroke="#F45389" stroke-linecap="round" stroke-linejoin="round" x1="410.974" y1="401.227" x2="390.468" y2="380.721"/>
		<path fill="none" stroke="#FFFFFF" stroke-linejoin="round" d="M212.977,496.566h53.173c2.512-2.393,4.085-5.764,4.085-9.506
			c0-5.775-3.732-10.67-8.912-12.432c-2.142-9.238-10.416-16.123-20.303-16.123c-7.777,0-14.555,4.262-18.138,10.574
			c-8.557,0.043-15.481,6.99-15.481,15.557C207.4,489.43,209.569,493.711,212.977,496.566z"/>
		<g>
			<path fill="none" stroke="#FFFFFF" stroke-linecap="round" stroke-linejoin="round" d="M330.981,496.566h15.52
				c2.512-2.393,4.085-5.764,4.085-9.506c0-5.775-3.732-10.67-8.912-12.432c-2.142-9.238-10.416-16.123-20.303-16.123
				c-7.777,0-14.555,4.262-18.138,10.574c-8.557,0.043-15.481,6.99-15.481,15.557c0,4.793,2.169,9.074,5.576,11.93h14.028"/>
			<g>
				
					<line fill="none" stroke="#F45389" stroke-linecap="round" stroke-linejoin="round" x1="319.17" y1="488.359" x2="319.17" y2="504.799"/>
				<polyline fill="none" stroke="#F45389" stroke-linecap="round" stroke-linejoin="round" points="310.474,496.449 
					319.17,505.146 327.866,496.449 				"/>
			</g>
		</g>
		<path fill="none" stroke="#FFFFFF" stroke-linecap="round" stroke-linejoin="round" d="M412.532,496.566h15.52
			c2.512-2.393,4.086-5.764,4.086-9.506c0-5.775-3.732-10.67-8.912-12.432c-2.143-9.238-10.416-16.123-20.303-16.123
			c-7.777,0-14.555,4.262-18.138,10.574c-8.557,0.043-15.481,6.99-15.481,15.557c0,4.793,2.169,9.074,5.576,11.93h14.027"/>
		<g>
			
				<line fill="none" stroke="#F45389" stroke-linecap="round" stroke-linejoin="round" x1="488.96" y1="485.109" x2="476.269" y2="497.803"/>
			
				<line fill="none" stroke="#F45389" stroke-linecap="round" stroke-linejoin="round" x1="488.96" y1="497.803" x2="476.269" y2="485.109"/>
			<path fill="none" stroke="#FFFFFF" stroke-linecap="round" stroke-linejoin="round" d="M493.426,498.066h16.52
				c2.512-2.393,4.086-5.764,4.086-9.506c0-5.775-3.732-10.67-8.912-12.432c-2.143-9.238-10.416-16.123-20.303-16.123
				c-7.777,0-14.556,4.262-18.139,10.574c-8.557,0.043-15.481,6.99-15.481,15.557c0,4.793,2.169,9.074,5.576,11.93h15.028"/>
		</g>
		<g>
			<polyline fill="none" stroke="#F45389" stroke-linecap="round" stroke-linejoin="round" points="570.216,486.787 
				558.112,497.977 552.149,493.01 			"/>
			<path fill="none" stroke="#FFFFFF" stroke-linecap="round" stroke-linejoin="round" d="M564.994,498.066h23.52
				c2.512-2.393,4.086-5.764,4.086-9.506c0-5.775-3.732-10.67-8.912-12.432c-2.143-9.238-10.416-16.123-20.302-16.123
				c-7.777,0-14.556,4.262-18.139,10.574c-8.557,0.043-15.481,6.99-15.481,15.557c0,4.793,2.169,9.074,5.576,11.93h16.028"/>
		</g>
		<g>
			
				<line fill="none" stroke="#F45389" stroke-linecap="round" stroke-linejoin="round" x1="400.721" y1="504.719" x2="400.721" y2="488.279"/>
			<polyline fill="none" stroke="#F45389" stroke-linecap="round" stroke-linejoin="round" points="409.417,496.627 
				400.721,487.932 392.024,496.627 			"/>
		</g>
		<g>
			<path fill="none" stroke="#F45389" stroke-linecap="round" stroke-linejoin="round" d="M325.528,286.079c0.77,0,1.539,0,2.308,0"
				/>
			<path fill="none" stroke="#F45389" stroke-linecap="round" stroke-linejoin="round" d="M313.147,286.079c2.854,0,5.709,0,8.563,0
				"/>
			<path fill="none" stroke="#FFFFFF" d="M302.837,324.121c-0.984,0-1.782-0.668-1.782-1.494v-45.011
				c0-0.825,0.798-1.495,1.782-1.495h32.664c0.985,0,1.782,0.67,1.782,1.495v45.011c0,0.826-0.797,1.494-1.782,1.494H302.837z"/>
			<rect x="305.628" y="280.079" fill="none" stroke="#FFFFFF" stroke-linejoin="round" width="27.082" height="36.5"/>
			<path fill="none" stroke="#FFFFFF" stroke-linejoin="round" d="M322.669,320.537c0,0.655-0.447,1.188-1,1.188h-5
				c-0.553,0-1-0.532-1-1.188l0,0c0-0.655,0.447-1.188,1-1.188h5C322.222,319.35,322.669,319.882,322.669,320.537L322.669,320.537z"
				/>
		</g>
		<g>
			<path fill="none" stroke="#F45389" stroke-linecap="round" stroke-linejoin="round" d="M406.539,287.121c0.77,0,1.538,0,2.308,0"
				/>
			<path fill="none" stroke="#F45389" stroke-linecap="round" stroke-linejoin="round" d="M394.158,287.121c2.854,0,5.709,0,8.563,0
				"/>
			<path fill="none" stroke="#FFFFFF" stroke-linecap="round" stroke-linejoin="round" d="M413.221,321.621c0,1.657-1.343,3-3,3h-19
				c-1.656,0-3-1.343-3-3v-43c0-1.657,1.344-3,3-3h19c1.657,0,3,1.343,3,3V321.621z"/>
			<line fill="none" stroke="#FFFFFF" stroke-linejoin="round" x1="412.805" y1="281.621" x2="388.637" y2="281.621"/>
			<line fill="none" stroke="#FFFFFF" stroke-linejoin="round" x1="412.971" y1="315.121" x2="388.471" y2="315.121"/>
			<circle fill="none" stroke="#FFFFFF" stroke-linejoin="round" cx="400.721" cy="319.787" r="2"/>
			
				<line fill="none" stroke="#FFFFFF" stroke-linecap="round" stroke-linejoin="round" x1="402.888" y1="278.288" x2="398.554" y2="278.288"/>
		</g>
		<g>
			<path fill="none" stroke="#F45389" stroke-linecap="round" stroke-linejoin="round" d="M495.432,292.596c0.77,0,1.537,0,2.307,0"
				/>
			<path fill="none" stroke="#F45389" stroke-linecap="round" stroke-linejoin="round" d="M483.05,292.596c2.854,0,5.709,0,8.563,0"
				/>
			
				<rect x="463.322" y="286.513" fill="none" stroke="#FFFFFF" stroke-linecap="round" stroke-linejoin="round" width="38.582" height="22.833"/>
			<path fill="none" stroke="#FFFFFF" d="M505.113,313.096v-28.499c0-0.984-0.67-1.782-1.495-1.782h-42.011
				c-0.826,0-1.494,0.798-1.494,1.782v28.499H505.113z"/>
			<path fill="none" stroke="#FFFFFF" d="M458.613,313.148v2.498c0,0.984,0.67,1.781,1.495,1.781h45.011
				c0.826,0,1.494-0.797,1.494-1.781v-2.498H458.613z"/>
			<polygon fill="none" stroke="#FFFFFF" stroke-linejoin="round" points="478.321,315.346 486.905,315.346 487.905,313.096 
				477.321,313.096 			"/>
		</g>
		<g>
			<g>
				<path fill="none" stroke="#FFFFFF" stroke-linejoin="round" d="M548.767,309.539c0,1.657,1.343,3,3,3h18.832
					c1.658,0,3-1.343,3-3v-18.833c0-1.657-1.342-3-3-3h-18.832c-1.657,0-3,1.343-3,3V309.539z"/>
				<path fill="none" stroke="#FFFFFF" stroke-linejoin="round" d="M550.87,312.623c0.625,0.25,0.959,8.5,0.959,8.5
					c0,1.657,1.342,3,3,3h12.832c1.658,0,3-1.343,3-3c0,0,0.396-8.062,0.834-8.5"/>
				<path fill="none" stroke="#FFFFFF" stroke-linejoin="round" d="M571.493,287.619c-0.625-0.25-0.958-8.5-0.958-8.5
					c0-1.657-1.343-3-3-3h-12.833c-1.658,0-3,1.343-3,3c0,0-0.396,8.062-0.834,8.5"/>
			</g>
			<polyline fill="none" stroke="#F45389" stroke-linecap="round" stroke-linejoin="round" points="565.433,295.171 
				561.433,302.321 556.933,302.321 			"/>
		</g>
		<g>
			<path fill="none" stroke="#F45389" stroke-linecap="round" stroke-linejoin="round" d="M254.973,283.333c0.77,0,1.539,0,2.308,0"
				/>
			<path fill="none" stroke="#F45389" stroke-linecap="round" stroke-linejoin="round" d="M242.592,283.333c2.854,0,5.709,0,8.563,0
				"/>
			<path fill="none" stroke="#FFFFFF" d="M262.817,311.147c0,0.984-0.668,1.782-1.494,1.782h-45.011
				c-0.825,0-1.495-0.798-1.495-1.782v-32.664c0-0.985,0.67-1.782,1.495-1.782h45.011c0.826,0,1.494,0.797,1.494,1.782V311.147z"/>
			<line fill="none" stroke="#FFFFFF" x1="214.817" y1="303.746" x2="262.817" y2="303.746"/>
			<polyline fill="none" stroke="#FFFFFF" stroke-linecap="round" stroke-linejoin="round" points="228.337,319.829 
				228.337,323.541 249.298,323.541 249.298,319.829 			"/>
			<path fill="none" stroke="#FFFFFF" stroke-linecap="round" stroke-linejoin="round" d="M249.229,319.758
				c-0.905-0.475-6.453-1.578-6.853-6.515h-7.118c-0.4,4.937-5.949,6.04-6.854,6.515"/>
			
				<line fill="none" stroke="#FFFFFF" stroke-linecap="round" stroke-linejoin="round" x1="248.942" y1="319.901" x2="228.692" y2="319.901"/>
		</g>
		<g>
			<path fill="none" stroke="#FFFFFF" stroke-linecap="round" stroke-linejoin="round" d="M419.387,204.178
				c0-10.309-8.357-18.667-18.667-18.667c-10.308,0-18.666,8.358-18.666,18.667c0,10.311,13.01,28.849,18.666,28.849
				C405.951,233.026,419.387,214.488,419.387,204.178z"/>
			<circle fill="none" stroke="#F45389" stroke-linecap="round" stroke-linejoin="round" cx="400.72" cy="207.269" r="7.636"/>
		</g>
		<g>
			<polyline fill="none" stroke="#F45389" stroke-linecap="round" stroke-linejoin="round" points="471.843,216.101 
				469.551,216.101 458.676,231.103 482.885,231.103 506.551,231.103 495.551,216.101 493.009,216.101 			"/>
			<path fill="none" stroke="#FFFFFF" stroke-linecap="round" stroke-linejoin="round" d="M497.113,201.935
				c0-8.008-6.492-14.5-14.5-14.5s-14.5,6.492-14.5,14.5c0,8.009,10.105,22.408,14.5,22.408
				C486.677,224.343,497.113,209.944,497.113,201.935z"/>
			<circle fill="none" stroke="#F45389" stroke-linecap="round" stroke-linejoin="round" cx="482.613" cy="204.335" r="5.932"/>
		</g>
		<g>
			<path fill="none" stroke="#F45389" stroke-linecap="round" stroke-linejoin="round" d="M553.026,222.74
				c-2.211,0.75-3.594,1.801-3.594,2.966c0,2.278,5.262,4.125,11.75,4.125c6.489,0,11.75-1.847,11.75-4.125
				c0-1.202-1.474-2.28-3.811-3.034"/>
			<path fill="none" stroke="#FFFFFF" stroke-linecap="round" stroke-linejoin="round" d="M575.683,203.206
				c0-8.008-6.492-14.5-14.5-14.5s-14.5,6.492-14.5,14.5c0,8.01,10.105,22.408,14.5,22.408
				C565.246,225.614,575.683,211.216,575.683,203.206z"/>
			<circle fill="none" stroke="#F45389" stroke-linecap="round" stroke-linejoin="round" cx="561.183" cy="205.607" r="5.932"/>
		</g>
		<g>
			
				<rect x="214.505" y="196.59" fill="none" stroke="#FFFFFF" stroke-linecap="round" stroke-linejoin="round" width="48.625" height="28.5"/>
			<polyline fill="none" stroke="#FFFFFF" stroke-linecap="round" stroke-linejoin="round" points="228.505,196.572 
				228.505,193.447 217.88,193.447 217.88,196.572 			"/>
			<circle fill="none" stroke="#F45389" stroke-linecap="round" stroke-linejoin="round" cx="237.817" cy="210.84" r="9.375"/>
			
				<line fill="none" stroke="#FFFFFF" stroke-linecap="round" stroke-linejoin="round" x1="259.442" y1="200.982" x2="251.692" y2="200.982"/>
		</g>
		<g>
			<polygon fill="none" stroke="#FFFFFF" stroke-linecap="round" stroke-linejoin="round" points="295.857,226.144 342.482,226.144 
				342.482,212.394 328.169,212.394 325.169,217.394 313.169,217.394 310.169,212.394 295.857,212.394 			"/>
			<polyline fill="none" stroke="#FFFFFF" stroke-linecap="round" stroke-linejoin="round" points="342.482,212.144 
				332.482,192.394 305.857,192.394 295.857,212.144 			"/>
		</g>
		<path fill="none" stroke="#FFFFFF" stroke-linecap="round" stroke-linejoin="round" d="M330.163,115.325l-15.824,15.823
			c-7.822,7.823-18.077-1.494-9.785-9.785c2.753-2.753,20.716-20.716,20.716-20.716c10.16-10.16,23.429,3.482,13.456,13.454
			c-3.363,3.364-20.717,20.716-20.717,20.716c-13.352,13.353-30.666-3.024-16.846-16.845l15.823-15.823"/>
		<g>
			<polygon fill="none" stroke="#FFFFFF" stroke-linejoin="bevel" points="243.414,96.496 259.147,98.086 260.738,113.82 
				234.221,140.336 216.897,123.012 			"/>
			<circle fill="none" stroke="#FFFFFF" stroke-linejoin="bevel" cx="249.601" cy="107.633" r="2.25"/>
			<line fill="none" stroke="#F45389" stroke-linejoin="round" x1="239.702" y1="127.432" x2="229.802" y2="117.532"/>
			<line fill="none" stroke="#F45389" stroke-linejoin="round" x1="235.458" y1="131.674" x2="225.559" y2="121.775"/>
		</g>
		<g>
			
				<rect x="459.051" y="94.979" fill="none" stroke="#FFFFFF" stroke-linecap="round" stroke-linejoin="round" width="47.125" height="46.875"/>
			<polyline fill="none" stroke="#FFFFFF" stroke-linecap="round" stroke-linejoin="round" points="459.368,132.876 
				471.988,120.621 481.113,127.371 494.863,111.871 505.863,120.371 			"/>
			<path fill="none" stroke="#F45389" stroke-linecap="round" stroke-linejoin="round" d="M499.782,112.832
				c0.364-0.791,0.567-1.67,0.567-2.598c0-3.444-2.792-6.236-6.236-6.236s-6.236,2.792-6.236,6.236c0,1.51,0.537,2.895,1.431,3.975"
				/>
		</g>
		<g>
			
				<rect x="537.745" y="94.854" fill="none" stroke="#FFFFFF" stroke-linecap="round" stroke-linejoin="round" width="46.875" height="47.125"/>
			
				<line fill="none" stroke="#FFFFFF" stroke-linecap="round" stroke-linejoin="round" x1="548.103" y1="118.416" x2="545.853" y2="118.416"/>
			
				<line fill="none" stroke="#FFFFFF" stroke-linecap="round" stroke-linejoin="round" x1="576.353" y1="118.416" x2="558.54" y2="118.416"/>
			<circle fill="none" stroke="#F45389" stroke-linecap="round" stroke-linejoin="round" cx="553.228" cy="118.416" r="2.875"/>
			
				<line fill="none" stroke="#FFFFFF" stroke-linecap="round" stroke-linejoin="round" x1="564.247" y1="106.416" x2="545.853" y2="106.416"/>
			
				<line fill="none" stroke="#FFFFFF" stroke-linecap="round" stroke-linejoin="round" x1="576.353" y1="106.416" x2="574.185" y2="106.416"/>
			<circle fill="none" stroke="#F45389" stroke-linecap="round" stroke-linejoin="round" cx="569.228" cy="106.416" r="2.875"/>
			
				<line fill="none" stroke="#FFFFFF" stroke-linecap="round" stroke-linejoin="round" x1="564.187" y1="130.416" x2="545.853" y2="130.416"/>
			
				<line fill="none" stroke="#FFFFFF" stroke-linecap="round" stroke-linejoin="round" x1="576.353" y1="130.416" x2="574.603" y2="130.416"/>
			<circle fill="none" stroke="#F45389" stroke-linecap="round" stroke-linejoin="round" cx="569.228" cy="130.416" r="2.875"/>
		</g>
		<g>
			<g>
				<polygon fill="none" stroke="#FFFFFF" stroke-linecap="round" stroke-linejoin="round" points="400.78,120.708 378.021,109.731 
					400.659,98.874 423.42,109.852 				"/>
			</g>
			<g>
				<path fill="none" stroke="#F45389" stroke-linecap="round" stroke-linejoin="round" d="M416.333,115.058l7.087,3.419
					l-22.64,10.855l-22.759-10.977c0,0,3.909-1.873,7.012-3.361"/>
			</g>
			<g>
				<polyline fill="none" stroke="#FFFFFF" stroke-linecap="round" stroke-linejoin="round" points="416.679,123.851 
					423.42,127.102 400.78,137.958 378.021,126.981 384.531,123.86 				"/>
			</g>
		</g>
	</g>
</g>
</svg>
