<svg xmlns="http://www.w3.org/2000/svg" viewBox="0 0 145.089 155.5"><path fill="#ECCA8D" stroke="#D9A128" stroke-width="3" stroke-linecap="round" stroke-linejoin="round" stroke-miterlimit="10" d="M80.489 1.9s3.7-.1 5.2 6.4c0 0 5.8.1 7.6 4.2v50.6s.3 8.5-5.5 12.6v4h-68.8v-3s-4-4.7-5.7-11.2V12s3-4.8 8.2-3.7c0 0 1.4-5.9 5.5-6.4"/><path fill="#D9A128" d="M19.288 79.7h68s2.7.6 3.7 4.4h-75.8c0-.1.5-3.5 4.1-4.4z"/><path fill="#ECCA8D" stroke="#D9A128" stroke-width="3" stroke-linecap="round" stroke-linejoin="round" stroke-miterlimit="10" d="M15.188 83.9v4.6h-6.9s-2.7.9-2.5 2.8v7.6s-3.3 3.8-3.8 7.1v25.4c0 2.5.3 4.5 1.7 6.7 1 1.6 2.4 3 3.9 4.1 3.2 2.3 6.5 2.3 10.3 2.3 0 0 1.8 5 4.2 5.3h9.2s1.6 3.4 4.1 4.2h35.7s3-.9 3.7-3.9h19s4-2.4 2.8-5.6h25.4c4.1 0 8.4.2 12.2-1.4 4-1.7 9.2-5.7 9.4-10.1l-2-29.6s-3.5-26.6-15.9-32c-2.2-.9-4.5-1.5-6.9-1.4-5.8.3-10 5.6-10.7 11.1-.5 4.3-1.9 10.3-6.4 12.1-.4.2-.9.3-1.4.4h-9.5V83.4l-75.6.5z"/><path fill="#D9A128" d="M18.889 78h68.9v3.2h-68.9z"/><path fill="#ECCA8D" stroke="#D9A128" stroke-width="3" stroke-linecap="round" stroke-linejoin="round" stroke-miterlimit="10" d="M34.889 83.4l-3.4 62s1 3.1 3.4 3.7h37.1s3-1.2 2.7-3.7l-3.7-62s-2.2-6.7-6.4-7.1h-21.8c-.1 0-6 .7-7.9 7.1zM72.489 93.4h24.5c3.6 0 6 .2 8.6-2.7 4.4-5.1 2.7-12.9 7.7-17.8 4.9-4.8 13.6-2.8 18.1 1.6 2.4 2.3 4.2 5.4 5.7 8.4 4.2 8.3 5.6 17.5 5.6 26.7v21.9c0 1.5.3 3.1-.4 4.4-2.3 4.6-8.8 5.7-13.3 5.4h-54c-.1 0-2.5-47.9-2.5-47.9zM33.288 94.1l-1.9 47.2c-3.4.1-6.9.2-10.3.4-2.3.1-4.5.2-6.8.2-6.5.2-11.5-5.8-12.6-12 0-5.2-.1-10.4-.1-15.5 0-3.3-.4-6.9.5-10.1.9-2.7 2.4-5.3 4.6-7.2 4.3-3.7 10.2-3 15.4-3h11.2z"/><path fill="#FCF5EA" stroke="#D9A128" stroke-width="2" stroke-linecap="round" stroke-linejoin="round" stroke-miterlimit="10" d="M65.588 137.7c0 2.3-1.9 4.2-4.2 4.2h-16.6c-2.3 0-4.2-1.9-4.2-4.2v-7c0-2.3 1.9-4.2 4.2-4.2h16.6c2.3 0 4.2 1.9 4.2 4.2v7z"/><circle fill="#FFF" stroke="#D9A128" stroke-width="2" stroke-linecap="round" stroke-linejoin="round" stroke-miterlimit="10" cx="120.888" cy="85.2" r="5.7"/><path fill="#FFF" stroke="#D9A128" stroke-width="2" stroke-linecap="round" stroke-linejoin="round" stroke-miterlimit="10" d="M125.788 132.8c0 2.6-1.9 4.7-4.2 4.7h-33.2c-2.3 0-4.2-2.1-4.2-4.7v-7.5c0-2.6 1.9-4.7 4.2-4.7h33.2c2.3 0 4.2 2.1 4.2 4.7v7.5z"/><circle fill="#FFF" stroke="#D9A128" stroke-linecap="round" stroke-linejoin="round" stroke-miterlimit="10" cx="112.788" cy="95.5" r="3.7"/><circle fill="#FCF5EA" stroke="#D9A128" stroke-linecap="round" stroke-linejoin="round" stroke-miterlimit="10" cx="129.788" cy="95.5" r="3.7"/><path fill="#FCF5EA" stroke="#D9A128" stroke-width="3" stroke-linecap="round" stroke-linejoin="round" stroke-miterlimit="10" d="M13.289 13.9h80v36h-80z"/><g fill="#D9A128"><path d="M16.788 21.2h1.9v19.1h-1.9zM20.189 21.2h1.9v19.1h-1.9zM23.588 21.2h1.9v19.1h-1.9zM26.989 21.2h1.9v19.1h-1.9zM30.389 21.2h1.9v19.1h-1.9zM33.788 21.2h1.9v19.1h-1.9zM37.188 21.2h1.9v19.1h-1.9zM40.589 21.2h1.9v19.1h-1.9zM43.989 21.2h1.9v19.1h-1.9z"/></g><g fill="#D9A128"><path d="M47.389 21.2h1.9v19.1h-1.9zM50.788 21.2h1.9v19.1h-1.9zM54.188 21.2h1.9v19.1h-1.9zM57.589 21.2h1.9v19.1h-1.9zM60.989 21.2h1.9v19.1h-1.9zM64.388 21.2h1.9v19.1h-1.9zM67.788 21.2h1.9v19.1h-1.9zM71.189 21.2h1.9v19.1h-1.9zM74.588 21.2h1.9v19.1h-1.9zM77.989 21.2h1.9v19.1h-1.9zM81.388 21.2h1.9v19.1h-1.9zM84.788 21.2h1.9v19.1h-1.9zM88.189 21.2h1.9v19.1h-1.9z"/></g><path fill="#D9A128" d="M2.389 111.7c5.2 0 9.3 4.2 9.3 9.3 0 5.2-4.2 9.3-9.3 9.3"/><path fill="#FFF" stroke="#D9A128" stroke-linecap="round" stroke-linejoin="round" stroke-miterlimit="10" d="M3.989 110.6h2.5V132h-2.5z"/><path fill="#D9A128" d="M13.289 12.2h80v2.2h-80zM141.288 111.7c-5.2 0-9.3 4.2-9.3 9.3 0 5.2 4.2 9.3 9.3 9.3"/><path fill="#FFF" stroke="#D9A128" stroke-linecap="round" stroke-linejoin="round" stroke-miterlimit="10" d="M136.388 110.6h3.1V132h-3.1z"/><path fill="none" stroke="#D9A128" stroke-width="3" stroke-linecap="round" stroke-linejoin="round" stroke-miterlimit="10" d="M27.788 1.5h53.3"/></svg>