<svg xmlns="http://www.w3.org/2000/svg" viewBox="0 0 102.5 74.439"><path fill="none" stroke="#D9A128" stroke-miterlimit="10" d="M92.4 67.8c-2 1.8-4.4 3.2-7 4.3-12.9 5.2-27.6-1-32.8-13.9s1-27.6 13.9-32.8c12.9-5.2 27.6 1 32.8 13.9 1.9 4.8 2.3 9.8 1.3 14.5"/><path fill="#FFF" stroke="#D9A128" stroke-width="2" stroke-miterlimit="10" d="M3.6 37.4h12.2c1.4 0 2.6-1.2 2.6-2.6v-8c0-1.4-1.2-2.6-2.6-2.6H3.6c-1.4 0-2.6 1.2-2.6 2.6v8c0 1.4 1.2 2.6 2.6 2.6z"/><circle fill="#D9A128" cx="100.3" cy="59" r="2.2"/><circle fill="#D9A128" cx="100" cy="65.6" r="1.4"/><circle fill="#FFF" stroke="#D9A128" stroke-width="3" stroke-miterlimit="10" cx="51.1" cy="36.3" r="34.8"/><circle fill="#ECCA8D" stroke="#D9A128" stroke-width="2" stroke-miterlimit="10" cx="51.1" cy="36.3" r="27.8"/><path fill="#FCF5EA" stroke="#D9A128" stroke-width="2" stroke-miterlimit="10" d="M40.1 11.6c-1.8.5-3.4 1.4-4.8 2.5-5.7 4.1-10.6 10-12 17.1-.8 4.1-.2 8.4 1.2 12.2.7 2 1.6 3.9 2.7 5.7.5.9 1.1 1.7 1.7 2.5 1.4 1.9 4.3-1.1 5.5-2 1.1-.8 2.3-1.6 3.3-2.6 2.9-2.8 4.1-5.2 3.4-9.2-.5-3.3-4.3-6.5-2.3-9.9 1.6-3 5.4-4.1 8.4-5.1 1.4-.4 2.8-1.1 3.2-2.7.6-3-1.8-6.7-4.3-8.1-1.9-.8-4-.9-6-.4z"/></svg>