<svg xmlns="http://www.w3.org/2000/svg" viewBox="0 0 284 168.7"><path fill="#ECCA8D" d="M282.5 163.2c0 2.2-1.8 4-4 4H5.5c-2.2 0-4-1.8-4-4V5.5c0-2.2 1.8-4 4-4h273c2.2 0 4 1.8 4 4v157.7z"/><path fill="none" stroke="#D9A128" stroke-width="3" stroke-miterlimit="10" d="M282.5 163.2c0 2.2-1.8 4-4 4H5.5c-2.2 0-4-1.8-4-4V5.5c0-2.2 1.8-4 4-4h273c2.2 0 4 1.8 4 4v157.7z"/><g fill="#D9A128"><path d="M152.6 80.2s-7 5.2.8 11c0 0-2.5 7.2-6.2 7.4 0 0-2.2-.5-3.3-1 0 0-2.3-.6-4.7 1 0 0-2.8.1-3.3-.9 0 0-3.7-3.1-4.9-9 0 0-2.2-7.8 4.6-10.9 0 0 2.1-1.1 5.8.7 0 0 1.7.3 4.2-.8-.1.1 3.5-1.6 7 2.5zM141.3 77.1s-.5-5.8 6.1-7.1c-.1 0 1.2 6.1-6.1 7.1z"/></g></svg>