<svg xmlns="http://www.w3.org/2000/svg" viewBox="0 0 157.2 15.4"><path fill="#FCF5EA" stroke="#D9A128" stroke-width="2" stroke-linecap="round" stroke-linejoin="round" stroke-miterlimit="10" d="M153.2 14.4h-11.8c-1.7 0-3-1.4-3-3V4c0-1.7 1.3-3 3-3h11.8c1.6 0 3 1.3 3 3v7.4c0 1.7-1.3 3-3 3z"/><path fill="#FCF5EA" stroke="#D9A128" stroke-width="2" stroke-linecap="round" stroke-linejoin="round" stroke-miterlimit="10" d="M1 6h3.5l10.1-5H147.4v13.4H14.1L4.4 9.5 1 9.2z"/><path fill="#ECCA8D" d="M15.8 2h123.7v11.3H15.8z"/><path fill="#D9A128" d="M15.6 1.3h69.1v12.3H15.6z"/><path fill="#ECCA8D" d="M15.8 1l-11 5H1v3.2l3.7.3 11.1 4.9z"/><path fill="#FFF" stroke="#D9A128" stroke-linecap="round" stroke-linejoin="round" stroke-miterlimit="10" d="M21.2 5.3h30.5v5.1H21.2z"/><path fill="#ECCA8D" stroke="#D9A128" stroke-linecap="round" stroke-linejoin="round" stroke-miterlimit="10" d="M24 6.9h11v1.9H24z"/><path fill="#D9A128" d="M139.4 1.9h7.2v12h-7.2z"/></svg>