<svg xmlns="http://www.w3.org/2000/svg" viewBox="0 0 191 126.3"><path fill="#FCF5EA" stroke="#D9A128" stroke-width="3" stroke-miterlimit="10" d="M186.5 124.8H4.5c-1.7 0-3-1.3-3-3V4.5c0-1.7 1.3-3 3-3h182c1.6 0 3 1.3 3 3v117.3c0 1.7-1.4 3-3 3z"/><path fill="#ECCA8D" stroke="#D9A128" stroke-width="3" stroke-linecap="round" stroke-linejoin="round" stroke-miterlimit="10" d="M51 17.6h127v74H51z"/><path fill="#FFF" d="M87.1 106.4h18.5v4.3H87.1z"/><path fill="#ECCA8D" stroke="#D9A128" stroke-linecap="round" stroke-linejoin="round" stroke-miterlimit="10" d="M9.4 16.6h21.5V54H9.4z"/><g fill="#FFF" stroke="#D9A128" stroke-miterlimit="10"><path d="M12.2 47h16v4.8h-16zM12.2 18.9h7v26.5h-7zM21.2 18.9h7v12.4h-7zM21.2 32.9h7v12.4h-7z"/></g><path fill="#D9A228" d="M35 16.2h7.5v38.2H35z"/><path fill="#D9A128" d="M110.6 9.6h7.6v2.8h-7.6z"/></svg>