<?xml version="1.0" encoding="utf-8"?>
<!-- Generator: Adobe Illustrator 19.2.1, SVG Export Plug-In . SVG Version: 6.00 Build 0)  -->
<!DOCTYPE svg PUBLIC "-//W3C//DTD SVG 1.1//EN" "http://www.w3.org/Graphics/SVG/1.1/DTD/svg11.dtd">
<svg version="1.1" id="Слой_1" xmlns="http://www.w3.org/2000/svg" xmlns:xlink="http://www.w3.org/1999/xlink" x="0px" y="0px"
	 width="64px" height="64px" viewBox="0 0 64 64" enable-background="new 0 0 64 64" xml:space="preserve">
<g>
	<path fill="#2AB27B" d="M52,55c-0.256,0-0.512-0.098-0.707-0.293l-4-4c-0.391-0.391-0.391-1.023,0-1.414s1.023-0.391,1.414,0l4,4
		c0.391,0.391,0.391,1.023,0,1.414C52.512,54.902,52.256,55,52,55z"/>
</g>
<g>
	<path fill="#2AB27B" d="M48,55c-0.256,0-0.512-0.098-0.707-0.293c-0.391-0.391-0.391-1.023,0-1.414l4-4
		c0.391-0.391,1.023-0.391,1.414,0s0.391,1.023,0,1.414l-4,4C48.512,54.902,48.256,55,48,55z"/>
</g>
<g>
	<path fill="#2AB27B" d="M16,55c-0.256,0-0.512-0.098-0.707-0.293l-4-4c-0.391-0.391-0.391-1.023,0-1.414s1.023-0.391,1.414,0l4,4
		c0.391,0.391,0.391,1.023,0,1.414C16.512,54.902,16.256,55,16,55z"/>
</g>
<g>
	<path fill="#2AB27B" d="M12,55c-0.256,0-0.512-0.098-0.707-0.293c-0.391-0.391-0.391-1.023,0-1.414l4-4
		c0.391-0.391,1.023-0.391,1.414,0s0.391,1.023,0,1.414l-4,4C12.512,54.902,12.256,55,12,55z"/>
</g>
<g>
	<path fill="#4572ED" d="M52.115,64h-40.23C6.985,64,3,60.015,3,55.115c0-0.06,0.005-0.118,0.016-0.177l1.611-8.957
		C4.938,44.254,6.438,43,8.193,43h47.613c1.756,0,3.256,1.254,3.566,2.981l1.611,8.957C60.995,54.997,61,55.056,61,55.115
		C61,60.015,57.015,64,52.115,64z M5.001,55.201C5.047,58.958,8.117,62,11.885,62h40.23c3.768,0,6.838-3.042,6.884-6.799
		l-1.595-8.866C57.266,45.562,56.594,45,55.807,45H8.193c-0.787,0-1.459,0.562-1.598,1.335L5.001,55.201z"/>
</g>
<g>
	<path fill="#4572ED" d="M54.001,40c-0.378,0-0.739-0.215-0.908-0.58c-0.072-0.154-0.633-1.165-4.853-7.679
		C47.128,30.024,45.242,29,43.194,29H20.851c-2.066,0-3.964,1.042-5.074,2.786l-4.933,7.752c-0.297,0.466-0.913,0.602-1.381,0.307
		c-0.466-0.297-0.604-0.915-0.307-1.381l4.933-7.752C15.569,28.387,18.097,27,20.851,27h22.344c2.729,0,5.242,1.366,6.724,3.654
		c4.625,7.14,4.899,7.732,4.989,7.927c0.232,0.501,0.014,1.096-0.487,1.327C54.284,39.971,54.142,40,54.001,40z"/>
</g>
<g>
	<path fill="#4572ED" d="M63,40h-5c-0.553,0-1-0.447-1-1s0.447-1,1-1h5c0.553,0,1,0.447,1,1S63.553,40,63,40z"/>
</g>
<g>
	<path fill="#4572ED" d="M6,40H1c-0.553,0-1-0.447-1-1s0.447-1,1-1h5c0.553,0,1,0.447,1,1S6.553,40,6,40z"/>
</g>
<g>
	<path fill="#4572ED" d="M41,53H23c-0.553,0-1-0.447-1-1s0.447-1,1-1h18c0.553,0,1,0.447,1,1S41.553,53,41,53z"/>
</g>
<g>
	<path fill="#4572ED" d="M37.001,56c-0.065,0-0.131-0.006-0.197-0.02c-3.188-0.637-6.42-0.637-9.607,0
		c-0.549,0.111-1.069-0.243-1.177-0.784c-0.108-0.542,0.243-1.068,0.784-1.177c3.447-0.689,6.945-0.689,10.393,0
		c0.541,0.108,0.893,0.635,0.784,1.177C37.886,55.672,37.468,56,37.001,56z"/>
</g>
<g>
	<path fill="#4572ED" d="M37,34H27c-0.553,0-1-0.447-1-1s0.447-1,1-1h10c0.553,0,1,0.447,1,1S37.553,34,37,34z"/>
</g>
<g>
	<path fill="#2AB27B" d="M34.499,17h-4.998c-0.431,0-0.812-0.275-0.948-0.684l-3.001-9c-0.084-0.251-0.064-0.526,0.054-0.764
		l2.999-6C28.773,0.214,29.12,0,29.499,0h5.002c0.379,0,0.726,0.214,0.895,0.553l2.999,6c0.118,0.237,0.138,0.512,0.054,0.764
		l-3.001,9C35.312,16.725,34.93,17,34.499,17z M30.222,15h3.557l2.642-7.923L33.883,2h-3.766L27.58,7.077L30.222,15z"/>
</g>
<g>
	<path fill="#2AB27B" d="M27.5,11c-0.256,0-0.512-0.098-0.707-0.293c-0.391-0.391-0.391-1.023,0-1.414l7-7
		c0.391-0.391,1.023-0.391,1.414,0s0.391,1.023,0,1.414l-7,7C28.012,10.903,27.756,11,27.5,11z"/>
</g>
<g>
	<path fill="#2AB27B" d="M29.5,15c-0.256,0-0.512-0.098-0.707-0.293c-0.391-0.391-0.391-1.023,0-1.414l7-7
		c0.391-0.391,1.023-0.391,1.414,0s0.391,1.023,0,1.414l-7,7C30.012,14.903,29.756,15,29.5,15z"/>
</g>
<g>
	<path fill="#2AB27B" d="M33,25h-2c-1.654,0-3-1.346-3-3c0-0.552,0.447-1,1-1s1,0.448,1,1c0,0.551,0.448,1,1,1h2
		c0.552,0,1-0.449,1-1v-1c0-0.551-0.448-1-1-1c-1.654,0-3-1.346-3-3v-1c0-0.552,0.447-1,1-1s1,0.448,1,1v1c0,0.551,0.448,1,1,1
		c1.654,0,3,1.346,3,3v1C36,23.655,34.654,25,33,25z"/>
</g>
</svg>
