<?xml version="1.0" encoding="utf-8"?>
<!-- Generator: Adobe Illustrator 19.2.1, SVG Export Plug-In . SVG Version: 6.00 Build 0)  -->
<!DOCTYPE svg PUBLIC "-//W3C//DTD SVG 1.1//EN" "http://www.w3.org/Graphics/SVG/1.1/DTD/svg11.dtd">
<svg version="1.1" id="Слой_1" xmlns="http://www.w3.org/2000/svg" xmlns:xlink="http://www.w3.org/1999/xlink" x="0px" y="0px"
	 width="64px" height="64px" viewBox="0 0 64 64" enable-background="new 0 0 64 64" xml:space="preserve">
<g>
	<path fill="#2AB27B" d="M3,9C2.447,9,2,8.552,2,8V4c0-0.552,0.447-1,1-1s1,0.448,1,1v4C4,8.552,3.553,9,3,9z"/>
</g>
<g>
	<path fill="#4572ED" d="M61,26h-2.497c-0.454,0-0.907-0.007-1.361-0.02c-0.553-0.016-0.987-0.476-0.972-1.028
		c0.017-0.552,0.477-0.988,1.028-0.971C57.634,23.994,58.068,24,58.503,24h2.056C60.953,23.419,62,21.379,62,16
		c0-5.331-1.028-7.382-1.451-8h-2.934c-0.553,0-1-0.448-1-1s0.447-1,1-1H61c0.212,0,0.418,0.067,0.589,0.192
		C61.992,6.486,64,8.339,64,16c0,7.661-2.008,9.514-2.411,9.808C61.418,25.933,61.212,26,61,26z"/>
</g>
<g>
	<path fill="#2AB27B" d="M5,7H1C0.447,7,0,6.552,0,6s0.447-1,1-1h4c0.553,0,1,0.448,1,1S5.553,7,5,7z"/>
</g>
<g>
	<path fill="#2AB27B" d="M57,57.5h-6c-0.553,0-1-0.447-1-1s0.447-1,1-1h6c0.553,0,1,0.447,1,1S57.553,57.5,57,57.5z"/>
</g>
<g>
	<path fill="#2AB27B" d="M54,60.5c-0.553,0-1-0.447-1-1v-6c0-0.553,0.447-1,1-1s1,0.447,1,1v6C55,60.053,54.553,60.5,54,60.5z"/>
</g>
<g>
	<path fill="#4572ED" d="M26,48c-7.72,0-14-6.28-14-14c0-7.719,6.28-14,14-14c0.553,0,1,0.448,1,1s-0.447,1-1,1
		c-6.617,0-12,5.383-12,12c0,6.617,5.383,12,12,12s12-5.383,12-12c0-2.3-0.652-4.534-1.886-6.461
		c-0.298-0.465-0.162-1.083,0.303-1.381c0.465-0.297,1.084-0.162,1.381,0.303C39.238,28.71,40,31.317,40,34C40,41.72,33.72,48,26,48
		z"/>
</g>
<g>
	<path fill="#2AB27B" d="M26,42c-4.411,0-8-3.589-8-8s3.589-8,8-8s8,3.588,8,8S30.411,42,26,42z M26,28c-3.309,0-6,2.691-6,6
		s2.691,6,6,6s6-2.691,6-6S29.309,28,26,28z"/>
</g>
<g>
	<path fill="#4572ED" d="M26,55C14.421,55,5,45.579,5,34c0-4.586,1.452-8.944,4.199-12.602c0.331-0.442,0.959-0.529,1.4-0.199
		c0.441,0.332,0.53,0.958,0.199,1.4C8.313,25.908,7,29.851,7,34c0,10.477,8.523,19,19,19c0.553,0,1,0.447,1,1S26.553,55,26,55z"/>
</g>
<g>
	<path fill="#4572ED" d="M11.717,21c-0.253,0-0.506-0.095-0.7-0.286c-0.395-0.387-0.4-1.02-0.014-1.414
		c0.429-0.437,0.881-0.86,1.346-1.258c0.42-0.358,1.051-0.31,1.409,0.108c0.36,0.419,0.312,1.051-0.108,1.41
		c-0.42,0.36-0.83,0.744-1.219,1.14C12.234,20.9,11.976,21,11.717,21z"/>
</g>
<g>
	<path fill="#2AB27B" d="M26,37c-1.654,0-3-1.346-3-3s1.346-3,3-3s3,1.346,3,3S27.654,37,26,37z M26,33c-0.552,0-1,0.448-1,1
		s0.448,1,1,1s1-0.448,1-1S26.552,33,26,33z"/>
</g>
<g>
	<path fill="#4572ED" d="M26,59C12.215,59,1,47.785,1,34C1,20.215,12.215,9,26,9c0.553,0,1,0.448,1,1s-0.447,1-1,1
		C13.317,11,3,21.318,3,34c0,12.683,10.317,23,23,23s23-10.317,23-23c0-3.329-0.695-6.54-2.067-9.544
		c-0.229-0.502-0.009-1.096,0.494-1.325c0.499-0.231,1.095-0.008,1.324,0.494C50.243,26.892,51,30.382,51,34
		C51,47.785,39.785,59,26,59z"/>
</g>
<g>
	<path fill="#4572ED" d="M52.922,25.656c-0.041,0-0.082-0.002-0.124-0.007c-1.137-0.141-2.284-0.326-3.41-0.551l-11.399-2.28
		C35.276,22.275,32.498,22,29.732,22H26c-0.553,0-1-0.448-1-1s0.447-1,1-1h3.732c2.897,0,5.808,0.288,8.648,0.856l11.399,2.28
		c1.077,0.215,2.175,0.393,3.264,0.527c0.548,0.068,0.938,0.567,0.869,1.115C53.851,25.285,53.42,25.656,52.922,25.656z"/>
</g>
<g>
	<path fill="#4572ED" d="M26.019,59.001c-0.535,0-1.072-0.017-1.611-0.05c-12.538-0.778-22.58-10.82-23.358-23.358
		c-0.434-6.986,1.957-13.631,6.73-18.71C12.487,11.874,19.129,9,26,9l13.929-0.998l11.919-1.705c0.292-0.042,0.585-0.08,0.879-0.112
		c0.556-0.059,1.044,0.333,1.105,0.882c0.062,0.549-0.334,1.043-0.883,1.105c-0.272,0.031-0.546,0.065-0.817,0.104L40.142,9.99
		l-14.07,1.008C19.585,11,13.632,13.576,9.237,18.252C4.845,22.925,2.646,29.04,3.045,35.47c0.716,11.532,9.953,20.77,21.485,21.485
		c6.438,0.405,12.545-1.801,17.218-6.192C46.425,46.368,49,40.414,49,34c0-0.553,0.447-1,1-1s1,0.447,1,1
		c0,6.871-2.873,13.513-7.882,18.221C38.431,56.626,32.41,59.001,26.019,59.001z"/>
</g>
<g>
	<path fill="#4572ED" d="M6,61c-0.26,0-0.516-0.102-0.707-0.293l-0.395-0.395c-2.495-2.494-3.571-6.049-2.879-9.509
		c0.061-0.303,0.257-0.561,0.533-0.698l4-2c0.495-0.246,1.094-0.047,1.342,0.447c0.247,0.494,0.047,1.095-0.447,1.342l-3.548,1.773
		c-0.373,2.618,0.483,5.257,2.342,7.158l9.388-3.755c0.508-0.206,1.095,0.043,1.3,0.558c0.205,0.513-0.045,1.095-0.558,1.3l-10,4
		C6.251,60.977,6.125,61,6,61z"/>
</g>
<g>
	<path fill="#4572ED" d="M57,28h-4c-0.553,0-1-0.448-1-1V5c0-0.552,0.447-1,1-1h4c0.553,0,1,0.448,1,1v22C58,27.553,57.553,28,57,28
		z M54,26h2V6h-2V26z"/>
</g>
<g>
	<path fill="#4572ED" d="M36,35c-0.13,0-0.26-0.03-0.38-0.08s-0.23-0.12-0.33-0.21C35.1,34.52,35,34.27,35,34
		c0-0.13,0.02-0.26,0.08-0.38c0.05-0.12,0.12-0.23,0.21-0.33c0.37-0.37,1.04-0.37,1.42,0c0.09,0.1,0.16,0.21,0.21,0.33
		C36.979,33.74,37,33.87,37,34s-0.021,0.26-0.08,0.38c-0.05,0.12-0.12,0.229-0.21,0.33C36.52,34.899,36.27,35,36,35z"/>
</g>
<g>
	<path fill="#4572ED" d="M16,35c-0.271,0-0.521-0.101-0.71-0.29c-0.09-0.101-0.17-0.21-0.221-0.33C15.02,34.26,15,34.13,15,34
		c0-0.26,0.109-0.521,0.29-0.71c0.1-0.09,0.2-0.16,0.33-0.21c0.239-0.101,0.52-0.101,0.76,0c0.13,0.05,0.229,0.12,0.33,0.21
		C16.89,33.479,17,33.74,17,34c0,0.13-0.03,0.26-0.08,0.38s-0.12,0.229-0.21,0.33c-0.101,0.09-0.21,0.16-0.33,0.22
		C16.26,34.979,16.13,35,16,35z"/>
</g>
<g>
	<path fill="#4572ED" d="M26,45c-0.271,0-0.521-0.101-0.71-0.29c-0.09-0.101-0.16-0.21-0.21-0.33C25.02,44.26,25,44.13,25,44
		c0-0.26,0.109-0.521,0.29-0.71c0.1-0.09,0.2-0.16,0.33-0.21c0.37-0.16,0.81-0.07,1.09,0.21C26.89,43.479,27,43.729,27,44
		c0,0.27-0.101,0.52-0.29,0.71c-0.101,0.09-0.21,0.16-0.33,0.21S26.13,45,26,45z"/>
</g>
<g>
	<path fill="#4572ED" d="M26,25c-0.13,0-0.26-0.03-0.38-0.08c-0.13-0.05-0.23-0.12-0.33-0.21C25.109,24.52,25,24.26,25,24
		c0-0.26,0.109-0.52,0.29-0.71c0.1-0.09,0.2-0.16,0.33-0.21c0.37-0.16,0.81-0.07,1.09,0.21c0.09,0.1,0.16,0.2,0.21,0.33
		C26.97,23.74,27,23.87,27,24c0,0.26-0.11,0.52-0.29,0.71C26.52,24.89,26.26,25,26,25z"/>
</g>
<g>
	<path fill="#4572ED" d="M30,55c-0.13,0-0.26-0.03-0.38-0.08s-0.23-0.12-0.33-0.22C29.1,54.52,29,54.27,29,54
		c0-0.13,0.03-0.26,0.08-0.38c0.05-0.13,0.12-0.23,0.21-0.33c0.38-0.37,1.04-0.37,1.42,0c0.09,0.1,0.16,0.2,0.21,0.33
		C30.979,53.74,31,53.87,31,54c0,0.27-0.101,0.52-0.29,0.7c-0.101,0.1-0.21,0.17-0.33,0.22S30.13,55,30,55z"/>
</g>
</svg>
