<?xml version="1.0" encoding="utf-8"?>
<!-- Generator: Adobe Illustrator 19.1.0, SVG Export Plug-In . SVG Version: 6.00 Build 0)  -->
<svg version="1.1" id="Layer_1" xmlns="http://www.w3.org/2000/svg" xmlns:xlink="http://www.w3.org/1999/xlink" x="0px" y="0px"
	 viewBox="0 0 100 100" style="enable-background:new 0 0 100 100;" xml:space="preserve">
<style type="text/css">
	.st0{fill:#F1F1F2;}
	.st1{fill:#640F13;}
	.st2{fill:#FCE8D0;}
	.st3{fill:#E6E7E8;}
	.st4{fill:#DB4342;}
	.st5{fill:#FACCAA;}
	.st6{fill:#FFFFFF;}
	.st7{fill:#C83D3C;}
	.st8{fill:#98CF97;}
	.st9{fill:#83B585;}
	.st10{fill:#E86363;}
	.st11{fill:#FFDF00;}
	.st12{fill:#FFF69D;}
	.st13{fill:#FFF5CA;}
	.st14{fill:#D0AF8B;}
	.st15{fill:#BC3839;}
	.st16{fill:#E8DEB9;}
	.st17{fill:#DFC0A9;}
	.st18{fill:#640F14;}
	.st19{fill:#BADDEE;}
	.st20{fill:#9DD3ED;}
	.st21{fill:#D17663;}
	.st22{fill:#839CC1;}
	.st23{fill:#E0D682;}
	.st24{fill:#E07B25;}
	.st25{fill:#77A9C3;}
	.st26{fill:#008BB3;}
	.st27{fill:#2385A5;}
	.st28{fill:#6CADCA;}
	.st29{fill:#DBDCDD;}
	.st30{fill:#7AB17B;}
	.st31{fill:#C3996B;}
	.st32{fill:#B18C62;}
	.st33{fill:#D7B492;}
	.st34{fill:#F27575;}
	.st35{fill:#992E34;}
	.st36{fill:#D0D2D3;}
	.st37{fill:#AE3334;}
	.st38{fill:#A9865E;}
	.st39{fill:#231F20;}
	.st40{fill:#FCC010;}
	.st41{fill:#F4EDB8;}
	.st42{fill:#E29E16;}
</style>
<g>
	<g>
		<path class="st2" d="M43.4,33.6c0,0-15.7,30.2-17.4,33.5c-1.7,3.3-1.1,4.6,0.8,5.6c2,1,3.7,0.2,4.9-2.2
			c1.9-3.6,11.5-22.2,14.8-28.5c5-9.5,8.8-11.9,16-8.1c5.4,2.8,7,8.4,3.5,15c-1.2,2.4-0.8,4.5,0.8,5.3s3.6,0.4,5.3-2.9
			C75.5,45,80,34,66,26.7S45.6,29.4,43.4,33.6z"/>
		<path class="st1" d="M56.8,24.1c2.6,0,5.7,0.7,9.2,2.6C80,34,75.5,45,72.2,51.4c-1.2,2.3-2.6,3.2-3.8,3.2c-0.5,0-1-0.1-1.4-0.4
			c-1.6-0.9-2.1-3-0.8-5.3c3.5-6.7,1.9-12.2-3.5-15c-2.2-1.1-4-1.7-5.7-1.7c-3.9,0-6.8,3.1-10.3,9.8c-3.3,6.3-13,24.9-14.8,28.5
			c-0.9,1.7-2,2.6-3.3,2.6c-0.5,0-1-0.1-1.6-0.4c-2-1-2.6-2.3-0.9-5.6c1.7-3.3,17.4-33.5,17.4-33.5C45,30.5,49.1,24.1,56.8,24.1
			 M56.8,21.6c-6.5,0-11.9,3.8-15.6,10.9L23.8,65.9c-0.8,1.6-3.3,6.3,1.9,9c0.9,0.5,1.8,0.7,2.7,0.7c1.3,0,3.8-0.5,5.5-4l14.8-28.5
			c3.9-7.4,6.2-8.5,8.1-8.5c1.2,0,2.7,0.5,4.6,1.4c5.8,3,4,8.6,2.4,11.6c-1.8,3.5-1,7.2,1.9,8.7c0.8,0.4,1.7,0.7,2.6,0.7
			c1.7,0,4.1-0.8,6.1-4.6c1.8-3.5,3.9-8.2,3.7-13.3c-0.3-6.2-4-11.2-10.9-14.8C63.6,22.6,60.1,21.6,56.8,21.6L56.8,21.6z"/>
	</g>
	<path class="st0" d="M43.4,33.6c0,0-15.7,30.2-17.4,33.5c-1.7,3.3-1.1,4.6,0.8,5.6c2,1,3.7,0.2,4.9-2.2
		c1.9-3.6,11.5-22.2,14.8-28.5c5-9.5,8.8-11.9,16-8.1c5.4,2.8,7,8.4,3.5,15c-1.2,2.4-0.8,4.5,0.8,5.3s3.6,0.4,5.3-2.9
		C75.5,45,80,34,66,26.7S45.6,29.4,43.4,33.6z"/>
	<g>
		<path class="st3" d="M70,51.2c-3-1.4,0.3-5.9,0.6-10.5c0.3-4.6-2.6-7.8-7.9-9.9c-5.2-2.1-9.9-1-13,1.5c-3.1,2.6-9,16.2-12.4,22.3
			s-9.9,18.1-9.9,18.1s0,0.1,0.1,0.2c1.7,0.5,3.1-0.4,4.2-2.5c1.9-3.6,11.5-22.2,14.8-28.5c5-9.5,8.8-11.9,16-8.1
			c5.4,2.8,7,8.4,3.5,15c-1.2,2.4-0.8,4.5,0.8,5.3c1.5,0.8,3.2,0.4,4.8-2.1C71.2,51.9,70.6,51.5,70,51.2z"/>
	</g>
	<path class="st1" d="M28.4,73.8c-0.6,0-1.2-0.2-1.9-0.5c-0.9-0.4-1.9-1.1-2.1-2.4c-0.2-1,0.1-2.3,1-4.1l17.4-33.5
		c3-5.7,10-14.2,23.5-7.2c13.9,7.2,10.3,18,6.4,25.5c-0.9,1.6-1.8,2.7-2.9,3.3c-1,0.5-2.1,0.4-3.2-0.1c-1-0.5-1.6-1.4-1.8-2.6
		c-0.2-1.1,0.1-2.4,0.7-3.6c1.6-3.1,2.1-6,1.5-8.5c-0.6-2.4-2.2-4.3-4.8-5.7c-6.7-3.5-10.2-1.7-15.2,7.8L32.3,70.8
		C31.3,72.8,29.9,73.8,28.4,73.8z M43.4,33.6l0.6,0.3L26.5,67.4c-0.8,1.5-1,2.5-0.9,3.2c0.1,0.6,0.6,1,1.5,1.5c1.6,0.8,3,0.2,4-1.9
		L46,41.7c4.6-8.7,8.6-12.7,16.9-8.4c2.9,1.5,4.7,3.7,5.4,6.5c0.7,2.8,0.1,6-1.6,9.4c-0.5,1-0.7,2-0.6,2.8c0.1,0.7,0.5,1.3,1.2,1.6
		c0.7,0.4,1.4,0.4,2.1,0.1c0.8-0.4,1.6-1.3,2.4-2.7c4-7.6,6.9-17.2-5.9-23.8c-11.9-6.2-18.4,0.2-21.8,6.7L43.4,33.6z"/>
	<g>
		<path class="st4" d="M29.8,59.8l2.8,9c1.1-2.1,2.8-5.4,4.8-9.1l-2.8-9C32.9,53.9,31.2,57.1,29.8,59.8z"/>
		<path class="st4" d="M43.4,33.6c0,0-1.7,3.3-4.1,7.9l2.8,9c1.8-3.5,3.4-6.6,4.5-8.6c0.1-0.2,0.2-0.4,0.3-0.6l-2.8-9
			C43.8,32.9,43.6,33.3,43.4,33.6z"/>
		<path class="st4" d="M49.7,26.2l2.5,7.8c2.1-1.8,4.4-2.3,7.2-1.5l-2.7-8.4C53.9,24.2,51.6,25,49.7,26.2z"/>
		<path class="st4" d="M73,32.3L64.4,35c2.1,1.7,3.4,3.9,3.6,6.5l7.7-2.4C75.4,36.8,74.7,34.5,73,32.3z"/>
		<path class="st4" d="M66.9,54.3c1.6,0.9,3.6,0.4,5.3-2.9c0.8-1.5,1.6-3.2,2.2-5L66.1,49C64.9,51.3,65.3,53.4,66.9,54.3z"/>
	</g>
	<path class="st7" d="M36.4,56.5c-1.5,2.7-3.3,5.9-4.8,8.8l1.1,3.5c0.4-0.7,0.8-1.5,1.2-2.4c0.1-0.1,0.1-0.2,0.2-0.3
		c0.4-0.8,0.8-1.6,1.3-2.5c0,0,0-0.1,0.1-0.1c0.3-0.6,0.7-1.3,1-1.9c0.1-0.1,0.1-0.3,0.2-0.4c0.3-0.5,0.5-1,0.8-1.5L36.4,56.5z"/>
	<path class="st7" d="M45.8,38c-1.5,2.8-3.2,6.1-4.7,9.3l1,3.3c0.2-0.4,0.4-0.9,0.7-1.3c0,0,0,0,0,0c0.2-0.4,0.4-0.8,0.7-1.2
		c0.5-1,1-1.8,1.4-2.7c0.2-0.3,0.3-0.6,0.4-0.8c0.5-0.9,0.9-1.8,1.3-2.5c0.1-0.2,0.2-0.4,0.3-0.6L45.8,38z"/>
	<path class="st7" d="M51.3,31.2l0.9,2.8c1.9-1.6,3.8-2.1,6.1-1.7c0,0,0,0,0,0c0.3,0.1,0.7,0.1,1,0.2l0,0l-0.9-2.8
		C55.7,29.5,53.3,30.1,51.3,31.2z"/>
	<path class="st7" d="M67.9,33.9L64.4,35c0.2,0.2,0.4,0.4,0.7,0.6c0,0,0.1,0.1,0.1,0.1c0.2,0.2,0.4,0.4,0.6,0.6c0,0,0.1,0.1,0.1,0.1
		c0.2,0.2,0.3,0.4,0.5,0.6c0,0,0.1,0.1,0.1,0.1c0.2,0.2,0.3,0.5,0.4,0.7c0,0,0,0,0,0.1c0.1,0.3,0.3,0.5,0.4,0.8c0,0,0,0,0,0
		c0.1,0.3,0.2,0.6,0.3,0.9c0,0,0,0,0,0c0.2,0.6,0.3,1.2,0.3,1.9l2.7-0.8C70.8,38,69.8,35.8,67.9,33.9z"/>
	<path class="st7" d="M66.1,49c-0.6,1.2-0.8,2.3-0.6,3.2c0,0,0,0,0,0c0,0.2,0.1,0.4,0.2,0.6c0,0,0,0.1,0.1,0.1
		c0.1,0.2,0.2,0.3,0.3,0.5c0.1,0.1,0.1,0.1,0.2,0.2c0.1,0.1,0.2,0.2,0.3,0.3c0.1,0.1,0.3,0.2,0.5,0.3c0,0,0,0,0.1,0
		c0.2,0.1,0.4,0.2,0.6,0.2c0.1,0,0.2,0,0.3,0.1c0.1,0,0.2,0,0.3,0.1c0.1,0,0.3,0,0.4,0c0.1,0,0.2,0,0.2,0c0.1,0,0.3-0.1,0.4-0.1
		c0.1,0,0.1,0,0.2-0.1c0.2-0.1,0.3-0.1,0.5-0.2c0,0,0.1,0,0.1-0.1c0.2-0.1,0.3-0.2,0.5-0.4c0,0,0.1-0.1,0.1-0.1
		c0.2-0.2,0.4-0.4,0.5-0.6c0,0,0,0,0-0.1c0.2-0.2,0.4-0.5,0.6-0.8l0,0c-0.5-0.4-1.1-0.7-1.7-1c-1.2-0.6-1.4-1.7-1.2-3.1L66.1,49z"/>
	<g>
		<path class="st1" d="M32.6,69.5C32.6,69.5,32.6,69.5,32.6,69.5c-0.3,0-0.5-0.2-0.6-0.4l-2.8-9c0-0.2,0-0.3,0-0.5l4.8-9.1
			c0.1-0.2,0.4-0.4,0.6-0.3c0.3,0,0.5,0.2,0.5,0.4l2.8,9c0,0.2,0,0.3,0,0.5l-4.8,9.1C33.1,69.3,32.9,69.5,32.6,69.5z M30.5,59.9
			l2.3,7.3l3.9-7.5l-2.3-7.3L30.5,59.9z"/>
		<path class="st1" d="M42.1,51.2C42.1,51.2,42.1,51.2,42.1,51.2c-0.3,0-0.5-0.2-0.6-0.4l-2.8-9c0-0.2,0-0.3,0-0.5l4.1-7.9l0,0
			c0.2-0.4,0.4-0.8,0.7-1.2c0.1-0.2,0.4-0.3,0.6-0.3c0.2,0,0.5,0.2,0.5,0.4l2.8,9c0.1,0.2,0,0.3,0,0.5l-0.3,0.6l-4.5,8.6
			C42.6,51.1,42.4,51.2,42.1,51.2z M40,41.6l2.3,7.3l3.9-7.5l-2.3-7.3L40,41.6z"/>
		<path class="st1" d="M52.2,34.7c-0.1,0-0.1,0-0.2,0c-0.2-0.1-0.4-0.2-0.4-0.4l-2.5-7.8c-0.1-0.3,0-0.6,0.3-0.7
			c2.2-1.4,4.7-2.2,7.3-2.2c0,0,0,0,0,0c0.3,0,0.5,0.2,0.6,0.4l2.7,8.4c0.1,0.2,0,0.5-0.1,0.6c-0.2,0.2-0.4,0.2-0.6,0.2
			c-2.6-0.7-4.6-0.3-6.6,1.3C52.5,34.6,52.3,34.7,52.2,34.7z M50.5,26.5l2,6.5c1.8-1.3,3.7-1.7,5.9-1.3l-2.2-6.9
			C54.2,24.9,52.2,25.5,50.5,26.5z"/>
		<path class="st1" d="M67.9,42.2c-0.1,0-0.2,0-0.4-0.1c-0.2-0.1-0.3-0.3-0.3-0.5c-0.2-2.5-1.3-4.5-3.3-6.1
			c-0.2-0.1-0.3-0.4-0.2-0.6c0-0.2,0.2-0.4,0.4-0.5l8.7-2.7c0.3-0.1,0.5,0,0.7,0.2c1.6,2.1,2.5,4.5,2.7,7.2c0,0.3-0.2,0.6-0.4,0.6
			l-7.7,2.4C68.1,42.2,68,42.2,67.9,42.2z M65.6,35.3c1.5,1.5,2.5,3.3,2.8,5.4l6.4-2c-0.2-2-0.9-3.9-2.1-5.6L65.6,35.3z"/>
		<path class="st1" d="M68.4,55.3c-0.6,0-1.2-0.1-1.7-0.4c-2-1-2.5-3.5-1.1-6.1c0.1-0.2,0.2-0.3,0.4-0.3l8.3-2.6
			c0.2-0.1,0.5,0,0.6,0.2c0.2,0.2,0.2,0.4,0.1,0.6c-0.7,2.1-1.6,3.9-2.3,5.1c-0.9,1.6-1.8,2.7-2.9,3.3
			C69.4,55.2,68.9,55.3,68.4,55.3z M66.5,49.5c-0.9,1.9-0.6,3.5,0.7,4.2l0,0c0.7,0.4,1.4,0.4,2.1,0.1c0.8-0.4,1.6-1.3,2.4-2.7
			c0.5-0.9,1.1-2.2,1.7-3.7L66.5,49.5z"/>
	</g>
</g>
</svg>
