<?xml version="1.0" encoding="utf-8"?>
<!-- Generator: Adobe Illustrator 19.1.0, SVG Export Plug-In . SVG Version: 6.00 Build 0)  -->
<svg version="1.1" id="Layer_1" xmlns="http://www.w3.org/2000/svg" xmlns:xlink="http://www.w3.org/1999/xlink" x="0px" y="0px"
	 viewBox="0 0 100 100" style="enable-background:new 0 0 100 100;" xml:space="preserve">
<style type="text/css">
	.st0{fill:#F1F1F2;}
	.st1{fill:#640F13;}
	.st2{fill:#FCE8D0;}
	.st3{fill:#E6E7E8;}
	.st4{fill:#DB4342;}
	.st5{fill:#FACCAA;}
	.st6{fill:#FFFFFF;}
	.st7{fill:#C83D3C;}
	.st8{fill:#98CF97;}
	.st9{fill:#83B585;}
	.st10{fill:#E86363;}
	.st11{fill:#FFDF00;}
	.st12{fill:#FFF69D;}
	.st13{fill:#FFF5CA;}
	.st14{fill:#D0AF8B;}
	.st15{fill:#BC3839;}
	.st16{fill:#E8DEB9;}
	.st17{fill:#DFC0A9;}
	.st18{fill:#640F14;}
	.st19{fill:#BADDEE;}
	.st20{fill:#9DD3ED;}
	.st21{fill:#D17663;}
	.st22{fill:#839CC1;}
	.st23{fill:#E0D682;}
	.st24{fill:#E07B25;}
	.st25{fill:#77A9C3;}
	.st26{fill:#008BB3;}
	.st27{fill:#2385A5;}
	.st28{fill:#6CADCA;}
	.st29{fill:#DBDCDD;}
	.st30{fill:#7AB17B;}
	.st31{fill:#C3996B;}
	.st32{fill:#B18C62;}
	.st33{fill:#D7B492;}
	.st34{fill:#F27575;}
	.st35{fill:#992E34;}
	.st36{fill:#D0D2D3;}
	.st37{fill:#AE3334;}
	.st38{fill:#A9865E;}
	.st39{fill:#231F20;}
	.st40{fill:#FCC010;}
	.st41{fill:#F4EDB8;}
	.st42{fill:#E29E16;}
</style>
<g>
	<path class="st1" d="M63.4,18.6c-0.4-2.7-2.7-4.2-6.9-4.5C55.9,14,55.1,14,54.2,14c-1.9,0-4.1,0.2-6.3,0.5c-3.2,0.4-6.2,1.1-8.4,2
		c-3.9,1.5-5.7,3.6-5.4,6.2c0.4,2.7,2.7,4.2,6.9,4.5c0.7,0.1,1.5,0.1,2.4,0.1c1.9,0,4.1-0.2,6.3-0.5c3.2-0.4,6.2-1.1,8.4-2
		C62,23.3,63.8,21.3,63.4,18.6z"/>
	<path class="st1" d="M51.1,26.6c7.3,0,11.6,4.3,14.1,11.1l0,0c3.4-1.7,7.6-3.1,10.4-3.1c1.3,0,2.3,0.3,2.7,1.1
		c1.5,2.7-1,6.8-5.3,8.8c0,0,5,2.7,0.4,7.2c0,0,4.3,3.7-4,8c-0.8,0.4-1.6,0.7-2.4,1c1.4,1,2.6,1.8,3.8,2.4c2.5,1.4,3.2,4.7,1.4,6.9
		c-0.7,0.8-1.4,1.6-2.1,2.3l0,0c0,0,0,0,0,0c0,0,4.4,3.2,1.9,6c-0.4,0.5-1,0.7-1.6,0.7c-2.3,0-5.2-2.7-5.2-2.7l0,0c0,0,0,0,0,0
		c-0.7,0.4-1.3,0.8-2,1.2c0.1,0,0.1-0.1,0.1-0.1s4,6.4,0.3,7c-0.2,0-0.5,0.1-0.7,0.1c-3.5,0-6.5-4.3-6.5-4.3c-1,0.3-1.9,0.5-2.7,0.6
		c-0.4,0.1-0.8,0.1-1.2,0.1c-2.6,0-5-1.5-6.1-3.9c-2-4.6-3.1-8.7-3.4-12.5c-1.3,0.4-2.2,0.6-3.4,0.6c-0.7,0-1.5-0.1-2.5-0.3
		c-9.7-1.8-6.5-6.8-6.5-6.8c-6-3-3.1-7.3-3.1-7.3c-4.9-0.7-7.1-3.2-6.4-6.3c0.5-2.1,3.8-3.1,7.8-3.1c2.3,0,4.8,0.3,7.2,1v0
		c0.7-6.9,3.3-14.3,12.8-15.4C49.6,26.6,50.4,26.6,51.1,26.6 M51.1,24L51.1,24c-0.8,0-1.7,0-2.5,0.1c-8.1,0.9-13.1,5.9-14.7,14.8
		c-1.7-0.3-3.4-0.5-5-0.5c-5.8,0-9.5,1.9-10.3,5.1c-0.5,2-0.1,3.9,1,5.5c0.7,1.1,2.1,2.4,4.7,3.3c-0.1,0.7,0,1.5,0.2,2.3
		c0.4,1.7,1.5,3.1,3.1,4.3c-0.1,0.9-0.1,2,0.4,3.1c1.1,2.6,4,4.3,8.6,5.1c1.2,0.2,2.1,0.3,3,0.3c0.4,0,0.8,0,1.2-0.1
		c0.6,3.5,1.7,7,3.2,10.5c1.5,3.3,4.8,5.4,8.4,5.4c0.5,0,1.1-0.1,1.6-0.1c0.4-0.1,0.9-0.2,1.3-0.3c1.4,1.6,4.1,4,7.4,4
		c0.4,0,0.7,0,1.1-0.1c1.5-0.3,2.7-1.1,3.3-2.4c0.5-1.1,0.5-2.4,0.2-3.7c0.9,0.4,1.9,0.7,2.9,0.7c1.4,0,2.6-0.5,3.5-1.5
		c1.1-1.2,1.6-2.6,1.4-4.1c-0.1-1.4-0.9-2.7-1.6-3.7c0.2-0.2,0.4-0.4,0.6-0.7c1.3-1.6,1.8-3.7,1.5-5.8c-0.4-2-1.6-3.8-3.3-4.8
		c3-1.8,4.6-3.9,4.9-6.2c0.1-1.2-0.1-2.2-0.5-3c1.3-1.8,1.4-3.4,1.3-4.6c-0.1-0.9-0.4-1.6-0.8-2.3c1.9-1.5,3.3-3.4,3.9-5.3
		c0.6-1.9,0.4-3.7-0.4-5.2c-0.6-1.1-2-2.3-4.9-2.3c-3,0-6.6,1.3-9,2.3C63.3,27.5,58.1,24,51.1,24L51.1,24z"/>
	<g>
		<path class="st31" d="M45,48.7c0.5,0.3,1,0.5,1.5,0.7c3.1,1,6.3,0.7,8.9-0.8c1.7,2.5,3.4,4.5,5.1,6.4c0.1-0.1,7.7-6.9,5.2-15.4
			c-2.5-8.5-7.6-14-17-12.9c-10.6,1.2-12.7,10.2-13,17.6C35.5,51.8,42.6,58,42.6,58l0.1,0C43.1,54.2,44,51.1,45,48.7z"/>
		<path class="st1" d="M42.6,58.6c-0.2,0-0.3-0.1-0.4-0.2c-0.3-0.3-7.3-6.5-7-14.1C35.7,33,40.1,27,48.7,26.1
			c8.8-1,14.8,3.5,17.7,13.4c2.6,8.8-5.1,15.7-5.4,16c-0.3,0.2-0.6,0.2-0.9,0c-1.7-1.8-3.4-3.8-4.9-6c-2.8,1.4-6,1.6-8.9,0.6
			c-0.3-0.1-0.6-0.2-1-0.4c-1,2.7-1.7,5.5-2,8.4c0,0.3-0.2,0.5-0.5,0.6l-0.1,0C42.7,58.6,42.6,58.6,42.6,58.6z M51.1,27.2
			c-0.7,0-1.4,0-2.2,0.1c-7.9,0.9-12,6.5-12.4,17c-0.2,5.6,4,10.6,5.8,12.4c0.4-2.9,1.1-5.6,2.2-8.2c0.1-0.2,0.2-0.3,0.4-0.3
			c0.2-0.1,0.3,0,0.5,0c0.5,0.3,1,0.5,1.4,0.6c2.8,0.9,5.8,0.7,8.4-0.8c0.3-0.2,0.6-0.1,0.8,0.2c1.4,2.1,3,4,4.6,5.8
			c1.6-1.6,6.6-7.4,4.6-14.3C62.7,31.3,58.1,27.2,51.1,27.2z"/>
	</g>
	<path class="st11" d="M43.4,24.7c-0.8,0-1.5,0-2.2-0.1c-1.8-0.2-4.3-0.6-4.6-2.4c-0.2-1.8,2-2.9,3.8-3.5c2.1-0.8,4.9-1.4,7.9-1.8
		c3-0.4,5.9-0.5,8.1-0.4c1.8,0.2,4.3,0.6,4.6,2.4l0,0c0.2,1.8-2,2.9-3.8,3.5c-2.1,0.8-4.9,1.4-7.9,1.8
		C47.2,24.6,45.2,24.7,43.4,24.7z M39.7,21.9c1.4,0.3,4.6,0.6,9.3-0.1c4.7-0.6,7.7-1.7,9-2.4c-1.4-0.3-4.6-0.6-9.3,0.1
		C44,20.1,40.9,21.2,39.7,21.9z"/>
	<g>
		<path class="st2" d="M54.7,36.1c0,0-3.3,1.4-11.6,0.6c0,0-1.2,5.8,1.3,11.7c0.7,0.4,1.4,0.7,2.1,1c3.2,1.1,6.6,0.6,9.3-1
			C56.5,45.8,56.9,41.3,54.7,36.1z"/>
		<path class="st1" d="M50.1,50.6c-1.3,0-2.5-0.2-3.8-0.6c-0.8-0.3-1.5-0.6-2.2-1c-0.1-0.1-0.2-0.2-0.3-0.3
			c-2.5-6-1.4-11.8-1.4-12.1c0.1-0.3,0.4-0.5,0.7-0.5c8,0.8,11.2-0.6,11.3-0.6c0.2-0.1,0.3-0.1,0.5,0c0.2,0.1,0.3,0.2,0.3,0.3
			c2.3,5.3,1.9,9.8,1.2,12.7c0,0.2-0.1,0.3-0.3,0.4C54.3,50,52.2,50.6,50.1,50.6z M44.9,48c0.6,0.3,1.2,0.6,1.8,0.8
			c2.9,1,6,0.7,8.6-0.8c0.6-2.6,0.8-6.5-1-11.1c-1.3,0.4-4.6,1-10.7,0.5C43.4,39,43.1,43.4,44.9,48z"/>
	</g>
	<g>
		<path class="st0" d="M55.5,48.6c-2.6,1.5-5.8,1.8-8.9,0.8c-0.5-0.2-1-0.4-1.5-0.7c-2.4,5.8-4.4,15.6,1.2,28.1
			c1.2,2.8,4.3,4.4,7.3,3.8C58.4,79.7,66,77.2,72,69.8c1.8-2.2,1.1-5.5-1.4-6.9C66.7,60.7,60.8,56.4,55.5,48.6z"/>
		<path class="st1" d="M52.2,81.4c-2.8,0-5.4-1.6-6.6-4.3c-5.6-12.6-3.7-22.5-1.2-28.6c0.1-0.2,0.2-0.3,0.4-0.3c0.2-0.1,0.3,0,0.5,0
			c0.5,0.3,1,0.5,1.4,0.6c2.8,0.9,5.8,0.7,8.4-0.8c0.3-0.2,0.6-0.1,0.8,0.2c5.3,7.7,11.1,11.9,15,14.1c1.4,0.8,2.3,2.1,2.6,3.6
			c0.3,1.5-0.1,3-1.1,4.2c-6,7.3-13.6,10-18.9,11C53.1,81.3,52.7,81.4,52.2,81.4z M45.4,49.6c-2.3,5.9-3.8,15.2,1.4,27
			c1.1,2.5,3.9,4,6.6,3.5c5.1-0.9,12.4-3.5,18.1-10.6c0.7-0.9,1-2,0.8-3.2c-0.2-1.2-0.9-2.2-2-2.8c-3.9-2.2-9.7-6.5-15.1-14.1
			c-2.8,1.4-6,1.6-8.9,0.6C46,49.9,45.7,49.8,45.4,49.6z"/>
	</g>
	<g>
		<g>
			<path class="st13" d="M78.2,35.5c-1.4-2.4-8-0.4-13,2.1c0.2,0.6,0.5,1.3,0.7,2c2.5,8.5-5.1,15.3-5.2,15.4
				c2.2,2.3,4.3,4.1,6.3,5.6c0.8-0.3,1.6-0.6,2.5-1c8.3-4.3,4-8,4-8c4.6-4.4-0.4-7.2-0.4-7.2C77.2,42.4,79.7,38.2,78.2,35.5z"/>
			<path class="st1" d="M66.8,61.1c-0.1,0-0.3,0-0.4-0.1c-2.2-1.6-4.3-3.5-6.3-5.6c-0.1-0.1-0.2-0.3-0.2-0.5c0-0.2,0.1-0.3,0.2-0.4
				c0.1-0.1,7.4-6.7,5.1-14.7c-0.2-0.7-0.4-1.3-0.6-1.9c-0.1-0.3,0-0.6,0.3-0.8c4.3-2.1,12.1-4.9,13.9-1.8v0
				c0.6,1.1,0.7,2.3,0.3,3.7c-0.7,2.1-2.5,4.2-4.9,5.5c0.7,0.6,1.5,1.6,1.7,2.9c0.2,1.4-0.4,2.8-1.7,4.2c0.4,0.6,1,1.6,0.9,2.9
				c-0.2,2-2.1,3.9-5.4,5.6c-0.8,0.4-1.6,0.7-2.6,1C67,61.1,66.9,61.1,66.8,61.1z M61.5,55c1.8,1.8,3.6,3.4,5.5,4.8
				c0.8-0.3,1.4-0.5,2.1-0.9c2.9-1.5,4.6-3.1,4.8-4.7c0.2-1.4-0.9-2.3-0.9-2.3c-0.1-0.1-0.2-0.3-0.2-0.5c0-0.2,0.1-0.3,0.2-0.5
				c1.3-1.2,1.9-2.4,1.7-3.5c-0.2-1.6-2-2.6-2-2.6c-0.2-0.1-0.3-0.3-0.3-0.6c0-0.2,0.1-0.4,0.4-0.5c2.5-1.1,4.5-3.2,5.2-5.2
				c0.2-0.7,0.4-1.7-0.2-2.7v0c-0.9-1.5-6.1-0.6-11.7,2.1c0.2,0.5,0.3,1,0.5,1.5C68.7,47,63.2,53.3,61.5,55z"/>
		</g>
	</g>
	<g>
		<g>
			<path class="st13" d="M42.8,57.4c0,0.2-0.1,0.4-0.1,0.6l-0.1,0c0,0-7.1-6.2-6.8-13.6c0-0.8,0.1-1.5,0.2-2.3
				c-6.7-1.9-14.3-1.1-15,2.1c-0.7,3.1,1.5,5.6,6.4,6.3c0,0-2.9,4.3,3.1,7.3c0,0-3.2,5.1,6.5,6.8c2.7,0.5,3.8,0.3,5.9-0.3
				C42.5,61.8,42.6,59.5,42.8,57.4z"/>
			<path class="st1" d="M39.4,65.5c-0.7,0-1.6-0.1-2.6-0.3c-3.9-0.7-6.3-2.1-7.2-4c-0.6-1.3-0.3-2.5,0-3.2c-1.9-1.1-3-2.4-3.4-3.9
				c-0.3-1.3,0-2.4,0.2-3.2c-2.5-0.5-4.4-1.5-5.4-3c-0.8-1.1-1-2.5-0.7-4c0.2-0.9,0.8-1.7,1.8-2.3c2.9-1.7,8.6-1.8,14-0.3
				c0.3,0.1,0.5,0.4,0.5,0.7c-0.1,0.8-0.1,1.5-0.2,2.3c-0.2,5.8,4.3,10.9,5.9,12.5c0.1-0.1,0.3-0.2,0.5-0.2c0.3,0,0.6,0.3,0.6,0.7v0
				l0,0c-0.3,2.3-0.3,4.6,0,6.8c0,0.3-0.2,0.6-0.5,0.7C41.7,65.3,40.7,65.5,39.4,65.5z M28.8,41.7c-2.5,0-4.6,0.4-6,1.2
				c-0.7,0.4-1.1,0.9-1.2,1.5c-0.3,1.1-0.1,2.1,0.5,3c0.9,1.3,2.8,2.2,5.4,2.6c0.2,0,0.4,0.2,0.5,0.4c0.1,0.2,0.1,0.4-0.1,0.6
				c0,0-0.9,1.4-0.5,3c0.3,1.3,1.5,2.5,3.3,3.4c0.2,0.1,0.3,0.2,0.3,0.4c0,0.2,0,0.4-0.1,0.5c0,0-0.8,1.3-0.2,2.6
				c0.7,1.5,2.8,2.6,6.3,3.3c2.4,0.4,3.5,0.3,5.1-0.2c-0.2-1.8-0.2-3.7,0-5.5c-0.9-0.8-7.2-6.8-6.9-14.1c0-0.6,0.1-1.2,0.1-1.8
				C33.1,41.9,30.9,41.7,28.8,41.7z"/>
		</g>
	</g>
	<circle class="st1" cx="46.1" cy="41" r="1.3"/>
	<circle class="st1" cx="52.4" cy="41" r="1.3"/>
	<path class="st1" d="M49.8,47.6c-2.3,0-2.9-1.6-3-1.7c-0.1-0.3,0-0.7,0.4-0.8c0.3-0.1,0.7,0,0.8,0.4c0,0.1,0.4,0.9,1.8,0.9
		c1.4,0,1.8-0.9,1.8-0.9c0.1-0.3,0.5-0.5,0.8-0.3c0.3,0.1,0.5,0.5,0.4,0.8C52.7,45.9,52,47.6,49.8,47.6z"/>
	<g>
		<path class="st2" d="M56.2,80c0,0,3.4,4.9,7.1,4.3c3.8-0.6-0.3-7-0.3-7S58.9,79.4,56.2,80z"/>
		<path class="st1" d="M62.6,85c-3.8,0-6.8-4.4-7-4.6c-0.1-0.2-0.1-0.4-0.1-0.6c0.1-0.2,0.2-0.3,0.4-0.4c2.6-0.6,6.7-2.7,6.7-2.7
			c0.3-0.2,0.6-0.1,0.8,0.2c0.3,0.4,2.7,4.4,1.7,6.6c-0.2,0.5-0.7,1.2-1.9,1.4C63.1,85,62.9,85,62.6,85z M57.2,80.4
			c1,1.3,3.4,3.7,6,3.3c0.7-0.1,0.9-0.4,1-0.6c0.5-1.1-0.5-3.4-1.4-5C61.7,78.6,59.3,79.8,57.2,80.4z"/>
	</g>
	<g>
		<path class="st2" d="M69.9,72.2C69.8,72.2,69.8,72.2,69.9,72.2c-1.6,1.6-3.3,2.9-4.9,4l0,0c0,0,4.7,4.3,6.8,2
			C74.2,75.4,69.9,72.2,69.9,72.2z"/>
		<path class="st1" d="M70.1,79.4c-2.5,0-5.5-2.7-5.6-2.8c-0.1-0.1-0.2-0.3-0.2-0.5c0-0.2,0.1-0.4,0.3-0.5c1.7-1.1,3.4-2.4,4.8-3.9
			c0.2-0.2,0.4-0.2,0.6-0.2c0.1,0,0.1,0,0.2,0.1c0,0,0,0,0,0c0.1,0.1,2.7,2,2.9,4.3c0.1,1-0.2,1.8-0.9,2.6
			C71.6,79.2,70.9,79.4,70.1,79.4z M66,76.2c1.3,1,4,2.9,5.3,1.5c0.5-0.5,0.7-1,0.6-1.6c-0.1-1.2-1.2-2.4-2-3.1
			C68.7,74.2,67.3,75.3,66,76.2z"/>
	</g>
	<ellipse transform="matrix(0.9369 0.3495 -0.3495 0.9369 10.31 -12.0177)" class="st6" cx="38.5" cy="22.6" rx="0.9" ry="0.6"/>
	<ellipse class="st6" cx="28.6" cy="45.6" rx="3.2" ry="1.8"/>
	<ellipse class="st6" cx="32.8" cy="53.2" rx="2.6" ry="2.2"/>
	<ellipse class="st6" cx="37.4" cy="60.3" rx="2" ry="1.6"/>
	<ellipse transform="matrix(0.9495 -0.3139 0.3139 0.9495 -9.0805 24.403)" class="st6" cx="71.2" cy="40.4" rx="3.1" ry="2"/>
	<ellipse class="st6" cx="69.6" cy="48.1" rx="2.3" ry="2"/>
	<ellipse transform="matrix(0.9758 -0.2185 0.2185 0.9758 -10.3549 16.2174)" class="st6" cx="68.1" cy="54.9" rx="2.4" ry="1.7"/>
	<g>
		<path class="st2" d="M46,62.1c0,0,3.3-0.4,4.4-2.3c0,0,2.9,4.5,1.3,5.8S47.2,64.9,46,62.1z"/>
		<path class="st1" d="M50.5,66.6c-0.3,0-0.6,0-0.9-0.1c-1.7-0.5-3.4-2.1-4.2-4.1c-0.1-0.2-0.1-0.4,0-0.6c0.1-0.2,0.3-0.3,0.5-0.3
			c0.8-0.1,3.2-0.7,3.9-2c0.1-0.2,0.3-0.3,0.5-0.3c0.2,0,0.4,0.1,0.5,0.3c0.5,0.8,3.2,5.1,1.2,6.6C51.7,66.4,51.1,66.6,50.5,66.6z
			 M47,62.6c0.7,1.3,1.9,2.4,3,2.7c0.6,0.1,1,0.1,1.4-0.2c0.6-0.5-0.1-2.5-1-4.2C49.4,61.9,47.9,62.3,47,62.6z"/>
	</g>
	<g>
		<path class="st2" d="M54.1,58.5c0,0,3.3,0.7,5-1.5c0,0,1.2,6-1.6,6.4C54.8,63.9,54.1,58.5,54.1,58.5z"/>
		<path class="st1" d="M57.1,64.1c-0.5,0-1-0.2-1.4-0.5c-1.7-1.3-2.2-4.6-2.3-5c0-0.2,0-0.4,0.2-0.5c0.1-0.1,0.4-0.2,0.6-0.2
			c0,0,2.9,0.6,4.3-1.3c0.2-0.2,0.4-0.3,0.6-0.2c0.2,0.1,0.4,0.2,0.5,0.5c0.1,0.4,0.8,4.2-0.5,6.1c-0.4,0.6-0.9,0.9-1.6,1
			C57.4,64.1,57.3,64.1,57.1,64.1z M54.8,59.3c0.3,1.1,0.8,2.8,1.6,3.4c0.3,0.2,0.5,0.3,0.9,0.2c0.3-0.1,0.6-0.2,0.8-0.5
			c0.6-0.9,0.6-2.7,0.5-4C57.3,59.2,55.8,59.3,54.8,59.3z"/>
	</g>
	<path class="st29" d="M70.6,62.9c-0.6-0.3-3.1-2-3.8-2.4c-1,1.4-0.6,3.2,0.4,5.5c1.4,3.1-3.2,5.4-4.6,3.8c-1.9-2.3-5.5-2-6,1.5
		c-0.5,3.5-2.6,5.4-6.9,4.3c-4.4-1.2-5.4-4.1-5.4-4.1s0,0-0.1,0c0.5,1.7,1.2,3.5,2,5.4c1.2,2.8,4.3,4.4,7.3,3.8
		C58.4,79.7,66,77.2,72,69.8C73.8,67.6,73.1,64.3,70.6,62.9z"/>
	<path class="st1" d="M52.2,81.4c-2.8,0-5.4-1.6-6.6-4.3c-5.6-12.6-3.7-22.5-1.2-28.6c0.1-0.2,0.2-0.3,0.4-0.3c0.2-0.1,0.3,0,0.5,0
		c0.5,0.3,1,0.5,1.4,0.6c2.8,0.9,5.8,0.7,8.4-0.8c0.3-0.2,0.6-0.1,0.8,0.2c5.3,7.7,11.1,11.9,15,14.1c1.4,0.8,2.3,2.1,2.6,3.6
		c0.3,1.5-0.1,3-1.1,4.2c-6,7.3-13.6,10-18.9,11C53.1,81.3,52.7,81.4,52.2,81.4z M45.4,49.6c-2.3,5.9-3.8,15.2,1.4,27
		c1.1,2.5,3.9,4,6.6,3.5c5.1-0.9,12.4-3.5,18.1-10.6c0.7-0.9,1-2,0.8-3.2c-0.2-1.2-0.9-2.2-2-2.8c-3.9-2.2-9.7-6.5-15.1-14.1
		c-2.8,1.4-6,1.6-8.9,0.6C46,49.9,45.7,49.8,45.4,49.6z"/>
	<path class="st32" d="M39.3,41.6c0,0,0.1,5.9,5.7,7.2l-2.3,9.2C42.7,57.9,32.5,50,39.3,41.6z"/>
	<path class="st32" d="M55.5,48.6c0,0,5.1-1.9,4.7-10.3c0,0,7.3,5.9,3.8,11.3C60.6,55,60.6,55,60.6,55L55.5,48.6z"/>
	<path class="st1" d="M42.6,58.6c-0.2,0-0.3-0.1-0.4-0.2c-0.3-0.3-7.3-6.5-7-14.1C35.7,33,40.1,27,48.7,26.1
		c8.8-1,14.8,3.5,17.7,13.4c2.6,8.8-5.1,15.7-5.4,16c-0.3,0.2-0.6,0.2-0.9,0c-1.7-1.8-3.4-3.8-4.9-6c-2.8,1.4-6,1.6-8.9,0.6
		c-0.3-0.1-0.6-0.2-1-0.4c-1,2.7-1.7,5.5-2,8.4c0,0.3-0.2,0.5-0.5,0.6l-0.1,0C42.7,58.6,42.6,58.6,42.6,58.6z M51.1,27.2
		c-0.7,0-1.4,0-2.2,0.1c-7.9,0.9-12,6.5-12.4,17c-0.2,5.6,4,10.6,5.8,12.4c0.4-2.9,1.1-5.6,2.2-8.2c0.1-0.2,0.2-0.3,0.4-0.3
		c0.2-0.1,0.3,0,0.5,0c0.5,0.3,1,0.5,1.4,0.6c2.8,0.9,5.8,0.7,8.4-0.8c0.3-0.2,0.6-0.1,0.8,0.2c1.4,2.1,3,4,4.6,5.8
		c1.6-1.6,6.6-7.4,4.6-14.3C62.7,31.3,58.1,27.2,51.1,27.2z"/>
	<path class="st1" d="M50.1,50.6c-1.3,0-2.5-0.2-3.8-0.6c-0.8-0.3-1.5-0.6-2.2-1c-0.1-0.1-0.2-0.2-0.3-0.3c-2.5-6-1.4-11.8-1.4-12.1
		c0.1-0.3,0.4-0.5,0.7-0.5c8,0.8,11.2-0.6,11.3-0.6c0.2-0.1,0.3-0.1,0.5,0c0.2,0.1,0.3,0.2,0.3,0.3c2.3,5.3,1.9,9.8,1.2,12.7
		c0,0.2-0.1,0.3-0.3,0.4C54.3,50,52.2,50.6,50.1,50.6z M44.9,48c0.6,0.3,1.2,0.6,1.8,0.8c2.9,1,6,0.7,8.6-0.8
		c0.6-2.6,0.8-6.5-1-11.1c-1.3,0.4-4.6,1-10.7,0.5C43.4,39,43.1,43.4,44.9,48z"/>
	<ellipse transform="matrix(0.8943 -0.4475 0.4475 0.8943 -9.2459 23.9358)" class="st33" cx="46" cy="31.5" rx="3.5" ry="1.5"/>
</g>
</svg>
