<?xml version="1.0" encoding="utf-8"?>
<!-- Generator: Adobe Illustrator 19.1.0, SVG Export Plug-In . SVG Version: 6.00 Build 0)  -->
<svg version="1.1" id="Layer_1" xmlns="http://www.w3.org/2000/svg" xmlns:xlink="http://www.w3.org/1999/xlink" x="0px" y="0px"
	 viewBox="0 0 100 100" style="enable-background:new 0 0 100 100;" xml:space="preserve">
<style type="text/css">
	.st0{fill:#F1F1F2;}
	.st1{fill:#640F13;}
	.st2{fill:#FCE8D0;}
	.st3{fill:#E6E7E8;}
	.st4{fill:#DB4342;}
	.st5{fill:#FACCAA;}
	.st6{fill:#FFFFFF;}
	.st7{fill:#C83D3C;}
	.st8{fill:#98CF97;}
	.st9{fill:#83B585;}
	.st10{fill:#E86363;}
	.st11{fill:#FFDF00;}
	.st12{fill:#FFF69D;}
	.st13{fill:#FFF5CA;}
	.st14{fill:#D0AF8B;}
	.st15{fill:#BC3839;}
	.st16{fill:#E8DEB9;}
	.st17{fill:#DFC0A9;}
	.st18{fill:#640F14;}
	.st19{fill:#BADDEE;}
	.st20{fill:#9DD3ED;}
	.st21{fill:#D17663;}
	.st22{fill:#839CC1;}
	.st23{fill:#E0D682;}
	.st24{fill:#E07B25;}
	.st25{fill:#77A9C3;}
	.st26{fill:#008BB3;}
	.st27{fill:#2385A5;}
	.st28{fill:#6CADCA;}
	.st29{fill:#DBDCDD;}
	.st30{fill:#7AB17B;}
	.st31{fill:#C3996B;}
	.st32{fill:#B18C62;}
	.st33{fill:#D7B492;}
	.st34{fill:#F27575;}
	.st35{fill:#992E34;}
	.st36{fill:#D0D2D3;}
	.st37{fill:#AE3334;}
	.st38{fill:#A9865E;}
	.st39{fill:#231F20;}
	.st40{fill:#FCC010;}
	.st41{fill:#F4EDB8;}
	.st42{fill:#E29E16;}
</style>
<g>
	<path class="st1" d="M39.3,23.3c2.3,0,4.5,1.6,5.1,3.9c0.6,2.1-0.2,4.3-1.9,5.6c-0.1,0.1-0.1,0.3,0,0.5c0.6-0.1,1.3-0.2,2-0.2
		c0,0,0,0,0,0c5.8,0,10.7,4.2,12.2,9.7c2.1,7.4,6.1,12.5,9.8,15.8c2.6,2.3,1.7,6.7-1.7,7.6l-16.7,4.5c0.8,2.8-0.9,5.8-3.7,6.5
		c-0.5,0.1-0.9,0.2-1.4,0.2c-2.3,0-4.5-1.6-5.1-3.9l-1.8,0.5c-0.4,0.1-0.8,0.2-1.2,0.2c-2.8,0-5.1-2.8-4.2-5.7
		C33.9,58.3,32,49.4,32,49.4c-1.7-6.1,1.4-12.4,7-15c-0.1-0.3-0.2-0.5-0.2-0.5c-2.1-0.2-4-1.7-4.6-3.9c-0.8-2.8,0.9-5.8,3.7-6.5
		C38.4,23.4,38.8,23.3,39.3,23.3 M39.3,20.8L39.3,20.8c-0.7,0-1.4,0.1-2.1,0.3c-2,0.5-3.7,1.8-4.7,3.7c-1,1.8-1.3,3.9-0.8,5.9
		c0.4,1.5,1.3,2.9,2.5,3.9c-4.3,3.8-6.2,9.7-4.7,15.4c0.1,0.7,1.6,8.7-1.1,17.9c-0.6,2.1-0.2,4.3,1.1,6.1c1.3,1.8,3.4,2.8,5.5,2.8
		c0.5,0,1-0.1,1.6-0.2c1.4,2.1,3.8,3.5,6.5,3.5c0.7,0,1.4-0.1,2.1-0.3c2-0.5,3.7-1.8,4.7-3.7c0.6-1.1,1-2.2,1-3.4l14.7-4
		c2.5-0.7,4.3-2.6,4.9-5.1c0.6-2.5-0.2-5.1-2.1-6.8c-4.4-4-7.5-8.9-9.1-14.6c-1.7-6.1-6.6-10.5-12.5-11.4c0.4-1.4,0.4-2.8,0-4.3
		C45.9,23.2,42.8,20.8,39.3,20.8L39.3,20.8L39.3,20.8z"/>
	<g>
		<circle class="st11" cx="39.3" cy="28.6" r="5.3"/>
		<path class="st1" d="M39.3,34.6c-2.6,0-5-1.7-5.7-4.4c-0.4-1.5-0.2-3.1,0.6-4.5c0.8-1.4,2.1-2.4,3.6-2.8c1.5-0.4,3.1-0.2,4.5,0.6
			c1.4,0.8,2.4,2.1,2.8,3.6l0,0c0.9,3.2-1,6.4-4.2,7.3C40.3,34.5,39.8,34.6,39.3,34.6z M39.3,23.9c-0.4,0-0.8,0.1-1.2,0.2
			c-1.2,0.3-2.2,1.1-2.8,2.2c-0.6,1.1-0.8,2.3-0.5,3.6c0.7,2.5,3.3,4,5.7,3.3c1.2-0.3,2.2-1.1,2.8-2.2c0.6-1.1,0.8-2.3,0.5-3.6l0,0
			c-0.3-1.2-1.1-2.2-2.2-2.8C40.9,24.1,40.1,23.9,39.3,23.9z"/>
	</g>
	<g>
		<path class="st11" d="M56.8,42.9c-1.6-5.6-6.5-9.8-12.3-9.7c-8.9,0-14.7,8.3-12.6,16.2c0,0,1.9,8.9-1.2,19.2c-1,3.3,2,6.4,5.4,5.5
			l28.7-7.8c3.4-0.9,4.4-5.2,1.7-7.6C63,55.4,58.9,50.3,56.8,42.9z"/>
		<path class="st1" d="M35,74.9c-1.3,0-2.6-0.5-3.6-1.5c-1.3-1.3-1.7-3.2-1.2-5c3-10,1.2-18.8,1.2-18.9c-1.1-4-0.3-8.3,2.3-11.7
			c2.6-3.4,6.5-5.3,10.9-5.3c0,0,0,0,0,0c5.9,0,11.2,4.2,12.8,10.2l0,0c1.7,6.1,4.9,11.3,9.6,15.5c1.4,1.3,2,3.1,1.6,5
			c-0.4,1.8-1.8,3.2-3.6,3.7l-28.7,7.8C35.9,74.8,35.4,74.9,35,74.9z M44.6,33.8C44.6,33.8,44.6,33.8,44.6,33.8
			c-4,0-7.6,1.8-9.9,4.8c-2.3,3-3.1,6.9-2.1,10.6c0.1,0.4,1.9,9.2-1.2,19.5c-0.4,1.3-0.1,2.7,0.9,3.7c1,1,2.4,1.4,3.7,1l28.7-7.8
			c1.4-0.4,2.4-1.4,2.7-2.8c0.3-1.4-0.1-2.8-1.2-3.7c-4.9-4.4-8.3-9.8-10-16.1l0,0C54.7,37.6,49.9,33.8,44.6,33.8z"/>
	</g>
	<g>
		<circle class="st0" cx="39.3" cy="28.6" r="2.3"/>
		<path class="st1" d="M39.3,31.5c-0.5,0-1-0.1-1.4-0.4c-0.7-0.4-1.2-1-1.4-1.8c-0.2-0.8-0.1-1.5,0.3-2.2c0.4-0.7,1-1.2,1.8-1.4
			c0.8-0.2,1.5-0.1,2.2,0.3c0.7,0.4,1.2,1,1.4,1.8c0.2,0.8,0.1,1.5-0.3,2.2c-0.4,0.7-1,1.2-1.8,1.4C39.8,31.5,39.5,31.5,39.3,31.5z
			 M39.3,27c-0.1,0-0.3,0-0.4,0.1c-0.9,0.2-1.4,1.2-1.2,2c0.2,0.9,1.2,1.4,2,1.2c0.9-0.2,1.4-1.2,1.2-2C40.7,27.5,40,27,39.3,27z"/>
	</g>
	<g>
		<line class="st30" x1="35.9" y1="65.4" x2="60.8" y2="58.6"/>
		<path class="st1" d="M35.9,66c-0.3,0-0.5-0.2-0.6-0.5c-0.1-0.3,0.1-0.7,0.4-0.8L60.6,58c0.3-0.1,0.7,0.1,0.8,0.4
			c0.1,0.3-0.1,0.7-0.4,0.8L36,66C36,66,35.9,66,35.9,66z"/>
	</g>
	<g>
		<path class="st40" d="M48.2,70.8l-10.3,2.8l0,0c0.8,2.8,3.7,4.5,6.5,3.7C47.3,76.6,49,73.7,48.2,70.8L48.2,70.8z"/>
		<path class="st1" d="M43.1,78.2c-1,0-2-0.3-2.9-0.8c-1.4-0.8-2.4-2.1-2.8-3.6c0-0.2,0-0.3,0.1-0.5c0.1-0.1,0.2-0.3,0.4-0.3
			L48,70.2c0.3-0.1,0.7,0.1,0.8,0.4c0.4,1.5,0.2,3.1-0.6,4.5s-2.1,2.4-3.6,2.8C44.1,78.1,43.6,78.2,43.1,78.2z M38.8,74.1
			c0.4,0.9,1.1,1.7,2,2.2c1.1,0.6,2.4,0.8,3.6,0.5c1.2-0.3,2.2-1.1,2.8-2.2c0.5-0.9,0.7-1.9,0.6-2.9L38.8,74.1z"/>
	</g>
	<ellipse transform="matrix(0.994 0.1091 -0.1091 0.994 5.033 -3.9247)" class="st41" cx="38.4" cy="44" rx="3.5" ry="5"/>
	<ellipse transform="matrix(0.7192 -0.6948 0.6948 0.7192 -39.1954 44.0219)" class="st41" cx="34.9" cy="70.5" rx="1.2" ry="1.8"/>
	<ellipse transform="matrix(0.1833 -0.9831 0.9831 0.1833 -38.921 103.5562)" class="st42" cx="42.9" cy="75.2" rx="1.2" ry="1.7"/>
</g>
</svg>
