<?xml version="1.0" encoding="utf-8"?>
<!-- Generator: Adobe Illustrator 19.1.0, SVG Export Plug-In . SVG Version: 6.00 Build 0)  -->
<svg version="1.1" id="Layer_1" xmlns="http://www.w3.org/2000/svg" xmlns:xlink="http://www.w3.org/1999/xlink" x="0px" y="0px"
	 viewBox="0 0 100 100" style="enable-background:new 0 0 100 100;" xml:space="preserve">
<style type="text/css">
	.st0{fill:#F1F1F2;}
	.st1{fill:#640F13;}
	.st2{fill:#FCE8D0;}
	.st3{fill:#E6E7E8;}
	.st4{fill:#DB4342;}
	.st5{fill:#FACCAA;}
	.st6{fill:#FFFFFF;}
	.st7{fill:#C83D3C;}
	.st8{fill:#98CF97;}
	.st9{fill:#83B585;}
	.st10{fill:#E86363;}
	.st11{fill:#FFDF00;}
	.st12{fill:#FFF69D;}
	.st13{fill:#FFF5CA;}
	.st14{fill:#D0AF8B;}
	.st15{fill:#BC3839;}
	.st16{fill:#E8DEB9;}
	.st17{fill:#DFC0A9;}
	.st18{fill:#640F14;}
	.st19{fill:#BADDEE;}
	.st20{fill:#9DD3ED;}
	.st21{fill:#D17663;}
	.st22{fill:#839CC1;}
	.st23{fill:#E0D682;}
	.st24{fill:#E07B25;}
	.st25{fill:#77A9C3;}
	.st26{fill:#008BB3;}
	.st27{fill:#2385A5;}
	.st28{fill:#6CADCA;}
	.st29{fill:#DBDCDD;}
	.st30{fill:#7AB17B;}
	.st31{fill:#C3996B;}
	.st32{fill:#B18C62;}
	.st33{fill:#D7B492;}
	.st34{fill:#F27575;}
	.st35{fill:#992E34;}
	.st36{fill:#D0D2D3;}
	.st37{fill:#AE3334;}
	.st38{fill:#A9865E;}
	.st39{fill:#231F20;}
	.st40{fill:#FCC010;}
	.st41{fill:#F4EDB8;}
	.st42{fill:#E29E16;}
</style>
<g>
	<g>
		<path class="st4" d="M68.8,43.9c-2.1-2.9-4.4-6.6-6.5-9.9c-0.5,0.6-1,1.1-1.6,1.6c-2.8,2-7.1,4.8-12.7,8c-3.1,1.8-5.4,2.5-7.3,2.4
			c1,1.7,1.9,3.2,2.6,4.2c2,3.1,0.6,9.8-4.9,13c-5.6,3.1-4.1,9.6-0.1,13.9c4.1,4.4,8.4,4.1,16.4-1.1c8.1-5.2,11.2-7,15.6-10.3
			C77.4,60.3,73.1,49.8,68.8,43.9z"/>
		<path class="st1" d="M44.4,80.8c-2.5,0-4.6-1.1-6.6-3.3c-2.8-3-4.1-6.5-3.6-9.6c0.3-2.2,1.7-4.1,3.9-5.3c2.6-1.5,4.5-3.9,5.2-6.8
			c0.5-2,0.3-4-0.5-5.3c-0.6-1-1.6-2.5-2.6-4.2c-0.1-0.2-0.1-0.4,0-0.6c0.1-0.2,0.3-0.3,0.5-0.3h0c0,0,0,0,0,0c1.9,0,4.1-0.8,7-2.4
			c4.4-2.5,8.6-5.1,12.6-7.9c0.6-0.4,1.1-0.9,1.5-1.4c0.1-0.2,0.3-0.3,0.5-0.2c0.2,0,0.4,0.1,0.5,0.3c2.2,3.4,4.4,7,6.5,9.8
			c4.1,5.7,9.1,16.8,1.3,22.7c-3.5,2.7-6.2,4.4-11.5,7.8L55,76.6C50.6,79.4,47.2,80.8,44.4,80.8z M41.8,46.6c0.8,1.3,1.5,2.5,2,3.3
			c1,1.6,1.2,3.9,0.6,6.3c-0.8,3.2-2.9,5.9-5.8,7.6c-1.9,1.1-3,2.5-3.3,4.4c-0.4,2.6,0.9,5.9,3.3,8.5c3.8,4.1,7.8,3.9,15.6-1.2
			l4.1-2.6c5.3-3.4,8-5.1,11.5-7.7c7-5.3,2.3-15.6-1.5-20.9c-1.9-2.6-4-5.9-6.1-9.2c-0.4,0.4-0.8,0.7-1.2,1c-4,2.8-8.3,5.5-12.7,8
			C45.8,45.6,43.7,46.4,41.8,46.6z"/>
	</g>
	<path class="st15" d="M54,71.6C46.6,76,40.4,75.4,38.7,72c-1.3-2.6-2.4-5.5-2.8-6.7c-2.5,3.4-0.9,8.3,2.3,11.8
		c4.1,4.4,8.4,4.1,16.4-1.1c7.1-4.5,10.4-6.5,14-9.2C68.7,66.9,61.4,67.2,54,71.6z"/>
	<path class="st1" d="M44.4,80.8c-2.5,0-4.6-1.1-6.6-3.3c-2.8-3-4.1-6.5-3.6-9.6c0.3-2.2,1.7-4.1,3.9-5.3c2.6-1.5,4.5-3.9,5.2-6.8
		c0.5-2,0.3-4-0.5-5.3c-0.6-1-1.6-2.5-2.6-4.2c-0.1-0.2-0.1-0.4,0-0.6c0.1-0.2,0.3-0.3,0.5-0.3h0c0,0,0,0,0,0c1.9,0,4.1-0.8,7-2.4
		c4.4-2.5,8.6-5.1,12.6-7.9c0.6-0.4,1.1-0.9,1.5-1.4c0.1-0.2,0.3-0.3,0.5-0.2c0.2,0,0.4,0.1,0.5,0.3c2.2,3.4,4.4,7,6.5,9.8
		c4.1,5.7,9.1,16.8,1.3,22.7c-3.5,2.7-6.2,4.4-11.5,7.8L55,76.6C50.6,79.4,47.2,80.8,44.4,80.8z M41.8,46.6c0.8,1.3,1.5,2.5,2,3.3
		c1,1.6,1.2,3.9,0.6,6.3c-0.8,3.2-2.9,5.9-5.8,7.6c-1.9,1.1-3,2.5-3.3,4.4c-0.4,2.6,0.9,5.9,3.3,8.5c3.8,4.1,7.8,3.9,15.6-1.2
		l4.1-2.6c5.3-3.4,8-5.1,11.5-7.7c7-5.3,2.3-15.6-1.5-20.9c-1.9-2.6-4-5.9-6.1-9.2c-0.4,0.4-0.8,0.7-1.2,1c-4,2.8-8.3,5.5-12.7,8
		C45.8,45.6,43.7,46.4,41.8,46.6z"/>
	<path class="st1" d="M53.4,17.1c1.7,0,3.4,0.5,4.4,2c1.5,2.1,1.5,5.1,4.4,8.3c2,2.1,1.6,4.7,0.1,6.7l0,0c2.1,3.3,4.4,7,6.5,9.9
		c0.9,1.3,1.8,2.7,2.7,4.3l0,0c0.7,1.4,1.3,2.8,1.8,4.3c0,0.1,0.1,0.3,0.1,0.4c0.1,0.3,0.2,0.6,0.2,0.8c0,0.2,0.1,0.4,0.1,0.6
		c0.1,0.3,0.1,0.5,0.2,0.8c0.1,0.3,0.1,0.7,0.1,1c0,0.2,0,0.5,0.1,0.7c0,0.3,0,0.6,0,0.9c0,0.2,0,0.4,0,0.5c0,0.3,0,0.5-0.1,0.8
		c0,0.2,0,0.3-0.1,0.5c-0.1,0.3-0.1,0.6-0.2,1c0,0.1,0,0.2-0.1,0.3c-0.1,0.4-0.3,0.8-0.5,1.2c0,0.1-0.1,0.2-0.2,0.3
		c-0.1,0.3-0.3,0.6-0.5,0.9c-0.1,0.1-0.2,0.3-0.3,0.4c-0.2,0.3-0.4,0.5-0.6,0.8c-0.1,0.1-0.2,0.2-0.3,0.3c-0.3,0.3-0.7,0.7-1.1,1
		c-0.5,0.4-1.1,0.8-1.6,1.2c0,0,0,0,0,0c-3.6,2.6-6.9,4.6-14,9.2c-4.3,2.8-7.5,4.1-10.2,4.1c-2.3,0-4.3-1-6.2-3.1
		c-3.2-3.4-4.7-8.1-2.5-11.5c0,0,0,0,0,0l0,0c0.6-0.9,1.4-1.7,2.6-2.4c5.6-3.1,6.9-9.8,4.9-13c-0.6-1-1.6-2.5-2.6-4.2
		c-1.5,0-2.7-0.4-3.9-1c-2.8-1.4-2.9-4.7-4.6-7.4c-1.7-2.7-2.6-5.6,0.6-8.9c3.1-3.3,12.3-9.2,15.1-10.4
		C49.4,17.7,51.5,17.1,53.4,17.1 M53.4,14.6L53.4,14.6c-2.5,0-4.9,0.8-6.5,1.5c-3.2,1.3-12.6,7.5-15.9,11C25.9,32.3,29,37.3,30.1,39
		c0.5,0.7,0.8,1.6,1.2,2.5c0.8,2,1.8,4.4,4.4,5.8c1.2,0.6,2.4,1,3.5,1.2c0.8,1.4,1.5,2.4,1.9,3.1c0.4,0.6,0.7,2,0.2,3.8
		c-0.6,2.3-2.2,4.4-4.3,5.6c-1.4,0.8-2.5,1.8-3.4,3c-0.1,0.1-0.2,0.3-0.3,0.4c-2.4,4.1-1.3,9.8,3,14.3c2.4,2.6,5,3.9,8,3.9
		c3.1,0,6.7-1.4,11.6-4.5c1.5-1,2.9-1.8,4.1-2.6c4.4-2.8,7.1-4.5,10-6.6c0.5-0.4,1.1-0.8,1.6-1.2c0.5-0.4,0.9-0.8,1.4-1.2
		c0.1-0.1,0.2-0.2,0.3-0.3l0.1-0.1c0.3-0.3,0.6-0.6,0.8-1c0.1-0.2,0.2-0.3,0.3-0.5c0.2-0.3,0.4-0.7,0.6-1.1l0-0.1
		c0.1-0.1,0.1-0.2,0.2-0.3c0.2-0.5,0.4-1,0.6-1.5c0-0.1,0.1-0.2,0.1-0.4c0.1-0.5,0.2-0.9,0.3-1.2c0-0.2,0.1-0.4,0.1-0.6
		c0-0.3,0.1-0.7,0.1-1c0-0.3,0-0.5,0-0.7c0-0.3,0-0.7,0-1c0-0.3,0-0.6-0.1-0.9c0-0.4-0.1-0.8-0.2-1.2c0-0.3-0.1-0.5-0.1-0.8l0-0.1
		c-0.1-0.2-0.1-0.4-0.1-0.6c-0.1-0.3-0.2-0.6-0.2-0.9c0-0.2-0.1-0.3-0.1-0.5c-0.5-1.6-1.1-3.2-1.9-4.7c-0.8-1.7-1.8-3.3-2.9-4.7
		c-1.7-2.4-3.7-5.4-5.5-8.4c1.4-2.8,1-6-1.2-8.4c-1.4-1.6-2-3-2.6-4.6c-0.4-1.2-0.9-2.3-1.7-3.4C58.9,16.2,57,14.6,53.4,14.6
		L53.4,14.6z"/>
	<g>
		<path class="st13" d="M47.9,18.4c-2.8,1.2-12,7.1-15.1,10.4s-2.3,6.2-0.6,8.9c1.7,2.7,1.9,6,4.6,7.4c2.8,1.4,5.6,1.7,11.2-1.4
			c5.6-3.1,9.8-6,12.7-8c2.8-2,4.1-5.5,1.6-8.3c-2.9-3.2-2.9-6.2-4.4-8.3C55.6,15.9,50.8,17.2,47.9,18.4z"/>
		<path class="st1" d="M40.7,46.7c-1.6,0-2.9-0.4-4.2-1.1c-2-1-2.8-3-3.5-4.8c-0.4-0.9-0.8-1.9-1.3-2.8c-1.6-2.5-2.9-5.9,0.6-9.6
			c3.3-3.4,12.6-9.4,15.3-10.5c0,0,0,0,0,0c2.3-1,8-2.8,10.7,0.9c0.6,0.9,1,1.9,1.4,3c0.6,1.6,1.3,3.4,2.9,5.2
			c1.2,1.3,1.7,2.8,1.5,4.3c-0.2,1.8-1.4,3.6-3.2,4.9c-4,2.8-8.3,5.5-12.7,8C45.1,46,42.7,46.7,40.7,46.7z M48.1,19
			c-2.6,1.1-11.7,7-14.9,10.2c-3,3.1-2,5.7-0.5,8.1c0.6,1,1,2,1.4,3c0.7,1.8,1.3,3.3,2.9,4.1c2.6,1.3,5.3,1.6,10.6-1.4
			c4.4-2.5,8.6-5.1,12.6-7.9c1.5-1.1,2.5-2.5,2.6-4c0.1-1.2-0.3-2.3-1.2-3.3c-1.9-2-2.6-3.9-3.2-5.6c-0.4-1-0.7-1.9-1.3-2.7
			C55.2,16.4,50.2,18.1,48.1,19L48.1,19z"/>
	</g>
	<path class="st1" d="M35.5,33.4c-0.8,0-1.2-0.2-1.4-0.3c-0.3-0.2-0.4-0.6-0.2-0.9c0.2-0.3,0.6-0.4,0.8-0.2c0.1,0,2.3,0.9,9.7-3.7
		c8.2-5.1,8.8-6.5,8.8-7.9c0-0.3,0.3-0.6,0.6-0.6c0.3,0,0.6,0.3,0.6,0.6c0,2.1-1.4,3.9-9.4,8.9C39.9,32.7,37,33.4,35.5,33.4z"/>
	<path class="st18" d="M44,75.6c-0.3,0-0.6,0-0.9-0.1c-0.3,0-0.6-0.4-0.5-0.7c0-0.3,0.4-0.6,0.7-0.5c1,0.1,2.1,0,3.4-0.4
		c0.3-0.1,0.7,0.1,0.8,0.4c0.1,0.3-0.1,0.7-0.4,0.8C45.9,75.4,44.9,75.6,44,75.6z M39.8,73.9c-0.2,0-0.3-0.1-0.4-0.2
		c-0.3-0.3-0.6-0.6-0.9-1c-0.2-0.3-0.2-0.7,0.1-0.9c0.3-0.2,0.7-0.2,0.9,0.1c0.3,0.3,0.5,0.6,0.8,0.9c0.3,0.2,0.3,0.6,0,0.9
		C40.2,73.8,40,73.9,39.8,73.9z M50.3,73.6c-0.2,0-0.4-0.1-0.5-0.3c-0.2-0.3-0.1-0.7,0.2-0.9c0.3-0.2,0.7-0.4,1-0.6
		c0.3-0.2,0.7-0.1,0.9,0.2c0.2,0.3,0.1,0.7-0.2,0.9c-0.4,0.2-0.7,0.5-1.1,0.7C50.5,73.5,50.4,73.6,50.3,73.6z M37,69.8
		c-0.2,0-0.5-0.1-0.6-0.4c-0.9-1.9-1.3-3.6-1.3-3.7c-0.1-0.3,0.1-0.7,0.5-0.8c0.3-0.1,0.7,0.1,0.8,0.5c0,0,0.4,1.6,1.2,3.4
		c0.1,0.3,0,0.7-0.3,0.8C37.1,69.8,37,69.8,37,69.8z"/>
	<g>
		<circle class="st4" cx="47.8" cy="38" r="2.5"/>
		<path class="st1" d="M47.8,41.2c-1.7,0-3.1-1.4-3.1-3.1c0-1.7,1.4-3.1,3.1-3.1S51,36.3,51,38C51,39.8,49.6,41.2,47.8,41.2z
			 M47.8,36.2c-1,0-1.9,0.8-1.9,1.9s0.8,1.9,1.9,1.9s1.9-0.8,1.9-1.9S48.9,36.2,47.8,36.2z"/>
	</g>
	<g>
		<circle class="st4" cx="51.8" cy="34.9" r="2.5"/>
		<path class="st1" d="M51.8,38c-1.7,0-3.1-1.4-3.1-3.1c0-1.7,1.4-3.1,3.1-3.1c1.7,0,3.1,1.4,3.1,3.1C55,36.6,53.6,38,51.8,38z
			 M51.8,33c-1,0-1.9,0.8-1.9,1.9s0.8,1.9,1.9,1.9s1.9-0.8,1.9-1.9S52.9,33,51.8,33z"/>
	</g>
	<path class="st1" d="M46.7,36.4c-0.2,0-0.3-0.1-0.5-0.2c-0.1-0.1-1.4-1.6-0.3-4.9c0.1-0.2,0.3-0.4,0.5-0.4c0.2,0,0.5,0.1,0.6,0.3
		c0,0,1.2,1.8,2.6,1.9c0.3,0,0.6,0.3,0.6,0.7c0,0.3-0.3,0.6-0.7,0.6c-1.2-0.1-2.1-0.8-2.8-1.4c-0.3,1.7,0.3,2.5,0.3,2.5
		c0.2,0.3,0.2,0.7-0.1,0.9C47,36.4,46.8,36.4,46.7,36.4z"/>
	<g>
		<path class="st11" d="M71,51.8c-0.6,2-1.6,3.2-3.5,5.6c-2.8,3.5,1.2,9.5,1.2,9.5c0.5-0.4,1-0.8,1.6-1.2c5.7-4.3,4.2-11.6,1.3-17.5
			L71,51.8z"/>
		<path class="st1" d="M68.7,67.5c0,0-0.1,0-0.1,0c-0.2,0-0.3-0.1-0.4-0.3c0-0.1-4.3-6.4-1.2-10.2l0.4-0.5c1.6-2,2.5-3.1,3-4.8
			l0.5-3.5c0-0.3,0.3-0.5,0.5-0.5c0.3,0,0.5,0.1,0.7,0.3c4,7.9,3.5,14.5-1.4,18.2c-0.5,0.4-1.1,0.8-1.6,1.2
			C68.9,67.5,68.8,67.5,68.7,67.5z M71.8,50.4l-0.2,1.5c0,0,0,0.1,0,0.1c-0.6,2-1.6,3.2-3.2,5.2l-0.4,0.5c-2,2.5,0,6.7,0.9,8.2
			c0.3-0.2,0.7-0.5,1-0.8C75.1,61.2,73.5,54.5,71.8,50.4z"/>
	</g>
	<path class="st1" d="M68.7,60.6c-0.1,0-0.1,0-0.2,0l-3.9-1.4c-0.3-0.1-0.5-0.5-0.4-0.8c0.1-0.3,0.5-0.5,0.8-0.4l3.9,1.4
		c0.3,0.1,0.5,0.5,0.4,0.8C69.2,60.4,69,60.6,68.7,60.6z"/>
	<path class="st1" d="M68.7,63.4c0,0-0.1,0-0.1,0l-3.9-0.8c-0.3-0.1-0.6-0.4-0.5-0.7c0.1-0.3,0.4-0.6,0.7-0.5l3.9,0.8
		c0.3,0.1,0.6,0.4,0.5,0.7C69.3,63.2,69,63.4,68.7,63.4z"/>
	<ellipse transform="matrix(0.8938 0.4485 -0.4485 0.8938 29.7087 -24.5868)" class="st15" cx="66.8" cy="50.4" rx="1.2" ry="2.6"/>
</g>
</svg>
