<?xml version="1.0" encoding="utf-8"?>
<!-- Generator: Adobe Illustrator 19.1.0, SVG Export Plug-In . SVG Version: 6.00 Build 0)  -->
<svg version="1.1" id="Layer_1" xmlns="http://www.w3.org/2000/svg" xmlns:xlink="http://www.w3.org/1999/xlink" x="0px" y="0px"
	 viewBox="0 0 100 100" style="enable-background:new 0 0 100 100;" xml:space="preserve">
<style type="text/css">
	.st0{fill:#F1F1F2;}
	.st1{fill:#640F13;}
	.st2{fill:#FCE8D0;}
	.st3{fill:#E6E7E8;}
	.st4{fill:#DB4342;}
	.st5{fill:#FACCAA;}
	.st6{fill:#FFFFFF;}
	.st7{fill:#C83D3C;}
	.st8{fill:#98CF97;}
	.st9{fill:#83B585;}
	.st10{fill:#E86363;}
	.st11{fill:#FFDF00;}
	.st12{fill:#FFF69D;}
	.st13{fill:#FFF5CA;}
	.st14{fill:#D0AF8B;}
	.st15{fill:#BC3839;}
	.st16{fill:#E8DEB9;}
	.st17{fill:#DFC0A9;}
	.st18{fill:#640F14;}
	.st19{fill:#BADDEE;}
	.st20{fill:#9DD3ED;}
	.st21{fill:#D17663;}
	.st22{fill:#839CC1;}
	.st23{fill:#E0D682;}
	.st24{fill:#E07B25;}
	.st25{fill:#77A9C3;}
	.st26{fill:#008BB3;}
	.st27{fill:#2385A5;}
	.st28{fill:#6CADCA;}
	.st29{fill:#DBDCDD;}
	.st30{fill:#7AB17B;}
	.st31{fill:#C3996B;}
	.st32{fill:#B18C62;}
	.st33{fill:#D7B492;}
	.st34{fill:#F27575;}
	.st35{fill:#992E34;}
	.st36{fill:#D0D2D3;}
	.st37{fill:#AE3334;}
	.st38{fill:#A9865E;}
	.st39{fill:#231F20;}
	.st40{fill:#FCC010;}
	.st41{fill:#F4EDB8;}
	.st42{fill:#E29E16;}
</style>
<g>
	<path class="st1" d="M52.4,18.5C60.4,18.5,67,25,67,33c0,0.6-0.1,1.3-0.1,1.9v0v0l0,0c0.8-0.3,1.7-0.5,2.6-0.5
		c1.9,0,3.8,0.8,5.1,2.4v0c2.2,2.6,2,6.5-0.4,8.9l-5.1,5.1L65,54.7c-0.9,0.9-1.4,2.2-1.4,3.5c0,1.3,0.5,2.5,1.4,3.5l4.1,4.1l5.2,5.2
		c2.6,2.6,2.6,6.8,0,9.5v0c-1.3,1.3-3,2-4.7,2c-1.7,0-3.4-0.7-4.7-2l-9.1-9.1c-0.9-0.9-2.2-1.4-3.4-1.4c-1.2,0-2.5,0.5-3.4,1.4
		l-3.9,3.9l0,0l-5.2,5.2c-1.3,1.3-3,2-4.7,2c-1.7,0-3.4-0.7-4.7-2v0c-2.6-2.6-2.6-6.8,0-9.5l9.3-9.3c0.9-0.9,1.4-2.2,1.4-3.5
		c0-1.3-0.5-2.5-1.4-3.5l-9-9c-2.4-2.4-2.6-6.3-0.4-8.9v0c1.3-1.6,3.2-2.4,5.1-2.4c0.9,0,1.7,0.2,2.6,0.5l0,0l0,0
		c-0.1-0.6-0.1-1.2-0.1-1.9C37.8,25,44.3,18.5,52.4,18.5 M52.4,15.9c-9,0-16.5,7.1-17.1,16c-2.7,0-5.3,1.2-7,3.3
		c-3,3.6-2.7,8.9,0.6,12.3l9,9c0.4,0.4,0.7,1,0.7,1.7c0,0.6-0.2,1.2-0.7,1.7l-9.3,9.3c-1.7,1.7-2.7,4-2.7,6.5c0,2.5,1,4.8,2.7,6.5
		c1.7,1.7,4,2.7,6.5,2.7c2.5,0,4.8-1,6.5-2.7l5.2-5.2l3.9-3.9c0.4-0.4,1-0.7,1.6-0.7c0.6,0,1.2,0.2,1.6,0.7l9.1,9.1
		c1.7,1.7,4,2.7,6.5,2.7c2.5,0,4.8-1,6.5-2.7c3.6-3.6,3.6-9.4,0-13L70.9,64l-4.1-4.1c-0.4-0.4-0.7-1-0.7-1.7c0-0.6,0.2-1.2,0.7-1.7
		l3.9-3.9l5.1-5.1c3.3-3.3,3.6-8.6,0.6-12.3c-1.7-2.1-4.3-3.3-7-3.3C68.9,23,61.4,15.9,52.4,15.9L52.4,15.9z"/>
	<g>
		<path class="st31" d="M74.4,71L65,61.6c-0.9-0.9-1.4-2.2-1.4-3.5c0-1.3,0.5-2.5,1.4-3.5l9-9c2.4-2.4,2.6-6.3,0.4-8.9v0
			c-1.9-2.3-5.1-3-7.7-1.9c-0.9,7.2-7,12.7-14.5,12.7s-13.5-5.5-14.5-12.7c-2.6-1.1-5.7-0.4-7.7,1.9v0c-2.2,2.6-2,6.5,0.4,8.9l9,9
			c0.9,0.9,1.4,2.2,1.4,3.5c0,1.3-0.5,2.5-1.4,3.5L30.4,71c-2.6,2.6-2.6,6.8,0,9.5v0c2.6,2.6,6.8,2.6,9.5,0l9.1-9.1
			c1.9-1.9,5-1.9,6.8,0l9.1,9.1c2.6,2.6,6.8,2.6,9.5,0v0C77,77.8,77,73.6,74.4,71z"/>
		<path class="st1" d="M69.6,83c-2,0-3.8-0.8-5.2-2.1l-9.1-9.1c-1.6-1.6-4.3-1.6-6,0l-9.1,9.1c-1.4,1.4-3.2,2.1-5.2,2.1
			c-2,0-3.8-0.8-5.2-2.1c-1.4-1.4-2.1-3.2-2.1-5.2c0-2,0.8-3.8,2.1-5.2l9.3-9.3c0.8-0.8,1.2-1.9,1.2-3s-0.4-2.2-1.2-3l-9-9
			c-2.7-2.7-2.9-6.8-0.5-9.7c2-2.5,5.4-3.3,8.4-2.1c0.2,0.1,0.4,0.3,0.4,0.5C39.4,41.8,45.4,47,52.4,47c7,0,12.9-5.2,13.8-12.2
			c0-0.2,0.2-0.4,0.4-0.5c3-1.2,6.3-0.4,8.4,2.1c2.4,2.9,2.2,7.1-0.5,9.7l-9,9c-0.8,0.8-1.2,1.9-1.2,3s0.4,2.2,1.2,3l9.3,9.3l0,0
			c2.9,2.9,2.9,7.5,0,10.3C73.4,82.3,71.6,83,69.6,83z M52.4,69.3c1.4,0,2.8,0.5,3.9,1.6l9.1,9.1c1.1,1.1,2.7,1.8,4.3,1.8
			c1.6,0,3.1-0.6,4.3-1.8c2.4-2.4,2.4-6.2,0-8.6l-9.3-9.3c-1-1-1.6-2.4-1.6-3.9c0-1.5,0.6-2.9,1.6-3.9l9-9c2.2-2.2,2.4-5.6,0.4-8
			c-1.6-2-4.2-2.7-6.6-1.8c-1.1,7.4-7.5,12.9-15,12.9s-13.9-5.5-15-12.9c-2.4-0.8-5-0.1-6.6,1.8c-2,2.4-1.8,5.8,0.4,8l9,9
			c1,1,1.6,2.4,1.6,3.9c0,1.5-0.6,2.9-1.6,3.9l-9.3,9.3c-1.1,1.1-1.8,2.7-1.8,4.3c0,1.6,0.6,3.1,1.8,4.3c1.1,1.1,2.7,1.8,4.3,1.8
			s3.1-0.6,4.3-1.8l9.1-9.1C49.6,69.8,51,69.3,52.4,69.3z"/>
	</g>
	<path class="st38" d="M75.8,78.2c0,0-5.2,3.5-8.8-0.1S52.4,64,52.4,64S41.1,75.2,37.2,78.3c-3.6,2.9-6.7,1.9-7.1,1.7
		c0.1,0.1,0.2,0.3,0.4,0.4v0c2.6,2.6,6.8,2.6,9.5,0l9.1-9.1c1.9-1.9,5-1.9,6.8,0l9.1,9.1c2.6,2.6,6.8,2.6,9.5,0v0
		C75,79.8,75.5,79,75.8,78.2C75.8,78.2,75.8,78.2,75.8,78.2z"/>
	<path class="st1" d="M69.6,83c-2,0-3.8-0.8-5.2-2.1l-9.1-9.1c-1.6-1.6-4.3-1.6-6,0l-9.1,9.1c-1.4,1.4-3.2,2.1-5.2,2.1
		c-2,0-3.8-0.8-5.2-2.1c-1.4-1.4-2.1-3.2-2.1-5.2c0-2,0.8-3.8,2.1-5.2l9.3-9.3c0.8-0.8,1.2-1.9,1.2-3s-0.4-2.2-1.2-3l-9-9
		c-2.7-2.7-2.9-6.8-0.5-9.7c2-2.5,5.4-3.3,8.4-2.1c0.2,0.1,0.4,0.3,0.4,0.5C39.4,41.8,45.4,47,52.4,47c7,0,12.9-5.2,13.8-12.2
		c0-0.2,0.2-0.4,0.4-0.5c3-1.2,6.3-0.4,8.4,2.1c2.4,2.9,2.2,7.1-0.5,9.7l-9,9c-0.8,0.8-1.2,1.9-1.2,3s0.4,2.2,1.2,3l9.3,9.3l0,0
		c2.9,2.9,2.9,7.5,0,10.3C73.4,82.3,71.6,83,69.6,83z M52.4,69.3c1.4,0,2.8,0.5,3.9,1.6l9.1,9.1c1.1,1.1,2.7,1.8,4.3,1.8
		c1.6,0,3.1-0.6,4.3-1.8c2.4-2.4,2.4-6.2,0-8.6l-9.3-9.3c-1-1-1.6-2.4-1.6-3.9c0-1.5,0.6-2.9,1.6-3.9l9-9c2.2-2.2,2.4-5.6,0.4-8
		c-1.6-2-4.2-2.7-6.6-1.8c-1.1,7.4-7.5,12.9-15,12.9s-13.9-5.5-15-12.9c-2.4-0.8-5-0.1-6.6,1.8c-2,2.4-1.8,5.8,0.4,8l9,9
		c1,1,1.6,2.4,1.6,3.9c0,1.5-0.6,2.9-1.6,3.9l-9.3,9.3c-1.1,1.1-1.8,2.7-1.8,4.3c0,1.6,0.6,3.1,1.8,4.3c1.1,1.1,2.7,1.8,4.3,1.8
		s3.1-0.6,4.3-1.8l9.1-9.1C49.6,69.8,51,69.3,52.4,69.3z"/>
	<g>
		<path class="st30" d="M65,61.6c-0.9-0.9-1.4-2.2-1.4-3.5c0-1.3,0.5-2.5,1.4-3.5l3.9-3.9l-6.9-6.9c-2.6,2.3-6,3.7-9.7,3.7
			c-3.7,0-7.1-1.4-9.7-3.7l-6.9,6.9l3.9,3.9c0.9,0.9,1.4,2.2,1.4,3.5c0,1.3-0.5,2.5-1.4,3.5l-4.1,4.1l9.5,9.5l3.9-3.9
			c1.9-1.9,5-1.9,6.8,0l3.9,3.9l9.5-9.5L65,61.6z"/>
		<path class="st1" d="M59.7,75.9c-0.2,0-0.3-0.1-0.4-0.2l-3.9-3.9c-1.6-1.6-4.3-1.6-6,0l-3.9,3.9c-0.2,0.2-0.7,0.2-0.9,0l-9.5-9.5
			c-0.2-0.2-0.2-0.6,0-0.9l4.1-4.1c0.8-0.8,1.2-1.9,1.2-3s-0.4-2.2-1.2-3l-3.9-3.9c-0.2-0.2-0.2-0.6,0-0.9l6.9-6.9
			c0.2-0.2,0.6-0.2,0.9,0c2.6,2.3,5.8,3.5,9.3,3.5c3.4,0,6.7-1.3,9.3-3.5c0.3-0.2,0.6-0.2,0.9,0l6.9,6.9c0.2,0.2,0.2,0.6,0,0.9
			l-3.9,3.9c-0.8,0.8-1.2,1.9-1.2,3s0.4,2.2,1.2,3l4.1,4.1c0.2,0.2,0.2,0.6,0,0.9l-9.5,9.5C60,75.8,59.9,75.9,59.7,75.9z M52.4,69.3
			c1.4,0,2.8,0.5,3.9,1.6l3.4,3.4l8.6-8.6l-3.7-3.7c-1-1-1.6-2.4-1.6-3.9c0-1.5,0.6-2.9,1.6-3.9l3.5-3.5l-6-6
			c-2.7,2.2-6.1,3.5-9.7,3.5c-3.5,0-6.9-1.2-9.7-3.5l-6,6l3.5,3.5c1,1,1.6,2.4,1.6,3.9c0,1.5-0.6,2.9-1.6,3.9l-3.7,3.7l8.6,8.6
			l3.4-3.4C49.6,69.8,51,69.3,52.4,69.3z"/>
	</g>
	<path class="st39" d="M52.4,48.3c-8.4,0-15.2-6.8-15.2-15.2S44,17.8,52.4,17.8S67.6,24.7,67.6,33S60.8,48.3,52.4,48.3z M52.4,19.1
		c-7.7,0-14,6.3-14,14s6.3,14,14,14s14-6.3,14-14S60.1,19.1,52.4,19.1z"/>
	<path class="st39" d="M47.2,30c-1.3,0-2.4-1.1-2.4-2.4s1.1-2.4,2.4-2.4c1.3,0,2.4,1.1,2.4,2.4S48.5,30,47.2,30z M47.2,26.6
		c-0.6,0-1.1,0.5-1.1,1.1s0.5,1.1,1.1,1.1s1.1-0.5,1.1-1.1S47.8,26.6,47.2,26.6z"/>
	<path class="st39" d="M56.8,30c-1.3,0-2.4-1.1-2.4-2.4s1.1-2.4,2.4-2.4c1.3,0,2.4,1.1,2.4,2.4S58.1,30,56.8,30z M56.8,26.6
		c-0.6,0-1.1,0.5-1.1,1.1s0.5,1.1,1.1,1.1s1.1-0.5,1.1-1.1S57.4,26.6,56.8,26.6z"/>
	<path class="st39" d="M52.4,38c-2.2,0-4-1.8-4-4c0-2.2,1.8-4,4-4c2.2,0,4,1.8,4,4C56.4,36.2,54.6,38,52.4,38z M52.4,31.3
		c-1.5,0-2.7,1.2-2.7,2.7c0,1.5,1.2,2.7,2.7,2.7c1.5,0,2.7-1.2,2.7-2.7C55.1,32.5,53.9,31.3,52.4,31.3z"/>
	<path class="st39" d="M52.4,44.3c-4.7,0-6.1-4.2-6.1-4.3c-0.1-0.2,0-0.5,0.2-0.6c0.2-0.2,0.4-0.2,0.7-0.1c0,0,2.2,0.8,5.2,0.8
		c3,0,5.2-0.8,5.2-0.8c0.2-0.1,0.5,0,0.7,0.1c0.2,0.2,0.2,0.4,0.2,0.6C58.4,40.1,57.1,44.3,52.4,44.3z M48.1,40.9
		c0.7,1,2,2.2,4.2,2.2c2.3,0,3.6-1.2,4.2-2.2c-1,0.2-2.5,0.5-4.2,0.5C50.6,41.4,49.2,41.1,48.1,40.9z"/>
	<path class="st39" d="M57.6,51.9c-3,0-5.6-3.8-5.7-4c-0.1-0.2-0.1-0.4,0-0.6c0.1-0.2,0.3-0.3,0.6-0.3c2.7,0,5.4-0.8,7.7-2.3
		c0.2-0.1,0.5-0.1,0.7,0c0.2,0.2,1,1.5,1,2.9c0,1-0.4,2.5-2.1,3.7C59,51.7,58.3,51.9,57.6,51.9z M53.6,48.2c1.1,1.3,3.4,3.3,5.3,2
		c2-1.4,1.6-3.2,1.2-4.1C58.2,47.3,56,48,53.6,48.2z"/>
	<path class="st39" d="M47.2,51.9c-0.8,0-1.5-0.3-2.1-0.6c-3-2-2.2-5.1-1.3-6.4c0.1-0.1,0.2-0.2,0.4-0.3c0.2,0,0.3,0,0.5,0.1
		c2.3,1.5,4.9,2.3,7.7,2.3c0.3,0,0.5,0.2,0.6,0.4c0.3,0.8-2.6,3.2-2.6,3.2C49.1,51.6,48.1,51.9,47.2,51.9z M44.6,46.1
		c-0.4,0.9-0.8,2.7,1.2,4.1c2,1.3,4.2-0.7,5.3-2C48.8,48,46.6,47.3,44.6,46.1z"/>
	<g>
		<circle class="st31" cx="52.4" cy="33" r="14.6"/>
		<path class="st1" d="M52.4,48.3c-8.4,0-15.2-6.8-15.2-15.2S44,17.8,52.4,17.8S67.6,24.7,67.6,33S60.8,48.3,52.4,48.3z M52.4,19.1
			c-7.7,0-14,6.3-14,14s6.3,14,14,14s14-6.3,14-14S60.1,19.1,52.4,19.1z"/>
	</g>
	<g>
		<circle class="st0" cx="47.2" cy="27.7" r="1.7"/>
		<path class="st1" d="M47.2,30c-1.3,0-2.4-1.1-2.4-2.4s1.1-2.4,2.4-2.4c1.3,0,2.4,1.1,2.4,2.4S48.5,30,47.2,30z M47.2,26.6
			c-0.6,0-1.1,0.5-1.1,1.1s0.5,1.1,1.1,1.1s1.1-0.5,1.1-1.1S47.8,26.6,47.2,26.6z"/>
	</g>
	<g>
		<circle class="st0" cx="56.8" cy="27.7" r="1.7"/>
		<path class="st1" d="M56.8,30c-1.3,0-2.4-1.1-2.4-2.4s1.1-2.4,2.4-2.4c1.3,0,2.4,1.1,2.4,2.4S58.1,30,56.8,30z M56.8,26.6
			c-0.6,0-1.1,0.5-1.1,1.1s0.5,1.1,1.1,1.1s1.1-0.5,1.1-1.1S57.4,26.6,56.8,26.6z"/>
	</g>
	<g>
		<circle class="st4" cx="52.4" cy="34" r="3.4"/>
		<path class="st1" d="M52.4,38c-2.2,0-4-1.8-4-4c0-2.2,1.8-4,4-4c2.2,0,4,1.8,4,4C56.4,36.2,54.6,38,52.4,38z M52.4,31.3
			c-1.5,0-2.7,1.2-2.7,2.7c0,1.5,1.2,2.7,2.7,2.7c1.5,0,2.7-1.2,2.7-2.7C55.1,32.5,53.9,31.3,52.4,31.3z"/>
	</g>
	<g>
		<path class="st0" d="M46.9,39.9c0,0,2.2,0.9,5.5,0.9s5.5-0.9,5.5-0.9s-1.2,3.8-5.5,3.8S46.9,39.9,46.9,39.9z"/>
		<path class="st1" d="M52.4,44.3c-4.7,0-6.1-4.2-6.1-4.3c-0.1-0.2,0-0.5,0.2-0.6c0.2-0.2,0.4-0.2,0.7-0.1c0,0,2.2,0.8,5.2,0.8
			c3,0,5.2-0.8,5.2-0.8c0.2-0.1,0.5,0,0.7,0.1c0.2,0.2,0.2,0.4,0.2,0.6C58.4,40.1,57.1,44.3,52.4,44.3z M48.1,40.9
			c0.7,1,2,2.2,4.2,2.2c2.3,0,3.6-1.2,4.2-2.2c-1,0.2-2.5,0.5-4.2,0.5C50.6,41.4,49.2,41.1,48.1,40.9z"/>
	</g>
	<g>
		<circle class="st11" cx="52.4" cy="56.5" r="1.6"/>
		<path class="st1" d="M52.4,58.7c-1.2,0-2.2-1-2.2-2.2c0-1.2,1-2.2,2.2-2.2c1.2,0,2.2,1,2.2,2.2C54.6,57.7,53.6,58.7,52.4,58.7z
			 M52.4,55.5c-0.5,0-1,0.4-1,1c0,0.5,0.4,1,1,1c0.5,0,1-0.4,1-1C53.4,55.9,52.9,55.5,52.4,55.5z"/>
	</g>
	<g>
		<circle class="st11" cx="52.4" cy="62.8" r="1.6"/>
		<path class="st1" d="M52.4,65c-1.2,0-2.2-1-2.2-2.2c0-1.2,1-2.2,2.2-2.2c1.2,0,2.2,1,2.2,2.2C54.6,64,53.6,65,52.4,65z M52.4,61.8
			c-0.5,0-1,0.4-1,1c0,0.5,0.4,1,1,1c0.5,0,1-0.4,1-1C53.4,62.2,52.9,61.8,52.4,61.8z"/>
	</g>
	<g>
		<path class="st11" d="M60.4,45.2c-2.3,1.5-5.1,2.4-8,2.4h0l0,0c0,0,3.6,5.3,6.9,3.1C62.6,48.5,60.4,45.2,60.4,45.2
			C60.4,45.2,60.4,45.2,60.4,45.2z"/>
		<path class="st1" d="M57.6,51.9c-3,0-5.6-3.8-5.7-4c-0.1-0.2-0.1-0.4,0-0.6c0.1-0.2,0.3-0.3,0.6-0.3c2.7,0,5.4-0.8,7.7-2.3
			c0.2-0.1,0.5-0.1,0.7,0c0.2,0.2,1,1.5,1,2.9c0,1-0.4,2.5-2.1,3.7C59,51.7,58.3,51.9,57.6,51.9z M53.6,48.2c1.1,1.3,3.4,3.3,5.3,2
			c2-1.4,1.6-3.2,1.2-4.1C58.2,47.3,56,48,53.6,48.2z"/>
	</g>
	<g>
		<path class="st11" d="M52.4,47.6c-3,0-5.7-0.9-8-2.4c0,0,0,0,0,0c0,0-2.2,3.3,1.1,5.5C48.8,53,52.4,47.6,52.4,47.6L52.4,47.6
			C52.4,47.6,52.4,47.6,52.4,47.6z"/>
		<path class="st1" d="M47.2,51.9c-0.8,0-1.5-0.3-2.1-0.6c-3-2-2.2-5.1-1.3-6.4c0.1-0.1,0.2-0.2,0.4-0.3c0.2,0,0.3,0,0.5,0.1
			c2.3,1.5,4.9,2.3,7.7,2.3c0.3,0,0.5,0.2,0.6,0.4c0.3,0.8-2.6,3.2-2.6,3.2C49.1,51.6,48.1,51.9,47.2,51.9z M44.6,46.1
			c-0.4,0.9-0.8,2.7,1.2,4.1c2,1.3,4.2-0.7,5.3-2C48.8,48,46.6,47.3,44.6,46.1z"/>
	</g>
	<circle class="st34" cx="52.1" cy="33.4" r="1.2"/>
	<circle class="st38" cx="69.2" cy="38.5" r="1.2"/>
	<circle class="st38" cx="34.9" cy="39.7" r="1.2"/>
	<circle class="st38" cx="72.3" cy="41.8" r="1.2"/>
	<circle class="st38" cx="35.6" cy="46.1" r="1.2"/>
	<circle class="st38" cx="70.5" cy="74.1" r="1.2"/>
	<circle class="st38" cx="35.6" cy="70.8" r="1.2"/>
	<circle class="st38" cx="32.6" cy="76.4" r="1.2"/>
	<circle class="st38" cx="68.1" cy="46.1" r="1.2"/>
	<circle class="st38" cx="50.8" cy="23" r="1.2"/>
	<circle class="st38" cx="62.4" cy="33" r="1.2"/>
	<circle class="st38" cx="43.6" cy="36.7" r="1.2"/>
</g>
</svg>
