<?xml version="1.0" encoding="utf-8"?>
<!-- Generator: Adobe Illustrator 19.1.0, SVG Export Plug-In . SVG Version: 6.00 Build 0)  -->
<svg version="1.1" id="Layer_1" xmlns="http://www.w3.org/2000/svg" xmlns:xlink="http://www.w3.org/1999/xlink" x="0px" y="0px"
	 viewBox="0 0 100 100" style="enable-background:new 0 0 100 100;" xml:space="preserve">
<style type="text/css">
	.st0{fill:#F1F1F2;}
	.st1{fill:#640F13;}
	.st2{fill:#FCE8D0;}
	.st3{fill:#E6E7E8;}
	.st4{fill:#DB4342;}
	.st5{fill:#FACCAA;}
	.st6{fill:#FFFFFF;}
	.st7{fill:#C83D3C;}
	.st8{fill:#98CF97;}
	.st9{fill:#83B585;}
	.st10{fill:#E86363;}
	.st11{fill:#FFDF00;}
	.st12{fill:#FFF69D;}
	.st13{fill:#FFF5CA;}
	.st14{fill:#D0AF8B;}
	.st15{fill:#BC3839;}
	.st16{fill:#E8DEB9;}
	.st17{fill:#DFC0A9;}
	.st18{fill:#640F14;}
	.st19{fill:#BADDEE;}
	.st20{fill:#9DD3ED;}
	.st21{fill:#D17663;}
	.st22{fill:#839CC1;}
	.st23{fill:#E0D682;}
	.st24{fill:#E07B25;}
	.st25{fill:#77A9C3;}
	.st26{fill:#008BB3;}
	.st27{fill:#2385A5;}
	.st28{fill:#6CADCA;}
	.st29{fill:#DBDCDD;}
	.st30{fill:#7AB17B;}
	.st31{fill:#C3996B;}
	.st32{fill:#B18C62;}
	.st33{fill:#D7B492;}
	.st34{fill:#F27575;}
	.st35{fill:#992E34;}
	.st36{fill:#D0D2D3;}
	.st37{fill:#AE3334;}
	.st38{fill:#A9865E;}
	.st39{fill:#231F20;}
	.st40{fill:#FCC010;}
	.st41{fill:#F4EDB8;}
	.st42{fill:#E29E16;}
</style>
<g>
	<path class="st1" d="M34.1,18.1c4.5,7.1,9.4,8.6,12.8,8.6c2.5,0,4.2-0.8,4.2-0.8c-7,8.6,4.2,17,4.2,17c-2.8,0.8-4.8,2.8-6.2,5.1
		l0,0c0.7-0.3,1.4-0.4,2.1-0.4c3.1,0,5.6,2.3,6,5.2c0.5,0.1,1.1,0.2,1.6,0.2c3.6,0,6.9-2.4,6.9-2.4c0.2,6.8,10.2,10.9,10.2,10.9
		c-0.5-0.1-0.9-0.1-1.3-0.1c-6,0-8.1,7.4-8.1,7.4c-2.6-2.4-4.8-3.2-6.7-3.2c0,0,0,0,0,0c0,0.3,0.1,0.6,0.1,0.9
		c0,4.3-3.5,7.8-7.8,7.8c-1.2,0-2.3-0.3-3.3-0.7c-8.6,1.4-9.1,9.3-9.1,9.3c-1.9-2.1-4.8-2.7-7.5-2.7c-3.8,0-7.3,1.2-7.3,1.2
		c6.1-3.7,2.4-11.7,2.4-11.7c0.2,0,0.3,0,0.4,0c7.6,0,8.9-4.7,9-7.5l0,0c-1.1-1.3-1.8-3-1.8-4.8c0-2.5,1.3-4.7,3.2-6.1
		c-3.1-1.2-6-1.2-6-1.2c6.5-13.5-6.9-16.7-6.9-16.7C34.9,28.5,34.1,18.1,34.1,18.1 M34.1,15.6c-0.3,0-0.5,0-0.8,0.1
		c-1.1,0.4-1.8,1.4-1.7,2.6c0,0.4,0.5,8.9-7.5,12.8c-1,0.5-1.5,1.5-1.4,2.5c0.1,1.1,0.9,1.9,1.9,2.2c0,0,4.5,1.2,6.1,4.7
		c1,2.2,0.7,5.1-0.9,8.5c-0.4,0.8-0.3,1.7,0.1,2.4c0.4,0.7,1.2,1.2,2.1,1.2c0,0,0.6,0,1.5,0.2c-0.7,1.4-1.1,3-1.1,4.6
		c0,2,0.6,3.9,1.7,5.5c-0.4,2.9-2.5,4.2-6.4,4.2c-0.1,0-0.3,0-0.4,0c0,0,0,0-0.1,0c-0.8,0-1.6,0.4-2.1,1.1c-0.5,0.7-0.5,1.6-0.2,2.4
		c0.1,0.2,2.7,6.1-1.4,8.5c-1.1,0.7-1.5,2.1-1,3.2c0.4,0.9,1.3,1.5,2.3,1.5c0.3,0,0.6,0,0.8-0.1c0,0,3.2-1.1,6.5-1.1
		c2.6,0,4.5,0.6,5.7,1.9c0.5,0.5,1.2,0.8,1.9,0.8c0.3,0,0.6,0,0.8-0.1c1-0.3,1.6-1.2,1.7-2.2c0-0.6,0.6-5.5,6.3-6.8
		c1.1,0.4,2.3,0.6,3.5,0.6c4.9,0,9.1-3.5,10.1-8.1c0.9,0.4,1.7,1.1,2.7,1.9c0.5,0.4,1.1,0.7,1.7,0.7c0.2,0,0.5,0,0.7-0.1
		c0.8-0.2,1.5-0.9,1.7-1.7c0,0,1.7-5.6,5.7-5.6c0.3,0,0.6,0,0.9,0.1c0.1,0,0.3,0,0.4,0c1.1,0,2.1-0.7,2.4-1.8c0.4-1.2-0.3-2.5-1.5-3
		c-2.4-1-8.5-4.4-8.6-8.6c0-0.9-0.6-1.8-1.4-2.2C66.4,48.1,66,48,65.7,48c-0.5,0-1.1,0.2-1.5,0.5c0,0-2.5,1.8-5,1.9
		c-0.8-2.1-2.4-3.7-4.4-4.6c0.4-0.2,0.9-0.4,1.3-0.6c0.9-0.3,1.6-1,1.8-2c0.2-0.9-0.2-1.9-1-2.5c0,0-4.9-3.8-5.4-8.2
		c-0.2-1.8,0.3-3.5,1.7-5.2c0.7-0.9,0.7-2.2,0-3.2c-0.5-0.6-1.2-0.9-2-0.9c-0.4,0-0.8,0.1-1.1,0.3c0,0,0,0,0,0c0,0-1.2,0.6-3.1,0.6
		c-3.9,0-7.6-2.6-10.7-7.4C35.7,16,34.9,15.6,34.1,15.6L34.1,15.6z"/>
	<g>
		<path class="st30" d="M38,51.3c1.2-0.8,2.6-1.3,4.2-1.3c1.3,0,2.6,0.4,3.6,1c0.7-1.3,1.8-2.4,3.3-2.9c1.5-2.3,3.5-4.3,6.2-5.1
			c0,0-11.2-8.4-4.2-17c0,0-9.2,4.6-17.1-7.7c0,0,0.8,10.5-8.9,15.2c0,0,13.4,3.3,6.9,16.7C32,50,34.9,50.1,38,51.3z"/>
		<path class="st1" d="M38,51.9c-0.1,0-0.1,0-0.2,0c-3-1.1-5.7-1.2-5.8-1.2c-0.2,0-0.4-0.1-0.5-0.3c-0.1-0.2-0.1-0.4,0-0.6
			c1.9-4,2.2-7.4,0.9-10.2c-2-4.3-7.3-5.7-7.4-5.7c-0.3-0.1-0.4-0.3-0.5-0.5c0-0.3,0.1-0.5,0.3-0.6c9.2-4.5,8.6-14.2,8.6-14.6
			c0-0.3,0.2-0.6,0.4-0.6c0.3-0.1,0.6,0,0.7,0.3c7.5,11.7,16.2,7.6,16.2,7.5c0.3-0.1,0.6-0.1,0.8,0.2c0.2,0.2,0.2,0.6,0,0.8
			c-1.7,2.1-2.4,4.3-2.1,6.6c0.7,5.3,6.1,9.4,6.2,9.5c0.2,0.1,0.3,0.4,0.2,0.6c0,0.2-0.2,0.4-0.4,0.5c-2.3,0.7-4.3,2.3-5.9,4.9
			c-0.1,0.1-0.2,0.2-0.3,0.3C48,49,47,50,46.4,51.2c-0.1,0.2-0.2,0.3-0.4,0.3c-0.2,0-0.3,0-0.5-0.1c-2.2-1.3-5.1-1.1-7.2,0.3
			C38.2,51.9,38.1,51.9,38,51.9z M33,49.5c1.1,0.1,2.9,0.4,4.9,1.1c2.3-1.4,5.2-1.6,7.7-0.5c0.7-1.2,1.8-2.1,3.1-2.6
			c1.5-2.3,3.3-4,5.4-4.8c-1.7-1.5-5.2-5.1-5.8-9.6c-0.3-2.1,0.2-4.1,1.3-6c-3,0.7-9.2,0.8-14.9-6.9c-0.3,3.2-1.7,9.4-7.9,13.1
			c1.9,0.7,5.2,2.5,6.8,5.9C34.9,42,34.7,45.5,33,49.5z"/>
	</g>
	<g>
		<path class="st30" d="M65.7,50.5c0,0-4.3,3.2-8.5,2.2c0,0.3,0.1,0.5,0.1,0.8c0,2.3-1.3,4.3-3.3,5.3c3,0.8,5.3,3.4,5.7,6.6
			c1.9,0,4.1,0.8,6.7,3.2c0,0,2.5-8.5,9.5-7.3C75.9,61.4,65.8,57.3,65.7,50.5z"/>
		<path class="st1" d="M66.4,69.3c-0.2,0-0.3-0.1-0.4-0.2c-2.2-2-4.3-3-6.3-3c0,0,0,0,0,0c-0.3,0-0.6-0.2-0.6-0.6
			c-0.4-2.9-2.4-5.3-5.2-6c-0.3-0.1-0.4-0.3-0.5-0.5c0-0.3,0.1-0.5,0.3-0.6c1.8-0.9,2.9-2.8,2.9-4.8c0-0.2,0-0.4-0.1-0.6
			c0-0.2,0-0.5,0.2-0.6c0.2-0.1,0.4-0.3,0.6-0.2c3.9,0.8,7.9-2.1,8-2.1c0.2-0.1,0.4-0.2,0.7-0.1s0.3,0.3,0.4,0.6
			c0.2,6.3,9.7,10.3,9.8,10.3c0.3,0.1,0.5,0.4,0.4,0.8c-0.1,0.3-0.4,0.5-0.7,0.4c-6.3-1.1-8.8,6.7-8.8,6.8c-0.1,0.2-0.2,0.4-0.4,0.4
			C66.5,69.3,66.4,69.3,66.4,69.3z M60.2,64.9c1.9,0.1,3.9,1,5.9,2.7c0.8-1.9,2.9-6.1,7.1-6.8c-2.9-1.6-7.3-4.7-8-9.2
			c-1.4,0.8-4.3,2.2-7.3,1.9c0,0,0,0.1,0,0.1c0,2-0.9,3.9-2.5,5.2C57.9,59.9,59.7,62.2,60.2,64.9z"/>
	</g>
	<g>
		<path class="st30" d="M48.7,73.5c-2.7-1.2-4.5-3.9-4.5-7.1c0-0.7,0.1-1.4,0.3-2.1c-0.7,0.2-1.5,0.4-2.2,0.4c-2.3,0-4.3-1-5.6-2.6
			c-0.1,2.8-1.5,7.6-9.5,7.5c0,0,3.7,8-2.4,11.7c0,0,10.3-3.5,14.8,1.5C39.6,82.8,40.1,74.9,48.7,73.5z"/>
		<path class="st1" d="M39.6,83.4c-0.2,0-0.3-0.1-0.5-0.2c-4.3-4.7-14.1-1.3-14.2-1.3c-0.3,0.1-0.6,0-0.8-0.3
			c-0.1-0.3,0-0.6,0.2-0.8c5.5-3.3,2.2-10.8,2.1-10.9c-0.1-0.2-0.1-0.4,0-0.6c0.1-0.2,0.3-0.3,0.5-0.3c7.1,0.2,8.7-3.6,8.8-6.9
			c0-0.3,0.2-0.5,0.4-0.6c0.2-0.1,0.5,0,0.7,0.2c1.7,2,4.6,2.9,7.2,2.1c0.2-0.1,0.5,0,0.6,0.1c0.2,0.2,0.2,0.4,0.2,0.6
			c-0.2,0.6-0.3,1.3-0.3,1.9c0,2.8,1.6,5.3,4.2,6.5c0.3,0.1,0.4,0.4,0.4,0.7c0,0.3-0.2,0.5-0.5,0.5c-8,1.3-8.6,8.4-8.6,8.7
			c0,0.3-0.2,0.5-0.4,0.6C39.7,83.4,39.6,83.4,39.6,83.4z M32.1,79.4c2.5,0,5.1,0.5,7.1,2.1c0.5-2.2,2.2-6.7,7.8-8.3
			c-2.1-1.6-3.5-4.1-3.5-6.8c0-0.4,0-0.8,0.1-1.2c-2.3,0.4-4.8-0.2-6.6-1.7c-0.5,2.7-2.3,6.5-9.1,6.7c0.7,1.9,1.8,6.5-0.8,9.8
			C28.5,79.7,30.2,79.4,32.1,79.4z"/>
	</g>
	<path class="st1" d="M43.8,46.2C43.8,46.2,43.8,46.2,43.8,46.2c-0.4,0-0.6-0.3-0.6-0.6c0.1-9.3-3.1-13.8-3.1-13.8
		c-0.2-0.3-0.1-0.7,0.1-0.9c0.3-0.2,0.7-0.1,0.9,0.1c0.1,0.2,3.5,4.8,3.3,14.6C44.4,45.9,44.1,46.2,43.8,46.2z"/>
	<path class="st1" d="M65.4,60c-0.1,0-0.1,0-0.2,0c-6.6-2.2-11-0.4-11-0.4c-0.3,0.1-0.7,0-0.8-0.3c-0.1-0.3,0-0.7,0.3-0.8
		c0.2-0.1,4.9-2,11.9,0.4c0.3,0.1,0.5,0.5,0.4,0.8C65.9,59.8,65.7,60,65.4,60z"/>
	<path class="st1" d="M35.4,74.9c-0.2,0-0.5-0.1-0.6-0.4c-0.1-0.3,0-0.7,0.3-0.8c6.4-2.6,8.6-9.4,8.6-9.5c0.1-0.3,0.5-0.5,0.8-0.4
		c0.3,0.1,0.5,0.5,0.4,0.8c-0.1,0.3-2.5,7.4-9.4,10.3C35.6,74.9,35.5,74.9,35.4,74.9z"/>
	<g>
		<circle class="st4" cx="51.9" cy="66.5" r="7.8"/>
		<path class="st1" d="M51.9,74.9c-4.6,0-8.4-3.8-8.4-8.4s3.8-8.4,8.4-8.4c4.6,0,8.4,3.8,8.4,8.4S56.6,74.9,51.9,74.9z M51.9,59.3
			c-3.9,0-7.2,3.2-7.2,7.2s3.2,7.2,7.2,7.2c3.9,0,7.2-3.2,7.2-7.2S55.9,59.3,51.9,59.3z"/>
	</g>
	<g>
		<path class="st4" d="M51.2,47.6c-2.4,0-4.4,1.4-5.4,3.3c2.2,1.3,3.8,3.7,3.8,6.4c0,0.6-0.1,1.2-0.2,1.8c0.8-0.3,1.7-0.5,2.6-0.5
			c0.7,0,1.4,0.1,2,0.3c1.9-1,3.3-3,3.3-5.3C57.3,50.3,54.5,47.6,51.2,47.6z"/>
		<path class="st1" d="M49.4,59.8c-0.2,0-0.3-0.1-0.4-0.2c-0.2-0.2-0.2-0.4-0.2-0.6c0.1-0.6,0.2-1.1,0.2-1.6c0-2.4-1.3-4.7-3.4-5.9
			c-0.3-0.2-0.4-0.5-0.3-0.8c1.1-2.3,3.4-3.7,5.9-3.7c3.7,0,6.7,3,6.7,6.7c0,2.5-1.4,4.7-3.6,5.9c-0.1,0.1-0.3,0.1-0.5,0
			c-1.4-0.4-2.9-0.3-4.2,0.2C49.5,59.7,49.4,59.8,49.4,59.8z M51.9,58c0.6,0,1.3,0.1,1.9,0.2c1.7-1,2.7-2.7,2.7-4.7
			c0-3-2.4-5.4-5.4-5.4c-1.8,0-3.5,0.9-4.5,2.5c2.2,1.5,3.5,4,3.5,6.6c0,0.3,0,0.6-0.1,0.9C50.8,58.1,51.3,58,51.9,58z"/>
	</g>
	<g>
		<path class="st4" d="M49.4,59.1c0.1-0.6,0.2-1.2,0.2-1.8c0-4.1-3.3-7.4-7.4-7.4c-4.1,0-7.4,3.3-7.4,7.4c0,4.1,3.3,7.4,7.4,7.4
			c0.8,0,1.5-0.1,2.2-0.4C45.1,61.9,47,60,49.4,59.1z"/>
		<path class="st1" d="M42.2,65.4c-4.4,0-8-3.6-8-8s3.6-8,8-8s8,3.6,8,8c0,0.6-0.1,1.3-0.2,1.9c-0.1,0.2-0.2,0.4-0.4,0.4
			c-2.2,0.8-3.9,2.6-4.5,4.8c-0.1,0.2-0.2,0.4-0.4,0.4C43.8,65.2,43,65.4,42.2,65.4z M42.2,50.6c-3.7,0-6.8,3-6.8,6.8
			c0,3.7,3,6.8,6.8,6.8c0.6,0,1.2-0.1,1.7-0.2c0.8-2.4,2.6-4.3,4.9-5.2c0.1-0.4,0.1-0.9,0.1-1.3C49,53.6,45.9,50.6,42.2,50.6z"/>
	</g>
	<circle class="st10" cx="50.3" cy="64.6" r="2.4"/>
	<circle class="st10" cx="39.9" cy="55.8" r="1.7"/>
	<circle class="st10" cx="52.6" cy="50.7" r="1.1"/>
	<path class="st15" d="M56.2,60c0.8,1.2,1.3,2.7,1.3,4.3c0,4.3-3.5,7.8-7.8,7.8c-1.6,0-3.1-0.5-4.3-1.3c1.4,2.1,3.8,3.5,6.5,3.5
		c4.3,0,7.8-3.5,7.8-7.8C59.7,63.7,58.3,61.4,56.2,60z"/>
	<path class="st1" d="M51.9,74.9c-4.6,0-8.4-3.8-8.4-8.4s3.8-8.4,8.4-8.4c4.6,0,8.4,3.8,8.4,8.4S56.6,74.9,51.9,74.9z M51.9,59.3
		c-3.9,0-7.2,3.2-7.2,7.2s3.2,7.2,7.2,7.2c3.9,0,7.2-3.2,7.2-7.2S55.9,59.3,51.9,59.3z"/>
	<path class="st15" d="M49.6,57.3c0-1.8-0.7-3.5-1.7-4.8c0.1,0.6,0.2,1.2,0.2,1.8c0,5-4.1,9.1-9.1,9.1c-0.3,0-0.6,0-0.9-0.1
		c1.2,0.8,2.6,1.3,4.2,1.3c0.8,0,1.5-0.1,2.2-0.4c0.7-2.5,2.5-4.4,4.9-5.2C49.5,58.5,49.6,58,49.6,57.3z"/>
	<path class="st1" d="M42.2,65.4c-4.4,0-8-3.6-8-8s3.6-8,8-8s8,3.6,8,8c0,0.6-0.1,1.3-0.2,1.9c-0.1,0.2-0.2,0.4-0.4,0.4
		c-2.2,0.8-3.9,2.6-4.5,4.8c-0.1,0.2-0.2,0.4-0.4,0.4C43.8,65.2,43,65.4,42.2,65.4z M42.2,50.6c-3.7,0-6.8,3-6.8,6.8
		c0,3.7,3,6.8,6.8,6.8c0.6,0,1.2-0.1,1.7-0.2c0.8-2.4,2.6-4.3,4.9-5.2c0.1-0.4,0.1-0.9,0.1-1.3C49,53.6,45.9,50.6,42.2,50.6z"/>
	<path class="st15" d="M55.3,56.7c-6,2.5-2.8-2.3-5.7-4.8c-2.2-1.8-1.2-3.2-1.2-3.6c-1.1,0.6-2,1.5-2.6,2.6c2.2,1.3,3.8,3.7,3.8,6.4
		c0,0.6-0.1,1.2-0.2,1.8c0,0,0,0,0,0c0.8-0.3,1.7-0.4,2.6-0.4c0.7,0,1.4,0.1,2,0.3c1-0.5,1.9-1.4,2.5-2.4
		C56.1,56.6,55.7,56.5,55.3,56.7z"/>
	<path class="st1" d="M49.4,59.8c-0.2,0-0.3-0.1-0.4-0.2c-0.2-0.2-0.2-0.4-0.2-0.6c0.1-0.6,0.2-1.1,0.2-1.6c0-2.4-1.3-4.7-3.4-5.9
		c-0.3-0.2-0.4-0.5-0.3-0.8c1.1-2.3,3.4-3.7,5.9-3.7c3.7,0,6.7,3,6.7,6.7c0,2.5-1.4,4.7-3.6,5.9c-0.1,0.1-0.3,0.1-0.5,0
		c-1.4-0.4-2.9-0.3-4.2,0.2C49.5,59.7,49.4,59.8,49.4,59.8z M51.9,58c0.6,0,1.3,0.1,1.9,0.2c1.7-1,2.7-2.7,2.7-4.7
		c0-3-2.4-5.4-5.4-5.4c-1.8,0-3.5,0.9-4.5,2.5c2.2,1.5,3.5,4,3.5,6.6c0,0.3,0,0.6-0.1,0.9C50.8,58.1,51.3,58,51.9,58z"/>
	<path class="st1" d="M38,51.9c-0.1,0-0.1,0-0.2,0c-3-1.1-5.7-1.2-5.8-1.2c-0.2,0-0.4-0.1-0.5-0.3c-0.1-0.2-0.1-0.4,0-0.6
		c1.9-4,2.2-7.4,0.9-10.2c-2-4.3-7.3-5.7-7.4-5.7c-0.3-0.1-0.4-0.3-0.5-0.5c0-0.3,0.1-0.5,0.3-0.6c9.2-4.5,8.6-14.2,8.6-14.6
		c0-0.3,0.2-0.6,0.4-0.6c0.3-0.1,0.6,0,0.7,0.3c7.5,11.7,16.2,7.6,16.2,7.5c0.3-0.1,0.6-0.1,0.8,0.2c0.2,0.2,0.2,0.6,0,0.8
		c-1.7,2.1-2.4,4.3-2.1,6.6c0.7,5.3,6.1,9.4,6.2,9.5c0.2,0.1,0.3,0.4,0.2,0.6c0,0.2-0.2,0.4-0.4,0.5c-2.3,0.7-4.3,2.3-5.9,4.9
		c-0.1,0.1-0.2,0.2-0.3,0.3C48,49,47,50,46.4,51.2c-0.1,0.2-0.2,0.3-0.4,0.3c-0.2,0-0.3,0-0.5-0.1c-2.2-1.3-5.1-1.1-7.2,0.3
		C38.2,51.9,38.1,51.9,38,51.9z M33,49.5c1.1,0.1,2.9,0.4,4.9,1.1c2.3-1.4,5.2-1.6,7.7-0.5c0.7-1.2,1.8-2.1,3.1-2.6
		c1.5-2.3,3.3-4,5.4-4.8c-1.7-1.5-5.2-5.1-5.8-9.6c-0.3-2.1,0.2-4.1,1.3-6c-3,0.7-9.2,0.8-14.9-6.9c-0.3,3.2-1.7,9.4-7.9,13.1
		c1.9,0.7,5.2,2.5,6.8,5.9C34.9,42,34.7,45.5,33,49.5z"/>
	<ellipse transform="matrix(0.5149 -0.8572 0.8572 0.5149 -9.0873 45.277)" class="st8" cx="35.5" cy="30.7" rx="2.6" ry="1.6"/>
	<ellipse transform="matrix(0.5149 -0.8572 0.8572 0.5149 -46.4104 62.6426)" class="st8" cx="32.1" cy="72.3" rx="1.4" ry="0.9"/>
	<ellipse transform="matrix(0.5149 -0.8572 0.8572 0.5149 -22.767 86.6258)" class="st8" cx="65.2" cy="63.4" rx="1.4" ry="0.9"/>
	<ellipse transform="matrix(0.5149 -0.8572 0.8572 0.5149 -12.4022 50.0595)" class="st8" cx="38" cy="36" rx="1.4" ry="0.9"/>
</g>
</svg>
