<?xml version="1.0" encoding="utf-8"?>
<!-- Generator: Adobe Illustrator 19.1.0, SVG Export Plug-In . SVG Version: 6.00 Build 0)  -->
<svg version="1.1" id="Layer_1" xmlns="http://www.w3.org/2000/svg" xmlns:xlink="http://www.w3.org/1999/xlink" x="0px" y="0px"
	 viewBox="0 0 100 100" style="enable-background:new 0 0 100 100;" xml:space="preserve">
<style type="text/css">
	.st0{fill:#F1F1F2;}
	.st1{fill:#640F13;}
	.st2{fill:#FCE8D0;}
	.st3{fill:#E6E7E8;}
	.st4{fill:#DB4342;}
	.st5{fill:#FACCAA;}
	.st6{fill:#FFFFFF;}
	.st7{fill:#C83D3C;}
	.st8{fill:#98CF97;}
	.st9{fill:#83B585;}
	.st10{fill:#E86363;}
	.st11{fill:#FFDF00;}
	.st12{fill:#FFF69D;}
	.st13{fill:#FFF5CA;}
	.st14{fill:#D0AF8B;}
	.st15{fill:#BC3839;}
	.st16{fill:#E8DEB9;}
	.st17{fill:#DFC0A9;}
	.st18{fill:#640F14;}
	.st19{fill:#BADDEE;}
	.st20{fill:#9DD3ED;}
	.st21{fill:#D17663;}
	.st22{fill:#839CC1;}
	.st23{fill:#E0D682;}
	.st24{fill:#E07B25;}
	.st25{fill:#77A9C3;}
	.st26{fill:#008BB3;}
	.st27{fill:#2385A5;}
	.st28{fill:#6CADCA;}
	.st29{fill:#DBDCDD;}
	.st30{fill:#7AB17B;}
	.st31{fill:#C3996B;}
	.st32{fill:#B18C62;}
	.st33{fill:#D7B492;}
	.st34{fill:#F27575;}
	.st35{fill:#992E34;}
	.st36{fill:#D0D2D3;}
	.st37{fill:#AE3334;}
	.st38{fill:#A9865E;}
	.st39{fill:#231F20;}
	.st40{fill:#FCC010;}
	.st41{fill:#F4EDB8;}
	.st42{fill:#E29E16;}
</style>
<g>
	<path class="st1" d="M60.5,24.8c0.3,0,0.7,0.1,1,0.2c1.6,0.6,2.4,2.3,1.9,4c-0.1,0.3-0.2,0.5-0.4,0.7l0,0c1,0.8,1.8,1.8,2.4,3.1
		c0.8,1.7,1.1,3.4,0.8,5.1l0,0l0,0c1.9,1.8,3.5,3.9,4.7,6.4c2.3,4.7,2.7,9.9,1.6,14.7c0,0,0,0,0,0c0.6,0.6,0.9,1,0.9,1.1
		c0.6,0.9,0.4,2-0.5,2.6c-0.3,0.2-0.7,0.3-1.1,0.3c-0.2,0-0.4,0-0.6-0.1c0,0-0.1,0-0.1,0l0,0c-2,4.6-5.6,8.5-10.5,10.9
		c-3.1,1.5-6.4,2.2-9.6,2.2c-8.2,0-16-4.6-19.9-12.4c-2.4-4.9-2.8-10.2-1.5-15l0,0c-0.6-0.2-1.1-0.6-1.3-1.3c-0.3-1,0.3-2,1.3-2.3
		c0.1,0,0.6-0.2,1.4-0.3c2.1-4.4,5.6-8.2,10.3-10.5c2.5-1.2,5.1-1.9,7.7-2.1h0c0.9-1.5,2.2-2.7,3.8-3.5c1.3-0.6,2.7-0.9,4-0.9
		c0.1,0,0.2,0,0.3,0h0h0c0-0.2,0.1-0.4,0.1-0.6C58,25.7,59.2,24.8,60.5,24.8 M60.5,22.3L60.5,22.3c-2,0-3.9,1.1-4.9,2.9
		c-1.3,0.2-2.5,0.5-3.7,1.1c-1.6,0.8-3.1,1.9-4.2,3.4c-2.6,0.3-5.1,1.1-7.4,2.2c-4.7,2.3-8.5,6-11,10.5c-0.2,0.1-0.4,0.1-0.4,0.1
		c-2.3,0.7-3.7,3.1-3,5.5c0.2,0.6,0.5,1.2,0.9,1.6C26,54.7,26.7,60,29,64.7c4.1,8.4,12.8,13.9,22.1,13.9c3.7,0,7.3-0.8,10.7-2.5
		c4.7-2.3,8.5-6,11-10.5c0.6-0.1,1.2-0.4,1.7-0.7c1-0.7,1.6-1.7,1.8-2.9c0.2-1.2-0.1-2.3-0.7-3.3c0,0-0.1-0.1-0.3-0.3
		c0.9-5.1,0.2-10.4-2.1-15.1c-1.1-2.3-2.6-4.4-4.4-6.3c0-1.8-0.4-3.6-1.2-5.2c-0.5-0.9-1-1.8-1.7-2.6c0.6-2.8-0.9-5.6-3.6-6.5
		C61.7,22.4,61.1,22.3,60.5,22.3L60.5,22.3z"/>
	<g>
		<path class="st0" d="M66.2,37.9c0.2-1.7,0-3.5-0.8-5.1c-2.2-4.6-7.7-6.5-12.3-4.3c-1.7,0.8-2.9,2-3.8,3.5
			C55.4,31.5,61.6,33.6,66.2,37.9z"/>
		<path class="st1" d="M66.2,38.6c-0.2,0-0.3-0.1-0.4-0.2c-4.4-4.2-10.4-6.3-16.5-5.7c-0.2,0-0.5-0.1-0.6-0.3
			c-0.1-0.2-0.1-0.5,0-0.7c1-1.6,2.4-2.9,4.1-3.7c2.4-1.1,5-1.3,7.5-0.4c2.5,0.9,4.5,2.6,5.6,5c0.8,1.7,1.1,3.6,0.9,5.5
			c0,0.2-0.2,0.4-0.4,0.5C66.3,38.5,66.2,38.6,66.2,38.6z M51.1,31.3c5.3,0,10.5,1.9,14.5,5.3c0-1.2-0.3-2.4-0.9-3.5
			c-1-2.1-2.7-3.6-4.9-4.4c-2.2-0.8-4.5-0.6-6.6,0.4c-1.1,0.5-2.1,1.3-2.8,2.2C50.6,31.3,50.8,31.3,51.1,31.3z"/>
	</g>
	<g>
		<g>
			<path class="st4" d="M53.3,47.4c11.4,4,17.1,9.3,19.2,11.6c1.1-4.8,0.7-9.9-1.6-14.7c-5.3-11-18.5-15.5-29.4-10.2
				c-4.7,2.3-8.3,6.1-10.3,10.5C34.1,44.1,41.9,43.5,53.3,47.4z"/>
			<path class="st1" d="M72.5,59.6c-0.2,0-0.3-0.1-0.5-0.2C70.1,57.3,64.5,52,53.1,48c-11.4-3.9-19.1-3.3-21.9-2.8
				c-0.2,0-0.5-0.1-0.6-0.2c-0.1-0.2-0.2-0.4-0.1-0.6c2.2-4.7,6-8.5,10.6-10.8c11.3-5.4,24.8-0.7,30.3,10.5c2.3,4.7,2.9,10,1.7,15.1
				c-0.1,0.2-0.2,0.4-0.5,0.5C72.6,59.6,72.6,59.6,72.5,59.6z M36.1,43.6c4.1,0,10,0.6,17.4,3.2c10.3,3.6,16,8.3,18.6,10.9
				c0.8-4.4,0.2-9-1.8-13.1c-5.1-10.6-18-15.1-28.6-9.9c-4.1,2-7.4,5.2-9.5,9.1C33.2,43.7,34.5,43.6,36.1,43.6z"/>
		</g>
		<g>
			<path class="st4" d="M70.3,62.3c0-0.1-4.9-6.7-18.2-11.3c-13.3-4.6-21.3-2.5-21.3-2.4c-0.4,0.1-0.7,0.1-1.1,0
				c-1.2,4.9-0.8,10.2,1.5,15c5.3,11,18.5,15.5,29.4,10.2c4.9-2.4,8.5-6.3,10.5-10.9C70.9,62.8,70.6,62.6,70.3,62.3z"/>
			<path class="st1" d="M51.1,76.6c-8.4,0-16.5-4.7-20.4-12.8c-2.3-4.8-2.9-10.3-1.6-15.5c0-0.2,0.2-0.3,0.3-0.4
				c0.1-0.1,0.3-0.1,0.5-0.1c0.2,0.1,0.5,0.1,0.7,0c0.1,0,8.1-2.3,21.7,2.5c13.5,4.7,18.5,11.5,18.6,11.5c0,0,0,0,0,0
				c0.1,0.2,0.3,0.3,0.6,0.4c0.2,0.1,0.3,0.2,0.3,0.3c0.1,0.2,0.1,0.3,0,0.5c-2.2,4.9-6,8.8-10.8,11.2
				C57.8,75.9,54.4,76.6,51.1,76.6z M30.2,49.2c-1.1,4.7-0.5,9.7,1.6,14.1c5.1,10.6,18,15.1,28.6,9.9c4.4-2.1,7.9-5.7,10-10
				c-0.2-0.2-0.4-0.3-0.5-0.5c-0.1-0.2-5-6.6-17.9-11.1c-13.1-4.5-20.9-2.5-21-2.4C30.7,49.2,30.4,49.3,30.2,49.2z"/>
		</g>
	</g>
	<circle class="st34" cx="48.7" cy="48" r="15.1"/>
	<ellipse transform="matrix(0.9446 0.3281 -0.3281 0.9446 25.6339 -11.0884)" class="st15" cx="45.7" cy="70.4" rx="6.8" ry="2.2"/>
	<g>
		<path class="st4" d="M71.3,63c-0.4-0.1-0.7-0.4-0.9-0.7c0-0.1-4.9-6.7-18.2-11.3c-13.3-4.6-21.3-2.5-21.3-2.4
			c-1,0.3-2-0.3-2.3-1.3c-0.3-1,0.3-2,1.3-2.3c0.4-0.1,9.1-2.6,23.6,2.5s19.9,12.4,20.1,12.7c0.6,0.9,0.4,2-0.5,2.6
			C72.5,63.1,71.8,63.2,71.3,63z"/>
		<path class="st1" d="M71.9,63.7c-0.3,0-0.6,0-0.8-0.1h0c-0.5-0.2-0.9-0.5-1.2-0.9c0-0.1-4.9-6.5-17.9-11.1
			c-13.1-4.5-20.9-2.5-21-2.4c-1.3,0.4-2.7-0.4-3.1-1.7c-0.4-1.3,0.4-2.7,1.7-3.1c0.4-0.1,9.2-2.6,24,2.5
			c14.7,5.1,20.2,12.6,20.4,12.9c0.4,0.5,0.5,1.2,0.4,1.9c-0.1,0.7-0.5,1.2-1,1.6C72.9,63.6,72.4,63.7,71.9,63.7z M71.5,62.4
			c0.4,0.1,0.8,0.1,1.1-0.2c0.3-0.2,0.5-0.5,0.5-0.8c0.1-0.3,0-0.7-0.2-0.9C72.7,60.2,67.5,53,53.1,48c-14.4-5-22.9-2.6-23.2-2.5
			c-0.7,0.2-1,0.9-0.8,1.6c0.2,0.7,0.9,1.1,1.6,0.9c0.1,0,8.1-2.3,21.7,2.5c13.5,4.7,18.5,11.5,18.6,11.5
			C71,62.1,71.2,62.3,71.5,62.4L71.5,62.4z"/>
	</g>
	<g>
		<path class="st11" d="M62.9,29.8c0.2-0.2,0.3-0.5,0.4-0.7c0.6-1.7-0.3-3.4-1.9-4c-1.6-0.6-3.4,0.3-3.9,2c-0.1,0.2-0.1,0.4-0.1,0.6
			C59.4,27.7,61.3,28.4,62.9,29.8z"/>
		<path class="st1" d="M62.9,30.4c-0.1,0-0.3-0.1-0.4-0.1c-1.5-1.2-3.3-1.9-5.2-2c-0.2,0-0.3-0.1-0.5-0.2c-0.1-0.1-0.2-0.3-0.1-0.5
			c0-0.2,0.1-0.5,0.2-0.7c0.7-2,2.8-3,4.7-2.4c0.9,0.3,1.7,1,2.1,1.9c0.4,0.9,0.5,1.9,0.1,2.9c-0.1,0.3-0.2,0.6-0.5,0.9
			C63.3,30.3,63.2,30.4,62.9,30.4C63,30.4,62.9,30.4,62.9,30.4z M58.2,27.1c1.6,0.2,3.2,0.8,4.6,1.8c0.2-0.6,0.2-1.3-0.1-1.9
			c-0.3-0.6-0.8-1-1.4-1.3C60,25.2,58.7,25.8,58.2,27.1z"/>
	</g>
	<circle class="st15" cx="42.8" cy="40.2" r="1.8"/>
	<circle class="st15" cx="55.2" cy="43.1" r="1.8"/>
	<circle class="st15" cx="66.7" cy="48.4" r="1.8"/>
	<circle class="st15" cx="38.2" cy="53.5" r="1.8"/>
	<circle class="st15" cx="50.5" cy="56.4" r="1.8"/>
	<circle class="st15" cx="62" cy="61.8" r="1.8"/>
	<path class="st34" d="M32.5,44.4c-0.7,1.2-1.1,2.6-1.3,4c1.9-0.4,9.4-1.4,20.8,2.6c1.3,0.5,2.6,0.9,3.7,1.4
		c0.1-0.7,0.2-1.4,0.2-2.2c0-0.6-0.1-1.3-0.2-1.9c-0.8-0.3-1.7-0.6-2.5-0.9C43.4,44,36.2,44,32.5,44.4z"/>
	<path class="st1" d="M71.9,63.7c-0.3,0-0.6,0-0.8-0.1h0c-0.5-0.2-0.9-0.5-1.2-0.9c0-0.1-4.9-6.5-17.9-11.1
		c-13.1-4.5-20.9-2.5-21-2.4c-1.3,0.4-2.7-0.4-3.1-1.7c-0.4-1.3,0.4-2.7,1.7-3.1c0.4-0.1,9.2-2.6,24,2.5
		c14.7,5.1,20.2,12.6,20.4,12.9c0.4,0.5,0.5,1.2,0.4,1.9c-0.1,0.7-0.5,1.2-1,1.6C72.9,63.6,72.4,63.7,71.9,63.7z M71.5,62.4
		c0.4,0.1,0.8,0.1,1.1-0.2c0.3-0.2,0.5-0.5,0.5-0.8c0.1-0.3,0-0.7-0.2-0.9C72.7,60.2,67.5,53,53.1,48c-14.4-5-22.9-2.6-23.2-2.5
		c-0.7,0.2-1,0.9-0.8,1.6c0.2,0.7,0.9,1.1,1.6,0.9c0.1,0,8.1-2.3,21.7,2.5c13.5,4.7,18.5,11.5,18.6,11.5
		C71,62.1,71.2,62.3,71.5,62.4L71.5,62.4z"/>
	<ellipse class="st6" cx="35.7" cy="46" rx="2.5" ry="0.6"/>
	<ellipse class="st35" cx="42.8" cy="41" rx="0.8" ry="0.5"/>
	<ellipse class="st35" cx="55.2" cy="44" rx="0.8" ry="0.5"/>
	<ellipse class="st35" cx="66.7" cy="49.4" rx="0.8" ry="0.5"/>
	<ellipse class="st35" cx="62" cy="62.5" rx="0.8" ry="0.5"/>
	<ellipse class="st35" cx="50.5" cy="57.3" rx="0.8" ry="0.5"/>
	<ellipse class="st35" cx="38.2" cy="54.2" rx="0.8" ry="0.5"/>
	<ellipse class="st6" cx="42.4" cy="39.4" rx="0.4" ry="0.3"/>
	<ellipse class="st6" cx="54.8" cy="42.3" rx="0.4" ry="0.3"/>
	<ellipse class="st6" cx="49.7" cy="55.7" rx="0.4" ry="0.3"/>
	<ellipse class="st6" cx="37.8" cy="52.4" rx="0.4" ry="0.3"/>
	<path class="st36" d="M51.1,29.8c0,0,7.8-1.9,14.6,4c0,0,0.9,1.6,0.4,4.1c0,0-4.9-6.7-17.4-5.9L51.1,29.8z"/>
	<path class="st1" d="M66.2,38.6c-0.2,0-0.3-0.1-0.4-0.2c-4.4-4.2-10.4-6.3-16.5-5.7c-0.2,0-0.5-0.1-0.6-0.3c-0.1-0.2-0.1-0.5,0-0.7
		c1-1.6,2.4-2.9,4.1-3.7c2.4-1.1,5-1.3,7.5-0.4c2.5,0.9,4.5,2.6,5.6,5c0.8,1.7,1.1,3.6,0.9,5.5c0,0.2-0.2,0.4-0.4,0.5
		C66.3,38.5,66.2,38.6,66.2,38.6z M51.1,31.3c5.3,0,10.5,1.9,14.5,5.3c0-1.2-0.3-2.4-0.9-3.5c-1-2.1-2.7-3.6-4.9-4.4
		c-2.2-0.8-4.5-0.6-6.6,0.4c-1.1,0.5-2.1,1.3-2.8,2.2C50.6,31.3,50.8,31.3,51.1,31.3z"/>
	<path class="st37" d="M66.7,61.8c0,0-1.8,6.6-9.1,10.1c0,0,6.1,0,11.3-8.2L66.7,61.8z"/>
</g>
</svg>
