<?xml version="1.0" encoding="iso-8859-1"?>
<!-- Generator: Adobe Illustrator 16.0.4, SVG Export Plug-In . SVG Version: 6.00 Build 0)  -->
<!DOCTYPE svg PUBLIC "-//W3C//DTD SVG 1.1//EN" "http://www.w3.org/Graphics/SVG/1.1/DTD/svg11.dtd">
<svg version="1.1" id="Layer_1" xmlns="http://www.w3.org/2000/svg" xmlns:xlink="http://www.w3.org/1999/xlink" x="0px" y="0px"
	 width="75.828px" height="49.363px" viewBox="0 0 75.828 49.363" style="enable-background:new 0 0 75.828 49.363;"
	 xml:space="preserve">
<g>
	<path d="M63.393,0.739c-8.129,2.49-27.51,11.828-27.51,11.828L15.877,21.28c0,0-2.182,3.431-8.129-2.49
		c0,0-3.751-3.734-6.252-3.113c-2.501,0.624-1.25,2.49-0.625,3.735S5.873,31.24,5.873,31.24s4.375,4.979,20.63-1.869
		c16.257-6.848,12.505-4.979,12.505-4.979l-4.376,23.652c0,0,0,2.49,2.502,0.624c2.501-1.869,4.375-3.734,4.375-3.734l12.505-27.389
		c0,0,18.756-8.717,21.258-11.828C77.771,2.605,71.52-1.752,63.393,0.739z"/>
	<path d="M16.501,6.341l10.629,6.847c0,0,11.253-4.98,10.627-4.98c-0.624,0-14.378-5.603-17.506-4.979
		c-3.125,0.624-5.001,1.865-5.001,1.865S14.625,5.094,16.501,6.341z"/>
</g>
</svg>
