<?xml version="1.0" encoding="iso-8859-1"?>
<!-- Generator: Adobe Illustrator 16.0.4, SVG Export Plug-In . SVG Version: 6.00 Build 0)  -->
<!DOCTYPE svg PUBLIC "-//W3C//DTD SVG 1.1//EN" "http://www.w3.org/Graphics/SVG/1.1/DTD/svg11.dtd">
<svg version="1.1" id="Layer_1" xmlns="http://www.w3.org/2000/svg" xmlns:xlink="http://www.w3.org/1999/xlink" x="0px" y="0px"
	 width="33.933px" height="38.503px" viewBox="0 0 33.933 38.503" style="enable-background:new 0 0 33.933 38.503;"
	 xml:space="preserve">
<path d="M32.26,19.106c0-4.329-1.803-8.239-4.698-11.023l1.36-1.36l3.226,3.22c1.098-1.046,1.784-2.529,1.784-4.166
	C33.933,2.585,31.343,0,28.15,0c-1.637,0-3.119,0.684-4.174,1.783l3.06,3.057L25.47,6.402c-2.087-1.399-4.542-2.301-7.186-2.527
	V1.897c0-0.737-0.596-1.332-1.335-1.332c-0.733,0-1.333,0.595-1.333,1.332v1.978c-2.689,0.23-5.174,1.156-7.283,2.594L6.171,4.31
	L8.92,1.56C7.977,0.614,6.669,0.028,5.227,0.028C2.335,0.028,0,2.369,0,5.251c0,1.441,0.582,2.748,1.53,3.694l2.755-2.75
	l1.975,1.971c-2.846,2.778-4.613,6.653-4.613,10.939c0,5.577,2.99,10.461,7.456,13.13l-3.994,3.991c-0.52,0.518-0.52,1.365,0,1.883
	c0.263,0.263,0.605,0.393,0.943,0.393c0.343,0,0.686-0.13,0.944-0.393l4.662-4.656c1.651,0.609,3.436,0.941,5.294,0.941
	c1.86,0,3.644-0.332,5.294-0.941l4.663,4.656c0.263,0.263,0.604,0.393,0.948,0.393c0.338,0,0.681-0.13,0.944-0.393
	c0.52-0.519,0.52-1.365,0-1.883l-3.996-3.991C29.27,29.562,32.26,24.683,32.26,19.106z M21.03,23.181
	c-0.257,0.263-0.6,0.39-0.942,0.39c-0.126,0-0.25-0.016-0.375-0.049c-0.21-0.06-0.404-0.176-0.569-0.341l-3.137-3.134
	c-0.031-0.031-0.063-0.065-0.088-0.1c-0.085-0.1-0.147-0.209-0.197-0.321c-0.017-0.044-0.035-0.093-0.048-0.142
	c-0.014-0.042-0.028-0.082-0.033-0.125c-0.003-0.016-0.009-0.035-0.009-0.054c-0.013-0.065-0.016-0.132-0.016-0.2V13.38
	c0-0.734,0.6-1.334,1.333-1.334c0.739,0,1.335,0.6,1.335,1.334v5.175l2.26,2.257l0.484,0.484c0.165,0.165,0.281,0.36,0.343,0.569
	C21.497,22.319,21.387,22.825,21.03,23.181z"/>
</svg>
