<?xml version="1.0" encoding="iso-8859-1"?>
<!-- Generator: Adobe Illustrator 16.0.4, SVG Export Plug-In . SVG Version: 6.00 Build 0)  -->
<!DOCTYPE svg PUBLIC "-//W3C//DTD SVG 1.1//EN" "http://www.w3.org/Graphics/SVG/1.1/DTD/svg11.dtd">
<svg version="1.1" id="Layer_1" xmlns="http://www.w3.org/2000/svg" xmlns:xlink="http://www.w3.org/1999/xlink" x="0px" y="0px"
	 width="51.18px" height="70.094px" viewBox="0 0 51.18 70.094" style="enable-background:new 0 0 51.18 70.094;"
	 xml:space="preserve">
<g>
	<path d="M40.594,0c-1.041,0-1.992,0.443-2.864,1.23H13.444C12.572,0.443,11.621,0,10.581,0C9.428,0,8.383,0.541,7.436,1.496
		c-0.674,0.335-1.18,0.968-1.344,1.725C1.809,9.957,0,25.516,0,33.005C0,42.156,2.135,51.74,6.173,55.83
		c0.34,0.999,1.277,1.716,2.39,1.716h0.17c0.589,0.215,1.205,0.328,1.849,0.328s1.259-0.113,1.849-0.328h0.651v5.376h-2.009
		c-0.738,0-1.34,0.604-1.34,1.346c0,0.741,0.602,1.344,1.34,1.344h2.009v3.14c0,0.743,0.604,1.345,1.34,1.345
		c0.742,0,1.341-0.602,1.341-1.345v-3.14h0.894c0.741,0,1.34-0.603,1.34-1.344c0-0.742-0.599-1.346-1.34-1.346h-0.894v-5.376H35.97
		v5.376H33.96c-0.739,0-1.34,0.604-1.34,1.346c0,0.741,0.602,1.344,1.34,1.344h2.011v3.14c0,0.743,0.603,1.345,1.34,1.345
		c0.741,0,1.34-0.602,1.34-1.345v-3.14h0.894c0.74,0,1.34-0.603,1.34-1.344c0-0.742-0.601-1.346-1.34-1.346H38.65v-5.376h0.094
		c0.589,0.215,1.206,0.328,1.849,0.328c0.651,0,1.272-0.117,1.867-0.333c0.871-0.044,1.622-0.527,2.04-1.243
		c4.365-3.776,6.679-13.771,6.679-23.293C51.179,23.293,48.133,0,40.594,0z M38.38,48.887v1.264h-1.728h-0.68H32.8H18.374h-2.611
		H14.53h-1.448h-0.856V38.605h5.109h3.568h9.375h3.573h4.528V48.887z M44.854,49.452V24.684c-0.089,0.035-0.183,0.054-0.285,0.054
		h-10.51H30.5h-9.82h-3.561h-10.8H6.034V48.73c-1.416-3.68-2.461-9.049-2.461-15.726c0-6.152,0.943-13.681,2.461-19.704v9.831h0.285
		h10.612H20.5h10.179h3.562h10.327c0.103,0,0.196,0.019,0.285,0.054V12.189c0.077,0.281,0.158,0.577,0.231,0.876
		c1.556,6.063,2.52,13.704,2.52,19.939C47.605,40.13,46.413,45.773,44.854,49.452z"/>
	<polygon points="20.671,40.627 17.097,40.627 14.24,40.627 14.24,48.13 15.356,48.13 19.081,48.13 32.096,48.13 35.825,48.13 
		36.366,48.13 36.366,40.627 36.365,40.627 34.082,40.627 30.509,40.627 	"/>
</g>
</svg>
