<?xml version="1.0" encoding="iso-8859-1"?>
<!-- Generator: Adobe Illustrator 16.0.4, SVG Export Plug-In . SVG Version: 6.00 Build 0)  -->
<!DOCTYPE svg PUBLIC "-//W3C//DTD SVG 1.1//EN" "http://www.w3.org/Graphics/SVG/1.1/DTD/svg11.dtd">
<svg version="1.1" id="Layer_1" xmlns="http://www.w3.org/2000/svg" xmlns:xlink="http://www.w3.org/1999/xlink" x="0px" y="0px"
	 width="61.527px" height="61.479px" viewBox="0 0 61.527 61.479" style="enable-background:new 0 0 61.527 61.479;"
	 xml:space="preserve">
<path d="M57.861,16.176l-1.538,1.539c-0.26,0.262-0.605,0.393-0.949,0.393c-0.345,0-0.689-0.131-0.948-0.393
	c-0.523-0.523-0.523-1.373,0-1.897l2.013-2.012C50.935,5.486,41.489,0,30.764,0C13.772,0,0,13.761,0,30.737
	c0,7.584,2.747,14.52,7.298,19.876l2.38-2.379c0.524-0.524,1.374-0.524,1.898,0c0.523,0.524,0.523,1.373,0,1.895L9.124,52.58
	c5.557,5.5,13.2,8.898,21.64,8.898c4.193,0,8.189-0.842,11.829-2.358l-1.627-1.761c-0.507-0.545-0.471-1.389,0.071-1.895
	c0.545-0.505,1.395-0.47,1.896,0.07l2.208,2.384c9.745-5.156,16.386-15.394,16.386-27.181
	C61.527,25.467,60.197,20.508,57.861,16.176z M9.02,32.335c-0.2,0.107-0.416,0.161-0.631,0.161c-0.479,0-0.944-0.26-1.186-0.711
	l-2.237-4.181c-0.35-0.652-0.103-1.466,0.555-1.815c0.653-0.349,1.463-0.103,1.817,0.55l2.237,4.18
	C9.925,31.172,9.678,31.986,9.02,32.335z M29.667,5.476c0.676-0.295,1.468,0.014,1.769,0.692l1.905,4.344
	c0.296,0.678-0.012,1.469-0.693,1.764c-0.175,0.082-0.358,0.117-0.537,0.117c-0.514,0-1.011-0.299-1.23-0.805l-1.907-4.342
	C28.677,6.568,28.987,5.776,29.667,5.476z M16.61,13.801l-3.356,3.354c-0.259,0.264-0.604,0.393-0.948,0.393
	c-0.345,0-0.689-0.129-0.949-0.393c-0.523-0.524-0.523-1.373,0-1.897l3.356-3.352c0.524-0.524,1.373-0.524,1.897,0
	C17.133,12.428,17.133,13.28,16.61,13.801z M29.716,56.515c-0.201,0.108-0.416,0.157-0.631,0.157c-0.479,0-0.943-0.255-1.187-0.707
	l-2.236-4.185c-0.35-0.653-0.103-1.467,0.555-1.815c0.653-0.349,1.462-0.103,1.815,0.55l2.238,4.185
	C30.62,55.352,30.374,56.166,29.716,56.515z M42.804,41.003c0.501,0.545,0.469,1.396-0.077,1.897
	c-0.254,0.241-0.585,0.358-0.907,0.358c-0.363,0-0.725-0.143-0.989-0.43l-1.956-2.115c-2.21,1.801-5.038,2.879-8.111,2.879
	c-2.936,0-5.643-0.982-7.809-2.643c-0.054,0.087-0.116,0.167-0.192,0.239l-3.357,3.352c-0.259,0.264-0.604,0.393-0.948,0.393
	c-0.344,0-0.689-0.129-0.948-0.393c-0.524-0.524-0.524-1.373,0-1.895l3.356-3.354c0.054-0.054,0.111-0.103,0.173-0.142
	c-1.959-2.253-3.14-5.196-3.14-8.412c0-7.099,5.759-12.854,12.865-12.854c7.105,0,12.864,5.755,12.864,12.854
	c0,3.06-1.07,5.867-2.86,8.073v0.004L42.804,41.003z M44.371,16.11c-0.676-0.297-0.985-1.087-0.689-1.769L45.588,10
	c0.3-0.678,1.091-0.987,1.772-0.692c0.675,0.3,0.983,1.092,0.688,1.771l-1.907,4.342c-0.222,0.505-0.715,0.805-1.23,0.805
	C44.732,16.225,44.55,16.185,44.371,16.11z M50.818,46.943l-3.481,3.223c-0.259,0.241-0.585,0.358-0.912,0.358
	c-0.364,0-0.721-0.143-0.986-0.43c-0.506-0.541-0.469-1.39,0.073-1.895l3.481-3.223c0.541-0.508,1.392-0.475,1.896,0.07
	C51.395,45.586,51.36,46.438,50.818,46.943z M54.286,32.526c-0.246,0.43-0.698,0.671-1.164,0.671c-0.228,0-0.457-0.059-0.671-0.178
	l-4.112-2.363c-0.644-0.369-0.864-1.188-0.497-1.831c0.372-0.641,1.191-0.863,1.835-0.494l4.112,2.36
	C54.434,31.064,54.658,31.883,54.286,32.526z"/>
</svg>
