<?xml version="1.0" encoding="iso-8859-1"?>
<!-- Generator: Adobe Illustrator 16.0.4, SVG Export Plug-In . SVG Version: 6.00 Build 0)  -->
<!DOCTYPE svg PUBLIC "-//W3C//DTD SVG 1.1//EN" "http://www.w3.org/Graphics/SVG/1.1/DTD/svg11.dtd">
<svg version="1.1" id="Layer_1" xmlns="http://www.w3.org/2000/svg" xmlns:xlink="http://www.w3.org/1999/xlink" x="0px" y="0px"
	 width="45.855px" height="37.62px" viewBox="0 0 45.855 37.62" style="enable-background:new 0 0 45.855 37.62;"
	 xml:space="preserve">
<path style="fill:none;" d="M36.778,17.533c0.197-0.115,0.407-0.214,0.626-0.297C37.198,17.34,36.989,17.438,36.778,17.533z"/>
<path d="M0.022,30.952c1.229,1.187,2.637,2.232,4.193,3.127c5.247,3.03,12.166,4.3,19.395,3.082
	c14.001-2.365,23.859-13.172,22.026-24.134c-0.085-0.518-0.193-1.015-0.33-1.516c-0.185-0.7-0.413-1.373-0.694-2.032l-0.968-5.06
	c0.014-0.231,0-0.452-0.043-0.662c0-0.007,0-0.007,0-0.007c-0.069-1.194-0.939-2.176-2.088-2.287l-4.796-1.455
	c-1.281-0.118-2.42,0.895-2.546,2.263l-0.781,8.406c-0.016,0.169-0.012,0.344,0.001,0.511c-0.042,0.09-0.082,0.177-0.112,0.266
	c0.013,0.563-0.022,1.118-0.118,1.672c-0.984,5.819-7.8,11.192-16.762,12.702c-2.729,0.464-5.382,0.518-7.835,0.235
	c-0.292-0.038-0.582-0.075-0.863-0.115c-0.711-0.063-1.467-0.032-2.246,0.097C2.148,26.608-0.257,28.786,0.022,30.952z"/>
</svg>
