<?xml version="1.0" encoding="iso-8859-1"?>
<!-- Generator: Adobe Illustrator 16.0.4, SVG Export Plug-In . SVG Version: 6.00 Build 0)  -->
<!DOCTYPE svg PUBLIC "-//W3C//DTD SVG 1.1//EN" "http://www.w3.org/Graphics/SVG/1.1/DTD/svg11.dtd">
<svg version="1.1" id="Layer_1" xmlns="http://www.w3.org/2000/svg" xmlns:xlink="http://www.w3.org/1999/xlink" x="0px" y="0px"
	 width="44.855px" height="44.82px" viewBox="0 0 44.855 44.82" style="enable-background:new 0 0 44.855 44.82;"
	 xml:space="preserve">
<path d="M38.289,6.562C34.053,2.329,28.417,0,22.43,0C16.439,0,10.807,2.329,6.571,6.562C2.336,10.795,0,16.422,0,22.41
	c0,5.983,2.336,11.615,6.571,15.848c4.236,4.233,9.868,6.562,15.858,6.562c5.988,0,11.623-2.329,15.859-6.562
	c4.234-4.233,6.567-9.865,6.567-15.848C44.855,16.422,42.523,10.795,38.289,6.562z M19.242,2.387c0.522-0.522,1.369-0.522,1.892,0
	l1.007,1.007l1.002-1.007c0.521-0.522,1.373-0.522,1.891,0.004c0.527,0.522,0.527,1.368,0,1.888l-1.948,1.949
	C22.826,6.49,22.483,6.62,22.141,6.62c-0.344,0-0.687-0.13-0.944-0.392l-1.955-1.951C18.721,3.755,18.721,2.909,19.242,2.387z
	 M19.452,6.587c0.642-0.368,1.458-0.149,1.827,0.487l0.713,1.229l1.226-0.707c0.644-0.371,1.459-0.149,1.829,0.489
	c0.371,0.637,0.152,1.457-0.491,1.828l-2.385,1.375c-0.208,0.121-0.44,0.179-0.668,0.179c-0.174,0-0.344-0.032-0.504-0.1
	c-0.106-0.04-0.209-0.096-0.303-0.168c-0.045-0.035-0.089-0.072-0.129-0.116c-0.084-0.079-0.16-0.177-0.223-0.285l-0.018-0.028
	l-1.364-2.357C18.596,7.774,18.814,6.958,19.452,6.587z M18.568,10.697c0.714-0.191,1.445,0.231,1.636,0.944l0.37,1.373l1.37-0.366
	c0.717-0.191,1.448,0.233,1.64,0.944c0.191,0.713-0.231,1.445-0.945,1.636l-2.666,0.713c-0.116,0.031-0.232,0.049-0.347,0.049
	c-0.589,0-1.129-0.398-1.289-0.995l-0.713-2.66C17.433,11.618,17.851,10.888,18.568,10.697z M15.31,15.776
	c0-0.739,0.597-1.338,1.337-1.338c0.74,0,1.338,0.599,1.338,1.338v1.42h1.422c0.737,0,1.338,0.599,1.338,1.338
	c0,0.736-0.601,1.335-1.338,1.335h-2.76c-0.37,0-0.699-0.151-0.945-0.392c-0.057-0.063-0.116-0.126-0.164-0.196
	c-0.023-0.035-0.045-0.075-0.068-0.112c-0.062-0.114-0.106-0.24-0.133-0.368c-0.018-0.086-0.027-0.179-0.027-0.268V15.776z
	 M6.287,25.025c0.522,0.52,0.522,1.368,0,1.888c-0.263,0.259-0.603,0.395-0.946,0.395c-0.343,0-0.686-0.135-0.944-0.395
	l-1.953-1.946c-0.521-0.527-0.521-1.373,0-1.893l1.953-1.946c0.521-0.527,1.369-0.527,1.891,0c0.522,0.52,0.522,1.366,0,1.888
	l-1.003,1.007L6.287,25.025z M11.788,25.426c-0.245,0.429-0.696,0.667-1.159,0.667c-0.228,0-0.455-0.057-0.664-0.178l-2.39-1.375
	c-0.643-0.371-0.862-1.191-0.491-1.828l1.382-2.389c0.365-0.636,1.186-0.86,1.823-0.489c0.643,0.371,0.862,1.188,0.491,1.827
	l-0.708,1.229l1.229,0.708C11.939,23.969,12.159,24.79,11.788,25.426z M16.724,22.571c-0.161,0.597-0.705,0.988-1.292,0.988
	c-0.117,0-0.232-0.014-0.349-0.044l-2.661-0.713c-0.712-0.191-1.137-0.923-0.951-1.636l0.72-2.662
	c0.187-0.714,0.921-1.138,1.635-0.951c0.713,0.193,1.137,0.928,0.946,1.641l-0.366,1.373l1.369,0.364
	C16.488,21.121,16.911,21.853,16.724,22.571z M23.719,40.431l-1.954,1.954c-0.262,0.263-0.602,0.391-0.945,0.391
	s-0.687-0.128-0.945-0.391l-1.953-1.946c-0.521-0.527-0.521-1.374,0-1.896c0.526-0.522,1.374-0.522,1.895,0l1.003,1.007l1.003-1.007
	c0.526-0.522,1.37-0.522,1.896,0C24.24,39.064,24.24,39.911,23.719,40.431z M24.515,36.368l-2.388,1.378
	c-0.21,0.124-0.441,0.179-0.668,0.179c-0.459,0-0.91-0.238-1.159-0.669l-1.377-2.384c-0.371-0.642-0.151-1.457,0.49-1.828
	c0.642-0.368,1.458-0.152,1.829,0.492l0.708,1.229l1.23-0.713c0.643-0.368,1.459-0.147,1.829,0.492
	C25.377,35.179,25.159,36,24.515,36.368z M26.345,32.65l-2.667,0.711c-0.115,0.03-0.231,0.044-0.348,0.044
	c-0.293,0-0.578-0.098-0.806-0.27c-0.058-0.047-0.112-0.096-0.161-0.145c-0.054-0.051-0.098-0.11-0.139-0.168
	c-0.04-0.058-0.081-0.125-0.111-0.191c-0.032-0.068-0.058-0.14-0.076-0.214l-0.714-2.665c-0.187-0.713,0.237-1.442,0.949-1.636
	c0.714-0.191,1.445,0.233,1.638,0.944l0.365,1.371l1.373-0.366c0.718-0.193,1.45,0.23,1.641,0.944
	C27.481,31.722,27.058,32.457,26.345,32.65z M29.069,29.524h-2.756c-0.325,0-0.621-0.114-0.851-0.301
	c-0.032-0.032-0.063-0.058-0.095-0.091c-0.245-0.24-0.392-0.576-0.392-0.944v-2.757c0-0.737,0.599-1.333,1.338-1.333
	c0.371,0,0.705,0.147,0.945,0.392c0.245,0.243,0.393,0.576,0.393,0.946v1.415h1.418c0.739,0,1.338,0.604,1.338,1.338
	C30.407,28.927,29.809,29.524,29.069,29.524z M34.15,26.272c-0.161,0.597-0.7,0.988-1.287,0.988c-0.117,0-0.232-0.012-0.349-0.044
	l-2.666-0.718c-0.713-0.191-1.137-0.921-0.945-1.634l0.713-2.659c0.191-0.713,0.921-1.135,1.637-0.949
	c0.712,0.191,1.136,0.928,0.944,1.638l-0.366,1.369l1.374,0.371C33.918,24.825,34.343,25.559,34.15,26.272z M38.262,25.387
	c-0.245,0.427-0.695,0.667-1.159,0.667c-0.224,0-0.455-0.056-0.665-0.177l-2.39-1.382c-0.642-0.368-0.859-1.184-0.49-1.825
	l1.377-2.384c0.371-0.641,1.19-0.86,1.827-0.49c0.643,0.371,0.861,1.185,0.492,1.828l-0.71,1.229l1.23,0.708
	C38.413,23.927,38.631,24.748,38.262,25.387z M42.466,25.597c-0.264,0.261-0.602,0.391-0.944,0.391c-0.345,0-0.688-0.13-0.946-0.391
	l-1.953-1.954c-0.521-0.52-0.521-1.366,0-1.888l1.953-1.946c0.521-0.522,1.368-0.522,1.891,0c0.521,0.52,0.521,1.368,0,1.888
	l-1.003,1.002l1.003,1.007C42.986,24.228,42.986,25.074,42.466,25.597z"/>
</svg>
