<?xml version="1.0" encoding="iso-8859-1"?>
<!-- Generator: Adobe Illustrator 16.0.4, SVG Export Plug-In . SVG Version: 6.00 Build 0)  -->
<!DOCTYPE svg PUBLIC "-//W3C//DTD SVG 1.1//EN" "http://www.w3.org/Graphics/SVG/1.1/DTD/svg11.dtd">
<svg version="1.1" id="Layer_1" xmlns="http://www.w3.org/2000/svg" xmlns:xlink="http://www.w3.org/1999/xlink" x="0px" y="0px"
	 width="52.904px" height="40.668px" viewBox="0 0 52.904 40.668" style="enable-background:new 0 0 52.904 40.668;"
	 xml:space="preserve">
<path d="M52.904,14.767l-6.013,23.986c0,1.056-0.861,1.916-1.925,1.916h-4.667V28.676c0-0.734-0.603-1.338-1.34-1.338
	c-0.741,0-1.34,0.604-1.34,1.338v11.992h-9.827V28.676c0-0.734-0.598-1.338-1.339-1.338c-0.742,0-1.34,0.604-1.34,1.338v11.992
	h-9.827V28.676c0-0.734-0.599-1.338-1.34-1.338c-0.737,0-1.34,0.604-1.34,1.338v11.992H7.937c-1.063,0-1.924-0.86-1.924-1.916
	L0,14.767c0-1.061,0.862-1.918,1.924-1.918h2.677L17.09,0.39c0.522-0.52,1.372-0.52,1.894,0c0.522,0.522,0.522,1.368,0,1.89
	L8.388,12.848h36.127L33.921,2.28c-0.523-0.522-0.523-1.368,0-1.89c0.522-0.52,1.371-0.52,1.893,0l12.49,12.458h2.676
	C52.042,12.848,52.904,13.706,52.904,14.767z"/>
</svg>
