<?xml version="1.0" encoding="iso-8859-1"?>
<!-- Generator: Adobe Illustrator 16.0.4, SVG Export Plug-In . SVG Version: 6.00 Build 0)  -->
<!DOCTYPE svg PUBLIC "-//W3C//DTD SVG 1.1//EN" "http://www.w3.org/Graphics/SVG/1.1/DTD/svg11.dtd">
<svg version="1.1" id="Layer_1" xmlns="http://www.w3.org/2000/svg" xmlns:xlink="http://www.w3.org/1999/xlink" x="0px" y="0px"
	 width="44.832px" height="44.82px" viewBox="0 0 44.832 44.82" style="enable-background:new 0 0 44.832 44.82;"
	 xml:space="preserve">
<g>
	<path d="M44.762,20.669c-0.445,0.099-0.893,0.196-1.33,0.298c-1.984,0.44-3.879,0.904-5.273,1.35
		c-3.936,1.251-4.989,1.853-6.895,4.564l9.318,6.197l1.109,0.739c0.078-0.124,0.15-0.25,0.221-0.375
		C44.146,29.506,45.113,25.088,44.762,20.669z"/>
	<path d="M6.492,22.767c3.929-1.251,4.985-1.854,6.896-4.565l-9.301-6.188l-1.119-0.746c-0.018,0.032-0.041,0.067-0.057,0.103
		c-2.264,4.006-3.23,8.508-2.82,13c0.44-0.093,0.882-0.19,1.318-0.289C3.325,23.643,5.143,23.198,6.492,22.767z"/>
	<path d="M15.611,19.679c-2.308,3.273-3.777,4.188-8.308,5.63c-1.483,0.478-3.462,0.963-5.509,1.422
		c-0.434,0.098-0.87,0.195-1.306,0.289c0.093,0.459,0.208,0.918,0.334,1.373c1.331,4.81,4.16,8.954,8.089,11.901l0.748-1.119
		l10.816-16.262L15.611,19.679z"/>
	<path d="M22.698,24.394L11.883,40.656l-0.745,1.119c0.081,0.044,0.161,0.093,0.241,0.138c3.363,1.901,7.172,2.908,11.017,2.908
		c1.438,0,2.859-0.138,4.245-0.41c-0.084-0.436-0.164-0.876-0.24-1.313c-0.371-2.069-0.687-4.078-0.824-5.629
		c-0.418-4.735-0.146-6.445,1.982-9.842L22.698,24.394z"/>
	<path d="M29.785,29.106c-1.764,2.811-1.911,4.013-1.547,8.124c0.125,1.412,0.41,3.26,0.748,5.193
		c0.08,0.437,0.162,0.882,0.242,1.324c4.328-1.387,8.172-4.068,10.971-7.716l-1.114-0.739L29.785,29.106z"/>
	<path d="M14.867,15.974c1.764-2.808,1.911-4.015,1.545-8.122c-0.129-1.461-0.432-3.385-0.789-5.389
		c-0.079-0.438-0.158-0.878-0.24-1.318C11.041,2.577,7.201,5.323,4.435,9.038l1.118,0.738L14.867,15.974z"/>
	<path d="M21.954,20.69L32.947,4.16l0.738-1.114c-0.078-0.049-0.156-0.093-0.234-0.138C30.088,1.004,26.273,0,22.431,0
		c-1.514,0-3.007,0.154-4.46,0.45c0.085,0.436,0.166,0.876,0.24,1.314c0.388,2.15,0.723,4.243,0.866,5.852
		c0.418,4.74,0.142,6.446-1.982,9.842L21.954,20.69z"/>
	<path d="M29.037,25.397c2.311-3.271,3.781-4.187,8.312-5.63c1.531-0.489,3.598-0.993,5.728-1.47
		c0.437-0.093,0.873-0.189,1.31-0.287c-0.107-0.532-0.232-1.062-0.379-1.589c-1.33-4.81-4.165-8.948-8.09-11.896l-0.743,1.116
		L24.178,22.17L29.037,25.397z"/>
</g>
</svg>
