<?xml version="1.0" encoding="iso-8859-1"?>
<!-- Generator: Adobe Illustrator 16.0.4, SVG Export Plug-In . SVG Version: 6.00 Build 0)  -->
<!DOCTYPE svg PUBLIC "-//W3C//DTD SVG 1.1//EN" "http://www.w3.org/Graphics/SVG/1.1/DTD/svg11.dtd">
<svg version="1.1" id="Layer_1" xmlns="http://www.w3.org/2000/svg" xmlns:xlink="http://www.w3.org/1999/xlink" x="0px" y="0px"
	 width="50.797px" height="69.314px" viewBox="0 0 50.797 69.314" style="enable-background:new 0 0 50.797 69.314;"
	 xml:space="preserve">
<g>
	<path d="M50.158,2.585l-3.26-2.311c-0.678-0.479-1.616-0.315-2.094,0.368l-18.982,27.17c-0.001,0-0.001,0-0.002,0.002l-0.007,0.01
		l-0.566,0.812c-0.073,0.104-0.125,0.213-0.169,0.328l-0.002,0.002L12.486,48.47l5.734,1.043l12.477-16.535l0.018-0.023
		c0.092-0.08,0.178-0.167,0.251-0.271L50.521,4.69C51.001,4.008,50.837,3.065,50.158,2.585z"/>
	<path d="M5.141,66.846l2.222-2.939l-4.327-0.792l-0.992,1.537c-0.036,0.053-0.068,0.102-0.094,0.16v0.002
		c-0.584-0.303-1.316-0.143-1.705,0.415c-0.425,0.607-0.28,1.446,0.323,1.873l2.78,1.971c0.234,0.163,0.502,0.243,0.768,0.243
		c0.42,0,0.834-0.199,1.094-0.571c0.388-0.557,0.293-1.302-0.185-1.751c0,0,0.001,0,0.002-0.002
		C5.066,66.944,5.105,66.896,5.141,66.846z"/>
	<polygon points="4.611,60.671 9.171,61.505 11.886,57.911 6.97,57.014 	"/>
	<polygon points="8.552,54.568 13.698,55.508 16.406,51.919 10.912,50.916 	"/>
</g>
</svg>
