<?xml version="1.0" encoding="iso-8859-1"?>
<!-- Generator: Adobe Illustrator 16.0.4, SVG Export Plug-In . SVG Version: 6.00 Build 0)  -->
<!DOCTYPE svg PUBLIC "-//W3C//DTD SVG 1.1//EN" "http://www.w3.org/Graphics/SVG/1.1/DTD/svg11.dtd">
<svg version="1.1" id="Layer_1" xmlns="http://www.w3.org/2000/svg" xmlns:xlink="http://www.w3.org/1999/xlink" x="0px" y="0px"
	 width="18.386px" height="66.648px" viewBox="0 0 18.386 66.648" style="enable-background:new 0 0 18.386 66.648;"
	 xml:space="preserve">
<path d="M18.381,27.747v-0.11c-0.116-3.165-1.881-5.918-4.464-7.451L13.246,1.039C13.246,0.466,12.66,0,11.937,0H6.45
	C5.728,0,5.141,0.466,5.141,1.039L4.468,20.188c-2.564,1.521-4.317,4.239-4.456,7.376C0,27.597,0,27.625,0,27.66v0.316v35.718
	c0,0.028,0,0.063,0.013,0.091C0,63.825,0,63.86,0,63.9c0,1.514,4.118,2.748,9.193,2.748c5.077,0,9.188-1.234,9.188-2.748
	c0-0.04,0-0.075-0.012-0.115c0.012-0.028,0.012-0.063,0.012-0.091V28.21c0.005-0.073,0.005-0.154,0.005-0.234
	C18.386,27.901,18.386,27.822,18.381,27.747z"/>
</svg>
