<?xml version="1.0" encoding="iso-8859-1"?>
<!-- Generator: Adobe Illustrator 16.0.4, SVG Export Plug-In . SVG Version: 6.00 Build 0)  -->
<!DOCTYPE svg PUBLIC "-//W3C//DTD SVG 1.1//EN" "http://www.w3.org/Graphics/SVG/1.1/DTD/svg11.dtd">
<svg version="1.1" id="Layer_1" xmlns="http://www.w3.org/2000/svg" xmlns:xlink="http://www.w3.org/1999/xlink" x="0px" y="0px"
	 width="40.825px" height="47.695px" viewBox="0 0 40.825 47.695" style="enable-background:new 0 0 40.825 47.695;"
	 xml:space="preserve">
<path d="M40.825,24.734c0-6.49-4.259-12.016-10.147-13.948c0.329-3.105,0.667-4.538,0.667-4.538c0-1.059-0.649-1.966-1.571-2.348
	c-0.121-1.327-1.247-2.362-2.612-2.362c-1.293,0-2.373,0.934-2.584,2.167h-0.832c-0.209-1.232-1.291-2.167-2.584-2.167
	c-0.641,0-1.228,0.229-1.68,0.605C19.263,0.924,18.188,0,16.898,0c-0.995,0-1.864,0.552-2.307,1.364
	c-0.377-0.202-0.811-0.319-1.272-0.319c-0.571,0-1.105,0.183-1.54,0.503c-0.054-0.009-0.113-0.009-0.166-0.009
	c-0.64,0-1.228,0.229-1.679,0.605C9.719,0.924,8.643,0,7.353,0C6.359,0,5.49,0.552,5.046,1.368C4.67,1.161,4.237,1.044,3.775,1.044
	C2.323,1.044,1.15,2.21,1.15,3.65c0,0.15,0.013,0.298,0.04,0.444C0.473,4.549,0,5.344,0,6.248c0,0,1.333,5.739,1.333,19.193
	S0,45.153,0,45.153c0,1.401,1.146,2.542,2.561,2.542h26.225c1.416,0,2.557-1.14,2.557-2.542c0,0-0.442-2.08-0.818-6.422
	C36.495,36.841,40.825,31.282,40.825,24.734z M30.258,35.045c-0.152-2.656-0.256-5.85-0.256-9.604c0-4.498,0.152-8.131,0.351-10.979
	c4.044,1.684,6.89,5.655,6.89,10.271C37.243,29.385,34.354,33.385,30.258,35.045z"/>
</svg>
