<?xml version="1.0" encoding="iso-8859-1"?>
<!-- Generator: Adobe Illustrator 16.0.4, SVG Export Plug-In . SVG Version: 6.00 Build 0)  -->
<!DOCTYPE svg PUBLIC "-//W3C//DTD SVG 1.1//EN" "http://www.w3.org/Graphics/SVG/1.1/DTD/svg11.dtd">
<svg version="1.1" id="Layer_1" xmlns="http://www.w3.org/2000/svg" xmlns:xlink="http://www.w3.org/1999/xlink" x="0px" y="0px"
	 width="56.35px" height="39.065px" viewBox="0 0 56.35 39.065" style="enable-background:new 0 0 56.35 39.065;"
	 xml:space="preserve">
<path d="M47.369,21.08c-0.123,0-0.242,0.014-0.364,0.019l-0.672-3.484h0.624c0.744,0,1.345-0.602,1.345-1.346
	s-0.602-1.349-1.345-1.349h-1.146l-0.47-2.436h3.285c0.743,0,1.344-0.602,1.344-1.346c0-0.745-0.602-1.347-1.344-1.347H38.202
	c-0.742,0-1.345,0.602-1.345,1.347c0,0.745,0.603,1.346,1.345,1.346H42.6l0.472,2.436H16.994l4.364-10.103l0.019-0.042
	c0.677-1.734,1.144-2.079,1.679-2.079h5.44c0.743,0,1.345-0.604,1.345-1.349C29.84,0.602,29.238,0,28.496,0h-5.44
	c-2.684,0-3.728,2.623-4.176,3.769l-7.611,17.616c-0.732-0.193-1.496-0.305-2.288-0.305C4.022,21.08,0,25.107,0,30.074
	c0,4.964,4.022,8.992,8.98,8.992c4.96,0,8.981-4.027,8.981-8.992c0-3.216-1.69-6.029-4.223-7.619l0.916-2.122L30.05,31.911h8.526
	c0.848,4.083,4.461,7.154,8.793,7.154c4.96,0,8.98-4.027,8.98-8.992C56.35,25.107,52.329,21.08,47.369,21.08z M15.754,17.791
	l0.075-0.177h27.763l0.771,3.992c-3.222,1.149-5.598,4.076-5.932,7.61h-7.484L15.754,17.791z"/>
</svg>
