<?xml version="1.0" encoding="iso-8859-1"?>
<!-- Generator: Adobe Illustrator 16.0.4, SVG Export Plug-In . SVG Version: 6.00 Build 0)  -->
<!DOCTYPE svg PUBLIC "-//W3C//DTD SVG 1.1//EN" "http://www.w3.org/Graphics/SVG/1.1/DTD/svg11.dtd">
<svg version="1.1" id="Layer_1" xmlns="http://www.w3.org/2000/svg" xmlns:xlink="http://www.w3.org/1999/xlink" x="0px" y="0px"
	 width="56.929px" height="46.542px" viewBox="0 0 56.929 46.542" style="enable-background:new 0 0 56.929 46.542;"
	 xml:space="preserve">
<path d="M55.588,0L29.802,8.485v38.056l25.786-8.488c0.742,0,1.34-0.598,1.34-1.338V1.338C56.929,0.598,56.331,0,55.588,0z
	 M51.542,25.759c0,0.741-0.6,1.338-1.34,1.338l-14.05,4.466c-0.742,0-1.341-0.601-1.341-1.341V16.758
	c0-0.74,0.599-1.338,1.341-1.338l14.05-4.466c0.741,0,1.34,0.601,1.34,1.341V25.759z M1.34,0C0.598,0,0,0.598,0,1.338v35.377
	c0,0.74,0.598,1.338,1.34,1.338l25.781,8.488V8.485L1.34,0z M21.859,31.951c-0.174,0.577-0.706,0.95-1.283,0.95
	c-0.128,0-0.258-0.019-0.388-0.058L5.383,28.38c-0.709-0.215-1.112-0.96-0.897-1.67c0.214-0.706,0.961-1.107,1.671-0.892
	l14.809,4.463C21.671,30.496,22.074,31.241,21.859,31.951z M21.859,26.567c-0.174,0.579-0.706,0.956-1.283,0.956
	c-0.128,0-0.258-0.019-0.388-0.059L5.379,23.001c-0.706-0.215-1.108-0.96-0.894-1.67c0.214-0.71,0.961-1.112,1.671-0.897
	l14.809,4.463C21.671,25.112,22.074,25.862,21.859,26.567z M21.859,21.186c-0.174,0.582-0.706,0.953-1.283,0.953
	c-0.128,0-0.258-0.019-0.388-0.058L5.383,17.615c-0.709-0.208-1.112-0.96-0.897-1.666c0.214-0.708,0.961-1.109,1.671-0.897
	l14.809,4.464C21.671,19.731,22.074,20.479,21.859,21.186z M21.859,15.803c-0.174,0.582-0.706,0.955-1.283,0.955
	c-0.128,0-0.258-0.016-0.388-0.056L5.383,12.236c-0.709-0.215-1.112-0.96-0.897-1.67c0.214-0.706,0.961-1.107,1.671-0.892
	l14.809,4.463C21.671,14.348,22.074,15.097,21.859,15.803z"/>
</svg>
