<?xml version="1.0" encoding="utf-8"?>
<!-- Generator: Adobe Illustrator 16.0.4, SVG Export Plug-In . SVG Version: 6.00 Build 0)  -->
<!DOCTYPE svg PUBLIC "-//W3C//DTD SVG 1.1//EN" "http://www.w3.org/Graphics/SVG/1.1/DTD/svg11.dtd">
<svg version="1.1" id="Layer_1" xmlns="http://www.w3.org/2000/svg" xmlns:xlink="http://www.w3.org/1999/xlink" x="0px" y="0px"
	 width="54.051px" height="25.844px" viewBox="0 0 54.051 25.844" enable-background="new 0 0 54.051 25.844" xml:space="preserve">
<g>
	<path d="M32.834,5.094H21.24c-1.132,0-2.048,0.914-2.048,2.043v11.57c0,1.127,0.916,2.043,2.048,2.043h11.594
		c1.131,0,2.048-0.914,2.048-2.043V7.137C34.882,6.008,33.964,5.094,32.834,5.094z"/>
	<path d="M12.115,3.565L3.82,0.137C3.641,0.093,3.471,0.06,3.31,0.039C0.954-0.293,0.14,1.584,0.019,3.417v0.007
		C0.01,3.51,0.01,3.599,0.005,3.69C0,3.775,0,3.864,0,3.948v17.95c0,0.087,0,0.172,0.004,0.261c0.004,0.09,0.004,0.176,0.014,0.264
		c0,0.006,0,0.006,0,0.006c0.12,1.83,0.931,3.701,3.276,3.383c0.167-0.023,0.341-0.053,0.524-0.098l8.295-3.432
		c2.176-0.98,3.82-1.707,3.82-3.81v-2.123l-8.024,0.896c-0.05,0.006-0.104,0.006-0.153,0.006c-0.676,0-1.255-0.506-1.33-1.188
		c-0.086-0.736,0.448-1.402,1.181-1.484l8.326-0.924v-1.466l-8.326-0.926c-0.733-0.08-1.267-0.746-1.181-1.478
		C6.506,9.047,7.17,8.516,7.909,8.6l8.026,0.894V7.376C15.935,5.272,14.291,4.542,12.115,3.565z"/>
	<path d="M54.045,3.683c0-0.085-0.005-0.174-0.013-0.26c0-0.002,0-0.002,0-0.007c-0.121-1.828-0.931-3.701-3.279-3.378
		c-0.165,0.016-0.34,0.049-0.519,0.098l-8.299,3.428c-2.174,0.978-3.818,1.707-3.818,3.811v2.117l8.025-0.893
		c0.737-0.085,1.4,0.446,1.484,1.185c0.08,0.732-0.453,1.398-1.188,1.478l-8.323,0.926v1.466l8.323,0.923
		c0.735,0.088,1.269,0.748,1.188,1.485c-0.076,0.683-0.658,1.192-1.333,1.192c-0.049,0-0.099-0.004-0.151-0.01l-8.025-0.893v2.113
		c0,2.107,1.645,2.834,3.818,3.813l8.299,3.427c0.174,0.049,0.346,0.076,0.506,0.099c2.355,0.331,3.171-1.548,3.292-3.378V22.42
		c0.008-0.088,0.013-0.18,0.013-0.264c0.006-0.089,0.006-0.177,0.006-0.259V3.943C54.051,3.864,54.051,3.775,54.045,3.683z"/>
</g>
</svg>
