<?xml version="1.0" encoding="iso-8859-1"?>
<!-- Generator: Adobe Illustrator 16.0.4, SVG Export Plug-In . SVG Version: 6.00 Build 0)  -->
<!DOCTYPE svg PUBLIC "-//W3C//DTD SVG 1.1//EN" "http://www.w3.org/Graphics/SVG/1.1/DTD/svg11.dtd">
<svg version="1.1" id="Layer_1" xmlns="http://www.w3.org/2000/svg" xmlns:xlink="http://www.w3.org/1999/xlink" x="0px" y="0px"
	 width="43.707px" height="32.745px" viewBox="0 0 43.707 32.745" style="enable-background:new 0 0 43.707 32.745;"
	 xml:space="preserve">
<path d="M42.197,6.04h-2.475c-0.438-0.674-1.192-1.121-2.05-1.121h-1.186c-0.857,0-1.613,0.447-2.05,1.121h-3.364V2.871
	C31.073,1.287,29.798,0,28.229,0h-12.75c-1.57,0-2.846,1.287-2.846,2.871V6.04H9.27C8.833,5.366,8.078,4.919,7.221,4.919H6.034
	c-0.857,0-1.613,0.447-2.05,1.121H1.51C0.675,6.04,0,6.724,0,7.565v23.657c0,0.841,0.675,1.522,1.51,1.522h40.687
	c0.834,0,1.51-0.682,1.51-1.522V7.565C43.707,6.724,43.031,6.04,42.197,6.04z M15.305,2.871c0-0.099,0.078-0.176,0.175-0.176h12.75
	c0.095,0,0.174,0.078,0.174,0.176V6.04H15.305V2.871z"/>
</svg>
