<?xml version="1.0" encoding="iso-8859-1"?>
<!-- Generator: Adobe Illustrator 16.0.4, SVG Export Plug-In . SVG Version: 6.00 Build 0)  -->
<!DOCTYPE svg PUBLIC "-//W3C//DTD SVG 1.1//EN" "http://www.w3.org/Graphics/SVG/1.1/DTD/svg11.dtd">
<svg version="1.1" id="Layer_1" xmlns="http://www.w3.org/2000/svg" xmlns:xlink="http://www.w3.org/1999/xlink" x="0px" y="0px"
	 width="75.428px" height="51.032px" viewBox="0 0 75.428 51.032" style="enable-background:new 0 0 75.428 51.032;"
	 xml:space="preserve">
<path d="M60.212,26.151c-7.794-1.479-17.152-1.761-26.322-1.024L62.314,1.499c0.308-0.26,0.389-0.757,0.183-1.125
	c-0.211-0.382-0.645-0.488-0.968-0.239L28.586,25.666c-0.579,0.068-1.152,0.143-1.72,0.22c-1.596,0.218-3.159,0.467-4.695,0.746
	c-1.568,0.371-3.02,0.846-4.206,1.418c-4.042,1.935-3.629,4.218,0.824,5.205l-8.668,6.724l-0.002,0.002
	c-1.049-0.295-2.381,0.021-3.564,0.971c-0.599,0.48-1.081,1.06-1.437,1.681c0,0-0.003,0-0.009,0.012
	C4.91,42.945,1.426,48.164,0,48.806c0.177,0.303,5.913-0.811,7.544-1.134c0.031-0.007,0.063-0.012,0.095-0.017
	c0.095-0.014,0.188-0.035,0.283-0.059c0.024-0.004,0.036-0.007,0.045-0.012c0.005,0,0.005,0,0.005,0
	c0.62-0.162,1.255-0.479,1.853-0.959c1.059-0.849,1.75-2.019,1.996-3.158l0.011-0.01l11.141-9.256
	c6.303,1.702,9.085,4.096,6.622,6.527c-1.247,1.229-3.691,2.321-6.97,3.226c-1.174,0.321-2.469,0.628-3.853,0.898
	c-0.708,0.228-1.367,0.488-1.958,0.767c-3.849,1.843-3.172,4.065,1.519,4.947c0.135,0.026,0.283,0.054,0.425,0.073
	c1.456,0.134,2.949,0.23,4.463,0.293c15.45,0.661,33.114-2.035,43.74-7.116C80.501,37.337,77.478,29.429,60.212,26.151z
	 M29.007,31.253c-0.843,0.009-1.639-0.026-2.356-0.112c-1.936-0.216-3.298-0.734-3.368-1.362c-0.006-0.017-0.006-0.033-0.006-0.049
	c-0.003-0.413,0.557-0.802,1.479-1.097c0,0,0.005-0.007,0.008-0.007c1.04-0.333,2.541-0.553,4.208-0.582
	c0.476-0.005,0.933,0,1.371,0.033c2.5,0.131,4.35,0.734,4.364,1.484C34.713,30.451,32.16,31.204,29.007,31.253z M40.492,45.768
	c-3.933,0.059-7.132-0.792-7.14-1.897c-0.013-1.102,3.167-2.047,7.096-2.105c3.934-0.059,7.132,0.795,7.146,1.899
	C47.603,44.769,44.426,45.709,40.492,45.768z M44.126,30.681c-3.154,0.047-5.72-0.633-5.73-1.521
	c-0.008-0.881,2.541-1.639,5.694-1.686c3.159-0.049,5.721,0.633,5.735,1.517C49.833,29.879,47.28,30.634,44.126,30.681z
	 M57.292,42.464c-3.934,0.059-7.131-0.792-7.141-1.896c-0.013-1.102,3.167-2.047,7.096-2.105c3.933-0.059,7.132,0.792,7.145,1.899
	C64.401,41.466,61.225,42.406,57.292,42.464z M62.045,32.665c-3.155,0.047-5.721-0.636-5.73-1.524
	c-0.008-0.882,2.541-1.637,5.695-1.686c3.158-0.047,5.72,0.635,5.734,1.517C67.752,31.86,65.198,32.617,62.045,32.665z"/>
</svg>
