<?xml version="1.0" encoding="iso-8859-1"?>
<!-- Generator: Adobe Illustrator 16.0.4, SVG Export Plug-In . SVG Version: 6.00 Build 0)  -->
<!DOCTYPE svg PUBLIC "-//W3C//DTD SVG 1.1//EN" "http://www.w3.org/Graphics/SVG/1.1/DTD/svg11.dtd">
<svg version="1.1" id="Layer_1" xmlns="http://www.w3.org/2000/svg" xmlns:xlink="http://www.w3.org/1999/xlink" x="0px" y="0px"
	 width="41.971px" height="43.089px" viewBox="0 0 41.971 43.089" style="enable-background:new 0 0 41.971 43.089;"
	 xml:space="preserve">
<g>
	<path d="M2.504,33.723h36.959c1.385,0,2.505-1.121,2.505-2.498v-0.626c0-1.377-1.12-2.498-2.505-2.498H2.504
		C1.124,28.101,0,29.222,0,30.599v0.626C0,32.602,1.124,33.723,2.504,33.723z"/>
	<path d="M2.504,15.615h36.959c1.168,0,2.148-0.797,2.428-1.874h0.077V9.462h-4.385c-0.742,0-1.351-0.6-1.351-1.344
		c0-0.744,0.607-1.344,1.351-1.344h4.285C40.852,2.972,31.89,0,20.984,0c-2.104,0-4.142,0.11-6.059,0.316l0.562,0.751
		c0.445,0.596,0.325,1.438-0.27,1.881c-0.244,0.185-0.527,0.27-0.81,0.27c-0.409,0-0.814-0.183-1.08-0.537l-1.458-1.938
		C9.636,1.128,7.626,1.649,5.922,2.277l0.524,0.395c0.597,0.448,0.716,1.29,0.271,1.883c-0.266,0.354-0.67,0.537-1.08,0.537
		c-0.284,0-0.566-0.084-0.81-0.267L3.134,3.554C1.147,4.703,0,6.052,0,7.497v6.244h0.084C0.355,14.818,1.338,15.615,2.504,15.615z
		 M30.738,5.02c0.338-0.664,1.147-0.931,1.813-0.6l1.255,0.624c0.665,0.33,0.936,1.137,0.603,1.801
		c-0.239,0.476-0.716,0.746-1.209,0.746c-0.202,0-0.409-0.044-0.604-0.138l-1.249-0.629C30.68,6.491,30.405,5.684,30.738,5.02z
		 M28.166,10.036l1.254,0.628c0.666,0.332,0.935,1.141,0.603,1.803c-0.238,0.472-0.715,0.746-1.209,0.746
		c-0.202,0-0.409-0.047-0.603-0.146l-1.25-0.622c-0.669-0.333-0.94-1.145-0.604-1.809C26.691,9.975,27.5,9.705,28.166,10.036z
		 M21.496,1.846l3.761-1.245c0.706-0.239,1.47,0.143,1.708,0.847c0.234,0.708-0.148,1.466-0.855,1.703l-3.759,1.247
		c-0.14,0.049-0.283,0.07-0.427,0.07c-0.562,0-1.088-0.359-1.277-0.917C20.408,2.845,20.791,2.083,21.496,1.846z M14.224,6.419
		c0.599-0.443,1.443-0.328,1.89,0.268l1.88,2.498c0.444,0.596,0.328,1.44-0.27,1.884c-0.244,0.178-0.527,0.27-0.811,0.27
		c-0.409,0-0.814-0.186-1.08-0.54L13.954,8.3C13.508,7.704,13.63,6.862,14.224,6.419z M3.067,9.463l3.13-1.872
		c0.64-0.382,1.467-0.176,1.853,0.46c0.383,0.637,0.175,1.46-0.463,1.848L4.45,11.773c-0.215,0.126-0.453,0.188-0.692,0.188
		c-0.458,0-0.903-0.232-1.155-0.65C2.216,10.675,2.428,9.845,3.067,9.463z"/>
	<path d="M2.504,24.356h14.41c1.384,0,2.504-1.118,2.504-2.5v-0.624c0-1.381-1.12-2.495-2.505-2.496H2.504
		C1.124,18.736,0,19.85,0,21.232v0.624C0,23.237,1.123,24.356,2.504,24.356z"/>
	<path d="M39.463,18.736H25.059c-1.386,0-2.506,1.114-2.506,2.496v0.624c0,1.381,1.12,2.5,2.506,2.5h14.404
		c1.385,0,2.505-1.118,2.505-2.5v-0.624C41.968,19.851,40.848,18.737,39.463,18.736z"/>
	<path d="M0.001,37.468v3.748h0.084c0.271,1.08,1.253,1.873,2.42,1.873h36.96c1.166,0,2.148-0.793,2.424-1.873h0.082v-3.748H0.001z"
		/>
</g>
</svg>
