<?xml version="1.0" encoding="iso-8859-1"?>
<!-- Generator: Adobe Illustrator 16.0.4, SVG Export Plug-In . SVG Version: 6.00 Build 0)  -->
<!DOCTYPE svg PUBLIC "-//W3C//DTD SVG 1.1//EN" "http://www.w3.org/Graphics/SVG/1.1/DTD/svg11.dtd">
<svg version="1.1" id="Layer_1" xmlns="http://www.w3.org/2000/svg" xmlns:xlink="http://www.w3.org/1999/xlink" x="0px" y="0px"
	 width="39.105px" height="43.086px" viewBox="0 0 39.105 43.086" style="enable-background:new 0 0 39.105 43.086;"
	 xml:space="preserve">
<g>
	<path d="M37.571,43.086c0.847,0,1.534-0.692,1.534-1.545v-6.729l-8.214,8.274H37.571z"/>
	<path d="M37.571,3.688h-3.519V1.347C34.052,0.602,33.451,0,32.716,0c-0.74,0-1.338,0.602-1.338,1.347v2.341h-2.591V1.347
		C28.787,0.602,28.19,0,27.449,0c-0.74,0-1.338,0.602-1.338,1.347v2.341H23.52V1.347C23.521,0.602,22.923,0,22.183,0
		c-0.735,0-1.336,0.602-1.336,1.347v2.341H18.26V1.347C18.26,0.602,17.658,0,16.922,0c-0.739,0-1.338,0.602-1.338,1.347v2.341
		h-2.591V1.347C12.993,0.602,12.396,0,11.656,0c-0.736,0-1.337,0.602-1.337,1.347v2.341H7.732V1.347C7.732,0.602,7.13,0,6.394,0
		c-0.74,0-1.338,0.602-1.338,1.347v2.341H1.534C0.688,3.688,0,4.381,0,5.234V41.54c0,0.854,0.688,1.547,1.534,1.547h25.573
		L39.106,31V5.234C39.105,4.381,38.418,3.688,37.571,3.688z M20.815,32.521c0,0.739-0.599,1.347-1.338,1.347
		c-0.076,0-0.152-0.006-0.228-0.021c-0.076,0.014-0.151,0.021-0.231,0.021h-6.563c-0.741,0-1.338-0.607-1.338-1.347
		c0-0.748,0.597-1.349,1.338-1.349h5.686V26.95h-5.686c-0.741,0-1.338-0.604-1.338-1.349s0.597-1.347,1.338-1.347h5.686V20.44
		h-5.686c-0.741,0-1.338-0.606-1.338-1.347c0-0.748,0.597-1.349,1.338-1.349h6.563c0.081,0,0.155,0.005,0.231,0.023
		c0.076-0.018,0.151-0.023,0.228-0.023c0.738,0,1.338,0.601,1.338,1.349V32.521z M27.99,32.521c0,0.739-0.598,1.347-1.339,1.347
		c-0.736,0-1.337-0.607-1.337-1.347V19.094c0-0.748,0.601-1.349,1.337-1.349c0.741,0,1.339,0.601,1.339,1.349V32.521z"/>
</g>
</svg>
