<?xml version="1.0" encoding="utf-8"?>
<!-- Generator: Adobe Illustrator 16.0.4, SVG Export Plug-In . SVG Version: 6.00 Build 0)  -->
<!DOCTYPE svg PUBLIC "-//W3C//DTD SVG 1.1//EN" "http://www.w3.org/Graphics/SVG/1.1/DTD/svg11.dtd">
<svg version="1.1" id="Layer_1" xmlns="http://www.w3.org/2000/svg" xmlns:xlink="http://www.w3.org/1999/xlink" x="0px" y="0px"
	 width="41.404px" height="51.711px" viewBox="0 0 41.404 51.711" enable-background="new 0 0 41.404 51.711" xml:space="preserve">
<path d="M40.756,16.851l-6.479,2.674v-2.808c0-1.088-0.879-1.969-1.97-1.969h-1.075c1.428-1.567,2.295-3.643,2.295-5.928
	c0-4.868-3.952-8.82-8.819-8.82c-4.871,0-8.818,3.953-8.818,8.82c0,2.284,0.864,4.361,2.292,5.928h-5.378
	c0.719-1.058,1.139-2.331,1.139-3.707c0-3.636-2.952-6.589-6.595-6.589c-3.641,0-6.593,2.952-6.593,6.589
	c0,1.376,0.421,2.654,1.14,3.712C0.84,14.788,0,15.654,0,16.717v11.555c0,1.089,0.881,1.969,1.97,1.969h4.367v1.555
	c0,1.088,0.879,1.97,1.97,1.97H10.7L4.492,50.113c-0.23,0.606,0.073,1.292,0.684,1.522c0.138,0.055,0.281,0.078,0.42,0.078
	c0.479,0,0.924-0.293,1.104-0.76l6.534-17.189h2.724v11.25c0,0.65,0.53,1.184,1.183,1.184s1.184-0.533,1.184-1.184v-11.25h2.544
	l6.528,17.189c0.179,0.467,0.629,0.758,1.106,0.758c0.14,0,0.283-0.022,0.421-0.076c0.608-0.231,0.914-0.916,0.684-1.523
	l-6.207-16.348h0.271c1.091,0,1.97-0.881,1.97-1.969v-1.555h6.667c1.092,0,1.97-0.88,1.97-1.968v-2.81l6.479,2.674
	c0.357,0.21,0.648,0.039,0.648-0.374V17.227C41.404,16.815,41.113,16.645,40.756,16.851z"/>
</svg>
