<?xml version="1.0" encoding="iso-8859-1"?>
<!-- Generator: Adobe Illustrator 16.0.4, SVG Export Plug-In . SVG Version: 6.00 Build 0)  -->
<!DOCTYPE svg PUBLIC "-//W3C//DTD SVG 1.1//EN" "http://www.w3.org/Graphics/SVG/1.1/DTD/svg11.dtd">
<svg version="1.1" id="Layer_1" xmlns="http://www.w3.org/2000/svg" xmlns:xlink="http://www.w3.org/1999/xlink" x="0px" y="0px"
	 width="52.325px" height="39.062px" viewBox="0 0 52.325 39.062" style="enable-background:new 0 0 52.325 39.062;"
	 xml:space="preserve">
<g>
	<path d="M26.162,13.119c-5.497,0-9.968,4.49-9.968,10.011c0,1.89,0.524,3.661,1.435,5.168c1.747,2.903,4.919,4.849,8.534,4.849
		c3.615,0,6.787-1.945,8.535-4.849c0.909-1.507,1.434-3.279,1.434-5.168C36.131,17.608,31.659,13.119,26.162,13.119z"/>
	<path d="M50.084,4.981h-5.258L44.822,4.81c0-0.918-0.737-1.659-1.653-1.659H13.619v-0.9c0-1.243-1.003-2.25-2.24-2.25h-9.14
		C1.003,0,0,1.007,0,2.25v34.562c0,1.248,1.003,2.251,2.239,2.251h47.846c1.237,0,2.24-1.003,2.24-2.251V7.233
		C52.325,5.99,51.322,4.981,50.084,4.981z M37.725,28.298c-1.975,4.441-6.415,7.546-11.562,7.546s-9.586-3.104-11.562-7.546
		c-0.705-1.58-1.093-3.323-1.093-5.168c0-7.009,5.675-12.712,12.655-12.712S38.818,16.12,38.818,23.13
		C38.818,24.973,38.429,26.718,37.725,28.298z M38.931,9.585c-0.808,0-1.456-0.657-1.456-1.462c0-0.81,0.648-1.462,1.456-1.462
		c0.802,0,1.457,0.652,1.457,1.462C40.387,8.927,39.733,9.585,38.931,9.585z"/>
</g>
</svg>
