<?xml version="1.0" encoding="iso-8859-1"?>
<!-- Generator: Adobe Illustrator 16.0.4, SVG Export Plug-In . SVG Version: 6.00 Build 0)  -->
<!DOCTYPE svg PUBLIC "-//W3C//DTD SVG 1.1//EN" "http://www.w3.org/Graphics/SVG/1.1/DTD/svg11.dtd">
<svg version="1.1" id="Layer_1" xmlns="http://www.w3.org/2000/svg" xmlns:xlink="http://www.w3.org/1999/xlink" x="0px" y="0px"
	 width="29.32px" height="52.689px" viewBox="0 0 29.32 52.689" style="enable-background:new 0 0 29.32 52.689;"
	 xml:space="preserve">
<g>
	<path d="M29.285,4.555c-0.001-0.002-0.001-0.005-0.001-0.005c0.021-0.056,0.034-0.11,0.034-0.166c0-0.222-0.168-0.439-0.482-0.643
		c-0.265-0.265-0.618-0.436-1.013-0.466c-1.064-0.372-2.644-0.69-4.581-0.932c0.4-0.351,0.568-0.918,0.381-1.449
		c-0.248-0.695-1.017-1.065-1.72-0.817l-3.014,1.052c-0.396,0.14-0.681,0.444-0.814,0.809c-1.096-0.047-2.238-0.069-3.414-0.069
		c-5.782,0-10.779,0.574-13.165,1.408C1.1,3.31,0.745,3.48,0.483,3.742C0.479,3.744,0.479,3.744,0.479,3.744
		C0.168,3.95,0,4.162,0,4.384C0,4.44,0.016,4.499,0.038,4.555c-0.021,0.11-0.037,0.228-0.037,0.343v25.128L29.32,11.296V4.898
		C29.32,4.782,29.307,4.665,29.285,4.555z"/>
	<polygon points="0.001,44.917 29.32,26.181 29.32,14.481 0.001,33.216 	"/>
	<path d="M0.019,48.098c0,0.014,0,0.025,0.005,0.039c0.007,0.042,0.021,0.082,0.033,0.122c-0.012-0.04-0.026-0.08-0.034-0.12
		c0.033,0.226,0.109,0.43,0.229,0.617c-0.014-0.023-0.021-0.049-0.033-0.075c0.013,0.026,0.021,0.049,0.034,0.073
		c0.004,0.019,0.009,0.037,0.026,0.049c1.318,2.211,7.255,3.887,14.381,3.887c7.12,0,13.06-1.676,14.375-3.887
		c0.019-0.012,0.024-0.03,0.027-0.049c0.035-0.049,0.062-0.104,0.084-0.152c0.037-0.075,0.073-0.157,0.091-0.241
		c0.021-0.071,0.046-0.146,0.058-0.225c0.015-0.084,0.023-0.172,0.023-0.266V29.369l-29.3,18.724V48.098z"/>
</g>
</svg>
