<?xml version="1.0" encoding="iso-8859-1"?>
<!-- Generator: Adobe Illustrator 16.0.4, SVG Export Plug-In . SVG Version: 6.00 Build 0)  -->
<!DOCTYPE svg PUBLIC "-//W3C//DTD SVG 1.1//EN" "http://www.w3.org/Graphics/SVG/1.1/DTD/svg11.dtd">
<svg version="1.1" id="Layer_1" xmlns="http://www.w3.org/2000/svg" xmlns:xlink="http://www.w3.org/1999/xlink" x="0px" y="0px"
	 width="51.172px" height="43.094px" viewBox="0 0 51.172 43.094" style="enable-background:new 0 0 51.172 43.094;"
	 xml:space="preserve">
<g>
	<path d="M29.866,15.954c0.052,0.014,0.104,0.019,0.159,0.019c0.057,0,0.111-0.005,0.164-0.019h20.309
		c0.327,0,0.602-0.227,0.675-0.53c-0.007-0.131-0.013-0.262-0.022-0.393c-0.527-6.826-6.116-12.578-13.854-14.97
		c-0.06-0.019-0.118-0.037-0.181-0.054C37.081,0.003,37.045,0,37.008,0c-0.236,0-0.447,0.117-0.57,0.299c0,0,0,0.002-0.004,0.002
		l-0.086,0.18c-0.002,0.002-0.002,0.002-0.002,0.005l-6.863,14.372c-0.062,0.077-0.105,0.168-0.131,0.269
		c-0.01,0.054-0.018,0.105-0.018,0.156C29.334,15.61,29.561,15.883,29.866,15.954z"/>
	<path d="M50.497,18.53h-21.54H10.749v-4.375c0-4.959-4.059-8.994-9.05-8.994C0.761,5.161,0,5.917,0,6.847
		C0,7.78,0.761,8.536,1.699,8.536c3.118,0,5.654,2.521,5.654,5.618v4.375H7.317c-0.002,0.044-0.002,0.091-0.002,0.138
		c0,6.271,4.271,11.758,10.649,14.771c-2.533,0.166-4.54,2.256-4.54,4.819c0,2.67,2.18,4.835,4.867,4.835s4.867-2.166,4.867-4.835
		c0-1.33-0.538-2.53-1.411-3.403c2.343,0.668,4.866,1.039,7.505,1.039c2.637,0,5.162-0.369,7.505-1.037
		c-0.87,0.875-1.409,2.074-1.409,3.401c0,2.67,2.178,4.835,4.867,4.835c2.688,0,4.866-2.166,4.866-4.835
		c0-2.563-2.005-4.653-4.542-4.819c6.139-2.898,10.324-8.084,10.634-14.059v-0.005c0-0.002,0-0.002,0-0.004
		c-0.007-0.126-0.013-0.262-0.022-0.388C51.053,18.719,50.798,18.53,50.497,18.53z"/>
</g>
</svg>
