<?xml version="1.0" encoding="iso-8859-1"?>
<!-- Generator: Adobe Illustrator 16.0.4, SVG Export Plug-In . SVG Version: 6.00 Build 0)  -->
<!DOCTYPE svg PUBLIC "-//W3C//DTD SVG 1.1//EN" "http://www.w3.org/Graphics/SVG/1.1/DTD/svg11.dtd">
<svg version="1.1" id="Layer_1" xmlns="http://www.w3.org/2000/svg" xmlns:xlink="http://www.w3.org/1999/xlink" x="0px" y="0px"
	 width="65.55px" height="55.163px" viewBox="0 0 65.55 55.163" style="enable-background:new 0 0 65.55 55.163;"
	 xml:space="preserve">
<path d="M64.204,0h-7.128L51.53,15.656c-0.249-0.08-0.501-0.155-0.775-0.155H2.576C1.152,15.501,0,16.645,0,18.057L5.046,39.15
	c0.661,1.847,1.152,2.555,2.575,2.555H43.03c0.272,0,0.521-0.075,0.767-0.153c0.077,0.025,0.154,0.028,0.231,0.04
	c0.163,0.239,0.281,0.511,0.281,0.822v2.833c0,0.826-0.675,1.497-1.507,1.497H7.133c-0.743,0-1.346,0.598-1.346,1.335
	c0,0.738,0.603,1.336,1.346,1.336h5.079c-0.492,0.607-0.798,1.368-0.798,2.208c0,1.954,1.598,3.541,3.568,3.541
	s3.566-1.586,3.566-3.541c0-0.84-0.306-1.601-0.797-2.208h15.86c-0.49,0.607-0.796,1.368-0.796,2.208
	c0,1.954,1.597,3.541,3.568,3.541c1.97,0,3.565-1.586,3.565-3.541c0-0.84-0.307-1.601-0.797-2.208h3.651
	c2.315,0,4.199-1.87,4.199-4.168v-2.833c0-1.08-0.426-2.055-1.107-2.796L58.981,2.671h5.223c0.743,0,1.346-0.599,1.346-1.336
	S64.947,0,64.204,0z"/>
</svg>
