<?xml version="1.0" encoding="iso-8859-1"?>
<!-- Generator: Adobe Illustrator 16.0.4, SVG Export Plug-In . SVG Version: 6.00 Build 0)  -->
<!DOCTYPE svg PUBLIC "-//W3C//DTD SVG 1.1//EN" "http://www.w3.org/Graphics/SVG/1.1/DTD/svg11.dtd">
<svg version="1.1" id="Layer_1" xmlns="http://www.w3.org/2000/svg" xmlns:xlink="http://www.w3.org/1999/xlink" x="0px" y="0px"
	 width="46.572px" height="52.855px" viewBox="0 0 46.572 52.855" style="enable-background:new 0 0 46.572 52.855;"
	 xml:space="preserve">
<g>
	<path d="M6.663,40.015v-0.145c-0.101,0.038-0.193,0.085-0.278,0.145H6.663z"/>
	<path d="M45.456,26.039h-5.264V11.578c0-1.578-1.278-2.856-2.858-2.856c-1.578,0-2.857,1.278-2.857,2.856v19.798
		c0,0.193,0.019,0.38,0.06,0.56h-1.405c0.04-0.18,0.059-0.366,0.059-0.56V7.218c0-1.575-1.277-2.859-2.856-2.859
		s-2.858,1.284-2.858,2.859v24.158c0,0.193,0.019,0.38,0.06,0.56h-1.403c0.039-0.18,0.058-0.366,0.058-0.56V2.86
		c0-1.58-1.278-2.86-2.857-2.86c-1.575,0-2.859,1.28-2.859,2.86v28.516c0,0.193,0.021,0.38,0.059,0.56h-1.404
		c0.041-0.18,0.06-0.366,0.06-0.56V7.218c0-1.575-1.277-2.859-2.858-2.859c-1.574,0-2.854,1.284-2.854,2.859v24.158
		c0,0.193,0.019,0.38,0.06,0.56h-1.489c0.04-0.18,0.057-0.366,0.057-0.56V11.578c0-1.578-1.278-2.856-2.857-2.856
		C7.66,8.721,6.38,10,6.38,11.578v14.461H1.117C0.502,26.039,0,26.537,0,27.157c0,0.615,0.502,1.113,1.117,1.113h2.297v8.387
		c-0.01,0.059-0.014,0.122-0.014,0.186v14.71c0,0.724,0.579,1.304,1.303,1.304c0.717,0,1.301-0.58,1.301-1.304v-4.451H40.57v4.451
		c0,0.724,0.582,1.304,1.302,1.304c0.722,0,1.301-0.58,1.301-1.304v-14.71c0-0.062-0.005-0.127-0.013-0.186V28.27h2.297
		c0.62,0,1.118-0.498,1.118-1.113C46.573,26.537,46.076,26.039,45.456,26.039z M9.225,34.938v-0.049H9.39
		c0.094-0.021,0.193-0.035,0.296-0.035h27.285c0.102,0,0.202,0.014,0.296,0.035h0.082v0.022c0.533,0.162,0.922,0.655,0.922,1.242
		c0,0.589-0.39,1.083-0.922,1.249v0.009h-0.046c-0.108,0.031-0.216,0.045-0.332,0.045H9.687c-0.115,0-0.228-0.014-0.331-0.045h-0.13
		V37.37c-0.491-0.188-0.839-0.658-0.839-1.216C8.386,35.598,8.734,35.128,9.225,34.938z M40.57,41.841
		c-0.045,0.063-0.099,0.123-0.156,0.172c-0.226,0.201-0.525,0.326-0.854,0.326H7.098c-0.332,0-0.624-0.125-0.853-0.326
		c-0.095-0.085-0.175-0.183-0.242-0.299c-0.113-0.188-0.181-0.411-0.181-0.649c0-0.237,0.067-0.458,0.181-0.646
		c0.094-0.162,0.223-0.3,0.381-0.402c0.085-0.06,0.178-0.106,0.278-0.145c0.135-0.049,0.282-0.075,0.435-0.075h0.939
		c0.013,0.013,0.03,0.021,0.044,0.031h0c0,0,0,0,0,0c0.021-0.01,0.045-0.019,0.066-0.031h30.276
		c0.022,0.013,0.046,0.021,0.068,0.031l0,0c0.001,0,0.001,0,0.001,0c0.014-0.01,0.029-0.019,0.044-0.031h1.022
		c0.261,0,0.511,0.08,0.714,0.22c0.111,0.076,0.215,0.171,0.296,0.278c0.166,0.209,0.265,0.479,0.265,0.771
		C40.833,41.36,40.735,41.625,40.57,41.841z"/>
</g>
</svg>
