<?xml version="1.0" encoding="iso-8859-1"?>
<!-- Generator: Adobe Illustrator 16.0.4, SVG Export Plug-In . SVG Version: 6.00 Build 0)  -->
<!DOCTYPE svg PUBLIC "-//W3C//DTD SVG 1.1//EN" "http://www.w3.org/Graphics/SVG/1.1/DTD/svg11.dtd">
<svg version="1.1" id="Layer_1" xmlns="http://www.w3.org/2000/svg" xmlns:xlink="http://www.w3.org/1999/xlink" x="0px" y="0px"
	 width="71.307px" height="41.941px" viewBox="0 0 71.307 41.941" style="enable-background:new 0 0 71.307 41.941;"
	 xml:space="preserve">
<g>
	<path d="M45.124,10.877V2.24c0-1.237-0.997-2.24-2.229-2.24H2.228C0.998,0,0,1.003,0,2.24v25.186c0,1.239,0.998,2.242,2.228,2.242
		h4.865l1.316,2.289l2.279,3.971l2.282-3.971l1.316-2.289h18.581V14.911c0-2.223,1.802-4.034,4.016-4.034H45.124z"/>
	<path d="M69.519,13.114H45.124h-8.24c-0.986,0-1.788,0.804-1.788,1.797v14.757v5.456c0,0.991,0.802,1.797,1.788,1.797h22.958
		l1.054,1.837l1.832,3.185l1.83-3.185l1.057-1.837h3.904c0.987,0,1.788-0.806,1.788-1.797V14.911
		C71.307,13.918,70.506,13.114,69.519,13.114z"/>
</g>
</svg>
