<?xml version="1.0" encoding="iso-8859-1"?>
<!-- Generator: Adobe Illustrator 16.0.4, SVG Export Plug-In . SVG Version: 6.00 Build 0)  -->
<!DOCTYPE svg PUBLIC "-//W3C//DTD SVG 1.1//EN" "http://www.w3.org/Graphics/SVG/1.1/DTD/svg11.dtd">
<svg version="1.1" id="Layer_1" xmlns="http://www.w3.org/2000/svg" xmlns:xlink="http://www.w3.org/1999/xlink" x="0px" y="0px"
	 width="22.434px" height="71.242px" viewBox="0 0 22.434 71.242" style="enable-background:new 0 0 22.434 71.242;"
	 xml:space="preserve">
<path d="M20.323,28.589h-1.849c-0.294-1.3-2.747-2.349-5.925-2.584V14.019c0.911-0.297,1.529-0.88,1.529-1.557
	c0-0.677-0.618-1.267-1.529-1.56V1.345C12.55,0.601,11.955,0,11.217,0c-0.737,0-1.333,0.601-1.333,1.345v9.557
	c-0.911,0.293-1.529,0.882-1.529,1.56c0,0.677,0.618,1.261,1.529,1.557v11.986c-3.178,0.235-5.632,1.284-5.924,2.584H2.11
	c-1.164,0-2.11,0.95-2.11,2.131l0.706,10.677c0,1.176,0.943,2.131,2.111,2.131h2.948c0.243,0.604,0.795,1.148,1.559,1.564
	L5.618,69.334c0,1.049,0.844,1.908,1.888,1.908h7.424c1.043,0,1.888-0.859,1.888-1.908l-1.706-24.242
	c0.764-0.415,1.313-0.96,1.559-1.564h2.946c1.169,0,2.111-0.955,2.111-2.131l0.706-10.677
	C22.433,29.539,21.488,28.588,20.323,28.589z"/>
</svg>
