<?xml version="1.0" encoding="iso-8859-1"?>
<!-- Generator: Adobe Illustrator 16.0.4, SVG Export Plug-In . SVG Version: 6.00 Build 0)  -->
<!DOCTYPE svg PUBLIC "-//W3C//DTD SVG 1.1//EN" "http://www.w3.org/Graphics/SVG/1.1/DTD/svg11.dtd">
<svg version="1.1" id="Layer_1" xmlns="http://www.w3.org/2000/svg" xmlns:xlink="http://www.w3.org/1999/xlink" x="0px" y="0px"
	 width="29.91px" height="46.539px" viewBox="0 0 29.91 46.539" style="enable-background:new 0 0 29.91 46.539;"
	 xml:space="preserve">
<path d="M29.609,5.167c0-0.255-0.07-0.491-0.19-0.693c0.302-0.241,0.492-0.617,0.492-1.037c0-0.739-0.593-1.343-1.33-1.343h-0.99
	c0.144-0.215,0.226-0.475,0.226-0.751c0-0.741-0.594-1.343-1.33-1.343H3.43C2.694,0,2.098,0.602,2.098,1.343
	c0,0.276,0.084,0.536,0.226,0.751H1.331C0.599,2.094,0,2.698,0,3.437c0,0.419,0.195,0.796,0.492,1.037
	c-0.12,0.202-0.19,0.438-0.19,0.693c0,0.147,0.022,0.29,0.071,0.421C0.141,5.829,0,6.156,0,6.519C0,7.261,0.599,7.86,1.331,7.86
	h0.013l4.447,35.986v0.04c0,0.005-0.002,0.007-0.002,0.013c0,0.016,0.007,0.029,0.008,0.045c-0.001,0.023,0,0.046,0.007,0.068
	c-0.003,0.016,0,0.03,0.005,0.045c0.08,0.481,0.436,0.873,0.901,0.996c0.006,0.002,0.013,0,0.019,0.002
	c1.491,0.877,4.611,1.483,8.229,1.483c3.621,0,6.744-0.608,8.233-1.486c0.006-0.002,0.014-0.002,0.021-0.004
	c0.462-0.125,0.817-0.51,0.896-0.991c0.006-0.015,0.01-0.029,0.006-0.045c0.01-0.027,0.014-0.054,0.01-0.087
	c0.001,0,0-0.002,0.001-0.004c0-0.007,0.004-0.015,0.004-0.022c0-0.004,0-0.004,0-0.006v-0.047L28.566,7.86h0.014
	c0.736,0,1.33-0.599,1.33-1.341c0-0.363-0.143-0.69-0.371-0.932C29.586,5.457,29.609,5.314,29.609,5.167z M14.957,31.318
	c-4.387,0-7.951-3.588-7.951-8.01c0-4.427,3.563-8.017,7.951-8.017c4.389,0,7.947,3.59,7.947,8.017
	C22.904,27.73,19.346,31.318,14.957,31.318z"/>
</svg>
