<?xml version="1.0" encoding="iso-8859-1"?>
<!-- Generator: Adobe Illustrator 16.0.4, SVG Export Plug-In . SVG Version: 6.00 Build 0)  -->
<!DOCTYPE svg PUBLIC "-//W3C//DTD SVG 1.1//EN" "http://www.w3.org/Graphics/SVG/1.1/DTD/svg11.dtd">
<svg version="1.1" id="Layer_1" xmlns="http://www.w3.org/2000/svg" xmlns:xlink="http://www.w3.org/1999/xlink" x="0px" y="0px"
	 width="53.479px" height="72.975px" viewBox="0 0 53.479 72.975" style="enable-background:new 0 0 53.479 72.975;"
	 xml:space="preserve">
<g>
	<path d="M8.086,51.807H1.698C0.76,51.807,0,52.564,0,53.499v17.78c0,0.937,0.76,1.695,1.697,1.695h6.685
		c-0.185-0.233-0.296-0.519-0.296-0.835V51.807z"/>
	<path d="M43.271,51.807h-4.96l-1.398-48.16c0.595-0.329,0.997-0.968,0.997-1.693c0-1.08-0.876-1.954-1.958-1.954H20.874
		c-0.536,0-1.028,0.219-1.381,0.571c-0.353,0.351-0.571,0.841-0.571,1.382c0,0.373,0.103,0.72,0.29,1.014l-2.131,48.84h2.686
		L21.856,3.9h12.381l1.394,47.907h-0.001H19.766H17.08h-6.313v20.332c0,0.316-0.112,0.602-0.294,0.835h33.088
		c-0.184-0.234-0.29-0.519-0.29-0.835V51.807z"/>
	<path d="M51.782,51.807h-5.831v20.332c0,0.316-0.108,0.602-0.29,0.835h6.121c0.938,0,1.696-0.759,1.696-1.695v-17.78
		C53.479,52.564,52.719,51.807,51.782,51.807z"/>
</g>
</svg>
