<?xml version="1.0" encoding="iso-8859-1"?>
<!-- Generator: Adobe Illustrator 16.0.4, SVG Export Plug-In . SVG Version: 6.00 Build 0)  -->
<!DOCTYPE svg PUBLIC "-//W3C//DTD SVG 1.1//EN" "http://www.w3.org/Graphics/SVG/1.1/DTD/svg11.dtd">
<svg version="1.1" id="Layer_1" xmlns="http://www.w3.org/2000/svg" xmlns:xlink="http://www.w3.org/1999/xlink" x="0px" y="0px"
	 width="82.518px" height="45.133px" viewBox="0 0 82.518 45.133" style="enable-background:new 0 0 82.518 45.133;"
	 xml:space="preserve">
<g>
	<path d="M43.313,37.307c10.021,0.32,20.388,0.652,25.442-1.339c2.398-0.944,3.609-2.271,3.591-3.933
		c-0.025-3.016-4.775-5.977-9.037-8.035c-0.002,0-0.002-0.002-0.002-0.002c0.007-0.03,0.018-0.061,0.022-0.091
		c0.513-2.412-0.417-4.546-2.081-4.771c-0.458-0.058-0.924,0.033-1.373,0.243c-0.329-0.308-0.73-0.512-1.179-0.575
		c-0.507-0.068-1.021,0.049-1.509,0.315c-0.36-0.433-0.827-0.715-1.377-0.788c-0.512-0.072-1.034,0.051-1.53,0.32
		c-0.375-0.503-0.878-0.837-1.479-0.916c-0.364-0.049-0.736-0.002-1.096,0.128c-0.278-0.208-0.603-0.339-0.958-0.39
		c-0.583-0.077-1.18,0.096-1.729,0.451c0,0-0.001-0.002-0.003-0.002c-3.893-2.241-10-4.578-15.971-6.593l0.029-0.07
		c0.281-0.685-0.045-1.468-0.732-1.75L23.32,5.807c-0.218-0.089-0.444-0.11-0.664-0.086c-0.001-0.002-0.001-0.005-0.001-0.007
		c-0.087-0.449-0.229-0.902-0.427-1.339c-0.026-0.054-0.049-0.112-0.084-0.166c-0.002-0.002-0.002-0.005-0.005-0.007
		c0.068-0.068,0.139-0.136,0.192-0.218c0.631-0.96,0.037-2.461-1.329-3.351c-1.365-0.891-2.983-0.834-3.615,0.126
		c-0.021,0.035-0.04,0.07-0.058,0.105c-1.022-0.107-2.085,0.044-3.095,0.493c-3.041,1.37-4.396,4.929-3.028,7.958
		c1.373,3.034,4.947,4.382,7.995,3.02c0.938-0.42,1.713-1.049,2.297-1.809c8.445,2.484,19.961,6.245,25.796,9.479h0.001
		c-0.207,0.442-0.373,0.918-0.482,1.428c-0.032,0.152-0.059,0.301-0.079,0.448c-6.594,0.599-17.848-0.119-26.991-0.967
		c-0.19-0.367-0.548-0.645-0.988-0.713l-7.808-1.194c-0.043-0.876-0.253-1.79-0.655-2.681c-1.371-3.029-4.393-4.63-6.749-3.571
		c-1.62,0.727-2.503,2.515-2.458,4.545c-0.871,0.475-1.306,1.795-0.981,3.186c0.366,1.584,1.574,2.661,2.697,2.403
		c0.246-0.059,0.467-0.178,0.659-0.341c1.495,1.379,3.425,1.905,5.043,1.181c0.473-0.213,0.88-0.52,1.223-0.894l8.422,1.288
		c0.517,0.079,1.005-0.15,1.292-0.544c6.374,0.598,14.416,1.192,21.114,1.192c2.36,0,4.548-0.076,6.439-0.248
		c0.367,0.922,1.03,1.562,1.896,1.678c0.365,0.049,0.737,0.002,1.096-0.131c0.279,0.207,0.604,0.341,0.958,0.39
		c0.512,0.067,1.035-0.051,1.53-0.325c0.37,0.506,0.879,0.838,1.481,0.918c0.506,0.068,1.021-0.049,1.507-0.312
		c0.361,0.43,0.828,0.715,1.377,0.785c0.458,0.062,0.925-0.028,1.372-0.243c0.33,0.315,0.729,0.519,1.184,0.582
		c0.982,0.131,2-0.442,2.776-1.429c0,0,0.001,0,0.004,0c4.614,2.258,7.472,4.496,7.479,5.621c0.006,0.325-0.488,0.867-1.889,1.416
		c-4.538,1.791-15.076,1.452-24.37,1.157c-11.939-0.386-18.799-0.496-20.952,1.671c-0.516,0.521-0.775,1.172-0.745,1.872
		c0.238,5.338,13.225,6.325,42.255,6.513c2.524,0.014,4.926,0.031,7.137,0.062l0.457-2.676c-2.337-0.03-4.89-0.049-7.575-0.068
		c-8.903-0.056-18.997-0.124-26.928-0.79c-11.231-0.946-12.498-2.692-12.637-3.083C25.806,36.748,36.319,37.083,43.313,37.307z
		 M19.383,9.199c-0.118,0.22-0.261,0.416-0.421,0.591c-1.006,1.098-2.787,1.364-4.309,0.551C12.891,9.399,12.15,7.359,13,5.786
		c0.846-1.573,2.964-2.087,4.727-1.145c1.068,0.573,1.759,1.542,1.948,2.571C19.804,7.88,19.718,8.579,19.383,9.199z"/>
	<path d="M81.307,42.462c-2.061-0.206-4.958-0.31-8.394-0.372l-0.458,2.676c3.553,0.06,6.526,0.157,8.585,0.362
		c0.045,0.004,0.09,0.004,0.135,0.004c0.681,0,1.265-0.514,1.336-1.206C82.583,43.189,82.046,42.532,81.307,42.462z"/>
</g>
</svg>
