<?xml version="1.0" encoding="iso-8859-1"?>
<!-- Generator: Adobe Illustrator 16.0.4, SVG Export Plug-In . SVG Version: 6.00 Build 0)  -->
<!DOCTYPE svg PUBLIC "-//W3C//DTD SVG 1.1//EN" "http://www.w3.org/Graphics/SVG/1.1/DTD/svg11.dtd">
<svg version="1.1" id="Layer_1" xmlns="http://www.w3.org/2000/svg" xmlns:xlink="http://www.w3.org/1999/xlink" x="0px" y="0px"
	 width="37.383px" height="49.85px" viewBox="0 0 37.383 49.85" style="enable-background:new 0 0 37.383 49.85;"
	 xml:space="preserve">
<g>
	<path d="M0,17.307v30.678c0,1.028,0.827,1.865,1.846,1.865h15.738V15.441H1.846C0.827,15.441,0,16.278,0,17.307z"/>
	<path d="M35.536,15.441H19.798v34.408h15.738c1.019,0,1.847-0.837,1.847-1.864V17.307C37.383,16.278,36.555,15.441,35.536,15.441z"
		/>
	<path d="M6.663,6.128c0.303,0.529,0.801,1.397,1.103,1.927L8.57,9.47c0.308,0.531,0.802,0.531,1.104,0l0.81-1.415
		c0.303-0.529,0.801-1.397,1.103-1.927l0.805-1.415c0.308-0.531,0.058-0.962-0.551-0.962h-1.009V0.237
		C10.832,0.108,10.725,0,10.599,0H7.651c-0.13,0-0.232,0.107-0.232,0.236v3.515H6.406c-0.606,0-0.856,0.431-0.553,0.962L6.663,6.128
		z"/>
	<path d="M25.541,6.119h1.012v3.514c0,0.129,0.105,0.233,0.23,0.233h2.947c0.129,0,0.233-0.104,0.233-0.233V6.119h1.013
		c0.604,0,0.855-0.436,0.553-0.967l-0.809-1.41c-0.303-0.529-0.802-1.401-1.104-1.933L28.811,0.4c-0.307-0.53-0.801-0.53-1.103,0
		l-0.81,1.41c-0.303,0.531-0.801,1.403-1.104,1.933l-0.805,1.41C24.684,5.684,24.932,6.119,25.541,6.119z"/>
</g>
</svg>
