<?xml version="1.0" encoding="iso-8859-1"?>
<!-- Generator: Adobe Illustrator 16.0.4, SVG Export Plug-In . SVG Version: 6.00 Build 0)  -->
<!DOCTYPE svg PUBLIC "-//W3C//DTD SVG 1.1//EN" "http://www.w3.org/Graphics/SVG/1.1/DTD/svg11.dtd">
<svg version="1.1" id="Layer_1" xmlns="http://www.w3.org/2000/svg" xmlns:xlink="http://www.w3.org/1999/xlink" x="0px" y="0px"
	 width="46.572px" height="31.609px" viewBox="0 0 46.572 31.609" style="enable-background:new 0 0 46.572 31.609;"
	 xml:space="preserve">
<g>
	<polygon points="46.573,23.807 46.573,6.29 34.923,15.98 	"/>
	<polygon points="0,6.294 0,23.802 11.648,15.98 	"/>
	<path d="M27.589,22.08c-1.158,0.963-2.684,1.489-4.305,1.489c-1.616,0-3.147-0.526-4.301-1.489l-5.193-4.322L0,27.017v3.261
		c0,0.738,0.601,1.332,1.347,1.332h43.879c0.741,0,1.347-0.594,1.347-1.332v-3.257l-13.789-9.263L27.589,22.08z"/>
	<path d="M45.226,0H1.347C0.601,0,0,0.594,0,1.33v1.487l20.717,17.227c0.663,0.548,1.597,0.863,2.567,0.863
		c0.97,0,1.906-0.315,2.566-0.863L46.573,2.813V1.33C46.573,0.594,45.967,0,45.226,0z"/>
</g>
</svg>
