<?xml version="1.0" encoding="iso-8859-1"?>
<!-- Generator: Adobe Illustrator 16.0.4, SVG Export Plug-In . SVG Version: 6.00 Build 0)  -->
<!DOCTYPE svg PUBLIC "-//W3C//DTD SVG 1.1//EN" "http://www.w3.org/Graphics/SVG/1.1/DTD/svg11.dtd">
<svg version="1.1" id="Layer_1" xmlns="http://www.w3.org/2000/svg" xmlns:xlink="http://www.w3.org/1999/xlink" x="0px" y="0px"
	 width="58.082px" height="62.629px" viewBox="0 0 58.082 62.629" style="enable-background:new 0 0 58.082 62.629;"
	 xml:space="preserve">
<path d="M54.923,28.264v-1.493l3.158-0.012l-0.009-0.337c-0.002-0.701-0.752-1.265-1.681-1.262l-3.637,0.014
	c-0.361-2.261-1.043-4.419-2.002-6.419l2.707,0.049c0.703,0.014,1.279-0.543,1.293-1.241l0.029-1.621L52.527,15.9l0.057-1.495
	l3.166,0.061v-0.339c0.014-0.699-0.724-1.281-1.652-1.297l-4.29-0.082c-0.925-0.016-1.687,0.538-1.7,1.236v0.338l3.137,0.058
	l-0.054,1.495l-2.089-0.04c-1.583-2.387-3.576-4.469-5.881-6.147l0.412,0.01c0.703,0.019,1.283-0.536,1.3-1.234l0.04-1.62
	L42.751,6.79l0.041-1.493l3.155,0.075l0.001-0.34c0.018-0.699-0.717-1.283-1.646-1.307l-4.289-0.102
	c-0.925-0.021-1.688,0.528-1.706,1.227l-0.002,0.34l3.148,0.075l-0.041,1.492l-2.226-0.051l-0.017,0.599
	c-2.278-1.055-4.75-1.763-7.35-2.056h-0.003c0.073-0.163,0.118-0.34,0.116-0.531l-0.002-0.985l0.002-0.615H31.93V3.097l-2.22,0.007
	V1.616l3.147,0.012L32.859,1.6h0.008l-0.004-0.177l0.004-0.135c0-0.093-0.016-0.182-0.041-0.27c-0.152-0.582-0.83-1.02-1.648-1.018
	l-2.138,0.007L26.903,0c-0.818-0.002-1.496,0.436-1.648,1.018c-0.026,0.088-0.04,0.177-0.04,0.27l0.003,0.135L25.215,1.6h0.007
	v0.028l3.149-0.012v1.488L26.15,3.097v0.021h-0.004l0.002,0.615l-0.005,0.985c0,0.198,0.048,0.382,0.127,0.547h-0.005
	c-2.604,0.312-5.079,1.041-7.357,2.119l-0.016-0.678l-2.225,0.051l-0.042-1.492l3.148-0.075l-0.002-0.34
	c-0.016-0.699-0.78-1.248-1.704-1.227l-4.29,0.102c-0.929,0.023-1.663,0.608-1.646,1.307l0.001,0.34l3.157-0.075L15.33,6.79
	l-2.221,0.054l0.041,1.62c0.017,0.699,0.595,1.253,1.299,1.234l0.591-0.012c-2.338,1.702-4.353,3.814-5.955,6.242v-0.093
	l-2.194,0.04L6.835,14.38l3.137-0.058l-0.001-0.338c-0.013-0.698-0.773-1.252-1.7-1.236L3.983,12.83
	c-0.929,0.016-1.666,0.598-1.653,1.297v0.339l3.167-0.061L5.552,15.9l-2.253,0.042l0.03,1.621c0.013,0.698,0.588,1.255,1.292,1.241
	l2.881-0.054c-0.955,2.002-1.641,4.16-2.001,6.424L1.688,25.16c-0.927-0.002-1.678,0.561-1.681,1.262L0,26.76l3.157,0.012v1.493
	l-2.221-0.007l-0.005,1.621c-0.002,0.699,0.56,1.269,1.263,1.271l3.101,0.012v0.002c0.268,2.971,1.088,5.786,2.351,8.344
	l-2.92,0.008c-0.929,0.002-1.675,0.572-1.673,1.271l-0.006,0.34l3.151-0.01v1.492l-2.205,0.008l0.004,1.623
	C4,44.938,4.566,45.502,5.269,45.5l3.247-0.01c0.701-0.002,1.267-0.57,1.265-1.271l-0.002-1.196
	c1.338,1.837,2.934,3.472,4.731,4.858l-0.474,0.695l-0.82-0.018c-0.929-0.021-1.688,0.531-1.703,1.229l-0.015,0.34l1.458,0.031
	l-6.483,9.494H2.598c-0.54,0-0.977,0.436-0.977,0.975v1.928H6.54c0.14,0.047,0.285,0.074,0.43,0.074c0.143,0,0.28-0.03,0.415-0.074
	h4.937v-1.928c0-0.539-0.438-0.975-0.978-0.975H9.71l3.528-5.169c0.119,0.04,0.243,0.067,0.375,0.072l3.246,0.069
	c0.7,0.015,1.28-0.541,1.296-1.238l0.036-1.621l-2.25-0.049l0.036-1.243l0.168-0.247l2.144,0.047c0.001,0,0.002,0,0.002,0
	c2.854,1.451,6.033,2.35,9.405,2.545v0.602l-1.459-0.008v0.021h-0.18l0.007,1.62c0.003,0.7,0.574,1.265,1.273,1.265l0.359-0.002
	v1.956h-3.03c-0.539,0-0.977,0.438-0.977,0.976v1.928h10.7V59.25c0-0.539-0.437-0.976-0.978-0.976h-3.041v-1.956l0.371,0.002
	c0.699,0,1.271-0.562,1.271-1.265l0.007-1.62h-0.179v-0.021l-1.473,0.008v-0.588c0.002,0,0.002,0,0.002,0
	c3.438-0.176,6.69-1.08,9.6-2.562h0.001l1.87-0.04l0.265,0.388l0.03,1.1l-2.249,0.05l0.036,1.621
	c0.015,0.698,0.596,1.253,1.296,1.239l3.245-0.07c0.104-0.005,0.203-0.021,0.299-0.047l3.512,5.145h-1.636
	c-0.539,0-0.978,0.436-0.978,0.973v1.929h4.939c0.133,0.044,0.271,0.073,0.413,0.073c0.146,0,0.291-0.026,0.431-0.073h4.917v-1.929
	c0-0.537-0.437-0.973-0.978-0.973h-3.873l-6.481-9.494l1.548-0.033l-0.015-0.34c-0.015-0.697-0.774-1.25-1.703-1.229l-0.909,0.021
	l-0.387-0.566c1.788-1.354,3.374-2.939,4.732-4.734l0.004,0.938c-0.002,0.701,0.562,1.27,1.263,1.271l3.247,0.01
	c0.704,0.002,1.271-0.563,1.273-1.263l0.004-1.622l-2.207-0.008v-1.492l3.152,0.01l-0.007-0.34c0.003-0.699-0.743-1.27-1.672-1.271
	l-2.747-0.008c1.264-2.559,2.084-5.373,2.352-8.344V31.16l2.926-0.012c0.703-0.002,1.266-0.573,1.263-1.271l-0.004-1.621
	L54.923,28.264z M5.205,28.274l-0.71-0.005v-1.493l0.799,0.003C5.245,27.272,5.218,27.77,5.205,28.274z M17.855,11.001
	c0,0,0.001-0.002,0.002-0.002l2.36,4.08c-2.055,1.304-3.808,3.052-5.115,5.104c-0.001,0.002-0.001,0.002-0.001,0.002l-4.061-2.34
	C12.756,15.076,15.095,12.731,17.855,11.001z M15.593,35.956c-0.999-1.9-1.601-4.043-1.699-6.307c0,0,0,0,0-0.002h12.644
	L15.593,35.956z M25.498,31.789l-6.062,8.877c-1.236-1.006-2.309-2.211-3.173-3.556l-0.001-0.002L25.498,31.789z M13.894,28.313
	c0.098-2.264,0.7-4.403,1.693-6.308l10.95,6.308H13.894z M16.259,20.851c1.19-1.851,2.768-3.427,4.628-4.615l6.319,10.92
	L16.259,20.851z M10.374,19.002l4.059,2.34c-1.111,2.1-1.774,4.461-1.877,6.971H7.882C7.985,24.956,8.871,21.791,10.374,19.002z
	 M7.535,42.606v-1.492l0.985-0.005c0.299,0.513,0.615,1.007,0.958,1.49l0.001,0.002L7.535,42.606z M7.883,29.65l4.673-0.002
	c0,0.002,0,0.002,0,0.002c0.103,2.509,0.767,4.871,1.876,6.974l-4.06,2.34c0-0.002,0-0.002,0-0.002
	C8.872,36.168,7.986,33.004,7.883,29.65z M16.016,45.676c-1.966-1.545-3.656-3.428-4.975-5.559l4.061-2.34c0,0,0,0.002,0.001,0.002
	c0.967,1.523,2.18,2.871,3.576,3.996L16.016,45.676z M27.696,50.148c-3.126-0.205-6.073-1.097-8.686-2.51l2.367-4.091
	c1.913,1.01,4.054,1.65,6.319,1.834V50.148z M27.697,44.038c-2.024-0.174-3.933-0.748-5.649-1.646l3.055-5.284l2.594-3.795V44.038z
	 M28.365,26.49l-6.319-10.922c1.906-0.997,4.051-1.597,6.319-1.695V26.49z M28.365,12.538c-2.518,0.1-4.89,0.764-6.989,1.872
	l-2.365-4.086c2.8-1.518,5.978-2.424,9.354-2.54V12.538z M50.375,28.313h-4.862c-0.104-2.51-0.767-4.871-1.878-6.974l4.201-2.419
	C49.36,21.732,50.271,24.922,50.375,28.313z M32.437,31.712l9.367,5.397c-0.873,1.365-1.967,2.582-3.223,3.603L32.437,31.712z
	 M36.023,42.392c-0.001,0.002-0.002,0.002-0.002,0.002c-1.717,0.896-3.626,1.469-5.646,1.642c0,0,0,0-0.002,0.002V33.43l3.041,4.455
	L36.023,42.392z M31.53,29.647h12.644c0,0.002,0,0.002,0,0.002c-0.098,2.264-0.699,4.405-1.698,6.305L31.53,29.647z M30.861,27.156
	l6.319-10.92c1.854,1.183,3.437,2.764,4.629,4.615L30.861,27.156z M31.53,28.313l10.949-6.308c0,0.003,0,0.003,0,0.003
	c0.995,1.9,1.597,4.04,1.694,6.305H31.53z M40.259,10.917h0.003c0.397,0.245,0.78,0.501,1.159,0.764c0,0.004,0,0.004,0.004,0.004
	c0.002,0.002,0.002,0.002,0.005,0.002c0.075,0.1,0.178,0.177,0.3,0.221c0,0,0,0.004,0.004,0.004c2.163,1.59,4.004,3.576,5.428,5.853
	l-4.197,2.419c0,0,0,0,0-0.002c-1.307-2.051-3.055-3.8-5.11-5.104c0,0-0.001-0.002-0.004-0.002L40.259,10.917z M29.705,7.774h0.002
	c3.385,0.091,6.576,0.976,9.393,2.476l-2.406,4.161c-2.102-1.108-4.473-1.772-6.986-1.872h-0.002V7.774z M29.703,26.49V13.873
	c0.002,0,0.002,0,0.002,0c2.271,0.103,4.414,0.698,6.318,1.695L29.703,26.49z M39.098,47.711c-2.627,1.4-5.584,2.268-8.724,2.451
	c0,0,0,0-0.002,0v-4.781c0.002,0,0.002,0,0.002,0c2.266-0.184,4.401-0.824,6.314-1.83c0,0,0.002,0,0.003-0.002L39.098,47.711
	L39.098,47.711z M47.162,40.198c-1.351,2.162-3.082,4.062-5.102,5.605l-2.721-3.983c1.418-1.134,2.645-2.501,3.625-4.04l0.002-0.002
	l4.195,2.417V40.198z M47.839,39.043l-4.203-2.422h0.001c1.106-2.1,1.771-4.463,1.874-6.973c0,0,0,0,0-0.002l4.861,0.002
	C50.271,33.04,49.365,36.231,47.839,39.043z M50.542,42.606l-1.769-0.004l0.001-0.002c0.344-0.479,0.659-0.979,0.959-1.484
	c0.001-0.003,0.001-0.003,0.001-0.006l0.808,0.004V42.606z M53.048,28.271c-0.014-0.501-0.041-0.999-0.09-1.492l0.625-0.003v1.493
	h0.002L53.048,28.271z"/>
</svg>
