<?xml version="1.0" encoding="iso-8859-1"?>
<!-- Generator: Adobe Illustrator 16.0.4, SVG Export Plug-In . SVG Version: 6.00 Build 0)  -->
<!DOCTYPE svg PUBLIC "-//W3C//DTD SVG 1.1//EN" "http://www.w3.org/Graphics/SVG/1.1/DTD/svg11.dtd">
<svg version="1.1" id="Layer_1" xmlns="http://www.w3.org/2000/svg" xmlns:xlink="http://www.w3.org/1999/xlink" x="0px" y="0px"
	 width="34.498px" height="47.686px" viewBox="0 0 34.498 47.686" style="enable-background:new 0 0 34.498 47.686;"
	 xml:space="preserve">
<path d="M32.99,0H1.508C0.672,0,0,0.678,0,1.506v44.673c0,0.828,0.672,1.506,1.508,1.506H32.99c0.834,0,1.508-0.678,1.508-1.506
	V1.506C34.498,0.678,33.824,0,32.99,0z M5.739,44.823c0,0.367-0.296,0.671-0.663,0.671H3.37c-0.367,0-0.669-0.304-0.669-0.671V43.12
	c0-0.366,0.302-0.668,0.669-0.668h1.706c0.367,0,0.663,0.302,0.663,0.668V44.823z M5.739,39.812c0,0.366-0.296,0.664-0.663,0.664
	H3.37c-0.367,0-0.669-0.298-0.669-0.664v-1.706c0-0.368,0.302-0.667,0.669-0.667h1.706c0.367,0,0.663,0.298,0.663,0.667V39.812z
	 M5.739,34.798c0,0.366-0.296,0.664-0.663,0.664H3.37c-0.367,0-0.669-0.298-0.669-0.664v-1.705c0-0.369,0.302-0.667,0.669-0.667
	h1.706c0.367,0,0.663,0.298,0.663,0.667V34.798z M5.739,29.781c0,0.365-0.296,0.668-0.663,0.668H3.37
	c-0.367,0-0.669-0.304-0.669-0.668v-1.703c0-0.369,0.302-0.664,0.669-0.664h1.706c0.367,0,0.663,0.295,0.663,0.664V29.781z
	 M5.739,24.767c0,0.368-0.296,0.669-0.663,0.669H3.37c-0.367,0-0.669-0.301-0.669-0.669v-1.703c0-0.369,0.302-0.669,0.669-0.669
	h1.706c0.367,0,0.663,0.3,0.663,0.669V24.767z M5.739,19.753c0,0.368-0.296,0.669-0.663,0.669H3.37
	c-0.367,0-0.669-0.301-0.669-0.669V18.05c0-0.368,0.302-0.668,0.669-0.668h1.706c0.367,0,0.663,0.3,0.663,0.668V19.753z
	 M5.739,14.74c0,0.368-0.296,0.663-0.663,0.663H3.37c-0.367,0-0.669-0.295-0.669-0.663v-1.703c0-0.368,0.302-0.668,0.669-0.668
	h1.706c0.367,0,0.663,0.3,0.663,0.668V14.74z M5.739,9.722c0,0.373-0.296,0.668-0.663,0.668H3.37c-0.367,0-0.669-0.296-0.669-0.668
	V8.023c0-0.373,0.302-0.668,0.669-0.668h1.706c0.367,0,0.663,0.295,0.663,0.668V9.722z M5.739,4.708
	c0,0.368-0.296,0.668-0.663,0.668H3.37c-0.367,0-0.669-0.3-0.669-0.668V3.005c0-0.369,0.302-0.664,0.669-0.664h1.706
	c0.367,0,0.663,0.295,0.663,0.664V4.708z M26.461,42.902c0,0.828-0.819,1.507-1.834,1.507H9.872c-1.013,0-1.836-0.679-1.836-1.507
	v-5.493c0-0.833,0.823-1.508,1.836-1.508h14.755c1.015,0,1.834,0.675,1.834,1.508V42.902z M26.461,31.892
	c0,0.833-0.819,1.506-1.834,1.506H9.872c-1.013,0-1.836-0.673-1.836-1.506V26.4c0-0.831,0.823-1.508,1.836-1.508h14.755
	c1.015,0,1.834,0.678,1.834,1.508V31.892z M26.461,20.887c0,0.831-0.819,1.504-1.834,1.504H9.872c-1.013,0-1.836-0.673-1.836-1.504
	V15.39c0-0.828,0.823-1.502,1.836-1.502h14.755c1.015,0,1.834,0.674,1.834,1.502V20.887z M26.461,9.879
	c0,0.83-0.819,1.506-1.834,1.506H9.872c-1.013,0-1.836-0.676-1.836-1.506V4.387c0-0.835,0.823-1.509,1.836-1.509h14.755
	c1.015,0,1.834,0.674,1.834,1.509V9.879z M31.797,44.823c0,0.367-0.3,0.671-0.669,0.671h-1.705c-0.367,0-0.665-0.304-0.669-0.671
	V43.12c0-0.366,0.302-0.668,0.669-0.668h1.705c0.369,0,0.669,0.302,0.669,0.668V44.823z M31.797,39.812
	c0,0.366-0.3,0.664-0.669,0.664h-1.705c-0.367,0-0.665-0.298-0.669-0.664v-1.706c0-0.368,0.302-0.667,0.669-0.667h1.705
	c0.369,0,0.669,0.298,0.669,0.667V39.812z M31.797,34.798c0,0.366-0.3,0.664-0.669,0.664h-1.705c-0.367,0-0.665-0.298-0.669-0.664
	v-1.705c0-0.369,0.302-0.667,0.669-0.667h1.705c0.369,0,0.669,0.298,0.669,0.667V34.798z M31.797,29.781
	c0,0.365-0.3,0.668-0.669,0.668h-1.705c-0.367,0-0.665-0.304-0.669-0.668v-1.703c0-0.369,0.302-0.664,0.669-0.664h1.705
	c0.369,0,0.669,0.295,0.669,0.664V29.781z M31.797,24.767c0,0.368-0.3,0.669-0.669,0.669h-1.705c-0.367,0-0.665-0.301-0.669-0.669
	v-1.703c0-0.369,0.302-0.669,0.669-0.669h1.705c0.369,0,0.669,0.3,0.669,0.669V24.767z M31.797,19.753
	c0,0.368-0.3,0.669-0.669,0.669h-1.705c-0.367,0-0.665-0.301-0.669-0.669V18.05c0-0.368,0.302-0.668,0.669-0.668h1.705
	c0.369,0,0.669,0.3,0.669,0.668V19.753z M31.797,14.74c0,0.368-0.3,0.663-0.669,0.663h-1.705c-0.367,0-0.665-0.295-0.669-0.663
	v-1.703c0-0.368,0.302-0.668,0.669-0.668h1.705c0.369,0,0.669,0.3,0.669,0.668V14.74z M31.797,9.722c0,0.373-0.3,0.668-0.669,0.668
	h-1.705c-0.367,0-0.665-0.296-0.669-0.668V8.023c0-0.373,0.302-0.668,0.669-0.668h1.705c0.369,0,0.669,0.295,0.669,0.668V9.722z
	 M31.797,4.708c0,0.368-0.3,0.668-0.669,0.668h-1.705c-0.367,0-0.665-0.3-0.669-0.668V3.005c0-0.369,0.302-0.664,0.669-0.664h1.705
	c0.369,0,0.669,0.295,0.669,0.664V4.708z"/>
</svg>
