<?xml version="1.0" encoding="iso-8859-1"?>
<!-- Generator: Adobe Illustrator 16.0.4, SVG Export Plug-In . SVG Version: 6.00 Build 0)  -->
<!DOCTYPE svg PUBLIC "-//W3C//DTD SVG 1.1//EN" "http://www.w3.org/Graphics/SVG/1.1/DTD/svg11.dtd">
<svg version="1.1" id="Layer_1" xmlns="http://www.w3.org/2000/svg" xmlns:xlink="http://www.w3.org/1999/xlink" x="0px" y="0px"
	 width="38.8px" height="56.583px" viewBox="0 0 38.8 56.583" style="enable-background:new 0 0 38.8 56.583;" xml:space="preserve"
	>
<path d="M38.645,3.056L34.62,13.373c-0.264,0.68-0.829,1.16-1.483,1.343L18.75,52.458c-0.072,0.188-0.178,0.349-0.313,0.478
	c-1.543,2.011-6.952,3.647-10.623,3.647c-2.104,0-4.598-1.116-6.001-2.67C0.336,52.277,0,50.181,0,48.913
	c0-2.483,6.782-2.026,11.044-1.355c2.427,0.382,4.599,0.907,6.029,1.735l13.555-35.554c-0.362-0.579-0.452-1.313-0.188-1.993
	l4.028-10.314c0.448-1.156,1.744-1.728,2.902-1.278C38.524,0.602,39.098,1.9,38.645,3.056z"/>
</svg>
