<?xml version="1.0" encoding="iso-8859-1"?>
<!-- Generator: Adobe Illustrator 16.0.4, SVG Export Plug-In . SVG Version: 6.00 Build 0)  -->
<!DOCTYPE svg PUBLIC "-//W3C//DTD SVG 1.1//EN" "http://www.w3.org/Graphics/SVG/1.1/DTD/svg11.dtd">
<svg version="1.1" id="Layer_1" xmlns="http://www.w3.org/2000/svg" xmlns:xlink="http://www.w3.org/1999/xlink" x="0px" y="0px"
	 width="14.953px" height="57.457px" viewBox="0 0 14.953 57.457" style="enable-background:new 0 0 14.953 57.457;"
	 xml:space="preserve">
<g>
	<path d="M11.628,16.348H3.329c-0.742,0-1.341,0.598-1.341,1.339c0,0.568,0.353,1.055,0.853,1.246
		c0.01,0.735,0.582,1.324,1.288,1.333l0.589,0.005l1.416,25.316v10.53c0,0.74,0.603,1.34,1.341,1.34c0.741,0,1.341-0.6,1.341-1.34
		V45.671l1.421-25.356l0.56,0.004c0.713,0.005,1.3-0.589,1.308-1.332v-0.049c0.501-0.191,0.862-0.677,0.862-1.25
		C12.966,16.947,12.364,16.349,11.628,16.348z"/>
	<circle cx="7.475" cy="7.477" r="7.477"/>
</g>
</svg>
