<?xml version="1.0" encoding="iso-8859-1"?>
<!-- Generator: Adobe Illustrator 16.0.4, SVG Export Plug-In . SVG Version: 6.00 Build 0)  -->
<!DOCTYPE svg PUBLIC "-//W3C//DTD SVG 1.1//EN" "http://www.w3.org/Graphics/SVG/1.1/DTD/svg11.dtd">
<svg version="1.1" id="Layer_1" xmlns="http://www.w3.org/2000/svg" xmlns:xlink="http://www.w3.org/1999/xlink" x="0px" y="0px"
	 width="44.309px" height="55.104px" viewBox="0 0 44.309 55.104" style="enable-background:new 0 0 44.309 55.104;"
	 xml:space="preserve">
<g>
	<path d="M38.691,7.996c-2.373-1.104-4.788-0.948-5.4,0.349c-0.608,1.294,0.82,3.239,3.194,4.345
		c2.375,1.106,7.147,2.046,7.757,0.75C44.852,12.143,41.063,9.101,38.691,7.996z"/>
	<path d="M25.552,25.806c-0.864,0.293-1.79,0.454-2.752,0.454c-1.258,0-2.446-0.272-3.524-0.756
		c-0.049-0.019-0.104-0.046-0.152-0.067c-1.278,1.134-2.115,2.764-2.195,4.583c-0.005,0.103-0.009,0.204-0.009,0.308
		c0,0.951,0.205,1.854,0.572,2.672c0.165,0.37,0.366,0.722,0.594,1.05c0.332,0.482,0.729,0.912,1.173,1.282
		c0.626,0.528,1.353,0.938,2.147,1.206c0.541,0.179,1.113,0.293,1.703,0.322c0.13,0.013,0.259,0.015,0.394,0.015
		c0.276,0,0.551-0.02,0.818-0.055c2.639-0.32,4.789-2.192,5.505-4.676C27.531,30.845,25.9,28.524,25.552,25.806z"/>
	<path d="M16.218,17.4c-0.004,0.103-0.008,0.199-0.008,0.303c0,0.377,0.031,0.742,0.095,1.104v0.005
		c0.24,1.415,0.939,2.674,1.933,3.622c0.23,0.223,0.482,0.426,0.746,0.619c0.13,0.088,0.258,0.172,0.393,0.251
		c0.196,0.122,0.397,0.229,0.608,0.331c0.447,0.21,0.926,0.368,1.422,0.475c0.448,0.098,0.914,0.146,1.392,0.146
		c0.729,0,1.432-0.119,2.089-0.337c0.224-0.075,0.446-0.158,0.657-0.261c0.022-0.195,0.054-0.394,0.095-0.584
		c0.062-0.328,0.147-0.654,0.245-0.967c0.608-1.885,1.857-3.485,3.489-4.55c-0.041-1.894-0.886-3.593-2.218-4.757
		c0.165-0.222,0.363-0.475,0.577-0.748c0.191-0.24,0.407-0.502,0.626-0.768c2.522-3.035,7.402-8.186,11.73-8.616
		c0.738-0.077,1.276-0.73,1.197-1.466c-0.071-0.733-0.724-1.263-1.467-1.197c-5.02,0.507-10.13,5.486-13.533,9.58
		c-0.23,0.285-0.447,0.556-0.647,0.806c-0.081,0.099-0.162,0.195-0.238,0.293l-0.401,0.523c-0.071,0.088-0.139,0.179-0.201,0.258
		c-0.632-0.21-1.304-0.314-2-0.314c-1.592,0-3.05,0.559-4.187,1.494c-1.387,1.133-2.299,2.823-2.394,4.726V17.4z"/>
	<path d="M9.039,44.346c-0.777,0.23-1.602,0.356-2.451,0.356c-1.553,0-3.015-0.414-4.272-1.134C0.899,44.77,0,46.553,0,48.552
		c0,3.619,2.952,6.552,6.588,6.552c3.452,0,6.284-2.641,6.557-6.005C11.238,48.098,9.754,46.399,9.039,44.346z"/>
	<path d="M2.266,41.096c0.286,0.249,0.6,0.478,0.926,0.672c0.397,0.24,0.824,0.436,1.271,0.587c0.666,0.229,1.383,0.348,2.125,0.348
		c0.702,0,1.383-0.11,2.018-0.311c-0.004-0.023-0.009-0.052-0.009-0.077C8.574,42.061,8.56,41.803,8.56,41.54
		c0-0.103,0-0.204,0.009-0.308c0.009-0.352,0.045-0.695,0.099-1.035c0.411-2.587,1.995-4.788,4.187-6.055
		c-0.193-0.596-0.471-1.16-0.812-1.665c-0.401,0.059-0.808,0.088-1.229,0.088c-2.447,0-4.655-1.021-6.222-2.659
		C1.931,30.747,0,33.226,0,36.151C0,38.127,0.876,39.899,2.266,41.096z"/>
	<path d="M14.28,18.87c-1.234,0.684-2.655,1.077-4.17,1.077c-1.314,0-2.562-0.297-3.676-0.824c-1.356,1.196-2.205,2.944-2.205,4.888
		c0,1.361,0.416,2.625,1.128,3.675c0.228,0.33,0.481,0.641,0.769,0.924c0.398,0.407,0.854,0.762,1.355,1.053
		c0.733,0.431,1.561,0.724,2.441,0.84c0.291,0.04,0.587,0.062,0.891,0.062c0.271,0,0.545-0.019,0.811-0.054
		c0.41-0.044,0.809-0.132,1.188-0.253c0.81-0.258,1.548-0.663,2.187-1.185c0.269-1.832,1.123-3.482,2.375-4.741
		C15.725,22.998,14.58,21.067,14.28,18.87z"/>
	<path d="M6.302,16.734c0.312,0.229,0.651,0.424,1.006,0.586c0.45,0.215,0.926,0.374,1.427,0.478
		c0.442,0.098,0.903,0.146,1.377,0.146c0.729,0,1.431-0.114,2.085-0.333c0.482-0.159,0.938-0.375,1.364-0.635
		c0.254-0.156,0.5-0.33,0.731-0.517c0.01-0.086,0.022-0.165,0.041-0.244c0.306-1.751,1.149-3.312,2.354-4.521
		c0.003-0.102,0.008-0.201,0.008-0.302c0-3.617-2.947-6.55-6.583-6.55c-3.637,0-6.588,2.933-6.588,6.55
		C3.524,13.598,4.62,15.551,6.302,16.734z"/>
	<path d="M17.388,24.316c-0.006,0.003-0.01,0.009-0.015,0.018c0.005,0.009,0.009,0.014,0.015,0.014V24.316z"/>
	<path d="M34.075,18.167c-0.983,0-1.914,0.212-2.75,0.601c-0.403,0.183-0.788,0.405-1.141,0.663
		c-1.153,0.845-2.026,2.055-2.434,3.461c-0.062,0.211-0.116,0.436-0.151,0.663c-0.026,0.124-0.045,0.249-0.059,0.377
		c-0.031,0.258-0.05,0.517-0.05,0.782c0,0.051,0,0.097,0.005,0.148c0,0.09,0.004,0.174,0.009,0.262
		c0.122,1.953,1.101,3.675,2.567,4.797c0.317,0.239,0.657,0.453,1.015,0.635c0.312,0.161,0.645,0.294,0.984,0.405
		c0.63,0.201,1.306,0.307,2.004,0.307c3.636,0,6.583-2.932,6.583-6.554C40.658,21.1,37.711,18.167,34.075,18.167z"/>
	<path d="M16.337,35.043c-0.412,0.051-0.812,0.139-1.197,0.263c-0.342,0.107-0.662,0.242-0.977,0.4
		c-0.353,0.18-0.683,0.389-0.997,0.624c-1.427,1.087-2.393,2.726-2.562,4.602c-0.02,0.143-0.027,0.285-0.027,0.432
		c-0.006,0.058-0.006,0.12-0.006,0.177c0,0.19,0.009,0.384,0.028,0.575c0.008,0.137,0.026,0.281,0.049,0.413
		c0.053,0.352,0.133,0.693,0.241,1.021c0.005,0.019,0.015,0.042,0.019,0.059c0.376,1.127,1.047,2.114,1.927,2.875
		c0.386,0.333,0.815,0.626,1.271,0.863c0.35,0.182,0.716,0.333,1.096,0.454c0.617,0.19,1.275,0.293,1.959,0.293
		c3.636,0,6.582-2.932,6.582-6.554c0-0.952-0.205-1.858-0.571-2.672C20.323,38.761,17.823,37.266,16.337,35.043z"/>
</g>
</svg>
