<?xml version="1.0" encoding="iso-8859-1"?>
<!-- Generator: Adobe Illustrator 16.0.4, SVG Export Plug-In . SVG Version: 6.00 Build 0)  -->
<!DOCTYPE svg PUBLIC "-//W3C//DTD SVG 1.1//EN" "http://www.w3.org/Graphics/SVG/1.1/DTD/svg11.dtd">
<svg version="1.1" id="Layer_1" xmlns="http://www.w3.org/2000/svg" xmlns:xlink="http://www.w3.org/1999/xlink" x="0px" y="0px"
	 width="37.372px" height="69.859px" viewBox="0 0 37.372 69.859" style="enable-background:new 0 0 37.372 69.859;"
	 xml:space="preserve">
<path d="M35.176,16.583l-2.75,3.5l-0.485-0.62l4.79-11.219c0.323-0.76,0.477-1.544,0.477-2.322c0-1.582-0.64-3.112-1.771-4.22
	c-0.513-0.508-1.128-0.926-1.833-1.226c-3.009-1.284-6.491,0.113-7.775,3.122l-5.625,13.168c-0.543-0.591-1.428-0.972-2.375-0.995
	l-0.022,0.01c-0.035-0.015-0.067-0.023-0.103-0.03c0.269-0.473,0.755-1.105,1.263-1.105h0.013c0.099,0.005,0.198-0.085,0.202-0.192
	c0.003-0.113-0.085-0.202-0.194-0.202h-0.021c-0.216,0-0.423,0.067-0.608,0.181c0.051-0.26,0.005-0.664-0.466-1.159
	c-0.845-0.887-1.362-0.96-1.362-0.96s-0.74,2.438,1.406,2.455c-0.248,0.256-0.444,0.557-0.575,0.784
	c-1.455-1.655-4.182-1.784-4.464,0.998c-0.005,0.005-0.005,0.007,0,0.017c-0.027,0.082-0.046,0.162-0.059,0.246
	c-0.723-0.242-1.612-0.191-2.422,0.162l-0.018,0.02c-0.035,0.005-0.072,0.009-0.108,0.014c0.051-0.545,0.221-1.329,0.692-1.54
	c0.103-0.044,0.148-0.157,0.103-0.26c-0.044-0.1-0.162-0.145-0.259-0.1c-0.208,0.095-0.369,0.247-0.495,0.435
	c-0.063-0.258-0.279-0.61-0.917-0.859c-1.137-0.446-1.635-0.293-1.635-0.293s0.358,2.525,2.312,1.629
	c-0.116,0.331-0.166,0.69-0.192,0.956c-0.692-0.305-1.442-0.381-2.094-0.246l-0.112-0.144L7.525,16.8c0,0.005,0,0.005-0.005,0.005
	c-0.808,0.254-1.407,0.873-1.434,1.826l-1.141,1.453l-2.749-3.5L0,19.384l1.649,48.315c0,1.191,0.966,2.161,2.166,2.161H33.56
	c1.198,0,2.164-0.969,2.164-2.161l1.649-48.315L35.176,16.583z M27.036,7.139c2.201,0.226,4.258,1,5.951,2.249
	c0.283,0.207,0.346,0.602,0.135,0.885c-0.121,0.169-0.314,0.261-0.507,0.261c-0.135,0-0.266-0.042-0.377-0.127
	c-1.51-1.108-3.356-1.806-5.332-2.005c-0.345-0.037-0.601-0.348-0.565-0.692C26.375,7.359,26.69,7.104,27.036,7.139z M30.252,16.997
	c-0.041,0.054-0.084,0.103-0.141,0.133c-0.107,0.085-0.236,0.127-0.373,0.127c-0.13,0-0.261-0.042-0.373-0.127
	c-0.027-0.016-0.049-0.035-0.076-0.054c-1.5-1.078-3.311-1.753-5.256-1.946c-0.35-0.038-0.603-0.351-0.564-0.697
	c0.035-0.35,0.345-0.604,0.695-0.565c2.201,0.226,4.258,1.002,5.953,2.243C30.402,16.318,30.459,16.713,30.252,16.997z"/>
</svg>
