<?xml version="1.0" encoding="iso-8859-1"?>
<!-- Generator: Adobe Illustrator 16.0.4, SVG Export Plug-In . SVG Version: 6.00 Build 0)  -->
<!DOCTYPE svg PUBLIC "-//W3C//DTD SVG 1.1//EN" "http://www.w3.org/Graphics/SVG/1.1/DTD/svg11.dtd">
<svg version="1.1" id="Layer_1" xmlns="http://www.w3.org/2000/svg" xmlns:xlink="http://www.w3.org/1999/xlink" x="0px" y="0px"
	 width="38.395px" height="55.156px" viewBox="0 0 38.395 55.156" style="enable-background:new 0 0 38.395 55.156;"
	 xml:space="preserve">
<path d="M37.997,30.16c-0.2-0.576-0.478-1.137-0.839-1.67c-1.097-1.629-2.749-2.659-4.535-3.008
	c-0.165-0.091-0.355-0.138-0.557-0.138h-1.919c0.798-1.626,1.249-3.458,1.249-5.396c0-0.846-0.085-1.676-0.25-2.472
	c0.946-0.29,1.638-1.171,1.638-2.225v-1.898c0-0.859-0.464-1.616-1.161-2.019C31.026,4.974,25.692,0,19.198,0
	S7.369,4.974,6.771,11.333c-0.692,0.403-1.16,1.155-1.16,2.019v1.898c0,1.054,0.693,1.939,1.638,2.23
	c-0.167,0.797-0.25,1.621-0.25,2.467c0,1.938,0.451,3.771,1.249,5.396h-0.45c-0.21-0.024-0.424-0.033-0.639-0.033
	c-0.218,0-0.433,0.01-0.642,0.033c-0.826,0.071-1.611,0.286-2.335,0.621C2.014,26.96,0.419,29.01,0.076,31.47
	c-0.022,0.169-0.04,0.343-0.059,0.519C0.009,32.174,0,32.355,0,32.539C0,32.695,0.004,32.848,0.017,33c0,0.005,0,0.005,0,0.005
	v0.022c0.009,0.113,0.018,0.224,0.036,0.336c-0.006,0.005-0.006,0.009,0,0.014c0.006,0.04,0.009,0.08,0.014,0.115
	c0.013,0.107,0.03,0.216,0.054,0.32c0.014,0.084,0.032,0.174,0.053,0.261c0.019,0.084,0.04,0.169,0.062,0.251
	c0,0.012,0.005,0.025,0.013,0.04c0.173,0.661,0.438,1.296,0.795,1.891c0.055,0.085,0.104,0.164,0.161,0.246
	c0.378,0.575,0.848,1.103,1.401,1.554c0.17,0.144,0.348,0.279,0.535,0.403c0.189,0.131,0.38,0.247,0.576,0.354
	c0.005,0,0.01,0.004,0.014,0.01l2.781,1.888c-0.196,0.167-0.321,0.392-0.375,0.628L2.329,44.1c-0.321,0.234-0.392,0.683-0.16,1.006
	C2.307,45.297,2.526,45.4,2.744,45.4c0.149,0,0.296-0.045,0.421-0.143l3.458-2.506l0.546,0.807l-3.433,2.494
	c-0.322,0.232-0.392,0.68-0.16,0.998c0.138,0.197,0.356,0.301,0.58,0.301c0.142,0,0.289-0.045,0.414-0.139l3.402-2.467l0.544,0.811
	l-3.374,2.447c-0.317,0.234-0.39,0.682-0.161,1c0.143,0.197,0.363,0.298,0.581,0.298c0.146,0,0.293-0.044,0.419-0.138l3.339-2.422
	l0.551,0.812l-3.316,2.406c-0.32,0.232-0.394,0.68-0.16,0.998c0.137,0.197,0.354,0.3,0.574,0.3c0.148,0,0.295-0.044,0.42-0.138
	l3.28-2.382l0.549,0.81l-3.259,2.364c-0.321,0.231-0.393,0.682-0.16,0.998c0.138,0.196,0.357,0.297,0.58,0.297
	c0.145,0,0.291-0.041,0.415-0.135l3.225-2.339l0.549,0.812l-3.202,2.319c-0.317,0.234-0.388,0.681-0.16,1
	c0.144,0.191,0.361,0.295,0.58,0.295c0.147,0,0.291-0.04,0.419-0.135l3.354-2.432c0.344,0.12,0.735,0.08,1.062-0.14l4.581-3.111
	l4.578,3.115c0.104,0.067,0.211,0.121,0.327,0.151c0.165,0.05,0.334,0.063,0.503,0.037c0.077-0.01,0.153-0.027,0.224-0.054
	c0.018,0,0.04-0.01,0.063-0.022h0.003l3.38,2.455c0.128,0.094,0.271,0.134,0.418,0.134c0.224,0,0.437-0.103,0.581-0.295
	c0.227-0.318,0.157-0.767-0.161-1L25.862,51.5l0.544-0.807l3.281,2.379c0.125,0.093,0.271,0.135,0.414,0.135
	c0.225,0,0.442-0.102,0.582-0.297c0.23-0.316,0.161-0.766-0.161-0.998l-3.312-2.403l0.544-0.813l3.338,2.425
	c0.125,0.094,0.272,0.138,0.415,0.138c0.225,0,0.443-0.103,0.582-0.3c0.232-0.317,0.159-0.767-0.162-0.998l-3.368-2.446l0.544-0.81
	l3.396,2.462c0.124,0.093,0.272,0.139,0.418,0.139c0.221,0,0.439-0.102,0.577-0.299c0.232-0.318,0.162-0.766-0.156-1l-3.433-2.488
	l0.545-0.811l3.455,2.507c0.128,0.093,0.276,0.138,0.419,0.138c0.223,0,0.442-0.103,0.58-0.3c0.233-0.319,0.161-0.766-0.161-0.997
	l-3.49-2.535l0.544-0.807l3.519,2.546c0.125,0.097,0.271,0.142,0.415,0.142c0.224,0,0.441-0.104,0.581-0.295
	c0.231-0.323,0.161-0.771-0.161-1.006l-3.911-2.836c-0.062-0.212-0.183-0.404-0.356-0.547l1.583-1.08l1.206-0.824h0.006
	c0.197-0.108,0.389-0.224,0.575-0.354c0.188-0.124,0.367-0.26,0.536-0.403c0.634-0.517,1.157-1.134,1.562-1.799
	c0.271-0.456,0.496-0.941,0.666-1.438C38.515,33.328,38.529,31.693,37.997,30.16z"/>
</svg>
