<?xml version="1.0" encoding="iso-8859-1"?>
<!-- Generator: Adobe Illustrator 16.0.4, SVG Export Plug-In . SVG Version: 6.00 Build 0)  -->
<!DOCTYPE svg PUBLIC "-//W3C//DTD SVG 1.1//EN" "http://www.w3.org/Graphics/SVG/1.1/DTD/svg11.dtd">
<svg version="1.1" id="Layer_1" xmlns="http://www.w3.org/2000/svg" xmlns:xlink="http://www.w3.org/1999/xlink" x="0px" y="0px"
	 width="49.45px" height="50.561px" viewBox="0 0 49.45 50.561" style="enable-background:new 0 0 49.45 50.561;"
	 xml:space="preserve">
<path d="M47.844,36.026h-1.775v-2.976c0-0.287-0.072-0.552-0.217-0.767V21.106C45.852,9.474,36.398,0,24.761,0
	C13.125,0,3.647,9.474,3.646,21.106v11.057c-0.167,0.24-0.263,0.552-0.263,0.888v2.734H1.607C0.719,35.785,0,36.504,0,37.392v7.243
	c0,0.889,0.719,1.584,1.607,1.584h1.777v2.733c0,0.888,0.719,1.607,1.607,1.607h8.326c0.888,0,1.608-0.72,1.608-1.607V33.051
	c0-0.888-0.72-1.606-1.608-1.606H6.336V21.106c0-10.146,8.253-18.421,18.426-18.421c10.148,0,18.402,8.274,18.402,18.421v10.338
	h-7.029c-0.889,0-1.607,0.719-1.607,1.606v15.903c0,0.888,0.719,1.607,1.607,1.607h8.324c0.889,0,1.608-0.72,1.608-1.607v-2.495
	h1.774c0.889,0,1.607-0.719,1.607-1.606v-7.22C49.45,36.745,48.731,36.026,47.844,36.026z"/>
</svg>
