<?xml version="1.0" encoding="iso-8859-1"?>
<!-- Generator: Adobe Illustrator 16.0.4, SVG Export Plug-In . SVG Version: 6.00 Build 0)  -->
<!DOCTYPE svg PUBLIC "-//W3C//DTD SVG 1.1//EN" "http://www.w3.org/Graphics/SVG/1.1/DTD/svg11.dtd">
<svg version="1.1" id="Layer_1" xmlns="http://www.w3.org/2000/svg" xmlns:xlink="http://www.w3.org/1999/xlink" x="0px" y="0px"
	 width="54.053px" height="47.117px" viewBox="0 0 54.053 47.117" style="enable-background:new 0 0 54.053 47.117;"
	 xml:space="preserve">
<g>
	<path d="M36.651,40.873H23.59c0-12.922,8.021-23.96,19.374-28.422c0.151-0.009,0.294-0.072,0.411-0.159
		c0.23-0.159,0.379-0.428,0.379-0.731c0-0.124-0.025-0.241-0.071-0.348c-0.008-0.023-0.018-0.035-0.031-0.058
		c-0.029-0.044-0.053-0.089-0.084-0.133C39.387,4.395,31.998,0,23.59,0C10.559,0,0,10.55,0,23.558
		c0,6.352,2.518,12.117,6.616,16.354c0.004,0.01,0.009,0.02,0.023,0.028c0.088,0.084,0.203,0.151,0.33,0.183h6.637
		c1.396,0,2.532,1.129,2.532,2.521v2.59c0,0.383,0.229,0.71,0.553,0.854c0.062,0.025,0.121,0.043,0.188,0.058
		c2.124,0.633,4.375,0.972,6.709,0.972c5.006,0,9.655-1.558,13.468-4.218c0.008-0.009,0.014-0.009,0.019-0.015
		c0.13-0.051,0.25-0.137,0.344-0.244c0.175-0.188,0.283-0.438,0.283-0.719C37.703,41.341,37.232,40.873,36.651,40.873z
		 M15.57,35.106c-2.056,0-3.724-1.665-3.724-3.72c0-2.053,1.667-3.719,3.724-3.719c2.059,0,3.725,1.666,3.725,3.719
		C19.294,33.441,17.627,35.106,15.57,35.106z"/>
	<path d="M54.054,37.125c-0.001-0.836-0.68-1.51-1.52-1.51H38.471V21.108c2.074-1.742,4.6-3.22,7.675-4.143
		c0.806-0.24,1.256-1.09,1.015-1.889c-0.241-0.803-1.085-1.254-1.891-1.013c-16.057,4.834-18.789,22.11-18.896,22.841
		c-0.062,0.438,0.062,0.879,0.353,1.211c0.288,0.332,0.706,0.524,1.15,0.524h12.292c0.691,3.045,3.428,5.321,6.678,5.321
		c3.406,0,6.24-2.498,6.759-5.757l0.001-0.001C53.884,37.925,54.054,37.546,54.054,37.125z M35.596,35.615h-5.838
		c0.652-2.527,2.28-7.369,5.838-11.625V35.615z M46.847,41.649c-1.968,0-3.646-1.254-4.269-3.01
		c-0.17-0.472-0.265-0.981-0.265-1.515c0-0.637-0.518-1.151-1.157-1.152h0.001c0.64,0,1.157,0.516,1.157,1.152
		c0,0.533,0.095,1.043,0.265,1.515h8.537C50.494,40.395,48.815,41.649,46.847,41.649z"/>
</g>
</svg>
