<?xml version="1.0" encoding="iso-8859-1"?>
<!-- Generator: Adobe Illustrator 16.0.4, SVG Export Plug-In . SVG Version: 6.00 Build 0)  -->
<!DOCTYPE svg PUBLIC "-//W3C//DTD SVG 1.1//EN" "http://www.w3.org/Graphics/SVG/1.1/DTD/svg11.dtd">
<svg version="1.1" id="Layer_1" xmlns="http://www.w3.org/2000/svg" xmlns:xlink="http://www.w3.org/1999/xlink" x="0px" y="0px"
	 width="48.273px" height="58.037px" viewBox="0 0 48.273 58.037" style="enable-background:new 0 0 48.273 58.037;"
	 xml:space="preserve">
<g>
	<path d="M20.264,8.342c0.817,0,1.486,0.67,1.486,1.499c0,0.83-0.669,1.503-1.486,1.503c-0.739,0-1.338,0.595-1.338,1.333
		c0,0.74,0.598,1.336,1.338,1.336c2.294,0,4.163-1.874,4.163-4.173c0-2.3-1.87-4.169-4.163-4.169c-0.82,0-1.486-0.672-1.486-1.503
		c0-0.829,0.666-1.499,1.486-1.499c0.736,0,1.338-0.596,1.338-1.336C21.602,0.596,21,0,20.264,0c-2.297,0-4.163,1.874-4.163,4.168
		C16.101,6.468,17.967,8.342,20.264,8.342z"/>
	<path d="M10.614,8.342c0.816,0,1.485,0.67,1.485,1.499c0,0.83-0.669,1.503-1.485,1.503c-0.739,0-1.338,0.595-1.338,1.333
		c0,0.74,0.598,1.336,1.338,1.336c2.294,0,4.162-1.874,4.162-4.173c0-2.3-1.87-4.169-4.162-4.169c-0.82,0-1.486-0.672-1.486-1.503
		c0-0.829,0.666-1.499,1.486-1.499c0.735,0,1.34-0.596,1.34-1.336c0-0.737-0.604-1.333-1.34-1.333C8.316,0,6.45,1.874,6.45,4.168
		C6.45,6.468,8.316,8.342,10.614,8.342z"/>
	<path d="M47.305,25.304c-0.651-0.693-1.535-1.089-2.489-1.122l-5.559-0.172l1.271-6.673c0-1.229-1-2.225-2.229-2.225
		c-12.345,1.29-12.282,1.089-17.927,1.089c-7.499,0-18.141-1.089-18.141-1.089c-1.235,0-2.229,0.996-2.229,2.225l6.423,33.694
		c0,0.479,0.153,0.924,0.411,1.284c1.58,3.299,6.992,5.722,13.429,5.722c6.447,0,11.873-2.433,13.439-5.737
		c0.253-0.357,0.399-0.798,0.399-1.268l1.728-9.068l5.215,0.233h0.106c1.869,0,3.396-1.406,3.558-3.24l3.559-10.913l0.003-0.191
		C48.305,26.901,47.96,25.998,47.305,25.304z M42.054,38.472l-0.01,0.191c-0.015,0.484-0.406,0.863-0.893,0.863h-0.009l-4.805-0.209
		l2.41-12.652l5.986,0.186c0.236,0.009,0.459,0.107,0.62,0.279c0.129,0.139,0.208,0.307,0.235,0.491L42.054,38.472z"/>
</g>
</svg>
