<?xml version="1.0" encoding="iso-8859-1"?>
<!-- Generator: Adobe Illustrator 16.0.4, SVG Export Plug-In . SVG Version: 6.00 Build 0)  -->
<!DOCTYPE svg PUBLIC "-//W3C//DTD SVG 1.1//EN" "http://www.w3.org/Graphics/SVG/1.1/DTD/svg11.dtd">
<svg version="1.1" id="Layer_1" xmlns="http://www.w3.org/2000/svg" xmlns:xlink="http://www.w3.org/1999/xlink" x="0px" y="0px"
	 width="56.928px" height="36.195px" viewBox="0 0 56.928 36.195" style="enable-background:new 0 0 56.928 36.195;"
	 xml:space="preserve">
<path d="M55.586,30.807H53.08c0.049-0.166,0.076-0.339,0.076-0.52V1.785C53.156,0.801,52.359,0,51.371,0H4.725
	c-0.984,0-1.78,0.801-1.78,1.785v28.502c0,0.18,0.027,0.354,0.076,0.52H1.343C0.604,30.807,0,31.657,0,32.713v1.576
	c0,1.051,0.604,1.905,1.343,1.905h54.243c0.743,0,1.342-0.854,1.342-1.905v-1.576C56.927,31.657,56.329,30.807,55.586,30.807z
	 M31.933,33.542h-6.936c-0.742,0-1.343-0.601-1.343-1.345c0-0.04,0-0.085,0.01-0.124c0.058-0.687,0.631-1.219,1.333-1.219h6.936
	c0.703,0,1.275,0.532,1.334,1.219c0.009,0.039,0.009,0.084,0.009,0.124C33.277,32.943,32.677,33.542,31.933,33.542z M49.303,26.514
	c0,0.724-0.587,1.316-1.312,1.316H8.108c-0.726,0-1.315-0.594-1.315-1.316V5.56H6.792c0-0.726,0.591-1.312,1.315-1.312h39.884
	c0.726,0,1.312,0.585,1.312,1.312V26.514z"/>
</svg>
