<?xml version="1.0" encoding="iso-8859-1"?>
<!-- Generator: Adobe Illustrator 16.0.4, SVG Export Plug-In . SVG Version: 6.00 Build 0)  -->
<!DOCTYPE svg PUBLIC "-//W3C//DTD SVG 1.1//EN" "http://www.w3.org/Graphics/SVG/1.1/DTD/svg11.dtd">
<svg version="1.1" id="Layer_1" xmlns="http://www.w3.org/2000/svg" xmlns:xlink="http://www.w3.org/1999/xlink" x="0px" y="0px"
	 width="49.833px" height="49.354px" viewBox="0 0 49.833 49.354" style="enable-background:new 0 0 49.833 49.354;"
	 xml:space="preserve">
<path d="M49.7,47.44c-1.277-2.625-3.574-5.145-6.863-7.521c1.246-4.475-0.328-9.739-4.143-13.666
	c-0.227-4.296-2.418-9.178-6.634-13.456C25.021,5.662,18.521,0,18.521,0s-5.173,13.002-4.449,22.916C6.441,24.872,0,27.762,0,27.762
	s8.941,3.658,15.56,12.689c6.543,8.926,17.664,9.541,23.272,5.289c1.248-0.943,2.22-2.057,2.93-3.276
	c2.635,1.996,4.504,4.071,5.505,6.134c0.233,0.482,0.715,0.757,1.218,0.757c0.194,0,0.393-0.04,0.581-0.128
	C49.741,48.906,50.021,48.108,49.7,47.44z M22.229,16.949c-0.179-0.716,0.261-1.438,0.985-1.614c0.723-0.18,1.45,0.256,1.63,0.973
	c0.009,0.03,0.517,2.038,1.523,4.834c-0.922-0.014-1.866,0.021-2.823,0.099C22.689,18.775,22.256,17.07,22.229,16.949z
	 M38.193,38.526c-0.243,0.444-0.705,0.698-1.187,0.698c-0.215,0-0.436-0.049-0.639-0.161c-1.527-0.814-3.023-1.518-4.371-2.1
	c-3.039-1.318-5.295-2.021-5.326-2.031c-0.711-0.217-1.105-0.969-0.887-1.674c0.225-0.701,0.98-1.095,1.691-0.876
	c0.166,0.049,3.406,1.063,7.438,2.965c0.881,0.41,1.801,0.869,2.737,1.367C38.306,37.066,38.547,37.876,38.193,38.526z"/>
</svg>
