<?xml version="1.0" encoding="iso-8859-1"?>
<!-- Generator: Adobe Illustrator 16.0.4, SVG Export Plug-In . SVG Version: 6.00 Build 0)  -->
<!DOCTYPE svg PUBLIC "-//W3C//DTD SVG 1.1//EN" "http://www.w3.org/Graphics/SVG/1.1/DTD/svg11.dtd">
<svg version="1.1" id="Layer_1" xmlns="http://www.w3.org/2000/svg" xmlns:xlink="http://www.w3.org/1999/xlink" x="0px" y="0px"
	 width="28.176px" height="48.261px" viewBox="0 0 28.176 48.261" style="enable-background:new 0 0 28.176 48.261;"
	 xml:space="preserve">
<path d="M28.175,14.114C28.176,6.318,21.87,0,14.088,0C6.307,0,0,6.318,0,14.114c0,1.971,0.401,3.849,1.13,5.551l0.046,0.103
	l0.143,0.314l12.769,28.179l12.77-28.179L27,19.768l0.045-0.103h-0.001C27.773,17.963,28.175,16.085,28.175,14.114z M19.525,19.665
	c-1.403,1.381-3.321,2.227-5.438,2.227c-2.116,0-4.034-0.846-5.438-2.227c-1.436-1.411-2.326-3.378-2.326-5.551
	c0-4.297,3.475-7.785,7.764-7.785s7.764,3.488,7.764,7.785C21.852,16.287,20.963,18.254,19.525,19.665z"/>
</svg>
