<?xml version="1.0" encoding="iso-8859-1"?>
<!-- Generator: Adobe Illustrator 16.0.4, SVG Export Plug-In . SVG Version: 6.00 Build 0)  -->
<!DOCTYPE svg PUBLIC "-//W3C//DTD SVG 1.1//EN" "http://www.w3.org/Graphics/SVG/1.1/DTD/svg11.dtd">
<svg version="1.1" id="Layer_1" xmlns="http://www.w3.org/2000/svg" xmlns:xlink="http://www.w3.org/1999/xlink" x="0px" y="0px"
	 width="56.928px" height="40.796px" viewBox="0 0 56.928 40.796" style="enable-background:new 0 0 56.928 40.796;"
	 xml:space="preserve">
<g>
	<path d="M12.041,4.954c0-0.806-0.599-1.174-1.46-1.456L1.459,0C0.654,0,0,0.653,0,1.458v34.385c0,0.805,0.617,1.189,1.46,1.457
		l9.122,3.496c0.807,0,1.46-0.653,1.46-1.457h-0.001V4.954z"/>
	<path d="M25.542,0l-9.119,3.498c-0.863,0.282-1.46,0.65-1.46,1.456v34.385c0,0.804,0.652,1.457,1.46,1.457l9.119-3.496
		c0.843-0.268,1.462-0.652,1.462-1.457V1.458C27.004,0.653,26.35,0,25.542,0z"/>
	<path d="M41.965,4.954c0-0.806-0.597-1.174-1.46-1.456L31.384,0c-0.806,0-1.459,0.653-1.458,1.458v34.385
		c0,0.805,0.616,1.189,1.459,1.457l9.121,3.496c0.806,0,1.46-0.653,1.46-1.457h-0.001V4.954z"/>
	<path d="M55.468,0l-9.122,3.498c-0.863,0.282-1.459,0.65-1.459,1.456v34.385c0,0.804,0.655,1.457,1.459,1.457l9.122-3.496
		c0.842-0.268,1.46-0.652,1.46-1.457V1.458C56.928,0.653,56.273,0,55.468,0z"/>
</g>
</svg>
