<?xml version="1.0" encoding="iso-8859-1"?>
<!-- Generator: Adobe Illustrator 16.0.4, SVG Export Plug-In . SVG Version: 6.00 Build 0)  -->
<!DOCTYPE svg PUBLIC "-//W3C//DTD SVG 1.1//EN" "http://www.w3.org/Graphics/SVG/1.1/DTD/svg11.dtd">
<svg version="1.1" id="Layer_1" xmlns="http://www.w3.org/2000/svg" xmlns:xlink="http://www.w3.org/1999/xlink" x="0px" y="0px"
	 width="53.48px" height="59.182px" viewBox="0 0 53.48 59.182" style="enable-background:new 0 0 53.48 59.182;"
	 xml:space="preserve">
<path d="M42.875,38.771c3.563-2.708,7.106-5.406,10.604-8.107c-1.41-0.773-3.633-0.737-3.813-2.516
	c-0.058-0.581,0.312-1.343,0.56-2.146c0.641-2.083,1.373-4.587,1.951-6.336c-1.013,0.103-2.293,0.423-3.627,0.652
	c-1.341,0.226-2.946,0.638-3.906,0.465c-0.726-0.131-1.281-0.879-1.58-1.492c-0.366-0.751-0.52-1.709-0.836-2.516
	c-1.668,1.548-3.351,3.853-5.022,5.871c-0.469,0.564-1.319,1.725-2.325,1.397c-0.84-0.272-0.491-1.61-0.279-2.703
	c0.856-4.414,1.923-9.542,2.697-13.699c-1.323,0.5-2.51,1.9-3.812,2.422c-1.252,0.501-2.185,0.043-2.792-0.931
	c-0.345-0.556-0.579-1.411-0.929-2.237C28.867,4.782,27.69,1.682,26.88,0c-1.356,3.02-2.761,5.993-3.999,9.134
	c-0.808,0.772-1.36,1.494-2.697,1.024c-0.922-0.326-2.179-1.429-2.976-1.958c-0.319-0.21-0.803-0.65-0.931-0.372
	c0.906,5.303,2.113,10.311,2.884,15.751c-1.123,1.282-2.096-0.187-2.791-1.026c-1.481-1.787-2.845-3.266-4.186-4.845
	c-0.286-0.339-0.463-0.855-0.932-0.933c-0.581,1.454-0.679,3.23-1.952,3.819c-0.982,0.456-2.765-0.022-4.277-0.277
	c-1.328-0.226-2.608-0.512-3.629-0.652c0.537,1.845,1.256,4.474,1.86,6.428c0.263,0.852,0.687,1.518,0.559,2.238
	c-0.078,0.441-0.52,0.993-0.835,1.211C2.174,30.096,0.771,30.07,0,30.756c3.537,2.663,7.211,5.278,10.693,7.92
	c1.175,0.894,2.475,1.72,3.255,2.984c0.323,2.437-1.215,3.503-1.302,5.219c3.134-0.708,6.75-1.354,9.954-1.957
	c1.049-0.198,2.366-0.687,3.161,0.278c-0.188,4.962-0.321,8.96-0.56,13.981c1.025,0,2.048,0,3.071,0
	c-0.116-4.204-0.391-9.354-0.559-14.072c0.914-0.802,2.097-0.392,3.161-0.188c3.366,0.646,6.872,1.253,10.045,1.957
	c-0.336-1.897-1.671-2.801-1.394-5.312C40.358,40.344,41.73,39.643,42.875,38.771z"/>
</svg>
