<?xml version="1.0" encoding="iso-8859-1"?>
<!-- Generator: Adobe Illustrator 16.0.4, SVG Export Plug-In . SVG Version: 6.00 Build 0)  -->
<!DOCTYPE svg PUBLIC "-//W3C//DTD SVG 1.1//EN" "http://www.w3.org/Graphics/SVG/1.1/DTD/svg11.dtd">
<svg version="1.1" id="Layer_1" xmlns="http://www.w3.org/2000/svg" xmlns:xlink="http://www.w3.org/1999/xlink" x="0px" y="0px"
	 width="31.05px" height="50.4px" viewBox="0 0 31.05 50.4" style="enable-background:new 0 0 31.05 50.4;" xml:space="preserve">
<path d="M31.033,11.314c-0.006-0.032-0.006-0.064-0.013-0.099c-0.009-0.047-0.026-0.091-0.042-0.138
	c-0.014-0.038-0.02-0.075-0.035-0.11c-0.015-0.035-0.038-0.067-0.055-0.103c-0.023-0.042-0.044-0.088-0.072-0.127
	c-0.018-0.025-0.04-0.047-0.061-0.072c-0.035-0.044-0.071-0.091-0.112-0.131c-0.003-0.002-0.005-0.008-0.008-0.01
	c-0.022-0.021-0.048-0.038-0.071-0.056c-0.041-0.035-0.082-0.068-0.127-0.099c-0.034-0.023-0.07-0.04-0.109-0.059
	c-0.039-0.021-0.08-0.044-0.121-0.061c-0.043-0.017-0.088-0.028-0.131-0.042c-0.041-0.009-0.08-0.023-0.121-0.03
	c-0.053-0.012-0.105-0.014-0.16-0.017c-0.028-0.002-0.058-0.01-0.088-0.01h-8.07l0.631-2.015c1.186-0.271,2.068-1.329,2.068-2.595
	c0-0.69-0.264-1.315-0.692-1.788l0.631-2.01c0.222-0.707-0.172-1.463-0.879-1.684c-0.709-0.222-1.462,0.171-1.685,0.877l-0.627,2
	c-1.192,0.268-2.086,1.33-2.086,2.604c0,0.694,0.271,1.324,0.703,1.799l-0.881,2.811H1.343c-0.032,0-0.062,0.008-0.094,0.01
	c-0.05,0.005-0.102,0.007-0.152,0.017c-0.044,0.007-0.084,0.021-0.127,0.033c-0.041,0.012-0.082,0.022-0.124,0.04
	c-0.045,0.017-0.086,0.04-0.128,0.062c-0.034,0.02-0.069,0.032-0.103,0.057c-0.046,0.03-0.088,0.062-0.129,0.101
	c-0.023,0.02-0.047,0.033-0.069,0.054c-0.003,0.002-0.006,0.008-0.009,0.01c-0.041,0.04-0.076,0.086-0.112,0.131
	c-0.019,0.025-0.042,0.047-0.06,0.072c-0.028,0.04-0.048,0.085-0.071,0.127c-0.016,0.034-0.039,0.067-0.054,0.103
	c-0.015,0.036-0.024,0.073-0.036,0.11c-0.016,0.046-0.033,0.091-0.042,0.138c-0.007,0.033-0.008,0.066-0.013,0.099
	c-0.007,0.057-0.015,0.11-0.017,0.166C0.002,11.484,0,11.488,0,11.493c0,0.032,0.008,0.062,0.01,0.093
	c0.003,0.052,0.006,0.104,0.015,0.155c0.008,0.042,0.022,0.082,0.034,0.124c0.011,0.042,0.022,0.084,0.039,0.126
	c0.018,0.042,0.041,0.084,0.062,0.126c0.02,0.034,0.036,0.069,0.059,0.104c0.029,0.044,0.065,0.087,0.1,0.129
	c0.019,0.021,0.033,0.047,0.054,0.068l13.81,14.471v20.787c0,0.014,0.003,0.026,0.003,0.04H9.223c-0.743,0-1.345,0.602-1.345,1.343
	c0,0.74,0.602,1.341,1.345,1.341h12.604c0.742,0,1.342-0.601,1.342-1.341c0-0.742-0.601-1.343-1.342-1.343h-4.963
	c0-0.014,0.004-0.025,0.004-0.04V26.891L30.68,12.42c0.021-0.021,0.034-0.047,0.053-0.068c0.034-0.042,0.069-0.084,0.101-0.129
	c0.021-0.035,0.039-0.07,0.059-0.104c0.021-0.042,0.044-0.084,0.062-0.126c0.015-0.042,0.026-0.084,0.039-0.126
	c0.012-0.042,0.025-0.082,0.033-0.124c0.01-0.052,0.012-0.104,0.016-0.155c0.002-0.03,0.008-0.062,0.008-0.093
	c0-0.005,0-0.01,0-0.015C31.048,11.424,31.041,11.37,31.033,11.314z"/>
</svg>
