<?xml version="1.0" encoding="iso-8859-1"?>
<!-- Generator: Adobe Illustrator 16.0.4, SVG Export Plug-In . SVG Version: 6.00 Build 0)  -->
<!DOCTYPE svg PUBLIC "-//W3C//DTD SVG 1.1//EN" "http://www.w3.org/Graphics/SVG/1.1/DTD/svg11.dtd">
<svg version="1.1" id="Layer_1" xmlns="http://www.w3.org/2000/svg" xmlns:xlink="http://www.w3.org/1999/xlink" x="0px" y="0px"
	 width="29.336px" height="48.27px" viewBox="0 0 29.336 48.27" style="enable-background:new 0 0 29.336 48.27;"
	 xml:space="preserve">
<path d="M29.336,6.658L25.207,0l-0.111,0.254H4.242L4.131,0L0,6.658h0.041L11.19,32.544l-0.044,0.095h0.084h0.068h0.261h1.755
	c-0.016,0.051-0.033,0.104-0.033,0.158v2.009c0,0.028,0.012,0.054,0.017,0.079c-3.069,0.635-5.376,3.358-5.376,6.623
	c0,3.733,3.019,6.761,6.746,6.761c3.725,0,6.745-3.027,6.745-6.761c0-3.265-2.308-5.988-5.376-6.623
	c0.003-0.025,0.018-0.051,0.018-0.079v-2.009c0-0.056-0.018-0.107-0.033-0.158h1.758h0.26h0.066h0.084l-0.045-0.095l11.15-25.886
	H29.336z M14.669,24.465L7,6.658h15.337L14.669,24.465z"/>
</svg>
