<?xml version="1.0" encoding="iso-8859-1"?>
<!-- Generator: Adobe Illustrator 16.0.4, SVG Export Plug-In . SVG Version: 6.00 Build 0)  -->
<!DOCTYPE svg PUBLIC "-//W3C//DTD SVG 1.1//EN" "http://www.w3.org/Graphics/SVG/1.1/DTD/svg11.dtd">
<svg version="1.1" id="Layer_1" xmlns="http://www.w3.org/2000/svg" xmlns:xlink="http://www.w3.org/1999/xlink" x="0px" y="0px"
	 width="48.771px" height="60.85px" viewBox="0 0 48.771 60.85" style="enable-background:new 0 0 48.771 60.85;"
	 xml:space="preserve">
<g>
	<path d="M40.768,8.054c-1.619-1.623-3.15-3.28-4.56-4.923c-0.205-0.24-0.41-0.479-0.609-0.721
		c-0.062,0.059-0.114,0.122-0.168,0.186c-0.05,0.051-0.094,0.106-0.133,0.158c-0.055,0.06-0.104,0.122-0.147,0.186
		C35.098,3.002,35.044,3.069,35,3.137c-0.08,0.103-0.157,0.216-0.222,0.321c-0.057,0.087-0.112,0.171-0.161,0.255
		c-0.021,0.033-0.039,0.063-0.058,0.097c-0.047,0.084-0.097,0.173-0.146,0.262c-0.125,0.244-0.239,0.485-0.337,0.735
		c-0.032,0.078-0.062,0.158-0.089,0.24c-0.044,0.117-0.085,0.232-0.12,0.35c-0.009,0.033-0.019,0.058-0.028,0.089
		c-0.045,0.152-0.085,0.304-0.119,0.461L1.605,42.234C0.524,43.321,0.324,44.955,1,46.248v0.004c-0.71,0.933-1.062,2.072-0.992,3.25
		c0.076,1.293,0.65,2.48,1.614,3.339c0.891,0.797,2.01,1.223,3.195,1.223c0.098,0,0.195,0,0.293-0.009
		c1.284-0.075,2.464-0.653,3.318-1.625c0.044-0.05,0.084-0.104,0.114-0.157c0.111-0.062,0.214-0.147,0.304-0.246
		c0.797-0.881,2.166-0.949,3.042-0.144c0.426,0.389,0.676,0.923,0.702,1.498c0.026,0.556-0.155,1.092-0.512,1.516
		c-0.018,0.017-0.032,0.03-0.044,0.047l-3.594,3.613c-0.521,0.521-0.521,1.374,0,1.896c0.262,0.265,0.604,0.396,0.943,0.396
		c0.343,0,0.685-0.132,0.947-0.396l3.634-3.655c0.019-0.018,0.031-0.032,0.044-0.049c0.018-0.018,0.031-0.037,0.046-0.056
		c0.84-0.948,1.263-2.163,1.206-3.439c-0.063-1.295-0.624-2.488-1.576-3.357c-1.97-1.798-5.024-1.655-6.814,0.328
		c-0.048,0.054-0.093,0.111-0.134,0.171c-0.111,0.061-0.218,0.149-0.306,0.253c-0.378,0.436-0.907,0.695-1.481,0.726
		c-0.574,0.035-1.129-0.157-1.556-0.541c-0.432-0.386-0.69-0.913-0.722-1.491c-0.026-0.424,0.071-0.836,0.28-1.198
		c1.26,0.595,2.807,0.367,3.847-0.68l18.828-16.875v25.261c0,0.739,0.597,1.344,1.334,1.344c0.739,0,1.335-0.604,1.335-1.344V28.2
		l14.567-13.055c0.005,0,0.005,0,0.005,0c0.15-0.036,0.302-0.076,0.449-0.12c0.146-0.04,0.288-0.091,0.427-0.141
		c0.066-0.021,0.133-0.049,0.194-0.074c0.11-0.04,0.223-0.092,0.335-0.144c0.156-0.068,0.307-0.143,0.458-0.225
		c0.056-0.031,0.115-0.064,0.168-0.094c0.125-0.068,0.249-0.144,0.369-0.226c0.146-0.094,0.298-0.197,0.439-0.309
		c0.131-0.093,0.254-0.196,0.375-0.297c0.03-0.028,0.062-0.057,0.094-0.082c0.065-0.06,0.132-0.122,0.194-0.184
		c-0.235-0.202-0.477-0.402-0.712-0.613C44.042,11.234,42.4,9.698,40.768,8.054z"/>
	<path d="M46.538,2.244c-2.38-2.393-5.938-2.873-8.793-1.439c0.244,0.29,0.493,0.586,0.751,0.881
		c1.29,1.491,2.688,2.989,4.159,4.472c1.517,1.527,3.002,2.922,4.438,4.184c0.294,0.261,0.588,0.517,0.877,0.758
		C49.396,8.23,48.92,4.645,46.538,2.244z"/>
</g>
</svg>
