<?xml version="1.0" encoding="iso-8859-1"?>
<!-- Generator: Adobe Illustrator 16.0.4, SVG Export Plug-In . SVG Version: 6.00 Build 0)  -->
<!DOCTYPE svg PUBLIC "-//W3C//DTD SVG 1.1//EN" "http://www.w3.org/Graphics/SVG/1.1/DTD/svg11.dtd">
<svg version="1.1" id="Layer_1" xmlns="http://www.w3.org/2000/svg" xmlns:xlink="http://www.w3.org/1999/xlink" x="0px" y="0px"
	 width="56.641px" height="60.969px" viewBox="0 0 56.641 60.969" style="enable-background:new 0 0 56.641 60.969;"
	 xml:space="preserve">
<path d="M56.52,24.285c-0.526-0.903-2.707-0.671-5.392,0.436l3.434-5.571l0.022-0.04l0.401-0.648
	c0.101-0.166,0.169-0.346,0.205-0.524c1.788-4.158,0.321-9.106-3.631-11.557c-3.945-2.453-9.006-1.561-11.909,1.887
	c-0.156,0.117-0.29,0.265-0.396,0.44c0,0-0.022,0.049-0.062,0.143c-0.004,0.004-0.004,0.004-0.004,0.009
	c-0.119,0.174-0.24,0.349-0.353,0.532l0.089,0.054c-0.937,2.081-3.644,8.008-5.194,10.531c-1.903,3.09-7.157,9.312-7.157,9.312
	c-0.468,0.761-0.231,1.754,0.521,2.224l9.024,5.597L25.757,56.568c-0.352,0.461-0.601,0.858-0.802,1.187
	c-0.125,0.197-0.272,0.438-0.356,0.527c-0.027,0.004-0.068,0.01-0.135,0.004c-0.279-0.009-0.545-0.123-0.734-0.324
	c-0.108-0.117-0.188-0.256-0.237-0.402V43.102c0.026-0.997-0.335-1.947-1.016-2.676c-0.683-0.727-1.61-1.143-2.604-1.168
	c-0.994-0.028-1.939,0.33-2.667,1.021c-0.682,0.647-1.092,1.513-1.154,2.451h-0.005c-0.018,0.583-0.504,1.052-1.08,1.024
	c-0.279-0.01-0.544-0.125-0.734-0.332c-0.192-0.203-0.294-0.473-0.286-0.756l0.237-8.317l11.848-5.056
	c0.816-0.349,1.198-1.297,0.852-2.116l-2.898-6.837c0.437-1.347,0.771-3.027,0.932-4.872c0.394-4.55-0.436-8.34-1.85-8.462
	c-1.039-0.094-2.108,1.83-2.759,4.667L17.75,5.651l-0.312-0.742c-0.075-0.183-0.183-0.34-0.308-0.471
	c-2.35-3.864-7.232-5.52-11.504-3.696C1.356,2.567-0.842,7.24,0.3,11.611v0c0.006,0.189,0.045,0.376,0.125,0.559
	c0,0,0.031,0.048,0.088,0.146c0,0,0,0.001,0,0.002c0.067,0.201,0.144,0.398,0.228,0.594l0.098-0.04
	c1.155,1.974,4.415,7.604,5.573,10.333C7.831,26.547,9.87,34.438,9.87,34.438c0.276,0.658,0.94,1.035,1.609,0.977l-0.205,7.176
	c-0.027,0.998,0.334,1.947,1.016,2.677c0.683,0.726,1.605,1.14,2.604,1.168c0.036,0.004,0.07,0.004,0.105,0.004
	c1.954,0,3.581-1.526,3.715-3.478h0.003c0.011-0.281,0.125-0.541,0.326-0.733c0.206-0.196,0.474-0.295,0.754-0.291
	c0.281,0.009,0.539,0.124,0.736,0.33c0.191,0.207,0.294,0.476,0.285,0.792v14.066H20.77c-0.005,0.232,0.009,0.463,0.049,0.685v0.157
	h0.028c0.128,0.687,0.452,1.316,0.939,1.836c0.683,0.726,1.609,1.142,2.604,1.168h0.11c1.61,0,2.229-0.997,2.726-1.805
	c0.19-0.304,0.404-0.651,0.708-1.033l0.071-0.094l10.398-19.518l1.684,1.046c0.756,0.47,1.744,0.233,2.214-0.522l3.892-6.317
	c1.347-0.416,2.916-1.114,4.508-2.048C54.63,28.379,57.239,25.517,56.52,24.285z"/>
</svg>
