<?xml version="1.0" encoding="iso-8859-1"?>
<!-- Generator: Adobe Illustrator 16.0.4, SVG Export Plug-In . SVG Version: 6.00 Build 0)  -->
<!DOCTYPE svg PUBLIC "-//W3C//DTD SVG 1.1//EN" "http://www.w3.org/Graphics/SVG/1.1/DTD/svg11.dtd">
<svg version="1.1" id="Layer_1" xmlns="http://www.w3.org/2000/svg" xmlns:xlink="http://www.w3.org/1999/xlink" x="0px" y="0px"
	 width="35.068px" height="46.543px" viewBox="0 0 35.068 46.543" style="enable-background:new 0 0 35.068 46.543;"
	 xml:space="preserve">
<path d="M35.07,10.202L35.07,10.202c-0.001-0.054-0.001-0.103-0.009-0.151c0-0.028-0.005-0.054-0.014-0.084
	c-0.041-0.237-0.149-0.454-0.306-0.638c-0.022-0.026-0.046-0.049-0.068-0.07c-0.045-0.047-0.085-0.082-0.134-0.117
	C34.44,9.065,34.327,9,34.202,8.955L34.09,8.913L10.842,0.107l-0.045-0.019c-0.032-0.014-0.06-0.023-0.091-0.03
	c-0.019-0.005-0.041-0.009-0.062-0.014c-0.063-0.023-0.126-0.031-0.188-0.038C10.41,0.005,10.359,0,10.315,0
	c-0.054,0-0.104,0-0.152,0.007c-0.027,0.007-0.06,0.009-0.082,0.014c-0.032,0.004-0.063,0.009-0.09,0.018
	c-0.025,0.006-0.05,0.015-0.076,0.024c-0.055,0.012-0.1,0.03-0.147,0.051c-0.022,0.01-0.046,0.023-0.074,0.038
	c-0.039,0.016-0.08,0.04-0.12,0.07C9.532,0.25,9.491,0.275,9.455,0.308C9.424,0.333,9.391,0.359,9.362,0.392
	C9.314,0.437,9.279,0.476,9.244,0.524C9.168,0.625,9.1,0.734,9.056,0.857C9.045,0.886,9.037,0.914,9.028,0.939
	s-0.02,0.059-0.022,0.084C8.987,1.082,8.978,1.14,8.973,1.198C8.97,1.243,8.965,1.292,8.965,1.336v25.706
	c-0.904-0.572-1.98-0.904-3.138-0.904C2.61,26.137,0,28.721,0,31.911c0,3.186,2.609,5.771,5.827,5.771
	c3.223,0,5.834-2.584,5.834-5.771c0-0.055,0-0.104-0.003-0.158c0.003-0.043,0.007-0.088,0.007-0.131V15.711l20.704,7.845v12.351
	c-0.904-0.572-1.98-0.904-3.138-0.904c-3.217,0-5.828,2.582-5.828,5.772c0,3.185,2.61,5.769,5.828,5.769
	c3.224,0,5.833-2.584,5.833-5.769c0-0.049,0-0.103-0.003-0.151c0.003-0.043,0.008-0.092,0.008-0.138V10.202z M32.368,20.692
	l-20.704-7.84V9.556l20.704,7.84V20.692z"/>
</svg>
