<?xml version="1.0" encoding="iso-8859-1"?>
<!-- Generator: Adobe Illustrator 16.0.4, SVG Export Plug-In . SVG Version: 6.00 Build 0)  -->
<!DOCTYPE svg PUBLIC "-//W3C//DTD SVG 1.1//EN" "http://www.w3.org/Graphics/SVG/1.1/DTD/svg11.dtd">
<svg version="1.1" id="Layer_1" xmlns="http://www.w3.org/2000/svg" xmlns:xlink="http://www.w3.org/1999/xlink" x="0px" y="0px"
	 width="35.068px" height="46.543px" viewBox="0 0 35.068 46.543" style="enable-background:new 0 0 35.068 46.543;"
	 xml:space="preserve">
<path d="M35.069,10.201c0-0.007-0.001-0.014-0.001-0.021c-0.001-0.051-0.009-0.103-0.015-0.153
	c-0.006-0.038-0.007-0.075-0.016-0.112c-0.011-0.042-0.026-0.081-0.039-0.123c-0.015-0.042-0.024-0.084-0.042-0.124
	c-0.017-0.037-0.039-0.07-0.059-0.104c-0.021-0.04-0.041-0.082-0.066-0.119c-0.025-0.035-0.056-0.067-0.085-0.1
	c-0.025-0.033-0.051-0.064-0.081-0.096c-0.029-0.028-0.064-0.053-0.101-0.082c-0.034-0.025-0.066-0.056-0.104-0.082
	c-0.03-0.019-0.063-0.033-0.096-0.051c-0.048-0.025-0.095-0.051-0.144-0.072c-0.008-0.002-0.013-0.004-0.019-0.007L10.801,0.086
	c-0.03-0.009-0.061-0.014-0.092-0.023c-0.048-0.014-0.096-0.03-0.147-0.04c-0.049-0.009-0.1-0.012-0.15-0.017
	C10.38,0.007,10.351,0,10.317,0c-0.007,0-0.013,0-0.02,0c-0.054,0.002-0.105,0.009-0.159,0.017
	c-0.037,0.004-0.074,0.007-0.108,0.014C9.985,0.04,9.944,0.056,9.901,0.07C9.86,0.084,9.818,0.093,9.778,0.112
	C9.741,0.128,9.706,0.151,9.667,0.17C9.629,0.191,9.59,0.209,9.553,0.235C9.516,0.26,9.483,0.291,9.448,0.321
	c-0.031,0.027-0.063,0.05-0.092,0.077c-0.03,0.03-0.057,0.068-0.083,0.101C9.245,0.534,9.216,0.566,9.191,0.604
	C9.169,0.632,9.156,0.667,9.138,0.699C9.113,0.744,9.086,0.79,9.066,0.839C9.064,0.846,9.06,0.851,9.058,0.857
	c-0.012,0.03-0.016,0.059-0.025,0.089c-0.015,0.049-0.029,0.098-0.04,0.147C8.984,1.142,8.981,1.191,8.977,1.24
	C8.976,1.272,8.969,1.303,8.969,1.335v25.711c-0.908-0.573-1.982-0.912-3.138-0.912C2.61,26.135,0,28.72,0,31.905
	c0,3.188,2.609,5.772,5.831,5.772c3.22,0,5.83-2.585,5.83-5.772c0-0.046-0.008-0.095-0.008-0.142
	c0.006-0.05,0.015-0.096,0.015-0.146V9.553l20.702,7.843v18.516C31.463,35.338,30.389,35,29.232,35c-3.22,0-5.831,2.584-5.831,5.77
	c0,3.188,2.611,5.773,5.831,5.773c3.221,0,5.83-2.584,5.83-5.773c0-0.045-0.006-0.093-0.006-0.142
	c0.004-0.049,0.013-0.096,0.013-0.146V10.201z"/>
</svg>
