<?xml version="1.0" encoding="iso-8859-1"?>
<!-- Generator: Adobe Illustrator 16.0.4, SVG Export Plug-In . SVG Version: 6.00 Build 0)  -->
<!DOCTYPE svg PUBLIC "-//W3C//DTD SVG 1.1//EN" "http://www.w3.org/Graphics/SVG/1.1/DTD/svg11.dtd">
<svg version="1.1" id="Layer_1" xmlns="http://www.w3.org/2000/svg" xmlns:xlink="http://www.w3.org/1999/xlink" x="0px" y="0px"
	 width="54.053px" height="47.121px" viewBox="0 0 54.053 47.121" style="enable-background:new 0 0 54.053 47.121;"
	 xml:space="preserve">
<g>
	<path d="M27.931,22.19H0.976C0.439,22.19,0,22.625,0,23.154v3.604c0,0.533,0.439,0.965,0.977,0.965h2.137l1.128,15.845
		c0,1.961,1.598,3.554,3.57,3.554h13.275c1.975,0,3.571-1.593,3.571-3.554l0.796-11.172l-10.438-4.253
		c-0.169,0.079-0.362,0.125-0.563,0.125c-0.443,0-0.837-0.215-1.074-0.544c-0.165-0.218-0.259-0.489-0.259-0.782
		c0-0.732,0.595-1.326,1.333-1.326c0.572,0,1.061,0.356,1.252,0.863l3.056,1.245l6.829,2.78l0.201-2.78h2.141
		c0.535,0,0.97-0.431,0.97-0.964v-3.604C28.901,22.625,28.467,22.19,27.931,22.19z"/>
	<path d="M46.74,25.134V9.937c1.871-0.633,4.233-2.541,4.233-8.138V0H38.879v1.799c0,5.597,2.366,7.504,4.236,8.14v15.202
		c-4.057,0.819-7.136,4.312-7.277,8.552c-0.025,0.121-0.037,0.242-0.037,0.37v10.493c0,1.415,1.154,2.562,2.587,2.562h13.09
		c1.421,0,2.575-1.147,2.575-2.562V34.012C54.052,29.623,50.911,25.964,46.74,25.134z M44.929,6.634
		C44.928,6.634,44.928,6.634,44.929,6.634h-0.002c-1.49,0-2.085-1.513-2.304-3.032h4.604C47.008,5.122,46.415,6.634,44.929,6.634z"
		/>
	<path d="M3.655,19.645l6.275-6.239l7.579,4.622c0.182,0.111,0.399,0.156,0.609,0.123l5.588-0.85l0.715,2.006
		c0.134,0.37,0.481,0.601,0.854,0.601c0.101,0,0.204-0.016,0.305-0.054c0.47-0.165,0.717-0.679,0.55-1.149l-0.966-2.708
		c-0.145-0.405-0.562-0.654-0.991-0.589l-5.999,0.912l-7.905-4.821c-0.356-0.216-0.817-0.163-1.115,0.13l-6.78,6.741
		c-0.354,0.351-0.354,0.921,0,1.275C2.728,19.996,3.3,19.996,3.655,19.645z"/>
</g>
</svg>
