<?xml version="1.0" encoding="iso-8859-1"?>
<!-- Generator: Adobe Illustrator 16.0.4, SVG Export Plug-In . SVG Version: 6.00 Build 0)  -->
<!DOCTYPE svg PUBLIC "-//W3C//DTD SVG 1.1//EN" "http://www.w3.org/Graphics/SVG/1.1/DTD/svg11.dtd">
<svg version="1.1" id="Layer_1" xmlns="http://www.w3.org/2000/svg" xmlns:xlink="http://www.w3.org/1999/xlink" x="0px" y="0px"
	 width="27.033px" height="49.988px" viewBox="0 0 27.033 49.988" style="enable-background:new 0 0 27.033 49.988;"
	 xml:space="preserve">
<path d="M25.698,33.867h-5.814l-2.404-23.268l2.276-3.173l0.079-0.111l0.223-0.31V6.573C20.058,2.95,17.122,0,13.517,0
	S6.976,2.95,6.976,6.573v0.433L7.194,7.31C7.22,7.352,7.252,7.392,7.278,7.427l2.28,3.173L7.154,33.867H1.333
	C0.597,33.867,0,34.465,0,35.206c0,0.538,0.316,1.003,0.769,1.213v12.015c0,0.857,0.693,1.555,1.547,1.555h22.4
	c0.854,0,1.549-0.697,1.549-1.555V36.419c0.453-0.21,0.769-0.675,0.769-1.213C27.033,34.465,26.438,33.867,25.698,33.867z
	 M9.834,33.867l2.483-24.009L9.666,6.176c0-0.009,0-0.014,0.004-0.022c0.009-0.105,0.023-0.208,0.046-0.311
	c0.026-0.143,0.061-0.287,0.1-0.426c0.028-0.089,0.059-0.171,0.096-0.255C9.919,5.126,9.934,5.094,9.949,5.06
	c0.035-0.091,0.076-0.175,0.12-0.261c0.054-0.107,0.111-0.206,0.173-0.304c0.055-0.084,0.112-0.168,0.17-0.25
	c0.014-0.014,0.026-0.03,0.04-0.049c0.062-0.085,0.128-0.162,0.196-0.241c0.01-0.005,0.014-0.01,0.018-0.017
	c0.081-0.081,0.165-0.166,0.244-0.248c0.219-0.191,0.459-0.364,0.714-0.51c0.049-0.031,0.103-0.057,0.156-0.084
	c0.156-0.08,0.32-0.147,0.49-0.206c0.053-0.021,0.111-0.04,0.168-0.055c0.04-0.011,0.076-0.022,0.115-0.029
	c0.059-0.019,0.117-0.032,0.18-0.044c0.252-0.055,0.515-0.082,0.786-0.082s0.533,0.027,0.787,0.082
	c0.057,0.011,0.119,0.024,0.178,0.044c0.041,0.007,0.08,0.018,0.115,0.029c0.057,0.015,0.115,0.033,0.17,0.055
	c0.17,0.059,0.332,0.126,0.488,0.206c0.053,0.027,0.102,0.053,0.155,0.084c0.257,0.145,0.491,0.317,0.711,0.509
	c0.084,0.082,0.165,0.166,0.244,0.248c0.005,0.007,0.009,0.012,0.019,0.017c0.07,0.079,0.137,0.157,0.195,0.241
	c0.014,0.019,0.025,0.03,0.04,0.049c0.062,0.082,0.116,0.166,0.169,0.25c0.053,0.082,0.102,0.166,0.146,0.255
	c0.026,0.046,0.049,0.088,0.071,0.141c0.031,0.06,0.062,0.124,0.089,0.19c0.016,0.049,0.034,0.093,0.053,0.144
	c0.031,0.084,0.062,0.17,0.084,0.259c0.023,0.064,0.041,0.134,0.055,0.206c0.021,0.084,0.039,0.173,0.052,0.267
	c0.015,0.072,0.022,0.146,0.031,0.215v0.005l-2.654,3.683l2.486,24.009H9.834z"/>
</svg>
