<?xml version="1.0" encoding="iso-8859-1"?>
<!-- Generator: Adobe Illustrator 16.0.4, SVG Export Plug-In . SVG Version: 6.00 Build 0)  -->
<!DOCTYPE svg PUBLIC "-//W3C//DTD SVG 1.1//EN" "http://www.w3.org/Graphics/SVG/1.1/DTD/svg11.dtd">
<svg version="1.1" id="Layer_1" xmlns="http://www.w3.org/2000/svg" xmlns:xlink="http://www.w3.org/1999/xlink" x="0px" y="0px"
	 width="32.471px" height="55.363px" viewBox="0 0 32.471 55.363" style="enable-background:new 0 0 32.471 55.363;"
	 xml:space="preserve">
<path d="M26.718,0.332c-2.253-0.698-4.676-0.292-6.834,1.144c-2.068,1.374-3.642,3.546-4.438,6.114L7.163,34.408
	c-1.175,3.802,0.503,7.707,3.738,8.708c3.237,0.998,6.829-1.287,8.003-5.089l4.019-13c0.221-0.709-0.18-1.463-0.89-1.683
	c-0.711-0.22-1.466,0.18-1.686,0.889l-4.02,13c-0.736,2.382-2.814,3.868-4.632,3.307c-1.815-0.557-2.691-2.952-1.955-5.336
	l8.28-26.82c0.612-1.979,1.804-3.635,3.359-4.668c1.466-0.974,3.079-1.266,4.541-0.812c3.124,0.961,4.661,4.988,3.429,8.973
	L19.174,44.8c-0.841,2.726-2.487,5.011-4.636,6.438c-2.059,1.369-4.333,1.772-6.411,1.137c-2.067-0.643-3.723-2.254-4.652-4.546
	c-0.967-2.384-1.034-5.204-0.192-7.928l5.908-19.104c0.221-0.709-0.181-1.463-0.892-1.684c-0.71-0.218-1.465,0.181-1.686,0.89
	L0.707,39.107c-1.026,3.315-0.932,6.771,0.269,9.729c1.241,3.061,3.497,5.226,6.357,6.11c0.912,0.28,1.843,0.418,2.78,0.418
	c2.012,0,4.047-0.639,5.922-1.886c2.661-1.769,4.689-4.569,5.714-7.881l10.183-32.927C33.601,7.267,31.263,1.732,26.718,0.332z"/>
</svg>
