<?xml version="1.0" encoding="iso-8859-1"?>
<!-- Generator: Adobe Illustrator 16.0.4, SVG Export Plug-In . SVG Version: 6.00 Build 0)  -->
<!DOCTYPE svg PUBLIC "-//W3C//DTD SVG 1.1//EN" "http://www.w3.org/Graphics/SVG/1.1/DTD/svg11.dtd">
<svg version="1.1" id="Layer_1" xmlns="http://www.w3.org/2000/svg" xmlns:xlink="http://www.w3.org/1999/xlink" x="0px" y="0px"
	 width="48.295px" height="48.257px" viewBox="0 0 48.295 48.257" style="enable-background:new 0 0 48.295 48.257;"
	 xml:space="preserve">
<g>
	<path d="M24.147,0C10.82,0,0,10.788,0,24.128c0,13.316,10.82,24.129,24.147,24.129c13.327,0,24.148-10.813,24.148-24.129
		C48.295,10.788,37.474,0,24.147,0z M33.138,21.07c0,0.097,0,0.193-0.025,0.289c-0.266,3.469-3.229,7.248-10.772,7.801v6.502
		c0,1.131-0.892,2.022-2.025,2.022c-1.108,0-2.024-0.892-2.024-2.022V14.689c0-1.108,0.916-2.023,2.024-2.023
		c0.025,0,0.048,0,0.073,0.024v-0.024c5.808,0,12.58,2.143,12.75,8.163V21.07z"/>
	<path d="M22.34,16.808v8.283c4.097-0.361,6.677-1.902,6.748-4.141C29.017,18.71,26.437,17.169,22.34,16.808z"/>
</g>
</svg>
