<?xml version="1.0" encoding="iso-8859-1"?>
<!-- Generator: Adobe Illustrator 16.0.4, SVG Export Plug-In . SVG Version: 6.00 Build 0)  -->
<!DOCTYPE svg PUBLIC "-//W3C//DTD SVG 1.1//EN" "http://www.w3.org/Graphics/SVG/1.1/DTD/svg11.dtd">
<svg version="1.1" id="Layer_1" xmlns="http://www.w3.org/2000/svg" xmlns:xlink="http://www.w3.org/1999/xlink" x="0px" y="0px"
	 width="38.843px" height="56.619px" viewBox="0 0 38.843 56.619" style="enable-background:new 0 0 38.843 56.619;"
	 xml:space="preserve">
<g>
	<path d="M0.315,47.161c-0.477,0.562-0.403,1.406,0.164,1.881l2.396,2.003c0.568,0.474,1.415,0.399,1.891-0.163l1.563-1.851
		L1.878,45.31L0.315,47.161z"/>
	<path d="M35.191,10.95c-0.054-0.023-0.107-0.049-0.158-0.083c-0.044-0.023-0.084-0.054-0.121-0.086
		c-0.039-0.03-0.078-0.062-0.111-0.1l-0.04-0.04c-0.104-0.104-0.179-0.223-0.241-0.358l-0.738-1.627l-1.324,0.708
		c-0.562,0.355-0.773,0.854-0.465,1.113l1.293,1.08c0.309,0.253,0.805,0.67,1.113,0.928l1.293,1.083
		c0.303,0.254,0.764-0.035,1.02-0.645l0.412-1.233l-1.838-0.694C35.253,10.98,35.222,10.969,35.191,10.95z"/>
	<path d="M38.22,6.279l-2.067,1.108l0.591,1.303l1.226,0.463l0.806-2.407C38.939,6.107,38.828,6.021,38.22,6.279z"/>
	<path d="M30.901,13.04c-0.567-0.47-1.414-0.4-1.892,0.166l-3.854,4.56l1.114-5.795c0.142-0.726-0.339-1.424-1.063-1.562
		l-3.078-0.584c-0.729-0.142-1.432,0.335-1.569,1.062l-3.069,15.95L3.605,43.267l4.451,3.723l7.193-8.514l-2.111,10.979l5.711,1.087
		l4.066-21.135l10.543-12.48c0.479-0.561,0.406-1.406-0.162-1.876L30.901,13.04z"/>
	<path d="M12.178,54.448c-0.14,0.721,0.337,1.422,1.066,1.562l3.075,0.584c0.728,0.14,1.431-0.335,1.57-1.06l0.457-2.372
		l-5.711-1.089L12.178,54.448z"/>
	<path d="M26.392,2.995l-0.482-2.49c-0.17-0.636-0.31-0.659-0.712-0.137l-1.262,1.971l1.155,0.847L26.392,2.995z"/>
	<path d="M21.821,7.05l1.659,0.314c0.395,0.077,1.033,0.2,1.426,0.271l1.665,0.316c0.39,0.074,0.648-0.4,0.572-1.059L26.897,5.62
		l-1.946,0.291c-0.066,0.007-0.135,0.012-0.197,0.012c-0.08,0-0.155-0.009-0.232-0.023c-0.003,0-0.003,0-0.008,0
		c-0.049-0.006-0.104-0.016-0.157-0.037c-0.021-0.004-0.048-0.014-0.069-0.023c-0.039-0.014-0.072-0.033-0.108-0.044
		c-0.085-0.033-0.169-0.081-0.246-0.137l-1.44-1.063L21.681,5.86C21.364,6.439,21.425,6.978,21.821,7.05z"/>
</g>
</svg>
