<?xml version="1.0" encoding="iso-8859-1"?>
<!-- Generator: Adobe Illustrator 16.0.4, SVG Export Plug-In . SVG Version: 6.00 Build 0)  -->
<!DOCTYPE svg PUBLIC "-//W3C//DTD SVG 1.1//EN" "http://www.w3.org/Graphics/SVG/1.1/DTD/svg11.dtd">
<svg version="1.1" id="Layer_1" xmlns="http://www.w3.org/2000/svg" xmlns:xlink="http://www.w3.org/1999/xlink" x="0px" y="0px"
	 width="60.373px" height="41.938px" viewBox="0 0 60.373 41.938" style="enable-background:new 0 0 60.373 41.938;"
	 xml:space="preserve">
<path d="M58.742,19.599H44.235l-6.211-14.29h10.928c0.896,0,1.63-0.731,1.63-1.636V1.633C50.582,0.73,49.851,0,48.952,0H11.423
	c-0.899,0-1.631,0.729-1.631,1.633v2.042c0,0.903,0.732,1.636,1.631,1.636h10.926l-6.21,14.29H1.631C0.733,19.599,0,20.33,0,21.233
	v1.632c0,0.903,0.733,1.632,1.631,1.632h12.375L8.337,37.536c-0.692,1.592,0.035,3.448,1.626,4.14
	c0.408,0.182,0.835,0.262,1.253,0.262c1.212,0,2.372-0.704,2.888-1.892l6.76-15.548H39.51l6.761,15.548
	c0.516,1.188,1.67,1.892,2.887,1.892c0.418,0,0.845-0.08,1.253-0.262c1.59-0.69,2.317-2.547,1.626-4.14l-5.668-13.038h12.373
	c0.898,0,1.631-0.729,1.631-1.632v-1.632C60.373,20.33,59.642,19.599,58.742,19.599z M22.997,19.599l6.197-14.257
	c0.004-0.01,0.01-0.023,0.013-0.032h1.959c0.005,0.009,0.009,0.022,0.015,0.032l6.197,14.257H22.997z"/>
</svg>
