<?xml version="1.0" encoding="iso-8859-1"?>
<!-- Generator: Adobe Illustrator 16.0.4, SVG Export Plug-In . SVG Version: 6.00 Build 0)  -->
<!DOCTYPE svg PUBLIC "-//W3C//DTD SVG 1.1//EN" "http://www.w3.org/Graphics/SVG/1.1/DTD/svg11.dtd">
<svg version="1.1" id="Layer_1" xmlns="http://www.w3.org/2000/svg" xmlns:xlink="http://www.w3.org/1999/xlink" x="0px" y="0px"
	 width="54.047px" height="54.006px" viewBox="0 0 54.047 54.006" style="enable-background:new 0 0 54.047 54.006;"
	 xml:space="preserve">
<g>
	<path d="M54.016,27.885c-0.01-0.18-0.018-0.354-0.031-0.525c-0.049-0.725-0.129-1.441-0.242-2.142
		c-0.027-0.167-0.055-0.333-0.085-0.5c-0.041-0.241-0.089-0.483-0.14-0.72c-0.033-0.147-0.063-0.293-0.095-0.436
		c-0.13-0.572-0.282-1.137-0.452-1.693c-0.047-0.148-0.092-0.291-0.141-0.441c-0.094-0.291-0.193-0.587-0.301-0.873
		c-0.066-0.185-0.139-0.373-0.211-0.556c-0.067-0.172-0.135-0.338-0.207-0.507c-0.059-0.136-0.112-0.27-0.174-0.399
		c-0.064-0.148-0.133-0.295-0.199-0.441c-0.139-0.3-0.283-0.591-0.432-0.882c-0.072-0.141-0.144-0.275-0.215-0.404
		c-0.207-0.391-0.427-0.771-0.656-1.149c-0.076-0.129-0.158-0.256-0.238-0.385c-0.454-0.718-0.943-1.407-1.469-2.071
		c-0.248-0.313-0.498-0.624-0.765-0.924c0-0.004-0.004-0.01-0.009-0.014c-0.391-0.448-0.794-0.882-1.212-1.295
		c-0.494-0.493-1.007-0.965-1.537-1.417c-0.533-0.453-1.085-0.88-1.655-1.281c-0.167-0.12-0.328-0.23-0.494-0.343
		c-0.168-0.113-0.332-0.223-0.504-0.331c-0.337-0.216-0.679-0.422-1.029-0.624c-0.17-0.099-0.35-0.197-0.524-0.291
		c-0.175-0.094-0.354-0.19-0.534-0.284c-0.201-0.103-0.404-0.201-0.605-0.3c-0.145-0.066-0.289-0.134-0.434-0.202
		C39.4,6.441,39.37,6.429,39.342,6.42c-0.175-0.082-0.346-0.152-0.521-0.23c-0.188-0.075-0.373-0.152-0.562-0.227
		c-0.188-0.078-0.382-0.148-0.571-0.216c-0.191-0.071-0.381-0.139-0.574-0.202c-0.176-0.064-0.35-0.117-0.529-0.174l-0.081-0.028
		c-0.381-0.117-0.769-0.223-1.153-0.321c-0.203-0.054-0.402-0.104-0.603-0.148c-0.202-0.048-0.404-0.092-0.606-0.132
		c-0.388-0.079-0.777-0.147-1.168-0.211c-0.031-0.004-0.062-0.009-0.09-0.011c-0.4-0.064-0.799-0.113-1.208-0.153
		c-0.206-0.023-0.407-0.042-0.612-0.054c-0.205-0.018-0.406-0.032-0.613-0.042c-0.584,0.104-1.051,0.531-1.235,1.077
		c-0.054,0.157-0.075,0.328-0.075,0.502L29.12,30.381H5.638C5.01,30.459,4.493,30.897,4.3,31.481
		c1.186,12.64,11.844,22.526,24.816,22.526c0.435,0,0.866-0.009,1.297-0.032h0.009c0.193-0.008,0.387-0.021,0.58-0.035
		c0.287-0.021,0.568-0.049,0.857-0.08c0.283-0.033,0.566-0.068,0.845-0.108c0.222-0.03,0.44-0.067,0.661-0.103
		c0.556-0.094,1.105-0.207,1.644-0.34c0.188-0.045,0.378-0.097,0.566-0.146c0.184-0.05,0.372-0.101,0.557-0.157
		c0.194-0.052,0.382-0.109,0.57-0.169c0.364-0.116,0.719-0.241,1.073-0.373c0.181-0.065,0.361-0.135,0.541-0.207
		c0.133-0.052,0.27-0.108,0.398-0.159c0.153-0.063,0.307-0.132,0.454-0.199c0.077-0.03,0.153-0.066,0.229-0.104
		c0.144-0.061,0.283-0.124,0.427-0.197c1.157-0.547,2.272-1.187,3.323-1.904c0.1-0.068,0.197-0.135,0.291-0.202
		c0.33-0.229,0.651-0.468,0.967-0.714c0.127-0.098,0.248-0.192,0.369-0.291c0.427-0.342,0.84-0.698,1.24-1.071
		c0.26-0.237,0.518-0.483,0.768-0.737c0.562-0.561,1.092-1.146,1.594-1.762c0.193-0.236,0.387-0.475,0.57-0.718
		c0.113-0.147,0.222-0.29,0.328-0.438c0.441-0.601,0.859-1.225,1.242-1.869c0.084-0.139,0.166-0.281,0.246-0.428
		c0.086-0.139,0.161-0.281,0.242-0.425c0.018-0.028,0.031-0.054,0.044-0.082c0.082-0.149,0.162-0.304,0.239-0.455
		c0.086-0.157,0.162-0.319,0.242-0.476c0.095-0.193,0.185-0.387,0.271-0.58c0.071-0.148,0.135-0.291,0.196-0.439
		c0.071-0.167,0.144-0.335,0.215-0.502c0-0.004,0-0.009,0.004-0.014c0.068-0.169,0.136-0.34,0.199-0.506
		c0.067-0.174,0.129-0.35,0.192-0.528c0.062-0.172,0.121-0.345,0.179-0.521c0.058-0.178,0.119-0.354,0.171-0.533
		c0.055-0.176,0.107-0.355,0.158-0.535c0.049-0.182,0.099-0.364,0.143-0.542c0.051-0.192,0.1-0.386,0.145-0.579
		c0.041-0.168,0.076-0.344,0.113-0.518c0.041-0.187,0.075-0.369,0.112-0.557c0.099-0.551,0.185-1.107,0.247-1.672
		c0.021-0.198,0.044-0.396,0.062-0.594c0.072-0.754,0.107-1.516,0.107-2.285C54.047,28.704,54.038,28.292,54.016,27.885z"/>
	<path d="M24.896,24.499V1.583c0-0.776-0.552-1.426-1.285-1.583c0,0-0.003,0-0.007,0c-0.148,0.009-0.298,0.016-0.445,0.026
		c-0.075,0.005-0.148,0.015-0.223,0.019c-0.221,0.014-0.445,0.035-0.665,0.063c-0.234,0.021-0.468,0.049-0.697,0.08
		c-0.215,0.026-0.427,0.058-0.638,0.096c-0.143,0.021-0.287,0.042-0.425,0.07c-0.312,0.054-0.626,0.113-0.931,0.183
		C19.44,0.565,19.301,0.6,19.166,0.63c-0.139,0.033-0.274,0.068-0.413,0.098c-0.305,0.078-0.607,0.157-0.908,0.249
		c-0.216,0.061-0.427,0.129-0.642,0.197c-0.23,0.075-0.459,0.152-0.688,0.237c-0.206,0.071-0.414,0.148-0.616,0.228
		c-0.215,0.082-0.426,0.167-0.637,0.256c-0.486,0.202-0.961,0.418-1.428,0.65c-0.244,0.122-0.486,0.247-0.729,0.373
		c-0.004,0.005-0.012,0.009-0.022,0.014c-0.256,0.139-0.512,0.282-0.763,0.432c-0.391,0.228-0.772,0.464-1.145,0.711
		c-0.149,0.094-0.292,0.194-0.436,0.293c-0.018,0.012-0.036,0.026-0.054,0.035c-0.149,0.104-0.292,0.207-0.436,0.315
		c-0.305,0.218-0.602,0.448-0.898,0.68c-0.377,0.3-0.746,0.614-1.104,0.938C7.496,7.007,6.783,7.725,6.118,8.482
		C5.889,8.752,5.66,9.026,5.434,9.303C5.318,9.446,5.206,9.589,5.098,9.735c-0.076,0.104-0.153,0.197-0.229,0.298
		c-0.616,0.826-1.177,1.687-1.684,2.585c-0.076,0.129-0.149,0.26-0.216,0.394c-0.017,0.026-0.031,0.054-0.044,0.08
		c-0.121,0.22-0.239,0.447-0.35,0.673c-0.158,0.311-0.305,0.631-0.45,0.954c-0.373,0.831-0.7,1.677-0.979,2.55
		c-0.059,0.181-0.112,0.364-0.167,0.549c-0.053,0.183-0.107,0.368-0.156,0.556c-0.041,0.148-0.081,0.295-0.118,0.443
		c-0.094,0.385-0.184,0.776-0.261,1.166c-0.04,0.221-0.08,0.435-0.12,0.655c-0.059,0.335-0.108,0.678-0.148,1.018
		c-0.023,0.163-0.041,0.319-0.06,0.479c-0.026,0.207-0.043,0.413-0.062,0.624c-0.009,0.112-0.018,0.23-0.027,0.34
		C0.019,23.256,0.01,23.413,0,23.57v0.929c0,0.886,0.729,1.614,1.617,1.614H23.28C24.169,26.113,24.897,25.385,24.896,24.499z"/>
</g>
</svg>
