<?xml version="1.0" encoding="iso-8859-1"?>
<!-- Generator: Adobe Illustrator 16.0.4, SVG Export Plug-In . SVG Version: 6.00 Build 0)  -->
<!DOCTYPE svg PUBLIC "-//W3C//DTD SVG 1.1//EN" "http://www.w3.org/Graphics/SVG/1.1/DTD/svg11.dtd">
<svg version="1.1" id="Layer_1" xmlns="http://www.w3.org/2000/svg" xmlns:xlink="http://www.w3.org/1999/xlink" x="0px" y="0px"
	 width="41.939px" height="54.968px" viewBox="0 0 41.939 54.968" style="enable-background:new 0 0 41.939 54.968;"
	 xml:space="preserve">
<path d="M40.072,2.932c-12.436-3.91-25.767-3.91-38.2,0C0.474,3.375-0.311,4.726,0.117,5.876c0.472,1.315,0.943,2.631,1.42,3.945
	c0.223,0.611,0.686,1.057,1.25,1.295l17.499,42.773c0.591,1.444,1.541,1.437,2.112-0.015l16.832-42.792
	c0.53-0.245,0.961-0.681,1.175-1.262c0.477-1.313,0.946-2.629,1.42-3.945C42.248,4.726,41.472,3.375,40.072,2.932z M17.141,15.637
	c-0.106,1.847-1.634,3.312-3.502,3.312c-1.873,0-3.398-1.465-3.507-3.312c-0.003-0.068-0.003-0.133-0.003-0.201
	c0-1.941,1.57-3.513,3.51-3.513c1.937,0,3.506,1.572,3.506,3.513C17.145,15.504,17.145,15.569,17.141,15.637z M21.594,39.05
	c-1.935,0-3.506-1.574-3.506-3.516c0-1.938,1.571-3.513,3.506-3.513c1.94,0,3.51,1.574,3.51,3.513
	C25.104,37.476,23.534,39.05,21.594,39.05z M26.368,26.722c-1.939,0-3.507-1.575-3.507-3.513c0-1.941,1.566-3.516,3.507-3.516
	c1.935,0,3.506,1.575,3.506,3.516C29.875,25.147,28.303,26.722,26.368,26.722z"/>
</svg>
