<?xml version="1.0" encoding="iso-8859-1"?>
<!-- Generator: Adobe Illustrator 16.0.4, SVG Export Plug-In . SVG Version: 6.00 Build 0)  -->
<!DOCTYPE svg PUBLIC "-//W3C//DTD SVG 1.1//EN" "http://www.w3.org/Graphics/SVG/1.1/DTD/svg11.dtd">
<svg version="1.1" id="Layer_1" xmlns="http://www.w3.org/2000/svg" xmlns:xlink="http://www.w3.org/1999/xlink" x="0px" y="0px"
	 width="47.723px" height="48.257px" viewBox="0 0 47.723 48.257" style="enable-background:new 0 0 47.723 48.257;"
	 xml:space="preserve">
<path d="M43.762,26.791v-5.329c0-0.475,0.383-0.855,0.855-0.858h3.104c-0.91-6.212-4.188-11.656-8.887-15.385l-1.549,2.683
	c-0.236,0.412-0.759,0.55-1.169,0.315l-4.613-2.664c-0.409-0.237-0.55-0.762-0.313-1.171l1.551-2.688C29.994,0.604,27,0,23.86,0
	c-3.138,0-6.131,0.604-8.881,1.695l1.551,2.688c0.236,0.409,0.096,0.934-0.314,1.171l-4.611,2.664
	c-0.41,0.235-0.935,0.097-1.169-0.315L8.886,5.22C4.187,8.952,0.91,14.393,0,20.607h3.105c0.472,0,0.854,0.383,0.854,0.855v5.329
	c0,0.474-0.383,0.856-0.854,0.856H0c0.91,6.214,4.188,11.658,8.887,15.388l1.549-2.686c0.236-0.409,0.76-0.551,1.169-0.312
	l4.613,2.664c0.409,0.237,0.549,0.76,0.312,1.17l-1.551,2.688c2.75,1.091,5.743,1.696,8.881,1.696c3.139,0,6.133-0.605,8.884-1.696
	l-1.551-2.688c-0.236-0.41-0.098-0.933,0.312-1.17l4.614-2.664c0.409-0.238,0.932-0.097,1.169,0.312l1.548,2.686
	c4.701-3.732,7.978-9.174,8.887-15.388h-3.104C44.144,27.647,43.763,27.264,43.762,26.791z M30.654,13.372
	c0.462-0.583,1.311-0.68,1.894-0.216c1.64,1.298,2.986,2.975,3.899,4.851c0.325,0.667,0.047,1.474-0.622,1.801
	c-0.19,0.094-0.391,0.136-0.59,0.136c-0.499,0-0.979-0.28-1.211-0.757c-0.737-1.514-1.826-2.869-3.151-3.919
	C30.29,14.804,30.192,13.958,30.654,13.372z M11.241,18.082c0.9-1.881,2.239-3.567,3.87-4.877c0.579-0.465,1.428-0.372,1.894,0.209
	c0.467,0.581,0.373,1.43-0.207,1.895c-1.317,1.059-2.397,2.419-3.126,3.937c-0.232,0.484-0.714,0.766-1.216,0.766
	c-0.194,0-0.393-0.042-0.583-0.131C11.201,19.559,10.919,18.752,11.241,18.082z M13.065,30.85c-0.191,0.092-0.39,0.134-0.588,0.134
	c-0.5,0-0.98-0.279-1.214-0.759c-0.921-1.901-1.389-3.942-1.394-6.069c-0.002-0.746,0.602-1.35,1.345-1.35h0.003
	c0.744,0,1.347,0.6,1.349,1.345c0.003,1.716,0.382,3.365,1.124,4.897C14.015,29.716,13.735,30.525,13.065,30.85z M22.376,36.761
	c-0.142,0.628-0.697,1.051-1.312,1.051c-0.1,0-0.197-0.01-0.299-0.033c-2.033-0.461-3.974-1.392-5.61-2.697
	c-0.583-0.463-0.679-1.312-0.215-1.896c0.462-0.583,1.312-0.677,1.893-0.214c1.322,1.054,2.886,1.803,4.527,2.175
	C22.085,35.313,22.541,36.035,22.376,36.761z M21.315,13.116c-0.103,0.024-0.202,0.036-0.303,0.036c-0.613,0-1.17-0.424-1.312-1.046
	c-0.167-0.727,0.286-1.449,1.011-1.618c2.028-0.465,4.189-0.472,6.223-0.019c0.726,0.165,1.182,0.884,1.02,1.61
	c-0.163,0.727-0.881,1.183-1.61,1.023C24.701,12.732,22.952,12.737,21.315,13.116z M32.591,35.066
	c-1.636,1.307-3.574,2.243-5.604,2.707c-0.102,0.023-0.202,0.035-0.301,0.035c-0.616,0-1.172-0.424-1.314-1.049
	c-0.166-0.727,0.29-1.451,1.016-1.615c1.637-0.374,3.201-1.129,4.521-2.186c0.581-0.463,1.429-0.369,1.896,0.213
	C33.266,33.751,33.172,34.601,32.591,35.066z M37.852,24.094c0.001,2.16-0.464,4.203-1.381,6.105
	c-0.233,0.481-0.716,0.764-1.218,0.764c-0.195,0-0.395-0.041-0.584-0.133c-0.67-0.326-0.95-1.129-0.627-1.803
	c0.739-1.533,1.114-3.181,1.114-4.9v-0.052c0-0.746,0.604-1.348,1.347-1.348c0.745,0,1.349,0.602,1.349,1.348h-1.349L37.852,24.094z
	"/>
</svg>
