<?xml version="1.0" encoding="iso-8859-1"?>
<!-- Generator: Adobe Illustrator 16.0.4, SVG Export Plug-In . SVG Version: 6.00 Build 0)  -->
<!DOCTYPE svg PUBLIC "-//W3C//DTD SVG 1.1//EN" "http://www.w3.org/Graphics/SVG/1.1/DTD/svg11.dtd">
<svg version="1.1" id="Layer_1" xmlns="http://www.w3.org/2000/svg" xmlns:xlink="http://www.w3.org/1999/xlink" x="0px" y="0px"
	 width="68.148px" height="37.014px" viewBox="0 0 68.148 37.014" style="enable-background:new 0 0 68.148 37.014;"
	 xml:space="preserve">
<g>
	<path d="M2.145,11.884h5.537c0.741,0,1.341-0.603,1.341-1.347c0-0.742-0.6-1.345-1.341-1.345H2.145c-0.74,0-1.34,0.603-1.34,1.345
		C0.805,11.281,1.404,11.884,2.145,11.884z"/>
	<path d="M14.025,15.305H1.341C0.601,15.305,0,15.908,0,16.652c0,0.742,0.601,1.345,1.341,1.345h12.684
		c0.74,0,1.341-0.603,1.341-1.345C15.365,15.908,14.765,15.305,14.025,15.305z"/>
	<path d="M10.049,20.864H5.316c-0.74,0-1.342,0.603-1.342,1.345c0,0.744,0.602,1.348,1.342,1.348h4.733
		c0.741,0,1.341-0.604,1.341-1.348C11.39,21.467,10.789,20.864,10.049,20.864z"/>
	<path d="M68.143,12.726L68.143,12.726C68.429,5.84,58.479,0.18,45.592,0.004C32.455-0.17,21.242,5.415,20.545,12.478
		c-0.02,0.202-0.027,0.398-0.03,0.596l-0.006,0.038l-1.515,9.475l-0.003,0.015c-0.121,0.423-0.201,0.852-0.246,1.289
		c-0.014,0.127-0.015,0.253-0.021,0.378l-0.003,0.021h0.002c-0.282,6.889,9.662,12.542,22.551,12.721
		c12.443,0.164,23.15-4.836,24.839-11.366h0.004l0.003-0.028c0.09-0.354,0.16-0.715,0.197-1.079c0.013-0.117,0.021-0.229,0.025-0.34
		v-0.005l1.543-9.818c0.003-0.019,0.008-0.037,0.013-0.054c0.054-0.181,0.095-0.363,0.13-0.551c0.021-0.104,0.04-0.211,0.055-0.324
		c0.016-0.107,0.029-0.213,0.04-0.321c0.012-0.127,0.013-0.251,0.019-0.376l0.004-0.021H68.143z M44.734,8.729
		c4.181,0.056,7.392,1.924,7.17,4.174c-0.095,0.967-0.81,1.847-1.925,2.532c-1.479,0.905-3.663,1.472-6.046,1.438
		c-2.581-0.035-4.792-0.76-6.056-1.837c-0.782-0.672-1.201-1.476-1.117-2.337C36.98,10.449,40.551,8.672,44.734,8.729z
		 M60.051,22.477c-4.243,2.603-10.222,4.078-16.476,4.078c-0.18,0-0.358-0.003-0.537-0.005c-6.993-0.094-13.411-2.066-17.169-5.276
		c-0.564-0.481-0.633-1.331-0.152-1.896c0.479-0.564,1.327-0.634,1.89-0.152c3.298,2.815,9.08,4.55,15.466,4.637
		c5.964,0.075,11.636-1.262,15.579-3.681c0.632-0.389,1.458-0.188,1.844,0.447C60.883,21.26,60.683,22.089,60.051,22.477z"/>
</g>
</svg>
