<?xml version="1.0" encoding="iso-8859-1"?>
<!-- Generator: Adobe Illustrator 16.0.4, SVG Export Plug-In . SVG Version: 6.00 Build 0)  -->
<!DOCTYPE svg PUBLIC "-//W3C//DTD SVG 1.1//EN" "http://www.w3.org/Graphics/SVG/1.1/DTD/svg11.dtd">
<svg version="1.1" id="Layer_1" xmlns="http://www.w3.org/2000/svg" xmlns:xlink="http://www.w3.org/1999/xlink" x="0px" y="0px"
	 width="40.822px" height="43.664px" viewBox="0 0 40.822 43.664" style="enable-background:new 0 0 40.822 43.664;"
	 xml:space="preserve">
<path d="M37.592,18.535c0-0.844-0.678-1.524-1.521-1.524H31.51V7.508c0-2.321-1.232-4.07-2.867-4.07h-2.255
	C26.087,1.39,25.011,0,23.607,0H12.373C10.71,0,9.504,1.944,9.504,4.622v12.39H4.751c-0.838,0-1.521,0.68-1.521,1.524L0,42.145
	c0,0.838,0.684,1.52,1.521,1.52H39.3c0.844,0,1.521-0.682,1.521-1.52L37.592,18.535z M14.539,7.41l-1.338,9.602h-1.008V4.622h0.001
	c0-1.024,0.26-1.684,0.418-1.933h10.753c0.085,0.134,0.196,0.387,0.283,0.749h-6.241C15.794,3.438,14.575,5.138,14.539,7.41z
	 M20.411,32.718c-1.314,0-2.383-1.065-2.383-2.38c0-1.316,1.068-2.379,2.383-2.379c1.313,0,2.383,1.062,2.383,2.379
	C22.794,31.652,21.726,32.718,20.411,32.718z M15.921,17.012l1.298-9.318l0.013-0.185c0-0.738,0.216-1.21,0.345-1.383h6.38V6.125
	l1.255,10.887H15.921z M28.817,17.011h-0.904L26.658,6.125h1.816c0.128,0.173,0.342,0.645,0.342,1.383V17.011z"/>
</svg>
