<?xml version="1.0" encoding="iso-8859-1"?>
<!-- Generator: Adobe Illustrator 16.0.4, SVG Export Plug-In . SVG Version: 6.00 Build 0)  -->
<!DOCTYPE svg PUBLIC "-//W3C//DTD SVG 1.1//EN" "http://www.w3.org/Graphics/SVG/1.1/DTD/svg11.dtd">
<svg version="1.1" id="Layer_1" xmlns="http://www.w3.org/2000/svg" xmlns:xlink="http://www.w3.org/1999/xlink" x="0px" y="0px"
	 width="56.355px" height="47.691px" viewBox="0 0 56.355 47.691" style="enable-background:new 0 0 56.355 47.691;"
	 xml:space="preserve">
<g>
	<path d="M47.126,11.49c-0.469,0-0.919,0.069-1.37,0.138c-2.078-4.173-6.345-7.068-11.326-7.068c-0.45,0-0.876,0.086-1.313,0.133
		C30.388,1.809,26.533,0,22.25,0C15.042,0,9.026,5.093,7.599,11.875C3.29,12.599,0,16.32,0,20.833c0,5.032,4.079,9.112,9.113,9.112
		c2.147,0,4.095-0.773,5.653-2.017c2.203,1.275,4.754,2.017,7.483,2.017c2.293,0,4.458-0.53,6.401-1.452
		c1.74,0.897,3.687,1.452,5.779,1.452c2.562,0,4.934-0.772,6.928-2.076c1.585,1.278,3.573,2.076,5.768,2.076
		c5.099,0,9.229-4.132,9.229-9.229C56.356,15.622,52.225,11.49,47.126,11.49z"/>
	<path d="M10.065,36.395c-1.542,0-2.792,4.345-2.792,5.886c0,1.54,1.25,2.792,2.792,2.792c1.543,0,2.793-1.25,2.793-2.792
		C12.858,40.738,11.608,36.395,10.065,36.395z"/>
	<path d="M34.431,39.013c-1.542,0-2.792,4.344-2.792,5.886c0,1.541,1.25,2.793,2.792,2.793c1.543,0,2.792-1.252,2.792-2.793
		C37.223,43.357,35.974,39.013,34.431,39.013z"/>
	<path d="M22.098,32.227c-1.543,0-2.793,4.344-2.793,5.889c0,1.542,1.25,2.792,2.793,2.792c1.542,0,2.791-1.25,2.791-2.792
		C24.889,36.571,23.64,32.227,22.098,32.227z"/>
	<path d="M46.208,33.396c-1.542,0-2.792,4.345-2.792,5.887s1.25,2.791,2.792,2.791s2.793-1.25,2.793-2.791
		S47.75,33.396,46.208,33.396z"/>
</g>
</svg>
