<?xml version="1.0" encoding="iso-8859-1"?>
<!-- Generator: Adobe Illustrator 16.0.4, SVG Export Plug-In . SVG Version: 6.00 Build 0)  -->
<!DOCTYPE svg PUBLIC "-//W3C//DTD SVG 1.1//EN" "http://www.w3.org/Graphics/SVG/1.1/DTD/svg11.dtd">
<svg version="1.1" id="Layer_1" xmlns="http://www.w3.org/2000/svg" xmlns:xlink="http://www.w3.org/1999/xlink" x="0px" y="0px"
	 width="58.078px" height="31.611px" viewBox="0 0 58.078 31.611" style="enable-background:new 0 0 58.078 31.611;"
	 xml:space="preserve">
<path d="M56.197,7.212h-0.395V1.328c0-0.734-0.6-1.328-1.344-1.328H39.841C39.103,0,38.5,0.594,38.5,1.328v2.646
	c0,0.729,0.604,1.331,1.342,1.331c0.744,0,1.344-0.602,1.344-1.331V2.656h11.934v4.555h-0.395c-1.038,0-1.88,0.834-1.88,1.861v3.204
	H23.045v-1.875h18.803c0.739,0,1.343-0.591,1.343-1.328c0-0.735-0.604-1.328-1.343-1.328H23.045V6.083
	c0-0.734-0.599-1.331-1.343-1.331c-0.738,0-1.342,0.597-1.342,1.331v1.662H1.562c-0.743,0-1.343,0.593-1.343,1.328
	c0,0.737,0.599,1.328,1.343,1.328H20.36v1.875H1.879C0.841,12.277,0,13.111,0,14.142v11.373c0,1.028,0.841,1.86,1.879,1.86h3.425
	v2.907c0,0.73,0.599,1.328,1.343,1.328s1.343-0.598,1.343-1.328v-2.907h42.685v2.907c0,0.73,0.599,1.328,1.342,1.328
	c0.744,0,1.343-0.598,1.343-1.328v-2.907h2.838c1.038,0,1.88-0.833,1.88-1.86V9.073C58.078,8.046,57.235,7.212,56.197,7.212z
	 M36.292,22.71c-1.61,0-2.914-1.289-2.914-2.884c0-1.59,1.304-2.879,2.914-2.879c1.606,0,2.91,1.289,2.91,2.879
	C39.203,21.421,37.9,22.71,36.292,22.71z M44.425,21.697c-1.043,0-1.889-0.839-1.889-1.871c0-1.027,0.846-1.866,1.889-1.866
	c1.039,0,1.885,0.839,1.885,1.866C46.309,20.858,45.464,21.697,44.425,21.697z"/>
</svg>
