<?xml version="1.0" encoding="iso-8859-1"?>
<!-- Generator: Adobe Illustrator 16.0.4, SVG Export Plug-In . SVG Version: 6.00 Build 0)  -->
<!DOCTYPE svg PUBLIC "-//W3C//DTD SVG 1.1//EN" "http://www.w3.org/Graphics/SVG/1.1/DTD/svg11.dtd">
<svg version="1.1" id="Layer_1" xmlns="http://www.w3.org/2000/svg" xmlns:xlink="http://www.w3.org/1999/xlink" x="0px" y="0px"
	 width="50.027px" height="49.989px" viewBox="0 0 50.027 49.989" style="enable-background:new 0 0 50.027 49.989;"
	 xml:space="preserve">
<g>
	<path d="M25.016,19.661c-2.945,0-5.338,2.391-5.338,5.333c0,2.939,2.393,5.333,5.338,5.333c2.944,0,5.338-2.394,5.338-5.333
		C30.354,22.052,27.96,19.661,25.016,19.661z M25.016,27.129c-1.179,0-2.136-0.955-2.136-2.134c0-1.177,0.957-2.134,2.136-2.134
		s2.135,0.957,2.135,2.134C27.151,26.174,26.196,27.129,25.016,27.129z"/>
	<path d="M25.016,13.074c-6.58,0-11.932,5.345-11.932,11.92c0,6.575,5.352,11.922,11.932,11.922s11.932-5.348,11.932-11.922
		C36.949,18.419,31.597,13.074,25.016,13.074z M25.016,33.006c-4.431,0-8.019-3.59-8.019-8.012c0-4.423,3.588-8.012,8.019-8.012
		c4.427,0,8.019,3.589,8.019,8.012C33.034,29.417,29.443,33.006,25.016,33.006z"/>
	<path d="M25.016,6.949c-9.962,0-18.061,8.098-18.061,18.045c0,9.95,8.099,18.045,18.061,18.045c9.958,0,18.061-8.097,18.061-18.045
		C43.077,15.047,34.974,6.949,25.016,6.949z M25.016,39.592c-8.06,0-14.613-6.547-14.613-14.598c0-8.052,6.554-14.599,14.613-14.599
		s14.612,6.548,14.612,14.599S33.075,39.592,25.016,39.592z"/>
	<path d="M25.016,0C11.199,0,0,11.189,0,24.995c0,13.804,11.199,24.994,25.016,24.994c13.812,0,25.012-11.189,25.012-24.994
		C50.028,11.189,38.829,0,25.016,0z M25.016,45.717c-11.437,0-20.742-9.297-20.742-20.723S13.579,4.27,25.016,4.27
		s20.741,9.298,20.741,20.724S36.452,45.717,25.016,45.717z"/>
</g>
</svg>
