<?xml version="1.0" encoding="iso-8859-1"?>
<!-- Generator: Adobe Illustrator 16.0.4, SVG Export Plug-In . SVG Version: 6.00 Build 0)  -->
<!DOCTYPE svg PUBLIC "-//W3C//DTD SVG 1.1//EN" "http://www.w3.org/Graphics/SVG/1.1/DTD/svg11.dtd">
<svg version="1.1" id="Layer_1" xmlns="http://www.w3.org/2000/svg" xmlns:xlink="http://www.w3.org/1999/xlink" x="0px" y="0px"
	 width="56.786px" height="50.969px" viewBox="0 0 56.786 50.969" style="enable-background:new 0 0 56.786 50.969;"
	 xml:space="preserve">
<g>
	<path d="M22.084,37.657l-8.729-0.193l-0.309-0.004c-0.073-0.019-0.145-0.049-0.208-0.084c-0.29-0.182-0.415-0.531-0.32-0.846
		l0.196-0.326l3.016-4.975l1.128,0.684c0.349,0.207,0.639,0.045,0.649-0.363l-2.354-10.176c0.009-0.406-0.277-0.582-0.631-0.385
		l-10.09,2.623c-0.359,0.199-0.368,0.535-0.018,0.746l1.136,0.69l-5.348,8.833c-0.287,0.47-0.26,1.054,0.022,1.483l0.013,0.022
		l6.906,13.023v0.006l0.125,0.234l0.005,0.01c0.246,0.373,0.658,0.611,1.131,0.625l13.42,0.297c0.77,0.019,1.409-0.596,1.428-1.365
		l0.197-9.133C23.467,38.31,22.859,37.674,22.084,37.657z"/>
	<path d="M56.601,34.174l-6.703-11.657c-0.38-0.669-1.235-0.901-1.903-0.516l-7.896,4.562c-0.666,0.385-0.895,1.238-0.51,1.906
		l4.359,7.591l0.156,0.267c0.021,0.068,0.036,0.143,0.036,0.221c0,0.341-0.237,0.627-0.552,0.713h-0.385l-5.809-0.014v-1.318
		c0-0.409-0.29-0.575-0.645-0.371l-7.463,7.291c-0.354,0.201-0.354,0.54,0,0.742l7.463,7.293c0.354,0.207,0.645,0.035,0.645-0.373
		v-1.334l10.307,0.015c0.549,0,1.033-0.323,1.258-0.789l0.008-0.022l7.541-12.668l0.005-0.004l0.133-0.228l0.005-0.011
		C56.842,35.071,56.833,34.588,56.601,34.174z"/>
	<path d="M29.733,10.359l0.201,0.329l2.984,4.996l-1.127,0.678c-0.354,0.209-0.346,0.546,0.014,0.744l10.081,2.654
		c0.354,0.197,0.641,0.029,0.637-0.38l2.383-10.173c-0.008-0.408-0.298-0.57-0.647-0.359l-1.141,0.686L37.82,0.676
		c-0.286-0.474-0.81-0.72-1.325-0.671h-0.021L21.755,0.059h-0.281c-0.439,0.045-0.846,0.294-1.078,0.709l-6.515,11.763
		c-0.376,0.678-0.134,1.53,0.541,1.901l7.969,4.438c0.672,0.373,1.523,0.129,1.893-0.547l4.239-7.652l0.152-0.274
		c0.045-0.052,0.108-0.104,0.17-0.144C29.135,10.08,29.502,10.134,29.733,10.359z"/>
</g>
</svg>
