<?xml version="1.0" encoding="iso-8859-1"?>
<!-- Generator: Adobe Illustrator 16.0.4, SVG Export Plug-In . SVG Version: 6.00 Build 0)  -->
<!DOCTYPE svg PUBLIC "-//W3C//DTD SVG 1.1//EN" "http://www.w3.org/Graphics/SVG/1.1/DTD/svg11.dtd">
<svg version="1.1" id="Layer_1" xmlns="http://www.w3.org/2000/svg" xmlns:xlink="http://www.w3.org/1999/xlink" x="0px" y="0px"
	 width="53.99px" height="50.555px" viewBox="0 0 53.99 50.555" style="enable-background:new 0 0 53.99 50.555;"
	 xml:space="preserve">
<path d="M53.985,33.078c-0.023-0.048-0.023-0.121-0.023-0.169l-0.669-3.659c-0.19-1.06-0.907-2.167-1.601-2.503
	c-0.262-0.12-0.789-0.361-1.338-0.603c-0.287-0.144-0.572-0.265-0.836-0.384c-0.5-0.241-0.883-0.434-0.883-0.434
	c-0.023,0-0.023,0-0.023,0c-0.549-0.241-1.147-0.529-1.768-0.794c-3.99-1.829-9.316-4.262-14.094-6.429l-8.169,4.502
	c-0.262,0.146-0.525,0.217-0.788,0.217c-0.525,0-1.051-0.265-1.361-0.746c-0.024-0.049-0.048-0.072-0.048-0.12
	c-0.311-0.53-0.262-1.181,0.048-1.687c0.144-0.216,0.335-0.409,0.597-0.528l6.02-3.322c-2.842-1.252-5.208-2.312-6.617-2.914v0.025
	h-9.484c-0.883,0-1.624-0.747-1.624-1.639c0-0.915,0.741-1.636,1.624-1.636h9.484V2.72c0-1.491-1.219-2.72-2.699-2.72l-7.453,0.675
	c-1.504,0-2.724,1.227-2.724,2.743v1.373H3.464c-1.504,0-2.723,1.227-2.723,2.72v24.604c0,1.491,1.219,2.72,2.723,2.72h5.327
	L7.62,36.882H5.566c-1.218,0-2.222,0.89-2.437,2.045v0.025C1.267,40.011,0,42.01,0,44.344c0,3.419,2.771,6.211,6.163,6.211
	c3.417,0,6.163-2.792,6.163-6.211h1.242c0,3.419,2.747,6.211,6.163,6.211c3.392,0,6.163-2.792,6.163-6.211h1.218
	c0,3.419,2.771,6.211,6.163,6.211c3.416,0,6.164-2.792,6.164-6.211h1.242c0,3.419,2.77,6.211,6.161,6.211
	c3.394,0,6.163-2.792,6.163-6.211c0-3.346-2.604-6.042-5.876-6.21c-0.429-0.746-1.218-1.251-2.125-1.251h-1.625l-1.194-2.047h10.152
	C53.364,34.835,54.056,34.064,53.985,33.078z M6.163,47.859c-1.911,0-3.487-1.588-3.487-3.515c0-0.674,0.191-1.275,0.501-1.806
	c0.287,1.036,1.266,1.806,2.389,1.806H9.65C9.65,46.271,8.098,47.859,6.163,47.859z M9.65,27.373
	c-0.358,0.385-0.859,0.625-1.457,0.625c-1.123,0-2.031-0.915-2.031-2.045c0-1.133,0.908-2.047,2.031-2.047
	c0.525,0,1.003,0.192,1.361,0.528c0.431,0.385,0.693,0.916,0.693,1.519C10.248,26.531,10.033,27.011,9.65,27.373z M19.731,47.859
	c-1.935,0-3.488-1.588-3.488-3.515h6.975C23.218,46.271,21.642,47.859,19.731,47.859z M20.329,36.882l-1.171-2.047h12.684
	l-1.17,2.047H20.329z M33.274,47.859c-1.912,0-3.463-1.588-3.463-3.515h6.951C36.763,46.271,35.21,47.859,33.274,47.859z
	 M45.004,44.345L45.004,44.345c1.361-0.001,2.459-1.108,2.459-2.479v-0.963c1.625,0.266,2.867,1.709,2.867,3.442
	c0,1.926-1.554,3.515-3.488,3.515c-1.911,0-3.487-1.588-3.487-3.515H45.004z"/>
</svg>
