<?xml version="1.0" encoding="iso-8859-1"?>
<!-- Generator: Adobe Illustrator 16.0.4, SVG Export Plug-In . SVG Version: 6.00 Build 0)  -->
<!DOCTYPE svg PUBLIC "-//W3C//DTD SVG 1.1//EN" "http://www.w3.org/Graphics/SVG/1.1/DTD/svg11.dtd">
<svg version="1.1" id="Layer_1" xmlns="http://www.w3.org/2000/svg" xmlns:xlink="http://www.w3.org/1999/xlink" x="0px" y="0px"
	 width="63.872px" height="31.543px" viewBox="0 0 63.872 31.543" style="enable-background:new 0 0 63.872 31.543;"
	 xml:space="preserve">
<path d="M55.954,17.525c-3.145-0.091-8.021-2.209-13.016-4.934h-0.005l-2.459,2.788c-0.271,0.301-0.636,0.454-1.009,0.454
	c-0.318,0-0.637-0.113-0.891-0.341c-0.556-0.494-0.607-1.346-0.113-1.903l2.069-2.343c-0.698-0.405-1.394-0.814-2.083-1.229
	l-2.326,2.633c-0.265,0.296-0.631,0.454-1.002,0.454c-0.32,0-0.639-0.113-0.894-0.343c-0.556-0.494-0.604-1.348-0.112-1.906
	l2.004-2.266c-0.839-0.527-1.654-1.05-2.438-1.562l-2.465,2.792c-0.269,0.301-0.635,0.457-1.008,0.457
	c-0.318,0-0.635-0.108-0.891-0.339c-0.557-0.494-0.605-1.348-0.113-1.905l2.209-2.501c-3.463-2.334-6.072-4.277-6.865-4.983
	c-2.499-2.23-8.472,2.788-5.278,7.253c0,0,1.389,0.977-1.25,1.673c-2.64,0.696-3.611,2.649-9.311-2.788
	c-2.083-2.37-4.457-0.979-4.86,0.837L1.485,18.124c0,0-1.527,3.483,0,5.855c-1.111,1.812-2.335,5.581-0.681,6.277
	c1.654,0.691,16.937,1.953,22.354,0.834c0.762-0.157,1.802-0.258,3.033-0.312v-0.882c0-0.746,0.6-1.349,1.344-1.349
	c0.744,0,1.344,0.603,1.344,1.349v0.813c7.943-0.033,20.149,0.949,23.877,0.824c4.861-0.162,8.889-1.84,10.416-4.767
	C64.706,23.838,64.288,17.768,55.954,17.525z M17.247,20.196h-9.53c-0.744,0-1.344-0.604-1.344-1.349c0-0.748,0.6-1.351,1.344-1.351
	h9.53c0.739,0,1.344,0.604,1.344,1.351C18.591,19.592,17.986,20.196,17.247,20.196z"/>
</svg>
