<?xml version="1.0" encoding="iso-8859-1"?>
<!-- Generator: Adobe Illustrator 16.0.4, SVG Export Plug-In . SVG Version: 6.00 Build 0)  -->
<!DOCTYPE svg PUBLIC "-//W3C//DTD SVG 1.1//EN" "http://www.w3.org/Graphics/SVG/1.1/DTD/svg11.dtd">
<svg version="1.1" id="Layer_1" xmlns="http://www.w3.org/2000/svg" xmlns:xlink="http://www.w3.org/1999/xlink" x="0px" y="0px"
	 width="60.738px" height="42.521px" viewBox="0 0 60.738 42.521" style="enable-background:new 0 0 60.738 42.521;"
	 xml:space="preserve">
<path d="M60.739,33.615l-22.43-8.093L20.285,8.823c0.542-1.404,0.58-2.938,0.096-4.381c-0.553-1.646-1.716-2.979-3.275-3.756
	C16.19,0.231,15.211,0,14.193,0c-2.491,0-4.73,1.378-5.844,3.595C7.571,5.148,7.445,6.908,7.998,8.557
	c0.552,1.646,1.714,2.979,3.273,3.756c0.916,0.455,1.896,0.686,2.913,0.686c1.503,0,2.912-0.506,4.04-1.39l11.693,10.094
	l-1.729,3.443L13.049,21.9c0.049-2.433-1.274-4.796-3.602-5.955c-0.915-0.455-1.895-0.687-2.911-0.687
	c-2.492,0-4.731,1.379-5.845,3.599c-0.779,1.553-0.905,3.312-0.354,4.959c0.553,1.646,1.716,2.979,3.274,3.756
	c0.915,0.455,1.896,0.688,2.913,0.688c2.277,0,4.341-1.153,5.53-3.045l24.241,4.313L56.27,42.521l0.488-0.688L39.001,28.369
	l21.479,6.048L60.739,33.615z M18.462,8.624c-0.814,1.623-2.454,2.63-4.277,2.63c-0.744,0-1.461-0.168-2.13-0.501
	c-1.142-0.568-1.992-1.546-2.396-2.749c-0.404-1.206-0.313-2.495,0.257-3.63c0.813-1.623,2.454-2.632,4.276-2.632
	c0.744,0,1.46,0.17,2.13,0.503c1.142,0.567,1.992,1.544,2.396,2.749C19.123,6.197,19.032,7.487,18.462,8.624z M10.805,23.885
	c-0.814,1.623-2.454,2.633-4.278,2.633c-0.743,0-1.459-0.17-2.131-0.503c-1.141-0.567-1.992-1.543-2.396-2.747
	c-0.403-1.206-0.311-2.495,0.259-3.63c0.813-1.625,2.454-2.633,4.278-2.633c0.742,0,1.459,0.17,2.129,0.501
	C11.021,18.677,11.98,21.54,10.805,23.885z M29.958,25.526l1.328-2.645l4.516,3.896L29.958,25.526z"/>
</svg>
