<?xml version="1.0" encoding="iso-8859-1"?>
<!-- Generator: Adobe Illustrator 16.0.4, SVG Export Plug-In . SVG Version: 6.00 Build 0)  -->
<!DOCTYPE svg PUBLIC "-//W3C//DTD SVG 1.1//EN" "http://www.w3.org/Graphics/SVG/1.1/DTD/svg11.dtd">
<svg version="1.1" id="Layer_1" xmlns="http://www.w3.org/2000/svg" xmlns:xlink="http://www.w3.org/1999/xlink" x="0px" y="0px"
	 width="51.02px" height="50.979px" viewBox="0 0 51.02 50.979" style="enable-background:new 0 0 51.02 50.979;"
	 xml:space="preserve">
<g>
	<path d="M46.386,4.63c-6.18-6.174-16.232-6.174-22.413,0c-6.175,6.174-6.175,16.222,0.003,22.391
		c6.177,6.174,16.229,6.174,22.409,0C52.564,20.852,52.564,10.805,46.386,4.63z M42.939,23.581c-4.277,4.271-11.239,4.271-15.52,0
		c-4.277-4.277-4.277-11.233,0-15.508c4.278-4.274,11.24-4.274,15.52,0C47.219,12.348,47.219,19.304,42.939,23.581z"/>
	<path d="M22.085,28.912c-0.951-0.951-1.357-2.086-2.311-1.137L0.611,46.474c-0.95,0.95-0.725,2.717,0.229,3.668
		c0.952,0.95,2.721,1.179,3.672,0.229l18.711-19.148C24.173,30.27,23.037,29.863,22.085,28.912z"/>
</g>
</svg>
