<?xml version="1.0" encoding="iso-8859-1"?>
<!-- Generator: Adobe Illustrator 16.0.4, SVG Export Plug-In . SVG Version: 6.00 Build 0)  -->
<!DOCTYPE svg PUBLIC "-//W3C//DTD SVG 1.1//EN" "http://www.w3.org/Graphics/SVG/1.1/DTD/svg11.dtd">
<svg version="1.1" id="Layer_1" xmlns="http://www.w3.org/2000/svg" xmlns:xlink="http://www.w3.org/1999/xlink" x="0px" y="0px"
	 width="87.089px" height="35.053px" viewBox="0 0 87.089 35.053" style="enable-background:new 0 0 87.089 35.053;"
	 xml:space="preserve">
<path d="M87.08,3.356c-9.268,4.258-12.504,11.117-12.504,11.117l-0.35,0.859c-2.27-0.54-5.016-1.15-8.141-1.754
	C65.067,13.38,64,13.18,62.904,12.986c-1.244-0.219-2.537-0.437-3.873-0.647c-1.512-0.235-3.078-0.463-4.693-0.677
	c-2.299-0.301-4.701-0.576-7.176-0.806C44.826,5.939,44.826,0,44.826,0c-6.07,4.43-8.048,8.103-8.684,10.199
	C24.345,9.892,11.664,10.928,0,14.662c0,0,9.605,8.923,24.333,12.11c0.491,0.104,0.994,0.197,1.511,0.279
	c0.523,1.912,1.762,4.104,4.335,6.328c0,0-1.051-2.781-0.317-5.921c0.292,0.022,0.583,0.031,0.88,0.04
	c0.303,2.146,1.686,5.508,7.035,7.553c-0.149-0.179-2.869-3.477-1.979-7.588c7.167-0.32,15.165-1.672,22.189-3.207
	c1.063,1.071,2.382,2.131,4.021,3.151c-0.041-0.07-0.635-1.638-1.004-3.833c1.568-0.368,3.076-0.741,4.482-1.102
	c0.508,0.369,1.057,0.742,1.645,1.11c-0.021-0.04-0.224-0.565-0.461-1.416c3.463-0.92,6.287-1.76,8.084-2.353
	c8.613,9.334,10.513,7.438,10.513,7.438C78.033,18.694,87.404,3.1,87.08,3.356z"/>
</svg>
