<?xml version="1.0" encoding="iso-8859-1"?>
<!-- Generator: Adobe Illustrator 16.0.4, SVG Export Plug-In . SVG Version: 6.00 Build 0)  -->
<!DOCTYPE svg PUBLIC "-//W3C//DTD SVG 1.1//EN" "http://www.w3.org/Graphics/SVG/1.1/DTD/svg11.dtd">
<svg version="1.1" id="Layer_1" xmlns="http://www.w3.org/2000/svg" xmlns:xlink="http://www.w3.org/1999/xlink" x="0px" y="0px"
	 width="44.279px" height="45.96px" viewBox="0 0 44.279 45.96" style="enable-background:new 0 0 44.279 45.96;"
	 xml:space="preserve">
<path d="M43.769,2.152c0-1.187-0.96-2.152-2.141-2.152H2.653C1.469,0,0.508,0.966,0.508,2.152L0,43.808
	c0,1.188,0.955,2.152,2.14,2.152h40c1.183,0,2.139-0.967,2.139-2.152L43.769,2.152z M32.142,9.149
	C31.5,18.63,27.205,25.736,21.835,25.736S12.17,18.63,11.527,9.149c-0.741-0.432-1.237-1.236-1.237-2.157
	c0-1.382,1.112-2.5,2.487-2.5c1.372,0,2.484,1.118,2.484,2.5c0,0.846-0.42,1.595-1.06,2.044c0.581,8.471,4.217,14.004,7.633,14.004
	c3.417,0,7.054-5.534,7.633-14.004c-0.639-0.449-1.06-1.198-1.06-2.044c0-1.382,1.112-2.5,2.484-2.5c1.375,0,2.487,1.118,2.487,2.5
	C33.381,7.914,32.885,8.717,32.142,9.149z"/>
</svg>
