<?xml version="1.0" encoding="iso-8859-1"?>
<!-- Generator: Adobe Illustrator 16.0.4, SVG Export Plug-In . SVG Version: 6.00 Build 0)  -->
<!DOCTYPE svg PUBLIC "-//W3C//DTD SVG 1.1//EN" "http://www.w3.org/Graphics/SVG/1.1/DTD/svg11.dtd">
<svg version="1.1" id="Layer_1" xmlns="http://www.w3.org/2000/svg" xmlns:xlink="http://www.w3.org/1999/xlink" x="0px" y="0px"
	 width="68.16px" height="36.029px" viewBox="0 0 68.16 36.029" style="enable-background:new 0 0 68.16 36.029;"
	 xml:space="preserve">
<path d="M61.067,7.654c0.048-0.026,0.095-0.051,0.14-0.082c0.028-0.02,0.057-0.035,0.082-0.056c0.01-0.008,0.021-0.013,0.03-0.02
	l6.339-5.106c0.577-0.467,0.67-1.311,0.206-1.89c-0.463-0.578-1.307-0.669-1.882-0.206l-6.207,5L8.967,28.144l-7.85,1.321
	c-0.73,0.122-1.221,0.814-1.099,1.544c0.11,0.656,0.677,1.122,1.319,1.122c0.072,0,0.147-0.007,0.223-0.019l8.02-1.351
	c0.008-0.003,0.017-0.008,0.025-0.01c0.041-0.007,0.081-0.021,0.122-0.033c0.051-0.014,0.101-0.027,0.149-0.049
	c0.009-0.002,0.02-0.004,0.03-0.009l1.521-0.684c-0.282,1.035-0.222,2.167,0.249,3.219c0.77,1.72,2.481,2.832,4.362,2.832
	c0.677,0,1.334-0.144,1.956-0.421c2.403-1.082,3.483-3.923,2.403-6.333c-0.461-1.03-1.262-1.84-2.234-2.324l36.079-16.225
	c-0.293,1.066-0.207,2.192,0.252,3.216c0.768,1.72,2.48,2.832,4.361,2.832c0.676,0,1.333-0.141,1.953-0.418
	c2.404-1.082,3.484-3.923,2.406-6.336c-0.461-1.03-1.262-1.837-2.233-2.324l0.049-0.021C61.042,7.668,61.053,7.658,61.067,7.654z
	 M16.896,33.159c-0.273,0.122-0.562,0.185-0.858,0.185c-0.828,0-1.582-0.488-1.919-1.244c-0.475-1.061,0-2.311,1.057-2.788
	c0.273-0.122,0.562-0.184,0.857-0.184c0.828,0,1.583,0.487,1.922,1.245C18.429,31.434,17.954,32.684,16.896,33.159z M59.712,13.903
	c-0.273,0.124-0.562,0.185-0.858,0.185c-0.829,0-1.582-0.488-1.92-1.245c-0.229-0.513-0.246-1.086-0.046-1.612
	c0.201-0.526,0.592-0.943,1.104-1.173c0.274-0.122,0.562-0.186,0.859-0.186c0.827,0,1.582,0.489,1.92,1.245
	C61.246,12.177,60.77,13.427,59.712,13.903z"/>
</svg>
