<?xml version="1.0" encoding="iso-8859-1"?>
<!-- Generator: Adobe Illustrator 16.0.4, SVG Export Plug-In . SVG Version: 6.00 Build 0)  -->
<!DOCTYPE svg PUBLIC "-//W3C//DTD SVG 1.1//EN" "http://www.w3.org/Graphics/SVG/1.1/DTD/svg11.dtd">
<svg version="1.1" id="Layer_1" xmlns="http://www.w3.org/2000/svg" xmlns:xlink="http://www.w3.org/1999/xlink" x="0px" y="0px"
	 width="59.475px" height="45.963px" viewBox="0 0 59.475 45.963" style="enable-background:new 0 0 59.475 45.963;"
	 xml:space="preserve">
<path d="M59.449,41.312c-0.184-1.225-1.329-2.061-2.555-1.877c-0.453,0.067-0.906,0.135-1.355,0.196l-0.399-4.913h0.677
	c1.024,0,1.729-0.769,1.644-1.755c-0.008-0.056-0.013-0.112-0.026-0.168l-0.665-3.634c-0.191-1.057-0.912-2.18-1.598-2.493
	l-0.008-0.01c-0.271-0.124-0.8-0.368-1.348-0.613c-0.282-0.129-0.573-0.26-0.835-0.38c-0.517-0.234-0.913-0.417-0.913-0.417
	c-0.008,0-0.008-0.005-0.013-0.005c-0.557-0.25-1.149-0.524-1.778-0.807c-4.013-1.812-9.372-4.239-14.184-6.394
	c-1.298-0.583-2.559-1.148-3.745-1.675c-2.84-1.263-5.224-2.312-6.638-2.908V2.722C25.71,1.218,24.484,0,22.98,0l-7.509,0.682
	c-1.504,0-2.729,1.223-2.729,2.723v1.361h-6.14c-1.509,0-2.729,1.223-2.729,2.722v24.508c0,1.41,1.071,2.571,2.451,2.71l0.021,0.054
	l-1.979,4.935c-0.594-0.08-1.189-0.172-1.787-0.26c-1.227-0.184-2.37,0.653-2.555,1.877c-0.187,1.223,0.657,2.365,1.882,2.549
	c9.233,1.4,18.529,2.104,27.83,2.104c9.302,0,18.599-0.703,27.83-2.104C58.794,43.677,59.638,42.534,59.449,41.312z M30.716,20.389
	c0.328-0.717,1.177-1.036,1.894-0.703c0.72,0.328,1.038,1.171,0.706,1.888c-0.329,0.719-1.177,1.035-1.895,0.705
	C30.704,21.952,30.385,21.106,30.716,20.389z M26.435,18.436c0.328-0.715,1.174-1.029,1.895-0.703
	c0.719,0.328,1.035,1.176,0.709,1.891c-0.329,0.717-1.183,1.036-1.899,0.703C26.421,20,26.106,19.152,26.435,18.436z M22.152,16.486
	c0.329-0.717,1.177-1.036,1.898-0.705c0.719,0.328,1.033,1.173,0.706,1.89c-0.329,0.717-1.176,1.033-1.9,0.708
	C22.139,18.049,21.825,17.201,22.152,16.486z M19.639,10.655c0.789,0,1.432,0.64,1.432,1.427c0,0.79-0.644,1.424-1.432,1.424
	c-0.791,0-1.433-0.635-1.433-1.424C18.207,11.294,18.849,10.655,19.639,10.655z M13.292,40.733l0.044-0.207l1.318-5.809H32.03
	l1.819,5.809l0.282,0.904C27.184,41.599,20.226,41.369,13.292,40.733z M37.597,23.528c-0.327,0.717-1.176,1.033-1.894,0.703
	c-0.718-0.328-1.036-1.174-0.709-1.892c0.333-0.714,1.181-1.033,1.899-0.703C37.611,21.966,37.926,22.812,37.597,23.528z
	 M48.299,40.524c-2.519,0.262-5.035,0.475-7.561,0.623l0.203-0.623l1.895-5.808h4.88l0.381,0.511l2.676,5.025
	C49.946,40.353,49.126,40.44,48.299,40.524z"/>
</svg>
