<?xml version="1.0" encoding="iso-8859-1"?>
<!-- Generator: Adobe Illustrator 16.0.4, SVG Export Plug-In . SVG Version: 6.00 Build 0)  -->
<!DOCTYPE svg PUBLIC "-//W3C//DTD SVG 1.1//EN" "http://www.w3.org/Graphics/SVG/1.1/DTD/svg11.dtd">
<svg version="1.1" id="Layer_1" xmlns="http://www.w3.org/2000/svg" xmlns:xlink="http://www.w3.org/1999/xlink" x="0px" y="0px"
	 width="62.676px" height="60.906px" viewBox="0 0 62.676 60.906" style="enable-background:new 0 0 62.676 60.906;"
	 xml:space="preserve">
<g>
	<path style="fill:#231F20;" d="M5.509,52.623h-1.44c0-0.04,0.01-0.09,0.01-0.141V13.263c0.22-0.25,0.35-0.57,0.35-0.93v-6.69
		c0-0.38-0.16-0.74-0.41-0.99c-0.26-0.26-0.61-0.41-1-0.41c-0.78,0-1.41,0.63-1.41,1.4v6.69c0,0.35,0.14,0.68,0.35,0.93v39.219
		c0,0.051,0.01,0.101,0.01,0.141h-1.44c-0.29,0-0.53,0.238-0.53,0.529s0.24,0.521,0.53,0.521h1.96v2.99c0,0.29,0.24,0.53,0.53,0.53
		s0.53-0.24,0.53-0.53v-2.99h1.96c0.29,0,0.53-0.229,0.53-0.521C6.039,52.863,5.798,52.623,5.509,52.623z"/>
	<path style="fill:#231F20;" d="M45.93,55.111c-0.011-0.049-0.041-0.1-0.061-0.149l-0.07-0.16l-0.13-0.26l-8.96-19.04l-3.891,8.271
		l6.539,13.879l0.142,0.301c0.019,0.04,0.049,0.08,0.069,0.12c0.949,1.75,2.521,2.829,3.961,2.829c0.4,0,0.77-0.079,1.13-0.239
		c1.67-0.781,2.198-3.19,1.29-5.511C45.938,55.143,45.928,55.123,45.93,55.111z"/>
	<path style="fill:#231F20;" d="M29.858,20.942l-8.21-17.43c-0.01-0.03-0.03-0.05-0.05-0.08c-0.03-0.09-0.07-0.17-0.1-0.25
		c-0.92-1.95-2.61-3.18-4.14-3.18c-0.39,0-0.77,0.08-1.13,0.25c-1.77,0.82-2.26,3.47-1.11,5.91c0.04,0.09,0.09,0.19,0.14,0.28
		c0,0.02,0.01,0.04,0.02,0.06l10.69,22.71L29.858,20.942z"/>
	<path style="fill:#231F20;" d="M62.146,52.623h-1.438v-39.36c0.22-0.25,0.36-0.57,0.36-0.93v-6.69c0-0.38-0.16-0.74-0.41-0.99
		c-0.262-0.26-0.61-0.41-1-0.41c-0.78,0-1.41,0.63-1.41,1.4v6.69c0,0.35,0.13,0.68,0.35,0.93v39.219c0,0.051,0.01,0.101,0.01,0.141
		h-1.438c-0.29,0-0.53,0.238-0.53,0.529s0.24,0.521,0.53,0.521h1.96v2.99c0,0.29,0.24,0.53,0.53,0.53s0.528-0.24,0.528-0.53v-2.99
		h1.961c0.289,0,0.529-0.229,0.529-0.521C62.678,52.863,62.438,52.623,62.146,52.623z"/>
	<path style="fill:#231F20;" d="M46.449,0.254c-0.36-0.17-0.73-0.25-1.12-0.25c-1.54,0-3.231,1.23-4.142,3.18
		c-0.039,0.08-0.08,0.16-0.108,0.25c-0.021,0.03-0.03,0.05-0.05,0.09l-8.211,17.42l-0.739,1.58l-0.74,1.57l-3.89,8.271l-0.74,1.569
		l-0.74,1.569l-8.96,19.04l-0.12,0.26l-0.08,0.16c-0.02,0.049-0.05,0.1-0.06,0.15c0,0.01-0.01,0.029-0.02,0.05
		c-0.9,2.31-0.37,4.72,1.29,5.5c0.35,0.16,0.74,0.239,1.13,0.239c1.44,0,3.01-1.079,3.96-2.829c0.03-0.04,0.05-0.08,0.07-0.12
		l0.14-0.301l6.54-13.879l0.74-1.58l0.74-1.58l3.89-8.25l0.74-1.58l0.74-1.57l10.689-22.71c0.01-0.02,0.02-0.04,0.029-0.06
		c0.04-0.1,0.09-0.19,0.131-0.28C48.708,3.723,48.218,1.073,46.449,0.254z"/>
</g>
</svg>
