<?xml version="1.0" encoding="iso-8859-1"?>
<!-- Generator: Adobe Illustrator 16.0.4, SVG Export Plug-In . SVG Version: 6.00 Build 0)  -->
<!DOCTYPE svg PUBLIC "-//W3C//DTD SVG 1.1//EN" "http://www.w3.org/Graphics/SVG/1.1/DTD/svg11.dtd">
<svg version="1.1" id="Layer_1" xmlns="http://www.w3.org/2000/svg" xmlns:xlink="http://www.w3.org/1999/xlink" x="0px" y="0px"
	 width="25.885px" height="44.822px" viewBox="0 0 25.885 44.822" style="enable-background:new 0 0 25.885 44.822;"
	 xml:space="preserve">
<path d="M24.468,0H1.421C0.639,0,0,0.635,0,1.425v41.973c0,0.789,0.639,1.425,1.421,1.425h23.047c0.781,0,1.417-0.636,1.417-1.425
	V1.425C25.885,0.635,25.25,0,24.468,0z M12.944,42.104c-0.707,0-1.283-0.576-1.283-1.285c0-0.707,0.577-1.279,1.283-1.279
	c0.706,0,1.284,0.572,1.284,1.279C14.228,41.528,13.651,42.104,12.944,42.104z M22.694,35.717c0,0.784-0.637,1.425-1.422,1.425
	H4.617c-0.782,0-1.42-0.641-1.42-1.425V4.945c0-0.786,0.639-1.422,1.42-1.422h16.655c0.785,0,1.422,0.635,1.422,1.422V35.717z"/>
</svg>
