<?xml version="1.0" encoding="iso-8859-1"?>
<!-- Generator: Adobe Illustrator 16.0.4, SVG Export Plug-In . SVG Version: 6.00 Build 0)  -->
<!DOCTYPE svg PUBLIC "-//W3C//DTD SVG 1.1//EN" "http://www.w3.org/Graphics/SVG/1.1/DTD/svg11.dtd">
<svg version="1.1" id="Layer_1" xmlns="http://www.w3.org/2000/svg" xmlns:xlink="http://www.w3.org/1999/xlink" x="0px" y="0px"
	 width="61.52px" height="18.955px" viewBox="0 0 61.52 18.955" style="enable-background:new 0 0 61.52 18.955;"
	 xml:space="preserve">
<g>
	<path d="M59.51,14.91h-8.729L61.01,3.368c0.024-0.028,0.046-0.054,0.068-0.082c0.029-0.038,0.062-0.08,0.093-0.125
		c0.005-0.005,0.009-0.01,0.009-0.019c0.035-0.049,0.067-0.103,0.093-0.157c0.05-0.09,0.089-0.179,0.121-0.273
		c0.023-0.04,0.037-0.087,0.046-0.132c0.025-0.084,0.043-0.164,0.058-0.249c0.004-0.043,0.01-0.087,0.014-0.127
		c0.013-0.132,0.008-0.261,0-0.388c-0.014-0.134-0.045-0.268-0.08-0.395c-0.024-0.061-0.045-0.124-0.071-0.183
		c-0.023-0.063-0.054-0.122-0.086-0.176c-0.017-0.04-0.039-0.08-0.065-0.115c-0.018-0.033-0.036-0.059-0.059-0.087
		c-0.049-0.075-0.106-0.146-0.174-0.214c-0.026-0.037-0.059-0.068-0.094-0.096c-0.01-0.011-0.023-0.02-0.036-0.035
		c-0.101-0.089-0.209-0.169-0.321-0.233c-0.049-0.028-0.095-0.053-0.144-0.077c-0.048-0.026-0.097-0.045-0.147-0.066
		c-0.018-0.005-0.04-0.014-0.058-0.024c-0.041-0.014-0.082-0.026-0.122-0.035c-0.013-0.005-0.025-0.01-0.035-0.01
		c-0.049-0.014-0.098-0.028-0.146-0.035c-0.011,0-0.02,0-0.032-0.005c-0.05-0.01-0.103-0.014-0.153-0.02
		c-0.056-0.005-0.119-0.01-0.177-0.01H46.296c-1.108,0-2.01,0.902-2.01,2.021c0,1.113,0.901,2.023,2.01,2.023h8.729L44.795,15.591
		c-0.073,0.08-0.14,0.167-0.193,0.256c-0.024,0.041-0.049,0.075-0.071,0.12c-0.005,0.005,0,0.009,0,0.009
		c-0.03,0.045-0.053,0.094-0.07,0.146c-0.022,0.042-0.039,0.084-0.052,0.129c-0.02,0.044-0.037,0.089-0.048,0.139
		c-0.021,0.077-0.038,0.152-0.049,0.232c-0.008,0.042-0.012,0.087-0.016,0.127c-0.009,0.134-0.009,0.266,0,0.391
		c0.013,0.139,0.043,0.27,0.08,0.395c0.021,0.062,0.045,0.126,0.07,0.185c0.023,0.064,0.055,0.12,0.086,0.179
		c0.018,0.039,0.039,0.068,0.059,0.1c0.018,0.038,0.039,0.068,0.066,0.102c0.086,0.123,0.188,0.241,0.304,0.344
		c0.201,0.184,0.429,0.312,0.67,0.399c0.04,0.015,0.08,0.026,0.12,0.036c0.014,0.004,0.026,0.01,0.036,0.01
		c0.049,0.012,0.098,0.025,0.146,0.034c0.01,0,0.02,0,0.033,0.005c0.048,0.01,0.102,0.014,0.151,0.02
		c0.057,0.004,0.119,0.009,0.179,0.009H59.51c1.108,0,2.01-0.905,2.01-2.022C61.52,15.817,60.618,14.91,59.51,14.91z"/>
	<path d="M37.362,14.91h-8.729l10.23-11.54c0.023-0.028,0.046-0.054,0.067-0.082c0.032-0.038,0.063-0.08,0.095-0.125
		c0.175-0.256,0.282-0.538,0.326-0.83c0.003-0.043,0.008-0.087,0.014-0.127c0.013-0.132,0.013-0.261,0-0.388
		c-0.014-0.134-0.04-0.268-0.081-0.395c-0.05-0.158-0.116-0.306-0.201-0.444c-0.021-0.04-0.05-0.08-0.08-0.118
		c-0.024-0.045-0.054-0.085-0.095-0.125c-0.04-0.05-0.081-0.095-0.125-0.139c-0.023-0.028-0.055-0.054-0.081-0.083
		c-0.022-0.018-0.04-0.035-0.062-0.049c-0.049-0.04-0.098-0.08-0.146-0.113c-0.04-0.031-0.08-0.054-0.12-0.075
		c-0.045-0.029-0.09-0.054-0.135-0.073c-0.044-0.021-0.085-0.04-0.126-0.059c-0.033-0.012-0.073-0.026-0.114-0.04
		c-0.107-0.035-0.214-0.063-0.327-0.075c-0.04-0.01-0.084-0.014-0.125-0.02c-0.062-0.005-0.125-0.01-0.185-0.01H24.153
		c-1.107,0-2.01,0.902-2.01,2.021c0,1.113,0.902,2.023,2.01,2.023h8.729l-10.23,11.548c-0.09,0.104-0.17,0.211-0.232,0.324
		c-0.026,0.045-0.055,0.094-0.076,0.141c-0.026,0.051-0.044,0.102-0.066,0.15c-0.004,0.016-0.014,0.035-0.021,0.057
		c-0.014,0.041-0.027,0.082-0.036,0.121c-0.022,0.077-0.04,0.152-0.049,0.23c-0.008,0.044-0.016,0.094-0.019,0.138
		c-0.014,0.13-0.009,0.261,0,0.386c0.014,0.137,0.04,0.271,0.08,0.396c0.023,0.071,0.051,0.146,0.081,0.211
		c0.026,0.063,0.059,0.131,0.095,0.19c0.03,0.056,0.065,0.112,0.105,0.162c0.085,0.123,0.188,0.241,0.305,0.344
		c0.026,0.021,0.054,0.045,0.08,0.066c0.041,0.032,0.081,0.063,0.125,0.094c0.25,0.172,0.527,0.279,0.813,0.324
		c0.046,0.01,0.094,0.014,0.138,0.02c0.06,0.004,0.122,0.009,0.179,0.009h13.209c1.113,0,2.012-0.905,2.012-2.022
		C39.373,15.817,38.475,14.91,37.362,14.91z"/>
	<path d="M15.22,14.91H6.491L16.721,3.369c0.022-0.028,0.045-0.054,0.067-0.082c0.03-0.038,0.062-0.08,0.092-0.125
		c0.176-0.256,0.283-0.538,0.328-0.83c0.005-0.043,0.01-0.087,0.013-0.127c0.013-0.132,0.013-0.261,0-0.388
		c-0.013-0.134-0.04-0.268-0.08-0.395c-0.049-0.158-0.117-0.306-0.201-0.444c-0.021-0.04-0.05-0.08-0.08-0.118
		c-0.022-0.045-0.054-0.085-0.094-0.125c-0.041-0.05-0.082-0.095-0.126-0.139c-0.021-0.028-0.055-0.054-0.08-0.083
		c-0.022-0.018-0.039-0.035-0.062-0.049c-0.05-0.04-0.099-0.08-0.147-0.113c-0.005-0.007-0.015-0.007-0.019-0.014
		c-0.049-0.035-0.103-0.061-0.156-0.094c-0.054-0.026-0.108-0.052-0.165-0.08c-0.009-0.005-0.014-0.01-0.023-0.01
		c-0.044-0.016-0.089-0.035-0.134-0.049c-0.105-0.035-0.214-0.063-0.326-0.075c-0.04-0.01-0.084-0.014-0.125-0.019
		C15.34,0,15.282,0,15.22,0H2.011C0.902,0,0,0.903,0,2.021c0,1.114,0.901,2.024,2.011,2.024h8.728L0.509,15.59
		c-0.071,0.08-0.134,0.167-0.192,0.257c-0.026,0.039-0.049,0.074-0.07,0.119c0,0-0.005,0.004,0,0.01
		c-0.027,0.039-0.05,0.084-0.068,0.131c-0.022,0.041-0.035,0.08-0.049,0.121c-0.022,0.054-0.039,0.107-0.052,0.162
		c-0.023,0.077-0.041,0.147-0.051,0.226c-0.009,0.044-0.014,0.094-0.018,0.138c-0.014,0.13-0.01,0.262,0,0.387
		c0.013,0.139,0.045,0.27,0.081,0.395c0.021,0.062,0.045,0.126,0.071,0.185c0.022,0.064,0.054,0.12,0.086,0.179
		c0.017,0.039,0.035,0.068,0.057,0.1c0.017,0.038,0.041,0.068,0.067,0.102c0.084,0.123,0.187,0.241,0.304,0.344
		c0.2,0.184,0.427,0.312,0.669,0.399c0.039,0.015,0.08,0.026,0.12,0.036c0.014,0.004,0.028,0.01,0.037,0.01
		c0.049,0.012,0.098,0.025,0.146,0.034c0.011,0,0.019,0,0.032,0.005c0.049,0.01,0.104,0.014,0.152,0.02
		c0.059,0.004,0.121,0.009,0.179,0.009H15.22c1.112,0,2.01-0.905,2.01-2.022C17.23,15.817,16.332,14.91,15.22,14.91z"/>
</g>
</svg>
