<?xml version="1.0" encoding="iso-8859-1"?>
<!-- Generator: Adobe Illustrator 16.0.4, SVG Export Plug-In . SVG Version: 6.00 Build 0)  -->
<!DOCTYPE svg PUBLIC "-//W3C//DTD SVG 1.1//EN" "http://www.w3.org/Graphics/SVG/1.1/DTD/svg11.dtd">
<svg version="1.1" id="Layer_1" xmlns="http://www.w3.org/2000/svg" xmlns:xlink="http://www.w3.org/1999/xlink" x="0px" y="0px"
	 width="54.055px" height="54.012px" viewBox="0 0 54.055 54.012" style="enable-background:new 0 0 54.055 54.012;"
	 xml:space="preserve">
<path d="M53.9,27.625c0.02-0.04,0.042-0.077,0.059-0.119c0.016-0.04,0.027-0.082,0.04-0.124c0.012-0.042,0.026-0.082,0.034-0.121
	c0.008-0.044,0.01-0.086,0.015-0.131c0.003-0.042,0.008-0.084,0.008-0.126s-0.005-0.084-0.008-0.126
	c-0.005-0.044-0.007-0.086-0.015-0.128c-0.008-0.042-0.022-0.082-0.034-0.124c-0.013-0.042-0.024-0.084-0.041-0.124
	c-0.015-0.042-0.037-0.08-0.058-0.117c-0.02-0.04-0.039-0.079-0.063-0.117c-0.025-0.038-0.055-0.07-0.084-0.107
	c-0.024-0.028-0.042-0.058-0.069-0.086c-0.004-0.005-0.013-0.009-0.019-0.014c-0.006-0.007-0.009-0.014-0.015-0.021l-5.093-4.901
	c-0.023-0.023-0.05-0.04-0.076-0.061c-0.039-0.033-0.078-0.065-0.12-0.095c-0.037-0.023-0.075-0.04-0.113-0.061
	c-0.04-0.021-0.077-0.042-0.119-0.058c-0.043-0.019-0.087-0.028-0.132-0.042c-0.04-0.009-0.077-0.026-0.119-0.033
	c-0.052-0.012-0.106-0.012-0.161-0.017c-0.03-0.002-0.058-0.009-0.087-0.009c-0.005,0-0.009,0.002-0.013,0.002
	c-0.062,0-0.124,0.009-0.184,0.019c-0.026,0.002-0.053,0.002-0.078,0.009c-0.057,0.012-0.114,0.032-0.167,0.051
	c-0.028,0.01-0.056,0.014-0.082,0.026c-0.04,0.016-0.076,0.042-0.113,0.061c-0.038,0.023-0.078,0.04-0.114,0.063
	c-0.027,0.019-0.05,0.042-0.076,0.062c-0.043,0.035-0.089,0.068-0.127,0.107c-0.003,0.002-0.007,0.004-0.01,0.009
	c-0.022,0.023-0.039,0.051-0.058,0.075c-0.034,0.04-0.068,0.079-0.096,0.121c-0.024,0.038-0.042,0.075-0.062,0.112
	c-0.021,0.04-0.043,0.079-0.059,0.119c-0.019,0.044-0.029,0.089-0.042,0.133c-0.011,0.04-0.025,0.077-0.033,0.119
	c-0.011,0.051-0.012,0.105-0.016,0.159c-0.002,0.03-0.01,0.061-0.01,0.091v3.564h-1.472v-3.564c0-0.03-0.007-0.061-0.008-0.088
	c-0.004-0.056-0.007-0.11-0.017-0.163c-0.007-0.04-0.021-0.08-0.031-0.117c-0.014-0.044-0.025-0.091-0.042-0.133
	c-0.016-0.04-0.038-0.079-0.06-0.119c-0.02-0.038-0.037-0.075-0.061-0.112c-0.029-0.044-0.064-0.084-0.099-0.125
	c-0.02-0.023-0.035-0.049-0.056-0.07c-0.002-0.005-0.006-0.005-0.009-0.007c-0.041-0.044-0.089-0.08-0.134-0.114
	c-0.023-0.019-0.044-0.042-0.069-0.058c-0.036-0.024-0.077-0.042-0.117-0.063c-0.037-0.021-0.072-0.044-0.111-0.061
	c-0.022-0.009-0.047-0.014-0.069-0.021c-0.059-0.023-0.119-0.044-0.181-0.058c-0.022-0.005-0.045-0.002-0.069-0.007
	c-0.064-0.009-0.128-0.019-0.194-0.019c-0.003,0-0.007-0.002-0.011-0.002c-0.028,0-0.055,0.006-0.082,0.009
	c-0.057,0.003-0.113,0.005-0.169,0.017c-0.04,0.007-0.076,0.021-0.116,0.033c-0.044,0.012-0.09,0.023-0.134,0.042
	c-0.041,0.016-0.079,0.038-0.119,0.058c-0.037,0.021-0.076,0.038-0.111,0.061c-0.045,0.03-0.085,0.065-0.127,0.1
	c-0.022,0.019-0.049,0.032-0.071,0.056l-4.293,4.133c-0.016-0.105-0.036-0.21-0.056-0.315c-0.01-0.049-0.018-0.1-0.027-0.149
	c-0.024-0.13-0.053-0.259-0.084-0.387c-0.011-0.052-0.023-0.103-0.035-0.156c-0.031-0.122-0.065-0.243-0.099-0.362
	c-0.017-0.058-0.033-0.119-0.05-0.177c-0.009-0.033-0.019-0.065-0.027-0.096c-0.025-0.079-0.054-0.156-0.08-0.233
	c-0.022-0.07-0.045-0.138-0.068-0.206c-0.036-0.1-0.074-0.196-0.112-0.294c-0.029-0.077-0.06-0.156-0.093-0.233
	c-0.035-0.086-0.072-0.17-0.111-0.257c-0.037-0.086-0.077-0.172-0.117-0.259c-0.035-0.075-0.072-0.147-0.11-0.219
	c-0.047-0.096-0.094-0.189-0.143-0.282c-0.035-0.065-0.071-0.128-0.107-0.191c-0.055-0.098-0.111-0.198-0.169-0.294
	c-0.035-0.058-0.072-0.117-0.109-0.175c-0.062-0.098-0.124-0.196-0.189-0.294c-0.04-0.059-0.079-0.114-0.119-0.17
	c-0.052-0.077-0.103-0.152-0.157-0.227l5.961-0.112c0.031,0,0.061-0.007,0.092-0.009c0.052-0.005,0.106-0.009,0.157-0.019
	c0.042-0.009,0.081-0.023,0.121-0.038c0.043-0.011,0.085-0.023,0.127-0.042c0.042-0.017,0.082-0.042,0.12-0.063
	c0.038-0.021,0.073-0.037,0.109-0.061c0.044-0.031,0.084-0.065,0.125-0.103c0.022-0.019,0.048-0.035,0.071-0.056
	c0.002-0.004,0.003-0.007,0.007-0.012c0.041-0.042,0.076-0.088,0.112-0.135c0.018-0.023,0.039-0.044,0.055-0.067
	c0.027-0.044,0.047-0.091,0.07-0.136c0.016-0.032,0.036-0.062,0.05-0.095c0.012-0.031,0.018-0.063,0.027-0.096
	c0.018-0.051,0.036-0.103,0.045-0.153c0.006-0.028,0.005-0.056,0.008-0.084c0.008-0.061,0.016-0.119,0.015-0.179
	c0-0.005,0.001-0.01,0.001-0.012c-0.001-0.033-0.008-0.063-0.012-0.094c-0.004-0.051-0.007-0.104-0.018-0.156
	c-0.01-0.049-0.028-0.096-0.042-0.143c-0.012-0.033-0.02-0.067-0.034-0.1c-0.029-0.07-0.064-0.135-0.104-0.198
	c-0.006-0.007-0.009-0.017-0.014-0.026c-0.063-0.096-0.138-0.182-0.223-0.259l-2.469-2.468l1.041-1.041l2.522,2.521
	c0.022,0.023,0.048,0.037,0.073,0.059c0.04,0.035,0.078,0.07,0.123,0.1c0.035,0.023,0.071,0.042,0.109,0.061
	c0.04,0.023,0.078,0.046,0.12,0.065c0.042,0.016,0.084,0.028,0.128,0.042c0.04,0.012,0.078,0.025,0.12,0.035
	c0.052,0.009,0.106,0.014,0.159,0.019c0.031,0.002,0.06,0.011,0.091,0.011c0.008,0,0.016,0,0.024,0l0,0l0,0l0,0
	c0.005,0,0.008-0.002,0.012-0.002c0.083,0,0.167-0.007,0.249-0.023c0.043-0.009,0.084-0.026,0.126-0.037
	c0.041-0.012,0.083-0.021,0.123-0.038c0.055-0.023,0.104-0.053,0.154-0.082c0.024-0.014,0.051-0.025,0.076-0.04
	c0.074-0.049,0.141-0.105,0.203-0.166c0.001-0.002,0.003-0.002,0.006-0.005c0.018-0.019,0.031-0.04,0.048-0.058
	c0.04-0.047,0.08-0.091,0.113-0.14c0.024-0.035,0.04-0.07,0.059-0.105c0.022-0.04,0.046-0.08,0.064-0.124
	c0.017-0.04,0.029-0.082,0.042-0.126c0.011-0.04,0.027-0.08,0.036-0.122c0.01-0.051,0.014-0.102,0.017-0.154
	c0.004-0.03,0.011-0.061,0.012-0.093l0.129-7.065c0-0.01-0.002-0.017-0.002-0.023c0-0.009,0.002-0.017,0.002-0.025
	c0-0.04-0.009-0.08-0.014-0.12c-0.005-0.04-0.006-0.082-0.014-0.121c-0.013-0.065-0.033-0.126-0.054-0.187
	c-0.007-0.016-0.01-0.035-0.017-0.054c-0.186-0.464-0.617-0.795-1.146-0.823c-0.023-0.002-0.044-0.007-0.068-0.009
	c-0.009,0-0.017,0-0.026,0c-0.003,0-0.007,0.002-0.01,0.002c-0.006,0-0.009-0.002-0.014-0.002L38.1,7.648
	c-0.031,0-0.063,0.007-0.094,0.009c-0.053,0.004-0.104,0.009-0.156,0.019c-0.042,0.01-0.082,0.024-0.122,0.038
	c-0.042,0.012-0.085,0.023-0.127,0.042c-0.042,0.016-0.081,0.042-0.12,0.063c-0.038,0.021-0.075,0.037-0.109,0.061
	c-0.044,0.03-0.084,0.068-0.124,0.103c-0.023,0.019-0.049,0.035-0.071,0.056c-0.003,0.004-0.005,0.007-0.007,0.012
	c-0.042,0.04-0.077,0.088-0.112,0.135c-0.019,0.023-0.04,0.044-0.055,0.07c-0.027,0.04-0.048,0.086-0.07,0.131
	c-0.017,0.032-0.038,0.065-0.051,0.098c-0.012,0.03-0.018,0.062-0.028,0.095c-0.016,0.051-0.035,0.103-0.044,0.154
	c-0.006,0.028-0.005,0.058-0.008,0.086c-0.007,0.059-0.015,0.119-0.015,0.177c0,0.005-0.001,0.009-0.001,0.012
	c0.001,0.035,0.01,0.065,0.012,0.098c0.005,0.049,0.008,0.1,0.018,0.151c0.01,0.042,0.024,0.084,0.037,0.126
	c0.014,0.04,0.023,0.082,0.041,0.122c0.019,0.044,0.042,0.086,0.067,0.125c0.02,0.035,0.035,0.07,0.056,0.101
	c0.035,0.054,0.076,0.1,0.118,0.145c0.016,0.019,0.028,0.038,0.044,0.054l2.524,2.521l-1.042,1.041l-2.523-2.521
	c-0.022-0.021-0.048-0.038-0.071-0.059c-0.041-0.035-0.079-0.07-0.124-0.1c-0.035-0.023-0.072-0.042-0.108-0.061
	c-0.04-0.021-0.078-0.047-0.12-0.063c-0.041-0.019-0.085-0.031-0.128-0.044c-0.04-0.012-0.079-0.026-0.12-0.035
	c-0.051-0.012-0.104-0.014-0.156-0.019c-0.031-0.002-0.061-0.009-0.094-0.012c-0.008,0-0.016,0-0.025,0
	c-0.008,0-0.018,0.002-0.026,0.002c-0.078,0.002-0.156,0.009-0.233,0.023c-0.046,0.012-0.089,0.028-0.133,0.04
	c-0.039,0.014-0.077,0.021-0.116,0.035c-0.057,0.023-0.108,0.056-0.161,0.086c-0.023,0.012-0.047,0.021-0.069,0.035
	c-0.072,0.049-0.141,0.105-0.202,0.168c-0.004,0-0.005,0.002-0.005,0.002c-0.018,0.019-0.03,0.037-0.045,0.056
	c-0.042,0.047-0.083,0.091-0.117,0.143c-0.023,0.033-0.039,0.067-0.057,0.103c-0.025,0.042-0.048,0.082-0.068,0.126
	c-0.016,0.04-0.027,0.082-0.039,0.124c-0.013,0.042-0.028,0.082-0.036,0.124c-0.012,0.051-0.014,0.103-0.019,0.154
	c-0.002,0.03-0.01,0.061-0.01,0.093l-0.111,5.958c-0.076-0.056-0.153-0.107-0.229-0.161c-0.056-0.038-0.111-0.077-0.167-0.115
	c-0.098-0.067-0.197-0.128-0.298-0.191c-0.057-0.035-0.115-0.073-0.173-0.107c-0.024-0.017-0.05-0.033-0.076-0.047
	c-0.071-0.044-0.146-0.082-0.22-0.123c-0.063-0.036-0.125-0.07-0.189-0.105c-0.095-0.051-0.19-0.1-0.287-0.147
	c-0.071-0.037-0.141-0.072-0.214-0.107c-0.09-0.042-0.179-0.079-0.27-0.121c-0.082-0.035-0.162-0.072-0.245-0.105
	c-0.082-0.035-0.162-0.065-0.245-0.098c-0.093-0.035-0.187-0.072-0.281-0.104c-0.073-0.026-0.146-0.049-0.219-0.075
	c-0.105-0.035-0.209-0.067-0.314-0.1c-0.067-0.021-0.133-0.04-0.2-0.058c-0.112-0.03-0.225-0.061-0.34-0.091
	c-0.062-0.016-0.125-0.028-0.188-0.044c-0.117-0.026-0.233-0.054-0.353-0.075c-0.065-0.014-0.13-0.025-0.197-0.037
	c-0.092-0.017-0.184-0.035-0.278-0.049l4.137-4.29c0.022-0.023,0.036-0.046,0.056-0.07c0.035-0.042,0.071-0.082,0.1-0.128
	c0.023-0.035,0.04-0.072,0.06-0.109c0.021-0.04,0.044-0.08,0.062-0.122c0.016-0.042,0.027-0.086,0.04-0.128
	c0.011-0.042,0.024-0.079,0.032-0.119c0.01-0.054,0.013-0.11,0.016-0.164c0.002-0.03,0.008-0.058,0.008-0.088
	c0-0.004,0-0.007,0-0.012c-0.001-0.061-0.01-0.121-0.019-0.18c-0.004-0.028-0.004-0.056-0.009-0.084
	c-0.01-0.051-0.03-0.103-0.048-0.154c-0.01-0.033-0.017-0.062-0.029-0.093c-0.015-0.035-0.036-0.065-0.054-0.098
	c-0.023-0.044-0.044-0.088-0.073-0.13c-0.015-0.023-0.036-0.044-0.053-0.067c-0.037-0.047-0.075-0.093-0.117-0.136
	c-0.002-0.002-0.005-0.007-0.007-0.009c-0.022-0.021-0.048-0.035-0.071-0.056c-0.041-0.035-0.081-0.07-0.127-0.098
	c-0.035-0.026-0.073-0.042-0.111-0.061c-0.04-0.021-0.077-0.044-0.119-0.061c-0.044-0.019-0.089-0.028-0.133-0.042
	c-0.04-0.012-0.077-0.023-0.117-0.033c-0.055-0.009-0.111-0.012-0.166-0.016c-0.029,0-0.056-0.007-0.085-0.007h-3.568V7.76h3.568
	l0,0l0,0c0.088,0,0.174-0.009,0.26-0.025c0.033-0.007,0.065-0.021,0.099-0.028c0.049-0.017,0.098-0.028,0.147-0.047
	c0.037-0.016,0.072-0.037,0.11-0.056c0.04-0.021,0.079-0.04,0.118-0.065c0.041-0.026,0.078-0.061,0.117-0.091
	c0.026-0.021,0.052-0.037,0.078-0.061c0.002-0.004,0.005-0.007,0.007-0.012c0.042-0.04,0.079-0.088,0.117-0.135
	c0.017-0.023,0.039-0.042,0.053-0.067c0.028-0.04,0.049-0.086,0.073-0.131c0.018-0.03,0.039-0.063,0.054-0.096
	c0.012-0.03,0.019-0.063,0.029-0.093c0.018-0.051,0.037-0.103,0.048-0.156c0.006-0.025,0.006-0.054,0.009-0.082
	c0.009-0.061,0.017-0.119,0.019-0.182c0-0.002,0-0.007,0-0.009c0-0.03-0.006-0.061-0.008-0.091
	c-0.004-0.054-0.006-0.107-0.016-0.161c-0.008-0.042-0.021-0.079-0.032-0.119c-0.013-0.044-0.023-0.086-0.04-0.131
	c-0.018-0.042-0.041-0.082-0.062-0.119c-0.02-0.038-0.036-0.077-0.06-0.112c-0.029-0.044-0.065-0.083-0.1-0.126
	c-0.02-0.023-0.034-0.049-0.056-0.07l-4.906-5.09c-0.004-0.004-0.013-0.009-0.019-0.014c-0.006-0.007-0.01-0.014-0.015-0.019
	c-0.027-0.026-0.058-0.047-0.086-0.068c-0.036-0.03-0.071-0.061-0.109-0.086c-0.036-0.023-0.074-0.042-0.113-0.061
	c-0.038-0.023-0.078-0.044-0.12-0.061c-0.04-0.016-0.08-0.028-0.121-0.04c-0.041-0.012-0.083-0.026-0.125-0.035
	c-0.042-0.007-0.085-0.009-0.127-0.014C27.112,0.005,27.07,0,27.027,0c-0.043,0-0.084,0.005-0.127,0.009
	c-0.042,0.005-0.085,0.007-0.127,0.014c-0.042,0.009-0.083,0.023-0.125,0.035c-0.041,0.011-0.082,0.023-0.122,0.04
	s-0.079,0.038-0.119,0.061c-0.037,0.019-0.077,0.038-0.113,0.061c-0.037,0.025-0.073,0.056-0.109,0.086
	c-0.028,0.021-0.058,0.042-0.085,0.068c-0.007,0.004-0.01,0.012-0.016,0.019c-0.007,0.004-0.013,0.009-0.02,0.014l-4.906,5.09
	c-0.022,0.021-0.037,0.046-0.056,0.07c-0.034,0.042-0.07,0.082-0.099,0.126c-0.023,0.035-0.041,0.075-0.061,0.112
	c-0.02,0.037-0.043,0.077-0.061,0.119c-0.016,0.044-0.028,0.086-0.04,0.131c-0.012,0.04-0.026,0.077-0.032,0.119
	c-0.012,0.054-0.013,0.107-0.016,0.161c-0.002,0.03-0.009,0.061-0.009,0.091c0,0.002,0.001,0.007,0.001,0.009
	c0,0.063,0.009,0.122,0.018,0.182c0.005,0.028,0.005,0.056,0.01,0.082c0.01,0.054,0.03,0.105,0.048,0.156
	c0.01,0.03,0.017,0.063,0.029,0.093c0.015,0.033,0.036,0.065,0.052,0.096c0.025,0.044,0.046,0.091,0.073,0.131
	c0.016,0.025,0.039,0.044,0.055,0.067c0.038,0.047,0.074,0.096,0.116,0.135c0.003,0.005,0.005,0.007,0.008,0.012
	c0.024,0.023,0.054,0.04,0.078,0.061c0.039,0.031,0.075,0.065,0.116,0.091c0.04,0.025,0.079,0.044,0.119,0.065
	c0.036,0.019,0.071,0.04,0.11,0.056c0.048,0.019,0.097,0.03,0.147,0.047c0.034,0.007,0.065,0.021,0.099,0.028
	c0.086,0.016,0.172,0.025,0.26,0.025l0,0l0,0h3.567v1.472h-3.567c-0.029,0-0.058,0.007-0.086,0.007
	c-0.055,0.004-0.11,0.007-0.166,0.016c-0.039,0.009-0.076,0.021-0.115,0.033c-0.044,0.015-0.09,0.023-0.133,0.042
	c-0.042,0.016-0.079,0.04-0.12,0.061c-0.036,0.019-0.075,0.035-0.111,0.061c-0.044,0.028-0.085,0.063-0.126,0.098
	c-0.023,0.021-0.049,0.035-0.071,0.056c-0.004,0.002-0.005,0.007-0.008,0.009c-0.042,0.042-0.078,0.088-0.116,0.136
	c-0.016,0.023-0.039,0.044-0.055,0.067c-0.027,0.042-0.048,0.086-0.073,0.13c-0.016,0.033-0.037,0.063-0.052,0.098
	c-0.013,0.031-0.02,0.061-0.029,0.093c-0.017,0.051-0.037,0.103-0.048,0.154c-0.006,0.028-0.006,0.056-0.01,0.084
	c-0.008,0.059-0.018,0.119-0.018,0.18c0,0.005-0.001,0.007-0.001,0.012c0,0.03,0.007,0.058,0.009,0.088
	c0.003,0.054,0.005,0.11,0.016,0.164c0.007,0.04,0.021,0.077,0.032,0.119c0.012,0.042,0.023,0.086,0.04,0.128
	c0.018,0.042,0.041,0.082,0.061,0.122c0.02,0.037,0.037,0.074,0.061,0.109c0.029,0.047,0.065,0.086,0.099,0.128
	c0.019,0.023,0.034,0.046,0.056,0.07l4.138,4.29c-0.096,0.014-0.188,0.033-0.283,0.052c-0.063,0.011-0.127,0.021-0.191,0.032
	c-0.119,0.023-0.237,0.051-0.354,0.077c-0.063,0.016-0.126,0.028-0.188,0.044c-0.113,0.028-0.226,0.061-0.337,0.091
	c-0.068,0.019-0.135,0.037-0.202,0.058h-0.001c-0.105,0.033-0.208,0.065-0.312,0.1c-0.074,0.026-0.147,0.049-0.221,0.075
	c-0.095,0.032-0.188,0.07-0.281,0.104c-0.082,0.033-0.163,0.063-0.244,0.098c-0.083,0.033-0.166,0.07-0.248,0.105
	c-0.09,0.042-0.179,0.079-0.267,0.121c-0.072,0.035-0.143,0.07-0.215,0.107c-0.096,0.047-0.191,0.096-0.287,0.147
	c-0.063,0.033-0.126,0.07-0.189,0.105c-0.098,0.056-0.197,0.109-0.295,0.17c-0.06,0.035-0.117,0.072-0.174,0.109
	c-0.099,0.061-0.198,0.122-0.294,0.187c-0.06,0.04-0.118,0.082-0.176,0.124c-0.075,0.051-0.148,0.1-0.223,0.154l-0.11-5.958
	c-0.001-0.035-0.008-0.065-0.012-0.098c-0.005-0.049-0.007-0.1-0.018-0.149c-0.012-0.058-0.031-0.114-0.05-0.17
	c-0.008-0.023-0.014-0.046-0.022-0.07c-0.194-0.474-0.643-0.809-1.183-0.819c-0.022-0.002-0.043-0.004-0.065-0.004
	c-0.005,0-0.009-0.002-0.014-0.002c-0.032,0.002-0.062,0.009-0.094,0.012c-0.052,0.005-0.105,0.007-0.156,0.019
	c-0.042,0.009-0.08,0.023-0.121,0.038c-0.042,0.011-0.085,0.023-0.127,0.042c-0.042,0.016-0.081,0.042-0.12,0.063
	c-0.036,0.019-0.073,0.037-0.109,0.061c-0.044,0.03-0.083,0.067-0.124,0.1c-0.023,0.021-0.049,0.038-0.071,0.059l-2.523,2.521
	l-1.04-1.041l2.524-2.521c0.016-0.016,0.028-0.035,0.044-0.054c0.041-0.046,0.082-0.093,0.116-0.145
	c0.022-0.03,0.038-0.065,0.058-0.101c0.023-0.042,0.046-0.081,0.065-0.125c0.017-0.042,0.028-0.084,0.041-0.124
	c0.013-0.042,0.028-0.082,0.038-0.124c0.01-0.051,0.013-0.103,0.017-0.154c0.002-0.033,0.01-0.063,0.012-0.096
	c0-0.002-0.001-0.007-0.001-0.012c0.001-0.058-0.008-0.119-0.015-0.177c-0.002-0.028-0.002-0.058-0.008-0.086
	c-0.009-0.049-0.027-0.098-0.043-0.147c-0.01-0.035-0.018-0.07-0.029-0.102c-0.013-0.031-0.033-0.061-0.048-0.091
	c-0.023-0.046-0.044-0.096-0.073-0.138c-0.015-0.026-0.036-0.044-0.054-0.067c-0.035-0.049-0.07-0.098-0.112-0.14
	c-0.003-0.002-0.006-0.005-0.008-0.009c-0.022-0.021-0.048-0.037-0.071-0.059c-0.041-0.035-0.079-0.07-0.124-0.1
	c-0.035-0.023-0.072-0.042-0.108-0.063c-0.04-0.021-0.077-0.044-0.12-0.061c-0.042-0.019-0.085-0.03-0.128-0.042
	c-0.04-0.014-0.079-0.028-0.12-0.038c-0.052-0.009-0.105-0.014-0.156-0.019c-0.033-0.002-0.062-0.009-0.094-0.009l-7.07-0.13
	c-0.008,0-0.016,0-0.026,0c-0.004,0-0.007,0-0.01,0c-0.005,0-0.01,0-0.013,0c-0.039,0-0.073,0.009-0.111,0.012
	C8.676,7.534,8.627,7.537,8.579,7.548C8.54,7.555,8.502,7.571,8.463,7.583C8.418,7.597,8.374,7.609,8.331,7.627
	C8.293,7.644,8.258,7.665,8.222,7.686c-0.038,0.021-0.079,0.04-0.114,0.065C8.073,7.772,8.042,7.802,8.011,7.828
	c-0.034,0.028-0.069,0.054-0.1,0.086C7.883,7.942,7.858,7.975,7.833,8.008C7.804,8.04,7.774,8.073,7.75,8.11
	C7.726,8.146,7.71,8.183,7.69,8.218c-0.022,0.04-0.044,0.077-0.062,0.119c-0.017,0.04-0.027,0.079-0.04,0.121
	C7.574,8.5,7.56,8.542,7.551,8.586c-0.008,0.042-0.01,0.087-0.015,0.131C7.531,8.754,7.523,8.792,7.522,8.829
	c0,0.009,0.002,0.016,0.002,0.025c0,0.007-0.002,0.016-0.002,0.023l0.132,7.065c0,0.033,0.007,0.063,0.01,0.096
	c0.005,0.051,0.007,0.103,0.019,0.151c0.008,0.044,0.024,0.084,0.037,0.126c0.013,0.04,0.023,0.082,0.04,0.121
	c0.019,0.044,0.043,0.086,0.067,0.128c0.02,0.032,0.035,0.067,0.056,0.1C7.918,16.717,7.959,16.764,8,16.808
	c0.016,0.019,0.028,0.04,0.044,0.056c0.002,0.002,0.003,0.002,0.004,0.005c0.063,0.061,0.131,0.116,0.203,0.166
	c0.024,0.014,0.049,0.023,0.074,0.038c0.05,0.03,0.102,0.061,0.156,0.083c0.04,0.014,0.08,0.023,0.12,0.035
	c0.043,0.014,0.084,0.03,0.13,0.04c0.082,0.016,0.165,0.023,0.248,0.023c0.005,0,0.007,0.002,0.012,0.002l0,0l0,0l0,0
	c0.008,0,0.016,0,0.024,0c0.033,0,0.061-0.009,0.092-0.011c0.053-0.004,0.106-0.009,0.159-0.019c0.041-0.01,0.079-0.023,0.12-0.035
	c0.043-0.014,0.086-0.026,0.127-0.044c0.043-0.016,0.083-0.042,0.123-0.062c0.035-0.021,0.073-0.038,0.106-0.061
	c0.046-0.03,0.086-0.067,0.127-0.103c0.022-0.021,0.046-0.035,0.067-0.056l2.523-2.521l1.042,1.041l-2.525,2.521
	c-0.016,0.017-0.029,0.037-0.044,0.056c-0.042,0.044-0.082,0.091-0.116,0.142c-0.022,0.033-0.038,0.067-0.057,0.1
	c-0.023,0.042-0.048,0.082-0.067,0.126c-0.017,0.042-0.028,0.082-0.041,0.124s-0.028,0.082-0.036,0.126
	c-0.01,0.049-0.013,0.1-0.019,0.152c-0.002,0.033-0.011,0.061-0.011,0.096c0,0.002,0.001,0.007,0.001,0.012
	c-0.001,0.058,0.007,0.119,0.015,0.177c0.002,0.028,0.002,0.058,0.007,0.086c0.01,0.049,0.028,0.098,0.043,0.146
	c0.012,0.035,0.018,0.07,0.031,0.103c0.013,0.03,0.033,0.061,0.048,0.091c0.022,0.046,0.045,0.096,0.073,0.14
	c0.016,0.023,0.036,0.044,0.054,0.065c0.035,0.049,0.073,0.096,0.113,0.14c0.003,0.002,0.005,0.005,0.007,0.009
	c0.022,0.021,0.049,0.037,0.073,0.058c0.04,0.035,0.078,0.07,0.122,0.101c0.035,0.023,0.073,0.042,0.11,0.061
	c0.04,0.023,0.077,0.046,0.119,0.063c0.042,0.019,0.085,0.03,0.13,0.042c0.04,0.014,0.078,0.028,0.12,0.038
	c0.051,0.01,0.104,0.014,0.157,0.019c0.03,0.002,0.06,0.009,0.091,0.009l5.962,0.112c-0.053,0.075-0.105,0.149-0.157,0.227
	c-0.04,0.056-0.079,0.111-0.118,0.167c-0.068,0.101-0.131,0.201-0.194,0.304c-0.035,0.053-0.07,0.109-0.104,0.165
	c-0.061,0.101-0.118,0.203-0.175,0.303c-0.034,0.061-0.068,0.119-0.1,0.18c-0.052,0.098-0.103,0.199-0.152,0.296
	c-0.034,0.068-0.069,0.135-0.102,0.205c-0.042,0.091-0.084,0.185-0.125,0.275c-0.035,0.08-0.07,0.159-0.104,0.24
	c-0.034,0.084-0.067,0.166-0.098,0.25c-0.036,0.091-0.071,0.185-0.104,0.275c-0.027,0.074-0.051,0.149-0.077,0.224
	c-0.035,0.103-0.068,0.205-0.099,0.31c-0.02,0.067-0.038,0.135-0.058,0.203c-0.031,0.11-0.062,0.222-0.09,0.336
	c-0.015,0.063-0.029,0.126-0.045,0.191c-0.027,0.117-0.054,0.231-0.076,0.348c-0.014,0.068-0.025,0.133-0.036,0.198
	c-0.016,0.093-0.035,0.184-0.049,0.277l-4.293-4.133c-0.023-0.021-0.048-0.037-0.071-0.056c-0.042-0.035-0.082-0.07-0.127-0.1
	c-0.036-0.021-0.072-0.04-0.108-0.059c-0.041-0.021-0.081-0.044-0.124-0.061c-0.041-0.019-0.085-0.028-0.129-0.042
	c-0.041-0.009-0.079-0.023-0.121-0.033c-0.053-0.009-0.106-0.012-0.16-0.017c-0.03-0.002-0.058-0.009-0.09-0.009
	c-0.004,0-0.007,0.002-0.012,0.002c-0.062,0-0.121,0.009-0.182,0.019c-0.027,0.002-0.055,0.002-0.081,0.009
	c-0.057,0.012-0.112,0.032-0.168,0.051c-0.026,0.01-0.054,0.014-0.081,0.026c-0.039,0.016-0.073,0.04-0.111,0.061
	c-0.038,0.021-0.081,0.04-0.118,0.063c-0.024,0.019-0.045,0.039-0.07,0.058c-0.045,0.035-0.092,0.072-0.132,0.114
	c-0.003,0.002-0.007,0.005-0.009,0.007c-0.022,0.021-0.036,0.047-0.056,0.07c-0.035,0.042-0.071,0.082-0.1,0.128
	c-0.023,0.035-0.04,0.072-0.06,0.11c-0.021,0.04-0.043,0.079-0.061,0.121c-0.017,0.042-0.027,0.086-0.04,0.131
	c-0.013,0.037-0.026,0.077-0.034,0.119c-0.01,0.051-0.012,0.105-0.015,0.161c-0.004,0.028-0.01,0.058-0.01,0.088v3.564H7.766v-3.564
	c0-0.03-0.006-0.058-0.008-0.088c-0.004-0.054-0.006-0.11-0.017-0.163c-0.008-0.04-0.021-0.077-0.032-0.117
	c-0.013-0.044-0.025-0.089-0.041-0.133c-0.017-0.04-0.039-0.079-0.06-0.119c-0.02-0.038-0.038-0.075-0.062-0.112
	c-0.028-0.044-0.062-0.082-0.096-0.121c-0.021-0.026-0.036-0.051-0.06-0.075c-0.003-0.005-0.006-0.007-0.009-0.009
	c-0.041-0.042-0.086-0.077-0.132-0.112c-0.023-0.019-0.046-0.04-0.071-0.058c-0.04-0.028-0.086-0.047-0.131-0.073
	c-0.032-0.016-0.063-0.037-0.095-0.051c-0.031-0.014-0.063-0.021-0.095-0.03c-0.051-0.017-0.102-0.038-0.155-0.046
	c-0.026-0.007-0.054-0.007-0.081-0.009C6.56,20.776,6.5,20.767,6.439,20.767c-0.004,0-0.007-0.002-0.01-0.002
	c-0.031,0-0.057,0.006-0.088,0.009c-0.055,0.005-0.11,0.005-0.165,0.017c-0.04,0.007-0.076,0.021-0.115,0.033
	c-0.045,0.012-0.091,0.023-0.134,0.042c-0.042,0.016-0.078,0.038-0.118,0.058c-0.037,0.019-0.077,0.038-0.113,0.061
	c-0.044,0.03-0.082,0.062-0.121,0.095C5.549,21.1,5.522,21.116,5.499,21.14l-5.092,4.903c-0.006,0.004-0.01,0.012-0.018,0.019
	c-0.005,0.007-0.011,0.009-0.018,0.017c-0.026,0.025-0.043,0.056-0.065,0.082c-0.032,0.037-0.062,0.072-0.088,0.112
	c-0.024,0.037-0.042,0.075-0.062,0.112c-0.021,0.04-0.043,0.08-0.061,0.119c-0.015,0.042-0.026,0.082-0.039,0.124
	c-0.011,0.042-0.026,0.082-0.035,0.124c-0.008,0.042-0.009,0.086-0.013,0.128C0.005,26.92,0,26.962,0,27.006
	c0,0.042,0.005,0.084,0.01,0.126s0.006,0.086,0.014,0.128c0.009,0.042,0.023,0.082,0.035,0.121c0.011,0.042,0.023,0.086,0.04,0.126
	c0.016,0.04,0.037,0.077,0.057,0.117c0.021,0.037,0.04,0.077,0.065,0.117c0.023,0.035,0.054,0.067,0.082,0.102
	c0.025,0.031,0.043,0.063,0.07,0.089c0.006,0.007,0.014,0.012,0.02,0.016c0.005,0.007,0.01,0.015,0.015,0.019l5.092,4.903
	c0.025,0.023,0.052,0.042,0.078,0.063c0.039,0.03,0.075,0.063,0.116,0.091c0.038,0.026,0.079,0.044,0.119,0.063
	c0.037,0.021,0.071,0.042,0.11,0.059c0.048,0.019,0.097,0.03,0.147,0.044c0.034,0.009,0.065,0.023,0.099,0.03
	c0.086,0.017,0.173,0.026,0.26,0.026l0,0l0,0c0.001,0,0.006,0,0.006,0c0.087-0.002,0.174-0.01,0.259-0.028
	c0.05-0.009,0.098-0.028,0.147-0.044c0.035-0.012,0.071-0.019,0.106-0.033c0.082-0.035,0.159-0.077,0.231-0.125
	c0.013-0.007,0.023-0.021,0.036-0.031c0.059-0.042,0.118-0.088,0.169-0.142c0.002-0.002,0.006-0.002,0.008-0.007
	c0.022-0.021,0.037-0.046,0.056-0.069c0.035-0.042,0.07-0.082,0.099-0.126c0.024-0.038,0.041-0.075,0.061-0.11
	c0.021-0.042,0.043-0.08,0.061-0.122c0.016-0.044,0.028-0.088,0.041-0.133c0.011-0.037,0.024-0.077,0.032-0.119
	c0.01-0.051,0.013-0.104,0.017-0.159c0.002-0.03,0.008-0.058,0.008-0.088v-3.566h1.472v3.566c0,0.03,0.007,0.059,0.01,0.088
	c0.004,0.054,0.006,0.107,0.015,0.161c0.008,0.042,0.021,0.08,0.034,0.119c0.013,0.044,0.022,0.088,0.04,0.13
	c0.018,0.042,0.04,0.082,0.061,0.122c0.02,0.037,0.036,0.075,0.06,0.11c0.029,0.044,0.065,0.083,0.1,0.126
	c0.02,0.023,0.034,0.048,0.056,0.069c0.002,0.005,0.006,0.005,0.009,0.01c0.05,0.051,0.108,0.098,0.168,0.142
	c0.012,0.007,0.023,0.021,0.036,0.03c0.074,0.049,0.15,0.091,0.232,0.126c0.034,0.014,0.07,0.019,0.105,0.031
	c0.049,0.016,0.097,0.035,0.148,0.046c0.084,0.017,0.169,0.026,0.257,0.026c0.002,0,0.005,0,0.007,0l0,0h0.001
	c0.086,0,0.173-0.01,0.259-0.026c0.034-0.007,0.066-0.021,0.099-0.028c0.049-0.014,0.099-0.028,0.148-0.046
	c0.037-0.017,0.072-0.038,0.109-0.056c0.041-0.021,0.081-0.04,0.118-0.065c0.042-0.025,0.078-0.058,0.117-0.091
	c0.026-0.021,0.054-0.037,0.079-0.063l4.293-4.133c0.014,0.093,0.033,0.184,0.049,0.275c0.012,0.067,0.022,0.133,0.036,0.201
	c0.022,0.114,0.049,0.231,0.074,0.345c0.015,0.066,0.029,0.131,0.046,0.196c0.028,0.11,0.058,0.219,0.088,0.327
	c0.02,0.072,0.04,0.142,0.061,0.212c0.029,0.101,0.062,0.199,0.096,0.296c0.025,0.082,0.052,0.161,0.08,0.24
	c0.031,0.086,0.064,0.173,0.097,0.257c0.035,0.091,0.07,0.18,0.106,0.271c0.031,0.072,0.063,0.145,0.096,0.217
	c0.043,0.101,0.087,0.201,0.134,0.299c0.03,0.061,0.06,0.121,0.091,0.182c0.052,0.107,0.105,0.212,0.162,0.319
	c0.028,0.052,0.057,0.103,0.086,0.154c0.062,0.11,0.125,0.222,0.19,0.329c0.027,0.046,0.057,0.091,0.085,0.137
	c0.069,0.11,0.139,0.222,0.212,0.329c0.029,0.044,0.061,0.088,0.091,0.13c0.06,0.086,0.117,0.175,0.18,0.262L11.9,33.824
	c-0.031,0-0.062,0.007-0.094,0.012c-0.051,0.005-0.104,0.007-0.155,0.019c-0.042,0.007-0.082,0.023-0.123,0.035
	c-0.042,0.014-0.085,0.023-0.126,0.042c-0.043,0.019-0.082,0.042-0.123,0.065c-0.035,0.019-0.073,0.038-0.106,0.059
	c-0.046,0.033-0.085,0.068-0.126,0.105c-0.022,0.019-0.048,0.035-0.069,0.056c-0.003,0.002-0.005,0.005-0.008,0.01
	c-0.041,0.042-0.078,0.091-0.113,0.14c-0.018,0.021-0.039,0.042-0.052,0.065c-0.029,0.042-0.05,0.091-0.074,0.138
	c-0.015,0.033-0.035,0.061-0.046,0.093c-0.013,0.031-0.02,0.066-0.031,0.099c-0.015,0.049-0.034,0.1-0.044,0.151
	c-0.004,0.026-0.003,0.056-0.007,0.084c-0.008,0.059-0.015,0.119-0.015,0.177c0,0.007-0.001,0.009-0.001,0.014
	c0.001,0.032,0.008,0.062,0.011,0.096c0.005,0.051,0.007,0.1,0.018,0.151c0.01,0.042,0.024,0.084,0.037,0.124
	c0.013,0.042,0.023,0.084,0.041,0.124c0.019,0.044,0.043,0.086,0.066,0.128c0.019,0.033,0.034,0.068,0.056,0.1
	c0.035,0.052,0.076,0.098,0.118,0.143c0.016,0.019,0.027,0.038,0.044,0.056l2.524,2.52l-1.041,1.04l-2.524-2.521
	c-0.021-0.021-0.047-0.037-0.071-0.058c-0.04-0.035-0.079-0.07-0.123-0.1c-0.036-0.023-0.073-0.042-0.11-0.063
	c-0.04-0.021-0.078-0.044-0.119-0.063c-0.042-0.016-0.086-0.028-0.129-0.042c-0.041-0.012-0.079-0.026-0.12-0.035
	c-0.052-0.009-0.105-0.014-0.157-0.019c-0.031-0.002-0.061-0.009-0.094-0.009c-0.008,0-0.016,0-0.024,0
	c-0.011,0-0.02,0.002-0.029,0.002c-0.077,0-0.156,0.007-0.23,0.021c-0.047,0.009-0.091,0.028-0.135,0.04
	C8.56,36.833,8.52,36.84,8.484,36.854c-0.057,0.023-0.11,0.056-0.163,0.086c-0.022,0.012-0.046,0.021-0.069,0.035
	c-0.072,0.049-0.14,0.105-0.203,0.166c-0.001,0.002-0.002,0.004-0.004,0.004C8.028,37.162,8.017,37.183,8,37.199
	c-0.041,0.047-0.083,0.093-0.118,0.147c-0.021,0.03-0.036,0.065-0.056,0.098c-0.023,0.042-0.048,0.084-0.067,0.128
	c-0.016,0.04-0.027,0.082-0.04,0.122c-0.014,0.042-0.029,0.082-0.037,0.125c-0.012,0.051-0.014,0.103-0.019,0.152
	c-0.004,0.032-0.01,0.062-0.01,0.095l-0.131,7.065c-0.001,0.007,0.001,0.016,0.001,0.023c0,0.009-0.002,0.016-0.001,0.025
	c0,0.038,0.008,0.075,0.013,0.112c0.005,0.044,0.007,0.089,0.016,0.131c0.008,0.044,0.023,0.086,0.037,0.131
	c0.013,0.04,0.022,0.079,0.039,0.119c0.017,0.042,0.041,0.08,0.063,0.122C7.71,45.83,7.728,45.865,7.75,45.9
	c0.026,0.037,0.056,0.07,0.085,0.105c0.026,0.03,0.048,0.062,0.076,0.091c0.033,0.033,0.068,0.061,0.103,0.089
	c0.031,0.025,0.061,0.053,0.095,0.074c0.036,0.026,0.077,0.046,0.115,0.068c0.036,0.019,0.071,0.042,0.109,0.058
	c0.043,0.017,0.087,0.028,0.133,0.042c0.039,0.012,0.075,0.028,0.115,0.038c0.047,0.009,0.097,0.011,0.145,0.016
	c0.037,0.004,0.072,0.012,0.111,0.014c0.008,0,0.017,0,0.025,0l0,0l0,0h0.001l0,0c0.008,0,0.015,0,0.023,0l7.07-0.13
	c0.031-0.002,0.061-0.009,0.092-0.011c0.052-0.005,0.105-0.007,0.158-0.019c0.041-0.009,0.08-0.023,0.12-0.037
	c0.043-0.012,0.086-0.023,0.128-0.042c0.043-0.017,0.081-0.04,0.12-0.063c0.037-0.019,0.073-0.038,0.108-0.061
	c0.044-0.031,0.084-0.065,0.124-0.101c0.023-0.021,0.049-0.037,0.071-0.058c0.002-0.002,0.005-0.007,0.008-0.009
	c0.042-0.042,0.077-0.091,0.112-0.14c0.017-0.021,0.039-0.042,0.054-0.068c0.029-0.042,0.05-0.091,0.073-0.137
	c0.015-0.031,0.035-0.061,0.048-0.091c0.012-0.032,0.019-0.067,0.029-0.103c0.016-0.046,0.034-0.096,0.043-0.147
	c0.006-0.028,0.006-0.058,0.008-0.086c0.007-0.058,0.016-0.119,0.015-0.177c0-0.004,0.001-0.009,0.001-0.012
	c-0.001-0.032-0.009-0.063-0.012-0.095c-0.005-0.052-0.007-0.103-0.017-0.152c-0.009-0.044-0.025-0.084-0.038-0.126
	c-0.013-0.042-0.023-0.082-0.041-0.121c-0.019-0.046-0.042-0.086-0.065-0.128c-0.02-0.035-0.036-0.067-0.058-0.101
	c-0.034-0.051-0.075-0.098-0.116-0.144c-0.016-0.017-0.028-0.038-0.044-0.054l-2.524-2.521l1.04-1.04l2.524,2.521
	c0.022,0.021,0.048,0.037,0.071,0.059c0.041,0.035,0.08,0.07,0.124,0.1c0.035,0.023,0.072,0.042,0.108,0.063
	c0.041,0.021,0.078,0.044,0.12,0.063c0.042,0.016,0.085,0.028,0.128,0.042c0.04,0.012,0.08,0.025,0.12,0.035
	c0.053,0.011,0.105,0.014,0.157,0.018c0.032,0.002,0.061,0.012,0.092,0.012c0.008,0,0.016,0,0.025,0l0,0l0,0h0.001
	c0.004,0,0.007,0,0.01,0c0.084-0.002,0.166-0.01,0.248-0.026c0.046-0.009,0.088-0.026,0.131-0.04
	c0.04-0.012,0.081-0.019,0.119-0.035c0.056-0.023,0.109-0.056,0.161-0.084c0.023-0.014,0.047-0.023,0.069-0.038
	c0.073-0.049,0.141-0.104,0.203-0.165c0.001-0.003,0.004-0.005,0.005-0.005c0.018-0.019,0.029-0.037,0.045-0.056
	c0.041-0.044,0.082-0.091,0.116-0.142c0.023-0.033,0.04-0.068,0.057-0.1c0.023-0.042,0.048-0.084,0.068-0.129
	c0.016-0.039,0.027-0.081,0.04-0.123c0.013-0.04,0.028-0.08,0.036-0.124c0.012-0.049,0.014-0.1,0.019-0.152
	c0.004-0.032,0.011-0.062,0.012-0.095l0.111-5.957c0.084,0.062,0.173,0.121,0.26,0.182c0.028,0.021,0.055,0.042,0.084,0.061
	c0.015,0.009,0.029,0.019,0.043,0.03c0.11,0.072,0.219,0.14,0.329,0.21c0.048,0.028,0.094,0.059,0.14,0.087
	c0.074,0.044,0.147,0.086,0.219,0.128c0.035,0.019,0.068,0.037,0.102,0.056c0.056,0.033,0.11,0.063,0.166,0.094
	c0.102,0.053,0.204,0.105,0.307,0.156c0.066,0.033,0.13,0.067,0.196,0.098c0.093,0.044,0.188,0.086,0.282,0.128
	c0.078,0.033,0.156,0.067,0.234,0.1c0.084,0.035,0.169,0.068,0.254,0.101c0.091,0.035,0.181,0.07,0.273,0.103
	c0.074,0.027,0.149,0.051,0.225,0.074c0.103,0.035,0.206,0.07,0.309,0.1c0.066,0.021,0.133,0.04,0.201,0.059
	c0.112,0.03,0.225,0.063,0.338,0.091c0.062,0.014,0.125,0.028,0.188,0.042c0.117,0.028,0.235,0.056,0.354,0.08
	c0.064,0.011,0.127,0.021,0.191,0.033c0.095,0.016,0.187,0.037,0.283,0.051l-4.138,4.289c-0.022,0.023-0.037,0.049-0.056,0.07
	c-0.034,0.042-0.07,0.082-0.099,0.128c-0.023,0.035-0.041,0.072-0.061,0.109c-0.02,0.04-0.043,0.08-0.061,0.121
	c-0.016,0.042-0.028,0.086-0.04,0.131c-0.012,0.04-0.026,0.077-0.032,0.119c-0.012,0.054-0.013,0.107-0.016,0.161
	c-0.002,0.03-0.009,0.059-0.009,0.088c0,0.005,0.001,0.007,0.001,0.012c0,0.061,0.009,0.119,0.018,0.18
	c0.005,0.027,0.005,0.056,0.01,0.084c0.01,0.051,0.03,0.1,0.047,0.149c0.01,0.033,0.016,0.068,0.03,0.1
	c0.013,0.03,0.034,0.059,0.049,0.089c0.024,0.046,0.047,0.096,0.076,0.138c0.016,0.023,0.037,0.042,0.054,0.065
	c0.036,0.046,0.073,0.096,0.117,0.137c0.003,0.002,0.005,0.005,0.008,0.009c0.024,0.023,0.054,0.04,0.078,0.063
	c0.039,0.031,0.075,0.063,0.116,0.091c0.04,0.025,0.079,0.042,0.119,0.063c0.036,0.021,0.071,0.042,0.11,0.056
	c0.048,0.021,0.097,0.033,0.147,0.047c0.034,0.009,0.065,0.021,0.099,0.028c0.086,0.017,0.172,0.028,0.26,0.028l0,0l0,0h3.568
	l-0.001,1.469h-3.567c-0.033,0-0.063,0.007-0.095,0.009c-0.053,0.005-0.104,0.007-0.156,0.017c-0.041,0.007-0.08,0.021-0.12,0.033
	c-0.043,0.012-0.087,0.023-0.13,0.042c-0.042,0.017-0.081,0.038-0.12,0.059c-0.037,0.021-0.075,0.037-0.111,0.061
	c-0.044,0.028-0.083,0.063-0.124,0.096c-0.023,0.021-0.05,0.038-0.073,0.061c-0.004,0.002-0.006,0.005-0.009,0.009
	c-0.04,0.04-0.075,0.084-0.11,0.131c-0.02,0.023-0.042,0.047-0.06,0.07c-0.027,0.04-0.045,0.084-0.068,0.124
	c-0.019,0.035-0.042,0.07-0.057,0.104c-0.011,0.028-0.018,0.059-0.027,0.086c-0.019,0.054-0.038,0.107-0.051,0.163
	c-0.004,0.026-0.004,0.054-0.009,0.08c-0.008,0.061-0.018,0.121-0.018,0.182c0,0.004-0.001,0.009-0.001,0.014
	c0,0.028,0.007,0.056,0.009,0.086c0.003,0.054,0.005,0.11,0.016,0.163c0.007,0.04,0.021,0.077,0.032,0.117
	c0.012,0.044,0.023,0.091,0.04,0.133c0.018,0.042,0.041,0.08,0.059,0.119c0.02,0.038,0.039,0.075,0.062,0.112
	c0.029,0.042,0.063,0.082,0.096,0.122c0.021,0.025,0.036,0.051,0.06,0.074l4.907,5.09c0.006,0.005,0.013,0.009,0.019,0.014
	c0.007,0.007,0.011,0.014,0.016,0.021c0.033,0.03,0.069,0.051,0.102,0.079c0.03,0.023,0.061,0.051,0.092,0.072
	c0.044,0.028,0.091,0.051,0.139,0.075c0.03,0.017,0.061,0.035,0.094,0.047c0.055,0.023,0.112,0.037,0.169,0.051
	c0.026,0.007,0.051,0.019,0.078,0.023c0.084,0.016,0.169,0.025,0.255,0.025l0,0l0,0c0.086,0,0.172-0.009,0.256-0.025
	c0.027-0.005,0.051-0.014,0.076-0.021c0.058-0.017,0.116-0.03,0.172-0.054c0.03-0.012,0.06-0.03,0.09-0.044
	c0.048-0.026,0.097-0.047,0.141-0.077c0.033-0.021,0.061-0.049,0.091-0.072c0.034-0.028,0.07-0.049,0.103-0.079
	c0.006-0.007,0.011-0.014,0.016-0.021c0.006-0.005,0.013-0.009,0.019-0.017l4.906-5.087c0.023-0.023,0.039-0.051,0.06-0.074
	c0.032-0.04,0.066-0.08,0.095-0.122c0.023-0.037,0.041-0.074,0.062-0.112c0.02-0.04,0.042-0.08,0.058-0.119
	c0.018-0.042,0.028-0.088,0.041-0.13c0.011-0.042,0.024-0.08,0.032-0.121c0.01-0.051,0.013-0.105,0.016-0.159
	c0.002-0.03,0.008-0.058,0.008-0.089c0-0.007,0-0.009,0-0.014c-0.001-0.059-0.01-0.117-0.018-0.177
	c-0.005-0.026-0.005-0.059-0.01-0.087c-0.01-0.049-0.029-0.098-0.047-0.146c-0.01-0.033-0.017-0.07-0.032-0.101
	c-0.014-0.032-0.034-0.062-0.05-0.095c-0.025-0.044-0.046-0.091-0.075-0.133c-0.016-0.023-0.038-0.046-0.057-0.07
	c-0.036-0.044-0.071-0.091-0.112-0.131c-0.003-0.004-0.006-0.007-0.008-0.011c-0.023-0.021-0.052-0.038-0.075-0.059
	c-0.041-0.033-0.079-0.067-0.124-0.096c-0.035-0.023-0.073-0.04-0.111-0.061c-0.04-0.021-0.078-0.042-0.12-0.059
	c-0.042-0.019-0.085-0.03-0.129-0.042c-0.04-0.012-0.078-0.026-0.12-0.033c-0.051-0.009-0.104-0.012-0.155-0.017
	c-0.032-0.002-0.062-0.009-0.094-0.009h-3.568l0.001-1.469h3.567l0,0h0.001c0.086,0,0.173-0.012,0.259-0.028
	c0.034-0.007,0.065-0.019,0.099-0.028c0.049-0.014,0.099-0.026,0.147-0.047c0.037-0.014,0.073-0.035,0.11-0.056
	c0.04-0.021,0.081-0.038,0.118-0.063c0.042-0.028,0.078-0.061,0.117-0.091c0.026-0.023,0.054-0.04,0.079-0.063
	c0.001-0.004,0.004-0.007,0.007-0.009c0.042-0.042,0.078-0.088,0.115-0.135c0.017-0.023,0.039-0.044,0.055-0.067
	c0.028-0.04,0.049-0.086,0.071-0.131c0.019-0.032,0.04-0.062,0.054-0.098c0.013-0.03,0.019-0.061,0.029-0.094
	c0.018-0.051,0.037-0.103,0.048-0.153c0.006-0.028,0.006-0.057,0.01-0.082c0.008-0.061,0.018-0.121,0.018-0.182
	c0-0.005,0.001-0.007,0.001-0.012c0-0.03-0.007-0.058-0.008-0.088c-0.005-0.054-0.007-0.107-0.016-0.161
	c-0.008-0.042-0.022-0.079-0.034-0.119c-0.012-0.044-0.023-0.089-0.04-0.131c-0.018-0.042-0.041-0.082-0.062-0.121
	c-0.019-0.038-0.036-0.075-0.06-0.109c-0.029-0.047-0.064-0.086-0.099-0.128c-0.02-0.021-0.035-0.047-0.056-0.07l-4.137-4.289
	c0.099-0.017,0.196-0.035,0.294-0.054c0.059-0.01,0.117-0.019,0.175-0.03c0.125-0.026,0.247-0.054,0.371-0.082
	c0.057-0.012,0.113-0.025,0.17-0.04c0.12-0.028,0.238-0.063,0.357-0.096c0.061-0.016,0.12-0.033,0.18-0.051
	c0.112-0.033,0.222-0.07,0.331-0.107c0.068-0.021,0.135-0.042,0.202-0.067c0.1-0.035,0.2-0.075,0.298-0.112
	c0.076-0.031,0.153-0.059,0.23-0.091c0.087-0.035,0.172-0.072,0.259-0.112c0.085-0.037,0.172-0.075,0.257-0.117
	c0.076-0.035,0.149-0.072,0.224-0.11c0.092-0.046,0.186-0.093,0.277-0.142c0.067-0.037,0.132-0.072,0.197-0.109
	c0.097-0.054,0.194-0.11,0.29-0.166c0.061-0.037,0.121-0.077,0.182-0.114c0.094-0.061,0.191-0.121,0.285-0.182
	c0.063-0.042,0.124-0.086,0.186-0.131c0.071-0.049,0.145-0.098,0.215-0.149l0.111,5.957c0,0.033,0.008,0.063,0.01,0.095
	c0.005,0.052,0.007,0.103,0.019,0.152c0.008,0.044,0.023,0.084,0.036,0.124c0.013,0.042,0.023,0.084,0.039,0.123
	c0.02,0.045,0.045,0.087,0.068,0.129c0.019,0.032,0.034,0.067,0.057,0.1c0.035,0.054,0.076,0.1,0.119,0.147
	c0.015,0.016,0.025,0.035,0.042,0.051c0,0,0.002,0.002,0.004,0.005c0.062,0.061,0.131,0.116,0.203,0.165
	c0.023,0.015,0.049,0.024,0.073,0.038c0.05,0.031,0.102,0.061,0.157,0.084c0.04,0.017,0.082,0.023,0.124,0.037
	c0.041,0.012,0.081,0.028,0.125,0.038c0.082,0.016,0.165,0.023,0.25,0.026c0.003,0,0.007,0,0.01,0c0.001,0,0.001,0,0.001,0l0,0l0,0
	c0.008,0,0.016,0,0.024,0c0.031,0,0.06-0.01,0.09-0.012c0.055-0.004,0.107-0.007,0.16-0.018c0.041-0.01,0.08-0.023,0.119-0.035
	c0.043-0.014,0.087-0.026,0.13-0.042c0.042-0.019,0.081-0.042,0.12-0.063c0.036-0.021,0.074-0.04,0.108-0.063
	c0.046-0.03,0.084-0.068,0.126-0.103c0.022-0.021,0.048-0.035,0.069-0.056l2.523-2.521l1.042,1.04l-2.515,2.513c0,0,0,0,0,0.002
	l-0.009,0.007c-0.016,0.017-0.027,0.035-0.042,0.052c-0.043,0.046-0.084,0.095-0.12,0.146c-0.021,0.033-0.036,0.066-0.056,0.101
	c-0.025,0.042-0.048,0.084-0.067,0.128c-0.018,0.04-0.028,0.082-0.041,0.124c-0.013,0.04-0.028,0.08-0.037,0.124
	c-0.01,0.049-0.013,0.1-0.018,0.152c-0.002,0.032-0.01,0.063-0.012,0.095c0,0.005,0.001,0.007,0.001,0.012
	c0,0.061,0.009,0.119,0.015,0.177c0.003,0.028,0.002,0.059,0.008,0.086c0.009,0.051,0.028,0.101,0.043,0.147
	c0.011,0.035,0.016,0.07,0.029,0.103c0.013,0.03,0.031,0.056,0.044,0.086c0.025,0.049,0.048,0.098,0.077,0.145
	c0.014,0.021,0.034,0.04,0.049,0.061c0.036,0.051,0.075,0.101,0.118,0.145c0.002,0.002,0.005,0.007,0.007,0.009
	c0.021,0.021,0.046,0.035,0.068,0.054c0.041,0.037,0.082,0.074,0.128,0.105c0.033,0.023,0.07,0.042,0.105,0.061
	c0.041,0.023,0.081,0.046,0.124,0.065c0.041,0.016,0.084,0.028,0.127,0.042c0.039,0.012,0.078,0.025,0.12,0.035
	c0.052,0.012,0.105,0.014,0.159,0.019c0.03,0.002,0.06,0.011,0.091,0.011l7.07,0.128c0.008,0.002,0.016,0.002,0.023,0.002l0,0
	c0.001,0,0.001,0,0.001,0l0,0l0,0c0.009,0,0.016,0,0.024-0.002c0.039,0,0.075-0.009,0.111-0.012
	c0.049-0.005,0.099-0.009,0.145-0.016c0.041-0.012,0.079-0.026,0.118-0.038c0.044-0.014,0.089-0.025,0.131-0.044
	c0.038-0.017,0.074-0.038,0.11-0.059c0.038-0.021,0.078-0.04,0.116-0.065c0.034-0.023,0.064-0.051,0.096-0.077
	c0.034-0.028,0.069-0.056,0.099-0.086c0.029-0.028,0.053-0.061,0.079-0.093c0.029-0.035,0.058-0.068,0.083-0.103
	c0.023-0.035,0.04-0.073,0.061-0.11c0.022-0.037,0.044-0.077,0.061-0.117c0.017-0.04,0.027-0.082,0.04-0.121
	c0.014-0.042,0.029-0.084,0.037-0.128c0.01-0.044,0.012-0.086,0.015-0.131c0.005-0.037,0.013-0.074,0.014-0.114
	c0-0.007-0.002-0.014-0.002-0.023c0-0.007,0.002-0.016,0.002-0.023l-0.131-7.065c-0.001-0.033-0.008-0.063-0.012-0.095
	c-0.004-0.052-0.007-0.101-0.017-0.152c-0.009-0.044-0.025-0.084-0.037-0.125c-0.013-0.04-0.023-0.082-0.04-0.122
	c-0.019-0.044-0.046-0.086-0.069-0.131c-0.019-0.033-0.033-0.065-0.055-0.095c-0.036-0.056-0.079-0.105-0.123-0.152
	c-0.014-0.016-0.024-0.033-0.041-0.049c0,0-0.001,0-0.002-0.002c-0.063-0.063-0.131-0.119-0.204-0.168
	c-0.021-0.012-0.044-0.021-0.067-0.035c-0.052-0.03-0.105-0.061-0.163-0.086c-0.039-0.014-0.079-0.023-0.12-0.035
	c-0.042-0.012-0.083-0.031-0.128-0.04c-0.082-0.017-0.166-0.023-0.249-0.023c-0.003,0-0.007,0-0.012,0l0,0l0,0
	c-0.008,0-0.016,0-0.024,0c-0.031,0-0.062,0.007-0.091,0.009c-0.054,0.005-0.106,0.009-0.159,0.019
	c-0.042,0.009-0.08,0.023-0.12,0.037c-0.042,0.012-0.086,0.023-0.128,0.042c-0.042,0.019-0.082,0.042-0.121,0.063
	c-0.036,0.021-0.072,0.038-0.106,0.061c-0.047,0.032-0.087,0.067-0.13,0.104c-0.021,0.019-0.045,0.033-0.067,0.054l-2.522,2.521
	l-1.041-1.04l2.512-2.51c0.001-0.002,0.002-0.002,0.002-0.002l0.008-0.009c0.015-0.014,0.026-0.033,0.04-0.047
	c0.043-0.049,0.086-0.098,0.123-0.151c0.022-0.03,0.036-0.065,0.055-0.098c0.023-0.042,0.049-0.083,0.069-0.128
	c0.016-0.04,0.027-0.082,0.04-0.122c0.013-0.042,0.028-0.084,0.037-0.126c0.011-0.051,0.013-0.1,0.018-0.151
	c0.003-0.033,0.01-0.063,0.012-0.096c0-0.005-0.001-0.009-0.001-0.014c0.001-0.058-0.007-0.119-0.014-0.177
	c-0.003-0.028-0.003-0.058-0.009-0.086c-0.009-0.049-0.027-0.096-0.041-0.145c-0.012-0.035-0.019-0.07-0.032-0.105
	c-0.011-0.028-0.029-0.054-0.043-0.082c-0.025-0.051-0.047-0.103-0.077-0.147c-0.015-0.023-0.034-0.042-0.049-0.061
	c-0.036-0.051-0.075-0.101-0.118-0.147c-0.004-0.002-0.006-0.005-0.008-0.007c-0.021-0.021-0.044-0.037-0.066-0.056
	c-0.042-0.037-0.082-0.072-0.128-0.105c-0.035-0.023-0.071-0.04-0.107-0.061c-0.04-0.021-0.078-0.044-0.12-0.062
	c-0.043-0.019-0.085-0.03-0.128-0.042c-0.041-0.014-0.079-0.028-0.121-0.038c-0.051-0.009-0.105-0.014-0.157-0.019
	c-0.031-0.002-0.061-0.009-0.092-0.012l-5.963-0.109c0.052-0.068,0.098-0.138,0.147-0.208c0.044-0.065,0.09-0.126,0.133-0.191
	c0.062-0.094,0.12-0.187,0.179-0.277c0.04-0.066,0.079-0.128,0.119-0.191c0.056-0.094,0.107-0.187,0.161-0.28
	c0.038-0.067,0.077-0.135,0.114-0.205c0.048-0.089,0.094-0.18,0.138-0.268c0.038-0.077,0.078-0.157,0.115-0.236
	c0.038-0.079,0.075-0.161,0.111-0.245c0.041-0.089,0.081-0.18,0.118-0.271c0.031-0.072,0.057-0.145,0.085-0.214
	c0.041-0.105,0.081-0.208,0.118-0.312c0.022-0.061,0.042-0.124,0.063-0.187c0.038-0.114,0.077-0.231,0.112-0.345
	c0.016-0.056,0.03-0.11,0.045-0.164c0.036-0.124,0.07-0.25,0.103-0.375c0.012-0.049,0.021-0.098,0.033-0.145
	c0.031-0.133,0.061-0.264,0.086-0.396c0.01-0.046,0.018-0.096,0.027-0.143c0.02-0.107,0.04-0.214,0.056-0.321l4.293,4.133
	c0.027,0.026,0.056,0.044,0.083,0.065c0.037,0.03,0.072,0.063,0.112,0.088c0.038,0.026,0.079,0.044,0.12,0.065
	c0.036,0.019,0.07,0.04,0.109,0.056c0.047,0.019,0.098,0.03,0.147,0.044c0.034,0.009,0.064,0.023,0.099,0.03
	c0.085,0.017,0.173,0.026,0.259,0.026l0,0l0,0c0.003,0,0.006,0,0.008,0c0.086-0.002,0.173-0.01,0.257-0.028
	c0.05-0.009,0.097-0.028,0.145-0.044c0.037-0.012,0.074-0.019,0.109-0.033c0.082-0.035,0.159-0.077,0.231-0.124
	c0.015-0.012,0.028-0.026,0.043-0.037c0.057-0.042,0.112-0.086,0.162-0.135c0.003-0.005,0.006-0.005,0.009-0.01
	c0.023-0.023,0.039-0.049,0.06-0.075c0.033-0.04,0.068-0.079,0.096-0.121c0.023-0.038,0.041-0.075,0.061-0.112
	c0.021-0.04,0.043-0.077,0.06-0.119c0.018-0.044,0.029-0.088,0.042-0.133c0.01-0.04,0.024-0.077,0.031-0.119
	c0.01-0.051,0.014-0.107,0.017-0.161c0.001-0.03,0.008-0.058,0.008-0.086v-3.566h1.472v3.566c0,0.03,0.008,0.059,0.01,0.091
	c0.004,0.053,0.006,0.104,0.016,0.156c0.008,0.044,0.022,0.082,0.033,0.122c0.012,0.044,0.024,0.088,0.042,0.13
	c0.015,0.042,0.039,0.08,0.059,0.122c0.021,0.035,0.038,0.075,0.062,0.11c0.029,0.044,0.062,0.083,0.096,0.121
	c0.021,0.026,0.036,0.051,0.058,0.075c0.003,0.005,0.007,0.007,0.01,0.01c0.049,0.051,0.105,0.093,0.162,0.137
	c0.014,0.009,0.027,0.023,0.043,0.035c0.071,0.049,0.149,0.091,0.231,0.126c0.035,0.014,0.071,0.021,0.107,0.033
	c0.049,0.014,0.094,0.033,0.145,0.044c0.085,0.017,0.171,0.026,0.257,0.026c0.003,0,0.006,0,0.009,0l0,0l0,0
	c0.086,0,0.174-0.01,0.259-0.026c0.034-0.007,0.065-0.019,0.098-0.028c0.05-0.014,0.1-0.028,0.148-0.046
	c0.037-0.017,0.071-0.038,0.107-0.054c0.041-0.023,0.083-0.042,0.122-0.068c0.04-0.025,0.074-0.056,0.111-0.086
	c0.028-0.023,0.057-0.042,0.083-0.068l5.093-4.903c0.006-0.004,0.01-0.012,0.016-0.019c0.005-0.007,0.013-0.009,0.019-0.016
	c0.025-0.028,0.043-0.058,0.067-0.086c0.029-0.035,0.06-0.07,0.084-0.107C53.861,27.701,53.879,27.662,53.9,27.625z"/>
</svg>
