<?xml version="1.0" encoding="iso-8859-1"?>
<!-- Generator: Adobe Illustrator 16.0.4, SVG Export Plug-In . SVG Version: 6.00 Build 0)  -->
<!DOCTYPE svg PUBLIC "-//W3C//DTD SVG 1.1//EN" "http://www.w3.org/Graphics/SVG/1.1/DTD/svg11.dtd">
<svg version="1.1" id="Layer_1" xmlns="http://www.w3.org/2000/svg" xmlns:xlink="http://www.w3.org/1999/xlink" x="0px" y="0px"
	 width="44.855px" height="44.82px" viewBox="0 0 44.855 44.82" style="enable-background:new 0 0 44.855 44.82;"
	 xml:space="preserve">
<path d="M22.431,0C10.062,0,0,10.057,0,22.409C0,34.766,10.062,44.82,22.431,44.82c12.363,0,22.425-10.054,22.425-22.411
	C44.856,10.057,34.793,0,22.431,0z M36.255,10.173c0.524-0.316,1.212-0.148,1.53,0.377l1.637,2.699
	c0.316,0.527,0.147,1.212-0.378,1.529c-0.182,0.11-0.379,0.161-0.575,0.161c-0.378,0-0.746-0.191-0.955-0.536l-1.635-2.699
	C35.56,11.177,35.729,10.493,36.255,10.173z M24.721,4.901l0.959-1.96c3.258,0.543,6.246,1.879,8.761,3.812l-1.137,2.331
	c-0.214,0.44-0.789,0.827-1.28,0.865l-3.718,0.258c-0.491,0.035-1.115-0.268-1.392-0.678l-2.086-3.088
	C24.557,6.036,24.508,5.342,24.721,4.901z M24.3,13.818l0.859-1.806c0.317-0.668,1.115-0.951,1.782-0.635
	c0.667,0.32,0.951,1.117,0.635,1.783l-0.86,1.804c-0.229,0.482-0.71,0.765-1.209,0.765c-0.192,0-0.387-0.042-0.574-0.13
	C24.267,15.282,23.983,14.482,24.3,13.818z M15.087,4.09c1.521-0.614,3.135-1.04,4.814-1.251h0.006
	c0.19,0.151,0.333,0.366,0.396,0.625c0.137,0.598-0.232,1.193-0.83,1.335l-3.076,0.724c-0.085,0.016-0.173,0.024-0.254,0.024
	c-0.507,0-0.967-0.347-1.088-0.859C15.007,4.482,15.021,4.279,15.087,4.09z M15.066,14.019l1.452,1.377
	c0.448,0.422,0.466,1.128,0.042,1.572c-0.218,0.233-0.513,0.351-0.809,0.351c-0.275,0-0.551-0.104-0.767-0.306l-1.452-1.378
	c-0.447-0.424-0.467-1.128-0.044-1.575C13.913,13.616,14.619,13.597,15.066,14.019z M2.675,22.409c0-1.568,0.182-3.092,0.533-4.554
	V17.85c0.166-0.063,0.345-0.094,0.532-0.079c0.61,0.054,1.065,0.592,1.017,1.203L4.49,22.118c-0.051,0.585-0.535,1.021-1.11,1.021
	c-0.031,0-0.064,0-0.094-0.005c-0.232-0.017-0.441-0.103-0.606-0.239C2.675,22.733,2.675,22.567,2.675,22.409z M10.334,32.864
	c-0.018,0.49-0.388,1.077-0.82,1.31l-2.06,1.092c-2.073-2.405-3.577-5.314-4.3-8.52l1.879-0.998
	c0.433-0.229,1.122-0.205,1.542,0.054l3.161,1.975c0.413,0.258,0.744,0.874,0.728,1.363L10.334,32.864z M7.976,14.389
	c-0.472,0.138-1.146-0.03-1.498-0.373l-1.284-1.24c1.583-2.815,3.833-5.202,6.54-6.95l1.373,1.328
	c0.356,0.34,0.548,1.007,0.429,1.485l-0.9,3.611c-0.12,0.477-0.602,0.975-1.075,1.112L7.976,14.389z M11.725,27.522
	c-0.295-0.541-0.093-1.216,0.447-1.51l1.759-0.956c0.541-0.293,1.217-0.094,1.511,0.447c0.294,0.539,0.095,1.216-0.446,1.511
	l-1.76,0.955c-0.17,0.092-0.351,0.136-0.53,0.136C12.308,28.105,11.926,27.893,11.725,27.522z M17.206,40.023
	c-0.179,0.424-0.593,0.681-1.026,0.681c-0.146,0-0.292-0.028-0.432-0.086l-2.912-1.224c-0.567-0.24-0.833-0.894-0.595-1.459
	c0.238-0.566,0.893-0.834,1.459-0.595l2.91,1.225C17.179,38.802,17.445,39.455,17.206,40.023z M18.962,26.219l-2.085-3.09
	c-0.274-0.404-0.322-1.1-0.107-1.541l1.635-3.347c0.216-0.44,0.79-0.83,1.279-0.865l3.721-0.258
	c0.488-0.035,1.114,0.271,1.389,0.676l2.086,3.09c0.273,0.405,0.322,1.098,0.106,1.538l-1.636,3.35
	c-0.215,0.439-0.791,0.827-1.279,0.861l-3.721,0.262C19.861,26.927,19.238,26.625,18.962,26.219z M24.884,32.062
	c0.112,0.604-0.289,1.187-0.893,1.298c-0.07,0.012-0.14,0.019-0.205,0.019c-0.526,0-0.996-0.375-1.095-0.909l-0.366-1.967
	c-0.112-0.605,0.287-1.187,0.894-1.299c0.605-0.112,1.187,0.285,1.298,0.892L24.884,32.062z M22.431,42.147
	c-0.567,0-1.128-0.021-1.68-0.073l-0.514-2.904c-0.09-0.479,0.152-1.135,0.526-1.446l2.857-2.396
	c0.374-0.317,1.057-0.436,1.521-0.268l3.504,1.274c0.459,0.163,0.905,0.699,0.994,1.18l0.534,3.053
	C27.793,41.585,25.176,42.147,22.431,42.147z M32.234,24.476c-0.049,0-0.098-0.005-0.146-0.01l-1.984-0.261
	c-0.609-0.079-1.04-0.639-0.959-1.247c0.078-0.609,0.632-1.039,1.249-0.96l1.983,0.259c0.61,0.078,1.041,0.639,0.961,1.248
	C33.264,24.066,32.784,24.476,32.234,24.476z M37.697,33.584l-2.062,2.386c-0.221,0.257-0.532,0.388-0.844,0.388
	c-0.26,0-0.519-0.088-0.729-0.271c-0.465-0.402-0.518-1.106-0.116-1.57l2.063-2.39c0.403-0.466,1.108-0.518,1.573-0.113
	C38.048,32.414,38.1,33.118,37.697,33.584z M37.709,28.872c-0.485-0.064-1.034-0.494-1.218-0.949l-1.396-3.456
	c-0.187-0.454-0.088-1.14,0.214-1.528l2.297-2.935c0.298-0.389,0.944-0.646,1.432-0.58l2.974,0.419
	c0.111,0.838,0.168,1.697,0.168,2.566c0,2.431-0.439,4.762-1.252,6.917L37.709,28.872z"/>
</svg>
