<?xml version="1.0" encoding="iso-8859-1"?>
<!-- Generator: Adobe Illustrator 16.0.4, SVG Export Plug-In . SVG Version: 6.00 Build 0)  -->
<!DOCTYPE svg PUBLIC "-//W3C//DTD SVG 1.1//EN" "http://www.w3.org/Graphics/SVG/1.1/DTD/svg11.dtd">
<svg version="1.1" id="Layer_1" xmlns="http://www.w3.org/2000/svg" xmlns:xlink="http://www.w3.org/1999/xlink" x="0px" y="0px"
	 width="53.475px" height="58.031px" viewBox="0 0 53.475 58.031" style="enable-background:new 0 0 53.475 58.031;"
	 xml:space="preserve">
<g>
	<path style="fill:#231F20;" d="M39.234,34.677c0.066-0.312,0.242-0.584,0.488-0.778c-0.261-0.146-0.562-0.23-0.88-0.23h-22.22
		c-0.982,0-1.777,0.791-1.777,1.771v19.713C27.757,51.646,37.083,43.816,39.234,34.677z"/>
	<path style="fill:#231F20;" d="M15.63,57.725c0.283,0.192,0.625,0.307,0.992,0.307h22.221c0.979,0,1.777-0.799,1.777-1.771V38.982
		C36.926,47.436,27.736,54.41,15.63,57.725z"/>
	<path style="fill:#231F20;" d="M51.393,25.225c-0.122-0.058-0.249-0.108-0.388-0.126c-0.061-0.098-0.139-0.304-0.139-0.587
		c0-0.286,0.078-0.492,0.139-0.59c0.657-0.089,1.165-0.651,1.165-1.33c0-0.742-0.604-1.341-1.348-1.341
		c-1.485,0-2.648,1.43-2.648,3.26c0,1.58,0.89,2.801,2.083,3.121c0.122,0.056,0.248,0.106,0.386,0.125
		c0.061,0.098,0.141,0.304,0.141,0.587c0,0.286-0.08,0.491-0.141,0.59c-0.657,0.086-1.164,0.649-1.164,1.33
		c0,0.741,0.604,1.34,1.346,1.34c1.484,0,2.649-1.433,2.649-3.26C53.474,26.77,52.586,25.547,51.393,25.225z"/>
	<path style="fill:#231F20;" d="M43.825,25.225c-0.122-0.058-0.249-0.108-0.389-0.126c-0.062-0.098-0.141-0.304-0.141-0.587
		c0-0.286,0.079-0.492,0.141-0.59c0.658-0.089,1.165-0.651,1.165-1.33c0-0.742-0.604-1.341-1.348-1.341
		c-1.485,0-2.648,1.43-2.648,3.26c0,1.579,0.888,2.799,2.082,3.12c0.121,0.057,0.248,0.107,0.387,0.126
		c0.061,0.098,0.139,0.304,0.139,0.587c0,0.286-0.078,0.491-0.139,0.59c-0.659,0.086-1.165,0.649-1.165,1.33
		c0,0.741,0.604,1.34,1.346,1.34c1.487,0,2.649-1.433,2.649-3.26C45.905,26.769,45.018,25.545,43.825,25.225z"/>
	<path style="fill:#231F20;" d="M2.65,21.251c-0.744,0-1.347,0.599-1.347,1.341c0,0.679,0.507,1.24,1.164,1.33
		c0.062,0.098,0.141,0.304,0.141,0.59c0,0.283-0.079,0.489-0.141,0.587c-0.139,0.019-0.266,0.069-0.388,0.126
		C0.888,25.545,0,26.769,0,28.345c0,1.829,1.164,3.261,2.649,3.261c0.745,0,1.348-0.601,1.348-1.342
		c0-0.679-0.507-1.243-1.165-1.329c-0.061-0.099-0.14-0.304-0.14-0.59c0-0.283,0.079-0.489,0.14-0.587
		c0.139-0.019,0.265-0.069,0.385-0.125c1.194-0.32,2.083-1.542,2.083-3.121C5.301,22.681,4.136,21.251,2.65,21.251z"/>
	<path style="fill:#231F20;" d="M10.218,21.251c-0.742,0-1.346,0.599-1.346,1.341c0,0.679,0.507,1.24,1.165,1.33
		c0.061,0.098,0.138,0.304,0.138,0.59c0,0.283-0.078,0.489-0.138,0.587c-0.14,0.019-0.267,0.069-0.389,0.126
		c-1.192,0.322-2.08,1.544-2.08,3.12c0,1.829,1.164,3.261,2.648,3.261c0.745,0,1.348-0.601,1.348-1.342
		c0-0.679-0.507-1.243-1.165-1.329c-0.061-0.099-0.139-0.304-0.139-0.59c0-0.283,0.078-0.489,0.139-0.587
		c0.138-0.019,0.265-0.069,0.386-0.125c1.193-0.32,2.083-1.542,2.083-3.121C12.869,22.681,11.705,21.251,10.218,21.251z"/>
	<path style="fill:#231F20;" d="M15.721,21.705c0,6.116,4.985,11.089,11.12,11.089c6.136,0,11.126-4.974,11.126-11.089
		c0-1.355-0.246-2.652-0.694-3.857c1.262-1.367,2.016-3.107,2.016-5.001c0-1.699-0.611-3.279-1.651-4.575
		c-0.184-0.068-0.377-0.131-0.579-0.192c-0.493-0.152-1.032-0.299-1.614-0.426c-0.723-0.157-1.187-0.873-1.027-1.596
		c0.019-0.086,0.044-0.161,0.076-0.238c0.251-0.581,0.884-0.925,1.524-0.787c0.152,0.031,0.306,0.068,0.455,0.103
		C35.163,2.132,31.846,0,27.954,0c-5.029,0-9.102,3.56-9.108,7.958c1.039-0.447,2.271-0.84,3.711-1.154
		c0.462-0.098,0.919,0.049,1.233,0.358c0.18,0.173,0.311,0.402,0.369,0.665c0.049,0.225,0.04,0.449-0.022,0.655
		c-0.127,0.459-0.502,0.836-1.006,0.943c-0.483,0.107-0.938,0.222-1.358,0.349c-0.938,0.274-1.732,0.59-2.389,0.908
		c-0.439,0.22-0.816,0.44-1.132,0.644c-0.003,0.005-0.003,0.005-0.008,0.009c-0.479,0.51-0.889,1.079-1.212,1.683
		c-0.131,0.246-0.247,0.491-0.347,0.746v0.005c-0.327,0.821-0.507,1.704-0.507,2.621c0,0.55,0.062,1.088,0.185,1.606V18
		C15.945,19.159,15.721,20.408,15.721,21.705z M18.414,21.621c0.024-2.574,1.215-4.868,3.063-6.394
		c0.358-0.295,0.735-0.559,1.141-0.786c1.238-0.726,2.686-1.138,4.223-1.138c1.963,0,3.771,0.672,5.207,1.795
		c0.906,0.711,1.665,1.605,2.217,2.626c0.318,0.585,0.568,1.217,0.745,1.877c0.172,0.671,0.267,1.378,0.267,2.104
		c0,4.634-3.783,8.406-8.436,8.406c-4.648,0-8.427-3.772-8.427-8.406V21.621z"/>
</g>
</svg>
