<?xml version="1.0" encoding="iso-8859-1"?>
<!-- Generator: Adobe Illustrator 16.0.4, SVG Export Plug-In . SVG Version: 6.00 Build 0)  -->
<!DOCTYPE svg PUBLIC "-//W3C//DTD SVG 1.1//EN" "http://www.w3.org/Graphics/SVG/1.1/DTD/svg11.dtd">
<svg version="1.1" id="Layer_1" xmlns="http://www.w3.org/2000/svg" xmlns:xlink="http://www.w3.org/1999/xlink" x="0px" y="0px"
	 width="30.479px" height="52.285px" viewBox="0 0 30.479 52.285" style="enable-background:new 0 0 30.479 52.285;"
	 xml:space="preserve">
<g>
	<path d="M13.164,17.167c0.096,0.219,0.21,0.427,0.336,0.626c0.006,0.01,0.01,0.021,0.017,0.031
		c0.402,0.626,0.948,1.152,1.588,1.532c0.714,0.424,1.545,0.667,2.433,0.667c2.646,0,4.788-2.149,4.788-4.798v0v0
		c0-0.662-0.134-1.292-0.376-1.866c-0.727-1.721-2.427-2.93-4.412-2.931c-2.643,0-4.784,2.149-4.784,4.796v0v0
		C12.753,15.919,12.901,16.572,13.164,17.167z"/>
	<path d="M28.765,0H1.714C0.767,0,0,0.77,0,1.718v48.849c0,0.947,0.767,1.718,1.714,1.718h27.051c0.947,0,1.714-0.771,1.714-1.718
		V1.718C30.479,0.77,29.712,0,28.765,0z M1.924,2.917c0-0.527,0.424-0.957,0.95-0.957s0.955,0.43,0.955,0.957
		c0,0.529-0.429,0.957-0.955,0.957S1.924,3.446,1.924,2.917z M15.296,47.21c-6.425,0-11.628-5.222-11.628-11.659
		c0-2.939,1.084-5.619,2.878-7.673c-1.955-1.069-3.28-3.15-3.28-5.538c0-3.062,2.174-5.615,5.062-6.189
		c-0.035-0.304-0.05-0.613-0.05-0.927c0-5.126,4.146-9.283,9.26-9.283c5.118,0,9.265,4.157,9.265,9.283
		c0,4.707-3.495,8.595-8.024,9.199c4.723,1.481,8.146,5.906,8.146,11.128C26.922,41.988,21.719,47.21,15.296,47.21z M27.605,3.874
		c-0.525,0-0.955-0.428-0.955-0.957c0-0.527,0.429-0.957,0.955-0.957c0.527,0,0.95,0.43,0.95,0.957
		C28.555,3.446,28.131,3.874,27.605,3.874z"/>
	<path d="M7.969,24.702c0.454,0.308,1.001,0.487,1.59,0.487c0.169,0,0.339-0.014,0.499-0.044l0.005-0.005
		c0.452-0.075,0.866-0.264,1.214-0.531c0.542-0.407,0.929-1.009,1.067-1.697c0.041-0.183,0.058-0.374,0.058-0.571v0v0
		c0-1.311-0.88-2.4-2.075-2.738c-0.246-0.07-0.5-0.119-0.769-0.119c-0.08,0-0.159,0.005-0.241,0.014
		c-1.459,0.12-2.601,1.342-2.601,2.842C6.716,23.324,7.213,24.191,7.969,24.702z"/>
	<path d="M15.296,27.646c-4.359,0-7.889,3.539-7.889,7.904c0,4.366,3.528,7.905,7.889,7.905c4.354,0,7.886-3.539,7.886-7.905
		C23.182,31.186,19.652,27.646,15.296,27.646z M15.296,40.073c-2.493,0-4.51-2.027-4.51-4.522c0-2.498,2.017-4.521,4.51-4.521
		c2.491,0,4.509,2.025,4.509,4.521C19.805,38.046,17.788,40.073,15.296,40.073z"/>
</g>
</svg>
