<?xml version="1.0" encoding="iso-8859-1"?>
<!-- Generator: Adobe Illustrator 16.0.4, SVG Export Plug-In . SVG Version: 6.00 Build 0)  -->
<!DOCTYPE svg PUBLIC "-//W3C//DTD SVG 1.1//EN" "http://www.w3.org/Graphics/SVG/1.1/DTD/svg11.dtd">
<svg version="1.1" id="Layer_1" xmlns="http://www.w3.org/2000/svg" xmlns:xlink="http://www.w3.org/1999/xlink" x="0px" y="0px"
	 width="44.852px" height="43.086px" viewBox="0 0 44.852 43.086" style="enable-background:new 0 0 44.852 43.086;"
	 xml:space="preserve">
<path d="M43.888,0h-8.631c-0.536,0-0.967,0.437-0.967,0.97v7.635h-7.608c-0.531,0-0.962,0.432-0.962,0.965v7.635h-7.608
	c-0.536,0-0.968,0.432-0.968,0.97v7.714H9.535c-0.529,0-0.959,0.432-0.959,0.963v7.636H0.967C0.431,34.488,0,34.92,0,35.458v6.664
	c0,0.531,0.431,0.965,0.967,0.965H43.89c0.53,0,0.962-0.434,0.962-0.965V0.97C44.852,0.437,44.42,0,43.888,0z"/>
</svg>
