<?xml version="1.0" encoding="iso-8859-1"?>
<!-- Generator: Adobe Illustrator 16.0.4, SVG Export Plug-In . SVG Version: 6.00 Build 0)  -->
<!DOCTYPE svg PUBLIC "-//W3C//DTD SVG 1.1//EN" "http://www.w3.org/Graphics/SVG/1.1/DTD/svg11.dtd">
<svg version="1.1" id="Layer_1" xmlns="http://www.w3.org/2000/svg" xmlns:xlink="http://www.w3.org/1999/xlink" x="0px" y="0px"
	 width="48.609px" height="44.824px" viewBox="0 0 48.609 44.824" style="enable-background:new 0 0 48.609 44.824;"
	 xml:space="preserve">
<path d="M40.875,0L24.087,28.369c0,0-1.239,2.057-4.957,1.646c-3.717-0.411-4.543-0.411-6.194,1.235
	c-1.654,1.644-2.893,2.056-7.85,2.879c-4.958,0.82-7.435,4.111-2.066,6.58c5.372,2.467,15.893,4.084,15.893,4.084l4.762,0.029
	c0,0,3.718-1.234,7.435-11.105c3.304-9.463,9.087-10.283,9.087-10.283s0.787,13.686,0.442,17.038v0.009
	c-0.008,0.04-0.011,0.077-0.015,0.117c0,0.001-0.002,0.004,0,0.009c-0.013,0.103-0.015,0.204-0.015,0.31
	c0,1.021,0.463,1.849,1.031,1.849c0.248,0,0.479-0.158,0.653-0.421c0.04-0.467,0.113-1.303,0.222-2.404
	c0.607-6.023,2.374-20.057,6.095-26.047C48.457,10.269,49.406,7.42,40.875,0z"/>
</svg>
