<?xml version="1.0" encoding="iso-8859-1"?>
<!-- Generator: Adobe Illustrator 16.0.4, SVG Export Plug-In . SVG Version: 6.00 Build 0)  -->
<!DOCTYPE svg PUBLIC "-//W3C//DTD SVG 1.1//EN" "http://www.w3.org/Graphics/SVG/1.1/DTD/svg11.dtd">
<svg version="1.1" id="Layer_1" xmlns="http://www.w3.org/2000/svg" xmlns:xlink="http://www.w3.org/1999/xlink" x="0px" y="0px"
	 width="85.836px" height="23.42px" viewBox="0 0 85.836 23.42" style="enable-background:new 0 0 85.836 23.42;"
	 xml:space="preserve">
<path d="M85.735,11.623c0.021,0.083,0.042,0.168,0.062,0.255c-0.02-0.091-0.042-0.186-0.064-0.279v-0.001
	c0-0.001-0.001-0.002-0.001-0.003c-0.007-0.027-0.012-0.053-0.019-0.08c0.005,0.021,0.01,0.045,0.014,0.067
	c-0.169-0.634-0.403-1.268-0.785-1.826c-0.688-1.001-1.713-1.78-2.869-2.188c-1.465-0.514-2.879-0.215-4.357,0.035
	c-1.689,0.285-3.359,0.647-5.046,0.918c-1.26,0.203-2.521,0.378-3.785,0.535l0.183-1.416c0-0.996-0.813-1.803-1.818-1.803h-2.574
	L68.249,5c0.72-0.169,1.167-0.883,0.997-1.601c-0.169-0.712-0.889-1.154-1.613-0.987l-5.977,1.399
	c-0.316-0.327-0.795-0.482-1.268-0.371l-3.781,0.885c-0.166-0.319-0.461-0.572-0.832-0.672l-6.58-1.802
	c-0.715-0.197-1.451,0.216-1.647,0.925c-0.019,0.067-0.032,0.132-0.04,0.194l-1.367,0.32c0.143-0.271,0.191-0.593,0.115-0.917
	c-0.169-0.714-0.893-1.156-1.613-0.987L42.016,2c-0.103-0.065-0.22-0.114-0.343-0.148l-6.578-1.803
	c-0.716-0.197-1.453,0.215-1.65,0.924c-0.197,0.705,0.219,1.44,0.934,1.634l2.891,0.792c-0.013,0.012-0.023,0.023-0.031,0.037
	l-5.788-1.585c-0.219-0.063-0.442-0.063-0.648-0.019l-3.239-0.885c-0.711-0.195-1.453,0.22-1.65,0.929
	c-0.197,0.705,0.223,1.435,0.934,1.634l0.487,0.132c-0.277,0.072-0.533,0.232-0.715,0.454c-0.152-0.037-0.3-0.049-0.448-0.037
	c-0.209-0.012-0.412,0.023-0.594,0.095l-3.472-0.955c-0.715-0.194-1.453,0.223-1.65,0.932c-0.197,0.705,0.22,1.435,0.935,1.634
	l0.259,0.072h-3.089c-1.006,0-1.819,0.807-1.819,1.803l0.18,1.377c-0.764-0.097-1.533-0.204-2.298-0.315
	c-2.4-0.345-4.783-0.818-7.177-1.212C6.369,7.311,5.292,7.156,4.211,7.404C3.25,7.626,2.348,8.122,1.634,8.787
	c-2.369,2.191-2.145,6.147,0.567,8.149c0.879,0.65,1.917,0.946,2.994,1.15c1.238,0.23,2.472,0.464,3.714,0.678
	c2.538,0.435,5.09,0.758,7.637,1.135c0.608,0.088,1.216,0.17,1.824,0.248l0.192,1.469c0,0.996,0.812,1.803,1.819,1.803h45.042
	c1.005,0,1.824-0.807,1.824-1.803l0.192-1.479c3.441-0.416,6.873-0.938,10.297-1.52c2.203-0.368,4.764-0.568,6.431-2.157
	C85.5,15.195,86.088,13.34,85.735,11.623z"/>
</svg>
