<?xml version="1.0" encoding="iso-8859-1"?>
<!-- Generator: Adobe Illustrator 16.0.4, SVG Export Plug-In . SVG Version: 6.00 Build 0)  -->
<!DOCTYPE svg PUBLIC "-//W3C//DTD SVG 1.1//EN" "http://www.w3.org/Graphics/SVG/1.1/DTD/svg11.dtd">
<svg version="1.1" id="Layer_1" xmlns="http://www.w3.org/2000/svg" xmlns:xlink="http://www.w3.org/1999/xlink" x="0px" y="0px"
	 width="55.783px" height="55.739px" viewBox="0 0 55.783 55.739" style="enable-background:new 0 0 55.783 55.739;"
	 xml:space="preserve">
<g>
	<path d="M8.604,26.535H1.335C0.596,26.535,0,27.13,0,27.87c0,0.732,0.596,1.333,1.335,1.333h7.269c0.739,0,1.335-0.597,1.335-1.333
		C9.939,27.129,9.343,26.534,8.604,26.535z"/>
	<path d="M13.31,15.185c0.258,0.263,0.601,0.394,0.943,0.394c0.342,0,0.685-0.131,0.944-0.394c0.521-0.518,0.521-1.365,0-1.884
		l-2.57-2.571c-0.521-0.521-1.365-0.521-1.886,0s-0.525,1.366,0,1.887L13.31,15.185z"/>
	<path d="M27.889,45.801c-0.734,0-1.335,0.596-1.335,1.336v7.266c0,0.735,0.601,1.335,1.335,1.335c0.739,0,1.334-0.6,1.334-1.335
		v-7.266c0-0.37-0.15-0.702-0.391-0.942C28.592,45.952,28.258,45.801,27.889,45.801z"/>
	<path d="M54.448,26.535h-7.27c-0.738,0-1.334,0.595-1.334,1.335c0,0.732,0.596,1.333,1.334,1.333h7.27
		c0.736,0,1.335-0.597,1.335-1.333C55.783,27.129,55.187,26.534,54.448,26.535z"/>
	<path d="M42.474,40.551c-0.524-0.52-1.365-0.52-1.891,0c-0.521,0.521-0.521,1.367,0,1.888l2.572,2.567
		c0.258,0.26,0.602,0.39,0.943,0.39s0.68-0.13,0.943-0.39c0.521-0.519,0.521-1.363,0-1.889L42.474,40.551z"/>
	<path d="M13.309,40.551l-2.568,2.566c-0.526,0.521-0.526,1.365-0.005,1.885c0.263,0.263,0.606,0.393,0.948,0.393
		c0.338,0,0.681-0.13,0.943-0.389l2.57-2.568c0.525-0.521,0.525-1.365,0.003-1.887C14.675,40.03,13.83,40.03,13.309,40.551z"/>
	<path d="M27.889,9.934c0.739,0,1.334-0.6,1.334-1.333V1.333C29.224,0.6,28.628,0,27.889,0c-0.734,0-1.335,0.6-1.335,1.333v7.268
		C26.554,9.334,27.155,9.934,27.889,9.934z"/>
	<path d="M43.155,10.73l-2.572,2.571c-0.521,0.518-0.521,1.365,0,1.884c0.264,0.259,0.604,0.394,0.943,0.394
		c0.342,0,0.684-0.136,0.943-0.394l2.572-2.568c0.521-0.521,0.521-1.366,0-1.887C44.522,10.208,43.676,10.208,43.155,10.73z"/>
	<path d="M27.889,15.342c-6.921,0-12.534,5.609-12.534,12.528c0,6.916,5.614,12.526,12.534,12.526
		c6.924,0,12.538-5.61,12.538-12.526C40.427,20.95,34.813,15.341,27.889,15.342z"/>
</g>
</svg>
