<?xml version="1.0" encoding="iso-8859-1"?>
<!-- Generator: Adobe Illustrator 16.0.4, SVG Export Plug-In . SVG Version: 6.00 Build 0)  -->
<!DOCTYPE svg PUBLIC "-//W3C//DTD SVG 1.1//EN" "http://www.w3.org/Graphics/SVG/1.1/DTD/svg11.dtd">
<svg version="1.1" id="Layer_1" xmlns="http://www.w3.org/2000/svg" xmlns:xlink="http://www.w3.org/1999/xlink" x="0px" y="0px"
	 width="66.514px" height="49.805px" viewBox="0 0 66.514 49.805" style="enable-background:new 0 0 66.514 49.805;"
	 xml:space="preserve">
<g>
	<path d="M66.362,10.939c-0.339-0.657-1.151-0.914-1.809-0.572l-44.33,23.067c-0.657,0.34-0.913,1.153-0.572,1.814
		c0.237,0.463,0.707,0.729,1.189,0.729c0.212,0,0.422-0.05,0.619-0.152l44.33-23.069C66.448,12.412,66.702,11.599,66.362,10.939z"/>
	<path d="M15.296,36.677c0.145-0.197,0.225-0.418,0.225-0.646c0-0.911-1.258-1.654-2.812-1.654c-1.011,0-1.903,0.32-2.398,0.801
		c-0.516-0.339-1.258-0.55-2.086-0.55c-0.52,0-1.013,0.086-1.43,0.229c-0.505-0.296-1.207-0.481-1.978-0.481
		c-1.554,0-2.812,0.742-2.812,1.654c0,0.326,0.164,0.637,0.451,0.893C0.931,37.421,0,38.082,0,38.81
		c0,0.075,0.008,0.153,0.035,0.224C0.013,39.137,0,39.245,0,39.353v7.461c0,0.044,0,0.084,0.008,0.129C0,46.971,0,46.997,0,47.025
		c0,0.238,0.103,0.471,0.295,0.695c0,0.005,0.004,0.01,0.015,0.014c0.138,0.185,0.321,0.336,0.527,0.444
		c1.47,0.961,4.713,1.626,8.479,1.626c3.773,0,7.022-0.67,8.487-1.635c0.206-0.104,0.381-0.251,0.519-0.436
		c0.009-0.004,0.014-0.009,0.014-0.014c0.192-0.225,0.296-0.458,0.296-0.695c0-0.027,0-0.054-0.01-0.082
		c0.01-0.045,0.01-0.085,0.01-0.129v-7.461c0-0.107-0.015-0.216-0.036-0.319c0.026-0.07,0.036-0.148,0.036-0.224
		C18.631,37.953,17.332,37.189,15.296,36.677z"/>
	<path d="M17.82,32.688c0.282,0,0.563-0.091,0.805-0.27l40.002-29.99c0.596-0.445,0.718-1.288,0.273-1.885
		c-0.443-0.6-1.285-0.719-1.881-0.275l-40,29.989c-0.596,0.451-0.716,1.295-0.273,1.887C17.01,32.499,17.414,32.688,17.82,32.688z"
		/>
</g>
</svg>
