<?xml version="1.0" encoding="iso-8859-1"?>
<!-- Generator: Adobe Illustrator 16.0.4, SVG Export Plug-In . SVG Version: 6.00 Build 0)  -->
<!DOCTYPE svg PUBLIC "-//W3C//DTD SVG 1.1//EN" "http://www.w3.org/Graphics/SVG/1.1/DTD/svg11.dtd">
<svg version="1.1" id="Layer_1" xmlns="http://www.w3.org/2000/svg" xmlns:xlink="http://www.w3.org/1999/xlink" x="0px" y="0px"
	 width="39.104px" height="46.541px" viewBox="0 0 39.104 46.541" style="enable-background:new 0 0 39.104 46.541;"
	 xml:space="preserve">
<path d="M37.762,0H1.341C0.6,0,0,0.598,0,1.34V45.2c0,0.742,0.601,1.341,1.341,1.341h36.422c0.74,0,1.34-0.599,1.34-1.341V1.34
	C39.103,0.598,38.504,0,37.762,0z M19.555,44.822c-0.717,0-1.292-0.582-1.292-1.289c0-0.714,0.575-1.292,1.292-1.292
	c0.71,0,1.285,0.578,1.285,1.292C20.841,44.24,20.265,44.822,19.555,44.822z M35.948,38.981L35.948,38.981
	c-0.001,0.619-0.501,1.125-1.124,1.125H4.284c-0.621,0-1.126-0.506-1.126-1.125V3.987c0-0.621,0.505-1.126,1.126-1.126h30.541
	c0.622,0,1.123,0.505,1.123,1.126V38.981z"/>
</svg>
