<?xml version="1.0" encoding="iso-8859-1"?>
<!-- Generator: Adobe Illustrator 16.0.4, SVG Export Plug-In . SVG Version: 6.00 Build 0)  -->
<!DOCTYPE svg PUBLIC "-//W3C//DTD SVG 1.1//EN" "http://www.w3.org/Graphics/SVG/1.1/DTD/svg11.dtd">
<svg version="1.1" id="Layer_1" xmlns="http://www.w3.org/2000/svg" xmlns:xlink="http://www.w3.org/1999/xlink" x="0px" y="0px"
	 width="41.797px" height="59.756px" viewBox="0 0 41.797 59.756" style="enable-background:new 0 0 41.797 59.756;"
	 xml:space="preserve">
<path d="M41.725,11.052c-0.096-1.125-0.262-2.178-0.523-3.159c-0.144-0.598-0.334-1.148-0.525-1.65
	c-0.191-0.526-0.43-1.004-0.668-1.458c-0.811-1.459-1.859-2.632-3.17-3.445c-1.287-0.79-2.767-1.244-4.459-1.315
	C32.213,0,32.023,0,31.855,0c-0.356,0-0.715,0.024-1.071,0.048c-0.549,0.048-1.121,0.144-1.693,0.239
	c-1.025,0.215-2.051,0.526-3.075,0.933c-0.382,0.143-0.765,0.312-1.146,0.503c-0.477,0.19-0.953,0.43-1.406,0.693
	c-0.357,0.167-0.69,0.358-1.024,0.574c-0.953,0.55-1.884,1.196-2.741,1.867c-0.406,0.311-0.811,0.645-1.216,1.004
	c-0.357,0.286-0.691,0.598-1.024,0.932c-0.525,0.502-1.025,1.029-1.455,1.556c-0.31,0.358-0.596,0.717-0.858,1.052
	c-0.214,0.334-0.453,0.646-0.644,0.98c-0.166,0.264-0.31,0.527-0.477,0.814c-0.214,0.382-0.405,0.79-0.596,1.196
	c-0.285,0.646-0.549,1.315-0.763,2.009c-0.143,0.431-0.286,0.861-0.405,1.315c-0.167,0.574-0.31,1.172-0.429,1.794
	c-0.214,1.054-0.381,2.154-0.476,3.277c-0.025,0.287-0.025,0.598-0.048,0.886v0.358c-0.024,0-0.024,0.024-0.024,0.048
	s0,0.024,0,0.048v0.479c0,0.167,0,0.382-0.023,0.621c0,0.479-0.024,1.077-0.048,1.794c-0.047,0.79-0.072,1.698-0.143,2.728
	c-0.12,2.536-0.357,5.574-0.692,8.468c-0.334,2.895-0.81,5.622-1.454,7.487L0.197,57.699c-0.382,0.622-0.191,1.459,0.429,1.842
	c0.238,0.144,0.476,0.215,0.715,0.215c0.453,0,0.882-0.239,1.121-0.646l8.725-13.995c-0.048,0.024-0.071,0.073-0.095,0.096
	c0.072-0.071,0.143-0.167,0.191-0.263l-0.095,0.167c2.932-2.966,9.25-6.722,13.375-9.019c0.93-0.503,1.74-0.957,2.384-1.293
	c0.644-0.334,1.097-0.574,1.334-0.693c0.024-0.023,0.048-0.023,0.072-0.047c0.022-0.024,0.048-0.024,0.071-0.049h0.048
	c0-0.024,0-0.024,0.024-0.024c0.453-0.214,0.905-0.454,1.357-0.693c0.262-0.144,0.525-0.287,0.787-0.455
	c0.953-0.573,1.884-1.196,2.74-1.864c0.478-0.384,0.953-0.768,1.384-1.148c0.356-0.312,0.69-0.623,1.024-0.958
	c0.5-0.502,1.002-1.028,1.431-1.578c0.311-0.335,0.573-0.694,0.834-1.052c0.19-0.264,0.356-0.527,0.524-0.79
	c0.191-0.311,0.381-0.646,0.571-1.004c0.216-0.383,0.406-0.79,0.573-1.221c0.285-0.621,0.548-1.315,0.762-2.009
	c0.143-0.431,0.286-0.885,0.405-1.34c0.144-0.502,0.263-1.029,0.358-1.555c0.215-1.077,0.381-2.153,0.453-3.254
	c0.049-0.407,0.071-0.789,0.071-1.172c0.024-0.383,0.024-0.765,0.024-1.148v-0.431C41.773,11.89,41.75,11.458,41.725,11.052z
	 M38.77,9.281c0.096,0.407,0.167,0.837,0.214,1.292l-0.715-0.455L38.77,9.281z M37.196,5.334c0,0.024,0.023,0.048,0.049,0.072
	l-0.072-0.048L37.196,5.334z M38.245,7.607l-1.119,1.794l-1.789-1.125l1.121-1.77L38.245,7.607z M16.741,29.137l-1.788-1.1
	l1.121-1.794l1.788,1.124L16.741,29.137z M17.171,31.002l1.763,1.101l-0.357,0.574c-0.334-0.119-0.644-0.287-0.93-0.453
	c-0.31-0.191-0.572-0.408-0.833-0.646L17.171,31.002z M15.55,29.974l0.308,0.201l-0.299-0.188
	C15.555,29.982,15.553,29.979,15.55,29.974z M15.886,30.497L15.884,30.5c-0.074-0.104-0.141-0.217-0.208-0.327
	C15.745,30.282,15.812,30.394,15.886,30.497z M16.766,25.094l1.12-1.771l1.788,1.1l-1.12,1.794L16.766,25.094z M24.441,19.304
	l1.788,1.102L25.11,22.2l-1.788-1.125L24.441,19.304z M22.202,20.381l-1.789-1.125l1.121-1.794l1.788,1.125L22.202,20.381z
	 M25.157,18.156l1.098-1.794l1.787,1.125l-1.097,1.794L25.157,18.156z M26.969,15.239l1.121-1.794l1.787,1.124l-1.121,1.794
	L26.969,15.239z M30.997,15.262l1.789,1.125l-1.121,1.794l-1.787-1.125L30.997,15.262z M31.713,14.138l1.096-1.794l1.788,1.124
	l-1.121,1.794L31.713,14.138z M32.404,10.502l-1.788-1.125l1.098-1.77l1.789,1.1L32.404,10.502z M31.689,11.65l-1.12,1.77
	l-1.788-1.124l1.12-1.771L31.689,11.65z M27.661,11.602l-1.789-1.125l1.121-1.794l1.788,1.125L27.661,11.602z M26.945,12.726
	l-1.098,1.794l-1.788-1.124l1.098-1.771L26.945,12.726z M25.133,15.668l-1.12,1.771l-1.788-1.101l1.12-1.794L25.133,15.668z
	 M22.917,12.703l-1.765-1.125l1.097-1.794l1.789,1.125L22.917,12.703z M22.225,13.827l-1.121,1.794l-1.788-1.125l1.121-1.771
	L22.225,13.827z M20.389,16.77l-1.097,1.77l-1.788-1.101l1.121-1.794L20.389,16.77z M18.577,19.687l-1.12,1.794l-1.788-1.124
	l1.12-1.794L18.577,19.687z M18.602,22.175l1.096-1.77l1.788,1.101L20.365,23.3L18.602,22.175z M20.794,25.142l1.789,1.124
	l-1.121,1.794l-1.764-1.124L20.794,25.142z M21.508,24.018l1.121-1.794l1.789,1.101l-1.121,1.794L21.508,24.018z M23.727,26.959
	l1.764,1.125l-1.097,1.794l-1.788-1.125L23.727,26.959z M24.418,25.835l1.119-1.794l1.789,1.125l-1.121,1.794L24.418,25.835z
	 M26.254,22.917l1.096-1.794l1.788,1.124l-1.121,1.771L26.254,22.917z M28.065,19.975l1.121-1.771l1.764,1.1l-1.098,1.794
	L28.065,19.975z M30.284,22.94l1.764,1.125l-1.098,1.794l-1.787-1.125L30.284,22.94z M30.974,21.817l1.12-1.794l1.787,1.123
	l-1.119,1.771L30.974,21.817z M32.81,18.898l1.096-1.794l1.788,1.1l-1.121,1.794L32.81,18.898z M34.622,15.956l1.121-1.794
	l1.762,1.125l-1.096,1.794L34.622,15.956z M35.312,12.319l-1.788-1.1l1.121-1.794l1.788,1.125L35.312,12.319z M34.478,3.157
	c0.334,0.12,0.668,0.287,0.953,0.456c0.312,0.19,0.573,0.406,0.835,0.669l-0.239,0.383L34.239,3.54L34.478,3.157z M33.143,2.775
	L33.12,2.823l-0.096-0.048H33.143z M33.549,4.665l1.787,1.124l-1.121,1.794l-1.787-1.124L33.549,4.665z M30.616,2.846l1.788,1.125
	l-1.097,1.77l-1.788-1.1L30.616,2.846z M30.592,6.889L29.471,8.66l-1.788-1.1l1.121-1.794L30.592,6.889z M28.9,3.086l-0.524,0.837
	l-0.715-0.454C28.065,3.325,28.495,3.182,28.9,3.086z M25.681,4.258l0.214-0.312l0.215,0.12l1.573,1.005l-1.12,1.77L24.775,5.74
	L25.681,4.258z M24.084,6.866l1.763,1.124L24.75,9.784L22.963,8.66L24.084,6.866z M22.678,5.98l0.262,0.167l-1.121,1.794
	l-0.953-0.598C21.438,6.866,22.034,6.412,22.678,5.98z M19.793,8.253l1.334,0.836l-1.12,1.771l-1.74-1.077
	C18.743,9.258,19.245,8.755,19.793,8.253z M17.528,10.884l1.764,1.125l-1.097,1.794l-1.788-1.125L17.528,10.884z M15.716,13.827
	l1.764,1.101l-1.121,1.794l-1.358-0.862C15.215,15.143,15.454,14.472,15.716,13.827z M14.619,17.199l1.05,0.646l-1.121,1.794
	l-0.334-0.215C14.31,18.683,14.453,17.941,14.619,17.199z M13.928,23.157h0.024v-0.025l1.026-1.65l1.788,1.125L15.645,24.4
	l-1.693-1.052l-0.024-0.024l-0.071-0.048L13.928,23.157z M14.93,25.524l-0.62,1.029c-0.119-0.502-0.191-1.029-0.239-1.579
	L14.93,25.524z M12.426,40.571c0.5-2.703,0.835-5.885,1.073-8.803c0.739,1.125,1.645,2.058,2.718,2.728
	c1.072,0.646,2.264,1.077,3.599,1.244C17.337,37.198,14.667,38.897,12.426,40.571z M19.936,33.06l0.006-0.01
	c0.195,0.033,0.396,0.058,0.598,0.071l0.016,0.011C20.342,33.106,20.151,33.083,19.936,33.06z M19.65,30.979l-1.788-1.125
	l1.12-1.794l1.788,1.125L19.65,30.979z M22.558,32.796l-1.764-1.124l1.097-1.771l1.788,1.101L22.558,32.796z M24.18,32.749
	l0.645-1.027l0.881,0.549C25.181,32.461,24.68,32.629,24.18,32.749z M27.374,31.577l-0.07,0.119l-0.096-0.049l-1.692-1.053
	l1.12-1.794l1.787,1.1L27.374,31.577z M29.114,28.778l-1.764-1.125l1.097-1.771l1.788,1.101L29.114,28.778z M30.616,29.71
	l-0.357-0.215l1.097-1.794l1.049,0.646C31.833,28.825,31.236,29.281,30.616,29.71z M33.454,27.414l-1.383-0.861l1.12-1.771
	l1.765,1.101C34.502,26.41,34.002,26.912,33.454,27.414z M35.67,24.759l-1.789-1.125l1.121-1.794l1.789,1.125L35.67,24.759z
	 M37.435,21.792l-1.718-1.076l1.098-1.794l1.335,0.837C37.935,20.477,37.697,21.146,37.435,21.792z M38.506,18.396l-0.976-0.598
	l1.12-1.794l0.264,0.168C38.793,16.912,38.674,17.654,38.506,18.396z M38.221,14.162l-1.788-1.124l1.12-1.794l1.549,0.98
	c0.023,0.168,0.023,0.312,0.023,0.479L38.221,14.162z"/>
</svg>
