<?xml version="1.0" encoding="iso-8859-1"?>
<!-- Generator: Adobe Illustrator 16.0.4, SVG Export Plug-In . SVG Version: 6.00 Build 0)  -->
<!DOCTYPE svg PUBLIC "-//W3C//DTD SVG 1.1//EN" "http://www.w3.org/Graphics/SVG/1.1/DTD/svg11.dtd">
<svg version="1.1" id="Layer_1" xmlns="http://www.w3.org/2000/svg" xmlns:xlink="http://www.w3.org/1999/xlink" x="0px" y="0px"
	 width="78.203px" height="31.598px" viewBox="0 0 78.203 31.598" style="enable-background:new 0 0 78.203 31.598;"
	 xml:space="preserve">
<g>
	<path d="M76.859,13.519H1.344C0.602,13.519,0,14.122,0,14.866V30.18c0,0.741,0.602,1.346,1.344,1.346
		c0.743,0,1.343-0.604,1.343-1.346v-13.97h3.135v13.97c0,0.147,0.028,0.288,0.074,0.423C5.843,30.7,5.81,30.808,5.81,30.925
		c0,0.371,0.301,0.672,0.672,0.672H71.72c0.371,0,0.671-0.302,0.671-0.672c0-0.244-0.13-0.458-0.324-0.575
		c0.007-0.057,0.019-0.113,0.019-0.169v-13.97h3.431v13.97c0,0.741,0.603,1.346,1.344,1.346c0.743,0,1.343-0.604,1.343-1.346V14.866
		C78.203,14.122,77.602,13.519,76.859,13.519z M67.257,16.212h2.141v1.841h-2.141V16.212z M67.257,19.398h2.141v1.597h-2.141V19.398
		z M67.257,22.343h2.141v1.6h-2.141V22.343z M67.257,25.287h2.141v1.599h-2.141V25.287z M63.376,16.212h2.537v1.841h-2.537V16.212z
		 M63.376,19.398h2.537v1.597h-2.537V19.398z M63.376,22.343h2.537v1.6h-2.537V22.343z M63.376,25.287h2.537v1.599h-2.537V25.287z
		 M59.496,16.212h2.539v1.841h-2.539V16.212z M59.496,19.398h2.539v1.597h-2.539V19.398z M59.496,22.343h2.539v1.6h-2.539V22.343z
		 M59.496,25.287h2.539v1.599h-2.539V25.287z M55.617,16.212h2.537v1.841h-2.537V16.212z M55.617,19.398h2.537v1.597h-2.537V19.398z
		 M55.617,22.343h2.537v1.6h-2.537V22.343z M55.617,25.287h2.537v1.599h-2.537V25.287z M51.736,16.212h2.538v1.841h-2.538V16.212z
		 M51.736,19.398h2.538v1.597h-2.538V19.398z M51.736,22.343h2.538v1.6h-2.538V22.343z M51.736,25.287h2.538v1.599h-2.538V25.287z
		 M47.856,16.212h2.537v1.841h-2.537V16.212z M47.856,19.398h2.537v1.597h-2.537V19.398z M47.856,22.343h2.537v1.6h-2.537V22.343z
		 M47.856,25.287h2.537v1.599h-2.537V25.287z M43.976,23.942v-1.6h2.537v1.6H43.976z M46.513,25.287v1.599h-2.537v-1.599H46.513z
		 M43.975,16.212h2.537v1.841h-2.537V16.212z M43.975,19.398h2.537v1.597h-2.537V19.398z M40.445,16.212h2.188v1.841h-2.188V16.212z
		 M40.445,19.398h2.188v1.597h-2.188V19.398z M40.445,22.343h2.188v1.6h-2.188V22.343z M40.445,25.287h2.188v1.599h-2.188V25.287z
		 M35.57,16.212h2.188v1.841H35.57V16.212z M35.57,19.398h2.188v1.597H35.57V19.398z M35.57,22.343h2.188v1.6H35.57V22.343z
		 M35.57,25.287h2.188v1.599H35.57V25.287z M31.69,16.212h2.537v1.841H31.69V16.212z M31.69,19.398h2.537v1.597H31.69V19.398z
		 M31.69,22.343h2.537v1.6H31.69V22.343z M31.69,25.287h2.537v1.599H31.69V25.287z M27.81,16.212h2.537v1.841H27.81V16.212z
		 M27.81,19.398h2.537v1.597H27.81V19.398z M27.81,22.343h2.537v1.6H27.81V22.343z M27.81,25.287h2.537v1.599H27.81V25.287z
		 M23.929,16.212h2.538v1.841h-2.538V16.212z M23.929,19.398h2.538v1.597h-2.538V19.398z M23.928,22.343h2.538v1.6h-2.538V22.343z
		 M23.928,25.287h2.538v1.599h-2.538V25.287z M20.05,16.212h2.537v1.841h-0.001H20.05V16.212z M20.05,19.398h2.537v1.597h-0.001
		H20.05V19.398z M20.05,22.343h2.537v1.6h-0.001H20.05V22.343z M20.05,25.287h2.537v1.599H20.05V25.287z M16.169,16.212h2.537v1.841
		h-2.537V16.212z M16.169,19.398h2.537v1.597h-2.537V19.398z M16.169,22.343h2.537v1.6h-2.537V22.343z M16.169,25.287h2.537v1.599
		h-2.537V25.287z M12.288,16.212h2.538v1.841h-2.538V16.212z M12.288,19.398h2.538v1.597h-2.538V19.398z M12.288,22.343h2.538v1.6
		h-2.538V22.343z M12.288,25.287h2.538v1.599h-2.538V25.287z M8.508,16.211h2.437v1.841H8.508V16.211z M8.508,19.398h2.437v1.597
		H8.508V19.398z M8.508,22.343h2.437v1.6H8.508V22.343z M8.508,25.287h2.437v1.599H8.508V25.287z M8.501,30.251
		c0.001-0.022,0.007-0.047,0.007-0.069v-1.949h2.437v1.949c0,0.022,0.006,0.047,0.008,0.069H8.501z M12.282,30.251
		c0.003-0.022,0.006-0.047,0.006-0.069v-1.949h2.538v1.949c0,0.022,0.005,0.047,0.008,0.069H12.282z M16.162,30.251
		c0.003-0.022,0.007-0.047,0.007-0.069v-1.949h2.537v1.949c0,0.022,0.005,0.047,0.007,0.069H16.162z M20.043,30.251
		c0.002-0.022,0.007-0.047,0.007-0.069v-1.949h2.537v1.949c0,0.022,0.005,0.047,0.007,0.069H20.043z M23.922,30.251
		c0.003-0.022,0.006-0.047,0.006-0.069v-1.949h2.538v1.949c0,0.022,0.005,0.047,0.007,0.069H23.922z M27.803,30.251
		c0.002-0.022,0.007-0.047,0.007-0.069v-1.949h2.537v1.949c0,0.022,0.006,0.047,0.008,0.069H27.803z M31.683,30.251
		c0.002-0.022,0.007-0.047,0.007-0.069v-1.949h2.537v1.949c0,0.022,0.005,0.047,0.007,0.069H31.683z M35.563,30.251
		c0.002-0.022,0.007-0.047,0.007-0.069v-1.949h2.188v1.949c0,0.022,0.006,0.047,0.007,0.069H35.563z M40.438,30.251
		c0.001-0.022,0.007-0.047,0.007-0.069v-1.949h2.188v1.949c0,0.022,0.007,0.047,0.009,0.069H40.438z M43.97,30.251
		c0.002-0.022,0.006-0.047,0.006-0.069v-1.949h2.537v1.949c0,0.022,0.006,0.047,0.009,0.069H43.97z M47.85,30.251
		c0.002-0.022,0.006-0.047,0.006-0.069v-1.949h2.537v1.949c0,0.022,0.006,0.047,0.007,0.069H47.85z M51.729,30.251
		c0.002-0.022,0.007-0.047,0.007-0.069v-1.949h2.538v1.949c0,0.022,0.005,0.047,0.007,0.069H51.729z M55.61,30.251
		c0.003-0.022,0.007-0.047,0.007-0.069v-1.949h2.537v1.949c0,0.022,0.006,0.047,0.008,0.069H55.61z M59.49,30.251
		c0.004-0.022,0.006-0.047,0.006-0.069v-1.949h2.539v1.949c0,0.022,0.004,0.047,0.006,0.069H59.49z M63.371,30.251
		c0.002-0.022,0.006-0.047,0.006-0.069v-1.949h2.537v1.949c0,0.022,0.006,0.047,0.008,0.069H63.371z M67.25,30.251
		c0.004-0.022,0.008-0.047,0.008-0.069v-1.949h2.141v1.949c0,0.022,0.006,0.047,0.008,0.069H67.25z"/>
	<circle cx="54.026" cy="1.945" r="1.944"/>
</g>
</svg>
