<?xml version="1.0" encoding="iso-8859-1"?>
<!-- Generator: Adobe Illustrator 16.0.4, SVG Export Plug-In . SVG Version: 6.00 Build 0)  -->
<!DOCTYPE svg PUBLIC "-//W3C//DTD SVG 1.1//EN" "http://www.w3.org/Graphics/SVG/1.1/DTD/svg11.dtd">
<svg version="1.1" id="Layer_1" xmlns="http://www.w3.org/2000/svg" xmlns:xlink="http://www.w3.org/1999/xlink" x="0px" y="0px"
	 width="64.662px" height="35.042px" viewBox="0 0 64.662 35.042" style="enable-background:new 0 0 64.662 35.042;"
	 xml:space="preserve">
<g>
	<path d="M64.08,26.703c-0.548-0.306-1.239-0.113-1.542,0.439l-2.275,4.132L42.367,1.907C41.649,0.649,41.521,0,40.478,0H25.183
		c-1.043,0-2.388,0.995-1.885,1.907l19.027,31.227l3.345-5.992c0.304-0.549,0.995-0.75,1.541-0.439
		c0.544,0.305,0.74,1.002,0.437,1.557l-3.336,6.049c-0.183,0.326-0.498,0.531-0.84,0.581c0.228,0.098,0.481,0.151,0.744,0.151
		h15.295c0.258,0,0.497-0.053,0.725-0.146c0.004,0.004,0.004,0.004,0.011,0c0.376-0.016,0.737-0.23,0.938-0.586l3.332-6.049
		C64.823,27.705,64.627,27.007,64.08,26.703z"/>
	<path d="M31.645,20.841c-0.636-1.114-1.68-2.938-2.316-4.052L22.363,4.616c-0.636-1.115-1.679-1.115-2.315,0l-3.244,5.665
		l-14.07,7.667c-0.063,0.033-0.121,0.073-0.173,0.118c-0.829,0.68-1.07,1.66-0.646,2.635c0.205,0.453,0.543,0.902,1.042,1.37
		l0.139,0.128c1.322,1.248,2.887,2.807,4.383,4.391l-2.883,5.039l-2.471-4.486c-0.303-0.553-0.994-0.745-1.542-0.439
		c-0.548,0.305-0.742,1.002-0.44,1.557l3.336,6.049c0.12,0.212,0.294,0.374,0.5,0.473c0.24,0.168,0.575,0.262,0.985,0.262h32.491
		c1.272,0,1.793-0.914,1.157-2.025L31.645,20.841z M14.208,30.91c-1.394-1.951-3.603-4.373-5.545-6.388
		c-2.152-2.226-3.978-3.956-4.022-3.995l-0.142-0.132c-0.262-0.247-0.401-0.431-0.473-0.554l10.619-5.785l6.169-3.363
		C19.419,15.002,16.55,23.767,14.208,30.91z"/>
</g>
</svg>
