<?xml version="1.0" encoding="iso-8859-1"?>
<!-- Generator: Adobe Illustrator 16.0.4, SVG Export Plug-In . SVG Version: 6.00 Build 0)  -->
<!DOCTYPE svg PUBLIC "-//W3C//DTD SVG 1.1//EN" "http://www.w3.org/Graphics/SVG/1.1/DTD/svg11.dtd">
<svg version="1.1" id="Layer_1" xmlns="http://www.w3.org/2000/svg" xmlns:xlink="http://www.w3.org/1999/xlink" x="0px" y="0px"
	 width="28.532px" height="66.422px" viewBox="0 0 28.532 66.422" style="enable-background:new 0 0 28.532 66.422;"
	 xml:space="preserve">
<g>
	<path style="fill:#231F20;" d="M15.049,24.638H14.15v-3.752c0-0.099-0.01-0.197-0.029-0.291c-0.292-2.944-2.762-5.242-5.77-5.242
		c-3.005,0-5.476,2.301-5.766,5.242c-0.02,0.097-0.03,0.192-0.03,0.291v3.752h-0.9C0.74,24.638,0,25.383,0,26.301v38.458
		c0,0.918,0.74,1.663,1.654,1.663h13.396c0.914,0,1.654-0.745,1.654-1.663V26.301C16.702,25.383,15.961,24.638,15.049,24.638z
		 M10.646,32.349H6.057c-0.616,0-1.115-0.501-1.115-1.12s0.499-1.12,1.115-1.12h4.589c0.615,0,1.114,0.501,1.114,1.12
		S11.261,32.349,10.646,32.349z"/>
	<path style="fill:#231F20;" d="M27.834,7.447L17.801,0.306c-0.744-0.531-1.776-0.353-2.303,0.394L8.978,8.99l13.63,9.703l5.62-8.93
		C28.754,9.014,28.579,7.979,27.834,7.447z"/>
</g>
</svg>
