<?xml version="1.0" encoding="iso-8859-1"?>
<!-- Generator: Adobe Illustrator 16.0.4, SVG Export Plug-In . SVG Version: 6.00 Build 0)  -->
<!DOCTYPE svg PUBLIC "-//W3C//DTD SVG 1.1//EN" "http://www.w3.org/Graphics/SVG/1.1/DTD/svg11.dtd">
<svg version="1.1" id="Layer_1" xmlns="http://www.w3.org/2000/svg" xmlns:xlink="http://www.w3.org/1999/xlink" x="0px" y="0px"
	 width="74.756px" height="54.582px" viewBox="0 0 74.756 54.582" style="enable-background:new 0 0 74.756 54.582;"
	 xml:space="preserve">
<g>
	<path d="M63.95,19.913c-2.92-4.57-8.631-8.092-15.631-9.523C45.481,4.277,38.931,0,31.295,0c-8.632,0-15.889,5.473-17.941,12.881
		c-6.725,0.947-11.88,6.325-11.88,12.82c0,7.159,6.261,12.962,13.986,12.962c2.245,0,4.37-0.492,6.248-1.367
		c4.517,4.102,11.635,6.744,19.643,6.744c7.129,0,13.551-2.096,18.062-5.449c0.98,0.199,2.008,0.3,3.068,0.3
		c6.781,0,12.274-4.261,12.274-9.522C74.756,24.491,70.04,20.474,63.95,19.913z"/>
	<path d="M2.789,50.16C1.249,50.16,0,51.15,0,52.369s1.249,2.213,2.789,2.211c1.545,0,2.794-0.992,2.794-2.211
		S4.334,50.16,2.789,50.16z"/>
	<path d="M10.453,42.019c-2.116,0-3.83,1.359-3.83,3.037c0,1.669,1.714,3.029,3.83,3.029c2.115,0,3.834-1.36,3.834-3.029
		C14.287,43.378,12.568,42.019,10.453,42.019z"/>
</g>
</svg>
