<?xml version="1.0" encoding="iso-8859-1"?>
<!-- Generator: Adobe Illustrator 16.0.4, SVG Export Plug-In . SVG Version: 6.00 Build 0)  -->
<!DOCTYPE svg PUBLIC "-//W3C//DTD SVG 1.1//EN" "http://www.w3.org/Graphics/SVG/1.1/DTD/svg11.dtd">
<svg version="1.1" id="Layer_1" xmlns="http://www.w3.org/2000/svg" xmlns:xlink="http://www.w3.org/1999/xlink" x="0px" y="0px"
	 width="36.546px" height="36.064px" viewBox="0 0 36.546 36.064" style="enable-background:new 0 0 36.546 36.064;"
	 xml:space="preserve">
<path d="M36.155,33.773l-8.12-8.163l7.146-7.185c0.598-0.6,0.598-1.571,0-2.171l-10.253,1.098c-0.016-0.01-0.023-0.022-0.032-0.033
	L14.487,9.076l-3.441-5.613c-0.044-0.047-0.094-0.092-0.143-0.127l1.038-1.042c0.525-0.529,0.525-1.379,0-1.904
	c-0.52-0.521-1.367-0.521-1.888,0l-9.66,9.718c-0.522,0.522-0.522,1.375,0,1.897c0.257,0.26,0.6,0.396,0.943,0.396
	c0.342,0,0.685-0.136,0.944-0.396l1.037-1.042c0.04,0.049,0.085,0.099,0.129,0.143l5.583,3.457l8.195,10.471
	c0.014,0.011,0.023,0.021,0.036,0.029l-1.09,10.305c0.591,0.6,1.558,0.6,2.154,0l7.821-7.859l8.121,8.164
	c0.259,0.261,0.603,0.394,0.944,0.394c0.343,0,0.682-0.134,0.943-0.394C36.677,35.15,36.677,34.297,36.155,33.773z"/>
</svg>
