<?xml version="1.0" encoding="iso-8859-1"?>
<!-- Generator: Adobe Illustrator 16.0.4, SVG Export Plug-In . SVG Version: 6.00 Build 0)  -->
<!DOCTYPE svg PUBLIC "-//W3C//DTD SVG 1.1//EN" "http://www.w3.org/Graphics/SVG/1.1/DTD/svg11.dtd">
<svg version="1.1" id="Layer_1" xmlns="http://www.w3.org/2000/svg" xmlns:xlink="http://www.w3.org/1999/xlink" x="0px" y="0px"
	 width="83.95px" height="40.795px" viewBox="0 0 83.95 40.795" style="enable-background:new 0 0 83.95 40.795;"
	 xml:space="preserve">
<g>
	<path d="M74.25,11.616L57.106,0L16.137,20.933L5.162,20.812l-1.333,6.41L0,29.179l3,2.033l-1.139,5.466l9.357,0.104l5.925,4.014
		l7.566-3.867l29.472,0.325l0.198-0.941l2.91-13.992l0.197-0.93l-2.314-0.027L74.25,11.616z M46.979,32.778h-0.014l-13.833-0.152
		l-2.244-0.025h-0.183l-2.054-0.023h-0.005L21.88,32.5l-3.419-0.037l-5.023-0.054c-0.578-0.008-1.041-0.479-1.036-1.051
		c0.009-0.575,0.485-1.041,1.058-1.031l7.922,0.089h0.004l4.486,0.049h0.004l6.754,0.072h0.006l2.058,0.026h0.184l2.242,0.027h0.006
		l9.867,0.105c0.574,0.005,1.041,0.479,1.031,1.054C48.02,32.322,47.552,32.778,46.979,32.778z M48.015,27.803
		c-0.005,0-0.005,0-0.009,0l-5.319-0.058l-2.243-0.028H40.26l-2.059-0.021l-6.764-0.077l-4.486-0.046l-7.576-0.088l-4.48-0.049
		l-0.422-0.004c-0.575-0.01-1.041-0.477-1.031-1.054c0.005-0.577,0.47-1.03,1.053-1.03l4.395,0.049l4.482,0.05l7.575,0.083
		l4.485,0.05l6.764,0.073l2.059,0.023h0.185l2.241,0.026l1.348,0.013c0.58,0.01,1.042,0.479,1.032,1.055
		C49.055,27.343,48.588,27.803,48.015,27.803z M49.875,12.416c-0.203,0.294-0.533,0.456-0.867,0.456c-0.2,0-0.406-0.059-0.588-0.185
		l-4.035-2.732c-0.305-0.206-0.461-0.54-0.458-0.881c0.005-0.196,0.062-0.393,0.181-0.565c0.326-0.479,0.979-0.601,1.453-0.278
		l0.009,0.004l4.027,2.734C50.079,11.289,50.2,11.937,49.875,12.416z M52.459,15.427c-0.476-0.327-0.602-0.974-0.273-1.449
		c0.322-0.472,0.975-0.598,1.454-0.278l4.037,2.738c0.362,0.246,0.519,0.68,0.429,1.086l-1.43,0.733
		c-0.062-0.026-0.121-0.059-0.18-0.098L52.459,15.427z"/>
	<path d="M64.614,20.433l-0.318,0.791l0.082,0.004c-0.037,0.033-0.076,0.063-0.113,0.102c-0.008,0.007-0.02,0.021-0.027,0.025
		l-0.018,0.041c0,0,0,0,0,0.002c-0.032,0.045-0.059,0.094-0.076,0.144L63.956,22l-0.901,2.241c-0.019,0.049-0.032,0.089-0.032,0.138
		v0.002v0.004l-0.027,0.062c0.019,0.353,0.436,0.643,1.061,0.699c0.285,0.016,0.578-0.015,0.833-0.092l-0.556,1.4
		c-0.184-0.11-0.427-0.18-0.709-0.196c-0.367-0.032-0.738,0.03-1.035,0.154c-0.211,0.086-0.381,0.2-0.498,0.336
		c-0.014,0.012-0.026,0.03-0.041,0.042c-0.041,0.052-0.075,0.104-0.1,0.159l-1.089,2.696c-0.028,0.072-0.036,0.133-0.036,0.207
		l0.022-0.06v0.049c0.009,0.349,0.435,0.64,1.058,0.687c0.287,0.023,0.575-0.006,0.829-0.081l-0.569,1.428
		c-0.179-0.117-0.431-0.196-0.731-0.217c-0.366-0.028-0.739,0.03-1.035,0.159c-0.214,0.086-0.392,0.205-0.502,0.341l-0.015,0.04
		l-0.004,0.01c-0.035,0.04-0.06,0.083-0.076,0.128l-0.905,2.244l-0.181,0.458c-0.022,0.044-0.031,0.091-0.035,0.138v0.009
		l-0.02,0.047l-0.058,0.146l-0.317,0.792l19.336,1.504l6.328-15.73L64.614,20.433z"/>
</g>
</svg>
