<?xml version="1.0" encoding="iso-8859-1"?>
<!-- Generator: Adobe Illustrator 16.0.4, SVG Export Plug-In . SVG Version: 6.00 Build 0)  -->
<!DOCTYPE svg PUBLIC "-//W3C//DTD SVG 1.1//EN" "http://www.w3.org/Graphics/SVG/1.1/DTD/svg11.dtd">
<svg version="1.1" id="Layer_1" xmlns="http://www.w3.org/2000/svg" xmlns:xlink="http://www.w3.org/1999/xlink" x="0px" y="0px"
	 width="38.527px" height="55.156px" viewBox="0 0 38.527 55.156" style="enable-background:new 0 0 38.527 55.156;"
	 xml:space="preserve">
<g>
	<path d="M1.341,2.69h35.846c0.739,0,1.341-0.604,1.341-1.345C38.527,0.603,37.926,0,37.186,0H1.341C0.601,0,0,0.603,0,1.345
		C0,2.086,0.601,2.69,1.341,2.69z"/>
	<path d="M25.781,23.99c0.277-0.25,0.519-0.469,0.675-0.612c0.316-0.279,0.594-0.53,0.688-0.619l0.019-0.042l0.004-0.03L31.2,8.555
		h2.648c0.74,0,1.342-0.603,1.342-1.346c0-0.741-0.602-1.342-1.342-1.342H4.68c-0.74,0-1.342,0.602-1.342,1.342
		c0,0.743,0.602,1.346,1.342,1.346h2.67l4.021,14.132l0.01,0.025l0.01,0.014c0.07,0.063,0.361,0.323,0.691,0.633
		c0.167,0.152,0.416,0.38,0.702,0.63c0.372,0.34,0.806,0.727,1.172,1.062l2.825,2.555l-2.861,2.597
		c-0.371,0.333-0.803,0.717-1.175,1.059c-0.273,0.254-0.519,0.475-0.675,0.616c-0.317,0.274-0.59,0.53-0.684,0.614l-0.02,0.04
		l-0.008,0.032L7.327,46.7H4.68c-0.74,0-1.342,0.603-1.342,1.346c0,0.741,0.602,1.343,1.342,1.343h29.167
		c0.74,0,1.342-0.602,1.342-1.343c0-0.743-0.602-1.346-1.342-1.346h-2.67l-4.024-14.134l-0.009-0.023l-0.004-0.018
		c-0.072-0.062-0.367-0.322-0.698-0.631c-0.165-0.148-0.415-0.377-0.698-0.631c-0.37-0.343-0.803-0.728-1.174-1.06l-2.825-2.557
		l2.86-2.595C24.976,24.716,25.409,24.33,25.781,23.99z M22.236,38.07c0.206,0.188,0.451,0.404,0.657,0.596
		c0.161,0.143,0.304,0.27,0.393,0.354c0.188,0.174,0.349,0.319,0.39,0.354l0.005,0.01l0.005,0.013l2.346,3.463
		c0,0.363-0.293,0.658-0.656,0.658H13.13c-0.362,0-0.658-0.295-0.658-0.658l2.353-3.463l0.004-0.018l0.008-0.021
		c0.055-0.051,0.21-0.189,0.386-0.347c0.089-0.079,0.228-0.2,0.38-0.344c0.21-0.192,0.451-0.408,0.661-0.595l2.325-2.107
		c0.361-0.326,0.956-0.326,1.318,0L22.236,38.07z M23.698,20.663l-0.008,0.024c-0.057,0.043-0.208,0.186-0.385,0.343
		c-0.091,0.08-0.226,0.202-0.381,0.345c-0.205,0.188-0.452,0.408-0.656,0.591l-2.324,2.111c-0.363,0.321-0.957,0.321-1.318,0
		l-2.33-2.111c-0.21-0.183-0.451-0.403-0.662-0.591c-0.156-0.143-0.299-0.27-0.394-0.354c-0.184-0.176-0.349-0.323-0.388-0.354
		l-0.005-0.009l-0.005-0.014l-2.347-8.247c0-0.361,0.294-0.657,0.657-0.657h12.244c0.361,0,0.658,0.295,0.658,0.657l-2.353,8.247
		L23.698,20.663z"/>
	<path d="M37.186,52.468H1.341C0.601,52.468,0,53.07,0,53.811c0,0.744,0.602,1.346,1.341,1.346h35.846
		c0.739,0,1.341-0.602,1.341-1.346C38.527,53.07,37.926,52.468,37.186,52.468z"/>
</g>
</svg>
