<?xml version="1.0" encoding="iso-8859-1"?>
<!-- Generator: Adobe Illustrator 16.0.4, SVG Export Plug-In . SVG Version: 6.00 Build 0)  -->
<!DOCTYPE svg PUBLIC "-//W3C//DTD SVG 1.1//EN" "http://www.w3.org/Graphics/SVG/1.1/DTD/svg11.dtd">
<svg version="1.1" id="Layer_1" xmlns="http://www.w3.org/2000/svg" xmlns:xlink="http://www.w3.org/1999/xlink" x="0px" y="0px"
	 width="61.527px" height="61.479px" viewBox="0 0 61.527 61.479" style="enable-background:new 0 0 61.527 61.479;"
	 xml:space="preserve">
<g>
	<path d="M30.764,0C13.772,0,0,13.764,0,30.742c0,16.975,13.772,30.736,30.765,30.736c16.99,0,30.763-13.762,30.763-30.736
		C61.527,13.764,47.755,0,30.764,0z M30.764,55.778c-13.818,0-25.06-11.229-25.06-25.035c0-13.809,11.241-25.039,25.06-25.039
		c13.816,0,25.059,11.229,25.059,25.039C55.823,44.547,44.581,55.778,30.764,55.778z"/>
	<path d="M30.764,8.384C18.409,8.384,8.39,18.391,8.39,30.742c0,12.344,10.019,22.354,22.374,22.354
		c12.359,0,22.374-10.012,22.374-22.354C53.138,18.391,43.124,8.384,30.764,8.384z M33.224,13.479
		c4.556,0.644,8.553,3.053,11.268,6.505l-7.11,4.102c-1.136-1.127-2.563-1.973-4.157-2.402V13.479z M28.304,13.479v8.204
		c-1.595,0.43-3.022,1.275-4.158,2.402l-7.11-4.102C19.756,16.531,23.748,14.122,28.304,13.479z M14.575,37.243
		c-0.813-2.009-1.263-4.204-1.263-6.501c0-2.3,0.449-4.494,1.258-6.503l7.11,4.101c-0.205,0.765-0.312,1.57-0.312,2.402
		c0,0.831,0.107,1.635,0.312,2.399L14.575,37.243z M28.304,48.005c-4.552-0.646-8.549-3.05-11.265-6.507l7.106-4.1
		c1.135,1.125,2.562,1.971,4.158,2.4V48.005z M30.764,35.212c-0.722,0-1.401-0.171-2.006-0.478
		c-0.156-0.077-0.312-0.161-0.454-0.262c-1.146-0.753-1.927-2.019-2.006-3.474c-0.006-0.083-0.01-0.168-0.01-0.257
		c0-0.092,0.003-0.176,0.01-0.261c0.079-1.455,0.859-2.72,2.006-3.474c0.143-0.098,0.298-0.185,0.454-0.26
		c0.604-0.31,1.284-0.479,2.006-0.479c0.721,0,1.399,0.171,2.004,0.479c0.156,0.075,0.313,0.162,0.457,0.26
		c1.146,0.753,1.924,2.019,2.005,3.474c0.004,0.084,0.009,0.168,0.009,0.261c0,0.089-0.005,0.173-0.009,0.257
		c-0.081,1.455-0.859,2.72-2.005,3.474c-0.144,0.102-0.301,0.186-0.457,0.262C32.164,35.041,31.485,35.212,30.764,35.212z
		 M33.225,48.005v-8.206c1.593-0.43,3.021-1.275,4.157-2.4l7.11,4.1C41.772,44.955,37.78,47.359,33.225,48.005z M39.848,33.141
		c0.206-0.765,0.312-1.568,0.312-2.399c0-0.833-0.106-1.639-0.312-2.402l7.109-4.102c0.811,2.011,1.258,4.204,1.258,6.505
		c0,2.297-0.447,4.493-1.263,6.5L39.848,33.141z"/>
</g>
</svg>
