<?xml version="1.0" encoding="iso-8859-1"?>
<!-- Generator: Adobe Illustrator 16.0.4, SVG Export Plug-In . SVG Version: 6.00 Build 0)  -->
<!DOCTYPE svg PUBLIC "-//W3C//DTD SVG 1.1//EN" "http://www.w3.org/Graphics/SVG/1.1/DTD/svg11.dtd">
<svg version="1.1" id="Layer_1" xmlns="http://www.w3.org/2000/svg" xmlns:xlink="http://www.w3.org/1999/xlink" x="0px" y="0px"
	 width="44.191px" height="52.816px" viewBox="0 0 44.191 52.816" style="enable-background:new 0 0 44.191 52.816;"
	 xml:space="preserve">
<path d="M42.566,35.776c-0.317-0.014-0.635-0.022-0.952-0.034c-0.001-0.14,0-0.277-0.005-0.409
	c-0.143-5.948-2.912-11.239-7.184-14.745c0-0.01,0-0.02,0-0.028c0.007-0.005,0.014-0.01,0.02-0.012
	c0.441-0.374,0.498-1.036,0.127-1.479l-1.266-1.52c0.006-0.007,0.011-0.016,0.017-0.023l2.085,1.212
	c0.163,0.097,0.343,0.142,0.521,0.142c0.36,0,0.71-0.188,0.903-0.526c0.175-0.303,0.179-0.66,0.044-0.956
	c0.003-0.007,0.011-0.012,0.014-0.019c0.288-0.503,0.117-1.145-0.382-1.434l-1.707-0.992c0.005-0.01,0.007-0.02,0.01-0.028
	l2.37,0.422c0.061,0.01,0.12,0.014,0.181,0.014c0.497,0,0.938-0.356,1.027-0.865c0.061-0.347-0.057-0.682-0.282-0.914
	c0.001-0.007,0.005-0.015,0.005-0.023c0.102-0.57-0.278-1.115-0.844-1.216l-1.94-0.343c0-0.01-0.001-0.02-0.001-0.028l2.368-0.42
	c0.567-0.101,0.946-0.646,0.846-1.217c-0.061-0.346-0.284-0.62-0.576-0.764C37.96,9.562,37.96,9.556,37.96,9.546
	c-0.1-0.571-0.641-0.954-1.209-0.852l-1.94,0.345c-0.002-0.007-0.007-0.017-0.01-0.023l2.085-1.212
	c0.497-0.289,0.669-0.932,0.38-1.435c-0.175-0.304-0.478-0.484-0.802-0.518c-0.004-0.007-0.006-0.014-0.009-0.021
	c-0.288-0.502-0.926-0.674-1.425-0.383l-1.707,0.99c-0.006-0.007-0.013-0.015-0.018-0.021l1.545-1.855
	c0.37-0.443,0.312-1.105-0.128-1.479c-0.268-0.227-0.614-0.291-0.928-0.209c-0.006-0.007-0.01-0.013-0.018-0.018
	c-0.44-0.373-1.098-0.316-1.469,0.129L31.04,4.508c-0.008-0.004-0.016-0.009-0.022-0.014l0.823-2.278
	c0.197-0.544-0.082-1.146-0.623-1.345c-0.328-0.12-0.675-0.062-0.943,0.122c-0.008-0.002-0.014-0.008-0.022-0.01
	c-0.54-0.199-1.139,0.082-1.336,0.627l-0.678,1.872c0,0-0.001,0-0.003,0c-0.006,0-0.013-0.002-0.021-0.005V1.05
	c0-0.58-0.467-1.05-1.044-1.05c-0.349,0-0.655,0.174-0.845,0.438c-0.008,0-0.015-0.002-0.022-0.002
	c-0.575,0-1.043,0.471-1.043,1.049v1.987c-0.009,0-0.018,0.002-0.027,0.002L24.411,1.2c-0.148-0.409-0.522-0.669-0.929-0.69
	c-0.135-0.004-0.274,0.014-0.41,0.063c-0.329,0.119-0.558,0.39-0.645,0.704c-0.008,0.003-0.015,0.003-0.022,0.008
	c-0.54,0.196-0.82,0.798-0.623,1.343l0.671,1.856c-0.007,0.006-0.016,0.011-0.025,0.015l-1.541-1.849
	c-0.371-0.443-1.028-0.5-1.47-0.129c-0.267,0.226-0.392,0.56-0.367,0.884c-0.006,0.004-0.013,0.009-0.02,0.014
	c-0.441,0.374-0.498,1.036-0.128,1.479l1.267,1.521c-0.007,0.007-0.012,0.014-0.019,0.021l-2.081-1.21
	c-0.501-0.291-1.138-0.119-1.426,0.383c-0.176,0.307-0.179,0.66-0.044,0.958c-0.003,0.008-0.011,0.013-0.014,0.02
	c-0.288,0.502-0.118,1.144,0.381,1.432l1.706,0.994c-0.004,0.007-0.006,0.017-0.01,0.023l-2.369-0.42
	C15.729,8.52,15.187,8.9,15.087,9.471c-0.061,0.348,0.057,0.685,0.285,0.916c-0.003,0.007-0.006,0.014-0.007,0.021
	c-0.1,0.57,0.279,1.115,0.846,1.216l1.941,0.346c0,0.009,0.001,0.02,0.001,0.028l-2.369,0.42c-0.568,0.101-0.946,0.644-0.846,1.216
	c0.061,0.345,0.285,0.618,0.577,0.761c0.001,0.007,0,0.017,0.001,0.023c0.09,0.509,0.529,0.869,1.025,0.869
	c0.062,0,0.123-0.007,0.184-0.018l1.939-0.345c0.004,0.007,0.007,0.017,0.01,0.026l-2.083,1.212
	c-0.351,0.202-0.535,0.583-0.516,0.963c-7.687,2.508-13.29,9.682-13.492,18.206c-0.004,0.131-0.004,0.27-0.004,0.409
	c-0.318,0.012-0.636,0.021-0.953,0.034c-0.942,0.042-1.67,0.857-1.623,1.825c0.211,4.514,0.425,9.029,0.636,13.545
	c0.045,0.965,0.817,1.709,1.724,1.669c6.402-0.278,12.807-0.42,19.214-0.427h1.042c6.406,0.007,12.812,0.148,19.214,0.427
	c0.906,0.04,1.68-0.705,1.725-1.669c0.212-4.516,0.423-9.031,0.635-13.545C44.236,36.633,43.508,35.818,42.566,35.776z"/>
</svg>
