<?xml version="1.0" encoding="iso-8859-1"?>
<!-- Generator: Adobe Illustrator 16.0.4, SVG Export Plug-In . SVG Version: 6.00 Build 0)  -->
<!DOCTYPE svg PUBLIC "-//W3C//DTD SVG 1.1//EN" "http://www.w3.org/Graphics/SVG/1.1/DTD/svg11.dtd">
<svg version="1.1" id="Layer_1" xmlns="http://www.w3.org/2000/svg" xmlns:xlink="http://www.w3.org/1999/xlink" x="0px" y="0px"
	 width="48.873px" height="61.936px" viewBox="0 0 48.873 61.936" style="enable-background:new 0 0 48.873 61.936;"
	 xml:space="preserve">
<path d="M41.097,41.929h3.938v-8.036h-5.429l-0.998-5.395h3.152v-6.756h-4.404l-0.965-5.216h2.932v-5.803h-4.006l-0.512-2.752h1.926
	V3.175h-2.809l-0.388-2.075c-0.14-0.73-0.839-1.212-1.571-1.076c-0.73,0.134-1.216,0.838-1.076,1.565l0.291,1.585H17.293
	l0.292-1.585c0.134-0.728-0.346-1.433-1.078-1.565c-0.73-0.136-1.437,0.345-1.571,1.076l-0.385,2.075h-2.408v4.798h1.522
	l-0.511,2.752H9.548v5.803h2.533l-0.965,5.216H7.112v6.756h2.752l-0.997,5.395H3.839v8.036h3.537l-1.352,7.299H0v9.529h4.261
	L3.968,60.34c-0.135,0.733,0.351,1.438,1.078,1.571c0.084,0.014,0.166,0.023,0.245,0.023c0.639,0,1.205-0.453,1.326-1.104
	l0.385-2.073H41.47l0.385,2.073c0.117,0.651,0.688,1.104,1.32,1.104c0.081,0,0.166-0.01,0.248-0.023
	c0.73-0.134,1.215-0.838,1.082-1.571l-0.294-1.583h4.661v-9.528h-6.423L41.097,41.929z M16.404,7.972h15.666l0.512,2.752H15.892
	L16.404,7.972z M14.82,16.527h18.833l0.965,5.216H13.854L14.82,16.527z M12.602,28.499h23.269l0.996,5.395H11.605L12.602,28.499z
	 M8.763,49.228l1.351-7.299h28.245l1.351,7.299H8.763z"/>
</svg>
