<?xml version="1.0" encoding="iso-8859-1"?>
<!-- Generator: Adobe Illustrator 16.0.4, SVG Export Plug-In . SVG Version: 6.00 Build 0)  -->
<!DOCTYPE svg PUBLIC "-//W3C//DTD SVG 1.1//EN" "http://www.w3.org/Graphics/SVG/1.1/DTD/svg11.dtd">
<svg version="1.1" id="Layer_1" xmlns="http://www.w3.org/2000/svg" xmlns:xlink="http://www.w3.org/1999/xlink" x="0px" y="0px"
	 width="29.898px" height="60.898px" viewBox="0 0 29.898 60.898" style="enable-background:new 0 0 29.898 60.898;"
	 xml:space="preserve">
<g>
	<path d="M14.95,47.698c-1.891,0-3.417,1.534-3.417,3.428c0,0.132,0.003,0.261,0.016,0.388c0.194,1.709,1.644,3.034,3.401,3.034
		c1.757,0,3.208-1.325,3.396-3.034c0.017-0.127,0.022-0.256,0.022-0.388C18.368,49.232,16.84,47.698,14.95,47.698z"/>
	<path d="M28.763,39.46c0.892-0.433,1.138-0.508,1.138-1.143v-4.434c0-0.629-0.506-1.141-1.138-1.141h-6.774v0.005h-0.001v-0.005
		v-0.47c0.888-2.502,6.774-5.931,6.774-5.931c0.892-0.432,1.138-0.502,1.138-1.132v-4.443c0-0.625-0.506-1.137-1.138-1.137h-4.923
		c0.3-0.247,0.488-0.62,0.488-1.036c0-0.747-0.601-1.348-1.344-1.348h-1.524c-0.111-3.048-2.289-5.558-5.174-6.167
		c0.005-0.049,0.01-0.1,0.01-0.148V1.348C16.294,0.608,15.693,0,14.95,0c-0.743,0-1.345,0.607-1.345,1.348v9.584
		c0,0.044,0.005,0.094,0.008,0.138c-2.91,0.59-5.118,3.112-5.23,6.178H6.917c-0.744,0-1.345,0.601-1.345,1.348
		c0,0.416,0.188,0.789,0.489,1.036H1.138C0.506,19.631,0,20.143,0,20.768v4.443c0,0.629,0.247,0.7,1.138,1.132
		c0,0,5.976,3.478,6.792,5.991c0.005,0.009,0.005,0.019,0.008,0.027c0,0.006,0.005,0.011,0.005,0.015
		c0.04,0.124,0.067,0.251,0.076,0.366h0.005v0.006H8.019v-0.005c-0.009-0.115-0.036-0.242-0.076-0.366l0.062,0.364H1.138
		C0.506,32.743,0,33.255,0,33.884v4.434c0,0.635,0.247,0.709,1.138,1.143c0,0,5.976,3.478,6.792,5.983
		c0.005,0.013,0.008,0.026,0.008,0.035v0.004l0.005,0.005v0.006l0.062,0.365H1.138C0.506,45.859,0,46.371,0,47.001v4.434
		c0,0.634,0.247,0.709,1.138,1.142c0,0,5.976,3.478,6.792,5.983c0.005,0.015,0.008,0.021,0.008,0.036l0.005,0.014l0.081,0.482
		c0,0.001,0,0.001,0,0.002v0.665c0,0.634,0.475,1.141,1.058,1.141h11.845c0.586,0,1.062-0.507,1.062-1.141v-1.257
		c-0.008,0.013-0.013,0.026-0.021,0.042v-0.002c0.008-0.016,0.013-0.028,0.021-0.041v-0.058l0.001-0.005v0.063
		c0.888-2.501,6.774-5.925,6.774-5.925c0.892-0.433,1.138-0.508,1.138-1.142v-4.434c0-0.63-0.506-1.143-1.138-1.143h-6.775v-0.475
		v-0.058l0.001-0.005v0.062C22.876,42.884,28.763,39.46,28.763,39.46z M20.052,51.705c-0.286,2.566-2.468,4.561-5.102,4.561
		c-2.635,0-4.816-1.994-5.103-4.561c-0.019-0.188-0.032-0.381-0.032-0.581c0-2.839,2.298-5.147,5.135-5.147
		c2.836,0,5.135,2.31,5.135,5.147C20.085,51.324,20.071,51.517,20.052,51.705z M20.052,38.593c-0.273,2.581-2.45,4.596-5.102,4.596
		c-2.652,0-4.829-2.015-5.103-4.596c-0.019-0.184-0.032-0.364-0.032-0.547c0-2.846,2.298-5.15,5.135-5.15
		c2.836,0,5.135,2.305,5.135,5.15C20.085,38.229,20.071,38.41,20.052,38.593z M20.057,25.477c-0.26,2.599-2.446,4.625-5.106,4.625
		c-2.661,0-4.848-2.026-5.107-4.625c-0.022-0.171-0.027-0.347-0.027-0.517c0-0.951,0.256-1.852,0.709-2.609
		c0.152-0.263,0.34-0.514,0.537-0.749c0.019-0.021,0.036-0.049,0.062-0.069c0.938-1.058,2.304-1.72,3.826-1.72
		c1.511,0,2.862,0.655,3.807,1.691c0.027,0.033,0.055,0.062,0.081,0.099c0.188,0.222,0.363,0.463,0.517,0.72
		c0.465,0.768,0.73,1.67,0.73,2.64C20.085,25.129,20.079,25.305,20.057,25.477z M21.889,32.762l-0.013,0.099v-0.022l-0.003,0.028
		c0-0.005,0-0.008,0-0.013l0.002-0.016v-0.001L21.889,32.762l-0.001-0.014h0.001V32.762z M21.965,58.556l-0.089,0.538v-0.026
		l-0.003,0.026c0-0.006,0.001-0.012,0.001-0.018l0.001-0.009v-0.001v-0.004l0.076-0.446c0.003-0.01,0.003-0.02,0.006-0.029
		l0.004-0.019C21.961,58.564,21.963,58.561,21.965,58.556L21.965,58.556L21.965,58.556z M21.877,45.978v-0.025l-0.003,0.025
		c0-0.007,0.001-0.015,0.001-0.021v-0.004l0.013-0.093h0.002L21.877,45.978z"/>
</g>
</svg>
