<?xml version="1.0" encoding="iso-8859-1"?>
<!-- Generator: Adobe Illustrator 16.0.4, SVG Export Plug-In . SVG Version: 6.00 Build 0)  -->
<!DOCTYPE svg PUBLIC "-//W3C//DTD SVG 1.1//EN" "http://www.w3.org/Graphics/SVG/1.1/DTD/svg11.dtd">
<svg version="1.1" id="Layer_1" xmlns="http://www.w3.org/2000/svg" xmlns:xlink="http://www.w3.org/1999/xlink" x="0px" y="0px"
	 width="63.829px" height="29.877px" viewBox="0 0 63.829 29.877" style="enable-background:new 0 0 63.829 29.877;"
	 xml:space="preserve">
<g>
	<path d="M62.142,27.304c-0.136-0.044-0.277-0.072-0.431-0.072H1.647c-0.152,0-0.293,0.028-0.427,0.072
		c-0.456,0.155-0.801,0.555-0.876,1.043c0,0,0,0,0,0.004c0.15,0.541,0.494,0.998,0.953,1.291c-0.458-0.293-0.803-0.75-0.954-1.291
		c-0.013,0.068-0.018,0.133-0.018,0.207c0,0.729,0.591,1.319,1.322,1.319H1.79h59.921c0.729,0,1.319-0.59,1.319-1.319
		c0-0.234-0.058-0.447-0.161-0.637C62.713,27.635,62.454,27.413,62.142,27.304z"/>
	<path d="M63.679,21.76c0.004-0.22,0.009-0.448,0.009-0.672c0-9.672-11.113-17.827-17.498-20.309C44.886,0.274,43.516,0,42.095,0
		H2.496C1.264,0,0.263,1.004,0.263,2.237v19.53h63.416C63.679,21.767,63.679,21.763,63.679,21.76z M20.007,14.206h-7.845
		c-0.57,0-1.037-0.47-1.037-1.043L7.763,5.309c0-0.571,0.464-1.041,1.041-1.041h7.843c0.573,0,1.035,0.47,1.035,1.041l3.365,7.854
		C21.047,13.737,20.582,14.206,20.007,14.206z M33.292,14.206h-7.845c-0.573,0-1.035-0.47-1.035-1.043l-3.364-7.854
		c-0.001-0.571,0.463-1.041,1.035-1.041h7.845c0.577,0,1.04,0.47,1.04,1.041l3.365,7.854C34.333,13.737,33.868,14.206,33.292,14.206
		z M46.575,14.206H38.73c-0.576,0-1.04-0.47-1.04-1.043l-3.359-7.854c0.002-0.571,0.465-1.041,1.037-1.041h7.844
		c0.576,0,1.041,0.47,1.041,1.041l3.358,7.854C47.611,13.737,47.147,14.206,46.575,14.206z"/>
	<path d="M63.749,24.003c-0.043-0.117-0.098-0.225-0.174-0.322c-0.24-0.334-0.63-0.555-1.076-0.555H1.335
		c-0.442,0-0.83,0.215-1.072,0.548c-0.076,0.099-0.137,0.208-0.178,0.33C0.03,24.147,0,24.299,0,24.465
		c0,0.054,0.003,0.103,0.014,0.157c0.021,0.236,0.112,0.451,0.249,0.634c0.241,0.332,0.63,0.545,1.072,0.545h61.164
		c0.321,0,0.623-0.114,0.853-0.311c0.257-0.212,0.433-0.519,0.467-0.868c0.009-0.055,0.011-0.104,0.011-0.157
		C63.829,24.299,63.804,24.147,63.749,24.003z"/>
</g>
</svg>
