<?xml version="1.0" encoding="iso-8859-1"?>
<!-- Generator: Adobe Illustrator 16.0.4, SVG Export Plug-In . SVG Version: 6.00 Build 0)  -->
<!DOCTYPE svg PUBLIC "-//W3C//DTD SVG 1.1//EN" "http://www.w3.org/Graphics/SVG/1.1/DTD/svg11.dtd">
<svg version="1.1" id="Layer_1" xmlns="http://www.w3.org/2000/svg" xmlns:xlink="http://www.w3.org/1999/xlink" x="0px" y="0px"
	 width="28.762px" height="51.71px" viewBox="0 0 28.762 51.71" style="enable-background:new 0 0 28.762 51.71;"
	 xml:space="preserve">
<path d="M26.107,0H2.652C1.188,0,0,1.198,0,2.673v46.36c0,1.48,1.188,2.678,2.652,2.678h23.455c1.465,0,2.654-1.196,2.654-2.678
	V2.673C28.761,1.198,27.572,0,26.107,0z M23.734,28.471L5.027,29.326c-0.6,0-1.083-0.488-1.083-1.091v-3.911
	c0-0.603,0.483-1.092,1.083-1.092l18.706-0.854c0.599,0,1.078,0.487,1.078,1.092v3.917h0.001
	C24.812,27.985,24.333,28.471,23.734,28.471z"/>
</svg>
