<?xml version="1.0" encoding="iso-8859-1"?>
<!-- Generator: Adobe Illustrator 16.0.4, SVG Export Plug-In . SVG Version: 6.00 Build 0)  -->
<!DOCTYPE svg PUBLIC "-//W3C//DTD SVG 1.1//EN" "http://www.w3.org/Graphics/SVG/1.1/DTD/svg11.dtd">
<svg version="1.1" id="Layer_1" xmlns="http://www.w3.org/2000/svg" xmlns:xlink="http://www.w3.org/1999/xlink" x="0px" y="0px"
	 width="43.705px" height="56.307px" viewBox="0 0 43.705 56.307" style="enable-background:new 0 0 43.705 56.307;"
	 xml:space="preserve">
<path d="M25.426,42.486l7.103-9.81h0.072c6.133,0,11.104-4.987,11.104-11.139c0-2.539-0.847-4.879-2.278-6.754
	c0.348-0.775,0.536-1.63,0.536-2.527c0-3.452-2.793-6.253-6.235-6.253c-1.842,0-3.496,0.8-4.633,2.076
	C28.726,3.293,23.797,0,18.106,0C10.146,0,3.683,6.44,3.616,14.411C1.409,16.192,0,18.92,0,21.984c0,5.373,4.343,9.73,9.699,9.73
	c1.103,0,2.163-0.186,3.149-0.529v6.531l-5.339-4.568c-0.561-0.48-1.404-0.416-1.886,0.15c-0.477,0.562-0.411,1.408,0.152,1.891
	l2.363,2.022l-3.362,0.084c-0.739,0.019-1.324,0.632-1.307,1.374c0.018,0.729,0.615,1.311,1.338,1.311h0.03l6.351-0.156l1.659,1.423
	v11.75c0,0.22,0.036,0.43,0.103,0.627H3.942c-0.74,0-1.337,0.604-1.337,1.341c0,0.742,0.597,1.343,1.337,1.343h30.39
	c0.739,0,1.337-0.601,1.337-1.343c0-0.737-0.598-1.341-1.337-1.341h-9.009c0.066-0.197,0.103-0.407,0.103-0.627V42.486z
	 M25.426,30.036c1.181,1.006,2.577,1.767,4.111,2.205l-4.111,5.682V30.036z"/>
</svg>
