<?xml version="1.0" encoding="iso-8859-1"?>
<!-- Generator: Adobe Illustrator 16.0.4, SVG Export Plug-In . SVG Version: 6.00 Build 0)  -->
<!DOCTYPE svg PUBLIC "-//W3C//DTD SVG 1.1//EN" "http://www.w3.org/Graphics/SVG/1.1/DTD/svg11.dtd">
<svg version="1.1" id="Layer_1" xmlns="http://www.w3.org/2000/svg" xmlns:xlink="http://www.w3.org/1999/xlink" x="0px" y="0px"
	 width="49.45px" height="40.215px" viewBox="0 0 49.45 40.215" style="enable-background:new 0 0 49.45 40.215;"
	 xml:space="preserve">
<path d="M49.45,4.762c-1.818,0.808-3.775,1.352-5.826,1.599c2.092-1.256,3.701-3.246,4.459-5.617
	c-1.961,1.164-4.131,2.007-6.441,2.464C39.79,1.235,37.153,0,34.234,0C28.633,0,24.09,4.549,24.09,10.153
	c0,0.796,0.09,1.572,0.264,2.314C15.921,12.042,8.445,8.001,3.442,1.859C2.57,3.359,2.07,5.103,2.07,6.964
	c0,3.523,1.791,6.63,4.513,8.451c-1.663-0.054-3.229-0.511-4.595-1.272c-0.002,0.044-0.002,0.087-0.002,0.129
	c0,4.917,3.5,9.021,8.138,9.953c-0.851,0.232-1.747,0.357-2.672,0.357c-0.654,0-1.289-0.063-1.908-0.182
	c1.291,4.032,5.038,6.969,9.476,7.049c-3.471,2.725-7.846,4.346-12.599,4.346c-0.82,0-1.626-0.047-2.42-0.142
	c4.489,2.88,9.824,4.562,15.55,4.562c18.661,0,28.866-15.469,28.866-28.885c0-0.441-0.01-0.878-0.028-1.312
	C46.368,8.586,48.088,6.797,49.45,4.762z"/>
</svg>
