<?xml version="1.0" encoding="iso-8859-1"?>
<!-- Generator: Adobe Illustrator 16.0.4, SVG Export Plug-In . SVG Version: 6.00 Build 0)  -->
<!DOCTYPE svg PUBLIC "-//W3C//DTD SVG 1.1//EN" "http://www.w3.org/Graphics/SVG/1.1/DTD/svg11.dtd">
<svg version="1.1" id="Layer_1" xmlns="http://www.w3.org/2000/svg" xmlns:xlink="http://www.w3.org/1999/xlink" x="0px" y="0px"
	 width="40.254px" height="54.008px" viewBox="0 0 40.254 54.008" style="enable-background:new 0 0 40.254 54.008;"
	 xml:space="preserve">
<path d="M40.227,19.772c-0.371-8.911-8.519-16.107-18.765-16.69V1.344C21.461,0.602,20.861,0,20.122,0s-1.339,0.602-1.339,1.344
	v1.738C8.461,3.669,0.27,10.969,0.013,19.972C0.008,20.016,0,20.061,0,20.107v1.45c0,0.742,0.6,1.342,1.339,1.342
	c0.739,0,1.338-0.6,1.338-1.342v-1.152h7.15v0.368c0,0.742,0.6,1.342,1.34,1.342c0.739,0,1.338-0.6,1.338-1.342v-0.368h6.277v0.368
	v26.931c0,3.478,2.821,6.304,6.286,6.304c3.468,0,6.287-2.826,6.287-6.304c0-0.74-0.6-1.343-1.338-1.343s-1.338,0.603-1.338,1.343
	c0,1.995-1.619,3.621-3.609,3.621c-1.988,0-3.608-1.625-3.608-3.621V20.772v-0.368h6.276v0.368c0,0.742,0.6,1.342,1.34,1.342
	s1.338-0.6,1.338-1.342v-0.368h7.159v1.094c0,0.74,0.6,1.342,1.339,1.342c0.74,0,1.34-0.602,1.34-1.342v-1.453
	C40.254,19.953,40.243,19.864,40.227,19.772z"/>
</svg>
