<?xml version="1.0" encoding="iso-8859-1"?>
<!-- Generator: Adobe Illustrator 16.0.4, SVG Export Plug-In . SVG Version: 6.00 Build 0)  -->
<!DOCTYPE svg PUBLIC "-//W3C//DTD SVG 1.1//EN" "http://www.w3.org/Graphics/SVG/1.1/DTD/svg11.dtd">
<svg version="1.1" id="Layer_1" xmlns="http://www.w3.org/2000/svg" xmlns:xlink="http://www.w3.org/1999/xlink" x="0px" y="0px"
	 width="27.596px" height="51.136px" viewBox="0 0 27.596 51.136" style="enable-background:new 0 0 27.596 51.136;"
	 xml:space="preserve">
<g>
	<path d="M2.19,2.673v0.023L5.17,15.132c-1.402,2.624-2.513,5.998-3.345,9.422h0.04c2.059,0,3.736,1.662,3.736,3.716
		c0,0.567,0.464,1.03,1.033,1.03c0.576,0,1.04-0.463,1.04-1.03c0-2.049,1.677-3.716,3.735-3.716c2.06,0,3.736,1.667,3.736,3.716
		c0,0.567,0.469,1.03,1.039,1.03c0.571,0,1.039-0.463,1.039-1.03c0-2.049,1.672-3.716,3.734-3.716c2.06,0,3.733,1.667,3.733,3.716
		c0,0.567,0.468,1.028,1.038,1.028c0.398,0,0.745-0.225,0.917-0.547c-0.814-4.567-2.153-9.58-4.032-13.253v-0.005l2.786-12.797
		V2.673c0.694-0.054,1.237-0.627,1.237-1.333c0-0.742-0.604-1.34-1.35-1.34H2.307c-0.745,0-1.35,0.598-1.35,1.34
		C0.958,2.041,1.498,2.619,2.19,2.673z"/>
	<path d="M27.594,37.759c0-1.549-0.161-3.666-0.481-6.043c-0.426,0.168-0.896,0.263-1.384,0.263c-2.06,0-3.736-1.663-3.736-3.709
		c0-0.567-0.463-1.034-1.035-1.034c-0.574,0-1.037,0.467-1.037,1.034c0,2.046-1.677,3.714-3.735,3.714
		c-2.06,0-3.736-1.668-3.736-3.714c0-0.567-0.467-1.034-1.039-1.034c-0.57,0-1.038,0.467-1.038,1.034
		c0,2.046-1.676,3.714-3.735,3.714s-3.731-1.668-3.731-3.714c0-0.573-0.467-1.034-1.039-1.034c-0.26,0-0.498,0.094-0.683,0.25
		C0.393,31.516,0,35.332,0,37.759c0,4.38,2.118,8.27,5.393,10.707c-0.5,0.197-0.855,0.679-0.855,1.246c0,0.742,0.603,1.34,1.35,1.34
		h6.055c0.498,0.059,1.002,0.085,1.514,0.085h0.686c0.512,0,1.016-0.025,1.515-0.085h6.055c0.747,0,1.35-0.598,1.35-1.34
		c0-0.568-0.354-1.051-0.854-1.246C25.479,46.029,27.595,42.139,27.594,37.759z"/>
</g>
</svg>
