<?xml version="1.0" encoding="iso-8859-1"?>
<!-- Generator: Adobe Illustrator 16.0.4, SVG Export Plug-In . SVG Version: 6.00 Build 0)  -->
<!DOCTYPE svg PUBLIC "-//W3C//DTD SVG 1.1//EN" "http://www.w3.org/Graphics/SVG/1.1/DTD/svg11.dtd">
<svg version="1.1" id="Layer_1" xmlns="http://www.w3.org/2000/svg" xmlns:xlink="http://www.w3.org/1999/xlink" x="0px" y="0px"
	 width="28.75px" height="46.542px" viewBox="0 0 28.75 46.542" style="enable-background:new 0 0 28.75 46.542;"
	 xml:space="preserve">
<path d="M20.89,0c-3.368,0-6.183,1.424-7.319,3.49H3.356c-0.867,0-1.57,0.7-1.57,1.566V7.15H1.571C0.703,7.15,0,7.851,0,8.714
	v36.261c0,0.864,0.703,1.565,1.571,1.565h16.912c0.869,0,1.571-0.701,1.571-1.565V11.107h0.836c4.407,0,7.862-2.439,7.862-5.556
	C28.75,2.437,25.297,0,20.89,0z M14.371,24.634H5.688c-0.618,0-1.119-0.5-1.119-1.112c0-0.617,0.501-1.116,1.119-1.116h8.683
	c0.618,0,1.12,0.499,1.12,1.116C15.491,24.136,14.989,24.634,14.371,24.634z M20.89,8.429h-0.863
	c-0.133-0.728-0.774-1.279-1.544-1.279h-0.209V5.056c0-0.687-0.443-1.272-1.061-1.482c0.908-0.53,2.178-0.896,3.677-0.896
	c3.052,0,5.177,1.513,5.177,2.874C26.066,6.912,23.941,8.429,20.89,8.429z"/>
</svg>
