<?xml version="1.0" encoding="iso-8859-1"?>
<!-- Generator: Adobe Illustrator 16.0.4, SVG Export Plug-In . SVG Version: 6.00 Build 0)  -->
<!DOCTYPE svg PUBLIC "-//W3C//DTD SVG 1.1//EN" "http://www.w3.org/Graphics/SVG/1.1/DTD/svg11.dtd">
<svg version="1.1" id="Layer_1" xmlns="http://www.w3.org/2000/svg" xmlns:xlink="http://www.w3.org/1999/xlink" x="0px" y="0px"
	 width="35.072px" height="41.941px" viewBox="0 0 35.072 41.941" style="enable-background:new 0 0 35.072 41.941;"
	 xml:space="preserve">
<path d="M33.726,36.395c-0.746,0-1.349,0.6-1.349,1.343c0,0.817-0.683,1.488-1.518,1.488c-0.828,0-1.496-0.652-1.515-1.458V5.113
	c0-0.242-0.062-0.466-0.171-0.657c3.409-0.471,5.546-1.146,5.546-1.897C34.72,1.144,27.154,0,17.816,0
	C8.479,0,0.912,1.144,0.913,2.559c0,0.711,1.913,1.354,4.999,1.82c-0.14,0.211-0.22,0.461-0.22,0.735v32.654
	c0,0.825-0.675,1.489-1.496,1.489c-0.827,0-1.5-0.665-1.5-1.489c0-0.742-0.604-1.341-1.348-1.341C0.603,36.428,0,37.027,0,37.769
	c0,2.301,1.882,4.173,4.195,4.173c2.307,0,4.188-1.872,4.188-4.173V5.115c0-0.153-0.026-0.304-0.071-0.437
	c0.826,0.082,1.711,0.157,2.637,0.22c-0.014,0.07-0.018,0.144-0.018,0.217v34.687c0,0.742,0.602,1.341,1.348,1.341
	c0.741,0,1.348-0.599,1.348-1.341V5.115c0-0.029,0-0.051-0.005-0.078c0.826,0.032,1.679,0.054,2.546,0.067c0,0.005,0,0.005,0,0.011
	v34.687c0,0.742,0.607,1.341,1.349,1.341c0.743,0,1.347-0.599,1.347-1.341V5.115c0.866-0.011,1.72-0.028,2.551-0.055
	c-0.005,0.02-0.005,0.035-0.005,0.055V39.8c0,0.742,0.601,1.341,1.349,1.341c0.745,0,1.347-0.599,1.347-1.341V5.113
	c0-0.058-0.005-0.12-0.015-0.18c0.916-0.051,1.793-0.121,2.619-0.201c-0.04,0.122-0.059,0.246-0.059,0.383v32.669
	c0.023,2.274,1.899,4.129,4.21,4.129c2.321,0,4.212-1.875,4.212-4.173C35.072,36.995,34.465,36.396,33.726,36.395z"/>
</svg>
