<?xml version="1.0" encoding="iso-8859-1"?>
<!-- Generator: Adobe Illustrator 16.0.4, SVG Export Plug-In . SVG Version: 6.00 Build 0)  -->
<!DOCTYPE svg PUBLIC "-//W3C//DTD SVG 1.1//EN" "http://www.w3.org/Graphics/SVG/1.1/DTD/svg11.dtd">
<svg version="1.1" id="Layer_1" xmlns="http://www.w3.org/2000/svg" xmlns:xlink="http://www.w3.org/1999/xlink" x="0px" y="0px"
	 width="46.584px" height="47.121px" viewBox="0 0 46.584 47.121" style="enable-background:new 0 0 46.584 47.121;"
	 xml:space="preserve">
<g>
	<path d="M42.164,36.58l-2.419-5.268h3.531c0.67,0,1.213-0.542,1.213-1.21c0-0.67-0.543-1.215-1.213-1.215h-6.547l-3.649-6.744
		h2.387c0.673,0,1.216-0.545,1.216-1.215c0-0.673-0.543-1.215-1.216-1.215h-12.18c-1.499-1.01-3.188-1.753-5.002-2.167L14.669,1.35
		c-0.146-0.654-0.794-1.068-1.449-0.922c-0.654,0.146-1.063,0.796-0.916,1.45l3.414,15.315c-0.248-0.012-0.501-0.016-0.755-0.016
		C6.714,17.177,0,23.89,0,32.147c0,8.255,6.714,14.974,14.963,14.974c8.253,0,14.968-6.719,14.968-14.974
		c0-0.28-0.009-0.562-0.022-0.836h6.021c0.028,0.005,0.055,0.005,0.08,0.005c0.028,0,0.049,0,0.076-0.005h0.992l2.648,5.774
		c-1.529,0.781-2.578,2.373-2.578,4.205c0,2.603,2.111,4.721,4.718,4.721c2.601,0,4.718-2.118,4.718-4.721
		C46.584,38.787,44.627,36.735,42.164,36.58z M14.963,45.035c-7.097,0-12.873-5.781-12.873-12.888
		c0-7.104,5.776-12.885,12.873-12.885c0.414,0,0.826,0.019,1.231,0.063c0.77,0.07,1.517,0.209,2.241,0.417h0.004
		c0.12,0.033,0.236,0.068,0.357,0.1c1.574,0.494,3.018,1.28,4.268,2.3c2.099,1.699,3.656,4.053,4.356,6.744
		c0.206,0.783,0.34,1.595,0.39,2.426c0.021,0.275,0.031,0.557,0.031,0.836C27.841,39.253,22.064,45.035,14.963,45.035z
		 M29.574,28.886c-0.569-2.553-1.796-4.867-3.486-6.744h4.233l3.65,6.744H29.574z M41.866,43.587c-1.268,0-2.295-1.033-2.295-2.297
		c0-0.853,0.472-1.602,1.17-1.998C41.074,39.107,41.456,39,41.866,39c0.756,0,1.421,0.367,1.836,0.93c0,0,0,0.004,0.005,0.004
		c0.278,0.384,0.448,0.85,0.448,1.357C44.155,42.555,43.128,43.587,41.866,43.587z"/>
	<path d="M25.506,28.923c-0.92-3.016-3.096-5.478-5.914-6.781h0.001c-0.104-0.053-0.209-0.1-0.316-0.144v0c0,0,0,0-0.001,0
		c-0.538-0.23-1.094-0.417-1.672-0.554c-0.324-0.082-0.649-0.149-0.982-0.198c-0.542-0.084-1.095-0.124-1.659-0.124
		c-6.083,0-11.019,4.935-11.019,11.025c0,6.093,4.936,11.026,11.019,11.026c6.087,0,11.024-4.934,11.024-11.026
		c0-0.278-0.01-0.562-0.035-0.836C25.892,30.487,25.741,29.689,25.506,28.923z"/>
	<path d="M2.623,2.431h6.725c0.671,0,1.213-0.543,1.213-1.216C10.561,0.547,10.019,0,9.348,0H2.623C1.952,0,1.409,0.547,1.409,1.215
		C1.409,1.888,1.952,2.43,2.623,2.431z"/>
</g>
</svg>
