<?xml version="1.0" encoding="iso-8859-1"?>
<!-- Generator: Adobe Illustrator 16.0.4, SVG Export Plug-In . SVG Version: 6.00 Build 0)  -->
<!DOCTYPE svg PUBLIC "-//W3C//DTD SVG 1.1//EN" "http://www.w3.org/Graphics/SVG/1.1/DTD/svg11.dtd">
<svg version="1.1" id="Layer_1" xmlns="http://www.w3.org/2000/svg" xmlns:xlink="http://www.w3.org/1999/xlink" x="0px" y="0px"
	 width="41.4px" height="48.258px" viewBox="0 0 41.4 48.258" style="enable-background:new 0 0 41.4 48.258;" xml:space="preserve"
	>
<g>
	<path d="M12.309,20.201h-1.121c-1.233,0-2.235,1.006-2.235,2.246v23.569c0,1.24,1.002,2.242,2.235,2.242h1.121
		c1.235,0,2.237-1.002,2.237-2.242V22.447C14.546,21.206,13.544,20.201,12.309,20.201z"/>
	<path d="M21.259,13.467H20.14c-1.235,0-2.237,1.006-2.237,2.246v30.303c0,1.24,1.002,2.242,2.237,2.242h1.119
		c1.237,0,2.239-1.002,2.239-2.242V15.713C23.498,14.472,22.495,13.467,21.259,13.467z"/>
	<path d="M30.212,6.734h-1.118c-1.237,0-2.239,1.006-2.239,2.243v37.039c0,1.24,1.003,2.242,2.239,2.242h1.118
		c1.234,0,2.237-1.002,2.237-2.242V8.977C32.449,7.739,31.447,6.734,30.212,6.734z"/>
	<path d="M39.164,0h-1.119c-1.237,0-2.239,1.006-2.239,2.246v43.77c0,1.24,1.003,2.242,2.239,2.242h1.119
		c1.234,0,2.236-1.002,2.236-2.242V2.246C41.401,1.005,40.399,0,39.164,0z"/>
	<path d="M3.357,26.935H2.238C1.001,26.935,0,27.94,0,29.18v16.836c0,1.24,1.001,2.242,2.237,2.242h1.119
		c1.236,0,2.237-1.002,2.237-2.242V29.18C5.594,27.94,4.593,26.935,3.357,26.935z"/>
</g>
</svg>
