<?xml version="1.0" encoding="iso-8859-1"?>
<!-- Generator: Adobe Illustrator 16.0.4, SVG Export Plug-In . SVG Version: 6.00 Build 0)  -->
<!DOCTYPE svg PUBLIC "-//W3C//DTD SVG 1.1//EN" "http://www.w3.org/Graphics/SVG/1.1/DTD/svg11.dtd">
<svg version="1.1" id="Layer_1" xmlns="http://www.w3.org/2000/svg" xmlns:xlink="http://www.w3.org/1999/xlink" x="0px" y="0px"
	 width="29.898px" height="49.982px" viewBox="0 0 29.898 49.982" style="enable-background:new 0 0 29.898 49.982;"
	 xml:space="preserve">
<g>
	<path d="M28.554,0H1.345C0.605,0,0,0.602,0,1.349c0,4.638,1.437,9.835,3.84,13.893c2.576,4.355,6.009,6.961,9.765,7.459v24.547
		c0,0.015,0.004,0.026,0.005,0.04H8.641c-0.742,0-1.344,0.604-1.344,1.35c0,0.741,0.602,1.346,1.344,1.346h12.618
		c0.742,0,1.344-0.604,1.344-1.346c0-0.745-0.603-1.35-1.344-1.35H16.29c0.001-0.014,0.005-0.024,0.005-0.04V22.705
		c3.76-0.498,7.188-3.104,9.763-7.464c2.407-4.058,3.841-9.255,3.841-13.893C29.899,0.602,29.299,0,28.554,0z M14.958,20.102
		c-0.002,0-0.005-0.002-0.007-0.002c-0.004,0-0.008,0.002-0.012,0.002c-7.048-0.01-11.69-9.875-12.203-17.407h24.429
		C26.654,10.227,22.006,20.093,14.958,20.102z"/>
	<path d="M6.774,7.187c0,0,3.375,9.95,8.174,9.95c4.804,0,8.176-9.95,8.176-9.95c0.286-0.841-0.208-1.532-1.096-1.532H7.869
		C6.982,5.655,6.49,6.346,6.774,7.187z"/>
</g>
</svg>
