<?xml version="1.0" encoding="iso-8859-1"?>
<!-- Generator: Adobe Illustrator 16.0.4, SVG Export Plug-In . SVG Version: 6.00 Build 0)  -->
<!DOCTYPE svg PUBLIC "-//W3C//DTD SVG 1.1//EN" "http://www.w3.org/Graphics/SVG/1.1/DTD/svg11.dtd">
<svg version="1.1" id="Layer_1" xmlns="http://www.w3.org/2000/svg" xmlns:xlink="http://www.w3.org/1999/xlink" x="0px" y="0px"
	 width="22.994px" height="85.035px" viewBox="0 0 22.994 85.035" style="enable-background:new 0 0 22.994 85.035;"
	 xml:space="preserve">
<g>
	<path d="M15.987,29.517V14.819h1.746c0.748,0,1.351-0.6,1.351-1.342c0-0.738-0.603-1.345-1.351-1.345h-1.588
		c0.738-0.773,1.192-1.816,1.192-2.968V6.679c0-2.38-1.948-4.325-4.343-4.325h-0.148V1.342C12.847,0.6,12.24,0,11.497,0
		c-0.747,0-1.35,0.6-1.35,1.342v1.012h-0.15c-2.393,0-4.346,1.945-4.346,4.325v2.485c0,1.152,0.454,2.195,1.197,2.968H5.256
		c-0.743,0-1.35,0.607-1.35,1.345c0,0.742,0.607,1.342,1.35,1.342h1.746v14.697C2.884,31.257,0,35.319,0,40.047
		c0,4.73,2.884,8.791,7.002,10.533v13.594l0.072,2.5v0.011L7.501,82.05c0,1.65,1.341,2.982,2.997,2.982h1.999
		c1.65,0,2.992-1.332,2.992-2.982l0.427-15.366v-0.009v-0.002l0.071-2.5V50.58c4.117-1.738,7.007-5.799,7.007-10.533
		C22.994,35.314,20.104,31.252,15.987,29.517z M8.352,6.679c0-0.904,0.737-1.638,1.646-1.638h0.15v5.758h-0.15
		c-0.909,0-1.646-0.735-1.646-1.635V6.679z M11.497,76.554c-0.621,0-1.125-0.502-1.125-1.12c0-0.619,0.504-1.12,1.125-1.12
		c0.622,0,1.121,0.501,1.121,1.12C12.618,76.052,12.119,76.554,11.497,76.554z M11.497,71.274c-0.621,0-1.125-0.502-1.125-1.12
		c0-0.613,0.504-1.115,1.125-1.115c0.622,0,1.121,0.502,1.121,1.115C12.618,70.772,12.119,71.274,11.497,71.274z M11.497,66
		c-0.621,0-1.125-0.502-1.125-1.119c0-0.618,0.504-1.121,1.125-1.121c0.622,0,1.121,0.502,1.121,1.121
		C12.618,65.498,12.119,66,11.497,66z M12.849,40.047h-0.002c0,0.021,0,0.044-0.005,0.068c0.005,0.023,0.005,0.04,0.005,0.062
		c0,0.742-0.606,1.342-1.351,1.342h-2.47c-0.741,0-1.35-0.6-1.35-1.342c0-0.745,0.609-1.345,1.35-1.345h1.121v-2.324
		c0-0.743,0.603-1.342,1.35-1.342c0.743,0,1.352,0.6,1.352,1.342V40.047z M14.638,9.164c0,0.9-0.738,1.635-1.642,1.635h-0.147V5.041
		h0.147c0.903,0,1.642,0.733,1.642,1.638V9.164z"/>
	<path d="M7.001,66.057c0,0.213,0.023,0.422,0.072,0.618l-0.072-2.502V66.057z"/>
	<path d="M15.987,66.057v-1.884l-0.071,2.502C15.966,66.478,15.987,66.27,15.987,66.057z"/>
</g>
</svg>
