<?xml version="1.0" encoding="iso-8859-1"?>
<!-- Generator: Adobe Illustrator 16.0.4, SVG Export Plug-In . SVG Version: 6.00 Build 0)  -->
<!DOCTYPE svg PUBLIC "-//W3C//DTD SVG 1.1//EN" "http://www.w3.org/Graphics/SVG/1.1/DTD/svg11.dtd">
<svg version="1.1" id="Layer_1" xmlns="http://www.w3.org/2000/svg" xmlns:xlink="http://www.w3.org/1999/xlink" x="0px" y="0px"
	 width="59.75px" height="47.689px" viewBox="0 0 59.75 47.689" style="enable-background:new 0 0 59.75 47.689;"
	 xml:space="preserve">
<g>
	<path d="M58.579,43.442l-0.633,0.154C58.17,43.582,58.381,43.521,58.579,43.442z"/>
	<path d="M13.134,32.318c0.035-0.252,0.07-0.512,0.107-0.766c0.026-0.175,0.054-0.343,0.085-0.519
		c0.04-0.231,0.084-0.466,0.13-0.696c0.072-0.376,0.152-0.75,0.242-1.13c0.022-0.093,0.044-0.188,0.067-0.28
		c0.023-0.098,0.044-0.191,0.068-0.285c-0.484,1.391-0.757,2.885-0.786,4.439c0.014-0.124,0.023-0.25,0.041-0.378
		C13.102,32.573,13.116,32.449,13.134,32.318z"/>
	<polygon points="13.047,33.097 13.047,33.106 13.05,33.106 	"/>
	<path d="M21.839,35.862l0.004,0.006c-0.009-0.03-0.014-0.059-0.023-0.084c-0.01-0.023-0.018-0.044-0.022-0.073
		C21.808,35.764,21.825,35.813,21.839,35.862z"/>
	<path d="M57.79,0H34.07c-4.258,0.089-12.325,9.625-17.163,20.112l-0.856,2.041c-1.156,0.253-2.299,0.473-3.339,0.624
		c-3.33,0.491-8.417,0.701-11.815,0.785c-0.042,0-0.077,0.005-0.116,0.005c0,0-0.004,0-0.009,0.005
		c-0.023-0.005-0.058,0-0.086,0.005c-0.43,0.074-0.735,0.401-0.68,0.739c0.027,0.166,0.138,0.304,0.3,0.391
		c0.008,0,0.018,0.007,0.026,0.007c0.055,0.023,0.113,0.047,0.17,0.062c2.493,0.904,5.854,2.091,7.666,2.631
		c1.183,0.353,3.398,0.754,5.696,1.12c-0.008,0.035-0.021,0.07-0.026,0.112c-0.028,0.094-0.049,0.191-0.072,0.285
		c-0.022,0.094-0.045,0.187-0.067,0.28c-0.085,0.381-0.167,0.754-0.242,1.13c-0.045,0.23-0.09,0.465-0.13,0.696
		c-0.032,0.175-0.059,0.343-0.085,0.519c-0.037,0.254-0.072,0.514-0.107,0.766c-0.018,0.132-0.032,0.254-0.046,0.386
		c-0.013,0.128-0.027,0.255-0.035,0.378c-0.006,0.005-0.006,0.009-0.006,0.014v0.004c0,0,0.006,0,0.006,0.005
		c-0.006,0.077-0.006,0.147-0.006,0.225c0,0.156,0.006,0.311,0.009,0.467c0.023,0.801,0.118,1.581,0.27,2.34
		C14.64,42.72,20.47,47.69,27.467,47.69c1.966,0,3.846-0.395,5.553-1.113c1.699-0.703,3.232-1.727,4.531-2.994l-2.721-2.705
		c-0.73,0.441-1.533,0.771-2.385,0.98c-0.689,0.176-1.412,0.265-2.15,0.265c-0.148,0-0.301-0.004-0.449-0.01h-0.032
		c-0.125-0.009-0.26-0.021-0.394-0.03c-0.028-0.005-0.059-0.005-0.09-0.015c-0.104-0.009-0.21-0.022-0.313-0.04
		c-0.045-0.005-0.095-0.009-0.139-0.019c-0.117-0.021-0.229-0.04-0.341-0.063c-0.008,0-0.021-0.003-0.031-0.007
		c-0.117-0.019-0.238-0.047-0.354-0.082c-0.43-0.103-0.838-0.24-1.237-0.406c-0.111-0.044-0.23-0.099-0.341-0.147
		c-0.094-0.044-0.183-0.089-0.278-0.138c-0.035-0.015-0.071-0.031-0.103-0.049c-0.094-0.055-0.188-0.104-0.283-0.156
		c-0.094-0.06-0.192-0.112-0.287-0.17c-0.035-0.021-0.072-0.044-0.106-0.066c-0.072-0.044-0.144-0.093-0.216-0.138
		c-0.025-0.024-0.054-0.042-0.08-0.063c-0.077-0.058-0.162-0.111-0.238-0.175c-0.224-0.166-0.435-0.339-0.637-0.525
		c-0.089-0.077-0.175-0.161-0.26-0.245c-0.134-0.132-0.26-0.265-0.38-0.402c-0.068-0.068-0.127-0.135-0.18-0.208
		c-0.022-0.021-0.049-0.046-0.072-0.079c-0.072-0.089-0.148-0.182-0.219-0.28c-0.246-0.322-0.466-0.666-0.664-1.022
		c-0.062-0.112-0.121-0.219-0.175-0.331c-0.058-0.11-0.107-0.222-0.161-0.339c-0.05-0.112-0.099-0.227-0.145-0.343
		c-0.049-0.115-0.089-0.231-0.133-0.354c-0.032-0.089-0.063-0.177-0.09-0.269c-0.009-0.031-0.023-0.057-0.027-0.084l-0.004-0.006
		c-0.014-0.049-0.031-0.098-0.041-0.151c-0.009-0.021-0.014-0.049-0.018-0.07c-0.014-0.049-0.023-0.098-0.035-0.142
		c-0.037-0.122-0.063-0.248-0.091-0.371c-0.031-0.147-0.063-0.29-0.08-0.442c-0.072-0.44-0.108-0.895-0.108-1.356
		c0-4.858,3.952-8.796,8.831-8.796c1.021,0,1.989,0.171,2.899,0.49H33.2c0.012-0.005,0.021-0.005,0.038-0.005
		c0.065,0,0.127,0.014,0.183,0.038c-0.056-0.023-0.116-0.037-0.18-0.037c-0.019,0-0.027,0-0.039,0.005
		c0.001,0,0.003,0.001,0.004,0.002c-0.001,0-0.003,0-0.004,0c0.123,0.035,0.245,0.084,0.366,0.134l-0.001-0.001h0.002
		c0.078,0.084,0.121,0.187,0.121,0.309v0.044l-0.003,0.004v0.001l-0.043,0.08l-0.015,0.023l-0.102,0.187h0.001l-2.478,4.592
		l7.91,1.255l1.084,0.168c0.849,0.104,1.498,0.725,1.677,1.507c0,0.001,0,0.001,0,0.002h-0.007l0.035,0.145
		c-0.004-0.035-0.012-0.069-0.019-0.104c0.008,0.034,0.016,0.066,0.022,0.104l1.693,6.762l1.156,4.648
		c0.266,1.049,1.331,1.688,2.385,1.425l10.949-2.714h0.005l0.632-0.156l0.014-0.005c0.681-0.303,1.16-0.995,1.16-1.791V1.959
		C59.75,0.88,58.874,0,57.79,0z M33.687,25.516v0.005c0,0.003-0.002,0.004-0.002,0.007l-0.004,0.007
		C33.682,25.528,33.686,25.523,33.687,25.516z M33.59,25.743L33.59,25.743c0.005-0.007,0.008-0.014,0.012-0.019
		c-0.004,0.005-0.006,0.011-0.01,0.016C33.59,25.743,33.59,25.742,33.59,25.743z M34.622,15.612c-1.354,0-2.457-1.098-2.457-2.449
		c0-1.351,1.104-2.448,2.457-2.448c1.362,0,2.461,1.098,2.461,2.448C37.083,14.514,35.983,15.612,34.622,15.612z"/>
</g>
</svg>
