<?xml version="1.0" encoding="iso-8859-1"?>
<!-- Generator: Adobe Illustrator 19.2.1, SVG Export Plug-In . SVG Version: 6.00 Build 0)  -->
<svg version="1.1" xmlns="http://www.w3.org/2000/svg" xmlns:xlink="http://www.w3.org/1999/xlink" x="0px" y="0px"
	 viewBox="0 0 31.723 26.078" style="enable-background:new 0 0 31.723 26.078;" xml:space="preserve">
<g id="Layer_2">
	<path style="fill:#66CCFF;" d="M18.967,12.553l-1.106,2.211l-3.106-6.211C14.586,8.213,14.241,8,13.861,8
		c-0.379,0-0.725,0.213-0.894,0.553L11.243,12H2.862v2h9c0.38,0,0.725-0.213,0.894-0.553l1.106-2.211l3.106,6.211
		c0.17,0.34,0.515,0.553,0.894,0.553c0.38,0,0.725-0.213,0.894-0.553L20.479,14h8.382v-2l-9,0
		C19.482,12,19.137,12.213,18.967,12.553z"/>
	<path style="fill:#4E5F80;" d="M13.74,25.199c0.583,0.584,1.357,0.88,2.121,0.879c0.764,0.001,1.538-0.295,2.121-0.879
		l11.292-11.292c1.61-1.616,2.445-3.856,2.448-6.077c0-1.811-0.566-3.638-1.808-5.068C28.381,0.992,26.187-0.002,23.861,0
		c-0.525,0-1.056,0.05-1.588,0.152c-1.655,0.319-3.093,1.209-4.224,2.34L15.861,4.68l-2.188-2.188
		c-1.132-1.131-2.569-2.021-4.224-2.34C8.918,0.05,8.387,0,7.862,0C5.536-0.002,3.342,0.992,1.808,2.762C0.566,4.193,0,6.02,0,7.83
		c0.003,2.22,0.838,4.46,2.448,6.077L13.74,25.199z M3.318,4.074C4.484,2.735,6.101,2.003,7.862,2c0.398,0,0.803,0.038,1.212,0.116
		C10.247,2.339,11.355,3,12.26,3.906l2.895,2.895c0.186,0.186,0.444,0.293,0.707,0.293s0.521-0.107,0.707-0.293l2.895-2.895
		c0.905-0.906,2.013-1.567,3.186-1.79C23.059,2.038,23.464,2,23.861,2c1.76,0.003,3.378,0.735,4.544,2.074l0.755-0.656l-0.755,0.656
		c0.88,1.012,1.317,2.355,1.318,3.757c0.003,1.716-0.669,3.475-1.862,4.662L16.569,23.785c-0.198,0.197-0.448,0.292-0.707,0.293
		c-0.259-0.001-0.509-0.096-0.707-0.293L3.862,12.493C2.669,11.306,1.997,9.546,2,7.83C2,6.429,2.438,5.085,3.318,4.074z"/>
</g>
<g id="Layer_1">
</g>
</svg>
