<?xml version="1.0" encoding="iso-8859-1"?>
<!-- Generator: Adobe Illustrator 19.2.1, SVG Export Plug-In . SVG Version: 6.00 Build 0)  -->
<svg version="1.1" xmlns="http://www.w3.org/2000/svg" xmlns:xlink="http://www.w3.org/1999/xlink" x="0px" y="0px"
	 viewBox="0 0 31.997 32" style="enable-background:new 0 0 31.997 32;" xml:space="preserve">
<g id="Layer_11">
	<circle style="fill:#66CCFF;" cx="21.983" cy="22" r="2"/>
	<circle style="fill:#66CCFF;" cx="17.983" cy="26" r="2"/>
	<circle style="fill:#66CCFF;" cx="25.983" cy="18" r="2"/>
	<circle style="fill:#66CCFF;" cx="19.983" cy="16" r="2"/>
	<circle style="fill:#66CCFF;" cx="15.983" cy="20" r="2"/>
	<circle style="fill:#66CCFF;" cx="23.983" cy="12" r="2"/>
	<circle style="fill:#66CCFF;" cx="11.983" cy="24" r="2"/>
	<path style="fill:#4E5F80;" d="M16.01,32c9-0.002,15.984-7.174,15.986-16C31.995,7.174,24.815,0.002,15.99,0
		C7.164,0.002,0.002,7.174,0,16C0.002,24.826,7.01,31.998,16.01,32z M6.091,6.105C8.63,3.568,12.123,2,15.984,2
		c3.862,0,7.355,1.568,9.894,4.105c2.537,2.539,4.104,6.033,4.105,9.895c0,3.862-1.555,7.356-4.092,9.895
		C23.353,28.432,20.01,30,16.01,30c-4,0-7.37-1.568-9.908-4.105C3.565,23.356,1.99,19.862,1.99,16
		C1.99,12.138,3.554,8.644,6.091,6.105z"/>
</g>
<g id="Layer_1">
</g>
</svg>
