<?xml version="1.0" encoding="iso-8859-1"?>
<!-- Generator: Adobe Illustrator 19.2.1, SVG Export Plug-In . SVG Version: 6.00 Build 0)  -->
<svg version="1.1" xmlns="http://www.w3.org/2000/svg" xmlns:xlink="http://www.w3.org/1999/xlink" x="0px" y="0px"
	 viewBox="0 0 31.997 32" style="enable-background:new 0 0 31.997 32;" xml:space="preserve">
<g id="Layer_13">
	<path style="fill:#66CCFF;" d="M30.879,16.038c-3.621,0.249-6.905,1.714-9.467,3.977L17.397,16l9.895-9.895
		c0.391-0.391,0.391-1.024,0-1.414c-0.39-0.391-1.024-0.391-1.414,0l-9.895,9.895l-4.015-4.015c2.263-2.563,3.728-5.846,3.977-9.467
		c0.038-0.551-0.378-1.028-0.929-1.066C14.465,0,13.987,0.416,13.95,0.967c-0.213,3.121-1.462,5.96-3.396,8.19L6.088,4.691
		c-0.391-0.391-1.024-0.391-1.414,0c-0.391,0.391-0.391,1.024,0,1.414l4.465,4.465c-2.23,1.934-5.069,3.184-8.19,3.396
		c-0.551,0.038-0.967,0.515-0.929,1.066C0.058,15.584,0.535,16,1.086,15.962c3.621-0.249,6.905-1.714,9.467-3.977L14.569,16
		l-9.895,9.895c-0.391,0.391-0.391,1.024,0,1.414c0.391,0.39,1.024,0.39,1.414,0l9.895-9.895l4.015,4.015
		c-2.263,2.563-3.728,5.846-3.977,9.467c-0.038,0.551,0.378,1.028,0.929,1.066c0.551,0.038,1.028-0.378,1.066-0.929h0
		c0.213-3.121,1.462-5.96,3.396-8.19l4.466,4.466c0.391,0.39,1.024,0.39,1.414,0c0.391-0.391,0.391-1.024,0-1.414l-4.465-4.465
		c2.23-1.934,5.069-3.183,8.19-3.396c0.551-0.038,0.967-0.515,0.929-1.066C31.907,16.416,31.43,16,30.879,16.038z"/>
	<path style="fill:#4E5F80;" d="M15.99,0C7.164,0.002,0.002,7.174,0,16c0.002,8.826,7.01,15.998,16.01,16
		c9-0.002,15.984-7.174,15.986-16C31.995,7.174,24.815,0.002,15.99,0z M25.891,25.895C23.353,28.432,20.01,30,16.01,30
		c-4,0-7.37-1.568-9.909-4.105C3.565,23.356,1.99,19.862,1.99,16c0-3.862,1.565-7.356,4.102-9.895C8.63,3.568,12.123,2,15.984,2
		c3.862,0,7.355,1.568,9.894,4.105c2.537,2.539,4.104,6.033,4.105,9.895C29.983,19.862,28.429,23.356,25.891,25.895z"/>
</g>
<g id="Layer_1">
</g>
</svg>
