<?xml version="1.0" encoding="iso-8859-1"?>
<!-- Generator: Adobe Illustrator 19.2.1, SVG Export Plug-In . SVG Version: 6.00 Build 0)  -->
<svg version="1.1" xmlns="http://www.w3.org/2000/svg" xmlns:xlink="http://www.w3.org/1999/xlink" x="0px" y="0px"
	 viewBox="0 0 31.997 32" style="enable-background:new 0 0 31.997 32;" xml:space="preserve">
<g id="Layer_15">
	<path style="fill:#66CCFF;" d="M1.983,18c0.958,0,1.892-0.1,2.803-0.262l0.244,1.001c0.131,0.537,0.672,0.866,1.208,0.735
		c0.537-0.131,0.866-0.672,0.735-1.208l-0.24-0.986c1.231-0.384,2.389-0.927,3.473-1.58l0.593,0.858
		c0.314,0.454,0.937,0.568,1.391,0.254c0.454-0.314,0.568-0.937,0.254-1.391l-0.59-0.854c1.002-0.789,1.906-1.693,2.695-2.695
		l0.854,0.59c0.454,0.314,1.077,0.2,1.391-0.254c0.314-0.454,0.2-1.077-0.254-1.391l-0.858-0.593
		c0.653-1.085,1.197-2.242,1.58-3.473l0.986,0.24c0.537,0.131,1.078-0.198,1.208-0.735c0.131-0.536-0.198-1.077-0.735-1.208
		l-1.001-0.244C17.883,3.892,17.983,2.958,17.983,2c0-0.552-0.448-1-1-1c-0.552,0-1,0.448-1,1c0,0.795-0.082,1.57-0.21,2.329
		l-0.937-0.228c-0.537-0.131-1.078,0.198-1.208,0.735c-0.131,0.537,0.198,1.078,0.735,1.208l0.948,0.231
		c-0.319,0.992-0.753,1.929-1.274,2.812L13.25,8.543c-0.454-0.314-1.077-0.2-1.391,0.254c-0.314,0.454-0.2,1.077,0.254,1.391
		l0.792,0.547c-0.323,0.403-0.662,0.794-1.027,1.159c-0.365,0.365-0.756,0.704-1.159,1.027l-0.547-0.792
		c-0.314-0.454-0.937-0.568-1.391-0.254c-0.454,0.314-0.568,0.937-0.254,1.391l0.543,0.786c-0.882,0.521-1.82,0.955-2.811,1.274
		l-0.231-0.948c-0.131-0.537-0.672-0.866-1.208-0.735s-0.866,0.672-0.735,1.208l0.228,0.938C3.553,15.918,2.778,16,1.983,16
		c-0.552,0-1,0.448-1,1C0.983,17.552,1.43,18,1.983,18z"/>
	<path style="fill:#66CCFF;" d="M31.016,14.033C30.674,14.011,30.33,14,29.983,14c-0.958,0-1.892,0.1-2.804,0.262l-0.244-1.001
		c-0.131-0.537-0.672-0.866-1.208-0.735c-0.537,0.131-0.866,0.672-0.735,1.208l0.24,0.986c-1.231,0.383-2.389,0.927-3.473,1.58
		l-0.593-0.858c-0.314-0.454-0.937-0.568-1.391-0.254c-0.454,0.314-0.568,0.937-0.254,1.391l0.59,0.854
		c-1.002,0.789-1.906,1.693-2.695,2.695l-0.854-0.59c-0.454-0.314-1.077-0.2-1.391,0.254c-0.314,0.454-0.2,1.077,0.254,1.391
		l0.858,0.593c-0.653,1.084-1.197,2.242-1.58,3.473l-0.986-0.24c-0.536-0.131-1.078,0.198-1.208,0.735
		c-0.131,0.537,0.198,1.077,0.735,1.208l1.001,0.244c-0.162,0.912-0.262,1.846-0.262,2.803c0,0.347,0.011,0.691,0.033,1.033
		c0.035,0.551,0.511,0.969,1.062,0.934c0.551-0.035,0.969-0.511,0.934-1.062v0c-0.019-0.299-0.029-0.601-0.029-0.905
		c0-0.795,0.082-1.57,0.21-2.329l0.938,0.228c0.537,0.131,1.077-0.198,1.208-0.735c0.131-0.537-0.198-1.078-0.735-1.208
		l-0.948-0.231c0.319-0.992,0.753-1.929,1.274-2.812l0.786,0.543c0.454,0.314,1.077,0.2,1.391-0.254
		c0.314-0.454,0.2-1.077-0.254-1.391l-0.792-0.547c0.323-0.403,0.662-0.794,1.027-1.159c0.365-0.365,0.756-0.704,1.159-1.027
		l0.547,0.792c0.314,0.454,0.937,0.568,1.391,0.254c0.454-0.314,0.568-0.937,0.254-1.391l-0.543-0.786
		c0.882-0.521,1.82-0.955,2.812-1.274l0.231,0.948c0.131,0.537,0.672,0.866,1.208,0.735c0.537-0.131,0.866-0.672,0.735-1.208
		l-0.228-0.938c0.759-0.128,1.534-0.21,2.329-0.21c0.304,0,0.606,0.01,0.905,0.029c0.551,0.035,1.027-0.383,1.062-0.934
		C31.985,14.544,31.567,14.068,31.016,14.033z"/>
	<path style="fill:#4E5F80;" d="M15.99,0C7.164,0.002,0.002,7.174,0,16c0.002,8.826,7.01,15.998,16.01,16
		c9-0.002,15.984-7.174,15.986-16C31.995,7.174,24.815,0.002,15.99,0z M25.891,25.895C23.353,28.432,20.01,30,16.01,30
		c-4,0-7.37-1.568-9.909-4.105C3.565,23.356,1.99,19.862,1.99,16c0-3.862,1.565-7.356,4.102-9.895C8.63,3.568,12.123,2,15.984,2
		c3.862,0,7.355,1.568,9.894,4.105c2.537,2.539,4.104,6.033,4.105,9.895C29.983,19.862,28.429,23.356,25.891,25.895z"/>
</g>
<g id="Layer_1">
</g>
</svg>
