<?xml version="1.0" encoding="iso-8859-1"?>
<!-- Generator: Adobe Illustrator 19.2.1, SVG Export Plug-In . SVG Version: 6.00 Build 0)  -->
<svg version="1.1" xmlns="http://www.w3.org/2000/svg" xmlns:xlink="http://www.w3.org/1999/xlink" x="0px" y="0px"
	 viewBox="0 0 31.996 32" style="enable-background:new 0 0 31.996 32;" xml:space="preserve">
<g id="Layer_16">
	<path style="fill:#66CCFF;" d="M13.983,13c0.001,0.772,0.301,1.469,0.78,2c-0.479,0.531-0.779,1.228-0.78,2
		c0.002,1.657,1.343,2.998,3,3c1.657-0.002,2.998-1.343,3-3c-0.001-0.772-0.301-1.469-0.78-2c0.479-0.531,0.779-1.228,0.78-2
		c-0.002-1.657-1.343-2.998-3-3C15.326,10.002,13.985,11.343,13.983,13z M16.983,18c-0.548-0.001-0.999-0.452-1-1
		c0.001-0.548,0.452-0.999,1-1c0.548,0.001,0.999,0.452,1,1C17.982,17.548,17.531,17.999,16.983,18z M17.983,13
		c-0.001,0.548-0.452,0.999-1,1c-0.548-0.001-0.999-0.452-1-1c0.001-0.548,0.452-0.999,1-1C17.531,12.001,17.982,12.452,17.983,13z"
		/>
	<path style="fill:#66CCFF;" d="M7.983,15c0.002,4.965,4.035,8.998,9,9c4.965-0.002,8.998-4.035,9-9c-0.002-4.965-4.035-8.998-9-9
		C12.017,6.002,7.985,10.035,7.983,15z M23.983,15c0,1.932-0.783,3.676-2.053,4.947C20.659,21.217,18.914,22,16.983,22
		c-1.932,0-3.676-0.783-4.947-2.053c-1.27-1.271-2.053-3.015-2.053-4.947c0-1.932,0.783-3.676,2.053-4.947
		C13.307,8.783,15.051,8,16.983,8c1.932,0,3.676,0.783,4.947,2.053C23.199,11.324,23.982,13.068,23.983,15z"/>
	<path style="fill:#4E5F80;" d="M16.01,32c9-0.002,15.984-7.174,15.986-16C31.995,7.174,24.815,0.002,15.99,0
		C7.164,0.002,0.002,7.174,0,16C0.002,24.826,7.01,31.998,16.01,32z M6.091,6.105C8.63,3.568,12.123,2,15.984,2
		c3.862,0,7.355,1.568,9.894,4.105c2.537,2.539,4.104,6.033,4.105,9.895c0,3.862-1.555,7.356-4.092,9.895
		C23.353,28.432,20.01,30,16.01,30c-4,0-7.37-1.568-9.909-4.105C3.565,23.356,1.99,19.862,1.99,16
		C1.99,12.138,3.554,8.644,6.091,6.105z"/>
</g>
<g id="Layer_1">
</g>
</svg>
