<?xml version="1.0" encoding="iso-8859-1"?>
<!-- Generator: Adobe Illustrator 19.2.1, SVG Export Plug-In . SVG Version: 6.00 Build 0)  -->
<svg version="1.1" xmlns="http://www.w3.org/2000/svg" xmlns:xlink="http://www.w3.org/1999/xlink" x="0px" y="0px"
	 viewBox="0 0 31.786 31.786" style="enable-background:new 0 0 31.786 31.786;" xml:space="preserve">
<g id="Layer_17">
	<path style="fill:#66CCFF;" d="M15.033,31.033c0.391-0.39,0.391-1.024,0-1.414L2.167,16.753c-0.39-0.391-1.024-0.391-1.414,0
		c-0.391,0.39-0.391,1.024,0,1.414l12.867,12.867C14.01,31.424,14.643,31.424,15.033,31.033z"/>
	<path style="fill:#66CCFF;" d="M31.033,13.619L18.167,0.753c-0.391-0.391-1.024-0.391-1.414,0c-0.391,0.391-0.391,1.024,0,1.414
		l12.867,12.867c0.39,0.39,1.024,0.39,1.414,0C31.424,14.643,31.424,14.01,31.033,13.619z"/>
	<path style="fill:#66CCFF;" d="M21.6,10.186c-0.391-0.391-1.024-0.391-1.414,0l-0.293,0.293L17.6,8.186
		c-0.391-0.391-1.024-0.391-1.414,0c-0.39,0.391-0.39,1.024,0,1.414l2.293,2.293l-2.586,2.586L13.6,12.186
		c-0.391-0.391-1.024-0.391-1.414,0c-0.391,0.391-0.391,1.024,0,1.414l2.293,2.293l-2.586,2.586L9.6,16.186
		c-0.391-0.391-1.024-0.391-1.414,0c-0.39,0.391-0.39,1.024,0,1.414l2.293,2.293l-0.293,0.293c-0.391,0.391-0.391,1.024,0,1.414
		c0.391,0.391,1.024,0.391,1.414,0l0.293-0.293l2.293,2.293c0.391,0.391,1.024,0.391,1.414,0c0.391-0.391,0.391-1.024,0-1.414
		l-2.293-2.293l2.586-2.586l2.293,2.293c0.391,0.391,1.024,0.391,1.414,0c0.39-0.391,0.39-1.024,0-1.414l-2.293-2.293l2.586-2.586
		l2.293,2.293c0.391,0.391,1.024,0.391,1.414,0c0.39-0.391,0.39-1.024,0-1.414l-2.293-2.293L21.6,11.6
		C21.991,11.21,21.991,10.576,21.6,10.186z"/>
	<path style="fill:#4E5F80;" d="M4.906,31.303c1.292,0.306,2.861,0.482,4.599,0.483c5.049-0.007,11.576-1.485,16.196-6.085
		c4.601-4.62,6.079-11.146,6.085-16.195c0-1.738-0.177-3.307-0.483-4.599c-0.32-1.294-0.712-2.306-1.402-3.021
		c-0.715-0.69-1.727-1.082-3.021-1.402C25.588,0.177,24.019,0.001,22.281,0C17.232,0.007,10.705,1.485,6.085,6.085
		C1.484,10.705,0.007,17.232,0,22.281c0.001,1.738,0.177,3.307,0.483,4.599c0.32,1.294,0.712,2.306,1.402,3.021h0l0,0
		C2.6,30.591,3.612,30.983,4.906,31.303z M7.5,7.5C11.557,3.423,17.603,1.993,22.281,2c1.6-0.001,3.033,0.166,4.137,0.429
		c1.101,0.249,1.877,0.653,2.069,0.871c0.217,0.192,0.621,0.968,0.87,2.069c0.263,1.103,0.429,2.537,0.429,4.137
		c0.007,4.678-1.423,10.724-5.5,14.781c-4.057,4.076-10.104,5.506-14.781,5.5c-1.6,0-3.033-0.166-4.137-0.429
		c-1.101-0.249-1.877-0.653-2.069-0.87l-0.707,0.707l0.707-0.707c-0.218-0.192-0.622-0.968-0.871-2.069
		C2.166,25.314,1.999,23.881,2,22.281C1.993,17.603,3.423,11.557,7.5,7.5z"/>
</g>
<g id="Layer_1">
</g>
</svg>
