<?xml version="1.0" encoding="iso-8859-1"?>
<!-- Generator: Adobe Illustrator 19.2.1, SVG Export Plug-In . SVG Version: 6.00 Build 0)  -->
<svg version="1.1" xmlns="http://www.w3.org/2000/svg" xmlns:xlink="http://www.w3.org/1999/xlink" x="0px" y="0px"
	 viewBox="0 0 31.997 32" style="enable-background:new 0 0 31.997 32;" xml:space="preserve">
<g id="Layer_18">
	<path style="fill:#66CCFF;" d="M15.983,4c-1.048,0-2.06,0.149-3.03,0.403c-0.026,0.005-0.05-0.002-0.076,0.005
		c-0.023,0.006-0.04,0.023-0.062,0.031C8.743,5.556,5.539,8.76,4.421,12.832c-0.008,0.023-0.025,0.039-0.031,0.062
		c-0.007,0.026,0,0.051-0.005,0.076C4.132,13.94,3.983,14.952,3.983,16c0.002,6.62,5.38,11.998,12,12c1.049,0,2.06-0.149,3.03-0.403
		c0.026-0.005,0.05,0.002,0.076-0.005c0.023-0.006,0.04-0.023,0.062-0.031c4.072-1.117,7.276-4.321,8.393-8.393
		c0.008-0.023,0.025-0.039,0.031-0.062c0.007-0.026,0-0.051,0.005-0.076c0.254-0.97,0.403-1.981,0.403-3.03
		C27.981,9.38,22.602,4.002,15.983,4z M15.983,6c2.399,0,4.598,0.848,6.324,2.262l-4.305,4.304
		c-0.595-0.351-1.279-0.566-2.019-0.566c-0.012,0-0.023,0.003-0.035,0.004l-1.571-5.862C14.901,6.056,15.434,6,15.983,6z M17.983,16
		c-0.002,1.1-0.9,1.998-2,2c-1.1-0.002-1.998-0.9-2-2c0.002-1.1,0.9-1.998,2-2C17.083,14.002,17.981,14.9,17.983,16z M8.915,8.933
		c0.994-0.993,2.196-1.767,3.529-2.274l1.575,5.878c-0.627,0.357-1.143,0.873-1.5,1.5l-5.878-1.575
		C7.148,11.128,7.923,9.926,8.915,8.933z M5.983,16c0-0.548,0.056-1.082,0.141-1.606l5.862,1.571c0,0.012-0.004,0.023-0.004,0.036
		c0.001,0.74,0.216,1.425,0.567,2.019l-4.305,4.305C6.831,20.598,5.983,18.399,5.983,16z M15.983,26
		c-2.399,0-4.598-0.849-6.324-2.262l4.304-4.305c0.595,0.351,1.279,0.566,2.019,0.567c0.012,0,0.023-0.003,0.035-0.004l1.571,5.862
		C17.065,25.944,16.531,26,15.983,26z M23.05,23.067c-0.994,0.993-2.196,1.767-3.529,2.274l-1.575-5.878
		c0.628-0.357,1.143-0.873,1.5-1.5l5.878,1.575C24.817,20.871,24.043,22.074,23.05,23.067z M25.841,17.606l-5.862-1.571
		c0-0.012,0.004-0.023,0.004-0.035c-0.001-0.74-0.216-1.425-0.567-2.019l4.304-4.305c1.413,1.726,2.262,3.924,2.262,6.324
		C25.983,16.548,25.927,17.082,25.841,17.606z"/>
	<path style="fill:#4E5F80;" d="M15.99,0C7.164,0.002,0.002,7.174,0,16c0.002,8.826,7.01,15.998,16.01,16
		c9-0.002,15.984-7.174,15.986-16C31.995,7.174,24.815,0.002,15.99,0z M25.892,25.895C23.353,28.432,20.01,30,16.01,30
		c-4,0-7.37-1.568-9.908-4.105C3.565,23.356,1.99,19.862,1.99,16c0-3.862,1.565-7.356,4.102-9.895C8.63,3.568,12.123,2,15.984,2
		c3.862,0,7.355,1.568,9.894,4.105c2.537,2.539,4.104,6.033,4.105,9.895C29.983,19.862,28.429,23.356,25.892,25.895z"/>
</g>
<g id="Layer_1">
</g>
</svg>
