<?xml version="1.0" encoding="iso-8859-1"?>
<!-- Generator: Adobe Illustrator 19.2.1, SVG Export Plug-In . SVG Version: 6.00 Build 0)  -->
<svg version="1.1" xmlns="http://www.w3.org/2000/svg" xmlns:xlink="http://www.w3.org/1999/xlink" x="0px" y="0px"
	 viewBox="0 0 31.995 31.995" style="enable-background:new 0 0 31.995 31.995;" xml:space="preserve">
<g id="Layer_19">
	<path style="fill:#66CCFF;" d="M19.997,5.997c-2.975,0-5.712,1.013-7.903,2.696c-0.015-0.198-0.04-0.396-0.041-0.595
		c0.003-2.342,0.939-4.655,2.872-6.23c0.428-0.349,0.492-0.979,0.144-1.407c-0.349-0.428-0.979-0.493-1.407-0.144
		c-2.445,1.992-3.612,4.912-3.609,7.781c-0.006,3.309,1.715,6.606,4.96,8.475c-0.003,1.93-0.669,3.607-1.744,4.931
		c-2.526-0.802-4.77-2.495-6.2-4.972c-1.002-1.735-1.475-3.622-1.476-5.489c0-2.23,0.68-4.427,1.953-6.27
		c0.314-0.455,0.2-1.077-0.255-1.391S6.214,3.184,5.9,3.638c-1.505,2.181-2.307,4.771-2.307,7.406c0,2.205,0.563,4.445,1.744,6.489
		c1.488,2.577,3.735,4.441,6.29,5.497c-1.333,0.93-2.936,1.466-4.583,1.465c-0.913,0-1.839-0.161-2.747-0.506
		c-0.516-0.196-1.094,0.063-1.29,0.579c-0.196,0.516,0.063,1.094,0.579,1.29c1.139,0.433,2.309,0.637,3.458,0.637
		c2.601-0.001,5.082-1.037,6.924-2.793c0.133-0.126,0.255-0.265,0.381-0.399c0.018-0.021,0.04-0.036,0.056-0.059
		c1.59-1.719,2.61-4.036,2.609-6.674c1.265-0.724,2.587-1.071,3.887-1.072c0.41,0,0.816,0.038,1.217,0.101
		c0.172,0.778,0.283,1.57,0.283,2.372c0,1.866-0.474,3.753-1.476,5.489c-2.038,3.53-5.733,5.5-9.537,5.502
		c-0.295,0-0.59-0.012-0.884-0.036c-0.551-0.044-1.033,0.366-1.077,0.916c-0.045,0.55,0.366,1.033,0.916,1.077
		c0.349,0.028,0.698,0.042,1.046,0.042c4.49,0.001,8.862-2.333,11.27-6.502c1.181-2.044,1.744-4.284,1.744-6.489
		c0-0.573-0.04-1.144-0.115-1.708c2.279,1.072,4.056,3.194,4.482,5.87c0.088,0.545,0.601,0.916,1.147,0.828
		c0.545-0.088,0.916-0.601,0.828-1.147c-0.676-4.138-3.84-7.173-7.611-8.049c-0.021-0.004-0.04-0.011-0.062-0.014
		c-0.707-0.16-1.433-0.252-2.17-0.253c-1.646-0.001-3.337,0.424-4.913,1.333c-1.661-0.966-2.8-2.366-3.404-3.945
		c1.958-1.791,4.55-2.89,7.413-2.89c4.391-0.001,8.179,2.572,9.945,6.292c0.237,0.499,0.833,0.712,1.332,0.475
		c0.499-0.237,0.712-0.833,0.475-1.332C29.666,9.037,25.185,5.998,19.997,5.997z"/>
	<path style="fill:#4E5F80;" d="M7.997,29.854c2.511,1.45,5.263,2.141,7.975,2.141c5.53,0.001,10.92-2.87,13.881-7.997
		c1.45-2.511,2.141-5.263,2.141-7.975c0.001-5.53-2.87-10.92-7.997-13.881C21.486,0.691,18.734,0,16.022,0
		c-5.53-0.001-10.92,2.87-13.881,7.997C0.691,10.509,0,13.26,0,15.973C-0.001,21.503,2.87,26.892,7.997,29.854z M3.873,8.997
		C6.462,4.511,11.177,2.001,16.022,2c2.374,0,4.774,0.602,6.975,1.873c4.486,2.589,6.996,7.304,6.997,12.149
		c0,2.374-0.602,4.774-1.873,6.975c-2.589,4.486-7.304,6.996-12.149,6.997c-2.374,0-4.774-0.602-6.975-1.873
		C4.511,25.532,2.001,20.818,2,15.973C2,13.598,2.602,11.199,3.873,8.997z"/>
</g>
<g id="Layer_1">
</g>
</svg>
