<?xml version="1.0" encoding="iso-8859-1"?>
<!-- Generator: Adobe Illustrator 19.2.1, SVG Export Plug-In . SVG Version: 6.00 Build 0)  -->
<svg version="1.1" xmlns="http://www.w3.org/2000/svg" xmlns:xlink="http://www.w3.org/1999/xlink" x="0px" y="0px"
	 viewBox="0 0 31.997 32" style="enable-background:new 0 0 31.997 32;" xml:space="preserve">
<g id="Layer_21">
	<path style="fill:#66CCFF;" d="M27.983,16c-0.002-6.62-5.38-11.998-12-12c-6.62,0.002-11.998,5.38-12,12
		c0.002,6.62,5.38,11.998,12,12C22.602,27.998,27.981,22.62,27.983,16z M23.05,23.067c-0.876,0.875-1.913,1.584-3.06,2.088
		c-0.001-0.052-0.008-0.103-0.008-0.156c0.006-3.445,2.493-6.297,5.77-6.883C25.34,20.024,24.385,21.731,23.05,23.067z M8.915,8.933
		C10.73,7.12,13.224,6,15.983,6c2.759,0,5.253,1.12,7.067,2.933c0.705,0.706,1.301,1.517,1.772,2.404
		c-2.557-0.844-5.598-1.334-8.839-1.337c-3.241,0.002-6.283,0.492-8.839,1.337C7.614,10.449,8.21,9.638,8.915,8.933z M11.975,25.156
		c-1.146-0.504-2.184-1.213-3.06-2.088c-1.336-1.337-2.29-3.044-2.703-4.952c3.278,0.582,5.771,3.44,5.77,6.885
		C11.983,25.052,11.976,25.103,11.975,25.156z M5.986,16.057c0-0.019-0.003-0.038-0.003-0.057c0-0.748,0.089-1.473,0.245-2.174
		c2.537-1.107,6.003-1.829,9.755-1.826c3.752-0.003,7.218,0.719,9.755,1.826c0.156,0.701,0.245,1.426,0.245,2.174
		c0,0.02-0.003,0.039-0.003,0.059c-4.498,0.5-7.996,4.309-7.997,8.941c0,0.266,0.015,0.529,0.038,0.79
		C17.363,25.927,16.681,26,15.983,26c-0.699,0-1.38-0.073-2.038-0.21c0.023-0.261,0.038-0.524,0.038-0.79
		C13.982,20.368,10.484,16.557,5.986,16.057z"/>
	<circle style="fill:#66CCFF;" cx="15.983" cy="16" r="2"/>
	<path style="fill:#4E5F80;" d="M15.99,0C7.164,0.002,0.002,7.174,0,16c0.002,8.826,7.01,15.998,16.01,16
		c9-0.002,15.984-7.174,15.986-16C31.995,7.174,24.815,0.002,15.99,0z M25.891,25.895C23.353,28.432,20.01,30,16.01,30
		c-4,0-7.37-1.568-9.909-4.105C3.565,23.356,1.99,19.862,1.99,16c0-3.862,1.565-7.356,4.102-9.895C8.63,3.568,12.123,2,15.984,2
		c3.862,0,7.355,1.568,9.894,4.105c2.537,2.539,4.104,6.033,4.105,9.895C29.983,19.862,28.429,23.356,25.891,25.895z"/>
</g>
<g id="Layer_1">
</g>
</svg>
