<?xml version="1.0" encoding="iso-8859-1"?>
<!-- Generator: Adobe Illustrator 19.2.1, SVG Export Plug-In . SVG Version: 6.00 Build 0)  -->
<svg version="1.1" xmlns="http://www.w3.org/2000/svg" xmlns:xlink="http://www.w3.org/1999/xlink" x="0px" y="0px"
	 viewBox="0 0 31.852 31.872" style="enable-background:new 0 0 31.852 31.872;" xml:space="preserve">
<g id="Layer_22">
	<path style="fill:#66CCFF;" d="M18.79,11.934h-0.003c-4.983,0.009-9.023,4.018-9.023,8.985v0.988c-1.105,0-2,0.895-2,2
		c0,1.104,0.895,2,2,2c1.105,0,2-0.896,2-2l0-2.988c0.007-3.509,2.604-6.408,6-6.902v2.891h2v-2.97l11.043,0.035l0.006-2l0,0
		L18.79,11.934z"/>
	<rect x="11.763" y="21.907" style="fill:#66CCFF;" width="4" height="2"/>
	<polygon style="fill:#66CCFF;" points="25.763,23.907 23.763,23.907 23.763,25.907 19.763,25.907 19.763,27.907 23.763,27.907 
		23.763,29.907 25.763,29.907 25.763,27.907 29.763,27.907 29.763,25.907 25.763,25.907 	"/>
	<path style="fill:#4E5F80;" d="M19.791,17.872h9.037h0.003h0.006c1.664,0,3.008-1.296,3.016-2.944l-0.032-0.412v0.009
		c-0.581-3.909-2.516-7.515-5.31-10.17C23.719,1.702,20.04,0,16,0C7.179,0,0.001,7.126,0,15.953
		c0.007,2.828,0.933,6.183,2.567,8.943c0.821,1.377,1.824,2.607,3.024,3.517c1.195,0.908,2.616,1.495,4.172,1.494l0.436-0.015
		l-0.068-0.98l0.068,0.98c1.613-0.111,3.033-0.897,4.013-2.029c0.938-1.082,1.508-2.49,1.559-3.99c0.633,0,1.311,0,2.02,0v3.035
		c0,2.762,2.211,4.965,4.972,4.965h6c1.657,0,3.028-1.308,3.028-2.965v-6c0-0.263-0.12-0.539-0.307-0.725
		c-0.186-0.186-0.458-0.31-0.721-0.31c-1.772,0-6.618,0-10.972,0v-3.965V17.872z M17.791,21.872c-0.705,0-1.375,0-2,0v-0.953
		c0-1.313,0.833-2.446,2-2.865V21.872z M29.791,23.872v5.035c0,0.552-0.476,0.965-1.028,0.965h-6c-1.656,0-2.972-1.309-2.972-2.965
		v-3.035C23.448,23.872,27.425,23.872,29.791,23.872z M18.784,15.872h-0.006h-0.015c-2.761,0-4.972,2.284-4.972,5.047v1.833
		c-0.007,0.047-0.028,0.089-0.028,0.137c0,0.048,0.021,0.09,0.028,0.136v0.636c0,1.083-0.419,2.12-1.089,2.891
		c-0.673,0.772-1.59,1.271-2.633,1.345l0.062,0.997l-0.069-0.997l-0.298,0.01c-1.05-0.002-2.028-0.382-2.965-1.088
		c-1.4-1.053-2.633-2.856-3.479-4.865C2.468,19.949,1.997,17.741,2,15.955c0.001-3.862,1.567-7.342,4.104-9.869
		C8.641,3.56,12.136,2.003,16,2.002c3.467,0,6.659,1.459,9.134,3.807c2.473,2.346,4.2,5.575,4.708,9.018l0.01,0.139
		c0,0.255-0.107,0.459-0.294,0.645c-0.188,0.185-0.441,0.26-0.722,0.26h-0.003H28.83H18.784z"/>
</g>
<g id="Layer_1">
</g>
</svg>
