<?xml version="1.0" encoding="iso-8859-1"?>
<!-- Generator: Adobe Illustrator 19.2.1, SVG Export Plug-In . SVG Version: 6.00 Build 0)  -->
<svg version="1.1" xmlns="http://www.w3.org/2000/svg" xmlns:xlink="http://www.w3.org/1999/xlink" x="0px" y="0px"
	 viewBox="0 0 31.986 30.034" style="enable-background:new 0 0 31.986 30.034;" xml:space="preserve">
<g id="Layer_23">
	<circle style="fill:#66CCFF;" cx="15.986" cy="24.004" r="2"/>
	<path style="fill:#4E5F80;" d="M15.01,30.004c0.105,0.011,0.218,0.029,0.31,0.029c0.308-0.003,0.526-0.032,0.67-0.029
		c3.314-0.001,6.011-2.686,6.012-6c-0.001-3.314-2.988-5.999-5.988-6c0,0.002-0.379-0.027-0.687-0.029
		c-0.093,0-0.207,0.018-0.313,0.03v0c-1-0.001-1.013-0.466-1.014-1.018c0.001-0.552,0.434-1.017,0.986-1.017h12h0.028h1.972h2
		c0.552,0,1-0.448,1-1c0-0.552-0.448-1-1-1h-1.052C29.404,6.166,22.924,0.001,14.986,0C6.702,0.001,0.001,6.718,0,15.002
		C0.001,23.285,7.011,30.001,15.01,30.004z M5.794,5.812c2.356-2.354,5.599-3.807,9.192-3.808c3.593,0,6.837,1.436,9.192,3.79
		c2.151,2.152,3.535,4.702,3.761,8.175h-0.954h-12c-1.657,0-2.999,1.36-3,3.017c0.001,1.657,1.343,3.008,3,3.009l0.199-0.016
		l0.141-0.007c0.132-0.003,0.687,0.029,0.687,0.031c2,0.004,3.982,1.791,3.986,4c-0.004,2.209-1.798,3.996-4.007,4
		c-0.313,0.002-0.545,0.032-0.677,0.029l-0.129-0.009l-0.2-0.02c-3.593-0.001-6.837-1.454-9.193-3.808
		c-2.354-2.356-3.807-5.599-3.808-9.192C1.987,11.411,3.44,8.168,5.794,5.812z"/>
</g>
<g id="Layer_1">
</g>
</svg>
