<?xml version="1.0" encoding="iso-8859-1"?>
<!-- Generator: Adobe Illustrator 19.2.1, SVG Export Plug-In . SVG Version: 6.00 Build 0)  -->
<svg version="1.1" xmlns="http://www.w3.org/2000/svg" xmlns:xlink="http://www.w3.org/1999/xlink" x="0px" y="0px"
	 viewBox="0 0 32.028 30.796" style="enable-background:new 0 0 32.028 30.796;" xml:space="preserve">
<g id="Layer_24">
	<path style="fill:#66CCFF;" d="M31.258,23.755l-15.178-4.048C14.853,19.38,14,18.269,14,17h0c0.003-1.656,1.344-2.997,3-3h13.682
		c0.552,0,1-0.448,1-1c0-0.552-0.448-1-1-1H17c-2.762,0.001-4.999,2.238-5,5c0,2.175,1.462,4.078,3.564,4.639l15.178,4.048
		c0.534,0.142,1.082-0.175,1.224-0.708C32.109,24.445,31.791,23.897,31.258,23.755z"/>
	<circle style="fill:#66CCFF;" cx="17" cy="17" r="1"/>
	<path style="fill:#4E5F80;" d="M16.014,0c-1.026,0-2.079,0.097-3.136,0.299l0.184,0.982l0.186,0.982
		C14.182,2.085,15.102,2,16.001,2c3.862,0,7.369,1.568,9.908,4.105c2.537,2.539,4.119,6.033,4.119,9.895v9.793
		c0,0.857-0.359,1.595-0.908,2.138c-0.551,0.541-1.308,0.865-2.104,0.865c-0.255,0-0.519-0.033-0.784-0.103L5.069,23.05
		c-0.9-0.24-1.647-0.871-1.992-1.701C2.386,19.699,2.001,17.897,2,16c0-1.088,0.127-2.208,0.398-3.351
		C3.631,7.423,7.972,3.266,13.246,2.264l-0.188-0.982l-0.188-0.982C6.805,1.464,1.881,6.179,0.452,12.188
		C0.145,13.479,0,14.756,0,16c0,2.169,0.442,4.237,1.23,6.121c0.602,1.434,1.85,2.469,3.321,2.861l21.16,5.643
		c0.433,0.116,0.883,0.171,1.31,0.171c2.681-0.005,5.006-2.169,5.006-5.002V16C32.028,7.174,24.84,0.002,16.014,0z"/>
</g>
<g id="Layer_1">
</g>
</svg>
