<?xml version="1.0" encoding="iso-8859-1"?>
<!-- Generator: Adobe Illustrator 19.2.1, SVG Export Plug-In . SVG Version: 6.00 Build 0)  -->
<svg version="1.1" xmlns="http://www.w3.org/2000/svg" xmlns:xlink="http://www.w3.org/1999/xlink" x="0px" y="0px"
	 viewBox="0 0 32 32" style="enable-background:new 0 0 32 32;" xml:space="preserve">
<g id="Layer_25">
	<rect x="1.972" y="12.035" style="fill:#66CCFF;" width="4" height="2"/>
	<rect x="25.972" y="12.035" style="fill:#66CCFF;" width="4" height="2"/>
	<rect x="7.972" y="26.035" style="fill:#66CCFF;" width="16" height="2"/>
	<path style="fill:#66CCFF;" d="M21.972,19.035l0-4c-0.001-1.657-1.343-2.999-3-3c-1.657,0.001-2.999,1.343-3,3v4
		c0.001,1.657,1.343,2.999,3,3C20.63,22.034,21.972,20.692,21.972,19.035z M17.972,19.035L17.972,19.035l0-4
		c0.001-0.552,0.448-0.999,1-1c0.552,0.001,0.999,0.448,1,1v4c-0.001,0.552-0.448,0.999-1,1
		C18.421,20.034,17.973,19.587,17.972,19.035z"/>
	<path style="fill:#66CCFF;" d="M11.68,15.742l0.293-0.293l0,5.586c0,0.552,0.448,1,1,1c0.552,0,1-0.448,1-1v-8
		c0-0.404-0.244-0.769-0.617-0.924c-0.374-0.155-0.804-0.069-1.09,0.217l-2,2c-0.391,0.391-0.391,1.024,0,1.414
		C10.656,16.133,11.289,16.133,11.68,15.742z"/>
	<path style="fill:#4E5F80;" d="M27,0.035V0h-5.286c-0.962,0-1.741,0.797-1.742,1.759c0.001,1.04-0.37,2.055-0.992,2.819
		c-0.624,0.765-1.475,1.287-2.466,1.417c-0.184,0.024-0.365,0.038-0.542,0.038c-2.207-0.004-3.996-1.81-4-4.016
		C11.97,0.912,11.077,0,9.972,0h-5C2.216,0,0,2.278,0,5.035v12c0,0.263,0.093,0.503,0.279,0.69C0.465,17.911,0.709,18,0.972,18H6
		v0.035v13c0,0.263,0.093,0.503,0.279,0.69C6.465,31.911,6.709,32,6.972,32h18c0.263,0,0.535-0.089,0.721-0.275
		C25.88,31.538,26,31.298,26,31.035v-13V18h4.972c0.263,0,0.535-0.089,0.721-0.275C31.88,17.538,32,17.298,32,17.035v-12
		C32,2.278,30,0.039,27,0.035z M30,16h-4v-5.965c0-0.552-0.448-1-1-1c-0.552,0-1,0.448-1,1v7v1V30H8V18.035v-1v-7
		c0-0.552-0.448-1-1-1c-0.552,0-1,0.448-1,1V16H2V5.035C2,3.392,3.329,2,4.972,2h5l0,0.018c0.001,3.313,2.687,6.008,6,6.009
		c0.264,0,0.531-0.013,0.801-0.048c1.539-0.2,2.852-0.9,3.76-2.022C21.444,4.834,21.971,3,21.972,2L22,2.035V2h5v0.035
		c2,0.003,3,1.357,3,3V16z"/>
</g>
<g id="Layer_1">
</g>
</svg>
