<?xml version="1.0" encoding="iso-8859-1"?>
<!-- Generator: Adobe Illustrator 19.2.1, SVG Export Plug-In . SVG Version: 6.00 Build 0)  -->
<svg version="1.1" xmlns="http://www.w3.org/2000/svg" xmlns:xlink="http://www.w3.org/1999/xlink" x="0px" y="0px"
	 viewBox="0 0 27.938 32" style="enable-background:new 0 0 27.938 32;" xml:space="preserve">
<g id="Layer_26">
	<path style="fill:#66CCFF;" d="M20.021,23.035v-4c-0.001-1.657-1.343-2.999-3-3c-1.657,0.001-2.999,1.343-3,3v4
		c0.001,1.657,1.343,2.999,3,3C18.678,26.034,20.02,24.692,20.021,23.035z M16.021,23.035v-4c0.001-0.552,0.448-0.999,1-1
		c0.552,0.001,0.999,0.448,1,1v4c-0.001,0.552-0.448,0.999-1,1C16.469,24.034,16.022,23.587,16.021,23.035z"/>
	<path style="fill:#66CCFF;" d="M11.021,26.035c0.552,0,1-0.448,1-1v-8c0-0.404-0.244-0.769-0.617-0.924
		c-0.374-0.155-0.804-0.069-1.09,0.217l-2,2c-0.391,0.391-0.391,1.024,0,1.414c0.39,0.39,1.024,0.39,1.414,0l0.293-0.293v5.586
		C10.021,25.587,10.468,26.035,11.021,26.035z"/>
	<path style="fill:#4E5F80;" d="M24.048,5.035C24.048,2.273,21.782,0,19.021,0h-10C6.259,0,4.048,2.273,4.048,5.035v7.156
		C1.548,14.722,0.001,18.199,0,22.035c0,3.761,1.512,7.163,3.931,9.676C4.119,31.906,4.391,32,4.662,32H23.38
		c0.266,0,0.364-0.092,0.545-0.279l0.01,0.008c2.419-2.513,4.004-5.932,4.003-9.693c-0.001-3.757-1.485-7.164-3.89-9.68V5.035z
		 M6.048,5.035C6.048,3.379,7.364,2,9.021,2h10c1.656,0,3.028,1.379,3.028,3.035v5.589c-2.278-1.624-5.057-2.588-8.069-2.589
		c-2.947,0.001-5.677,0.92-7.931,2.481V5.035z M26.027,22.035c-0.001,3.061-1.316,5.839-3.228,7.965H5.274
		c-1.906-2.126-3.156-4.903-3.157-7.965c0-3.31,1.296-6.304,3.471-8.481c2.177-2.175,5.147-3.519,8.457-3.519
		c3.31,0,6.292,1.344,8.469,3.519C24.689,15.731,26.026,18.725,26.027,22.035z"/>
</g>
<g id="Layer_1">
</g>
</svg>
