<?xml version="1.0" encoding="iso-8859-1"?>
<!-- Generator: Adobe Illustrator 19.2.1, SVG Export Plug-In . SVG Version: 6.00 Build 0)  -->
<svg version="1.1" xmlns="http://www.w3.org/2000/svg" xmlns:xlink="http://www.w3.org/1999/xlink" x="0px" y="0px"
	 viewBox="0 0 32.028 30.991" style="enable-background:new 0 0 32.028 30.991;" xml:space="preserve">
<g id="Layer_27">
	<path style="fill:#66CCFF;" d="M14,21c-0.002-2.208-1.792-3.998-4-4c-2.208,0.002-3.998,1.792-4,4c0.002,2.208,1.792,3.998,4,4
		C12.208,24.998,13.998,23.208,14,21z M8,21c0.002-1.1,0.9-1.998,2-2c1.1,0.002,1.998,0.9,2,2c-0.002,1.1-0.9,1.998-2,2
		C8.9,22.998,8.002,22.1,8,21z"/>
	<path style="fill:#4E5F80;" d="M31.028,11v-0.035c0,0-20.685,0-21.028,0c-5.517,0-9.998,4.501-10,10.017
		C0.002,26.5,4.483,30.989,10,30.991c5.517-0.002,9.998-4.479,10-9.996c0-0.707-0.165-1.382-0.371-2.031H31
		c0.263,0,0.535-0.089,0.721-0.275c0.186-0.186,0.307-0.426,0.307-0.689v-6c0-0.263-0.107-0.521-0.293-0.707
		C31.548,11.107,31.028,11,31.028,11z M30.028,16.965h-11.58c-0.324,0-0.63,0.176-0.817,0.441c-0.187,0.265-0.234,0.615-0.125,0.921
		C17.812,19.188,18,20.076,18,20.996c0,2.208-0.895,4.204-2.346,5.656c-1.452,1.451-3.447,2.347-5.654,2.347
		c-2.207,0-4.202-0.895-5.654-2.345C2.895,25.201,2,23.207,2,21c0-2.207,0.895-4.219,2.346-5.671
		c1.452-1.451,3.446-2.363,5.654-2.363c0.297,0,15.9,0,20.028,0V16.965z"/>
	<path style="fill:#4E5F80;" d="M15.028,0c-0.552,0-1,0.448-1,1v4c0,0.552,0.448,1,1,1c0.552,0,1-0.448,1-1V1
		C16.028,0.448,15.58,0,15.028,0z"/>
	<path style="fill:#4E5F80;" d="M21.364,3.222L18.535,6.05c-0.39,0.391-0.39,1.024,0,1.414c0.391,0.391,1.024,0.391,1.414,0
		l2.828-2.828c0.391-0.391,0.391-1.024,0-1.414C22.388,2.831,21.754,2.831,21.364,3.222z"/>
	<path style="fill:#4E5F80;" d="M7.222,3.222c-0.391,0.39-0.391,1.024,0,1.414l2.828,2.828c0.39,0.391,1.024,0.391,1.414,0
		c0.39-0.391,0.39-1.024,0-1.414L8.636,3.222C8.245,2.831,7.612,2.831,7.222,3.222z"/>
</g>
<g id="Layer_1">
</g>
</svg>
