<?xml version="1.0" encoding="iso-8859-1"?>
<!-- Generator: Adobe Illustrator 19.2.1, SVG Export Plug-In . SVG Version: 6.00 Build 0)  -->
<svg version="1.1" xmlns="http://www.w3.org/2000/svg" xmlns:xlink="http://www.w3.org/1999/xlink" x="0px" y="0px"
	 viewBox="0 0 32.04 32.04" style="enable-background:new 0 0 32.04 32.04;" xml:space="preserve">
<g id="Layer_28">
	<path style="fill:#66CCFF;" d="M5.121,24.09c-0.391-0.39-1.024-0.39-1.414,0c-0.391,0.391-0.391,1.024,0,1.414l2.828,2.829
		c0.391,0.391,1.024,0.391,1.414,0c0.39-0.391,0.39-1.024,0-1.414L5.121,24.09z"/>
	<path style="fill:#66CCFF;" d="M11.719,16.546c-0.39-0.391-1.024-0.391-1.414,0c-0.39,0.39-0.39,1.024,0,1.414l3.774,3.774
		c0.391,0.391,1.024,0.391,1.414,0c0.391-0.39,0.391-1.024,0-1.414L11.719,16.546z"/>
	<path style="fill:#4E5F80;" d="M30.577,1.463C29.604,0.489,28.318-0.001,27.042,0c-1.276-0.001-2.562,0.489-3.536,1.463
		l-0.035,0.036l-0.271,0.3L23.19,1.811L4.233,23.486c-0.392-0.177-0.812-0.275-1.232-0.274c-0.764-0.001-1.539,0.294-2.122,0.879v0
		C0.294,24.674-0.001,25.448,0,26.212c-0.001,0.765,0.295,1.538,0.879,2.12l2.828,2.828c0.583,0.584,1.357,0.88,2.121,0.879
		c0.764,0.001,1.538-0.295,2.121-0.879c0.584-0.583,0.88-1.357,0.879-2.121c0.001-0.42-0.097-0.84-0.275-1.233L30.229,8.85
		l0.012-0.011l0.3-0.271l0.036-0.035c0.976-0.976,1.464-2.265,1.463-3.541c0-0.882-0.234-1.763-0.697-2.545
		C31.134,2.095,30.878,1.763,30.577,1.463z M29.169,7.113L28.906,7.35L6.584,26.873c-0.21,0.183-0.332,0.441-0.341,0.719
		c-0.009,0.278,0.095,0.544,0.292,0.74c0.197,0.198,0.292,0.448,0.293,0.707c-0.001,0.259-0.096,0.509-0.293,0.707
		c-0.198,0.197-0.448,0.292-0.707,0.293c-0.259-0.001-0.509-0.096-0.707-0.293l-2.828-2.828C2.096,26.721,2.001,26.471,2,26.212
		c0.001-0.26,0.096-0.51,0.293-0.708v0c0.198-0.197,0.448-0.292,0.708-0.293c0.258,0.001,0.508,0.096,0.706,0.293
		c0.197,0.197,0.462,0.302,0.741,0.292c0.278-0.009,0.536-0.132,0.719-0.341L24.689,3.135l0.238-0.263
		C25.512,2.29,26.272,2.001,27.042,2c0.772,0.001,1.535,0.291,2.121,0.877c0.182,0.182,0.334,0.38,0.459,0.59
		C29.9,3.935,30.04,4.463,30.04,4.992C30.039,5.766,29.751,6.527,29.169,7.113z"/>
	<path style="fill:#4E5F80;" d="M0.159,4.312c0.002,2.208,2.011,3.998,4.011,4c2-0.002,3.984-1.792,3.986-4
		c-0.002-2.208-1.799-3.998-4.007-4C1.94,0.314,0.161,2.103,0.159,4.312z M6.159,4.312c-0.002,1.1-0.989,1.998-1.989,2
		c-1-0.002-2.012-0.9-2.014-2c0.002-1.1,0.893-1.998,1.993-2C5.249,2.314,6.157,3.212,6.159,4.312z"/>
</g>
<g id="Layer_1">
</g>
</svg>
