<?xml version="1.0" encoding="iso-8859-1"?>
<!-- Generator: Adobe Illustrator 19.2.1, SVG Export Plug-In . SVG Version: 6.00 Build 0)  -->
<svg version="1.1" xmlns="http://www.w3.org/2000/svg" xmlns:xlink="http://www.w3.org/1999/xlink" x="0px" y="0px"
	 viewBox="0 0 32.026 32.343" style="enable-background:new 0 0 32.026 32.343;" xml:space="preserve">
<g id="Layer_29">
	<path style="fill:#66CCFF;" d="M29.88,5.02l-3.566,3.566L23.728,6l3.566-3.566L25.88,1.02l-3.566,3.566l-2.632-2.632l-1.414,1.414
		L20.899,6l-3.586,3.586l-2.537-2.537l-1.414,1.414L15.9,11l-3.791,3.791l1.414,1.414l3.791-3.791L19.9,15l-3.791,3.791l1.414,1.414
		l3.791-3.791l2.537,2.537l1.414-1.414L22.728,15l3.586-3.586l2.632,2.632l1.414-1.414L27.728,10l3.566-3.566L29.88,5.02z
		 M21.314,13.586L18.728,11l3.586-3.586L24.899,10L21.314,13.586z"/>
	<path style="fill:#4E5F80;" d="M0.915,31.524C1.494,32.084,2.25,32.344,3,32.343c0.764,0.001,1.538-0.31,2.121-0.893l4.828-4.836
		V26.61c0.584-0.583,0.88-1.359,0.879-2.123c0.001-0.432-0.104-0.863-0.291-1.265c1.66-1.499,4.23-2.746,6.259-2.762l3.363-0.063
		c1.212-0.023,2.45-0.271,3.654-0.73c1.614-0.615,3.169-1.609,4.521-2.96c2.408-2.412,3.688-5.467,3.692-8.357
		c0.003-2.155-0.732-4.241-2.278-5.785c-1.543-1.545-3.63-2.281-5.785-2.277c-2.891,0.003-5.945,1.283-8.357,3.692
		c-1.351,1.352-2.345,2.907-2.96,4.521c-0.459,1.204-0.707,2.442-0.73,3.654v0.001l-0.063,3.363
		c-0.016,2.029-1.263,4.598-2.762,6.259c-0.401-0.187-0.832-0.292-1.263-0.291c-0.765-0.001-1.538,0.295-2.121,0.879l-4.828,4.828
		l0.707,0.707l0.707,0.707l4.828-4.828c0.198-0.197,0.448-0.292,0.707-0.293c0.259,0.001,0.509,0.096,0.707,0.293
		c0.197,0.198,0.292,0.448,0.293,0.707c-0.001,0.259-0.096,0.509-0.293,0.707l-4.828,4.828C3.509,30.218,3.259,30.313,3,30.314
		c-0.233-0.001-0.457,0.01-0.644-0.13c-0.024-0.032-0.036-0.076-0.063-0.104C2.096,29.882,2.001,29.603,2,29.343
		c0.001-0.259,0.096-0.524,0.293-0.722l0-0.007l-0.707-0.711l-0.707-0.709C0.295,27.777-0.001,28.55,0,29.315
		c-0.001,0.764,0.295,1.656,0.879,2.239L0.915,31.524z M13.916,12.193L13.916,12.193c0.018-0.965,0.217-1.978,0.599-2.981
		c0.511-1.343,1.35-2.664,2.506-3.819c2.059-2.063,4.651-3.109,6.943-3.106c1.716,0.003,3.242,0.566,4.371,1.692
		c1.126,1.128,1.688,2.654,1.692,4.37c0.003,2.293-1.044,4.884-3.106,6.943c-1.155,1.155-2.476,1.994-3.819,2.506
		c-1.002,0.382-2.016,0.581-2.98,0.599l-0.145,0.001c-1.717-0.003-3.243-0.566-4.371-1.692c-1.126-1.128-1.689-2.654-1.692-4.371
		L13.916,12.193z M13.591,17.435c0.186,0.238,0.384,0.469,0.602,0.687c0.218,0.218,0.449,0.416,0.687,0.602
		c-0.653,0.152-1.295,0.367-1.922,0.634C13.224,18.73,13.439,18.087,13.591,17.435z M0.586,30.965v-0.119
		c0,0.044,0.02,0.078,0.026,0.119H0.586z"/>
	<path style="fill:#4E5F80;" d="M4.341,8c2-0.002,3.984-1.792,3.986-4C8.325,1.792,6.529,0.002,4.32,0
		C2.112,0.002,0.332,1.792,0.331,4C0.332,6.208,2.341,7.998,4.341,8z M4.32,2c1.1,0.002,2.009,0.9,2.011,2
		C6.329,5.1,5.341,5.998,4.341,6c-1-0.002-2.012-0.9-2.014-2C2.329,2.9,3.22,2.002,4.32,2z"/>
</g>
<g id="Layer_1">
</g>
</svg>
