<?xml version="1.0" encoding="iso-8859-1"?>
<!-- Generator: Adobe Illustrator 19.2.1, SVG Export Plug-In . SVG Version: 6.00 Build 0)  -->
<svg version="1.1" xmlns="http://www.w3.org/2000/svg" xmlns:xlink="http://www.w3.org/1999/xlink" x="0px" y="0px"
	 viewBox="0 0 31.983 32" style="enable-background:new 0 0 31.983 32;" xml:space="preserve">
<g id="Layer_30">
	<path style="fill:#66CCFF;" d="M13.689,22.293c-0.391-0.391-1.024-0.391-1.414,0c-0.391,0.391-0.391,1.024,0,1.414l7.87,7.87
		c0.391,0.391,1.024,0.391,1.414,0c0.39-0.39,0.39-1.024,0-1.414L13.689,22.293z"/>
	<path style="fill:#66CCFF;" d="M8.043,22.647c-0.391-0.391-1.024-0.391-1.414,0c-0.391,0.39-0.391,1.024,0,1.414l7.646,7.646
		c0.391,0.391,1.024,0.391,1.414,0c0.391-0.39,0.391-1.024,0-1.414L8.043,22.647z"/>
	<path style="fill:#66CCFF;" d="M27.983,10.001h-6c-0.552,0-1,0.448-1,1c0,0.552,0.448,1,1,1h6c0.552,0,1-0.448,1-1
		C28.983,10.448,28.535,10.001,27.983,10.001z"/>
	<path style="fill:#4E5F80;" d="M17.767,21.965H9.011v0.035c-3,0.001-5.014,2.221-5.014,4.982c0.001,2.762,2.224,4.983,4.986,4.983
		h10.994h0.006c1.677,0,3.235-1.043,3.794-2.719v0.009l8-23.995l0,0.002c0.139-0.418,0.206-0.844,0.206-1.265
		c0.001-1.676-1.061-3.233-2.736-3.793h-0.001C28.828,0.067,28.4,0,27.98,0c-1.677-0.001-3.233,1.061-3.792,2.736l0-0.018
		L17.767,21.965z M26.085,3.36l0,0.004c0.278-0.84,1.058-1.364,1.895-1.366c0.209,0,0.422,0.034,0.635,0.105l-0.001,0
		c0.839,0.277,1.368,1.061,1.368,1.896c0,0.209-0.033,0.421-0.104,0.633v0l-8,24l0-0.017c-0.278,0.839-1.06,1.351-1.897,1.351
		h-0.006H8.982c-1.657,0-2.983-1.326-2.986-2.983c0.003-1.656,1.014-2.979,3.014-2.982v-0.035h9.477
		c0.432,0,0.812-0.257,0.949-0.666L26.085,3.36z"/>
	<path style="fill:#4E5F80;" d="M4.011,20.001c2-0.002,3.984-1.792,3.986-4c-0.002-2.208-1.799-3.998-4.007-4
		c-2.208,0.002-3.988,1.792-3.989,4C0.002,18.209,2.011,19.999,4.011,20.001z M3.989,14.001c1.1,0.002,2.009,0.9,2.011,2
		c-0.002,1.1-0.989,1.998-1.989,2c-1-0.002-2.012-0.9-2.014-2C1.998,14.9,2.889,14.002,3.989,14.001z"/>
</g>
<g id="Layer_1">
</g>
</svg>
