<?xml version="1.0" encoding="iso-8859-1"?>
<!-- Generator: Adobe Illustrator 19.2.1, SVG Export Plug-In . SVG Version: 6.00 Build 0)  -->
<svg version="1.1" xmlns="http://www.w3.org/2000/svg" xmlns:xlink="http://www.w3.org/1999/xlink" x="0px" y="0px"
	 viewBox="0 0 32.138 32.148" style="enable-background:new 0 0 32.138 32.148;" xml:space="preserve">
<g id="Layer_4">
	<path style="fill:#66CCFF;" d="M18.161,13.888c0.391-0.391,0.391-1.024,0-1.414v0c-0.197-0.198-0.292-0.448-0.293-0.707
		c0.001-0.259,0.096-0.509,0.293-0.707c0.198-0.197,0.448-0.292,0.707-0.293c0.259,0.001,0.509,0.096,0.707,0.293
		c0.391,0.391,1.024,0.391,1.414,0c0.39-0.391,0.39-1.024,0-1.414c-0.583-0.584-1.357-0.88-2.121-0.879
		c-0.764-0.001-1.538,0.295-2.121,0.879c-0.584,0.583-0.88,1.357-0.879,2.121c-0.001,0.764,0.295,1.538,0.879,2.121
		C17.137,14.279,17.77,14.279,18.161,13.888z"/>
	<path style="fill:#66CCFF;" d="M20.989,12.474L20.989,12.474c0.197,0.198,0.292,0.448,0.293,0.707
		c-0.001,0.259-0.096,0.509-0.293,0.707c-0.198,0.197-0.448,0.292-0.707,0.293c-0.259-0.001-0.509-0.096-0.707-0.293
		c-0.391-0.391-1.024-0.391-1.414,0c-0.39,0.391-0.39,1.024,0,1.414c0.583,0.584,1.357,0.88,2.121,0.879
		c0.764,0.001,1.538-0.295,2.121-0.879c0.584-0.583,0.88-1.357,0.879-2.121c0.001-0.764-0.295-1.538-0.879-2.121
		c-0.391-0.391-1.024-0.391-1.414,0C20.599,11.45,20.599,12.083,20.989,12.474z"/>
	<path style="fill:#66CCFF;" d="M12.989,20.474L12.989,20.474c0.197,0.198,0.292,0.448,0.293,0.707
		c-0.001,0.259-0.096,0.509-0.293,0.707c-0.198,0.197-0.448,0.292-0.707,0.293c-0.259-0.001-0.509-0.096-0.707-0.293
		c-0.391-0.391-1.024-0.39-1.414,0c-0.391,0.391-0.391,1.024,0,1.414c0.583,0.584,1.357,0.88,2.121,0.879
		c0.764,0.001,1.538-0.295,2.121-0.879c0.584-0.583,0.88-1.357,0.879-2.121c0.001-0.764-0.295-1.538-0.879-2.121
		c-0.391-0.39-1.024-0.39-1.414,0C12.599,19.45,12.599,20.083,12.989,20.474z"/>
	<path style="fill:#66CCFF;" d="M10.161,21.888c0.39-0.39,0.391-1.024,0-1.414v0c-0.197-0.198-0.292-0.448-0.293-0.707
		c0.001-0.259,0.096-0.509,0.293-0.707c0.198-0.197,0.448-0.292,0.707-0.293c0.259,0.001,0.509,0.096,0.707,0.293
		c0.391,0.391,1.024,0.391,1.414,0c0.391-0.391,0.391-1.024,0-1.414c-0.583-0.584-1.357-0.88-2.121-0.879
		c-0.764-0.001-1.538,0.295-2.121,0.879c-0.584,0.583-0.88,1.357-0.879,2.121c-0.001,0.764,0.295,1.538,0.879,2.121
		C9.137,22.279,9.77,22.279,10.161,21.888z"/>
	<path style="fill:#4E5F80;" d="M23.856,0c-2.799-0.001-5.398,1.394-6.935,3.727c-3.429,5.199-7.997,9.768-13.194,13.195l0.001,0
		c-2.087,1.373-3.433,3.601-3.686,6.089C0.014,23.295,0,23.579,0,23.861c-0.001,2.191,0.768,4.295,2.334,5.86
		c1.559,1.562,3.769,2.429,5.769,2.428c3,0.001,5.494-1.395,7.03-3.728c3.428-5.198,8.044-9.767,13.242-13.195
		c2.086-1.374,3.457-3.602,3.708-6.09c0.029-0.284,0.055-0.568,0.055-0.85c0.001-2.191-0.856-4.295-2.422-5.859
		C28.157,0.865,26.065-0.002,23.856,0z M30.116,8.933c-0.194,1.898-1.208,3.574-2.796,4.622
		c-5.429,3.582-10.276,8.335-13.858,13.764c-1.169,1.773-3.36,2.828-5.36,2.829c-2-0.002-3.161-0.65-4.354-1.842
		c-1.191-1.192-1.794-2.778-1.795-4.445c0-0.215,0.034-0.431,0.056-0.648c0.195-1.898,1.221-3.575,2.808-4.622l0.006,0
		c5.428-3.581,10.183-8.334,13.766-13.764C19.76,3.056,21.723,2.001,23.858,2c1.688,0.002,3.256,0.65,4.449,1.841
		c1.191,1.191,1.841,2.777,1.842,4.444C30.149,8.5,30.138,8.716,30.116,8.933z"/>
</g>
<g id="Layer_1">
</g>
</svg>
