<?xml version="1.0" encoding="iso-8859-1"?>
<!-- Generator: Adobe Illustrator 19.2.1, SVG Export Plug-In . SVG Version: 6.00 Build 0)  -->
<svg version="1.1" xmlns="http://www.w3.org/2000/svg" xmlns:xlink="http://www.w3.org/1999/xlink" x="0px" y="0px"
	 viewBox="0 0 26 30.013" style="enable-background:new 0 0 26 30.013;" xml:space="preserve">
<g id="Layer_31">
	<path style="fill:#66CCFF;" d="M12,17.035c0,0.263,0.107,0.521,0.293,0.707c0.186,0.186,0.444,0.293,0.707,0.293h5
		c0.552,0,1-0.448,1-1c0-0.552-0.448-1-1-1h-4v-6c0-0.552-0.448-1-1-1c-0.552,0-1,0.448-1,1V17.035z"/>
	<path style="fill:#4E5F80;" d="M24.293,7.742c0.391,0.391,1.024,0.391,1.414,0c0.39-0.391,0.39-1.024,0-1.414l-2-2
		c-0.391-0.39-1.024-0.39-1.414,0c-0.39,0.391-0.39,1.024,0,1.414l0.293,0.293l-1.153,1.153c-2.028-1.75-4.593-2.892-7.413-3.117
		c0-0.013,0.007-0.023,0.007-0.035v-2c0-0.013-0.007-0.023-0.007-0.035H16c0.552,0,1-0.448,1-1c0-0.552-0.448-1-1-1h-6
		C9.448,0,9,0.448,9,1c0,0.552,0.448,1,1,1h2.035c0,0.012-0.007,0.023-0.007,0.035v2c0,0.011,0.006,0.02,0.006,0.031
		C5.307,4.564,0.001,10.172,0,17.026c0.001,7.18,5.82,12.986,13,12.987C20.18,30.012,25.999,24,26,17
		c0-3.16-1.194-6.106-3.156-8.395L24,7.449L24.293,7.742z M24,17c-0.001,3-1.23,5.802-3.222,7.796
		c-1.994,1.992-4.737,3.23-7.778,3.231c-3.041-0.001-5.784-1.225-7.778-3.218C3.23,22.815,2.001,20.074,2,17.033
		c0.001-3.041,1.23-5.783,3.222-7.777C7.216,7.264,9.959,6.035,13,6.034c3.026,0.001,5.757,1.202,7.748,3.178
		c0.012,0.014,0.017,0.032,0.03,0.045c0.012,0.012,0.028,0.016,0.041,0.027C22.786,11.274,23.999,14.021,24,17z"/>
</g>
<g id="Layer_1">
</g>
</svg>
