<?xml version="1.0" encoding="iso-8859-1"?>
<!-- Generator: Adobe Illustrator 19.2.1, SVG Export Plug-In . SVG Version: 6.00 Build 0)  -->
<svg version="1.1" xmlns="http://www.w3.org/2000/svg" xmlns:xlink="http://www.w3.org/1999/xlink" x="0px" y="0px"
	 viewBox="0 0 28 32" style="enable-background:new 0 0 28 32;" xml:space="preserve">
<g id="Layer_33">
	<path style="fill:#66CCFF;" d="M13.972,15.035v4c0.001,1.657,1.343,2.999,3,3c1.657-0.001,2.999-1.343,3-3v-4
		c-0.001-1.657-1.343-2.999-3-3C15.315,12.036,13.973,13.378,13.972,15.035z M17.972,15.035v4c-0.001,0.552-0.448,0.999-1,1
		c-0.552-0.001-0.999-0.448-1-1v-4c0.001-0.552,0.448-0.999,1-1C17.524,14.036,17.971,14.483,17.972,15.035z"/>
	<path style="fill:#66CCFF;" d="M10.265,12.328l-2,2c-0.39,0.391-0.39,1.024,0,1.414c0.391,0.391,1.024,0.391,1.414,0l0.293-0.293
		l0,5.586c0,0.552,0.448,1,1,1c0.552,0,1-0.448,1-1v-8c0-0.404-0.244-0.769-0.617-0.924C10.981,11.956,10.551,12.042,10.265,12.328z
		"/>
	<rect x="1.972" y="26.035" style="fill:#66CCFF;" width="24" height="2"/>
	<path style="fill:#4E5F80;" d="M9.693,0.31C9.507,0.124,9.236,0,8.972,0h-4C4.709,0,4.465,0.124,4.279,0.31
		C4.093,0.497,4,0.772,4,1.035v4.789c0,3.352-1.365,6.514-3.705,8.836C0.106,14.848,0,15.103,0,15.37v0.665v15
		c0,0.263,0.093,0.503,0.279,0.689C0.465,31.911,0.709,32,0.972,32h26c0.263,0,0.535-0.089,0.721-0.275
		C27.88,31.538,28,31.298,28,31.035v-15V15.37c0-0.227-0.077-0.447-0.219-0.624C25.844,12.333,24,9.071,24,5.824V1.035
		c0-0.263-0.12-0.538-0.307-0.725C23.507,0.124,23.236,0,22.972,0h-4c-0.263,0-0.507,0.124-0.693,0.31
		C18.093,0.497,18,0.772,18,1.035v1c0,2.207-2,3.996-4,4c-2-0.004-4-1.793-4-4v-1C10,0.772,9.879,0.497,9.693,0.31z M14,8.035
		C17,8.034,19.971,5,19.972,2H22v3.824c0,3.871,2.003,7.157,4,9.717v0.494V30H2V16.035v-0.476c2.512-2.64,4-5.993,4-9.735V2h1.972
		l0.014,0.017C7.987,5.331,11,8.034,14,8.035z"/>
</g>
<g id="Layer_1">
</g>
</svg>
