<?xml version="1.0" encoding="iso-8859-1"?>
<!-- Generator: Adobe Illustrator 19.2.1, SVG Export Plug-In . SVG Version: 6.00 Build 0)  -->
<svg version="1.1" xmlns="http://www.w3.org/2000/svg" xmlns:xlink="http://www.w3.org/1999/xlink" x="0px" y="0px"
	 viewBox="0 0 26.014 32" style="enable-background:new 0 0 26.014 32;" xml:space="preserve">
<g id="Layer_34">
	<path style="fill:#66CCFF;" d="M21,8.035h-1H7H5c-0.552,0-1,0.448-1,1c0,0.552,0.448,1,1,1h2h13h1c0.552,0,1-0.448,1-1
		C22,8.483,21.552,8.035,21,8.035z"/>
	<path style="fill:#66CCFF;" d="M21,26.035c-8.297,0-7.502,0-16,0c-0.552,0-1,0.448-1,1c0,0.552,0.448,1,1,1c8.498,0,7.703,0,16,0
		c0.552,0,1-0.448,1-1C22,26.483,21.552,26.035,21,26.035z"/>
	<path style="fill:#66CCFF;" d="M9,14.035c2.634,0,7.038,0,9,0c0.618,0,1,0,1,0c0.552,0,1-0.448,1-1c0-0.552-0.448-1-1-1
		c0,0-0.382,0-1,0c-1.962,0-6.366,0-9,0H7c-0.552,0-1,0.448-1,1c0,0.552,0.448,1,1,1H9z"/>
	<path style="fill:#4E5F80;" d="M23.028,26.035V26h-1.16l-1.833-12.815l1.618-3.205c1.58-0.254,2.375-1.472,2.375-2.946v-6
		c0-0.263-0.12-0.538-0.307-0.725C23.535,0.124,23.263,0,23,0h-4c-0.263,0-0.507,0.124-0.693,0.31
		c-0.186,0.186-0.279,0.461-0.279,0.725V2h-2V1.035c0-0.263-0.12-0.538-0.307-0.725C15.535,0.124,15.263,0,15,0h-4
		c-0.263,0-0.507,0.124-0.693,0.31c-0.186,0.186-0.279,0.461-0.279,0.725V2h-2V1.035c0-0.263-0.12-0.538-0.307-0.725
		C7.535,0.124,7.263,0,7,0H3C2.737,0,2.493,0.124,2.307,0.31C2.121,0.497,2.027,0.772,2.027,1.035v6c0,1.463,0.782,2.677,2.34,2.943
		l1.605,3.208L4.133,26H3c-1.657,0-2.999,1.343-3,3c0.001,1.657,1.343,3,3,3h20c1.657,0,3.013-1.325,3.014-2.983
		C26.013,27.36,25.028,26.036,23.028,26.035z M23,30H3c-0.552,0-0.999-0.448-1-1c0.001-0.552,0.448-1,1-1h2
		c0.498,0,0.919-0.348,0.99-0.841l2-13.991c0.029-0.202-0.004-0.401-0.095-0.584l-2-3.998c-0.17-0.34-0.501-0.552-0.881-0.552
		C4.462,8.033,4.028,7.587,4.028,7.035V2h2v1.035c0,0.263,0.093,0.503,0.279,0.69C6.493,3.911,6.737,4,7,4h4
		c0.263,0,0.535-0.089,0.721-0.275c0.186-0.186,0.307-0.426,0.307-0.69V2h2v1.035c0,0.263,0.093,0.503,0.279,0.69
		C14.493,3.911,14.737,4,15,4h4c0.263,0,0.535-0.089,0.721-0.275c0.186-0.186,0.307-0.426,0.307-0.69V2h2v5.035
		c0,0.552-0.462,0.999-1.014,1c-0.38,0-0.732,0.213-0.901,0.553l-2.003,4c-0.091,0.183-0.126,0.386-0.097,0.589l1.999,13.982
		C20.081,27.652,20.502,28,21,28h2.028v0.035c1,0.001,0.985,0.43,0.986,0.982C24.013,29.569,23.552,30,23,30z"/>
</g>
<g id="Layer_1">
</g>
</svg>
