<?xml version="1.0" encoding="iso-8859-1"?>
<!-- Generator: Adobe Illustrator 19.2.1, SVG Export Plug-In . SVG Version: 6.00 Build 0)  -->
<svg version="1.1" xmlns="http://www.w3.org/2000/svg" xmlns:xlink="http://www.w3.org/1999/xlink" x="0px" y="0px"
	 viewBox="0 0 29.986 30.036" style="enable-background:new 0 0 29.986 30.036;" xml:space="preserve">
<g id="Layer_35">
	<path style="fill:#66CCFF;" d="M27.972,4.035h-26c-0.552,0-1,0.448-1,1c0,0.552,0.448,1,1,1h0.569l5.155,5.458l-4.461,4.866
		c-0.361,0.394-0.348,1.005,0.03,1.383l6,6c0.192,0.192,0.451,0.297,0.722,0.293c0.271-0.004,0.527-0.117,0.713-0.314l4.269-4.528
		l4.276,4.528c0.186,0.197,0.442,0.309,0.713,0.313c0.271,0.004,0.53-0.101,0.721-0.293l6-6c0.378-0.378,0.391-0.989,0.03-1.383
		l-4.47-4.877L27.2,6.221c0.052-0.056,0.079-0.123,0.116-0.186h0.657c0.552,0,1-0.448,1-1C28.972,4.483,28.525,4.035,27.972,4.035z
		 M5.292,6.035h7.407l-3.648,3.98L5.292,6.035z M9.951,21.6l-4.595-4.595l3.716-4.054l4.521,4.786L9.951,21.6z M14.968,16.28
		l-4.54-4.807l4.545-4.958l4.536,4.948L14.968,16.28z M24.588,17.005L19.993,21.6l-3.65-3.864l4.52-4.794L24.588,17.005z
		 M20.884,10.004l-3.638-3.969h7.381L20.884,10.004z"/>
	<path style="fill:#4E5F80;" d="M26.972,0H3v0.035c-2,0.001-2.999,1.343-3,3c0.001,1.368,0.693,2.508,2.055,2.869l1.928,23.215
		c0.034,0.403,0.306,0.749,0.692,0.871c0.386,0.122,0.809-0.003,1.068-0.313l4.231-5.079l4.231,5.078
		c0.19,0.228,0.471,0.36,0.768,0.36c0.297,0,0.578-0.132,0.768-0.36l4.232-5.078l4.232,5.078c0.259,0.311,0.684,0.435,1.069,0.313
		c0.386-0.122,0.662-0.468,0.695-0.871l1.947-23.207c1.378-0.357,2.069-1.516,2.07-2.894C29.986,1.36,28.63,0,26.972,0z
		 M26.972,4.026c-0.519,0-0.954,0.404-0.997,0.921l-1.797,21.57l-3.438-4.124c-0.19-0.228-0.472-0.359-0.768-0.359
		c-0.297,0-0.578,0.132-0.768,0.36l-4.232,5.078l-4.232-5.078c-0.19-0.228-0.472-0.36-0.768-0.36c-0.297,0-0.578,0.132-0.768,0.36
		l-3.438,4.126L3.969,4.952C3.926,4.435,3.491,4.035,2.973,4.035c-0.552-0.001-0.985-0.448-0.986-1C1.987,2.483,2,2.036,3,2.035V2
		h23.972c0.552,0,0.999,0.466,1,1.018C27.971,3.569,27.524,4.025,26.972,4.026z"/>
</g>
<g id="Layer_1">
</g>
</svg>
