<?xml version="1.0" encoding="iso-8859-1"?>
<!-- Generator: Adobe Illustrator 19.2.1, SVG Export Plug-In . SVG Version: 6.00 Build 0)  -->
<svg version="1.1" xmlns="http://www.w3.org/2000/svg" xmlns:xlink="http://www.w3.org/1999/xlink" x="0px" y="0px"
	 viewBox="0 0 30.875 32.045" style="enable-background:new 0 0 30.875 32.045;" xml:space="preserve">
<g id="Layer_36">
	<path style="fill:#4E5F80;" d="M30.582,0.293c-0.39-0.391-1.024-0.391-1.414,0l-13.73,13.731L1.707,0.293
		c-0.391-0.391-1.024-0.391-1.414,0c-0.391,0.391-0.391,1.024,0,1.414l13.73,13.73l-3.182,3.182
		c-1.238-0.926-2.713-1.398-4.186-1.397c-1.788-0.001-3.587,0.684-4.95,2.048c-0.391,0.39-0.391,1.024,0,1.414l3.535,3.536
		l-4.243,4.243c-0.001,0.001-0.303,0.303-0.709,0.713c-0.386,0.39-0.385,1.023,0.004,1.411c1.028,1.026,2.381,1.461,3.662,1.458
		c1.269-0.001,2.486-0.541,3.406-1.461c0.798-0.797,1.253-1.806,1.397-2.846l1.431,1.432c0.186,0.186,0.444,0.293,0.707,0.293
		c0.263,0,0.521-0.107,0.707-0.293c1.364-1.363,2.049-3.161,2.048-4.95c0.001-1.473-0.471-2.948-1.397-4.186l3.182-3.182
		l3.182,3.182c-0.926,1.238-1.398,2.713-1.397,4.186c-0.001,1.788,0.684,3.587,2.048,4.95c0.186,0.186,0.444,0.293,0.707,0.293
		s0.521-0.107,0.707-0.293l1.431-1.432c0.144,1.04,0.599,2.048,1.397,2.846c0.92,0.92,2.137,1.46,3.406,1.461
		c1.282,0.002,2.635-0.432,3.662-1.458c0.389-0.388,0.39-1.021,0.004-1.411c-0.406-0.41-0.708-0.712-0.709-0.713l-4.243-4.243
		l3.535-3.536c0.186-0.186,0.293-0.444,0.293-0.707c0-0.263-0.107-0.521-0.293-0.707c-1.363-1.364-3.161-2.049-4.95-2.048
		c-1.473-0.001-2.948,0.471-4.186,1.397l-3.182-3.182l13.73-13.73C30.973,1.317,30.973,0.683,30.582,0.293z M5.948,29.17
		c-0.575,0.575-1.3,0.876-1.992,0.875c-0.498-0.001-0.972-0.109-1.405-0.306l3.974-3.974c0.192,0.405,0.299,0.841,0.3,1.284
		C6.824,27.821,6.534,28.583,5.948,29.17z M10.826,26.977l-3.464-3.464c0,0,0,0,0,0l0,0l-3.464-3.464
		c0.832-0.551,1.792-0.825,2.757-0.826c1.284,0.001,2.559,0.486,3.535,1.462c0.976,0.976,1.461,2.251,1.462,3.536
		C11.651,25.186,11.377,26.145,10.826,26.977z M28.324,29.739c-0.433,0.198-0.907,0.305-1.405,0.306
		c-0.692,0.001-1.417-0.3-1.992-0.875c-0.586-0.587-0.876-1.349-0.877-2.121c0.001-0.443,0.108-0.879,0.3-1.284L28.324,29.739z
		 M20.685,20.685c0.976-0.976,2.251-1.461,3.535-1.462c0.965,0.001,1.925,0.275,2.757,0.826l-3.464,3.464v0l0,0l-3.464,3.464
		c-0.55-0.832-0.825-1.792-0.826-2.757C19.224,22.936,19.709,21.661,20.685,20.685z"/>
</g>
<g id="Layer_1">
</g>
</svg>
