<?xml version="1.0" encoding="iso-8859-1"?>
<!-- Generator: Adobe Illustrator 19.2.1, SVG Export Plug-In . SVG Version: 6.00 Build 0)  -->
<svg version="1.1" xmlns="http://www.w3.org/2000/svg" xmlns:xlink="http://www.w3.org/1999/xlink" x="0px" y="0px"
	 viewBox="0 0 32 30.367" style="enable-background:new 0 0 32 30.367;" xml:space="preserve">
<g id="Layer_37">
	<rect x="4" y="14.182" style="fill:#66CCFF;" width="4" height="2"/>
	<path style="fill:#4E5F80;" d="M31.6,14.368l-2.892-2.892c-0.391-0.391-1.024-0.391-1.414,0c-0.391,0.39-0.391,1.024,0,1.414
		l1.258,1.258h-2.6c-0.201-4.085-1.599-8.12-4.183-11.614c-0.034-0.054-0.055-0.115-0.101-0.163c-0.01-0.01-0.023-0.014-0.033-0.023
		c-0.53-0.701-1.091-1.388-1.717-2.039c-0.383-0.398-1.016-0.411-1.414-0.028c-0.398,0.383-0.411,1.016-0.028,1.414
		c0.393,0.409,0.753,0.834,1.104,1.264L8.542,13.304l-2.834-2.846c-0.186-0.186-0.445-0.31-0.708-0.31H1
		c-0.404,0-0.769,0.261-0.924,0.635c-0.155,0.374-0.069,0.813,0.217,1.099l3.293,3.297l-3.293,3.295
		c-0.286,0.286-0.372,0.7-0.217,1.073C0.231,19.92,0.596,20.147,1,20.147h4c0.259,0,0.524-0.089,0.71-0.269l0.011,0.011l2.822-2.827
		l11.035,10.345c-0.351,0.431-0.713,0.857-1.107,1.267c-0.383,0.398-0.37,1.031,0.028,1.414c0.398,0.383,1.031,0.37,1.414-0.028
		c0.627-0.652,1.189-1.34,1.72-2.042c0.01-0.01,0.024-0.013,0.033-0.024c0.046-0.049,0.068-0.11,0.102-0.164
		c2.599-3.514,3.997-7.575,4.186-11.683h2.667l-1.328,1.328c-0.391,0.391-0.391,1.024,0,1.414c0.39,0.391,1.024,0.391,1.414,0l3-3
		C31.893,15.703,32,15.446,32,15.182c0-0.006-0.003-0.012-0.004-0.018c0-0.006,0.004-0.011,0.004-0.017
		C32,14.824,31.837,14.55,31.6,14.368z M4.624,18.147H3.414l2.293-2.275C5.893,15.686,6,15.437,6,15.174
		c0-0.263-0.107-0.534-0.293-0.72l-2.293-2.306h1.171l2.534,2.549C7.05,14.833,7,14.982,7,15.147c0,0.006,0.004,0.011,0.004,0.018
		C7.004,15.171,7,15.176,7,15.182c0,0.159,0.049,0.31,0.121,0.451L4.624,18.147z M20.775,4.577c1.946,2.942,2.993,6.237,3.176,9.571
		H10.566L20.775,4.577z M20.775,25.788l-10.283-9.641h13.463C23.782,19.504,22.735,22.826,20.775,25.788z"/>
</g>
<g id="Layer_1">
</g>
</svg>
