<?xml version="1.0" encoding="iso-8859-1"?>
<!-- Generator: Adobe Illustrator 19.2.1, SVG Export Plug-In . SVG Version: 6.00 Build 0)  -->
<svg version="1.1" xmlns="http://www.w3.org/2000/svg" xmlns:xlink="http://www.w3.org/1999/xlink" x="0px" y="0px"
	 viewBox="0 0 32 31.992" style="enable-background:new 0 0 32 31.992;" xml:space="preserve">
<g id="Layer_38">
	<path style="fill:#66CCFF;" d="M13.456,17.13l-6.364,6.364c-0.391,0.391-0.391,1.024,0,1.414c0.391,0.39,1.024,0.39,1.414,0
		l6.364-6.364c0.391-0.391,0.391-1.024,0-1.414C14.48,16.739,13.847,16.739,13.456,17.13z"/>
	<g>
		<path style="fill:#66CCFF;" d="M13.483,17.095L7.12,23.459c-0.391,0.39-0.391,1.024,0,1.414c0.391,0.391,1.024,0.391,1.414,0
			l6.364-6.364c0.391-0.391,0.391-1.024,0-1.414C14.507,16.704,13.874,16.704,13.483,17.095"/>
	</g>
	<path style="fill:#4E5F80;" d="M31.707,0.293c-0.391-0.39-1.024-0.39-1.414,0L24.73,5.856c-0.834-0.553-1.8-0.831-2.761-0.831
		c-1.276-0.001-2.562,0.489-3.536,1.463c-0.451,0.45-0.799,0.97-1.042,1.524l-3.839,8.756l-8.298-0.422l-0.257-0.007
		c-1.276-0.001-2.562,0.489-3.535,1.463C0.489,18.775-0.001,20.061,0,21.337c-0.001,1.276,0.489,2.562,1.463,3.535
		c0.974,0.974,2.259,1.464,3.536,1.463c0.243,0,0.486-0.034,0.728-0.069c-0.036,0.242-0.07,0.484-0.07,0.728
		c-0.001,1.276,0.489,2.562,1.463,3.536c0.974,0.974,2.26,1.464,3.536,1.463c1.276,0.001,2.562-0.489,3.535-1.462
		c0.974-0.974,1.464-2.26,1.463-3.536l-0.006-0.253l-0.423-8.3l8.756-3.839c0.554-0.243,1.073-0.591,1.524-1.042
		c0.974-0.973,1.464-2.259,1.463-3.536c0.001-0.958-0.275-1.921-0.824-2.753l5.564-5.564C32.097,1.317,32.097,0.683,31.707,0.293z
		 M12.776,29.116c-0.587,0.586-1.349,0.876-2.121,0.877c-0.772-0.001-1.535-0.291-2.121-0.877c-0.586-0.587-0.876-1.349-0.877-2.122
		c0.001-0.772,0.291-1.535,0.877-2.121c0.008-0.008,0.01-0.019,0.018-0.027c0.083-0.089,0.153-0.188,0.199-0.299
		c0.05-0.121,0.076-0.25,0.076-0.379c0-0.001,0-0.001,0-0.002c0-0.13-0.026-0.259-0.076-0.381c-0.05-0.121-0.123-0.233-0.217-0.326
		c-0.093-0.094-0.205-0.167-0.326-0.217c-0.118-0.049-0.243-0.072-0.368-0.074c-0.004,0-0.008-0.002-0.013-0.002
		c-0.003,0-0.006,0.002-0.009,0.002c-0.127,0.001-0.253,0.025-0.372,0.074c-0.121,0.05-0.233,0.123-0.326,0.217l0,0
		c-0.586,0.586-1.349,0.876-2.121,0.877c-0.772-0.001-1.535-0.291-2.121-0.877C2.291,22.872,2.001,22.109,2,21.337
		c0.001-0.772,0.291-1.535,0.877-2.121c0.586-0.586,1.349-0.876,2.121-0.877l0.154,0.004l8.086,0.412l0.412,8.085l0.004,0.154
		C13.652,27.766,13.362,28.529,12.776,29.116z M24.09,12.145c-0.273,0.273-0.582,0.479-0.913,0.625l-7.042,3.088l3.088-7.042
		c0.145-0.331,0.352-0.64,0.625-0.913c0.587-0.586,1.349-0.876,2.122-0.877c0.772,0.001,1.535,0.291,2.121,0.877l0.001-0.001l0,0
		L24.09,7.903c0.586,0.586,0.876,1.349,0.877,2.121C24.966,10.796,24.676,11.558,24.09,12.145z"/>
</g>
<g id="Layer_1">
</g>
</svg>
