<?xml version="1.0" encoding="iso-8859-1"?>
<!-- Generator: Adobe Illustrator 19.2.1, SVG Export Plug-In . SVG Version: 6.00 Build 0)  -->
<svg version="1.1" xmlns="http://www.w3.org/2000/svg" xmlns:xlink="http://www.w3.org/1999/xlink" x="0px" y="0px"
	 viewBox="0 0 32 32.013" style="enable-background:new 0 0 32 32.013;" xml:space="preserve">
<g id="Layer_40">
	<path style="fill:#66CCFF;" d="M15.68,13.742l3.043-3.043c0.391-0.391,0.391-1.024,0-1.414c-0.39-0.391-1.024-0.391-1.414,0
		l-3.043,3.043c-0.391,0.391-0.391,1.024,0,1.414C14.656,14.133,15.289,14.133,15.68,13.742z"/>
	<path style="fill:#66CCFF;" d="M29.972,18.035h-28c-0.552,0-1,0.448-1,1c0,0.552,0.448,1,1,1h28c0.552,0,1-0.448,1-1
		C30.972,18.483,30.525,18.035,29.972,18.035z"/>
	<path style="fill:#66CCFF;" d="M11.265,9.328c-0.391,0.391-0.391,1.024,0,1.414c0.391,0.391,1.024,0.391,1.414,0l3.043-3.043
		c0.391-0.391,0.391-1.024,0-1.414c-0.173-0.173-0.395-0.256-0.621-0.276c0.488-0.066,0.871-0.468,0.871-0.974c0-0.552-0.448-1-1-1
		h-4c-0.552,0-1,0.448-1,1c0,0.552,0.448,1,1,1h3.822c-0.177,0.041-0.348,0.112-0.486,0.25L11.265,9.328z"/>
	<path style="fill:#66CCFF;" d="M19.68,15.742l2.043-2.043c0.391-0.391,0.391-1.024,0-1.414c-0.39-0.391-1.024-0.391-1.414,0
		l-2.043,2.043c-0.39,0.391-0.39,1.024,0,1.414C18.656,16.133,19.289,16.133,19.68,15.742z"/>
	<circle style="fill:#66CCFF;" cx="24.972" cy="27.035" r="1"/>
	<circle style="fill:#66CCFF;" cx="6.972" cy="27.035" r="1"/>
	<path style="fill:#4E5F80;" d="M28,14.035V14h-4.527L16,6.527V3.035C16,1.378,14.63,0,12.972,0h-10C1.315,0,0,1.378,0,3.035v4v15
		C0,23.14,0.867,24,1.972,24h1.042c-0.644,0.843-1.042,1.885-1.042,3.026c0.001,2.762,2.238,4.986,5,4.987
		c2.762-0.001,4.999-2.013,5-5.013c0-1.18-0.355-2.194-0.943-3h9.985c-0.644,0.843-1.042,1.885-1.042,3.026
		c0.001,2.762,2.238,4.986,5,4.987c2.762-0.001,4.999-2.013,5-5.013c0-1.18-0.355-2.194-0.943-3h0.943C31.077,24,32,23.14,32,22.035
		v-4C32,15.826,30,14.036,28,14.035z M6.972,30.017c-1.656-0.003-2.997-1.335-3-2.991c0.003-1.656,1.344-3.01,3-3.013
		C8.629,24.016,9.969,25,9.972,27C9.969,29,8.629,30.014,6.972,30.017z M24.972,30.017c-1.656-0.003-2.997-1.335-3-2.991
		c0.003-1.656,1.344-3.01,3-3.013c1.656,0.003,2.997,0.987,3,2.987C27.969,29,26.629,30.014,24.972,30.017z M30,22H2V7.035v-4
		C2,2.483,2.42,2,2.972,2h10C13.524,2,14,2.483,14,3.035v4c0,0.263,0.093,0.503,0.279,0.69c0.022,0.022,0.051,0.029,0.074,0.048
		l7.984,7.952C22.523,15.911,22.795,16,23.058,16H28v0.035c1,0.002,2,0.896,2,2V22z"/>
</g>
<g id="Layer_1">
</g>
</svg>
