<?xml version="1.0" encoding="iso-8859-1"?>
<!-- Generator: Adobe Illustrator 19.2.1, SVG Export Plug-In . SVG Version: 6.00 Build 0)  -->
<svg version="1.1" xmlns="http://www.w3.org/2000/svg" xmlns:xlink="http://www.w3.org/1999/xlink" x="0px" y="0px"
	 viewBox="0 0 31.556 31.624" style="enable-background:new 0 0 31.556 31.624;" xml:space="preserve">
<g id="Layer_5">
	<path style="fill:#66CCFF;" d="M5.879,21.474c0.186,0.186,0.444,0.293,0.707,0.293c0.263,0,0.521-0.107,0.707-0.293L8,20.766
		l2.828,2.828l-0.707,0.707c-0.186,0.186-0.293,0.444-0.293,0.707c0,0.263,0.107,0.521,0.293,0.707l2.828,2.828
		c0.186,0.186,0.444,0.293,0.707,0.293s0.521-0.107,0.707-0.293l2.829-2.828c0.186-0.186,0.293-0.444,0.293-0.707
		c0-0.263-0.107-0.521-0.293-0.707l-2.829-2.828c-0.391-0.39-1.024-0.39-1.414,0l-0.707,0.707l-2.829-2.828l0.707-0.707
		c0.186-0.186,0.293-0.444,0.293-0.707c0-0.263-0.107-0.521-0.293-0.707l-2.828-2.828c-0.391-0.391-1.024-0.391-1.414,0L3.05,17.231
		c-0.186,0.186-0.293,0.444-0.293,0.707s0.107,0.521,0.293,0.707L5.879,21.474z M13.657,23.595l1.414,1.414l-1.414,1.414
		l-1.414-1.414L13.657,23.595z M6.586,16.524L8,17.938l-1.414,1.414l-1.414-1.414L6.586,16.524z"/>
	<path style="fill:#66CCFF;" d="M17.192,10.16c0.186,0.186,0.444,0.293,0.707,0.293c0.263,0,0.521-0.107,0.707-0.293l0.707-0.707
		l2.828,2.828l-0.707,0.707c-0.391,0.391-0.391,1.024,0,1.414l2.828,2.828c0.186,0.186,0.444,0.293,0.707,0.293
		c0.263,0,0.521-0.107,0.707-0.293l2.829-2.828c0.186-0.186,0.293-0.444,0.293-0.707s-0.107-0.521-0.293-0.707l-2.829-2.828
		c-0.391-0.391-1.024-0.391-1.414,0l-0.707,0.707l-2.828-2.828l0.707-0.707c0.186-0.186,0.293-0.444,0.293-0.707
		c0-0.263-0.107-0.521-0.293-0.707l-2.828-2.829c-0.391-0.39-1.024-0.39-1.414,0l-2.829,2.829c-0.186,0.186-0.293,0.444-0.293,0.707
		c0,0.263,0.107,0.521,0.293,0.707L17.192,10.16z M24.971,12.281l1.414,1.414l-1.414,1.414l-1.414-1.414L24.971,12.281z M17.9,5.21
		l1.414,1.414L17.9,8.039l-1.414-1.414L17.9,5.21z"/>
	<path style="fill:#4E5F80;" d="M3.05,18.653l-0.707-0.711C0.783,19.501-0.001,21.553,0,23.597
		c-0.001,2.044,0.783,4.215,2.343,5.774l0.035-0.029C3.933,30.88,5.971,31.626,8,31.624c2.044,0.001,4.097-0.798,5.657-2.358
		l15.556-15.564c1.56-1.559,2.344-3.616,2.343-5.66c0.001-2.044-0.783-4.253-2.343-5.812l-0.045,0.035
		C27.614,0.733,25.582-0.001,23.556,0c-2.044-0.001-4.097,0.802-5.657,2.362L2.343,17.928l0.707,0.717l0.707,0.707L19.314,3.796
		c1.174-1.173,2.704-1.756,4.243-1.757c1.498,0.001,2.984,0.413,4.145,1.517c0.033,0.054,0.056,0.122,0.097,0.164
		C28.972,4.893,29.555,6.461,29.556,8c-0.001,1.539-0.584,3.088-1.757,4.262L12.243,27.828C11.069,29.001,9.539,29.589,8,29.59
		c-1.507-0.001-3.002-0.449-4.166-1.568c-0.028-0.04-0.044-0.092-0.076-0.125C2.584,26.723,2.001,25.163,2,23.625
		c0.001-1.539,0.584-3.083,1.757-4.257L3.05,18.653z M29.506,2.935c0-0.059-0.024-0.102-0.034-0.154h0.034V2.935z M2.05,28.663
		c0,0.044,0.02,0.078,0.026,0.118H2.05V28.663z"/>
</g>
<g id="Layer_1">
</g>
</svg>
