<?xml version="1.0" encoding="iso-8859-1"?>
<!-- Generator: Adobe Illustrator 19.2.1, SVG Export Plug-In . SVG Version: 6.00 Build 0)  -->
<svg version="1.1" xmlns="http://www.w3.org/2000/svg" xmlns:xlink="http://www.w3.org/1999/xlink" x="0px" y="0px"
	 viewBox="0 0 32.028 32" style="enable-background:new 0 0 32.028 32;" xml:space="preserve">
<g id="Layer_41">
	<g id="_x33_2x32_1_">
		<g>
			<path style="fill:#66CCFF;" d="M19.707,15.742l2.043-2.043c0.391-0.391,0.391-1.024,0-1.414c-0.39-0.391-1.024-0.391-1.414,0
				l-2.043,2.043c-0.39,0.391-0.39,1.024,0,1.414C18.683,16.133,19.317,16.133,19.707,15.742z"/>
			<path style="fill:#66CCFF;" d="M11,22.035H7c-0.552,0-1,0.448-1,1c0,0.552,0.448,1,1,1h4c0.552,0,1-0.448,1-1
				C12,22.483,11.552,22.035,11,22.035z"/>
			<path style="fill:#66CCFF;" d="M25,22.035h-4c-0.552,0-1,0.448-1,1c0,0.552,0.448,1,1,1h4c0.552,0,1-0.448,1-1
				C26,22.483,25.552,22.035,25,22.035z"/>
			<path style="fill:#66CCFF;" d="M15.707,13.742l3.043-3.043c0.391-0.391,0.391-1.024,0-1.414c-0.39-0.391-1.024-0.391-1.414,0
				l-3.043,3.043c-0.391,0.391-0.391,1.024,0,1.414C14.683,14.133,15.317,14.133,15.707,13.742z"/>
			<path style="fill:#66CCFF;" d="M30,18.035H2c-0.552,0-1,0.448-1,1c0,0.552,0.448,1,1,1h28c0.552,0,1-0.448,1-1
				C31,18.483,30.552,18.035,30,18.035z"/>
			<path style="fill:#66CCFF;" d="M11.293,9.328c-0.391,0.391-0.391,1.024,0,1.414c0.391,0.391,1.024,0.391,1.414,0l3.043-3.043
				c0.391-0.391,0.391-1.024,0-1.414c-0.173-0.173-0.395-0.256-0.621-0.276C15.618,5.943,16,5.541,16,5.035c0-0.552-0.448-1-1-1h-4
				c-0.552,0-1,0.448-1,1c0,0.552,0.448,1,1,1h3.822c-0.177,0.041-0.348,0.112-0.486,0.25L11.293,9.328z"/>
		</g>
		<g>
			<path style="fill:#4E5F80;" d="M21,22H11c-0.263,0-0.507,0.124-0.693,0.31c-0.186,0.186-0.279,0.461-0.279,0.725v4
				c0,0.263,0.093,0.503,0.279,0.69C10.493,27.911,10.737,28,11,28h10c0.263,0,0.521-0.107,0.707-0.293C21.893,27.521,22,27,22,27
				h0.028v-3.965c0-0.263-0.121-0.539-0.307-0.725C21.535,22.124,21.263,22,21,22z M20.028,26h-8v-2h8V26z"/>
			<path style="fill:#4E5F80;" d="M28,14h-4.5l-7.473-7.473V3.035C16.028,1.378,14.657,0,13,0H3C1.343,0,0.028,1.378,0.028,3.035v4
				v15C0.028,23.14,0.895,24,2,24h4.028v2H3c-1.657,0-2.999,1.343-3,3c0.001,1.657,1.343,3,3,3h26c1.657,0,2.999-1.343,3-3
				c-0.001-1.657-1.343-3-3-3h-2.972v-2h4v0.035c1-0.001,2-0.895,2-2v-4C32.028,15.826,30.209,14,28,14z M30.028,22H25
				c-0.263,0-0.507,0.124-0.693,0.31c-0.186,0.186-0.279,0.461-0.279,0.725v4c0,0.263,0.093,0.503,0.279,0.689
				C24.493,27.911,24.737,28,25,28h4c0.552,0,0.999,0.448,1,1c-0.001,0.552-0.448,1-1,1H3c-0.552,0-0.999-0.448-1-1
				c0.001-0.552,0.448-1,1-1h4c0.263,0,0.535-0.089,0.721-0.275c0.186-0.186,0.307-0.426,0.307-0.689v-4
				c0-0.263-0.121-0.539-0.307-0.725C7.535,22.124,7.263,22,7,22H2.028V7.035v-4C2.028,2.483,2.448,2,3,2h10
				c0.552,0,1.028,0.483,1.028,1.035v4c0,0.263,0.093,0.503,0.279,0.69c0.022,0.022,0.051,0.029,0.074,0.048l7.984,7.952
				C22.55,15.911,22.823,16,23.086,16H28c1.104,0,2.028,0.931,2.028,2.035V22z"/>
		</g>
	</g>
</g>
<g id="Layer_1">
</g>
</svg>
