<?xml version="1.0" encoding="iso-8859-1"?>
<!-- Generator: Adobe Illustrator 19.2.1, SVG Export Plug-In . SVG Version: 6.00 Build 0)  -->
<svg version="1.1" xmlns="http://www.w3.org/2000/svg" xmlns:xlink="http://www.w3.org/1999/xlink" x="0px" y="0px"
	 viewBox="0 0 31.888 31.888" style="enable-background:new 0 0 31.888 31.888;" xml:space="preserve">
<g id="Layer_6">
	<path style="fill:#66CCFF;" d="M4.027,29.275L31.226,2.076c0.39-0.39,0.39-1.024,0-1.414s-1.024-0.391-1.414,0L2.613,27.86
		c-0.391,0.391-0.391,1.024,0,1.414C3.004,29.665,3.637,29.665,4.027,29.275z"/>
	<path style="fill:#4E5F80;" d="M4.563,31.225c0.468,0.464,1.087,0.663,1.691,0.663c0.466,0,0.938-0.116,1.378-0.347
		c7.966-4.171,13.477-8.777,17.265-13.63c3.789-4.852,5.837-9.941,6.924-15.004c0.043-0.202,0.066-0.403,0.066-0.603
		c0.004-0.603-0.222-1.2-0.649-1.622l0.003-0.003c-0.005-0.006-0.012-0.009-0.017-0.015c-0.005-0.005-0.009-0.012-0.015-0.018
		l-0.003,0.003C30.784,0.222,30.187-0.004,29.584,0c-0.2,0-0.402,0.023-0.604,0.066C23.919,1.153,18.829,3.202,13.977,6.99
		c-4.853,3.787-9.459,9.298-13.63,17.265C0.116,24.695,0,25.168,0,25.633c0,0.605,0.199,1.224,0.663,1.691L4.563,31.225z
		 M2.118,25.183c4.069-7.769,8.497-13.032,13.089-16.616c4.594-3.583,9.363-5.505,14.194-6.545L29.584,2l0.211,0.06l0.032,0.032
		l0.06,0.211l-0.021,0.184c-1.041,4.83-2.962,9.599-6.545,14.193c-3.585,4.592-8.847,9.019-16.616,13.089l-0.45,0.119l-0.277-0.077
		l-3.9-3.9L2,25.633L2.118,25.183z"/>
</g>
<g id="Layer_1">
</g>
</svg>
