<?xml version="1.0" encoding="iso-8859-1"?>
<!-- Generator: Adobe Illustrator 19.2.1, SVG Export Plug-In . SVG Version: 6.00 Build 0)  -->
<svg version="1.1" xmlns="http://www.w3.org/2000/svg" xmlns:xlink="http://www.w3.org/1999/xlink" x="0px" y="0px"
	 viewBox="0 0 28.013 32" style="enable-background:new 0 0 28.013 32;" xml:space="preserve">
<g id="Layer_8">
	<path style="fill:#66CCFF;" d="M5.039,14.428L5.039,14.428c0.598-0.253,1.253-0.392,1.946-0.393c2.803,0,2.193,0,5,0
		c1.104,0.002,1.998,0.896,2,2c-0.002,1.104-0.896,1.998-2,2c-1.021,0-3.979,0-5,0c-0.552,0-1,0.448-1,1c0,0.552,0.448,1,1,1
		c1.021,0,3.979,0,5,0c2.21,0,3.999-1.79,4-4v0h5c3.866-0.001,6.999-3.134,7-7c0-0.552-0.448-1-1-1c-0.552,0-1,0.448-1,1
		c-0.005,2.761-2.239,4.995-5,5H15.43c-0.693-1.191-1.968-2-3.445-2c-2.807,0-2.197,0-5,0c-0.964,0-1.887,0.196-2.725,0.55
		c-0.509,0.215-0.747,0.802-0.531,1.311C3.944,14.405,4.531,14.643,5.039,14.428z"/>
	<path style="fill:#66CCFF;" d="M25.985,25.035c0-0.552-0.448-1-1-1c-0.207,0-4.708,0-9.157,0c-4.424,0-8.784,0-8.843,0H6.981
		c-0.263,0-0.521,0.107-0.707,0.293c-0.186,0.186-0.293,0.444-0.293,0.707c0,0.263,0.107,0.521,0.293,0.707
		c0.186,0.186,0.444,0.293,0.707,0.293h0.005c0.059,0,4.419,0,8.843,0c4.45,0,8.951,0,9.157,0
		C25.538,26.035,25.985,25.587,25.985,25.035z"/>
	<path style="fill:#4E5F80;" d="M6.013,25.96v3.075C6.013,30.692,7.328,32,8.985,32h14c1.657,0,3.028-1.308,3.028-2.965v-3.146
		c1.326-0.378,2-1.504,2-2.854v-16c0-3.866-3-6.999-7-7V0H10.985C7.119,0,4.013,3.169,4.013,7.035v5.709
		C1.649,13.859,0.001,16.236,0,19.035C0.001,22.571,2.523,25.485,6.013,25.96z M5.329,14.343c0.252-0.089,0.453-0.271,0.568-0.512
		c0.115-0.241,0.129-0.513,0.04-0.764L5.934,13h0.079V7.035C6.013,4.274,8.224,2,10.985,2h10.028v0.035c3,0.005,5,2.239,5,5v16
		c0,0.552-0.462,0.999-1.014,1c-0.263,0-0.514,0.107-0.7,0.293c-0.186,0.186-0.286,0.444-0.286,0.707v4
		c0,0.552-0.476,0.965-1.028,0.965h-14c-0.552,0-0.972-0.413-0.972-0.965v-4c0-0.263-0.121-0.521-0.307-0.707
		c-0.186-0.186-0.451-0.293-0.714-0.293c-2.761-0.005-4.998-2.239-5.003-5C1.988,16.863,3.382,15.034,5.329,14.343z"/>
</g>
<g id="Layer_1">
</g>
</svg>
