<?xml version="1.0" encoding="iso-8859-1"?>
<!-- Generator: Adobe Illustrator 19.2.1, SVG Export Plug-In . SVG Version: 6.00 Build 0)  -->
<svg version="1.1" xmlns="http://www.w3.org/2000/svg" xmlns:xlink="http://www.w3.org/1999/xlink" x="0px" y="0px"
	 viewBox="0 0 32.134 32.154" style="enable-background:new 0 0 32.134 32.154;" xml:space="preserve">
<g id="Layer_9">
	<path style="fill:#66CCFF;" d="M16.299,27.654c0.391,0.391,1.024,0.391,1.414,0c0.39-0.391,0.39-1.024,0-1.414L5.914,14.441
		c-0.391-0.391-1.024-0.391-1.414,0c-0.391,0.391-0.391,1.024,0,1.414L16.299,27.654z"/>
	<path style="fill:#66CCFF;" d="M17.107,14.048c2.76-0.002,4.998-2.24,5-5c-0.002-2.76-2.24-4.998-5-5c-2.76,0.002-4.998,2.24-5,5
		C12.108,11.808,14.347,14.046,17.107,14.048z M17.107,6.048c1.652,0.003,2.997,1.348,3,3c-0.003,1.652-1.348,2.997-3,3
		c-1.652-0.003-2.997-1.348-3-3C14.11,7.396,15.455,6.051,17.107,6.048z"/>
	<path style="fill:#4E5F80;" d="M4,32.154c1.02,0.001,2.05-0.392,2.828-1.171l3.322-3.322c0.517-0.515,1.187-0.768,1.921-0.771
		c0.376,0,0.764,0.07,1.141,0.212c1.592,0.598,3.269,0.897,4.947,0.897c3.574,0.001,7.158-1.362,9.882-4.086l-0.707-0.707
		l0.707,0.707c2.666-2.666,4.093-6.166,4.093-9.696c0.006-4.485-2.028-9.046-6.278-11.897C23.545,0.767,20.847,0,18.154,0
		c-2.807,0-5.618,0.833-7.99,2.5c-3.998,2.807-6.011,7.16-6.007,11.494c0,1.637,0.285,3.274,0.854,4.831
		c0.146,0.399,0.218,0.809,0.218,1.206c-0.003,0.788-0.274,1.51-0.828,2.065l-3.229,3.229C0.392,26.104-0.001,27.134,0,28.154
		c-0.001,1.02,0.392,2.05,1.172,2.828C1.95,31.762,2.98,32.156,4,32.154z M2.586,26.74l3.229-3.229
		c0.954-0.952,1.416-2.219,1.413-3.479c0-0.639-0.115-1.279-0.34-1.893c-0.488-1.334-0.733-2.74-0.733-4.145
		c0.004-3.727,1.707-7.43,5.158-9.858C13.332,2.718,15.741,2,18.154,2c2.315,0,4.624,0.66,6.587,1.979
		c3.66,2.46,5.388,6.336,5.393,10.236c0,2.992-1.208,5.983-3.507,8.282c-2.337,2.337-5.397,3.5-8.468,3.501
		c-1.44,0-2.879-0.257-4.243-0.769c-0.597-0.224-1.222-0.339-1.845-0.339c-1.208-0.003-2.423,0.443-3.335,1.357l-3.322,3.322
		C5.021,29.961,4.515,30.153,4,30.154c-0.515-0.001-1.021-0.193-1.414-0.586C2.193,29.175,2.001,28.67,2,28.154
		C2.001,27.639,2.193,27.133,2.586,26.74z"/>
</g>
<g id="Layer_1">
</g>
</svg>
