<svg xmlns="http://www.w3.org/2000/svg" viewBox="0 0 512 512"><path d="M512 162.357H26.68V64.821a8.454 8.454 0 0 1 8.453-8.453h468.414A8.454 8.454 0 0 1 512 64.821v97.536z" fill="#f5f5f5"/><path d="M503.547 374.337H35.133a8.454 8.454 0 0 1-8.453-8.453v-97.537H512v97.536a8.453 8.453 0 0 1-8.453 8.454z" fill="#73af00"/><g fill="#ff4b55"><path d="M26.68 162.357H512v105.99H26.68z"/><path d="M152.194 374.337H35.133a8.454 8.454 0 0 1-8.453-8.453V64.821a8.454 8.454 0 0 1 8.453-8.453h117.061v317.969z"/></g><g fill="#f5f5f5"><path d="M60.858 125.724c-.468.054-.92.11-1.361.168v5.959c.444.113.895.225 1.361.334v-6.461zM81.471 137.081a140.508 140.508 0 0 1-5.43-.568l-14.292 12.712c1.851.283 4.07.657 4.997.953 3.67-3.214 8.593-7.591 14.725-13.097zM102.977 116.863v-1.224H77.618v1.823h25.359zM84.203 80.597c0 1.786 2.691 3.294 5.877 3.294s5.877-1.508 5.877-3.294-2.691-3.294-5.877-3.294-5.877 1.509-5.877 3.294zM78.707 124.916c-5.725-.029-11.437.182-16.107.623v7.035c5.487 1.178 11.88 2.079 16.107 2.529v-10.187zM49.217 159.635c2.262-.048 7.233-.943 10.597-3.571 1.043-.815 2.823-2.314 5.328-4.49-1.698-.349-4.546-.77-6.064-.98l-9.861 9.041zM81.972 113.898V110.7l-1.323-1.967-3.894 2.832a877.447 877.447 0 0 0 1.363 2.334l3.854-.001zM52.015 128.339c-.013.053-.043.173.153.425.723.926 2.813 1.81 5.588 2.615v-5.228c-3.332.551-5.514 1.282-5.741 2.188zM96.556 125.842v-6.639H83.713v16.216h3.265c5.281 0 9.578-4.297 9.578-9.577zM75.915 101.726C69.04 91.591 61.696 80.939 59.904 78.829c.257.944.877 2.716 2.325 6.033 1.868 4.281 6.403 12.492 10.156 19.099l3.53-2.235zM73.248 105.478a848.208 848.208 0 0 0 2.629 4.573l3.799-2.762c-.903-1.341-1.833-2.717-2.782-4.118l-3.646 2.307zM81.972 135.389v-10.431c-.507-.011-1.014-.021-1.524-.027v10.344c.588.051 1.099.09 1.524.114zM83.72 104.947h12.842v1.823H83.72zM114.405 113.789v.109h.653a.87.87 0 0 1 .871.871v3.564a.87.87 0 0 1-.871.871h-.653v.109c0 .48.39.871.871.871h14.693a.872.872 0 0 0 .871-.871v-5.523c0-.48-.39-.871-.871-.871h-14.693a.87.87 0 0 0-.871.87zM130.844 159.587l-9.806-8.991c-1.518.209-4.366.631-6.064.98 2.55 2.21 4.329 3.711 5.327 4.491 3.313 2.587 8.181 3.492 10.543 3.52zM110.705 116.237v1.225h3.483v-1.823h-3.483zM113.369 150.178c.926-.297 3.149-.672 5.003-.955l-21.057-18.79a11.351 11.351 0 0 1-2.348 3.418l.554.495c7.63 6.83 13.592 12.118 17.848 15.832zM66.191 119.313v-.109h-.653a.87.87 0 0 1-.871-.871v-3.564c0-.481.39-.871.871-.871h.653v-.109c0-.48-.39-.871-.871-.871H50.627a.872.872 0 0 0-.871.871v5.523c0 .48.39.871.871.871H65.32c.48 0 .871-.391.871-.87zM69.891 116.863v-1.224h-3.482v1.823h3.482zM103.36 111.563l-3.893-2.831-1.17 1.739v3.426h3.699c.092-.155.589-1.001 1.364-2.334zM84.879 99.612h10.516l-2.315-2.568h-5.886zM83.72 101.438h12.842v1.769H83.72zM90.08 85.633c-.846 0-1.64-.109-2.394-.269v9.842h4.844v-9.853c-.771.168-1.584.28-2.45.28zM83.713 110.333H96.5a.84.84 0 0 1 .056-.32v-1.503H83.713v1.823zM100.44 107.287l3.799 2.762c.754-1.304 1.652-2.86 2.629-4.572l-3.645-2.308c-.95 1.402-1.879 2.778-2.783 4.118zM83.72 112.077h12.842v1.823H83.72zM107.731 103.961c3.754-6.608 8.288-14.817 10.157-19.099 1.452-3.326 2.071-5.1 2.327-6.041-1.76 2.066-9.122 12.743-16.014 22.904l3.53 2.236z"/></g><path d="M133.269 159.449l-11.355-10.412a.852.852 0 0 0-.705-.221c-.096.013-.316.042-.607.083-.016-.016-.022-.037-.039-.053L97.93 128.648c.23-.899.367-1.836.367-2.806v-6.639h5.49c.707.92 1.806 1.524 3.054 1.524s2.347-.603 3.054-1.524h2.769v.109a2.615 2.615 0 0 0 2.612 2.612h14.693a2.615 2.615 0 0 0 2.612-2.612v-5.523a2.615 2.615 0 0 0-2.612-2.612h-14.693a2.615 2.615 0 0 0-2.612 2.612v.109h-2.769a3.846 3.846 0 0 0-3.054-1.524c-.946 0-1.801.354-2.473.919 2.935-5.024 12.156-20.948 15.116-27.735 3.176-7.281 2.921-8.223 2.169-8.826-.792-.634-1.795.095-2.174.373-1.457 1.058-15.583 21.928-21.183 30.246v-6.868c0-.019-.01-.035-.011-.055v-.002a.856.856 0 0 0-.426-.683l-3.589-3.981V84.818c2.076-.891 3.429-2.43 3.429-4.221 0-2.823-3.346-5.036-7.618-5.036s-7.618 2.213-7.618 5.036c0 1.806 1.378 3.354 3.483 4.24v10.992l-3.522 3.906a.862.862 0 0 0-.45.748v7.096c-5.491-8.158-19.867-29.406-21.336-30.473-.38-.276-1.383-1.005-2.175-.373-.751.603-1.008 1.544 2.169 8.826 2.868 6.57 11.601 21.706 14.817 27.222a3.816 3.816 0 0 0-1.694-.408 3.843 3.843 0 0 0-3.054 1.524h-2.769v-.109a2.615 2.615 0 0 0-2.612-2.612H50.627a2.615 2.615 0 0 0-2.612 2.612v5.523a2.615 2.615 0 0 0 2.612 2.612H65.32a2.615 2.615 0 0 0 2.612-2.612v-.109h2.769c.707.92 1.806 1.524 3.054 1.524s2.347-.603 3.054-1.524h5.164v4.009c-8.073-.173-30.421-.199-31.645 4.705-.114.454-.125 1.158.469 1.918 2.355 3.017 14.293 5.219 22.952 6.383l-14.196 12.626c-.018.016-.024.037-.04.054-.292-.04-.51-.071-.607-.083a.85.85 0 0 0-.705.221l-11.356 10.412a.87.87 0 0 0-.08 1.199c.376.452 1.332.673 2.611.673 3.148 0 8.253-1.342 11.509-3.884 2.683-2.095 10.114-8.609 22.09-19.366.519-.465.862-.775 1.014-.91h2.989c2.484 0 4.776-.814 6.644-2.176l.738.658c13.787 12.342 22.155 19.672 24.87 21.793 3.254 2.544 8.359 3.884 11.507 3.884 1.28 0 2.236-.221 2.613-.673a.866.866 0 0 0-.081-1.196zm-49.556-24.03v-16.216h12.842v6.639c0 5.28-4.296 9.577-9.577 9.577h-3.265zm-25.957-4.039c-2.774-.805-4.865-1.69-5.587-2.615-.197-.251-.166-.373-.153-.425.227-.906 2.408-1.636 5.741-2.188l-.001 5.228zm2.148-52.552c1.791 2.111 9.136 12.762 16.011 22.897l-3.529 2.235c-3.753-6.608-8.288-14.817-10.156-19.099-1.45-3.317-2.069-5.089-2.326-6.033zm20.745 29.904l1.323 1.967v3.198h-3.853a508.57 508.57 0 0 1-1.363-2.334l3.893-2.831zm-4.772 1.317a877.905 877.905 0 0 1-2.629-4.573l3.644-2.308c.95 1.402 1.879 2.777 2.782 4.118l-3.797 2.763zm6.095 14.909v10.431a49.07 49.07 0 0 1-1.524-.114v-10.344c.509.007 1.017.016 1.524.027zm-19.373.582c4.67-.442 10.383-.652 16.107-.623v10.187c-4.228-.449-10.62-1.351-16.107-2.529v-7.035zm-3.102.352a66.78 66.78 0 0 1 1.361-.168v6.462a73.632 73.632 0 0 1-1.361-.334v-5.96zm16.544 10.62c2.279.279 4.187.47 5.43.568-6.132 5.505-11.055 9.884-14.726 13.096-.927-.296-3.146-.67-4.997-.953l14.293-12.711zm-10.899 15.064c-2.503 2.175-4.284 3.675-5.328 4.49-3.364 2.629-8.335 3.524-10.597 3.571l9.859-9.041c1.52.209 4.368.631 6.066.98zm12.476-34.114v-1.824h25.359v1.823l-25.359.001zm18.339-36.865c0 1.786-2.691 3.294-5.877 3.294s-5.877-1.508-5.877-3.294 2.691-3.294 5.877-3.294 5.877 1.509 5.877 3.294zM83.713 106.77v-1.823h12.842v1.823H83.713zm12.843 1.74v1.503a.848.848 0 0 0-.056.32H83.713v-1.823h12.843zm-12.843-5.305v-1.769h12.842v1.769H83.713zm9.367-6.161l2.315 2.568H84.879l2.315-2.568h5.886zm-5.394-1.839v-9.842c.754.162 1.548.269 2.394.269.866 0 1.679-.112 2.449-.281v9.853c.001.001-4.843.001-4.843.001zm-3.973 16.87h12.842v1.823H83.713v-1.823zm34.175-27.214c-1.868 4.281-6.403 12.492-10.157 19.099l-3.53-2.235c6.892-10.162 14.254-20.839 16.014-22.904-.256.941-.876 2.714-2.327 6.04zm-8.924 31.376v.626c0 1.17-.952 2.122-2.123 2.122s-2.122-.952-2.122-2.122v-.626c0-1.17.952-2.122 2.122-2.122s2.123.952 2.123 2.122zm-4.726-6.188l-3.799-2.762a2073.77 2073.77 0 0 1 2.782-4.118l3.645 2.308a755.291 755.291 0 0 1-2.628 4.572zm-5.941.422c.381-.568.77-1.148 1.17-1.739l3.893 2.831a499.448 499.448 0 0 1-1.364 2.334h-3.699v-3.426zm-.982 19.963l21.057 18.79c-1.854.283-4.078.658-5.003.955-4.256-3.716-10.218-9.003-17.848-15.833l-.554-.495a11.34 11.34 0 0 0 2.348-3.417zm23.724 20.162l9.806 8.991c-2.363-.027-7.231-.934-10.543-3.521-.999-.781-2.778-2.28-5.327-4.491 1.698-.348 4.545-.77 6.064-.979zm9.8-36.807v5.523c0 .48-.39.871-.871.871h-14.693a.872.872 0 0 1-.871-.871v-.109h.653a.87.87 0 0 0 .871-.871v-3.564a.87.87 0 0 0-.871-.871h-.653v-.109c0-.48.39-.871.871-.871h14.693a.873.873 0 0 1 .871.872zm-16.651 3.673h-3.483v-1.824h3.483v1.824zm-64.432 1.851v-5.523c0-.48.39-.871.871-.871H65.32c.481 0 .871.391.871.871v.109h-.653a.87.87 0 0 0-.871.871v3.564c0 .482.39.871.871.871h.653v.109c0 .48-.39.871-.871.871H50.627a.875.875 0 0 1-.871-.872zm16.653-3.674h3.483v1.823h-3.483v-1.823zm9.468 1.224c0 1.17-.952 2.122-2.123 2.122a2.124 2.124 0 0 1-2.122-2.122v-.626c0-1.17.952-2.122 2.122-2.122s2.123.952 2.123 2.122v.626z" fill="#d23741"/><path d="M19.152 488.46C8.575 488.46 0 479.884 0 469.307V42.534C0 32.044 8.504 23.54 18.994 23.54h.157c10.577 0 19.152 8.575 19.152 19.152V469.31c0 10.574-8.575 19.15-19.151 19.15z" fill="#2e3033"/></svg>