<svg xmlns="http://www.w3.org/2000/svg" viewBox="0 0 512 512"><path d="M26.68 299.029V64.736a8.367 8.367 0 0 1 8.368-8.368h359.806L26.68 299.029z" fill="#73af00"/><path d="M512 131.678V365.97a8.368 8.368 0 0 1-8.368 8.368H143.826L512 131.678z" fill="#4173cd"/><path d="M512 136.396v-71.66a8.368 8.368 0 0 0-8.368-8.368H389.855L26.68 294.311v71.659a8.368 8.368 0 0 0 8.368 8.368h113.778L512 136.396z" fill="#ffe15a"/><path d="M512 106.391V64.736a8.368 8.368 0 0 0-8.368-8.368h-67.98L26.68 324.316v41.654a8.368 8.368 0 0 0 8.368 8.368h67.98L512 106.391z" fill="#464655"/><path d="M19.152 488.46C8.575 488.46 0 479.885 0 469.308V42.534C0 32.044 8.504 23.54 18.994 23.54h.157c10.577 0 19.152 8.575 19.152 19.152v426.617c0 10.576-8.575 19.151-19.151 19.151z" fill="#2e3033"/></svg>