<svg xmlns="http://www.w3.org/2000/svg" viewBox="0 0 512 512"><path d="M512 109.363H26.68V64.821a8.454 8.454 0 0 1 8.453-8.453h468.414A8.454 8.454 0 0 1 512 64.821v44.542z" fill="#464655"/><path fill="#ffe15a" d="M26.68 109.357H512v52.99H26.68z"/><path fill="#ff4b55" d="M26.68 162.357H512v52.99H26.68z"/><path fill="#464655" d="M26.68 215.348H512v52.99H26.68z"/><path fill="#ffe15a" d="M26.68 268.357H512v52.99H26.68z"/><path d="M503.547 374.337H35.133a8.454 8.454 0 0 1-8.453-8.453v-44.542H512v44.542a8.453 8.453 0 0 1-8.453 8.453z" fill="#ff4b55"/><path d="M319.48 212.74c1.51 29.79-22.962 54.262-52.752 52.752-25.507-1.292-46.234-22.019-47.527-47.526-1.51-29.79 22.962-54.261 52.752-52.752 25.507 1.293 46.234 22.018 47.527 47.526z" fill="#f5f5f5"/><path d="M272.368 184.785l4.946-1.978a1.358 1.358 0 0 0 .746-1.812c-1.109-2.46-4.081-7.548-9.728-7.701-3.577-.097-6.25.709-7.759 1.331a1.363 1.363 0 0 0-.659 1.955l2.984 5.098 9.47 3.107z" fill="#ff4b55"/><path d="M268.331 173.296c-.411-.011-.783.013-1.17.024l-.539 7.895 2.873 1.591 6.213-5.621c-1.636-1.98-4.035-3.8-7.377-3.889z" fill="#ffe15a"/><path d="M289.604 231.212l-22.359-26.086c0-5.399 1.952-9.809 3.029-11.835 3.078-1.374 5.062-4.759 4.236-8.495-.6-2.718-2.794-4.934-5.506-5.555-4.881-1.116-9.213 2.561-9.213 7.252 0 .176.04.342.052.516-4.824 1.272-5.72 2.823-5.72 2.823s3.16-.841 5.904-1.56c.055.224.129.44.204.655l-5.41 1.836 5.908-.719a7.552 7.552 0 0 0 2.802 2.887c-4.415 3.557-11.194 10.24-11.194 17.785 0 6.899 5.111 11.496 11.546 14.553 2.25 1.068 4.318 2.479 6.019 4.298l.063.068.56 8.564h-12.597c-4.659 0-5.939 3.028-5.939 8.036l2.213-3.145 1.864 3.494.232-3.959 1.98 2.562s-.02-3.346 2.504-3.785c1.34-.232 5.98-.524 9.92-.524l.835 12.763c-5.344-.025-11.395 2.493-11.395 2.493 1.863-.35 6.405.35 6.405.35l-.757 2.213c5.241-2.853 14.848-2.911 14.848-2.911s-2.096-1.43-6.988-1.989l.113-12.917h7.689l1.164-3.028s-3.968-5.263-3.968-8.051c6.152 1.167 10.956 1.411 10.956 1.411zm-15.818 6.989l.039-4.432 4.134 4.432h-4.173z" fill="#464655"/><path d="M289.604 234.939c-1.863-7.454-10.029-9.744-18.633-14.906-9.316-5.59-3.727-14.906-3.727-14.906s31.21 9.161 33.54 22.359c1.814 10.279-5.59 16.77-9.316 18.633l1.34-3.727h-6.929s7.336-5.706 7.453-11.18l-3.728 3.727z" fill="#696e7d"/><path d="M300.783 227.486c-1.557-8.823-16.012-15.837-25.431-19.52-3.015-.336-5.663 4.731 2.606 10.204 11.123 7.364 11.645 16.77 11.645 16.77l3.727-3.727c-.116 5.473-7.453 11.18-7.453 11.18h6.929l-1.34 3.727c3.728-1.863 11.132-8.356 9.317-18.634z" fill="#fffcff"/><path d="M300.783 227.486c-1.032-5.847-7.734-10.893-14.875-14.708-3.439-1.028-6.436-.897-6.436-.897 2.096 1.281 3.028 4.541 3.028 4.541-1.514-.932-4.891-.466-4.891-.466.939.805 1.83 2.448 2.424 3.707 9.108 7.081 9.57 15.276 9.57 15.276l3.727-3.727c-.116 5.473-7.453 11.18-7.453 11.18h6.929l-1.34 3.727c3.728-1.862 11.132-8.355 9.317-18.633z" fill="#ff4b55"/><path d="M265.393 185.387a1.249 1.249 0 0 1-1.585 1.586 1.204 1.204 0 0 1-.768-.768 1.25 1.25 0 0 1 1.586-1.586c.356.114.652.408.767.768z" fill="#f5f5f5"/><path d="M260.956 190.531s-2.718 3.183-.932 4.115c1.786.932 3.508-1.714 3.508-1.714l-2.576-2.401z" fill="#ff4b55"/><path d="M19.152 488.46C8.575 488.46 0 479.884 0 469.307V42.534C0 32.044 8.504 23.54 18.994 23.54h.157c10.577 0 19.152 8.575 19.152 19.152V469.31c0 10.574-8.575 19.15-19.151 19.15z" fill="#2e3033"/></svg>