<svg xmlns="http://www.w3.org/2000/svg" viewBox="0 0 512.004 512.004"><path d="M503.524 374.659H28.87a8.476 8.476 0 0 1-8.476-8.476V61.048a8.476 8.476 0 0 1 8.476-8.476h474.655a8.476 8.476 0 0 1 8.476 8.476v305.135a8.476 8.476 0 0 1-8.477 8.476z" fill="#73af00"/><path fill="#ffe15a" d="M20.394 128.861h491.61v169.52H20.394z"/><path d="M22.953 372.228l166.961-158.613L22.953 55.003c-1.572 1.538-2.56 3.671-2.56 6.045v305.135c.001 2.374.988 4.506 2.56 6.045z" fill="#ff4b55"/><g fill="#464655"><path d="M287.607 174.985l8.687 26.046 27.455.213c3.555.028 5.028 4.563 2.169 6.676l-22.086 16.31 8.282 26.177c1.072 3.389-2.786 6.193-5.679 4.126l-22.336-15.966-22.336 15.966c-2.891 2.067-6.751-.736-5.679-4.126l8.282-26.177-22.086-16.31c-2.86-2.112-1.386-6.648 2.169-6.676l27.455-.213 8.687-26.046c1.121-3.372 5.891-3.372 7.016 0zM414.35 174.985l8.687 26.046 27.455.213c3.555.028 5.028 4.563 2.169 6.676l-22.086 16.31 8.282 26.177c1.072 3.389-2.786 6.193-5.679 4.126l-22.336-15.966-22.336 15.966c-2.891 2.067-6.751-.736-5.679-4.126l8.282-26.177-22.086-16.31c-2.86-2.112-1.386-6.648 2.169-6.676l27.455-.213 8.687-26.046c1.122-3.372 5.891-3.372 7.016 0z"/></g><path d="M19.203 489.09C8.598 489.09 0 480.493 0 469.887V41.958c0-10.519 8.527-19.045 19.045-19.045h.158c10.606 0 19.203 8.598 19.203 19.203v427.771c.001 10.606-8.597 19.203-19.203 19.203z" fill="#2e3033"/></svg>