<svg xmlns="http://www.w3.org/2000/svg" viewBox="0 0 512 512"><path d="M512 215.354H26.68V64.822a8.454 8.454 0 0 1 8.453-8.453h468.414A8.454 8.454 0 0 1 512 64.822v150.532z" fill="#f5f5f5"/><path d="M26.68 215.354H512v150.531a8.454 8.454 0 0 1-8.453 8.453H35.133a8.454 8.454 0 0 1-8.453-8.453V215.354z" fill="#73af00"/><g fill="#ff4b55"><path d="M395.876 149.414s5.784 15.865 6.28 16.692l.661-1.322 3.967-20.657 10.246-19.171-2.974.331-23.302 11.237s-13.882 15.204-14.047 15.7c-.167.497 19.169-2.81 19.169-2.81z"/><path d="M404.084 301.124c-.771-.11-12.23.441-12.23.441l-3.746-12.56-2.148-23.742 4.049-1.075 5.04 2.396 1.818-9.502s-4.38-4.793-5.206-5.123c-.826-.331-10.742-2.561-10.742-2.561l-13.303-17.6 15.865-8.841 12.394-17.022 2.974-15.37-2.479-12.725-5.636-9.438-.148-.478c-.04-.05-.18-.146-.268-.218l-1.055-1.765-.017 1.029c-2.444-1.527-7.448-4.183-8.743-4.83-1.653-.826-10.411-2.314-12.23-.991-1.817 1.322-10.246 5.288-11.734 8.098s-2.479 12.89-2.479 12.89 2.479 5.619 5.619 6.941 9.255 2.81 10.246 2.479c.856-.285 10.557-3.152 13.203-4.358l1.175 2.374-.496 6.776-5.453 3.801-10.081 3.967s-15.37-4.296-16.03-4.131c-.661.165-19.666-5.619-19.666-5.619l-17.849-4.131 5.949-2.974 16.196-1.157s3.14-18.344 3.636-18.675c.496-.331 11.073-8.758 11.073-8.758l8.758-2.148-5.288-22.421 7.932-24.459-20.713 5.95-32.832 8.153-20.933-1.322-18.509 5.95-11.899 10.798-6.831 9.254-2.424 14.763-1.54 19.608-5.729 10.797-6.492 5.089c-.728-1.922-4.14-9.274-4.14-9.274l8.263-1.983-2.148-5.453-5.784-4.296 1.817-6.61 6.61 3.636 1.818 1.322 1.157-6.775-7.272-10.246 1.157-5.123 8.758 4.627-.991-11.899-7.767-4.793.496-6.61 8.484 2.534-.881-6.28-9.254-6.721 9.034-14.543-11.018.552-.881-4.738-2.865-1.102s-15.314 6.5-16.416 6.28-13.331-1.872-14.763-1.543c-1.432.331-6.5 1.653-6.5 1.653l-1.433 5.619-9.365-1.543-13.882-1.157-4.186 5.123 6.61 2.645s-1.543 11.678-1.102 12.56c.441.881 4.407 6.61 4.407 6.61l-9.034 12.339 9.254 1.322 12.78-1.983-.441 3.085 16.967-1.764-3.746 1.983-4.848 14.544-14.102 28.645-4.958 25.45-7.932-8.263-5.288-21.814-7.932-21.484s-1.653-6.61-2.644-6.776-5.288-.991-5.288-.991l-5.453 4.462-6.941-.991-3.967 5.453 4.462 6.941s-7.437 2.974-7.437 3.801c0 .826.496 5.619.991 5.784.496.165 11.734-.165 11.734-.165l6.776 12.064-5.288 13.882 2.644 5.288 4.627.661 4.296-4.958 14.873 44.455s-1.157 5.784-1.983 6.28-4.793 4.958-3.801 4.958 7.106.826 7.767.496c.661-.331 9.254-6.941 9.254-6.941s13.551-10.411 14.378-9.585c.826.826 13.716 8.758 13.716 8.758l-5.949 20.492-14.047 20.492-8.758-5.288-6.28-8.924-4.627 1.488-1.653 2.81.661 5.949s-4.793 3.801-4.793 4.627c0 .826.496 6.776.496 6.776s3.14 1.488 3.305 2.314 1.817 6.776 1.817 6.776l3.305 1.157 6.28-3.801h10.411l6.445.991 13.716-4.296 19.997.992-1.817-3.801s-8.098-4.131-10.908-4.958a122.021 122.021 0 0 0-5.619-1.488l-1.157-5.784 19.666-23.302 7.272-1.488 2.479 6.115s8.153-1.983 8.153-2.645v-8.374c0-.662-1.764-6.17-1.764-6.17l-.059-.505 6.229-1.038 21.595-10.356 7.603 9.144 9.475 4.517-11.789 21.154-10.135 6.831-7.272-3.305-10.136-7.493-3.967 2.424.881 7.492-5.949-.441-2.645 5.288 4.407 6.389-1.543 5.069s1.102 4.627 2.203 4.627 7.712-2.424 7.712-2.424l19.39-1.543 14.102-4.627 14.763 1.102s2.865-9.915 2.204-9.915-.881-.221-2.645-.221-7.932.221-7.932.221l-.221-2.204 4.848-8.813 18.73-15.645 5.508 1.102 1.983 2.865 5.509-4.186-.221-7.051-4.848-5.068-4.848-5.729 1.543-8.594 8.373 3.967s13.221 9.255 14.323 9.696 26.662 7.051 26.662 7.051l5.288 12.56-2.644 19.831-8.153-2.424-7.712-9.915s-2.203-1.102-3.305-.882c-1.102.221-3.746 4.627-3.746 4.627l2.644 6.17-3.526 1.101-3.305 2.204-.661 4.627 3.084 2.865v5.949c0 .661 1.764 3.085 2.424 3.305.661.22 5.729.881 6.941.771 1.212-.11 10.246-3.857 10.246-3.857s16.966.331 17.407.221 15.094-3.305 15.094-3.305l8.263 1.322s5.509-4.187 5.288-4.738c-.209-.552-5.717-5.731-6.488-5.841zm-31.675-119.318c-4.462.496-6.776 1.817-7.106-.661-.331-2.479-.331-7.437.165-7.603s5.619-3.14 5.784-2.644 5.288 2.974 5.288 2.974l3.119 6.306c-1.646.875-4.186 1.287-7.25 1.628zM147.158 141.317s1.817-9.42 2.314-9.42c.496 0 7.272-2.479 7.272-2.479l-20.162-13.056s3.471 16.03 3.801 17.352c.329 1.323 6.775 7.603 6.775 7.603z"/></g><g fill="#464655"><path d="M198.44 121.93c.07.016.472.106 1.087.227l-.152.661a1.977 1.977 0 0 0 1.488 2.375 1.98 1.98 0 0 0 2.376-1.488l.212-.924c1.429.176 3.001.314 4.52.314 1.284 0 2.523-.093 3.589-.341a1.98 1.98 0 0 0 1.485-2.375c-.248-1.069-1.304-1.751-2.378-1.488-3.137.739-9.255-.351-11.341-.826-1.046-.248-2.128.418-2.375 1.488a1.984 1.984 0 0 0 1.489 2.377z"/><path d="M394.777 153.946l4.998 15.259a1.983 1.983 0 0 0 1.885 1.363h.088a1.985 1.985 0 0 0 1.844-1.534c3.656-15.669 10.974-40.452 16.146-44.501.721-.563.96-1.538.586-2.375a1.98 1.98 0 0 0-2.166-1.136c-1.059.197-26.144 5.081-43.598 31.261a1.985 1.985 0 0 0 .005 2.21c.452.666 1.257.976 2.048.832l14.534-3.005a102.885 102.885 0 0 0-3.782 10.808c-6.618-4.028-14.082-4.744-19.258-3.403-5.908 1.549-10.874 5.314-13.626 10.334-2.11 3.847-2.667 8.072-1.531 11.589 1.32 4.085 4.842 9.166 10.772 11.165 3.93 1.335 10.28 1.63 18.651-3.55 0 .04.006.077.005.116-.057 3.305-1.753 6.001-5.049 8.02-6.548 4.013-18.031 4.281-25.59.583-9.966-4.866-24.952-7.635-33.324-8.892 5.191-1.655 11.467-2.122 19.008-.394.102.025.202-.014.304-.006.051.004.09.058.139.058.055 0 .097-.059.152-.063.456-.036.897-.175 1.232-.5.005-.005.005-.013.011-.017.002-.002.005-.001.005-.001.01-.01.006-.022.014-.031.319-.333.462-.761.501-1.209.01-.107.021-.189.014-.296-.005-.09.031-.175.013-.264-.023-.113-2.221-11.372 3.829-19.129 3.636-4.663 9.583-7.209 17.675-7.576.128-.005.234-.078.355-.109.175-.041.35-.067.508-.155.145-.08.245-.206.367-.32.1-.094.225-.151.306-.268.018-.024.019-.054.035-.08.014-.022.04-.032.053-.054.036-.061.027-.134.056-.199.09-.199.152-.397.172-.607.011-.1.011-.192.004-.293a1.937 1.937 0 0 0-.147-.641c-.021-.052-.011-.111-.037-.162-.16-.315-15.721-31.431 9.631-52.207a1.984 1.984 0 0 0 .322-2.732 1.989 1.989 0 0 0-2.719-.424c-25.032 17.574-59.628 19.47-73.34 19.47-24.456 0-39.908 9.209-47.241 28.146-.762 1.969-1.301 4.302-1.754 6.801.245-3.504-.396-6.577-1.977-9.145-2.257-3.663-5.708-5.197-7.26-5.729a83.557 83.557 0 0 0-.033-2.663c2.679-.412 5.858 1.666 6.906 2.55.367.31.824.475 1.286.475.304 0 .612-.072.893-.217a1.98 1.98 0 0 0 1.084-1.905c-.649-9.222-6.904-13.704-11.196-15.22 3.784-3.007 7.818-7.927 10.287-15.952a1.978 1.978 0 0 0-.648-2.123 1.981 1.981 0 0 0-2.21-.197c-.067.037-4.104 2.223-10.173 4.026l.555-7.207a1.984 1.984 0 0 0-2.954-1.875c-.102.056-10.256 5.757-20.611 8.764-7.816-1.965-17.989-3.494-21.845.522-.93.966-1.794 2.536-1.581 4.968-6.655-1.389-21.931-3.661-31.204 2.334a1.98 1.98 0 0 0 1.03 3.645c2.944.073 7.494.749 9.391 2.003-.837 2.257-2.221 7.039-1.012 11.65-4.025 1.165-8.247 1.346-13.382-1.432l4.477-1.099a1.986 1.986 0 0 0 1.497-1.694 1.986 1.986 0 0 0-1.061-1.994c-.113-.062-11.403-5.934-20.791-15.803a2.005 2.005 0 0 0-2.082-.506 1.982 1.982 0 0 0-1.327 1.678c-.08.796-1.764 19.557 12.485 30.682.356.274.787.418 1.221.418a1.98 1.98 0 0 0 1.978-1.828l.553-7.087c7.108 4.256 12.993 3.848 18.042 2.315a12.258 12.258 0 0 0 2.454 2.727c.163.135.387.283.613.431-3.244 7.596-9.688 9.553-9.963 9.63a1.99 1.99 0 0 0-.268 3.724c.48.211 10.858 4.7 22.491.558l-.184 1.327a1.967 1.967 0 0 0 .458 1.554c.367.433.901.687 1.467.697.05 0 .181.005.388.005 1.336 0 5.766-.101 10.788-1.255-.759 7.095-5.082 15.553-9.681 24.474-6.226 12.087-13.165 25.717-13.054 39.483-2.375-3.075-5.333-7.869-6.796-14.234-.506-2.21-.842-4.194-1.146-6.006-.741-4.384-1.381-8.175-3.974-11.738-2.931-4.028-7.075-13.02-6.895-17.931.17-4.539-2.804-7.209-5.825-7.844-.218-.045-.424.012-.64-.014-.715-1.441-2.654-4.202-7.107-4.52-1.071-.145-2.042.744-2.12 1.839a1.984 1.984 0 0 0 1.836 2.118c1.553.11 2.517.703 3.109 1.295-1.454.747-2.633 1.996-3.453 3.594-2.654-1.53-5.337-1.914-7.389-1.443-.531.12-.933.408-1.393.624-1.343-.702-4.92-2.035-9.231.708a1.98 1.98 0 0 0-.61 2.737 1.982 1.982 0 0 0 2.737.609c1.54-.977 2.854-1.105 3.819-.983-.707 1.309-1.108 2.753-1.04 4.097.137 2.67 1.681 4.741 4.067 5.619-2.846.542-5.258 1.864-6.546 3.651-.208.29-.251.62-.4.926-1.812.187-4.6 1.407-6.362 5.132a1.981 1.981 0 1 0 3.584 1.694c.786-1.659 1.71-2.315 2.4-2.616 1.884 6.213 8.007 4.798 11.702 3.933l1.479-.336c2.071-.413 5.722 5.634 6.703 9.559.682 2.727-.486 6.063-4.162 11.899-2.234 3.553-1.59 6.125-.656 7.659.018.031.049.048.068.077a5.292 5.292 0 0 1-2.312.175c-1.066-.217-2.087.61-2.234 1.694a1.982 1.982 0 0 0 1.697 2.232c.506.072.984.104 1.436.104 2.307 0 3.842-.787 4.766-1.432 1.289.552 2.617.76 3.598.683 2.735-.227 4.586-2.624 5.838-5.598 3.649 20.115 12.033 38.794 13.489 41.945-.295 7.127-7.987 8.801-8.32 8.873a1.98 1.98 0 0 0-1.575 1.761 1.978 1.978 0 0 0 1.218 2.014c3.346 1.368 6.274 1.916 8.819 1.916 7.844 0 11.992-5.174 13.298-7.168 5.794-2.018 12.586-6.742 15.237-8.675 4.421 3.313 8.096 5.149 9.324 5.724-2.137 21.028-14.464 35.233-18.072 38.957-2.443-1.399-7.837-4.854-9.619-8.971-1.685-3.891-4.81-4.986-7.359-4.758-.856-1.106-2.777-3.168-5.471-3.464-1.325-.139-3.334.104-5.376 2.148a1.981 1.981 0 0 0 0 2.804c.772.775 2.027.78 2.804.005 1.121-1.121 1.882-1.053 2.13-1.018.763.081 1.501.634 2.086 1.204-1.445 1.232-2.34 2.956-2.197 4.839.102 1.322.598 2.567 1.296 3.723-1.444.752-3.185 1.985-4.331 3.936-.041.07-.088.182-.13.258-2.368.15-6.629 1.823-7.294 7.338a1.983 1.983 0 0 0 1.973 2.221c.989 0 1.846-.739 1.967-1.746.237-1.976 1.194-2.926 2.091-3.401-.022.815.044 1.66.336 2.544.685 2.082 2.302 3.769 4.718 5.081a9.389 9.389 0 0 0-.444 2.617c-1.275.643-3.155 1.843-4.119 3.885-.721 1.524-.764 3.228-.132 4.932a1.979 1.979 0 0 0 1.86 1.291 1.983 1.983 0 0 0 1.859-2.675c-.346-.925-.168-1.497-.002-1.849.293-.624.875-1.15 1.471-1.557.735 1.32 1.846 2.327 3.333 2.817a6.722 6.722 0 0 0 2.091.331c2.361 0 4.752-1.193 6.285-3.269 1.836-2.489 5.428-1.064 5.66-.966 7.51 2.727 17.654.671 23.795-2.779 3.406-1.916 15.406-.883 22.174.227a2.103 2.103 0 0 0 1.529-.383c.434-.336.71-.832.764-1.379.685-6.848-8.175-8.665-15.295-10.128-1.939-.397-3.786-.775-5.526-1.518-.694-4.018 9.745-18.643 19.691-25.956 2.438-1.792 4.4-2.51 5.384-1.983 1.404.769 1.851 4.353 1.71 6.533-.004.057.03.108.031.164.002.217.043.424.118.634.033.089.056.172.1.255.027.053.031.111.063.162.113.174.267.302.421.427.031.025.041.066.073.089.007.005.017.004.017.004.257.183.54.291.838.34.076.013.148.001.226.004.222.012.436-.012.654-.077.052-.014.106.001.156-.018.162-.062.336-.152.501-.219 1.058-.542 2.851.063 4.104.705-.234.723-.374 1.478-.307 2.297.082 1.023.4 2.04.896 3.016-1.965-.222-3.804 0-5.133 1.023-.474.365-.85.823-1.228 1.275-2.792.277-6.283 2.035-7.113 6.192a1.984 1.984 0 0 0 1.554 2.334 1.983 1.983 0 0 0 2.334-1.56c.199-.993.707-1.593 1.267-2.046-.017.724.06 1.441.275 2.119.389 1.227 1.436 3.057 4.101 4.08-.24.408-.447.842-.63 1.286-1.984.638-4.975 2.697-4.975 7.066a1.984 1.984 0 0 0 3.966 0c0-.772.191-1.331.444-1.794.064.286.11.581.212.85.481 1.255 1.924 3.609 5.968 3.609 1.332 0 2.944-.254 4.895-.889 4.733-1.534 8.088-1.694 11.33-1.854 3.879-.186 7.542-.367 12.689-2.753 7.417-3.445 16.601-2.277 21.414-1.27 2.608.537 5.16-.744 6.21-3.135.361-.815.597-1.529.846-2.254 2.243.269 2.708 2.45 2.768 2.93a1.984 1.984 0 0 0 2.173 1.756 1.987 1.987 0 0 0 1.769-2.18c-.215-2.072-1.75-5.789-5.859-6.436.052-1.406-.221-2.564-.911-3.418-.754-.93-2.254-1.905-5.193-1.302-3.042.63-4.441.754-5.072.697.095-.388.32-1.075.844-2.246 1.771-3.987 13.533-14.501 21.236-20.797 1.857-.418 4.212-.444 4.756.175.191.211.191.939-.243 2.091a1.98 1.98 0 0 0 .638 2.268c.685.531 1.64.558 2.352.062.307-.217 7.501-5.324 7.356-11.548-.075-3.146-1.908-5.877-5.451-8.118-3.003-1.896-4.728-4.09-5.131-6.517-.421-2.538.661-4.791 1.384-5.991a41.302 41.302 0 0 1 8.531 5.469c16.747 13.847 30.998 16.052 38.696 16.017 1.615 3.567 6.356 15.74 2.309 28.243-2.153-.383-6.383-1.756-9.286-6.594-2.822-4.7-6.208-5.877-8.555-6.032-3.649-.284-7.519 1.792-10.561 5.593a1.981 1.981 0 0 0 .204 2.695 1.98 1.98 0 0 0 2.704-.011c.506-.48 1.449-1.064 1.854-.749l.411 1.146c.22.635.444 1.275.712 1.896-1.578.232-3.096.878-4.281 2.221-.782.884-1.272 1.907-1.628 2.96-3.633.65-5.612 3.404-5.695 3.532a1.97 1.97 0 0 0 .54 2.727c.338.232.726.347 1.107.347.633 0 1.255-.3 1.642-.857a5.329 5.329 0 0 1 2.082-1.601 6.79 6.79 0 0 0 .839 2.128 5.307 5.307 0 0 0 2.759 2.235 14.15 14.15 0 0 0-.358 1.872c-.042.015-.087.007-.128.024-4.749 1.998-3.781 7.902-2.606 10.742a1.982 1.982 0 0 0 2.585 1.074 1.988 1.988 0 0 0 1.082-2.588c-.015-.037-1.13-2.952-.412-4.613.019.044.023.092.043.135.821 1.854 2.404 3.176 4.575 3.827 1.069.32 2.091.454 3.071.454 3.246 0 6.001-1.503 8.32-2.774 1.805-.987 3.512-1.89 4.857-1.797.978.093 2.1.268 3.328.46 4.638.723 10.995 1.704 17.303-.325 1.175-.377 2.239-.744 3.212-1.079 5.126-1.756 7.041-2.412 10.174-.63 3.793 2.169 8.685.712 11.205-1.947a6.088 6.088 0 0 0 1.489-2.704c1.293.516 2.342 1.071 2.511 1.382a1.985 1.985 0 0 0 1.866 2.65c.814 0 1.578-.506 1.867-1.317.372-1.038.281-2.107-.256-3.089-1.31-2.387-5.149-3.669-7.069-4.177-3.173-4.313-8.013-5.656-16.005-4.39-.318.047-.565-.011-.839-.238-2.917-2.361-3.561-14.621-3.943-21.938-.307-5.857-.517-9.255-1.415-10.887.46-.377 2.969-.424 4.534.717.754.558.828 1.059.648 1.627l-.088.238a1.984 1.984 0 0 0 1.123 2.551 1.991 1.991 0 0 0 2.564-1.095c.059-.139.111-.284.157-.424.708-2.009 3.604-11.108.191-16.872-1.534-2.588-4.031-4.131-7.426-4.591-8.65-1.165-15.242-6.693-19.676-16.325 6.716-2.361 26.488-11.322 30.185-36.058 2.456-16.443-3.437-25.652-8.816-30.481-.257-.231-.536-.407-.798-.624.155-.202.353-.368.423-.63.035-.079 1.394-5.081 3.774-10.848zm-14.003-3.534c11.303-14.708 25.164-21.256 32.66-23.901-4.917 8.857-9.601 25.425-12.044 34.886l-4.126-12.601c-.016-.049-.067-.071-.086-.117 1.209-2.387 2.57-4.698 4.07-6.648a1.982 1.982 0 0 0-.365-2.779 1.98 1.98 0 0 0-2.781.361c-1.871 2.433-3.522 5.32-4.945 8.236l-12.383 2.563zM145.99 138.616c-6.109-6.471-7.7-14.868-8.064-19.97 5.226 4.845 10.499 8.47 14.054 10.679l-3.159.776c-.604-.484-1.197-.932-1.827-1.499-.808-.728-2.06-.656-2.799.15a1.985 1.985 0 0 0 .15 2.804c.708.636 1.38 1.125 2.066 1.671l-.421 5.389zm149.589 65.418c-3.707-9.89-14.892-33.568-42.296-53.38.021-.057.036-.134.057-.19.351-.908.81-1.69 1.205-2.549 41.49 10.602 66.745 27.852 76.832 35.882-20.61-1.52-31.514 12.677-35.798 20.237zm44.916-39.214c-4.381 5.63-5.145 12.488-5.059 17.12-9.098-7.617-34.671-26.155-79.147-37.658.575-.997 1.265-1.866 1.908-2.786.144.034.281.086.432.094 54.722-2.351 85.252 9.399 96.434 14.937-6.274 1.271-11.218 3.985-14.568 8.293zm-43.612-39.972c12.095 0 40.019-1.451 64.103-13.387-10.338 15.572-6.622 33.05-3.7 41.684-11.09-5.68-41.128-17.48-95.913-15.592 7.904-8.463 19.589-12.705 35.51-12.705zm-46.512 42.254c.493-4.482.987-8.746 1.765-12.337 26.336 19.522 36.942 43.121 40.081 51.678-6.468-1.451-12.328-.98-17.377 1.624-4.133 2.134-7.016 5.269-8.993 8.14-.88-9.979-4.176-27.786-16.21-41.807-.038-.045-.093-.064-.134-.106.322-2.411.607-4.828.868-7.192zm-2.505 60.544c-9.216-2.148-13.086-11.434-13.265-11.873a1.99 1.99 0 0 0-1.841-1.245c-.483 0-.955.181-1.325.511-6.621 5.954-14.721 7.524-18.765 7.937 3.196-10.039 12.185-15.256 24.278-22.274l.558-.325c3.015-1.75 5.189-4.406 6.889-7.53-.002 4.991.266 10.551 1.182 15.229a1.983 1.983 0 0 0 2.329 1.565 1.987 1.987 0 0 0 1.565-2.329c-1.984-10.122-.728-25.343-.545-27.394 11.534 15.57 13.061 35.218 13.233 41.624-6.766-1.171-10.536-6.429-10.576-6.484a1.97 1.97 0 0 0-1.624-.857h-.007c-.646 0-1.25.31-1.622.837-2.932 4.153-1.789 9.271-.464 12.608zm-7.023-54.258c-1.536-1.89-3.603-3.97-5.65-4.884.463-1.848.896-3.813 1.291-5.879 2.121 1.742 5.333 5.332 4.359 10.763zm-8.934 7.088c.594.087 4.209.785 5.709 5.425a8.67 8.67 0 0 0-5.658.938c-.319-1.858-.382-3.979-.051-6.363zm7.082 10.171c.574.442 1.335.496 1.988.213-1.151 2.135-2.596 3.902-4.376 5.228-.972-.982-2.402-2.736-3.479-5.279 2.937-2.14 5.573-.374 5.867-.162zm6.835-29.236a1.973 1.973 0 0 0 1.408-1.42 285.174 285.174 0 0 0-.806 6.678c-.831 7.541-1.736 15.707-4.306 21.905-.728-8.334-6.168-11.4-9.353-11.956.169-.575.323-1.142.539-1.743.282-.784.559-1.625.832-2.515 1.812 1.143 4.316 4.238 5.72 6.393.369.568.994.903 1.663.903.046 0 .093 0 .139-.005a1.984 1.984 0 0 0 1.658-1.141c4.746-10.208-1.643-17.488-6.09-20.236.112-.727.224-1.453.325-2.191 2.578 1.212 5.329 3.706 6.32 4.764a1.977 1.977 0 0 0 1.951.564zm-3.293-12.647c1.131 1.839 1.606 4.101 1.425 6.755-1.61-1.337-3.736-2.781-5.915-3.55.235-2.254.41-4.516.511-6.75 1.208.6 2.83 1.678 3.979 3.545zm1.434-13.474c-1.628-.711-3.587-1.194-5.597-.973-.202-2.206-.524-4.259-.974-6.117 2.085.98 5.08 3.027 6.571 7.09zm-12.798-29.478l-.381 4.965c-3.077.686-6.461 1.199-10.048 1.284-.537-.186-1.287-.437-2.158-.717 5.106-1.889 9.691-4.059 12.587-5.532zm-57.952 32.055a8.393 8.393 0 0 1-1.079-1.079c.39-.155.777-.31 1.157-.46 2.753-1.105 5.35-2.148 7.85-2.288 5.616-.346 7.256 1.874 7.623 2.556.374.697.315 1.311.093 1.617-.935 1.27-2.432 2.035-4.455 2.282-4.62.528-10.117-1.735-11.189-2.628zm13.934 12.581a1.948 1.948 0 0 0-2.042-.161c-6.804 3.398-13.575 2.969-17.874 2.112 2.581-1.76 5.608-4.71 7.633-9.368 2.318.84 5.2 1.518 8.049 1.518.661 0 1.32-.041 1.967-.118 3.104-.377 5.582-1.715 7.17-3.863 1.196-1.627 1.273-3.874.202-5.856-.832-1.538-3.597-5.087-11.328-4.627-3.153.17-6.179 1.384-9.107 2.561-.47.186-.94.377-1.407.558-1.064-4.695 1.312-9.869 1.345-9.937.295-.63.24-1.368-.145-1.947-1.102-1.658-3.298-2.691-5.605-3.336 10.69-2.236 24.415 1.456 24.583 1.503.733.191 1.503-.021 2.003-.589a1.987 1.987 0 0 0 .367-2.055c-.798-2.009-.834-3.409-.109-4.162 3.083-3.212 17.597-.036 26.911 3.239.222.077.47.057.689.114 9.177-.145 17.198-2.768 21.946-4.731-5.36 11.641-14.478 13.278-14.907 13.35a1.978 1.978 0 0 0-1.647 2.257c.165 1.084 1.18 1.844 2.262 1.663.209-.034 2.148-.371 4.787-1.64 3.928 10.864.852 35.017-3.32 46.601-4.667 12.968.51 21.204 3.679 24.737-12.525 7.287-22.317 13.48-25.058 26.199-.004.011-.014.019-.017.031-.066.207-.736 2.437-1.51 6.412-4.854-3.226-13.9-16.466-9.03-31.985 1.327-4.235 2.887-8.377 4.395-12.384 4.482-11.898 8.704-23.146 5.56-33.679 1.227-.879 2.375-1.866 3.37-3.024 3.457-4.028 4.666-9.177 3.592-15.308a1.963 1.963 0 0 0-2.296-1.611 1.977 1.977 0 0 0-1.608 2.293c.871 4.974-.011 8.908-2.693 12.038-5.185 6.052-15.728 7.302-20.337 7.556l.341-2.479a1.992 1.992 0 0 0-.811-1.882zm17.802 90.424c-3.415 4.176-10.348 9.728-13.039 11.827-2.485-2.37-4.975-5.183-7.168-8.478 10.147-1.721 16.237-8.02 18.52-10.939.761.647 1.485 1.167 2.123 1.507.185.099.385.11.58.145a136.95 136.95 0 0 0-.759 5.729c-.085.071-.184.119-.257.209zm-24.135-36.145c1.598.449 5.739 1.507 9.56 1.507.699 0 1.327-.129 1.983-.21a33.62 33.62 0 0 0 .321 7.028c-3.163 2.058-10.53 2.232-14.511 2.062.534-3.473 1.447-6.944 2.647-10.387zm4.963-11.835c1.461.35 4.327.932 7.221.932.751 0 1.498-.045 2.225-.138-.466 1.345-.944 2.679-1.376 4.053-.455 1.452-.77 2.876-1.023 4.285-.015.002-.029-.002-.044.001-2.944.727-7.995-.323-10.574-1.026a132.15 132.15 0 0 1 3.571-8.107zm4.533-9.015c.512-.995 1.019-1.98 1.522-2.964 1.725.415 5.129 1.196 7.512 1.491-.34.91-.675 1.813-1.026 2.744a634.724 634.724 0 0 0-1.585 4.27 1.907 1.907 0 0 0-.749.079c-2.351.726-6.022.229-8.4-.265a538.67 538.67 0 0 1 2.726-5.355zm6.291-12.941c1.428.54 3.713 1.258 6.021 1.258.073 0 .138-.031.211-.033-.597 2.074-1.316 4.212-2.091 6.393-1.104-.013-4.343-.656-7.077-1.29a133.386 133.386 0 0 0 2.936-6.328zm2.74-7.578c1.121.078 2.16.13 3.038.13.864 0 1.554-.057 2.181-.133a39.31 39.31 0 0 1-.698 4.7c-1.506.446-3.966-.132-5.787-.805a51.814 51.814 0 0 0 1.266-3.892zm-18.626 55.776c3.798 0 9.111-.432 12.781-2.138a36.334 36.334 0 0 0 1.904 5.292c-6.813 4.734-14.425 5.823-17.118 6.046a42.399 42.399 0 0 1-.612-5.105c-.079-1.384-.026-2.775.055-4.166.769.037 1.783.071 2.99.071zm16.527 6.69c1.024 1.739 2.114 3.296 3.209 4.6-1.686 2.235-7.632 9.069-17.874 10.179a41.774 41.774 0 0 1-3.376-8.36c3.456-.34 10.999-1.677 18.041-6.419zm6.764-70.839c.354 1.435.558 2.895.633 4.377-.504.162-2.385.176-4.416.071.163-1.018.257-2.017.298-3.004a31.624 31.624 0 0 0 3.485-1.444zm-26.705 110.309a2 2 0 0 0-1.182 1.007c-.163.325-3.522 6.853-12.384 5.578 3.135-2.066 6.006-5.541 6.006-10.856 0-.295-.064-.583-.191-.847-.129-.274-13.029-27.79-14.798-52.403a1.983 1.983 0 0 0-1.967-1.839h-.011c-1.03 0-1.89.79-1.975 1.817-.514 6.192-2.564 13.215-4.689 13.392-.783.082-2.613-.506-3.3-1.637-.511-.842-.299-2.014.624-3.481 3.607-5.732 5.779-10.468 4.653-14.977-.943-3.775-5.35-13.701-11.369-12.482l-1.57.356c-5.115 1.214-6.433.955-7.068-1.358-.157-.578-.072-1.048.274-1.529.867-1.209 3.089-2.112 5.528-2.252 4.578-.248 6.404 1.704 6.453 1.761a1.984 1.984 0 0 0 3.432-1.829c-.077-.254-1.953-6.213-9.924-7.184-1.79-.217-2.221-1.368-2.27-2.288-.077-1.524.885-3.332 2.634-3.729 3.135-.697 8.984 1.962 11.519 12.101.266 1.069 1.366 1.683 2.404 1.447a1.984 1.984 0 0 0 1.443-2.407c-1.298-5.189-3.4-8.746-5.751-11.143.04-.074.102-.128.134-.208.95-2.417 2.908-2.917 4.323-2.634 1.35.284 2.765 1.436 2.678 3.817-.245 6.569 4.947 16.697 7.649 20.41 2.046 2.81 2.559 5.852 3.269 10.066.318 1.88.666 3.935 1.193 6.233 2.63 11.443 9.54 18.377 11.167 19.885 2.146 13.765 9.901 23.377 17.009 29.493-3.063 2.173-9.15 6.226-13.943 7.72zm17.62-9.914c2.29-1.802 6.324-5.098 9.704-8.394a183.813 183.813 0 0 0-.511 12.925c-.002.563-.049 1.1-.067 1.655-1.959-1.052-5.357-3.071-9.126-6.186zm122.496-13.217l3.454-10.228a84.055 84.055 0 0 1 9.552 4.072l-6.597 9.209a40.779 40.779 0 0 0-6.409-3.053zm-3.792-1.173a37.13 37.13 0 0 0-5.626-1.01l1.284-11.19c.462.087.934.135 1.392.234 2.216.478 4.342 1.058 6.422 1.685l-3.472 10.281zm-9.6-1.177a40.134 40.134 0 0 0-5.93.512l-1.089-12.532c2.803-.038 5.599.08 8.354.39l-1.335 11.63zm-10.985-11.856l1.144 13.165c-2.047.52-4.112 1.218-6.192 2.047l-3.5-14.279a95.582 95.582 0 0 1 8.548-.933zm-6.104 38.098c-1.591-.56-3.081-1.32-4.492-2.163l7.09-13.456c.166.189.347.351.484.582.705 1.188.81 2.753.315 4.653-.659 2.528-1.841 6.249-3.397 10.384zm-8.788-13.186a63.82 63.82 0 0 1 8.033-4.571l-7.04 13.361a43.357 43.357 0 0 1-5.996-5.651c1.654-.985 3.324-2.02 5.003-3.139zm2.425-23.312l3.733 15.234a66.346 66.346 0 0 0-5.771 3.152l-5.744-16.661a129.893 129.893 0 0 1 7.782-1.725zm-11.617 2.762l6.052 17.558c.027.079.105.113.141.186a113.927 113.927 0 0 1-7.161 4.301l-5.863-19.906c2.09-.706 4.367-1.433 6.831-2.139zm-10.58 3.457l6.028 20.464c.004.014.02.021.024.035a128.737 128.737 0 0 1-7.48 3.545l-6.557-20.468c.083-.143.175-.327.257-.46 1.087-.488 3.833-1.683 7.728-3.116zm-10.511 8.686l5.409 16.881c-4.128 1.639-7.353 2.682-8.957 3.16-1.031-6.56 1.124-14.328 3.548-20.041zm-1.167 36.279c1.343-3.228.946-7.204-1.214-12.142a5.991 5.991 0 0 1-.113-.268c3.328-.972 13.062-4.149 24.261-10.332 2.001 2.423 7.921 8.896 15.856 11.738-4.505 11.022-11.234 23.375-18.011 24.473-5.68.898-8.756-2.489-11.725-5.789-2.59-2.871-5.532-6.125-9.704-3.925-.325.172-.57.391-.854.587a15.545 15.545 0 0 0-1.295-.663c1.139-.996 2.165-2.149 2.799-3.679zm67.145-26.876c.581 3.609 2.913 6.729 6.934 9.275 2.347 1.482 3.559 3.114 3.602 4.849.047 1.854-1.164 3.786-2.536 5.351a4.066 4.066 0 0 0-.653-.966c-2.531-2.81-8.034-1.544-9.112-1.261a1.978 1.978 0 0 0-.749.377c-2.032 1.653-19.947 16.345-22.705 22.548-1.033 2.324-1.924 4.736-.529 6.466 1.454 1.808 4.235 1.606 9.193.578.426-.088.733-.114.94-.114.238 0 .354 0 .354.026.168.284.279 1.88-1.327 5.505-.292.656-1.03 1.002-1.771.852-5.291-1.095-15.44-2.355-23.893 1.56-4.444 2.06-7.581 2.21-11.212 2.386-3.341.16-7.127.346-12.364 2.045-1.206.388-5.206 1.529-5.936-.372-.611-1.597.579-4.392 1.843-5.212 7.804.303 10.986.306 10.986.306a1.984 1.984 0 0 0 0-3.966c-.034 0-3.323 0-11.488-.331-1.41-.057-3.856-.397-4.382-2.06-.392-1.234.3-3.016 1.544-3.967 1.079-.837 4.718.082 8.273 1.617 1.128.712 2.303 1.286 3.441 1.663.966.346 2.032-.145 2.443-1.084a1.98 1.98 0 0 0-.857-2.531 42.894 42.894 0 0 0-3.246-1.617c-2.309-1.565-4.137-3.806-4.278-5.557-.052-.63.075-1.456 1.542-2.226 1.273-.666 2.185.057 4.909 3.073 3.164 3.507 7.483 8.268 15.307 7.045 15.235-2.468 25.959-41.062 26.06-41.45.772-2.96.524-5.541-.741-7.674-.731-1.233-1.671-2.035-2.569-2.647 7.481-2.692 15.914-3.613 24.573-.613-.995 1.819-2.137 4.769-1.596 8.126zm13.326-6.504l6.78-9.464a88.406 88.406 0 0 1 6.969 4.348l-8.698 8.988c-.675-.526-1.331-.978-2.017-1.546-1-.827-2.011-1.603-3.034-2.326zm16.998 11.602l8.71-6.94a97.59 97.59 0 0 1 4.559 4.699l-7.044 5.005a59.526 59.526 0 0 1-6.225-2.764zm-3.785-2.053a76.948 76.948 0 0 1-4.993-3.248l8.782-9.074a95.535 95.535 0 0 1 5.765 4.709l-9.554 7.613zm14.732 6.33l4.926-3.502a85.05 85.05 0 0 1 3.864 5.003c-2.451-.144-5.438-.603-8.79-1.501zm41.162-67.293c-3.504 23.462-22.305 31.238-27.903 33.054-4.706-10.586-12.507-19.492-17.7-22.182a1.998 1.998 0 0 0-2.672.846 1.984 1.984 0 0 0 .85 2.675c3.956 2.05 11.966 10.391 16.59 21.789 4.992 12.296 12.973 19.269 23.717 20.725 2.162.29 3.646 1.168 4.545 2.675 1.317 2.221 1.25 5.557.767 8.49-2.531-1.606-6.649-2.123-8.893-.403-1.4 1.069-1.799 2.768-1.075 4.545.49 1.204.717 5.521.937 9.699.633 12.09 1.436 21.598 5.407 24.815 1.146.93 2.527 1.311 3.956 1.069 7.839-1.239 10.701.424 12.568 3.31.113.175.46.708-.47 1.694-1.41 1.488-4.366 2.361-6.358 1.234-4.691-2.686-7.984-1.554-13.43.32-.953.325-1.996.682-3.146 1.059-5.407 1.746-10.985.878-15.472.175-1.317-.202-2.515-.387-3.561-.485-2.556-.243-4.886 1.028-7.14 2.262-2.729 1.493-5.306 2.923-8.343 1.999-1.41-.424-1.867-1.131-2.091-1.631-.667-1.491-.174-3.654.301-5.029 1.7-.3 3.23-.243 4.912-.069 2.427.243 5.19.531 8.671-.749a1.982 1.982 0 0 0 1.175-2.545c-.379-1.028-1.513-1.54-2.549-1.173-2.615.955-4.604.764-6.889.522-2.084-.211-4.434-.449-7.259.299-.431.114-1.082.181-1.581-.624-.656-1.053-.628-3.001.715-4.519 1.033-1.172 3.034-1.136 4.883-.744 1.035.578 2.352 1.053 4.054 1.379.971.206 1.934-.377 2.252-1.311a1.985 1.985 0 0 0-.991-2.411c-.15-.072-1.71-.837-3.788-1.363-1.095-.796-1.485-1.916-2.071-3.595l-.442-1.234c-.263-.703-.601-1.234-.971-1.637.953-.413 1.885-.599 2.792-.542 2.04.139 3.863 1.524 5.417 4.121 5.147 8.573 13.68 8.671 14.042 8.671.824 0 1.563-.511 1.854-1.281 6.414-16.95-2.161-33.336-2.531-34.028-.005-.011-.017-.017-.023-.027-.005-.009-.003-.02-.008-.029-.762-1.317-19.065-32.257-57.818-40.608-27.916-6.038-61.65 9.714-63.073 10.391a1.961 1.961 0 0 0-.819.712c-4.013 6.202-10.704 22.662-5.771 33.935 1.681 3.842 2.082 6.879 1.188 9.032-.599 1.441-1.766 2.597-3.752 3.667-.266-2.479-1.121-5.707-3.672-7.111-2.495-1.363-5.738-.604-9.647 2.268-9.252 6.802-22.452 22.868-21.249 29.825.295 1.71 1.366 2.923 3.014 3.419 1.593.476 3.556.883 5.621 1.307 4.085.842 8.903 1.828 11.042 3.6-5.768-.739-16.944-1.761-21.362.717-5.211 2.933-14.168 4.803-20.405 2.547-2.268-.945-7.344-1.694-10.295 2.303-1.1 1.492-2.828 1.901-3.943 1.524-1.297-.424-1.567-1.771-1.567-2.824 0-4.602 4.428-4.958 5.784-4.958a1.984 1.984 0 0 0 0-3.966c-3.038 0-5.536.989-7.252 2.674-1.585-.829-2.61-1.807-2.982-2.937-.508-1.544.222-3.146.705-3.961.918-1.561 2.544-2.389 3.54-2.791 2.252 2.114 4.871 3.628 6.186 4.205a2.002 2.002 0 0 0 2.613-1.023 1.987 1.987 0 0 0-1.023-2.613c-2.654-1.162-7.512-4.746-7.742-7.751-.086-1.1.93-1.937 1.978-2.2.757-.191 2.663-.341 3.809 2.309 2.899 6.709 12.33 11.429 12.73 11.625a1.99 1.99 0 0 0 2.21-.305c.839-.764 20.591-19.005 20.704-48.845.068-18.038 2.576-29.291 3.508-32.87 3.505-.169 12.465-1.248 20.512-7.419 2.329 4.126 8.24 12.137 19.119 12.41h.049a1.981 1.981 0 0 0 1.673-3.047c-.039-.062-3.085-4.938-2.391-9.141 2.5 2.412 7.052 5.675 13.539 5.908H264.161c.343 0 .651-.112.935-.268.129-.072.243-.127.35-.228.255-.22.44-.501.557-.826.011-.031.042-.045.052-.076.025-.088 2.771-8.728 10.602-12.772 5.002-2.588 11.033-2.747 17.951-.47.17.056.341.053.512.062.039.002.068.036.107.036.031 0 .061-.011.092-.013.052-.002.099-.014.151-.02.088-.011.176-.011.263-.035.061-.016.105-.059.163-.08.131-.048.249-.107.368-.181a1.84 1.84 0 0 0 .287-.213c.094-.086.171-.18.248-.283.077-.104.144-.207.199-.323.025-.054.07-.092.091-.149.264-.722 4.366-11.432 14.594-17.753.037.006.067.03.104.033.245.025 24.683 2.731 38.209 9.338 4.124 2.014 9.157 3.011 14.138 3.011 5.624 0 11.178-1.27 15.266-3.775 4.462-2.732 6.861-6.657 6.941-11.336.163-9.595-5.743-16.98-11.382-19.051-3.538-1.296-6.943-.517-9.097 2.112-2.681 3.264-2.523 7.494.377 10.06 3.008 2.665 8.565 3.089 14.124-1.828a18.147 18.147 0 0 1 1.522 4.146c-6.272 4.334-12.121 5.779-16.899 4.168-4.537-1.529-7.243-5.459-8.266-8.624-.803-2.484-.351-5.573 1.234-8.465 2.231-4.069 6.295-7.132 11.15-8.397 5.061-1.327 13.363-.186 19.632 5.444 4.658 4.172 9.742 12.233 7.544 26.932zm-18.157-18.531c-3.897 3.667-7.483 3.749-9.252 2.18-1.302-1.152-1.279-2.949.059-4.571.792-.966 1.774-1.291 2.727-1.291.687 0 1.361.17 1.939.382 1.569.578 3.148 1.725 4.527 3.3z"/></g><path d="M19.152 488.46C8.575 488.46 0 479.885 0 469.308V42.534C0 32.044 8.504 23.54 18.994 23.54h.157c10.577 0 19.152 8.575 19.152 19.152v426.617c0 10.576-8.575 19.151-19.151 19.151z" fill="#2e3033"/></svg>