<svg xmlns="http://www.w3.org/2000/svg" viewBox="0 0 512 512"><path d="M503.547 374.338H35.133a8.454 8.454 0 0 1-8.453-8.453V64.822a8.454 8.454 0 0 1 8.453-8.453h468.414A8.454 8.454 0 0 1 512 64.822v301.062a8.453 8.453 0 0 1-8.453 8.454z" fill="#f5f5f5"/><path d="M37.558 77.791l173.357 126.683H77.337l16.263 18.14L219.876 363.46H37.558V77.791m-7.957-19.288c-1.756 1.534-2.921 3.718-2.921 6.233V365.97a8.368 8.368 0 0 0 8.368 8.368h209.19L101.7 215.354h142.537L29.601 58.503z" fill="#41479b"/><path fill="#ff4b55" d="M37.558 77.791l173.357 126.684H77.337l16.263 18.14 126.276 140.844H37.558V77.791"/><g fill="#f5f5f5"><path d="M90.516 253.646l6.699 13.823 12.712-8.622a.812.812 0 0 1 1.265.73l-1.111 15.32 15.32-1.111a.811.811 0 0 1 .73 1.265l-8.621 12.712 13.823 6.699a.811.811 0 0 1 0 1.46l-13.823 6.699 8.621 12.712a.812.812 0 0 1-.73 1.265l-15.32-1.111 1.111 15.32a.811.811 0 0 1-1.265.73l-12.712-8.622-6.699 13.823a.811.811 0 0 1-1.46 0l-6.699-13.823-12.712 8.622a.812.812 0 0 1-1.265-.73l1.111-15.32L54.17 316.6a.811.811 0 0 1-.73-1.265l8.621-12.712-13.823-6.699a.811.811 0 0 1 0-1.46l13.823-6.699-8.621-12.712a.812.812 0 0 1 .73-1.265l15.32 1.111-1.111-15.32a.811.811 0 0 1 1.265-.73l12.712 8.622 6.699-13.823a.812.812 0 0 1 1.461-.002zM107.908 173.704l-5.816-3.973 5.119-5.366-7.296-1.331 2.495-6.983-7.206 1.752-.561-7.394-5.871 4.531-3.521-6.527-3.521 6.527-5.871-4.531-.561 7.394-7.206-1.752 2.495 6.983-7.295 1.331 5.119 5.366-5.816 3.973a53.866 53.866 0 0 1-18.866-14.623c3.411 19.869 20.678 35.004 41.522 35.004s38.111-15.136 41.522-35.004c-5.076 6.191-11.528 11.197-18.865 14.623z"/></g><path d="M19.152 488.46C8.575 488.46 0 479.885 0 469.308V42.534C0 32.044 8.504 23.54 18.994 23.54h.157c10.577 0 19.152 8.575 19.152 19.152v426.617c0 10.576-8.575 19.151-19.151 19.151z" fill="#2e3033"/></svg>