<svg xmlns="http://www.w3.org/2000/svg" viewBox="0 0 512 512"><g fill="#ff4b55"><path d="M512 123.309H26.68V64.821a8.454 8.454 0 0 1 8.453-8.453h468.414A8.454 8.454 0 0 1 512 64.821v58.488zM503.547 374.337H35.133a8.454 8.454 0 0 1-8.453-8.453v-58.488H512v58.488a8.453 8.453 0 0 1-8.453 8.453z"/></g><path fill="#f5f5f5" d="M26.68 123.307H512v184.09H26.68z"/><path d="M287.219 271.638l77.33-15.466c5.581-1.116 8.073-7.685 4.635-12.221a7.719 7.719 0 0 0-4.96-2.964l-82.382-12.844a4.215 4.215 0 0 1-3.507-4.857c.371-2.289 2.69-3.746 4.988-3.444l57.12 7.516c4.643.611 7.489-4.937 4.288-8.353l-4.586-4.891a11.926 11.926 0 0 0-6.432-3.551l-47.716-9.24 40.685 2.931c3.119.225 4.925-3.462 2.837-5.789l-2.087-2.325a8.865 8.865 0 0 0-4.785-2.757l-40.392-8.441 28.707-.831c2.538-.074 3.829-3.083 2.133-4.973l-1.287-1.434a8.031 8.031 0 0 0-3.763-2.356l-25.602-7.35h20.119c1.991 0 3.329-2.039 2.538-3.865l-.678-1.566a7.26 7.26 0 0 0-4.322-3.986l-18.606-6.33 9.15-.03c2.72-.008 4.544-2.797 3.462-5.292a9.527 9.527 0 0 0-4.353-4.667l-20.411-10.582-20.412 10.582a9.51 9.51 0 0 0-4.353 4.667c-1.081 2.496.743 5.283 3.462 5.292l9.15.03-18.607 6.33a7.257 7.257 0 0 0-4.322 3.986l-.678 1.566c-.791 1.826.547 3.865 2.538 3.865h20.119l-25.602 7.35a8.031 8.031 0 0 0-3.763 2.356l-1.287 1.434c-1.696 1.889-.405 4.9 2.133 4.973l28.707.831-40.393 8.441a8.871 8.871 0 0 0-4.786 2.757l-2.087 2.325c-2.089 2.328-.282 6.013 2.837 5.789l40.685-2.931-47.716 9.24a11.932 11.932 0 0 0-6.432 3.551l-4.585 4.891c-3.203 3.416-.355 8.963 4.288 8.353l57.12-7.516c2.298-.302 4.617 1.155 4.988 3.444a4.214 4.214 0 0 1-3.507 4.857l-82.382 12.844a7.715 7.715 0 0 0-4.96 2.964c-3.437 4.536-.945 11.105 4.635 12.221l77.33 15.466v9.65a19.866 19.866 0 0 1-5.819 14.047l-12.06 12.06h71.518l-12.06-12.06a19.866 19.866 0 0 1-5.819-14.047v-9.65h-.003z" fill="#73af00"/><path d="M19.152 488.46C8.575 488.46 0 479.884 0 469.307V42.534C0 32.044 8.504 23.54 18.994 23.54h.157c10.577 0 19.152 8.575 19.152 19.152V469.31c0 10.574-8.575 19.15-19.151 19.15z" fill="#2e3033"/></svg>