<svg xmlns="http://www.w3.org/2000/svg" viewBox="0 0 512 512"><path d="M512 162.357H26.68V64.821a8.454 8.454 0 0 1 8.453-8.453h468.414A8.454 8.454 0 0 1 512 64.821v97.536z" fill="#ff4b55"/><path d="M503.547 374.337H35.133a8.454 8.454 0 0 1-8.453-8.453v-97.537H512v97.536a8.453 8.453 0 0 1-8.453 8.454z" fill="#464655"/><path fill="#f5f5f5" d="M26.68 162.357H512v105.99H26.68z"/><g fill="#73af00"><path d="M168.892 184.369l6.976 20.918 22.05.171c2.855.022 4.038 3.665 1.742 5.361l-17.739 13.099 6.652 21.024c.861 2.722-2.238 4.974-4.56 3.314l-17.94-12.822-17.94 12.822c-2.322 1.66-5.422-.592-4.56-3.314l6.652-21.024-17.739-13.099c-2.296-1.696-1.113-5.339 1.742-5.361l22.05-.171 6.977-20.918c.903-2.708 4.735-2.708 5.637 0zM375.425 184.369l6.976 20.918 22.05.171c2.855.022 4.038 3.665 1.742 5.361l-17.739 13.099 6.652 21.024c.861 2.722-2.238 4.974-4.56 3.314l-17.94-12.822-17.94 12.822c-2.322 1.66-5.422-.592-4.56-3.314l6.652-21.024-17.739-13.099c-2.296-1.696-1.113-5.339 1.742-5.361l22.05-.171 6.976-20.918c.905-2.708 4.735-2.708 5.638 0z"/></g><path d="M19.152 488.46C8.575 488.46 0 479.884 0 469.307V42.534C0 32.044 8.504 23.54 18.994 23.54h.157c10.577 0 19.152 8.575 19.152 19.152V469.31c0 10.574-8.575 19.15-19.151 19.15z" fill="#2e3033"/></svg>