<svg xmlns="http://www.w3.org/2000/svg" viewBox="0 0 512.001 512.001"><path d="M503.524 374.658H28.87a8.476 8.476 0 0 1-8.476-8.476V61.047a8.476 8.476 0 0 1 8.476-8.476h474.655a8.476 8.476 0 0 1 8.476 8.476v305.135a8.477 8.477 0 0 1-8.477 8.476z" fill="#73af00"/><g fill="#ffe15a"><path d="M292.713 263.202c-27.386 0-49.588-22.201-49.588-49.588s22.201-49.588 49.588-49.588c3.634 0 7.155.435 10.549 1.214 1.353.31 2.07-1.506.89-2.237-10.385-6.439-22.891-9.778-36.241-8.692-29.058 2.364-52.419 26.053-54.397 55.14-2.364 34.747 25.122 63.667 59.364 63.667a59.143 59.143 0 0 0 31.276-8.896c1.18-.732.466-2.547-.888-2.237a46.969 46.969 0 0 1-10.553 1.217zM335.934 171.628l3.724 9.433 9.697-2.97a.621.621 0 0 1 .72.904l-5.053 8.793 8.368 5.73a.62.62 0 0 1-.257 1.126l-10.025 1.532.737 10.114a.62.62 0 0 1-1.04.501l-7.447-6.882-7.447 6.882a.62.62 0 0 1-1.04-.501l.737-10.114-10.025-1.532a.62.62 0 0 1-.257-1.126l8.368-5.73-5.053-8.793a.621.621 0 0 1 .72-.904l9.697 2.97 3.724-9.433a.618.618 0 0 1 1.152 0zM471.55 146.2l3.724 9.433 9.697-2.97a.621.621 0 0 1 .72.904l-5.053 8.793 8.368 5.73a.62.62 0 0 1-.257 1.126l-10.025 1.532.737 10.114a.62.62 0 0 1-1.04.501l-7.447-6.882-7.447 6.882a.62.62 0 0 1-1.04-.501l.737-10.114-10.025-1.532a.62.62 0 0 1-.257-1.126l8.368-5.73-5.053-8.793a.621.621 0 0 1 .72-.904l9.697 2.97 3.724-9.433c.203-.525.945-.525 1.152 0zM403.742 85.051l3.724 9.433 9.697-2.97a.621.621 0 0 1 .72.904l-5.053 8.793 8.368 5.73a.62.62 0 0 1-.257 1.126l-10.025 1.532.737 10.114a.62.62 0 0 1-1.04.501l-7.447-6.882-7.447 6.882a.62.62 0 0 1-1.04-.501l.737-10.114-10.025-1.532a.62.62 0 0 1-.257-1.126l8.368-5.73-5.053-8.793a.621.621 0 0 1 .72-.904l9.697 2.97 3.724-9.433a.619.619 0 0 1 1.152 0zM403.742 307.243l3.724 9.433 9.697-2.97a.621.621 0 0 1 .72.904l-5.053 8.793 8.368 5.73a.62.62 0 0 1-.257 1.126l-10.025 1.532.737 10.114a.62.62 0 0 1-1.04.501l-7.447-6.882-7.447 6.882a.62.62 0 0 1-1.04-.501l.737-10.114-10.025-1.532a.62.62 0 0 1-.257-1.126l8.368-5.73-5.053-8.793a.621.621 0 0 1 .72-.904l9.697 2.97 3.724-9.433c.204-.523.945-.523 1.152 0zM431.496 180.164l2.6 7.795 8.216.064c.637.005.901.817.389 1.195l-6.61 4.881 2.478 7.834c.192.607-.499 1.109-1.017.738l-6.685-4.778-6.685 4.778c-.518.37-1.209-.131-1.017-.738l2.478-7.834-6.61-4.881c-.512-.378-.248-1.191.389-1.195l8.216-.064 2.6-7.795c.203-.604 1.057-.604 1.258 0z"/><circle cx="109.39" cy="141.57" r="55.09"/></g><path d="M103.726 184.492h14.878s8.454-37.873.676-51.399l-4.734 3.043c0 .001 7.778 26.038-10.82 48.356z" fill="#964b50"/><path d="M104.288 134.784s-8.566 5.861-5.861 23.22c0 0 6.537-5.411 10.145-17.359 0 0-5.185 9.919 2.029 17.809 0 0 7.664-10.821 6.537-20.289 0 0 25.482 26.61 20.064 19.838-.902-1.127 1.353-12.399-7.44-21.641 0 0 14.428 3.607 19.838 2.255 0 0 .451-11.498-13.301-13.527l3.156-9.017s-10.595-.676-16.231 4.734c0 0-1.353-13.977 4.284-20.74 0 0-16.682-2.48-17.359 19.388 0 0-6.087-13.977-24.797-10.595 0 0 10.595 7.664 12.399 11.046 0 0-14.878-10.145-21.867 4.058 0 0 11.948-3.156 16.231 2.48 0 0-19.162-2.029-20.74 14.428 0-.002 17.81-8.343 32.913-6.088z" fill="#73af00"/><path d="M19.203 489.089C8.598 489.089 0 480.492 0 469.886V41.957c0-10.519 8.527-19.045 19.045-19.045h.158c10.606 0 19.203 8.598 19.203 19.203v427.771c.001 10.606-8.597 19.203-19.203 19.203z" fill="#2e3033"/></svg>