<svg xmlns="http://www.w3.org/2000/svg" viewBox="0 0 512 512"><g fill="#4173cd"><path d="M512 162.357H26.68V64.821a8.454 8.454 0 0 1 8.453-8.453h468.414A8.454 8.454 0 0 1 512 64.821v97.536zM503.547 374.337H35.133a8.454 8.454 0 0 1-8.453-8.453v-97.537H512v97.536a8.453 8.453 0 0 1-8.453 8.454z"/></g><path fill="#f5f5f5" d="M26.68 162.357H512v105.99H26.68z"/><g fill="#4173cd"><path d="M270.55 201.682l2.995 8.979 9.465.074c1.226.01 1.734 1.573.748 2.301l-7.614 5.622 2.855 9.025c.37 1.169-.96 2.135-1.958 1.422l-7.701-5.504-7.701 5.504c-.997.712-2.328-.254-1.958-1.422l2.855-9.025-7.614-5.622c-.986-.728-.478-2.292.748-2.301l9.465-.074 2.995-8.979c.388-1.162 2.032-1.162 2.42 0zM185.076 225.781l2.995 8.979 9.465.073c1.226.01 1.734 1.573.748 2.301l-7.614 5.622 2.855 9.025c.37 1.169-.96 2.135-1.958 1.422l-7.701-5.504-7.701 5.504c-.997.712-2.327-.254-1.958-1.422l2.855-9.025-7.614-5.622c-.986-.728-.478-2.292.748-2.301l9.465-.073 2.995-8.979c.388-1.162 2.033-1.162 2.42 0zM185.076 177.583l2.995 8.979 9.465.073c1.226.01 1.734 1.573.748 2.301l-7.614 5.622 2.855 9.025c.37 1.169-.96 2.134-1.958 1.422l-7.701-5.504-7.701 5.504c-.997.712-2.327-.254-1.958-1.422l2.855-9.025-7.614-5.622c-.986-.728-.478-2.292.748-2.301l9.465-.073 2.995-8.979c.388-1.162 2.033-1.162 2.42 0zM356.023 225.781l2.995 8.979 9.465.073c1.226.01 1.734 1.573.748 2.301l-7.614 5.622 2.855 9.025c.37 1.169-.96 2.135-1.958 1.422l-7.701-5.504-7.701 5.504c-.996.712-2.327-.254-1.958-1.422l2.855-9.025-7.614-5.622c-.986-.728-.478-2.292.748-2.301l9.465-.073 2.995-8.979c.388-1.162 2.033-1.162 2.42 0zM356.023 177.583l2.995 8.979 9.465.073c1.226.01 1.734 1.573.748 2.301l-7.614 5.622 2.855 9.025c.37 1.169-.96 2.134-1.958 1.422l-7.701-5.504-7.701 5.504c-.996.712-2.327-.254-1.958-1.422l2.855-9.025-7.614-5.622c-.986-.728-.478-2.292.748-2.301l9.465-.073 2.995-8.979c.388-1.162 2.033-1.162 2.42 0z"/></g><path d="M19.152 488.46C8.575 488.46 0 479.884 0 469.307V42.534C0 32.044 8.504 23.54 18.994 23.54h.157c10.577 0 19.152 8.575 19.152 19.152V469.31c0 10.574-8.575 19.15-19.151 19.15z" fill="#2e3033"/></svg>