<svg xmlns="http://www.w3.org/2000/svg" viewBox="0 0 512 512"><path d="M503.524 374.657H28.871a8.476 8.476 0 0 1-8.476-8.476V61.048a8.476 8.476 0 0 1 8.476-8.476h474.653A8.476 8.476 0 0 1 512 61.048v305.133a8.476 8.476 0 0 1-8.476 8.476z" fill="#41479b"/><path d="M257.721 52.572h-14.723l-78.513 51.439V52.572h-42.38v51.439L43.594 52.572H28.871a8.476 8.476 0 0 0-8.476 8.476v6.724l67.36 44.132h-67.36v42.38h67.36l-67.36 44.132v6.724a8.476 8.476 0 0 0 8.476 8.476h14.723l78.513-51.439v51.439h42.38v-51.439L243 213.616h14.723a8.476 8.476 0 0 0 8.476-8.476v-6.724l-67.36-44.132h67.36v-42.38h-67.36l67.36-44.132v-6.724a8.478 8.478 0 0 0-8.478-8.476z" fill="#f5f5f5"/><g fill="#ff4b55"><path d="M266.197 120.379H156.01V52.572h-25.428v67.807H20.395v25.428h110.187v67.808h25.428v-67.808h110.187z"/><path d="M113.63 111.903L24.435 54.004c-2.374 1.501-4.04 4.026-4.04 7.043v.44l77.667 50.416h15.568zM180.054 111.903l84.854-55.081c-1.475-2.495-4.077-4.251-7.187-4.251h-1.833l-91.402 59.331 15.568.001zM106.305 154.283l-84.691 54.975c1.459 2.557 4.102 4.357 7.258 4.357h1.599l91.403-59.331-15.569-.001zM266.063 205.804l-79.373-51.521h-15.568l90.134 58.507c2.7-1.253 4.552-3.879 4.807-6.986z"/></g><path d="M335.914 152.801c-1.137 15.15-5.838 111.423 55.244 133.186 61.104-21.769 56.383-118.039 55.244-133.186-7.401 2.901-34.191 11.694-55.244-3.291-21.052 14.981-47.838 6.195-55.244 3.291z" fill="#f5f5f5"/><g fill="#ffa028"><path d="M421.171 172.223c-3.349-2.604-9.549 2.232-16.495 1.737-6.442-.46-14.38-6.983-24.699-4.171-2.851-2.625-1.471-8.727-1.471-8.727-7.164 4.631-7.677 10.97-7.227 14.408-5.108 6.75-4.763 17.05-3.811 20.194 1.24 4.093 3.597 4.589 3.969 9.177.372 4.589 2.108 2.976 2.108 2.976 3.587-2.012 4.109-5.807 5.617-12.018 5.828.744 9.637-4.476 9.637-4.476-3.824 1.199-6.235-.908-7.55-2.764.206-.613.37-1.179.605-1.824 4.341-11.907 25.112-8.633 27.037-5.333 3.473 5.953 8.062 8.186 8.062 8.186 0-6.206-4.589-11.658-4.589-11.658 6.946-1.242 8.807-5.707 8.807-5.707zm-49.981 25.549a1.24 1.24 0 1 1 0-2.481 1.24 1.24 0 0 1 0 2.481z"/><path d="M400.718 248.41c4.044-1.28 3.58-9.131 7.929-14.568 4.034-5.043 13.909-7.879 17.448-17.972 3.779-.858 8.02 3.74 8.02 3.74.251-8.527-4.678-12.545-7.765-14.126-2.66-8.036-11.338-13.596-14.467-14.596-4.074-1.301-5.819.358-9.809-1.939s-3.648.048-3.648.048c-.378 4.096 2.451 6.678 6.71 11.445-3.919 4.377-1.781 10.476-1.781 10.476 1.181-3.83 4.286-4.619 6.56-4.649.389.517.762.974 1.159 1.533 7.342 10.329-7.138 25.577-10.948 25.29-6.873-.518-11.314 1.995-11.314 1.995 5.111 3.521 12.203 2.835 12.203 2.835-2.918 6.423-.297 10.488-.297 10.488zm7.318-55.653a1.24 1.24 0 1 1 2.043 1.407 1.24 1.24 0 0 1-2.043-1.407z"/><path d="M346.039 193.283c-.541 4.207 6.776 7.089 9.879 13.323 2.878 5.781 1.295 15.934 8.961 23.39-.812 3.79-6.768 5.702-6.768 5.702 7.629 3.816 13.35 1.036 16.082-1.1 8.41.968 17.105-4.563 19.328-6.982 2.895-3.148 2.124-5.43 5.887-8.083 3.763-2.653 1.492-3.329 1.492-3.329-3.557-2.067-7.089-.587-13.205 1.27-2.321-5.397-8.754-6.024-8.754-6.024 2.977 2.684 2.387 5.831 1.457 7.907-.633.135-1.204.281-1.879.407-12.46 2.313-20.198-17.239-18.334-20.573 3.362-6.017 2.952-11.103 2.952-11.103-5.345 3.154-7.708 9.878-7.708 9.878-4.599-5.351-9.39-4.683-9.39-4.683zm47.406 30.059c.349.59.153 1.351-.438 1.698-.59.349-1.35.153-1.698-.438a1.24 1.24 0 1 1 2.136-1.26z"/></g><path d="M391.158 289.14l-.488-.168c-68.78-23.925-57.666-137.34-57.546-138.485l.215-2.049 1.88.852c.324.148 32.235 14.301 55.047-2.814l.892-.669.892.669c22.846 17.138 54.728 2.959 55.046 2.814l1.881-.855.215 2.052c.121 1.145 11.235 114.56-57.546 138.485l-.488.168zm-55.244-136.339c-1.137 15.15-5.838 111.423 55.244 133.186 61.104-21.769 56.383-118.039 55.244-133.186-7.401 2.901-34.191 11.694-55.244-3.291-21.052 14.981-47.838 6.195-55.244 3.291z" fill="#cdce0c"/><path d="M352.849 251.846c8.342 15.13 20.522 27.803 38.309 34.14 17.791-6.338 29.974-19.012 38.318-34.14h-76.627z" fill="#82afff"/><path d="M19.203 489.087C8.598 489.087 0 480.49 0 469.884V41.958c0-10.519 8.527-19.045 19.045-19.045h.158c10.606 0 19.203 8.598 19.203 19.203v427.768c.001 10.606-8.597 19.203-19.203 19.203z" fill="#2e3033"/></svg>