<svg xmlns="http://www.w3.org/2000/svg" viewBox="0 0 512.001 512.001"><path d="M252.605 374.338H35.133a8.454 8.454 0 0 1-8.453-8.453V64.822a8.454 8.454 0 0 1 8.453-8.453h217.472v317.969z" fill="#f5f5f5"/><path d="M503.632 56.369H185.331c.221 0 .441.033.652.098l50.604 15.463c2.108.643 2.106 3.628-.002 4.271l-43.92 13.373c-2.108.642-2.11 3.626-.002 4.271l43.925 13.424c2.108.643 2.106 3.628-.002 4.27l-43.921 13.374c-2.108.642-2.11 3.626-.002 4.271l43.925 13.424c2.108.643 2.106 3.628-.002 4.27l-43.908 13.369c-2.11.643-2.11 3.63 0 4.272l43.908 13.369c2.108.642 2.11 3.626.002 4.271l-43.925 13.424c-2.108.645-2.106 3.63.002 4.271l43.921 13.373c2.108.641 2.11 3.626.002 4.271l-43.925 13.424c-2.108.645-2.106 3.628.002 4.271l43.921 13.373c2.108.641 2.11 3.626.002 4.27l-43.925 13.424c-2.108.645-2.106 3.63.002 4.271l43.92 13.374c2.108.641 2.11 3.626.002 4.27l-43.924 13.422c-2.108.645-2.106 3.628.002 4.271l43.909 13.371c2.109.641 2.109 3.628 0 4.27l-43.909 13.371c-2.108.641-2.11 3.626-.002 4.27l43.925 13.424c2.108.644 2.106 3.628-.002 4.27l-50.603 15.408c-.21.064-.43.097-.65.097h318.301a8.367 8.367 0 0 0 8.367-8.368V64.737a8.37 8.37 0 0 0-8.369-8.368z" fill="#873250"/><path d="M19.152 488.46C8.575 488.46 0 479.885 0 469.308V42.534C0 32.044 8.504 23.54 18.994 23.54h.157c10.577 0 19.152 8.575 19.152 19.152v426.617c0 10.576-8.575 19.151-19.151 19.151z" fill="#2e3033"/></svg>