<svg xmlns="http://www.w3.org/2000/svg" viewBox="0 0 512 512"><path d="M503.56 374.155H35.87a8.44 8.44 0 0 1-8.44-8.44V65.118a8.44 8.44 0 0 1 8.44-8.44h467.69a8.44 8.44 0 0 1 8.44 8.44v300.597a8.44 8.44 0 0 1-8.44 8.44z" fill="#ff4b55"/><g fill="#ffe15a"><path d="M107.884 106.323l7.965 23.882 25.175.195c3.259.025 4.61 4.185 1.989 6.121l-20.252 14.955 7.594 24.002c.983 3.108-2.555 5.678-5.206 3.783l-20.482-14.639-20.481 14.639c-2.651 1.895-6.19-.675-5.206-3.783l7.594-24.002-20.252-14.955c-2.622-1.936-1.27-6.096 1.989-6.121l25.175-.195 7.965-23.882c1.028-3.092 5.402-3.092 6.433 0zM199.3 112.208l5.711 7.788 9.218-2.882c1.193-.373 2.175.987 1.444 2.002l-5.642 7.838 5.589 7.876c.724 1.019-.267 2.374-1.458 1.993l-9.198-2.943-5.763 7.75c-.746 1.003-2.34.479-2.345-.771l-.042-9.658-9.151-3.086c-1.185-.4-1.179-2.077.008-2.469l9.172-3.025.108-9.656c.012-1.252 1.609-1.766 2.349-.757zM164.527 88.992l9.602 1.043 4.096-8.746c.531-1.132 2.197-.938 2.453.286l1.974 9.454 9.584 1.192c1.241.154 1.571 1.799.486 2.42l-8.381 4.799 1.827 9.483c.236 1.228-1.226 2.05-2.152 1.21l-7.154-6.487-8.454 4.668c-1.095.605-2.328-.533-1.816-1.673l3.959-8.808-7.053-6.598c-.913-.852-.214-2.378 1.029-2.243zM179.705 182.587l-5.711 7.788-9.218-2.882c-1.193-.373-2.175.987-1.444 2.002l5.642 7.838-5.589 7.876c-.724 1.02.267 2.374 1.458 1.993l9.198-2.943 5.763 7.75c.746 1.003 2.34.48 2.345-.771l.042-9.658 9.151-3.086c1.185-.4 1.179-2.077-.008-2.469L182.163 193l-.108-9.658c-.013-1.25-1.61-1.763-2.35-.755zM214.478 160.772l-9.601 1.043-4.096-8.746c-.531-1.132-2.197-.938-2.452.286l-1.974 9.454-9.584 1.192c-1.241.154-1.571 1.8-.486 2.42l8.381 4.799-1.827 9.483c-.236 1.228 1.226 2.05 2.152 1.21l7.154-6.488 8.454 4.668c1.095.605 2.328-.532 1.816-1.672l-3.959-8.808 7.053-6.598c.911-.854.212-2.378-1.031-2.243z"/></g><path d="M19.122 488.1C8.561 488.1 0 479.539 0 468.979V42.864C0 32.39 8.491 23.9 18.965 23.9h.157c10.561 0 19.122 8.561 19.122 19.122V468.98c0 10.559-8.561 19.12-19.122 19.12z" fill="#2e3033"/></svg>