<svg xmlns="http://www.w3.org/2000/svg" viewBox="0 0 512 512"><path d="M512 215.354H26.68V64.822a8.454 8.454 0 0 1 8.453-8.453h468.414A8.454 8.454 0 0 1 512 64.822v150.532z" fill="#ff4b55"/><path d="M26.68 215.354H512v150.531a8.454 8.454 0 0 1-8.453 8.453H35.133a8.454 8.454 0 0 1-8.453-8.453V215.354z" fill="#f5f5f5"/><path d="M19.152 488.46C8.575 488.46 0 479.885 0 469.308V42.534C0 32.044 8.504 23.54 18.994 23.54h.157c10.577 0 19.152 8.575 19.152 19.152v426.617c0 10.576-8.575 19.151-19.151 19.151z" fill="#2e3033"/></svg>