<svg xmlns="http://www.w3.org/2000/svg" viewBox="0 0 512 512"><path d="M503.525 374.645H28.924a8.476 8.476 0 0 1-8.475-8.475V61.069a8.476 8.476 0 0 1 8.475-8.475h474.601A8.476 8.476 0 0 1 512 61.069V366.17a8.476 8.476 0 0 1-8.475 8.475z" fill="#4173cd"/><g fill="#ffe15a"><path d="M20.448 272.95h491.55v16.95H20.448zM20.448 306.85h491.55v16.95H20.448z"/></g><path fill="#ff4b55" d="M83.075 136.759L51.539 125.99l31.536-10.768 10.769-31.533 10.768 31.533 31.536 10.768-31.536 10.769-10.768 31.532z"/><path d="M93.844 89.356l9.326 27.309 27.309 9.326-27.309 9.326-9.326 27.309-9.326-27.309-27.308-9.327 27.309-9.326 9.325-27.308m0-11.337l-3.467 10.152-8.744 25.607-25.607 8.744-10.152 3.466 10.152 3.466 25.607 8.744 8.744 25.607 3.467 10.152 3.467-10.152 8.744-25.607 25.607-8.744 10.152-3.466-10.152-3.466-25.607-8.744-8.744-25.608-3.467-10.151z" fill="#f5f5f5"/><path d="M19.201 489.063C8.597 489.063 0 480.466 0 469.862V41.982c0-10.517 8.526-19.044 19.043-19.044h.158c10.604 0 19.201 8.597 19.201 19.201v427.723c0 10.604-8.596 19.201-19.201 19.201z" fill="#2e3033"/></svg>