<svg xmlns="http://www.w3.org/2000/svg" viewBox="0 0 512 512"><path d="M503.537 382.938H32.807a8.463 8.463 0 0 1-8.463-8.463V71.902a8.463 8.463 0 0 1 8.463-8.463h470.73A8.463 8.463 0 0 1 512 71.902v302.572a8.463 8.463 0 0 1-8.463 8.464z" fill="#82afff"/><g fill="#f5f5f5"><path d="M267.064 109.437l-6.477 19.422-20.474.159c-1.122.008-1.588 1.441-.684 2.108l16.47 12.162-6.176 19.521c-.339 1.071.88 1.955 1.793 1.303l16.656-11.905 16.656 11.905c.913.653 2.132-.233 1.793-1.303l-6.176-19.521 16.47-12.162c.903-.666.438-2.099-.684-2.108l-20.473-.159-6.477-19.422c-.356-1.066-1.862-1.066-2.217 0zM267.064 282.842l-6.477 19.422-20.474.159c-1.122.008-1.588 1.441-.684 2.108l16.47 12.162-6.176 19.521c-.339 1.071.88 1.955 1.793 1.303l16.656-11.905 16.656 11.905c.913.653 2.132-.233 1.793-1.302l-6.176-19.521 16.47-12.162c.903-.666.438-2.099-.684-2.108l-20.473-.159-6.477-19.422c-.356-1.066-1.862-1.066-2.217-.001zM381.923 222.081l-19.422-6.477-.159-20.473c-.008-1.122-1.441-1.588-2.108-.686l-12.162 16.47-19.521-6.176c-1.071-.339-1.956.88-1.303 1.793l11.905 16.656-11.905 16.656c-.653.913.233 2.132 1.303 1.793l19.521-6.176 12.162 16.47c.666.903 2.099.438 2.108-.684l.159-20.474 19.422-6.477c1.066-.354 1.066-1.861 0-2.215zM154.42 222.081l19.422-6.477.159-20.473c.008-1.122 1.441-1.588 2.108-.686l12.162 16.47 19.521-6.176c1.071-.339 1.955.88 1.302 1.793l-11.905 16.656 11.905 16.656c.653.913-.233 2.132-1.303 1.793l-19.521-6.176-12.162 16.47c-.666.903-2.099.438-2.108-.684l-.159-20.474-19.422-6.477c-1.064-.354-1.064-1.861.001-2.215z"/></g><path d="M19.174 488.729C8.585 488.729 0 480.145 0 469.555V42.287c0-10.502 8.514-19.016 19.016-19.016h.158c10.589 0 19.174 8.585 19.174 19.174v427.111c-.001 10.589-8.585 19.173-19.174 19.173z" fill="#2e3033"/></svg>