<svg xmlns="http://www.w3.org/2000/svg" viewBox="0 0 512.1 512.1"><path d="M503.6 373.9H35.4c-4.6 0-8.4-3.7-8.4-8.4v-301c0-4.6 3.7-8.4 8.4-8.4h468.3c4.6 0 8.4 3.7 8.4 8.4v301c-.1 4.6-3.8 8.4-8.5 8.4z" fill="#41479b"/><path d="M263.1 56.1h-14.5l-77.5 50.7V56.1h-41.8v50.7L51.9 56.1H37.4c-4.6 0-8.4 3.7-8.4 8.4v6.6l66.5 43.5H29v41.8h66.5L29 200v6.6c0 4.6 3.7 8.4 8.4 8.4h14.5l77.5-50.7V215h41.8v-50.7l77.5 50.7h14.5c4.6 0 8.4-3.7 8.4-8.4V200L205 156.5h66.5v-41.8H205l66.5-43.5v-6.6c0-4.7-3.7-8.5-8.4-8.5z" fill="#f5f5f5"/><g fill="#ff4b55"><path d="M271.5 123H162.8V56.1h-25.1V123H29v25.1h108.7V215h25.1v-66.9h108.7z"/><path d="M121 114.7L33 57.5c-2.3 1.5-4 4-4 6.9v.4l76.6 49.7H121v.2zM186.5 114.7l83.7-54.3c-1.5-2.5-4-4.2-7.1-4.2h-1.8l-90.2 58.5h15.4zM113.8 156.5l-83.6 54.2c1.4 2.5 4 4.3 7.2 4.3H39l90.2-58.5h-15.4zM271.4 207.3l-78.3-50.8h-15.4l88.9 57.7c2.7-1.2 4.5-3.8 4.8-6.9z"/></g><g fill="#ffe15a"><path d="M390.6 135.6s-3.5-14-14-21c0 0 10.5 17.5 10.5 31.5l3.5-10.5z"/><path d="M374.4 120.4s7.3 4.5 11.3 11.8l-3.2 7.3c0 .1-2.6-10.3-8.1-19.1z"/><path d="M366.3 122.1S379 126 385 134.2l-3.6 5.5s-4.8-9.3-15.1-17.6z"/><path d="M364.5 128.4s13.3 2.1 19.3 8.4l-1.5 6s-7.3-8.7-17.8-14.4z"/><path d="M364.9 132.8s12.9 1.3 18.8 8.1-2.2 4.7-2.2 4.7-6.8-7.8-16.6-12.8zM390.6 135.6s3.5-14 14-21c0 0-10.5 17.5-10.5 31.5l-3.5-10.5z"/><path d="M406.8 120.4s-7.3 4.5-11.3 11.8l3.2 7.3c0 .1 2.6-10.3 8.1-19.1z"/><path d="M414.8 122.1s-12.7 3.9-18.7 12.1l3.6 5.5c.1 0 4.9-9.3 15.1-17.6z"/><path d="M416.7 128.4s-13.3 2.1-19.3 8.4l1.5 6s7.3-8.7 17.8-14.4z"/><path d="M416.3 132.8s-12.9 1.3-18.8 8.1 2.2 4.7 2.2 4.7 6.7-7.8 16.6-12.8zM390.6 114.7s-3.5 7.4 0 11c3.5-3.7 0-11 0-11z"/><path d="M387.1 116.5s-.5 8.1 4.2 10.2c1.8-4.7-4.2-10.2-4.2-10.2z"/><path d="M394.1 116.5s.5 8.1-4.2 10.2c-1.8-4.7 4.2-10.2 4.2-10.2z"/><path d="M395.2 121.2s-3.1 7.6-8.1 7.5c.3-5.1 8.1-7.5 8.1-7.5z"/><path d="M386 121.2s3.1 7.6 8.1 7.5c-.4-5.1-8.1-7.5-8.1-7.5z"/></g><ellipse cx="390.6" cy="139.1" rx="10.5" ry="14" fill="#ffd255"/><g fill="#73af00"><path d="M366.6 153.4l-2.4-3.7s-7 1.7-8.7-3.6l-2.7-.2s.4-3.6 3.5-4.1c0 0 1.9-2.3 5.2-1.9 3.4.4 5.1 3.3 7 4s2.1 3.1 2.1 3.1l14.7 15.1s-4.2 5.4-8 7.1c-3.6 1.8-17.5-6.7-10.7-15.8zM414.4 156.2s6.1 4.2 6.3 15.6h-10.2s.1-7.8-1.9-11.9l5.8-3.7z"/><path d="M413.1 156.6s7.6 2.5 12.3-3.5l-8-1.1-4.3 4.6z"/><path d="M410.8 148.2l7.8 2.6c1 .3 1.3 1.5.6 2.3-2.9 3.3-11.7 11.3-25.9 11.3-18.5 0-23.2-11.6-23.5-12.5-.2-.9-1.2-8-1.2-8l7.9-.9 34.3 5.2z"/></g><g fill="#ff4b55"><path d="M335.3 255.2h20.3l-10.5 20.3-10.5-14zM445.9 255.2h-20.3l10.4 20.3 10.5-14z"/></g><g fill="#ffd25a"><path d="M335.2 289.5c-10 0-17.7-5.4-18.1-5.7l8.1-11.4c.1 0 6.8 4.6 13.8 2.6 7-2.1 11.6-10.4 14.2-16.9l13 5.2c-5.5 13.8-13.4 22.2-23.4 25.2-2.7.7-5.2 1-7.6 1zM446 289.5c10 0 17.7-5.4 18.1-5.7l-8.1-11.4c-.1 0-6.8 4.6-13.8 2.6-7-2.1-11.6-10.4-14.2-16.9l-13 5.2c5.5 13.8 13.4 22.2 23.4 25.2 2.6.7 5.2 1 7.6 1z"/></g><path d="M436 216.1h-90.9v-33.6c0-4.6 3.7-8.4 8.4-8.4h74.2c4.6 0 8.4 3.7 8.4 8.4v33.6h-.1z" fill="#ff4b55"/><g fill="#ffe15a"><path d="M369.9 198.6l-1.1-7c-5.1-.2-8.1-6.2-8.1-6.2l-4.2 2.3c4.5 10.4 13.4 10.9 13.4 10.9z"/><path d="M424.7 191.4c1.5-1.2 4.9-1.6 4.9-1.6-2.4-2.5-5-.7-5-.7 2.2-2 .9-5 .9-5 0 .9-1.5 1.6-1.5 1.6.1-1.9-1.9-3.7-1.9-3.7l-1 1.7c-.7-1.6-3-2.8-3-2.8l-.9 3.9c-2.2-1.9-6-1.7-6-1.7l.7 1.8c-2.3.1-8.7 1.4-12.4 1.8s-6.7-.6-6.7-2.3c0-1.4 3.2-1.6 4.7-1.6 1 .2 2.2.6 4 1.1 3.3 1 5.2-.4 5.2-.4-1.1-.4-1.3-.9-1.3-.9 2.5-1.4 4.8-1.1 4.8-1.1-.8-1.8-4.4-1.7-4.4-1.7.9-.5 1.6-2 1.6-2-.2.2-2.2.7-5 1.1-2.1.3-4 1.9-4.8 2.6-2.2-.2-7.9-.2-6.9 3.7 1.2 4.9 11.1 3.1 17.1 2.2 6-.9 9.2-.1 10.5.7s-.6 3.5-6.7 2.4c-5.3-1-8.2-1-9.8-.8-1.8.1-3.3.6-4.4.8-2.4.5-11.7 3.8-13.4-.9-1.7-4.7-10.3 7.7-10.3 7.7l.7.8-2.3-.5c-3.1 4.1-12.2 5.4-12.2 5.4s-1.4-2.5-2.5-2.8-1.6 1.5-1.6 1.5-1.4.1-1.5 1.3c-.1 1.3 1 1.4 1 1.4s-1.3 1.9.9 2.5c0 0-.2 2.7 3.1.8 9.6 1.2 16.6-3.7 19.6-6.4 2 .1 5.1.1 7.4-1.2 3.8-2 8.2-4.4 10.7-3.5 0 0 2 6.3-6 6.4 0 0-1.2-1.5-2.4-1.5-.5 0-1 .6-.9 1.2 0 0-1.4-.1-1.6.7-.2.7.3 1.4 1.3 1.3 0 0-.7 1 0 1.6s1.6 0 1.6 0-.4 1.3.5 1.4c.7.1 1.7-1.1 2-1.5 1.3.2 10 1.2 11.9-8 0 0 4.4 1.9 8.7 1.5 4.3-.4 8.5.3 8.2 2.4-.5 1.5-1.4 1.4-1.4 1.4-1-.4-2.8-.4-3 1.1s1.8 1.5 1.8 1.5c.6 1.4 2.2.8 2.2.8 1.4 1 2.4-.1 2.4-.1.6.5 1.3.6 1.9.1s.3-3.8.2-5c-.1-2-.4-7.1-3.2-7.1-2.8-.1-6.5 1.6-11.5-2.6-.3-.2-.5-.4-.8-.5 2.4.2 4.1.9 5.7 1.1 1.9.3 8.6-.3 10.1-1.4zM356.6 187.7s-1.4 0-2.1-.2c-1.2-.3-1.3-2.2-.1-2.5 0 0-1.5-1-.8-2.2.6-.9 2-.9 2.5-.4 0 0-.5-1.5.9-2 1.1-.4 1.9.8 1.9 2.4 0 0 1.6-1.3 2.4-.4.6.6.4 1.4-.5 3-1 1.6-4.2 2.3-4.2 2.3z"/></g><g fill="#41479b"><path d="M354.9 187s-.7 1.3-2.9.5c0 0 1.9-.9 2.1-1.6l.8 1.1zM354.1 183.2s-1.2-.7-2.4-.7c0 0 1.9-1.4 3.5-.2l-1.1.9zM356.8 181.3s.4-1.4-.4-2.1c0 0 1.5.7 1.7 1.9l-1.3.2zM360.1 182.7s.7-1.6.1-2.4c0 0 2 1.2 1.2 3l-1.3-.6zM356.3 200.9s-.8-1.6-1.8-1.6c0 0 2.1-.8 3.1 1.1l-1.3.5zM354.6 203s-1.4-1.1-2.3-.7c0 0 1.6-1.6 3.2-.4l-.9 1.1zM355.5 205.9s-1.8 0-2.3.9c0 0 .3-2.3 2.3-2.3v1.4zM357.2 207.8s-.7 1.3-2.9.5c0 0 1.9-.9 2.1-1.6l.8 1.1zM389.7 207.1s-.6 1-2.4.4c0 0 1.4-.5 1.6-1.1l.8.7z"/></g><path d="M371.2 184.6s-3.9 6.7-3 16.4c0 0 11.6-1.7 16.6-13.3 0 0 1.2-.5 1.7-1.7.4-1 .4-2.7-1.6-2.7 0 0 .6-1.2 1.3-1.4 0 0-1.3-.5-2.7-.2 0 0 1.1-1.1 1.1-2.6 0 0-1.7 1.1-2.8 1.3 0 0-.1-1.8.3-2 0 0-2.3.2-3.4 1.4 0 0-.8-1-.7-2.1 0 0-2.1.9-3 2.3 0 0-.7-.7-.6-1.4 0 0-1.5 1.9-1.9 2.8 0 0-1.4-.4-2.1.8-.3.8-.2 1.7.8 2.4z" fill="#ffd255"/><g fill="#41479b"><path d="M388 202.3s-.5-.9-1.9-1.1c0 0 1.8-.8 2.9.4l-1 .7zM416.9 205.6s-1 .3-1.5 1.8c0 0-.5-2.1.9-3l.6 1.2zM419 206.4s-1 .9-.9 2.5c0 0-1.2-1.7-.1-3.2l1 .7zM423.7 206.3s-.3 1 .6 2.1c0 0-1.8-.6-1.9-2.2l1.3.1zM421.5 206.7s-.8.7-.6 2.2c0 0-1.4-1.3-.5-2.8l1.1.6zM386.5 204.1s-.9-.3-2.1.5c0 0 .8-1.8 2.4-1.7l-.3 1.2zM387.8 206.1s-1-.3-2.1.6c0 0 .2-1.7 1.8-1.8l.3 1.2z"/></g><path d="M436 221.7c-7.6 0-7.6 6.8-15.2 6.8s-7.6-6.8-15.2-6.8-7.6 6.8-15.2 6.8-7.6-6.8-15.1-6.8-7.6 6.8-15.1 6.8c-7.6 0-7.6-6.8-15.1-6.8v-12.6c7.6 0 7.6 6.8 15.1 6.8 7.6 0 7.6-6.8 15.1-6.8 7.6 0 7.6 6.8 15.1 6.8 7.6 0 7.6-6.8 15.2-6.8s7.6 6.8 15.2 6.8 7.6-6.8 15.2-6.8v12.6z" fill="#f5f5f5"/><path d="M420.9 228.5c-7.6 0-7.6-6.8-15.2-6.8s-7.6 6.8-15.2 6.8-7.6-6.8-15.1-6.8-7.6 6.8-15.1 6.8c-7.6 0-7.6-6.8-15.1-6.8.1 3 .5 7.5 1.3 12.8 6.2.8 6.7 6.7 13.8 6.7 7.6 0 7.6-6.8 15.1-6.8 7.6 0 7.6 6.8 15.1 6.8 7.6 0 7.6-6.8 15.2-6.8s7.6 6.8 15.2 6.8c7.1 0 7.6-5.9 13.8-6.7.9-5.3 1.2-9.8 1.3-12.8-7.5 0-7.6 6.8-15.1 6.8z" fill="#41479b"/><path d="M420.9 241.2c-7.6 0-7.6-6.8-15.2-6.8s-7.6 6.8-15.2 6.8-7.6-6.8-15.1-6.8-7.6 6.8-15.1 6.8c-7.1 0-7.6-5.9-13.8-6.7.7 4.2 1.8 8.8 3.3 13.7 3.4 2 4.9 5.7 10.5 5.7 7.6 0 7.6-6.8 15.1-6.8 7.6 0 7.6 6.8 15.1 6.8 7.6 0 7.6-6.8 15.2-6.8s7.6 6.8 15.2 6.8c5.6 0 7.1-3.7 10.5-5.7 1.5-4.8 2.6-9.5 3.3-13.7-6.2.8-6.8 6.7-13.8 6.7z" fill="#f5f5f5"/><path d="M420.9 253.8c-7.6 0-7.6-6.8-15.2-6.8s-7.6 6.8-15.2 6.8-7.6-6.8-15.1-6.8-7.6 6.8-15.1 6.8c-5.6 0-7.1-3.7-10.5-5.7 1.9 6 4.6 12.2 8.4 18 .6.1 1.3.2 2.1.2 7.6 0 7.6-6.8 15.1-6.8 7.6 0 7.6 6.8 15.1 6.8 7.6 0 7.6-6.8 15.2-6.8s7.6 6.8 15.2 6.8c.8 0 1.5-.1 2.1-.2 3.8-5.8 6.5-12 8.4-18-3.4 2-4.9 5.7-10.5 5.7z" fill="#41479b"/><path d="M420.9 266.4c-7.6 0-7.6-6.8-15.2-6.8s-7.6 6.8-15.2 6.8-7.6-6.8-15.1-6.8-7.6 6.8-15.1 6.8c-.8 0-1.4-.1-2.1-.2 2.4 3.7 5.2 7.2 8.6 10.4 2.3-2 4.2-4.3 8.6-4.3 7.6 0 7.6 6.8 15.1 6.8 7.6 0 7.6-6.8 15.2-6.8 4.5 0 6.3 2.4 8.7 4.4 3.3-3.2 6.2-6.7 8.6-10.4-.7 0-1.3.1-2.1.1z" fill="#f5f5f5"/><path d="M414.4 276.6c-2.3-2-4.2-4.4-8.7-4.4-7.6 0-7.6 6.8-15.2 6.8s-7.6-6.8-15.1-6.8c-4.5 0-6.3 2.4-8.6 4.3 6.1 5.8 13.9 10.5 23.8 12.9 9.9-2.4 17.7-7 23.8-12.8z" fill="#41479b"/><g fill="#f5f5f5"><path d="M405.7 209.1c-7.6 0-7.6 6.8-15.2 6.8s-7.6-6.8-15.1-6.8-7.6 6.8-15.1 6.8c-7.6 0-7.6-6.8-15.1-6.8v12.6c7.5 0 7.5 6.8 15.1 6.8s7.6-6.8 15.1-6.8c7.6 0 7.6 6.8 15.1 6.8 7.6 0 7.6-6.8 15.2-6.8s7.6 6.8 15.2 6.8 7.6-6.8 15.1-6.8v-2.1-10.5c-7.6 0-7.6 6.8-15.2 6.8-7.5 0-7.5-6.8-15.1-6.8z"/><path d="M432.5 174.1c1.9 0 3.5 1.6 3.5 3.5v44.1c-.1 3-.5 7.5-1.3 12.8-.7 4.2-1.8 8.8-3.3 13.7-1.9 6-4.6 12.2-8.4 18-2.4 3.7-5.2 7.2-8.6 10.4-6.1 5.8-13.8 10.4-23.8 12.9-10-2.5-17.7-7.2-23.8-12.9-3.3-3.2-6.2-6.7-8.6-10.4-3.8-5.8-6.5-12-8.4-18-1.5-4.8-2.6-9.5-3.3-13.7-.9-5.3-1.2-9.8-1.3-12.8v-2.1-42c0-1.9 1.6-3.5 3.5-3.5h83.8m0-2.6h-83.9c-3.4 0-6.1 2.7-6.1 6.1v44.2c.1 2.9.4 7.4 1.4 13.1.8 4.8 2 9.6 3.4 14 2.2 6.9 5.1 13.2 8.7 18.7 2.6 4 5.6 7.7 9 10.8 7 6.6 15.4 11.2 25 13.6l.6.2.6-.2c9.6-2.4 18-7 25-13.6 3.3-3.2 6.4-6.8 9-10.9 3.6-5.5 6.5-11.8 8.7-18.7 1.4-4.5 2.6-9.2 3.4-14 1-5.7 1.3-10.3 1.4-13.1v-44.2c0-3.3-2.8-6-6.2-6z"/></g><path fill="#73af00" d="M390.6 268.4L381 275l3.4-11.2-9.3-7 11.6-.3 3.9-11 3.8 11 11.7.3-9.3 7 3.4 11.2z"/><path d="M390.6 247.7l3.3 9.6 10.1.2-8.1 6.1 2.9 9.7-8.3-5.8-8.3 5.8 2.9-9.7-8.1-6.1 10.1-.2 3.5-9.6m0-4.4l-1.3 3.8-3 8.7-9.2.2-4.1.1 3.2 2.5 7.3 5.5-2.7 8.8-1.2 3.9 3.3-2.3 7.5-5.2 7.5 5.2 3.3 2.3-1.2-3.9-2.7-8.8 7.3-5.5 3.2-2.5-4.1-.1-9.2-.2-3-8.7-.9-3.8z" fill="#ffe15a"/><path fill="#73af00" d="M369.5 241.1l-9.6 6.7 3.4-11.2-9.3-7.1 11.7-.2 3.8-11.1 3.9 11.1 11.6.2-9.3 7.1 3.4 11.2z"/><path d="M369.5 220.4l3.3 9.6 10.1.2-8.1 6.1 2.9 9.7-8.3-5.8-8.3 5.8 2.9-9.7-8.1-6.1 10.1-.2 3.5-9.6m0-4.3l-1.3 3.8-3 8.7-9.2.2-4.1.1 3.2 2.5 7.3 5.5-2.7 8.8-1.2 3.9 3.3-2.3 7.5-5.2 7.5 5.2 3.3 2.3-1.2-3.9-2.7-8.8 7.3-5.5 3.2-2.5-4.1-.1-9.2-.2-3-8.7-.9-3.8z" fill="#ffe15a"/><path fill="#73af00" d="M411.5 241.1l-9.6 6.7 3.4-11.2-9.4-7.1 11.7-.2 3.9-11.1 3.8 11.1 11.7.2-9.3 7.1 3.4 11.2z"/><g fill="#ffe15a"><path d="M411.5 220.4l3.3 9.6 10.1.2-8.1 6.1 2.9 9.7-8.3-5.8-8.3 5.8 2.9-9.7-8.1-6.1 10.1-.2 3.5-9.6m0-4.3l-1.3 3.8-3 8.7-9.2.2-4.1.1 3.2 2.5 7.3 5.5-2.7 8.8-1.2 3.9 3.3-2.3 7.5-5.2 7.5 5.2 3.3 2.3-1.2-3.9-2.7-8.8 7.3-5.5 3.2-2.5-4.1-.1-9.2-.2-3-8.7-.9-3.8zM445.9 255.2c-8.7 22.1-30.2 37.8-55.3 37.8s-46.6-15.7-55.3-37.8l-13 5.1c10.7 27.3 37.3 46.7 68.3 46.7s57.6-19.4 68.3-46.7l-13-5.1z"/></g><g fill="#f5f5f5"><path d="M397.6 174.1h-10.5l-3.5-10.5h10.5zM415.1 174.1h-7l-2.3-7h3.2c2.3 0 4.3 1.5 5 3.6l1.1 3.4zM376.6 174.1h-7l-.8-2.4c-.8-2.3.9-4.6 3.3-4.6h2.1l2.4 7z"/></g><g fill="#41479b"><path d="M408.1 174.1h-10.5l-3.5-10.5h8c1.5 0 2.8 1 3.3 2.4l2.7 8.1zM387.1 174.1h-10.5l-2.4-7.1c-.6-1.7.7-3.4 2.5-3.4h6.9l3.5 10.5z"/></g><path d="M416.3 149.8c-2.7 3.9-10.4 8.6-22.8 8.6-10.3 0-16.9-6.2-19.1-8.6-.5-.6-.8-1.4-.8-2.2v-2.4c0-1 .5-2 1.4-2.5 2.2-1.3 7.4-3.4 17.5-3.4 12.5.2 23.8 10.5 23.8 10.5z" fill="#509664"/><path d="M19.2 489.1C8.6 489.1 0 480.5 0 469.9V42c0-10.5 8.5-19 19-19h.2c10.6 0 19.2 8.6 19.2 19.2V470c0 10.5-8.6 19.1-19.2 19.1z" fill="#2e3033"/></svg>