<svg xmlns="http://www.w3.org/2000/svg" viewBox="0 0 512 512"><path d="M503.666 381.003H40.111a8.335 8.335 0 0 1-8.334-8.334V74.709a8.335 8.335 0 0 1 8.334-8.334h463.555A8.335 8.335 0 0 1 512 74.709V372.67a8.333 8.333 0 0 1-8.334 8.333z" fill="#41479b"/><path d="M282.497 173.493c-4.787-.905-10.608-6.986-8.538-10.35s-1.812-10.867-6.468-8.28c-4.658 2.588-7.762 5.692-12.161 6.728-4.398 1.034-8.021 4.398-4.658 7.504 3.364 3.104 8.538 9.314 3.622 15.783s-3.364 2.07-9.314 4.916c-5.951 2.846-10.091 8.538-8.28 11.902 1.812 3.364 3.364 4.658-1.812 6.986-5.174 2.328-7.504.776-11.643 1.812-4.14 1.034-14.231 6.21-17.336 10.608-3.104 4.398-9.832.258-12.678-.258-2.846-.518-8.538 1.552-9.832 4.916s1.034 6.468 5.951 8.021c4.916 1.552 6.986 1.812 4.658 5.951-2.328 4.14-.776 12.161 3.104 14.49 3.88 2.328 11.384 9.574 11.384 14.49s-1.034 12.161 6.21 13.196c7.244 1.034 18.371 4.14 22.251 10.867 3.882 6.728 4.916 10.608 5.692 14.748s1.552 7.504 3.882 12.161c2.329 4.658 3.882 12.678 1.552 14.49-2.328 1.812-4.14 3.104-2.328 6.597s2.199 4.787 5.563 2.846c3.364-1.941 3.364.129 5.174-.258 1.812-.388 10.091-3.364 8.538-7.374-1.552-4.011-4.916-13.196-.129-17.982s11.255-5.563 15.395-8.797c4.14-3.235 10.997-3.751 16.301-8.927 5.305-5.175 10.997-2.07 11.902 1.552s2.328 10.608 6.468 10.479 5.045-.129 5.821-5.174 7.244-16.3 9.832-14.877c2.588 1.423 4.916.258 5.045-1.941.129-2.199 5.045-4.14 7.115-1.034 2.07 3.105 6.598 5.563 6.468 1.682-.129-3.882-5.434-3.364-5.563-7.633-.129-4.269 4.269-6.986 8.151-8.797 3.882-1.812 1.552-6.468 2.717-9.056s7.504-5.821 7.762-8.409-1.552-3.622 1.165-4.269 6.081-1.812 4.14-4.787-1.294-5.174.776-6.597 3.041-8.178.021-9.055c-3.02-.876-8.475 1.656-9.838 3.312-1.364 1.656-6.916-5.455-9.546-7.208-2.63-1.753-19.579-.682-19.19-3.604s7.504-13.588 4.398-15.271c-3.104-1.681-8.021-4.14-12.031-5.434-4.011-1.294-3.104 3.104-5.305-.389-2.199-3.493-2.975-15.913-5.434-15.913-2.457 0-4.269 5.175-5.305 3.235-1.034-1.941.388-15.395-5.305-15.654-5.692-.258-5.821 3.104-9.056.647-3.227-2.461-2.764-1.353-9.308-2.591z" fill="#ff9b55"/><g fill="#f5f5f5"><path d="M247.349 99.895l-4.298 12.887-13.584.105c-.745.006-1.053.956-.454 1.399l10.928 8.07-4.098 12.952c-.225.71.584 1.297 1.19.865l11.052-7.899 11.052 7.899c.606.433 1.415-.154 1.19-.865l-4.098-12.952 10.928-8.07c.599-.443.291-1.393-.454-1.399l-13.584-.105-4.298-12.887c-.237-.707-1.236-.707-1.472 0zM295.217 99.895l-4.298 12.887-13.584.105c-.745.006-1.053.956-.454 1.399l10.928 8.07-4.098 12.952c-.225.71.583 1.297 1.19.865l11.052-7.899 11.052 7.899c.606.433 1.415-.154 1.19-.865l-4.098-12.952 10.928-8.07c.599-.443.291-1.393-.454-1.399l-13.584-.105-4.297-12.887c-.239-.707-1.238-.707-1.473 0zM200.129 107.786l-4.298 12.887-13.584.105c-.745.006-1.053.956-.454 1.398l10.928 8.07-4.098 12.952c-.225.71.584 1.298 1.19.865l11.052-7.899 11.052 7.899c.606.433 1.415-.154 1.19-.865l-4.098-12.952 10.928-8.07c.599-.443.291-1.393-.454-1.399l-13.584-.105-4.298-12.887c-.236-.705-1.236-.705-1.472.001zM155.453 124.024l-4.298 12.887-13.584.105c-.745.006-1.053.956-.454 1.398l10.928 8.07-4.097 12.952c-.225.71.583 1.297 1.19.865l11.052-7.899 11.052 7.899c.606.433 1.415-.154 1.19-.865l-4.098-12.952 10.928-8.07c.599-.443.291-1.393-.454-1.399l-13.584-.105-4.298-12.887c-.238-.705-1.237-.705-1.473.001zM343.778 107.786l4.298 12.887 13.584.105c.745.006 1.053.956.454 1.398l-10.928 8.07 4.097 12.952c.225.71-.583 1.298-1.19.865l-11.052-7.899-11.052 7.899c-.606.433-1.415-.154-1.19-.865l4.098-12.952-10.928-8.07c-.599-.443-.291-1.393.454-1.399l13.584-.105 4.298-12.887c.239-.705 1.238-.705 1.473.001zM388.455 124.024l4.298 12.887 13.584.105c.745.006 1.053.956.454 1.398l-10.928 8.07 4.098 12.952c.225.71-.583 1.297-1.19.865l-11.052-7.899-11.052 7.899c-.606.433-1.415-.154-1.19-.865l4.098-12.952-10.928-8.07c-.599-.443-.291-1.393.454-1.399l13.584-.105 4.298-12.887c.237-.705 1.237-.705 1.472.001z"/></g><path d="M18.881 485.182C8.454 485.182 0 476.729 0 466.302V45.545c0-10.342 8.384-18.727 18.726-18.727h.155c10.428 0 18.881 8.454 18.881 18.881V466.3c.001 10.429-8.453 18.882-18.881 18.882z" fill="#2e3033"/></svg>