<svg xmlns="http://www.w3.org/2000/svg" viewBox="0 0 512 512"><path d="M184.263 374.608H28.871a8.476 8.476 0 0 1-8.476-8.476V60.999a8.476 8.476 0 0 1 8.476-8.476h155.392v322.085z" fill="#f5f5f5"/><path fill="#4173cd" d="M184.27 52.52h163.87V374.6H184.27z"/><path d="M503.524 374.608H348.132V52.523h155.392A8.476 8.476 0 0 1 512 60.999v305.133a8.476 8.476 0 0 1-8.476 8.476z" fill="#ffe15a"/><g fill="#c17400"><path d="M240.615 222.968c-.097 2.531-3.894 3.601-3.894 3.601-.389-4.282 3.991-12.166 4.866-12.847.876-.681 4.38-3.894.876-3.212s-6.911 8.565-7.69 9.927c-.779 1.363-2.628 1.265-2.628 1.265v-7.689c0-1.363 6.035-4.282 6.035-4.282s.974-5.84.097-6.424-2.725 1.071-5.354 1.265c-2.628.195-5.84.292-8.565 2.822-2.725 2.531-2.822 4.282-2.822 8.565v10.317c0 10.317-9.636 17.52-13.237 21.121-.98.98-1.356 2.179-1.388 3.437-.724.678-2.32 1.666-3.654 1.379-2.05-.441-2.355-4.045-2.355-6.155a1.167 1.167 0 1 0-2.336 0c0 7.136 3.038 8.406 4.847 8.53.1.006.199.01.301.01 1.199 0 2.489-.474 3.559-1.134.696 2.519 2.162 4.861 2.583 5.807.779 1.752-3.504 4.575-3.504 4.575l3.504 10.804h4.77c0-2.676-3.26-2.141-3.747-2.822-.486-.681-1.07-6.862-1.07-6.862l6.767-5.662a2.3 2.3 0 0 0 .824-1.764v-3.013s4.964.803 6.205 1.898c1.241 1.096.146 4.38.146 4.818s6.277 5.986 6.277 5.986h4.307c0-1.971-2.044-1.898-3.066-2.263-1.022-.366-4.088-4.161-4.088-4.161s1.655-5.134 1.655-6.399-7.105-6.424-7.105-6.424.974-1.655 8.176-6.132 6.619-9.539 6.619-9.539l6.23-7.007v-5.061s-2.044.195-2.141 2.725zM291.958 222.968c.097 2.531 3.894 3.601 3.894 3.601.389-4.282-3.991-12.166-4.866-12.847-.876-.681-4.38-3.894-.876-3.212 3.504.681 6.911 8.565 7.69 9.927.779 1.363 2.628 1.265 2.628 1.265v-7.689c0-1.363-6.035-4.282-6.035-4.282s-.974-5.84-.098-6.424 2.725 1.071 5.354 1.265c2.628.195 5.84.292 8.565 2.822 2.725 2.531 2.822 4.282 2.822 8.565v10.317c0 10.317 9.636 17.52 13.237 21.121.98.98 1.356 2.179 1.388 3.437.724.678 2.32 1.666 3.654 1.379 2.05-.441 2.355-4.045 2.355-6.155a1.167 1.167 0 1 1 2.336 0c0 7.136-3.038 8.406-4.847 8.53-.1.006-.199.01-.301.01-1.199 0-2.489-.474-3.559-1.134-.696 2.519-2.162 4.861-2.583 5.807-.779 1.752 3.504 4.575 3.504 4.575l-3.504 10.804h-4.77c0-2.676 3.261-2.141 3.747-2.822s1.07-6.862 1.07-6.862l-6.767-5.662a2.3 2.3 0 0 1-.824-1.764v-3.013s-4.964.803-6.205 1.898c-1.241 1.096-.146 4.38-.146 4.818s-6.277 5.986-6.277 5.986h-4.307c0-1.971 2.044-1.898 3.066-2.263 1.022-.366 4.087-4.161 4.087-4.161s-1.655-5.134-1.655-6.399 7.105-6.424 7.105-6.424-.974-1.655-8.176-6.132-6.619-9.539-6.619-9.539l-6.23-7.007v-5.061c.001 0 2.045.195 2.143 2.725z"/></g><g fill="#c8c8c8"><path d="M256.917 216.3l-7.007 7.009h14.016zM275.605 216.3l-7.007 7.009h14.015zM256.917 227.981l-7.007 7.008h14.016zM275.605 227.981l-7.007 7.008h14.015zM256.917 239.661l-7.007 7.008h14.016zM275.605 239.661l-7.007 7.008h14.015zM266.262 251.341l-7.009 7.007h14.016z"/></g><g fill="#ffe15a"><path d="M265.1 178.93h2.336v14.02H265.1z"/><path d="M253.449 193.224c-.039-.15-.9-3.737 1.516-6.351 2.127-2.304 5.998-3.007 11.488-2.091l-.384 2.304c-4.607-.771-7.852-.295-9.389 1.371-1.544 1.672-.972 4.177-.966 4.202l-2.265.565z"/><path d="M247.051 200.994c-2.919-1.46-4.353-5.699-3.133-9.257.512-1.492 2.812-6.232 10.893-4.613l-.459 2.291c-4.269-.86-7.26.271-8.224 3.08-.833 2.425.106 5.48 1.967 6.41l-1.044 2.089zM279.074 193.224l-2.265-.566 1.133.283-1.135-.279c.006-.025.586-2.544-.978-4.22-1.544-1.656-4.786-2.126-9.375-1.357l-.384-2.304c5.498-.918 9.362-.212 11.488 2.091 2.416 2.615 1.554 6.201 1.516 6.352z"/><path d="M285.471 200.994l-1.045-2.089c1.862-.93 2.8-3.986 1.967-6.41-.964-2.809-3.96-3.937-8.224-3.08l-.459-2.291c8.086-1.618 10.381 3.123 10.893 4.613 1.223 3.558-.213 7.797-3.132 9.257z"/></g><path d="M275.605 192.941s-4.672-2.336-9.344-2.336-9.344 2.336-9.344 2.336c-4.672-2.336-11.68 0-11.68 4.672s7.007 11.68 7.007 11.68h28.032s7.007-7.007 7.007-11.68c.002-4.672-7.005-7.007-11.678-4.672z" fill="#ff4b55"/><path fill="#ffe15a" d="M263.93 180.09h4.672v2.336h-4.672z"/><g fill="#c8c8c8"><path d="M242.9 167.24h46.724v9.344H242.9z"/><path d="M246.458 173.254l2.215 6.65-14.015 4.67-2.216-6.65zM286.079 173.265l14.016 4.671-2.217 6.65-14.016-4.67z"/></g><path d="M266.262 266.524c-13.524 0-24.528-6.811-24.528-15.184v-39.712a3.507 3.507 0 0 1 3.504-3.504h42.048a3.507 3.507 0 0 1 3.504 3.504v39.712c-.001 8.373-11.004 15.184-24.528 15.184zm-21.025-56.064a1.17 1.17 0 0 0-1.168 1.168v39.712c0 7.084 9.955 12.847 22.192 12.847 12.236 0 22.192-5.765 22.192-12.847v-39.712a1.17 1.17 0 0 0-1.168-1.168h-42.048z" fill="#464655"/><path d="M19.203 489.087C8.598 489.087 0 480.49 0 469.884V41.958c0-10.519 8.527-19.045 19.045-19.045h.158c10.606 0 19.203 8.598 19.203 19.203v427.768c.001 10.606-8.597 19.203-19.203 19.203z" fill="#2e3033"/></svg>