<svg xmlns="http://www.w3.org/2000/svg" viewBox="0 0 512.001 512.001"><path d="M503.632 56.369H35.048a8.368 8.368 0 0 0-8.368 8.368V365.97a8.368 8.368 0 0 0 8.368 8.368h468.585a8.368 8.368 0 0 0 8.368-8.368V64.736a8.37 8.37 0 0 0-8.369-8.367z" fill="#4173cd"/><path d="M512 64.736a8.368 8.368 0 0 0-8.368-8.368h-37.443L269.34 185.34 72.491 56.369H35.048a8.368 8.368 0 0 0-8.368 8.368v21.646l196.849 128.97L26.68 344.324v21.646a8.368 8.368 0 0 0 8.368 8.368h37.443l196.849-128.97 196.849 128.97h37.443A8.368 8.368 0 0 0 512 365.97v-21.646l-196.849-128.97L512 86.383V64.736z" fill="#f5f5f5"/><path d="M19.152 488.46C8.575 488.46 0 479.885 0 469.309V42.534C0 32.044 8.504 23.54 18.994 23.54h.157c10.577 0 19.152 8.575 19.152 19.152V469.31c0 10.575-8.575 19.15-19.151 19.15z" fill="#2e3033"/></svg>