<svg xmlns="http://www.w3.org/2000/svg" viewBox="0 0 512 512"><path d="M503.525 52.546H28.924a8.476 8.476 0 0 0-8.475 8.475v305.101a8.476 8.476 0 0 0 8.475 8.475h474.601a8.476 8.476 0 0 0 8.475-8.475V61.021a8.475 8.475 0 0 0-8.475-8.475z" fill="#73af00"/><g fill="#ff4b55"><path d="M59.106 52.546l207.118 135.697L473.341 52.546zM473.341 374.694L266.224 238.996 59.106 374.694z"/></g><path d="M512 61.021a8.476 8.476 0 0 0-8.475-8.475h-30.183l-157.486 103.18c-13.345-11.46-30.66-18.429-49.632-18.429s-36.287 6.969-49.632 18.429L59.106 52.546H28.923a8.476 8.476 0 0 0-8.475 8.475v16.853L193.315 191.13a76.262 76.262 0 0 0-3.367 22.441 76.235 76.235 0 0 0 3.367 22.441L20.448 349.269v16.853a8.476 8.476 0 0 0 8.475 8.475h30.183l157.486-103.18c13.345 11.46 30.66 18.429 49.632 18.429 18.971 0 36.287-6.969 49.632-18.429l157.486 103.18h30.183a8.476 8.476 0 0 0 8.475-8.475v-16.853L339.132 236.012a76.262 76.262 0 0 0 3.367-22.441 76.235 76.235 0 0 0-3.367-22.441L512 77.873V61.021z" fill="#f5f5f5"/><path fill="#ff4b55" d="M260.733 189.181l-11.492.298 6-9.808-6-9.808 11.492.298 5.491-10.106 5.491 10.106 11.492-.298-6.001 9.808 6.001 9.808-11.492-.298-5.491 10.105z"/><path d="M266.224 162.721l4.746 8.729 9.933-.254-5.187 8.475 5.187 8.475-9.933-.254-4.746 8.729-4.746-8.729-9.933.254 5.187-8.475-5.187-8.475 9.933.254 4.746-8.729m0-5.324l-2.234 4.108-4.002 7.363-8.378-.215-4.675-.12 2.441 3.99 4.375 7.148-4.375 7.148-2.441 3.99 4.675-.12 8.378-.215 4.002 7.363 2.234 4.108 2.234-4.108 4.002-7.363 8.378.215 4.675.12-2.441-3.99-4.375-7.148 4.375-7.148 2.441-3.99-4.675.12-8.378.215-4.002-7.363-2.234-4.108z" fill="#73af00"/><path fill="#ff4b55" d="M229.172 245.353l-11.492.298 6-9.808-6-9.806 11.492.297 5.491-10.105 5.491 10.105 11.491-.297-6 9.806 6 9.808-11.491-.298-5.491 10.106z"/><path d="M234.663 218.893l4.746 8.729 9.933-.254-5.187 8.475 5.187 8.475-9.933-.254-4.746 8.729-4.746-8.729-9.933.254 5.187-8.475-5.187-8.475 9.933.254 4.746-8.729m0-5.322l-2.234 4.108-4.002 7.363-8.378-.215-4.675-.12 2.441 3.99 4.375 7.148-4.375 7.148-2.441 3.99 4.675-.12 8.378-.215 4.002 7.363 2.234 4.108 2.234-4.108 4.002-7.363 8.378.215 4.675.12-2.441-3.99-4.375-7.148 4.375-7.148 2.441-3.99-4.675.12-8.378.215-4.002-7.363-2.234-4.108z" fill="#73af00"/><path fill="#ff4b55" d="M292.294 245.353l-11.492.298 6-9.808-6-9.806 11.492.297 5.49-10.105 5.492 10.105 11.492-.297-6 9.806 6 9.808-11.492-.298-5.492 10.106z"/><path d="M297.784 218.893l4.746 8.729 9.933-.254-5.187 8.475 5.187 8.475-9.933-.254-4.746 8.729-4.746-8.729-9.933.254 5.187-8.475-5.187-8.475 9.933.254 4.746-8.729m0-5.322l-2.234 4.108-4.002 7.363-8.378-.215-4.675-.12 2.441 3.99 4.375 7.148-4.375 7.148-2.441 3.99 4.675-.12 8.378-.215 4.002 7.363 2.234 4.108 2.234-4.108 4.002-7.363 8.378.215 4.675.12-2.441-3.99-4.375-7.148 4.375-7.148 2.441-3.99-4.675.12-8.378.215-4.002-7.363-2.234-4.108z" fill="#73af00"/><path d="M19.201 489.063C8.597 489.063 0 480.466 0 469.862V41.982c0-10.517 8.526-19.044 19.043-19.044h.158c10.604 0 19.201 8.597 19.201 19.201v427.723c0 10.604-8.596 19.201-19.201 19.201z" fill="#2e3033"/></svg>