<svg xmlns="http://www.w3.org/2000/svg" viewBox="0 0 512 512"><path d="M512 213.615H20.395V61.048a8.476 8.476 0 0 1 8.476-8.476h474.653A8.476 8.476 0 0 1 512 61.048v152.567z" fill="#ffe15a"/><path d="M20.395 213.615H512v152.567a8.476 8.476 0 0 1-8.476 8.476H28.871a8.476 8.476 0 0 1-8.476-8.476V213.615z" fill="#ff4b55"/><path d="M184.263 374.652H28.871a8.476 8.476 0 0 1-8.476-8.476V61.043a8.476 8.476 0 0 1 8.476-8.476h155.392v322.085z" fill="#73af00"/><path d="M19.203 489.087C8.598 489.087 0 480.49 0 469.884V41.958c0-10.519 8.527-19.045 19.045-19.045h.158c10.606 0 19.203 8.598 19.203 19.203v427.768c.001 10.606-8.597 19.203-19.203 19.203z" fill="#2e3033"/></svg>