<svg xmlns="http://www.w3.org/2000/svg" viewBox="0 0 512 512"><path d="M503.524 374.657H28.871a8.476 8.476 0 0 1-8.476-8.476V213.615H512v152.567a8.476 8.476 0 0 1-8.476 8.475z" fill="#41479b"/><path d="M28.871 52.572h474.653A8.476 8.476 0 0 1 512 61.048v152.567H20.395V61.048a8.476 8.476 0 0 1 8.476-8.476z" fill="#ff4b55"/><path fill="#f5f5f5" d="M266.197 52.572L20.395 213.615l245.802 161.042L512 213.615z"/><path d="M268.739 120.193l20.346 58.534 61.956 1.263c2.55.052 3.603 3.293 1.571 4.834l-49.382 37.438 17.945 59.315c.738 2.442-2.018 4.446-4.113 2.988l-50.866-35.395-50.866 35.395c-2.095 1.457-4.851-.546-4.113-2.988l17.945-59.315-49.382-37.438c-2.033-1.542-.98-4.783 1.571-4.834l61.956-1.263 20.346-58.534c.84-2.409 4.249-2.409 5.086 0z" fill="#ffe15a"/><path d="M19.203 489.087C8.598 489.087 0 480.49 0 469.884V41.958c0-10.519 8.527-19.045 19.045-19.045h.158c10.606 0 19.203 8.598 19.203 19.203v427.768c.001 10.606-8.597 19.203-19.203 19.203z" fill="#2e3033"/></svg>