<svg xmlns="http://www.w3.org/2000/svg" viewBox="0 0 512 512"><path d="M26.68 268.348H512v97.536a8.454 8.454 0 0 1-8.453 8.453H35.133a8.454 8.454 0 0 1-8.453-8.453v-97.536z" fill="#ff4b55"/><path d="M35.133 56.368h468.414A8.454 8.454 0 0 1 512 64.821v97.536H26.68V64.821a8.454 8.454 0 0 1 8.453-8.453z" fill="#ffe15a"/><path fill="#73af00" d="M26.68 162.357H512v105.99H26.68z"/><path d="M19.152 488.46C8.575 488.46 0 479.884 0 469.307V42.534C0 32.044 8.504 23.54 18.994 23.54h.157c10.577 0 19.152 8.575 19.152 19.152V469.31c0 10.574-8.575 19.15-19.151 19.15z" fill="#2e3033"/></svg>