<svg xmlns="http://www.w3.org/2000/svg" viewBox="0 0 512 512"><path d="M184.262 374.657H28.87a8.476 8.476 0 0 1-8.476-8.476V61.047a8.476 8.476 0 0 1 8.476-8.476h155.393v322.087h-.001v-.001z" fill="#41479b"/><path fill="#ffe15a" d="M184.26 52.57h163.87v322.09H184.26z"/><path d="M503.524 374.657H348.131V52.571h155.393A8.476 8.476 0 0 1 512 61.047v305.135a8.475 8.475 0 0 1-8.476 8.475z" fill="#ff4b55"/><path d="M19.203 489.089C8.598 489.089 0 480.491 0 469.885V41.957c0-10.519 8.527-19.045 19.045-19.045h.158c10.606 0 19.203 8.598 19.203 19.203v427.771c.001 10.605-8.597 19.203-19.203 19.203z" fill="#2e3033"/></svg>