<svg xmlns="http://www.w3.org/2000/svg" viewBox="0 0 512 512"><path d="M26.68 268.348H512v97.536a8.454 8.454 0 0 1-8.453 8.453H35.133a8.454 8.454 0 0 1-8.453-8.453v-97.536z" fill="#73af00"/><path d="M35.133 56.368h468.414A8.454 8.454 0 0 1 512 64.821v97.536H26.68V64.821a8.454 8.454 0 0 1 8.453-8.453z" fill="#464655"/><path fill="#c8414b" d="M26.68 162.357H512v105.99H26.68z"/><g fill="#f5f5f5"><path d="M26.68 156.777H512v16.735H26.68zM26.68 257.198H512v16.735H26.68z"/><path d="M314.146 144.846c6.738-13.893 13.768-46.077 13.768-46.077s-20.922 25.446-27.661 39.339c-1.413 2.912-.814 6.261 1.227 8.526L224.732 304.87l5.209 2.526 76.748-158.235c3.043.2 6.044-1.403 7.457-4.315z"/><path d="M224.534 144.846c-6.738-13.893-13.768-46.077-13.768-46.077s20.922 25.446 27.661 39.339c1.413 2.912.814 6.261-1.227 8.526l76.748 158.235-5.21 2.526L231.99 149.16c-3.042.201-6.043-1.402-7.456-4.314z"/></g><path d="M311.179 215.354c0 46.213-34.136 83.676-41.838 83.676s-41.838-37.463-41.838-83.676 34.136-83.676 41.838-83.676c7.701-.001 41.838 37.463 41.838 83.676z" fill="#c8414b"/><g fill="#464655"><path d="M302.81 255.725c4.929-11.973 8.368-25.726 8.368-40.371s-3.438-28.398-8.368-40.371c-4.929 11.973-8.367 25.726-8.367 40.371s3.439 28.397 8.367 40.371zM235.87 174.981c-4.929 11.973-8.368 25.726-8.368 40.371s3.438 28.398 8.368 40.371c4.929-11.973 8.368-25.726 8.368-40.371 0-14.644-3.439-28.397-8.368-40.371z"/></g><g fill="#f5f5f5"><ellipse cx="269.34" cy="215.348" rx="8.368" ry="12.552"/><path d="M270.595 131.677v71.124c2.281-4.749 6.328-18.782 6.328-35.562.001-16.781-4.046-30.814-6.328-35.562zM268.085 131.677c-2.281 4.749-6.328 18.781-6.328 35.562 0 16.78 4.047 30.814 6.328 35.562v-71.124zM270.595 227.904v71.124c2.281-4.749 6.328-18.782 6.328-35.562.001-16.782-4.046-30.812-6.328-35.562zM268.085 227.904c-2.281 4.749-6.328 18.781-6.328 35.562 0 16.78 4.047 30.814 6.328 35.562v-71.124z"/></g><path d="M19.152 488.46C8.575 488.46 0 479.884 0 469.307V42.534C0 32.044 8.504 23.54 18.994 23.54h.157c10.577 0 19.152 8.575 19.152 19.152V469.31c0 10.574-8.575 19.15-19.151 19.15z" fill="#2e3033"/></svg>