<svg xmlns="http://www.w3.org/2000/svg" viewBox="0 0 512.001 512.001"><path d="M31.168 377.847l238.877-156.505L31.168 64.835c-1.839 1.531-3.078 3.748-3.078 6.327V371.52c0 2.581 1.239 4.798 3.078 6.327z" fill="#f5f5f5"/><path d="M31.168 377.847c1.447 1.204 3.236 2.017 5.265 2.017h467.225a8.343 8.343 0 0 0 8.343-8.343V221.342H270.045L31.168 377.847z" fill="#73af00"/><path d="M31.168 64.835c1.447-1.204 3.236-2.017 5.265-2.017h467.225a8.343 8.343 0 0 1 8.343 8.343v150.18H270.045L31.168 64.835z" fill="#82afff"/><path d="M114.82 183.663l-8.449 25.335-26.706.207c-1.464.012-2.071 1.88-.893 2.749l21.485 15.866-8.056 25.463c-.442 1.396 1.148 2.551 2.339 1.7l21.727-15.531 21.727 15.531c1.191.851 2.781-.303 2.339-1.7l-8.056-25.463 21.485-15.866c1.178-.87.571-2.739-.893-2.749l-26.706-.207-8.449-25.335c-.466-1.389-2.43-1.389-2.894 0z" fill="#ff4b55"/><path d="M19.026 486.943C8.519 486.943 0 478.425 0 467.917V43.929c0-10.422 8.448-18.871 18.87-18.871h.156c10.508 0 19.026 8.519 19.026 19.026v423.831c.001 10.51-8.518 19.028-19.026 19.028z" fill="#2e3033"/></svg>