<svg xmlns="http://www.w3.org/2000/svg" viewBox="0 0 512 512"><path d="M503.524 52.572H28.871a8.476 8.476 0 0 0-8.476 8.476v305.133a8.476 8.476 0 0 0 8.476 8.476h474.653a8.476 8.476 0 0 0 8.476-8.476V61.048a8.476 8.476 0 0 0-8.476-8.476z" fill="#41479b"/><path d="M23.522 372.608L508.872 54.62c-1.47-1.223-3.289-2.049-5.349-2.049H28.871a8.476 8.476 0 0 0-8.476 8.476V366.18c0 2.621 1.259 4.875 3.127 6.428z" fill="#f5f5f5"/><path d="M236.22 52.572H28.871a8.476 8.476 0 0 0-8.476 8.476v132.927L236.22 52.572z" fill="#ffe15a"/><path d="M214.612 187.822c-3.846-25.671-24.09-45.915-49.761-49.761l-8.84-17.682-8.84 17.682c-25.671 3.846-45.914 24.089-49.761 49.761l-17.682 8.84 17.682 8.84c3.846 25.671 24.09 45.915 49.761 49.761l8.84 17.682 8.84-17.682c25.671-3.846 45.914-24.089 49.761-49.761l17.682-8.84-17.682-8.84zm-58.602 59.696c-28.087 0-50.856-22.768-50.856-50.856s22.768-50.856 50.856-50.856 50.856 22.768 50.856 50.856-22.769 50.856-50.856 50.856z" fill="#464655"/><path fill="#ff4b55" d="M156.01 164.07l9.126 16.786 19.1-.489-9.974 16.296 9.974 16.296-19.1-.49-9.126 16.786-9.125-16.786-19.101.49 9.974-16.296-9.974-16.296 19.101.489z"/><path d="M19.203 489.087C8.598 489.087 0 480.49 0 469.884V41.958c0-10.519 8.527-19.045 19.045-19.045h.158c10.606 0 19.203 8.598 19.203 19.203v427.768c.001 10.606-8.597 19.203-19.203 19.203z" fill="#2e3033"/></svg>