<svg xmlns="http://www.w3.org/2000/svg" viewBox="0 0 512 512"><path d="M512 162.503H27.43V65.118a8.44 8.44 0 0 1 8.44-8.44h467.69a8.44 8.44 0 0 1 8.44 8.44v97.385z" fill="#464655"/><path d="M503.56 374.155H35.87a8.44 8.44 0 0 1-8.44-8.44V268.33H512v97.385a8.44 8.44 0 0 1-8.44 8.44z" fill="#73af00"/><path fill="#f5f5f5" d="M27.43 162.498H512v105.83H27.43z"/><path d="M30.512 372.136l283.087-153.338c2.686-1.455 2.686-5.31 0-6.764L30.512 58.697c-1.841 1.533-3.082 3.753-3.082 6.335V365.8c0 2.583 1.241 4.803 3.082 6.336z" fill="#ff4b55"/><path d="M117.718 193.804l4.966 10.772 11.517-2.834a.867.867 0 0 1 .982 1.232l-5.326 10.598 9.396 7.238a.868.868 0 0 1-.35 1.536l-11.606 2.444.199 11.859a.868.868 0 0 1-1.42.684l-9.148-7.55-9.147 7.55a.868.868 0 0 1-1.42-.684l.199-11.859-11.606-2.444a.867.867 0 0 1-.35-1.536l9.396-7.238-5.325-10.598a.868.868 0 0 1 .982-1.232l11.517 2.834 4.966-10.772a.87.87 0 0 1 1.578 0z" fill="#f5f5f5"/><path d="M19.122 488.101C8.561 488.101 0 479.539 0 468.979V42.864C0 32.39 8.491 23.899 18.965 23.899h.157c10.561 0 19.122 8.561 19.122 19.122v425.958c0 10.56-8.561 19.122-19.122 19.122z" fill="#2e3033"/></svg>