<svg xmlns="http://www.w3.org/2000/svg" viewBox="0 0 512 512"><g fill="#ff4b55"><path d="M512 86.476H20.395V61.048a8.476 8.476 0 0 1 8.476-8.476h474.653A8.476 8.476 0 0 1 512 61.048v25.428zM20.395 340.753H512v25.428a8.476 8.476 0 0 1-8.476 8.476H28.871a8.476 8.476 0 0 1-8.476-8.476v-25.428z"/></g><path fill="#41479b" d="M20.395 86.48h491.6v254.28h-491.6z"/><circle cx="266.2" cy="213.62" r="110.19" fill="#f5f5f5"/><g fill="#82afff"><path d="M245.054 271.555l-16.998 2.833a3.516 3.516 0 0 1-4.093-3.468v-6.396h21.091v7.031zM287.237 271.555l16.999 2.833a3.516 3.516 0 0 0 4.093-3.468v-6.396h-21.091l-.001 7.031z"/></g><g fill="#965032"><path d="M262.631 157.203h-1.47a4.611 4.611 0 0 1-4.141-2.558l-2.6-5.201 2.358-1.181 2.6 5.201a1.982 1.982 0 0 0 1.782 1.102h1.47l.001 2.637zM235.4 151.77l4.359 8.717-2.359 1.179-4.358-8.716z"/><path d="M270.98 197.735l-7.203-7.202a8.467 8.467 0 0 1-2.463-5.946v-2.424a5.8 5.8 0 0 0-.609-2.578l-1.796-3.591a2.186 2.186 0 0 0-1.965-1.215h-6.2a4.807 4.807 0 0 1-4.324-2.671l-2.544-5.088 2.358-1.181 2.544 5.088a2.186 2.186 0 0 0 1.965 1.215h6.2c1.844 0 3.5 1.023 4.324 2.671l1.796 3.591a8.449 8.449 0 0 1 .888 3.759v2.424a5.8 5.8 0 0 0 1.691 4.078l2.704 2.705v-12.283c0-3.33-1.146-6.594-3.227-9.196a17.427 17.427 0 0 1-3.804-10.844v-10.192h2.636v10.192c0 3.33 1.146 6.594 3.227 9.196a17.427 17.427 0 0 1 3.804 10.844v18.648h-.002z"/><path d="M264.707 190.917h-3.914a5.828 5.828 0 0 1-5.439-3.779l-.991-2.671 2.472-.92.991 2.671a3.178 3.178 0 0 0 2.968 2.063h3.914l-.001 2.636zM275.493 144.816l2.413 1.064-14.837 33.646-2.413-1.064zM281.525 174.779h-12.743v-2.636h10.107v-12.744h2.636z"/></g><g fill="#73af00"><path d="M257.358 187.521h-10.546a5.273 5.273 0 1 1 0-10.546h10.546a5.273 5.273 0 0 1 0 10.546zM281.964 187.521h-10.546a5.273 5.273 0 1 1 0-10.546h10.546a5.273 5.273 0 1 1 0 10.546z"/><path d="M292.51 176.976h-14.061a5.273 5.273 0 1 1 0-10.546h14.061a5.273 5.273 0 0 1 0 10.546zM296.025 162.915h-24.607a5.273 5.273 0 1 1 0-10.546h24.607a5.273 5.273 0 0 1 0 10.546zM281.964 148.854h-7.031a5.273 5.273 0 1 1 0-10.546h7.031a5.273 5.273 0 0 1 0 10.546zM236.266 155.884h-3.515a5.273 5.273 0 1 1 0-10.546h3.515a5.274 5.274 0 0 1 0 10.546zM260.873 152.37h-10.546a5.273 5.273 0 1 1 0-10.546h10.546a5.273 5.273 0 0 1 5.273 5.273 5.275 5.275 0 0 1-5.273 5.273zM257.358 169.946h-21.091a5.273 5.273 0 1 1 0-10.546h21.091a5.274 5.274 0 0 1 0 10.546zM318.874 243.433H213.416a7.031 7.031 0 0 0 0 14.062h28.122a7.031 7.031 0 0 0 7.031 7.031h35.153a7.031 7.031 0 0 0 7.031-7.031h28.122a7.031 7.031 0 1 0-.001-14.062z"/></g><path d="M336.23 181.037c-.263-.528-1.634.099-2.49-.219-10.619-3.948-24.878-11.138-34.197-16.042l-1.871-2.962-17.665-8.585a2.37 2.37 0 0 0-3.097.96l-.871 1.531a2.37 2.37 0 0 0 .966 3.275l16.82 8.751 4.753-.352 18.474 9.498s12.552 6.421 13.219 6.892 1.05 3.113 2.295 2.892c.894-.157 4.801-3.354 3.664-5.639z" fill="#be7855"/><g fill="#ffbe3c"><path d="M219.715 248.706s1.172 5.2.073 5.786-6.958.586-6.81-.659c.146-1.245.952-5.639.952-5.639l5.785.512zM229.455 245.923s-.952 3.881.952 4.028c1.904.146 12.669.073 12.963-.219s.659-1.026.659-1.026l-9.96-2.783h-4.614z"/></g><path d="M218.525 197.515s-2.618 6.225-3.57 27.793c-.253 5.738.44 4.394-2.417 22.849l3.389 1.769a3.183 3.183 0 0 0 3.124-.1l3.299-1.999s-1.611-20.652 3.662-32.516c0 0 2.783 5.127 2.783 8.935s-.146 22.117-.146 22.117 6.151 1.026 8.935.732c0 0-1.758-39.73-3.515-49.085l-15.544-.495z" fill="#eaf3f5"/><g fill="#965032"><path d="M219.019 194.879s-1.044.769-.495 2.636c0 0 8.019 3.46 15.544.495 0 0 .824-1.209-.219-2.691l-14.83-.44zM208.291 175.837c-4.563 1.696-11.498 5.932-11.058 9.301.44 3.369 2.827 2.547 3.572 1.72.745-.827 2.883-3.481 3.55-3.953.667-.471 11.462-6.014 11.462-6.014l28.58-14.694s.219-1.428-1.483-2.582c-.002.002-17.486 9.851-34.623 16.222z"/></g><path d="M221.765 159.286l-.165 1.209s-.44 7.745 2.087 9.832c0 0 .549 1.592-.33 2.362-.878.769-9.557 5.163-9.557 5.163s-2.252 4.669-2.197 7.305c0 0-2.142-.824-1.922-1.868.219-1.044 1.483-3.79 1.099-5.108-.385-1.318-1.813-.933-1.813-.933s-.714.769.44 1.263l-.385 1.647-4.669 2.746 1.044 1.263s.055 9.667 5.767 10.93c0 0 3.021.219 6.591-6.591 0 0 1.922 3.405 1.263 6.372 0 0 6.262 3.405 14.83.44l.11-5.932s1.318 9.118 5.822 8.239c0 0 12.477-4.803 10.399-6.628-4.833-4.247-10.67-.658-10.67-.658-.283-6.17-.799-14.151-1.597-15.014-1.318-1.428-5.382-.659-6.188-2.49s-.586-5.053.292-8.788-3.588-6.372-3.588-6.372l-6.663 1.611z" fill="#ffbe3c"/><path d="M221.601 160.495s4.486 1.135 8.001-.256l1.538 3.808h.878s2.118-7.048-.694-6.965c0 0-.011-2.289-4.921-2.192-4.218.083-5.68 2.822-4.802 5.605z" fill="#464655"/><g fill="#965032"><path d="M313.156 248.706s-1.172 5.2-.073 5.786 6.958.586 6.81-.659-.952-5.639-.952-5.639l-5.785.512zM303.416 245.923s.952 3.881-.952 4.028c-1.904.146-12.669.073-12.963-.219s-.659-1.026-.659-1.026l9.96-2.783h4.614z"/></g><path d="M314.346 197.515s2.618 6.225 3.57 27.793c.253 5.738-.44 4.394 2.417 22.849l-3.389 1.769a3.183 3.183 0 0 1-3.124-.1l-3.299-1.999s1.611-20.652-3.662-32.516c0 0-2.783 5.127-2.783 8.935s.146 22.117.146 22.117-6.151 1.026-8.935.732c0 0 1.758-39.73 3.515-49.085l15.544-.495z" fill="#eaf3f5"/><path d="M313.852 194.879s1.044.769.495 2.636c0 0-8.019 3.46-15.544.495 0 0-.824-1.209.219-2.691l14.83-.44z" fill="#be7855"/><path d="M311.106 159.286l.165 1.209s.44 7.745-2.087 9.832c0 0-.549 1.592.329 2.362.878.769 9.557 5.163 9.557 5.163s2.251 4.669 2.197 7.305c0 0 2.142-.824 1.922-1.868-.219-1.044-1.483-3.79-1.099-5.108.385-1.318 1.813-.933 1.813-.933s.714.769-.44 1.263l.385 1.647 4.669 2.746-1.044 1.263s-.055 9.667-5.767 10.93c0 0-3.021.219-6.591-6.591 0 0-1.922 3.405-1.263 6.372 0 0-6.262 3.405-14.83.44l-.11-5.932s-1.318 9.118-5.822 8.239c0 0-12.477-4.803-10.399-6.628 4.833-4.247 10.67-.658 10.67-.658.283-6.17.799-14.151 1.597-15.014 1.318-1.428 5.382-.659 6.188-2.49.806-1.831.586-5.053-.292-8.788s3.589-6.372 3.589-6.372l6.663 1.611z" fill="#965032"/><path d="M311.27 160.495s-4.486 1.135-8.001-.256l-1.538 3.808h-.878s-2.118-7.048.694-6.965c0 0 .011-2.289 4.921-2.192 4.218.083 5.681 2.822 4.802 5.605z" fill="#464655"/><path d="M235.915 163.43c-.367-.892.248-1.137.248-1.137s4.446-2.44 4.963-2.399c.855.069 1.903 1.571 1.903 2.853s1.67 4.61 5.103 5.437c0 0-4.285 5.822-10.23 5.026-.002.001.397-3.982-1.987-9.78z" fill="#eaf3f5"/><path d="M242.146 190.704c-1.317 0-2.385 1.139-2.385 2.544v29.093c0 7.031 3.296 31.637 26.364 38.667 23.068-7.031 26.364-31.637 26.364-38.667v-29.093c0-1.405-1.068-2.544-2.385-2.544h-47.958z" fill="#82afff"/><path d="M292.489 222.342v-29.093c0-1.405-1.068-2.544-2.385-2.544h-23.979v24.607l23.173 23.173c2.566-6.773 3.191-13.103 3.191-16.143z" fill="#ffe15a"/><path d="M239.761 222.342v-29.093c0-1.405 1.068-2.544 2.385-2.544h23.979v24.607l-23.173 23.173c-2.566-6.773-3.191-13.103-3.191-16.143z" fill="#eaf3f5"/><path fill="#8c5a28" d="M250.578 237.732l6.1 6.451h16.991l3.601-4.616-4.143 1.657h-13.731z"/><path d="M257.148 229.406l-.931 9.39-4.238-1.618c0 .002 1.949-4.524 5.169-7.772z" fill="#f5f5f5"/><g fill="#8c5a28"><path d="M265.51 225.68h.626v15.988h-.626zM271.3 227.04h.626v14.638h-.626zM259.73 227.04h.626v14.638h-.626z"/></g><g fill="#f5f5f5"><path d="M267.939 240.158h-4.227a.52.52 0 0 1-.52-.52v-2.333a.52.52 0 0 1 .52-.52h4.227a.52.52 0 0 1 .52.52v2.333a.52.52 0 0 1-.52.52zM267.939 235.66h-4.227a.52.52 0 0 1-.52-.52v-2.333a.52.52 0 0 1 .52-.52h4.227a.52.52 0 0 1 .52.52v2.333a.52.52 0 0 1-.52.52zM267.939 231.518h-4.227a.52.52 0 0 1-.52-.52v-2.333a.52.52 0 0 1 .52-.52h4.227a.52.52 0 0 1 .52.52v2.333a.52.52 0 0 1-.52.52zM273.378 240.158h-3.516a.52.52 0 0 1-.52-.52v-2.333a.52.52 0 0 1 .52-.52h3.516a.52.52 0 0 1 .52.52v2.333a.52.52 0 0 1-.52.52zM273.378 236.017h-3.516a.52.52 0 0 1-.52-.52v-1.804a.52.52 0 0 1 .52-.52h3.516a.52.52 0 0 1 .52.52v1.804a.52.52 0 0 1-.52.52zM273.378 231.912h-3.516a.52.52 0 0 1-.52-.52v-1.348a.52.52 0 0 1 .52-.52h3.516a.52.52 0 0 1 .52.52v1.348a.52.52 0 0 1-.52.52zM261.807 240.158h-3.516a.52.52 0 0 1-.52-.52v-2.333a.52.52 0 0 1 .52-.52h3.516a.52.52 0 0 1 .52.52v2.333a.52.52 0 0 1-.52.52zM261.807 236.017h-3.516a.52.52 0 0 1-.52-.52v-1.804a.52.52 0 0 1 .52-.52h3.516a.52.52 0 0 1 .52.52v1.804a.52.52 0 0 1-.52.52zM261.807 231.912h-3.516a.52.52 0 0 1-.52-.52v-1.348a.52.52 0 0 1 .52-.52h3.516a.52.52 0 0 1 .52.52v1.348a.52.52 0 0 1-.52.52z"/></g><g fill="#ff4b55"><path d="M271.304 227.04v1.893l-2.785-.963zM259.739 227.04v1.893l-2.783-.963zM265.533 225.681v1.892l-2.785-.963z"/></g><path d="M287.049 243.433h-41.848a39.878 39.878 0 0 0 2.073 3.515h37.7a39.948 39.948 0 0 0 2.075-3.515z" fill="#4173cd"/><path d="M284.975 246.948h-37.701a35.354 35.354 0 0 0 6.152 7.031h25.394a35.28 35.28 0 0 0 6.155-7.031z" fill="#73af00"/><path d="M253.428 253.978c3.373 2.956 7.514 5.45 12.697 7.031 5.184-1.58 9.324-4.075 12.697-7.031h-25.394z" fill="#ffe15a"/><path d="M261.609 217.377s-.257.09-.534.058c-.214-.092-.652-.106-.388-.918.128-.403.397-.971.202-1.117-.158-.183-.328-.381-.512-.592l-1.227-1.421c-.924-1.018-2.018-2.188-3.295-3.342l-1.964-1.783c-.693-.584-1.333-1.239-2.087-1.782-.427-.225-.969-.337-1.444-.513-.463-.186-.753-.538-1.092-.837l-1.947-1.799c-1.283-1.148-2.409-2.287-3.372-3.266a61.242 61.242 0 0 1-2.222-2.338 1.398 1.398 0 0 1 .07-1.947l1.562-1.507a1.398 1.398 0 0 1 1.948-.001 61.665 61.665 0 0 1 2.257 2.304c.944.998 2.043 2.165 3.143 3.487l1.728 2.011c.286.35.627.652.798 1.121.159.48.252 1.027.461 1.461.517.773 1.147 1.437 1.707 2.151l1.711 2.026c1.107 1.317 2.238 2.453 3.222 3.412l1.376 1.277.574.533c.14.2.717-.049 1.123-.162.821-.235.819.203.904.421.021.278-.077.532-.077.532l-2.625 2.531z" fill="#be7855"/><path d="M244.394 220.144a1.319 1.319 0 0 1-1.059-2.101l12.523-16.989a1.319 1.319 0 0 1 2.122 1.566l-12.523 16.989c-.259.35-.658.535-1.063.535z" fill="#965032"/><path fill="#f5f5f5" d="M254.428 199.931l6.518 4.321 2.782-3.881-6.078-4.907z"/><path d="M271.749 198.26l16.703 20.598s2.348.107 2.028-1.761l-17.29-20.278-1.441 1.441z" fill="#965032"/><path d="M268.013 201.089s4.696-.854 6.671-3.789l2.668 3.149s-4.376 3.095-4.803 6.457c0 0-3.575-.961-4.536-5.817z" fill="#eaf3f5"/><g fill="#965032"><path d="M286.05 199.061a.851.851 0 0 1-.755-.457c-.476-.901-.557-1.714-.244-2.421.439-.991 1.471-1.281 1.586-1.311.465-.104.922.16 1.04.613a.853.853 0 0 1-.605 1.037c-.095.03-.375.154-.464.357-.084.2-.014.531.197.93a.855.855 0 0 1-.755 1.252zM272.327 211.769a.851.851 0 0 0-.457-.755c-.901-.476-1.714-.557-2.421-.244-.991.439-1.281 1.471-1.311 1.586-.104.465.16.922.613 1.04a.853.853 0 0 0 1.037-.605c.03-.095.154-.375.357-.464.2-.084.531-.014.93.197a.855.855 0 0 0 1.252-.755z"/></g><path fill="#eaf3f5" d="M286.619 197.141l-15.724 15.438 3.7 4.127 15.367-15.51z"/><path d="M206.752 174.886c1.053-.244 1.977 1.172 1.026 2.197-.952 1.026-3.703 2.878-4.541 2.71-1.464-.294-2.49-3.516 3.515-4.907z" fill="#ffbe3c"/><path d="M326.057 176.368c-.977-.244-1.833 1.172-.95 2.197.883 1.026 3.434 2.878 4.21 2.71 1.357-.293 2.309-3.515-3.26-4.907z" fill="#965032"/><path d="M290.104 190.704c1.317 0 2.385 1.139 2.385 2.544v29.093c0 7.031-3.296 31.637-26.364 38.667-23.068-7.031-26.364-31.637-26.364-38.667v-29.093c0-1.405 1.068-2.544 2.385-2.544h47.958m0-1.758h-47.958c-2.284 0-4.143 1.929-4.143 4.302v29.093c0 1.679.227 10.542 4.698 20.081 4.754 10.14 12.677 17.149 22.913 20.269l.513.156.513-.156c10.236-3.119 18.159-10.129 22.913-20.269 4.471-9.539 4.698-18.4 4.698-20.081v-29.093c-.004-2.372-1.862-4.302-4.147-4.302z" fill="#464655"/><path d="M308.329 261.421c-7.469-2.504-15.483-1.349-23.042 3.693-9.66 6.44-16.064 6.44-19.142 6.44s-9.481 0-19.142-6.44c-7.556-5.039-15.573-6.196-23.042-3.694v7.535c4.706-2.249 11.341-3.191 19.142 2.008 11.432 7.621 19.568 7.621 23.042 7.621s11.61 0 23.042-7.621c7.801-5.204 14.436-4.26 19.142-2.009v-7.533z" fill="#eaf3f5"/><path d="M266.145 301.435c-49.426 0-89.638-40.213-89.638-89.638s40.213-89.638 89.638-89.638 89.638 40.213 89.638 89.638-40.212 89.638-89.638 89.638zm0-175.763c-47.488 0-86.124 38.633-86.124 86.124s38.635 86.124 86.124 86.124 86.124-38.633 86.124-86.124-38.635-86.124-86.124-86.124z" fill="#965032"/><g fill="#73af00"><path d="M168.085 219.266s-.367-10.985 10.18-10.985c0 0 .219 4.321-3.588 6.225-3.08 1.539-6.592 4.76-6.592 4.76z"/><path d="M188.446 219.266s.367-10.985-10.18-10.985c0 0-.219 4.321 3.588 6.225 3.081 1.539 6.592 4.76 6.592 4.76zM364.133 208.28s.367 10.985-10.18 10.985c0 0-.219-4.321 3.588-6.225 3.08-1.539 6.592-4.76 6.592-4.76z"/><path d="M343.772 208.28s-.367 10.985 10.18 10.985c0 0 .219-4.321-3.589-6.225-3.08-1.539-6.591-4.76-6.591-4.76zM271.602 311.796s-10.985.367-10.985-10.18c0 0 4.321-.219 6.225 3.588 1.539 3.081 4.76 6.592 4.76 6.592z"/><path d="M271.602 291.435s-10.985-.367-10.985 10.18c0 0 4.321.219 6.225-3.589 1.539-3.079 4.76-6.591 4.76-6.591zM260.617 115.748s10.985-.367 10.985 10.18c0 0-4.321.219-6.224-3.588-1.541-3.079-4.761-6.592-4.761-6.592z"/><path d="M260.617 136.111s10.985.367 10.985-10.18c0 0-4.321-.219-6.224 3.588-1.541 3.079-4.761 6.592-4.761 6.592zM200.679 286.97s-8.027-7.509-.57-14.965c0 0 3.21 2.9 1.865 6.939-1.088 3.265-1.295 8.026-1.295 8.026z"/><path d="M215.078 272.572s-7.509-8.027-14.965-.57c0 0 2.9 3.21 6.939 1.865 3.264-1.088 8.026-1.295 8.026-1.295zM331.539 140.575s8.027 7.509.57 14.965c0 0-3.21-2.9-1.865-6.939 1.088-3.265 1.295-8.026 1.295-8.026z"/><path d="M317.141 154.973s7.509 8.027 14.965.57c0 0-2.9-3.21-6.939-1.865-3.265 1.089-8.026 1.295-8.026 1.295zM339.306 279.202s-7.509 8.027-14.965.57c0 0 2.9-3.21 6.939-1.865 3.266 1.09 8.026 1.295 8.026 1.295z"/><path d="M324.909 264.805s-8.027 7.509-.57 14.965c0 0 3.21-2.9 1.865-6.939-1.09-3.266-1.295-8.026-1.295-8.026zM192.912 148.344s7.509-8.027 14.965-.57c0 0-2.9 3.21-6.939 1.865-3.266-1.09-8.026-1.295-8.026-1.295z"/><path d="M207.31 162.741s8.027-7.509.57-14.965c0 0-3.21 2.9-1.865 6.939 1.089 3.266 1.295 8.026 1.295 8.026zM177.649 256.36s-4.542-10.009 5.201-14.045c0 0 1.856 3.907-.933 7.124-2.256 2.601-4.268 6.921-4.268 6.921z"/><path d="M196.46 248.567s-3.865-10.289-13.608-6.253c0 0 1.45 4.076 5.698 4.378 3.433.244 7.91 1.875 7.91 1.875zM354.569 171.186s4.542 10.009-5.201 14.045c0 0-1.856-3.907.933-7.124 2.256-2.601 4.268-6.921 4.268-6.921z"/><path d="M335.758 178.978s3.865 10.289 13.608 6.253c0 0-1.45-4.076-5.698-4.378-3.433-.244-7.91-1.875-7.91-1.875zM308.695 302.234s-10.009 4.542-14.045-5.201c0 0 3.907-1.856 7.124.933 2.603 2.256 6.921 4.268 6.921 4.268z"/><path d="M300.904 283.421s-10.289 3.865-6.253 13.608c0 0 4.076-1.45 4.378-5.698.243-3.432 1.875-7.91 1.875-7.91zM223.523 125.312s10.009-4.542 14.045 5.201c0 0-3.907 1.856-7.124-.933-2.603-2.256-6.921-4.268-6.921-4.268z"/><path d="M231.314 144.124s10.289-3.865 6.253-13.608c0 0-4.076 1.45-4.378 5.698-.243 3.433-1.875 7.91-1.875 7.91zM233.672 306.438s-10.289-3.865-6.253-13.608c0 0 4.076 1.45 4.378 5.698.243 3.432 1.875 7.91 1.875 7.91z"/><path d="M241.463 287.625s-10.009-4.542-14.045 5.201c0 0 3.907 1.856 7.124-.933 2.602-2.256 6.921-4.268 6.921-4.268zM298.546 121.108s10.289 3.865 6.253 13.608c0 0-4.076-1.45-4.378-5.698-.243-3.432-1.875-7.91-1.875-7.91z"/><path d="M290.755 139.92s10.009 4.542 14.045-5.201c0 0-3.907-1.856-7.124.933-2.601 2.256-6.921 4.268-6.921 4.268zM358.773 246.211s-3.865 10.289-13.608 6.253c0 0 1.45-4.076 5.698-4.378 3.434-.244 7.91-1.875 7.91-1.875z"/><path d="M339.962 238.418s-4.542 10.009 5.201 14.045c0 0 1.856-3.907-.933-7.124-2.256-2.601-4.268-6.921-4.268-6.921zM173.445 181.335s3.865-10.289 13.608-6.253c0 0-1.45 4.076-5.698 4.378-3.434.243-7.91 1.875-7.91 1.875z"/><path d="M192.256 189.128s4.542-10.009-5.201-14.045c0 0-1.856 3.907.933 7.124 2.256 2.601 4.268 6.921 4.268 6.921zM171.04 238.284s-2.503-10.703 7.841-12.761c0 0 1.058 4.195-2.305 6.805-2.72 2.112-5.536 5.956-5.536 5.956z"/><path d="M191.01 234.311s-1.784-10.846-12.127-8.788c0 0 .627 4.28 4.734 5.406 3.321.909 7.393 3.382 7.393 3.382zM361.178 189.262s2.503 10.703-7.841 12.761c0 0-1.058-4.195 2.305-6.805 2.72-2.112 5.536-5.956 5.536-5.956zM341.208 193.234s1.784 10.846 12.127 8.788c0 0-.627-4.28-4.734-5.406-3.32-.908-7.393-3.382-7.393-3.382zM290.619 308.842s-10.703 2.503-12.761-7.841c0 0 4.195-1.058 6.805 2.305 2.113 2.719 5.956 5.536 5.956 5.536z"/><path d="M286.647 288.871s-10.846 1.784-8.789 12.127c0 0 4.28-.627 5.406-4.734.909-3.32 3.383-7.393 3.383-7.393zM241.599 118.704s10.703-2.503 12.761 7.841c0 0-4.195 1.058-6.805-2.305-2.112-2.721-5.956-5.536-5.956-5.536z"/><path d="M245.571 138.674s10.846-1.784 8.788-12.127c0 0-4.28.627-5.406 4.734-.908 3.321-3.382 7.393-3.382 7.393zM216.217 298.328s-9.337-5.799-3.478-14.567c0 0 3.715 2.217 3.182 6.442-.431 3.416.296 8.125.296 8.125z"/><path d="M227.529 281.399s-8.93-6.408-14.789 2.361c0 0 3.471 2.583 7.17.475 2.99-1.706 7.619-2.836 7.619-2.836zM316.002 129.218s9.337 5.799 3.478 14.567c0 0-3.715-2.218-3.182-6.442.43-3.417-.296-8.125-.296-8.125z"/><path d="M304.689 146.147s8.93 6.408 14.789-2.361c0 0-3.471-2.583-7.17-.475-2.99 1.706-7.619 2.836-7.619 2.836zM350.665 263.665s-5.799 9.337-14.567 3.478c0 0 2.217-3.715 6.442-3.182 3.416.431 8.125-.296 8.125-.296z"/><path d="M333.734 252.353s-6.408 8.93 2.361 14.789c0 0 2.583-3.471.475-7.17-1.705-2.99-2.836-7.619-2.836-7.619zM181.553 163.88s5.799-9.337 14.567-3.478c0 0-2.218 3.715-6.442 3.182-3.415-.43-8.125.296-8.125.296z"/><path d="M198.484 175.193s6.408-8.93-2.361-14.789c0 0-2.583 3.471-.475 7.17 1.704 2.99 2.836 7.619 2.836 7.619zM187.657 272.799s-6.408-8.93 2.361-14.789c0 0 2.583 3.471.475 7.17-1.706 2.99-2.836 7.619-2.836 7.619z"/><path d="M204.587 261.487s-5.799-9.337-14.567-3.478c0 0 2.218 3.715 6.442 3.182 3.415-.431 8.125.296 8.125.296zM344.561 154.747s6.408 8.93-2.361 14.789c0 0-2.583-3.471-.475-7.17 1.706-2.991 2.836-7.619 2.836-7.619z"/><path d="M327.632 166.059s5.799 9.337 14.567 3.478c0 0-2.217-3.715-6.442-3.182-3.416.431-8.125-.296-8.125-.296zM325.135 292.226s-8.93 6.408-14.789-2.361c0 0 3.471-2.583 7.17-.475 2.991 1.705 7.619 2.836 7.619 2.836z"/><path d="M313.823 275.295s-9.337 5.799-3.478 14.567c0 0 3.715-2.217 3.183-6.442-.432-3.416.295-8.125.295-8.125zM207.083 135.32s8.93-6.408 14.789 2.361c0 0-3.471 2.583-7.17.475-2.99-1.705-7.619-2.836-7.619-2.836z"/><path d="M218.395 152.25s9.337-5.799 3.478-14.567c0 0-3.715 2.218-3.182 6.442.431 3.417-.296 8.125-.296 8.125zM252.373 310.985s-10.846-1.784-8.788-12.127c0 0 4.28.627 5.406 4.734.908 3.32 3.382 7.393 3.382 7.393z"/><path d="M256.345 291.015s-10.703-2.503-12.76 7.841c0 0 4.195 1.058 6.805-2.305 2.111-2.72 5.955-5.536 5.955-5.536zM279.845 116.561s10.846 1.784 8.789 12.127c0 0-4.28-.627-5.406-4.734-.909-3.32-3.383-7.393-3.383-7.393z"/><path d="M275.873 136.531s10.703 2.503 12.761-7.841c0 0-4.195-1.058-6.805 2.305-2.112 2.72-5.956 5.536-5.956 5.536zM363.322 227.51s-1.784 10.846-12.127 8.788c0 0 .627-4.28 4.734-5.406 3.32-.909 7.393-3.382 7.393-3.382z"/><path d="M343.351 223.537s-2.503 10.703 7.841 12.761c0 0 1.058-4.195-2.305-6.805-2.721-2.112-5.536-5.956-5.536-5.956zM168.897 200.036s1.784-10.846 12.127-8.788c0 0-.627 4.28-4.734 5.406-3.321.908-7.393 3.382-7.393 3.382z"/><path d="M188.867 204.008s2.503-10.703-7.841-12.761c0 0-1.058 4.195 2.305 6.805 2.72 2.112 5.536 5.956 5.536 5.956z"/></g><path d="M19.203 489.087C8.598 489.087 0 480.49 0 469.884V41.958c0-10.519 8.527-19.045 19.045-19.045h.158c10.606 0 19.203 8.598 19.203 19.203v427.768c.001 10.606-8.597 19.203-19.203 19.203z" fill="#2e3033"/></svg>