<svg xmlns="http://www.w3.org/2000/svg" viewBox="0 0 512 512"><path d="M503.56 374.155H35.87a8.44 8.44 0 0 1-8.44-8.44V65.118a8.44 8.44 0 0 1 8.44-8.44h467.69a8.44 8.44 0 0 1 8.44 8.44v300.597a8.44 8.44 0 0 1-8.44 8.44z" fill="#41479b"/><path fill="#f5f5f5" d="M512 173.643H244.651V56.677h-83.547v116.966H27.43v83.547h133.674v116.965h83.547V257.19H512z"/><path fill="#ff4b55" d="M512 190.352H227.942V56.677h-50.128v133.675H27.43v50.128h150.384v133.675h50.128V240.48H512z"/><path d="M19.122 488.1C8.561 488.1 0 479.539 0 468.979V42.864C0 32.39 8.491 23.9 18.965 23.9h.157c10.561 0 19.122 8.561 19.122 19.122V468.98c0 10.559-8.561 19.12-19.122 19.12z" fill="#2e3033"/></svg>