<svg xmlns="http://www.w3.org/2000/svg" viewBox="0 0 512.1 512.1"><path d="M503.6 373.9H35.4c-4.6 0-8.4-3.7-8.4-8.4v-301c0-4.6 3.7-8.4 8.4-8.4h468.3c4.6 0 8.4 3.7 8.4 8.4v301c-.1 4.6-3.8 8.4-8.5 8.4z" fill="#ff4b55"/><path d="M265.1 215H39.4c-4.6 0-8.4-3.7-8.4-8.4V64.5c0-4.6 3.7-8.4 8.4-8.4h225.8c4.6 0 8.4 3.7 8.4 8.4v142.2c-.1 4.6-3.8 8.3-8.5 8.3z" fill="#41479b"/><path d="M265.1 56.1h-14.5l-77.5 50.7V56.1h-41.8v50.7L53.9 56.1H39.4c-4.6 0-8.4 3.7-8.4 8.4v6.6l66.5 43.5H31v41.8h66.5L31 200v6.6c0 4.6 3.7 8.4 8.4 8.4h14.5l77.5-50.7V215h41.8v-50.7l77.5 50.7h14.5c4.6 0 8.4-3.7 8.4-8.4V200L207 156.5h66.5v-41.8H207l66.5-43.5v-6.6c0-4.7-3.7-8.5-8.4-8.5z" fill="#f5f5f5"/><g fill="#ff4b55"><path d="M273.5 123H164.8V56.1h-25.1V123H31v25.1h108.7V215h25.1v-66.9h108.7z"/><path d="M123 114.7L35 57.5c-2.3 1.5-4 4-4 6.9v.4l76.6 49.7H123v.2zM188.5 114.7l83.7-54.3c-1.5-2.5-4-4.2-7.1-4.2h-1.8l-90.2 58.5h15.4zM115.8 156.5l-83.6 54.2c1.4 2.5 4 4.3 7.2 4.3H41l90.2-58.5h-15.4zM273.4 207.3l-78.3-50.8h-15.4l88.9 57.7c2.7-1.2 4.5-3.8 4.8-6.9z"/></g><path d="M331 137.4c-1.6 0-3 1.3-3 3v110.5c0 9 6 38.8 62.7 47.8 56.7-9 62.7-38.8 62.7-47.8V140.3c0-1.6-1.3-3-3-3l-119.4.1z" fill="#f5f5f5"/><path d="M390.7 298.6c47.4-7.5 59.3-29.5 62-41.8h-124c2.7 12.3 14.7 34.3 62 41.8z" fill="#73af00"/><path d="M429.6 200.1s3-3 0-9l-38.8-1.7-38.8 1.7c-3 6 0 9 0 9-3 3-3 6-3 6h6l6.5 10.7 29.4 16.2 29.4-16.2 6.5-10.7h6c-.2-.1-.2-3-3.2-6z" fill="#82afff"/><path d="M420.1 216.7s-1.9-4.1-6.8-3.6c0 0-2.7-3.6-7.3-2.6 0 0-5.4-3.1-8.5 2.6 0 0-9.9-1-10.4 6.5 0 0 15.4 23.2 15.8 23.5.4.2 18.4.1 18.4.1l8.3-9.2-8.2-11.8-1.3-5.5z" fill="#f5f5f5"/><path d="M391.1 224.1S378 202.8 376.2 201c-1.8-1.7-5.4-3.4-9-.4 0 0-10.8-.9-9.3 7.3l3.1 12.4s-2.7 8.6-4 9.5c-1.2.9-5.8 3.2-5.8 3.2l2.6 10.3 34.8-1.7 2.5-17.5z" fill="#f0c850"/><path d="M406.2 214.8l-1-2.3c-.1-.2-.2-.3-.4-.4-.2-.1-.4-.1-.6 0l-6.5 2.9-7.7-12.6c.3-.3.5-.8.3-1.2-.2-.6-.8-.9-1.4-.7l-1.7.6-1.2-3.4c-.1-.4-.6-.6-.9-.5-.4.1-.6.6-.5.9l1.2 3.5-1.8.7c-.6.2-.9.9-.7 1.4.2.5.6.7 1.1.7h.2l2.5 15.3-1.6.7c-.4.2-.5.6-.4.9l.9 2.6c0 .4 0 1.2-.1 2.1l-10.4-17.9c.4-.3.7-.8.5-1.3-.2-.6-.8-.9-1.4-.7l-1.7.6-1.2-3.4c-.1-.4-.6-.6-.9-.5-.4.1-.6.6-.5.9l1.2 3.5-1.8.7c-.6.2-.9.9-.7 1.4.1.4.5.7.9.7l4.5 28.2c-.6.2-1.2.5-1.8.7 0 0-2.1 10.1-.5 10.6s18.3 5.6 18.3 5.6 23-11 23.5-11.2 1.5-7.5 1.5-7.5l-9.2-21.6zm-1.4.6l-1.9.8-.6-1.6 1.9-.8.6 1.6zm-11.7 3.2l1.6-.7.6 1.5-1.7.7-.5-1.5zm-.8 2.1l-1.9.8-.6-1.5 2-.9.5 1.6zm4.4-1.9l-.6-1.5 1.7-.7.6 1.5-1.7.7zm2.4-2.8l1.7-.8.6 1.6-1.7.7-.6-1.5zm-10.5-13.1l7.7 12.6-3.7 1.6-4.7-14 .7-.2zm-2.7 1l.5-.2 4.8 14.1-2.8 1.2-2.5-15.1zm2.5 16.8l.6 1.4-1.8.8-.5-1.4 1.7-.8zm-14.4-12l11.3 19.4c-.6 1.6-1.6 3.6-3.5 5.4l-8.3-24.6.5-.2zm-2.8 1l.8-.3 8.5 25.2c-1.3 1.1-2.9 2.1-4.9 3.1l-4.4-28z" fill="#965032"/><path d="M432.3 186.6c-.8-1.3-3.3-.7-3.3-.7s-.7-1.5-2.6-1.6-2.3 1.6-2.3 1.6-.4-.3-2.5-.2-1.7 3.5-1.7 3.5-.8 0-3.5-.9-4.5-.2-4.5-.2c-.1-1.4-.9-2.5-.9-2.5-2.3.9-4.1-.1-4.5-.9-.4-.8.7-2.1.7-3.1 0-1.1-1.5-1-2-1.9s0-1.4 1.4-2.1c1.4-.6 2.6-2.8 1.8-4.7-.8-1.8-3.3-1.5-3.3-1.5.8.1 1.5 1.7.2 2.1-1.4.3-2.6-4.6-2.6-4.6 3.1 2.1 5.4.8 6.1-1s-1.1-3.1-1.1-3.1c-1.4 2.2-3.7.3-2.4-1.1 1.3-1.4 1.4-3.7 1.4-3.7-2.8 1.4-4.5-.4-4.5-.4 3.7-2.6 2.6-6.2 2.6-6.2-1.4-.6-4.3-.1-4.3-.1.6-1.2.5-3.5.5-3.5-1.6-.2-3.3.7-3.3.7.5-1.7-.2-4.8-.2-4.8-1.1.2-3.2.8-3.2.8-.9-2-3.3-3.2-3.3-3.2s-2.4 1.2-3.3 3.2c0 0-2.1-.6-3.2-.8 0 0-.7 3-.2 4.8 0 0-1.7-1-3.3-.7 0 0-.1 2.2.5 3.5 0 0-2.9-.5-4.3.1 0 0-1.1 3.6 2.6 6.2 0 0-1.7 1.7-4.5.4 0 0 .1 2.3 1.4 3.7s-1.1 3.3-2.4 1.1c0 0-1.7 1.3-1.1 3.1.7 1.8 2.9 3.1 6.1 1 0 0-1.2 4.9-2.6 4.6-1.4-.3-.7-1.9.2-2.1 0 0-2.4-.3-3.3 1.5-.8 1.8.4 4.1 1.8 4.7 1.4.6 1.9 1.1 1.4 2.1-.5.9-2 .9-2 1.9 0 1.1 1.1 2.3.7 3.1s-2.2 1.9-4.5.9c0 0-.7 1.1-.9 2.5 0 0-1.8-.6-4.5.2s-3.5.9-3.5.9.4-3.5-1.7-3.5c-2.1-.1-2.5.2-2.5.2s-.4-1.7-2.3-1.6c-1.9.1-2.6 1.6-2.6 1.6s-2.5-.5-3.3.7-.9 3.2.6 4 5.5 4.1 5.5 4.1l5.6 2.4 19.6-8.7 10.3 2.7 10.3-2.7 19.6 8.7 5.6-2.4s4-3.3 5.5-4.1c.9-.8.8-2.8 0-4z" fill="#ff4b55"/><path d="M384.6 155s.2 2.6 4.1 1.9c0 0-.1-2.8-4.1-1.9z" fill="#f5f5f5"/><path d="M370.2 259.1s-2.8-.1-5.7 2.1c-2.9 2.1-4.2.6-7.1.6s-3.6 3-3.6 3-5.6 1.4-3.4 5.5c1.4 2.6 3.4 2.5 4.6 2.2-.1 1.7.3 3.7 2.3 4 3.8.7 5.5-1.4 4.7-4.6 0 0 .5 3.3 3 3.2s4.2-1.5 3.9-4.9c-.3-3.4 4.2-1.3 7.7-6.3l-6.4-4.8z" fill="#ff4b55"/><g fill="#82afff"><path d="M353.8 271.1s-1.7 2.3-1.2 4.5c0 0-3.7-1.2-1.7-6.7 0 0 2.5-.7 2.9 2.2zM359.7 274.1s-1 2.9.4 5.5c0 0-4.7-.1-3.7-5.9-.1 0 1.4-1.6 3.3.4zM364.4 273.8s.8 2.4 0 4.8c0 0 3.8-.2 3.2-5.7-.1-.1-2.1-.8-3.2.9z"/></g><g fill="#ff4b55"><path d="M361 218c-.4-2.9-18.4-4.6-17.3 10.6 0 0-2 0-3 1.8-1 1.9-3.1 1.4-3.7.7 0 0 .1 3.4 4.3 3.2 0 0-1.3 1-1.1 2.6.2 1.5 1.3 3.4 1.2 4.8-.1 1.3-1.3 3.1-1.3 3.1s3.2-1.1 3.4-3.4c.2-2.3-.3-4.2.3-5.4 0 0-.3 1.6 1.1 3.7s1.5 4.5.9 6.1c0 0 3.6-1.8 2.9-5.2s-1.4-3.1-1.1-5c0 0 3.7 3.8 3.1 7 0 0 1.2-1.4 1.1-4.1-.1-2.7-2-4.5-2-4.5s12.4-6.1 11.2-16zM411.3 259.1s2.8-.1 5.7 2.1c2.9 2.1 4.2.6 7.1.6s3.6 3 3.6 3 5.6 1.4 3.4 5.5c-1.4 2.6-3.4 2.5-4.6 2.2.1 1.7-.3 3.7-2.3 4-3.8.7-5.5-1.4-4.7-4.6 0 0-.5 3.3-3 3.2-2.5-.1-4.2-1.5-3.9-4.9.3-3.4-4.2-1.3-7.7-6.3l6.4-4.8z"/></g><g fill="#82afff"><path d="M427.7 271.1s1.7 2.3 1.2 4.5c0 0 3.7-1.2 1.7-6.7 0 0-2.5-.7-2.9 2.2zM421.8 274.1s1 2.9-.4 5.5c0 0 4.7-.1 3.7-5.9.1 0-1.4-1.6-3.3.4zM417.1 273.8s-.8 2.4 0 4.8c0 0-3.8-.2-3.2-5.7.1-.1 2.1-.8 3.2.9z"/></g><path d="M420.5 218c.4-2.9 18.4-4.6 17.3 10.6 0 0 2 0 3 1.8 1 1.9 3.1 1.4 3.7.7 0 0-.1 3.4-4.3 3.2 0 0 1.3 1 1.1 2.6-.2 1.5-1.3 3.4-1.2 4.8s1.3 3.1 1.3 3.1-3.2-1.1-3.4-3.4c-.2-2.3.3-4.2-.3-5.4 0 0 .3 1.6-1.1 3.7-1.4 2-1.5 4.5-.9 6.1 0 0-3.6-1.8-2.9-5.2s1.4-3.1 1.1-5c0 0-3.7 3.8-3.1 7 0 0-1.2-1.4-1.1-4.1.1-2.7 2-4.5 2-4.5s-12.4-6.1-11.2-16z" fill="#ff4b55"/><path d="M427.9 192.2c-.7-.5-1.6-.3-2.1.4-.9 1.4-2.2 2.3-3.8 2.5-5.3.9-13-4.3-15.3-6-3.2-2.4-7.2-2.8-9.9-1.2-1.1.4-4.3 1.4-6.1 1.4-1.8 0-5-1-6.1-1.4-2.7-1.6-6.7-1.2-9.9 1.2-2.2 1.6-9.9 6.9-15.3 6-1.6-.3-2.9-1.1-3.8-2.5-.5-.7-1.4-.9-2.1-.4s-.9 1.4-.4 2.1c1.4 2.1 3.3 3.4 5.8 3.8.6.1 1.2.2 1.9.2 5.7 0 12.1-4.1 15.7-6.7 2.6-1.9 5.6-1.9 6.9-.8.3.3.7.7.6 1.3 0 .3-.2.5-.6.8.1-.5-.1-.9-.4-1.3-.6-.6-1.5-.6-2.1 0-.8.8-.8 2-.2 3 .6 1 2 1.7 3.7 1.1.8-.3 1.5-.9 2-1.6 2.3-.7 4.3-.7 4.3-.7s2.1 0 4.3.7c.5.7 1.1 1.3 2 1.6 1.6.6 3-.1 3.7-1.1.6-1 .6-2.2-.2-3-.6-.6-1.5-.6-2.1 0-.4.4-.5.8-.4 1.3-.3-.2-.5-.5-.6-.8-.1-.5.3-1 .6-1.3 1.3-1.1 4.3-1.1 6.9.8 3.5 2.6 10 6.7 15.7 6.7.6 0 1.3 0 1.9-.2 2.4-.4 4.4-1.7 5.8-3.8.5-.8.3-1.7-.4-2.1z" fill="#ffe15a"/><g fill="#82afff"><path d="M352.7 193.8s-.2-3.3-.4-4.4c-.1-1.1-2.1-1.9-2.9-.8-.7 1.1-1 3.1 3.3 5.2zM353.4 192.7s2.9-2.4 2.6-3.6c-.4-1.3-1.2-1.9-2.1-1.5-1 .3-1.5 2.6-.5 5.1zM359.2 190.9c.4-.4.6-2.5-.6-2.7s-2.7 1.6-2.6 3.8c-.1 0 2.4-.3 3.2-1.1zM357.9 192c-1.4.4-2.7 1.6-2.7 1.6s2.4 1.8 4.1 1.2c1.8-.5 1-3.5-1.4-2.8z"/></g><path d="M396.9 155s-.2 2.6-4.1 1.9c0 0 .1-2.8 4.1-1.9z" fill="#f5f5f5"/><g fill="#82afff"><path d="M428.8 193.8s.2-3.3.4-4.4c.1-1.1 2.1-1.9 2.9-.8.7 1.1 1 3.1-3.3 5.2zM428.1 192.7s-2.9-2.4-2.6-3.6c.4-1.3 1.2-1.9 2.1-1.5 1 .3 1.5 2.6.5 5.1zM422.3 190.9c-.4-.4-.6-2.5.6-2.7s2.7 1.6 2.6 3.8c.1 0-2.4-.3-3.2-1.1zM423.6 192c1.4.4 2.7 1.6 2.7 1.6s-2.4 1.8-4.1 1.2c-1.8-.5-1-3.5 1.4-2.8z"/></g><g fill="#464655"><path d="M389.2 161.2l1.2 1.2c.2.2.5.2.7 0l1.2-1.2c.3-.3.1-.9-.4-.9h-2.4c-.4 0-.6.5-.3.9z"/><path d="M388.6 166c-.9 0-1.6-.3-2.2-.9-.5-.6-.8-1.4-.6-2.3 0-.3.3-.5.6-.4.3 0 .5.3.4.6-.1.5.1 1 .4 1.4s.8.6 1.5.5c1.3-.1 1.5-1.3 1.5-1.4v-2.3c0-.3.2-.5.5-.5s.5.2.5.5v2.4c-.1.8-.8 2.3-2.5 2.4h-.1z"/><path d="M392.9 166h-.1c-1.7-.1-2.4-1.5-2.5-2.3v-2.5c0-.3.2-.5.5-.5s.5.2.5.5v2.4c0 .1.3 1.3 1.5 1.3.6 0 1.1-.2 1.5-.5.3-.4.5-.9.4-1.4 0-.3.1-.6.4-.6s.6.1.6.4c.1.8-.1 1.7-.6 2.3-.5.6-1.3.9-2.2.9z"/></g><g fill="#f5f5f5"><path d="M408.7 241.9s-3.7-6-8.1-2-6 8.8-11 8.5c-2.7-.2-4.1-1.5-4.9-2.5 1.3-1.1 2.3-2.7 1.2-5.2-2.2-5.4-10.5-3.7-12.7 2.1 0 0 2.6-8.6-6.5-5.7 0 0-1.1-6-6.3-4.4-2.8.9-3.9 2.6-4.3 4.1-1.1-.3-2.5-.2-3.8.8l6.6 17.8 10 .1 2.2 3.4 13.1 8.2 2.4 5h8.2s.6-5.1 5-6.6 11.4-4.6 12.2-7.3l.7-2.7 8 .1c.9-.6 6.7-10.2 6.7-10.2l2.7-12.3c-1.4-.4-18.6-2.6-21.4 8.8zM430.2 232.8v.1h.1l-.1-.1z"/></g><g fill="#ffe15a"><path d="M376 261c-3.2-1.3-4.4-3.1-4.8-4.1-.4-.9-.3-1.5-.2-1.8.2-.5.5-.8.7-.8.2-.1.5.1.5.1.1.1.2.5.1.6-.6.6-.6 1.5-.1 2.1.6.6 1.5.6 2.1.1.6-.6 1-1.4 1-2.3 0-1-.3-1.9-.9-2.5s-1.9-1.2-3.2-1c-.3 0-.6.2-.9.3.2-2.1-.6-3.1-1.2-3.6-1-.7-2.4-.7-3.6 0s-1.9 1.9-1.7 3.2c.1.8.9 1.3 1.7 1.2.8-.1 1.5-.9 1.4-1.8.2-.2.4-.2.4-.2s.2.3 0 1.4c-.4 1.7-1.2 2.7-2.6 3-1.7.5-3.8-.2-5.1-1.6-1.8-1.9-5.5-12.3-7.7-19.2 9.4-4.5 10.6-11.9 10.4-16.1-.3-6.3-4.1-12.8-8.3-14.1-1.7-.5-4.1-.6-5.9.3-1 .5-1.7 1.3-2 2.4-.6 2.1.7 3.8 2.2 4.3 1.6.6 3.2-.1 3.9-1.7.3-.8 0-1.6-.8-1.9-.8-.3-1.6.1-1.9.8-.1 0-.3 0-.4-.2-.1-.1-.1-.3-.1-.4 0-.2.2-.4.6-.6 1-.5 2.6-.4 3.6-.1 2.4.8 5.9 5.5 6.2 11.4.2 3.5-.9 10-9.8 13.7-.7.3-1.1 1.1-.9 1.8.6 1.9 5.8 18.3 8.7 21.6 1.6 1.7 4 2.8 6.3 2.8.6 0 1.2-.1 1.8-.2 1-.3 1.8-.8 2.6-1.4.1.5.2 1.1.4 1.7.6 1.4 2.2 4 6.6 5.8 9 3.6 9.9 6.1 9.9 6.9 0 .5-.3.7-.5.9-.1.1-.2.1-.3.1.3-.5.4-1.1.1-1.6-.4-.7-1.3-1-2-.6-1 .6-1.7 1.9-1.1 3.4.5 1.1 1.6 1.8 2.9 1.8.2 0 .4 0 .6-.1 1.9-.3 3.2-1.9 3.3-3.8.2-4.6-6.6-7.9-12-10zM405.5 261c3.2-1.3 4.4-3.1 4.8-4.1.4-.9.3-1.5.2-1.8-.2-.5-.5-.8-.7-.8-.2-.1-.5.1-.5.1-.1.1-.2.5-.1.6.6.6.6 1.5.1 2.1-.6.6-1.5.6-2.1.1-.6-.6-1-1.4-1-2.3 0-1 .3-1.9.9-2.5s1.9-1.2 3.2-1c.3 0 .6.2.9.3-.2-2.1.6-3.1 1.2-3.6 1-.7 2.4-.7 3.6 0s1.9 1.9 1.7 3.2c-.1.8-.9 1.3-1.7 1.2-.8-.1-1.5-.9-1.4-1.8-.2-.2-.4-.2-.4-.2s-.2.3 0 1.4c.4 1.7 1.2 2.7 2.6 3 1.7.5 3.8-.2 5.1-1.6 1.8-1.9 5.5-12.3 7.7-19.2-9.4-4.5-10.6-11.9-10.4-16.1.3-6.3 4.1-12.8 8.3-14.1 1.7-.5 4.1-.6 5.9.3 1 .5 1.7 1.3 2 2.4.6 2.1-.7 3.8-2.2 4.3-1.6.6-3.2-.1-3.9-1.7-.3-.8 0-1.6.8-1.9.8-.3 1.6.1 1.9.8.1 0 .3 0 .4-.2.1-.1.1-.3.1-.4 0-.2-.2-.4-.6-.6-1-.5-2.6-.4-3.6-.1-2.4.8-5.9 5.5-6.2 11.4-.2 3.5.9 10 9.8 13.7.7.3 1.1 1.1.9 1.8-.6 1.9-5.8 18.3-8.7 21.6-1.6 1.7-4 2.8-6.3 2.8-.6 0-1.2-.1-1.8-.2-1-.3-1.8-.8-2.6-1.4-.1.5-.2 1.1-.4 1.7-.6 1.4-2.2 4-6.6 5.8-9 3.6-9.9 6.1-9.9 6.9 0 .5.3.7.5.9.1.1.2.1.3.1-.3-.5-.4-1.1-.1-1.6.4-.7 1.3-1 2-.6 1 .6 1.7 1.9 1.1 3.4-.5 1.1-1.6 1.8-2.9 1.8-.2 0-.4 0-.6-.1-1.9-.3-3.2-1.9-3.3-3.8-.2-4.6 6.6-7.9 12-10z"/></g><path d="M19.2 489.1C8.6 489.1 0 480.5 0 469.9V42c0-10.5 8.5-19 19-19h.2c10.6 0 19.2 8.6 19.2 19.2V470c0 10.5-8.6 19.1-19.2 19.1z" fill="#2e3033"/></svg>