<svg xmlns="http://www.w3.org/2000/svg" viewBox="0 0 512.001 512.001"><path d="M503.645 56.677H35.785a8.355 8.355 0 0 0-8.355 8.355V365.8a8.355 8.355 0 0 0 8.355 8.355h467.861a8.355 8.355 0 0 0 8.355-8.355V65.032a8.357 8.357 0 0 0-8.356-8.355z" fill="#82afff"/><g fill="#f5f5f5"><path d="M269.005 277.553c42.496 0 77.068-34.575 77.068-77.068 0-42.495-34.572-77.068-77.068-77.068-42.497 0-77.069 34.575-77.069 77.068 0 42.494 34.572 77.068 77.069 77.068zm8.792-146.077l6.624-2.44a72.732 72.732 0 0 1 25.69 11.027c-.657-.065-2.397-.244-2.697-.345-.37-.123-.944 2.36-.944 2.36l3.04 1.209.829-3.054c3.157 2.172 6.105 4.615 8.879 7.244l-4.469 4.469h-.789l-.643-2.523-2.445-4.394-8.635-3.113-5.972 2.891 3.389 7.338a56.87 56.87 0 0 0-28.674-8.868V133.05l6.085 1.922-2.53-4.458-3.556 1.521v-4.566c2.641.071 5.241.287 7.806.633l-2.989.996 2.001 2.378zm39.994 56.41l1.455-.616.366-3.58c1.559 4.687 2.458 9.66 2.649 14.818h-13.404l.494-2.142 3.787-.329 3.134-5.338-.089-1.001-3.211 4.118-1.961.481-1.249-1.47 1.471-2.498-3.2-2.36-2.875 2.52c-.773-2.794-1.829-5.47-3.192-7.963l1.559-.568 1.25-.746-.011-1.471.802-.997-.464-.285c-.343.162-2.13.683-2.13.683l-.62 2.013-.889.541a37.716 37.716 0 0 0-4.589-6.285l7.391-7.39.064.104 1.801-1.081-.279-.609 2.197-2.197a53.361 53.361 0 0 1 11.275 18.663l-1.84-2.734-.948.353 1.256 7.366zm-9.744 48.845l-3.997-3.998-1.509-4-.776 1.714-1.547-1.547 1.585-4.86-1.026-3.527-.074.009c1.087-1.712 2.066-3.497 2.867-5.382l.019-.002c.247 0 1.153-1.152 1.153-1.152l2.223.247 5.747-2.271-2.206-2.092-1.299-1.161-1.006-2.05-1.801-3.135c.029-.352.036-.709.054-1.064h15.809c-.491 13.217-5.787 25.197-14.216 34.271zm-76.712-2.529l1.979-3.458-4.26-14.888-3.359-8.29 3.047-1.318.823-2.47 2.057-.06c.718 8.366 4.199 15.937 9.515 21.84l-8.728 8.727-1.074-.083zm4.755-36.497l-.042.803h-.536c.018-.304.021-.612.046-.914l.532.111zm50.735 31.205l-.676-.367-8.621 3.333-4.468-1.72-2.078.574v-2.842l2.151-.65 1.305.314 2.745 1.075-1.654-3.027 3.547 2.973 1.701.388-.518-2.268 1.153-3.749 4.02-2.452.348 2.257-4.903 2.666.941 1.876 5.1-1.03.08 2.544c-.057.037-.116.07-.173.105zm-20.317-14.846l-.153-.328-.925.054a13.669 13.669 0 0 1-3.351-1.402l3.439-.418 1.511-4.056v6.204c-.172-.025-.351-.022-.521-.054zm-14.447-8.462l-3.36-.518 1.713-2.624h1.005a17.61 17.61 0 0 0 .642 3.142zm18.92-13.673l.926.281 1.166 1.413-2.092 2.092v-3.786zm6.233 25.118l-1.604 1.878-2.674 1.329-.897-1.571-.54 3.124-.518.203v-3.94c.375-.042.759-.049 1.126-.114l1.28 1.604 1.062-1.322-.083-.883c.59-.188 1.191-.345 1.753-.592l1.095.284zm-1.203-20.773l-.042 2.137-.077.097h-2.115l2.234-2.234zm1.268 7.36l2.558-.081 1.395 1.163-.465.837-1.953-1.116-1.07.837.537 1.603-.022.071-4.486-4.486h2.988l.518 1.172zm-1.692 6.227l-2.444-.263-1.726 4.475c-.142.025-.292.023-.436.044v-8.863l4.606 4.607zM262.9 198.508l-.172-.721-1.715.721h-.76l.251-1.042 1.109-1.074-.88-.199-.914 1.299-.949.436.112.581h-.997l.601-2.335 1.757-1.558 3.894 3.893-1.337-.001zm-7.333 3.953l.405.478.273-.478h1.414l-1.838 1.989a13.663 13.663 0 0 1-.449-1.989h.195zm2.189 6.016l2.554-4.412-.668-.597 1.126-.581.14-.426h1.798l-.413.22-.171.593 1.393-.095-1.036 1.036-1.054.222-.218 1.051-3.243 3.242c-.065-.089-.144-.164-.208-.253zm9.273-21.212l-.738-.114.572 2.371.167.131v6.062l-3.321-3.321 2.331-1.26-2.105-3.488c.981-.389 2.021-.637 3.095-.793l-.001.412zm-31.192 15.196l-.04.752-.166 1.003c-.064-.578-.085-1.169-.12-1.756l.326.001zm1.933 4.693l2.458 2.471 2.016-1.404 4.751 3.987 5.11.899 1.43-4.021a17.719 17.719 0 0 0 1.636 2.439l-4.391 4.39.706-1.8-2.614-.425.837 3.069.124.103-5.902 5.902c-3.847-4.324-6.621-9.621-7.83-15.497l1.669-.113zm20.195 7.164a17.598 17.598 0 0 0 9.064 3.752v4.57l-.044.108.044-.015v3.418l-1.151.231-.668 4.29 1.818-.211v1.361l-2.879.794-.959.924a33.44 33.44 0 0 1-16.465-7.982l11.24-11.24zm33.335 16.305l2.9.615 2.852.088 1.569 1.569-4.792-.174-3.087-1.679c.19-.136.372-.28.558-.419zm2.779-7.859l-.864-.865 1.761-.135c-.285.347-.599.665-.897 1zm4.533-38.126c-1.345.019-2.648.038-2.765.038-.247 0-2.185 1.655-2.185 1.655l-1.48 1.916-.446-2.338 1.049-2.389-.808-.74-3.623 2.305-.768-.388 2.831-2.831.622.206 1.803-.424-.917-1.29 2.154-2.154c1.743 1.962 3.281 4.106 4.533 6.434zm-10.599-5.955l-.173-.554-1.173.186-.729 1.412-3.223.318c.236.472 1.239 2.431 1.329 2.608l-3.998 3.998a17.751 17.751 0 0 0-2.724-1.79l.495-.267-.588-1.986-.4-.732-1.783 1.951c-1.292-.471-2.652-.769-4.063-.927v-15.908a33.412 33.412 0 0 1 20.304 8.42l-3.274 3.271zm-20.984 4.216a17.495 17.495 0 0 0-3.684.809l.592-1.374-3.083 2.422.005.009a17.825 17.825 0 0 0-2.894 1.883l-11.24-11.24a33.41 33.41 0 0 1 20.304-8.42v15.911zm-12.492 5.913l-5.314.929.186-2.019-4.404-1.519-7.042 1.473c1.45-3.498 3.489-6.681 5.969-9.47l10.605 10.606zm-17.057.176l2.211.463-2.65.733c.132-.406.294-.798.439-1.196zm-5.921 9.52h-.342l.359-.332c-.007.11-.011.221-.017.332zm4.213 38.002l8.159-8.158a37.451 37.451 0 0 0 15.84 8.483l-2.811 2.707 6.048 7.993 4.021.222v5.983c-10.555-.389-20.334-3.821-28.468-9.498l1.306-.848-4.095-6.884zm35.209 11.464l5.097.281.13 1.169 3.101 3.397c-2.705.532-5.492.814-8.326.919v-5.766h-.002zm32.374-10.346l1.897 1.897c-.907.843-1.82 1.679-2.784 2.458l.887-4.355zm1.897-76.184l-1.157 1.157-1.373-2.998-2.495-1.327s-2.323-2.051-3.533-3.313a53.733 53.733 0 0 1 8.558 6.481zm-9.095-6.807l1.746 6.11 4.079 3.551.159.26-8.062 8.061c-6.195-5.58-14.236-9.114-23.097-9.579v-15.81a52.92 52.92 0 0 1 25.175 7.407zm-29.128 8.402c-8.861.464-16.902 3.998-23.097 9.579l-11.174-11.174c9.074-8.431 21.055-13.727 34.271-14.214v15.809zm-25.892 12.373c-4.235 4.702-7.305 10.457-8.741 16.841l-3.474 6.255h-13.173c.487-13.216 5.784-25.197 14.213-34.27l11.175 11.174zm-14.119 27.049l-3.754 8.068-5.31-1.975-.997 3.534c-.694-3.115-1.088-6.335-1.209-9.627h11.27zm-3.957 40.016l.613.543-7.677 7.677a73.29 73.29 0 0 1-13.04-19.058l2.041 1.192 13.617 12.116 4.446-2.47zm3.575 3.17l1.859 1.648 6.028-1.146c9.113 6.899 20.321 11.125 32.506 11.544v15.809c-18.663-.502-35.576-8.008-48.238-20.009l7.845-7.846zm44.345 12.045c3.349-.115 6.637-.464 9.818-1.133l.369 2.435 9.419 6.946 10.605-5.884 3.045-6.418-.199-3.971 2.002-4.698-.49-.383c.865-.718 1.672-1.5 2.494-2.267l1.822 1.822.554 3.442 2.069-.82 6.73 6.729c-12.662 12.002-29.576 19.507-48.238 20.009v-15.809zm42.453-15.574l-.378-4.499-.506.023a57 57 0 0 0 13.663-35.181h15.809c-.502 18.662-8.007 35.574-20.007 48.236l-8.581-8.579zm12.779-43.61a56.856 56.856 0 0 0-8.059-27.344l6.719 6.285 5.392-4.631-8.275-12.474-5.462-4.199.015-.402 5.471-5.471c12 12.662 19.505 29.574 20.007 48.237h-15.808v-.001zm-59.184-55.23c-14.305.491-27.272 6.23-37.064 15.374l-11.175-11.174c12.662-12.002 29.576-19.507 48.238-20.009v15.809h.001zm-39.858 18.168c-9.144 9.793-14.881 22.759-15.372 37.063h-15.81c.502-18.662 8.007-35.574 20.007-48.237l11.175 11.174zm-15.374 41.015a56.943 56.943 0 0 0 3.131 16.821l-.597 2.116-15.446-.34c-1.742-5.924-2.724-12.159-2.898-18.598l15.81.001z"/><path d="M215.762 292.046l14.269-2.309c1.275-.207 1.804-1.747.922-2.69-3.432-3.667-10.253-11.261-14.202-17.725-5.434-8.893-15.003-16.224-15.003-16.224s1.829 24.457 20.273 32.856c0 0-18.279-4.611-29.972-7.74-11.692-3.129-14.892-6.573-14.892-6.573s9.128 23.367 38.605 20.405z"/><path d="M201.6 264.71c-.494-6.094-4.948-21.672-13.343-34.549 0 0 .011 31.297 11.123 41.898 0 0-15.73-15.089-25.116-22.005-8.788-6.475-12.68-13.833-12.68-13.833s2.361 19.776 15.15 29.641c8.646 6.67 27.83 11.362 27.83 11.362s-2.469-6.423-2.964-12.514z"/><path d="M171.465 241.324l9.61 8.311c1.002.866 2.564.183 2.585-1.143.053-3.343.257-8.417.979-11.616 1.153-5.105 2.578-21.681-3.239-33.731 0 0-7.033 21.594-1.536 39.577 0 0-8.634-13.728-17.456-24.126-4.61-5.434-6.437-11.841-6.437-11.841s-.151 21.56 15.494 34.569z"/><path d="M168.828 220.052c.753 1.016 2.316.801 2.746-.387 1.264-3.486 3.715-9.754 6.97-15.723 5.928-10.869 3.195-23.661 3.195-23.661s-9.517 16.314-12.276 34.442c-.179-.808-.377-1.672-.612-2.66-2.612-10.98-12.772-38.369-12.772-38.369s-3.573 15.042.894 26.954c2.293 6.115 8.706 15.156 11.855 19.404z"/><path d="M166.868 196.005c.287 1.093 1.817 1.12 2.143.038.909-3.018 2.801-7.18 6.736-11.202 7.41-7.575 13.029-18.09 15.901-27.488 0 0-15.811 12.685-20.796 21.24 0 0 .493-11.763-1.197-20.265-1.441-7.246 1.62-14.227 1.62-14.227s-10.019 9.615-8.537 27.236c.931 11.085 2.841 19.759 4.13 24.668z"/><path d="M176.88 165.802c2.999-2.749 8.252-7.434 13.316-10.274 6.725-3.773 12.042-15.942 13.215-18.649 0 0-18.737 15.332-23.837 20.255 0 0 3.088-13.71 5.064-19.638s1.729-7.904 3.458-10.375c0 0-9.016 7.904-11.486 14.204-2.03 5.177-1.641 16.944-1.918 23.44-.05 1.175 1.321 1.831 2.188 1.037z"/><path d="M195.836 138.237c5.27-4.282 13.668-16.797 13.668-16.797-2.08 1.189-10.54 4.117-17.621 11.362-7.081 7.246-8.563 17.126-8.563 17.126s7.247-7.41 12.516-11.691zM315.496 295.668c-15.48-3.046-28.736-5.27-44.274-1.227-.765.198-1.479.428-2.217.645-.737-.215-1.452-.445-2.217-.645-15.538-4.042-28.795-1.819-44.274 1.227-13.952 2.745-27.312.369-27.312.369s9.691 9.841 31.758 9.841c9.626 0 21.726-8.103 29.36-8.535 1.88-.107 3.737.007 5.576.213-16.393 6.687-23.959 16.827-24.108 17.024a1.972 1.972 0 0 0 .38 2.763c.357.274.775.405 1.192.405.596 0 1.187-.27 1.575-.78.602-.793 12.712-13.319 28.069-17.947 15.358 4.628 27.467 17.154 28.069 17.947a1.976 1.976 0 0 0 3.147-2.388c-.149-.196-7.715-10.337-24.108-17.024 1.84-.205 3.696-.319 5.576-.213 7.634.431 19.733 8.535 29.36 8.535 22.066 0 31.758-9.841 31.758-9.841s-13.358 2.376-27.31-.369zM315.99 285.952c18.444-8.399 20.273-32.856 20.273-32.856s-9.569 7.331-15.003 16.224c-3.95 6.463-10.771 14.058-14.202 17.725-.883.943-.354 2.483.921 2.69l14.269 2.309c29.477 2.965 38.606-20.405 38.606-20.405s-3.201 3.444-14.892 6.573c-11.693 3.129-29.972 7.74-29.972 7.74z"/><path d="M363.747 250.052c-9.386 6.917-25.117 22.005-25.117 22.005 11.112-10.601 11.123-41.898 11.123-41.898-8.395 12.877-12.848 28.456-13.343 34.549-.494 6.093-2.965 12.516-2.965 12.516s19.185-4.694 27.83-11.362c12.789-9.865 15.15-29.641 15.15-29.641s-3.891 7.356-12.678 13.831z"/><path d="M358.147 242.724c5.497-17.984-1.536-39.577-1.536-39.577-5.817 12.049-4.392 28.626-3.239 33.731.723 3.199.927 8.272.979 11.616.021 1.325 1.583 2.01 2.585 1.143l9.61-8.311c15.644-13.009 15.494-34.566 15.494-34.566s-1.826 6.407-6.437 11.841c-8.822 10.395-17.456 24.123-17.456 24.123z"/><path d="M368.547 214.725c-2.759-18.128-12.276-34.442-12.276-34.442s-2.735 12.792 3.194 23.661c3.256 5.969 5.708 12.237 6.97 15.723.43 1.188 1.994 1.403 2.746.387 3.149-4.248 9.563-13.29 11.855-19.404 4.467-11.912.894-26.954.894-26.954s-10.16 27.39-12.773 38.369c-.234.987-.431 1.851-.61 2.66z"/><path d="M368.357 158.327c-1.69 8.501-1.197 20.265-1.197 20.265-4.985-8.554-20.796-21.24-20.796-21.24 2.872 9.398 8.491 19.913 15.901 27.488 3.934 4.023 5.827 8.184 6.735 11.202.326 1.082 1.856 1.055 2.143-.038 1.288-4.909 3.199-13.582 4.131-24.668 1.482-17.621-8.537-27.236-8.537-27.236s3.061 6.981 1.62 14.227z"/><path d="M358.436 157.134c-5.1-4.923-23.837-20.255-23.837-20.255 1.173 2.708 6.49 14.878 13.215 18.649 5.064 2.841 10.317 7.524 13.316 10.274.867.795 2.238.139 2.187-1.037-.277-6.497.113-18.263-1.918-23.44-2.47-6.299-11.486-14.204-11.486-14.204 1.729 2.47 1.482 4.447 3.458 10.375 1.977 5.928 5.065 19.638 5.065 19.638z"/><path d="M342.174 138.237c5.27 4.281 12.516 11.692 12.516 11.692s-1.482-9.88-8.563-17.126-15.539-10.174-17.621-11.362c-.001-.001 8.398 12.514 13.668 16.796zM309.885 178.97l-3.359 2.212 3.584.56 3.915 4.331 2.193-1.413-2.631-5.378zM315.189 197.415l1.243.476 3.149-8.46-.864-1.173-1.359.679-2.162 7.657zM283.579 183.07l-.989-1.05-2.223 2.841.553.859zM306.335 176.464l.6-1.933-1.988.403-.562.158-.59.789 2.149 2.493.871-.739zM266.411 221.728l.031-1.202-1.512 2.19.431.741z"/></g><path d="M19.122 488.1C8.561 488.1 0 479.539 0 468.979V42.864C0 32.39 8.491 23.9 18.965 23.9h.157c10.561 0 19.122 8.561 19.122 19.122V468.98c0 10.559-8.561 19.12-19.122 19.12z" fill="#2e3033"/></svg>