<svg xmlns="http://www.w3.org/2000/svg" viewBox="0 0 512.001 512.001"><path d="M503.602 365.168H36.488a8.398 8.398 0 0 1-8.398-8.398V56.52a8.398 8.398 0 0 1 8.398-8.398h467.115a8.398 8.398 0 0 1 8.398 8.398v300.25a8.399 8.399 0 0 1-8.399 8.398z" fill="#82afff"/><path d="M267.651 147.52l-13.998 41.973-44.244.343c-2.426.019-3.432 3.115-1.48 4.555l35.592 26.283-13.346 42.185c-.732 2.313 1.901 4.226 3.875 2.815l35.996-25.728 35.995 25.728c1.974 1.411 4.606-.503 3.875-2.815l-13.346-42.185 35.592-26.283c1.951-1.441.946-4.537-1.48-4.555l-44.244-.343-13.998-41.973c-.768-2.301-4.022-2.301-4.789 0z" fill="#f5f5f5"/><path d="M19.026 486.943C8.519 486.943 0 478.425 0 467.917V43.929c0-10.422 8.448-18.871 18.87-18.871h.156c10.508 0 19.026 8.519 19.026 19.026v423.831c.001 10.51-8.518 19.028-19.026 19.028z" fill="#2e3033"/></svg>