<svg xmlns="http://www.w3.org/2000/svg" viewBox="0 0 512 512"><path d="M184.263 374.657H28.871a8.476 8.476 0 0 1-8.476-8.476V61.048a8.476 8.476 0 0 1 8.476-8.476h155.392v322.085z" fill="#41479b"/><path fill="#ffe15a" d="M184.27 52.57h163.87v322.08H184.27z"/><path d="M503.524 374.657H348.132V52.572h155.392A8.476 8.476 0 0 1 512 61.048v305.133a8.476 8.476 0 0 1-8.476 8.476z" fill="#41479b"/><path d="M334.004 166.813s-23.585 0-41.275 17.689h11.792s-11.424 20.637-17.321 56.015l-12.161-1.985v-54.206l11.792 3.861-20.637-50.856-20.637 50.856 11.792-3.932v54.276l-12.161 1.985c-5.896-35.377-17.321-56.015-17.321-56.015h11.792c-17.689-17.689-41.275-17.689-41.275-17.689 29.481 35.377 29.481 94.341 29.481 94.341l29.481-4.913v40.291h17.689V256.24l29.481 4.913c.007 0 .007-58.963 29.488-94.34z" fill="#464655"/><path d="M19.203 489.087C8.598 489.087 0 480.49 0 469.884V41.958c0-10.519 8.527-19.045 19.045-19.045h.158c10.606 0 19.203 8.598 19.203 19.203v427.768c.001 10.606-8.597 19.203-19.203 19.203z" fill="#2e3033"/></svg>