<svg xmlns="http://www.w3.org/2000/svg" viewBox="0 0 512 512"><path d="M503.524 374.657H28.871a8.476 8.476 0 0 1-8.476-8.476V61.048a8.476 8.476 0 0 1 8.476-8.476h474.653A8.476 8.476 0 0 1 512 61.048v305.133a8.476 8.476 0 0 1-8.476 8.476z" fill="#4173cd"/><path fill="#ffe15a" d="M512 171.235H240.769V52.572H156.01v118.663H20.395v84.759H156.01v118.663h84.759V255.994H512z"/><path fill="#ff4b55" d="M512 196.663H215.342V52.572h-33.904v144.091H20.395v33.903h161.043v144.091h33.904V230.566H512z"/><path d="M19.203 489.087C8.598 489.087 0 480.49 0 469.884V41.958c0-10.519 8.527-19.045 19.045-19.045h.158c10.606 0 19.203 8.598 19.203 19.203v427.768c.001 10.606-8.597 19.203-19.203 19.203z" fill="#2e3033"/></svg>