<svg xmlns="http://www.w3.org/2000/svg" viewBox="0 0 512 512"><path d="M503.524 374.657H28.871a8.476 8.476 0 0 1-8.476-8.476V61.048a8.476 8.476 0 0 1 8.476-8.476h474.653A8.476 8.476 0 0 1 512 61.048v305.133a8.476 8.476 0 0 1-8.476 8.476z" fill="#ff4b55"/><path d="M512 61.048a8.476 8.476 0 0 0-8.476-8.476h-30.186L266.197 188.284 59.057 52.572H28.871a8.476 8.476 0 0 0-8.476 8.476v16.854l207.14 135.712-207.14 135.713v16.854a8.476 8.476 0 0 0 8.476 8.476h30.186l207.14-135.712 207.14 135.712h30.186a8.476 8.476 0 0 0 8.476-8.476v-16.854l-207.14-135.712L512 77.902V61.048z" fill="#73af00"/><path fill="#f5f5f5" d="M512 192.425H287.387V52.572h-42.38v139.853H20.395v42.379h224.612v139.853h42.38V234.804H512z"/><path d="M19.203 489.087C8.598 489.087 0 480.49 0 469.884V41.958c0-10.519 8.527-19.045 19.045-19.045h.158c10.606 0 19.203 8.598 19.203 19.203v427.768c.001 10.606-8.597 19.203-19.203 19.203z" fill="#2e3033"/></svg>