<svg xmlns="http://www.w3.org/2000/svg" viewBox="0 0 512 512"><path d="M503.56 374.155H35.87a8.44 8.44 0 0 1-8.44-8.44V65.118a8.44 8.44 0 0 1 8.44-8.44h467.69a8.44 8.44 0 0 1 8.44 8.44v300.597a8.44 8.44 0 0 1-8.44 8.44z" fill="#f5f5f5"/><path d="M316.098 145.884c-38.39-25.592-90.242-15.129-115.818 23.194-12.829 19.128-7.615 45.12 11.58 57.917 19.179 12.796 45.088 7.599 57.884-11.596s38.722-24.327 57.902-11.597c19.21 12.796 24.376 38.788 11.563 57.917 25.593-38.389 15.246-90.241-23.111-115.835" fill="#ff4b55"/><path d="M200.28 169.079c-12.829 19.128-7.615 45.12 11.58 57.917 19.179 12.796 45.088 7.599 57.884-11.596s38.722-24.327 57.902-11.597c19.21 12.796 24.376 38.788 11.563 57.917-25.559 38.456-77.394 48.787-115.784 23.194-38.357-25.593-48.738-77.446-23.145-115.835" fill="#41479b"/><g fill="#464655"><path d="M358.604 114.328l15.176 22.809a4.176 4.176 0 0 1-1.154 5.785l-3.849 2.577a4.176 4.176 0 0 1-5.8-1.155l-15.194-22.805a4.177 4.177 0 0 1 1.157-5.791l3.868-2.582a4.178 4.178 0 0 1 5.796 1.162zM382.018 149.499l15.226 22.797a4.178 4.178 0 0 1-1.17 5.806l-3.864 2.554a4.177 4.177 0 0 1-5.776-1.165l-15.217-22.772a4.178 4.178 0 0 1 1.151-5.794l3.856-2.578a4.174 4.174 0 0 1 5.794 1.152zM374.853 103.485l38.642 57.991a4.177 4.177 0 0 1-1.159 5.792l-3.881 2.588a4.178 4.178 0 0 1-5.793-1.158l-38.654-57.987a4.175 4.175 0 0 1 1.162-5.794l3.895-2.592a4.174 4.174 0 0 1 5.788 1.16zM391.057 92.656l15.209 22.856a4.178 4.178 0 0 1-1.174 5.799l-3.868 2.556a4.177 4.177 0 0 1-5.778-1.168l-15.221-22.825a4.177 4.177 0 0 1 1.158-5.793l3.879-2.586a4.178 4.178 0 0 1 5.795 1.161zM414.487 127.901l15.186 22.808a4.178 4.178 0 0 1-1.155 5.788l-3.857 2.578a4.176 4.176 0 0 1-5.798-1.157l-15.186-22.808a4.178 4.178 0 0 1 1.155-5.788l3.857-2.578a4.176 4.176 0 0 1 5.798 1.157zM153.04 251.364l38.637 57.928a4.176 4.176 0 0 1-1.156 5.792l-3.87 2.584a4.177 4.177 0 0 1-5.795-1.156l-38.637-57.928a4.176 4.176 0 0 1 1.156-5.792l3.87-2.584a4.177 4.177 0 0 1 5.795 1.156zM136.819 262.199l15.169 22.753a4.178 4.178 0 0 1-1.152 5.789l-3.848 2.576a4.177 4.177 0 0 1-5.798-1.152l-15.188-22.748a4.178 4.178 0 0 1 1.154-5.794l3.867-2.582a4.18 4.18 0 0 1 5.796 1.158zM160.262 297.381l15.187 22.81a4.178 4.178 0 0 1-1.155 5.788l-3.859 2.579a4.176 4.176 0 0 1-5.797-1.156l-15.196-22.806a4.176 4.176 0 0 1 1.156-5.79l3.869-2.584a4.176 4.176 0 0 1 5.795 1.159zM120.598 273.031l38.612 57.931a4.177 4.177 0 0 1-1.154 5.79l-3.858 2.579a4.178 4.178 0 0 1-5.797-1.155l-38.635-57.924a4.177 4.177 0 0 1 1.158-5.794l3.881-2.587a4.178 4.178 0 0 1 5.793 1.16zM142.226 172.299l38.631-57.975a4.177 4.177 0 0 1 5.795-1.158l3.868 2.583a4.177 4.177 0 0 1 1.156 5.792l-38.646 57.942a4.176 4.176 0 0 1-5.78 1.166l-3.853-2.55a4.179 4.179 0 0 1-1.171-5.8zM125.997 161.478l38.638-57.986a4.176 4.176 0 0 1 5.797-1.156l3.859 2.579a4.177 4.177 0 0 1 1.155 5.789l-38.628 57.99a4.178 4.178 0 0 1-5.796 1.158l-3.869-2.583a4.179 4.179 0 0 1-1.156-5.791zM109.761 150.705l38.642-58.044a4.177 4.177 0 0 1 5.799-1.157l3.858 2.579a4.177 4.177 0 0 1 1.156 5.787l-38.618 58.052a4.179 4.179 0 0 1-5.795 1.163l-3.881-2.587a4.179 4.179 0 0 1-1.161-5.793zM347.788 309.292l15.188-22.747a4.177 4.177 0 0 1 5.798-1.151l3.849 2.577a4.177 4.177 0 0 1 1.151 5.789l-15.169 22.752a4.178 4.178 0 0 1-5.795 1.157l-3.868-2.582a4.18 4.18 0 0 1-1.154-5.795zM371.213 274.228l15.212-22.86a4.178 4.178 0 0 1 5.795-1.162l3.876 2.584a4.176 4.176 0 0 1 1.156 5.796l-15.244 22.824a4.177 4.177 0 0 1-5.781 1.162l-3.844-2.548a4.177 4.177 0 0 1-1.17-5.796zM364.004 320.184l15.197-22.807a4.178 4.178 0 0 1 5.794-1.159l3.885 2.59a4.176 4.176 0 0 1 1.159 5.791l-15.188 22.809a4.18 4.18 0 0 1-5.792 1.163l-3.894-2.592a4.179 4.179 0 0 1-1.161-5.795zM387.453 284.944l15.206-22.753a4.175 4.175 0 0 1 5.79-1.154l3.881 2.588a4.177 4.177 0 0 1 1.156 5.796l-15.205 22.754a4.177 4.177 0 0 1-5.79 1.155l-3.882-2.588a4.179 4.179 0 0 1-1.156-5.798zM380.23 330.956l15.214-22.768a4.176 4.176 0 0 1 5.776-1.164l3.868 2.556a4.177 4.177 0 0 1 1.172 5.803l-15.203 22.798a4.178 4.178 0 0 1-5.793 1.158l-3.879-2.586a4.178 4.178 0 0 1-1.155-5.797zM403.685 295.833l15.176-22.794a4.176 4.176 0 0 1 5.798-1.157l3.854 2.576a4.177 4.177 0 0 1 1.153 5.791l-15.189 22.765a4.177 4.177 0 0 1-5.782 1.164l-3.841-2.547a4.179 4.179 0 0 1-1.169-5.798z"/></g><path d="M19.122 488.1C8.561 488.1 0 479.539 0 468.979V42.864C0 32.39 8.491 23.9 18.965 23.9h.157c10.561 0 19.122 8.561 19.122 19.122V468.98c0 10.559-8.561 19.12-19.122 19.12z" fill="#2e3033"/></svg>