<svg xmlns="http://www.w3.org/2000/svg" viewBox="0 0 512.1 512.1"><path d="M503.6 373.9H35.4c-4.6 0-8.4-3.7-8.4-8.4v-301c0-4.6 3.7-8.4 8.4-8.4h468.3c4.6 0 8.4 3.7 8.4 8.4v301c-.1 4.6-3.8 8.4-8.5 8.4z" fill="#41479b"/><path d="M265.1 56.1h-14.5l-77.5 50.7V56.1h-41.8v50.7L53.8 56.1H39.3c-4.6 0-8.4 3.7-8.4 8.4v6.6l66.5 43.5H31v41.8h66.5L31 200v6.6c0 4.6 3.7 8.4 8.4 8.4h14.5l77.5-50.7V215h41.8v-50.7l77.5 50.7h14.5c4.6 0 8.4-3.7 8.4-8.4V200L207 156.5h66.5v-41.8H207l66.5-43.5v-6.6c0-4.7-3.8-8.5-8.4-8.5z" fill="#f5f5f5"/><g fill="#ff4b55"><path d="M273.5 123H164.8V56.1h-25.1V123H31v25.1h108.7V215h25.1v-66.9h108.7z"/><path d="M122.9 114.7l-88-57.1c-2.3 1.5-4 4-4 6.9v.4l76.6 49.7c.1.1 15.4.1 15.4.1zM188.5 114.7l83.7-54.3c-1.5-2.5-4-4.2-7.1-4.2h-1.8l-90.2 58.5h15.4zM115.7 156.5l-83.6 54.2c1.4 2.5 4 4.3 7.2 4.3h1.6l90.2-58.5h-15.4zM273.3 207.3L195 156.5h-15.4l88.9 57.7c2.7-1.2 4.6-3.8 4.8-6.9z"/></g><g fill="#73af00"><path d="M393.8 140.5c-.2 0-.4-.1-.5-.2-.1-.1-13.1-10.2-5.5-27.4.2-.5.7-.7 1.2-.5s.7.7.5 1.2c-7.1 15.8 4.4 24.8 4.9 25.2.4.3.5.9.2 1.3-.3.3-.5.4-.8.4z"/><path d="M386.3 125.7h-.1c-.5-.1-.8-.5-.8-1 .4-3.2 1.6-5.5 3.6-6.7 3.3-2 7.4-.4 7.5-.3.5.2.7.7.5 1.2s-.7.7-1.2.5c0 0-3.4-1.3-5.9.2-1.5.9-2.4 2.7-2.8 5.4.1.4-.3.7-.8.7zM388.8 114.1c-.1-.2-2-4.8-10.8-2.9-10 2.2-10.1 15.4-10.1 15.5 0 .5.3.8.8.9h.1c.4 0 .8-.3.9-.7 3.7-14.2 17.6-11.8 18.2-11.7.3.1.7-.1.9-.3 0-.2.1-.5 0-.8z"/><path d="M386.7 121.4s-6-3.8-8.5 1.1-.6 10.1.4 12.3c0 0 3.6-4 7-4.5 4.2-.7 5.3-5.9 2.3-8.6-3.5-3.2-1.2-.3-1.2-.3zM393.3 112.4c-.1 5.3 2.8 6 2.8 6 1.9-4.8-2.8-6-2.8-6z"/><path d="M392.3 123.5c0-5 3.4-5.6 3.4-5.6 2.1 4.7-3.4 5.6-3.4 5.6z"/></g><path d="M411.9 119.5s-4.8-.7-6.6-1.6c-1.5-.7-3.5-2.5-6.1-2.1-2 0-3.6 1.6-3.6 3.6s1.4 4.3 8.4 3.8c3.4-.3 6.4 1.3 6.4 1.3-.5-1.9 1.5-5 1.5-5z" fill="#ff4b55"/><path d="M406.9 121s-7.3.5-9-.7c-1.5-1.1-1.1-2.8.4-3 2.4-.2 8.6 3.7 8.6 3.7z" fill="#ffe15a"/><path d="M421.2 129.3L405 139.5l-1.9-1.8 8.9-8.6 2.1.8 2-2.7-4.8-2.5s-12.9 12.1-23.8 13.1c-3.7.3-7.4.1-10.4-1.1l-6.6 9.4 13.8 11.7 20.2-.8 16.7-22.7 2.9 1.4 2.5-2.9-5.4-3.5z" fill="#b49b91"/><path d="M375.9 156.7c-4.5 0-8.2-3.7-8.2-8.2s3.7-8.2 8.2-8.2 8.2 3.7 8.2 8.2-3.6 8.2-8.2 8.2zm0-13.7c-3 0-5.5 2.5-5.5 5.5s2.5 5.5 5.5 5.5 5.5-2.5 5.5-5.5-2.4-5.5-5.5-5.5z" fill="#9b8278"/><g fill="#73af00"><path d="M410.1 164.3s1.5-1 3-5.6l-3.1.5s.6-2.6-.1-4.4l-3.5 2.7s-1.6-3.3-2.3-3.8c0 0-2.4 3.4-3.8 3.8 0 0-1.4-4.9-2.7-5.9l-2.3 3.3-3.5-2.7s0 2.3-.1 2.9c-.1.5-4.5-4.7-4.5-4.7s-2 .8-4.6 5l-3.3-3.4-1.4 4.4-4.6-1.2.8 2.6-4-.3s.7 3.9 2.6 5.3l37.4 1.5zM370.2 181s-12.4 15.8-35.9 14l25.5 3.5 13.1-12.4-2.7-5.1z"/></g><g fill="#ffe15a"><path d="M329.7 192.6c2.5 1.8 17.8 6.2 28.9.9 0 0 .2 2.6-1 4.1 0 0 8.1-3.3 12.5-9.4 4.4-6.1-9.1 13.1-9.1 13.1l-20.7 3.8-8.5-7-2.1-5.5zM328.1 135.8c-2.8.2-5.7 1.9-7.3 3.9-.8-.4-2.7-.5-4.2.5-2 1.4-5.8 6.3-9 5 0 0-.3 4.6 4.6 4.5 0 0-1.2 1.9-1 5 .2 3-2 5.1-2 5.1s9.9 1.4 10.3-6.3c0-.9.1-1.8.1-2.5 5.2 2.8 7.2-1.2 7.2-1.2s-3.1-2.9.1-7.1c3.2-4.2 11.9 5.7 11.9 5.7.3-4.2 0-13.5-10.7-12.6z"/></g><g fill="#73af00"><path d="M366.5 161.8s-2.9 2-11.7.2c0 0 2-4.4 1.1-6.9 0 0-2.4 2.3-8.3 4.5-5.9 2.3-13.1 9.5-15.2 14.1 0 0 13.2-30.4 2.6-33.5-3.6-1.1-6.8.7-7.9 2.3.5.6 1 1.5 1.1 2.7.1 2.6-2.5 20.1-6.3 32.1 0 0-1.1-4.2-2.9-6.2s-3.2-5.3-3.2-5.3-3 2-2.6 5.7c0 0-1.7-1.4-5-.5s-4.5-1.2-4.5-1.2-2.7 7.2 5.3 10.9c0 0-2.1 1-3.2 1.8-1 .8-2.6.8-2.6.8s2.8 5.2 8.8 5.7c6 .6 8.7 2.3 10.6 5.3 6.1 10 17.7 17.5 36.8 5.9 0 0-27.1 8.4-28.3-8.9-1.1-15.1 15.5-18.2 17.1-14.9 1.7 3.3-.2 6.2-.2 6.2s9-2.1 4.7-10.4c.1.3 9 1.6 13.8-10.4zM453.3 192.6c-2.5 1.8-18.2 8.6-29-2.3-10.8-10.8-15-27.1-14.4-25.3h-10.8l3.6 32.5 40.1 7.6 8.5-7 2-5.5zM454.9 135.8c2.8.2 5.7 1.9 7.3 3.9.8-.4 2.7-.5 4.2.5 2 1.4 5.8 6.3 9 5 0 0 .3 4.6-4.6 4.5 0 0 1.2 1.9 1 5-.2 3 2 5.1 2 5.1s-9.9 1.4-10.3-6.3c0-.9-.1-1.8-.1-2.5-5.2 2.8-7.2-1.2-7.2-1.2s3.1-2.9-.1-7.1c-3.2-4.2-11.9 5.7-11.9 5.7-.2-4.2.1-13.5 10.7-12.6z"/></g><path d="M416.6 161.8s2.9 2 11.7.2c0 0-2-4.4-1.1-6.9 0 0 2.4 2.3 8.3 4.5s13.1 9.5 15.2 14.1c0 0-13.2-30.4-2.6-33.5 3.6-1.1 6.8.7 7.9 2.3-.5.6-1 1.5-1.1 2.7-.1 2.6 2.5 20.1 6.3 32.1 0 0 1.1-4.2 2.9-6.2s3.2-5.3 3.2-5.3 3 2 2.6 5.7c0 0 1.7-1.4 5-.5s4.5-1.2 4.5-1.2 2.7 7.2-5.3 10.9c0 0 2.1 1 3.2 1.8 1 .8 2.6.8 2.6.8s-2.8 5.2-8.8 5.7c-6 .6-8.7 2.3-10.6 5.3-6.1 10-17.7 17.5-36.8 5.9 0 0 27.1 8.4 28.3-8.9 1.1-15.1-15.5-18.2-17.1-14.9-1.7 3.3.2 6.2.2 6.2s-9-2.1-4.7-10.4c-.1.3-9 1.6-13.8-10.4z" fill="#ffe15a"/><g fill="#73af00"><path d="M408.9 187c4.4 6.5 10.6 12.3 28.5 17.9s22.7 6.4 32 14c0 0 1.8 1.9 2.5 4.9.8 3.5-4.7 13.8-4.7 13.8s.5-2.4-2.8-7.1c-3.3-4.7-22.9-13.1-33.1-15.6-10.2-2.6-27.9-14.4-23-23.3l.6-4.6zM469.4 218.9c.1 0 .1 0 0 0 .1 0 0 0 0 0z"/></g><g fill="#ffe15a"><path d="M469 240.9s.5 3.3-2.3 6.1c-2.7 2.8-4.6 4.8-4.5 7.2 0 0-4.1-2.9-3.4-9.5 0 0-5.3 4.4-13.3.1 0 0 .8-8 11.2-9 0 0-4.1-3.2 1.2-8 0 0 .6 2.2 5.4 3.3 4.2 1 11.6-4.3 6.1-12.1 9.5 10.6 4.7 17.9-.4 21.9zM405.1 181.1s2.3 3.7 8.2 7.4c7.1 4.4 7.8 6.4 7.8 6.4l-4.8-.1s6.2 3.4 7.9 7.7c0 0-2.6.5-5.5-.3 0 0 2.4 2.1 1.2 9h-12.1l-2.7-30.1z"/></g><path d="M381 212v-28.9s-9.8 16.8-18.3 28.9H381z" fill="#73af00"/><path d="M372.6 182.5c-2.4 4.4-9.9 18.7-27.8 24.3s-21.2 4.5-30.5 12.1c0 0-1.8 1.9-2.5 4.9-.8 3.5 4.7 13.8 4.7 13.8s-.5-2.4 2.8-7.1c3.3-4.7 22.7-13.6 33.1-15.6 14.3-2.9 27.2-18.2 25.1-28.1-2.2-10-4.9-4.3-4.9-4.3z" fill="#ffe15a"/><g fill="#73af00"><path d="M314.3 218.9zM314.7 240.9s-.5 3.3 2.3 6.1c2.7 2.8 4.6 4.8 4.5 7.2 0 0 4.1-2.9 3.4-9.5 0 0 5.3 4.4 13.3.1 0 0-.8-8-11.2-9 0 0 4.1-3.2-1.2-8 0 0-.6 2.2-5.4 3.3-4.2 1-11.6-4.3-6.1-12.1-9.5 10.6-4.6 17.9.4 21.9z"/></g><path d="M339.7 289s2.6 11.5 2.7 23.4c0 0 11.2.4 16.6-8 0 0-10.8-5.6-16.6-16.5l-2.7 1.1z" fill="#ffe15a"/><path d="M337.3 263.6c-.5-5.4 2-19.1 12.9-29l.3-12.2s-3.3.3-6.2 2.9l-6.2 9.6-5.7 21.8 4.9 6.9z" fill="#73af00"/><path d="M337.6 267.5s0 11.6 4.8 20.3l-2.7 1.2s-9.7-7.6-11.7-23.3c0 0-8.7 5.7-11.9-6 0 0 9.3 3.8 12.3-4.8 2.7-7.7 5.5-21.8 15.9-29.6-5 7.6-12.4 27.2-6.7 34.1 1.5 1.8 5.9 3.4 10.8 1.3-.3 3.8-2.1 9.7-10.8 6.8z" fill="#ffe15a"/><path d="M339 291l-1.6-2.9c-.3-.5-.1-1.1.4-1.4l2.9-1.6c.5-.3 1.1-.1 1.4.4l1.6 2.9c.3.5.1 1.1-.4 1.4l-2.9 1.6c-.5.3-1.1.1-1.4-.4z" fill="#ffce5a"/><g fill="#ffe15a"><path d="M436.8 289s-2.6 11.5-2.7 23.4c0 0-11.2.4-16.6-8 0 0 10.8-5.6 16.6-16.5l2.7 1.1zM439.2 263.6c.5-5.4-2-19.1-12.9-29l-.3-12.2s3.3.3 6.2 2.9l6.2 9.6 5.7 21.8-4.9 6.9z"/></g><path d="M428.1 260.7c4.8 2.1 9.2.5 10.8-1.3 5.8-6.9-1.7-26.4-6.7-34.1 10.4 7.8 13.2 21.8 15.9 29.6 3 8.6 12.3 4.8 12.3 4.8-3.2 11.8-11.9 6-11.9 6-2 15.7-11.7 23.3-11.7 23.3l-2.7-1.2c4.8-8.7 4.8-20.3 4.8-20.3-8.7 2.9-10.5-3-10.8-6.8z" fill="#73af00"/><path d="M437.5 291l1.6-2.9c.3-.5.1-1.1-.4-1.4l-2.9-1.6c-.5-.3-1.1-.1-1.4.4l-1.6 2.9c-.3.5-.1 1.1.4 1.4l2.9 1.6c.5.3 1.1.1 1.4-.4z" fill="#ffce5a"/><path d="M352.2 208.4c-2 0-3.6 1.6-3.6 3.6v39.7c0 10.8 3.6 50.5 39.7 64.9 36.1-14.4 39.7-54.1 39.7-64.9V212c0-2-1.6-3.6-3.6-3.6h-72.2z" fill="#4173cd"/><path d="M386.1 208.4L351.9 274c.9 3 1.9 6.2 3.3 9.3l33.1-63.5 33.1 63.5c1.3-3.2 2.4-6.3 3.3-9.3l-34.2-65.6h-4.4z" fill="#ffe15a"/><path d="M421.4 283.3l-33.1-63.5-33.1 63.5c5.5 12.9 15.3 26.2 33.1 33.3 17.8-7.1 27.6-20.4 33.1-33.3z" fill="#73af00"/><path d="M401.7 287.4l2.2 1c-.9 1.4-2.8 3.5-6.5 5.5-2.8 1.5-5.4 3.3-7.3 4.6v-29.8l9-.9v-3.6l-9-.9v-4.5c0-1-.8-1.8-1.8-1.8-.8 0-1.5.6-1.7 1.4-.6-.4-1.3-.7-2.1-.7-2 0-3.7 1.6-3.7 3.7 0 1 .4 1.8 1 2.5l-4.3.4v3.6l9 .9v29.8c-1.9-1.4-4.6-3.1-7.3-4.6-3.6-2-5.5-4.2-6.5-5.5l2.2-1-8.2-10.5v14.4l2.8-1.3c1.1 1.8 3.4 4.6 8 7.1 3.8 2.1 7.6 4.8 9.1 5.9l1.8 1.4 1.8-1.4c1.5-1.1 5.2-3.8 9.1-5.9 4.6-2.5 6.9-5.4 8-7.1l2.8 1.3V277l-8.4 10.4zm-17.2-24.1c-1 0-1.9-.8-1.9-1.9 0-1 .8-1.9 1.9-1.9s1.9.8 1.9 1.9c-.1 1-.9 1.9-1.9 1.9z" fill="#ffe15a"/><path d="M391.1 255.3h-5.6c-1.4 0-2.6-1.2-2.6-2.6v-9.2c0-1.4 1.2-2.6 2.6-2.6h5.6c1.4 0 2.6 1.2 2.6 2.6v9.2c0 1.4-1.2 2.6-2.6 2.6z" fill="#f5f5f5"/><path d="M413.5 208.4c-7.2-10.8-7.2-32.5-7.2-32.5s0-14.4-18-14.4c-9.1 0-13.6 3.7-15.9 7.4-8.7 3.5-13 10.7-13 10.7 3.7 1.8 7 2.7 9.9 3 5.9 7 7.8 13.8 8.4 18.6-3.4 3.5-5.3 11.8-.2 18.1 0 0 10.7-2.5 19.7-10.8l16.3-.1z" fill="#b49b91"/><g fill="#9b8278"><path d="M397.1 208.4h13.5c-.7-6.7-7.2-5.6-13.5 0z"/><path d="M410.3 201.6c-3.9-11.2-3.9-25.7-3.9-25.7v-.6c-4.7-.6-9.5-.3-18.9 3.3-10 3.9-14.9 4-18.1 3.9 5.9 7 7.8 13.8 8.4 18.6l.1 7.7s5.6.8 18-6.3c6.1-3.6 11.4-3.9 14.4-.9zM391 174.3c7.3-1.8 12-1.6 15-.6-.8-4-4.1-12.3-17.8-12.3-9.1 0-13.6 3.7-15.9 7.4l-5.5 7.7c.1 0 7 2.2 24.2-2.2z"/></g><path d="M376.3 159.9c.7.7 2.8 5.8 2.4 6.6-.3.5-5.9 1.9-6.8 1.2-.8-.6-1.8-6.1-1.2-6.8.5-.6 5-1.6 5.6-1z" fill="#ffe15a"/><path d="M383.6 159.6c.7.8 2.1 5.7 1.6 6.4-.4.4-6.7.9-7.5.1-.8-.7-1-5.9-.3-6.4.6-.4 5.7-.7 6.2-.1z" fill="#73af00"/><path d="M390.5 159.4c.7.7 2.2 5.4 1.6 6-.4.4-6.9.8-7.8.1-.8-.7-1-5.5-.3-6 .6-.4 5.9-.6 6.5-.1z" fill="#ffe15a"/><g fill="#73af00"><path d="M397.5 159.8c.6.8 1.7 5.7 1.1 6.3-.4.4-6.7.4-7.5-.4-.7-.7-.5-5.8.2-6.2.6-.5 5.7-.4 6.2.3zM411.9 162.8c.5.9.4 5.4-.3 5.9-.5.3-6.1-.7-6.8-1.7-.6-.8.4-5.8 1.2-6.1.7-.3 5.5 1.1 5.9 1.9z"/></g><path d="M405.2 160.8c.6.8 1 5.4.3 5.9-.4.3-6.9-.2-7.7-1.1-.7-.8-.2-5.5.6-5.8.7-.4 6.4.3 6.8 1z" fill="#ffe15a"/><circle cx="375.9" cy="148.5" r="2.5" fill="#9b8278"/><path d="M19.2 489.1C8.6 489.1 0 480.5 0 469.9V42c0-10.5 8.5-19 19-19h.2c10.6 0 19.2 8.6 19.2 19.2v427.7c0 10.6-8.6 19.2-19.2 19.2z" fill="#2e3033"/></svg>