<svg xmlns="http://www.w3.org/2000/svg" viewBox="0 0 512 512"><path d="M188.953 374.155H35.87a8.44 8.44 0 0 1-8.44-8.44V65.118a8.44 8.44 0 0 1 8.44-8.44h153.083v317.477z" fill="#82afff"/><path fill="#f5f5f5" d="M188.95 56.677h161.52v317.48H188.95z"/><path d="M503.56 374.155H350.477V56.677H503.56a8.44 8.44 0 0 1 8.44 8.44v300.597a8.44 8.44 0 0 1-8.44 8.441z" fill="#82afff"/><path fill="#ffc855" d="M267.607 173.878l-4.791 2.395 4.408 1.821z"/><g fill="#73af00"><path d="M269.715 262.408c-26.627 0-48.29-21.663-48.29-48.29 0-16.541 8.326-31.75 22.271-40.686l1.24 1.936c-13.281 8.511-21.211 22.997-21.211 38.75 0 25.359 20.632 45.99 45.99 45.99v2.3z"/><path d="M242.078 265.422c1.84.375 4.678-.11 7.594-1.469s5.113-3.22 6.009-4.87c-1.84-.375-4.678.111-7.594 1.469-2.915 1.359-5.112 3.22-6.009 4.87zM255.681 259.083c.375-1.84-.111-4.678-1.469-7.594-1.359-2.916-3.22-5.113-4.87-6.009-.375 1.84.111 4.678 1.469 7.594 1.359 2.916 3.22 5.114 4.87 6.009zM232.458 259.516c1.765.64 4.644.578 7.727-.338 3.084-.916 5.53-2.434 6.659-3.934-1.765-.64-4.644-.578-7.727.338-3.084.915-5.531 2.434-6.659 3.934zM246.845 255.244c.64-1.765.578-4.644-.338-7.727-.916-3.084-2.434-5.53-3.934-6.659-.64 1.765-.578 4.644.338 7.727.914 3.084 2.433 5.53 3.934 6.659zM223.559 251.464c1.62.947 4.465 1.402 7.663 1.056 3.198-.347 5.877-1.401 7.257-2.674-1.62-.947-4.465-1.402-7.662-1.056-3.199.347-5.878 1.401-7.258 2.674z"/><path d="M238.478 249.846c.947-1.62 1.402-4.465 1.056-7.662-.347-3.198-1.401-5.877-2.674-7.257-.947 1.62-1.402 4.465-1.056 7.662.347 3.196 1.401 5.876 2.674 7.257zM216.202 240.344c1.427 1.22 4.145 2.171 7.354 2.396 3.208.225 6.033-.339 7.616-1.347-1.427-1.22-4.145-2.171-7.354-2.396-3.208-.225-6.031.339-7.616 1.347zM231.173 241.393c1.22-1.427 2.171-4.145 2.396-7.354.225-3.209-.339-6.033-1.347-7.616-1.22 1.427-2.171 4.145-2.396 7.354-.225 3.208.338 6.032 1.347 7.616zM211.896 228.095c1.139 1.493 3.595 2.994 6.686 3.889s5.969.938 7.729.286c-1.139-1.493-3.595-2.994-6.686-3.889-3.09-.895-5.969-.938-7.729-.286z"/><path d="M226.31 232.269c1.493-1.139 2.994-3.597 3.889-6.686s.938-5.969.286-7.729c-1.493 1.139-2.994 3.596-3.889 6.686-.895 3.089-.938 5.97-.286 7.729zM210.074 213.794c.717 1.735 2.705 3.818 5.461 5.478s5.527 2.441 7.396 2.263c-.717-1.735-2.705-3.818-5.461-5.478-2.755-1.658-5.527-2.441-7.396-2.263z"/><path d="M222.93 221.535c1.735-.717 3.818-2.705 5.478-5.461s2.441-5.527 2.263-7.396c-1.735.717-3.818 2.705-5.478 5.461-1.659 2.756-2.44 5.527-2.263 7.396zM211.801 200.291c.338 1.847 1.844 4.3 4.192 6.501 2.346 2.2 4.892 3.546 6.757 3.763-.338-1.847-1.844-4.3-4.192-6.501-2.346-2.199-4.892-3.545-6.757-3.763z"/><path d="M222.749 210.555c1.847-.338 4.3-1.844 6.501-4.192 2.2-2.346 3.546-4.892 3.763-6.757-1.847.338-4.3 1.844-6.501 4.192-2.199 2.347-3.545 4.893-3.763 6.757zM218.584 185.68c-.386 1.838.08 4.679 1.42 7.603s3.187 5.133 4.831 6.04c.386-1.838-.08-4.679-1.42-7.603-1.34-2.924-3.187-5.132-4.831-6.04zM224.835 199.324c1.838.386 4.679-.08 7.603-1.42s5.133-3.187 6.04-4.831c-1.838-.386-4.679.08-7.603 1.42-2.923 1.34-5.133 3.187-6.04 4.831zM226.696 174.86c-.866 1.666-1.179 4.528-.675 7.705s1.69 5.8 3.03 7.116c.866-1.666 1.179-4.528.675-7.705-.504-3.175-1.69-5.8-3.03-7.116zM229.051 189.682c1.666.866 4.528 1.181 7.705.675 3.177-.504 5.8-1.69 7.116-3.03-1.666-.866-4.528-1.179-7.705-.675-3.177.504-5.8 1.69-7.116 3.03zM234.651 167.33c-1.102 1.52-1.835 4.305-1.803 7.521.032 3.216.818 5.986 1.949 7.485 1.101-1.52 1.835-4.304 1.803-7.521s-.818-5.987-1.949-7.485z"/><path d="M234.797 182.336c1.52 1.102 4.305 1.835 7.521 1.803 3.217-.031 5.986-.818 7.485-1.949-1.52-1.101-4.305-1.834-7.521-1.803-3.217.031-5.987.818-7.485 1.949zM238.657 178.391c1.872.152 4.631-.67 7.363-2.367 2.732-1.698 4.691-3.809 5.383-5.554-1.872-.152-4.631.67-7.363 2.367-2.732 1.698-4.69 3.808-5.383 5.554zM269.715 262.408v-2.3c25.358 0 45.99-20.631 45.99-45.99 0-15.753-7.929-30.24-21.211-38.75l1.24-1.936c13.945 8.935 22.271 24.145 22.271 40.686 0 26.627-21.663 48.29-48.29 48.29z"/><path d="M297.352 265.422c-1.84.375-4.678-.11-7.594-1.469s-5.113-3.22-6.009-4.87c1.84-.375 4.678.111 7.594 1.469 2.916 1.359 5.112 3.22 6.009 4.87z"/><path d="M283.749 259.083c-.375-1.84.11-4.678 1.469-7.594s3.22-5.113 4.87-6.009c.375 1.84-.111 4.678-1.469 7.594-1.359 2.916-3.22 5.114-4.87 6.009zM306.973 259.516c-1.765.64-4.644.578-7.727-.338-3.084-.916-5.53-2.434-6.659-3.934 1.765-.64 4.643-.578 7.727.338 3.083.915 5.53 2.434 6.659 3.934zM292.587 255.244c-.641-1.765-.578-4.644.338-7.727.916-3.084 2.434-5.53 3.934-6.659.64 1.765.578 4.644-.338 7.727-.916 3.084-2.434 5.53-3.934 6.659zM315.872 251.464c-1.62.947-4.465 1.402-7.663 1.056-3.198-.347-5.877-1.401-7.257-2.674 1.62-.947 4.465-1.402 7.662-1.056 3.198.347 5.878 1.401 7.258 2.674z"/><path d="M300.953 249.846c-.947-1.62-1.402-4.465-1.055-7.662s1.401-5.877 2.674-7.257c.947 1.62 1.402 4.465 1.056 7.662-.348 3.196-1.403 5.876-2.675 7.257zM323.228 240.344c-1.427 1.22-4.145 2.171-7.354 2.396-3.208.225-6.033-.339-7.616-1.347 1.427-1.22 4.145-2.171 7.354-2.396s6.033.339 7.616 1.347zM308.258 241.393c-1.22-1.427-2.171-4.145-2.396-7.354-.225-3.208.339-6.033 1.347-7.616 1.22 1.427 2.171 4.145 2.396 7.354.224 3.208-.339 6.032-1.347 7.616zM327.535 228.095c-1.139 1.493-3.595 2.994-6.686 3.889-3.089.895-5.969.938-7.729.286 1.139-1.493 3.597-2.994 6.686-3.889 3.089-.895 5.969-.938 7.729-.286zM313.12 232.269c-1.493-1.139-2.994-3.597-3.889-6.686-.895-3.089-.938-5.969-.286-7.729 1.493 1.139 2.994 3.596 3.889 6.686.895 3.089.939 5.97.286 7.729zM329.357 213.794c-.717 1.735-2.705 3.818-5.461 5.478s-5.527 2.441-7.396 2.263c.717-1.735 2.705-3.818 5.461-5.478 2.756-1.658 5.527-2.441 7.396-2.263zM316.5 221.535c-1.735-.717-3.818-2.705-5.478-5.461s-2.441-5.527-2.263-7.396c1.735.717 3.818 2.705 5.478 5.461 1.659 2.756 2.442 5.527 2.263 7.396zM327.63 200.291c-.338 1.847-1.844 4.3-4.192 6.501-2.346 2.2-4.892 3.546-6.757 3.763.338-1.847 1.844-4.3 4.192-6.501 2.347-2.199 4.891-3.545 6.757-3.763z"/><path d="M316.682 210.555c-1.847-.338-4.3-1.844-6.501-4.192-2.2-2.346-3.546-4.892-3.763-6.757 1.847.338 4.3 1.844 6.501 4.192 2.199 2.347 3.544 4.893 3.763 6.757zM320.846 185.68c.386 1.838-.08 4.679-1.42 7.603-1.34 2.924-3.187 5.133-4.831 6.04-.386-1.838.08-4.679 1.42-7.603 1.34-2.923 3.187-5.132 4.831-6.04zM314.595 199.324c-1.838.386-4.679-.08-7.603-1.42s-5.134-3.187-6.04-4.831c1.838-.386 4.679.08 7.603 1.42 2.923 1.34 5.133 3.187 6.04 4.831zM312.734 174.86c.866 1.666 1.18 4.528.675 7.705-.504 3.177-1.69 5.8-3.03 7.116-.866-1.666-1.18-4.528-.675-7.705.505-3.175 1.69-5.8 3.03-7.116z"/><path d="M310.38 189.682c-1.666.866-4.528 1.181-7.705.675-3.177-.504-5.8-1.69-7.116-3.03 1.666-.866 4.528-1.179 7.705-.675 3.176.504 5.801 1.69 7.116 3.03zM304.779 167.33c1.101 1.52 1.835 4.305 1.803 7.521s-.818 5.986-1.949 7.485c-1.102-1.52-1.835-4.304-1.803-7.521.032-3.217.818-5.987 1.949-7.485z"/><path d="M304.634 182.336c-1.52 1.102-4.305 1.835-7.521 1.803-3.217-.031-5.986-.818-7.485-1.949 1.52-1.101 4.305-1.834 7.521-1.803 3.216.031 5.986.818 7.485 1.949zM300.773 178.391c-1.872.152-4.631-.67-7.363-2.367-2.732-1.698-4.691-3.809-5.383-5.554 1.872-.152 4.632.67 7.363 2.367 2.732 1.698 4.69 3.808 5.383 5.554z"/></g><path d="M243.354 251.713l-8.37 8.37-4.127-8.255 12.383-12.383 4.127 4.127-1.192 3.576a11.688 11.688 0 0 1-2.821 4.565z" fill="#966446"/><path d="M288.641 189.916l-45.402 45.402a2.92 2.92 0 0 0 0 4.127l2.064 2.064 8.255-8.255 33.02-37.148 4.127-4.127-2.064-2.063z" fill="#b9b9b9"/><path d="M254.412 228.272a2.918 2.918 0 0 0-.855 2.064v2.918l33.02-37.148-32.165 32.166z" fill="#966446"/><path fill="#a0a0a0" d="M290.704 191.98l-2.063-2.064-2.064 2.064 2.064 2.063 2.063 2.064 22.702-26.829z"/><path d="M298.376 251.713l8.37 8.37 4.127-8.255-12.383-12.383-4.127 4.127 1.192 3.576a11.688 11.688 0 0 0 2.821 4.565z" fill="#966446"/><path d="M253.089 189.916l45.402 45.402a2.92 2.92 0 0 1 0 4.127l-2.064 2.064-8.255-8.255-33.02-37.148-4.127-4.127 2.064-2.063z" fill="#b9b9b9"/><path d="M287.318 228.272c.548.548.855 1.29.855 2.064v2.918l-33.02-37.148 32.165 32.166z" fill="#966446"/><path fill="#a0a0a0" d="M251.026 191.98l2.063-2.064 2.064 2.064-2.064 2.063-2.063 2.064-22.702-26.829z"/><path d="M253.925 249.995l2.051 1.871c7.482-8.204 20.577-22.559 41.334-41.197 0 0-17.197 10.616-43.385 39.326z" fill="#b9b9b9"/><path d="M248.122 258.417a1.805 1.805 0 0 1-.117-2.549l4.396-4.819a1.805 1.805 0 0 1 2.666 2.432l-4.396 4.819a1.804 1.804 0 0 1-2.549.117z" fill="#ffe15a"/><path d="M252.259 248.477l-1.191.53c-1.059.527-3.846 2.104-4.326 4.349-.229 1.065.094 2.101.92 3.082.078-.203.186-.399.342-.569l.553-.607c-.375-.543-.573-1.077-.459-1.612.301-1.405 2.175-2.659 3.352-3.28l5.266 4.803 1.309-1.436-5.766-5.26z" fill="#ffc855"/><path d="M287.785 252.267l-2.051 1.871c-7.482-8.204-20.577-22.559-41.334-41.197 0 0 17.197 10.614 43.385 39.326z" fill="#b9b9b9"/><path d="M293.588 260.688a1.804 1.804 0 0 0 .117-2.549l-4.396-4.819a1.805 1.805 0 0 0-2.666 2.432l4.396 4.819a1.804 1.804 0 0 0 2.549.117z" fill="#ffe15a"/><path d="M289.45 250.749l1.191.531c1.059.528 3.845 2.104 4.326 4.349.229 1.065-.094 2.099-.92 3.082a1.782 1.782 0 0 0-.342-.57l-.553-.607c.375-.543.573-1.076.459-1.612-.301-1.405-2.175-2.659-3.352-3.28l-5.266 4.803-1.309-1.436 5.766-5.26z" fill="#ffc855"/><path d="M271.761 176.316a3.43 3.43 0 0 0 .254-1.288 3.45 3.45 0 0 0-6.898 0c0 1.135.556 2.134 1.402 2.763-1.246 10.018 8.63 10.783 12.394 12.184 5.711 2.125 12.874 6.424 12.424 18.44-.438 11.681-7.825 22.951-7.825 22.951l6.132-8.336c-2.243 9.483-7.478 21.563-19.929 35.929 0 0 8.513-8.328 15.617-19.067-5.227 12.297-11.018 23.666-11.018 23.666s10.251-13.318 18.54-36.361c10.048-27.937-11.089-44.721-21.093-50.881z" fill="#69b469"/><path fill="#f4e08f" d="M253.62 217.56h9.199v4.599h-9.199z"/><g fill="#ecd077"><path d="M258.162 221.44a4.603 4.603 0 0 1-5.27 5.27c-1.937-.296-3.519-1.879-3.816-3.816a4.603 4.603 0 0 1 5.27-5.27c1.937.296 3.519 1.879 3.816 3.816zM258.162 191.546a4.603 4.603 0 0 1-5.27 5.27c-1.937-.296-3.519-1.879-3.816-3.816a4.603 4.603 0 0 1 5.27-5.27c1.937.297 3.519 1.88 3.816 3.816z"/></g><path d="M281.212 196.873a4.599 4.599 0 1 0 0-9.198h-27.594a4.599 4.599 0 1 1-4.599 4.599c0 7.719 6.461 17.054 8.543 25.295 0 0 .654 2.059.654 4.599s-2.059 4.599-4.599 4.599h27.594a4.599 4.599 0 0 0 4.599-4.599c0-7.719-6.461-17.054-8.543-25.295h3.945z" fill="#fcf0a8"/><g fill="#f4e08f"><path d="M258.218 192.273a4.6 4.6 0 0 1-4.599 4.599h27.594a4.599 4.599 0 0 0 4.599-4.599h-27.594zM258.218 222.167a4.6 4.6 0 0 1-4.599 4.599h27.594a4.599 4.599 0 0 0 4.599-4.599h-27.594z"/></g><path d="M19.122 488.1C8.561 488.1 0 479.539 0 468.979V42.864C0 32.39 8.491 23.9 18.965 23.9h.157c10.561 0 19.122 8.561 19.122 19.122V468.98c0 10.559-8.561 19.12-19.122 19.12z" fill="#2e3033"/></svg>