<svg xmlns="http://www.w3.org/2000/svg" viewBox="0 0 512.001 512.001"><path d="M503.524 374.658H28.87a8.476 8.476 0 0 1-8.476-8.476V61.047a8.476 8.476 0 0 1 8.476-8.476h474.655a8.476 8.476 0 0 1 8.476 8.476v305.135a8.477 8.477 0 0 1-8.477 8.476z" fill="#ff4b55"/><path d="M358.903 253.743c-4.635-2.914-7.416 1.722-7.416 1.722l-13.509 1.589 6.754-5.695c4.9.397 5.562-1.059 6.887-3.046s6.887-1.059 6.887-1.059c-.795-6.092-8.476-2.649-8.476-2.649-6.225-.662-7.284 4.37-7.284 4.37l-9.668 7.416-21.277-6.304c2.207-2.432 3.939-4.827 4.192-6.278.424-2.436-15.715-6.534-20.66-11.654-4.944-5.122-6.71-13.244-4.414-15.363 2.295-2.119 4.238 3.884 6.71 8.829 2.473 4.945 7.064 8.829 10.065 6.357s-3.178-6.18-6.004-11.478c-2.825-5.297 2.119-7.241 4.415-6.711 2.296.53 3.708 11.479 9.183 17.129 5.473 5.65 10.418 4.591 10.948 1.059.53-3.531-9.034-7.883-10.977-10.885-1.942-3.002-2.443-8.892.735-9.068 3.178-.177 14.833 17.192 24.722 23.839 10.771 7.24 19.424-1.236 18.011-4.768-1.412-3.532-7.946-2.119-15.54-4.062-7.593-1.942-15.363-12.184-17.659-17.834s-.397-5.65.927-5.121c1.324.53 6.357 7.946 16.025 13.641s16.422.265 17.217-1.059 3.849-7.269-6.092-5.872c-11.301 1.589-17.747-5.121-22.382-8.696-4.635-3.576-6.489-8.476-4.37-10.463s9.095 6.975 19.69 9.8c9.733 2.595 13.685-1.589 13.42-5.43-.265-3.841-2.516-2.251-13.509-3.311-10.992-1.059-18.674-11.39-19.071-12.052s-.265-4.37 5.297-.795 15.495 5.695 21.322 5.43c5.827-.265 7.019-8.079 4.238-9.403s-3.443.662-9.8 1.987-18.276-5.165-21.19-8.211.265-5.033 1.722-4.768c1.457.265 10.992 5.827 19.468 5.562 8.476-.265 12.052-8.079 11.787-10.463s-2.649-4.37-6.225-1.987c-3.576 2.384-8.344 5.165-16.29 3.841-7.946-1.324-11.654-6.622-10.595-8.608 1.06-1.987 8.741 1.457 20.925.132 12.184-1.324 12.714-12.052 11.522-14.171s-4.106-1.457-8.211 2.384-12.052 4.635-18.276 4.635c-6.225 0-6.357-3.046-5.43-5.165s7.549-1.589 16.819-4.503c9.271-2.914 14.568-10.33 16.025-14.965 1.457-4.635-2.119-8.211-3.576-8.211s-.53-2.119-6.887 7.019-23.044 12.714-23.044 12.714c-1.192-2.251-3.046-3.046-3.046-3.046-11.257 2.251-24.836 11.971-24.836 11.971s2.393 7.677-.598 13.661c-3.851 7.703-17.052 2.891-13.462-9.274 2.989-10.13 14.559-16.254 24.331-17.351 9.773-1.097 10.271-4.787 10.271-4.787s-10.262 3.342-10.446-1.245c2.119.43 5.242.618 10.545.148 7.878-.697 12.266-6.283 8.776-7.479-3.49-1.196-1.994 2.393-7.978 5.186-4.268 1.992-8.747 1.094-10.989.414 2.071-4.522 10.79-2.209 10.79-2.209.1-7.878-10.353-5.06-10.353-5.06-4.591-9.889-31.432 1.589-31.432 1.589l6.357 5.121c-15.54 8.653-18.718 25.075-18.718 25.075s-3.178-16.422-18.718-25.075l6.357-5.121s-26.841-11.479-31.432-1.589c0 0-10.454-2.817-10.353 5.06 0 0 8.719-2.313 10.79 2.209-2.242.681-6.721 1.578-10.989-.414-5.983-2.793-4.487-6.381-7.978-5.186-3.49 1.196.897 6.781 8.776 7.479 5.303.469 8.426.283 10.545-.148-.183 4.587-10.446 1.245-10.446 1.245s.499 3.689 10.271 4.787c9.773 1.098 21.342 7.222 24.331 17.351 3.59 12.165-9.611 16.975-13.462 9.274-2.992-5.983-.598-13.661-.598-13.661s-13.578-9.72-24.836-11.971c0 0-1.854.795-3.046 3.046 0 0-16.687-3.576-23.044-12.714-6.357-9.138-5.43-7.019-6.887-7.019s-5.033 3.576-3.576 8.211 6.754 12.052 16.025 14.965c9.271 2.914 15.892 2.384 16.819 4.503s.795 5.165-5.43 5.165-14.171-.795-18.276-4.635-7.019-4.503-8.211-2.384-.662 12.846 11.522 14.171c12.184 1.324 19.866-2.119 20.925-.132 1.06 1.987-2.649 7.284-10.595 8.608s-12.714-1.457-16.29-3.841-5.96-.397-6.225 1.987 3.311 10.198 11.787 10.463 18.011-5.297 19.468-5.562 4.635 1.722 1.722 4.768c-2.914 3.046-14.833 9.535-21.19 8.211-6.357-1.324-7.019-3.311-9.8-1.987s-1.589 9.138 4.238 9.403 15.76-1.854 21.322-5.43 5.695.132 5.297.795-8.079 10.992-19.071 12.052-13.244-.53-13.509 3.311 3.688 8.025 13.421 5.43c10.595-2.826 17.571-11.787 19.69-9.8s.265 6.887-4.37 10.463-11.081 10.286-22.382 8.696c-9.941-1.397-6.887 4.547-6.092 5.872.795 1.324 7.549 6.754 17.217 1.059 9.668-5.695 14.7-13.111 16.025-13.641 1.324-.53 3.223-.53.927 5.121s-10.065 15.892-17.659 17.834c-7.593 1.943-14.127.53-15.54 4.062-1.412 3.531 7.24 12.007 18.011 4.768 9.889-6.646 21.544-24.016 24.722-23.839 3.178.176 2.677 6.067.735 9.068-1.942 3.003-11.507 7.354-10.977 10.885.53 3.531 5.473 4.591 10.948-1.059 5.474-5.65 6.887-16.599 9.183-17.129 2.295-.53 7.24 1.413 4.414 6.711-2.825 5.297-9.006 9.006-6.003 11.478 3.002 2.472 7.593-1.412 10.065-6.357 2.472-4.945 4.414-10.948 6.71-8.829s.53 10.241-4.415 15.363c-4.944 5.121-21.084 9.219-20.66 11.654.252 1.45 1.984 3.846 4.192 6.278l-21.277 6.304-9.668-7.416s-1.059-5.033-7.284-4.37c0 0-7.681-3.443-8.476 2.649 0 0 5.562-.927 6.887 1.059 1.324 1.987 1.987 3.443 6.887 3.046l6.754 5.695-13.509-1.589s-2.781-4.635-7.416-1.722c0 0-5.827-1.854-7.284 3.708 0 0 5.033-.927 6.357-.265 0 0 1.987 4.503 8.344 1.854l13.376.662-7.549 3.708s-9.535-3.046-9.138 4.9c0 0-2.781 3.178-.265 6.357 0 0 .53-3.443 3.046-4.9 0 0 4.9 1.987 8.079-3.841l9.668-5.827 9.535 4.635s-.265 5.165 6.754 3.046c0 0 2.384 1.589 3.046 3.708 0 0 3.046-3.311-1.854-7.152 0 0-1.192-4.503-7.019-2.781l-5.43-2.781 20.091-5.962c3.478 3.313 7.232 6.029 8.546 5.574 2.593-.897 4.588-3.59 6.381-7.379 1.795-3.79 9.872-16.952 13.861-16.851 3.989.1 5.784 3.29 4.787 8.975-.997 5.683-8.77 16.572-13.803 18.823-5.033 2.251-5.827 3.311-10.463 2.914-4.635-.397-6.225 1.589-5.165 4.238s6.273 4.333 11.39 2.384c5.562-2.119 7.681-5.033 9.8-3.311s-2.251 7.946-8.211 9.8c-5.96 1.854-10.463.662-9.535 4.37.927 3.708 7.284 3.973 11.39 1.589s8.741-9.006 9.933-6.887c1.192 2.119.397 7.549-3.576 10.462-3.973 2.914-8.493 1.199-9.403 3.841-1.324 3.841 3.311 6.357 6.887 4.9s7.681-5.96 9.535-9.933 5.297-.53 4.238 3.178c-1.06 3.708-.177 6.754-7.769 12.582l14.127 21.72 14.127-21.72c-7.593-5.827-6.71-8.873-7.769-12.582-1.06-3.708 2.384-7.152 4.238-3.178s5.96 8.476 9.535 9.933 8.211-1.059 6.887-4.9c-.91-2.641-5.43-.927-9.403-3.841-3.973-2.914-4.768-8.344-3.576-10.462s5.827 4.503 9.933 6.887c4.106 2.384 10.463 2.119 11.39-1.589.927-3.708-3.576-2.516-9.535-4.37-5.96-1.854-10.33-8.079-8.211-9.8s4.238 1.192 9.8 3.311c5.116 1.949 10.33.265 11.39-2.384 1.059-2.649-.53-4.635-5.165-4.238s-5.43-.662-10.463-2.914c-5.033-2.251-12.806-13.139-13.803-18.823-.997-5.684.798-8.875 4.787-8.975 3.989-.101 12.066 13.061 13.861 16.851 1.795 3.79 3.789 6.482 6.381 7.379 1.315.456 5.069-2.261 8.546-5.574l20.091 5.962-5.43 2.781c-5.827-1.722-7.019 2.781-7.019 2.781-4.9 3.841-1.854 7.152-1.854 7.152.662-2.119 3.046-3.708 3.046-3.708 7.019 2.119 6.754-3.046 6.754-3.046l9.535-4.635 9.668 5.827c3.178 5.827 8.079 3.841 8.079 3.841 2.516 1.457 3.046 4.9 3.046 4.9 2.516-3.178-.265-6.357-.265-6.357.397-7.946-9.138-4.9-9.138-4.9l-7.549-3.708 13.376-.662c6.357 2.649 8.344-1.854 8.344-1.854 1.324-.662 6.357.265 6.357.265-1.457-5.562-7.284-3.708-7.284-3.708z" fill="#464655"/><path d="M19.203 489.089C8.598 489.089 0 480.492 0 469.886V41.957c0-10.519 8.527-19.045 19.045-19.045h.158c10.606 0 19.203 8.598 19.203 19.203v427.771c.001 10.606-8.597 19.203-19.203 19.203z" fill="#2e3033"/></svg>