<svg xmlns="http://www.w3.org/2000/svg" viewBox="0 0 512 512"><path d="M503.56 374.155H152.75V56.677h350.81a8.44 8.44 0 0 1 8.44 8.44v300.597a8.44 8.44 0 0 1-8.44 8.441z" fill="#73af00"/><g fill="#f5f5f5"><path d="M152.75 374.155H35.87a8.44 8.44 0 0 1-8.44-8.44V65.118a8.44 8.44 0 0 1 8.44-8.44h116.88v317.477zM417.407 259.13c-38.456 34.258-97.323 30.736-131.512-7.787-34.123-38.453-30.669-97.491 7.785-131.747l.169-.149c.908-.8.031-2.249-1.097-1.81-37.923 14.768-64.81 51.655-64.81 94.845 0 56.259 45.496 101.824 101.621 101.824 38.825 0 72.471-21.846 89.564-53.917.571-1.07-.767-2.112-1.67-1.303l-.05.044zM367.942 136.475l13.364 14.993 18.512-7.79c2.397-1.009 4.698 1.614 3.387 3.859l-10.129 17.342 13.13 15.198c1.7 1.968-.083 4.967-2.624 4.413l-19.624-4.275-10.397 17.183c-1.346 2.225-4.75 1.456-5.008-1.132l-1.998-19.984-19.556-4.579c-2.532-.593-2.852-4.067-.472-5.113l18.389-8.076-1.689-20.012c-.22-2.591 2.985-3.968 4.715-2.027z"/></g><path d="M19.122 488.1C8.561 488.1 0 479.539 0 468.979V42.864C0 32.39 8.491 23.9 18.965 23.9h.157c10.561 0 19.122 8.561 19.122 19.122V468.98c0 10.559-8.561 19.12-19.122 19.12z" fill="#2e3033"/></svg>