<svg xmlns="http://www.w3.org/2000/svg" viewBox="0 0 512.1 512.1"><path d="M27 91.4h485V64.5c0-4.6-3.7-8.4-8.4-8.4H35.4c-4.6 0-8.4 3.7-8.4 8.4v26.9z" fill="#ffe15a"/><path fill="#ff4b55" d="M27 91.4h485v35.3H27z"/><path fill="#ffe15a" d="M27 126.7h485V162H27z"/><path fill="#ff4b55" d="M27 162h485v35.3H27z"/><g fill="#ffe15a"><path d="M27 197.3h485v35.3H27zM35.4 373.9h468.3c4.6 0 8.4-3.7 8.4-8.4v-26.9H27v26.9c0 4.6 3.7 8.4 8.4 8.4z"/></g><path fill="#ff4b55" d="M27 232.7h485V268H27z"/><path fill="#ffe15a" d="M27 268h485v35.3H27z"/><path fill="#ff4b55" d="M27 303.3h485v35.3H27z"/><path d="M264.7 217.2H35.9c-4.7 0-8.5-3.8-8.5-8.5V64.6c0-4.7 3.8-8.5 8.5-8.5h228.9c4.7 0 8.5 3.8 8.5 8.5v144.1c-.1 4.7-3.9 8.5-8.6 8.5z" fill="#64466e"/><path d="M254.1 124.3h-18.9v-21.6h2.7v-5.4h-27v5.4h2.7v21.6h-10.8v-21.6h2.7v-5.4h-27v5.4h2.7v21.6H165v-27h2.7v-5.4h-27v5.4h2.7v27h-16.2v-21.6h2.7v-5.4H103v5.4h2.7v21.6H95v-21.6h2.7v-5.4h-27v5.4h2.7v21.6H51.8v5.4h2.7v48.6h37.8v-16.2c0-3 2.4-5.4 5.4-5.4s5.4 2.4 5.4 5.4v16.2h27v-16.2c0-3 2.4-5.4 5.4-5.4s5.4 2.4 5.4 5.4v16.2h5.4v-18.9c0-4.5 3.6-8.1 8.1-8.1s8.1 3.6 8.1 8.1v18.9h5.4v-16.2c0-3 2.4-5.4 5.4-5.4s5.4 2.4 5.4 5.4v16.2h27v-16.2c0-3 2.4-5.4 5.4-5.4s5.4 2.4 5.4 5.4v16.2h37.8v-48.6h2.7v-5.4h-2.9zM89.6 145.9H78.8v-16.2c0-3 2.4-5.4 5.4-5.4s5.4 2.4 5.4 5.4v16.2zm32.3 0h-10.8v-16.2c0-3 2.4-5.4 5.4-5.4s5.4 2.4 5.4 5.4v16.2zm37.8-16.2h-10.8v-10.8c0-3 2.4-5.4 5.4-5.4s5.4 2.4 5.4 5.4v10.8zm37.8 16.2h-10.8v-16.2c0-3 2.4-5.4 5.4-5.4s5.4 2.4 5.4 5.4v16.2zm32.3 0H219v-16.2c0-3 2.4-5.4 5.4-5.4s5.4 2.4 5.4 5.4v16.2z" fill="#f5f5f5"/><path d="M19.2 489.1C8.6 489.1 0 480.5 0 469.9V42c0-10.5 8.5-19 19-19h.2c10.6 0 19.2 8.6 19.2 19.2V470c0 10.5-8.6 19.1-19.2 19.1z" fill="#2e3033"/></svg>