<svg xmlns="http://www.w3.org/2000/svg" viewBox="0 0 512 512"><path d="M503.56 374.155H35.87a8.44 8.44 0 0 1-8.44-8.44V65.118a8.44 8.44 0 0 1 8.44-8.44h467.69a8.44 8.44 0 0 1 8.44 8.44v300.597a8.44 8.44 0 0 1-8.44 8.44z" fill="#f5f5f5"/><path d="M269.715 215.417H503.56a8.44 8.44 0 0 0 8.44-8.44V65.118a8.44 8.44 0 0 0-8.44-8.44H278.155a8.44 8.44 0 0 0-8.44 8.44v150.299z" fill="#ff4b55"/><g fill="#4173cd"><path d="M35.87 374.155h225.405a8.44 8.44 0 0 0 8.44-8.44V215.417H35.87a8.44 8.44 0 0 0-8.44 8.44v141.858a8.44 8.44 0 0 0 8.44 8.44zM151.791 100.414l7.965 23.882 25.175.195c3.259.025 4.61 4.184 1.989 6.121l-20.252 14.955 7.594 24.002c.983 3.108-2.555 5.678-5.206 3.783l-20.481-14.639-20.481 14.639c-2.651 1.895-6.19-.675-5.206-3.783l7.594-24.002-20.252-14.955c-2.622-1.936-1.27-6.096 1.989-6.121l25.175-.195 7.965-23.882c1.027-3.092 5.4-3.092 6.432 0z"/></g><path d="M394.076 259.152l7.965 23.882 25.174.195c3.259.025 4.61 4.185 1.989 6.121l-20.252 14.955 7.594 24.002c.983 3.108-2.555 5.678-5.206 3.783l-20.481-14.639-20.481 14.639c-2.651 1.895-6.19-.675-5.206-3.783l7.594-24.002-20.252-14.955c-2.622-1.936-1.27-6.096 1.989-6.121l25.175-.195 7.965-23.882c1.028-3.092 5.401-3.092 6.433 0z" fill="#ff4b55"/><path d="M19.122 488.1C8.561 488.1 0 479.539 0 468.979V42.864C0 32.39 8.491 23.9 18.965 23.9h.157c10.561 0 19.122 8.561 19.122 19.122V468.98c0 10.559-8.561 19.12-19.122 19.12z" fill="#2e3033"/></svg>