<svg xmlns="http://www.w3.org/2000/svg" viewBox="0 0 512 512"><path d="M511.9 162.1H27V64.7c0-4.6 3.8-8.4 8.4-8.4h468.2c4.6 0 8.4 3.8 8.4 8.4l-.1 97.4z" fill="#73af00"/><path d="M503.5 374H35.4c-4.6 0-8.4-3.8-8.4-8.4v-97.5h484.9v97.5c0 4.6-3.8 8.4-8.4 8.4z" fill="#ff4b55"/><path fill="#f5f5f5" d="M27 162.1h484.9V268H27z"/><path d="M30.1 372l130.7-103.8V162L30.1 58.2C28.3 59.7 27 62 27 64.5v301c0 2.7 1.2 4.9 3.1 6.5z" fill="#464655"/><path d="M18.7 483.4C8.4 483.4 0 475.1 0 464.7V47.2c0-10.3 8.3-18.6 18.6-18.6h.2c10.3 0 18.7 8.4 18.7 18.7v417.4c0 10.4-8.3 18.7-18.8 18.7z" fill="#2e3033"/></svg>