<svg xmlns="http://www.w3.org/2000/svg" viewBox="0 0 512 512"><path d="M20.448 267.295H512v98.875a8.476 8.476 0 0 1-8.475 8.475H28.924a8.476 8.476 0 0 1-8.475-8.475l-.001-98.875z" fill="#ffb400"/><path d="M28.923 52.594h474.601a8.476 8.476 0 0 1 8.475 8.475v98.875H20.448V61.069a8.475 8.475 0 0 1 8.475-8.475z" fill="#ff4b55"/><path fill="#41479b" d="M20.448 159.94h491.55v107.35H20.448z"/><path d="M19.201 489.063C8.597 489.063 0 480.466 0 469.862V41.982c0-10.517 8.526-19.044 19.043-19.044h.158c10.604 0 19.201 8.597 19.201 19.201v427.723c0 10.604-8.596 19.201-19.201 19.201z" fill="#2e3033"/></svg>