<svg xmlns="http://www.w3.org/2000/svg" viewBox="0 0 512 512"><path d="M348.18 53.433h155.291A8.53 8.53 0 0 1 512 61.962v304.932a8.53 8.53 0 0 1-8.529 8.529H348.18V53.433z" fill="#73af00"/><path fill="#ffe15a" d="M184.36 53.429h163.82v321.99H184.36z"/><path d="M29.07 53.433h155.291v321.99H29.07a8.53 8.53 0 0 1-8.529-8.529V61.961a8.528 8.528 0 0 1 8.529-8.528z" fill="#ff4b55"/><path d="M19.323 490.544C8.651 490.544 0 481.892 0 471.22V40.619c0-10.584 8.58-19.164 19.164-19.164h.159c10.672 0 19.323 8.651 19.323 19.323v430.443c.001 10.671-8.651 19.323-19.323 19.323z" fill="#2e3033"/></svg>