<svg xmlns="http://www.w3.org/2000/svg" viewBox="0 0 512 512"><path d="M184.263 374.657H28.871a8.476 8.476 0 0 1-8.476-8.476V61.048a8.476 8.476 0 0 1 8.476-8.476h155.392v322.085z" fill="#464655"/><path fill="#ff4b55" d="M184.27 52.57h163.87v322.08H184.27z"/><path d="M503.524 374.657H348.132V52.572h155.392A8.476 8.476 0 0 1 512 61.048v305.133a8.476 8.476 0 0 1-8.476 8.476z" fill="#73af00"/><g fill="#f5f5f5"><path d="M288.317 230.232h-44.24l2.458-4.915h39.324zM288.317 190.908h-44.24l2.458 4.915h39.324z"/><path d="M278.486 193.366h-24.578l4.916-4.916h14.747zM246.53 217.95h7.373v4.916h-7.373zM246.53 210.57h7.373v4.916h-7.373zM246.53 198.28h7.373v4.916h-7.373zM246.53 205.66h7.373v2.458h-7.373zM278.49 217.95h7.373v4.916h-7.373zM278.49 210.57h7.373v4.916h-7.373zM278.49 198.28h7.373v4.916h-7.373zM278.49 205.66h7.373v2.458h-7.373zM248.99 178.62h4.916v9.831h-4.916zM253.908 176.16h-4.916v-2.458a2.459 2.459 0 0 1 4.916 0v2.458zM278.49 178.62h4.916v9.831h-4.916zM283.402 176.16h-4.916v-2.458a2.459 2.459 0 0 1 4.916 0v2.458zM266.197 198.281a9.83 9.83 0 0 0-9.831 9.831v14.747h19.662v-14.747c0-5.429-4.401-9.831-9.831-9.831z"/><path d="M249.925 213.764l-13.381-15.612c.087-.252.16-.512.16-.794a2.459 2.459 0 1 0-2.458 2.458c.148 0 .277-.059.416-.084l1.385 1.616-6.717 15.673 7.373 7.373 6.366-14.854 4.99 5.822 1.866-1.598zm-11.956 5.135l-5.883-5.883 2.654-6.194 5.883 5.883-2.654 6.194zM284.396 215.363l4.99-5.822 6.366 14.854 7.373-7.373-6.717-15.673 1.385-1.616c.141.024.269.084.416.084a2.459 2.459 0 1 0-2.458-2.458c0 .282.073.541.16.794l-13.381 15.612 1.866 1.598zm7.437-2.657l5.883-5.883 2.654 6.194-5.883 5.883-2.654-6.194zM268.979 174.132c-.772-.228-1.461-.649-1.898-1.325a16.4 16.4 0 0 1-.885-1.561 16.431 16.431 0 0 1-.885 1.561c-.437.677-1.125 1.099-1.898 1.325-4.072 1.199-7.05 4.943-7.05 9.403 0 .854.143 1.668.348 2.458h18.967c.204-.79.348-1.604.348-2.458.002-4.461-2.975-8.205-7.047-9.403zM209.873 210.28a56.638 56.638 0 0 1-.206-4.627c0-3.157.286-6.263.794-9.309.709.491 1.45 1.03 2.222 1.636a54.226 54.226 0 0 0-.558 7.673c0 1.817.093 3.613.269 5.384l5.196 1.561c-.324-2.276-.549-4.582-.549-6.945 0-1.175.07-2.336.163-3.493 2.713 3.009 4.855 6.644 4.855 10.662 0 .103 7.886-11.675-6.451-24.68l-.103 5.529-8.258-.087a1.535 1.535 0 0 0-1.529 1.253 61.727 61.727 0 0 0-.966 10.815c0 1.044.028 2.081.078 3.112l5.043 1.516z"/><path d="M231.682 160.901a2.458 2.458 0 1 0-3.005-3.889c-11.124 8.59-18.757 20.393-22.063 33.613l5.065.066c3.189-11.701 10.087-22.132 20.003-29.79z"/><path d="M228.389 167.031c-5.345 5.235-9.391 11.396-12.144 18.089a27.59 27.59 0 0 1 3.799 3.765c2.477-6.824 6.423-13.089 11.785-18.34.969-.95.986-2.506.036-3.475a2.455 2.455 0 0 0-3.476-.039zM219.848 237.878a56.621 56.621 0 0 1-8.159-17.395l2.857 1.05a54.26 54.26 0 0 0 7.962 15.858l5.425-.993a49.575 49.575 0 0 1-7.42-12.673l3.207 1.178a46.869 46.869 0 0 0 6.966 10.991l5.645-1.034c-2.22-2.266-4.162-4.817-5.834-7.569l-3.271-6.54a8.19 8.19 0 0 0-4.972-4.182l-7.737-2.326-1.788-.537-2.576-.774-5.123-1.539-2.735-.822 1.692 5.077a5 5 0 0 0 2.101 2.656 61.182 61.182 0 0 0 8.449 20.548l5.311-.974zM316.888 193.673l-.103-5.529c-14.337 13.005-6.451 24.783-6.451 24.68 0-4.018 2.141-7.653 4.855-10.662a43.52 43.52 0 0 1 .163 3.493c0 2.364-.225 4.67-.549 6.945l5.196-1.561c.176-1.771.269-3.567.269-5.384 0-2.594-.198-5.153-.558-7.673a46.574 46.574 0 0 1 2.222-1.636c.508 3.046.794 6.152.794 9.309 0 1.56-.081 3.099-.206 4.627l5.042-1.515c.052-1.031.078-2.068.078-3.112 0-3.671-.339-7.283-.966-10.815a1.534 1.534 0 0 0-1.529-1.253l-8.257.086z"/><path d="M320.715 190.691l5.065-.066c-3.307-13.22-10.939-25.023-22.063-33.613a2.458 2.458 0 1 0-3.005 3.889c9.916 7.658 16.814 18.089 20.003 29.79z"/><path d="M316.15 185.12c-2.754-6.693-6.799-12.854-12.144-18.089a2.458 2.458 0 1 0-3.439 3.513c5.362 5.251 9.308 11.516 11.785 18.34a27.519 27.519 0 0 1 3.798-3.764zM327.365 211.392l-5.123 1.539-2.576.774-1.788.537-7.737 2.326a8.19 8.19 0 0 0-4.972 4.182l-3.271 6.54c-1.672 2.751-3.614 5.303-5.834 7.569l5.645 1.034a46.848 46.848 0 0 0 6.966-10.991l3.207-1.178a49.575 49.575 0 0 1-7.42 12.673l5.425.993a54.272 54.272 0 0 0 7.962-15.858l2.857-1.05a56.621 56.621 0 0 1-8.159 17.395l5.309.972a61.162 61.162 0 0 0 8.449-20.548 5.003 5.003 0 0 0 2.101-2.656l1.692-5.077-2.733.824zM291.812 238.566l-.127.112c-7.15 5.519-16.031 8.759-25.487 8.759-9.457 0-18.337-3.24-25.487-8.759l-.127-.112a3.92 3.92 0 0 0-3.675-1.205l-24.781 5.161 5.499 4.82a7.284 7.284 0 0 0 5.239 1.78 61.977 61.977 0 0 0 15.097 11.063l-1.61 2.972a62.298 62.298 0 0 0 29.846 7.573 62.3 62.3 0 0 0 29.846-7.573l-1.61-2.972a62.003 62.003 0 0 0 15.097-11.063c1.88.11 3.77-.492 5.24-1.78l5.499-4.82-24.782-5.161a3.917 3.917 0 0 0-3.677 1.205zm-51.5 17.28c-4.455-2.318-8.534-5.246-12.204-8.613l2.386-1.138c3.333 2.95 6.999 5.533 10.983 7.6l-1.165 2.151zm63.975-8.613c-3.67 3.366-7.749 6.293-12.204 8.613l-1.164-2.15c3.984-2.067 7.648-4.65 10.983-7.6l2.385 1.137zm-38.09 7.577c-11.706 0-22.433-4.153-30.878-11.016l2.453-1.17c7.974 6.142 17.883 9.727 28.424 9.727s20.45-3.585 28.424-9.727l2.453 1.17c-8.442 6.862-19.17 11.016-30.876 11.016z"/><path d="M239.228 235.081a41.804 41.804 0 0 0 3.291 2.524h47.357a41.804 41.804 0 0 0 3.291-2.524l-2.391-2.391H241.62l-2.392 2.391z"/></g><path d="M19.203 489.087C8.598 489.087 0 480.49 0 469.884V41.958c0-10.519 8.527-19.045 19.045-19.045h.158c10.606 0 19.203 8.598 19.203 19.203v427.768c.001 10.606-8.597 19.203-19.203 19.203z" fill="#2e3033"/></svg>