<svg xmlns="http://www.w3.org/2000/svg" viewBox="0 0 512.1 512.1"><path d="M503.6 373.9H35.4c-4.6 0-8.4-3.7-8.4-8.4v-301c0-4.6 3.7-8.4 8.4-8.4h468.3c4.6 0 8.4 3.7 8.4 8.4v301c-.1 4.6-3.8 8.4-8.5 8.4z" fill="#41479b"/><path d="M250.7 56.1H237L164 104V56.1h-39.4V104L51.5 56.1H37.8c-4.4 0-7.9 3.5-7.9 7.9v6.3l62.7 41.1H29.9v39.4h62.7l-62.7 41.1v6.3c0 4.4 3.5 7.9 7.9 7.9h13.7l73.1-47.9V206H164v-47.9l73 47.9h13.7c4.4 0 7.9-3.5 7.9-7.9v-6.3l-62.7-41.1h62.7v-39.4h-62.7l62.7-41.1V64c0-4.3-3.5-7.9-7.9-7.9z" fill="#f5f5f5"/><g fill="#ff4b55"><path d="M258.6 119.2H156.1V56.1h-23.7v63.1H29.9v23.7h102.5V206h23.7v-63.1h102.5z"/><path d="M116.6 111.3l-83-53.9c-2.2 1.4-3.8 3.7-3.8 6.6v.4l72.3 46.9h14.5zM178.5 111.3l79-51.3c-1.4-2.3-3.8-4-6.7-4H249l-85 55.3h14.5zM109.8 150.8L31 202c1.4 2.4 3.8 4.1 6.8 4.1h1.5l85.1-55.2h-14.6v-.1zM258.5 198.7l-73.9-48h-14.5l83.9 54.5c2.6-1.1 4.3-3.6 4.5-6.5z"/></g><path d="M394.3 134.6h-54.7v99.8c0 22.5 54.7 45.1 54.7 45.1S449 257 449 234.4v-99.8h-54.7z" fill="#73af00"/><path d="M362.2 210.8s-.3-1.1 0-2c.3-1-.4-1.8-.6-2.7-.4-2.3 1.5-2.8 1.6-4.9 0 0 1.4 1.4.9 2.7s.8 1.5.6 2.8c-.2 1.3-1.6 2.6-1.4 3.7l-1.1.4z" fill="#ff4b55"/><path d="M383.8 208.6c-1.1-1.4-3.1.1-4.5 1.2-.2.2-.4.3-.5.4l-5.3-7.8c.1-.2.3-.5.3-.8 0-.8-.6-1.4-1.4-1.4s-1.4.6-1.4 1.4c0 .3.1.5.3.8l-5.5 8.1h-3.9s-.2 2.4 4.1 2.7c.5.8 1.3 1.5 2.3 1.9-.4.1-.8.4-.8.9v.7h9.8v-.7c0-.5-.4-.8-.8-.9 1.6-.7 2.8-2.2 3-4 .2-.1.3-.2.5-.3 1-.8 2.6-2 3.1-1.4.1.2.1.2.1.3-.1.4-.8.9-1.5 1.3-1 .7-2 1.4-2.1 2.3 0 .3.2.5.5.6.3 0 .5-.2.5-.5 0-.5.9-1.1 1.7-1.6.9-.6 1.8-1.2 1.9-2-.1-.5-.2-.8-.4-1.2zm-9.1 1.9c-.3-1.1-1-2.2-1.8-2.6.5-.2.8-.7.8-1.2 0-.8-.6-1.4-1.4-1.4s-1.4.6-1.4 1.4c0 .5.3 1 .8 1.2-.9.4-1.5 1.5-1.8 2.6H367l5.1-7.5c.1 0 .2.1.3.1s.2 0 .3-.1l5.1 7.5h-3.1z" fill="#ffe15a"/><path d="M390.8 163s-5.1-1.5-7.4 16.3c0 0-12.5 15.9-12.9 16.8-.4.9 0 7.7 1.3 7.1 1.3-.5 3.8-3.7 3.6-5.9-.1-2.3.9-3.6 1.9-4.7 1.9-2.1 12.7-11.9 13.1-14s.4-15.6.4-15.6z" fill="#ffc8b9"/><g fill="#f5f5f5"><path d="M398.7 159.7s7.9-1 10.2 7c0 0-6.5 3.6-5.7 8.2s-.1 25.8-.1 25.8c-12.4 4-18.9-1-18.9-1s3.2-12 2.7-21.7c0 0-2.9-2.2-2.2-4.7.7-2.5 2.5-5.3 3.1-7.4.6-2.1 2.2-5.6 6.1-5.9 4-.5 4.8-.3 4.8-.3z"/><path d="M386.5 197.3s-6.2 23.3-4 55.2c0 0 19.3 2.5 29.7-1.3 0 0-5.4-38-10.7-52.9l-15-1z"/></g><path d="M390.1 145.9v9.7c0 1.1.9 1.9 1.9 1.9h.2c.8 0 1.4.6 1.4 1.4v2.3s1.3 3.4 6.3-.6V146l-9.8-.1z" fill="#ffc8b9"/><path d="M389 143.9c-.3.8 0 2.9 1.9 2.8 2.4-.2 5.3-.2 6 2.5.6 2.5.2 8.7 2.9 9.1 2.7.4 5.7-1.4 5.7-6.7-.1-4.7-3.1-10.3-7.4-9.5 0 0-3.8-2.7-6 .3-.1 0-2.4-.2-3.1 1.5z" fill="#8c5a28"/><path d="M408.9 166.7s2.7 18.1 2.6 19.6-9.7 16.4-9.2 18 1.1 3.8-1.9 4.6-2.6-3.9-1.8-6.3 7.5-15.3 7.5-16.8-3.8-11-2.9-14.8c1-3.8 5.7-4.3 5.7-4.3z" fill="#ffc8b9"/><path d="M350.2 153.7s-.3-1.1 0-2-.4-1.8-.6-2.7c-.4-2.3 1.5-2.8 1.6-4.9 0 0 1.4 1.4.9 2.7s.8 1.5.6 2.8c-.2 1.3-1.6 2.6-1.4 3.7l-1.1.4z" fill="#ff4b55"/><path d="M371.7 151.5c-1.1-1.4-3.1.1-4.5 1.2-.2.2-.4.3-.5.4l-5.3-7.8c.1-.2.3-.5.3-.8 0-.8-.6-1.4-1.4-1.4s-1.4.6-1.4 1.4c0 .3.1.5.3.8l-5.5 8.1h-3.9s-.2 2.4 4.1 2.7c.5.8 1.3 1.5 2.3 1.9-.4.1-.8.4-.8.9v.7h9.8v-.7c0-.5-.4-.8-.8-.9 1.6-.7 2.8-2.2 3-4 .2-.1.3-.2.5-.3 1-.8 2.6-2 3.1-1.4.1.2.1.2.1.3-.1.4-.8.9-1.5 1.3-1 .7-2 1.4-2.1 2.3 0 .3.2.5.5.6.3 0 .5-.2.5-.5 0-.5.9-1.1 1.7-1.6.9-.6 1.8-1.2 1.9-2 0-.5-.1-.8-.4-1.2zm-9.1 1.9c-.3-1.1-1-2.2-1.8-2.6.5-.2.8-.7.8-1.2 0-.8-.6-1.4-1.4-1.4s-1.4.6-1.4 1.4c0 .5.3 1 .8 1.2-.9.4-1.5 1.5-1.8 2.6h-2.9l5.1-7.5c.1 0 .2.1.3.1s.2 0 .3-.1l5.1 7.5h-3.1z" fill="#ffe15a"/><path d="M350.2 172.7s-.3-1.1 0-2c.3-1-.4-1.8-.6-2.7-.4-2.3 1.5-2.8 1.6-4.9 0 0 1.4 1.4.9 2.7s.8 1.5.6 2.8c-.2 1.3-1.6 2.6-1.4 3.7l-1.1.4z" fill="#ff4b55"/><path d="M371.7 170.6c-1.1-1.4-3.1.1-4.5 1.2-.2.2-.4.3-.5.4l-5.3-7.8c.1-.2.3-.5.3-.8 0-.8-.6-1.4-1.4-1.4s-1.4.6-1.4 1.4c0 .3.1.5.3.8l-5.5 8.1h-3.9s-.2 2.4 4.1 2.7c.5.8 1.3 1.5 2.3 1.9-.4.1-.8.4-.8.9v.7h9.8v-.7c0-.5-.4-.8-.8-.9 1.6-.7 2.8-2.2 3-4 .2-.1.3-.2.5-.3 1-.8 2.6-2 3.1-1.4.1.2.1.2.1.3-.1.4-.8.9-1.5 1.3-1 .7-2 1.4-2.1 2.3 0 .3.2.5.5.6.3 0 .5-.2.5-.5 0-.5.9-1.1 1.7-1.6.9-.6 1.8-1.2 1.9-2 0-.5-.1-.9-.4-1.2zm-9.1 1.8c-.3-1.1-1-2.2-1.8-2.6.5-.2.8-.7.8-1.2 0-.8-.6-1.4-1.4-1.4s-1.4.6-1.4 1.4c0 .5.3 1 .8 1.2-.9.4-1.5 1.5-1.8 2.6h-2.9l5.1-7.5c.1 0 .2.1.3.1s.2 0 .3-.1l5.1 7.5h-3.1z" fill="#ffe15a"/><path d="M350.2 191.7s-.3-1.1 0-2c.3-1-.4-1.8-.6-2.7-.4-2.3 1.5-2.8 1.6-4.9 0 0 1.4 1.4.9 2.7s.8 1.5.6 2.8c-.2 1.3-1.6 2.6-1.4 3.7l-1.1.4z" fill="#ff4b55"/><path d="M371.7 189.6c-1.1-1.4-3.1.1-4.5 1.2-.2.2-.4.3-.5.4l-5.3-7.8c.1-.2.3-.5.3-.8 0-.8-.6-1.4-1.4-1.4s-1.4.6-1.4 1.4c0 .3.1.5.3.8l-5.5 8.1h-3.9s-.2 2.4 4.1 2.7c.5.8 1.3 1.5 2.3 1.9-.4.1-.8.4-.8.9v.7h9.8v-.7c0-.5-.4-.8-.8-.9 1.6-.7 2.8-2.2 3-4 .2-.1.3-.2.5-.3 1-.8 2.6-2 3.1-1.4.1.2.1.2.1.3-.1.4-.8.9-1.5 1.3-1 .7-2 1.4-2.1 2.3 0 .3.2.5.5.6.3 0 .5-.2.5-.5 0-.5.9-1.1 1.7-1.6.9-.6 1.8-1.2 1.9-2 0-.5-.1-.9-.4-1.2zm-9.1 1.8c-.3-1.1-1-2.2-1.8-2.6.5-.2.8-.7.8-1.2 0-.8-.6-1.4-1.4-1.4s-1.4.6-1.4 1.4c0 .5.3 1 .8 1.2-.9.4-1.5 1.5-1.8 2.6h-2.9l5.1-7.5c.1 0 .2.1.3.1s.2 0 .3-.1l5.1 7.5h-3.1z" fill="#ffe15a"/><path d="M350.2 229.8s-.3-1.1 0-2c.3-1-.4-1.8-.6-2.7-.4-2.3 1.5-2.8 1.6-4.9 0 0 1.4 1.4.9 2.7s.8 1.5.6 2.8c-.2 1.3-1.6 2.6-1.4 3.7l-1.1.4z" fill="#ff4b55"/><path d="M371.7 227.7c-1.1-1.4-3.1.1-4.5 1.2-.2.2-.4.3-.5.4l-5.3-7.8c.1-.2.3-.5.3-.8 0-.8-.6-1.4-1.4-1.4s-1.4.6-1.4 1.4c0 .3.1.5.3.8l-5.5 8.1h-3.9s-.2 2.4 4.1 2.7c.5.8 1.3 1.5 2.3 1.9-.4.1-.8.4-.8.9v.7h9.8v-.7c0-.5-.4-.8-.8-.9 1.6-.7 2.8-2.2 3-4 .2-.1.3-.2.5-.3 1-.8 2.6-2 3.1-1.4.1.2.1.2.1.3-.1.4-.8.9-1.5 1.3-1 .7-2 1.4-2.1 2.3 0 .3.2.5.5.6.3 0 .5-.2.5-.5 0-.5.9-1.1 1.7-1.6.9-.6 1.8-1.2 1.9-2 0-.5-.1-.9-.4-1.2zm-9.1 1.8c-.3-1.1-1-2.2-1.8-2.6.5-.2.8-.7.8-1.2 0-.8-.6-1.4-1.4-1.4s-1.4.6-1.4 1.4c0 .5.3 1 .8 1.2-.9.4-1.5 1.5-1.8 2.6h-2.9l5.1-7.5c.1 0 .2.1.3.1s.2 0 .3-.1l5.1 7.5h-3.1z" fill="#ffe15a"/><path d="M350.2 248.8s-.3-1.1 0-2c.3-1-.4-1.8-.6-2.7-.4-2.3 1.5-2.8 1.6-4.9 0 0 1.4 1.4.9 2.7s.8 1.5.6 2.8c-.2 1.3-1.6 2.6-1.4 3.7l-1.1.4z" fill="#ff4b55"/><path d="M371.7 246.7c-1.1-1.4-3.1.1-4.5 1.2-.2.2-.4.3-.5.4l-5.3-7.8c.1-.2.3-.5.3-.8 0-.8-.6-1.4-1.4-1.4s-1.4.6-1.4 1.4c0 .3.1.5.3.8l-5.5 8.1h-3.9s-.2 2.4 4.1 2.7c.5.8 1.3 1.5 2.3 1.9-.4.1-.8.4-.8.9v.7h9.8V254c0-.5-.4-.8-.8-.9 1.6-.7 2.8-2.2 3-4 .2-.1.3-.2.5-.3 1-.8 2.6-2 3.1-1.4.1.2.1.2.1.3-.1.4-.8.9-1.5 1.3-1 .7-2 1.4-2.1 2.3 0 .3.2.5.5.6.3 0 .5-.2.5-.5 0-.5.9-1.1 1.7-1.6.9-.6 1.8-1.2 1.9-2 0-.4-.1-.8-.4-1.1zm-9.1 1.9c-.3-1.1-1-2.2-1.8-2.6.5-.2.8-.7.8-1.2 0-.8-.6-1.4-1.4-1.4s-1.4.6-1.4 1.4c0 .5.3 1 .8 1.2-.9.4-1.5 1.5-1.8 2.6h-2.9l5.1-7.5c.1 0 .2.1.3.1s.2 0 .3-.1l5.1 7.5h-3.1z" fill="#ffe15a"/><path d="M416.4 153.7s-.3-1.1 0-2-.4-1.8-.6-2.7c-.4-2.3 1.5-2.8 1.6-4.9 0 0 1.4 1.4.9 2.7s.8 1.5.6 2.8c-.2 1.3-1.6 2.6-1.4 3.7l-1.1.4z" fill="#ff4b55"/><path d="M437.9 151.5c-1.1-1.4-3.1.1-4.5 1.2-.2.2-.4.3-.5.4l-5.3-7.8c.1-.2.3-.5.3-.8 0-.8-.6-1.4-1.4-1.4s-1.4.6-1.4 1.4c0 .3.1.5.3.8l-5.5 8.1H416s-.2 2.4 4.1 2.7c.5.8 1.3 1.5 2.3 1.9-.4.1-.8.4-.8.9v.7h9.8v-.7c0-.5-.4-.8-.8-.9 1.6-.7 2.8-2.2 3-4 .2-.1.3-.2.5-.3 1-.8 2.6-2 3.1-1.4.1.2.1.2.1.3-.1.4-.8.9-1.5 1.3-1 .7-2 1.4-2.1 2.3 0 .3.2.5.5.6.3 0 .5-.2.5-.5 0-.5.9-1.1 1.7-1.6.9-.6 1.8-1.2 1.9-2 0-.5-.1-.8-.4-1.2zm-9 1.9c-.3-1.1-1-2.2-1.8-2.6.5-.2.8-.7.8-1.2 0-.8-.6-1.4-1.4-1.4s-1.4.6-1.4 1.4c0 .5.3 1 .8 1.2-.9.4-1.5 1.5-1.8 2.6H421l5.1-7.5c.1 0 .2.1.3.1.1 0 .2 0 .3-.1l5.1 7.5h-2.9z" fill="#ffe15a"/><path d="M416.4 172.7s-.3-1.1 0-2c.3-1-.4-1.8-.6-2.7-.4-2.3 1.5-2.8 1.6-4.9 0 0 1.4 1.4.9 2.7s.8 1.5.6 2.8c-.2 1.3-1.6 2.6-1.4 3.7l-1.1.4z" fill="#ff4b55"/><path d="M437.9 170.6c-1.1-1.4-3.1.1-4.5 1.2-.2.2-.4.3-.5.4l-5.3-7.8c.1-.2.3-.5.3-.8 0-.8-.6-1.4-1.4-1.4s-1.4.6-1.4 1.4c0 .3.1.5.3.8l-5.5 8.1H416s-.2 2.4 4.1 2.7c.5.8 1.3 1.5 2.3 1.9-.4.1-.8.4-.8.9v.7h9.8v-.7c0-.5-.4-.8-.8-.9 1.6-.7 2.8-2.2 3-4 .2-.1.3-.2.5-.3 1-.8 2.6-2 3.1-1.4.1.2.1.2.1.3-.1.4-.8.9-1.5 1.3-1 .7-2 1.4-2.1 2.3 0 .3.2.5.5.6.3 0 .5-.2.5-.5 0-.5.9-1.1 1.7-1.6.9-.6 1.8-1.2 1.9-2 0-.5-.1-.9-.4-1.2zm-9 1.8c-.3-1.1-1-2.2-1.8-2.6.5-.2.8-.7.8-1.2 0-.8-.6-1.4-1.4-1.4s-1.4.6-1.4 1.4c0 .5.3 1 .8 1.2-.9.4-1.5 1.5-1.8 2.6H421l5.1-7.5c.1 0 .2.1.3.1.1 0 .2 0 .3-.1l5.1 7.5h-2.9z" fill="#ffe15a"/><path d="M416.4 191.7s-.3-1.1 0-2c.3-1-.4-1.8-.6-2.7-.4-2.3 1.5-2.8 1.6-4.9 0 0 1.4 1.4.9 2.7s.8 1.5.6 2.8c-.2 1.3-1.6 2.6-1.4 3.7l-1.1.4z" fill="#ff4b55"/><path d="M437.9 189.6c-1.1-1.4-3.1.1-4.5 1.2-.2.2-.4.3-.5.4l-5.3-7.8c.1-.2.3-.5.3-.8 0-.8-.6-1.4-1.4-1.4s-1.4.6-1.4 1.4c0 .3.1.5.3.8l-5.5 8.1H416s-.2 2.4 4.1 2.7c.5.8 1.3 1.5 2.3 1.9-.4.1-.8.4-.8.9v.7h9.8v-.7c0-.5-.4-.8-.8-.9 1.6-.7 2.8-2.2 3-4 .2-.1.3-.2.5-.3 1-.8 2.6-2 3.1-1.4.1.2.1.2.1.3-.1.4-.8.9-1.5 1.3-1 .7-2 1.4-2.1 2.3 0 .3.2.5.5.6.3 0 .5-.2.5-.5 0-.5.9-1.1 1.7-1.6.9-.6 1.8-1.2 1.9-2 0-.5-.1-.9-.4-1.2zm-9 1.8c-.3-1.1-1-2.2-1.8-2.6.5-.2.8-.7.8-1.2 0-.8-.6-1.4-1.4-1.4s-1.4.6-1.4 1.4c0 .5.3 1 .8 1.2-.9.4-1.5 1.5-1.8 2.6H421l5.1-7.5c.1 0 .2.1.3.1.1 0 .2 0 .3-.1l5.1 7.5h-2.9z" fill="#ffe15a"/><path d="M416.4 210.8s-.3-1.1 0-2c.3-1-.4-1.8-.6-2.7-.4-2.3 1.5-2.8 1.6-4.9 0 0 1.4 1.4.9 2.7s.8 1.5.6 2.8c-.2 1.3-1.6 2.6-1.4 3.7l-1.1.4z" fill="#ff4b55"/><path d="M437.9 208.6c-1.1-1.4-3.1.1-4.5 1.2-.2.2-.4.3-.5.4l-5.3-7.8c.1-.2.3-.5.3-.8 0-.8-.6-1.4-1.4-1.4s-1.4.6-1.4 1.4c0 .3.1.5.3.8l-5.5 8.1H416s-.2 2.4 4.1 2.7c.5.8 1.3 1.5 2.3 1.9-.4.1-.8.4-.8.9v.7h9.8v-.7c0-.5-.4-.8-.8-.9 1.6-.7 2.8-2.2 3-4 .2-.1.3-.2.5-.3 1-.8 2.6-2 3.1-1.4.1.2.1.2.1.3-.1.4-.8.9-1.5 1.3-1 .7-2 1.4-2.1 2.3 0 .3.2.5.5.6.3 0 .5-.2.5-.5 0-.5.9-1.1 1.7-1.6.9-.6 1.8-1.2 1.9-2 0-.5-.1-.8-.4-1.2zm-9 1.9c-.3-1.1-1-2.2-1.8-2.6.5-.2.8-.7.8-1.2 0-.8-.6-1.4-1.4-1.4s-1.4.6-1.4 1.4c0 .5.3 1 .8 1.2-.9.4-1.5 1.5-1.8 2.6H421l5.1-7.5c.1 0 .2.1.3.1.1 0 .2 0 .3-.1l5.1 7.5h-2.9z" fill="#ffe15a"/><path d="M416.4 229.8s-.3-1.1 0-2c.3-1-.4-1.8-.6-2.7-.4-2.3 1.5-2.8 1.6-4.9 0 0 1.4 1.4.9 2.7s.8 1.5.6 2.8c-.2 1.3-1.6 2.6-1.4 3.7l-1.1.4z" fill="#ff4b55"/><path d="M437.9 227.7c-1.1-1.4-3.1.1-4.5 1.2-.2.2-.4.3-.5.4l-5.3-7.8c.1-.2.3-.5.3-.8 0-.8-.6-1.4-1.4-1.4s-1.4.6-1.4 1.4c0 .3.1.5.3.8l-5.5 8.1H416s-.2 2.4 4.1 2.7c.5.8 1.3 1.5 2.3 1.9-.4.1-.8.4-.8.9v.7h9.8v-.7c0-.5-.4-.8-.8-.9 1.6-.7 2.8-2.2 3-4 .2-.1.3-.2.5-.3 1-.8 2.6-2 3.1-1.4.1.2.1.2.1.3-.1.4-.8.9-1.5 1.3-1 .7-2 1.4-2.1 2.3 0 .3.2.5.5.6.3 0 .5-.2.5-.5 0-.5.9-1.1 1.7-1.6.9-.6 1.8-1.2 1.9-2 0-.5-.1-.9-.4-1.2zm-9 1.8c-.3-1.1-1-2.2-1.8-2.6.5-.2.8-.7.8-1.2 0-.8-.6-1.4-1.4-1.4s-1.4.6-1.4 1.4c0 .5.3 1 .8 1.2-.9.4-1.5 1.5-1.8 2.6H421l5.1-7.5c.1 0 .2.1.3.1.1 0 .2 0 .3-.1l5.1 7.5h-2.9z" fill="#ffe15a"/><path d="M416.4 248.8s-.3-1.1 0-2c.3-1-.4-1.8-.6-2.7-.4-2.3 1.5-2.8 1.6-4.9 0 0 1.4 1.4.9 2.7s.8 1.5.6 2.8c-.2 1.3-1.6 2.6-1.4 3.7l-1.1.4z" fill="#ff4b55"/><path d="M437.9 246.7c-1.1-1.4-3.1.1-4.5 1.2-.2.2-.4.3-.5.4l-5.3-7.8c.1-.2.3-.5.3-.8 0-.8-.6-1.4-1.4-1.4s-1.4.6-1.4 1.4c0 .3.1.5.3.8l-5.5 8.1H416s-.2 2.4 4.1 2.7c.5.8 1.3 1.5 2.3 1.9-.4.1-.8.4-.8.9v.7h9.8V254c0-.5-.4-.8-.8-.9 1.6-.7 2.8-2.2 3-4 .2-.1.3-.2.5-.3 1-.8 2.6-2 3.1-1.4.1.2.1.2.1.3-.1.4-.8.9-1.5 1.3-1 .7-2 1.4-2.1 2.3 0 .3.2.5.5.6.3 0 .5-.2.5-.5 0-.5.9-1.1 1.7-1.6.9-.6 1.8-1.2 1.9-2 0-.4-.1-.8-.4-1.1zm-9 1.9c-.3-1.1-1-2.2-1.8-2.6.5-.2.8-.7.8-1.2 0-.8-.6-1.4-1.4-1.4s-1.4.6-1.4 1.4c0 .5.3 1 .8 1.2-.9.4-1.5 1.5-1.8 2.6H421l5.1-7.5c.1 0 .2.1.3.1.1 0 .2 0 .3-.1l5.1 7.5h-2.9z" fill="#ffe15a"/><g fill="#f5f5f5"><path d="M449.1 134.6v99.8c0 22.5-54.7 45.1-54.7 45.1s-54.7-22.5-54.7-45.1v-99.8h109.4m3.2-3.2H336.5v103c0 10.5 9.7 21.9 28.9 33.7 13.8 8.5 27.3 14.1 27.8 14.3l1.2.5 1.2-.5c.6-.2 14.1-5.8 27.8-14.3 19.2-11.8 28.9-23.2 28.9-33.7v-103z"/><path d="M452.7 252.2l14.6 10.1c-17 21.8-43.4 35.8-73 35.8-29.7 0-56.1-14-73-35.8l14.6-10.1c13.7 17.1 34.8 28.1 58.4 28.1s44.7-11 58.4-28.1m-.6-4.4l-1.9 2.3c-13.7 17.1-34.1 26.9-55.9 26.9s-42.2-9.8-55.9-26.9l-1.9-2.3-2.5 1.7-14.6 10.1-2.8 1.9 2.1 2.7c18.3 23.5 45.9 37 75.6 37s57.2-13.5 75.6-37l2.1-2.7-2.8-1.9-14.6-10.1-2.5-1.7z"/></g><path d="M394.3 298c29.7 0 56.1-14 73-35.8l-14.6-10.1c-13.7 17.1-34.8 28.1-58.4 28.1s-44.7-11-58.4-28.1l-14.6 10.1c16.9 21.8 43.3 35.8 73 35.8z" fill="#ffe15a"/><path d="M19.2 489.1C8.6 489.1 0 480.5 0 469.9V42c0-10.5 8.5-19 19-19h.2c10.6 0 19.2 8.6 19.2 19.2V470c0 10.5-8.6 19.1-19.2 19.1z" fill="#2e3033"/></svg>