<svg xmlns="http://www.w3.org/2000/svg" viewBox="0 0 512 512"><path d="M512 213.615H20.395V61.048a8.476 8.476 0 0 1 8.476-8.476h474.653A8.476 8.476 0 0 1 512 61.048v152.567z" fill="#ff4b55"/><path d="M20.395 213.615H512v152.567a8.476 8.476 0 0 1-8.476 8.476H28.871a8.476 8.476 0 0 1-8.476-8.476V213.615z" fill="#464655"/><g fill="#ffe15a"><path d="M246.902 142.844l5.795 17.376 18.316.142c1.419.011 2.008 1.822.866 2.665l-14.734 10.881 5.525 17.464c.428 1.353-1.112 2.472-2.267 1.648l-14.902-10.651-14.902 10.651c-1.155.825-2.695-.295-2.267-1.648l5.525-17.464-14.734-10.881c-1.141-.843-.553-2.654.866-2.665l18.316-.142 5.795-17.376c.448-1.347 2.352-1.347 2.802 0zM325.235 290.374s-104.856-79.103-107.952-81.703c-4.785-4.019-8.476-11.125-8.653-19.777 0 0-11.308 11.583-9.094 23.574 2.56 13.862 10.507 18.806 20.748 25.517 7.197 4.716 64.415 40.802 97.816 61.853l7.135-9.464zM356.608 313.559c-1.367-.976-12.348-9.093-27.586-20.381l-5.529 10.055c11.187 7.049 18.635 11.74 18.635 11.74s1.059 13.773 12.184 11.478c4.011-.828 7.239-9.36 2.296-12.892zM266.066 277.037c-7.926 2.79-16.416 4.385-25.296 4.385-22.508 0-42.674-9.806-56.637-25.31l-12.413 11.171c4.161 4.62 8.603 8.975 13.61 12.691l-2.472 4.281 18.35 10.595 2.429-4.208a92.586 92.586 0 0 0 26.537 7.089v4.881h21.19v-4.881a92.578 92.578 0 0 0 26.537-7.089l2.429 4.208 7.292-4.21c-7.12-4.492-14.415-9.095-21.556-13.603z"/><path d="M333.361 194.544a92.562 92.562 0 0 0-7.089-26.536l4.208-2.429-10.595-18.351-4.281 2.472a93.619 93.619 0 0 0-19.396-19.395l2.472-4.281-18.35-10.595-2.429 4.208c-6.877-2.991-14.199-5.115-21.818-6.375l-2.784 16.71c36.156 5.988 63.755 37.314 63.755 75.168 0 20.382-8.044 38.853-21.068 52.537l13.397 10.115c2.141-2.345 4.325-4.654 6.223-7.212l4.281 2.472 10.595-18.35-4.208-2.429a92.588 92.588 0 0 0 7.089-26.536h4.881v-21.19h-4.882v-.003h-.001z"/></g><path d="M19.203 489.087C8.598 489.087 0 480.49 0 469.884V41.958c0-10.519 8.527-19.045 19.045-19.045h.158c10.606 0 19.203 8.598 19.203 19.203v427.768c.001 10.606-8.597 19.203-19.203 19.203z" fill="#2e3033"/></svg>