<svg xmlns="http://www.w3.org/2000/svg" viewBox="0 0 512 512"><path d="M503.524 374.657H28.871a8.476 8.476 0 0 1-8.476-8.476V61.048a8.476 8.476 0 0 1 8.476-8.476h474.653A8.476 8.476 0 0 1 512 61.048v305.133a8.476 8.476 0 0 1-8.476 8.476z" fill="#ffe15a"/><path d="M20.395 61.048v50.856L512 315.326v-59.331L24.215 54.152c-2.25 1.524-3.82 3.974-3.82 6.896z" fill="#f5f5f5"/><path d="M20.395 171.235l487.784 201.841c2.249-1.524 3.819-3.973 3.819-6.895v-50.856L20.394 111.903v59.331l.001.001z" fill="#464655"/><g fill="#ff4b55"><path d="M313.811 198.564l.006-.241-.324-3.34c-.065-1.089-.315-2.415-.645-3.96-.255-1.559-.749-3.302-1.383-5.226-1.273-3.818-3.232-8.377-6.617-12.791-.409-.546-.893-1.084-1.338-1.626a48.169 48.169 0 0 0 5.557-7.85s-9.678.444-20.549-4.299c-3.588-1.869-7.485-3.402-11.76-4.406l-2.028-8.11a3.899 3.899 0 0 0-3.78-2.952h-2.803v-3.897h13.64l-3.897-7.795 3.897-7.795h-13.64v-3.897h-3.898v23.383h-2.803a3.896 3.896 0 0 0-3.78 2.952l-1.983 7.936c-2.633.56-5.255 1.272-7.8 2.354-2.083.834-4.097 1.878-6.063 3.047-9.998 3.837-18.49 3.479-18.49 3.479 1.765 3.087 3.634 5.646 5.553 7.846-.389.473-.82.896-1.196 1.383-2.655 3.605-4.775 7.659-6.393 11.964-1.539 4.18-2.414 9.485-2.707 13.362l-.007 3.75c-.039 1.177.095 2.344.219 3.514.154 2.359.675 4.662 1.166 6.981 1.215 4.569 2.994 9.013 5.418 13.094 4.852 8.174 12.254 14.618 20.552 18.613 4.287 1.889 8.337 3.328 13.169 4.015 2.575.479 4.178.471 6.085.638l.346.025.174.013.566.015.812-.034 1.617-.073c1.073-.072 2.147-.058 3.199-.215 8.48-.93 16.124-4.227 22.092-8.509 5.967-4.358 10.254-9.672 13.19-14.738 2.982-5.071 4.521-9.977 5.469-13.996.453-2.007.79-3.841.913-5.566.193-1.707.305-3.105.254-4.019l-.01-3.029zM242.98 226.03c-2.708-2.111-5.155-4.626-7.387-7.401-2.148-2.842-3.864-6.047-5.211-9.454-1.27-3.334-1.97-7.343-2.313-10.611-.095-4.535.118-7.627.983-11.494.944-3.672 2.32-7.267 4.236-10.584.111-.192.262-.355.376-.545 8.859 6.921 18.214 6.428 24.737 3.069v7.622c2.152 0 3.897 4.362 3.897 9.743s-1.745 9.743-3.897 9.743v3.897c7.309 9.745 3.956 17.968-.536 22.762-2.038-.443-4.153-1.038-6.131-1.817-3.066-1.192-5.98-2.911-8.754-4.93zm61.339-27.903l-.308 2.969c-.059 1.065-.295 2.073-.567 3.19-.194 1.126-.606 2.49-1.135 4.036-1.055 3.028-2.642 6.644-5.402 10.109a38.964 38.964 0 0 1-10.874 9.592c-3.451 2.048-7.507 3.434-11.792 4.418-4.34-4.837-7.396-12.893-.248-22.423v-3.897c-2.152 0-3.897-4.362-3.897-9.743s1.745-9.743 3.897-9.743v-7.622c6.531 3.363 15.9 3.853 24.769-3.093.152.255.337.515.48.768 2.358 4.121 3.524 8.085 4.255 11.312.349 1.629.605 3.083.665 4.375.135 1.278.232 2.359.177 3.249l-.02 2.503z"/><path d="M266.197 256.782c-14.39 0-27.443-5.606-37.184-14.715-1.788-1.672-4.618-1.47-6.212.39l-14.923 17.411c-1.586 1.851-.271 4.709 2.166 4.709h9.386l12.512 6.256a3.898 3.898 0 0 0 4.986-1.324l4.027-6.041c7.783 3.211 16.3 5.006 25.242 5.006s17.459-1.795 25.242-5.006l4.027 6.041a3.897 3.897 0 0 0 4.986 1.324l12.512-6.256h9.386c2.437 0 3.753-2.859 2.166-4.709l-14.923-17.411c-1.593-1.859-4.423-2.062-6.212-.39-9.741 9.111-22.793 14.715-37.184 14.715zM211.636 241.194h-19.487l3.897-35.076s-13.641-6.821-12.213-26.842c.174-2.435 2.232-4.336 4.673-4.336h3.326c2.297 0 4.222 1.664 4.602 3.93.82 4.888 3.371 12.912 11.303 15.557l3.899 46.767zM320.759 241.194h19.486l-3.897-35.076s13.641-6.821 12.213-26.842c-.174-2.435-2.232-4.336-4.673-4.336h-3.326c-2.297 0-4.222 1.664-4.602 3.93-.82 4.888-3.371 12.912-11.303 15.557l-3.898 46.767z"/></g><g fill="#ffe15a"><path d="M213.585 245.091h-23.383a1.948 1.948 0 1 1 0-3.896h23.383a1.948 1.948 0 0 1 0 3.896zM342.193 245.091H318.81a1.948 1.948 0 1 1 0-3.896h23.383c1.076 0 1.948.872 1.948 1.948a1.947 1.947 0 0 1-1.948 1.948z"/></g><path d="M19.203 489.087C8.598 489.087 0 480.49 0 469.884V41.958c0-10.519 8.527-19.045 19.045-19.045h.158c10.606 0 19.203 8.598 19.203 19.203v427.768c.001 10.606-8.597 19.203-19.203 19.203z" fill="#2e3033"/></svg>