<svg xmlns="http://www.w3.org/2000/svg" viewBox="0 0 512 512"><g fill="#82afff"><path d="M512 162.94H31.777V66.397a8.334 8.334 0 0 1 8.334-8.334h463.555A8.334 8.334 0 0 1 512 66.397v96.543zM503.666 372.693H40.111a8.335 8.335 0 0 1-8.334-8.334v-96.542H512v96.542a8.334 8.334 0 0 1-8.334 8.334z"/></g><path fill="#ffe15a" d="M31.777 162.939h480.22v104.87H31.777z"/><path d="M34.832 370.691l190.252-151.022c2.764-2.194 2.764-6.389 0-8.583L34.832 60.064c-1.825 1.519-3.054 3.719-3.054 6.279v298.069c-.001 2.562 1.229 4.762 3.054 6.279z" fill="#464655"/><path d="M18.881 485.182C8.454 485.182 0 476.729 0 466.301V45.544c0-10.342 8.384-18.726 18.726-18.726h.155c10.428 0 18.881 8.454 18.881 18.881V466.3c.001 10.429-8.453 18.882-18.881 18.882z" fill="#2e3033"/></svg>