<svg xmlns="http://www.w3.org/2000/svg" viewBox="0 0 512.1 512.1"><path d="M512 215H27.1V64.5c0-4.6 3.7-8.4 8.4-8.4h468.2c4.6 0 8.4 3.7 8.4 8.4L512 215z" fill="#41479b"/><g fill="#f5f5f5"><path d="M27.1 215H512v150.5c0 4.6-3.7 8.4-8.4 8.4H35.4c-4.6 0-8.4-3.7-8.4-8.4l.1-150.5zM503.6 56.1h-50.2l-154.9 50.7V56.1h-58.1v50.7L85.6 56.1H35.4c-4.6 0-8.4 3.7-8.4 8.4v6.6l133 43.6H27.1v41.8H160L27.1 200v15h58.5l154.9-50.7V215h58.1v-50.7L453.5 215H512v-15l-132.9-43.5H512v-41.8H379.1L512 71.1v-6.6c0-4.6-3.7-8.4-8.4-8.4z"/></g><g fill="#ff4b55"><path d="M27.1 123H512v25.1H27.1z"/><path d="M257 56.1h25.1V215H257z"/></g><path d="M312.4 121l-12.3 6.4-4.9-11.3c-.5-1.2-2.5-1.4-3.4-.4l-10 11.7-10.5-16.3c-.7-1.1-2.7-1.1-3.4 0l-10.5 16.3-10-11.7c-.9-1-2.9-.8-3.4.4l-4.9 11.3-12.3-6.4c-1.6-.8-3.6.5-2.8 1.9l12 18.7h-.5c-1.4 0-2.5.9-2.5 2v5.5c0 1.1 1.1 2 2.5 2h68.2c1.4 0 2.5-.9 2.5-2v-5.5c0-1.1-1.1-2-2.5-2h-.5l12-18.7c.8-1.4-1.2-2.7-2.8-1.9z" fill="#ffe15a"/><g fill="#ff4b55"><path d="M196.5 156.5l-169.4 55v3.5h19.8l180.4-58.5zM512 215v-7.6l-156.9-50.9h-30.7L504.7 215z"/></g><g fill="#41479b"><path d="M511.9 261c-24.3 0-24.3-7.3-48.6-7.3S439 261 414.8 261s-24.2-7.3-48.5-7.3c-24.2 0-24.2 7.3-48.5 7.3-24.2 0-24.2-7.3-48.5-7.3-24.2 0-24.2 7.3-48.5 7.3s-24.2-7.3-48.5-7.3c-24.2 0-24.2 7.3-48.5 7.3-24.2 0-24.2-7.3-48.4-7.3S51.2 261 26.9 261v-22c24.2 0 24.2-7.3 48.5-7.3 24.2 0 24.2 7.3 48.4 7.3s24.2-7.3 48.5-7.3c24.2 0 24.2 7.3 48.5 7.3s24.2-7.3 48.5-7.3 24.2 7.3 48.5 7.3c24.2 0 24.2-7.3 48.5-7.3 24.2 0 24.2 7.3 48.5 7.3s24.3-7.3 48.5-7.3c24.3 0 24.3 7.3 48.6 7.3v22zM511.9 304.9c-24.3 0-24.3-7.3-48.6-7.3s-24.3 7.3-48.5 7.3-24.2-7.3-48.5-7.3c-24.2 0-24.2 7.3-48.5 7.3-24.2 0-24.2-7.3-48.5-7.3-24.2 0-24.2 7.3-48.5 7.3s-24.2-7.3-48.5-7.3c-24.2 0-24.2 7.3-48.5 7.3-24.2 0-24.2-7.3-48.4-7.3s-24.2 7.3-48.5 7.3V283c24.2 0 24.2-7.3 48.5-7.3 24.2 0 24.2 7.3 48.4 7.3s24.2-7.3 48.5-7.3c24.2 0 24.2 7.3 48.5 7.3s24.2-7.3 48.5-7.3 24.2 7.3 48.5 7.3c24.2 0 24.2-7.3 48.5-7.3 24.2 0 24.2 7.3 48.5 7.3s24.3-7.3 48.5-7.3c24.3 0 24.3 7.3 48.6 7.3v21.9zM511.9 348.8c-24.3 0-24.3-7.3-48.6-7.3s-24.3 7.3-48.5 7.3-24.2-7.3-48.5-7.3c-24.2 0-24.2 7.3-48.5 7.3-24.2 0-24.2-7.3-48.5-7.3-24.2 0-24.2 7.3-48.5 7.3s-24.2-7.3-48.5-7.3c-24.2 0-24.2 7.3-48.5 7.3-24.2 0-24.2-7.3-48.4-7.3s-24.2 7.3-48.5 7.3v-21.9c24.2 0 24.2-7.3 48.5-7.3 24.2 0 24.2 7.3 48.4 7.3s24.2-7.3 48.5-7.3c24.2 0 24.2 7.3 48.5 7.3s24.2-7.3 48.5-7.3 24.2 7.3 48.5 7.3c24.2 0 24.2-7.3 48.5-7.3 24.2 0 24.2 7.3 48.5 7.3s24.3-7.3 48.5-7.3c24.3 0 24.3 7.3 48.6 7.3v21.9z"/></g><g fill="#ff4b55"><path d="M211 114.7l-178.6-58c-3.1 1.2-5.4 4.2-5.4 7.8v.4l153.2 49.7c.1.1 30.8.1 30.8.1zM342 114.7L510.5 60c-1.5-2.3-3.9-3.9-6.9-3.9h-12l-180.3 58.5H342v.1z"/></g><g fill="#ffe15a"><path d="M407.5 362.6c17.6-9 23.9-22.6 26.2-27.6 3.5-7.6 19.7-13.8 19.7-13.8s-20 .1-30.7 14c-9.9 12.8-27.6 13.9-44.7 23.7-1.6-2.1-3.3-4.1-5.1-6l53.3-64.5-64.5 53.3c-2.5-2.3-5.1-4.4-7.8-6.5 1.7-4.4 5.1-11.2 11.6-19 12.8-15.1 13.4-30 13.6-35.6.3-8.4 12.9-20.3 12.9-20.3s-18.4 7.7-23 24.6c-4.2 15.6-20.2 23.4-32.2 39-2.3-1.3-4.6-2.5-7-3.6l24.5-80-39.2 73.9c-3.2-1.1-6.4-2.1-9.7-3-.1-4.7.4-12.3 3.5-22 6-18.8.9-32.9-1-38.1-2.9-7.9 4.1-23.6 4.1-23.6s-14.1 14.2-11.8 31.6c2.1 16-9.7 29.3-14.9 48.3-2.6-.3-5.2-.5-7.8-.7l-7.9-83.3-7.9 83.3c-3.4.2-6.8.5-10.1 1-1.9-4.3-4.4-11.5-5.2-21.7-1.6-19.7-11.8-30.7-15.5-34.8-5.7-6.1-5.2-23.4-5.2-23.4s-7.6 18.5 1.2 33.7c8 14 2.3 30.8 4.8 50.3-2.5.7-5 1.5-7.5 2.4L185 240.3l24.5 80c-3.1 1.5-6 3.1-9 4.8-3.4-3.3-8.5-9-13.1-18-9-17.6-22.6-23.9-27.6-26.2-7.6-3.5-13.8-19.7-13.8-19.7s.1 20 14 30.7c12.8 9.9 13.9 27.6 23.7 44.7-2.1 1.6-4.1 3.3-6 5.1l-64.5-53.3 53.3 64.5c-2.3 2.5-4.4 5.1-6.5 7.8-4.4-1.7-11.2-5.1-19-11.6-15.1-12.8-30-13.4-35.6-13.6-8.4-.3-20.3-12.9-20.3-12.9s7.7 18.4 24.6 23c14 3.8 21.7 17 34.4 28.4h247.4c3.3-3.4 8.4-7.5 16-11.4zM448.4 373.9l25.8-13.8-44.7 13.8zM64.8 360.1l25.9 13.8h18.8z"/></g><path d="M19.2 489.1C8.6 489.1 0 480.5 0 469.9V42c0-10.5 8.5-19 19-19h.2c10.6 0 19.2 8.6 19.2 19.2v427.7c0 10.6-8.6 19.2-19.2 19.2z" fill="#2e3033"/></svg>