<svg xmlns="http://www.w3.org/2000/svg" viewBox="0 0 512 512"><path d="M503.56 374.155H35.87a8.44 8.44 0 0 1-8.44-8.44V65.118a8.44 8.44 0 0 1 8.44-8.44h467.69a8.44 8.44 0 0 1 8.44 8.44v300.597a8.44 8.44 0 0 1-8.44 8.44z" fill="#f5f5f5"/><path fill="#41479b" d="M512 190.352H227.942V56.678h-50.128v133.674H27.43v50.129h150.384v133.674h50.128V240.481H512z"/><path d="M19.122 488.101C8.561 488.101 0 479.54 0 468.979V42.865c0-10.474 8.491-18.966 18.965-18.966h.157c10.561 0 19.122 8.561 19.122 19.122v425.958c0 10.561-8.561 19.122-19.122 19.122z" fill="#2e3033"/></svg>