<svg xmlns="http://www.w3.org/2000/svg" viewBox="0 0 512 512"><path d="M503.524 374.657H28.871a8.476 8.476 0 0 1-8.476-8.476V61.048a8.476 8.476 0 0 1 8.476-8.476h474.653A8.476 8.476 0 0 1 512 61.048v305.133a8.476 8.476 0 0 1-8.476 8.476z" fill="#82afff"/><path fill="#464655" d="M20.395 188.19h491.6v50.856h-491.6z"/><g fill="#f5f5f5"><path d="M20.395 171.24h491.6v16.952h-491.6zM20.395 239.04h491.6v16.952h-491.6z"/></g><path d="M19.203 489.087C8.598 489.087 0 480.49 0 469.884V41.958c0-10.519 8.527-19.045 19.045-19.045h.158c10.606 0 19.203 8.598 19.203 19.203v427.768c.001 10.606-8.597 19.203-19.203 19.203z" fill="#2e3033"/></svg>