<svg xmlns="http://www.w3.org/2000/svg" viewBox="0 0 512 512"><path d="M20.395 267.296H512v98.885a8.476 8.476 0 0 1-8.476 8.476H28.871a8.476 8.476 0 0 1-8.476-8.476v-98.885z" fill="#ffe15a"/><path d="M28.871 52.572h474.653A8.476 8.476 0 0 1 512 61.048v98.885H20.395V61.048a8.476 8.476 0 0 1 8.476-8.476z" fill="#f5f5f5"/><path fill="#ff4b55" d="M20.395 159.93h491.6v107.36h-491.6z"/><path d="M19.203 489.087C8.598 489.087 0 480.49 0 469.884V41.958c0-10.519 8.527-19.045 19.045-19.045h.158c10.606 0 19.203 8.598 19.203 19.203v427.768c.001 10.606-8.597 19.203-19.203 19.203z" fill="#2e3033"/></svg>