<svg xmlns="http://www.w3.org/2000/svg" viewBox="0 0 512.001 512.001"><path d="M512 215.417H27.43V65.118a8.44 8.44 0 0 1 8.44-8.44h467.69a8.44 8.44 0 0 1 8.44 8.44v150.299z" fill="#f5f5f5"/><path d="M44.139 215.417v-8.355H27.43v158.739a8.355 8.355 0 0 0 8.355 8.355h467.861a8.355 8.355 0 0 0 8.355-8.355V215.417H44.139z" fill="#ff4b55"/><path d="M177.728 215.417H35.87a8.44 8.44 0 0 1-8.44-8.44V65.118a8.44 8.44 0 0 1 8.44-8.44h141.858a8.44 8.44 0 0 1 8.44 8.44v141.858a8.44 8.44 0 0 1-8.44 8.441z" fill="#41479b"/><path d="M110.017 100.414l7.965 23.882 25.174.195c3.259.025 4.61 4.184 1.989 6.121l-20.252 14.955 7.594 24.002c.983 3.107-2.555 5.678-5.206 3.783L106.8 158.714l-20.481 14.639c-2.651 1.896-6.19-.675-5.206-3.783l7.594-24.002-20.252-14.955c-2.622-1.936-1.27-6.096 1.989-6.121l25.175-.195 7.965-23.882c1.029-3.093 5.402-3.093 6.433-.001z" fill="#f5f5f5"/><path d="M19.122 488.102C8.561 488.102 0 479.54 0 468.979V42.865c0-10.474 8.491-18.966 18.965-18.966h.157c10.561 0 19.122 8.561 19.122 19.122v425.958c0 10.561-8.561 19.123-19.122 19.123z" fill="#2e3033"/></svg>