<svg xmlns="http://www.w3.org/2000/svg" viewBox="0 0 512 512"><path d="M503.6 372.45H35.4c-4.6 0-8.4-3.7-8.4-8.4v-75.3h485v75.3c0 4.6-3.7 8.4-8.4 8.4z" fill="#73af00"/><path d="M503.6 54.65H35.4c-4.6 0-8.4 3.7-8.4 8.4v225.8h485V63.05c0-4.6-3.7-8.4-8.4-8.4z" fill="#ff4b55"/><path d="M96.9 372.45H38.4c-4.6 0-8.4-3.7-8.4-8.4v-301c0-4.6 3.7-8.4 8.4-8.4h58.5v317.8z" fill="#f5f5f5"/><path d="M42.4 358.55h3v-8.3h-3v8.3zm23.6 0h3v-8.3h-3v8.3zm23.6 0h2.9v-8.3h-2.9v8.3zm-35.4-22.2h2.9v-6.9h-2.9v6.9zm23.6 0h2.9v-6.9h-2.9v6.9zm-35.4-18h3v-8.3h-3v8.3zm23.6 0h3v-8.3h-3v8.3zm23.6 0h2.9v-8.3h-2.9v8.3zm-41.3 11.1h2.9v-7h3v-6.9h2.9v6.9h3v7H63v6.9h-2.9v7h-3v7h-2.9v-7h-3v-7h-2.9v-6.9zm23.6 0h3v-7h2.9v-6.9h2.9v6.9h2.9v7h3v6.9h-3v7h-2.9v7h-2.9v-7h-2.9v-7h-3v-6.9zm5.9-27.8v6.9h-3v7h-2.9v6.9h-3v7h-3v-7h-3v-6.9H60v-7h-3v-6.9h-2.9v6.9h-3v7h-2.9v6.9h-3v7h-3v6.9h3v7h3v7h2.9v6.9h3v6.9h3v-6.9H60v-6.9h3v-7h3v-7h3v7h3v7h3v6.9h2.9v6.9h2.9v-6.9h2.9v-6.9h3v-7h3v-7h2.9v-6.9h-2.9v-7h-2.9v-6.9h-3v-7h-2.9v-6.9h-3.1zm7.3-6.9h1.5v-2.8h1.5v2.8h1.5v2.8h-1.5v2.8h-1.5v-2.8h-1.5v-2.8zm0-9.7v4.1h-1.5v4.2h-1.5v5.5h1.5v4.1h1.5v4.1h4.4v-4.1H91v-4h1.5v-5.5H91v-4.2h-1.5v-4.1h-4.4v-.1zm-39.8 9.7h1.5v-2.8h1.5v2.8h1.4v2.8h-1.4v2.8h-1.5v-2.8h-1.5v-2.8zm0-9.7v4.1h-1.5v4.1h-1.5v5.6h1.5v4.1h1.5v4.1h4.4v-4.1h1.5v-4h1.4v-5.6h-1.4v-4.1h-1.5v-4.1h-4.4v-.1zm16.3 9.7H63v-2.8h1.5v2.8H66v2.8h-1.5v2.8H63v-2.8h-1.5v-2.8h.1zm7.3 0h1.5v-2.8h1.5v2.8h1.5v2.8h-1.5v2.8h-1.5v-2.8h-1.5v-2.8zm0-9.7v4.1h-3v-4.1h-4.4v4.1H60v4.1h-1.5v5.6H60v4.1h1.5v4.1H66v-4.1h3v4.1h4.4v-4.1h1.5v-4h1.4v-5.6h-1.4v-4.1h-1.5v-4.1h-4.5v-.1zm-26.5-2.8h3v-8.3h-3v8.3zm23.6 0h3v-8.3h-3v8.3zm23.6 0h2.9v-8.3h-2.9v8.3zm-47.2-34.7h3v-5.5h-3v5.5zm47.2 0h2.9v-5.5h-2.9v5.5zM66 228.15h3v-6.9h-3v6.9zm-23.6-18.7V217.75h3V209.45h-3zm16.2 0V217.75h3V209.45h-3zm14.8 0V217.75h2.9V209.45h-2.9zm16.2 0V217.75h2.9V209.45h-2.9zm-19.2-4.9v2.8h-1.5v2.1h-3v-2.1h-1.5v-2.8h-3v4.1H63v2.1h1.5v5.6H63v2.1h-1.5v4.1h3v-2.8H66v-2h3v2h1.5v2.8h2.9v-4.1h-1.5v-2.1h-1.5v-5.6h1.5v-2.1h1.5v-4.1h-3zm-4.4 1.4h3v-6.9h-3v6.9zm-23.6-20.8h3v-5.5h-3v5.5zm47.2 0h2.9v-5.5h-2.9v5.5zm-47.2-31.9h3v-8.3h-3v8.3zm23.6 0h3v-8.3h-3v8.3zm23.6 0h2.9v-8.3h-2.9v8.3zm-35.4 60.4V210.75h2.9v-4.8h3v-5.6h4.4v-6.5H66v-3.2h3v3.1h1.5v6.6h4.4v5.6h2.9v4.8h2.9v5.6h-2.9v4.9h-2.9v5.6h-4.4v6.5H69v3.1h-3v-3.1h-1.5v-6.5h-4.4v-5.5h-3v-4.9h-2.9v-2.8zm23.6-77.1v7h-3v6.9h-2.9v7h-3v6.9h-3v-6.9h-3v-7H60v-6.9h-3v-7h-2.9v7h-3v6.9h-3v7h-2.9v6.9h-3v7h3v7h2.9v6.9h3v6.9h3v-6.9H57v-6.9h3v-7h-3v-8.4h3v5.6h3v11.1h1.5v6.8l-4.4.1v5.5h-3v4.1h-2.9v7h-3v-7h-3v-4.1h-2.9v-4.1h-3v12.5h3v5.6h2.9v4.8h3v5.6h-3v4.9h-2.9v5.5h-3v12.5h3v-4.2h2.9v-4.2h3v-6.9h3v6.9h2.9v4.1h3v5.6l4.4.1v6.8H63v11.1h-2.9v5.5h-3v-8.4h3v-6.8h-3v-6.9h-2.9v-7h-3v7h-3v6.9h-2.9v6.9h-3v7h3v6.9h3v7h2.9v7h3v6.9h2.9v-6.9h3v-7H63v-7h3v-6.9h3v6.9h3v7h3v7h2.9v6.9h2.9v-6.9h2.9v-7h3v-7h2.9v-6.9h2.9v-7h-2.9v-6.9h-2.9v-6.9h-3v-7h-2.9v7h-2.9v6.9h-3v6.9h3v8.4h-3v-5.5H72v-11.1h-1.5v-6.9H75v-5.6h2.9v-4.2h2.9v-6.9h2.9v6.9h3v4.1h3v4.2h2.9v-12.5h-2.9v-5.5h-3v-4.9h-3v-5.6h3v-4.8h3v-5.6h2.9v-12.4h-2.9v4.1h-3v4.1h-3v7h-2.9v-7h-2.9v-4.1H75v-5.5h-4.5v-6.9H72v-11.1h2.9v-5.6h3v8.4h-3v7h3v6.9h2.9v6.9h2.9v-6.9h3v-6.9h2.9v-7h2.9v-7h-2.9v-6.9h-2.9v-7h-3v-6.9h-2.9v-7h-3zm-32.5-6.9h1.5v-2.8h1.5v2.8h1.4v2.8h-1.4v2.8h-1.5v-2.8h-1.5v-2.8zm0-5.6h-1.5v4.2h-1.5v5.5h1.5v4.2h1.5v4.1h4.4v-4.1h1.5v-4.2h1.4v-5.5h-1.4v-4.2h-1.5v-4.1h-4.4v4.1zm16.3 5.6H63v-2.8h1.5v2.8H66v2.8h-1.5v2.8H63v-2.8h-1.5v-2.8h.1zm7.3 0h1.5v-2.8h1.5v2.8h1.5v2.8h-1.5v2.8h-1.5v-2.8h-1.5v-2.8zm-7.3-5.6h-1.5v4.2h-1.5v5.5h1.5v4.2h1.5v4.1H66v-4.1h3v4.1h4.4v-4.1h1.5v-4.2h1.4v-5.5h-1.4v-4.2h-1.5v-4.1H69v4.1h-3v-4.1h-4.4v4.1zm23.5 5.5h1.5v-2.7h1.5v2.7h1.5v2.8h-1.5v2.8h-1.5v-2.8h-1.5v-2.8zm0-9.6v4.1h-1.5v4.2h-1.5v5.5h1.5v4.1h1.5v4.1h4.4v-4H91v-4.1h1.5v-5.5H91v-4.2h-1.5v-4.2h-4.4zm-42.7-2.8h3v-8.3h-3v8.3zm23.6 0h3v-8.3h-3v8.3zm23.6 0h2.9v-8.3h-2.9v8.3zm-35.4-19.4h2.9v-7h-2.9v7zm23.6 0h2.9v-7h-2.9v7zm-35.4-20.8h3v-8.3h-3v8.3zm23.6 0h3v-8.3h-3v8.3zm23.6 0h2.9v-8.3h-2.9v8.3zm-41.3 13.8h2.9v-6.9h3v-7h2.9v7h3v6.9H63v7h-2.9v6.9h-3v7h-2.9v-7h-3v-6.9h-2.9v-7zm23.6 0h3v-6.9h2.9v-7h2.9v7h2.9v6.9h3v7h-3v6.9h-2.9v7h-2.9v-7h-2.9v-6.9h-3v-7zm5.9-27.7v7h-2.9v6.9h-3v7h-3v6.9h-3v-6.9h-3v-7H60v-6.9h-2.9v-7h-3v7h-3v6.9h-2.9v7h-3v6.9h-3v7h3v6.9h3v7h2.9v7h3v6.9H57v-6.9h3v-7h3v-7h3v-6.9h3v6.9h3v7h2.9v7h3v6.9h2.9v-6.9h2.9v-7h3v-7h2.9v-6.9h2.9v-7h-2.9v-6.9h-3v-7h-3v-6.9h-2.9v-7h-2.9z" fill="#ff4b55"/><path d="M19.2 489.05c-10.6 0-19.2-8.6-19.2-19.2V41.95c0-10.5 8.5-19 19-19h.2c10.6 0 19.2 8.6 19.2 19.2v427.8c0 10.5-8.6 19.1-19.2 19.1z" fill="#2e3033"/></svg>