<svg xmlns="http://www.w3.org/2000/svg" viewBox="0 0 512.007 512.007"><path d="M512 162.506H27.43V65.121a8.44 8.44 0 0 1 8.44-8.44h467.69a8.44 8.44 0 0 1 8.44 8.44v97.385z" fill="#73af00"/><path d="M503.56 374.159H35.87a8.44 8.44 0 0 1-8.44-8.44v-97.385H512v97.385a8.44 8.44 0 0 1-8.44 8.44z" fill="#ff4b55"/><g fill="#f5f5f5"><path d="M27.43 162.501H512v105.83H27.43zM28.745 156.907h.074c.726 0 1.315-.589 1.315-1.315v-2.846c0-.726.589-1.315 1.315-1.315h5.516c.726 0 1.315.589 1.315 1.315v2.846c0 .726.589 1.315 1.315 1.315h10.887c.726 0 1.315-.589 1.315-1.315v-5.62c0-.726-.589-1.315-1.315-1.315h-5.48c-.726 0-1.315.589-1.315 1.315v.145c0 .726.589 1.315 1.315 1.315h2.778c.726 0 1.315.589 1.315 1.315v.142c0 .726-.589 1.315-1.315 1.315h-5.482a1.315 1.315 0 0 1-1.315-1.315v-2.916c0-.726-.589-1.315-1.315-1.315H28.745c-.726 0-1.315.589-1.315 1.315v5.62c0 .725.589 1.314 1.315 1.314zm5.439 0h.075c.726 0 1.315-.589 1.315-1.315v-.075c0-.726-.589-1.315-1.315-1.315h-.075c-.726 0-1.315.589-1.315 1.315v.075a1.316 1.316 0 0 0 1.315 1.315zm-5.439-11.021h32.579c.726 0 1.315-.589 1.315-1.315v-.145c0-.726-.589-1.315-1.315-1.315H28.745c-.726 0-1.315.589-1.315 1.315v.145c0 .727.589 1.315 1.315 1.315zm32.578 11.021h-5.48a1.315 1.315 0 0 1-1.315-1.315v-5.62c0-.726.589-1.315 1.315-1.315h8.184c.726 0 1.315-.589 1.315-1.315v-2.916c0-.726.589-1.315 1.315-1.315h.074c.726 0 1.315.589 1.315 1.315v8.461c0 .726.589 1.315 1.315 1.315h.075c.726 0 1.315-.589 1.315-1.315v-8.461c0-.726.589-1.315 1.315-1.315h.074c.726 0 1.315.589 1.315 1.315v8.461c0 .726.589 1.315 1.315 1.315h.109c.726 0 1.315-.589 1.315-1.315v-8.461c0-.726.589-1.315 1.315-1.315h.04c.726 0 1.315.589 1.315 1.315v11.165c0 .726-.589 1.315-1.315 1.315H66.656a1.315 1.315 0 0 1-1.315-1.315v-2.846c0-.726-.589-1.315-1.315-1.315h-5.48c-.726 0-1.315.589-1.315 1.315v.142c0 .726.589 1.315 1.315 1.315h2.776c.726 0 1.315.589 1.315 1.315v.075a1.314 1.314 0 0 1-1.314 1.315zM82.909 156.907h.109c.726 0 1.315-.589 1.315-1.315v-2.846c0-.726.589-1.315 1.315-1.315h5.446c.726 0 1.315.589 1.315 1.315v2.846c0 .726.589 1.315 1.315 1.315h10.887c.726 0 1.315-.589 1.315-1.315v-5.62c0-.726-.589-1.315-1.315-1.315h-5.48c-.726 0-1.315.589-1.315 1.315v.145c0 .726.589 1.315 1.315 1.315h2.778c.726 0 1.315.589 1.315 1.315v.142c0 .726-.589 1.315-1.315 1.315h-5.482a1.315 1.315 0 0 1-1.315-1.315v-2.916c0-.726-.589-1.315-1.315-1.315H82.909c-.726 0-1.315.589-1.315 1.315v5.62c0 .725.589 1.314 1.315 1.314zm5.405 0h.074c.726 0 1.315-.589 1.315-1.315v-.075c0-.726-.589-1.315-1.315-1.315h-.074c-.726 0-1.315.589-1.315 1.315v.075c.002.726.59 1.315 1.315 1.315zm-5.405-11.021h32.545c.726 0 1.315-.589 1.315-1.315v-.145c0-.726-.589-1.315-1.315-1.315H82.909c-.726 0-1.315.589-1.315 1.315v.145c0 .727.589 1.315 1.315 1.315zm32.544 11.021h-5.516a1.315 1.315 0 0 1-1.315-1.315v-5.62c0-.726.589-1.315 1.315-1.315h8.184c.726 0 1.315-.589 1.315-1.315v-2.916c0-.726.589-1.315 1.315-1.315h.109c.726 0 1.315.589 1.315 1.315v8.461c0 .726.589 1.315 1.315 1.315h.109c.726 0 1.315-.589 1.315-1.315v-8.461c0-.726.589-1.315 1.315-1.315h.04c.726 0 1.315.589 1.315 1.315v8.461c0 .726.589 1.315 1.315 1.315h.109c.726 0 1.315-.589 1.315-1.315v-8.461c0-.726.589-1.315 1.315-1.315h.074c.726 0 1.315.589 1.315 1.315v11.165c0 .726-.589 1.315-1.315 1.315h-10.955a1.315 1.315 0 0 1-1.315-1.315v-2.846c0-.726-.589-1.315-1.315-1.315h-5.446c-.726 0-1.315.589-1.315 1.315v.142c0 .726.589 1.315 1.315 1.315h2.778c.726 0 1.315.589 1.315 1.315v.075a1.324 1.324 0 0 1-1.321 1.315zM137.039 156.907h.074c.726 0 1.315-.589 1.315-1.315v-2.846c0-.726.589-1.315 1.315-1.315h5.482c.726 0 1.315.589 1.315 1.315v2.846c0 .726.589 1.315 1.315 1.315h10.92c.726 0 1.315-.589 1.315-1.315v-5.62c0-.726-.589-1.315-1.315-1.315h-5.48c-.726 0-1.315.589-1.315 1.315v.145c0 .726.589 1.315 1.315 1.315h2.778c.726 0 1.315.589 1.315 1.315v.142c0 .726-.589 1.315-1.315 1.315h-5.516a1.315 1.315 0 0 1-1.315-1.315v-2.916c0-.726-.589-1.315-1.315-1.315H137.04c-.726 0-1.315.589-1.315 1.315v5.62a1.314 1.314 0 0 0 1.314 1.314zm5.407 0h.074c.726 0 1.315-.589 1.315-1.315v-.075c0-.726-.589-1.315-1.315-1.315h-.074c-.726 0-1.315.589-1.315 1.315v.075c0 .726.588 1.315 1.315 1.315zm-5.407-11.021h32.581c.726 0 1.315-.589 1.315-1.315v-.145c0-.726-.589-1.315-1.315-1.315h-32.581c-.726 0-1.315.589-1.315 1.315v.145c0 .727.589 1.315 1.315 1.315zm32.58 11.021h-5.516a1.315 1.315 0 0 1-1.315-1.315v-5.62c0-.726.589-1.315 1.315-1.315h8.183c.726 0 1.315-.589 1.315-1.315v-2.916c0-.726.589-1.315 1.315-1.315h.075c.726 0 1.315.589 1.315 1.315v8.461c0 .726.589 1.315 1.315 1.315h.109c.726 0 1.315-.589 1.315-1.315v-8.461c0-.726.589-1.315 1.315-1.315h.109c.726 0 1.315.589 1.315 1.315v8.461c0 .726.589 1.315 1.315 1.315h.04c.726 0 1.315-.589 1.315-1.315v-8.461c0-.726.589-1.315 1.315-1.315h.074c.726 0 1.315.589 1.315 1.315v11.165c0 .726-.589 1.315-1.315 1.315h-10.921a1.315 1.315 0 0 1-1.315-1.315v-2.846c0-.726-.589-1.315-1.315-1.315h-5.48c-.726 0-1.315.589-1.315 1.315v.142c0 .726.589 1.315 1.315 1.315h2.813c.726 0 1.315.589 1.315 1.315v.075a1.324 1.324 0 0 1-1.321 1.315zM191.169 156.907h.074c.726 0 1.315-.589 1.315-1.315v-2.846c0-.726.589-1.315 1.315-1.315h5.48c.726 0 1.315.589 1.315 1.315v2.846c0 .726.589 1.315 1.315 1.315h10.921c.726 0 1.315-.589 1.315-1.315v-5.62c0-.726-.589-1.315-1.315-1.315h-5.516c-.726 0-1.315.589-1.315 1.315v.145c0 .726.589 1.315 1.315 1.315h2.778c.726 0 1.315.589 1.315 1.315v.142c0 .726-.589 1.315-1.315 1.315h-5.48a1.315 1.315 0 0 1-1.315-1.315v-2.916c0-.726-.589-1.315-1.315-1.315h-10.887c-.726 0-1.315.589-1.315 1.315v5.62c0 .725.589 1.314 1.315 1.314zm5.407 0h.074c.726 0 1.315-.589 1.315-1.315v-.075c0-.726-.589-1.315-1.315-1.315h-.074c-.726 0-1.315.589-1.315 1.315v.075c0 .726.589 1.315 1.315 1.315zm-5.407-11.021h32.545c.726 0 1.315-.589 1.315-1.315v-.145c0-.726-.589-1.315-1.315-1.315h-32.545c-.726 0-1.315.589-1.315 1.315v.145c0 .727.589 1.315 1.315 1.315zm32.546 11.021h-5.516a1.315 1.315 0 0 1-1.315-1.315v-5.62c0-.726.589-1.315 1.315-1.315h8.253c.726 0 1.315-.589 1.315-1.315v-2.916c0-.726.589-1.315 1.315-1.315h.074c.726 0 1.315.589 1.315 1.315v8.461c0 .726.589 1.315 1.315 1.315h.04c.726 0 1.315-.589 1.315-1.315v-8.461c0-.726.589-1.315 1.315-1.315h.109c.726 0 1.315.589 1.315 1.315v8.461c0 .726.589 1.315 1.315 1.315h.075c.726 0 1.315-.589 1.315-1.315v-8.461c0-.726.589-1.315 1.315-1.315h.074c.726 0 1.315.589 1.315 1.315v11.165c0 .726-.589 1.315-1.315 1.315h-10.887a1.315 1.315 0 0 1-1.315-1.315v-2.846c0-.726-.589-1.315-1.315-1.315h-5.516c-.726 0-1.315.589-1.315 1.315v.142c0 .726.589 1.315 1.315 1.315h2.778c.726 0 1.315.589 1.315 1.315v.075a1.323 1.323 0 0 1-1.319 1.315zM245.298 156.907h.075c.726 0 1.315-.589 1.315-1.315v-2.846c0-.726.589-1.315 1.315-1.315h5.48c.726 0 1.315.589 1.315 1.315v2.846c0 .726.589 1.315 1.315 1.315h10.921c.726 0 1.315-.589 1.315-1.315v-5.62c0-.726-.589-1.315-1.315-1.315h-5.516c-.726 0-1.315.589-1.315 1.315v.145c0 .726.589 1.315 1.315 1.315h2.812c.726 0 1.315.589 1.315 1.315v.142c0 .726-.589 1.315-1.315 1.315h-5.48a1.315 1.315 0 0 1-1.315-1.315v-2.916c0-.726-.589-1.315-1.315-1.315h-10.921c-.726 0-1.315.589-1.315 1.315v5.62c0 .725.588 1.314 1.314 1.314zm5.442 0h.04c.726 0 1.315-.589 1.315-1.315v-.075c0-.726-.589-1.315-1.315-1.315h-.04c-.726 0-1.315.589-1.315 1.315v.075c0 .726.589 1.315 1.315 1.315zm-5.442-11.021h32.581c.726 0 1.315-.589 1.315-1.315v-.145c0-.726-.589-1.315-1.315-1.315h-32.581c-.726 0-1.315.589-1.315 1.315v.145a1.315 1.315 0 0 0 1.315 1.315zm32.581 11.021h-5.516a1.315 1.315 0 0 1-1.315-1.315v-5.62c0-.726.589-1.315 1.315-1.315h8.22c.726 0 1.315-.589 1.315-1.315v-2.916c0-.726.589-1.315 1.315-1.315h.074c.726 0 1.315.589 1.315 1.315v8.461c0 .726.589 1.315 1.315 1.315h.076c.726 0 1.315-.589 1.315-1.315v-8.461c0-.726.589-1.315 1.315-1.315h.074c.726 0 1.315.589 1.315 1.315v8.461c0 .726.589 1.315 1.315 1.315h.074c.726 0 1.315-.589 1.315-1.315v-8.461c0-.726.589-1.315 1.315-1.315h.076c.726 0 1.315.589 1.315 1.315v11.165c0 .726-.589 1.315-1.315 1.315H283.22a1.315 1.315 0 0 1-1.315-1.315v-2.846c0-.726-.589-1.315-1.315-1.315h-5.516c-.726 0-1.315.589-1.315 1.315v.142c0 .726.589 1.315 1.315 1.315h2.812c.726 0 1.315.589 1.315 1.315v.075a1.327 1.327 0 0 1-1.322 1.315zM299.428 156.907h.076c.726 0 1.315-.589 1.315-1.315v-2.846c0-.726.589-1.315 1.315-1.315h5.48c.726 0 1.315.589 1.315 1.315v2.846c0 .726.589 1.315 1.315 1.315h10.921c.726 0 1.315-.589 1.315-1.315v-5.62c0-.726-.589-1.315-1.315-1.315h-5.482c-.726 0-1.315.589-1.315 1.315v.145c0 .726.589 1.315 1.315 1.315h2.744c.726 0 1.315.589 1.315 1.315v.142c0 .726-.589 1.315-1.315 1.315h-5.446a1.315 1.315 0 0 1-1.315-1.315v-2.916c0-.726-.589-1.315-1.315-1.315H299.43c-.726 0-1.315.589-1.315 1.315v5.62a1.313 1.313 0 0 0 1.313 1.314zm5.442 0h.04c.726 0 1.315-.589 1.315-1.315v-.075c0-.726-.589-1.315-1.315-1.315h-.04c-.726 0-1.315.589-1.315 1.315v.075c0 .726.589 1.315 1.315 1.315zm-5.442-11.021h32.581c.726 0 1.315-.589 1.315-1.315v-.145c0-.726-.589-1.315-1.315-1.315h-32.581c-.726 0-1.315.589-1.315 1.315v.145a1.315 1.315 0 0 0 1.315 1.315zm32.581 11.021h-5.48a1.315 1.315 0 0 1-1.315-1.315v-5.62c0-.726.589-1.315 1.315-1.315h8.182c.726 0 1.315-.589 1.315-1.315v-2.916c0-.726.589-1.315 1.315-1.315h.076c.726 0 1.315.589 1.315 1.315v8.461c0 .726.589 1.315 1.315 1.315h.074c.726 0 1.315-.589 1.315-1.315v-8.461c0-.726.589-1.315 1.315-1.315h.075c.726 0 1.315.589 1.315 1.315v8.461c0 .726.589 1.315 1.315 1.315h.074c.726 0 1.315-.589 1.315-1.315v-8.461c0-.726.589-1.315 1.315-1.315h.075c.726 0 1.315.589 1.315 1.315v11.165c0 .726-.589 1.315-1.315 1.315h-10.888a1.315 1.315 0 0 1-1.315-1.315v-2.846c0-.726-.589-1.315-1.315-1.315h-5.513c-.726 0-1.315.589-1.315 1.315v.142c0 .726.589 1.315 1.315 1.315h2.812c.726 0 1.315.589 1.315 1.315v.075a1.327 1.327 0 0 1-1.322 1.315zM353.558 156.907h.076c.726 0 1.315-.589 1.315-1.315v-2.846c0-.726.589-1.315 1.315-1.315h5.513c.726 0 1.315.589 1.315 1.315v2.846c0 .726.589 1.315 1.315 1.315h10.888c.726 0 1.315-.589 1.315-1.315v-5.62c0-.726-.589-1.315-1.315-1.315h-5.482c-.726 0-1.315.589-1.315 1.315v.145c0 .726.589 1.315 1.315 1.315h2.814c.726 0 1.315.589 1.315 1.315v.142c0 .726-.589 1.315-1.315 1.315h-5.551a1.315 1.315 0 0 1-1.315-1.315v-2.916c0-.726-.589-1.315-1.315-1.315h-10.887c-.726 0-1.315.589-1.315 1.315v5.62c0 .725.589 1.314 1.314 1.314zm5.406 0h.109c.726 0 1.315-.589 1.315-1.315v-.075c0-.726-.589-1.315-1.315-1.315h-.109c-.726 0-1.315.589-1.315 1.315v.075a1.317 1.317 0 0 0 1.315 1.315zm-5.406-11.021h32.581c.726 0 1.315-.589 1.315-1.315v-.145c0-.726-.589-1.315-1.315-1.315h-32.581c-.726 0-1.315.589-1.315 1.315v.145c.001.727.59 1.315 1.315 1.315zm32.581 11.021h-5.48a1.315 1.315 0 0 1-1.315-1.315v-5.62c0-.726.589-1.315 1.315-1.315h8.183c.726 0 1.315-.589 1.315-1.315v-2.916c0-.726.589-1.315 1.315-1.315h.076c.726 0 1.315.589 1.315 1.315v8.461c0 .726.589 1.315 1.315 1.315h.074c.726 0 1.315-.589 1.315-1.315v-8.461c0-.726.589-1.315 1.315-1.315h.076c.726 0 1.315.589 1.315 1.315v8.461c0 .726.589 1.315 1.315 1.315h.109c.726 0 1.315-.589 1.315-1.315v-8.461c0-.726.589-1.315 1.315-1.315h.038c.726 0 1.315.589 1.315 1.315v11.165c0 .726-.589 1.315-1.315 1.315h-10.89a1.315 1.315 0 0 1-1.315-1.315v-2.846c0-.726-.589-1.315-1.315-1.315h-5.446c-.726 0-1.315.589-1.315 1.315v.142c0 .726.589 1.315 1.315 1.315h2.744c.726 0 1.315.589 1.315 1.315v.075a1.321 1.321 0 0 1-1.319 1.315zM407.722 156.907h.04c.726 0 1.315-.589 1.315-1.315v-2.846c0-.726.589-1.315 1.315-1.315h5.482c.726 0 1.315.589 1.315 1.315v2.846c0 .726.589 1.315 1.315 1.315h10.92c.726 0 1.315-.589 1.315-1.315v-5.62c0-.726-.589-1.315-1.315-1.315h-5.445c-.726 0-1.315.589-1.315 1.315v.145c0 .726.589 1.315 1.315 1.315h2.776c.726 0 1.315.589 1.315 1.315v.142c0 .726-.589 1.315-1.315 1.315h-5.513a1.315 1.315 0 0 1-1.315-1.315v-2.916c0-.726-.589-1.315-1.315-1.315h-10.888c-.726 0-1.315.589-1.315 1.315v5.62a1.313 1.313 0 0 0 1.313 1.314zm5.407 0h.075c.726 0 1.315-.589 1.315-1.315v-.075c0-.726-.589-1.315-1.315-1.315h-.075c-.726 0-1.315.589-1.315 1.315v.075a1.316 1.316 0 0 0 1.315 1.315zm-5.407-11.021h32.617c.726 0 1.315-.589 1.315-1.315v-.145c0-.726-.589-1.315-1.315-1.315h-32.617c-.726 0-1.315.589-1.315 1.315v.145a1.315 1.315 0 0 0 1.315 1.315zm32.617 11.021h-5.551a1.315 1.315 0 0 1-1.315-1.315v-5.62c0-.726.589-1.315 1.315-1.315h8.184c.726 0 1.315-.589 1.315-1.315v-2.916c0-.726.589-1.315 1.315-1.315h.109c.726 0 1.315.589 1.315 1.315v8.461c0 .726.589 1.315 1.315 1.315h.074c.726 0 1.315-.589 1.315-1.315v-8.461c0-.726.589-1.315 1.315-1.315h.04c.726 0 1.315.589 1.315 1.315v8.461c0 .726.589 1.315 1.315 1.315h.109c.726 0 1.315-.589 1.315-1.315v-8.461c0-.726.589-1.315 1.315-1.315h.075c.726 0 1.315.589 1.315 1.315v11.165c0 .726-.589 1.315-1.315 1.315h-10.921a1.315 1.315 0 0 1-1.315-1.315v-2.846c0-.726-.589-1.315-1.315-1.315h-5.48c-.726 0-1.315.589-1.315 1.315v.142c0 .726.589 1.315 1.315 1.315h2.846c.726 0 1.315.589 1.315 1.315v.075a1.323 1.323 0 0 1-1.32 1.315zM461.852 156.907h.075c.726 0 1.315-.589 1.315-1.315v-2.846c0-.726.589-1.315 1.315-1.315h5.48c.726 0 1.315.589 1.315 1.315v2.846c0 .726.589 1.315 1.315 1.315h10.921c.726 0 1.315-.589 1.315-1.315v-5.62c0-.726-.589-1.315-1.315-1.315h-5.446c-.726 0-1.315.589-1.315 1.315v.145c0 .726.589 1.315 1.315 1.315h2.778c.726 0 1.315.589 1.315 1.315v.142c0 .726-.589 1.315-1.315 1.315h-5.551a1.315 1.315 0 0 1-1.315-1.315v-2.916c0-.726-.589-1.315-1.315-1.315h-10.887c-.726 0-1.315.589-1.315 1.315v5.62c.002.725.59 1.314 1.315 1.314zm5.407 0h.076c.726 0 1.315-.589 1.315-1.315v-.075c0-.726-.589-1.315-1.315-1.315h-.076c-.726 0-1.315.589-1.315 1.315v.075c.001.726.59 1.315 1.315 1.315zm-5.407-11.021h32.545c.726 0 1.315-.589 1.315-1.315v-.145c0-.726-.589-1.315-1.315-1.315h-32.545c-.726 0-1.315.589-1.315 1.315v.145c.002.727.59 1.315 1.315 1.315zm32.546 11.021h-5.48a1.315 1.315 0 0 1-1.315-1.315v-5.62c0-.726.589-1.315 1.315-1.315h8.253c.726 0 1.315-.589 1.315-1.315v-2.916c0-.726.589-1.315 1.315-1.315h.004c.726 0 1.315.589 1.315 1.315v8.461c0 .726.589 1.315 1.315 1.315h.145c.726 0 1.315-.589 1.315-1.315v-8.461c0-.726.589-1.315 1.315-1.315h.004c.726 0 1.315.589 1.315 1.315v8.461c0 .726.589 1.315 1.315 1.315h.076c.726 0 1.315-.589 1.315-1.315v-8.461c0-.726.589-1.315 1.315-1.315h.142c.726 0 1.315.589 1.315 1.315v11.165c0 .726-.589 1.315-1.315 1.315h-10.887a1.315 1.315 0 0 1-1.315-1.315v-2.846c0-.726-.589-1.315-1.315-1.315h-5.549c-.726 0-1.315.589-1.315 1.315v.142c0 .726.589 1.315 1.315 1.315h2.776c.726 0 1.315.589 1.315 1.315v.075a1.322 1.322 0 0 1-1.319 1.315z"/><path d="M28.745 165.292h21.732c.726 0 1.315-.589 1.315-1.315v-2.916c0-.726-.589-1.315-1.315-1.315H28.745c-.726 0-1.315.589-1.315 1.315v2.916c0 .726.589 1.315 1.315 1.315zm27.098 0h21.698c.726 0 1.315-.589 1.315-1.315v-2.916c0-.726-.589-1.315-1.315-1.315H55.843c-.726 0-1.315.589-1.315 1.315v2.916c.001.726.59 1.315 1.315 1.315zM82.909 165.292h21.698c.726 0 1.315-.589 1.315-1.315v-2.916c0-.726-.589-1.315-1.315-1.315H82.909c-.726 0-1.315.589-1.315 1.315v2.916c0 .726.589 1.315 1.315 1.315zm27.029 0h21.768c.726 0 1.315-.589 1.315-1.315v-2.916c0-.726-.589-1.315-1.315-1.315h-21.768c-.726 0-1.315.589-1.315 1.315v2.916a1.316 1.316 0 0 0 1.315 1.315zM137.039 165.292h21.732c.726 0 1.315-.589 1.315-1.315v-2.916c0-.726-.589-1.315-1.315-1.315h-21.732c-.726 0-1.315.589-1.315 1.315v2.916c0 .726.589 1.315 1.315 1.315zm27.065 0h21.732c.726 0 1.315-.589 1.315-1.315v-2.916c0-.726-.589-1.315-1.315-1.315h-21.732c-.726 0-1.315.589-1.315 1.315v2.916c0 .726.589 1.315 1.315 1.315zM191.169 165.292h21.732c.726 0 1.315-.589 1.315-1.315v-2.916c0-.726-.589-1.315-1.315-1.315h-21.732c-.726 0-1.315.589-1.315 1.315v2.916c0 .726.589 1.315 1.315 1.315zm27.03 0h21.768c.726 0 1.315-.589 1.315-1.315v-2.916c0-.726-.589-1.315-1.315-1.315h-21.768c-.726 0-1.315.589-1.315 1.315v2.916a1.316 1.316 0 0 0 1.315 1.315zM245.298 165.292h21.734c.726 0 1.315-.589 1.315-1.315v-2.916c0-.726-.589-1.315-1.315-1.315h-21.734c-.726 0-1.315.589-1.315 1.315v2.916a1.316 1.316 0 0 0 1.315 1.315zm27.065 0h21.734c.726 0 1.315-.589 1.315-1.315v-2.916c0-.726-.589-1.315-1.315-1.315h-21.734c-.726 0-1.315.589-1.315 1.315v2.916a1.316 1.316 0 0 0 1.315 1.315zM299.428 165.292h21.734c.726 0 1.315-.589 1.315-1.315v-2.916c0-.726-.589-1.315-1.315-1.315h-21.734c-.726 0-1.315.589-1.315 1.315v2.916a1.316 1.316 0 0 0 1.315 1.315zm27.101 0h21.698c.726 0 1.315-.589 1.315-1.315v-2.916c0-.726-.589-1.315-1.315-1.315h-21.698c-.726 0-1.315.589-1.315 1.315v2.916a1.316 1.316 0 0 0 1.315 1.315zM353.558 165.292h21.734c.726 0 1.315-.589 1.315-1.315v-2.916c0-.726-.589-1.315-1.315-1.315h-21.734c-.726 0-1.315.589-1.315 1.315v2.916c.001.726.59 1.315 1.315 1.315zm27.101 0h21.697c.726 0 1.315-.589 1.315-1.315v-2.916c0-.726-.589-1.315-1.315-1.315h-21.697c-.726 0-1.315.589-1.315 1.315v2.916c.001.726.59 1.315 1.315 1.315zM407.722 165.292h21.699c.726 0 1.315-.589 1.315-1.315v-2.916c0-.726-.589-1.315-1.315-1.315h-21.699c-.726 0-1.315.589-1.315 1.315v2.916a1.316 1.316 0 0 0 1.315 1.315zm27.065 0h21.734c.726 0 1.315-.589 1.315-1.315v-2.916c0-.726-.589-1.315-1.315-1.315h-21.734c-.726 0-1.315.589-1.315 1.315v2.916c.002.726.59 1.315 1.315 1.315zM461.852 165.292h21.734c.726 0 1.315-.589 1.315-1.315v-2.916c0-.726-.589-1.315-1.315-1.315h-21.734c-.726 0-1.315.589-1.315 1.315v2.916c.002.726.59 1.315 1.315 1.315zm27.066 0h21.768c.726 0 1.315-.589 1.315-1.315v-2.916c0-.726-.589-1.315-1.315-1.315h-21.768c-.726 0-1.315.589-1.315 1.315v2.916c.001.726.59 1.315 1.315 1.315zM510.687 273.933h-.074c-.726 0-1.315.589-1.315 1.315v2.846c0 .726-.589 1.315-1.315 1.315h-5.516a1.315 1.315 0 0 1-1.315-1.315v-2.846c0-.726-.589-1.315-1.315-1.315H488.95c-.726 0-1.315.589-1.315 1.315v5.62c0 .726.589 1.315 1.315 1.315h5.48c.726 0 1.315-.589 1.315-1.315v-.145c0-.726-.589-1.315-1.315-1.315h-2.778a1.315 1.315 0 0 1-1.315-1.315v-.142c0-.726.589-1.315 1.315-1.315h5.482c.726 0 1.315.589 1.315 1.315v2.916c0 .726.589 1.315 1.315 1.315h10.92c.726 0 1.315-.589 1.315-1.315v-5.62a1.313 1.313 0 0 0-1.312-1.314zm-5.441 0h-.076c-.726 0-1.315.589-1.315 1.315v.075c0 .726.589 1.315 1.315 1.315h.076c.726 0 1.315-.589 1.315-1.315v-.075a1.316 1.316 0 0 0-1.315-1.315zm5.441 11.02h-32.579c-.726 0-1.315.589-1.315 1.315v.145c0 .726.589 1.315 1.315 1.315h32.579c.726 0 1.315-.589 1.315-1.315v-.145a1.317 1.317 0 0 0-1.315-1.315zm-32.58-11.02h5.48c.726 0 1.315.589 1.315 1.315v5.62c0 .726-.589 1.315-1.315 1.315h-8.184c-.726 0-1.315.589-1.315 1.315v2.916c0 .726-.589 1.315-1.315 1.315h-.073a1.315 1.315 0 0 1-1.315-1.315v-8.461c0-.726-.589-1.315-1.315-1.315h-.076c-.726 0-1.315.589-1.315 1.315v8.461c0 .726-.589 1.315-1.315 1.315h-.074a1.315 1.315 0 0 1-1.315-1.315v-8.461c0-.726-.589-1.315-1.315-1.315h-.109c-.726 0-1.315.589-1.315 1.315v8.461c0 .726-.589 1.315-1.315 1.315h-.04a1.315 1.315 0 0 1-1.315-1.315v-11.165c0-.726.589-1.315 1.315-1.315h10.887c.726 0 1.315.589 1.315 1.315v2.846c0 .726.589 1.315 1.315 1.315h5.48c.726 0 1.315-.589 1.315-1.315v-.142c0-.726-.589-1.315-1.315-1.315h-2.776a1.315 1.315 0 0 1-1.315-1.315v-.075a1.323 1.323 0 0 1 1.32-1.315zM456.522 273.933h-.109c-.726 0-1.315.589-1.315 1.315v2.846c0 .726-.589 1.315-1.315 1.315h-5.446a1.315 1.315 0 0 1-1.315-1.315v-2.846c0-.726-.589-1.315-1.315-1.315H434.82c-.726 0-1.315.589-1.315 1.315v5.62c0 .726.589 1.315 1.315 1.315h5.48c.726 0 1.315-.589 1.315-1.315v-.145c0-.726-.589-1.315-1.315-1.315h-2.778a1.315 1.315 0 0 1-1.315-1.315v-.142c0-.726.589-1.315 1.315-1.315h5.482c.726 0 1.315.589 1.315 1.315v2.916c0 .726.589 1.315 1.315 1.315h10.887c.726 0 1.315-.589 1.315-1.315v-5.62c0-.725-.589-1.314-1.314-1.314zm-5.406 0h-.074c-.726 0-1.315.589-1.315 1.315v.075c0 .726.589 1.315 1.315 1.315h.074c.726 0 1.315-.589 1.315-1.315v-.075a1.316 1.316 0 0 0-1.315-1.315zm5.406 11.02h-32.545c-.726 0-1.315.589-1.315 1.315v.145c0 .726.589 1.315 1.315 1.315h32.545c.726 0 1.315-.589 1.315-1.315v-.145a1.317 1.317 0 0 0-1.315-1.315zm-32.545-11.02h5.516c.726 0 1.315.589 1.315 1.315v5.62c0 .726-.589 1.315-1.315 1.315h-8.184c-.726 0-1.315.589-1.315 1.315v2.916c0 .726-.589 1.315-1.315 1.315h-.109a1.315 1.315 0 0 1-1.315-1.315v-8.461c0-.726-.589-1.315-1.315-1.315h-.109c-.726 0-1.315.589-1.315 1.315v8.461c0 .726-.589 1.315-1.315 1.315h-.04a1.315 1.315 0 0 1-1.315-1.315v-8.461c0-.726-.589-1.315-1.315-1.315h-.109c-.726 0-1.315.589-1.315 1.315v8.461c0 .726-.589 1.315-1.315 1.315h-.074a1.315 1.315 0 0 1-1.315-1.315v-11.165c0-.726.589-1.315 1.315-1.315h10.955c.726 0 1.315.589 1.315 1.315v2.846c0 .726.589 1.315 1.315 1.315h5.446c.726 0 1.315-.589 1.315-1.315v-.142c0-.726-.589-1.315-1.315-1.315h-2.778a1.315 1.315 0 0 1-1.315-1.315v-.075a1.324 1.324 0 0 1 1.321-1.315zM402.391 273.933h-.074c-.726 0-1.315.589-1.315 1.315v2.846c0 .726-.589 1.315-1.315 1.315h-5.482a1.315 1.315 0 0 1-1.315-1.315v-2.846c0-.726-.589-1.315-1.315-1.315h-10.92c-.726 0-1.315.589-1.315 1.315v5.62c0 .726.589 1.315 1.315 1.315h5.48c.726 0 1.315-.589 1.315-1.315v-.145c0-.726-.589-1.315-1.315-1.315h-2.778a1.315 1.315 0 0 1-1.315-1.315v-.142c0-.726.589-1.315 1.315-1.315h5.516c.726 0 1.315.589 1.315 1.315v2.916c0 .726.589 1.315 1.315 1.315h10.887c.726 0 1.315-.589 1.315-1.315v-5.62a1.314 1.314 0 0 0-1.314-1.314zm-5.405 0h-.074c-.726 0-1.315.589-1.315 1.315v.075c0 .726.589 1.315 1.315 1.315h.074c.726 0 1.315-.589 1.315-1.315v-.075a1.317 1.317 0 0 0-1.315-1.315zm5.405 11.02H369.81c-.726 0-1.315.589-1.315 1.315v.145c0 .726.589 1.315 1.315 1.315h32.581c.726 0 1.315-.589 1.315-1.315v-.145c0-.726-.589-1.315-1.315-1.315zm-32.58-11.02h5.516c.726 0 1.315.589 1.315 1.315v5.62c0 .726-.589 1.315-1.315 1.315h-8.183c-.726 0-1.315.589-1.315 1.315v2.916c0 .726-.589 1.315-1.315 1.315h-.075a1.315 1.315 0 0 1-1.315-1.315v-8.461c0-.726-.589-1.315-1.315-1.315h-.109c-.726 0-1.315.589-1.315 1.315v8.461c0 .726-.589 1.315-1.315 1.315h-.109a1.315 1.315 0 0 1-1.315-1.315v-8.461c0-.726-.589-1.315-1.315-1.315h-.04c-.726 0-1.315.589-1.315 1.315v8.461c0 .726-.589 1.315-1.315 1.315h-.074a1.315 1.315 0 0 1-1.315-1.315v-11.165c0-.726.589-1.315 1.315-1.315h10.921c.726 0 1.315.589 1.315 1.315v2.846c0 .726.589 1.315 1.315 1.315h5.48c.726 0 1.315-.589 1.315-1.315v-.142c0-.726-.589-1.315-1.315-1.315h-2.814a1.315 1.315 0 0 1-1.315-1.315v-.075a1.326 1.326 0 0 1 1.322-1.315zM348.261 273.933h-.074c-.726 0-1.315.589-1.315 1.315v2.846c0 .726-.589 1.315-1.315 1.315h-5.48a1.315 1.315 0 0 1-1.315-1.315v-2.846c0-.726-.589-1.315-1.315-1.315h-10.921c-.726 0-1.315.589-1.315 1.315v5.62c0 .726.589 1.315 1.315 1.315h5.516c.726 0 1.315-.589 1.315-1.315v-.145c0-.726-.589-1.315-1.315-1.315h-2.777a1.315 1.315 0 0 1-1.315-1.315v-.142c0-.726.589-1.315 1.315-1.315h5.48c.726 0 1.315.589 1.315 1.315v2.916c0 .726.589 1.315 1.315 1.315h10.887c.726 0 1.315-.589 1.315-1.315v-5.62a1.317 1.317 0 0 0-1.316-1.314zm-5.406 0h-.074c-.726 0-1.315.589-1.315 1.315v.075c0 .726.589 1.315 1.315 1.315h.074c.726 0 1.315-.589 1.315-1.315v-.075a1.316 1.316 0 0 0-1.315-1.315zm5.406 11.02h-32.545c-.726 0-1.315.589-1.315 1.315v.145c0 .726.589 1.315 1.315 1.315h32.545c.726 0 1.315-.589 1.315-1.315v-.145c0-.726-.589-1.315-1.315-1.315zm-32.545-11.02h5.516c.726 0 1.315.589 1.315 1.315v5.62c0 .726-.589 1.315-1.315 1.315h-8.253c-.726 0-1.315.589-1.315 1.315v2.916c0 .726-.589 1.315-1.315 1.315h-.074a1.315 1.315 0 0 1-1.315-1.315v-8.461c0-.726-.589-1.315-1.315-1.315h-.04c-.726 0-1.315.589-1.315 1.315v8.461c0 .726-.589 1.315-1.315 1.315h-.109a1.315 1.315 0 0 1-1.315-1.315v-8.461c0-.726-.589-1.315-1.315-1.315h-.076c-.726 0-1.315.589-1.315 1.315v8.461c0 .726-.589 1.315-1.315 1.315h-.074a1.315 1.315 0 0 1-1.315-1.315v-11.165c0-.726.589-1.315 1.315-1.315h10.887c.726 0 1.315.589 1.315 1.315v2.846c0 .726.589 1.315 1.315 1.315h5.516c.726 0 1.315-.589 1.315-1.315v-.142c0-.726-.589-1.315-1.315-1.315h-2.778a1.315 1.315 0 0 1-1.315-1.315v-.075a1.324 1.324 0 0 1 1.32-1.315zM294.133 273.933h-.076c-.726 0-1.315.589-1.315 1.315v2.846c0 .726-.589 1.315-1.315 1.315h-5.48a1.315 1.315 0 0 1-1.315-1.315v-2.846c0-.726-.589-1.315-1.315-1.315h-10.921c-.726 0-1.315.589-1.315 1.315v5.62c0 .726.589 1.315 1.315 1.315h5.516c.726 0 1.315-.589 1.315-1.315v-.145c0-.726-.589-1.315-1.315-1.315H275.1a1.315 1.315 0 0 1-1.315-1.315v-.142c0-.726.589-1.315 1.315-1.315h5.48c.726 0 1.315.589 1.315 1.315v2.916c0 .726.589 1.315 1.315 1.315h10.921c.726 0 1.315-.589 1.315-1.315v-5.62a1.313 1.313 0 0 0-1.313-1.314zm-5.443 0h-.04c-.726 0-1.315.589-1.315 1.315v.075c0 .726.589 1.315 1.315 1.315h.04c.726 0 1.315-.589 1.315-1.315v-.075c0-.726-.588-1.315-1.315-1.315zm5.443 11.02h-32.581c-.726 0-1.315.589-1.315 1.315v.145c0 .726.589 1.315 1.315 1.315h32.581c.726 0 1.315-.589 1.315-1.315v-.145a1.316 1.316 0 0 0-1.315-1.315zm-32.581-11.02h5.516c.726 0 1.315.589 1.315 1.315v5.62c0 .726-.589 1.315-1.315 1.315h-8.22c-.726 0-1.315.589-1.315 1.315v2.916c0 .726-.589 1.315-1.315 1.315h-.074a1.315 1.315 0 0 1-1.315-1.315v-8.461c0-.726-.589-1.315-1.315-1.315h-.075c-.726 0-1.315.589-1.315 1.315v8.461c0 .726-.589 1.315-1.315 1.315h-.074a1.315 1.315 0 0 1-1.315-1.315v-8.461c0-.726-.589-1.315-1.315-1.315h-.074c-.726 0-1.315.589-1.315 1.315v8.461c0 .726-.589 1.315-1.315 1.315h-.075a1.315 1.315 0 0 1-1.315-1.315v-11.165c0-.726.589-1.315 1.315-1.315h10.887c.726 0 1.315.589 1.315 1.315v2.846c0 .726.589 1.315 1.315 1.315h5.516c.726 0 1.315-.589 1.315-1.315v-.142c0-.726-.589-1.315-1.315-1.315h-2.812a1.315 1.315 0 0 1-1.315-1.315v-.075a1.324 1.324 0 0 1 1.32-1.315zM240.002 273.933h-.075c-.726 0-1.315.589-1.315 1.315v2.846c0 .726-.589 1.315-1.315 1.315h-5.48a1.315 1.315 0 0 1-1.315-1.315v-2.846c0-.726-.589-1.315-1.315-1.315h-10.921c-.726 0-1.315.589-1.315 1.315v5.62c0 .726.589 1.315 1.315 1.315h5.482c.726 0 1.315-.589 1.315-1.315v-.145c0-.726-.589-1.315-1.315-1.315h-2.744a1.315 1.315 0 0 1-1.315-1.315v-.142c0-.726.589-1.315 1.315-1.315h5.446c.726 0 1.315.589 1.315 1.315v2.916c0 .726.589 1.315 1.315 1.315h10.921c.726 0 1.315-.589 1.315-1.315v-5.62c0-.725-.587-1.314-1.314-1.314zm-5.442 0h-.04c-.726 0-1.315.589-1.315 1.315v.075c0 .726.589 1.315 1.315 1.315h.04c.726 0 1.315-.589 1.315-1.315v-.075c0-.726-.589-1.315-1.315-1.315zm5.442 11.02h-32.581c-.726 0-1.315.589-1.315 1.315v.145c0 .726.589 1.315 1.315 1.315h32.581c.726 0 1.315-.589 1.315-1.315v-.145a1.315 1.315 0 0 0-1.315-1.315zm-32.581-11.02h5.48c.726 0 1.315.589 1.315 1.315v5.62c0 .726-.589 1.315-1.315 1.315h-8.183c-.726 0-1.315.589-1.315 1.315v2.916c0 .726-.589 1.315-1.315 1.315h-.075a1.315 1.315 0 0 1-1.315-1.315v-8.461c0-.726-.589-1.315-1.315-1.315h-.074c-.726 0-1.315.589-1.315 1.315v8.461c0 .726-.589 1.315-1.315 1.315h-.075a1.315 1.315 0 0 1-1.315-1.315v-8.461c0-.726-.589-1.315-1.315-1.315h-.074c-.726 0-1.315.589-1.315 1.315v8.461c0 .726-.589 1.315-1.315 1.315h-.075a1.315 1.315 0 0 1-1.315-1.315v-11.165c0-.726.589-1.315 1.315-1.315h10.888c.726 0 1.315.589 1.315 1.315v2.846c0 .726.589 1.315 1.315 1.315h5.513c.726 0 1.315-.589 1.315-1.315v-.142c0-.726-.589-1.315-1.315-1.315h-2.812a1.315 1.315 0 0 1-1.315-1.315v-.075a1.327 1.327 0 0 1 1.322-1.315zM185.872 273.933h-.076c-.726 0-1.315.589-1.315 1.315v2.846c0 .726-.589 1.315-1.315 1.315h-5.513a1.315 1.315 0 0 1-1.315-1.315v-2.846c0-.726-.589-1.315-1.315-1.315h-10.888c-.726 0-1.315.589-1.315 1.315v5.62c0 .726.589 1.315 1.315 1.315h5.482c.726 0 1.315-.589 1.315-1.315v-.145c0-.726-.589-1.315-1.315-1.315h-2.813a1.315 1.315 0 0 1-1.315-1.315v-.142c0-.726.589-1.315 1.315-1.315h5.55c.726 0 1.315.589 1.315 1.315v2.916c0 .726.589 1.315 1.315 1.315h10.887c.726 0 1.315-.589 1.315-1.315v-5.62c0-.725-.588-1.314-1.314-1.314zm-5.406 0h-.109c-.726 0-1.315.589-1.315 1.315v.075c0 .726.589 1.315 1.315 1.315h.109c.726 0 1.315-.589 1.315-1.315v-.075a1.316 1.316 0 0 0-1.315-1.315zm5.406 11.02h-32.581c-.726 0-1.315.589-1.315 1.315v.145c0 .726.589 1.315 1.315 1.315h32.581c.726 0 1.315-.589 1.315-1.315v-.145a1.316 1.316 0 0 0-1.315-1.315zm-32.581-11.02h5.48c.726 0 1.315.589 1.315 1.315v5.62c0 .726-.589 1.315-1.315 1.315h-8.183c-.726 0-1.315.589-1.315 1.315v2.916c0 .726-.589 1.315-1.315 1.315h-.075a1.315 1.315 0 0 1-1.315-1.315v-8.461c0-.726-.589-1.315-1.315-1.315h-.074c-.726 0-1.315.589-1.315 1.315v8.461c0 .726-.589 1.315-1.315 1.315h-.075a1.315 1.315 0 0 1-1.315-1.315v-8.461c0-.726-.589-1.315-1.315-1.315h-.109c-.726 0-1.315.589-1.315 1.315v8.461c0 .726-.589 1.315-1.315 1.315h-.038a1.315 1.315 0 0 1-1.315-1.315v-11.165c0-.726.589-1.315 1.315-1.315h10.887c.726 0 1.315.589 1.315 1.315v2.846c0 .726.589 1.315 1.315 1.315h5.446c.726 0 1.315-.589 1.315-1.315v-.142c0-.726-.589-1.315-1.315-1.315h-2.744a1.315 1.315 0 0 1-1.315-1.315v-.075a1.324 1.324 0 0 1 1.32-1.315zM131.708 273.933h-.04c-.726 0-1.315.589-1.315 1.315v2.846c0 .726-.589 1.315-1.315 1.315h-5.482a1.315 1.315 0 0 1-1.315-1.315v-2.846c0-.726-.589-1.315-1.315-1.315h-10.92c-.726 0-1.315.589-1.315 1.315v5.62c0 .726.589 1.315 1.315 1.315h5.444c.726 0 1.315-.589 1.315-1.315v-.145c0-.726-.589-1.315-1.315-1.315h-2.776a1.315 1.315 0 0 1-1.315-1.315v-.142c0-.726.589-1.315 1.315-1.315h5.513c.726 0 1.315.589 1.315 1.315v2.916c0 .726.589 1.315 1.315 1.315h10.888c.726 0 1.315-.589 1.315-1.315v-5.62a1.311 1.311 0 0 0-1.312-1.314zm-5.406 0h-.075c-.726 0-1.315.589-1.315 1.315v.075c0 .726.589 1.315 1.315 1.315h.075c.726 0 1.315-.589 1.315-1.315v-.075c0-.726-.589-1.315-1.315-1.315zm5.406 11.02H99.092c-.726 0-1.315.589-1.315 1.315v.145c0 .726.589 1.315 1.315 1.315h32.617c.726 0 1.315-.589 1.315-1.315v-.145a1.317 1.317 0 0 0-1.316-1.315zm-32.616-11.02h5.55c.726 0 1.315.589 1.315 1.315v5.62c0 .726-.589 1.315-1.315 1.315h-8.184c-.726 0-1.315.589-1.315 1.315v2.916c0 .726-.589 1.315-1.315 1.315h-.109a1.315 1.315 0 0 1-1.315-1.315v-8.461c0-.726-.589-1.315-1.315-1.315h-.074c-.726 0-1.315.589-1.315 1.315v8.461c0 .726-.589 1.315-1.315 1.315h-.04a1.315 1.315 0 0 1-1.315-1.315v-8.461c0-.726-.589-1.315-1.315-1.315h-.109c-.726 0-1.315.589-1.315 1.315v8.461c0 .726-.589 1.315-1.315 1.315H82.9a1.315 1.315 0 0 1-1.315-1.315v-11.165c0-.726.589-1.315 1.315-1.315h10.921c.726 0 1.315.589 1.315 1.315v2.846c0 .726.589 1.315 1.315 1.315h5.48c.726 0 1.315-.589 1.315-1.315v-.142c0-.726-.589-1.315-1.315-1.315H99.09a1.315 1.315 0 0 1-1.315-1.315v-.075a1.32 1.32 0 0 1 1.317-1.315zM77.578 273.933h-.075c-.726 0-1.315.589-1.315 1.315v2.846c0 .726-.589 1.315-1.315 1.315h-5.48a1.315 1.315 0 0 1-1.315-1.315v-2.846c0-.726-.589-1.315-1.315-1.315h-10.92c-.726 0-1.315.589-1.315 1.315v5.62c0 .726.589 1.315 1.315 1.315h5.446c.726 0 1.315-.589 1.315-1.315v-.145c0-.726-.589-1.315-1.315-1.315h-2.778a1.315 1.315 0 0 1-1.315-1.315v-.142c0-.726.589-1.315 1.315-1.315h5.55c.726 0 1.315.589 1.315 1.315v2.916c0 .726.589 1.315 1.315 1.315h10.887c.726 0 1.315-.589 1.315-1.315v-5.62a1.316 1.316 0 0 0-1.315-1.314zm-5.406 0h-.075c-.726 0-1.315.589-1.315 1.315v.075c0 .726.589 1.315 1.315 1.315h.075c.726 0 1.315-.589 1.315-1.315v-.075a1.317 1.317 0 0 0-1.315-1.315zm5.406 11.02H45.033c-.726 0-1.315.589-1.315 1.315v.145c0 .726.589 1.315 1.315 1.315h32.545c.726 0 1.315-.589 1.315-1.315v-.145a1.317 1.317 0 0 0-1.315-1.315zm-32.545-11.02h5.48c.726 0 1.315.589 1.315 1.315v5.62c0 .726-.589 1.315-1.315 1.315H42.26c-.726 0-1.315.589-1.315 1.315v2.916c0 .726-.589 1.315-1.315 1.315h-.004a1.315 1.315 0 0 1-1.315-1.315v-8.461c0-.726-.589-1.315-1.315-1.315h-.145c-.726 0-1.315.589-1.315 1.315v8.461c0 .726-.589 1.315-1.315 1.315h-.004a1.315 1.315 0 0 1-1.315-1.315v-8.461c0-.726-.589-1.315-1.315-1.315h-.075c-.726 0-1.315.589-1.315 1.315v8.461c0 .726-.589 1.315-1.315 1.315h-.142a1.315 1.315 0 0 1-1.315-1.315v-11.165c0-.726.589-1.315 1.315-1.315h10.89c.726 0 1.315.589 1.315 1.315v2.846c0 .726.589 1.315 1.315 1.315h5.549c.726 0 1.315-.589 1.315-1.315v-.142c0-.726-.589-1.315-1.315-1.315h-2.776a1.315 1.315 0 0 1-1.315-1.315v-.075c0-.726.589-1.315 1.315-1.315zM510.687 265.548h-21.732c-.726 0-1.315.589-1.315 1.315v2.916c0 .726.589 1.315 1.315 1.315h21.732c.726 0 1.315-.589 1.315-1.315v-2.916a1.317 1.317 0 0 0-1.315-1.315zm-27.1 0h-21.698c-.726 0-1.315.589-1.315 1.315v2.916c0 .726.589 1.315 1.315 1.315h21.698c.726 0 1.315-.589 1.315-1.315v-2.916a1.315 1.315 0 0 0-1.315-1.315zM456.522 265.548h-21.698c-.726 0-1.315.589-1.315 1.315v2.916c0 .726.589 1.315 1.315 1.315h21.698c.726 0 1.315-.589 1.315-1.315v-2.916a1.316 1.316 0 0 0-1.315-1.315zm-27.03 0h-21.768c-.726 0-1.315.589-1.315 1.315v2.916c0 .726.589 1.315 1.315 1.315h21.768c.726 0 1.315-.589 1.315-1.315v-2.916c0-.727-.589-1.315-1.315-1.315zM402.391 265.548h-21.732c-.726 0-1.315.589-1.315 1.315v2.916c0 .726.589 1.315 1.315 1.315h21.732c.726 0 1.315-.589 1.315-1.315v-2.916c0-.727-.589-1.315-1.315-1.315zm-27.065 0h-21.733c-.726 0-1.315.589-1.315 1.315v2.916c0 .726.589 1.315 1.315 1.315h21.733c.726 0 1.315-.589 1.315-1.315v-2.916c0-.727-.589-1.315-1.315-1.315zM348.261 265.548h-21.732c-.726 0-1.315.589-1.315 1.315v2.916c0 .726.589 1.315 1.315 1.315h21.732c.726 0 1.315-.589 1.315-1.315v-2.916c0-.727-.589-1.315-1.315-1.315zm-27.029 0h-21.768c-.726 0-1.315.589-1.315 1.315v2.916c0 .726.589 1.315 1.315 1.315h21.768c.726 0 1.315-.589 1.315-1.315v-2.916a1.316 1.316 0 0 0-1.315-1.315zM294.133 265.548h-21.734c-.726 0-1.315.589-1.315 1.315v2.916c0 .726.589 1.315 1.315 1.315h21.734c.726 0 1.315-.589 1.315-1.315v-2.916a1.315 1.315 0 0 0-1.315-1.315zm-27.066 0h-21.734c-.726 0-1.315.589-1.315 1.315v2.916c0 .726.589 1.315 1.315 1.315h21.734c.726 0 1.315-.589 1.315-1.315v-2.916c0-.727-.589-1.315-1.315-1.315zM240.002 265.548h-21.734c-.726 0-1.315.589-1.315 1.315v2.916c0 .726.589 1.315 1.315 1.315h21.734c.726 0 1.315-.589 1.315-1.315v-2.916a1.315 1.315 0 0 0-1.315-1.315zm-27.1 0h-21.698c-.726 0-1.315.589-1.315 1.315v2.916c0 .726.589 1.315 1.315 1.315h21.698c.726 0 1.315-.589 1.315-1.315v-2.916c0-.727-.589-1.315-1.315-1.315zM185.872 265.548h-21.734c-.726 0-1.315.589-1.315 1.315v2.916c0 .726.589 1.315 1.315 1.315h21.734c.726 0 1.315-.589 1.315-1.315v-2.916a1.315 1.315 0 0 0-1.315-1.315zm-27.1 0h-21.697c-.726 0-1.315.589-1.315 1.315v2.916c0 .726.589 1.315 1.315 1.315h21.697c.726 0 1.315-.589 1.315-1.315v-2.916a1.316 1.316 0 0 0-1.315-1.315zM131.708 265.548H110.01c-.726 0-1.315.589-1.315 1.315v2.916c0 .726.589 1.315 1.315 1.315h21.698c.726 0 1.315-.589 1.315-1.315v-2.916a1.315 1.315 0 0 0-1.315-1.315zm-27.065 0H82.909c-.726 0-1.315.589-1.315 1.315v2.916c0 .726.589 1.315 1.315 1.315h21.734c.726 0 1.315-.589 1.315-1.315v-2.916a1.315 1.315 0 0 0-1.315-1.315zM77.578 265.548H55.843c-.726 0-1.315.589-1.315 1.315v2.916c0 .726.589 1.315 1.315 1.315h21.734c.726 0 1.315-.589 1.315-1.315v-2.916c0-.727-.589-1.315-1.314-1.315zm-27.065 0H28.745c-.726 0-1.315.589-1.315 1.315v2.916c0 .726.589 1.315 1.315 1.315h21.768c.726 0 1.315-.589 1.315-1.315v-2.916a1.316 1.316 0 0 0-1.315-1.315z"/></g><g fill="#ff4b55"><path d="M262.805 175.929a7.142 7.142 0 0 0 6.941-1.917c2.743 2.777 7.236 2.842 10.08.133 1.852-1.785 2.611-4.495 1.95-6.941-2.412 3.9-7.501 5.156-11.401 2.71-.198-.133-.462-.266-.628-.398-3.668 2.71-8.856 1.983-11.632-1.652-.1-.199-.298-.464-.429-.661-.994 3.835 1.319 7.8 5.119 8.726zM278.2 253.139c8.883-4.876 16.297-12.561 20.362-22.682 6.922-17.348 2.563-36.929-10.678-49.631-.455-.437-1.146.148-.817.686 13.06 21.296 7.915 49.285-12.294 64.62l.966-61.864a2.734 2.734 0 0 0-1.015-2.168l-3.286-2.657a2.733 2.733 0 0 0-3.448.01l-3.239 2.648a2.737 2.737 0 0 0-1.003 2.157l.939 61.909c-20.212-15.328-25.368-43.341-12.329-64.653.329-.538-.362-1.121-.818-.685-13.216 12.701-17.603 32.281-10.681 49.628 4.064 10.12 11.477 17.804 20.363 22.68-5.655 1.938-11.598 2.966-17.608 2.794-.635-.018-.763.875-.155 1.059 7.636 2.318 15.49 2.477 22.874.822l2.899 5.625c.2.388.755.389.957.001l2.918-5.622c7.385 1.652 15.241 1.49 22.882-.827.608-.185.48-1.077-.154-1.059-6.012.173-11.97-.854-17.635-2.791z"/><path d="M314.36 195.625a38.343 38.343 0 0 0-21.085-18.087c-.563-.197-1.002.545-.542.925 19.843 16.346 23.821 45.458 8.476 66.535-.793 1.058-1.653 2.181-2.479 3.105 18.836-10.111 25.808-33.64 15.63-52.478zM238.252 244.999c-15.345-21.077-11.398-50.188 8.44-66.534.461-.38.021-1.124-.542-.925-8.977 3.154-16.475 9.592-21.052 18.086-10.243 18.837-3.205 42.367 15.665 52.479-.892-.925-1.751-2.048-2.511-3.106z"/></g><path d="M19.122 488.104C8.561 488.104 0 479.543 0 468.982V42.868c0-10.474 8.491-18.966 18.965-18.966h.157c10.561 0 19.122 8.561 19.122 19.122v425.958c0 10.561-8.561 19.122-19.122 19.122z" fill="#2e3033"/></svg>