<svg xmlns="http://www.w3.org/2000/svg" viewBox="0 0 511.999 511.999"><path d="M223.817 374.657H28.871a8.476 8.476 0 0 1-8.476-8.476V61.047a8.476 8.476 0 0 1 8.476-8.476h194.946v322.086z" fill="#f5f5f5"/><path d="M156.01 52.571l67.807 20.13-67.807 20.13 67.807 20.13-67.807 20.13 67.807 20.13-67.807 20.13 67.807 20.13-67.807 20.13 67.807 20.13-67.807 20.13 67.807 20.13-67.807 20.13 67.807 20.13-67.807 20.13 67.807 20.13-67.807 20.13h347.513a8.476 8.476 0 0 0 8.476-8.476V61.047a8.476 8.476 0 0 0-8.476-8.476H156.01z" fill="#ff4b55"/><path d="M19.203 489.087C8.598 489.087 0 480.489 0 469.884V41.957c0-10.519 8.527-19.045 19.045-19.045h.158c10.606 0 19.203 8.598 19.203 19.203v427.768c.001 10.606-8.597 19.204-19.203 19.204z" fill="#2e3033"/></svg>