<svg xmlns="http://www.w3.org/2000/svg" viewBox="0 0 512.1 512.1"><path d="M503.6 56.2H35.4c-4.6 0-8.4 3.7-8.4 8.4v301c0 4.6 3.7 8.4 8.4 8.4h468.3c4.6 0 8.4-3.7 8.4-8.4v-301c-.1-4.6-3.8-8.4-8.5-8.4z" fill="#ff4b55"/><path d="M30.3 372.1l268.9-151.8c4-2.3 4-8.1 0-10.4L30.3 58.1c-2 1.5-3.3 3.8-3.3 6.5v301c0 2.7 1.3 5 3.3 6.5z" fill="#ffe15a"/><path d="M29.6 371.6l182.8-150.8c3.6-3 3.6-8.5 0-11.5L29.6 58.6c-1.6 1.5-2.6 3.6-2.6 6v301c0 2.4 1 4.5 2.6 6z" fill="#464655"/><path d="M79.2 175.8l.8 30.1-28.2 10.5c-2.7 1-2.6 4.9.2 5.7l28.9 8.5 1.3 30.1c.1 2.9 3.8 4 5.5 1.6l17-24.8 29 8.1c2.8.8 4.9-2.4 3.2-4.7L118.6 217l16.7-25.1c1.6-2.4-.8-5.5-3.5-4.5l-28.4 10.1-18.7-23.6c-1.9-2.3-5.6-1-5.5 1.9z" fill="#f5f5f5"/><path d="M18.7 483.5C8.4 483.5 0 475.2 0 464.8V47.2c0-10.3 8.3-18.6 18.6-18.6h.2c10.3 0 18.7 8.4 18.7 18.7v417.4c0 10.5-8.4 18.8-18.8 18.8z" fill="#2e3033"/></svg>