<svg xmlns="http://www.w3.org/2000/svg" viewBox="0 0 512 512"><path d="M20.448 267.295H512v98.875a8.476 8.476 0 0 1-8.475 8.475H28.924a8.476 8.476 0 0 1-8.475-8.475l-.001-98.875z" fill="#73af00"/><path d="M28.923 52.594h474.601a8.476 8.476 0 0 1 8.475 8.475v98.875H20.448V61.069a8.475 8.475 0 0 1 8.475-8.475z" fill="#82afff"/><path fill="#ff4b55" d="M20.448 159.94h491.55v107.35H20.448z"/><g fill="#f5f5f5"><path d="M277.783 248.764c-19.019 0-34.448-15.429-34.448-34.465 0-19.002 15.429-34.465 34.448-34.465 7.077 0 13.602 2.176 19.04 5.859.833.565 1.783-.531 1.086-1.255-8.128-8.45-19.631-13.606-32.385-13.17-21.912.748-40.052 18.316-41.452 40.196-1.604 25.062 18.24 45.889 42.948 45.889 12.17 0 23.108-5.088 30.92-13.223.69-.718-.263-1.797-1.087-1.237-5.444 3.692-11.98 5.871-19.07 5.871z"/><path d="M307.941 193.085l3.574 10.049 9.633-4.579c.726-.345 1.483.412 1.138 1.138l-4.58 9.633 10.049 3.574c.757.269.757 1.34 0 1.609l-10.049 3.574 4.58 9.633c.345.726-.412 1.483-1.138 1.138l-9.633-4.579-3.574 10.049c-.269.757-1.34.757-1.609 0l-3.574-10.049-9.633 4.579c-.726.345-1.483-.412-1.138-1.138l4.579-9.633-10.049-3.574c-.757-.269-.757-1.34 0-1.609l10.049-3.574-4.579-9.633c-.345-.726.412-1.483 1.138-1.138l9.633 4.579 3.574-10.049c.27-.758 1.34-.758 1.609 0z"/></g><path d="M19.201 489.063C8.597 489.063 0 480.466 0 469.862V41.982c0-10.517 8.526-19.044 19.043-19.044h.158c10.604 0 19.201 8.597 19.201 19.201v427.723c0 10.604-8.596 19.201-19.201 19.201z" fill="#2e3033"/></svg>