<svg xmlns="http://www.w3.org/2000/svg" viewBox="0 0 512 512"><path d="M503.471 379.668H29.07a8.53 8.53 0 0 1-8.529-8.529V66.207a8.53 8.53 0 0 1 8.529-8.529h474.401A8.53 8.53 0 0 1 512 66.207v304.932a8.53 8.53 0 0 1-8.529 8.529z" fill="#ffe15a"/><path fill="#41479b" d="M45.96 83.099H512v271.15H45.96z"/><g fill="#ff4b55"><path d="M45.961 83.098l233.02 135.575L162.472 83.099zM278.981 218.673V83.098l116.511.001zM512 83.098L278.981 218.673 512 150.886zM278.981 218.673H512v67.787zM278.981 218.673L45.963 150.887v67.786zM45.963 286.461l233.018-67.788L45.963 354.249z"/></g><g fill="#ffe15a"><path d="M282.879 193.873l30.385-70.074-22.435 73.01z"/><path d="M322.89 234.169c.662-1.874 1.24-3.786 1.66-5.761l50.64 4.492-49.815-10.069c.122-1.372.21-2.754.21-4.157 0-1.351-.09-2.68-.203-4.002l49.409-10.405-50.193 4.863c-.439-2.111-1.064-4.147-1.778-6.143l44.851-23.448-47.053 18.289a46.49 46.49 0 0 0-4.171-6.786l37.19-34.29-40.785 29.979c-4.324-4.583-9.544-8.308-15.413-10.843l14.813-48.202-20.08 46.31a46.596 46.596 0 0 0-13.192-1.924 46.53 46.53 0 0 0-13.294 1.95l-20.091-46.336 14.827 48.25c-5.849 2.543-11.05 6.266-15.358 10.846l-40.853-30.029 37.257 34.353a46.537 46.537 0 0 0-4.143 6.76l-47.149-18.326 44.947 23.498c-.707 1.983-1.327 4.006-1.763 6.104l-50.303-4.873 49.52 10.43c-.111 1.315-.2 2.635-.2 3.979 0 1.396.088 2.77.208 4.134l-49.927 10.092 50.75-4.501c.417 1.962.989 3.86 1.645 5.723l-44.757 22.871 46.92-17.737c7.606 15.401 23.426 26.022 41.765 26.022 18.325 0 34.134-10.602 41.747-25.984l46.824 17.7-44.662-22.829z"/></g><path d="M512 354.248L284.307 221.772a10.592 10.592 0 0 0-10.654 0L45.961 354.248H512z" fill="#f5f5f5"/><g fill="#ff4b55"><circle cx="279.02" cy="285.149" r="1.763"/><path d="M276.332 226.087c5.29 6.54-3.27 9.809-2.212 16.061 0 0-1.731-2.597-1.058-6.252s-1.635-4.808-1.635-4.808 1.058 4.135-1.538 6.444c-2.597 2.308-1.827 7.598-1.827 7.598s-3.27-2.212-2.597-5.578c0 0-4.424 3.847-.481 10.29 0 0-2.597-.192-3.559-1.827 0 0-2.303 6.78 6.976 11.95 9.278 5.17 10.625-7.141 10.625-7.141l6.637 8.271s7.95-.224 11.734-8.752l-4.552.834c.289-2.404 6.38-3.046 3.976-10.259 0 0-.192 1.538-1.923 2.597 0 0 .064-4.969-3.527-8.239 0 0-.128 2.661-1.283 3.623 0 0 .385-3.43-1.731-6.123-2.021-2.574-2.212-4.937-2.212-4.937s-2.404 4.424-1.538 6.637c0 0-2.005-.487-2.212-3.174-.452-5.836-6.063-7.215-6.063-7.215z"/></g><ellipse cx="279.02" cy="278.569" rx="15.01" ry="6.429" fill="#ffe15a"/><ellipse cx="279.02" cy="277.169" rx="12.98" ry="5.816" fill="#ff4b55"/><g fill="#ff82aa"><path d="M281.742 277.925h-5.441c-.096 1.697.672 4.159 2.716 5.051v.005l.002-.002.005.002v-.005c2.046-.892 2.814-3.354 2.718-5.051z"/><path d="M286.069 276.878l-4.937 1.159c.301 1.673 1.56 3.906 3.618 4.339l.001.005.003-.004.003.002v-.005c1.652-1.304 1.787-3.864 1.312-5.496z"/><path d="M288.623 275.106l-3.437 2.252c.869 1.459 2.704 3.2 4.484 3.101l.003.004.001-.004.004.001-.003-.004c.803-1.594-.06-3.971-1.052-5.35z"/><path d="M288.523 271.626l-1.352 3.414c1.833 2.333 4.838 2.092 4.838 2.092.119-1.899-2.248-4.343-3.486-5.506zM271.929 276.878l4.937 1.159c-.301 1.673-1.56 3.906-3.618 4.339l-.001.005-.003-.004-.004.002.001-.005c-1.652-1.304-1.788-3.864-1.312-5.496z"/><path d="M269.373 275.106l3.437 2.252c-.869 1.459-2.704 3.2-4.484 3.101l-.003.004-.001-.004-.004.001.003-.004c-.802-1.594.062-3.971 1.052-5.35z"/><path d="M269.475 271.626l1.352 3.414c-1.834 2.333-4.839 2.092-4.839 2.092-.119-1.899 2.249-4.343 3.487-5.506z"/></g><ellipse cx="279.02" cy="273.639" rx="10.534" ry="4.721" fill="#ffe15a"/><ellipse cx="279.02" cy="273.639" rx="7.838" ry="3.067" fill="#ff4b55"/><path d="M279.816 326.683c-5.124.435-9.624-3.373-10.061-8.489-.225-2.558 1.681-4.815 4.243-5.032 2.561-.219 4.81 1.681 5.028 4.243s2.473 4.456 5.03 4.244a4.652 4.652 0 0 0 4.242-5.033c.436 5.123-3.362 9.629-8.482 10.067" fill="#41479b"/><path d="M269.755 318.194c-.225-2.558 1.681-4.815 4.243-5.032 2.561-.219 4.81 1.681 5.028 4.243s2.473 4.456 5.03 4.244a4.652 4.652 0 0 0 4.242-5.033c-.429-5.128-4.934-8.923-10.058-8.487a9.31 9.31 0 0 0-8.485 10.065" fill="#ff9b55"/><path d="M279.025 302.169c-8.414 0-15.234 6.82-15.234 15.234 0 8.413 6.82 15.234 15.234 15.234s15.234-6.821 15.234-15.234c-.001-8.414-6.82-15.234-15.234-15.234zm0 27.294c-6.66 0-12.06-5.4-12.06-12.06s5.4-12.06 12.06-12.06 12.06 5.4 12.06 12.06-5.399 12.06-12.06 12.06z" fill="#ffe15a"/><path d="M279.025 305.343c-6.66 0-12.06 5.4-12.06 12.06s5.4 12.06 12.06 12.06 12.06-5.4 12.06-12.06-5.399-12.06-12.06-12.06zm0 21.298c-5.101 0-9.238-4.135-9.238-9.238s4.135-9.238 9.238-9.238c5.101 0 9.238 4.135 9.238 9.238s-4.136 9.238-9.238 9.238z" fill="#ff4b55"/><circle cx="274.33" cy="317.399" r="1.163" fill="#ff9b55"/><circle cx="283.65" cy="317.399" r="1.163" fill="#41479b"/><g fill="#ff4b55"><circle cx="279.02" cy="298.429" r="1.409"/><circle cx="280.43" cy="300.889" r="1.409"/><circle cx="277.62" cy="300.889" r="1.409"/><circle cx="279.02" cy="336.419" r="1.409"/><circle cx="277.62" cy="333.959" r="1.409"/><circle cx="280.43" cy="333.959" r="1.409"/></g><path d="M276.447 258.522c-.968-5.403-3.554-9.46-5.776-9.061-2.222.399-3.239 5.1-2.27 10.503.698 3.899 2.246 7.032 3.885 8.362-.677 1.161-1.089 2.931-1.098 5.123 1.216.104 2.471.098 3.759-.132 1.287-.23 2.466-.661 3.57-1.181-.77-2.053-1.771-3.569-2.809-4.423 1.076-1.816 1.438-5.292.739-9.191z" fill="#ff9b55"/><path d="M281.573 258.522c.968-5.403 3.554-9.46 5.776-9.061 2.222.399 3.239 5.1 2.27 10.503-.698 3.899-2.246 7.032-3.885 8.362.676 1.161 1.088 2.931 1.098 5.123-1.217.104-2.471.098-3.759-.132-1.287-.23-2.466-.661-3.57-1.181.77-2.053 1.771-3.569 2.808-4.423-1.075-1.816-1.438-5.292-.738-9.191z" fill="#41479b"/><path d="M283.157 258.397c0-5.952-1.831-10.776-4.087-10.776s-4.087 4.824-4.087 10.776c0 4.294.97 7.935 2.349 9.668-.871 1.11-1.588 2.919-1.984 5.258 1.179.344 2.416.578 3.723.578 1.308 0 2.544-.233 3.723-.578-.396-2.339-1.114-4.148-1.984-5.258 1.378-1.732 2.347-5.373 2.347-9.668z" fill="#f5f5f5"/><g fill="#ffe15a"><path d="M279.025 269.653c-2.662 0-5.106-.247-6.694-.687a1.016 1.016 0 0 1-.719-1.254c.151-.543.727-.902 1.254-.71 2.81.751 9.508.751 12.318 0 .547-.199 1.106.167 1.254.71a1.017 1.017 0 0 1-.719 1.254c-1.589.439-4.031.687-6.694.687zM270.273 285.812c1.107-.144 2.501-.481 2.597-2.164 0 0-2.5-.241-2.5-.048-.001.193-.097 2.212-.097 2.212z"/></g><g fill="#ff4b55"><path d="M245.172 279.56c1.251.353 2.468.609 2.853 2.148 0 0 1.283-2.565-.513-4.103-.327-.281-2.34 1.955-2.34 1.955zM250.494 275.265c1.251.353 2.469.609 2.853 2.148 0 0 1.283-2.565-.513-4.103-.328-.281-2.34 1.955-2.34 1.955z"/></g><path d="M245.556 284.176c-.77-.192-2.116-1.923-.385-4.616s-5.867 1.347-6.155 3.559c-.289 2.212-.577 6.155 1.154 5.097 1.732-1.058 5.386-4.04 5.386-4.04z" fill="#ffe15a"/><path d="M253.795 284.465c.256-1.41 0-2.372 1.795-3.655s2.051-1.987 2.051-2.821c0 0-.978 1.042-2.709 1.474-1.06.264-1.971 1.026-1.971 1.026s-.449-1.603 1.155-2.5c0 0-2.821 0-3.27 2.565s1.026 2.95-1.09 3.206c-2.116.256-7.053-.77-8.784 3.142s3.527 1.09 4.937.577 5.899.577 6.604-.385c.706-.961 1.282-2.629 1.282-2.629z" fill="#ff4b55"/><path d="M235.313 291.486l7.598-12.502s7.55-2.917 7.614-3.302 2.501-3.527 2.501-3.976-.257-2.629-1.219-3.014-4.025.907-5.354 1.247c-1.329.34-3.43-2.145-3.43-2.145s-12.246 2.308-13.144 3.783c-.898 1.474-5.129 12.055-5.322 13.144-.192 1.09 0 8.592.257 8.464.257-.128 10.499-1.699 10.499-1.699z" fill="#fff5e6"/><path d="M253.474 269.847c-1.154-1.667-3.27-1.667-4.167-.321s-2.821 1.346-3.27 3.013c-.355 1.317 1.795 3.719 3.078 3.27s3.655-1.923 3.655-1.923 1.859-2.373.704-4.039zm-3.51 3.393c-.527.673-1.848-.163-1.856-.91-.009-.746 1.094-.789 1.643-.401.357.254.642.764.213 1.311zm1.976-1.661c-.77.37-1.585-.963-1.263-1.637.322-.674 1.329-.225 1.65.366.209.385.24.969-.387 1.271z" fill="#ff4b55"/><path d="M255.905 318.351c1.277.128 2.969-.047 3.321-2.938.403-3.313 1.405-4.47 3.065-3.704 1.661.767 1.248 2.091 1.248 2.091s1.827 4.808.866 6.732c-.962 1.923-3.174 4.231-4.809 4.616s-5.001-1.827-5.001-1.827l1.31-4.97z" fill="#fff5e6"/><path d="M246.678 307.163c1.09-.513 14.555-9.874 16.157-13.4 1.603-3.527.706-6.091 2.821-6.22 2.116-.128 5.706-.257 5.386-2.885-.321-2.629-3.847-.962-4.808-1.474-.962-.513-3.976-1.923-4.552.128-.577 2.051 0 3.912-.834 4.937-.834 1.026-4.552 2.821-5.193 2.693s-2.011-.295-3.057.365c-1.047.661-1.624 1.559-1.624 1.559s-3.944.16-4.504.689c-.561.529-2.677 3.35-2.677 3.35l2.885 10.258z" fill="#ffe6d7"/><path d="M248.088 305.047s2.565-.962 4.392-4.52c1.827-3.559 3.655-2.116 6.348-4.04 2.693-1.923.962-4.809.193-5.963-.77-1.155-.241-4.135 2.404-4.039 1.741.063 7.309 5.482 4.809 10.868 0 0-.385-.962-1.346-2.116 0 0 1.442 3.559-1.923 7.501 0 0 .096-2.019-.962-3.366 0 0-.096 5.001-3.944 8.175 0 0 .481-3.27-.096-4.616 0 0-.577 4.327-6.252 8.271 0 0 .866-1.538.674-4.039l-4.809 2.501.512-4.617z" fill="#5aa587"/><path d="M211.51 321.492s-1.731 5.29 2.981 6.828 7.309-.481 9.041 0 1.346 3.559-1.058 6.155c-2.404 2.597-4.809 2.885-7.502.962s-2.885-3.655-5.674-2.982c-2.789.674-6.637-2.019-6.637-2.019s2.501-10.868 2.789-10.772c.289.097 6.06 1.828 6.06 1.828z" fill="#f5dcd2"/><path d="M187.058 308.26s3.321-3.193 16.222-7.154c12.901-3.96 19.799-5.621 19.799-5.621l10.091-3.193s4.75-.018 7.867-.903l3.118-.885s8.303 11.752 2.044 23.63l2.172 2.044s2.283.697 4.015 1.306c1.732.61.455 3.931.455 3.931l-6.642 3.065-19.415-.894s-.383-.894-6.77 1.149c-6.386 2.044-9.196-2.554-21.459-2.938-12.264-.381-11.497-13.537-11.497-13.537z" fill="#fff5e6"/><g fill="#5aa587"><path d="M242.255 262.41s1.955 1.955.898 4.039c0 0-2.18-2.244-3.976-2.757-2.763-.789-3.334.722-9.441 1.01-3.843.181-5.395 3.864-9.153 2.965-4.024-.962-7.341.882-7.341.882s2.308-.288 4.183 1.491c1.875 1.778 5.193 1.394 5.193 1.394s-3.029 2.116-5.578 1.107-6.204.866-6.204.866c.673-.048 2.164.192 3.847 1.971 1.683 1.779 5.434 1.346 5.434 1.346-.673.818-2.549 1.731-4.321 1.391-4.016-.77-8.303 1.021-8.303 1.021s2.554-.894 6.003 1.66c3.449 2.554 7.408 1.021 7.408 1.021 0 1.661-3.456 8.058-9.589 7.839-7.635-.271-9.57 4.167-9.57 4.167s3.066-1.021 7.026-.383c7.671 1.237 12.901-3.193 12.901-3.193s-1.277 6.003-6.514 5.747c-5.237-.256-11.88 5.109-11.88 5.109s5.901-1.063 13.52-1.157c2.506-.031 4.544-1.018 6.286-2.195 4.582-3.095 8.814-3.095 8.814-3.095-5.001 1.154-7.597 6.637-7.597 6.637s3.847-3.366 9.424-3.366c5.578 0 7.309-6.54 7.309-6.54-5.194.096-5.963-4.135-5.963-4.135s-1.538.481-2.981 2.212c-.913 1.095-2.455 1.467-3.512 1.615-.385-3.373 2.162-6.452 2.162-6.452s-3.449-5.237 1.021-10.857 14.689-3.832 14.689-3.832c1.062-4.708-2.914-7.657-4.195-7.528z"/><path d="M231.868 281.003c1.667-.257 9.425-2.821 9.296-6.284-.128-3.463-4.744-2.244-4.488-.385.257 1.859 1.923 1.474 1.923 1.474s-.161.838-3.591 1.538c-2.82.58-3.14 3.657-3.14 3.657zM252.385 317.486s4.808-.77 4.616 2.693c-.192 3.463-2.95 7.117-8.656 8.72 0 0 2.116-1.827 1.635-2.885s-2.885-1.346-4.135.481-3.366 2.597-5.193 2.308c0 0 3.27-2.404.962-3.27-2.079-.779-1.283 2.597-6.252 3.174 0 0 3.655-2.885 1.538-3.655-2.116-.77-3.27 4.231-7.02 3.847 0 0 3.142-3.142 1.442-3.655-2.676-.808-3.366 3.847-8.175 1.827 0 0 2.404-1.058.481-3.655s.77-5.867 2.116-7.213c1.347-1.346 2.308-2.212 1.923-3.559 0 0 3.43 2.148 1.699 5.931-1.626 3.552 4.955 1.591 10.066 1.155 5.258-.449 8.376 2.566 11.734 1.538 3.142-.961 1.219-3.782 1.219-3.782zM159.34 319.117s6.309 2.909 9.885-.029c3.577-2.938 4.548.539 8.763-2.015 4.215-2.554 3.96-1.149 7.28-1.149 3.321 0 5.748-5.365 3.705-9.069 0 0 6.936-2.69 5.514-8.252-1.058-4.135-6.28-2.861-6.28-2.861s-5.511-3.464-9.324 1.021c-3.117 3.666-1.405 6.131-6.642 6.77-5.237.639-6.003 6.003-11.624 5.365 0 0 3.832 4.982 9.708 1.788 0 0-.138 4.812-10.985 8.431zM215.165 328.514s5.386 4.808-5.193 7.694c0 0 .674-.866 1.442-2.404 0 0-3.27 2.404-7.501 2.212 0 0 1.251-.962 1.538-2.116 0 0-3.847 1.058-6.637-.77 0 0 3.366-.192 5.482-3.366 0 0 .962 1.923 2.982.962 2.02-.962 3.177.422 5.001.481 1.491.048 2.79-.722 2.886-2.693zM212.504 298.828s-3.847 1.795-2.051 5.193c1.197 2.265 4.946 2.81 6.412.706 1.251-1.795.258-3.538-1.058-3.783-1.378-.257-2.212.321-2.853 1.474-.001 0-2.374-.898-.45-3.59z"/><path d="M229.783 304.807s8.354.318 7.934 6.107c-.184 2.547-3.629 4.325-5.803 2.989-1.855-1.14-1.554-3.037-.586-3.88 1.065-.927 2.119-.593 3.165.205 0 .001.532-3.161-4.71-5.421zM246.47 293.554s4.51-3.026 6.264.577c.772 1.584-.668 3.84-2.429 3.795-1.502-.037-1.98-1.275-1.694-2.113.314-.922 1.06-1.089 1.961-.974 0 0 .273-2.343-4.102-1.285zM252.598 291.306s4.16-2.79 5.778.532c.712 1.462-.616 3.542-2.24 3.501-1.385-.035-1.826-1.176-1.563-1.949.29-.851.978-1.003 1.809-.899 0 0 .252-2.161-3.784-1.185z"/><path d="M237.018 309.754s7.189.273 6.827 5.255c-.159 2.192-3.123 3.722-4.994 2.573-1.596-.981-1.682-2.78-.989-3.639 1.203-1.49 2.645-.818 2.645-.818s1.022-1.426-3.489-3.371z"/><path d="M242.287 313.702s7.934-.77 7.346 4.586c-.154 1.398-1.998 2.381-3.194 1.646-1.021-.627-1.076-1.778-.633-2.328.769-.953 1.692-.522 1.692-.522s-.499-2.372-5.211-3.382z"/></g><path d="M191.4 339.171s1.086 2.205 1.788 4.343c.601 1.831 3.705 3.065 5.365 1.916 1.66-1.149 4.465-4.585 3.315-5.351-1.149-.767-6.125-.142-6.891-2.823-.767-2.682-.511-4.47-.511-4.47s6.657 1.981 9.831-3.02c3.174-5.001 2.72-9.885 3.964-12.307.972-1.894 2.682-2.81 2.682-2.81-1.955-7.742-25.802-13.284-23.034 6.812l-3.746 8.515 7.237 9.195z" fill="#ffe6d7"/><g fill="#5aa587"><path d="M182.946 338.836c1.635 1.058 7.63 4.103 11.349 1.795 3.041-1.888 3.078-4.039 1.155-4.52s-2.982.866-4.04 0-7.02-5.771-4.808-7.309 3.409-2.784 3.366-5.482c-.032-1.987-1.763-3.912-3.815-4.103-2.559-.24-4.552.834-7.245.834l3.142 1.602c-2.02.962-2.18 3.687-4.584 4.167 0 0 1.635 1.859 3.687 1.283 0 0-.705 1.923-2.629 2.18 0 0 1.795 2.051 3.463 2.629 0 0-1.09.77-2.789.449 0 0 2.661 3.912 6.637 4.905l-2.889 1.57z"/><path d="M194.532 331.513s1.068-.186 1.16-1.486c.053-.751-.696-1.722-1.97-1.649-1.493.085-2.505 2.067-1.789 3.382 1.831 3.36 8.645 2.012 9.479.793 0 0-5.45.256-6.88-1.04z"/></g><g fill="#ffe15a"><path d="M197.725 347.492c.296-.417.537-1.547-.04-2.244 0 0 .312-1.611 1.538-1.034 0 0 .521 1.29.104 2.188-.415.898-1.602 1.09-1.602 1.09z"/><path d="M200.226 346.589c-.021-1.162-.281-1.797-1.22-1.893 0 0-.241-1.683 1.155-1.683 0 0 1.033.914 1.044 1.903.01.988-.979 1.673-.979 1.673z"/><path d="M201.772 345.462c-.229-1.14-.445-1.932-1.488-2.01 0 0-.555-1.378.983-1.57 0 0 .981.787 1.167 1.759.188.971-.662 1.821-.662 1.821z"/><path d="M203.319 343.695c-.473-1.061-.945-1.486-1.98-1.333 0 0-.889-1.251.337-1.923 0 0 1.493.426 1.889 1.333.396.907-.246 1.923-.246 1.923zM221.576 337.191c.217-.463.254-1.617-.438-2.202 0 0 .021-1.641 1.331-1.291 0 0 .742 1.177.49 2.134-.249.959-1.383 1.359-1.383 1.359z"/><path d="M223.878 335.857c-.227-1.14-.596-1.719-1.536-1.647 0 0-.535-1.614.837-1.861 0 0 1.179.715 1.365 1.688.185.972-.666 1.82-.666 1.82z"/><path d="M225.199 334.474c-.428-1.081-.78-1.823-1.822-1.713 0 0-.791-1.258.689-1.721 0 0 1.104.6 1.462 1.523.356.924-.329 1.911-.329 1.911z"/><path d="M226.408 332.461c-.655-.961-1.193-1.295-2.184-.959 0 0-1.097-1.073-.011-1.953 0 0 1.545.155 2.096.977.55.822.099 1.935.099 1.935z"/></g><path d="M253.538 273.244c.208 1.041-.321 2.18-2.821 3.27-2.501 1.09-2.436.641-4.103 2.757s-1.859 2.18-3.912 2.565c-2.051.385-3.014 6.732-.577 5.771 2.436-.962 2.757-2.95 5.45-2.308 2.693.641 4.103 1.538 6.22-.834 0 0 2.051 2.757-1.795 3.912-3.847 1.154-5.946 1.243-7.846 2.128-1.9.885-8.639 3.049-9.081-3.251-.128-1.827 1.219-2.532 1.987-3.879.77-1.346 1.538-2.244 3.398-3.719s.706-2.693 3.719-3.142c3.014-.449 5.514-.385 6.412-2.565.898-2.179 2.694-1.986 2.949-.705z" fill="#ffe6d7"/><g fill="#5aa587"><path d="M203.047 303.812s-.578-2.297 2.101-3.271c-.63.191-1.207.362-1.869.565-.564.173-1.011.335-1.538.505-.206.278-.482.424-.62.813-.815 2.283 1.202 5.244 3.606 4.921 2.05-.276 2.632-2.081 1.962-3.156-.703-1.122-2.247-1.387-3.642-.377zM203.877 328.201c-2.907.65-4.215-.472-4.215-.472s1.068-.186 1.16-1.486c.053-.749-.696-1.722-1.97-1.649-1.493.086-2.505 2.067-1.789 3.382 1.575 2.89 6.049 2.207 8.021.159.103-.211.211-.42.304-.63-.432.271-.984.579-1.511.696zM206.815 323.341c.074-.329.179-.661.241-.975-3.417 1.382-4.413-.358-4.413-.358s1.068-.186 1.16-1.486c.053-.749-.696-1.722-1.97-1.648-1.493.085-2.505 2.067-1.789 3.382 1.67 3.064 4.645 2.21 6.771 1.085zM214.502 324.968c-1.986 1.779-3.504 1.681-3.504 1.681s.794-.739.16-1.878c-.366-.658-1.523-1.063-2.55-.306-1.204.887-.97 3.1.346 3.81 3.242 1.747 5.347-.955 6.472-3.131-.306-.041-.616-.113-.924-.176z"/></g><g fill="#ffe15a"><path d="M265.687 323.247c-.144-.709-.886-2.058-1.799-2.149 0 0-1.077-1.891.147-2.578 0 0 1.346.728 1.794 2.03.449 1.3-.142 2.697-.142 2.697z"/><path d="M266.541 319.814c-.932-1.113-1.597-1.467-2.261-.606 0 0-1.481-1.398-.607-2.82 0 0 1.37-.162 2.158.794.789.957.71 2.632.71 2.632z"/><path d="M266.62 317.139c-1.044-.88-1.806-1.433-2.521-.445 0 0-1.437-.779-.625-2.535 0 0 1.237-.231 2.122.527.885.758 1.024 2.453 1.024 2.453z"/><path d="M266.193 313.838c-1.135-.553-1.767-.488-2.294.717 0 0-1.546-.313-1.309-2.221 0 0 1.273-1.106 2.238-.625.965.483 1.365 2.129 1.365 2.129z"/></g><path d="M243.095 276.165a1.808 1.808 0 0 1-2.344 2.344 1.707 1.707 0 0 1-1.003-1.003 1.808 1.808 0 0 1 2.344-2.344c.458.167.835.544 1.003 1.003z" fill="#f5f5f5"/><path d="M242.003 276.534a.658.658 0 0 1-.884.884.573.573 0 0 1-.281-.281.658.658 0 0 1 .884-.884.573.573 0 0 1 .281.281z" fill="#41479b"/><path d="M246.505 269.8a1.466 1.466 0 0 1-1.861 1.861 1.414 1.414 0 0 1-.902-.903 1.466 1.466 0 0 1 1.861-1.861c.42.135.768.482.902.903z" fill="#f5f5f5"/><path d="M245.609 270.063a.533.533 0 0 1-.702.702.496.496 0 0 1-.269-.269.534.534 0 0 1 .702-.703.504.504 0 0 1 .269.27z" fill="#41479b"/><path d="M193.333 305.527c-1.66 1.277-7.405-1.538-11.445-.192-5.221 1.74-5.177 5.096-5.177 5.096s3.254-4.037 8.672-2.05c2.998 1.1 4.741 1.156 4.741 1.156l3.209-4.01z" fill="#fff5e6"/><path d="M287.685 285.812c-1.106-.144-2.5-.481-2.597-2.164 0 0 2.5-.241 2.5-.048.001.193.097 2.212.097 2.212z" fill="#ffe15a"/><g fill="#ff4b55"><path d="M312.786 279.56c-1.251.353-2.468.609-2.853 2.148 0 0-1.283-2.565.513-4.103.327-.281 2.34 1.955 2.34 1.955zM307.464 275.265c-1.251.353-2.468.609-2.853 2.148 0 0-1.283-2.565.513-4.103.328-.281 2.34 1.955 2.34 1.955z"/></g><path d="M312.402 284.176c.77-.192 2.116-1.923.385-4.616s5.867 1.347 6.155 3.559c.289 2.212.577 6.155-1.155 5.097-1.731-1.058-5.385-4.04-5.385-4.04z" fill="#ffe15a"/><path d="M304.163 284.465c-.256-1.41 0-2.372-1.795-3.655s-2.051-1.987-2.051-2.821c0 0 .978 1.042 2.709 1.474 1.06.264 1.971 1.026 1.971 1.026s.449-1.603-1.155-2.5c0 0 2.821 0 3.27 2.565.449 2.565-1.026 2.95 1.09 3.206 2.116.256 7.053-.77 8.784 3.142s-3.527 1.09-4.937.577-5.899.577-6.603-.385c-.707-.961-1.283-2.629-1.283-2.629z" fill="#ff4b55"/><path d="M322.645 291.486l-7.598-12.502s-7.55-2.917-7.614-3.302-2.5-3.527-2.5-3.976.257-2.629 1.219-3.014 4.025.907 5.354 1.247 3.43-2.145 3.43-2.145 12.246 2.308 13.144 3.783c.898 1.474 5.129 12.055 5.322 13.144.192 1.09 0 8.592-.257 8.464-.258-.128-10.5-1.699-10.5-1.699z" fill="#fff5e6"/><path d="M305.189 273.886s2.372 1.474 3.655 1.923 3.432-1.954 3.078-3.27c-.449-1.667-2.372-1.667-3.27-3.013-.898-1.346-3.014-1.346-4.167.321-1.156 1.666.704 4.039.704 4.039zm3.02-1.957c.549-.388 1.651-.345 1.643.401-.009.747-1.329 1.583-1.856.91-.431-.547-.146-1.057.213-1.311zm-2.578-1.621c.321-.591 1.328-1.039 1.65-.366.322.674-.494 2.006-1.264 1.637-.626-.302-.595-.886-.386-1.271z" fill="#ff4b55"/><path d="M302.053 318.351c-1.277.128-2.969-.047-3.321-2.938-.403-3.313-1.405-4.47-3.066-3.704-1.661.767-1.248 2.091-1.248 2.091s-1.827 4.808-.866 6.732c.962 1.923 3.174 4.231 4.808 4.616 1.635.385 5.001-1.827 5.001-1.827l-1.308-4.97z" fill="#fff5e6"/><path d="M311.28 307.163c-1.09-.513-14.555-9.874-16.158-13.4-1.602-3.527-.705-6.091-2.821-6.22-2.116-.128-5.707-.257-5.386-2.885.321-2.629 3.847-.962 4.809-1.474.962-.513 3.976-1.923 4.552.128.577 2.051 0 3.912.834 4.937.834 1.026 4.552 2.821 5.193 2.693s2.011-.295 3.057.365c1.047.661 1.624 1.559 1.624 1.559s3.944.16 4.504.689c.561.529 2.677 3.35 2.677 3.35l-2.885 10.258z" fill="#ffe6d7"/><path d="M309.87 305.047s-2.565-.962-4.392-4.52c-1.827-3.559-3.655-2.116-6.348-4.04-2.693-1.923-.962-4.809-.192-5.963.77-1.155.241-4.135-2.404-4.039-1.741.063-7.309 5.482-4.808 10.868 0 0 .385-.962 1.346-2.116 0 0-1.442 3.559 1.923 7.501 0 0-.096-2.019.962-3.366 0 0 .096 5.001 3.944 8.175 0 0-.481-3.27.096-4.616 0 0 .577 4.327 6.252 8.271 0 0-.866-1.538-.674-4.039l4.809 2.501-.514-4.617z" fill="#5aa587"/><path d="M346.448 321.492s1.731 5.29-2.982 6.828c-4.712 1.538-7.309-.481-9.041 0s-1.346 3.559 1.058 6.155c2.404 2.597 4.808 2.885 7.501.962s2.885-3.655 5.674-2.982c2.789.674 6.637-2.019 6.637-2.019s-2.5-10.868-2.789-10.772c-.287.097-6.058 1.828-6.058 1.828z" fill="#f5dcd2"/><path d="M370.9 308.26s-3.321-3.193-16.222-7.154c-12.901-3.96-19.799-5.621-19.799-5.621l-10.091-3.193s-4.748-.018-7.867-.903l-3.118-.885s-8.303 11.752-2.044 23.63l-2.172 2.044s-2.283.697-4.015 1.306c-1.732.61-.455 3.931-.455 3.931l6.642 3.065 19.415-.894s.383-.894 6.77 1.149c6.387 2.044 9.196-2.554 21.459-2.938S370.9 308.26 370.9 308.26z" fill="#fff5e6"/><g fill="#5aa587"><path d="M315.703 262.41s-1.955 1.955-.898 4.039c0 0 2.18-2.244 3.976-2.757 2.763-.789 3.334.722 9.441 1.01 3.843.181 5.395 3.864 9.153 2.965 4.023-.962 7.341.882 7.341.882s-2.308-.288-4.183 1.491c-1.875 1.778-5.193 1.394-5.193 1.394s3.029 2.116 5.578 1.107c2.549-1.01 6.204.866 6.204.866-.673-.048-2.164.192-3.847 1.971-1.683 1.779-5.434 1.346-5.434 1.346.673.818 2.549 1.731 4.32 1.391 4.016-.77 8.303 1.021 8.303 1.021s-2.554-.894-6.003 1.66c-3.449 2.554-7.408 1.021-7.408 1.021 0 1.661 3.456 8.058 9.589 7.839 7.635-.271 9.572 4.167 9.572 4.167s-3.065-1.021-7.026-.383c-7.671 1.237-12.901-3.193-12.901-3.193s1.277 6.003 6.514 5.747c5.237-.256 11.879 5.109 11.879 5.109s-5.901-1.063-13.52-1.157c-2.506-.031-4.545-1.018-6.286-2.195-4.582-3.095-8.814-3.095-8.814-3.095 5.001 1.154 7.597 6.637 7.597 6.637s-3.847-3.366-9.424-3.366-7.309-6.54-7.309-6.54c5.194.096 5.963-4.135 5.963-4.135s1.538.481 2.981 2.212c.913 1.095 2.455 1.467 3.512 1.615.385-3.373-2.162-6.452-2.162-6.452s3.449-5.237-1.021-10.857-14.689-3.832-14.689-3.832c-1.062-4.708 2.914-7.657 4.195-7.528z"/><path d="M326.09 281.003c-1.667-.257-9.425-2.821-9.296-6.284.128-3.463 4.744-2.244 4.488-.385-.257 1.859-1.923 1.474-1.923 1.474s.161.838 3.591 1.538c2.821.58 3.14 3.657 3.14 3.657zM305.573 317.486s-4.808-.77-4.616 2.693c.192 3.463 2.95 7.117 8.656 8.72 0 0-2.116-1.827-1.635-2.885s2.885-1.346 4.135.481 3.366 2.597 5.193 2.308c0 0-3.27-2.404-.962-3.27 2.079-.779 1.283 2.597 6.252 3.174 0 0-3.655-2.885-1.538-3.655 2.116-.77 3.27 4.231 7.02 3.847 0 0-3.142-3.142-1.442-3.655 2.676-.808 3.366 3.847 8.175 1.827 0 0-2.404-1.058-.481-3.655s-.77-5.867-2.116-7.213c-1.347-1.346-2.308-2.212-1.923-3.559 0 0-3.431 2.148-1.699 5.931 1.626 3.552-4.955 1.591-10.066 1.155-5.258-.449-8.378 2.566-11.734 1.538-3.142-.961-1.219-3.782-1.219-3.782zM398.618 319.117s-6.309 2.909-9.885-.029c-3.577-2.938-4.548.539-8.763-2.015-4.215-2.554-3.96-1.149-7.28-1.149-3.321 0-5.747-5.365-3.704-9.069 0 0-6.936-2.69-5.514-8.252 1.058-4.135 6.28-2.861 6.28-2.861s5.511-3.464 9.324 1.021c3.117 3.666 1.405 6.131 6.642 6.77 5.237.639 6.003 6.003 11.624 5.365 0 0-3.832 4.982-9.708 1.788-.001 0 .137 4.812 10.984 8.431zM342.793 328.514s-5.386 4.808 5.193 7.694c0 0-.674-.866-1.442-2.404 0 0 3.27 2.404 7.501 2.212 0 0-1.251-.962-1.538-2.116 0 0 3.848 1.058 6.637-.77 0 0-3.366-.192-5.482-3.366 0 0-.962 1.923-2.982.962s-3.177.422-5.001.481c-1.491.048-2.79-.722-2.886-2.693zM345.454 298.828s3.847 1.795 2.051 5.193c-1.197 2.265-4.946 2.81-6.412.706-1.251-1.795-.258-3.538 1.058-3.783 1.378-.257 2.212.321 2.853 1.474.001 0 2.374-.898.45-3.59z"/><path d="M328.175 304.807s-8.354.318-7.934 6.107c.184 2.547 3.629 4.325 5.803 2.989 1.855-1.14 1.554-3.037.586-3.88-1.065-.927-2.119-.593-3.166.205.001.001-.531-3.161 4.711-5.421zM311.488 293.554s-4.51-3.026-6.264.577c-.772 1.584.668 3.84 2.429 3.795 1.502-.037 1.98-1.275 1.694-2.113-.315-.922-1.061-1.089-1.961-.974 0 0-.273-2.343 4.102-1.285zM305.36 291.306s-4.159-2.79-5.778.532c-.712 1.462.616 3.542 2.24 3.501 1.385-.035 1.826-1.176 1.563-1.949-.29-.851-.978-1.003-1.809-.899 0 0-.252-2.161 3.784-1.185z"/><path d="M320.94 309.754s-7.189.273-6.827 5.255c.159 2.192 3.123 3.722 4.994 2.573 1.596-.981 1.682-2.78.989-3.639-1.203-1.49-2.645-.818-2.645-.818s-1.022-1.426 3.489-3.371z"/><path d="M315.671 313.702s-7.934-.77-7.346 4.586c.154 1.398 1.998 2.381 3.194 1.646 1.02-.627 1.076-1.778.633-2.328-.769-.953-1.692-.522-1.692-.522s.499-2.372 5.211-3.382z"/></g><path d="M366.558 339.171s-1.086 2.205-1.788 4.343c-.601 1.831-3.705 3.065-5.365 1.916-1.66-1.149-4.465-4.585-3.315-5.351 1.149-.767 6.125-.142 6.891-2.823.767-2.682.511-4.47.511-4.47s-6.657 1.981-9.831-3.02c-3.174-5.001-2.72-9.885-3.964-12.307-.973-1.894-2.682-2.81-2.682-2.81 1.955-7.742 25.802-13.284 23.034 6.812l3.747 8.515-7.238 9.195z" fill="#ffe6d7"/><g fill="#5aa587"><path d="M375.012 338.836c-1.635 1.058-7.63 4.103-11.349 1.795-3.042-1.888-3.078-4.039-1.154-4.52 1.923-.481 2.982.866 4.039 0s7.02-5.771 4.809-7.309c-2.212-1.538-3.409-2.784-3.366-5.482.032-1.987 1.763-3.912 3.815-4.103 2.559-.24 4.552.834 7.245.834l-3.142 1.602c2.019.962 2.18 3.687 4.584 4.167 0 0-1.635 1.859-3.687 1.283 0 0 .706 1.923 2.629 2.18 0 0-1.795 2.051-3.463 2.629 0 0 1.09.77 2.789.449 0 0-2.661 3.912-6.637 4.905l2.888 1.57z"/><path d="M363.426 331.513s-1.068-.186-1.16-1.486c-.053-.751.696-1.722 1.97-1.649 1.493.085 2.505 2.067 1.79 3.382-1.831 3.36-8.645 2.012-9.479.793-.001 0 5.449.256 6.879-1.04z"/></g><g fill="#ffe15a"><path d="M360.233 347.492c-.296-.417-.537-1.547.041-2.244 0 0-.312-1.611-1.538-1.034 0 0-.521 1.29-.104 2.188.415.898 1.601 1.09 1.601 1.09z"/><path d="M357.732 346.589c.021-1.162.281-1.797 1.22-1.893 0 0 .24-1.683-1.155-1.683 0 0-1.033.914-1.044 1.903-.01.988.979 1.673.979 1.673z"/><path d="M356.186 345.462c.228-1.14.445-1.932 1.488-2.01 0 0 .555-1.378-.983-1.57 0 0-.981.787-1.167 1.759-.188.971.662 1.821.662 1.821z"/><path d="M354.639 343.695c.473-1.061.945-1.486 1.98-1.333 0 0 .89-1.251-.337-1.923 0 0-1.493.426-1.889 1.333-.396.907.246 1.923.246 1.923zM336.382 337.191c-.217-.463-.254-1.617.438-2.202 0 0-.021-1.641-1.33-1.291 0 0-.742 1.177-.491 2.134.249.959 1.383 1.359 1.383 1.359z"/><path d="M334.08 335.857c.227-1.14.596-1.719 1.536-1.647 0 0 .535-1.614-.837-1.861 0 0-1.179.715-1.365 1.688s.666 1.82.666 1.82z"/><path d="M332.759 334.474c.427-1.081.78-1.823 1.821-1.713 0 0 .791-1.258-.689-1.721 0 0-1.104.6-1.462 1.523-.356.924.33 1.911.33 1.911z"/><path d="M331.55 332.461c.655-.961 1.193-1.295 2.184-.959 0 0 1.097-1.073.011-1.953 0 0-1.545.155-2.096.977-.55.822-.099 1.935-.099 1.935z"/></g><path d="M304.42 273.244c-.208 1.041.321 2.18 2.821 3.27s2.436.641 4.103 2.757 1.859 2.18 3.912 2.565c2.051.385 3.014 6.732.577 5.771-2.436-.962-2.757-2.95-5.45-2.308s-4.103 1.538-6.22-.834c0 0-2.051 2.757 1.795 3.912 3.847 1.154 5.946 1.243 7.846 2.128 1.9.885 8.639 3.049 9.081-3.251.128-1.827-1.219-2.532-1.987-3.879-.77-1.346-1.538-2.244-3.399-3.719-1.859-1.474-.705-2.693-3.719-3.142s-5.514-.385-6.412-2.565c-.897-2.179-2.693-1.986-2.948-.705z" fill="#ffe6d7"/><g fill="#5aa587"><path d="M354.912 303.812s.578-2.297-2.101-3.271c.63.191 1.207.362 1.869.565.564.173 1.011.335 1.538.505.206.278.482.424.62.813.815 2.283-1.202 5.244-3.606 4.921-2.051-.276-2.632-2.081-1.962-3.156.702-1.122 2.247-1.387 3.642-.377zM354.081 328.201c2.907.65 4.215-.472 4.215-.472s-1.068-.186-1.16-1.486c-.053-.749.696-1.722 1.97-1.649 1.493.086 2.505 2.067 1.789 3.382-1.575 2.89-6.049 2.207-8.021.159-.103-.211-.211-.42-.304-.63.432.271.985.579 1.511.696zM351.143 323.341c-.074-.329-.179-.661-.241-.975 3.417 1.382 4.414-.358 4.414-.358s-1.068-.186-1.16-1.486c-.053-.749.696-1.722 1.97-1.648 1.493.085 2.505 2.067 1.789 3.382-1.671 3.064-4.646 2.21-6.772 1.085zM343.456 324.968c1.986 1.779 3.504 1.681 3.504 1.681s-.794-.739-.16-1.878c.366-.658 1.523-1.063 2.55-.306 1.204.887.97 3.1-.346 3.81-3.242 1.747-5.347-.955-6.472-3.131.306-.041.616-.113.924-.176z"/></g><g fill="#ffe15a"><path d="M292.271 323.247c.144-.709.886-2.058 1.799-2.149 0 0 1.077-1.891-.147-2.578 0 0-1.346.728-1.794 2.03-.449 1.3.142 2.697.142 2.697z"/><path d="M291.417 319.814c.932-1.113 1.597-1.467 2.261-.606 0 0 1.481-1.398.607-2.82 0 0-1.37-.162-2.158.794-.789.957-.71 2.632-.71 2.632z"/><path d="M291.338 317.139c1.044-.88 1.806-1.433 2.521-.445 0 0 1.437-.779.625-2.535 0 0-1.237-.231-2.123.527-.884.758-1.023 2.453-1.023 2.453z"/><path d="M291.765 313.838c1.135-.553 1.767-.488 2.294.717 0 0 1.546-.313 1.309-2.221 0 0-1.273-1.106-2.238-.625-.964.483-1.365 2.129-1.365 2.129z"/></g><path d="M314.863 276.165a1.808 1.808 0 0 0 2.344 2.344 1.707 1.707 0 0 0 1.003-1.003 1.808 1.808 0 0 0-2.344-2.344 1.707 1.707 0 0 0-1.003 1.003z" fill="#f5f5f5"/><path d="M315.955 276.534a.658.658 0 0 0 .884.884.573.573 0 0 0 .281-.281.658.658 0 0 0-.884-.884.573.573 0 0 0-.281.281z" fill="#41479b"/><path d="M311.453 269.8a1.466 1.466 0 0 0 1.861 1.861c.421-.134.768-.482.902-.903a1.466 1.466 0 0 0-1.861-1.861c-.42.135-.768.482-.902.903z" fill="#f5f5f5"/><path d="M312.349 270.063a.534.534 0 0 0 .703.702.496.496 0 0 0 .269-.269.534.534 0 0 0-.702-.703.503.503 0 0 0-.27.27z" fill="#41479b"/><path d="M364.625 305.527c1.661 1.277 7.405-1.538 11.445-.192 5.221 1.74 5.177 5.096 5.177 5.096s-3.254-4.037-8.672-2.05c-2.998 1.1-4.741 1.156-4.741 1.156l-3.209-4.01z" fill="#fff5e6"/><path d="M19.323 490.544C8.651 490.544 0 481.892 0 471.22V40.62c0-10.584 8.58-19.165 19.164-19.165h.159c10.672 0 19.323 8.651 19.323 19.323v430.443c.001 10.671-8.651 19.323-19.323 19.323z" fill="#2e3033"/></svg>