<svg xmlns="http://www.w3.org/2000/svg" viewBox="0 0 512 512"><path d="M27.43 215.417H512v150.298a8.44 8.44 0 0 1-8.44 8.44H35.87a8.44 8.44 0 0 1-8.44-8.44V215.417z" fill="#ffe15a"/><path d="M512 215.417H27.43V65.118a8.44 8.44 0 0 1 8.44-8.44h467.69a8.44 8.44 0 0 1 8.44 8.44v150.299z" fill="#4173cd"/><path d="M19.122 488.1C8.561 488.1 0 479.539 0 468.979V42.864C0 32.39 8.491 23.9 18.965 23.9h.157c10.561 0 19.122 8.561 19.122 19.122V468.98c0 10.559-8.561 19.12-19.122 19.12z" fill="#2e3033"/></svg>