<svg xmlns="http://www.w3.org/2000/svg" viewBox="0 0 512 512"><path d="M24.345 269.409H512v100.839a8.463 8.463 0 0 1-8.463 8.463H32.807a8.463 8.463 0 0 1-8.463-8.463V269.409h.001z" fill="#73af00"/><path d="M32.807 59.214h470.73A8.463 8.463 0 0 1 512 67.677v100.839H24.345V67.677a8.462 8.462 0 0 1 8.462-8.463z" fill="#ff4b55"/><path fill="#41479b" d="M24.341 168.52h487.65v100.9H24.341z"/><g fill="#f5f5f5"><path d="M24.341 168.52h487.65v16.816H24.341zM24.341 252.6h487.65v16.816H24.341z"/></g><path d="M19.174 488.729C8.585 488.729 0 480.145 0 469.555V42.287c0-10.502 8.514-19.016 19.016-19.016h.158c10.589 0 19.174 8.585 19.174 19.174v427.111c-.001 10.589-8.585 19.173-19.174 19.173z" fill="#2e3033"/></svg>