<svg xmlns="http://www.w3.org/2000/svg" viewBox="0 0 512 512"><path d="M512 162.503H177.814V56.677H503.56a8.44 8.44 0 0 1 8.44 8.44v97.386z" fill="#73af00"/><path d="M503.56 374.155H177.814V268.329H512v97.385a8.44 8.44 0 0 1-8.44 8.441z" fill="#464655"/><path fill="#f5f5f5" d="M177.81 162.5h334.18v105.83H177.81z"/><path d="M177.814 374.155H35.87a8.44 8.44 0 0 1-8.44-8.44V65.118a8.44 8.44 0 0 1 8.44-8.44h141.943v317.477h.001z" fill="#ff4b55"/><path d="M19.122 488.1C8.561 488.1 0 479.539 0 468.979V42.864C0 32.39 8.491 23.9 18.965 23.9h.157c10.561 0 19.122 8.561 19.122 19.122V468.98c0 10.559-8.561 19.12-19.122 19.12z" fill="#2e3033"/></svg>