<svg xmlns="http://www.w3.org/2000/svg" viewBox="0 0 512 512"><path d="M503.666 376.841H40.111a8.335 8.335 0 0 1-8.334-8.334V70.547a8.335 8.335 0 0 1 8.334-8.334h463.555A8.335 8.335 0 0 1 512 70.547v297.961a8.333 8.333 0 0 1-8.334 8.333z" fill="#ff4b55"/><g fill="#ffe15a"><path d="M359.467 244.221s-16.495-2.749-28.713-12.882c-3.604-2.989-8.835-5.273-13.931-6.961 4.096-.182 8.44-.068 12.546.763 17.006 3.439 33.496-4.817 33.496-4.817s-16.638 1.679-31.087-4.89c-3.908-1.776-8.978-2.614-13.925-2.967 3.558-1.024 7.335-1.824 11.063-2.03 17.324-.96 31.2-13.106 31.2-13.106s-15.677 5.819-31.317 3.105c-4.555-.791-10.146-.199-15.349.847 3.423-2.149 7.19-4.159 11.101-5.452 16.473-5.45 26.696-20.797 26.696-20.797s-13.613 9.71-29.419 11.175c-4.694.434-10.039 2.542-14.862 4.968 2.782-3.051 5.959-6.07 9.477-8.406 14.457-9.593 20.279-27.091 20.279-27.091s-10.578 12.951-25.44 18.525c-4.051 1.519-8.252 4.563-12.022 7.841 1.802-3.277 3.922-6.556 6.438-9.37 11.563-12.935 12.777-31.335 12.777-31.335s-6.962 15.203-19.935 24.351c-3.781 2.667-7.316 7.046-10.256 11.471.898-3.945 2.14-8.036 3.99-11.723 7.784-15.506 4.149-33.586 4.149-33.586s-2.749 16.494-12.882 28.712c-2.989 3.604-5.273 8.835-6.961 13.931-.182-4.096-.068-8.44.763-12.546 3.439-17.006-4.817-33.496-4.817-33.496s1.678 16.638-4.89 31.087c-1.776 3.908-2.614 8.978-2.967 13.925-1.024-3.558-1.824-7.335-2.03-11.062-.96-17.324-13.105-31.2-13.105-31.2s5.818 15.677 3.105 31.317c-.791 4.554-.198 10.145.847 15.349-2.149-3.423-4.159-7.19-5.452-11.102-5.45-16.473-20.797-26.696-20.797-26.696s9.71 13.614 11.175 29.419c.435 4.694 2.542 10.04 4.969 14.863-3.051-2.784-6.071-5.96-8.406-9.478-9.593-14.457-27.091-20.279-27.091-20.279s12.952 10.578 18.525 25.44c1.519 4.051 4.562 8.252 7.841 12.022-3.276-1.802-6.556-3.922-9.37-6.438-12.935-11.564-31.336-12.777-31.336-12.777s15.203 6.962 24.352 19.934c2.667 3.782 7.045 7.316 11.47 10.255-3.944-.898-8.035-2.14-11.721-3.989-15.506-7.784-33.586-4.149-33.586-4.149s16.495 2.749 28.712 12.882c3.604 2.989 8.836 5.273 13.931 6.961-4.096.182-8.44.068-12.546-.763-17.006-3.439-33.496 4.817-33.496 4.817s16.638-1.678 31.087 4.89c3.908 1.776 8.978 2.614 13.925 2.967-3.558 1.024-7.335 1.824-11.063 2.03-17.324.96-31.2 13.106-31.2 13.106s15.677-5.819 31.317-3.105c4.554.791 10.145.198 15.349-.847-3.423 2.149-7.19 4.159-11.102 5.452-16.473 5.45-26.696 20.797-26.696 20.797s13.613-9.71 29.419-11.175c4.694-.434 10.04-2.542 14.864-4.969-2.782 3.051-5.96 6.071-9.478 8.406-14.457 9.594-20.279 27.091-20.279 27.091s10.578-12.952 25.44-18.525c4.051-1.519 8.252-4.562 12.022-7.841-1.802 3.276-3.922 6.556-6.438 9.369-11.564 12.935-12.777 31.335-12.777 31.335s6.962-15.203 19.935-24.351c3.782-2.667 7.316-7.046 10.255-11.47-.899 3.945-2.139 8.036-3.989 11.722-7.784 15.506-4.149 33.586-4.149 33.586s2.75-16.495 12.882-28.712c2.989-3.604 5.273-8.836 6.961-13.931.182 4.097.068 8.441-.763 12.547-3.439 17.006 4.817 33.496 4.817 33.496s-1.678-16.638 4.89-31.088c1.776-3.908 2.614-8.978 2.967-13.925 1.024 3.558 1.824 7.335 2.03 11.062.96 17.324 13.105 31.2 13.105 31.2s-5.819-15.677-3.105-31.317c.791-4.555.199-10.145-.847-15.349 2.149 3.423 4.159 7.19 5.452 11.101 5.45 16.472 20.797 26.696 20.797 26.696s-9.71-13.613-11.175-29.42c-.435-4.694-2.542-10.04-4.969-14.863 3.051 2.784 6.071 5.96 8.406 9.478 9.593 14.457 27.091 20.28 27.091 20.28s-12.952-10.578-18.525-25.44c-1.519-4.051-4.562-8.252-7.84-12.022 3.276 1.802 6.555 3.921 9.369 6.438 12.935 11.564 31.335 12.777 31.335 12.777s-15.203-6.962-24.351-19.935c-2.667-3.782-7.046-7.317-11.471-10.256 3.945.899 8.036 2.139 11.722 3.989 15.507 7.789 33.587 4.154 33.587 4.154zm-87.598 17.348c-23.217 0-42.037-18.821-42.037-42.037 0-23.217 18.821-42.037 42.037-42.037s42.037 18.821 42.037 42.037c0 23.217-18.821 42.037-42.037 42.037z"/><path d="M258.54 202.52c.896-.7 1.789-1.402 2.696-2.027-5.956-2.709-11.317-4.009-15.078-4.592-.599.65-1.139 1.35-1.687 2.045 3.693.717 8.654 2.086 14.069 4.574zM247.966 194.046c4.041.457 9.891 1.661 16.383 4.452a56.871 56.871 0 0 1 3.254-1.777c-7.009-2.877-13.336-3.95-17.692-4.281-.653.531-1.332 1.03-1.945 1.606zM269.012 213.53a51.81 51.81 0 0 0-2.544-2.249c-7.869 7.49-14.755 18.414-17.864 34.265 1.13 1.012 2.252 2.035 3.506 2.893 2.284-16.12 8.978-27.247 16.902-34.909zM265.96 206.569c.893-.717 1.783-1.438 2.687-2.079-1.101-.703-2.198-1.319-3.292-1.921-.937.642-1.875 1.263-2.8 1.984a59.668 59.668 0 0 1 3.405 2.016zM287.708 204.538c6.748 5.927 12.914 14.272 17.304 25.843 1.126-3.436 1.889-7.038 1.889-10.85 0-7.237-2.199-13.96-5.959-19.543-3.481.695-8.153 2.046-13.234 4.55zM269.265 208.82c.879.653 1.741 1.39 2.604 2.116.865-.725 1.725-1.463 2.604-2.116-.866-.72-1.727-1.429-2.604-2.076a57.972 57.972 0 0 0-2.604 2.076zM271.869 198.676a58.756 58.756 0 0 0-3.308 1.842c1.101.579 2.2 1.2 3.308 1.879a57.77 57.77 0 0 1 3.307-1.879 59.015 59.015 0 0 0-3.307-1.842zM244.786 241.5c3.706-15.133 10.691-25.502 18.51-32.632a53.182 53.182 0 0 0-3.273-2.136c-7.522 6.615-14.331 16.175-18.525 29.948a34.692 34.692 0 0 0 3.288 4.82zM256.03 204.538c-5.081-2.504-9.753-3.855-13.233-4.549a34.865 34.865 0 0 0-5.959 19.543c0 3.812.763 7.414 1.889 10.85 4.388-11.572 10.554-19.916 17.303-25.844zM271.869 194.745c7.453-3.079 14.328-4.172 19.217-4.462-5.522-3.636-12.112-5.783-19.217-5.783-7.106 0-13.696 2.147-19.218 5.783 4.89.29 11.766 1.382 19.218 4.462zM271.869 216.493c-6.988 7.742-12.753 18.86-14.624 34.78 4.463 2.062 9.386 3.29 14.624 3.29 5.239 0 10.161-1.228 14.624-3.29-1.871-15.92-7.637-27.037-14.624-34.78zM283.716 206.732a53.02 53.02 0 0 0-3.273 2.136c7.817 7.132 14.803 17.5 18.51 32.632a34.962 34.962 0 0 0 3.289-4.82c-4.194-13.774-11.003-23.333-18.526-29.948zM295.134 245.545c-3.109-15.851-9.993-26.774-17.864-34.265a51.353 51.353 0 0 0-2.544 2.249c7.924 7.662 14.618 18.789 16.901 34.909 1.255-.858 2.377-1.881 3.507-2.893zM276.134 196.721a56.536 56.536 0 0 1 3.254 1.777c6.491-2.792 12.341-3.995 16.383-4.452-.614-.576-1.293-1.075-1.946-1.606-4.354.331-10.682 1.403-17.691 4.281zM277.779 206.569a59.8 59.8 0 0 1 3.405-2.016c-.925-.722-1.865-1.342-2.801-1.984-1.094.602-2.191 1.219-3.292 1.921.905.64 1.795 1.362 2.688 2.079zM285.197 202.52c5.415-2.488 10.378-3.858 14.07-4.574-.548-.695-1.089-1.394-1.687-2.045-3.761.582-9.122 1.883-15.078 4.592.907.624 1.799 1.327 2.695 2.027z"/></g><path d="M18.881 485.182C8.454 485.182 0 476.729 0 466.301V45.545c0-10.342 8.384-18.727 18.726-18.727h.155c10.428 0 18.881 8.454 18.881 18.881V466.3c.001 10.429-8.453 18.882-18.881 18.882z" fill="#2e3033"/></svg>