<svg xmlns="http://www.w3.org/2000/svg" viewBox="0 0 512 512"><g fill="#41479b"><path d="M512 116.989H20.395V61.048a8.476 8.476 0 0 1 8.476-8.476h474.653A8.476 8.476 0 0 1 512 61.048v55.941zM503.524 374.657H28.871a8.476 8.476 0 0 1-8.476-8.476V310.24H512v55.941a8.476 8.476 0 0 1-8.476 8.476z"/></g><path fill="#f5f5f5" d="M20.395 116.99h491.6v64.42h-491.6z"/><path fill="#41479b" d="M20.395 181.41h491.6v64.42h-491.6z"/><path fill="#f5f5f5" d="M20.395 245.82h491.6v64.42h-491.6z"/><path d="M23.574 372.644l245.229-155.311c2.728-1.728 2.728-5.709 0-7.437L23.574 54.585c-1.896 1.554-3.178 3.819-3.178 6.463v305.133c-.001 2.644 1.282 4.909 3.178 6.463z" fill="#ff4b55"/><path d="M105.395 172.751l8.703 26.093 27.505.213c2.131.017 3.014 2.736 1.3 4.002l-22.126 16.339 8.297 26.225c.643 2.032-1.671 3.712-3.404 2.473l-22.379-15.993-22.378 15.994c-1.733 1.24-4.047-.442-3.404-2.473l8.297-26.225L63.68 203.06c-1.714-1.266-.831-3.986 1.3-4.002l27.505-.213 8.703-26.093c.674-2.022 3.533-2.022 4.207-.001z" fill="#f5f5f5"/><path d="M19.203 489.087C8.598 489.087 0 480.49 0 469.884V41.958c0-10.519 8.527-19.045 19.045-19.045h.158c10.606 0 19.203 8.598 19.203 19.203v427.768c.001 10.606-8.597 19.203-19.203 19.203z" fill="#2e3033"/></svg>