<svg xmlns="http://www.w3.org/2000/svg" viewBox="0 0 512.001 512.001"><path fill="#ff4b55" d="M20.448 162.77h491.55v101.7H20.448z"/><path d="M28.923 52.595h474.601a8.476 8.476 0 0 1 8.475 8.475v46.613H20.448V61.07a8.475 8.475 0 0 1 8.475-8.475z" fill="#41479b"/><path fill="#f5f5f5" d="M20.448 107.69h491.55v55.09H20.448z"/><path d="M503.525 374.645H28.924a8.476 8.476 0 0 1-8.475-8.475v-46.613h491.552v46.613a8.477 8.477 0 0 1-8.476 8.475z" fill="#41479b"/><g fill="#f5f5f5"><path d="M20.448 264.47h491.55v55.09H20.448z"/><ellipse cx="153.31" cy="213.62" rx="39.641" ry="42.37"/></g><path fill="#3cc8ff" d="M132.81 197.22h41.01v20.504h-41.01z"/><path fill="#ffe15a" d="M138.278 208.876l.469 4.524 1.842-4.158-.953 4.447 3.038-3.385-2.281 3.935 3.934-2.28-3.383 3.037 4.446-.953-4.157 1.843 4.523.468-4.523.468 4.157 1.843-4.446-.954 3.383 3.038-3.934-2.28 2.281 3.934-3.038-3.384.953 4.447-1.842-4.158-.469 4.524-.468-4.524-1.842 4.158.952-4.447-3.037 3.384 2.281-3.934-3.936 2.28 3.385-3.038-4.446.954 4.157-1.843-4.524-.468 4.524-.468-4.157-1.843 4.446.953-3.385-3.037 3.936 2.28-2.281-3.935 3.037 3.385-.952-4.447 1.842 4.158z"/><path fill="#41479b" d="M161.516 246.427h-16.403l-15.036-12.303v-17.77h47.842v17.77z"/><path d="M169.717 210.886h-.001a.682.682 0 0 0-1.364 0h-.001c0 2.372-1.375 5.654-3.061 8.004-2.354-2.973-3.24-6.419-3.573-8.589a1.54 1.54 0 0 0-2.215-1.141 1.566 1.566 0 0 0-.833 1.164c-1.047 6.704-4.207 9.552-6.253 10.724-3.064-2.962-4.073-7.756-4.406-10.59a1.593 1.593 0 0 0-2.301-1.238 1.611 1.611 0 0 0-.799.942c-4.287 13.07-16.201 14.394-16.201 14.394v4.101h47.843v-6.835c-5.467-1.368-6.835-10.936-6.835-10.936z" fill="#73af00"/><g fill="#f0aa00"><path d="M176.553 198.583c-5.467-2.734-5.467-5.467-5.467-5.467s-6.835-2.734-12.303-2.734c0 0 1.367-2.734-1.367-2.734h-4.101-4.101c-2.734 0-1.367 2.734-1.367 2.734-5.467 0-12.303 2.734-12.303 2.734s0 2.734-5.467 5.467c-5.467 2.733-5.467 8.885-5.467 8.885a2.05 2.05 0 0 0 4.1 0c0-.234-.048-.454-.12-.663l.12-.02 13.669-9.568h21.872l13.669 9.568.12.02c-.072.209-.12.43-.12.663a2.05 2.05 0 0 0 4.1 0s0-6.15-5.467-8.885z"/><path d="M180.653 214.987c-1.367 0-5.467 0-5.467-4.101s5.467-4.101 5.467-4.101l-8.202-2.734c-2.734 9.568 2.734 9.568 2.734 21.871 0 11.021-12.303 17.77-16.403 17.77-4.101 0-5.467 2.734-5.467 2.734s-1.367-2.734-5.467-2.734c-4.101 0-16.403-6.749-16.403-17.77 0-12.303 5.467-12.303 2.734-21.871l-8.202 2.734s5.467 0 5.467 4.101-4.101 4.101-5.467 4.101c-1.367 0-6.835 0-6.835 6.835s6.835 15.037 16.403 20.504 5.467 10.936 17.77 10.936 8.202-5.467 17.77-10.936c9.568-5.467 16.403-13.669 16.403-20.504s-5.468-6.835-6.835-6.835z"/></g><g fill="#73af00"><path d="M150.581 193.592l-3.306-1.486a2.731 2.731 0 0 0-1.744-.168c-2.131.493-7.419 2.112-11.353 6.647l4.101 1.367 12.302-6.36zM156.048 193.592l3.306-1.486a2.731 2.731 0 0 1 1.744-.168c2.131.493 7.419 2.112 11.353 6.647l-4.101 1.367-12.302-6.36z"/><path d="M153.798 194.483l2.493-2.493a.342.342 0 0 0-.483-.483L153.315 194l-2.493-2.493a.342.342 0 0 0-.483.483l2.493 2.493-2.493 2.493a.342.342 0 0 0 .484.483l2.493-2.493 2.493 2.493a.343.343 0 1 0 .484-.483l-2.495-2.493z"/></g><path d="M180.653 206.785c0-2.325-2.197-3.331-4.101-3.767v-1.083c-2.573-.242-4.009-1.208-6.505-2.908a73.059 73.059 0 0 0-3.367-2.197c-4.806-2.92-8.5-3.341-10.633-3.24v2.259h-5.467v-2.259c-2.133-.102-5.827.32-10.633 3.24a73.059 73.059 0 0 0-3.367 2.197c-2.495 1.699-3.93 2.666-6.505 2.908v1.083c-1.904.435-4.101 1.441-4.101 3.767l4.101-1.367v.623c3.879-.286 6.098-1.774 8.813-3.624.921-.627 1.963-1.338 3.187-2.081 3.122-1.897 5.548-2.484 7.137-2.623v2.237h8.202v-2.237c1.589.139 4.015.726 7.137 2.623a69.647 69.647 0 0 1 3.187 2.081c2.715 1.85 4.934 3.339 8.813 3.624v-.623l4.102 1.367z" fill="#f5f5f5"/><path d="M169.717 185.238v-1.692h-3.807c.665-.571 1.074-1.244 1.074-2.051 0-3.777-8.593-4.784-13.669-4.784s-13.669 1.007-13.669 4.784c0 .806.409 1.479 1.074 2.051h-3.807v1.692c-3.347.747-6.082 2.542-6.226 2.639l1.516 2.274c.037-.025 3.799-2.504 7.443-2.504v-1.367h27.338v1.367c3.645 0 7.406 2.479 7.443 2.504l1.516-2.274c-.143-.095-2.879-1.892-6.226-2.639zm-10.934-2.069v-1.038c0-.67-.629-1.16-1.278-.998l-4.19 1.048-4.19-1.048a1.028 1.028 0 0 0-1.278.998v1.038c-3.071-.451-4.887-1.202-5.382-1.672.739-.702 4.361-2.05 10.849-2.05s10.11 1.349 10.849 2.05c-.494.47-2.31 1.221-5.38 1.672z" fill="#3cc8ff"/><g fill="#f5f5f5"><path d="M153.486 200.467l.346 1.038 1.094.008c.142.001.2.182.087.266l-.88.65.331 1.043a.147.147 0 0 1-.227.164l-.891-.637-.891.637c-.115.083-.269-.03-.227-.164l.331-1.043-.88-.65a.147.147 0 0 1 .087-.266l1.094-.008.346-1.038a.147.147 0 0 1 .28 0zM148.126 200.817l.453.997 1.09-.106a.147.147 0 0 1 .114.255l-.807.739.438 1.003c.057.13-.085.257-.208.188l-.952-.539-.819.727a.148.148 0 0 1-.243-.14l.219-1.073-.944-.554a.147.147 0 0 1 .058-.273l1.088-.123.235-1.069c.03-.142.22-.162.278-.032zM142.624 202.283l.659.875 1.04-.34a.147.147 0 0 1 .166.225l-.628.896.645.885c.084.114-.026.269-.162.228l-1.047-.321-.642.887c-.083.114-.265.057-.267-.084l-.019-1.094-1.041-.337c-.135-.043-.137-.234-.002-.28l1.035-.356-.002-1.094a.147.147 0 0 1 .265-.09zM137.109 204.608l.768.78.986-.475c.128-.061.261.075.195.201l-.504.971.756.791c.097.103.01.27-.13.248l-1.081-.179-.519.964a.147.147 0 0 1-.275-.048l-.163-1.083-1.077-.196c-.14-.025-.166-.214-.039-.278l.979-.489-.146-1.085a.146.146 0 0 1 .25-.122zM158.564 200.817l-.453.997-1.09-.106a.147.147 0 0 0-.114.255l.807.739-.438 1.003c-.057.13.085.257.208.188l.952-.539.819.727a.148.148 0 0 0 .243-.14l-.219-1.073.944-.554a.147.147 0 0 0-.058-.273l-1.088-.123-.235-1.069a.147.147 0 0 0-.278-.032zM164.067 202.283l-.659.875-1.04-.34a.147.147 0 0 0-.166.225l.628.896-.645.885c-.084.114.026.269.162.228l1.047-.321.642.887c.083.114.265.057.267-.084l.019-1.094 1.041-.337c.135-.043.137-.234.002-.28l-1.035-.356.002-1.094a.147.147 0 0 0-.265-.09zM169.582 204.608l-.768.78-.986-.475c-.128-.061-.261.075-.195.201l.504.971-.756.791a.148.148 0 0 0 .13.248l1.081-.179.519.964a.147.147 0 0 0 .275-.048l.163-1.083 1.077-.196c.14-.025.166-.214.039-.278l-.979-.489.146-1.085a.146.146 0 0 0-.25-.122z"/></g><path fill="#8c5a28" d="M143.874 233.269l6.963 4.656h8.415l3.888-3.331-2.991 1.196h-9.91z"/><path d="M148.616 227.261l-.672 6.778-3.058-1.167c0-.001 1.407-3.267 3.73-5.611z" fill="#f5f5f5"/><g fill="#8c5a28"><path d="M154.66 224.58h.452v11.542h-.452zM158.83 225.55h.452v10.565h-.452zM150.48 225.55h.452v10.565h-.452z"/></g><g fill="#f5f5f5"><path d="M156.26 235.022h-2.762a.52.52 0 0 1-.52-.52v-1.395a.52.52 0 0 1 .52-.52h2.762a.52.52 0 0 1 .52.52v1.395a.52.52 0 0 1-.52.52zM156.26 231.775h-2.762a.52.52 0 0 1-.52-.52v-1.395a.52.52 0 0 1 .52-.52h2.762a.52.52 0 0 1 .52.52v1.395a.52.52 0 0 1-.52.52zM156.26 228.784h-2.762a.52.52 0 0 1-.52-.52v-1.395a.52.52 0 0 1 .52-.52h2.762a.52.52 0 0 1 .52.52v1.395a.52.52 0 0 1-.52.52zM160.186 235.022h-2.249a.52.52 0 0 1-.52-.52v-1.395a.52.52 0 0 1 .52-.52h2.249a.52.52 0 0 1 .52.52v1.395a.52.52 0 0 1-.52.52zM160.186 232.032h-2.249a.52.52 0 0 1-.52-.52v-1.013a.52.52 0 0 1 .52-.52h2.249a.52.52 0 0 1 .52.52v1.013a.52.52 0 0 1-.52.52zM160.186 229.069h-2.249a.52.52 0 0 1-.52-.52v-.683a.52.52 0 0 1 .52-.52h2.249a.52.52 0 0 1 .52.52v.683a.52.52 0 0 1-.52.52zM151.834 235.022h-2.249a.52.52 0 0 1-.52-.52v-1.395a.52.52 0 0 1 .52-.52h2.249a.52.52 0 0 1 .52.52v1.395a.52.52 0 0 1-.52.52zM151.834 232.032h-2.249a.52.52 0 0 1-.52-.52v-1.013a.52.52 0 0 1 .52-.52h2.249a.52.52 0 0 1 .52.52v1.013a.52.52 0 0 1-.52.52zM151.834 229.069h-2.249a.52.52 0 0 1-.52-.52v-.683a.52.52 0 0 1 .52-.52h2.249a.52.52 0 0 1 .52.52v.683a.52.52 0 0 1-.52.52zM150.936 225.553v1.366l2.008-.695zM159.282 225.553v1.366l2.009-.695zM155.1 224.572v1.366l2.01-.695z"/></g><path fill="#8c5a28" d="M149.762 215.349l2.419 1.617h2.923l1.351-1.157-1.039.415h-3.443z"/><path d="M151.409 213.261l-.233 2.355-1.063-.406s.489-1.134 1.296-1.949z" fill="#f5f5f5"/><g fill="#8c5a28"><path d="M153.5 212.33h.157v4.01h-.157zM154.96 212.67h.157v3.671h-.157zM152.05 212.67h.157v3.671h-.157z"/></g><g fill="#f5f5f5"><path d="M154.065 215.957h-.96a.181.181 0 0 1-.181-.181v-.484c0-.1.081-.181.181-.181h.96c.1 0 .181.081.181.181v.484a.181.181 0 0 1-.181.181zM154.065 214.829h-.96a.181.181 0 0 1-.181-.181v-.484c0-.1.081-.181.181-.181h.96c.1 0 .181.081.181.181v.484a.182.182 0 0 1-.181.181zM154.065 213.791h-.96a.181.181 0 0 1-.181-.181v-.484c0-.1.081-.181.181-.181h.96c.1 0 .181.081.181.181v.484a.182.182 0 0 1-.181.181zM155.429 215.957h-.782a.181.181 0 0 1-.181-.181v-.484c0-.1.081-.181.181-.181h.782c.1 0 .181.081.181.181v.484a.181.181 0 0 1-.181.181zM155.429 214.919h-.782a.181.181 0 0 1-.181-.181v-.352c0-.1.081-.181.181-.181h.782c.1 0 .181.081.181.181v.352a.182.182 0 0 1-.181.181zM155.429 213.889h-.782a.181.181 0 0 1-.181-.181v-.237c0-.1.081-.181.181-.181h.782c.1 0 .181.081.181.181v.237a.181.181 0 0 1-.181.181zM152.527 215.957h-.782a.181.181 0 0 1-.181-.181v-.484c0-.1.081-.181.181-.181h.782c.1 0 .181.081.181.181v.484a.18.18 0 0 1-.181.181zM152.527 214.919h-.782a.181.181 0 0 1-.181-.181v-.352c0-.1.081-.181.181-.181h.782c.1 0 .181.081.181.181v.352a.182.182 0 0 1-.181.181zM152.527 213.889h-.782a.181.181 0 0 1-.181-.181v-.237c0-.1.081-.181.181-.181h.782c.1 0 .181.081.181.181v.237a.18.18 0 0 1-.181.181zM152.214 212.668v.474l.699-.241zM155.114 212.668v.474l.698-.241zM153.662 212.327v.474l.698-.241zM148.05 208.153h-1.774c-.64 0-1.163-.523-1.163-1.163s.523-1.163 1.163-1.163h1.774c.64 0 1.163.523 1.163 1.163a1.167 1.167 0 0 1-1.163 1.163zM161.543 208.153h-1.171a1.163 1.163 0 0 1 0-2.326h1.171a1.163 1.163 0 1 1 0 2.326zM169.854 209.904h-1.031a.665.665 0 0 1-.665-.665v-.11c0-.368.298-.665.665-.665h1.031c.368 0 .665.298.665.665v.11a.665.665 0 0 1-.665.665z"/></g><path d="M19.201 489.063C8.597 489.063 0 480.467 0 469.862V41.982c0-10.517 8.526-19.044 19.043-19.044h.158c10.604 0 19.201 8.597 19.201 19.201v427.723c0 10.605-8.596 19.201-19.201 19.201z" fill="#2e3033"/></svg>