<svg xmlns="http://www.w3.org/2000/svg" viewBox="0 0 512 512"><path d="M512 162.503H27.43V65.118a8.44 8.44 0 0 1 8.44-8.44h467.69a8.44 8.44 0 0 1 8.44 8.44v97.385z" fill="#ff4b55"/><path d="M503.56 374.155H35.87a8.44 8.44 0 0 1-8.44-8.44V268.33H512v97.385a8.44 8.44 0 0 1-8.44 8.44z" fill="#464655"/><path fill="#f5f5f5" d="M27.43 162.498H512v105.83H27.43z"/><path d="M296.392 198.92c0-4.143-4.06-7.069-7.99-5.758l-7.385 2.461-1.794-10.831a13.296 13.296 0 0 0-13.16-11.15h-6.908l-7.225 8.893h9.567l-2.678 13.223-7.792-2.597c-3.931-1.31-7.99 1.615-7.99 5.758v44.932l10.755-10.755-5.067 15.201h-5.686v8.892h53.353v-8.892h-5.686l-5.067-15.201 10.755 10.755-.002-44.931zm-31.123 49.377H258.1l4.929-13.164 2.24 2.86v10.304zm8.892 0v-10.304l2.239-2.86 4.929 13.164h-7.168zm-4.446-16.116s-13.755-9.309-13.199-26.677c0 0 8.476-1.389 13.199-8.892 4.724 7.503 13.199 8.892 13.199 8.892.556 17.367-13.199 26.677-13.199 26.677z" fill="#f0c727"/><path d="M19.122 488.101C8.561 488.101 0 479.539 0 468.979V42.864C0 32.39 8.491 23.899 18.965 23.899h.157c10.561 0 19.122 8.561 19.122 19.122v425.958c0 10.56-8.561 19.122-19.122 19.122z" fill="#2e3033"/></svg>