<svg xmlns="http://www.w3.org/2000/svg" viewBox="0 0 512.1 512.1"><path d="M503.6 373.9H35.4c-4.6 0-8.4-3.7-8.4-8.4v-301c0-4.6 3.7-8.4 8.4-8.4h468.3c4.6 0 8.4 3.7 8.4 8.4v301c-.1 4.6-3.8 8.4-8.5 8.4z" fill="#4173cd"/><path d="M269.5 336.2c-66.9 0-121.2-54.4-121.2-121.2S202.6 93.8 269.5 93.8 390.7 148.1 390.7 215s-54.3 121.2-121.2 121.2zm0-217.4c-53 0-96.2 43.1-96.2 96.2s43.1 96.2 96.2 96.2 96.2-43.1 96.2-96.2-43.2-96.2-96.2-96.2z" fill="#f5f5f5"/><g fill="#ffdc00"><path d="M269.5 327.9c-62.2 0-112.9-50.6-112.9-112.9s50.6-112.9 112.9-112.9S382.4 152.8 382.4 215s-50.7 112.9-112.9 112.9zm0-217.4C211.9 110.5 165 157.4 165 215s46.9 104.5 104.5 104.5S374 272.6 374 215s-46.9-104.5-104.5-104.5z"/><circle cx="160.8" cy="215" r="8.4"/><circle cx="378.2" cy="215" r="8.4"/><circle cx="269.5" cy="106.3" r="8.4"/><circle cx="192.6" cy="138.1" r="8.4"/><circle cx="346.4" cy="138.1" r="8.4"/><circle cx="369.9" cy="173.4" r="8.4"/><circle cx="227.9" cy="114.6" r="8.4"/><circle cx="169.1" cy="173.4" r="8.4"/><circle cx="311.1" cy="114.6" r="8.4"/><circle cx="376.1" cy="193.8" r="8.4"/><circle cx="248.3" cy="108.4" r="8.4"/><circle cx="179.1" cy="154.6" r="8.4"/><circle cx="329.9" cy="124.6" r="8.4"/><circle cx="359.9" cy="154.6" r="8.4"/><circle cx="209.1" cy="124.6" r="8.4"/><circle cx="162.9" cy="193.8" r="8.4"/><circle cx="290.7" cy="108.4" r="8.4"/></g><path d="M378.2 219.2c-2.3 0-4.2-1.9-4.2-4.2 0-57.6-46.9-104.5-104.5-104.5S165 157.4 165 215c0 2.3-1.9 4.2-4.2 4.2s-4.2-1.9-4.2-4.2c0-62.2 50.6-112.9 112.9-112.9S382.4 152.8 382.4 215c0 2.3-1.9 4.2-4.2 4.2z" fill="#ffa000"/><path d="M292.7 340.4h-46.5c-9.9 0-17.7-8.6-16.6-18.5l14.8-140.4h50.2L309.4 322c1 9.8-6.7 18.4-16.7 18.4z" fill="#b4b4b4"/><path d="M294.3 181.6h-49.9c-2.2 0-4-1.7-4.3-3.8l-3.1-28.7c-.5-4.9 3.3-9.3 8.3-9.3h48.3c5 0 8.9 4.3 8.3 9.3l-3.1 28.5c-.2 2.2-2.1 4-4.5 4z" fill="#aaa"/><path d="M271.4 149.5l15.5 44.6 47.2 1c1.9 0 2.7 2.5 1.2 3.7l-37.6 28.5 13.7 45.2c.6 1.9-1.5 3.4-3.1 2.3l-38.8-27-38.8 27c-1.6 1.1-3.7-.4-3.1-2.3l13.7-45.2-37.6-28.5c-1.5-1.2-.7-3.6 1.2-3.7l47.2-1 15.5-44.6c.6-1.9 3.2-1.9 3.8 0z" fill="#f5f5f5"/><path d="M19.2 489.1C8.6 489.1 0 480.5 0 469.9V42c0-10.5 8.5-19 19-19h.2c10.6 0 19.2 8.6 19.2 19.2V470c0 10.5-8.6 19.1-19.2 19.1z" fill="#2e3033"/></svg>