<svg xmlns="http://www.w3.org/2000/svg" viewBox="0 0 512 512"><path d="M503.6 373.9H35.4c-4.6 0-8.4-3.8-8.4-8.4v-301c0-4.6 3.8-8.4 8.4-8.4h468.2c4.6 0 8.4 3.8 8.4 8.4v300.9c0 4.7-3.8 8.5-8.4 8.5z" fill="#ff4b55"/><path d="M30.1 58.1c-1.8 1.5-3.1 3.8-3.1 6.3v301c0 4.6 3.7 8.4 8.4 8.4h468.3c2 0 3.8-.8 5.3-2L30.1 58.1z" fill="#464655"/><g fill="#f5f5f5"><path d="M75.8 209.6L71 223.9l-15.1.1c-1.5 0-2.1 1.9-.9 2.7l12.2 9-4.6 14.4c-.4 1.4 1.1 2.5 2.3 1.7l12.3-8.8 12.3 8.8c1.2.8 2.8-.3 2.3-1.7l-4.6-14.4 12.2-9c1.2-.9.6-2.7-.9-2.7l-15.1-.1-4.8-14.3c-.4-1.4-2.4-1.4-2.8 0zM178.8 209.6l-4.8 14.3-15.1.1c-1.5 0-2.1 1.9-.9 2.7l12.2 9-4.6 14.4c-.4 1.4 1.1 2.5 2.3 1.7l12.3-8.8 12.3 8.8c1.2.8 2.8-.3 2.3-1.7l-4.6-14.4 12.2-9c1.2-.9.6-2.7-.9-2.7l-15.1-.1-4.8-14.3c-.4-1.4-2.3-1.4-2.8 0zM127.3 147.1l-4.8 14.3-15.1.1c-1.5 0-2.1 1.9-.9 2.7l12.2 9-4.6 14.4c-.4 1.4 1.1 2.5 2.3 1.7l12.3-8.8 12.3 8.8c1.2.8 2.8-.3 2.3-1.7l-4.6-14.4 12.2-9c1.2-.9.6-2.7-.9-2.7l-15.1-.1-4.8-14.3c-.4-1.3-2.3-1.3-2.8 0zM127.3 300.7l-4.8 14.3-15.1.1c-1.5 0-2.1 1.9-.9 2.7l12.2 9-4.6 14.4c-.4 1.4 1.1 2.5 2.3 1.7l12.3-8.8L141 343c1.2.8 2.8-.3 2.3-1.7l-4.6-14.4 12.2-9c1.2-.9.6-2.7-.9-2.7l-15.1-.1-4.8-14.3c-.4-1.4-2.3-1.4-2.8-.1zM151.3 263.3l-2.5 7.6-8 .1c-.8 0-1.1 1-.5 1.4l6.5 4.8-2.4 7.7c-.2.7.6 1.3 1.2.9l6.5-4.7 6.5 4.7c.6.4 1.5-.2 1.2-.9l-2.4-7.7 6.5-4.8c.6-.5.3-1.4-.5-1.4l-8-.1-2.5-7.6c-.3-.7-1.3-.7-1.6 0z"/></g><path d="M441.5 207.7c-1.2-9.5-5.3-18.8-8.2-24.6 1.5.7 3.7 2 3.7 2l-2-7.2c5 2 8.7 5.9 8.7 5.9-2.5-12.5-6.4-18.3-6.4-18.3l3.1 1.1c-5.9-14.5-14.6-18.6-14.6-18.6l5-1.2c-7.3-9.2-17.7-12.3-17.7-12.3l6.7-3.2c-17.8-10.1-35 .5-35 .5s6-6.2 8.2-8.8c2.2-2.6-3.1-3.5-3.1-3.5s5.2-3.6 5-5.7-5-1-5-1 4.1-4.2 4.1-6.6-4.2-.9-4.2-.9 1.4-2.9 1.7-5.1c.4-2.2-3.7-.4-3.7-.4s4.6-8.2 4.4-10c-.2-1.7-12.1 5.6-20.6 13.7s-7.5 21.1-6.7 24.2c.8 3.1 1.2 10.3-2.5 12.9-3.8 2.5-10.4-3.7-13.8-7.5-3.3-3.8-7.5-2.5-11.8-1s-12.5-.5-14.9-.8c-2.5-.3 2.8 2.5 7.3 4.2s6.5 5.6 12.8 8c5.5 2 10 7.2 5.6 9.6-3.4 1.9-3.4-1.1-18.3-5s-32.9 34.1-32.9 34.1c9.6-1.2 14.5-6.9 14.5-6.9l-2.6 7.4c7.1-1.3 10.6-5.7 10.6-5.7l-1.9 7.5c5.4-1.7 9.2-7.5 9.2-7.5l-1.6 7.4c5.3-2.5 8.2-7.4 8.2-7.4.6 2.7 1 8.3 1 8.3 8.3-4.4 10.2-10.7 10.2-10.7 9.5 28.7 23.2 33.4 23.2 33.4l.7-7.5c4.2 6 10.2 9 10.2 9l-1-6.5c14.7 17.9 31.6 22.4 31.6 22.4l-4.3-9.9 5.3 1.1c-5.7-4.9-7.8-13.3-7.8-13.3l4.5.7c-7.2-6.6-10.8-14.2-10.8-14.2l4.4.7c-1.4-2.1-2.5-9.6-2.5-9.6 8 2.5 12.1 5.6 12.1 5.6l.5-2.7c6.8 4.9 18.1 14.1 25.9 25.6 0 3.8-.6 7.6-2.2 11.4-7.1 17.4-25.9 16.3-34.2 12.6 0 0 25.7 20.1 39.9-8.5.9-1.8 1.5-3.7 1.9-5.7 1.8 4.2 3 8.6 3.2 13.1 1.5 29.2-28.9 26.4-28.9 26.4s33.6 13.5 35.1-25.4c.2-8.7-3.4-17.3-9.3-25.6zm-30.6-29.1l.1-.8c5.1 1.5 10.5 5.1 10.5 5.1l1.2-3.6c5.1 6.1 9.1 12.6 11.3 19.4-6.8-7.3-14.9-14.1-23.1-20.1z" fill="#ffe15a"/><path d="M19.2 488.7C8.6 488.7 0 480.1 0 469.6V42.3c0-10.5 8.5-19 19-19h.2c10.6 0 19.2 8.6 19.2 19.2v427.1c-.1 10.5-8.6 19.1-19.2 19.1z" fill="#2e3033"/></svg>