<svg xmlns="http://www.w3.org/2000/svg" viewBox="0 0 512.1 512.1"><path d="M27 268h485v97.6c0 4.6-3.7 8.4-8.4 8.4H35.4c-4.6 0-8.4-3.7-8.4-8.4V268z" fill="#41479b"/><path d="M35.4 56.1h468.3c4.6 0 8.4 3.7 8.4 8.4V162H27V64.5c0-4.6 3.7-8.4 8.4-8.4z" fill="#ff4b55"/><path fill="#f5f5f5" d="M27 162h485v105.9H27z"/><g fill="#ff4b55"><path d="M211 164.8h23.4v26.8H211zM257.8 164.8h23.4v26.8h-23.4zM234.4 191.6h23.4v26.8h-23.4zM304.6 164.8H328v26.8h-23.4zM281.2 191.6h23.4v26.8h-23.4z"/></g><g fill="#f5f5f5"><path d="M234.4 164.8h23.4v26.8h-23.4zM281.2 164.8h23.4v26.8h-23.4zM211 191.6h23.4v26.8H211zM257.8 191.6h23.4v26.8h-23.4zM304.6 191.6H328v26.8h-23.4z"/></g><g fill="#ff4b55"><path d="M257.8 218.3h23.4v26.8h-23.4zM234.4 245.1h23.4v26.8h-23.4zM281.2 245.1h23.4v26.8h-23.4z"/></g><g fill="#f5f5f5"><path d="M234.4 218.3h23.4v26.8h-23.4zM281.2 218.3h23.4v26.8h-23.4zM257.8 245.1h23.4v26.8h-23.4z"/></g><g fill="#ff4b55"><path d="M328 164.8v75.3c0 32.3-26.2 58.5-58.5 58.5S211 272.4 211 240.1v-75.3h117m4.2-4.2H206.8v79.5c0 34.6 28.1 62.7 62.7 62.7s62.7-28.1 62.7-62.7v-79.5z"/><path d="M234.4 245.1v-26.8H211V240c0 1.7.1 3.4.3 5h23.1v.1z"/></g><g fill="#f5f5f5"><path d="M327.8 245.1h-23.2v26.8h14c5.1-7.9 8.3-17 9.2-26.8zM220.4 271.9h14v-26.8h-23.2c.9 9.8 4.1 18.9 9.2 26.8z"/></g><g fill="#ff4b55"><path d="M304.6 245.1h23.2c.1-1.7.3-3.3.3-5v-21.7h-23.4v26.7h-.1zM234.4 286.8v-15h-14c3.7 5.8 8.5 10.9 14 15zM318.6 271.9h-14v15c5.5-4.2 10.3-9.3 14-15z"/></g><g fill="#f5f5f5"><path d="M234.4 286.8c6.8 5.1 14.7 8.9 23.4 10.6v-25.6h-23.4v15zM281.2 297.4c8.7-1.8 16.6-5.5 23.4-10.6v-15h-23.4v25.6z"/></g><path d="M281.2 271.9h-23.4v25.6c3.8.8 7.7 1.2 11.7 1.2s7.9-.4 11.7-1.2v-25.6z" fill="#ff4b55"/><g fill="#4173cd"><path d="M227.1 120.5c-5.1-.8-10.3-1.4-15.6-1.7-4.1 3.4-8 6.9-11.7 10.6 3.7 9 7.5 18 11.2 27 7.5-3.1 15.2-5.6 23-7.5-2.3-9.4-4.6-18.9-6.9-28.4zM283.7 116.1c-4.6-2.3-9.3-4.5-14.2-6.4-4.9 2-9.6 4.1-14.2 6.4.8 9.7 1.5 19.5 2.3 29.2 7.9-.6 15.9-.6 23.9 0 .7-9.7 1.4-19.5 2.2-29.2zM339.2 129.4c-3.7-3.7-7.6-7.2-11.7-10.6-5.3.3-10.5.9-15.6 1.7-2.3 9.5-4.5 19-6.8 28.5 7.8 1.9 15.5 4.3 23 7.5 3.7-9 7.4-18.1 11.1-27.1z"/></g><g fill="#41479b"><path d="M255.3 116.1c-4.9-1.6-9.9-3-15.1-4.1-4.5 2.7-8.9 5.5-13.1 8.6 2.3 9.5 4.5 19 6.8 28.5 7.8-1.9 15.7-3.1 23.6-3.7-.7-9.8-1.5-19.6-2.2-29.3zM311.9 120.5c-4.2-3-8.6-5.9-13.1-8.6-5.2 1.2-10.2 2.5-15.1 4.1-.8 9.7-1.5 19.5-2.3 29.2 7.9.6 15.8 1.9 23.6 3.7 2.3-9.4 4.6-18.9 6.9-28.4z"/></g><g fill="#ff4b55"><path d="M256.2 127.8c-8.9.7-17.7 2.1-26.3 4.2-.5-1.9-.9-3.8-1.4-5.7 9-2.1 18.1-3.6 27.3-4.3.1 1.9.2 3.8.4 5.8zM257.1 139.5c-8.2.6-16.5 1.9-24.5 3.9-.5-1.9-.9-3.8-1.4-5.7 8.4-2 16.9-3.3 25.4-4 .2 1.9.4 3.8.5 5.8z"/></g><path d="M297.3 141.4c-2-.4-4.1-.7-6.1-1-3.4-.5-5.9-3.3-5.6-6.6.3-3.2 3.5-5.6 7.2-5 2.2.3 4.4.6 6.6 1 3.7.6 6 3.9 5.3 7-.8 3.3-4.1 5.2-7.4 4.6z" fill="#ffe15a"/><path d="M330.3 151.1c-7.8-3.2-15.8-5.8-23.8-7.7.5-1.9.9-3.8 1.4-5.7 8.4 2 16.7 4.7 24.7 8-.8 1.8-1.6 3.6-2.3 5.4z" fill="#ff4b55"/><g fill="#ffe15a"><path d="M328.2 133.5c-.8 2.3-3.6 3.4-6.3 2.5-2.6-.9-4.2-3.4-3.6-5.7.7-2.3 3.5-3.6 6.3-2.7 2.8 1 4.4 3.6 3.6 5.9zM220.6 130.3c.7 2.3-.9 4.8-3.6 5.7-2.6.9-5.4-.2-6.3-2.5-.8-2.3.7-4.9 3.5-5.8 3-1 5.8.3 6.4 2.6zM268.2 126.5c0 1.9-1.7 3.5-3.9 3.6-2.2.1-4-1.4-4.1-3.3-.1-1.9 1.6-3.6 3.9-3.7 2.2-.1 4.1 1.4 4.1 3.4zM278.8 126.7c-.1 1.9-2 3.4-4.1 3.3-2.2-.1-3.9-1.6-3.9-3.6 0-1.9 1.9-3.5 4.1-3.4 2.3.1 4.1 1.8 3.9 3.7zM273.3 135.5c-.1 1.9-1.8 3.5-3.8 3.5s-3.7-1.5-3.8-3.5c-.1-1.9 1.6-3.6 3.8-3.6 2.2 0 3.8 1.7 3.8 3.6z"/></g><path d="M19.2 489.1C8.6 489.1 0 480.5 0 469.9V42c0-10.5 8.5-19 19-19h.2c10.6 0 19.2 8.6 19.2 19.2V470c0 10.5-8.6 19.1-19.2 19.1z" fill="#2e3033"/></svg>