<svg xmlns="http://www.w3.org/2000/svg" viewBox="0 0 512 512"><path d="M503.56 374.155H35.87a8.44 8.44 0 0 1-8.44-8.44V65.118a8.44 8.44 0 0 1 8.44-8.44h467.69a8.44 8.44 0 0 1 8.44 8.44v300.597a8.44 8.44 0 0 1-8.44 8.44z" fill="#ff4b55"/><path d="M309.418 236.2l63.82-46.827h-79.035l-24.489-75.372-24.489 75.372H166.19l63.82 46.827-24.299 74.788 63.94-45.703.062.045.062-.045 63.94 45.703-24.297-74.788zm12.804-30.118l-18.24 13.384-4.349-13.384h22.589zm-72.586 23.793l7.731-23.792h24.697l7.731 23.792-20.079 14.733-20.08-14.733zm20.079-61.796l6.919 21.294h-13.839l6.92-21.294zm-52.506 38.003h22.589l-4.349 13.384-18.24-13.384zm20.078 61.796l6.91-21.268 11.273 8.271-18.183 12.997zm57.945-21.269l6.91 21.268-18.182-12.997 11.272-8.271z" fill="#5a8250"/><path d="M19.122 488.1C8.561 488.1 0 479.539 0 468.979V42.864C0 32.39 8.491 23.9 18.965 23.9h.157c10.561 0 19.122 8.561 19.122 19.122V468.98c0 10.559-8.561 19.12-19.122 19.12z" fill="#2e3033"/></svg>