<svg xmlns="http://www.w3.org/2000/svg" viewBox="0 0 512 512"><path d="M512 85H27V64.5c0-4.6 3.8-8.4 8.4-8.4h468.2c4.6 0 8.4 3.8 8.4 8.4V85z" fill="#ff4b55"/><path fill="#f5f5f5" d="M27 85h485v28.9H27z"/><path fill="#ff4b55" d="M27 113.9h485v28.9H27z"/><path fill="#f5f5f5" d="M27 142.8h485v28.9H27z"/><path d="M512 200.6H35.4c-4.6 0-8.4-3.8-8.4-8.4v-20.5h485v28.9z" fill="#ff4b55"/><path fill="#f5f5f5" d="M512 229.4H27v-39.5h8.4v10.7H512z"/><path fill="#ff4b55" d="M27 229.4h485v28.9H27z"/><path fill="#f5f5f5" d="M27 258.3h485v28.9H27z"/><path fill="#ff4b55" d="M27 287.2h485v28.9H27z"/><path fill="#f5f5f5" d="M27 316.1h485V345H27z"/><path d="M503.6 373.9H35.4c-4.6 0-8.4-3.8-8.4-8.4V345h485v20.5c0 4.6-3.8 8.4-8.4 8.4z" fill="#ff4b55"/><path d="M164.1 200.6H38.8c-4.6 0-8.4-3.8-8.4-8.4V64.5c0-4.6 3.8-8.4 8.4-8.4h125.3c4.6 0 8.4 3.8 8.4 8.4v127.6c0 4.7-3.7 8.5-8.4 8.5z" fill="#41479b"/><path d="M99.1 93.5l-8 23.9-25.2.2c-2.4 0-3.4 3.1-1.5 4.5l20.3 15-7.6 24.1c-.7 2.3 1.9 4.2 3.9 2.8l20.5-14.7L122 164c2 1.4 4.6-.5 3.9-2.8l-7.6-24.1 20.3-15c1.9-1.4.9-4.5-1.5-4.5l-25.2-.2-8-23.9c-.8-2.3-4.1-2.3-4.8 0z" fill="#f5f5f5"/><path d="M18.9 485.2C8.5 485.2 0 476.7 0 466.3V45.5c0-10.3 8.4-18.7 18.7-18.7h.2c10.4 0 18.9 8.5 18.9 18.9v420.6c0 10.4-8.5 18.9-18.9 18.9z" fill="#2e3033"/></svg>