<svg xmlns="http://www.w3.org/2000/svg" viewBox="0 0 512.001 512.001"><g fill="#f5f5f5"><path d="M27.43 91.958H512v35.27H27.43zM27.43 162.498H512v35.27H27.43zM27.43 233.048H512v35.27H27.43z"/></g><path fill="#41479b" d="M27.43 268.328H512v35.27H27.43z"/><path fill="#f5f5f5" d="M27.43 303.608H512v35.27H27.43z"/><g fill="#41479b"><path d="M35.87 374.156h467.69a8.44 8.44 0 0 0 8.44-8.44V338.88H27.43v26.835a8.441 8.441 0 0 0 8.44 8.441zM512 91.953V65.032a8.354 8.354 0 0 0-8.355-8.355H35.785a8.354 8.354 0 0 0-8.355 8.355V233.053H512v-35.275H194.524v-35.275h317.477v-35.275H194.524V91.953H512z"/></g><path fill="#f5f5f5" d="M194.524 127.228h-65.909v-70.55H93.339v70.55H27.43v35.275h65.909v70.55h35.276v-70.55h65.909z"/><path d="M19.122 488.102C8.561 488.102 0 479.539 0 468.979V42.864C0 32.39 8.491 23.899 18.965 23.899h.157c10.561 0 19.122 8.561 19.122 19.122v425.958c0 10.56-8.561 19.123-19.122 19.123z" fill="#2e3033"/></svg>