<svg xmlns="http://www.w3.org/2000/svg" viewBox="0 0 512.1 512.1"><path d="M503.6 373.9H35.4c-4.6 0-8.4-3.7-8.4-8.4v-301c0-4.6 3.7-8.4 8.4-8.4h468.3c4.6 0 8.4 3.7 8.4 8.4v301c-.1 4.6-3.8 8.4-8.5 8.4z" fill="#ffe15a"/><path d="M268 215H42.2c-4.6 0-8.4-3.7-8.4-8.4V64.5c0-4.6 3.7-8.4 8.4-8.4H268c4.6 0 8.4 3.7 8.4 8.4v142.2c0 4.6-3.8 8.3-8.4 8.3z" fill="#41479b"/><path d="M268 56.1h-14.5L176 106.9V56.1h-41.8v50.7L56.8 56.1H42.2c-4.6 0-8.4 3.7-8.4 8.4v6.6l66.5 43.5H33.9v41.8h66.5L33.9 200v6.6c0 4.6 3.7 8.4 8.4 8.4h14.5l77.5-50.7V215H176v-50.7l77.5 50.7H268c4.6 0 8.4-3.7 8.4-8.4V200l-66.5-43.5h66.5v-41.8h-66.5l66.5-43.5v-6.6c0-4.7-3.8-8.5-8.4-8.5z" fill="#f5f5f5"/><g fill="#ff4b55"><path d="M276.4 123H167.7V56.1h-25.1V123H33.9v25.1h108.7V215h25.1v-66.9h108.7z"/><path d="M125.9 114.7l-88-57.1c-2.3 1.5-4 4-4 6.9v.4l76.6 49.7c0 .1 15.4.1 15.4.1zM191.4 114.7l83.7-54.3c-1.5-2.5-4-4.2-7.1-4.2h-1.8L176 114.7h15.4zM118.6 156.5L35 210.7c1.4 2.5 4 4.3 7.2 4.3h1.6l90.2-58.5h-15.4zM276.2 207.3l-78.3-50.8h-15.4l88.9 57.7c2.8-1.2 4.6-3.8 4.8-6.9z"/></g><circle cx="155.1" cy="135.6" r="25.1" fill="#41479b"/><g fill="#ffe15a"><path d="M156.8 115.2l4.2 12.6 13.2.1c1.7 0 2.4 2.2 1 3.2l-10.7 7.9 4 12.6c.5 1.6-1.3 3-2.7 2l-10.8-7.7-10.8 7.7c-1.4 1-3.3-.4-2.7-2l4-12.6-10.7-7.9c-1.4-1-.7-3.2 1-3.2l13.2-.1 4.2-12.6c.8-1.6 3.1-1.6 3.6 0zM87.4 125.5l2.3 6.8 7.1.1c.9 0 1.3 1.2.6 1.7l-5.7 4.2 2.1 6.8c.3.9-.7 1.6-1.5 1.1l-5.8-4.1-5.8 4.1c-.8.5-1.8-.2-1.5-1.1l2.1-6.8-5.7-4.2c-.7-.5-.4-1.7.6-1.7l7.1-.1 2.3-6.8c.3-.9 1.5-.9 1.8 0zM225.3 125.5l2.3 6.8 7.1.1c.9 0 1.3 1.2.6 1.7l-5.7 4.2 2.1 6.8c.3.9-.7 1.6-1.5 1.1l-5.8-4.1-5.8 4.1c-.8.5-1.8-.2-1.5-1.1l2.1-6.8-5.7-4.2c-.7-.5-.4-1.7.6-1.7l7.1-.1 2.3-6.8c.3-.9 1.5-.9 1.8 0zM156.1 74.7l2.3 6.8 7.1.1c.9 0 1.3 1.2.6 1.7l-5.7 4.2 2.1 6.8c.3.9-.7 1.6-1.5 1.1l-5.8-4.1-5.8 4.1c-.8.5-1.8-.2-1.5-1.1l2.1-6.8-5.7-4.2c-.7-.5-.4-1.7.6-1.7l7.1-.1 2.3-6.8c.3-.9 1.6-.9 1.8 0zM156.1 177.4l2.3 6.8 7.1.1c.9 0 1.3 1.2.6 1.7l-5.7 4.2 2.1 6.8c.3.9-.7 1.6-1.5 1.1l-5.8-4.1-5.8 4.1c-.8.5-1.8-.2-1.5-1.1l2.1-6.8-5.7-4.2c-.7-.5-.4-1.7.6-1.7l7.1-.1 2.3-6.8c.3-.9 1.6-.9 1.8 0z"/></g><path d="M19.2 489.1C8.6 489.1 0 480.5 0 469.9V42c0-10.5 8.5-19 19-19h.2c10.6 0 19.2 8.6 19.2 19.2V470c0 10.5-8.6 19.1-19.2 19.1z" fill="#2e3033"/></svg>