<svg xmlns="http://www.w3.org/2000/svg" viewBox="0 0 512 512"><path d="M503.56 374.155H35.87a8.44 8.44 0 0 1-8.44-8.44V65.118a8.44 8.44 0 0 1 8.44-8.44h467.69a8.44 8.44 0 0 1 8.44 8.44v300.597a8.44 8.44 0 0 1-8.44 8.44z" fill="#ff4b55"/><g fill="#f5f5f5"><path d="M239.882 227.646c-10.532.109-22.358-3.264-32.721-14.687-.715-.788-.615-2.028.197-2.716l.004-.003c.788-.668 1.952-.563 2.647.199 15.796 17.345 35.374 14.309 47.07 10.117-4.322.192-9.751-.133-13.243-2.429-14.59-9.59-7.981-19.793-17.671-32.126-9.628-12.254-18.292-11.954-31.934-9.886-13.505 2.047-17.808-7.86-19.146-13.358-.239-.984-1.613-1.047-1.965-.097-16.834 45.48 33.782 101.754 85.747 61.292-5.129 1.89-11.733 3.619-18.985 3.694zm-37.921-15.434c-.295.812-1.455.781-1.706-.046l-1.938-6.388-6.672-.234c-.864-.031-1.192-1.143-.483-1.636l5.475-3.817-1.839-6.418c-.238-.83.718-1.486 1.407-.965l5.322 4.028 5.535-3.733c.716-.483 1.636.224 1.353 1.04l-2.186 6.307 5.26 4.11c.68.532.292 1.625-.572 1.608l-6.674-.131-2.282 6.275zM277.162 197.43c8.363-6.403 19.849-10.797 34.991-7.871 1.044.202 1.708 1.254 1.471 2.291l-.001.004c-.23 1.006-1.224 1.622-2.238 1.427-23.042-4.408-36.888 9.764-43.734 20.133 3.343-2.745 7.883-5.741 12.053-5.999 17.426-1.076 18.257 11.052 33.408 15.11 15.054 4.031 21.806-1.404 31.483-11.24 9.58-9.737 18.964-4.39 23.332-.793.782.644 1.919-.13 1.63-1.101-13.805-46.489-88.057-61.165-105.374 2.378 2.973-4.586 7.22-9.93 12.979-14.339zm39.601-10.391c-.25-.827.696-1.497 1.393-.985l5.382 3.949 5.479-3.814c.709-.494 1.638.199 1.368 1.02l-2.092 6.338 5.32 4.032c.689.522.316 1.62-.548 1.616l-6.675-.032-2.19 6.306c-.284.817-1.443.802-1.706-.021l-2.033-6.359-6.674-.135c-.864-.018-1.209-1.125-.506-1.629l5.418-3.898-1.936-6.388z"/><path d="M249.271 201.812c-4.107-9.699-5.488-21.918 1.131-35.848.457-.961 1.642-1.34 2.587-.851l.004.002c.917.475 1.264 1.591.823 2.524-10.031 21.208.227 38.157 8.554 47.379-1.822-3.924-3.587-9.068-2.794-13.171 3.317-17.141 15.267-14.911 22.985-28.566 7.669-13.566 4.094-21.464-3.008-33.294-7.032-11.712.493-19.46 5.068-22.789.819-.596.354-1.891-.658-1.854-48.464 1.739-81.246 69.959-24.054 102.619-3.696-4.022-7.808-9.471-10.638-16.151zm-.155-40.94c-.864.036-1.275-1.049-.606-1.595l5.17-4.223-2.322-6.258c-.301-.81.603-1.537 1.33-1.07l5.614 3.611 5.235-4.143c.677-.536 1.648.099 1.427.935l-1.7 6.456 5.558 3.698c.72.479.416 1.598-.447 1.647l-6.664.379-1.8 6.428c-.233.832-1.392.888-1.705.083l-2.419-6.221-6.671.273zM287.033 223.82c8.706 5.929 16.484 15.454 18.464 30.749.136 1.055-.654 2.016-1.713 2.116h-.005c-1.028.098-1.923-.652-2.058-1.676-3.052-23.261-20.856-31.954-32.85-35.197 3.657 2.312 7.927 5.68 9.481 9.559 6.495 16.206-4.758 20.804-3.852 36.463.901 15.558 8.182 20.261 20.56 26.359 12.253 6.037 10.124 16.625 8.081 21.903-.366.945.726 1.781 1.557 1.202 39.8-27.708 30.413-102.812-35.353-99.295 5.284 1.38 11.692 3.734 17.688 7.817zm22.303 34.333c.707-.498 1.639.191 1.374 1.013l-2.058 6.35 5.341 4.004c.692.518.325 1.618-.539 1.619l-6.675.004-2.156 6.317c-.28.818-1.439.809-1.707-.013l-2.067-6.347-6.675-.099c-.864-.013-1.214-1.118-.516-1.627l5.397-3.928-1.969-6.379c-.254-.826.688-1.5 1.387-.993l5.403 3.92 5.46-3.841z"/><path d="M265.26 242.694c-2.998 10.097-9.705 20.405-23.673 26.944-.963.452-2.12-.011-2.537-.989l-.002-.004c-.406-.949.036-2.031.971-2.471 21.229-9.986 24.093-29.59 23.533-42.003-1.09 4.186-2.999 9.28-6.221 11.941-13.462 11.118-21.266 1.798-35.906 7.425-14.546 5.592-16.811 13.959-18.854 27.605-2.022 13.509-12.756 14.703-18.405 14.363-1.012-.061-1.476 1.233-.671 1.849 38.505 29.482 107.191-2.314 83.829-63.891.293 5.458 0 12.278-2.064 19.231zm-25.92 31.692c.689.522.318 1.62-.546 1.616l-6.675-.028-2.188 6.307c-.284.817-1.443.803-1.706-.021l-2.035-6.357-6.674-.133c-.864-.017-1.209-1.125-.507-1.629l5.417-3.9-1.937-6.388c-.25-.827.695-1.497 1.393-.986l5.384 3.947 5.478-3.816c.709-.494 1.638.199 1.368 1.02l-2.09 6.34 5.318 4.028z"/></g><path d="M19.122 488.1C8.561 488.1 0 479.539 0 468.979V42.864C0 32.39 8.491 23.9 18.965 23.9h.157c10.561 0 19.122 8.561 19.122 19.122V468.98c0 10.559-8.561 19.12-19.122 19.12z" fill="#2e3033"/></svg>