<svg xmlns="http://www.w3.org/2000/svg" viewBox="0 0 512.1 512.1"><path d="M503.6 373.9H35.4c-4.6 0-8.4-3.7-8.4-8.4v-301c0-4.6 3.7-8.4 8.4-8.4h468.3c4.6 0 8.4 3.7 8.4 8.4v301c-.1 4.6-3.8 8.4-8.5 8.4z" fill="#73af00"/><path fill="#ffe15a" d="M27 181.6h485v22.3H27z"/><path fill="#464655" d="M27 203.9h485v22.3H27z"/><path fill="#f5f5f5" d="M27 226.1h485v22.3H27z"/><path fill="#ffe15a" d="M236.1 56.1h22.3v317.8h-22.3z"/><path fill="#464655" d="M258.3 56.1h22.3v317.8h-22.3z"/><path fill="#f5f5f5" d="M280.6 56.1h22.3v317.8h-22.3z"/><circle cx="269.5" cy="215" r="83.6" fill="#ff4b55"/><path d="M262.3 229.4s-1 6.8 5.7 17h12.9l-2.9-12.3-15.7-4.7z" fill="#73af00"/><path d="M261.4 183.6s-21.1 34.5 9.9 55.1l3.3-19.5 2.1-25.3-3.3-10.8-12 .5z" fill="#a561cd"/><path d="M261.4 183.6s-2.4 4-4.4 10.1c2.7 2.8 10.1 6.4 19.3 4.8l.4-4.6-3.3-10.8-12 .5z" fill="#73af00"/><path d="M257.4 178.7s.3-6.9 7-6.9c8.5 0 15.4 2 26.3 24.6 0 0-9.7 9.5-15.9-3.6-1.8-3.9-2.5-8.6-2.5-8.6s-7.6 2.6-12.8-.4l-2.1-5.1z" fill="#a561cd"/><path d="M260.8 181.9l-1.6-4.2s-8.7-1.4-5.1 9.1c0 0 .3-2.1 2.5-1.8 2.2.3 4.5-1.4 4.2-3.1z" fill="#ffe15a"/><g fill="#73af00"><path d="M275.3 221.5s-9.2 7.2-4 24.1c2.7 9 13.7 18.8 13.7 18.8s8.1-21.2 5.5-29.4c-1.6-4.8-15.2-13.5-15.2-13.5z"/><path d="M292.8 248.7s-23.7-22.6-25.3-40.4 8.7-15 10.5-13.8c4.5 2.8 15.7 14.2 14.8 54.2z"/></g><path d="M289.8 253.9h-39.2c-.8 0-1.5-.7-1.5-1.5v-2.9c0-.8.7-1.5 1.5-1.5h39.2c.8 0 1.5.7 1.5 1.5v2.9c0 .8-.6 1.5-1.5 1.5z" fill="#b34900"/><path d="M280.3 248.3c-1.4.6-4.1 1.3-3.4 3.7.5 1.9 4.1 1.7 3.4 3.8-.5 1.5-7.7 1.6-10.5 1.2-1.7-.3-5.5-1.3-4.9-5.6.5-4.3 2.1-5 4-5.7 1.9-.8 10.4-.6 11.7.5.5.5.7 1.7-.3 2.1z" fill="#ffe15a"/><g fill="#73af00"><path d="M270.3 140.3l1.9 5.7h6c.8 0 1.1 1 .5 1.5l-4.8 3.6 1.8 5.7c.2.7-.6 1.4-1.2.9l-4.9-3.5-4.9 3.5c-.6.5-1.5-.2-1.2-.9l1.8-5.7-4.8-3.6c-.6-.5-.3-1.5.5-1.5h6l1.9-5.7c.1-.7 1.1-.7 1.4 0zM270.3 273.7l1.9 5.7h6c.8 0 1.1 1 .5 1.5l-4.8 3.6 1.8 5.7c.2.7-.6 1.4-1.2.9l-4.9-3.5-4.9 3.5c-.6.5-1.5-.2-1.2-.9l1.8-5.7-4.8-3.6c-.6-.5-.3-1.5.5-1.5h6l1.9-5.7c.1-.7 1.1-.7 1.4 0z"/><path d="M270.3 140.3l1.9 5.7h6c.8 0 1.1 1 .5 1.5l-4.8 3.6 1.8 5.7c.2.7-.6 1.4-1.2.9l-4.9-3.5-4.9 3.5c-.6.5-1.5-.2-1.2-.9l1.8-5.7-4.8-3.6c-.6-.5-.3-1.5.5-1.5h6l1.9-5.7c.1-.7 1.1-.7 1.4 0zM270.3 273.7l1.9 5.7h6c.8 0 1.1 1 .5 1.5l-4.8 3.6 1.8 5.7c.2.7-.6 1.4-1.2.9l-4.9-3.5-4.9 3.5c-.6.5-1.5-.2-1.2-.9l1.8-5.7-4.8-3.6c-.6-.5-.3-1.5.5-1.5h6l1.9-5.7c.1-.7 1.1-.7 1.4 0zM223.8 154l1.7 5.8-4.9 3.4c-.6.4-.3 1.4.4 1.5l6 .2 1.8 5.8c.2.7 1.3.8 1.5 0l2-5.7 6 .1c.8 0 1.1-1 .5-1.4l-4.7-3.7 2-5.7c.3-.7-.6-1.4-1.2-.9l-5 3.4-4.8-3.6c-.7-.6-1.5 0-1.3.8zM299.4 263.9l1.7 5.8-4.9 3.4c-.6.4-.3 1.4.4 1.5l6 .2 1.8 5.8c.2.7 1.3.8 1.5 0l2-5.7 6 .1c.8 0 1.1-1 .5-1.4l-4.7-3.7 2-5.7c.3-.7-.6-1.4-1.2-.9l-5 3.4-4.8-3.6c-.6-.5-1.5.1-1.3.8zM195.5 192.3l4.8 3.6-1.9 5.7c-.2.7.6 1.4 1.2.9l4.9-3.4 4.9 3.5c.6.5 1.5-.1 1.3-.9L209 196l4.9-3.5c.6-.5.3-1.5-.5-1.5l-6-.1-1.8-5.7c-.2-.7-1.3-.8-1.5 0l-2 5.7h-6c-.9-.1-1.2.9-.6 1.4zM322 234.8l4.8 3.6-1.9 5.7c-.2.7.6 1.4 1.2.9l4.9-3.4 4.9 3.5c.6.5 1.5-.1 1.3-.9l-1.8-5.8 4.9-3.5c.6-.5.3-1.5-.5-1.5l-6-.1-1.8-5.7c-.2-.7-1.3-.8-1.5 0l-2 5.7h-6c-.8 0-1.1 1-.5 1.5zM312 154l-1.7 5.8 4.9 3.4c.6.4.3 1.4-.4 1.5l-6 .2-1.8 5.8c-.2.7-1.3.8-1.5 0l-2-5.7-6 .1c-.8 0-1.1-1-.5-1.4l4.7-3.7-2-5.7c-.3-.7.6-1.4 1.2-.9l5 3.4 4.8-3.6c.7-.6 1.6 0 1.3.8zM236.4 263.9l-1.7 5.8 4.9 3.4c.6.4.3 1.4-.4 1.5l-6 .2-1.8 5.8c-.2.7-1.3.8-1.5 0l-2-5.7-6 .1c-.8 0-1.1-1-.5-1.4l4.7-3.7-2-5.7c-.3-.7.6-1.4 1.2-.9l5 3.4 4.8-3.6c.7-.5 1.5.1 1.3.8zM340.3 192.3l-4.8 3.6 1.9 5.7c.2.7-.6 1.4-1.2.9l-4.9-3.4-4.9 3.5c-.6.5-1.5-.1-1.3-.9l1.8-5.8-4.9-3.5c-.6-.5-.3-1.5.5-1.5l6-.1 1.8-5.7c.2-.7 1.3-.8 1.5 0l2 5.7h6c.8 0 1.1 1 .5 1.5zM213.8 234.8l-4.8 3.6 1.9 5.7c.2.7-.6 1.4-1.2.9l-4.9-3.4-4.9 3.5c-.6.5-1.5-.1-1.3-.9l1.8-5.8-4.9-3.5c-.6-.5-.3-1.5.5-1.5l6-.1 1.8-5.7c.2-.7 1.3-.8 1.5 0l2 5.7h6c.8 0 1.2 1 .5 1.5z"/></g><path d="M19.2 489.1C8.6 489.1 0 480.5 0 469.9V42c0-10.5 8.5-19 19-19h.2c10.6 0 19.2 8.6 19.2 19.2V470c0 10.5-8.6 19.1-19.2 19.1z" fill="#2e3033"/></svg>