<svg xmlns="http://www.w3.org/2000/svg" viewBox="0 0 512 512"><path d="M512 162.05H27v-97.5c0-4.6 3.8-8.4 8.4-8.4h468.2c4.6 0 8.4 3.8 8.4 8.4v97.5z" fill="#73af00"/><path d="M503.6 373.95H35.4c-4.6 0-8.4-3.8-8.4-8.4v-97.5h485v97.5c0 4.6-3.8 8.4-8.4 8.4z" fill="#ff4b55"/><path fill="#f5f5f5" d="M27 162.05h485v105.9H27z"/><path d="M148.3 220.25c2.4-3 2.4-7.3 0-10.4L29.2 58.95c-1.3 1.5-2.2 3.4-2.2 5.6v301c0 2.2.9 4.1 2.2 5.6l119.1-150.9z" fill="#4173cd"/><path d="M267.5 222.55c0 .2-.1 19.9-5.1 29.5h14.1c-5-9.7-5.1-29.3-5.1-29.5 0-6.8 7-12.2 7.1-12.2l-2.4-3.1c-.2.1-2.5 1.9-4.7 4.8v-5.2h-3.9v5.2c-2.2-2.9-4.5-4.7-4.7-4.8l-2.4 3.1c.1 0 7.1 5.4 7.1 12.2z" fill="#b46446"/><path d="M289.2 198.95h-.3c-.8-2.3-3-4-5.6-4-.9 0-1.8.2-2.6.6-.8-1.5-2.4-2.6-4.3-2.6-.5 0-1 .1-1.5.3-1-2.5-3.5-4.2-6.3-4.2-3.5 0-6.4 2.6-6.8 6-.4-.1-.7-.1-1.1-.1-3.8 0-6.9 3.1-6.9 6.9 0 .4.1.9.1 1.3-1.7.6-3.1 1.9-3.7 3.7h-.4c-2.2 0-3.9 1.8-3.9 3.9 0 2.2 1.8 3.9 3.9 3.9 1 0 1.9-.4 2.6-1 .9.6 2.1 1 3.3 1 1.1 0 2.1-.3 3-.8.9.5 1.9.8 3 .8 3.3 0 5.9-2.6 5.9-5.9 0-.2 0-.5-.1-.7.9.5 1.9.7 3 .7 1.4 0 2.6-.4 3.7-1.1 1 1.8 2.9 3.1 5.2 3.1.5 0 .9-.1 1.4-.2 1.1 1.3 2.7 2.1 4.5 2.1s3.3-.8 4.4-2c3-.2 5.4-2.8 5.4-5.9 0-3.2-2.7-5.8-5.9-5.8z" fill="#73af00"/><path d="M283.2 203.85c0-.2 0-.4.1-.6-1.1 1-2.5 1.6-4 1.6-2.1 0-3.9-1.1-4.9-2.6-1.1 1.6-2.9 2.6-4.9 2.6-1.6 0-3-.6-4.1-1.6-.6 3.2-3.4 5.6-6.8 5.6-.3 0-.7-.1-1-.1v.1c0 2.6-1.7 4.7-4 5.5.6.2 1.3.4 2 .4 1.1 0 2.1-.3 3-.8.9.5 1.9.8 3 .8 3.3 0 5.9-2.6 5.9-5.9 0-.2 0-.5-.1-.7.9.5 1.9.7 3 .7 1.4 0 2.6-.4 3.7-1.1 1 1.8 2.9 3.1 5.2 3.1.5 0 .9-.1 1.4-.2 1.1 1.3 2.7 2.1 4.5 2.1s3.3-.8 4.4-2c-3.5-.3-6.4-3.3-6.4-6.9z" fill="#5fa000"/><path d="M269.5 264.65c-.3 0-.6-.2-.7-.5-.1-.2-1.9-5.4-9.1-5.4h-9.8c-5.8 0-10.6-4.7-10.6-10.6v-65c0-.4.3-.7.7-.7h61c.4 0 .7.3.7.7v65c0 5.8-4.7 10.6-10.6 10.6h-11.8c-7.3 0-9.1 5.3-9.1 5.4-.1.3-.4.5-.7.5zm-28.8-80.8v64.2c0 5 4.1 9.1 9.1 9.1h9.8c5.8 0 8.7 3.1 9.8 5 1.2-1.9 4-5 9.8-5H291c5 0 9.1-4.1 9.1-9.1v-64.2h-59.4z" fill="#464655"/><g fill="#ffe15a"><path d="M261.9 165.55l1.9 3 3.5.2-1.7 3.1 1.7 3.1-3.5.1-1.9 3-1.9-3-3.5-.1 1.7-3.1-1.7-3.1 3.5-.2zM245.3 168.35l2.5 2.4 3.5-.7-.9 3.5 2.3 2.6-3.4.9-1.1 3.4-2.5-2.5-3.5.7.9-3.4-2.3-2.6 3.4-1zM229.3 173.05l3 1.9 3.2-1.5-.1 3.6 2.9 2-3.2 1.7-.3 3.5-3-1.9-3.2 1.5.1-3.6-2.9-2 3.1-1.7zM277.1 165.55l-1.9 3-3.5.2 1.7 3.1-1.7 3.1 3.5.1 1.9 3 1.9-3 3.5-.1-1.7-3.1 1.7-3.1-3.5-.2zM293.7 168.35l-2.5 2.4-3.5-.7.9 3.5-2.3 2.6 3.4.9 1.1 3.4 2.5-2.5 3.5.7-.9-3.4 2.3-2.6-3.4-1zM309.7 173.05l-3 1.9-3.2-1.5.1 3.6-2.9 2 3.2 1.7.3 3.5 3-1.9 3.2 1.5-.1-3.6 2.9-2-3.1-1.7z"/></g><path d="M18.7 483.45c-10.3 0-18.7-8.3-18.7-18.7V47.15c0-10.3 8.3-18.6 18.6-18.6h.2c10.3 0 18.7 8.4 18.7 18.7v417.4c0 10.5-8.4 18.8-18.8 18.8z" fill="#2e3033"/></svg>