<svg xmlns="http://www.w3.org/2000/svg" viewBox="0 0 512.001 512.001"><path d="M512 165.761H20.541V66.96a8.53 8.53 0 0 1 8.529-8.529h474.401A8.53 8.53 0 0 1 512 66.96v98.801z" fill="#82afff"/><path d="M503.471 380.422H29.07a8.53 8.53 0 0 1-8.529-8.529v-98.801H512v98.801a8.53 8.53 0 0 1-8.529 8.529z" fill="#73af00"/><path fill="#f5f5f5" d="M20.541 165.76h491.46v107.33H20.541z"/><g fill="#ff4b55"><path d="M20.541 156.23h491.46v13.383H20.541zM20.541 269.25h491.46v13.383H20.541z"/></g><g fill="#f5f5f5"><path d="M129.479 138.864c-17.348 0-31.408-14.028-31.408-31.313 0-17.348 14.06-31.439 31.408-31.439l.198.001c1.021.014 1.38-1.343.479-1.825a37.23 37.23 0 0 0-17.919-4.437C91.481 70 74.62 87.2 74.84 107.956c.217 20.543 17.012 37.171 37.667 37.171a37.339 37.339 0 0 0 17.677-4.44c.898-.481.535-1.838-.483-1.823h-.222zM154.073 130.205l-1.403 4.206-4.434.034c-.574.004-.812.737-.351 1.078l3.567 2.634-1.337 4.227c-.174.547.45 1 .917.666l3.607-2.578 3.608 2.578c.467.334 1.091-.119.917-.666l-1.338-4.227 3.567-2.634c.462-.341.224-1.074-.351-1.078l-4.434-.034-1.403-4.206c-.181-.545-.95-.545-1.132 0zM185.309 130.205l-1.403 4.206-4.434.034c-.574.004-.812.737-.351 1.078l3.567 2.634-1.337 4.227c-.173.547.45 1 .917.666l3.607-2.578 3.607 2.578c.467.334 1.091-.119.917-.666l-1.338-4.227 3.567-2.634c.462-.341.224-1.074-.351-1.078l-4.434-.034-1.403-4.206c-.179-.545-.948-.545-1.131 0zM216.546 130.205l-1.403 4.206-4.434.034c-.574.004-.812.737-.351 1.078l3.567 2.634-1.338 4.227c-.173.547.45 1 .917.666l3.607-2.578 3.607 2.578c.467.334 1.091-.119.917-.666l-1.338-4.227 3.567-2.634c.462-.341.224-1.074-.35-1.078l-4.434-.034-1.403-4.206c-.179-.545-.948-.545-1.131 0zM247.783 130.205l-1.403 4.206-4.434.034c-.574.004-.812.737-.35 1.078l3.567 2.634-1.338 4.227c-.173.547.45 1 .917.666l3.607-2.578 3.607 2.578c.467.334 1.091-.119.917-.666l-1.338-4.227 3.567-2.634c.462-.341.224-1.074-.351-1.078l-4.434-.034-1.403-4.206c-.178-.545-.948-.545-1.131 0zM279.021 130.205l-1.403 4.206-4.434.034c-.575.004-.812.737-.351 1.078l3.567 2.634-1.338 4.227c-.173.547.45 1 .917.666l3.608-2.578 3.607 2.578c.467.334 1.091-.119.917-.666l-1.337-4.227 3.567-2.634c.462-.341.224-1.074-.35-1.078l-4.434-.034-1.403-4.206c-.181-.545-.952-.545-1.133 0zM185.309 101.051l-1.403 4.206-4.434.034c-.574.004-.812.737-.351 1.078l3.567 2.633-1.337 4.227c-.173.547.45 1 .917.666l3.607-2.578 3.607 2.578c.467.334 1.091-.119.917-.666l-1.338-4.227 3.567-2.633c.462-.341.224-1.074-.351-1.078l-4.434-.034-1.403-4.206c-.179-.544-.948-.544-1.131 0zM216.546 101.051l-1.403 4.206-4.434.034c-.574.004-.812.737-.351 1.078l3.567 2.633-1.338 4.227c-.173.547.45 1 .917.666l3.607-2.578 3.607 2.578c.467.334 1.091-.119.917-.666l-1.338-4.227 3.567-2.633c.462-.341.224-1.074-.35-1.078l-4.434-.034-1.403-4.206c-.179-.544-.948-.544-1.131 0zM247.783 101.051l-1.403 4.206-4.434.034c-.574.004-.812.737-.35 1.078l3.567 2.633-1.338 4.227c-.173.547.45 1 .917.666l3.607-2.578 3.607 2.578c.467.334 1.091-.119.917-.666l-1.338-4.227 3.567-2.633c.462-.341.224-1.074-.351-1.078l-4.434-.034-1.403-4.206c-.178-.544-.948-.544-1.131 0zM279.021 101.051l-1.403 4.206-4.434.034c-.575.004-.812.737-.351 1.078l3.567 2.633-1.338 4.227c-.173.547.45 1 .917.666l3.608-2.578 3.607 2.578c.467.334 1.091-.119.917-.666l-1.337-4.227 3.567-2.633c.462-.341.224-1.074-.35-1.078l-4.434-.034-1.403-4.206c-.181-.544-.952-.544-1.133 0z"/><path d="M216.546 130.205l-1.403 4.206-4.434.034c-.574.004-.812.737-.351 1.078l3.567 2.634-1.338 4.227c-.173.547.45 1 .917.666l3.607-2.578 3.607 2.578c.467.334 1.091-.119.917-.666l-1.338-4.227 3.567-2.634c.462-.341.224-1.074-.35-1.078l-4.434-.034-1.403-4.206c-.179-.545-.948-.545-1.131 0zM216.546 71.896l-1.403 4.206-4.434.034c-.574.004-.812.737-.351 1.078l3.567 2.633-1.338 4.227c-.173.547.45 1 .917.666l3.607-2.578 3.607 2.578c.467.334 1.091-.119.917-.666l-1.338-4.227 3.567-2.633c.462-.341.224-1.074-.35-1.078l-4.434-.034-1.403-4.206c-.179-.544-.948-.544-1.131 0zM247.783 130.205l-1.403 4.206-4.434.034c-.574.004-.812.737-.35 1.078l3.567 2.634-1.338 4.227c-.173.547.45 1 .917.666l3.607-2.578 3.607 2.578c.467.334 1.091-.119.917-.666l-1.338-4.227 3.567-2.634c.462-.341.224-1.074-.351-1.078l-4.434-.034-1.403-4.206c-.178-.545-.948-.545-1.131 0zM279.021 130.205l-1.403 4.206-4.434.034c-.575.004-.812.737-.351 1.078l3.567 2.634-1.338 4.227c-.173.547.45 1 .917.666l3.608-2.578 3.607 2.578c.467.334 1.091-.119.917-.666l-1.337-4.227 3.567-2.634c.462-.341.224-1.074-.35-1.078l-4.434-.034-1.403-4.206c-.181-.545-.952-.545-1.133 0zM247.783 71.896l-1.403 4.206-4.434.034c-.574.004-.812.737-.35 1.078l3.567 2.633-1.338 4.227c-.173.547.45 1 .917.666l3.607-2.578 3.607 2.578c.467.334 1.091-.119.917-.666l-1.338-4.227 3.567-2.633c.462-.341.224-1.074-.351-1.078l-4.434-.034-1.403-4.206c-.178-.544-.948-.544-1.131 0zM279.021 71.896l-1.403 4.206-4.434.034c-.575.004-.812.737-.351 1.078l3.567 2.633-1.338 4.227c-.173.547.45 1 .917.666l3.608-2.578 3.607 2.578c.467.334 1.091-.119.917-.666l-1.337-4.227 3.567-2.633c.462-.341.224-1.074-.35-1.078l-4.434-.034-1.403-4.206c-.181-.544-.952-.544-1.133 0z"/></g><path d="M19.323 490.545C8.651 490.545 0 481.893 0 471.221v-430.6c0-10.584 8.58-19.165 19.164-19.165h.159c10.672 0 19.323 8.651 19.323 19.323v430.443c.001 10.671-8.651 19.323-19.323 19.323z" fill="#2e3033"/></svg>