<svg xmlns="http://www.w3.org/2000/svg" viewBox="0 0 512 512"><path d="M188.7 373.85H35.4c-4.6 0-8.4-3.7-8.4-8.4v-301c0-4.6 3.7-8.4 8.4-8.4h153.3v317.8z" fill="#73af00"/><path fill="#f5f5f5" d="M188.7 56.05h161.7v317.8H188.7z"/><g fill="#73af00"><path d="M503.6 373.85H350.3V56.05h153.3c4.6 0 8.4 3.7 8.4 8.4v301c0 4.6-3.7 8.4-8.4 8.4zM325.3 296.95l-26-151.4c-1-5.8-3-11.3-6.1-16.4l-23.8-39.7-23.8 39.7c-3 5-5.1 10.6-6.1 16.4l-26 151.4c-.5 2.9 1.7 5.5 4.7 5.5H260v37.9h19v-37.9h41.7c2.9.1 5.1-2.6 4.6-5.5z"/></g><path d="M19.2 489.05c-10.6 0-19.2-8.6-19.2-19.2V41.95c0-10.5 8.5-19 19-19h.2c10.6 0 19.2 8.6 19.2 19.2v427.8c0 10.5-8.6 19.1-19.2 19.1z" fill="#2e3033"/></svg>