<svg xmlns="http://www.w3.org/2000/svg" viewBox="0 0 512 512"><path d="M503.657 66.435H270.045V383.48h233.612a8.344 8.344 0 0 0 8.343-8.343V74.778a8.343 8.343 0 0 0-8.343-8.343z" fill="#ff4b55"/><path d="M36.433 383.48h233.612V66.435H36.433a8.343 8.343 0 0 0-8.343 8.343v300.358a8.343 8.343 0 0 0 8.343 8.344z" fill="#f5f5f5"/><path d="M97.617 85.902v22.324c1.229.048 2.601.607 3.74 1.746 1.14 1.14 1.698 2.512 1.746 3.741h22.325v22.249h-22.325c-.048 1.229-.606 2.601-1.746 3.74-1.14 1.14-2.511 1.698-3.74 1.746v22.325H75.368v-22.325c-1.229-.048-2.601-.606-3.74-1.746-1.14-1.14-1.697-2.511-1.746-3.74H47.557v-22.249h22.325c.047-1.229.606-2.601 1.746-3.741s2.511-1.697 3.74-1.746V85.902h22.249m2.781-2.781H72.587v22.915a8.98 8.98 0 0 0-2.926 1.969 8.95 8.95 0 0 0-1.97 2.927H44.776V138.743h22.916a8.973 8.973 0 0 0 1.969 2.927 8.943 8.943 0 0 0 2.926 1.969v22.915H100.398v-22.915a8.973 8.973 0 0 0 2.927-1.969 8.943 8.943 0 0 0 1.969-2.926h22.916V110.933h-22.915a8.994 8.994 0 0 0-1.969-2.927 8.953 8.953 0 0 0-2.926-1.969V83.121h-.002z" fill="#ff4b55"/><path fill="#cdcdcd" d="M125.428 113.713H97.617V85.902H75.368v27.811H47.557v22.249h27.811v27.811h22.249v-27.811h27.811z"/><g fill="#b4a08c"><path d="M97.462 122.954a11.139 11.139 0 0 1-12.854 12.854c-4.61-.756-8.33-4.475-9.085-9.085a11.138 11.138 0 0 1 12.854-12.854c4.61.755 8.329 4.474 9.085 9.085z"/><ellipse transform="rotate(-134.999 74.072 137.248)" cx="74.071" cy="137.248" rx="4.946" ry="3.463"/><ellipse transform="rotate(-45.001 98.909 137.25)" cx="98.91" cy="137.249" rx="4.946" ry="3.463"/><ellipse transform="rotate(45.001 98.903 112.43)" cx="98.901" cy="112.43" rx="4.946" ry="3.463"/><ellipse transform="rotate(134.999 74.076 112.423)" cx="74.075" cy="112.423" rx="4.946" ry="3.463"/><path d="M86.493 140.065c-8.398 0-15.229-6.831-15.229-15.229s6.831-15.229 15.229-15.229 15.229 6.831 15.229 15.229-6.832 15.229-15.229 15.229zm0-29.065c-7.629 0-13.838 6.209-13.838 13.838s6.208 13.838 13.838 13.838 13.838-6.208 13.838-13.838C100.33 117.208 94.122 111 86.493 111z"/></g><path d="M19.026 486.943C8.519 486.943 0 478.424 0 467.916V43.928c0-10.422 8.448-18.871 18.87-18.871h.156c10.508 0 19.026 8.519 19.026 19.026v423.831c.001 10.51-8.518 19.029-19.026 19.029z" fill="#2e3033"/></svg>