<svg xmlns="http://www.w3.org/2000/svg" viewBox="0 0 512 512"><path d="M24.345 272.959H512v98.036a8.463 8.463 0 0 1-8.463 8.463H32.807a8.463 8.463 0 0 1-8.463-8.463v-98.036h.001z" fill="#73af00"/><path d="M32.807 59.961h470.73A8.463 8.463 0 0 1 512 68.424v98.036H24.345V68.422a8.462 8.462 0 0 1 8.462-8.461z" fill="#ff4b55"/><path fill="#f5f5f5" d="M24.341 166.45h487.65v106.5H24.341z"/><g fill="#ffcd5a"><path d="M240.617 249.745c3.495-1.762 5.541-4.664 6.634-6.76 6.263 4.091 11.628 2.702 14.425 1.393 2.728-1.278 4.975-3.364 6.475-5.488 1.5 2.124 3.747 4.21 6.475 5.488 2.795 1.309 8.161 2.695 14.425-1.393 1.093 2.096 3.139 4.997 6.634 6.76 2.015 1.014 4.237 1.524 6.648 1.524 2.475 0 5.152-.536 8.008-1.607l-1.387-3.701c-4.545 1.704-8.399 1.796-11.453.272-4.275-2.131-5.701-6.83-5.712-6.868l-.834-2.918-2.332 1.941c-4.112 3.425-8.371 4.264-12.32 2.41-4.011-1.878-6.175-5.679-6.175-6.82v-17.056c.855-1.882 2.742-3.199 4.94-3.199.755 0 1.502.164 2.218.487l2.446 1.103-.369-2.659c-.775-5.587-5.595-9.799-11.211-9.799-5.615 0-10.435 4.212-11.21 9.799l-.369 2.659 2.446-1.103a5.368 5.368 0 0 1 2.218-.487c2.198 0 4.084 1.317 4.94 3.199v17.056c0 1.14-2.164 4.942-6.175 6.82-3.947 1.854-8.208 1.017-12.32-2.41l-2.312-1.916-.851 2.885c-.014.047-1.441 4.746-5.715 6.875-3.056 1.524-6.91 1.433-11.453-.272l-1.387 3.701c2.857 1.071 5.533 1.607 8.008 1.607 2.407.001 4.629-.509 6.645-1.523zm20.617-38.984c-.236 0-.472.01-.707.031 1.322-2.948 4.282-4.971 7.622-4.971 3.341 0 6.3 2.023 7.622 4.971-3.073-.27-5.979 1.231-7.622 3.608a8.389 8.389 0 0 0-6.915-3.639zM233.932 262.309l1.253 3.747c8.402-2.803 20.418-4.413 32.966-4.413 12.548 0 24.565 1.609 32.966 4.413l1.253-3.747c-8.79-2.935-21.262-4.618-34.219-4.618-12.956.001-25.429 1.684-34.219 4.618z"/><path d="M268.151 253.739c2.06.006 3.875-1.218 5.105-2.867-.818-.505-1.909-.8-3.144-.953.001-.045.016-.086.016-.132 0-1.694-.8-3.157-1.976-3.952-1.176.794-1.976 2.257-1.976 3.952 0 .045.014.087.015.131-1.235.153-2.326.449-3.144.953 1.229 1.651 3.043 2.875 5.104 2.868zM250.014 255.608c2.019-.406 3.553-1.969 4.428-3.831-.902-.331-2.03-.402-3.271-.305-.007-.044-.002-.088-.012-.132-.339-1.66-1.415-2.933-2.726-3.477-.993 1.014-1.484 2.608-1.146 4.267.01.044.031.081.041.126-1.18.397-2.19.904-2.89 1.562 1.535 1.372 3.557 2.207 5.576 1.79zM287.869 247.863c-1.312.544-2.388 1.817-2.726 3.477-.01.044-.003.088-.012.132-1.241-.097-2.37-.026-3.271.305.875 1.862 2.409 3.424 4.428 3.831 2.017.418 4.04-.418 5.575-1.789-.7-.658-1.711-1.166-2.89-1.562.011-.044.033-.081.041-.126.339-1.66-.152-3.254-1.145-4.268zM267.623 175.086l-1.331 3.991-4.207.033c-.545.004-.77.699-.332 1.023l3.384 2.5-1.269 4.011c-.164.519.427.949.871.633l3.423-2.447 3.423 2.447c.443.316 1.035-.113.87-.633l-1.269-4.011 3.384-2.5c.438-.324.213-1.019-.332-1.023l-4.207-.033-1.331-3.991c-.174-.517-.905-.517-1.077 0zM243.541 181.673l-1.331 3.991-4.207.033c-.545.004-.77.699-.332 1.023l3.384 2.5-1.269 4.011c-.164.519.427.949.87.633l3.423-2.447 3.423 2.447a.568.568 0 0 0 .871-.633l-1.269-4.011 3.384-2.5c.438-.324.213-1.019-.332-1.023l-4.207-.033-1.331-3.991c-.174-.517-.905-.517-1.077 0zM225.838 199.457l-1.331 3.991-4.207.033c-.545.004-.77.699-.332 1.023l3.384 2.5-1.269 4.011c-.164.519.427.949.871.633l3.423-2.447 3.423 2.447a.568.568 0 0 0 .871-.633l-1.269-4.011 3.384-2.5c.438-.324.213-1.019-.332-1.023l-4.207-.033-1.331-3.991c-.174-.517-.905-.517-1.078 0zM219.334 223.498l-1.331 3.991-4.207.033c-.545.004-.77.699-.332 1.023l3.384 2.5-1.269 4.011c-.164.519.427.949.871.633l3.423-2.447 3.423 2.447a.568.568 0 0 0 .871-.633l-1.269-4.011 3.384-2.5c.438-.324.213-1.019-.332-1.023l-4.207-.033-1.331-3.991c-.175-.516-.906-.516-1.078 0zM292.804 181.673l1.331 3.991 4.207.033c.545.004.77.699.332 1.023l-3.384 2.5 1.269 4.011c.164.519-.427.949-.87.633l-3.423-2.447-3.423 2.447a.568.568 0 0 1-.871-.633l1.269-4.011-3.384-2.5c-.438-.324-.213-1.019.332-1.023l4.207-.033 1.331-3.991c.174-.517.905-.517 1.077 0zM310.505 199.457l1.331 3.991 4.207.033c.545.004.77.699.332 1.023l-3.384 2.5 1.269 4.011c.164.519-.427.949-.871.633l-3.423-2.447-3.423 2.447a.568.568 0 0 1-.871-.633l1.269-4.011-3.384-2.5c-.438-.324-.213-1.019.332-1.023l4.207-.033 1.331-3.991c.176-.517.907-.517 1.078 0zM317.01 223.498l1.331 3.991 4.207.033c.545.004.77.699.332 1.023l-3.384 2.5 1.269 4.011c.164.519-.427.949-.87.633l-3.423-2.447-3.423 2.447c-.443.316-1.035-.113-.87-.633l1.269-4.011-3.384-2.5c-.438-.324-.213-1.019.332-1.023l4.207-.033 1.331-3.991c.173-.516.904-.516 1.076 0z"/></g><path d="M19.174 488.729C8.585 488.729 0 480.145 0 469.555V42.287c0-10.502 8.514-19.016 19.016-19.016h.158c10.589 0 19.174 8.585 19.174 19.174v427.111c-.001 10.589-8.585 19.173-19.174 19.173z" fill="#2e3033"/></svg>