<svg xmlns="http://www.w3.org/2000/svg" viewBox="0 0 512.001 512.001"><path d="M503.524 374.658H28.87a8.476 8.476 0 0 1-8.476-8.476V61.047a8.476 8.476 0 0 1 8.476-8.476h474.655a8.476 8.476 0 0 1 8.476 8.476v305.135a8.477 8.477 0 0 1-8.477 8.476z" fill="#4173cd"/><path d="M228.288 298.373c-.712 12.663 7.67 14.223 12.211 14.292s11.421 2.064 17.821 3.371c6.399 1.307 8.463-3.991 8.463-3.991 3.785 4.954 7.477 3.441 7.477 3.441 3.027-3.027 11.101-4.542 14.266-4.749 3.165-.207 2.408-4.541 2.408-4.541 3.316-1.845 5.56-3.958 7.164-6.094.069.031.129.078.198.108 5.435 2.339 9.633-2.615 10.527-4.472.553-1.15 1.566-1.657 2.29-1.905l.256 2.868c2.339-3.371 7.431-2.133 7.431-2.133-5.23-8.05-10.527-4.334-10.527-4.334l2.053 1.951c-3.115 1.57-4.964 7.785-9.552 5.963-.392-.156-.724-.379-1.073-.584 1.852-3.672 1.912-7.137 1.418-9.117-.894-3.578-6.399-4.403-9.082-.756-1.875 2.549-.689 6.487 2.03 9.44-1.436 1.001-3.269 1.933-5.677 2.601-7.431 2.064-18.577-7.707-26.284-8.119-7.707-.413-14.449 6.055-18.303 10.183-3.853 4.129-9.024.471-8.945-2.202m60.893-10.461c1.445-.619 2.064.482 2.271 2.271.087.75-.325 1.977-1.336 3.295-1.592-2.449-1.853-5.173-.935-5.566z" fill="#73af00"/><g fill="#f5f5f5"><path d="M250.113 313.646l-4.109 2.114 1.148-2.839zM246.28 312.666l-3.799 1.955 1.061-2.625zM242.737 311.951l-2.808 1.584.725-2.009zM274.26 315.486l-4.472 1.164 1.743-2.52zM271.154 313.831l-4.165.945 1.683-2.277zM268.248 312.306l-2.858 1.487.791-1.984z"/><ellipse transform="rotate(144.875 210.458 161.775)" cx="210.461" cy="161.777" rx="1.939" ry="2.532"/><ellipse transform="rotate(35.125 321.924 161.786)" cx="321.934" cy="161.776" rx="1.939" ry="2.532"/><path d="M292.788 203.72v49.384c0 14.662-11.929 26.591-26.591 26.591s-26.591-11.929-26.591-26.591V203.72h53.182m15.196-18.994h-83.573a3.797 3.797 0 0 0-3.798 3.798v64.579c0 25.176 20.409 45.585 45.585 45.585s45.585-20.409 45.585-45.585v-64.579a3.8 3.8 0 0 0-3.799-3.798z"/></g><g fill="#ff4b55"><path d="M239.606 203.72h-18.994v-10.518a8.476 8.476 0 0 1 8.476-8.476h10.518v18.994zM256.69 184.72h18.994v18.994H256.69zM220.61 222.72h18.994v18.994H220.61zM292.79 222.72h18.994v18.994H292.79zM311.782 203.72h-18.994v-18.994h10.518a8.476 8.476 0 0 1 8.476 8.476v10.518zM282.358 295.687l-7.307-17.539c-2.774.984-5.746 1.547-8.852 1.547s-6.078-.564-8.852-1.547l-7.307 17.539c5.029 1.91 10.461 3.003 16.159 3.003 5.697 0 11.129-1.093 16.159-3.003zM232.57 283.805l14.856-11.884a26.556 26.556 0 0 1-7.371-14.06l-18.311 5.232c1.762 7.874 5.57 14.958 10.826 20.712zM310.65 263.092l-18.311-5.232a26.553 26.553 0 0 1-7.371 14.06l14.856 11.884c5.257-5.753 9.063-12.837 10.826-20.712z"/></g><g fill="#ffe15a"><path d="M226.31 188.53h7.598v11.396h-7.598zM226.31 226.51h7.598v11.396h-7.598zM230.11 264.5h7.598v11.396h-7.598zM294.69 264.5h7.598v11.396h-7.598zM298.49 188.53h7.598v11.396h-7.598z"/></g><g fill="#ff4b55"><path d="M226.31 207.4h7.598v11.396h-7.598zM298.49 207.4h7.598v11.396h-7.598zM226.31 245.07h7.598v11.396h-7.598zM242.69 278.67h7.598v11.396h-7.598zM282.1 278.67h7.598v11.396H282.1zM298.49 245.07h7.598v11.396h-7.598z"/></g><path fill="#ffe15a" d="M262.39 188.53h7.598v11.396h-7.598z"/><g fill="#ff4b55"><path d="M244.35 188.53h7.598v11.396h-7.598zM280.13 188.53h7.598v11.396h-7.598z"/></g><g fill="#ffe15a"><path d="M298.49 226.51h7.598v11.396h-7.598zM262.39 283.49h7.598v11.396h-7.598zM266.197 210.961c7.332 0 13.296 5.964 13.296 13.296s-5.965 13.296-13.296 13.296c-7.332 0-13.296-5.964-13.296-13.296.001-7.332 5.964-13.296 13.296-13.296m0-1.899c-8.392 0-15.195 6.803-15.195 15.195s6.803 15.195 15.195 15.195 15.195-6.803 15.195-15.195-6.803-15.195-15.195-15.195z"/></g><g fill="#73af00"><path d="M263.902 223.189c-3.768 0-6.12 1.061-7.592 2.379.605-2.984 1.864-6.178 4.505-6.178a.95.95 0 0 0 0-1.898c-2.619 0-4.249 1.824-5.269 4.113-.626-12.458-2.561-12.504-3.278-12.504a.95.95 0 0 0-.949.949c0 .457.319.835.748.927.396.475.736 2.072 1.012 4.287-1.229-2.61-3.015-4.502-5.638-4.502-.524 0-.949.427-.949.949s.425.949.949.949c2.594 0 4.186 3.164 5.136 6.965-1.822-2.599-4.573-4.509-8.618-4.509-.524 0-.949.427-.949.949s.425.949.949.949c4.202 0 6.612 2.423 8.003 5.224-1.629-1.379-3.953-2.375-7.291-2.375-.524 0-.949.427-.949.949s.425.949.949.949c9.036 0 9.178 8.502 9.179 8.866 0 .138.094.235.147.354.048.104.05.232.129.311l.002.003a.946.946 0 0 0 .671.279h.002c.097-.001.161-.076.25-.104a.865.865 0 0 0 .586-.574c.032-.093.111-.16.112-.264.004-.227.163-5.546 8.152-5.546a.947.947 0 1 0 .001-1.897zM268.571 223.189c3.768 0 6.12 1.061 7.592 2.379-.605-2.984-1.864-6.178-4.505-6.178a.95.95 0 0 1 0-1.898c2.619 0 4.249 1.824 5.269 4.113.626-12.458 2.561-12.504 3.278-12.504a.95.95 0 0 1 .949.949.945.945 0 0 1-.748.927c-.396.475-.736 2.072-1.012 4.287 1.229-2.61 3.015-4.502 5.638-4.502.524 0 .949.427.949.949s-.425.949-.949.949c-2.594 0-4.186 3.164-5.136 6.965 1.822-2.599 4.573-4.509 8.618-4.509.524 0 .949.427.949.949s-.425.949-.949.949c-4.202 0-6.612 2.423-8.003 5.224 1.629-1.379 3.953-2.375 7.291-2.375.524 0 .949.427.949.949s-.425.949-.949.949c-9.036 0-9.178 8.502-9.179 8.866 0 .138-.094.235-.147.354-.048.104-.05.232-.129.311l-.002.003a.946.946 0 0 1-.671.279h-.002c-.097-.001-.161-.076-.25-.104a.863.863 0 0 1-.586-.574c-.032-.093-.111-.16-.112-.264-.004-.227-.163-5.546-8.152-5.546a.949.949 0 0 1-.001-1.897z"/></g><path d="M251.539 228.056c1.694 6.542 7.586 11.396 14.658 11.396s12.963-4.854 14.658-11.396h-29.316z" fill="#ff4b55"/><g fill="#ffe15a"><path d="M266.197 239.452c7.072 0 12.963-4.854 14.658-11.396h-14.658v11.396zM266.197 245.388c7.332 0 13.296 5.964 13.296 13.296 0 7.332-5.965 13.296-13.296 13.296-7.332 0-13.296-5.964-13.296-13.296.001-7.331 5.964-13.296 13.296-13.296m0-1.899c-8.392 0-15.195 6.803-15.195 15.195s6.803 15.195 15.195 15.195 15.195-6.803 15.195-15.195c0-8.393-6.803-15.195-15.195-15.195z"/></g><g fill="#73af00"><path d="M263.902 257.615c-3.768 0-6.12 1.061-7.592 2.379.605-2.984 1.864-6.178 4.505-6.178a.95.95 0 0 0 0-1.898c-2.619 0-4.249 1.824-5.269 4.113-.626-12.458-2.561-12.504-3.278-12.504a.95.95 0 0 0-.949.949c0 .457.319.835.748.927.396.475.736 2.072 1.012 4.287-1.229-2.61-3.015-4.502-5.638-4.502-.524 0-.949.427-.949.949s.425.949.949.949c2.594 0 4.186 3.164 5.136 6.965-1.822-2.599-4.573-4.509-8.618-4.509-.524 0-.949.427-.949.949s.425.949.949.949c4.202 0 6.612 2.423 8.003 5.224-1.629-1.379-3.953-2.375-7.291-2.375-.524 0-.949.427-.949.949s.425.949.949.949c9.036 0 9.178 8.502 9.179 8.866 0 .138.094.235.147.354.048.104.05.232.129.311l.002.003a.946.946 0 0 0 .671.279h.002c.097-.001.161-.076.25-.104a.865.865 0 0 0 .586-.574c.032-.093.111-.16.112-.264.004-.227.163-5.546 8.152-5.546a.95.95 0 0 0 .949-.949.946.946 0 0 0-.948-.948zM268.571 257.615c3.768 0 6.12 1.061 7.592 2.379-.605-2.984-1.864-6.178-4.505-6.178a.95.95 0 0 1 0-1.898c2.619 0 4.249 1.824 5.269 4.113.626-12.458 2.561-12.504 3.278-12.504a.95.95 0 0 1 .949.949.945.945 0 0 1-.748.927c-.396.475-.736 2.072-1.012 4.287 1.229-2.61 3.015-4.502 5.638-4.502.524 0 .949.427.949.949s-.425.949-.949.949c-2.594 0-4.186 3.164-5.136 6.965 1.822-2.599 4.573-4.509 8.618-4.509.524 0 .949.427.949.949s-.425.949-.949.949c-4.202 0-6.612 2.423-8.003 5.224 1.629-1.379 3.953-2.375 7.291-2.375.524 0 .949.427.949.949s-.425.949-.949.949c-9.036 0-9.178 8.502-9.179 8.866 0 .138-.094.235-.147.354-.048.104-.05.232-.129.311l-.002.003a.946.946 0 0 1-.671.279h-.002c-.097-.001-.161-.076-.25-.104a.863.863 0 0 1-.586-.574c-.032-.093-.111-.16-.112-.264-.004-.227-.163-5.546-8.152-5.546a.948.948 0 1 1-.001-1.897z"/></g><path d="M251.539 262.483c1.694 6.542 7.586 11.396 14.658 11.396s12.963-4.854 14.658-11.396h-29.316z" fill="#ff4b55"/><path d="M266.197 273.878c7.072 0 12.963-4.854 14.658-11.396h-14.658v11.396z" fill="#ffe15a"/><g fill="#f5f5f5"><path d="M213.014 196.122v-7.598H194.02v7.598h3.799v83.573h-3.799v7.598h18.994v-7.598h-3.799v-83.573zM338.374 196.122v-7.598H319.38v7.598h3.799v83.573h-3.799v7.598h18.994v-7.598h-3.799v-83.573z"/></g><path d="M307.984 184.726h-83.573a7.598 7.598 0 0 1 0-15.196h83.573a7.598 7.598 0 0 1 7.598 7.598 7.6 7.6 0 0 1-7.598 7.598z" fill="#ffe15a"/><path d="M269.046 179.978h-5.698a2.85 2.85 0 0 1 0-5.698h5.698a2.85 2.85 0 0 1 0 5.698z" fill="#ff4b55"/><g fill="#73af00"><path d="M297.537 179.978h-5.698a2.85 2.85 0 0 1 0-5.698h5.698a2.85 2.85 0 0 1 0 5.698zM240.555 179.978h-5.698a2.85 2.85 0 0 1 0-5.698h5.698a2.849 2.849 0 1 1 0 5.698z"/></g><path d="M319.54 153.781l-5.54 1.9.534 5.285c-6.119 6.952-9.189 7.401-10.453 6.961-1.565-.54-2.286-2.771-2.577-4.481l2.286 2.286c11.396-11.396 4.867-28.135 4.867-28.135-3.205.593-4.63 3.561-4.63 3.561-2.968-.237-6.054 0-6.054 0-.237 2.612.712 6.291.712 6.291-6.515 1.343-9.196 4.874-9.196 4.874 1.118 3.129 4.686 5.81 4.686 5.81-1.068 2.612.237 5.698.237 5.698 1.631 0 3.041-.492 4.039-.974-4.255 5.304-6.257 5.431-6.937 5.176-2.055-.763-2.577-6.834-2.289-10.901a.953.953 0 0 0-.606-.954.962.962 0 0 0-1.089.301l-3.276 4.177c-13.671-18.214-2.862-29.114-2.862-29.114v-7.598h-3.798v3.798h-3.256v-3.798h-3.256v3.798h-3.256v-3.798h-3.256v3.798h-3.256v-3.798h-3.256v3.798h-3.256v-3.798h-3.798v7.598s10.809 10.899-2.862 29.114l-3.276-4.177a.948.948 0 0 0-1.695.653c.289 4.067-.23 10.137-2.289 10.901-.681.247-2.688.125-6.95-5.194.999.489 2.422.993 4.074.993 0 0 1.305-3.086.237-5.698 0 0 3.568-2.682 4.686-5.81 0 0-2.682-3.53-9.196-4.874 0 0 .949-3.68.712-6.291 0 0-3.086-.237-6.054 0 0 0-1.425-2.968-4.63-3.561 0 0-6.53 16.738 4.867 28.135l2.26-2.26c-.293 1.707-1.015 3.917-2.572 4.455-1.271.441-4.331-.007-10.434-6.939l.536-5.307-5.54-1.9c-2.849-8.626-9.655-7.598-9.655-7.598 4.511 3.878 5.461 13.77 5.461 13.77l11.713 11.396.634-1.82c-.262-1.521-.67-2.712-1.108-3.676 3.674 3.395 6.658 4.694 9.018 3.866 2.318-.803 3.301-3.422 3.717-5.399 3.116 3.85 5.618 5.703 7.709 5.703.408 0 .8-.071 1.176-.212 2.987-1.105 3.563-6.375 3.605-9.896l2.058 2.623v6.991h15.195a3.798 3.798 0 0 1 7.596 0h15.195v-6.991l2.058-2.623c.042 3.521.62 8.791 3.605 9.896.376.141.768.212 1.176.212 2.09 0 4.593-1.855 7.709-5.703.415 1.977 1.399 4.596 3.717 5.399 2.372.827 5.365-.479 9.053-3.896-.443.969-.857 2.169-1.122 3.707l.634 1.82 11.713-11.396s.949-9.893 5.461-13.77c-.001-.001-6.807-1.03-9.656 7.596z" fill="#ffe15a"/><g fill="#f5f5f5"><path d="M251.951 179.978a2.85 2.85 0 0 1 0-5.698 2.85 2.85 0 0 1 2.849 2.849 2.848 2.848 0 0 1-2.849 2.849zM280.442 179.978a2.85 2.85 0 0 1 0-5.698 2.849 2.849 0 1 1 0 5.698z"/></g><g fill="#ff4b55"><path d="M308.933 179.978a2.85 2.85 0 0 1 0-5.698 2.85 2.85 0 0 1 0 5.698zM223.46 179.978a2.85 2.85 0 0 1 0-5.698 2.85 2.85 0 0 1 2.849 2.849 2.848 2.848 0 0 1-2.849 2.849z"/></g><g fill="#f5f5f5"><circle cx="266.2" cy="146.74" r="3.798"/><ellipse transform="rotate(165.836 228.07 152.987)" cx="228.07" cy="152.987" rx="2.454" ry="2.849"/><ellipse transform="rotate(14.164 304.353 152.984)" cx="304.354" cy="152.983" rx="2.454" ry="2.849"/><path d="M220.611 221.475c-3.589-.679-8.369-1.174-13.617-.62-5.14.541-11.143 2.139-16.774 5.965v24.063c7.863-19.004 25.397-15.331 30.391-13.823v-15.585zM311.782 221.475c3.589-.679 8.369-1.174 13.617-.62 5.14.541 11.143 2.139 16.774 5.965v24.063c-7.862-19.004-25.397-15.331-30.391-13.823v-15.585z"/></g><path d="M245.469 285.768s-4.093 6.424-6.165 7.046c0 0-2.809 2.046-3.379 1.839l9.855-11.423-.311 2.538z" fill="#ff4b55"/><path d="M245.109 289.476c-1.926-.207-3.44.894-4.403 2.202s-3.558 1.738-3.826.039c-.242-1.528 5.14-6.302 5.14-6.302s-.894-1.609-3.352-.983c-2.337.595-4.635 4.356-4.635 4.356s-2.336-.914-4.214.649l-8.034 9.19s9.868 8.43 22.431-3.991l-2.133-.689c.687-2.612 3.026-4.471 3.026-4.471z" fill="#73af00"/><g fill="#f5f5f5"><circle cx="233.26" cy="291.85" r=".932"/><path d="M194.02 129.298a97.614 97.614 0 0 1 34.189 6.044v-11.903a97.555 97.555 0 0 0-34.189-5.3v11.159zM288.99 116.348a97.632 97.632 0 0 0-45.585 0v-11.396a97.632 97.632 0 0 1 45.585 0v11.396z"/><path d="M247.204 107.666a97.598 97.598 0 0 0-27.174 6.524l1.639 11.278c8.211-3.279 16.806-5.375 25.535-6.336v-11.466zM190.222 142.307c5.176-1.445 10.445-2.51 15.778-3.096v-11.467c-5.327.495-10.596 1.473-15.778 2.829v11.734zM338.374 129.298a97.61 97.61 0 0 0-34.189 6.044v-11.903a97.555 97.555 0 0 1 34.189-5.3v11.159z"/><path d="M285.191 107.666a97.598 97.598 0 0 1 27.174 6.524l-1.639 11.278c-8.211-3.279-16.806-5.375-25.535-6.336v-11.466zM342.172 142.307c-5.176-1.445-10.444-2.51-15.778-3.096v-11.467c5.327.495 10.596 1.473 15.778 2.829v11.734z"/></g><path d="M19.203 489.089C8.598 489.089 0 480.492 0 469.886V41.957c0-10.519 8.527-19.045 19.045-19.045h.158c10.606 0 19.203 8.598 19.203 19.203v427.771c.001 10.606-8.597 19.203-19.203 19.203z" fill="#2e3033"/></svg>