<svg xmlns="http://www.w3.org/2000/svg" viewBox="0 0 512 512"><path fill="#464655" d="M27.43 115.161v200.511l133.674-100.255z"/><path d="M94.268 56.677l150.384 116.965H512V65.032a8.355 8.355 0 0 0-8.355-8.355H94.268z" fill="#ff4b55"/><path d="M94.268 374.155L244.651 257.19H512V365.8a8.355 8.355 0 0 1-8.355 8.355H94.268z" fill="#41479b"/><path d="M81.271 56.677H35.785a8.354 8.354 0 0 0-8.355 8.355v34.27l146.672 116.114L27.43 331.534V365.8a8.355 8.355 0 0 0 8.355 8.355h45.482l158.301-125.32H512v-66.838H239.569L81.271 56.677z" fill="#73af00"/><path fill="#f5f5f5" d="M108.192 56.677H81.271l158.298 125.32H512v-16.709H245.382z"/><path fill="#ffe15a" d="M27.43 99.302v21.311l119.752 94.804L27.43 310.222v21.312l146.672-116.117z"/><path fill="#f5f5f5" d="M239.568 248.835L81.267 374.155h26.921l137.193-108.611H512v-16.709z"/><path d="M19.122 488.1C8.561 488.1 0 479.539 0 468.979V42.864C0 32.39 8.491 23.9 18.965 23.9h.157c10.561 0 19.122 8.561 19.122 19.122V468.98c0 10.559-8.561 19.12-19.122 19.12z" fill="#2e3033"/></svg>