<svg xmlns="http://www.w3.org/2000/svg" viewBox="0 0 512 512"><path d="M503.524 374.657H28.871a8.476 8.476 0 0 1-8.476-8.476V61.048a8.476 8.476 0 0 1 8.476-8.476h474.653A8.476 8.476 0 0 1 512 61.048v305.133a8.476 8.476 0 0 1-8.476 8.476z" fill="#41479b"/><g fill="#f5f5f5"><path d="M512 196.663H283.149V52.572h-33.904v144.091H20.395v33.903h228.85v144.091h33.904V230.566H512z"/><path d="M185.937 162.839c-.243-1.442-.79-3.15-1.481-4.25-1.374-1.9-2.964-3.229-4.504-4.057-12.135-5.575-22.295-4.482-31.99-4.521-9.576.247-18.534 1.899-25.806 3.49-1.974.397-3.684.694-5.514 1.038.905-1.869 4.22-4.206 8.685-5.624 10.884-3.718 23.309-5.211 35.52-7.59 3.084-.604 6.211-1.312 9.411-2.222 1.724-.59 3.174-1.051 5.204-1.994a21.117 21.117 0 0 0 3.681-2.653c1.168-1.05 1.079-1.344 1.679-2.053 2.773-5.278.148-9.036-2.053-10.999-2.121-1.741-3.907-2.421-5.608-3.12-3.301-1.158-6.359-1.884-9.311-2.499l-16.752-3.352c-2.6-.602-5.115-1.27-7.321-2.081-1.948-.519-4.701-2.444-4.292-1.92-5.03-.434 6.889-6.044 15.483-9.178 2.284-1.009 4.555-2.026 6.881-3.462 2.282-1.509 4.634-2.789 7.17-7.013.498-.876.477-1.09.738-1.663l.29-.729c.629-2.246.283-1.64.429-2.614.297-2.356-.628-4.875-2.091-6.973-2.987-3.228-5.958-4.152-8.164-4.77-9.125-2.162-15.691-1.571-21.395-1.549l-17 .799-.417.019-.037.002a6.27 6.27 0 0 0-5.893 6.625c.019.338.178.621.248.941-4.899 1.35-12.65 2.73-20.319.923a2.07 2.07 0 0 0-2.515 1.551 2.086 2.086 0 0 0 1.551 2.515c3.013.711 6.002.989 8.852.989 6.054 0 11.225-1.232 14.757-2.314 1.139.845 2.524 1.378 4.05 1.289l17.18-1.005c5.118-.184 11.998-.455 17.673.879.469.073.722.219 1.032.351.044-.503-.916.914-2.417 1.643-1.457.94-3.352 1.84-5.324 2.736-4.032 1.828-8.648 3.398-13.763 6.15-2.47 1.458-5.523 2.938-8.06 7.269-1.186 2.007-1.748 5.251-1.125 7.538l.184.932.105.461.056.229c-.393-.815.598 1.377.519 1.179l.512.852c.455.649.384.918 1.474 2.051a24.057 24.057 0 0 0 2.882 2.644c.893.615 1.56.905 2.363 1.359 1.583.933 3.021 1.366 4.521 1.954 2.957 1.041 5.837 1.749 8.712 2.385l16.99 3.198a64.44 64.44 0 0 1 6.774 1.702c-2.679.966-6.43 1.94-9.665 2.563-11.767 2.483-24.244 3.985-36.935 8.442-3.176 1.209-6.43 2.654-9.621 5.097-3.005 2.277-6.162 6.817-5.758 11.805-1.076.15-2.313.371-3.308.481-10.765 1.425-15.29-.47-14.998-.525a2.954 2.954 0 0 0-3.007 5.088s1.846 1.253 5.14 1.975c3.278.742 7.89 1.081 13.506.639 1.547-.106 3.359-.337 5.06-.517 1.176 1.695 2.546 3.566 3.823 4.472 2.966 2.488 6.106 4.079 9.237 5.472 12.601 4.874 25.194 5.897 37.472 5.414 6.164-.463 12.231-1.182 18.461-3.961 2.904-1.355 6.891-3.488 8.122-9.659.003-.785.138-1.145.017-2.274zm-9.061 1.946c-.16-.912-.662 1.157-3.015 1.727-4.049 1.779-9.576 2.594-15.009 2.88-10.955.36-22.919-.919-33.178-5.079-1.613-.745-2.927-1.684-4.311-2.58.761-.117 1.42-.197 2.2-.32 7.623-1.214 15.568-2.645 24.695-2.795 8.692-.159 19.762-.039 27.111 3.617.854.46 1.227.939 1.51 1.228 0 0-.244-.292.028-.479.12.185-.031 1.225-.031 1.801zM448.692 162.839c-.243-1.442-.79-3.15-1.481-4.25-1.374-1.9-2.964-3.229-4.504-4.057-12.135-5.575-22.295-4.482-31.99-4.521-9.576.247-18.534 1.899-25.806 3.49-1.974.397-3.684.694-5.514 1.038.905-1.869 4.22-4.206 8.685-5.624 10.884-3.718 23.309-5.211 35.52-7.59 3.084-.604 6.211-1.312 9.411-2.222 1.724-.59 3.174-1.051 5.204-1.994a21.117 21.117 0 0 0 3.681-2.653c1.168-1.05 1.079-1.344 1.679-2.053 2.773-5.278.148-9.036-2.053-10.999-2.121-1.741-3.907-2.421-5.608-3.12-3.301-1.158-6.359-1.884-9.311-2.499l-16.752-3.352c-2.6-.602-5.115-1.27-7.321-2.081-1.948-.519-4.701-2.444-4.292-1.92-5.03-.434 6.889-6.044 15.483-9.178 2.284-1.009 4.555-2.026 6.881-3.462 2.282-1.509 4.634-2.789 7.17-7.013.498-.876.477-1.09.738-1.663l.29-.729c.629-2.246.283-1.64.429-2.614.297-2.356-.628-4.875-2.091-6.973-2.987-3.228-5.958-4.152-8.164-4.77-9.125-2.162-15.691-1.571-21.395-1.549l-17 .799-.417.019-.037.002a6.27 6.27 0 0 0-5.893 6.625c.019.338.178.621.248.941-4.899 1.35-12.65 2.73-20.319.923a2.07 2.07 0 0 0-2.515 1.551 2.086 2.086 0 0 0 1.552 2.515c3.013.711 6.002.989 8.852.989 6.054 0 11.225-1.232 14.757-2.314 1.139.845 2.524 1.378 4.05 1.289l17.18-1.005c5.118-.184 11.998-.455 17.673.879.469.073.721.219 1.032.351.044-.503-.916.914-2.417 1.643-1.457.94-3.352 1.84-5.324 2.736-4.032 1.828-8.648 3.398-13.763 6.15-2.47 1.458-5.523 2.938-8.06 7.269-1.186 2.007-1.748 5.251-1.125 7.538l.184.932.105.461.056.229c-.393-.815.598 1.377.519 1.179l.512.852c.455.649.384.918 1.474 2.051a24.057 24.057 0 0 0 2.882 2.644c.893.615 1.56.905 2.363 1.359 1.583.933 3.021 1.366 4.521 1.954 2.957 1.041 5.837 1.749 8.712 2.385l16.99 3.198a64.44 64.44 0 0 1 6.774 1.702c-2.679.966-6.43 1.94-9.665 2.563-11.767 2.483-24.244 3.985-36.935 8.442-3.176 1.209-6.43 2.654-9.621 5.097-3.005 2.277-6.162 6.817-5.758 11.805-1.076.15-2.313.371-3.308.481-10.766 1.425-15.29-.47-14.998-.525a2.954 2.954 0 0 0-3.007 5.088s1.846 1.253 5.14 1.975c3.278.742 7.89 1.081 13.506.639 1.547-.106 3.359-.337 5.06-.517 1.176 1.695 2.546 3.566 3.823 4.472 2.966 2.488 6.107 4.079 9.237 5.472 12.601 4.874 25.195 5.897 37.472 5.414 6.164-.463 12.231-1.182 18.461-3.961 2.904-1.355 6.891-3.488 8.122-9.659 0-.785.136-1.145.016-2.274zm-9.063 1.946c-.16-.912-.662 1.157-3.015 1.727-4.049 1.779-9.576 2.594-15.009 2.88-10.955.36-22.919-.919-33.178-5.079-1.613-.745-2.927-1.684-4.311-2.58.761-.117 1.42-.197 2.199-.32 7.623-1.214 15.568-2.645 24.695-2.795 8.692-.159 19.762-.039 27.111 3.617.854.46 1.227.939 1.51 1.228 0 0-.244-.292.028-.479.122.185-.029 1.225-.03 1.801zM185.937 340.835c-.243-1.442-.79-3.15-1.481-4.25-1.374-1.9-2.964-3.229-4.504-4.057-12.135-5.575-22.295-4.482-31.99-4.521-9.576.247-18.534 1.899-25.806 3.49-1.974.397-3.684.694-5.514 1.038.905-1.869 4.22-4.206 8.685-5.624 10.884-3.718 23.309-5.211 35.52-7.59 3.084-.604 6.211-1.312 9.411-2.223 1.724-.59 3.174-1.051 5.204-1.994a21.117 21.117 0 0 0 3.681-2.653c1.168-1.05 1.079-1.345 1.679-2.053 2.773-5.278.148-9.036-2.053-10.999-2.121-1.741-3.907-2.421-5.608-3.12-3.301-1.158-6.359-1.884-9.311-2.499l-16.752-3.352c-2.6-.602-5.115-1.27-7.321-2.081-1.948-.519-4.701-2.444-4.292-1.92-5.03-.434 6.889-6.044 15.483-9.178 2.284-1.009 4.555-2.026 6.881-3.462 2.282-1.509 4.634-2.789 7.17-7.013.498-.876.477-1.09.738-1.663l.29-.729c.629-2.246.283-1.64.429-2.614.297-2.356-.628-4.875-2.091-6.972-2.987-3.228-5.958-4.152-8.164-4.77-9.125-2.162-15.691-1.571-21.395-1.549l-17 .799-.417.019-.037.002a6.27 6.27 0 0 0-5.893 6.625c.019.338.178.621.248.941-4.899 1.35-12.65 2.73-20.319.923a2.07 2.07 0 0 0-2.515 1.551 2.086 2.086 0 0 0 1.551 2.515c3.013.711 6.002.988 8.852.988 6.054 0 11.225-1.232 14.757-2.314 1.139.845 2.524 1.378 4.05 1.289l17.18-1.005c5.118-.184 11.998-.455 17.673.879.469.073.722.219 1.032.351.044-.503-.916.914-2.417 1.643-1.457.94-3.352 1.84-5.324 2.736-4.032 1.828-8.648 3.398-13.763 6.15-2.47 1.458-5.523 2.938-8.06 7.269-1.186 2.007-1.748 5.251-1.125 7.538l.184.932.105.461.056.229c-.393-.815.598 1.377.519 1.179l.512.853c.455.649.384.918 1.474 2.051a24.149 24.149 0 0 0 2.882 2.645c.893.615 1.56.905 2.363 1.359 1.583.933 3.021 1.366 4.521 1.954 2.957 1.041 5.837 1.749 8.712 2.385l16.99 3.198a64.44 64.44 0 0 1 6.774 1.702c-2.679.966-6.43 1.94-9.665 2.563-11.767 2.483-24.244 3.985-36.935 8.442-3.176 1.209-6.43 2.654-9.621 5.097-3.005 2.277-6.162 6.817-5.758 11.805-1.076.15-2.313.371-3.308.481-10.765 1.425-15.29-.47-14.998-.526a2.954 2.954 0 0 0-3.007 5.088s1.846 1.253 5.14 1.975c3.278.742 7.89 1.081 13.506.639 1.547-.106 3.359-.337 5.06-.517 1.176 1.695 2.546 3.566 3.823 4.472 2.966 2.488 6.106 4.079 9.237 5.472 12.601 4.874 25.194 5.897 37.472 5.414 6.164-.463 12.231-1.182 18.461-3.961 2.904-1.355 6.891-3.488 8.122-9.659.003-.786.138-1.147.017-2.274zm-9.061 1.944c-.16-.912-.662 1.157-3.015 1.727-4.049 1.779-9.576 2.594-15.009 2.88-10.955.36-22.919-.919-33.178-5.079-1.613-.745-2.927-1.684-4.311-2.58.761-.117 1.42-.197 2.2-.32 7.623-1.214 15.568-2.645 24.695-2.795 8.692-.159 19.762-.039 27.111 3.617.854.46 1.227.939 1.51 1.228 0 0-.244-.292.028-.479.12.185-.031 1.227-.031 1.801zM448.692 340.835c-.243-1.442-.79-3.15-1.481-4.25-1.374-1.9-2.964-3.229-4.504-4.057-12.135-5.575-22.295-4.482-31.99-4.521-9.576.247-18.534 1.899-25.806 3.49-1.974.397-3.684.694-5.514 1.038.905-1.869 4.22-4.206 8.685-5.624 10.884-3.718 23.309-5.211 35.52-7.59 3.084-.604 6.211-1.312 9.411-2.223 1.724-.59 3.174-1.051 5.204-1.994a21.117 21.117 0 0 0 3.681-2.653c1.168-1.05 1.079-1.345 1.679-2.053 2.773-5.278.148-9.036-2.053-10.999-2.121-1.741-3.907-2.421-5.608-3.12-3.301-1.158-6.359-1.884-9.311-2.499l-16.752-3.352c-2.6-.602-5.115-1.27-7.321-2.081-1.948-.519-4.701-2.444-4.292-1.92-5.03-.434 6.889-6.044 15.483-9.178 2.284-1.009 4.555-2.026 6.881-3.462 2.282-1.509 4.634-2.789 7.17-7.013.498-.876.477-1.09.738-1.663l.29-.729c.629-2.246.283-1.64.429-2.614.297-2.356-.628-4.875-2.091-6.972-2.987-3.228-5.958-4.152-8.164-4.77-9.125-2.162-15.691-1.571-21.395-1.549l-17 .799-.417.019-.037.002a6.27 6.27 0 0 0-5.893 6.625c.019.338.178.621.248.941-4.899 1.35-12.65 2.73-20.319.923a2.07 2.07 0 0 0-2.515 1.551 2.086 2.086 0 0 0 1.552 2.515c3.013.711 6.002.988 8.852.988 6.054 0 11.225-1.232 14.757-2.314 1.139.845 2.524 1.378 4.05 1.289l17.18-1.005c5.118-.184 11.998-.455 17.673.879.469.073.721.219 1.032.351.044-.503-.916.914-2.417 1.643-1.457.94-3.352 1.84-5.324 2.736-4.032 1.828-8.648 3.398-13.763 6.15-2.47 1.458-5.523 2.938-8.06 7.269-1.186 2.007-1.748 5.251-1.125 7.538l.184.932.105.461.056.229c-.393-.815.598 1.377.519 1.179l.512.853c.455.649.384.918 1.474 2.051a24.149 24.149 0 0 0 2.882 2.645c.893.615 1.56.905 2.363 1.359 1.583.933 3.021 1.366 4.521 1.954 2.957 1.041 5.837 1.749 8.712 2.385l16.99 3.198a64.44 64.44 0 0 1 6.774 1.702c-2.679.966-6.43 1.94-9.665 2.563-11.767 2.483-24.244 3.985-36.935 8.442-3.176 1.209-6.43 2.654-9.621 5.097-3.005 2.277-6.162 6.817-5.758 11.805-1.076.15-2.313.371-3.308.481-10.766 1.425-15.29-.47-14.998-.526a2.954 2.954 0 0 0-3.007 5.088s1.846 1.253 5.14 1.975c3.278.742 7.89 1.081 13.506.639 1.547-.106 3.359-.337 5.06-.517 1.176 1.695 2.546 3.566 3.823 4.472 2.966 2.488 6.107 4.079 9.237 5.472 12.601 4.874 25.195 5.897 37.472 5.414 6.164-.463 12.231-1.182 18.461-3.961 2.904-1.355 6.891-3.488 8.122-9.659 0-.786.136-1.147.016-2.274zm-9.063 1.944c-.16-.912-.662 1.157-3.015 1.727-4.049 1.779-9.576 2.594-15.009 2.88-10.955.36-22.919-.919-33.178-5.079-1.613-.745-2.927-1.684-4.311-2.58.761-.117 1.42-.197 2.199-.32 7.623-1.214 15.568-2.645 24.695-2.795 8.692-.159 19.762-.039 27.111 3.617.854.46 1.227.939 1.51 1.228 0 0-.244-.292.028-.479.122.185-.029 1.227-.03 1.801z"/></g><path d="M19.203 489.087C8.598 489.087 0 480.49 0 469.884V41.958c0-10.519 8.527-19.045 19.045-19.045h.158c10.606 0 19.203 8.598 19.203 19.203v427.768c.001 10.606-8.597 19.203-19.203 19.203z" fill="#2e3033"/></svg>