<svg xmlns="http://www.w3.org/2000/svg" viewBox="0 0 512 512"><path d="M503.56 374.155H35.87a8.44 8.44 0 0 1-8.44-8.44V65.118a8.44 8.44 0 0 1 8.44-8.44h467.69a8.44 8.44 0 0 1 8.44 8.44v300.597a8.44 8.44 0 0 1-8.44 8.44z" fill="#ff4b55"/><path d="M35.87 56.677h225.405a8.44 8.44 0 0 1 8.44 8.44v141.858a8.44 8.44 0 0 1-8.44 8.44H35.87a8.44 8.44 0 0 1-8.44-8.44V65.118a8.44 8.44 0 0 1 8.44-8.441z" fill="#41479b"/><g fill="#f5f5f5"><path d="M118.668 136.047c0-8.254 3.345-15.727 8.752-21.138l-25.056-7.168c-1.455-.417-2.497 1.391-1.409 2.441l18.75 18.129-25.302 6.326c-1.468.367-1.468 2.453 0 2.819l25.302 6.326-18.748 18.129c-1.088 1.052-.044 2.858 1.409 2.441l25.056-7.168c-5.409-5.409-8.754-12.883-8.754-21.137zM127.434 114.895c5.411-5.408 12.885-8.752 21.138-8.752 8.254 0 15.727 3.345 21.138 8.752l7.168-25.056c.417-1.455-1.39-2.497-2.441-1.409l-18.129 18.75-6.326-25.302c-.367-1.468-2.453-1.468-2.82 0l-6.326 25.302-18.129-18.75c-1.052-1.088-2.858-.044-2.441 1.409l7.168 25.056zM169.711 157.198c-5.411 5.408-12.884 8.752-21.138 8.752s-15.727-3.345-21.138-8.752l-7.168 25.056c-.416 1.454 1.39 2.497 2.441 1.409l18.129-18.75 6.326 25.302c.367 1.468 2.453 1.468 2.82 0l6.326-25.302 18.129 18.75c1.052 1.088 2.858.044 2.441-1.409l-7.168-25.056zM202.742 134.637l-25.302-6.326 18.75-18.129c1.088-1.052.044-2.858-1.409-2.441l-25.056 7.168c5.408 5.411 8.752 12.884 8.752 21.138s-3.345 15.727-8.752 21.138l25.056 7.168c1.455.416 2.497-1.39 1.409-2.441l-18.75-18.129 25.302-6.326c1.469-.367 1.469-2.453 0-2.82z"/><path d="M172.263 133.618c1.492 15.059-11.061 27.611-26.12 26.12-11.144-1.104-20.157-10.117-21.26-21.26-1.492-15.059 11.061-27.612 26.12-26.12 11.143 1.102 20.157 10.116 21.26 21.26z"/></g><path d="M19.122 488.1C8.561 488.1 0 479.539 0 468.979V42.864C0 32.39 8.491 23.9 18.965 23.9h.157c10.561 0 19.122 8.561 19.122 19.122V468.98c0 10.559-8.561 19.12-19.122 19.12z" fill="#2e3033"/></svg>