<svg xmlns="http://www.w3.org/2000/svg" viewBox="0 0 512 512"><path d="M512 162H27V64.5c0-4.6 3.8-8.4 8.4-8.4h468.2c4.6 0 8.4 3.8 8.4 8.4V162z" fill="#464655"/><path d="M503.6 373.9H35.4c-4.6 0-8.4-3.8-8.4-8.4V268h485v97.5c0 4.6-3.8 8.4-8.4 8.4z" fill="#73af00"/><path fill="#f5f5f5" d="M27 162h485v105.9H27z"/><g fill="#ff4b55"><path d="M30.1 371.9l192.1-152.5c2.8-2.2 2.8-6.5 0-8.7L30.1 58.1c-1.8 1.5-3.1 3.8-3.1 6.3v301c0 2.7 1.2 4.9 3.1 6.5zM278 215c0-19.1 12.5-35.2 29.7-40.8 1-.3.9-1.8-.2-1.9-3.3-.3-6.7-.3-10.2.2-20.2 2.8-35.8 19.9-36.8 40.3-1.2 24.6 18.4 45 42.8 45 1.4 0 2.8-.1 4.2-.2 1-.1 1.2-1.6.2-1.9-17.3-5.5-29.7-21.6-29.7-40.7z"/><path d="M314.4 186.8l-5.6 16.9-17.8.1c-2.3 0-3.3 3-1.4 4.3l14.3 10.6-5.4 17c-.7 2.2 1.8 4 3.7 2.7l14.5-10.4 14.5 10.4c1.9 1.3 4.4-.5 3.7-2.7l-5.4-17 14.3-10.6c1.9-1.4.9-4.3-1.4-4.3l-17.8-.1-5.6-16.9c-.8-2.2-3.9-2.2-4.6 0z"/></g><path d="M18.9 485.2C8.5 485.2 0 476.7 0 466.3V45.5c0-10.3 8.4-18.7 18.7-18.7h.2c10.4 0 18.9 8.5 18.9 18.9v420.6c0 10.4-8.5 18.9-18.9 18.9z" fill="#2e3033"/></svg>