<svg xmlns="http://www.w3.org/2000/svg" viewBox="0 0 512.1 512.1"><path d="M503.6 373.9H35.4c-4.6 0-8.4-3.7-8.4-8.4v-301c0-4.6 3.7-8.4 8.4-8.4h468.3c4.6 0 8.4 3.7 8.4 8.4v301c-.1 4.6-3.8 8.4-8.5 8.4z" fill="#f5f5f5"/><path fill="#ff4b55" d="M512 181.6H302.9V56.1h-66.8v125.5H27v66.8h209.1v125.5h66.8V248.4H512z"/><g fill="#ffe15a"><path d="M369.8 240.1v-50.2l-12.5 12.6H181.7l-12.5-12.6v50.2l12.5-12.6h175.6z"/><path d="M244.4 315.3h50.2L282 302.8V127.2l12.6-12.5h-50.2l12.6 12.5v175.6z"/></g><path d="M19.2 489.1C8.6 489.1 0 480.5 0 469.9V42c0-10.5 8.5-19 19-19h.2c10.6 0 19.2 8.6 19.2 19.2V470c0 10.5-8.6 19.1-19.2 19.1z" fill="#2e3033"/></svg>