<svg xmlns="http://www.w3.org/2000/svg" viewBox="0 0 512 512"><g fill="#4173cd"><path d="M512 215.05H27V64.55c0-4.6 3.8-8.4 8.4-8.4h468.2c4.6 0 8.4 3.8 8.4 8.4v150.5zM27 215.05h485v150.5c0 4.6-3.8 8.4-8.4 8.4H35.4c-4.6 0-8.4-3.8-8.4-8.4v-150.5z"/></g><path fill="#ffe15a" d="M27 215.05h485v79.4H27z"/><path d="M35.4 373.95h468.2c4.6 0 8.4-3.8 8.4-8.4v-71H27v71c0 4.6 3.8 8.4 8.4 8.4z" fill="#73af00"/><g fill="#ffe15a"><path d="M461 141.25l34.2-5.7-34.2-5.7 29.5-18.3-33.8 7.9 20.2-28.2-28.2 20.2 7.9-33.8-18.3 29.5-5.7-34.2-5.7 34.2-18.3-29.5 7.9 33.8-28.2-20.2 20.2 28.2-33.8-7.9 29.5 18.3-34.2 5.7 34.2 5.7-29.5 18.3 33.8-7.9-20.2 28.2 28.2-20.2-7.9 33.8 18.3-29.5 5.7 34.2 5.7-34.2 18.3 29.5-7.9-33.8 28.2 20.2-20.2-28.2 33.8 7.9-29.5-18.3zm-28.4 15.3c-11.5 0-20.9-9.4-20.9-20.9s9.4-20.9 20.9-20.9 20.9 9.4 20.9 20.9-9.4 20.9-20.9 20.9z"/><path d="M448.1 133.55c1.3 10.3-7.3 18.9-17.6 17.6-7-.9-12.6-6.5-13.5-13.5-1.3-10.3 7.3-18.9 17.6-17.6 7 .9 12.6 6.5 13.5 13.5z"/></g><path d="M18.7 483.45c-10.3 0-18.7-8.3-18.7-18.7V47.15c0-10.3 8.3-18.6 18.6-18.6h.2c10.3 0 18.7 8.4 18.7 18.7v417.4c0 10.5-8.4 18.8-18.8 18.8z" fill="#2e3033"/></svg>