<svg xmlns="http://www.w3.org/2000/svg" viewBox="0 0 512 512"><path d="M512 162H27V64.5c0-4.6 3.8-8.4 8.4-8.4h468.2c4.6 0 8.4 3.8 8.4 8.4V162z" fill="#464655"/><path d="M503.6 373.9H35.4c-4.6 0-8.4-3.8-8.4-8.4V268h485v97.5c0 4.6-3.8 8.4-8.4 8.4z" fill="#73af00"/><path fill="#f5f5f5" d="M27 162h485v105.9H27z"/><path d="M30.1 371.9l192.1-152.5c2.8-2.2 2.8-6.5 0-8.7L30.1 58.1c-1.8 1.5-3.1 3.8-3.1 6.3v301c0 2.7 1.2 4.9 3.1 6.5z" fill="#ff4b55"/><path d="M19.3 490.5C8.7 490.5 0 481.9 0 471.2V40.6C0 30 8.6 21.5 19.2 21.5h.2c10.7 0 19.3 8.7 19.3 19.3v430.4c-.1 10.7-8.7 19.3-19.4 19.3z" fill="#2e3033"/></svg>