<svg xmlns="http://www.w3.org/2000/svg" viewBox="0 0 512 512"><path d="M503.5 373.8H35.4c-4.6 0-8.4-3.7-8.4-8.4V64.5c0-4.6 3.7-8.4 8.4-8.4h468.2c4.6 0 8.4 3.7 8.4 8.4v300.9c-.1 4.6-3.8 8.4-8.5 8.4z" fill="#41479b"/><path d="M259.8 56.1h-14l-74.9 49.1V56.1h-40.4v49.1L55.4 56.1h-14c-4.5 0-8.1 3.6-8.1 8.1v6.4l64.3 42.1H33.3v40.4h64.3l-64.3 42.1v6.4c0 4.5 3.6 8.1 8.1 8.1h14l74.9-49.1v49.1h40.4v-49.1l74.9 49.1h14c4.5 0 8.1-3.6 8.1-8.1v-6.4l-64.3-42.1h64.3v-40.4h-64.3l64.3-42.1v-6.4c.1-4.5-3.5-8.1-7.9-8.1z" fill="#f5f5f5"/><g fill="#ff4b55"><path d="M267.8 120.8H162.7V56.1h-24.2v64.7H33.4V145h105.1v64.7h24.2V145h105.1z"/><path d="M122.4 112.7L37.3 57.5c-2.3 1.4-3.9 3.8-3.9 6.7v.4l74.1 48.1h14.9zM185.6 112.7l81-52.6c-1.4-2.4-3.9-4.1-6.9-4.1H258l-87.2 56.6 14.8.1zM115.4 153.1l-80.8 52.5c1.4 2.4 3.9 4.2 6.9 4.2H43l87.2-56.6-14.8-.1zM267.7 202.2L192 153h-14.9l86 55.8c2.6-1.1 4.4-3.6 4.6-6.6z"/></g><path d="M337.8 306.1l-4-9.3 2 4.6-2-4.6c.8-.4 20.5-9.4 20.5-35.8h10.1c.1 33.3-25.5 44.6-26.6 45.1z" fill="#e67346"/><path d="M341.8 283.5l-7.1-7.1c13.7-13.7 20.7-17.4 21.5-17.8l4.5 9-2.3-4.5 2.3 4.5c-.1 0-6.5 3.4-18.9 15.9z" fill="#eb7d4b"/><path d="M441.6 306.1l4-9.3-2 4.6 2-4.6c-.8-.4-20.5-9.4-20.5-35.8H415c0 33.3 25.5 44.6 26.6 45.1z" fill="#e67346"/><path d="M437.7 283.5l7.1-7.1c-13.7-13.7-20.7-17.4-21.5-17.8l-4.5 9 2.3-4.5-2.3 4.5s6.4 3.4 18.9 15.9z" fill="#eb7d4b"/><path d="M389.7 129.8h-53.9v80.8c0 16.8 3.4 60.6 53.9 77.4 50.5-16.8 53.9-60.6 53.9-77.4v-80.8h-53.9z" fill="#4173cd"/><path d="M413.3 149.9h-28.9c-3.1 0-6-1-8.4-3l-11.3-9c-1.2-1-2.7-1.5-4.2-1.5h-1c-3.7 0-6.7 3-6.7 6.7h-5c-2.8 0-5 2.3-5 5 0 2.8 2.3 5 5 5h5c1.9 0 3.4 1.5 3.4 3.4v16.8c0 6.3 4.3 11.5 10.1 13v10.6h6.7l2.5-10.1h31.1l3.4 3.4v6.7h3.4v-10.1h3.4v10.1h3.4v-11c2-1.2 3.4-3.3 3.4-5.8v-20.2c-.2-5.5-4.8-10-10.3-10z" fill="#c8c8c8"/><path fill="#73af00" d="M352.7 193.7l6.7 20.2H420l6.7-20.2z"/><path d="M425.6 207.2c-9 0-9 6.7-18 6.7s-9-6.7-17.9-6.7c-9 0-9 6.7-17.9 6.7-9 0-9-6.7-17.9-6.7-9 0-9 6.7-17.9 6.7.1 3.8.4 8.3 1.3 13.4 7.7-.6 8.1-6.7 16.6-6.7 9 0 9 6.7 17.9 6.7 9 0 9-6.7 17.9-6.7 9 0 9 6.7 17.9 6.7 9 0 9-6.7 18-6.7 8.5 0 9 6.1 16.7 6.7.8-5.1 1.1-9.7 1.3-13.4-9 0-9-6.7-18-6.7z" fill="#f5f5f5"/><path d="M425.6 220.6c-9 0-9 6.7-18 6.7s-9-6.7-17.9-6.7c-9 0-9 6.7-17.9 6.7-9 0-9-6.7-17.9-6.7-8.5 0-9 6-16.6 6.7.7 4 1.6 8.4 3.1 12.8 4.9-1.7 6.3-6 13.5-6 9 0 9 6.7 17.9 6.7 9 0 9-6.7 17.9-6.7 9 0 9 6.7 17.9 6.7 9 0 9-6.7 18-6.7 7.2 0 8.7 4.3 13.6 6 1.4-4.5 2.4-8.8 3.1-12.8-7.7-.6-8.2-6.7-16.7-6.7z" fill="#4173cd"/><path d="M425.6 234.1c-9 0-9 6.7-18 6.7s-9-6.7-17.9-6.7c-9 0-9 6.7-17.9 6.7-9 0-9-6.7-17.9-6.7-7.2 0-8.6 4.3-13.5 6 1.2 3.6 2.6 7.2 4.5 10.9 2.3-1.7 4.5-3.4 9.1-3.4 9 0 9 6.7 17.9 6.7 9 0 9-6.7 17.9-6.7 9 0 9 6.7 17.9 6.7 9 0 9-6.7 18-6.7 4.6 0 6.8 1.7 9.1 3.5 1.8-3.6 3.3-7.3 4.5-10.9-5.1-1.8-6.5-6.1-13.7-6.1z" fill="#f5f5f5"/><path d="M425.6 247.6c-9 0-9 6.7-18 6.7s-9-6.7-17.9-6.7c-9 0-9 6.7-17.9 6.7-9 0-9-6.7-17.9-6.7-4.6 0-6.8 1.7-9.1 3.4 1.8 3.5 3.8 6.9 6.3 10.3.8-.2 1.7-.3 2.7-.3 9 0 9 6.7 17.9 6.7 9 0 9-6.7 17.9-6.7 9 0 9 6.7 17.9 6.7 9 0 9-6.7 18-6.7 1 0 1.9.1 2.8.3 2.5-3.4 4.6-6.8 6.3-10.3-2.2-1.7-4.4-3.4-9-3.4z" fill="#4173cd"/><path d="M428.3 261.3c-.8-.2-1.7-.3-2.8-.3-9 0-9 6.7-18 6.7s-9-6.7-17.9-6.7c-9 0-9 6.7-17.9 6.7-9 0-9-6.7-17.9-6.7-1 0-1.9.1-2.7.3 5.5 7.3 12.9 14.2 22.9 19.8 6.8-1 7.6-6.6 15.7-6.6 8.2 0 8.9 5.6 15.8 6.6 10-5.6 17.4-12.5 22.8-19.8z" fill="#f5f5f5"/><g fill="#ff965a"><path d="M388 207.2h3.4v57.2H388z"/><path d="M379.6 215.6h20.2v3.4h-20.2zM379.6 235.8h20.2v3.4h-20.2z"/></g><path fill="#ffe15a" d="M379.6 218.9h20.2v13.3h-20.2z"/><path fill="#ff4b55" d="M388 207.2v6.7l-10.1-3.4z"/><g fill="#ff965a"><path d="M410.5 207.2h3.4v39.6h-3.4z"/><path d="M402 215.6h20.2v3.4H402zM402 235.8h20.2v3.4H402z"/></g><path fill="#ffe15a" d="M402 218.9h20.2v13.3H402z"/><path fill="#ff4b55" d="M410.5 207.2v6.7l-10.1-3.4z"/><g fill="#ff965a"><path d="M365.4 207.2h3.4v39.3h-3.4z"/><path d="M357 215.6h20.2v3.4H357zM357 235.8h20.2v3.4H357z"/></g><path fill="#ffe15a" d="M357 218.9h20.2v13.3H357z"/><path fill="#ff4b55" d="M365.4 207.2v6.7l-10.1-3.4z"/><path d="M406.5 244.2c0 9.3-7.6 16.8-16.8 16.8-9.3 0-16.8-7.6-16.8-16.8H366.2l-22.8-5.1-.7 3.3 10.1 2.3v3l7.4 3c2.9 13.7 15.1 24 29.6 24 14.4 0 26.4-10.1 29.5-23.6h10.9V241l-23.7 3.2z" fill="#ff965a"/><path d="M443.6 129.8v80.8c0 16.8-3.4 60.6-53.9 77.4-50.5-16.8-53.9-60.6-53.9-77.4v-80.8h107.8m3.3-3.3H332.3v84.2c0 39.9 19.9 68.6 56.2 80.6l1.1.4 1.1-.4c36.2-12.1 56.2-40.7 56.2-80.6v-84.2z" fill="#f5f5f5"/><path d="M389.7 304.8c-24.8 0-47.8-8.3-61.5-22.2l9.6-9.5c11.2 11.4 30.6 18.2 51.9 18.2s40.6-6.8 51.9-18.2l9.6 9.5c-13.7 13.9-36.7 22.2-61.5 22.2z" fill="#ff965a"/><path d="M19.2 489C8.6 489 0 480.4 0 469.8V42c0-10.5 8.5-19 19-19h.2c10.6 0 19.2 8.6 19.2 19.2v427.7c0 10.5-8.6 19.1-19.2 19.1z" fill="#2e3033"/></svg>