<svg xmlns="http://www.w3.org/2000/svg" viewBox="0 0 512.1 512.1"><path d="M503.6 373.9H35.4c-4.6 0-8.4-3.7-8.4-8.4v-301c0-4.6 3.7-8.4 8.4-8.4h468.3c4.6 0 8.4 3.7 8.4 8.4v301c-.1 4.6-3.8 8.4-8.5 8.4z" fill="#f5f5f5"/><path fill="#4173cd" d="M405 247.2l3.1 10.7 10.6-31.5-29.4 15.5 11 1.3-35.3 41.5-.3-.9 28.2-58.4 5.7 9.6 2.3-33.2-24.6 22.5 11-1.6-28.2 58.4-.8.3 10.5-53.4 7.9 7.8-6.2-32.6-18 27.9 10.2-4.3-11.3 57.6-3.7 7.7-4 2.7-1.7 8.3-14 16.5 10.9-.9-1.9 10 3.8-2.6.4 4.7 6.6-7.8 6.1 9.1 4.2-21.2 5.5-6.5-.4-4.8 3.7-7.7z"/><path d="M151 215.9c1.2-5.4.5-10.4-1.6-13.6-3.2 1.9-6 6.2-7.2 11.6-.6 2.5-.7 4.9-.4 7.1l-6.6-9.8c2.7-2.2 5-5.9 6.1-10.7 1.2-5.4.5-10.4-1.6-13.6-3.2 1.9-6 6.2-7.2 11.6-.6 2.9-.7 5.6-.3 8.1l-4.5-6.7c.2-3.4-.8-7.5-3.3-11.4-3-4.7-7.1-7.7-10.7-8.5-.9 3.6.2 8.6 3.1 13.3 2.5 4 5.8 6.7 9 7.9l4.1 6.8c-2.1-1.4-4.6-2.5-7.4-3.1-5.4-1.2-10.4-.5-13.6 1.6 1.9 3.2 6.2 6 11.6 7.2 4.7 1.1 9.1.5 12.2-1l6.1 10.2c-1.9-1.1-4.1-2.1-6.6-2.6-5.4-1.2-10.4-.5-13.6 1.6 1.9 3.2 6.2 6 11.6 7.2 4.5 1 8.7.6 11.8-.8l5.6 9.3c-1.7-.9-3.7-1.7-5.9-2.2-5.4-1.2-10.4-.5-13.6 1.6 1.9 3.2 6.2 6 11.6 7.2 4.3 1 8.4.6 11.4-.6l5.4 9c-1.6-.8-3.2-1.4-5.1-1.9-5.4-1.2-10.4-.5-13.6 1.6 1.9 3.2 6.2 6 11.6 7.2 4.1.9 8 .7 11-.4l4.9 8.2c-1.4-.6-2.8-1.1-4.4-1.5-5.4-1.2-10.4-.5-13.6 1.6 1.9 3.2 6.2 6 11.6 7.2 3.9.9 7.7.7 10.6-.3l15.7 26.1 6.7-4.2-17-25.3c2.1-2.3 3.8-5.6 4.7-9.5 1.2-5.4.5-10.4-1.6-13.6-3.2 1.9-6 6.2-7.2 11.6-.4 1.6-.5 3.1-.5 4.6l-5.3-8c2.2-2.3 4.1-5.7 5-9.8 1.2-5.4.5-10.4-1.6-13.6-3.2 1.9-6 6.2-7.2 11.6-.4 1.9-.5 3.7-.5 5.4l-5.9-8.7c2.4-2.3 4.4-5.8 5.4-10.1 1.2-5.4.5-10.4-1.6-13.6-3.2 1.9-6 6.2-7.2 11.6-.5 2.2-.6 4.3-.5 6.3l-6.1-9.1c3-2 5.2-5.6 6.2-10.1z" fill="#73af00"/><g fill="#ffe15a"><path d="M219.3 215l-8.4-50.2h-1.3c-7.6 0-13-7.4-10.6-14.6v-.1c1.9-5.8-1.1-12-6.8-14L77.5 95.6c-6.5-2.3-12.6 4.2-9.9 10.6l12.4 29c3.6 8.4 9.8 15.3 17.7 19.8l31.9 18.2c9.5 5.4 20.3 8.3 31.2 8.3l2.9 5.7c8.5 17 25.9 27.7 44.9 27.7h10.7v.1zM319.7 215l8.4-50.2h1.3c7.6 0 13-7.4 10.6-14.6v-.1c-1.9-5.8 1.1-12 6.8-14l114.8-40.5c6.5-2.3 12.7 4.3 9.9 10.6l-12.4 29c-3.6 8.4-9.8 15.3-17.7 19.8l-31.9 18.2c-9.5 5.4-20.3 8.3-31.2 8.3l-2.9 5.7c-8.5 17-25.9 27.7-44.9 27.7h-10.8v.1zM302.9 156.5l-20.7-48.4c-2.6-6.1-8.7-10.1-15.4-10.1h-5.7l-8.4 8.4h-8.4l-8.4 8.4h11.7c3 0 5 3 3.8 5.7l-15.5 36.1h67v-.1zM244.4 240.1L227.7 215l-15.3 15.3c-6.4 6.4-11.3 14.3-14.1 22.9l-4 12-8.4 8.4H175c-3.6 0-6.9 2-8.5 5.2l-2.4 4.7c-1.6 3.1.7 6.8 4.2 6.8h17.5l5.6-11.1 26.7-13.3c.8-.4 1.5-.9 2.2-1.6l24.1-24.2zM294.6 240.1l16.7-25.1 15.3 15.3c6.4 6.4 11.3 14.3 14.1 22.9l4 12 8.4 8.4H364c3.6 0 6.9 2 8.5 5.2l2.4 4.7c1.6 3.1-.7 6.8-4.2 6.8h-17.5l-5.6-11.1-26.7-13.3c-.8-.4-1.5-.9-2.2-1.6l-24.1-24.2zM244.4 248.4l-20.3 33.9c-2.7 4.6-1.7 10.5 2.3 13.9l30.9 25.7c7.1 5.9 17.3 5.9 24.4 0l30.9-25.7c4.1-3.4 5.1-9.3 2.3-13.9l-20.3-33.9h-50.2z"/></g><path d="M269.5 148.1s-25.1 8.4-58.5 0v33.4c0 16.7 8.4 66.9 58.5 83.6 50.2-16.7 58.5-66.9 58.5-83.6v-33.4c-33.4 8.4-58.5 0-58.5 0z" fill="#f5f5f5"/><path d="M269.5 148.1s-25.1 8.4-58.5 0v33.4h117v-33.4c-33.4 8.4-58.5 0-58.5 0z" fill="#41479b"/><g fill="#ff4b55"><path d="M228.4 235v-53.5h-9.1v37.2c2.4 5.5 5.4 11 9.1 16.3zM246.7 181.6h-9.1v64.2c2.8 2.7 5.8 5.3 9.1 7.8v-72zM310.5 235c3.8-5.3 6.8-10.8 9.1-16.3v-37.2h-9.1V235zM264.9 181.6h-9.1v77.6c2.9 1.5 5.9 2.9 9.1 4.2v-81.8zM301.4 181.6h-9.1v72c3.3-2.4 6.4-5 9.1-7.8v-64.2zM283.2 259.2v-77.6h-9.1v81.8c3.2-1.3 6.2-2.7 9.1-4.2z"/></g><path fill="#73af00" d="M181.6 280.3l-6 3.7 10 16.6 6.7-4.3z"/><g fill="#4173cd"><path d="M366.7 292.4l-5.2-10.5h-9.6l-.5 2.5-3.7 7.7-4 2.7-1.7 8.3-14 16.5 10.9-.9-1.9 10 3.8-2.6.4 4.7 6.6-7.8 6.1 9.1 4.2-21.2 5.5-6.5-.4-4.8zM107 181.6H85.5l2 5.7-12.7 44.4-12.7-44.4 1.9-5.7H42.5l5.8 7.7L66 251l-2 5.8h21.5l-1.9-5.8 17.6-61.7zM471.4 186.9l3.6-5.3h-21.5l3.5 5.3v64.5l-3.5 5.4H475l-3.6-5.4z"/></g><path d="M19.2 489.1C8.6 489.1 0 480.5 0 469.9V42c0-10.5 8.5-19 19-19h.2c10.6 0 19.2 8.6 19.2 19.2V470c0 10.5-8.6 19.1-19.2 19.1z" fill="#2e3033"/></svg>