<svg xmlns="http://www.w3.org/2000/svg" viewBox="0 0 511.902 511.902"><path d="M503.6 373.851H35.4c-4.7 0-8.4-3.8-8.4-8.4v-300.9c0-4.7 3.8-8.4 8.4-8.4h468.1c4.7 0 8.4 3.8 8.4 8.4v300.9c.1 4.6-3.7 8.4-8.3 8.4z" fill="#ff4b55"/><g fill="#f5f5f5"><path d="M267.3 186.251l13.1 17.1 20.5-6.9c1.1-.4 2.1.9 1.4 1.9l-12.3 17.8 12.8 17.3c.7 1-.2 2.3-1.4 2l-20.7-6.2-12.4 17.7c-.7 1-2.2.5-2.3-.7l-.5-21.6-20.6-6.5c-1.2-.4-1.2-2 0-2.4l20.4-7.2-.2-21.6c0-1.1 1.5-1.6 2.2-.7zM194.8 281.851c-36.9 0-66.9-30-66.9-66.9s30-66.9 66.9-66.9c13.7 0 26.4 4.2 37 11.4 1.6 1.1 3.5-1 2.1-2.4-15.8-16.4-38.1-26.4-62.9-25.6-42.6 1.5-77.8 35.6-80.5 78.1-3.1 48.7 35.4 89.1 83.4 89.1 23.6 0 44.9-9.9 60.1-25.7 1.3-1.4-.5-3.5-2.1-2.4-10.6 7.1-23.3 11.3-37.1 11.3z"/></g><path d="M19.1 488.051c-10.5 0-19.1-8.6-19.1-19.1v-426.1c0-10.5 8.5-19 19-19h.2c10.6 0 19.1 8.6 19.1 19.1v426c-.1 10.5-8.6 19.1-19.2 19.1z" fill="#2e3033"/></svg>