<svg xmlns="http://www.w3.org/2000/svg" viewBox="0 0 512 512"><path d="M503.6 373.9H35.4c-4.6 0-8.4-3.8-8.4-8.4v-301c0-4.6 3.8-8.4 8.4-8.4h468.2c4.6 0 8.4 3.8 8.4 8.4v300.9c0 4.7-3.8 8.5-8.4 8.5z" fill="#ff4b55"/><g fill="#ffe15a"><path d="M273.1 224.5l-2.3 1.3c-4-5.7-3.8-19.7-3.8-19.9 0-.4-.2-.8-.6-1l-17.2-7.5.1-1.8c9 1 19.3 5.2 19.5 5.3.4.2.8.2 1.1-.1l14.3-11.9 3.1 2.7c-4.4 5.5-15.3 13-15.4 13.1-.4.2-.6.6-.6 1l1.8 18.8zM335.4 139.8c.4.2.8.1 1.1-.1l3.7-2.8-1.2 3.4c-.1.4 0 .8.3 1.1l1.8 1.6c-.5.9-.7 2-.7 3.1l-2.6 1.3c-.2.1-.4.3-.5.5l-1.9 4.7-1.1-3.9c-.1-.5-.6-.8-1.1-.8l-4.7.6 3.8-4.3c.2-.2.3-.5.2-.8l-.8-5.7 3.7 2.1zM293.1 293.1c-.3.2-.5.6-.5 1l.6 4.6-2.4-2.7c-.3-.3-.7-.4-1.1-.3l-2.2.8c-.5-.9-1.4-1.6-2.3-2.2l.1-2.9c0-.2-.1-.5-.2-.7l-3.2-4 3.9 1c.5.1 1-.1 1.2-.6l1.7-4.4 1.9 5.4c.1.3.3.5.6.6l5.4 2-3.5 2.4zM179.2 185.3c-.1-.4-.3-.7-.7-.8l-4.4-1.5 3.5-1c.4-.1.7-.5.8-.9l.3-2.3c1-.1 2-.5 3-1.1l2.6 1.4c.2.1.5.2.7.1l5-1.1-2.6 3.1c-.3.4-.3 1 0 1.4l3.2 3.5-5.7-.7c-.3 0-.6.1-.8.3l-4.2 3.9-.7-4.3z"/></g><g fill="#f5f5f5"><path d="M270.4 326.1c-2.5 5.1-8 9.3-9.4 9.6-.2 0-.5 0-.7-.2-.6-.7-.9-2.6-.1-5.1.1-.2.2-.6.3-1l9.9-3.3zM272.2 320.8c-.3 1-.6 2-.8 2.7l-10.1 3.4c.3-.9.6-1.9.9-3l10-3.1z"/></g><path d="M274.5 315.1c-.5 1.1-1 2.2-1.4 3.2l-10.3 3.2c.3-1.1.6-2.3.9-3.4l10.8-3z" fill="#ffe15a"/><g fill="#f5f5f5"><path d="M276.5 311c-.3.5-.6 1.1-.9 1.7l-11.3 3.1c.5-2 .9-3.9 1.2-5.5l11 .7zM279.7 306.7c-.7.6-1.3 1.4-1.9 2.3l-11.9-.9c.2-1.1.3-2 .3-2.7 0-.5 0-1-.1-1.6h1.4c3 0 5.1-.5 6.6-1.3 1.7 2.5 3.9 3.6 5.6 4.2zM282.1 305c-.7-.1-4.1-.4-6.3-3.7 1.1-1 1.7-2 1.9-2.7 1.2-3.5-7.4-8.9-12.7-11.8-2.5-1.4-4.4-4.1-6.2-7.2h.6c2.7 0 4.8-1.2 5.9-2.2 1 1.7 1.9 3.2 2.7 4.5 3.8 6.4 5.5 9.3 9.5 12.1.1.1.3.2.5.2 2 .2 7.6 1.5 7.9 4 .5 3.5-.8 5.6-3.8 6.8z"/><path d="M275.7 297.9c-.5 1.3-2.4 4.3-9.9 3.8-.7-4.3-2.6-7.4-5.6-8.8-3.9-1.9-18.7-12.4-25.4-18.7 1.3-4.2 4.8-7.7 9.8-9.5.7-.3 1.3-.5 1.9-.8 1.3 1.1 2.5 2.3 3.5 3.7 1.5 2.2 2.9 4.9 4.3 7.8 2.6 5.3 5.3 10.8 9.7 13.2 8.1 4.5 12.1 8.4 11.7 9.3z"/><path d="M264.1 275.7c-.8.8-3.4 2.6-6.6 1.7-.5-1-1-1.9-1.5-2.9-1.5-3-2.8-5.8-4.5-8.1-1-1.4-2.2-2.6-3.4-3.7 1.9-1.6 2.2-3.4 2.2-4.9 3.3 2.8 6.3 6.3 9.2 10.7 1.9 2.8 3.3 5.1 4.6 7.2zM248.5 256.3c0 .3-.1.7-.1 1.1-.1 1.4-.2 2.8-1.9 4-3.5-2.5-7.5-4.2-11-5.3 1.6-1.6 2.6-3.2 3.1-4.8 3.5 1 6.8 2.7 9.9 5zM244.5 262.5l-.6.3c-5.2 1.9-9 5.4-10.7 9.8-2-2-3.5-3.9-4.6-5.3-1.3-1.7-2.4-2.9-3.7-3.9 3.7-1.9 6.7-3.8 9-5.7h.1c3.1 1.1 7.1 2.5 10.5 4.8zM231.9 256.6c-2.2 1.7-5.2 3.6-9.5 5.7-1-.2-2-.5-2.8-.6-2-.4-3.4-.7-4.4-1.8-.6-.7-1.8-2.5-3-4.9.2.1.3.2.5.2 1.2.3 2.9-.2 5-1 2.6-.9 5.8-2 8.7-1.6 2.6.3 3.3 1.4 4.2 2.5.4.5.7 1.1 1.3 1.5z"/></g><path d="M236.8 250.4c-.3 1.3-1.2 2.9-3.3 4.9-.5-.3-.8-.8-1.2-1.3-.9-1.3-2.1-2.9-5.6-3.4-3.4-.5-6.8.7-9.7 1.7-1.6.5-3.2 1.1-3.9 1-.7-.2-1.6-1.3-1.7-2.4 0-1.3 1.1-1.9 2.1-2.2 2.2-.7 4.8-.2 7.3.3 2.6.5 5.1 1 7.1.2 1.4-.5 2.9-2.2 4.9-4.7 1.3.3 2.4.7 3.1 1.7 1 1.3 1.3 2.7.9 4.2z" fill="#ffe15a"/><g fill="#f5f5f5"><path d="M230.5 244.1c-1.3 1.6-2.4 2.7-3.2 3.1-1.4.6-3.6.2-5.9-.3-2.7-.5-5.7-1-8.3-.2-1.6.5-2.4 1.2-2.9 2-.5-2.3-.5-4.5.6-6.2 1-1.8 2.4-3.4 3.8-4.9 1.9.2 3.2.6 8 4.8 1.6 1.4 4.2 1.6 6.8 1.7.2-.1.7 0 1.1 0zM269 227c-4.6 3.1-25.4 16.7-29.7 18.5-.2.1-.4.2-.5.4l-.3.6c-.2-.5-.5-1-.8-1.5-.8-1.2-2.1-1.9-3.4-2.3.6-.8 1.2-1.6 1.9-2.5 3-4.1 6.4-8.7 10.4-12.8 6.8-7.1 15.8-11.7 18.8-13.1.4 4.2 1.4 9.4 3.6 12.7z"/><path d="M265.2 211.9c-2.2 1-12.4 5.8-20.1 13.9-4.1 4.2-7.7 9.1-10.5 13-.9 1.2-1.7 2.3-2.5 3.3-.9-.1-1.8-.2-2.7-.2-2.3-.2-4.4-.3-5.5-1.2-4-3.5-5.9-4.5-7.6-5l.5-.5c2.6-2.7 5.4-5.4 7.5-9.3 3.7-6.7 16.2-21.2 24.4-26.5l16.5 7.2c-.2 1-.2 3 0 5.3zM159.9 150.3c-3.4-4.5-4.8-11.3-4.4-12.7.1-.2.2-.4.5-.5.9-.2 2.7.4 4.6 2.2l.7.7-1.4 10.3zM163.8 154.3c-.7-.7-1.5-1.4-2.1-2l1.5-10.6c.7.7 1.4 1.4 2.3 2.1l-1.7 10.5z"/></g><path d="M167.9 158.9c-.8-.9-1.5-1.8-2.3-2.7l1.8-10.6 2.7 2.4-2.2 10.9z" fill="#ffe15a"/><g fill="#f5f5f5"><path d="M170.6 162.5c-.4-.5-.7-1-1.1-1.5l2.3-11.5c1.5 1.3 3 2.5 4.4 3.6l-5.6 9.4zM173.1 167.3c-.3-.9-.7-1.8-1.2-2.7l6.1-10.3c.9.6 1.7 1.2 2.3 1.5.5.2.9.4 1.4.6-.2.4-.5.8-.6 1.2-1.3 2.7-1.8 4.8-1.8 6.5-3 .5-5 1.9-6.2 3.2zM173.5 170.2c.4-.6 2.2-3.5 6.1-4 .4 1.4 1 2.4 1.6 2.9 2.6 2.7 11.3-2.7 16.3-6.1 2.3-1.6 5.6-2.2 9.2-2.3-.1.2-.2.3-.3.5-1.2 2.4-1 4.8-.7 6.3-1.9.1-3.7.3-5.3.4-7.4.5-10.8.8-15.1 3.1-.1.1-.3.2-.4.3-1.1 1.6-4.7 6.1-7.1 5.3-3.2-1.1-4.6-3.1-4.3-6.4z"/><path d="M182.7 167.7c-1-1-2.8-4 1-10.6 4.2 1.3 7.8 1 10.4-1.1 3.4-2.7 19.4-11.2 28.1-14.4 3.2 3.1 4.7 7.7 4.1 13-.1.8-.1 1.4-.1 2-1.6.7-3.2 1.2-4.8 1.5-2.6.4-5.7.4-8.9.3-5.9 0-12.1-.1-16.2 2.8-7.7 5.4-12.9 7.3-13.6 6.5z"/><path d="M207.8 167.3c-.4-1.1-.8-4.2 1.4-6.6h3.2c3.3 0 6.5.1 9.2-.4 1.7-.2 3.3-.8 4.8-1.4.6 2.4 2 3.4 3.3 4.2-4 1.7-8.5 2.8-13.7 3.4-3.1.3-5.8.5-8.2.8zM232 161.9l-.9-.6c-1.2-.7-2.4-1.4-2.8-3.5 3.8-2 7.1-4.8 9.6-7.4.7 2.1 1.7 3.8 2.9 4.9-2.3 2.7-5.3 4.9-8.8 6.6zM228.3 155.6v-.7c.6-5.5-.8-10.5-4-14 2.7-.9 5-1.4 6.8-1.8 2.1-.4 3.7-.8 5.1-1.6 0 4.2.4 7.7 1.1 10.6v.1c-2.3 2.5-5.4 5.3-9 7.4zM239.2 146.9c-.6-2.7-.9-6.3-.9-11 .7-.8 1.3-1.6 1.8-2.2 1.2-1.7 2.1-2.7 3.6-3.1.9-.3 3.1-.5 5.7-.5-.1.1-.3.2-.4.4-.8.9-1.1 2.7-1.4 4.9-.4 2.7-.9 6.1-2.5 8.5-1.5 2.2-2.7 2.4-4.1 2.6-.5 0-1.1.1-1.8.4z"/></g><path d="M242.6 154.1c-1-.9-2-2.4-2.9-5.1.5-.3 1.1-.4 1.7-.5 1.6-.2 3.5-.6 5.5-3.5 1.9-2.8 2.4-6.4 2.8-9.4.2-1.7.4-3.4.9-3.9.5-.6 1.9-.9 2.9-.4 1.2.5 1.2 1.8 1 2.8-.4 2.2-2 4.3-3.5 6.4-1.6 2.1-3.1 4.1-3.3 6.3-.1 1.5.7 3.6 2 6.4-.9 1.1-1.8 1.9-2.9 2-1.7.3-3.1-.1-4.2-1.1z" fill="#ffe15a"/><g fill="#f5f5f5"><path d="M251 151.3c-.8-1.9-1.4-3.4-1.3-4.3.1-1.5 1.5-3.3 2.9-5.2 1.6-2.2 3.5-4.6 3.9-7.3.3-1.6 0-2.7-.5-3.5 2.2.6 4.2 1.6 5.3 3.3 1.2 1.7 1.9 3.7 2.7 5.6-1.1 1.6-2 2.6-7.8 5-2 .8-3.3 3.1-4.5 5.3-.2.3-.4.7-.7 1.1zM249.1 193.4c-.7-5.5-3.6-30.1-3.3-34.8 0-.2-.1-.4-.1-.6-.1-.2-.2-.4-.4-.6.6.1 1.2 0 1.7-.1 1.4-.2 2.6-1 3.6-2.1.4.9.9 1.8 1.4 2.8 2.3 4.5 4.9 9.6 6.8 15 3.3 9.2 3.4 19.4 3.3 22.7-3.9-.7-8.6-1.7-13-2.3z"/><path d="M264.3 196.7c.1-2.4.3-13.7-3.4-24.2-2-5.5-4.7-10.9-6.9-15.3-.7-1.3-1.3-2.5-1.9-3.7.5-.8 1-1.6 1.4-2.3 1.2-2 2.2-3.8 3.6-4.4 4.9-2 6.7-3.2 7.9-4.6.1.2.2.4.2.6 1.2 3.5 2.5 7.2 5 10.9 4.3 6.3 11.8 24 12.8 33.6l-13.8 11.5c-.9-.4-2.7-1.2-4.9-2.1zM375.2 143.6c5.7-.3 12.1 2.5 12.9 3.5.2.2.2.4.1.7-.3.9-1.8 2.1-4.5 2.6-.3 0-.6.1-1 .2l-7.5-7zM369.7 144.6c1-.2 2-.4 2.8-.6l7.9 7.2c-.9.2-2 .4-3 .7l-7.7-7.3z"/></g><path d="M363.7 145.4c1.2-.1 2.4-.2 3.5-.4l7.8 7.5c-1.1.3-2.3.6-3.5.9l-7.8-8z" fill="#ffe15a"/><g fill="#f5f5f5"><path d="M359.1 145.6h1.9l8.2 8.4c-1.9.5-3.8 1.1-5.4 1.6l-4.7-10zM353.8 144.9c.9.3 1.9.4 3 .5l5 10.8c-1 .4-1.9.7-2.5 1.1-.5.3-.9.5-1.3.8-.2-.4-.4-.9-.6-1.2-1.5-2.6-2.9-4.2-4.4-5.2 1.2-2.6 1.1-5 .8-6.8zM351.1 143.6c.3.7 1.6 3.8-.1 7.3-1.4-.5-2.5-.5-3.3-.4-3.7.6-4.2 10.8-4.2 16.9 0 2.8-1.4 5.9-3.3 8.9-.1-.2-.1-.3-.2-.5-1.3-2.3-3.4-3.6-4.8-4.1 1-1.7 1.9-3.2 2.6-4.6 3.8-6.4 5.4-9.3 6-14.2 0-.1 0-.3-.1-.5-.7-1.8-2.4-7.4-.4-8.9 2.8-2 5.3-2 7.8.1z"/><path d="M348 152.6c1.4-.2 4.9 0 8.2 6.8-3.5 2.7-5.2 5.8-5 9.2.3 4.4-1.8 22.3-4 31.3-4.3.9-9-.5-13-3.9-.6-.5-1.1-.9-1.6-1.2.3-1.7.8-3.3 1.5-4.9 1.1-2.4 2.9-4.9 4.7-7.5 3.4-4.9 6.9-9.9 6.9-14.9-.1-9.4 1.3-14.8 2.3-14.9z"/><path d="M334.2 173.6c1.1.3 3.9 1.7 4.6 4.9l-1.8 2.7c-1.9 2.7-3.7 5.3-4.9 7.8-.7 1.5-1.2 3.1-1.5 4.8-2.3-.8-4-.3-5.3.4.9-4.2 2.5-8.6 4.9-13.2 1.5-2.9 2.8-5.3 4-7.4zM324.9 196.6c.3-.1.7-.3 1-.5 1.3-.6 2.5-1.2 4.4-.3-.5 4.3 0 8.6.7 12.2-2.2-.6-4.1-.7-5.7-.4-.9-3.5-1-7.1-.4-11zM332.2 197.1c.2.1.4.2.6.4 4.2 3.6 9.1 5.2 13.8 4.6-.8 2.8-1.7 4.9-2.4 6.6-.8 1.9-1.4 3.5-1.6 5.1-3.5-2.3-6.6-4-9.3-5.1v-.1c-.8-3.2-1.4-7.4-1.1-11.5zM333.2 211c2.5 1.1 5.7 2.8 9.6 5.5.3 1 .6 2 .8 2.8.7 2 1.1 3.3.5 4.7-.3.9-1.3 2.8-2.8 5 0-.2 0-.4-.1-.5-.3-1.2-1.6-2.4-3.3-3.9-2-1.9-4.5-4.1-5.6-6.9-1-2.4-.4-3.6.2-4.9.3-.5.6-1.1.7-1.8z"/></g><path d="M325.4 209.7c1.3-.3 3.1-.3 5.9.5 0 .6-.3 1.1-.6 1.7-.7 1.4-1.5 3.2-.2 6.5 1.2 3.2 3.9 5.6 6.1 7.6 1.2 1.1 2.6 2.3 2.7 2.9.2.7-.3 2-1.3 2.6-1.1.7-2.2-.1-2.9-.8-1.6-1.6-2.5-4.1-3.3-6.6s-1.6-4.9-3.3-6.3c-1.1-.9-3.4-1.5-6.5-2-.4-1.3-.5-2.5 0-3.5.7-1.3 1.9-2.2 3.4-2.6z" fill="#ffe15a"/><g fill="#f5f5f5"><path d="M322.9 218.3c2 .4 3.6.8 4.3 1.3 1.2 1 1.9 3.1 2.6 5.3.9 2.6 1.9 5.5 3.8 7.4 1.2 1.2 2.3 1.5 3.2 1.6-1.8 1.5-3.7 2.6-5.7 2.5-2.1 0-4.1-.5-6.1-1-.7-1.8-1-3.1.3-9.3.4-2.1-.7-4.5-1.8-6.7-.2-.3-.4-.7-.6-1.1zM289.3 192.9c4.9 2.6 26.9 14.1 30.5 17 .2.1.4.2.6.2h.7c-.4.4-.7.9-.9 1.5-.7 1.3-.6 2.7-.3 4.1-1-.2-2-.3-3.1-.4-5-.6-10.7-1.4-16.2-2.8-9.5-2.5-17.9-8.1-20.6-10.1 2.8-2.7 6.7-6.2 9.3-9.5z"/><path d="M278 203.6c1.9 1.4 11.1 8 21.9 10.9 5.7 1.5 11.7 2.3 16.5 2.9 1.4.2 2.8.4 4.1.6.4.8.7 1.7 1.1 2.5 1 2.1 1.9 4 1.6 5.4-1.1 5.2-1.1 7.3-.6 9.1-.2-.1-.4-.1-.7-.2-3.6-1-7.4-2-11.8-2.1-7.7 0-26.5-3.9-35-8.4l-1.7-17.9c.9-.5 2.6-1.5 4.6-2.8z"/></g><path d="M390.1 146.3c-.1-.2-.2-.3-.3-.5-1.6-2-11-5.6-17.7-3.9-7.2 1.8-17 2.3-19.4.2-3.1-2.8-6.6-2.9-10-.5l-1.4-1.2 2-5.9c.1-.3.1-.6-.1-.8l-.3-.3c-.4-.3-.9-.3-1.2 0l-5.9 4.4-5-2.5c-.3-.2-.8-.1-1.1.1-.3.2-.5.6-.4 1l1.1 7.2-5.3 6c-.3.3-.3.8-.1 1.2.2.3.6.6 1.1.5l6.5-.9 1.6 5.9c.1.4.5.7.9.8.4 0 .9-.2 1-.6l3-7.2 1.5-.8c.3 2 .9 3.8 1.2 4.5-.5 4.3-2.2 7.1-5.6 13.2-2 3.4-4.5 7.7-7.7 13.9-5.4 10.2-7.1 19.7-5.1 28.1-.6 0-1.5.1-2.4 0-5-3.7-30.5-16.9-31.6-17.5-.1 0-4.2-3.6-4.2-3.6-1.2-10.1-8.7-27.8-13.1-34.4-2.4-3.5-3.6-7-4.7-10.4-1.1-3.2-2.1-6.2-4-9-4.1-6.3-16.9-5.4-20-4.6-2.2.6-3.4 2.1-4.7 3.9-.5.7-1.2 1.5-1.9 2.3-1.3 1.4-3 1.8-5.9 2.4-2.2.5-5 1.1-8.7 2.3-8.6 3-25.6 12.1-29.3 15-3.6 2.8-8.8.9-11.6-.5-3.9-2-15.8-12.8-19-16-2.2-2.2-4.8-3.2-6.7-2.7-.8.2-1.4.7-1.8 1.4-.1.2-.2.3-.2.5-.7 2.4 1.6 12.2 6.8 16.8 5.6 4.9 11.5 12.7 11.2 15.9-.5 4.1 1.4 7 5.2 8.5l-.2 1.8-6.1 1.7c-.3.1-.5.3-.7.5-.1.1-.1.3-.1.4 0 .5.3.9.7 1l6.9 2.4.7 5.6c.1.4.3.7.7.8s.8 0 1.1-.2l5.3-5 8 1c.4.1.8-.2 1-.6.1-.3.1-.9-.2-1.2l-4.4-4.9 4-4.7c.3-.3.3-.8.1-1.2s-.7-.6-1.1-.5l-7.6 1.6-1.5-.8c1.5-1.4 2.6-2.9 3.1-3.5 3.8-2 7.1-2.2 14.1-2.8 4-.3 8.9-.7 15.8-1.5 11.5-1.4 20.3-5.3 26.1-11.6.4.5.9 1.2 1.4 2-.3 6.2 3.3 34.8 3.4 36 0 .1-.1 3.1-.1 3.1-8.5 5.6-20.9 20.1-24.9 27-2 3.7-4.6 6.3-7.2 8.9-2.3 2.4-4.6 4.6-6.3 7.6-3.8 6.5 2.7 17.5 4.8 19.9 1.5 1.7 3.4 2.1 5.6 2.5.9.2 1.8.4 2.9.7 1.8.5 2.9 1.9 4.7 4.2 1.4 1.8 3.2 4 6 6.7 6.6 6.3 22.3 17.5 26.5 19.5 4.1 2 4.7 7.5 4.7 10.6 0 4.4-4.4 19.9-5.8 24.2-1 3-.7 5.7.5 7.2.5.6 1.3 1 2 1h.5c2.5-.5 10.2-6.9 12-13.6 1.9-7.2 6.3-16 9.3-17.1 3.9-1.4 5.7-4.4 5.3-8.5l1.7-.6 4.2 4.7c.2.2.5.3.8.3.1 0 .3 0 .4-.1.4-.2.7-.6.6-1.1l-1-7.3 4.7-3.1c.3-.2.5-.6.5-1s-.3-.7-.7-.8l-6.8-2.6-2.7-7.6c-.1-.4-.5-.7-1-.7-.3.1-.8.3-1 .7l-2.4 6.2-6-1.5c-.4-.1-.9.1-1.1.4-.2.4-.2.9.1 1.2l4.8 6.1-.1 1.7c-1.9-.7-3.8-1-4.5-1.1-3.5-2.5-5.2-5.4-8.8-11.3-2-3.4-4.6-7.7-8.4-13.5-6.3-9.7-13.8-15.8-22.1-18.1.2-.5.7-1.3 1.2-2.1 5.6-2.5 29.6-18.5 30.7-19.1l3.2-1.9c9 4.7 27.8 8.5 35.8 8.6 4.2 0 7.8 1 11.2 2 3.2.9 6.3 1.7 9.6 1.8 7.5.2 14-10.9 15.1-13.8.8-2.1.2-4-.5-6.1-.3-.8-.6-1.8-.8-2.9-.5-1.8.2-3.5 1.4-6.2.9-2.1 2-4.7 3-8.5 2.3-8.8 4.5-28 4.2-32.6-.3-4.5 4.2-7.8 7-9.3 3.8-2.1 19.5-5.8 24-6.7 3.1-.6 5.4-2.1 6-4 .4-1 .3-1.8 0-2.5zm-49.7-.1l-2.6 1.3c-.2.1-.4.3-.5.5l-1.9 4.7-1.1-3.9c-.1-.5-.6-.8-1.1-.8l-4.7.6 3.8-4.3c.2-.2.3-.5.2-.8l-.8-5.7 3.8 1.9c.3.2.8.1 1.1-.1l3.7-2.8-1.2 3.4c-.1.4 0 .8.3 1.1l1.8 1.6c-.6 1-.8 2.1-.8 3.3zm-2.5 20.9c3.8-6.4 5.4-9.3 6-14.2 0-.1 0-.3-.1-.5-.7-1.8-2.4-7.4-.4-8.9 2.8-2.1 5.2-2 7.7.1.3.7 1.6 3.8-.1 7.3-1.4-.5-2.5-.5-3.3-.4-3.7.6-4.2 10.8-4.2 16.9 0 2.8-1.4 5.9-3.3 8.9-.1-.2-.1-.3-.2-.5-1.3-2.3-3.4-3.6-4.8-4.1 1-1.7 1.9-3.2 2.7-4.6zm-7.7 13.9c1.5-2.9 2.8-5.3 4-7.4 1.1.3 3.9 1.7 4.6 4.9l-1.8 2.7c-1.9 2.7-3.7 5.3-4.9 7.8-.7 1.5-1.2 3.1-1.5 4.8-2.3-.8-4-.3-5.3.4.9-4.3 2.5-8.7 4.9-13.2zm-5.3 15.6c.3-.1.7-.3 1-.5 1.3-.6 2.5-1.2 4.4-.3-.5 4.3 0 8.6.7 12.2-2.2-.6-4.1-.7-5.7-.4-.9-3.5-1-7.1-.4-11zm-4.5 13.5h.7c-.4.4-.7.9-.9 1.5-.6 1.3-.6 2.7-.3 4.1-1-.2-2-.3-3.1-.4-5-.6-10.7-1.4-16.2-2.8-9.5-2.5-17.9-8.1-20.6-10.1 2.6-2.5 6.4-5.4 9.4-9.4 4.9 2.6 26.9 14.1 30.5 17 .1 0 .3.1.5.1zm-47.3 14.4l-2.3 1.3c-4-5.7-3.8-19.7-3.8-19.9 0-.4-.2-.8-.6-1l-17.2-7.5.1-1.8c9 1 19.3 5.2 19.5 5.3.4.2.8.2 1.1-.1l14.3-11.9 3.1 2.7c-4.4 5.5-15.3 13-15.4 13.1-.4.2-.6.6-.6 1l1.8 18.8zm-8.2-82.3c.1.2.2.4.2.6 1.2 3.5 2.5 7.2 5 10.9 4.3 6.3 11.8 24 12.8 33.6l-13.8 11.5c-.9-.4-2.7-1.3-4.8-2.2.1-2.4.3-13.7-3.4-24.2-2-5.5-4.7-10.9-6.9-15.3-.7-1.3-1.3-2.5-1.9-3.7.5-.8 1-1.6 1.4-2.3 1.2-2 2.2-3.8 3.6-4.4 4.9-1.9 6.6-3.1 7.8-4.5zm-3.5-7.9c1.2 1.7 1.9 3.7 2.7 5.6-1.1 1.6-2 2.6-7.8 5-2 .8-3.3 3.1-4.5 5.3-.2.4-.5.7-.7 1.1-.8-1.9-1.4-3.4-1.3-4.3.1-1.5 1.5-3.3 2.9-5.2 1.6-2.2 3.5-4.6 3.9-7.3.3-1.6 0-2.7-.5-3.5 2.3.6 4.2 1.6 5.3 3.3zm-21.2-.6c1.2-1.7 2.1-2.7 3.6-3.1.9-.3 3.1-.5 5.7-.5-.1.1-.3.2-.4.4-.8.9-1.1 2.7-1.4 4.9-.4 2.7-.9 6.1-2.5 8.5-1.5 2.2-2.7 2.4-4.1 2.6-.6.1-1.3.2-1.9.5-.6-2.7-.9-6.3-.9-11 .7-.9 1.3-1.7 1.9-2.3zm-9 5.4c2.1-.4 3.7-.8 5.1-1.6 0 4.2.4 7.7 1.1 10.6v.1c-2.3 2.5-5.4 5.3-9 7.3v-.7c.6-5.5-.8-10.5-4-14 2.7-.8 4.9-1.3 6.8-1.7zM194.1 156c3.4-2.7 19.4-11.2 28.1-14.4 3.2 3.1 4.7 7.7 4.1 13-.1.8-.1 1.4-.1 2-1.6.7-3.2 1.2-4.8 1.5-2.6.4-5.7.4-8.9.3-5.9 0-12.1-.1-16.2 2.8-7.6 5.3-12.9 7.1-13.6 6.4-1-1-2.8-4 1-10.6 4.1 1.5 7.7 1.1 10.4-1zm-34.2-5.7c-3.4-4.5-4.8-11.3-4.4-12.7.1-.2.2-.4.5-.5.9-.2 2.7.4 4.6 2.2l.7.7-1.4 10.3zm3.9 4c-.7-.7-1.5-1.4-2.1-2l1.5-10.6c.7.7 1.4 1.4 2.3 2.1l-1.7 10.5zm1.8 1.9l1.8-10.6 2.7 2.4-2.2 10.9c-.8-1-1.6-1.9-2.3-2.7zm5 6.3c-.4-.5-.7-1-1.1-1.5l2.3-11.5c1.5 1.3 3 2.5 4.4 3.6l-5.6 9.4zm1.2 2.1l6.1-10.3c.9.6 1.7 1.2 2.3 1.5.5.2.9.4 1.4.6-.2.4-.5.8-.6 1.2-1.3 2.7-1.8 4.8-1.8 6.5-3 .4-5 1.9-6.2 3.2-.2-.9-.6-1.8-1.2-2.7zm12.4 14.5c.2.1.5.2.7.1l5-1.1-2.6 3.1c-.3.4-.3 1 0 1.4l3.2 3.5-5.7-.7c-.3 0-.6.1-.8.3l-4.2 3.9-.6-4.2c-.1-.4-.3-.7-.7-.8l-4.4-1.5 3.5-1c.4-.1.7-.5.8-.9l.3-2.3c1-.1 2-.5 3-1.1l2.5 1.3zm22.1-17.9c-1.2 2.4-1 4.8-.7 6.3-1.9.1-3.7.3-5.3.4-7.4.5-10.8.8-15.1 3.1-.1.1-.3.2-.4.3-1.1 1.6-4.7 6.1-7.1 5.3-3.2-1.1-4.6-3.2-4.3-6.4.4-.6 2.2-3.5 6.1-4 .4 1.4 1 2.4 1.6 2.9 2.6 2.7 11.3-2.7 16.3-6.1 2.3-1.6 5.6-2.2 9.2-2.3-.1.2-.2.3-.3.5zm9.8 5.2c-3.2.4-5.9.7-8.4.9-.4-1.1-.8-4.2 1.4-6.6h3.2c3.3 0 6.5.1 9.2-.4 1.7-.2 3.3-.8 4.8-1.4.6 2.4 2 3.4 3.3 4.2-3.8 1.5-8.3 2.7-13.5 3.3zm24.8-11c-2.4 2.6-5.4 4.8-8.8 6.5l-.9-.6c-1.2-.7-2.4-1.4-2.8-3.5 3.8-2 7.1-4.8 9.6-7.4.7 2.2 1.7 3.8 2.9 5zm1.7-1.3c-1-.9-2-2.4-2.9-5.1.5-.3 1.1-.4 1.7-.5 1.6-.2 3.5-.6 5.5-3.5 1.9-2.8 2.4-6.4 2.8-9.4.2-1.7.4-3.4.9-3.9.5-.6 1.9-.9 2.9-.4 1.2.5 1.2 1.8 1 2.8-.4 2.2-2 4.3-3.5 6.4-1.6 2.1-3.1 4.1-3.3 6.3-.1 1.5.7 3.6 2 6.4-.9 1.1-1.8 1.9-2.9 2-1.7.3-3.1-.1-4.2-1.1zm3.3 4.5c0-.2-.1-.4-.1-.6-.1-.2-.2-.4-.4-.6.6.1 1.2 0 1.7-.1 1.4-.2 2.6-1 3.6-2.1.4.9.9 1.8 1.4 2.8 2.3 4.5 4.9 9.6 6.8 15 3.3 9.2 3.4 19.4 3.3 22.7-4-.9-8.1-1.8-13.1-2.5-.6-5.3-3.5-29.9-3.2-34.6zm-29.3 76.6c2.6-2.7 5.4-5.4 7.5-9.3 3.7-6.7 16.2-21.2 24.4-26.5l16.5 7.2c0 1 0 2.9.2 5.3-2.2 1-12.4 5.8-20.1 13.9-4.1 4.2-7.7 9.1-10.5 13-.9 1.2-1.7 2.3-2.5 3.3-.9-.1-1.8-.2-2.7-.2-2.3-.2-4.4-.3-5.5-1.2-4-3.5-5.9-4.5-7.6-5 0-.1.1-.3.3-.5zm-6.5 13.4c-.5-2.3-.5-4.5.6-6.2 1-1.8 2.4-3.4 3.8-4.9 1.9.2 3.2.6 8 4.8 1.6 1.4 4.2 1.6 6.8 1.7.4 0 .9.1 1.3.1-1.3 1.6-2.4 2.7-3.2 3.1-1.4.6-3.6.2-5.9-.3-2.7-.5-5.7-1-8.3-.2-1.8.4-2.7 1.2-3.1 1.9zm3.5 0c2.2-.7 4.8-.2 7.3.3 2.6.5 5.1 1 7.1.2 1.4-.5 2.9-2.2 4.9-4.7 1.3.3 2.4.7 3.1 1.7 1 1.4 1.2 2.8.8 4.3-.3 1.3-1.2 2.9-3.3 4.9-.5-.3-.8-.8-1.2-1.3-.9-1.3-2.1-2.9-5.6-3.4-3.4-.5-6.8.7-9.7 1.7-1.6.5-3.2 1.1-3.9 1-.7-.2-1.6-1.3-1.7-2.4.1-1.4 1.2-2 2.2-2.3zm8.8 13.7c-1-.2-2-.5-2.8-.6-2-.4-3.4-.7-4.4-1.8-.6-.7-1.8-2.5-3-4.9.2.1.3.2.5.2 1.2.3 2.9-.2 5-1 2.6-.9 5.8-2 8.7-1.6 2.6.3 3.3 1.4 4.2 2.5.4.5.7 1 1.3 1.5-2.2 1.7-5.2 3.6-9.5 5.7zm6.1 5c-1.3-1.7-2.4-2.9-3.7-3.9 3.7-1.9 6.7-3.8 9-5.7h.1c3.2 1 7.2 2.5 10.6 4.8l-.6.3c-5.2 1.9-9 5.4-10.7 9.8-2.1-2-3.5-3.8-4.7-5.3zm31.7 25.6c-3.9-1.9-18.7-12.4-25.4-18.7 1.3-4.2 4.8-7.7 9.8-9.5.7-.3 1.3-.5 1.9-.8 1.3 1.1 2.5 2.3 3.5 3.7 1.5 2.2 2.9 4.9 4.3 7.8 2.6 5.3 5.3 10.8 9.7 13.2 8.1 4.5 12.2 8.3 11.8 9.3-.5 1.3-2.4 4.3-9.9 3.8-.7-4.3-2.7-7.3-5.7-8.8zm.8 42.7c-.2 0-.5 0-.7-.2-.6-.7-.9-2.6-.1-5.1.1-.2.2-.6.3-1l9.8-3.2c-2.4 5.1-7.9 9.3-9.3 9.5zm10.4-12.1l-10.1 3.4c.3-.9.6-1.9.9-3l10.1-3.1c-.4 1-.7 2-.9 2.7zm1.7-5.2l-10.3 3.2c.3-1.1.6-2.3.9-3.4l10.7-2.9c-.4 1-.9 2.1-1.3 3.1zm2.5-5.6l-11.3 3.1c.5-2 .9-3.9 1.2-5.5l11 .8c-.3.4-.6 1-.9 1.6zm2.2-3.7l-11.9-.9c.2-1.1.3-2 .3-2.7 0-.5 0-1-.1-1.6h1.4c3 0 5.1-.5 6.6-1.3 1.7 2.5 3.9 3.6 5.6 4.1-.7.7-1.3 1.5-1.9 2.4zm4-22.2l3.9 1c.5.1 1-.1 1.2-.6l1.7-4.4 1.9 5.4c.1.3.3.5.6.6l5.4 2-3.5 2.4c-.3.2-.5.6-.5 1l.6 4.6-2.4-2.7c-.3-.3-.7-.4-1.1-.3l-2.2.8c-.5-.9-1.4-1.6-2.3-2.2l.1-2.9c0-.2-.1-.5-.2-.7l-3.2-4zM268 282c3.8 6.4 5.5 9.3 9.5 12.1.1.1.3.2.5.2 2 .2 7.6 1.5 7.9 4 .5 3.4-.8 5.6-3.8 6.7-.7-.1-4.1-.4-6.3-3.7 1.1-1 1.7-2 1.9-2.7 1.2-3.5-7.4-8.9-12.7-11.8-2.5-1.4-4.4-4.1-6.2-7.2h.6c2.7 0 4.8-1.2 5.9-2.2.9 1.7 1.9 3.3 2.7 4.6zm-8.4-13.4c1.8 2.7 3.2 5 4.5 7.1-.8.8-3.4 2.6-6.6 1.7-.5-1-1-1.9-1.5-2.9-1.5-3-2.8-5.8-4.5-8.1-1-1.4-2.2-2.6-3.4-3.7 1.9-1.6 2.2-3.4 2.2-4.9 3.4 2.9 6.5 6.4 9.3 10.8zm-11.1-12.3c0 .3-.1.7-.1 1.1-.1 1.4-.2 2.8-1.9 4-3.5-2.5-7.5-4.2-11-5.3 1.6-1.6 2.6-3.2 3.1-4.8 3.5 1 6.8 2.7 9.9 5zm-9.2-10.9c-.2.1-.4.2-.5.4l-.3.6c-.2-.5-.5-1-.8-1.5-.8-1.2-2.1-1.9-3.4-2.3.6-.8 1.2-1.6 1.9-2.5 3-4.1 6.4-8.7 10.4-12.8 6.8-7.1 15.8-11.7 18.8-13.1.5 4.4 1.5 9.6 3.7 12.8-4.7 3-25.4 16.7-29.8 18.4zm83.9-19.6c-1.1 5.2-1.1 7.3-.6 9.1-.2-.1-.4-.1-.7-.2-3.6-1-7.4-2-11.8-2.1-7.7 0-26.5-3.9-35-8.4l-1.7-17.9c.9-.5 2.6-1.5 4.5-2.8 1.9 1.4 11.1 8 21.9 10.9 5.7 1.5 11.7 2.3 16.5 2.9 1.4.2 2.8.4 4.1.6.4.8.7 1.7 1.1 2.5 1.1 2 2 4 1.7 5.4zm7.9 10.7c-2.1 0-4.1-.5-6.1-1-.7-1.8-1-3.1.3-9.3.4-2.1-.7-4.5-1.8-6.7-.2-.4-.4-.8-.5-1.2 2 .4 3.6.8 4.3 1.3 1.2 1 1.9 3.1 2.6 5.3.9 2.6 1.9 5.5 3.8 7.4 1.2 1.2 2.3 1.5 3.2 1.6-1.9 1.6-3.8 2.6-5.8 2.6zm6.9-4.9c-1.1.7-2.2-.1-2.9-.8-1.6-1.6-2.5-4.1-3.3-6.6s-1.6-4.9-3.3-6.3c-1.1-.9-3.4-1.5-6.5-2-.4-1.3-.5-2.5 0-3.5.7-1.5 1.9-2.4 3.4-2.8 1.3-.3 3.1-.3 5.9.5 0 .6-.3 1.1-.6 1.7-.7 1.4-1.5 3.2-.2 6.5 1.2 3.2 3.9 5.6 6.1 7.6 1.2 1.1 2.6 2.3 2.7 2.9.2.9-.3 2.3-1.3 2.8zm6.1-7.6c-.3.9-1.3 2.8-2.8 5 0-.2 0-.4-.1-.5-.3-1.2-1.6-2.4-3.3-3.9-2-1.9-4.5-4.1-5.6-6.9-1-2.4-.4-3.6.2-4.9.3-.6.5-1.2.7-1.9 2.5 1.1 5.7 2.8 9.6 5.5.3 1 .6 2 .8 2.8.7 2 1.1 3.3.5 4.8zm.1-15.2c-.8 1.9-1.4 3.5-1.6 5.1-3.5-2.3-6.6-4-9.3-5.1v-.1c-.7-3.3-1.3-7.5-1-11.6.2.1.4.2.6.4 4.2 3.6 9.1 5.2 13.8 4.6-.9 2.8-1.8 4.9-2.5 6.7zm7-40.2c.3 4.4-1.8 22.3-4 31.3-4.3.9-9-.5-13-3.9-.6-.5-1.1-.9-1.6-1.2.3-1.7.8-3.3 1.5-4.9 1.1-2.4 2.9-4.9 4.7-7.5 3.4-4.9 6.9-9.9 6.9-14.9 0-9.3 1.4-14.7 2.4-14.8 1.4-.2 4.9 0 8.2 6.8-3.6 2.6-5.3 5.8-5.1 9.1zm8-11.2c-.5.3-.9.5-1.3.8-.2-.4-.4-.9-.6-1.2-1.5-2.6-2.9-4.2-4.4-5.2 1.4-2.7 1.3-5.2.9-6.9.9.3 1.9.4 3 .5l5 10.8c-1.1.5-2 .8-2.6 1.2zm4.5-1.8l-4.6-10h1.9l8.2 8.4c-2 .5-3.9 1-5.5 1.6zm7.8-2.2l-7.8-8c1.2-.1 2.4-.2 3.5-.4l7.8 7.5c-1.2.3-2.4.5-3.5.9zm5.9-1.5l-7.6-7.3c1-.2 2-.4 2.8-.6l7.9 7.2c-1.1.2-2.1.4-3.1.7zm6.4-1.5c-.3 0-.6.1-1 .2l-7.6-7c5.7-.3 12.1 2.5 12.9 3.5.2.2.2.4.1.7-.2 1-1.8 2.1-4.4 2.6z" fill="#464655"/><path d="M18.9 485.2C8.5 485.2 0 476.7 0 466.3V45.5c0-10.3 8.4-18.7 18.7-18.7h.2c10.4 0 18.9 8.5 18.9 18.9v420.6c0 10.4-8.5 18.9-18.9 18.9z" fill="#2e3033"/></svg>