<svg xmlns="http://www.w3.org/2000/svg" viewBox="0 0 512 512"><path d="M503.5 373.8H35.4c-4.6 0-8.4-3.7-8.4-8.4V64.5c0-4.6 3.7-8.4 8.4-8.4h468.2c4.6 0 8.4 3.7 8.4 8.4v300.9c-.1 4.6-3.8 8.4-8.5 8.4z" fill="#41479b"/><path d="M265 56.1h-14.5L173 106.8V56.1h-41.8v50.7L53.8 56.1H39.3c-4.6 0-8.4 3.7-8.4 8.4v6.6l66.5 43.5H31v41.8h66.5L31 199.9v6.6c0 4.6 3.7 8.4 8.4 8.4h14.5l77.5-50.7v50.7h41.8v-50.7l77.5 50.7h14.5c4.6 0 8.4-3.7 8.4-8.4v-6.6L207 156.4h66.5v-41.8H207l66.5-43.5v-6.6c-.1-4.6-3.8-8.4-8.5-8.4z" fill="#f5f5f5"/><g fill="#ff4b55"><path d="M273.4 123H164.8V56.1h-25.1V123H31v25h108.7v66.9h25.1V148h108.6z"/><path d="M123 114.7L35 57.5c-2.3 1.5-4 4-4 6.9v.4l76.6 49.7c0 .2 15.4.2 15.4.2zM188.5 114.7l83.7-54.3c-1.5-2.5-4-4.2-7.1-4.2h-1.8l-90.2 58.5h15.4zM115.8 156.4l-83.6 54.2c1.4 2.5 4 4.3 7.2 4.3H41l90.2-58.5h-15.4zM273.3 207.2L195 156.4h-15.4l88.9 57.7c2.7-1.2 4.5-3.8 4.8-6.9z"/></g><path d="M352.8 167.5c-1 0-1.8.8-1.8 1.8v31c0 62.1 43.8 73 43.8 73s43.8-11 43.8-73v-31c0-1-.8-1.8-1.8-1.8h-84z" fill="#ffe15a"/><path d="M434.1 172.1v28.3c0 52.8-32.6 66.1-39.3 68.3-6.7-2.2-39.3-15.5-39.3-68.3v-28.3h78.6m2.7-4.6h-84c-1 0-1.8.8-1.8 1.8v31c0 62.1 43.8 73 43.8 73s43.8-11 43.8-73v-31c.1-1-.8-1.8-1.8-1.8z" fill="#f5f5f5"/><path d="M399.7 225.4h-9.3s-7.5 7.5-9.3 24.1c-.1.5.2 1.1.6 1.4 1.6 1.2 6 4.1 13.4 4.1 7.3 0 11.8-2.9 13.4-4.1.4-.3.6-.9.6-1.4-1.8-16.6-9.4-24.1-9.4-24.1z" fill="#73af00"/><g fill="#ff4b55"><path d="M399.7 223.8h-9.3V216c0-2.6 2.1-4.7 4.7-4.7s4.7 2.1 4.7 4.7v7.8h-.1z"/><path d="M399.7 226.9h-9.3c-.9 0-1.6-.7-1.6-1.6 0-.9.7-1.6 1.6-1.6h9.3c.9 0 1.6.7 1.6 1.6 0 .9-.7 1.6-1.6 1.6z"/></g><path d="M430.9 192.5c-.3 0-4.3 0-8.6.7v-2.4c3.6-1.6 7.1-2.5 7.1-2.5.4-.1.7-.5.6-.9s-.5-.7-.9-.6c-.2.1-3.4.8-6.8 2.3-.1-.9-.4-1.8-.9-2.5 2.8-2.2 5.2-3.5 5.2-3.6.4-.2.5-.7.3-1.1s-.7-.5-1.1-.3c-.2.1-2.7 1.5-5.6 3.8-.7-.5-1.6-.8-2.6-.8s-1.9.3-2.7.9c.8-4 2.4-5.7 2.5-5.8.3-.3.3-.8 0-1.1s-.8-.3-1.1 0c-.1.1-1.6 1.7-2.6 5.2-1-3.5-2.5-5.1-2.6-5.2-.3-.3-.8-.3-1.1 0s-.3.8 0 1.1c0 0 1.7 1.8 2.5 5.8-.8-.5-1.7-.9-2.7-.9s-1.9.3-2.6.8c-2.9-2.3-5.4-3.7-5.6-3.8-.4-.2-.8-.1-1.1.3-.2.4-.1.8.3 1.1 0 0 2.4 1.4 5.2 3.6-.5.7-.8 1.6-.9 2.5-3.4-1.5-6.6-2.2-6.8-2.3-.4-.1-.8.2-.9.6-.1.4.2.8.6.9.1 0 3.6.9 7.1 2.5v2.4c-4.2-.7-8.3-.7-8.6-.7-.4 0-.8.3-.8.8 0 .4.3.8.8.8.1 0 4.3 0 8.6.8v2.5c-2.3-.1-4.9.3-7.4 1.5-.4.2-.5.7-.3 1 .1.3.4.4.7.4.1 0 .2 0 .3-.1 2.1-1.1 4.5-1.4 6.7-1.3v9.6c0 1.2-.1 2.4-.3 3.5l-1.2 6c-.1.4.2.8.6.9h.2c.4 0 .7-.3.8-.6l1.2-6c.3-1.3.4-2.5.4-3.8V199c1.2.1 2.2.3 3.1.6l.6 7.7c.1 1 .6 1.8 1.3 2.4l-2.5 3.8c-1.4 2 .1 4.7 2.5 4.7h4.2c2.4 0 3.9-2.7 2.5-4.7l-2.5-3.8c.7-.6 1.2-1.4 1.3-2.4l.6-7.7c.8-.2 1.9-.4 3.1-.6v9.5c0 1.3.1 2.6.4 3.8l1.2 6c.1.4.4.6.8.6h.2c.4-.1.7-.5.6-.9l-1.2-6c-.2-1.2-.3-2.3-.3-3.5v-9.6c2.1-.1 4.5.2 6.7 1.3.1.1.2.1.3.1.3 0 .6-.2.7-.4.2-.4 0-.9-.3-1-2.4-1.2-5-1.5-7.4-1.5v-2.5c4.2-.8 8.5-.8 8.6-.8.4 0 .8-.3.8-.8-.4-.5-.8-.8-1.2-.8zm-10.1 1c-.9.2-1.8.4-2.7.7 0-.3-.1-.6-.1-.9.9-.7 1.8-1.3 2.8-1.8v2zm0-4.1v.4c-1.2.6-2.4 1.3-3.5 2.1-.2-.3-.5-.6-.8-.8 1.2-1.3 2.5-2.5 3.7-3.5.3.5.6 1.1.6 1.8zm-3.2-3.1c.5 0 .9.1 1.3.3-1.3 1.1-2.7 2.4-3.9 3.8-.2 0-.3-.1-.5-.1v-.1-1c.2-1.7 1.5-2.9 3.1-2.9zm-7.7 0c1.6 0 3 1.3 3.1 2.9v1.1c-.2 0-.3.1-.5.1-1.2-1.4-2.6-2.7-3.9-3.8.4-.2.8-.3 1.3-.3zm-3.2 3.1c0-.7.2-1.3.6-1.8 1.3 1.1 2.6 2.3 3.7 3.5-.3.2-.6.5-.8.8-1.1-.8-2.3-1.5-3.5-2.1v-.4zm0 2.2c1 .5 2 1.1 2.8 1.8-.1.3-.1.6-.1.9-.9-.3-1.8-.5-2.7-.7v-2zm0 5.8v-2.3c1 .2 1.9.5 2.8.8l.2 2c-.9-.2-1.9-.3-3-.5zm14.1 0c-1.1.1-2.1.3-2.9.5l.2-2c.9-.3 1.8-.6 2.8-.8l-.1 2.3z" fill="#d35a10"/><path d="M381.7 213.5h-3.5l-13.4-11.9c-1.5-1.3-2.1-3.3-1.6-5.2l3.7-14.9c.3-1.3 2-1.8 2.9-.8l6 6c.3.3.8.5 1.2.5h4.5l.2 26.3z" fill="#ffa033"/><path d="M379.2 183.7l-2.1 9.7c-.4 1.8-.3 3.6.2 5.3l4.5 14.9h3.5l4.5-14.9c.5-1.7.6-3.5.2-5.3l-2.1-9.7c-.4-2-2.2-3.4-4.3-3.4-2.2 0-4 1.4-4.4 3.4z" fill="#ff9480"/><path d="M383.4 183.8c-1 0-1.7.8-1.7 1.7v28h3.5v-28c0-.9-.8-1.7-1.8-1.7z" fill="#ffa0e4"/><path d="M19.2 489C8.6 489 0 480.4 0 469.8V42c0-10.5 8.5-19 19-19h.2c10.6 0 19.2 8.6 19.2 19.2v427.7c0 10.5-8.6 19.1-19.2 19.1z" fill="#2e3033"/></svg>