<svg xmlns="http://www.w3.org/2000/svg" viewBox="0 0 512 512"><path d="M511.9 80.6v-16c0-4.6-3.7-8.4-8.4-8.4H35.4c-4.6 0-8.4 3.7-8.4 8.4v300.9c0 4.6 3.7 8.4 8.4 8.4H504.5c4.2-.4 7.5-4 7.5-8.4v-16h-.1V325h.1v-24.4h-.1V276h.1v-24.4h-.1v-24.4h.1v-24.4h-.1v-24.6h.1v-24.4h-.1v-24.5h.1v-24.4h-.1V80.6z" fill="#f5f5f5"/><g fill="#ff4b55"><path d="M511.9 64.6c0-4.6-3.7-8.4-8.4-8.4H35.4c-4.6 0-8.4 3.7-8.4 8.4v16h484.9v-16zM27 153.8h485v24.4H27zM27 105h485v24.4H27zM27 218.9c0 4.6 3.7 8.4 8.4 8.4H512v-24.4H27v16zM27 300.5h485v24.4H27zM27 365.5c0 4.6 3.7 8.4 8.4 8.4h468.2c4.6 0 8.4-3.8 8.4-8.4v-16H27v16zM27 251.6h485V276H27z"/></g><path d="M257.8 56H42.7c-4.7 0-8.6 3.9-8.6 8.6v158.8c0 4.7 3.8 8.6 8.6 8.6h215.1c4.7 0 8.6-3.8 8.6-8.6V64.6c0-4.8-3.9-8.6-8.6-8.6z" fill="#41479b"/><g fill="#f5f5f5"><path d="M58.3 75.7l1.9 5.7h6c.8 0 1.1 1 .5 1.5l-4.8 3.6 1.8 5.7c.2.7-.6 1.4-1.2.9l-4.9-3.5-4.9 3.5c-.6.5-1.5-.2-1.2-.9l1.8-5.7-5-3.6c-.6-.5-.3-1.5.5-1.5h6l1.9-5.7c.3-.7 1.3-.7 1.6 0zM58.3 105.6l1.9 5.7h6c.8 0 1.1 1 .5 1.5l-4.8 3.6 1.8 5.7c.2.7-.6 1.4-1.2.9l-4.9-3.5-4.9 3.5c-.6.5-1.5-.2-1.2-.9l1.8-5.7-4.8-3.6c-.6-.5-.3-1.5.5-1.5h6l1.9-5.7c.1-.8 1.1-.8 1.4 0zM58.3 135.5l1.9 5.7h6c.8 0 1.1 1 .5 1.5l-4.8 3.6 1.8 5.7c.2.7-.6 1.4-1.2.9l-4.9-3.5-4.9 3.5c-.6.5-1.5-.2-1.2-.9l1.8-5.7-4.8-3.6c-.6-.5-.3-1.5.5-1.5h6l1.9-5.7c.1-.7 1.1-.7 1.4 0zM58.3 165.4l1.9 5.7h6c.8 0 1.1 1 .5 1.5l-4.8 3.6 1.8 5.7c.2.7-.6 1.4-1.2.9l-4.9-3.5-4.9 3.5c-.6.5-1.5-.2-1.2-.9l1.8-5.7-4.8-3.6c-.6-.5-.3-1.5.5-1.5h6l1.9-5.7c.1-.8 1.1-.8 1.4 0zM58.3 195.2l1.9 5.7h6c.8 0 1.1 1 .5 1.5l-4.8 3.6 1.8 5.7c.2.7-.6 1.4-1.2.9l-4.9-3.5-4.9 3.5c-.6.5-1.5-.2-1.2-.9l1.8-5.7-4.8-3.6c-.6-.5-.3-1.5.5-1.5h6l1.9-5.7c.1-.7 1.1-.7 1.4 0zM81.5 90.4l1.9 5.7h6c.8 0 1.1 1 .5 1.5l-4.8 3.6 1.8 5.7c.2.7-.6 1.4-1.2.9l-4.9-3.5-4.9 3.5c-.6.5-1.5-.2-1.2-.9l1.8-5.7-4.8-3.6c-.6-.5-.3-1.5.5-1.5h6l1.9-5.7c.1-.8 1.1-.8 1.4 0zM81.5 120.2l1.9 5.7h6c.8 0 1.1 1 .5 1.5l-4.8 3.6 1.8 5.7c.2.7-.6 1.4-1.2.9l-4.9-3.5-4.9 3.5c-.6.5-1.5-.2-1.2-.9l1.8-5.7-4.8-3.6c-.6-.5-.3-1.5.5-1.5h6l1.9-5.7c.1-.7 1.1-.7 1.4 0zM81.5 150.2l1.9 5.7h6c.8 0 1.1 1 .5 1.5L85 161l1.8 5.7c.2.7-.6 1.4-1.2.9l-4.9-3.5-4.9 3.5c-.6.5-1.5-.2-1.2-.9l1.8-5.7-4.8-3.6c-.6-.5-.3-1.5.5-1.5h6l1.9-5.7c.2-.8 1.2-.8 1.5 0zM81.5 180l1.9 5.7h6c.8 0 1.1 1 .5 1.5l-4.8 3.6 1.8 5.7c.2.7-.6 1.4-1.2.9l-4.9-3.5-4.9 3.5c-.6.5-1.5-.2-1.2-.9l1.8-5.7-4.8-3.6c-.6-.5-.3-1.5.5-1.5h6l1.9-5.7c.1-.7 1.1-.7 1.4 0zM104.6 75.7l1.9 5.7h6c.8 0 1.1 1 .5 1.5l-4.8 3.6 1.8 5.7c.2.7-.6 1.4-1.2.9l-4.9-3.5-4.9 3.5c-.6.5-1.5-.2-1.2-.9l1.8-5.7-4.9-3.6c-.6-.5-.3-1.5.5-1.5h6l1.9-5.7c.2-.7 1.3-.7 1.5 0zM104.6 105.6l1.9 5.7h6c.8 0 1.1 1 .5 1.5l-4.8 3.6 1.8 5.7c.2.7-.6 1.4-1.2.9l-4.9-3.5L99 123c-.6.5-1.5-.2-1.2-.9l1.8-5.7-4.8-3.6c-.6-.5-.3-1.5.5-1.5h6l1.9-5.7c.1-.8 1.2-.8 1.4 0zM104.6 135.5l1.9 5.7h6c.8 0 1.1 1 .5 1.5l-4.8 3.6 1.8 5.7c.2.7-.6 1.4-1.2.9l-4.9-3.5L99 153c-.6.5-1.5-.2-1.2-.9l1.8-5.7-4.8-3.6c-.6-.5-.3-1.5.5-1.5h6l1.9-5.7c.1-.8 1.2-.8 1.4-.1zM104.6 165.4l1.9 5.7h6c.8 0 1.1 1 .5 1.5l-4.8 3.6 1.8 5.7c.2.7-.6 1.4-1.2.9l-4.9-3.5-4.9 3.5c-.6.5-1.5-.2-1.2-.9l1.8-5.7-4.8-3.6c-.6-.5-.3-1.5.5-1.5h6l1.9-5.7c.1-.8 1.2-.8 1.4 0zM104.6 195.2l1.9 5.7h6c.8 0 1.1 1 .5 1.5l-4.8 3.6 1.8 5.7c.2.7-.6 1.4-1.2.9l-4.9-3.5-4.9 3.5c-.6.5-1.5-.2-1.2-.9l1.8-5.7-4.8-3.6c-.6-.5-.3-1.5.5-1.5h6l1.9-5.7c.1-.7 1.2-.7 1.4 0zM127.8 90.4l1.9 5.7h6c.8 0 1.1 1 .5 1.5l-4.8 3.6 1.8 5.7c.2.7-.6 1.4-1.2.9l-4.9-3.5-4.9 3.5c-.6.5-1.5-.2-1.2-.9l1.8-5.7-4.8-3.6c-.6-.5-.3-1.5.5-1.5h6l1.9-5.7c.1-.8 1.2-.8 1.4 0zM127.8 120.2l1.9 5.7h6c.8 0 1.1 1 .5 1.5l-4.8 3.6 1.8 5.7c.2.7-.6 1.4-1.2.9l-4.9-3.5-4.9 3.5c-.6.5-1.5-.2-1.2-.9l1.8-5.7-4.8-3.6c-.6-.5-.3-1.5.5-1.5h6l1.9-5.7c.1-.7 1.2-.7 1.4 0zM127.8 150.2l1.9 5.7h6c.8 0 1.1 1 .5 1.5l-4.8 3.6 1.8 5.7c.2.7-.6 1.4-1.2.9l-4.9-3.5-4.9 3.5c-.6.5-1.5-.2-1.2-.9l1.8-5.7-4.8-3.6c-.6-.5-.3-1.5.5-1.5h6l1.9-5.7c.1-.8 1.2-.8 1.4 0zM127.8 180l1.9 5.7h6c.8 0 1.1 1 .5 1.5l-4.8 3.6 1.8 5.7c.2.7-.6 1.4-1.2.9l-5-3.4-4.9 3.5c-.6.5-1.5-.2-1.2-.9l1.8-5.7-4.8-3.6c-.6-.5-.3-1.5.5-1.5h6l1.9-5.7c.2-.8 1.3-.8 1.5-.1zM151.1 75.7l1.9 5.7h6c.8 0 1.1 1 .5 1.5l-4.8 3.6 1.8 5.7c.2.7-.6 1.4-1.2.9l-4.9-3.5-4.9 3.5c-.6.5-1.5-.2-1.2-.9l1.8-5.7-5-3.6c-.6-.5-.3-1.5.5-1.5h6l1.9-5.7c.3-.7 1.3-.7 1.6 0zM151.1 105.6l1.9 5.7h6c.8 0 1.1 1 .5 1.5l-4.8 3.6 1.8 5.7c.2.7-.6 1.4-1.2.9l-4.9-3.5-4.9 3.5c-.6.5-1.5-.2-1.2-.9l1.8-5.7-4.8-3.6c-.6-.5-.3-1.5.5-1.5h6l1.9-5.7c.1-.8 1.1-.8 1.4 0zM151.1 135.5l1.9 5.7h6c.8 0 1.1 1 .5 1.5l-4.8 3.6 1.8 5.7c.2.7-.6 1.4-1.2.9l-4.9-3.5-4.9 3.5c-.6.5-1.5-.2-1.2-.9l1.8-5.7-4.8-3.6c-.6-.5-.3-1.5.5-1.5h6l1.9-5.7c.1-.7 1.1-.7 1.4 0zM151.1 165.4l1.9 5.7h6c.8 0 1.1 1 .5 1.5l-4.8 3.6 1.8 5.7c.2.7-.6 1.4-1.2.9l-4.9-3.5-4.9 3.5c-.6.5-1.5-.2-1.2-.9l1.8-5.7-4.8-3.6c-.6-.5-.3-1.5.5-1.5h6l1.9-5.7c.1-.8 1.1-.8 1.4 0zM151.1 195.2l1.9 5.7h6c.8 0 1.1 1 .5 1.5l-4.8 3.6 1.8 5.7c.2.7-.6 1.4-1.2.9l-4.9-3.5-4.9 3.5c-.6.5-1.5-.2-1.2-.9l1.8-5.7-4.8-3.6c-.6-.5-.3-1.5.5-1.5h6l1.9-5.7c.1-.7 1.1-.7 1.4 0zM174.3 90.4l1.9 5.7h6c.8 0 1.1 1 .5 1.5l-4.8 3.6 1.8 5.7c.2.7-.6 1.4-1.2.9l-4.9-3.5-4.9 3.5c-.6.5-1.5-.2-1.2-.9l1.8-5.7-4.8-3.6c-.6-.5-.3-1.5.5-1.5h6l1.9-5.7c.1-.8 1.1-.8 1.4 0zM174.3 120.2l1.9 5.7h6c.8 0 1.1 1 .5 1.5l-4.8 3.6 1.8 5.7c.2.7-.6 1.4-1.2.9l-4.9-3.5-4.9 3.5c-.6.5-1.5-.2-1.2-.9l1.8-5.7-4.8-3.6c-.6-.5-.3-1.5.5-1.5h6l1.9-5.7c.1-.7 1.1-.7 1.4 0zM174.3 150.2l1.9 5.7h6c.8 0 1.1 1 .5 1.5l-4.8 3.6 1.8 5.7c.2.7-.6 1.4-1.2.9l-4.9-3.5-4.9 3.5c-.6.5-1.5-.2-1.2-.9l1.8-5.7-4.8-3.6c-.6-.5-.3-1.5.5-1.5h6l1.9-5.7c.1-.8 1.1-.8 1.4 0zM174.3 180l1.9 5.7h6c.8 0 1.1 1 .5 1.5l-4.8 3.6 1.8 5.7c.2.7-.6 1.4-1.2.9l-4.9-3.5-4.9 3.5c-.6.5-1.5-.2-1.2-.9l1.8-5.7-4.8-3.6c-.6-.5-.3-1.5.5-1.5h6l1.9-5.7c.1-.7 1.1-.7 1.4 0zM197.4 75.7l1.9 5.7h6c.8 0 1.1 1 .5 1.5l-4.8 3.6 1.8 5.7c.2.7-.6 1.4-1.2.9l-4.9-3.5-4.9 3.5c-.6.5-1.5-.2-1.2-.9l1.8-5.7-4.8-3.6c-.6-.5-.3-1.5.5-1.5h6l1.9-5.7c.1-.7 1.2-.7 1.4 0zM197.4 105.6l1.9 5.7h6c.8 0 1.1 1 .5 1.5l-4.8 3.6 1.8 5.7c.2.7-.6 1.4-1.2.9l-4.9-3.5-4.9 3.5c-.6.5-1.5-.2-1.2-.9l1.8-5.7-4.8-3.6c-.6-.5-.3-1.5.5-1.5h6l1.9-5.7c.1-.8 1.2-.8 1.4 0zM197.4 135.5l1.9 5.7h6c.8 0 1.1 1 .5 1.5l-4.8 3.6 1.8 5.7c.2.7-.6 1.4-1.2.9l-4.9-3.5-4.9 3.5c-.6.5-1.5-.2-1.2-.9l1.8-5.7-4.8-3.6c-.6-.5-.3-1.5.5-1.5h6l1.9-5.7c.1-.7 1.2-.7 1.4 0zM197.4 165.4l1.9 5.7h6c.8 0 1.1 1 .5 1.5l-4.8 3.6 1.8 5.7c.2.7-.6 1.4-1.2.9l-4.9-3.5-4.9 3.5c-.6.5-1.5-.2-1.2-.9l1.8-5.7-4.8-3.6c-.6-.5-.3-1.5.5-1.5h6l1.9-5.7c.1-.8 1.2-.8 1.4 0zM197.4 195.2l1.9 5.7h6c.8 0 1.1 1 .5 1.5L201 206l1.8 5.7c.2.7-.6 1.4-1.2.9l-4.9-3.5-4.9 3.5c-.6.5-1.5-.2-1.2-.9l1.8-5.7-4.8-3.6c-.6-.5-.3-1.5.5-1.5h6l1.9-5.7c.1-.7 1.2-.7 1.4 0zM220.6 90.4l1.9 5.7h6c.8 0 1.1 1 .5 1.5l-4.8 3.6 1.8 5.7c.2.7-.6 1.4-1.2.9l-4.9-3.5-4.9 3.5c-.6.5-1.5-.2-1.2-.9l1.8-5.7-4.8-3.6c-.6-.5-.3-1.5.5-1.5h6l1.9-5.7c.1-.8 1.2-.8 1.4 0zM220.6 120.2l1.9 5.7h6c.8 0 1.1 1 .5 1.5l-4.8 3.6 1.8 5.7c.2.7-.6 1.4-1.2.9l-4.9-3.5-4.9 3.5c-.6.5-1.5-.2-1.2-.9l1.8-5.7-4.8-3.6c-.6-.5-.3-1.5.5-1.5h6l1.9-5.7c.1-.7 1.2-.7 1.4 0zM220.6 150.2l1.9 5.7h6c.8 0 1.1 1 .5 1.5l-4.8 3.6 1.8 5.7c.2.7-.6 1.4-1.2.9l-4.9-3.5-4.9 3.5c-.6.5-1.5-.2-1.2-.9l1.8-5.7-4.8-3.6c-.6-.5-.3-1.5.5-1.5h6l1.9-5.7c.1-.8 1.2-.8 1.4 0zM220.6 180l1.9 5.7h6c.8 0 1.1 1 .5 1.5l-4.8 3.6 1.8 5.7c.2.7-.6 1.4-1.2.9l-4.9-3.5-4.9 3.5c-.6.5-1.5-.2-1.2-.9l1.8-5.7-4.8-3.6c-.6-.5-.3-1.5.5-1.5h6l1.9-5.7c.1-.7 1.2-.7 1.4 0zM243.8 75.7l1.9 5.7h6c.8 0 1.1 1 .5 1.5l-4.8 3.6 1.8 5.7c.2.7-.6 1.4-1.2.9l-4.9-3.5-4.9 3.5c-.6.5-1.5-.2-1.2-.9l1.8-5.7-4.8-3.6c-.6-.5-.3-1.5.5-1.5h6l1.9-5.7c.1-.7 1.1-.7 1.4 0zM243.8 105.6l1.9 5.7h6c.8 0 1.1 1 .5 1.5l-4.8 3.6 1.8 5.7c.2.7-.6 1.4-1.2.9l-4.9-3.5-4.9 3.5c-.6.5-1.5-.2-1.2-.9l1.8-5.7-4.8-3.6c-.6-.5-.3-1.5.5-1.5h6l1.9-5.7c.1-.8 1.1-.8 1.4 0zM243.8 135.5l1.9 5.7h6c.8 0 1.1 1 .5 1.5l-4.8 3.6 1.8 5.7c.2.7-.6 1.4-1.2.9l-4.9-3.5-5 3.6c-.6.5-1.5-.2-1.2-.9l1.8-5.7-4.8-3.6c-.6-.5-.3-1.5.5-1.5h6l1.9-5.7c.2-.8 1.2-.8 1.5-.1zM243.8 165.4l1.9 5.7h6c.8 0 1.1 1 .5 1.5l-4.8 3.6 1.8 5.7c.2.7-.6 1.4-1.2.9l-4.9-3.5-4.9 3.5c-.6.5-1.5-.2-1.2-.9l1.8-5.7-4.8-3.6c-.6-.5-.3-1.5.5-1.5h6l1.9-5.7c.1-.8 1.1-.8 1.4 0zM243.8 195.2l1.9 5.7h6c.8 0 1.1 1 .5 1.5l-4.8 3.6 1.8 5.7c.2.7-.6 1.4-1.2.9l-4.9-3.5-4.9 3.5c-.6.5-1.5-.2-1.2-.9l1.8-5.7-4.8-3.6c-.6-.5-.3-1.5.5-1.5h6l1.9-5.7c.1-.7 1.1-.7 1.4 0z"/></g><path d="M18.9 485.3C8.5 485.3 0 476.8 0 466.4v-421c0-10.3 8.4-18.7 18.7-18.7h.2c10.4 0 18.9 8.5 18.9 18.9v420.8c0 10.4-8.5 18.9-18.9 18.9z" fill="#2e3033"/></svg>