<svg xmlns="http://www.w3.org/2000/svg" viewBox="0 0 512.002 512.002"><path d="M189.8 373.901H35.4c-4.6 0-8.4-3.8-8.4-8.4v-301c0-4.6 3.8-8.4 8.4-8.4h154.2v317.9h.2v-.1z" fill="#73af00"/><path fill="#ffe15a" d="M189.8 56.1h161.7V374H189.8z"/><path d="M503.7 373.901H351.4v-317.8h152.2c4.6 0 8.4 3.8 8.4 8.4v301c.1 4.6-3.7 8.4-8.3 8.4z" fill="#ff4b55"/><path d="M272.5 167.401l11.1 33.2 35 .3c2 0 2.8 2.5 1.2 3.7l-28.2 20.8 10.6 33.4c.6 1.9-1.5 3.4-3.1 2.3l-28.5-20.4-28.5 20.3c-1.6 1.1-3.7-.4-3.1-2.3l10.6-33.4-28.2-20.8c-1.6-1.2-.8-3.7 1.2-3.7l35-.3 11.1-33.2c.6-1.7 3.2-1.7 3.8.1z" fill="#73af00"/><path d="M18.9 485.201c-10.4 0-18.9-8.5-18.9-18.9v-420.8c0-10.3 8.4-18.7 18.7-18.7h.2c10.4 0 18.9 8.5 18.9 18.9v420.7c0 10.3-8.5 18.8-18.9 18.8z" fill="#2e3033"/></svg>