<svg xmlns="http://www.w3.org/2000/svg" viewBox="0 0 512.001 512.001"><path d="M503.524 374.658H28.87a8.476 8.476 0 0 1-8.476-8.476V61.047a8.476 8.476 0 0 1 8.476-8.476h474.655a8.476 8.476 0 0 1 8.476 8.476v305.135a8.477 8.477 0 0 1-8.477 8.476z" fill="#73af00"/><path fill="#ff4b55" d="M88.2 52.57h84.76v322.09H88.2z"/><path fill="#f5f5f5" d="M164.486 89.301l-16.952 14.126H113.63L96.678 89.301V75.173l16.952-14.126h33.904l16.952 14.126z"/><g fill="#73af00"><path d="M164.486 207.964l-16.952 14.126H113.63l-16.952-14.126v-14.127l16.952-14.126h33.904l16.952 14.126zM164.486 148.632l-16.952 14.127H113.63l-16.952-14.127v-14.127l16.952-14.126h33.904l16.952 14.126zM164.486 267.296l-16.952 14.126H113.63l-16.952-14.126V253.17l16.952-14.128h33.904l16.952 14.128z"/></g><g fill="#ffb400"><path d="M88.202 94.951l16.952 16.952-16.952 16.952zM172.962 128.855l-16.952-16.952 16.952-16.952zM88.202 154.283l16.952 16.952-16.952 16.951zM172.962 188.186l-16.952-16.951 16.952-16.952zM88.202 213.614l16.952 16.952-16.952 16.952zM172.962 247.518l-16.952-16.952 16.952-16.952zM88.202 272.946l16.952 16.952-16.952 16.952zM172.962 306.85l-16.952-16.952 16.952-16.952zM88.202 52.571h16.952L88.202 69.523zM172.962 69.523L156.01 52.571h16.952zM126.34 120.38h8.476v42.38h-8.476z"/></g><path fill="#ff4b55" d="M113.63 137.33h33.904v8.476H113.63z"/><g fill="#ffb400"><path d="M156.01 127.442l-8.476-7.063v42.38l8.476-7.064zM105.154 155.695l8.476 7.064V120.38l-8.476 7.062zM130.582 61.047H113.63L96.678 75.173v7.064h33.904zM130.582 103.427h16.951l16.953-14.126v-7.064h-33.904z"/></g><path fill="#ff4b55" d="M130.582 94.951L113.63 82.287l16.952-12.764 16.952 12.764z"/><g fill="#73af00"><path d="M130.582 94.951l16.952-12.664-.067-.05h-16.885zM130.582 82.237V69.523l-16.887 12.714z"/></g><path fill="#ff4b55" d="M113.63 188.19h33.904v25.428H113.63z"/><path fill="#ffb400" d="M147.53 196.66h8.476v8.476h-8.476z"/><path fill="#f5f5f5" d="M126.34 196.66h8.476v8.476h-8.476z"/><path fill="#ff4b55" d="M126.34 247.52h8.476v8.476h-8.476z"/><g fill="#ffb400"><path d="M139.06 256h8.476v8.476h-8.476zM113.63 256h8.476v8.476h-8.476z"/></g><path fill="#ff4b55" d="M126.34 264.47h8.476v8.476h-8.476z"/><path fill="#ffb400" d="M105.16 196.66h8.476v8.476h-8.476z"/><path fill="#f5f5f5" d="M164.486 326.628l-16.952 14.126H113.63l-16.952-14.126v-14.127l16.952-14.127h33.904l16.952 14.127z"/><g fill="#ffb400"><path d="M130.582 298.374H113.63L96.678 312.5v7.064h33.904zM130.582 340.754h16.951l16.953-14.126v-7.064h-33.904z"/></g><path fill="#ff4b55" d="M147.534 323.802l-16.952 8.476-16.952-8.476v-8.476l16.952-8.476 16.952 8.476z"/><g fill="#f5f5f5"><path d="M289.251 98.724c-.903-.444-1.72.731-.987 1.421 9.592 9.051 15.654 21.763 15.654 35.942 0 27.852-22.387 50.197-49.915 50.197-5.081 0-9.975-.793-14.591-2.236-.957-.299-1.575.984-.752 1.556 8.048 5.595 17.749 8.939 28.338 8.939 27.892 0 50.684-22.348 50.684-50.603-.001-19.858-11.656-36.97-28.431-45.216zM220.274 131.426l-2.073 5.865 4.878 3.861c.631.5.264 1.516-.541 1.495l-6.219-.16-2.165 5.833c-.281.755-1.36.719-1.589-.053l-1.769-5.964-6.216-.256c-.805-.033-1.104-1.071-.441-1.528l5.126-3.526-1.677-5.991c-.217-.776.678-1.382 1.317-.891l4.937 3.785 5.18-3.447c.669-.446 1.521.219 1.252.977zM245.465 144.149l-2.073 5.865 4.878 3.861c.631.5.264 1.516-.541 1.495l-6.219-.16-2.166 5.834c-.281.755-1.36.719-1.589-.053l-1.769-5.964-6.216-.256c-.805-.033-1.104-1.071-.441-1.528l5.126-3.526-1.677-5.991c-.217-.776.678-1.382 1.317-.891l4.937 3.785 5.18-3.447c.668-.447 1.521.217 1.253.976zM245.211 117.941l-2.073 5.865 4.878 3.861c.631.5.264 1.516-.541 1.495l-6.219-.16-2.165 5.833c-.281.755-1.36.719-1.589-.053l-1.769-5.964-6.216-.256c-.805-.033-1.104-1.071-.441-1.528l5.126-3.526-1.677-5.991c-.217-.776.678-1.382 1.317-.891l4.937 3.785 5.18-3.447c.667-.446 1.52.217 1.252.977zM246.068 92.645l-2.073 5.865 4.878 3.861c.631.5.264 1.516-.541 1.495l-6.219-.16-2.165 5.833c-.281.755-1.36.719-1.589-.053l-1.769-5.964-6.216-.256c-.805-.033-1.104-1.071-.441-1.528l5.126-3.526-1.677-5.991c-.217-.776.678-1.382 1.317-.891l4.937 3.785 5.18-3.447c.668-.447 1.521.218 1.252.977zM270.749 105.368l-2.073 5.865 4.878 3.861c.631.5.264 1.516-.541 1.495l-6.219-.16-2.165 5.833c-.281.755-1.36.719-1.589-.053l-1.769-5.964-6.216-.256c-.805-.033-1.104-1.071-.441-1.528l5.126-3.526-1.677-5.991c-.217-.776.678-1.382 1.317-.891l4.937 3.785 5.18-3.447c.668-.447 1.521.217 1.252.977z"/></g><path d="M19.203 489.089C8.598 489.089 0 480.492 0 469.886V41.957c0-10.519 8.527-19.045 19.045-19.045h.158c10.606 0 19.203 8.598 19.203 19.203v427.771c.001 10.606-8.597 19.203-19.203 19.203z" fill="#2e3033"/></svg>