<svg xmlns="http://www.w3.org/2000/svg" viewBox="0 0 512 512"><path d="M512 215H27V64.6c0-4.7 3.8-8.4 8.4-8.4h468.1c4.7 0 8.4 3.8 8.4 8.4L512 215z" fill="#ff4b55"/><g fill="#f5f5f5"><path d="M27 215h485v150.4c0 4.7-3.8 8.4-8.4 8.4H35.4c-4.7 0-8.4-3.8-8.4-8.4V215zM95.7 135.7c0-27.5 20.2-50.3 46.5-54.5 1.4-.2 1.5-2.2.1-2.5-6.5-1.5-13.5-1.9-20.6-.9-28.4 3.9-50.4 28.5-50.8 57.1-.5 32.7 25.9 59.4 58.5 59.4 4.4 0 8.7-.5 12.9-1.5 1.4-.3 1.3-2.3-.1-2.5-26.3-4.3-46.5-27-46.5-54.6z"/><path d="M142.7 150.4l-2.5 7.4-7.8.1c-1 0-1.4 1.3-.6 1.9l6.3 4.6-2.4 7.5c-.3 1 .8 1.8 1.6 1.2l6.4-4.6 6.4 4.6c.8.6 1.9-.2 1.6-1.2l-2.4-7.5 6.3-4.6c.8-.6.4-1.9-.6-1.9l-7.8-.1-2.5-7.4c-.3-1-1.7-1-2 0zM181.4 150.4l-2.5 7.4-7.8.1c-1 0-1.4 1.3-.6 1.9l6.3 4.6-2.4 7.5c-.3 1 .8 1.8 1.6 1.2l6.4-4.6 6.4 4.6c.8.6 1.9-.2 1.6-1.2l-2.4-7.5 6.3-4.6c.8-.6.4-1.9-.6-1.9l-7.8-.1-2.5-7.4c-.3-1-1.7-1-2 0zM162.2 90.7l-2.5 7.4-7.8.1c-1 0-1.4 1.3-.6 1.9l6.3 4.6-2.4 7.5c-.3 1 .8 1.8 1.6 1.2l6.4-4.6 6.4 4.6c.8.6 1.9-.2 1.6-1.2l-2.4-7.5 6.3-4.6c.8-.6.4-1.9-.6-1.9l-7.8-.1-2.5-7.4c-.3-1-1.7-1-2 0zM131.4 113.6l-2.5 7.4-7.8.1c-1 0-1.4 1.3-.6 1.9l6.3 4.6-2.4 7.5c-.3 1 .8 1.8 1.6 1.2l6.4-4.6 6.4 4.6c.8.6 1.9-.2 1.6-1.2l-2.4-7.5 6.3-4.6c.8-.6.4-1.9-.6-1.9l-7.8-.1-2.5-7.4c-.3-1-1.7-1-2 0zM192.8 113.6l-2.5 7.4-7.8.1c-1 0-1.4 1.3-.6 1.9l6.3 4.6-2.4 7.5c-.3 1 .8 1.8 1.6 1.2l6.4-4.6 6.4 4.6c.8.6 1.9-.2 1.6-1.2l-2.4-7.5 6.3-4.6c.8-.6.4-1.9-.6-1.9l-7.8-.1-2.5-7.4c-.3-1-1.7-1-2 0z"/></g><path d="M19.1 488.1C8.6 488.1 0 479.5 0 469V42.9c0-10.5 8.5-19 19-19h.2c10.6 0 19.1 8.6 19.1 19.1v426c-.1 10.5-8.6 19.1-19.2 19.1z" fill="#2e3033"/></svg>