<svg xmlns="http://www.w3.org/2000/svg" viewBox="0 0 512 512"><path d="M503.6 373.9H35.4c-4.6 0-8.4-3.8-8.4-8.4v-301c0-4.6 3.8-8.4 8.4-8.4h468.2c4.6 0 8.4 3.8 8.4 8.4v300.9c0 4.7-3.8 8.5-8.4 8.5z" fill="#ff4b55"/><g fill="#ffe15a"><path d="M240.8 184.7L119 56.1H35.4c-2 0-3.8.8-5.3 2l204.5 134c1.8-2.7 3.9-5.2 6.2-7.4zM228.1 219.3c-.1-1.4-.4-2.8-.4-4.3s.3-2.9.4-4.3L27 189.9v50.2l201.1-20.8zM263 173.8c2.1-.3 4.3-.7 6.5-.7s4.4.3 6.5.7l18.6-117.7h-50.2L263 173.8zM304.4 192.1l204.5-134c-1.4-1.2-3.2-2-5.3-2H420L298.2 184.7c2.3 2.2 4.4 4.7 6.2 7.4zM298.2 245.3L420 373.9h83.6c2 0 3.8-.8 5.3-2l-204.5-134c-1.8 2.7-3.9 5.2-6.2 7.4zM310.9 210.7c.1 1.4.4 2.8.4 4.3s-.3 2.9-.4 4.3L512 240.1v-50.2l-201.1 20.8zM276 256.2c-2.1.3-4.3.7-6.5.7s-4.4-.3-6.5-.7l-18.6 117.7h50.2L276 256.2zM234.6 237.9l-204.5 134c1.4 1.2 3.2 2 5.3 2H119l121.8-128.6c-2.3-2.2-4.4-4.7-6.2-7.4zM302.9 212.8c1.3 20.2-15.4 36.8-35.6 35.6-16.6-1.1-30.2-14.6-31.2-31.2-1.3-20.2 15.4-36.8 35.6-35.6 16.6 1.1 30.1 14.6 31.2 31.2z"/></g><path d="M18.9 485.2C8.5 485.2 0 476.7 0 466.3V45.5c0-10.3 8.4-18.7 18.7-18.7h.2c10.4 0 18.9 8.5 18.9 18.9v420.6c0 10.4-8.5 18.9-18.9 18.9z" fill="#2e3033"/></svg>