<svg xmlns="http://www.w3.org/2000/svg" viewBox="0 0 512.1 512.1"><path fill="#c8414b" d="M48.7 72.9h451.6v284.3H48.7z"/><path d="M503.6 56.2H35.4c-4.6 0-8.4 3.7-8.4 8.4v301c0 4.6 3.7 8.4 8.4 8.4h468.3c4.6 0 8.4-3.7 8.4-8.4v-301c-.1-4.6-3.8-8.4-8.5-8.4zm-3.3 301.1H48.7V72.9h451.6v284.4z" fill="#e6b432"/><path d="M355.7 265.9c1 8.3-6 15.3-14.3 14.3-5.7-.7-10.3-5.3-11-11-1-8.3 6-15.3 14.3-14.3 5.7.7 10.3 5.3 11 11z" fill="#41479b"/><g fill="#e6b432"><path d="M365.4 194.5c-9.4 7.9-15.7 8.2-15.7 8.2 16.7-6.8 14.9-19.7 14.9-19.7-7.9 10.4-15.9 13.3-15.9 13.3 16.7-11.4 14.1-26.6 14.1-26.6-5.5 12.1-12.4 16.8-12.4 16.8 13.9-18.5 7.1-30.5 7.1-30.5-5.5 17.2-10.1 22.1-10.1 22.1 10.7-28.6 1.5-36.8 1.5-36.8 0 15.3-5.7 24.1-5.7 24.1 6-20.2-3.4-31.8-3.4-31.8s-.1 16.5-3.3 25.1c-.8-1.2-1.2-1-1.2-1-1.6 10.6-7.3 18-9.8 20.9-.5-2.6-2.2-3.4-2.2-3.4s-.3 2.6-2.6 6.4c-1.5 2.5-8.7 8.3-9.9 13.5-.9 4.1 3.1 7.5 4.5 8.4 1.3.8 2.7 2.3 2.2 4.7s-4.9 2.2-8 2.1c-3.1-.1-3.5 5-6.9 4.8l-.6 3.8-1.3.3s-13.9 27.7-15.1 37.2l-10.3 1.4-10.3-1.4c-1.2-9.4-15.1-37.2-15.1-37.2l-1.3-.3-.6-3.8c-3.4.2-3.8-4.9-6.9-4.8-3.1.1-7.4.3-8-2.1-.6-2.4.8-3.9 2.2-4.7 1.3-.8 5.4-4.3 4.5-8.4-1.2-5.1-8.4-11-9.9-13.5-2.3-3.8-2.6-6.4-2.6-6.4s-1.6.8-2.2 3.4c-2.5-2.8-8.1-10.3-9.8-20.9 0 0-.5-.2-1.2 1-3.2-8.6-3.3-25.1-3.3-25.1s-9.4 11.6-3.4 31.8c0 0-5.7-8.8-5.7-24.1 0 0-9.2 8.2 1.5 36.8 0 0-4.6-5-10.1-22.1 0 0-6.8 11.9 7.1 30.5 0 0-6.9-4.7-12.4-16.8 0 0-2.7 15.2 14.1 26.6 0 0-8-2.9-15.9-13.3 0 0-1.7 12.9 14.9 19.7 0 0-6.3-.3-15.7-8.2 0 0-1.7 11.4 20.1 17.3 0 0-8.9-.2-17.9-6.2 0 0-.2 11.3 18.3 13.5 0 0-6.1.9-13-1.6 0 0 .2 9.1 16.4 10.3 0 0-6.4.5-10.5-.5 0 0 .4 9.4 13.2 7.8 0 0-4.3 1.4-5.7 1.8 0 0 .2 7.6 13.5 4.9 0 0-2.4 1.5-5.6 2 0 0 2.7 6.4 13.8 3.6l-2.3 2.5s8.6 5 15.2-1.9l-2.4 4.2s5.6 2.1 9.1-3.4c0 0-1 8.2-12.6 9.7 0 0 .4 1.7.9 2.4 0 0-.7 1.4-7.5 2.6 0 0 1.4 2.2 2.9 2.8 0 0-2.9 2.5-4.5 3 0 0 2.5 1.2 4.1 1.5 0 0-3.5 3.4-7.8 3.5s-12-.4-12-.4-.1-4.1-2.1-7.7-2.7-3.8-2.7-3.8.4-2.9-.8-4c-1.2-1.2-1.9-1.7-1.9-1.7s.7-5.7-1.2-9.3-8.3-11.4-8.6-17.2-.1-8-.1-8l-2 .5-1.3-2.7 2.2-.2-.9-4.1-3.1 1.2-.4-3.6-3.6 1.5 1.8 3.2-3.2.9 1.9 3.8 2.5-1.6.7 3.3s-1.5.3-2.3 1.7c0 0 4.1 2.7 5.3 6 1.9 5.1 1.3 16.7 4.1 20.2 2.7 3.5 4.9 5.9 4.9 5.9s-.8 2.4.1 3.7c.9 1.3 2.1 1.7 2.1 1.7s-.7 5.3 1.2 8.8 3 4.4 3 4.4-7 4.3-2.1 9.3c0 0-.7 4.5 4.1 5.6 0 0 .2 3.6 4.3 3.1 0 0 2-.6 2.5.4s0 6.7 0 6.7 1.8-.2 3-1l3.6 1.8.1-4.1 4.6-1.8s-2 .3-6-3.5c0 0 .7-.4 1.2-3.6 0 0 3.2-2.6 3.9-4.6.7-2.1 5.2-6.6 10.5-8.1l.7 3.2s7.6-6.7 10.8-7.1l2.6 3.4s9.8-14.5 14.1-17.1c-.3 1.2 2.1 1.3-3.3 7.3-5.3 6-2 10.7-2 10.7-3.3 2.7-2.7 5.2-3.1 8s-11.4 10.1-11.4 10.1c3.5 4.4 7.4 3.4 7.4 3.4-2.2 1.4-1.5 6.1-1.5 6.1 3.1.8 6.3-.6 6.3-.6-1.1 3 .6 5.1.6 5.1 2-1.2 6.5-2 6.5-2-.6 5.1 2.7 7.9 2.7 7.9l2.9-3.1c.5 5.8 5.6 9.1 5.6 9.1s5.1-3.3 5.6-9.1l2.9 3.1s3.3-2.7 2.7-7.9c0 0 4.6.7 6.5 2 0 0 1.7-2.1.6-5.1 0 0 3.1 1.4 6.3.6 0 0 .7-4.7-1.5-6.1 0 0 3.9 1 7.4-3.4 0 0-11-7.3-11.4-10.1-.4-2.8.2-5.3-3.1-8 0 0 3.3-4.7-2-10.7s-2.9-6.1-3.3-7.3c4.3 2.6 14.1 17.1 14.1 17.1l2.6-3.4c3.2.4 10.8 7.1 10.8 7.1l.7-3.2.1-.1c4 2.1 10.5 5 13.1 7 2.8 2.2 5.1 2.3 11.9 0s19.4-5.9 17.6-10.1l-.3-.6c.3-1.1.4-3-1.6-4.7v1.1l-6.5-2.4c-.2-.6-.5-1.1-1.2-1.6 0 0 0 .5-.1 1.2l-1.7-.6 3.3-9.3c-.3-.1-.5-.2-.8-.3.1-.8.2-2 .5-3.2.8.3 1.5.6 2.1 1.1l.9-3.4s-1-.1-2.3-.3c.3-1 .7-2 1.2-2.6l-4.4-1.3s.1 1.3 0 3c-.8-.3-1.6-.8-2.3-1.3l-1 3.8c.4 0 1.6.1 2.9.4-.3 1.1-.7 2.1-1.3 2.8-.2 0-.3-.1-.5-.1l-3.2 9.1-8.7-3.3c-.4.6-.7 1.2-.9 1.9 0-.1.1-.2.1-.3 0 0-3.4 1.8-3.3 4.4-.6.2-1.2.7-1.5 1.5-1 2.6 5.1 8.5 3.6 9.2s-9.1-5.6-10.3-6.6c1.6-.3 3.9-1.5 3.9-1.5-1.6-.5-4.5-3-4.5-3 1.5-.7 2.9-2.8 2.9-2.8-6.7-1.2-7.5-2.6-7.5-2.6.5-.7.9-2.4.9-2.4-11.6-1.5-12.6-9.7-12.6-9.7 3.5 5.5 9.1 3.4 9.1 3.4l-2.4-4.2c6.6 6.8 15.2 1.9 15.2 1.9l-2.3-2.5c11.1 2.8 13.8-3.6 13.8-3.6-3.2-.5-5.6-2-5.6-2 13.3 2.7 13.5-4.9 13.5-4.9-1.4-.4-5.7-1.8-5.7-1.8 12.8 1.6 13.2-7.8 13.2-7.8-4.1 1-10.5.5-10.5.5 16.2-1.2 16.4-10.3 16.4-10.3-6.9 2.5-13 1.6-13 1.6 18.6-2.2 18.3-13.5 18.3-13.5-9 6-17.9 6.2-17.9 6.2 22.5-6.5 20.8-17.9 20.8-17.9zm-18.8 82c-.9-1.4 1.2-2.7 2.2-4.1l3.7 1.4c-1.3 1.4-5 4.2-5.9 2.7zm-2.4-5.8c-1.2 1.8-2 3.9-5.7 4-4.6.1-5.3-4-6.3-6.2-.3-.7-.8-1.1-1.4-1.5 0-.4 0-.8.1-1.3l13.3 5z"/><path d="M274.2 183.1s-5.9-5-7.6-7.8c0 0 2-.8 3-2.1 0 0-5.3-2.9-8.2-5.8 0 0 1.9-.3 3.3-1.5 0 0-4.8-.9-7.2-4.8 5.6-1.9 3.7-7.1 3.7-7.1-1.1 1.5-5.7 3.4-10.7 1.2-5-2.1-10.4-.6-10.4 2.1 0 0-11.2-3.2-8.4 7.6 0 0 1.8-4 5.8-2.5s8 6.6 8 6.6-2.5 1.4-7.1-.1c0 0 1.9 7.1 10.3 3.5 0 0 3.3 1.8 3.5 7 0 0 1.4-.7 2.3-2.4 0 0 1.3 5.1-.4 9.2 0 0 2.3-.4 3.1-1.2 0 0 .7 4.4-2.2 8 0 0 12.7 6.1 20.8-.6 0 0-3-3.5-4-6.7-.3.1 1.4-.6 2.4-2.6z"/><path d="M311.1 157.5c0-2.7-5.5-4.2-10.4-2.1-5 2.1-9.6.2-10.7-1.2 0 0-1.9 5.2 3.7 7.1-2.4 3.9-7.2 4.8-7.2 4.8 1.4 1.2 3.3 1.5 3.3 1.5-2.9 2.9-8.2 5.8-8.2 5.8 1 1.2 3 2.1 3 2.1-1.7 2.7-7.6 7.8-7.6 7.8 1 2.1 2.7 2.7 2.7 2.7-1 3.2-4 6.7-4 6.7 8.1 6.7 20.8.6 20.8.6-2.9-3.6-2.2-8-2.2-8 .7.7 3.1 1.2 3.1 1.2-1.7-4.1-.4-9.2-.4-9.2.9 1.7 2.3 2.4 2.3 2.4.2-5.2 3.5-7 3.5-7 8.4 3.6 10.3-3.5 10.3-3.5-4.6 1.5-7.1.1-7.1.1s4-5.1 8-6.6 5.8 2.5 5.8 2.5c2.5-10.9-8.7-7.7-8.7-7.7z"/><path d="M306.1 223.5c-1.1-6.4-2-11.8.7-18.1l.5-1.2-10.9-12.5-1.3.4c-.1 0-11.5 3.7-18.7.1l-.9-.5-.9.5c-7.2 3.6-18.6-.1-18.7-.1l-1.3-.4-10.9 12.5.5 1.2c2.7 6.3 1.8 11.8.7 18.1-1 6-2.2 12.8-.1 21.1 2.2 9 9.7 12.2 16.3 15 5.1 2.2 9.9 4.2 12.6 8.5l1.7 2.7 1.7-2.7c2.7-4.3 7.5-6.4 12.6-8.5 6.6-2.8 14.1-6 16.3-15 2.3-8.3 1.1-15.1.1-21.1zM248.5 205l7.4-8.6c3.4.9 12.5 2.9 19.6-.1 7.1 3 16.2 1 19.6.1l7.4 8.6c-2.6 6.9-1.6 12.9-.5 19.2.8 4.7 1.6 9.6.9 15.3h-55c-.7-5.6.1-10.5.9-15.3 1.3-6.3 2.3-12.3-.3-19.2zm39.8 50.9c-4.6 2-9.4 4-12.8 7.8-3.4-3.8-8.1-5.9-12.8-7.8-6.5-2.8-12-5.2-13.9-12h53.3c-1.8 6.8-7.4 9.2-13.8 12z"/></g><path d="M248.5 205l7.4-8.6c3.4.9 12.5 2.9 19.6-.1 7.1 3 16.2 1 19.6.1l7.4 8.6c-2.6 6.9-1.6 12.9-.5 19.2.8 4.7 1.6 9.6.9 15.3h-55c-.7-5.6.1-10.5.9-15.3 1.3-6.3 2.3-12.3-.3-19.2z" fill="#41479b"/><path d="M248.6 242.8c.1.3.1.6.2.9 1.7 7 7.4 9.5 14 12.3 4.6 2 9.4 4 12.8 7.8 3.4-3.8 8.1-5.9 12.8-7.8 6.6-2.8 12.3-5.2 14-12.3.1-.3.1-.6.2-.9h-54z" fill="#73af00"/><g fill="#e6b432"><path d="M299.9 219.3c0-3.7-3.5-4.2-6.7-4.2-3.2.1-7.8-.5-7.9-3-.1-1.5 2.5-1.7 4.2-1.1 1 .3 7 1.4 8.9-2.7 0 0-2.2.1-4.6-.5-1.8-.4-9.2.5-10.5 3.4s3 5.7 7.9 5.7 5.6 1 5.6 2.2c-.1 1.6-4 2-6.2 2-3.5-1.3-11.8-.3-11.9-.4 0-.2-1.9-3.4-1.9-3.4s3.4-.2 3.8-.9c.4-.6-2.6-3-2.6-3s2.5-1 2.6-1.7c.1-.8-2-2.7-2-2.7s.8-.8 1.5-2.2c.4-1-3.1-1.3-3.1-1.3.2-.8.1-1.5-.8-1.8-.7-.3-3.4.8-5.3.8-1.8 0-2.5 1.3-2.5 1.3s-3.2.4-3.7.8c-.4.4.1 2.9.1 2.9-1.6-.3-2.4-1.7-2.4-1.7-.8 3.7 3 4.1 3 4.1l.6 2 1.6.2c1.6.2.8 1.7-1.6 1.7-2.5 0-3.5 2.9-3.5 2.9-1.7 0-2.7-1.3-3.1-3.1-.4-1.9-.2-4.9.1-6.8.4-2.3-.8-3-.8-3l-.8 1.9c0-2-1.8-2.1-1.8-2.1l-.3 2.4c-.9-1.6-2.3-.9-2.3-.9s1.4 5.2 1.4 5.4c0 .3-.5.5-1.2-.2s-1.1-.2-1.1-.2c.7 5.2 3.5 4.4 3.5 4.4s.1 1.6 1 4.9c.9 3.5 4.6 2.8 4.6 2.8 0 1.1.9 2.8 1.1 6.6.3 3.8-3.2 6.5-3.2 6.5-3.2-.1-2.9 3-2.9 3h8.7c0-8.1 3.5-9.5 3.5-9.5 5.2.2 10.1-1.9 10.1-1.9-.8 3.1.6 4.4.6 4.4 2.1-.3 1 3.9.4 3.9h-2.7c-.8 0-3 2.4-3 2.4h9.1s1.4-2 1.9-3-1-2.4-1.1-3.4 1.6-1.7 1.6-1.7c1.8 2.5 5.8 2.6 5.8 2.6l-.1-1.9s2.1.7 2.6 1.3.4 3.5-2.1 3.8-2.7 2.1-2.7 2.1h6.9c1.1 0 2.1-2.1 2.1-3v-7.3c0-1.2-1-1-3.2-1.2-2-.2-1.8-2.4-2.7-5 2.9 0 7.5-.6 7.5-3.6zM299.3 132.6c-.6-5-4.6-11.4-19.7-14.4-.1-1.6-1-3-2.5-3.6v-2.8h2.5v-3h-2.5v-2.5h-3v2.5h-2.5v3h2.5v2.8c-1.4.6-2.4 1.9-2.5 3.6-15.2 3-19.2 9.4-19.7 14.4-.7 6.2 3.8 12.2 7.8 14.4v3.2h31.8V147c4.1-2.3 8.5-8.2 7.8-14.4zm-16.6 9.6h-4.5v-18.3c3.7 1.7 5.9 4.2 6.6 7.7.8 4.3-.9 8.7-2.1 10.6zm-16.3-10.7c.7-3.5 2.9-6 6.6-7.7v18.3h-4.5c-1.2-1.8-2.9-6.2-2.1-10.6zm-3.7-5c-.7 1.5-1.2 2.9-1.4 4.3-.7 4.1.1 8.2 1.5 11.4h-1c-2.2-1.5-5.1-5.3-4.7-9 .3-2.7 2.2-4.9 5.6-6.7zm26.8 15.7h-1c1.4-3.2 2.2-7.3 1.5-11.4-.2-1.3-.7-2.8-1.4-4.3 3.4 1.8 5.4 4 5.7 6.6.3 3.8-2.6 7.6-4.8 9.1z"/></g><path d="M18.7 483.5C8.4 483.5 0 475.2 0 464.8V47.2c0-10.3 8.3-18.6 18.6-18.6h.2c10.3 0 18.7 8.4 18.7 18.7v417.4c0 10.5-8.4 18.8-18.8 18.8z" fill="#2e3033"/></svg>