<svg xmlns="http://www.w3.org/2000/svg" viewBox="0 0 512 512"><path fill="#ffe15a" d="M135.7 56.05h267.6v317.8H135.7z"/><path d="M503.6 373.85H403.3V56.05h100.3c4.6 0 8.4 3.7 8.4 8.4v301c0 4.6-3.7 8.4-8.4 8.4z" fill="#73af00"/><path d="M35.4 56.05h100.3v317.8H35.4c-4.6 0-8.4-3.7-8.4-8.4v-301c0-4.6 3.7-8.4 8.4-8.4z" fill="#4173cd"/><g fill="#73af00"><path d="M208.8 210.65l27.1 54.3 27.1-54.3-27.1-54.2zM276 210.65l27.1 54.3 27.1-54.3-27.1-54.2zM242.4 275.85l27.1 54.3 27.1-54.3-27.1-54.2z"/></g><path d="M19.2 489.05c-10.6 0-19.2-8.6-19.2-19.2V41.95c0-10.5 8.5-19 19-19h.2c10.6 0 19.2 8.6 19.2 19.2v427.8c0 10.5-8.6 19.1-19.2 19.1z" fill="#2e3033"/></svg>