<svg xmlns="http://www.w3.org/2000/svg" viewBox="0 0 512.1 512.1"><path d="M512 162H27V64.5c0-4.6 3.7-8.4 8.4-8.4h468.3c4.6 0 8.4 3.7 8.4 8.4L512 162z" fill="#464655"/><path d="M503.6 373.9H35.4c-4.6 0-8.4-3.7-8.4-8.4V268h485v97.6c0 4.5-3.7 8.3-8.4 8.3z" fill="#73af00"/><path fill="#ff4b55" d="M27 162h485v105.9H27z"/><g fill="#f5f5f5"><path d="M117.4 193.4l5 10.8 11.5-2.8c.7-.2 1.3.6 1 1.2l-5.3 10.6 9.4 7.2c.6.5.4 1.4-.4 1.5l-11.6 2.4.2 11.9c0 .7-.8 1.2-1.4.7l-9.2-7.6-9.2 7.6c-.6.5-1.4.1-1.4-.7l.2-11.9-11.6-2.4c-.7-.2-.9-1.1-.4-1.5l9.4-7.2-5.3-10.6c-.3-.7.3-1.4 1-1.2l11.5 2.8 5-10.8c.3-.7 1.3-.7 1.6 0zM27 156.5h485v14.2H27zM27 259.3h485v14.2H27z"/></g><path d="M29.7 371.6l218.2-153.2c2.4-1.7 2.4-5.2 0-6.8L29.7 58.4C28 59.9 27 62.1 27 64.5v301c0 2.4 1.1 4.6 2.7 6.1z" fill="#41479b"/><path d="M96.7 176l18.8 19.2 24.3-11.5c3.1-1.5 6.4 1.9 4.8 5L132 212.5l18.5 19.5c2.4 2.5.2 6.6-3.2 6.1l-26.5-4.5-12.8 23.6c-1.7 3.1-6.3 2.2-6.8-1.2l-3.9-26.6-26.4-4.9c-3.4-.6-4.1-5.3-.9-6.8l24-12-3.5-26.7c-.5-3.4 3.7-5.5 6.2-3z" fill="#ffe15a"/><path d="M19.2 489.1C8.6 489.1 0 480.5 0 469.9V42c0-10.5 8.5-19 19-19h.2c10.6 0 19.2 8.6 19.2 19.2V470c0 10.5-8.6 19.1-19.2 19.1z" fill="#2e3033"/></svg>