<svg xmlns="http://www.w3.org/2000/svg" viewBox="0 0 512 512"><path d="M503.6 373.95H35.4c-4.6 0-8.4-3.8-8.4-8.4v-301c0-4.6 3.8-8.4 8.4-8.4h468.2c4.6 0 8.4 3.8 8.4 8.4v300.9c0 4.7-3.8 8.5-8.4 8.5z" fill="#82afff"/><g fill="#ffe15a"><path d="M503.6 56.15h-24L27 290.35v16.7l481.6-249.1c-1.4-1-3.1-1.8-5-1.8zM35.4 373.95h24L512 139.75v-16.7L30.4 372.15c1.4 1 3.1 1.8 5 1.8z"/></g><path d="M508.6 57.95L27 307.05v58.5c0 2.7 1.4 5.1 3.4 6.6L512 123.05v-58.5c0-2.8-1.4-5.1-3.4-6.6z" fill="#ff4b55"/><path d="M114.7 89.05l12 36.1 38.1.3c2.1 0 3 2.7 1.3 4l-30.6 22.6 11.5 36.3c.6 2-1.7 3.7-3.4 2.5l-31-22.1-31 22.1c-1.7 1.2-4-.4-3.4-2.5l11.5-36.3-30.6-22.6c-1.7-1.3-.8-4 1.3-4l38.1-.3 12-36.1c.7-2 3.6-2 4.2 0z" fill="#ffe15a"/><path d="M19 486.95c-10.5 0-19-8.5-19-19v-424c0-10.4 8.4-18.9 18.9-18.9h.1c10.5 0 19 8.5 19 19v423.8c.1 10.6-8.5 19.1-19 19.1z" fill="#2e3033"/></svg>