<svg xmlns="http://www.w3.org/2000/svg" viewBox="0 0 512 512"><path d="M188.7 373.75H35.5c-4.7 0-8.5-3.8-8.5-8.5V64.55c0-4.7 3.8-8.5 8.5-8.5h153.2v317.7z" fill="#73af00"/><path fill="#f5f5f5" d="M188.7 56.15h161.6v317.7H188.7z"/><path d="M503.5 373.75H350.3V56.15h153.2c4.7 0 8.5 3.8 8.5 8.5v300.8c-.1 4.6-3.9 8.3-8.5 8.3z" fill="#ff4b55"/><path fill="#ffd250" d="M283.9 222.45l-14.4 7.2v7.2h7.2z"/><g fill="#00c3a0"><path d="M269.5 254.85c-2 0-3.6-1.6-3.6-3.6v-14.4c0-2 1.6-3.6 3.6-3.6s3.6 1.6 3.6 3.6v14.4c0 2-1.6 3.6-3.6 3.6z"/><path d="M269.5 240.45c-14.2 0-27.9-5.5-38.5-15.4-1.5-1.3-1.5-3.7-.2-5.1 1.3-1.5 3.7-1.5 5.1-.2 9.3 8.7 21.2 13.5 33.6 13.5s24.3-4.7 33.6-13.5c1.5-1.3 3.7-1.3 5.1.2 1.3 1.5 1.3 3.7-.2 5.1-10.7 9.9-24.3 15.4-38.5 15.4z"/></g><path d="M269.5 254.85c-9.2 0-18.2-2.7-25.9-7.8l4-6c13 8.7 30.8 8.7 43.8 0l4 6c-7.7 5.1-16.7 7.8-25.9 7.8z" fill="#00aadc"/><path fill="#732d37" d="M263.8 206.25l-8 12.3-1.3 4 20.7-4.8z"/><path d="M247.5 226.55c-9.5 0-21-8-24-25.9l7.1-1.2c2.5 14.9 11.7 19.9 17.1 19.9 1.7-.1 3.5-.6 3.6-1.8.2-1.4.2-1.7-3.6-3-2.1-.7-4.4-1.5-6-3.3-6.6-7.5 2.3-15.5 6.6-19.3.8-.7 1.1-1.2 1-1.5-.3-.6-1.7-1.5-3.3-1.5-4.6 0-8-2.6-9-6.7-1-4.3 1-8.9 4.7-10.8l3.3 6.4c-.9.4-1.2 1.7-1 2.7.1.4.3 1.2 2.1 1.2 4.4 0 8.6 2.6 10 6.2.6 1.5 1.5 5.5-3 9.4-4.7 4.2-7.6 7.4-6 9.2.4.4 1.9.9 2.9 1.3 3.3 1.1 9.3 3.1 8.4 10.7-.5 4.7-4.7 8-10.5 8.2-.2-.2-.3-.2-.4-.2z" fill="#aad264"/><path d="M276.7 186.35s7.2-14.4-7.2-21.6c0 0 50.4-7.2 43.3 57.7-4.7-3.8-11.7-10.7-14.2-16.2l-21.8-12.6-.1-7.3z" fill="#874150"/><path d="M269.5 200.85l36.1 21.6-14.4 7.2-21.6-21.6v-7.2h-.1z" fill="#732d37"/><path d="M255.1 179.25c4 0 7.2 3.2 7.2 7.2-4.3 4.3-5.4 10.8-2.6 16.3l1.6 3.3c.7 1.3 1.6 2.6 2.6 3.7l20 20v-9.9c0-12.4-2.9-24.6-8.5-35.7-3.7-7.3-11.2-11.9-19.3-11.9h-1v7z" fill="#783c46"/><path d="M255.1 171.95l-7.2 7.2v7.2s8.6-4.4 11.5-5.7c2-1 1.7-3.3.5-4.4-1-.8-4.8-4.3-4.8-4.3z" fill="#ffd250"/><path d="M269.5 269.35c-33.8 0-61.3-27.5-61.3-61.3h7.3c0 29.8 24.3 54.1 54.1 54.1s54.1-24.3 54.1-54.1h7.2c-.1 33.7-27.6 61.3-61.4 61.3z" fill="#aad264"/><g fill="#ffe15a"><path d="M220.6 228.65c.5 3.3-2.3 6.1-5.6 5.6-2.1-.3-3.7-2-4-4-.5-3.3 2.3-6.1 5.6-5.6 2 .2 3.7 1.9 4 4zM231.5 245.85c.5 3.3-2.3 6.1-5.6 5.6-2.1-.3-3.7-2-4-4-.5-3.3 2.3-6.1 5.6-5.6 2 .3 3.7 2 4 4zM249.1 258.95c.5 3.3-2.3 6.1-5.6 5.6-2.1-.3-3.7-2-4-4-.5-3.3 2.3-6.1 5.6-5.6 1.9.3 3.6 2 4 4zM318.9 228.65c-.5 3.3 2.3 6.1 5.6 5.6 2.1-.3 3.7-2 4-4 .5-3.3-2.3-6.1-5.6-5.6-2 .2-3.8 1.9-4 4zM308 245.85c-.5 3.3 2.3 6.1 5.6 5.6 2.1-.3 3.7-2 4-4 .5-3.3-2.3-6.1-5.6-5.6-2 .3-3.6 2-4 4zM290.5 258.95c-.5 3.3 2.3 6.1 5.6 5.6 2.1-.3 3.7-2 4-4 .5-3.3-2.3-6.1-5.6-5.6-2.1.3-3.7 2-4 4z"/></g><path d="M273.1 258.45h-7.2c-4 0-7.2-3.2-7.2-7.2s3.2-7.2 7.2-7.2h7.2c4 0 7.2 3.2 7.2 7.2s-3.2 7.2-7.2 7.2z" fill="#ffb478"/><path d="M298.5 206.25c2.4 7.1 7.5 13.5 14.2 16.2 7.2-64.9-43.3-57.7-43.3-57.7 36.1 0 29.1 41.5 29.1 41.5z" fill="#9b4b5a"/><path d="M19.1 488.05c-10.6 0-19.1-8.6-19.1-19.1V42.85c0-10.5 8.5-18.9 18.9-18.9h.1c10.6 0 19.1 8.6 19.1 19.1v425.9c.2 10.5-8.4 19.1-19 19.1z" fill="#2e3033"/></svg>