<svg xmlns="http://www.w3.org/2000/svg" viewBox="0 0 512.1 512.1"><path d="M503.5 373.95h-468c-4.7 0-8.5-3.8-8.5-8.5V64.65c0-4.7 3.8-8.5 8.5-8.5h468.1c4.7 0 8.5 3.8 8.5 8.5v300.8c-.1 4.7-3.9 8.5-8.6 8.5z" fill="#73af00"/><path d="M265.2 100.65L88.9 207.95c-5.3 3.3-5.3 11 0 14.3l176.3 107.3c2.7 1.6 6 1.6 8.7 0l176.3-107.3c5.3-3.3 5.3-11 0-14.3l-176.3-107.3c-2.7-1.7-6.1-1.7-8.7 0z" fill="#ffe15a"/><path d="M336.4 212.85c1.2 38.7-30.4 70.3-69.1 69.1-35-1.1-63.5-29.7-64.6-64.6-1.2-38.7 30.4-70.3 69.1-69.1 34.9 1.1 63.5 29.6 64.6 64.6z" fill="#41479b"/><g fill="#f5f5f5"><path d="M212.1 180.85c-3.1 5.3-5.6 11-7.2 17.1 37.1-2.8 91.9 7.6 126.8 41.5 2.2-5.8 3.8-12 4.4-18.5-36-30.4-85.9-41.1-124-40.1zM272.3 237.95l1.8 5.3 5.6.1c.7 0 1 1 .4 1.3l-4.6 3.3 1.7 5.4c.2.7-.6 1.3-1.2.8l-4.6-3.3-4.6 3.3c-.6.4-1.4-.1-1.2-.8l1.7-5.4-4.6-3.3c-.6-.4-.3-1.3.4-1.3l5.6-.1 1.8-5.3c.6-.8 1.6-.8 1.8 0zM294.1 251.75l.8 2.3h2.4c.3 0 .4.4.2.6l-1.9 1.4.7 2.3c.1.3-.3.6-.5.4l-2-1.4-2 1.4c-.3.2-.6-.1-.5-.4l.7-2.3-1.9-1.4c-.3-.2-.1-.6.2-.6h2.4l.8-2.3c.1-.4.6-.4.6 0zM262.8 227.75l.8 2.3h2.4c.3 0 .4.4.2.6l-1.9 1.4.7 2.3c.1.3-.3.6-.5.4l-2-1.4-2 1.4c-.3.2-.6-.1-.5-.4l.7-2.3-1.9-1.4c-.3-.2-.1-.6.2-.6h2.4l.8-2.3c.1-.3.6-.3.6 0zM220.4 224.95l.8 2.3h2.4c.3 0 .4.4.2.6l-1.9 1.4.7 2.3c.1.3-.3.6-.5.4l-2-1.4-2 1.4c-.3.2-.6-.1-.5-.4l.7-2.3-1.9-1.4c-.3-.2-.1-.6.2-.6h2.4l.8-2.3c.1-.3.5-.3.6 0zM255.9 250.85l.8 2.3h2.4c.3 0 .4.4.2.6l-1.9 1.4.7 2.3c.1.3-.3.6-.5.4l-2-1.4-2 1.4c-.3.2-.6-.1-.5-.4l.7-2.3-1.9-1.4c-.3-.2-.1-.6.2-.6h2.4l.8-2.3c.1-.2.5-.2.6 0zM236.4 223.35l.6 1.9h2c.3 0 .4.3.1.5l-1.6 1.2.6 1.9c.1.3-.2.4-.4.3l-1.6-1.2-1.6 1.2c-.2.1-.5-.1-.4-.3l.6-1.9-1.6-1.2c-.2-.1-.1-.4.1-.5h2l.6-1.9c.1-.3.5-.3.6 0zM295.9 184.55l.8 2.4h2.5c.3 0 .4.4.2.6l-2 1.5.8 2.4c.1.3-.3.6-.5.4l-2-1.4-2 1.4c-.3.2-.6-.1-.5-.4l.8-2.4-2-1.5c-.3-.2-.1-.6.2-.6h2.5l.8-2.4c-.1-.3.3-.3.4 0zM223.1 211.85l.6 1.9h2c.3 0 .4.3.1.5l-1.6 1.2.6 1.9c.1.3-.2.4-.4.3l-1.6-1.2-1.6 1.2c-.2.1-.5-.1-.4-.3l.6-1.9-1.6-1.2c-.2-.1-.1-.4.1-.5h2l.6-1.9c.2-.3.5-.3.6 0zM232.7 238.35l1 2.8h3c.4 0 .6.5.3.7l-2.4 1.8.9 2.9c.1.4-.3.7-.6.4l-2.4-1.7-2.4 1.7c-.3.3-.7-.1-.6-.4l.9-2.9-2.4-1.8c-.3-.3-.1-.7.3-.7h3l1-2.8c-.2-.4.3-.4.4 0zM306.3 252.25l.6 1.8h1.9c.3 0 .3.3.1.4l-1.5 1.1.6 1.8c.1.3-.2.4-.4.3l-1.5-1.1-1.5 1.1c-.2.1-.4-.1-.4-.3l.6-1.8-1.5-1.1c-.2-.1-.1-.4.1-.4h1.9l.6-1.8c.1-.2.4-.2.4 0zM313 238.65l.8 2.3h2.4c.3 0 .4.4.2.6l-1.9 1.4.7 2.3c.1.3-.3.6-.5.4l-2-1.4-2 1.4c-.3.2-.6-.1-.5-.4l.7-2.3-1.9-1.4c-.3-.2-.1-.6.2-.6h2.4l.8-2.3c0-.3.5-.3.6 0z"/></g><path d="M19.1 488.15c-10.6 0-19.1-8.6-19.1-19.1V42.85c0-10.5 8.5-18.9 18.9-18.9h.1c10.6 0 19.1 8.6 19.1 19.1v426c.2 10.5-8.4 19.1-19 19.1z" fill="#2e3033"/></svg>