<svg xmlns="http://www.w3.org/2000/svg" viewBox="0 0 512 512"><path d="M503.6 373.9H35.4c-4.7 0-8.4-3.8-8.4-8.4V64.6c0-4.7 3.8-8.4 8.4-8.4h468.1c4.7 0 8.4 3.8 8.4 8.4v300.9c.1 4.6-3.7 8.4-8.3 8.4z" fill="#f5f5f5"/><g fill="#ff4b55"><path d="M512 189.9H294.6V56.1h-50.2v133.8H27v50.2h217.4v133.8h50.2V240.1H512z"/><path d="M169.2 111.6c-8.3.8-16.4 1.7-24.5 2.5.8-8.1 1.7-16.2 2.5-24.5-7.6 1-15.3 1-22.9 0 .8 8.3 1.7 16.4 2.5 24.5-8.1-.8-16.2-1.7-24.5-2.5 1 7.6 1 15.3 0 22.9 8.3-.8 16.4-1.7 24.5-2.5-.8 8.1-1.7 16.2-2.5 24.5 7.6-1 15.3-1 22.9 0-.8-8.3-1.7-16.4-2.5-24.5 8.1.8 16.2 1.7 24.5 2.5-1-7.6-1-15.3 0-22.9zM436.7 111.6c-8.3.8-16.4 1.7-24.5 2.5.8-8.1 1.7-16.2 2.5-24.5-7.6 1-15.3 1-22.9 0 .8 8.3 1.7 16.4 2.5 24.5-8.1-.8-16.2-1.7-24.5-2.5 1 7.6 1 15.3 0 22.9 8.3-.8 16.4-1.7 24.5-2.5-.8 8.1-1.7 16.2-2.5 24.5 7.6-1 15.3-1 22.9 0-.8-8.3-1.7-16.4-2.5-24.5 8.1.8 16.2 1.7 24.5 2.5-.9-7.6-.9-15.3 0-22.9zM169.2 295.6c-8.3.8-16.4 1.7-24.5 2.5.8-8.1 1.7-16.2 2.5-24.5-7.6 1-15.3 1-22.9 0 .8 8.3 1.7 16.4 2.5 24.5-8.1-.8-16.2-1.7-24.5-2.5 1 7.6 1 15.3 0 22.9 8.3-.8 16.4-1.7 24.5-2.5-.8 8.1-1.7 16.2-2.5 24.5 7.6-1 15.3-1 22.9 0-.8-8.3-1.7-16.4-2.5-24.5 8.1.8 16.2 1.7 24.5 2.5-1-7.7-1-15.4 0-22.9zM436.7 295.6c-8.3.8-16.4 1.7-24.5 2.5.8-8.1 1.7-16.2 2.5-24.5-7.6 1-15.3 1-22.9 0 .8 8.3 1.7 16.4 2.5 24.5-8.1-.8-16.2-1.7-24.5-2.5 1 7.6 1 15.3 0 22.9 8.3-.8 16.4-1.7 24.5-2.5-.8 8.1-1.7 16.2-2.5 24.5 7.6-1 15.3-1 22.9 0-.8-8.3-1.7-16.4-2.5-24.5 8.1.8 16.2 1.7 24.5 2.5-.9-7.7-.9-15.4 0-22.9z"/></g><path d="M19.2 488.5C8.6 488.5 0 479.9 0 469.3V42.5c0-10.5 8.5-19 19-19h.2c10.6 0 19.2 8.6 19.2 19.2v426.6c-.1 10.6-8.7 19.2-19.2 19.2z" fill="#2e3033"/></svg>