<svg xmlns="http://www.w3.org/2000/svg" viewBox="0 0 512 512"><path d="M350.4 56.1h153.2c4.6 0 8.4 3.8 8.4 8.4v301c0 4.6-3.8 8.4-8.4 8.4H350.4V56.1z" fill="#ff4b55"/><path fill="#41479b" d="M188.6 56.1h161.6v317.8H188.6z"/><path d="M35.4 56.1h153.2v317.8H35.4c-4.6 0-8.4-3.8-8.4-8.4v-301c0-4.6 3.7-8.4 8.4-8.4z" fill="#ff4b55"/><g fill="#f9cf02"><path d="M108.1 187.5c-12.6 0-23.5-7.6-28.2-18.5 0 .2-.1.3-.1.5 0 15.6 12.6 28.3 28.3 28.3 15.6 0 28.3-12.6 28.3-28.3 0-.2-.1-.3-.1-.5-4.7 10.9-15.5 18.5-28.2 18.5z"/><circle cx="108.1" cy="161.8" r="20.6"/><path d="M95.3 123.3c0 7.1 5.8 12.8 12.8 12.8s12.8-5.8 12.8-12.8c0-5.1-3.2-5.8-3.2-7.7s1.9-4.5-1.9-7.7c1.9 3.2-1.3 3.9-1.3 7.1s1.3 3.2 1.3 5.8c0 1.4-1.2 2.6-2.6 2.6s-2.6-1.2-2.6-2.6c0-2.6 2.6-5.1 2.6-9s-.6-5.1-2.6-8.3c-1.9-3.2-5.1-5.8-2.6-8.3-3.9 1.3-1.9 6.4-1.9 9.6s-2.6 5.1-2.6 9 1.9 4.5 1.9 7.1c0 1.4-1.2 2.6-2.6 2.6s-2.6-1.2-2.6-2.6c0-2.6 1.3-2.6 1.3-5.8 0-3.2-3.2-3.9-1.3-7.1-3.9 3.2-1.9 5.8-1.9 7.7.2 1.8-3 2.4-3 7.6zM51.6 205.1v119.2c0 1.2 1 2.1 2.1 2.1h21.4c1.2 0 2.1-1 2.1-2.1V205.1c0-1.2-1-2.1-2.1-2.1H53.7c-1.2 0-2.1 1-2.1 2.1zM139 205.1v119.2c0 1.2 1 2.1 2.1 2.1h21.4c1.2 0 2.1-1 2.1-2.1V205.1c0-1.2-1-2.1-2.1-2.1h-21.4c-1.1 0-2.1 1-2.1 2.1zM82.5 225.7v6c0 1.2 1 2.1 2.1 2.1h47.2c1.2 0 2.1-1 2.1-2.1v-6c0-1.2-1-2.1-2.1-2.1H84.6c-1.2-.1-2.1.9-2.1 2.1zM82.5 297.7v6c0 1.2 1 2.1 2.1 2.1h47.2c1.2 0 2.1-1 2.1-2.1v-6c0-1.2-1-2.1-2.1-2.1H84.6c-1.2 0-2.1.9-2.1 2.1zM86.3 203H130c1.1 0 1.5 1.4.6 2l-20.8 12.5c-1 .6-2.2.6-3.3 0L85.7 205c-.9-.6-.5-2 .6-2zM86.3 311H130c1.1 0 1.5 1.4.6 2l-20.8 12.5c-1 .6-2.2.6-3.3 0L85.7 313c-.9-.6-.5-2 .6-2zM110.6 239.2c-.8-.1-1.6-.3-2.4-.3-14.1 0-25.7 11.5-25.7 25.7 0 8.4 4.1 15.8 10.3 20.4.7.5 1.7-.3 1.3-1.1-.8-1.8-1.2-3.7-1.2-5.8 0-8.3 6.8-15.2 15.2-15.2 4.4 0 8.6-2.2 10.6-6.1 4.1-8-.7-16.1-8.1-17.6zm-2.3 16.9c-2.8 0-5.1-2.3-5.1-5.1s2.3-5.1 5.1-5.1 5.1 2.3 5.1 5.1c-.1 2.8-2.3 5.1-5.1 5.1z"/><path d="M123.6 244.1c-.7-.5-1.7.3-1.3 1.1.8 1.8 1.2 3.7 1.2 5.8 0 8.3-6.8 15.2-15.2 15.2-4.4 0-8.6 2.2-10.6 6.1-4 8.2.9 16.2 8.2 17.8.8.1 1.6.3 2.4.3 14.1 0 25.7-11.5 25.7-25.7-.1-8.5-4.2-15.9-10.4-20.6zm-15.3 39.2c-2.8 0-5.1-2.3-5.1-5.1s2.3-5.1 5.1-5.1 5.1 2.3 5.1 5.1c-.1 2.9-2.3 5.1-5.1 5.1z"/></g><path d="M19.3 490.5C8.6 490.5 0 481.9 0 471.2V40.6C0 30 8.6 21.5 19.1 21.5h.1c10.7 0 19.3 8.6 19.3 19.3v430.5c.2 10.6-8.5 19.2-19.2 19.2z" fill="#2e3033"/></svg>