<svg xmlns="http://www.w3.org/2000/svg" viewBox="0 0 512.802 512.802"><path d="M504.5 374.301H36.2c-4.7 0-8.4-3.8-8.4-8.4v-301c0-4.7 3.8-8.4 8.4-8.4h468.2c4.7 0 8.4 3.8 8.4 8.4v300.9c.1 4.7-3.8 8.5-8.3 8.5z" fill="#41479b"/><g fill="#ffe15a"><path d="M273.7 92.901l3.4 10.1 10.6.1c1.4 0 1.9 1.8.8 2.6l-8.5 6.3 3.2 10.1c.4 1.3-1.1 2.4-2.2 1.6l-8.6-6.2-8.6 6.2c-1.1.8-2.6-.3-2.2-1.6l3.2-10.1-8.5-6.3c-1.1-.8-.5-2.6.8-2.6l10.6-.1 3.4-10.1c.3-1.4 2.2-1.4 2.6 0zM273.7 308.701l3.4 10.1 10.6.1c1.4 0 1.9 1.8.8 2.6l-8.5 6.3 3.2 10.1c.4 1.3-1.1 2.4-2.2 1.6l-8.6-6.2-8.6 6.2c-1.1.8-2.6-.3-2.2-1.6l3.2-10.1-8.5-6.3c-1.1-.8-.5-2.6.8-2.6l10.6-.1 3.4-10.1c.3-1.3 2.2-1.3 2.6 0zM381.6 200.801l3.4 10.1 10.6.1c1.4 0 1.9 1.8.8 2.6l-8.5 6.3 3.2 10.1c.4 1.3-1.1 2.4-2.2 1.6l-8.6-6.2-8.6 6.2c-1.1.8-2.6-.3-2.2-1.6l3.2-10.1-8.5-6.3c-1.1-.8-.5-2.6.8-2.6l10.6-.1 3.4-10.1c.3-1.4 2.2-1.4 2.6 0zM165.8 200.801l3.4 10.1 10.6.1c1.4 0 1.9 1.8.8 2.6l-8.5 6.3 3.2 10.1c.4 1.3-1.1 2.4-2.2 1.6l-8.6-6.2-8.6 6.2c-1.1.8-2.6-.3-2.2-1.6l3.2-10.1-8.5-6.3c-1.1-.8-.5-2.6.8-2.6l10.6-.1 3.4-10.1c.3-1.4 2-1.4 2.6 0zM181.9 144.501l3.4 10.1 10.6.1c1.4 0 1.9 1.8.8 2.6l-8.5 6.3 3.2 10.1c.4 1.3-1.1 2.4-2.2 1.6l-8.6-6.2-8.6 6.2c-1.1.8-2.6-.3-2.2-1.6l3.2-10.1-8.5-6.3c-1.1-.8-.5-2.6.8-2.6l10.6-.1 3.4-10.1c.4-1.4 2.2-1.4 2.6 0zM368.9 252.401l3.4 10.1 10.6.1c1.4 0 1.9 1.8.8 2.6l-8.5 6.3 3.2 10.1c.4 1.3-1.1 2.4-2.2 1.6l-8.6-6.2-8.6 6.2c-1.1.8-2.6-.3-2.2-1.6l3.2-10.1-8.5-6.3c-1.1-.8-.5-2.6.8-2.6l10.5-.2 3.4-10.1c.4-1.3 2.3-1.3 2.7.1zM329.4 104.901l3.4 10.1 10.6.1c1.4 0 1.9 1.8.8 2.6l-8.5 6.3 3.2 10.1c.4 1.3-1.1 2.4-2.2 1.6l-8.6-6.2-8.6 6.2c-1.1.8-2.6-.3-2.2-1.6l3.2-10.1-8.5-6.3c-1.1-.8-.5-2.6.8-2.6l10.6-.1 3.4-10.1c.3-1.3 2.2-1.3 2.6 0zM221.5 291.901l3.4 10.1 10.6.1c1.4 0 1.9 1.8.8 2.6l-8.5 6.3 3.2 10.1c.4 1.3-1.1 2.4-2.2 1.6l-8.6-6.2-8.6 6.2c-1.1.8-2.6-.3-2.2-1.6l3.2-10.1-8.5-6.3c-1.1-.8-.5-2.6.8-2.6l10.6-.1 3.4-10.1c.3-1.3 2.1-1.3 2.6 0zM366.2 144.501l-3.4 10.1-10.6.1c-1.4 0-1.9 1.8-.8 2.6l8.5 6.3-3.2 10.1c-.4 1.3 1.1 2.4 2.2 1.6l8.6-6.2 8.6 6.2c1.1.8 2.6-.3 2.2-1.6l-3.2-10.1 8.5-6.3c1.1-.8.5-2.6-.8-2.6l-10.6-.1-3.4-10.1c-.3-1.4-2.2-1.4-2.6 0zM179.2 252.401l-3.4 10.1-10.6.1c-1.4 0-1.9 1.8-.8 2.6l8.5 6.3-3.2 10.1c-.4 1.3 1.1 2.4 2.2 1.6l8.6-6.2 8.6 6.2c1.1.8 2.6-.3 2.2-1.6l-3.2-10.1 8.5-6.3c1.1-.8.5-2.6-.8-2.6l-10.6-.1-3.4-10.1c-.3-1.4-2.1-1.4-2.6 0zM218.8 104.901l-3.4 10.1-10.6.1c-1.4 0-1.9 1.8-.8 2.6l8.5 6.3-3.2 10.1c-.4 1.3 1.1 2.4 2.2 1.6l8.6-6.2 8.6 6.2c1.1.8 2.6-.3 2.2-1.6l-3.2-10.1 8.5-6.3c1.1-.8.5-2.6-.8-2.6l-10.6-.1-3.4-10.1c-.4-1.3-2.2-1.3-2.6 0zM326.7 291.901l-3.4 10.1-10.6.1c-1.4 0-1.9 1.8-.8 2.6l8.5 6.3-3.2 10.1c-.4 1.3 1.1 2.4 2.2 1.6l8.6-6.2 8.6 6.2c1.1.8 2.6-.3 2.2-1.6l-3.2-10.1 8.5-6.3c1.1-.8.5-2.6-.8-2.6l-10.6-.1-3.4-10.1c-.3-1.3-2.2-1.3-2.6 0z"/></g><path d="M19.1 488.501c-10.5 0-19.1-8.6-19.1-19.1v-426.1c0-10.5 8.5-19 19-19h.2c10.6 0 19.1 8.6 19.1 19.1v426c-.1 10.5-8.6 19.1-19.2 19.1z" fill="#2e3033"/></svg>