<svg xmlns="http://www.w3.org/2000/svg" viewBox="0 0 512.1 512.1"><path d="M503.5 373.85h-468c-4.7 0-8.5-3.8-8.5-8.5V64.65c0-4.7 3.8-8.5 8.5-8.5h468.1c4.7 0 8.5 3.8 8.5 8.5v300.8c-.1 4.6-3.9 8.4-8.6 8.4z" fill="#41479b"/><path d="M512 64.45c0-4.6-3.7-8.3-8.3-8.3h-37.4l-154.9 101.5V56.15h-83.6v101.5l-155-101.5H35.4c-4.6 0-8.3 3.7-8.3 8.3v21.6l132.9 87.1H27.1v83.6H160l-132.9 87.1v21.6c0 4.6 3.7 8.3 8.3 8.3h37.4l154.9-101.5v101.5h83.6v-101.3l154.9 101.5h37.4c4.6 0 8.3-3.7 8.3-8.3v-21.6L379 256.95h133v-83.6H379.1L512 86.15v-21.7z" fill="#f5f5f5"/><g fill="#ff4b55"><path d="M512 189.95H294.6V56.15h-50.1v133.8H27.1v50.2h217.4v133.7h50.1v-133.7H512z"/><path d="M196.5 256.85L27.3 366.65c.6 4 3.9 7.2 8.2 7.2H47l180.3-117.1h-30.8v.1zM355.1 256.85h-30.7l180 116.9c4.2-.4 7.5-3.9 7.5-8.2v-6.9l-156.8-101.8zM27.1 73.75l153.2 99.5H211L31.9 56.95c-2.9 1.3-4.9 4.2-4.9 7.6.1 0 .1 9.2.1 9.2zM342 173.25l169.7-110.2c-.7-3.9-4-6.9-8.1-6.9h-12l-180.2 117.1H342z"/></g><path d="M18.8 483.55c-10.4 0-18.8-8.4-18.8-18.8V47.15c0-10.2 8.3-18.6 18.6-18.6h.1c10.4 0 18.8 8.4 18.8 18.8v417.4c0 10.4-8.4 18.8-18.7 18.8z" fill="#2e3033"/></svg>