<svg xmlns="http://www.w3.org/2000/svg" viewBox="0 0 512.1 512.1"><path d="M503.6 373.9H35.4c-4.6 0-8.4-3.7-8.4-8.4v-301c0-4.6 3.7-8.4 8.4-8.4h468.3c4.6 0 8.4 3.7 8.4 8.4v301c-.1 4.6-3.8 8.4-8.5 8.4z" fill="#ff4b55"/><path d="M316.4 217.6c-2.1-1.8-4.5-3.2-6.9-4.1 13.6-2.7 24.6-14.2 24.6-14.2-6.6 2.9-9.7 3.5-20.3 0-2.7-.9-5.4-1.2-8-1.2 11.6-7.7 17.3-22.6 17.3-22.6-5 5.2-7.6 7-18.7 7.8-2.8.2-5.4 1-7.8 2 7.7-11.6 7.4-27.5 7.4-27.5-2.6 6.8-4.4 9.3-14.3 14.4-2.5 1.3-4.6 3-6.5 4.8 2.7-13.6-3.7-28.2-3.7-28.2.2 7.2-.5 10.3-7.7 18.7-1.8 2.1-3.2 4.5-4.1 6.9-2.7-13.6-14.2-24.6-14.2-24.6 2.9 6.6 3.5 9.7 0 20.3-.9 2.7-1.2 5.4-1.2 8-7.7-11.6-22.6-17.3-22.6-17.3 5.2 5 7 7.6 7.8 18.7.2 2.8 1 5.4 2 7.8-11.6-7.7-27.5-7.4-27.5-7.4 6.8 2.6 9.3 4.4 14.4 14.3 1.3 2.5 3 4.6 4.8 6.5-13.6-2.7-28.2 3.7-28.2 3.7 7.2-.2 10.3.5 18.7 7.7 2.1 1.8 4.5 3.2 6.9 4.1-13.6 2.7-24.6 14.2-24.6 14.2 6.6-2.9 9.7-3.5 20.3 0 2.7.9 5.4 1.2 8 1.2-11.6 7.7-17.3 22.6-17.3 22.6 5-5.2 7.6-7 18.7-7.8 2.8-.2 5.4-1 7.8-2-7.7 11.6-7.4 27.5-7.4 27.5 2.6-6.8 4.4-9.3 14.3-14.4 2.5-1.3 4.6-3 6.5-4.8-2.7 13.6 3.7 28.2 3.7 28.2-.2-7.2.5-10.3 7.7-18.7 1.8-2.1 3.2-4.5 4.1-6.9 2.7 13.6 14.2 24.6 14.2 24.6-2.9-6.6-3.5-9.7 0-20.3.9-2.7 1.2-5.4 1.2-8 7.7 11.6 22.6 17.3 22.6 17.3-5.2-5-7-7.6-7.8-18.7-.2-2.8-1-5.4-2-7.8 11.6 7.7 27.5 7.4 27.5 7.4-6.8-2.6-9.3-4.4-14.4-14.3-1.3-2.5-3-4.6-4.8-6.5 13.6 2.7 28.2-3.7 28.2-3.7-7.2.2-10.3-.4-18.7-7.7z" fill="#ffe15a"/><path d="M303 221.7l33.4-6.7-33.4-6.7 28.3-18.9-33.4 6.6 18.9-28.3-28.3 18.9 6.6-33.4-18.9 28.3-6.7-33.4-6.7 33.4-18.9-28.3 6.6 33.4-28.3-18.9 18.9 28.3-33.4-6.6 28.3 18.9-33.4 6.7 33.4 6.7-28.3 18.9 33.4-6.6-18.9 28.3 28.3-18.9-6.6 33.4 18.9-28.3 6.7 33.4 6.7-33.4 18.9 28.3-6.6-33.4 28.3 18.9-18.9-28.3 33.4 6.6-28.3-18.9z" fill="#ffd25a"/><circle cx="269.5" cy="215" r="33.4" fill="#ffe15a"/><g fill="#41479b"><path d="M123.9 315.3c24.3 0 24.3 8.4 48.5 8.4 24.3 0 24.3-8.4 48.6-8.4s24.3 8.4 48.6 8.4c24.2 0 24.2-8.4 48.4-8.4s24.2 8.4 48.5 8.4c24.2 0 24.2-8.4 48.5-8.4s24.2 8.4 48.5 8.4c24.2 0 24.2-8.4 48.5-8.4h.1v-25.1h-.1c-24.2 0-24.2 8.4-48.5 8.4-24.2 0-24.2-8.4-48.5-8.4s-24.2 8.4-48.5 8.4c-24.2 0-24.2-8.4-48.5-8.4-24.2 0-24.2 8.4-48.4 8.4-24.3 0-24.3-8.4-48.6-8.4s-24.3 8.4-48.6 8.4-24.3-8.4-48.5-8.4-24.2 8.4-48.5 8.4c-24.2 0-24.3-8.3-48.4-8.4v25.1c24.1 0 24.2 8.4 48.4 8.4s24.2-8.4 48.5-8.4zM27 265.2c24.1 0 24.2 8.4 48.4 8.4s24.2-8.4 48.5-8.4 24.3 8.4 48.5 8.4c24.3 0 24.3-8.4 48.6-8.4s24.3 8.4 48.6 8.4c24.2 0 24.2-8.4 48.4-8.4s24.2 8.4 48.5 8.4c24.2 0 24.2-8.4 48.5-8.4s24.2 8.4 48.5 8.4c24.2 0 24.2-8.4 48.5-8.4h.1v-25.1h-.1c-24.2 0-24.2 8.4-48.5 8.4-24.2 0-24.2-8.4-48.5-8.4s-24.2 8.4-48.5 8.4c-24.2 0-24.2-8.4-48.5-8.4-24.2 0-24.2 8.4-48.4 8.4-24.3 0-24.3-8.4-48.6-8.4s-24.3 8.4-48.6 8.4-24.3-8.4-48.5-8.4-24.2 8.4-48.5 8.4c-24.2 0-24.3-8.3-48.4-8.4v25.1z"/></g><g fill="#f5f5f5"><path d="M27 340.4c24.1 0 24.2 8.4 48.4 8.4s24.2-8.4 48.5-8.4 24.3 8.4 48.5 8.4c24.3 0 24.3-8.4 48.6-8.4s24.3 8.4 48.6 8.4c24.2 0 24.2-8.4 48.4-8.4s24.2 8.4 48.5 8.4c24.2 0 24.2-8.4 48.5-8.4s24.2 8.4 48.5 8.4c24.2 0 24.2-8.4 48.5-8.4h.1v-25.1h-.1c-24.2 0-24.2 8.4-48.5 8.4-24.2 0-24.2-8.4-48.5-8.4s-24.2 8.4-48.5 8.4c-24.2 0-24.2-8.4-48.5-8.4-24.2 0-24.2 8.4-48.4 8.4-24.3 0-24.3-8.4-48.6-8.4s-24.3 8.4-48.6 8.4-24.3-8.4-48.5-8.4-24.2 8.4-48.5 8.4c-24.2 0-24.3-8.3-48.4-8.4v25.1zM27 290.3c24.1 0 24.2 8.4 48.4 8.4s24.2-8.4 48.5-8.4 24.3 8.4 48.5 8.4c24.3 0 24.3-8.4 48.6-8.4s24.3 8.4 48.6 8.4c24.2 0 24.2-8.4 48.4-8.4s24.2 8.4 48.5 8.4c24.2 0 24.2-8.4 48.5-8.4s24.2 8.4 48.5 8.4c24.2 0 24.2-8.4 48.5-8.4h.1v-25.1h-.1c-24.2 0-24.2 8.4-48.5 8.4-24.2 0-24.2-8.4-48.5-8.4s-24.2 8.4-48.5 8.4c-24.2 0-24.2-8.4-48.5-8.4-24.2 0-24.2 8.4-48.4 8.4-24.3 0-24.3-8.4-48.6-8.4s-24.3 8.4-48.6 8.4-24.3-8.4-48.5-8.4-24.2 8.4-48.5 8.4c-24.2 0-24.3-8.3-48.4-8.4v25.1zM27 240.1c24.1 0 24.2 8.4 48.4 8.4s24.2-8.4 48.5-8.4 24.3 8.4 48.5 8.4c24.3 0 24.3-8.4 48.6-8.4s24.3 8.4 48.6 8.4c24.2 0 24.2-8.4 48.4-8.4s24.2 8.4 48.5 8.4c24.2 0 24.2-8.4 48.5-8.4s24.2 8.4 48.5 8.4c24.2 0 24.2-8.4 48.5-8.4h.1V215h-.1c-24.2 0-24.2 8.4-48.5 8.4-24.2 0-24.2-8.4-48.5-8.4s-24.2 8.4-48.5 8.4c-24.2 0-24.2-8.4-48.5-8.4-24.2 0-24.2 8.4-48.4 8.4-24.3 0-24.3-8.4-48.6-8.4s-24.3 8.4-48.6 8.4-24.3-8.4-48.5-8.4-24.2 8.4-48.5 8.4c-24.2 0-24.3-8.3-48.4-8.4v25.1z"/></g><path d="M463.4 348.8c-24.2 0-24.2-8.4-48.5-8.4-24.2 0-24.2 8.4-48.5 8.4-24.2 0-24.2-8.4-48.5-8.4-24.2 0-24.2 8.4-48.4 8.4-24.3 0-24.3-8.4-48.6-8.4s-24.3 8.4-48.6 8.4-24.3-8.4-48.5-8.4-24.2 8.4-48.5 8.4c-24.2 0-24.3-8.3-48.4-8.4v25.1c0 4.6 3.7 8.4 8.4 8.4h468.3c4.6 0 8.2-3.7 8.3-8.2v-25.2h-.1c-24.2-.1-24.2 8.3-48.4 8.3z" fill="#41479b"/><path d="M286.9 100.5c40.7-1.6 61.3-19.3 61.3-19.3-2.9 1.1-48.5 4.9-61.6 6.1-8.2.7-18.5 10.1-25 16.9-1.7-4.7-5.1-9.6-11.9-10.6-13.7-2-50.1-4.3-59.1-8.5 0 0 5.8 9 35.8 13 14.4 1.9 22.3 6.9 26.1 10.2l-3.4-.1-5.8-2.9c-5.8-2.9-11.7 2-11.7 2h-9.3c-1.2 0-1.8 1.3-1.1 2.3l.9 1.2c.9 1.2 2.3 1.9 3.9 1.9h9.5c3.4 5.8 16.2 11.9 26.7 11.9 10.6 0 42.9-14.4 46.1-14.4l-29.3-1 7.9-8.7z" fill="#ffe15a"/><path d="M19.2 489.1C8.6 489.1 0 480.5 0 469.9V42c0-10.5 8.5-19 19-19h.2c10.6 0 19.2 8.6 19.2 19.2v427.7c0 10.6-8.6 19.2-19.2 19.2z" fill="#2e3033"/></svg>