<svg xmlns="http://www.w3.org/2000/svg" viewBox="0 0 32 32" width="64" height="64">
    <path style="text-indent:0;text-align:start;line-height:normal;text-transform:none;block-progression:tb;-inkscape-font-specification:Sans" d="M 22 2 L 18.84375 3.9375 L 13.8125 14.21875 L 10.9375 15.46875 C 10.955796 15.31462 11 15.158783 11 15 C 11 12.802706 9.1972944 11 7 11 C 4.8027056 11 3 12.802706 3 15 C 3 17.197294 4.8027056 19 7 19 C 7.5040593 19 7.9919695 18.891484 8.4375 18.71875 L 8.4375 18.75 L 12.46875 16.96875 L 10.25 21.5 L 10.28125 21.53125 C 10.101583 21.984482 10 22.485394 10 23 C 10 24.898462 11.341772 26.473852 13.125 26.875 C 13.196972 27.199933 13.299769 27.576525 13.5 27.96875 C 14.000578 28.949313 15.191017 30 17 30 L 17 28 C 15.871983 28 15.546422 27.550687 15.28125 27.03125 C 15.242416 26.955179 15.216381 26.887805 15.1875 26.8125 C 16.814502 26.304774 18 24.786839 18 23 C 18 20.802706 16.197294 19 14 19 C 13.884121 19 13.769728 19.021429 13.65625 19.03125 L 15.28125 15.75 L 15.3125 15.71875 L 16.625 12.96875 L 22 2 z M 28 8 L 18.0625 12.34375 L 16.71875 15.09375 L 25.875 11.0625 L 28 8 z M 7 13 C 8.116414 13 9 13.883586 9 15 C 9 16.116414 8.116414 17 7 17 C 5.883586 17 5 16.116414 5 15 C 5 13.883586 5.883586 13 7 13 z M 14 21 C 15.116414 21 16 21.883586 16 23 C 16 24.116414 15.116414 25 14 25 C 12.883586 25 12 24.116414 12 23 C 12 22.860448 12.004909 22.724755 12.03125 22.59375 C 12.215637 21.676716 13.023138 21 14 21 z" color="#000" overflow="visible" font-family="Sans"/>
</svg>