<svg xmlns="http://www.w3.org/2000/svg" viewBox="0 0 32 32" width="64" height="64">
    <path style="text-indent:0;text-align:start;line-height:normal;text-transform:none;block-progression:tb;-inkscape-font-specification:Sans" d="M 13 3 C 13 3 11.796266 3.0004059 10.5625 3.625 C 9.3287339 4.2495941 8 5.6874473 8 8 L 8 17 L 8 17.5 L 8 22.375 C 7.5380663 22.148796 7.0454029 22 6.5 22 C 4.5788481 22 3 23.578848 3 25.5 C 3 27.421152 4.5788481 29 6.5 29 C 8.2469491 29 9.7176303 27.681255 9.96875 26 L 10 26 L 10 19 L 12 20.5 L 12 26 L 12.03125 26 C 12.28237 27.681255 13.753051 29 15.5 29 C 17.421152 29 19 27.421152 19 25.5 C 19 23.578848 17.421152 22 15.5 22 C 14.954597 22 14.461934 22.148796 14 22.375 L 14 4 L 14 3 L 13 3 z M 18 3 L 18 5 L 22 5 L 22 6 L 18 6 L 18 8 L 22 8 L 22 9 L 18 9 L 18 11 L 22 11 L 22 12 L 18 12 L 18 14 L 22 14 L 22 15 L 18 15 L 18 17 L 22 17 L 22 18 L 18 18 L 18 20 L 22 20 L 22 28 L 22 29 L 23 29 L 27 29 L 28 29 L 28 28 L 28 4 L 28 3 L 27 3 L 23 3 L 18 3 z M 24 5 L 26 5 L 26 27 L 24 27 L 24 5 z M 12 5.25 L 12 18 L 10 16.5 L 10 8 C 10 6.3625527 10.671266 5.7941559 11.4375 5.40625 C 11.714538 5.2659993 11.754443 5.3110244 12 5.25 z M 6.5 24 C 7.3402719 24 8 24.659728 8 25.5 C 8 26.340272 7.3402719 27 6.5 27 C 5.6597281 27 5 26.340272 5 25.5 C 5 24.659728 5.6597281 24 6.5 24 z M 15.5 24 C 16.340272 24 17 24.659728 17 25.5 C 17 26.340272 16.340272 27 15.5 27 C 14.659728 27 14 26.340272 14 25.5 C 14 24.659728 14.659728 24 15.5 24 z"/>
</svg>