<svg xmlns="http://www.w3.org/2000/svg" viewBox="0 0 32 32" width="64" height="64">
    <path style="text-indent:0;text-align:start;line-height:normal;text-transform:none;block-progression:tb;-inkscape-font-specification:Sans" d="M 8 4 C 6.3549904 4 5 5.3549904 5 7 C 5 8.6450096 6.3549904 10 8 10 C 9.6450096 10 11 8.6450096 11 7 C 11 5.3549904 9.6450096 4 8 4 z M 8 6 C 8.5641294 6 9 6.4358706 9 7 C 9 7.5641294 8.5641294 8 8 8 C 7.4358706 8 7 7.5641294 7 7 C 7 6.4358706 7.4358706 6 8 6 z M 22.5 6 C 20.485068 6 18.786589 7.3517529 18.21875 9.1875 C 17.498138 9.0815815 16.754526 9 16 9 C 12.753666 9 9.8103443 9.9987812 7.625 11.6875 C 5.4396557 13.376219 4 15.803263 4 18.5 C 4 21.196737 5.4396557 23.623781 7.625 25.3125 C 9.8103443 27.001219 12.753666 28 16 28 C 19.246334 28 22.189656 27.001219 24.375 25.3125 C 26.560344 23.623781 28 21.196737 28 18.5 C 28 16.543654 27.243198 14.735663 26 13.25 C 26.614775 12.505286 27 11.549191 27 10.5 C 27 8.026562 24.973438 6 22.5 6 z M 22.5 8 C 23.892562 8 25 9.107438 25 10.5 C 25 11.782346 24.050244 12.812955 22.8125 12.96875 L 21.71875 13.09375 L 21.96875 14.1875 C 21.995168 14.306718 22 14.398561 22 14.5 C 22 15.340812 21.340812 16 20.5 16 C 19.659188 16 19 15.340812 19 14.5 C 19 13.885815 19.355144 13.360316 19.875 13.125 L 20.875 12.6875 L 20.34375 11.71875 C 20.126755 11.339008 20 10.940826 20 10.5 C 20 9.107438 21.107438 8 22.5 8 z M 16 11 C 16.731398 11 17.439948 11.079397 18.125 11.1875 C 18.199618 11.427405 18.290039 11.668373 18.375 11.90625 C 17.590897 12.548225 17 13.413239 17 14.5 C 17 16.421188 18.578812 18 20.5 18 C 22.365444 18 23.880799 16.501391 23.96875 14.65625 C 24.12034 14.602822 24.262155 14.536448 24.40625 14.46875 C 25.422892 15.655601 26 17.028156 26 18.5 C 26 20.497263 24.952156 22.330969 23.15625 23.71875 C 21.360344 25.106531 18.828666 26 16 26 C 13.171334 26 10.639656 25.106531 8.84375 23.71875 C 7.0478443 22.330969 6 20.497263 6 18.5 C 6 16.502737 7.0478443 14.669031 8.84375 13.28125 C 10.639656 11.893469 13.171334 11 16 11 z M 15 13 C 13.471881 13 11.844824 13.463884 10.5 14.28125 C 9.1551755 15.098616 8 16.360295 8 18 L 10 18 C 10 17.337705 10.532324 16.607134 11.53125 16 C 12.530176 15.392866 13.903119 15 15 15 L 15 13 z" color="#000" overflow="visible" font-family="Sans"/>
</svg>