<svg xmlns="http://www.w3.org/2000/svg" viewBox="0 0 32 32" width="64" height="64">
    <path d="M 12 2 L 12 3 L 12 7 L 12 8 L 13 8 L 14 8 L 14 9.0625 C 9.8975954 9.5017181 8.125 12.53125 8.125 12.53125 L 8 12.75 L 8 13 L 8 29 L 8 30 L 9 30 L 21 30 L 22 30 L 22 29 L 22 13 L 22 12.75 L 21.875 12.53125 C 21.875 12.53125 20.102405 9.5017181 16 9.0625 L 16 8 L 17 8 L 18 8 L 18 7 L 18 3 L 18 2 L 17 2 L 13 2 L 12 2 z M 24 2 C 23.447715 2 23 2.4477153 23 3 C 23 3.5522847 23.447715 4 24 4 C 24.552285 4 25 3.5522847 25 3 C 25 2.4477153 24.552285 2 24 2 z M 14 4 L 16 4 L 16 6 L 14 6 L 14 4 z M 21 4 C 20.447715 4 20 4.4477153 20 5 C 20 5.5522847 20.447715 6 21 6 C 21.552285 6 22 5.5522847 22 5 C 22 4.4477153 21.552285 4 21 4 z M 24 6 C 23.447715 6 23 6.4477153 23 7 C 23 7.5522847 23.447715 8 24 8 C 24.552285 8 25 7.5522847 25 7 C 25 6.4477153 24.552285 6 24 6 z M 15 11 C 16.739247 11 17.910365 11.480434 18.6875 12 L 11.3125 12 C 12.089635 11.480434 13.260753 11 15 11 z M 10 14 L 20 14 L 20 28 L 10 28 L 10 14 z M 15 18 C 13.35499 18 12 19.35499 12 21 C 12 22.64501 13.35499 24 15 24 C 16.64501 24 18 22.64501 18 21 C 18 19.35499 16.64501 18 15 18 z M 15 20 C 15.564128 20 16 20.435872 16 21 C 16 21.564128 15.564128 22 15 22 C 14.435872 22 14 21.564128 14 21 C 14 20.435872 14.435872 20 15 20 z"/>
</svg>