<svg xmlns="http://www.w3.org/2000/svg" viewBox="0 0 32 32" width="64" height="64">
    <path style="text-indent:0;text-align:start;line-height:normal;text-transform:none;block-progression:tb;-inkscape-font-specification:Sans" d="M 25 3 C 22.794 3 21 4.794 21 7 C 21 7.356 21.06925 7.70225 21.15625 8.03125 L 23.59375 5.59375 C 23.67575 5.51175 23.75075 5.441 23.84375 5.375 C 23.85475 5.367 23.863 5.35175 23.875 5.34375 C 23.969 5.27975 24.0855 5.2335 24.1875 5.1875 C 24.2025 5.1805 24.20275 5.16225 24.21875 5.15625 C 24.31675 5.11425 24.42725 5.0875 24.53125 5.0625 C 24.55525 5.0565 24.56975 5.03625 24.59375 5.03125 C 24.72375 5.00325 24.864 5 25 5 C 25.136 5 25.27625 5.00525 25.40625 5.03125 C 25.43025 5.03625 25.44475 5.0575 25.46875 5.0625 C 25.57275 5.0875 25.68325 5.11525 25.78125 5.15625 C 25.79625 5.16225 25.7985 5.1805 25.8125 5.1875 C 25.9155 5.2345 26.03 5.27975 26.125 5.34375 C 26.225 5.41275 26.31925 5.50575 26.40625 5.59375 C 26.49325 5.68075 26.58825 5.776 26.65625 5.875 C 26.72025 5.969 26.7655 6.0845 26.8125 6.1875 C 26.8195 6.2025 26.83775 6.20375 26.84375 6.21875 C 26.88575 6.31675 26.9125 6.42725 26.9375 6.53125 C 26.9435 6.55525 26.96375 6.56975 26.96875 6.59375 C 26.99675 6.72475 27 6.864 27 7 C 27 7.136 26.99475 7.27625 26.96875 7.40625 C 26.96375 7.43025 26.9425 7.44475 26.9375 7.46875 C 26.9125 7.57275 26.88475 7.68325 26.84375 7.78125 C 26.83775 7.79625 26.8185 7.7975 26.8125 7.8125 C 26.7665 7.9155 26.71925 8.031 26.65625 8.125 C 26.64825 8.136 26.633 8.14525 26.625 8.15625 C 26.559 8.24925 26.48825 8.32425 26.40625 8.40625 L 23.96875 10.84375 C 24.29575 10.93075 24.644 11 25 11 C 27.206 11 29 9.206 29 7 C 29 4.794 27.206 3 25 3 z M 24.875 6 A 1.0001 1.0001 0 0 0 24.28125 6.28125 L 20.4375 10.125 C 19.458937 9.4313946 18.284628 9 17 9 C 15.411991 9 14.069471 9.7399143 13 10.75 C 11.930529 9.7399143 10.588009 9 9 9 C 5.6983746 9 3 11.698375 3 15 C 3 18.971654 5.4450324 22.390462 7.78125 24.84375 C 10.117468 27.297038 12.4375 28.84375 12.4375 28.84375 L 13 29.1875 L 13.5625 28.84375 C 13.5625 28.84375 15.886062 27.254806 18.21875 24.78125 C 20.551438 22.307694 23 18.890465 23 15 C 23 13.715372 22.568605 12.541063 21.875 11.5625 L 25.71875 7.71875 A 1.0001 1.0001 0 0 0 24.875 6 z M 9 11 C 10.210776 11 11.266923 11.553141 12 12.40625 L 12 12.53125 L 7.375 16.1875 L 8.625 17.75 L 12 15.0625 L 12 17.5 L 8.40625 20.1875 L 9.59375 21.78125 L 12 19.96875 L 12 25.96875 C 11.30485 25.444551 10.357026 24.664067 9.21875 23.46875 C 7.0549676 21.196538 5 18.126346 5 15 C 5 12.779625 6.7796254 11 9 11 z M 17 11 C 19.220375 11 21 12.779625 21 15 C 21 18.022535 18.948562 21.108056 16.78125 23.40625 C 15.6445 24.611647 14.69374 25.400408 14 25.9375 L 14 19.96875 L 16.40625 21.78125 L 17.59375 20.1875 L 14 17.5 L 14 15.0625 L 17.375 17.75 L 18.625 16.1875 L 14 12.53125 L 14 12.40625 C 14.732894 11.554387 15.789976 11 17 11 z"/>
</svg>