<svg xmlns="http://www.w3.org/2000/svg" viewBox="0 0 32 32" width="64" height="64">
    <path style="text-indent:0;text-align:start;line-height:normal;text-transform:none;block-progression:tb;-inkscape-font-specification:Sans" d="M 10 4 C 5.593562 4 2 7.593562 2 12 C 2 14.421642 3.0721011 16.593428 4.78125 18.0625 L 3 27.15625 L 3 27.21875 L 3 27.25 C 2.8788172 28.707469 4.0373845 30 5.5 30 L 7 30 L 9 30 L 9.8125 30 L 12 30 L 12 28 L 10.21875 28 L 11.84375 19.875 C 15.639693 19.441742 19.890091 17.861646 23.25 16.96875 L 24 16.78125 L 24 16 L 24 9 L 24 8.25 L 23.25 8.03125 C 21.296992 7.4986114 19.032099 6.5274493 16.75 5.65625 C 14.467901 4.7850507 12.180888 4 10 4 z M 10 6 C 11.685112 6 13.811099 6.6524493 16.03125 7.5 C 18.002964 8.2527089 20.048188 9.084427 22 9.6875 L 22 15.25 C 18.042915 16.351227 13.330969 18 10 18 C 6.674438 18 4 15.325562 4 12 C 4 8.674438 6.674438 6 10 6 z M 10 8 C 7.8027056 8 6 9.8027058 6 12 C 6 14.197294 7.8027056 16 10 16 C 12.197294 16 14 14.197294 14 12 C 14 9.8027057 12.197294 8 10 8 z M 26 9 L 26 11 L 31 11 L 31 9 L 26 9 z M 10 10 C 11.116414 10 12 10.883586 12 12 C 12 13.116414 11.116414 14 10 14 C 8.883586 14 8 13.116414 8 12 C 8 10.883586 8.883586 10 10 10 z M 26 12 L 26 14 L 31 14 L 31 12 L 26 12 z M 26 15 L 26 17 L 31 17 L 31 15 L 26 15 z M 6.59375 19.21875 C 7.5687828 19.682557 8.6402476 19.968735 9.78125 20 L 8.1875 28 L 7 28 L 5.5 28 C 5.1766155 28 4.9731828 27.760031 5 27.4375 L 6.59375 19.21875 z"/>
</svg>