<svg xmlns="http://www.w3.org/2000/svg" viewBox="0 0 32 32" width="64" height="64">
    <path style="text-indent:0;text-align:start;line-height:normal;text-transform:none;block-progression:tb;-inkscape-font-specification:Sans" d="M 15 4 C 10.041484 4 6 8.0414839 6 13 L 6 20 L 5 20 L 4 20 L 4 21 C 4 25.406438 7.593562 29 12 29 L 20 29 C 24.406438 29 28 25.406438 28 21 L 28 20 L 27 20 L 20 20 L 19.28125 20 L 19.0625 20.6875 C 18.88871 21.191926 17.689083 22 15.96875 22 C 14.248417 22 13.125335 21.232691 12.9375 20.6875 L 12.71875 20 L 12 20 L 8 20 L 8 13 C 8 9.790133 10.18845 7.2070191 13.125 6.375 C 13.273691 6.962294 13.649769 7.3876881 13.96875 7.59375 C 14.358616 7.8456034 14.71875 7.96875 14.71875 7.96875 L 14.84375 8 L 15 8 L 17 8 L 17.09375 8 L 17.21875 7.96875 C 17.21875 7.96875 17.615676 7.907257 18.03125 7.65625 C 18.446824 7.4052432 19 6.8168754 19 6 C 19 5.1831246 18.446824 4.5947568 18.03125 4.34375 C 17.615676 4.0927432 17.21875 4.03125 17.21875 4.03125 L 17.09375 4 L 17 4 L 15 4 z M 16 10 C 15.447715 10 15 10.447715 15 11 C 15 11.552285 15.447715 12 16 12 C 16.552285 12 17 11.552285 17 11 C 17 10.447715 16.552285 10 16 10 z M 14 13 C 13.447715 13 13 13.447715 13 14 C 13 14.552285 13.447715 15 14 15 C 14.552285 15 15 14.552285 15 14 C 15 13.447715 14.552285 13 14 13 z M 18 13 C 17.447715 13 17 13.447715 17 14 C 17 14.552285 17.447715 15 18 15 C 18.552285 15 19 14.552285 19 14 C 19 13.447715 18.552285 13 18 13 z M 12 16 C 11.447715 16 11 16.447715 11 17 C 11 17.552285 11.447715 18 12 18 C 12.552285 18 13 17.552285 13 17 C 13 16.447715 12.552285 16 12 16 z M 16 16 C 15.447715 16 15 16.447715 15 17 C 15 17.552285 15.447715 18 16 18 C 16.552285 18 17 17.552285 17 17 C 17 16.447715 16.552285 16 16 16 z M 20 16 C 19.447715 16 19 16.447715 19 17 C 19 17.552285 19.447715 18 20 18 C 20.552285 18 21 17.552285 21 17 C 21 16.447715 20.552285 16 20 16 z M 6.1875 22 L 11.46875 22 C 12.319353 23.299333 14.020746 24 15.96875 24 C 17.920563 24 19.658954 23.321387 20.53125 22 L 25.8125 22 C 25.324363 24.827389 22.971688 27 20 27 L 12 27 C 9.0283119 27 6.6756368 24.827389 6.1875 22 z" color="#000" overflow="visible" font-family="Sans"/>
</svg>