<svg xmlns="http://www.w3.org/2000/svg" viewBox="0 0 32 32" width="64" height="64">
    <path style="text-indent:0;text-align:start;line-height:normal;text-transform:none;block-progression:tb;-inkscape-font-specification:Sans" d="M 13 4 L 13 5 L 13 8 L 13 9 L 14 9 L 15 9 L 15 10 L 6 10 L 5 10 L 5 11 L 5 27 L 5 28 L 6 28 L 26 28 L 27 28 L 27 27 L 27 11 L 27 10 L 26 10 L 17 10 L 17 9 L 18 9 L 19 9 L 19 8 L 19 5 L 19 4 L 18 4 L 14 4 L 13 4 z M 15 6 L 17 6 L 17 7 L 15 7 L 15 6 z M 7 12 L 25 12 L 25 18 L 22 18 L 22 20 L 25 20 L 25 26 L 7 26 L 7 20 L 10 20 L 10 18 L 7 18 L 7 12 z M 11 15 L 11 16 L 11 22 L 11 23 L 12 23 L 20 23 L 21 23 L 21 22 L 21 16 L 21 15 L 20 15 L 12 15 L 11 15 z M 13 17 L 19 17 L 19 21 L 13 21 L 13 17 z"/>
</svg>