<svg xmlns="http://www.w3.org/2000/svg" viewBox="0 0 32 32" width="64" height="64">
    <path style="text-indent:0;text-align:start;line-height:normal;text-transform:none;block-progression:tb;-inkscape-font-specification:Sans" d="M 29 4 C 26.07156 4 23.937724 6.0836275 22.5625 8 C 22.4068 8.2169674 22.293571 8.4134299 22.15625 8.625 C 20.141105 6.4004072 17.229754 5 14 5 C 7.9365932 5 3 9.9365932 3 16 C 3 20.772078 6.05416 24.82486 10.3125 26.34375 L 10.40625 26.5625 C 10.468512 26.53357 10.532446 26.499971 10.59375 26.46875 C 11.66213 26.8159 12.817688 27 14 27 C 16.587564 27 18.96606 26.095476 20.84375 24.59375 C 21.048959 24.897822 21.271997 25.17747 21.53125 25.4375 C 22.43721 26.346178 23.663667 27 25 27 L 25 30 L 27 30 L 27 26 L 27 25 L 26 25 L 25 25 C 24.336333 25 23.56279 24.627072 22.96875 24.03125 C 22.37471 23.435428 22 22.654639 22 22 L 22 19.75 L 22 18.96875 L 21.25 18.78125 C 21.25 18.78125 20.158421 18.505495 19.59375 18.34375 C 19.5149 18.32119 19.57214 18.34485 19.5625 18.3125 C 19.5529 18.28013 19.5556 18.16716 19.625 18.03125 C 19.958684 17.377831 22.3125 12.625 22.3125 12.625 L 22.3125 12.59375 L 22.34375 12.53125 C 22.34375 12.53125 22.986474 10.861128 24.1875 9.1875 C 25.388526 7.5138725 27.05344 6 29 6 L 29 4 z M 14 7 C 16.895489 7 19.447499 8.3531434 21.09375 10.46875 C 20.740437 11.182783 20.549666 11.670288 20.53125 11.71875 C 20.530299 11.72125 20.46875 11.8125 20.46875 11.8125 C 20.39289 11.964595 18.127359 16.538387 17.84375 17.09375 C 17.564197 17.64084 17.444392 18.268624 17.625 18.875 C 17.805608 19.481376 18.348102 20.054559 19.03125 20.25 C 19.376781 20.34897 19.629638 20.400955 20 20.5 L 20 22 C 20 22.221227 20.029357 22.44279 20.0625 22.65625 C 18.462948 24.110639 16.337756 25 14 25 C 13.499585 25 13.009102 24.952953 12.53125 24.875 C 13.170581 24.054498 13.5625 23.067374 13.5625 22 L 13.5625 20.5 C 13.932862 20.40095 14.185719 20.348974 14.53125 20.25 C 15.214398 20.054559 15.725642 19.481376 15.90625 18.875 C 16.086858 18.268624 15.9983 17.64084 15.71875 17.09375 C 15.430434 16.529169 13.03125 11.71875 13.03125 11.71875 C 12.956701 11.374882 12.501331 9.4506645 10.875 7.5625 C 11.848352 7.2035008 12.899624 7 14 7 z M 9.03125 8.5 C 10.738429 10.283292 11.15625 12.375 11.15625 12.375 L 11.1875 12.5 L 11.25 12.625 C 11.25 12.625 13.603816 17.377831 13.9375 18.03125 C 14.00695 18.16716 14.00964 18.280126 14 18.3125 C 13.9904 18.34487 14.0476 18.3212 13.96875 18.34375 C 13.404079 18.505495 12.28125 18.78125 12.28125 18.78125 L 11.5625 18.96875 L 11.5625 19.75 L 11.5625 22 C 11.5625 22.728106 11.062209 23.607439 10.375 24.21875 C 7.2125056 22.825311 5 19.68673 5 16 C 5 12.86087 6.6053049 10.109649 9.03125 8.5 z M 8 13 C 7.4477153 13 7 13.447715 7 14 C 7 14.552285 7.4477153 15 8 15 C 8.5522847 15 9 14.552285 9 14 C 9 13.447715 8.5522847 13 8 13 z M 25 13 C 24.447715 13 24 13.447715 24 14 C 24 14.552285 24.447715 15 25 15 C 25.552285 15 26 14.552285 26 14 C 26 13.447715 25.552285 13 25 13 z" color="#000" overflow="visible" font-family="Sans"/>
</svg>