<svg xmlns="http://www.w3.org/2000/svg" viewBox="0 0 32 32" width="64" height="64">
    <path style="text-indent:0;text-align:start;line-height:normal;text-transform:none;block-progression:tb;-inkscape-font-specification:Sans" d="M 4 5 L 4 6.5625 C 2.8819124 7.1496609 2 8.1600353 2 9.5 C 2 10.928781 2.8847978 12.147699 4.125 12.6875 C 5.1021566 22.55811 9.2958606 28 16 28 C 22.77535 28 26.76499 22.85626 27.875 12.71875 C 29.122376 12.182076 30 10.933971 30 9.5 C 30 8.1600353 29.118088 7.1496609 28 6.5625 L 28 5 L 26 5 L 26 7.0625 L 26 7.875 L 26.8125 8.03125 C 27.494751 8.1699724 28 8.7646697 28 9.5 C 28 10.245304 27.480126 10.840863 26.78125 10.96875 C 24.628728 11.107302 23.079364 14.035517 21.5625 16.875 C 20.9895 17.949 20.1245 19.54525 19.6875 19.90625 C 19.1815 19.84725 18.66525 19.43025 18.15625 19.03125 C 17.51125 18.52425 16.845 18 16 18 C 15.155 18 14.48875 18.52525 13.84375 19.03125 C 13.33475 19.43125 12.8185 19.84725 12.3125 19.90625 C 11.8745 19.54525 11.0135 17.953 10.4375 16.875 C 8.920636 14.040397 7.3610875 11.107117 5.21875 10.96875 C 4.5198744 10.840863 4 10.245304 4 9.5 C 4 8.7646697 4.5052487 8.1699724 5.1875 8.03125 L 6 7.875 L 6 7.0625 L 6 5 L 4 5 z M 11.5 6 C 10.671573 6 10 6.6715729 10 7.5 C 10 8.3284271 10.671573 9 11.5 9 C 12.328427 9 13 8.3284271 13 7.5 C 13 6.6715729 12.328427 6 11.5 6 z M 20.5 6 C 19.671573 6 19 6.6715729 19 7.5 C 19 8.3284271 19.671573 9 20.5 9 C 21.328427 9 22 8.3284271 22 7.5 C 22 6.6715729 21.328427 6 20.5 6 z M 16 13.96875 C 15.165171 13.96765 14.287855 14.05529 13.5 14.1875 C 12.712145 14.319706 12.073762 14.418514 11.5 14.75 L 12.5 16.5 C 12.53724 16.47849 13.135855 16.269794 13.8125 16.15625 C 14.489145 16.042706 15.303829 15.967841 16 15.96875 C 16.707793 15.969661 17.513149 16.04153 18.1875 16.15625 C 18.861851 16.270974 19.473434 16.468037 19.53125 16.5 L 20.46875 14.75 C 19.911566 14.441963 19.314649 14.320776 18.53125 14.1875 C 17.747851 14.054224 16.846207 13.969839 16 13.96875 z" color="#000" overflow="visible" font-family="Sans"/>
</svg>