<svg xmlns="http://www.w3.org/2000/svg" viewBox="0 0 32 32" width="64" height="64">
    <path style="text-indent:0;text-align:start;line-height:normal;text-transform:none;block-progression:tb;-inkscape-font-specification:Sans" d="M 4 5 L 4 6.5625 C 2.8819124 7.1496609 2 8.1600353 2 9.5 C 2 10.894186 2.8387105 12.096875 4.03125 12.65625 C 3.8994254 17.900245 5.8708702 21.266335 6.9375 22.6875 C 8.4475 24.6975 10.4005 26 11.9375 26 L 12.9375 26 L 12.9375 24.4375 C 13.914998 24.785671 14.929259 25 16 25 C 17.036718 25 18.046606 24.803482 19 24.46875 L 19 26 L 20 26 C 21.536 26 23.49 24.6975 25 22.6875 C 26.064535 21.269126 28.029598 17.913955 27.90625 12.6875 C 29.132919 12.141929 30 10.918979 30 9.5 C 30 8.1600353 29.118088 7.1496609 28 6.5625 L 28 5 L 26 5 L 26 7 L 25 7 C 25 7.11 24.864 18 20 18 L 19 18 L 19 22.3125 C 18.037432 22.748817 17.042239 23 16 23 C 14.942004 23 13.914876 22.733873 12.9375 22.28125 L 12.9375 18 L 11.9375 18 C 7.0725 18 6.9375 7.11 6.9375 7 L 6 7 L 6 5 L 4 5 z M 11.5 6 C 10.671573 6 10 6.6715729 10 7.5 C 10 8.3284271 10.671573 9 11.5 9 C 12.328427 9 13 8.3284271 13 7.5 C 13 6.6715729 12.328427 6 11.5 6 z M 20.5 6 C 19.671573 6 19 6.6715729 19 7.5 C 19 8.3284271 19.671573 9 20.5 9 C 21.328427 9 22 8.3284271 22 7.5 C 22 6.6715729 21.328427 6 20.5 6 z M 27.34375 8.25 C 27.740513 8.5166806 28 8.9741183 28 9.5 C 28 9.821054 27.88444 10.103683 27.71875 10.34375 C 27.62821 9.6761846 27.506326 8.9676933 27.34375 8.25 z M 4.59375 8.3125 C 4.4451463 8.9756584 4.3055251 9.6297873 4.21875 10.25 C 4.0905111 10.029392 4 9.779489 4 9.5 C 4 9.0072684 4.2387872 8.5840624 4.59375 8.3125 z M 16 13.96875 C 15.165171 13.96765 14.287855 14.05529 13.5 14.1875 C 12.712145 14.319706 12.073762 14.418514 11.5 14.75 L 12.5 16.5 C 12.53724 16.47849 13.135855 16.269794 13.8125 16.15625 C 14.489145 16.042706 15.303829 15.967841 16 15.96875 C 16.707793 15.969661 17.513149 16.04153 18.1875 16.15625 C 18.861851 16.270974 19.473434 16.468037 19.53125 16.5 L 20.46875 14.75 C 19.911566 14.441963 19.314649 14.320776 18.53125 14.1875 C 17.747851 14.054224 16.846207 13.969839 16 13.96875 z" color="#000" overflow="visible" font-family="Sans"/>
</svg>