<svg xmlns="http://www.w3.org/2000/svg" viewBox="0 0 32 32" width="64" height="64">
    <path d="M 4 5 L 4 6.5625 C 2.8819124 7.1496609 2 8.1600353 2 9.5 C 2 10.925974 2.9527839 12.02099 4.1875 12.5625 C 4.580389 15.654866 6.0114322 18.828587 8.21875 21.21875 C 9.1117656 27.112058 12.587875 28 16 28 C 19.4104 28 22.888677 27.112058 23.78125 21.21875 C 25.98278 18.828858 27.38609 15.657025 27.78125 12.5625 C 29.029007 12.026166 30 10.935684 30 9.5 C 30 8.1600353 29.118088 7.1496609 28 6.5625 L 28 5 L 26 5 L 26 7.0625 L 26 7.875 L 26.8125 8.03125 C 27.494751 8.1699724 28 8.7646697 28 9.5 C 28 10.245304 27.480752 10.840147 26.78125 10.96875 L 26.03125 11.09375 L 25.96875 11.875 C 25.80534 13.770793 25.094484 15.821193 24 17.625 L 24 17 C 24 14.905 18.34675 12 17.34375 12 C 16.87475 12 16.41 12.1155 16 12.3125 C 15.591 12.1155 15.12425 12 14.65625 12 C 13.65325 12 8 14.906 8 17 L 8 17.59375 C 6.9144989 15.794208 6.1936139 13.763416 6.03125 11.875 L 5.96875 11.09375 L 5.21875 10.96875 C 4.5198744 10.840863 4 10.245304 4 9.5 C 4 8.7646697 4.5052487 8.1699724 5.1875 8.03125 L 6 7.875 L 6 7.0625 L 6 5 L 4 5 z M 11.5 6 C 10.671573 6 10 6.6715729 10 7.5 C 10 8.3284271 10.671573 9 11.5 9 C 12.328427 9 13 8.3284271 13 7.5 C 13 6.6715729 12.328427 6 11.5 6 z M 20.5 6 C 19.671573 6 19 6.6715729 19 7.5 C 19 8.3284271 19.671573 9 20.5 9 C 21.328427 9 22 8.3284271 22 7.5 C 22 6.6715729 21.328427 6 20.5 6 z M 16 15 C 19.095871 15 21.078755 16.494707 21.90625 17.28125 C 21.208029 17.67512 20.743335 18.391415 20.375 18.96875 C 20.117 19.37375 19.721 20 19.5 20 C 19.274 20 19.23425 19.966 19.15625 19.75 C 19.03025 19.392 19.03125 18.84 19.03125 18.375 L 19.03125 17.59375 L 18.28125 17.40625 C 18.03225 17.33925 16.75 17 16 17 C 15.25 17 13.96775 17.33825 13.71875 17.40625 L 12.96875 17.65625 L 12.96875 18.40625 C 12.96975 18.75925 12.97575 19.2995 12.84375 19.6875 C 12.73875 19.9975 12.654 20 12.5 20 C 12.278 20 11.884 19.37375 11.625 18.96875 C 11.256665 18.391415 10.791938 17.67512 10.09375 17.28125 C 10.923285 16.493075 12.904129 15 16 15 z"/>
</svg>