<?xml version="1.0" encoding="iso-8859-1"?>
<!-- Generator: Adobe Illustrator 19.2.1, SVG Export Plug-In . SVG Version: 6.00 Build 0)  -->
<svg version="1.1" xmlns="http://www.w3.org/2000/svg" xmlns:xlink="http://www.w3.org/1999/xlink" x="0px" y="0px"
	 viewBox="0 0 15.862 13.039" style="enable-background:new 0 0 15.862 13.039;" xml:space="preserve">
<g id="Layer_2">
	<g id="_x31_6x16">
		<g>
			<polyline style="fill:none;stroke:#66CCFF;stroke-linejoin:round;" points="1,6.539 5.931,6.539 6.931,4.519 8.931,8.529 
				9.931,6.539 14,6.539 			"/>
		</g>
		<g>
			<path style="fill:none;stroke:#4E5F80;stroke-linecap:round;stroke-linejoin:round;stroke-miterlimit:10;" d="M14.58,1.709
				c-0.828-0.953-2.073-1.386-3.349-1.142C10.524,0.702,9.887,1.09,9.378,1.6L7.931,3.047L6.483,1.6
				C5.974,1.09,5.338,0.702,4.631,0.567C3.354,0.323,2.109,0.756,1.281,1.709C0.101,3.068,0.305,5.327,1.578,6.6l5.646,5.646
				c0.391,0.391,1.024,0.391,1.414,0L14.284,6.6C15.557,5.327,15.761,3.068,14.58,1.709z"/>
		</g>
	</g>
</g>
<g id="Layer_1">
</g>
</svg>
