<?xml version="1.0" encoding="iso-8859-1"?>
<!-- Generator: Adobe Illustrator 19.2.1, SVG Export Plug-In . SVG Version: 6.00 Build 0)  -->
<svg version="1.1" xmlns="http://www.w3.org/2000/svg" xmlns:xlink="http://www.w3.org/1999/xlink" x="0px" y="0px"
	 viewBox="0 0 16 16" style="enable-background:new 0 0 16 16;" xml:space="preserve">
<g id="Layer_15">
	<path style="fill:none;stroke:#66CCFF;stroke-linecap:round;stroke-linejoin:round;" d="M8.5,1c0,4.136-3.364,7.5-7.5,7.5"/>
	<path style="fill:none;stroke:#66CCFF;stroke-linecap:round;stroke-linejoin:round;" d="M7.515,15.484
		C7.505,15.324,7.5,15.163,7.5,15c0-4.136,3.364-7.5,7.5-7.5c0.163,0,0.324,0.005,0.484,0.016"/>
	<g>
		
			<line style="fill:none;stroke:#66CCFF;stroke-linecap:round;stroke-linejoin:round;" x1="7.308" y1="2.536" x2="9.251" y2="3.009"/>
		
			<line style="fill:none;stroke:#66CCFF;stroke-linecap:round;stroke-linejoin:round;" x1="6.349" y1="4.683" x2="7.995" y2="5.82"/>
		
			<line style="fill:none;stroke:#66CCFF;stroke-linecap:round;stroke-linejoin:round;" x1="4.683" y1="6.349" x2="5.82" y2="7.995"/>
		
			<line style="fill:none;stroke:#66CCFF;stroke-linecap:round;stroke-linejoin:round;" x1="2.536" y1="7.308" x2="3.009" y2="9.251"/>
		
			<line style="fill:none;stroke:#66CCFF;stroke-linecap:round;stroke-linejoin:round;" x1="8.692" y1="13.464" x2="6.749" y2="12.991"/>
		
			<line style="fill:none;stroke:#66CCFF;stroke-linecap:round;stroke-linejoin:round;" x1="9.651" y1="11.317" x2="8.005" y2="10.18"/>
		
			<line style="fill:none;stroke:#66CCFF;stroke-linecap:round;stroke-linejoin:round;" x1="11.317" y1="9.651" x2="10.18" y2="8.005"/>
		
			<line style="fill:none;stroke:#66CCFF;stroke-linecap:round;stroke-linejoin:round;" x1="13.464" y1="8.692" x2="12.991" y2="6.749"/>
	</g>
	
		<circle style="fill:none;stroke:#4E5F80;stroke-linecap:round;stroke-linejoin:round;stroke-miterlimit:10;" cx="8" cy="8" r="7.5"/>
</g>
<g id="Layer_1">
</g>
</svg>
