<?xml version="1.0" encoding="iso-8859-1"?>
<!-- Generator: Adobe Illustrator 19.2.1, SVG Export Plug-In . SVG Version: 6.00 Build 0)  -->
<svg version="1.1" xmlns="http://www.w3.org/2000/svg" xmlns:xlink="http://www.w3.org/1999/xlink" x="0px" y="0px"
	 viewBox="0 0 15.926 15.952" style="enable-background:new 0 0 15.926 15.952;" xml:space="preserve">
<g id="Layer_22">
	<g>
		<path style="fill:none;stroke:#66CCFF;stroke-linejoin:round;" d="M15.464,6.509L9.482,6.502C7.265,6.502,5.5,8.3,5.5,10.506
			v1.446"/>
		<circle style="fill:#66CCFF;" cx="4.882" cy="12" r="1"/>
		<line style="fill:none;stroke:#66CCFF;stroke-linejoin:round;" x1="8" y1="11.452" x2="6" y2="11.452"/>
		<line style="fill:none;stroke:#66CCFF;stroke-linejoin:round;" x1="9.5" y1="6.952" x2="9.5" y2="8.952"/>
		<line style="fill:none;stroke:#66CCFF;stroke-linejoin:round;" x1="10" y1="13.452" x2="15" y2="13.452"/>
		<line style="fill:none;stroke:#66CCFF;stroke-linejoin:round;" x1="12.5" y1="14.952" x2="12.5" y2="11.952"/>
	</g>
	<g>
		<path style="fill:none;stroke:#4E5F80;stroke-linecap:round;stroke-linejoin:round;stroke-miterlimit:10;" d="M5.124,14.494
			C6.453,14.401,7.5,13.208,7.5,11.877v-1.371c0-1.107,0.84-2.003,1.947-2l4.998,0.015c0.606,0.002,1.075-0.534,0.986-1.134
			c-0.544-3.676-3.67-6.839-7.423-6.839c-4.136,0-7.474,3.34-7.474,7.476C0.533,10.691,2.418,14.681,5.124,14.494z"/>
		<path style="fill:none;stroke:#4E5F80;stroke-linecap:round;stroke-linejoin:round;stroke-miterlimit:10;" d="M7,11.452
			c0,0,7.5,0,8.5,0V14.5c0,0.552-0.566,0.952-1.118,0.952h-3c-1.105,0-1.882-0.848-1.882-1.952V8.506v0.446"/>
	</g>
</g>
<g id="Layer_1">
</g>
</svg>
