<?xml version="1.0" encoding="iso-8859-1"?>
<!-- Generator: Adobe Illustrator 19.2.1, SVG Export Plug-In . SVG Version: 6.00 Build 0)  -->
<svg version="1.1" xmlns="http://www.w3.org/2000/svg" xmlns:xlink="http://www.w3.org/1999/xlink" x="0px" y="0px"
	 viewBox="0 0 16 16" style="enable-background:new 0 0 16 16;" xml:space="preserve">
<g id="Layer_25">
	<line style="fill:none;stroke:#66CCFF;" x1="1" y1="6.5" x2="3" y2="6.5"/>
	<line style="fill:none;stroke:#66CCFF;" x1="13" y1="6.5" x2="15" y2="6.5"/>
	<line style="fill:none;stroke:#66CCFF;" x1="4" y1="13.5" x2="12" y2="13.5"/>
	<path style="fill:none;stroke:#66CCFF;stroke-linecap:round;stroke-linejoin:round;" d="M8.5,9.5v-2c0-0.552,0.448-1,1-1l0,0
		c0.552,0,1,0.448,1,1v2c0,0.552-0.448,1-1,1l0,0C8.948,10.5,8.5,10.052,8.5,9.5z"/>
	<polyline style="fill:none;stroke:#66CCFF;stroke-linecap:round;stroke-linejoin:round;" points="6.5,11 6.5,6.5 5.5,7.75 	"/>
	<path style="fill:none;stroke:#4E5F80;stroke-linecap:round;stroke-linejoin:round;stroke-miterlimit:10;" d="M13.5,0.5
		c1.1,0,2,0.9,2,2v6h-3v7h-9v-7h-3v-6c0-1.1,0.9-2,2-2H5c0.277,0,0.5,0.224,0.5,0.5c0,1.49,1.306,2.678,2.836,2.478
		C9.601,3.313,10.5,2.147,10.5,0.871l0,0c0-0.205,0.166-0.371,0.371-0.371H13.5z"/>
	
		<line style="fill:none;stroke:#4E5F80;stroke-linecap:round;stroke-linejoin:round;stroke-miterlimit:10;" x1="3.5" y1="5" x2="3.5" y2="9"/>
	
		<line style="fill:none;stroke:#4E5F80;stroke-linecap:round;stroke-linejoin:round;stroke-miterlimit:10;" x1="12.5" y1="5" x2="12.5" y2="9"/>
</g>
<g id="Layer_1">
</g>
</svg>
