<?xml version="1.0" encoding="iso-8859-1"?>
<!-- Generator: Adobe Illustrator 19.2.1, SVG Export Plug-In . SVG Version: 6.00 Build 0)  -->
<svg version="1.1" xmlns="http://www.w3.org/2000/svg" xmlns:xlink="http://www.w3.org/1999/xlink" x="0px" y="0px"
	 viewBox="0 0 14 16" style="enable-background:new 0 0 14 16;" xml:space="preserve">
<g id="Layer_26">
	<path style="fill:none;stroke:#66CCFF;stroke-linecap:round;stroke-linejoin:round;" d="M7.5,11.5v-2c0-0.552,0.448-1,1-1l0,0
		c0.552,0,1,0.448,1,1v2c0,0.552-0.448,1-1,1l0,0C7.948,12.5,7.5,12.052,7.5,11.5z"/>
	<polyline style="fill:none;stroke:#66CCFF;stroke-linecap:round;stroke-linejoin:round;" points="5.5,13 5.5,8.5 4.5,9.75 	"/>
	<path style="fill:none;stroke:#4E5F80;stroke-linecap:round;stroke-linejoin:round;stroke-miterlimit:10;" d="M11.679,15.5
		c1.125-1.169,1.821-2.754,1.821-4.5c0-3.584-2.916-6.5-6.5-6.5S0.5,7.416,0.5,11c0,1.746,0.696,3.331,1.821,4.5H11.679z"/>
	<path style="fill:none;stroke:#4E5F80;stroke-linejoin:round;stroke-miterlimit:10;" d="M2.5,7V2.5c0-1.105,0.895-2,2-2h5
		c1.105,0,2,0.895,2,2V7"/>
</g>
<g id="Layer_1">
</g>
</svg>
