<?xml version="1.0" encoding="iso-8859-1"?>
<!-- Generator: Adobe Illustrator 19.2.1, SVG Export Plug-In . SVG Version: 6.00 Build 0)  -->
<svg version="1.1" xmlns="http://www.w3.org/2000/svg" xmlns:xlink="http://www.w3.org/1999/xlink" x="0px" y="0px"
	 viewBox="0 0 16.02 16.02" style="enable-background:new 0 0 16.02 16.02;" xml:space="preserve">
<g id="Layer_28">
	
		<line style="fill:none;stroke:#66CCFF;stroke-linecap:round;stroke-linejoin:round;" x1="2.207" y1="12.399" x2="3.621" y2="13.813"/>
	
		<line style="fill:none;stroke:#66CCFF;stroke-linecap:round;stroke-linejoin:round;" x1="5.506" y1="8.626" x2="7.393" y2="10.514"/>
	<path style="fill:none;stroke:#4E5F80;stroke-linecap:round;stroke-linejoin:round;stroke-miterlimit:10;" d="M3.621,13.813
		l11.164-9.764c0.052-0.042,0.102-0.087,0.15-0.135c0.659-0.659,0.761-1.668,0.306-2.435c-0.083-0.141-0.185-0.273-0.306-0.394
		c-0.78-0.78-2.049-0.78-2.828,0c-0.048,0.048-0.093,0.098-0.135,0.15L2.207,12.399c-0.391-0.391-1.024-0.391-1.414,0
		c-0.39,0.391-0.39,1.024,0,1.414l1.414,1.414c0.391,0.391,1.024,0.391,1.414,0C4.012,14.836,4.012,14.203,3.621,13.813z"/>
	
		<circle style="fill:none;stroke:#4E5F80;stroke-linecap:round;stroke-linejoin:round;stroke-miterlimit:10;" cx="2.071" cy="2.156" r="1.5"/>
</g>
<g id="Layer_1">
</g>
</svg>
