<?xml version="1.0" encoding="iso-8859-1"?>
<!-- Generator: Adobe Illustrator 19.2.1, SVG Export Plug-In . SVG Version: 6.00 Build 0)  -->
<svg version="1.1" xmlns="http://www.w3.org/2000/svg" xmlns:xlink="http://www.w3.org/1999/xlink" x="0px" y="0px"
	 viewBox="0 0 16.013 16.157" style="enable-background:new 0 0 16.013 16.157;" xml:space="preserve">
<g id="Layer_29">
	<line style="fill:none;stroke:#66CCFF;stroke-linejoin:round;" x1="9.487" y1="1.331" x2="14.826" y2="6.669"/>
	<line style="fill:none;stroke:#66CCFF;stroke-linejoin:round;" x1="7.035" y1="3.878" x2="12.279" y2="9.122"/>
	<line style="fill:none;stroke:#66CCFF;stroke-linejoin:round;" x1="15.293" y1="2.863" x2="8.408" y2="9.749"/>
	<line style="fill:none;stroke:#66CCFF;stroke-linejoin:round;" x1="13.293" y1="0.863" x2="6.408" y2="7.749"/>
	<path style="fill:none;stroke:#4E5F80;stroke-linecap:round;stroke-linejoin:round;stroke-miterlimit:10;" d="M6.458,6.086
		C6.468,5.542,6.58,4.98,6.79,4.428C7.072,3.689,7.53,2.97,8.157,2.343c1.953-1.953,4.802-2.269,6.364-0.707
		C16.083,3.198,15.766,6.047,13.814,8c-0.627,0.627-1.346,1.085-2.085,1.366c-0.552,0.21-1.114,0.322-1.659,0.332
		C9.072,9.717,8.136,9.394,7.45,8.707C6.763,8.02,6.439,7.085,6.458,6.086z"/>
	<path style="fill:none;stroke:#4E5F80;stroke-linecap:round;stroke-linejoin:round;stroke-miterlimit:10;" d="M4.725,11.432
		L4.725,11.432c0.907-0.907,2.381-1.678,3.664-1.702l1.682-0.032"/>
	<path style="fill:none;stroke:#4E5F80;stroke-linecap:round;stroke-linejoin:round;stroke-miterlimit:10;" d="M4.725,11.432
		L4.725,11.432c0.907-0.907,1.678-2.381,1.702-3.664l0.031-1.682"/>
	<path style="fill:none;stroke:#4E5F80;stroke-linecap:round;stroke-linejoin:round;stroke-miterlimit:10;" d="M0.793,13.95
		l2.414-2.414c0.391-0.391,1.024-0.391,1.414,0l0,0c0.391,0.391,0.391,1.024,0,1.414l-2.414,2.414c-0.391,0.391-1.024,0.391-1.414,0
		l0,0C0.402,14.973,0.402,14.34,0.793,13.95z"/>
	
		<circle style="fill:none;stroke:#4E5F80;stroke-linecap:round;stroke-linejoin:round;stroke-miterlimit:10;" cx="2.157" cy="2" r="1.5"/>
</g>
<g id="Layer_1">
</g>
</svg>
