<?xml version="1.0" encoding="iso-8859-1"?>
<!-- Generator: Adobe Illustrator 19.2.1, SVG Export Plug-In . SVG Version: 6.00 Build 0)  -->
<svg version="1.1" xmlns="http://www.w3.org/2000/svg" xmlns:xlink="http://www.w3.org/1999/xlink" x="0px" y="0px"
	 viewBox="0 0 16 16" style="enable-background:new 0 0 16 16;" xml:space="preserve">
<g id="Layer_30">
	<line style="fill:none;stroke:#66CCFF;stroke-linecap:round;stroke-linejoin:round;" x1="10.435" y1="15.435" x2="6.5" y2="11.5"/>
	<line style="fill:none;stroke:#66CCFF;stroke-linecap:round;stroke-linejoin:round;" x1="7.5" y1="15.5" x2="3.677" y2="11.677"/>
	<line style="fill:none;stroke:#66CCFF;stroke-linecap:round;stroke-linejoin:round;" x1="11" y1="5.5" x2="14" y2="5.5"/>
	<path style="fill:none;stroke:#4E5F80;stroke-linecap:round;stroke-linejoin:round;stroke-miterlimit:10;" d="M4.5,11.5h4.752
		l3.325-9.974c0.262-0.786,1.109-1.211,1.897-0.949c0.786,0.262,1.211,1.111,0.949,1.897l-4,12C11.213,15.103,10.628,15.5,10,15.5
		c-0.001,0-0.002,0-0.003,0H4.5c-1.105,0-2-0.895-2-2C2.5,12.396,3.395,11.5,4.5,11.5z"/>
	
		<circle style="fill:none;stroke:#4E5F80;stroke-linecap:round;stroke-linejoin:round;stroke-miterlimit:10;" cx="2" cy="8" r="1.5"/>
</g>
<g id="Layer_1">
</g>
</svg>
