<?xml version="1.0" encoding="iso-8859-1"?>
<!-- Generator: Adobe Illustrator 19.2.1, SVG Export Plug-In . SVG Version: 6.00 Build 0)  -->
<svg version="1.1" xmlns="http://www.w3.org/2000/svg" xmlns:xlink="http://www.w3.org/1999/xlink" x="0px" y="0px"
	 viewBox="0 0 16.075 16.074" style="enable-background:new 0 0 16.075 16.074;" xml:space="preserve">
<g id="Layer_4">
	<path style="fill:none;stroke:#66CCFF;stroke-linecap:round;stroke-linejoin:round;" d="M8.727,6.59
		c-0.391-0.391-0.391-1.024,0-1.414l0,0c0.391-0.391,1.024-0.391,1.414,0"/>
	<path style="fill:none;stroke:#66CCFF;stroke-linecap:round;stroke-linejoin:round;" d="M10.848,5.883
		c0.391,0.391,0.391,1.024,0,1.414l0,0c-0.391,0.391-1.024,0.391-1.414,0"/>
	<path style="fill:none;stroke:#66CCFF;stroke-linecap:round;stroke-linejoin:round;" d="M6.848,9.883
		c0.391,0.391,0.391,1.024,0,1.414l0,0c-0.391,0.391-1.024,0.391-1.414,0"/>
	<path style="fill:none;stroke:#66CCFF;stroke-linecap:round;stroke-linejoin:round;" d="M4.727,10.59
		c-0.391-0.391-0.391-1.024,0-1.414l0,0c0.391-0.391,1.024-0.391,1.414,0"/>
	<path style="fill:none;stroke:#4E5F80;stroke-linecap:round;stroke-linejoin:round;stroke-miterlimit:10;" d="M4.145,15.574
		c-0.974,0-1.89-0.379-2.578-1.067c-0.778-0.778-1.16-1.854-1.048-2.951c0.112-1.097,0.702-2.073,1.621-2.678
		c2.656-1.752,4.986-4.083,6.739-6.74C9.556,1.112,10.696,0.5,11.93,0.5c0.974,0,1.89,0.379,2.578,1.067
		c0.778,0.777,1.16,1.853,1.048,2.95c-0.111,1.097-0.702,2.073-1.62,2.678c-2.657,1.752-4.987,4.083-6.74,6.74
		C6.519,14.961,5.379,15.574,4.145,15.574z"/>
</g>
<g id="Layer_1">
</g>
</svg>
