<?xml version="1.0" encoding="iso-8859-1"?>
<!-- Generator: Adobe Illustrator 19.2.1, SVG Export Plug-In . SVG Version: 6.00 Build 0)  -->
<svg version="1.1" xmlns="http://www.w3.org/2000/svg" xmlns:xlink="http://www.w3.org/1999/xlink" x="0px" y="0px"
	 viewBox="0 0 16.041 16.041" style="enable-background:new 0 0 16.041 16.041;" xml:space="preserve">
<g id="Layer_32">
	<g>
		<path style="fill:none;stroke:#66CCFF;" d="M3.942,13.278l3.571-2.798c0,0,2.638-2.118,4.81-3.818"/>
		<path style="fill:none;stroke:#66CCFF;" d="M2.763,12.099l2.798-3.571c0,0,2.118-2.638,3.818-4.81"/>
		<line style="fill:none;stroke:#66CCFF;" x1="1.231" y1="10.567" x2="5.474" y2="14.81"/>
	</g>
	<path style="fill:none;stroke:#4E5F80;stroke-linecap:round;stroke-linejoin:round;stroke-miterlimit:10;" d="M14.958,6.824
		c-0.712-0.712-1.842-0.781-2.635-0.161c-0.139,0.109-0.28,0.219-0.421,0.329c0.96-0.752,1.048-2.176,0.185-3.038
		c-0.861-0.861-2.28-0.775-3.034,0.18c0.109-0.139,0.217-0.277,0.325-0.415c0.62-0.793,0.551-1.923-0.161-2.635
		C8.24,0.106,6.588,0.398,6.003,1.651c-0.001,0.002-2.353,4.824-4.419,9.27c0,0-0.232,0.232-0.354,0.354
		c-0.975,0.975-0.975,2.561,0,3.536c0.975,0.975,2.561,0.975,3.536,0c0.122-0.122,0.354-0.354,0.354-0.354
		c4.45-2.068,9.268-4.418,9.27-4.419C15.643,9.453,15.935,7.801,14.958,6.824z"/>
</g>
<g id="Layer_1">
</g>
</svg>
