<?xml version="1.0" encoding="iso-8859-1"?>
<!-- Generator: Adobe Illustrator 19.2.1, SVG Export Plug-In . SVG Version: 6.00 Build 0)  -->
<svg version="1.1" xmlns="http://www.w3.org/2000/svg" xmlns:xlink="http://www.w3.org/1999/xlink" x="0px" y="0px"
	 viewBox="0 0 14 16" style="enable-background:new 0 0 14 16;" xml:space="preserve">
<g id="Layer_33">
	<path style="fill:none;stroke:#66CCFF;stroke-linecap:round;stroke-linejoin:round;" d="M7.5,9.5v-2c0-0.552,0.448-1,1-1l0,0
		c0.552,0,1,0.448,1,1v2c0,0.552-0.448,1-1,1l0,0C7.948,10.5,7.5,10.052,7.5,9.5z"/>
	<polyline style="fill:none;stroke:#66CCFF;stroke-linecap:round;stroke-linejoin:round;" points="5.5,11 5.5,6.5 4.5,7.75 	"/>
	<line style="fill:none;stroke:#66CCFF;" x1="1" y1="13.5" x2="13" y2="13.5"/>
	<path style="fill:none;stroke:#4E5F80;stroke-linecap:round;stroke-linejoin:round;stroke-miterlimit:10;" d="M7,3.5
		C5.62,3.5,4.5,2.38,4.5,1V0.5h-2v2.395c0,1.813-0.739,3.521-2,4.773V8v7.5h13V8V7.667c-1-1.252-2-2.96-2-4.773V0.5h-2V1
		C9.5,2.38,8.38,3.5,7,3.5z"/>
</g>
<g id="Layer_1">
</g>
</svg>
