<?xml version="1.0" encoding="iso-8859-1"?>
<!-- Generator: Adobe Illustrator 19.2.1, SVG Export Plug-In . SVG Version: 6.00 Build 0)  -->
<svg version="1.1" xmlns="http://www.w3.org/2000/svg" xmlns:xlink="http://www.w3.org/1999/xlink" x="0px" y="0px"
	 viewBox="0 0 13 16" style="enable-background:new 0 0 13 16;" xml:space="preserve">
<g id="Layer_34">
	<g>
		<line style="fill:none;stroke:#66CCFF;stroke-linecap:round;stroke-linejoin:round;" x1="3" y1="4.5" x2="10" y2="4.5"/>
		<line style="fill:none;stroke:#66CCFF;stroke-linecap:round;stroke-linejoin:round;" x1="2" y1="13.5" x2="10" y2="13.5"/>
		<line style="fill:none;stroke:#66CCFF;stroke-linecap:round;stroke-linejoin:round;" x1="9" y1="6.5" x2="4" y2="6.5"/>
		<line style="fill:none;stroke:#66CCFF;stroke-linecap:round;stroke-linejoin:round;" x1="9" y1="6.5" x2="3" y2="6.5"/>
		<line style="fill:none;stroke:#66CCFF;stroke-linecap:round;stroke-linejoin:round;" x1="2" y1="4.5" x2="10" y2="4.5"/>
	</g>
	<path style="fill:none;stroke:#4E5F80;stroke-linecap:round;stroke-linejoin:round;stroke-miterlimit:10;" d="M11.5,13.5h-1l-1-7
		l1-2c0.552,0,1-0.448,1-1v-3h-2v1h-2v-1h-2v1h-2v-1h-2v3c0,0.552,0.448,1,1,1l1,2l-1,7h-1c-0.552,0-1,0.448-1,1s0.448,1,1,1h10
		c0.552,0,1-0.448,1-1S12.052,13.5,11.5,13.5z"/>
</g>
<g id="Layer_1">
</g>
</svg>
