<?xml version="1.0" encoding="iso-8859-1"?>
<!-- Generator: Adobe Illustrator 19.2.1, SVG Export Plug-In . SVG Version: 6.00 Build 0)  -->
<svg version="1.1" xmlns="http://www.w3.org/2000/svg" xmlns:xlink="http://www.w3.org/1999/xlink" x="0px" y="0px"
	 viewBox="0 0 15.438 16.024" style="enable-background:new 0 0 15.438 16.024;" xml:space="preserve">
<g id="Layer_36">
	<g>
		<path style="fill:none;stroke:#4E5F80;stroke-linecap:round;stroke-linejoin:round;stroke-miterlimit:10;" d="M9.989,9.989
			c1.17-1.17,3.073-1.17,4.243,0l-4.243,4.243C8.819,13.062,8.819,11.159,9.989,9.989z"/>
		<path style="fill:none;stroke:#4E5F80;stroke-linecap:round;stroke-linejoin:round;stroke-miterlimit:10;" d="M12.11,12.11
			c-0.78,0.78-0.78,2.048,0,2.828c0.78,0.78,2.047,0.78,2.827,0.001c-0.202-0.204-0.353-0.355-0.353-0.355L12.11,12.11z"/>
		
			<line style="fill:none;stroke:#4E5F80;stroke-linecap:round;stroke-linejoin:round;stroke-miterlimit:10;" x1="9.989" y1="9.989" x2="0.5" y2="0.5"/>
	</g>
	<g>
		<path style="fill:none;stroke:#4E5F80;stroke-linecap:round;stroke-linejoin:round;stroke-miterlimit:10;" d="M5.449,9.989
			c-1.17-1.17-3.073-1.17-4.243,0l4.243,4.243C6.619,13.062,6.619,11.159,5.449,9.989z"/>
		<path style="fill:none;stroke:#4E5F80;stroke-linecap:round;stroke-linejoin:round;stroke-miterlimit:10;" d="M3.327,12.11
			c0.78,0.78,0.78,2.048,0,2.828c-0.78,0.78-2.047,0.78-2.827,0.001c0.202-0.204,0.353-0.355,0.353-0.355L3.327,12.11z"/>
		
			<line style="fill:none;stroke:#4E5F80;stroke-linecap:round;stroke-linejoin:round;stroke-miterlimit:10;" x1="5.449" y1="9.989" x2="14.938" y2="0.5"/>
	</g>
</g>
<g id="Layer_1">
</g>
</svg>
