<?xml version="1.0" encoding="iso-8859-1"?>
<!-- Generator: Adobe Illustrator 19.2.1, SVG Export Plug-In . SVG Version: 6.00 Build 0)  -->
<svg version="1.1" xmlns="http://www.w3.org/2000/svg" xmlns:xlink="http://www.w3.org/1999/xlink" x="0px" y="0px"
	 viewBox="0 0 16 15.996" style="enable-background:new 0 0 16 15.996;" xml:space="preserve">
<g id="Layer_38">
	
		<line style="fill:none;stroke:#66CCFF;stroke-linecap:round;stroke-linejoin:round;" x1="7.095" y1="8.901" x2="3.913" y2="12.083"/>
	<g>
		<path style="fill:none;stroke:#4E5F80;stroke-linecap:round;stroke-linejoin:round;stroke-miterlimit:10;" d="M7.095,8.901
			L2.602,8.672C2.056,8.644,1.501,8.838,1.085,9.254c-0.78,0.78-0.78,2.049,0,2.828c0.78,0.78,2.048,0.78,2.828,0
			c-0.78,0.78-0.78,2.049,0,2.829c0.78,0.78,2.049,0.78,2.828,0c0.416-0.416,0.61-0.971,0.582-1.517L7.095,8.901z"/>
		<path style="fill:none;stroke:#4E5F80;stroke-linecap:round;stroke-linejoin:round;stroke-miterlimit:10;" d="M12.399,3.598
			c-0.78-0.78-2.049-0.78-2.828,0C9.389,3.778,9.25,3.986,9.153,4.207L7.095,8.901l4.694-2.058c0.221-0.097,0.428-0.236,0.609-0.417
			C13.179,5.646,13.179,4.378,12.399,3.598z"/>
	</g>
	
		<line style="fill:none;stroke:#4E5F80;stroke-linecap:round;stroke-linejoin:round;stroke-miterlimit:10;" x1="12.4" y1="3.599" x2="15.5" y2="0.5"/>
</g>
<g id="Layer_1">
</g>
</svg>
