<?xml version="1.0" encoding="iso-8859-1"?>
<!-- Generator: Adobe Illustrator 19.2.1, SVG Export Plug-In . SVG Version: 6.00 Build 0)  -->
<svg version="1.1" xmlns="http://www.w3.org/2000/svg" xmlns:xlink="http://www.w3.org/1999/xlink" x="0px" y="0px"
	 viewBox="0 0 16 16" style="enable-background:new 0 0 16 16;" xml:space="preserve">
<g id="Layer_40">
	<line style="fill:none;stroke:#66CCFF;stroke-linecap:round;stroke-linejoin:round;" x1="7.5" y1="6.5" x2="9.021" y2="4.978"/>
	<line style="fill:none;stroke:#66CCFF;stroke-linecap:round;stroke-linejoin:round;" x1="1" y1="9.5" x2="15" y2="9.5"/>
	<line style="fill:none;stroke:#66CCFF;stroke-linecap:round;stroke-linejoin:round;" x1="6" y1="5" x2="7.521" y2="3.478"/>
	<line style="fill:none;stroke:#66CCFF;stroke-linecap:round;stroke-linejoin:round;" x1="5" y1="2.5" x2="7" y2="2.5"/>
	<line style="fill:none;stroke:#66CCFF;stroke-linecap:round;stroke-linejoin:round;" x1="9.5" y1="7.5" x2="10.521" y2="6.478"/>
	<circle style="fill:#66CCFF;" cx="12.5" cy="13.5" r="0.5"/>
	<circle style="fill:#66CCFF;" cx="3.5" cy="13.5" r="0.5"/>
	
		<circle style="fill:none;stroke:#4E5F80;stroke-linecap:round;stroke-linejoin:round;stroke-miterlimit:10;" cx="3.5" cy="13.5" r="2"/>
	
		<circle style="fill:none;stroke:#4E5F80;stroke-linecap:round;stroke-linejoin:round;stroke-miterlimit:10;" cx="12.5" cy="13.5" r="2"/>
	<path style="fill:none;stroke:#4E5F80;stroke-linecap:round;stroke-linejoin:round;stroke-miterlimit:10;" d="M14,7.5h-2.457l-4-4
		H7.5v-2c0-0.552-0.448-1-1-1h-5c-0.552,0-1,0.448-1,1v2V11c0,0.276,0.224,0.5,0.5,0.5h14c0.276,0,0.5-0.224,0.5-0.5V9
		C15.5,8.172,14.828,7.5,14,7.5z"/>
</g>
<g id="Layer_1">
</g>
</svg>
