<?xml version="1.0" encoding="iso-8859-1"?>
<!-- Generator: Adobe Illustrator 19.2.1, SVG Export Plug-In . SVG Version: 6.00 Build 0)  -->
<svg version="1.1" xmlns="http://www.w3.org/2000/svg" xmlns:xlink="http://www.w3.org/1999/xlink" x="0px" y="0px"
	 viewBox="0 0 16 16" style="enable-background:new 0 0 16 16;" xml:space="preserve">
<g id="Layer_41">
	<line style="fill:none;stroke:#66CCFF;stroke-linecap:round;stroke-linejoin:round;" x1="3" y1="11.5" x2="5" y2="11.5"/>
	<line style="fill:none;stroke:#66CCFF;stroke-linecap:round;stroke-linejoin:round;" x1="10" y1="11.5" x2="12" y2="11.5"/>
	<line style="fill:none;stroke:#66CCFF;stroke-linecap:round;stroke-linejoin:round;" x1="7.5" y1="6.5" x2="9.021" y2="4.978"/>
	<line style="fill:none;stroke:#66CCFF;stroke-linecap:round;stroke-linejoin:round;" x1="1" y1="9.5" x2="15" y2="9.5"/>
	<line style="fill:none;stroke:#66CCFF;stroke-linecap:round;stroke-linejoin:round;" x1="6" y1="5" x2="7.521" y2="3.478"/>
	<line style="fill:none;stroke:#66CCFF;stroke-linecap:round;stroke-linejoin:round;" x1="5" y1="2.5" x2="7" y2="2.5"/>
	<line style="fill:none;stroke:#66CCFF;stroke-linecap:round;stroke-linejoin:round;" x1="9.5" y1="7.5" x2="10.521" y2="6.478"/>
	<path style="fill:none;stroke:#4E5F80;stroke-linecap:round;stroke-linejoin:round;stroke-miterlimit:10;" d="M15,11.5
		c0.276,0,0.5-0.224,0.5-0.5V9c0-0.828-0.672-1.5-1.5-1.5h-2.457l-4-4H7.5v-2c0-0.552-0.448-1-1-1h-5c-0.552,0-1,0.448-1,1v2V11
		c0,0.276,0.224,0.5,0.5,0.5h2.5v2h-2c-0.552,0-1,0.448-1,1s0.448,1,1,1h13c0.552,0,1-0.448,1-1s-0.448-1-1-1h-2v-2H15z M10.5,13.5
		h-5v-2h5V13.5z"/>
</g>
<g id="Layer_1">
</g>
</svg>
