<?xml version="1.0" encoding="iso-8859-1"?>
<!-- Generator: Adobe Illustrator 19.2.1, SVG Export Plug-In . SVG Version: 6.00 Build 0)  -->
<svg version="1.1" xmlns="http://www.w3.org/2000/svg" xmlns:xlink="http://www.w3.org/1999/xlink" x="0px" y="0px"
	 viewBox="0 0 16 16" style="enable-background:new 0 0 16 16;" xml:space="preserve">
<g id="Layer_7">
	<path style="fill:none;stroke:#66CCFF;stroke-linecap:round;stroke-linejoin:round;" d="M5.525,8.353l1.414-1.414
		c0.586-0.586,1.535-0.586,2.121,0l0,0c0.586,0.586,0.586,1.536,0,2.121l-1.414,1.414c-0.586,0.586-1.536,0.586-2.121,0l0,0
		C4.939,9.889,4.939,8.939,5.525,8.353z"/>
	<g>
		<path style="fill:none;stroke:#4E5F80;stroke-linecap:round;stroke-linejoin:round;stroke-miterlimit:10;" d="M0.575,15.424
			C0.169,14.855,1.7,9.35,5.525,5.525c3.837-3.837,9.361-5.361,9.904-4.946c0.406,0.535-1.118,6.058-4.955,9.895
			C6.65,14.3,1.145,15.831,0.575,15.424z"/>
		
			<line style="fill:none;stroke:#4E5F80;stroke-linecap:round;stroke-linejoin:round;stroke-miterlimit:10;" x1="4.25" y1="4.25" x2="5.525" y2="5.525"/>
		
			<line style="fill:none;stroke:#4E5F80;stroke-linecap:round;stroke-linejoin:round;stroke-miterlimit:10;" x1="10.475" y1="10.475" x2="11.75" y2="11.75"/>
		<path style="fill:none;stroke:#4E5F80;stroke-linecap:round;stroke-linejoin:round;stroke-miterlimit:10;" d="M2.5,0.5l-2,2
			l1.75,1.75c0.552,0.552,1.448,0.552,2,0l0,0c0.552-0.552,0.552-1.448,0-2L2.5,0.5z"/>
		<path style="fill:none;stroke:#4E5F80;stroke-linecap:round;stroke-linejoin:round;stroke-miterlimit:10;" d="M13.5,15.5l2-2
			l-1.75-1.75c-0.552-0.552-1.448-0.552-2,0l0,0c-0.552,0.552-0.552,1.448,0,2L13.5,15.5z"/>
	</g>
</g>
<g id="Layer_1">
</g>
</svg>
