<svg xmlns="http://www.w3.org/2000/svg" viewBox="0 0 1015 833"><path d="M507 833c11.333 0 21-3 29-9 17.333-11.333 45.667-30.667 85-58s90.667-64.667 154-112 108-84 134-110c70.667-70.667 106-158.667 106-264 0-77.333-27.333-143.333-82-198S812.333 0 735 0c-95.333 0-171.333 39.333-228 118-25.333-36.667-58.333-65.333-99-86S324.333.667 279 0C201 0 135 27.333 81 82S0 202.667 0 280c0 105.333 35.333 193.333 106 264 25.333 25.333 69.667 62 133 110s115 85.667 155 113 67.667 46.333 83 57c8.667 6 18.667 9 30 9zm228-729c48 0 89.333 17 124 51s52 75.667 52 125c0 76-25.333 139.333-76 190-52.667 52.667-162 135.333-328 248-165.333-112.667-274.333-195.333-327-248-50.667-50.667-76-114-76-190 0-48.667 17-90.333 51-125s75.333-51.667 124-51c48.667 0 90.333 17 125 51s51.667 75.667 51 125c0 14.667 5.333 27 16 37s22.667 15 36 15c13.333 0 25.667-5 37-15s16.333-22.333 15-37c0-48.667 17.333-90.333 52-125s76-51.667 124-51z"/></svg>