<svg xmlns="http://www.w3.org/2000/svg" viewBox="0 0 1015.5 833.5"><linearGradient id="a" gradientUnits="userSpaceOnUse" x1="507.75" y1="687.847" x2="507.75" y2="219.169"><stop offset="0" stop-color="#d77a2a"/><stop offset="1" stop-color="#fcd659"/></linearGradient><path d="M859.25 155.25c34.67 34 52 75.67 52 125 0 76-25.33 139.33-76 190-52.67 52.67-162 135.33-328 248-165.33-112.67-274.33-195.33-327-248-50.67-50.67-76-114-76-190 0-48.67 17-90.33 51-125s75.33-51.67 124-51c48.67 0 90.33 17 125 51s51.67 75.67 51 125c0 14.67 5.33 27 16 37s22.67 15 36 15c13.33 0 25.67-5 37-15s16.33-22.33 15-37c0-48.67 17.33-90.33 52-125s76-51.67 124-51c48 0 89.33 17 124 51z" fill="url(#a)"/><path d="M933.25 82.25c54.67 54.67 82 120.67 82 198 0 105.33-35.33 193.33-106 264-26 26-70.67 62.67-134 110s-114.67 84.67-154 112-67.67 46.67-85 58c-8 6-17.67 9-29 9-11.33 0-21.33-3-30-9-15.33-10.67-43-29.67-83-57s-91.67-65-155-113-107.67-84.67-133-110c-70.67-70.67-106-158.67-106-264 0-77.33 27-143.33 81-198s120-82 198-82c45.33.67 88.33 11.33 129 32s73.67 49.33 99 86c56.67-78.67 132.67-118 228-118 77.33 0 143.33 27.33 198 82zm-22 198c0-49.33-17.33-91-52-125s-76-51-124-51c-48-.67-89.33 16.33-124 51s-52 76.33-52 125c1.33 14.67-3.67 27-15 37s-23.67 15-37 15c-13.33 0-25.33-5-36-15s-16-22.33-16-37c.67-49.33-16.33-91-51-125s-76.33-51-125-51c-48.67-.67-90 16.33-124 51s-51 76.33-51 125c0 76 25.33 139.33 76 190 52.67 52.67 161.67 135.33 327 248 166-112.67 275.33-195.33 328-248 50.67-50.67 76-114 76-190z"/><g><path d="M735.25 104.25c48 0 89.33 17 124 51s52 75.67 52 125c0 76-25.33 139.33-76 190-52.67 52.67-162 135.33-328 248-165.33-112.67-274.33-195.33-327-248-50.67-50.67-76-114-76-190 0-48.67 17-90.33 51-125s75.33-51.67 124-51c48.67 0 90.33 17 125 51s51.67 75.67 51 125c0 14.67 5.33 27 16 37s22.67 15 36 15c13.33 0 25.67-5 37-15s16.33-22.33 15-37c0-48.67 17.33-90.33 52-125s76-51.67 124-51z" fill="none" stroke="#000" stroke-width=".5" stroke-linecap="round" stroke-linejoin="round"/></g></svg>