<?xml version="1.0" encoding="UTF-8"?>
<svg width="37px" height="35px" viewBox="0 0 37 35" version="1.1" xmlns="http://www.w3.org/2000/svg" xmlns:xlink="http://www.w3.org/1999/xlink">
    <!-- Generator: Sketch 48.1 (47250) - http://www.bohemiancoding.com/sketch -->
    <title>icons8-adobe-illustrator</title>
    <desc>Created with Sketch.</desc>
    <defs></defs>
    <g id="Desktop-HD" stroke="none" stroke-width="1" fill="none" fill-rule="evenodd" transform="translate(-877.000000, -303.000000)">
        <g id="icons8-adobe-illustrator" transform="translate(877.000000, 303.000000)">
            <g>
                <path d="M0,3.88888889 C0,1.74125 1.84075,0 4.11111111,0 L32.8888889,0 C35.15925,0 37,1.74125 37,3.88888889 L37,31.1111111 C37,33.25875 35.15925,35 32.8888889,35 L4.11111111,35 C1.84075,35 0,33.25875 0,31.1111111 L0,3.88888889 Z" id="Shape" fill="#FF5722" fill-rule="nonzero"></path>
                <g id="Group" transform="translate(3.083333, 2.916667)" fill="#1C0802" fill-rule="nonzero">
                    <path d="M0,0 L0,29.1666667 L30.8333333,29.1666667 L30.8333333,0 L0,0 Z M15.0990833,21.3888889 L14.3159167,18.5597222 L10.2911389,18.5597222 L9.509,21.3888889 L6.38763889,21.3888889 L10.9540556,7.56486111 L13.6540278,7.56486111 L18.2512778,21.3888889 L15.0990833,21.3888889 Z M22.4569444,21.3888889 L19.6069167,21.3888889 L19.6069167,11.1163889 L22.4569444,11.1163889 L22.4569444,21.3888889 Z M22.1506667,9.48305556 C21.8721389,9.75527778 21.497,9.89138889 21.0211389,9.89138889 C20.5452778,9.89138889 20.1701389,9.75527778 19.8916111,9.48305556 C19.6130833,9.21083333 19.4753611,8.86861111 19.4753611,8.45736111 C19.4753611,8.03930556 19.6161667,7.69805556 19.89675,7.43166667 C20.1773333,7.16527778 20.5535,7.03305556 21.0211389,7.03305556 C21.4887778,7.03305556 21.8639167,7.16625 22.1455278,7.43166667 C22.4271389,7.69708333 22.5669167,8.03930556 22.5669167,8.45736111 C22.5669167,8.86861111 22.4281667,9.21083333 22.1506667,9.48305556 Z" id="Shape"></path>
                    <polygon id="Shape" points="10.9345278 16.2331944 13.6643056 16.2331944 12.2994167 11.3059722"></polygon>
                </g>
            </g>
        </g>
    </g>
</svg>