<?xml version="1.0" encoding="utf-8"?>
<!-- Generator: Adobe Illustrator 21.0.0, SVG Export Plug-In . SVG Version: 6.00 Build 0)  -->
<svg version="1.1" id="Layer_1" xmlns="http://www.w3.org/2000/svg" xmlns:xlink="http://www.w3.org/1999/xlink" x="0px" y="0px"
	 viewBox="0 0 37 35" style="enable-background:new 0 0 37 35;" xml:space="preserve">
<style type="text/css">
	.st0{fill:#FF26BE;}
	.st1{fill:#020F16;}
	.st2{fill:#FFD9F2;stroke:#FFD9F2;stroke-width:0.4819;stroke-miterlimit:10;}
</style>
<title>icons8-adobe-photoshop</title>
<desc>Created with Sketch.</desc>
<path id="Shape" class="st0" d="M0,3.9C0,1.8,1.8,0,4.1,0h28.8C35.2,0,37,1.7,37,3.9v27.2c0,2.1-1.8,3.9-4.1,3.9H4.1
	C1.8,35,0,33.3,0,31.1V3.9z"/>
<rect x="3.1" y="2.9" class="st1" width="30.8" height="29.2"/>
<path class="st2" d="M15.5,17.3L19,24c0.1,0.1,0,0.2-0.1,0.2h-2.1c-0.1,0-0.2,0-0.2-0.1c-0.8-1.7-1.6-3.3-2.5-5.1l0,0
	c-0.8,1.7-1.6,3.5-2.4,5.1c-0.1,0.1-0.1,0.1-0.2,0.1h-2c-0.1,0-0.1-0.1-0.1-0.2l3.4-6.5l-3.3-6.7c-0.1-0.1,0-0.2,0.1-0.2h2.1
	c0.1,0,0.2,0,0.2,0.1c0.8,1.7,1.6,3.4,2.4,5.1l0,0c0.7-1.7,1.6-3.4,2.3-5c0.1-0.1,0.1-0.1,0.2-0.1h2c0.1,0,0.1,0.1,0.1,0.2
	L15.5,17.3z M19.6,19.3c0-2.9,1.9-5.2,5.1-5.2c0.2,0,0.5,0,0.7,0v-3.3c0-0.1,0.1-0.1,0.1-0.1h2c0.1,0,0.1,0,0.1,0.1v11.5
	c0,0.3,0,0.8,0.1,1.2c0,0.1,0,0.1-0.1,0.1c-1,0.5-2.1,0.7-3.2,0.7C21.5,24.4,19.6,22.7,19.6,19.3z M25.3,16
	c-0.2-0.1-0.5-0.1-0.7-0.1c-1.6,0-2.7,1.2-2.7,3.3c0,2.3,1.1,3.3,2.6,3.3c0.3,0,0.7,0,0.9-0.1V16H25.3z"/>
</svg>
