<?xml version="1.0" encoding="utf-8"?>
<svg version="1.1" id="Layer_1" xmlns="http://www.w3.org/2000/svg" xmlns:xlink="http://www.w3.org/1999/xlink" x="0px" y="0px"
	 viewBox="0 0 300 300">
<style type="text/css">
	.st0{fill:#FFB13B;}
	.st1{fill:#FFFFFF;}
</style>
<path id="c" d="M8.5,150h283v100c0,23.5-18,41.5-41.5,41.5H50c-23.5,0-41.5-18-41.5-41.5V150z"/>
<path d="M150,291.2c-11,0-21.3-4.3-29.2-12c-7.8-7.8-12.2-18.2-12.2-29.2c0,0,0,0,0-0.1c-7.5,7.4-17.7,12-29,12.1
	c-0.1,0-0.1,0-0.2,0c-11,0-21.3-4.3-29.2-12c-7.8-7.8-12.2-18.2-12.2-29.2c0-11.1,4.2-21.5,12-29.3c0,0,0,0,0,0
	c-10.6,0-21.1-4-29.1-12C4.8,163.3,4.7,137,20.8,120.8c7.8-7.8,18.2-12.2,29.2-12.2c0.1,0,0.1,0,0.2,0
	c-7.5-7.5-12.1-17.7-12.1-29.1C37.9,56.7,56.4,38.1,79.3,38c11.5,0,21.9,4.6,29.4,12.1c0-10.6,4-21.1,12-29.2
	c16.1-16.2,42.3-16.3,58.5-0.2c8.1,8.1,12.2,18.7,12.2,29.4c7.5-7.5,17.8-12.1,29.1-12.2c0.1,0,0.1,0,0.2,0
	c22.8,0,41.3,18.5,41.4,41.2c0,11.1-4.2,21.5-12,29.3c0,0-0.1,0.1-0.1,0.1c10.5,0,21,4,29,12v0c7.8,7.8,12.2,18.2,12.2,29.2
	c0,11.1-4.2,21.5-12,29.3c-8.1,8.1-18.7,12.2-29.3,12.2c7.4,7.5,12,17.7,12.1,29c0,11.1-4.2,21.5-12,29.3
	c-7.8,7.8-18.2,12.2-29.2,12.2c-0.1,0-0.1,0-0.2,0c-11,0-21.3-4.3-29.2-12c0,0,0,0,0,0c0,10.5-4,21-12,29
	c-7.8,7.9-18.2,12.2-29.2,12.2C150.1,291.2,150.1,291.2,150,291.2z"/>
	<path class="st0" d="M265.6,134.1c-8.7-8.7-22.8-8.7-31.6,0h-45.6l32.3-32.3c12.4,0,22.4-10.1,22.3-22.5S232.9,56.9,220.5,57
		c-12.3,0-22.3,10-22.3,22.3l-32.3,32.3V65.9c8.7-8.8,8.7-23-0.1-31.7c-8.8-8.7-23-8.7-31.7,0.1c-8.7,8.7-8.7,22.8,0,31.6v45.7
		l-32.3-32.3c0-12.4-10.1-22.4-22.5-22.3S56.9,67.1,57,79.5c0,12.3,10,22.3,22.3,22.3l32.3,32.3H65.9c-8.8-8.7-23-8.7-31.7,0.1
		s-8.7,23,0.1,31.7c8.7,8.7,22.8,8.7,31.6,0h45.7l-32.3,32.3C67,198.2,57,208.3,57,220.6c0,12.4,10.1,22.4,22.5,22.3
		c12.3,0,22.3-10,22.3-22.3l32.3-32.3V234c-8.7,8.8-8.7,23,0.1,31.7c8.8,8.7,23,8.7,31.7-0.1c8.7-8.7,8.7-22.8,0-31.6v-45.6
		l32.3,32.3c0,12.4,10.1,22.4,22.5,22.3c12.4,0,22.4-10.1,22.3-22.5c0-12.3-10-22.3-22.3-22.3l-32.3-32.3H234
		c8.8,8.7,23,8.7,31.7-0.1S274.3,142.8,265.6,134.1z"/>
	<path id="c_1_" d="M8.5,150h283v100c0,23.5-18,41.5-41.5,41.5H50c-23.5,0-41.5-18-41.5-41.5V150z"/>
	<g id="d">
		<path class="st1" d="M51,220.6c-14.4-14.2-14.5-37.4-0.2-51.8c6.9-7,16.4-10.9,26.2-10.8c20,0,36.6,16.4,36.6,36.8H92
			c0.1-8.4-6.7-15.2-15.1-15.3c-8.4-0.1-15.2,6.7-15.3,15.1c0,4,1.6,7.9,4.4,10.8c2.8,2.8,5.2,3.6,10.8,4.6c10.2,1,19.4,4,26,10.6
			c14.4,14.2,14.5,37.4,0.2,51.8c-6.9,7-16.4,10.9-26.2,10.8c-20.2,0-36.6-16.4-36.6-36.6H62c0.1,8.4,6.9,15.2,15.3,15.1
			s15.2-6.9,15.1-15.3c0-4-1.6-7.8-4.4-10.6c-3-2.8-6.8-3.6-11-4.4C67.2,229.8,57.8,227.4,51,220.6z M187,158l-26,125.2h-21.6
			l-26-125.2H135l15.2,73.4l15.2-73.4H187z M223.6,210H260v36.6c0,20.2-16.4,36.6-36.6,36.6c-20.2,0-36.6-16.4-36.6-36.6v-52
			c0-20.2,16.4-36.6,36.6-36.6c20.2,0,36.6,16.4,36.6,36.6h-21.2c0-8.4-6.8-15.2-15.2-15.2c-8.4,0-15.2,6.8-15.2,15.2v52
			c0,8.4,6.8,15.2,15.2,15.2c8.4,0,15.2-6.8,15.2-15.2v-15.2h-15.2V210z"/>
	</g>
</svg>