<svg xmlns="http://www.w3.org/2000/svg" viewBox="0 0 512 512"><path d="M512 384c0 31.418-25.473 56.889-56.889 56.889H56.89C25.472 440.889 0 415.417 0 384V128c0-31.418 25.472-56.889 56.889-56.889H455.11C486.53 71.111 512 96.584 512 128v256z" fill="#3e9a00"/><path d="M455.111 71.111H56.89C25.472 71.111 0 96.582 0 128v128h512V128c0-31.418-25.473-56.889-56.889-56.889" fill="#eee"/><path d="M451.115 182.186c.441-16 1.153-28.345 1.153-29.681s-13.597 15.46-22.485 24.789-25.473 25.515-25.473 25.515c10.14 2.346 22.357-.627 22.357-.627l-5.773 12.445s-7.553-5.333-20.893-5.333c-13.326 0-22.656 8.447-25.33 17.777-2.66 9.344 9.785 20.893 19.115 21.334 9.33.441 19.555-3.115 19.555-3.115-13.34 20.451-41.33 6.229-55.552 5.334-14.223-.882-29.668-.058-29.668-.058 12.445-16 31.886-13.269 33.664-13.269 1.777 0-11.691-20.437-.868-34.26 9.36-11.976 29.753-20.85 29.753-20.85s-14.223-4.438-13.326-13.327c.881-8.889 31.872-34.319 31.872-34.319s-74.126 35.47-77.411 22.755c-4.025-15.502 4.679-29.226 4.679-29.226-27.549 11.563-83.143 52.337-93.369 62.109-10.226 9.785-8.008 25.785-8.008 33.337 0 7.566-6.215 12.9-11.988 16-5.774 3.115-24.008 4.893-24.008 4.893s-3.171-4.808-.939-9.7c2.22-4.879 10.283-1.408 10.283-1.408-.896-8.888-7.466-11.676-11.121-12.003-2.177-.2-2.389-8.89 1.166-9.344 3.555-.441 13.511 5.347 13.511 5.347s.654-10.467-5.361-12.373c-4.025-1.267-9.259-6.258-7.04-10.254 2.232-4.011 14.847 1.337 14.847 1.337 1.452-12.501-12.942-12.956-12.942-16.512s11.819-1.778 11.819-1.778c-1.323-9.358-12.345-11.477-12.345-11.477s-.484-.698-2.262-2.915-2.446-11.279 1.565-12.601c3.997-1.338 11.933-7.482 11.933-7.482l-5.134-.455.91-13.497c-2.219 2.674-13.326 7.552-19.555 8.007-6.215.442-10.354 5.945-10.354 5.945-6.228 1.338-29.198-2.388-37.646-.171s-7.537 8.534-7.537 8.534-10.24.355-22.685 2.134c-12.445 1.777-21.377 12.075-20.253 12.813 1.664 1.124 12.303-1.095 20.295-1.55 6.186-.341 11.534 3.627 11.861 6.144-.185 2.205.527 2.219.968 3.001.441.768 3.342.1 3.342.1l2.46 2.347 1.11-3.343 3.014 2.005-.426-3.94 3.669 2.489-.455-4.239 4.025 2.901.327-4.308c13.781-.228 14.961 5.575 14.961 5.575-20.892 5.788-67.57 3.555-67.57 3.555l10.113-4.708c-12.445.441-36.779-13.953-36.779-13.953s6.67 16 12.445 22.67c5.789 6.657 18.233 11.99 18.233 11.99l-3.555-7.993s24.888 2.218 32 2.218c1.023 0 2.375-.028 3.853-.085-.156 5.433 4.808 12.303 4.808 12.303-2.888 4.665 1.55 9.999 1.55 9.999s1.337-1.992 2.091-4.438c.74-2.446 3.385-8.96 3.385-8.96l4.081 5.633c1.68-7.979 7.98-12.53 14.422-14.252a212.667 212.667 0 0 0 2.702 6.017c-9.344 3.441-6.457 14.008-6.457 14.008-7.325 4.224-6.215 12.885-6.215 12.885s-3.555 1.338-6.002 6.23c-2.446 4.878 0 7.992 0 7.992s-4.45 2.446-5.916 7.338c-1.479 4.88 0 10.88 0 10.88s-5.191.455-4.522 10.454c.653 9.999 6.215 13.113 6.215 13.113-5.562.653-5.562 6.656-5.562 6.656s-.88-1.109-2.66-.441c-1.777.668-2.8 1.948-2.8 1.948s-2.12-2.46-3.898-3.57c-1.778-1.108-5.747.513-5.747.513s-1.55-4.451-4.892-6.001c-3.328-1.55-5.774-1.338-5.774-1.338 1.109-1.991-.014-5.347-2.446-7.552-1.963-1.764-5.774-2.347-5.774-2.347s.526-6.826-.127-12.16c-.669-5.333-4.324-9.486-5.647-12.387-1.337-2.888 1.55-5.319 4.665-7.553 2.66-1.99 4.438-2.16 5.32-5.503.895-3.328.895-6.485.895-6.485s-.44-1.565.228-6.002c.669-4.45-4.451-7.11-4.451-7.11s1.108 3.768 0 6.655c-1.109 2.902-3.555 4.68-3.555 4.68-1.778-.897-2.66 1.99-2.66 1.99l1.108-4.665c1.338-5.333-1.108-5.106-4.45-12.885-3.328-7.78-13.555-5.12-13.555-5.12 6.23 1.565 9.117 9.785 6.443 12.445-2.66 2.674-3.1 10.227-3.1 10.227-4.224-6.443-6.898-6.443-6.898-6.443s-2.66-2.887-6.656-5.106c-4.011-2.233-6.897 0-6.897 0 5.773 1.55 5.773 7.992 5.773 7.992-3.555 2.447 1.338 7.34 1.338 7.34s.227 5.333 1.777 7.552c1.565 2.218 6.898 4.665 6.898 4.665s-1.778 21.773-2.233 23.552c-.44 1.778-2.446 3.115-3.996 4.324-1.55 1.195-2.66 5.675-5.561 8.121-2.888 2.446.455 4.224.455 4.224s0 3.996-2.888 5.561c-2.9 1.55-6.897 2.219-6.897 2.219s3.996 2.446 8.22 1.55c4.224-.881 6.897-3.996 6.897-3.996 3.1-.214 4.88-4.224 4.88-6.884 0-2.674 1.777-4.224 3.554-6.898 1.778-2.66 2.446-5.773 2.446-5.773-.213 8.888 13.782 28.885 19.115 32.441 5.334 3.57 10.227 9.344 16.228 18.674 6.001 9.33 8.22 25.998 8.22 25.998 10.226-7.552 9.102-19.327 9.102-19.327s6.458-1.109 12.232-1.778c5.773-.668 12.672 0 12.672 0-4.451 6.215.214 7.78.214 7.78s-4.893.442-6.67 3.1c-1.778 2.674 1.124 8.008 1.124 8.008-9.785 3.327-6.955 12.445-6.955 12.445s-6.202 12.089-17.522 13.426c-11.335 1.323-15.758-5.205-19.755-5.874-3.996-.668-4.665.67-4.665.67-2.446-1.55-2.005-3.997-7.552-3.997-5.561 0-6.001 7.992-6.001 7.992s2.887-3.1 5.546-2.887c2.674.227 4.011 2.674 4.011 2.674-1.777 1.55.214 3.769.214 3.769l-2.219 3.342s-2.816-1.507-9.116 0c-5.22 1.251-5.774 6.884-5.774 6.884s2.048-1.153 5.163-1.82c3.115-.669 8.177.484 8.177.484l3.555 2.232-.796 3.086c-8.675 0-8.548 11.136-8.548 11.136s2.177-3.213 4.623-4.778c2.446-1.55 6.94-1.095 6.94-1.095 4.892 5.461 14.18 1.977 19.285-2.02 5.12-4.011 8.262-2.774 10.937-1.891 2.66.896 6.927.198 9.373-2.02s6.186-3.087 9.301-.427c3.1 2.674 6.443 5.334 12.445 6.229 5.988.881 6.215-3.115 9.33-3.555 3.115-.455 7.111 3.555 7.111 3.555 1.55-9.557-9.557-9.785-9.557-9.785.227-1.55-3.441-3.271-7.879-2.603-4.451.67-8.804-2.332-8.804-2.332 2.005-9.785 9.344-20.623 15.133-24.846 5.774-4.21 12.217-12.658 15.545-17.109a26.06 26.06 0 0 1 2.375-2.688c.426 3.1.881 5.803.967 7.14.214 3.555 7.325 14.892 7.325 14.892s1.778-5.334 3.343-8.675c1.55-3.328 3.327-8.889 3.327-8.889 3.783-1.109 9.33-6.001 9.33-6.001s5.12 1.565 11.122-.214c5.987-1.778 12.657-8.448 12.657-8.448 3.996 2.005 10.439-.668 10.439-.668s-2.433 4.665.669 9.999c3.115 5.333 11.335 8.674 11.335 8.674s.896 5.107 6.897 6.884c5.988 1.778 11.549.669 11.549.669-.228 3.996 5.334 5.106 5.334 5.106-6.002 1.338-4.893 7.566-4.893 7.566-6.884-.896-8.22 5.774-8.22 5.774-4.224-.669-9.102.441-12.004 1.109-2.887.669-13.795-1.764-15.573-2.888-1.778-1.108-7.04-8.148-10.595-9.258-3.555-1.109-3.827 1.706-3.827 1.706s-3.115-1.777-7.992-.896c-4.893.896-5.334 6.884-5.334 6.884s2.888-2.22 5.546-2.66c2.674-.442 4.452 2.446 4.452 2.446-.228 1.55.881 3.327 3.115 3.996 2.218.669 7.325.669 9.998 2.887 2.66 2.22 4.21 5.12 4.21 5.12s-4.665-.227-7.765-.227c-3.115 0-7.11-2.888-9.785-3.555-2.66-.669-6 1.55-6 1.55s-3.556-1.778-7.993 1.337c-4.452 3.115-3.997 7.78-3.997 7.78s2.433-2.887 4.438-3.782c2.005-.881 4.224.227 4.224.227s-.228 2.447 1.536 2.888c1.764.441 5.802 3.782 5.802 3.782-9.785 2.22-4.223 9.558-4.223 9.558s1.991-2.901 4.665-4.011c2.66-1.109 4.892.227 4.892.227.881 2.219 4.153.54 7.054-1.451 2.887-2.005 10.269-3.599 16.497-4.125 5.178-.441 8.662.682 10.44.91 1.777.214 5.76-1.693 9.087-1.479 3.327.228 9.386 6.258 15.175 7.368 5.773 1.108 4.85-2.119 8.405-2.119 3.555 0 8.447 4.679 8.447 4.679s-1.337-5.334-3.342-7.78c-1.992-2.447-8.378-2.973-8.378-2.973-2.674-4.224-6.5-2.859-9.586-2.574-2.446.242-4.808-1.28-4.808-1.28s10.994-2.517 26-12.728c15.004-10.227 19.213-21.789 19.213-21.789 3.782 3.115 17.251 6.627 17.251 6.627.669-9.557-6.514-16.497-14.506-15.73-3.541.342-8.378-3.897-13.71-4.792-5.334-.881-7.466-4.993-8.135-9.216-.669-4.21 1.777-8.662 5.334-10.88 3.555-2.219 6.442-6.67 6.442-6.67 2.888 4.451 9.201 4.537 9.201 4.537 2.888 7.339 16.27 7.281 16.27 7.281 4.438 7.112 18.817 2.275 18.817 2.275 5.106 6.215 15.715 2.134 15.715 2.134 1.777 3.996 9.998 2.219 9.998 2.219 0 2.887 5.547 6.442 5.547 6.442-1.352 5.932 2.446 13.554 2.446 13.554-2.888 3.555-1.109 9.785-1.109 9.785s-3.996 1.55-4.665 4.48c-.669 2.93 1.55 6.186 1.55 6.186s-.925 2.574-7.595 6.8c-6.656 4.223-11.62-.228-16.285-2.233-4.665-1.992-10.552-9.685-13.454-10.568-2.887-.896-2.887 1.778-2.887 1.778s-2.063-.91-5.305-.072c-4.565 1.167-6.471 6.955-6.471 6.955s2.588-1.55 5.702-1.99c3.115-.442 4.523 1.322 4.523 1.322s-1.338 2.887 1.337 3.115c2.66.227 6.001 2.446 6.001 2.446s-4.892-.228-8.447 0c-1.934.114-2.774 1.579-3.186 2.93-.683.185-1.153.127-1.934.399-10.211 3.555-8.22 10.226-8.22 10.226 4.892-6.67 10.226-3.996 10.226-3.996.058.811 4.266 2.19 8.619-.043 2.261-1.166 8.86-.767 11.051.896.526.4-2.219 1.48-5.22 1.807-4.679.526-5.12 4.223-5.12 4.223-9.771 2.674-9.33 10.454-9.33 10.454s3.996-1.777 7.553-3.414c3.555-1.635 7.893 1.082 10.993-2.033 3.115-3.115 6.927-5.348 11.492-5.917 5.035-.61 6.413 2.688 11.747 2.915 2.219.085 5.448-1.578 10.34-3.356 4.893-1.777 9.656.241 13.654 2.46 3.996 2.233 5.334 2.674 9.771 1.338 4.451-1.338 9.785 3.115 10.226 4.451.442 1.322-.938-5.305-4.493-8.42s-10.098-5.618-14.62-6.699c-2.574-.626-4.708-9.7-2.489-11.207 1.621-1.082 3.826-18.119 5.162-29.682 1.338-11.548-4.977-21.39-4.977-21.39s4.081 1.835 7.196 4.51c3.115 2.66 9.743 5.645 12.843 4.308 3.115-1.323-4.623-9.429-14.393-15.204-9.785-5.774-32.669-18.446-32.669-18.446 44.004-2.219 58.425-24.761 61.98-38.088 3.555-13.34-2.417-22.357-2.417-22.357l5.831-18.134c3.996 7.111 19.499 11.023 19.499 11.023s-7.116-19.563-6.675-35.563" fill="#dd2e44"/><path d="M142.934 153.743s3.512-.67 6.855 0c3.356.668 6.527 1.678 6.527 1.678s-2.176 5.845-7.694 5.178c-5.518-.67-5.688-6.856-5.688-6.856" fill="#fff"/><path d="M149.746 153.743c-1.38-.27-2.731-.3-3.911-.257 0 .1-.1.157-.1.257a4.179 4.179 0 0 0 4.181 4.18c1.934 0 3.314-1.45 3.798-3.242-1.153-.299-2.518-.655-3.968-.939"/></svg>