<svg xmlns="http://www.w3.org/2000/svg" viewBox="0 0 512 512"><path d="M455.111 71.111H56.89C25.472 71.111 0 96.582 0 128v256c0 31.418 25.472 56.889 56.889 56.889H455.11C486.53 440.889 512 415.416 512 384V127.999c0-31.416-25.473-56.888-56.889-56.888" fill="#eee"/><g fill="#0065bd"><path d="M184.889 256S0 122.112 0 126.506v258.985C0 389.887 184.889 256 184.889 256M256 298.666S52.58 440.89 57.899 440.89h396.217C459.42 440.889 256 298.666 256 298.666M327.111 256S512 389.887 512 385.494V126.507C512 122.112 327.111 256 327.111 256M256 213.334S52.58 71.11 57.899 71.11h396.217C459.42 71.111 256 213.334 256 213.334"/></g></svg>