<svg xmlns="http://www.w3.org/2000/svg" viewBox="0 0 512 512"><g fill="#292f33"><path d="M455.111 71.111H56.89C25.472 71.111 0 96.582 0 128v256c0 31.418 25.472 56.889 56.889 56.889H455.11C486.53 440.889 512 415.416 512 384V128c0-31.418-25.473-56.889-56.889-56.889"/><path d="M220.445 156.445c-11.79 0-21.334 9.543-21.334 21.334 0 21.334 9.543 21.334 21.334 21.334s21.334-9.543 21.334-21.334-.002-21.334-21.334-21.334M291.555 156.445c-21.334 0-21.334 9.543-21.334 21.334s9.558 21.334 21.334 21.334 21.334 0 21.334-21.334c0-11.792-9.558-21.334-21.334-21.334M256 213.334c-7.851 0-14.223 3.186-14.223 7.111s6.372 7.111 14.223 7.111 14.223-3.186 14.223-7.111-6.372-7.111-14.223-7.111"/></g><g fill="#e6e7e8"><path d="M412.729 353.849c-7.395-2.688-15.545 1.109-18.233 8.505l-96.939-35.285 96.953-35.272c2.688 7.382 10.824 11.18 18.219 8.492s11.192-10.823 8.505-18.219c-2.688-7.381-10.838-11.193-18.233-8.505 7.395-2.688 11.208-10.838 8.505-18.233-2.687-7.38-10.837-11.192-18.219-8.49-7.395 2.673-11.192 10.837-8.505 18.232L255.986 311.95l-128.782-46.876c2.687-7.395-1.109-15.559-8.505-18.233-7.382-2.702-15.532 1.109-18.219 8.491-2.703 7.395 1.109 15.545 8.505 18.233-7.395-2.688-15.545 1.124-18.233 8.505a14.195 14.195 0 0 0 8.505 18.219c7.395 2.687 15.532-1.109 18.22-8.492l96.938 35.272-96.925 35.285c-2.688-7.395-10.838-11.193-18.233-8.505-7.38 2.687-11.178 10.837-8.505 18.218 2.703 7.395 10.852 11.193 18.248 8.505-7.395 2.688-11.208 10.852-8.505 18.233 2.674 7.395 10.851 11.179 18.219 8.505 7.381-2.703 11.192-10.851 8.505-18.233l128.767-46.862 128.783 46.862c-2.688 7.382 1.123 15.532 8.505 18.233 7.367 2.674 15.545-1.109 18.218-8.505 2.688-7.381-1.108-15.545-8.505-18.233 7.395 2.688 15.545-1.108 18.248-8.505 2.672-7.38-1.125-15.53-8.506-18.218"/><path d="M291.555 199.111c-11.776 0-21.334-9.542-21.334-21.333s0-21.334 21.334-21.334c11.776 0 21.334 9.542 21.334 21.334 0 21.333-9.558 21.333-21.334 21.333M256 227.555c-7.851 0-14.223-3.186-14.223-7.111s6.372-7.111 14.223-7.111 14.223 3.186 14.223 7.11-6.372 7.112-14.223 7.112m-35.555-28.444c-11.79 0-21.334 0-21.334-21.334 0-11.79 9.543-21.333 21.334-21.333 21.334 0 21.334 9.542 21.334 21.333s-9.544 21.334-21.334 21.334M256 99.555c-56.889 0-85.334 46.066-85.334 85.334 0 19.826 11.762 34.118 28.445 43.435V256c0 7.865 6.372 14.222 14.223 14.222s14.222-6.357 14.222-14.222v-17.294a133.86 133.86 0 0 0 14.223 2.304V256c0 7.865 6.371 14.223 14.222 14.223s14.223-6.358 14.223-14.223v-14.99a134.18 134.18 0 0 0 14.222-2.304V256c0 7.865 6.358 14.222 14.223 14.222 7.865 0 14.222-6.357 14.222-14.222v-27.676c16.683-9.315 28.445-23.609 28.445-43.435-.002-39.268-28.447-85.334-85.336-85.334"/></g></svg>