<svg xmlns="http://www.w3.org/2000/svg" viewBox="0 0 512 512"><path d="M512 384c0 31.418-25.473 56.889-56.889 56.889H56.89C25.472 440.889 0 415.417 0 384V128c0-31.418 25.472-56.889 56.889-56.889H455.11C486.53 71.111 512 96.584 512 128v256z" fill="#244aa5"/><path d="M241.92 194.787c.74-.013 2.233-.057 2.973-.07 1.748 1.82 3.555 3.598 5.347 5.375-.029 1.38.54 2.375 1.934 2.788-1.238.328-2.518.441-3.769.569a5.639 5.639 0 0 1-1.934 1.678c.214 2.034 2.076 3.172 3.356 4.565 1.323.128 2.817.1 3.827 1.124.981.029 1.948.058 2.93.071 0 1.267 0 2.547.013 3.798 1.223-.114 2.745.1 3.1-1.407 2.12-.014 4.267-.03 6.4.013.57 1.18 1.892 1.251 2.944 1.749.128.669.384 1.978.513 2.645 1.081-1.38 2.105-3.157 4.081-3.229.611.839 1.238 1.693 1.877 2.532 1.11.07 2.29.185 2.788 1.393.469.014 1.465.058 1.963.072 0 2.375-.157 4.765.142 7.125.285.17.896.526 1.166.71.029 1.907.029 3.798 0 5.703 1.195 1.024 3.2 1.934 4.253.172h1.692c.725 1.052 1.608 1.977 2.703 2.673.028 1.863 0 3.727.028 5.575 2.46.897.882 4.267 1.352 6.273 1.251.854 2.247 1.977 2.83 3.414.341-.64.725-1.267 1.095-1.892 1.407.029 2.83.043 4.266.085.64.74 1.28 1.494 1.977 2.248.285.299.897.939 1.167 1.266.995.241 1.977.555 2.773 1.238.84.057 1.68.085 2.532.142.669 1.521 2.389 1.309 3.755 1.608-.469.34-1.394 1.038-1.863 1.38-.057 3.115.228 6.243-.142 9.358-.27.143-.854.469-1.138.627-.029 1.592-.299 3.142-1.365 4.422.669 0 1.949-.029 2.618-.029.029.355.085 1.082.114 1.452h1.222c.029-.37.085-1.095.143-1.452h2.274c.03.355.058 1.039.085 1.394 1.352.241 3.328-.497 4.082 1.066 3.498.072 6.997.043 10.525.014.028.469.113 1.408.142 1.863a66.658 66.658 0 0 1 1.608 1.89c1.166 0 2.361 0 3.555.03l-.114 2.076c1.081.967 2.275 1.835 3.811 1.835 0-.669.029-1.949.029-2.603.582.014 1.721.014 2.304.029.028-.355.113-1.066.156-1.422 1.679.1 3.84-.427 4.224 1.806a55.054 55.054 0 0 0 1.365-2.034c1.108.328 2.033 1.066 2.943 1.749 0 .469.03 1.422.03 1.891 1.92.399 1.165 2.475 1.335 3.854-.81.626-1.62 1.266-2.417 1.906 0 1.963 0 3.94-.029 5.903-.611.013-1.777.042-2.361.057v6.741c-1.365 1.095-2.589 2.319-3.84 3.499v4.125c-.91.767-1.778 1.521-2.66 2.275v1.735c-.981.867-2.063 1.55-3.356 1.706a67.466 67.466 0 0 0-1.807 2.219c-.426.114-1.25.341-1.678.441.696.399 1.365.797 2.062 1.224-.029 2.703-.057 5.419-.029 8.121-1.635 1.38-3.782 1.294-5.773 1.28-.696.854-1.394 1.706-2.119 2.56-1.494-.014-2.546.981-3.47 2.005.029 1.294.057 2.589.114 3.883 2.275 1.209 3.171 4.537 6.087 4.409.029 2.16.413 4.622-1.65 6.03-.91-.03-1.849-.03-2.745-.03-1.422 2.048-4.522.654-6.641 1.01v-2.36c-.669-.03-1.309-.043-1.963-.058a79.411 79.411 0 0 1-2.033 2.304c-1.167.142-2.134.725-3.029 1.422-1.408.1-2.83.058-4.224.058-.029.355-.085 1.081-.114 1.465a221.723 221.723 0 0 0-3.157-.072c-.896.868-1.608 1.907-1.693 3.214-.725.626-1.478 1.251-2.205 1.878.058 1.521.085 3.171-1.52 3.882.327 1.721-.94 4.736 1.493 5.205-.029.626-.043 1.251-.071 1.891-3.314.1-6.614.043-9.928.058-.029-1.124-.029-2.233-.057-3.343-2.389-.682-.91-3.755-1.323-5.532a47.308 47.308 0 0 0-1.422-.071c0-.569.028-1.679.028-2.233-1.08-.114-2.332.058-2.773-1.166h-1.949c-.058-.881-.114-1.806-.171-2.688-1.992 0-4.025 0-6.03-.013-.058.468-.1 1.393-.128 1.862-.582.626-1.137 1.251-1.706 1.891h-3.044a85.068 85.068 0 0 0-1.592 2.347 234.07 234.07 0 0 0-4.494.085 15.172 15.172 0 0 1-1.721 1.748 84.652 84.652 0 0 0-.071 1.878c-1.153.114-2.404.127-2.732 1.494h-2.944c-.61.782-1.222 1.592-1.835 2.403-1.82 0-3.64 0-5.46.014-.855 2.119-3.428 1.081-5.178 1.38a9.525 9.525 0 0 1-2.703 2.631 140.33 140.33 0 0 0-.042 3.5c-.355.013-1.067.07-1.423.084-.014 1.124-.029 2.248-.029 3.385-.825.626-1.62 1.28-2.432 1.934.085 3.029.071 6.045.014 9.087.811.64 1.607 1.28 2.432 1.934.014 2.688 0 5.348.014 8.021a61.87 61.87 0 0 0-1.679 1.664c-.512 0-1.536.029-2.047.043-.014.526-.058 1.565-.058 2.091-.399.399-1.209 1.195-1.607 1.592-2.219 0-4.438 0-6.642.03-1.01 1.28-2.076 2.53-3.142 3.797-1.479 0-2.959-.014-4.438-.029-.198-1.138-.44-2.29-1.222-3.186-.114-2.959-.058-5.903-.058-8.86 1.238-1.195 2.447-2.418 3.713-3.584 0-1.294.014-2.574 0-3.854-.299-.171-.91-.512-1.223-.697-.27-3.997-.013-8.035-.085-12.06h-2.205c-.198-1.238.03-2.873-1.635-3.002-.013-3.028-.028-6.045.043-9.073-.74-.627-1.479-1.267-2.219-1.907-.199-1.166-.199-2.502-1.536-2.943-.014-.868-.043-1.735-.058-2.603-1.592-.711-1.322-3.257.37-3.612-1.407-1.238-2.716-2.574-4.067-3.854 0-.413-.014-1.238-.014-1.65-1.565-.313-2.959-1.066-4.48-1.479-.426-1.095-1.494-1.195-2.517-1.224-.242-.285-.74-.81-.982-1.095a3.86 3.86 0 0 1-2.417-1.166c-.441-.014-1.323-.029-1.764-.042-.54-2.375-1.65-4.594-1.337-7.112a20.115 20.115 0 0 1-1.722-1.748c-3.072-.114-6.13.042-9.187-.058-.796.029-1.451-.214-1.991-.782a39.975 39.975 0 0 0-2.119-2.005c-.043-2.034.071-4.097-.1-6.115-.526-1.423-1.423-2.645-2.261-3.883-.014-.469-.058-1.407-.072-1.862-.34-.043-1.023-.157-1.365-.185 0-.484 0-1.452.014-1.92-1.479-.897-.896-2.759-1.109-4.153l-3.668-.085c0-.484-.014-1.436-.014-1.891a185.747 185.747 0 0 0-1.835-1.735c-.498-.029-1.494-.085-1.978-.128-.013-.483-.042-1.436-.042-1.92-1.138-.71-1.436-1.877-1.394-3.142a150.52 150.52 0 0 1 2.489-.1c0-2.248.029-4.509-.085-6.77-.74-1.394-1.365-2.915-2.546-4.011-.299-.355-.897-1.082-1.195-1.437a80.968 80.968 0 0 0-1.735-.142c-.555-.54-1.095-1.081-1.635-1.621 0-.939 0-1.849-.014-2.788-1.878-.384-1.18-2.446-1.408-3.826-2.26-1.479-.27-4.224.37-6.073.413-.526.882-1.023 1.365-1.507a22.066 22.066 0 0 0 2.29-2.716h3.258c.64.838 1.294 1.65 1.949 2.475.54-.029 1.621-.1 2.161-.143v2.531c4.081 0 8.164-.028 12.245.03.114-1.196-.1-2.66 1.422-2.916.03-2.332.03-4.665.114-6.997 1.423-.114 3.058.156 4.125-1.082a83.076 83.076 0 0 0 1.934-.1c-.014-1.28-.014-2.53 0-3.782 1.962 0 3.954.1 5.916-.1.171-.341.513-1.053.669-1.394 1.322-.071 2.134.611 2.475 1.849a77.196 77.196 0 0 1 2.219-2.56c1.251-.285 2.403-.811 3.228-1.82 1.294-1.081 2.93-1.621 4.41-2.433-.37-.355-1.082-1.066-1.452-1.422-.043-1.749-1.223-2.973-2.603-3.869a154.512 154.512 0 0 1 0-5.162 53.491 53.491 0 0 0 3.03-2.944h2.66c1.578-2.148 3.527-3.968 5.603-5.604v-1.962c.512.028 1.536.028 2.047.042.2 1.266 1.267 1.38 2.304 1.408a11.825 11.825 0 0 1 1.706-1.878c.03-.399.085-1.18.128-1.565 1.934-1.294.611-4.167 1.039-6.13.952-.952 2.303-1.679 2.731-3.029-.384-1.337-1.749-2.033-2.66-3 .669-3.143-2.248-4.552-3.869-6.67-.74-.086-1.465-.157-2.19-.228-.241-1.053-.142-2.347-1.209-3.015a118.767 118.767 0 0 1-.028-4.48c3.171-.058 6.357.213 9.515-.128.156-.285.468-.825.626-1.095 1.337-.825 2.83-1.422 4.025-2.46a123.81 123.81 0 0 1 3.982-.057c.627-.825 1.28-1.622 1.92-2.418.54.014 1.622.058 2.162.071.044-.355.142-1.023.171-1.365" fill="#d0a650"/><g fill="#ededed"><path d="M398.506 131.015l-5.475 16.796-17.38-.185 14.265 10.383-5.546 16.497 14.279-10.382 13.966 10.382-5.419-16.796 14.165-10.084h-17.663l-5.192-16.611zM341.475 115.655L336 132.451l-17.407-.185 14.293 10.368-5.546 16.512 14.279-10.382 13.966 10.382-5.448-16.796 14.194-10.084h-17.664l-5.192-16.611zM284.445 108.16l-5.475 16.782-17.394-.17 14.279 10.367-5.546 16.512 14.278-10.382 13.967 10.382-5.448-16.811 14.194-10.069-17.664-.013-5.191-16.598zM113.479 131.015l5.461 16.796 17.394-.185-14.265 10.383 5.532 16.497-14.278-10.381-13.967 10.382 5.448-16.796-14.18-10.084h17.65l5.205-16.612zM170.481 115.655l5.461 16.796 17.394-.185-14.265 10.368 5.533 16.512-14.279-10.382-13.98 10.382 5.461-16.796-14.18-10.084h17.65l5.205-16.611zM227.499 108.16l5.461 16.782 17.394-.17-14.279 10.367 5.546 16.512-14.279-10.382-13.98 10.382 5.462-16.811-14.18-10.069 17.65-.013 5.205-16.598z"/></g></svg>