<svg xmlns="http://www.w3.org/2000/svg" viewBox="0 0 512 512"><path d="M512 384c0 31.418-25.473 56.889-56.889 56.889H56.89C25.472 440.889 0 415.417 0 384V128c0-31.418 25.472-56.889 56.889-56.889H455.11C486.53 71.111 512 96.584 512 128v256z" fill="#eee"/><path d="M184.889 352.881s-2.66 1.793-5.334 1.195c-2.66-.597-6.514.128-6.514.128l-22.94-39.509s-12.316 11.52-23.58 1.451c5.917 1.778 13.028-10.084 21.633-5.049-8.008-7.394-23.41 5.633-31.119-12.444 10.666 6.527 16.896-3.854 26.666 2.673-9.486-10.666-23.41.981-29.027-13.426 8.59 3.058 15.701-6.329 23.395 0-6.514-13.241-26.368 5.134-30.223-17.095 8.605 4.451 18.077-1.18 23.41 3.271-10.068-19.271-19.257 2.944-27.847-25.187 5.931 8.291 14.222.285 22.812 13.326-6.215-23.709-23.111-3.854-28.445-31.701 10.667-3.555 15.104 12.16 23.709 15.402-5.334-18.375-16.597-13.027-9.785-34.66 15.418 7.694 8.59 20.737 13.639 35.854 3.84-5.334-1.195-12.16 1.479-16.896 2.66-4.736 4.138-7.111 3.257-9.486 13.924 16-2.972 29.638-1.479 35.27 1.479 5.618 3.84 7.695 3.84 7.695s-1.478-8.59 1.494-13.625c2.959-5.035 7.694-6.813 7.395-11.264 3.271 3.854 2.076 12.742-1.777 17.195-3.84 4.437-4.438 15.402-2.063 19.257-.91-12.017 9.785-11.263 8.008-23.41 5.916 1.18 8.007 14.82 1.478 19.854-6.527 5.035-1.478 18.959-1.478 18.959s.285-8.875 3.84-13.028 5.632-8.605 4.736-12.742c4.75 3.84 5.334 14.805 2.076 20.139-3.257 5.333-8.291 8.306-3.257 16.896-.598-15.701 10.068-12.758 9.785-22.813 6.215 4.737 2.66 14.82-.897 18.077-3.555 3.242-2.958 10.666-2.958 10.666s3.853-5.348 6.812-7.424c2.959-2.062 5.035-7.992 5.035-7.992s3.669 18.475-7.992 19.257c-.298 8.604 16.286 34.076 22.216 41.186" fill="#379543"/><g fill="#0081c7"><path d="M340.451 375.95l-11.847 5.675 11.263-36.438 7.112-4.736 18.361-75.264h-6.813l18.66-34.076v40.291l-5.916-5.318-17.977 75.348 4.337 8.193-9.187 36.75-7.993-10.425z"/><path d="M331.179 364.43l-12.814 3.854 18.93-33.124 7.965-3.073 41.97-78.847-6.656-1.479 25.629-29.212-8.775 39.338-4.608-6.485-41.6 79.02 2.446 8.05-16.952 33.862-5.535-11.904z"/><path d="M318.863 369.066l-13.142-.085 26.084-27.805 8.476-1.152 54.813-64.925-6.115-2.986 31.701-22.485-17.664 36.21-2.972-7.353-54.514 65.195.285 9.272-24.32 29.014-2.633-12.9z"/></g><g fill="#f4c63d"><path d="M207.417 246.215c-4.437 8.889-13.923 7.098-16.88 4.152-3.258 6.514-14.237.882-14.237-4.152-5.02 3.555-10.367.597-10.951-3.256-7.709 1.18-14.223-6.813-11.848-11.563-7.111-1.478-9.201-9.771-4.152-12.728-15.119.285-26.965-4.438-22.528-11.264-13.923-1.479-18.958-8.008-16.285-12.146-14.521-1.778-21.048-8.008-18.972-13.924-19.258-3.271-23.694-13.056-21.633-17.195-16-3.555-20.437-11.549-16.881-15.403-8.889-.597-10.666-9.486-7.709-12.742-10.367-4.736-8.291-16.299-1.322-15.403 6.955.882 29.469 13.028 70.656 21.035 2.375-1.777 6.813-.896 13.924 2.375 7.111 3.258 41.201 12.729 50.674 16.285 9.486 3.555 14.492 10.894 13.34 17.195-2.077 11.25-10.383 13.028-7.41 16.285 2.958 3.271 11.847-4.437 17.777-.881 5.916 3.552 4.438 53.33 4.438 53.33M305.891 246.215c4.438 8.889 13.938 7.098 16.881 4.152 3.272 6.514 14.237.882 14.237-4.152 5.035 3.555 10.382.597 10.965-3.256 7.694 1.18 14.222-6.813 11.847-11.563 7.111-1.478 9.201-9.771 4.153-12.728 15.104.285 26.965-4.438 22.514-11.264 13.923-1.479 18.958-8.008 16.285-12.146 14.535-1.778 21.062-8.008 18.972-13.924 19.256-3.271 23.709-13.056 21.633-17.195 16-3.555 20.45-11.549 16.896-15.403 8.889-.597 10.666-9.486 7.694-12.742 10.367-4.736 8.29-16.299 1.337-15.403-6.969.882-29.469 13.028-70.67 21.035-2.361-1.777-6.812-.896-13.924 2.375-7.111 3.258-41.187 12.729-50.66 16.285-9.5 3.555-14.492 10.894-13.34 17.195 2.063 11.25 10.368 13.028 7.395 16.285-2.943 3.271-11.832-4.437-17.777-.881-5.916 3.552-4.438 53.33-4.438 53.33M206.223 251.861c-1.778 6.215-6.23 13.042-13.625 18.674-7.41 5.617-11.25 14.805-10.965 20.736.298 5.931-2.077 10.354-5.633 11.848l3.258 1.195s-5.32 7.097-8.292 7.694c-2.972.597-17.195-1.18-19.853 1.478-2.66 2.674-7.993 13.327-4.438 15.418 3.541 2.076 5.035 5.632 7.098 7.694 2.076 2.076 13.326-1.195 15.715-3.258 2.36-2.076 2.076-12.445 4.138-13.625 2.077-1.18 21.633-10.069 21.633-10.069l.299 4.452s3.256-3.87 5.93-5.05c2.66-1.18 3.258-6.812 4.737-9.485 1.479-2.66 12.743-12.743 27.549-14.522 14.816-1.777-27.551-33.18-27.551-33.18M306.83 251.861c1.777 6.215 6.229 13.042 13.625 18.674 7.41 5.617 11.25 14.805 10.965 20.736-.299 5.931 2.076 10.354 5.632 11.848l-3.27 1.195s5.333 7.097 8.305 7.694c2.973.597 17.195-1.18 19.854 1.478 2.66 2.674 7.993 13.327 4.438 15.417-3.542 2.076-5.035 5.632-7.098 7.693-2.076 2.077-13.326-1.195-15.715-3.257-2.361-2.076-2.091-12.445-4.139-13.625-2.09-1.18-21.646-10.069-21.646-10.069l-.285 4.451s-3.271-3.868-5.931-5.048c-2.674-1.18-3.258-6.813-4.736-9.487-1.494-2.66-12.743-12.742-27.549-14.521-14.832-1.776 27.55-33.179 27.55-33.179"/><path d="M229.262 288.597c-5.205-1.152-7.41 5.633-7.11 8.292-5.633.597-18.675 18.673-20.737 24.888-2.076 6.23-.299 8.903 2.361 8.605-.285 4.438 3.271 8.15 7.111 6.884.3 4.665 2.973 7.638 6.23 7.339.597 5.02 3.554 7.992 7.11 7.098.598 5.035 4.438 7.722 9.473 6.228.299 6.813 5.334 13.327 12.445 5.917 1.195 13.638 18.076 18.105 19.854.91 6.228 5.617 14.222 2.66 14.222-6.827 3.555 2.66 8.59-.896 8.889-6.228 3.555 1.478 6.528-2.063 6.528-7.993 3.84 2.076 6.527-2.205 6.228-6.741 4.139 1.407 7.993-2.731 7.111-7.481 3.84 1.478 6.5-4.608 1.778-12.147-7.424-11.861-18.973-20.451-18.973-20.451s1.778-7.054-7.693-8.42c-9.487-1.351-54.827.128-54.827.128M222.521 190.521c4.438-3.853 6.813-10.367 6.813-10.367s-4.153.597-6.813-2.674c4.438-.583 10.682-5.035 12.743-8.291-3.854.299-6.371-2.375-6.371-2.375s8.746-2.361 9.927-7.41c1.18-5.035 1.778-7.694 3.854-9.771 2.062-2.077-1.778-8.59-7.111-8.008-5.334.597-11.848 1.195-13.042 4.451-2.076-5.632 1.195-11.847 6.215-12.742 5.049-.882 8.193-1.18 8.193-1.18s.697-4.153 4.252-3.854c4.75-6.215 7.851-6.813 15.773-6.514 7.936.299 11.79 5.035 15.047 11.25 3.272 6.229 2.674 20.451 9.487 26.666-1.778 2.375-7.112 0-7.112 0s5.319 9.188 13.625 13.938c-1.18 2.063-6.215 2.959-6.215 2.959s6.514 5.632 7.993 12.146c1.492 6.512-67.258 1.776-67.258 1.776"/></g><path d="M289.024 185.814c-16.199 0-31.033-7.738-31.033-7.738s-14.847 7.738-31.032 7.738c-16.199 0-29.326-7.439-29.326-7.439v41.188c0 51.555 40.988 80 60.358 91.548 19.357-11.548 60.374-39.992 60.374-91.548v-41.188s-13.143 7.439-29.341 7.439" fill="#a70033"/><g fill="#fff"><path d="M216.59 316.445h8.605v-95.986h-8.605v95.986zM197.632 316.445h8.605v-95.986h-8.605v95.986zM234.737 316.445h8.605v-95.986h-8.605v95.986zM253.681 316.445h8.605v-95.986h-8.605v95.986zM271.829 316.445h8.605v-95.986h-8.605v95.986zM290.83 316.445h8.605v-95.986h-8.605v95.986zM309.746 316.445h8.605v-95.986h-8.605v95.986z"/></g><path d="M257.991 178.076s-14.834 7.738-31.032 7.738-29.327-7.439-29.327-7.439v41.188c0 1.407.143 2.745.2 4.138h120.32c.07-1.394.213-2.731.213-4.139v-41.187s-13.141 7.439-29.34 7.439c-16.2 0-31.034-7.738-31.034-7.738" fill="#172668"/><g fill="#0081c7"><path d="M51.854 214.215H24.59s5.931 1.18 8.605 7.41c2.66 6.215 19.356 55.211 20.736 61.099 2.077 8.817-4.451 10.595-4.451 10.595h26.965s-7.709-1.338-5.334-10.595c2.375-9.245 18.077-55.168 19.854-60.8 1.777-5.633 6.813-7.709 6.813-7.709H70.813s9.187 2.062 6.527 9.472c-2.674 7.41-14.521 47.12-14.521 47.12s-13.34-39.723-15.702-47.12c-2.374-7.396 4.737-9.472 4.737-9.472M481.337 214.215H456.45s4.835 3.328 4.835 9.771c0 6.557-.172 55.937-.172 60.673 0 6.229-5.688 8.661-5.688 8.661h26.936s-7.239-3.769-7.239-9.102V222.55c0-5.675 6.216-8.335 6.216-8.335"/></g></svg>