<svg xmlns="http://www.w3.org/2000/svg" viewBox="0 0 512 512"><path d="M455.111 71.111H56.889C25.472 71.111 0 96.583 0 128v256c0 31.417 25.472 56.889 56.889 56.889h398.222C486.528 440.889 512 415.417 512 384V128c0-31.417-25.472-56.889-56.889-56.889z" fill="#009e60"/><path d="M56.889 71.111C25.472 71.111 0 96.583 0 128v256c0 31.417 25.472 56.889 56.889 56.889H384V71.111H56.889z" fill="#fcd116"/><path d="M56.889 71.111C25.472 71.111 0 96.583 0 128v256c0 31.417 25.472 56.889 56.889 56.889H128V71.111H56.889z" fill="#0072c6"/><g fill="#009e60"><path d="M225.185 333.038l30.82 61.625 30.805-61.625-30.805-61.625-30.82 61.625zM186.662 256l30.82 61.625L248.287 256l-30.805-61.625L186.662 256zM263.704 256l30.82 61.625L325.329 256l-30.805-61.625L263.704 256z"/></g></svg>