<svg xmlns="http://www.w3.org/2000/svg" viewBox="0 0 511.999 511.999"><path d="M511.999 383.999V128c0-31.416-25.473-56.888-56.889-56.888H56.894c-29.05 0-52.705 21.783-56.051 49.902v99.848H.007l.34 169.532c3.084 28.506 27.222 50.491 56.547 50.491H455.11C486.53 440.886 512 415.414 512 384z" fill="#5b97b1"/><path d="M270.224 71.112H56.894c-31.416 0-56.889 25.473-56.889 56.89V256h270.219V71.112z" fill="#00247d"/><path d="M270.224 256v-28.856l-100.977-70.699H94.882L237.06 256h33.165z" fill="#eee"/><path d="M270.224 235.832L156.86 156.445h-24.789l138.153 96.739v-17.352z" fill="#cf1b2b"/><path d="M115.199 156.445L0 238.449v17.55h47.387l142.193-99.555-74.381.001z" fill="#eee"/><path d="M152.38 156.445L10.444 256h24.561l142.178-99.555H152.38z" fill="#cf1b2b"/><path d="M237.072 71.112L94.895 170.668h74.366l100.963-70.7V71.114h-33.151z" fill="#eee"/><path d="M249.447 71.112l-142.163 99.556h24.788l138.153-96.74v-2.815h-20.778z" fill="#cf1b2b"/><path d="M9.431 96.647l132.794 92.95v-18.93h47.331L48.314 71.757c-16.227 2.455-30.197 11.77-38.883 24.89z" fill="#eee"/><path d="M13.785 90.905l128.441 90.03v-10.269h10.154L24.589 81.184a57.243 57.243 0 0 0-10.804 9.721z" fill="#cf1b2b"/><path d="M270.224 128.001h-99.555V71.112H99.56v56.89H.005v71.11H99.56V256h71.11v-56.889h99.555v-71.11z" fill="#eee"/><g fill="#cf1b2b"><path d="M156.447 256h-42.666V71.112h42.666V256z"/><path d="M270.224 184.89H.005v-42.666h270.219v42.666z"/></g><g fill="#ffce00"><path d="M193.403 394.982l-6.927-21.332-6.926 21.332h-22.428l18.133 13.184-6.926 21.319 18.147-13.17 18.134 13.17-6.926-21.319 18.147-13.184h-22.429zM285.619 378.398l6.926-21.333-18.134 13.184-18.147-13.184 6.926 21.333-18.134 13.183h22.415l6.94 21.319 6.926-21.319h22.43l-18.148-13.184zM292.553 281.894l-18.148 13.183-18.134-13.183 6.926 21.332-18.147 13.17h22.427l6.927 21.333 6.94-21.333h22.415l-18.134-13.169 6.928-21.333zM356.164 359.396l6.926-21.332-18.134 13.184-18.147-13.184 6.926 21.332-18.134 13.184h22.414l6.94 21.319 6.926-21.319h22.428l-18.145-13.184zM338.024 209.006l6.926 21.333 6.926-21.333h22.428l-18.134-13.183 6.926-21.32-18.147 13.17-18.134-13.17 6.926 21.32-18.147 13.183h22.43zM402.674 301.956l-6.926-21.332-6.927 21.332h-22.427l18.134 13.184-6.927 21.319 18.148-13.17 18.134 13.17-6.927-21.319 18.148-13.184h-22.43zM403.288 186.7l6.926 21.332 6.926-21.332h22.428l-18.134-13.184 6.926-21.319-18.148 13.17-18.133-13.17 6.926 21.32-18.148 13.183h22.43zM468.243 259.745l-6.927-21.332-6.926 21.332h-22.427l18.133 13.184-6.926 21.319 18.148-13.17 18.133 13.17-6.926-21.32 18.148-13.183h-22.43zM450.101 128.671l-6.926 21.333 18.134-13.184 18.147 13.184-6.926-21.333 18.134-13.184h-22.415l-6.94-21.318-6.926 21.318h-22.428l18.146 13.184z"/></g></svg>