<svg xmlns="http://www.w3.org/2000/svg" viewBox="0 0 512 512"><path d="M455.111 71.111H56.889c-13.191 0-25.323 4.503-34.973 12.038a57.175 57.175 0 0 0-3.484 2.938C7.105 96.486 0 111.413 0 128v256c0 16.587 7.105 31.514 18.432 41.913a57.175 57.175 0 0 0 3.484 2.938c9.65 7.535 21.783 12.038 34.973 12.038h398.222C486.528 440.889 512 415.417 512 384V128c0-31.417-25.472-56.889-56.889-56.889z" fill="#dc241f"/><path d="M21.916 428.851L336.597 256 21.916 83.149a57.175 57.175 0 0 0-3.484 2.938L227.556 256 18.432 425.913a57.847 57.847 0 0 0 3.484 2.938z" fill="#ffc726"/><path d="M18.432 425.913L227.556 256 18.432 86.087C7.105 96.486 0 111.413 0 128v256c0 16.587 7.105 31.514 18.432 41.913z" fill="#141414"/><path d="M96.377 275.131l46.379 7.708-32.996-33.493 21.66-41.728-42.041 21.02-32.996-33.493 6.997 46.492-42.041 21.02 46.379 7.708 6.997 46.492 21.662-41.726z" fill="#fff"/></svg>