<svg xmlns="http://www.w3.org/2000/svg" viewBox="0 0 512 512"><path d="M455.111 71.111H56.89c-.95 0-1.893.026-2.833.073-.309.015-.614.045-.921.065-.629.041-1.258.081-1.879.144-.354.034-.701.083-1.052.124-.575.068-1.15.134-1.719.22-.351.052-.7.116-1.049.173a54.09 54.09 0 0 0-1.697.304c-.33.065-.655.138-.983.21-.585.127-1.17.258-1.749.403-.286.072-.57.15-.855.225-.627.168-1.25.343-1.87.532-.223.067-.445.138-.668.208-.695.222-1.385.453-2.068.7-.135.048-.27.098-.405.148-.804.297-1.599.609-2.384.94l-.022.01C14.325 84.225 0 104.44 0 128v256c0 31.416 25.472 56.889 56.889 56.889H455.11C486.527 440.889 512 415.416 512 384V128c0-31.416-25.473-56.889-56.889-56.889z" fill="#006a4e"/><g fill="#ffce00"><path d="M220.445 219.022H512v-73.955H220.445v73.955zM0 291.555v75.377h512v-73.955l-291.555-1.422H0z"/></g><path d="M0 121.596v170.378h220.863V71.11H56.889c-29.25 0-53.543 22.084-56.889 50.485z" fill="#d21034"/><path d="M175.482 162.325H126.36l-.185-.569-15.587-47.972-.312.952-15.461 47.589H43.77l40.648 29.539.655.47-15.19 46.705-.584 1.834 41.288-30.01 41.3 30.01-15.772-48.542 41.288-30.008-1.922.002z" fill="#fff"/></svg>