<svg xmlns="http://www.w3.org/2000/svg" viewBox="0 0 512 512"><path d="M455.112 71.113H56.894C25.477 71.113.006 96.585.006 128.001v255.997c0 31.417 25.472 56.888 56.888 56.888h398.218c31.417 0 56.888-25.472 56.888-56.888V128.001c0-31.416-25.472-56.888-56.888-56.888z" fill="#00247d"/><path d="M270.225 256v-28.857l-100.977-70.698H94.881L237.059 256h33.166z" fill="#eee"/><path d="M270.225 235.833l-113.364-79.388h-24.789l138.153 96.738v-17.35z" fill="#cf1b2b"/><path d="M115.199 156.446L0 238.45V256h47.388l142.192-99.554h-74.381z" fill="#eee"/><path d="M152.379 156.446L10.443 256h24.561l142.178-99.554h-24.803z" fill="#cf1b2b"/><path d="M237.072 71.113L94.894 170.668h74.367L270.223 99.97V71.113h-33.151z" fill="#eee"/><path d="M249.447 71.113l-142.164 99.554h24.789l138.153-96.738v-2.816h-20.778z" fill="#cf1b2b"/><path d="M9.432 96.649l132.795 92.949v-18.93h47.331L48.315 71.758c-16.227 2.456-30.198 11.77-38.883 24.891z" fill="#eee"/><path d="M13.785 90.906l128.441 90.031v-10.268h10.155L24.589 81.185a57.209 57.209 0 0 0-10.804 9.721z" fill="#cf1b2b"/><path d="M270.225 128.001h-99.554V71.113H99.56v56.888H.006v71.11H99.56V256h71.11v-56.888h99.554v-71.111z" fill="#eee"/><g fill="#cf1b2b"><path d="M156.449 256h-42.666V71.113h42.666V256z"/><path d="M270.225 184.89H.006v-42.666h270.219v42.666z"/></g><path d="M378.89 186.376c-2.005-5.703-15.104-10.595-20.892-8.377 6.67-12.444 17.721-16.213 23.31-22.002 5.575-5.774 5.803-10.88 5.803-10.88s5.106 8.661 10.226 16.668c5.106 7.993 12.032 12.444 12.032 12.444s-18.035 5.405-30.479 12.147" fill="#c0e6e9"/><path d="M381.529 185.167a1.208 1.208 0 1 1-2.418 0v-35.072a1.208 1.208 0 1 1 2.418 0v35.072z" fill="#ae7521"/><path d="M389.862 192.001c-9.571 0-24.746-.441-26.083-3.115-1.337-2.66-1.778-9.557-1.778-9.557s11.335 5.561 26.666 5.561 25.116-5.561 25.116-5.561.114 9.372-4.423 11.122c-3.171 1.223-8.604 1.55-19.498 1.55" fill="#c7e9eb"/><path d="M321.557 232.001c-1.778 4.437-2.005 10.226 1.337 12.672 3.328 2.432 8.661-2.446 8.661-2.446s-9.557-.897-9.998-10.226" fill="#9fc2ff"/><path d="M343.334 239.56c-4.224-3.783-13.056-.882-13.056-.882s1.052-5.12 3.726-6.67c-7.339-.668-11.221 1.337-13.724 7.552-2.944-3.328 1.28-11.548 1.28-11.548s9.557-5.788 18.659 0c7.552-10.453 8.747-28.458-.398-26.894 2.404-6.002 19.598-2.233 16.327 8.107-3.257 10.339-8.59 14.336-8.59 14.336s8.917-8.419 15.018-4.651c6.087 3.769 8.761 21.404-4.579 15.587-13.326-5.831-15.772-2.19-16 0-.213 2.176 1.337 5.063 1.337 5.063" fill="#00a3d6"/><path d="M374.224 236.445c-5.689 16.739-16.882 16.739-16.882 16.739s.654-5.788 2.887-8.377c-9.557 3.641-22.898-2.148-20.01-16.81 2.233 9.33 11.563 12.444 20.224 8.22 8.675-4.21 14.649-2.304 13.781.228" fill="#9fc2ff"/><path d="M311.78 211.779c-1.621-2.645 2.247-7.339 7.452-5.561-3.456 3.783-1.863 7.566 0 10.226 1.878 2.673-5.674-1.778-7.452-4.665" fill="#00a3d6"/><path d="M347.114 200.223c-4.224-1.337-7.296.882-7.296.882s-2.261-5.106-9.145-3.1c-6.898 1.991-11.107-.469-11.107-.469s2.219 7.196 12.658 7.282c-6.443 8.291-17.337 9.856-20.437 6.955 1.778 4.011 7.993 8.889 10.211 9.116 2.233.228 13.938-6.684 16.455-14.663.441-1.408 1.778.213 0 2.987-1.778 2.788-3.342 5.902-2.233 10.795 1.621-2.716 5.12-2.901 6.898-7.111 1.778-4.224.213-8.675 3.996-10.012 3.783-1.325 0-2.662 0-2.662" fill="#9fc2ff"/><path d="M401.183 262.812c-6.898 0-7.41-11.847-7.41-11.847s-2.062.967-7.993 5.959c-5.931 5.006-14.819 5.959-14.819 5.959s-6.812-7.481 1.195-16.37c-.313-8.889-10.382-18.076-10.382-18.076l-8.291-1.778s19.84-19.257 34.375-20.437c14.521-1.18 15.388 5.333 14.208 18.659-1.18 13.34 2.972 21.632 2.972 21.632s12.43 16.299-3.855 16.299" fill="#8da8c3"/><g fill="#cc1530"><path d="M364.668 220.896c-1.55 1.778-1.493 2.432 2.915 2.219 4.423-.228 6.727.043 6.727.043s-9.202 4.807-14.976 2.162c.897-2.874 5.334-4.424 5.334-4.424M396.903 249.557s5.987-3.783 8.206 2.66c2.219 6.457-.27 7.111-3.243 7.339-2.972.226-4.963-9.999-4.963-9.999"/></g><g fill="#9fc2ff"><path d="M417.556 230.891c-1.963 4.338-2.005 13.781 7.779 17.337 1.779-7.112.442-11.336-7.779-17.337M438.669 235.556c2.219-2.219.668-10.894-6.002-7.552-6.67 3.328-9.671 2.446-11.392 1.337 1.166-2.005 5.845-3.556 5.845-3.556s-8.533.654-10.61-6.457c5.049 1.337 7.495 0 7.495 0s-2.788-1.991-2.731-3.556c3.84-1.323 9.173 2.901 9.173 2.901s-1.892-3.115-2.276-10.453c-.398-7.339 5.603-9.884 10.055-6.386-4.224 5.049.668 14.834 2.66 23.282 8.22-6.002 18.218-4.665 18.674 4.665.441 9.33-2.446 7.111-2.446 7.111s3.556-8.889-9.33-7.552c5.547 2.66 2.887 5.148 2.887 5.148s-6.001-1.591-12.002 1.068"/></g><g fill="#00a3d6"><path d="M409.584 211.553c-5.803-.654-3.584 6.471-12.032 9.344 2.005.882 6.016 0 6.016 0s-3.982 7.324 0 14.891c3.541-2.887 4.651-7.779 4.651-7.779s0 8.505 4.452 12.587c3.883-5.02 1.991-11.25 1.991-11.25s2.731 7.623 11.363 11.25c8.647 3.627 14.421-4.366 15.09-8.59.668-4.224-1.337-5.49-1.337-5.49s-7.282 6.827-13.753 2.83c2.859-2.674 1.636-4.139-4.75-4.636-6.386-.484-7.936-9.372-8.604-10.482-.669-1.111-3.087-2.675-3.087-2.675M428.859 203.869c2.475-6.542 10.923-7.609 14.023-5.632 5.788-3.129 11.861 3.1 16.711 1.095-2.034 4.665-8.035 6.955-11.15 5.475 3.783 5.419 13.824 9.031 17.55 5.774 3.74-3.271 1.195 4.224-6.4 6.713-7.595 2.489-12.928-6.713-12.928-6.713s1.55 5.703 0 8.121c-5.774-2.034-8.775-8.092-8.619-12.487.171-4.379-3.442-7.593-9.187-2.346"/></g><path d="M459.601 217.293c5.959-1.294 10.411-6.201 10.624-8.078.228-1.877-3.029-7.595-10.624-4.395 6.627 2.517 5.376 10.652 0 12.473" fill="#9fc2ff"/><path d="M458.263 225.315c4.622 6.243 3.285 12.914 2.404 14.236-.896 1.337-7.765 3.74-10.439-.882 5.774-.44 11.221-5.489 8.035-13.354" fill="#00a3d6"/><path d="M390.084 212.225c-10.155 0-25.401 5.063-25.401 5.063s-.526-6.03-3.797-11.065c-3.257-5.035-4.736-12.146-4.736-12.146s8.291 1.493 9.187 6.528c.882 5.035-.299 9.472-.299 9.472l10.069-2.66s-2.66-4.352-5.035-1.195-5.035-8.59-1.479-10.368S381.521 192 381.521 192s.711 8.59 1.294 10.667-4.75 2.148-4.75 2.148l.896 1.408h8.889s-2.958-3.328-2.958-8.59c0-5.76 6.215-11.25 6.215-11.25s5.561 7.438 5.561 11.847c0 4.395-3.314 7.993-3.314 7.993l7.822 1.493s2.958-5.931 0-4.451c-2.958 1.479-2.972-1.778-1.778-5.632 1.195-3.854.313-7.41.313-7.41l12.131 5.632s.896 1.294 0 5.987c-.882 4.679-6.215 4.238-6.215 4.238v2.816l7.993 2.076s-2.375-5.532 0-9.131c2.375-3.612 10.382-5.987 10.382-5.987s-6.528 11.762-10.382 21.433c-4.905-2.331-13.381-5.062-23.536-5.062" fill="#d9a323"/><path d="M390.209 256H352.35v45.781c0 39.068 26.282 45.226 37.589 48.369v.071c.043-.014.1-.028.142-.043.028.014.085.028.128.043v-.071c11.321-3.143 37.603-9.301 37.603-48.369V256h-37.603z" fill="#fff"/><g fill="#179af9"><path d="M389.946 256h-37.603v44.671h75.462V256h-37.859z"/><path d="M390.084 326.893s-2.745-13.995-14.976-26.225h28.444c.001-.001-10.936 11.121-13.468 26.225"/></g><g fill="#fff"><path d="M390.084 274.445s-2.745 13.994-14.976 26.225h28.444c.001.001-10.936-11.121-13.468-26.225M386.67 274.445c-.839 2.46-5.774 7.111-9.33 8.22-3.556 1.109-9.059 5.333-9.756 7.339-.697-2.233 1.749-5.561 1.749-5.561s-3.996.441-4.437 5.561c-.441 5.106-8.732 5.333-8.732 5.333s1.621-7.111 5.845-11.335 6.827-1.778 9.415-3.342c2.574-1.55-.981-5.106 1.92-9.102 2.887-3.996 10.667-2.887 13.326-6.002.882 2.446-6.67 6.883-7.779 7.339-1.109.441-1.55 3.1-.213 2.887 1.322-.227 5.987-.896 7.992-1.337M393.488 274.445c.839 2.46 5.774 7.111 9.33 8.22s9.059 5.333 9.756 7.339c.697-2.233-1.749-5.561-1.749-5.561s3.996.441 4.437 5.561c.441 5.106 8.732 5.333 8.732 5.333s-1.621-7.111-5.845-11.335c-4.224-4.224-6.827-1.778-9.415-3.342-2.574-1.55.981-5.106-1.92-9.102-2.887-3.996-10.667-2.887-13.326-6.002-.882 2.446 6.67 6.883 7.779 7.339 1.109.441 1.55 3.1.213 2.887-1.322-.227-5.987-.896-7.992-1.337"/></g><g fill="#179af9"><path d="M386.67 326.666c-.839-2.46-5.774-7.111-9.33-8.22-3.556-1.109-9.059-5.333-9.756-7.339-.697 2.233 1.749 5.561 1.749 5.561s-3.996-.441-4.437-5.561c-.441-5.106-8.732-5.333-8.732-5.333s1.621 7.111 5.845 11.335 6.827 1.778 9.415 3.342c2.574 1.55-.981 5.106 1.92 9.102 2.887 3.996 10.667 2.887 13.326 6.002.882-2.446-6.67-6.883-7.779-7.339-1.109-.441-1.55-3.1-.213-2.887 1.322.228 5.987.896 7.992 1.337M393.488 326.666c.839-2.46 5.774-7.111 9.33-8.22 3.556-1.109 9.059-5.333 9.756-7.339.697 2.233-1.749 5.561-1.749 5.561s3.996-.441 4.437-5.561c.441-5.106 8.732-5.333 8.732-5.333s-1.621 7.111-5.845 11.335c-4.224 4.224-6.827 1.778-9.415 3.342-2.574 1.55.981 5.106-1.92 9.102-2.887 3.996-10.667 2.887-13.326 6.002-.882-2.446 6.67-6.883 7.779-7.339 1.109-.441 1.55-3.1.213-2.887-1.322.228-5.987.896-7.992 1.337"/></g><path d="M364.891 228.002c6.443 2.66 12.003-.882 17.778-5.561 5.774-4.665 12.032-2.204 13.81-1.55 1.778.668-2.034.626-8.59 4.423s-9.671 4.992-9.884 9.173c-.228 4.181-2.005 1.82-2.887 0-.896-1.82-1.109 3.072 0 7.964 1.109 4.878-.811 10.738-.811 10.738s-1.665-15.346-9.416-25.187"/><g fill="#d8ab6d"><path d="M302.002 264.445s1.109-3.328 5.561-5.774c4.437-2.446 1.323-4.452-1.564-4.224-2.887.228-5.106.441-8.22 8.448-3.115 7.993-14.891 42.666 4.224 61.326-5.561-2.66-10.667-13.554-10.667-13.554s.668 7.339 4.452 14.663c-11.335-17.778-10.012-36.664-8.235-50.887 1.778-14.222 6.002-23.324 12.444-23.779 5.333-7.993 15.118-3.854 22.442 2.517 7.339 6.371 10.894 12.373 10.894 12.373s.967-11.776 6.485-10.667c5.518 1.109 13.511 5.12 14.635 8.007 1.109 2.887-6.898.668-8.448-1.109-1.564-1.778-4.594-3.783-6.187-2.005s-2.702 9.771-2.702 9.771 3.94-7.324 6.3-6.656c2.361.668 13.113 10.211 12.743 13.554-.384 3.328-3.271-1.778-6.158-4.011-2.887-2.219-5.163-6.215-6.585-5.547-1.408.668-6.528 12.444-6.969 13.554-.441 1.109 1.195.882 3.371-2.105 2.19-3.001 4.622-6.343 5.959-6.343 1.337 0 10.553 12.672 10.396 15.559-.171 2.887-1.55 5.561-2.688 6.229-1.138.654.512-3.314-2.148-7.993-2.674-4.679-5.12-9.571-6.229-8.903-1.109.668-6.215 8.661-7.111 10.667-.882 2.005 5.788-4.665 8.22-3.556 2.446 1.109 6.03 13.753 6.13 17.778s-2.318 6.67-3.556 7.779c-1.237 1.109-.768-3.996 0-6.443.768-2.446-1.01-5.561-1.678-9.33-.668-3.783-1.337-7.339-2.005-6.229s-10.88 9.998-11.776 10.667c-.882.668 3.2 0 6.485-1.778 3.3-1.778 5.077-1.55 5.518 1.778.441 3.328 1.109 13.781-3.996 16.668-5.12 2.887.441-3.556 1.109-6.67.668-3.115.213-9.771-1.109-9.102-1.337.654-10.667 7.552-13.568 8.661-2.887 1.109-1.323 8.661 1.564 12.885s9.187 8.448 10.482 4.665c1.294-3.769 6.215-7.779 8.974-5.774s1.436 5.774 1.436 5.774 3.627 0 3.257 3.996c-.37 4.011-5.49 8.007-17.934 6.229-12.444-1.778-27.989-6.67-27.107-28.444-4.665-19.114-1.109-27.335-.441-32.668.668-5.333 2.66-13.184 1.991-13.81-.652-.624-5.772.926-7.991 3.813M478.861 264.445s-1.109-3.328-5.561-5.774c-4.437-2.446-1.323-4.452 1.564-4.224 2.887.228 5.106.441 8.22 8.448 3.115 7.993 14.891 42.666-4.224 61.326 5.561-2.66 10.667-13.554 10.667-13.554s-.668 7.339-4.451 14.663c11.335-17.778 10.012-36.664 8.235-50.887-1.778-14.222-6.002-23.324-12.444-23.779-5.333-7.993-15.118-3.854-22.442 2.517-7.339 6.371-10.894 12.373-10.894 12.373s-.967-11.776-6.485-10.667c-5.518 1.109-13.511 5.12-14.635 8.007-1.109 2.887 6.898.668 8.448-1.109 1.564-1.778 4.594-3.783 6.187-2.005s2.702 9.771 2.702 9.771-3.94-7.324-6.3-6.656c-2.361.668-13.113 10.211-12.743 13.554.384 3.328 3.271-1.778 6.158-4.011 2.887-2.219 5.163-6.215 6.585-5.547 1.408.668 6.528 12.444 6.969 13.554.441 1.109-1.195.882-3.371-2.105-2.19-3.001-4.622-6.343-5.959-6.343-1.337 0-10.553 12.672-10.396 15.559.171 2.887 1.55 5.561 2.688 6.229 1.138.654-.512-3.314 2.148-7.993 2.674-4.679 5.12-9.571 6.229-8.903 1.109.668 6.215 8.661 7.111 10.667.882 2.005-5.788-4.665-8.22-3.556-2.446 1.109-6.03 13.753-6.13 17.778s2.318 6.67 3.556 7.779c1.237 1.109.768-3.996 0-6.443-.768-2.446 1.01-5.561 1.678-9.33.668-3.783 1.337-7.339 2.005-6.229s10.88 9.998 11.776 10.667c.882.668-3.2 0-6.485-1.778-3.3-1.778-5.077-1.55-5.518 1.778-.441 3.328-1.109 13.781 3.996 16.668 5.12 2.887-.441-3.556-1.109-6.67-.668-3.115-.213-9.771 1.109-9.102 1.337.654 10.667 7.552 13.568 8.661 2.887 1.109 1.323 8.661-1.564 12.885s-9.187 8.448-10.482 4.665c-1.294-3.769-6.215-7.779-8.974-5.774-2.759 2.005-1.436 5.774-1.436 5.774s-3.627 0-3.257 3.996c.37 4.011 5.49 8.007 17.934 6.229 12.444-1.778 27.989-6.67 27.107-28.444 4.665-19.114 1.109-27.335.441-32.668-.668-5.333-2.66-13.184-1.991-13.81.651-.624 5.771.926 7.99 3.813"/></g><g fill="#cc1530"><path d="M338.447 352.667c1.82-6.371 17.337-12.217 22.215-11.335 4.892.896 13.781 4.452 8.675 8.889-5.12 4.452-16 8.22-23.338 9.785-7.325 1.549-8.889-2.675-7.552-7.339M442.015 352.667c-1.82-6.371-17.337-12.217-22.215-11.335-4.892.896-13.781 4.452-8.675 8.889 5.12 4.452 16 8.22 23.338 9.785 7.324 1.549 8.889-2.675 7.552-7.339"/></g><g fill="#fbfae7"><path d="M446.611 344.221s-6.883-7.495-13.554-2.972c-6.67 4.523-25.941 20.522-42.979 20.522-17.024 0-36.295-16-42.965-20.522s-13.554 2.972-13.554 2.972 3.328 1.55 2.66 4.892c-.668 3.328 0 9.102 3.598 10.297-4.181-10.354 10.411-5.191 16.355.924 5.945 6.101 21.603 13.44 33.905 13.44 12.316 0 27.975-7.339 33.92-13.44 5.945-6.115 20.537-11.278 16.355-.924 3.598-1.195 4.252-6.969 3.598-10.297-.667-3.342 2.661-4.892 2.661-4.892"/><path d="M359.338 341.289c7.822-1.65 18.005 6.926 19.783 8.931 1.778 1.991-.896 8.22-4.011 5.774-3.1-2.446-5.148-2.916-8.917-3.541-3.755-.626-8.661-5.604-3.299-7.566-2.29 2.66 0 6.243 3.556 4.011 3.554-2.233.667-6.102-7.112-7.609M422.209 341.289c-7.822-1.65-18.005 6.926-19.783 8.931-1.778 1.991.896 8.22 4.011 5.774 3.1-2.446 5.148-2.916 8.917-3.541 3.755-.626 8.661-5.604 3.299-7.566 2.29 2.66 0 6.243-3.556 4.011-3.555-2.233-.668-6.102 7.112-7.609"/></g></svg>