<svg xmlns="http://www.w3.org/2000/svg" viewBox="0 0 512 512"><path d="M512 384c0 31.418-25.473 56.889-56.889 56.889H56.89C25.472 440.889 0 415.417 0 384V128c0-31.418 25.472-56.889 56.889-56.889H455.11C486.53 71.111 512 96.584 512 128v256z" fill="#032a87"/><path d="M455.111 71.111H56.89C25.472 71.111 0 96.582 0 128v128h512V128c0-31.418-25.473-56.889-56.889-56.889" fill="#dc181e"/><path d="M18.674 425.955l223.545-168.974L18.915 85.988C7.381 96.398 0 111.304 0 128.07v256c0 16.654 7.281 31.488 18.674 41.884" fill="#eee"/><path d="M122.666 209.621c0 13.014-13.681 23.566-30.549 23.566-16.88 0-30.563-10.552-30.563-23.566s13.681-23.552 30.563-23.552c16.868 0 30.55 10.539 30.55 23.552" fill="#fada10"/><path d="M54.813 199.694c6.542-6.543 30.137-6.215 37.29-2.076-7.964-10.724 3.002-5.633 11.606-5.633 8.59-.014 10.951 2.645 5.333 3.242-5.632.612-10.382-.284-8.888 1.494 1.478 1.778 10.068.285 17.763-1.493 7.71-1.75 16.598 4.75 17.195 5.945.583 1.18-13.638-1.778-18.673 0-5.035 1.777-13.042 1.478-12.445 3.257s-8.378 2.959-11.89 2.076c-3.513-.896-18.034-.597-15.659-2.076 2.361-1.479 5.334-3.257 6.514-3.854 1.194-.597-17.779-1.181-28.146-.882" fill="#bd725f"/><path d="M144.441 207.104s-13.355 6.783-26.894 3.555c-14.89-3.555-25.77-1.978-25.77 2.005 0-3.983-10.894-5.561-25.786-2.005-13.525 3.229-26.88-3.555-26.88-3.555s9.87 15.772 3.997 47.331c-6.002 32.227-4.224 46.891 21.19 47.844 21.476.811 27.478 7.267 27.478 7.267s5.988-6.457 27.478-7.267c25.415-.953 27.192-15.616 21.191-47.844-5.874-31.559 3.996-47.331 3.996-47.331" fill="#dc181e"/><path d="M134.67 264.22c-7.552-25.999.441-47.331.441-47.331s-11.776 3.555-24.888-.228c-13.113-3.768-18.447 2.674-18.447 2.674s-5.333-6.442-18.432-2.674c-13.113 3.783-24.889.228-24.889.228s7.992 21.334.441 47.331 10.88 29.781 23.325 29.554c12.445-.214 19.555 6.897 19.555 6.897s7.112-7.111 19.555-6.897c12.445.227 30.892-3.555 23.339-29.554" fill="#63b0e2"/><g fill="#fff"><path d="M121.557 282.88v-12.885h2.888v-5.12h-3.115v-13.767h2.888l-23.766-15.787v-6.442h3.556l-12.232-8.22-12.217 8.22h3.555v6.442l-23.78 15.787h2.887v13.767h-3.115v5.12h2.901v12.885h-3.555v6.442h66.66v-6.442h-3.555zM123.89 229.22c0 5.091-1.039 6.997-2.333 6.997s-2.332-1.906-2.332-6.997 2.333-9.216 2.333-9.216 2.332 4.123 2.332 9.216"/><path d="M130.56 236.885h-18.005c0-2.446 4.039-4.437 9.002-4.437 4.978 0 9.003 1.99 9.003 4.437"/></g><path d="M69.334 230.215s-3.328 6.001-3.997 9.557c-.668 3.556-2.673-2.218-2.673-2.218s-3.555 3.555-4.438 4.879c-.896 1.337-1.109-10.212 0-11.777 1.109-1.55-2.674-1.109-3.996-1.777-1.338-.669 2.887-4.879 2.887-4.879s-5.788-2.674-3.782-3.342 9.33-.214 11.776 1.777c2.446 2.005 8.22-1.338 10.439-1.777 2.232-.442 0 2.218-1.777 3.782-1.778 1.55-.882 5.546-.882 7.553-.002 2.006-3.557-1.778-3.557-1.778" fill="#018830"/><g fill="#b6b6b6"><path d="M105.558 266.439H79.33v-7.553h26.227v7.553zM74.666 263.111h-7.992v-10.438h7.992v10.438zM74.666 280.661h-7.992v-10.439h7.992v10.44zM117.561 263.111h-7.992v-10.438h7.992v10.438zM117.561 280.661h-7.992v-10.439h7.992v10.44zM98.005 236.217H86.001v-5.56h12.004v5.56z"/></g><path d="M163.555 266.894l-2.219-12.673-11.776 3.783 3.555 17.108 2.66.67s.227 13.78-10.226 24.447c-10.439 10.666-28.885 10.666-28.885 10.666s-9.558 6.884-24.889 6.884-24.889-6.884-24.889-6.884-18.446 0-28.885-10.666c-10.453-10.667-10.226-24.448-10.226-24.448l2.674-.669 3.555-17.108-11.79-3.783-2.219 12.673-4.224.441s.228 24.889 8.889 38.001c8.675 13.113 28.004 17.109 28.004 17.109s.227 1.565.668 3.115c12.673 7.339 38.443 7.78 38.443 7.78s25.785-.441 38.443-7.78c.44-1.55.668-3.115.668-3.115s19.343-3.996 28.004-17.109 8.889-38.001 8.889-38.001l-4.224-.441z" fill="#fada10"/></svg>