<svg xmlns="http://www.w3.org/2000/svg" viewBox="0 0 512 512"><path d="M455.111 71.111H56.889C25.472 71.111 0 96.583 0 128v256c0 31.417 25.472 56.889 56.889 56.889h398.222C486.528 440.889 512 415.417 512 384V128c0-31.417-25.472-56.889-56.889-56.889z" fill="#da121a"/><path d="M455.111 71.111H56.889C25.472 71.111 0 96.583 0 128v42.667h512V128c0-31.417-25.472-56.889-56.889-56.889z" fill="#141414"/><path fill="#eee" d="M0 170.667h512v28.444H0z"/><path d="M0 384c0 31.417 25.472 56.889 56.889 56.889h398.222C486.528 440.889 512 415.417 512 384v-42.667H0V384z" fill="#078930"/><path fill="#eee" d="M0 312.889h512v28.444H0z"/><path d="M19.954 427.248L270.464 256 19.954 84.752C7.748 95.186 0 110.684 0 128v256c0 17.316 7.748 32.814 19.954 43.248z" fill="#0f47af"/><path d="M117.319 256l25.259-34.773-40.875 13.284-25.273-34.774v42.98L35.556 256l40.875 13.284v42.98l25.273-34.773 40.875 13.284L117.319 256z" fill="#fcdd09"/></svg>