<svg xmlns="http://www.w3.org/2000/svg" viewBox="0 0 395.636 395.636"><path d="M351.676 54.95H43.96C19.684 54.95 0 74.632 0 98.909v197.818c0 24.277 19.684 43.96 43.96 43.96h307.717c24.277 0 43.96-19.683 43.96-43.96V98.91c0-24.277-19.683-43.959-43.96-43.959z" fill="#eee"/><path d="M0 129.131v167.597c0 24.276 19.684 43.96 43.96 43.96h307.718c24.276 0 43.96-19.684 43.96-43.96V129.13H0z" fill="#005da4"/><path d="M0 252.767v43.96c0 24.277 19.684 43.96 43.96 43.96h307.718c24.276 0 43.96-19.683 43.96-43.96v-43.96H0zM122.263 87.005c-24.728 0-42.126 9.155-42.126 9.155s1.594 21.98 3.66 55.873c2.054 33.882 38.465 45.783 38.465 45.783s36.41-11.902 38.465-45.784c2.067-33.892 3.66-55.872 3.66-55.872s-17.397-9.155-42.124-9.155" fill="#ed1c23"/><path d="M160.362 94.364c-6.462-2.66-20.32-7.364-38.1-7.364-17.77 0-31.64 4.704-38.102 7.364.131 2.307 1.516 27.507 3.297 56.752 1.87 30.674 34.806 41.444 34.806 41.444s32.947-10.77 34.816-41.444a9651.656 9651.656 0 0 0 3.283-56.752" fill="#004a77"/><g fill="#fff"><path d="M133.019 174.959c-3.89 0-5.726 2.319-11.45 2.319-5.714 0-6.638-2.32-10.529-2.32-2.945 0-4.769 1.32-7.023 1.967 8.924 6.703 18.244 9.451 18.244 9.451 7.814-1.297 13.958-5.121 18.607-9.44-2.96-.649-4.883-1.977-7.85-1.977M111.504 159.761c3.66 0 6.868 2.858 10.76 2.858 3.89 0 6.637-2.858 10.76-2.858 3.527 0 8.166 4.605 14.946 1.968 3.055-5.154 4.518-9.254 4.518-9.254l-13.738-19.694-6.869 8.353-9.617-18.421-9.155 18.42-6.638-8.782s-5.956 7.066-15.804 20.343c1.177 3.144 2.76 5.869 4.473 8.419 7.791 3.846 13.045-1.352 16.364-1.352M144.007 168.051c-5.033 0-7.1-2.857-10.99-2.857-3.89 0-5.726 2.857-11.45 2.857-5.725 0-6.637-2.857-10.528-2.857s-5.825 2.857-9.385 2.857c-1.287 0-2.727-.396-4.1-.933 1.395 1.846 2.78 3.747 4.286 5.308 4.242-.373 7.396-3 9.66-3 3.66 0 6.869 3.055 10.76 3.055 3.89 0 6.637-3.055 10.76-3.055 2.539 0 5.671 2.594 9.747 2.979 1.21-1.56 2.253-3.11 3.22-4.649-.637.109-1.242.295-1.98.295"/></g><g fill="#fd0"><path d="M113.398 96.791l2.385 2.561-3.407-.79-1.022 3.34-1.023-3.34-3.406.79 2.385-2.56-2.385-2.562 3.406.791 1.023-3.341 1.022 3.341 3.407-.791-2.385 2.561zM136.407 96.791l2.385 2.561-3.407-.79-1.022 3.34-1.023-3.34-3.406.79 2.385-2.56-2.385-2.562 3.406.791 1.022-3.341 1.023 3.341 3.407-.791-2.385 2.561zM124.49 112.126l2.385 2.561-3.407-.79-1.023 3.34-1.022-3.34-3.408.79 2.385-2.56-2.385-2.562 3.408.791 1.022-3.341 1.023 3.341 3.407-.791-2.385 2.561z"/></g></svg>