<svg xmlns="http://www.w3.org/2000/svg" viewBox="0 0 512 512"><path d="M512 384c0 31.418-25.473 56.889-56.889 56.889H56.89C25.472 440.889 0 415.417 0 384V128c0-31.418 25.472-56.889 56.889-56.889H455.11C486.53 71.111 512 96.584 512 128v256z" fill="#060"/><path d="M455.111 71.111H213.334V440.89H455.11C486.53 440.889 512 415.416 512 384V128c0-31.417-25.473-56.889-56.889-56.889" fill="#d52b1e"/><path d="M288.526 321.124l-41.714-41.714-10.055 10.055 6.7 6.699-5.618 8.42 33.792 22.527h-44.06V157.57c18.774 2.687 35.883 10.539 49.749 22.201l-37.789 12.586 4.509 13.498 42.666-14.223-1.465-4.38a97.317 97.317 0 0 1 6.699 7.794l-39.879 26.595 3.954 5.903-3.186 6.37 44.16 22.073-44.16 22.088 6.357 12.728 53.305-26.652c-1.779 21.716-10.496 41.442-23.965 56.974m-89.401 33.293c-13.34-1.92-25.799-6.442-36.879-13.085h36.879v13.085zM114.19 264.15l53.305 26.652 6.357-12.729-44.16-22.087 30.094-15.048 20.081 20.082 10.055-10.055-16.725-16.725.654-.328-6.357-12.729-4.907 2.447-13.866-13.867 20.793 3.47 2.332-14.037-35.755-5.959a99.364 99.364 0 0 1 63.033-35.669V327.11h-44.075l33.792-22.528-7.894-11.832-42.666 28.445.199.285c-13.651-15.589-22.498-35.429-24.29-57.331m0-16.313c1.195-14.535 5.447-28.189 12.202-40.291l22.8 22.799-35.002 17.492zm113.38 93.498h36.864a99.031 99.031 0 0 1-36.864 13.085v-13.085zm42.581-114.66l29.71-19.812a98.934 98.934 0 0 1 12.629 40.974l-42.339-21.162zm-56.804-84.452C150.5 142.222 99.57 193.153 99.57 256c0 62.834 50.93 113.778 113.777 113.778 62.834 0 113.778-50.944 113.778-113.778 0-62.848-50.944-113.778-113.778-113.778" fill="#ffcc4d"/><path d="M156.445 184.889v99.555c0 31.417 25.473 56.889 56.889 56.889s56.889-25.473 56.889-56.89V184.89H156.445z" fill="#d52b1e"/><path d="M170.666 199.111v85.334c0 23.552 19.1 42.666 42.666 42.666S256 307.996 256 284.445v-85.334h-85.333z" fill="#fff"/><g fill="#829acd"><path d="M241.778 270.222h-56.89v-28.445h56.89v28.445z"/><path d="M227.555 284.445H199.11v-56.889h28.445v56.889z"/></g><g fill="#039"><path d="M184.889 270.222h-14.223v-28.445h14.223v28.445zM227.555 270.222H199.11v-28.445h28.445v28.445zM256 270.222h-14.223v-28.445H256v28.445zM227.555 312.889H199.11v-28.445h28.445v28.445zM227.555 199.111H199.11v28.445h28.445v-28.445z"/></g></svg>