<svg xmlns="http://www.w3.org/2000/svg" viewBox="0 0 512 512"><path d="M455.111 71.111H56.89C25.472 71.111 0 96.584 0 128v256c0 31.416 25.472 56.889 56.889 56.889H455.11C486.527 440.889 512 415.416 512 384V128c0-31.416-25.473-56.889-56.889-56.889z" fill="#0092c8"/><path d="M56.889 440.889h85.333V71.11H56.89C25.473 71.111 0 96.584 0 128v256c0 31.416 25.473 56.889 56.889 56.889z" fill="#ca0000"/><path d="M142.222 71.111H56.89C25.472 71.111 0 96.584 0 128v85.334h142.222V71.11z" fill="#dc241f"/><path d="M142.222 220.298v-28.445l-55.308-49.777L142.222 92.3V71.11h-8.063L71.11 127.854 21.661 83.35A57.134 57.134 0 0 0 7.777 99.3l47.53 42.776L0 191.854v28.445l71.111-64 71.111 63.999z" fill="#009543"/><path d="M142.222 127.701H88.89v-56.59h-32c-1.195 0-2.379.049-3.555.122V127.7H0v28.744h53.334v42.666h35.555v-42.666h53.333V127.7zM142.222 312.889H0V199.11h142.222V312.89z" fill="#eee"/><g fill="#292f33"><path d="M27.912 248.47c1.807 0 2.532-.955 1.65-2.306l-3.913-5.86c-.143-5.001-.928-8.744-1.867-8.744s-1.725 3.818-1.866 8.818l-3.901 5.786c-.896 1.351-.17 2.306 1.635 2.306h2.697c.35 2.51.863 3.659 1.435 3.659s1.088-1.149 1.435-3.659h2.695zM23.782 228.468c1.04 0 1.892.327 1.892-3.044 0-3.356-.854-6.088-1.892-6.088s-1.89 2.73-1.89 6.088c0 3.371.852 3.044 1.89 3.044zM28.424 228.468c-3.37 0-3.044.853-3.044 1.89 0 1.04-.327 1.892 3.044 1.892 3.356 0 6.087-.854 6.087-1.891-.001-1.038-2.732-1.892-6.087-1.892zM19.145 232.25c3.37 0 3.044-.854 3.044-1.891 0-1.039.327-1.892-3.044-1.892-3.356 0-6.088.854-6.088 1.892.002 1.037 2.733 1.891 6.088 1.891zM74.279 246.165l-3.915-5.863c-.143-5-.928-8.74-1.867-8.74s-1.724 3.818-1.866 8.82l-3.901 5.783c-.896 1.351-.17 2.306 1.635 2.306h2.696c.349 2.51.863 3.659 1.435 3.659s1.088-1.149 1.435-3.659h2.697c1.807-.001 2.532-.955 1.65-2.306zM68.496 228.468c1.039 0 1.892.327 1.892-3.044 0-3.356-.854-6.088-1.892-6.088s-1.891 2.73-1.891 6.088c.001 3.371.854 3.044 1.891 3.044zM70.096 230.359c0 1.039-.327 1.891 3.044 1.891 3.356 0 6.088-.854 6.088-1.891s-2.73-1.891-6.088-1.891c-3.371 0-3.044.853-3.044 1.89zM66.904 230.359c0-1.039.327-1.891-3.044-1.891-3.356 0-6.088.853-6.088 1.89 0 1.04 2.73 1.892 6.088 1.892 3.371 0 3.044-.854 3.044-1.891zM120.055 246.165l-3.914-5.86c-.142-5.001-.927-8.744-1.866-8.744-.939 0-1.725 3.818-1.866 8.818l-3.901 5.786c-.897 1.351-.17 2.306 1.635 2.306h2.697c.349 2.51.863 3.659 1.435 3.659s1.088-1.149 1.435-3.659h2.695c1.808-.001 2.533-.955 1.65-2.306zM114.275 228.468c1.039 0 1.891.327 1.891-3.044 0-3.356-.853-6.088-1.891-6.088s-1.891 2.73-1.891 6.088c0 3.371.854 3.044 1.891 3.044zM115.872 230.359c0 1.039-.327 1.891 3.044 1.891 3.356 0 6.088-.854 6.088-1.891s-2.73-1.891-6.088-1.891c-3.371 0-3.044.853-3.044 1.89zM109.639 232.25c3.37 0 3.044-.854 3.044-1.891 0-1.039.327-1.892-3.044-1.892-3.356 0-6.088.854-6.088 1.892.002 1.037 2.731 1.891 6.088 1.891zM138.537 203.096c-.04-1.447-.136-3.149-.272-3.985h-3.188c-.137.836-.232 2.589-.272 4.043l-3.901 5.966c-.897 1.351-.17 2.54 1.635 2.54h2.697c.349 1.674.863 3.659 1.435 3.659s1.088-1.987 1.435-3.659h2.695c.606 0 1.079-.291 1.421-.509v-2.457l-3.685-5.598zM86.761 211.66h2.698c.349 1.674.862 3.659 1.435 3.659s1.087-1.986 1.435-3.659h2.696c1.806 0 2.531-1.189 1.65-2.54l-3.915-5.986c-.041-1.446-.135-3.186-.272-4.023H89.3c-.137.836-.231 2.578-.272 4.024l-3.902 5.985c-.896 1.351-.171 2.54 1.635 2.54zM42.094 211.66h2.697c.349 1.674.863 3.659 1.435 3.659s1.088-1.986 1.435-3.659h2.695c1.807 0 2.532-1.189 1.65-2.54l-3.913-5.984c-.042-1.447-.136-3.188-.273-4.025h-3.188c-.137.837-.23 2.577-.272 4.023l-3.901 5.987c-.898 1.35-.172 2.539 1.635 2.539zM3.116 215.319c.573 0 1.088-1.986 1.435-3.659h2.695c1.806 0 2.531-1.189 1.65-2.54l-3.914-5.984c-.04-1.447-.135-3.188-.272-4.025H1.522c-.137.837-.23 2.538-.272 3.983L0 205.004v6.657h1.68c.349 1.673.864 3.658 1.436 3.658zM4.982 277.021c-.14-5.007-.926-8.815-1.866-8.815s-1.725 3.836-1.866 8.844L0 278.957v6.324h1.68c.349 2.51.862 3.659 1.435 3.659s1.087-1.149 1.435-3.659h2.695c1.806 0 2.531-1.026 1.65-2.377l-3.912-5.883zM3.116 256.004c-1.038 0-1.891 2.73-1.891 6.087 0 3.37.854 3.044 1.891 3.044s1.891.327 1.891-3.044c0-3.357-.852-6.087-1.89-6.087zM7.756 268.918c3.356 0 6.088-.854 6.088-1.892s-2.73-1.891-6.088-1.891c-3.37 0-3.044.854-3.044 1.891.002 1.037-.326 1.892 3.044 1.892zM1.524 267.025c0-.845.215-1.567-1.524-1.807v3.613c1.739-.239 1.524-.961 1.524-1.806zM48.315 277.02c-.141-5.008-.926-8.813-1.866-8.813s-1.725 3.837-1.867 8.845l-3.9 5.847c-.897 1.351-.17 2.382 1.634 2.382h2.696c.35 2.51.863 3.659 1.435 3.659s1.088-1.149 1.435-3.659h2.697c1.806 0 2.531-1.026 1.65-2.377l-3.914-5.884zM46.448 256.004c-1.04 0-1.892 2.73-1.892 6.087 0 3.37.854 3.044 1.892 3.044 1.038 0 1.89.327 1.89-3.044.002-3.357-.852-6.087-1.89-6.087zM51.09 265.134c-3.37 0-3.044.853-3.044 1.891s-.327 1.891 3.044 1.891c3.356 0 6.088-.854 6.088-1.891s-2.73-1.891-6.088-1.891zM44.855 267.025c0-1.039.328-1.891-3.044-1.891-3.356 0-6.087.853-6.087 1.891s2.73 1.891 6.087 1.891c3.372.001 3.044-.854 3.044-1.891zM93.205 277.021c-.141-5.007-.926-8.815-1.866-8.815s-1.725 3.836-1.867 8.843l-3.9 5.849c-.897 1.35-.17 2.382 1.634 2.382h2.698c.349 2.51.862 3.659 1.435 3.659s1.087-1.149 1.435-3.659h2.695c1.806 0 2.531-1.026 1.65-2.377l-3.914-5.882zM91.337 256.004c-1.038 0-1.89 2.73-1.89 6.087 0 3.37.853 3.044 1.89 3.044s1.892.327 1.892-3.044c.001-3.357-.853-6.087-1.892-6.087zM95.979 265.134c-3.37 0-3.044.853-3.044 1.891s-.328 1.891 3.044 1.891c3.356 0 6.087-.854 6.087-1.891-.001-1.038-2.731-1.891-6.087-1.891zM89.745 267.025c0-1.039.328-1.891-3.044-1.891-3.356 0-6.087.853-6.087 1.891s2.73 1.891 6.087 1.891c3.372.001 3.044-.854 3.044-1.891zM137.421 268.227c-.941 0-1.727 3.837-1.867 8.854l-3.902 5.823c-.896 1.351-.17 2.377 1.635 2.377h2.698c.349 2.51.862 3.659 1.435 3.659s1.087-1.149 1.435-3.659h2.695c.246 0 .466.143.671.104v-3.879l-2.935-4.442c-.14-5.009-.926-8.837-1.865-8.837zM137.421 265.134c1.039 0 1.891.327 1.891-3.044 0-3.357-.853-6.088-1.89-6.088-1.04 0-1.892 2.73-1.892 6.088 0 3.371.852 3.044 1.891 3.044zM139.019 267.025c0 1.039-.328 1.891 3.044 1.891l.158-.002v-3.779c-.054 0-.105-.003-.159-.003-3.37.002-3.043.855-3.043 1.893zM135.828 267.025c0-1.039.327-1.891-3.044-1.891-3.356 0-6.088.853-6.088 1.891s2.73 1.891 6.088 1.891c3.371.001 3.044-.854 3.044-1.891zM114.531 306.228c-.797 0-1.486 2.762-1.761 6.66h3.522c-.276-3.9-.962-6.66-1.76-6.66zM114.531 293.996c-1.039 0-1.891 2.73-1.891 6.088 0 3.385.854 3.057 1.891 3.057s1.891.328 1.891-3.057c.002-3.358-.852-6.088-1.89-6.088zM119.174 303.134c-3.37 0-3.044.854-3.044 1.891s-.328 1.891 3.044 1.891c3.356 0 6.087-.853 6.087-1.891s-2.731-1.891-6.087-1.891zM112.94 305.026c0-1.039.328-1.891-3.044-1.891-3.356 0-6.087.854-6.087 1.891s2.73 1.891 6.087 1.891c3.371 0 3.044-.853 3.044-1.89zM68.976 306.228c-.797 0-1.486 2.762-1.761 6.66h3.522c-.276-3.9-.962-6.66-1.76-6.66zM68.976 293.996c-1.039 0-1.891 2.73-1.891 6.088 0 3.385.854 3.057 1.891 3.057s1.891.328 1.891-3.057c0-3.358-.853-6.088-1.89-6.088zM73.619 303.134c-3.37 0-3.044.854-3.044 1.891s-.328 1.891 3.044 1.891c3.356 0 6.087-.853 6.087-1.891s-2.731-1.891-6.087-1.891zM67.382 305.026c0-1.039.328-1.891-3.043-1.891-3.357 0-6.088.854-6.088 1.891s2.73 1.891 6.088 1.891c3.371 0 3.043-.853 3.043-1.89zM23.247 306.228c-.797 0-1.486 2.762-1.76 6.66h3.522c-.277-3.9-.963-6.66-1.762-6.66zM23.247 293.996c-1.038 0-1.89 2.73-1.89 6.088 0 3.385.853 3.057 1.89 3.057 1.04 0 1.892.328 1.892-3.057 0-3.358-.854-6.088-1.891-6.088zM27.887 303.134c-3.37 0-3.043.854-3.043 1.891s-.328 1.891 3.043 1.891c3.357 0 6.088-.853 6.088-1.891s-2.73-1.891-6.088-1.891zM21.655 305.026c0-1.039.328-1.891-3.044-1.891-3.356 0-6.087.854-6.087 1.891s2.73 1.891 6.087 1.891c3.37 0 3.044-.853 3.044-1.89z"/></g><g fill="#ffcc4d"><path d="M21.777 339.561c-2.446-2.219-6.442-.881-6.442-7.992s1.336-6.784 6.77-6.784c5.447 0 11.676-.441 11.676 7.381 0 7.836 5.547 5.176 5.547 5.176s.227-9.998 11.12-9.998c12.446 0 13.327 10.88 13.327 10.88s5.376 2.119 9.999 1.565c6.486-.783 16.669-4.039 23.779 4.096 7.11 8.121 12.445 8.79 18.218 6.57 5.789-2.232 14.223 9.544 4.452 13.554-9.785 3.996-13.554-3.114-12.004-6.002 1.55-2.887-11.335 3.328-16 0 1.11 5.105-1.11 8.89-6.001 8.89-4.893 0-11.208 1.493-14.664-2.22-1.664-1.792-2.659-5.56-.881-7.11-7.112-.456-13.113 1.322-13.113 1.322s-.669 8.007-13.567 8.007c-12.887 0-21.988 2.446-21.988-6.23 0-8.661 4.579-7.865 10.88-6.442 4.239.967 6.898.227 6.898.227s-.242-3.015-.897-4.224c-14.661 1.78-17.108-10.666-17.108-10.666"/><path d="M81.555 342.972c0-9.415 16.441-12.088 25.33-9.642 8.889 2.446 12.231 5.12 12.231 5.12s-7.338 5.334-14.677 4.665c-7.325-.669-17.323-6.385-17.323-.896 0 5.502-5.561 10.169-5.561.754"/></g><path d="M51.999 344.889c0 2.332-1.834 4.224-4.11 4.224s-4.11-1.892-4.11-4.224 1.833-4.224 4.11-4.224 4.11 1.892 4.11 4.224M47.889 337c0 1.039-1.423 1.891-3.172 1.891-1.75 0-3.157-.854-3.157-1.891 0-1.039 1.407-1.891 3.157-1.891s3.172.852 3.172 1.891M55.166 337c0 1.039-1.422 1.891-3.171 1.891-1.75 0-3.157-.854-3.157-1.891 0-1.039 1.407-1.891 3.157-1.891 1.749-.001 3.171.852 3.171 1.891"/><g fill="#ffcc4d"><path d="M21.777 389.556c-2.446-2.219-6.442-.881-6.442-7.992s1.336-6.784 6.77-6.784c5.447 0 11.676-.441 11.676 7.381 0 7.838 5.547 5.176 5.547 5.176s.227-9.998 11.12-9.998c12.446 0 13.327 10.88 13.327 10.88s5.376 2.119 9.999 1.565c6.486-.783 16.669-4.039 23.779 4.096 7.11 8.121 12.445 8.79 18.218 6.57 5.789-2.232 14.223 9.544 4.452 13.554-9.785 3.996-13.554-3.114-12.004-6.002 1.55-2.887-11.335 3.328-16 0 1.11 5.105-1.11 8.89-6.001 8.89-4.893 0-11.208 1.493-14.664-2.22-1.664-1.792-2.659-5.56-.881-7.11-7.112-.456-13.113 1.322-13.113 1.322s-.669 8.007-13.567 8.007c-12.887 0-21.988 2.446-21.988-6.23 0-8.661 4.579-7.865 10.88-6.442 4.239.967 6.898.227 6.898.227s-.242-3.015-.897-4.224c-14.661 1.78-17.108-10.666-17.108-10.666"/><path d="M81.555 392.972c0-9.415 16.441-12.088 25.33-9.642 8.889 2.446 12.231 5.12 12.231 5.12s-7.338 5.334-14.677 4.665c-7.325-.669-17.323-6.385-17.323-.896 0 5.505-5.561 10.17-5.561.753"/></g><path d="M51.999 394.89c0 2.333-1.834 4.224-4.11 4.224s-4.11-1.891-4.11-4.224 1.833-4.224 4.11-4.224c2.276-.001 4.11 1.89 4.11 4.224M47.889 386.999c0 1.038-1.423 1.891-3.172 1.891-1.75 0-3.157-.854-3.157-1.891 0-1.039 1.407-1.892 3.157-1.892 1.75.002 3.172.854 3.172 1.892M55.166 386.999c0 1.038-1.422 1.891-3.171 1.891-1.75 0-3.157-.854-3.157-1.891 0-1.039 1.407-1.892 3.157-1.892 1.749.002 3.171.854 3.171 1.892"/><path d="M330.666 300.889c-14.151 0-25.827-1.905-35.612-4.85l7.281-25.23c1.422.227 2.774.312 4.338.738 22.584 6.215 46.72 27.79 46.847 27.904-6.881.911-14.447 1.438-22.854 1.438M480 195.119c-16.881-5.789-35.996-6.67-35.996-6.67l-12.445 24.447s36.892.768 36.892 3.044c0 1.579-8.391 15.474-13.639 24.021-2.702-.825-5.987-1.295-9.927-1.295-16 0-22.215 3.555-28.886 13.326-6.67 9.785 0 13.782 0 13.782s-8.249 18.303-39.139 28.472l10.141-35.03c11.563-1.935 21.448 3.896 21.448 3.896s-7.567-22.23 1.777-55.552c9.33-33.336 44.004-58.225 44.004-58.225l-38.77 11.449 9.87-34.119s4.892-10.666 0-13.781c-3.171-2.019-4.835 2.303-5.618 5.617-3.413-.967-9.343-1.849-15.715 1.053-9.77 4.437-32.44-1.977-32.44-1.977s8.888 9.97 15.558 11.748c-7.111 3.555-20.893 2.232-20.893 2.232s16.897 9.77 28.217 6.215c7.537-2.36 15.857-2.56 20.65-2.432-2.148 7.225-5.007 16.881-8.292 28.017l-35.242 10.41s-16 12.9-21.334 50.674 13.781 65.778 13.781 65.778-2.006-18.248 13.284-27.264a18725.893 18725.893 0 0 0-10.041 33.991 135.663 135.663 0 0 1-13.71 2.504c-.099-.256-18.404-41.344-15.318-75.89 3.114-34.674 33.337-70.088 33.337-70.088L332 167.852l13.91-48.3s8.746-5.775 1.194-9.33c-7.553-3.555-6.088 7.823-6.088 7.823-3.512-.683-8.476-.896-13.767 1.507-9.785 4.438-32.441-1.976-32.441-1.976s8.889 9.97 15.545 11.748c-7.111 3.555-20.879 2.232-20.879 2.232s16.881 9.77 28.216 6.215c7.31-2.29 13.882-2.631 17.65-2.575l-11.805 35.726-35.982 13.07s-6.23 8.89-19.114 34.674c-12.886 25.77 5.334 62.664 5.334 62.664s5.376-8.164 16.754-10.496l-6.913 20.892c-28.544-13.112-34.73-35.741-34.73-35.741s4.893-.881 4.893-6.215c0-5.135-2.205-7.766-17.01-7.965l3.598-12.8c6.457 3.811 11.193 9.656 11.193 9.656s-6.23-23.111 6.656-46.222c12.899-23.112 43.108-43.108 44.445-43.108.711 0-22.073 6.471-43.449 12.515l8.931-31.815s6.514-9.6-.583-11.819c-7.112-2.218-5.959 10.055-5.959 10.055v.015c-3.343-.426-7.624-.298-12.131 1.75-9.77 4.452-32.442-1.962-32.442-1.962s8.89 9.97 15.56 11.747c-7.112 3.555-20.893 2.22-20.893 2.22s16.881 9.784 28.216 6.23c6.556-2.063 12.644-2.532 16.655-2.576l-5.305 18.39c-15.318 4.324-28.145 7.908-28.145 7.908s-5.789 8.888-12.459 30.236c-6.656 21.334 4.893 38.656 4.893 38.656s3.555-15.104 14.677-15.104c1.053 0 2.076.2 3.101.413l-4.55 15.801c-10.64.768-12.33 3.684-12.33 8.221 0 5.334 5.774 5.79 5.774 5.79s-1.336 9.33 2.219 20.892c3.555 11.548-4.438 9.33-17.778 2.658-.867-.426-1.735-.668-2.616-.98l.086-.087-33.465-14.934s-7.11-10.225-10.666-3.114c-3.555 7.112 7.993 8.747 7.993 8.747l19.185 9.671c-3.742 1.949-5.604 5.077-3.627 8.249 4.452 7.111 14.223 0 34.233 19.555 12.956 12.686 55.552 59.562 119.096 59.562h72.008c56.007 0 47.558-48 19.555-59.121 21.333-19.101 22.67-41.33 22.67-41.33s5.775 0 10.666-9.785c2.446-4.893 2.219-9.23-.625-12.345 6.784-13.199 23.51-45.583 27.734-52.978 5.334-9.325 0-13.776-8.889 4.457" fill="#ffcc4d"/><path d="M493.326 327.559c-11.107-8.008-21.334-5.334-23.552 2.417-2.219 7.751-12.445 4.239-23.553-3.754-11.107-7.992-18.674-6.67-20.892 2.22s-14.664 8.007-26.225-.442c-11.549-8.448-23.111-2.219-27.549 4.125s-7.992 6.984-22.273-1.905c-14.278-8.889-24.39-3.555-28.387 3.996-4.01 7.566-9.785 5.789-21.789-2.404-11.99-8.206-23.111-5.148-28.886 0-5.775 5.135-13.781 6.855-24.447 0-10.667-6.87-19.114-6.47-24.448-.98-5.334 5.503-11.549 13.61-28.43.512-16.896-13.099-25.785-2.007-34.232 3.768-8.448 5.775-16.442-8.888-16.442-8.888v105.462h344.104c15.46-10.039 25.674-27.799 25.674-47.686v-52.004c.001 0-7.552 3.556-18.673-4.437z"/><path d="M493.326 336.893c-11.107-8.008-21.334-5.334-23.552 2.417-2.219 7.751-12.445 4.239-23.553-3.754-11.107-7.992-18.674-6.67-20.892 2.219s-14.664 8.008-26.225-.441c-11.549-8.448-23.111-2.219-27.549 4.125s-7.992 6.984-22.273-1.905c-14.278-8.889-24.39-3.555-28.387 3.996-4.01 7.566-9.785 5.789-21.789-2.404-11.99-8.206-23.111-5.149-28.886 0-5.775 5.135-13.781 6.855-24.447 0-10.667-6.87-19.114-6.471-24.448-.981-5.334 5.504-11.549 13.61-28.43.512-16.896-13.098-25.785-2.006-34.232 3.77-8.448 5.774-16.442-8.89-16.442-8.89v105.33h313.002c31.363 0 56.776-25.51 56.776-56.888v-42.67c.001.001-7.552 3.557-18.673-4.436z" fill="#bbddf5"/><path d="M493.326 345.783c-11.107-8.008-21.334-5.334-23.552 2.417-2.219 7.751-12.445 4.239-23.553-3.754s-18.674-6.67-20.892 2.219-14.664 8.008-26.225-.441c-11.549-8.448-23.111-2.219-27.549 4.125s-7.992 6.984-22.273-1.905c-14.278-8.889-24.39-3.555-28.387 3.996-4.01 7.566-9.785 5.789-21.789-2.404-11.99-8.206-23.111-5.149-28.886 0-5.775 5.135-13.781 6.855-24.447 0-10.667-6.87-19.114-6.471-24.448-.981-5.334 5.504-11.549 13.61-28.43.512-16.896-13.098-25.785-2.006-34.232 3.77-8.448 5.774-16.442-8.89-16.442-8.89v96.442h313.002c31.363 0 56.776-25.51 56.776-56.889v-33.781c.001 0-7.552 3.556-18.673-4.436z" fill="#0091c8"/><g fill="#bbddf5"><path d="M172.889 369.336c7.537-8.547 19.114-7.552 28.004 0 8.888 7.553 12.886 1.834 21.333-3.086 8.434-4.906 20.438-5.219 23.112 1.821 2.658 7.04-11.122-2.545-19.555 4.921-8.448 7.453-22.13 9.672-32 0-9.885-9.672-27.564 3.895-20.894-3.656M271.994 371.043c8.121 2.758 19.113 3.626 28.886-2.603 9.785-6.215 16.896-3.299 27.563 5.248 10.666 8.533 18.658 5.673 28.445 0 9.77-5.69 17.777-12.8 31.558-6.57 13.768 6.215 20.438 6.855 25.77 4.765 5.334-2.105 0 7.225-13.326 5.006-13.341-2.219-22.67-10.666-34.674-2.659-12.004 7.992-27.562 15.474-39.992 4.835-12.445-10.624-19.114-9.145-26.682-4.551-7.552 4.594-16 5.049-20.437 2.816-4.453-2.22-13.654-8.506-7.111-6.287M443.116 371.043c5.149 3.113 10.666 3.926 16 0s10.666-.74 17.336 3c6.67 3.742 7.993 7.937 0 5.39-8.007-2.544-11.12-8.205-17.336-4.707-6.23 3.499-12.886 4.495-16 0-3.115-4.508-3.853-6.016 0-3.683M214.22 392c7.31-3.882 19.114-9.33 27.549 0 8.447 9.33 12.459 4.438 19.114 0 6.67-4.438 12.445-9.77 22.67-3.114 10.225 6.67 15.103 4.835 19.113 2.646 3.996-2.19 7.553-.867 0 3.584-7.566 4.438-15.119 3.997-20.892-.455-5.775-4.437-10.666-6.656-18.219.897-7.553 7.552-17.336 9.798-24.447 2.687-7.112-7.126-9.33-7.722-16.442-4.096-7.11 3.625-15.771 1.732-8.446-2.149M350.222 394.154c8.945-4.722 20.893-12.815 30.664-3.485 9.785 9.33 15.559 4.95 23.566-.413 7.993-5.361 15.545-13.112 27.108-3.911 11.549 9.216 19.101 8.32 24.889 5.661 5.775-2.674 3.101 2.446-4.01 4.11s-16.881 1.664-23.553-4.11c-6.67-5.789-12.886-5.475-19.996 2.148-7.111 7.623-24.889 9.77-31.559 2.915-6.67-6.842-15.103-2.845-21.333-.185-6.217 2.673-14.708 1.991-5.775-2.73M163.555 401.209c5.319-4.893 12.445-2.986 21.334 5.902s12.886 7.111 20.892 2.659c7.993-4.438 18.659-5.334 23.111-.441 4.438 4.892 2.66 6.442-2.673 4.11-5.334-2.333-10.454-3.67-17.664 2.56-7.225 6.215-20.11 7.552-26.339 0-6.215-7.553-9.77-12.004-14.664-10.225-4.878 1.778-11.107 1.977-3.997-4.565M286.671 409.874c5.176-5.562 15.559-10.127 25.77 0 10.225 10.126 12.004 8.79 20.01 3.456 7.993-5.334 17.323-11.449 27.108-2.39 9.77 9.059 13.781 7.281 22.215 2.39 8.447-4.893 16-9.216 25.343-2.39 9.33 6.841 16.442 8.619 24.448 3.726 7.992-4.892 9.756-2.716 2.219 3.555-6.23 5.163-17.522 7.111-25.33-.441-9.799-9.457-16.015-6.67-24.008-.896-8.007 5.775-20.451 7.111-27.562-.442s-11.99-5.333-18.659 0c-6.67 5.334-18.119 10.782-26.225-.44-8.093-11.222-16-6.23-19.996-4.01-3.995 2.234-12.884 5.975-5.333-2.118"/></g></svg>