<svg xmlns="http://www.w3.org/2000/svg" viewBox="0 0 512 512"><path d="M512 384c0 31.418-25.473 56.889-56.889 56.889H56.89C25.472 440.889 0 415.417 0 384V128c0-31.418 25.472-56.889 56.889-56.889H455.11C486.53 71.111 512 96.584 512 128v256z" fill="#002b7f"/><path d="M512 270.222H0v-28.445h512v28.445z" fill="#ffc61e"/><path d="M141.924 277.035l6.997 27.961 20.039-20.707-7.907 27.705 27.718-7.922-20.721 20.053 27.961 6.997-27.961 6.998 20.721 20.039-27.719-7.908 7.908 27.719-20.039-20.721-6.997 27.946-6.998-27.946-20.038 20.721 7.907-27.719-27.705 7.908 20.708-20.039-27.962-6.998 27.962-6.997-20.708-20.054 27.705 7.921-7.907-27.705 20.038 20.708 6.998-27.96z" fill="#fff"/></svg>