<svg xmlns="http://www.w3.org/2000/svg" viewBox="0 0 512 512"><g fill="#007934"><path d="M56.889 71.111C25.472 71.111 0 96.582 0 128v256c0 31.418 25.473 56.889 56.889 56.889h113.777V71.11H56.89zM455.111 71.111H341.334V440.89H455.11C486.53 440.889 512 415.416 512 384V128c0-31.417-25.473-56.889-56.889-56.889"/></g><path d="M170.666 440.889h170.666V71.11H170.666V440.89z" fill="#eee"/><path d="M277.162 292.281c-2.417.1-2.446-.754-1.066-1.166.968-.285 2.716-.583 3.414-.1.667.484.099 1.166-2.348 1.266m-13.397-3.015c-3.811 1.664-2.603-.825-.796-1.65 1.081-.483 6.215-2.232 9.23-3.398 3.015-1.167 5.262-1.167 7.509-1.452 2.218-.285 2.218.1.653 1.949-1.55 1.835-3.3 1.266-5.817 1.166-2.53-.1-6.995 1.735-10.779 3.385m-.796 8.348c.981 0 1.962 0 3.115-.37 1.18-.399 1.066.37.199.867-.868.469-2.134 1.365-3.4.981-1.265-.397-.967-1.478.086-1.478m5.746 7.311c-1.451 0-3.599 1.55-5.532 1.152-1.95-.383-1.75-2.218.185-1.735 1.565.37 2.716-.298 4.863-.796 2.134-.471 1.934 1.379.484 1.379m-1.266 7.665c-1.266-.399-2.134-.484-3.399-.185-1.266.285-2.134-.796-2.134-2.134 1.267.953 4.367-.597 7.183.953 1.18.67-.384 1.75-1.65 1.366m-4.48-34.005c1.38.071 4.295-.54 5.319-.825 1.82-.555 1.635.185.468.825-1.152.626-4.081 1.849-6.272 1.592-2.175-.227-1.449-1.692.485-1.592m1.28-17.095c2.702.384 3.015 1.351-.583 1.949-1.748.285-2.375.383-2.517-1.18-.114-.954.37-1.153 3.1-.769m-3.711-9.33c.057-1.124.156-1.408 1.18-1.408 2.716 0 7.28-2.133 9.087-2.19 1.806-.042 2.716.982.54 1.267-2.205.298-6.869 1.465-7.836 2.091-.966.624-3.015 1.349-2.971.24m2.246-7.339c2.091.1 6.072 0 7.381-.782 1.338-.768 3.058-.725 3.783-.626.74.1.468.582-.825 1.364-1.252.768-5.675.826-7.14 1.75-1.452.91-3.584 1.108-4.523 1.152-.925.057-1.052 0-1.052-1.053 0-1.662.286-1.905 2.376-1.805m-.241-8.803c1.01.028 4.266-.57 5.788-1.153 1.494-.583 1.593-.156.669.441-.925.583-3.996 1.608-5.334 2.034-1.991.626-2.972.867-3.015-.399-.057-1.109.199-.966 1.892-.924m1.99 22.117c-1.065.682-3.384 1.023-3.355 0 .057-1.024 0-.925.597-.968 2.859-.241 5.334-1.877 6.841-1.991 2.333-.199 3.627-.399 2.29.626-1.366 1.024-5.306 1.65-6.372 2.333m6.699 8.688c-.768.797-2.802 1.55-5.633 2.233-2.816.682-4.167.582-4.167-1.066 0-1.635.867-1.167 2.915-.968 2.035.2 5.917.3 6.885-.199m1.478 14.878c-2.346.285-4.48 1.536-8.177 2.801-3.684 1.28-3.129-.725-1.65-1.635 1.55-.967 6.614-2.134 9.429-2.346 2.802-.186 2.716.881.398 1.18m5.93-11.861c-1.38 1.451-8.59 2.774-12.942 4.765-3.599 1.65-4.266 1.166-4.266-1.066 0-2.447 2.517-.982 3.782-1.85 1.266-.88 8.931-1.663 11.279-2.914 2.319-1.254 3.485-.4 2.147 1.065m-19.256-45.625c.085-2.233.299-2.319 1.693-2.034 1.592.327 6.47.142 8.42-.043 1.948-.198 3.54.527.24 1.153-3.313.64-5.788 1.322-7.195 1.906-1.394.581-3.258 1.264-3.158-.982m-4.324-4.993c-.1 1.55-.825 1.693-1.806.825-.967-.881-3.2-1.507-5.532-2.19-2.32-.682-1.408-2.134.398-1.266 1.807.881 4.224 1.309 6.3 1.024 1.082-.142.698.726.64 1.607m-.441 23.268c-.085.881-.867.298-1.65.298-1.407 0-4.949-2.673-9.727-3.456-2.347-.384-5.15-2.389-7.723-3.2-2.56-.825-.569-1.991.839-1.18.896.526 2.134.839 4.707 1.323 2.574.483 8.164 2.573 9.97 3.782.839.584 3.812.399 3.584 2.433m-13.88-10.98c3.385 0 7.566 1.948 10.439 3.313 1.991.94 3.115 1.31 3.057 2.574-.042 1.053-1.266.569-2.232-.114-.968-.668-7.823-2.716-11.121-4.067-3.315-1.364-3.557-1.706-.143-1.706m7.964-4.039c-3.356-1.209-4.721-2.233-4.48-2.759.241-.54 3.371.256 5.532.968 3.854 1.266 4.637 1.365 4.523 3.057-.085 1.365-2.233-.042-5.575-1.266m-7.381-16.413c2.8 1.067 8.49.627 12.13 2.915 1.566.982-.582 1.167-2.815.285-2.22-.867-4.864-.383-9.43-1.948-3.725-1.265-2.133-2.104.115-1.252m10.04 42.753c-1.734-1.309-7.622-3.158-9.813-3.599-2.176-.426-3.399-1.166-1.309-1.465 2.092-.285 4.949.355 7.524 1.664 1.423.725 3.854 1.792 4.864 1.792 1.024 0 1.792-.142 1.792 1.992 0 2.29-1.293.938-3.057-.384m-2.859 7.964c-2.816-.384-5.347-2.518-13.027-4.267-3.187-.74-2.433-1.166-.185-1.166 2.218 0 8.732 2.915 15.645 3.983 1.536.241 3.398.568 3.3 2.716-.1 2.134-2.988-.881-5.733-1.266m2.816 44.701c-1.748 0-5.546-1.451-8.846-2.83-3.3-1.351-.299-2.148 1.65-1.351 1.949.782 5.248.967 7.296.967 2.332-.001 2.517 3.214-.1 3.214m1.55 5.631c-.227 1.949-3.485.583-5.916-.767-2.432-1.38.185-1.949 1.251-1.664s2.063.312 3.414 0c1.251-.285 1.55 0 1.251 2.431m-6.5-20.991c1.65 1.066 6.799.967 6.799 3.115 0 .967-1.066.384-2.346.384-1.251 0-3.968-1.082-5.718-2.618-1.75-1.564-.398-1.949 1.265-.881m-19.583 19.64c-.825-1.222.24-.441 1.948.043.995.285 1.992.967 1.934 1.792-.085 1.409-3.057-.625-3.882-1.835m26.382-109.369c-1.579-.668-1.066-1.407-.299-1.692.783-.299 2.418-.199 2.333 1.507-.043 1.01-1.365.47-2.034.185m8.291.868c.74.256 2.347.455 3.372.214 1.023-.257 2.247.526.626.952-2.873.783-5.818 1.423-5.874-.384-.03-1.108 1.165-1.023 1.876-.782m.058 4.58c-.868.241-1.793.626-1.793-.399 0-1.066 1.067-.626 1.793-.526.739.1 1.735.441 0 .925m23.139 101.177c7.48-.569 19.115 2.631 27.69 1.863 8.535-.783 7.197-1.365 4.367-3.599s-5.247-.582-6.685.868c-1.479 1.45-3.996 1.365-2.845-.1 1.166-1.452.1-2.12-2.716-1.95-2.816.214-4.864 1.18-6.699 1.68-1.849.483-3.882-.797-2.446-1.466 1.479-.697 1.266-1.266.1-1.365-1.166-.085-1.251-.867 1.949-1.365 3.2-.483 5.432.4 7.296 1.067 1.849.697 3.982.114 5.361-.868 1.338-.967 2.134-2.034 3.755-1.934 1.664.086 2.645-.782.498-2.26-2.12-1.437-5.234-1.537-7.098-.654-1.849.867-2.716.285-3.414-.598-.653-.867-3.285-.782-5.902.399-2.631 1.18-4.409 2.66-5.931.582-.783-1.066-6.13.185-9.415 1.166-3.314.968-3.912 0-1.195-1.266 3.612-1.664 5.817-.497 11.178-2.531 3.613-1.351 8.733.867 17.209-3.983 2.034-1.166 3.983-2.332-1.635-2.53-2.83-.1-4.181.198-5.149 1.464-.981 1.28-2.147.968-2.047 0 .1-.981-2.546-1.635-4.765-.199-2.233 1.48-3.883 2.732-4.964 3.015-1.066.3-1.294.043-1.066-.782.241-.811-.54-.711-1.494-.085-.981.626-2.631 1.451-3.697 1.365-1.067-.1-2.233-.981.782-2.531 3.015-1.55 5.86-3.485 10.439-3.115 6.03.497 7.381-2.005 10.297-1.907 2.915.114 4.452-2.118.54-2.176-3.94-.042-5.106.825-5.973 1.465-.882.611-2.645 1.066-2.347-.241.299-1.323-.398-1.323-1.777-.683-1.436.627-4.879 1.067-6.528.57-1.635-.47-3.213-1.352.74-1.55 3.925-.186 6.657-2.077 10.013-1.223 3.015.782 4.594-.754 5.702-.627 1.138.143 2.504-.825.498-2.417-1.978-1.608-6.998-1.706-8.746-1.423-1.735.3-2.66 0-2.32-.668.313-.683-.155-.968-1.663-.91-1.507.042-5.702 1.01-7.481 1.792-2.333 1.01-4.081-.555-2.176-1.792 1.25-.839 4.593-1.849 6.442-1.622 1.863.242 2.688.47 2.134-.825-.228-.568-.328-1.308 1.679-.825 1.977.484 6.03.583 8.248-.682 2.233-1.266.598-2.716-3.015-2.631-3.583.1-11.363 1.166-14.478 3.2-3.115 2.047-3.555-.128-2.275-.812 1.266-.668 1.45-1.166.767-1.607-.669-.426-.64-.825 1.238-1.508 3.583-1.293 7.367-.91 11.832-2.958 3.343-1.508 6.799-3.3 7.865-5.917 1.081-2.63-.582-1.748-2.531-.967-1.92.767-3.1 1.351-3.1 2.716s-1.635 1.365-1.536-.299c.07-1.65-.897-2.417-3.513-1.35-2.617 1.065-9.245 3.484-11.562 3.2-2.333-.286-3.3-1.75-.882-1.85 2.447-.1 5.747-1.066 7.694-1.748 1.934-.669 3.1-1.749 1.635-2.518-1.451-.782-.384-1.749 1.28-1.749 1.635 0 3.584-1.465 5.718-1.166s4.55-.412 1.748-2.047c-1.152-.669-2.218-1.55-.782-2.333 1.479-.782.597-2.915-1.635-3.2-2.248-.299-4.295.185-5.461.583-1.153.383-2.134.285-2.418-.683-.285-.981-4.081-.867-5.646-.484-1.55.384-4.551.2-2.319-.88 2.233-1.067 6.998-1.75 9.315-1.75 2.333 0 4.779-.582 6.03-1.066 1.266-.484 1.565-3.015-1.251-3.015-2.83 0-6.5.199-5.845-.867.697-1.082-1.749-1.749-4.466-1.167-2.717.583-6.43 1.167-4.253-.285 2.134-1.465 6.5-3.015 8.534-2.93 2.047.1 3.485-.285 2.147-1.933-1.365-1.65-.497-2.233.868-2.433 1.351-.199 1.65-1.849-.285-2.232-1.949-.399-6.955-1.537-9.33-.185-3.314 1.835-5.831 1.748-4.765.668 1.066-1.066.327-1.038-1.38-.582-3.869 1.066-12.231 3.499-14.564 3.3-1.166-.1-2.517.142-2.489-1.28.014-1.294.939-1.38 4.338-1.92 6.812-1.066 14.279-3.2 17.494-2.83 3.186.399 4.58-.085 3.683-1.451-.867-1.365-3.413-.299-2.318-2.034 1.08-1.749-.868-1.565-2.347-1.65-1.436-.1-2.972-.683-3.797-1.465-1.18-1.124-5.205-.484-7.239.299-2.034.767-6.542 1.82-8.291 1.692-2.134-.142-2.261-.142-2.361-1.692-.058-.812.227-1.124 1.195-1.508 2.218-.896 11.292-1.222 14.093-.682 5.533 1.066 5.76-.995 4.594-1.992-1.494-1.322-6.3-.74-9.33-.198-3.001.54-6.201 1.123-7.04.383-.811-.725.1-1.38 2.19-1.792 2.531-.484 8.463-.143 9.386-.583.939-.426 1.849-1.806-.198-2.332-2.034-.54-6.842 0-9.074.767-2.248.783-4.736.555-5.263-.24-.54-.768-.327-2.703 3.414-2.418 3.726.298 10.581.198 11.79 0 1.238-.199 1.38-1.067.74-1.892-.626-.825-1.407-1.706-.697-2.332.74-.64.455-1.166.07-1.706-.398-.54 0-.968.385-1.309.383-.341.91-1.18-.498-.925-2.375.441-6.072-.768-7.95-.043-1.906.725-6.201 1.223-7.58 1.024-.626-.114-.981-1.38.185-1.507 2.034-.257 6.073-.839 7.58-1.622 1.494-.767 3.058-1.35 4.964-1.308 1.877.057 3.115-.669 1.266-1.55-1.862-.868-4.864-.627-6.627.198-1.735.825-4.893 2.433-6.6 2.19-1.692-.24-1.862-1.237-1.208-3.356.341-1.124 2.574-1.222 4.125-.925 1.565.285 6.13-.881 7.865-.484 1.749.384 3.314-.298 1.38-1.748-1.949-1.465-3.712-.982-5.66-.199-1.934.782-6.201 1.849-7.367.782-1.167-1.08-1.452-3.797.725-2.83 2.375 1.082 8.306-.867 9.898-.042 1.608.825 2.447-.725.868-1.451-1.536-.74-6.115-.058-7.651.285-2.632.597-3.698.782-3.698-.725 0-1.024 2.986-.868 3.826-.64 2.148.582 5.305-2.077 7.254-1.593 1.934.484 1.608-.582.598-1.365-1.04-.767-4.88-.384-6.244.484-1.351.881-3.698 1.422-4.565 1.365s-1.251-.299-1.251-1.849.838-2.005 1.99-2.574c1.892-.925 2.206-2.332.768-1.99-2.232.54-3.001 1.265-3.001-1.75 0-1.365.185-2.573 1.978-2.958 1.806-.399 2.147-1.608 1.578-1.892-.597-.298-1.322.427-2.205.768-.867.341-1.465.682-1.55-1.749-.057-1.407.783-1.849 1.593-1.891.839-.043 1.664-.626 2.047-1.166.399-.54 0-1.267-1.266-.725-1.266.526-2.46.682-2.475-.74-.042-3.158-.441-10.397-.54-12.089-.085-1.706-1.309-2.148-1.309-.199s-.113 8.946-.383 12.245c-.1 1.166-.783 1.266-1.75.683-.98-.583-3.783-.199-1.848.682 1.949.868 3.2 1.166 3.3 2.716.1 1.55-.767 1.75-2.432.968-1.635-.768-3.783-.484-.768 1.365s3.2 1.949 3.1 3.882c-.085 1.95-1.066 1.764-3.001.882-2.346-1.082-4.266-.199-1.55 1.066 2.716 1.266 4.551 2.915 4.466 4.665-.1 1.749-1.365 2.617-3.399.1-2.047-2.531-5.347-3.798-7.78-3.499-2.432.285-1.166 1.451 1.65 2.518 2.83 1.081 7.382 3.213 8.463 4.38 1.066 1.166.484 2.133-2.048 1.066-2.517-1.066-8.163-3.214-10.012-2.531s-2.618 1.748.497 1.848c3.1.1 8.505.982 10.78 1.85 2.817 1.065 3.2 3.3.484 2.517-2.716-.768-10.297-2.333-12.544-.968-2.218 1.365-2.901 2.731.882 2.134 3.797-.583 8.56-.583 10.695.299 1.166.483 2.133.582 2.033 2.232-.1 1.664-1.365 1.664-3.683.683-2.347-.968-9.344-2.817-11.478-1.067-2.134 1.75-1.65 2.048 1.365 1.55 3.015-.483 7.595-.042 9.814.384 4.522.881 4.181 1.664 1.266 1.664s-11.562.384-13.596-.399c-2.048-.767-5.063-1.266-6.229-.767-1.152.483-.199.967.768.967.98 0 1.763.783 1.08 1.465-.682.669-1.08 1.934 1.65 1.451 2.732-.483 6.615-.483 8.662.3 2.034.767 5.12 1.663 7.666 1.933 2.717.299 2.817.384 2.717 2.432-.072 1.508-3.2.583-6.215-1.365-3.015-1.933-8.833-3-11.563-1.166-2.716 1.849-1.166 2.233 1.365 1.749 2.531-.484 9.529.782 12.146 1.65 2.618.881 4.224.299 4.082 2.731-.1 1.451-1.565.698-3.798-.199-6.799-2.716-14.99-2.958-17.679-2.617-1.906.241-2.19.426-1.565.967.455.384.114 1.124-1.023 1.408-1.167.285-2.66.782-3.385 1.365-.74.582-.698 1.152 1.407.967 2.091-.198 4.168.143 2.944.968-1.209.825-2.745 1.934-.328 2.147 6.215.54 15.26 4.41 18.362 6.16 3.115 1.748 3.94 1.905 3.882 3.512-.042 1.592-1.735 1.337-3.541.37-5.689-3.002-11.321-2.319-14.236-4.367-2.915-2.033-7.183-4.266-9.9-2.517-2.73 1.749-2.247 2.816.186 2.517 2.432-.285 5.049.1 4.081 1.365-.967 1.267-1.635 2.063 2.333 2.632 5.546.767 14.577 4.266 17.592 5.532 3.001 1.266 4.181 2.134 1.65 2.518-2.531.398-2.631-1.394-6.614-1.55-2.517-.1-5.731-1.452-7.481-2.817-1.749-1.35-2.915-2.047-5.817-1.748-2.93.285-7.112.782-8.662 1.663-1.55.868-2.147 2.12.384 2.22 2.531.1 3.698 1.65 1.764 2.332-1.949.682-3.996 1.081-4.679 1.848-.682.783.285 1.465 2.915 1.465s6.713.868 10.311 2.618c3.599 1.749 13.995 6.997 16.812 7.196 2.816.185 3.1.569 3.015 2.034-.114 1.465-1.082 1.166-3.414.484-2.333-.683-8.946-2.717-11.079-4.565s-4.324-3.599-6.257-3.684c-1.95-.114-1.408.526-.74 1.266.682.711.61 2.518-.67 1.309-2.09-1.949-3.598-4.039-6.37-4.081-2.76-.043-5.39 0-6.8.782-1.422.768-1.237 1.906 1.408 2.275 3.115.426 6.472 1.408 8.022 2.333 1.55.925.867 1.848-.584 1.748-1.465-.1-1.124.725.484 1.693 1.607.967 2.573 2.275 1.35 2.589-1.734.426-4.807-3.087-6.214-2.873-.968.143-.185.825.626 1.365.839.526.854 2.319-.484 1.309-1.835-1.423-4.323-3.258-7.14-2.233-2.816 1.024-4.167 2.233-1.792 3.258 2.375 1.01 4.096 1.949 2.972 3.399-.555.668-1.066 1.706 2.319 1.933 2.091.157 4.423.982 5.448 2.092s-.3 1.565-1.55 1.023c-1.28-.54-4.082-.825-5.448.442-1.365 1.266.014 2.133 2.774 2.475 7.78.925 16.029 3.441 20.594 3.84 4.565.37 8.362 1.478 10.297 2.232 2.574 1.01 1.223 3.883-.669 2.901-2.673-1.365-4.522-2.176-5.546-2.375-1.024-.185-1.024.2-.839 1.124.214.91-.967 1.394-2.076.328-1.124-1.067-4.522-3.1-6.614-3.428-2.091-.355-1.792.043-1.451.711.341.683.199 1.85-1.166.498-1.365-1.365-5.633-3.314-8.164-3.158-1.65.1-1.309.612-.981 1.31.355.682-.526 2.133-1.536.74-1.024-1.437-3.2-3.386-5.79-1.85-1.065.627-2.133 1.508-3.683 1.793-1.565.285-1.237 1.195.91 1.635 5.589 1.222 7.765-.341 11.478 1.124 2.8 1.123 5.29 1.465 6.342 1.55 1.081.1 1.863.74.654 1.123-1.223.4-1.138 1.294.185 2.475 1.322 1.167.256 2.973-.881 1.608-2.092-2.531-5.15-1.65-6.258-2.873-1.124-1.208-1.607-1.066-1.607-.085 0 .968-.54 1.223-1.608.384-3.74-2.901-8.405-2.332-10.396-.967-1.991 1.351-1.55 1.82 2.047 2.388 10.14 1.593 22.784 3.727 33.664 8.292 5.888 2.46 5.533 3.015 5.248 3.74-.3.725-1.437.91-3.798-.683-2.66-1.806-9.799-2.872-12.956-4.807s-4.081-.925-3.214.298c.868 1.21.54 2.475-1.266.882-1.806-1.621-5.533-3.655-7.666-3.698-2.148-.042-.54.868.526 1.593s1.309 2.958-.526 1.792c-1.863-1.152-7.353-4.224-11.62-3.157-4.282 1.081-3.642 1.721-1.465 3.115 2.205 1.407 4.238 2.432 8.902 2.29 4.665-.143 9.131.725 11.221 2.091 2.092 1.351.143 1.693-1.266.854-1.407-.812-5.191-1.437-6.755-1.252-1.55.185-.825.925-.185 1.664.626.711-.114 3.015-1.365 1.593-1.28-1.408-4.707-3.058-6.799-3.542-4.565-1.066-6.598 1.04-4.607 1.75 1.209.425 1.82 1.065 1.109 2.047-.74.967-1.124 2.062 1.35 1.692 5.79-.881 16.442-.697 22.3 1.166 5.05 1.608 3.94 2.674 2.618 2.574-1.293-.085-2.716-.782-2.033.484.682 1.251.626 2.389-1.067 1.209-3.498-2.418-8.348-3.343-10.595-3.258-1.208.043-.668.698-.142 1.38.526.669-.241 1.849-1.55.811-1.309-1.01-3.74-2.475-5.348-2.517-1.607-.043-1.55.484-.825 1.195.725.74.569 2.005-.925.939-2.232-1.593-5.773-3.3-8.348-3.115-2.59.198-1.437 1.451.925 2.432 4.408 1.849 9.073 3.001 12.387 3.314 3.285.285 6.215 1.209 7.58 1.294 1.351.1 1.92.867.085 1.081-2.517.285-6.599-1.521-8.647-.583-1.067.498.27 1.195.44 1.55.342.698.2 2.475-1.108 1.394-3.996-3.242-6.471-2.801-7.879-3.826-1.422-1.01-2.858-.426-1.948.725.925 1.18-1.024.825-2.518-.085-1.507-.939-4.039-1.55-5.632-1.066-1.622.497-2.347 1.066.967 2.816 3.3 1.749 5.974 3.058 9.33 3.698 3.343.626 3.783 2.602 1.934 2.375-1.835-.257-2.161.81-.91 1.748.582.426.952 1.65.854 2.389-.085.711-1.21.583-2.66-1.039-3.5-3.882-11.222-4.181-15.062-3.044-3.84 1.11-2.232 2.96.54 5.575 2.759 2.632 5.348 5.39 12.53 4.523 7.183-.881 19.912-3.584 25.743-2.034 5.831 1.536 5.177 4.195 3.399 4.466-3.2.484-3.1-2.63-6.4-2.83-3.314-.17-4.38 1.465-5.448 2.632-1.066 1.166-1.862 2.19-5.247.582-4.282-2.047-7.58.868-9.43.484 1.765.968 4.666 3.214 3.898 4.081-.782.881-2.047-.867-4.665-1.849-2.617-.967-6.513-1.166-9.428.583-2.915 1.749.1 3.499 3.3 4.281 3.213.783 10.21.783 15.942-.782 5.731-1.55 12.829-2.645 15.445-2.717 1.934-.057 2.816 1.01 1.508 2.233 1.99.583 4.337.014 5.588-.782 3.214-2.034 2.774 0 2.077 1.266 2.105.142 5.746-2.475 7.21-1.494.427 8.789-.155 26.568-.155 32.698 0 1.066.782.867 6.115.867 6.47 0 6.812.484 6.613-2.631-.185-3.029-2.047-21.178-1.465-27.777.598-6.613 2.433-6.13 4.765-5.646 2.333.484 7.879 2.233 10.61 2.134-1.748-1.835-1.948-3.1-.312-2.716 1.664.383 3.797-.285 5.247-1.55-1.251-.1-2.133-1.749.114-2.148 2.233-.384 2.986.783 6.884 2.048 3.882 1.266 18.502 4.152 26.822-1.166 2.433-1.565.498-2.233-2.517-2.233-3.015 0-4.565.669-6.03 1.251-1.465.583-2.774 1.024-2.475-.127.299-1.166-2.319-1.621-4.665-.54-2.333 1.066-4.324 1.55-3.74.285.569-1.266-.341-1.55-3.456-1.365-2.703.171-10.78-.711-10.44-2.02.186-.796 1.736-1.166 4.41-.583 6.37 1.338 20.55 1.749 24.846 1.452 6.982-.484 4.935-2.632 2.275-3.4-2.674-.795-5.689-.213-6.358.627-.697.839-3.001 1.365-2.446.043.783-1.85-3.057-2.275-6.457-.427-2.32 1.267-2.774.627-1.934-.398.825-1.024-.555-1.722-3.158-1.494-3.755.27-10.552.37-13.17-.74-2.865-1.216-2.167-1.601 2.782-2.013" fill="#007934"/><g fill="#eee"><path d="M254.279 224.412a4.33 4.33 0 0 1-4.324 4.324h-8.989a4.332 4.332 0 0 1-4.324-4.324 4.322 4.322 0 0 1 4.324-4.323h8.989a4.321 4.321 0 0 1 4.324 4.324M276.096 284.842a6.257 6.257 0 0 1-6.257 6.258h-.598a6.257 6.257 0 1 1 0-12.515h.598a6.258 6.258 0 0 1 6.257 6.258M267.462 310.3a2.282 2.282 0 1 1-4.565 0v-8.946a2.282 2.282 0 0 1 4.565 0v8.946zM252.871 307.854a4.228 4.228 0 0 1-4.224 4.239H246.7a4.227 4.227 0 0 1-4.224-4.24 4.224 4.224 0 0 1 4.224-4.223h1.949a4.224 4.224 0 0 1 4.223 4.224M254.435 246.201c0 3.414-1.934 6.202-4.324 6.202s-4.323-2.788-4.323-6.202v-6.798c0-3.414 1.933-6.202 4.323-6.202s4.324 2.788 4.324 6.202v6.798zM264.632 225.28a2.59 2.59 0 0 1-2.588 2.589 2.598 2.598 0 0 1-2.589-2.589v-3.954a2.59 2.59 0 0 1 2.589-2.589 2.58 2.58 0 0 1 2.589 2.59v3.953zM301.511 312.746c0 2.645-1.835 4.765-4.11 4.765h-8.561c-2.275 0-4.125-2.119-4.125-4.765 0-2.631 1.849-4.75 4.125-4.75h8.561c2.275 0 4.11 2.119 4.11 4.75M235.577 320.256a4.098 4.098 0 0 1-4.096 4.097h-10.084a4.097 4.097 0 0 1 0-8.192l10.084-.001a4.098 4.098 0 0 1 4.096 4.096"/></g></svg>