<svg xmlns="http://www.w3.org/2000/svg" viewBox="0 0 512 512"><path d="M0 327.111h512V184.875H0v142.236z" fill="#eee"/><g fill="#e05206"><path d="M455.111 71.111H56.89C25.472 71.111 0 96.582 0 128v56.889h512V128c0-31.417-25.473-56.889-56.889-56.889M256 199.111c31.418 0 56.889 25.473 56.889 56.889S287.416 312.889 256 312.889 199.111 287.416 199.111 256s25.471-56.889 56.889-56.889"/></g><path d="M455.111 440.889H56.89C25.472 440.889 0 415.417 0 384v-56.889h512V384c0 31.418-25.473 56.889-56.889 56.889" fill="#0db02b"/></svg>