<svg xmlns="http://www.w3.org/2000/svg" viewBox="0 0 512 512"><path d="M512 384c0 31.418-25.473 56.889-56.889 56.889H56.89C25.472 440.889 0 415.417 0 384V128c0-31.418 25.472-56.889 56.889-56.889H455.11C486.53 71.111 512 96.584 512 128v256z" fill="#009543"/><path d="M512 327.111H0V184.89h512V327.11z" fill="#ed4135"/><path d="M455.111 71.111H56.89C25.472 71.111 0 96.582 0 128v56.889h512V128c0-31.417-25.473-56.889-56.889-56.889" fill="#0035ad"/><path d="M318.606 256c0 73.841-59.861 133.718-133.717 133.718S51.157 329.84 51.157 256c0-73.856 59.876-133.718 133.732-133.718S318.606 182.144 318.606 256" fill="#141414"/><path d="M312.889 256c0 70.699-57.301 128-128 128s-128-57.301-128-128 57.301-128 128-128 128 57.301 128 128" fill="#fae600"/><g fill="#141414"><path d="M187.62 383.886h-4.58V128.114h4.58v255.772z"/><path d="M202.666 209.338c0 9.57-7.765 17.337-17.337 17.337s-17.338-7.765-17.338-17.337S175.756 192 185.33 192s17.337 7.765 17.337 17.338M199.537 316.673c0 11.178-6.37 20.223-14.222 20.223s-14.223-9.045-14.223-20.224 6.372-20.223 14.223-20.223 14.222 9.045 14.222 20.224M202.666 259.996c0 5.774-7.765 10.439-17.337 10.439s-17.338-4.665-17.338-10.439 7.765-10.438 17.338-10.438 17.337 4.665 17.337 10.438M166.229 184.889s-1.778-12.445 1.777-17.778c3.555-5.333 12.885-10.226 20.438-12.003 7.566-1.778 17.792-12.885 17.792-12.885s-1.337 16.44-13.781 26.666c-12.444 10.226-26.226 16-26.226 16M155.335 210.205s6.884 4.437 8.661 11.107c1.778 6.67 6.67 13.782 20.893 13.782v8.007s-12.004.881-18.66-1.777c-6.67-2.674-8.448-15.119-8.448-19.57 0-4.439-2.446-11.549-2.446-11.549M214.898 210.205s-6.884 4.437-8.662 11.107c-1.777 6.67-6.67 13.782-20.892 13.782v8.007s12.004.881 18.66-1.777c6.67-2.674 8.447-15.119 8.447-19.57 0-4.439 2.446-11.549 2.446-11.549"/><path d="M212.451 301.326c0-4.437-2.005-16.881-8.661-19.555-6.67-2.66-18.887-3.697-18.887-3.697s-12.004 1.039-18.674 3.697c-6.67 2.674-8.448 15.119-8.448 19.555s-2.446 25.771-2.446 25.771 9.344-15.6 11.121-22.272 9.103-14.976 18.447-14.976c9.542 0 17.108 8.007 18.887 14.677 1.778 6.657 10.994 22.572 10.994 22.572s-2.333-21.334-2.333-25.772M184.889 341.334V384s-12.445 1.338-30.223-3.327c-17.777-4.665-21.106-6.443-21.106-6.443s18.091-18.119 25.999-24.904c9.33-7.992 25.33-7.992 25.33-7.992"/><path d="M184.889 341.334V384s12.445 1.338 30.222-3.327c17.778-4.665 21.107-6.443 21.107-6.443s-18.092-18.119-26-24.904c-9.33-7.992-25.33-7.992-25.33-7.992"/></g></svg>