<svg xmlns="http://www.w3.org/2000/svg" viewBox="0 0 512 512"><path d="M512 384c0 31.418-25.473 56.889-56.889 56.889H56.89C25.472 440.889 0 415.417 0 384V128c0-31.418 25.472-56.889 56.889-56.889H455.11C486.53 71.111 512 96.584 512 128v256z" fill="#21428e"/><g fill="#eee"><path d="M284.445 440.889h-56.889V71.11h56.889V440.89z"/><path d="M512 284.445H0v-56.889h512v56.889z"/></g><g fill="#fff"><path d="M94.649 193.749c3.84-4.423 56.902-6.443 54.016.825-3.712 9.345-58.666 4.523-54.016-.825m1.565-94.634c-1.778 1.778-3.328 1.109-1.55-1.109 1.777-2.22 3.327-.668 1.55 1.109m66.446 89.33c-5.334-9.486-52.438-13.326-69.618-4.736 15.403-13.327 61.625-3.555 63.104-25.487 1.18-17.45-31.701-16-44.445-19.257-12.729-3.258-1.479-6.813 8.291-10.965 9.785-4.153 20.452-7.993 18.077-22.115-2.361-14.109-26.368-13.141-37.334-13.725-10.965-.598-24.889 3.555-21.633 10.367-8.59 3.555-18.66 2.96-24.59 0-.07 2.362 3.698 3.258 3.698 3.258l-6.358 1.479c7.41 3.555 22.813 1.777 29.327-1.479 1.195 1.479 5.333 2.375 21.333 1.479 16-.882 17.778-3.854 21.633-.299 6.471 5.974-7.111 8.306-24.291 14.521-17.195 6.229-9.785 21.334-.598 26.069 9.188 4.736 18.375 4.337 33.778 6.826 15.417 2.503 4.451 5.618-4.438 6.215-3.271.228-29.34 1.18-43.264 8.59-16.27 8.661-13.04 19.555-14.52 21.334-1.48 1.777-15.702 1.195-26.667-2.076 3.854 10.666 22.229 10.666 28.742 10.965 6.514.299 12.446 15.701 51.854 15.119 39.412-.597 43.252-16.597 37.919-26.083M390.94 193.749c3.84-4.423 56.902-6.443 54.016.825-3.711 9.345-58.666 4.523-54.016-.825m1.565-94.634c-1.777 1.778-3.327 1.109-1.55-1.109 1.777-2.22 3.327-.668 1.55 1.109m66.446 89.33c-5.334-9.486-52.437-13.326-69.617-4.736 15.417-13.327 61.625-3.555 63.103-25.487 1.18-17.45-31.7-16-44.445-19.257-12.728-3.258-1.478-6.813 8.292-10.965 9.785-4.153 20.451-7.993 18.076-22.115-2.361-14.109-26.368-13.141-37.334-13.725-10.965-.598-24.889 3.555-21.632 10.367-8.59 3.555-18.66 2.96-24.59 0-.071 2.362 3.712 3.258 3.712 3.258l-6.386 1.479c7.424 3.555 22.826 1.777 29.34-1.479 1.195 1.479 5.334 2.375 21.334 1.479 16-.882 17.777-3.854 21.632-.299 6.471 5.974-7.111 8.306-24.306 14.521-17.18 6.229-9.771 21.334-.583 26.069 9.202 4.736 18.362 4.337 33.778 6.826 15.416 2.503 4.451 5.618-4.438 6.215-3.27.228-29.34 1.18-43.263 8.59-16.27 8.661-13.042 19.555-14.522 21.334-1.465 1.777-15.7 1.195-26.666-2.076 3.869 10.666 22.229 10.666 28.743 10.965 6.513.299 12.445 15.701 51.84 15.119 39.426-.597 43.266-16.597 37.932-26.083M94.649 400.555c3.84-4.424 56.902-6.442 54.016.839-3.712 9.33-58.666 4.522-54.016-.839m1.565-94.621c-1.778 1.777-3.328 1.109-1.55-1.109 1.777-2.232 3.327-.669 1.55 1.109m66.446 89.33c-5.334-9.486-52.438-13.34-69.618-4.736 15.403-13.34 61.625-3.555 63.104-25.487 1.18-17.465-31.701-16-44.445-19.271-12.729-3.242-1.479-6.799 8.291-10.951 9.785-4.153 20.452-8.008 18.077-22.13-2.361-14.109-26.368-13.141-37.334-13.725s-24.889 3.555-21.633 10.367c-8.59 3.555-18.66 2.973-24.59 0-.07 2.375 3.698 3.258 3.698 3.258l-6.358 1.494c7.41 3.554 22.813 1.777 29.327-1.494 1.195 1.494 5.333 2.375 21.333 1.494 16-.897 17.778-3.87 21.633-.313 6.471 5.974-7.111 8.306-24.291 14.535-17.195 6.215-9.785 21.334-.598 26.069 9.188 4.736 18.375 4.324 33.778 6.812 15.417 2.503 4.451 5.633-4.438 6.229-3.271.227-29.34 1.18-43.264 8.576-16.27 8.675-13.04 19.555-14.52 21.334-1.48 1.778-15.702 1.195-26.667-2.062 3.854 10.666 22.229 10.666 28.742 10.95 6.514.313 12.446 15.716 51.854 15.12 39.412-.583 43.252-16.583 37.919-26.07M390.94 400.555c3.84-4.424 56.902-6.442 54.016.839-3.711 9.33-58.666 4.522-54.016-.839m1.565-94.621c-1.777 1.777-3.327 1.109-1.55-1.109 1.777-2.232 3.327-.669 1.55 1.109m66.446 89.33c-5.334-9.486-52.437-13.34-69.617-4.736 15.417-13.34 61.625-3.555 63.103-25.487 1.18-17.465-31.7-16-44.445-19.271-12.728-3.242-1.478-6.799 8.292-10.951 9.785-4.153 20.451-8.008 18.076-22.13-2.361-14.109-26.368-13.141-37.334-13.725-10.965-.583-24.889 3.555-21.632 10.367-8.59 3.555-18.66 2.973-24.59 0-.071 2.375 3.712 3.258 3.712 3.258l-6.386 1.494c7.424 3.554 22.826 1.777 29.34-1.494 1.195 1.494 5.334 2.375 21.334 1.494 16-.897 17.777-3.87 21.632-.313 6.471 5.974-7.111 8.306-24.306 14.535-17.18 6.215-9.771 21.334-.583 26.069 9.202 4.736 18.362 4.324 33.778 6.812 15.416 2.503 4.451 5.633-4.438 6.229-3.27.227-29.34 1.18-43.263 8.576-16.27 8.675-13.042 19.555-14.522 21.334-1.465 1.778-15.7 1.195-26.666-2.062 3.869 10.666 22.229 10.666 28.743 10.95 6.513.313 12.445 15.716 51.84 15.12 39.426-.583 43.266-16.583 37.932-26.07"/></g></svg>