<svg xmlns="http://www.w3.org/2000/svg" viewBox="0 0 512 512"><path d="M512 384c0 31.418-25.473 56.889-56.889 56.889H56.89C25.472 440.889 0 415.417 0 384V128c0-31.418 25.472-56.889 56.889-56.889H455.11C486.53 71.111 512 96.584 512 128v256z" fill="#ce1b26"/><path d="M455.111 71.111H56.89C25.472 71.111 0 96.582 0 128v128h512V128c0-31.418-25.473-56.889-56.889-56.889" fill="#002b7f"/><g fill="#b28914"><path d="M142.222 199.111H85.334v-42.666h56.888v42.666z"/><path d="M112.313 150.03l-1.352 45.284H65.024c-5.66-10.98-10.325-20.324-10.325-32.968 0-10.581 8.32-18.972 20.309-18.972 12.7 0 26.638 4.281 37.305 6.656"/></g><path d="M111.303 148.025l-.328 4.665c-8.902-1.351-21.532-6.329-33.309-6.329-10.866 0-19.3 4.353-19.3 15.318 0 10.808 4.58 20.636 10.653 30.62l-6.315 3.001c-5.66-10.98-10.325-20.324-10.325-32.953 0-10.58 8.306-20.977 22.641-20.977 12.689-.001 25.616 4.265 36.283 6.655" fill="#ffd83d"/><path d="M120.391 150.03l1.351 45.284h45.938c5.66-10.98 10.325-20.324 10.325-32.968 0-10.581-8.32-18.972-20.309-18.972-12.701 0-26.638 4.281-37.305 6.656" fill="#b28914"/><g fill="#ffd83d"><path d="M121.415 148.025l.328 4.665c8.902-1.351 21.532-6.329 33.308-6.329 10.867 0 19.3 4.353 19.3 15.318 0 10.808-4.58 20.636-10.652 30.62l6.315 3.001c5.66-10.98 10.325-20.324 10.325-32.953 0-10.58-8.32-20.977-22.641-20.977-12.688-.001-25.617 4.265-36.283 6.655M116.352 117.589l-3.726 6.969 3.726 6.997 3.74-6.997-3.74-6.97zm0-17.664l-3.726 6.998 3.726 6.968 3.74-6.968-3.74-6.998zM117.903 115.74l5.873 3.726 5.888-3.726-5.888-3.74-5.874 3.74zm-14.863 0l5.888 3.726 5.873-3.726-5.873-3.74-5.888 3.74z"/><path d="M116.352 113.066a2.816 2.816 0 0 1 2.83 2.816 2.82 2.82 0 0 1-2.83 2.83 2.828 2.828 0 0 1-2.83-2.83c0-1.563 1.28-2.816 2.83-2.816M116.352 126.294a7.578 7.578 0 0 1 7.58 7.58c0 4.167-3.398 7.552-7.58 7.552-4.18 0-7.566-3.385-7.566-7.552a7.566 7.566 0 0 1 7.566-7.58M116.352 173.511c-9.358 0-16.227 4.423-16.64 15.645-2.29-4.025-11.96-16.682-20.992-14.99-5.347 1.01-10.098 8.448-9.287 16.981-4.467-12.77-17.466-14.876-26.98-7.325 8.433 6.94 12.202 27.407 19.284 36.295h109.228c7.098-8.888 10.866-29.354 19.3-36.294-9.5-7.553-22.514-5.448-26.951 7.324.782-8.533-3.968-15.97-9.344-16.98-9.017-1.693-18.674 10.964-20.964 14.99-.412-11.223-7.296-15.646-16.653-15.646"/></g><path d="M170.809 220.118c0 4.038-24.392 8.49-54.443 8.49-30.037 0-54.429-4.45-54.429-8.49s24.392-6.16 54.43-6.16c30.05 0 54.442 2.12 54.442 6.16"/><path d="M170.809 220.118c0 4.038-24.392 8.49-54.443 8.49-30.037 0-54.429-4.45-54.429-8.49s24.392-6.16 54.43-6.16c30.05 0 54.442 2.12 54.442 6.16z" fill="none" stroke="#000" stroke-width=".095" stroke-linecap="round" stroke-linejoin="round"/><g fill="#ffd83d"><path d="M109.725 147.669s8.32 1.208 13.241 0c0 0 1.92 17.023 3.599 23.338 0 0-5.86-1.663-9.999-1.663-4.125 0-10.411 1.664-10.411 1.664s1.18-7.667 2.063-12.787c.894-5.105 1.507-10.552 1.507-10.552M47.104 170.923c-2.688-11.435-2.817-23.125 11.62-33.053 14.435-9.941 38.5-1.565 45.17.1 6.67 1.664 6.798 8.918-1.365 6.884s-31.048-8.405-42.084 1.451-8.902 17.124-7.211 22.955c4.892 16.781-4.039 10.58-6.13 1.662M185.6 171.577c2.688-11.435 2.816-23.125-11.62-33.052-14.435-9.941-38.5-1.565-45.17.1-6.67 1.664-6.799 8.917 1.365 6.884s31.047-8.405 42.084 1.451c11.036 9.856 8.832 17.095 7.211 22.955-3.711 13.437 4.039 10.579 6.13 1.662"/></g></svg>