<svg xmlns="http://www.w3.org/2000/svg" viewBox="0 0 512 512"><path d="M512 384c0 31.418-25.473 56.889-56.889 56.889H56.89C25.472 440.889 0 415.417 0 384V128c0-31.418 25.472-56.889 56.889-56.889H455.11C486.53 71.111 512 96.584 512 128v256z" fill="#eee"/><path d="M455.111 71.111H56.89C25.472 71.111 0 96.584 0 128v113.081c5.717-3.029 12.032-5.746 23.267-5.746 25.87 0 25.87 14.222 51.727 14.222s25.856-14.222 51.712-14.222 25.856 14.222 51.713 14.222c25.87 0 25.87-14.222 51.726-14.222s25.856 14.222 51.712 14.222c25.87 0 25.87-14.222 51.613-14.222 25.97 0 25.97 14.222 51.769 14.222 25.912 0 25.912-14.222 51.755-14.222 25.885 0 25.885 14.45 51.726 14.45 11.25 0 17.565-3.285 23.281-6.229V128.001c-.001-31.417-25.473-56.89-56.89-56.89" fill="#ce1126"/><path d="M296.931 252.26c3.94-5.361 9.429-5.334 15.986-1.92-.896-8.69-11.278-14.165-15.957-14.919 1.906-6.386 8.035-9.6 15.331-8.647-3.782-7.865-16.285-8.121-20.977-7.168-.355-6.698 4.352-11.832 11.491-13.482-6.159-6.073-18.02-1.949-22.115.555-2.546-6.159.1-12.615 6.3-16.654-7.851-3.57-17.621 4.423-20.608 8.193-4.508-4.893-4.152-11.89.285-17.82-8.576-.627-15.06 10.31-16.582 14.89-5.888-3.028-7.936-9.684-5.789-16.81-8.249 2.403-10.639 14.918-10.539 19.74-6.527-.783-10.708-6.358-11.093-13.81-6.94 5.148-4.978 17.72-3.243 22.215-6.414 1.55-12.217-2.262-15.075-9.103-4.807 7.239 1.28 18.389 4.423 22.001-5.519 3.669-12.232 2.134-17.238-3.342-2.076 8.476 7.395 16.854 11.563 19.171-3.925 5.361-6.315 9.288-12.858 5.916.91 8.69 8.178 10.169 12.871 10.894l93.824.1z" fill="#ffac33"/><g fill="#fff100"><path d="M283.335 243.798l32.228-11.705-34.19.17 26.31-22.228-32.1 12.075 17.252-30.038-26.112 22.472 6.1-34.205-16.967 30.194-5.788-34.275-5.79 34.274-16.952-30.193 6.102 34.205-26.098-22.472 17.237 30.038-32.1-12.075 26.325 22.229-34.218-.172 32.241 11.705h66.52z"/><path d="M250.069 277.618c18.361 0 33.266-15.133 33.266-33.807s-14.905-33.792-33.266-33.792c-18.375 0-33.266 15.119-33.266 33.792s14.89 33.807 33.266 33.807"/></g><path d="M250.069 277.618c18.361 0 33.266-15.133 33.266-33.807s-14.905-33.792-33.266-33.792c-18.375 0-33.266 15.119-33.266 33.792s14.89 33.807 33.266 33.807z" fill="none" stroke="#f15a29" stroke-width=".075"/><g fill="#ffac33"><path d="M248.021 135.168c-2.66-3.6-5.987-7.424-9.983-9.23-3.983-1.793-11.122-2.915-18.83-.897-8.648 2.248-18.93 5.732-27.052 3.357-1.55-.427-2.66 1.137.455 2.93 3.1 1.82 10.965 2.26 18.83 1.25 5.547-.71 12.858-.454 15.744.67 3.428 1.35 9.643 5.973 12.288 10.708l8.548-8.788zM265.515 154.738c2.404-.953 7.865-1.408 10.069-1.04 2.901.485 6.912-.967 8.235-1.55 2.389-1.065-.156-2.887-9.429-2.36-6.102.327-8.477 3.016-8.875 4.95"/></g><g fill="#fcd116"><path d="M259.428 158.934c5.617-2.148 10.88-9.473 20.408-9.23 9.074.227 13.824-2.703 5.974-4.736-7.865-2.02-13.866-1.238-19.186-.214-6.842 1.294-13.853-5.405-24.263-1.693-4.195 1.494-9.87-.227-12.53-2.816-3.001-2.915-7.04-3.257-9.97-.285-.555.569-1.224 1.465-3.057 1.465-3.158 0-8.193.057-8.263 5.347 1.679-2.09 2.83-2.417 8.22-2.417.825 0 1.82.384 2.66 1.806 1.209 2.077 3.925 3.713 6.641 3.769s3.854 1.891 5.647 3.826c5.219 5.633 16.852 9.344 27.719 5.178"/><path d="M236.472 145.309c-.285 2.859 4.822 5.702 6.43 6.315 2.118.782 3.982.214 4.437-1.806 1.55 1.35 4.096.113 4.096-1.58 1.451.67 3.441-.227 3.769-2.247 1.777.455 3.541-.455 3.314-1.806 2.005.782 3.555.171 3.897-1.18 1.38.512 3.485-.341 3.94-1.806 1.365.568 3.414-.228 3.954-1.565 1.806.653 3.684.156 4.522-1.465 1.209.725 3.314-.072 3.655-1.749 1.223.782 3.1.669 3.555-1.138 1.55 1.082 3.428.242 3.328-1.565.711.328 2.19 0 2.318-1.137 2.873.127 6.528 0 6.528-2.134 2.446.114 5.874-.995 5.803-3.641 1.706-.114 3.882-1.451 4.395-3.343.454-1.55-1.323-2.546-4.423-2.702-19.171-.896-24.05 3.044-33.365 3.826-8.505.725-13.853 3.3-18.176 8.334-3.883 4.509-7.737 8.605-9.87 10.026-1.267.855-2.049 1.808-2.107 2.363"/></g><path d="M284.445 284.445h-71.111V256h71.111v28.445z" fill="#eee"/><g fill="#00247d"><path d="M510.947 394.425c-5.46 3.001-11.633 4.466-22.215 4.466-25.856 0-25.856-14.009-51.712-14.009-25.87 0-25.87 14.223-52.537 14.223-25.045 0-25.045-14.223-51.314-14.223-25.444 0-25.444 14.223-51.3 14.223-25.87 0-25.87-14.223-51.726-14.223s-25.857 14.223-51.713 14.223c-25.87 0-25.87-14.223-51.726-14.223-25.856 0-25.856 14.223-51.713 14.223s-25.856-14.223-51.726-14.223c-10.837 0-17.066 2.532-22.627 5.448 3.186 28.388 27.007 50.56 56.248 50.56H455.11c27.85-.001 50.932-20.04 55.838-46.465M512 361.002v-27.647c-5.717 3.229-12.032 5.319-23.281 5.319-25.841 0-25.841-14.321-51.698-14.321-25.87 0-25.87 14.222-52.537 14.222-25.045 0-25.045-14.222-51.314-14.222-25.444 0-25.444 14.222-51.314 14.222-25.856 0-25.856-14.222-51.712-14.222-25.857 0-25.857 14.222-51.727 14.222-25.856 0-25.856-14.222-51.712-14.222s-25.856 14.222-51.713 14.222-25.856-14.222-51.726-14.222c-11.235 0-17.55 2.702-23.267 5.746v28.445c5.717-3.044 12.032-5.746 23.267-5.746 25.87 0 25.87 14.222 51.726 14.222s25.857-14.222 51.713-14.222 25.856 14.222 51.712 14.222c25.87 0 25.87-14.222 51.727-14.222S256 367.02 281.856 367.02c25.87 0 25.87-14.222 51.613-14.222 25.97 0 25.97 14.222 51.768 14.222 25.913 0 25.913-14.222 51.755-14.222 33.82 0 33.04 14.093 51.727 14.093 11.248 0 17.563-2.945 23.281-5.889M512 300.459V272.81c-5.717 3.229-12.032 5.192-23.281 5.192-25.841 0-25.841-14.208-51.698-14.208-25.87 0-25.87 14.236-52.537 14.236-25.045 0-25.045-14.236-51.314-14.236-25.444 0-25.444 14.236-51.314 14.236-25.856 0-25.856-14.236-51.712-14.236-25.857 0-25.857 14.236-51.727 14.236-25.856 0-25.856-14.236-51.712-14.236s-25.856 14.236-51.713 14.236-25.856-14.236-51.726-14.236c-11.235 0-17.55 2.716-23.267 5.76V298c5.717-3.044 12.032-5.746 23.267-5.746 25.87 0 25.87 14.222 51.726 14.222s25.857-14.222 51.713-14.222 25.856 14.222 51.712 14.222c25.87 0 25.87-14.222 51.727-14.222s25.856 14.222 51.712 14.222c25.87 0 25.87-14.222 51.613-14.222 25.97 0 25.97 14.222 51.768 14.222 25.913 0 25.913-14.222 51.755-14.222 25.885 0 25.885 13.781 51.727 13.781 11.248-.001 17.563-2.632 23.281-5.576"/></g><path d="M512 272v-28.146c-5.717 3.242-12.032 6.115-23.281 6.115-25.841 0-25.841-15.119-51.698-15.119-25.87 0-25.87 14.236-52.537 14.236-25.045 0-25.045-14.236-51.314-14.236-25.444 0-25.444 14.236-51.314 14.236-25.856 0-25.856-14.236-51.712-14.236-25.857 0-25.857 14.236-51.727 14.236-25.856 0-25.856-14.236-51.712-14.236s-25.856 14.236-51.713 14.236-25.856-14.236-51.726-14.236c-11.235 0-17.55 2.716-23.267 5.746v28.445c5.717-3.015 12.032-5.746 23.267-5.746 25.87 0 25.87 14.236 51.726 14.236s25.857-14.236 51.713-14.236 25.856 14.236 51.712 14.236c25.87 0 25.87-14.236 51.727-14.236s25.856 14.236 51.712 14.236c25.87 0 25.87-14.236 51.613-14.236 25.97 0 25.97 14.236 51.768 14.236 25.913 0 25.913-14.236 51.755-14.236 25.885 0 25.885 14.038 51.727 14.038 11.248 0 17.563-2.39 23.281-5.333" fill="#eee"/></svg>