<svg xmlns="http://www.w3.org/2000/svg" viewBox="0 0 512 512"><path d="M455.112 71.113H56.894C25.477 71.113.006 96.585.006 128.001v255.997c0 31.417 25.472 56.888 56.888 56.888h398.218c31.417 0 56.888-25.472 56.888-56.888V128.001c0-31.416-25.472-56.888-56.888-56.888z" fill="#00247d"/><path d="M270.225 256v-28.857l-100.977-70.698H94.881L237.059 256h33.166z" fill="#eee"/><path d="M270.225 235.833l-113.364-79.388h-24.789l138.153 96.738v-17.35z" fill="#cf1b2b"/><path d="M115.199 156.446L0 238.45V256h47.388l142.192-99.554h-74.381z" fill="#eee"/><path d="M152.379 156.446L10.443 256h24.561l142.178-99.554h-24.803z" fill="#cf1b2b"/><path d="M237.072 71.113L94.894 170.668h74.367L270.223 99.97V71.113h-33.151z" fill="#eee"/><path d="M249.447 71.113l-142.164 99.554h24.789l138.153-96.738v-2.816h-20.778z" fill="#cf1b2b"/><path d="M9.432 96.649l132.795 92.949v-18.93h47.331L48.315 71.758c-16.227 2.456-30.198 11.77-38.883 24.891z" fill="#eee"/><path d="M13.785 90.906l128.441 90.031v-10.268h10.155L24.589 81.185a57.209 57.209 0 0 0-10.804 9.721z" fill="#cf1b2b"/><path d="M270.225 128.001h-99.554V71.113H99.56v56.888H.006v71.11H99.56V256h71.11v-56.888h99.554v-71.111z" fill="#eee"/><g fill="#cf1b2b"><path d="M156.449 256h-42.666V71.113h42.666V256z"/><path d="M270.225 184.89H.006v-42.666h270.219v42.666z"/></g><g fill="#cdad57"><path d="M379.113 142.224c-1.92-1.479-4.892-3.328-9.116-5.774-4.21-2.446-5.106-7.552-3.1-11.335 1.991-3.783 6.741-5.106 5.589-1.55-1.152 3.556-2.404 7.907 0 8.291 2.404.37 1.735-4.736 3.968-4.523 2.219.228-2.233 8.22 0 8.448 2.219.228 1.55-7.111 3.996-6.229 2.446.896 1.991 7.339 0 7.779-2.005.455.213 3.342 1.664 4.892 1.437 1.551-.995 1.537-3.001.001M390.473 142.224c1.92-1.479 4.892-3.328 9.116-5.774 4.21-2.446 5.106-7.552 3.1-11.335-1.991-3.783-6.741-5.106-5.589-1.55 1.152 3.556 2.404 7.907 0 8.291-2.404.37-1.735-4.736-3.968-4.523-2.219.228 2.233 8.22 0 8.448-2.219.228-1.55-7.111-3.996-6.229-2.446.896-1.991 7.339 0 7.779 2.005.455-.213 3.342-1.664 4.892-1.435 1.551.996 1.537 3.001.001"/></g><path d="M382.821 154.668c1.294-4.949-.299-9.771-4.153-8.291-3.84 1.479-7.424-.896-6.812-2.076.583-1.18 5.049-4.736 10.965-4.736 5.916 0 13.611 3.257 13.027 4.736-.583 1.479-7.111 2.816-7.111 2.816s.896 5.774 11.861 5.774c10.951 0 20.138 2.66 18.062 16-2.062 13.326-2.66 15.118-4.437 14.521-1.778-.597-2.062-5.035-1.18-8.889.896-3.854-1.479-9.187-2.674-5.333-1.18 3.854-3.57 11.264-6.514 11.847-2.972.597 1.166-11.264.882-13.923-.299-2.674-7.111-2.076-7.41 2.076-.284 4.139.54 10.965-1.948 12.743-2.489 1.778-2.788-4.153-2.489-8.306.299-4.139-2.66-10.652-2.958-5.035-.299 5.632-.597 12.743-3.271 13.625-2.659.896 0-6.812-.882-11.548-.896-4.737-4.437-10.383-2.958-16.001" fill="#923f00"/><g fill="#fff"><path d="M391.334 222.001c-3.783 3.556-18.005 11.548-23.552-1.55 13.326 5.333 21.205-6.229 21.205-6.229l2.347 7.779zM371.779 190.446c-5.902-18.218-19.114-19.783-19.114-19.783s-.668 5.788 2.233 9.899c-9.529-.882-18.901-5.219-18.901-5.219-2.66 7.552 13.34 15.545 23.111 15.104-4.665 4.665-.213 8.675 4.224 9.458-2.219-5.461 4.892-9.102 6.443-4.836 1.563 4.265 2.004-4.623 2.004-4.623"/></g><path d="M374.209 221.82c-11.989 1.294-20.508-17.109-20.466-22.57 7.139 2.091 12.928 6.969 12.928 6.969s1.892-16.227 3.385-20.224c5.945 4.452 7.495 16.896 5.504 22.67 6.528.327 7.779 5.774 5.774 9.785-3.114-4.452-6.4-.228-7.125 3.37" fill="#1500ff"/><g fill="#fff"><path d="M408.821 222.001c3.783 3.556 18.005 11.548 23.552-1.55-13.326 5.333-21.205-6.229-21.205-6.229l-2.347 7.779zM428.376 190.446c5.902-18.218 19.114-19.783 19.114-19.783s.668 5.788-2.233 9.899c9.529-.882 18.901-5.219 18.901-5.219 2.66 7.552-13.34 15.545-23.111 15.104 4.665 4.665.213 8.675-4.224 9.458 2.219-5.461-4.892-9.102-6.443-4.836-1.563 4.265-2.004-4.623-2.004-4.623"/></g><path d="M425.945 221.82c11.989 1.294 20.508-17.109 20.466-22.57-7.154 2.091-12.928 6.969-12.928 6.969s-1.892-16.227-3.385-20.224c-5.945 4.452-7.495 16.896-5.504 22.67-6.528.327-7.779 5.774-5.774 9.785 3.114-4.452 6.399-.228 7.125 3.37" fill="#1500ff"/><path d="M401.112 247.556c-18.446 0-24.889-8.448-23.111-14.222 1.778-5.774 8.007-2.66 9.998-4.224 2.005-1.55 2.005-11.776-2.66-16.441s-7.566-9.557-5.561-12.003c-2.66-4.437 1.522-6.443 2.759-11.548 1.237-5.12 2.56-9.884 4.508-10.453s2.958 4.224 3.627 3.342c.668-.896 1.408-4.892 4.708-5.12 3.285-.213 2.844 3.342 3.954 4.224 1.109.896 2.005-4.124 5.106-4.224 3.115-.114 4.011 4.224 5.333 4.452 1.337.213 1.778-3.2 4.452-2.674 2.66.54 1.778 7.339 3.556 10.226 1.778 2.887 5.547 8.448 3.328 11.776 3.115 2.219-.213 6.229-3.996 9.116-3.783 2.887-8.22 9.998-5.561 17.991 2.446 5.333 11.776-.213 14.009 3.115 2.218 3.342 1.322 16.667-24.449 16.667" fill="#656263"/><path d="M377.724 197.557c0-5.333 14.279-7.111 22.272-7.111 8.007 0 22.67 1.849 22.67 7.111s-11.164 0-22.471 0-22.471 5.105-22.471 0" fill="#fff"/><g fill="#1500ff"><path d="M392.362 190.905c-2.503.284-5.02.725-7.267 1.323-.725 2.404-.313 5.02.996 7.011 2.148-.356 4.565-.782 7.139-1.124-1.493-1.777-2.091-4.366-.868-7.21M399.335 190.46v7.139c.299-.014.569-.043.868-.043 2.731 0 5.433.313 8.007.711.796-.882 1.351-1.906 1.351-3.1 0-1.692-1.038-3.115-2.418-4.324-2.588-.27-5.091-.398-7.139-.398-.214.001-.456.015-.669.015M413.127 199.091c5.575.996 9.543 1.593 9.543-1.536 0-2.759-4.053-4.565-9.045-5.66.825 1.01 1.493 2.119 1.493 3.271 0 1.649-.939 2.901-1.991 3.925"/></g><path d="M379.196 203.174c.583-2.503 21.006 11.491 21.006 11.491s21.603-15.075 21.817-13.027c.199 2.048-21.817 16.81-21.817 16.81s-21.589-12.771-21.006-15.274" fill="#adb0b2"/><path d="M379.557 262.223c-9.771 9.33-48.895 43.107-51.114 50.218-2.219 7.111 2.446 8.889 9.33 4.224-2.432 5.561.668 7.779 2.233 8.007 1.55.213 7.993-2.005 10.667-7.779 2.887 4.665 10.226 5.333 11.548 4.437 1.337-.882 2.005-2.446 2.005-2.446s1.28 6.699 3.755 5.803c2.46-.91 4.665-4.466 6.229-4.238 1.564.213-.1 3.328 3.513 3.1 3.612-.213 5.092-1.778 7.012-3.769 1.934-2.005 5.049.882 6.599.441s3.115-9.998 5.561-16.882c2.445-6.898-17.338-41.116-17.338-41.116" fill="#6a4c2d"/><path d="M415.112 296.888c6.528 1.479 13.781-.299 17.266 1.778 3.484 2.062 6.144 3.854 11.179 4.153 5.049.284 14.521-4.139 16.597 0s4.736 10.069 7.41 10.951c2.66.896 12.729 4.153 2.66 4.736-10.069.597-32.583 0-32.583 0l2.66 3.556-19.698 1.195s-11.577-10.083-11.051-17.194 5.56-9.175 5.56-9.175" fill="#fff"/><path d="M391.334 296.888c-8.035 4.864-4.295 10.951-4.295 10.951s1.294 8.306 1.948 7.424c.654-.896 4.252-3.868 4.252-3.868s-.626 6.627-.526 6.371c.1-.27 4.38.014 4.38.014s1.579 5.817 2.233 6.983c.668 1.166 4.38-2.702 4.38-2.702s3.556 2.29 5.12 2.93c1.55.626 2.148-4.11 2.148-4.11s4.21 5.376 6.912 3.883c2.716-1.508 6.115-5.945 6.115-5.945l-5.049-4.452s.882-1.152 0-3.399c-.868-2.233-4.139-3.129-4.139-3.129s3.271-2.361.896-3.84c-2.373-1.493-11.12-15.103-24.375-7.111" fill="#00713d"/><path d="M402.029 245.333c-7.267-4.437-19.356-3.783-26.922-3.783v31.559c0 7.779 3.399 27.776 26.922 36.664 23.523-8.889 26.922-28.885 26.922-36.664V241.55c-7.566 0-19.654-.654-26.922 3.783" fill="#fff"/><path d="M423.141 247.339l6.499-8.448-7.623-9.899-6.599 8.562-6.599-8.562-6.713 8.718-6.727-8.718-6.414 8.32-6.414-8.32-7.637 9.899 6.499 8.448-6.499 8.434 6.3 8.178-6.3 8.178 6.073 7.879-6.073 7.893 7.637 9.913 6.414-8.334 4.764 6.172-5.973 7.751 7.623 9.899 6.727-8.732 6.713 8.732 7.623-9.899-5.973-7.751 4.949-6.414 6.599 8.576 7.623-9.913-6.073-7.893 6.073-7.879-6.286-8.178 6.286-8.178-6.499-8.434zm-34.176 38.997l-4.864-6.329 4.864-6.315 4.85 6.315-4.85 6.329zm0-15.787l-5.091-6.599 5.091-6.599 5.077 6.599-5.077 6.599zm0-16.341l-5.291-6.869 5.291-6.883 5.291 6.883-5.291 6.869zm13.141 48.028l-5.077-6.585 5.077-6.585 5.063 6.585-5.063 6.585zm0-15.502l-5.177-6.727 5.177-6.713 5.163 6.713-5.163 6.727zm0-15.772l-5.39-7.011 5.39-6.997 5.376 6.997-5.376 7.011zm0-16.356l-5.603-7.267 5.603-7.282 5.589 7.282-5.589 7.267zm13.312 31.957l-5.035-6.556 5.035-6.556 5.049 6.556-5.049 6.556zm0-15.772l-5.262-6.841 5.262-6.841 5.262 6.841-5.262 6.841zm0-16.341l-5.475-7.111 5.475-7.111 5.476 7.111-5.476 7.111z" fill="#1e5aa6"/><path d="M402.099 301.75l22.755-63.971s-19.74 1.152-22.841 4.309c-3.1-3.157-22.826-4.309-22.826-4.309l22.741 63.971v.484l.085-.228.085.228v-.484z" fill="#016c00"/><path d="M340.224 250.889c.512-14.208 2.887-21.333 2.66-26.894-.213-5.547 4.679-5.547 8.448-6.656 3.783-1.124 5.561 1.991 8.675 2.219 3.1.213 4.878.668 3.996 4.437-.896 3.783-3.783 8.661-4.452 9.998-.668 1.337 3.783 9.785 7.339 16.896 3.556 7.111 8.661 16.227 4.892 30.449-3.783 14.222-6.002 19.328-7.566 20.437-1.55 1.109-.356-9.33-1.735-14.222-1.365-4.892-3.143-6.002-3.143-6.002s-6.002 5.675-8.22 12.843c-2.233 7.168-.455 12.387 3.769 15.331 4.224 2.944 13.781 4.722 15.331 5.603 1.564.896-3.1 2.887-9.557 2.446-6.443-.441-21.689-5.859-27.392-11.932-5.717-6.059-13.511-16-9.045-26.951 2.446-6.002 7.111-8.007 8.661-9.998 1.565-2.004 7.183-13.737 7.339-18.004" fill="#8b9497"/><path d="M448.446 221.883c4.85-.668 16.882 30.336 18.218 43.676 1.337 13.326 1.109 37.333-6.883 38.215-8.007.896-15.189-2.219-17.706-15.559-2.517-13.326-.597-23.552 0-32.213.597-8.676-.74-33.124 6.371-34.119" fill="#fff"/><path d="M446.418 221.883c.341-5.689 5.803-7.666 12.245-6.556 6.443 1.124 6.002 11.122 5.788 15.786-.228 4.665 10.112 3.556 10.155 28.657.057 25.116-7.054 39.338-5.049 42.894 2.005 3.556 11.107 8.22 6.002 9.116-5.12.882-11.563-4.452-16-6.002-4.451-1.564.384-7.779 2.19-15.331 1.806-7.566.924-15.815-2.859-14.791-3.783 1.01 1.55 19.342-4.665 18.73-6.229-.612-9.557-14.35-8.889-26.922.668-12.572 3.115-13.468 6.67-17.465s1.323-5.774-2.446-9.998c-3.783-4.224-2.446-7.552 1.55-9.785 3.998-2.218-5.161-.682-4.692-8.333"/><path d="M440.806 243.334c-5.333.441-10.809 2.005-10.809 4.224 0 2.219-.213 9.557 0 10.439.228.896 7.552-3.769 10.809-3.556v-11.107z" fill="#fff"/><path d="M448.446 221.883c1.308-6.869-11.107-.327-11.776 1.451-.669 1.777 10.439 5.546 11.776-1.451" fill="#f66b01"/><path d="M452.223 218.445c.668-1.991 15.559-4.437 18.005-4.224 2.432.228 2.304-.313 1.636.811-.242.398-7.324 1.365-7.424 2.062-.185 1.237 6.258.455 7.339 1.351.725.597-7.168.526-5.831 1.508 1.778 1.323 8.491 4.352 6.528 3.598-3.414-1.28-21.348-1.863-20.253-5.106" fill="#f8f001"/><path d="M449.848 301.986c-3.314.612-13.625-.156-10.069 1.934 3.556 2.076 4.665 2.304 4.665 2.304s-6.386 2.332-3.641 3.499c2.759 1.166 9.059.441 13.241.356 4.181-.071 7.253-2.432 5.518-4.295-1.735-1.878-4.751-4.694-9.714-3.798" fill="#f66b01"/><path d="M356.321 356.665c7.993 1.55 18.446 4.892 18.446 4.892l-1.337 14.435s-3.328-4.878-20.892-7.993c-1.991-5.773 3.783-11.334 3.783-11.334" fill="#c11600"/><path d="M403.681 329.556c-19.826 0-32.91 7.779-32.91 7.779s-7.111-11.036-14.009-12.288c-6.883-1.266-10.88 2.958-8.22 8.291 2.674 5.333 6.229 5.106 11.335 10.667-8.22 5.547-14.891 16.668-14.891 16.668l7.552 7.324s4.224-7.111 13.113-14.45c7.779 8.903 7.779 22.457 7.779 22.457s2.332-9.557 5.945-12.672c-.171-8.661-2.617-15.118-2.617-15.118s11.619-7.111 26.922-7.111v-11.547h.001z" fill="#ffbc00"/><g fill="#c11600"><path d="M358.987 332.444s.228 4.665-6.002 9.998c-6.215 5.333-13.326 4.892-12.885-1.109 6.002-1.55 4.437-13.454 9.429-14.99-.54 4.991 1.466 8.319 9.458 6.101M451.043 356.665c-7.993 1.55-18.446 4.892-18.446 4.892l1.337 14.435s3.328-4.878 20.892-7.993c1.991-5.773-3.783-11.334-3.783-11.334"/></g><path d="M403.681 329.556c19.811 0 32.91 7.779 32.91 7.779s7.111-11.036 14.009-12.288c6.883-1.266 10.88 2.958 8.22 8.291-2.674 5.333-6.229 5.106-11.335 10.667 8.22 5.547 14.891 16.668 14.891 16.668l-7.552 7.324s-4.224-7.111-13.113-14.45c-7.779 8.903-7.779 22.457-7.779 22.457s-2.332-9.557-5.945-12.672c.171-8.661 2.617-15.118 2.617-15.118s-11.619-7.111-26.922-7.111v-11.547h-.001z" fill="#ffbc00"/><path d="M448.376 332.444s-.228 4.665 6.002 9.998c6.215 5.333 13.326 4.892 12.885-1.109-6.002-1.55-4.437-13.454-9.429-14.99.54 4.991-1.465 8.319-9.458 6.101" fill="#c11600"/></svg>