<svg xmlns="http://www.w3.org/2000/svg" viewBox="0 0 512 512"><path d="M455.111 71.111H56.889C25.472 71.111 0 96.583 0 128v256c0 31.417 25.472 56.889 56.889 56.889h398.222C486.528 440.889 512 415.417 512 384V128c0-31.417-25.472-56.889-56.889-56.889z" fill="#141414"/><path d="M455.111 71.111H56.889C25.472 71.111 0 96.583 0 128v71.111h512V128c0-31.417-25.472-56.889-56.889-56.889z" fill="#002488"/><path d="M412.444 405.042s-119.396-62.82-177.18-81.778c-57.771-18.958-73.188-4.153-76.444 2.958 6.229-16.882 12.743-21.02 12.743-21.02s-22.812 5.916-22.514 20.139c-4.75-12.743 11.25-28.444 32.284-28.743-18.958-2.66-51.854.299-57.771 18.958.284-19.243 33.778-24.59 47.403-23.993-34.076-10.667-62.521-10.368-64.597 3.854-2.361-6.215 4.153-11.335 4.153-11.335s-13.34-1.124-19.854 4.807c-.299-5.333 21.632-10.652 32.299-9.472-18.674-7.41-33.18-8.619-36.736-.171-1.195-9.913 33.479-12.572 49.479-9.017-37.333-13.639-51.257-18.972-65.195-4.452 0-10.069 12.146-13.924 20.75-13.028-7.41-7.708-13.042-12.757-20.75-13.042 4.452-1.778 13.938 1.778 13.938 1.778s-10.681-11.264-18.076-14.82c13.028 2.076 37.333 27.264 39.111 29.34s12.146 4.437 12.146 4.437-33.778-27.548-34.958-36.437c13.924 6.812 41.173 36.736 41.173 36.736s6.827 3.854 7.111.896c.299-2.972-40.889-29.938-40.292-45.34 8.292 11.563 20.153 24.59 20.153 24.59s-8.59-11.264-7.708-21.632c8.292 14.82 20.736 32.896 32 39.111-18.517-18.176-20.452-28.729-18.958-32.583 10.069 18.361 26.368 36.736 29.028 37.916 2.674 1.195 4.153.896 4.153.896s-11.548-12.146-13.326-19.854C144 250.376 149.632 263.417 151.41 264c1.778.597 3.854-.583 3.854-.583s-17.195-17.792-17.195-26.382c8.306 6.528 19.257 24.604 20.75 27.264 1.479 2.674 8.292 7.41 9.188 5.333.882-2.076-24.604-25.188-17.195-29.042 11.861 9.785 18.674 24.007 19.854 24.306 1.18.299 6.514 2.361 5.632.583-.896-1.778-16.711-21.774-12.743-32.882.868 11.776 13.042 34.361 34.076 39.41 21.035 5.035 83.556 47.104 125.326 59.548 41.785 12.444 117.035 29.042 117.035 29.042l-2.361 3.556S327.11 335.111 327.11 336.007c0 .882 3.271 3.854 3.271 3.854s106.084 27.847 105.771 28.729c-.299.896-2.375 5.049-2.375 5.049L326.229 340.16h-3.271s107.264 36.153 107.264 37.035c0 .896-2.062 4.736-2.062 4.736L317.34 340.16l3.556 4.153s105.785 40.277 105.486 41.472c-.313 1.195-2.972 4.153-2.972 4.153L322.674 348.75l-5.931-1.479 104.889 45.326-3.257 3.854-97.479-43.25h-3.271l98.674 48.882-3.855 2.959z" fill="green"/><g fill="#fcdd09"><path d="M253.182 208.597s-14.521 9.771.811 42.667c15.346 32.882 29.668 2.759 11.79-11.847-14.522-11.861-14.536-23.993-12.601-30.82M260.521 424.265s14.535-9.771-.811-42.667c-15.346-32.882-29.682-2.745-11.79 11.861 14.521 11.848 14.535 23.979 12.601 30.806"/><path d="M275.486 210.158s-16.228 6.571-7.993 41.913c8.235 35.342 28.459 8.818 13.966-9.173-11.761-14.593-9.258-26.468-5.973-32.74M238.208 422.709s16.242-6.571 8.007-41.913c-8.235-35.356-28.473-8.818-13.98 9.173 11.761 14.578 9.273 26.468 5.973 32.74"/><path d="M296.944 216.265s-17.237 3.086-16.455 39.367c.796 36.281 26.055 14.492 15.573-6.101-8.519-16.697-3.626-27.805.882-33.266M216.757 416.612s17.237-3.1 16.455-39.381-26.055-14.478-15.573 6.116c8.519 16.667 3.64 27.789-.882 33.265"/><path d="M316.805 226.731s-17.493-.54-24.249 35.115c-6.727 35.655 22.5 19.57 16.498-2.745-4.878-18.105 2.204-27.947 7.751-32.37M196.895 406.138s17.508.54 24.249-35.115c6.741-35.669-22.5-19.57-16.512 2.759 4.892 18.063-2.176 27.933-7.737 32.356"/><path d="M334.403 241.42s-16.981-4.224-31.118 29.184c-14.108 33.451 17.849 23.893 16.697.811-.925-18.717 8.078-26.852 14.421-29.995M179.298 391.444s16.996 4.238 31.118-29.198c14.123-33.422-17.849-23.865-16.711-.796.953 18.687-8.05 26.851-14.407 29.994"/><path d="M348.819 260.007s-15.687-7.808-36.708 21.76c-21.035 29.596 12.26 27.179 16.128 4.395 3.13-18.476 13.697-24.449 20.58-26.155M164.89 372.861s15.673 7.808 36.693-21.76c21.035-29.582-12.245-27.164-16.142-4.409-3.1 18.46-13.668 24.49-20.551 26.169"/><path d="M358.098 279.14s-13.838-10.724-40.263 14.137c-26.411 24.903 6.699 29.056 14.962 7.495 6.684-17.522 18.218-21.32 25.301-21.632M155.604 353.723s13.838 10.738 40.249-14.137c26.425-24.889-6.67-29.042-14.962-7.481-6.67 17.479-18.19 21.333-25.287 21.618"/><path d="M363.82 302.333s-11.122-13.497-42.382 4.935c-31.26 18.475.128 29.81 12.942 10.596 10.383-15.617 22.471-16.769 29.44-15.531M149.883 330.528s11.122 13.511 42.368-4.949c31.26-18.46-.114-29.781-12.942-10.581-10.354 15.587-22.443 16.796-29.426 15.53"/><path d="M364.5 323.68s-8.249-15.417-42.524-3.513c-34.276 11.975-5.746 29.269 10.596 12.942 13.268-13.269 25.329-12.017 31.928-9.429M149.201 309.181s8.249 15.431 42.524 3.499c34.276-11.947 5.746-29.241-10.61-12.928-13.226 13.241-25.329 12.046-31.914 9.429"/><path d="M360.543 346.236s-4.807-16.811-40.818-12.402c-36.039 4.452-11.79 27.392 7.623 14.891 15.758-10.169 27.292-6.4 33.195-2.489M153.159 286.625s4.793 16.825 40.818 12.388c36.025-4.423 11.79-27.364-7.637-14.876-15.716 10.153-27.293 6.427-33.181 2.488"/><path d="M351.444 368.318s-.981-17.465-37.077-21.092c-36.153-3.57-17.55 24.135 4.153 16.213 17.606-6.456 28.031-.241 32.924 4.879M162.257 264.542s.981 17.479 37.092 21.063c36.124 3.598 17.522-24.092-4.181-16.185-17.565 6.443-28.033.27-32.911-4.878"/><path d="M339.611 385.653s2.418-17.323-32.299-27.861c-34.788-10.51-21.888 20.267.939 16.711 18.531-2.93 27.548 5.177 31.36 11.15M174.09 247.207s-2.418 17.337 32.313 27.847c34.745 10.524 21.86-20.238-.953-16.683-18.489 2.916-27.563-5.176-31.36-11.164"/><path d="M322.931 401.723s6.059-16.398-25.628-34.105c-31.716-17.707-25.685 15.118-2.631 16.526 18.731 1.095 25.813 10.937 28.259 17.579M190.779 231.132s-6.059 16.427 25.628 34.105c31.687 17.707 25.671-15.104 2.617-16.498-18.674-1.095-25.828-10.937-28.245-17.607"/><path d="M304.111 413.417s9.273-14.82-18.105-38.628c-27.449-23.794-28.26 9.557-5.973 15.644 18.119 4.908 23.04 16.001 24.078 22.984M209.597 219.43s-9.287 14.848 18.119 38.628c27.406 23.808 28.217-9.543 5.931-15.616-18.062-4.907-23.04-15.986-24.05-23.012"/><path d="M282.722 421.167s12.174-12.544-9.614-41.557c-21.831-29.028-29.625 3.413-9.102 14.023 16.682 8.604 19.157 20.494 18.716 27.534M230.979 211.684s-12.188 12.558 9.628 41.572c21.788 29.013 29.582-3.428 9.074-14.037-16.64-8.577-19.186-20.467-18.702-27.535"/><path d="M329.211 316.375c0 40.206-32.597 72.804-72.804 72.804s-72.804-32.597-72.804-72.804 32.597-72.804 72.804-72.804 72.804 32.598 72.804 72.804M88.875 162.375s.612-21.035-13.028-32.299c-13.625-11.264-22.229.882-21.632 7.708.597 6.812 6.485 15.701 17.323 18.958-6.656-13.028 2.375-13.284 5.504-11.548 4.423 2.432 6.812 8.889 6.812 17.18h5.021zM95.112 89.188c-14.82 7.708-14.222 30.521-9.486 42.069 4.75 11.563 5.931 31.118 5.931 31.118h7.112s1.18-19.556 5.931-31.118c4.734-11.549 5.331-34.361-9.488-42.069M101.348 162.375s-.612-21.035 13.028-32.299c13.625-11.264 22.229.882 21.632 7.708-.597 6.812-6.485 15.701-17.323 18.958 6.656-13.028-2.375-13.284-5.504-11.548-4.423 2.432-6.812 8.889-6.812 17.18h-5.021zM95.112 165.041l-12.473 1.038 12.473 1.038 12.473-1.038-12.473-1.038zM111.333 180.445c-7.78-4.224-9.984-10.667-9.984-10.667H88.876s-2.204 6.443-9.984 10.667c6.884 1.109 13.995-2.446 13.995-2.446s-4.011 9.785 2.219 19.328c6.244-9.543 2.233-19.328 2.233-19.328s7.111 3.555 13.994 2.446M249.763 162.375s.612-21.035-13.028-32.299c-13.625-11.264-22.229.882-21.632 7.708.597 6.812 6.485 15.701 17.323 18.958-6.656-13.028 2.375-13.284 5.504-11.548 4.423 2.432 6.812 8.889 6.812 17.18h5.021zM256 89.188c-14.82 7.708-14.222 30.521-9.486 42.069 4.75 11.563 5.931 31.118 5.931 31.118H259.556s1.18-19.556 5.931-31.118c4.735-11.549 5.333-34.361-9.487-42.069M262.237 162.375s-.612-21.035 13.028-32.299c13.625-11.264 22.229.882 21.618 7.708-.583 6.812-6.471 15.701-17.308 18.958 6.642-13.028-2.375-13.284-5.504-11.548-4.423 2.432-6.812 8.889-6.812 17.18h-5.022zM256 165.041l-12.473 1.038L256 167.118l12.473-1.038L256 165.041zM272.222 180.445c-7.78-4.224-9.984-10.667-9.984-10.667H249.765s-2.204 6.443-9.984 10.667c6.884 1.109 13.995-2.446 13.995-2.446s-4.011 9.785 2.219 19.328c6.244-9.543 2.233-19.328 2.233-19.328s7.11 3.555 13.994 2.446M411.763 162.375s.612-21.035-13.013-32.299c-13.639-11.264-22.244.882-21.646 7.708.597 6.812 6.485 15.701 17.308 18.958-6.642-13.028 2.389-13.284 5.518-11.548 4.423 2.432 6.812 8.889 6.812 17.18h5.021zM418 89.188c-14.82 7.708-14.222 30.521-9.472 42.069 4.736 11.563 5.916 31.118 5.916 31.118h7.112s1.18-19.556 5.916-31.118c4.751-11.549 5.348-34.361-9.472-42.069M424.236 162.375s-.612-21.035 13.028-32.299c13.625-11.264 22.229.882 21.618 7.708-.583 6.812-6.471 15.701-17.308 18.958 6.642-13.028-2.375-13.284-5.504-11.548-4.423 2.432-6.827 8.889-6.827 17.18h-5.007zM418 165.041l-12.473 1.038L418 167.118l12.473-1.038L418 165.041zM434.223 180.445c-7.78-4.224-9.984-10.667-9.984-10.667H411.766s-2.204 6.443-9.984 10.667c6.884 1.109 13.995-2.446 13.995-2.446s-4.011 9.785 2.219 19.328c6.244-9.543 2.233-19.328 2.233-19.328s7.11 3.555 13.994 2.446"/></g></svg>