<svg xmlns="http://www.w3.org/2000/svg" viewBox="0 0 512 512"><path d="M455.111 71.111H56.889C25.472 71.111 0 96.583 0 128v256c0 31.417 25.472 56.889 56.889 56.889h398.222C486.528 440.889 512 415.417 512 384V128c0-31.417-25.472-56.889-56.889-56.889z" fill="#eee"/><path d="M0 384c0 31.417 25.472 56.889 56.889 56.889h398.222C486.528 440.889 512 415.417 512 384V256H0v128z" fill="#d00c33"/><path d="M305.778 256c0 62.834-50.944 113.778-113.778 113.778S78.222 318.834 78.222 256 129.166 142.222 192 142.222 305.778 193.166 305.778 256" fill="#eee"/><path d="M192 142.222c-62.834 0-113.778 50.944-113.778 113.778h227.556c0-62.834-50.944-113.778-113.778-113.778" fill="#d00c33"/></svg>