<svg xmlns="http://www.w3.org/2000/svg" viewBox="0 0 512 512"><path d="M512 384c0 31.418-25.473 56.889-56.889 56.889H56.89C25.472 440.889 0 415.417 0 384V128c0-31.418 25.472-56.889 56.889-56.889H455.11C486.53 71.111 512 96.584 512 128v256z" fill="#eee"/><path d="M366.734 158.265c-.328 1.309-.669 2.631-.995 3.94-.256.952-.811 1.536-1.835 1.592-4.736.242-7.921 3.6-11.605 5.903-1.18.74-1.635 2.134-2.105 3.414-.37.981-.882 1.906-1.934 2.176-3.811.995-6.229 3.74-8.491 6.699-.484.611-.981.981-1.778 1.095-1.266.171-2.388.811-3.555 1.351-1.792.867-3.768 1.579-5.39 2.645-3.953 2.574-7.637 5.589-10.14 9.7-.468.767-.653 1.721-.881 2.617-.426 1.68-1.635 2.46-3.186 2.703a9.515 9.515 0 0 1-3.528-.043c-2.731-.555-4.551 1.024-6.413 2.56-.143.128-.313.384-.3.57.1 1.607-1.01 2.488-1.962 3.554-1.052 1.223-1.222 2.845-1.465 4.409-.811 4.807.654 8.817 4.097 12.16 1.763 1.706 3.54 3.371 4.067 5.945.143.654.683 1.109 1.209 1.507.881.654 1.792 1.28 2.645 1.95.455.34 1.166.697 1.237 1.137.328 2.232 2.333 3.171 3.47 4.778.669.953.925 2.077.669 3.258-.114.484-.171.91.569 1.309-.484 0-.698.071-.783-.014-1.451-1.224-3.456-1.124-4.992-2.119-.598-.37-1.338-.355-2.034-.399-1.877-.127-3.755-.753-5.604.498-.796.555-1.962.285-2.972.214-.669-.043-1.024.171-.854.896.313 1.166-.142 1.92-1.18 2.489-1.195.653-2.332.711-3.441-.058-1.138-.754-2.161-1.635-3.285-2.389a7.536 7.536 0 0 0-4.081-1.25c-2.19-.058-4.38-.3-6.557.057-3.555.555-6.997 3.001-7.082 7.651-.043 2.02-.071 4.039-.085 6.059-.014.682-.185 1.166-.881 1.565-1.238.725-1.835 1.976-2.205 3.3-.214.74-.427 1.052-1.323.825-3.512-.925-5.546-.172-7.609 2.816-.582.854-1.28 1.266-2.29 1.479-2.816.568-5.603 1.222-7.523 3.626-.214.285-.54.256-.825.313-1.31.298-2.56.682-3.457 1.748-.327.355-.653.355-1.052.355-.583-.029-1.223.085-1.565.498-.754.981-1.593.981-2.645.611-.968-.299-1.991-.128-3.001 0-.328.029-.67.143-.91.455-1.224 1.521-3.513 2.247-5.433 1.692-3.684-1.066-7.352-1.28-10.894.47-1.28.61-2.617 1.137-3.882 1.748-2.973 1.422-5.305 3.755-6.386 6.969-.627 1.862.057 3.612 1.123 5.22.469.696 1.138 1.308 1.38 2.232-2.787-.256-5.503-.512-8.235-.697-.483-.029-.682-.114-.582-.669.256-1.579.285-3.142-.654-4.551-1.465-2.233-2.944-4.423-5.305-5.76-1.266-.711-2.716-.611-4.096-.241-1.251.298-2.46.582-3.713 0-.753-.37-1.465 0-2.047.526-1.436 1.28-3.058 1.835-4.964 1.465-.355-.058-.697-.029-.995.199-1.124.896-2.29.696-3.456.142-1.991-.925-4.054-1.607-6.13-2.304-.953-.312-1.721-.811-2.319-1.621-1.137-1.55-2.589-2.417-4.622-2.19-.854.085-1.807.085-2.404-.881-.27-.455-.868-.256-1.351-.199-1.238.143-2.574-.171-3.158-1.195-1.251-2.19-3.371-3.115-5.376-4.224-.881-.497-1.095-1.137-1.423-2.062-.967-2.716-1.337-5.575-2.176-8.32-.327-1.024-1.209-1.465-2.091-1.863-1.479-.668-2.888-1.365-2.83-3.313 0-.128-.085-.257-.156-.37-.768-1.21-1.992-2.262-.683-3.94.328-.427-.355-1.294-.725-1.892-.512-.825-.669-1.65-.426-2.617.426-1.635.312-3.3-.014-4.949a2.59 2.59 0 0 0-.654-1.266c-1.108-1.138-1.82-2.56-2.488-3.983-.91-1.962-.157-3.782.597-5.546.355-.796.968-.399 1.138.128.896 2.845 3.712 3.882 5.632 5.646 1.621 1.494 4.366 1.309 6.614.256 1.635-.767 2.93-2.105 4.509-2.901 2.872-1.451 4.125-3.898 4.892-6.755.526-1.991 1.949-3.371 3.314-4.793.127-.127.299-.327.412-.312 1.693.426 2.845-.825 4.182-1.408 3.925-1.692 7.722-1.337 11.62.114 3.043 1.138 5.887 2.645 8.803 4.068 1.593.782 3.002.767 4.58-.1 4.182-2.29 6.713-5.575 7.083-10.454.256-3.285.384-6.556.512-9.841.072-2.404-.74-4.652-.938-6.998-.172-2.02-.172-2.076 1.607-1.251 3.713 1.706 7.68 2.617 11.534 3.854 1.664.526 3.3.24 4.921-.214 1.323-.37 2.546-.341 3.798.312 1.066.569 2.205.527 3.27-.1 1.252-.74 2.376-.653 3.486.342 1.124 1.023 2.46 1.393 4.011 1.152 2.531-.412 5.006.171 7.524.413 3.414.312 6.841 1.266 10.34.455 1.465-.355 3.044.185 4.58-.114 3.385-.669 6.912-.711 10.041-2.418.654-.341 1.351-.37 2.047-.27 3.74.498 6.884-.668 9.572-3.285.669-.668 1.451-1.251 2.247-1.806 1.309-.939 2.489-1.579 4.395-1.066 2.333.64 4.864-.058 7.254-.611 5.774-1.338 10.951-4.097 16.1-6.898 2.745-1.494 5.291-3.427 8.476-4.067.953-.185 1.65-.94 2.29-1.693 1.167-1.422 2.375-2.816 3.47-4.281.469-.64.982-.881 1.764-.796 2.389.24 4.58-.355 6.641-1.608.698-.426 1.437-.881 2.233-1.052 2.489-.513 4.266-2.034 5.66-3.997 1.266-1.777 2.901-2.687 5.077-2.731 1.124-.029 2.205-.199 2.503-1.621.085-.484.582-.711 1.01-.683 4.509.299 8.106-2.147 11.919-3.94.725-.341 1.407-.697 2.118-1.038.049.055.107.126.163.197" fill="#f4900c"/><g fill="#5c913b"><path d="M184.519 314.994c.185.867-.114 1.023-1.039.753-5.049-1.422-9.529-3.697-12.672-8.092-1.04-1.407-1.707-3.029-2.105-4.75-.185-.825-.03-1.266.967-1.024 5.845 1.451 10.51 4.608 13.795 9.7a6.465 6.465 0 0 1 1.054 3.413M304.967 315.975c-.298-1.579.114-3.029.91-4.309 3.272-5.162 7.993-8.306 13.895-9.798 1.04-.257 1.067.298.897 1.052-.725 3.356-2.603 6.001-5.205 8.135-3.073 2.503-6.614 4.039-10.496 4.92M318.479 319.246c-.1.555-.441.968-.839 1.309-4.181 3.826-8.974 5.945-14.763 5.39-1.436-.143-2.745-.754-3.953-1.621-.64-.442-.598-.74-.014-1.238 2.105-1.806 4.537-2.959 7.182-3.641 3.627-.953 7.31-1.195 11.037-.583.482.057.937.128 1.35.384M176.91 318.549c3.925.057 8.306.867 12.203 3.47.71.469 1.89.995 1.82 1.692-.085.811-1.28 1.195-2.134 1.565-2.389 1.053-4.835 1.024-7.325.441-3.713-.896-7.083-2.474-9.799-5.247-.328-.341-.825-.725-.654-1.195.157-.37.768-.341 1.18-.426 1.353-.271 2.704-.3 4.709-.3M192.426 313.087c0 1.338-.171 2.618-.626 3.854-.285.725-.597.839-1.238.37-2.02-1.507-3.228-3.555-4.053-5.86-1.365-3.811-2.005-7.694-1.024-11.691.341-1.394.497-1.423 1.479-.399 3.642 3.871 5.121 8.564 5.462 13.726M296.96 312.605c.399-4.808 1.849-9.473 5.448-13.255 1.038-1.109 1.237-1.081 1.507.399 1.124 5.86.057 11.279-3.555 16.085-.555.74-1.394 1.849-2.19 1.635-.939-.256-.896-1.635-1.052-2.618-.144-.64-.1-1.309-.158-2.246M265.272 321.479c.455 7.836-3.257 13.469-8.59 18.531-1.706-6.144 1.31-15.587 8.59-18.531M232.817 340.195c-5.148-5.006-8.93-10.283-8.732-17.579.029-1.081.384-1.109 1.209-.611 4.977 2.973 7.225 7.524 7.78 13.085.156 1.579.142 3.185-.257 5.105M284.401 313.031c.953 2.745.839 5.504.285 8.278-.668 3.413-2.02 6.5-4.622 8.946-1.28 1.195-1.479 1.166-2.148-.498-.838-2.09-.753-4.223-.227-6.342.952-3.769 2.859-7.026 5.689-9.685.185-.199.383-.37.597-.526.1-.059.214-.088.426-.173M204.9 312.918c4.736 3.17 8.064 10.866 6.94 15.645-.214.938-.399 2.218-1.209 2.46-.754.227-1.494-.882-2.062-1.58-3.983-4.835-4.991-10.31-3.669-16.525M284.871 333.255c4.636.285 8.633 1.949 11.719 5.561 1.01 1.166.939 1.266-.583 1.693-3.84 1.052-7.423.085-10.88-1.537-1.92-.91-3.668-2.047-5.22-3.498-.64-.583-.626-.939.228-1.28 1.508-.583 3.073-.968 4.736-.939M204.586 333.284a11.099 11.099 0 0 1 4.353.811c1.322.526 1.38.682.327 1.579-2.944 2.589-6.342 4.309-10.211 5.02-1.92.37-3.811.341-5.703-.214-1.478-.413-1.52-.498-.512-1.693 2.332-2.816 5.405-4.366 8.889-5.205a12.889 12.889 0 0 1 2.857-.298M286.863 345.031c-5.462 2.645-13.427 2.475-17.338-3.612-.54-.881-.412-1.166.54-1.394 6.486-1.494 11.948.426 16.798 5.006M202.567 345.087c2.973-3.17 6.543-4.863 10.695-5.447 1.978-.27 3.925-.171 5.86.341 1.365.328 1.394.413.627 1.55-2.688 3.94-6.543 5.361-11.136 5.078-2.05-.099-4.054-.497-6.046-1.522M222.464 331.975c-.058 1.251-.27 2.248-.64 3.257-.313.797-.654.882-1.309.328-2.375-1.978-3.954-4.494-5.091-7.339-1.166-2.887-2.091-5.831-1.565-9.017.071-.399.071-.953.399-1.066.468-.185.725.37 1.01.64 3.128 3.086 5.773 6.442 6.868 10.808.128.498.185.995.257 1.521.042.37.057.698.07.868M266.951 332.033c-.014-2.077.626-4.025 1.565-5.888 1.451-2.859 3.485-5.305 5.789-7.552.683-.64.981-.698 1.195.327.469 2.219.071 4.366-.526 6.471-1.081 3.783-2.774 7.225-5.789 9.913-1.095.981-1.209.925-1.721-.441-.37-.91-.499-1.864-.513-2.83M276.366 351.915c-2.83.199-5.702.299-8.534-.498-3.853-1.108-6.272-3.84-8.02-7.31-.257-.497-.286-.796.44-.796 6.7.014 12.018 2.774 16.03 8.05.084.085.113.228.17.355 0 .028-.03.085-.086.199M212.779 352.029c.867-1.778 2.005-2.859 3.229-3.854 3.668-3.029 7.822-4.893 12.686-4.864.825 0 1.251.058.725 1.024-2.46 4.893-6.329 7.58-11.862 7.666-1.507.057-3.03.028-4.778.028M289.507 324.551c-1.877-2.774-2.02-5.717-1.293-8.746.754-3.257 2.404-6.059 4.594-8.561.61-.698.91-.583 1.293.142 1.039 1.891 1.166 3.883.854 5.974-.655 4.279-2.518 7.92-5.448 11.191M195.882 306.702c4.423 3.84 7.865 12.615 4.068 17.693-4.949-3.769-7.267-13.881-4.067-17.692M188.743 333.199c-2.005-.058-4.353-.285-6.414-1.608-1.309-.839-1.294-.952-.156-1.92 2.56-2.247 5.588-2.531 8.76-2.062 2.418.37 4.766 1.066 7.14 1.679.797.213.783.497.328 1.052-1.066 1.195-2.502 1.721-3.982 2.161-1.722.498-3.5.698-5.677.698M300.231 333.199c-2.546-.058-4.906-.328-7.125-1.394a4.243 4.243 0 0 1-.711-.355c-.711-.413-1.706-.896-1.664-1.693.043-.725 1.18-.61 1.849-.782 3.086-.811 6.144-1.749 9.386-1.494 1.991.156 3.713.91 5.22 2.19 1.138.968 1.153 1.081-.142 1.92-2.119 1.352-4.509 1.55-6.813 1.608"/><path d="M256.426 349.226c-3.555-.867-7.14-1.721-10.695-2.617a4.53 4.53 0 0 0-2.047 0c-3.57.925-7.14 1.749-10.738 2.56 2.248-1.778 4.808-2.915 7.836-3.826-3.953-1.366-7.608-2.646-11.59-4.04 1.422-.213 2.345.228 3.284.484 3.74.968 7.495 1.778 11.264 2.49 1.621.312 3.142-.215 4.665-.527 4.537-.881 9.031-2.048 13.54-3.186-4.266 1.777-8.661 3.157-13.313 4.75 2.96.94 5.533 2.021 7.794 3.912"/></g><path d="M366.564 158.066c.113-.071.241-.156.298.029.03.029-.085.114-.127.171a2.4 2.4 0 0 0-.171-.2" fill="#ec8001"/></svg>