<svg xmlns="http://www.w3.org/2000/svg" viewBox="0 0 512 512"><path d="M0 384c0 31.418 25.473 56.889 56.889 56.889H455.11C486.53 440.889 512 415.416 512 384v-28.445H0V384z" fill="#002b7f"/><path d="M0 355.555h512v-56.889H0v56.889z" fill="#f9e814"/><path d="M136.064 215.566l-22.286-16.199-22.3 16.2 8.518-26.212-22.3-16.185h27.563l8.519-26.211 8.504 26.211h27.563l-22.3 16.185 8.519 26.211zm-79.175-76.7l-16.725 12.146 6.386-19.655-16.725-12.146h20.679l6.386-19.655 6.386 19.655h20.665l-16.725 12.146 6.387 19.655c-.003 0-16.714-12.146-16.714-12.146zM455.11 71.111H56.89C25.472 71.111 0 96.582 0 128v170.666h512V128c0-31.418-25.473-56.889-56.889-56.889" fill="#002b7f"/><g fill="#fff"><path d="M122.297 173.17l-8.518-26.211-8.505 26.211H77.71l22.3 16.199-8.519 26.197 22.287-16.185 22.3 16.185-8.519-26.197 22.286-16.199h-27.548zM83.94 119.211H63.275l-6.386-19.655-6.387 19.655H29.84l16.711 12.147-6.386 19.655 16.725-12.147L73.6 151.012l-6.386-19.654L83.94 119.21z"/></g></svg>