<svg xmlns="http://www.w3.org/2000/svg" viewBox="0 0 511.999 511.999"><path d="M455.111 71.112H56.894c-31.417 0-56.889 25.473-56.889 56.89v255.997c0 31.416 25.472 56.888 56.889 56.888H455.11C486.527 440.887 512 415.416 512 384V128c-.001-31.417-25.471-56.889-56.889-56.889z" fill="#00247d"/><path d="M270.224 256v-28.856l-100.977-70.699H94.882L237.06 256h33.165z" fill="#eee"/><path d="M270.224 235.832L156.86 156.445h-24.789l138.153 96.739v-17.352z" fill="#cf1b2b"/><path d="M115.199 156.445L0 238.449v17.55h47.387l142.193-99.555-74.381.001z" fill="#eee"/><path d="M152.38 156.445L10.444 256h24.561l142.178-99.555H152.38z" fill="#cf1b2b"/><path d="M237.072 71.112L94.895 170.668h74.366l100.963-70.7V71.114h-33.151z" fill="#eee"/><path d="M249.447 71.112l-142.163 99.556h24.788l138.153-96.74v-2.815h-20.778z" fill="#cf1b2b"/><path d="M9.431 96.647l132.794 92.95v-18.93h47.331L48.314 71.757c-16.227 2.455-30.197 11.77-38.883 24.89z" fill="#eee"/><path d="M13.785 90.905l128.441 90.03v-10.268h10.154L24.589 81.184a57.243 57.243 0 0 0-10.804 9.721z" fill="#cf1b2b"/><path d="M270.224 128.001h-99.555V71.112H99.56v56.89H.005v71.11H99.56V256h71.11v-56.889h99.555v-71.11z" fill="#eee"/><g fill="#cf1b2b"><path d="M156.447 256h-42.666V71.112h42.666V256z"/><path d="M270.224 184.889H.005v-42.666h270.219v42.666z"/></g><g fill="#fff"><path d="M395.424 167.576l11.547-8.391h-14.279l-4.408-13.567-4.409 13.567h-14.279l11.548 8.391-4.409 13.583 11.547-8.391 11.548 8.39-4.406-13.582zM431.857 178.119l13.967-2.959-13.042-5.816 1.494-14.194-9.557 10.61-13.028-5.816 7.126 12.374-9.557 10.594 13.966-2.958 7.139 12.358 1.493-14.193zM461.021 203.176l13.966 2.944-9.57-10.595 7.11-12.374-13.027 5.831-9.571-10.58 1.521 14.193-13.027 5.831 13.966 2.93 1.521 14.194 7.111-12.374zM477.29 237.308l11.591 8.335-4.48-13.554 11.505-8.463-14.279.086-4.48-13.553-4.337 13.596-14.279.071 11.591 8.335-4.337 13.596 11.505-8.45zM478.433 275.564l7.153 12.345 1.479-14.194 13.953-2.986-13.057-5.789 1.479-14.194-9.544 10.624-13.041-5.789 7.154 12.345-9.529 10.624 13.952-2.986zM463.676 310.351l1.479 14.194 7.154-12.359 13.952 2.973-9.544-10.61 7.14-12.359-13.042 5.803-9.544-10.61 1.479 14.193-13.041 5.803 13.967 2.972zM436.112 337.096l-4.352 13.596 11.505-8.433 11.591 8.335-4.465-13.554 11.505-8.434-14.265.057-4.465-13.554-4.366 13.582-14.265.057 11.577 8.348zM400.261 349.593l-9.514 10.638 13.953-3.015 7.183 12.33 1.436-14.193 13.952-3.03-13.056-5.745 1.436-14.208-9.514 10.639-13.056-5.745 7.18 12.329zM344.717 178.119l-13.966-2.959 13.041-5.816-1.493-14.194 9.557 10.61 13.028-5.816-7.127 12.374 9.558 10.594-13.966-2.958-7.139 12.358-1.493-14.193zM315.556 203.176l-13.966 2.944 9.571-10.595-7.111-12.374 13.027 5.831 9.572-10.58-1.521 14.193 13.027 5.831-13.966 2.93-1.522 14.194-7.11-12.374zM299.279 237.308l-11.591 8.335 4.48-13.554-11.505-8.463 14.278.086 4.48-13.553 4.338 13.596 14.279.071-11.592 8.335 4.338 13.596-11.505-8.45zM298.141 275.564l-7.154 12.345-1.478-14.194-13.953-2.986 13.057-5.789-1.48-14.194 9.545 10.624 13.04-5.789-7.153 12.345 9.529 10.624-13.953-2.986zM312.896 310.351l-1.479 14.194-7.153-12.359-13.953 2.973 9.544-10.61-7.139-12.359 13.041 5.803 9.544-10.61-1.479 14.193 13.042 5.803-13.968 2.972zM340.461 337.096l4.353 13.596-11.505-8.433-11.591 8.335 4.465-13.554-11.505-8.434 14.265.057 4.465-13.554 4.366 13.582 14.265.057-11.578 8.348zM376.309 349.593l9.514 10.638-13.953-3.015-7.182 12.33-1.437-14.193-13.952-3.03 13.056-5.745-1.436-14.208 9.514 10.639 13.056-5.745-7.18 12.329z"/></g></svg>