<svg xmlns="http://www.w3.org/2000/svg" viewBox="0 0 512 512"><path d="M495.337 87.775c-10.295-10.295-24.517-16.663-40.225-16.663H56.889C25.472 71.111 0 96.583 0 128v256c0 15.708 6.368 29.93 16.663 40.225 10.295 10.295 24.517 16.663 40.225 16.663H455.11C486.528 440.889 512 415.417 512 384V128c0-15.708-6.368-29.93-16.663-40.225z" fill="#fbde4a"/><path d="M56.889 71.111C25.472 71.111 0 96.583 0 128v256c0 15.708 6.368 29.93 16.663 40.225L369.778 71.111H56.889z" fill="#009543"/><path d="M142.222 440.889h312.889C486.528 440.889 512 415.417 512 384V128c0-15.708-6.368-29.93-16.663-40.225L142.222 440.889z" fill="#dc241f"/></svg>