<svg xmlns="http://www.w3.org/2000/svg" viewBox="0 0 512 512"><path d="M512 384c0 31.418-25.473 56.889-56.889 56.889H56.89C25.472 440.889 0 415.417 0 384V128c0-31.418 25.472-56.889 56.889-56.889H455.11C486.53 71.111 512 96.584 512 128v256z" fill="green"/><g fill="#ffe000"><path d="M434.19 279.623l2.417 8.29h8.35l-6.6 5.078 2.433 8.079-6.599-5.091-6.599 4.85 2.418-7.836-6.599-5.078h8.135l2.644-8.292zM412.416 187.121l-9.657 8.918.967-13.099-12.999-1.991 10.838-7.424-6.543-11.393 12.573 3.84 4.821-12.217 4.821 12.217 12.573-3.84-6.543 11.393 10.838 7.424-12.999 1.991.968 13.099-9.658-8.918z"/></g><path d="M360.889 262.685l-9.658 8.918.968-13.1-12.999-1.99 10.838-7.424-6.543-11.393 12.572 3.84 4.822-12.216 4.821 12.216 12.572-3.84-6.542 11.393 10.822 7.424-12.985 1.99.968 13.1-9.656-8.918zM470.896 255.892l-9.656 8.918.968-13.099-13-1.991 10.838-7.424-6.542-11.392 12.572 3.84 4.821-12.218 4.822 12.218 12.572-3.84-6.542 11.392 10.823 7.424-12.985 1.991.968 13.099-9.659-8.917z" fill="#ffe000"/><g fill="#ffe000"><path d="M411.577 366.521l-9.656 8.918.968-13.113-12.999-1.977 10.838-7.439-6.543-11.393 12.572 3.854 4.822-12.231 4.821 12.231 12.572-3.854-6.542 11.393 10.824 7.424-12.985 1.991.967 13.112-9.659-8.916zM289.635 312.035c-30.934 0-56.035-25.116-56.035-56.05 0-30.961 25.102-56.035 56.035-56.035 11.776 0 22.67 3.669 31.688 9.885-12.885-14.791-31.802-24.178-52.964-24.178-38.841 0-70.315 31.488-70.315 70.343 0 38.826 31.473 70.329 70.315 70.329 21.162 0 40.092-9.387 52.992-24.178-9.017 6.201-19.94 9.884-31.716 9.884M170.282 170.666c0 39.95-32.37 72.334-72.32 72.334-39.965 0-72.333-32.384-72.333-72.334s32.37-72.334 72.333-72.334c39.95 0 72.32 32.384 72.32 72.334"/></g><path d="M101.604 227.555H85.475s5.291-5.006 8.064-9.529c2.758-4.537 13.823-28.615 12.586-50.602-1.251-21.959 2.531-18.304 3.782-5.178 1.267 13.099 0 39.993-2.26 47.815-2.262 7.794-4.78 12.771-1.508 13.795 3.271 1.01 4.281 3.698 4.281 3.698h-8.816z" fill="#802000"/><path d="M73.629 126.862h9.827l20.168 19.172-6.813-12.359 6.201-3.854 1.863-15.302 16.881-1.508-2.261 8.577 8.817 4.537-9.827 14.35 21.419-2.02-4.025 12.615h11.591l4.793 15.873-28.232-2.275 14.109 10.595v16.127l-29.739-27.975-2.502 11.848-1.764 11.832-6.528 1.963-1.55-9.018-6.798 11.349h-9.074l8.817-31.986-45.355 8.547 12.09-14.62 23.935-4.792-21.162-11.08 31.246 5.533L57.5 126.863h16.129z" fill="green"/></svg>