<svg xmlns="http://www.w3.org/2000/svg" viewBox="0 0 512 512"><path d="M492.531 85.172c-10.004-8.748-23.089-14.061-37.42-14.061H56.889C25.472 71.111 0 96.583 0 128v256c0 17.085 7.544 32.4 19.469 42.828 10.004 8.748 23.089 14.061 37.42 14.061h398.222C486.528 440.889 512 415.417 512 384V128c0-17.085-7.544-32.4-19.469-42.828z" fill="#012a87"/><path d="M455.111 71.111H188.444L0 225.18V384c0 17.085 7.544 32.4 19.469 42.828L492.531 85.172c-10.004-8.748-23.088-14.061-37.42-14.061z" fill="#eeeded"/><path d="M56.889 71.111C25.472 71.111 0 96.583 0 128v97.18L188.444 71.111H56.889z" fill="#f9d90f"/><path d="M156.444 285.131c-37.973 0-68.864-30.891-68.864-68.864 0-37.988 30.891-68.878 68.864-68.878s68.864 30.891 68.864 68.878c0 37.974-30.89 68.864-68.864 68.864m78.408-59.079l16.967-9.785-16.967-9.799c-4.437-35.769-32.853-64.185-68.622-68.622l-9.785-16.953-9.785 16.953c-35.769 4.437-64.185 32.853-68.622 68.622l-16.967 9.799 16.967 9.785c4.437 35.769 32.853 64.185 68.622 68.622l9.785 16.953 9.785-16.953c35.768-4.437 64.184-32.853 68.622-68.622"/><path d="M183.664 216.26l13.611-23.58h-27.221l-13.611-23.566-13.611 23.566h-27.221l13.611 23.58-13.611 23.566h27.221l13.611 23.58 13.611-23.58h27.221l-13.611-23.566z" fill="#dc171d"/></svg>