<svg xmlns="http://www.w3.org/2000/svg" viewBox="0 0 512 512"><path d="M512 384c0 31.418-25.473 56.889-56.889 56.889H56.89C25.472 440.889 0 415.417 0 384V128c0-31.418 25.472-56.889 56.889-56.889H455.11C486.53 71.111 512 96.584 512 128v256z" fill="#eee"/><g fill="#ce1a24"><path d="M147.782 302.279s-4.792 14.435-3.598 28.857c1.209 14.435 34.859 13.226 42.084 12.033 7.196-1.209 12.017-1.209 7.196 4.821-4.793 5.988-10.809 15.601-9.6 26.439 1.195 10.795-14.435 3.599-19.229-7.239-4.821-10.795-9.642-10.795-18.047-15.601-8.42-4.808-16.57-16.939-21.647-24.064-6.015-8.392-9.613-14.422 22.842-25.246M364.203 302.279s4.82 14.435 3.612 28.857c-1.18 14.435-34.872 13.226-42.084 12.033-7.225-1.209-12.017-1.209-7.225 4.821 4.835 5.988 10.838 15.601 9.643 26.439-1.209 10.795 14.421 3.599 19.214-7.239 4.835-10.795 9.628-10.795 18.047-15.601 8.434-4.808 16.555-16.939 21.646-24.064 6.004-8.392 9.617-14.422-22.853-25.246"/></g><path d="M384.711 325.12c-13.241 6.03-40.69 9.999-51.726 10.838-14.578 1.123-16.811 4.807-16.811 8.42s15.616 6 24.035 4.792c8.42-1.18 18.047 1.209 3.612 9.629-14.435 8.405-33.663 20.451-51.712 25.245-18.034 4.821-36.068 3.612-36.068 3.612s-18.033 1.209-36.081-3.612c-18.02-4.793-37.262-16.839-51.684-25.245-14.435-8.42-4.821-10.809 3.599-9.629 8.42 1.209 24.05-1.18 24.05-4.793s-2.247-7.296-16.839-8.42c-11.007-.838-38.485-4.807-51.697-10.837-5.575-2.531-7.225-7.196-7.225-7.196s0 2.417 1.209 9.614c1.208 7.21 7.225 12.017 8.42 19.242 1.208 7.196 1.208 10.822 7.21 12.018 6.017 1.208 19.243 2.417 19.243 2.417s0 10.795-2.403 16.825c-2.404 6.001 6.016 16.839 38.47 28.857 32.47 12.047 46.906 10.838 63.73 10.838 16.84 0 31.26 1.209 63.73-10.838 32.485-12.017 40.876-22.855 38.486-28.857-2.404-6.03-2.404-16.825-2.404-16.825s13.213-1.209 19.214-2.417c6.045-1.196 6.045-4.822 7.225-12.018 1.209-7.225 7.211-12.032 8.42-19.242 1.195-7.197 1.195-9.614 1.195-9.614s-1.623 4.665-7.198 7.196" fill="#f6e4be"/><path d="M203.094 388.864c13.34 4.466 68.736 16.071 102.201 1.209 10.822-4.85 14.421 9.586 4.807 13.226-7.552 2.816-37.276 7.196-50.502 7.196-13.226 0-49.521-4.195-60.118-8.405-6.017-2.431-3.6-15.657 3.612-13.226" fill="#bcad96"/><path d="M332.942 149.575H179.044v21.633h153.899v-21.633z" fill="#666"/><g fill="#ce1a24"><path d="M256 347.989V163.996h-76.956v91.393c0 45.71 28.857 63.744 43.278 74.538C236.757 340.75 256 347.99 256 347.99M256 347.989V163.996h76.942v91.393c0 45.71-28.856 63.744-43.292 74.538C275.242 340.75 256 347.99 256 347.99"/></g><g fill="#1353b4"><path d="M180.949 274.631c6.656 31.844 29.183 46.165 41.372 55.31C236.756 340.75 256 347.99 256 347.99s19.229-7.239 33.65-18.048c12.245-9.145 34.731-23.466 41.401-55.31H180.95zM332.942 220.515H179.044v-56.519h153.899v56.519z"/></g><g fill="#eace23"><path d="M256 94.265v58.922s-18.034 0-37.276 2.404c-19.243 2.404-39.68 8.405-39.68 8.405L161.01 124.33l-3.599 1.195-6.016-15.63 12.017-3.599 2.404 7.212 4.808-1.21-1.195-7.21 12.017-2.404 1.309 7.609 4.708-1.294v-8.733l12.017-1.195 1.01 7.524 8.619-1.507v4.807h2.404v-6.016h6.016v4.821h3.599v-6.016h6.016v4.807l4.821-1.195V95.46l12.004-1.195v7.211h6.016v-7.211l6.015.001zM256 94.265v58.922s18.034 0 37.276 2.404c19.243 2.404 39.666 8.405 39.666 8.405l18.048-39.666 3.613 1.195 6-15.63-12.017-3.599-2.417 7.212-4.793-1.21 1.195-7.21-12.017-2.404-1.323 7.609-4.707-1.294.014-8.733-12.018-1.195-1.024 7.524-8.605-1.507v4.807h-2.403v-6.016h-6.002v4.821h-3.626v-6.016h-6.001v4.807l-4.808-1.195V95.46l-12.017-1.195v7.211h-6.016v-7.211H256z"/></g><g fill="#5e520d"><path d="M256 113.494a4.798 4.798 0 0 0-4.808 4.792v12.033h9.614v-12.033a4.796 4.796 0 0 0-4.806-4.792M183.154 120.989a4.794 4.794 0 0 0-3.441 5.873l3.028 11.62 9.301-2.403-3.028-11.634a4.807 4.807 0 0 0-5.86-3.456M328.817 120.989c2.59.668 4.11 3.285 3.457 5.873l-3.044 11.62-9.301-2.403 3.029-11.634a4.807 4.807 0 0 1 5.86-3.456"/></g><g fill="#eace23"><path d="M210.319 184.462s1.195-2.403 0-6.016c-1.081-3.229-6.016-6.016-6.016-6.016s-4.935 2.787-6.017 6.016c-1.209 3.613 0 6.016 0 6.016-6.016-2.403-8.42 3.613-8.42 7.212 0 3.612 4.821 6.016 4.821 6.016s0-4.821 2.39-4.821c2.417 0 2.417 4.821 2.417 4.821-4.808 0 0 3.613 0 3.613l-3.613 6 4.808-1.208c-1.195 3.613 3.612 7.225 3.612 7.225s4.808-3.613 3.599-7.225l4.821 1.209-3.612-6.001s4.807-3.613 0-3.613c0 0 0-4.821 2.403-4.821 2.404 0 2.404 4.821 2.404 4.821s4.808-2.404 4.808-6.016c0-3.599-2.404-9.615-8.405-7.212M313.743 184.462s1.195-2.403 0-6.016c-1.067-3.229-6.017-6.016-6.017-6.016s-4.921 2.787-6.016 6.016c-1.209 3.613 0 6.016 0 6.016-6.016-2.403-8.405 3.613-8.405 7.212 0 3.612 4.792 6.016 4.792 6.016s0-4.821 2.404-4.821 2.404 4.821 2.404 4.821c-4.808 0 0 3.613 0 3.613l-3.599 6 4.793-1.208c-1.195 3.613 3.626 7.225 3.626 7.225s4.808-3.613 3.599-7.225l4.821 1.209-3.612-6.001s4.807-3.613 0-3.613c0 0 0-4.821 2.403-4.821 2.404 0 2.404 4.821 2.404 4.821s4.821-2.404 4.821-6.016c0-3.599-2.417-9.615-8.419-7.212M262.016 184.462s1.195-2.403 0-6.016c-1.081-3.229-6.016-6.016-6.016-6.016s-4.935 2.787-6.016 6.016c-1.195 3.613 0 6.016 0 6.016-6.017-2.403-8.405 3.613-8.405 7.212 0 3.612 4.807 6.016 4.807 6.016s0-4.821 2.404-4.821 2.404 4.821 2.404 4.821c-4.808 0 0 3.613 0 3.613l-3.613 6 4.821-1.208c-1.208 3.613 3.6 7.225 3.6 7.225s4.807-3.613 3.612-7.225l4.807 1.209-3.612-6.001s4.807-3.613 0-3.613c0 0 0-4.821 2.403-4.821 2.404 0 2.404 4.821 2.404 4.821s4.821-2.404 4.821-6.016c-.002-3.599-2.405-9.615-8.42-7.212"/></g><path d="M269.226 248.178l6.001-8.42-16.824 4.82 4.807-15.644-7.211 4.807-7.211-4.807 4.807 15.645-16.839-4.821 6.017 8.42-6.017 7.21 16.839-6-6.016 16.81 8.42-4.792 8.42 4.793-6.016-16.811 16.824 6-6-7.21z" fill="#fff"/><g fill="#eace23"><path d="M269.226 313.103s-3.612 0-3.612 3.612c0 3.626 3.612 4.808 3.612 4.808s-2.417 3.598-6.016 3.598c-3.613 0-4.808-3.598-4.808-3.598s4.808-1.18 4.808-3.6-3.613-3.612-3.613-3.612 0-6.016-3.598-6.016c-3.613 0-3.613 6.016-3.613 6.016s-3.599 1.195-3.599 3.613 4.808 3.599 4.808 3.599-1.209 3.598-4.808 3.598c-3.612 0-6.016-3.598-6.016-3.598s3.599-1.18 3.599-4.808c0-3.612-3.599-3.612-3.599-3.612 0-4.808-4.807-2.418-4.807-2.418l3.598 25.259h28.859l3.599-25.259s-4.794-2.39-4.794 2.417M241.565 281.814s-3.599 0-3.599 3.641c0 3.599 3.599 4.808 3.599 4.808s-2.404 3.598-6.001 3.598c-3.613 0-4.821-3.598-4.821-3.598s4.82-1.21 4.82-3.6c0-2.432-3.612-3.64-3.612-3.64s0-5.988-3.612-5.988c-3.599 0-3.599 5.987-3.599 5.987s-3.613 1.21-3.613 3.642c0 2.389 4.808 3.599 4.808 3.599s-1.195 3.598-4.808 3.598c-3.598 0-6.016-3.598-6.016-3.598s3.613-1.21 3.613-4.808c0-3.641-3.613-3.641-3.613-3.641 0-4.779-4.807-2.389-4.807-2.389l3.612 25.259h28.856l3.6-25.259c0-.001-4.807-2.39-4.807 2.389M296.875 281.814s-3.599 0-3.599 3.641c0 3.599 3.599 4.808 3.599 4.808s-2.389 3.598-6.016 3.598c-3.599 0-4.808-3.598-4.808-3.598s4.808-1.21 4.808-3.6c0-2.432-3.599-3.64-3.599-3.64s0-5.988-3.613-5.988c-3.598 0-3.598 5.987-3.598 5.987s-3.613 1.21-3.613 3.642c0 2.389 4.808 3.599 4.808 3.599s-1.195 3.598-4.808 3.598c-3.599 0-6.001-3.598-6.001-3.598s3.599-1.21 3.599-4.808c0-3.641-3.599-3.641-3.599-3.641 0-4.779-4.821-2.389-4.821-2.389l3.612 25.259h28.856l3.613-25.259c.001-.001-4.82-2.39-4.82 2.389"/></g></svg>