<svg xmlns="http://www.w3.org/2000/svg" viewBox="0 0 512.057 512.057"><path d="M512.058 384.029c0 31.417-25.473 56.889-56.89 56.889H56.947c-31.417 0-56.888-25.473-56.888-56.89v-256c0-31.417 25.472-56.888 56.888-56.888H455.17c31.417 0 56.889 25.473 56.889 56.889v256z" fill="#00247d"/><path d="M486.173 80.441L0 255.545v.569l486.186 175.473C501.718 421.447 512 403.954 512 384.03v-256c0-19.954-10.297-37.434-25.828-47.588" fill="#bd1721"/><path d="M501.675 416.64c6.485-9.245 10.367-20.466 10.367-32.611v-256c0-12.174-3.897-23.395-10.41-32.654L56.148 255.829 501.675 416.64z" fill="#eee"/><g fill="#d89500"><path d="M312.946 277.887s10.909 1.722 15.488 0c4.594-1.72 10.325-3.44 10.325-3.44l8.605 9.158 3.441-8.59 6.315 1.721-.582 2.873s5.177 1.721 5.177 2.29-.569 5.177-.569 5.177l16.058 4.011 2.872-6.314s10.312 9.173 14.35 9.742c3.997.583 16.043 0 18.347 1.721 2.29 1.735 7.452 5.163 7.452 5.163s40.733 9.187 40.733 9.771c0 .569-.57 3.996-4.012 3.428-3.441-.57-56.22-10.91-63.118-13.2-6.884-2.29-17.195 2.29-17.195 2.29v-6.3l-17.793-5.162-1.721 4.594h-4.594l-1.721 4.011-6.3-1.721 1.137-8.605s-5.148-.569-7.452 1.153c-2.304 1.72-5.731 3.44-5.731 3.44s-3.442-6.3-8.605-9.755c-5.175-3.444-10.907-7.456-10.907-7.456"/><path d="M371.399 308.295s76.871 6.3 81.479 6.869c4.58.582 4.58 4.607 0 5.177-4.608.583-81.48-5.746-81.48-5.746s-3.44 3.456-3.44 4.607c0 1.138 30.392 1.722 30.392 1.722l-2.859 2.859s12.047.568 16.64-.57c4.58-1.152 5.163-4.58 5.747-3.44.568 1.152-3.457 5.73-2.304 5.73 1.137 0 13.767-1.152 13.767-1.152l-9.174 4.594 13.768 5.162s-6.884 1.722-9.756 1.722c-2.859 0-7.466-1.153-7.466-1.153s4.607 6.315 8.05 7.467c0 0-11.478-2.873-13.213-4.594-1.706-1.721 3.441 8.605-6.869-.569-10.325-9.188-10.325-4.594-10.325-4.594l3.428 5.746s-8.59 0-14.336-3.456c-5.747-3.441-12.615-5.162-17.778-6.884-5.177-1.72-9.756-3.44-13.767-5.73-4.012-2.29-12.63-7.467-10.91-12.616 1.722-5.162 8.606-3.441 8.606-3.441s4.594-1.153 8.035-.583c3.441.583 5.746-4.01 9.187-2.29s4.578 5.163 4.578 5.163"/></g><path d="M451.214 219.364c6.869 1.721 19.499-.569 25.23-1.721 5.746-1.153 9.756-2.873 12.046-.57 2.304 2.29 1.735 3.442 1.735 3.442s3.428 1.721 3.428 3.441v1.722s2.303 4.01 0 5.73c0 0 2.303 6.316-1.722 7.467 0 0 2.873 5.149-1.706 5.731l-1.735 5.731-37.86-6.315.584-24.658z" fill="#fff"/><path d="M451.214 219.364c6.869 1.721 19.499-.569 25.23-1.721 5.746-1.153 9.756-2.873 12.046-.57 2.304 2.29 1.735 3.442 1.735 3.442s3.428 1.721 3.428 3.441v1.722s2.303 4.01 0 5.73c0 0 2.303 6.316-1.722 7.467 0 0 2.873 5.149-1.706 5.731l-1.735 5.731-37.86-6.315.584-24.658z" fill="none" stroke="#66757f" stroke-width=".1875" stroke-miterlimit="10"/><path d="M410.468 281.899c-.228.526-4.58 11.477-6.884 13.199-2.304 1.72-7.466 5.73-9.756 6.3-2.29.582-2.29 2.872-2.29 2.872s-5.163 2.873-6.884 4.011c-1.735 1.167-3.457 1.167 1.152 1.735 4.58.569 5.731 1.153 5.731 1.153s-3.44 3.427-2.29 5.162c1.138 1.707 5.79 2.02 11.464 3.428 4.594 1.152 9.188-.569 9.188-2.29s-1.153-6.3-1.153-5.731c0 .568 3.441-1.722 6.884-3.457 3.441-1.721 5.162-5.731 4.011-8.605-1.152-2.858 0-7.452 2.873-12.615s-.569-11.462-3.442-12.046c-2.873-.569-7.467 4.011-8.605 6.884" fill="#ffc220"/><path d="M365.725 233.714c5.162-3.441 9.756-10.325 9.756-10.325s-1.735-2.29-8.035.569c-6.3 2.872-14.35 6.315-17.792 2.303-5.263-6.172 2.432-13.937 8.618-16.071 18.362-6.3-7.466-13.184 14.337-22.94 9.145-4.096 26.965-6.884 30.407-8.605s8.605-8.035 8.605-7.452c0 .568.583 4.58.583 4.58s12.615-3.442 16.626-5.163c4.025-1.721 7.466-6.3 7.466-6.3l1.138 4.011s10.34-1.152 14.35-4.011c4.011-2.872 6.883-.582 6.883-.582s11.478-2.873 16.058-5.163c4.594-2.29 10.909-3.441 9.756.569-1.137 4.011-8.035 24.106-10.909 28.117-2.858 4.012-2.29 10.325-5.73 13.199-3.442 2.859-26.966 16.058-26.966 16.058s11.478.582 16.072 2.303c4.58 1.722 2.29 7.453 2.29 7.453s1.152 2.29 1.152 4.58c0 2.304-2.872 2.872-2.872 2.872s2.872 1.153 2.29 3.442c-.57 2.303-5.732 2.303-4.58 2.303s5.73 4.58 5.162 6.3c-.582 1.722-9.756-2.29-13.781-1.137 0 0 .597 2.859 4.025 4.58 3.441 1.721 3.441 2.872.582 4.594-2.872 1.72-5.76 4.01-2.872 4.01 2.872 0 4.011 1.722 2.29 2.873s6.884 0 1.721 4.012c-5.149 4.025-6.315 4.025-6.315 4.025s5.178 6.3 2.873 6.883c-2.304.569-9.757-3.456-9.757-3.456s1.722 5.746 4.594 7.481c0 0-6.315 3.997-9.742-.582 0 0 .568 6.315 2.29 8.035 0 0-3.442.569-6.315-1.721 0 0-2.304 4.58-1.153 7.452l-5.731-9.187-8.035-2.275-4.594 8.02s-2.872-5.745-2.29-10.908c.569-5.149 0-12.615-.582-15.487-.57-2.873-7.44-10.894-13.17-12.047-5.76-1.137-16.654-1.137-16.654-1.137l-13.199-16.071" fill="#9c3900"/><path d="M336.455 265.841s12.06 4.011 16.071-4.025c4.011-8.021-9.756-10.893-14.919-8.021-5.148 2.873-9.173 8.021-8.59 12.046.57 4.011 5.732 5.746 5.732 5.746l1.706-5.746z" fill="#ffc220"/><path d="M335.317 254.891l2.873 6.884h14.336s13.199-10.894 23.524-11.477c10.325-.57 17.777-5.732 6.315-6.315 0 0 15.474-6.87-1.153-5.732 0 0 10.894-7.452-3.456-4.593 0 0 12.629-8.605-4.011-4.58l1.721-6.315s-6.869 8.035-11.464 10.325c-4.593 2.303-18.93 9.187-22.386 10.325-3.427 1.152-2.859 2.872-3.427 5.746-.582 2.859-2.872 5.732-2.872 5.732" fill="#fff"/><path d="M335.317 254.891l2.873 6.884h14.336s13.199-10.894 23.524-11.477c10.325-.57 17.777-5.732 6.315-6.315 0 0 15.474-6.87-1.153-5.732 0 0 10.894-7.452-3.456-4.593 0 0 12.629-8.605-4.011-4.58l1.721-6.315s-6.869 8.035-11.464 10.325c-4.593 2.303-18.93 9.187-22.386 10.325-3.427 1.152-2.859 2.872-3.427 5.746-.582 2.859-2.872 5.732-2.872 5.732z" fill="none" stroke="#66757f" stroke-width=".1875" stroke-miterlimit="10"/><path d="M348.829 249.188c.54 1.095-.299 2.645-1.906 3.44-1.593.797-3.343.556-3.897-.54-.54-1.108.299-2.644 1.906-3.44 1.593-.812 3.342-.57 3.897.54"/></svg>