<svg xmlns="http://www.w3.org/2000/svg" viewBox="0 0 512.043 512.043"><path d="M157.583 298.688l98.46 142.222 98.46-142.223h-196.92z" fill="#fff"/><path d="M146.19 213.355l-1.494-.313 56.719-11.76-48.241-34.376 56.561 12.644-32.441-51.769 47.786 35.129-11.676-61.269 31.743 52.282L256 92.469l10.866 61.454 31.73-52.282-11.676 61.269 47.786-35.129-32.426 51.769 56.561-12.644-48.256 34.375 56.719 11.761-1.48.313h47.716l84.707-122.354c-10.425-12.146-25.87-19.869-43.136-19.869H56.889c-17.266 0-32.698 7.723-43.136 19.87L98.46 213.354h47.73z" fill="#141414"/><path d="M367.303 213.07l-56.72-11.761 48.242-34.389-56.547 12.658 32.426-51.77-47.785 35.13 11.676-61.27-31.744 52.267L256 92.494l-10.851 61.44-31.744-52.266 11.676 61.268-47.786-35.128 32.426 51.768-56.547-12.657 48.241 34.389-56.719 11.76 1.494.313h219.62l1.493-.311z" fill="#fcd116"/><path d="M146.19 213.355H98.46l59.079 85.334H354.46l59.079-85.334H146.19z" fill="#0072c6"/><g fill="#ce1126"><path d="M413.582 213.355l-59.078 85.334-98.46 142.222h199.111c31.417 0 56.889-25.472 56.889-56.889v-256c0-14.15-5.205-27.065-13.753-37.02l-84.709 122.353zM98.46 213.355L13.753 91.001C5.204 100.956 0 113.87 0 128.021v256c0 31.418 25.473 56.889 56.889 56.889H256l-98.46-142.223-59.08-85.332z"/></g></svg>