<svg xmlns="http://www.w3.org/2000/svg" viewBox="0 0 512 512"><path d="M512 384c0 31.418-25.473 56.889-56.889 56.889H56.89C25.472 440.889 0 415.417 0 384V128c0-31.418 25.472-56.889 56.889-56.889H455.11C486.53 71.111 512 96.584 512 128v256z" fill="#d01c3a"/><path d="M56.889 71.111C25.472 71.111 0 96.582 0 128v256c0 31.418 25.473 56.889 56.889 56.889h113.777V71.11H56.89z" fill="#0020a8"/><path d="M341.334 440.889H170.666V71.11h170.666V440.89z" fill="#fedf00"/><path d="M327.68 279.339c-2.261-6.713-8.021-5.433-8.021-3.2 0 0-7.666-5.533-1.906-15.701 0 0 11.178 1.322 4.792-7.31 0 0 9.571-5.433 9.899-16.612.312-11.192-12.459-18.218-17.891-13.738 0 0-.313-4.48-2.56-4.48-2.233 0-3.513 2.872-3.513 2.872s.328-7.339 5.12-11.491c4.793-4.153 14.691-15.346-6.088-21.746-20.764-6.387-21.717 6.727-18.53 9.6 0 0-5.107 2.858-10.852 2.546-5.76-.313-1.621-7.012-.327-9.913 1.28-2.872.327-13.085-6.728-12.771-7.011.327-7.339 3.2-9.885 4.152-2.56.953-5.12.313-5.12.313s-2.56.64-5.12-.313c-2.546-.952-2.872-3.826-9.899-4.152-7.04-.313-7.992 9.899-6.712 12.771 1.28 2.901 5.432 9.6-.328 9.913-5.746.312-10.866-2.547-10.866-2.547 3.2-2.872 2.248-15.986-18.531-9.6-20.765 6.4-10.866 17.593-6.073 21.747 4.793 4.152 5.12 11.491 5.12 11.491s-1.28-2.872-3.527-2.872c-2.233 0-2.546 4.48-2.546 4.48-5.433-4.48-18.22 2.546-17.907 13.738.328 11.179 9.913 16.612 9.913 16.612-6.4 8.632 4.792 7.31 4.792 7.31 5.747 10.168-1.92 15.7-1.92 15.7 0-2.232-5.746-3.512-8.007 3.2-2.275 6.713 4.494 8.947 4.494 8.947-8.947 11.52-3.2 22.371 5.432 28.758 8.633 6.4 25.245 5.447 33.55 6.072 8.32.64 9.913 4.793 9.913 4.793-6.387 6.087 3.2 10.88 3.2 10.88 1.906 6.386 9.586-.64 9.586-.64l5.432 4.792 5.433-4.792s7.666 7.026 9.571.64c0 0 9.6-4.793 3.2-10.88 0 0 1.608-4.153 9.913-4.793 8.306-.626 24.93.328 33.565-6.072 8.618-6.387 14.365-17.238 5.432-28.758.006 0 6.761-2.234 4.5-8.946" fill="#c7b37f"/><path d="M253.44 208.711h-42.183v42.183h42.183V208.71z" fill="#d01c3a"/><g fill="#fedf00"><path d="M226.603 234.752l-12.53 12.943 1.962 2.232 10.568-11.662v-3.513zM247.211 218.298s5.561 1.45 5.561-3.513c0-4.964-3.327-4.964-4.437-4.964-1.124 0-6.244.812-6.4 2.873-.156 2.091 2.005 3.371.839 4.494-1.153 1.108-4.295 3.868-4.295 3.868l1.862 2.233s2.674-2.233 4.793-5.305c1.066-1.579.256-5.376 1.266-5.604 3.044-.626 4.168.811 4.011 1.934-.171 1.109-2.076 2.232-2.076 2.232l-1.124 1.752z"/></g><g fill="#fff"><path d="M236.829 240.498s.796 5.916 3.668 6.228c2.873.328 3.84-9.187 8.548-9.187 4.721 0 5.205 8.235 0 9.515l-.711-2.389s3.356-3.356.952-3.854c-2.389-.469-3.512 2.56-3.826 3.854-.328 1.28-2.248 4.622-5.12 4.622-4.793 0-5.433-4.395-6.159-7.78-.709-3.398 2.648-1.01 2.648-1.01M228.266 240.498s-.796 5.916-3.683 6.228c-2.873.328-3.827-9.187-8.534-9.187-4.721 0-5.205 8.235 0 9.515l.711-2.389s-3.356-3.356-.952-3.854c2.388-.469 3.512 2.56 3.826 3.854.327 1.28 2.232 4.622 5.12 4.622 4.792 0 5.432-4.395 6.144-7.78.725-3.398-2.632-1.01-2.632-1.01"/><path d="M233.159 210.489l12.302 15.672-6.144 16.768s-2.488-1.437-6.158-1.437c-3.684 0-6.556 1.437-6.556 1.437l-6.543-16.939 13.099-15.501z"/></g><g fill="#fedf00"><path d="M234.183 215.894l8.59 10.325-4.353 13.17-4.152-1.28-.086-22.215zM231.352 215.894l-8.59 10.325 4.353 13.17 4.152-1.28.086-22.215zM211.257 254.72v26.211c0 17.267 12.602 19.642 23.44 17.267 8.732-1.934 18.744 0 18.744 0V254.72h-42.184z"/></g><g fill="#d01c3a"><path d="M234.695 298.24c.285-.071.569-.114.854-.171v-43.306h-6.4v44.217c1.862-.086 3.726-.356 5.546-.74M248.334 297.529v-42.823h-6.4v42.639a56.099 56.099 0 0 1 6.4.184M222.763 298.382v-43.647h-6.387v40.405c1.807 1.635 4.012 2.674 6.387 3.243"/></g><path d="M258.56 208.711h42.183v42.183H258.56V208.71z" fill="#fedf00"/><g fill="#d01c3a"><path d="M270.066 250.894h-6.4V208.71h6.4v42.183zM282.851 250.894h-6.4V208.71h6.4v42.183zM295.623 250.894h-6.387V208.71h6.386v42.183z"/></g><path d="M300.8 254.72v26.211c0 17.267-12.601 19.642-23.439 17.267-8.732-1.934-18.745 0-18.745 0V254.72H300.8z" fill="#fedf00"/><g fill="#d01c3a"><path d="M264.946 261.746l3.996-3.2h4.95v2.574s7.04-.114 12.785-.698c5.76-.597 7.524 3.727 5.76 4.835-1.748 1.124.313 5.448 0 7.51-.327 2.09-4.152 5.12-3.2 3.37.953-1.763 0-6.556 0-6.556s-1.108 3.684-2.076 4.793c-.967 1.124-4.309 1.28-3.029.312 1.267-.952 2.547-3.028 1.423-4.152-1.109-1.109-6.115-1.28-6.343-.796-.198.483-1.152 6.058-1.792 6.4-.654.312-1.451-.484-.968-2.233.484-1.777 0-4.792 0-4.792s-3.356-.172-3.2 1.266c.172 1.436 1.608 2.076 1.294 3.2-.341 1.109-2.404 2.56-2.56.64-.171-1.92-3.356-3.2-1.92-4.153 1.436-.952 2.873-2.46 2.873-2.46s-1.793-.412-3.073-2.176c-1.28-1.749-2.361-1.607-4.921-1.607-1.279 0 .001-2.077.001-2.077M264.946 280.931l3.996-3.2h4.95v2.56s7.04-.1 12.785-.697c5.76-.583 7.524 3.726 5.76 4.85-1.748 1.124.313 5.432 0 7.509-.327 2.076-4.152 5.106-3.2 3.37.953-1.763 0-6.555 0-6.555s-1.108 3.668-2.076 4.792c-.967 1.124-4.309 1.28-3.029.313 1.267-.953 2.547-3.044 1.423-4.153-1.109-1.109-6.115-1.28-6.343-.796-.198.484-1.152 6.059-1.792 6.4-.654.299-1.451-.484-.968-2.248.484-1.763 0-4.792 0-4.792s-3.356-.156-3.2 1.28c.172 1.436 1.608 2.076 1.294 3.186-.341 1.124-2.404 2.574-2.56.64-.171-1.906-3.356-3.2-1.92-4.152s2.873-2.46 2.873-2.46-1.793-.413-3.073-2.162c-1.28-1.763-2.361-1.607-4.921-1.607-1.279-.002.001-2.078.001-2.078"/></g><g fill="#af9167"><path d="M208.058 301.382c0 .47 23.495 6.855 26.126 7.353 2.645.469 1.679 5.903-1.835 5.575-3.528-.299-20.935-4.139-23.168-5.263-2.247-1.122-1.124-7.665-1.124-7.665M240.341 309.291s7.04.953 13.099 1.209c6.072.241 10.226-.285 10.226-.285l4.324 5.86s-7.509.811-12.629.811c-5.106 0-13.426-.811-13.426-.811l-1.594-6.784zM271.075 309.291s10.069-1.835 16.156-3.271c6.059-1.436 14.052-4.309 16.143-4.636 2.062-.313 3.512 3.441 4.139 3.953l.626.527s-10.539 4.935-15.645 6.386c-5.12 1.436-21.419 3.684-21.419 3.684s-2.332-6.217 0-6.643"/></g></svg>