<svg xmlns="http://www.w3.org/2000/svg" viewBox="0 0 512 512"><g fill="#00247d"><path d="M455.111 71.111H270.224v2.816l-.003.003v26.039l-80.652 56.476h.009l-10.167 7.117 90.811 63.582V256h-33.166L142.224 189.6 47.383 256H0v128c0 31.416 25.473 56.889 56.889 56.889H455.11C486.527 440.889 512 415.416 512 384V128c0-31.416-25.473-56.889-56.889-56.889zM94.889 170.666l10.149-7.106-10.163-7.115h20.324l121.868-85.334H56.89C25.472 71.111 0 96.584 0 128v110.446l95.215-67.779h-.326z"/></g><path fill="#cf1b2b" d="M160.82 176.577l109.402 76.607v-17.352L173.215 167.9z"/><path fill="#eee" d="M132.099 170.666h24.769L35 256h12.382l94.842-66.403L237.056 256h33.166v-2.816L160.82 176.577l12.395-8.677 97.007 67.932v-8.688l-90.812-63.582 10.166-7.117h-.009l80.654-56.478V73.93L132.07 170.666H107.28l142.165-99.555h-12.376L115.2 156.445H94.876l10.163 7.115-10.15 7.106h.326L0 238.446V256h10.438z"/><g fill="#cf1b2b"><path d="M156.868 170.666h-24.77L10.439 256H35zM107.28 170.666h24.789L270.22 73.93l.003-.002v-2.816h-20.779z"/></g><g fill="#eee"><path d="M24.584 81.183l127.794 89.483h37.177L48.309 71.756a56.544 56.544 0 0 0-23.725 9.426zM9.426 96.646l132.796 92.95v-8.661L13.78 90.904a56.99 56.99 0 0 0-4.354 5.742z"/></g><path d="M13.78 90.904l128.442 90.031v-10.269h10.155L24.584 81.182a57.162 57.162 0 0 0-10.804 9.722z" fill="#cf1b2b"/><g fill="#eee"><path d="M156.445 256h14.221v-56.889h99.556V184.89H156.445zM270.222 142.223V128h-99.556V71.111h-14.221v71.112zM99.555 256h14.223v-71.111H0v14.222h99.555zM113.778 71.111H99.555V128H0v14.223h113.778z"/></g><path fill="#cf1b2b" d="M113.778 256h42.667v-71.111h113.777v-42.667H156.445v-71.11h-42.668v71.11H0v42.667h113.777z"/><g fill="#288548"><path d="M403.944 208.179c.79.014 1.518.077 2.127.18l-1.955-5.016-.172.002v4.834zM403.944 215.757a19.17 19.17 0 0 1 1.945-.116c1.007 0 2.08.064 3.078.151l-2.308-5.926c-.698.174-1.651.283-2.715.301v5.59zM413.014 227.946c.586 1.173 1.165 1.926 1.631 2.418l-2.276-5.842-.845 1.898a3.42 3.42 0 0 1 1.49 1.526zM399.414 209.166c0-.355.775-.662 1.941-.839v-5.085a9.398 9.398 0 0 1-1.291-.205c-.025.397-1.359.742-3.244.884v4.155c1.168.231 1.944.631 1.944 1.088 0 .465-.776.868-1.944 1.101v8.182l.65-1.513s1.77-.442 3.885-.809v-6.11c-1.166-.174-1.941-.485-1.941-.849z"/><path d="M385.18 198.815v5.36c1.538.222 2.582.633 2.582 1.116 0 .475-1.045.888-2.582 1.113v4.102c2.976.138 5.181.639 5.181 1.257 0 .605-2.205 1.115-5.181 1.255v8.71c2.895.098 7.014-.08 9.07-.185-.009-.07-.019-.138-.019-.21v-10.87c-2.165-.052-3.872-.607-3.872-1.298 0-.677 1.709-1.232 3.872-1.284v-3.9c-2.545-.062-4.53-.47-4.53-.955 0-.497 1.985-.895 4.53-.955v-6.369c0-.782.583-1.422 1.294-1.422.725 0 1.294.64 1.294 1.422v6.427c1.161.086 2.098.25 2.665.456.201-.181.894-.336 1.87-.431v-3.342c0-.445.242-.82.587-1.053l-8.994-23.085-8.917 22.873c.641.08 1.15.608 1.15 1.268zM382.577 213.042c-1.782-.048-3.34-.23-4.395-.49l-2.132 5.47c2.59 1.583 5.33 3.145 6.528 3.45v-8.43zM382.577 206.586c-.718 0-1.403-.039-2.027-.106l-1.695 4.346c.999-.181 2.289-.303 3.723-.343v-3.897zM382.577 201.279l-1.07 2.749a19.82 19.82 0 0 1 1.07-.03v-2.72zM374.186 228.586s2.574-1.294 5.818 1.949c2.017 2.018 5.052 1.514 6.096-.1-1.859-.804-3.538-1.899-4.161-3.145-1.077-2.188-4.909-4.805-6.874-6.742l-3.891 9.98 1.192 3.058c1.339-.4 3.745-1.619 1.82-5zM385.439 236.565l.162.256a3.848 3.848 0 0 1 1.699-2.401l.555-.355c1.405-.896 3.164-.757 4.421.2.084-.13.182-.246.279-.365-2.051-.834-3.542-2.328-4.132-1.431-.783 1.168-2.52 2.337-4.623 2.653.653.305 1.23.788 1.639 1.443zM408.92 236.346a3.895 3.895 0 0 1 2.629-1.574c-.333-.584-.498-1.01-.498-1.01s-.935 1.257-2.6 1.802l.381.609c.035.056.056.117.088.173zM401.405 233.231c-.45-.441-.694-.762-.694-.762s-.215.109-.561.274c.396.15.754.367 1.075.63.06-.047.116-.098.18-.142zM379.538 235.712l.555-.355c.255-.162.525-.283.798-.38a7.634 7.634 0 0 1-1.527-.572s-1.115 1.77-2.815 3.241h1.444c.285-.77.8-1.46 1.545-1.933z"/></g><g fill="#fff"><path d="M372.876 253.824l-1.111-.203c-2.225 1.916-6.499 4.728-12.476 4.728-2.125 0-3.954-.473-5.526-1.18-.182.426-.295.546-.295.546s-3.23-1.294-5.178-3.897c-.541-.72-.979-1.693-1.319-2.76-.415-.67-.626-1.114-.626-1.114s-.64 4.522.654 7.765c1.293 3.228 7.111 7.111 12.942 7.111 5.818 0 10.354-2.589 10.354-2.589-1.294 1.949-.64 5.818-.64 5.818 1.92-.627 4.522-3.229 4.522-3.229-1.308 3.229 2.59 7.125 2.59 7.125 0-2.454 1.71-4.718 3.277-6.28-.015-.063-.029-.138-.044-.194-.638-2.602-7.124-11.647-7.124-11.647zM379.135 242.324l-.792-1.25a3.87 3.87 0 0 1-.35-3.429h-1.444c-1.205 1.042-2.7 1.935-4.312 1.935-.033 0-.066-.004-.1-.004a3.824 3.824 0 0 0-.548 1.952c0 2.133 1.748 3.868 3.882 3.868h.139a24.501 24.501 0 0 1 3.525-3.072zM401.224 233.373a3.829 3.829 0 0 0-1.075-.63c-1.128.532-3.7 1.66-5.255 1.66-.839 0-1.623-.212-2.339-.502-.098.119-.195.235-.279.365.359.274.684.604.94 1.009l1.38 2.19c.099.155.169.319.244.481 1.063.356 2.164 1.009 3.279 1.898a18.025 18.025 0 0 1 2.213-1.383c-1.066-1.691-.644-3.884.892-5.089z"/></g><g fill="#6488bd"><path d="M385.603 236.821l-.163-.256a3.83 3.83 0 0 0-1.638-1.442 7.28 7.28 0 0 1-2.91-.147 3.792 3.792 0 0 0-.798.38l-.555.355a3.851 3.851 0 0 0-1.544 1.933 3.865 3.865 0 0 0 .35 3.428l.792 1.25a24.69 24.69 0 0 1 6.59-3.355 3.864 3.864 0 0 1-.124-2.146zM400.334 238.461a25.801 25.801 0 0 1 1.666-.821l6.129 2.776.064-1.946a3.83 3.83 0 0 1 .727-2.122c-.032-.058-.052-.118-.087-.174l-.382-.609a5.01 5.01 0 0 1-2.563.148c-2.097-.425-3.65-1.663-4.483-2.48-.064.043-.121.093-.181.14a3.853 3.853 0 0 0-.89 5.088z"/></g><g fill="#297f47"><path d="M393.218 235.274a3.883 3.883 0 0 0-.94-1.009c-1.258-.957-3.017-1.096-4.422-.2l-.555.355a3.844 3.844 0 0 0-1.698 2.401c-.162.7-.123 1.444.12 2.148a26.74 26.74 0 0 1 7.22-1.33c.613-.028 1.25.089 1.897.306-.075-.162-.145-.326-.244-.481l-1.378-2.19zM411.549 234.774a3.895 3.895 0 0 0-2.629 1.573 3.833 3.833 0 0 0-.728 2.123l-.063 1.946.997.451s.218 1.517 1.145 3.792c.484.24 1.019.391 1.591.41l.654.028a3.877 3.877 0 0 0 3.996-3.755l.085-2.588c.007-.145-.016-.284-.026-.427-2.654-.105-4.275-2.24-5.022-3.553z"/></g><path d="M391.541 276.472c4.268-4.378 14.076-12.1 17.58-10.342 3.898 1.92 3.243 5.817-.654 9.685a4.747 4.747 0 0 1-.83.657h2.108c2.612-3.517 5.041-9.22 4.561-11.654a5.614 5.614 0 0 0-.181-.62c-3.996-5.3-6.294-11.014-6.294-11.014 0 5.817 4.538 12.942 4.538 12.942-3.898-.653-9.06-4.536-11.008-9.713-1.949-5.177-1.949-11.008-1.949-11.008-3.228 1.949-6.47 8.42-6.47 8.42-.495-7.34 1.612-11.34 5.18-13.981-1.116-.889-2.217-1.543-3.28-1.898-.648-.217-1.283-.333-1.896-.306a26.778 26.778 0 0 0-7.22 1.33 24.69 24.69 0 0 0-6.589 3.355 24.205 24.205 0 0 0-3.523 3.071c-1.41 1.498-2.08 2.612-2.08 2.612h3.882l-.654 2.573-8.42-.64-2.573 2.589 5.998 1.091 1.112.203s6.485 9.045 7.125 11.647c.015.058.028.132.043.194.477 2.065.984 7.068 2.775 10.808h8.72z" fill="#689f9e"/><path d="M409.121 266.13c-3.502-1.757-13.312 5.964-17.58 10.342h16.095c.313-.197.592-.416.832-.657 3.896-3.868 4.55-7.765.653-9.685z" fill="#481918"/><g fill="#fff"><path d="M368.785 351.705zM366.018 348.715zM418.665 350.09zM367.989 350.903zM360.615 340.641zM361.389 342.053zM366.95 349.786zM356.804 331.129zM359.705 338.805zM419.65 348.975c-.146.171-.291.34-.437.505.146-.165.29-.335.437-.505zM421.842 346.184c-.176.242-.35.489-.527.722.274-.362.545-.733.815-1.116l-.098.134c-.063.089-.127.172-.19.26zM421.096 347.189l.163-.211-.004-.004c-.053.071-.105.145-.159.215zM393.599 343.126c4.522 0 8.405 5.177 13.582 5.177 3.965 0 7.173-3.414 10.781-5.015l-9.207-10.304c-.749.26-1.49.426-2.229.426-4.522 0-8.405-4.522-12.927-4.522-4.536 0-8.42 4.522-12.943 4.522-1.054 0-2.109-.321-3.186-.804l-9.211 10.308c4.016 1.351 7.441 5.387 11.742 5.387 5.178.003 9.06-5.175 13.598-5.175zM392.944 315.293l-.043.047c.026-.002.054-.002.081-.006l-.038-.042zM423.61 327.743l4.876 5.27a53.236 53.236 0 0 1-1.545 4.108c1.461-3.421 2.691-7.354 3.546-11.872a61.153 61.153 0 0 1-1.19 5.118c-1.758-1.193-3.595-2.255-5.687-2.625zM364.63 346.977c.129.17.259.338.389.504-.129-.165-.256-.34-.384-.509l-.005.006zM422.071 299.761c-6.471 0-11.022 5.831-15.545 5.831-1.601 0-3.122-.572-4.62-1.307l12.324 13.32c2.287-1.469 4.572-2.953 7.187-2.953 3.13 0 6.955 2.817 9.928 4.637a69.781 69.781 0 0 1-.819 5.756c.786-4.231 1.245-8.967 1.245-14.282v-3.29a35.228 35.228 0 0 1-1.28-4.08c-2.547-1.802-5.161-3.632-8.42-3.632zM424.077 342.786zM426.905 337.202zM420.883 347.466zM422.945 344.591zM424.924 341.29zM426.005 339.185zM369.364 352.264l-.089-.084.089.084zM364.188 346.382c.128.177.257.353.386.525-.091-.12-.18-.248-.271-.37-.038-.053-.077-.102-.116-.154zM363.76 345.79c.088.124.176.245.264.366-.025-.035-.05-.074-.076-.109-.063-.086-.126-.168-.188-.257zM365.766 314.653c2.304 0 4.354 1.152 6.375 2.43l11.029-11.92c-.82.266-1.655.43-2.512.43-4.538 0-9.074-5.832-15.532-5.832-3.966 0-6.948 2.674-10.012 4.733a37.512 37.512 0 0 1-.996 2.98v3.289c0 6.825.753 12.7 1.992 17.766a67.466 67.466 0 0 1-1.481-8.529c3.072-1.65 7.567-5.347 11.137-5.347zM361.811 342.786c.124.208.249.408.373.61-.124-.202-.25-.402-.373-.61zM361.85 328.207c-1.814.668-3.444 1.793-5.044 2.93a53.749 53.749 0 0 0 2.143 5.985 53.202 53.202 0 0 1-1.545-4.107l4.446-4.808zM365.766 286.82c5.178 0 9.074 5.831 14.236 5.831 5.178 0 9.06-5.177 13.597-5.177 4.522 0 8.405 5.177 13.582 5.177s9.06-5.831 14.236-5.831c3.134 0 6.997 2.856 9.98 4.671.118-.274.244-.542.374-.812v-14.206h-77.654v14.21c.227.47.435.946.627 1.427 3.072-1.69 7.5-5.29 11.022-5.29zM362.249 343.502l.077.127c-.025-.039-.049-.08-.072-.12a.027.027 0 0 1-.005-.006zM363.029 344.717l-.084-.126c.133.201.266.4.4.596-.035-.05-.07-.105-.105-.156a27.486 27.486 0 0 1-.211-.314z"/></g><g fill="#3ab1d6"><path d="M417.962 343.289c-3.61 1.601-6.817 5.015-10.78 5.015-5.178 0-9.06-5.176-13.583-5.176-4.536 0-8.42 5.176-13.596 5.176-4.302 0-7.727-4.038-11.743-5.388l-3.626 4.058c.127.169.255.344.383.509a40.561 40.561 0 0 0 1 1.234l.124.144c.27.318.539.625.809.925l.157.177c.294.323.588.637.88.94.08.082.16.16.24.24a47.294 47.294 0 0 0 1.047 1.036l.088.084c.205.195.41.392.613.577 7.125 6.471 22.969 12.288 22.969 12.288s15.843-5.818 22.968-12.288a42.638 42.638 0 0 0 2.635-2.625l.118-.126c.182-.2.365-.403.547-.61.147-.165.292-.335.438-.505.147-.174.295-.345.444-.524a44.568 44.568 0 0 0 1.003-1.262c.054-.07.107-.145.16-.215l-3.295-3.684zM362.184 343.396l-.003.001.068.106.005.007-.07-.114zM363.029 344.717zM363.947 346.049c.025.035.05.074.077.109l.164.224c.038.053.077.102.116.154a82.386 82.386 0 0 1-.356-.487zM421.842 346.184c.063-.088.127-.17.19-.259-.063.087-.127.171-.19.259zM421.418 314.653c-2.615 0-4.9 1.483-7.188 2.952l9.38 10.137c2.092.37 3.93 1.43 5.686 2.625.451-1.612.85-3.318 1.19-5.118l.039-.205a70.32 70.32 0 0 0 .819-5.756c-2.972-1.82-6.798-4.636-9.926-4.636zM393.599 328.889c4.522 0 8.405 4.522 12.927 4.522.739 0 1.48-.166 2.229-.426l-15.773-17.65c-.026.003-.053.003-.08.006L377.47 332.61c1.077.481 2.132.804 3.186.804 4.523-.002 8.405-4.524 12.943-4.524zM372.141 317.084c-2.021-1.279-4.071-2.431-6.375-2.431-3.57 0-8.064 3.697-11.136 5.347.339 3.075.845 5.91 1.481 8.529l.03.122a59.34 59.34 0 0 0 .664 2.487c1.6-1.137 3.23-2.262 5.044-2.93l10.292-11.124zM407.181 292.651c-5.177 0-9.06-5.177-13.582-5.177-4.536 0-8.42 5.177-13.596 5.177-5.163 0-9.06-5.831-14.237-5.831-3.522 0-7.95 3.601-11.022 5.291.822 2.073 1.319 4.24 1.319 6.361 0 1.97-.378 4.024-.95 6.023 3.065-2.059 6.046-4.733 10.013-4.733 6.458 0 10.994 5.832 15.532 5.832.857 0 1.692-.164 2.512-.429l9.775-10.565 8.961 9.686c1.498.735 3.019 1.308 4.62 1.308 4.523 0 9.074-5.832 15.545-5.832 3.259 0 5.873 1.83 8.42 3.632-.403-1.647-.662-3.312-.662-4.922 0-2.333.592-4.723 1.567-6.98-2.982-1.817-6.845-4.672-9.979-4.672-5.177 0-9.06 5.831-14.236 5.831z"/></g><path d="M423.61 327.743l-9.38-10.138-12.324-13.32-8.961-9.686-9.775 10.565-11.029 11.92-10.291 11.124-4.446 4.806a53.202 53.202 0 0 0 1.545 4.107 48.868 48.868 0 0 0 .757 1.683c.06.126.119.255.179.38.239.497.484.982.731 1.456.115.22.233.433.35.649a48.582 48.582 0 0 0 .846 1.496c.124.208.25.408.374.61l.07.114.073.12c.203.327.41.647.617.962l.084.126.211.316c.035.05.07.105.105.156.139.202.276.406.416.602.063.088.127.172.19.258.118.164.235.326.355.487.09.123.18.252.272.372.017.023.035.05.053.072l.002-.001.003-.005 3.627-4.058 9.211-10.307 15.431-17.268.043-.047.037.042 15.773 17.65 9.207 10.304 3.294 3.685.004.004.001.001c.018-.024.035-.05.054-.073.177-.233.352-.48.527-.722l.189-.259.098-.134c.14-.197.277-.4.416-.602.134-.196.266-.395.4-.596a49.232 49.232 0 0 0 1.134-1.807c.142-.24.282-.487.422-.733.143-.25.284-.505.424-.763.117-.215.235-.429.35-.649.247-.473.492-.958.731-1.456.06-.125.119-.252.178-.379.246-.523.487-1.055.722-1.603.011-.028.024-.054.035-.08a52.535 52.535 0 0 0 1.545-4.109l-4.88-5.272z" fill="#288548"/><g fill="#74948f"><path d="M330.869 343.706c.263.036.475.059.597.059.285 0 1.219-.258 2.28-.484l2.425-3.452c-.555.012-1.056.034-1.462.059-1.38.08-2.761.386-4.129.858l.887 2.375-.598.585zM359.575 356.311a17.067 17.067 0 0 0-1.41-1.848h-.001a17.168 17.168 0 0 1 1.411 1.848zM366.414 363.83c0 .281-.114.554-.28.833.176-.273.29-.55.29-.824 0-2.582-5.794-5.174-5.828-5.19l.001.003c0 .002 5.817 2.604 5.817 5.178zM355.983 368.445c-.06-.005-.108-.016-.164-.023.056.007.103.018.163.023zM310.181 361.124c2.112-.14 3.875.121 5.114.121 1.934 0 4.522-2.589 2.574-3.229-.671-.229-.624-.934-.128-1.777a19.862 19.862 0 0 1-2.22-2.151c-1.61 2.893-3.475 5.38-5.34 7.036zM328.877 348.942c-5.176-1.293-5.817-3.228-1.293-5.817 0 0 2.03.403 3.196.569l-1.268-2.543c-1.767.723-3.502 1.703-5.178 2.813-.099.806-.609 3.296-.623 3.694-.065 1.826-.304 3.36-.636 4.67.209-.057.418-.108.626-.144 3.883-.639 10.353-1.948 5.177-3.242zM348.456 344.394l.004-.007c-.953-.945-2.061-1.895-3.295-2.708l-.033-.005a21.69 21.69 0 0 1 3.324 2.72z"/><path d="M351.524 365.124c-3.869-1.294-6.471 1.293-10.34 1.948-3.898.64-10.368.64-14.236 0-3.898-.653-.654-1.293.64-1.948 1.293-.654 6.47 0 9.06.653 2.588.64 9.06-.653 11.007-1.308 1.934-.64 9.06.654 9.06-.64s-12.956-1.294-12.316-1.949c.654-.626 7.78-.626 10.367-.626 2.574 0 4.523.626 3.869-1.309-.64-1.934-3.214-2.589-1.92-3.242.98-.49-.301-2.12-2.123-3.145a13.41 13.41 0 0 1-1.012-.478 6.149 6.149 0 0 0-.762-.246l-.962-.243c-.425 1.578-.816 6.706-2.909 6.706-2.602 0-3.897-3.228-3.242-5.177.326-.991.319-1.976.235-2.708-2.717-.127-4.684 1.276-4.116.127.137-.275.307-.546.494-.814-.784.225-1.56.556-2.175 1.037-.602.61-.91 1.064-.91 1.064.212-.421.532-.768.91-1.063a11.285 11.285 0 0 1 2.973-2.165c.119-.06.221-.11.334-.168.5-.463 1.047-.86 1.601-1.134 1.294-.64 1.294-1.934-1.949-3.882-1.795-1.08-1.573-2.361-.365-3.176-1.585-.343-2.86-.707-2.86-.707l-3.61 2.409c.413.003.772.054 1.028.182 1.28.64.654 2.59 2.574 3.23 1.948.653 2.602 1.293 1.308 3.242-1.308 1.949-2.602 3.869-2.602 3.869s-7.111 1.293-9.7 2.602c-2.589 1.294-7.765 3.242-1.934 3.882 5.818.64 14.236 3.23 12.928 3.883-1.294.64-9.06 0-11.634 0-2.603 0-7.765 1.294-9.074 1.294-1.294 0-5.162.653-3.214 1.948 1.92 1.28-2.602-.653-5.19-1.293-1.793-.455-5.16-1.539-5.733-2.591-.032-.007-.064-.01-.095-.017-.904-.224-1.538-.511-1.983-.841-.486.727-1.099 1.298-1.896 1.499-1.859.462-3.726-1.762-4.625-3.037-.576.774-.816 1.582-.546 2.39 1.28 3.883 10.353 1.294 14.236 2.59 3.882 1.293 7.111 3.882 9.7 3.882 2.602 0 6.471-.654 9.714 0 3.228.653 10.993-1.294 13.582-2.589 2.163-1.081 7.475.09 10.685.886-.154-.979-.269-2.159-2.272-2.827zm-14.235-5.187c-1.949-.626-5.178-3.868-5.178-3.868 2.603-.654 9.074.64 8.42 1.949-.653 1.293-1.293 2.573-3.242 1.92zM362.019 367.255zM361.014 367.604zM366.079 364.761a35.551 35.551 0 0 1-2.826 1.979c1.262-.583 2.312-1.264 2.826-1.979zM356.69 368.452c-.064.003-.121.002-.183.002.062 0 .12.001.183-.001zM359.546 368.01c-.166.04-.334.083-.497.117.164-.035.331-.077.497-.117zM362.945 366.88zM358.451 368.244c-.107.02-.216.04-.321.057.105-.017.212-.038.321-.057zM357.514 368.385c-.08.009-.158.018-.235.025.077-.008.155-.015.235-.025z"/></g><g fill="#cfdcd9"><path d="M317.87 358.016c1.949.64-.64 3.229-2.574 3.229-1.237 0-3.001-.26-5.114-.121-1.796 1.594-3.59 2.409-5.155 2.067.573 1.053 3.94 2.135 5.733 2.592 2.589.64 7.111 2.573 5.191 1.293-1.948-1.294 1.92-1.949 3.214-1.949 1.309 0 6.471-1.293 9.074-1.293 2.574 0 10.34.64 11.634 0 1.308-.654-7.112-3.243-12.928-3.883-5.831-.64-.654-2.589 1.934-3.882 2.589-1.309 9.7-2.603 9.7-2.603s1.294-1.92 2.602-3.869c1.294-1.948.64-2.588-1.308-3.242-1.92-.64-1.294-2.589-2.574-3.229-.255-.128-.614-.18-1.028-.182l-2.208 1.474-.654-.654.339-.481c-1.062.227-1.994.483-2.28.483-.123 0-.334-.022-.598-.059l-.055.054-.034-.067c-1.166-.166-3.196-.569-3.196-.569-4.522 2.589-3.882 4.522 1.294 5.817 5.177 1.294-1.294 2.603-5.176 3.243a6.28 6.28 0 0 0-.627.144c-.687 2.709-1.782 4.437-2.606 5.684 0 0-1.132-.465-2.725-1.774-.5.843-.546 1.548.125 1.777z"/><path d="M332.111 356.069s3.229 3.242 5.178 3.868c1.949.654 2.589-.626 3.242-1.92.654-1.308-5.817-2.602-8.42-1.948z"/></g><g fill="#3c4544"><path d="M345.94 351.416c-.081-.705-.235-1.175-.235-1.175s-1.695.003-3.388.488a6.73 6.73 0 0 0-.493.814c-.568 1.148 1.398-.255 4.116-.127zM353.58 353.082c-.706-.37-1.22-.718-1.404-.907-.122-.12-.222.055-.32.419.28.07.593.148.961.242.257.063.512.149.763.246zM354.592 353.56c1.822 1.025 3.102 2.655 2.123 3.145-1.294.654 1.28 1.309 1.92 3.242.654 1.934-1.294 1.31-3.869 1.31-2.589 0-9.714 0-10.367.625-.64.654 12.316.654 12.316 1.95 0 1.293-7.125 0-9.06.64-1.949.653-8.42 1.948-11.007 1.308-2.59-.654-7.765-1.309-9.06-.654-1.294.654-4.538 1.294-.64 1.949 3.868.64 10.34.64 14.236 0 3.869-.654 6.471-3.242 10.34-1.949 2.005.669 2.119 1.848 2.275 2.829v.001c.626.156 1.18.299 1.621.413.115.029.261.039.397.055.057.006.104.017.164.022.161.013.341.013.526.01l.183-.001c.187-.007.384-.022.589-.043a15.412 15.412 0 0 0 .851-.11c.106-.017.214-.037.321-.057.198-.036.394-.071.598-.116.164-.035.331-.078.497-.118.159-.039.315-.072.476-.116a22.8 22.8 0 0 0 .992-.29c.108-.035.215-.074.322-.11.229-.076.458-.155.683-.239.148-.055.292-.113.438-.172.165-.066.328-.133.488-.203.084-.036.174-.068.255-.106.018-.011.034-.024.053-.035a35.551 35.551 0 0 0 2.826-1.979l.009-.006c.02-.031.028-.061.047-.091.166-.28.28-.551.28-.833 0-2.574-5.817-5.177-5.817-5.177l-.002-.004c-.124-.727-.496-1.524-1.021-2.338a16.924 16.924 0 0 0-1.411-1.848c-1.259-.075-2.523-.459-3.571-.904zM343.104 344.416c3.242 1.949 3.242 3.243 1.949 3.883-.554.274-1.102.671-1.602 1.134 2.356-1.18 3.549-1.782 3.549-1.782s.597-1.776 1.456-3.259a21.63 21.63 0 0 0-3.324-2.72 33.212 33.212 0 0 1-2.392-.433c-1.21.816-1.431 2.099.364 3.177z"/></g><g fill="#288548"><path d="M333.408 343.762l.653.654 2.209-1.474 3.609-2.408s1.276.364 2.861.706a33.087 33.087 0 0 0 2.425.439c.657.09 1.292.15 1.84.15 2.574 0 3.882-.64 4.522-3.229.654-2.603-5.817 0-7.125.64-1.293.654-1.933-1.294-.64-1.934 1.294-.654 7.765-.654 9.06-2.602 1.294-1.92-3.242-3.869-3.242-3.869s1.949-3.896 0-5.176c-1.92-1.294-3.869 3.869-3.869 3.869s-.654-2.59-2.602-3.23c-1.92-.64-1.92 6.486-1.92 6.486s-1.949-2.603-3.243-1.949c-1.294.64 0 6.471 0 6.471l-1.774 2.524-2.425 3.453-.34.48zM325.636 341.826l2.603-3.229 1.272 2.553 1.268 2.543.034.067.055-.054.598-.586-.887-2.375-1.048-2.802s3.229 0 4.523-1.294-.654-2.574-3.243-2.574c-2.247 0-3.031-.5-3.62-2.35.449-.258.526-.521-.206-.739-.014-.053-.029-.097-.043-.152l-.163.099a7.157 7.157 0 0 0-.49-.1c-2.049-.345-2.468.587-2.222 1.728l-.367.22s.152-.031.396-.085c.253.982.956 2.084 1.538 2.66 1.095 1.084-.548 1.263-1.864 2.05.193 1.048.359 2.164.465 3.319a14.237 14.237 0 0 0 1.401 1.101zM301.054 363.831c.797-.201 1.409-.771 1.896-1.499-2.096-1.556.275-4.133 1.343-6.27.07-.142.144-.3.22-.46-.86-1.393-2.593-2.982-3.46-3.42-1.293-.64-1.948 1.95-1.948 1.95s-1.934-3.897-3.869-3.897c-1.949 0-2.602 5.178-2.602 5.178s-3.869 1.293-4.523 2.602c0 0 1.294 2.589 3.883 2.589s3.882-.654 3.882-.654.206.355.553.846c.897 1.274 2.766 3.498 4.625 3.035zM339.234 352.829s.307-.454.909-1.064c-.377.296-.698.642-.91 1.064zM347 347.653s-1.192.602-3.549 1.78l-.334.168a11.257 11.257 0 0 0-2.973 2.165c.614-.48 1.391-.812 2.175-1.037 1.692-.485 3.387-.488 3.387-.488s.154.47.235 1.175c.084.732.092 1.717-.235 2.708-.654 1.949.64 5.177 3.243 5.177 2.092 0 2.484-5.128 2.909-6.706.097-.364.197-.539.32-.419.183.189.697.538 1.403.908.304.16.644.321 1.013.477 1.049.445 2.312.829 3.571.903h.001c.837.049 1.67-.035 2.432-.339 3.228-1.294 3.228-5.176.64-7.111-2.603-1.949-8.42-1.309-8.42-1.309s0-2.574-1.934-3.229c-.864-.286-1.729.717-2.423 1.913l-.004.006c-.86 1.48-1.457 3.258-1.457 3.258z"/></g><g fill="#d1bea7"><path d="M347.454 282.391l.147.113-.147-.113zM341.185 293.295c-3.243-1.949-11.663-5.191-9.074-15.531.27-1.082 2.219-1.28 4.523-.825.252.05.502.127.752.207a51.52 51.52 0 0 1 1.01-1.701l-.45.374-.654-4.523s1.294-2.589 3.883-5.176c2.589-2.589 2.589-6.471 2.589-8.405v-3.243s-1.949-3.882-8.42-1.293-7.765 7.111-8.405 10.353c-.563 2.778.79 5.567-1.699 8.347 2.817.918 5.199 2.961 5.574 5.228.653 3.898 1.293 12.943.653 16.84-.15.885-.23 1.912-.28 3 .184.157.375.302.572.438 1.572.621 3.602.854 5.651.359.999-.503 2.04-1.3 3.111-2.505 0 0 .073.363.161.991.624-.45 1.227-.984 1.785-1.638 0 0 2.383 3.578 3.413 6.687-.753-3.225-2.398-6.592-4.695-7.984zM336 255.111c2.589-1.294 4.522-.64 2.589 1.309-1.935 1.92-5.192 0-2.589-1.309zM346.334 304.451c-.106 2.761-.595 7.789.626 10.699-.61-2.006-.611-6.415-.611-10.207-.001-.16-.009-.325-.015-.492zM347.049 281.09c.902-.757 2.519-2.219 3.841-3.975.116-.155.23-.297.341-.43-1.422 1.07-3.022 2.63-4.182 4.405z"/></g><path d="M343.76 280.368c.945.312 1.906.81 2.855 1.435.136-.24.28-.478.432-.712 1.16-1.775 2.76-3.335 4.183-4.405 1.239-.933 2.34-1.498 2.879-1.498 1.309 0 3.242.64 3.242.64H369s-3.243-10.354-14.236-10.354c-9.037 0-13.792 5.845-16.367 9.974a49.418 49.418 0 0 0-1.01 1.7c2.235.72 4.339 2.528 6.374 3.22z" fill="#937a61"/><g fill="#af987e"><path d="M356.063 298.471c0-2.121-.497-4.287-1.32-6.361-.19-.483-.4-.958-.626-1.427-1.58-3.285-3.955-6.214-6.516-8.18l-.147-.112a16.804 16.804 0 0 0-.839-.59c-.95-.623-1.911-1.122-2.855-1.435-2.034-.691-4.139-2.498-6.374-3.22a6.794 6.794 0 0 0-.752-.207c-2.304-.455-4.253-.256-4.523.825-2.589 10.34 5.831 13.582 9.074 15.531 2.296 1.393 3.942 4.759 4.697 7.985.26 1.104.412 2.186.45 3.173.007.165.015.332.015.49 0 3.793.002 8.202.612 10.208.015.048.027.101.042.146.654 1.934 1.949 3.883 2.574 1.934.404-1.195 2.781-5.11 4.541-9.756.366-.968.706-1.966.996-2.98.573-2 .95-4.053.95-6.024zM319.822 342.466c-.742 3.953-2.332 8.086-4.3 11.62.79.889 1.545 1.598 2.22 2.151 1.593 1.31 2.725 1.774 2.725 1.774.826-1.246 1.92-2.975 2.607-5.684.332-1.308.571-2.843.636-4.67.013-.398.523-2.888.623-3.693.01-.086.017-.16.017-.203a26.52 26.52 0 0 0-.112-3.036 37.313 37.313 0 0 0-.465-3.319c-.454-2.467-1.04-4.544-1.264-5.781a483.616 483.616 0 0 1-2.484 2.844c.164 3.062.156 6.085-.202 7.997z"/></g><path d="M302.949 362.333c.445.33 1.079.617 1.982.84.032.008.064.01.095.017 1.565.343 3.36-.474 5.155-2.067 1.865-1.654 3.73-4.143 5.342-7.037 1.967-3.533 3.557-7.667 4.3-11.62.358-1.913.367-4.935.202-7.998l-.21.237-1.362-7.745c-1.585 1.894-3.523 3.983-5.743 6.451-1.775 1.97-3.849 4.298-5.947 6.549-.52 1.275-.75 2.375-.523 3.159 1.223 4.286-.449 9.711-1.727 12.481-.075.161-.15.319-.22.461-1.07 2.138-3.44 4.715-1.344 6.272z" fill="#d1bea7"/><path d="M337.411 297.744c-2.15 1.081-4.089.718-5.651-.359a7.374 7.374 0 0 1-.573-.438c-.173 3.667-.015 8.082-1.012 10.582-1.294 3.242-6.471 6.471-7.125 11.007-.388 2.805-2.028 5.356-4.596 8.425l1.362 7.745.21-.237c.381-.433 1.276-1.451 2.484-2.844 4.474-5.16 13.232-15.456 16.08-20.2 3.134-5.235 2.469-12.563 2.096-15.194-.089-.629-.161-.991-.161-.991-1.074 1.204-2.115 2.001-3.114 2.504z" fill="#ba8f69"/><path d="M318.452 326.961c2.57-3.067 4.21-5.619 4.597-8.425.654-4.537 5.831-7.765 7.125-11.007.997-2.5.839-6.915 1.012-10.581.051-1.09.131-2.115.281-3.002.64-3.896 0-12.942-.653-16.839-.375-2.267-2.757-4.31-5.574-5.228-1.99-.649-4.196-.74-6.074.066 0 0-14.236 12.287-22.001 32.341-7.765 20.081-4.523 43.364-1.934 44.658 1.801.9 6.733-3.836 11.531-8.981 2.1-2.252 4.174-4.58 5.948-6.55 2.22-2.47 4.157-4.558 5.742-6.452z" fill="#bb6c3f"/><path d="M338.589 256.42c1.934-1.949 0-2.603-2.589-1.309-2.602 1.309.654 3.229 2.589 1.309z" fill="#020202"/><g fill="#74948f"><path d="M422.636 366.74a35.551 35.551 0 0 1-2.826-1.979c.514.715 1.564 1.396 2.826 1.979zM428.61 368.41c-.078-.007-.155-.015-.235-.025.08.01.157.017.235.025zM468.019 358.016c-1.949.64.626 3.229 2.574 3.229 1.24 0 3-.26 5.115-.12-1.865-1.654-3.73-4.143-5.342-7.037a19.862 19.862 0 0 1-2.22 2.15c.498.844.544 1.55-.127 1.778zM429.381 368.454c-.061-.002-.118 0-.182-.002.064.003.121.002.182.002zM424.553 367.494zM425.291 358.654l.001-.004c-.034.015-5.827 2.609-5.827 5.19 0 .276.114.551.29.824-.166-.279-.28-.55-.28-.833 0-2.575 5.816-5.177 5.816-5.177z"/><path d="M484.835 363.831c-.797-.201-1.41-.771-1.896-1.499-.445.33-1.079.618-1.983.842-.031.007-.064.009-.095.016-.572 1.053-3.94 2.135-5.732 2.591-2.589.64-7.112 2.574-5.192 1.294 1.95-1.294-1.92-1.949-3.213-1.949-1.309 0-6.472-1.293-9.074-1.293-2.589 0-10.34.64-11.634 0-1.309-.654 7.111-3.243 12.928-3.883 5.831-.64.653-2.589-1.934-3.882-2.589-1.31-9.7-2.603-9.7-2.603s-1.294-1.92-2.603-3.869c-1.293-1.948-.64-2.588 1.31-3.242 1.92-.64 1.293-2.589 2.573-3.229.255-.129.614-.18 1.027-.182l-3.608-2.41s-1.277.365-2.862.707c1.21.815 1.43 2.096-.378 3.176-3.229 1.949-3.229 3.243-1.934 3.883.554.274 1.101.671 1.601 1.134l.334.167a11.257 11.257 0 0 1 2.974 2.165c.377.295.698.643.908 1.064 0 0-.307-.454-.908-1.064-.614-.48-1.392-.812-2.175-1.037.186.267.356.54.493.813.57 1.149-1.398-.253-4.116-.126-.084.731-.091 1.716.235 2.708.654 1.948-.64 5.177-3.242 5.177-2.093 0-2.484-5.129-2.909-6.706l-.961.242c-.257.063-.51.149-.763.247-.304.16-.644.32-1.012.477-1.822 1.025-3.102 2.655-2.123 3.145 1.294.654-1.28 1.309-1.92 3.243-.654 1.933 1.294 1.308 3.869 1.308 2.589 0 9.714 0 10.367.627.64.653-12.316.653-12.316 1.948 0 1.294 7.125 0 9.06.64 1.949.654 8.42 1.949 11.008 1.309 2.588-.654 7.765-1.309 9.06-.654 1.293.654 4.537 1.294.64 1.949-3.869.64-10.34.64-14.237 0-3.868-.654-6.47-3.242-10.34-1.949-2.005.669-2.118 1.848-2.275 2.829 3.21-.796 8.523-1.967 10.685-.886 2.59 1.294 10.354 3.242 13.583 2.589 3.242-.654 7.111 0 9.714 0 2.588 0 5.817-2.59 9.7-3.883 3.882-1.294 12.956 1.294 14.236-2.589.27-.808.03-1.616-.546-2.39-.896 1.274-2.765 3.498-4.624 3.035zm-31.056-7.762s-3.243 3.242-5.178 3.869c-1.949.653-2.589-.627-3.242-1.92-.654-1.31 5.817-2.603 8.42-1.95zM454.423 343.765c.12 0 .33-.022.596-.059l-.598-.585.888-2.375c-1.368-.472-2.748-.777-4.129-.858a38.356 38.356 0 0 0-1.463-.06l2.425 3.453c1.062.228 1.996.484 2.28.484zM427.76 368.3a15.845 15.845 0 0 1-.321-.058c.107.02.215.042.321.058zM425.866 367.894zM423.431 367.082z"/><path d="M457.011 348.942c-5.177 1.294 1.294 2.603 5.163 3.243.214.036.427.088.641.146-.333-1.31-.573-2.845-.637-4.672-.013-.398-.51-2.884-.62-3.693-1.677-1.11-3.414-2.092-5.182-2.815l-1.267 2.541c1.164-.166 3.196-.567 3.196-.567 4.524 2.589 3.869 4.523-1.294 5.818zM427.724 354.462c.001 0 0 0 0 0zM440.757 341.674a.292.292 0 0 0-.032.005c-1.234.814-2.343 1.764-3.295 2.709l.004.006a21.57 21.57 0 0 1 3.324-2.72zM430.07 368.421c-.056.007-.104.018-.164.023.06-.004.108-.015.164-.023zM426.84 368.127c-.164-.035-.331-.077-.498-.117.167.04.334.082.498.117z"/></g><g fill="#cfdcd9"><path d="M475.707 361.125c-2.113-.14-3.875.12-5.115.12-1.948 0-4.522-2.589-2.573-3.229.671-.229.623-.934.126-1.777-1.593 1.309-2.725 1.772-2.725 1.772-.824-1.246-1.918-2.974-2.606-5.681a6.872 6.872 0 0 0-.642-.146c-3.868-.64-10.34-1.949-5.162-3.243 5.162-1.293 5.817-3.228 1.294-5.817 0 0-2.033.401-3.197.567l-.033.068-.057-.055a5.291 5.291 0 0 1-.596.059c-.285 0-1.219-.258-2.28-.484l.339.481-.654.654-2.209-1.474c-.412.003-.77.054-1.027.182-1.28.64-.654 2.59-2.574 3.23-1.949.653-2.602 1.293-1.309 3.242 1.31 1.949 2.603 3.869 2.603 3.869s7.111 1.293 9.7 2.602c2.589 1.294 7.765 3.242 1.934 3.882-5.818.64-14.237 3.23-12.928 3.883 1.294.64 9.045 0 11.634 0 2.603 0 7.765 1.294 9.074 1.294 1.294 0 5.162.653 3.214 1.948-1.92 1.28 2.602-.653 5.19-1.293 1.793-.455 5.16-1.539 5.733-2.591-1.564.345-3.357-.47-5.154-2.063z"/><path d="M448.601 359.938c1.934-.627 5.178-3.87 5.178-3.87-2.603-.653-9.074.64-8.42 1.95.655 1.293 1.295 2.573 3.242 1.92z"/></g><g fill="#3c4544"><path d="M437.433 344.394c.86 1.481 1.456 3.258 1.456 3.258s1.192.603 3.549 1.782c-.5-.463-1.048-.86-1.602-1.134-1.294-.64-1.294-1.934 1.934-3.883 1.807-1.08 1.587-2.36.379-3.176-.763.165-1.593.323-2.393.434-1.245.815-2.364 1.769-3.324 2.719zM434.365 365.124c3.869-1.294 6.471 1.293 10.34 1.948 3.897.64 10.367.64 14.236 0 3.898-.653.654-1.293-.64-1.948-1.294-.654-6.471 0-9.06.653-2.589.64-9.06-.653-11.007-1.308-1.934-.64-9.06.654-9.06-.64s12.956-1.294 12.316-1.949c-.654-.626-7.78-.626-10.367-.626-2.574 0-4.523.626-3.87-1.309.64-1.934 3.215-2.589 1.92-3.242-.98-.49.302-2.12 2.123-3.145-1.048.445-2.312.828-3.571.902a17.168 17.168 0 0 0-1.411 1.849c-.525.813-.898 1.608-1.021 2.337l-.002.004s-5.817 2.603-5.817 5.178c0 .28.114.552.28.832.018.031.027.061.047.092l.009.007c.864.668 1.825 1.35 2.826 1.978.018.012.034.024.053.035.082.038.171.07.255.107.16.068.322.136.487.202.147.059.29.118.439.173.225.083.453.162.683.238.108.037.213.075.322.11.33.105.663.203.991.29.162.043.317.078.477.117.166.04.333.082.497.117.204.044.4.08.598.116l.32.058c.213.035.416.061.617.085l.235.025c.205.02.401.035.589.042.064.003.121.002.182.002.184.002.364.002.527-.01.06-.005.107-.017.163-.023.137-.016.284-.026.398-.055.441-.114.995-.256 1.621-.412v-.002c.156-.98.27-2.16 2.275-2.828zM433.713 352.175c-.184.189-.698.537-1.404.907.251-.097.506-.183.762-.246l.961-.242c-.097-.364-.197-.539-.32-.419zM439.949 351.416c2.717-.127 4.684 1.275 4.116.126a6.634 6.634 0 0 0-.494-.813c-1.692-.485-3.387-.488-3.387-.488s-.154.469-.235 1.175z"/></g><g fill="#288548"><path d="M443.149 341.24c1.585-.343 2.861-.706 2.861-.706l3.609 2.409 2.208 1.473.654-.654-.339-.48-2.425-3.453-1.773-2.524s1.293-5.831 0-6.471c-1.294-.654-3.229 1.949-3.229 1.949s0-7.125-1.934-6.485c-1.949.64-2.602 3.228-2.602 3.228s-1.949-5.162-3.869-3.869c-1.949 1.28 0 5.177 0 5.177s-4.536 1.949-3.242 3.869c1.293 1.948 7.765 1.948 9.06 2.602 1.293.64.653 2.589-.64 1.934-1.31-.64-7.78-3.243-7.125-.64.64 2.589 1.948 3.229 4.522 3.229a13.836 13.836 0 0 0 1.873-.155c.798-.11 1.628-.268 2.39-.433zM455.02 343.706l.056.055.034-.067 1.268-2.541 1.272-2.553 2.603 3.229s.696-.468 1.398-1.103c.106-1.155.273-2.271.465-3.319-1.316-.787-2.959-.966-1.864-2.05.582-.575 1.285-1.677 1.538-2.66.244.055.396.085.396.085l-.367-.22c.246-1.142-.173-2.073-2.221-1.727-.19.031-.348.065-.49.099l-.165-.099c-.014.056-.03.099-.043.154-.722.216-.646.478-.204.735-.589 1.853-1.372 2.353-3.621 2.353-2.589 0-4.536 1.28-3.242 2.574s4.522 1.294 4.522 1.294l-1.048 2.802-.887 2.375.6.584zM493.255 355.413s-.654-5.178-2.603-5.178c-1.933 0-3.868 3.896-3.868 3.896s-.654-2.588-1.949-1.948c-.866.437-2.599 2.026-3.459 3.418.075.161.149.319.22.461 1.068 2.135 3.439 4.713 1.343 6.27.486.728 1.098 1.298 1.896 1.5 1.859.462 3.726-1.762 4.625-3.037.346-.491.552-.846.552-.846s1.294.653 3.883.653 3.882-2.588 3.882-2.588c-.653-1.308-4.522-2.602-4.522-2.602zM445.745 351.765c.601.61.909 1.064.909 1.064-.21-.422-.531-.768-.909-1.064z"/><path d="M431.296 353.56c.369-.156.708-.318 1.013-.478.706-.37 1.22-.718 1.403-.907.123-.12.223.055.32.419.425 1.577.817 6.706 2.91 6.706 2.602 0 3.897-3.229 3.242-5.178-.327-.99-.319-1.976-.235-2.707.081-.705.235-1.175.235-1.175s1.695.002 3.387.487c.784.225 1.56.557 2.175 1.038a11.285 11.285 0 0 0-2.974-2.165l-.333-.168c-2.357-1.178-3.549-1.78-3.549-1.78s-.596-1.777-1.456-3.26l-.004-.006c-.695-1.196-1.56-2.197-2.423-1.912-1.933.653-1.933 3.228-1.933 3.228s-5.818-.64-8.42 1.31c-2.589 1.933-2.589 5.817.64 7.11.761.304 1.593.39 2.431.34h.001c1.258-.073 2.522-.457 3.57-.902z"/></g><g fill="#d1bea7"><path d="M434.659 276.685c.112.133.225.275.341.43 1.322 1.757 2.939 3.217 3.841 3.975-1.161-1.775-2.761-3.335-4.182-4.405zM438.933 315.144c1.213-2.905.73-7.91.623-10.673-.006.159-.014.319-.014.473 0 3.786-.002 8.19-.61 10.2zM438.339 282.461l.062-.047-.062.047zM448.477 297.744c2.04.492 4.065.265 5.64-.35.2-.139.395-.287.584-.447-.052-1.088-.131-2.115-.281-3-.64-3.897 0-12.943.654-16.84.383-2.266 2.761-4.308 5.575-5.227-2.49-2.781-1.137-5.57-1.7-8.348-.64-3.242-1.934-7.765-8.405-10.353s-8.42 1.293-8.42 1.293v3.243c0 1.934 0 5.817 2.588 8.405 2.59 2.589 3.883 5.176 3.883 5.176l-.654 4.523-.45-.374c.383.614.718 1.187 1.01 1.701.25-.08.5-.157.754-.209 2.304-.455 4.239-.256 4.522.825 2.59 10.34-5.83 13.583-9.073 15.532-2.294 1.39-3.938 4.75-4.694 7.971 1.032-3.105 3.409-6.673 3.409-6.673a10.106 10.106 0 0 0 1.785 1.638c.088-.629.161-.991.161-.991 1.072 1.205 2.114 2.002 3.112 2.505zM447.3 256.42c-1.934-1.949 0-2.603 2.589-1.309 2.602 1.309-.654 3.229-2.589 1.309z"/></g><path d="M442.13 280.368c2.034-.692 4.138-2.5 6.372-3.22a51.52 51.52 0 0 0-1.01-1.702c-2.575-4.129-7.33-9.974-16.366-9.974-10.993 0-14.236 10.354-14.236 10.354h11.648s1.933-.64 3.242-.64c.539 0 1.64.565 2.879 1.499 1.421 1.071 3.022 2.63 4.182 4.405.153.234.297.47.433.71.949-.624 1.91-1.121 2.856-1.433z" fill="#937a61"/><g fill="#af987e"><path d="M444.705 293.295c3.243-1.949 11.663-5.191 9.074-15.531-.285-1.082-2.219-1.28-4.523-.825-.253.05-.503.127-.753.208-2.234.722-4.34 2.53-6.373 3.22-.946.312-1.909.81-2.857 1.433-.293.193-.583.396-.873.614l-.062.047c-2.583 1.965-4.98 4.911-6.568 8.218-.129.269-.256.539-.375.812-.976 2.258-1.567 4.648-1.567 6.981 0 1.61.26 3.275.662 4.922.34 1.388.783 2.763 1.28 4.08 1.759 4.647 4.133 8.563 4.529 9.757.64 1.949 1.934 0 2.589-1.934.016-.047.03-.103.045-.153.607-2.009.608-6.413.608-10.2 0-.153.009-.314.014-.473.038-.995.193-2.09.454-3.205.759-3.221 2.402-6.581 4.696-7.971zM461.539 343.761c.001.044.01.118.021.205.107.809.605 3.294.619 3.693.065 1.827.304 3.363.637 4.672.688 2.706 1.781 4.435 2.606 5.681 0 0 1.133-.465 2.725-1.772a19.755 19.755 0 0 0 2.22-2.151c-1.967-3.534-3.556-7.668-4.3-11.62-.358-1.914-.367-4.935-.202-7.999a483.616 483.616 0 0 1-2.484-2.844c-.223 1.238-.81 3.314-1.263 5.781a37.313 37.313 0 0 0-.465 3.32c-.093.99-.14 2.01-.114 3.034z"/></g><path d="M467.436 326.961l-1.362 7.745-.21-.237c-.164 3.064-.156 6.085.202 7.999.743 3.952 2.333 8.086 4.3 11.62 1.612 2.894 3.477 5.382 5.342 7.037 1.795 1.593 3.588 2.409 5.155 2.066.03-.006.063-.008.095-.016.903-.224 1.537-.511 1.982-.841 2.096-1.556-.275-4.134-1.342-6.27-.072-.143-.145-.3-.22-.461-1.28-2.77-2.952-8.195-1.728-12.482.226-.783-.001-1.883-.522-3.158-2.1-2.252-4.174-4.58-5.948-6.55-2.221-2.47-4.159-4.558-5.744-6.452z" fill="#d1bea7"/><path d="M466.074 334.706l1.362-7.745c-2.569-3.067-4.21-5.619-4.596-8.425-.654-4.537-5.831-7.765-7.111-11.007-1.009-2.5-.853-6.917-1.028-10.582-.189.16-.384.308-.585.447-1.56 1.071-3.495 1.43-5.638.35-1-.503-2.04-1.3-3.112-2.504 0 0-.072.364-.161.991-.372 2.631-1.039 9.958 2.096 15.194 2.847 4.745 11.605 15.04 16.08 20.2a483.616 483.616 0 0 0 2.484 2.844l.209.237z" fill="#ba8f69"/><path d="M455.074 277.108c-.654 3.897-1.294 12.942-.654 16.838.15.886.23 1.911.281 3.001.175 3.667.019 8.082 1.028 10.582 1.28 3.242 6.457 6.471 7.111 11.007.388 2.805 2.028 5.357 4.596 8.425 1.585 1.894 3.523 3.983 5.743 6.452 1.775 1.97 3.849 4.297 5.947 6.548 4.799 5.145 9.731 9.883 11.531 8.982 2.59-1.294 5.832-24.577-1.933-44.658-7.765-20.054-22.001-32.341-22.001-32.341-1.88-.808-4.084-.714-6.073-.065-2.815.92-5.193 2.962-5.576 5.228z" fill="#bb6c3f"/><path d="M449.889 255.111c-2.589-1.294-4.523-.64-2.589 1.309 1.935 1.92 5.191 0 2.589-1.309z" fill="#020202"/><g fill="#fff"><path d="M349.579 224.055c1.511-2.515 4.564-3.461 5.86-3.761-.009-.04-.014-.088-.024-.126-.521-2.065-2.677-4.117-3.53-4.864-2.835-.871-6.75-.05-11.352.33-7.765.654-10.354-5.818-10.354-5.818s-2.603 1.294-1.949 3.883c.64 2.589 5.817 3.882 1.294 3.882-7.111 0-6.471 5.178-6.471 5.178s3.655-1.55 7.125-1.949c5.817-.64 6.47 0 12.927 0-3.869 1.949-22.641 10.354-22.641 10.354 4.536 5.176 12.302 1.949 18.119-1.934 5.817-3.882 4.522-.654 3.228 1.934-1.28 2.602-6.471 12.942-6.471 12.942s4.181-.285 5.831-1.933c3.883-3.883 4.536-9.7 4.536-9.7 1.023 1.695 2.93 2.496 4.512 2.878.422-.71.86-1.39 1.302-2.012-1.381-2.733-3.213-7.135-1.942-9.284zM429.733 262.311c-.34.353-.552.564-.552.564s14.237-1.934 12.303-14.876c-.675-4.519-2.3-8.564-4.044-12.246a5.85 5.85 0 0 1-3.074-.052s.965-.664 1.987-2.182c-2.917-5.864-5.697-10.794-4.568-15.289 0 0-1.84.504-3.504 1.854-1.007 1.085-1.826 2.406-2.351 3.358-2.54 8.39 5.657 15.214 7.135 17.43 2.589 3.897 3.882 8.42 3.882 8.42s-7.11-5.817-11.007 0c0 0 4.537-.655 6.471 1.293 1.838 1.837 3.09 4.23 1.595 6.679-.707 2.183-2.22 3.953-4.274 5.047zM468.011 230.523c5.178 0 8.405-1.28 8.405-5.178 0-3.869-6.471-6.471-6.471-6.471s1.949 4.522 1.309 7.125c-.655 2.59-3.243 4.524-3.243 4.524z"/></g><g fill="#905f41"><path d="M381.939 227.29c.623 1.246 2.301 2.343 4.161 3.145.626-.968.536-2.335-.92-3.797 0 0 3.242-1.95 5.817.653 2.603 2.589 7.125 3.243 5.177-1.949 0 0 4.537-1.293 6.485 2.603 1.933 3.869 9.045 3.214 5.817-1.949 0 0 1.634-.325 3.048.421l.845-1.897 1.94-4.359-1.294-3.869s-1.845-.31-4.048-.502a36.08 36.08 0 0 0-3.078-.151c-.598 0-1.262.045-1.945.116v-5.589c-.108.003-.21.008-.32.008-.839 0-1.614-.059-2.269-.159v6.11c-2.116.367-3.885.809-3.885.809l-.65 1.514v-8.183c-.654.13-1.429.208-2.265.208-.11 0-.215-.008-.323-.01v10.868c0 .073.01.142.02.21-2.057.107-6.176.284-9.07.185v-8.71a34.203 34.203 0 0 1-2.603.024v8.43c-1.198-.305-3.938-1.866-6.528-3.451-2.98-1.823-5.758-3.674-5.758-3.674-4.523-1.949 2.588 3.229 3.882 5.176.206.31.519.657.891 1.023 1.965 1.94 5.798 4.557 6.873 6.746zM396.82 202.131v-6.426c0-.783-.569-1.423-1.294-1.423-.711 0-1.293.64-1.293 1.423v6.369c.218-.005.435-.013.66-.013.682 0 1.33.025 1.927.07zM396.82 208.079v-4.155c-.596.045-1.245.072-1.927.072-.227 0-.443-.007-.662-.012v3.9c.109-.003.213-.01.323-.01a11.81 11.81 0 0 1 2.266.205zM382.586 203.998c.95 0 1.829.067 2.594.177v-5.36c0-.66-.509-1.189-1.149-1.265-.05-.006-.094-.03-.145-.03-.725 0-1.309.584-1.309 1.294v5.184h.01zM382.586 206.586h-.009v3.898a34.203 34.203 0 0 1 2.603.024v-4.103c-.765.113-1.644.181-2.594.181zM401.355 198.815v3.341c.655-.064 1.43-.101 2.269-.101.11 0 .212.004.32.005v-3.245c0-.711-.584-1.294-1.294-1.294-.266 0-.5.102-.707.242-.345.232-.588.607-.588 1.052zM403.624 208.171c.11 0 .212.005.32.008v-4.834c-.108.001-.21.005-.32.005-.839 0-1.614-.04-2.269-.106v5.085c.655-.1 1.43-.158 2.269-.158z"/></g><g fill="#fff"><path d="M382.586 206.586c.95 0 1.829-.069 2.594-.181 1.538-.225 2.582-.639 2.582-1.113 0-.483-1.045-.893-2.582-1.116a18.386 18.386 0 0 0-2.594-.177h-.009c-.367 0-.725.01-1.07.028-2.332.123-4.097.635-4.097 1.265 0 .53 1.3.99 3.14 1.19.624.067 1.309.104 2.027.105h.01zM383.549 213.058c.564 0 1.107-.015 1.631-.04 2.976-.14 5.181-.65 5.181-1.254 0-.618-2.205-1.119-5.181-1.256a35.934 35.934 0 0 0-1.631-.04c-.33 0-.654.007-.971.016-1.434.039-2.724.161-3.723.344-1.285.233-2.09.563-2.09.936 0 .296.532.569 1.417.787 1.054.26 2.612.443 4.395.492.32.008.642.015.972.015zM401.355 202.156c-.978.095-1.67.249-1.87.431-.566-.207-1.504-.37-2.665-.456a26.448 26.448 0 0 0-1.927-.07c-.227 0-.443.008-.662.013-2.545.06-4.53.457-4.53.955 0 .485 1.985.892 4.53.955.219.005.435.012.661.012.683 0 1.33-.026 1.928-.072 1.885-.144 3.219-.489 3.244-.884.33.083.768.153 1.291.205.655.066 1.43.106 2.269.106.11 0 .212-.003.32-.005l.172-.002c2.085-.039 3.718-.316 3.718-.646 0-.34-1.723-.61-3.89-.635-.108-.002-.21-.005-.32-.005a23.105 23.105 0 0 0-2.269.098zM398.764 209.166c0-.456-.776-.856-1.944-1.087a11.9 11.9 0 0 0-2.265-.207c-.11 0-.215.008-.323.01-2.165.053-3.872.608-3.872 1.284 0 .691 1.709 1.246 3.872 1.299.11.002.213.01.323.01.838 0 1.611-.078 2.265-.208 1.167-.232 1.944-.636 1.944-1.1zM403.624 208.171c-.839 0-1.614.059-2.269.158-1.166.176-1.941.482-1.941.839 0 .363.775.675 1.941.85.655.1 1.43.16 2.269.16.11 0 .212-.007.32-.008 1.063-.019 2.017-.127 2.715-.301.723-.18 1.175-.425 1.175-.701 0-.337-.7-.63-1.763-.808a14.617 14.617 0 0 0-2.127-.18c-.108-.004-.21-.009-.32-.009z"/></g><path d="M376.549 237.645c1.7-1.471 2.815-3.241 2.815-3.241a7.558 7.558 0 0 0 1.527.572 7.28 7.28 0 0 0 2.91.146c2.104-.316 3.84-1.483 4.623-2.653.59-.896 2.081.597 4.132 1.431.716.291 1.499.503 2.339.503 1.555 0 4.128-1.13 5.255-1.662.348-.164.561-.274.561-.274s.244.322.694.763c.834.818 2.386 2.056 4.482 2.48a5.01 5.01 0 0 0 2.564-.148c1.664-.545 2.6-1.8 2.6-1.8s.165.424.498 1.01c.747 1.313 2.369 3.45 5.022 3.554.309.013.628.006.965-.042 4.538-.64 5.831-3.883 3.229-7.125-2.589-3.214-5.162 0-5.162 0s-.394-.203-.958-.797c-.466-.49-1.045-1.246-1.631-2.417a3.427 3.427 0 0 0-1.489-1.527c-1.415-.747-3.048-.422-3.048-.422 3.23 5.163-3.882 5.818-5.817 1.949-1.949-3.896-6.485-2.603-6.485-2.603 1.949 5.192-2.574 4.538-5.176 1.95-2.574-2.603-5.818-.655-5.818-.655 1.456 1.462 1.546 2.83.92 3.798-1.044 1.614-4.079 2.117-6.096.1-3.242-3.242-5.817-1.949-5.817-1.949 1.923 3.381-.483 4.599-1.82 5-.453.135-.783.178-.783.178s-1.294-3.229-3.242-3.883c-1.92-.64-3.87.654-3.87 3.883 0 3.455 3.803 5.774 7.666 5.814.034 0 .066.003.1.003 1.61-.001 3.105-.894 4.31-1.936z" fill="#8fd2e2"/><g fill="#288548"><path d="M353.467 257.715s.115-.12.295-.546c.248-.584.62-1.746 1-3.991.653-3.883 7.764-5.832 7.764-5.832s-5.177-1.948-8.42.654c-1.579 1.28.654-2.602 1.949-5.817 1.294-3.257 3.882-7.125 3.882-7.125 3.883-1.294 3.243-7.765 3.243-7.765-1.949 2.573-3.243 1.948-3.243 1.948s2.59-3.897 1.294-9.073c-1.294-5.163-9.7-5.163-9.7-5.163s.136.11.353.3c.852.748 3.007 2.799 3.53 4.864.01.039.015.086.023.126.574 2.663-.716 8.996-3.266 12.176-.216.272-.432.567-.649.87-.442.624-.88 1.303-1.302 2.013-1.833 3.08-3.393 6.671-3.88 8.111-.463 1.396-.253 4.821.63 7.594.34 1.067.776 2.04 1.319 2.76 1.95 2.602 5.178 3.896 5.178 3.896zM322.866 233.42c.273.129.549.246.837.341 0 .002-.315-.121-.837-.341zM312.054 225.343c0 3.26 8.147 6.956 10.812 8.077-3.412-1.611-5.635-5.619-5.635-7.424 0-1.934 2.589-5.177 2.589-5.177-2.589.001-7.766.655-7.766 4.524zM431.123 218.238c3.242-.654 5.817 1.933 7.765 4.522 1.948 2.589 0 5.191-1.294 8.405a12.538 12.538 0 0 1-1.241 2.355c-1.022 1.519-1.987 2.183-1.987 2.183a5.85 5.85 0 0 0 3.074.05c2.846-.71 4.691-3.278 4.691-3.278s0 5.818 2.574 8.405c2.603 2.589 8.42 3.883 8.42 3.883s-3.242-3.23-5.177-7.765c-1.934-4.523-1.934-9.045-1.934-9.045s6.471 4.522 10.354 6.457c3.882 1.934 7.11 1.934 9.045.654 1.948-1.294 8.42-5.191 8.42-5.191-6.472 1.948-10.354 0-15.532-1.92-5.177-1.95-14.236-7.125-14.236-7.125s9.06.64 12.303.64c3.228 0 9.7 1.933 9.7 1.933s-1.95-2.573-3.883-4.522c-1.934-1.949-5.177-1.294-5.177-1.294s2.588-2.589 1.933-4.522c-.64-1.95-4.522-2.59-4.522-2.59s.654 3.883-1.294 5.818c-1.949 1.949-12.287 0-19.414-.653-7.111-.64-8.42 9.06-8.42 9.06s.233-.517.638-1.25c.525-.952 1.344-2.273 2.351-3.36.84-.908 1.809-1.645 2.843-1.85zM409.125 240.867l-.998-.45L402 237.64c-.578.259-1.13.534-1.667.821-.785.421-1.528.875-2.213 1.383-3.568 2.641-5.674 6.641-5.18 13.981 0 0 3.242-6.471 6.471-8.42 0 0 0 5.831 1.949 11.007 1.949 5.178 7.111 9.06 11.007 9.714 0 0-4.537-7.125-4.537-12.942 0 0 2.298 5.713 6.293 11.013 1.207 1.6 2.56 3.163 4.06 4.518l.654-4.536s-2.602-2.589-3.242-5.831c0 0 3.882 5.177 9.06 5.177 1.9 0 3.622-.438 5.077-1.212 2.054-1.094 3.566-2.864 4.271-5.045.157-.484.278-.987.352-1.508 0 0-2.574 1.294-7.112 1.949-4.536.64-9.7-1.949-13.596-7.125a26.699 26.699 0 0 1-3.377-5.923c-.927-2.276-1.144-3.794-1.144-3.794z"/></g></svg>