<?xml version="1.0" encoding="utf-8"?>
<!-- Generator: Adobe Illustrator 21.1.0, SVG Export Plug-In . SVG Version: 6.00 Build 0)  -->
<svg version="1.1" id="Layer_1" xmlns="http://www.w3.org/2000/svg" xmlns:xlink="http://www.w3.org/1999/xlink" x="0px" y="0px"
	 viewBox="0 0 1400 253.2" style="enable-background:new 0 0 1400 253.2;" xml:space="preserve">
<style type="text/css">
	.st0{fill:#30BBA4;}
	.st1{fill:#415D71;}
	.st2{fill:#32BBA4;}
	.st3{fill:#EF5F4B;}
	.st4{fill:#FDD836;}
	.st5{fill:#F19223;}
</style>
<g>
	<path class="st0" d="M1363.1,506.4c-19.6,0-35.5-15.9-35.5-35.5v-16.7v-9.5c0-19.6-15.9-35.5-35.5-35.5h-13.2
		c-18.9,0-34.4,14.8-35.5,33.5v28.2c0,19.6-15.9,35.5-35.5,35.5H1183c-19.6,0-35.5-15.9-35.5-35.5v-16.7v-9.5
		c0-19.6-15.9-35.5-35.5-35.5h-13.2c-18.9,0-34.4,14.8-35.5,33.5v28.2c0,19.6-15.9,35.5-35.5,35.5h-24.9
		c-19.6,0-35.5-15.9-35.5-35.5v-16.7v-9.5c0-19.6-15.9-35.5-35.5-35.5h-13.2c-18.9,0-34.4,14.8-35.5,33.5v28.2
		c0,19.6-15.9,35.5-35.5,35.5h-24.9c-19.6,0-35.5-15.9-35.5-35.5v-16.7v-9.5c0-19.6-15.9-35.5-35.5-35.5h-13.2
		c-18.9,0-34.4,14.8-35.5,33.5v28.2c0,19.6-15.9,35.5-35.5,35.5h-24.9c-19.6,0-35.5-15.9-35.5-35.5v-16.7v-9.5
		c0-19.6-15.9-35.5-35.5-35.5h-13.2c-18.9,0-34.4,14.8-35.5,33.5v28.2c0,19.6-15.9,35.5-35.5,35.5h-24.9
		c-19.6,0-35.5-15.9-35.5-35.5v-16.7v-9.5c0-19.6-15.9-35.5-35.5-35.5h-13.2c-18.9,0-34.4,14.8-35.5,33.5v28.2
		c0,19.6-15.9,35.5-35.5,35.5h-24.9c-19.6,0-35.5-15.9-35.5-35.5v-16.7v-9.5c0-19.6-15.9-35.5-35.5-35.5H198
		c-18.9,0-34.4,14.8-35.5,33.5v28.2c0,19.6-15.9,35.5-35.5,35.5h-24.9c-19.6,0-35.5-15.9-35.5-35.5v-16.7v-9.5
		c0-19.6-15.9-35.5-35.5-35.5H17.8c-6.5,0-12.6,1.7-17.8,4.8v94.5c3.7-1.3,7.8-2.1,12-2.1h24.9c19.6,0,35.5,15.9,35.5,35.5v16.7v9.5
		c0,19.6,15.9,35.5,35.5,35.5h13.2c18.9,0,34.4-14.8,35.5-33.5v-28.2c0-19.6,15.9-35.5,35.5-35.5H217c19.6,0,35.5,15.9,35.5,35.5
		v16.7v9.5c0,19.6,15.9,35.5,35.5,35.5h13.2c18.9,0,34.4-14.8,35.5-33.5v-28.2c0-19.6,15.9-35.5,35.5-35.5h24.9
		c19.6,0,35.5,15.9,35.5,35.5v16.7v9.5c0,19.6,15.9,35.5,35.5,35.5h13.2c18.9,0,34.4-14.8,35.5-33.5v-28.2
		c0-19.6,15.9-35.5,35.5-35.5h24.9c19.6,0,35.5,15.9,35.5,35.5v16.7v9.5c0,19.6,15.9,35.5,35.5,35.5h13.2
		c18.9,0,34.4-14.8,35.5-33.5v-28.2c0-19.6,15.9-35.5,35.5-35.5h24.9c19.6,0,35.5,15.9,35.5,35.5v16.7v9.5
		c0,19.6,15.9,35.5,35.5,35.5h13.2c18.9,0,34.4-14.8,35.5-33.5v-28.2c0-19.6,15.9-35.5,35.5-35.5h24.9c19.6,0,35.5,15.9,35.5,35.5
		v16.7v9.5c0,19.6,15.9,35.5,35.5,35.5h13.2c18.9,0,34.4-14.8,35.5-33.5v-28.2c0-19.6,15.9-35.5,35.5-35.5h24.9
		c19.6,0,35.5,15.9,35.5,35.5v16.7v9.5c0,19.6,15.9,35.5,35.5,35.5h13.2c18.9,0,34.4-14.8,35.5-33.5v-28.2
		c0-19.6,15.9-35.5,35.5-35.5h24.9c19.6,0,35.5,15.9,35.5,35.5v16.7v9.5c0,19.6,15.9,35.5,35.5,35.5h13.2c6.5,0,12.6-1.7,17.8-4.8
		v-94.5c-3.7,1.3-7.8,2.1-12,2.1H1363.1z M41.7,471.7c0,8.6-7,15.6-15.6,15.6h-5.4c-8.6,0-15.6-7-15.6-15.6v-17.4
		c0-8.6,7-15.6,15.6-15.6h5.4c8.6,0,15.6,7,15.6,15.6V471.7z M132.7,554.1c0,8.6-7,15.6-15.6,15.6h-5.4c-8.6,0-15.6-7-15.6-15.6
		v-17.4c0-8.6,7-15.6,15.6-15.6h5.4c8.6,0,15.6,7,15.6,15.6V554.1z M221.5,471.7c0,8.6-7,15.6-15.6,15.6h-5.4
		c-8.6,0-15.6-7-15.6-15.6v-17.4c0-8.6,7-15.6,15.6-15.6h5.4c8.6,0,15.6,7,15.6,15.6V471.7z M314.1,554.1c0,8.6-7,15.6-15.6,15.6
		h-5.4c-8.6,0-15.6-7-15.6-15.6v-17.4c0-8.6,7-15.6,15.6-15.6h5.4c8.6,0,15.6,7,15.6,15.6V554.1z M401.3,471.7
		c0,8.6-7,15.6-15.6,15.6h-5.4c-8.6,0-15.6-7-15.6-15.6v-17.4c0-8.6,7-15.6,15.6-15.6h5.4c8.6,0,15.6,7,15.6,15.6V471.7z
		 M492.3,554.1c0,8.6-7,15.6-15.6,15.6h-5.4c-8.6,0-15.6-7-15.6-15.6v-17.4c0-8.6,7-15.6,15.6-15.6h5.4c8.6,0,15.6,7,15.6,15.6
		V554.1z M581.2,471.7c0,8.6-7,15.6-15.6,15.6h-5.4c-8.6,0-15.6-7-15.6-15.6v-17.4c0-8.6,7-15.6,15.6-15.6h5.4
		c8.6,0,15.6,7,15.6,15.6V471.7z M670.5,554.1c0,8.6-7,15.6-15.6,15.6h-5.4c-8.6,0-15.6-7-15.6-15.6v-17.4c0-8.6,7-15.6,15.6-15.6
		h5.4c8.6,0,15.6,7,15.6,15.6V554.1z M761,471.7c0,8.6-7,15.6-15.6,15.6H740c-8.6,0-15.6-7-15.6-15.6v-17.4c0-8.6,7-15.6,15.6-15.6
		h5.4c8.6,0,15.6,7,15.6,15.6V471.7z M852.6,554.1c0,8.6-7,15.6-15.6,15.6h-5.4c-8.6,0-15.6-7-15.6-15.6v-17.4
		c0-8.6,7-15.6,15.6-15.6h5.4c8.6,0,15.6,7,15.6,15.6V554.1z M940.8,471.7c0,8.6-7,15.6-15.6,15.6h-5.4c-8.6,0-15.6-7-15.6-15.6
		v-17.4c0-8.6,7-15.6,15.6-15.6h5.4c8.6,0,15.6,7,15.6,15.6V471.7z M1033.9,554.1c0,8.6-7,15.6-15.6,15.6h-5.4
		c-8.6,0-15.6-7-15.6-15.6v-17.4c0-8.6,7-15.6,15.6-15.6h5.4c8.6,0,15.6,7,15.6,15.6V554.1z M1120.7,471.7c0,8.6-7,15.6-15.6,15.6
		h-5.4c-8.6,0-15.6-7-15.6-15.6v-17.4c0-8.6,7-15.6,15.6-15.6h5.4c8.6,0,15.6,7,15.6,15.6V471.7z M1216.1,554.1
		c0,8.6-7,15.6-15.6,15.6h-5.4c-8.6,0-15.6-7-15.6-15.6v-17.4c0-8.6,7-15.6,15.6-15.6h5.4c8.6,0,15.6,7,15.6,15.6V554.1z
		 M1300.5,471.7c0,8.6-7,15.6-15.6,15.6h-5.4c-8.6,0-15.6-7-15.6-15.6v-17.4c0-8.6,7-15.6,15.6-15.6h5.4c8.6,0,15.6,7,15.6,15.6
		V471.7z M1396.1,536.7v17.4c0,8.6-7,15.6-15.6,15.6h-5.4c-8.6,0-15.6-7-15.6-15.6v-17.4c0-8.6,7-15.6,15.6-15.6h5.4
		C1389.1,521.1,1396.1,528.1,1396.1,536.7z"/>
	<path class="st1" d="M1363.1,632.9c-19.6,0-35.5-15.9-35.5-35.5v-16.7v-9.5c0-19.6-15.9-35.5-35.5-35.5h-13.2
		c-18.9,0-34.4,14.8-35.5,33.5v28.2c0,19.6-15.9,35.5-35.5,35.5H1183c-19.6,0-35.5-15.9-35.5-35.5v-16.7v-9.5
		c0-19.6-15.9-35.5-35.5-35.5h-13.2c-18.9,0-34.4,14.8-35.5,33.5v28.2c0,19.6-15.9,35.5-35.5,35.5h-24.9
		c-19.6,0-35.5-15.9-35.5-35.5v-16.7v-9.5c0-19.6-15.9-35.5-35.5-35.5h-13.2c-18.9,0-34.4,14.8-35.5,33.5v28.2
		c0,19.6-15.9,35.5-35.5,35.5h-24.9c-19.6,0-35.5-15.9-35.5-35.5v-16.7v-9.5c0-19.6-15.9-35.5-35.5-35.5h-13.2
		c-18.9,0-34.4,14.8-35.5,33.5v28.2c0,19.6-15.9,35.5-35.5,35.5h-24.9c-19.6,0-35.5-15.9-35.5-35.5v-16.7v-9.5
		c0-19.6-15.9-35.5-35.5-35.5h-13.2c-18.9,0-34.4,14.8-35.5,33.5v28.2c0,19.6-15.9,35.5-35.5,35.5h-24.9
		c-19.6,0-35.5-15.9-35.5-35.5v-16.7v-9.5c0-19.6-15.9-35.5-35.5-35.5h-13.2c-18.9,0-34.4,14.8-35.5,33.5v28.2
		c0,19.6-15.9,35.5-35.5,35.5h-24.9c-19.6,0-35.5-15.9-35.5-35.5v-16.7v-9.5c0-19.6-15.9-35.5-35.5-35.5H198
		c-18.9,0-34.4,14.8-35.5,33.5v28.2c0,19.6-15.9,35.5-35.5,35.5h-24.9c-19.6,0-35.5-15.9-35.5-35.5v-16.7v-9.5
		c0-19.6-15.9-35.5-35.5-35.5H17.8c-6.5,0-12.6,1.7-17.8,4.8V635c3.7-1.3,7.8-2.1,12-2.1h24.9c19.6,0,35.5,15.9,35.5,35.5v16.7v9.5
		c0,19.6,15.9,35.5,35.5,35.5h13.2c18.9,0,34.4-14.8,35.5-33.5v-28.2c0-19.6,15.9-35.5,35.5-35.5H217c19.6,0,35.5,15.9,35.5,35.5
		v16.7v9.5c0,19.6,15.9,35.5,35.5,35.5h13.2c18.9,0,34.4-14.8,35.5-33.5v-28.2c0-19.6,15.9-35.5,35.5-35.5h24.9
		c19.6,0,35.5,15.9,35.5,35.5v16.7v9.5c0,19.6,15.9,35.5,35.5,35.5h13.2c18.9,0,34.4-14.8,35.5-33.5v-28.2
		c0-19.6,15.9-35.5,35.5-35.5h24.9c19.6,0,35.5,15.9,35.5,35.5v16.7v9.5c0,19.6,15.9,35.5,35.5,35.5h13.2
		c18.9,0,34.4-14.8,35.5-33.5v-28.2c0-19.6,15.9-35.5,35.5-35.5h24.9c19.6,0,35.5,15.9,35.5,35.5v16.7v9.5
		c0,19.6,15.9,35.5,35.5,35.5h13.2c18.9,0,34.4-14.8,35.5-33.5v-28.2c0-19.6,15.9-35.5,35.5-35.5h24.9c19.6,0,35.5,15.9,35.5,35.5
		v16.7v9.5c0,19.6,15.9,35.5,35.5,35.5h13.2c18.9,0,34.4-14.8,35.5-33.5v-28.2c0-19.6,15.9-35.5,35.5-35.5h24.9
		c19.6,0,35.5,15.9,35.5,35.5v16.7v9.5c0,19.6,15.9,35.5,35.5,35.5h13.2c18.9,0,34.4-14.8,35.5-33.5v-28.2
		c0-19.6,15.9-35.5,35.5-35.5h24.9c19.6,0,35.5,15.9,35.5,35.5v16.7v9.5c0,19.6,15.9,35.5,35.5,35.5h13.2c6.5,0,12.6-1.7,17.8-4.8
		v-94.5c-3.7,1.3-7.8,2.1-12,2.1H1363.1z M41.7,598.2c0,8.6-7,15.6-15.6,15.6h-5.4c-8.6,0-15.6-7-15.6-15.6v-17.4
		c0-8.6,7-15.6,15.6-15.6h5.4c8.6,0,15.6,7,15.6,15.6V598.2z M132.7,680.7c0,8.6-7,15.6-15.6,15.6h-5.4c-8.6,0-15.6-7-15.6-15.6
		v-17.4c0-8.6,7-15.6,15.6-15.6h5.4c8.6,0,15.6,7,15.6,15.6V680.7z M221.5,598.2c0,8.6-7,15.6-15.6,15.6h-5.4
		c-8.6,0-15.6-7-15.6-15.6v-17.4c0-8.6,7-15.6,15.6-15.6h5.4c8.6,0,15.6,7,15.6,15.6V598.2z M314.1,680.7c0,8.6-7,15.6-15.6,15.6
		h-5.4c-8.6,0-15.6-7-15.6-15.6v-17.4c0-8.6,7-15.6,15.6-15.6h5.4c8.6,0,15.6,7,15.6,15.6V680.7z M401.3,598.2
		c0,8.6-7,15.6-15.6,15.6h-5.4c-8.6,0-15.6-7-15.6-15.6v-17.4c0-8.6,7-15.6,15.6-15.6h5.4c8.6,0,15.6,7,15.6,15.6V598.2z
		 M492.3,680.7c0,8.6-7,15.6-15.6,15.6h-5.4c-8.6,0-15.6-7-15.6-15.6v-17.4c0-8.6,7-15.6,15.6-15.6h5.4c8.6,0,15.6,7,15.6,15.6
		V680.7z M581.2,598.2c0,8.6-7,15.6-15.6,15.6h-5.4c-8.6,0-15.6-7-15.6-15.6v-17.4c0-8.6,7-15.6,15.6-15.6h5.4
		c8.6,0,15.6,7,15.6,15.6V598.2z M670.5,680.7c0,8.6-7,15.6-15.6,15.6h-5.4c-8.6,0-15.6-7-15.6-15.6v-17.4c0-8.6,7-15.6,15.6-15.6
		h5.4c8.6,0,15.6,7,15.6,15.6V680.7z M761,598.2c0,8.6-7,15.6-15.6,15.6H740c-8.6,0-15.6-7-15.6-15.6v-17.4c0-8.6,7-15.6,15.6-15.6
		h5.4c8.6,0,15.6,7,15.6,15.6V598.2z M852.6,680.7c0,8.6-7,15.6-15.6,15.6h-5.4c-8.6,0-15.6-7-15.6-15.6v-17.4
		c0-8.6,7-15.6,15.6-15.6h5.4c8.6,0,15.6,7,15.6,15.6V680.7z M940.8,598.2c0,8.6-7,15.6-15.6,15.6h-5.4c-8.6,0-15.6-7-15.6-15.6
		v-17.4c0-8.6,7-15.6,15.6-15.6h5.4c8.6,0,15.6,7,15.6,15.6V598.2z M1033.9,680.7c0,8.6-7,15.6-15.6,15.6h-5.4
		c-8.6,0-15.6-7-15.6-15.6v-17.4c0-8.6,7-15.6,15.6-15.6h5.4c8.6,0,15.6,7,15.6,15.6V680.7z M1120.7,598.2c0,8.6-7,15.6-15.6,15.6
		h-5.4c-8.6,0-15.6-7-15.6-15.6v-17.4c0-8.6,7-15.6,15.6-15.6h5.4c8.6,0,15.6,7,15.6,15.6V598.2z M1216.1,680.7
		c0,8.6-7,15.6-15.6,15.6h-5.4c-8.6,0-15.6-7-15.6-15.6v-17.4c0-8.6,7-15.6,15.6-15.6h5.4c8.6,0,15.6,7,15.6,15.6V680.7z
		 M1300.5,598.2c0,8.6-7,15.6-15.6,15.6h-5.4c-8.6,0-15.6-7-15.6-15.6v-17.4c0-8.6,7-15.6,15.6-15.6h5.4c8.6,0,15.6,7,15.6,15.6
		V598.2z M1396.1,663.3v17.4c0,8.6-7,15.6-15.6,15.6h-5.4c-8.6,0-15.6-7-15.6-15.6v-17.4c0-8.6,7-15.6,15.6-15.6h5.4
		C1389.1,647.7,1396.1,654.7,1396.1,663.3z"/>
	<path class="st1" d="M1363.1,379.8c-19.6,0-35.5-15.9-35.5-35.5v-16.7v-9.5c0-19.6-15.9-35.5-35.5-35.5h-13.2
		c-18.9,0-34.4,14.8-35.5,33.5v28.2c0,19.6-15.9,35.5-35.5,35.5H1183c-19.6,0-35.5-15.9-35.5-35.5v-16.7v-9.5
		c0-19.6-15.9-35.5-35.5-35.5h-13.2c-18.9,0-34.4,14.8-35.5,33.5v28.2c0,19.6-15.9,35.5-35.5,35.5h-24.9
		c-19.6,0-35.5-15.9-35.5-35.5v-16.7v-9.5c0-19.6-15.9-35.5-35.5-35.5h-13.2c-18.9,0-34.4,14.8-35.5,33.5v28.2
		c0,19.6-15.9,35.5-35.5,35.5h-24.9c-19.6,0-35.5-15.9-35.5-35.5v-16.7v-9.5c0-19.6-15.9-35.5-35.5-35.5h-13.2
		c-18.9,0-34.4,14.8-35.5,33.5v28.2c0,19.6-15.9,35.5-35.5,35.5h-24.9c-19.6,0-35.5-15.9-35.5-35.5v-16.7v-9.5
		c0-19.6-15.9-35.5-35.5-35.5h-13.2c-18.9,0-34.4,14.8-35.5,33.5v28.2c0,19.6-15.9,35.5-35.5,35.5h-24.9
		c-19.6,0-35.5-15.9-35.5-35.5v-16.7v-9.5c0-19.6-15.9-35.5-35.5-35.5h-13.2c-18.9,0-34.4,14.8-35.5,33.5v28.2
		c0,19.6-15.9,35.5-35.5,35.5h-24.9c-19.6,0-35.5-15.9-35.5-35.5v-16.7v-9.5c0-19.6-15.9-35.5-35.5-35.5H198
		c-18.9,0-34.4,14.8-35.5,33.5v28.2c0,19.6-15.9,35.5-35.5,35.5h-24.9c-19.6,0-35.5-15.9-35.5-35.5v-16.7v-9.5
		c0-19.6-15.9-35.5-35.5-35.5H17.8c-6.5,0-12.6,1.7-17.8,4.8v94.5c3.7-1.3,7.8-2.1,12-2.1h24.9c19.6,0,35.5,15.9,35.5,35.5V432v9.5
		c0,19.6,15.9,35.5,35.5,35.5h13.2c18.9,0,34.4-14.8,35.5-33.5v-28.2c0-19.6,15.9-35.5,35.5-35.5H217c19.6,0,35.5,15.9,35.5,35.5
		V432v9.5c0,19.6,15.9,35.5,35.5,35.5h13.2c18.9,0,34.4-14.8,35.5-33.5v-28.2c0-19.6,15.9-35.5,35.5-35.5h24.9
		c19.6,0,35.5,15.9,35.5,35.5V432v9.5c0,19.6,15.9,35.5,35.5,35.5h13.2c18.9,0,34.4-14.8,35.5-33.5v-28.2
		c0-19.6,15.9-35.5,35.5-35.5h24.9c19.6,0,35.5,15.9,35.5,35.5V432v9.5c0,19.6,15.9,35.5,35.5,35.5h13.2c18.9,0,34.4-14.8,35.5-33.5
		v-28.2c0-19.6,15.9-35.5,35.5-35.5h24.9c19.6,0,35.5,15.9,35.5,35.5V432v9.5c0,19.6,15.9,35.5,35.5,35.5h13.2
		c18.9,0,34.4-14.8,35.5-33.5v-28.2c0-19.6,15.9-35.5,35.5-35.5h24.9c19.6,0,35.5,15.9,35.5,35.5V432v9.5
		c0,19.6,15.9,35.5,35.5,35.5h13.2c18.9,0,34.4-14.8,35.5-33.5v-28.2c0-19.6,15.9-35.5,35.5-35.5h24.9c19.6,0,35.5,15.9,35.5,35.5
		V432v9.5c0,19.6,15.9,35.5,35.5,35.5h13.2c18.9,0,34.4-14.8,35.5-33.5v-28.2c0-19.6,15.9-35.5,35.5-35.5h24.9
		c19.6,0,35.5,15.9,35.5,35.5V432v9.5c0,19.6,15.9,35.5,35.5,35.5h13.2c6.5,0,12.6-1.7,17.8-4.8v-94.5c-3.7,1.3-7.8,2.1-12,2.1
		H1363.1z M41.7,345.1c0,8.6-7,15.6-15.6,15.6h-5.4c-8.6,0-15.6-7-15.6-15.6v-17.4c0-8.6,7-15.6,15.6-15.6h5.4
		c8.6,0,15.6,7,15.6,15.6V345.1z M132.7,427.5c0,8.6-7,15.6-15.6,15.6h-5.4c-8.6,0-15.6-7-15.6-15.6v-17.4c0-8.6,7-15.6,15.6-15.6
		h5.4c8.6,0,15.6,7,15.6,15.6V427.5z M221.5,345.1c0,8.6-7,15.6-15.6,15.6h-5.4c-8.6,0-15.6-7-15.6-15.6v-17.4
		c0-8.6,7-15.6,15.6-15.6h5.4c8.6,0,15.6,7,15.6,15.6V345.1z M314.1,427.5c0,8.6-7,15.6-15.6,15.6h-5.4c-8.6,0-15.6-7-15.6-15.6
		v-17.4c0-8.6,7-15.6,15.6-15.6h5.4c8.6,0,15.6,7,15.6,15.6V427.5z M401.3,345.1c0,8.6-7,15.6-15.6,15.6h-5.4
		c-8.6,0-15.6-7-15.6-15.6v-17.4c0-8.6,7-15.6,15.6-15.6h5.4c8.6,0,15.6,7,15.6,15.6V345.1z M492.3,427.5c0,8.6-7,15.6-15.6,15.6
		h-5.4c-8.6,0-15.6-7-15.6-15.6v-17.4c0-8.6,7-15.6,15.6-15.6h5.4c8.6,0,15.6,7,15.6,15.6V427.5z M581.2,345.1
		c0,8.6-7,15.6-15.6,15.6h-5.4c-8.6,0-15.6-7-15.6-15.6v-17.4c0-8.6,7-15.6,15.6-15.6h5.4c8.6,0,15.6,7,15.6,15.6V345.1z
		 M670.5,427.5c0,8.6-7,15.6-15.6,15.6h-5.4c-8.6,0-15.6-7-15.6-15.6v-17.4c0-8.6,7-15.6,15.6-15.6h5.4c8.6,0,15.6,7,15.6,15.6
		V427.5z M761,345.1c0,8.6-7,15.6-15.6,15.6H740c-8.6,0-15.6-7-15.6-15.6v-17.4c0-8.6,7-15.6,15.6-15.6h5.4c8.6,0,15.6,7,15.6,15.6
		V345.1z M852.6,427.5c0,8.6-7,15.6-15.6,15.6h-5.4c-8.6,0-15.6-7-15.6-15.6v-17.4c0-8.6,7-15.6,15.6-15.6h5.4
		c8.6,0,15.6,7,15.6,15.6V427.5z M940.8,345.1c0,8.6-7,15.6-15.6,15.6h-5.4c-8.6,0-15.6-7-15.6-15.6v-17.4c0-8.6,7-15.6,15.6-15.6
		h5.4c8.6,0,15.6,7,15.6,15.6V345.1z M1033.9,427.5c0,8.6-7,15.6-15.6,15.6h-5.4c-8.6,0-15.6-7-15.6-15.6v-17.4
		c0-8.6,7-15.6,15.6-15.6h5.4c8.6,0,15.6,7,15.6,15.6V427.5z M1120.7,345.1c0,8.6-7,15.6-15.6,15.6h-5.4c-8.6,0-15.6-7-15.6-15.6
		v-17.4c0-8.6,7-15.6,15.6-15.6h5.4c8.6,0,15.6,7,15.6,15.6V345.1z M1216.1,427.5c0,8.6-7,15.6-15.6,15.6h-5.4
		c-8.6,0-15.6-7-15.6-15.6v-17.4c0-8.6,7-15.6,15.6-15.6h5.4c8.6,0,15.6,7,15.6,15.6V427.5z M1300.5,345.1c0,8.6-7,15.6-15.6,15.6
		h-5.4c-8.6,0-15.6-7-15.6-15.6v-17.4c0-8.6,7-15.6,15.6-15.6h5.4c8.6,0,15.6,7,15.6,15.6V345.1z M1396.1,410.1v17.4
		c0,8.6-7,15.6-15.6,15.6h-5.4c-8.6,0-15.6-7-15.6-15.6v-17.4c0-8.6,7-15.6,15.6-15.6h5.4C1389.1,394.6,1396.1,401.5,1396.1,410.1z"
		/>
	<path class="st0" d="M432.7-200.9v9.5c0,19.6,15.9,35.5,35.5,35.5h13.2c18.9,0,34.4-14.8,35.5-33.5v-28.2c0-7.1,2.1-13.7,5.6-19.2
		h-39.1c5.2,2.5,8.9,7.8,8.9,14v17.4c0,8.6-7,15.6-15.6,15.6h-5.4c-8.6,0-15.6-7-15.6-15.6v-17.4c0-6.2,3.6-11.5,8.9-14H427
		c3.6,5.5,5.6,12.1,5.6,19.2v16.7H432.7z"/>
	<path class="st0" d="M612.9-200.9v9.5c0,19.6,15.9,35.5,35.5,35.5h13.2c18.9,0,34.4-14.8,35.5-33.5v-28.2c0-7.1,2.1-13.7,5.6-19.2
		h-41.1c5.2,2.5,8.9,7.8,8.9,14v17.4c0,8.6-7,15.6-15.6,15.6h-5.4c-8.6,0-15.6-7-15.6-15.6v-17.4c0-6.2,3.6-11.5,8.9-14h-35.6
		c3.6,5.5,5.6,12.1,5.6,19.2L612.9-200.9L612.9-200.9z"/>
	<path class="st2" d="M72.4-200.9v9.5c0,19.6,15.9,35.5,35.5,35.5h13.2c18.9,0,34.4-14.8,35.5-33.5v-28.2c0-7.1,2.1-13.7,5.6-19.2
		h-38.5c5.2,2.5,8.9,7.8,8.9,14v17.4c0,8.6-7,15.6-15.6,15.6h-5.4c-8.6,0-15.6-7-15.6-15.6v-17.4c0-6.2,3.6-11.5,8.9-14H66.8
		c3.6,5.5,5.6,12.1,5.6,19.2V-200.9z"/>
	<path class="st0" d="M252.6-200.9v9.5c0,19.6,15.9,35.5,35.5,35.5h13.2c18.9,0,34.4-14.8,35.5-33.5v-28.2c0-7.1,2.1-13.7,5.6-19.2
		h-37.1c5.2,2.5,8.9,7.8,8.9,14v17.4c0,8.6-7,15.6-15.6,15.6h-5.4c-8.6,0-15.6-7-15.6-15.6v-17.4c0-6.2,3.6-11.5,8.9-14h-39.6
		c3.6,5.5,5.6,12.1,5.6,19.2v16.7H252.6z"/>
	<path class="st0" d="M1153.3-200.9v9.5c0,19.6,15.9,35.5,35.5,35.5h13.2c18.9,0,34.4-14.8,35.5-33.5v-28.2c0-7.1,2.1-13.7,5.6-19.2
		h-35.9c5.2,2.5,8.9,7.8,8.9,14v17.4c0,8.6-7,15.6-15.6,15.6h-5.4c-8.6,0-15.6-7-15.6-15.6v-17.4c0-6.2,3.6-11.5,8.9-14h-40.8
		c3.6,5.5,5.6,12.1,5.6,19.2v16.7H1153.3z"/>
	<path class="st0" d="M973.2-200.9v9.5c0,19.6,15.9,35.5,35.5,35.5h13.2c18.9,0,34.4-14.8,35.5-33.5v-28.2c0-7.1,2.1-13.7,5.6-19.2
		h-38c5.2,2.5,8.9,7.8,8.9,14v17.4c0,8.6-7,15.6-15.6,15.6h-5.4c-8.6,0-15.6-7-15.6-15.6v-17.4c0-6.2,3.6-11.5,8.9-14h-38.8
		c3.6,5.5,5.6,12.1,5.6,19.2v16.7H973.2z"/>
	<path class="st0" d="M793-200.9v9.5c0,19.6,15.9,35.5,35.5,35.5h13.2c18.9,0,34.4-14.8,35.5-33.5v-28.2c0-7.1,2.1-13.7,5.6-19.2
		h-39.1c5.2,2.5,8.9,7.8,8.9,14v17.4c0,8.6-7,15.6-15.6,15.6h-5.4c-8.6,0-15.6-7-15.6-15.6v-17.4c0-6.2,3.6-11.5,8.9-14h-37.6
		c3.6,5.5,5.6,12.1,5.6,19.2L793-200.9L793-200.9z"/>
	<path class="st0" d="M426.8,707.3v-9.5c0-19.6-15.9-35.5-35.5-35.5h-13.2c-18.9,0-34.4,14.8-35.5,33.5V724c0,7.1-2.1,13.7-5.6,19.2
		h95.5c-3.6-5.5-5.6-12.1-5.6-19.2L426.8,707.3L426.8,707.3z M401.3,724.8c0,8.6-7,15.6-15.6,15.6h-5.4c-8.6,0-15.6-7-15.6-15.6
		v-17.4c0-8.6,7-15.6,15.6-15.6h5.4c8.6,0,15.6,7,15.6,15.6V724.8z"/>
	<path class="st0" d="M787.1,707.3v-9.5c0-19.6-15.9-35.5-35.5-35.5h-13.2c-18.9,0-34.4,14.8-35.5,33.5V724c0,7.1-2.1,13.7-5.6,19.2
		h95.5c-3.6-5.5-5.6-12.1-5.6-19.2v-16.7H787.1z M761,724.8c0,8.6-7,15.6-15.6,15.6H740c-8.6,0-15.6-7-15.6-15.6v-17.4
		c0-8.6,7-15.6,15.6-15.6h5.4c8.6,0,15.6,7,15.6,15.6V724.8z"/>
	<path class="st0" d="M967.3,707.3v-9.5c0-19.6-15.9-35.5-35.5-35.5h-13.2c-18.9,0-34.4,14.8-35.5,33.5V724c0,7.1-2.1,13.7-5.6,19.2
		H973c-3.6-5.5-5.6-12.1-5.6-19.2v-16.7H967.3z M940.8,724.8c0,8.6-7,15.6-15.6,15.6h-5.4c-8.6,0-15.6-7-15.6-15.6v-17.4
		c0-8.6,7-15.6,15.6-15.6h5.4c8.6,0,15.6,7,15.6,15.6V724.8z"/>
	<path class="st0" d="M66.5,707.3v-9.5c0-19.6-15.9-35.5-35.5-35.5H17.8c-6.5,0-12.6,1.7-17.8,4.8v76.1h72.2
		c-3.6-5.5-5.6-12.1-5.6-19.2L66.5,707.3L66.5,707.3z M41.7,724.8c0,8.6-7,15.6-15.6,15.6h-5.4c-8.6,0-15.6-7-15.6-15.6v-17.4
		c0-8.6,7-15.6,15.6-15.6h5.4c8.6,0,15.6,7,15.6,15.6V724.8z"/>
	<path class="st0" d="M1147.4,707.3v-9.5c0-19.6-15.9-35.5-35.5-35.5h-13.2c-18.9,0-34.4,14.8-35.5,33.5V724
		c0,7.1-2.1,13.7-5.6,19.2h95.5c-3.6-5.5-5.6-12.1-5.6-19.2v-16.7H1147.4z M1120.7,724.8c0,8.6-7,15.6-15.6,15.6h-5.4
		c-8.6,0-15.6-7-15.6-15.6v-17.4c0-8.6,7-15.6,15.6-15.6h5.4c8.6,0,15.6,7,15.6,15.6V724.8z"/>
	<path class="st0" d="M246.7,707.3v-9.5c0-19.6-15.9-35.5-35.5-35.5H198c-18.9,0-34.4,14.8-35.5,33.5V724c0,7.1-2.1,13.7-5.6,19.2
		h95.5c-3.6-5.5-5.6-12.1-5.6-19.2L246.7,707.3L246.7,707.3z M221.5,724.8c0,8.6-7,15.6-15.6,15.6h-5.4c-8.6,0-15.6-7-15.6-15.6
		v-17.4c0-8.6,7-15.6,15.6-15.6h5.4c8.6,0,15.6,7,15.6,15.6V724.8z"/>
	<path class="st0" d="M607,707.3v-9.5c0-19.6-15.9-35.5-35.5-35.5h-13.2c-18.9,0-34.4,14.8-35.5,33.5V724c0,7.1-2.1,13.7-5.6,19.2
		h95.5c-3.6-5.5-5.6-12.1-5.6-19.2v-16.7H607z M581.2,724.8c0,8.6-7,15.6-15.6,15.6h-5.4c-8.6,0-15.6-7-15.6-15.6v-17.4
		c0-8.6,7-15.6,15.6-15.6h5.4c8.6,0,15.6,7,15.6,15.6V724.8z"/>
	<path class="st0" d="M1327.6,707.3v-9.5c0-19.6-15.9-35.5-35.5-35.5h-13.2c-18.9,0-34.4,14.8-35.5,33.5V724
		c0,7.1-2.1,13.7-5.6,19.2h95.5c-3.6-5.5-5.6-12.1-5.6-19.2v-16.7H1327.6z M1300.5,724.8c0,8.6-7,15.6-15.6,15.6h-5.4
		c-8.6,0-15.6-7-15.6-15.6v-17.4c0-8.6,7-15.6,15.6-15.6h5.4c8.6,0,15.6,7,15.6,15.6V724.8z"/>
	<path class="st1" d="M1363.1,126.6c-19.6,0-35.5-15.9-35.5-35.5V74.4v-9.5c0-19.6-15.9-35.5-35.5-35.5h-13.2
		c-18.9,0-34.4,14.8-35.5,33.5v28.2c0,19.6-15.9,35.5-35.5,35.5H1183c-19.6,0-35.5-15.9-35.5-35.5V74.4v-9.5
		c0-19.6-15.9-35.5-35.5-35.5h-13.2c-18.9,0-34.4,14.8-35.5,33.5v28.2c0,19.6-15.9,35.5-35.5,35.5h-24.9
		c-19.6,0-35.5-15.9-35.5-35.5V74.4v-9.5c0-19.6-15.9-35.5-35.5-35.5h-13.2c-18.9,0-34.4,14.8-35.5,33.5v28.2
		c0,19.6-15.9,35.5-35.5,35.5h-24.9c-19.6,0-35.5-15.9-35.5-35.5V74.4v-9.5c0-19.6-15.9-35.5-35.5-35.5h-13.2
		c-18.9,0-34.4,14.8-35.5,33.5v28.2c0,19.6-15.9,35.5-35.5,35.5h-24.9c-19.6,0-35.5-15.9-35.5-35.5V74.4v-9.5
		c0-19.6-15.9-35.5-35.5-35.5h-13.2c-18.9,0-34.4,14.8-35.5,33.5v28.2c0,19.6-15.9,35.5-35.5,35.5h-24.9
		c-19.6,0-35.5-15.9-35.5-35.5V74.4v-9.5c0-19.6-15.9-35.5-35.5-35.5h-13.2c-18.9,0-34.4,14.8-35.5,33.5v28.2
		c0,19.6-15.9,35.5-35.5,35.5h-24.9c-19.6,0-35.5-15.9-35.5-35.5V74.4v-9.5c0-19.6-15.9-35.5-35.5-35.5H198
		c-18.9,0-34.4,14.8-35.5,33.5v28.2c0,19.6-15.9,35.5-35.5,35.5h-24.9c-19.6,0-35.5-15.9-35.5-35.5V74.4v-9.5
		c0-19.6-15.9-35.5-35.5-35.5H17.8c-6.5,0-12.6,1.7-17.8,4.8v94.5c3.7-1.3,7.8-2.1,12-2.1h24.9c19.6,0,35.5,15.9,35.5,35.5v16.7v9.5
		c0,19.6,15.9,35.5,35.5,35.5h13.2c18.9,0,34.4-14.8,35.5-33.5v-28.2c0-19.6,15.9-35.5,35.5-35.5H217c19.6,0,35.5,15.9,35.5,35.5
		v16.7v9.5c0,19.6,15.9,35.5,35.5,35.5h13.2c18.9,0,34.4-14.8,35.5-33.5v-28.2c0-19.6,15.9-35.5,35.5-35.5h24.9
		c19.6,0,35.5,15.9,35.5,35.5v16.7v9.5c0,19.6,15.9,35.5,35.5,35.5h13.2c18.9,0,34.4-14.8,35.5-33.5v-28.2
		c0-19.6,15.9-35.5,35.5-35.5h24.9c19.6,0,35.5,15.9,35.5,35.5v16.7v9.5c0,19.6,15.9,35.5,35.5,35.5h13.2
		c18.9,0,34.4-14.8,35.5-33.5v-28.2c0-19.6,15.9-35.5,35.5-35.5h24.9c19.6,0,35.5,15.9,35.5,35.5v16.7v9.5
		c0,19.6,15.9,35.5,35.5,35.5h13.2c18.9,0,34.4-14.8,35.5-33.5v-28.2c0-19.6,15.9-35.5,35.5-35.5h24.9c19.6,0,35.5,15.9,35.5,35.5
		v16.7v9.5c0,19.6,15.9,35.5,35.5,35.5h13.2c18.9,0,34.4-14.8,35.5-33.5v-28.2c0-19.6,15.9-35.5,35.5-35.5h24.9
		c19.6,0,35.5,15.9,35.5,35.5v16.7v9.5c0,19.6,15.9,35.5,35.5,35.5h13.2c18.9,0,34.4-14.8,35.5-33.5v-28.2
		c0-19.6,15.9-35.5,35.5-35.5h24.9c19.6,0,35.5,15.9,35.5,35.5v16.7v9.5c0,19.6,15.9,35.5,35.5,35.5h13.2c6.5,0,12.6-1.7,17.8-4.8
		v-94.5c-3.7,1.3-7.8,2.1-12,2.1H1363.1z M41.7,91.9c0,8.6-7,15.6-15.6,15.6h-5.4c-8.6,0-15.6-7-15.6-15.6V74.5
		c0-8.6,7-15.6,15.6-15.6h5.4c8.6,0,15.6,7,15.6,15.6V91.9z M132.7,174.3c0,8.6-7,15.6-15.6,15.6h-5.4c-8.6,0-15.6-7-15.6-15.6
		v-17.4c0-8.6,7-15.6,15.6-15.6h5.4c8.6,0,15.6,7,15.6,15.6V174.3z M221.5,91.9c0,8.6-7,15.6-15.6,15.6h-5.4
		c-8.6,0-15.6-7-15.6-15.6V74.5c0-8.6,7-15.6,15.6-15.6h5.4c8.6,0,15.6,7,15.6,15.6V91.9z M314.1,174.3c0,8.6-7,15.6-15.6,15.6h-5.4
		c-8.6,0-15.6-7-15.6-15.6v-17.4c0-8.6,7-15.6,15.6-15.6h5.4c8.6,0,15.6,7,15.6,15.6V174.3z M401.3,91.9c0,8.6-7,15.6-15.6,15.6
		h-5.4c-8.6,0-15.6-7-15.6-15.6V74.5c0-8.6,7-15.6,15.6-15.6h5.4c8.6,0,15.6,7,15.6,15.6V91.9z M492.3,174.3c0,8.6-7,15.6-15.6,15.6
		h-5.4c-8.6,0-15.6-7-15.6-15.6v-17.4c0-8.6,7-15.6,15.6-15.6h5.4c8.6,0,15.6,7,15.6,15.6V174.3z M581.2,91.9
		c0,8.6-7,15.6-15.6,15.6h-5.4c-8.6,0-15.6-7-15.6-15.6V74.5c0-8.6,7-15.6,15.6-15.6h5.4c8.6,0,15.6,7,15.6,15.6V91.9z M670.5,174.3
		c0,8.6-7,15.6-15.6,15.6h-5.4c-8.6,0-15.6-7-15.6-15.6v-17.4c0-8.6,7-15.6,15.6-15.6h5.4c8.6,0,15.6,7,15.6,15.6V174.3z M761,91.9
		c0,8.6-7,15.6-15.6,15.6H740c-8.6,0-15.6-7-15.6-15.6V74.5c0-8.6,7-15.6,15.6-15.6h5.4c8.6,0,15.6,7,15.6,15.6V91.9z M852.6,174.3
		c0,8.6-7,15.6-15.6,15.6h-5.4c-8.6,0-15.6-7-15.6-15.6v-17.4c0-8.6,7-15.6,15.6-15.6h5.4c8.6,0,15.6,7,15.6,15.6V174.3z
		 M940.8,91.9c0,8.6-7,15.6-15.6,15.6h-5.4c-8.6,0-15.6-7-15.6-15.6V74.5c0-8.6,7-15.6,15.6-15.6h5.4c8.6,0,15.6,7,15.6,15.6V91.9z
		 M1033.9,174.3c0,8.6-7,15.6-15.6,15.6h-5.4c-8.6,0-15.6-7-15.6-15.6v-17.4c0-8.6,7-15.6,15.6-15.6h5.4c8.6,0,15.6,7,15.6,15.6
		V174.3z M1120.7,91.9c0,8.6-7,15.6-15.6,15.6h-5.4c-8.6,0-15.6-7-15.6-15.6V74.5c0-8.6,7-15.6,15.6-15.6h5.4
		c8.6,0,15.6,7,15.6,15.6V91.9z M1216.1,174.3c0,8.6-7,15.6-15.6,15.6h-5.4c-8.6,0-15.6-7-15.6-15.6v-17.4c0-8.6,7-15.6,15.6-15.6
		h5.4c8.6,0,15.6,7,15.6,15.6V174.3z M1300.5,91.9c0,8.6-7,15.6-15.6,15.6h-5.4c-8.6,0-15.6-7-15.6-15.6V74.5
		c0-8.6,7-15.6,15.6-15.6h5.4c8.6,0,15.6,7,15.6,15.6V91.9z M1396.1,157v17.4c0,8.6-7,15.6-15.6,15.6h-5.4c-8.6,0-15.6-7-15.6-15.6
		V157c0-8.6,7-15.6,15.6-15.6h5.4C1389.1,141.4,1396.1,148.4,1396.1,157z"/>
	<path class="st1" d="M1363.1-126.5c-19.6,0-35.5-15.9-35.5-35.5v-16.7v-9.5c0-19.6-15.9-35.5-35.5-35.5h-13.2
		c-18.9,0-34.4,14.8-35.5,33.5v28.2c0,19.6-15.9,35.5-35.5,35.5H1183c-19.6,0-35.5-15.9-35.5-35.5v-16.7v-9.5
		c0-19.6-15.9-35.5-35.5-35.5h-13.2c-18.9,0-34.4,14.8-35.5,33.5v28.2c0,19.6-15.9,35.5-35.5,35.5h-24.9
		c-19.6,0-35.5-15.9-35.5-35.5v-16.7v-9.5c0-19.6-15.9-35.5-35.5-35.5h-13.2c-18.9,0-34.4,14.8-35.5,33.5v28.2
		c0,19.6-15.9,35.5-35.5,35.5h-24.9c-19.6,0-35.5-15.9-35.5-35.5v-16.7v-9.5c0-19.6-15.9-35.5-35.5-35.5h-13.2
		c-19.1-0.1-34.6,14.8-35.6,33.4v28.2c0,19.6-15.9,35.5-35.5,35.5h-24.9c-19.6,0-35.5-15.9-35.5-35.5v-16.6v-9.5
		c0-19.6-15.9-35.5-35.5-35.5h-13.2c-18.9,0-34.4,14.8-35.5,33.5v28.2c0,19.6-15.9,35.5-35.5,35.5h-24.9
		c-19.6,0-35.5-15.9-35.5-35.5v-16.7v-9.5c0-19.6-15.9-35.5-35.5-35.5h-13.2c-18.9,0-34.4,14.8-35.5,33.5v28.2
		c0,19.6-15.9,35.5-35.5,35.5h-24.9c-19.6,0-35.5-15.9-35.5-35.5v-16.7v-9.5c0-19.6-15.9-35.5-35.5-35.5H198
		c-18.9,0-34.4,14.8-35.5,33.5v28.2c0,19.6-15.9,35.5-35.5,35.5h-24.9c-19.6,0-35.5-15.9-35.5-35.5v-16.7v-9.5
		c-0.1-19.7-16-35.6-35.6-35.6H17.8c-6.5,0-12.6,1.8-17.8,4.8v94.5c3.7-1.3,7.8-2.1,12-2.1h24.9c19.6,0,35.5,15.9,35.5,35.5v16.7
		v9.5c0,19.6,15.9,35.5,35.5,35.5h13.2c18.9,0,34.4-14.8,35.5-33.5v-28.2c0-19.6,15.9-35.5,35.5-35.5H217
		c19.6,0,35.5,15.9,35.5,35.5v16.7v9.5c0,19.6,15.9,35.5,35.5,35.5h13.2c18.9,0,34.4-14.8,35.5-33.5v-28.2
		c0-19.6,15.9-35.5,35.5-35.5h24.9c19.6,0,35.5,15.9,35.5,35.5v16.7v9.5c0,19.6,15.9,35.5,35.5,35.5h13.2
		c18.9,0,34.4-14.8,35.5-33.5v-28.2c0-19.6,15.9-35.5,35.5-35.5h24.9c19.6,0,35.5,15.9,35.5,35.5v16.7v9.5
		c0,19.6,15.9,35.5,35.5,35.5h13.2c18.9,0,34.4-14.8,35.5-33.5v-28.2c0-19.6,15.9-35.5,35.5-35.5h24.9c19.6,0,35.5,15.9,35.5,35.5
		v16.7v9.5c0,19.6,15.9,35.5,35.5,35.5h13.2c18.9,0,34.4-14.8,35.5-33.5v-28.2c0-19.6,15.9-35.5,35.5-35.5h24.9
		c19.6,0,35.5,15.9,35.5,35.5v16.7v9.5c0,19.6,15.9,35.5,35.5,35.5h13.2c18.9,0,34.4-14.8,35.5-33.5v-28.2
		c0-19.6,15.9-35.5,35.5-35.5h24.9c19.6,0,35.5,15.9,35.5,35.5v16.7v9.5c0,19.6,15.9,35.5,35.5,35.5h13.2
		c18.9,0,34.4-14.8,35.5-33.5v-28.2c0-19.6,15.9-35.5,35.5-35.5h24.9c19.6,0,35.5,15.9,35.5,35.5v16.7v9.5
		c0,19.6,15.9,35.5,35.5,35.5h13.2c6.5,0,12.6-1.7,17.8-4.8v-94.5c-3.7,1.3-7.8,2.1-12,2.1L1363.1-126.5L1363.1-126.5L1363.1-126.5z
		 M41.7-161.2c0,8.6-7,15.6-15.6,15.6h-5.4c-8.6,0-15.6-7-15.6-15.6v-17.4c0-8.6,7-15.6,15.6-15.6h5.4c8.6,0,15.6,7,15.6,15.6
		V-161.2z M132.7-78.8c0,8.6-7,15.6-15.6,15.6h-5.4c-8.6,0-15.6-7-15.6-15.6v-17.4c0-8.6,7-15.6,15.6-15.6h5.4
		c8.6,0,15.6,7,15.6,15.6V-78.8z M221.5-161.2c0,8.6-7,15.6-15.6,15.6h-5.4c-8.6,0-15.6-7-15.6-15.6v-17.4c0-8.6,7-15.6,15.6-15.6
		h5.4c8.6,0,15.6,7,15.6,15.6V-161.2z M314.1-78.8c0,8.6-7,15.6-15.6,15.6h-5.4c-8.6,0-15.6-7-15.6-15.6v-17.4
		c0-8.6,7-15.6,15.6-15.6h5.4c8.6,0,15.6,7,15.6,15.6V-78.8z M401.3-161.2c0,8.6-7,15.6-15.6,15.6h-5.4c-8.6,0-15.6-7-15.6-15.6
		v-17.4c0-8.6,7-15.6,15.6-15.6h5.4c8.6,0,15.6,7,15.6,15.6V-161.2z M492.3-78.8c0,8.6-7,15.6-15.6,15.6h-5.4
		c-8.6,0-15.6-7-15.6-15.6v-17.4c0-8.6,7-15.6,15.6-15.6h5.4c8.6,0,15.6,7,15.6,15.6V-78.8z M581.2-161.2c0,8.6-7,15.6-15.6,15.6
		h-5.4c-8.6,0-15.6-7-15.6-15.6v-17.4c0-8.6,7-15.6,15.6-15.6h5.4c8.6,0,15.6,7,15.6,15.6V-161.2z M670.5-78.8
		c0,8.6-7,15.6-15.6,15.6h-5.4c-8.6,0-15.6-7-15.6-15.6v-17.4c0-8.6,7-15.6,15.6-15.6h5.4c8.6,0,15.6,7,15.6,15.6V-78.8z M761-161.2
		c0,8.6-7,15.6-15.6,15.6H740c-8.6,0-15.6-7-15.6-15.6v-17.4c0-8.6,7-15.6,15.6-15.6h5.4c8.6,0,15.6,7,15.6,15.6V-161.2z
		 M852.6-78.8c0,8.6-7,15.6-15.6,15.6h-5.4c-8.6,0-15.6-7-15.6-15.6v-17.4c0-8.6,7-15.6,15.6-15.6h5.4c8.6,0,15.6,7,15.6,15.6V-78.8
		z M940.8-161.2c0,8.6-7,15.6-15.6,15.6h-5.4c-8.6,0-15.6-7-15.6-15.6v-17.4c0-8.6,7-15.6,15.6-15.6h5.4c8.6,0,15.6,7,15.6,15.6
		V-161.2z M1033.9-78.8c0,8.6-7,15.6-15.6,15.6h-5.4c-8.6,0-15.6-7-15.6-15.6v-17.4c0-8.6,7-15.6,15.6-15.6h5.4
		c8.6,0,15.6,7,15.6,15.6V-78.8z M1120.7-161.2c0,8.6-7,15.6-15.6,15.6h-5.4c-8.6,0-15.6-7-15.6-15.6v-17.4c0-8.6,7-15.6,15.6-15.6
		h5.4c8.6,0,15.6,7,15.6,15.6V-161.2z M1216.1-78.8c0,8.6-7,15.6-15.6,15.6h-5.4c-8.6,0-15.6-7-15.6-15.6v-17.4
		c0-8.6,7-15.6,15.6-15.6h5.4c8.6,0,15.6,7,15.6,15.6V-78.8z M1300.5-161.2c0,8.6-7,15.6-15.6,15.6h-5.4c-8.6,0-15.6-7-15.6-15.6
		v-17.4c0-8.6,7-15.6,15.6-15.6h5.4c8.6,0,15.6,7,15.6,15.6V-161.2z M1396.1-96.2v17.4c0,8.6-7,15.6-15.6,15.6h-5.4
		c-8.6,0-15.6-7-15.6-15.6v-17.4c0-8.6,7-15.6,15.6-15.6h5.4C1389.1-111.7,1396.1-104.8,1396.1-96.2z"/>
	<path class="st0" d="M1363.1,253.2c-19.6,0-35.5-15.9-35.5-35.5V201v-9.5c0-19.6-15.9-35.5-35.5-35.5h-13.2
		c-18.9,0-34.4,14.8-35.5,33.5v28.2c0,19.6-15.9,35.5-35.5,35.5H1183c-19.6,0-35.5-15.9-35.5-35.5V201v-9.5
		c0-19.6-15.9-35.5-35.5-35.5h-13.2c-18.9,0-34.4,14.8-35.5,33.5v28.2c0,19.6-15.9,35.5-35.5,35.5h-24.9
		c-19.6,0-35.5-15.9-35.5-35.5V201v-9.5c0-19.6-15.9-35.5-35.5-35.5h-13.2c-18.9,0-34.4,14.8-35.5,33.5v28.2
		c0,19.6-15.9,35.5-35.5,35.5h-24.9c-19.6,0-35.5-15.9-35.5-35.5V201v-9.5c0-19.6-15.9-35.5-35.5-35.5h-13.2
		c-18.9,0-34.4,14.8-35.5,33.5v28.2c0,19.6-15.9,35.5-35.5,35.5h-24.9c-19.6,0-35.5-15.9-35.5-35.5V201v-9.5
		c0-19.6-15.9-35.5-35.5-35.5h-13.2c-18.9,0-34.4,14.8-35.5,33.5v28.2c0,19.6-15.9,35.5-35.5,35.5h-24.9
		c-19.6,0-35.5-15.9-35.5-35.5V201v-9.5c0-19.6-15.9-35.5-35.5-35.5h-13.2c-18.9,0-34.4,14.8-35.5,33.5v28.2
		c0,19.6-15.9,35.5-35.5,35.5h-24.9c-19.6,0-35.5-15.9-35.5-35.5V201v-9.5c0-19.6-15.9-35.5-35.5-35.5H198
		c-18.9,0-34.4,14.8-35.5,33.5v28.2c0,19.6-15.9,35.5-35.5,35.5h-24.9c-19.6,0-35.5-15.9-35.5-35.5V201v-9.5
		c0-19.6-15.9-35.5-35.5-35.5H17.8c-6.5,0-12.6,1.7-17.8,4.8v94.5c3.7-1.3,7.8-2.1,12-2.1h24.9c19.6,0,35.5,15.9,35.5,35.5v16.7v9.5
		c0,19.6,15.9,35.5,35.5,35.5h13.2c18.9,0,34.4-14.8,35.5-33.5v-28.2c0-19.6,15.9-35.5,35.5-35.5H217c19.6,0,35.5,15.9,35.5,35.5
		v16.7v9.5c0,19.6,15.9,35.5,35.5,35.5h13.2c18.9,0,34.4-14.8,35.5-33.5v-28.2c0-19.6,15.9-35.5,35.5-35.5h24.9
		c19.6,0,35.5,15.9,35.5,35.5v16.7v9.5c0,19.6,15.9,35.5,35.5,35.5h13.2c18.9,0,34.4-14.8,35.5-33.5v-28.2
		c0-19.6,15.9-35.5,35.5-35.5h24.9c19.6,0,35.5,15.9,35.5,35.5v16.7v9.5c0,19.6,15.9,35.5,35.5,35.5h13.2
		c18.9,0,34.4-14.8,35.5-33.5v-28.2c0-19.6,15.9-35.5,35.5-35.5h24.9c19.6,0,35.5,15.9,35.5,35.5v16.7v9.5
		c0,19.6,15.9,35.5,35.5,35.5h13.2c18.9,0,34.4-14.8,35.5-33.5v-28.2c0-19.6,15.9-35.5,35.5-35.5h24.9c19.6,0,35.5,15.9,35.5,35.5
		v16.7v9.5c0,19.6,15.9,35.5,35.5,35.5h13.2c18.9,0,34.4-14.8,35.5-33.5v-28.2c0-19.6,15.9-35.5,35.5-35.5h24.9
		c19.6,0,35.5,15.9,35.5,35.5v16.7v9.5c0,19.6,15.9,35.5,35.5,35.5h13.2c18.9,0,34.4-14.8,35.5-33.5v-28.2
		c0-19.6,15.9-35.5,35.5-35.5h24.9c19.6,0,35.5,15.9,35.5,35.5v16.7v9.5c0,19.6,15.9,35.5,35.5,35.5h13.2c6.5,0,12.6-1.7,17.8-4.8
		v-94.5c-3.7,1.3-7.8,2.1-12,2.1L1363.1,253.2L1363.1,253.2z M41.7,218.5c0,8.6-7,15.6-15.6,15.6h-5.4c-8.6,0-15.6-7-15.6-15.6
		v-17.4c0-8.6,7-15.6,15.6-15.6h5.4c8.6,0,15.6,7,15.6,15.6V218.5z M132.7,300.9c0,8.6-7,15.6-15.6,15.6h-5.4
		c-8.6,0-15.6-7-15.6-15.6v-17.4c0-8.6,7-15.6,15.6-15.6h5.4c8.6,0,15.6,7,15.6,15.6V300.9z M221.5,218.5c0,8.6-7,15.6-15.6,15.6
		h-5.4c-8.6,0-15.6-7-15.6-15.6v-17.4c0-8.6,7-15.6,15.6-15.6h5.4c8.6,0,15.6,7,15.6,15.6V218.5z M314.1,300.9
		c0,8.6-7,15.6-15.6,15.6h-5.4c-8.6,0-15.6-7-15.6-15.6v-17.4c0-8.6,7-15.6,15.6-15.6h5.4c8.6,0,15.6,7,15.6,15.6V300.9z
		 M401.3,218.5c0,8.6-7,15.6-15.6,15.6h-5.4c-8.6,0-15.6-7-15.6-15.6v-17.4c0-8.6,7-15.6,15.6-15.6h5.4c8.6,0,15.6,7,15.6,15.6
		V218.5z M492.3,300.9c0,8.6-7,15.6-15.6,15.6h-5.4c-8.6,0-15.6-7-15.6-15.6v-17.4c0-8.6,7-15.6,15.6-15.6h5.4
		c8.6,0,15.6,7,15.6,15.6V300.9z M581.2,218.5c0,8.6-7,15.6-15.6,15.6h-5.4c-8.6,0-15.6-7-15.6-15.6v-17.4c0-8.6,7-15.6,15.6-15.6
		h5.4c8.6,0,15.6,7,15.6,15.6V218.5z M670.5,300.9c0,8.6-7,15.6-15.6,15.6h-5.4c-8.6,0-15.6-7-15.6-15.6v-17.4
		c0-8.6,7-15.6,15.6-15.6h5.4c8.6,0,15.6,7,15.6,15.6V300.9z M761,218.5c0,8.6-7,15.6-15.6,15.6H740c-8.6,0-15.6-7-15.6-15.6v-17.4
		c0-8.6,7-15.6,15.6-15.6h5.4c8.6,0,15.6,7,15.6,15.6V218.5z M852.6,300.9c0,8.6-7,15.6-15.6,15.6h-5.4c-8.6,0-15.6-7-15.6-15.6
		v-17.4c0-8.6,7-15.6,15.6-15.6h5.4c8.6,0,15.6,7,15.6,15.6V300.9z M940.8,218.5c0,8.6-7,15.6-15.6,15.6h-5.4
		c-8.6,0-15.6-7-15.6-15.6v-17.4c0-8.6,7-15.6,15.6-15.6h5.4c8.6,0,15.6,7,15.6,15.6V218.5z M1033.9,300.9c0,8.6-7,15.6-15.6,15.6
		h-5.4c-8.6,0-15.6-7-15.6-15.6v-17.4c0-8.6,7-15.6,15.6-15.6h5.4c8.6,0,15.6,7,15.6,15.6V300.9z M1120.7,218.5
		c0,8.6-7,15.6-15.6,15.6h-5.4c-8.6,0-15.6-7-15.6-15.6v-17.4c0-8.6,7-15.6,15.6-15.6h5.4c8.6,0,15.6,7,15.6,15.6V218.5z
		 M1216.1,300.9c0,8.6-7,15.6-15.6,15.6h-5.4c-8.6,0-15.6-7-15.6-15.6v-17.4c0-8.6,7-15.6,15.6-15.6h5.4c8.6,0,15.6,7,15.6,15.6
		V300.9z M1300.5,218.5c0,8.6-7,15.6-15.6,15.6h-5.4c-8.6,0-15.6-7-15.6-15.6v-17.4c0-8.6,7-15.6,15.6-15.6h5.4
		c8.6,0,15.6,7,15.6,15.6V218.5z M1396.1,283.6V301c0,8.6-7,15.6-15.6,15.6h-5.4c-8.6,0-15.6-7-15.6-15.6v-17.4
		c0-8.6,7-15.6,15.6-15.6h5.4C1389.1,268,1396.1,275,1396.1,283.6z"/>
	<path class="st0" d="M1387.2-236.8c5.2,2.5,8.9,7.8,8.9,14v17.4c0,8.6-7,15.6-15.6,15.6h-5.4c-8.6,0-15.6-7-15.6-15.6v-17.4
		c0-6.2,3.6-11.5,8.9-14h-40.7c3.6,5.5,5.6,12.1,5.6,19.2v16.7v9.5c0,19.6,15.9,35.5,35.5,35.5h13.2c6.5,0,12.6-1.7,17.8-4.8v-76.1
		H1387.2z"/>
	<path class="st0" d="M1363.1,0c-19.6,0-35.5-15.9-35.5-35.5v-16.7v-9.5c0-19.6-15.9-35.5-35.5-35.5h-13.2
		c-18.9,0-34.4,14.8-35.5,33.5v28.2c0,19.6-15.9,35.5-35.5,35.5H1183c-19.6,0-35.5-15.9-35.5-35.5v-16.7v-9.5
		c0-19.6-15.9-35.5-35.5-35.5h-13.2c-18.9,0-34.4,14.8-35.5,33.5v28.2c0,19.6-15.9,35.5-35.5,35.5h-24.9
		c-19.6,0-35.5-15.9-35.5-35.5v-16.7v-9.5c0-19.6-15.9-35.5-35.5-35.5h-13.2c-18.9,0-34.4,14.8-35.5,33.5v28.2
		c0,19.6-15.9,35.5-35.5,35.5h-24.9c-19.6,0-35.5-15.9-35.5-35.5v-16.7v-9.5c0-19.6-15.9-35.5-35.5-35.5h-13.2
		c-18.9,0-34.4,14.8-35.5,33.5v28.2c0,19.6-15.9,35.5-35.5,35.5h-24.9c-19.6,0-35.5-15.9-35.5-35.5v-16.7v-9.5
		c0-19.6-15.9-35.5-35.5-35.5h-13.2c-18.9,0-34.4,14.8-35.5,33.5v28.2C523-15.9,507.1,0,487.5,0h-24.9c-19.6,0-35.5-15.9-35.5-35.5
		v-16.7v-9.5c0-19.6-15.9-35.5-35.5-35.5h-13.2c-18.9,0-34.4,14.8-35.5,33.5v28.2C342.9-15.9,327,0,307.4,0h-24.9
		C262.9,0,247-15.9,247-35.5v-16.7v-9.5c0-19.6-15.9-35.5-35.5-35.5H198c-18.9,0-34.4,14.8-35.5,33.5v28.2C162.5-15.9,146.6,0,127,0
		h-24.9C82.5,0,66.6-15.9,66.6-35.5v-16.7v-9.5c0-19.6-15.9-35.5-35.5-35.5H17.8c-6.5,0-12.6,1.7-17.8,4.8V2.1C3.7,0.8,7.8,0,12,0
		h24.9c19.6,0,35.5,15.9,35.5,35.5v16.7v9.5c0,19.6,15.9,35.5,35.5,35.5h13.2c18.9,0,34.4-14.8,35.5-33.5V35.5
		c0-19.6,15.9-35.5,35.5-35.5H217c19.6,0,35.5,15.9,35.5,35.5v16.7v9.5c0,19.6,15.9,35.5,35.5,35.5h13.2c18.9,0,34.4-14.8,35.5-33.5
		V35.5c0-19.6,15.9-35.5,35.5-35.5h24.9c19.6,0,35.5,15.9,35.5,35.5v16.7v9.5c0,19.6,15.9,35.5,35.5,35.5h13.2
		c18.9,0,34.4-14.8,35.5-33.5V35.5c0-19.6,15.9-35.5,35.5-35.5h24.9c19.6,0,35.5,15.9,35.5,35.5v16.7v9.5
		c0,19.6,15.9,35.5,35.5,35.5h13.2c18.9,0,34.4-14.8,35.5-33.5V35.5c0-19.6,15.9-35.5,35.5-35.5h24.9c19.6,0,35.5,15.9,35.5,35.5
		v16.7v9.5c0,19.6,15.9,35.5,35.5,35.5h13.2c18.9,0,34.4-14.8,35.5-33.5V35.5C877,15.9,892.9,0,912.5,0h24.9
		c19.6,0,35.5,15.9,35.5,35.5v16.7v9.5c0,19.6,15.9,35.5,35.5,35.5h13.2c18.9,0,34.4-14.8,35.5-33.5V35.5
		c0-19.6,15.9-35.5,35.5-35.5h24.9c19.6,0,35.5,15.9,35.5,35.5v16.7v9.5c0,19.6,15.9,35.5,35.5,35.5h13.2
		c18.9,0,34.4-14.8,35.5-33.5V35.5c0-19.6,15.9-35.5,35.5-35.5h24.9c19.6,0,35.5,15.9,35.5,35.5v16.7v9.5
		c0,19.6,15.9,35.5,35.5,35.5h13.2c6.5,0,12.6-1.7,17.8-4.8V-2.1c-3.7,1.3-7.8,2.1-12,2.1L1363.1,0L1363.1,0z M41.7-34.7
		c0,8.6-7,15.6-15.6,15.6h-5.4c-8.6,0-15.6-7-15.6-15.6v-17.4c0-8.6,7-15.6,15.6-15.6h5.4c8.6,0,15.6,7,15.6,15.6V-34.7z
		 M132.7,47.8c0,8.6-7,15.6-15.6,15.6h-5.4c-8.6,0-15.6-7-15.6-15.6V30.4c0-8.6,7-15.6,15.6-15.6h5.4c8.6,0,15.6,7,15.6,15.6V47.8z
		 M221.5-34.7c0,8.6-7,15.6-15.6,15.6h-5.4c-8.6,0-15.6-7-15.6-15.6v-17.4c0-8.6,7-15.6,15.6-15.6h5.4c8.6,0,15.6,7,15.6,15.6V-34.7
		z M314.1,47.8c0,8.6-7,15.6-15.6,15.6h-5.4c-8.6,0-15.6-7-15.6-15.6V30.4c0-8.6,7-15.6,15.6-15.6h5.4c8.6,0,15.6,7,15.6,15.6V47.8z
		 M401.3-34.7c0,8.6-7,15.6-15.6,15.6h-5.4c-8.6,0-15.6-7-15.6-15.6v-17.4c0-8.6,7-15.6,15.6-15.6h5.4c8.6,0,15.6,7,15.6,15.6V-34.7
		z M492.3,47.8c0,8.6-7,15.6-15.6,15.6h-5.4c-8.6,0-15.6-7-15.6-15.6V30.4c0-8.6,7-15.6,15.6-15.6h5.4c8.6,0,15.6,7,15.6,15.6V47.8z
		 M581.2-34.7c0,8.6-7,15.6-15.6,15.6h-5.4c-8.6,0-15.6-7-15.6-15.6v-17.4c0-8.6,7-15.6,15.6-15.6h5.4c8.6,0,15.6,7,15.6,15.6V-34.7
		z M670.5,47.8c0,8.6-7,15.6-15.6,15.6h-5.4c-8.6,0-15.6-7-15.6-15.6V30.4c0-8.6,7-15.6,15.6-15.6h5.4c8.6,0,15.6,7,15.6,15.6V47.8z
		 M761-34.7c0,8.6-7,15.6-15.6,15.6H740c-8.6,0-15.6-7-15.6-15.6v-17.4c0-8.6,7-15.6,15.6-15.6h5.4c8.6,0,15.6,7,15.6,15.6V-34.7z
		 M852.6,47.8c0,8.6-7,15.6-15.6,15.6h-5.4c-8.6,0-15.6-7-15.6-15.6V30.4c0-8.6,7-15.6,15.6-15.6h5.4c8.6,0,15.6,7,15.6,15.6V47.8z
		 M940.8-34.7c0,8.6-7,15.6-15.6,15.6h-5.4c-8.6,0-15.6-7-15.6-15.6v-17.4c0-8.6,7-15.6,15.6-15.6h5.4c8.6,0,15.6,7,15.6,15.6V-34.7
		z M1033.9,47.8c0,8.6-7,15.6-15.6,15.6h-5.4c-8.6,0-15.6-7-15.6-15.6V30.4c0-8.6,7-15.6,15.6-15.6h5.4c8.6,0,15.6,7,15.6,15.6V47.8
		z M1120.7-34.7c0,8.6-7,15.6-15.6,15.6h-5.4c-8.6,0-15.6-7-15.6-15.6v-17.4c0-8.6,7-15.6,15.6-15.6h5.4c8.6,0,15.6,7,15.6,15.6
		V-34.7z M1216.1,47.8c0,8.6-7,15.6-15.6,15.6h-5.4c-8.6,0-15.6-7-15.6-15.6V30.4c0-8.6,7-15.6,15.6-15.6h5.4
		c8.6,0,15.6,7,15.6,15.6V47.8z M1300.5-34.7c0,8.6-7,15.6-15.6,15.6h-5.4c-8.6,0-15.6-7-15.6-15.6v-17.4c0-8.6,7-15.6,15.6-15.6
		h5.4c8.6,0,15.6,7,15.6,15.6V-34.7z M1396.1,30.4v17.4c0,8.6-7,15.6-15.6,15.6h-5.4c-8.6,0-15.6-7-15.6-15.6V30.4
		c0-8.6,7-15.6,15.6-15.6h5.4C1389.1,14.8,1396.1,21.8,1396.1,30.4z"/>
	<path class="st3" d="M1369-155.9c-19.6,0-35.5-15.9-35.5-35.5v-9.5v-16.7c0-7.1-2.1-13.7-5.6-19.2h-84.7
		c-3.6,5.5-5.6,12.1-5.6,19.2v28.2c-1.1,18.7-16.5,33.5-35.5,33.5h-13.2c-19.6,0-35.5-15.9-35.5-35.5v-9.5v-16.7
		c0-7.1-2.1-13.7-5.6-19.2H1063c-3.6,5.5-5.6,12.1-5.6,19.2v28.2c-1.1,18.7-16.5,33.5-35.5,33.5h-13.2c-19.6,0-35.5-15.9-35.5-35.5
		v-9.5v-16.7c0-7.1-2.1-13.7-5.6-19.2h-84.7c-3.6,5.5-5.6,12.1-5.6,19.2v28.2c-1.1,18.7-16.5,33.5-35.5,33.5h-13.2
		c-19.7,0-35.6-15.9-35.6-35.5v-9.5v-16.7c0-7.1-2.1-13.7-5.6-19.2h-84.7c-3.6,5.5-5.6,12.1-5.6,19.2v28.2
		c-1.1,18.7-16.5,33.5-35.5,33.5h-13.2c-19.6,0-35.5-15.9-35.5-35.5v-9.5v-16.7c0-7.1-2.1-13.7-5.6-19.2h-84.7
		c-3.6,5.5-5.6,12.1-5.6,19.2v28.2c-1.1,18.7-16.5,33.5-35.5,33.5h-13.2c-19.6,0-35.5-15.9-35.5-35.5v-9.5v-16.7
		c0-7.1-2.1-13.7-5.6-19.2h-84.7c-3.6,5.5-5.6,12.1-5.6,19.2v28.2c-1.1,18.7-16.5,33.5-35.5,33.5h-13.2c-19.6,0-35.5-15.9-35.5-35.5
		v-9.5v-16.7c0-7.1-2.1-13.7-5.6-19.2h-84.7c-3.6,5.5-5.6,12.1-5.6,19.2v28.2c-1.1,18.7-16.5,33.5-35.5,33.5h-13.2
		c-19.6,0-35.5-15.9-35.5-35.5v-9.5v-16.7c0-7.1-2.1-13.7-5.6-19.2H0v17.8c5.2-3,11.3-4.8,17.8-4.8H31c19.6,0,35.5,15.9,35.5,35.5
		v9.5v16.7c0,19.6,15.9,35.5,35.5,35.5h25c19.6,0,35.5-15.9,35.5-35.5v-28.2c1.1-18.6,16.6-33.5,35.5-33.5h13.2
		c19.6,0,35.5,15.9,35.5,35.5v9.5v16.7c0,19.6,15.9,35.5,35.5,35.5h24.9c19.6,0,35.5-15.9,35.5-35.5v-28.2
		c1.1-18.7,16.5-33.5,35.5-33.5h13.2c19.6,0,35.5,15.9,35.5,35.5v9.5v16.7c0,19.6,15.9,35.5,35.5,35.5h24.9
		c19.6,0,35.5-15.9,35.5-35.5v-28.2c1.1-18.7,16.5-33.5,35.5-33.5h13.2c19.6,0,35.5,15.9,35.5,35.5v9.5v16.7
		c0,19.6,15.9,35.5,35.5,35.5h24.9c19.6,0,35.5-15.9,35.5-35.5v-28.2c1.2-18.6,16.7-33.5,35.6-33.5h13.2c19.6,0,35.5,15.9,35.5,35.5
		v9.5v16.7c0,19.6,15.9,35.5,35.5,35.5h24.9c19.6,0,35.5-15.9,35.5-35.5v-28.2c1.1-18.7,16.5-33.5,35.5-33.5h13.2
		c19.6,0,35.5,15.9,35.5,35.5v9.5v16.7c0,19.6,15.9,35.5,35.5,35.5h24.9c19.6,0,35.5-15.9,35.5-35.5v-28.2
		c1.1-18.7,16.5-33.5,35.5-33.5h13.2c19.6,0,35.5,15.9,35.5,35.5v9.5v16.7c0,19.6,15.9,35.5,35.5,35.5h24.9
		c19.6,0,35.5-15.9,35.5-35.5v-28.2c1.1-18.7,16.5-33.5,35.5-33.5h13.2c19.6,0,35.5,15.9,35.5,35.5v9.5v16.7
		c0,19.6,15.9,35.5,35.5,35.5h24.9c4.2,0,8.2-0.7,12-2.1v-32c-5.2,3.1-11.3,4.8-17.8,4.8H1369z"/>
	<path class="st4" d="M96.2-222.8v17.4c0,8.6,7,15.6,15.6,15.6h5.4c8.6,0,15.6-7,15.6-15.6v-17.4c0-6.2-3.6-11.5-8.9-14H105
		C99.8-234.3,96.2-229,96.2-222.8z"/>
	<path class="st4" d="M277.6-222.8v17.4c0,8.6,7,15.6,15.6,15.6h5.4c8.6,0,15.6-7,15.6-15.6v-17.4c0-6.2-3.6-11.5-8.9-14h-18.7
		C281.3-234.3,277.6-229,277.6-222.8z"/>
	<path class="st4" d="M455.8-222.8v17.4c0,8.6,7,15.6,15.6,15.6h5.4c8.6,0,15.6-7,15.6-15.6v-17.4c0-6.2-3.6-11.5-8.9-14h-18.7
		C459.4-234.3,455.8-229,455.8-222.8z"/>
	<path class="st4" d="M634-222.8v17.4c0,8.6,7,15.6,15.6,15.6h5.4c8.6,0,15.6-7,15.6-15.6v-17.4c0-6.2-3.6-11.5-8.9-14H643
		C637.6-234.3,634-229,634-222.8z"/>
	<path class="st4" d="M816.1-222.8v17.4c0,8.6,7,15.6,15.6,15.6h5.4c8.6,0,15.6-7,15.6-15.6v-17.4c0-6.2-3.6-11.5-8.9-14H825
		C819.8-234.3,816.1-229,816.1-222.8z"/>
	<path class="st4" d="M997.4-222.8v17.4c0,8.6,7,15.6,15.6,15.6h5.4c8.6,0,15.6-7,15.6-15.6v-17.4c0-6.2-3.6-11.5-8.9-14h-18.7
		C1001-234.3,997.4-229,997.4-222.8z"/>
	<path class="st4" d="M1179.6-222.8v17.4c0,8.6,7,15.6,15.6,15.6h5.4c8.6,0,15.6-7,15.6-15.6v-17.4c0-6.2-3.6-11.5-8.9-14h-18.7
		C1183.2-234.3,1179.6-229,1179.6-222.8z"/>
	<path class="st4" d="M1359.6-222.8v17.4c0,8.6,7,15.6,15.6,15.6h5.4c8.6,0,15.6-7,15.6-15.6v-17.4c0-6.2-3.6-11.5-8.9-14h-18.7
		C1363.2-234.3,1359.6-229,1359.6-222.8z"/>
	<path class="st4" d="M26.1-194.2h-5.4c-8.6,0-15.6,7-15.6,15.6v17.4c0,8.6,7,15.6,15.6,15.6h5.4c8.6,0,15.6-7,15.6-15.6v-17.4
		C41.7-187.2,34.7-194.2,26.1-194.2z"/>
	<path class="st4" d="M205.9-194.2h-5.4c-8.6,0-15.6,7-15.6,15.6v17.4c0,8.6,7,15.6,15.6,15.6h5.4c8.6,0,15.6-7,15.6-15.6v-17.4
		C221.5-187.2,214.5-194.2,205.9-194.2z"/>
	<path class="st4" d="M385.8-194.2h-5.4c-8.6,0-15.6,7-15.6,15.6v17.4c0,8.6,7,15.6,15.6,15.6h5.4c8.6,0,15.6-7,15.6-15.6v-17.4
		C401.3-187.2,394.4-194.2,385.8-194.2z"/>
	<path class="st4" d="M565.6-194.2h-5.4c-8.6,0-15.6,7-15.6,15.6v17.4c0,8.6,7,15.6,15.6,15.6h5.4c8.6,0,15.6-7,15.6-15.6v-17.4
		C581.2-187.2,574.2-194.2,565.6-194.2z"/>
	<path class="st4" d="M745.4-194.2H740c-8.6,0-15.6,7-15.6,15.6v17.4c0,8.6,7,15.6,15.6,15.6h5.4c8.6,0,15.6-7,15.6-15.6v-17.4
		C761-187.2,754-194.2,745.4-194.2z"/>
	<path class="st4" d="M925.3-194.2h-5.4c-8.6,0-15.6,7-15.6,15.6v17.4c0,8.6,7,15.6,15.6,15.6h5.4c8.6,0,15.6-7,15.6-15.6v-17.4
		C940.8-187.2,933.9-194.2,925.3-194.2z"/>
	<path class="st4" d="M1105.1-194.2h-5.4c-8.6,0-15.6,7-15.6,15.6v17.4c0,8.6,7,15.6,15.6,15.6h5.4c8.6,0,15.6-7,15.6-15.6v-17.4
		C1120.7-187.2,1113.7-194.2,1105.1-194.2z"/>
	<path class="st4" d="M1284.9-194.2h-5.4c-8.6,0-15.6,7-15.6,15.6v17.4c0,8.6,7,15.6,15.6,15.6h5.4c8.6,0,15.6-7,15.6-15.6v-17.4
		C1300.5-187.2,1293.5-194.2,1284.9-194.2z"/>
	<path class="st4" d="M1369-29.3c-19.6,0-35.5-15.9-35.5-35.5v-9.5V-91c0-19.6-15.9-35.5-35.5-35.5h-25c-19.6,0-35.5,15.9-35.5,35.5
		v28.2c-1.1,18.7-16.5,33.5-35.5,33.5h-13.2c-19.6,0-35.5-15.9-35.5-35.5v-9.5V-91c0-19.6-15.9-35.5-35.5-35.5h-24.9
		c-19.6,0-35.5,15.9-35.5,35.5v28.2c-1.1,18.7-16.5,33.5-35.5,33.5h-13.2c-19.6,0-35.5-15.9-35.5-35.5v-9.5V-91
		c0-19.6-15.9-35.5-35.5-35.5h-24.9c-19.6,0-35.5,15.9-35.5,35.5v28.2c-1.1,18.7-16.5,33.5-35.5,33.5h-13.2
		c-19.6,0-35.5-15.9-35.5-35.5v-9.5V-91c0-19.6-15.9-35.5-35.5-35.5h-24.9c-19.6,0-35.5,15.9-35.5,35.5v28.2
		c-1.1,18.7-16.5,33.5-35.5,33.5h-13.2c-19.6,0-35.5-15.9-35.5-35.5v-9.5V-91c0-19.6-15.9-35.5-35.5-35.5h-24.9
		c-19.6,0-35.5,15.9-35.5,35.5v28.2c-1.1,18.7-16.5,33.5-35.5,33.5h-13.2c-19.6,0-35.5-15.9-35.5-35.5v-9.5V-91
		c0-19.6-15.9-35.5-35.5-35.5h-24.9c-19.6,0-35.5,15.9-35.5,35.5v28.2c-1.1,18.7-16.5,33.5-35.5,33.5h-13.2
		c-19.6,0-35.5-15.9-35.5-35.5v-9.5V-91c0-19.6-15.9-35.5-35.5-35.5h-24.9c-19.6,0-35.5,15.9-35.5,35.5v28.2
		c-1.1,18.7-16.5,33.5-35.5,33.5h-13.2c-19.6,0-35.5-15.9-35.5-35.5v-9.5V-91c0-19.6-15.9-35.5-35.5-35.5H12c-4.2,0-8.2,0.7-12,2.1
		v32.1c5.2-3.1,11.3-4.8,17.8-4.8H31c19.6,0,35.5,15.9,35.5,35.5v9.5v16.7c0,19.6,15.9,35.5,35.5,35.5h25
		c19.6,0,35.5-15.9,35.5-35.5v-28.2c1.1-18.7,16.5-33.5,35.5-33.5h13.2c19.6,0,35.5,15.9,35.5,35.5v9.5v16.7
		c0,19.6,15.9,35.5,35.5,35.5h24.9c19.6,0,35.5-15.9,35.5-35.5v-28.2c1.1-18.7,16.5-33.5,35.5-33.5h13.2c19.6,0,35.5,15.9,35.5,35.5
		v9.5v16.7c0,19.6,15.9,35.5,35.5,35.5h24.9c19.6,0,35.5-15.9,35.5-35.5v-28.2c1.1-18.7,16.5-33.5,35.5-33.5h13.2
		c19.6,0,35.5,15.9,35.5,35.5v9.5v16.7c0,19.6,15.9,35.5,35.5,35.5h24.9c19.6,0,35.5-15.9,35.5-35.5v-28.2
		c1.1-18.7,16.5-33.5,35.5-33.5h13.2c19.6,0,35.5,15.9,35.5,35.5v9.5v16.7c0,19.6,15.9,35.5,35.5,35.5h24.9
		c19.6,0,35.5-15.9,35.5-35.5v-28.2c1.1-18.7,16.5-33.5,35.5-33.5h13.2c19.6,0,35.5,15.9,35.5,35.5v9.5v16.7
		c0,19.6,15.9,35.5,35.5,35.5h24.9c19.6,0,35.5-15.9,35.5-35.5v-28.2c1.1-18.7,16.5-33.5,35.5-33.5h13.2c19.6,0,35.5,15.9,35.5,35.5
		v9.5v16.7c0,19.6,15.9,35.5,35.5,35.5h24.9c19.6,0,35.5-15.9,35.5-35.5v-28.2c1.1-18.7,16.5-33.5,35.5-33.5h13.2
		c19.6,0,35.5,15.9,35.5,35.5v9.5v16.7c0,19.6,15.9,35.5,35.5,35.5h24.9c4.2,0,8.2-0.7,12-2.1v-32.1c-5.2,3.1-11.3,4.8-17.8,4.8
		L1369-29.3L1369-29.3z"/>
	<path class="st5" d="M117.1-111.7h-5.4c-8.6,0-15.6,7-15.6,15.6v17.3c0,8.6,7,15.6,15.6,15.6h5.4c8.6,0,15.6-7,15.6-15.6v-17.4
		C132.7-104.8,125.7-111.7,117.1-111.7z"/>
	<path class="st5" d="M298.6-111.7h-5.4c-8.6,0-15.6,7-15.6,15.6v17.3c0,8.6,7,15.6,15.6,15.6h5.4c8.6,0,15.6-7,15.6-15.6v-17.4
		C314.1-104.8,307.2-111.7,298.6-111.7z"/>
	<path class="st5" d="M476.7-111.7h-5.4c-8.6,0-15.6,7-15.6,15.6v17.3c0,8.6,7,15.6,15.6,15.6h5.4c8.6,0,15.6-7,15.6-15.6v-17.4
		C492.3-104.8,485.3-111.7,476.7-111.7z"/>
	<path class="st5" d="M654.9-111.7h-5.4c-8.6,0-15.6,7-15.6,15.6v17.3c0,8.6,7,15.6,15.6,15.6h5.4c8.6,0,15.6-7,15.6-15.6v-17.4
		C670.5-104.8,663.5-111.7,654.9-111.7z"/>
	<path class="st5" d="M837.1-111.7h-5.4c-8.6,0-15.6,7-15.6,15.6v17.3c0,8.6,7,15.6,15.6,15.6h5.4c8.6,0,15.6-7,15.6-15.6v-17.4
		C852.6-104.8,845.7-111.7,837.1-111.7z"/>
	<path class="st5" d="M1018.3-111.7h-5.4c-8.6,0-15.6,7-15.6,15.6v17.3c0,8.6,7,15.6,15.6,15.6h5.4c8.6,0,15.6-7,15.6-15.6v-17.4
		C1033.9-104.8,1026.9-111.7,1018.3-111.7z"/>
	<path class="st5" d="M1200.5-111.7h-5.4c-8.6,0-15.6,7-15.6,15.6v17.3c0,8.6,7,15.6,15.6,15.6h5.4c8.6,0,15.6-7,15.6-15.6v-17.4
		C1216.1-104.8,1209.1-111.7,1200.5-111.7z"/>
	<path class="st5" d="M1375.2-111.7c-8.6,0-15.6,7-15.6,15.6v17.3c0,8.6,7,15.6,15.6,15.6h5.4c8.6,0,15.6-7,15.6-15.6v-17.4
		c0-8.6-7-15.6-15.6-15.6L1375.2-111.7L1375.2-111.7z"/>
	<path class="st4" d="M26.1-67.6h-5.4c-8.6,0-15.6,7-15.6,15.6v17.4c0,8.6,7,15.6,15.6,15.6h5.4c8.6,0,15.6-7,15.6-15.6V-52
		C41.7-60.6,34.7-67.6,26.1-67.6z"/>
	<path class="st4" d="M205.9-67.6h-5.4c-8.6,0-15.6,7-15.6,15.6v17.4c0,8.6,7,15.6,15.6,15.6h5.4c8.6,0,15.6-7,15.6-15.6V-52
		C221.5-60.6,214.5-67.6,205.9-67.6z"/>
	<path class="st4" d="M385.8-67.6h-5.4c-8.6,0-15.6,7-15.6,15.6v17.4c0,8.6,7,15.6,15.6,15.6h5.4c8.6,0,15.6-7,15.6-15.6V-52
		C401.3-60.6,394.4-67.6,385.8-67.6z"/>
	<path class="st4" d="M565.6-67.6h-5.4c-8.6,0-15.6,7-15.6,15.6v17.4c0,8.6,7,15.6,15.6,15.6h5.4c8.6,0,15.6-7,15.6-15.6V-52
		C581.2-60.6,574.2-67.6,565.6-67.6z"/>
	<path class="st4" d="M745.4-67.6H740c-8.6,0-15.6,7-15.6,15.6v17.4c0,8.6,7,15.6,15.6,15.6h5.4c8.6,0,15.6-7,15.6-15.6V-52
		C761-60.6,754-67.6,745.4-67.6z"/>
	<path class="st4" d="M925.3-67.6h-5.4c-8.6,0-15.6,7-15.6,15.6v17.4c0,8.6,7,15.6,15.6,15.6h5.4c8.6,0,15.6-7,15.6-15.6V-52
		C940.8-60.6,933.9-67.6,925.3-67.6z"/>
	<path class="st4" d="M1105.1-67.6h-5.4c-8.6,0-15.6,7-15.6,15.6v17.4c0,8.6,7,15.6,15.6,15.6h5.4c8.6,0,15.6-7,15.6-15.6V-52
		C1120.7-60.6,1113.7-67.6,1105.1-67.6z"/>
	<path class="st4" d="M1284.9-67.6h-5.4c-8.6,0-15.6,7-15.6,15.6v17.4c0,8.6,7,15.6,15.6,15.6h5.4c8.6,0,15.6-7,15.6-15.6V-52
		C1300.5-60.6,1293.5-67.6,1284.9-67.6z"/>
	<path class="st3" d="M1369,97.3c-19.6,0-35.5-15.9-35.5-35.5v-9.6V35.5c0-19.6-15.9-35.5-35.5-35.5h-25
		c-19.6,0-35.5,15.9-35.5,35.5v28.2c-1.1,18.7-16.5,33.5-35.5,33.5h-13.2c-19.6,0-35.5-15.9-35.5-35.5v-9.5V35.5
		c0-19.6-15.9-35.5-35.5-35.5h-24.9c-19.6,0-35.5,15.9-35.5,35.5v28.2c-1.1,18.7-16.5,33.5-35.5,33.5h-13.2
		c-19.6,0-35.5-15.9-35.5-35.5v-9.5V35.5c0-19.6-15.9-35.5-35.5-35.5h-24.9c-19.6,0-35.5,15.9-35.5,35.5v28.2
		c-1.1,18.7-16.5,33.5-35.5,33.5h-13.2c-19.6,0-35.5-15.9-35.5-35.5v-9.5V35.5c0-19.6-15.9-35.5-35.5-35.5h-24.9
		c-19.6,0-35.5,15.9-35.5,35.5v28.2c-1.1,18.7-16.5,33.5-35.5,33.5h-13.2c-19.6,0-35.5-15.9-35.5-35.5v-9.5V35.5
		C613,15.9,597.1,0,577.5,0h-24.9c-19.6,0-35.5,15.9-35.5,35.5v28.2c-1.1,18.7-16.5,33.5-35.5,33.5h-13.2
		c-19.6,0-35.5-15.9-35.5-35.5v-9.5V35.5C432.9,15.9,417,0,397.4,0h-24.9C352.9,0,337,15.9,337,35.5v28.2
		c-1.1,18.7-16.5,33.5-35.5,33.5h-13.2c-19.6,0-35.5-15.9-35.5-35.5v-9.5V35.5c0-19.6-15.9-35.5-35.5-35.5h-24.9
		c-19.6,0-35.5,15.9-35.5,35.5v28.2c-1.1,18.7-16.5,33.5-35.5,33.5h-13.2c-19.6,0-35.5-15.9-35.5-35.5v-9.5V35.5
		C72.7,15.9,56.8,0,37.2,0H12C7.8,0,3.8,0.7,0,2.1v32.1c5.2-3.1,11.3-4.8,17.8-4.8H31c19.6,0,35.5,15.9,35.5,35.5v9.5v16.7
		c0,19.6,15.9,35.5,35.5,35.5h25c19.6,0,35.5-15.9,35.5-35.5V62.9c1.1-18.7,16.5-33.5,35.5-33.5h13.2c19.6,0,35.5,15.9,35.5,35.5
		v9.5v16.7c0,19.6,15.9,35.5,35.5,35.5h24.9c19.6,0,35.5-15.9,35.5-35.5V62.9c1.1-18.7,16.5-33.5,35.5-33.5h13.2
		c19.6,0,35.5,15.9,35.5,35.5v9.5v16.7c0,19.6,15.9,35.5,35.5,35.5h24.9c19.6,0,35.5-15.9,35.5-35.5V62.9
		c1.1-18.7,16.5-33.5,35.5-33.5h13.2c19.6,0,35.5,15.9,35.5,35.5v9.5v16.7c0,19.6,15.9,35.5,35.5,35.5h24.9
		c19.6,0,35.5-15.9,35.5-35.5V62.9c1.1-18.7,16.5-33.5,35.5-33.5h13.2c19.6,0,35.5,15.9,35.5,35.5v9.5v16.7
		c0,19.6,15.9,35.5,35.5,35.5h24.9c19.6,0,35.5-15.9,35.5-35.5V62.9c1.1-18.7,16.5-33.5,35.5-33.5h13.2c19.6,0,35.5,15.9,35.5,35.5
		v9.5v16.7c0,19.6,15.9,35.5,35.5,35.5h24.9c19.6,0,35.5-15.9,35.5-35.5V62.9c1.1-18.7,16.5-33.5,35.5-33.5h13.2
		c19.6,0,35.5,15.9,35.5,35.5v9.5v16.7c0,19.6,15.9,35.5,35.5,35.5h24.9c19.6,0,35.5-15.9,35.5-35.5V62.9
		c1.1-18.7,16.5-33.5,35.5-33.5h13.2c19.6,0,35.5,15.9,35.5,35.5v9.5v16.7c0,19.6,15.9,35.5,35.5,35.5h24.9c4.2,0,8.2-0.7,12-2.1
		V92.4c-5.2,3.1-11.3,4.8-17.8,4.8H1369V97.3z"/>
	<path class="st5" d="M117.1,14.8h-5.4c-8.6,0-15.6,7-15.6,15.6v17.4c0,8.6,7,15.6,15.6,15.6h5.4c8.6,0,15.6-7,15.6-15.6V30.4
		C132.7,21.8,125.7,14.8,117.1,14.8z"/>
	<path class="st5" d="M298.6,14.8h-5.4c-8.6,0-15.6,7-15.6,15.6v17.4c0,8.6,7,15.6,15.6,15.6h5.4c8.6,0,15.6-7,15.6-15.6V30.4
		C314.1,21.8,307.2,14.8,298.6,14.8z"/>
	<path class="st5" d="M476.7,14.8h-5.4c-8.6,0-15.6,7-15.6,15.6v17.4c0,8.6,7,15.6,15.6,15.6h5.4c8.6,0,15.6-7,15.6-15.6V30.4
		C492.3,21.8,485.3,14.8,476.7,14.8z"/>
	<path class="st5" d="M654.9,14.8h-5.4c-8.6,0-15.6,7-15.6,15.6v17.4c0,8.6,7,15.6,15.6,15.6h5.4c8.6,0,15.6-7,15.6-15.6V30.4
		C670.5,21.8,663.5,14.8,654.9,14.8z"/>
	<path class="st5" d="M837.1,14.8h-5.4c-8.6,0-15.6,7-15.6,15.6v17.4c0,8.6,7,15.6,15.6,15.6h5.4c8.6,0,15.6-7,15.6-15.6V30.4
		C852.6,21.8,845.7,14.8,837.1,14.8z"/>
	<path class="st5" d="M1018.3,14.8h-5.4c-8.6,0-15.6,7-15.6,15.6v17.4c0,8.6,7,15.6,15.6,15.6h5.4c8.6,0,15.6-7,15.6-15.6V30.4
		C1033.9,21.8,1026.9,14.8,1018.3,14.8z"/>
	<path class="st5" d="M1200.5,14.8h-5.4c-8.6,0-15.6,7-15.6,15.6v17.4c0,8.6,7,15.6,15.6,15.6h5.4c8.6,0,15.6-7,15.6-15.6V30.4
		C1216.1,21.8,1209.1,14.8,1200.5,14.8z"/>
	<path class="st5" d="M1375.2,14.8c-8.6,0-15.6,7-15.6,15.6v17.4c0,8.6,7,15.6,15.6,15.6h5.4c8.6,0,15.6-7,15.6-15.6V30.4
		c0-8.6-7-15.6-15.6-15.6H1375.2z"/>
	<path class="st4" d="M26.1,59h-5.4c-8.6,0-15.6,7-15.6,15.6V92c0,8.6,7,15.6,15.6,15.6h5.4c8.6,0,15.6-7,15.6-15.6V74.6
		C41.7,66,34.7,59,26.1,59z"/>
	<path class="st4" d="M205.9,59h-5.4c-8.6,0-15.6,7-15.6,15.6V92c0,8.6,7,15.6,15.6,15.6h5.4c8.6,0,15.6-7,15.6-15.6V74.6
		C221.5,66,214.5,59,205.9,59z"/>
	<path class="st4" d="M385.8,59h-5.4c-8.6,0-15.6,7-15.6,15.6V92c0,8.6,7,15.6,15.6,15.6h5.4c8.6,0,15.6-7,15.6-15.6V74.6
		C401.3,66,394.4,59,385.8,59z"/>
	<path class="st4" d="M565.6,59h-5.4c-8.6,0-15.6,7-15.6,15.6V92c0,8.6,7,15.6,15.6,15.6h5.4c8.6,0,15.6-7,15.6-15.6V74.6
		C581.2,66,574.2,59,565.6,59z"/>
	<path class="st4" d="M745.4,59H740c-8.6,0-15.6,7-15.6,15.6V92c0,8.6,7,15.6,15.6,15.6h5.4c8.6,0,15.6-7,15.6-15.6V74.6
		C761,66,754,59,745.4,59z"/>
	<path class="st4" d="M925.3,59h-5.4c-8.6,0-15.6,7-15.6,15.6V92c0,8.6,7,15.6,15.6,15.6h5.4c8.6,0,15.6-7,15.6-15.6V74.6
		C940.8,66,933.9,59,925.3,59z"/>
	<path class="st4" d="M1105.1,59h-5.4c-8.6,0-15.6,7-15.6,15.6V92c0,8.6,7,15.6,15.6,15.6h5.4c8.6,0,15.6-7,15.6-15.6V74.6
		C1120.7,66,1113.7,59,1105.1,59z"/>
	<path class="st4" d="M1284.9,59h-5.4c-8.6,0-15.6,7-15.6,15.6V92c0,8.6,7,15.6,15.6,15.6h5.4c8.6,0,15.6-7,15.6-15.6V74.6
		C1300.5,66,1293.5,59,1284.9,59z"/>
	<path class="st4" d="M1369,223.8c-19.6,0-35.5-15.9-35.5-35.5v-9.5v-16.7c0-19.6-15.9-35.5-35.5-35.5h-25
		c-19.6,0-35.5,15.9-35.5,35.5v28.2c-1.1,18.7-16.5,33.5-35.5,33.5h-13.2c-19.6,0-35.5-15.9-35.5-35.5v-9.5v-16.7
		c0-19.6-15.9-35.5-35.5-35.5h-24.9c-19.6,0-35.5,15.9-35.5,35.5v28.2c-1.1,18.7-16.5,33.5-35.5,33.5h-13.2
		c-19.6,0-35.5-15.9-35.5-35.5v-9.5v-16.7c0-19.6-15.9-35.5-35.5-35.5h-24.9c-19.6,0-35.5,15.9-35.5,35.5v28.2
		c-1.1,18.7-16.5,33.5-35.5,33.5h-13.2c-19.6,0-35.5-15.9-35.5-35.5v-9.5v-16.7c0-19.6-15.9-35.5-35.5-35.5h-24.9
		c-19.6,0-35.5,15.9-35.5,35.5v28.2c-1.1,18.7-16.5,33.5-35.5,33.5h-13.2c-19.6,0-35.5-15.9-35.5-35.5v-9.5v-16.7
		c0-19.6-15.9-35.5-35.5-35.5h-24.9c-19.6,0-35.5,15.9-35.5,35.5v28.2c-1.1,18.7-16.5,33.5-35.5,33.5h-13.2
		c-19.6,0-35.5-15.9-35.5-35.5v-9.5v-16.7c0-19.6-15.9-35.5-35.5-35.5h-24.9c-19.6,0-35.5,15.9-35.5,35.5v28.2
		c-1.1,18.7-16.5,33.5-35.5,33.5h-13.2c-19.6,0-35.5-15.9-35.5-35.5v-9.5v-16.7c0-19.6-15.9-35.5-35.5-35.5h-24.9
		c-19.6,0-35.5,15.9-35.5,35.5v28.2c-1.1,18.7-16.5,33.5-35.5,33.5h-13.2c-19.6,0-35.5-15.9-35.5-35.5v-9.5v-16.7
		c0-19.6-15.9-35.5-35.5-35.5H12c-4.2,0-8.2,0.7-12,2.1v32.1c5.2-3.1,11.3-4.8,17.8-4.8H31c19.6,0,35.5,15.9,35.5,35.5v9.5v16.7
		c0,19.6,15.9,35.5,35.5,35.5h25c19.6,0,35.5-15.9,35.5-35.5v-28.2C163.6,170.8,179,156,198,156h13.2c19.6,0,35.5,15.9,35.5,35.5
		v9.5v16.7c0,19.6,15.9,35.5,35.5,35.5h24.9c19.6,0,35.5-15.9,35.5-35.5v-28.2c1.1-18.7,16.5-33.5,35.5-33.5h13.2
		c19.6,0,35.5,15.9,35.5,35.5v9.5v16.7c0,19.6,15.9,35.5,35.5,35.5h24.9c19.6,0,35.5-15.9,35.5-35.5v-28.2
		c1.1-18.7,16.5-33.5,35.5-33.5h13.2c19.6,0,35.5,15.9,35.5,35.5v9.5v16.7c0,19.6,15.9,35.5,35.5,35.5h24.9
		c19.6,0,35.5-15.9,35.5-35.5v-28.2c1.1-18.7,16.5-33.5,35.5-33.5h13.2c19.6,0,35.5,15.9,35.5,35.5v9.5v16.7
		c0,19.6,15.9,35.5,35.5,35.5h24.9c19.6,0,35.5-15.9,35.5-35.5v-28.2c1.1-18.7,16.5-33.5,35.5-33.5h13.2c19.6,0,35.5,15.9,35.5,35.5
		v9.5v16.7c0,19.6,15.9,35.5,35.5,35.5h24.9c19.6,0,35.5-15.9,35.5-35.5v-28.2c1.1-18.7,16.5-33.5,35.5-33.5h13.2
		c19.6,0,35.5,15.9,35.5,35.5v9.5v16.7c0,19.6,15.9,35.5,35.5,35.5h24.9c19.6,0,35.5-15.9,35.5-35.5v-28.2
		c1.1-18.7,16.5-33.5,35.5-33.5h13.2c19.6,0,35.5,15.9,35.5,35.5v9.5v16.7c0,19.6,15.9,35.5,35.5,35.5h24.9c4.2,0,8.2-0.7,12-2.1
		V219c-5.2,3.1-11.3,4.8-17.8,4.8H1369z"/>
	<path class="st5" d="M117.1,141.4h-5.4c-8.6,0-15.6,7-15.6,15.6v17.4c0,8.6,7,15.6,15.6,15.6h5.4c8.6,0,15.6-7,15.6-15.6V157
		C132.7,148.4,125.7,141.4,117.1,141.4z"/>
	<path class="st5" d="M298.6,141.4h-5.4c-8.6,0-15.6,7-15.6,15.6v17.4c0,8.6,7,15.6,15.6,15.6h5.4c8.6,0,15.6-7,15.6-15.6V157
		C314.1,148.4,307.2,141.4,298.6,141.4z"/>
	<path class="st5" d="M476.7,141.4h-5.4c-8.6,0-15.6,7-15.6,15.6v17.4c0,8.6,7,15.6,15.6,15.6h5.4c8.6,0,15.6-7,15.6-15.6V157
		C492.3,148.4,485.3,141.4,476.7,141.4z"/>
	<path class="st5" d="M654.9,141.4h-5.4c-8.6,0-15.6,7-15.6,15.6v17.4c0,8.6,7,15.6,15.6,15.6h5.4c8.6,0,15.6-7,15.6-15.6V157
		C670.5,148.4,663.5,141.4,654.9,141.4z"/>
	<path class="st5" d="M837.1,141.4h-5.4c-8.6,0-15.6,7-15.6,15.6v17.4c0,8.6,7,15.6,15.6,15.6h5.4c8.6,0,15.6-7,15.6-15.6V157
		C852.6,148.4,845.7,141.4,837.1,141.4z"/>
	<path class="st5" d="M1018.3,141.4h-5.4c-8.6,0-15.6,7-15.6,15.6v17.4c0,8.6,7,15.6,15.6,15.6h5.4c8.6,0,15.6-7,15.6-15.6V157
		C1033.9,148.4,1026.9,141.4,1018.3,141.4z"/>
	<path class="st5" d="M1200.5,141.4h-5.4c-8.6,0-15.6,7-15.6,15.6v17.4c0,8.6,7,15.6,15.6,15.6h5.4c8.6,0,15.6-7,15.6-15.6V157
		C1216.1,148.4,1209.1,141.4,1200.5,141.4z"/>
	<path class="st5" d="M1375.2,141.4c-8.6,0-15.6,7-15.6,15.6v17.4c0,8.6,7,15.6,15.6,15.6h5.4c8.6,0,15.6-7,15.6-15.6V157
		c0-8.6-7-15.6-15.6-15.6H1375.2z"/>
	<path class="st4" d="M26.1,185.6h-5.4c-8.6,0-15.6,7-15.6,15.6v17.4c0,8.6,7,15.6,15.6,15.6h5.4c8.6,0,15.6-7,15.6-15.6v-17.4
		C41.7,192.5,34.7,185.6,26.1,185.6z"/>
	<path class="st4" d="M205.9,185.6h-5.4c-8.6,0-15.6,7-15.6,15.6v17.4c0,8.6,7,15.6,15.6,15.6h5.4c8.6,0,15.6-7,15.6-15.6v-17.4
		C221.5,192.5,214.5,185.6,205.9,185.6z"/>
	<path class="st4" d="M385.8,185.6h-5.4c-8.6,0-15.6,7-15.6,15.6v17.4c0,8.6,7,15.6,15.6,15.6h5.4c8.6,0,15.6-7,15.6-15.6v-17.4
		C401.3,192.5,394.4,185.6,385.8,185.6z"/>
	<path class="st4" d="M565.6,185.6h-5.4c-8.6,0-15.6,7-15.6,15.6v17.4c0,8.6,7,15.6,15.6,15.6h5.4c8.6,0,15.6-7,15.6-15.6v-17.4
		C581.2,192.5,574.2,185.6,565.6,185.6z"/>
	<path class="st4" d="M745.4,185.6H740c-8.6,0-15.6,7-15.6,15.6v17.4c0,8.6,7,15.6,15.6,15.6h5.4c8.6,0,15.6-7,15.6-15.6v-17.4
		C761,192.5,754,185.6,745.4,185.6z"/>
	<path class="st4" d="M925.3,185.6h-5.4c-8.6,0-15.6,7-15.6,15.6v17.4c0,8.6,7,15.6,15.6,15.6h5.4c8.6,0,15.6-7,15.6-15.6v-17.4
		C940.8,192.5,933.9,185.6,925.3,185.6z"/>
	<path class="st4" d="M1105.1,185.6h-5.4c-8.6,0-15.6,7-15.6,15.6v17.4c0,8.6,7,15.6,15.6,15.6h5.4c8.6,0,15.6-7,15.6-15.6v-17.4
		C1120.7,192.5,1113.7,185.6,1105.1,185.6z"/>
	<path class="st4" d="M1284.9,185.6h-5.4c-8.6,0-15.6,7-15.6,15.6v17.4c0,8.6,7,15.6,15.6,15.6h5.4c8.6,0,15.6-7,15.6-15.6v-17.4
		C1300.5,192.5,1293.5,185.6,1284.9,185.6z"/>
	<path class="st3" d="M1369,350.4c-19.6,0-35.5-15.9-35.5-35.5v-9.5v-16.7c0-19.6-15.9-35.5-35.5-35.5h-25
		c-19.6,0-35.5,15.9-35.5,35.5v28.2c-1.1,18.7-16.5,33.5-35.5,33.5h-13.2c-19.6,0-35.5-15.9-35.5-35.5v-9.5v-16.7
		c0-19.6-15.9-35.5-35.5-35.5h-24.9c-19.6,0-35.5,15.9-35.5,35.5v28.2c-1.1,18.7-16.5,33.5-35.5,33.5h-13.2
		c-19.6,0-35.5-15.9-35.5-35.5v-9.5v-16.7c0-19.6-15.9-35.5-35.5-35.5h-24.9c-19.6,0-35.5,15.9-35.5,35.5v28.2
		c-1.1,18.7-16.5,33.5-35.5,33.5h-13.2c-19.6,0-35.5-15.9-35.5-35.5v-9.5v-16.7c0-19.6-15.9-35.5-35.5-35.5h-24.9
		c-19.6,0-35.5,15.9-35.5,35.5v28.2c-1.1,18.7-16.5,33.5-35.5,33.5h-13.2c-19.6,0-35.5-15.9-35.5-35.5v-9.5v-16.7
		c0-19.6-15.9-35.5-35.5-35.5h-24.9c-19.6,0-35.5,15.9-35.5,35.5v28.2c-1.1,18.7-16.5,33.5-35.5,33.5h-13.2
		c-19.6,0-35.5-15.9-35.5-35.5v-9.5v-16.7c0-19.6-15.9-35.5-35.5-35.5h-24.9c-19.6,0-35.5,15.9-35.5,35.5v28.2
		c-1.1,18.7-16.5,33.5-35.5,33.5h-13.2c-19.6,0-35.5-15.9-35.5-35.5v-9.5v-16.7c0-19.6-15.9-35.5-35.5-35.5h-24.9
		c-19.6,0-35.5,15.9-35.5,35.5v28.2c-1.1,18.7-16.5,33.5-35.5,33.5h-13.2c-19.6,0-35.5-15.9-35.5-35.5v-9.5v-16.7
		c0-19.6-15.9-35.5-35.5-35.5H12c-4.2,0-8.2,0.7-12,2.1v32.1c5.2-3.1,11.3-4.8,17.8-4.8H31c19.6,0,35.5,15.9,35.5,35.5v9.5v16.7
		c0,19.6,15.9,35.5,35.5,35.5h25c19.6,0,35.5-15.9,35.5-35.5v-28.2c1.1-18.7,16.5-33.5,35.5-33.5h13.2c19.6,0,35.5,15.9,35.5,35.5
		v9.5v16.7c0,19.6,15.9,35.5,35.5,35.5h24.9c19.6,0,35.5-15.9,35.5-35.5v-28.2c1.1-18.7,16.5-33.5,35.5-33.5h13.2
		c19.6,0,35.5,15.9,35.5,35.5v9.5v16.7c0,19.6,15.9,35.5,35.5,35.5h24.9c19.6,0,35.5-15.9,35.5-35.5v-28.2
		c1.1-18.7,16.5-33.5,35.5-33.5h13.2c19.6,0,35.5,15.9,35.5,35.5v9.5v16.7c0,19.6,15.9,35.5,35.5,35.5h24.9
		c19.6,0,35.5-15.9,35.5-35.5v-28.2c1.1-18.7,16.5-33.5,35.5-33.5h13.2c19.6,0,35.5,15.9,35.5,35.5v9.5v16.7
		c0,19.6,15.9,35.5,35.5,35.5h24.9c19.6,0,35.5-15.9,35.5-35.5v-28.2c1.1-18.7,16.5-33.5,35.5-33.5h13.2c19.6,0,35.5,15.9,35.5,35.5
		v9.5v16.7c0,19.6,15.9,35.5,35.5,35.5h24.9c19.6,0,35.5-15.9,35.5-35.5v-28.2c1.1-18.7,16.5-33.5,35.5-33.5h13.2
		c19.6,0,35.5,15.9,35.5,35.5v9.5v16.7c0,19.6,15.9,35.5,35.5,35.5h24.9c19.6,0,35.5-15.9,35.5-35.5v-28.2
		c1.1-18.7,16.5-33.5,35.5-33.5h13.2c19.6,0,35.5,15.9,35.5,35.5v9.5v16.7c0,19.6,15.9,35.5,35.5,35.5h24.9c4.2,0,8.2-0.7,12-2.1
		v-32.1c-5.2,3.1-11.3,4.8-17.8,4.8L1369,350.4L1369,350.4z"/>
	<path class="st5" d="M117.1,268h-5.4c-8.6,0-15.6,7-15.6,15.6V301c0,8.6,7,15.6,15.6,15.6h5.4c8.6,0,15.6-7,15.6-15.6v-17.4
		C132.7,275,125.7,268,117.1,268z"/>
	<path class="st5" d="M298.6,268h-5.4c-8.6,0-15.6,7-15.6,15.6V301c0,8.6,7,15.6,15.6,15.6h5.4c8.6,0,15.6-7,15.6-15.6v-17.4
		C314.1,275,307.2,268,298.6,268z"/>
	<path class="st5" d="M476.7,268h-5.4c-8.6,0-15.6,7-15.6,15.6V301c0,8.6,7,15.6,15.6,15.6h5.4c8.6,0,15.6-7,15.6-15.6v-17.4
		C492.3,275,485.3,268,476.7,268z"/>
	<path class="st5" d="M654.9,268h-5.4c-8.6,0-15.6,7-15.6,15.6V301c0,8.6,7,15.6,15.6,15.6h5.4c8.6,0,15.6-7,15.6-15.6v-17.4
		C670.5,275,663.5,268,654.9,268z"/>
	<path class="st5" d="M837.1,268h-5.4c-8.6,0-15.6,7-15.6,15.6V301c0,8.6,7,15.6,15.6,15.6h5.4c8.6,0,15.6-7,15.6-15.6v-17.4
		C852.6,275,845.7,268,837.1,268z"/>
	<path class="st5" d="M1018.3,268h-5.4c-8.6,0-15.6,7-15.6,15.6V301c0,8.6,7,15.6,15.6,15.6h5.4c8.6,0,15.6-7,15.6-15.6v-17.4
		C1033.9,275,1026.9,268,1018.3,268z"/>
	<path class="st5" d="M1200.5,268h-5.4c-8.6,0-15.6,7-15.6,15.6V301c0,8.6,7,15.6,15.6,15.6h5.4c8.6,0,15.6-7,15.6-15.6v-17.4
		C1216.1,275,1209.1,268,1200.5,268z"/>
	<path class="st5" d="M1375.2,268c-8.6,0-15.6,7-15.6,15.6V301c0,8.6,7,15.6,15.6,15.6h5.4c8.6,0,15.6-7,15.6-15.6v-17.4
		c0-8.6-7-15.6-15.6-15.6L1375.2,268L1375.2,268z"/>
	<path class="st4" d="M26.1,312.2h-5.4c-8.6,0-15.6,7-15.6,15.6v17.4c0,8.6,7,15.6,15.6,15.6h5.4c8.6,0,15.6-7,15.6-15.6v-17.4
		C41.7,319.1,34.7,312.2,26.1,312.2z"/>
	<path class="st4" d="M205.9,312.2h-5.4c-8.6,0-15.6,7-15.6,15.6v17.4c0,8.6,7,15.6,15.6,15.6h5.4c8.6,0,15.6-7,15.6-15.6v-17.4
		C221.5,319.1,214.5,312.2,205.9,312.2z"/>
	<path class="st4" d="M385.8,312.2h-5.4c-8.6,0-15.6,7-15.6,15.6v17.4c0,8.6,7,15.6,15.6,15.6h5.4c8.6,0,15.6-7,15.6-15.6v-17.4
		C401.3,319.1,394.4,312.2,385.8,312.2z"/>
	<path class="st4" d="M565.6,312.2h-5.4c-8.6,0-15.6,7-15.6,15.6v17.4c0,8.6,7,15.6,15.6,15.6h5.4c8.6,0,15.6-7,15.6-15.6v-17.4
		C581.2,319.1,574.2,312.2,565.6,312.2z"/>
	<path class="st4" d="M745.4,312.2H740c-8.6,0-15.6,7-15.6,15.6v17.4c0,8.6,7,15.6,15.6,15.6h5.4c8.6,0,15.6-7,15.6-15.6v-17.4
		C761,319.1,754,312.2,745.4,312.2z"/>
	<path class="st4" d="M925.3,312.2h-5.4c-8.6,0-15.6,7-15.6,15.6v17.4c0,8.6,7,15.6,15.6,15.6h5.4c8.6,0,15.6-7,15.6-15.6v-17.4
		C940.8,319.1,933.9,312.2,925.3,312.2z"/>
	<path class="st4" d="M1105.1,312.2h-5.4c-8.6,0-15.6,7-15.6,15.6v17.4c0,8.6,7,15.6,15.6,15.6h5.4c8.6,0,15.6-7,15.6-15.6v-17.4
		C1120.7,319.1,1113.7,312.2,1105.1,312.2z"/>
	<path class="st4" d="M1284.9,312.2h-5.4c-8.6,0-15.6,7-15.6,15.6v17.4c0,8.6,7,15.6,15.6,15.6h5.4c8.6,0,15.6-7,15.6-15.6v-17.4
		C1300.5,319.1,1293.5,312.2,1284.9,312.2z"/>
	<path class="st4" d="M1369,477c-19.6,0-35.5-15.9-35.5-35.5V432v-16.7c0-19.6-15.9-35.5-35.5-35.5h-25c-19.6,0-35.5,15.9-35.5,35.5
		v28.2c-1.1,18.7-16.5,33.5-35.5,33.5h-13.2c-19.6,0-35.5-15.9-35.5-35.5V432v-16.7c0-19.6-15.9-35.5-35.5-35.5h-24.9
		c-19.6,0-35.5,15.9-35.5,35.5v28.2c-1.1,18.7-16.5,33.5-35.5,33.5h-13.2c-19.6,0-35.5-15.9-35.5-35.5V432v-16.7
		c0-19.6-15.9-35.5-35.5-35.5h-24.9c-19.6,0-35.5,15.9-35.5,35.5v28.2c-1.1,18.7-16.5,33.5-35.5,33.5h-13.2
		c-19.6,0-35.5-15.9-35.5-35.5V432v-16.7c0-19.6-15.9-35.5-35.5-35.5h-24.9c-19.6,0-35.5,15.9-35.5,35.5v28.2
		c-1.1,18.7-16.5,33.5-35.5,33.5h-13.2c-19.6,0-35.5-15.9-35.5-35.5V432v-16.7c0-19.6-15.9-35.5-35.5-35.5h-24.9
		c-19.6,0-35.5,15.9-35.5,35.5v28.2c-1.1,18.7-16.5,33.5-35.5,33.5h-13.2c-19.6,0-35.5-15.9-35.5-35.5V432v-16.7
		c0-19.6-15.9-35.5-35.5-35.5h-24.9c-19.6,0-35.5,15.9-35.5,35.5v28.2c-1.1,18.7-16.5,33.5-35.5,33.5h-13.2
		c-19.6,0-35.5-15.9-35.5-35.5V432v-16.7c0-19.6-15.9-35.5-35.5-35.5h-24.9c-19.6,0-35.5,15.9-35.5,35.5v28.2
		c-1.1,18.7-16.5,33.5-35.5,33.5h-13.2c-19.6,0-35.5-15.9-35.5-35.5V432v-16.7c0-19.6-15.9-35.5-35.5-35.5H12c-4.2,0-8.2,0.7-12,2.1
		V414c5.2-3.1,11.3-4.8,17.8-4.8H31c19.6,0,35.5,15.9,35.5,35.5v9.5v16.7c0,19.6,15.9,35.5,35.5,35.5h25c19.6,0,35.5-15.9,35.5-35.5
		v-28.2c1.1-18.7,16.5-33.5,35.5-33.5h13.2c19.6,0,35.5,15.9,35.5,35.5v9.5v16.7c0,19.6,15.9,35.5,35.5,35.5h24.9
		c19.6,0,35.5-15.9,35.5-35.5v-28.2c1.1-18.7,16.5-33.5,35.5-33.5h13.2c19.6,0,35.5,15.9,35.5,35.5v9.5v16.7
		c0,19.6,15.9,35.5,35.5,35.5h24.9c19.6,0,35.5-15.9,35.5-35.5v-28.2c1.1-18.7,16.5-33.5,35.5-33.5h13.2c19.6,0,35.5,15.9,35.5,35.5
		v9.5v16.7c0,19.6,15.9,35.5,35.5,35.5h24.9c19.6,0,35.5-15.9,35.5-35.5v-28.2c1.1-18.7,16.5-33.5,35.5-33.5h13.2
		c19.6,0,35.5,15.9,35.5,35.5v9.5v16.7c0,19.6,15.9,35.5,35.5,35.5h24.9c19.6,0,35.5-15.9,35.5-35.5v-28.2
		c1.1-18.7,16.5-33.5,35.5-33.5h13.2c19.6,0,35.5,15.9,35.5,35.5v9.5v16.7c0,19.6,15.9,35.5,35.5,35.5h24.9
		c19.6,0,35.5-15.9,35.5-35.5v-28.2c1.1-18.7,16.5-33.5,35.5-33.5h13.2c19.6,0,35.5,15.9,35.5,35.5v9.5v16.7
		c0,19.6,15.9,35.5,35.5,35.5h24.9c19.6,0,35.5-15.9,35.5-35.5v-28.2c1.1-18.7,16.5-33.5,35.5-33.5h13.2c19.6,0,35.5,15.9,35.5,35.5
		v9.5v16.7c0,19.6,15.9,35.5,35.5,35.5h24.9c4.2,0,8.2-0.7,12-2.1v-32.1c-5.2,3.1-11.3,4.8-17.8,4.8H1369z"/>
	<path class="st5" d="M117.1,394.6h-5.4c-8.6,0-15.6,7-15.6,15.6v17.4c0,8.6,7,15.6,15.6,15.6h5.4c8.6,0,15.6-7,15.6-15.6v-17.4
		C132.7,401.5,125.7,394.6,117.1,394.6z"/>
	<path class="st5" d="M298.6,394.6h-5.4c-8.6,0-15.6,7-15.6,15.6v17.4c0,8.6,7,15.6,15.6,15.6h5.4c8.6,0,15.6-7,15.6-15.6v-17.4
		C314.1,401.5,307.2,394.6,298.6,394.6z"/>
	<path class="st5" d="M476.7,394.6h-5.4c-8.6,0-15.6,7-15.6,15.6v17.4c0,8.6,7,15.6,15.6,15.6h5.4c8.6,0,15.6-7,15.6-15.6v-17.4
		C492.3,401.5,485.3,394.6,476.7,394.6z"/>
	<path class="st5" d="M654.9,394.6h-5.4c-8.6,0-15.6,7-15.6,15.6v17.4c0,8.6,7,15.6,15.6,15.6h5.4c8.6,0,15.6-7,15.6-15.6v-17.4
		C670.5,401.5,663.5,394.6,654.9,394.6z"/>
	<path class="st5" d="M837.1,394.6h-5.4c-8.6,0-15.6,7-15.6,15.6v17.4c0,8.6,7,15.6,15.6,15.6h5.4c8.6,0,15.6-7,15.6-15.6v-17.4
		C852.6,401.5,845.7,394.6,837.1,394.6z"/>
	<path class="st5" d="M1018.3,394.6h-5.4c-8.6,0-15.6,7-15.6,15.6v17.4c0,8.6,7,15.6,15.6,15.6h5.4c8.6,0,15.6-7,15.6-15.6v-17.4
		C1033.9,401.5,1026.9,394.6,1018.3,394.6z"/>
	<path class="st5" d="M1200.5,394.6h-5.4c-8.6,0-15.6,7-15.6,15.6v17.4c0,8.6,7,15.6,15.6,15.6h5.4c8.6,0,15.6-7,15.6-15.6v-17.4
		C1216.1,401.5,1209.1,394.6,1200.5,394.6z"/>
	<path class="st5" d="M1375.2,394.6c-8.6,0-15.6,7-15.6,15.6v17.4c0,8.6,7,15.6,15.6,15.6h5.4c8.6,0,15.6-7,15.6-15.6v-17.4
		c0-8.6-7-15.6-15.6-15.6H1375.2z"/>
	<path class="st4" d="M26.1,438.7h-5.4c-8.6,0-15.6,7-15.6,15.6v17.4c0,8.6,7,15.6,15.6,15.6h5.4c8.6,0,15.6-7,15.6-15.6v-17.4
		C41.7,445.7,34.7,438.7,26.1,438.7z"/>
	<path class="st4" d="M205.9,438.7h-5.4c-8.6,0-15.6,7-15.6,15.6v17.4c0,8.6,7,15.6,15.6,15.6h5.4c8.6,0,15.6-7,15.6-15.6v-17.4
		C221.5,445.7,214.5,438.7,205.9,438.7z"/>
	<path class="st4" d="M385.8,438.7h-5.4c-8.6,0-15.6,7-15.6,15.6v17.4c0,8.6,7,15.6,15.6,15.6h5.4c8.6,0,15.6-7,15.6-15.6v-17.4
		C401.3,445.7,394.4,438.7,385.8,438.7z"/>
	<path class="st4" d="M565.6,438.7h-5.4c-8.6,0-15.6,7-15.6,15.6v17.4c0,8.6,7,15.6,15.6,15.6h5.4c8.6,0,15.6-7,15.6-15.6v-17.4
		C581.2,445.7,574.2,438.7,565.6,438.7z"/>
	<path class="st4" d="M745.4,438.7H740c-8.6,0-15.6,7-15.6,15.6v17.4c0,8.6,7,15.6,15.6,15.6h5.4c8.6,0,15.6-7,15.6-15.6v-17.4
		C761,445.7,754,438.7,745.4,438.7z"/>
	<path class="st4" d="M925.3,438.7h-5.4c-8.6,0-15.6,7-15.6,15.6v17.4c0,8.6,7,15.6,15.6,15.6h5.4c8.6,0,15.6-7,15.6-15.6v-17.4
		C940.8,445.7,933.9,438.7,925.3,438.7z"/>
	<path class="st4" d="M1105.1,438.7h-5.4c-8.6,0-15.6,7-15.6,15.6v17.4c0,8.6,7,15.6,15.6,15.6h5.4c8.6,0,15.6-7,15.6-15.6v-17.4
		C1120.7,445.7,1113.7,438.7,1105.1,438.7z"/>
	<path class="st4" d="M1284.9,438.7h-5.4c-8.6,0-15.6,7-15.6,15.6v17.4c0,8.6,7,15.6,15.6,15.6h5.4c8.6,0,15.6-7,15.6-15.6v-17.4
		C1300.5,445.7,1293.5,438.7,1284.9,438.7z"/>
	<path class="st3" d="M1369,603.6c-19.6,0-35.5-15.9-35.5-35.5v-9.5v-16.7c0-19.6-15.9-35.5-35.5-35.5h-25
		c-19.6,0-35.5,15.9-35.5,35.5v28.2c-1.1,18.7-16.5,33.5-35.5,33.5h-13.2c-19.6,0-35.5-15.9-35.5-35.5v-9.5v-16.7
		c0-19.6-15.9-35.5-35.5-35.5h-24.9c-19.6,0-35.5,15.9-35.5,35.5v28.2c-1.1,18.7-16.5,33.5-35.5,33.5h-13.2
		c-19.6,0-35.5-15.9-35.5-35.5v-9.5v-16.7c0-19.6-15.9-35.5-35.5-35.5h-24.9c-19.6,0-35.5,15.9-35.5,35.5v28.2
		c-1.1,18.7-16.5,33.5-35.5,33.5h-13.2c-19.6,0-35.5-15.9-35.5-35.5v-9.5v-16.7c0-19.6-15.9-35.5-35.5-35.5h-24.9
		c-19.6,0-35.5,15.9-35.5,35.5v28.2c-1.1,18.7-16.5,33.5-35.5,33.5h-13.2c-19.6,0-35.5-15.9-35.5-35.5v-9.5v-16.7
		c0-19.6-15.9-35.5-35.5-35.5h-24.9c-19.6,0-35.5,15.9-35.5,35.5v28.2c-1.1,18.7-16.5,33.5-35.5,33.5h-13.2
		c-19.6,0-35.5-15.9-35.5-35.5v-9.5v-16.7c0-19.6-15.9-35.5-35.5-35.5h-24.9c-19.6,0-35.5,15.9-35.5,35.5v28.2
		c-1.1,18.7-16.5,33.5-35.5,33.5h-13.2c-19.6,0-35.5-15.9-35.5-35.5v-9.5v-16.7c0-19.6-15.9-35.5-35.5-35.5h-24.9
		c-19.6,0-35.5,15.9-35.5,35.5v28.2c-1.1,18.7-16.5,33.5-35.5,33.5h-13.2c-19.6,0-35.5-15.9-35.5-35.5v-9.5v-16.7
		c0-19.6-15.9-35.5-35.5-35.5H12c-4.2,0-8.2,0.7-12,2.1v32.1c5.2-3.1,11.3-4.8,17.8-4.8H31c19.6,0,35.5,15.9,35.5,35.5v9.5v16.7
		c0,19.6,15.9,35.5,35.5,35.5h25c19.6,0,35.5-15.9,35.5-35.5v-28.3c1.1-18.7,16.5-33.5,35.5-33.5h13.2c19.6,0,35.5,15.9,35.5,35.5
		v9.5v16.7c0,19.6,15.9,35.5,35.5,35.5h24.9c19.6,0,35.5-15.9,35.5-35.5v-28.2c1.1-18.7,16.5-33.5,35.5-33.5h13.2
		c19.6,0,35.5,15.9,35.5,35.5v9.5v16.7c0,19.6,15.9,35.5,35.5,35.5h24.9c19.6,0,35.5-15.9,35.5-35.5v-28.2
		c1.1-18.7,16.5-33.5,35.5-33.5h13.2c19.6,0,35.5,15.9,35.5,35.5v9.5v16.7c0,19.6,15.9,35.5,35.5,35.5h24.9
		c19.6,0,35.5-15.9,35.5-35.5v-28.2c1.1-18.7,16.5-33.5,35.5-33.5h13.2c19.6,0,35.5,15.9,35.5,35.5v9.5v16.7
		c0,19.6,15.9,35.5,35.5,35.5h24.9c19.6,0,35.5-15.9,35.5-35.5v-28.2c1.1-18.7,16.5-33.5,35.5-33.5h13.2c19.6,0,35.5,15.9,35.5,35.5
		v9.5v16.7c0,19.6,15.9,35.5,35.5,35.5h24.9c19.6,0,35.5-15.9,35.5-35.5v-28.2c1.1-18.7,16.5-33.5,35.5-33.5h13.2
		c19.6,0,35.5,15.9,35.5,35.5v9.5v16.7c0,19.6,15.9,35.5,35.5,35.5h24.9c19.6,0,35.5-15.9,35.5-35.5v-28.2
		c1.1-18.7,16.5-33.5,35.5-33.5h13.2c19.6,0,35.5,15.9,35.5,35.5v9.5v16.7c0,19.6,15.9,35.5,35.5,35.5h24.9c4.2,0,8.2-0.7,12-2.1
		v-32.1c-5.2,3.1-11.3,4.8-17.8,4.8L1369,603.6L1369,603.6z"/>
	<path class="st5" d="M117.1,521.1h-5.4c-8.6,0-15.6,7-15.6,15.6v17.4c0,8.6,7,15.6,15.6,15.6h5.4c8.6,0,15.6-7,15.6-15.6v-17.4
		C132.7,528.1,125.7,521.1,117.1,521.1z"/>
	<path class="st5" d="M298.6,521.1h-5.4c-8.6,0-15.6,7-15.6,15.6v17.4c0,8.6,7,15.6,15.6,15.6h5.4c8.6,0,15.6-7,15.6-15.6v-17.4
		C314.1,528.1,307.2,521.1,298.6,521.1z"/>
	<path class="st5" d="M476.7,521.1h-5.4c-8.6,0-15.6,7-15.6,15.6v17.4c0,8.6,7,15.6,15.6,15.6h5.4c8.6,0,15.6-7,15.6-15.6v-17.4
		C492.3,528.1,485.3,521.1,476.7,521.1z"/>
	<path class="st5" d="M654.9,521.1h-5.4c-8.6,0-15.6,7-15.6,15.6v17.4c0,8.6,7,15.6,15.6,15.6h5.4c8.6,0,15.6-7,15.6-15.6v-17.4
		C670.5,528.1,663.5,521.1,654.9,521.1z"/>
	<path class="st5" d="M837.1,521.1h-5.4c-8.6,0-15.6,7-15.6,15.6v17.4c0,8.6,7,15.6,15.6,15.6h5.4c8.6,0,15.6-7,15.6-15.6v-17.4
		C852.6,528.1,845.7,521.1,837.1,521.1z"/>
	<path class="st5" d="M1018.3,521.1h-5.4c-8.6,0-15.6,7-15.6,15.6v17.4c0,8.6,7,15.6,15.6,15.6h5.4c8.6,0,15.6-7,15.6-15.6v-17.4
		C1033.9,528.1,1026.9,521.1,1018.3,521.1z"/>
	<path class="st5" d="M1200.5,521.1h-5.4c-8.6,0-15.6,7-15.6,15.6v17.4c0,8.6,7,15.6,15.6,15.6h5.4c8.6,0,15.6-7,15.6-15.6v-17.4
		C1216.1,528.1,1209.1,521.1,1200.5,521.1z"/>
	<path class="st5" d="M1375.2,521.1c-8.6,0-15.6,7-15.6,15.6v17.4c0,8.6,7,15.6,15.6,15.6h5.4c8.6,0,15.6-7,15.6-15.6v-17.4
		c0-8.6-7-15.6-15.6-15.6H1375.2z"/>
	<path class="st4" d="M26.1,565.3h-5.4c-8.6,0-15.6,7-15.6,15.6v17.3c0,8.6,7,15.6,15.6,15.6h5.4c8.6,0,15.6-7,15.6-15.6v-17.4
		C41.7,572.3,34.7,565.3,26.1,565.3z"/>
	<path class="st4" d="M205.9,565.3h-5.4c-8.6,0-15.6,7-15.6,15.6v17.3c0,8.6,7,15.6,15.6,15.6h5.4c8.6,0,15.6-7,15.6-15.6v-17.4
		C221.5,572.3,214.5,565.3,205.9,565.3z"/>
	<path class="st4" d="M385.8,565.3h-5.4c-8.6,0-15.6,7-15.6,15.6v17.3c0,8.6,7,15.6,15.6,15.6h5.4c8.6,0,15.6-7,15.6-15.6v-17.4
		C401.3,572.3,394.4,565.3,385.8,565.3z"/>
	<path class="st4" d="M565.6,565.3h-5.4c-8.6,0-15.6,7-15.6,15.6v17.3c0,8.6,7,15.6,15.6,15.6h5.4c8.6,0,15.6-7,15.6-15.6v-17.4
		C581.2,572.3,574.2,565.3,565.6,565.3z"/>
	<path class="st4" d="M745.4,565.3H740c-8.6,0-15.6,7-15.6,15.6v17.3c0,8.6,7,15.6,15.6,15.6h5.4c8.6,0,15.6-7,15.6-15.6v-17.4
		C761,572.3,754,565.3,745.4,565.3z"/>
	<path class="st4" d="M925.3,565.3h-5.4c-8.6,0-15.6,7-15.6,15.6v17.3c0,8.6,7,15.6,15.6,15.6h5.4c8.6,0,15.6-7,15.6-15.6v-17.4
		C940.8,572.3,933.9,565.3,925.3,565.3z"/>
	<path class="st4" d="M1105.1,565.3h-5.4c-8.6,0-15.6,7-15.6,15.6v17.3c0,8.6,7,15.6,15.6,15.6h5.4c8.6,0,15.6-7,15.6-15.6v-17.4
		C1120.7,572.3,1113.7,565.3,1105.1,565.3z"/>
	<path class="st4" d="M1284.9,565.3h-5.4c-8.6,0-15.6,7-15.6,15.6v17.3c0,8.6,7,15.6,15.6,15.6h5.4c8.6,0,15.6-7,15.6-15.6v-17.4
		C1300.5,572.3,1293.5,565.3,1284.9,565.3z"/>
	<path class="st4" d="M1369,730.2c-19.6,0-35.5-15.9-35.5-35.5v-9.5v-16.7c0-19.6-15.9-35.5-35.5-35.5h-25
		c-19.6,0-35.5,15.9-35.5,35.5v28.2c-1.1,18.7-16.5,33.5-35.5,33.5h-13.2c-19.6,0-35.5-15.9-35.5-35.5v-9.5v-16.7
		c0-19.6-15.9-35.5-35.5-35.5h-24.9c-19.6,0-35.5,15.9-35.5,35.5v28.2c-1.1,18.7-16.5,33.5-35.5,33.5h-13.2
		c-19.6,0-35.5-15.9-35.5-35.5v-9.5v-16.7c0-19.6-15.9-35.5-35.5-35.5h-24.9c-19.6,0-35.5,15.9-35.5,35.5v28.2
		c-1.1,18.7-16.5,33.5-35.5,33.5h-13.2c-19.6,0-35.5-15.9-35.5-35.5v-9.5v-16.7c0-19.6-15.9-35.5-35.5-35.5h-24.9
		c-19.6,0-35.5,15.9-35.5,35.5v28.2c-1.1,18.7-16.5,33.5-35.5,33.5h-13.2c-19.6,0-35.5-15.9-35.5-35.5v-9.5v-16.7
		c0-19.6-15.9-35.5-35.5-35.5h-24.9c-19.6,0-35.5,15.9-35.5,35.5v28.2c-1.1,18.7-16.5,33.5-35.5,33.5h-13.2
		c-19.6,0-35.5-15.9-35.5-35.5v-9.5v-16.7c0-19.6-15.9-35.5-35.5-35.5h-24.9c-19.6,0-35.5,15.9-35.5,35.5v28.2
		c-1.1,18.7-16.5,33.5-35.5,33.5h-13.2c-19.6,0-35.5-15.9-35.5-35.5v-9.5v-16.7c0-19.6-15.9-35.5-35.5-35.5h-24.9
		c-19.6,0-35.5,15.9-35.5,35.5v28.2c-1.1,18.7-16.5,33.5-35.5,33.5h-13.2c-19.6,0-35.5-15.9-35.5-35.5v-9.5v-16.7
		c0-19.6-15.9-35.5-35.5-35.5H12c-4.2,0-8.2,0.7-12,2.1v32.1c5.2-3.1,11.3-4.8,17.8-4.8H31c19.6,0,35.5,15.9,35.5,35.5v9.5v16.7
		c0,7.1,2.1,13.7,5.6,19.2h84.7c3.6-5.5,5.6-12.1,5.6-19.2v-28.2c1.1-18.7,16.5-33.5,35.5-33.5h13.2c19.6,0,35.5,15.9,35.5,35.5v9.5
		v16.7c0,7.1,2.1,13.7,5.6,19.2H337c3.6-5.5,5.6-12.1,5.6-19.2v-28.2c1.1-18.7,16.5-33.5,35.5-33.5h13.2c19.6,0,35.5,15.9,35.5,35.5
		v9.5v16.7c0,7.1,2.1,13.7,5.6,19.2h84.7c3.6-5.5,5.6-12.1,5.6-19.2v-28.2c1.1-18.7,16.5-33.5,35.5-33.5h13.2
		c19.6,0,35.5,15.9,35.5,35.5v9.5v16.7c0,7.1,2.1,13.7,5.6,19.2h84.7c3.6-5.5,5.6-12.1,5.6-19.2v-28.2c1.1-18.7,16.5-33.5,35.5-33.5
		h13.2c19.6,0,35.5,15.9,35.5,35.5v9.5v16.7c0,7.1,2.1,13.7,5.6,19.2h84.7c3.6-5.5,5.6-12.1,5.6-19.2v-28.2
		c1.1-18.7,16.5-33.5,35.5-33.5h13.2c19.6,0,35.5,15.9,35.5,35.5v9.5v16.7c0,7.1,2.1,13.7,5.6,19.2h84.7c3.6-5.5,5.6-12.1,5.6-19.2
		v-28.2c1.1-18.7,16.5-33.5,35.5-33.5h13.2c19.6,0,35.5,15.9,35.5,35.5v9.5v16.7c0,7.1,2.1,13.7,5.6,19.2h84.7
		c3.6-5.5,5.6-12.1,5.6-19.2v-28.2c1.1-18.7,16.5-33.5,35.5-33.5h13.2c19.6,0,35.5,15.9,35.5,35.5v9.5v16.7c0,7.1,2.1,13.7,5.6,19.2
		h66.8v-17.8c-5.2,3.1-11.3,4.8-17.8,4.8H1369V730.2z"/>
	<path class="st5" d="M117.1,647.7h-5.4c-8.6,0-15.6,7-15.6,15.6v17.4c0,8.6,7,15.6,15.6,15.6h5.4c8.6,0,15.6-7,15.6-15.6v-17.4
		C132.7,654.7,125.7,647.7,117.1,647.7z"/>
	<path class="st5" d="M298.6,647.7h-5.4c-8.6,0-15.6,7-15.6,15.6v17.4c0,8.6,7,15.6,15.6,15.6h5.4c8.6,0,15.6-7,15.6-15.6v-17.4
		C314.1,654.7,307.2,647.7,298.6,647.7z"/>
	<path class="st5" d="M476.7,647.7h-5.4c-8.6,0-15.6,7-15.6,15.6v17.4c0,8.6,7,15.6,15.6,15.6h5.4c8.6,0,15.6-7,15.6-15.6v-17.4
		C492.3,654.7,485.3,647.7,476.7,647.7z"/>
	<path class="st5" d="M654.9,647.7h-5.4c-8.6,0-15.6,7-15.6,15.6v17.4c0,8.6,7,15.6,15.6,15.6h5.4c8.6,0,15.6-7,15.6-15.6v-17.4
		C670.5,654.7,663.5,647.7,654.9,647.7z"/>
	<path class="st5" d="M837.1,647.7h-5.4c-8.6,0-15.6,7-15.6,15.6v17.4c0,8.6,7,15.6,15.6,15.6h5.4c8.6,0,15.6-7,15.6-15.6v-17.4
		C852.6,654.7,845.7,647.7,837.1,647.7z"/>
	<path class="st5" d="M1018.3,647.7h-5.4c-8.6,0-15.6,7-15.6,15.6v17.4c0,8.6,7,15.6,15.6,15.6h5.4c8.6,0,15.6-7,15.6-15.6v-17.4
		C1033.9,654.7,1026.9,647.7,1018.3,647.7z"/>
	<path class="st5" d="M1200.5,647.7h-5.4c-8.6,0-15.6,7-15.6,15.6v17.4c0,8.6,7,15.6,15.6,15.6h5.4c8.6,0,15.6-7,15.6-15.6v-17.4
		C1216.1,654.7,1209.1,647.7,1200.5,647.7z"/>
	<path class="st5" d="M1375.2,647.7c-8.6,0-15.6,7-15.6,15.6v17.4c0,8.6,7,15.6,15.6,15.6h5.4c8.6,0,15.6-7,15.6-15.6v-17.4
		c0-8.6-7-15.6-15.6-15.6H1375.2z"/>
	<path class="st4" d="M26.1,691.9h-5.4c-8.6,0-15.6,7-15.6,15.6v17.4c0,8.6,7,15.6,15.6,15.6h5.4c8.6,0,15.6-7,15.6-15.6v-17.4
		C41.7,698.9,34.7,691.9,26.1,691.9z"/>
	<path class="st4" d="M205.9,691.9h-5.4c-8.6,0-15.6,7-15.6,15.6v17.4c0,8.6,7,15.6,15.6,15.6h5.4c8.6,0,15.6-7,15.6-15.6v-17.4
		C221.5,698.9,214.5,691.9,205.9,691.9z"/>
	<path class="st4" d="M385.8,691.9h-5.4c-8.6,0-15.6,7-15.6,15.6v17.4c0,8.6,7,15.6,15.6,15.6h5.4c8.6,0,15.6-7,15.6-15.6v-17.4
		C401.3,698.9,394.4,691.9,385.8,691.9z"/>
	<path class="st4" d="M565.6,691.9h-5.4c-8.6,0-15.6,7-15.6,15.6v17.4c0,8.6,7,15.6,15.6,15.6h5.4c8.6,0,15.6-7,15.6-15.6v-17.4
		C581.2,698.9,574.2,691.9,565.6,691.9z"/>
	<path class="st4" d="M745.4,691.9H740c-8.6,0-15.6,7-15.6,15.6v17.4c0,8.6,7,15.6,15.6,15.6h5.4c8.6,0,15.6-7,15.6-15.6v-17.4
		C761,698.9,754,691.9,745.4,691.9z"/>
	<path class="st4" d="M925.3,691.9h-5.4c-8.6,0-15.6,7-15.6,15.6v17.4c0,8.6,7,15.6,15.6,15.6h5.4c8.6,0,15.6-7,15.6-15.6v-17.4
		C940.8,698.9,933.9,691.9,925.3,691.9z"/>
	<path class="st4" d="M1105.1,691.9h-5.4c-8.6,0-15.6,7-15.6,15.6v17.4c0,8.6,7,15.6,15.6,15.6h5.4c8.6,0,15.6-7,15.6-15.6v-17.4
		C1120.7,698.9,1113.7,691.9,1105.1,691.9z"/>
	<path class="st4" d="M1284.9,691.9h-5.4c-8.6,0-15.6,7-15.6,15.6v17.4c0,8.6,7,15.6,15.6,15.6h5.4c8.6,0,15.6-7,15.6-15.6v-17.4
		C1300.5,698.9,1293.5,691.9,1284.9,691.9z"/>
</g>
</svg>
