<?xml version="1.0" encoding="utf-8"?>
<!-- Generator: Adobe Illustrator 21.1.0, SVG Export Plug-In . SVG Version: 6.00 Build 0)  -->
<svg version="1.1" id="Layer_1" xmlns="http://www.w3.org/2000/svg" xmlns:xlink="http://www.w3.org/1999/xlink" x="0px" y="0px"
	 viewBox="0 0 842 595.3" style="enable-background:new 0 0 842 595.3;" xml:space="preserve">
<style type="text/css">
	.st0{fill:#006998;}
	.st1{fill:#00567E;}
</style>
<rect class="st0" width="841.9" height="595.3"/>
<g>
	<g>
		<g>
			<path class="st1" d="M491.1,179.1c-8.5,0-10.8,12.5-16,19.3h8.7c1.9-2.5,4.2-4.2,7.4-4.2c3.2,0,5.5,1.7,7.4,4.2h8.7
				C501.9,191.7,499.6,179.1,491.1,179.1z"/>
			<path class="st1" d="M397.6,179.1c-8.5,0-10.8,12.5-16,19.3h8.7c1.9-2.5,4.2-4.2,7.4-4.2c3.2,0,5.5,1.7,7.4,4.2h8.7
				C408.4,191.7,406.1,179.1,397.6,179.1z"/>
			<path class="st1" d="M444.3,179.1c-8.5,0-10.8,12.5-16,19.3h8.7c1.9-2.5,4.2-4.2,7.4-4.2c3.2,0,5.5,1.7,7.4,4.2h8.7
				C455.2,191.7,452.9,179.1,444.3,179.1z"/>
			<path class="st1" d="M537.9,179.1c-8.5,0-10.8,12.5-16,19.3h8.7c1.9-2.5,4.2-4.2,7.4-4.2s5.5,1.7,7.4,4.2h8.7
				C548.7,191.7,546.4,179.1,537.9,179.1z"/>
			<path class="st1" d="M304,179.1c-8.5,0-10.8,12.5-16,19.3h8.7c1.9-2.5,4.2-4.2,7.4-4.2c3.2,0,5.5,1.7,7.4,4.2h8.7
				C314.9,191.7,312.6,179.1,304,179.1z"/>
			<path class="st1" d="M350.8,179.1c-8.5,0-10.8,12.5-16,19.3h8.7c1.9-2.5,4.2-4.2,7.4-4.2c3.2,0,5.5,1.7,7.4,4.2h8.7
				C361.6,191.7,359.3,179.1,350.8,179.1z"/>
			<path class="st1" d="M304,165.9c11.7,0,11.7,23.5,23.4,23.5c11.7,0,11.7-23.5,23.4-23.5c11.7,0,11.7,23.5,23.4,23.5
				c11.7,0,11.7-23.5,23.4-23.5c11.7,0,11.7,23.5,23.4,23.5c11.7,0,11.7-23.5,23.4-23.5c11.7,0,11.7,23.5,23.4,23.5
				c11.7,0,11.7-23.5,23.4-23.5c11.7,0,11.7,23.5,23.4,23.5s11.7-23.5,23.4-23.5s11.7,23.5,23.4,23.5v-15.1
				c-11.7,0-11.7-23.5-23.4-23.5s-11.7,23.5-23.4,23.5s-11.7-23.5-23.4-23.5c-11.7,0-11.7,23.5-23.4,23.5
				c-11.7,0-11.7-23.5-23.4-23.5c-11.7,0-11.7,23.5-23.4,23.5c-11.7,0-11.7-23.5-23.4-23.5c-11.7,0-11.7,23.5-23.4,23.5
				c-11.7,0-11.7-23.5-23.4-23.5c-11.7,0-11.7,23.5-23.4,23.5c-11.7,0-11.7-23.5-23.4-23.5c-11.7,0-11.7,23.5-23.4,23.5v15.1
				C292.3,189.4,292.3,165.9,304,165.9z"/>
			<path class="st1" d="M304,137.5c11.7,0,11.7,23.5,23.4,23.5c11.7,0,11.7-23.5,23.4-23.5c11.7,0,11.7,23.5,23.4,23.5
				c11.7,0,11.7-23.5,23.4-23.5c11.7,0,11.7,23.5,23.4,23.5c11.7,0,11.7-23.5,23.4-23.5c11.7,0,11.7,23.5,23.4,23.5
				c11.7,0,11.7-23.5,23.4-23.5c11.7,0,11.7,23.5,23.4,23.5s11.7-23.5,23.4-23.5s11.7,23.5,23.4,23.5v-15.1
				c-11.7,0-11.7-23.5-23.4-23.5s-11.7,23.5-23.4,23.5s-11.7-23.5-23.4-23.5c-11.7,0-11.7,23.5-23.4,23.5
				c-11.7,0-11.7-23.5-23.4-23.5c-11.7,0-11.7,23.5-23.4,23.5c-11.7,0-11.7-23.5-23.4-23.5c-11.7,0-11.7,23.5-23.4,23.5
				c-11.7,0-11.7-23.5-23.4-23.5c-11.7,0-11.7,23.5-23.4,23.5c-11.7,0-11.7-23.5-23.4-23.5c-11.7,0-11.7,23.5-23.4,23.5V161
				C292.3,161,292.3,137.5,304,137.5z"/>
			<path class="st1" d="M304,109.2c11.7,0,11.7,23.5,23.4,23.5c11.7,0,11.7-23.5,23.4-23.5c11.7,0,11.7,23.5,23.4,23.5
				c11.7,0,11.7-23.5,23.4-23.5c11.7,0,11.7,23.5,23.4,23.5c11.7,0,11.7-23.5,23.4-23.5c11.7,0,11.7,23.5,23.4,23.5
				c11.7,0,11.7-23.5,23.4-23.5c11.7,0,11.7,23.5,23.4,23.5s11.7-23.5,23.4-23.5s11.7,23.5,23.4,23.5v-15.1
				c-11.7,0-11.7-23.5-23.4-23.5s-11.7,23.5-23.4,23.5s-11.7-23.5-23.4-23.5c-11.7,0-11.7,23.5-23.4,23.5
				c-11.7,0-11.7-23.5-23.4-23.5c-11.7,0-11.7,23.5-23.4,23.5c-11.7,0-11.7-23.5-23.4-23.5c-11.7,0-11.7,23.5-23.4,23.5
				c-11.7,0-11.7-23.5-23.4-23.5c-11.7,0-11.7,23.5-23.4,23.5c-11.7,0-11.7-23.5-23.4-23.5c-11.7,0-11.7,23.5-23.4,23.5v15.1
				C292.3,132.7,292.3,109.2,304,109.2z"/>
			<path class="st1" d="M304,80.8c11.7,0,11.7,23.5,23.4,23.5c11.7,0,11.7-23.5,23.4-23.5c11.7,0,11.7,23.5,23.4,23.5
				c11.7,0,11.7-23.5,23.4-23.5c11.7,0,11.7,23.5,23.4,23.5c11.7,0,11.7-23.5,23.4-23.5c11.7,0,11.7,23.5,23.4,23.5
				c11.7,0,11.7-23.5,23.4-23.5c11.7,0,11.7,23.5,23.4,23.5s11.7-23.5,23.4-23.5s11.7,23.5,23.4,23.5v-15
				c-11.7,0-11.7-23.5-23.4-23.5s-11.7,23.5-23.4,23.5s-11.7-23.5-23.4-23.5c-11.7,0-11.7,23.5-23.4,23.5
				c-11.7,0-11.7-23.5-23.4-23.5c-11.7,0-11.7,23.5-23.4,23.5c-11.7,0-11.7-23.5-23.4-23.5c-11.7,0-11.7,23.5-23.4,23.5
				c-11.7,0-11.7-23.5-23.4-23.5c-11.7,0-11.7,23.5-23.4,23.5c-11.7,0-11.7-23.5-23.4-23.5c-11.7,0-11.7,23.5-23.4,23.5v15.1
				C292.3,104.3,292.3,80.8,304,80.8z"/>
			<path class="st1" d="M304,52.5c11.7,0,11.7,23.5,23.4,23.5c11.7,0,11.7-23.5,23.4-23.5c11.7,0,11.7,23.5,23.4,23.5
				c11.7,0,11.7-23.5,23.4-23.5c11.7,0,11.7,23.5,23.4,23.5c11.7,0,11.7-23.5,23.4-23.5C456,52.5,456,76,467.7,76
				s11.7-23.5,23.4-23.5c11.7,0,11.7,23.5,23.4,23.5c11.7,0,11.7-23.5,23.4-23.5S549.6,76,561.3,76V60.9
				c-11.7,0-11.7-23.5-23.4-23.5s-11.7,23.5-23.4,23.5s-11.7-23.5-23.4-23.5c-11.7,0-11.7,23.5-23.4,23.5
				c-11.7,0-11.7-23.5-23.4-23.5c-11.7,0-11.7,23.5-23.4,23.5c-11.7,0-11.7-23.5-23.4-23.5c-11.7,0-11.7,23.5-23.4,23.5
				c-11.7,0-11.7-23.5-23.4-23.5c-11.7,0-11.7,23.5-23.4,23.5c-11.7,0-11.7-23.5-23.4-23.5c-11.7,0-11.7,23.5-23.4,23.5V76
				C292.3,76,292.3,52.5,304,52.5z"/>
			<path class="st1" d="M304,24.1c11.7,0,11.7,23.5,23.4,23.5c11.7,0,11.7-23.5,23.4-23.5c11.7,0,11.7,23.5,23.4,23.5
				c11.7,0,11.7-23.5,23.4-23.5c11.7,0,11.7,23.5,23.4,23.5c11.7,0,11.7-23.5,23.4-23.5c11.7,0,11.7,23.5,23.4,23.5
				c11.7,0,11.7-23.5,23.4-23.5c11.7,0,11.7,23.5,23.4,23.5s11.7-23.5,23.4-23.5s11.7,23.5,23.4,23.5v-15
				c-11.7,0-11.7-23.5-23.4-23.5s-11.7,23.5-23.4,23.5S502.9,9.1,491.2,9.1c-11.7,0-11.7,23.5-23.4,23.5C456,32.6,456,9.1,444.3,9.1
				s-11.7,23.5-23.4,23.5c-11.7,0-11.7-23.5-23.4-23.5c-11.7,0-11.7,23.5-23.4,23.5c-11.7,0-11.7-23.5-23.4-23.5
				c-11.7,0-11.7,23.5-23.4,23.5c-11.7,0-11.7-23.5-23.4-23.5c-11.7,0-11.7,23.5-23.4,23.5v15.1C292.3,47.6,292.3,24.1,304,24.1z"/>
			<path class="st1" d="M467.7,19.3c8.5,0,10.8-12.5,16-19.3H475c-1.9,2.5-4.2,4.2-7.4,4.2c-3.2,0-5.5-1.7-7.4-4.2h-8.7
				C456.9,6.8,459.2,19.3,467.7,19.3z"/>
			<path class="st1" d="M420.9,19.3c8.5,0,10.8-12.5,16-19.3h-8.7c-1.9,2.5-4.2,4.2-7.4,4.2c-3.2,0-5.5-1.7-7.4-4.2h-8.7
				C410.1,6.8,412.4,19.3,420.9,19.3z"/>
			<path class="st1" d="M561.3,19.3V4.2c-3.2,0-5.5-1.7-7.4-4.2h-8.7C550.4,6.8,552.7,19.3,561.3,19.3z"/>
			<path class="st1" d="M514.5,19.3c8.5,0,10.8-12.5,16-19.3h-8.7c-1.9,2.5-4.2,4.2-7.4,4.2S509,2.5,507.1,0h-8.7
				C503.6,6.8,505.9,19.3,514.5,19.3z"/>
			<path class="st1" d="M280.6,19.3c8.5,0,10.8-12.5,16-19.3H288c-1.9,2.5-4.2,4.2-7.4,4.2V19.3z"/>
			<path class="st1" d="M374.2,19.3c8.5,0,10.8-12.5,16-19.3h-8.7c-1.9,2.5-4.2,4.2-7.4,4.2c-3.2,0-5.5-1.7-7.4-4.2H358
				C363.3,6.8,365.6,19.3,374.2,19.3z"/>
			<path class="st1" d="M327.4,19.3c8.5,0,10.8-12.5,16-19.3h-8.7c-1.9,2.5-4.2,4.2-7.4,4.2c-3.2,0-5.5-1.7-7.4-4.2h-8.7
				C316.6,6.8,318.9,19.3,327.4,19.3z"/>
		</g>
		<g>
			<path class="st1" d="M210.5,179.1c-8.5,0-10.8,12.5-16,19.3h8.7c1.9-2.5,4.2-4.2,7.4-4.2s5.5,1.7,7.4,4.2h8.7
				C221.3,191.7,219,179.1,210.5,179.1z"/>
			<path class="st1" d="M116.9,179.1c-8.5,0-10.8,12.5-16,19.3h8.7c1.9-2.5,4.2-4.2,7.4-4.2c3.2,0,5.5,1.7,7.4,4.2h8.7
				C127.8,191.7,125.5,179.1,116.9,179.1z"/>
			<path class="st1" d="M163.7,179.1c-8.5,0-10.8,12.5-16,19.3h8.7c1.9-2.5,4.2-4.2,7.4-4.2s5.5,1.7,7.4,4.2h8.7
				C174.5,191.7,172.2,179.1,163.7,179.1z"/>
			<path class="st1" d="M257.2,179.1c-8.5,0-10.8,12.5-16,19.3h8.7c1.9-2.5,4.2-4.2,7.4-4.2s5.5,1.7,7.4,4.2h8.7
				C268.1,191.7,265.8,179.1,257.2,179.1z"/>
			<path class="st1" d="M23.4,179.1c-8.5,0-10.8,12.5-16,19.3H16c1.9-2.5,4.2-4.2,7.4-4.2s5.5,1.7,7.4,4.2h8.7
				C34.2,191.7,31.9,179.1,23.4,179.1z"/>
			<path class="st1" d="M70.2,179.1c-8.5,0-10.8,12.5-16,19.3h8.7c1.9-2.5,4.2-4.2,7.4-4.2s5.5,1.7,7.4,4.2h8.7
				C81,191.7,78.7,179.1,70.2,179.1z"/>
			<path class="st1" d="M23.4,165.9c11.7,0,11.7,23.5,23.4,23.5s11.7-23.5,23.4-23.5s11.7,23.5,23.4,23.5s11.7-23.5,23.4-23.5
				s11.7,23.5,23.4,23.5s11.7-23.5,23.4-23.5s11.7,23.5,23.4,23.5s11.7-23.5,23.4-23.5s11.7,23.5,23.4,23.5s11.7-23.5,23.4-23.5
				c11.7,0,11.7,23.5,23.4,23.5v-15.1c-11.7,0-11.7-23.5-23.4-23.5c-11.7,0-11.7,23.5-23.4,23.5s-11.7-23.5-23.4-23.5
				s-11.7,23.5-23.4,23.5s-11.7-23.5-23.4-23.5s-11.7,23.5-23.4,23.5s-11.7-23.5-23.4-23.5s-11.7,23.5-23.4,23.5
				s-11.7-23.5-23.4-23.5s-11.7,23.5-23.4,23.5s-11.7-23.5-23.4-23.5S11.7,174.3,0,174.3v15.1C11.7,189.4,11.7,165.9,23.4,165.9z"/>
			<path class="st1" d="M23.4,137.5c11.7,0,11.7,23.5,23.4,23.5s11.7-23.5,23.4-23.5S81.9,161,93.6,161s11.7-23.5,23.4-23.5
				s11.7,23.5,23.4,23.5s11.7-23.5,23.4-23.5s11.7,23.5,23.4,23.5s11.7-23.5,23.4-23.5S222.3,161,234,161s11.7-23.5,23.4-23.5
				c11.7,0,11.7,23.5,23.4,23.5v-15.1c-11.7,0-11.7-23.5-23.4-23.5c-11.7,0-11.7,23.5-23.4,23.5s-11.7-23.5-23.4-23.5
				s-11.7,23.5-23.4,23.5s-11.7-23.5-23.4-23.5s-11.7,23.5-23.4,23.5s-11.7-23.5-23.4-23.5s-11.7,23.5-23.4,23.5
				s-11.7-23.5-23.4-23.5s-11.7,23.5-23.4,23.5s-11.7-23.5-23.4-23.5S11.7,145.9,0,145.9V161C11.7,161,11.7,137.5,23.4,137.5z"/>
			<path class="st1" d="M23.4,109.2c11.7,0,11.7,23.5,23.4,23.5s11.7-23.5,23.4-23.5s11.7,23.5,23.4,23.5s11.7-23.5,23.4-23.5
				s11.7,23.5,23.4,23.5s11.7-23.5,23.4-23.5s11.7,23.5,23.4,23.5s11.7-23.5,23.4-23.5s11.7,23.5,23.4,23.5s11.7-23.5,23.4-23.5
				c11.7,0,11.7,23.5,23.4,23.5v-15.1c-11.7,0-11.7-23.5-23.4-23.5c-11.7,0-11.7,23.5-23.4,23.5s-11.7-23.5-23.4-23.5
				s-11.7,23.5-23.4,23.5s-11.7-23.5-23.4-23.5s-11.7,23.5-23.4,23.5S128.7,94.1,117,94.1s-11.7,23.5-23.4,23.5S81.9,94.1,70.2,94.1
				s-11.7,23.5-23.4,23.5S35.1,94.1,23.4,94.1S11.7,117.6,0,117.6v15.1C11.7,132.7,11.7,109.2,23.4,109.2z"/>
			<path class="st1" d="M23.4,80.8c11.7,0,11.7,23.5,23.4,23.5s11.7-23.5,23.4-23.5s11.7,23.5,23.4,23.5s11.7-23.5,23.4-23.5
				s11.7,23.5,23.4,23.5s11.7-23.5,23.4-23.5s11.7,23.5,23.4,23.5s11.7-23.5,23.4-23.5s11.7,23.5,23.4,23.5s11.7-23.5,23.4-23.5
				c11.7,0,11.7,23.5,23.4,23.5v-15c-11.7,0-11.7-23.5-23.4-23.5c-11.7,0-11.7,23.5-23.4,23.5s-11.7-23.5-23.4-23.5
				s-11.7,23.5-23.4,23.5s-11.7-23.5-23.4-23.5s-11.7,23.5-23.4,23.5S128.7,65.8,117,65.8s-11.7,23.5-23.4,23.5S81.9,65.8,70.2,65.8
				S58.5,89.3,46.8,89.3S35.1,65.8,23.4,65.8C11.7,65.7,11.7,89.3,0,89.3v15.1C11.7,104.3,11.7,80.8,23.4,80.8z"/>
			<path class="st1" d="M23.4,52.5C35.1,52.5,35.1,76,46.8,76s11.7-23.5,23.4-23.5S81.9,76,93.5,76c11.7,0,11.7-23.5,23.4-23.5
				S128.6,76,140.3,76s11.7-23.5,23.4-23.5S175.4,76,187.1,76s11.7-23.5,23.4-23.5S222.2,76,233.9,76s11.7-23.5,23.4-23.5
				C269,52.5,269,76,280.7,76V60.9c-11.7,0-11.7-23.5-23.4-23.5c-11.7,0-11.7,23.5-23.4,23.5s-11.7-23.5-23.4-23.5
				s-11.7,23.5-23.4,23.5s-11.7-23.5-23.4-23.5S152,60.9,140.3,60.9s-11.7-23.5-23.4-23.5s-11.7,23.5-23.4,23.5S81.8,37.4,70.1,37.4
				S58.4,60.9,46.7,60.9S35,37.4,23.3,37.4C11.7,37.4,11.7,60.9,0,60.9V76C11.7,76,11.7,52.5,23.4,52.5z"/>
			<path class="st1" d="M23.4,24.1c11.7,0,11.7,23.5,23.4,23.5s11.7-23.5,23.4-23.5s11.7,23.5,23.4,23.5s11.7-23.5,23.4-23.5
				s11.7,23.5,23.4,23.5s11.7-23.5,23.4-23.5s11.7,23.5,23.4,23.5s11.7-23.5,23.4-23.5s11.7,23.5,23.4,23.5s11.7-23.5,23.4-23.5
				c11.7,0,11.7,23.5,23.4,23.5v-15c-11.7,0-11.7-23.5-23.4-23.5c-11.7,0-11.7,23.5-23.4,23.5S222.3,9.1,210.6,9.1
				s-11.7,23.5-23.4,23.5S175.5,9.1,163.8,9.1s-11.7,23.5-23.4,23.5S128.7,9.1,117,9.1s-11.7,23.5-23.4,23.5S81.9,9.1,70.2,9.1
				S58.5,32.6,46.8,32.6S35.1,9.1,23.4,9.1S11.7,32.6,0,32.6v15.1C11.7,47.6,11.7,24.1,23.4,24.1z"/>
			<path class="st1" d="M187.1,19.3c8.5,0,10.8-12.5,16-19.3h-8.7c-1.9,2.5-4.2,4.2-7.4,4.2s-5.5-1.7-7.4-4.2h-8.7
				C176.2,6.8,178.5,19.3,187.1,19.3z"/>
			<path class="st1" d="M140.3,19.3c8.5,0,10.8-12.5,16-19.3h-8.7c-1.9,2.5-4.2,4.2-7.4,4.2S134.9,2.5,133,0h-8.7
				C129.5,6.8,131.8,19.3,140.3,19.3z"/>
			<path class="st1" d="M280.6,19.3V4.2c-3.2,0-5.5-1.7-7.4-4.2h-8.7C269.8,6.8,272.1,19.3,280.6,19.3z"/>
			<path class="st1" d="M233.9,19.3c8.5,0,10.8-12.5,16-19.3h-8.7c-1.9,2.5-4.2,4.2-7.4,4.2s-5.5-1.7-7.4-4.2h-8.7
				C223,6.8,225.3,19.3,233.9,19.3z"/>
			<path class="st1" d="M0,19.3C8.5,19.3,10.8,6.8,16,0H7.4C5.5,2.5,3.2,4.2,0,4.2V19.3z"/>
			<path class="st1" d="M93.5,19.3c8.5,0,10.8-12.5,16-19.3h-8.7c-1.9,2.5-4.2,4.2-7.4,4.2S88.1,2.5,86.2,0h-8.7
				C82.7,6.8,85,19.3,93.5,19.3z"/>
			<path class="st1" d="M46.8,19.3c8.5,0,10.8-12.5,16-19.3h-8.7c-1.9,2.5-4.2,4.2-7.4,4.2S41.2,2.5,39.3,0h-8.7
				C35.9,6.8,38.2,19.3,46.8,19.3z"/>
		</g>
		<g>
			<path class="st1" d="M491.1,179.1c-8.5,0-10.8,12.5-16,19.3h8.7c1.9-2.5,4.2-4.2,7.4-4.2c3.2,0,5.5,1.7,7.4,4.2h8.7
				C501.9,191.7,499.6,179.1,491.1,179.1z"/>
			<path class="st1" d="M397.6,179.1c-8.5,0-10.8,12.5-16,19.3h8.7c1.9-2.5,4.2-4.2,7.4-4.2c3.2,0,5.5,1.7,7.4,4.2h8.7
				C408.4,191.7,406.1,179.1,397.6,179.1z"/>
			<path class="st1" d="M444.3,179.1c-8.5,0-10.8,12.5-16,19.3h8.7c1.9-2.5,4.2-4.2,7.4-4.2c3.2,0,5.5,1.7,7.4,4.2h8.7
				C455.2,191.7,452.9,179.1,444.3,179.1z"/>
			<path class="st1" d="M537.9,179.1c-8.5,0-10.8,12.5-16,19.3h8.7c1.9-2.5,4.2-4.2,7.4-4.2s5.5,1.7,7.4,4.2h8.7
				C548.7,191.7,546.4,179.1,537.9,179.1z"/>
			<path class="st1" d="M304,179.1c-8.5,0-10.8,12.5-16,19.3h8.7c1.9-2.5,4.2-4.2,7.4-4.2c3.2,0,5.5,1.7,7.4,4.2h8.7
				C314.9,191.7,312.6,179.1,304,179.1z"/>
			<path class="st1" d="M350.8,179.1c-8.5,0-10.8,12.5-16,19.3h8.7c1.9-2.5,4.2-4.2,7.4-4.2c3.2,0,5.5,1.7,7.4,4.2h8.7
				C361.6,191.7,359.3,179.1,350.8,179.1z"/>
			<path class="st1" d="M304,165.9c11.7,0,11.7,23.5,23.4,23.5c11.7,0,11.7-23.5,23.4-23.5c11.7,0,11.7,23.5,23.4,23.5
				c11.7,0,11.7-23.5,23.4-23.5c11.7,0,11.7,23.5,23.4,23.5c11.7,0,11.7-23.5,23.4-23.5c11.7,0,11.7,23.5,23.4,23.5
				c11.7,0,11.7-23.5,23.4-23.5c11.7,0,11.7,23.5,23.4,23.5s11.7-23.5,23.4-23.5s11.7,23.5,23.4,23.5v-15.1
				c-11.7,0-11.7-23.5-23.4-23.5s-11.7,23.5-23.4,23.5s-11.7-23.5-23.4-23.5c-11.7,0-11.7,23.5-23.4,23.5
				c-11.7,0-11.7-23.5-23.4-23.5c-11.7,0-11.7,23.5-23.4,23.5c-11.7,0-11.7-23.5-23.4-23.5c-11.7,0-11.7,23.5-23.4,23.5
				c-11.7,0-11.7-23.5-23.4-23.5c-11.7,0-11.7,23.5-23.4,23.5c-11.7,0-11.7-23.5-23.4-23.5c-11.7,0-11.7,23.5-23.4,23.5v15.1
				C292.3,189.4,292.3,165.9,304,165.9z"/>
			<path class="st1" d="M304,137.5c11.7,0,11.7,23.5,23.4,23.5c11.7,0,11.7-23.5,23.4-23.5c11.7,0,11.7,23.5,23.4,23.5
				c11.7,0,11.7-23.5,23.4-23.5c11.7,0,11.7,23.5,23.4,23.5c11.7,0,11.7-23.5,23.4-23.5c11.7,0,11.7,23.5,23.4,23.5
				c11.7,0,11.7-23.5,23.4-23.5c11.7,0,11.7,23.5,23.4,23.5s11.7-23.5,23.4-23.5s11.7,23.5,23.4,23.5v-15.1
				c-11.7,0-11.7-23.5-23.4-23.5s-11.7,23.5-23.4,23.5s-11.7-23.5-23.4-23.5c-11.7,0-11.7,23.5-23.4,23.5
				c-11.7,0-11.7-23.5-23.4-23.5c-11.7,0-11.7,23.5-23.4,23.5c-11.7,0-11.7-23.5-23.4-23.5c-11.7,0-11.7,23.5-23.4,23.5
				c-11.7,0-11.7-23.5-23.4-23.5c-11.7,0-11.7,23.5-23.4,23.5c-11.7,0-11.7-23.5-23.4-23.5c-11.7,0-11.7,23.5-23.4,23.5V161
				C292.3,161,292.3,137.5,304,137.5z"/>
			<path class="st1" d="M304,109.2c11.7,0,11.7,23.5,23.4,23.5c11.7,0,11.7-23.5,23.4-23.5c11.7,0,11.7,23.5,23.4,23.5
				c11.7,0,11.7-23.5,23.4-23.5c11.7,0,11.7,23.5,23.4,23.5c11.7,0,11.7-23.5,23.4-23.5c11.7,0,11.7,23.5,23.4,23.5
				c11.7,0,11.7-23.5,23.4-23.5c11.7,0,11.7,23.5,23.4,23.5s11.7-23.5,23.4-23.5s11.7,23.5,23.4,23.5v-15.1
				c-11.7,0-11.7-23.5-23.4-23.5s-11.7,23.5-23.4,23.5s-11.7-23.5-23.4-23.5c-11.7,0-11.7,23.5-23.4,23.5
				c-11.7,0-11.7-23.5-23.4-23.5c-11.7,0-11.7,23.5-23.4,23.5c-11.7,0-11.7-23.5-23.4-23.5c-11.7,0-11.7,23.5-23.4,23.5
				c-11.7,0-11.7-23.5-23.4-23.5c-11.7,0-11.7,23.5-23.4,23.5c-11.7,0-11.7-23.5-23.4-23.5c-11.7,0-11.7,23.5-23.4,23.5v15.1
				C292.3,132.7,292.3,109.2,304,109.2z"/>
			<path class="st1" d="M304,80.8c11.7,0,11.7,23.5,23.4,23.5c11.7,0,11.7-23.5,23.4-23.5c11.7,0,11.7,23.5,23.4,23.5
				c11.7,0,11.7-23.5,23.4-23.5c11.7,0,11.7,23.5,23.4,23.5c11.7,0,11.7-23.5,23.4-23.5c11.7,0,11.7,23.5,23.4,23.5
				c11.7,0,11.7-23.5,23.4-23.5c11.7,0,11.7,23.5,23.4,23.5s11.7-23.5,23.4-23.5s11.7,23.5,23.4,23.5v-15
				c-11.7,0-11.7-23.5-23.4-23.5s-11.7,23.5-23.4,23.5s-11.7-23.5-23.4-23.5c-11.7,0-11.7,23.5-23.4,23.5
				c-11.7,0-11.7-23.5-23.4-23.5c-11.7,0-11.7,23.5-23.4,23.5c-11.7,0-11.7-23.5-23.4-23.5c-11.7,0-11.7,23.5-23.4,23.5
				c-11.7,0-11.7-23.5-23.4-23.5c-11.7,0-11.7,23.5-23.4,23.5c-11.7,0-11.7-23.5-23.4-23.5c-11.7,0-11.7,23.5-23.4,23.5v15.1
				C292.3,104.3,292.3,80.8,304,80.8z"/>
			<path class="st1" d="M304,52.5c11.7,0,11.7,23.5,23.4,23.5c11.7,0,11.7-23.5,23.4-23.5c11.7,0,11.7,23.5,23.4,23.5
				c11.7,0,11.7-23.5,23.4-23.5c11.7,0,11.7,23.5,23.4,23.5c11.7,0,11.7-23.5,23.4-23.5C456,52.5,456,76,467.7,76
				s11.7-23.5,23.4-23.5c11.7,0,11.7,23.5,23.4,23.5c11.7,0,11.7-23.5,23.4-23.5S549.6,76,561.3,76V60.9
				c-11.7,0-11.7-23.5-23.4-23.5s-11.7,23.5-23.4,23.5s-11.7-23.5-23.4-23.5c-11.7,0-11.7,23.5-23.4,23.5
				c-11.7,0-11.7-23.5-23.4-23.5c-11.7,0-11.7,23.5-23.4,23.5c-11.7,0-11.7-23.5-23.4-23.5c-11.7,0-11.7,23.5-23.4,23.5
				c-11.7,0-11.7-23.5-23.4-23.5c-11.7,0-11.7,23.5-23.4,23.5c-11.7,0-11.7-23.5-23.4-23.5c-11.7,0-11.7,23.5-23.4,23.5V76
				C292.3,76,292.3,52.5,304,52.5z"/>
			<path class="st1" d="M304,24.1c11.7,0,11.7,23.5,23.4,23.5c11.7,0,11.7-23.5,23.4-23.5c11.7,0,11.7,23.5,23.4,23.5
				c11.7,0,11.7-23.5,23.4-23.5c11.7,0,11.7,23.5,23.4,23.5c11.7,0,11.7-23.5,23.4-23.5c11.7,0,11.7,23.5,23.4,23.5
				c11.7,0,11.7-23.5,23.4-23.5c11.7,0,11.7,23.5,23.4,23.5s11.7-23.5,23.4-23.5s11.7,23.5,23.4,23.5v-15
				c-11.7,0-11.7-23.5-23.4-23.5s-11.7,23.5-23.4,23.5S502.9,9.1,491.2,9.1c-11.7,0-11.7,23.5-23.4,23.5C456,32.6,456,9.1,444.3,9.1
				s-11.7,23.5-23.4,23.5c-11.7,0-11.7-23.5-23.4-23.5c-11.7,0-11.7,23.5-23.4,23.5c-11.7,0-11.7-23.5-23.4-23.5
				c-11.7,0-11.7,23.5-23.4,23.5c-11.7,0-11.7-23.5-23.4-23.5c-11.7,0-11.7,23.5-23.4,23.5v15.1C292.3,47.6,292.3,24.1,304,24.1z"/>
			<path class="st1" d="M467.7,19.3c8.5,0,10.8-12.5,16-19.3H475c-1.9,2.5-4.2,4.2-7.4,4.2c-3.2,0-5.5-1.7-7.4-4.2h-8.7
				C456.9,6.8,459.2,19.3,467.7,19.3z"/>
			<path class="st1" d="M420.9,19.3c8.5,0,10.8-12.5,16-19.3h-8.7c-1.9,2.5-4.2,4.2-7.4,4.2c-3.2,0-5.5-1.7-7.4-4.2h-8.7
				C410.1,6.8,412.4,19.3,420.9,19.3z"/>
			<path class="st1" d="M561.3,19.3V4.2c-3.2,0-5.5-1.7-7.4-4.2h-8.7C550.4,6.8,552.7,19.3,561.3,19.3z"/>
			<path class="st1" d="M514.5,19.3c8.5,0,10.8-12.5,16-19.3h-8.7c-1.9,2.5-4.2,4.2-7.4,4.2S509,2.5,507.1,0h-8.7
				C503.6,6.8,505.9,19.3,514.5,19.3z"/>
			<path class="st1" d="M280.6,19.3c8.5,0,10.8-12.5,16-19.3H288c-1.9,2.5-4.2,4.2-7.4,4.2V19.3z"/>
			<path class="st1" d="M374.2,19.3c8.5,0,10.8-12.5,16-19.3h-8.7c-1.9,2.5-4.2,4.2-7.4,4.2c-3.2,0-5.5-1.7-7.4-4.2H358
				C363.3,6.8,365.6,19.3,374.2,19.3z"/>
			<path class="st1" d="M327.4,19.3c8.5,0,10.8-12.5,16-19.3h-8.7c-1.9,2.5-4.2,4.2-7.4,4.2c-3.2,0-5.5-1.7-7.4-4.2h-8.7
				C316.6,6.8,318.9,19.3,327.4,19.3z"/>
		</g>
		<g>
			<path class="st1" d="M771.7,179.1c-8.5,0-10.8,12.5-16,19.3h8.7c1.9-2.5,4.2-4.2,7.4-4.2s5.5,1.7,7.4,4.2h8.7
				C782.6,191.7,780.3,179.1,771.7,179.1z"/>
			<path class="st1" d="M678.2,179.1c-8.5,0-10.8,12.5-16,19.3h8.7c1.9-2.5,4.2-4.2,7.4-4.2s5.5,1.7,7.4,4.2h8.7
				C689,191.7,686.7,179.1,678.2,179.1z"/>
			<path class="st1" d="M725,179.1c-8.5,0-10.8,12.5-16,19.3h8.7c1.9-2.5,4.2-4.2,7.4-4.2s5.5,1.7,7.4,4.2h8.7
				C735.8,191.7,733.5,179.1,725,179.1z"/>
			<path class="st1" d="M818.5,179.1c-8.5,0-10.8,12.5-16,19.3h8.7c1.9-2.5,4.2-4.2,7.4-4.2s5.5,1.7,7.4,4.2h8.7
				C829.4,191.7,827,179.1,818.5,179.1z"/>
			<path class="st1" d="M584.6,179.1c-8.5,0-10.8,12.5-16,19.3h8.7c1.9-2.5,4.2-4.2,7.4-4.2s5.5,1.7,7.4,4.2h8.7
				C595.5,191.7,593.2,179.1,584.6,179.1z"/>
			<path class="st1" d="M631.4,179.1c-8.5,0-10.8,12.5-16,19.3h8.7c1.9-2.5,4.2-4.2,7.4-4.2s5.5,1.7,7.4,4.2h8.7
				C642.3,191.7,640,179.1,631.4,179.1z"/>
			<path class="st1" d="M584.6,165.9c11.7,0,11.7,23.5,23.4,23.5s11.7-23.5,23.4-23.5s11.7,23.5,23.4,23.5s11.7-23.5,23.4-23.5
				s11.7,23.5,23.4,23.5s11.7-23.5,23.4-23.5s11.7,23.5,23.4,23.5s11.7-23.5,23.4-23.5s11.7,23.5,23.4,23.5s11.7-23.5,23.4-23.5
				s11.7,23.5,23.4,23.5v-15.1c-11.7,0-11.7-23.5-23.4-23.5s-11.7,23.5-23.4,23.5s-11.7-23.5-23.4-23.5s-11.7,23.5-23.4,23.5
				s-11.7-23.5-23.4-23.5s-11.7,23.5-23.4,23.5s-11.7-23.5-23.4-23.5s-11.7,23.5-23.4,23.5s-11.7-23.5-23.4-23.5
				s-11.7,23.5-23.4,23.5s-11.7-23.5-23.4-23.5s-11.7,23.5-23.4,23.5v15.1C573,189.4,573,165.9,584.6,165.9z"/>
			<path class="st1" d="M584.6,137.5c11.7,0,11.7,23.5,23.4,23.5s11.7-23.5,23.4-23.5s11.7,23.5,23.4,23.5s11.7-23.5,23.4-23.5
				s11.7,23.5,23.4,23.5s11.7-23.5,23.4-23.5s11.7,23.5,23.4,23.5s11.7-23.5,23.4-23.5s11.7,23.5,23.4,23.5s11.7-23.5,23.4-23.5
				S830.3,161,842,161v-15.1c-11.7,0-11.7-23.5-23.4-23.5s-11.7,23.5-23.4,23.5s-11.7-23.5-23.4-23.5s-11.7,23.5-23.4,23.5
				s-11.7-23.5-23.4-23.5s-11.7,23.5-23.4,23.5s-11.7-23.5-23.4-23.5s-11.7,23.5-23.4,23.5s-11.7-23.5-23.4-23.5
				s-11.7,23.5-23.4,23.5s-11.7-23.5-23.4-23.5s-11.7,23.5-23.4,23.5V161C573,161,573,137.5,584.6,137.5z"/>
			<path class="st1" d="M584.6,109.2c11.7,0,11.7,23.5,23.4,23.5s11.7-23.5,23.4-23.5s11.7,23.5,23.4,23.5s11.7-23.5,23.4-23.5
				s11.7,23.5,23.4,23.5s11.7-23.5,23.4-23.5s11.7,23.5,23.4,23.5s11.7-23.5,23.4-23.5s11.7,23.5,23.4,23.5s11.7-23.5,23.4-23.5
				s11.7,23.5,23.4,23.5v-15.1c-11.7,0-11.7-23.5-23.4-23.5s-11.7,23.5-23.4,23.5s-11.7-23.5-23.4-23.5s-11.7,23.5-23.4,23.5
				S736.7,94.1,725,94.1s-11.7,23.5-23.4,23.5s-11.7-23.5-23.4-23.5s-11.7,23.5-23.4,23.5s-11.7-23.5-23.4-23.5
				s-11.7,23.5-23.4,23.5s-11.7-23.5-23.4-23.5s-11.7,23.5-23.4,23.5v15.1C573,132.7,573,109.2,584.6,109.2z"/>
			<path class="st1" d="M584.6,80.8c11.7,0,11.7,23.5,23.4,23.5s11.7-23.5,23.4-23.5s11.7,23.5,23.4,23.5s11.7-23.5,23.4-23.5
				s11.7,23.5,23.4,23.5s11.7-23.5,23.4-23.5s11.7,23.5,23.4,23.5s11.7-23.5,23.4-23.5s11.7,23.5,23.4,23.5s11.7-23.5,23.4-23.5
				s11.7,23.5,23.4,23.5v-15c-11.7,0-11.7-23.5-23.4-23.5s-11.7,23.5-23.4,23.5s-11.7-23.5-23.4-23.5s-11.7,23.5-23.4,23.5
				S736.7,65.8,725,65.8s-11.7,23.5-23.4,23.5s-11.7-23.5-23.4-23.5s-11.7,23.5-23.4,23.5s-11.7-23.5-23.4-23.5S619.7,89.3,608,89.3
				s-11.7-23.5-23.4-23.5s-11.7,23.5-23.4,23.5v15.1C573,104.3,573,80.8,584.6,80.8z"/>
			<path class="st1" d="M584.6,52.5c11.7,0,11.7,23.5,23.4,23.5s11.7-23.5,23.4-23.5S643.1,76,654.8,76s11.7-23.5,23.4-23.5
				S689.9,76,701.6,76s11.7-23.5,23.4-23.5S736.7,76,748.4,76s11.7-23.5,23.4-23.5S783.5,76,795.2,76s11.7-23.5,23.4-23.5
				S830.3,76,842,76V60.9c-11.7,0-11.7-23.5-23.4-23.5s-11.7,23.5-23.4,23.5s-11.7-23.5-23.4-23.5s-11.7,23.5-23.4,23.5
				S736.7,37.4,725,37.4s-11.7,23.5-23.4,23.5s-11.7-23.5-23.4-23.5s-11.7,23.5-23.4,23.5s-11.7-23.5-23.4-23.5S619.7,60.9,608,60.9
				s-11.7-23.5-23.4-23.5s-11.7,23.5-23.4,23.5V76C573,76,573,52.5,584.6,52.5z"/>
			<path class="st1" d="M584.6,24.1c11.7,0,11.7,23.5,23.4,23.5s11.7-23.5,23.4-23.5s11.7,23.5,23.4,23.5s11.7-23.5,23.4-23.5
				s11.7,23.5,23.4,23.5s11.7-23.5,23.4-23.5s11.7,23.5,23.4,23.5s11.7-23.5,23.4-23.5s11.7,23.5,23.4,23.5s11.7-23.5,23.4-23.5
				s11.7,23.5,23.4,23.5v-15c-11.7,0-11.7-23.5-23.4-23.5s-11.7,23.5-23.4,23.5S783.4,9.1,771.7,9.1S760,32.6,748.3,32.6
				S736.6,9.1,724.9,9.1s-11.7,23.5-23.4,23.5S689.8,9.1,678.1,9.1s-11.7,23.5-23.4,23.5S643,9.1,631.3,9.1s-11.7,23.5-23.4,23.5
				S596.2,9.1,584.5,9.1s-11.7,23.5-23.4,23.5v15.1C573,47.6,573,24.1,584.6,24.1z"/>
			<path class="st1" d="M748.3,19.3c8.5,0,10.8-12.5,16-19.3h-8.7c-1.9,2.5-4.2,4.2-7.4,4.2s-5.5-1.7-7.4-4.2h-8.7
				C737.5,6.8,739.8,19.3,748.3,19.3z"/>
			<path class="st1" d="M701.6,19.3c8.5,0,10.8-12.5,16-19.3h-8.7c-1.9,2.5-4.2,4.2-7.4,4.2S696,2.5,694.1,0h-8.7
				C690.7,6.8,693,19.3,701.6,19.3z"/>
			<path class="st1" d="M841.9,19.3V4.2c-3.2,0-5.5-1.7-7.4-4.2h-8.7C831,6.8,833.4,19.3,841.9,19.3z"/>
			<path class="st1" d="M795.1,19.3c8.5,0,10.8-12.5,16-19.3h-8.7c-1.9,2.5-4.2,4.2-7.4,4.2s-5.5-1.7-7.4-4.2h-8.7
				C784.3,6.8,786.6,19.3,795.1,19.3z"/>
			<path class="st1" d="M561.3,19.3c8.5,0,10.8-12.5,16-19.3h-8.7c-1.9,2.5-4.2,4.2-7.4,4.2v15.1H561.3z"/>
			<path class="st1" d="M654.8,19.3c8.5,0,10.8-12.5,16-19.3h-8.7c-1.9,2.5-4.2,4.2-7.4,4.2s-5.5-1.7-7.4-4.2h-8.7
				C644,6.8,646.3,19.3,654.8,19.3z"/>
			<path class="st1" d="M608,19.3c8.5,0,10.8-12.5,16-19.3h-8.7c-1.9,2.5-4.2,4.2-7.4,4.2s-5.5-1.7-7.4-4.2H592
				C597.2,6.8,599.5,19.3,608,19.3z"/>
		</g>
		<g>
			<path class="st1" d="M210.5,179.1c-8.5,0-10.8,12.5-16,19.3h8.7c1.9-2.5,4.2-4.2,7.4-4.2s5.5,1.7,7.4,4.2h8.7
				C221.3,191.7,219,179.1,210.5,179.1z"/>
			<path class="st1" d="M116.9,179.1c-8.5,0-10.8,12.5-16,19.3h8.7c1.9-2.5,4.2-4.2,7.4-4.2c3.2,0,5.5,1.7,7.4,4.2h8.7
				C127.8,191.7,125.5,179.1,116.9,179.1z"/>
			<path class="st1" d="M163.7,179.1c-8.5,0-10.8,12.5-16,19.3h8.7c1.9-2.5,4.2-4.2,7.4-4.2s5.5,1.7,7.4,4.2h8.7
				C174.5,191.7,172.2,179.1,163.7,179.1z"/>
			<path class="st1" d="M257.2,179.1c-8.5,0-10.8,12.5-16,19.3h8.7c1.9-2.5,4.2-4.2,7.4-4.2s5.5,1.7,7.4,4.2h8.7
				C268.1,191.7,265.8,179.1,257.2,179.1z"/>
			<path class="st1" d="M23.4,179.1c-8.5,0-10.8,12.5-16,19.3H16c1.9-2.5,4.2-4.2,7.4-4.2s5.5,1.7,7.4,4.2h8.7
				C34.2,191.7,31.9,179.1,23.4,179.1z"/>
			<path class="st1" d="M70.2,179.1c-8.5,0-10.8,12.5-16,19.3h8.7c1.9-2.5,4.2-4.2,7.4-4.2s5.5,1.7,7.4,4.2h8.7
				C81,191.7,78.7,179.1,70.2,179.1z"/>
			<path class="st1" d="M23.4,165.9c11.7,0,11.7,23.5,23.4,23.5s11.7-23.5,23.4-23.5s11.7,23.5,23.4,23.5s11.7-23.5,23.4-23.5
				s11.7,23.5,23.4,23.5s11.7-23.5,23.4-23.5s11.7,23.5,23.4,23.5s11.7-23.5,23.4-23.5s11.7,23.5,23.4,23.5s11.7-23.5,23.4-23.5
				c11.7,0,11.7,23.5,23.4,23.5v-15.1c-11.7,0-11.7-23.5-23.4-23.5c-11.7,0-11.7,23.5-23.4,23.5s-11.7-23.5-23.4-23.5
				s-11.7,23.5-23.4,23.5s-11.7-23.5-23.4-23.5s-11.7,23.5-23.4,23.5s-11.7-23.5-23.4-23.5s-11.7,23.5-23.4,23.5
				s-11.7-23.5-23.4-23.5s-11.7,23.5-23.4,23.5s-11.7-23.5-23.4-23.5S11.7,174.3,0,174.3v15.1C11.7,189.4,11.7,165.9,23.4,165.9z"/>
			<path class="st1" d="M23.4,137.5c11.7,0,11.7,23.5,23.4,23.5s11.7-23.5,23.4-23.5S81.9,161,93.6,161s11.7-23.5,23.4-23.5
				s11.7,23.5,23.4,23.5s11.7-23.5,23.4-23.5s11.7,23.5,23.4,23.5s11.7-23.5,23.4-23.5S222.3,161,234,161s11.7-23.5,23.4-23.5
				c11.7,0,11.7,23.5,23.4,23.5v-15.1c-11.7,0-11.7-23.5-23.4-23.5c-11.7,0-11.7,23.5-23.4,23.5s-11.7-23.5-23.4-23.5
				s-11.7,23.5-23.4,23.5s-11.7-23.5-23.4-23.5s-11.7,23.5-23.4,23.5s-11.7-23.5-23.4-23.5s-11.7,23.5-23.4,23.5
				s-11.7-23.5-23.4-23.5s-11.7,23.5-23.4,23.5s-11.7-23.5-23.4-23.5S11.7,145.9,0,145.9V161C11.7,161,11.7,137.5,23.4,137.5z"/>
			<path class="st1" d="M23.4,109.2c11.7,0,11.7,23.5,23.4,23.5s11.7-23.5,23.4-23.5s11.7,23.5,23.4,23.5s11.7-23.5,23.4-23.5
				s11.7,23.5,23.4,23.5s11.7-23.5,23.4-23.5s11.7,23.5,23.4,23.5s11.7-23.5,23.4-23.5s11.7,23.5,23.4,23.5s11.7-23.5,23.4-23.5
				c11.7,0,11.7,23.5,23.4,23.5v-15.1c-11.7,0-11.7-23.5-23.4-23.5c-11.7,0-11.7,23.5-23.4,23.5s-11.7-23.5-23.4-23.5
				s-11.7,23.5-23.4,23.5s-11.7-23.5-23.4-23.5s-11.7,23.5-23.4,23.5S128.7,94.1,117,94.1s-11.7,23.5-23.4,23.5S81.9,94.1,70.2,94.1
				s-11.7,23.5-23.4,23.5S35.1,94.1,23.4,94.1S11.7,117.6,0,117.6v15.1C11.7,132.7,11.7,109.2,23.4,109.2z"/>
			<path class="st1" d="M23.4,80.8c11.7,0,11.7,23.5,23.4,23.5s11.7-23.5,23.4-23.5s11.7,23.5,23.4,23.5s11.7-23.5,23.4-23.5
				s11.7,23.5,23.4,23.5s11.7-23.5,23.4-23.5s11.7,23.5,23.4,23.5s11.7-23.5,23.4-23.5s11.7,23.5,23.4,23.5s11.7-23.5,23.4-23.5
				c11.7,0,11.7,23.5,23.4,23.5v-15c-11.7,0-11.7-23.5-23.4-23.5c-11.7,0-11.7,23.5-23.4,23.5s-11.7-23.5-23.4-23.5
				s-11.7,23.5-23.4,23.5s-11.7-23.5-23.4-23.5s-11.7,23.5-23.4,23.5S128.7,65.8,117,65.8s-11.7,23.5-23.4,23.5S81.9,65.8,70.2,65.8
				S58.5,89.3,46.8,89.3S35.1,65.8,23.4,65.8C11.7,65.7,11.7,89.3,0,89.3v15.1C11.7,104.3,11.7,80.8,23.4,80.8z"/>
			<path class="st1" d="M23.4,52.5C35.1,52.5,35.1,76,46.8,76s11.7-23.5,23.4-23.5S81.9,76,93.5,76c11.7,0,11.7-23.5,23.4-23.5
				S128.6,76,140.3,76s11.7-23.5,23.4-23.5S175.4,76,187.1,76s11.7-23.5,23.4-23.5S222.2,76,233.9,76s11.7-23.5,23.4-23.5
				C269,52.5,269,76,280.7,76V60.9c-11.7,0-11.7-23.5-23.4-23.5c-11.7,0-11.7,23.5-23.4,23.5s-11.7-23.5-23.4-23.5
				s-11.7,23.5-23.4,23.5s-11.7-23.5-23.4-23.5S152,60.9,140.3,60.9s-11.7-23.5-23.4-23.5s-11.7,23.5-23.4,23.5S81.8,37.4,70.1,37.4
				S58.4,60.9,46.7,60.9S35,37.4,23.3,37.4C11.7,37.4,11.7,60.9,0,60.9V76C11.7,76,11.7,52.5,23.4,52.5z"/>
			<path class="st1" d="M23.4,24.1c11.7,0,11.7,23.5,23.4,23.5s11.7-23.5,23.4-23.5s11.7,23.5,23.4,23.5s11.7-23.5,23.4-23.5
				s11.7,23.5,23.4,23.5s11.7-23.5,23.4-23.5s11.7,23.5,23.4,23.5s11.7-23.5,23.4-23.5s11.7,23.5,23.4,23.5s11.7-23.5,23.4-23.5
				c11.7,0,11.7,23.5,23.4,23.5v-15c-11.7,0-11.7-23.5-23.4-23.5c-11.7,0-11.7,23.5-23.4,23.5S222.3,9.1,210.6,9.1
				s-11.7,23.5-23.4,23.5S175.5,9.1,163.8,9.1s-11.7,23.5-23.4,23.5S128.7,9.1,117,9.1s-11.7,23.5-23.4,23.5S81.9,9.1,70.2,9.1
				S58.5,32.6,46.8,32.6S35.1,9.1,23.4,9.1S11.7,32.6,0,32.6v15.1C11.7,47.6,11.7,24.1,23.4,24.1z"/>
			<path class="st1" d="M187.1,19.3c8.5,0,10.8-12.5,16-19.3h-8.7c-1.9,2.5-4.2,4.2-7.4,4.2s-5.5-1.7-7.4-4.2h-8.7
				C176.2,6.8,178.5,19.3,187.1,19.3z"/>
			<path class="st1" d="M140.3,19.3c8.5,0,10.8-12.5,16-19.3h-8.7c-1.9,2.5-4.2,4.2-7.4,4.2S134.9,2.5,133,0h-8.7
				C129.5,6.8,131.8,19.3,140.3,19.3z"/>
			<path class="st1" d="M280.6,19.3V4.2c-3.2,0-5.5-1.7-7.4-4.2h-8.7C269.8,6.8,272.1,19.3,280.6,19.3z"/>
			<path class="st1" d="M233.9,19.3c8.5,0,10.8-12.5,16-19.3h-8.7c-1.9,2.5-4.2,4.2-7.4,4.2s-5.5-1.7-7.4-4.2h-8.7
				C223,6.8,225.3,19.3,233.9,19.3z"/>
			<path class="st1" d="M0,19.3C8.5,19.3,10.8,6.8,16,0H7.4C5.5,2.5,3.2,4.2,0,4.2V19.3z"/>
			<path class="st1" d="M93.5,19.3c8.5,0,10.8-12.5,16-19.3h-8.7c-1.9,2.5-4.2,4.2-7.4,4.2S88.1,2.5,86.2,0h-8.7
				C82.7,6.8,85,19.3,93.5,19.3z"/>
			<path class="st1" d="M46.8,19.3c8.5,0,10.8-12.5,16-19.3h-8.7c-1.9,2.5-4.2,4.2-7.4,4.2S41.2,2.5,39.3,0h-8.7
				C35.9,6.8,38.2,19.3,46.8,19.3z"/>
		</g>
	</g>
	<g>
		<g>
			<path class="st1" d="M491.1,377.6c-8.5,0-10.8,12.5-16,19.3h8.7c1.9-2.5,4.2-4.2,7.4-4.2c3.2,0,5.5,1.7,7.4,4.2h8.7
				C501.9,390.1,499.6,377.6,491.1,377.6z"/>
			<path class="st1" d="M397.6,377.6c-8.5,0-10.8,12.5-16,19.3h8.7c1.9-2.5,4.2-4.2,7.4-4.2c3.2,0,5.5,1.7,7.4,4.2h8.7
				C408.4,390.1,406.1,377.6,397.6,377.6z"/>
			<path class="st1" d="M444.3,377.6c-8.5,0-10.8,12.5-16,19.3h8.7c1.9-2.5,4.2-4.2,7.4-4.2c3.2,0,5.5,1.7,7.4,4.2h8.7
				C455.2,390.1,452.9,377.6,444.3,377.6z"/>
			<path class="st1" d="M537.9,377.6c-8.5,0-10.8,12.5-16,19.3h8.7c1.9-2.5,4.2-4.2,7.4-4.2s5.5,1.7,7.4,4.2h8.7
				C548.7,390.1,546.4,377.6,537.9,377.6z"/>
			<path class="st1" d="M304,377.6c-8.5,0-10.8,12.5-16,19.3h8.7c1.9-2.5,4.2-4.2,7.4-4.2c3.2,0,5.5,1.7,7.4,4.2h8.7
				C314.9,390.1,312.6,377.6,304,377.6z"/>
			<path class="st1" d="M350.8,377.6c-8.5,0-10.8,12.5-16,19.3h8.7c1.9-2.5,4.2-4.2,7.4-4.2c3.2,0,5.5,1.7,7.4,4.2h8.7
				C361.6,390.1,359.3,377.6,350.8,377.6z"/>
			<path class="st1" d="M304,364.3c11.7,0,11.7,23.5,23.4,23.5c11.7,0,11.7-23.5,23.4-23.5c11.7,0,11.7,23.5,23.4,23.5
				c11.7,0,11.7-23.5,23.4-23.5c11.7,0,11.7,23.5,23.4,23.5c11.7,0,11.7-23.5,23.4-23.5c11.7,0,11.7,23.5,23.4,23.5
				c11.7,0,11.7-23.5,23.4-23.5c11.7,0,11.7,23.5,23.4,23.5s11.7-23.5,23.4-23.5s11.7,23.5,23.4,23.5v-15.1
				c-11.7,0-11.7-23.5-23.4-23.5s-11.7,23.5-23.4,23.5s-11.7-23.5-23.4-23.5c-11.7,0-11.7,23.5-23.4,23.5
				c-11.7,0-11.7-23.5-23.4-23.5c-11.7,0-11.7,23.5-23.4,23.5c-11.7,0-11.7-23.5-23.4-23.5c-11.7,0-11.7,23.5-23.4,23.5
				c-11.7,0-11.7-23.5-23.4-23.5c-11.7,0-11.7,23.5-23.4,23.5c-11.7,0-11.7-23.5-23.4-23.5c-11.7,0-11.7,23.5-23.4,23.5v15.1
				C292.3,387.8,292.3,364.3,304,364.3z"/>
			<path class="st1" d="M304,335.9c11.7,0,11.7,23.5,23.4,23.5c11.7,0,11.7-23.5,23.4-23.5c11.7,0,11.7,23.5,23.4,23.5
				c11.7,0,11.7-23.5,23.4-23.5c11.7,0,11.7,23.5,23.4,23.5c11.7,0,11.7-23.5,23.4-23.5c11.7,0,11.7,23.5,23.4,23.5
				c11.7,0,11.7-23.5,23.4-23.5c11.7,0,11.7,23.5,23.4,23.5s11.7-23.5,23.4-23.5s11.7,23.5,23.4,23.5v-15.1
				c-11.7,0-11.7-23.5-23.4-23.5s-11.7,23.5-23.4,23.5s-11.7-23.5-23.4-23.5c-11.7,0-11.7,23.5-23.4,23.5
				c-11.7,0-11.7-23.5-23.4-23.5c-11.7,0-11.7,23.5-23.4,23.5c-11.7,0-11.7-23.5-23.4-23.5c-11.7,0-11.7,23.5-23.4,23.5
				c-11.7,0-11.7-23.5-23.4-23.5c-11.7,0-11.7,23.5-23.4,23.5c-11.7,0-11.7-23.5-23.4-23.5c-11.7,0-11.7,23.5-23.4,23.5v15.1
				C292.3,359.5,292.3,335.9,304,335.9z"/>
			<path class="st1" d="M304,307.6c11.7,0,11.7,23.5,23.4,23.5c11.7,0,11.7-23.5,23.4-23.5c11.7,0,11.7,23.5,23.4,23.5
				c11.7,0,11.7-23.5,23.4-23.5c11.7,0,11.7,23.5,23.4,23.5c11.7,0,11.7-23.5,23.4-23.5c11.7,0,11.7,23.5,23.4,23.5
				c11.7,0,11.7-23.5,23.4-23.5c11.7,0,11.7,23.5,23.4,23.5s11.7-23.5,23.4-23.5s11.7,23.5,23.4,23.5V316
				c-11.7,0-11.7-23.5-23.4-23.5S526.3,316,514.6,316s-11.7-23.5-23.4-23.5c-11.7,0-11.7,23.5-23.4,23.5
				c-11.7,0-11.7-23.5-23.4-23.5c-11.7,0-11.7,23.5-23.4,23.5c-11.7,0-11.7-23.5-23.4-23.5c-11.7,0-11.7,23.5-23.4,23.5
				c-11.7,0-11.7-23.5-23.4-23.5c-11.7,0-11.7,23.5-23.4,23.5c-11.7,0-11.7-23.5-23.4-23.5c-11.7,0-11.7,23.5-23.4,23.5v15.1
				C292.3,331.1,292.3,307.6,304,307.6z"/>
			<path class="st1" d="M304,279.3c11.7,0,11.7,23.5,23.4,23.5c11.7,0,11.7-23.5,23.4-23.5c11.7,0,11.7,23.5,23.4,23.5
				c11.7,0,11.7-23.5,23.4-23.5c11.7,0,11.7,23.5,23.4,23.5c11.7,0,11.7-23.5,23.4-23.5c11.7,0,11.7,23.5,23.4,23.5
				c11.7,0,11.7-23.5,23.4-23.5c11.7,0,11.7,23.5,23.4,23.5s11.7-23.5,23.4-23.5s11.7,23.5,23.4,23.5v-15.1
				c-11.7,0-11.7-23.5-23.4-23.5s-11.7,23.5-23.4,23.5s-11.7-23.5-23.4-23.5c-11.7,0-11.7,23.5-23.4,23.5
				c-11.7,0-11.7-23.5-23.4-23.5c-11.7,0-11.7,23.5-23.4,23.5c-11.7,0-11.7-23.5-23.4-23.5c-11.7,0-11.7,23.5-23.4,23.5
				c-11.7,0-11.7-23.5-23.4-23.5c-11.7,0-11.7,23.5-23.4,23.5c-11.7,0-11.7-23.5-23.4-23.5c-11.7,0-11.7,23.5-23.4,23.5v15.1
				C292.3,302.8,292.3,279.3,304,279.3z"/>
			<path class="st1" d="M304,250.9c11.7,0,11.7,23.5,23.4,23.5c11.7,0,11.7-23.5,23.4-23.5c11.7,0,11.7,23.5,23.4,23.5
				c11.7,0,11.7-23.5,23.4-23.5c11.7,0,11.7,23.5,23.4,23.5c11.7,0,11.7-23.5,23.4-23.5c11.7,0,11.7,23.5,23.4,23.5
				c11.7,0,11.7-23.5,23.4-23.5c11.7,0,11.7,23.5,23.4,23.5s11.7-23.5,23.4-23.5s11.7,23.5,23.4,23.5v-15.1
				c-11.7,0-11.7-23.5-23.4-23.5s-11.7,23.5-23.4,23.5s-11.7-23.5-23.4-23.5c-11.7,0-11.7,23.5-23.4,23.5
				c-11.7,0-11.7-23.5-23.4-23.5c-11.7,0-11.7,23.5-23.4,23.5c-11.7,0-11.7-23.5-23.4-23.5c-11.7,0-11.7,23.5-23.4,23.5
				c-11.7,0-11.7-23.5-23.4-23.5c-11.7,0-11.7,23.5-23.4,23.5c-11.7,0-11.7-23.5-23.4-23.5c-11.7,0-11.7,23.5-23.4,23.5v15.1
				C292.3,274.4,292.3,250.9,304,250.9z"/>
			<path class="st1" d="M304,222.6c11.7,0,11.7,23.5,23.4,23.5c11.7,0,11.7-23.5,23.4-23.5c11.7,0,11.7,23.5,23.4,23.5
				c11.7,0,11.7-23.5,23.4-23.5c11.7,0,11.7,23.5,23.4,23.5c11.7,0,11.7-23.5,23.4-23.5c11.7,0,11.7,23.5,23.4,23.5
				c11.7,0,11.7-23.5,23.4-23.5c11.7,0,11.7,23.5,23.4,23.5s11.7-23.5,23.4-23.5s11.7,23.5,23.4,23.5V231
				c-11.7,0-11.7-23.5-23.4-23.5S526.3,231,514.6,231s-11.7-23.5-23.4-23.5c-11.7,0-11.7,23.5-23.4,23.5
				c-11.7,0-11.7-23.5-23.4-23.5c-11.7,0-11.7,23.5-23.4,23.5c-11.7,0-11.7-23.5-23.4-23.5c-11.7,0-11.7,23.5-23.4,23.5
				c-11.7,0-11.7-23.5-23.4-23.5c-11.7,0-11.7,23.5-23.4,23.5c-11.7,0-11.7-23.5-23.4-23.5c-11.7,0-11.7,23.5-23.4,23.5v15.1
				C292.3,246.1,292.3,222.6,304,222.6z"/>
			<path class="st1" d="M467.7,217.7c8.5,0,10.8-12.5,16-19.3H475c-1.9,2.5-4.2,4.2-7.4,4.2c-3.2,0-5.5-1.7-7.4-4.2h-8.7
				C456.9,205.2,459.2,217.7,467.7,217.7z"/>
			<path class="st1" d="M420.9,217.7c8.5,0,10.8-12.5,16-19.3h-8.7c-1.9,2.5-4.2,4.2-7.4,4.2c-3.2,0-5.5-1.7-7.4-4.2h-8.7
				C410.1,205.2,412.4,217.7,420.9,217.7z"/>
			<path class="st1" d="M561.3,217.7v-15.1c-3.2,0-5.5-1.7-7.4-4.2h-8.7C550.4,205.2,552.7,217.7,561.3,217.7z"/>
			<path class="st1" d="M514.5,217.7c8.5,0,10.8-12.5,16-19.3h-8.7c-1.9,2.5-4.2,4.2-7.4,4.2s-5.5-1.7-7.4-4.2h-8.7
				C503.6,205.2,505.9,217.7,514.5,217.7z"/>
			<path class="st1" d="M280.6,217.7c8.5,0,10.8-12.5,16-19.3H288c-1.9,2.5-4.2,4.2-7.4,4.2V217.7z"/>
			<path class="st1" d="M374.2,217.7c8.5,0,10.8-12.5,16-19.3h-8.7c-1.9,2.5-4.2,4.2-7.4,4.2c-3.2,0-5.5-1.7-7.4-4.2H358
				C363.3,205.2,365.6,217.7,374.2,217.7z"/>
			<path class="st1" d="M327.4,217.7c8.5,0,10.8-12.5,16-19.3h-8.7c-1.9,2.5-4.2,4.2-7.4,4.2c-3.2,0-5.5-1.7-7.4-4.2h-8.7
				C316.6,205.2,318.9,217.7,327.4,217.7z"/>
		</g>
		<g>
			<path class="st1" d="M210.5,377.6c-8.5,0-10.8,12.5-16,19.3h8.7c1.9-2.5,4.2-4.2,7.4-4.2s5.5,1.7,7.4,4.2h8.7
				C221.3,390.1,219,377.6,210.5,377.6z"/>
			<path class="st1" d="M116.9,377.6c-8.5,0-10.8,12.5-16,19.3h8.7c1.9-2.5,4.2-4.2,7.4-4.2c3.2,0,5.5,1.7,7.4,4.2h8.7
				C127.8,390.1,125.5,377.6,116.9,377.6z"/>
			<path class="st1" d="M163.7,377.6c-8.5,0-10.8,12.5-16,19.3h8.7c1.9-2.5,4.2-4.2,7.4-4.2s5.5,1.7,7.4,4.2h8.7
				C174.5,390.1,172.2,377.6,163.7,377.6z"/>
			<path class="st1" d="M257.2,377.6c-8.5,0-10.8,12.5-16,19.3h8.7c1.9-2.5,4.2-4.2,7.4-4.2s5.5,1.7,7.4,4.2h8.7
				C268.1,390.1,265.8,377.6,257.2,377.6z"/>
			<path class="st1" d="M23.4,377.6c-8.5,0-10.8,12.5-16,19.3H16c1.9-2.5,4.2-4.2,7.4-4.2s5.5,1.7,7.4,4.2h8.7
				C34.2,390.1,31.9,377.6,23.4,377.6z"/>
			<path class="st1" d="M70.2,377.6c-8.5,0-10.8,12.5-16,19.3h8.7c1.9-2.5,4.2-4.2,7.4-4.2s5.5,1.7,7.4,4.2h8.7
				C81,390.1,78.7,377.6,70.2,377.6z"/>
			<path class="st1" d="M23.4,364.3c11.7,0,11.7,23.5,23.4,23.5s11.7-23.5,23.4-23.5s11.7,23.5,23.4,23.5s11.7-23.5,23.4-23.5
				s11.7,23.5,23.4,23.5s11.7-23.5,23.4-23.5s11.7,23.5,23.4,23.5s11.7-23.5,23.4-23.5s11.7,23.5,23.4,23.5s11.7-23.5,23.4-23.5
				c11.7,0,11.7,23.5,23.4,23.5v-15.1c-11.7,0-11.7-23.5-23.4-23.5c-11.7,0-11.7,23.5-23.4,23.5s-11.7-23.5-23.4-23.5
				s-11.7,23.5-23.4,23.5s-11.7-23.5-23.4-23.5s-11.7,23.5-23.4,23.5s-11.7-23.5-23.4-23.5s-11.7,23.5-23.4,23.5
				s-11.7-23.5-23.4-23.5s-11.7,23.5-23.4,23.5s-11.7-23.5-23.4-23.5S11.7,372.7,0,372.7v15.1C11.7,387.8,11.7,364.3,23.4,364.3z"/>
			<path class="st1" d="M23.4,335.9c11.7,0,11.7,23.5,23.4,23.5s11.7-23.5,23.4-23.5s11.7,23.5,23.4,23.5s11.7-23.5,23.4-23.5
				s11.7,23.5,23.4,23.5s11.7-23.5,23.4-23.5s11.7,23.5,23.4,23.5s11.7-23.5,23.4-23.5s11.7,23.5,23.4,23.5s11.7-23.5,23.4-23.5
				c11.7,0,11.7,23.5,23.4,23.5v-15.1c-11.7,0-11.7-23.5-23.4-23.5c-11.7,0-11.7,23.5-23.4,23.5s-11.7-23.5-23.4-23.5
				s-11.7,23.5-23.4,23.5s-11.7-23.5-23.4-23.5s-11.7,23.5-23.4,23.5s-11.7-23.5-23.4-23.5s-11.7,23.5-23.4,23.5
				s-11.7-23.5-23.4-23.5s-11.7,23.5-23.4,23.5s-11.7-23.5-23.4-23.5S11.7,344.3,0,344.3v15.1C11.7,359.5,11.7,335.9,23.4,335.9z"/>
			<path class="st1" d="M23.4,307.6c11.7,0,11.7,23.5,23.4,23.5s11.7-23.5,23.4-23.5s11.7,23.5,23.4,23.5s11.7-23.5,23.4-23.5
				s11.7,23.5,23.4,23.5s11.7-23.5,23.4-23.5s11.7,23.5,23.4,23.5s11.7-23.5,23.4-23.5s11.7,23.5,23.4,23.5s11.7-23.5,23.4-23.5
				c11.7,0,11.7,23.5,23.4,23.5V316c-11.7,0-11.7-23.5-23.4-23.5c-11.7,0-11.7,23.5-23.4,23.5s-11.7-23.5-23.4-23.5
				S198.9,316,187.2,316s-11.7-23.5-23.4-23.5S152.1,316,140.4,316s-11.7-23.5-23.4-23.5S105.3,316,93.6,316s-11.7-23.5-23.4-23.5
				S58.5,316,46.8,316s-11.7-23.5-23.4-23.5S11.7,316,0,316v15.1C11.7,331.1,11.7,307.6,23.4,307.6z"/>
			<path class="st1" d="M23.4,279.3c11.7,0,11.7,23.5,23.4,23.5s11.7-23.5,23.4-23.5s11.7,23.5,23.4,23.5s11.7-23.5,23.4-23.5
				s11.7,23.5,23.4,23.5s11.7-23.5,23.4-23.5s11.7,23.5,23.4,23.5s11.7-23.5,23.4-23.5s11.7,23.5,23.4,23.5s11.7-23.5,23.4-23.5
				c11.7,0,11.7,23.5,23.4,23.5v-15.1c-11.7,0-11.7-23.5-23.4-23.5c-11.7,0-11.7,23.5-23.4,23.5s-11.7-23.5-23.4-23.5
				s-11.7,23.5-23.4,23.5s-11.7-23.5-23.4-23.5s-11.7,23.5-23.4,23.5s-11.7-23.5-23.4-23.5s-11.7,23.5-23.4,23.5
				s-11.7-23.5-23.4-23.5s-11.7,23.5-23.4,23.5s-11.7-23.5-23.4-23.5S11.7,287.7,0,287.7v15.1C11.7,302.8,11.7,279.3,23.4,279.3z"/>
			<path class="st1" d="M23.4,250.9c11.7,0,11.7,23.5,23.4,23.5s11.7-23.5,23.4-23.5s11.7,23.5,23.4,23.5s11.7-23.5,23.4-23.5
				s11.7,23.5,23.4,23.5s11.7-23.5,23.4-23.5s11.7,23.5,23.4,23.5s11.7-23.5,23.4-23.5s11.7,23.5,23.4,23.5s11.7-23.5,23.4-23.5
				c11.7,0,11.7,23.5,23.4,23.5v-15.1c-11.7,0-11.7-23.5-23.4-23.5c-11.7,0-11.7,23.5-23.4,23.5s-11.7-23.5-23.4-23.5
				s-11.7,23.5-23.4,23.5s-11.7-23.5-23.4-23.5s-11.7,23.5-23.4,23.5s-11.7-23.5-23.4-23.5s-11.7,23.5-23.4,23.5
				s-11.7-23.5-23.4-23.5s-11.7,23.5-23.4,23.5s-11.7-23.5-23.4-23.5S11.7,259.3,0,259.3v15.1C11.7,274.4,11.7,250.9,23.4,250.9z"/>
			<path class="st1" d="M23.4,222.6c11.7,0,11.7,23.5,23.4,23.5s11.7-23.5,23.4-23.5s11.7,23.5,23.4,23.5s11.7-23.5,23.4-23.5
				s11.7,23.5,23.4,23.5s11.7-23.5,23.4-23.5s11.7,23.5,23.4,23.5s11.7-23.5,23.4-23.5s11.7,23.5,23.4,23.5s11.7-23.5,23.4-23.5
				c11.7,0,11.7,23.5,23.4,23.5V231c-11.7,0-11.7-23.5-23.4-23.5c-11.7,0-11.7,23.5-23.4,23.5s-11.7-23.5-23.4-23.5
				S198.9,231,187.2,231s-11.7-23.5-23.4-23.5S152.1,231,140.4,231s-11.7-23.5-23.4-23.5S105.3,231,93.6,231s-11.7-23.5-23.4-23.5
				S58.5,231,46.8,231s-11.7-23.5-23.4-23.5S11.7,231,0,231v15.1C11.7,246.1,11.7,222.6,23.4,222.6z"/>
			<path class="st1" d="M187.1,217.7c8.5,0,10.8-12.5,16-19.3h-8.7c-1.9,2.5-4.2,4.2-7.4,4.2s-5.5-1.7-7.4-4.2h-8.7
				C176.2,205.2,178.5,217.7,187.1,217.7z"/>
			<path class="st1" d="M140.3,217.7c8.5,0,10.8-12.5,16-19.3h-8.7c-1.9,2.5-4.2,4.2-7.4,4.2s-5.5-1.7-7.4-4.2h-8.7
				C129.5,205.2,131.8,217.7,140.3,217.7z"/>
			<path class="st1" d="M280.6,217.7v-15.1c-3.2,0-5.5-1.7-7.4-4.2h-8.7C269.8,205.2,272.1,217.7,280.6,217.7z"/>
			<path class="st1" d="M233.9,217.7c8.5,0,10.8-12.5,16-19.3h-8.7c-1.9,2.5-4.2,4.2-7.4,4.2s-5.5-1.7-7.4-4.2h-8.7
				C223,205.2,225.3,217.7,233.9,217.7z"/>
			<path class="st1" d="M0,217.7c8.5,0,10.8-12.5,16-19.3H7.4c-1.9,2.5-4.2,4.2-7.4,4.2V217.7z"/>
			<path class="st1" d="M93.5,217.7c8.5,0,10.8-12.5,16-19.3h-8.7c-1.9,2.5-4.2,4.2-7.4,4.2s-5.5-1.7-7.4-4.2h-8.7
				C82.7,205.2,85,217.7,93.5,217.7z"/>
			<path class="st1" d="M46.8,217.7c8.5,0,10.8-12.5,16-19.3h-8.7c-1.9,2.5-4.2,4.2-7.4,4.2s-5.5-1.7-7.4-4.2h-8.7
				C35.9,205.2,38.2,217.7,46.8,217.7z"/>
		</g>
		<g>
			<path class="st1" d="M491.1,377.6c-8.5,0-10.8,12.5-16,19.3h8.7c1.9-2.5,4.2-4.2,7.4-4.2c3.2,0,5.5,1.7,7.4,4.2h8.7
				C501.9,390.1,499.6,377.6,491.1,377.6z"/>
			<path class="st1" d="M397.6,377.6c-8.5,0-10.8,12.5-16,19.3h8.7c1.9-2.5,4.2-4.2,7.4-4.2c3.2,0,5.5,1.7,7.4,4.2h8.7
				C408.4,390.1,406.1,377.6,397.6,377.6z"/>
			<path class="st1" d="M444.3,377.6c-8.5,0-10.8,12.5-16,19.3h8.7c1.9-2.5,4.2-4.2,7.4-4.2c3.2,0,5.5,1.7,7.4,4.2h8.7
				C455.2,390.1,452.9,377.6,444.3,377.6z"/>
			<path class="st1" d="M537.9,377.6c-8.5,0-10.8,12.5-16,19.3h8.7c1.9-2.5,4.2-4.2,7.4-4.2s5.5,1.7,7.4,4.2h8.7
				C548.7,390.1,546.4,377.6,537.9,377.6z"/>
			<path class="st1" d="M304,377.6c-8.5,0-10.8,12.5-16,19.3h8.7c1.9-2.5,4.2-4.2,7.4-4.2c3.2,0,5.5,1.7,7.4,4.2h8.7
				C314.9,390.1,312.6,377.6,304,377.6z"/>
			<path class="st1" d="M350.8,377.6c-8.5,0-10.8,12.5-16,19.3h8.7c1.9-2.5,4.2-4.2,7.4-4.2c3.2,0,5.5,1.7,7.4,4.2h8.7
				C361.6,390.1,359.3,377.6,350.8,377.6z"/>
			<path class="st1" d="M304,364.3c11.7,0,11.7,23.5,23.4,23.5c11.7,0,11.7-23.5,23.4-23.5c11.7,0,11.7,23.5,23.4,23.5
				c11.7,0,11.7-23.5,23.4-23.5c11.7,0,11.7,23.5,23.4,23.5c11.7,0,11.7-23.5,23.4-23.5c11.7,0,11.7,23.5,23.4,23.5
				c11.7,0,11.7-23.5,23.4-23.5c11.7,0,11.7,23.5,23.4,23.5s11.7-23.5,23.4-23.5s11.7,23.5,23.4,23.5v-15.1
				c-11.7,0-11.7-23.5-23.4-23.5s-11.7,23.5-23.4,23.5s-11.7-23.5-23.4-23.5c-11.7,0-11.7,23.5-23.4,23.5
				c-11.7,0-11.7-23.5-23.4-23.5c-11.7,0-11.7,23.5-23.4,23.5c-11.7,0-11.7-23.5-23.4-23.5c-11.7,0-11.7,23.5-23.4,23.5
				c-11.7,0-11.7-23.5-23.4-23.5c-11.7,0-11.7,23.5-23.4,23.5c-11.7,0-11.7-23.5-23.4-23.5c-11.7,0-11.7,23.5-23.4,23.5v15.1
				C292.3,387.8,292.3,364.3,304,364.3z"/>
			<path class="st1" d="M304,335.9c11.7,0,11.7,23.5,23.4,23.5c11.7,0,11.7-23.5,23.4-23.5c11.7,0,11.7,23.5,23.4,23.5
				c11.7,0,11.7-23.5,23.4-23.5c11.7,0,11.7,23.5,23.4,23.5c11.7,0,11.7-23.5,23.4-23.5c11.7,0,11.7,23.5,23.4,23.5
				c11.7,0,11.7-23.5,23.4-23.5c11.7,0,11.7,23.5,23.4,23.5s11.7-23.5,23.4-23.5s11.7,23.5,23.4,23.5v-15.1
				c-11.7,0-11.7-23.5-23.4-23.5s-11.7,23.5-23.4,23.5s-11.7-23.5-23.4-23.5c-11.7,0-11.7,23.5-23.4,23.5
				c-11.7,0-11.7-23.5-23.4-23.5c-11.7,0-11.7,23.5-23.4,23.5c-11.7,0-11.7-23.5-23.4-23.5c-11.7,0-11.7,23.5-23.4,23.5
				c-11.7,0-11.7-23.5-23.4-23.5c-11.7,0-11.7,23.5-23.4,23.5c-11.7,0-11.7-23.5-23.4-23.5c-11.7,0-11.7,23.5-23.4,23.5v15.1
				C292.3,359.5,292.3,335.9,304,335.9z"/>
			<path class="st1" d="M304,307.6c11.7,0,11.7,23.5,23.4,23.5c11.7,0,11.7-23.5,23.4-23.5c11.7,0,11.7,23.5,23.4,23.5
				c11.7,0,11.7-23.5,23.4-23.5c11.7,0,11.7,23.5,23.4,23.5c11.7,0,11.7-23.5,23.4-23.5c11.7,0,11.7,23.5,23.4,23.5
				c11.7,0,11.7-23.5,23.4-23.5c11.7,0,11.7,23.5,23.4,23.5s11.7-23.5,23.4-23.5s11.7,23.5,23.4,23.5V316
				c-11.7,0-11.7-23.5-23.4-23.5S526.3,316,514.6,316s-11.7-23.5-23.4-23.5c-11.7,0-11.7,23.5-23.4,23.5
				c-11.7,0-11.7-23.5-23.4-23.5c-11.7,0-11.7,23.5-23.4,23.5c-11.7,0-11.7-23.5-23.4-23.5c-11.7,0-11.7,23.5-23.4,23.5
				c-11.7,0-11.7-23.5-23.4-23.5c-11.7,0-11.7,23.5-23.4,23.5c-11.7,0-11.7-23.5-23.4-23.5c-11.7,0-11.7,23.5-23.4,23.5v15.1
				C292.3,331.1,292.3,307.6,304,307.6z"/>
			<path class="st1" d="M304,279.3c11.7,0,11.7,23.5,23.4,23.5c11.7,0,11.7-23.5,23.4-23.5c11.7,0,11.7,23.5,23.4,23.5
				c11.7,0,11.7-23.5,23.4-23.5c11.7,0,11.7,23.5,23.4,23.5c11.7,0,11.7-23.5,23.4-23.5c11.7,0,11.7,23.5,23.4,23.5
				c11.7,0,11.7-23.5,23.4-23.5c11.7,0,11.7,23.5,23.4,23.5s11.7-23.5,23.4-23.5s11.7,23.5,23.4,23.5v-15.1
				c-11.7,0-11.7-23.5-23.4-23.5s-11.7,23.5-23.4,23.5s-11.7-23.5-23.4-23.5c-11.7,0-11.7,23.5-23.4,23.5
				c-11.7,0-11.7-23.5-23.4-23.5c-11.7,0-11.7,23.5-23.4,23.5c-11.7,0-11.7-23.5-23.4-23.5c-11.7,0-11.7,23.5-23.4,23.5
				c-11.7,0-11.7-23.5-23.4-23.5c-11.7,0-11.7,23.5-23.4,23.5c-11.7,0-11.7-23.5-23.4-23.5c-11.7,0-11.7,23.5-23.4,23.5v15.1
				C292.3,302.8,292.3,279.3,304,279.3z"/>
			<path class="st1" d="M304,250.9c11.7,0,11.7,23.5,23.4,23.5c11.7,0,11.7-23.5,23.4-23.5c11.7,0,11.7,23.5,23.4,23.5
				c11.7,0,11.7-23.5,23.4-23.5c11.7,0,11.7,23.5,23.4,23.5c11.7,0,11.7-23.5,23.4-23.5c11.7,0,11.7,23.5,23.4,23.5
				c11.7,0,11.7-23.5,23.4-23.5c11.7,0,11.7,23.5,23.4,23.5s11.7-23.5,23.4-23.5s11.7,23.5,23.4,23.5v-15.1
				c-11.7,0-11.7-23.5-23.4-23.5s-11.7,23.5-23.4,23.5s-11.7-23.5-23.4-23.5c-11.7,0-11.7,23.5-23.4,23.5
				c-11.7,0-11.7-23.5-23.4-23.5c-11.7,0-11.7,23.5-23.4,23.5c-11.7,0-11.7-23.5-23.4-23.5c-11.7,0-11.7,23.5-23.4,23.5
				c-11.7,0-11.7-23.5-23.4-23.5c-11.7,0-11.7,23.5-23.4,23.5c-11.7,0-11.7-23.5-23.4-23.5c-11.7,0-11.7,23.5-23.4,23.5v15.1
				C292.3,274.4,292.3,250.9,304,250.9z"/>
			<path class="st1" d="M304,222.6c11.7,0,11.7,23.5,23.4,23.5c11.7,0,11.7-23.5,23.4-23.5c11.7,0,11.7,23.5,23.4,23.5
				c11.7,0,11.7-23.5,23.4-23.5c11.7,0,11.7,23.5,23.4,23.5c11.7,0,11.7-23.5,23.4-23.5c11.7,0,11.7,23.5,23.4,23.5
				c11.7,0,11.7-23.5,23.4-23.5c11.7,0,11.7,23.5,23.4,23.5s11.7-23.5,23.4-23.5s11.7,23.5,23.4,23.5V231
				c-11.7,0-11.7-23.5-23.4-23.5S526.3,231,514.6,231s-11.7-23.5-23.4-23.5c-11.7,0-11.7,23.5-23.4,23.5
				c-11.7,0-11.7-23.5-23.4-23.5c-11.7,0-11.7,23.5-23.4,23.5c-11.7,0-11.7-23.5-23.4-23.5c-11.7,0-11.7,23.5-23.4,23.5
				c-11.7,0-11.7-23.5-23.4-23.5c-11.7,0-11.7,23.5-23.4,23.5c-11.7,0-11.7-23.5-23.4-23.5c-11.7,0-11.7,23.5-23.4,23.5v15.1
				C292.3,246.1,292.3,222.6,304,222.6z"/>
			<path class="st1" d="M467.7,217.7c8.5,0,10.8-12.5,16-19.3H475c-1.9,2.5-4.2,4.2-7.4,4.2c-3.2,0-5.5-1.7-7.4-4.2h-8.7
				C456.9,205.2,459.2,217.7,467.7,217.7z"/>
			<path class="st1" d="M420.9,217.7c8.5,0,10.8-12.5,16-19.3h-8.7c-1.9,2.5-4.2,4.2-7.4,4.2c-3.2,0-5.5-1.7-7.4-4.2h-8.7
				C410.1,205.2,412.4,217.7,420.9,217.7z"/>
			<path class="st1" d="M561.3,217.7v-15.1c-3.2,0-5.5-1.7-7.4-4.2h-8.7C550.4,205.2,552.7,217.7,561.3,217.7z"/>
			<path class="st1" d="M514.5,217.7c8.5,0,10.8-12.5,16-19.3h-8.7c-1.9,2.5-4.2,4.2-7.4,4.2s-5.5-1.7-7.4-4.2h-8.7
				C503.6,205.2,505.9,217.7,514.5,217.7z"/>
			<path class="st1" d="M280.6,217.7c8.5,0,10.8-12.5,16-19.3H288c-1.9,2.5-4.2,4.2-7.4,4.2V217.7z"/>
			<path class="st1" d="M374.2,217.7c8.5,0,10.8-12.5,16-19.3h-8.7c-1.9,2.5-4.2,4.2-7.4,4.2c-3.2,0-5.5-1.7-7.4-4.2H358
				C363.3,205.2,365.6,217.7,374.2,217.7z"/>
			<path class="st1" d="M327.4,217.7c8.5,0,10.8-12.5,16-19.3h-8.7c-1.9,2.5-4.2,4.2-7.4,4.2c-3.2,0-5.5-1.7-7.4-4.2h-8.7
				C316.6,205.2,318.9,217.7,327.4,217.7z"/>
		</g>
		<g>
			<path class="st1" d="M771.7,377.6c-8.5,0-10.8,12.5-16,19.3h8.7c1.9-2.5,4.2-4.2,7.4-4.2s5.5,1.7,7.4,4.2h8.7
				C782.6,390.1,780.3,377.6,771.7,377.6z"/>
			<path class="st1" d="M678.2,377.6c-8.5,0-10.8,12.5-16,19.3h8.7c1.9-2.5,4.2-4.2,7.4-4.2s5.5,1.7,7.4,4.2h8.7
				C689,390.1,686.7,377.6,678.2,377.6z"/>
			<path class="st1" d="M725,377.6c-8.5,0-10.8,12.5-16,19.3h8.7c1.9-2.5,4.2-4.2,7.4-4.2s5.5,1.7,7.4,4.2h8.7
				C735.8,390.1,733.5,377.6,725,377.6z"/>
			<path class="st1" d="M818.5,377.6c-8.5,0-10.8,12.5-16,19.3h8.7c1.9-2.5,4.2-4.2,7.4-4.2s5.5,1.7,7.4,4.2h8.7
				C829.4,390.1,827,377.6,818.5,377.6z"/>
			<path class="st1" d="M584.6,377.6c-8.5,0-10.8,12.5-16,19.3h8.7c1.9-2.5,4.2-4.2,7.4-4.2s5.5,1.7,7.4,4.2h8.7
				C595.5,390.1,593.2,377.6,584.6,377.6z"/>
			<path class="st1" d="M631.4,377.6c-8.5,0-10.8,12.5-16,19.3h8.7c1.9-2.5,4.2-4.2,7.4-4.2s5.5,1.7,7.4,4.2h8.7
				C642.3,390.1,640,377.6,631.4,377.6z"/>
			<path class="st1" d="M584.6,364.3c11.7,0,11.7,23.5,23.4,23.5s11.7-23.5,23.4-23.5s11.7,23.5,23.4,23.5s11.7-23.5,23.4-23.5
				s11.7,23.5,23.4,23.5s11.7-23.5,23.4-23.5s11.7,23.5,23.4,23.5s11.7-23.5,23.4-23.5s11.7,23.5,23.4,23.5s11.7-23.5,23.4-23.5
				s11.7,23.5,23.4,23.5v-15.1c-11.7,0-11.7-23.5-23.4-23.5s-11.7,23.5-23.4,23.5s-11.7-23.5-23.4-23.5s-11.7,23.5-23.4,23.5
				s-11.7-23.5-23.4-23.5s-11.7,23.5-23.4,23.5s-11.7-23.5-23.4-23.5s-11.7,23.5-23.4,23.5s-11.7-23.5-23.4-23.5
				s-11.7,23.5-23.4,23.5s-11.7-23.5-23.4-23.5s-11.7,23.5-23.4,23.5v15.1C573,387.8,573,364.3,584.6,364.3z"/>
			<path class="st1" d="M584.6,335.9c11.7,0,11.7,23.5,23.4,23.5s11.7-23.5,23.4-23.5s11.7,23.5,23.4,23.5s11.7-23.5,23.4-23.5
				s11.7,23.5,23.4,23.5s11.7-23.5,23.4-23.5s11.7,23.5,23.4,23.5s11.7-23.5,23.4-23.5s11.7,23.5,23.4,23.5s11.7-23.5,23.4-23.5
				s11.7,23.5,23.4,23.5v-15.1c-11.7,0-11.7-23.5-23.4-23.5s-11.7,23.5-23.4,23.5s-11.7-23.5-23.4-23.5s-11.7,23.5-23.4,23.5
				s-11.7-23.5-23.4-23.5s-11.7,23.5-23.4,23.5s-11.7-23.5-23.4-23.5s-11.7,23.5-23.4,23.5s-11.7-23.5-23.4-23.5
				s-11.7,23.5-23.4,23.5s-11.7-23.5-23.4-23.5s-11.7,23.5-23.4,23.5v15.1C573,359.5,573,335.9,584.6,335.9z"/>
			<path class="st1" d="M584.6,307.6c11.7,0,11.7,23.5,23.4,23.5s11.7-23.5,23.4-23.5s11.7,23.5,23.4,23.5s11.7-23.5,23.4-23.5
				s11.7,23.5,23.4,23.5s11.7-23.5,23.4-23.5s11.7,23.5,23.4,23.5s11.7-23.5,23.4-23.5s11.7,23.5,23.4,23.5s11.7-23.5,23.4-23.5
				s11.7,23.5,23.4,23.5V316c-11.7,0-11.7-23.5-23.4-23.5S806.9,316,795.2,316s-11.7-23.5-23.4-23.5S760.1,316,748.4,316
				s-11.7-23.5-23.4-23.5S713.3,316,701.6,316s-11.7-23.5-23.4-23.5S666.5,316,654.8,316s-11.7-23.5-23.4-23.5S619.7,316,608,316
				s-11.7-23.5-23.4-23.5S572.9,316,561.2,316v15.1C573,331.1,573,307.6,584.6,307.6z"/>
			<path class="st1" d="M584.6,279.3c11.7,0,11.7,23.5,23.4,23.5s11.7-23.5,23.4-23.5s11.7,23.5,23.4,23.5s11.7-23.5,23.4-23.5
				s11.7,23.5,23.4,23.5s11.7-23.5,23.4-23.5s11.7,23.5,23.4,23.5s11.7-23.5,23.4-23.5s11.7,23.5,23.4,23.5s11.7-23.5,23.4-23.5
				s11.7,23.5,23.4,23.5v-15.1c-11.7,0-11.7-23.5-23.4-23.5s-11.7,23.5-23.4,23.5s-11.7-23.5-23.4-23.5s-11.7,23.5-23.4,23.5
				s-11.7-23.5-23.4-23.5s-11.7,23.5-23.4,23.5s-11.7-23.5-23.4-23.5s-11.7,23.5-23.4,23.5s-11.7-23.5-23.4-23.5
				s-11.7,23.5-23.4,23.5s-11.7-23.5-23.4-23.5s-11.7,23.5-23.4,23.5v15.1C573,302.8,573,279.3,584.6,279.3z"/>
			<path class="st1" d="M584.6,250.9c11.7,0,11.7,23.5,23.4,23.5s11.7-23.5,23.4-23.5s11.7,23.5,23.4,23.5s11.7-23.5,23.4-23.5
				s11.7,23.5,23.4,23.5s11.7-23.5,23.4-23.5s11.7,23.5,23.4,23.5s11.7-23.5,23.4-23.5s11.7,23.5,23.4,23.5s11.7-23.5,23.4-23.5
				s11.7,23.5,23.4,23.5v-15.1c-11.7,0-11.7-23.5-23.4-23.5s-11.7,23.5-23.4,23.5s-11.7-23.5-23.4-23.5s-11.7,23.5-23.4,23.5
				s-11.7-23.5-23.4-23.5s-11.7,23.5-23.4,23.5s-11.7-23.5-23.4-23.5s-11.7,23.5-23.4,23.5s-11.7-23.5-23.4-23.5
				s-11.7,23.5-23.4,23.5s-11.7-23.5-23.4-23.5s-11.7,23.5-23.4,23.5v15.1C573,274.4,573,250.9,584.6,250.9z"/>
			<path class="st1" d="M584.6,222.6c11.7,0,11.7,23.5,23.4,23.5s11.7-23.5,23.4-23.5s11.7,23.5,23.4,23.5s11.7-23.5,23.4-23.5
				s11.7,23.5,23.4,23.5s11.7-23.5,23.4-23.5s11.7,23.5,23.4,23.5s11.7-23.5,23.4-23.5s11.7,23.5,23.4,23.5s11.7-23.5,23.4-23.5
				s11.7,23.5,23.4,23.5V231c-11.7,0-11.7-23.5-23.4-23.5S806.9,231,795.2,231s-11.7-23.5-23.4-23.5S760.1,231,748.4,231
				s-11.7-23.5-23.4-23.5S713.3,231,701.6,231s-11.7-23.5-23.4-23.5S666.5,231,654.8,231s-11.7-23.5-23.4-23.5S619.7,231,608,231
				s-11.7-23.5-23.4-23.5S572.9,231,561.2,231v15.1C573,246.1,573,222.6,584.6,222.6z"/>
			<path class="st1" d="M748.3,217.7c8.5,0,10.8-12.5,16-19.3h-8.7c-1.9,2.5-4.2,4.2-7.4,4.2s-5.5-1.7-7.4-4.2h-8.7
				C737.5,205.2,739.8,217.7,748.3,217.7z"/>
			<path class="st1" d="M701.6,217.7c8.5,0,10.8-12.5,16-19.3h-8.7c-1.9,2.5-4.2,4.2-7.4,4.2s-5.5-1.7-7.4-4.2h-8.7
				C690.7,205.2,693,217.7,701.6,217.7z"/>
			<path class="st1" d="M841.9,217.7v-15.1c-3.2,0-5.5-1.7-7.4-4.2h-8.7C831,205.2,833.4,217.7,841.9,217.7z"/>
			<path class="st1" d="M795.1,217.7c8.5,0,10.8-12.5,16-19.3h-8.7c-1.9,2.5-4.2,4.2-7.4,4.2s-5.5-1.7-7.4-4.2h-8.7
				C784.3,205.2,786.6,217.7,795.1,217.7z"/>
			<path class="st1" d="M561.3,217.7c8.5,0,10.8-12.5,16-19.3h-8.7c-1.9,2.5-4.2,4.2-7.4,4.2v15.1H561.3z"/>
			<path class="st1" d="M654.8,217.7c8.5,0,10.8-12.5,16-19.3h-8.7c-1.9,2.5-4.2,4.2-7.4,4.2s-5.5-1.7-7.4-4.2h-8.7
				C644,205.2,646.3,217.7,654.8,217.7z"/>
			<path class="st1" d="M608,217.7c8.5,0,10.8-12.5,16-19.3h-8.7c-1.9,2.5-4.2,4.2-7.4,4.2s-5.5-1.7-7.4-4.2H592
				C597.2,205.2,599.5,217.7,608,217.7z"/>
		</g>
		<g>
			<path class="st1" d="M210.5,377.6c-8.5,0-10.8,12.5-16,19.3h8.7c1.9-2.5,4.2-4.2,7.4-4.2s5.5,1.7,7.4,4.2h8.7
				C221.3,390.1,219,377.6,210.5,377.6z"/>
			<path class="st1" d="M116.9,377.6c-8.5,0-10.8,12.5-16,19.3h8.7c1.9-2.5,4.2-4.2,7.4-4.2c3.2,0,5.5,1.7,7.4,4.2h8.7
				C127.8,390.1,125.5,377.6,116.9,377.6z"/>
			<path class="st1" d="M163.7,377.6c-8.5,0-10.8,12.5-16,19.3h8.7c1.9-2.5,4.2-4.2,7.4-4.2s5.5,1.7,7.4,4.2h8.7
				C174.5,390.1,172.2,377.6,163.7,377.6z"/>
			<path class="st1" d="M257.2,377.6c-8.5,0-10.8,12.5-16,19.3h8.7c1.9-2.5,4.2-4.2,7.4-4.2s5.5,1.7,7.4,4.2h8.7
				C268.1,390.1,265.8,377.6,257.2,377.6z"/>
			<path class="st1" d="M23.4,377.6c-8.5,0-10.8,12.5-16,19.3H16c1.9-2.5,4.2-4.2,7.4-4.2s5.5,1.7,7.4,4.2h8.7
				C34.2,390.1,31.9,377.6,23.4,377.6z"/>
			<path class="st1" d="M70.2,377.6c-8.5,0-10.8,12.5-16,19.3h8.7c1.9-2.5,4.2-4.2,7.4-4.2s5.5,1.7,7.4,4.2h8.7
				C81,390.1,78.7,377.6,70.2,377.6z"/>
			<path class="st1" d="M23.4,364.3c11.7,0,11.7,23.5,23.4,23.5s11.7-23.5,23.4-23.5s11.7,23.5,23.4,23.5s11.7-23.5,23.4-23.5
				s11.7,23.5,23.4,23.5s11.7-23.5,23.4-23.5s11.7,23.5,23.4,23.5s11.7-23.5,23.4-23.5s11.7,23.5,23.4,23.5s11.7-23.5,23.4-23.5
				c11.7,0,11.7,23.5,23.4,23.5v-15.1c-11.7,0-11.7-23.5-23.4-23.5c-11.7,0-11.7,23.5-23.4,23.5s-11.7-23.5-23.4-23.5
				s-11.7,23.5-23.4,23.5s-11.7-23.5-23.4-23.5s-11.7,23.5-23.4,23.5s-11.7-23.5-23.4-23.5s-11.7,23.5-23.4,23.5
				s-11.7-23.5-23.4-23.5s-11.7,23.5-23.4,23.5s-11.7-23.5-23.4-23.5S11.7,372.7,0,372.7v15.1C11.7,387.8,11.7,364.3,23.4,364.3z"/>
			<path class="st1" d="M23.4,335.9c11.7,0,11.7,23.5,23.4,23.5s11.7-23.5,23.4-23.5s11.7,23.5,23.4,23.5s11.7-23.5,23.4-23.5
				s11.7,23.5,23.4,23.5s11.7-23.5,23.4-23.5s11.7,23.5,23.4,23.5s11.7-23.5,23.4-23.5s11.7,23.5,23.4,23.5s11.7-23.5,23.4-23.5
				c11.7,0,11.7,23.5,23.4,23.5v-15.1c-11.7,0-11.7-23.5-23.4-23.5c-11.7,0-11.7,23.5-23.4,23.5s-11.7-23.5-23.4-23.5
				s-11.7,23.5-23.4,23.5s-11.7-23.5-23.4-23.5s-11.7,23.5-23.4,23.5s-11.7-23.5-23.4-23.5s-11.7,23.5-23.4,23.5
				s-11.7-23.5-23.4-23.5s-11.7,23.5-23.4,23.5s-11.7-23.5-23.4-23.5S11.7,344.3,0,344.3v15.1C11.7,359.5,11.7,335.9,23.4,335.9z"/>
			<path class="st1" d="M23.4,307.6c11.7,0,11.7,23.5,23.4,23.5s11.7-23.5,23.4-23.5s11.7,23.5,23.4,23.5s11.7-23.5,23.4-23.5
				s11.7,23.5,23.4,23.5s11.7-23.5,23.4-23.5s11.7,23.5,23.4,23.5s11.7-23.5,23.4-23.5s11.7,23.5,23.4,23.5s11.7-23.5,23.4-23.5
				c11.7,0,11.7,23.5,23.4,23.5V316c-11.7,0-11.7-23.5-23.4-23.5c-11.7,0-11.7,23.5-23.4,23.5s-11.7-23.5-23.4-23.5
				S198.9,316,187.2,316s-11.7-23.5-23.4-23.5S152.1,316,140.4,316s-11.7-23.5-23.4-23.5S105.3,316,93.6,316s-11.7-23.5-23.4-23.5
				S58.5,316,46.8,316s-11.7-23.5-23.4-23.5S11.7,316,0,316v15.1C11.7,331.1,11.7,307.6,23.4,307.6z"/>
			<path class="st1" d="M23.4,279.3c11.7,0,11.7,23.5,23.4,23.5s11.7-23.5,23.4-23.5s11.7,23.5,23.4,23.5s11.7-23.5,23.4-23.5
				s11.7,23.5,23.4,23.5s11.7-23.5,23.4-23.5s11.7,23.5,23.4,23.5s11.7-23.5,23.4-23.5s11.7,23.5,23.4,23.5s11.7-23.5,23.4-23.5
				c11.7,0,11.7,23.5,23.4,23.5v-15.1c-11.7,0-11.7-23.5-23.4-23.5c-11.7,0-11.7,23.5-23.4,23.5s-11.7-23.5-23.4-23.5
				s-11.7,23.5-23.4,23.5s-11.7-23.5-23.4-23.5s-11.7,23.5-23.4,23.5s-11.7-23.5-23.4-23.5s-11.7,23.5-23.4,23.5
				s-11.7-23.5-23.4-23.5s-11.7,23.5-23.4,23.5s-11.7-23.5-23.4-23.5S11.7,287.7,0,287.7v15.1C11.7,302.8,11.7,279.3,23.4,279.3z"/>
			<path class="st1" d="M23.4,250.9c11.7,0,11.7,23.5,23.4,23.5s11.7-23.5,23.4-23.5s11.7,23.5,23.4,23.5s11.7-23.5,23.4-23.5
				s11.7,23.5,23.4,23.5s11.7-23.5,23.4-23.5s11.7,23.5,23.4,23.5s11.7-23.5,23.4-23.5s11.7,23.5,23.4,23.5s11.7-23.5,23.4-23.5
				c11.7,0,11.7,23.5,23.4,23.5v-15.1c-11.7,0-11.7-23.5-23.4-23.5c-11.7,0-11.7,23.5-23.4,23.5s-11.7-23.5-23.4-23.5
				s-11.7,23.5-23.4,23.5s-11.7-23.5-23.4-23.5s-11.7,23.5-23.4,23.5s-11.7-23.5-23.4-23.5s-11.7,23.5-23.4,23.5
				s-11.7-23.5-23.4-23.5s-11.7,23.5-23.4,23.5s-11.7-23.5-23.4-23.5S11.7,259.3,0,259.3v15.1C11.7,274.4,11.7,250.9,23.4,250.9z"/>
			<path class="st1" d="M23.4,222.6c11.7,0,11.7,23.5,23.4,23.5s11.7-23.5,23.4-23.5s11.7,23.5,23.4,23.5s11.7-23.5,23.4-23.5
				s11.7,23.5,23.4,23.5s11.7-23.5,23.4-23.5s11.7,23.5,23.4,23.5s11.7-23.5,23.4-23.5s11.7,23.5,23.4,23.5s11.7-23.5,23.4-23.5
				c11.7,0,11.7,23.5,23.4,23.5V231c-11.7,0-11.7-23.5-23.4-23.5c-11.7,0-11.7,23.5-23.4,23.5s-11.7-23.5-23.4-23.5
				S198.9,231,187.2,231s-11.7-23.5-23.4-23.5S152.1,231,140.4,231s-11.7-23.5-23.4-23.5S105.3,231,93.6,231s-11.7-23.5-23.4-23.5
				S58.5,231,46.8,231s-11.7-23.5-23.4-23.5S11.7,231,0,231v15.1C11.7,246.1,11.7,222.6,23.4,222.6z"/>
			<path class="st1" d="M187.1,217.7c8.5,0,10.8-12.5,16-19.3h-8.7c-1.9,2.5-4.2,4.2-7.4,4.2s-5.5-1.7-7.4-4.2h-8.7
				C176.2,205.2,178.5,217.7,187.1,217.7z"/>
			<path class="st1" d="M140.3,217.7c8.5,0,10.8-12.5,16-19.3h-8.7c-1.9,2.5-4.2,4.2-7.4,4.2s-5.5-1.7-7.4-4.2h-8.7
				C129.5,205.2,131.8,217.7,140.3,217.7z"/>
			<path class="st1" d="M280.6,217.7v-15.1c-3.2,0-5.5-1.7-7.4-4.2h-8.7C269.8,205.2,272.1,217.7,280.6,217.7z"/>
			<path class="st1" d="M233.9,217.7c8.5,0,10.8-12.5,16-19.3h-8.7c-1.9,2.5-4.2,4.2-7.4,4.2s-5.5-1.7-7.4-4.2h-8.7
				C223,205.2,225.3,217.7,233.9,217.7z"/>
			<path class="st1" d="M0,217.7c8.5,0,10.8-12.5,16-19.3H7.4c-1.9,2.5-4.2,4.2-7.4,4.2V217.7z"/>
			<path class="st1" d="M93.5,217.7c8.5,0,10.8-12.5,16-19.3h-8.7c-1.9,2.5-4.2,4.2-7.4,4.2s-5.5-1.7-7.4-4.2h-8.7
				C82.7,205.2,85,217.7,93.5,217.7z"/>
			<path class="st1" d="M46.8,217.7c8.5,0,10.8-12.5,16-19.3h-8.7c-1.9,2.5-4.2,4.2-7.4,4.2s-5.5-1.7-7.4-4.2h-8.7
				C35.9,205.2,38.2,217.7,46.8,217.7z"/>
		</g>
	</g>
	<g>
		<g>
			<path class="st1" d="M491.1,576c-8.5,0-10.8,12.5-16,19.3h8.7c1.9-2.5,4.2-4.2,7.4-4.2c3.2,0,5.5,1.7,7.4,4.2h8.7
				C501.9,588.5,499.6,576,491.1,576z"/>
			<path class="st1" d="M397.6,576c-8.5,0-10.8,12.5-16,19.3h8.7c1.9-2.5,4.2-4.2,7.4-4.2c3.2,0,5.5,1.7,7.4,4.2h8.7
				C408.4,588.5,406.1,576,397.6,576z"/>
			<path class="st1" d="M444.3,576c-8.5,0-10.8,12.5-16,19.3h8.7c1.9-2.5,4.2-4.2,7.4-4.2c3.2,0,5.5,1.7,7.4,4.2h8.7
				C455.2,588.5,452.9,576,444.3,576z"/>
			<path class="st1" d="M537.9,576c-8.5,0-10.8,12.5-16,19.3h8.7c1.9-2.5,4.2-4.2,7.4-4.2s5.5,1.7,7.4,4.2h8.7
				C548.7,588.5,546.4,576,537.9,576z"/>
			<path class="st1" d="M304,576c-8.5,0-10.8,12.5-16,19.3h8.7c1.9-2.5,4.2-4.2,7.4-4.2c3.2,0,5.5,1.7,7.4,4.2h8.7
				C314.9,588.5,312.6,576,304,576z"/>
			<path class="st1" d="M350.8,576c-8.5,0-10.8,12.5-16,19.3h8.7c1.9-2.5,4.2-4.2,7.4-4.2c3.2,0,5.5,1.7,7.4,4.2h8.7
				C361.6,588.5,359.3,576,350.8,576z"/>
			<path class="st1" d="M304,562.7c11.7,0,11.7,23.5,23.4,23.5c11.7,0,11.7-23.5,23.4-23.5c11.7,0,11.7,23.5,23.4,23.5
				c11.7,0,11.7-23.5,23.4-23.5c11.7,0,11.7,23.5,23.4,23.5c11.7,0,11.7-23.5,23.4-23.5c11.7,0,11.7,23.5,23.4,23.5
				c11.7,0,11.7-23.5,23.4-23.5c11.7,0,11.7,23.5,23.4,23.5s11.7-23.5,23.4-23.5s11.7,23.5,23.4,23.5v-15.1
				c-11.7,0-11.7-23.5-23.4-23.5s-11.7,23.5-23.4,23.5s-11.7-23.5-23.4-23.5c-11.7,0-11.7,23.5-23.4,23.5
				c-11.7,0-11.7-23.5-23.4-23.5c-11.7,0-11.7,23.5-23.4,23.5c-11.7,0-11.7-23.5-23.4-23.5c-11.7,0-11.7,23.5-23.4,23.5
				c-11.7,0-11.7-23.5-23.4-23.5c-11.7,0-11.7,23.5-23.4,23.5c-11.7,0-11.7-23.5-23.4-23.5c-11.7,0-11.7,23.5-23.4,23.5v15.1
				C292.3,586.2,292.3,562.7,304,562.7z"/>
			<path class="st1" d="M304,534.4c11.7,0,11.7,23.5,23.4,23.5c11.7,0,11.7-23.5,23.4-23.5c11.7,0,11.7,23.5,23.4,23.5
				c11.7,0,11.7-23.5,23.4-23.5c11.7,0,11.7,23.5,23.4,23.5c11.7,0,11.7-23.5,23.4-23.5c11.7,0,11.7,23.5,23.4,23.5
				c11.7,0,11.7-23.5,23.4-23.5c11.7,0,11.7,23.5,23.4,23.5s11.7-23.5,23.4-23.5s11.7,23.5,23.4,23.5v-15.1
				c-11.7,0-11.7-23.5-23.4-23.5s-11.7,23.5-23.4,23.5s-11.7-23.5-23.4-23.5c-11.7,0-11.7,23.5-23.4,23.5
				c-11.7,0-11.7-23.5-23.4-23.5c-11.7,0-11.7,23.5-23.4,23.5c-11.7,0-11.7-23.5-23.4-23.5c-11.7,0-11.7,23.5-23.4,23.5
				c-11.7,0-11.7-23.5-23.4-23.5c-11.7,0-11.7,23.5-23.4,23.5c-11.7,0-11.7-23.5-23.4-23.5c-11.7,0-11.7,23.5-23.4,23.5v15.1
				C292.3,557.9,292.3,534.4,304,534.4z"/>
			<path class="st1" d="M304,506c11.7,0,11.7,23.5,23.4,23.5c11.7,0,11.7-23.5,23.4-23.5c11.7,0,11.7,23.5,23.4,23.5
				c11.7,0,11.7-23.5,23.4-23.5c11.7,0,11.7,23.5,23.4,23.5c11.7,0,11.7-23.5,23.4-23.5c11.7,0,11.7,23.5,23.4,23.5
				c11.7,0,11.7-23.5,23.4-23.5c11.7,0,11.7,23.5,23.4,23.5S526.3,506,538,506s11.7,23.5,23.4,23.5v-15.1
				c-11.7,0-11.7-23.5-23.4-23.5s-11.7,23.5-23.4,23.5s-11.7-23.5-23.4-23.5c-11.7,0-11.7,23.5-23.4,23.5
				c-11.7,0-11.7-23.5-23.4-23.5c-11.7,0-11.7,23.5-23.4,23.5c-11.7,0-11.7-23.5-23.4-23.5c-11.7,0-11.7,23.5-23.4,23.5
				c-11.7,0-11.7-23.5-23.4-23.5c-11.7,0-11.7,23.5-23.4,23.5c-11.7,0-11.7-23.5-23.4-23.5c-11.7,0-11.7,23.5-23.4,23.5v15.1
				C292.3,529.5,292.3,506,304,506z"/>
			<path class="st1" d="M304,477.7c11.7,0,11.7,23.5,23.4,23.5c11.7,0,11.7-23.5,23.4-23.5c11.7,0,11.7,23.5,23.4,23.5
				c11.7,0,11.7-23.5,23.4-23.5c11.7,0,11.7,23.5,23.4,23.5c11.7,0,11.7-23.5,23.4-23.5c11.7,0,11.7,23.5,23.4,23.5
				c11.7,0,11.7-23.5,23.4-23.5c11.7,0,11.7,23.5,23.4,23.5s11.7-23.5,23.4-23.5s11.7,23.5,23.4,23.5v-15.1
				c-11.7,0-11.7-23.5-23.4-23.5s-11.7,23.5-23.4,23.5s-11.7-23.5-23.4-23.5c-11.7,0-11.7,23.5-23.4,23.5
				c-11.7,0-11.7-23.5-23.4-23.5c-11.7,0-11.7,23.5-23.4,23.5c-11.7,0-11.7-23.5-23.4-23.5c-11.7,0-11.7,23.5-23.4,23.5
				c-11.7,0-11.7-23.5-23.4-23.5c-11.7,0-11.7,23.5-23.4,23.5c-11.7,0-11.7-23.5-23.4-23.5c-11.7,0-11.7,23.5-23.4,23.5v15.1
				C292.3,501.2,292.3,477.7,304,477.7z"/>
			<path class="st1" d="M304,449.3c11.7,0,11.7,23.5,23.4,23.5c11.7,0,11.7-23.5,23.4-23.5c11.7,0,11.7,23.5,23.4,23.5
				c11.7,0,11.7-23.5,23.4-23.5c11.7,0,11.7,23.5,23.4,23.5c11.7,0,11.7-23.5,23.4-23.5c11.7,0,11.7,23.5,23.4,23.5
				c11.7,0,11.7-23.5,23.4-23.5c11.7,0,11.7,23.5,23.4,23.5s11.7-23.5,23.4-23.5s11.7,23.5,23.4,23.5v-15.1
				c-11.7,0-11.7-23.5-23.4-23.5s-11.7,23.5-23.4,23.5s-11.7-23.5-23.4-23.5c-11.7,0-11.7,23.5-23.4,23.5
				c-11.7,0-11.7-23.5-23.4-23.5c-11.7,0-11.7,23.5-23.4,23.5c-11.7,0-11.7-23.5-23.4-23.5c-11.7,0-11.7,23.5-23.4,23.5
				c-11.7,0-11.7-23.5-23.4-23.5c-11.7,0-11.7,23.5-23.4,23.5c-11.7,0-11.7-23.5-23.4-23.5c-11.7,0-11.7,23.5-23.4,23.5v15.1
				C292.3,472.8,292.3,449.3,304,449.3z"/>
			<path class="st1" d="M304,421c11.7,0,11.7,23.5,23.4,23.5c11.7,0,11.7-23.5,23.4-23.5c11.7,0,11.7,23.5,23.4,23.5
				c11.7,0,11.7-23.5,23.4-23.5c11.7,0,11.7,23.5,23.4,23.5c11.7,0,11.7-23.5,23.4-23.5c11.7,0,11.7,23.5,23.4,23.5
				c11.7,0,11.7-23.5,23.4-23.5c11.7,0,11.7,23.5,23.4,23.5S526.3,421,538,421s11.7,23.5,23.4,23.5v-15.1
				c-11.7,0-11.7-23.5-23.4-23.5s-11.7,23.5-23.4,23.5s-11.7-23.5-23.4-23.5c-11.7,0-11.7,23.5-23.4,23.5
				c-11.7,0-11.7-23.5-23.4-23.5c-11.7,0-11.7,23.5-23.4,23.5c-11.7,0-11.7-23.5-23.4-23.5c-11.7,0-11.7,23.5-23.4,23.5
				c-11.7,0-11.7-23.5-23.4-23.5c-11.7,0-11.7,23.5-23.4,23.5c-11.7,0-11.7-23.5-23.4-23.5c-11.7,0-11.7,23.5-23.4,23.5v15.1
				C292.3,444.5,292.3,421,304,421z"/>
			<path class="st1" d="M467.7,416.1c8.5,0,10.8-12.5,16-19.3H475c-1.9,2.5-4.2,4.2-7.4,4.2c-3.2,0-5.5-1.7-7.4-4.2h-8.7
				C456.9,403.6,459.2,416.1,467.7,416.1z"/>
			<path class="st1" d="M420.9,416.1c8.5,0,10.8-12.5,16-19.3h-8.7c-1.9,2.5-4.2,4.2-7.4,4.2c-3.2,0-5.5-1.7-7.4-4.2h-8.7
				C410.1,403.6,412.4,416.1,420.9,416.1z"/>
			<path class="st1" d="M561.3,416.1V401c-3.2,0-5.5-1.7-7.4-4.2h-8.7C550.4,403.6,552.7,416.1,561.3,416.1z"/>
			<path class="st1" d="M514.5,416.1c8.5,0,10.8-12.5,16-19.3h-8.7c-1.9,2.5-4.2,4.2-7.4,4.2s-5.5-1.7-7.4-4.2h-8.7
				C503.6,403.6,505.9,416.1,514.5,416.1z"/>
			<path class="st1" d="M280.6,416.1c8.5,0,10.8-12.5,16-19.3H288c-1.9,2.5-4.2,4.2-7.4,4.2V416.1z"/>
			<path class="st1" d="M374.2,416.1c8.5,0,10.8-12.5,16-19.3h-8.7c-1.9,2.5-4.2,4.2-7.4,4.2c-3.2,0-5.5-1.7-7.4-4.2H358
				C363.3,403.6,365.6,416.1,374.2,416.1z"/>
			<path class="st1" d="M327.4,416.1c8.5,0,10.8-12.5,16-19.3h-8.7c-1.9,2.5-4.2,4.2-7.4,4.2c-3.2,0-5.5-1.7-7.4-4.2h-8.7
				C316.6,403.6,318.9,416.1,327.4,416.1z"/>
		</g>
		<g>
			<path class="st1" d="M210.5,576c-8.5,0-10.8,12.5-16,19.3h8.7c1.9-2.5,4.2-4.2,7.4-4.2s5.5,1.7,7.4,4.2h8.7
				C221.3,588.5,219,576,210.5,576z"/>
			<path class="st1" d="M116.9,576c-8.5,0-10.8,12.5-16,19.3h8.7c1.9-2.5,4.2-4.2,7.4-4.2c3.2,0,5.5,1.7,7.4,4.2h8.7
				C127.8,588.5,125.5,576,116.9,576z"/>
			<path class="st1" d="M163.7,576c-8.5,0-10.8,12.5-16,19.3h8.7c1.9-2.5,4.2-4.2,7.4-4.2s5.5,1.7,7.4,4.2h8.7
				C174.5,588.5,172.2,576,163.7,576z"/>
			<path class="st1" d="M257.2,576c-8.5,0-10.8,12.5-16,19.3h8.7c1.9-2.5,4.2-4.2,7.4-4.2s5.5,1.7,7.4,4.2h8.7
				C268.1,588.5,265.8,576,257.2,576z"/>
			<path class="st1" d="M23.4,576c-8.5,0-10.8,12.5-16,19.3H16c1.9-2.5,4.2-4.2,7.4-4.2s5.5,1.7,7.4,4.2h8.7
				C34.2,588.5,31.9,576,23.4,576z"/>
			<path class="st1" d="M70.2,576c-8.5,0-10.8,12.5-16,19.3h8.7c1.9-2.5,4.2-4.2,7.4-4.2s5.5,1.7,7.4,4.2h8.7
				C81,588.5,78.7,576,70.2,576z"/>
			<path class="st1" d="M23.4,562.7c11.7,0,11.7,23.5,23.4,23.5s11.7-23.5,23.4-23.5s11.7,23.5,23.4,23.5s11.7-23.5,23.4-23.5
				s11.7,23.5,23.4,23.5s11.7-23.5,23.4-23.5s11.7,23.5,23.4,23.5s11.7-23.5,23.4-23.5s11.7,23.5,23.4,23.5s11.7-23.5,23.4-23.5
				c11.7,0,11.7,23.5,23.4,23.5v-15.1c-11.7,0-11.7-23.5-23.4-23.5c-11.7,0-11.7,23.5-23.4,23.5s-11.7-23.5-23.4-23.5
				s-11.7,23.5-23.4,23.5s-11.7-23.5-23.4-23.5s-11.7,23.5-23.4,23.5s-11.7-23.5-23.4-23.5s-11.7,23.5-23.4,23.5
				s-11.7-23.5-23.4-23.5s-11.7,23.5-23.4,23.5s-11.7-23.5-23.4-23.5S11.7,571.1,0,571.1v15.1C11.7,586.2,11.7,562.7,23.4,562.7z"/>
			<path class="st1" d="M23.4,534.4c11.7,0,11.7,23.5,23.4,23.5s11.7-23.5,23.4-23.5s11.7,23.5,23.4,23.5s11.7-23.5,23.4-23.5
				s11.7,23.5,23.4,23.5s11.7-23.5,23.4-23.5s11.7,23.5,23.4,23.5s11.7-23.5,23.4-23.5s11.7,23.5,23.4,23.5s11.7-23.5,23.4-23.5
				c11.7,0,11.7,23.5,23.4,23.5v-15.1c-11.7,0-11.7-23.5-23.4-23.5c-11.7,0-11.7,23.5-23.4,23.5s-11.7-23.5-23.4-23.5
				s-11.7,23.5-23.4,23.5s-11.7-23.5-23.4-23.5s-11.7,23.5-23.4,23.5s-11.7-23.5-23.4-23.5s-11.7,23.5-23.4,23.5
				s-11.7-23.5-23.4-23.5s-11.7,23.5-23.4,23.5s-11.7-23.5-23.4-23.5S11.7,542.8,0,542.8v15.1C11.7,557.9,11.7,534.4,23.4,534.4z"/>
			<path class="st1" d="M23.4,506c11.7,0,11.7,23.5,23.4,23.5S58.5,506,70.2,506s11.7,23.5,23.4,23.5S105.3,506,117,506
				s11.7,23.5,23.4,23.5s11.7-23.5,23.4-23.5s11.7,23.5,23.4,23.5s11.7-23.5,23.4-23.5s11.7,23.5,23.4,23.5s11.7-23.5,23.4-23.5
				c11.7,0,11.7,23.5,23.4,23.5v-15.1c-11.7,0-11.7-23.5-23.4-23.5c-11.7,0-11.7,23.5-23.4,23.5s-11.7-23.5-23.4-23.5
				s-11.7,23.5-23.4,23.5s-11.7-23.5-23.4-23.5s-11.7,23.5-23.4,23.5s-11.7-23.5-23.4-23.5s-11.7,23.5-23.4,23.5
				s-11.7-23.5-23.4-23.5s-11.7,23.5-23.4,23.5s-11.7-23.5-23.4-23.5S11.7,514.4,0,514.4v15.1C11.7,529.5,11.7,506,23.4,506z"/>
			<path class="st1" d="M23.4,477.7c11.7,0,11.7,23.5,23.4,23.5s11.7-23.5,23.4-23.5s11.7,23.5,23.4,23.5s11.7-23.5,23.4-23.5
				s11.7,23.5,23.4,23.5s11.7-23.5,23.4-23.5s11.7,23.5,23.4,23.5s11.7-23.5,23.4-23.5s11.7,23.5,23.4,23.5s11.7-23.5,23.4-23.5
				c11.7,0,11.7,23.5,23.4,23.5v-15.1c-11.7,0-11.7-23.5-23.4-23.5c-11.7,0-11.7,23.5-23.4,23.5s-11.7-23.5-23.4-23.5
				s-11.7,23.5-23.4,23.5s-11.7-23.5-23.4-23.5s-11.7,23.5-23.4,23.5s-11.7-23.5-23.4-23.5s-11.7,23.5-23.4,23.5
				s-11.7-23.5-23.4-23.5s-11.7,23.5-23.4,23.5s-11.7-23.5-23.4-23.5S11.7,486.1,0,486.1v15.1C11.7,501.2,11.7,477.7,23.4,477.7z"/>
			<path class="st1" d="M23.4,449.3c11.7,0,11.7,23.5,23.4,23.5s11.7-23.5,23.4-23.5s11.7,23.5,23.4,23.5s11.7-23.5,23.4-23.5
				s11.7,23.5,23.4,23.5s11.7-23.5,23.4-23.5s11.7,23.5,23.4,23.5s11.7-23.5,23.4-23.5s11.7,23.5,23.4,23.5s11.7-23.5,23.4-23.5
				c11.7,0,11.7,23.5,23.4,23.5v-15.1c-11.7,0-11.7-23.5-23.4-23.5c-11.7,0-11.7,23.5-23.4,23.5s-11.7-23.5-23.4-23.5
				s-11.7,23.5-23.4,23.5s-11.7-23.5-23.4-23.5s-11.7,23.5-23.4,23.5s-11.7-23.5-23.4-23.5s-11.7,23.5-23.4,23.5
				s-11.7-23.5-23.4-23.5s-11.7,23.5-23.4,23.5s-11.7-23.5-23.4-23.5S11.7,457.7,0,457.7v15.1C11.7,472.8,11.7,449.3,23.4,449.3z"/>
			<path class="st1" d="M23.4,421c11.7,0,11.7,23.5,23.4,23.5S58.5,421,70.2,421s11.7,23.5,23.4,23.5S105.3,421,117,421
				s11.7,23.5,23.4,23.5s11.7-23.5,23.4-23.5s11.7,23.5,23.4,23.5s11.7-23.5,23.4-23.5s11.7,23.5,23.4,23.5s11.7-23.5,23.4-23.5
				c11.7,0,11.7,23.5,23.4,23.5v-15.1c-11.7,0-11.7-23.5-23.4-23.5c-11.7,0-11.7,23.5-23.4,23.5s-11.7-23.5-23.4-23.5
				s-11.7,23.5-23.4,23.5s-11.7-23.5-23.4-23.5s-11.7,23.5-23.4,23.5s-11.7-23.5-23.4-23.5s-11.7,23.5-23.4,23.5
				s-11.7-23.5-23.4-23.5s-11.7,23.5-23.4,23.5s-11.7-23.5-23.4-23.5S11.7,429.4,0,429.4v15.1C11.7,444.5,11.7,421,23.4,421z"/>
			<path class="st1" d="M187.1,416.1c8.5,0,10.8-12.5,16-19.3h-8.7c-1.9,2.5-4.2,4.2-7.4,4.2s-5.5-1.7-7.4-4.2h-8.7
				C176.2,403.6,178.5,416.1,187.1,416.1z"/>
			<path class="st1" d="M140.3,416.1c8.5,0,10.8-12.5,16-19.3h-8.7c-1.9,2.5-4.2,4.2-7.4,4.2s-5.5-1.7-7.4-4.2h-8.7
				C129.5,403.6,131.8,416.1,140.3,416.1z"/>
			<path class="st1" d="M280.6,416.1V401c-3.2,0-5.5-1.7-7.4-4.2h-8.7C269.8,403.6,272.1,416.1,280.6,416.1z"/>
			<path class="st1" d="M233.9,416.1c8.5,0,10.8-12.5,16-19.3h-8.7c-1.9,2.5-4.2,4.2-7.4,4.2s-5.5-1.7-7.4-4.2h-8.7
				C223,403.6,225.3,416.1,233.9,416.1z"/>
			<path class="st1" d="M0,416.1c8.5,0,10.8-12.5,16-19.3H7.4C5.5,399.3,3.2,401,0,401V416.1z"/>
			<path class="st1" d="M93.5,416.1c8.5,0,10.8-12.5,16-19.3h-8.7c-1.9,2.5-4.2,4.2-7.4,4.2s-5.5-1.7-7.4-4.2h-8.7
				C82.7,403.6,85,416.1,93.5,416.1z"/>
			<path class="st1" d="M46.8,416.1c8.5,0,10.8-12.5,16-19.3h-8.7c-1.9,2.5-4.2,4.2-7.4,4.2s-5.5-1.7-7.4-4.2h-8.7
				C35.9,403.6,38.2,416.1,46.8,416.1z"/>
		</g>
		<g>
			<path class="st1" d="M491.1,576c-8.5,0-10.8,12.5-16,19.3h8.7c1.9-2.5,4.2-4.2,7.4-4.2c3.2,0,5.5,1.7,7.4,4.2h8.7
				C501.9,588.5,499.6,576,491.1,576z"/>
			<path class="st1" d="M397.6,576c-8.5,0-10.8,12.5-16,19.3h8.7c1.9-2.5,4.2-4.2,7.4-4.2c3.2,0,5.5,1.7,7.4,4.2h8.7
				C408.4,588.5,406.1,576,397.6,576z"/>
			<path class="st1" d="M444.3,576c-8.5,0-10.8,12.5-16,19.3h8.7c1.9-2.5,4.2-4.2,7.4-4.2c3.2,0,5.5,1.7,7.4,4.2h8.7
				C455.2,588.5,452.9,576,444.3,576z"/>
			<path class="st1" d="M537.9,576c-8.5,0-10.8,12.5-16,19.3h8.7c1.9-2.5,4.2-4.2,7.4-4.2s5.5,1.7,7.4,4.2h8.7
				C548.7,588.5,546.4,576,537.9,576z"/>
			<path class="st1" d="M304,576c-8.5,0-10.8,12.5-16,19.3h8.7c1.9-2.5,4.2-4.2,7.4-4.2c3.2,0,5.5,1.7,7.4,4.2h8.7
				C314.9,588.5,312.6,576,304,576z"/>
			<path class="st1" d="M350.8,576c-8.5,0-10.8,12.5-16,19.3h8.7c1.9-2.5,4.2-4.2,7.4-4.2c3.2,0,5.5,1.7,7.4,4.2h8.7
				C361.6,588.5,359.3,576,350.8,576z"/>
			<path class="st1" d="M304,562.7c11.7,0,11.7,23.5,23.4,23.5c11.7,0,11.7-23.5,23.4-23.5c11.7,0,11.7,23.5,23.4,23.5
				c11.7,0,11.7-23.5,23.4-23.5c11.7,0,11.7,23.5,23.4,23.5c11.7,0,11.7-23.5,23.4-23.5c11.7,0,11.7,23.5,23.4,23.5
				c11.7,0,11.7-23.5,23.4-23.5c11.7,0,11.7,23.5,23.4,23.5s11.7-23.5,23.4-23.5s11.7,23.5,23.4,23.5v-15.1
				c-11.7,0-11.7-23.5-23.4-23.5s-11.7,23.5-23.4,23.5s-11.7-23.5-23.4-23.5c-11.7,0-11.7,23.5-23.4,23.5
				c-11.7,0-11.7-23.5-23.4-23.5c-11.7,0-11.7,23.5-23.4,23.5c-11.7,0-11.7-23.5-23.4-23.5c-11.7,0-11.7,23.5-23.4,23.5
				c-11.7,0-11.7-23.5-23.4-23.5c-11.7,0-11.7,23.5-23.4,23.5c-11.7,0-11.7-23.5-23.4-23.5c-11.7,0-11.7,23.5-23.4,23.5v15.1
				C292.3,586.2,292.3,562.7,304,562.7z"/>
			<path class="st1" d="M304,534.4c11.7,0,11.7,23.5,23.4,23.5c11.7,0,11.7-23.5,23.4-23.5c11.7,0,11.7,23.5,23.4,23.5
				c11.7,0,11.7-23.5,23.4-23.5c11.7,0,11.7,23.5,23.4,23.5c11.7,0,11.7-23.5,23.4-23.5c11.7,0,11.7,23.5,23.4,23.5
				c11.7,0,11.7-23.5,23.4-23.5c11.7,0,11.7,23.5,23.4,23.5s11.7-23.5,23.4-23.5s11.7,23.5,23.4,23.5v-15.1
				c-11.7,0-11.7-23.5-23.4-23.5s-11.7,23.5-23.4,23.5s-11.7-23.5-23.4-23.5c-11.7,0-11.7,23.5-23.4,23.5
				c-11.7,0-11.7-23.5-23.4-23.5c-11.7,0-11.7,23.5-23.4,23.5c-11.7,0-11.7-23.5-23.4-23.5c-11.7,0-11.7,23.5-23.4,23.5
				c-11.7,0-11.7-23.5-23.4-23.5c-11.7,0-11.7,23.5-23.4,23.5c-11.7,0-11.7-23.5-23.4-23.5c-11.7,0-11.7,23.5-23.4,23.5v15.1
				C292.3,557.9,292.3,534.4,304,534.4z"/>
			<path class="st1" d="M304,506c11.7,0,11.7,23.5,23.4,23.5c11.7,0,11.7-23.5,23.4-23.5c11.7,0,11.7,23.5,23.4,23.5
				c11.7,0,11.7-23.5,23.4-23.5c11.7,0,11.7,23.5,23.4,23.5c11.7,0,11.7-23.5,23.4-23.5c11.7,0,11.7,23.5,23.4,23.5
				c11.7,0,11.7-23.5,23.4-23.5c11.7,0,11.7,23.5,23.4,23.5S526.3,506,538,506s11.7,23.5,23.4,23.5v-15.1
				c-11.7,0-11.7-23.5-23.4-23.5s-11.7,23.5-23.4,23.5s-11.7-23.5-23.4-23.5c-11.7,0-11.7,23.5-23.4,23.5
				c-11.7,0-11.7-23.5-23.4-23.5c-11.7,0-11.7,23.5-23.4,23.5c-11.7,0-11.7-23.5-23.4-23.5c-11.7,0-11.7,23.5-23.4,23.5
				c-11.7,0-11.7-23.5-23.4-23.5c-11.7,0-11.7,23.5-23.4,23.5c-11.7,0-11.7-23.5-23.4-23.5c-11.7,0-11.7,23.5-23.4,23.5v15.1
				C292.3,529.5,292.3,506,304,506z"/>
			<path class="st1" d="M304,477.7c11.7,0,11.7,23.5,23.4,23.5c11.7,0,11.7-23.5,23.4-23.5c11.7,0,11.7,23.5,23.4,23.5
				c11.7,0,11.7-23.5,23.4-23.5c11.7,0,11.7,23.5,23.4,23.5c11.7,0,11.7-23.5,23.4-23.5c11.7,0,11.7,23.5,23.4,23.5
				c11.7,0,11.7-23.5,23.4-23.5c11.7,0,11.7,23.5,23.4,23.5s11.7-23.5,23.4-23.5s11.7,23.5,23.4,23.5v-15.1
				c-11.7,0-11.7-23.5-23.4-23.5s-11.7,23.5-23.4,23.5s-11.7-23.5-23.4-23.5c-11.7,0-11.7,23.5-23.4,23.5
				c-11.7,0-11.7-23.5-23.4-23.5c-11.7,0-11.7,23.5-23.4,23.5c-11.7,0-11.7-23.5-23.4-23.5c-11.7,0-11.7,23.5-23.4,23.5
				c-11.7,0-11.7-23.5-23.4-23.5c-11.7,0-11.7,23.5-23.4,23.5c-11.7,0-11.7-23.5-23.4-23.5c-11.7,0-11.7,23.5-23.4,23.5v15.1
				C292.3,501.2,292.3,477.7,304,477.7z"/>
			<path class="st1" d="M304,449.3c11.7,0,11.7,23.5,23.4,23.5c11.7,0,11.7-23.5,23.4-23.5c11.7,0,11.7,23.5,23.4,23.5
				c11.7,0,11.7-23.5,23.4-23.5c11.7,0,11.7,23.5,23.4,23.5c11.7,0,11.7-23.5,23.4-23.5c11.7,0,11.7,23.5,23.4,23.5
				c11.7,0,11.7-23.5,23.4-23.5c11.7,0,11.7,23.5,23.4,23.5s11.7-23.5,23.4-23.5s11.7,23.5,23.4,23.5v-15.1
				c-11.7,0-11.7-23.5-23.4-23.5s-11.7,23.5-23.4,23.5s-11.7-23.5-23.4-23.5c-11.7,0-11.7,23.5-23.4,23.5
				c-11.7,0-11.7-23.5-23.4-23.5c-11.7,0-11.7,23.5-23.4,23.5c-11.7,0-11.7-23.5-23.4-23.5c-11.7,0-11.7,23.5-23.4,23.5
				c-11.7,0-11.7-23.5-23.4-23.5c-11.7,0-11.7,23.5-23.4,23.5c-11.7,0-11.7-23.5-23.4-23.5c-11.7,0-11.7,23.5-23.4,23.5v15.1
				C292.3,472.8,292.3,449.3,304,449.3z"/>
			<path class="st1" d="M304,421c11.7,0,11.7,23.5,23.4,23.5c11.7,0,11.7-23.5,23.4-23.5c11.7,0,11.7,23.5,23.4,23.5
				c11.7,0,11.7-23.5,23.4-23.5c11.7,0,11.7,23.5,23.4,23.5c11.7,0,11.7-23.5,23.4-23.5c11.7,0,11.7,23.5,23.4,23.5
				c11.7,0,11.7-23.5,23.4-23.5c11.7,0,11.7,23.5,23.4,23.5S526.3,421,538,421s11.7,23.5,23.4,23.5v-15.1
				c-11.7,0-11.7-23.5-23.4-23.5s-11.7,23.5-23.4,23.5s-11.7-23.5-23.4-23.5c-11.7,0-11.7,23.5-23.4,23.5
				c-11.7,0-11.7-23.5-23.4-23.5c-11.7,0-11.7,23.5-23.4,23.5c-11.7,0-11.7-23.5-23.4-23.5c-11.7,0-11.7,23.5-23.4,23.5
				c-11.7,0-11.7-23.5-23.4-23.5c-11.7,0-11.7,23.5-23.4,23.5c-11.7,0-11.7-23.5-23.4-23.5c-11.7,0-11.7,23.5-23.4,23.5v15.1
				C292.3,444.5,292.3,421,304,421z"/>
			<path class="st1" d="M467.7,416.1c8.5,0,10.8-12.5,16-19.3H475c-1.9,2.5-4.2,4.2-7.4,4.2c-3.2,0-5.5-1.7-7.4-4.2h-8.7
				C456.9,403.6,459.2,416.1,467.7,416.1z"/>
			<path class="st1" d="M420.9,416.1c8.5,0,10.8-12.5,16-19.3h-8.7c-1.9,2.5-4.2,4.2-7.4,4.2c-3.2,0-5.5-1.7-7.4-4.2h-8.7
				C410.1,403.6,412.4,416.1,420.9,416.1z"/>
			<path class="st1" d="M561.3,416.1V401c-3.2,0-5.5-1.7-7.4-4.2h-8.7C550.4,403.6,552.7,416.1,561.3,416.1z"/>
			<path class="st1" d="M514.5,416.1c8.5,0,10.8-12.5,16-19.3h-8.7c-1.9,2.5-4.2,4.2-7.4,4.2s-5.5-1.7-7.4-4.2h-8.7
				C503.6,403.6,505.9,416.1,514.5,416.1z"/>
			<path class="st1" d="M280.6,416.1c8.5,0,10.8-12.5,16-19.3H288c-1.9,2.5-4.2,4.2-7.4,4.2V416.1z"/>
			<path class="st1" d="M374.2,416.1c8.5,0,10.8-12.5,16-19.3h-8.7c-1.9,2.5-4.2,4.2-7.4,4.2c-3.2,0-5.5-1.7-7.4-4.2H358
				C363.3,403.6,365.6,416.1,374.2,416.1z"/>
			<path class="st1" d="M327.4,416.1c8.5,0,10.8-12.5,16-19.3h-8.7c-1.9,2.5-4.2,4.2-7.4,4.2c-3.2,0-5.5-1.7-7.4-4.2h-8.7
				C316.6,403.6,318.9,416.1,327.4,416.1z"/>
		</g>
		<g>
			<path class="st1" d="M771.7,576c-8.5,0-10.8,12.5-16,19.3h8.7c1.9-2.5,4.2-4.2,7.4-4.2s5.5,1.7,7.4,4.2h8.7
				C782.6,588.5,780.3,576,771.7,576z"/>
			<path class="st1" d="M678.2,576c-8.5,0-10.8,12.5-16,19.3h8.7c1.9-2.5,4.2-4.2,7.4-4.2s5.5,1.7,7.4,4.2h8.7
				C689,588.5,686.7,576,678.2,576z"/>
			<path class="st1" d="M725,576c-8.5,0-10.8,12.5-16,19.3h8.7c1.9-2.5,4.2-4.2,7.4-4.2s5.5,1.7,7.4,4.2h8.7
				C735.8,588.5,733.5,576,725,576z"/>
			<path class="st1" d="M818.5,576c-8.5,0-10.8,12.5-16,19.3h8.7c1.9-2.5,4.2-4.2,7.4-4.2s5.5,1.7,7.4,4.2h8.7
				C829.4,588.5,827,576,818.5,576z"/>
			<path class="st1" d="M584.6,576c-8.5,0-10.8,12.5-16,19.3h8.7c1.9-2.5,4.2-4.2,7.4-4.2s5.5,1.7,7.4,4.2h8.7
				C595.5,588.5,593.2,576,584.6,576z"/>
			<path class="st1" d="M631.4,576c-8.5,0-10.8,12.5-16,19.3h8.7c1.9-2.5,4.2-4.2,7.4-4.2s5.5,1.7,7.4,4.2h8.7
				C642.3,588.5,640,576,631.4,576z"/>
			<path class="st1" d="M584.6,562.7c11.7,0,11.7,23.5,23.4,23.5s11.7-23.5,23.4-23.5s11.7,23.5,23.4,23.5s11.7-23.5,23.4-23.5
				s11.7,23.5,23.4,23.5s11.7-23.5,23.4-23.5s11.7,23.5,23.4,23.5s11.7-23.5,23.4-23.5s11.7,23.5,23.4,23.5s11.7-23.5,23.4-23.5
				s11.7,23.5,23.4,23.5v-15.1c-11.7,0-11.7-23.5-23.4-23.5s-11.7,23.5-23.4,23.5s-11.7-23.5-23.4-23.5s-11.7,23.5-23.4,23.5
				s-11.7-23.5-23.4-23.5s-11.7,23.5-23.4,23.5s-11.7-23.5-23.4-23.5s-11.7,23.5-23.4,23.5s-11.7-23.5-23.4-23.5
				s-11.7,23.5-23.4,23.5s-11.7-23.5-23.4-23.5s-11.7,23.5-23.4,23.5v15.1C573,586.2,573,562.7,584.6,562.7z"/>
			<path class="st1" d="M584.6,534.4c11.7,0,11.7,23.5,23.4,23.5s11.7-23.5,23.4-23.5s11.7,23.5,23.4,23.5s11.7-23.5,23.4-23.5
				s11.7,23.5,23.4,23.5s11.7-23.5,23.4-23.5s11.7,23.5,23.4,23.5s11.7-23.5,23.4-23.5s11.7,23.5,23.4,23.5s11.7-23.5,23.4-23.5
				s11.7,23.5,23.4,23.5v-15.1c-11.7,0-11.7-23.5-23.4-23.5s-11.7,23.5-23.4,23.5s-11.7-23.5-23.4-23.5s-11.7,23.5-23.4,23.5
				s-11.7-23.5-23.4-23.5s-11.7,23.5-23.4,23.5s-11.7-23.5-23.4-23.5s-11.7,23.5-23.4,23.5s-11.7-23.5-23.4-23.5
				s-11.7,23.5-23.4,23.5s-11.7-23.5-23.4-23.5s-11.7,23.5-23.4,23.5v15.1C573,557.9,573,534.4,584.6,534.4z"/>
			<path class="st1" d="M584.6,506c11.7,0,11.7,23.5,23.4,23.5s11.7-23.5,23.4-23.5s11.7,23.5,23.4,23.5s11.7-23.5,23.4-23.5
				s11.7,23.5,23.4,23.5S713.3,506,725,506s11.7,23.5,23.4,23.5s11.7-23.5,23.4-23.5s11.7,23.5,23.4,23.5s11.7-23.5,23.4-23.5
				s11.7,23.5,23.4,23.5v-15.1c-11.7,0-11.7-23.5-23.4-23.5s-11.7,23.5-23.4,23.5s-11.7-23.5-23.4-23.5s-11.7,23.5-23.4,23.5
				s-11.7-23.5-23.4-23.5s-11.7,23.5-23.4,23.5s-11.7-23.5-23.4-23.5s-11.7,23.5-23.4,23.5s-11.7-23.5-23.4-23.5
				s-11.7,23.5-23.4,23.5s-11.7-23.5-23.4-23.5s-11.7,23.5-23.4,23.5v15.1C573,529.5,573,506,584.6,506z"/>
			<path class="st1" d="M584.6,477.7c11.7,0,11.7,23.5,23.4,23.5s11.7-23.5,23.4-23.5s11.7,23.5,23.4,23.5s11.7-23.5,23.4-23.5
				s11.7,23.5,23.4,23.5s11.7-23.5,23.4-23.5s11.7,23.5,23.4,23.5s11.7-23.5,23.4-23.5s11.7,23.5,23.4,23.5s11.7-23.5,23.4-23.5
				s11.7,23.5,23.4,23.5v-15.1c-11.7,0-11.7-23.5-23.4-23.5s-11.7,23.5-23.4,23.5s-11.7-23.5-23.4-23.5s-11.7,23.5-23.4,23.5
				s-11.7-23.5-23.4-23.5s-11.7,23.5-23.4,23.5s-11.7-23.5-23.4-23.5s-11.7,23.5-23.4,23.5s-11.7-23.5-23.4-23.5
				s-11.7,23.5-23.4,23.5s-11.7-23.5-23.4-23.5s-11.7,23.5-23.4,23.5v15.1C573,501.2,573,477.7,584.6,477.7z"/>
			<path class="st1" d="M584.6,449.3c11.7,0,11.7,23.5,23.4,23.5s11.7-23.5,23.4-23.5s11.7,23.5,23.4,23.5s11.7-23.5,23.4-23.5
				s11.7,23.5,23.4,23.5s11.7-23.5,23.4-23.5s11.7,23.5,23.4,23.5s11.7-23.5,23.4-23.5s11.7,23.5,23.4,23.5s11.7-23.5,23.4-23.5
				s11.7,23.5,23.4,23.5v-15.1c-11.7,0-11.7-23.5-23.4-23.5s-11.7,23.5-23.4,23.5s-11.7-23.5-23.4-23.5s-11.7,23.5-23.4,23.5
				s-11.7-23.5-23.4-23.5s-11.7,23.5-23.4,23.5s-11.7-23.5-23.4-23.5s-11.7,23.5-23.4,23.5s-11.7-23.5-23.4-23.5
				s-11.7,23.5-23.4,23.5s-11.7-23.5-23.4-23.5s-11.7,23.5-23.4,23.5v15.1C573,472.8,573,449.3,584.6,449.3z"/>
			<path class="st1" d="M584.6,421c11.7,0,11.7,23.5,23.4,23.5s11.7-23.5,23.4-23.5s11.7,23.5,23.4,23.5s11.7-23.5,23.4-23.5
				s11.7,23.5,23.4,23.5S713.3,421,725,421s11.7,23.5,23.4,23.5s11.7-23.5,23.4-23.5s11.7,23.5,23.4,23.5s11.7-23.5,23.4-23.5
				s11.7,23.5,23.4,23.5v-15.1c-11.7,0-11.7-23.5-23.4-23.5s-11.7,23.5-23.4,23.5s-11.7-23.5-23.4-23.5s-11.7,23.5-23.4,23.5
				s-11.7-23.5-23.4-23.5s-11.7,23.5-23.4,23.5s-11.7-23.5-23.4-23.5s-11.7,23.5-23.4,23.5s-11.7-23.5-23.4-23.5
				s-11.7,23.5-23.4,23.5s-11.7-23.5-23.4-23.5s-11.7,23.5-23.4,23.5v15.1C573,444.5,573,421,584.6,421z"/>
			<path class="st1" d="M748.3,416.1c8.5,0,10.8-12.5,16-19.3h-8.7c-1.9,2.5-4.2,4.2-7.4,4.2s-5.5-1.7-7.4-4.2h-8.7
				C737.5,403.6,739.8,416.1,748.3,416.1z"/>
			<path class="st1" d="M701.6,416.1c8.5,0,10.8-12.5,16-19.3h-8.7c-1.9,2.5-4.2,4.2-7.4,4.2s-5.5-1.7-7.4-4.2h-8.7
				C690.7,403.6,693,416.1,701.6,416.1z"/>
			<path class="st1" d="M841.9,416.1V401c-3.2,0-5.5-1.7-7.4-4.2h-8.7C831,403.6,833.4,416.1,841.9,416.1z"/>
			<path class="st1" d="M795.1,416.1c8.5,0,10.8-12.5,16-19.3h-8.7c-1.9,2.5-4.2,4.2-7.4,4.2s-5.5-1.7-7.4-4.2h-8.7
				C784.3,403.6,786.6,416.1,795.1,416.1z"/>
			<path class="st1" d="M561.3,416.1c8.5,0,10.8-12.5,16-19.3h-8.7c-1.9,2.5-4.2,4.2-7.4,4.2v15.1L561.3,416.1L561.3,416.1z"/>
			<path class="st1" d="M654.8,416.1c8.5,0,10.8-12.5,16-19.3h-8.7c-1.9,2.5-4.2,4.2-7.4,4.2s-5.5-1.7-7.4-4.2h-8.7
				C644,403.6,646.3,416.1,654.8,416.1z"/>
			<path class="st1" d="M608,416.1c8.5,0,10.8-12.5,16-19.3h-8.7c-1.9,2.5-4.2,4.2-7.4,4.2s-5.5-1.7-7.4-4.2H592
				C597.2,403.6,599.5,416.1,608,416.1z"/>
		</g>
		<g>
			<path class="st1" d="M210.5,576c-8.5,0-10.8,12.5-16,19.3h8.7c1.9-2.5,4.2-4.2,7.4-4.2s5.5,1.7,7.4,4.2h8.7
				C221.3,588.5,219,576,210.5,576z"/>
			<path class="st1" d="M116.9,576c-8.5,0-10.8,12.5-16,19.3h8.7c1.9-2.5,4.2-4.2,7.4-4.2c3.2,0,5.5,1.7,7.4,4.2h8.7
				C127.8,588.5,125.5,576,116.9,576z"/>
			<path class="st1" d="M163.7,576c-8.5,0-10.8,12.5-16,19.3h8.7c1.9-2.5,4.2-4.2,7.4-4.2s5.5,1.7,7.4,4.2h8.7
				C174.5,588.5,172.2,576,163.7,576z"/>
			<path class="st1" d="M257.2,576c-8.5,0-10.8,12.5-16,19.3h8.7c1.9-2.5,4.2-4.2,7.4-4.2s5.5,1.7,7.4,4.2h8.7
				C268.1,588.5,265.8,576,257.2,576z"/>
			<path class="st1" d="M23.4,576c-8.5,0-10.8,12.5-16,19.3H16c1.9-2.5,4.2-4.2,7.4-4.2s5.5,1.7,7.4,4.2h8.7
				C34.2,588.5,31.9,576,23.4,576z"/>
			<path class="st1" d="M70.2,576c-8.5,0-10.8,12.5-16,19.3h8.7c1.9-2.5,4.2-4.2,7.4-4.2s5.5,1.7,7.4,4.2h8.7
				C81,588.5,78.7,576,70.2,576z"/>
			<path class="st1" d="M23.4,562.7c11.7,0,11.7,23.5,23.4,23.5s11.7-23.5,23.4-23.5s11.7,23.5,23.4,23.5s11.7-23.5,23.4-23.5
				s11.7,23.5,23.4,23.5s11.7-23.5,23.4-23.5s11.7,23.5,23.4,23.5s11.7-23.5,23.4-23.5s11.7,23.5,23.4,23.5s11.7-23.5,23.4-23.5
				c11.7,0,11.7,23.5,23.4,23.5v-15.1c-11.7,0-11.7-23.5-23.4-23.5c-11.7,0-11.7,23.5-23.4,23.5s-11.7-23.5-23.4-23.5
				s-11.7,23.5-23.4,23.5s-11.7-23.5-23.4-23.5s-11.7,23.5-23.4,23.5s-11.7-23.5-23.4-23.5s-11.7,23.5-23.4,23.5
				s-11.7-23.5-23.4-23.5s-11.7,23.5-23.4,23.5s-11.7-23.5-23.4-23.5S11.7,571.1,0,571.1v15.1C11.7,586.2,11.7,562.7,23.4,562.7z"/>
			<path class="st1" d="M23.4,534.4c11.7,0,11.7,23.5,23.4,23.5s11.7-23.5,23.4-23.5s11.7,23.5,23.4,23.5s11.7-23.5,23.4-23.5
				s11.7,23.5,23.4,23.5s11.7-23.5,23.4-23.5s11.7,23.5,23.4,23.5s11.7-23.5,23.4-23.5s11.7,23.5,23.4,23.5s11.7-23.5,23.4-23.5
				c11.7,0,11.7,23.5,23.4,23.5v-15.1c-11.7,0-11.7-23.5-23.4-23.5c-11.7,0-11.7,23.5-23.4,23.5s-11.7-23.5-23.4-23.5
				s-11.7,23.5-23.4,23.5s-11.7-23.5-23.4-23.5s-11.7,23.5-23.4,23.5s-11.7-23.5-23.4-23.5s-11.7,23.5-23.4,23.5
				s-11.7-23.5-23.4-23.5s-11.7,23.5-23.4,23.5s-11.7-23.5-23.4-23.5S11.7,542.8,0,542.8v15.1C11.7,557.9,11.7,534.4,23.4,534.4z"/>
			<path class="st1" d="M23.4,506c11.7,0,11.7,23.5,23.4,23.5S58.5,506,70.2,506s11.7,23.5,23.4,23.5S105.3,506,117,506
				s11.7,23.5,23.4,23.5s11.7-23.5,23.4-23.5s11.7,23.5,23.4,23.5s11.7-23.5,23.4-23.5s11.7,23.5,23.4,23.5s11.7-23.5,23.4-23.5
				c11.7,0,11.7,23.5,23.4,23.5v-15.1c-11.7,0-11.7-23.5-23.4-23.5c-11.7,0-11.7,23.5-23.4,23.5s-11.7-23.5-23.4-23.5
				s-11.7,23.5-23.4,23.5s-11.7-23.5-23.4-23.5s-11.7,23.5-23.4,23.5s-11.7-23.5-23.4-23.5s-11.7,23.5-23.4,23.5
				s-11.7-23.5-23.4-23.5s-11.7,23.5-23.4,23.5s-11.7-23.5-23.4-23.5S11.7,514.4,0,514.4v15.1C11.7,529.5,11.7,506,23.4,506z"/>
			<path class="st1" d="M23.4,477.7c11.7,0,11.7,23.5,23.4,23.5s11.7-23.5,23.4-23.5s11.7,23.5,23.4,23.5s11.7-23.5,23.4-23.5
				s11.7,23.5,23.4,23.5s11.7-23.5,23.4-23.5s11.7,23.5,23.4,23.5s11.7-23.5,23.4-23.5s11.7,23.5,23.4,23.5s11.7-23.5,23.4-23.5
				c11.7,0,11.7,23.5,23.4,23.5v-15.1c-11.7,0-11.7-23.5-23.4-23.5c-11.7,0-11.7,23.5-23.4,23.5s-11.7-23.5-23.4-23.5
				s-11.7,23.5-23.4,23.5s-11.7-23.5-23.4-23.5s-11.7,23.5-23.4,23.5s-11.7-23.5-23.4-23.5s-11.7,23.5-23.4,23.5
				s-11.7-23.5-23.4-23.5s-11.7,23.5-23.4,23.5s-11.7-23.5-23.4-23.5S11.7,486.1,0,486.1v15.1C11.7,501.2,11.7,477.7,23.4,477.7z"/>
			<path class="st1" d="M23.4,449.3c11.7,0,11.7,23.5,23.4,23.5s11.7-23.5,23.4-23.5s11.7,23.5,23.4,23.5s11.7-23.5,23.4-23.5
				s11.7,23.5,23.4,23.5s11.7-23.5,23.4-23.5s11.7,23.5,23.4,23.5s11.7-23.5,23.4-23.5s11.7,23.5,23.4,23.5s11.7-23.5,23.4-23.5
				c11.7,0,11.7,23.5,23.4,23.5v-15.1c-11.7,0-11.7-23.5-23.4-23.5c-11.7,0-11.7,23.5-23.4,23.5s-11.7-23.5-23.4-23.5
				s-11.7,23.5-23.4,23.5s-11.7-23.5-23.4-23.5s-11.7,23.5-23.4,23.5s-11.7-23.5-23.4-23.5s-11.7,23.5-23.4,23.5
				s-11.7-23.5-23.4-23.5s-11.7,23.5-23.4,23.5s-11.7-23.5-23.4-23.5S11.7,457.7,0,457.7v15.1C11.7,472.8,11.7,449.3,23.4,449.3z"/>
			<path class="st1" d="M23.4,421c11.7,0,11.7,23.5,23.4,23.5S58.5,421,70.2,421s11.7,23.5,23.4,23.5S105.3,421,117,421
				s11.7,23.5,23.4,23.5s11.7-23.5,23.4-23.5s11.7,23.5,23.4,23.5s11.7-23.5,23.4-23.5s11.7,23.5,23.4,23.5s11.7-23.5,23.4-23.5
				c11.7,0,11.7,23.5,23.4,23.5v-15.1c-11.7,0-11.7-23.5-23.4-23.5c-11.7,0-11.7,23.5-23.4,23.5s-11.7-23.5-23.4-23.5
				s-11.7,23.5-23.4,23.5s-11.7-23.5-23.4-23.5s-11.7,23.5-23.4,23.5s-11.7-23.5-23.4-23.5s-11.7,23.5-23.4,23.5
				s-11.7-23.5-23.4-23.5s-11.7,23.5-23.4,23.5s-11.7-23.5-23.4-23.5S11.7,429.4,0,429.4v15.1C11.7,444.5,11.7,421,23.4,421z"/>
			<path class="st1" d="M187.1,416.1c8.5,0,10.8-12.5,16-19.3h-8.7c-1.9,2.5-4.2,4.2-7.4,4.2s-5.5-1.7-7.4-4.2h-8.7
				C176.2,403.6,178.5,416.1,187.1,416.1z"/>
			<path class="st1" d="M140.3,416.1c8.5,0,10.8-12.5,16-19.3h-8.7c-1.9,2.5-4.2,4.2-7.4,4.2s-5.5-1.7-7.4-4.2h-8.7
				C129.5,403.6,131.8,416.1,140.3,416.1z"/>
			<path class="st1" d="M280.6,416.1V401c-3.2,0-5.5-1.7-7.4-4.2h-8.7C269.8,403.6,272.1,416.1,280.6,416.1z"/>
			<path class="st1" d="M233.9,416.1c8.5,0,10.8-12.5,16-19.3h-8.7c-1.9,2.5-4.2,4.2-7.4,4.2s-5.5-1.7-7.4-4.2h-8.7
				C223,403.6,225.3,416.1,233.9,416.1z"/>
			<path class="st1" d="M0,416.1c8.5,0,10.8-12.5,16-19.3H7.4C5.5,399.3,3.2,401,0,401V416.1z"/>
			<path class="st1" d="M93.5,416.1c8.5,0,10.8-12.5,16-19.3h-8.7c-1.9,2.5-4.2,4.2-7.4,4.2s-5.5-1.7-7.4-4.2h-8.7
				C82.7,403.6,85,416.1,93.5,416.1z"/>
			<path class="st1" d="M46.8,416.1c8.5,0,10.8-12.5,16-19.3h-8.7c-1.9,2.5-4.2,4.2-7.4,4.2s-5.5-1.7-7.4-4.2h-8.7
				C35.9,403.6,38.2,416.1,46.8,416.1z"/>
		</g>
	</g>
</g>
</svg>
