<svg viewBox="0 0 64 64" xmlns="http://www.w3.org/2000/svg" aria-labelledby="title" aria-describedby="desc"><path fill="#536897" d="M2 58a4 4 0 0 0 4 4h26a4 4 0 0 0 4-4V48H2zM36 6a4 4 0 0 0-4-4H6a4 4 0 0 0-4 4v4h34z" data-name="layer3"/><path opacity=".14" fill="#000064" d="M7 58V48H2v10a4 4 0 0 0 4 4h5a4 4 0 0 1-4-4zm4-56H6a4 4 0 0 0-4 4v4h5V6a4 4 0 0 1 4-4z" data-name="opacity"/><path d="M2 10h34v38H2z" fill="#a0d6ef" data-name="layer2"/><circle fill="#7b8baf" r="1" cy="55" cx="19" data-name="layer1"/><path d="M36 26.5L14.5 48H36V26.5zM36 10h-6L2 38v10l34-34v-4z" opacity=".25" fill="#fff" data-name="opacity"/><path stroke-width="2" stroke-miterlimit="10" stroke-linecap="round" stroke="#2e4369" fill="none" d="M2 10h34V6a4 4 0 0 0-4-4H6a4 4 0 0 0-4 4v52a4 4 0 0 0 4 4h26a4 4 0 0 0 4-4V46.043M36 48H2m52-29.957l-6 14h14m-4-6v12" data-name="stroke" stroke-linejoin="round"/><path stroke-width="2" stroke-miterlimit="10" stroke-linecap="round" stroke="#2e4369" fill="none" d="M32 19.594a6 6 0 0 1 8.639 8.277L32 38.043h12" data-name="stroke" stroke-linejoin="round"/><circle stroke-width="2" stroke-miterlimit="10" stroke-linecap="round" stroke="#2e4369" fill="none" r="1" cy="55" cx="19" data-name="stroke" stroke-linejoin="round"/></svg>