<svg xmlns="http://www.w3.org/2000/svg" viewBox="0 0 64 64" aria-labelledby="title" aria-describedby="desc"><path data-name="layer1" d="M2 10h34V6a4 4 0 0 0-4-4H6a4 4 0 0 0-4 4v52a4 4 0 0 0 4 4h26a4 4 0 0 0 4-4V46m0 2H2" fill="none" stroke="#202020" stroke-linecap="round" stroke-linejoin="round" stroke-width="2"/><path data-name="layer2" fill="none" stroke="#202020" stroke-linecap="round" stroke-linejoin="round" stroke-width="2" d="M54 18l-6 14h14m-4-6v12m-14 0H32l8.5-10v-.2a6 6 0 0 0-8.5-8.2"/><circle data-name="layer1" cx="19" cy="55" r="1" fill="none" stroke="#202020" stroke-linecap="round" stroke-linejoin="round" stroke-width="2"/></svg>