<svg xmlns="http://www.w3.org/2000/svg" viewBox="0 0 64 64" aria-labelledby="title" aria-describedby="desc"><path data-name="layer1" d="M21.276 28.936a10.639 10.639 0 0 1 1.8-3.128 9.165 9.165 0 0 1 6.593-3.33c3.7-.3 6.692 1.11 9.389 3.532a23.651 23.651 0 0 1 3 3.33c.2.2.3.3.5 0a25.975 25.975 0 0 1 4-4.138 10.839 10.839 0 0 1 5.893-2.624 9.879 9.879 0 0 1 11.287 8.174 13.448 13.448 0 0 1-.5 7.165 9.691 9.691 0 0 1-9.589 6.761 12.05 12.05 0 0 1-7.292-2.725 26.614 26.614 0 0 1-3.8-3.734c-.2-.2-.3-.3-.5 0-1.2 1.211-2.3 2.523-3.6 3.633a11.141 11.141 0 0 1-5.694 2.725 10.3 10.3 0 0 1-9.789-3.532 11.008 11.008 0 0 1-1.4-2.321c0-.1-.2-.3-.2-.3a9.945 9.945 0 0 1-2 3.028 10.631 10.631 0 0 1-7.691 3.532 13.426 13.426 0 0 1-6.293-1.11A8.935 8.935 0 0 1 0 35.9c0-.3.1-.4.3-.4h5.394c.3 0 .3.1.4.3a4.485 4.485 0 0 0 3.5 4.037 5.093 5.093 0 0 0 6.288-3.937 6.363 6.363 0 0 0-1-5.651 4.7 4.7 0 0 0-3.5-1.716 5.224 5.224 0 0 0-4.894 2.22c-.1.2-.2.2-.4.2H1.2c-.1-.3-.2-.4-.1-.605.8-4.743 1.7-9.385 2.5-14.128.1-.606.2-1.312.3-1.917a.266.266 0 0 1 .3-.3h16.077c.3 0 .3.1.3.3v4.339c0 .3-.1.4-.4.4H8.69c-.3 0-.5 0-.5.4-.3 2.018-.7 4.138-1.1 6.156 0 .1-.1.2 0 .3s.2-.1.2-.1a8.042 8.042 0 0 1 6.293-2.119 8.4 8.4 0 0 1 5.793 2.624 8.759 8.759 0 0 1 1.6 2.321q.3.16.3.312zm37.158 4.44a2.532 2.532 0 0 0-.1-.807 4.557 4.557 0 0 0-5.294-4.138 8.321 8.321 0 0 0-3.7 1.716 34.4 34.4 0 0 0-3.3 3.33.19.19 0 0 0 0 .3 18.212 18.212 0 0 0 2.4 2.422 8.407 8.407 0 0 0 4.894 2.22 4.307 4.307 0 0 0 4.7-2.819 4.9 4.9 0 0 0 .4-2.224zm-32.263.3v.605a4.5 4.5 0 0 0 3.6 4.138 5.372 5.372 0 0 0 3.3-.4 14.444 14.444 0 0 0 5.494-4.239.19.19 0 0 0 0-.3 28.264 28.264 0 0 0-3.6-3.33 7.052 7.052 0 0 0-3-1.514 4.236 4.236 0 0 0-4.495 1.211 6.11 6.11 0 0 0-1.3 3.832z" fill="#73a1fb"/></svg>