<svg xmlns="http://www.w3.org/2000/svg" viewBox="0 0 64 64" aria-labelledby="title" aria-describedby="desc"><path data-name="layer2" d="M36.9 48a11.1 11.1 0 0 1 .2-2.1l-2.8-1.6 1.7-3.2c-5-1.9-6-3.7-6-5.1v-2a57.4 57.4 0 0 0 12-2c-3.3-3.3-6-4.3-6-18C36 2.4 28.8 1.2 22 2.4S12 8 12 14c0 13.7-2.7 14.7-6 18a58.1 58.1 0 0 0 12 2v2c0 1.6-1.1 3.7-9 6s-7 8-7 8h35.1a11.1 11.1 0 0 1-.2-2z" fill="#a5d0ec"/><path data-name="layer1" d="M58.9 49.9A11.2 11.2 0 0 0 59 48a11.3 11.3 0 0 0-.2-2.1l2.8-1.7-3.6-6.4-2.9 1.7a13.6 13.6 0 0 0-3.1-2V34h-8v3.5a13.7 13.7 0 0 0-3.1 2L38 37.8l-3.7 6.5 2.8 1.6a11 11 0 0 0 0 4.1L34 51.8l3.7 6.5 3-1.8a14.4 14.4 0 0 0 3.3 2V62h8v-3.5a14.4 14.4 0 0 0 3.2-2.1l3.1 1.8 3.7-6.4zM48 52a4 4 0 1 1 4-4 4 4 0 0 1-4 4z" fill="#8fa9d8"/><path data-name="opacity" d="M37.1 50a11 11 0 0 1 0-4.1l-2.8-1.6 1.6-2.8-2.9-1.7-3.7 6.5 2.8 1.6a11.1 11.1 0 0 0-.2 2.1h5.2zM15 42c7.9-2.3 9-4.4 9-6-1.7 0-5.5-2.6-11-4 3.3-3.3 4-4.3 4-18 0-6 4.7-11.6 11-11.6h.6a18.4 18.4 0 0 0-6.6.1C15.7 2.4 12 8 12 14c0 13.7-2.7 14.7-6 18a61.4 61.4 0 0 0 12 2v2c0 1.6-1.1 3.7-9 6s-7 8-7 8h6s0-6 7-8z" fill="#000064" opacity=".15"/><path data-name="stroke" d="M37.1 50H2s0-6 7-8 9-4.4 9-6v-2a61.4 61.4 0 0 1-12-2c3.3-3.3 6-4.3 6-18 0-6 3.7-11.6 10-11.6s14 0 14 11.6c0 13.7 2.7 14.7 6 18a61.7 61.7 0 0 1-12 2v2c0 1.4.8 3.2 6.1 5.1" fill="none" stroke="#2e4369" stroke-linecap="round" stroke-linejoin="round" stroke-width="2"/><circle data-name="stroke" cx="48" cy="48" r="4" fill="none" stroke="#2e4369" stroke-linecap="round" stroke-linejoin="round" stroke-width="2"/><path data-name="stroke" d="M62 51.8L58.9 50a11.2 11.2 0 0 0 .1-2 11.3 11.3 0 0 0-.2-2.1l2.8-1.7-3.6-6.4-2.9 1.7a9.5 9.5 0 0 0-3.1-2V34h-8v3.5a9.8 9.8 0 0 0-3.2 2L38 37.8l-3.7 6.5 2.8 1.6a11 11 0 0 0 0 4.1L34 51.8l3.7 6.5 3-1.8a9.8 9.8 0 0 0 3.3 2V62h8v-3.5a9.6 9.6 0 0 0 3.2-2.1l3.1 1.8z" fill="none" stroke="#2e4369" stroke-linecap="round" stroke-linejoin="round" stroke-width="2"/></svg>