<svg xmlns="http://www.w3.org/2000/svg" viewBox="0 0 64 64" aria-labelledby="title" aria-describedby="desc"><path data-name="layer2" d="M40.6 42.1a38.7 38.7 0 0 1-6.2-1.6A3.7 3.7 0 0 1 32 37v-2a13.7 13.7 0 0 0 4-7c2.5 0 4-3 4-6 0-.8 0-4-2-4C43 3.6 28.4-2 18 5c-4.4 0-5.6 6.6-4 13-2 0-2 3.2-2 4 0 3 1.5 6 4 6a13.2 13.2 0 0 0 4 7v2c0 1.6-.5 3.6-8.6 5.2S2 51 2 51h33.9l4.7-8.9z" fill="#a5d0ec"/><path data-name="layer1" fill="#fc6" d="M30 62h32L46 32 30 62z"/><path data-name="opacity" d="M40.6 42.1l-4.4-1-5.3 9.9h4.9zM20 28c.8 3 4.1 5.3 6 7v2c0 1.6-.5 3.6-8.6 5.2S8 51 8 51H2s0-7 9.4-8.8S20 38.6 20 37v-2a13.6 13.6 0 0 1-4-7c-2.5 0-4-3-4-6 0-.8 0-4 2-4-1.6-6.4-.4-13 4-13a16.7 16.7 0 0 1 12.5-2.7A17.8 17.8 0 0 0 24 5c-4.4 0-7.6 6.6-6 13 0 0-1 8 2 10z" fill="#000064" opacity=".15"/><path data-name="stroke" d="M35.9 51H2s0-7 9.4-8.8S20 38.6 20 37v-2a14.2 14.2 0 0 1-4-7c-2.5 0-4-3-4-6 0-.8 0-4 2-4-1.6-6.4-.4-13 4-13 10.4-7 25-1.4 20 13 2 0 2 3.2 2 4 0 3-1.5 6-4 6a14.1 14.1 0 0 1-4 7v2a3.7 3.7 0 0 0 2.5 3.4 38.7 38.7 0 0 0 6.2 1.6" fill="none" stroke="#2e4369" stroke-linecap="round" stroke-linejoin="round" stroke-width="2"/><path data-name="stroke" fill="none" stroke="#2e4369" stroke-linecap="round" stroke-linejoin="round" stroke-width="2" d="M30 62l16-30 16 30H30zm16-18v6"/><circle data-name="stroke" cx="46" cy="55" r="1" fill="none" stroke="#2e4369" stroke-linecap="round" stroke-linejoin="round" stroke-width="2"/></svg>