<svg xmlns="http://www.w3.org/2000/svg" viewBox="0 0 64 64" aria-labelledby="title" aria-describedby="desc"><path data-name="layer2" d="M58.9 49.9A11.2 11.2 0 0 0 59 48a11.3 11.3 0 0 0-.2-2.1l2.8-1.7-3.6-6.5-2.9 1.7a11.1 11.1 0 0 0-3.4-2V34h-7.4v3.5a11 11 0 0 0-3.4 2L38 37.7l-3.7 6.5 2.8 1.6a11 11 0 0 0 0 4.1L34 51.7l3.7 6.5 3-1.8a11 11 0 0 0 3.5 2.1V62h7.4v-3.5a11.1 11.1 0 0 0 3.6-2.1l3.1 1.8 3.7-6.5zM48 52a4 4 0 1 1 4-4 4 4 0 0 1-4 4z" fill="#202020"/><path data-name="layer1" d="M32 48.3l.7-.4-.4-.2a4 4 0 0 1-1.5-5.4l1.7-3C30.3 38.1 30 37 30 36v-2a57.4 57.4 0 0 0 10.6-1.7 4 4 0 0 1 .7-1c-3-2.8-5.3-4.6-5.3-17.3S28.8 1.2 22 2.4 12 8 12 14c0 13.7-2.7 14.7-6 18a61.3 61.3 0 0 0 12 2v2c0 1.6-.5 3.5-8.6 5.2A9.2 9.2 0 0 0 2 50h28.4a4 4 0 0 1 1.6-1.7z" fill="#202020"/></svg>