<svg xmlns="http://www.w3.org/2000/svg" viewBox="0 0 64 64" aria-labelledby="title" aria-describedby="desc"><path data-name="layer2" d="M46 30a16 16 0 1 0 16 16 16 16 0 0 0-16-16zm8 18h-6v6a2 2 0 0 1-4 0v-6h-6a2 2 0 0 1 0-4h6v-6a2 2 0 0 1 4 0v6h6a2 2 0 0 1 0 4z" fill="#202020"/><path data-name="layer1" d="M26 46a20 20 0 0 1 20-20V2h-8v6a2 2 0 0 1 0 4h-4a2 2 0 1 1 0-4V2h-8v6a2 2 0 0 1 0 4h-4a2 2 0 0 1 0-4V2h-8v6a2 2 0 0 1 0 4h-4a2 2 0 1 1 0-4V2H2v56h28a19.9 19.9 0 0 1-4-12z" fill="#202020"/></svg>