<svg viewBox="0 0 64 64" xmlns="http://www.w3.org/2000/svg" aria-labelledby="title" aria-describedby="desc"><path fill="#49bcff" d="M54 24a22 22 0 1 0-28 21.1L32 62l6-16.8A22 22 0 0 0 54 24z" data-name="layer1"/><path opacity=".2" fill="#000032" d="M14 23c0-9.2 4.6-17 12.6-20.3a22 22 0 0 0-.6 42.4L32 62l-3-17.9c-9.2-2.6-15-11-15-21.1z" data-name="opacity"/><path stroke-width="2" stroke-miterlimit="10" stroke-linecap="round" stroke="#2e4369" fill="none" d="M54 24a22 22 0 1 0-28 21.1L32 62l6-16.8A22 22 0 0 0 54 24zm-22-8v16m8-8H24" data-name="stroke" stroke-linejoin="round"/></svg>