<svg xmlns="http://www.w3.org/2000/svg" viewBox="0 0 64 64" aria-labelledby="title" aria-describedby="desc"><path data-name="layer3" d="M10 10v44a8 8 0 0 0 8 8h36V18H18a8 8 0 0 1-8-8" fill="#f27e7c"/><path data-name="layer2" d="M53 2H18a8 8 0 0 0 0 16h35z" fill="#fff"/><path data-name="opacity" d="M18 2a8 8 0 0 0-7.6 10.5A8 8 0 0 1 18 7h35V2z" fill="#000064" opacity=".1"/><path data-name="opacity" d="M10 10v44a8 8 0 0 0 8 8V18a8 8 0 0 1-8-8z" fill="#000064" opacity=".15"/><path data-name="layer1" d="M25.3 45c3.3-.7 3.3-1.9 3.3-2.7v-1.2a7.9 7.9 0 0 1-2.6-5.8v-3.7c0-3.7 3.4-5.6 6-5.6s6 1.9 6 5.6v3.7a7.9 7.9 0 0 1-2.7 5.7v1.2c0 .8 0 2 3.5 2.7S42 50 42 50H22s0-4.3 3.3-5z" fill="#bacae9"/><path data-name="stroke" fill="none" stroke="#2e4369" stroke-linecap="round" stroke-miterlimit="10" stroke-width="2" d="M18 10h32m-40 0v44a8 8 0 0 0 8 8h36V18H18a8 8 0 1 1 0-16h35v16" stroke-linejoin="round"/><path data-name="stroke" d="M25.3 45c3.3-.7 3.3-1.9 3.3-2.7v-1.2a7.9 7.9 0 0 1-2.6-5.8v-3.7c0-3.7 3.4-5.6 6-5.6s6 1.9 6 5.6v3.7a7.9 7.9 0 0 1-2.7 5.7v1.2c0 .8 0 2 3.5 2.7S42 50 42 50H22s0-4.3 3.3-5z" fill="none" stroke="#2e4369" stroke-linecap="round" stroke-miterlimit="10" stroke-width="2" stroke-linejoin="round"/></svg>