<svg xmlns="http://www.w3.org/2000/svg" viewBox="0 0 64 64" aria-labelledby="title" aria-describedby="desc"><rect data-name="layer1" x="-4.65" y="21.052" width="73.3" height="21.885" rx="10.942" ry="10.942" transform="rotate(-45 32 31.994)" fill="#d6af9d"/><path data-name="layer1" d="M32 47.469L42.441 57.91a10.974 10.974 0 0 0 15.475 0 10.974 10.974 0 0 0 0-15.475L47.475 31.994z" fill="#d6af9d"/><path data-name="opacity" d="M32 47.469L42.441 57.91a10.974 10.974 0 0 0 15.475 0 10.974 10.974 0 0 0 0-15.475L47.475 31.994z" fill="#000064" opacity=".16"/><path data-name="layer1" d="M16.525 31.994L6.084 21.554a10.974 10.974 0 0 1 0-15.475 10.974 10.974 0 0 1 15.475 0L32 16.52z" fill="#d6af9d"/><path data-name="opacity" fill="#000064" opacity=".16" d="M13.025 28.495L28.5 13.02l3.5 3.5-15.475 15.475z"/><rect data-name="opacity" x="25.293" y="21.287" width="17.414" height="17.414" rx="2" ry="2" transform="rotate(-45 34 29.995)" fill="#fff" opacity=".25"/><circle data-name="opacity" cx="32.263" cy="24.66" r="1" transform="rotate(-45 32.263 24.66)" fill="#000064" opacity=".16"/><circle data-name="opacity" cx="39.335" cy="31.731" r="1" transform="rotate(-45 39.335 31.73)" fill="#000064" opacity=".16"/><circle data-name="opacity" cx="25.192" cy="31.731" r="1" transform="rotate(-45 25.193 31.732)" fill="#000064" opacity=".16"/><circle data-name="opacity" cx="32.263" cy="31.731" r="1" transform="rotate(-45 32.264 31.73)" fill="#000064" opacity=".16"/><circle data-name="opacity" cx="32.263" cy="38.802" r="1" transform="rotate(-45 32.264 38.802)" fill="#000064" opacity=".16"/><path data-name="stroke" d="M47.475 31.994l10.441 10.441a10.974 10.974 0 0 1 0 15.475 10.974 10.974 0 0 1-15.475 0L32 47.469M16.525 31.994L6.084 21.554a10.974 10.974 0 0 1 0-15.475 10.974 10.974 0 0 1 15.475 0L32 16.52" fill="none" stroke="#2e4369" stroke-linecap="round" stroke-miterlimit="10" stroke-width="2" stroke-linejoin="round"/><rect data-name="stroke" x="-4.65" y="21.052" width="73.3" height="21.885" rx="10.942" ry="10.942" transform="rotate(-45 32 31.994)" fill="none" stroke="#2e4369" stroke-linecap="round" stroke-miterlimit="10" stroke-width="2" stroke-linejoin="round"/><path data-name="stroke" fill="none" stroke="#2e4369" stroke-linecap="round" stroke-miterlimit="10" stroke-width="2" d="M28.186 43.656l-7.803-7.804m15.431-15.519l7.847 7.848" stroke-linejoin="round"/><circle data-name="stroke" cx="32.263" cy="24.66" r="1" transform="rotate(-45 32.263 24.66)" fill="none" stroke="#2e4369" stroke-linecap="round" stroke-miterlimit="10" stroke-width="2" stroke-linejoin="round"/><circle data-name="stroke" cx="39.335" cy="31.731" r="1" transform="rotate(-45 39.335 31.73)" fill="none" stroke="#2e4369" stroke-linecap="round" stroke-miterlimit="10" stroke-width="2" stroke-linejoin="round"/><circle data-name="stroke" cx="25.192" cy="31.731" r="1" transform="rotate(-45 25.193 31.732)" fill="none" stroke="#2e4369" stroke-linecap="round" stroke-miterlimit="10" stroke-width="2" stroke-linejoin="round"/><circle data-name="stroke" cx="32.263" cy="31.731" r="1" transform="rotate(-45 32.264 31.73)" fill="none" stroke="#2e4369" stroke-linecap="round" stroke-miterlimit="10" stroke-width="2" stroke-linejoin="round"/><circle data-name="stroke" cx="32.263" cy="38.802" r="1" transform="rotate(-45 32.264 38.802)" fill="none" stroke="#2e4369" stroke-linecap="round" stroke-miterlimit="10" stroke-width="2" stroke-linejoin="round"/></svg>