<svg xmlns="http://www.w3.org/2000/svg" viewBox="0 0 64 64" aria-labelledby="title" aria-describedby="desc"><path data-name="layer2" d="M58.978 47.9a12.355 12.355 0 0 0 0-3.8l2.727-2.637a.97.97 0 0 0 .166-1.182l-2.637-4.567a.97.97 0 0 0-1.107-.447l-3.722 1.065a12.247 12.247 0 0 0-3.181-1.8l-.95-3.8a.97.97 0 0 0-.941-.732H44.06a.97.97 0 0 0-.941.735l-.986 3.943a12.252 12.252 0 0 0-2.908 1.722l-3.96-1.133a.97.97 0 0 0-1.106.447l-2.637 4.567a.97.97 0 0 0 .166 1.182L34.7 44.38a12.007 12.007 0 0 0 0 3.24l-3.014 2.914a.97.97 0 0 0-.166 1.182l2.637 4.567a.97.97 0 0 0 1.106.447l3.96-1.133a12.255 12.255 0 0 0 2.909 1.724l.986 3.943a.97.97 0 0 0 .942.736h5.274a.97.97 0 0 0 .941-.734l.95-3.8a12.243 12.243 0 0 0 3.181-1.8l3.722 1.065a.97.97 0 0 0 1.107-.447l2.637-4.567a.97.97 0 0 0-.166-1.182zM47 52a6 6 0 1 1 6-6 6 6 0 0 1-6 6z" fill="#a5b0c8"/><path data-name="layer1" d="M47.29 25.7l-4.815-2.673a17.414 17.414 0 0 0-1.392-5.007l2.868-4.779a1.379 1.379 0 0 0-.208-1.685l-5.3-5.3a1.379 1.379 0 0 0-1.685-.207L31.8 9.023a17.433 17.433 0 0 0-4.659-1.191L24.3 2.71a1.379 1.379 0 0 0-1.563-.663l-7.25 1.942a1.379 1.379 0 0 0-1.022 1.356l.1 5.963a17.083 17.083 0 0 0-3.259 3.259l-5.963-.1a1.379 1.379 0 0 0-1.355 1.022l-1.941 7.244A1.379 1.379 0 0 0 2.71 24.3l5.122 2.843A17.429 17.429 0 0 0 9.023 31.8l-2.974 4.955a1.379 1.379 0 0 0 .207 1.685l5.3 5.3a1.379 1.379 0 0 0 1.685.208l4.779-2.868a17.417 17.417 0 0 0 5.008 1.392L25.7 47.29a1.379 1.379 0 0 0 1.563.663l7.245-1.941.075-.023a12.383 12.383 0 0 1 .117-1.609l-3.014-2.914a.97.97 0 0 1-.166-1.182l2.637-4.567a.97.97 0 0 1 1.106-.447l3.96 1.133a12.252 12.252 0 0 1 2.909-1.724l.986-3.943A.97.97 0 0 1 44.06 30h3.161l.732-2.733a1.379 1.379 0 0 0-.663-1.567zm-15.926 5.66a9 9 0 1 1 0-12.728 9 9 0 0 1 0 12.732z" fill="#7b8baf"/><path data-name="opacity" d="M33.364 15.169a9 9 0 0 0-14.706 2.98 9 9 0 0 1 14.684 9.768l.022-.02a9 9 0 0 0 0-12.728z" fill="#000064" opacity=".2"/><path data-name="opacity" d="M42.274 30.735a.97.97 0 0 0-.941-.735H36.06a.97.97 0 0 0-.941.735l-.986 3.943a12.252 12.252 0 0 0-2.908 1.722l-3.96-1.133a.97.97 0 0 0-1.107.447L24.323 38.9a17.378 17.378 0 0 1-4.3-1.278l-4.779 2.868a1.379 1.379 0 0 1-1.685-.207l-5.3-5.3a1.379 1.379 0 0 1-.207-1.685l2.974-4.958a17.428 17.428 0 0 1-1.191-4.659L4.71 20.828a1.379 1.379 0 0 1-.663-1.563L5.458 14h-.114a1.379 1.379 0 0 0-1.355 1.02l-1.942 7.246a1.379 1.379 0 0 0 .663 1.563l5.122 2.843a17.428 17.428 0 0 0 1.191 4.659l-2.974 4.957a1.379 1.379 0 0 0 .207 1.685l5.3 5.3a1.379 1.379 0 0 0 1.685.207l4.779-2.868a17.417 17.417 0 0 0 5.008 1.392l2.672 4.819a1.368 1.368 0 0 0 .985.677c0 .04.007.08.012.12l-.29.28a1.372 1.372 0 0 0 .855.053l5.753-1.542C33.012 46.275 33 46.139 33 46v-.051l1.51-.4.075-.023a12.38 12.38 0 0 1 .109-1.606l-.715-.691-.378.1-1.921-1.857a.97.97 0 0 1-.166-1.182l2.637-4.567a.97.97 0 0 1 1.106-.447l3.96 1.133a12.252 12.252 0 0 1 2.909-1.724l.563-2.254z" fill="#000064" opacity=".2"/><circle data-name="stroke" cx="47" cy="46" r="6" fill="none" stroke="#2e4369" stroke-linecap="round" stroke-miterlimit="10" stroke-width="2" stroke-linejoin="round"/><path data-name="stroke" d="M58.978 47.9a12.355 12.355 0 0 0 0-3.8l2.727-2.637a.97.97 0 0 0 .166-1.182l-2.637-4.567a.97.97 0 0 0-1.107-.447l-3.722 1.065a12.24 12.24 0 0 0-3.181-1.8l-.95-3.8a.97.97 0 0 0-.941-.732H44.06a.97.97 0 0 0-.941.735l-.986 3.943a12.253 12.253 0 0 0-2.908 1.722l-3.96-1.133a.97.97 0 0 0-1.106.447l-2.637 4.567a.97.97 0 0 0 .166 1.182L34.7 44.38a12.007 12.007 0 0 0 0 3.24l-3.014 2.914a.97.97 0 0 0-.166 1.182l2.637 4.567a.97.97 0 0 0 1.106.447l3.96-1.133a12.253 12.253 0 0 0 2.909 1.724l.986 3.943a.97.97 0 0 0 .942.736h5.274a.97.97 0 0 0 .941-.734l.95-3.8a12.24 12.24 0 0 0 3.181-1.8l3.722 1.065a.97.97 0 0 0 1.107-.447l2.637-4.567a.97.97 0 0 0-.166-1.182z" fill="none" stroke="#2e4369" stroke-linecap="round" stroke-miterlimit="10" stroke-width="2" stroke-linejoin="round"/><circle data-name="stroke" cx="25" cy="25" r="9" transform="rotate(-45 25 25)" fill="none" stroke="#2e4369" stroke-linecap="round" stroke-miterlimit="10" stroke-width="2" stroke-linejoin="round"/><path data-name="stroke" d="M47.221 30l.732-2.733a1.379 1.379 0 0 0-.663-1.567l-4.815-2.673a17.414 17.414 0 0 0-1.392-5.007l2.868-4.779a1.379 1.379 0 0 0-.208-1.685l-5.3-5.3a1.379 1.379 0 0 0-1.685-.207L31.8 9.023a17.432 17.432 0 0 0-4.659-1.191L24.3 2.71a1.379 1.379 0 0 0-1.563-.663l-7.25 1.942a1.379 1.379 0 0 0-1.022 1.356l.1 5.963a17.079 17.079 0 0 0-3.259 3.259l-5.963-.1a1.379 1.379 0 0 0-1.356 1.022l-1.94 7.244A1.379 1.379 0 0 0 2.71 24.3l5.122 2.843A17.429 17.429 0 0 0 9.023 31.8l-2.974 4.955a1.379 1.379 0 0 0 .207 1.685l5.3 5.3a1.379 1.379 0 0 0 1.685.208l4.779-2.868a17.419 17.419 0 0 0 5.008 1.392L25.7 47.29a1.379 1.379 0 0 0 1.563.663l7.245-1.941.075-.023" fill="none" stroke="#2e4369" stroke-linecap="round" stroke-miterlimit="10" stroke-width="2" stroke-linejoin="round"/></svg>