<svg xmlns="http://www.w3.org/2000/svg" viewBox="0 0 64 64" aria-labelledby="title" aria-describedby="desc"><circle data-name="layer2" cx="25" cy="25" r="9" transform="rotate(-45 25 25)" fill="none" stroke="#202020" stroke-linecap="round" stroke-miterlimit="10" stroke-width="2" stroke-linejoin="round"/><path data-name="layer2" d="M47.221 30l.732-2.733a1.379 1.379 0 0 0-.663-1.567l-4.815-2.673a17.414 17.414 0 0 0-1.392-5.007l2.868-4.779a1.379 1.379 0 0 0-.208-1.685l-5.3-5.3a1.379 1.379 0 0 0-1.685-.207L31.8 9.023a17.432 17.432 0 0 0-4.659-1.191L24.3 2.71a1.379 1.379 0 0 0-1.563-.663l-7.25 1.942a1.379 1.379 0 0 0-1.022 1.356l.1 5.963a17.079 17.079 0 0 0-3.259 3.259l-5.963-.1a1.379 1.379 0 0 0-1.356 1.022l-1.94 7.244A1.379 1.379 0 0 0 2.71 24.3l5.122 2.843A17.429 17.429 0 0 0 9.023 31.8l-2.974 4.955a1.379 1.379 0 0 0 .207 1.685l5.3 5.3a1.379 1.379 0 0 0 1.685.208l4.779-2.868a17.419 17.419 0 0 0 5.008 1.392L25.7 47.29a1.379 1.379 0 0 0 1.563.663l7.245-1.941.075-.023" fill="none" stroke="#202020" stroke-linecap="round" stroke-miterlimit="10" stroke-width="2" stroke-linejoin="round"/><circle data-name="layer1" cx="47" cy="46" r="6" fill="none" stroke="#202020" stroke-linecap="round" stroke-miterlimit="10" stroke-width="2" stroke-linejoin="round"/><path data-name="layer1" d="M58.978 47.9a12.355 12.355 0 0 0 0-3.8l2.727-2.637a.97.97 0 0 0 .166-1.182l-2.637-4.567a.97.97 0 0 0-1.107-.447l-3.722 1.065a12.24 12.24 0 0 0-3.181-1.8l-.95-3.8a.97.97 0 0 0-.941-.732H44.06a.97.97 0 0 0-.941.735l-.986 3.943a12.253 12.253 0 0 0-2.908 1.722l-3.96-1.133a.97.97 0 0 0-1.106.447l-2.637 4.567a.97.97 0 0 0 .166 1.182L34.7 44.38a12.007 12.007 0 0 0 0 3.24l-3.014 2.914a.97.97 0 0 0-.166 1.182l2.637 4.567a.97.97 0 0 0 1.106.447l3.96-1.133a12.253 12.253 0 0 0 2.909 1.724l.986 3.943a.97.97 0 0 0 .942.736h5.274a.97.97 0 0 0 .941-.734l.95-3.8a12.24 12.24 0 0 0 3.181-1.8l3.722 1.065a.97.97 0 0 0 1.107-.447l2.637-4.567a.97.97 0 0 0-.166-1.182z" fill="none" stroke="#202020" stroke-linecap="round" stroke-miterlimit="10" stroke-width="2" stroke-linejoin="round"/></svg>