<svg viewBox="0 0 64 64" xmlns="http://www.w3.org/2000/svg" aria-labelledby="title" aria-describedby="desc"><path fill="#f4475d" d="M31 24c-2.45-2.994-6.954-8.035-4.982-20.982C21.61 4.752 18.9 8.568 17 13c-3 7 .755 15.444 6 22 7.359 9.2 18.948 24.32 20.759 26.685a.248.248 0 0 0 .42-.043L51 48S40 35 31 24z" data-name="layer1"/><path fill="#f4475d" d="M31.467 45.759a2734.512 2734.512 0 0 0-12.292 15.925.248.248 0 0 1-.42-.043L11.934 48s4.985-5.891 10.988-13.1zM40.012 34.9c5.2-6.542 8.907-14.937 5.922-21.9-1.9-4.426-4.595-8.187-8.991-9.925 1.969 12.941-2.56 17.931-5.009 20.925l-.467.57z" data-name="layer1"/><path fill="#f4475d" d="M25.6 10.988A18.3 18.3 0 0 1 37.354 11a36.548 36.548 0 0 0-.411-7.921 14.785 14.785 0 0 0-10.925-.057 36.745 36.745 0 0 0-.418 7.966z" data-name="layer1"/><path opacity=".2" fill="#000064" d="M31.467 45.759a2734.512 2734.512 0 0 0-12.292 15.925.248.248 0 0 1-.42-.043L11.934 48s4.985-5.891 10.988-13.1zM25.6 10.988A18.3 18.3 0 0 1 37.354 11a36.548 36.548 0 0 0-.411-7.921 14.785 14.785 0 0 0-10.925-.057 36.745 36.745 0 0 0-.418 7.966z" data-name="opacity"/><path stroke-width="2" stroke-miterlimit="10" stroke-linecap="round" stroke="#2e4369" fill="none" d="M25.568 11a18.308 18.308 0 0 1 11.8 0M22.922 34.9c-6 7.206-10.988 13.1-10.988 13.1l6.821 13.642a.248.248 0 0 0 .42.043c1.192-1.557 6.621-8.641 12.292-15.925" data-name="stroke" stroke-linejoin="round"/><path stroke-width="2" stroke-miterlimit="10" stroke-linecap="round" stroke="#2e4369" fill="none" d="M40.012 34.9c5.2-6.542 8.907-14.937 5.922-21.9-1.9-4.426-4.595-8.187-8.991-9.925 1.969 12.941-2.56 17.931-5.009 20.925l-.467.57m5.476-21.495a14.784 14.784 0 0 0-10.925-.057" data-name="stroke" stroke-linejoin="round"/><path stroke-width="2" stroke-miterlimit="10" stroke-linecap="round" stroke="#2e4369" fill="none" d="M31 24c-2.45-2.994-6.954-8.035-4.982-20.982C21.61 4.752 18.9 8.568 17 13c-3 7 .755 15.444 6 22 7.359 9.2 18.948 24.32 20.759 26.685a.248.248 0 0 0 .42-.043L51 48S40 35 31 24z" data-name="stroke" stroke-linejoin="round"/></svg>