<svg xmlns="http://www.w3.org/2000/svg" viewBox="0 0 64 64" aria-labelledby="title" aria-describedby="desc"><path data-name="layer2" d="M40.906 19.625a8.812 8.812 0 1 0-8.813-8.812 8.8 8.8 0 0 0 8.813 8.812z" fill="none" stroke="#202020" stroke-linecap="round" stroke-miterlimit="10" stroke-width="2" stroke-linejoin="round"/><path data-name="layer1" d="M38.094 33.313c12.007.72 18.2-.951 19.76-1.455a.492.492 0 0 0 .332-.551l-1.158-7.363a.5.5 0 0 0-.626-.4c-2.887.834-16.675 4.267-23.369-4.1-.375-.094-.937.375-.937.375-7.721 6.7-4 25.12-25.832 26.5a.5.5 0 0 0-.474.528c.256 3.212.823 7.438 1.019 8.857a.5.5 0 0 0 .561.424c2.9-.4 17.848-2.872 24.351-11.655a74.457 74.457 0 0 1 14.292 17.12.5.5 0 0 0 .664.187l7.342-3.882a.493.493 0 0 0 .236-.615c-.917-2.383-5.963-14.615-16.161-23.97z" fill="none" stroke="#202020" stroke-linecap="round" stroke-miterlimit="10" stroke-width="2" stroke-linejoin="round"/></svg>