<svg xmlns="http://www.w3.org/2000/svg" viewBox="0 0 64 64" aria-labelledby="title" aria-describedby="desc"><path data-name="layer1" d="M61.5 19.9a5 5 0 0 0-6.6-2.4L40 24.4l-23.7-12a4.1 4.1 0 0 0-2.8-.1l-2.9 1.5a1.1 1.1 0 0 0-.2 1.7L24 31.9l-9.5 4.4-8.3-3.4s-1.8-.9-2.5-.3l-1.4 1.3s-.6.8 0 1.4l11.2 11.3c.4.4 1.1.7 2.5 0l43-20.1a5 5 0 0 0 2.5-6.6z" fill="#d1deff"/><path data-name="opacity" d="M61.5 19.9a5 5 0 0 0-.9-1.3 2.9 2.9 0 0 1-1.7 3.4L33.8 34l2.1-7-23-14.4-2.3 1.2a1.1 1.1 0 0 0-.2 1.7L24 31.9h-.1l-1.7 7.5-7.3 3.6L4.5 32.4a1 1 0 0 0-.7.2L2.3 34s-.6.8 0 1.4l11.2 11.2c.4.4 1.1.7 2.5 0l43-20.1a5 5 0 0 0 2.5-6.6z" fill="#000064" opacity=".1"/><path data-name="stroke" d="M61.5 19.9a5 5 0 0 0-6.6-2.4L40 24.4l-23.7-12a4.1 4.1 0 0 0-2.8-.1l-2.9 1.5a1.1 1.1 0 0 0-.2 1.7L24 31.9l-9.5 4.4-8.3-3.4s-1.8-.9-2.5-.3l-1.4 1.3s-.6.8 0 1.4l11.2 11.3c.4.4 1.1.7 2.5 0l43-20.1a5 5 0 0 0 2.5-6.6zM54 53V39m6 6.2L54 39l-6 6.2" fill="none" stroke="#2e4369" stroke-linecap="round" stroke-linejoin="round" stroke-width="2"/></svg>