<svg xmlns="http://www.w3.org/2000/svg" viewBox="0 0 64 64" aria-labelledby="title" aria-describedby="desc"><path data-name="layer1" d="M26.3 57.4L42 37h15a5 5 0 1 0 0-10H42L26.3 6.6S25.2 5 24 5h-4.2a1.4 1.4 0 0 0-1.3.7c-.2.5.3 1.9.5 2.4L25.2 27H14l-5.5-7.3a1.6 1.6 0 0 0-1.4-.7H4c-.4 0-1.3.1-.8 1.4S8 32 8 32 3.7 42.2 3.2 43.6 3.6 45 4 45h3.1a1.6 1.6 0 0 0 1.4-.7L14 37h11.2L19 55.9c-.2.5-.7 1.9-.5 2.4a1.3 1.3 0 0 0 1.3.7H24c1.2 0 2.3-1.6 2.3-1.6z" fill="#d1deff"/><path data-name="opacity" d="M61.9 31.4c-.1 2.7-4.2 2.7-5.6 2.7H11l-3-2-3.3 7.7h7.2L14 37h11.2l-1.6 4.9h14.6L42 37h15a5 5 0 0 0 5-5 4.9 4.9 0 0 0-.1-.6z" fill="#000064" opacity=".1"/><path data-name="stroke" d="M26.3 57.4L42 37h15a5 5 0 1 0 0-10H42L26.3 6.6S25.2 5 24 5h-4.2a1.4 1.4 0 0 0-1.3.7c-.2.5.3 1.9.5 2.4L25.2 27H14l-5.5-7.3a1.6 1.6 0 0 0-1.4-.7H4c-.4 0-1.3.1-.8 1.4S8 32 8 32 3.7 42.2 3.2 43.6 3.6 45 4 45h3.1a1.6 1.6 0 0 0 1.4-.7L14 37h11.2L19 55.9c-.2.5-.7 1.9-.5 2.4a1.3 1.3 0 0 0 1.3.7H24c1.2 0 2.3-1.6 2.3-1.6z" fill="none" stroke="#2e4369" stroke-linecap="round" stroke-linejoin="round" stroke-width="2"/></svg>