<svg xmlns="http://www.w3.org/2000/svg" viewBox="0 0 64 64" aria-labelledby="title" aria-describedby="desc"><path data-name="layer1" d="M61.6 21.9a5 5 0 0 0-6.6-2.4l-14.9 6.9-23.7-12a4.1 4.1 0 0 0-2.8-.1l-2.9 1.5a1.1 1.1 0 0 0-.2 1.7l13.6 16.4-9.5 4.4-8.3-3.4s-1.8-.9-2.5-.3L2.3 36s-.6.8 0 1.4l11.3 11.2c.4.4 1.1.7 2.5 0l43-20.1a5 5 0 0 0 2.5-6.6z" fill="#d1deff"/><path data-name="opacity" d="M61.6 21.9a5 5 0 0 0-.9-1.3A2.9 2.9 0 0 1 59 24L33.9 36l2.1-7-23-14.4-2.3 1.2a1.1 1.1 0 0 0-.2 1.7l13.6 16.4H24l-1.7 7.5L15 45 4.5 34.4a1 1 0 0 0-.7.2L2.3 36s-.6.8 0 1.4l11.3 11.2c.4.4 1.1.7 2.5 0l43-20.1a5 5 0 0 0 2.5-6.6z" fill="#000064" opacity=".1"/><path data-name="stroke" d="M61.6 21.9a5 5 0 0 0-6.6-2.4l-14.9 6.9-23.7-12a4.1 4.1 0 0 0-2.8-.1l-2.9 1.5a1.1 1.1 0 0 0-.2 1.7l13.6 16.4-9.5 4.4-8.3-3.4s-1.8-.9-2.5-.3L2.3 36s-.6.8 0 1.4l11.3 11.2c.4.4 1.1.7 2.5 0l43-20.1a5 5 0 0 0 2.5-6.6z" fill="none" stroke="#2e4369" stroke-linecap="round" stroke-linejoin="round" stroke-width="2"/></svg>