<svg xmlns="http://www.w3.org/2000/svg" viewBox="0 0 64 64" aria-labelledby="title" aria-describedby="desc"><path data-name="layer1" d="M56.1 45.5l-14.9-7-6-25.8a4.1 4.1 0 0 0-1.7-2.2l-3.1-1.3a1.1 1.1 0 0 0-1.4 1l-3.8 20.9-9.4-4.4-2.8-8.6s-.4-2-1.4-2.1l-2-.3s-1 .1-1 .9L7.2 32.5c-.1.5.2 1.3 1.6 1.9l43 20.1a5 5 0 1 0 4.2-9.1z" fill="#d1deff"/><path data-name="opacity" d="M8.6 16.6L7.2 32.5c-.1.5.2 1.3 1.6 1.9l43 20.1a4.9 4.9 0 0 0 7-3.6c-1.6 3-7-1-7-1l-22-10.6 6.2-3-3-26-2.6-1a1.1 1.1 0 0 0-1.4 1l-3.8 20.8-6.1 2.9-7.1-3.2V16.2l-1-.2-1.3-.2s-1 0-1.1.8z" fill="#000064" opacity=".1"/><path data-name="stroke" d="M56.1 45.5l-14.9-7-6-25.8a4.1 4.1 0 0 0-1.7-2.2l-3.1-1.3a1.1 1.1 0 0 0-1.4 1l-3.8 20.9-9.4-4.4-2.8-8.6s-.4-2-1.4-2.1l-2-.3s-1 .1-1 .9L7.2 32.5c-.1.5.2 1.3 1.6 1.9l43 20.1a5 5 0 1 0 4.2-9.1z" fill="none" stroke="#2e4369" stroke-linecap="round" stroke-linejoin="round" stroke-width="2"/></svg>