<svg xmlns="http://www.w3.org/2000/svg" viewBox="0 0 64 64" aria-labelledby="title" aria-describedby="desc"><path data-name="layer2" d="M32 33c-4 0-7.9-4.5-8-4.6a10.8 10.8 0 0 0-1 4.6c0 5.5 4 10 9 10s9-4.5 9-10a10.8 10.8 0 0 0-1-4.6c-.1.1-4.1 4.6-8 4.6z" fill="#dde5f4"/><path data-name="layer3" d="M32 33c3.9 0 7.9-4.5 8-4.6a8.9 8.9 0 0 0-8-5.4 8.9 8.9 0 0 0-8 5.4c.1.1 4 4.6 8 4.6z" fill="#c3d6e0"/><path data-name="layer2" d="M61.1 31H40.8a10.9 10.9 0 0 1 .2 2 10.7 10.7 0 0 1-1.8 6h.1l4.8-.3a4 4 0 0 1 7.6-1.4c4.8-1.2 8.9-2.9 10.3-4.6-.1-.1.6-1.7-.9-1.7zm-37.9 0H3c-1.5 0-.9 1.6-.9 1.6 1.4 1.7 5.5 3.4 10.3 4.6a4 4 0 0 1 7.6 1.5l4.8.3a10.7 10.7 0 0 1-1.8-6 10.9 10.9 0 0 1 .2-2z" fill="#dde5f4"/><circle data-name="layer1" cx="16" cy="39" r="4" fill="#a3b8df"/><circle data-name="layer1" cx="48" cy="39" r="4" fill="#a3b8df"/><path data-name="opacity" d="M23.2 31H3c-1.5 0-.9 1.6-.9 1.6 1.4 1.7 5.5 3.4 10.3 4.6a4 4 0 0 1 7.6 1.5l4.8.3a10.7 10.7 0 0 1-1.8-6 10.9 10.9 0 0 1 .2-2z" fill="#000064" opacity=".15"/><path data-name="opacity" d="M26.1 30.4a18.8 18.8 0 0 1-2.1-2 10.8 10.8 0 0 0-1 4.6c0 5.5 4 10 9 10a8.2 8.2 0 0 0 4-1c-7.2.6-10.1-6-9.9-11.6z" fill="#000064" opacity=".15"/><path data-name="opacity" d="M24 28.4a18.8 18.8 0 0 0 2.1 2c.1-2.9 1.1-5.6 2.8-6.8a9.4 9.4 0 0 0-4.9 4.8z" fill="#000064" opacity=".15"/><path data-name="opacity" d="M38.2 30.1s2.8 2.1 2.6 4.5V33c0-.3 0-.7-.1-1v-.9a10.8 10.8 0 0 0-.8-2.7 18.6 18.6 0 0 1-1.7 1.7z" fill="#fff" opacity=".25"/><path data-name="opacity" d="M34 32.6a18.7 18.7 0 0 0 3.2-1.7h.2l.8-.6a18.6 18.6 0 0 0 1.8-1.9 8.9 8.9 0 0 0-8-5.4s4 5.3 2 9.6z" fill="#fff" opacity=".5"/><path data-name="opacity" d="M61.9 32.6s.6-1.6-.9-1.6H40.8c.1.3.1.6.1.9a9.8 9.8 0 0 1 .1 1V35c.2-.3 1-2 2-2h18.6z" fill="#fff" opacity=".25"/><path data-name="stroke" fill="none" stroke="#2e4369" stroke-linecap="round" stroke-linejoin="round" stroke-width="2" d="M32 11v12M12.4 37.3c-4.8-1.3-8.9-3-10.3-4.7 0 0-.6-1.6.9-1.6h20.2m1.6 8l-4.8-.3m31.6-1.4c4.8-1.2 8.9-2.9 10.3-4.6 0 0 .6-1.6-.9-1.6H40.9M39.2 39l4.8-.3"/><circle data-name="stroke" cx="16" cy="39" r="4" fill="none" stroke="#2e4369" stroke-linecap="round" stroke-linejoin="round" stroke-width="2"/><circle data-name="stroke" cx="48" cy="39" r="4" fill="none" stroke="#2e4369" stroke-linecap="round" stroke-linejoin="round" stroke-width="2"/><ellipse data-name="stroke" cx="32" cy="33" rx="9" ry="10" fill="none" stroke="#2e4369" stroke-linecap="round" stroke-linejoin="round" stroke-width="2"/><path data-name="stroke" d="M24 28.4s4 4.6 8 4.6 8-4.6 8-4.6" fill="none" stroke="#2e4369" stroke-linecap="round" stroke-linejoin="round" stroke-width="2"/></svg>