<svg xmlns="http://www.w3.org/2000/svg" viewBox="0 0 64 64" aria-labelledby="title" aria-describedby="desc"><ellipse data-name="layer3" cx="32" cy="30" rx="30" ry="16" fill="#f27e7c"/><path data-name="layer2" d="M15.6 16.6S12.1 10 6 10v12a27.5 27.5 0 0 1 9.6-5.4zM6 37.9V50c6.1 0 9.6-6.6 9.6-6.6A27.6 27.6 0 0 1 6 37.9z" fill="#a3b8df"/><path data-name="layer1" d="M19.7 44.5l2.4 7.5a2.7 2.7 0 0 0 2.3 2h13.5a3.7 3.7 0 0 0 3.2-1.7l3.6-7.9A52.7 52.7 0 0 1 32 46a52.9 52.9 0 0 1-12.3-1.5z" fill="#7b8baf"/><path data-name="opacity" d="M6 38v12c6.1 0 9.6-6.6 9.6-6.6A27.6 27.6 0 0 1 6 37.9zm38.7 6.5A52.7 52.7 0 0 1 32 46a52.9 52.9 0 0 1-12.3-1.4l1.8 5.5a53.9 53.9 0 0 0 10.5 1 54.1 54.1 0 0 0 10.1-.9l2.6-5.7z" fill="#000064" opacity=".2"/><path data-name="opacity" d="M32 46c13.4 0 24.7-4.7 28.6-11.1-4.7 2.8-11 5.3-28.6 5.3S2 34.4 2.1 28.8A8.7 8.7 0 0 0 2 30c0 8.8 13.4 16 30 16z" fill="#000064" opacity=".15"/><path data-name="opacity" d="M32 14C18.6 14 7.3 18.7 3.4 25.1c4.7-2.8 11-5.3 28.6-5.3s30 5.7 29.9 11.3A8.7 8.7 0 0 0 62 30c0-8.8-13.4-16-30-16z" fill="#fff" opacity=".15"/><path data-name="stroke" d="M15.6 16.6S12.1 10 6 10v12m9.6 21.4S12.1 50 6 50V37.9m38.7 6.6l-3.6 7.9a3.7 3.7 0 0 1-3.2 1.6H24.5a2.7 2.7 0 0 1-2.3-2l-2.5-7.4" fill="none" stroke="#2e4369" stroke-linecap="round" stroke-linejoin="round" stroke-width="2"/><ellipse data-name="stroke" cx="32" cy="30" rx="30" ry="16" fill="none" stroke="#2e4369" stroke-linecap="round" stroke-linejoin="round" stroke-width="2"/></svg>