<svg xmlns="http://www.w3.org/2000/svg" viewBox="0 0 64 64" aria-labelledby="title" aria-describedby="desc"><path data-name="layer2" d="M32 17a15 15 0 1 0 15 15 15 15 0 0 0-15-15zm4.561 20.561a1.5 1.5 0 0 1-2.121 0L30 33.121V24.5a1.5 1.5 0 0 1 3 0v7.379l3.561 3.561a1.5 1.5 0 0 1 0 2.121z" fill="#202020"/><path data-name="layer1" d="M54.5 34a1.5 1.5 0 0 1-1.5-1.5 21.99 21.99 0 0 0-8.624-16.845 1.5 1.5 0 1 1 1.813-2.391A24.748 24.748 0 0 1 56 32.5a1.5 1.5 0 0 1-1.5 1.5zm-45 0A1.5 1.5 0 0 1 8 32.5a24.748 24.748 0 0 1 9.807-19.231 1.5 1.5 0 0 1 1.813 2.391A21.99 21.99 0 0 0 11 32.5 1.5 1.5 0 0 1 9.5 34zm53 0a1.5 1.5 0 0 1-1.5-1.5A30 30 0 0 0 50.037 9.933a1.5 1.5 0 0 1 1.9-2.322A33.074 33.074 0 0 1 64 32.5a1.5 1.5 0 0 1-1.5 1.5zm-61 0A1.5 1.5 0 0 1 0 32.5 33.09 33.09 0 0 1 11.962 7.693a1.5 1.5 0 0 1 1.909 2.314A30.018 30.018 0 0 0 3 32.5 1.5 1.5 0 0 1 1.5 34z" fill="#202020"/></svg>