<svg xmlns="http://www.w3.org/2000/svg" viewBox="0 0 64 64" aria-labelledby="title" aria-describedby="desc"><path data-name="layer2" d="M22 1.035A16.287 16.287 0 0 0 1.035 22zm20 0A16.287 16.287 0 0 1 62.965 22zM11.318 53.854l-6.732 6.732a2 2 0 1 0 2.828 2.828l6.8-6.8a28.255 28.255 0 0 1-2.896-2.76zm41.364 0a28.255 28.255 0 0 1-2.9 2.758l6.8 6.8a2 2 0 0 0 2.828-2.828z" fill="#202020"/><path data-name="layer1" d="M32 9a26 26 0 1 0 26 26A26 26 0 0 0 32 9zm10.5 29H30V17.5a1.5 1.5 0 0 1 3 0V35h9.5a1.5 1.5 0 0 1 0 3z" fill="#202020"/></svg>