<svg xmlns="http://www.w3.org/2000/svg" viewBox="0 0 64 64" aria-labelledby="title" aria-describedby="desc"><circle data-name="layer1" cx="32" cy="32" r="14" fill="#e1f4f3"/><path data-name="opacity" d="M32 18a13.969 13.969 0 0 0-10.847 5.153 14 14 0 0 1 19.694 19.694A14 14 0 0 0 32 18z" fill="#000064" opacity=".15"/><path data-name="opacity" d="M33 37a1.993 1.993 0 0 1-1.414-.586L29 33.828V27a2 2 0 0 1 4 0v5.172l1.414 1.414A2 2 0 0 1 33 37z" fill="#000064" opacity=".15"/><circle data-name="stroke" cx="32" cy="32" r="14" fill="none" stroke="#2e4369" stroke-linecap="round" stroke-miterlimit="10" stroke-width="2" stroke-linejoin="round"/><path data-name="stroke" fill="none" stroke="#2e4369" stroke-linecap="round" stroke-miterlimit="10" stroke-width="2" d="M32 24v8l4 4m9.282-21.54A21.966 21.966 0 0 1 54 32m-44 0a21.965 21.965 0 0 1 8.714-17.536m32.273-5.692A29.941 29.941 0 0 1 62 32M2 32A29.939 29.939 0 0 1 12.917 8.851" stroke-linejoin="round"/></svg>