<svg xmlns="http://www.w3.org/2000/svg" viewBox="0 0 64 64" aria-labelledby="title" aria-describedby="desc"><path data-name="layer3" d="M37 2H27v10h10z" fill="#f9d28c"/><path data-name="layer1" d="M11.1 54c.6 5.9 4 8 5.9 8h30c1.9 0 5.3-2.1 5.9-8" fill="#c66d80"/><path data-name="layer2" d="M53 52c0-4.8-3.2-10.7-7.6-16H18.6C14.2 41.3 11 47.2 11 52a18.9 18.9 0 0 0 .1 2h41.8a19 19 0 0 0 .1-2z" fill="#d5e2f4"/><path data-name="layer1" d="M27 12v16a49.8 49.8 0 0 0-8.4 8h26.8a49.8 49.8 0 0 0-8.4-8V12" fill="#c66d80"/><path data-name="opacity" d="M36.8 12V2H34v10zm11.9 42h-7c-.3 5.9-1.9 8-2.9 8h5.4c1.6 0 4.1-2.1 4.5-8zm-6.9-2c0 .7 0 1.4-.1 2h7c0-.6.1-1.3.1-2 0-4.8-2.4-10.7-5.7-16h-5c2.2 5.3 3.7 11.2 3.7 16zm-5-40H34v16a47.3 47.3 0 0 1 4.1 8h5a44.8 44.8 0 0 0-6.3-8z" fill="#fff" opacity=".5"/><path data-name="opacity" d="M30 2h-3v10h3zM17.1 54h-6c.6 5.9 4 8 5.9 8h6c-1.9 0-5.3-2.1-5.9-8zm-.1-2c0-4.8 3.2-10.7 7.6-16h-6C14.2 41.3 11 47.2 11 52a18.9 18.9 0 0 0 .1 2h6a18.9 18.9 0 0 1-.1-2zm13-22V12h-3v16a49.8 49.8 0 0 0-8.4 8h6a72.5 72.5 0 0 1 5.4-6z" fill="#101129" opacity=".25"/><path data-name="stroke" d="M37 2H27v10h10zM11.1 54c.6 5.9 4 8 5.9 8h30c1.9 0 5.3-2.1 5.9-8m.1-2c0-4.8-3.2-10.7-7.6-16H18.6C14.2 41.3 11 47.2 11 52a18.9 18.9 0 0 0 .1 2h41.8a19 19 0 0 0 .1-2zM27 12v16a49.8 49.8 0 0 0-8.4 8h26.8a49.8 49.8 0 0 0-8.4-8V12" fill="none" stroke="#2f446a" stroke-linecap="round" stroke-linejoin="round" stroke-width="2"/></svg>