<svg xmlns="http://www.w3.org/2000/svg" viewBox="0 0 64 64" aria-labelledby="title" aria-describedby="desc"><path data-name="layer2" d="M11.1 54c.6 5.9 4 8 5.9 8h30c1.9 0 5.3-2.1 5.9-8m-7.5-18a49.8 49.8 0 0 0-8.4-8V12m-10 0v16a49.8 49.8 0 0 0-8.4 8" fill="none" stroke="#202020" stroke-linecap="round" stroke-linejoin="round" stroke-width="2"/><path data-name="layer1" d="M37 2H27v10h10zm16 50c0-4.8-3.2-10.7-7.6-16H18.6C14.2 41.3 11 47.2 11 52a19 19 0 0 0 .1 2h41.8a19 19 0 0 0 .1-2z" fill="none" stroke="#202020" stroke-linecap="round" stroke-linejoin="round" stroke-width="2"/></svg>