<svg xmlns="http://www.w3.org/2000/svg" viewBox="0 0 64 64" aria-labelledby="title" aria-describedby="desc"><path data-name="layer1" fill="#202020" d="M24.5 38h3L26 33l-1.5 5z"/><path data-name="layer1" d="M54.2 2H9.8A7.8 7.8 0 0 0 2 9.8v44.4A7.8 7.8 0 0 0 9.8 62h44.4a7.8 7.8 0 0 0 7.8-7.8V9.8A7.8 7.8 0 0 0 54.2 2zM32.6 47.9H32a2 2 0 0 1-1.9-1.4L28.7 42h-5.4l-1.4 4.6a2 2 0 1 1-3.8-1.1l6-20a2 2 0 0 1 3.8 0l6 20a2 2 0 0 1-1.3 2.4zm7.4.1a4 4 0 0 1-4-4V26a2 2 0 1 1 4 0v18a2 2 0 0 1 0 4zm10-16h-2v12a2 2 0 0 1 0 4 4 4 0 0 1-4-4V32a2 2 0 0 1 0-4v-2a2 2 0 1 1 4 0v2h2a2 2 0 0 1 0 4z" fill="#202020"/></svg>