<svg xmlns="http://www.w3.org/2000/svg" viewBox="0 0 64 64" aria-labelledby="title" aria-describedby="desc"><circle data-name="layer2" cx="16" cy="54" r="5" fill="#202020"/><circle data-name="layer2" cx="55" cy="54" r="5" fill="#202020"/><path data-name="layer1" d="M0 49v3a1 1 0 0 0 1 1h8.08a6.994 6.994 0 0 1 2.041-4zm61.92 4H63a1 1 0 0 0 1-1v-3h-4.121a6.994 6.994 0 0 1 2.041 4zM42 49H20.879a6.994 6.994 0 0 1 2.041 4h25.16a6.994 6.994 0 0 1 2.041-4zm-7-38a1 1 0 0 0 1-1V6a1 1 0 0 0-2 0v4a1 1 0 0 0 1 1zm-6.293 1.121a1 1 0 0 0 1.414-1.414l-2.828-2.828a1 1 0 0 0-1.414 1.414zm11.879.293a1 1 0 0 0 .707-.293l2.828-2.828a1 1 0 0 0-1.414-1.414l-2.828 2.828a1 1 0 0 0 .707 1.707zm20.679 25.674L58 37l-3.246-8.114A3 3 0 0 0 51.969 27H42v-6a2 2 0 0 0-2-2h-2v-3a2 2 0 0 0-2-2h-2a2 2 0 0 0-2 2v3H2a2 2 0 0 0-2 2v26h64v-5.117a4 4 0 0 0-2.735-3.795zM27 36h-4v4h-4v-4h-4v-4h4v-4h4v4h4zm17 1v-8h7.969a1 1 0 0 1 .929.629L55.846 37z" fill="#202020"/></svg>