<svg xmlns="http://www.w3.org/2000/svg" viewBox="0 0 64 64" aria-labelledby="title" aria-describedby="desc"><path data-name="layer2" d="M32 19v-3a2 2 0 0 1 2-2h2a2 2 0 0 1 2 2v3m-3-9V6m-5.586 5.414l-2.828-2.828m14 2.828l2.828-2.828M29 30h-4v-4h-6v4h-4v6h4v4h6v-4h4v-6z" fill="none" stroke="#202020" stroke-linecap="round" stroke-miterlimit="10" stroke-width="2" stroke-linejoin="round"/><path data-name="layer1" fill="none" stroke="#202020" stroke-linecap="round" stroke-miterlimit="10" stroke-width="2" d="M42 37.042h14" stroke-linejoin="round"/><circle data-name="layer1" cx="16" cy="52" r="4" fill="none" stroke="#202020" stroke-linecap="round" stroke-miterlimit="10" stroke-width="2" stroke-linejoin="round"/><circle data-name="layer1" cx="53" cy="52" r="4" fill="none" stroke="#202020" stroke-linecap="round" stroke-miterlimit="10" stroke-width="2" stroke-linejoin="round"/><path data-name="layer1" fill="none" stroke="#202020" stroke-linecap="round" stroke-miterlimit="10" stroke-width="2" d="M2 47h60m-49.873 4H3a1 1 0 0 1-1-1V21a2 2 0 0 1 2-2h36a2 2 0 0 1 2 2v30H19.873m29.254 0H42" stroke-linejoin="round"/><path data-name="layer1" d="M42 27h7.969a3 3 0 0 1 2.785 1.886L56 37l3.265 1.088A4 4 0 0 1 62 41.883V50a1 1 0 0 1-1 1h-4.127" fill="none" stroke="#202020" stroke-linecap="round" stroke-miterlimit="10" stroke-width="2" stroke-linejoin="round"/></svg>