<svg xmlns="http://www.w3.org/2000/svg" viewBox="0 0 64 64" aria-labelledby="title" aria-describedby="desc"><path data-name="layer1" d="M49.424 34c-.1-8.1 6.581-12 6.88-12.2a14.581 14.581 0 0 0-11.667-6.3c-4.986-.5-9.672 2.9-12.265 2.9-2.493 0-6.382-2.9-10.57-2.8a15.75 15.75 0 0 0-13.162 8c-5.584 9.8-1.4 24.4 4.088 32.3 2.692 3.9 5.883 8.3 10.071 8.1 4.088-.2 5.584-2.6 10.47-2.6s6.282 2.6 10.57 2.5c4.388-.1 7.08-4 9.772-7.9A31.77 31.77 0 0 0 58 46.9 13.956 13.956 0 0 1 49.424 34zm-8.077-23.8A14.32 14.32 0 0 0 44.638 0a14.075 14.075 0 0 0-9.373 4.8c-2.094 2.4-3.889 6.2-3.39 9.9 3.589.3 7.279-1.8 9.472-4.5z" fill="#282828"/></svg>