<svg xmlns="http://www.w3.org/2000/svg" viewBox="0 0 64 64" aria-labelledby="title" aria-describedby="desc"><path data-name="layer2" d="M37 14c0-6 2-12 12-12 0 6-2 12-12 12z" fill="#68963f"/><path data-name="layer1" d="M33 20c-3.4 0-4.9-2-12-2S7 24.8 7 36s8.2 26 16.9 26c5.3 0 5.7-4 8.6-4s5.2 4 8.7 4S57 52.5 57 36 46.6 18 43 18s-6.1 2-10 2z" fill="#f16262"/><path data-name="opacity" d="M11 34c0-7.2 2.9-12.6 6.8-15.5C12 20.2 7 26.5 7 36c0 11.2 8.2 26 16.9 26a7.3 7.3 0 0 0 5.3-2.1h-1.3C19.2 60 11 45.2 11 34zm34.2 26c-3.5 0-6.3-4-8.7-4s-2.3 1-3.5 2.1c2.3.5 5 3.9 8.2 3.9a8.9 8.9 0 0 0 4.3-2z" fill="#101129" opacity=".25"/><ellipse data-name="opacity" cx="45" cy="33" rx="5" ry="7" fill="#fff" opacity=".25"/><path data-name="stroke" d="M33 20c-3.4 0-4.9-2-12-2S7 24.8 7 36s8.2 26 16.9 26c5.3 0 5.7-4 8.6-4s5.2 4 8.7 4S57 52.5 57 36 46.6 18 43 18s-6.1 2-10 2z" fill="none" stroke="#2f446a" stroke-linecap="round" stroke-linejoin="round" stroke-width="2"/><path data-name="stroke" d="M23 6c5.2 0 10 3.8 10 12v2m4-6c0-6 2-12 12-12 0 6-2 12-12 12z" fill="none" stroke="#2f446a" stroke-linecap="round" stroke-linejoin="round" stroke-width="2"/></svg>