<svg xmlns="http://www.w3.org/2000/svg" viewBox="0 0 64 64" aria-labelledby="title" aria-describedby="desc"><path data-name="layer1" d="M56.6 32a1 1 0 0 1 1-1h6.375A31.988 31.988 0 0 0 33 .025V6.4a1 1 0 0 1-2 0V.025A31.988 31.988 0 0 0 .025 31H6.4a1 1 0 0 1 0 2H.025A31.988 31.988 0 0 0 31 63.975V57.6a1 1 0 0 1 2 0v6.375A31.988 31.988 0 0 0 63.975 33H57.6a1 1 0 0 1-1-1zm-6.473-11.739L32.1 38.287 19.316 27.828a1.5 1.5 0 1 1 1.9-2.322l10.684 8.74L48.006 18.14a1.5 1.5 0 0 1 2.121 2.121z" fill="#202020"/></svg>