<svg xmlns="http://www.w3.org/2000/svg" viewBox="0 0 64 64" aria-labelledby="title" aria-describedby="desc"><path data-name="layer2" d="M2 55a2 2 0 0 0 2 2h56a2 2 0 0 0 2-2V13H24V7H2z" fill="#f8da82"/><path data-name="opacity" d="M48 54V13h-6v41H8a2 2 0 0 1-2-2V7H2v48a2 2 0 0 0 2 2h56a2 2 0 0 0 2-2v-1z" fill="#000064" opacity=".15"/><path data-name="layer1" fill="#d6dde5" d="M44 19h8v10h-8z"/><path data-name="stroke" fill="none" stroke="#2e4369" stroke-linecap="round" stroke-miterlimit="10" stroke-width="2" d="M44 19h8v10h-8zm4-6v6m0 10v28m4-18h-4m0 4h-4m4-8h-4m8 12h-4m0 4h-4" stroke-linejoin="round"/><path data-name="stroke" d="M2 55a2 2 0 0 0 2 2h56a2 2 0 0 0 2-2V13H24V7H2z" fill="none" stroke="#2e4369" stroke-linecap="round" stroke-miterlimit="10" stroke-width="2" stroke-linejoin="round"/></svg>