<svg xmlns="http://www.w3.org/2000/svg" viewBox="0 0 64 64" aria-labelledby="title" aria-describedby="desc"><path data-name="layer1" fill="none" stroke="#202020" stroke-miterlimit="10" stroke-width="2" d="M48 16v34m4-26h-4m0 4h-4m8 12h-4m0 4h-4m8-12h-4m0 4h-4" stroke-linejoin="round" stroke-linecap="round"/><path data-name="layer2" d="M52 54h7a3 3 0 0 0 3-3V16H10v35a3 3 0 0 1-3 3" fill="none" stroke="#202020" stroke-miterlimit="10" stroke-width="2" stroke-linejoin="round" stroke-linecap="round"/><path data-name="layer2" d="M54 16V8H20V4H2v47a3 3 0 0 0 3 3h39" fill="none" stroke="#202020" stroke-miterlimit="10" stroke-width="2" stroke-linejoin="round" stroke-linecap="round"/><path data-name="layer1" fill="none" stroke="#202020" stroke-miterlimit="10" stroke-width="2" d="M44 50h8v10h-8z" stroke-linejoin="round" stroke-linecap="round"/></svg>