<svg xmlns="http://www.w3.org/2000/svg" viewBox="0 0 64 64" aria-labelledby="title" aria-describedby="desc"><path data-name="layer2" d="M35 46.1a11.6 11.6 0 0 1 0-4.4L32 40l4-7 3.1 1.8a12 12 0 0 1 3.7-2.1V29h8v3.7a12 12 0 0 1 3.2 1.7V19H10v29a3 3 0 0 1-3 3h26.4l-1.7-3z" fill="#f8da82"/><path data-name="layer2" d="M10 48V19h38v-8H20V7H2v41a3 3 0 0 0 3 3h2a3 3 0 0 0 3-3z" fill="#f8da82"/><path data-name="opacity" d="M10 48V19h38v-8H20V7H2v41a3 3 0 0 0 3 3h2a3 3 0 0 0 3-3z" fill="#000064" opacity=".15"/><path data-name="opacity" fill="#fff" opacity=".2" d="M10 19h44v3H10z"/><path data-name="opacity" d="M31.7 48l3.3-1.9a11.6 11.6 0 0 1 0-4.4L32 40l2.6-4.6-.6.4-3-1.8-4 7 3 1.7a11.6 11.6 0 0 0 0 4.4L26.7 49l1.1 2h5.6zm6.1-14.3l-.4.2 1.7 1a12 12 0 0 1 3.7-2.1V30h-5z" fill="#000064" opacity=".15"/><path data-name="layer1" d="M58.6 46.1a11.8 11.8 0 0 0 0-4.3l3.1-1.8-4-6.9-3.1 1.8a12 12 0 0 0-3.7-2.1V29h-8v3.7a12 12 0 0 0-3.7 2.1L36 33l-4 7 3 1.7a11.6 11.6 0 0 0 0 4.4L31.7 48l4 6.9 3.3-1.8a12 12 0 0 0 3.8 2.2V59h8v-3.7a12 12 0 0 0 3.9-2.3l3.3 2 4-7zM47 49a5 5 0 1 1 5-5 5 5 0 0 1-5 5z" fill="#8fa9d8"/><path data-name="stroke" d="M54 34.4V19H10v29a3 3 0 0 1-3 3" fill="none" stroke="#2e4369" stroke-linecap="round" stroke-miterlimit="10" stroke-width="2" stroke-linejoin="round"/><path data-name="stroke" d="M48 19v-8H20V7H2v41a3 3 0 0 0 3 3h28.4" fill="none" stroke="#2e4369" stroke-linecap="round" stroke-miterlimit="10" stroke-width="2" stroke-linejoin="round"/><circle data-name="stroke" cx="47" cy="44" r="5" fill="none" stroke="#2e4369" stroke-linecap="round" stroke-miterlimit="10" stroke-width="2" stroke-linejoin="round"/><path data-name="stroke" d="M62 48l-3.4-2a11.8 11.8 0 0 0 0-4.3l3.1-1.7-4-6.9-3.1 1.8a12 12 0 0 0-3.7-2.1V29h-8v3.7a12 12 0 0 0-3.7 2.1L36 33l-4 7 3 1.7a11.6 11.6 0 0 0 0 4.4L31.7 48l4 6.9 3.3-1.8a12 12 0 0 0 3.8 2.2V59h8v-3.7a12 12 0 0 0 3.9-2.3l3.3 2z" fill="none" stroke="#2e4369" stroke-linecap="round" stroke-miterlimit="10" stroke-width="2" stroke-linejoin="round"/></svg>