<svg viewBox="0 0 64 64" xmlns="http://www.w3.org/2000/svg" aria-labelledby="title" aria-describedby="desc"><path d="M55 40.991V3H7v37.991l24 10.005 24-10.005z" fill="#64738f" data-name="layer2"/><path d="M31 50.996L7 40.991v10.003l24 10.005 24-10.005V40.991L31 50.996zm0-18.47l-9.887 7.168 3.809-11.552L15 21.028h12.244L31 9.472l3.758 11.556H47l-9.918 7.114 3.809 11.552L31 32.526z" fill="#fc6" data-name="layer1"/><path d="M7 3v47.994l24 10.005V3H7z" opacity=".15" fill="#000064" data-name="opacity"/><path d="M55 50.994L31 60.999 7 50.994V3h48v47.994z" stroke-width="2" stroke-linejoin="round" stroke-linecap="round" stroke="#2e4369" fill="none" data-name="stroke"/><path d="M55 40.991L31 50.996 7 40.991m24-8.465l-9.887 7.168 3.809-11.552L15 21.028h12.244L31 9.472l3.758 11.556H47l-9.918 7.114 3.809 11.552L31 32.526z" stroke-width="2" stroke-linejoin="round" stroke-linecap="round" stroke="#2e4369" fill="none" data-name="stroke"/></svg>