<svg xmlns="http://www.w3.org/2000/svg" viewBox="0 0 64 64" aria-labelledby="title" aria-describedby="desc"><path data-name="layer1" d="M62 0H2a2 2 0 0 0-2 2v60a2 2 0 0 0 2 2h60a2 2 0 0 0 2-2V2a2 2 0 0 0-2-2zM27.993 49.997H12.005a2 2 0 1 1 0-4h15.988a2 2 0 0 1 0 4zm0-8H12.005a2 2 0 1 1 0-4h15.988a2 2 0 0 1 0 4zm0-8H12.001a2 2 0 0 1 0-4h15.992a2 2 0 0 1 0 4zm0-8H12.005a2 2 0 0 1 0-4h15.988a2 2 0 0 1 0 4zm0-8H16.007a2 2 0 1 1 0-4h11.986a2 2 0 0 1 0 4zm18.003 32h-9.985a2 2 0 0 1 0-4h9.985a2 2 0 0 1 0 4zm6.003-8H36.011a2 2 0 0 1 0-4h15.988a2 2 0 0 1 0 4zm0-8H36.007a2 2 0 0 1 0-4h15.992a2 2 0 1 1 0 4zm0-8H36.011a2 2 0 0 1 0-4h15.988a2 2 0 0 1 0 4zm0-8H36.011a2 2 0 1 1 0-4h15.988a2 2 0 0 1 0 4z" fill="#202020"/></svg>