<svg xmlns="http://www.w3.org/2000/svg" viewBox="0 0 64 64" aria-labelledby="title" aria-describedby="desc"><path data-name="layer1" d="M2 2v60h60V2zm26 48H12a2 2 0 0 1 0-4h16a2 2 0 0 1 0 4zm0-8H12a2 2 0 0 1 0-4h16a2 2 0 0 1 0 4zm0-8H12a2 2 0 0 1 0-4h16a2 2 0 0 1 0 4zm0-8H12a2 2 0 0 1 0-4h16a2 2 0 0 1 0 4zm0-8H16a2 2 0 0 1 0-4h12a2 2 0 1 1 0 4zm18 32H36a2 2 0 0 1 0-4h10a2 2 0 0 1 0 4zm6-8H36a2 2 0 0 1 0-4h16a2 2 0 0 1 0 4zm0-8H36a2 2 0 0 1 0-4h16a2 2 0 0 1 0 4zm0-8H36a2 2 0 0 1 0-4h16a2 2 0 0 1 0 4zm0-8H36a2 2 0 0 1 0-4h16a2 2 0 0 1 0 4z" fill="#202020"/></svg>