<svg xmlns="http://www.w3.org/2000/svg" viewBox="0 0 64 64" aria-labelledby="title" aria-describedby="desc"><path data-name="layer1" d="M62 0H2a2 2 0 0 0-2 2v60a2 2 0 0 0 2 2h60a2 2 0 0 0 2-2V2a2 2 0 0 0-2-2zM19.997 49.001h-1.535l.767 1.33a2 2 0 1 1-3.464 2L14.997 51l-.768 1.33a2 2 0 1 1-3.464-2l.767-1.329H9.997a2 2 0 1 1 0-4h1.537l-.769-1.331a2 2 0 1 1 3.464-2l.768 1.33.768-1.33a2 2 0 1 1 3.464 2L18.46 45h1.537a2 2 0 0 1 0 4zm0-16.004h-1.535l.767 1.33a2 2 0 1 1-3.464 2l-.768-1.33-.768 1.33a2 2 0 0 1-3.464-2l.767-1.33H9.997a2 2 0 0 1 0-4h1.537l-.769-1.331a2 2 0 0 1 3.464-2l.768 1.33.768-1.33a2 2 0 0 1 3.464 2l-.769 1.331h1.537a2 2 0 0 1 0 4zm0-15.999h-1.535l.767 1.33a2 2 0 1 1-3.464 2l-.768-1.33-.768 1.33a2 2 0 0 1-3.464-2l.767-1.33H9.997a2 2 0 0 1 0-4h1.537l-.769-1.331a2 2 0 1 1 3.464-2l.768 1.33.768-1.33a2 2 0 0 1 3.464 2l-.769 1.331h1.537a2 2 0 0 1 0 4zM55 49H25.996a2 2 0 0 1 0-4H55a2 2 0 0 1 0 4zm0-16.001H25.996a2 2 0 1 1 0-4H55a2 2 0 0 1 0 4zm0-16.003H25.996a2 2 0 0 1 0-4H55a2 2 0 0 1 0 4z" fill="#202020"/></svg>