<svg xmlns="http://www.w3.org/2000/svg" viewBox="0 0 64 64" aria-labelledby="title" aria-describedby="desc"><path data-name="layer2" fill="#ebf5ff" d="M39 22V8H11v54h42V22H39z"/><path data-name="layer1" fill="#fff" d="M53 22L39 8v14h14z"/><path data-name="opacity" fill="#000064" opacity=".15" d="M34.1 8v21H53v-7H39V8h-4.9z"/><path data-name="stroke" fill="none" stroke="#2e4369" stroke-linecap="round" stroke-miterlimit="10" stroke-width="2" d="M11 8v54h42V22L39 8H11z" stroke-linejoin="round"/><path data-name="stroke" fill="none" stroke="#2e4369" stroke-linecap="round" stroke-miterlimit="10" stroke-width="2" d="M39 8v14h14m-26-7v5a4 4 0 0 1-4 4 4 4 0 0 1-4-4V7a5 5 0 0 1 5-5 5 5 0 0 1 5 5v1" stroke-linejoin="round"/></svg>