<svg xmlns="http://www.w3.org/2000/svg" viewBox="0 0 64 64" aria-labelledby="title" aria-describedby="desc"><path data-name="layer1" d="M54.5 29.3A16 16 0 0 0 31.9 6.7L8.3 30.2a2 2 0 0 0 2.9 2.8L34.7 9.5a12 12 0 0 1 17 17L22.5 55.7a8 8 0 1 1-11.3-11.3L37.5 18a4 4 0 1 1 5.7 5.7L22.5 44.4a2 2 0 0 0 2.8 2.8L46 26.5a8 8 0 1 0-11.3-11.3L8.3 41.5a12 12 0 0 0 17 17z" fill="#92b5e4"/><path data-name="stroke" d="M54.5 29.3A16 16 0 0 0 31.9 6.7L8.3 30.2a2 2 0 0 0 2.9 2.8L34.7 9.5a12 12 0 0 1 17 17L22.5 55.7a8 8 0 1 1-11.3-11.3L37.5 18a4 4 0 1 1 5.7 5.7L22.5 44.4a2 2 0 0 0 2.8 2.8L46 26.5a8 8 0 1 0-11.3-11.3L8.3 41.5a12 12 0 0 0 17 17z" fill="none" stroke="#2e4369" stroke-miterlimit="10" stroke-width="2" stroke-linejoin="round" stroke-linecap="round"/></svg>