<svg xmlns="http://www.w3.org/2000/svg" viewBox="0 0 64 64" aria-labelledby="title" aria-describedby="desc"><path data-name="layer3" d="M38 16V6H7a5 5 0 0 0 0 10z" fill="#fff"/><path data-name="opacity" d="M7 6a5 5 0 0 0-5 5 4.9 4.9 0 0 0 .3 1.5A5 5 0 0 1 7 9h31V6z" fill="#000064" opacity=".15"/><path data-name="layer2" d="M2 11v40a5 5 0 0 0 5 5h35V16H7a5 5 0 0 1-5-5" fill="#9cf"/><path data-name="opacity" d="M7 16a5 5 0 0 1-5-5v40a5 5 0 0 0 5 5h1V16z" fill="#000064" opacity=".15"/><path data-name="layer1" d="M30 24l-9 8h-6a1 1 0 0 0-1 1v6a1 1 0 0 0 1 1h6l9 8z" fill="#fce349"/><path data-name="stroke" d="M49 24a14.7 14.7 0 0 1 0 22.1m5.5-27a20.6 20.6 0 0 1 .1 31.9M30 24l-9 8h-6a1 1 0 0 0-1 1v6a1 1 0 0 0 1 1h6l9 8z" fill="none" stroke="#2e4369" stroke-linecap="round" stroke-miterlimit="10" stroke-width="2" stroke-linejoin="round"/><path data-name="stroke" d="M2 11v40a5 5 0 0 0 5 5h35V16H7A5 5 0 0 1 7 6h31v10" fill="none" stroke="#2e4369" stroke-linecap="round" stroke-miterlimit="10" stroke-width="2" stroke-linejoin="round"/></svg>