<svg xmlns="http://www.w3.org/2000/svg" viewBox="0 0 64 64" aria-labelledby="title" aria-describedby="desc"><path data-name="layer2" d="M32 62a30 30 0 1 1 28.9-22M32 62c15.5 0 22.8-9.3 16.7-15.4" fill="none" stroke="#202020" stroke-miterlimit="10" stroke-width="2" stroke-linejoin="round" stroke-linecap="round"/><path data-name="layer1" d="M49.1 40c.8.5 2.1 1.3 1.8 3a8.6 8.6 0 0 1-8.1 6c-5.4 0-12-4.2-17.8-10.1S15 26.5 15 21.1a8.6 8.6 0 0 1 6-8.1c1.7-.2 2.4 1 3 1.8l4.1 6.2a2.9 2.9 0 0 1-.8 3.9c-1.7 1.4-3.6 2.2 2.9 8.7s7.3 4.7 8.7 2.9a2.9 2.9 0 0 1 3.9-.8z" fill="none" stroke="#202020" stroke-miterlimit="10" stroke-width="2" stroke-linejoin="round" stroke-linecap="round"/></svg>