<svg xmlns="http://www.w3.org/2000/svg" viewBox="0 0 64 64" aria-labelledby="title" aria-describedby="desc"><circle data-name="layer3" cx="16" cy="42" r="6" fill="#7b8baf"/><circle data-name="layer3" cx="52" cy="42" r="6" fill="#7b8baf"/><path data-name="layer2" d="M37.4 16H26C15 16 8.4 22.8 5 28h41l-5.5-10a3.7 3.7 0 0 0-3.1-2z" fill="#c3d6e0"/><path data-name="layer1" d="M49 28H5a29.3 29.3 0 0 0-3 6v8h8a6 6 0 0 1 12 0h24a6 6 0 0 1 12 0h4v-7c0-2.3-2-7-13-7z" fill="#ed4c49"/><circle data-name="opacity" cx="16" cy="42" r="3" fill="#000064" opacity=".2"/><circle data-name="opacity" cx="52" cy="42" r="3" fill="#000064" opacity=".2"/><path data-name="opacity" fill="#fff" opacity=".5" d="M32.5 28H38l5.2-5.2-2-3.5-8.7 8.7zm-5.8-12l-12 12h8.7l12-12h-8.7z"/><path data-name="opacity" d="M7.8 39v-2.1c0-3.3 1.7-6.8 3-8.9H5a29.3 29.3 0 0 0-3 6v8h8a6 6 0 0 1 .8-3zm13.4 0a6 6 0 0 1 .8 3h24a6 6 0 0 1 .8-3zm36 0a6 6 0 0 1 .8 3h4v-3z" fill="#000064" opacity=".15"/><path data-name="stroke" d="M5 28h44c11 0 13 4.7 13 7v7h-4m-36 0h24" fill="none" stroke="#2e4369" stroke-linecap="round" stroke-linejoin="round" stroke-width="2"/><path data-name="stroke" d="M10 42H2v-8s6-18 24-18h11.4a3.7 3.7 0 0 1 3.1 2L46 28m-36-5.9L2 18" fill="none" stroke="#2e4369" stroke-linecap="round" stroke-linejoin="round" stroke-width="2"/><circle data-name="stroke" cx="16" cy="42" r="6" fill="none" stroke="#2e4369" stroke-linecap="round" stroke-linejoin="round" stroke-width="2"/><circle data-name="stroke" cx="52" cy="42" r="6" fill="none" stroke="#2e4369" stroke-linecap="round" stroke-linejoin="round" stroke-width="2"/></svg>