<svg xmlns="http://www.w3.org/2000/svg" viewBox="0 0 64 64" aria-labelledby="title" aria-describedby="desc"><path data-name="layer1" fill="#202020" d="M8 18h48v18H8zm48-4V6a4 4 0 0 0-4-4H12a4 4 0 0 0-4 4v8zM29.1 6H35a2 2 0 0 1 0 4h-5.9a2 2 0 0 1 0-4zM8 40v14h48V40zm13.9 8h-5.8a2 2 0 0 1 0-4H22a2 2 0 0 1 0 4zM48 48h-5.9a2 2 0 0 1 0-4H48a2 2 0 0 1 0 4z"/><path data-name="layer2" d="M10 60a2 2 0 0 0 2 2h6a2 2 0 0 0 2-2v-3H10z" fill="#202020"/><rect data-name="layer1" x="10" y="54" width="10" fill="#202020"/><path data-name="layer2" d="M44 60a2 2 0 0 0 2 2h6a2 2 0 0 0 2-2v-3H44z" fill="#202020"/><rect data-name="layer1" x="44" y="54" width="10" fill="#202020"/></svg>