<svg xmlns="http://www.w3.org/2000/svg" viewBox="0 0 64 64" aria-labelledby="title" aria-describedby="desc"><path data-name="layer1" d="M44 38.1V28H10v24h23.2A11.9 11.9 0 0 1 44 38.1z" fill="#ebf5ff"/><path data-name="layer2" d="M52 40.3V8.7L45.3 2H42v16.3a1.7 1.7 0 0 1-1.7 1.7H23.7a1.7 1.7 0 0 1-1.7-1.7V2H2v50h8V28h34v10.1h1a11.9 11.9 0 0 1 7 2.2z" fill="#7f95ad"/><path data-name="layer1" d="M23.7 20h16.6a1.7 1.7 0 0 0 1.7-1.7V2H22v16.3a1.7 1.7 0 0 0 1.7 1.7z" fill="#ebf5ff"/><path data-name="opacity" d="M38.2 40.2a12 12 0 0 0-9.8 8.8H6V2H2v50h31.2a11.9 11.9 0 0 1 5-11.8z" fill="#000064" opacity=".15"/><path data-name="stroke" fill="none" stroke="#2e4369" stroke-linecap="round" stroke-miterlimit="10" stroke-width="2" d="M33.5 52H2V2h43.3L52 8.7v31.5" stroke-linejoin="round"/><path data-name="stroke" fill="none" stroke="#2e4369" stroke-linecap="round" stroke-miterlimit="10" stroke-width="2" d="M44 38.1V28H10v24m24-42v4m8-12v16.3a1.7 1.7 0 0 1-1.7 1.7H23.7a1.7 1.7 0 0 1-1.7-1.7V2m30.4 48l4.8 4.9L62 50m-24 0l-4.8-4.8-4.8 4.8" stroke-linejoin="round"/><path data-name="stroke" d="M50.9 60.6a11.8 11.8 0 0 1-14.1-2.1A12.1 12.1 0 0 1 34 46m5.6-6.5a11.8 11.8 0 0 1 14.1 2.1A12.1 12.1 0 0 1 56.4 54" fill="none" stroke="#2e4369" stroke-linecap="round" stroke-miterlimit="10" stroke-width="2" stroke-linejoin="round"/></svg>