<svg xmlns="http://www.w3.org/2000/svg" viewBox="0 0 64 64" aria-labelledby="title" aria-describedby="desc"><path data-name="layer2" d="M29.1 8H35M20 54v6a2 2 0 0 1-2 2h-6a2 2 0 0 1-2-2v-6m44 0v6a2 2 0 0 1-2 2h-6a2 2 0 0 1-2-2v-6" fill="none" stroke="#202020" stroke-linecap="round" stroke-linejoin="round" stroke-width="2"/><path data-name="layer1" d="M16.1 46H22m20.1 0H48M8 16h48M8 38h48m0 16V6a4 4 0 0 0-4-4H12a4 4 0 0 0-4 4v48z" fill="none" stroke="#202020" stroke-linecap="round" stroke-linejoin="round" stroke-width="2"/></svg>