<svg xmlns="http://www.w3.org/2000/svg" viewBox="0 0 64 64" aria-labelledby="title" aria-describedby="desc"><path data-name="layer4" d="M62 50V34.2a5 5 0 0 0-1.3-3.5l-2-2C57.5 27.5 56 26 54 26H10c-2 0-3.4 1.5-4.7 2.7l-2 2A5 5 0 0 0 2 34.2V50z" fill="#a3b8df"/><rect data-name="layer3" x="10" y="36" width="10" height="6" rx="2" ry="2" fill="#a0d6ef"/><rect data-name="layer3" x="44" y="36" width="10" height="6" rx="2" ry="2" fill="#a0d6ef"/><path data-name="layer2" d="M16 50v7a3 3 0 0 1-3 3H9a3 3 0 0 1-3-3v-7zm42 0v7a3 3 0 0 1-3 3h-4a3 3 0 0 1-3-3v-7z" fill="#7b8baf"/><path data-name="layer1" d="M54 26a4.3 4.3 0 0 1 2 .5s-1-12.2-1.4-15.2A5.7 5.7 0 0 0 49.1 6H14.9a5.7 5.7 0 0 0-5.5 5.3C9 14.3 8 26.5 8 26.5a4.3 4.3 0 0 1 2-.5z" fill="#c3d6e0"/><path data-name="opacity" d="M26.9 6L8.1 24.8v1.7H8a4.3 4.3 0 0 1 2-.5h11.1l20-20zm25.4 1.1L33.5 26h8.8l12.5-12.6-.2-2.1a6.2 6.2 0 0 0-2.3-4.2z" fill="#fff" opacity=".5"/><path data-name="opacity" d="M3.3 30.7A5 5 0 0 0 2 34.2V50h60v-2.9H6.9V32.9c0-2.8 2.5-6.9 3.1-6.9-2 0-3.4 1.5-4.7 2.7z" fill="#000064" opacity=".15"/><path data-name="opacity" d="M58.7 28.7C57.5 27.5 56 26 54 26H10c-.4 0-1.6 1.8-2.4 3.9h46.7c1.5 0 6 .6 7.2 2a4.2 4.2 0 0 0-.8-1.2z" fill="#fff" opacity=".2"/><path data-name="opacity" fill="#000064" opacity=".2" d="M6 50h10v3.94H6zm42 0h10v3.94H48z"/><path data-name="stroke" d="M8 26.5s1-12.2 1.4-15.2A5.7 5.7 0 0 1 14.9 6h34.2a5.7 5.7 0 0 1 5.5 5.3c.4 3 1.4 15.2 1.4 15.2M16 50v7a3 3 0 0 1-3 3H9a3 3 0 0 1-3-3v-7m52 0v7a3 3 0 0 1-3 3h-4a3 3 0 0 1-3-3v-7" fill="none" stroke="#2e4369" stroke-linecap="round" stroke-linejoin="round" stroke-width="2"/><path data-name="stroke" d="M62 50V34.2a5 5 0 0 0-1.3-3.5l-2-2C57.5 27.5 56 26 54 26H10c-2 0-3.4 1.5-4.7 2.7l-2 2A5 5 0 0 0 2 34.2V50z" fill="none" stroke="#2e4369" stroke-linecap="round" stroke-linejoin="round" stroke-width="2"/><rect data-name="stroke" x="10" y="36" width="10" height="6" rx="2" ry="2" fill="none" stroke="#2e4369" stroke-linecap="round" stroke-linejoin="round" stroke-width="2"/><rect data-name="stroke" x="44" y="36" width="10" height="6" rx="2" ry="2" fill="none" stroke="#2e4369" stroke-linecap="round" stroke-linejoin="round" stroke-width="2"/><path data-name="stroke" fill="none" stroke="#2e4369" stroke-linecap="round" stroke-linejoin="round" stroke-width="2" d="M28 40h8"/></svg>