<svg xmlns="http://www.w3.org/2000/svg" viewBox="0 0 64 64" aria-labelledby="title" aria-describedby="desc"><circle data-name="layer2" cx="17" cy="42" r="6" fill="#202020"/><circle data-name="layer2" cx="52" cy="42" r="6" fill="#202020"/><path data-name="layer1" d="M1.1 19.8l7.4 3.9-.3.3h36.6l-3.3-6a3.7 3.7 0 0 0-3.1-2H26a23.1 23.1 0 0 0-14.4 4.8l-8.7-4.6a2 2 0 1 0-1.8 3.6zM51 28H5l-.2.2A29.2 29.2 0 0 0 2 34v8h4.9a10 10 0 1 1 20 0h15a10 10 0 1 1 20 0H64v-7c0-2.3-2-7-13-7z" fill="#202020"/></svg>