<svg xmlns="http://www.w3.org/2000/svg" viewBox="0 0 64 64" aria-labelledby="title" aria-describedby="desc"><path data-name="layer2" d="M62.4 44.6L45 27.2 27.6 44.6a2 2 0 1 0 2.8 2.8l2.6-2.6V62h8V50h8v12h8V44.8l2.6 2.6a2 2 0 1 0 2.8-2.8z" fill="#202020"/><path data-name="layer1" d="M39 2H23v16h16zm-4 10a2 2 0 0 1-4 0V8a2 2 0 0 1 4 0z" fill="#202020"/><path data-name="layer1" d="M42.2 24.3a4 4 0 0 1 5.7 0l3.1 3.2V8.7L44.3 2H43v16.3a3.7 3.7 0 0 1-3.7 3.7H22.7a3.7 3.7 0 0 1-3.7-3.7V2H1v50h6V26h33.5z" fill="#202020"/><path data-name="layer1" d="M24.8 50.3a6 6 0 0 1 0-8.5L36.5 30H11v22h17.8a6 6 0 0 1-4-1.7z" fill="#202020"/></svg>