<svg xmlns="http://www.w3.org/2000/svg" viewBox="0 0 64 64" aria-labelledby="title" aria-describedby="desc"><path data-name="layer3" fill="#ebf5ff" d="M44 32v-4H10v24h24V42l10-10z"/><path data-name="layer4" d="M52 36V8.7L45.3 2H42v16.3a1.7 1.7 0 0 1-1.7 1.7H23.7a1.7 1.7 0 0 1-1.7-1.7V2H2v50h8V28h34v4l2-2z" fill="#7f95ad"/><path data-name="layer3" d="M23.7 20h16.6a1.7 1.7 0 0 0 1.7-1.7V2H22v16.3a1.7 1.7 0 0 0 1.7 1.7z" fill="#ebf5ff"/><path data-name="opacity" fill="#000064" opacity=".15" d="M41 31L29 43v6H6V2H2v50h32V42l9-9-2-2z"/><path data-name="layer2" fill="#fffeee" d="M46 30L34 42v20h24V42L46 30z"/><path data-name="layer1" fill="#a06f60" d="M42 50h8v12h-8z"/><path data-name="stroke" fill="none" stroke="#2e4369" stroke-linecap="round" stroke-miterlimit="10" stroke-width="2" d="M34 52H2V2h43.3L52 8.7V36" stroke-linejoin="round"/><path data-name="stroke" fill="none" stroke="#2e4369" stroke-linecap="round" stroke-miterlimit="10" stroke-width="2" d="M44 32v-4H10v24m24-42v4m8-12v16.3a1.7 1.7 0 0 1-1.7 1.7H23.7a1.7 1.7 0 0 1-1.7-1.7V2" stroke-linejoin="round"/><path data-name="stroke" fill="none" stroke="#2e4369" stroke-linecap="round" stroke-miterlimit="10" stroke-width="2" d="M30 46l16-16 16 16" stroke-linejoin="round"/><path data-name="stroke" fill="none" stroke="#2e4369" stroke-linecap="round" stroke-miterlimit="10" stroke-width="2" d="M34 42v20h24V42" stroke-linejoin="round"/><path data-name="stroke" fill="none" stroke="#2e4369" stroke-linecap="round" stroke-miterlimit="10" stroke-width="2" d="M42 62V50h8" stroke-linejoin="round"/></svg>