<svg xmlns="http://www.w3.org/2000/svg" viewBox="0 0 64 64" aria-labelledby="title" aria-describedby="desc"><path data-name="layer1" d="M58 39h-2v-6.4a5.9 5.9 0 0 1-2 .3h-8v6h2v8h-2v4a2 2 0 1 1-4 0V47h-2v-8h2v-6H22.1v6h2v8h-2v4a2 2 0 1 1-4 0v-4h-2v-8h2v-6H10a5.9 5.9 0 0 1-2-.3v6.5H6a4 4 0 0 0-4 4V59a4 4 0 0 0 4 4h52a4 4 0 0 0 4-4V43a4 4 0 0 0-4-4zM10 29h8.1V11H12a4 4 0 0 0-4 4v12a2 2 0 0 0 2 2zm12.1 0H42V11a10 10 0 1 0-20 0h.1zM32 5a6 6 0 0 1 6 6H26a6 6 0 0 1 6-6zm24 22V15a4 4 0 0 0-4-4h-6v18h8a2 2 0 0 0 2-2z" fill="#202020"/></svg>