<svg xmlns="http://www.w3.org/2000/svg" viewBox="0 0 64 64" aria-labelledby="title" aria-describedby="desc"><path data-name="layer3" d="M56 26v32a4 4 0 0 1-4 4H12a4 4 0 0 1-4-4V26" fill="#996"/><rect data-name="layer1" x="8" y="10" width="48" height="19.98" rx="4" ry="4" fill="#bfac77"/><path data-name="layer2" fill="#d1deff" d="M24.1 46h-8v-8h8v8zM48 46h-8v-8h8v8z"/><path data-name="layer1" d="M8 58V38H6a4 4 0 0 0-4 4v16a4 4 0 0 0 4 4h6a4 4 0 0 1-4-4zm50-20h-2v20a4 4 0 0 1-4 4h6a4 4 0 0 0 4-4V42a4 4 0 0 0-4-4z" fill="#bfac77"/><path data-name="opacity" d="M52 10H12a4 4 0 0 0-4 4v4a4 4 0 0 1 4-4h40a4 4 0 0 1 4 4v-4a4 4 0 0 0-4-4z" fill="#fff" opacity=".2"/><path data-name="opacity" d="M18 59a4 4 0 0 1-4-4V35h36a4 4 0 0 0 4-4v-1.6a4 4 0 0 1-2 .6H12a4 4 0 0 1-4-4v32a4 4 0 0 0 4 4h41.7l.3-.2.3-.2.2-.2.3-.3h.2a4 4 0 0 0 .9-1.6z" fill="#000064" opacity=".15"/><path data-name="opacity" fill="#000064" opacity=".15" d="M16.1 41h-2v8h8v-3h-6v-5zM40 41h-2v8h8v-3h-6v-5zM8 58V38H6a4 4 0 0 0-4 4v16a4 4 0 0 0 4 4h6a4 4 0 0 1-4-4z"/><path data-name="stroke" d="M56 26v32a4 4 0 0 1-4 4H12a4 4 0 0 1-4-4V26" fill="none" stroke="#2e4369" stroke-linecap="round" stroke-linejoin="round" stroke-width="2"/><path data-name="stroke" d="M12 62H6a4 4 0 0 1-4-4V42a4 4 0 0 1 4-4h2m44 24h6a4 4 0 0 0 4-4V42a4 4 0 0 0-4-4h-2" fill="none" stroke="#2e4369" stroke-linecap="round" stroke-linejoin="round" stroke-width="2"/><rect data-name="stroke" x="8" y="10" width="48" height="19.98" rx="4" ry="4" fill="none" stroke="#2e4369" stroke-linecap="round" stroke-linejoin="round" stroke-width="2"/><path data-name="stroke" d="M24 10a8 8 0 1 1 16 0M24.1 46h-8v-8h8v8zM48 46h-8v-8h8v8zm-27.9-8V10.2m0 35.8v4M44 38V10.2M44 46v4" fill="none" stroke="#2e4369" stroke-linecap="round" stroke-linejoin="round" stroke-width="2"/></svg>