<svg xmlns="http://www.w3.org/2000/svg" viewBox="0 0 64 64" aria-labelledby="title" aria-describedby="desc"><path data-name="layer2" d="M46 32L30 62h32zm1.4 25.4a2 2 0 0 1-1.4.6 2 2 0 0 1-1.4-.6 2 2 0 0 1 2.8-2.8 2 2 0 0 1 0 2.8zM46 52a2 2 0 0 1-2-2v-6a2 2 0 1 1 4 0v6a2 2 0 0 1-2 2z" fill="#202020"/><path data-name="layer1" d="M40 2H24v16h16zm-4 10a2 2 0 1 1-4 0V8a2 2 0 1 1 4 0zm6 19v-1H12v22h18.8L42 31z" fill="#202020"/><path data-name="layer1" d="M46 23.5l3.5 6.6 2.5 4.7V8.7L45.3 2H44v16.3a3.7 3.7 0 0 1-3.7 3.7H23.7a3.7 3.7 0 0 1-3.7-3.7V2H2v50h6V26h36.7z" fill="#202020"/></svg>