<svg xmlns="http://www.w3.org/2000/svg" viewBox="0 0 64 64" aria-labelledby="title" aria-describedby="desc"><path data-name="layer2" d="M58.6 49.1a11.6 11.6 0 0 0 .2-2.1 11.9 11.9 0 0 0-.2-2.3l3.1-1.7-4-6.9-3.1 1.8a12 12 0 0 0-3.7-2.1V32h-8v3.7a12 12 0 0 0-3.7 2.1L36 36l-4 7 3 1.7a11.9 11.9 0 0 0-.2 2.3 12.1 12.1 0 0 0 .2 2.1L31.7 51l4 6.9 3.3-1.8a12 12 0 0 0 3.8 2.2V62h8v-3.7a12.1 12.1 0 0 0 3.9-2.3l3.3 2 4-7zM46.8 52a5 5 0 1 1 5-5 5 5 0 0 1-5 5z" fill="#202020"/><path data-name="layer1" d="M40 2H24v16h16zm-4 10a2 2 0 0 1-4 0V8a2 2 0 0 1 4 0zm-8.2 38a4 4 0 0 1 1.9-2.4l1.1-.6-.8-.5a4 4 0 0 1-1.4-5.5l4-6.9a4 4 0 0 1 2.4-1.9h1a4 4 0 0 1 2 .5l.8.4V32a4 4 0 0 1 .6-2H12v22h15.8a4 4 0 0 1 0-2z" fill="#202020"/><path data-name="layer1" d="M46 28h4.8l1.2.2V8.7L45.3 2H44v16.3a3.7 3.7 0 0 1-3.7 3.7H23.7a3.7 3.7 0 0 1-3.7-3.7V2H2v50h6V26h38z" fill="#202020"/></svg>