<svg xmlns="http://www.w3.org/2000/svg" viewBox="0 0 64 64" aria-labelledby="title" aria-describedby="desc"><path data-name="layer2" fill="#ebf5ff" d="M44 28H10v24h25.3L44 35.8V28z"/><path data-name="layer3" d="M46 32l6 11.3V8.7L45.3 2H42v16.3a1.7 1.7 0 0 1-1.7 1.7H23.7a1.7 1.7 0 0 1-1.7-1.7V2H2v50h8V28h34v7.8z" fill="#7f95ad"/><path data-name="layer2" d="M23.7 20h16.6a1.7 1.7 0 0 0 1.7-1.7V2H22v16.3a1.7 1.7 0 0 0 1.7 1.7z" fill="#ebf5ff"/><path data-name="layer1" fill="#fce364" d="M30 62l16-30 16 30H30z"/><path data-name="opacity" fill="#000064" opacity=".15" d="M43.2 37.2L41 33l-8.5 16H6V2H2v50h33.3l1.6-3 6.3-11.8z"/><path data-name="stroke" fill="none" stroke="#2e4369" stroke-linecap="round" stroke-miterlimit="10" stroke-width="2" d="M35.3 52H2V2h43.3L52 8.7v34.6" stroke-linejoin="round"/><path data-name="stroke" fill="none" stroke="#2e4369" stroke-linecap="round" stroke-miterlimit="10" stroke-width="2" d="M44 35.8V28H10v24m24-42v4m8-12v16.3a1.7 1.7 0 0 1-1.7 1.7H23.7a1.7 1.7 0 0 1-1.7-1.7V2" stroke-linejoin="round"/><path data-name="stroke" fill="none" stroke="#2e4369" stroke-linecap="round" stroke-miterlimit="10" stroke-width="2" d="M30 62l16-30 16 30H30zm16-18v6" stroke-linejoin="round"/><circle data-name="stroke" cx="46" cy="55" r="1" fill="none" stroke="#2e4369" stroke-linecap="round" stroke-miterlimit="10" stroke-width="2" stroke-linejoin="round"/></svg>