<svg xmlns="http://www.w3.org/2000/svg" viewBox="0 0 64 64" aria-labelledby="title" aria-describedby="desc"><path data-name="layer2" d="M55.4 31.2a17.8 17.8 0 0 1-5.3-1 21.4 21.4 0 0 0-6.7-1.2 23 23 0 0 0-5.5 1 26.2 26.2 0 0 1-6.5 1.1 16.4 16.4 0 0 1-5.6-1.1 12.6 12.6 0 0 0-4.4-.9 12.6 12.6 0 0 0-4.4.9 16.4 16.4 0 0 1-5.6 1.1A22.3 22.3 0 0 1 3.2 29l-.3 3.7.7.2s4.4 2 7.9 2a12.6 12.6 0 0 0 4.4-.9 16.4 16.4 0 0 1 5.6-1.1 16.4 16.4 0 0 1 5.6 1.1 12.6 12.6 0 0 0 4.4.9 23 23 0 0 0 5.5-1 26.2 26.2 0 0 1 6.5-1.1 23 23 0 0 1 7.8 1.5c3 1 4.7 1.6 8.2-.9a2 2 0 0 1 1.3-.4l.3-3.5a11 11 0 0 1-5.7 1.7z" fill="#202020"/><path data-name="layer1" d="M54.9 39.2a15.4 15.4 0 0 1-5-1.1 19 19 0 0 0-6.5-1.3 22.9 22.9 0 0 0-5.5 1 26.2 26.2 0 0 1-6.5 1.1 16.5 16.5 0 0 1-5.6-1.1 12.6 12.6 0 0 0-4.4-.9 12.6 12.6 0 0 0-4.4.9 16.5 16.5 0 0 1-5.6 1.1 25.6 25.6 0 0 1-8.9-2.1L2 42.9a20.3 20.3 0 0 0 8 2c4 0 6-2 10-2s6 2 10 2 8-2 12-2 8.7 1.3 11.3 2c4.7 1.2 6.5-2 6.7-4l.3-3.3a10.5 10.5 0 0 1-5.4 1.6zM4.2 25.1a19.2 19.2 0 0 0 7.2 1.8 12.6 12.6 0 0 0 4.4-.9 16.5 16.5 0 0 1 5.6-1.1 16.5 16.5 0 0 1 5.7 1.1 12.6 12.6 0 0 0 4.4.9 22.9 22.9 0 0 0 5.5-1 26.2 26.2 0 0 1 6.5-1.1 25 25 0 0 1 7.9 1.4c3.3 1 5.3 1.6 8.8-.9a2 2 0 0 1 1.3-.4l.6-6.2c-6.9 5-10 0-18 0-4 0-8 2-12 2s-6-2-10-2-6 2-10 2a20.3 20.3 0 0 1-8-2l-.5 6z" fill="#202020"/></svg>