<svg viewBox="0 0 64 64" xmlns="http://www.w3.org/2000/svg" aria-labelledby="title" aria-describedby="desc"><path stroke-width="2" stroke-linejoin="round" stroke-linecap="round" stroke="#202020" fill="none" d="M60 40.855c-.182 2-1.969 5.238-6.662 4.029C50.68 44.2 46 42.857 42 42.857S34 44.9 30 44.9s-6-2.047-10-2.047S14 44.9 10 44.9a20.323 20.323 0 0 1-8-2.047l2-24a20.323 20.323 0 0 0 8 2.047c4 0 6-2.047 10-2.047S28 20.9 32 20.9s8-2.047 12-2.047c8 0 11.082 4.947 18 0z" data-name="layer2"/><path stroke-width="2" stroke-linejoin="round" stroke-linecap="round" stroke="#202020" fill="none" d="M60.532 35.011c-6.917 4.951-9.1-.187-17.1-.187-4 0-8 2.045-12 2.045s-6-2.045-10-2.045-6 2.045-10 2.045-8.746-2.211-8.746-2.211m.647-7.782a21.057 21.057 0 0 0 8.1 2.047c4 0 6-2.047 10-2.047s6 2.047 10 2.047 8-2.047 12-2.047c8 0 10.916 5.064 17.834.113" data-name="layer1"/></svg>