<svg xmlns="http://www.w3.org/2000/svg" viewBox="0 0 64 64" aria-labelledby="title" aria-describedby="desc"><path data-name="layer1" d="M44.8 26.9l14.8-14.8a5.5 5.5 0 0 0-7.8-7.8L37 19.1" fill="#7b8baf"/><path data-name="layer2" fill="#536897" d="M2.7 61.3l12.5-4.8-7.8-7.8-4.7 12.6z"/><path data-name="layer1" fill="#7b8baf" d="M15.2 56.5l29.6-29.6-7.8-7.8L7.4 48.7"/><path data-name="opacity" d="M44.9 27l14.8-14.8a5.5 5.5 0 0 0 0-7.8L41 23.1z" fill="#000028" opacity=".25"/><path data-name="opacity" fill="#000028" opacity=".25" d="M15.3 56.6L44.9 27 41 23.1 11.4 52.7l3.9 3.9z"/><path data-name="stroke" d="M26.3 18.6L40.5 4.4a5.4 5.4 0 0 1 7.6 0l1.8 1.8" fill="none" stroke="#2e4369" stroke-linecap="round" stroke-linejoin="round" stroke-width="2"/><path data-name="stroke" d="M44.8 26.9l14.8-14.8a5.5 5.5 0 0 0-7.8-7.8L37 19.1M2.7 61.3l12.5-4.8-7.8-7.8-4.7 12.6z" fill="none" stroke="#2e4369" stroke-linecap="round" stroke-linejoin="round" stroke-width="2"/><path data-name="stroke" fill="none" stroke="#2e4369" stroke-linecap="round" stroke-linejoin="round" stroke-width="2" d="M15.2 56.5l29.6-29.6-7.8-7.8L7.4 48.7"/></svg>