<svg xmlns="http://www.w3.org/2000/svg" viewBox="0 0 64 64" aria-labelledby="title" aria-describedby="desc"><path data-name="layer1" d="M47 31a16 16 0 0 0-13.4 7.2 3.7 3.7 0 0 1-2.2-3.6V33a14.6 14.6 0 0 0 4.2-7c2.5 0 3-5.1 3-5.8s.1-3.8-2.4-3.8C41.6 3.5 27.4-3.3 16.8 4.1c-4.4 0-4.7 5.9-3.1 12.3-2.5 0-2.4 3-2.4 3.8s.6 5.8 3 5.8a14.6 14.6 0 0 0 4.2 7v1.6c0 1.6 0 4-8.1 5.6S1 49 1 49h30.1A16 16 0 1 0 47 31zM35 47a12 12 0 0 1 18.9-9.8L37.2 53.9A11.9 11.9 0 0 1 35 47zm12 12a11.9 11.9 0 0 1-6.9-2.2L56.8 40A12 12 0 0 1 47 59z" fill="#202020"/></svg>