<svg xmlns="http://www.w3.org/2000/svg" viewBox="0 0 64 64" aria-labelledby="title" aria-describedby="desc"><path data-name="layer2" d="M37 2a1 1 0 0 0-1-1h-8a1 1 0 0 0-1 1v8h10z" fill="#202020"/><path data-name="layer1" d="M44.1 34.7C39.6 30.5 37 26.5 37 24V14H27v10c0 2.5-2.6 6.5-7.1 10.7s-5.2 5.2-4.9 7.5c.6 4.2 2.1 14.3 2.6 17.2A4.8 4.8 0 0 0 22 63h20a4.8 4.8 0 0 0 4.4-3.6c.5-2.9 2-13 2.6-17.3.3-2.2-1.9-4.5-4.9-7.4zM43.2 54H20.8c-.5-3.2-1.1-7.1-1.5-10h25.4c-.4 2.9-1 6.8-1.5 10z" fill="#202020"/></svg>