<svg xmlns="http://www.w3.org/2000/svg" viewBox="0 0 64 64" aria-labelledby="title" aria-describedby="desc"><circle data-name="layer2" cx="30" cy="58" r="4" fill="#536998"/><path data-name="layer1" d="M24 30a15 15 0 0 0 30 0z" fill="#7c8cb0"/><path data-name="opacity" d="M42 44.1A15 15 0 0 1 27 30h-3a15 15 0 0 0 20.8 13.8z" fill="#101129" opacity=".25"/><path data-name="layer1" d="M24 2a14 14 0 0 0 0 28z" fill="#7c8cb0"/><path data-name="opacity" d="M13 15a14 14 0 0 1 8.2-12.7A14 14 0 0 0 24 30v-1.3A14 14 0 0 1 13 15z" fill="#101129" opacity=".25"/><path data-name="stroke" fill="none" stroke="#2f446a" stroke-linecap="round" stroke-linejoin="round" stroke-width="2" d="M50 24H30m18 38l-3.9-17.8m-9.9 0l-2.5 10.2"/><circle data-name="stroke" cx="30" cy="58" r="4" fill="none" stroke="#2f446a" stroke-linecap="round" stroke-linejoin="round" stroke-width="2"/><path data-name="stroke" fill="none" stroke="#2f446a" stroke-linecap="round" stroke-linejoin="round" stroke-width="2" d="M45.8 52H32.3M24 30a15 15 0 0 0 30 0zm0-28a14 14 0 0 0 0 28z"/></svg>