<svg viewBox="0 0 64 64" xmlns="http://www.w3.org/2000/svg" aria-labelledby="title" aria-describedby="desc"><path fill="#202020" d="M36.438 2.251a24.5 24.5 0 0 1 8.844 9.15 16.893 16.893 0 0 1 5.2-3.1 29.849 29.849 0 0 0-14.044-6.05zm17.483 9.201a12.762 12.762 0 0 0-6.728 3.7A26.632 26.632 0 0 1 59.08 19a30.017 30.017 0 0 0-5.159-7.548zm-8.378 13.334a36.273 36.273 0 0 0-1.358-5.807c-.942-.018-1.9-.01-2.892.047-14.048.8-30.716 9.342-35.919 26.713a30.01 30.01 0 0 0 23.419 16.01c12.727-3.625 18.94-21.949 16.75-36.963z" data-name="layer2"/><path fill="#202020" d="M61.541 27.6c-1.806-4.38-6.634-7.285-13.048-8.269a41.808 41.808 0 0 1 1.007 4.877c1.95 13.373-2.078 29.2-11.641 37.137A30.006 30.006 0 0 0 62 31.923a15.459 15.459 0 0 0-.459-4.323zM41.065 15.032c.518-.032 1.024-.032 1.535-.049-2.9-6.047-8.432-12.2-18.933-11.871V3.1A30 30 0 0 0 3.234 40.44c6.98-16.412 23.566-24.591 37.831-25.408z" data-name="layer1"/></svg>