<svg xmlns="http://www.w3.org/2000/svg" viewBox="0 0 64 64" aria-labelledby="title" aria-describedby="desc"><path data-name="layer2" d="M53.5 15.8a9 9 0 0 0-9-9l-1.7.2a7 7 0 0 0-9.6-3.2A12 12 0 0 0 15.1 7 10 10 0 0 0 6 20h46.4a9 9 0 0 0 1.1-4.2z" fill="#202020"/><path data-name="layer1" d="M50.5 24h-41v35a4 4 0 0 0 4 4h30a4 4 0 0 0 4-4v-7h3a8 8 0 0 0 8-8V32a8 8 0 0 0-8-8zm-30 28a2 2 0 0 1-4 0V32a2 2 0 0 1 4 0zm10 0a2 2 0 0 1-4 0V32a2 2 0 0 1 4 0zm10 0a2 2 0 1 1-4 0V32a2 2 0 1 1 4 0zm14-8a4 4 0 0 1-4 4h-3V28h3a4 4 0 0 1 4 4z" fill="#202020"/></svg>