<svg xmlns="http://www.w3.org/2000/svg" viewBox="0 0 64 64" aria-labelledby="title" aria-describedby="desc"><path data-name="layer2" fill="#d5e2f4" d="M48.7 22L50 2H14l1.3 20"/><path data-name="layer1" fill="#f5b94b" d="M15.3 22L18 62h28l2.7-40H15.3z"/><path data-name="opacity" fill="#101129" opacity=".18" d="M21 2h-7l1.3 20h6.6L21 2z"/><path data-name="opacity" fill="#101129" opacity=".25" d="M15.3 22L18 62h5.7l-1.8-40h-6.6z"/><path data-name="opacity" fill="#fff" opacity=".5" d="M38 2l-.4 20h6.5L45 2h-7zm-1.1 60h5.4l1.8-40h-6.5l-.7 40z"/><path data-name="stroke" fill="none" stroke="#2f446a" stroke-linecap="round" stroke-linejoin="round" stroke-width="2" d="M48.7 22L50 2H14l1.3 20m0 0L18 62h28l2.7-40H15.3z"/></svg>