<svg xmlns="http://www.w3.org/2000/svg" viewBox="0 0 64 64" aria-labelledby="title" aria-describedby="desc"><path data-name="layer1" d="M26.483 31.64c3.4-1.713 4.9-4.433 4.9-8.363C31.38 15.821 25.884 13 18.388 13H0v40h18.488c7.1 0 14.091-3.526 14.091-11.587 0-4.635-1.699-8.262-6.096-9.773zM9.194 19.851h8.095c3.1 0 6.1.806 6.1 4.635 0 3.123-2.3 4.332-5.3 4.332H9.194zm8.794 26.3H9.194V35.469h8.994c3.7 0 6.1 1.411 6.1 5.542-.003 3.828-2.902 5.138-6.299 5.138zm32.28-23.781c-9.894 0-14.591 6.65-14.591 15.315 0 9.874 5.9 15.214 14.591 15.214 6.5 0 11.193-2.62 13.392-9.37h-7.7c-.5 1.814-3 3.325-5.4 3.325-4.4 0-7.1-2.418-7.3-7.254h20.699c.5-8.968-3.597-17.23-13.691-17.23zm-6.9 12.292a6.015 6.015 0 0 1 6.4-6.045c3.8 0 5.7 2.015 6.5 6.045zm-1.694-20.05h16.09v4.03h-16.09z" fill="#0067ff"/></svg>