<svg xmlns="http://www.w3.org/2000/svg" viewBox="0 0 64 64" aria-labelledby="title" aria-describedby="desc"><path data-name="layer1" d="M20 54a2 2 0 0 1-1.9 2h-4.2a2 2 0 0 1-1.9-2v-2a2 2 0 0 1 1.9-2h4.2a2 2 0 0 1 1.9 2zm26-16a2 2 0 0 1 1.9-2h4.2a2 2 0 0 1 1.9 2v2a2 2 0 0 1-1.9 2h-4.2a2 2 0 0 1-1.9-2z" fill="#7b8baf"/><path data-name="layer2" d="M39 3.6C39 5.2 33.7 8 32 8c-1.7 0-7-2.9-7-4.6C25 1.8 26.3 2 28 2h8c1.7 0 3-.1 3 1.6z" fill="#f27e7c"/><rect data-name="layer1" x="30" y="29" width="4" height="32" rx="2" ry="2" fill="#7b8baf"/><path data-name="opacity" d="M39 3.6C39 1.9 37.7 2 36 2h-8c-1.7 0-3-.2-3 1.4A2.6 2.6 0 0 0 26.1 5h12a2.3 2.3 0 0 0 .9-1.4z" fill="#fff" opacity=".25"/><path data-name="opacity" d="M32 54a2 2 0 0 1-2-2v7a2 2 0 0 0 4 0v-7a2 2 0 0 1-2 2z" fill="#000064" opacity=".2"/><path data-name="opacity" d="M32 36a2 2 0 0 1 2 2v-7a2 2 0 1 0-4 0v7a2 2 0 0 1 2-2z" fill="#fff" opacity=".2"/><path data-name="opacity" d="M18.1 54h-4.2a2 2 0 0 1-1.9-2v2a2 2 0 0 0 1.9 2h4.2a2 2 0 0 0 1.9-2v-2a2 2 0 0 1-1.9 2zm34-14h-4.2a2 2 0 0 1-1.9-2v2a2 2 0 0 0 1.9 2h4.2a2 2 0 0 0 1.9-2v-2a2 2 0 0 1-1.9 2z" fill="#000064" opacity=".2"/><path data-name="stroke" fill="none" stroke="#2e4369" stroke-linecap="round" stroke-linejoin="round" stroke-width="2" d="M32 8v16m-6 22h-4v8h-2"/><path data-name="stroke" d="M20 54a2 2 0 0 1-1.9 2h-4.2a2 2 0 0 1-1.9-2v-2a2 2 0 0 1 1.9-2h4.2a2 2 0 0 1 1.9 2zm18-8h6v-8h2" fill="none" stroke="#2e4369" stroke-linecap="round" stroke-linejoin="round" stroke-width="2"/><path data-name="stroke" d="M46 38a2 2 0 0 1 1.9-2h4.2a2 2 0 0 1 1.9 2v2a2 2 0 0 1-1.9 2h-4.2a2 2 0 0 1-1.9-2zM32 16c-9.4 0-9.6-8-11-8H8m24 8c9.4 0 9.6-8 11-8h13M26 48V30a6 6 0 0 1 6-6 6 6 0 0 1 6 6v18m1-44.4C39 5.2 33.7 8 32 8c-1.7 0-7-2.9-7-4.6C25 1.8 26.3 2 28 2h8c1.7 0 3-.1 3 1.6z" fill="none" stroke="#2e4369" stroke-linecap="round" stroke-linejoin="round" stroke-width="2"/><rect data-name="stroke" x="30" y="30" width="4" height="32" rx="2" ry="2" fill="none" stroke="#2e4369" stroke-linecap="round" stroke-linejoin="round" stroke-width="2"/></svg>