<svg xmlns="http://www.w3.org/2000/svg" viewBox="0 0 64 64" aria-labelledby="title" aria-describedby="desc"><path data-name="layer1" d="M12 41v-5a5 5 0 0 1 5-5h30a5 5 0 0 1 5 5v5M18 31v-5a5 5 0 0 1 5-5h18a5 5 0 0 1 5 5v5" fill="#f3f7fc"/><path data-name="layer2" d="M48 49c-2.1 0-4 2-6 2s-3.8-2-6-2-4 2-6 2-4.1-2-6-2-4 2-6 2-4.1-2-6-2-4 2-6 2v8h52v-9a10.2 10.2 0 0 1-3.9 1c-1.9 0-4-2-6.1-2z" fill="#f6b36d"/><path data-name="layer1" d="M53 41H11a5 5 0 0 0-5 5v5c2 0 3.9-2 6-2s4 2 6 2 4.1-2 6-2 4 2 6 2 3.8-2 6-2 4 2 6 2 3.9-2 6-2 4.2 2 6.1 2a10.2 10.2 0 0 0 3.9-1v-4a5 5 0 0 0-5-5z" fill="#f3f7fc"/><path data-name="opacity" d="M12 36v5h5v-5a5 5 0 0 1 5-5h-5a5 5 0 0 0-5 5zm11-15a5 5 0 0 0-5 5v5h5v-5a5 5 0 0 1 5-5zM6 46v5c1.7 0 3.3-1.4 5-1.8V46a5 5 0 0 1 5-5h-5a5 5 0 0 0-5 5z" fill="#101129" opacity=".18"/><path data-name="stroke" d="M6 59V46a5 5 0 0 1 5-5h42a5 5 0 0 1 5 5v13M12 41v-5a5 5 0 0 1 5-5h30a5 5 0 0 1 5 5v5M18 31v-5a5 5 0 0 1 5-5h18a5 5 0 0 1 5 5v5M2 59h60M32 21v-8m0-6V5" fill="none" stroke="#2f446a" stroke-linecap="round" stroke-linejoin="round" stroke-width="2"/><path data-name="stroke" d="M6 51c2 0 3.9-2 6-2s4 2 6 2 4.1-2 6-2 4 2 6 2 3.8-2 6-2 4 2 6 2 3.9-2 6-2 4.2 2 6.1 2a10.2 10.2 0 0 0 3.9-1" fill="none" stroke="#2f446a" stroke-linecap="round" stroke-linejoin="round" stroke-width="2"/></svg>