<svg xmlns="http://www.w3.org/2000/svg" viewBox="0 0 64 64" aria-labelledby="title" aria-describedby="desc"><path data-name="layer1" d="M46.6 58.1l-3-12.1h-30l-3 11.8c-.5 2.2-.2 4.2 3 4.2h30c2 0 3.7-1 3-3.9z" fill="#7c8cb0"/><path data-name="layer4" fill="#a2d6ef" d="M14.3 22l1.3 24h26l1.2-24"/><path data-name="layer2" fill="#d5e2f4" d="M13.6 8l.7 14h28.5l.8-14h-30z"/><circle data-name="layer3" cx="28.6" cy="54" r="4" fill="#8fa9d8"/><path data-name="opacity" d="M24.6 54a4 4 0 0 1 .4-1.6 4 4 0 1 0 5.3 5.3 4 4 0 0 1-1.6.4 4 4 0 0 1-4.1-4.1z" fill="#101129" opacity=".25"/><path data-name="layer2" d="M42 38h3.6a8 8 0 0 0 8-8v-8a8 8 0 0 0-8-8h-2.3l-.2 4h2.5a4 4 0 0 1 4 4v8a4 4 0 0 1-4 4h-3.4z" fill="#d5e2f4"/><path data-name="layer1" d="M13.6 8V5a3 3 0 0 1 3-3h24a3 3 0 0 1 3 3v3" fill="#7c8cb0"/><path data-name="opacity" fill="#fff" opacity=".5" d="M31.6 8h5v38h-5z"/><path data-name="stroke" d="M46.6 58.1l-3-12.1h-30l-3 11.8c-.5 2.2-.2 4.2 3 4.2h30c2 0 3.7-1 3-3.9zM14.3 22l1.3 24h26l1.2-24M13.6 8l.7 14h28.5l.8-14h-30z" fill="none" stroke="#2f446a" stroke-linecap="round" stroke-linejoin="round" stroke-width="2"/><circle data-name="stroke" cx="28.6" cy="54" r="4" fill="none" stroke="#2f446a" stroke-linecap="round" stroke-linejoin="round" stroke-width="2"/><path data-name="stroke" d="M43.3 14h2.3a8 8 0 0 1 8 8v8a8 8 0 0 1-8 8H42" fill="none" stroke="#2f446a" stroke-linecap="round" stroke-linejoin="round" stroke-width="2"/><path data-name="stroke" d="M42.2 34h3.4a4 4 0 0 0 4-4v-8a4 4 0 0 0-4-4h-2.5M13.6 8V5a3 3 0 0 1 3-3h24a3 3 0 0 1 3 3v3" fill="none" stroke="#2f446a" stroke-linecap="round" stroke-linejoin="round" stroke-width="2"/></svg>