<svg xmlns="http://www.w3.org/2000/svg" viewBox="0 0 64 64" aria-labelledby="title" aria-describedby="desc"><path data-name="layer2" d="M36 25c0 13.7 2.7 14.7 6 18a61.6 61.6 0 0 1-12 2v2c0 1.6 1.1 3.7 9 6s7 8 7 8H2s0-6 7-8 9-4.4 9-6v-2a61.4 61.4 0 0 1-12-2c3.3-3.3 6-4.3 6-18 0-6 3.7-12 10-12s14 .3 14 12z" fill="none" stroke="#202020" stroke-miterlimit="10" stroke-width="2" stroke-linejoin="round" stroke-linecap="round"/><circle data-name="layer1" cx="52" cy="13" r="10" fill="none" stroke="#202020" stroke-miterlimit="10" stroke-width="2" stroke-linejoin="round" stroke-linecap="round"/><path data-name="layer1" fill="none" stroke="#202020" stroke-miterlimit="10" stroke-width="2" d="M59 6L44.9 20.1" stroke-linejoin="round" stroke-linecap="round"/></svg>