<svg xmlns="http://www.w3.org/2000/svg" viewBox="0 0 64 64" aria-labelledby="title" aria-describedby="desc"><rect data-name="layer1" x="46" y="2" width="16" height="42" rx="4" ry="4" fill="#6679b0"/><path data-name="layer1" d="M18 50a9.24 9.24 0 0 0-4-7.786V40a1 1 0 0 0-1-1H7a1 1 0 0 0-1 1v2.214A9.24 9.24 0 0 0 2 50a9.049 9.049 0 0 0 4.986 8.328A1.709 1.709 0 0 1 8 59.878 2.272 2.272 0 0 0 10 62a2 2 0 0 0 2-2v-.122a1.709 1.709 0 0 1 1.014-1.551A9.049 9.049 0 0 0 18 50z" fill="#6679b0"/><path data-name="opacity" d="M10.875 59.878a1.762 1.762 0 0 0-.824-1.551C7.676 56.989 6 53.77 6 50a10 10 0 0 1 3.25-7.786V40a.924.924 0 0 1 .812-1H7a1 1 0 0 0-1 1v2.214A9.24 9.24 0 0 0 2 50a9.049 9.049 0 0 0 4.986 8.328A1.709 1.709 0 0 1 8 59.878 2.272 2.272 0 0 0 10 62a2.035 2.035 0 0 0 1.441-.621 2.489 2.489 0 0 1-.566-1.501z" fill="#000064" opacity=".16"/><circle data-name="layer3" cx="31" cy="42" r="10" fill="#cbe5ff"/><path data-name="opacity" d="M31 32a9.974 9.974 0 0 0-7.992 4.008 9.986 9.986 0 0 1 13.984 13.984A9.991 9.991 0 0 0 31 32z" fill="#000064" opacity=".16"/><path data-name="layer2" d="M34.314 38.412l-4.271 2.563a.2.2 0 0 0-.069.069l-2.563 4.271a.2.2 0 0 0 .274.274l4.271-2.563a.2.2 0 0 0 .069-.069l2.563-4.271a.2.2 0 0 0-.274-.274z" fill="#f4475d"/><path data-name="layer1" d="M46 6a3.945 3.945 0 0 1 .556-1.994L46.544 4H26a2.006 2.006 0 0 0-2 2v28.859A10 10 0 0 1 41 42h5.544l.011-.007A3.945 3.945 0 0 1 46 40z" fill="#6679b0"/><path data-name="opacity" d="M51 40V6a4.012 4.012 0 0 1 4-4h-5a3.993 3.993 0 0 0-3.445 2.007L46.544 4H40v33.663A9.941 9.941 0 0 1 41 42h5.544l.011-.007A3.993 3.993 0 0 0 50 44h5a4.012 4.012 0 0 1-4-4z" fill="#000064" opacity=".2"/><rect data-name="stroke" x="46" y="2" width="16" height="42" rx="4" ry="4" fill="none" stroke="#2e4369" stroke-linecap="round" stroke-miterlimit="10" stroke-width="2" stroke-linejoin="round"/><path data-name="stroke" d="M10 39V20a8 8 0 0 1 8-8h6m-6 38a9.24 9.24 0 0 0-4-7.786V40a1 1 0 0 0-1-1H7a1 1 0 0 0-1 1v2.214A9.24 9.24 0 0 0 2 50a9.049 9.049 0 0 0 4.986 8.328A1.709 1.709 0 0 1 8 59.878 2.272 2.272 0 0 0 10 62a2 2 0 0 0 2-2v-.122a1.709 1.709 0 0 1 1.014-1.551A9.049 9.049 0 0 0 18 50zm6-15.141V6a2.006 2.006 0 0 1 2-2h20.544m0 38H41" fill="none" stroke="#2e4369" stroke-linecap="round" stroke-miterlimit="10" stroke-width="2" stroke-linejoin="round"/><circle data-name="stroke" cx="31" cy="42" r="10" fill="none" stroke="#2e4369" stroke-linecap="round" stroke-miterlimit="10" stroke-width="2" stroke-linejoin="round"/><path data-name="stroke" d="M34.314 38.412l-4.271 2.563a.2.2 0 0 0-.069.069l-2.563 4.271a.2.2 0 0 0 .274.274l4.271-2.563a.2.2 0 0 0 .069-.069l2.563-4.271a.2.2 0 0 0-.274-.274z" fill="none" stroke="#2e4369" stroke-linecap="round" stroke-miterlimit="10" stroke-width="2" stroke-linejoin="round"/></svg>