<svg xmlns="http://www.w3.org/2000/svg" viewBox="0 0 64 64" aria-labelledby="title" aria-describedby="desc"><path data-name="layer2" d="M60.8 33L52 30H36.9l-5-8H22l6 10H2l5.1 12 .8 1.8 2.1.2c4 0 4-2 8-2s4 2 8 2 4-2 8-2 4 2 8 2 4-2 8-2h1.6l1.2.3.2-.2 7.9-7.9c1.2-1.2 1.1-2.8-.1-3.2z" fill="#dde5f4"/><path data-name="layer1" fill="#c3d6e0" d="M52 30l-6-8H31.9l5 8H52z"/><path data-name="opacity" d="M7.1 44l.8 1.8 2.1.2c4 0 4-2 8-2s4 2 8 2 4-2 8-2 4 2 8 2 4-2 8-2h1.6l1.2.3.2-.2 7.9-7.9a3.1 3.1 0 0 0 .7-1A14.5 14.5 0 0 1 52 39H11l-2.9-7H2z" fill="#000064" opacity=".1"/><path data-name="opacity" fill="#fff" opacity=".5" d="M52 30l-6-8h-6.1l5 8H52z"/><path data-name="stroke" d="M8 46L2 32h26l-6-10h24l6 8 8.8 3c1.2.4 1.4 2.1.1 3.3l-8.1 8.1" fill="none" stroke="#2e4369" stroke-linecap="round" stroke-linejoin="round" stroke-width="2"/><path data-name="stroke" fill="none" stroke="#2e4369" stroke-linecap="round" stroke-linejoin="round" stroke-width="2" d="M31.9 22l5 8H52M18 44c-4 0-4 2-8 2s-4-2-8-2m32 0c-4 0-4 2-8 2s-4-2-8-2m32 0c-4 0-4 2-8 2s-4-2-8-2m28 1a7.8 7.8 0 0 1-4 1c-4 0-4-2-8-2"/></svg>