<svg xmlns="http://www.w3.org/2000/svg" viewBox="0 0 64 64" aria-labelledby="title" aria-describedby="desc"><path data-name="layer1" d="M35 32a1.954 1.954 0 0 1-.314-.032c-.228.012-.454.032-.686.032H23v19.999h12.22A10.024 10.024 0 0 0 45 42a10.134 10.134 0 0 0-10-10zm7.022-11.734A8.276 8.276 0 0 0 33.755 12H23v16h11c4.648 0 8.022-3.253 8.022-7.734z" fill="#202020"/><path data-name="layer1" d="M62 0H2a2 2 0 0 0-2 2v60a2 2 0 0 0 2 2h60a2 2 0 0 0 2-2V2a2 2 0 0 0-2-2zM35.22 55.999H16a2 2 0 0 1 0-4h3v-40h-3a2 2 0 0 1 0-4h17.755a12.28 12.28 0 0 1 12.267 12.267 11.473 11.473 0 0 1-4.61 9.356 13.958 13.958 0 0 1-6.192 26.377z" fill="#202020"/></svg>