<svg xmlns="http://www.w3.org/2000/svg" viewBox="0 0 64 64" aria-labelledby="title" aria-describedby="desc"><path data-name="layer1" fill="#dcf0fd" d="M2 2h60v60H2z"/><path data-name="opacity" fill="#000064" opacity=".15" d="M8 6v52h54v4H2V2l6 4z"/><path data-name="opacity" fill="#fff" opacity=".25" d="M62 6H8L2 2h60v4z"/><path data-name="stroke" fill="none" stroke="#2e4369" stroke-linecap="round" stroke-miterlimit="10" stroke-width="2" d="M21 10v44m-5-44h17.8A10.3 10.3 0 0 1 44 20.3C44 26 39.6 30 34 30H21" stroke-linejoin="round"/><path data-name="stroke" d="M16 54h19.2A12 12 0 0 0 47 42a12.2 12.2 0 0 0-12-12" fill="none" stroke="#2e4369" stroke-linecap="round" stroke-miterlimit="10" stroke-width="2" stroke-linejoin="round"/><path data-name="stroke" fill="none" stroke="#2e4369" stroke-linecap="round" stroke-miterlimit="10" stroke-width="2" d="M2 2h60v60H2z" stroke-linejoin="round"/></svg>