<svg xmlns="http://www.w3.org/2000/svg" viewBox="0 0 64 64" aria-labelledby="title" aria-describedby="desc"><path data-name="layer3" d="M2 42V7a5 5 0 0 1 5-5h35v36H7c-2.8 0-5 1.2-5 4" fill="#f27e7c"/><path data-name="layer2" d="M40 38v8H7c-2.8 0-5-1.2-5-4s2.2-4 5-4z" fill="#fff"/><path data-name="opacity" d="M7 38c-2.8 0-5 1.2-5 4a4 4 0 0 0 .3 1.5C3 41.8 4.8 41 7 41h33v-3z" fill="#000064" opacity=".15"/><path data-name="opacity" d="M2 7v35c0-2.8 2.2-4 5-4V2a5 5 0 0 0-5 5z" fill="#000064" opacity=".15"/><path data-name="layer2" d="M60 54v8H27c-2.8 0-5-1.2-5-4s2.2-4 5-4z" fill="#fff"/><path data-name="opacity" d="M27 54c-2.8 0-5 1.2-5 4a4 4 0 0 0 .3 1.5C23 57.8 24.8 57 27 57h33v-3z" fill="#000064" opacity=".15"/><path data-name="layer1" d="M42 14v24h-2v8H22v12c0-2.8 2.2-4 5-4h35V14z" fill="#9cf"/><path data-name="opacity" d="M46 14v27h-3v10H27s-5-.7-5 5.1V46h18v-8h2V14z" fill="#000064" opacity=".15"/><path data-name="stroke" fill="none" stroke="#2e4369" stroke-linecap="round" stroke-miterlimit="10" stroke-width="2" d="M42 14h20M22 58V46M42 2v36H7c-2.8 0-5 1.2-5 4s2.2 4 5 4h33v-8" stroke-linejoin="round"/><path data-name="stroke" d="M2 42V7a5 5 0 0 1 5-5h35m20 12v40H27c-2.8 0-5 1.2-5 4s2.2 4 5 4h33v-8" fill="none" stroke="#2e4369" stroke-linecap="round" stroke-miterlimit="10" stroke-width="2" stroke-linejoin="round"/></svg>