<svg xmlns="http://www.w3.org/2000/svg" viewBox="0 0 64 64" aria-labelledby="title" aria-describedby="desc"><path data-name="layer2" fill="#f27e7c" d="M52 13v30l-6-5-6 4.9V13h12z"/><path data-name="layer1" d="M52 15v28l-6-5-6 5V15H24V9H2v46a2 2 0 0 0 2 2h56a2 2 0 0 0 2-2V15z" fill="#f8da82"/><path data-name="opacity" d="M8 54a2 2 0 0 1-2-2V9H2v46a2 2 0 0 0 2 2h56a2 2 0 0 0 2-2v-1z" fill="#000064" opacity=".15"/><path data-name="opacity" fill="#000064" opacity=".15" d="M36 44.9l4-3.3V15h-4v29.9zm6.8-4.3L48 45v-5.3L46 38l-3.2 2.6z"/><path data-name="stroke" d="M40 15H24V9H2v46a2 2 0 0 0 2 2h56a2 2 0 0 0 2-2V15H52" fill="none" stroke="#2e4369" stroke-linecap="round" stroke-miterlimit="10" stroke-width="2" stroke-linejoin="round"/><path data-name="stroke" fill="none" stroke="#2e4369" stroke-linecap="round" stroke-miterlimit="10" stroke-width="2" d="M52 13v30l-6-5-6 4.9V13h12z" stroke-linejoin="round"/></svg>