<svg xmlns="http://www.w3.org/2000/svg" viewBox="0 0 64 64" aria-labelledby="title" aria-describedby="desc"><path data-name="layer2" d="M10 10v44a8 8 0 0 0 8 8h36V18H18a8 8 0 0 1-8-8" fill="#f27e7c"/><path data-name="layer1" d="M53 2H18a8 8 0 0 0 0 16h35z" fill="#fff"/><path data-name="opacity" d="M18 2a8 8 0 0 0-7.6 10.5A8 8 0 0 1 18 7h35V2z" fill="#000064" opacity=".1"/><path data-name="opacity" d="M10 10v44a8 8 0 0 0 8 8V18a8 8 0 0 1-8-8z" fill="#000064" opacity=".15"/><path data-name="stroke" fill="none" stroke="#2e4369" stroke-linecap="round" stroke-miterlimit="10" stroke-width="2" d="M18 10h31m-39 0v44a8 8 0 0 0 8 8h36V18H18a8 8 0 0 1 0-16h36m-1 0v16" stroke-linejoin="round"/></svg>