<svg xmlns="http://www.w3.org/2000/svg" viewBox="0 0 64 64" aria-labelledby="title" aria-describedby="desc"><path data-name="layer3" fill="#7b8baf" d="M2 39.6V22h60v30H2V39.6z"/><circle data-name="layer2" cx="14" cy="40" r="12" fill="#536897"/><circle data-name="layer2" cx="50" cy="40" r="12" fill="#536897"/><path data-name="opacity" d="M14 28a12 12 0 0 0-9.8 5.2 12 12 0 0 1 16.6 16.6A12 12 0 0 0 14 28zm48 12a12 12 0 0 0-21.8-6.8 12 12 0 0 1 16.6 16.6A12 12 0 0 0 62 40z" fill="#000064" opacity=".2"/><circle data-name="layer1" cx="14" cy="40" r="5" fill="#8fa9d8"/><circle data-name="layer1" cx="50" cy="40" r="5" fill="#8fa9d8"/><path data-name="stroke" fill="none" stroke="#2e4369" stroke-linecap="round" stroke-miterlimit="10" stroke-width="2" d="M2 39.6V22h60v30H2V39.6zM14 22v-6a4 4 0 0 1 4-4h28a4 4 0 0 1 4 4v6" stroke-linejoin="round"/><circle data-name="stroke" cx="14" cy="40" r="12" fill="none" stroke="#2e4369" stroke-linecap="round" stroke-miterlimit="10" stroke-width="2" stroke-linejoin="round"/><circle data-name="stroke" cx="14" cy="40" r="5" fill="none" stroke="#2e4369" stroke-linecap="round" stroke-miterlimit="10" stroke-width="2" stroke-linejoin="round"/><circle data-name="stroke" cx="50" cy="40" r="5" fill="none" stroke="#2e4369" stroke-linecap="round" stroke-miterlimit="10" stroke-width="2" stroke-linejoin="round"/><circle data-name="stroke" cx="50" cy="40" r="12" fill="none" stroke="#2e4369" stroke-linecap="round" stroke-miterlimit="10" stroke-width="2" stroke-linejoin="round"/><path data-name="stroke" fill="none" stroke="#2e4369" stroke-linecap="round" stroke-miterlimit="10" stroke-width="2" d="M30 30h4" stroke-linejoin="round"/></svg>