<svg xmlns="http://www.w3.org/2000/svg" viewBox="0 0 64 64" aria-labelledby="title" aria-describedby="desc"><circle data-name="layer2" cx="18" cy="38" r="7" fill="#202020"/><circle data-name="layer2" cx="46" cy="38" r="7" fill="#202020"/><path data-name="layer1" d="M52 22v-6a6 6 0 0 0-6-6H18a6 6 0 0 0-6 6v6H2v32h60V22zm-36-6a2 2 0 0 1 2-2h28a2 2 0 0 1 2 2v6H16zm2 34a12 12 0 1 1 12-12 12 12 0 0 1-12 12zm10-22a2 2 0 0 1 2-2h4a2 2 0 0 1 0 4h-4a2 2 0 0 1-2-2zm18 22a12 12 0 1 1 12-12 12 12 0 0 1-12 12z" fill="#202020"/></svg>