<svg xmlns="http://www.w3.org/2000/svg" viewBox="0 0 64 64" aria-labelledby="title" aria-describedby="desc"><path data-name="layer1" d="M32.2 34.8h-6.5V45h6.5c5.4 0 5.7-3.8 5.7-5.2.1-1.2-.4-5-5.7-5z" fill="#563d7c"/><path data-name="layer1" d="M55.4 0H8.6A8.536 8.536 0 0 0 0 8.6v46.8A8.536 8.536 0 0 0 8.6 64h46.8a8.6 8.6 0 0 0 8.6-8.6V8.6A8.536 8.536 0 0 0 55.4 0zM34.6 52H15.4V12h18.7C44.7 12 47 19.5 47 22.5c0 6-3.4 7.5-5.1 8.2 2.6.7 6.8 2.9 6.8 10.6-.1 2.1-.4 10.7-14.1 10.7z" fill="#563d7c"/><path data-name="layer1" d="M36.1 23.5c0-1.2-.8-3.9-4.6-3.9h-5.8v8h5.7c4.2 0 4.7-2.7 4.7-4.1z" fill="#563d7c"/></svg>