<svg xmlns="http://www.w3.org/2000/svg" viewBox="0 0 64 64" aria-labelledby="title" aria-describedby="desc"><path data-name="layer1" d="M32.561 22.365a11.506 11.506 0 0 0-10.536 6.911 11.48 11.48 0 0 0-16.534-5.217v-9.453a2.745 2.745 0 0 0-5.491 0v19.247a11.488 11.488 0 0 0 22.025 4.577 11.488 11.488 0 1 0 10.536-16.065zM11.489 39.852a6 6 0 1 1 6-6 6 6 0 0 1-6 6zm21.072 0a6 6 0 1 1 6-6 6 6 0 0 1-6 6zm0 0" fill="#00aef0"/><path data-name="layer1" d="M56.586 33.739l6.735-7.7a2.745 2.745 0 1 0-4.133-3.614l-6.248 7.144-6.249-7.146a2.745 2.745 0 1 0-4.133 3.614l6.735 7.7-6.735 7.7a2.745 2.745 0 1 0 4.133 3.614l6.249-7.141 6.248 7.146a2.745 2.745 0 1 0 4.133-3.614zm0 0" fill="#00aef0"/></svg>