<svg xmlns="http://www.w3.org/2000/svg" viewBox="0 0 64 64" aria-labelledby="title" aria-describedby="desc"><path data-name="layer2" d="M24.472 28.3a8.355 8.355 0 0 1 2.094 5.836 1 1 0 0 1-2 0 6.219 6.219 0 0 0-2.04-4.973c-.017-.017-.037-.03-.053-.048a6.919 6.919 0 0 0-4.413-1.483 1 1 0 0 1 0-2A9.117 9.117 0 0 1 22.9 27c1.774-2.535 5.129-3.268 8.1-2.713v-6.635a6.24 6.24 0 0 0-3.335-.039 8.121 8.121 0 0 1-1.265 4.208 1 1 0 1 1-1.664-1.109 6.588 6.588 0 0 0 .587-5.607 3.79 3.79 0 0 0-2.216-2.54 1 1 0 1 1 .633-1.9 5.719 5.719 0 0 1 3.475 3.787 8.5 8.5 0 0 1 .294 1.136 8.345 8.345 0 0 1 3.493 0V1.138C29.674.361 26.826-.493 21.286.893c-.18.045-.362.1-.544.151A6.031 6.031 0 0 1 24.3 5.336a5.287 5.287 0 0 1 3.09 1.711 1 1 0 0 1-1.5 1.322 3.291 3.291 0 0 0-5.488.87 1 1 0 1 1-1.836-.793 5.276 5.276 0 0 1 3.68-3.046 4.038 4.038 0 0 0-3.3-2.837.982.982 0 0 1-.71-.589 22.881 22.881 0 0 0-8.27 6.649 8.147 8.147 0 0 1 5.134 3.638 8.02 8.02 0 0 1 .956 4.667 9.7 9.7 0 0 1 2.174.137 1 1 0 1 1-.34 1.971 4.823 4.823 0 0 0-3.929.64 4.084 4.084 0 0 0-1.336 2.707 1 1 0 0 1-1 .954h-.044a1 1 0 0 1-.956-1.033 6.079 6.079 0 0 1 2.061-4.169 5.16 5.16 0 0 1 1.3-.76 6.334 6.334 0 0 0-.627-4.126 6.445 6.445 0 0 0-4.3-2.8.986.986 0 0 1-.323-.151C5.41 15.146 2.879 21.98 2.192 31.184a9.112 9.112 0 0 1 8.208-2.912 9.415 9.415 0 0 1 7.294 6.428 7.338 7.338 0 0 1 5.456 3.119 1 1 0 1 1-1.6 1.2 5.178 5.178 0 0 0-4.633-2.312 5.585 5.585 0 0 0-4.4 3.231 1 1 0 1 1-1.789-.895 7.728 7.728 0 0 1 4.92-4.132 7.383 7.383 0 0 0-5.576-4.67 7.16 7.16 0 0 0-7.13 3.181.988.988 0 0 1-.9.408c-.027.8-.045 1.611-.045 2.443a31.533 31.533 0 0 0 3.487 15.296.971.971 0 0 1 .524-.206c3.556-.2 6.467-3.089 6.885-5.612a10.024 10.024 0 0 0-4.287.084 1 1 0 0 1-.393-1.961c3.1-.62 5.539-.335 7.25.845a6.153 6.153 0 0 1 2.511 4.26 1 1 0 0 1-.821 1.151.96.96 0 0 1-.166.014A1 1 0 0 1 16 49.31a4.454 4.454 0 0 0-1.286-2.6 9.786 9.786 0 0 1-8.178 6.613 24.542 24.542 0 0 0 13.99 10.049 10.486 10.486 0 0 1-1.6-11.445 8.805 8.805 0 0 1 7.847-5.127c-.031-.158-.053-.317-.1-.474a5.1 5.1 0 0 0-3.5-3.715 1 1 0 0 1 .484-1.939 7.09 7.09 0 0 1 4.94 5.12 8.516 8.516 0 0 1-2.331 8.352 1 1 0 0 1-1.414-1.414 6.824 6.824 0 0 0 1.985-3.921 6.835 6.835 0 0 0-6.124 4 8.555 8.555 0 0 0 2.1 10.117.993.993 0 0 1 .248 1.007 16.222 16.222 0 0 0 2.5.224c2.952 0 4.559-.539 5.429-1.077V26.326c-2.422-.566-5.221-.003-6.518 1.974z" fill="#202020"/><path data-name="layer1" d="M61.054 33.426a7.161 7.161 0 0 0-7.13-3.181 7.383 7.383 0 0 0-5.576 4.67 7.728 7.728 0 0 1 4.92 4.132 1 1 0 0 1-1.789.895 5.585 5.585 0 0 0-4.4-3.231 5.18 5.18 0 0 0-4.633 2.312 1 1 0 1 1-1.6-1.2 7.344 7.344 0 0 1 5.46-3.123 9.415 9.415 0 0 1 7.294-6.428 9.114 9.114 0 0 1 8.212 2.911c-.687-9.2-3.219-16.038-6.544-20.891a.986.986 0 0 1-.323.151 6.431 6.431 0 0 0-4.311 2.819 6.276 6.276 0 0 0-.621 4.11 5.157 5.157 0 0 1 1.3.76 6.079 6.079 0 0 1 2.059 4.168 1 1 0 0 1-.962 1.036h-.038a1 1 0 0 1-1-.957 4.081 4.081 0 0 0-1.336-2.707 4.823 4.823 0 0 0-3.929-.64 1 1 0 1 1-.34-1.971 9.7 9.7 0 0 1 2.174-.137 8.02 8.02 0 0 1 .956-4.667 8.147 8.147 0 0 1 5.135-3.637 22.881 22.881 0 0 0-8.272-6.648.982.982 0 0 1-.71.589 4.037 4.037 0 0 0-3.3 2.837 5.276 5.276 0 0 1 3.68 3.045 1 1 0 1 1-1.836.793 3.291 3.291 0 0 0-5.488-.87 1 1 0 0 1-1.5-1.322A5.287 5.287 0 0 1 39.7 5.336a6.031 6.031 0 0 1 3.56-4.292c-.182-.052-.364-.106-.544-.151-5.542-1.386-8.39-.532-9.716.245v14.449a8.341 8.341 0 0 1 3.493 0 8.491 8.491 0 0 1 .294-1.135 5.719 5.719 0 0 1 3.475-3.787 1 1 0 1 1 .633 1.9 3.79 3.79 0 0 0-2.216 2.54 6.588 6.588 0 0 0 .587 5.607 1 1 0 1 1-1.666 1.109 8.121 8.121 0 0 1-1.266-4.207 6.252 6.252 0 0 0-3.334.039v6.634c2.966-.553 6.322.179 8.1 2.713a9.117 9.117 0 0 1 4.844-1.372 1 1 0 0 1 0 2 6.919 6.919 0 0 0-4.413 1.483c-.016.018-.035.031-.053.048a6.219 6.219 0 0 0-2.04 4.973 1 1 0 0 1-2 0 8.355 8.355 0 0 1 2.09-5.832c-1.3-1.974-4.1-2.537-6.528-1.971v36.75c.869.538 2.476 1.077 5.429 1.077a16.223 16.223 0 0 0 2.5-.224.993.993 0 0 1 .248-1.007 8.555 8.555 0 0 0 2.1-10.117 6.831 6.831 0 0 0-6.124-4 6.823 6.823 0 0 0 1.985 3.921 1 1 0 1 1-1.414 1.414 8.516 8.516 0 0 1-2.324-8.354 7.09 7.09 0 0 1 4.94-5.12 1 1 0 0 1 .484 1.939 5.1 5.1 0 0 0-3.5 3.715c-.044.157-.066.316-.1.474a8.8 8.8 0 0 1 7.848 5.129 10.486 10.486 0 0 1-1.6 11.445 24.543 24.543 0 0 0 13.99-10.053 9.786 9.786 0 0 1-8.178-6.613A4.454 4.454 0 0 0 48 49.31a1 1 0 0 1-.985.835.96.96 0 0 1-.166-.014 1 1 0 0 1-.821-1.151 6.153 6.153 0 0 1 2.511-4.26c1.712-1.18 4.148-1.465 7.25-.845a1 1 0 1 1-.393 1.961 10.005 10.005 0 0 0-4.287-.085c.417 2.523 3.328 5.413 6.885 5.612a.971.971 0 0 1 .524.206A31.533 31.533 0 0 0 62 36.278c0-.833-.018-1.644-.045-2.443a.984.984 0 0 1-.901-.409z" fill="#202020"/></svg>