<svg xmlns="http://www.w3.org/2000/svg" viewBox="0 0 64 64" aria-labelledby="title" aria-describedby="desc"><path data-name="layer2" d="M58 24C58 11.8 46.4 2 32 2S6 11.8 6 24a19.5 19.5 0 0 0 4 11.7V56a6 6 0 0 0 6 6h32a6 6 0 0 0 6-6V35.7A19.5 19.5 0 0 0 58 24z" fill="#fad8b6"/><circle data-name="layer1" cx="20" cy="18" r="2" fill="#f6b36d"/><circle data-name="layer1" cx="42" cy="16" r="4" fill="#f6b36d"/><circle data-name="layer1" cx="36" cy="34" r="6" fill="#f6b36d"/><circle data-name="layer1" cx="22" cy="46" r="4" fill="#f6b36d"/><circle data-name="layer1" cx="40" cy="52" r="2" fill="#f6b36d"/><path data-name="opacity" d="M46 16a4 4 0 0 0-7.6-1.6 4 4 0 0 1 5.3 5.3A4 4 0 0 0 46 16zM36 28a6 6 0 0 0-5.1 2.9 6 6 0 0 1 8.2 8.2A6 6 0 0 0 36 28zM22 42a4 4 0 0 0-3.6 2.4 4 4 0 0 1 5.3 5.3A4 4 0 0 0 22 42z" fill="#101129" opacity=".25"/><circle data-name="stroke" cx="20" cy="18" r="2" fill="none" stroke="#2f446a" stroke-linecap="round" stroke-linejoin="round" stroke-width="2"/><circle data-name="stroke" cx="42" cy="16" r="4" fill="none" stroke="#2f446a" stroke-linecap="round" stroke-linejoin="round" stroke-width="2"/><circle data-name="stroke" cx="36" cy="34" r="6" fill="none" stroke="#2f446a" stroke-linecap="round" stroke-linejoin="round" stroke-width="2"/><circle data-name="stroke" cx="22" cy="46" r="4" fill="none" stroke="#2f446a" stroke-linecap="round" stroke-linejoin="round" stroke-width="2"/><circle data-name="stroke" cx="40" cy="52" r="2" fill="none" stroke="#2f446a" stroke-linecap="round" stroke-linejoin="round" stroke-width="2"/><path data-name="stroke" d="M58 24C58 11.8 46.4 2 32 2S6 11.8 6 24a19.5 19.5 0 0 0 4 11.7V56a6 6 0 0 0 6 6h32a6 6 0 0 0 6-6V35.7A19.5 19.5 0 0 0 58 24z" fill="none" stroke="#2f446a" stroke-linecap="round" stroke-linejoin="round" stroke-width="2"/></svg>