<svg xmlns="http://www.w3.org/2000/svg" viewBox="0 0 64 64" aria-labelledby="title" aria-describedby="desc"><path data-name="layer2" d="M56 60H40.3a14.1 14.1 0 0 0 4.5-8H46a8 8 0 0 0 0-16h-1v-1H17v15a13.7 13.7 0 0 0 4.6 10H8a2 2 0 0 0 0 4h48a2 2 0 0 0 0-4zM46 40a4 4 0 0 1 0 8h-1v-8z" fill="#202020"/><path data-name="layer1" d="M36 32a2 2 0 0 0 2-2c0-5.3 2.7-9 5.6-12.8S50 8.7 50 2a2 2 0 1 0-4 0c0 5.3-2.7 9-5.6 12.8S34 23.3 34 30a2 2 0 0 0 2 2zm-10 0a2 2 0 0 0 2-2c0-2.6 1.4-4.5 2.8-6.5S34 19.1 34 16a2 2 0 1 0-4 0c0 1.8-1.1 3.4-2.4 5.2S24 26.2 24 30a2 2 0 0 0 2 2z" fill="#202020"/></svg>