<svg viewBox="0 0 64 64" xmlns="http://www.w3.org/2000/svg" aria-labelledby="title" aria-describedby="desc"><path stroke-width="2" stroke-linejoin="round" stroke-linecap="round" stroke="#202020" fill="none" d="M19 32h26v14c0 8-8.191 12-8.191 12H27s-8-4-8-12V32zm26 2h2a6 6 0 0 1 0 12h-2" data-name="layer2"/><path stroke-width="2" stroke-linejoin="round" stroke-linecap="round" stroke="#202020" fill="none" d="M37 28c0-12 12-14 12-26M27 28c0-6.125 6-8.9 6-14m25 46a2 2 0 0 1-2 2H8a2 2 0 0 1-2-2 2 2 0 0 1 2-2h48a2 2 0 0 1 2 2z" data-name="layer1"/></svg>