<svg xmlns="http://www.w3.org/2000/svg" viewBox="0 0 64 64" aria-labelledby="title" aria-describedby="desc"><path data-name="layer2" d="M35.7 33.5h-.4a12.9 12.9 0 0 1-14 3.2L24 57.5h4v-13a2 2 0 1 1 4 0v13h6l3.1-18.7a13.1 13.1 0 0 1-5.4-5.3z" fill="#202020"/><path data-name="layer1" d="M57 27.1a7 7 0 0 0-11-8.4A13 13 0 0 0 20.2 17a6 6 0 0 0-8.2 5.5h-1a9 9 0 0 0 0 18h1.3a6 6 0 0 0 5.7 4h.4l-.9-7.4-.8-6.6 6.2 2.4a8.9 8.9 0 0 0 9.6-2.2l1.2-1.2h4.5l1.1 2.1a9 9 0 0 0 3.7 3.6l2.6 1.3-.6 2.9-1 6.5a7 7 0 0 0 9.4-3.4h.6a8 8 0 0 0 3-15.4z" fill="#202020"/></svg>