<svg xmlns="http://www.w3.org/2000/svg" viewBox="0 0 64 64" aria-labelledby="title" aria-describedby="desc"><path data-name="layer2" d="M44 22h8a6 6 0 0 0 0-12h-2V2a2 2 0 0 0-4 0v8h-2a6 6 0 1 0 0 12z" fill="#202020"/><path data-name="layer1" d="M46 29.9V34h-2a6 6 0 0 0 0 12h8a6 6 0 1 0 0-12h-2v-4.1c5.1-.7 9.8-3.8 11.7-8a2 2 0 0 0-3.6-1.7C56.6 23.5 52.2 26 48 26s-8.6-2.5-10.1-5.8a2 2 0 1 0-3.6 1.7c1.9 4.1 6.6 7.3 11.7 8z" fill="#202020"/><path data-name="layer1" d="M60.7 43.2a2 2 0 0 0-2.7 1c-1.4 3.3-5.8 5.8-10 5.8s-8.6-2.5-10.1-5.8a2 2 0 1 0-3.6 1.7c1.9 4.2 6.7 7.3 11.7 8V62a2 2 0 1 0 4 0v-8.1c5.1-.7 9.8-3.8 11.7-8a2 2 0 0 0-1-2.7z" fill="#202020"/><path data-name="layer2" d="M12 22h8a6 6 0 0 0 0-12h-2V2a2 2 0 0 0-4 0v8h-2a6 6 0 0 0 0 12z" fill="#202020"/><path data-name="layer1" d="M28.7 19.2a2 2 0 0 0-2.7 1c-1.4 3.3-5.8 5.8-10 5.8s-8.6-2.5-10.1-5.8a2 2 0 0 0-3.6 1.7c1.9 4.2 6.7 7.3 11.7 8V34h-2a6 6 0 0 0 0 12h8a6 6 0 0 0 0-12h-2v-4.1c5.1-.7 9.8-3.8 11.7-8a2 2 0 0 0-1-2.7z" fill="#202020"/><path data-name="layer1" d="M28.7 43.2a2 2 0 0 0-2.7 1c-1.4 3.3-5.8 5.8-10 5.8s-8.6-2.5-10.1-5.8a2 2 0 1 0-3.6 1.7c1.9 4.2 6.7 7.3 11.7 8V62a2 2 0 0 0 4 0v-8.1c5.1-.7 9.8-3.8 11.7-8a2 2 0 0 0-1-2.7z" fill="#202020"/></svg>