<svg xmlns="http://www.w3.org/2000/svg" viewBox="0 0 64 64" aria-labelledby="title" aria-describedby="desc"><path data-name="layer1" d="M40.7 43.2a7 7 0 0 0 12.6-.2h.7a8 8 0 0 0 3-15.4 7 7 0 0 0-11-8.4 13 13 0 0 0-25.7-1.7A6 6 0 0 0 12 23h-1a9 9 0 0 0 0 18h1.3a6 6 0 0 0 10.3 2" fill="none" stroke="#202020" stroke-linecap="round" stroke-linejoin="round" stroke-width="2"/><path data-name="layer2" fill="none" stroke="#202020" stroke-linecap="round" stroke-linejoin="round" stroke-width="2" d="M22 36.4L24 57h14l3.7-18.4M30 41v16"/><path data-name="layer1" d="M18 34.2a13 13 0 0 0 17.6-1.5 13 13 0 0 0 11.5 7" fill="none" stroke="#202020" stroke-linecap="round" stroke-linejoin="round" stroke-width="2"/></svg>