<svg xmlns="http://www.w3.org/2000/svg" viewBox="0 0 64 64" aria-labelledby="title" aria-describedby="desc"><path data-name="layer2" d="M24 39.3a8 8 0 0 1-6 2.7h-8a8 8 0 0 1-8-8v-4a8 8 0 0 1 8-8h8a8 8 0 0 1 6.9 4m14.2 0a8 8 0 0 1 6.9-4h8a8 8 0 0 1 8 8v4a8 8 0 0 1-8 8h-8a8 8 0 0 1-6-2.7" fill="none" stroke="#202020" stroke-miterlimit="10" stroke-width="2" stroke-linejoin="round" stroke-linecap="round"/><path data-name="layer1" fill="none" stroke="#202020" stroke-miterlimit="10" stroke-width="2" d="M23 17l-9-9m27 9l9-9m-18 8V2m-9 45l-9 9m27-9l9 9m-18-8v14" stroke-linejoin="round" stroke-linecap="round"/></svg>