<svg xmlns="http://www.w3.org/2000/svg" viewBox="0 0 64 64" aria-labelledby="title" aria-describedby="desc"><path data-name="layer1" d="M2.461 16.232l28.893 13.907a1.221 1.221 0 0 0 1.061 0l28.892-13.907a1.222 1.222 0 0 0 0-2.2L32.414.121a1.225 1.225 0 0 0-1.061 0L2.461 14.029a1.223 1.223 0 0 0 0 2.2zm0 0" fill="#222a30"/><path data-name="layer1" d="M2.461 33.1l28.893 13.909a1.221 1.221 0 0 0 1.061 0L61.307 33.1a1.223 1.223 0 0 0 0-2.2l-6.1-2.933-19.356 9.316a9.149 9.149 0 0 1-7.935 0l-19.359-9.32L2.461 30.9a1.224 1.224 0 0 0 0 2.2zm0 0" fill="#222a30"/><path data-name="layer1" d="M61.307 47.768l-6.1-2.935-19.361 9.32a9.15 9.15 0 0 1-7.935 0l-19.354-9.32-6.1 2.935a1.222 1.222 0 0 0 0 2.2l28.897 13.911a1.227 1.227 0 0 0 1.061 0l28.892-13.908a1.222 1.222 0 0 0 0-2.2zm0 0" fill="#222a30"/></svg>