<svg xmlns="http://www.w3.org/2000/svg" viewBox="0 0 64 64" aria-labelledby="title" aria-describedby="desc"><path data-name="layer3" fill="#f27e7c" d="M8 38h48v16H8zM56 6a4 4 0 0 0-4-4H12a4 4 0 0 0-4 4v10h48z"/><path data-name="layer2" fill="#c3d6e0" d="M8 16h48v22H8z"/><path data-name="layer1" d="M20 54v6a2 2 0 0 1-2 2h-6a2 2 0 0 1-2-2v-6zm34 0v6a2 2 0 0 1-2 2h-6a2 2 0 0 1-2-2v-6z" fill="#7b8baf"/><path data-name="opacity" d="M14 50V6a4 4 0 0 1 4-4h-6a4 4 0 0 0-4 4v48h48v-4z" fill="#000064" opacity=".15"/><path data-name="opacity" fill="#000064" opacity=".2" d="M10 54h10v4H10zm34 0h10v4H44z"/><path data-name="opacity" d="M52 2H18a4 4 0 0 0-3.9 3H47a4 4 0 0 1 4 4v41h5V6a4 4 0 0 0-4-4z" fill="#fff" opacity=".2"/><path data-name="opacity" fill="#fff" opacity=".5" d="M35.2 38h8.3L56 25.5v-8.3L35.2 38zm-1.8-22l-22 22H25l22-22H33.4z"/><path data-name="stroke" d="M29.1 8H35m-.9 30l10-10M20 54v6a2 2 0 0 1-2 2h-6a2 2 0 0 1-2-2v-6m44 0v6a2 2 0 0 1-2 2h-6a2 2 0 0 1-2-2v-6m-27.9-8H22m20.1 0H48M8 16h48M8 38h48m6-8v8M2 30v8" fill="none" stroke="#2e4369" stroke-linecap="round" stroke-linejoin="round" stroke-width="2"/><path data-name="stroke" d="M56 54V6a4 4 0 0 0-4-4H12a4 4 0 0 0-4 4v48zM8 38l-6-6m54 6l6-6" fill="none" stroke="#2e4369" stroke-linecap="round" stroke-linejoin="round" stroke-width="2"/></svg>