<svg xmlns="http://www.w3.org/2000/svg" viewBox="0 0 64 64" aria-labelledby="title" aria-describedby="desc"><circle data-name="layer2" cx="15" cy="44.5" r="4" fill="#202020"/><circle data-name="layer2" cx="47" cy="44.5" r="4" fill="#202020"/><path data-name="layer1" d="M61 18.5c-.6-1.7-1.3-3-3-3h-5v19h10v-6zm-41-3h12v13H20zm16 0h14v13H36zm-20 0H4a3 3 0 0 0-3 3v10h15zm-9 29a8 8 0 0 1 16 0h16a8 8 0 0 1 11-7.4v-5.6H1V43a1.5 1.5 0 0 0 1.5 1.5H7zm46-5.3a8 8 0 0 1 2 5.3h6.5A1.5 1.5 0 0 0 63 43v-4.5H53z" fill="#202020"/></svg>