<svg viewBox="0 0 64 64" xmlns="http://www.w3.org/2000/svg" aria-labelledby="title" aria-describedby="desc"><circle stroke-width="2" stroke-miterlimit="10" stroke="#202020" fill="none" r="7" cy="9" cx="23.997" data-name="layer2" stroke-linejoin="round" stroke-linecap="round"/><path stroke-width="2" stroke-miterlimit="10" stroke="#202020" fill="none" d="M34.997 22h-22a3 3 0 0 0-3 3v16a3 3 0 0 0 3 3h3v15a3 3 0 0 0 3 3h10a3 3 0 0 0 3-3V44h3a3 3 0 0 0 3-3V25a3 3 0 0 0-3-3z" data-name="layer2" stroke-linejoin="round" stroke-linecap="round"/><path d="M46.003 42h8v20h-8zm4-5.999V42M24.001 21.999l4 14.002-4 4-4-4 4-14.002" stroke-width="2" stroke-miterlimit="10" stroke="#202020" fill="none" data-name="layer1" stroke-linejoin="round" stroke-linecap="round"/></svg>