<svg xmlns="http://www.w3.org/2000/svg" viewBox="0 0 64 64" aria-labelledby="title" aria-describedby="desc"><path data-name="layer2" d="M55 36.7L51.7 28a8.6 8.6 0 0 0-8.7-6h-1v29.6a2.4 2.4 0 0 1-2.4 2.4H24.3a2.4 2.4 0 0 1-2.3-2.4V22h-1a8.6 8.6 0 0 0-8.7 6L9 36.7a14.5 14.5 0 0 0 0 10.6l3.3 8.7c1.3 3.6 3.3 6 8.7 6h22c5.4 0 7.4-2.4 8.7-6l3.3-8.7a14.5 14.5 0 0 0 0-10.6z" fill="#f27e7c"/><path data-name="layer1" d="M24.3 54h15.3a2.4 2.4 0 0 0 2.4-2.4V22H22v29.6a2.4 2.4 0 0 0 2.3 2.4z" fill="#c3d6e0"/><path data-name="opacity" d="M22.6 53.3a2.4 2.4 0 0 0 1.7.7H27l15-15v-5.1zM42 22h-3.3L22 38.7v10.9l20-20V22z" fill="#fff" opacity=".5"/><path data-name="opacity" d="M49 59H27c-5.4 0-7.4-2.4-8.7-6L15 44.3a14.5 14.5 0 0 1 0-10.6l3.3-8.7a10.5 10.5 0 0 1 1.7-3 8.5 8.5 0 0 0-7.7 6L9 36.7a14.5 14.5 0 0 0 0 10.6l3.3 8.7c1.3 3.6 3.3 6 8.7 6h22c3.7 0 5.8-1.2 7.2-3z" fill="#000064" opacity=".15"/><path data-name="stroke" fill="none" stroke="#2e4369" stroke-linecap="round" stroke-linejoin="round" stroke-width="2" d="M2 20L62 2M32 54V22m0 0V11M22 22v29.6a2.4 2.4 0 0 0 2.3 2.4h15.3a2.4 2.4 0 0 0 2.4-2.4V22"/><path data-name="stroke" d="M21 62c-5.4 0-7.4-2.4-8.7-6L9 47.3a14.5 14.5 0 0 1 0-10.6l3.3-8.7a8.6 8.6 0 0 1 8.7-6h22a8.6 8.6 0 0 1 8.7 6l3.3 8.7a14.5 14.5 0 0 1 0 10.6L51.7 56c-1.3 3.6-3.3 6-8.7 6z" fill="none" stroke="#2e4369" stroke-linecap="round" stroke-linejoin="round" stroke-width="2"/></svg>