<svg xmlns="http://www.w3.org/2000/svg" viewBox="0 0 64 64" aria-labelledby="title" aria-describedby="desc"><path data-name="layer1" d="M63.9 2.4a2 2 0 0 0-2.5-1.3l-60 18A2 2 0 0 0 2 23h.6L30 14.7V23h4v-9.5l28.6-8.6a2 2 0 0 0 1.3-2.5zM39.6 53a.4.4 0 0 0 .4-.4V23h-6v30zM24 52.6a.4.4 0 0 0 .4.4H30V23h-6z" fill="#202020"/><path data-name="layer1" d="M51.7 29a8.5 8.5 0 0 0-7.7-6v29.6a4.4 4.4 0 0 1-4.4 4.4H24.4a4.4 4.4 0 0 1-4.4-4.4V23.1a8.5 8.5 0 0 0-7.6 5.9l-3.3 8.7a14.5 14.5 0 0 0 0 10.6l3.3 8.7c1.3 3.6 3.3 6 8.7 6H43c5.4 0 7.4-2.4 8.7-6l3.3-8.7a14.5 14.5 0 0 0 0-10.6z" fill="#202020"/></svg>