<svg xmlns="http://www.w3.org/2000/svg" viewBox="0 0 64 64" aria-labelledby="title" aria-describedby="desc"><path data-name="layer2" d="M2.81 6h19.719a.5.5 0 0 1 .5.446C23.185 8.129 24.29 14 32 14s8.815-5.871 8.974-7.554a.5.5 0 0 1 .5-.446H61.19a.5.5 0 0 1 .445.729C59.848 10.088 52 24 32 24S4.152 10.088 2.365 6.729A.5.5 0 0 1 2.81 6z" fill="#d8ecff"/><path data-name="opacity" d="M39 23C19.49 23 11.547 9.767 9.511 6H2.81a.5.5 0 0 0-.445.729C4.152 10.088 12 24 32 24a37.609 37.609 0 0 0 9-1.051c-.652.032-1.318.051-2 .051zm0-10c7.021 0 8.561-4.859 8.9-7h-6.43a.5.5 0 0 0-.5.446 8.183 8.183 0 0 1-3.955 6.393A12.709 12.709 0 0 0 39 13z" fill="#000064" opacity=".16"/><circle data-name="layer1" cx="32" cy="6" r="4" fill="#f4475d"/><path data-name="stroke" d="M2.81 6h19.719a.5.5 0 0 1 .5.446C23.185 8.129 24.29 14 32 14s8.815-5.871 8.974-7.554a.5.5 0 0 1 .5-.446H61.19a.5.5 0 0 1 .445.729C59.848 10.088 52 24 32 24S4.152 10.088 2.365 6.729A.5.5 0 0 1 2.81 6zM11 10l-6.048.864M16 13l-6.5 2.889M21 17l-5.832 2.916M26 20l-2.966 2.966M52.952 10l6.048.864M47.952 13l6.499 2.889M42.952 17l5.831 2.916M37.952 20l2.965 2.966" fill="none" stroke="#2e4369" stroke-linecap="round" stroke-miterlimit="10" stroke-width="2" stroke-linejoin="round"/><circle data-name="stroke" cx="32" cy="6" r="4" fill="none" stroke="#2e4369" stroke-linecap="round" stroke-miterlimit="10" stroke-width="2" stroke-linejoin="round"/><path data-name="stroke" fill="none" stroke="#2e4369" stroke-linecap="round" stroke-miterlimit="10" stroke-width="2" d="M32 10v52m-3.182-3a5.647 5.647 0 0 0 3.114 2m5.499-10.977C38.27 52.305 35.957 55 31.932 55m-6.996-15.03c-1.783 2.726 1.109 6.375 7 7.03m6.996-21c4 2 4.527 9.952-7 11" stroke-linejoin="round"/><path data-name="stroke" d="M25 26c-4 2-4.527 9.952 7 11a13.552 13.552 0 0 1 5.017 1.29A5.156 5.156 0 0 1 39 39.97c1.783 2.726-1.109 6.375-7 7.03-8.542.949-6.51 8 0 8 6 0 4 5 0 6" fill="none" stroke="#2e4369" stroke-linecap="round" stroke-miterlimit="10" stroke-width="2" stroke-linejoin="round"/></svg>