<svg xmlns="http://www.w3.org/2000/svg" viewBox="0 0 64 64" aria-labelledby="title" aria-describedby="desc"><path data-name="layer2" d="M18 55a6 6 0 0 0 6 6h16a6 6 0 0 0 6-6V33H18z" fill="#8ca0c8"/><path data-name="layer3" fill="#a0d6ef" d="M18 17h28v16H18z"/><path data-name="layer2" d="M46 15a6 6 0 0 0-6-6H24a6 6 0 0 0-6 6v2h28z" fill="#8ca0c8"/><path data-name="opacity" d="M22 55V33h-4v22a6 6 0 0 0 6 6h4a6 6 0 0 1-6-6zm6-46h-4a6 6 0 0 0-6 6v2h4v-2a6 6 0 0 1 6-6z" fill="#000064" opacity=".14"/><circle data-name="layer1" cx="26" cy="41" r="1" fill="#bfc7e0"/><circle data-name="layer1" cx="32" cy="41" r="1" fill="#bfc7e0"/><circle data-name="layer1" cx="38" cy="41" r="1" fill="#bfc7e0"/><circle data-name="layer1" cx="26" cy="47" r="1" fill="#bfc7e0"/><circle data-name="layer1" cx="32" cy="47" r="1" fill="#bfc7e0"/><circle data-name="layer1" cx="38" cy="47" r="1" fill="#bfc7e0"/><circle data-name="layer1" cx="26" cy="53" r="1" fill="#bfc7e0"/><circle data-name="layer1" cx="32" cy="53" r="1" fill="#bfc7e0"/><circle data-name="layer1" cx="38" cy="53" r="1" fill="#bfc7e0"/><path data-name="opacity" fill="#fff" opacity=".25" d="M46 22.5L35.5 33H46V22.5zM38 17L22 33h8l16-16h-8z"/><path data-name="stroke" d="M52.5 24.9a22.1 22.1 0 0 1 0 16m-41 0a22.1 22.1 0 0 1 0-16m48-4a30.1 30.1 0 0 1 0 24m-55 0a30.1 30.1 0 0 1 0-24" fill="none" stroke="#2e4369" stroke-linecap="round" stroke-miterlimit="10" stroke-width="2" stroke-linejoin="round"/><rect data-name="stroke" x="18" y="9" width="28" height="52" rx="6" ry="6" fill="none" stroke="#2e4369" stroke-linecap="round" stroke-miterlimit="10" stroke-width="2" stroke-linejoin="round"/><path data-name="stroke" fill="none" stroke="#2e4369" stroke-linecap="round" stroke-miterlimit="10" stroke-width="2" d="M24 3v5.9M18 17h28M18 33h28" stroke-linejoin="round"/><circle data-name="stroke" cx="26" cy="41" r="1" fill="none" stroke="#2e4369" stroke-linecap="round" stroke-miterlimit="10" stroke-width="2" stroke-linejoin="round"/><circle data-name="stroke" cx="32" cy="41" r="1" fill="none" stroke="#2e4369" stroke-linecap="round" stroke-miterlimit="10" stroke-width="2" stroke-linejoin="round"/><circle data-name="stroke" cx="38" cy="41" r="1" fill="none" stroke="#2e4369" stroke-linecap="round" stroke-miterlimit="10" stroke-width="2" stroke-linejoin="round"/><circle data-name="stroke" cx="26" cy="47" r="1" fill="none" stroke="#2e4369" stroke-linecap="round" stroke-miterlimit="10" stroke-width="2" stroke-linejoin="round"/><circle data-name="stroke" cx="32" cy="47" r="1" fill="none" stroke="#2e4369" stroke-linecap="round" stroke-miterlimit="10" stroke-width="2" stroke-linejoin="round"/><circle data-name="stroke" cx="38" cy="47" r="1" fill="none" stroke="#2e4369" stroke-linecap="round" stroke-miterlimit="10" stroke-width="2" stroke-linejoin="round"/><circle data-name="stroke" cx="26" cy="53" r="1" fill="none" stroke="#2e4369" stroke-linecap="round" stroke-miterlimit="10" stroke-width="2" stroke-linejoin="round"/><circle data-name="stroke" cx="32" cy="53" r="1" fill="none" stroke="#2e4369" stroke-linecap="round" stroke-miterlimit="10" stroke-width="2" stroke-linejoin="round"/><circle data-name="stroke" cx="38" cy="53" r="1" fill="none" stroke="#2e4369" stroke-linecap="round" stroke-miterlimit="10" stroke-width="2" stroke-linejoin="round"/></svg>