<svg xmlns="http://www.w3.org/2000/svg" viewBox="0 0 64 64" aria-labelledby="title" aria-describedby="desc"><path data-name="layer2" d="M51.8 23.1a2 2 0 0 0-1.1 2.6 20.1 20.1 0 0 1 0 14.5 2 2 0 0 0 1.1 2.6h.7a2 2 0 0 0 1.9-1.3 24.1 24.1 0 0 0 0-17.5 2 2 0 0 0-2.6-.9zm-39.6 0a2 2 0 0 0-2.6 1.1 24.1 24.1 0 0 0 0 17.5 2 2 0 0 0 1.9 1.3h.7a2 2 0 0 0 1.1-2.6 20.1 20.1 0 0 1 0-14.5 2 2 0 0 0-1.1-2.8zm49.1-3a2 2 0 1 0-3.7 1.6 28.1 28.1 0 0 1 0 22.4 2 2 0 0 0 1 2.6l.8.2a2 2 0 0 0 1.8-1.2 32.1 32.1 0 0 0 0-25.6zm-56-1a2 2 0 0 0-2.6 1 32.1 32.1 0 0 0 0 25.6 2 2 0 0 0 1.8 1.2l.8-.2a2 2 0 0 0 1-2.6 28.1 28.1 0 0 1 0-22.4 2 2 0 0 0-1-2.6z" fill="#202020"/><path data-name="layer1" d="M40 7H26V3a2 2 0 1 0-4 0v4.3a8 8 0 0 0-6 7.7v40a8 8 0 0 0 8 8h16a8 8 0 0 0 8-8V15a8 8 0 0 0-8-8zm4 28H20V15h24zM24.6 45.6a2.1 2.1 0 0 1 2.8 0A2 2 0 0 1 28 47a2 2 0 1 1-3.4-1.4zM24 41a2 2 0 0 1 .6-1.4 2.1 2.1 0 0 1 2.8 0A2 2 0 0 1 28 41a2 2 0 0 1-2 2 2 2 0 0 1-2-2zm.6 10.6a2.1 2.1 0 0 1 2.8 0A2 2 0 0 1 28 53a2 2 0 1 1-3.4-1.4zm6-6a2.1 2.1 0 0 1 2.8 0A2 2 0 0 1 34 47a2 2 0 0 1-2 2 2 2 0 0 1-2-2 2 2 0 0 1 .6-1.4zM30 41a2 2 0 0 1 .6-1.4 2.1 2.1 0 0 1 2.8 0A2 2 0 0 1 34 41a2 2 0 0 1-2 2 2 2 0 0 1-2-2zm.6 10.6a2.1 2.1 0 0 1 2.8 0A2 2 0 0 1 34 53a2 2 0 0 1-2 2 2 2 0 0 1-2-2 2 2 0 0 1 .6-1.4zm6-6a2.1 2.1 0 0 1 2.8 0A2 2 0 0 1 40 47a2 2 0 0 1-2 2 2 2 0 0 1-2-2 2 2 0 0 1 .6-1.4zM36 41a2 2 0 0 1 .6-1.4 2.1 2.1 0 0 1 2.8 0A2 2 0 0 1 40 41a2 2 0 0 1-2 2 2 2 0 0 1-2-2zm.6 10.6a2.1 2.1 0 0 1 2.8 0A2 2 0 0 1 40 53a2 2 0 0 1-2 2 2 2 0 0 1-2-2 2 2 0 0 1 .6-1.4z" fill="#202020"/></svg>