<svg xmlns="http://www.w3.org/2000/svg" viewBox="0 0 64 64" aria-labelledby="title" aria-describedby="desc"><path data-name="layer2" d="M55 32c-1.4-.2-2 .9-2.5 1.5l-3.4 5.2a2.4 2.4 0 0 0 .6 3.3c1.4 1.2 2.9 2.2-2.6 7.7s-6 3.5-7.2 2.1a2.4 2.4 0 0 0-3.3-.6l-5.2 3.4c-.7.4-1.7 1.1-1.5 2.5a7.2 7.2 0 0 0 6.8 5c4.5 0 10-3.5 14.8-8.4s8.5-10.5 8.5-15a7.2 7.2 0 0 0-5-6.7z" fill="#202020"/><path data-name="layer1" d="M32.7 48.5l1.2-.8a6.5 6.5 0 0 1 3.5-1 6.3 6.3 0 0 1 4.4 1.8l1.8-1.7a26.7 26.7 0 0 0 2.2-2.4 6.6 6.6 0 0 1-1.2-1.7l-2.2-.7-5.7-1.9C32.4 38.6 32 37.3 32 36v-2a61.7 61.7 0 0 0 12-2c-3.3-3.3-6-4.3-6-18C38 2.4 30.8 1.2 24 2.4S14 8 14 14c0 13.7-2.7 14.7-6 18a61.4 61.4 0 0 0 12 2v2c0 1.6-.5 3.5-8.6 5.2A9.2 9.2 0 0 0 4 50h26.4z" fill="#202020"/></svg>