<svg xmlns="http://www.w3.org/2000/svg" viewBox="0 0 64 64" aria-labelledby="title" aria-describedby="desc"><path data-name="layer2" fill="none" stroke="#202020" stroke-miterlimit="10" stroke-width="2" d="M28 24v16l4 4 4-4V24m-4 38V44L14 62m18-18l18 18" stroke-linejoin="round" stroke-linecap="round"/><path data-name="layer1" d="M44.5 6H43l-3.3-4h-7.9l-3.2 4H17.5A1.5 1.5 0 0 0 16 7.5v15a1.5 1.5 0 0 0 1.5 1.5h27a1.5 1.5 0 0 0 1.5-1.5v-15A1.5 1.5 0 0 0 44.5 6z" fill="none" stroke="#202020" stroke-miterlimit="10" stroke-width="2" stroke-linejoin="round" stroke-linecap="round"/><circle data-name="layer1" cx="36" cy="14" r="4" fill="none" stroke="#202020" stroke-miterlimit="10" stroke-width="2" stroke-linejoin="round" stroke-linecap="round"/></svg>