<svg xmlns="http://www.w3.org/2000/svg" viewBox="0 0 64 64" aria-labelledby="title" aria-describedby="desc"><path data-name="layer2" fill="#7b8baf" d="M8 40h48v14H8zm8 14h32v8H16z"/><path data-name="opacity" fill="#000064" opacity=".25" d="M16 54h32v8H16z"/><path data-name="layer2" fill="#7b8baf" d="M8 2h48v8H8zM4 25h56v15H4z"/><path data-name="layer1" fill="#8fa9d8" d="M4 10h56v15H4z"/><path data-name="opacity" fill="#fff" opacity=".4" d="M38 2h10v8H38zm-4 38h16v14H34z"/><path data-name="opacity" fill="#fff" opacity=".5" d="M38 10h-6v15h20V10H38z"/><path data-name="stroke" fill="none" stroke="#2e4369" stroke-linecap="round" stroke-miterlimit="10" stroke-width="2" d="M8 40v14h48V40M16 54v8h32v-8m-30-6v6m16-8h12M4 10h56v30H4zm4 0V2h48v8M4 25h56m-48 0v15m10-15v15m10-15v15m10-15v15m10-15v15" stroke-linejoin="round"/></svg>