<svg xmlns="http://www.w3.org/2000/svg" viewBox="0 0 64 64" aria-labelledby="title" aria-describedby="desc"><path data-name="layer1" d="M59.4 19.9a30 30 0 0 0-24-17.7L25 19.9z" fill="#7b8baf"/><path data-name="opacity" d="M59.4 20a30 30 0 0 0-24-17.7L25 20z" fill="#fff" opacity=".25"/><path data-name="layer1" d="M35.4 2.2L32 2A30 30 0 0 0 7.8 14.3L18 31.9zm20.8 47.5a30 30 0 0 0 3.2-29.9H38.9zM28.4 61.8l3.6.2a30 30 0 0 0 24.2-12.3L46 32.1z" fill="#7b8baf"/><path data-name="layer1" d="M4.4 43.8a30 30 0 0 0 24 18l10.7-18z" fill="#7b8baf"/><path data-name="opacity" d="M4.4 44a30 30 0 0 0 24 18l10.7-18z" fill="#000064" opacity=".25"/><path data-name="layer1" d="M24.9 43.8H4.4a30 30 0 0 1 3.4-29.5z" fill="#7b8baf"/><path data-name="opacity" d="M28.4 62l3.6.2A30 30 0 0 0 56.2 50L46 32.3zm-3.5-18H4.4a30 30 0 0 1 3.4-29.4z" fill="#000064" opacity=".1"/><path data-name="stroke" fill="none" stroke="#2e4369" stroke-linecap="round" stroke-miterlimit="10" stroke-width="2" d="M25 20h34m-20 0l17.2 29.7M46 32.1L28.4 61.8M38.9 44H4.5M25 44L7.8 14.3M18 31.9L35.4 2.2" stroke-linejoin="round"/><circle data-name="stroke" cx="32" cy="32" r="30" fill="none" stroke="#2e4369" stroke-linecap="round" stroke-miterlimit="10" stroke-width="2" stroke-linejoin="round"/></svg>