<svg xmlns="http://www.w3.org/2000/svg" viewBox="0 0 64 64" aria-labelledby="title" aria-describedby="desc"><path data-name="layer1" d="M38 46c24.3-6.8 8-32 8-32a18.1 18.1 0 0 1-4 12c1.5-13.3-5.6-20.8-12-24 .9 2.9.7 10.3-2 14s-4 5.8-4 12c-.3-3.1-2.4-5.8-6-8 3.4 4.9-4 6.5-4 14s7 10.7 14 12z" fill="#ed4c49"/><path data-name="opacity" d="M33 22c1.9-5.6 2-12.1-2.1-19.5L30 2c.9 2.9.7 10.3-2 14s-4 5.8-4 12c-.3-3.1-2.4-5.8-6-8 3.4 4.9-4 6.5-4 14s7 10.7 14 12h2c-12-4 1-18 3-24z" fill="#000064" opacity=".15"/><path data-name="stroke" fill="none" stroke="#2e4369" stroke-linecap="round" stroke-linejoin="round" stroke-width="2" d="M6 62l46-14m-9.8 9.2L58 62M12 48l9.9 3m6.1-5c-7-1.3-14-4.5-14-12s7.4-9.1 4-14c3.6 2.2 5.7 4.9 6 8 0-6.2 1.3-8.3 4-12s2.9-11.1 2-14c6.4 3.2 13.5 10.7 12 24a18.1 18.1 0 0 0 4-12s16.3 25.2-8 32"/></svg>