<svg xmlns="http://www.w3.org/2000/svg" viewBox="0 0 64 64" aria-labelledby="title" aria-describedby="desc"><path data-name="layer2" d="M28 45s-6.1-6.9 3.5-14.4C29.9 35.6 38 45 38 45c24.3-6.8 8-32 8-32a18.1 18.1 0 0 1-4 12c1.5-13.3-5.6-20.8-12-24 .9 2.9.7 10.3-2 14s-4 5.8-4 12c-.3-3.1-2.4-5.8-6-8 3.4 4.9-4 6.5-4 14s7 10.7 14 12z" fill="#202020"/><path data-name="layer1" d="M53.9 46.4a2 2 0 0 0-2.5-1.3l-46 14A2 2 0 0 0 6 63h.6l46-14a2 2 0 0 0 1.3-2.6zm4.7 12.7l-15.8-4.8a2 2 0 0 0-1.2 3.8l15.8 4.8h.6a2 2 0 0 0 .6-3.9zM11.4 48.9l9.9 3h.6a2 2 0 0 0 .6-3.9l-9.9-3a2 2 0 1 0-1.2 3.8z" fill="#202020"/></svg>