<svg viewBox="0 0 64 64" xmlns="http://www.w3.org/2000/svg" aria-labelledby="title" aria-describedby="desc"><path fill="#202020" d="M19 16a2 2 0 0 0 2 2h21.966a2 2 0 0 0 0-4h-6.948a3 3 0 1 0-.039 0h-8.151l-5.412-5.414a2 2 0 0 0-2.828 2.828L22.171 14H21a2 2 0 0 0-2 2z" data-name="layer2"/><circle fill="#202020" r="3" cy="2.999" cx="33.999" data-name="layer2"/><circle fill="#202020" r="3" cy="6.999" cx="42.001" data-name="layer2"/><path fill="#202020" d="M45.379 22H18.621s-1.175.8-1.546 1.092A2.518 2.518 0 0 0 16 25v32.937a2.983 2.983 0 0 0 .731 2.08c.146.146.982.909 1.808 1.663.772.7 1.533 1.4 1.72 1.584a2.016 2.016 0 0 0 1.492.736h20.5a2.1 2.1 0 0 0 1.551-.8c.128-.128.89-.821 1.661-1.524.825-.754 1.662-1.518 1.808-1.663A2.983 2.983 0 0 0 48 57.937V25a2.518 2.518 0 0 0-1.075-1.914C46.554 22.8 45.379 22 45.379 22zm-1.4 19.629c-1.132 1.047-5.292 2.711-9.111 3.94-5.964 1.92-11.046 3.882-14.888 6.486V38c0-3.114 10.134-6.7 16.115-8.626a63.5 63.5 0 0 0 7.741-3.108l.076.068c.021.02.043.037.065.057z" data-name="layer1"/></svg>