<svg xmlns="http://www.w3.org/2000/svg" viewBox="0 0 64 64" aria-labelledby="title" aria-describedby="desc"><circle data-name="layer2" cx="32" cy="32" r="30" fill="#ed4c49"/><path data-name="layer2" d="M32 9a22.9 22.9 0 0 1 13.6 4.5L13.5 45.6A23 23 0 0 1 32 9zm0 46a22.9 22.9 0 0 1-13.6-4.5l32.1-32.1A23 23 0 0 1 32 55z" fill="#ed4c49"/><path data-name="layer1" d="M32 9a22.9 22.9 0 0 1 13.6 4.5L13.5 45.6A23 23 0 0 1 32 9zm0 46a22.9 22.9 0 0 1-13.6-4.5l32.1-32.1A23 23 0 0 1 32 55z" fill="#fff"/><circle data-name="stroke" cx="32" cy="32" r="30" fill="none" stroke="#2e4369" stroke-linecap="round" stroke-linejoin="round" stroke-width="2"/><path data-name="stroke" d="M32 9a22.9 22.9 0 0 1 13.6 4.5L13.5 45.6A23 23 0 0 1 32 9zm0 46a22.9 22.9 0 0 1-13.6-4.5l32.1-32.1A23 23 0 0 1 32 55z" fill="none" stroke="#2e4369" stroke-linecap="round" stroke-linejoin="round" stroke-width="2"/></svg>