<svg xmlns="http://www.w3.org/2000/svg" viewBox="0 0 64 64" aria-labelledby="title" aria-describedby="desc"><path data-name="layer3" d="M4 28h39l-5.5-10a3.7 3.7 0 0 0-3.1-2H10.3c-1 0-2 1-2.6 2S1.8 29 1.8 29A3 3 0 0 1 4 28z" fill="#c3d6e0"/><circle data-name="layer2" cx="14" cy="42" r="6" fill="#7b8baf"/><circle data-name="layer2" cx="50" cy="42" r="6" fill="#7b8baf"/><path data-name="layer1" d="M59 28H5a3 3 0 0 0-3 3v11h6a6 6 0 0 1 12 0h24a6 6 0 0 1 12 0h6V31a3 3 0 0 0-3-3z" fill="#49bcff"/><circle data-name="opacity" cx="14" cy="42" r="3" fill="#000064" opacity=".2"/><circle data-name="opacity" cx="50" cy="42" r="3" fill="#000064" opacity=".2"/><path data-name="opacity" d="M18.2 16l-12 12H16l12-12zm19.3 2a4.1 4.1 0 0 0-2-1.8L23.7 28h5.7l8.8-8.8z" fill="#fff" opacity=".5"/><path data-name="opacity" d="M7 28H5a3 3 0 0 0-3 3v11h6a6 6 0 0 1 .9-3.1H7zm49 14h6v-3.1h-6.9A6 6 0 0 1 56 42zm-36 0h24a6 6 0 0 1 .9-3.1H19.1A6 6 0 0 1 20 42z" fill="#000064" opacity=".15"/><path data-name="stroke" d="M44 28l-5.5-10a3.7 3.7 0 0 0-3.1-2H11.3c-1 0-2 1-2.6 2S2.8 29 2.8 29" fill="none" stroke="#2e4369" stroke-linecap="round" stroke-linejoin="round" stroke-width="2"/><path data-name="stroke" d="M56 42h6V31a3 3 0 0 0-3-3H5a3 3 0 0 0-3 3v11h6m12 0h24" fill="none" stroke="#2e4369" stroke-linecap="round" stroke-linejoin="round" stroke-width="2"/><circle data-name="stroke" cx="14" cy="42" r="6" fill="none" stroke="#2e4369" stroke-linecap="round" stroke-linejoin="round" stroke-width="2"/><circle data-name="stroke" cx="50" cy="42" r="6" fill="none" stroke="#2e4369" stroke-linecap="round" stroke-linejoin="round" stroke-width="2"/></svg>