<svg viewBox="0 0 64 64" xmlns="http://www.w3.org/2000/svg" aria-labelledby="title" aria-describedby="desc"><path d="M48.827 38H62v-4h-9.174l-3.999 4z" fill="#202020" data-name="layer2"/><path d="M5.998 26.002L2 30h10.83l7.998 8h22.344l7.998-8H62l-3.998-3.998H5.998z" fill="#202020" data-name="layer1"/><path d="M11.174 34H2v4h13.172l-3.998-4z" fill="#202020" data-name="layer2"/><path fill="#202020" d="M62 20h-9.333L46 10H18l-6.667 10H2a2 2 0 0 0 0 4h6.7l1.348-2h43.945l1.337 2H62a2 2 0 1 0 0-4zM2 42v3a2.992 2.992 0 0 0 1.986 2.812V52a2 2 0 0 0 2 2h8a2 2 0 0 0 2-2v-4H48v4a2 2 0 0 0 2 2h8a2 2 0 0 0 2-2v-4.184A2.992 2.992 0 0 0 62 45v-3z" data-name="layer1"/></svg>