<svg xmlns="http://www.w3.org/2000/svg" viewBox="0 0 64 64" aria-labelledby="title" aria-describedby="desc"><path data-name="layer2" d="M54 7.2v18.1l-6-4-6 4V8.9c-5.9 1.5-10 4-10 8.1v44c0-8 16-10 30-10V7zM32 17C32 9 16 7 2 7v44c14 0 30 2 30 10z" fill="#dbf1ff"/><path data-name="opacity" d="M17 7.9v44c5.6.8 10.4 2.3 13 4.7v-44c-2.6-2.4-7.4-3.9-13-4.7z" fill="#fff" opacity=".3"/><path data-name="opacity" d="M48 21.3l-6 4V8.9l-1 .3c-5.3 1.5-9 4-9 7.8v44c0-3.8 3.7-6.3 9-7.8V27.7l5-3.3 6 4V24z" fill="#000064" opacity=".12"/><path data-name="layer1" d="M42 25.3l6-4 6 4V3.4a67.4 67.4 0 0 0-12 1.7z" fill="#f27e7c"/><path data-name="stroke" d="M32 17C32 9 16 7 2 7v44c14 0 30 2 30 10zm22-9.8l8-.2v44c-14 0-30 2-30 10m0-44c0-4.1 4.1-6.6 10-8.1" fill="none" stroke="#2e4369" stroke-linecap="round" stroke-miterlimit="10" stroke-width="2" stroke-linejoin="round"/><path data-name="stroke" d="M42 25.3l6-4 6 4V3.4a67.4 67.4 0 0 0-12 1.7z" fill="none" stroke="#2e4369" stroke-linecap="round" stroke-miterlimit="10" stroke-width="2" stroke-linejoin="round"/></svg>