<svg xmlns="http://www.w3.org/2000/svg" viewBox="0 0 64 64" aria-labelledby="title" aria-describedby="desc"><path data-name="layer2" d="M32 2a30 30 0 1 0 30 30A30 30 0 0 0 32 2zm0 40a10 10 0 1 1 10-10 10 10 0 0 1-10 10z" fill="#c0cfe9"/><path data-name="layer1" d="M32 22a10 10 0 1 0 10 10 10 10 0 0 0-10-10zm0 12a2 2 0 1 1 2-2 2 2 0 0 1-2 2z" fill="#8fa9d8"/><path data-name="opacity" d="M25.5 24.4L12.1 9.6A29.9 29.9 0 0 0 2 32h20a10 10 0 0 1 3.5-7.6zm12.9 15.3l13.3 14.9A29.9 29.9 0 0 0 62 32H42a10 10 0 0 1-3.6 7.7z" fill="#fff" opacity=".5"/><circle data-name="stroke" cx="32" cy="32" r="30" fill="none" stroke="#2e4369" stroke-linecap="round" stroke-linejoin="round" stroke-width="2"/><circle data-name="stroke" cx="32" cy="32" r="10" fill="none" stroke="#2e4369" stroke-linecap="round" stroke-linejoin="round" stroke-width="2"/><circle data-name="stroke" cx="32" cy="32" r="2" fill="none" stroke="#2e4369" stroke-linecap="round" stroke-linejoin="round" stroke-width="2"/><path data-name="stroke" fill="none" stroke="#2e4369" stroke-linecap="round" stroke-linejoin="round" stroke-width="2" d="M25.7 24.3L12.2 9.5M22 32H2m36.4 7.7l13.5 14.8M42 32h20"/></svg>