<svg xmlns="http://www.w3.org/2000/svg" viewBox="0 0 64 64" aria-labelledby="title" aria-describedby="desc"><path data-name="layer4" fill="#8fa9d8" d="M2 6h8v52H2z"/><path data-name="layer3" fill="#7b8baf" d="M10 6h52v52H10z"/><circle data-name="layer2" cx="36" cy="32" r="20" fill="#dbe3ff"/><path data-name="opacity" d="M36 52a20 20 0 0 1-15.6-32.6 20 20 0 1 0 28.2 28.2A19.9 19.9 0 0 1 36 52z" fill="#000064" opacity=".2"/><circle data-name="layer1" cx="36" cy="32" r="4" fill="#fff"/><path data-name="layer1" d="M38.9 29.1l11.2-11.4a19.9 19.9 0 0 0-14-5.7v16a4 4 0 0 1 2.8 1.1zm-5.6 5.7L22 46.1A19.9 19.9 0 0 0 36.1 52V36a4 4 0 0 1-2.8-1.2z" fill="#fff"/><path data-name="stroke" fill="none" stroke="#2e4369" stroke-linecap="round" stroke-miterlimit="10" stroke-width="2" d="M2 6h60v52H2zm8 0v52" stroke-linejoin="round"/><circle data-name="stroke" cx="36" cy="32" r="20" fill="none" stroke="#2e4369" stroke-linecap="round" stroke-miterlimit="10" stroke-width="2" stroke-linejoin="round"/><circle data-name="stroke" cx="36" cy="32" r="4" fill="none" stroke="#2e4369" stroke-linecap="round" stroke-miterlimit="10" stroke-width="2" stroke-linejoin="round"/></svg>