<svg xmlns="http://www.w3.org/2000/svg" viewBox="0 0 64 64" aria-labelledby="title" aria-describedby="desc"><circle data-name="layer2" cx="32" cy="24" r="8" fill="#9cf"/><path data-name="opacity" d="M35 28a8 8 0 0 1-7.6-10.6 8 8 0 1 0 12.2 9.1A8 8 0 0 1 35 28z" fill="#000064" opacity=".14"/><path data-name="layer1" d="M18 62h28L34.8 31.5a7.9 7.9 0 0 1-5.5 0z" fill="#dbf1ff"/><path data-name="opacity" d="M34.8 31.5a8 8 0 0 1-2.8.5h-1.4l-1.3-.4-1.7 4.7L18 62h9.3l3.3-25h.4a8 8 0 0 0 5.1-1.8z" fill="#000064" opacity=".14"/><circle data-name="stroke" cx="32" cy="24" r="8" fill="none" stroke="#2e4369" stroke-linecap="round" stroke-miterlimit="10" stroke-width="2" stroke-linejoin="round"/><path data-name="stroke" d="M45.1 8.9a20 20 0 0 1 0 30.2m-26.2 0a20 20 0 0 1 0-30.2m33.3-7.1a30 30 0 0 1 0 44.4m-40.4 0a30 30 0 0 1 0-44.4m17.4 29.7L18 62h28L34.8 31.5M23.6 48h17.2" fill="none" stroke="#2e4369" stroke-linecap="round" stroke-miterlimit="10" stroke-width="2" stroke-linejoin="round"/></svg>