<svg xmlns="http://www.w3.org/2000/svg" viewBox="0 0 64 64" aria-labelledby="title" aria-describedby="desc"><circle data-name="layer1" cx="32" cy="29.2" r="8" fill="#5edc89"/><path data-name="opacity" d="M35 33.2a8 8 0 0 1-7.6-10.6 8 8 0 1 0 12.2 9.1 8 8 0 0 1-4.6 1.5z" fill="#000064" opacity=".14"/><circle data-name="stroke" cx="32" cy="29.2" r="8" fill="none" stroke="#2e4369" stroke-linecap="round" stroke-miterlimit="10" stroke-width="2" stroke-linejoin="round"/><path data-name="stroke" fill="none" stroke="#2e4369" stroke-linecap="round" stroke-miterlimit="10" stroke-width="2" d="M32 37.2v22m13.1-45.1a20 20 0 0 1 0 30.2m-26.2 0a20 20 0 0 1 0-30.2M52.2 7a30 30 0 0 1 0 44.4m-40.4 0a30 30 0 0 1 0-44.4" stroke-linejoin="round"/></svg>