<svg xmlns="http://www.w3.org/2000/svg" viewBox="0 0 64 64" aria-labelledby="title" aria-describedby="desc"><path data-name="layer1" d="M41 11H25V3a2 2 0 0 0-4 0v8.3a6 6 0 0 0-4 5.7v40a6 6 0 0 0 6 6h18a6 6 0 0 0 6-6V17a6 6 0 0 0-6-6zM26.4 56.4a2 2 0 0 1-1.4.6 2 2 0 0 1-1.4-.6A2 2 0 0 1 23 55a2 2 0 0 1 .6-1.4 2.1 2.1 0 0 1 2.8 0A2.1 2.1 0 0 1 27 55a2 2 0 0 1-.6 1.4zm0-6a2 2 0 0 1-1.4.6 2 2 0 0 1-1.4-.6A2 2 0 0 1 23 49a2 2 0 0 1 .6-1.4 2.1 2.1 0 0 1 2.8 0A2.1 2.1 0 0 1 27 49a2 2 0 0 1-.6 1.4zm0-6a2 2 0 0 1-1.4.6 2 2 0 0 1-1.4-.6 2 2 0 0 1 0-2.8 2.1 2.1 0 0 1 2.8 0A2.1 2.1 0 0 1 27 43a2 2 0 0 1-.6 1.4zm7 12a2 2 0 0 1-1.4.6 2 2 0 0 1-1.4-.6A2 2 0 0 1 30 55a2 2 0 0 1 .6-1.4A2 2 0 0 1 34 55a2 2 0 0 1-.6 1.4zm0-6a2 2 0 0 1-1.4.6 2 2 0 0 1-1.4-.6A2 2 0 0 1 30 49a2 2 0 0 1 .6-1.4 2.1 2.1 0 0 1 2.8 0A2.1 2.1 0 0 1 34 49a2 2 0 0 1-.6 1.4zm0-6a2 2 0 0 1-1.4.6 2 2 0 0 1-1.4-3.4 2.1 2.1 0 0 1 2.8 0A2.1 2.1 0 0 1 34 43a2 2 0 0 1-.6 1.4zm7 12a2 2 0 0 1-2.8-2.8 2.1 2.1 0 0 1 2.8 0A2.1 2.1 0 0 1 41 55a2 2 0 0 1-.6 1.4zm0-6a2 2 0 0 1-2.8-2.8 2.1 2.1 0 0 1 2.8 0A2.1 2.1 0 0 1 41 49a2 2 0 0 1-.6 1.4zm0-6a2 2 0 0 1-2.8 0A2 2 0 0 1 37 43a2 2 0 0 1 .6-1.4 2.1 2.1 0 0 1 2.8 0A2.1 2.1 0 0 1 41 43a2 2 0 0 1-.6 1.4zM43 35H21V19h22z" fill="#202020"/></svg>