<svg xmlns="http://www.w3.org/2000/svg" viewBox="0 0 64 64" aria-labelledby="title" aria-describedby="desc"><path data-name="layer2" d="M32 20.1a8 8 0 0 0-2 15.7v22.3a2 2 0 0 0 4 0V35.8a8 8 0 0 0-2-15.7z" fill="#202020"/><path data-name="layer1" d="M46.4 11.5a2 2 0 0 0-2.6 3 18 18 0 0 1 0 27.2 2 2 0 1 0 2.6 3 22 22 0 0 0 0-33.2zM14 28.1a18 18 0 0 1 6.2-13.6 2 2 0 0 0-2.6-3 22 22 0 0 0 0 33.2 2 2 0 0 0 2.6-3A18 18 0 0 1 14 28.1z" fill="#202020"/><path data-name="layer1" d="M53.5 4.4a2 2 0 0 0-2.7 3 28 28 0 0 1 0 41.4 2 2 0 1 0 2.7 3 32 32 0 0 0 0-47.3zM4 28.1a28.1 28.1 0 0 1 9.2-20.7 2 2 0 0 0-2.7-3 32 32 0 0 0 0 47.3 2 2 0 1 0 2.7-3A28.1 28.1 0 0 1 4 28.1z" fill="#202020"/></svg>