<svg xmlns="http://www.w3.org/2000/svg" viewBox="0 0 64 64" aria-labelledby="title" aria-describedby="desc"><path data-name="layer2" d="M9.002 17.002a8 8 0 1 1 8-8 8.01 8.01 0 0 1-8 8zm0-12a4 4 0 1 0 4 4 4.005 4.005 0 0 0-4-4z" fill="#202020"/><path data-name="layer1" d="M36.041 63A22.066 22.066 0 0 1 14 40.959v-9.918a22.043 22.043 0 0 1 34.736-18.02l-3.46 4.902A16.044 16.044 0 0 0 20 31.042v9.917a16.042 16.042 0 0 0 25.273 13.12l3.458 4.903A21.907 21.907 0 0 1 36.041 63z" fill="#202020"/></svg>