<svg xmlns="http://www.w3.org/2000/svg" viewBox="0 0 64 64" aria-labelledby="title" aria-describedby="desc"><path data-name="layer1" d="M37 62a22.1 22.1 0 0 1-22-22V30a22 22 0 0 1 34.7-18l-3.5 4.9A16 16 0 0 0 21 30v10a16 16 0 0 0 25.3 13.1l3.4 4.9A21.9 21.9 0 0 1 37 62z" fill="#bcd7f2"/><circle data-name="stroke" cx="10" cy="8" r="6" fill="none" stroke="#2e4369" stroke-linecap="round" stroke-linejoin="round" stroke-width="2"/><path data-name="stroke" d="M37 62a22.1 22.1 0 0 1-22-22V30a22 22 0 0 1 34.7-18l-3.5 4.9A16 16 0 0 0 21 30v10a16 16 0 0 0 25.3 13.1l3.4 4.9A21.9 21.9 0 0 1 37 62z" fill="none" stroke="#2e4369" stroke-linecap="round" stroke-linejoin="round" stroke-width="2"/></svg>