<svg xmlns="http://www.w3.org/2000/svg" viewBox="0 0 64 64" aria-labelledby="title" aria-describedby="desc"><path data-name="layer1" d="M61.2 24.1a2 2 0 0 0-2.6 1.1L50.7 45H26.5a1 1 0 0 0-1 1.1 18 18 0 0 0 35.9 0 1 1 0 0 0-1-1.1h-5.3l7.3-18.3a2 2 0 0 0-1.2-2.6z" fill="#202020"/><path data-name="layer2" d="M50.4 35.2a9 9 0 0 0-13.6 2.2 6.7 6.7 0 0 0-2.3-.4 7 7 0 0 0-6.3 4H48z" fill="#202020"/><path data-name="layer1" d="M7.5 20.3l36-8.7V9.8l5.4-5.4a2 2 0 0 0-2.8-2.8L40.7 7H10.3L4.9 1.6a2 2 0 1 0-2.8 2.8l5.4 5.4z" fill="#202020"/><path data-name="layer2" d="M43.5 29V15.7l-36 8.7v14.1l30-7.4a13 13 0 0 1 6-2.1z" fill="#202020"/><path data-name="layer1" d="M22.9 42.6l.2-.2 1.5-3.1.6-1-17.7 4.3V58a1 1 0 0 0 1 1h18a21.9 21.9 0 0 1-5-12.7 5 5 0 0 1 1.4-3.7z" fill="#202020"/></svg>