<svg xmlns="http://www.w3.org/2000/svg" viewBox="0 0 64 64" aria-labelledby="title" aria-describedby="desc"><path data-name="layer2" d="M50 46V10a8 8 0 0 0-8-8H9.2c4.4 0 6.8 3.6 6.8 8v44a8 8 0 0 0 8 8" fill="#fff"/><path data-name="layer1" d="M16 10H2c0-4.4 2.8-8 7.2-8a7.7 7.7 0 0 1 6.8 8z" fill="#c3d6f9"/><path data-name="opacity" d="M16 10H2c0-4.4 2.8-8 7.2-8a7.7 7.7 0 0 1 6.8 8zm7 41s4.1 8.2 1.6 11l8.4-5.2-1-5.8z" fill="#000064" opacity=".1"/><path data-name="layer1" d="M54 46H24a8 8 0 0 1 0 16h30a8 8 0 0 0 0-16z" fill="#c3d6f9"/><path data-name="opacity" d="M24 62h30a8 8 0 0 0 6.9-4h-30a8 8 0 0 1-6.9 4z" fill="#000064" opacity=".1"/><path data-name="opacity" d="M54 46H24a8 8 0 0 1 6.9 4h30a8 8 0 0 0-6.9-4z" fill="#fff" opacity=".2"/><path data-name="stroke" d="M50 46V10a8 8 0 0 0-8-8H9.2c4.4 0 6.8 3.6 6.8 8v44a8 8 0 0 0 8 8" fill="none" stroke="#2e4369" stroke-linecap="round" stroke-linejoin="round" stroke-width="2"/><path data-name="stroke" d="M54 46H24a8 8 0 0 1 0 16h30a8 8 0 0 0 0-16zM9.2 2C4.8 2 2 5.6 2 10h14m10 4h14M26 24h14M26 34h14" fill="none" stroke="#2e4369" stroke-linecap="round" stroke-linejoin="round" stroke-width="2"/></svg>