<svg viewBox="0 0 64 64" xmlns="http://www.w3.org/2000/svg" aria-labelledby="title" aria-describedby="desc"><path fill="#ebf5ff" d="M37.609 42.005a4.941 4.941 0 0 1-.428-3.989 4.746 4.746 0 0 0 .008-4 .608.608 0 0 1-.069-.279 4.914 4.914 0 0 1 3.936-6.123A4.5 4.5 0 0 0 44 26.045a.547.547 0 0 1 .111-.121A5.032 5.032 0 0 1 46 24.452V18H30V2H6v54h34V44.084a4.87 4.87 0 0 1-2.391-2.079z" data-name="layer3"/><path d="M46 18L30 2v16h16z" fill="#fff" data-name="layer2"/><path d="M26 2v21h20v-5H30V2h-4zm14 42.084a4.87 4.87 0 0 1-2.391-2.079 4.941 4.941 0 0 1-.428-3.989 4.746 4.746 0 0 0 .008-4 .608.608 0 0 1-.069-.279 4.914 4.914 0 0 1 3.936-6.123 4.564 4.564 0 0 0 2.88-1.5 4.845 4.845 0 0 0-4.822 1.811.547.547 0 0 0-.111.121 4.5 4.5 0 0 1-2.946 1.569 4.914 4.914 0 0 0-3.936 6.123.608.608 0 0 0 .069.279 4.746 4.746 0 0 1-.008 4 4.941 4.941 0 0 0 .428 3.989A4.87 4.87 0 0 0 35 46.084V56h5z" opacity=".15" fill="#000064" data-name="opacity"/><path fill="#f27e7c" d="M58.183 33.906a3.568 3.568 0 0 0-3.264-5.653 3.564 3.564 0 0 1-3.655-2.11 3.568 3.568 0 0 0-6.528 0 3.563 3.563 0 0 1-3.655 2.11 3.568 3.568 0 0 0-3.264 5.653 3.564 3.564 0 0 1 0 4.22 3.568 3.568 0 0 0 3.264 5.653 3.563 3.563 0 0 1 3.655 2.11 3.568 3.568 0 0 0 6.529 0 3.563 3.563 0 0 1 3.654-2.109 3.568 3.568 0 0 0 3.264-5.653 3.564 3.564 0 0 1 0-4.221zm-9.551 6.062a4 4 0 1 1 3.319-3.318 4 4 0 0 1-3.319 3.318z" data-name="layer1"/><path fill="#f27e7c" d="M51.938 46.072a.736.736 0 0 1-.063.057 4.937 4.937 0 0 1-7.851-.113 3.244 3.244 0 0 0-2.694-1.566c-.049-.009-.08-.021-.12-.031a5.078 5.078 0 0 1-1.21-.335v16.228L48 55l8 5.312v-16.22a5.078 5.078 0 0 1-.949.29 5.254 5.254 0 0 0-3.113 1.69z" data-name="layer1"/><path opacity=".15" fill="#000064" d="M55.051 44.382a5.254 5.254 0 0 0-3.113 1.69.736.736 0 0 1-.063.057 4.937 4.937 0 0 1-7.851-.113 3.244 3.244 0 0 0-2.694-1.566c-.049-.009-.08-.021-.12-.031a5.078 5.078 0 0 1-1.21-.335v3a5.078 5.078 0 0 0 1.21.335c.04.01.071.022.12.031a3.244 3.244 0 0 1 2.693 1.566 4.937 4.937 0 0 0 7.851.113.736.736 0 0 0 .063-.057 5.254 5.254 0 0 1 3.113-1.69 5.078 5.078 0 0 0 .949-.29v-3a5.078 5.078 0 0 1-.948.29z" data-name="opacity"/><path d="M40 56H6V2h24l16 16v6.33" stroke-width="2" stroke-miterlimit="10" stroke-linecap="round" stroke="#2e4369" fill="none" data-name="stroke" stroke-linejoin="round"/><path d="M30 2v16h16" stroke-width="2" stroke-miterlimit="10" stroke-linecap="round" stroke="#2e4369" fill="none" data-name="stroke" stroke-linejoin="round"/><circle stroke-width="2" stroke-miterlimit="10" stroke-linecap="round" stroke="#2e4369" fill="none" r="4" cy="36.006" cx="48.002" data-name="stroke" stroke-linejoin="round"/><path d="M40 44.167v16.144L48 55l8 5.311V44.104" stroke-width="2" stroke-miterlimit="10" stroke-linecap="round" stroke="#2e4369" fill="none" data-name="stroke" stroke-linejoin="round"/><path stroke-width="2" stroke-miterlimit="10" stroke-linecap="round" stroke="#2e4369" fill="none" d="M58.183 33.906a3.568 3.568 0 0 0-3.264-5.653 3.564 3.564 0 0 1-3.655-2.11 3.568 3.568 0 0 0-6.528 0 3.563 3.563 0 0 1-3.655 2.11 3.568 3.568 0 0 0-3.264 5.653 3.564 3.564 0 0 1 0 4.22 3.568 3.568 0 0 0 3.264 5.653 3.563 3.563 0 0 1 3.655 2.11 3.568 3.568 0 0 0 6.529 0 3.563 3.563 0 0 1 3.654-2.109 3.568 3.568 0 0 0 3.264-5.653 3.564 3.564 0 0 1 0-4.221z" data-name="stroke" stroke-linejoin="round"/></svg>