<svg xmlns="http://www.w3.org/2000/svg" viewBox="0 0 64 64" aria-labelledby="title" aria-describedby="desc"><path data-name="layer1" d="M54 46H24a8 8 0 0 1 0 16h30a8 8 0 0 0 0-16z" fill="#202020"/><path data-name="layer1" d="M42 2H9.2c4.4 0 6.8 3.6 6.8 8v44a8 8 0 0 0 4.1 7 4 4 0 0 1 3.9-3 4 4 0 0 0 0-8 4 4 0 0 1 0-8h26V10a8 8 0 0 0-8-8zm-2 34H26a2 2 0 0 1 0-4h14a2 2 0 0 1 0 4zm0-10H26a2 2 0 0 1 0-4h14a2 2 0 0 1 0 4zm0-10H26a2 2 0 0 1 0-4h14a2 2 0 0 1 0 4z" fill="#202020"/><path data-name="layer1" d="M9.2 6a4 4 0 0 1-3.8-2.9A8 8 0 0 0 2 10h10c0-1.5-.4-4-2.8-4z" fill="#202020"/></svg>