<svg xmlns="http://www.w3.org/2000/svg" viewBox="0 0 64 64" aria-labelledby="title" aria-describedby="desc"><path data-name="layer2" d="M41.1 18C40.6 10 40 2 40 2H24s-.6 8-1.1 16" fill="#d5e2f4"/><path data-name="layer1" d="M22.9 18c-.5 7.1-.9 14.2-.9 15.8a10 10 0 1 0 20 0c0-1.5-.4-8.7-.9-15.8z" fill="#f9d28c"/><path data-name="opacity" d="M28 2h-4s-.6 8-1.1 16H27c.5-8.1 1-16 1-16zm-2 33.4c0-1.7.4-9.2.9-16.6V18h-4c-.5 7.1-.9 14.2-.9 15.8a10.1 10.1 0 0 0 7.9 9.9 10.9 10.9 0 0 1-3.9-8.3z" fill="#101129" opacity=".18"/><path data-name="opacity" d="M39.1 18c-.4-6.7-.8-13.3-1-16h-4c.2 3.3.6 9.6.9 16zm-4 0c.5 8.2.9 16.4.9 18.1a12.7 12.7 0 0 1-2.1 7.1 7.2 7.2 0 0 0 5.8-5.1 12.3 12.3 0 0 0 .3-2.5c0-1.7-.4-9.5-.9-17.3V18h-4z" fill="#fff" opacity=".5"/><path data-name="stroke" fill="none" stroke="#2f446a" stroke-linecap="round" stroke-linejoin="round" stroke-width="2" d="M24 62h16m1.1-44C40.6 10 40 2 40 2H24s-.6 8-1.1 16"/><path data-name="stroke" d="M22.9 18c-.5 7.1-.9 14.2-.9 15.8a10 10 0 1 0 20 0c0-1.5-.4-8.7-.9-15.8zM32 44v18" fill="none" stroke="#2f446a" stroke-linecap="round" stroke-linejoin="round" stroke-width="2"/></svg>