<svg xmlns="http://www.w3.org/2000/svg" viewBox="0 0 64 64" aria-labelledby="title" aria-describedby="desc"><path data-name="layer1" d="M46 29.8c6.6-.2 14-7.5 14-14a9.6 9.6 0 0 0-3.5-7.5A12.5 12.5 0 0 0 48 5.7V2H16v3.7a11.7 11.7 0 0 0-8.5 2.5A9.8 9.8 0 0 0 4 15.9c0 6.7 7.3 14 14 14a16 16 0 0 0 12 8v14.3a12.4 12.4 0 0 1-8 3.8h-3a3 3 0 0 0-3 3v3h32v-3a3 3 0 0 0-3-3h-3a12.4 12.4 0 0 1-8-3.8V37.9a16 16 0 0 0 12-8.1zm7.9-18.4a5.6 5.6 0 0 1 2.1 4.5c0 3.7-4.3 8.4-8.4 9.7a15.8 15.8 0 0 0 .4-3.4V9.7a8.5 8.5 0 0 1 5.9 1.8zM8 15.9a5.8 5.8 0 0 1 2.1-4.6A7.8 7.8 0 0 1 16 9.7v12.4a15.8 15.8 0 0 0 .4 3.5c-4-1.1-8.4-5.9-8.4-9.7z" fill="#202020"/></svg>