<svg xmlns="http://www.w3.org/2000/svg" viewBox="0 0 64 64" aria-labelledby="title" aria-describedby="desc"><path data-name="layer1" fill="#202020" d="M40 19.618L37.569 26h4.862L40 19.618z"/><path data-name="layer1" d="M62 0H2a2 2 0 0 0-2 2v60a2 2 0 0 0 2 2h60a2 2 0 0 0 2-2V2a2 2 0 0 0-2-2zM49.87 34.288a2 2 0 0 1-3.74 1.424L43.956 30h-7.91l-2.179 5.719a2 2 0 0 1-3.738-1.424L40 8.382zM12.256 9.143a2 2 0 0 1 2.6 1.114L21 25.615l6.143-15.358a2 2 0 1 1 3.714 1.486L21 36.385l-9.857-24.642a2 2 0 0 1 1.114-2.6zm39.157 41.271a2 2 0 1 1-2.828-2.828l.586-.586H14.829l.586.586a2 2 0 0 1-2.83 2.828L8.592 46.42l-.011-.01-1.41-1.411 1.41-1.406.011-.011 3.995-3.984a2 2 0 0 1 2.825 2.832l-.573.571h34.324l-.573-.57a2 2 0 0 1 2.825-2.833l5.417 5.401z" fill="#202020"/></svg>