<svg xmlns="http://www.w3.org/2000/svg" viewBox="0 0 64 64" aria-labelledby="title" aria-describedby="desc"><path data-name="layer1" fill="#202020" d="M43.462 36h5.076L46 30.077 43.462 36z"/><path data-name="layer1" d="M62 0H2a2 2 0 0 0-2 2v60a2 2 0 0 0 2 2h60a2 2 0 0 0 2-2V2a2 2 0 0 0-2-2zM8.143 21.743a2 2 0 0 1 3.714-1.486L18 35.615l6.143-15.358a2 2 0 1 1 3.714 1.486L18 46.385zM25 53a2.002 2.002 0 0 1-1.863-2.727l14.03-36a2 2 0 0 1 3.727 1.454l-14.03 36A2 2 0 0 1 25 53zm30.787-5.162a2 2 0 0 1-2.626-1.05L50.252 40h-8.504l-2.91 6.788a2 2 0 0 1-3.676-1.576l3.423-7.988.002-.005L46 19.923l7.411 17.294.004.009 3.422 7.986a2 2 0 0 1-1.05 2.626z" fill="#202020"/></svg>