<svg xmlns="http://www.w3.org/2000/svg" viewBox="0 0 64 64" aria-labelledby="title" aria-describedby="desc"><path data-name="layer1" fill="#dcf0fd" d="M2 2h60v60H2z"/><path data-name="opacity" fill="#000064" opacity=".15" d="M8 6v52h54v4H2V2l6 4z"/><path data-name="opacity" fill="#fff" opacity=".25" d="M62 6H8L2 2h60v4z"/><path data-name="stroke" fill="none" stroke="#2e4369" stroke-linecap="round" stroke-miterlimit="10" stroke-width="2" d="M16 18v36m13 8h32M10 24l6-6 6 6M10 48l6 6 6-6m14-25l6-14 6 14m-18 6h24M38.1 18h7.8M36 50l6-14 6 14m-9.9-5h7.8" stroke-linejoin="round"/><path data-name="stroke" fill="none" stroke="#2e4369" stroke-linecap="round" stroke-miterlimit="10" stroke-width="2" d="M2 2h60v60H2z" stroke-linejoin="round"/></svg>