<svg xmlns="http://www.w3.org/2000/svg" viewBox="0 0 64 64" aria-labelledby="title" aria-describedby="desc"><path data-name="layer2" fill="#c3d6f9" d="M62 26h-6v-8H2v28h54v-8h6V26z"/><path data-name="opacity" fill="#fff" opacity=".4" d="M62 26h-6v-5H2v8h60v-3z"/><path data-name="opacity" fill="#000064" opacity=".14" d="M56 36H2v10h54v-8h6v-2h-6z"/><path data-name="layer1" fill="#fc6" d="M30 16L20 36h10v12l10-20H30V16z"/><path data-name="stroke" fill="none" stroke="#2e4369" stroke-linecap="round" stroke-linejoin="round" stroke-width="2" d="M30 16L20 36h10v12l10-20H30V16z"/><path data-name="stroke" fill="none" stroke="#2e4369" stroke-linecap="round" stroke-linejoin="round" stroke-width="2" d="M40 46h16v-8h6V26h-6v-8H38m-18 0H2v28h20"/></svg>