<svg xmlns="http://www.w3.org/2000/svg" viewBox="0 0 64 64" aria-labelledby="title" aria-describedby="desc"><path data-name="layer1" d="M62 0H2a2 2 0 0 0-2 2v60a2 2 0 0 0 2 2h60a2 2 0 0 0 2-2V2a2 2 0 0 0-2-2zM34.162 24.212l2.138-4.988.001-.005L42 5.923l5.699 13.296.001.005 2.138 4.988a2 2 0 1 1-3.676 1.576L44.538 22h-5.076l-1.624 3.788a2 2 0 0 1-3.676-1.576zM20.586 46.586a2 2 0 0 1 2.828 2.828L16 56.828l-7.414-7.414a2 2 0 0 1 2.828-2.828L14 49.172V22.828l-2.586 2.586a2 2 0 0 1-2.828-2.828L16 15.172l7.414 7.414a2 2 0 1 1-2.828 2.828L18 22.828v26.344zM54 33H42.033L47.7 46.22l.001.004 2.138 4.988a2 2 0 1 1-3.676 1.576L44.538 49h-5.076l-1.624 3.788a2 2 0 0 1-3.676-1.576l2.138-4.988.001-.005L41.967 33H30a2 2 0 0 1 0-4h24a2 2 0 0 1 0 4z" fill="#202020"/><path data-name="layer1" fill="#202020" d="M41.176 45h1.648L42 43.077 41.176 45zM42 16.077L41.176 18h1.648L42 16.077z"/></svg>