<svg xmlns="http://www.w3.org/2000/svg" viewBox="0 0 64 64" aria-labelledby="title" aria-describedby="desc"><path data-name="layer2" d="M5 59l18.8-6.9a37.1 37.1 0 0 0 8.2.9c16.6 0 30-10.7 30-24S48.6 5 32 5 2 15.7 2 29c0 6.7 3.5 12.8 9.1 17.2z" fill="#a6dbff"/><path data-name="opacity" d="M38 48C21.4 48 8 36.8 8 23a21.6 21.6 0 0 1 3.3-11.3C5.6 16 2 22.2 2 29s3.5 12.8 9.1 17.2L5 59l18.8-6.9a37 37 0 0 0 8.2.9c10.3 0 19.5-4.2 24.9-10.6A33.7 33.7 0 0 1 38 48z" fill="#000064" opacity=".14"/><path data-name="opacity" d="M43 24c12 4 11.7-.7 10.4-3.8a17.6 17.6 0 0 0-2.8-3.9c-5.6-5.4-11.8-5.2-15.7-3.5S31 20 43 24z" fill="#fff" opacity=".4"/><circle data-name="layer1" cx="20" cy="29" r="2" fill="#2e4369"/><circle data-name="layer1" cx="32" cy="29" r="2" fill="#2e4369"/><circle data-name="layer1" cx="44" cy="29" r="2" fill="#2e4369"/><path data-name="stroke" d="M5 59l18.8-6.9a37.1 37.1 0 0 0 8.2.9c16.6 0 30-10.7 30-24S48.6 5 32 5 2 15.7 2 29c0 6.7 3.5 12.8 9.1 17.2z" fill="none" stroke="#2e4369" stroke-linecap="round" stroke-miterlimit="10" stroke-width="2" stroke-linejoin="round"/><circle data-name="stroke" cx="20" cy="29" r="2" fill="none" stroke="#2e4369" stroke-linecap="round" stroke-miterlimit="10" stroke-width="2" stroke-linejoin="round"/><circle data-name="stroke" cx="32" cy="29" r="2" fill="none" stroke="#2e4369" stroke-linecap="round" stroke-miterlimit="10" stroke-width="2" stroke-linejoin="round"/><circle data-name="stroke" cx="44" cy="29" r="2" fill="none" stroke="#2e4369" stroke-linecap="round" stroke-miterlimit="10" stroke-width="2" stroke-linejoin="round"/></svg>