<svg viewBox="0 0 64 64" xmlns="http://www.w3.org/2000/svg" aria-labelledby="title" aria-describedby="desc"><path fill="#202020" d="M46 26a16 16 0 1 0 16 16 16 16 0 0 0-16-16zm8.488 13.321l-9.406 10.587-6.5-6.5a2 2 0 1 1 2.83-2.828l3.5 3.5 6.588-7.415a2 2 0 0 1 2.99 2.656z" data-name="layer3"/><path fill="#202020" d="M2 50h25.682A19.977 19.977 0 0 1 54 23.682V20H2z" data-name="layer2"/><path fill="#202020" d="M2 6v10h52V6zm6 7a2 2 0 1 1 2-2 2 2 0 0 1-2 2zm6 0a2 2 0 1 1 2-2 2 2 0 0 1-2 2zm6 0a2 2 0 1 1 2-2 2 2 0 0 1-2 2z" data-name="layer1"/></svg>