<svg viewBox="0 0 64 64" xmlns="http://www.w3.org/2000/svg" aria-labelledby="title" aria-describedby="desc"><circle stroke-width="2" stroke-miterlimit="10" stroke="#202020" fill="none" r="10" cy="24" cx="24" data-name="layer2" stroke-linejoin="round" stroke-linecap="round"/><path stroke-width="2" stroke-miterlimit="10" stroke="#202020" fill="none" d="M45.3 30a26.1 26.1 0 0 0 .5-3.1v-.4c.1-.7.1-1.4.1-2.1A22.2 22.2 0 0 0 24 2 22.2 22.2 0 0 0 2 24.4c0 .7 0 1.5.1 2.2v.3C3.9 44.5 24 58 24 58a65.2 65.2 0 0 0 7.2-5.9" data-name="layer2" stroke-linejoin="round" stroke-linecap="round"/><circle stroke-width="2" stroke-miterlimit="10" stroke="#202020" fill="none" r="16" cy="46" cx="46" data-name="layer1" stroke-linejoin="round" stroke-linecap="round"/><path d="M53 42l-8 9-5-5" stroke-width="2" stroke-miterlimit="10" stroke="#202020" fill="none" data-name="layer1" stroke-linejoin="round" stroke-linecap="round"/></svg>