<svg xmlns="http://www.w3.org/2000/svg" viewBox="0 0 64 64" aria-labelledby="title" aria-describedby="desc"><path data-name="layer1" d="M62 0H2a2 2 0 0 0-2 2v60a2 2 0 0 0 2 2h60a2 2 0 0 0 2-2V2a2 2 0 0 0-2-2zM19.48 45.953L13.396 56.09l-5.811-5.812a2 2 0 0 1 2.828-2.828l2.189 2.189 3.447-5.744a2 2 0 0 1 3.43 2.058zm0-15.962l-6.083 10.137-5.811-5.812a2 2 0 0 1 2.828-2.828l2.189 2.189 3.447-5.744a2 2 0 1 1 3.43 2.058zm0-15.962l-6.083 10.137-5.811-5.812a2 2 0 1 1 2.828-2.828l2.189 2.189 3.447-5.744a2 2 0 0 1 3.43 2.058zm35.524 36.915H27a2 2 0 0 1 0-4h28.004a2 2 0 0 1 0 4zm0-16H27a2 2 0 1 1 0-4h28.004a2 2 0 1 1 0 4zm0-16.004H27a2 2 0 0 1 0-4h28.004a2 2 0 1 1 0 4z" fill="#202020"/></svg>