<svg xmlns="http://www.w3.org/2000/svg" viewBox="0 0 64 64" aria-labelledby="title" aria-describedby="desc"><circle data-name="layer5" cx="46" cy="42" r="16" fill="#78d1f4"/><circle data-name="layer4" cx="46" cy="42" r="16" fill="#44d88d"/><path data-name="layer3" fill="#a6b1c9" d="M2 6h52v12H2z"/><path data-name="layer2" d="M46 26a15.9 15.9 0 0 1 7.9 2.1h.1V18H2v32h30.1A16 16 0 0 1 46 26z" fill="#fff"/><path data-name="opacity" d="M32.1 49.9a16 16 0 0 1 4.8-21.1A16 16 0 0 0 27.2 50h4.9z" fill="#000064" opacity=".15"/><circle data-name="layer1" cx="8" cy="12" r="1" fill="#f27e7c"/><circle data-name="layer1" cx="15" cy="12" r="1" fill="#f27e7c"/><circle data-name="layer1" cx="22" cy="12" r="1" fill="#f27e7c"/><path data-name="opacity" fill="#000064" opacity=".15" d="M2 18h4v32H2zM2 6h4v12H2z"/><circle data-name="stroke" cx="46" cy="42" r="16" fill="none" stroke="#2e4369" stroke-linecap="round" stroke-linejoin="round" stroke-width="2"/><path data-name="stroke" fill="none" stroke="#2e4369" stroke-linecap="round" stroke-linejoin="round" stroke-width="2" d="M2 6h52v12H2zm0 12v32h30m22-22V18"/><circle data-name="stroke" cx="8" cy="12" r="1" fill="none" stroke="#2e4369" stroke-linecap="round" stroke-linejoin="round" stroke-width="2"/><circle data-name="stroke" cx="15" cy="12" r="1" fill="none" stroke="#2e4369" stroke-linecap="round" stroke-linejoin="round" stroke-width="2"/><circle data-name="stroke" cx="22" cy="12" r="1" fill="none" stroke="#2e4369" stroke-linecap="round" stroke-linejoin="round" stroke-width="2"/><path data-name="stroke" fill="none" stroke="#2e4369" stroke-linecap="round" stroke-linejoin="round" stroke-width="2" d="M53 38l-8 9-5-5"/></svg>