<svg xmlns="http://www.w3.org/2000/svg" viewBox="0 0 64 64" aria-labelledby="title" aria-describedby="desc"><path data-name="layer1" fill="#f5fbfe" d="M18 52v10h28V52m10-34a9.9 9.9 0 0 0-13.3-9.4 12 12 0 0 0-21.4 0A9.9 9.9 0 0 0 18 8a10 10 0 0 0 0 20v24h28V28a10 10 0 0 0 10-10z"/><path data-name="opacity" fill="#101129" opacity=".12" d="M18 52h8v10h-8zm0-24v24h8V23.1S7.6 26.6 10.2 11.7A10 10 0 0 0 18 28z"/><path data-name="stroke" fill="none" stroke="#2f446a" stroke-linecap="round" stroke-linejoin="round" stroke-width="2" d="M18 52v10h28V52m10-34a9.9 9.9 0 0 0-13.3-9.4 12 12 0 0 0-21.4 0A9.9 9.9 0 0 0 18 8a10 10 0 0 0 0 20v24h28V28a10 10 0 0 0 10-10zM26 52V38m10 14V34"/></svg>