<svg xmlns="http://www.w3.org/2000/svg" viewBox="0 0 64 64" aria-labelledby="title" aria-describedby="desc"><circle data-name="layer1" cx="17" cy="48" r="14" fill="#f0494c"/><circle data-name="layer1" cx="47" cy="42" r="14" fill="#f0494c"/><path data-name="opacity" d="M6 44a13.9 13.9 0 0 1 1.5-6.2 14 14 0 1 0 22 16.5A14 14 0 0 1 6 44zm44 8a14 14 0 0 1-12.5-20.2 14 14 0 1 0 22 16.5A13.9 13.9 0 0 1 50 52z" fill="#101129" opacity=".18"/><ellipse data-name="opacity" cx="20" cy="40.5" rx="4" ry="3.5" fill="#fff" opacity=".4"/><ellipse data-name="opacity" cx="51" cy="34.5" rx="4" ry="3.5" fill="#fff" opacity=".4"/><circle data-name="stroke" cx="17" cy="48" r="14" fill="none" stroke="#2f446a" stroke-linecap="round" stroke-linejoin="round" stroke-width="2"/><circle data-name="stroke" cx="47" cy="42" r="14" fill="none" stroke="#2f446a" stroke-linecap="round" stroke-linejoin="round" stroke-width="2"/><path data-name="stroke" d="M17 34s-.3-20 14-32c1.6 10.2 6.5 19.4 15.7 26M23 2h14" fill="none" stroke="#2f446a" stroke-linecap="round" stroke-linejoin="round" stroke-width="2"/></svg>