<svg viewBox="0 0 64 64" xmlns="http://www.w3.org/2000/svg" aria-labelledby="title" aria-describedby="desc"><path stroke-width="2" stroke-linejoin="round" stroke-linecap="round" stroke="#202020" fill="none" d="M12.983 44.548l-4.234 4.237A4.131 4.131 0 0 0 3.212 54.9c2.143 2.143 2.934 1.471 3.658 2.2 1 1 .426 1.887 2.2 3.66a4.142 4.142 0 0 0 5.857-5.86 4.123 4.123 0 0 0-.334-.25l4.228-4.228" data-name="layer2"/><circle stroke-width="2" stroke-linejoin="round" stroke-linecap="round" stroke="#202020" fill="none" r="1" cy="9.97" cx="43.999" data-name="layer2"/><circle stroke-width="2" stroke-linejoin="round" stroke-linecap="round" stroke="#202020" fill="none" r="1" cy="11.974" cx="35.999" data-name="layer2"/><circle stroke-width="2" stroke-linejoin="round" stroke-linecap="round" stroke="#202020" fill="none" r="1" cy="17.972" cx="45.999" data-name="layer2"/><path stroke-width="2" stroke-linejoin="round" stroke-linecap="round" stroke="#202020" fill="none" d="M55.85 8.175a21 21 0 0 0-29.7 0A21.827 21.827 0 0 0 24.618 9.9c-.1.127-.193.268-.291.4-.332.434-.658.869-.951 1.32-6.2 9.3-6.746 23.059-9.244 25.555l-.709.709a5 5 0 0 0 0 7.072l5.658 5.656a5 5 0 0 0 7.07 0l.709-.709c2.676-2.676 17.549-2.391 27.35-10.547a21.513 21.513 0 0 0 1.641-1.475 21 21 0 0 0-.001-29.706z" data-name="layer1"/></svg>