<svg xmlns="http://www.w3.org/2000/svg" viewBox="0 0 64 64" aria-labelledby="title" aria-describedby="desc"><path data-name="layer2" d="M11.1 17.5a6 6 0 1 1 10.6-5.3M4 2c3.2 0 8.7 2.2 9.9 6.3" fill="none" stroke="#202020" stroke-linecap="round" stroke-linejoin="round" stroke-width="2"/><path data-name="layer1" d="M60 58a4 4 0 0 0-4-4c-8.4 0-13.5-2.6-18.5-15.6s-6.5-18.2-9.2-22l-.9-1.1h-.1A10 10 0 0 0 10 22v.4c0 12 19.9 39.5 45.9 39.6h.2a4 4 0 0 0 3.9-4z" fill="none" stroke="#202020" stroke-linecap="round" stroke-linejoin="round" stroke-width="2"/></svg>