<svg xmlns="http://www.w3.org/2000/svg" viewBox="0 0 64 64" aria-labelledby="title" aria-describedby="desc"><path data-name="layer1" d="M31 12c-2.6-2.5-9.1-2.8-12 0S3 28 3 28h44zM9 62h32l6-34H3l6 34z" fill="#fdefe5"/><path data-name="opacity" d="M31 12c-2.6-2.5-9.1-2.8-12 0S3 28 3 28h44z" fill="#101129" opacity=".15"/><path data-name="opacity" fill="#101129" opacity=".14" d="M9 62h32L3 28l6 34z"/><path data-name="opacity" fill="#101129" opacity=".18" d="M23.2 46.1L10 62h31L23.2 46.1z"/><path data-name="stroke" d="M3 28l6 34h32l6-34-16-16c-2.6-2.5-9.1-2.8-12 0S3 28 3 28z" fill="none" stroke="#2f446a" stroke-linecap="round" stroke-linejoin="round" stroke-width="2"/><path data-name="stroke" fill="none" stroke="#2f446a" stroke-linecap="round" stroke-linejoin="round" stroke-width="2" d="M47 28H3l38 34m-26-6l8.2-9.9M53 2L41 16m20-9.2L42.4 22.3"/></svg>