<svg xmlns="http://www.w3.org/2000/svg" viewBox="0 0 64 64" aria-labelledby="title" aria-describedby="desc"><circle data-name="layer3" cx="15" cy="56" r="4" fill="#7b8baf"/><circle data-name="layer3" cx="51" cy="56" r="4" fill="#7b8baf"/><path data-name="layer2" d="M33 32a16 16 0 0 1-14.8-9.4A17.9 17.9 0 0 0 17 29c0 9.4 7.2 17 16 17s16-7.6 16-17a17.9 17.9 0 0 0-1.2-6.4A16 16 0 0 1 33 32z" fill="#49bcff"/><path data-name="layer1" d="M33 32a16 16 0 0 0 14.8-9.4A16 16 0 0 0 33 12a16 16 0 0 0-14.8 10.6A16 16 0 0 0 33 32z" fill="#c3d6e0"/><path data-name="opacity" d="M47.8 22.6A16 16 0 0 0 33 12c4 0 7.4 16.7 2.2 19.9a15.9 15.9 0 0 0 12.6-9.3z" fill="#fff" opacity=".5"/><path data-name="opacity" d="M49 29a17.9 17.9 0 0 0-1.2-6.4 14.9 14.9 0 0 1-2.8 4.3V28s0 10.4-4 15.7A17.2 17.2 0 0 0 49 29z" fill="#fff" opacity=".25"/><path data-name="opacity" d="M22.4 28.2a15.1 15.1 0 0 1-4.2-5.6A17.9 17.9 0 0 0 17 29c0 8.7 6.1 15.8 14 16.8-6.5-3-8.8-10.5-8.6-17.6z" fill="#000064" opacity=".15"/><path data-name="opacity" d="M18.2 22.6a15.1 15.1 0 0 0 4.2 5.6c.1-7.1 2.6-13.8 5.6-15.3a16.5 16.5 0 0 0-9.8 9.7z" fill="#000064" opacity=".15"/><ellipse data-name="stroke" cx="33" cy="29" rx="16" ry="17" fill="none" stroke="#2e4369" stroke-linecap="round" stroke-linejoin="round" stroke-width="2"/><path data-name="stroke" d="M16.3 52.2a30.1 30.1 0 0 1 7.5-9.3m25.9 9.3a30.1 30.1 0 0 0-7.5-9.3m5.6-20.3A16 16 0 0 1 33 32a16 16 0 0 1-14.8-9.4M33 12V4" fill="none" stroke="#2e4369" stroke-linecap="round" stroke-linejoin="round" stroke-width="2"/><circle data-name="stroke" cx="15" cy="56" r="4" fill="none" stroke="#2e4369" stroke-linecap="round" stroke-linejoin="round" stroke-width="2"/><circle data-name="stroke" cx="51" cy="56" r="4" fill="none" stroke="#2e4369" stroke-linecap="round" stroke-linejoin="round" stroke-width="2"/><path data-name="stroke" fill="none" stroke="#2e4369" stroke-linecap="round" stroke-linejoin="round" stroke-width="2" d="M2 8h60"/></svg>