<svg xmlns="http://www.w3.org/2000/svg" viewBox="0 0 64 64" aria-labelledby="title" aria-describedby="desc"><rect data-name="layer3" x="10" y="22" width="36" height="20" rx="2" ry="2" fill="#7b8baf"/><path data-name="opacity" d="M44 38H12a2 2 0 0 1-2-2v4a2 2 0 0 0 2 2h32a2 2 0 0 0 2-2v-4a2 2 0 0 1-2 2z" fill="#000064" opacity=".16"/><circle data-name="layer2" cx="38" cy="10" r="8" fill="#8fa9d8"/><circle data-name="layer2" cx="18" cy="12" r="6" fill="#8fa9d8"/><path data-name="layer1" fill="#536897" d="M46 36l16 6V22l-16 6v8z"/><path data-name="opacity" fill="#000064" opacity=".16" d="M62 42v-9l-16-.1V36l16 6z"/><path data-name="stroke" fill="none" stroke="#2e4369" stroke-linecap="round" stroke-miterlimit="10" stroke-width="2" d="M28 42v20m-2-20L8 62m22-20l18 20m-2-34l16-6v20l-16-6" stroke-linejoin="round"/><rect data-name="stroke" x="10" y="22" width="36" height="20" rx="2" ry="2" fill="none" stroke="#2e4369" stroke-linecap="round" stroke-miterlimit="10" stroke-width="2" stroke-linejoin="round"/><circle data-name="stroke" cx="38" cy="10" r="8" fill="none" stroke="#2e4369" stroke-linecap="round" stroke-miterlimit="10" stroke-width="2" stroke-linejoin="round"/><circle data-name="stroke" cx="18" cy="12" r="6" fill="none" stroke="#2e4369" stroke-linecap="round" stroke-miterlimit="10" stroke-width="2" stroke-linejoin="round"/></svg>