<svg xmlns="http://www.w3.org/2000/svg" viewBox="0 0 64 64" aria-labelledby="title" aria-describedby="desc"><path data-name="layer2" d="M24 2a22 22 0 1 0 22 22A22 22 0 0 0 24 2zm0 26a4 4 0 1 1 4-4 4 4 0 0 1-4 4z" fill="#7b8baf"/><path data-name="layer1" d="M15.2 20.4l-6-2.4a15.9 15.9 0 0 0 0 12l6-2.4a9.5 9.5 0 0 1 0-7.1zm5.1 12.3l-2.6 6a15.9 15.9 0 0 0 11.9.3l-2.3-6.1a9.4 9.4 0 0 1-7.1-.2zm7.1-17.6L29.6 9a15.9 15.9 0 0 0-11.9.3l2.6 6a9.4 9.4 0 0 1 7.1-.2zM40 24a15.9 15.9 0 0 0-1.3-6.4l-6 2.6a9.5 9.5 0 0 1 0 7.6l6 2.6A15.9 15.9 0 0 0 40 24z" fill="#3c5489"/><path data-name="stroke" d="M32 62H6a4 4 0 0 1-4-4 4 4 0 0 1 4-4h48a8 8 0 0 0 8-8 8 8 0 0 0-8-8H41M15.4 27.5L9.2 30a15.9 15.9 0 0 1 0-12l6.2 2.5m4.9-5.1l-2.6-6.1A15.9 15.9 0 0 1 29.6 9l-2.3 6.2m5.3 5.1l6.1-2.6a16 16 0 0 1 0 12.7l-6.1-2.6m-5.3 4.9l2.3 6.3a15.9 15.9 0 0 1-11.9-.3l2.6-6.1" fill="none" stroke="#2e4369" stroke-linecap="round" stroke-miterlimit="10" stroke-width="2" stroke-linejoin="round"/><circle data-name="stroke" cx="24" cy="24" r="22" fill="none" stroke="#2e4369" stroke-linecap="round" stroke-miterlimit="10" stroke-width="2" stroke-linejoin="round"/><circle data-name="stroke" cx="24" cy="24" r="4" fill="none" stroke="#2e4369" stroke-linecap="round" stroke-miterlimit="10" stroke-width="2" stroke-linejoin="round"/></svg>