<svg xmlns="http://www.w3.org/2000/svg" viewBox="0 0 64 64" aria-labelledby="title" aria-describedby="desc"><path data-name="layer1" d="M62 28l-8 16v4c0 2.2-.6 6-6 6H16c-4 0-6-1.7-6-6V28z" fill="#f26950"/><path data-name="opacity" d="M18 48V28h-8v20c0 4.3 2 6 6 6h8c-4 0-6-1.7-6-6z" fill="#101129" opacity=".25"/><path data-name="opacity" d="M57 28l-8 16v4c0 2.2-.6 6-6 6h5c5.4 0 6-3.8 6-6v-4l8-16z" fill="#fff" opacity=".25"/><path data-name="layer1" d="M44 28c0-5.2-4-13.9-12-18-8 3.7-12 13-12 18" fill="#f26950"/><path data-name="opacity" d="M20 28h12V10c-8 3.7-12 13-12 18z" fill="#101129" opacity=".25"/><path data-name="stroke" d="M62 28l-8 16v4c0 2.2-.6 6-6 6H16c-4 0-6-1.7-6-6V28zm-52 0c-4 0-8 1.8-8 8v14m42-22c0-5.2-4-13.9-12-18-8 3.7-12 13-12 18m12 0V10" fill="none" stroke="#2f446a" stroke-linecap="round" stroke-linejoin="round" stroke-width="2"/></svg>