<svg xmlns="http://www.w3.org/2000/svg" viewBox="0 0 64 64" aria-labelledby="title" aria-describedby="desc"><path data-name="layer1" d="M39 6h-2.1a5 5 0 0 0-9.8 0H25a4.7 4.7 0 0 0-5 5v3h24v-3a4.8 4.8 0 0 0-5-5z" fill="#202020"/><path data-name="layer2" fill="#202020" d="M38 53l9-9h-9v9z"/><path data-name="layer2" fill="#202020" d="M44 17H17v36h17V40h13V17h-3z"/><path data-name="layer1" d="M54 8h-6.5a9.5 9.5 0 0 1 .5 3v2h3v33L40 57H13V13h3v-2a9.8 9.8 0 0 1 .5-3H10a2 2 0 0 0-2 2v50a2 2 0 0 0 2 2h44a2 2 0 0 0 2-2V10a2 2 0 0 0-2-2z" fill="#202020"/></svg>