<svg xmlns="http://www.w3.org/2000/svg" viewBox="0 0 64 64" aria-labelledby="title" aria-describedby="desc"><path data-name="layer2" d="M32 2a30 30 0 1 0 30 30A30 30 0 0 0 32 2zm0 54a24 24 0 1 1 24-24 24 24 0 0 1-24 24z" fill="#ff5a6f"/><circle data-name="layer1" cx="32" cy="32" r="24" fill="#e1f4f3"/><path data-name="opacity" d="M32 8a23.946 23.946 0 0 0-18.4 8.6 24 24 0 0 1 33.8 33.8A24 24 0 0 0 32 8z" fill="#000064" opacity=".15"/><path data-name="opacity" d="M39 40a1.992 1.992 0 0 1-.893-.211L29 35.236V19a2 2 0 0 1 4 0v13.764l6.895 3.447A2 2 0 0 1 39 40z" fill="#000064" opacity=".15"/><circle data-name="stroke" cx="32" cy="32" r="30" fill="none" stroke="#2e4369" stroke-linecap="round" stroke-miterlimit="10" stroke-width="2" stroke-linejoin="round"/><circle data-name="stroke" cx="32" cy="32" r="24" fill="none" stroke="#2e4369" stroke-linecap="round" stroke-miterlimit="10" stroke-width="2" stroke-linejoin="round"/><path data-name="stroke" fill="none" stroke="#2e4369" stroke-linecap="round" stroke-miterlimit="10" stroke-width="2" d="M32 16v17l10 6" stroke-linejoin="round"/></svg>