<svg viewBox="0 0 64 64" xmlns="http://www.w3.org/2000/svg" aria-labelledby="title" aria-describedby="desc"><path fill="#202020" d="M46 26a16 16 0 1 0 16 16 16 16 0 0 0-16-16zm7.414 20.586a2 2 0 1 1-2.828 2.828L46 44.828l-4.586 4.586a2 2 0 0 1-2.828-2.828L43.172 42l-4.586-4.586a2 2 0 0 1 2.828-2.828L46 39.172l4.586-4.586a2 2 0 0 1 2.828 2.828L48.828 42z" data-name="layer3"/><path fill="#202020" d="M2 50h25.682A19.977 19.977 0 0 1 54 23.682V20H2z" data-name="layer2"/><path fill="#202020" d="M2 6v10h52V6zm6 7a2 2 0 1 1 2-2 2 2 0 0 1-2 2zm6 0a2 2 0 1 1 2-2 2 2 0 0 1-2 2zm6 0a2 2 0 1 1 2-2 2 2 0 0 1-2 2z" data-name="layer1"/></svg>