<svg xmlns="http://www.w3.org/2000/svg" viewBox="0 0 64 64" aria-labelledby="title" aria-describedby="desc"><path data-name="layer1" fill="none" stroke="#202020" stroke-miterlimit="10" stroke-width="2" d="M44 46v10m-8-10v4m-8-4v10m-8-10v6" stroke-linejoin="round" stroke-linecap="round"/><path data-name="layer2" d="M45.8 38A10.1 10.1 0 0 0 56 28.1a10.1 10.1 0 0 0-10.2-9.9h-1A13.6 13.6 0 0 0 32.1 10a13.5 13.5 0 0 0-13.5 11.5h-.1a8.2 8.2 0 1 0 0 16.5zM15.7 22A10 10 0 1 1 26 11.4" fill="none" stroke="#202020" stroke-miterlimit="10" stroke-width="2" stroke-linejoin="round" stroke-linecap="round"/><path data-name="layer1" fill="none" stroke="#202020" stroke-miterlimit="10" stroke-width="2" d="M20 56v2m8 2v2m8-8v2m8 4v2" stroke-linejoin="round" stroke-linecap="round"/></svg>