<svg xmlns="http://www.w3.org/2000/svg" viewBox="0 0 64 64" aria-labelledby="title" aria-describedby="desc"><path data-name="layer2" d="M43.5 25h-.4a13.6 13.6 0 0 0-25.7 3.8A8.8 8.8 0 1 0 14.8 46h28.7a10.5 10.5 0 0 0 0-21z" fill="#cdf0f0"/><path data-name="opacity" d="M17 31.5a14.6 14.6 0 0 1 .3-2.7A8.8 8.8 0 1 0 14.8 46h16.6A14.5 14.5 0 0 1 17 31.5z" fill="#000064" opacity=".1"/><path data-name="opacity" d="M54 35.5A10.5 10.5 0 0 0 43.5 25h-.4A13.6 13.6 0 0 0 24 19h1a17 17 0 0 1 13.8 7.1 10.6 10.6 0 0 0-3.1 2.3 12 12 0 0 1 14.8 14.9 10.5 10.5 0 0 0 3.5-7.8z" fill="#fff" opacity=".5"/><path data-name="layer1" d="M14 6a12 12 0 0 0-3.4 23.5 8.8 8.8 0 0 1 6.8-.7A13.6 13.6 0 0 1 26 18.1 12 12 0 0 0 14 6z" fill="#fc0"/><path data-name="opacity" d="M10.6 29.5a8.8 8.8 0 0 1 6.8-.7A13.6 13.6 0 0 1 26 18.1v-.6l-2.2-.2a13.6 13.6 0 0 0-13.4 11.5 8.8 8.8 0 0 0-2.3-.4 11.9 11.9 0 0 0 2.5 1.1z" fill="#000064" opacity=".1"/><path data-name="stroke" d="M10.6 29.5A12 12 0 1 1 26 18m28 14a4 4 0 0 1 4 4 4 4 0 0 1-4 4h-6m10 14a4 4 0 0 0 4-4 4 4 0 0 0-4-4H48" fill="none" stroke="#2e4369" stroke-linecap="round" stroke-linejoin="round" stroke-width="2"/><path data-name="stroke" d="M49.2 26.8a10.3 10.3 0 0 0-5.6-1.6h-.4a13.6 13.6 0 0 0-25.8 3.6A8.8 8.8 0 1 0 14.8 46H37a5 5 0 0 1 5 5 5 5 0 0 1-5 5" fill="none" stroke="#2e4369" stroke-linecap="round" stroke-linejoin="round" stroke-width="2"/><path data-name="stroke" d="M23.3 38H40a4 4 0 0 0 4-4 4 4 0 0 0-4-4" fill="none" stroke="#2e4369" stroke-linecap="round" stroke-linejoin="round" stroke-width="2"/></svg>