<svg viewBox="0 0 64 64" xmlns="http://www.w3.org/2000/svg" aria-labelledby="title" aria-describedby="desc"><path fill="#202020" d="M43.8 18.233c-.332 0-.66.018-.984.05A13.628 13.628 0 0 0 30.165 10a13.474 13.474 0 0 0-13.516 11.54c-.039 0-.074-.013-.113-.013a8.241 8.241 0 1 0 0 16.473h27.316a10.055 10.055 0 0 0 10.164-9.882A10.059 10.059 0 0 0 43.8 18.233zm-30.412-.314a17.379 17.379 0 0 1 9.563-10.4 10 10 0 1 0-14.4 12.842 12.587 12.587 0 0 1 4.837-2.442z" data-name="layer2"/><path fill="#202020" d="M18 42a2.006 2.006 0 0 0-2 2v10.43a11.986 11.986 0 0 0-8.132-2.324 2 2 0 0 0 .332 3.986 8.01 8.01 0 0 1 7.973 4.721c.005.012.014.02.02.031A2 2 0 0 0 20 60V44a2.006 2.006 0 0 0-2-2zm-1.948 18.436l.006.018zm36.082-8.331A12 12 0 0 0 44 54.427V44a2 2 0 0 0-4 0v16a2 2 0 0 0 3.806.844c.005-.011.015-.019.02-.031a8.03 8.03 0 0 1 7.974-4.721 2 2 0 0 0 .334-3.986zm-8.191 8.35l.006-.02z" data-name="layer1"/><rect fill="#202020" ry="2" rx="2" height="14" width="4" y="42" x="24" data-name="layer1"/><rect fill="#202020" ry="2" rx="2" height="10" width="4" y="42" x="32" data-name="layer1"/><circle fill="#202020" r="2" cy="60" cx="26" data-name="layer1"/><circle fill="#202020" r="2" cy="56" cx="34" data-name="layer1"/><circle fill="#202020" r="2" cy="54" cx="58" data-name="layer1"/><circle fill="#202020" r="2" cy="54" cx="2" data-name="layer1"/></svg>