<svg xmlns="http://www.w3.org/2000/svg" viewBox="0 0 64 64" aria-labelledby="title" aria-describedby="desc"><path data-name="layer1" d="M55.3 41A12 12 0 0 0 44 25h-1.2a16 16 0 0 0-30.7 4H12a10 10 0 0 0-9.8 12z" fill="#cdf0f0"/><path data-name="layer1" d="M62 23a10 10 0 0 0-10-10 13 13 0 0 0-24.7 2h.7a16 16 0 0 1 14.8 10.1H44a12 12 0 0 1 11.1 7.5A10 10 0 0 0 62 23z" fill="#cdf0f0"/><path data-name="opacity" d="M62 23a10 10 0 0 0-10-10 13 13 0 0 0-24.7 2h.7a16 16 0 0 1 14.8 10.1H44a12 12 0 0 1 11.1 7.5A10 10 0 0 0 62 23zM14.6 41a16.7 16.7 0 0 1-2.3-11.8L12 29a10 10 0 0 0-9.8 12z" fill="#000064" opacity=".1"/><path data-name="opacity" d="M38.4 26.4l-1.1.6h.7a15 15 0 0 1 14.9 14h2.4A12 12 0 0 0 44 25h-1.2a16 16 0 0 0-12.1-9.8h-4.3a15.9 15.9 0 0 0-9.7 4.6 21.9 21.9 0 0 1 21.7 6.7z" fill="#fff" opacity=".5"/><path data-name="stroke" d="M55.8 35A12 12 0 0 0 44 25h-1.2a16 16 0 0 0-30.7 4H12a10 10 0 0 0-9.2 6M2 41h56M6 49h48m-42 8h38" fill="none" stroke="#2e4369" stroke-linecap="round" stroke-linejoin="round" stroke-width="2"/><path data-name="stroke" d="M55.1 32.5A10 10 0 0 0 52 13a13 13 0 0 0-24.7 2" fill="none" stroke="#2e4369" stroke-linecap="round" stroke-linejoin="round" stroke-width="2"/></svg>