<svg xmlns="http://www.w3.org/2000/svg" viewBox="0 0 64 64" aria-labelledby="title" aria-describedby="desc"><path data-name="layer1" d="M50 24a13 13 0 0 0-25 4.1h-1a8 8 0 1 0 0 16h26a10 10 0 0 0 0-20z" fill="#cdf0f0"/><path data-name="opacity" d="M25 30a14 14 0 0 1 .1-1.9H24a8 8 0 1 0 0 16h15A14 14 0 0 1 25 30z" fill="#000064" opacity=".1"/><path data-name="opacity" d="M46.2 24.8a10.1 10.1 0 0 0-3.5 2.5L45 27a12 12 0 0 1 11.8 14.3A10 10 0 0 0 50.6 24H50a13 13 0 0 0-20.8-4.6 17.7 17.7 0 0 1 16.9 5.4z" fill="#fff" opacity=".5"/><path data-name="layer2" d="M24 28h1.1a13 13 0 0 1 6.1-10 10 10 0 1 0-13.5 13.1A8 8 0 0 1 24 28z" fill="#fc0"/><path data-name="opacity" d="M17.7 31.1A8 8 0 0 1 24 28h1.1a13 13 0 0 1 6.1-10 10 10 0 0 0-.9-1.7 13 13 0 0 0-10.2 11.8H19a7.9 7.9 0 0 0-4 1.1 10 10 0 0 0 2.7 1.9z" fill="#000064" opacity=".1"/><circle data-name="layer1" cx="21" cy="53" r="1" fill="#cdf0f0"/><circle data-name="layer1" cx="29" cy="61" r="1" fill="#cdf0f0"/><circle data-name="layer1" cx="37" cy="53" r="1" fill="#cdf0f0"/><circle data-name="layer1" cx="53" cy="53" r="1" fill="#cdf0f0"/><circle data-name="layer1" cx="45" cy="61" r="1" fill="#cdf0f0"/><path data-name="stroke" d="M17.7 31a10 10 0 1 1 13.5-13.1M22 2v4M6 22H2M8 8l3 3m25-3l-3 3M11 33l-3 3" fill="none" stroke="#2e4369" stroke-linecap="round" stroke-linejoin="round" stroke-width="2"/><path data-name="stroke" d="M50 24a13 13 0 0 0-25 4.1h-1a8 8 0 1 0 0 16h26a10 10 0 0 0 0-20z" fill="none" stroke="#2e4369" stroke-linecap="round" stroke-linejoin="round" stroke-width="2"/><circle data-name="stroke" cx="21" cy="53" r="1" fill="none" stroke="#2e4369" stroke-linecap="round" stroke-linejoin="round" stroke-width="2"/><circle data-name="stroke" cx="29" cy="61" r="1" fill="none" stroke="#2e4369" stroke-linecap="round" stroke-linejoin="round" stroke-width="2"/><circle data-name="stroke" cx="37" cy="53" r="1" fill="none" stroke="#2e4369" stroke-linecap="round" stroke-linejoin="round" stroke-width="2"/><circle data-name="stroke" cx="53" cy="53" r="1" fill="none" stroke="#2e4369" stroke-linecap="round" stroke-linejoin="round" stroke-width="2"/><circle data-name="stroke" cx="45" cy="61" r="1" fill="none" stroke="#2e4369" stroke-linecap="round" stroke-linejoin="round" stroke-width="2"/></svg>