<svg xmlns="http://www.w3.org/2000/svg" viewBox="0 0 64 64" aria-labelledby="title" aria-describedby="desc"><path data-name="layer2" d="M10.6 29.5A12 12 0 1 1 26 18" fill="none" stroke="#202020" stroke-miterlimit="10" stroke-width="2" stroke-linejoin="round" stroke-linecap="round"/><path data-name="layer1" d="M54 32a4 4 0 0 1 4 4 4 4 0 0 1-4 4h-6m10 14a4 4 0 0 0 4-4 4 4 0 0 0-4-4H48m1.2-19.2a10.3 10.3 0 0 0-5.6-1.6h-.4a13.6 13.6 0 0 0-25.8 3.6A8.8 8.8 0 1 0 14.8 46H37a5 5 0 0 1 5 5 5 5 0 0 1-5 5" fill="none" stroke="#202020" stroke-miterlimit="10" stroke-width="2" stroke-linejoin="round" stroke-linecap="round"/><path data-name="layer1" d="M23.3 38H40a4 4 0 0 0 4-4 4 4 0 0 0-4-4" fill="none" stroke="#202020" stroke-miterlimit="10" stroke-width="2" stroke-linejoin="round" stroke-linecap="round"/></svg>