<svg xmlns="http://www.w3.org/2000/svg" viewBox="0 0 64 64" aria-labelledby="title" aria-describedby="desc"><path data-name="layer2" d="M45.8 38A10.1 10.1 0 0 0 56 28.1a10.1 10.1 0 0 0-10.2-9.9h-1A13.6 13.6 0 0 0 32.1 10a13.5 13.5 0 0 0-13.5 11.5h-.1a8.2 8.2 0 1 0 0 16.5z" fill="#cdf0f0"/><path data-name="layer1" d="M18.6 21.5A13.2 13.2 0 0 1 26 11.4 10 10 0 1 0 15.7 22a8.7 8.7 0 0 1 2.8-.5z" fill="#fc0"/><path data-name="opacity" d="M15.7 22a8.7 8.7 0 0 1 2.8-.5h.1A13.2 13.2 0 0 1 26 11.4a10 10 0 0 0-.2-1.4 13.4 13.4 0 0 0-12.2 11.5H13a10 10 0 0 0 2.6.4z" fill="#000064" opacity=".1"/><path data-name="opacity" d="M18 24a14 14 0 0 1 .2-2.5 8.2 8.2 0 1 0 .3 16.5H32a14 14 0 0 1-14-14z" fill="#000064" opacity=".1"/><path data-name="opacity" d="M56 28.6v-.5a10.1 10.1 0 0 0-10.2-9.8h-1v-.2A14 14 0 0 0 32.1 10a13.8 13.8 0 0 0-9.2 3.5 16.8 16.8 0 0 1 17.6 6.2 10.1 10.1 0 0 0-1.8 1.5L41 21a13 13 0 0 1 13 13h.1a9.9 9.9 0 0 0 1.9-5z" fill="#fff" opacity=".5"/><path data-name="stroke" d="M45.9 38A10.1 10.1 0 0 0 56 28.1a10.1 10.1 0 0 0-10.2-9.9h-1A13.6 13.6 0 0 0 32.2 10a13.5 13.5 0 0 0-13.5 11.5h-.1a8.2 8.2 0 1 0 0 16.5zM15.7 22A10 10 0 1 1 26 11.4M44 46v16m-8-16v6m-8-6v10m-8-10v16m-10-5.9A10 10 0 0 1 20 62m34-5.9A10 10 0 0 0 44 62m16-6" fill="none" stroke="#2e4369" stroke-linecap="round" stroke-linejoin="round" stroke-width="2"/><circle data-name="stroke" cx="60" cy="56" r="1" fill="none" stroke="#2e4369" stroke-linecap="round" stroke-linejoin="round" stroke-width="2"/><circle data-name="stroke" cx="4" cy="56" r="1" fill="none" stroke="#2e4369" stroke-linecap="round" stroke-linejoin="round" stroke-width="2"/></svg>