<svg xmlns="http://www.w3.org/2000/svg" viewBox="0 0 64 64" aria-labelledby="title" aria-describedby="desc"><path data-name="layer2" fill="none" stroke="#202020" stroke-miterlimit="10" stroke-width="2" d="M17.2 46l-6.4 8m16.4-8L14.4 62m22.8-16l-6.4 8m16.4-8L34.4 62" stroke-linejoin="round" stroke-linecap="round"/><path data-name="layer1" d="M46.8 38A10.1 10.1 0 0 0 57 28.1a10.1 10.1 0 0 0-10.2-9.9h-1A13.6 13.6 0 0 0 33.1 10a13.5 13.5 0 0 0-13.5 11.5h-.1a8.2 8.2 0 1 0 0 16.5zM16.7 22A10 10 0 1 1 27 11.4" fill="none" stroke="#202020" stroke-miterlimit="10" stroke-width="2" stroke-linejoin="round" stroke-linecap="round"/></svg>