<svg xmlns="http://www.w3.org/2000/svg" viewBox="0 0 64 64" aria-labelledby="title" aria-describedby="desc"><path data-name="layer2" d="M32 30c11.7 0 15.8-13.8 17.3-22H14.7c1.5 8.2 5.6 22 17.3 22z" fill="#f9d28c"/><path data-name="layer1" d="M49.3 8a54.4 54.4 0 0 0 .7-6H14a54.2 54.2 0 0 0 .7 6" fill="#d5e2f4"/><path data-name="opacity" d="M20.7 8.2V8h-6c1.3 7.7 5.1 20.3 15.1 21.8-5.6-5-8-14.9-9.1-21.6z" fill="#101129" opacity=".25"/><path data-name="opacity" d="M20 2h-6a54.2 54.2 0 0 0 .7 6h6c-.4-2.8-.6-5-.7-6z" fill="#101129" opacity=".18"/><path data-name="opacity" d="M33.6 28.9a9.1 9.1 0 0 0 5.6-3.3c3.5-5.1 5.2-12.1 6.1-17.1V8h-5.2c-.9 6.4-2.8 15-6.5 20.9zM40.1 8h5.2c.5-3.5.7-6 .7-6h-5.2c-.1 1.3-.3 3.1-.6 5.1z" fill="#fff" opacity=".5"/><path data-name="stroke" fill="none" stroke="#2f446a" stroke-linecap="round" stroke-linejoin="round" stroke-width="2" d="M32 30v32m-10 0h20M32 30c11.7 0 15.8-13.8 17.3-22H14.7c1.5 8.2 5.6 22 17.3 22zM49.3 8a54.4 54.4 0 0 0 .7-6H14a54.2 54.2 0 0 0 .7 6"/></svg>