<svg xmlns="http://www.w3.org/2000/svg" viewBox="0 0 64 64" aria-labelledby="title" aria-describedby="desc"><path data-name="layer1" d="M33.9 2.762a4.734 4.734 0 0 0-5.29.094L5.042 19.439A4.608 4.608 0 0 0 3 23.281v17.9a4.736 4.736 0 0 0 2.134 3.935L29.17 61.227a4.754 4.754 0 0 0 5.2 0l24.5-16.3A4.736 4.736 0 0 0 61 40.989V23.374a4.736 4.736 0 0 0-2.134-3.935z" fill="none" stroke="#202020" stroke-linecap="round" stroke-miterlimit="10" stroke-width="2" stroke-linejoin="round"/><path data-name="layer1" fill="none" stroke="#202020" stroke-linecap="round" stroke-miterlimit="10" stroke-width="2" d="M52.184 22.156l-9.002 6.091-8.537-6.184V9.789l17.539 12.367zM28.52 9.882v11.993l-8.723 6.09-8.631-5.902L28.52 9.882zM8.754 27.965l5.568 3.842-5.568 3.935v-7.777zm19.859 25.579L11.166 41.739l8.724-6.184 8.723 5.902v12.087zm-3.341-21.831l5.661-4.029 6.589 4.404-5.847 3.935-6.403-4.31zm9.558 21.831V41.457l8.352-5.621 9.002 5.996L34.83 53.544zM54.69 35.93l-5.94-3.936 5.94-4.029v7.965z" stroke-linejoin="round"/></svg>