<svg xmlns="http://www.w3.org/2000/svg" viewBox="0 0 64 64" aria-labelledby="title" aria-describedby="desc"><path data-name="layer2" d="M52 9v24.9C52 43.3 42.4 51 33 51h-2c-9.5 0-19-7.7-19-17.1V9zm0 4h1a9 9 0 0 1 9 9 9 9 0 0 1-9 9h-1" fill="none" stroke="#202020" stroke-linecap="round" stroke-linejoin="round" stroke-width="2"/><path data-name="layer1" d="M62 53a2 2 0 0 1-2 2H4a2 2 0 0 1-2-2 2 2 0 0 1 2-2h56a2 2 0 0 1 2 2z" fill="none" stroke="#202020" stroke-linecap="round" stroke-linejoin="round" stroke-width="2"/></svg>