<svg xmlns="http://www.w3.org/2000/svg" viewBox="0 0 64 64" aria-labelledby="title" aria-describedby="desc"><path data-name="layer1" d="M32 36C9.5 28.7 6.3 16 6.2 10.7 2.3 16.1.9 23.7 3 32c4.1 16.6 20.5 30 36.5 30a24.9 24.9 0 0 0 8.6-1.5C50.2 59.2 52.7 42.7 32 36z" fill="#664e4f"/><path data-name="opacity" d="M41.5 58C25.5 58 9.1 44.6 5 28a27.2 27.2 0 0 1 .6-16.3C2.2 17 1 24.2 3 32c4.1 16.6 20.5 30 36.5 30a24.9 24.9 0 0 0 8.6-1.5c.6-.4 1.2-1.8 1.3-3.8a25 25 0 0 1-7.9 1.3z" fill="#101129" opacity=".25"/><path data-name="layer1" d="M34.1 28C56 34.2 57.8 53.2 57.8 53.2c3.9-5.4 5.3-12.9 3.2-21.2C56.9 15.4 40.6 2 24.5 2a24.9 24.9 0 0 0-8.6 1.5C13.5 4.8 11.7 21.7 34.1 28z" fill="#664e4f"/><path data-name="stroke" d="M32 36C9.5 28.7 6.2 16 6.2 10.7 2.3 16.1.9 23.7 2.9 32c4.2 16.6 20.5 30 36.6 30a24.9 24.9 0 0 0 8.5-1.5c2.2-1.3 4.6-17.8-16-24.5z" fill="none" stroke="#2f446a" stroke-linecap="round" stroke-linejoin="round" stroke-width="2"/><path data-name="stroke" d="M34 28c22 6.2 23.8 25.2 23.8 25.2 3.9-5.4 5.3-12.9 3.2-21.2C56.9 15.4 40.5 2 24.5 2a24.9 24.9 0 0 0-8.6 1.5C13.4 4.8 11.6 21.7 34 28z" fill="none" stroke="#2f446a" stroke-linecap="round" stroke-linejoin="round" stroke-width="2"/></svg>