<svg xmlns="http://www.w3.org/2000/svg" viewBox="0 0 64 64" aria-labelledby="title" aria-describedby="desc"><path data-name="layer2" d="M54 12.5h-3.1l-2-5.3a1 1 0 0 0-.9-.7h-5.5L38.8.9a1 1 0 0 0-1.2-.3c-4 1.6-15 5.9-17.6 5.9h-6a1 1 0 0 0-.9.7l-1.8 5.3H10a1 1 0 0 0-1 1v7a1 1 0 0 0 1 1h44a1 1 0 0 0 1-1v-7a1 1 0 0 0-1-1z" fill="#202020"/><path data-name="layer1" d="M32 48.5a8 8 0 0 1-6.9-4H14.2l.8 18.1a1 1 0 0 0 1 .9h32a1 1 0 0 0 1-.9l.8-18.1H38.9a8 8 0 0 1-6.9 4zm-18.2-12h11.3a7.9 7.9 0 0 1 13.8 0h11.3l.5-11H13.2z" fill="#202020"/></svg>