<svg xmlns="http://www.w3.org/2000/svg" viewBox="0 0 64 64" aria-labelledby="title" aria-describedby="desc"><path data-name="layer1" d="M52 9v24.9C52 43.4 42.4 51 33 51h-2c-9.5 0-19-7.7-19-17.1V9z" fill="#d5e2f4"/><path data-name="opacity" d="M18 35.9V9h-6v24.9c0 8.5 7.7 15.5 16.1 16.9-5.7-3-10.1-8.6-10.1-14.9z" fill="#101129" opacity=".18"/><path data-name="layer1" d="M62 53a2 2 0 0 1-2 2H4a2 2 0 0 1-2-2 2 2 0 0 1 2-2h56a2 2 0 0 1 2 2z" fill="#d5e2f4"/><path data-name="opacity" d="M39 49s5.6-2 8.4-6.5a14.6 14.6 0 0 0 1.6-6.6V9h-6v29.9A15.5 15.5 0 0 1 39 49z" fill="#fff" opacity=".5"/><path data-name="stroke" d="M52 9v24.9C52 43.4 42.4 51 33 51h-2c-9.5 0-19-7.7-19-17.1V9zm0 4h1a9 9 0 0 1 9 9 9 9 0 0 1-9 9h-1m10 22a2 2 0 0 1-2 2H4a2 2 0 0 1-2-2 2 2 0 0 1 2-2h56a2 2 0 0 1 2 2z" fill="none" stroke="#2f446a" stroke-linecap="round" stroke-linejoin="round" stroke-width="2"/></svg>