<svg viewBox="0 0 64 64" xmlns="http://www.w3.org/2000/svg" aria-labelledby="title" aria-describedby="desc"><path fill="#775958" d="M39.025 36.465c3.352 9.283-1.988 17.943-11.93 19.348-9.94 1.402-20.716-4.985-24.068-14.268-3.351-9.281 1.989-17.943 11.93-19.346 9.94-1.402 20.715 4.985 24.068 14.266z" data-name="layer1"/><path fill="#775958" d="M40.045 41.996c8.998-.127 17.967-6.125 20.975-14.457 3.35-9.283-1.99-17.945-11.93-19.347-9.94-1.403-20.715 4.986-24.069 14.265a30.93 30.93 0 0 0-.244.725" data-name="layer1"/><path opacity=".25" fill="#101129" d="M29.092 52.81C19.15 54.214 8.375 47.827 5.023 38.546a14.614 14.614 0 0 1 .32-11.402c-3.233 3.681-4.298 8.928-2.32 14.402 3.352 9.283 14.127 15.67 24.067 14.268 5.533-.781 9.634-3.815 11.611-7.947a15.421 15.421 0 0 1-9.61 4.945zm10.934-10.696c8.158 0 16.244-5.479 19.765-11.9-4.216 5.251-13.252 8.82-20.034 8.916a12.858 12.858 0 0 1 .27 2.984z" data-name="opacity"/><path opacity=".25" fill="#fff" d="M8.98 24.502c11.538-1.627 24.043 5.785 27.934 16.559a18.25 18.25 0 0 1 1.065 8.129 14.349 14.349 0 0 0 1.047-12.725C35.674 27.184 24.898 20.797 14.958 22.2a16.544 16.544 0 0 0-6.69 2.422c.237-.04.472-.084.712-.119z" data-name="opacity"/><path stroke-width="2" stroke-linejoin="round" stroke-linecap="round" stroke="#2f446a" fill="none" d="M9.98 32.002c3.659 4.922 5.946 5.82 12 6 6 .176 9.854 1.584 11.999 6" data-name="stroke"/><path stroke-width="2" stroke-linejoin="round" stroke-linecap="round" stroke="#2f446a" fill="none" d="M38.979 36.46c3.351 9.282-1.989 17.945-11.93 19.347S6.332 50.823 2.98 41.54c-3.35-9.282 1.99-17.944 11.93-19.346 9.94-1.403 20.715 4.984 24.069 14.265z" data-name="stroke"/><path stroke-width="2" stroke-linejoin="round" stroke-linecap="round" stroke="#2f446a" fill="none" d="M53.973 17.996c-3.659 4.92-5.946 5.82-12 5.998-4.424.131-7.682.932-9.95 3.116" data-name="stroke"/><path stroke-width="2" stroke-linejoin="round" stroke-linecap="round" stroke="#2f446a" fill="none" d="M40.037 41.99c8.998-.127 17.928-6.124 20.936-14.457 3.351-9.28-1.989-17.943-11.93-19.345-9.94-1.405-20.715 4.984-24.068 14.263-.086.245-.168.485-.245.727" data-name="stroke"/></svg>