<svg xmlns="http://www.w3.org/2000/svg" viewBox="0 0 64 64" aria-labelledby="title" aria-describedby="desc"><path data-name="layer2" d="M55.1 32l-3.2-14 6-16h-48l6 16s-1.6 6.5-3.4 14" fill="#d5e2f4"/><path data-name="layer1" d="M55.1 32H12.4c-1.8 7.5-3.8 16-4.6 20-1.8 9.3 3.5 10 8 10h36c10.7 0 8-10 8-10z" fill="#664e4f"/><path data-name="opacity" d="M19.9 18l-6-16h-4l6 16s-1.6 6.5-3.4 14h4c1.8-7.5 3.4-14 3.4-14zm-8 34c.8-4 2.8-12.5 4.6-20h-4c-1.8 7.5-3.8 16-4.6 20-1.8 9.3 3.5 10 8 10h4c-4.5 0-9.8-.7-8-10z" fill="#101129" opacity=".25"/><path data-name="opacity" fill="#fff" opacity=".5" d="M46.7 18l6-16h-12l-2 16 1.6 14H50l-3.3-14zm8 34L50 32h-9.7l2.4 20s2.7 10-8 10h12c10.7 0 8-10 8-10z"/><path data-name="stroke" d="M55.8 18H9.9a5.7 5.7 0 0 0-6 6v14" fill="none" stroke="#2f446a" stroke-linecap="round" stroke-linejoin="round" stroke-width="2"/><path data-name="stroke" d="M55.1 32l-3.2-14 6-16h-48l6 16s-1.6 6.5-3.4 14m42.6 0H12.4c-1.8 7.5-3.8 16-4.6 20-1.8 9.3 3.5 10 8 10h36c10.7 0 8-10 8-10z" fill="none" stroke="#2f446a" stroke-linecap="round" stroke-linejoin="round" stroke-width="2"/></svg>