<svg xmlns="http://www.w3.org/2000/svg" viewBox="0 0 64 64" aria-labelledby="title" aria-describedby="desc"><path data-name="layer3" d="M60 8s-35.3 2.3-40.9 3.3S2 22.6 2 38c0 2.4.3 4 2 4s1.8-1.5 2-4 6-20 16-20h32z" fill="#536998"/><path data-name="layer2" d="M61.2 32a24 24 0 0 0-10-14H24.7a24 24 0 0 0-10 14" fill="#d5e2f4"/><path data-name="layer1" d="M14.8 32a24 24 0 0 0 7.4 24h31.6a24 24 0 0 0 7.4-24z" fill="#664e4f"/><path data-name="opacity" d="M29.7 18h-5a24 24 0 0 0-10 14h6c1.6-5.8 4.2-10.8 9-14zM20 38a24 24 0 0 1 .8-6h-6a24 24 0 0 0 7.4 24h5c-5-4.4-7.2-10.8-7.2-18z" fill="#101129" opacity=".25"/><path data-name="opacity" d="M57.3 32h-8.4a33.4 33.4 0 0 1 .5 6c0 7.2-2.3 13.6-5.8 18h7.1A25.3 25.3 0 0 0 58 38a26.9 26.9 0 0 0-.7-6zm-5.6-11h-7.3a27.5 27.5 0 0 1 4.5 11h8.5a24.8 24.8 0 0 0-5.7-11z" fill="#fff" opacity=".5"/><path data-name="stroke" d="M60 8s-35.3 2.3-40.9 3.3S2 22.6 2 38c0 2.4.3 4 2 4s1.8-1.5 2-4 6-20 16-20h32z" fill="none" stroke="#2f446a" stroke-linecap="round" stroke-linejoin="round" stroke-width="2"/><path data-name="stroke" d="M61.2 32a24 24 0 0 0-10-14H24.7a24 24 0 0 0-10 14m.1 0a24 24 0 0 0 7.4 24h31.6a24 24 0 0 0 7.4-24z" fill="none" stroke="#2f446a" stroke-linecap="round" stroke-linejoin="round" stroke-width="2"/></svg>