<svg xmlns="http://www.w3.org/2000/svg" viewBox="0 0 64 64" aria-labelledby="title" aria-describedby="desc"><path data-name="layer1" d="M60 19h-4.1c.1-.7.1-1.3.1-2H8c0 .7 0 1.3.1 2H4a2 2 0 0 0 0 4h4.7A24 24 0 0 0 32 41a10 10 0 0 0-9.1 6h18.2a10 10 0 0 0-9.1-6 24 24 0 0 0 23.3-18H60a2 2 0 0 0 0-4zm-24 2a2 2 0 1 1-2 2 2 2 0 0 1 2-2zm-8 0a2 2 0 1 1-2 2 2 2 0 0 1 2-2zm-8 4a2 2 0 1 1 2-2 2 2 0 0 1-2 2zm4 6a2 2 0 1 1 2-2 2 2 0 0 1-2 2zm4 6a2 2 0 1 1 2-2 2 2 0 0 1-2 2zm4-6a2 2 0 1 1 2-2 2 2 0 0 1-2 2zm4 6a2 2 0 1 1 2-2 2 2 0 0 1-2 2zm4-6a2 2 0 1 1 2-2 2 2 0 0 1-2 2zm4-6a2 2 0 1 1 2-2 2 2 0 0 1-2 2z" fill="#202020"/></svg>