<svg xmlns="http://www.w3.org/2000/svg" viewBox="0 0 64 64" aria-labelledby="title" aria-describedby="desc"><path data-name="layer1" d="M57.1 16.2a9.3 9.3 0 0 0-15.9-6.5L35.8 15 34 13.2a2 2 0 0 0-2.9 2.8l1.9 1.9-19.5 19.4a9.3 9.3 0 0 0-2.5 8.5l-3 3.1a3.5 3.5 0 0 0 0 4.9l2.2 2.2a3.5 3.5 0 0 0 4.9 0l3.1-3 1.9.2a9.2 9.2 0 0 0 6.6-2.7L46.1 31l1.9 1.9a2 2 0 0 0 2.8-2.9L49 28.2l5.4-5.4a9.2 9.2 0 0 0 2.7-6.6zM23.9 47.6a5.4 5.4 0 0 1-5.6 1.2l-1.2-.4-4.4 4.4-1.5-1.5 4.4-4.4-.4-1.2a5.3 5.3 0 0 1 1.2-5.6l19.4-19.4 7.5 7.5z" fill="#202020"/></svg>