<svg xmlns="http://www.w3.org/2000/svg" viewBox="0 0 64 64" aria-labelledby="title" aria-describedby="desc"><path data-name="layer1" d="M32 0A32 32 0 0 0 .3 36.4C1.4 41.7 5.5 48 18.9 48a64.1 64.1 0 0 0 8.3-.7 36.7 36.7 0 0 1 4.2-.4c1.3 0 1.5.2 1.5.3s.3.4.1 1.9-.5.5-2.2.8-6.8 1.3-6.8 7c0 4.1 3.4 6.8 9 7.1h.2a32 32 0 0 0 15.2-4.4h.1l.8-.6 1-.6h.2A32 32 0 0 0 32 0zM19.2 37.3a6 6 0 1 1 0-8.5 6 6 0 0 1 0 8.5zm2.6-15.4a4 4 0 0 1-5.7-5.7 4.1 4.1 0 0 1 5.7 0 4 4 0 0 1 0 5.7zm13.7-4.3A5 5 0 1 1 37 14a5 5 0 0 1-1.5 3.5zm14 6A5 5 0 1 1 51 20a5 5 0 0 1-1.5 3.5z" fill="#202020"/></svg>