<svg xmlns="http://www.w3.org/2000/svg" viewBox="0 0 64 64" aria-labelledby="title" aria-describedby="desc"><circle data-name="layer3" cx="45" cy="8" r="6" fill="#5951f2"/><circle data-name="layer3" cx="9" cy="51" r="7" fill="#5951f2"/><circle data-name="layer2" cx="32" cy="32" r="10" fill="#e26076"/><circle data-name="layer1" cx="16" cy="14" r="4" fill="#cc51bd"/><circle data-name="layer1" cx="55" cy="55" r="7" fill="#cc51bd"/><path data-name="opacity" d="M50.77 9.629a5.992 5.992 0 0 1-10.54-5.258 6 6 0 1 0 10.54 5.258zM4 48a6.974 6.974 0 0 1 .374-2.244 7 7 0 1 0 11.251 7.488A6.992 6.992 0 0 1 4 48zm21-20a9.965 9.965 0 0 1 .752-3.8 10 10 0 1 0 15.5 11.6A9.994 9.994 0 0 1 25 28zm-8-12a3.958 3.958 0 0 1-3.929-4.707 3.992 3.992 0 1 0 6.857 3.414A3.976 3.976 0 0 1 17 16zm33 36a6.974 6.974 0 0 1 .374-2.244 7 7 0 1 0 11.251 7.488A6.992 6.992 0 0 1 50 52z" fill="#000064" opacity=".16"/><path data-name="opacity" d="M36.432 26.568c-3.185-3.064-7.037-.9-6.352.3.518 1.152 2.24 1.882 3.087 2.964 1.082.847 1.812 2.568 2.964 3.087 1.201.681 3.369-3.166.301-6.351z" fill="#fff" opacity=".4"/><path data-name="stroke" fill="none" stroke="#2e4369" stroke-linecap="round" stroke-miterlimit="10" stroke-width="2" d="M41.91 13.142l-5.222 10.023M23.912 37.894l-9.359 8.845" stroke-linejoin="round"/><circle data-name="stroke" cx="45" cy="8" r="6" fill="none" stroke="#2e4369" stroke-linecap="round" stroke-miterlimit="10" stroke-width="2" stroke-linejoin="round"/><circle data-name="stroke" cx="9" cy="51" r="7" fill="none" stroke="#2e4369" stroke-linecap="round" stroke-miterlimit="10" stroke-width="2" stroke-linejoin="round"/><circle data-name="stroke" cx="32" cy="32" r="10" fill="none" stroke="#2e4369" stroke-linecap="round" stroke-miterlimit="10" stroke-width="2" stroke-linejoin="round"/><path data-name="stroke" d="M32 26a6 6 0 0 1 6 6m1.178 6.961l10.588 11.402M18.719 16.928l6.869 7.398" fill="none" stroke="#2e4369" stroke-linecap="round" stroke-miterlimit="10" stroke-width="2" stroke-linejoin="round"/><circle data-name="stroke" cx="16" cy="14" r="4" fill="none" stroke="#2e4369" stroke-linecap="round" stroke-miterlimit="10" stroke-width="2" stroke-linejoin="round"/><circle data-name="stroke" cx="55" cy="55" r="7" fill="none" stroke="#2e4369" stroke-linecap="round" stroke-miterlimit="10" stroke-width="2" stroke-linejoin="round"/></svg>