<svg xmlns="http://www.w3.org/2000/svg" viewBox="0 0 64 64" aria-labelledby="title" aria-describedby="desc"><path data-name="layer2" d="M53.2 10.8a30 30 0 1 0 0 42.4 30 30 0 0 0 0-42.4zM32 33a1 1 0 1 1 1-1 1 1 0 0 1-1 1z" fill="#a3b8df"/><path data-name="layer1" d="M26.3 26.3a8 8 0 1 0 11.3 0 8 8 0 0 0-11.3 0zM32 33a1 1 0 1 1 1-1 1 1 0 0 1-1 1z" fill="#bdcce8"/><path data-name="opacity" d="M37.7 26.3a8 8 0 0 1 1.3 1.8l19.1-10.9A30 30 0 0 0 32 2v22a8 8 0 0 1 5.7 2.3zM26.3 37.7a8 8 0 0 1-1.6-2.4L4.6 44.2a30 30 0 0 0 16.3 15.7L29 39.4a8 8 0 0 1-2.7-1.7z" fill="#fff" opacity=".4"/><circle data-name="stroke" cx="32" cy="32" r="30" transform="rotate(-45 31.977 32.055)" fill="none" stroke="#2e4369" stroke-linecap="round" stroke-miterlimit="10" stroke-width="2" stroke-linejoin="round"/><path data-name="stroke" fill="none" stroke="#2e4369" stroke-linecap="round" stroke-miterlimit="10" stroke-width="2" d="M39 28.1l19.1-10.9M32 2v22m-3 15.4l-8.1 20.5M4.6 44.2l20.1-9" stroke-linejoin="round"/><circle data-name="stroke" cx="32" cy="32" r="8" transform="rotate(-45 31.977 32.055)" fill="none" stroke="#2e4369" stroke-linecap="round" stroke-miterlimit="10" stroke-width="2" stroke-linejoin="round"/><circle data-name="stroke" cx="32" cy="32" r="1" fill="none" stroke="#2e4369" stroke-linecap="round" stroke-miterlimit="10" stroke-width="2" stroke-linejoin="round"/></svg>