<svg xmlns="http://www.w3.org/2000/svg" viewBox="0 0 64 64" aria-labelledby="title" aria-describedby="desc"><circle data-name="layer2" cx="32" cy="32" r="24" fill="#eef5fc"/><path data-name="opacity" d="M32 8a24 24 0 0 0-20.6 11.7 24 24 0 0 1 37.2 29.6A24 24 0 0 0 32 8z" fill="#000064" opacity=".15"/><path data-name="layer1" d="M35.5 32L32 26l-3.5 6a3.9 3.9 0 0 0-.5 2 4 4 0 0 0 8 0 3.9 3.9 0 0 0-.5-2z" fill="#ed5448"/><path data-name="opacity" d="M28.5 32a3.9 3.9 0 0 0-.5 2 4 4 0 0 0 4 4V26z" fill="#000064" opacity=".15"/><path data-name="opacity" d="M32 38a4 4 0 0 1-4-4 3.9 3.9 0 0 1 0-.5 4 4 0 1 0 6 4 4 4 0 0 1-2 .5z" fill="#000064" opacity=".15"/><circle data-name="stroke" cx="32" cy="32" r="24" fill="none" stroke="#2e4369" stroke-linecap="round" stroke-linejoin="round" stroke-width="2"/><path data-name="stroke" d="M35.5 32L32 26l-3.5 6a3.9 3.9 0 0 0-.5 2 4 4 0 0 0 8 0 3.9 3.9 0 0 0-.5-2z" fill="none" stroke="#2e4369" stroke-linecap="round" stroke-linejoin="round" stroke-width="2"/></svg>