<svg xmlns="http://www.w3.org/2000/svg" viewBox="0 0 64 64" aria-labelledby="title" aria-describedby="desc"><path data-name="layer1" d="M32 34a2 2 0 0 1-1.4-3.4 2.1 2.1 0 0 1 2.8 0A2 2 0 0 1 32 34z" fill="#202020"/><path data-name="layer2" d="M34 24v.3a7.9 7.9 0 0 1 3.7 2.1h.3l19.1-10.9A30 30 0 0 0 34 2z" fill="#202020"/><path data-name="layer1" d="M23.9 33.4h.2a8 8 0 0 1 5.9-9.2V2A30 30 0 0 0 3.8 42.3z" fill="#202020"/><path data-name="layer2" d="M27.2 38.7v-.2l-.9-.8-.6-.7h-.2L5.4 45.9A30.1 30.1 0 0 0 19 59z" fill="#202020"/><path data-name="layer1" d="M59 18.9L39.9 29.8h-.2a8 8 0 0 1-8.8 10v.2l-8.2 20.5A30 30 0 0 0 59 18.9z" fill="#202020"/></svg>