<svg xmlns="http://www.w3.org/2000/svg" viewBox="0 0 64 64" aria-labelledby="title" aria-describedby="desc"><circle data-name="layer2" cx="32" cy="32" r="30" fill="#fff"/><path data-name="layer1" fill="#f26161" d="M20 44l6-18 18-6-6 18-18 6z"/><path data-name="opacity" fill="#000032" opacity=".2" d="M25.1 28.6L24 29l-6 18 18-6 .9-2.6L20 44l5.1-15.4z"/><path data-name="opacity" fill="#000032" opacity=".2" d="M26 26l-6 18 18-6-12-12z"/><path data-name="stroke" fill="none" stroke="#2e4369" stroke-linecap="round" stroke-linejoin="round" stroke-width="2" d="M32 2v8m0 44v8M2 32h8m43.9 0h8M20 44l6-18 18-6-6 18-18 6zm6-18l12 12"/><circle data-name="stroke" cx="32" cy="32" r="30" fill="none" stroke="#2e4369" stroke-linecap="round" stroke-linejoin="round" stroke-width="2"/></svg>