<svg xmlns="http://www.w3.org/2000/svg" viewBox="0 0 64 64" aria-labelledby="title" aria-describedby="desc"><circle data-name="layer2" cx="32" cy="32" r="30" fill="#eef5fc"/><path data-name="opacity" d="M32 2A30 30 0 0 0 6.7 16a30 30 0 0 1 45.6 38A30 30 0 0 0 32 2z" fill="#000064" opacity=".15"/><path data-name="layer1" fill="#ed5448" d="M24 40l4-12 12-4-4 12-12 4z"/><path data-name="opacity" fill="#000064" opacity=".15" d="M22 46l12-4 2-6-12 4-2 6z"/><path data-name="opacity" fill="#000064" opacity=".15" d="M40 24L24 40l12-4 4-12z"/><circle data-name="stroke" cx="32" cy="32" r="30" transform="rotate(-45 31.977 32.055)" fill="none" stroke="#2e4369" stroke-linecap="round" stroke-linejoin="round" stroke-width="2"/><path data-name="stroke" fill="none" stroke="#2e4369" stroke-linecap="round" stroke-linejoin="round" stroke-width="2" d="M24 40l4-12 12-4-4 12-12 4z"/></svg>