<svg xmlns="http://www.w3.org/2000/svg" viewBox="0 0 64 64" aria-labelledby="title" aria-describedby="desc"><circle data-name="layer4" cx="32" cy="22" r="18" fill="#fff"/><path data-name="layer3" d="M49.1 27.7l-1 2.4a18 18 0 0 1-31.8.5L2 25.9v28L20 60l24-6.1 18 6v-28z" fill="#c3d6f9"/><path data-name="layer2" fill="#f26161" d="M23.6 30.4l4.2-12.6 12.6-4.2-4.2 12.6-12.6 4.2z"/><path data-name="layer1" fill="#d34545" d="M40.4 13.6l-12.6 4.2-4.2 12.6 16.8-16.8z"/><path data-name="opacity" d="M32 40a17.9 17.9 0 0 1-12-4.6 18.1 18.1 0 0 1-3.8-4.8L2 25.9v28L20 60V40.6a17.9 17.9 0 0 0 23.1-4.5A17.9 17.9 0 0 1 32 40zm17.1-12.3l-1 2.4a18.1 18.1 0 0 1-4 5.3v18.5l18 6v-28z" fill="#000032" opacity=".2"/><path data-name="stroke" fill="none" stroke="#2e4369" stroke-linecap="round" stroke-linejoin="round" stroke-width="2" d="M16.2 30.6L2 25.9v28L20 60l24-6.1 18 6v-28L56 30m-36 5.4V60m24-24.6v18.5"/><path data-name="stroke" fill="none" stroke="#2e4369" stroke-linecap="round" stroke-linejoin="round" stroke-width="2" d="M23.6 30.4l4.2-12.6 12.6-4.2-4.2 12.6-12.6 4.2z"/><circle data-name="stroke" cx="32" cy="22" r="18" fill="none" stroke="#2e4369" stroke-linecap="round" stroke-linejoin="round" stroke-width="2"/></svg>