<svg xmlns="http://www.w3.org/2000/svg" viewBox="0 0 64 64" aria-labelledby="title" aria-describedby="desc"><path data-name="layer1" fill="#bacae9" d="M10 43h6.25L2 58l4 4 15.004-15.477.003 7.473L27 54V37H10v6zm43-1v-6H36v17h6v-6.758L57.758 62 62 57.758 46.242 42H53zm0-21h-6.471L62 6l-4-4-16 15.151V10h-6v17h17v-6zm-31-3.194L6 2 2 6l15.81 16H11v6h17V11h-6v6.806z"/><path data-name="stroke" fill="none" stroke="#2e4369" stroke-linecap="round" stroke-linejoin="round" stroke-width="2" d="M10 43h6.25L2 58l4 4 15.004-15.477.003 7.473L27 54V37H10v6zm43-1v-6H36v17h6v-6.758L57.758 62 62 57.758 46.242 42H53zm0-21h-6.471L62 6l-4-4-16 15.151V10h-6v17h17v-6zm-31-3.194L6 2 2 6l15.81 16H11v6h17V11h-6v6.806z"/></svg>