<svg xmlns="http://www.w3.org/2000/svg" viewBox="0 0 64 64" aria-labelledby="title" aria-describedby="desc"><path data-name="layer2" fill="none" stroke="#202020" stroke-linecap="round" stroke-linejoin="round" stroke-width="2" d="M6 22l3.1-10H23l3 10M12 12l2.7-10h2.8L20 12"/><rect data-name="layer2" x="4" y="22" width="24" height="40" rx="3" ry="3" fill="none" stroke="#202020" stroke-linecap="round" stroke-linejoin="round" stroke-width="2"/><path data-name="layer2" fill="none" stroke="#202020" stroke-linecap="round" stroke-linejoin="round" stroke-width="2" d="M6 22l3.1-10H23l3 10M12 12l2.7-10h2.8L20 12"/><rect data-name="layer2" x="4" y="22" width="24" height="40" rx="3" ry="3" fill="none" stroke="#202020" stroke-linecap="round" stroke-linejoin="round" stroke-width="2"/><ellipse data-name="layer2" cx="16" cy="40" rx="6" ry="8" fill="none" stroke="#202020" stroke-linecap="round" stroke-linejoin="round" stroke-width="2"/><path data-name="layer1" fill="none" stroke="#202020" stroke-linecap="round" stroke-linejoin="round" stroke-width="2" d="M38 22l3.1-10H55l3 10M44 12l2.7-10h2.8L52 12"/><rect data-name="layer1" x="36" y="22" width="24" height="40" rx="3" ry="3" fill="none" stroke="#202020" stroke-linecap="round" stroke-linejoin="round" stroke-width="2"/><ellipse data-name="layer1" cx="48" cy="40" rx="6" ry="8" fill="none" stroke="#202020" stroke-linecap="round" stroke-linejoin="round" stroke-width="2"/></svg>