<svg xmlns="http://www.w3.org/2000/svg" viewBox="0 0 64 64" aria-labelledby="title" aria-describedby="desc"><path data-name="layer3" fill="#fdc20f" d="M38 22l3.1-10H55l3 10M44 12l2.7-10h2.8L52 12"/><rect data-name="layer3" x="36" y="22" width="24" height="40" rx="3" ry="3" fill="#fdc20f"/><path data-name="opacity" fill="#101129" opacity=".24" d="M46.7 2L44 12h1.2l1.9-10h-.4zm-5.6 10L38 22h1a3 3 0 0 0-3 3v34a3 3 0 0 0 3 3h2.6c-1.2 0-2.1-1.3-2.1-3V25c0-1.7 1-3 2.1-3h-.7l2.2-10z"/><path data-name="opacity" d="M54.4 22h.7l-2.2-10h-2.1L49 2h-.5l1 10h1.1l1.1 10h-.4c.6 0 1.1 1.3 1.1 3v34c0 1.7-.5 3-1.1 3h3c1.2 0 2.1-1.3 2.1-3V25c.1-1.7-.9-3-2-3z" fill="#fff" opacity=".4"/><ellipse data-name="layer1" cx="48" cy="40" rx="6" ry="8" fill="#fff"/><path data-name="layer2" fill="#f04848" d="M6 22l3.1-10H23l3 10M12 12l2.7-10h2.8L20 12"/><rect data-name="layer2" x="4" y="22" width="24" height="40" rx="3" ry="3" fill="#f04848"/><path data-name="opacity" fill="#101129" opacity=".24" d="M14.7 2L12 12h1.2l1.9-10h-.4zM9.1 12L6 22h1a3 3 0 0 0-3 3v34a3 3 0 0 0 3 3h2.6c-1.2 0-2.1-1.3-2.1-3V25c0-1.7 1-3 2.1-3h-.7l2.2-10z"/><path data-name="opacity" d="M22.4 22h.7l-2.2-10h-2.1L17 2h-.5l1 10h1.1l1.1 10h-.4c.6 0 1.1 1.3 1.1 3v34c0 1.7-.5 3-1.1 3h3c1.2 0 2.1-1.3 2.1-3V25c.1-1.7-.9-3-2-3z" fill="#fff" opacity=".4"/><ellipse data-name="layer1" cx="16" cy="40" rx="6" ry="8" fill="#fff"/><path data-name="stroke" fill="none" stroke="#2f446a" stroke-linecap="round" stroke-linejoin="round" stroke-width="2" d="M38 22l3.1-10H55l3 10M44 12l2.7-10h2.8L52 12"/><rect data-name="stroke" x="36" y="22" width="24" height="40" rx="3" ry="3" fill="none" stroke="#2f446a" stroke-linecap="round" stroke-linejoin="round" stroke-width="2"/><path data-name="stroke" fill="none" stroke="#2f446a" stroke-linecap="round" stroke-linejoin="round" stroke-width="2" d="M6 22l3.1-10H23l3 10M12 12l2.7-10h2.8L20 12"/><rect data-name="stroke" x="4" y="22" width="24" height="40" rx="3" ry="3" fill="none" stroke="#2f446a" stroke-linecap="round" stroke-linejoin="round" stroke-width="2"/></svg>