<svg xmlns="http://www.w3.org/2000/svg" viewBox="0 0 64 64" aria-labelledby="title" aria-describedby="desc"><path data-name="layer2" d="M26 14a6 6 0 1 1 6 6 6 6 0 0 1-6-6zm15 10H23a3 3 0 0 0-3 3v14a3 3 0 0 0 3 3h3v13a3 3 0 0 0 3 3h6a3 3 0 0 0 3-3V44h3a3 3 0 0 0 3-3V27a3 3 0 0 0-3-3z" fill="#202020"/><circle data-name="layer1" cx="50" cy="10" r="6" fill="#202020"/><circle data-name="layer1" cx="14" cy="10" r="6" fill="#202020"/><path data-name="layer1" d="M59 20H41a7 7 0 0 1 7 7v14a7 7 0 0 1-4 6.3V53a3 3 0 0 0 3 3h6a3 3 0 0 0 3-3V40h3a3 3 0 0 0 3-3V23a3 3 0 0 0-3-3zM16 41V27a7 7 0 0 1 7-7H5a3 3 0 0 0-3 3v14a3 3 0 0 0 3 3h3v13a3 3 0 0 0 3 3h6a3 3 0 0 0 3-3v-5.7a7 7 0 0 1-4-6.3z" fill="#202020"/></svg>