<svg xmlns="http://www.w3.org/2000/svg" viewBox="0 0 64 64" aria-labelledby="title" aria-describedby="desc"><path data-name="layer2" d="M33.5 39.4a2 2 0 0 0 2.8 0l7.1-7 1.4-1.4-1.4-1.4-7.1-7a2 2 0 0 0-2.8 2.8l3.6 3.6H24a2 2 0 0 0 0 4h13.1l-3.6 3.6a2 2 0 0 0 0 2.8z" fill="#202020"/><path data-name="layer1" d="M52.5 8H42v8h12v38H41.3a9.5 9.5 0 0 1-8.8 6h-6.3a5.5 5.5 0 0 0 5.3 4h21a5.5 5.5 0 0 0 5.5-5.5v-45A5.5 5.5 0 0 0 52.5 8z" fill="#202020"/><path data-name="layer1" d="M38 50.5v-7.4a6 6 0 0 1-3.1.9H34v2H10V8h24v10.1h.9a6 6 0 0 1 3.1.9V5.5A5.5 5.5 0 0 0 32.5 0h-21A5.5 5.5 0 0 0 6 5.5v45a5.5 5.5 0 0 0 5.5 5.5h21a5.5 5.5 0 0 0 5.5-5.5z" fill="#202020"/></svg>