<svg xmlns="http://www.w3.org/2000/svg" viewBox="0 0 64 64" aria-labelledby="title" aria-describedby="desc"><path data-name="layer2" d="M52 22H36a9.969 9.969 0 0 0-4 .832l-.004.003a10.022 10.022 0 0 1 3.912 3.06l.01-.004.192-.003h15.78a6.111 6.111 0 0 1 0 12.223H36.11c-.063 0-.125-.008-.187-.01a6.105 6.105 0 0 1-5.624-7.995 10.209 10.209 0 0 0-3.553-1.883A9.99 9.99 0 0 0 36 42h16a10 10 0 0 0 0-20z" fill="#202020"/><path data-name="layer1" d="M35.908 25.895A9.977 9.977 0 0 0 28 22H12a10 10 0 0 0 0 20h16c.107 0 .211-.013.318-.016a12.834 12.834 0 0 1-2.89-3.873H12.114a6.111 6.111 0 1 1 0-12.223h15.781a6.111 6.111 0 0 1 4.113 10.631 6.08 6.08 0 0 0 3.916 1.583 9.977 9.977 0 0 0-.015-12.207z" fill="#202020"/></svg>