<svg xmlns="http://www.w3.org/2000/svg" viewBox="0 0 64 64" aria-labelledby="title" aria-describedby="desc"><path data-name="layer1" d="M8 50.5a3.5 3.5 0 0 0 3.5 3.5h21a3.5 3.5 0 0 0 3.5-3.5V44H8zm28-45A3.5 3.5 0 0 0 32.5 2h-21A3.5 3.5 0 0 0 8 5.5V10h28z" fill="#536897"/><path data-name="opacity" d="M13 50.5V44H8v6.5a3.5 3.5 0 0 0 3.5 3.5h5a3.5 3.5 0 0 1-3.5-3.5zM16.5 2h-5A3.5 3.5 0 0 0 8 5.5V10h5V5.5A3.5 3.5 0 0 1 16.5 2z" fill="#000064" opacity=".14"/><path data-name="layer2" fill="#a0d6ef" d="M8 10h28v34H8z"/><path data-name="layer2" d="M36 44v6.5a3.5 3.5 0 0 1-.4 1.5H56V18H36z" fill="#a0d6ef"/><path data-name="layer1" d="M52.5 10H36v8h20v-4.5a3.5 3.5 0 0 0-3.5-3.5zm-20 44H28v4.5a3.5 3.5 0 0 0 3.5 3.5h21a3.5 3.5 0 0 0 3.5-3.5V52H35.6a3.5 3.5 0 0 1-3.1 2z" fill="#536897"/><path data-name="opacity" d="M52.5 10H36v40.5a3.6 3.6 0 0 1-3.5 3.5H28v4.5a3.5 3.5 0 0 0 3.5 3.5h21a3.5 3.5 0 0 0 3.5-3.5v-45a3.5 3.5 0 0 0-3.5-3.5z" fill="#000064" opacity=".14"/><path data-name="opacity" fill="#fff" opacity=".25" d="M36 24L16 44h20V24zm0-14h-5L8 33v11l28-28v-6z"/><path data-name="stroke" fill="none" stroke="#2e4369" stroke-linecap="round" stroke-miterlimit="10" stroke-width="2" d="M24 31h18m-7.1-7l7.1 7-7.1 7" stroke-linejoin="round"/><path data-name="stroke" d="M36 44v6.5a3.5 3.5 0 0 1-3.5 3.5h-21A3.5 3.5 0 0 1 8 50.5v-45A3.5 3.5 0 0 1 11.5 2h21A3.5 3.5 0 0 1 36 5.5V18M8 10h28M8 44h28" fill="none" stroke="#2e4369" stroke-linecap="round" stroke-miterlimit="10" stroke-width="2" stroke-linejoin="round"/><path data-name="stroke" d="M36 10h16.5a3.5 3.5 0 0 1 3.5 3.5v45a3.5 3.5 0 0 1-3.5 3.5h-21a3.5 3.5 0 0 1-3.5-3.5V54m8-36h20M36 52h20" fill="none" stroke="#2e4369" stroke-linecap="round" stroke-miterlimit="10" stroke-width="2" stroke-linejoin="round"/></svg>