<svg xmlns="http://www.w3.org/2000/svg" viewBox="0 0 64 64" aria-labelledby="title" aria-describedby="desc"><path data-name="layer2" d="M35.9 38.1A10 10 0 0 0 28 22H12a10 10 0 0 0 0 20h16a10 10 0 0 0 4-.8m-3.9-3.1h-16a6.1 6.1 0 0 1 0-12.2h15.8A6.1 6.1 0 0 1 32 36.5" fill="none" stroke="#202020" stroke-miterlimit="10" stroke-width="2" stroke-linejoin="round" stroke-linecap="round"/><path data-name="layer1" d="M28.1 25.9A10 10 0 0 0 36 42h16a10 10 0 0 0 0-20H36a10 10 0 0 0-4 .8m3.9 3.1h16a6.1 6.1 0 0 1 0 12.2H36.1A6.1 6.1 0 0 1 32 27.5" fill="none" stroke="#202020" stroke-miterlimit="10" stroke-width="2" stroke-linejoin="round" stroke-linecap="round"/></svg>