<svg viewBox="0 0 64 64" xmlns="http://www.w3.org/2000/svg" aria-labelledby="title" aria-describedby="desc"><path fill="#92b5e4" d="M28 22H12a10 10 0 0 0 0 20h16a9.969 9.969 0 0 0 4-.832l3.907-3.046A10 10 0 0 0 28 22zm4 14.524l-3.919 1.584H12.113a6.111 6.111 0 1 1 0-12.223h15.781A6.111 6.111 0 0 1 32 36.524z" data-name="layer1"/><path opacity=".15" fill="#000028" d="M32 41.168l1.437-1.12h-.827a6.09 6.09 0 0 1-4.477-1.961l-.05.021h-4.662A10.021 10.021 0 0 0 26.6 42H28a9.968 9.968 0 0 0 4-.832z" data-name="opacity"/><path fill="#92b5e4" d="M52 22H36a9.969 9.969 0 0 0-4 .832l-3.918 3.061A10 10 0 0 0 36 42h16a10 10 0 0 0 0-20zm-.109 16.111H36.11A6.111 6.111 0 0 1 32 27.475l3.917-1.584h15.974a6.111 6.111 0 0 1 0 12.223z" data-name="layer1"/><path opacity=".15" fill="#000028" d="M26.3 29.576h.22a6.075 6.075 0 0 1 3.608 1.188A6.1 6.1 0 0 1 32 27.475l.208-.084a9.943 9.943 0 0 0-4.035-1.572l-.093.073a9.946 9.946 0 0 0-1.78 3.684z" data-name="opacity"/><path stroke-width="2" stroke-linejoin="round" stroke-linecap="round" stroke="#2e4369" fill="none" d="M35.908 38.123A10 10 0 0 0 28 22H12a10 10 0 0 0 0 20h16a9.968 9.968 0 0 0 4-.832" data-name="stroke"/><path stroke-width="2" stroke-linejoin="round" stroke-linecap="round" stroke="#2e4369" fill="none" d="M28.083 38.108h-15.97a6.111 6.111 0 0 1 0-12.223h15.781A6.111 6.111 0 0 1 32 36.524" data-name="stroke"/><path stroke-width="2" stroke-linejoin="round" stroke-linecap="round" stroke="#2e4369" fill="none" d="M28.082 25.892A10 10 0 0 0 36 42h16a10 10 0 0 0 0-20H36a9.968 9.968 0 0 0-4 .832" data-name="stroke"/><path stroke-width="2" stroke-linejoin="round" stroke-linecap="round" stroke="#2e4369" fill="none" d="M35.919 25.891h15.972a6.111 6.111 0 0 1 0 12.223H36.11A6.111 6.111 0 0 1 32 27.475" data-name="stroke"/></svg>