<svg xmlns="http://www.w3.org/2000/svg" viewBox="0 0 64 64" aria-labelledby="title" aria-describedby="desc"><path data-name="layer2" d="M54.6 1.8h-3v60h3a3 3 0 0 0 3-3v-54a3 3 0 0 0-3-3z" fill="#202020"/><path data-name="layer1" d="M13.6 1.8v4h-4a2 2 0 0 0 0 4h4v12h-4a2 2 0 0 0 0 4h4v12h-4a2 2 0 0 0 0 4h4v12h-4a2 2 0 0 0 0 4h4v4h34v-60zm10 42s0-3.6 3.3-4.3 3.3-1.9 3.3-2.7v-1.3a7.7 7.7 0 0 1-2.4-5.8v-3.6a5.8 5.8 0 0 1 11.6 0v3.7a7.7 7.7 0 0 1-2.5 5.7v1.2c0 .8 0 2 3.5 2.7s3.2 4.3 3.2 4.3z" fill="#202020"/></svg>