<svg xmlns="http://www.w3.org/2000/svg" viewBox="0 0 64 64" aria-labelledby="title" aria-describedby="desc"><path data-name="layer1" d="M62 0H2a2 2 0 0 0-2 2v60a2 2 0 0 0 2 2h60a2 2 0 0 0 2-2V2a2 2 0 0 0-2-2zM34.006 11.999h11.99a2 2 0 0 1 0 4h-11.99a2 2 0 0 1 0-4zM26 52.001H10v-16h16zm0-24.002H10v-16h16zm8.006 8h11.99a2 2 0 0 1 0 4h-11.99a2 2 0 0 1 0-4zm19.994 12H34.01a2 2 0 1 1 0-4H54a2 2 0 0 1 0 4zm0-16H34.01a2 2 0 0 1 0-4H54a2 2 0 0 1 0 4zm0-8H34.01a2 2 0 0 1 0-4H54a2 2 0 0 1 0 4z" fill="#202020"/></svg>