<svg xmlns="http://www.w3.org/2000/svg" viewBox="0 0 64 64" aria-labelledby="title" aria-describedby="desc"><path data-name="layer3" d="M10 10v44a8 8 0 0 0 8 8h36V18H18a8 8 0 0 1-8-8" fill="#ffc849"/><path data-name="layer2" d="M53 2H18a8 8 0 0 0 0 16h35z" fill="#fff"/><path data-name="opacity" d="M18 2a8 8 0 0 0-7.6 10.5A8 8 0 0 1 18 7h35V2z" fill="#000064" opacity=".1"/><path data-name="opacity" d="M10 10v44a8 8 0 0 0 8 8V18a8 8 0 0 1-8-8z" fill="#000064" opacity=".15"/><path data-name="layer1" d="M44.7 45.5c.6.4 1.5.9 1.3 2.1a6.2 6.2 0 0 1-5.9 4.4c-3.9 0-8.7-3.1-12.9-7.3S20 35.8 20 31.9a6.2 6.2 0 0 1 4.3-5.9c1.2-.2 1.7.7 2.1 1.3l3 4.5a2.1 2.1 0 0 1-.6 2.8c-1.3 1-2.5 1.4 2.3 6.2s5.1 3.5 6.2 2.3a2.1 2.1 0 0 1 2.8-.6z" fill="#8fa9d8"/><path data-name="stroke" fill="none" stroke="#2e4369" stroke-linecap="round" stroke-miterlimit="10" stroke-width="2" d="M18 10h32m-40 0v44a8 8 0 0 0 8 8h36V18H18a8 8 0 0 1 0-16h35v16" stroke-linejoin="round"/><path data-name="stroke" d="M44.7 45.5c.6.4 1.5.9 1.3 2.1a6.2 6.2 0 0 1-5.9 4.4c-3.9 0-8.7-3.1-12.9-7.3S20 35.8 20 31.9a6.2 6.2 0 0 1 4.3-5.9c1.2-.2 1.7.7 2.1 1.3l3 4.5a2.1 2.1 0 0 1-.6 2.8c-1.3 1-2.5 1.4 2.3 6.2s5.1 3.5 6.2 2.3a2.1 2.1 0 0 1 2.8-.6z" fill="none" stroke="#2e4369" stroke-linecap="round" stroke-miterlimit="10" stroke-width="2" stroke-linejoin="round"/></svg>