<svg xmlns="http://www.w3.org/2000/svg" viewBox="0 0 64 64" aria-labelledby="title" aria-describedby="desc"><path data-name="layer1" fill="none" stroke="#202020" stroke-miterlimit="10" stroke-width="2" d="M18 10h32" stroke-linejoin="round" stroke-linecap="round"/><path data-name="layer2" d="M54 2H18a8 8 0 0 0 0 16h36v44H18a8 8 0 0 1-8-8V10" fill="none" stroke="#202020" stroke-miterlimit="10" stroke-width="2" stroke-linejoin="round" stroke-linecap="round"/><path data-name="layer1" d="M44.7 45.5c.6.4 1.5.9 1.3 2.1a6.2 6.2 0 0 1-5.9 4.4c-3.9 0-8.7-3.1-12.9-7.3S20 35.8 20 31.9a6.2 6.2 0 0 1 4.3-5.9c1.2-.2 1.7.7 2.1 1.3l3 4.5a2.1 2.1 0 0 1-.6 2.8c-1.3 1-2.5 1.4 2.3 6.2s5.1 3.5 6.2 2.3a2.1 2.1 0 0 1 2.8-.6z" fill="none" stroke="#202020" stroke-miterlimit="10" stroke-width="2" stroke-linejoin="round" stroke-linecap="round"/></svg>