<svg xmlns="http://www.w3.org/2000/svg" viewBox="0 0 64 64" aria-labelledby="title" aria-describedby="desc"><path data-name="layer1" d="M54.2 2H9.8A7.8 7.8 0 0 0 2 9.8v44.4A7.8 7.8 0 0 0 9.8 62h44.4a7.8 7.8 0 0 0 7.8-7.8V9.8A7.8 7.8 0 0 0 54.2 2zM20 48h-2A10 10 0 0 1 8 38v-4a10 10 0 0 1 10-10h2a2 2 0 0 1 0 4h-2a6 6 0 0 0-6 6v4a6 6 0 0 0 6 6h2a2 2 0 0 1 0 4zm10-16h-2v12a2 2 0 0 1 0 4 4 4 0 0 1-4-4V32a2 2 0 0 1 0-4v-2a2 2 0 1 1 4 0v2h2a2 2 0 0 1 0 4zm8 4h-2v10a2 2 0 1 1-4 0V36a4 4 0 0 1 4-4h2a2 2 0 0 1 0 4zm8 12a4 4 0 0 1-4-4V26a2 2 0 1 1 4 0v18a2 2 0 0 1 0 4z" fill="#202020"/></svg>