<svg xmlns="http://www.w3.org/2000/svg" viewBox="0 0 64 64" aria-labelledby="title" aria-describedby="desc"><path data-name="layer2" d="M28.5 35.5c1.1 3.1-1 5.4-4.2 4.2m4.2-4.2c-.8-3.2 1-5.2 4.2-4.2s5.2-1 4.2-4.2.9-5.1 4.2-4.2 5.1-.9 4.2-4.2 1.1-5.3 4.2-4.2 5.3-1.1 4.2-4.2M17.9 46.1L2 62" fill="none" stroke="#202020" stroke-linecap="round" stroke-linejoin="round" stroke-width="2"/><path data-name="layer1" d="M30.2 46.1a8.7 8.7 0 0 1-12.3 0 8.7 8.7 0 0 1 0-12.3L47.2 4.5a8.7 8.7 0 0 1 12.3 0 8.7 8.7 0 0 1 0 12.3z" fill="none" stroke="#202020" stroke-linecap="round" stroke-linejoin="round" stroke-width="2"/></svg>