<svg xmlns="http://www.w3.org/2000/svg" viewBox="0 0 64 64" aria-labelledby="title" aria-describedby="desc"><path data-name="layer2" d="M3.1 30.9L30 15.1a8.6 8.6 0 0 1 7-.6L62 25 30 43S8.2 32.6 4.5 31" fill="#9cf"/><path data-name="layer1" d="M4.5 31C8.2 32.6 30 43 30 43l32-18s-2 5 0 8L30 51 4 39c-2.7-1.3-3.1-9.6.5-8" fill="#fff"/><path d="M4.5 35C8.2 36.6 30 47 30 47l31.1-17.5A14.2 14.2 0 0 1 62 25L30 43S8.2 32.6 4.5 31c-2.5-1.1-3.1 2.4-2.4 5.1A1.6 1.6 0 0 1 4.5 35z" fill="#000064" opacity=".15"/><path data-name="opacity" d="M36.3 15.7l1.6-.8-1-.4a8.6 8.6 0 0 0-7 .6L3.1 30.9h1.4l3.4 1.6C15 27.9 34.2 17 36.3 15.7z" fill="#000064" opacity=".15"/><path data-name="stroke" d="M4.5 31c-3.6-1.6-3.2 6.7-.5 8l26 12 32-18" fill="none" stroke="#2e4369" stroke-linecap="round" stroke-miterlimit="10" stroke-width="2" stroke-linejoin="round"/><path data-name="stroke" d="M3.1 30.9L30 15.1a8.6 8.6 0 0 1 7-.6L62 25 30 43S8.2 32.6 4.5 31" fill="none" stroke="#2e4369" stroke-linecap="round" stroke-miterlimit="10" stroke-width="2" stroke-linejoin="round"/></svg>