<svg xmlns="http://www.w3.org/2000/svg" viewBox="0 0 64 64" aria-labelledby="title" aria-describedby="desc"><path data-name="layer1" fill="#eac57d" d="M6 28v28h42v-8H14V28m0-8v-6H6v6"/><path data-name="opacity" fill="#000028" opacity=".15" d="M14 34v-6H6v6"/><path data-name="layer1" fill="#eac57d" d="M44 48V20H2v8h34v20m0 8v6h8v-6"/><path data-name="opacity" fill="#000028" opacity=".15" d="M36 56v6h8v-6m-.8-36l-8.3 8H36v5.5l8-8V20h-.8z"/><path data-name="stroke" fill="none" stroke="#2e4369" stroke-linecap="round" stroke-linejoin="round" stroke-width="2" d="M6 28v28h42v-8H14V28m0-8v-6H6v6"/><path data-name="stroke" fill="none" stroke="#2e4369" stroke-linecap="round" stroke-linejoin="round" stroke-width="2" d="M44 48V20H2v8h34v20m0 8v6h8v-6m-30-8L62 2"/></svg>