<svg viewBox="0 0 64 64" xmlns="http://www.w3.org/2000/svg" aria-labelledby="title" aria-describedby="desc"><circle fill="#fc6" r="6" cy="9" cx="31" data-name="layer2"/><path opacity=".15" fill="#000064" d="M33 13a5.99 5.99 0 0 1-5.118-9.118 5.995 5.995 0 1 0 8.236 8.236A5.96 5.96 0 0 1 33 13z" data-name="opacity"/><path fill="#ff6361" d="M45 23a15.917 15.917 0 0 0-7 1.609v.019a15.851 15.851 0 0 0-13.98-.007L24 24.61A16 16 0 0 0 6.992 51.483S11 55 11 59h40c0-4 4-7.511 4-7.511A16 16 0 0 0 45 23z" data-name="layer1"/><path opacity=".15" fill="#000064" d="M21 38c0-7.816 2.877-14.659 10.47-14.971-.158 0-.311-.027-.47-.027a15.9 15.9 0 0 0-6.982 1.621L24 24.61A16 16 0 0 0 6.992 51.483S11 55 11 59h14.985A11.127 11.127 0 0 0 25 54a35.494 35.494 0 0 1-4-16z" data-name="opacity"/><path opacity=".12" fill="#fff" d="M35 26c4.837 1.612 9 5 9 12 0 3-3-2-6-5s-9-9-3-7z" data-name="opacity"/><circle stroke-width="2" stroke-linejoin="round" stroke-linecap="round" stroke="#2e4369" fill="none" r="6" cy="9" cx="31" data-name="stroke"/><path d="M31 15v8.002m-28 36h56M16.258 45.231a16 16 0 1 1 29.484 0" stroke-width="2" stroke-linejoin="round" stroke-linecap="round" stroke="#2e4369" fill="none" data-name="stroke"/><path stroke-width="2" stroke-linejoin="round" stroke-linecap="round" stroke="#2e4369" fill="none" d="M24 24.61A16 16 0 0 0 6.992 51.484S11 54.994 11 59m27-34.389A16 16 0 0 1 55 51.49s-4 3.129-4 7.51" data-name="stroke"/></svg>