<svg xmlns="http://www.w3.org/2000/svg" viewBox="0 0 64 64" aria-labelledby="title" aria-describedby="desc"><path data-name="layer2" d="M63.614 55.3a5.884 5.884 0 0 0-8.314 8.313 1.205 1.205 0 0 0 .856.387h.025a1.206 1.206 0 0 0 .851-.352l6.616-6.616a1.2 1.2 0 0 0-.034-1.731z" fill="#202020"/><path data-name="layer1" d="M62.4 13.035a22.98 22.98 0 0 1-7.084-4.5 22.951 22.951 0 0 1-4.5-7.083 1.5 1.5 0 0 0-2.795 1.092c.236.606.539 1.278.894 1.98L32.127 21.313a5.9 5.9 0 0 0-1.7 3.619 1.5 1.5 0 0 0 1.354 1.632 1.356 1.356 0 0 0 .141.007 1.5 1.5 0 0 0 1.491-1.361 2.859 2.859 0 0 1 .831-1.775l6.191-6.191 6.166 6.167-6.186 6.189a2.871 2.871 0 0 1-2.371.825 1.5 1.5 0 0 0-.328 2.982 6.012 6.012 0 0 0 .661.036 5.864 5.864 0 0 0 4.159-1.722l16.788-16.787c.7.355 1.373.657 1.978.894a1.5 1.5 0 0 0 1.098-2.793zm-13.67 8.254l-6.17-6.167 7.91-7.91a21.556 21.556 0 0 0 2.721 3.446 21.514 21.514 0 0 0 3.447 2.72z" fill="#202020"/><path data-name="layer2" d="M33.433 25.35a5.866 5.866 0 0 0-1.711-4.036L14.934 4.525c.355-.7.657-1.373.894-1.978a1.5 1.5 0 0 0-2.793-1.094 23 23 0 0 1-4.5 7.084 22.951 22.951 0 0 1-7.083 4.5 1.5 1.5 0 0 0 1.092 2.795 22.778 22.778 0 0 0 1.98-.894l16.789 16.785a5.864 5.864 0 0 0 4.042 1.711l26.869 23.51A7.874 7.874 0 0 1 57 52.2zM7.212 13.379a21.556 21.556 0 0 0 3.446-2.721 21.534 21.534 0 0 0 2.72-3.447l7.911 7.911-6.167 6.167zM17.243 23.41l6.167-6.167 6.19 6.192a2.9 2.9 0 0 1 0 4.095l-2.071 2.07a2.9 2.9 0 0 1-4.095 0z" fill="#202020"/><path data-name="layer1" d="M-.114 55.3A5.884 5.884 0 0 1 8.2 63.613a1.205 1.205 0 0 1-.856.387h-.026a1.206 1.206 0 0 1-.851-.352l-6.616-6.616A1.2 1.2 0 0 1-.114 55.3zm22.062-20.7L6.5 52.2a7.874 7.874 0 0 1 4.773 4.739l18.958-16.581-5.688-4.978a7.873 7.873 0 0 1-2.595-.78z" fill="#202020"/></svg>