<svg xmlns="http://www.w3.org/2000/svg" viewBox="0 0 64 64" aria-labelledby="title" aria-describedby="desc"><path data-name="layer1" d="M63.6 61.6A16.5 16.5 0 0 0 50.3 49h-.5l1.5-1.5 1.5-1.5-1.4-1.4c-1.6-1.6-2.6-6.5-3.1-11.4h3a2.6 2.6 0 0 0 2.7-2.6v-8a2.6 2.6 0 0 0-2.6-2.6H48v-3.6C48 5.1 40 0 32 0a17.7 17.7 0 0 0-6.7 1.3h-.2C20 3.6 16 8.4 16 16.4V20h-3.3a2.6 2.6 0 0 0-2.7 2.6v7.9a2.6 2.6 0 0 0 2.6 2.6h3c-.5 4.9-1.5 9.8-3 11.4L11.2 46l1.4 1.4 1.5 1.5h-.5A16.5 16.5 0 0 0 .4 61.6L0 64h64zM28.9 60l-7.3-9.1c3.6-1.7 4.5-3.8 4.4-6.5a2 2 0 0 0 1-3.7c-4.3-2.6-7-8.3-7-14.6v-4.3h.3c4.3-1.1 6.2-5.2 7.1-9.3 2.7 3.6 7.7 7.1 16.6 7.5v12c0 2.8-3.1 4.9-4 4.9h-.7a2.9 2.9 0 0 0-2.2-.9h-2.2a2.9 2.9 0 0 0-2.9 2.9 3 3 0 0 0 2.9 3.1H37l.9-.2v2.5c-.1 2.8.8 5 4.6 6.7l-7.4 9z" fill="#202020"/></svg>