<svg xmlns="http://www.w3.org/2000/svg" viewBox="0 0 64 64" aria-labelledby="title" aria-describedby="desc"><path data-name="layer1" d="M59 56.6L42.5 40a14.7 14.7 0 0 1-3.9 3l17 17a2.4 2.4 0 0 0 3.4-3.4zM30.3 27.8c2-3 2.1-6.6-.7-9.3L12.4 3 2.1 13.4l15.3 17.1c2.7 2.7 6.3 2.7 9.4.7l3.6 3.6 3.5-3.5-3.6-3.6z" fill="#bacae8"/><path data-name="layer2" d="M28.2 37L8.3 56.9a2.4 2.4 0 0 0 0 3.5 2.4 2.4 0 0 0 3.5 0l19.8-20" fill="#f05a41"/><path data-name="opacity" d="M10.8 57.6l19-19 1.7 1.7-19.9 19.9a2.4 2.4 0 0 1-4.1-2.4 2.4 2.4 0 0 0 3.3-.2z" fill="#101129" opacity=".25"/><path data-name="layer1" d="M28.2 37L58.4 6.7a12.2 12.2 0 0 1 0 17.3L41.1 41.3a6.1 6.1 0 0 1-8.7 0z" fill="#bacae8"/><path data-name="opacity" fill="#fff" opacity=".5" d="M49.7 32.8H32.4l6.1-6.1h17.3l-6.1 6.1zm5.2-22.6h5.9a12.2 12.2 0 0 1-1.1 12.2h-17z"/><path data-name="stroke" fill="none" stroke="#2f446a" stroke-linecap="round" stroke-linejoin="round" stroke-width="2" d="M18.4 22.9L5.5 9.9m3.4-3.5l13 13m16.5 23.5L55.6 60a2.4 2.4 0 0 0 3.4-3.4L42.5 40m-8.7-8.7l-3.6-3.6c2-3 2.1-6.6-.7-9.3L12.4 3 2 13.3l15.5 17.2c2.7 2.7 6.3 2.7 9.3.7l3.6 3.6M28.2 37L8.3 56.9a2.4 2.4 0 0 0 0 3.5 2.4 2.4 0 0 0 3.5 0l19.8-20"/><path data-name="stroke" d="M28.2 37L58.4 6.7a12.2 12.2 0 0 1 0 17.3L41.1 41.3a6.1 6.1 0 0 1-8.7 0z" fill="none" stroke="#2f446a" stroke-linecap="round" stroke-linejoin="round" stroke-width="2"/></svg>