<svg xmlns="http://www.w3.org/2000/svg" viewBox="0 0 64 64" aria-labelledby="title" aria-describedby="desc"><path data-name="layer1" d="M50 8c-3.9 0-8.7-2.2-11.4-4a12 12 0 0 0-13.2 0h-.2A20.8 20.8 0 0 1 14 8a4 4 0 0 0-4 4v46a4 4 0 0 0 4 4h36a4 4 0 0 0 4-4V12a4 4 0 0 0-4-4zm-15 6h-6a2 2 0 0 1 0-4h6a2 2 0 0 1 0 4z" fill="#c59483"/><path data-name="opacity" d="M50 59H14a4 4 0 0 1-4-4v3a4 4 0 0 0 4 4h36a4 4 0 0 0 4-4v-3a4 4 0 0 1-4 4z" fill="#101129" opacity=".25"/><path data-name="stroke" fill="none" stroke="#2f446a" stroke-linecap="round" stroke-linejoin="round" stroke-width="2" d="M20 18v10m22-4v8m-10 4v10m12 2v6M24 32v6m4 14v4M50 8c-3.9 0-8.7-2.2-11.4-4a12 12 0 0 0-13.2 0h-.2A20.8 20.8 0 0 1 14 8a4 4 0 0 0-4 4v46a4 4 0 0 0 4 4h36a4 4 0 0 0 4-4V12a4 4 0 0 0-4-4z"/><path data-name="stroke" d="M37 12a2 2 0 0 1-2 2h-6a2 2 0 0 1-2-2 2 2 0 0 1 2-2h6a2 2 0 0 1 2 2z" fill="none" stroke="#2f446a" stroke-linecap="round" stroke-linejoin="round" stroke-width="2"/></svg>