<svg xmlns="http://www.w3.org/2000/svg" viewBox="0 0 64 64" aria-labelledby="title" aria-describedby="desc"><path data-name="layer1" d="M12.999 47.988L51 48a11.059 11.059 0 0 0 11-11.257V26.12A11.106 11.106 0 0 0 51 15h-5v6h5a5.038 5.038 0 0 1 5 5.12v10.623A5.055 5.055 0 0 1 51 42H13a5.156 5.156 0 0 1-5-5.257V26.12A5.146 5.146 0 0 1 13.25 21h14.382l-4.755 4.76L27.123 30l12.12-12.133L27 6l-4.12 4.003L27.883 15H13.25A11.152 11.152 0 0 0 2 26.12v10.623a11.213 11.213 0 0 0 10.999 11.245z" fill="none" stroke="#202020" stroke-miterlimit="10" stroke-width="2" stroke-linejoin="round" stroke-linecap="round"/></svg>