<svg xmlns="http://www.w3.org/2000/svg" viewBox="0 0 64 64" aria-labelledby="title" aria-describedby="desc"><path data-name="layer1" d="M32 2c-12.2 0-22 3.6-22 8v30c0 4.4 9.8 8 22 8s22-3.6 22-8V10c0-4.4-9.8-8-22-8z" fill="#7b8baf"/><ellipse data-name="opacity" cx="32" cy="10" rx="22" ry="8" fill="#fff" opacity=".15"/><path data-name="opacity" d="M10 10v30c0 2.8 4 5.3 10 6.7v-30c-6-1.4-10-3.9-10-6.7z" fill="#000064" opacity=".18"/><path data-name="opacity" d="M40 17.5v30a32.4 32.4 0 0 0 10-2.9v-30a32.4 32.4 0 0 1-10 2.9z" fill="#fff" opacity=".15"/><ellipse data-name="stroke" cx="32" cy="10" rx="22" ry="8" fill="none" stroke="#2e4369" stroke-linecap="round" stroke-linejoin="round" stroke-width="2"/><path data-name="stroke" d="M54 20c0 4.4-9.8 8-22 8s-22-3.6-22-8m44 10c0 4.4-9.8 8-22 8s-22-3.6-22-8" fill="none" stroke="#2e4369" stroke-linecap="round" stroke-linejoin="round" stroke-width="2"/><path data-name="stroke" d="M10 10v30c0 4.4 9.8 8 22 8s22-3.6 22-8V10M32 48v13.5M20 62h24m-28 0h-4m-4 0H4m48 0h-4m12 0h-4" fill="none" stroke="#2e4369" stroke-linecap="round" stroke-linejoin="round" stroke-width="2"/></svg>