<svg xmlns="http://www.w3.org/2000/svg" viewBox="0 0 64 64" aria-labelledby="title" aria-describedby="desc"><circle data-name="layer2" cx="32" cy="32" r="30" fill="#8fa9d8"/><path data-name="opacity" d="M36 58A30 30 0 0 1 12.9 8.9a30 30 0 1 0 42.2 42.2A29.9 29.9 0 0 1 36 58z" fill="#000064" opacity=".15"/><circle data-name="layer1" cx="32" cy="32" r="6" fill="#536897"/><path data-name="layer1" d="M20 32v-.8L9.3 39.9a23.9 23.9 0 0 0 4.1 7.3L26 42.4A12 12 0 0 1 20 32zm24-.6v.6a12 12 0 0 1-6 10.4l12.6 4.8a24 24 0 0 0 4-7.2zM32 20a11.9 11.9 0 0 1 6.5 1.9L36.1 8.4a22.5 22.5 0 0 0-8.1 0L25.4 22a11.9 11.9 0 0 1 6.6-2z" fill="#536897"/><circle data-name="stroke" cx="32" cy="32" r="30" fill="none" stroke="#2e4369" stroke-linecap="round" stroke-linejoin="round" stroke-width="2"/><circle data-name="stroke" cx="32" cy="32" r="6" fill="none" stroke="#2e4369" stroke-linecap="round" stroke-linejoin="round" stroke-width="2"/><path data-name="stroke" d="M20 32v-.8L9.3 39.9a23.9 23.9 0 0 0 4.1 7.3L26 42.4A12 12 0 0 1 20 32zm24-.6v.6a12 12 0 0 1-6 10.4l12.6 4.8a24 24 0 0 0 4-7.2zM32 20a11.9 11.9 0 0 1 6.5 1.9L36.1 8.4a22.5 22.5 0 0 0-8.1 0L25.4 22a11.9 11.9 0 0 1 6.6-2z" fill="none" stroke="#2e4369" stroke-linecap="round" stroke-linejoin="round" stroke-width="2"/></svg>