<svg xmlns="http://www.w3.org/2000/svg" viewBox="0 0 64 64" aria-labelledby="title" aria-describedby="desc"><ellipse data-name="layer1" cx="32" cy="11" rx="26" ry="9" fill="#202020"/><path data-name="layer1" d="M6 26c0 2.9 11.3 7 26 7s26-4.1 26-7v-8.1C52.4 22.1 42 24 32 24s-20.4-1.9-26-6.1V26z" fill="#202020"/><path data-name="layer1" d="M32 47c14.7 0 26-4.1 26-7v-9.6C53.6 34.8 42.8 37 32 37s-21.6-2.2-26-6.6V40c0 2.9 11.3 7 26 7z" fill="#202020"/><path data-name="layer1" d="M32 51c-10.8 0-21.6-2.3-26-6.6V53c0 5 11.6 9 26 9s26-4 26-9v-8.6C53.6 48.7 42.8 51 32 51z" fill="#202020"/></svg>