<svg xmlns="http://www.w3.org/2000/svg" viewBox="0 0 64 64" aria-labelledby="title" aria-describedby="desc"><path data-name="layer1" d="M32 2C17.6 2 6 6 6 11v42c0 5 11.6 9 26 9s26-4 26-9V11c0-5-11.6-9-26-9z" fill="#7b8baf"/><ellipse data-name="opacity" cx="32" cy="11" rx="26" ry="9" fill="#fff" opacity=".25"/><path data-name="opacity" d="M6 11v42c0 3.2 4.8 6 12 7.6v-42C10.8 17 6 14.2 6 11z" fill="#000064" opacity=".18"/><path data-name="opacity" d="M42 19.3v42a36.9 36.9 0 0 0 12-3.5v-42a36.9 36.9 0 0 1-12 3.5z" fill="#fff" opacity=".15"/><ellipse data-name="stroke" cx="32" cy="11" rx="26" ry="9" fill="none" stroke="#2e4369" stroke-linecap="round" stroke-linejoin="round" stroke-width="2"/><path data-name="stroke" d="M6 11v42c0 5 11.6 9 26 9s26-4 26-9V11" fill="none" stroke="#2e4369" stroke-linecap="round" stroke-linejoin="round" stroke-width="2"/><path data-name="stroke" d="M58 25c0 5-11.6 9-26 9S6 30 6 25m52 14c0 5-11.6 9-26 9S6 44 6 39" fill="none" stroke="#2e4369" stroke-linecap="round" stroke-linejoin="round" stroke-width="2"/></svg>