<svg xmlns="http://www.w3.org/2000/svg" viewBox="0 0 64 64" aria-labelledby="title" aria-describedby="desc"><path data-name="layer1" d="M62 0H2a2 2 0 0 0-2 2v60a2 2 0 0 0 2 2h60a2 2 0 0 0 2-2V2a2 2 0 0 0-2-2zM19.707 41.707a1 1 0 0 1-1.414 0L8.586 32l9.707-9.707a1 1 0 0 1 1.414 1.414L12.414 31H32a1 1 0 0 1 0 2H12.414l7.293 7.293a1 1 0 0 1 0 1.414zM53.999 54H25a1 1 0 0 1 0-2h28.999a1 1 0 0 1 0 2zm0-6H25a1 1 0 0 1 0-2h28.999a1 1 0 0 1 0 2zm0-6H38a1 1 0 0 1 0-2h15.999a1 1 0 0 1 0 2zm0-6H38a1 1 0 0 1 0-2h15.999a1 1 0 0 1 0 2zm0-6H38a1 1 0 0 1 0-2h15.999a1 1 0 0 1 0 2zm0-6H38a1 1 0 0 1 0-2h15.999a1 1 0 0 1 0 2zM54 18H25a1 1 0 0 1 0-2h29a1 1 0 0 1 0 2zm0-6H25a1 1 0 0 1 0-2h29a1 1 0 0 1 0 2z" fill="#202020"/></svg>