<svg xmlns="http://www.w3.org/2000/svg" viewBox="0 0 64 64" aria-labelledby="title" aria-describedby="desc"><path data-name="layer4" d="M46 30a16 16 0 0 1 4 .5V2H2v44h28a16 16 0 0 1 16-16z" fill="#d1ebf7"/><circle data-name="layer3" cx="46" cy="46" r="16" fill="#ed4c49"/><path data-name="layer2" d="M30 46H2v12h33.4A15.9 15.9 0 0 1 30 46z" fill="#fff"/><path data-name="layer1" d="M42.7 30.3C40.6 23 37.7 16 34.6 16c-5.8 0-8.5 17.5-9.5 17.5s-3.5-5-7.6-5S8 43.1 8 46h22a16 16 0 0 1 12.7-15.7z" fill="#92d5b5"/><path data-name="opacity" d="M35.4 58a16 16 0 0 1 0-24 16 16 0 0 0-7.6 24h7.7z" fill="#000064" opacity=".16"/><path data-name="stroke" fill="none" stroke="#2e4369" stroke-linecap="round" stroke-miterlimit="10" stroke-width="2" d="M2 46h28m5.4 12H2V2h48v28.5" stroke-linejoin="round"/><circle data-name="stroke" cx="46" cy="46" r="16" fill="none" stroke="#2e4369" stroke-linecap="round" stroke-miterlimit="10" stroke-width="2" stroke-linejoin="round"/><path data-name="stroke" fill="none" stroke="#2e4369" stroke-linecap="round" stroke-miterlimit="10" stroke-width="2" d="M52 40L40 52m0-12l12 12" stroke-linejoin="round"/></svg>