<svg xmlns="http://www.w3.org/2000/svg" viewBox="0 0 64 64" aria-labelledby="title" aria-describedby="desc"><path data-name="layer2" d="M40.5 31a30.9 30.9 0 0 0 1.5-9 20 20 0 0 0-40 0c0 18 20 38 20 38a95.3 95.3 0 0 0 8.5-10.1 15.9 15.9 0 0 1 10-18.9zM22 28a6 6 0 1 1 6-6 6 6 0 0 1-6 6z" fill="#c3d6f9"/><path data-name="layer1" d="M46 30a16 16 0 1 0 16 16 15.9 15.9 0 0 0-16-16z" fill="#f26161"/><path data-name="opacity" d="M30.5 49.9A15.8 15.8 0 0 1 36 33.5l-1.5.5a15.9 15.9 0 0 0-8.9 22c1.4-1.6 3.1-3.7 4.8-6.1z" fill="#000032" opacity=".2"/><circle data-name="stroke" cx="46" cy="46" r="16" fill="none" stroke="#2e4369" stroke-linecap="round" stroke-linejoin="round" stroke-width="2"/><path data-name="stroke" fill="none" stroke="#2e4369" stroke-linecap="round" stroke-linejoin="round" stroke-width="2" d="M38 46h16M40.6 31a30.9 30.9 0 0 0 1.4-9 20 20 0 0 0-40 0c0 18 20 38 20 38a95.3 95.3 0 0 0 8.5-10.1"/><circle data-name="stroke" cx="22" cy="22" r="6" fill="none" stroke="#2e4369" stroke-linecap="round" stroke-linejoin="round" stroke-width="2"/></svg>