<svg xmlns="http://www.w3.org/2000/svg" viewBox="0 0 64 64" aria-labelledby="title" aria-describedby="desc"><path data-name="layer2" d="M22 2A18 18 0 0 0 4 20a17.7 17.7 0 0 0 .2 2.2C5.7 36.8 22 44.9 22 62a26.9 26.9 0 0 1 2.6-11.4 19.9 19.9 0 0 1 14.3-23.9 21.8 21.8 0 0 0 1-4.4A17.9 17.9 0 0 0 22 2zm0 24a6 6 0 1 1 6-6 6 6 0 0 1-6 6z" fill="#202020"/><path data-name="layer1" d="M44 30a16 16 0 1 0 16 16 16 16 0 0 0-16-16zm6.4 19.6a2 2 0 1 1-2.8 2.8L44 48.8l-3.6 3.6a2 2 0 0 1-2.8-2.8l3.5-3.6-3.6-3.6a2 2 0 1 1 2.8-2.8l3.7 3.6 3.6-3.6a2 2 0 0 1 2.8 2.8L46.8 46z" fill="#202020"/></svg>