<svg xmlns="http://www.w3.org/2000/svg" viewBox="0 0 64 64" aria-labelledby="title" aria-describedby="desc"><path data-name="layer2" d="M26 46a20 20 0 0 1 8.1-16H12v22h14.9a19.9 19.9 0 0 1-.9-6zM40 2H24v16h16zm-4 10a2 2 0 0 1-4 0V8a2 2 0 0 1 4 0z" fill="#202020"/><path data-name="layer2" d="M52 26.9V8.7L45.3 2H44v16.3a3.7 3.7 0 0 1-3.7 3.7H23.7a3.7 3.7 0 0 1-3.7-3.7V2H2v50h6V26h38a19.9 19.9 0 0 1 6 .9z" fill="#202020"/><path data-name="layer1" d="M46 30a16 16 0 1 0 16 16 16 16 0 0 0-16-16zm8 18H38a2 2 0 1 1 0-4h16a2 2 0 0 1 0 4z" fill="#202020"/></svg>