<svg xmlns="http://www.w3.org/2000/svg" viewBox="0 0 64 64" aria-labelledby="title" aria-describedby="desc"><path data-name="layer2" d="M30 48a17.9 17.9 0 0 1 2.4-8.9C30.2 38 30 37 30 36v-2a49 49 0 0 0 8.4-1.2 17.9 17.9 0 0 1 2.9-1.5c-3-2.8-5.3-4.6-5.3-17.3S28.8 1.2 22 2.4 12 8 12 14c0 13.7-2.7 14.7-6 18a61.4 61.4 0 0 0 12 2v2c0 1.6-.5 3.5-8.6 5.2A9.2 9.2 0 0 0 2 50h28.1a18 18 0 0 1-.1-2z" fill="#202020"/><path data-name="layer1" d="M48 34a14 14 0 1 0 14 14 14 14 0 0 0-14-14zm6.4 17.6a2 2 0 1 1-2.8 2.8L48 50.8l-3.6 3.6a2 2 0 0 1-2.8-2.8l3.6-3.6-3.6-3.6a2 2 0 1 1 2.8-2.8l3.6 3.5 3.6-3.6a2 2 0 1 1 2.8 2.8L50.8 48z" fill="#202020"/></svg>