<svg xmlns="http://www.w3.org/2000/svg" viewBox="0 0 64 64" aria-labelledby="title" aria-describedby="desc"><path data-name="layer1" fill="#202020" d="M51.7 5H4.3L28 23.1 51.7 5z"/><path data-name="layer2" d="M48 29a15 15 0 1 0 15 15 15 15 0 0 0-15-15zm6.4 18.5a2 2 0 1 1-2.8 2.8L48 46.8l-3.5 3.5a2 2 0 1 1-2.8-2.8l3.5-3.5-3.5-3.5a2 2 0 1 1 2.8-2.8l3.5 3.5 3.5-3.5a2 2 0 1 1 2.8 2.8L50.8 44z" fill="#202020"/><path data-name="layer1" d="M48 25a18.9 18.9 0 0 1 7 1.4V7.5L28 28.2 1 7.5V41h28.3A19 19 0 0 1 48 25z" fill="#202020"/></svg>