<svg xmlns="http://www.w3.org/2000/svg" viewBox="0 0 64 64" aria-labelledby="title" aria-describedby="desc"><circle data-name="layer3" cx="46" cy="46" r="16" fill="#e0444f"/><path data-name="layer2" d="M34.687 34.687L19.4 19.4 5.96 32.84a13.616 13.616 0 0 0 0 19.2 13.616 13.616 0 0 0 19.2 0l4.9-4.9c-.029-.377-.06-.754-.06-1.14a15.95 15.95 0 0 1 4.687-11.313z" fill="#cbe5ff"/><path data-name="layer1" d="M46 30c.386 0 .763.031 1.142.058l4.9-4.9a13.616 13.616 0 0 0 0-19.2 13.616 13.616 0 0 0-19.2 0L19.4 19.4l15.287 15.287A15.95 15.95 0 0 1 46 30z" fill="#f4475d"/><path data-name="opacity" d="M8.96 37.84L22.4 24.4l13.44-13.44a13.616 13.616 0 0 1 19.2 0c.086.086.159.181.243.269A13.432 13.432 0 0 0 52.04 5.96a13.616 13.616 0 0 0-19.2 0L19.4 19.4 5.96 32.84a13.609 13.609 0 0 0-.243 18.931A13.6 13.6 0 0 1 8.96 37.84z" fill="#fff" opacity=".4"/><path data-name="opacity" d="M30.058 47.142C30.031 46.763 30 46.386 30 46a15.976 15.976 0 0 1 8.24-13.988c-.081 0-.159-.012-.24-.012a15.971 15.971 0 0 0-14.921 21.741 13.5 13.5 0 0 0 2.081-1.7z" fill="#000064" opacity=".16"/><path data-name="opacity" d="M42 4.978c-7.374.141-9.365 7.148-7.139 7.75 1.971.738 4.863-.417 7.139-.143 2.276-.274 5.169.881 7.139.143 2.226-.602.235-7.609-7.139-7.75z" fill="#fff" opacity=".5"/><path data-name="stroke" d="M47.156 30.044l4.884-4.884a13.616 13.616 0 0 0 0-19.2 13.616 13.616 0 0 0-19.2 0L5.96 32.84a13.616 13.616 0 0 0 0 19.2 13.616 13.616 0 0 0 19.2 0L30 47.2M19.4 19.4l15.287 15.287" fill="none" stroke="#2e4369" stroke-linecap="round" stroke-miterlimit="10" stroke-width="2" stroke-linejoin="round"/><circle data-name="stroke" cx="46" cy="46" r="16" fill="none" stroke="#2e4369" stroke-linecap="round" stroke-miterlimit="10" stroke-width="2" stroke-linejoin="round"/><path data-name="stroke" fill="none" stroke="#2e4369" stroke-linecap="round" stroke-miterlimit="10" stroke-width="2" d="M40 40l12 12m-12 0l12-12" stroke-linejoin="round"/></svg>