<svg xmlns="http://www.w3.org/2000/svg" viewBox="0 0 64 64" aria-labelledby="title" aria-describedby="desc"><path data-name="layer1" d="M54.2 10H25.8a7.7 7.7 0 0 0-6 2.8L2 32l18 19.4a7.8 7.8 0 0 0 5.8 2.6h28.4a7.8 7.8 0 0 0 7.8-7.8V17.8a7.8 7.8 0 0 0-7.8-7.8z" fill="#c3d6f9"/><path data-name="opacity" d="M51.5 11.7H27.8a6.5 6.5 0 0 0-5 2.3L8 30l15 16.2a6.5 6.5 0 0 0 4.8 2.2h23.7a6.5 6.5 0 0 0 6.5-6.6V18.2a6.5 6.5 0 0 0-6.5-6.5z" fill="#fff" opacity=".4"/><path data-name="opacity" d="M51.5 48.3H27.8a6.5 6.5 0 0 1-4.8-2.1L8 30l-6 2 18 19.4a7.8 7.8 0 0 0 5.8 2.6h28.4a7.8 7.8 0 0 0 4.5-1.4l-3.1-5.7a6.5 6.5 0 0 1-4.1 1.4z" fill="#000064" opacity=".15"/><path data-name="stroke" d="M54.2 10H25.8a7.7 7.7 0 0 0-6 2.8L2 32l18 19.4a7.8 7.8 0 0 0 5.8 2.6h28.4a7.8 7.8 0 0 0 7.8-7.8V17.8a7.8 7.8 0 0 0-7.8-7.8zM30 24l16 16m0-16L30 40" fill="none" stroke="#2e4369" stroke-linecap="round" stroke-miterlimit="10" stroke-width="2" stroke-linejoin="round"/></svg>