<svg xmlns="http://www.w3.org/2000/svg" viewBox="0 0 64 64" aria-labelledby="title" aria-describedby="desc"><path data-name="layer1" d="M41.6 50.2C33.5 48.6 33 46.6 33 45v-2a14.1 14.1 0 0 0 4-7c2.5 0 4-3 4-6 0-.8 0-4-2-4 5-14.5-9.6-20-20-13-4.4 0-5.6 6.6-4 13-2 0-2 3.2-2 4 0 3 1.5 6 4 6a14.2 14.2 0 0 0 4 7v2c0 1.6-.5 3.6-8.6 5.2S3 59 3 59h48s0-7-9.4-8.8z" fill="#f45d5d"/><path d="M21 34c.8 3 4.1 5.3 6 7v2c0 1.6-.5 3.5-7.9 5.1A3.2 3.2 0 0 0 21 45v-2a13.6 13.6 0 0 1-4-7c-2.5 0-4-3-4-6 0-.8 0-4 2-4-1.6-6.4-.4-13 4-13a17.7 17.7 0 0 1 7.5-2.9L25 11c-4.4 0-7.6 6.6-6 13 0 0 0 7 2 10zM9 57a8.9 8.9 0 0 1 4.6-7.1l-1.2.3C3 52 3 59 3 59h48a6.5 6.5 0 0 0-.4-2z" fill="#000064" data-name="opacity" opacity=".15"/><path data-name="stroke" fill="none" stroke="#2e4369" stroke-linecap="round" stroke-linejoin="round" stroke-width="2" d="M61 5L49 17m0-12l12 12M41.6 50.2C33.5 48.6 33 46.6 33 45v-2a14.1 14.1 0 0 0 4-7c2.5 0 4-3 4-6 0-.8 0-4-2-4 5-14.5-9.6-20-20-13-4.4 0-5.6 6.6-4 13-2 0-2 3.2-2 4 0 3 1.5 6 4 6a14.2 14.2 0 0 0 4 7v2c0 1.6-.5 3.6-8.6 5.2S3 59 3 59h48s0-6.9-9.4-8.8z"/></svg>