<svg xmlns="http://www.w3.org/2000/svg" viewBox="0 0 64 64" aria-labelledby="title" aria-describedby="desc"><path data-name="layer2" fill="#202020" d="M46.899 6.274l6.293-6.293 10.854 10.854-6.293 6.293zM0 64l17.9-7.9-10-10L0 64z"/><path data-name="layer1" d="M54.9 20L44.1 9.1 33.4 19.8 13.6 0 0 13.6l19.7 19.8-9.4 9.4 10.8 10.9 9.4-9.4L50 64l13.8-13.8-19.6-19.6zm-36.2 6.8l4.6-4.6-2.8-2.8-4.6 4.6-3.5-3.5 3-3-2.8-2.8-3 3-3.9-4 7.9-7.9 16.9 16.8-8 8zm39.4 23.4L50 58.3l-3.7-3.7 4.1-4.1-2.8-2.8-4.1 4.1-3.2-3.2 3.1-3.1-2.8-2.8-3.1 3.1-4.2-4.2 8.1-8z" fill="#202020"/></svg>