<svg xmlns="http://www.w3.org/2000/svg" viewBox="0 0 64 64" aria-labelledby="title" aria-describedby="desc"><path data-name="layer2" d="M39 50.2c11 .7 19 3 19 5.8s-11.6 6-26 6-26-2.7-26-6 11.6-6 26-6" fill="#fff"/><path data-name="layer1" d="M32 25.8A34.5 34.5 0 0 0 58 14C47.4 13.9 40.2 2.1 32 2z" fill="#f26161"/><path data-name="opacity" d="M35 2.5a10.1 10.1 0 0 0-3-.5v23.8h3zM32 50a87.7 87.7 0 0 0-17.8 1.6L32 54z" fill="#000032" opacity=".2"/><path data-name="stroke" d="M39 50.2c11 .7 19 3 19 5.8s-11.6 6-26 6-26-2.7-26-6 11.6-6 26-6" fill="none" stroke="#2e4369" stroke-linecap="round" stroke-linejoin="round" stroke-width="2"/><path data-name="stroke" d="M32 54V2c8.2.1 15.4 11.9 26 12a34.5 34.5 0 0 1-26 11.8" fill="none" stroke="#2e4369" stroke-linecap="round" stroke-linejoin="round" stroke-width="2"/></svg>