<svg xmlns="http://www.w3.org/2000/svg" viewBox="0 0 64 64" aria-labelledby="title" aria-describedby="desc"><path data-name="layer1" d="M15.7 61l-4.8-1.2a6 6 0 0 1-4-8.3A13 13 0 0 0 .3 62v2h16.3z" fill="#202020"/><path data-name="layer2" d="M47.7 11.7l-.9-2.1C43.5 2.3 42.4 0 40.3 0s-1.9.5-3.7 1.4-3.4 1.8-4.3 1.8-3.2-1.2-4.6-1.9S25.1 0 24.3 0 21.9 1 18 9.6l-.9 2C22.4 12.8 29 14 32.3 14s9.4-1.1 15.4-2.3z" fill="#202020"/><path data-name="layer1" d="M57.1 51.5a6 6 0 0 1-4 8.3l-3.9 1-1.9.4s-2.1 1.9-3.1 1.1L37 56.8l-5.6-4.4-5.3-4.2a2 2 0 0 0 1.5-.9 2 2 0 0 0-.7-2.7c-2.9-1.8-6.1-6.7-6.1-10.6v-2h-2c-1.2 0-1.8-2.6-1.8-3.3a8.3 8.3 0 0 1 .1-1.5 7.9 7.9 0 0 0 7.2 4.8c4.4 0 7.2-2.2 7.9-6 .7 3.8 3.5 6 7.9 6a7.7 7.7 0 0 0 6.6-3.8v.4c0 .6-.6 3.3-1.8 3.3h-2v2c0 4.1-2.9 9-5.6 10.6a2 2 0 0 0 .2 3.5l-2.1 2-.3.3 9.3 7.2.5.4v-.3l6.9-1.7a2 2 0 0 0 1.3-2.8L49.6 46l-1.1-3.4-.5-1.5a2 2 0 0 0-1.7-1.1h-.4a17.7 17.7 0 0 0 1.1-4.4c2.8-1.2 3.8-5 3.8-7a9.4 9.4 0 0 0-.6-3.8c6.2-.8 10.3-1.6 10.6-1.7a2 2 0 0 0 .3-3.8 88.9 88.9 0 0 1-9.5-4.3c-7 1.4-15.6 3-19.3 3S18.7 16.1 13 14.8l-9.5 4.6a2 2 0 0 0 .5 3.8c.3.1 4.1.8 9.8 1.6a9.4 9.4 0 0 0-.7 4c0 1.9 1 5.7 3.9 6.9a16 16 0 0 0 1.2 4.3 2 2 0 0 0-1.7 1.1l-6 12a2 2 0 0 0 1.3 2.8l6.9 1.7 1.7 5a2 2 0 0 0 1.9 1.4h41.4v-2a13 13 0 0 0-6.6-10.5z" fill="#202020"/></svg>