<svg xmlns="http://www.w3.org/2000/svg" viewBox="0 0 64 64" aria-labelledby="title" aria-describedby="desc"><path data-name="layer2" d="M11 27c5-5 8.312-7 13-7 5 0 9.448-.783 12-2 2.708-1.292 5.645-2.48 7.292-.833 2 2-.312 5.8-6.292 7.833M11 45c1.645 0 4.3 1.046 8 3a15.861 15.861 0 0 0 8 2h11a3.009 3.009 0 0 0 3-3 2.987 2.987 0 0 0-.78-2.013" fill="none" stroke="#202020" stroke-linecap="round" stroke-miterlimit="10" stroke-width="2" stroke-linejoin="round"/><path data-name="layer2" d="M33 25h26a3.009 3.009 0 0 1 3 3 3.009 3.009 0 0 1-3 3H41m-1 7a3.289 3.289 0 0 1 3 3.5 3.289 3.289 0 0 1-3 3.5h-2m7-14v2c0 3-1.791 5-4 5h-2" fill="none" stroke="#202020" stroke-linecap="round" stroke-miterlimit="10" stroke-width="2" stroke-linejoin="round"/><path data-name="layer1" d="M56.911 36.336c-1.231 4.378-4.751 7.559-3.726 10.909a3.942 3.942 0 0 0 2.869 2.646A4.006 4.006 0 0 0 61 46c0-2.915-2.833-5.831-3.911-9.664a.091.091 0 0 0-.178 0zM2 25h9v23H2z" fill="none" stroke="#202020" stroke-linecap="round" stroke-miterlimit="10" stroke-width="2" stroke-linejoin="round"/></svg>