<svg viewBox="0 0 64 64" xmlns="http://www.w3.org/2000/svg" aria-labelledby="title" aria-describedby="desc"><path d="M47 5.003l14 15.998L30.998 57 1 21.001l14-16 32 .002z" fill="#c2eaff" data-name="layer1"/><path d="M1 21l29.998 35.999.002-.002V21H1z" opacity=".2" data-name="opacity"/><path d="M31.001 21h-.002l.001.001.001-.001z" fill="none"/><path d="M47.001 5.003L47 5.002l-32-.001h-.001l16 15.999h.002l16-15.997z" opacity=".2" data-name="opacity"/><path d="M61 21L47.001 5.003 31.001 21H61z" opacity=".5" fill="#fff" data-name="opacity"/><path d="M1 21.001h60m-46-16l16 16L47 5.003M31 21.001V57" stroke-width="2" stroke-linejoin="round" stroke-linecap="round" stroke="#2e4369" fill="none" data-name="stroke"/><path d="M47 5.003l14 15.998L30.998 57 1 21.001l14-16 32 .002z" stroke-width="2" stroke-linejoin="round" stroke-linecap="round" stroke="#2e4369" fill="none" data-name="stroke"/></svg>