<svg viewBox="0 0 64 64" xmlns="http://www.w3.org/2000/svg" aria-labelledby="title" aria-describedby="desc"><circle fill="#202020" r="8" cy="33.99" cx="33" data-name="layer2"/><path fill="#202020" d="M33 14.99a19 19 0 1 0 19 19 19 19 0 0 0-19-19zm0 31a12 12 0 1 1 12-12 12 12 0 0 1-12 12z" data-name="layer2"/><path fill="#202020" d="M16 20.056V13a2 2 0 0 0-4 0v7.057a2.6 2.6 0 0 1-2 2.657V13a2 2 0 0 0-4 0v9.63a3.381 3.381 0 0 1-2-2.2V13a2 2 0 1 0-4 0v7.428c0 2.328 2.12 5.555 6 6.372V51a2 2 0 0 0 4 0V26.809c3.7-.674 6-3.172 6-6.753zm41.626-8.223A2 2 0 0 0 54 13v38a2 2 0 0 0 4 0V37h4a2 2 0 0 0 2-2c0-14.114-6.113-22.8-6.374-23.167z" data-name="layer1"/></svg>