<svg xmlns="http://www.w3.org/2000/svg" viewBox="0 0 64 64" aria-labelledby="title" aria-describedby="desc"><path data-name="layer1" fill="#c69483" d="M50 20H14V2h36l6 9-6 9zM14 46h36V28H14l-6 9 6 9z"/><path data-name="opacity" fill="#000032" opacity=".2" d="M52 17H16V2h-2v18h36l6-9-4 6zM10 34l-2 3 6 9h36v-3H16l-6-9z"/><path data-name="stroke" fill="none" stroke="#2e4369" stroke-linecap="round" stroke-linejoin="round" stroke-width="2" d="M50 20H14V2h36l6 9-6 9zM14 46h36V28H14l-6 9 6 9zm18 0v16m0-42v8"/></svg>