<svg xmlns="http://www.w3.org/2000/svg" viewBox="0 0 64 64" aria-labelledby="title" aria-describedby="desc"><circle data-name="layer2" cx="48" cy="48" r="14" fill="#f45d5d"/><path data-name="layer1" d="M35.9 41c-5.1-1.9-5.9-3.6-5.9-5v-2a61.7 61.7 0 0 0 12-2c-3.3-3.3-6-4.3-6-18C36 2.4 28.8 1.2 22 2.4S12 8 12 14c0 13.7-2.7 14.7-6 18a61.4 61.4 0 0 0 12 2v2c0 1.6-1.1 3.7-9 6s-7 8-7 8h32.2a14.1 14.1 0 0 1-.2-2 13.9 13.9 0 0 1 1.9-7z" fill="#a5d0ec"/><path data-name="opacity" d="M34.2 50a14.1 14.1 0 0 1-.2-2 13.9 13.9 0 0 1 1.9-7 20.3 20.3 0 0 1-3.2-1.4A13.9 13.9 0 0 0 28 50h6.2zM15 42c7.9-2.3 9-4.4 9-6-1.7 0-5.5-2.6-11-4 3.3-3.3 4-4.3 4-18 0-6 4.7-11.6 11-11.6h.6a18.4 18.4 0 0 0-6.6.1C15.7 2.4 12 8 12 14c0 13.7-2.7 14.7-6 18a61.4 61.4 0 0 0 12 2v2c0 1.6-1.1 3.7-9 6s-7 8-7 8h6s0-6 7-8z" fill="#000064" opacity=".15"/><path data-name="opacity" d="M51 59a14 14 0 0 1-11.3-22.3 14 14 0 1 0 19.6 19.6A13.9 13.9 0 0 1 51 59z" fill="#000064" opacity=".15"/><path data-name="stroke" d="M34.1 50H2s0-6 7-8 9-4.4 9-6v-2a61.4 61.4 0 0 1-12-2c3.3-3.3 6-4.3 6-18 0-6 3.7-11.6 10-11.6S36 2.3 36 14c0 13.7 2.7 14.7 6 18a61.7 61.7 0 0 1-12 2v2c0 1.4.8 3.1 5.9 5M38 58l20-20" fill="none" stroke="#2e4369" stroke-linecap="round" stroke-linejoin="round" stroke-width="2"/><circle data-name="stroke" cx="48" cy="48" r="14" fill="none" stroke="#2e4369" stroke-linecap="round" stroke-linejoin="round" stroke-width="2"/></svg>