<svg xmlns="http://www.w3.org/2000/svg" viewBox="0 0 64 64" aria-labelledby="title" aria-describedby="desc"><circle data-name="layer2" cx="32" cy="32" r="30" fill="#ddefff"/><path data-name="layer1" d="M50.1 39c.8.5 2.1 1.3 1.8 3a8.6 8.6 0 0 1-8.1 6c-5.4 0-12-4.2-17.8-10.1S16 25.5 16 20.1a8.6 8.6 0 0 1 6-8.1c1.7-.2 2.4 1 3 1.8l4.1 6.2a2.9 2.9 0 0 1-.8 3.9c-1.7 1.4-4.6 3.1 1.9 9.7s8.3 3.7 9.7 2a2.9 2.9 0 0 1 3.9-.8z" fill="#ed5858"/><path data-name="opacity" d="M45.9 45c-4 0-8.6-2.3-13.1-5.8l1.9-1.9a18.3 18.3 0 0 1-4.5-3.5l-1.7 1.7-.5-.5c-5.7-5.9-10-12.5-10-17.9a8.2 8.2 0 0 1 .6-3 8.3 8.3 0 0 0-2.6 6c0 5.4 4.3 12 10.1 17.8l2.1 2 2.1 1.8c4.6 3.8 9.5 6.3 13.6 6.3a8.7 8.7 0 0 0 8-5.5 8.3 8.3 0 0 1-6 2.5z" fill="#000064" opacity=".15"/><path data-name="stroke" d="M35.4 37.6c2.6 1 3.7-.7 4.6-1.9a2.9 2.9 0 0 1 3.9-.8l6.2 4.1c.8.5 2.1 1.3 1.8 3a8.6 8.6 0 0 1-8.1 6c-3.8 0-8.3-2.2-12.6-5.5M26 37.9c-5.8-5.8-10-12.4-10-17.8a8.6 8.6 0 0 1 6-8.1c1.7-.2 2.4 1 3 1.8l4.1 6.2a2.9 2.9 0 0 1-.8 3.9c-1.3 1.1-3.4 2.4-1.2 6a21.6 21.6 0 0 0 3.1 3.8m23-22.9L10.8 53.2" fill="none" stroke="#2e4369" stroke-linecap="round" stroke-miterlimit="10" stroke-width="2" stroke-linejoin="round"/><circle data-name="stroke" cx="32" cy="32" r="30" fill="none" stroke="#2e4369" stroke-linecap="round" stroke-miterlimit="10" stroke-width="2" stroke-linejoin="round"/></svg>