<svg xmlns="http://www.w3.org/2000/svg" viewBox="0 0 64 64" aria-labelledby="title" aria-describedby="desc"><circle data-name="layer1" cx="32" cy="32" r="30" fill="#dde5f4"/><path data-name="opacity" d="M32 2a29.9 29.9 0 0 0-22.2 9.8 30 30 0 0 1 42.4 42.4A30 30 0 0 0 32 2z" fill="#fff" opacity=".25"/><path data-name="opacity" d="M32.6 13.4a18 18 0 0 0-14.1 6.9 18 18 0 0 1 25.3 25.2 18 18 0 0 0-11.2-32.1z" fill="#101129" opacity=".25"/><path data-name="opacity" d="M30.2 52.2a17.9 17.9 0 0 0 13.7-6.3 18 18 0 0 1-25.4-25.4 18 18 0 0 0 11.7 31.7z" fill="#fff" opacity=".5"/><circle data-name="stroke" cx="32" cy="32" r="30" fill="none" stroke="#2f446a" stroke-linecap="round" stroke-linejoin="round" stroke-width="2"/><circle data-name="stroke" cx="32" cy="32" r="18" fill="none" stroke="#2f446a" stroke-linecap="round" stroke-linejoin="round" stroke-width="2"/></svg>