<svg xmlns="http://www.w3.org/2000/svg" viewBox="0 0 64 64" aria-labelledby="title" aria-describedby="desc"><path data-name="layer2" d="M22 31.6C18.1 37.9 15.4 42 10 42H2V24h8a19.1 19.1 0 0 1 6 .9 17.4 17.4 0 0 1 4 1.9M44.7 30c-3.9-6.7-12.9-7.7-18.5-3.7" fill="none" stroke="#202020" stroke-linecap="round" stroke-miterlimit="10" stroke-width="2" stroke-linejoin="round"/><path data-name="layer2" d="M38.8 38.8a10.9 10.9 0 0 0 1.8-2.1C45.3 29.1 48 24 54 24h8v18h-8c-6 0-9.3-2-13.4-5.3M19.3 36A12.7 12.7 0 0 0 32 42l1-.2" fill="none" stroke="#202020" stroke-linecap="round" stroke-miterlimit="10" stroke-width="2" stroke-linejoin="round"/><path data-name="layer1" fill="none" stroke="#202020" stroke-linecap="round" stroke-miterlimit="10" stroke-width="2" d="M2 2l60 60m0-60L2 62" stroke-linejoin="round"/></svg>