<svg xmlns="http://www.w3.org/2000/svg" viewBox="0 0 64 64" aria-labelledby="title" aria-describedby="desc"><path data-name="layer2" d="M46 32V17a15 15 0 0 0-30 0 4 4 0 0 0 8 .1 7 7 0 1 1 12.2 4.7C30.7 27.1 16 26.2 16 36v24a2 2 0 0 0 2 2h26a2 2 0 0 0 2-2V32z" fill="#94cde8"/><path data-name="layer1" fill="#e3ebff" d="M24 36h14v18H24z"/><path d="M22 59a2 2 0 0 1-2-2V33a7.3 7.3 0 0 1 1.6-4.7C18.4 29.9 16 32.1 16 36v24a2 2 0 0 0 2 2h26a2 2 0 0 0 2-2v-1zm-2-38a4 4 0 0 0 3.9-3 4 4 0 0 1-3.9-4 14.9 14.9 0 0 1 4.1-10.3A15 15 0 0 0 16 17a4 4 0 0 0 4 4z" fill="#000064" data-name="opacity" opacity=".15"/><path data-name="stroke" d="M46 32V17a15 15 0 0 0-30 0 4 4 0 0 0 8 .1 7 7 0 1 1 12.2 4.7C30.7 27.1 16 26.2 16 36v24a2 2 0 0 0 2 2h26a2 2 0 0 0 2-2V32z" fill="none" stroke="#2e4369" stroke-linecap="round" stroke-linejoin="round" stroke-width="2"/><path data-name="stroke" fill="none" stroke="#2e4369" stroke-linecap="round" stroke-linejoin="round" stroke-width="2" d="M24 36h14v18H24z"/></svg>