<svg viewBox="0 0 64 64" xmlns="http://www.w3.org/2000/svg" aria-labelledby="title" aria-describedby="desc"><path fill="#83edff" d="M60.5 17a7.5 7.5 0 0 1-6 3 7.4 7.4 0 0 1-5.8-2.7 7.5 7.5 0 0 0-11 0 7.5 7.5 0 0 1-11.5.1 7.5 7.5 0 0 0-11.1 0A7.5 7.5 0 0 1 3.5 17L10 48h44z" data-name="layer1"/><path opacity=".5" fill="#fff" d="M54.5 20a7.4 7.4 0 0 1-5.8-2.7 7.5 7.5 0 0 0-3.9-2.2L42.1 48h8.1l5.3-28.1z" data-name="opacity"/><path opacity=".15" fill="#000064" d="M9.5 20a7.5 7.5 0 0 1-6-3L10 48h3.9l-3.1-28.1z" data-name="opacity"/><path d="M48.1 48h6l8-38M16 48h25.1m-39-38l8 38m2-28.4A7.5 7.5 0 0 1 3.6 17m38.5-2a7.5 7.5 0 0 0-4.2 2.3 7.5 7.5 0 0 1-11.5.1 7.5 7.5 0 0 0-9.9-1" stroke-width="2" stroke-miterlimit="10" stroke-linecap="round" stroke="#2e4369" fill="none" data-name="stroke" stroke-linejoin="round"/><path stroke-width="2" stroke-miterlimit="10" stroke-linecap="round" stroke="#2e4369" fill="none" d="M60.7 17a7.5 7.5 0 0 1-6 3 7.4 7.4 0 0 1-5.8-2.7l-1.2-1M2.1 2l60 60m0-60l-60 60" data-name="stroke" stroke-linejoin="round"/></svg>