<svg xmlns="http://www.w3.org/2000/svg" viewBox="0 0 64 64" aria-labelledby="title" aria-describedby="desc"><path data-name="layer1" d="M44.9 30c-3.9-6.7-13-7.8-18.6-3.7L23 29c-3.5-3.8-9.9-5-13-5H2v18h8c4 0 6.5-2.3 9.2-6.1A13.1 13.1 0 0 0 30.1 42c4.2 0 7.1-1.3 10.5-5.3C44.7 40 48 42 54 42h8V24h-8c-4 0-6.5 2.3-9.1 6" fill="#b99bea"/><path data-name="opacity" d="M10 42c4 0 6.5-2.3 9.2-6.1A13.1 13.1 0 0 0 30.1 42c4.2 0 7.1-1.3 10.5-5.3C44.7 40 48 42 54 42h8v-4.9c-.9.1-11.2 1.8-16-.1s-.5-7.4 1.2-9.8a24.6 24.6 0 0 0-2.3 2.8 12 12 0 0 0-1.5-2 70.9 70.9 0 0 1-4.4 6c-4 5-10 4-14 3s-1.6-7.5-1.3-8.6l-.7.6h-.1a41.4 41.4 0 0 0-4.9 4c-3 3-11 3.9-15.9 3.9V42z" fill="#000064" opacity=".14"/><path data-name="stroke" d="M22 31.6C18.1 37.9 15.4 42 10 42H2V24h8a19.1 19.1 0 0 1 6 .9 17.4 17.4 0 0 1 4 1.9M44.7 30c-3.9-6.7-12.9-7.7-18.5-3.7" fill="none" stroke="#2e4369" stroke-linecap="round" stroke-miterlimit="10" stroke-width="2" stroke-linejoin="round"/><path data-name="stroke" d="M38.8 38.8a10.9 10.9 0 0 0 1.8-2.1C45.3 29.1 48 24 54 24h8v18h-8c-6 0-9.3-2-13.4-5.3M19.3 36A12.7 12.7 0 0 0 32 42l1-.2M2 2l60 60m0-60L2 62" fill="none" stroke="#2e4369" stroke-linecap="round" stroke-miterlimit="10" stroke-width="2" stroke-linejoin="round"/></svg>