<svg xmlns="http://www.w3.org/2000/svg" viewBox="0 0 64 64" aria-labelledby="title" aria-describedby="desc"><path data-name="layer1" d="M50 45c-8.4-1.6-8.4-3.4-8.4-4.6v-.8a20.4 20.4 0 0 0 4.7-7.9c3.1-1 4.2-5.1 4.2-7.1 0-3.9-1.5-5.5-2.9-6.2v-1.3a1.9 1.9 0 0 0 0-.2v-.4c0-11.3-8-16.4-16-16.4s-16 5.1-16 16.4v2c-1.4.7-2.9 2.3-2.9 6.3 0 2 1.1 6 4.2 7a20.1 20.1 0 0 0 4.7 7.8v.9c0 .2.1 2.9-8.4 4.5C2.8 47 0 54.4 0 58v6h30V44.3L26.5 42a2 2 0 0 0 .8-.7 2 2 0 0 0-.7-2.7 15.3 15.3 0 0 1-6.3-9.1L20 28h-1.6c-1.2 0-1.8-2.6-1.8-3.3 0-2.6.7-2.6.9-2.6h2v-2.2c6-.5 9-2.9 11.5-5s3.7-2.9 6.6-2.9a5.6 5.6 0 0 1 6 5v5h2c.3 0 .9 0 .9 2.6 0 .6-.6 3.3-1.8 3.3h-1.5l-.4 1.5a15.3 15.3 0 0 1-6.3 9.1 2 2 0 0 0-.7 2.8 2 2 0 0 0 1 .8l-3 2.1V64H64v-6c0-3.6-2.9-10.9-14-13zm-26 5.5V52h1.5a2 2 0 0 1 0 4H24v1.5a2 2 0 0 1-4 0V56h-1.5a2 2 0 0 1 0-4H20v-1.5a2 2 0 0 1 4 0zM40.1 54H40a2 2 0 0 1 0-4 2 2 0 0 1 2 2 2 2 0 0 1-1.9 2z" fill="#202020"/></svg>