<svg xmlns="http://www.w3.org/2000/svg" viewBox="0 0 64 64" aria-labelledby="title" aria-describedby="desc"><path data-name="layer2" d="M62 24H10a8 8 0 0 1-8-8 8 8 0 0 1 8-8h52M14 40h-4a8 8 0 0 1-8-8 8 8 0 0 1 8-8m52 16H28m34 16H10a8 8 0 0 1-8-8 8 8 0 0 1 8-8" fill="none" stroke="#202020" stroke-miterlimit="10" stroke-width="2" stroke-linejoin="round" stroke-linecap="round"/><path data-name="layer1" fill="none" stroke="#202020" stroke-miterlimit="10" stroke-width="2" d="M28 50l-7-6-7 6V32h14v18zm0-18h4" stroke-linejoin="round" stroke-linecap="round"/></svg>