<svg xmlns="http://www.w3.org/2000/svg" viewBox="0 0 64 64" aria-labelledby="title" aria-describedby="desc"><path data-name="layer2" fill="#fff" d="M62 20L50 8v12h12z"/><path data-name="layer1" fill="#ebf5ff" d="M50 20V8H18v32h44V20H50z"/><path data-name="layer1" fill="#ebf5ff" d="M44 48v8H2V26h8v22h34z"/><path data-name="layer1" fill="#ebf5ff" d="M52 40v8H10V18h8v22h34z"/><path data-name="opacity" fill="#000064" opacity=".2" d="M44 48v8H2V26h8v22h34z"/><path data-name="opacity" fill="#000064" opacity=".1" d="M52 40v8H10V18h8v22h34z"/><path data-name="stroke" fill="none" stroke="#2e4369" stroke-linecap="round" stroke-miterlimit="10" stroke-width="2" d="M44 48v8H2V26h8" stroke-linejoin="round"/><path data-name="stroke" fill="none" stroke="#2e4369" stroke-linecap="round" stroke-miterlimit="10" stroke-width="2" d="M52 40v8H10V18h8" stroke-linejoin="round"/><path data-name="stroke" fill="none" stroke="#2e4369" stroke-linecap="round" stroke-miterlimit="10" stroke-width="2" d="M62 40H18V8h32l12 12v20z" stroke-linejoin="round"/><path data-name="stroke" fill="none" stroke="#2e4369" stroke-linecap="round" stroke-miterlimit="10" stroke-width="2" d="M62 20H50V8" stroke-linejoin="round"/></svg>