<svg xmlns="http://www.w3.org/2000/svg" viewBox="0 0 64 64" aria-labelledby="title" aria-describedby="desc"><path data-name="layer2" fill="#ebf5ff" d="M42 2H22v10h6v14h14v26h14V16H42V2z"/><path data-name="opacity" fill="#000064" opacity=".1" d="M42 2H22v10h6v14h14v26h14V16H42V2z"/><path data-name="layer2" fill="#ebf5ff" d="M42.3 2H42v14h14v-.3L42.3 2zM28 12H8v50h34V26H28V12z"/><path data-name="layer1" fill="#fff" d="M28.3 12H28v14h14v-.3L28.3 12z"/><path data-name="opacity" fill="#000064" opacity=".15" d="M24 12v19h18v-5H28V12h-4z"/><path data-name="stroke" fill="none" stroke="#2e4369" stroke-linecap="round" stroke-miterlimit="10" stroke-width="2" d="M42 52h14V15.7L42.3 2H22v10" stroke-linejoin="round"/><path data-name="stroke" fill="none" stroke="#2e4369" stroke-linecap="round" stroke-miterlimit="10" stroke-width="2" d="M42 2v14h14M8 12v50h34V25.7L28.3 12H8z" stroke-linejoin="round"/><path data-name="stroke" fill="none" stroke="#2e4369" stroke-linecap="round" stroke-miterlimit="10" stroke-width="2" d="M28 12v14h14" stroke-linejoin="round"/></svg>