<svg xmlns="http://www.w3.org/2000/svg" viewBox="0 0 64 64" aria-labelledby="title" aria-describedby="desc"><path data-name="layer2" d="M18 39v3a3 3 0 0 0 3 3h22a3 3 0 0 0 3-3v-3h16v20H2V39z" fill="#f27e7c"/><path data-name="opacity" fill="#000064" opacity=".15" d="M2 39h7v20H2z"/><path data-name="opacity" fill="#fff" opacity=".25" d="M56 39h6v20h-6z"/><path data-name="layer1" d="M18 42a3 3 0 0 0 3 3h22a3 3 0 0 0 3-3v-3h12V7H6v32h12z" fill="#e6f5ff"/><path data-name="stroke" d="M46 39v3a3 3 0 0 1-3 3H21a3 3 0 0 1-3-3v-3H2v20h60V39zM6 31h52M6 23h52M6 15h52M6 7h52" fill="none" stroke="#2e4369" stroke-linecap="round" stroke-miterlimit="10" stroke-width="2" stroke-linejoin="round"/></svg>