<svg xmlns="http://www.w3.org/2000/svg" viewBox="0 0 64 64" aria-labelledby="title" aria-describedby="desc"><path data-name="layer2" d="M54 44V19H10v29a3 3 0 0 1-3 3h27.3L46 29z" fill="#f8da82"/><path data-name="layer2" d="M10 48V19h38v-8H20V7H2v41a3 3 0 0 0 3 3h2a3 3 0 0 0 3-3z" fill="#f8da82"/><path data-name="opacity" d="M10 48V19h38v-8H20V7H2v41a3 3 0 0 0 3 3h2a3 3 0 0 0 3-3z" fill="#000064" opacity=".15"/><path data-name="opacity" fill="#fff" opacity=".2" d="M10 19h44v3H10z"/><path data-name="layer1" fill="#fce364" d="M30 59l16-30 16 30H30z"/><path data-name="opacity" fill="#000064" opacity=".15" d="M43.2 34.2L41 30 29.8 51h4.5l8.9-16.8z"/><path data-name="stroke" d="M54 44V19H10v29a3 3 0 0 1-3 3" fill="none" stroke="#2e4369" stroke-linecap="round" stroke-miterlimit="10" stroke-width="2" stroke-linejoin="round"/><path data-name="stroke" d="M48 19v-8H20V7H2v41a3 3 0 0 0 3 3h29.3" fill="none" stroke="#2e4369" stroke-linecap="round" stroke-miterlimit="10" stroke-width="2" stroke-linejoin="round"/><path data-name="stroke" fill="none" stroke="#2e4369" stroke-linecap="round" stroke-miterlimit="10" stroke-width="2" d="M30 59l16-30 16 30H30zm16-18v6" stroke-linejoin="round"/><circle data-name="stroke" cx="46" cy="52" r="1" fill="none" stroke="#2e4369" stroke-linecap="round" stroke-miterlimit="10" stroke-width="2" stroke-linejoin="round"/></svg>