<svg xmlns="http://www.w3.org/2000/svg" viewBox="0 0 64 64" aria-labelledby="title" aria-describedby="desc"><path data-name="layer1" d="M61.7 28c-4.4.9-6.8-.9-7.7-4-6 1.8-7.1-3.5-6-6-4.5 1.2-8.9-1.9-6-8-3.4-.7-5.7-4.3-3.9-7.4A30.3 30.3 0 1 0 61.7 28zM26.6 10.6a2 2 0 0 1 2.8 0l2 2a2 2 0 0 1-2.8 2.8l-2-2a2 2 0 0 1 0-2.8zM10 18a2 2 0 1 1 4 0v4a2 2 0 1 1-4 0zm0 16a2 2 0 0 1-1.4-3.4l2-2a2 2 0 0 1 2.8 2.8l-2 2a2 2 0 0 1-1.4.6zm7.4 15.4a2 2 0 0 1-2.8 0l-2-2a2 2 0 0 1 2.8-2.8l2 2a2 2 0 0 1 0 2.8zM18 40a2 2 0 1 1-4 0v-4a2 2 0 1 1 4 0zm0-16a2 2 0 0 1-1.4-3.4l4-4a2 2 0 1 1 2.8 2.8l-4 4a2 2 0 0 1-1.4.6zm11.4 29.4a2 2 0 0 1-2.8 0l-2-2a2 2 0 0 1 2.8-2.8l2 2a2 2 0 0 1 0 2.8zm10-4l-2 2a2 2 0 1 1-2.8-2.8l2-2a2 2 0 1 1 2.8 2.8zM32 42a10 10 0 1 1 10-10 10 10 0 0 1-10 10zm16 8a2 2 0 0 1-2 2 2 2 0 0 1-2-2v-4a2 2 0 0 1 2-2 2 2 0 0 1 2 2zm5.4-6.6a2 2 0 0 1-2.8.1l-4.2-4a2 2 0 0 1 2.8-2.9l4.2 4a2 2 0 0 1 0 2.8zM58 36a2 2 0 1 1-4 0v-4a2 2 0 1 1 4 0z" fill="#202020"/></svg>