<svg xmlns="http://www.w3.org/2000/svg" viewBox="0 0 64 64" aria-labelledby="title" aria-describedby="desc"><path data-name="layer1" d="M49 22h-.5a17 17 0 0 0-32.3 4.4A11 11 0 1 0 13 48h36a13 13 0 0 0 0-26z" fill="#cdf0f0"/><path data-name="opacity" d="M16 30a18.1 18.1 0 0 1 .3-3.5h-.2A11 11 0 1 0 13 48h21a18 18 0 0 1-18-18z" fill="#000064" opacity=".1"/><path data-name="opacity" d="M62 35a13 13 0 0 0-13-13h-.5a17 17 0 0 0-12.3-9.7l-1.2-.2h-2l-3.2.3a16.9 16.9 0 0 0-8.3 4.2A22.9 22.9 0 0 1 43 23.5a13.1 13.1 0 0 0-4.2 3.4 14.9 14.9 0 0 1 20 16.6A12.9 12.9 0 0 0 62 35z" fill="#fff" opacity=".5"/><path data-name="stroke" d="M46 48h3a13 13 0 0 0 0-26h-.5a17 17 0 0 0-32.3 4.4A11 11 0 1 0 13 48h5m14-18v22" fill="none" stroke="#2e4369" stroke-linecap="round" stroke-linejoin="round" stroke-width="2"/><path data-name="stroke" fill="none" stroke="#2e4369" stroke-linecap="round" stroke-linejoin="round" stroke-width="2" d="M24 44l8 8 8-8"/></svg>