<svg xmlns="http://www.w3.org/2000/svg" viewBox="0 0 64 64" aria-labelledby="title" aria-describedby="desc"><path data-name="layer2" d="M13 7v38a5 5 0 0 0 5 5h33V12H18a5 5 0 0 1-5-5" fill="#81dc89"/><path data-name="layer1" d="M47 12V2H18a5 5 0 0 0 0 10z" fill="#fff"/><path data-name="opacity" d="M18 2a5 5 0 0 0-5 5 4.9 4.9 0 0 0 .3 1.5A5 5 0 0 1 18 5h29V2zm15 48V34.8L20.8 50H33z" fill="#000064" opacity=".15"/><path data-name="opacity" d="M18 12a5 5 0 0 1-5-5v38a5 5 0 0 0 5 5V12z" fill="#000064" opacity=".15"/><path data-name="stroke" d="M41 50h10V12H18a5 5 0 0 1 0-10h29v10" fill="none" stroke="#2e4369" stroke-linecap="round" stroke-miterlimit="10" stroke-width="2" stroke-linejoin="round"/><path data-name="stroke" d="M13 7v38a5 5 0 0 0 5 5h7m8-15.2V62m6-6.2L33 62l-6-6.2" fill="none" stroke="#2e4369" stroke-linecap="round" stroke-miterlimit="10" stroke-width="2" stroke-linejoin="round"/></svg>