<svg xmlns="http://www.w3.org/2000/svg" viewBox="0 0 64 64" aria-labelledby="title" aria-describedby="desc"><rect data-name="layer1" x="2" y="2" width="60" height="60" rx="7.8" ry="7.8" fill="#c3d6f9"/><rect data-name="opacity" x="7" y="4" width="50" height="50" rx="6.5" ry="6.5" fill="#fff" opacity=".4"/><path data-name="opacity" d="M50.5 54h-37A6.5 6.5 0 0 1 7 47.5v-37a6.5 6.5 0 0 1 .7-2.8L4.3 4.3A7.8 7.8 0 0 0 2 9.8v44.4A7.8 7.8 0 0 0 9.8 62h44.4a7.7 7.7 0 0 0 3.5-.8L53 53.5a6.5 6.5 0 0 1-2.5.5z" fill="#000064" opacity=".15"/><path data-name="stroke" d="M9.8 2A7.8 7.8 0 0 0 2 9.8v44.4A7.8 7.8 0 0 0 9.8 62h44.4a7.8 7.8 0 0 0 7.8-7.8V9.8A7.8 7.8 0 0 0 54.2 2zM32 46V20" fill="none" stroke="#2e4369" stroke-linecap="round" stroke-miterlimit="10" stroke-width="2" stroke-linejoin="round"/><path data-name="stroke" fill="none" stroke="#2e4369" stroke-linecap="round" stroke-miterlimit="10" stroke-width="2" d="M24 38l8 8 8-8" stroke-linejoin="round"/></svg>