<svg xmlns="http://www.w3.org/2000/svg" viewBox="0 0 64 64" aria-labelledby="title" aria-describedby="desc"><circle data-name="layer3" cx="44" cy="46" r="16" fill="#9cf"/><path data-name="layer2" fill="#fff" d="M44 18L28 2v16h16z"/><path data-name="layer1" d="M44 30V18H28V2H4v54h27.5A16 16 0 0 1 44 30z" fill="#ebf5ff"/><path data-name="opacity" d="M31.5 56A16 16 0 0 1 36 32.1 16 16 0 0 0 24.2 56h7.4zM25 2v21h19v-5H28V2h-3z" fill="#000064" opacity=".15"/><path data-name="opacity" d="M44 30a16 16 0 0 0-12.5 6A16 16 0 0 1 54 58.5 16 16 0 0 0 44 30z" fill="#fff" opacity=".25"/><path data-name="stroke" fill="none" stroke="#2e4369" stroke-linecap="round" stroke-miterlimit="10" stroke-width="2" d="M31.5 56H4V2h24l16 16v12" stroke-linejoin="round"/><path data-name="stroke" fill="none" stroke="#2e4369" stroke-linecap="round" stroke-miterlimit="10" stroke-width="2" d="M28 2v16h16" stroke-linejoin="round"/><circle data-name="stroke" cx="44" cy="46" r="16" fill="none" stroke="#2e4369" stroke-linecap="round" stroke-miterlimit="10" stroke-width="2" stroke-linejoin="round"/><path data-name="stroke" fill="none" stroke="#2e4369" stroke-linecap="round" stroke-miterlimit="10" stroke-width="2" d="M44 38v16m6-6l-6 6-6-6" stroke-linejoin="round"/></svg>