<svg viewBox="0 0 64 64" xmlns="http://www.w3.org/2000/svg" aria-labelledby="title" aria-describedby="desc"><path fill="#202020" d="M40.572 48.585L34 55.294V29.03a2 2 0 1 0-4 0v26.264l-6.57-6.709a2 2 0 1 0-2.857 2.8l10.013 10.223L32 63.051l1.414-1.443L43.43 51.384a2 2 0 1 0-2.857-2.8z" data-name="layer3"/><path fill="#202020" d="M6 14.949v26h20V29.03a6 6 0 1 1 12 0v11.919h20v-26z" data-name="layer2"/><path fill="#202020" d="M6 .949v10h52v-10zM12 8a2 2 0 1 1 2-2 2 2 0 0 1-2 2zm6 0a2 2 0 1 1 2-2 2 2 0 0 1-2 2zm6 0a2 2 0 1 1 2-2 2 2 0 0 1-2 2z" data-name="layer1"/></svg>