<svg xmlns="http://www.w3.org/2000/svg" viewBox="0 0 64 64" aria-labelledby="title" aria-describedby="desc"><path data-name="layer2" d="M6 8a4 4 0 0 0 4 4h28V4H10a4 4 0 0 0-4 4z" fill="#202020"/><path data-name="layer2" d="M26 44a20 20 0 0 1 16-19.6V16H10a8 8 0 0 1-8-8v38a8 8 0 0 0 8 8h18.7A19.8 19.8 0 0 1 26 44z" fill="#202020"/><path data-name="layer1" d="M46 28a16 16 0 1 0 16 16 16 16 0 0 0-16-16zm7.4 19.4L46 54.8l-7.4-7.4a2 2 0 1 1 2.8-2.8l2.6 2.6V36a2 2 0 1 1 4 0v11.2l2.6-2.6a2 2 0 0 1 2.8 2.8z" fill="#202020"/></svg>