<svg xmlns="http://www.w3.org/2000/svg" viewBox="0 0 64 64" aria-labelledby="title" aria-describedby="desc"><path data-name="layer1" fill="#bacae9" d="M29 35v14.594l-2.758-3.103-4.484 3.986L32 62l10.242-11.523-4.484-3.986-2.759 3.104L34.998 35m-.001-6l-.002-14.597 2.764 3.107 4.482-3.989L31.992 2 21.757 13.523l4.486 3.985L29 14.404V29M6 29h52v6H6z"/><path data-name="stroke" fill="none" stroke="#2e4369" stroke-linecap="round" stroke-linejoin="round" stroke-width="2" d="M29 35v14.594l-2.758-3.103-4.484 3.986L32 62l10.242-11.523-4.484-3.986-2.759 3.104L34.998 35m-.001-6l-.002-14.597 2.764 3.107 4.482-3.989L31.992 2 21.757 13.523l4.486 3.985L29 14.404V29M6 29h52v6H6z"/></svg>