<svg xmlns="http://www.w3.org/2000/svg" viewBox="0 0 64 64" aria-labelledby="title" aria-describedby="desc"><path data-name="layer1" d="M32 0a32 32 0 1 0 32 32A31.966 31.966 0 0 0 32 0zm21 15.5a27.126 27.126 0 0 1 5.7 15.8 56.982 56.982 0 0 0-18.7-.5q-1.05-2.4-2.1-4.5A39.011 39.011 0 0 0 53 15.5zM32 5.3a26.337 26.337 0 0 1 17.3 6.4 34.21 34.21 0 0 1-13.9 9.9A137.549 137.549 0 0 0 25.7 6a25.9 25.9 0 0 1 6.3-.7zM20.5 7.9a142.785 142.785 0 0 1 9.9 15.3c-7.5 2.1-15.9 2.6-24.4 2.6A26.751 26.751 0 0 1 20.5 7.9zM5.3 32v-.9h.1c9.5 0 19-.6 27.5-3.1.6 1.3 1.3 2.6 1.9 4-11.2 3.3-18.1 10.6-22.9 17.6A26.779 26.779 0 0 1 5.3 32zM32 58.7a26.821 26.821 0 0 1-16.2-5.5c4.5-6.8 10.8-13.5 21-16.3a94.41 94.41 0 0 1 5.4 19.8 26.875 26.875 0 0 1-10.2 2zM47.1 54a103.472 103.472 0 0 0-5-18.2 51.229 51.229 0 0 1 16.3.7A27.008 27.008 0 0 1 47.1 54z" fill="#202020"/></svg>