<svg xmlns="http://www.w3.org/2000/svg" viewBox="0 0 64 64" aria-labelledby="title" aria-describedby="desc"><path data-name="layer2" fill="#f5b94b" d="M13 16h30v36H13z"/><path data-name="layer1" d="M13 52v8a2 2 0 0 0 2 2h26a2 2 0 0 0 2-2v-8" fill="#d5e2f4"/><path data-name="opacity" fill="#101129" opacity=".18" d="M13 16h6v36h-6zm6 44v-8h-6v8a2 2 0 0 0 2 2h6a2 2 0 0 1-2-2z"/><path data-name="opacity" fill="#fff" opacity=".5" d="M32 16h6v36h-6zm0 44a2 2 0 0 1-2 2h6a2 2 0 0 0 2-2v-8h-6z"/><path data-name="stroke" fill="none" stroke="#2f446a" stroke-linecap="round" stroke-linejoin="round" stroke-width="2" d="M13 16h30v36H13zm0 36v8a2 2 0 0 0 2 2h26a2 2 0 0 0 2-2v-8"/><path data-name="stroke" d="M51 2H39a4 4 0 0 0-4 4v38" fill="none" stroke="#2f446a" stroke-linecap="round" stroke-linejoin="round" stroke-width="2"/></svg>