<svg xmlns="http://www.w3.org/2000/svg" viewBox="0 0 64 64" aria-labelledby="title" aria-describedby="desc"><path data-name="layer2" d="M13.625 41.006v7.442a1 1 0 0 0 .45.835l17.377 11.438a1 1 0 0 0 1.1 0l17.37-11.344a1 1 0 0 0 .453-.837v-7.463" fill="none" stroke="#202020" stroke-linecap="round" stroke-miterlimit="10" stroke-width="2" stroke-linejoin="round"/><path data-name="layer1" d="M60.835 14.029L44.894 3.908a1 1 0 0 0-1.172.073L33.108 12.73a1 1 0 0 0 .133 1.636l16.532 9.616a1 1 0 0 0 1.138-.092l10.022-8.244a1 1 0 0 0-.098-1.617zM3.292 34.934l16.317 9.588a1 1 0 0 0 1.113-.067l10.141-7.726a1 1 0 0 0-.067-1.638l-15.648-10.01a1 1 0 0 0-1.141.044L3.2 33.273a1 1 0 0 0 .092 1.661zM19.56 3.926L3.2 14.55a1 1 0 0 0-.053 1.64l10.86 8.1a1 1 0 0 0 1.134.043l15.715-9.969a1 1 0 0 0 .115-1.6L20.756 4.006a1 1 0 0 0-1.196-.08zm13.604 32.81l10.3 7.725a1 1 0 0 0 1.111.06l16.218-9.63a1 1 0 0 0 .136-1.623l-10-8.464a1 1 0 0 0-1.178-.084L33.233 35.089a1 1 0 0 0-.069 1.647z" fill="none" stroke="#202020" stroke-linecap="round" stroke-miterlimit="10" stroke-width="2" stroke-linejoin="round"/></svg>