<svg xmlns="http://www.w3.org/2000/svg" viewBox="0 0 64 64" aria-labelledby="title" aria-describedby="desc"><path data-name="layer2" d="M49 18h-.5a17 17 0 0 0-32.3 4.4A11 11 0 1 0 13 44h36a13 13 0 0 0 0-26z" fill="#cdf0f0"/><path data-name="opacity" d="M16 26a18.1 18.1 0 0 1 .3-3.5h-.2A11 11 0 1 0 13 44h21a18 18 0 0 1-18-18z" fill="#000064" opacity=".1"/><path data-name="opacity" d="M62 31a13 13 0 0 0-13-13h-.5a17 17 0 0 0-12.3-9.7L35 8.1h-2l-3.2.3a16.9 16.9 0 0 0-8.3 4.2A22.9 22.9 0 0 1 43 19.5a13.1 13.1 0 0 0-4.2 3.4 14.9 14.9 0 0 1 20 16.6A12.9 12.9 0 0 0 62 31z" fill="#fff" opacity=".5"/><path data-name="layer1" d="M38 53.4a6.2 6.2 0 0 0-.3-1.5C36.5 47.6 32 42 32 42s-4.5 5.6-5.7 9.9a6.2 6.2 0 0 0-.3 1.5v.5a6 6 0 1 0 12 0v-.5z" fill="#cdebf2"/><path data-name="opacity" d="M34 56a6.1 6.1 0 0 1-6-6.1v-.5a6.2 6.2 0 0 1 .3-1.5l.4-1.1a22.8 22.8 0 0 0-2.4 5.2 6.2 6.2 0 0 0-.3 1.5v.5a6 6 0 0 0 12 .6 5.9 5.9 0 0 1-4 1.4z" fill="#000064" opacity=".1"/><path data-name="stroke" d="M42 44h7a13 13 0 1 0 0-26h-.5a17 17 0 0 0-32.3 4.4A11 11 0 1 0 13 44h9" fill="none" stroke="#2e4369" stroke-linecap="round" stroke-linejoin="round" stroke-width="2"/><path data-name="stroke" d="M38 53.4a6.2 6.2 0 0 0-.3-1.5C36.5 47.6 32 42 32 42s-4.5 5.6-5.7 9.9a6.2 6.2 0 0 0-.3 1.5v.5a6 6 0 1 0 12 0v-.5z" fill="none" stroke="#2e4369" stroke-linecap="round" stroke-linejoin="round" stroke-width="2"/></svg>