<svg xmlns="http://www.w3.org/2000/svg" viewBox="0 0 64 64" aria-labelledby="title" aria-describedby="desc"><path data-name="layer2" d="M26 22a2 2 0 0 0 1.1-3.7l-24-16A2 2 0 0 0 .9 5.7l24 16a2 2 0 0 0 1.1.3zM63.7 2.9a2 2 0 0 0-2.8-.6l-24 16A2 2 0 0 0 38 22a2 2 0 0 0 1.1-.3l24-16a2 2 0 0 0 .6-2.8z" fill="#202020"/><path data-name="layer1" d="M54 26H10a2 2 0 0 0 0 4h2.9l8.9 23.8L29.3 30h5.4l7.5 23.8L51.1 30H54a2 2 0 0 0 0-4z" fill="#202020"/><path data-name="layer1" d="M54 58V33.7L44.9 58h-5.6L32 34.7 24.7 58h-5.6L10 33.7V58a2 2 0 0 0 0 4h44a2 2 0 0 0 0-4z" fill="#202020"/></svg>