<svg xmlns="http://www.w3.org/2000/svg" viewBox="0 0 64 64" aria-labelledby="title" aria-describedby="desc"><path data-name="layer2" d="M26 2v16h28V2zm20 10H34a2 2 0 0 1 0-4h12a2 2 0 0 1 0 4z" fill="#202020"/><path data-name="layer1" fill="#202020" d="M10 24h8v4h-8z"/><path data-name="layer1" d="M57 32h-4.4L48 26l1-4H31l1 4-4.6 6H7a3 3 0 0 0-3 3v24a3 3 0 0 0 3 3h50a3 3 0 0 0 3-3V35a3 3 0 0 0-3-3zM16 48a4 4 0 1 1 4-4 4 4 0 0 1-4 4zm24 8a11 11 0 1 1 11-11 11 11 0 0 1-11 11z" fill="#202020"/></svg>