<svg xmlns="http://www.w3.org/2000/svg" viewBox="0 0 64 64" aria-labelledby="title" aria-describedby="desc"><path data-name="layer6" d="M57 32h-4.4L48 26H32l-4.6 6H7a3 3 0 0 0-3 3v24a3 3 0 0 0 3 3h50a3 3 0 0 0 3-3V35a3 3 0 0 0-3-3z" fill="#778399"/><circle data-name="layer5" cx="16" cy="44" r="4" fill="#fbd94e"/><circle data-name="layer2" cx="40" cy="45" r="11" fill="#575f76"/><path data-name="opacity" d="M40 56a11 11 0 0 1-9.5-16.5 11 11 0 1 0 15 15A10.9 10.9 0 0 1 40 56z" fill="#000064" opacity=".2"/><circle data-name="layer4" cx="40" cy="45" r="6" fill="#78d1f4"/><path data-name="layer3" fill="#c3d6e0" d="M26 2h28v16H26z"/><path data-name="layer2" fill="#575f76" d="M32 26l-2-8h20l-2 8H32zm-22 0h8v6h-8z"/><circle data-name="layer1" cx="41" cy="44" r="2" fill="#fff"/><path data-name="layer1" fill="#fff" d="M26 2l16 16h5.4l-16-16H26zm28 2.6L51.4 2H38l16 16V4.6z"/><path data-name="stroke" fill="none" stroke="#2e4369" stroke-linecap="round" stroke-miterlimit="10" stroke-width="2" d="M10 32v-6h8v6" stroke-linejoin="round"/><path data-name="stroke" d="M57 32h-4.4L48 26H32l-4.6 6H7a3 3 0 0 0-3 3v24a3 3 0 0 0 3 3h50a3 3 0 0 0 3-3V35a3 3 0 0 0-3-3z" fill="none" stroke="#2e4369" stroke-linecap="round" stroke-miterlimit="10" stroke-width="2" stroke-linejoin="round"/><circle data-name="stroke" cx="16" cy="44" r="4" fill="none" stroke="#2e4369" stroke-linecap="round" stroke-miterlimit="10" stroke-width="2" stroke-linejoin="round"/><circle data-name="stroke" cx="40" cy="45" r="11" fill="none" stroke="#2e4369" stroke-linecap="round" stroke-miterlimit="10" stroke-width="2" stroke-linejoin="round"/><circle data-name="stroke" cx="40" cy="45" r="6" fill="none" stroke="#2e4369" stroke-linecap="round" stroke-miterlimit="10" stroke-width="2" stroke-linejoin="round"/><path data-name="stroke" fill="none" stroke="#2e4369" stroke-linecap="round" stroke-miterlimit="10" stroke-width="2" d="M26 2h28v16H26zm4 16l2 8m18-8l-2 8M34 10h12" stroke-linejoin="round"/></svg>