<svg xmlns="http://www.w3.org/2000/svg" viewBox="0 0 64 64" aria-labelledby="title" aria-describedby="desc"><circle data-name="layer2" cx="20.2" cy="47" r="5" fill="#202020"/><circle data-name="layer2" cx="52.2" cy="47" r="5" fill="#202020"/><path data-name="layer1" d="M28.7 44a8.9 8.9 0 0 1 .5 2.9 9 9 0 0 1-.1 1.1h14.1a9 9 0 0 1-.1-1.1 8.9 8.9 0 0 1 .5-2.9zm34.5-14h-5.9l-5-10H41.2v20h5.3A9 9 0 0 1 58 40h5.3z" fill="#202020"/><path data-name="layer1" d="M37.2 17.4l1-1.3h9a2 2 0 0 0 0-4h-11l-6 8H6.8L-.1 37.2l8 10.8h3.4a8.7 8.7 0 0 1 .4-4H9.9l-3-4h7.5a9 9 0 0 1 11.5 0h11.3zM62.1 44h-1.5a8.7 8.7 0 0 1 .5 4h1a2 2 0 0 0 0-4z" fill="#202020"/></svg>