<svg xmlns="http://www.w3.org/2000/svg" viewBox="0 0 64 64" aria-labelledby="title" aria-describedby="desc"><path data-name="layer2" d="M22 22h20a2 2 0 0 0 0-4H22a2 2 0 0 0 0 4zm0 8h20a2 2 0 0 0 0-4H22a2 2 0 0 0 0 4zm0 8h14a2 2 0 0 0 0-4H22a2 2 0 0 0 0 4z" fill="#202020"/><path data-name="layer1" d="M54 2H10a2 2 0 0 0-2 2v56a2 2 0 0 0 2 2h44a2 2 0 0 0 2-2V4a2 2 0 0 0-2-2zM20 56h-2a2 2 0 0 1 0-4h2a2 2 0 0 1 0 4zm16 0h-8a2 2 0 0 1 0-4h8a2 2 0 0 1 0 4zm10 0h-2a2 2 0 0 1 0-4h2a2 2 0 0 1 0 4zm4-10H14V10h36z" fill="#202020"/></svg>