<svg viewBox="0 0 64 64" xmlns="http://www.w3.org/2000/svg" aria-labelledby="title" aria-describedby="desc"><path stroke-width="2" stroke-miterlimit="10" stroke="#202020" fill="none" d="M57.7 16.5A30 30 0 1 1 43.4 4.3" data-name="layer2" stroke-linejoin="round" stroke-linecap="round"/><path stroke-width="2" stroke-miterlimit="10" stroke="#202020" fill="none" d="M32 12c0 4.2 6 1.7 6 6s-4.6 7.3-8 5-7.9-3.5-11.9 2.1-1.3 12 1.5 11.9 5.5-2.8 6.7.6 1.5 3.4 2.8 4.2 1.3 2.2.9 4.1 2 8 4 8 3.8-.8 4-4 2.6-3.3 3.8-4.2-.9-4.3 1.3-6.5 6.6-6.2 2.8-7.2-3.5-1.8-4-3.4-2-3.2 1-3.3a11.9 11.9 0 0 0 8.7-3.6c2.5-2.6 3.8-5.2 6.1-5.2A25.6 25.6 0 0 0 51.2 9a30 30 0 0 0-7.8-4.7C36.7 7.5 32 7.8 32 12z" data-name="layer1" stroke-linejoin="round" stroke-linecap="round"/></svg>