<svg xmlns="http://www.w3.org/2000/svg" viewBox="0 0 64 64" aria-labelledby="title" aria-describedby="desc"><circle data-name="layer2" cx="32" cy="32" r="30" fill="#87d3ff"/><path data-name="opacity" d="M9 28A29.9 29.9 0 0 1 20.8 4.2a30 30 0 1 0 29.4 51.6A30 30 0 0 1 9 28z" fill="#000032" opacity=".2"/><path data-name="layer1" d="M43.5 4.3C36.7 7.5 32 7.8 32 12s6 1.7 6 6-4.6 7.3-8 5-7.9-3.5-11.9 2.1-1.3 12 1.5 11.9 5.5-2.8 6.7.6 1.5 3.4 2.8 4.2 1.3 2.2.9 4.1 2 8 4 8 3.8-.8 4-4 2.6-3.3 3.8-4.2-.9-4.3 1.3-6.5 6.6-6.2 2.8-7.2-3.5-1.8-4-3.4-2-3.2 1-3.3a11.9 11.9 0 0 0 8.7-3.6c2.5-2.6 3.8-5.2 6.1-5.2A30.1 30.1 0 0 0 43.5 4.3z" fill="#3db47b"/><circle data-name="stroke" cx="32" cy="32" r="30" fill="none" stroke="#2e4369" stroke-linecap="round" stroke-linejoin="round" stroke-width="2"/><path data-name="stroke" d="M43.4 4.3C36.7 7.5 32 7.8 32 12s6 1.7 6 6-4.6 7.3-8 5-7.9-3.5-11.9 2.1-1.3 12 1.5 11.9 5.5-2.8 6.7.6 1.5 3.4 2.8 4.2 1.3 2.2.9 4.1 2 8 4 8 3.8-.8 4-4 2.6-3.3 3.8-4.2-.9-4.3 1.3-6.5 6.6-6.2 2.8-7.2-3.5-1.8-4-3.4-2-3.2 1-3.3a11.9 11.9 0 0 0 8.7-3.6c2.5-2.6 3.8-5.2 6.1-5.2" fill="none" stroke="#2e4369" stroke-linecap="round" stroke-linejoin="round" stroke-width="2"/></svg>