<svg xmlns="http://www.w3.org/2000/svg" viewBox="0 0 64 64" aria-labelledby="title" aria-describedby="desc"><path data-name="layer4" d="M8.313 25.106c-4.507 0-8.313 1.9-8.313 7.7 0 4.6 2.5 7.5 8.413 7.5 6.911 0 7.311-4.5 7.311-4.5h-3.305s-.7 2.4-4.207 2.4a4.607 4.607 0 0 1-4.908-4.6h12.82v-1.9c.001-2.7-1.802-6.6-7.811-6.6zm-5.008 6.3c0-2.6 2.4-4.1 4.807-4.1 2.7 0 4.507 1.7 4.507 4.1z" fill="#202020"/><path data-name="layer3" d="M32.751 34.106a7.557 7.557 0 0 0 .1-1.5 7.168 7.168 0 0 0-7.612-7.5c-4.507 0-5.809 2.4-5.809 2.4v-8h-3.305v17.8c0 1-.1 2.4-.1 2.4h3.205s.1-1 .1-2c0 0 1.6 2.5 5.909 2.5a7.233 7.233 0 0 0 7.311-5.2c.073-.329.193-.729.317-1.142-.035.082-.087.156-.116.242zm-8.413 4c-3.305 0-5.008-2.6-5.008-5.4 0-2.6 1.6-5.4 5.008-5.4 3.1 0 5.008 2.3 5.008 5.3 0 3.3-2.304 5.5-5.008 5.5z" fill="#202020"/><path data-name="layer2" d="M40.764 25.106c-6.811 0-7.211 3.7-7.211 4.3h3.405s.2-2.2 3.606-2.2c2.2 0 4.006 1 4.006 3v.7h-4.007c-4.227 0-6.867 1.022-7.7 2.958-.124.413-.244.813-.317 1.142v.5c0 3.1 2.6 4.7 6.009 4.7 4.707 0 6.31-2.6 6.31-2.6 0 1 .1 2.1.1 2.1h3s-.1-1.3-.1-2.1v-7a8.582 8.582 0 0 0-.4-2.4l-.6-.7c-1.294-1.9-3.798-2.4-6.101-2.4zm-1.6 13c-2.4 0-3.505-1.2-3.505-2.6 0-2.5 3.505-2.6 8.613-2.6v1h.1c-.003 1.2-.804 4.2-5.211 4.2z" fill="#202020"/><path data-name="layer1" fill="#202020" d="M50.679 45.006h3.606L64 25.706h-3.405l-5.409 10.9-5.508-10.9h-3.806l1.001 1.8.601.7 6.11 11.4-2.905 5.4z"/></svg>