<svg xmlns="http://www.w3.org/2000/svg" viewBox="0 0 64 64" aria-labelledby="title" aria-describedby="desc"><path data-name="layer2" d="M36.9 50H2s0-6 7-8 9-4.4 9-6v-2a61.4 61.4 0 0 1-12-2c3.3-3.3 6-4.3 6-18 0-6 3.7-11.6 10-11.6s14 0 14 11.6c0 13.7 2.7 14.7 6 18a61.7 61.7 0 0 1-12 2v2c0 1.6 1.1 3.7 9 6a10.6 10.6 0 0 1 3.9 2" fill="none" stroke="#202020" stroke-miterlimit="10" stroke-width="2" stroke-linejoin="round" stroke-linecap="round"/><path data-name="layer1" fill="none" stroke="#202020" stroke-miterlimit="10" stroke-width="2" d="M56 31L35.2 51.7 30.8 62l10.4-4.3L62 37l-6-6zM35.2 51.7l6 6" stroke-linejoin="round" stroke-linecap="round"/></svg>