<svg viewBox="0 0 64 64" xmlns="http://www.w3.org/2000/svg" aria-labelledby="title" aria-describedby="desc"><path fill="#7b8baf" d="M48.041 48V10c-.061-4-10.332-7.98-23-7.98-12.7 0-23 3.563-23 7.981V46c0 4.4 10.3 7.961 23 7.961 12 0 23-2.961 23-5.961z" data-name="layer3"/><ellipse opacity=".25" fill="#fff" ry="8" rx="23" cy="10" cx="25.041" data-name="opacity"/><path opacity=".18" fill="#000064" d="M2.041 10v36c0 3.156 5.307 5.883 13 7.171V17.206c-7.693-1.294-13-4.035-13-7.206z" data-name="opacity"/><path opacity=".15" fill="#fff" d="M31.041 17.723v35.958a50.455 50.455 0 0 0 7.371-1.2l5.629-2.617V14.508a37.791 37.791 0 0 1-13 3.215z" data-name="opacity"/><path d="M62.041 37.027L55.018 30 34.264 50.707l7.023 7.027 20.754-20.707z" fill="#78d1f4" data-name="layer2"/><path d="M34.264 50.707L29.881 62l11.406-4.266-7.023-7.027z" fill="#f7e7cb" data-name="layer1"/><path opacity=".18" fill="#000064" d="M34.264 50.707l13.777-13.746v-6.938L48.018 30 27.264 50.707l-1.257 3.24a74.29 74.29 0 0 0 7.17-.437z" data-name="opacity"/><ellipse stroke-width="2" stroke-linejoin="round" stroke-linecap="round" stroke="#2e4369" fill="none" ry="8" rx="23" cy="10" cx="24.959" data-name="stroke"/><path stroke-width="2" stroke-linejoin="round" stroke-linecap="round" stroke="#2e4369" fill="none" d="M47.959 22.019c0 4.4-10.3 7.962-23 7.962s-23-3.564-23-7.962m46 12.001c0 4.4-10.3 7.961-23 7.961s-23-3.565-23-7.961M55.018 30L34.264 50.707 29.881 62l11.406-4.266 20.754-20.707L55.018 30zM34.264 50.707l7.023 7.027" data-name="stroke"/><path stroke-width="2" stroke-linejoin="round" stroke-linecap="round" stroke="#2e4369" fill="none" d="M33 53.46a63.168 63.168 0 0 1-8.041.5c-12.7 0-23-3.564-23-7.961V10m46 26.859V9.96" data-name="stroke"/></svg>