<svg xmlns="http://www.w3.org/2000/svg" viewBox="0 0 64 64" aria-labelledby="title" aria-describedby="desc"><path data-name="layer3" d="M54 28v-9H10v29a3 3 0 0 1-3 3h25.9l1.3-3.3z" fill="#f8da82"/><path data-name="layer3" d="M10 48V19h38v-8H20V7H2v41a3 3 0 0 0 3 3h2a3 3 0 0 0 3-3z" fill="#f8da82"/><path data-name="opacity" d="M10 48V19h38v-8H20V7H2v41a3 3 0 0 0 3 3h2a3 3 0 0 0 3-3z" fill="#000064" opacity=".15"/><path data-name="opacity" fill="#fff" opacity=".2" d="M10 19h44v3H10z"/><path data-name="opacity" fill="#000064" opacity=".15" d="M34.2 47.7L52 30l-2-2-20.8 20.7-.9 2.3H33l1.2-3.3z"/><path data-name="layer2" fill="#efcaa8" d="M29.8 59l11.4-4.3-7-7L29.8 59z"/><path data-name="layer1" fill="#f27e7c" d="M62 34l-7-7-20.8 20.7 7 7L62 34z"/><path data-name="stroke" d="M54 28v-9H10v29a3 3 0 0 1-3 3" fill="none" stroke="#2e4369" stroke-linecap="round" stroke-miterlimit="10" stroke-width="2" stroke-linejoin="round"/><path data-name="stroke" d="M48 19v-8H20V7H2v41a3 3 0 0 0 3 3h27.9" fill="none" stroke="#2e4369" stroke-linecap="round" stroke-miterlimit="10" stroke-width="2" stroke-linejoin="round"/><path data-name="stroke" fill="none" stroke="#2e4369" stroke-linecap="round" stroke-miterlimit="10" stroke-width="2" d="M55 27L34.2 47.7 29.8 59l11.4-4.3L62 34l-7-7zM34.2 47.7l7 7" stroke-linejoin="round"/></svg>