<svg xmlns="http://www.w3.org/2000/svg" viewBox="0 0 64 64" aria-labelledby="title" aria-describedby="desc"><path data-name="layer2" fill="#202020" d="M55 30L34.3 50.7 29.9 62l11.4-4.3L62 37l-7-7z"/><ellipse data-name="layer1" cx="25" cy="10" rx="23" ry="8" fill="#202020"/><path data-name="layer1" d="M25 29c13.6 0 23-3.9 23-6v-6.2C43 20.4 34 22 25 22S7 20.3 2 16.8V23c0 2 9.4 6 23 6zm5.5 20.3a4 4 0 0 1 .9-1.4l3.7-3.7A63.6 63.6 0 0 1 25 45c-9.4 0-19-2-23-5.8V46c0 4.3 9.8 7.8 22.1 8h4.6z" fill="#202020"/><path data-name="layer1" d="M25 41a60.1 60.1 0 0 0 15.3-1.8l7.7-7.8v-4.2C43.9 31 34.4 33 25 33S6 31 2 27.2V35c0 2 9.4 6 23 6z" fill="#202020"/></svg>