<svg xmlns="http://www.w3.org/2000/svg" viewBox="0 0 64 64" aria-labelledby="title" aria-describedby="desc"><path data-name="layer2" fill="#202020" d="M54.9 30L34.1 50.7 29.8 62l11.4-4.3L61.9 37l-7-7z"/><path data-name="layer1" d="M34.1 8a2 2 0 0 0-2-2H29a5 5 0 0 0-9.8 0h-3.1a2 2 0 0 0-2 2v4h20zm7 4v26.1l5-5V10a2 2 0 0 0-2-2h-6v4h3zM29 53H7.1V12h3V8h-6a2 2 0 0 0-2 2v46a2 2 0 0 0 2 2H27z" fill="#202020"/><path data-name="layer1" d="M31.3 47.9l5.8-5.8V16h-26v33h19.4a4 4 0 0 1 .8-1.1zM18.1 20h12a2 2 0 0 1 0 4h-12a2 2 0 0 1 0-4zm0 10h12a2 2 0 0 1 0 4h-12a2 2 0 0 1 0-4zm-2 12a2 2 0 0 1 2-2h12a2 2 0 0 1 0 4h-12a2 2 0 0 1-2-2z" fill="#202020"/></svg>