<svg xmlns="http://www.w3.org/2000/svg" viewBox="0 0 64 64" aria-labelledby="title" aria-describedby="desc"><path data-name="layer2" d="M58.5 25.9l-5-16.1A10.5 10.5 0 0 0 43 2H5v32h48c4 0 7.1-2.9 5.5-8.1zM40 18H26a5 5 0 0 1 0-10h14a5 5 0 0 1 0 10z" fill="#d5e2f4"/><path data-name="opacity" d="M55.1 31h-48V2h-2v32h48c2.8 0 5.2-1.5 5.8-4.1a6.5 6.5 0 0 1-3.8 1.1z" fill="#101129" opacity=".25"/><circle data-name="layer1" cx="14" cy="25" r="1" fill="#536998"/><circle data-name="layer1" cx="14" cy="17" r="1" fill="#536998"/><path data-name="stroke" fill="none" stroke="#2f446a" stroke-linecap="round" stroke-linejoin="round" stroke-width="2" d="M23 62V34m5.9 21.1v-.6c-1.1-4.5-6-12.2-6-14.5 0 2.3-4.7 10.1-5.7 14.5v.5a5.9 5.9 0 0 0-.1 1 6 6 0 0 0 12 0 5.7 5.7 0 0 0-.2-.9zM11 60.4A6 6 0 0 1 9.1 56a6.1 6.1 0 0 1 .1-1v-.5C10.3 50.1 15 42.3 15 40v-6m30-21a5 5 0 0 1-5 5H26a5 5 0 0 1-5-5 5 5 0 0 1 5-5h14a5 5 0 0 1 5 5z"/><path data-name="stroke" d="M58.5 25.9l-5-16.1A10.5 10.5 0 0 0 43 2H5v32h48c4 0 7.1-2.9 5.5-8.1z" fill="none" stroke="#2f446a" stroke-linecap="round" stroke-linejoin="round" stroke-width="2"/><circle data-name="stroke" cx="14" cy="25" r="1" fill="none" stroke="#2f446a" stroke-linecap="round" stroke-linejoin="round" stroke-width="2"/><circle data-name="stroke" cx="14" cy="17" r="1" fill="none" stroke="#2f446a" stroke-linecap="round" stroke-linejoin="round" stroke-width="2"/></svg>