<svg xmlns="http://www.w3.org/2000/svg" viewBox="0 0 64 64" aria-labelledby="title" aria-describedby="desc"><path data-name="layer2" fill="none" stroke="#202020" stroke-linecap="round" stroke-linejoin="round" stroke-width="2" d="M19 36v26m6-6a6 6 0 0 1-6 6 6 6 0 0 1-6-6v-2a6 6 0 0 1 6-6 6 6 0 0 1 6 6zm14-20v26m6-6a6 6 0 0 1-6 6 6 6 0 0 1-6-6v-2a6 6 0 0 1 6-6 6 6 0 0 1 6 6z"/><path data-name="layer1" d="M43 22H17A10 10 0 0 0 7 32v4h50V12A10 10 0 0 0 47 2H21s-.1 8 8 8h10c1.6 0 4 .4 4 3.9z" fill="none" stroke="#202020" stroke-linecap="round" stroke-linejoin="round" stroke-width="2"/></svg>