<svg xmlns="http://www.w3.org/2000/svg" viewBox="0 0 64 64" aria-labelledby="title" aria-describedby="desc"><path data-name="layer1" d="M43 22H17A10 10 0 0 0 7 32v4h50V12A10 10 0 0 0 47 2H21s-.1 8 8 8h10c1.6 0 4 .4 4 3.9z" fill="#d5e2f4"/><path data-name="opacity" d="M29 10h10c1.6 0 4 .4 4 3.9V22h2V10.9C45 7.4 42.6 7 41 7H31c-4.8 0-6.7-2.7-7.5-5H21s-.1 8 8 8zM9 33v-4a10 10 0 0 1 .8-3.9A10 10 0 0 0 7 32v4h50v-3z" fill="#101129" opacity=".25"/><path data-name="stroke" fill="none" stroke="#2f446a" stroke-linecap="round" stroke-linejoin="round" stroke-width="2" d="M19 36v26m6-6a6 6 0 0 1-6 6 6 6 0 0 1-6-6v-2a6 6 0 0 1 6-6 6 6 0 0 1 6 6zm14-20v26m6-6a6 6 0 0 1-6 6 6 6 0 0 1-6-6v-2a6 6 0 0 1 6-6 6 6 0 0 1 6 6zm-2-34H17A10 10 0 0 0 7 32v4h50V12A10 10 0 0 0 47 2H21s-.1 8 8 8h10c1.6 0 4 .4 4 3.9z"/></svg>