<svg xmlns="http://www.w3.org/2000/svg" viewBox="0 0 64 64" aria-labelledby="title" aria-describedby="desc"><path data-name="layer2" d="M53 9H11a9 9 0 0 0-9 9v25h60V18a9 9 0 0 0-9-9z" fill="#9cf"/><path data-name="opacity" d="M44 43V18a9 9 0 0 1 9-9 9 9 0 0 1 9 9v25z" fill="#000064" opacity=".15"/><path data-name="layer1" fill="#f27e7c" d="M20 21h8v10h-8z"/><path data-name="opacity" fill="#000064" opacity=".15" d="M20 25h-4v10h8v-4h-4v-6z"/><path data-name="opacity" d="M53 9H11a9 9 0 0 0-8.8 7h42A9 9 0 0 1 53 9z" fill="#fff" opacity=".25"/><path data-name="stroke" fill="none" stroke="#2e4369" stroke-linecap="round" stroke-miterlimit="10" stroke-width="2" d="M56 35h-6m-22 8v18m-8-40h8v10h-8zm8 0h8m8 22V18a9 9 0 0 1 9-9 9 9 0 0 1 9 9v25z" stroke-linejoin="round"/><path data-name="stroke" d="M44 43H2V18a9 9 0 0 1 9-9h42" fill="none" stroke="#2e4369" stroke-linecap="round" stroke-miterlimit="10" stroke-width="2" stroke-linejoin="round"/></svg>