<svg xmlns="http://www.w3.org/2000/svg" viewBox="0 0 64 64" aria-labelledby="title" aria-describedby="desc"><path data-name="layer2" d="M35 22h-2l-2 2-20 2-5.7-7.6a1 1 0 0 0-.8-.4H1.443a1 1 0 0 0-.936 1.351L3 26a3.87 3.87 0 0 0 2.766 5.416l.052.008 13.818 1.531S22 33 23 36c.575 1.726 3 11 12 11h4.7l-.571 4H24a1 1 0 0 0 0 2h36a4.188 4.188 0 0 0 4-4 1 1 0 0 0-2 0 2.189 2.189 0 0 1-2 2h-4.847l.6-4.2C59.545 46.01 64 42.886 64 39c0-7-10-15-22-15l-2-2h-5zm16 6a3.118 3.118 0 0 1 .016-.334C56.859 29.9 61.258 34.077 61.915 38H52a.9.9 0 0 1-1-1zm2.7 19l-.571 4H41.153l.571-4zM42 31v4h-4v4h-4v-4h-4v-4h4v-4h4v4z" fill="#202020"/><path data-name="layer1" d="M37 17h23a1 1 0 0 0 0-2H12a1 1 0 0 0 0 2h23v5h2z" fill="#202020"/></svg>