<svg xmlns="http://www.w3.org/2000/svg" viewBox="0 0 64 64" aria-labelledby="title" aria-describedby="desc"><path data-name="layer1" d="M9.2 23l3.3 24c.4 2 1.8 4 4 4h30.9c2.2 0 3.7-2.1 4-4l3.5-24" fill="#e8effd"/><path data-name="layer1" d="M59 13l-.7 7.1a3.4 3.4 0 0 1-3.4 2.9H9.2a3.4 3.4 0 0 1-3.4-2.9L5 13z" fill="#e8effd"/><path data-name="opacity" d="M16.2 23a3.4 3.4 0 0 1-3.4-2.9L12 13H5l.8 7.1A3.4 3.4 0 0 0 9.2 23h7z" fill="#000028" opacity=".12"/><path data-name="opacity" d="M54.9 23H9.2l.5 4 2.7 20c.4 2 1.8 4 4 4h7c-2.2 0-3.6-2-4-4l-2.6-20h37.5z" fill="#000028" opacity=".12"/><path data-name="stroke" fill="none" stroke="#2e4369" stroke-linecap="round" stroke-linejoin="round" stroke-width="2" d="M2 13h60M9.2 23l3.3 24c.4 2 1.8 4 4 4h30.9c2.2 0 3.7-2.1 4-4l3.5-24"/><path data-name="stroke" d="M5 13l.8 7.1A3.4 3.4 0 0 0 9.2 23h45.7a3.4 3.4 0 0 0 3.4-2.9L59 13" fill="none" stroke="#2e4369" stroke-linecap="round" stroke-linejoin="round" stroke-width="2"/></svg>