<svg xmlns="http://www.w3.org/2000/svg" viewBox="0 0 64 64" aria-labelledby="title" aria-describedby="desc"><path data-name="layer1" d="M17.596 30.602a3 3 0 0 1-.534-5.952l3.4-.619a6.962 6.962 0 0 0-2.748-.645c-.039.002-.075.012-.114.012a9.61 9.61 0 0 0-9.6 9.6C8 38.292 12.707 42 18 42c5.09 0 7.453-3.59 11.397-10.49 3.78-6.616 8.066-14.112 17.004-14.112A15.617 15.617 0 0 1 62 32.998C62 41.6 54.601 48 46 48c-.168 0 .16.026 0 0a14.665 14.665 0 0 1-11.742-5.932 3 3 0 0 1 4.697-3.733A9.46 9.46 0 0 0 47 42c.047 0-.047-.002 0 0a8.724 8.724 0 0 0 9-9.002 9.61 9.61 0 0 0-9.599-9.6c-5.09 0-7.851 4.189-11.795 11.089C30.826 41.102 26.94 48 18 48 9.398 48 2 41.601 2 32.998a15.609 15.609 0 0 1 15.172-15.58 3.01 3.01 0 0 1 .428-.042 12.753 12.753 0 0 1 4.945.995l-.662-2.641a3 3 0 1 1 5.82-1.46L30 28z" fill="#bacae9"/><path data-name="stroke" d="M17.596 30.602a3 3 0 0 1-.534-5.952l3.4-.619a6.962 6.962 0 0 0-2.748-.645c-.039.002-.075.012-.114.012a9.61 9.61 0 0 0-9.6 9.6C8 38.292 12.707 42 18 42c5.09 0 7.453-3.59 11.397-10.49 3.78-6.616 8.066-14.112 17.004-14.112A15.617 15.617 0 0 1 62 32.998C62 41.6 54.601 48 46 48c-.168 0 .16.026 0 0a14.665 14.665 0 0 1-11.742-5.932 3 3 0 0 1 4.697-3.733A9.46 9.46 0 0 0 47 42c.047 0-.047-.002 0 0a8.724 8.724 0 0 0 9-9.002 9.61 9.61 0 0 0-9.599-9.6c-5.09 0-7.851 4.189-11.795 11.089C30.826 41.102 26.94 48 18 48 9.398 48 2 41.601 2 32.998a15.609 15.609 0 0 1 15.172-15.58 3.01 3.01 0 0 1 .428-.042 12.753 12.753 0 0 1 4.945.995l-.662-2.641a3 3 0 1 1 5.82-1.46L30 28z" fill="none" stroke="#2e4369" stroke-linecap="round" stroke-linejoin="round" stroke-width="2"/></svg>