<svg xmlns="http://www.w3.org/2000/svg" viewBox="0 0 64 64" aria-labelledby="title" aria-describedby="desc"><path data-name="layer1" fill="#bacae9" d="M62 21V2H43v6h8.758L32 27.758 12.242 8H21V2H2v19h6v-8.758L27.758 32 8 51.758V43H2v19h19v-6h-8.758L32 36.242 51.758 56H43v6h19V43h-6v8.758L36.242 32 56 12.242V21h6z"/><path data-name="stroke" fill="none" stroke="#2e4369" stroke-linecap="round" stroke-linejoin="round" stroke-width="2" d="M62 21V2H43v6h8.758L32 27.758 12.242 8H21V2H2v19h6v-8.758L27.758 32 8 51.758V43H2v19h19v-6h-8.758L32 36.242 51.758 56H43v6h19V43h-6v8.758L36.242 32 56 12.242V21h6z"/></svg>