<svg xmlns="http://www.w3.org/2000/svg" viewBox="0 0 64 64" aria-labelledby="title" aria-describedby="desc"><path data-name="layer4" fill="#ef4d4d" d="M3 52h16v8H3z"/><path data-name="layer2" fill="#f7844b" d="M3 44h16v8H3z"/><path data-name="layer3" fill="#ffd150" d="M24 36h16v8H24z"/><path data-name="layer2" fill="#f7844b" d="M24 44h16v8H24z"/><path data-name="layer5" fill="#44d88d" d="M24 20h16v8H24z"/><path data-name="layer1" fill="#18c69c" d="M24 28h16v8H24z"/><path data-name="layer5" fill="#44d88d" d="M24 4h16v8H24zm0 8h16v8H24z"/><path data-name="layer4" fill="#ef4d4d" d="M24 52h16v8H24zm21 0h16v8H45z"/><path data-name="layer3" fill="#ffd150" d="M45 36h16v8H45z"/><path data-name="layer2" fill="#f7844b" d="M45 44h16v8H45z"/><path data-name="layer1" fill="#18c69c" d="M45 28h16v8H45z"/><path data-name="stroke" fill="none" stroke="#2e4369" stroke-linecap="round" stroke-miterlimit="10" stroke-width="2" d="M3 52h16m5-40h16m-16 8h16m-16 8h16m-16 8h16m-16 8h16m-16 8h16m5-16h16m-16 8h16m-16 8h16M3 44h16v16H3zM24 4h16v56H24zm21 24h16v32H45z" stroke-linejoin="round"/></svg>