<svg xmlns="http://www.w3.org/2000/svg" viewBox="0 0 64 64" aria-labelledby="title" aria-describedby="desc"><path data-name="layer1" d="M2 2v60h60V2zm18 54h-8a2 2 0 0 1 0-4h8a2 2 0 0 1 0 4zm0-8h-8a2 2 0 0 1 0-4h8a2 2 0 0 1 0 4zm16 8h-8a2 2 0 0 1 0-4h8a2 2 0 0 1 0 4zm0-8h-8a2 2 0 0 1 0-4h8a2 2 0 0 1 0 4zm0-8h-8a2 2 0 0 1 0-4h8a2 2 0 0 1 0 4zm0-8h-8a2 2 0 0 1 0-4h8a2 2 0 0 1 0 4zm0-8h-8a2 2 0 0 1 0-4h8a2 2 0 0 1 0 4zm0-8h-8a2 2 0 0 1 0-4h8a2 2 0 0 1 0 4zm16 40h-8a2 2 0 0 1 0-4h8a2 2 0 0 1 0 4zm0-8h-8a2 2 0 0 1 0-4h8a2 2 0 0 1 0 4zm0-8h-8a2 2 0 0 1 0-4h8a2 2 0 0 1 0 4zm0-8h-8a2 2 0 0 1 0-4h8a2 2 0 0 1 0 4z" fill="#202020"/></svg>