<svg xmlns="http://www.w3.org/2000/svg" viewBox="0 0 64 64" aria-labelledby="title" aria-describedby="desc"><path data-name="layer2" d="M60.5 25.4a5 5 0 0 0 0-7L45.6 3.5a5 5 0 0 0-7 0L21 21l22 22z" fill="#7b8baf"/><path data-name="layer1" d="M25.4 60.6L43 43 21 21 3.5 38.6a5 5 0 0 0 0 7l14.9 15a5 5 0 0 0 7 0z" fill="#f27e7c"/><path data-name="opacity" d="M21.9 57a5 5 0 0 1-7 0l3.5 3.5a5 5 0 0 0 7 0L43 43l-3.5-3.5z" fill="#000028" opacity=".24"/><path data-name="opacity" d="M60.5 18.4L57 14.9a5 5 0 0 1 0 7L39.5 39.5 43 43l17.5-17.6a5 5 0 0 0 0-7z" fill="#000028" opacity=".24"/><path data-name="stroke" d="M14.9 57l3.5 3.5a5 5 0 0 0 7 0l35.1-35.1a5 5 0 0 0 0-7L57 14.9" fill="none" stroke="#2e4369" stroke-linecap="round" stroke-linejoin="round" stroke-width="2"/><path data-name="stroke" d="M21.9 57L57 21.9a5 5 0 0 0 0-7L45.6 3.5a5 5 0 0 0-7 0L3.5 38.6a5 5 0 0 0 0 7L14.9 57a5 5 0 0 0 7 0zM21 21l22 22" fill="none" stroke="#2e4369" stroke-linecap="round" stroke-linejoin="round" stroke-width="2"/></svg>