<svg xmlns="http://www.w3.org/2000/svg" viewBox="0 0 64 64" aria-labelledby="title" aria-describedby="desc"><path data-name="layer2" d="M54 42V15H22V9H2v40.3A1.7 1.7 0 0 0 3.7 51h29.5L46 27z" fill="#f8da82"/><path data-name="layer1" fill="#fce364" d="M30 57l16-30 16 30H30z"/><path data-name="opacity" d="M43 32.7L41 29 30.9 48H7.7A1.7 1.7 0 0 1 6 46.3V9H2v40.3A1.7 1.7 0 0 0 3.7 51h29.5l1.6-3z" fill="#000064" opacity=".15"/><path data-name="stroke" d="M54 42V15H22V9H2v40.3A1.7 1.7 0 0 0 3.7 51h29.5" fill="none" stroke="#2e4369" stroke-linecap="round" stroke-miterlimit="10" stroke-width="2" stroke-linejoin="round"/><path data-name="stroke" fill="none" stroke="#2e4369" stroke-linecap="round" stroke-miterlimit="10" stroke-width="2" d="M30 57l16-30 16 30H30zm16-18v6" stroke-linejoin="round"/><circle data-name="stroke" cx="46" cy="51" r="1" fill="none" stroke="#2e4369" stroke-linecap="round" stroke-miterlimit="10" stroke-width="2" stroke-linejoin="round"/></svg>