<svg xmlns="http://www.w3.org/2000/svg" viewBox="0 0 64 64" aria-labelledby="title" aria-describedby="desc"><path data-name="layer1" d="M18 22.6v-2a8.6 8.6 0 0 1 8.6-8.6h10.8a8.6 8.6 0 0 1 8.6 8.6v1.9M24.2 12.4a8 8 0 0 1 15.7 0" fill="#a6b1c9"/><path data-name="layer1" d="M43.3 22H20.7a6.7 6.7 0 0 0-6.7 6.7v7.8c.1 10.6 6 19.3 18 21.5 12-2.1 17.9-11 18-21.6v-7.7a6.7 6.7 0 0 0-6.7-6.7z" fill="#a6b1c9"/><path data-name="opacity" d="M32 22h-6c0-4 1-10 4-10h-3.4a8.6 8.6 0 0 0-8.6 8.6v1.9a6.7 6.7 0 0 0-4 6.2v7.8c.1 10.6 6 19.3 18 21.5-4-4-7-9-7-21s4-15 7-15z" fill="#000064" opacity=".15"/><path data-name="opacity" d="M46 22.6v-2a8.6 8.6 0 0 0-6.2-8.3A8 8 0 0 0 32 6h-.7a8.4 8.4 0 0 0-2.4 6.3h7.2A11.1 11.1 0 0 1 42 22h-1l1 .2v.8h1.3c2.1 1.8 3.7 5.8 3.7 11s0 11.7-2.3 17.3A22.3 22.3 0 0 0 50 36.4v-7.7a6.7 6.7 0 0 0-4-6.1z" fill="#fff" opacity=".2"/><path data-name="stroke" d="M18 22.6v-2a8.6 8.6 0 0 1 8.6-8.6h10.8a8.6 8.6 0 0 1 8.6 8.6v1.9M24.2 12.4a8 8 0 0 1 15.7 0M58 18c0 5.2-3.5 7.4-8 8.2M62 36H50m-1.2 8C54 45.2 59.9 48 60 56M6 18c0 5.2 3.5 7.4 8 8.2M2 36h12m1.2 8C10 45.2 4 48 4 56" fill="none" stroke="#2e4369" stroke-linecap="round" stroke-linejoin="round" stroke-width="2"/><path data-name="stroke" d="M43.3 22H20.7a6.7 6.7 0 0 0-6.7 6.7v7.8c.1 10.6 6 19.3 18 21.5 12-2.1 17.9-11 18-21.6v-7.7a6.7 6.7 0 0 0-6.7-6.7zM32 22v36" fill="none" stroke="#2e4369" stroke-linecap="round" stroke-linejoin="round" stroke-width="2"/></svg>