<svg viewBox="0 0 64 64" xmlns="http://www.w3.org/2000/svg" aria-labelledby="title" aria-describedby="desc"><ellipse stroke-width="2" stroke-linejoin="round" stroke-linecap="round" stroke="#202020" fill="none" ry="8" rx="23" cy="11" cx="25" data-name="layer2"/><path d="M48 34.624V10.963m0 12.057c0 4.4-10.3 7.961-23 7.961S2 27.416 2 23.02m38.766 17.796A52.715 52.715 0 0 1 25 42.981c-12.7 0-23-3.565-23-7.961" stroke-width="2" stroke-linejoin="round" stroke-linecap="round" stroke="#202020" fill="none" data-name="layer2"/><path stroke-width="2" stroke-linejoin="round" stroke-linecap="round" stroke="#202020" fill="none" d="M33.08 54.455a63.143 63.143 0 0 1-8.08.506C12.3 54.961 2 51.4 2 47V11" data-name="layer2"/><path d="M30 61l16-30 16 30H30zm16-18v6" stroke-width="2" stroke-linejoin="round" stroke-linecap="round" stroke="#202020" fill="none" data-name="layer1"/><circle stroke-width="2" stroke-linejoin="round" stroke-linecap="round" stroke="#202020" fill="none" r="1" cy="55" cx="46" data-name="layer1"/></svg>