<svg xmlns="http://www.w3.org/2000/svg" viewBox="0 0 64 64" aria-labelledby="title" aria-describedby="desc"><circle data-name="layer1" cx="26" cy="14" r="4" fill="#7b8baf"/><path data-name="layer2" d="M55 14H44L16 42H9a7 7 0 0 0 0 14h11l28-28h7a7 7 0 0 0 0-14z" fill="#d1deff"/><path data-name="layer1" d="M30 28v-4a4 4 0 0 0-8 0v11.9z" fill="#7b8baf"/><path data-name="opacity" d="M4.9 53h11l28-28h7a7 7 0 0 0 5.9-10.7A7 7 0 0 1 54.9 28h-7l-28 28h-11A7 7 0 0 1 3 52.7z" fill="#000064" opacity=".12"/><circle data-name="stroke" cx="26" cy="14" r="4" fill="none" stroke="#2e4369" stroke-linecap="round" stroke-linejoin="round" stroke-width="2"/><path data-name="stroke" d="M30 28v-4a4 4 0 0 0-8 0v11.9M54 54V40m6 6.2L54 40l-6 6.2" fill="none" stroke="#2e4369" stroke-linecap="round" stroke-linejoin="round" stroke-width="2"/><path data-name="stroke" d="M55 14H44L16 42H9a7 7 0 0 0 0 14h11l28-28h7a7 7 0 0 0 0-14z" fill="none" stroke="#2e4369" stroke-linecap="round" stroke-linejoin="round" stroke-width="2"/></svg>