<svg xmlns="http://www.w3.org/2000/svg" viewBox="0 0 64 64" aria-labelledby="title" aria-describedby="desc"><path data-name="layer1" d="M22.244 29.7V7c0-1.6 0-1.6 1.7-1.6 6.4 0 12.7.1 19 0a5.518 5.518 0 0 1 5.4 3.3 18.77 18.77 0 0 1 1.2 3c.5 1.8.9 3.6 1.5 5.4a1.5 1.5 0 0 0 .9 1 30 30 0 0 0 3 0c.5-6.1.8-12.1 1.2-18.1-17.8 1.5-35.4.8-53.1.5 0 1.1-.1 2.2 0 3.2a1.765 1.765 0 0 0 .9.8c1.3.3 2.7.5 4 .8 3.2.6 4 1.6 4.1 4.8.1 5.7.2 11.4.2 17.2 0 9.2-.1 18.4-.2 27.6a7.719 7.719 0 0 1-.2 1.5 2.627 2.627 0 0 1-1.7 2.2 6.637 6.637 0 0 1-2 .6c-1.7.4-3.3.7-4.9 1V64h1.9c4.4-.1 8.8-.4 13.3-.4 12.3.1 24.7.3 37 .4 1.6 0 1.6 0 1.7-1.5.5-4.2 1-8.5 1.5-12.7.2-1.6.4-3.1.6-4.8a10.744 10.744 0 0 1-1.8 0c-1.2-.2-1.8.3-2.3 1.5q-1.5 3.75-3.3 7.5c-1.5 3-3.8 5-7.3 5.1-5.7.2-11.4.3-17.2.1-3.7-.1-5.1-1.9-5.1-5.6V35.7a6.6 6.6 0 0 1 .1-1.4.756.756 0 0 1 .4-.1c4 .1 8 .1 12 .2 2.1.1 3.8.9 4.4 3.2.3 1 .5 2 .7 3 .7 2.7.7 2.7 3.5 2.7 1 0 1.2-.4 1.2-1.2 0-6.7.1-13.4.2-20.1v-1.7a27.977 27.977 0 0 1-2.9 0c-.7-.1-1 .3-1.2.9l-1.2 5.1c-.6 2.3-1.4 3-3.8 3.1-1.7.1-3.4.3-5.2.3z" fill="#e65300"/></svg>