<svg xmlns="http://www.w3.org/2000/svg" viewBox="0 0 64 64" aria-labelledby="title" aria-describedby="desc"><path data-name="layer4" d="M38 49a5 5 0 0 1-5 5H7a5 5 0 0 1-5-5 5 5 0 0 1 5-5h26a5 5 0 0 1 5 5z" fill="#7b8baf"/><path data-name="layer3" d="M62 40l-4.3-11.4H57a3 3 0 0 1-2.2-1L42 44h16c1.9 0 5.3-.6 4-4z" fill="#fc0"/><circle data-name="layer1" cx="57" cy="25.6" r="3" fill="#a3b8df"/><path data-name="layer3" d="M46 20a4 4 0 0 1-3.5-2.1L36 24l-6.2 6H20l-6-6H2v14h32l12.5-18H46z" fill="#fc0"/><path data-name="layer2" fill="#c3d6e0" d="M20 30h9.8l6.2-6-11.5-12H14v12l6 6z"/><circle data-name="layer1" cx="46" cy="16" r="4" fill="#a3b8df"/><path data-name="opacity" d="M35 49a2 2 0 0 1-2 2H7a2 2 0 0 1-2-2 2 2 0 0 1 2-2h26a2 2 0 0 1 2 2z" fill="#000064" opacity=".25"/><path data-name="opacity" fill="#fff" opacity=".5" d="M25.7 13.2L14.4 24.5l2.4 2.3L28 15.6l-2.3-2.4zm-7.2 15.3L20 30h4.2l9-9-3.5-3.7-11.2 11.2z"/><path data-name="opacity" d="M2 38h32l12.5-18H46a4 4 0 0 1-3.5-2.1l-1.6 1.5A3.8 3.8 0 0 0 44 21L33.2 34.9H7V24H2zm59.8 1.5a7.1 7.1 0 0 1-2.8.5H45.1L42 44h16c1.9 0 5.3-.6 4-4z" fill="#000064" opacity=".15"/><path data-name="stroke" fill="none" stroke="#2e4369" stroke-linecap="round" stroke-linejoin="round" stroke-width="2" d="M46.5 20L34 38H2V24h12l6 6h13.8"/><path data-name="stroke" fill="none" stroke="#2e4369" stroke-linecap="round" stroke-linejoin="round" stroke-width="2" d="M42.5 17.9L36 24 24.5 12H14v12"/><circle data-name="stroke" cx="46" cy="16" r="4" fill="none" stroke="#2e4369" stroke-linecap="round" stroke-linejoin="round" stroke-width="2"/><path data-name="stroke" fill="none" stroke="#2e4369" stroke-linecap="round" stroke-linejoin="round" stroke-width="2" d="M54.8 23.6l-6-4.8"/><circle data-name="stroke" cx="57" cy="25.6" r="3" fill="none" stroke="#2e4369" stroke-linecap="round" stroke-linejoin="round" stroke-width="2"/><path data-name="stroke" d="M54.8 27.6L42 44h16c1.9 0 5.3-.6 4-4l-4.3-11.4M38 49a5 5 0 0 1-5 5H7a5 5 0 0 1-5-5 5 5 0 0 1 5-5h26a5 5 0 0 1 5 5z" fill="none" stroke="#2e4369" stroke-linecap="round" stroke-linejoin="round" stroke-width="2"/></svg>