<svg viewBox="0 0 64 64" xmlns="http://www.w3.org/2000/svg" aria-labelledby="title" aria-describedby="desc"><path stroke-width="2" stroke-miterlimit="10" stroke-linecap="round" stroke="#202020" fill="none" d="M42 39.2a3 3 0 0 0-4.2.2L35 42.6V21.4l2.8 3.1a3 3 0 0 0 4.5-4L32 9 21.8 20.5a3 3 0 0 0 4.5 4l2.7-3.1v21.2l-2.8-3.1a3 3 0 0 0-4.5 4L32 55l10.2-11.5a3 3 0 0 0-.2-4.3z" data-name="layer2" stroke-linejoin="round"/><path stroke-width="2" stroke-miterlimit="10" stroke-linecap="round" stroke="#202020" fill="none" d="M51 5a3 3 0 0 0-3-3H16a3 3 0 0 0 0 6h32a3 3 0 0 0 3-3zm0 54a3 3 0 0 0-3-3H16a3 3 0 0 0 0 6h32a3 3 0 0 0 3-3z" data-name="layer1" stroke-linejoin="round"/></svg>