<svg xmlns="http://www.w3.org/2000/svg" viewBox="0 0 64 64" aria-labelledby="title" aria-describedby="desc"><path data-name="layer2" d="M39.242 22.007a3 3 0 0 0 .25 4.236L42.593 29H21.406l3.103-2.757a3 3 0 0 0-3.987-4.485L9 32l11.523 10.243a3 3 0 0 0 3.986-4.485L21.406 35h21.188l-3.103 2.758a3 3 0 0 0 3.986 4.485L55 32 43.477 21.758a3 3 0 0 0-4.235.249z" fill="#202020"/><path data-name="layer1" d="M5 13a3 3 0 0 0-3 3v32a3 3 0 0 0 6 0V16a3 3 0 0 0-3-3zm54 0a3 3 0 0 0-3 3v32a3 3 0 0 0 6 0V16a3 3 0 0 0-3-3z" fill="#202020"/></svg>