<svg viewBox="0 0 64 64" xmlns="http://www.w3.org/2000/svg" aria-labelledby="title" aria-describedby="desc"><path stroke-width="2" stroke-miterlimit="10" stroke-linecap="round" stroke="#202020" fill="none" d="M39.2 22a3 3 0 0 0 .2 4.2l3.2 2.8H21.4l3.1-2.8a3 3 0 0 0-4-4.5L9 32l11.5 10.2a3 3 0 0 0 4-4.5L21.4 35h21.2l-3.1 2.8a3 3 0 0 0 4 4.5L55 32 43.5 21.8a3 3 0 0 0-4.3.2z" data-name="layer2" stroke-linejoin="round"/><path stroke-width="2" stroke-miterlimit="10" stroke-linecap="round" stroke="#202020" fill="none" d="M5 13a3 3 0 0 0-3 3v32a3 3 0 0 0 6 0V16a3 3 0 0 0-3-3zm54 0a3 3 0 0 0-3 3v32a3 3 0 0 0 6 0V16a3 3 0 0 0-3-3z" data-name="layer1" stroke-linejoin="round"/></svg>