<svg viewBox="0 0 64 64" xmlns="http://www.w3.org/2000/svg" aria-labelledby="title" aria-describedby="desc"><path fill="#202020" d="M63.258 31.047C62.847 30.289 52.949 12.484 32 12.484S1.153 30.29.742 31.047L.225 32l.517.953c.411.758 10.309 18.563 31.258 18.563S62.847 33.71 63.258 32.953l.517-.953zm-31.074 3.437a2 2 0 0 1 0 4 7.207 7.207 0 0 1-7.2-7.199 6.742 6.742 0 0 1 .962-3.597 2.433 2.433 0 0 1 2.734-.729 2 2 0 0 1 .73 2.732 3.2 3.2 0 0 0 2.774 4.793zM32 47.516C16.108 47.516 7.13 35.514 4.845 32c2.235-3.436 10.862-14.964 26.078-15.49a15 15 0 1 0 2.154 0C48.295 17.036 56.92 28.567 59.155 32 56.867 35.517 47.89 47.516 32 47.516z"/></svg>