<svg xmlns="http://www.w3.org/2000/svg" viewBox="0 0 64 64" aria-labelledby="title" aria-describedby="desc"><path data-name="layer1" d="M32 14.5C14.8 14.5 2.5 32 2.5 32S14.8 49.5 32 49.5 61.5 32 61.5 32 49.2 14.5 32 14.5z" fill="#fff"/><path data-name="opacity" d="M30 17.5c16 0 27.7 15.1 29.3 17.3 1.4-1.6 2.2-2.7 2.2-2.7S49.2 14.5 32 14.5 2.5 32 2.5 32l.2.3C7 27.3 17.1 17.5 30 17.5z" fill="#000028" opacity=".15"/><circle data-name="layer3" cx="32" cy="31.5" r="10" fill="#a85d43"/><circle data-name="layer2" cx="32" cy="31.5" r="5" fill="#2e4369"/><circle data-name="layer1" cx="33" cy="30.5" r="2" fill="#fff"/><path data-name="stroke" d="M32 14.5C14.8 14.5 2.5 32 2.5 32S14.8 49.5 32 49.5 61.5 32 61.5 32 49.2 14.5 32 14.5z" fill="none" stroke="#2e4369" stroke-linecap="round" stroke-linejoin="round" stroke-width="2"/><circle data-name="stroke" cx="32" cy="31.5" r="10" fill="none" stroke="#2e4369" stroke-linecap="round" stroke-linejoin="round" stroke-width="2"/><path data-name="stroke" d="M28.5 29.5a4 4 0 0 0 3.5 6" fill="none" stroke="#2e4369" stroke-linecap="round" stroke-linejoin="round" stroke-width="2"/></svg>