<svg xmlns="http://www.w3.org/2000/svg" viewBox="0 0 64 64" aria-labelledby="title" aria-describedby="desc"><path data-name="layer2" d="M32 62c0-17.1 16.3-25.2 17.8-39.7A18 18 0 1 0 14 20a17.7 17.7 0 0 0 .2 2.2C15.7 36.8 32 44.9 32 62z" fill="#ff9"/><path data-name="opacity" d="M32 61c0-18.3-12.7-26.9-13.9-42.4-.1-.8-.1-1.5-.1-2.3a24.8 24.8 0 0 1 1.8-9.4A17.9 17.9 0 0 0 14 20a17.7 17.7 0 0 0 .2 2.2C15.7 36.8 32 44.9 32 62z" fill="#000032" opacity=".2"/><path data-name="layer1" fill="#fc6" d="M32 25.2l-6.2 4.5 2.4-7.3L22 18h7.6l2.4-7.3 2.3 7.3H42l-6.2 4.4 2.4 7.3-6.2-4.5z"/><path data-name="stroke" d="M32 62c0-17.1 16.3-25.2 17.8-39.7A18 18 0 1 0 14 20a18.5 18.5 0 0 0 .2 2.2C15.7 36.8 32 44.9 32 62z" fill="none" stroke="#2e4369" stroke-linecap="round" stroke-linejoin="round" stroke-width="2"/><path data-name="stroke" fill="none" stroke="#2e4369" stroke-linecap="round" stroke-linejoin="round" stroke-width="2" d="M32 25.2l-6.2 4.5 2.4-7.3L22 18h7.7l2.3-7.3 2.4 7.3H42l-6.2 4.4 2.4 7.3-6.2-4.5z"/></svg>