<svg xmlns="http://www.w3.org/2000/svg" viewBox="0 0 64 64" aria-labelledby="title" aria-describedby="desc"><path data-name="layer4" fill="#a6b1c9" d="M2 6h52v12H2z"/><circle data-name="layer3" cx="8" cy="12" r="1" fill="#f27e7c"/><circle data-name="layer3" cx="15" cy="12" r="1" fill="#f27e7c"/><circle data-name="layer3" cx="22" cy="12" r="1" fill="#f27e7c"/><path data-name="layer2" fill="#fff" d="M38.8 50l1.1-3.5L30 40h12.2L46 28l3.8 12H54V18H2v32h36.8z"/><path data-name="layer1" fill="#fc6" d="M46 50.9L36.1 58l3.8-11.5L30 40h12.2L46 28l3.8 12H62l-9.9 6.5L55.9 58 46 50.9z"/><path data-name="opacity" fill="#000064" opacity=".15" d="M38.8 50l1.1-3.5L33 42h-7l9.9 6.5-.5 1.5h3.4zm.1-10h3.3l1.5-4.6L42 30l-3.1 10zM2 18h4v32H2zM2 6h4v12H2z"/><path data-name="stroke" fill="none" stroke="#2e4369" stroke-linecap="round" stroke-linejoin="round" stroke-width="2" d="M46 50.9L36.1 58l3.8-11.5L30 40h12.2L46 28l3.8 12H62l-9.9 6.5L55.9 58 46 50.9z"/><circle data-name="stroke" cx="8" cy="12" r="1" fill="none" stroke="#2e4369" stroke-linecap="round" stroke-linejoin="round" stroke-width="2"/><circle data-name="stroke" cx="15" cy="12" r="1" fill="none" stroke="#2e4369" stroke-linecap="round" stroke-linejoin="round" stroke-width="2"/><circle data-name="stroke" cx="22" cy="12" r="1" fill="none" stroke="#2e4369" stroke-linecap="round" stroke-linejoin="round" stroke-width="2"/><path data-name="stroke" fill="none" stroke="#2e4369" stroke-linecap="round" stroke-linejoin="round" stroke-width="2" d="M54 40V18M2 18v32h37M2 6h52v12H2z"/></svg>