<svg viewBox="0 0 64 64" xmlns="http://www.w3.org/2000/svg" aria-labelledby="title" aria-describedby="desc"><path fill="#f8da82" d="M48 19H10v29a3 3 0 0 1-3 3h28.77l1.152-3.471L27 41l12.242-1L43 29l1.565 4.582L46.758 40l2.757.225 4.485.367V19z" data-name="layer2"/><path fill="#f8da82" d="M10 48V19h38v-8H20V7H2v41a3 3 0 0 0 3 3h2a3 3 0 0 0 3-3z" data-name="layer2"/><path opacity=".15" fill="#000064" d="M10 48V19h38v-8H20V7H2v41a3 3 0 0 0 3 3h2a3 3 0 0 0 3-3z" data-name="opacity"/><path d="M10 19h44v3H10z" opacity=".2" fill="#fff" data-name="opacity"/><path d="M43 51.885L33.113 59l3.809-11.471L27 41l12.242-1L43 29l3.758 11L59 41l-9.918 6.529L52.891 59 43 51.885z" fill="#fce349" data-name="layer1"/><path d="M36.922 47.529l-7.771-5.113L22 43l9.922 6.529L31.434 51h4.336l1.152-3.471zm-2.12-7.166l4.44-.363.916-2.682L38 31l-3.198 9.363z" opacity=".15" fill="#000064" data-name="opacity"/><path stroke-width="2" stroke-miterlimit="10" stroke-linecap="round" stroke="#2e4369" fill="none" d="M54 40.592V19H10v29a3 3 0 0 1-3 3" data-name="stroke" stroke-linejoin="round"/><path stroke-width="2" stroke-miterlimit="10" stroke-linecap="round" stroke="#2e4369" fill="none" d="M48 19v-8H20V7H2v41a3 3 0 0 0 3 3h30.643" data-name="stroke" stroke-linejoin="round"/><path d="M43 51.885L33.113 59l3.809-11.471L27 41l12.242-1L43 29l3.758 11L59 41l-9.918 6.529L52.891 59 43 51.885z" stroke-width="2" stroke-miterlimit="10" stroke-linecap="round" stroke="#2e4369" fill="none" data-name="stroke" stroke-linejoin="round"/></svg>