<svg xmlns="http://www.w3.org/2000/svg" viewBox="0 0 64 64" aria-labelledby="title" aria-describedby="desc"><path data-name="layer2" d="M55.9 28.3c.1-.8.1-1.5.1-2.3a24 24 0 0 0-48 0c0 .8 0 1.6.1 2.3v.3C10.1 47.6 32 62 32 62s21.9-14.6 23.8-33.3z" fill="#ff9"/><path data-name="opacity" d="M11.1 26.6v-.3c-.1-.8-.1-1.5-.1-2.3a24 24 0 0 1 9.3-18.9A24 24 0 0 0 8 26c0 .8 0 1.6.1 2.3v.3C10.1 47.6 32 62 32 62l2.8-2.1C33 58.6 13 44.7 11.1 26.6z" fill="#000032" opacity=".2"/><path data-name="layer1" fill="#fc6" d="M32 32.1l-8.7 6.4 3.4-10.2L18 22h10.7L32 11.8 35.3 22H46l-8.7 6.3 3.4 10.2-8.7-6.4z"/><path data-name="stroke" d="M55.9 28.3c.1-.8.1-1.5.1-2.3a24 24 0 0 0-48 0c0 .8 0 1.6.1 2.3v.3C10.1 47.6 32 62 32 62s21.9-14.6 23.8-33.3z" fill="none" stroke="#2e4369" stroke-linecap="round" stroke-linejoin="round" stroke-width="2"/><path data-name="stroke" fill="none" stroke="#2e4369" stroke-linecap="round" stroke-linejoin="round" stroke-width="2" d="M32 32.1l-8.7 6.4 3.4-10.2L18 22h10.7L32 11.8 35.3 22H46l-8.7 6.3 3.4 10.2-8.7-6.4z"/></svg>