<svg xmlns="http://www.w3.org/2000/svg" viewBox="0 0 64 64" aria-labelledby="title" aria-describedby="desc"><path data-name="layer2" fill="#202020" d="M46 54.9L36.1 62l3.8-11.5L30 44h12.2L46 32l3.7 12H62l-10 6.5L55.8 62 46 54.9z"/><path data-name="layer1" d="M40 2H24v16h16zm-4 10a2 2 0 0 1-4 0V8a2 2 0 0 1 4 0zm-8.2 35.3A4 4 0 0 1 30 40h9.3l2.7-8.9V30H12v22h22.8z" fill="#202020"/><path data-name="layer1" d="M46 28a4 4 0 0 1 3.7 2.8l2.3 7.3V8.7L45.4 2H44v16.3a3.7 3.7 0 0 1-3.6 3.7H23.7a3.7 3.7 0 0 1-3.7-3.7V2H2v50h6V26h38z" fill="#202020"/></svg>