<svg viewBox="0 0 64 64" xmlns="http://www.w3.org/2000/svg" aria-labelledby="title" aria-describedby="desc"><path fill="#f8da82" d="M22 15V9H2v40.268A1.732 1.732 0 0 0 3.732 51H35.1l1.816-5.471L27 39l12.242-1L43 27l1.565 4.582L46.758 38l2.757.225 4.485.367V15z" data-name="layer2"/><path d="M34.802 38.363l4.44-.363.916-2.682L38 29l-3.198 9.363zm-5.651 2.053L22 41l9.92 6.529-.157.471H7.732A1.732 1.732 0 0 1 6 46.268V9H2v40.268A1.732 1.732 0 0 0 3.732 51H35.1l1.816-5.471z" opacity=".15" fill="#000064" data-name="opacity"/><path d="M43 49.885L33.111 57l3.809-11.471L27 39l12.242-1L43 27l3.758 11L59 39l-9.92 6.529L52.889 57 43 49.885z" fill="#fce349" data-name="layer1"/><path stroke-width="2" stroke-miterlimit="10" stroke-linecap="round" stroke="#2e4369" fill="none" d="M54 38.592V15H22V9H2v40.268A1.732 1.732 0 0 0 3.733 51H35.1" data-name="stroke" stroke-linejoin="round"/><path d="M43 49.885L33.111 57l3.809-11.471L27 39l12.242-1L43 27l3.758 11L59 39l-9.92 6.529L52.889 57 43 49.885z" stroke-width="2" stroke-miterlimit="10" stroke-linecap="round" stroke="#2e4369" fill="none" data-name="stroke" stroke-linejoin="round"/></svg>