<svg viewBox="0 0 64 64" xmlns="http://www.w3.org/2000/svg" aria-labelledby="title" aria-describedby="desc"><path d="M30 44h.039L27 42l12.242-1L43 30l1.892 5.538L46 32V2H2v56h31.777l3.138-9.45L30 44z" fill="#ebf5ff" data-name="layer2"/><path d="M30 44h.039l-.888-.584L22 44l9.922 6.529L30.438 55H6V2H2v56h31.671l.14-.101 3.104-9.349L30 44z" opacity=".1" fill="#000064" data-name="opacity"/><path d="M43 52.885L33.113 60l3.809-11.471L27 42l12.242-1L43 30l3.758 11L59 42l-9.918 6.529L52.891 60 43 52.885z" fill="#fce349" data-name="layer1"/><path d="M34.802 41.363l4.44-.363.916-2.682L38 32l-3.198 9.363z" opacity=".1" fill="#000064" data-name="opacity"/><path d="M33.777 58H2V2h44v36.782M12 2v8m-2 0h4m10-8v8m-2 0h4m10-8v8m-2 0h4" stroke-width="2" stroke-miterlimit="10" stroke-linecap="round" stroke="#2e4369" fill="none" data-name="stroke" stroke-linejoin="round"/><path d="M43 52.885L33.113 60l3.809-11.471L27 42l12.242-1L43 30l3.758 11L59 42l-9.918 6.529L52.891 60 43 52.885z" stroke-width="2" stroke-miterlimit="10" stroke-linecap="round" stroke="#2e4369" fill="none" data-name="stroke" stroke-linejoin="round"/></svg>