<svg xmlns="http://www.w3.org/2000/svg" viewBox="0 0 64 64" aria-labelledby="title" aria-describedby="desc"><path data-name="layer1" d="M10 14h38v-4H20V6H2v41a3 3 0 0 0 1.1 2.3A4 4 0 0 1 6 46.1V18a4 4 0 0 1 4-4z" fill="#202020"/><path data-name="layer2" fill="#202020" d="M46 50.9L36.1 58l3.8-11.5L30 40h12.2L46 28l3.8 12H62l-9.9 6.5L55.9 58 46 50.9z"/><path data-name="layer1" d="M35.2 48.2l-7.4-4.8A4 4 0 0 1 30 36h9.3l2.9-9.2a4 4 0 0 1 7.6 0l2.9 9.2H54V18H10v29a3 3 0 0 1-3 3h27.6z" fill="#202020"/></svg>