<svg xmlns="http://www.w3.org/2000/svg" viewBox="0 0 64 64" aria-labelledby="title" aria-describedby="desc"><path data-name="layer4" d="M46 54.9L36.1 62l3.8-11.5L30 44h12.2L46 32l3.8 12H62l-9.9 6.5L55.9 62z" fill="#fce349"/><path data-name="layer3" fill="#d1ebf7" d="M30 44h12.2L46 32l3.8 12h.2V2H2v44h31l-3-2z"/><path data-name="layer2" fill="#fff" d="M33 46H2v12h35.3l.2-.2 2.4-7.3L33 46z"/><path data-name="layer1" d="M42.2 44l1.6-5c-1.9-8.9-5.8-23-10.2-23s-8.5 17.5-9.5 17.5-3.5-5-7.6-5S7 43.1 7 46h26l-3-2z" fill="#92d5b5"/><path data-name="opacity" fill="#000064" opacity=".16" d="M37.5 57.8l2.4-7.3L33 46h-8l9.9 6.5-1.8 5.5h4.2l.2-.2zm.4-13.8h4.3l1-3-2.2-7-3.1 10z"/><path data-name="stroke" fill="none" stroke="#2e4369" stroke-linecap="round" stroke-miterlimit="10" stroke-width="2" d="M2 46h30.9m4.4 12H2V2h48v42" stroke-linejoin="round"/><path data-name="stroke" d="M46 54.9L36.1 62l3.8-11.5L30 44h12.2L46 32l3.8 12H62l-9.9 6.5L55.9 62z" fill="none" stroke="#2e4369" stroke-linecap="round" stroke-miterlimit="10" stroke-width="2" stroke-linejoin="round"/></svg>