<svg viewBox="0 0 64 64" xmlns="http://www.w3.org/2000/svg" aria-labelledby="title" aria-describedby="desc"><path d="M30 44h.038L27 42l12.242-1L42 32.927V18H26V2H2v54h32.439l2.474-7.449L30 44z" fill="#ebf5ff" data-name="layer3"/><path d="M42 18L26 2v16h16z" fill="#fff" data-name="layer2"/><path d="M22 2v21h20v-5H26V2h-4z" opacity=".15" fill="#000064" data-name="opacity"/><path d="M43 52.885L33.111 60l3.809-11.47L27 42l12.242-1L43 30l3.758 11L59 42l-9.92 6.53L52.889 60 43 52.885z" fill="#fce349" data-name="layer1"/><path d="M34.802 41.363l4.44-.363.916-2.682L38 32l-3.198 9.363zm2.111 7.188L30 44h.038l-.887-.584L22 44l9.92 6.53L30.104 56h4.335l2.474-7.449z" opacity=".15" fill="#000064" data-name="opacity"/><path d="M34.439 56H2V2h24l16 16v14.927" stroke-width="2" stroke-miterlimit="10" stroke-linecap="round" stroke="#2e4369" fill="none" data-name="stroke" stroke-linejoin="round"/><path d="M26 2v16h16m1 34.885L33.111 60l3.809-11.47L27 42l12.242-1L43 30l3.758 11L59 42l-9.92 6.53L52.889 60 43 52.885z" stroke-width="2" stroke-miterlimit="10" stroke-linecap="round" stroke="#2e4369" fill="none" data-name="stroke" stroke-linejoin="round"/></svg>