<svg viewBox="0 0 64 64" xmlns="http://www.w3.org/2000/svg" aria-labelledby="title" aria-describedby="desc"><path fill="#f27e7c" d="M50 20a19 19 0 1 0-22 18.739V47h-8v6h8v8h6v-8h8v-6h-8v-8.261A19.012 19.012 0 0 0 50 20zM31 33a13 13 0 1 1 13-13 13.015 13.015 0 0 1-13 13z" data-name="layer1"/><path stroke-width="2" stroke-linejoin="round" stroke-linecap="round" stroke="#2e4369" fill="none" d="M50 20a19 19 0 1 0-22 18.739V47h-8v6h8v8h6v-8h8v-6h-8v-8.261A19.012 19.012 0 0 0 50 20z" data-name="stroke"/><path stroke-width="2" stroke-linejoin="round" stroke-linecap="round" stroke="#2e4369" fill="none" d="M18 20a13 13 0 1 1 13 13 13.015 13.015 0 0 1-13-13z" data-name="stroke"/></svg>