<svg xmlns="http://www.w3.org/2000/svg" viewBox="0 0 64 64" aria-labelledby="title" aria-describedby="desc"><path data-name="layer2" d="M61 21H43a2 2 0 0 0 0 4h18a2 2 0 0 0 0-4zm0-8H43a2 2 0 0 0 0 4h18a2 2 0 0 0 0-4zm0-8H39a2 2 0 0 0 0 4h22a2 2 0 0 0 0-4z" fill="#202020"/><path data-name="layer1" d="M35 23c0 13.7 2.7 14.7 6 18a61.7 61.7 0 0 1-12 2v2c0 1.4.5 2.9 6.1 4.6l2.4.7A9.3 9.3 0 0 1 45 59H1a9.2 9.2 0 0 1 7.4-8.8c8-1.8 8.6-3.6 8.6-5.2v-2a61.4 61.4 0 0 1-12-2c3.3-3.3 6-4.3 6-18 0-6 3.7-11.6 10-11.6s14 0 14 11.6z" fill="#202020"/></svg>