<svg xmlns="http://www.w3.org/2000/svg" viewBox="0 0 64 64" aria-labelledby="title" aria-describedby="desc"><path data-name="layer1" d="M36 22c0 13.7 2.7 14.7 6 18a61.6 61.6 0 0 1-12 2v2c0 1.6 1.1 3.7 9 6s7 8 7 8H2s0-6 7-8 9-4.4 9-6v-2a61.4 61.4 0 0 1-12-2c3.3-3.3 6-4.3 6-18 0-6 3.7-11.6 10-11.6s14 0 14 11.6z" fill="#a5d0ec"/><path data-name="opacity" d="M15 50c7.9-2.3 9-4.4 9-6-1.7 0-5.5-2.6-11-4 3.3-3.3 4-4.3 4-18 0-6 4.7-11.6 11-11.6h.6a18.4 18.4 0 0 0-6.6.1C15.7 10.4 12 16 12 22c0 13.7-2.7 14.7-6 18a61.4 61.4 0 0 0 12 2v2c0 1.6-1.1 3.7-9 6s-7 8-7 8h6s0-6 7-8z" fill="#000064" opacity=".15"/><path data-name="stroke" d="M36 22c0 13.7 2.7 14.7 6 18a61.6 61.6 0 0 1-12 2v2c0 1.6 1.1 3.7 9 6s7 8 7 8H2s0-6 7-8 9-4.4 9-6v-2a61.4 61.4 0 0 1-12-2c3.3-3.3 6-4.3 6-18 0-6 3.7-11.6 10-11.6s14 0 14 11.6zm10 0h16m-16-8h16M42 6h20" fill="none" stroke="#2e4369" stroke-linecap="round" stroke-linejoin="round" stroke-width="2"/></svg>