<svg xmlns="http://www.w3.org/2000/svg" viewBox="0 0 64 64" aria-labelledby="title" aria-describedby="desc"><path data-name="layer2" d="M27.65 39.061a11.376 11.376 0 0 1 .289-1.4 2.843 2.843 0 0 1 1.6-1.413 4.044 4.044 0 0 0 2.421.765 7.044 7.044 0 0 0 4.823-2.224c2.464-2.462 2.95-5.836 1.106-7.681s-5.219-1.357-7.681 1.106c-1.977 1.975-2.655 4.525-1.9 6.413a4.367 4.367 0 0 0-2.286 2.458 13.21 13.21 0 0 0-.347 1.65C25.341 40.771 25.138 42 22 42c-6 0-6 4.905-6 7a1 1 0 0 0 2 0c0-3.243.638-5 4-5 4.834 0 5.306-2.855 5.65-4.939zm-6.863-6.274c2.464-2.462 2.95-5.836 1.106-7.681s-5.219-1.357-7.681 1.106c-1.977 1.975-2.655 4.525-1.9 6.413a4.367 4.367 0 0 0-2.286 2.458 13.21 13.21 0 0 0-.347 1.65C9.341 38.771 9.138 40 6 40c-6 0-6 4.905-6 7a1 1 0 0 0 2 0c0-3.243.638-5 4-5 4.834 0 5.306-2.855 5.65-4.939a11.376 11.376 0 0 1 .289-1.4 2.843 2.843 0 0 1 1.6-1.413 4.044 4.044 0 0 0 2.421.765 7.044 7.044 0 0 0 4.827-2.226zm15.426 8.426c-1.977 1.975-2.655 4.525-1.9 6.413a4.367 4.367 0 0 0-2.286 2.458 13.21 13.21 0 0 0-.347 1.65C31.341 53.771 31.138 55 28 55c-6 0-6 4.905-6 7a1 1 0 0 0 2 0c0-3.243.638-5 4-5 4.834 0 5.306-2.855 5.65-4.939a11.376 11.376 0 0 1 .289-1.4 2.843 2.843 0 0 1 1.6-1.413 4.044 4.044 0 0 0 2.421.765 7.044 7.044 0 0 0 4.823-2.224c2.464-2.462 2.95-5.836 1.106-7.681s-5.214-1.359-7.676 1.105z" fill="#202020"/><path data-name="layer1" d="M46 0a18.005 18.005 0 0 0-16.173 25.907 8.667 8.667 0 0 1 5.209-1.918 5.975 5.975 0 0 1 4.272 1.7A6.159 6.159 0 0 1 40.935 31a8.876 8.876 0 0 1-1.525 3.744A18 18 0 1 0 46 0zm0 26a8 8 0 1 1 8-8 8 8 0 0 1-8 8z" fill="#202020"/></svg>