<svg xmlns="http://www.w3.org/2000/svg" viewBox="0 0 64 64" aria-labelledby="title" aria-describedby="desc"><path data-name="layer2" d="M49 12h-.5a17 17 0 0 0-32.3 4.4A11 11 0 1 0 13 38h36a13 13 0 1 0 0-26z" fill="#202020"/><path data-name="layer1" d="M10.5 49.2A2 2 0 0 1 8.9 46l2.5-3.2a2 2 0 1 1 3.1 2.5L12 48.4a2 2 0 0 1-1.5.8zm5.4 8.1a2 2 0 0 1-1.6-3.2l9.1-11.3a2 2 0 1 1 3.1 2.5l-9 11.3a2 2 0 0 1-1.6.7zm18.6-8.2a2 2 0 0 1-1.5-3.3l2.5-3.1a2 2 0 1 1 3.1 2.5l-2.5 3.1a2 2 0 0 1-1.6.8zm5.4 8.2a2 2 0 0 1-1.6-3.2l9.1-11.3a2 2 0 1 1 3.1 2.5l-9 11.3a2 2 0 0 1-1.6.7zM6.6 54a2 2 0 0 1-1.4-.6 2.1 2.1 0 0 1-.6-1.4 2 2 0 0 1 .6-1.4 2.1 2.1 0 0 1 2.8 0 2 2 0 0 1 .6 1.4 2 2 0 0 1-2 2zm5.6 8a2.1 2.1 0 0 1-1.4-.6 2 2 0 0 1 0-2.8 2.1 2.1 0 0 1 2.8 0 2 2 0 0 1 0 2.8 2 2 0 0 1-1.4.6zm18.4-8a2 2 0 0 1-1.4-.6 2 2 0 0 1 0-2.8 2.1 2.1 0 0 1 2.8 0 2 2 0 0 1 0 2.8 2 2 0 0 1-1.4.6zm5.6 8a2.1 2.1 0 0 1-1.4-.6 2 2 0 0 1 0-2.8 2.1 2.1 0 0 1 2.8 0 2 2 0 0 1-1.4 3.4z" fill="#202020"/></svg>