<svg xmlns="http://www.w3.org/2000/svg" viewBox="0 0 64 64" aria-labelledby="title" aria-describedby="desc"><path data-name="layer1" d="M9 14h38v-4H19V6H1v41a3 3 0 0 0 1.1 2.3A4 4 0 0 1 5 46.1V18a4 4 0 0 1 4-4z" fill="#202020"/><path data-name="layer2" d="M62.4 40.6L45 23.2 27.6 40.6a2 2 0 1 0 2.8 2.8l2.6-2.6V58h8V46h8v12h8V40.8l2.6 2.6a2 2 0 1 0 2.8-2.8z" fill="#202020"/><path data-name="layer1" d="M29 48a6 6 0 0 1-4.2-10.2l17.4-17.5 2.3-2.3H9v29a3 3 0 0 1-3 3h23zm18.8-27.7l5.2 5.2V18h-7.5z" fill="#202020"/></svg>