<svg xmlns="http://www.w3.org/2000/svg" viewBox="0 0 64 64" aria-labelledby="title" aria-describedby="desc"><path data-name="layer2" fill="#ebf5ff" d="M2 44h10v18H2z"/><path data-name="layer3" d="M40 54h2v-1c0-8-12-9-18-9s-8 2-12 2v12c4 0 8 4 12 4h36c2 0 8.3-8-20-8z" fill="#ffeae6"/><path d="M60 59H24c-4 0-8-4-12-4v3c4 0 8 4 12 4h36a2.4 2.4 0 0 0 1.5-3.9 2.2 2.2 0 0 1-1.5.9z" fill="#000064" opacity=".1"/><path data-name="layer2" d="M36.6 46H62V16H48V2H28v42.2a28.2 28.2 0 0 1 8.6 1.8z" fill="#ebf5ff"/><path data-name="layer1" fill="#fff" d="M62 16L48 2v14h14z"/><path data-name="opacity" fill="#000064" opacity=".15" d="M2 59h10v3H2zM45.3 2v18H62v-4H48V2h-2.7z"/><path data-name="stroke" fill="none" stroke="#2e4369" stroke-linecap="round" stroke-miterlimit="10" stroke-width="2" d="M36.5 46H62V16L48 2H28v42" stroke-linejoin="round"/><path data-name="stroke" fill="none" stroke="#2e4369" stroke-linecap="round" stroke-miterlimit="10" stroke-width="2" d="M48 2v14h14M2 44h10v18H2zm10 14c4 0 8 4 12 4h36c2 0 8.4-8-20-8-9.6 0-14-2-14-2" stroke-linejoin="round"/><path data-name="stroke" d="M12 46c4 0 6-2 12-2s18 1 18 9v1" fill="none" stroke="#2e4369" stroke-linecap="round" stroke-miterlimit="10" stroke-width="2" stroke-linejoin="round"/></svg>