<svg xmlns="http://www.w3.org/2000/svg" viewBox="0 0 64 64" aria-labelledby="title" aria-describedby="desc"><path data-name="layer1" d="M58 9v44a4 4 0 0 1-4 4H10a4 4 0 0 1-4-4V9z" fill="#8fa9d8"/><path data-name="opacity" d="M58 13V9H6v44a4 4 0 0 0 4 4h44a4 4 0 0 0 4-4H46v-4H14V21h-4v-8z" fill="#000064" opacity=".15"/><path data-name="stroke" fill="none" stroke="#2e4369" stroke-linecap="round" stroke-miterlimit="10" stroke-width="2" d="M2 9h60m-4 0v44a4 4 0 0 1-4 4H10a4 4 0 0 1-4-4V9m8 48v4m36-4v4" stroke-linejoin="round"/><path data-name="stroke" fill="none" stroke="#2e4369" stroke-linecap="round" stroke-miterlimit="10" stroke-width="2" d="M14 17h36v16H14zm36 16v16H14V33m14-8h8m-8 16h8" stroke-linejoin="round"/></svg>