<svg xmlns="http://www.w3.org/2000/svg" viewBox="0 0 64 64" aria-labelledby="title" aria-describedby="desc"><path data-name="layer2" fill="#f27e7c" d="M18 2h44L44 21.9V36l-8 6V21.9L18 2z"/><path data-name="layer1" fill="#dbf1ff" d="M2 30v32h26V38l-8-8H2z"/><path data-name="opacity" fill="#000064" opacity=".15" d="M28 40H18V30h-3v16l13-3.2V40zM18 2l18 19.9V42l4-3V2H18z"/><path data-name="stroke" fill="none" stroke="#2e4369" stroke-linecap="round" stroke-miterlimit="10" stroke-width="2" d="M18 2h44L44 21.9V36l-8 6V21.9L18 2zM2 30v32h26V38l-8-8H2z" stroke-linejoin="round"/><path data-name="stroke" fill="none" stroke="#2e4369" stroke-linecap="round" stroke-miterlimit="10" stroke-width="2" d="M18 30v10h10" stroke-linejoin="round"/></svg>