<svg xmlns="http://www.w3.org/2000/svg" viewBox="0 0 64 64" aria-labelledby="title" aria-describedby="desc"><path data-name="layer2" d="M54.8 51.9a12 12 0 1 0-2.8 2.8l7.6 7.6a2 2 0 1 0 2.8-2.8zM37 45a8 8 0 1 1 8 8 8 8 0 0 1-8-8z" fill="#202020"/><path data-name="layer1" d="M39 1H23v16h16zm-4 10a2 2 0 1 1-4 0V7a2 2 0 1 1 4 0z" fill="#202020"/><path data-name="layer1" d="M45 29a15.9 15.9 0 0 1 6 1.2V7.7L44.3 1H43v16.3a3.7 3.7 0 0 1-3.7 3.7H22.7a3.7 3.7 0 0 1-3.7-3.7V1H1v50h6V25h38z" fill="#202020"/><path data-name="layer1" d="M29 45a16 16 0 0 1 12-15.5V29H11v22h19.2a15.9 15.9 0 0 1-1.2-6z" fill="#202020"/></svg>