<svg xmlns="http://www.w3.org/2000/svg" viewBox="0 0 64 64" aria-labelledby="title" aria-describedby="desc"><path data-name="layer2" d="M44 36.2V28H10v24h28a10 10 0 0 1 6-15.8z" fill="#ebf5ff"/><path data-name="layer3" d="M52 38V8.7L45.3 2H42v16.3a1.7 1.7 0 0 1-1.7 1.7H23.7a1.7 1.7 0 0 1-1.7-1.7V2H2v50h8V28h34v8.2l2-.2a9.9 9.9 0 0 1 6 2z" fill="#7f95ad"/><path data-name="layer2" d="M23.7 20h16.6a1.7 1.7 0 0 0 1.7-1.7V2H22v16.3a1.7 1.7 0 0 0 1.7 1.7z" fill="#ebf5ff"/><circle data-name="layer1" cx="46" cy="46" r="10" fill="#fff"/><path data-name="opacity" d="M46 36a10 10 0 0 0-8 4 10 10 0 0 1 14 14 10 10 0 0 0-6-18z" fill="#000064" opacity=".1"/><path data-name="opacity" d="M37.1 50.7l-.3-.6h-.1l-.2-.6v-.2a10 10 0 0 1 3.4-11.1A10 10 0 0 0 31 48c0 .3 0 .7.1 1H6V2H2v50h36l-.5-.7-.3-.5z" fill="#000064" opacity=".15"/><path data-name="stroke" fill="none" stroke="#2e4369" stroke-linecap="round" stroke-miterlimit="10" stroke-width="2" d="M38 52H2V2h43.3L52 8.7V38" stroke-linejoin="round"/><path data-name="stroke" fill="none" stroke="#2e4369" stroke-linecap="round" stroke-miterlimit="10" stroke-width="2" d="M44 36.2V28H10v24m24-42v4m8-12v16.3a1.7 1.7 0 0 1-1.7 1.7H23.7a1.7 1.7 0 0 1-1.7-1.7V2" stroke-linejoin="round"/><circle data-name="stroke" cx="46" cy="46" r="10" fill="none" stroke="#2e4369" stroke-linecap="round" stroke-miterlimit="10" stroke-width="2" stroke-linejoin="round"/><path data-name="stroke" fill="none" stroke="#2e4369" stroke-linecap="round" stroke-miterlimit="10" stroke-width="2" d="M53.1 53.1L62 62" stroke-linejoin="round"/></svg>