<svg xmlns="http://www.w3.org/2000/svg" viewBox="0 0 64 64" aria-labelledby="title" aria-describedby="desc"><path data-name="layer2" d="M36 46a10 10 0 0 1 10-10V2H2v52h38a10 10 0 0 1-4-8z" fill="#ebf5ff"/><circle data-name="layer1" cx="46" cy="46" r="10" fill="#fff"/><path data-name="opacity" d="M46 36a10 10 0 0 0-8 4 10 10 0 0 1 14 14 10 10 0 0 0-6-18z" fill="#000064" opacity=".1"/><path data-name="opacity" d="M39.2 53.3l-.3-.3-.5-.5-.3-.4-.4-.5-.3-.4A9.9 9.9 0 0 1 39.8 38 10 10 0 0 0 31 48a9.9 9.9 0 0 0 .5 3H6V2H2v52h38z" fill="#000064" opacity=".1"/><path data-name="stroke" fill="none" stroke="#2e4369" stroke-linecap="round" stroke-miterlimit="10" stroke-width="2" d="M40 54H2V2h44v34M12 2v8m-2 0h4m10-8v8m-2 0h4m10-8v8m-2 0h4" stroke-linejoin="round"/><circle data-name="stroke" cx="46" cy="46" r="10" fill="none" stroke="#2e4369" stroke-linecap="round" stroke-miterlimit="10" stroke-width="2" stroke-linejoin="round"/><path data-name="stroke" fill="none" stroke="#2e4369" stroke-linecap="round" stroke-miterlimit="10" stroke-width="2" d="M53.1 53.1L62 62" stroke-linejoin="round"/></svg>