<svg xmlns="http://www.w3.org/2000/svg" viewBox="0 0 64 64" aria-labelledby="title" aria-describedby="desc"><path data-name="layer2" fill="#7b8baf" d="M19.5 52.7l26.6-26.6-7.8-7.7L11.7 45"/><path data-name="layer2" fill="#7b8baf" d="M46.1 26.1l15.5-15.5-7.8-7.8-15.5 15.6"/><path data-name="layer1" fill="#536897" d="M5.674 53.074l7.07-7.07 5.658 5.656-7.071 7.071z"/><path data-name="opacity" fill="#000028" opacity=".25" d="M46.1 26.1L42.9 23 16.3 49.6l3.2 3.1 26.6-26.6z"/><path data-name="opacity" fill="#000028" opacity=".25" d="M42.927 23.02L58.484 7.464l3.153 3.154-15.556 15.556z"/><path data-name="stroke" d="M27.5 17.8L41.7 3.6a5.4 5.4 0 0 1 7.6 0l1.8 1.8M19.5 52.7l26.6-26.6-7.8-7.7L11.7 45" fill="none" stroke="#2e4369" stroke-linecap="round" stroke-linejoin="round" stroke-width="2"/><path data-name="stroke" fill="none" stroke="#2e4369" stroke-linecap="round" stroke-linejoin="round" stroke-width="2" d="M46.1 26.1l15.5-15.5-7.8-7.8-15.5 15.6M5.674 53.074l7.07-7.07 5.658 5.656-7.071 7.071zM8.5 55.9L2.4 62"/></svg>