<svg viewBox="0 0 64 64" xmlns="http://www.w3.org/2000/svg" aria-labelledby="title" aria-describedby="desc"><path fill="#202020" d="M34.032 19.357l-25.6 25.6L9.5 46.019l-6.07 6.069 2.828 2.829-4.672 4.669a2 2 0 1 0 2.828 2.828l4.668-4.669 2.828 2.829 6.07-6.071 1.063 1.063 25.6-25.6z" data-name="layer2"/><path fill="#202020" d="M26.123 20.781a1.994 1.994 0 0 0 1.414-.586L41.725 6.008a3.381 3.381 0 0 1 2.4-1 3.378 3.378 0 0 1 2.4 1l.424.424-10.1 10.1 10.62 10.608L63 11.61 52.389 1l-2.6 2.6-.423-.423a7.347 7.347 0 0 0-5.232-2.17A7.352 7.352 0 0 0 38.9 3.18L24.709 17.367a2 2 0 0 0 1.414 3.414z" data-name="layer1"/></svg>