<svg xmlns="http://www.w3.org/2000/svg" viewBox="0 0 64 64" aria-labelledby="title" aria-describedby="desc"><path data-name="layer2" fill="#202020" d="M15.5 32.5h16v8h-16zm0 22h16v8h-16zm-14-10h20v6h-20zm24 0h20v6h-20zm10-12h10v8h-10zm0 22h10v8h-10zm-34 0h10v8h-10zm0-22h10v8h-10z"/><path data-name="layer1" d="M58.4 18a1 1 0 0 0-1.8.8 27.4 27.4 0 0 1 .7 8 25 25 0 0 1-1.5 7.4 42.3 42.3 0 0 0-3.4-16.1c-3.2-7.2-9.1-11.4-14.9-15.4L36 1.6a1 1 0 0 0-1 1.7l1 .7.4.3c4.4 3.4 5.9 8.9 4.6 16.5a29.4 29.4 0 0 1-1.5 5.5 16.7 16.7 0 0 0-.8-4 16.4 16.4 0 0 0-6.6-8.6 1 1 0 0 0-1.3 1.5c4.7 4.7 3.6 6.4 1.5 9.7a30.2 30.2 0 0 0-2 3.6h19.2V53a17 17 0 0 0 13-16.5c0-11.6-4-18.2-4.1-18.5z" fill="#202020"/></svg>