<svg xmlns="http://www.w3.org/2000/svg" viewBox="0 0 64 64" aria-labelledby="title" aria-describedby="desc"><rect data-name="layer2" x="2" y="15" width="60" height="42" rx="6" ry="6" fill="#cbe5ff"/><path data-name="opacity" d="M9 53a2 2 0 0 1-2-2V15.09A6 6 0 0 0 2 21v30a6 6 0 0 0 6 6h48a6 6 0 0 0 5.651-4z" fill="#000064" opacity=".16"/><path data-name="layer1" fill="#f4475d" d="M43 33h-8v-8h-6v8h-8v6h8v8h6v-8h8v-6z"/><path data-name="stroke" fill="none" stroke="#2e4369" stroke-linecap="round" stroke-miterlimit="10" stroke-width="2" d="M43 33h-8v-8h-6v8h-8v6h8v8h6v-8h8v-6z" stroke-linejoin="round"/><rect data-name="stroke" x="2" y="15" width="60" height="42" rx="6" ry="6" fill="none" stroke="#2e4369" stroke-linecap="round" stroke-miterlimit="10" stroke-width="2" stroke-linejoin="round"/><path data-name="stroke" d="M23 15v-4a4 4 0 0 1 4-4h10a4 4 0 0 1 4 4v4" fill="none" stroke="#2e4369" stroke-linecap="round" stroke-miterlimit="10" stroke-width="2" stroke-linejoin="round"/></svg>