<svg viewBox="0 0 64 64" xmlns="http://www.w3.org/2000/svg" aria-labelledby="title" aria-describedby="desc"><path d="M4.249 27l13.75-13.75 18.75 18.749L23 45.75z" fill="#f27e7c" data-name="layer2"/><path d="M23 18.25L39.25 2 58 20.75l-22.5 22.5L37 32 23 18.25z" fill="#f27e7c" data-name="layer2"/><path d="M35.5 43.25l1.25-11.251L30 39l5.5 4.25z" fill="#d85b58" data-name="layer1"/><path opacity=".15" data-name="opacity" d="M27.125 14.125L23 18.25l13.421 13.181L37 24l-9.875-9.875zM35.5 43.25l.844-10.83L30 39l5.5 4.25z" fill="#000064"/><path d="M4.25 27.001L18 13.25l18.75 18.749-13.752 13.752" stroke-width="2" stroke-linejoin="round" stroke-linecap="round" stroke="#2e4369" fill="none" data-name="stroke"/><path d="M23 18.25L39.25 2 58 20.75l-22.5 22.5-5-5m6.25-6.251L35.5 43.25M1.75 24.5c.3.295 37.5 37.5 37.5 37.5" stroke-width="2" stroke-linejoin="round" stroke-linecap="round" stroke="#2e4369" fill="none" data-name="stroke"/></svg>