<svg viewBox="0 0 64 64" xmlns="http://www.w3.org/2000/svg" aria-labelledby="title" aria-describedby="desc"><path fill="#f26161" d="M21.4 43.5C28 33.4 47 35.8 54.9 24L42.8 3c-8.4 11.7-27 9.2-33.7 19.3z" data-name="layer1"/><path opacity=".2" fill="#000032" d="M54.9 24L42.8 3a20.1 20.1 0 0 1-5.1 4.9L49.8 29a18.8 18.8 0 0 0 5.1-5zM9.1 22.3l12.3 21.2a13.5 13.5 0 0 1 2.4-2.7L11.5 19.5a13.5 13.5 0 0 0-2.4 2.8z" data-name="opacity"/><path stroke-width="2" stroke-miterlimit="10" stroke-linecap="round" stroke="#2e4369" fill="none" d="M21.4 43.5C28 33.4 47 35.8 54.9 24L42.8 3c-8.4 11.7-27 9.2-33.7 19.3zm0 0l10.9 19" data-name="stroke" stroke-linejoin="round"/></svg>