<svg viewBox="0 0 64 64" xmlns="http://www.w3.org/2000/svg" aria-labelledby="title" aria-describedby="desc"><path fill="#f27e7c" d="M9 35.165c13.346-6.659 32.3 7.591 48-.146L40.99 21 57 5.019c-16.291 7.317-34.654-6.842-48-.184z" data-name="layer1"/><path opacity=".12" fill="#000064" d="M9 4.835v30.33a16.985 16.985 0 0 1 5-1.556V3.273a17.041 17.041 0 0 0-5 1.562zm48 30.184L40.99 21 57 5.019C51.48 7.5 45.721 7.509 40 6.7v30.243c5.811.797 11.6.738 17-1.924z" data-name="opacity"/><path opacity=".15" fill="#fff" d="M19 3.042v30.332a64.589 64.589 0 0 1 10 1.466V4.55a63.425 63.425 0 0 0-10-1.508z" data-name="opacity"/><path stroke-width="2" stroke-linejoin="round" stroke-linecap="round" stroke="#2e4369" fill="none" d="M9 4.835c13.346-6.658 31.709 7.5 48 .184L40.99 21 57 35.019c-15.7 7.737-34.652-6.513-48 .146m0 27.02V4" data-name="stroke"/></svg>