<svg viewBox="0 0 64 64" xmlns="http://www.w3.org/2000/svg" aria-labelledby="title" aria-describedby="desc"><path fill="#f27e7c" d="M10 37c28.625 0 46-16 46-16-18-.062-32-17.835-46-18z" data-name="layer1"/><path opacity=".12" fill="#000064" d="M10 3v34c1.016 0 2.013-.025 3-.064V3.3a18.283 18.283 0 0 0-3-.3zm29 13.244v14.938A63.108 63.108 0 0 0 56 21c-6.07-.022-11.685-2.06-17-4.756z" data-name="opacity"/><path opacity=".15" fill="#fff" d="M24 7.648a42.355 42.355 0 0 0-9-3.9v33.083a74.869 74.869 0 0 0 9-1.147z" data-name="opacity"/><path stroke-width="2" stroke-linejoin="round" stroke-linecap="round" stroke="#2e4369" fill="none" d="M10 3c14 .165 28 17.938 46 18 0 0-17.377 16-46 16m0 25V2" data-name="stroke"/></svg>