<svg viewBox="0 0 64 64" xmlns="http://www.w3.org/2000/svg" aria-labelledby="title" aria-describedby="desc"><path fill="#f27e7c" d="M7 33.144c13.346-6.659 32.3 7.59 48-.144V3c-16.293 7.315-34.654-6.844-48-.185z" data-name="layer1"/><path opacity=".12" fill="#000064" d="M55 33V3a24.006 24.006 0 0 1-6 1.784v30.164A22.383 22.383 0 0 0 55 33zm-48 .144a18 18 0 0 1 7-1.771V1.036a17.988 17.988 0 0 0-7 1.779z" data-name="opacity"/><path opacity=".15" fill="#fff" d="M18 1.078v30.329a77.08 77.08 0 0 1 10 1.622V2.744a75.858 75.858 0 0 0-10-1.666z" data-name="opacity"/><path stroke-width="2" stroke-linejoin="round" stroke-linecap="round" stroke="#2e4369" fill="none" d="M7 2.815c13.346-6.659 31.707 7.5 48 .185v30c-15.7 7.735-34.652-6.514-48 .145M7 61V2" data-name="stroke"/></svg>