<svg viewBox="0 0 64 64" xmlns="http://www.w3.org/2000/svg" aria-labelledby="title" aria-describedby="desc"><path d="M7 31.001h30L31.801 5.002H1.803L7 31.001z" fill="#f27e7c" data-name="layer1"/><path d="M31.998 5h-4.197L33 31h4.197L31.998 5z" opacity=".15" fill="#fff" data-name="opacity"/><path d="M49 28.841L55.801 17h-21.6L37 31h-8.164L31 41h30L49 28.841z" fill="#f27e7c" data-name="layer1"/><path d="M49 28.841L55.801 17h-21.6L37 31h-8.164L31 41h30L49 28.841z" opacity=".15" fill="#000064" data-name="opacity"/><path d="M7 31.001h30L31.801 5.002H1.803" stroke-width="2" stroke-linejoin="round" stroke-linecap="round" stroke="#2e4369" fill="none" data-name="stroke"/><path d="M28.836 31.001L31 41.002h30L49 28.844l6.801-11.84H34.199M1 1l12.002 60.002" stroke-width="2" stroke-linejoin="round" stroke-linecap="round" stroke="#2e4369" fill="none" data-name="stroke"/></svg>