<svg xmlns="http://www.w3.org/2000/svg" viewBox="0 0 64 64" aria-labelledby="title" aria-describedby="desc"><path data-name="layer1" d="M8.5 20.6c4.1-4.4 3.6-5.9 3.6-6a2 2 0 1 1 3.8-1.4 4.9 4.9 0 0 1 .2 2.4 18.8 18.8 0 0 1 8.6 12.8v-.6c.5-6.8 4.4-22.7-10-21.9C10.5 6.3.5 7.6 2.2 22.4a93.2 93.2 0 0 0 1.9 10.7 18.5 18.5 0 0 1 4.4-12.5z" fill="#202020"/><path data-name="layer1" d="M24.9 33.7a20.1 20.1 0 0 1-1 5A2 2 0 0 1 22 40h-.7a2 2 0 0 1-1.1-2.6c.2-.5 3.9-10.8-5.6-17.7a27.8 27.8 0 0 1-3.1 3.8c-1.7 1.8-6.7 10.2 0 17.3a2 2 0 0 1-2.9 2.8A17.1 17.1 0 0 1 5.9 40c2.9 8.9 7.1 16.6 11.8 17.7 7.6 1.8 11-4 10.2-8.3s-2.4-9.8-3-15.7zm27.5 10.5a2 2 0 0 1-2.5-3.1c7.6-6.2 3.5-14.8 2-16.8a27.2 27.2 0 0 1-2.6-4.1 14.9 14.9 0 0 0-7.8 16.7 2 2 0 0 1-1.4 2.4h-.5a2 2 0 0 1-2-1.3 19.3 19.3 0 0 1-.5-5.1c-1.3 5.7-3.8 11.8-4.8 14.9s1.5 10 9.3 9.1c4.8-.6 9.8-7.3 13.8-15.7a17.4 17.4 0 0 1-3 3z" fill="#202020"/><path data-name="layer1" d="M50.6 7.2C36.2 4.9 38.3 20.8 38 27.4v.5c1.2-4.1 4-8.5 10.2-11.6a4.8 4.8 0 0 1 .5-2.4 2 2 0 0 1 3.6 1.8c-.2.5.1 2.4 2.9 6.1a17.8 17.8 0 0 1 3.1 12.7 88.4 88.4 0 0 0 3.1-10.1c3.3-14.1-6.6-16.5-10.8-17.2z" fill="#202020"/></svg>