<svg xmlns="http://www.w3.org/2000/svg" viewBox="0 0 64 64" aria-labelledby="title" aria-describedby="desc"><path data-name="layer2" d="M2 55a2 2 0 0 0 2 2h56a2 2 0 0 0 2-2V23H2z" fill="#f8da82"/><path data-name="layer1" fill="#dcba7a" d="M24 13V7H2v16h60V13H24z"/><path data-name="opacity" d="M8 54a2 2 0 0 1-2-2V7H2v48a2 2 0 0 0 2 2h56a2 2 0 0 0 2-2v-1z" fill="#000064" opacity=".15"/><path data-name="stroke" fill="none" stroke="#2e4369" stroke-linecap="round" stroke-miterlimit="10" stroke-width="2" d="M62 23H2m22-10V7H2v48a2 2 0 0 0 2 2h56a2 2 0 0 0 2-2V13z" stroke-linejoin="round"/></svg>