<svg xmlns="http://www.w3.org/2000/svg" viewBox="0 0 64 64" aria-labelledby="title" aria-describedby="desc"><path data-name="layer2" d="M60.6 43.1a11.7 11.7 0 0 0 0-4.3l3.1-1.8-4-6.9-3.1 1.8a12 12 0 0 0-3.7-2.1V26h-8v3.7a12 12 0 0 0-3.7 2.1L38 30l-4 7 3 1.7a11.6 11.6 0 0 0 0 4.4L33.7 45l4 6.9 3.3-1.8a12 12 0 0 0 3.8 2.2V56h8v-3.7a12.1 12.1 0 0 0 3.9-2.3l3.3 2 4-7zM48.9 46a5 5 0 1 1 5-5 5 5 0 0 1-5 5z" fill="#202020"/><path data-name="layer1" d="M30.2 47a4 4 0 0 1 1.5-5.5l1.1-.6-.8-.5a4 4 0 0 1-1.4-5.4l4-6.9a4 4 0 0 1 2.4-1.9h1a4 4 0 0 1 2 .5l.8.5V26a4 4 0 0 1 4-4h8a4 4 0 0 1 3.2 1.6V14H24V8H4v40.3A1.7 1.7 0 0 0 5.7 50h26.2z" fill="#202020"/></svg>