<svg xmlns="http://www.w3.org/2000/svg" viewBox="0 0 64 64" aria-labelledby="title" aria-describedby="desc"><path data-name="layer2" d="M35 44.1a11.6 11.6 0 0 1 0-4.4L32 38l4-7 3.1 1.8a12 12 0 0 1 3.7-2.1V27h8v3.7a12 12 0 0 1 3.2 1.7V15H22V9H2v40.3A1.7 1.7 0 0 0 3.7 51h30.9l-2.9-5z" fill="#f8da82"/><path data-name="opacity" d="M32 38l1.9-3.3L31 33l-4 7 3 1.7a11.6 11.6 0 0 0 0 4.4L26.8 48H7.7A1.7 1.7 0 0 1 6 46.3V9H2v40.3A1.7 1.7 0 0 0 3.7 51h30.9l-1.7-3-1.1-2 3.2-1.9a11.6 11.6 0 0 1 0-4.4zm5.8-9v3.1l1.3.8a12 12 0 0 1 3.7-2.1V29z" fill="#000064" opacity=".15"/><path data-name="layer1" d="M58.6 44.1a11.7 11.7 0 0 0 0-4.3l3.1-1.8-4-6.9-3.1 1.8a12 12 0 0 0-3.7-2.1V27h-8v3.7a12 12 0 0 0-3.7 2.1L36 31l-4 7 3 1.7a11.6 11.6 0 0 0 0 4.4L31.7 46l4 6.9 3.3-1.8a12 12 0 0 0 3.8 2.2V57h8v-3.7a12.1 12.1 0 0 0 3.9-2.3l3.3 2 4-7zM46.9 47a5 5 0 1 1 5-5 5 5 0 0 1-5 5z" fill="#8fa9d8"/><path data-name="stroke" d="M54 32.4V15H22V9H2v40.3A1.7 1.7 0 0 0 3.7 51h30.9" fill="none" stroke="#2e4369" stroke-linecap="round" stroke-miterlimit="10" stroke-width="2" stroke-linejoin="round"/><circle data-name="stroke" cx="46.9" cy="42" r="5" fill="none" stroke="#2e4369" stroke-linecap="round" stroke-miterlimit="10" stroke-width="2" stroke-linejoin="round"/><path data-name="stroke" d="M62 46l-3.4-2a11.7 11.7 0 0 0 0-4.3l3.1-1.7-4-6.9-3.1 1.8a12 12 0 0 0-3.7-2.1V27h-8v3.7a12 12 0 0 0-3.7 2.1L36 31l-4 7 3 1.7a11.6 11.6 0 0 0 0 4.4L31.7 46l4 6.9 3.3-1.8a12 12 0 0 0 3.8 2.2V57h8v-3.7a12.1 12.1 0 0 0 3.9-2.3l3.3 2z" fill="none" stroke="#2e4369" stroke-linecap="round" stroke-miterlimit="10" stroke-width="2" stroke-linejoin="round"/></svg>