<svg xmlns="http://www.w3.org/2000/svg" viewBox="0 0 64 64" aria-labelledby="title" aria-describedby="desc"><path data-name="layer2" fill="#99dbff" d="M24 6v8h6v-2h10v40h-2v6h10v-6h-2V12h10v2h6V6H24z"/><path data-name="layer1" fill="#91aadc" d="M2 30h6v-2h5v24h-2v6h10v-6h-2V28h5v2h6v-8H2v8z"/><path data-name="stroke" fill="none" stroke="#2e4369" stroke-linecap="round" stroke-miterlimit="10" stroke-width="2" d="M24 6v8h6v-2h10v40h-2v6h10v-6h-2V12h10v2h6V6H24z" stroke-linejoin="round"/><path data-name="stroke" fill="none" stroke="#2e4369" stroke-linecap="round" stroke-miterlimit="10" stroke-width="2" d="M2 30h6v-2h5v24h-2v6h10v-6h-2V28h5v2h6v-8H2v8z" stroke-linejoin="round"/></svg>