<svg xmlns="http://www.w3.org/2000/svg" viewBox="0 0 64 64" aria-labelledby="title" aria-describedby="desc"><path data-name="layer1" d="M22.5 27.8V60a2 2 0 0 1-2 2 2 2 0 0 1-2-2V27.8" fill="#bacae8"/><path data-name="layer2" d="M50.5 37v23a2 2 0 0 1-2 2 2 2 0 0 1-2-2V37" fill="#f05a41"/><path data-name="opacity" d="M48.6 59V37h-2v23a2 2 0 0 0 3.7 1 2 2 0 0 1-1.7-2z" fill="#101129" opacity=".25"/><path data-name="layer1" d="M18.5 27.8c-2.9-.6-5-2.6-5-5.8l1-20h12l1 20c0 3.2-2.1 5.2-5 5.8m28 9.2V2a10 10 0 0 0-10 10v20a5 5 0 0 0 5 5z" fill="#bacae8"/><path data-name="opacity" fill="#fff" opacity=".5" d="M40.5 22.1l10 10v-7l-10-10v7zM50.5 6l-3.4-3.4a10 10 0 0 0-6.4 7.7l9.8 9.8z"/><path data-name="stroke" fill="none" stroke="#2f446a" stroke-linecap="round" stroke-linejoin="round" stroke-width="2" d="M18.5 17V2m32 35v23a2 2 0 0 1-2 2 2 2 0 0 1-2-2V37m-24-35v15m4-15h-12l-1 20c0 3.2 2.1 5.2 5 5.8V60a2 2 0 0 0 4 0V27.8c2.9-.6 5-2.6 5-5.8zm24 35V2a10 10 0 0 0-10 10v20a5 5 0 0 0 5 5z"/></svg>