<svg xmlns="http://www.w3.org/2000/svg" viewBox="0 0 64 64" aria-labelledby="title" aria-describedby="desc"><path data-name="layer2" d="M50.5 37v23a2 2 0 0 1-2 2 2 2 0 0 1-2-2V37" fill="none" stroke="#202020" stroke-linecap="round" stroke-linejoin="round" stroke-width="2"/><path data-name="layer1" fill="none" stroke="#202020" stroke-linecap="round" stroke-linejoin="round" stroke-width="2" d="M18.5 17V2m4 0v15m4-15h-12l-1 20c0 3.2 2.1 5.2 5 5.8V60a2 2 0 0 0 4 0V27.8c2.9-.6 5-2.6 5-5.8zm24 35V2a10 10 0 0 0-10 10v20a5 5 0 0 0 5 5z"/></svg>