<svg xmlns="http://www.w3.org/2000/svg" viewBox="0 0 64 64" aria-labelledby="title" aria-describedby="desc"><path data-name="layer1" d="M33.635 15.085A15.144 15.144 0 0 1 45 10h5.758l-2.88-2.879L52 3l10 10-9.879 10.121-4.242-4.242L50.759 16h-6.33a7.98 7.98 0 0 0-6.135 2.87l-6.726 9.237-.003-.001A13.599 13.599 0 0 1 28.727 31a13.58 13.58 0 0 1 2.838 2.894l.003-.001 6.726 9.236A7.98 7.98 0 0 0 44.43 46h6.327l-2.879-2.879 4.244-4.242L62 49 52 59l-4.121-4.122L50.758 52H44.43a13.965 13.965 0 0 1-10.795-5.085l-6.943-9.526A8.277 8.277 0 0 0 20 34H2v-6h18v-.001a8.275 8.275 0 0 0 6.692-3.389z" fill="#bacae9"/><path data-name="stroke" d="M33.635 15.085A15.144 15.144 0 0 1 45 10h5.758l-2.88-2.879L52 3l10 10-9.879 10.121-4.242-4.242L50.759 16h-6.33a7.98 7.98 0 0 0-6.135 2.87l-6.726 9.237-.003-.001a13.851 13.851 0 0 1-2.838 2.947A16.883 16.883 0 0 1 31.565 34h.003l6.726 9.183A7.93 7.93 0 0 0 44.43 46h6.327l-2.879-2.879 4.244-4.242L62 49 52 59l-4.121-4.122L50.758 52H44.43a13.965 13.965 0 0 1-10.795-5.085l-6.943-9.526A8.277 8.277 0 0 0 20 34H2v-6h18v-.001a8.275 8.275 0 0 0 6.692-3.389z" fill="none" stroke="#2e4369" stroke-linecap="round" stroke-linejoin="round" stroke-width="2"/></svg>