<svg xmlns="http://www.w3.org/2000/svg" viewBox="0 0 64 64" aria-labelledby="title" aria-describedby="desc"><path data-name="layer1" d="M34.375 61.994h24.963a.5.5 0 0 0 .453-.712L32.453 2.96a.5.5 0 0 0-.905 0L4.209 61.282a.5.5 0 0 0 .453.712h25.057a.5.5 0 0 0 .5-.5v-9a.5.5 0 0 0-.2-.4l-5.812-4.337a.5.5 0 0 1-.185-.524l.86-3.368a.5.5 0 0 1 .779-.281l3.766 2.739a.5.5 0 0 0 .794-.4v-9.585a.5.5 0 0 1 .5-.5h2.656a.5.5 0 0 1 .5.5v4.21a.5.5 0 0 0 .77.421l3.627-2.327a.5.5 0 0 1 .752.288l.752 2.736a.5.5 0 0 1-.217.557l-5.451 3.406a.5.5 0 0 0-.235.424v3.136a.5.5 0 0 0 .722.448l8.34-4.13a.5.5 0 0 1 .714.358l.656 3.57a.5.5 0 0 1-.271.539l-9.881 4.852a.5.5 0 0 0-.28.449v6.22a.5.5 0 0 0 .5.499z" fill="none" stroke="#202020" stroke-linecap="round" stroke-miterlimit="10" stroke-width="2" stroke-linejoin="round"/></svg>