<svg xmlns="http://www.w3.org/2000/svg" viewBox="0 0 64 64" aria-labelledby="title" aria-describedby="desc"><path data-name="layer1" d="M50.372-.006H16.126c-4.72 0-6.126 3.5-6.126 5.8v54.158a3.941 3.941 0 0 0 2.109 3.8c.8.3 2.912.6 4.118-.9 0 0 16.169-18.687 16.47-18.987.4-.4.4-.4.8-.4h10.448c4.419 0 5.122-3.1 5.524-5 .4-1.5 4.72-23.384 6.126-30.379 1.205-5.194-.201-8.092-5.223-8.092zm-.8 38.473c.4-1.5 4.72-23.384 6.126-30.379m-7.331 1.1l-1.406 7.495a2.5 2.5 0 0 1-2.109 1.7h-13.36a2.447 2.447 0 0 0-2.611 2.5v1.6a2.527 2.527 0 0 0 2.611 2.6H42.84a2.063 2.063 0 0 1 1.908 2.3c-.2 1.1-1.306 6.7-1.406 7.295a2.19 2.19 0 0 1-2.109 1.7h-9.239a3.251 3.251 0 0 0-3.314 1.6c-1.1 1.4-11.248 13.491-11.248 13.491-.1.1-.2.1-.2 0V9.088a2.112 2.112 0 0 1 2.109-2.1h27.516a1.894 1.894 0 0 1 1.507 2.2z" fill="#202020"/></svg>