<svg viewBox="0 0 64 64" xmlns="http://www.w3.org/2000/svg" aria-labelledby="title" aria-describedby="desc"><path fill="#fc0" d="M54 34.012c0-2.609.326-4.806-2-5.633v-8.377H12v8.377c-2.326.827-2 3.024-2 5.633v5.992h44z" data-name="layer3"/><path fill="#7b8baf" d="M52 9.01a3 3 0 0 0-3-3H36a4 4 0 0 1-8 0H15a3 3 0 0 0-3 3v10.992h40zM10 40.004v10a6 6 0 0 0 6 6h32a6 6 0 0 0 6-6v-10z" data-name="layer2"/><circle fill="#a0d6ef" r="4" cy="6.003" cx="32" data-name="layer1"/><circle fill="#a0d6ef" r="2" cy="30.006" cx="22" data-name="layer1"/><circle fill="#a0d6ef" r="2" cy="30.006" cx="42" data-name="layer1"/><path opacity=".15" fill="#000064" d="M53 53.004H21a6 6 0 0 1-6-6V31.012c0-2.609-.326-4.806 2-5.633V6.009h-2a3 3 0 0 0-3 3v19.37c-2.326.827-2 3.024-2 5.633v15.992a6 6 0 0 0 6 6h32a5.994 5.994 0 0 0 5.196-3.01c-.065.002-.13.01-.196.01zM25 9.003a3.996 3.996 0 0 0 7.892.892 3.971 3.971 0 0 1-4.891-3.885h-1.63A3.973 3.973 0 0 0 25 9.003z" data-name="opacity"/><path opacity=".25" data-name="opacity" fill="#fff" d="M52 28.379V9.009a3 3 0 0 0-3-3H36a3.974 3.974 0 0 1-1.388 3H46a3 3 0 0 1 3 3v19.37c2.326.827 2 3.024 2 5.633v15.992a5.968 5.968 0 0 1-.534 2.465A5.998 5.998 0 0 0 54 50.004V34.012c0-2.609.326-4.806-2-5.633z"/><path d="M18.999 56.005l-9.998 5.997m36.001-5.997l9.996 5.997M28 6.01H15a3 3 0 0 0-3 3v19.369c-2.326.827-2 3.024-2 5.633v15.992a6 6 0 0 0 6 6h32a6 6 0 0 0 6-6V34.012c0-2.609.326-4.806-2-5.633V9.009a3 3 0 0 0-3-3H36M10 40.004h44" stroke-width="2" stroke-linejoin="round" stroke-linecap="round" stroke="#2e4369" fill="none" data-name="stroke"/><circle stroke-width="2" stroke-linejoin="round" stroke-linecap="round" stroke="#2e4369" fill="none" r="4" cy="6.003" cx="32" data-name="stroke"/><circle stroke-width="2" stroke-linejoin="round" stroke-linecap="round" stroke="#2e4369" fill="none" r="2" cy="30.006" cx="22" data-name="stroke"/><circle stroke-width="2" stroke-linejoin="round" stroke-linecap="round" stroke="#2e4369" fill="none" r="2" cy="30.006" cx="42" data-name="stroke"/><path d="M12 20.002h40" stroke-width="2" stroke-linejoin="round" stroke-linecap="round" stroke="#2e4369" fill="none" data-name="stroke"/></svg>