<svg xmlns="http://www.w3.org/2000/svg" viewBox="0 0 64 64" aria-labelledby="title" aria-describedby="desc"><path data-name="layer2" d="M4 33c0-6.4 7.6-20 28-20s28 9.1 28 20-10 10-22 10H14c-3 0-10-2.5-10-10z" fill="#f6b36d"/><path data-name="opacity" d="M47 39H23c-3 0-10-2.5-10-10 0-3.9 2.7-10.3 9.4-14.8C9.2 17.6 4 27.7 4 33c0 7.5 7 10 10 10h24c9.2 0 17.2.3 20.5-4.3-3.4.4-7.3.3-11.5.3z" fill="#101129" opacity=".25"/><path data-name="layer1" d="M62 49a2 2 0 0 1-2 2H4a2 2 0 0 1-2-2 2 2 0 0 1 2-2h56a2 2 0 0 1 2 2z" fill="#ffe6c5"/><path data-name="stroke" d="M4 33c0-6.4 7.6-20 28-20s28 9.1 28 20-10 10-22 10H14c-3 0-10-2.5-10-10zm15.1-17.8C21.8 17 26 20.9 26 27m4-14c3 1.4 5.4 6.3 6 12m4-11.5c2.7 1.8 5.4 5.8 6 11.5m16 24a2 2 0 0 1-2 2H4a2 2 0 0 1-2-2 2 2 0 0 1 2-2h56a2 2 0 0 1 2 2z" fill="none" stroke="#2f446a" stroke-linecap="round" stroke-linejoin="round" stroke-width="2"/></svg>