<svg xmlns="http://www.w3.org/2000/svg" viewBox="0 0 64 64" aria-labelledby="title" aria-describedby="desc"><path data-name="layer1" d="M62 8.8C61.4 5 48.2 2 32 2S2.6 5 2 8.8V18c0 1.2.9 2.5 2 3.5s18.9 17 20.2 18.4 1.8 2.3 1.8 3.7v15.7c0 1.8 1.1 3.5 4 2.2s8-5.4 8-7.8v-10c0-1.8.2-3.1.9-3.8L60 21a4.9 4.9 0 0 0 2-3.5V8.8z" fill="#9cf"/><path data-name="opacity" d="M32 2C15.4 2 2 5.1 2 9v9.2c0 1.2.9 2.5 2 3.5s18.9 17 20.2 18.4 1.8 2.4 1.8 3.8v15.7c0 1.8 1.1 3.5 4 2.2l2-1.1V42.2l-16-19v-8.3A111.7 111.7 0 0 0 32 16c16.6 0 30-3.1 30-7S48.6 2 32 2z" fill="#000064" opacity=".15"/><path data-name="stroke" d="M2 8.8V18c0 1.2.9 2.5 2 3.5s18.9 17 20.2 18.4 1.8 2.3 1.8 3.7v15.7c0 1.8 1.1 3.5 4 2.2s8-5.4 8-7.8v-10c0-1.8.2-3.1.9-3.8L60 21a4.9 4.9 0 0 0 2-3.5V8.8" fill="none" stroke="#2e4369" stroke-linecap="round" stroke-miterlimit="10" stroke-width="2" stroke-linejoin="round"/><ellipse data-name="stroke" cx="32" cy="9" rx="30" ry="7" fill="none" stroke="#2e4369" stroke-linecap="round" stroke-miterlimit="10" stroke-width="2" stroke-linejoin="round"/></svg>