<svg xmlns="http://www.w3.org/2000/svg" viewBox="0 0 64 64" aria-labelledby="title" aria-describedby="desc"><path data-name="layer1" d="M58 26.5v4a26 26 0 1 1-52 0v-4z" fill="#fdefe5"/><path data-name="opacity" d="M38 54.5a26 26 0 0 1-26-26v-2H6v4A26 26 0 0 0 43.2 54a26.1 26.1 0 0 1-5.2.5z" fill="#101129" opacity=".18"/><path data-name="opacity" d="M55.5 26.5s1.7 19.7-14.7 25.7c12.2-4.3 7.4-25.7 7.4-25.7z" fill="#fff" opacity=".25"/><path data-name="stroke" fill="none" stroke="#2f446a" stroke-linecap="round" stroke-linejoin="round" stroke-width="2" d="M45.9 2.5L34 26.5m23.9-16l-16 16M6 26.5v4a26 26 0 1 0 52 0v-4m-38 35a26 26 0 0 1 24 0m-42-35h60"/></svg>