<svg xmlns="http://www.w3.org/2000/svg" viewBox="0 0 64 64" aria-labelledby="title" aria-describedby="desc"><path data-name="layer4" fill="#ed4c49" d="M23 26h34v36.03H23z"/><path data-name="layer3" fill="#7b8baf" d="M3 32h8v-4l-8-8v12z"/><path data-name="layer2" fill="#d1deff" d="M41 34h8v14h-8z"/><path data-name="layer1" d="M57 6a4 4 0 0 0-4-4H27a4 4 0 0 0-4 4v20h34z" fill="#bacae7"/><path data-name="opacity" d="M29 60V4a4 4 0 0 1 .6-2H27a4 4 0 0 0-4 4v56h34v-2z" fill="#000064" opacity=".15"/><path data-name="opacity" d="M29 6h22a4 4 0 0 1 4 4v16h2V6a4 4 0 0 0-4-4H29.6a4 4 0 0 0-.6 2z" fill="#fff" opacity=".2"/><path data-name="stroke" d="M23 34h-2a6 6 0 0 0-6 6v14a6 6 0 0 1-6 6 6 6 0 0 1-6-6V20l8-8" fill="none" stroke="#2e4369" stroke-linecap="round" stroke-linejoin="round" stroke-width="2"/><path data-name="stroke" fill="none" stroke="#2e4369" stroke-linecap="round" stroke-linejoin="round" stroke-width="2" d="M3 20l8 8v4H3m38 2h8v14h-8z"/><path data-name="stroke" d="M23 62V6a4 4 0 0 1 4-4h26a4 4 0 0 1 4 4v56m-38 0h42M23 26h34" fill="none" stroke="#2e4369" stroke-linecap="round" stroke-linejoin="round" stroke-width="2"/></svg>