<svg xmlns="http://www.w3.org/2000/svg" viewBox="0 0 64 64" aria-labelledby="title" aria-describedby="desc"><path data-name="layer2" d="M10 40H2a1 1 0 0 0-1 1v18a1 1 0 0 0 .8 1l8 2h.2l.6-.2a1 1 0 0 0 .4-.8V41a1 1 0 0 0-1-1zm51-11H11a2 2 0 0 0 0 4h2l.7 1.4a4.2 4.2 0 0 0 3.5 2.6h37.6a3.7 3.7 0 0 0 3.5-2.6L59 33h2a2 2 0 0 0 0-4z" fill="#202020"/><path data-name="layer1" d="M39.8 7.3a4 4 0 1 0-7.5 0A22 22 0 0 0 14.4 25h43.2A22 22 0 0 0 39.8 7.3zM53.4 53H27.8a2 2 0 0 1 0-4h8.5c-3.6-6-19.5-6-21.3-6v14a39.2 39.2 0 0 0 10.6 2h28.8c3.6 0 2.7-3.2 1.9-4a10.4 10.4 0 0 0-2.9-2z" fill="#202020"/></svg>