<svg xmlns="http://www.w3.org/2000/svg" viewBox="0 0 64 64" aria-labelledby="title" aria-describedby="desc"><path data-name="layer1" d="M58.906 27a3.127 3.127 0 0 1-2.977-2.258 24.836 24.836 0 0 0-1.875-4.519 3.131 3.131 0 0 1 .505-3.71 3.1 3.1 0 0 0 0-4.376l-2.693-2.698a3.1 3.1 0 0 0-4.376 0 3.131 3.131 0 0 1-3.71.505 24.834 24.834 0 0 0-4.519-1.875A3.127 3.127 0 0 1 37 5.094 3.1 3.1 0 0 0 33.906 2h-3.812A3.1 3.1 0 0 0 27 5.094a3.127 3.127 0 0 1-2.258 2.977 24.834 24.834 0 0 0-4.519 1.875 3.131 3.131 0 0 1-3.71-.505 3.1 3.1 0 0 0-4.376 0l-2.698 2.693a3.1 3.1 0 0 0 0 4.376 3.131 3.131 0 0 1 .505 3.71 24.836 24.836 0 0 0-1.875 4.519A3.127 3.127 0 0 1 5.094 27 3.1 3.1 0 0 0 2 30.094v3.811A3.1 3.1 0 0 0 5.094 37a3.127 3.127 0 0 1 2.977 2.258 24.829 24.829 0 0 0 1.875 4.519 3.131 3.131 0 0 1-.505 3.71 3.1 3.1 0 0 0 0 4.376l2.7 2.695a3.1 3.1 0 0 0 4.376 0 3.131 3.131 0 0 1 3.71-.505 24.841 24.841 0 0 0 4.519 1.875A3.127 3.127 0 0 1 27 58.906 3.1 3.1 0 0 0 30.094 62h3.811A3.1 3.1 0 0 0 37 58.906a3.127 3.127 0 0 1 2.258-2.977 24.841 24.841 0 0 0 4.519-1.875 3.131 3.131 0 0 1 3.71.505 3.1 3.1 0 0 0 4.376 0l2.7-2.695a3.1 3.1 0 0 0 0-4.376 3.131 3.131 0 0 1-.505-3.71 24.829 24.829 0 0 0 1.875-4.519A3.127 3.127 0 0 1 58.906 37 3.1 3.1 0 0 0 62 33.906v-3.812A3.1 3.1 0 0 0 58.906 27zM32 46a14 14 0 1 1 14-14 14 14 0 0 1-14 14z" fill="#7b8baf"/><path data-name="opacity" d="M48 29a13.991 13.991 0 0 0-26.542-6.193 13.983 13.983 0 0 1 23.084 15.386A13.931 13.931 0 0 0 48 29zM9.441 16.513a3.131 3.131 0 0 1 .505 3.71 24.88 24.88 0 0 0-1.526 3.465 3.183 3.183 0 0 0 1.651-1.946 24.836 24.836 0 0 1 1.875-4.519 3.131 3.131 0 0 0-.505-3.71 3.079 3.079 0 0 1-.872-2.5l-1.13 1.121a3.1 3.1 0 0 0 0 4.376zM35.906 59h-3.812A3.1 3.1 0 0 1 29 55.906a3.127 3.127 0 0 0-2.258-2.977 24.841 24.841 0 0 1-4.519-1.875 3.131 3.131 0 0 0-3.71.505 3.1 3.1 0 0 1-4.376 0l-2.695-2.695a3.1 3.1 0 0 1 0-4.376 3.131 3.131 0 0 0 .505-3.71 24.829 24.829 0 0 1-1.875-4.519A3.127 3.127 0 0 0 7.094 34 3.1 3.1 0 0 1 4 30.906v-3.695a3.1 3.1 0 0 0-2 2.884v3.811A3.1 3.1 0 0 0 5.094 37a3.127 3.127 0 0 1 2.977 2.258 24.829 24.829 0 0 0 1.875 4.519 3.131 3.131 0 0 1-.505 3.71 3.1 3.1 0 0 0 0 4.376l2.7 2.695a3.1 3.1 0 0 0 4.376 0 3.131 3.131 0 0 1 3.71-.505 24.841 24.841 0 0 0 4.519 1.875A3.127 3.127 0 0 1 27 58.906 3.1 3.1 0 0 0 30.094 62h3.811A3.1 3.1 0 0 0 37 58.906c0-.041.008-.079.01-.12a3.052 3.052 0 0 1-1.104.214zm17.96-7.439a3.1 3.1 0 0 1-4.376 0 3.131 3.131 0 0 0-3.71-.505 24.841 24.841 0 0 1-4.519 1.875A3.127 3.127 0 0 0 39 55.906c0 .044-.011.085-.013.129.09-.036.177-.077.271-.106a24.841 24.841 0 0 0 4.519-1.875 3.131 3.131 0 0 1 3.71.505 3.1 3.1 0 0 0 4.376 0l2.7-2.695a3.062 3.062 0 0 0 .873-1.872z" fill="#000064" opacity=".2"/><circle data-name="stroke" cx="32" cy="32" r="14" fill="none" stroke="#2e4369" stroke-linecap="round" stroke-miterlimit="10" stroke-width="2" stroke-linejoin="round"/><path data-name="stroke" d="M58.906 27a3.127 3.127 0 0 1-2.977-2.258 24.834 24.834 0 0 0-1.875-4.519 3.131 3.131 0 0 1 .505-3.71 3.1 3.1 0 0 0 0-4.376l-2.693-2.698a3.1 3.1 0 0 0-4.376 0 3.131 3.131 0 0 1-3.71.505 24.834 24.834 0 0 0-4.519-1.875A3.127 3.127 0 0 1 37 5.094 3.1 3.1 0 0 0 33.906 2h-3.812A3.1 3.1 0 0 0 27 5.094a3.127 3.127 0 0 1-2.258 2.977 24.834 24.834 0 0 0-4.519 1.875 3.131 3.131 0 0 1-3.71-.505 3.1 3.1 0 0 0-4.376 0l-2.695 2.7a3.1 3.1 0 0 0 0 4.376 3.131 3.131 0 0 1 .505 3.71 24.834 24.834 0 0 0-1.875 4.519A3.127 3.127 0 0 1 5.094 27 3.1 3.1 0 0 0 2 30.094v3.811A3.1 3.1 0 0 0 5.094 37a3.127 3.127 0 0 1 2.977 2.258 24.833 24.833 0 0 0 1.875 4.519 3.131 3.131 0 0 1-.505 3.71 3.1 3.1 0 0 0 0 4.376l2.7 2.7a3.1 3.1 0 0 0 4.376 0 3.131 3.131 0 0 1 3.71-.505 24.834 24.834 0 0 0 4.519 1.875A3.127 3.127 0 0 1 27 58.906 3.1 3.1 0 0 0 30.094 62h3.811A3.1 3.1 0 0 0 37 58.906a3.127 3.127 0 0 1 2.258-2.977 24.834 24.834 0 0 0 4.519-1.875 3.131 3.131 0 0 1 3.71.505 3.1 3.1 0 0 0 4.376 0l2.7-2.695a3.1 3.1 0 0 0 0-4.376 3.131 3.131 0 0 1-.505-3.71 24.833 24.833 0 0 0 1.875-4.519A3.127 3.127 0 0 1 58.906 37 3.1 3.1 0 0 0 62 33.906v-3.812A3.1 3.1 0 0 0 58.906 27z" fill="none" stroke="#2e4369" stroke-linecap="round" stroke-miterlimit="10" stroke-width="2" stroke-linejoin="round"/></svg>