<svg xmlns="http://www.w3.org/2000/svg" viewBox="0 0 64 64" aria-labelledby="title" aria-describedby="desc"><path data-name="layer1" d="M60.7 26.667a3.335 3.335 0 0 1-3.175-2.409 26.489 26.489 0 0 0-2-4.821 3.34 3.34 0 0 1 .539-3.957 3.31 3.31 0 0 0 0-4.668L53.19 7.935a3.31 3.31 0 0 0-4.668 0 3.34 3.34 0 0 1-3.957.539 26.489 26.489 0 0 0-4.821-2A3.335 3.335 0 0 1 37.333 3.3a3.31 3.31 0 0 0-3.3-3.3h-4.066a3.31 3.31 0 0 0-3.3 3.3 3.335 3.335 0 0 1-2.409 3.175 26.489 26.489 0 0 0-4.821 2 3.34 3.34 0 0 1-3.957-.539 3.31 3.31 0 0 0-4.668 0L7.935 10.81a3.31 3.31 0 0 0 0 4.668 3.34 3.34 0 0 1 .539 3.957 26.489 26.489 0 0 0-2 4.821A3.335 3.335 0 0 1 3.3 26.667a3.31 3.31 0 0 0-3.3 3.3v4.065a3.31 3.31 0 0 0 3.3 3.3 3.336 3.336 0 0 1 3.176 2.409 26.488 26.488 0 0 0 2 4.821 3.34 3.34 0 0 1-.539 3.957 3.311 3.311 0 0 0 0 4.668l2.875 2.875a3.31 3.31 0 0 0 4.668 0 3.34 3.34 0 0 1 3.957-.539 26.489 26.489 0 0 0 4.821 2 3.336 3.336 0 0 1 2.409 3.177 3.31 3.31 0 0 0 3.3 3.3h4.065a3.31 3.31 0 0 0 3.3-3.3 3.336 3.336 0 0 1 2.409-3.175 26.489 26.489 0 0 0 4.821-2 3.34 3.34 0 0 1 3.957.539 3.31 3.31 0 0 0 4.668 0l2.875-2.875a3.311 3.311 0 0 0 0-4.668 3.34 3.34 0 0 1-.539-3.957 26.488 26.488 0 0 0 2-4.821 3.336 3.336 0 0 1 3.177-2.41 3.31 3.31 0 0 0 3.3-3.3v-4.066a3.31 3.31 0 0 0-3.3-3.3zM32 47a15 15 0 1 1 15-15 15 15 0 0 1-15 15z" fill="#202020"/></svg>