<svg xmlns="http://www.w3.org/2000/svg" viewBox="0 0 64 64" aria-labelledby="title" aria-describedby="desc"><circle data-name="layer1" cx="32" cy="33" r="30" fill="#bacae7"/><path data-name="opacity" d="M42 53A30 30 0 0 1 16.4 7.4a30 30 0 1 0 41.2 41.2A29.9 29.9 0 0 1 42 53z" fill="#000064" opacity=".15"/><path data-name="opacity" d="M50 37.3c-2.4-.4-4.3-2.9-6.3-5s-3.9-4.1-5.8-6.1-3.9-3.9-6.1-5.8-4.5-3.8-5-6.3 1.8-5.5 6.6-6.4a19.3 19.3 0 0 1 17.2 5.7 19.3 19.3 0 0 1 5.7 17.2c-.8 4.9-4 7.1-6.3 6.7z" fill="#fff" opacity=".25"/><circle data-name="stroke" cx="32" cy="33" r="30" fill="none" stroke="#2e4369" stroke-linecap="round" stroke-linejoin="round" stroke-width="2"/><path data-name="stroke" fill="none" stroke="#2e4369" stroke-linecap="round" stroke-linejoin="round" stroke-width="2" d="M14 21v12h36v12M26 21v24m12-24v24"/></svg>