<svg xmlns="http://www.w3.org/2000/svg" viewBox="0 0 64 64" aria-labelledby="title" aria-describedby="desc"><path data-name="layer2" d="M39 50.2c11 .7 19 3 19 5.8s-11.6 6-26 6-26-2.7-26-6 11.6-6 26-6" fill="#c3d6f9"/><path data-name="opacity" d="M32 50a81.4 81.4 0 0 0-19.6 2.1l19.6 2z" fill="#000032" opacity=".2"/><circle data-name="layer1" cx="32" cy="12" r="10" fill="#f26161"/><path data-name="opacity" d="M34.7 20.2a10 10 0 0 1-6.8-17.3 10 10 0 1 0 10.9 16.4 9.9 9.9 0 0 1-4.1.9z" fill="#000032" opacity=".2"/><circle data-name="stroke" cx="32" cy="12" r="10" fill="none" stroke="#2e4369" stroke-linecap="round" stroke-linejoin="round" stroke-width="2"/><path data-name="stroke" fill="none" stroke="#2e4369" stroke-linecap="round" stroke-linejoin="round" stroke-width="2" d="M32 22v32.1m7-3.9c11 .7 19 3 19 5.8s-11.6 6-26 6-26-2.7-26-6 11.6-6 26-6"/></svg>