<svg xmlns="http://www.w3.org/2000/svg" viewBox="0 0 64 64" aria-labelledby="title" aria-describedby="desc"><path data-name="layer2" d="M34.1 45.9L32 52.1l-2.1-6.2c-14.5.3-25.9 3.8-25.9 8s12.5 8 28 8 28-3.6 28-8-11.4-7.7-25.9-8z" fill="#f26161"/><path data-name="layer1" d="M32 2.1a18 18 0 0 0-4.9 35.3l2.9 8.7 2 6 2-6 2.9-8.7A18 18 0 0 0 32 2.1zm0 26a8 8 0 1 1 8-8 8 8 0 0 1-8 8z" fill="#c3d6f9"/><path data-name="opacity" d="M17 19.1A18 18 0 0 1 27.8 2.6a18 18 0 0 0-.7 34.8l2.9 8.7 2 6-1.9-15.7A18 18 0 0 1 17 19.1z" fill="#000032" opacity=".2"/><path data-name="opacity" d="M32 52.1l-2.1-6.2c-13.2.3-23.8 3.1-25.6 6.8 12.4-.2 17.1-1.6 17.1-1.6z" fill="#000032" opacity=".2"/><path data-name="stroke" d="M50 20.1a18 18 0 1 0-22.9 17.3L32 52.1l4.9-14.7A18 18 0 0 0 50 20.1z" fill="none" stroke="#2e4369" stroke-linecap="round" stroke-linejoin="round" stroke-width="2"/><circle data-name="stroke" cx="32" cy="20.1" r="8" fill="none" stroke="#2e4369" stroke-linecap="round" stroke-linejoin="round" stroke-width="2"/><path data-name="stroke" d="M34.1 45.9c14.5.3 25.9 3.8 25.9 8s-12.5 8-28 8-28-3.6-28-8 11.4-7.7 25.9-8" fill="none" stroke="#2e4369" stroke-linecap="round" stroke-linejoin="round" stroke-width="2"/></svg>