<svg xmlns="http://www.w3.org/2000/svg" viewBox="0 0 64 64" aria-labelledby="title" aria-describedby="desc"><path data-name="layer2" d="M52 46H33.9a23.7 23.7 0 0 0-1.9 9.3 23.6 23.6 0 0 0-1.9-9.3H12L4 62h56z" fill="#fff"/><path data-name="layer1" d="M32 2a16 16 0 0 0-16 16 15.7 15.7 0 0 0 .1 2C17.2 30 26 36.5 30 46a23.6 23.6 0 0 1 2 9.3 23.7 23.7 0 0 1 1.9-9.3c4-9.5 12.8-16 13.9-26a15.5 15.5 0 0 0 .1-2A16 16 0 0 0 32 2zm0 20a4 4 0 1 1 4-4 4 4 0 0 1-4 4z" fill="#f26161"/><path data-name="opacity" d="M32 54.4c0-16.2-11.2-23.9-12.3-37.7-.1-.7-.1-1.4-.1-2.1a22.1 22.1 0 0 1 1.6-8.4A15.9 15.9 0 0 0 16 18a15.7 15.7 0 0 0 .1 2C17.5 32.9 32 40.1 32 55.3z" fill="#000032" opacity=".2"/><path data-name="opacity" d="M30.1 46H12l-1.8 3.6c14.7 1.2 21.7 5.7 21.8 5.8a23.6 23.6 0 0 0-1.9-9.4z" fill="#000032" opacity=".2"/><path data-name="stroke" d="M32 55.3C32 40.1 46.5 32.9 47.9 20a15.6 15.6 0 0 0 .1-2 16 16 0 0 0-32 0 15.7 15.7 0 0 0 .1 2C17.5 32.9 32 40.1 32 55.3z" fill="none" stroke="#2e4369" stroke-linecap="round" stroke-linejoin="round" stroke-width="2"/><circle data-name="stroke" cx="32" cy="18" r="4" fill="none" stroke="#2e4369" stroke-linecap="round" stroke-linejoin="round" stroke-width="2"/><path data-name="stroke" fill="none" stroke="#2e4369" stroke-linecap="round" stroke-linejoin="round" stroke-width="2" d="M33.9 46H52l8 16H4l8-16h18"/></svg>