<svg xmlns="http://www.w3.org/2000/svg" viewBox="0 0 64 64" aria-labelledby="title" aria-describedby="desc"><path data-name="layer1" d="M15.2 15.5A11.738 11.738 0 0 0 7 18.7a10.894 10.894 0 0 0-3.6 8.4 10.7 10.7 0 0 0 2 6.3 7.772 7.772 0 0 0 4 3.5v.1c-1.6.7-2.3 2.3-2.3 4.9a4.879 4.879 0 0 0 2.3 4.5v.1C5 47.9 3 50.6 3 54.6a8.026 8.026 0 0 0 4.4 7.5 17.007 17.007 0 0 0 8.7 1.9c8.6 0 13-3.6 13-10.9 0-4.5-3.3-7.3-10-8.3a5.55 5.55 0 0 1-3.5-1.7 2.593 2.593 0 0 1-.9-1.8c0-1.7.9-2.7 2.8-3a10.5 10.5 0 0 0 7-4 11.937 11.937 0 0 0 2.7-7.8 9.213 9.213 0 0 0-.7-3 15.178 15.178 0 0 0 2.7-.8v-7.2a21.53 21.53 0 0 1-7.7 1.7 12.662 12.662 0 0 0-6.3-1.7zm.8 35c3.9 0 5.9 1.2 5.9 3.6 0 2.5-1.8 3.8-5.4 3.8-4.1 0-6.2-1.2-6.2-3.6 0-2.6 1.9-3.8 5.7-3.8zM15.5 32c-2.9 0-4.4-1.6-4.4-4.8 0-3.5 1.5-5.2 4.4-5.2a3.816 3.816 0 0 1 3.3 1.6 5.779 5.779 0 0 1 1 3.5c0 3.3-1.5 4.9-4.3 4.9zM36.8 0a4.691 4.691 0 0 0-3.5 1.5 5.046 5.046 0 0 0-1.4 3.7 5.24 5.24 0 0 0 1.4 3.6 4.691 4.691 0 0 0 3.5 1.5 4.635 4.635 0 0 0 3.4-1.5 4.82 4.82 0 0 0 1.4-3.6 5.489 5.489 0 0 0-1.4-3.7A4.635 4.635 0 0 0 36.8 0zm3.9 16h-7.9c.1.9 0 2.3 0 4.4v21.8c0 2.2.1 4 0 4.8h7.9a48.141 48.141 0 0 1-.3-5.2V20.3a33.89 33.89 0 0 1 .3-4.3zm17.4 24.3c-2.1 0-3.1-1.6-3.1-4.7V22.7h6V16h-6v-3a18.441 18.441 0 0 1 .3-2.8h-8.1a21.92 21.92 0 0 1 .1 2.9V16h-3.5v6.7c1-.1 1.8-.2 2.4-.2l1.1.1v12.6c0 3.9.5 6.8 1.5 8.6 1.3 2.4 3.6 3.6 7 3.6A12.915 12.915 0 0 0 62 46v-7a6.116 6.116 0 0 1-3.9 1.3z" fill="#2d2d2d"/></svg>