<svg xmlns="http://www.w3.org/2000/svg" viewBox="0 0 64 64" aria-labelledby="title" aria-describedby="desc"><path data-name="layer1" d="M63 32.8l-1.9-1c-2.7-4.2-11.9-18-15.2-20.4a5.8 5.8 0 0 0-6.1-.8C37.4 11.7 36 14.5 36 18a2 2 0 1 0 4 0c0-2.1.7-3.5 1.5-3.8a2 2 0 0 1 1.9.5c1.8 1.4 7.1 8.7 11.4 15.2-5.4-1.2-12.8-1.2-19.6 4.2h-6.5c-6.8-5.3-14.1-5.3-19.6-4.2 4.4-6.5 9.6-13.8 11.4-15.2a2 2 0 0 1 1.9-.5c.7.4 1.5 1.7 1.5 3.8a2 2 0 1 0 4 0c0-3.5-1.4-6.3-3.7-7.4a5.7 5.7 0 0 0-6.1.8C14.9 13.9 5.8 27.6 3 31.8l-2 1a2 2 0 0 0 1 3.7c.1 3.5.9 9.6 4.6 13.6A12.3 12.3 0 0 0 16 54a12.8 12.8 0 0 0 9.9-4c3.4-3.7 4.1-9.1 4.2-12H34c.1 3 .7 8.3 4.2 12a12.8 12.8 0 0 0 9.8 4 12.3 12.3 0 0 0 9.4-3.9c3.7-4 4.5-10.1 4.6-13.6a2 2 0 0 0 .9-3.7z" fill="#202020"/></svg>