<svg xmlns="http://www.w3.org/2000/svg" viewBox="0 0 64 64" aria-labelledby="title" aria-describedby="desc"><path data-name="layer1" d="M37.2 36.978c-6.5-4.61-9-6.814-4.8-10.522s7.5-6.714 7.5-13.528-5.7-10.321-5.7-10.321 4.1.6 6.3-.6a18.315 18.315 0 0 0 3.1-2H22.8C18.7-.1 7.1 4.611 7.1 15.734s12 13.428 16.4 13.227c-2.4 3.006-.4 5.712 1 7.115 1.3 1.4 1 1.8-.5 1.8-1.7.1-21 .3-21 14.129s25.7 14.831 34.1 7.415c8.5-7.511 6.6-17.732.1-22.442zM24.8 26.256c-10.3 0-15-24.25-2.8-24.25 9.5-.301 16.6 24.25 2.8 24.25zm-1.2 33.97c-8.6 0-13.2-4.309-13.2-10.722s6.3-9.62 18-9.62c3.2 2.505 8.9 5.411 8.9 11.424s-5.1 8.918-13.7 8.918zM55.2 7.918V.1h-4.1v7.818h-8v4.108h8v7.916h4.1v-7.916H63V7.918z" fill="#202020"/></svg>