<svg viewBox="0 0 64 64" xmlns="http://www.w3.org/2000/svg" aria-labelledby="title" aria-describedby="desc"><path d="M42 2.1L22 9.5 2 2.1v38.5l12.5 3.2L48 28.1 43.3 38l.8-.2L62 44.1V9.5L42 2.1z" fill="#c3d6f9" data-name="layer2"/><path d="M14.5 43.8l14.2 3.6L32 60.1 43.3 38l4.7-9.9-33.5 15.7z" fill="#ffe8ba" data-name="layer1"/><path d="M14.5 43.8l14.2 3.6L48 28.1 14.5 43.8z" opacity=".2" fill="#000032" data-name="opacity"/><path d="M2 2.1v38.5l12.5 3.2 7.5-3.5V9.5L2 2.1zm40-.2v28.9l6-2.9-4.7 10 .8-.2L62 43.9V9.4L42 1.9z" opacity=".2" fill="#000032" data-name="opacity"/><path d="M14.5 43.7L2 40.6V2l20 7.4L42 2l20 7.4V44l-17.9-6.2M42 30V2M22 40V9.4" stroke-width="2" stroke-miterlimit="10" stroke-linecap="round" stroke="#2e4369" fill="none" data-name="stroke" stroke-linejoin="round"/><path d="M28.7 47.3L32 60l16-32-33.5 15.7 14.2 3.6z" stroke-width="2" stroke-miterlimit="10" stroke-linecap="round" stroke="#2e4369" fill="none" data-name="stroke" stroke-linejoin="round"/></svg>