<svg xmlns="http://www.w3.org/2000/svg" viewBox="0 0 64 64" aria-labelledby="title" aria-describedby="desc"><path data-name="layer1" d="M33.4 64h-2.9c-1.3-.1-2.508-.2-3.812-.4a30.743 30.743 0 0 1-9.429-3.1A32.17 32.17 0 0 1 0 33.6v-3.1c0-.6.1-1.1.1-1.7a28.92 28.92 0 0 1 1.5-7.1A30.966 30.966 0 0 1 12.74 6.4 32.211 32.211 0 0 1 30.5 0h3c1.3.1 2.508.2 3.812.4a30.921 30.921 0 0 1 9.429 3.2 31.814 31.814 0 0 1 12.143 10.9A29.92 29.92 0 0 1 64 30.4v3.1c-.1 1.3-.2 2.5-.4 3.8a30.514 30.514 0 0 1-3.11 9.4 31.5 31.5 0 0 1-10.934 12A31.811 31.811 0 0 1 33.5 63.9c0 .1 0 .1-.1.1zM32 6.6h-1a25.329 25.329 0 0 0-5.517.8 26.316 26.316 0 0 0-11.335 6.5 24.9 24.9 0 0 0-6.624 11.3 26.256 26.256 0 0 0-.9 7.4 14.874 14.874 0 0 0 .2 2.1 3.41 3.41 0 0 0 2.906 2.7 5.349 5.349 0 0 0 3.009-.5 11.485 11.485 0 0 0 3.812-2.7 13.112 13.112 0 0 0 3.11-5 21.921 21.921 0 0 0 1.2-7.6c0-1.3-.1-2.6-.2-4-.1-1.2-.3-2.5-.4-3.7-.1-.5.1-.7.6-.5a5.668 5.668 0 0 1 1.2.4 25.319 25.319 0 0 1 7.624 3.6 47.846 47.846 0 0 1 8.527 7.7 74.236 74.236 0 0 1 6.52 8.3 19.959 19.959 0 0 0 3.411 3.7 10.223 10.223 0 0 0 4.313 2.1 3.3 3.3 0 0 0 3.611-1.6 6.208 6.208 0 0 0 .9-2.6 19.483 19.483 0 0 0 .1-5.4 23.9 23.9 0 0 0-1.3-5.9 25.039 25.039 0 0 0-7.917-11.3A23.5 23.5 0 0 0 32 6.6z" fill="#202020"/></svg>