<svg xmlns="http://www.w3.org/2000/svg" viewBox="0 0 64 64" aria-labelledby="title" aria-describedby="desc"><path data-name="layer2" fill="#202020" d="M54 28.6v-22H42v22l6-4 6 4z"/><path data-name="layer1" d="M24 10.6H2v44h22a8 8 0 0 1 6 2.7v-44a8 8 0 0 0-6-2.7zm0 36H10a2 2 0 0 1 0-4h14a2 2 0 0 1 0 4zm0-8H10a2 2 0 0 1 0-4h14a2 2 0 0 1 0 4zm0-8H10a2 2 0 0 1 0-4h14a2 2 0 0 1 0 4zm0-8H10a2 2 0 0 1 0-4h14a2 2 0 0 1 0 4zm34-12v25.5L51.8 32 48 29.4 44.3 32l-4 2.7H54a2 2 0 0 1 0 4H40a2 2 0 0 1-2-2 2 2 0 0 1 .1-.6H38V10.9a8 8 0 0 0-4 2.5v44a8 8 0 0 1 6-2.7h22v-44zm-4 36H40a2 2 0 0 1 0-4h14a2 2 0 0 1 0 4z" fill="#202020"/></svg>