<svg xmlns="http://www.w3.org/2000/svg" viewBox="0 0 64 64" aria-labelledby="title" aria-describedby="desc"><path data-name="layer1" d="M54.524 11.518L44.981 2.3C43.39.9 42.794 0 41.1 0H9.591A1.566 1.566 0 0 0 8 1.6v49.28a6.046 6.046 0 0 0 1.591 3.305l8.251 8.215c1.59 1.6 1.59 1.6 3.28 1.6h31.911a1.68 1.68 0 0 0 .7-.1 1.834 1.834 0 0 0 1.193-1.8V12.92a1.289 1.289 0 0 0-.402-1.402zM11.281 47.674V4.908c0-1.6 0-1.6 1.69-1.6h9.543c1.69 0 1.69 0 1.69 1.6v13.12c0 1.6.4 1.6 2.088 1.6s2.088 0 2.088-1.6V4.908c0-1.6 0-1.6 1.69-1.6h9.543c1.69 0 1.69 0 1.69 1.6v42.766c0 1.6 0 1.6-1.69 1.6h-9.544c-1.69 0-1.69 0-1.69-1.6v-13.12c0-1.6-.4-1.6-2.088-1.6s-2.088 0-2.088 1.6v13.12c0 1.6 0 1.6-1.69 1.6h-9.542c-1.69.003-1.69.003-1.69-1.6zm20.677 13.121h-9.941c-.8 0-.8 0-1.69-.8l-6.661-6.61c-.8-.8-.8-.8 0-.8h9.941c.8 0 .8 0 1.69.8l6.561 6.61c.895.8.895.8.1.8zm16.5 0h-9.939c-.8 0-.8 0-1.69-.8l-6.661-6.61c-.8-.8-.8-.8 0-.8h9.942c.8 0 .8 0 1.69.8l3.479 3.405 3.778 3.906c0 .099-.199.099-.597.099zm3.281-3.205l-7.356-7.512V7.111l7.356 7.011z" fill="#202020"/></svg>