<svg xmlns="http://www.w3.org/2000/svg" viewBox="0 0 64 64" aria-labelledby="title" aria-describedby="desc"><path data-name="layer1" d="M35.9 15.9a2 2 0 0 0 2-2v-8a2 2 0 1 0-4 0v8a2 2 0 0 0 2 2zm-20 20a2 2 0 0 0-2-2h-8a2 2 0 0 0 0 4h8a2 2 0 0 0 2-2zm3-14.1a2 2 0 1 0 2.8-2.8L16 13.3a2 2 0 0 0-2.8 2.8z" fill="#202020"/><path data-name="layer2" d="M59.5 14.3a2 2 0 0 0-2.8 0L14.3 56.7a2 2 0 1 0 2.8 2.8l42.4-42.4a2 2 0 0 0 0-2.8z" fill="#202020"/><path data-name="layer1" d="M21.9 43.6l21.7-21.7a16 16 0 0 0-21.7 21.7z" fill="#202020"/></svg>