<svg xmlns="http://www.w3.org/2000/svg" viewBox="0 0 64 64" aria-labelledby="title" aria-describedby="desc"><rect data-name="layer2" x="12" y="16" width="40" height="42" rx="3" ry="3" fill="#74bee2"/><path data-name="layer1" fill="#7b8baf" d="M24 36h16v22H24z"/><path data-name="opacity" d="M18 52V16h-3a3 3 0 0 0-3 3v36a3 3 0 0 0 3 3h34a3 3 0 0 0 3-3H21a3 3 0 0 1-3-3z" fill="#000064" opacity=".15"/><path data-name="stroke" fill="none" stroke="#2e4369" stroke-linecap="round" stroke-linejoin="round" stroke-width="2" d="M21 25h24m-22 4v-4m-4 34v4m28-4v4M27 3v14M39 3v14M25 3h16"/><rect data-name="stroke" x="13" y="17" width="40" height="42" rx="3" ry="3" fill="none" stroke="#2e4369" stroke-linecap="round" stroke-linejoin="round" stroke-width="2"/><path data-name="stroke" fill="none" stroke="#2e4369" stroke-linecap="round" stroke-linejoin="round" stroke-width="2" d="M25 59V37h16v22"/></svg>