<svg xmlns="http://www.w3.org/2000/svg" viewBox="0 0 64 64" aria-labelledby="title" aria-describedby="desc"><path data-name="layer2" d="M60.5 31a7.5 7.5 0 0 1-6 3 7.4 7.4 0 0 1-5.8-2.7 7.5 7.5 0 0 0-11 0 7.5 7.5 0 0 1-11.5.1 7.5 7.5 0 0 0-11.1 0A7.5 7.5 0 0 1 3.5 31L10 62h44z" fill="#83edff"/><path data-name="layer2" d="M54.5 34a7.4 7.4 0 0 1-5.7-2.7c-.9 2.3-1.8 3.9-2.1 4.5s-2.2 6.3-5 5C36.7 38.6 43 30 43 30L25.8 48.4a3 3 0 1 1-4.4-4.1l10.2-11.8-13.5 12.6a3 3 0 1 1-4.2-4.2l3.1-3a3 3 0 0 1-2.7-5.1l.8-.8a7.4 7.4 0 0 1-5.6 2 7.5 7.5 0 0 1-6-3L10 62h44l6.5-31a7.5 7.5 0 0 1-6 3z" fill="#83edff"/><path data-name="layer1" d="M45 2c-4.4 4-5 4.8-6 5a24.3 24.3 0 0 0-10.5 5.8L16 24.8a3.6 3.6 0 0 0 .1 4.7l1 .7-2.9 2.6a3 3 0 0 0 2.8 5l-3.1 3a3 3 0 1 0 4.2 4.2l13.5-12.5-10.2 11.8a3 3 0 1 0 4.4 4.1L43 30s-6.3 8.6-1.4 10.9c2.9 1.3 4.3-3.6 5-5S51.5 26.5 52 18c0-.8 1.7-2.1 6-6z" fill="#ffe2cc"/><path data-name="opacity" d="M17.1 30.1l-2.9 2.6a3 3 0 0 0 2.8 5.1l-3.1 3a3 3 0 1 0 4.2 4.2l12.1-11.2a7.5 7.5 0 0 1-3.9-2.4 7.5 7.5 0 0 0-9.4-1.4h.2zM54.5 34a7.4 7.4 0 0 1-5.7-2.7l-.7-.7-.2-.2a7.5 7.5 0 0 0-1.8-1h-.2a7.5 7.5 0 0 0-8.1 1.9A7.5 7.5 0 0 1 32 34l-1.6-.2-9 10.4a3 3 0 1 0 4.4 4.1L43 30s-6.3 8.6-1.4 10.9a2.1 2.1 0 0 0 2.2-.3L42.1 62h8.1l5.3-28.1z" fill="#fff" opacity=".5"/><path data-name="opacity" d="M9.5 34a7.5 7.5 0 0 1-6-3L10 62h3.9l-3.1-28.1z" fill="#000064" opacity=".15"/><path data-name="stroke" fill="none" stroke="#2e4369" stroke-linecap="round" stroke-miterlimit="10" stroke-width="2" d="M2 24l8 38h44l8-38" stroke-linejoin="round"/><path data-name="stroke" d="M15.1 32a7.4 7.4 0 0 1-5.6 2 7.5 7.5 0 0 1-6-3m57 0a7.5 7.5 0 0 1-6 3 7.4 7.4 0 0 1-5.8-2.7m-16.5.6L18.1 45.1a3 3 0 0 1-4.2 0 3 3 0 0 1 0-4.2l14.1-14" fill="none" stroke="#2e4369" stroke-linecap="round" stroke-miterlimit="10" stroke-width="2" stroke-linejoin="round"/><path data-name="stroke" d="M32 32L21.4 44.3a3 3 0 0 0 .1 4.2 3 3 0 0 0 4.2-.1L43 30s-6.3 8.6-1.4 10.9c2.9 1.3 4.3-3.6 5-5S51.5 26.5 52 18c0-.8 1.7-2.1 6-6M17.1 30.1l-1-.7a3.6 3.6 0 0 1-.1-4.7l12.5-12A24.3 24.3 0 0 1 39 7c1-.2 1.6-1 6-5M17 37.8a3 3 0 0 1-2.7-.8 3 3 0 0 1 0-4.2L26 22" fill="none" stroke="#2e4369" stroke-linecap="round" stroke-miterlimit="10" stroke-width="2" stroke-linejoin="round"/></svg>