<svg xmlns="http://www.w3.org/2000/svg" viewBox="0 0 64 64" aria-labelledby="title" aria-describedby="desc"><path data-name="layer2" fill="none" stroke="#202020" stroke-linecap="round" stroke-miterlimit="10" stroke-width="2" d="M2 24l8 38h44l8-38" stroke-linejoin="round"/><path data-name="layer2" d="M15.1 32a7.4 7.4 0 0 1-5.6 2 7.5 7.5 0 0 1-6-3m57 0a7.5 7.5 0 0 1-6 3 7.4 7.4 0 0 1-5.8-2.7" fill="none" stroke="#202020" stroke-linecap="round" stroke-miterlimit="10" stroke-width="2" stroke-linejoin="round"/><path data-name="layer1" d="M32.2 31.9L18.1 45.1a3 3 0 0 1-4.2 0 3 3 0 0 1 0-4.2l14.1-14" fill="none" stroke="#202020" stroke-linecap="round" stroke-miterlimit="10" stroke-width="2" stroke-linejoin="round"/><path data-name="layer1" d="M32 32L21.4 44.3a3 3 0 0 0 .1 4.2 3 3 0 0 0 4.2-.1L43 30s-6.3 8.6-1.4 10.9c2.9 1.3 4.3-3.6 5-5S51.5 26.5 52 18c0-.8 1.7-2.1 6-6M17.1 30.1l-1-.7a3.6 3.6 0 0 1-.1-4.7l12.5-12A24.3 24.3 0 0 1 39 7c1-.2 1.6-1 6-5M17 37.8a3 3 0 0 1-2.7-.8 3 3 0 0 1 0-4.2L26 22" fill="none" stroke="#202020" stroke-linecap="round" stroke-miterlimit="10" stroke-width="2" stroke-linejoin="round"/></svg>