<svg xmlns="http://www.w3.org/2000/svg" viewBox="0 0 64 64" aria-labelledby="title" aria-describedby="desc"><path data-name="layer1" d="M58.9 47l-10.4-6.8a4.8 4.8 0 0 0-6.5 1.3c-2.4 2.9-5.3 7.7-16.2-3.2S19.6 24.4 22.5 22a4.8 4.8 0 0 0 1.3-6.5L17 5.1c-.9-1.3-2.1-3.4-4.9-3S2 6.6 2 15.6s7.1 20 16.8 29.7S39.5 62 48.4 62s13.2-8 13.5-10-1.7-4.1-3-5z" fill="#f27e7c"/><path data-name="opacity" d="M50.4 57c-9 0-20-7.1-29.7-16.8S4 19.5 4 10.6A14.1 14.1 0 0 1 4.2 8 13.6 13.6 0 0 0 2 15.6c0 9 7.1 20 16.8 29.7S39.5 62 48.4 62s13.2-8 13.5-10a4.5 4.5 0 0 0 0-1 14.1 14.1 0 0 1-11.5 6z" fill="#000064" opacity=".15"/><path data-name="stroke" d="M58.9 47l-10.4-6.8a4.8 4.8 0 0 0-6.5 1.3c-2.4 2.9-5.3 7.7-16.2-3.2S19.6 24.4 22.5 22a4.8 4.8 0 0 0 1.3-6.5L17 5.1c-.9-1.3-2.1-3.4-4.9-3S2 6.6 2 15.6s7.1 20 16.8 29.7S39.5 62 48.4 62s13.2-8 13.5-10-1.7-4.1-3-5zM38 14h24" fill="none" stroke="#2e4369" stroke-linecap="round" stroke-miterlimit="10" stroke-width="2" stroke-linejoin="round"/></svg>