<svg xmlns="http://www.w3.org/2000/svg" viewBox="0 0 64 64" aria-labelledby="title" aria-describedby="desc"><circle data-name="layer2" cx="32" cy="26" r="3" fill="#202020"/><path data-name="layer1" d="M54 2H10a2 2 0 0 0-2 2v56a2 2 0 0 0 2 2h44a2 2 0 0 0 2-2V4a2 2 0 0 0-2-2zM32 42a15.9 15.9 0 0 1-9.8-3.4l-4.1 4.1 17.9 8V56H14V44a.7.7 0 0 1 0-.1v-2.7l5.4-5.4A16 16 0 1 1 32 42z" fill="#202020"/><path data-name="layer1" d="M24.6 30.6l-3.2 3.2a14.1 14.1 0 0 0 2.8 2.8l3.2-3.2a2 2 0 1 0-2.8-2.8z" fill="#202020"/></svg>