<svg xmlns="http://www.w3.org/2000/svg" viewBox="0 0 64 64" aria-labelledby="title" aria-describedby="desc"><path data-name="layer2" d="M2 56a6 6 0 0 0 6 6h8a6 6 0 0 0 6-6v-6H2z" fill="#9cf"/><path data-name="layer3" fill="#ffc849" d="M2 42h20v8H2z"/><path data-name="layer2" d="M22 10a6 6 0 0 1-6 6H8a6 6 0 0 1-6-6v32h20z" fill="#9cf"/><path data-name="layer1" d="M8 16h8a6 6 0 0 0 6-6V2c0 3.3-2.7 4-6 4H8c-3.3 0-6-.7-6-4v8a6 6 0 0 0 6 6z" fill="#eaf7ff"/><path data-name="opacity" d="M8 16a6 6 0 0 1-6-6v46a6 6 0 0 0 6 6V16zm14-6V2c0 3.3-2.7 4-6 4v10a6 6 0 0 0 6-6z" fill="#000064" opacity=".15"/><path data-name="layer2" d="M22 56a6 6 0 0 0 6 6h8a6 6 0 0 0 6-6v-6H22z" fill="#9cf"/><path data-name="layer3" fill="#ffc849" d="M22 42h20v8H22z"/><path data-name="layer2" d="M42 10a6 6 0 0 1-6 6h-8a6 6 0 0 1-6-6v32h20z" fill="#9cf"/><path data-name="layer1" d="M28 16h8a6 6 0 0 0 6-6V2c0 3.3-2.7 4-6 4h-8c-3.3 0-6-.7-6-4v8a6 6 0 0 0 6 6z" fill="#eaf7ff"/><path data-name="opacity" d="M28 16a6 6 0 0 1-6-6v46a6 6 0 0 0 6 6V16zm14-6V2c0 3.3-2.7 4-6 4v10a6 6 0 0 0 6-6z" fill="#000064" opacity=".15"/><path data-name="layer2" d="M42 56a6 6 0 0 0 6 6h8a6 6 0 0 0 6-6v-6H42z" fill="#9cf"/><path data-name="layer3" fill="#ffc849" d="M42 42h20v8H42z"/><path data-name="layer2" d="M62 10a6 6 0 0 1-6 6h-8a6 6 0 0 1-6-6v32h20z" fill="#9cf"/><path data-name="layer1" d="M48 16h8a6 6 0 0 0 6-6V2c0 3.3-2.7 4-6 4h-8c-3.3 0-6-.7-6-4v8a6 6 0 0 0 6 6z" fill="#eaf7ff"/><path data-name="opacity" d="M48 16a6 6 0 0 1-6-6v46a6 6 0 0 0 6 6V16zm14-6V2c0 3.3-2.7 4-6 4v10a6 6 0 0 0 6-6z" fill="#000064" opacity=".15"/><path data-name="stroke" fill="none" stroke="#2e4369" stroke-linecap="round" stroke-miterlimit="10" stroke-width="2" d="M2 42h60M2 50h60M22 2v54a6 6 0 0 1-6 6H8a6 6 0 0 1-6-6V2" stroke-linejoin="round"/><path data-name="stroke" d="M22 10a6 6 0 0 1-6 6H8a6 6 0 0 1-6-6m40-8v54a6 6 0 0 1-6 6h-8a6 6 0 0 1-6-6" fill="none" stroke="#2e4369" stroke-linecap="round" stroke-miterlimit="10" stroke-width="2" stroke-linejoin="round"/><path data-name="stroke" d="M42 10a6 6 0 0 1-6 6h-8a6 6 0 0 1-6-6m40-8v54a6 6 0 0 1-6 6h-8a6 6 0 0 1-6-6" fill="none" stroke="#2e4369" stroke-linecap="round" stroke-miterlimit="10" stroke-width="2" stroke-linejoin="round"/><path data-name="stroke" d="M62 10a6 6 0 0 1-6 6h-8a6 6 0 0 1-6-6M22 2c0 3.3-2.7 4-6 4H8c-3.3 0-6-.7-6-4m40 0c0 3.3-2.7 4-6 4h-8c-3.3 0-6-.7-6-4m40 0c0 3.3-2.7 4-6 4h-8c-3.3 0-6-.7-6-4" fill="none" stroke="#2e4369" stroke-linecap="round" stroke-miterlimit="10" stroke-width="2" stroke-linejoin="round"/></svg>