<svg xmlns="http://www.w3.org/2000/svg" viewBox="0 0 64 64" aria-labelledby="title" aria-describedby="desc"><rect data-name="layer1" x="8" y="2" width="48" height="60" rx="2" ry="2" fill="#8fa9d8"/><path data-name="layer2" fill="#c0cfe9" d="M16 54h18v-2l-18-8v10z"/><path data-name="opacity" fill="#000064" opacity=".14" d="M16 54v-6l-3-1v10h18v-3H16z"/><circle data-name="layer2" cx="32" cy="26" r="16" fill="#c0cfe9"/><path data-name="opacity" d="M32 42a16 16 0 0 1-12.7-25.7 16 16 0 1 0 22.4 22.4A15.9 15.9 0 0 1 32 42z" fill="#000064" opacity=".14"/><circle data-name="layer1" cx="32" cy="26" r="2" fill="#8fa9d8"/><path data-name="stroke" fill="none" stroke="#2e4369" stroke-linecap="round" stroke-linejoin="round" stroke-width="2" d="M26 32L16 42v12h18v-2l-18-8"/><rect data-name="stroke" x="8" y="2" width="48" height="60" rx="2" ry="2" fill="none" stroke="#2e4369" stroke-linecap="round" stroke-linejoin="round" stroke-width="2"/><circle data-name="stroke" cx="32" cy="26" r="16" fill="none" stroke="#2e4369" stroke-linecap="round" stroke-linejoin="round" stroke-width="2"/><circle data-name="stroke" cx="32" cy="26" r="2" fill="none" stroke="#2e4369" stroke-linecap="round" stroke-linejoin="round" stroke-width="2"/></svg>