<svg xmlns="http://www.w3.org/2000/svg" viewBox="0 0 64 64" aria-labelledby="title" aria-describedby="desc"><path data-name="layer2" d="M33 6h-2a18.5 18.5 0 0 0-16.7 10.3c2.8 2.8 4.4.4 4.4.4A14.7 14.7 0 0 1 31.2 10h1.6a14.7 14.7 0 0 1 12.5 6.7s2.2 3.5 4.9.7A18.5 18.5 0 0 0 33 6z" fill="#8fa9d8"/><path data-name="layer1" fill="#536897" d="M12 36h5v20h-5z"/><path data-name="layer2" d="M5.6 36A3.6 3.6 0 0 0 2 39.6v12.8A3.6 3.6 0 0 0 5.6 56H12V36zm52.8 0H52v20h6.4a3.6 3.6 0 0 0 3.6-3.6V39.6a3.6 3.6 0 0 0-3.6-3.6z" fill="#8fa9d8"/><path data-name="layer1" fill="#536897" d="M47 36h5v20h-5z"/><path data-name="opacity" d="M5.6 51A3.6 3.6 0 0 1 2 47.4v5A3.6 3.6 0 0 0 5.6 56H17v-5H5.6zm52.8 0H47v5h11.4a3.6 3.6 0 0 0 3.6-3.6v-5a3.6 3.6 0 0 1-3.6 3.6z" fill="#000064" opacity=".15"/><path data-name="stroke" d="M12 36V26c0-11 8-20 19-20h2c11 0 19 9 19 20v10" fill="none" stroke="#2e4369" stroke-linecap="round" stroke-miterlimit="10" stroke-width="2" stroke-linejoin="round"/><path data-name="stroke" d="M14.3 16.3c2.8 2.8 4.4.4 4.4.4A14.7 14.7 0 0 1 31.2 10h1.6a14.7 14.7 0 0 1 12.5 6.7s2.2 3.5 4.9.7M17 56H5.6A3.6 3.6 0 0 1 2 52.4V39.6A3.6 3.6 0 0 1 5.6 36H17zm30 0h11.4a3.6 3.6 0 0 0 3.6-3.6V39.6a3.6 3.6 0 0 0-3.6-3.6H47z" fill="none" stroke="#2e4369" stroke-linecap="round" stroke-miterlimit="10" stroke-width="2" stroke-linejoin="round"/></svg>