<svg xmlns="http://www.w3.org/2000/svg" viewBox="0 0 64 64" aria-labelledby="title" aria-describedby="desc"><circle data-name="layer2" cx="32" cy="32" r="30" fill="none" stroke="#202020" stroke-linecap="round" stroke-miterlimit="10" stroke-width="2" stroke-linejoin="round"/><path data-name="layer1" d="M47 27h-9a1 1 0 0 1-1-1v-9a1 1 0 0 0-1-1h-8a1 1 0 0 0-1 1v9a1 1 0 0 1-1 1h-9a1 1 0 0 0-1 1v8a1 1 0 0 0 1 1h9a1 1 0 0 1 1 1v9a1 1 0 0 0 1 1h8a1 1 0 0 0 1-1v-9a1 1 0 0 1 1-1h9a1 1 0 0 0 1-1v-8a1 1 0 0 0-1-1z" fill="none" stroke="#202020" stroke-linecap="round" stroke-miterlimit="10" stroke-width="2" stroke-linejoin="round"/></svg>