<svg xmlns="http://www.w3.org/2000/svg" viewBox="0 0 64 64" aria-labelledby="title" aria-describedby="desc"><path data-name="layer2" d="M61 7H3a3.009 3.009 0 0 0-3 3v46a3.009 3.009 0 0 0 3 3h58a3.009 3.009 0 0 0 3-3V10a3.009 3.009 0 0 0-3-3zm-3 48H43a1 1 0 0 1 0-2h15a1 1 0 0 1 0 2zm1-6H5V12h54z" fill="#202020"/><path data-name="layer1" d="M17 25c3.167-1.926 5-3.852 5-5.778A2.373 2.373 0 0 0 19.5 17a2.716 2.716 0 0 0-2.5 1.481A2.716 2.716 0 0 0 14.5 17a2.373 2.373 0 0 0-2.5 2.222c0 1.926 1.833 3.852 5 5.778zm2.321 10.249l2.611-3.763 3.4 4.758a2.02 2.02 0 0 0 1.72.834 1.994 1.994 0 0 0 1.635-.99l5.082-8.713 5.427 13.18a2.006 2.006 0 0 0 1.777 1.238h.072a2 2 0 0 0 1.789-1.105L45.927 35H57v-3H45.309a1.992 1.992 0 0 0-1.789 1.105l-2.388 4.275-5.36-13.015a2 2 0 0 0-3.578-.248l-5.321 9.124-3.273-4.576a2 2 0 0 0-3.188-.085L17.279 33H7v3h10.76a1.99 1.99 0 0 0 1.561-.751zM46 25a3 3 0 0 0 0-6 2.956 2.956 0 0 0-.4.04A1.837 1.837 0 0 1 47.019 18 1 1 0 0 0 47 16c-.04 0-4 .069-4 6a3 3 0 0 0 3 3zm0-4a1 1 0 1 1-1 1 1 1 0 0 1 1-1zm6 4a1 1 0 0 0 1-1v-7a1 1 0 0 0-2 0v7a1 1 0 0 0 1 1z" fill="#202020"/></svg>