<svg xmlns="http://www.w3.org/2000/svg" viewBox="0 0 64 64" aria-labelledby="title" aria-describedby="desc"><path data-name="layer1" d="M54.132 37.978c-7.756 12.073-22.055 20.058-22.055 20.058S18.218 50.34 10.33 39L7.9 35A23.91 23.91 0 0 1 5 24C5 5.04 28 5 32 19c4-14 27-14 27 4a25.548 25.548 0 0 1-2.644 11z" fill="#f4475d"/><path data-name="opacity" d="M44.309 34a.5.5 0 0 0-.447.276l-3.371 6.741a.5.5 0 0 1-.91-.033l-6.2-15.049a.5.5 0 0 0-.894-.062l-6.1 10.459a.5.5 0 0 1-.839.039l-4.166-5.833a.5.5 0 0 0-.8-.022l-3.437 4.3a.5.5 0 0 1-.39.188h-3.7A26.709 26.709 0 0 1 11 25c0-11.183 6.816-15.779 13.106-14.8C16 6.83 5 10.888 5 24a23.908 23.908 0 0 0 2.9 11l2.429 4c7.889 11.34 21.748 19.036 21.748 19.036s.113-.063.312-.179C28.893 55.294 20.713 48.729 15.541 40l-.55-1.063a.5.5 0 0 0 .159-.127l3.437-4.3a.5.5 0 0 1 .8.022l4.166 5.833a.5.5 0 0 0 .839-.039l6.1-10.459a.5.5 0 0 1 .894.062l6.2 15.049a.5.5 0 0 0 .91.033l3.371-6.741a.5.5 0 0 1 .442-.27h11.809l.015-.022L56.356 34H44.309z" fill="#000064" opacity=".16"/><path data-name="opacity" d="M52.864 15.136c-6.371-6.128-14.074-1.8-12.7.6 1.037 2.3 4.48 3.763 6.173 5.928 2.164 1.693 3.624 5.136 5.928 6.173 2.398 1.372 6.727-6.331.599-12.701z" fill="#fff" opacity=".25"/><path data-name="stroke" d="M54.132 37.978c-7.756 12.073-22.055 20.058-22.055 20.058S18.218 50.34 10.33 39M7.9 35A23.91 23.91 0 0 1 5 24C5 5.04 28 5 32 19c4-14 27-14 27 4a25.548 25.548 0 0 1-2.644 11" fill="none" stroke="#2e4369" stroke-linecap="round" stroke-miterlimit="10" stroke-width="2" stroke-linejoin="round"/><path data-name="stroke" d="M2 35h14.76a.5.5 0 0 0 .39-.188l3.437-4.3a.5.5 0 0 1 .8.022l4.166 5.833a.5.5 0 0 0 .839-.039l6.1-10.459a.5.5 0 0 1 .894.062l6.2 15.049a.5.5 0 0 0 .91.033l3.371-6.741a.5.5 0 0 1 .442-.272H62" fill="none" stroke="#2e4369" stroke-linecap="round" stroke-miterlimit="10" stroke-width="2" stroke-linejoin="round"/></svg>