<svg xmlns="http://www.w3.org/2000/svg" viewBox="0 0 64 64" aria-labelledby="title" aria-describedby="desc"><rect data-name="layer3" x="2" y="7" width="60" height="50" rx="3" ry="3" fill="#536897"/><path data-name="opacity" d="M7 53a1 1 0 0 1-1-1V7H5a3.009 3.009 0 0 0-3 3v44a3.009 3.009 0 0 0 3 3h54a3.009 3.009 0 0 0 3-3v-1z" fill="#000064" opacity=".16"/><path data-name="layer2" fill="#9cf" d="M7 12h50v35H7z"/><path data-name="layer1" d="M19.5 17a2.716 2.716 0 0 0-2.5 1.481A2.716 2.716 0 0 0 14.5 17a2.373 2.373 0 0 0-2.5 2.222c0 1.926 1.833 3.852 5 5.778 3.167-1.926 5-3.852 5-5.778A2.373 2.373 0 0 0 19.5 17z" fill="#f4475d"/><path data-name="opacity" d="M7 12v3h47v18h-8.691a.5.5 0 0 0-.447.276l-3.371 6.741a.5.5 0 0 1-.91-.033l-6.2-15.049a.5.5 0 0 0-.894-.062l-6.1 10.459a.5.5 0 0 1-.839.039l-4.166-5.833a.5.5 0 0 0-.8-.022l-3.437 4.3a.5.5 0 0 1-.39.188H7v4h10.76a.5.5 0 0 0 .39-.188l3.437-4.3a.5.5 0 0 1 .8.022l4.166 5.833a.5.5 0 0 0 .839-.039l6.1-10.459a.5.5 0 0 1 .894.062l6.2 15.049a.5.5 0 0 0 .91.033l3.371-6.741a.5.5 0 0 1 .442-.276H54v10h3V12z" fill="#000064" opacity=".16"/><path data-name="stroke" d="M7 34h10.76a.5.5 0 0 0 .39-.188l3.437-4.3a.5.5 0 0 1 .8.022l4.166 5.833a.5.5 0 0 0 .839-.039l6.1-10.459a.5.5 0 0 1 .894.062l6.2 15.049a.5.5 0 0 0 .91.033l3.371-6.741a.5.5 0 0 1 .442-.272H57" fill="none" stroke="#2e4369" stroke-linecap="round" stroke-miterlimit="10" stroke-width="2" stroke-linejoin="round"/><rect data-name="stroke" x="2" y="7" width="60" height="50" rx="3" ry="3" fill="none" stroke="#2e4369" stroke-linecap="round" stroke-miterlimit="10" stroke-width="2" stroke-linejoin="round"/><path data-name="stroke" fill="none" stroke="#2e4369" stroke-linecap="round" stroke-miterlimit="10" stroke-width="2" d="M7 12h50v35H7zm50 40H42" stroke-linejoin="round"/><path data-name="stroke" d="M19.5 17a2.716 2.716 0 0 0-2.5 1.481A2.716 2.716 0 0 0 14.5 17a2.373 2.373 0 0 0-2.5 2.222c0 1.926 1.833 3.852 5 5.778 3.167-1.926 5-3.852 5-5.778A2.373 2.373 0 0 0 19.5 17zM47 17s-3 0-3 5" fill="none" stroke="#2e4369" stroke-linecap="round" stroke-miterlimit="10" stroke-width="2" stroke-linejoin="round"/><circle data-name="stroke" cx="46" cy="22" r="2" fill="none" stroke="#2e4369" stroke-linecap="round" stroke-miterlimit="10" stroke-width="2" stroke-linejoin="round"/><path data-name="stroke" fill="none" stroke="#2e4369" stroke-linecap="round" stroke-miterlimit="10" stroke-width="2" d="M52 17v7" stroke-linejoin="round"/></svg>