<svg xmlns="http://www.w3.org/2000/svg" viewBox="0 0 64 64" aria-labelledby="title" aria-describedby="desc"><path data-name="layer2" d="M49 12h-.5a17 17 0 0 0-32.3 4.4A11 11 0 1 0 13 38h36a13 13 0 0 0 0-26z" fill="#202020"/><path data-name="layer1" d="M6.6 54A2 2 0 0 1 5 50.8l6.4-8a2 2 0 1 1 3.1 2.5l-6.4 8a2 2 0 0 1-1.5.7zm5.6 8a2 2 0 0 1-1.6-3.2l12.8-16a2 2 0 1 1 3.1 2.5l-12.8 16a2 2 0 0 1-1.5.7zm18.4-8a2 2 0 0 1-1.6-3.2l6.4-8a2 2 0 1 1 3.1 2.5l-6.4 8a2 2 0 0 1-1.5.7zm5.6 8a2 2 0 0 1-1.6-3.2l12.8-16a2 2 0 1 1 3.1 2.5l-12.8 16a2 2 0 0 1-1.5.7z" fill="#202020"/></svg>