<svg xmlns="http://www.w3.org/2000/svg" viewBox="0 0 64 64" aria-labelledby="title" aria-describedby="desc"><path data-name="layer1" d="M32.1 6C16 6 2 18.3 2 33.6s10.8 24.3 17.1 24.3 8.9-4.7 8.9-10S32.7 34 44.7 34h11.6c2.7 0 7.1-2.4 5.2-8.1S52.5 6 32.1 6z" fill="#a3b8df"/><path data-name="opacity" d="M11 33c0-12.7 7-25.2 17.7-26.8C14.1 7.8 2 19.4 2 33.6s10.8 24.3 17.1 24.3a8.3 8.3 0 0 0 6.6-2.9C15.8 56.4 11 46.6 11 33z" fill="#000064" opacity=".15"/><path data-name="opacity" d="M61.5 25.9C59.6 20.2 52.5 6 32.1 6h-1.4C39.9 6.7 55 19.1 55 28.1c0 4.3-1 5.9-3 5.9h4.3c2.7 0 7.2-2.4 5.2-8.1z" fill="#fff" opacity=".25"/><path data-name="stroke" d="M27.3 52H38c3.2 0 8-2.7 8-8V34m8 24l-10-8.8" fill="none" stroke="#2e4369" stroke-linecap="round" stroke-linejoin="round" stroke-width="2"/><path data-name="stroke" d="M32.1 6C16 6 2 18.3 2 33.6s10.8 24.3 17.1 24.3 8.9-4.7 8.9-10S32.7 34 44.7 34h11.6c2.7 0 7.1-2.4 5.2-8.1S52.5 6 32.1 6zM52 24h-6M18 44h-6" fill="none" stroke="#2e4369" stroke-linecap="round" stroke-linejoin="round" stroke-width="2"/></svg>