<svg xmlns="http://www.w3.org/2000/svg" viewBox="0 0 64 64" aria-labelledby="title" aria-describedby="desc"><path data-name="layer2" d="M32.1 45.894c10.551-17.973 8.453-29.66 0-44.469a.111.111 0 0 0-.191 0c-8.454 14.809-10.551 26.5 0 44.469a.113.113 0 0 0 .191 0z" fill="#202020"/><path data-name="layer1" d="M59.775 24.892a.11.11 0 0 0-.121-.139A30.034 30.034 0 0 0 36.579 47.9a.114.114 0 0 0 .145.13C51.22 43.316 56.5 37.328 59.775 24.892zM27.3 48.033a.114.114 0 0 0 .144-.131 30.053 30.053 0 0 0-23.1-23.15.11.11 0 0 0-.121.139C7.5 37.328 12.8 43.316 27.3 48.033z" fill="#202020"/><path data-name="layer2" d="M.045 52.37a.11.11 0 0 0-.014.181c5.081 3.688 16.1 7.6 27.832-.029a.113.113 0 0 0-.01-.192c-11.725-6.219-18.204-5.819-27.808.04zm63.887-.001c-11.719-6.221-17.46-5.895-27.056-.036a.11.11 0 0 0-.014.181c5.068 3.69 15.355 7.678 27.079.047a.113.113 0 0 0-.009-.192z" fill="#202020"/><path data-name="layer1" d="M32 49a2 2 0 0 0-2 2v11a2 2 0 0 0 4 0V51a2 2 0 0 0-2-2z" fill="#202020"/></svg>