<svg xmlns="http://www.w3.org/2000/svg" viewBox="0 0 64 64" aria-labelledby="title" aria-describedby="desc"><path data-name="layer2" d="M31.91 2.157c-7.926 13.883-9.892 24.84 0 41.69a.106.106 0 0 0 .18 0c9.891-16.85 7.925-27.807 0-41.69a.1.1 0 0 0-.18 0z" fill="none" stroke="#202020" stroke-linecap="round" stroke-miterlimit="10" stroke-width="2" stroke-linejoin="round"/><path data-name="layer1" d="M57.925 24.027a28.156 28.156 0 0 0-21.632 21.7.107.107 0 0 0 .135.122c13.59-4.422 18.541-10.037 21.61-21.695a.1.1 0 0 0-.113-.127zm-51.85 0a28.175 28.175 0 0 1 21.652 21.7.107.107 0 0 1-.135.122C14 41.43 9.031 35.816 5.962 24.158a.1.1 0 0 1 .113-.131z" fill="none" stroke="#202020" stroke-linecap="round" stroke-miterlimit="10" stroke-width="2" stroke-linejoin="round"/><path data-name="layer2" d="M2.029 50.088c4.763 3.458 15.1 7.128 26.092-.027a.106.106 0 0 0-.009-.18c-10.993-5.831-17.067-5.456-26.071.037a.1.1 0 0 0-.012.17zm34.528-.035c4.752 3.459 14.4 7.2 25.387.044a.106.106 0 0 0-.009-.18c-10.986-5.832-16.369-5.526-25.365-.034a.1.1 0 0 0-.013.17z" fill="none" stroke="#202020" stroke-linecap="round" stroke-miterlimit="10" stroke-width="2" stroke-linejoin="round"/><path data-name="layer1" fill="none" stroke="#202020" stroke-linecap="round" stroke-miterlimit="10" stroke-width="2" d="M32 48v14" stroke-linejoin="round"/></svg>