<svg xmlns="http://www.w3.org/2000/svg" viewBox="0 0 64 64" aria-labelledby="title" aria-describedby="desc"><rect data-name="layer4" x="2" y="2" width="60" height="60" rx="3" ry="3" fill="#7b8baf"/><circle data-name="layer2" cx="32" cy="32" r="22" fill="#8fa9d8"/><circle data-name="layer3" cx="32" cy="32" r="15" fill="#536897"/><path data-name="opacity" d="M17 32a14.9 14.9 0 0 1 3.4-9.6 15 15 0 1 0 21.2 21.2A15 15 0 0 1 17 32z" fill="#fff" opacity=".2"/><circle data-name="layer2" cx="32" cy="32" r="4" fill="#8fa9d8"/><path data-name="opacity" d="M47 32a15 15 0 0 0-26.6-9.6 15 15 0 0 1 21.2 21.2A15 15 0 0 0 47 32z" fill="#000064" opacity=".2"/><path data-name="opacity" d="M28 32a4 4 0 0 1 .4-1.6 4 4 0 1 0 5.3 5.3A4 4 0 0 1 28 32z" fill="#000064" opacity=".2"/><circle data-name="layer1" cx="54" cy="10" r="1" fill="#324b83"/><rect data-name="stroke" x="2" y="2" width="60" height="60" rx="3" ry="3" fill="none" stroke="#2e4369" stroke-linecap="round" stroke-miterlimit="10" stroke-width="2" stroke-linejoin="round"/><circle data-name="stroke" cx="32" cy="32" r="22" fill="none" stroke="#2e4369" stroke-linecap="round" stroke-miterlimit="10" stroke-width="2" stroke-linejoin="round"/><circle data-name="stroke" cx="32" cy="32" r="15" fill="none" stroke="#2e4369" stroke-linecap="round" stroke-miterlimit="10" stroke-width="2" stroke-linejoin="round"/><circle data-name="stroke" cx="32" cy="32" r="4" fill="none" stroke="#2e4369" stroke-linecap="round" stroke-miterlimit="10" stroke-width="2" stroke-linejoin="round"/><circle data-name="stroke" cx="54" cy="10" r="1" fill="none" stroke="#2e4369" stroke-linecap="round" stroke-miterlimit="10" stroke-width="2" stroke-linejoin="round"/></svg>