<svg xmlns="http://www.w3.org/2000/svg" viewBox="0 0 64 64" aria-labelledby="title" aria-describedby="desc"><path data-name="layer4" d="M32 15C14.8 15 2.5 32.5 2.5 32.5S14.8 50 32 50s29.5-17.5 29.5-17.5S49.2 15 32 15z" fill="#fff"/><path data-name="layer3" d="M30 18c16 0 27.7 15.1 29.3 17.3 1.4-1.6 2.2-2.7 2.2-2.7S49.2 15 32 15 2.5 32.5 2.5 32.5l.2.3C7 27.9 17.1 18 30 18z" fill="#d1dbe5"/><circle data-name="layer2" cx="32" cy="32" r="12" fill="#97b8c7"/><circle data-name="layer1" cx="32" cy="32" r="6" fill="#2e4369"/><path data-name="stroke" d="M25.9 49.3a26.4 26.4 0 0 0 6.1.7c17.2 0 29.5-17.5 29.5-17.5a51.8 51.8 0 0 0-9.5-9.7m-6.5-4.3A29.1 29.1 0 0 0 32 15C14.8 15 2.5 32.5 2.5 32.5a50.9 50.9 0 0 0 15.4 13.6M32 44a12 12 0 0 0 12-12m-3.5-8.5a12 12 0 0 0-17 17M62 2L2 62" fill="none" stroke="#2e4369" stroke-linecap="round" stroke-linejoin="round" stroke-width="2"/><path data-name="opacity" d="M50.9 22a41.4 41.4 0 0 0-5.5-3.4L17.9 46.1a33.4 33.4 0 0 0 6.2 2.7z" fill="#000028" opacity=".15"/></svg>