<svg xmlns="http://www.w3.org/2000/svg" viewBox="0 0 64 64" aria-labelledby="title" aria-describedby="desc"><path data-name="layer2" fill="none" stroke="#202020" stroke-miterlimit="10" stroke-width="2" d="M38 2v8m16 8h-8m-8-4v4h4" stroke-linejoin="round" stroke-linecap="round"/><path data-name="layer1" fill="none" stroke="#202020" stroke-miterlimit="10" stroke-width="2" d="M16 2h-4v4m0 4v8m0 4v8m0 4v8m0 4v8m42-18v8m0-20v8m0 16v8m-42 2v4h4m4 0h8m4 0h8m4 0h10v-2m0-40v-2l-4-4m-2.7-2.7l-5-5m-2.8-2.8L38 2h-6M20 2h8" stroke-linejoin="round" stroke-linecap="round"/></svg>