<svg xmlns="http://www.w3.org/2000/svg" viewBox="0 0 64 64" aria-labelledby="title" aria-describedby="desc"><path data-name="layer1" d="M7 56a3 3 0 0 0 3-3V20h52v33a3 3 0 0 1-3 3H5" fill="#fcedc3"/><path data-name="layer1" d="M10 53V20h44v-8H20V8H2v45a3 3 0 0 0 3 3h2a3 3 0 0 0 3-3z" fill="#fcedc3"/><path data-name="opacity" d="M10 53V20h44v-8H20V8H2v45a3 3 0 0 0 3 3h2a3 3 0 0 0 3-3z" fill="#000064" opacity=".15"/><path data-name="opacity" fill="#fff" opacity=".2" d="M10 20h52v3H10z"/><path data-name="stroke" fill="none" stroke="#2e4369" stroke-linecap="round" stroke-miterlimit="10" stroke-width="2" d="M6 8H2v4m8-4h10v4h2m4 0h8m4 0h8m4 0h4v8h2m6 2v-2h-2m2 26v-8m0-4v-8m-14-6h-8m-4 0h-8m-4 0h-8m-4 0h-2v6m0 4v8m0 4v11a3 3 0 0 1-3 3H5a3 3 0 0 1-3-3v-1m0-36v8m0 4v8m0 4v8m14 8h8m4 0h8m4 0h8m4 0h7a3 3 0 0 0 3-3v-3" stroke-linejoin="round"/></svg>