<svg xmlns="http://www.w3.org/2000/svg" viewBox="0 0 64 64" aria-labelledby="title" aria-describedby="desc"><path data-name="layer3" d="M46 25l8 8V15H22V9H2v40.3A1.7 1.7 0 0 0 3.7 51H34V37z" fill="#f8da82"/><path data-name="opacity" d="M41 26L29 38v10H7.7A1.7 1.7 0 0 1 6 46.3V9H2v40.3A1.7 1.7 0 0 0 3.7 51H34V37l9-9z" fill="#000064" opacity=".15"/><path data-name="layer2" fill="#fffeee" d="M46 25L34 37v20h24V37L46 25z"/><path data-name="layer1" fill="#a06f60" d="M42 45h8v12h-8z"/><path data-name="stroke" d="M54 33V15H22V9H2v40.3A1.7 1.7 0 0 0 3.7 51H34" fill="none" stroke="#2e4369" stroke-linecap="round" stroke-miterlimit="10" stroke-width="2" stroke-linejoin="round"/><path data-name="stroke" fill="none" stroke="#2e4369" stroke-linecap="round" stroke-miterlimit="10" stroke-width="2" d="M30 41l16-16 16 16" stroke-linejoin="round"/><path data-name="stroke" fill="none" stroke="#2e4369" stroke-linecap="round" stroke-miterlimit="10" stroke-width="2" d="M34 37v20h24V37" stroke-linejoin="round"/><path data-name="stroke" fill="none" stroke="#2e4369" stroke-linecap="round" stroke-miterlimit="10" stroke-width="2" d="M42 57V45h8" stroke-linejoin="round"/></svg>