<svg xmlns="http://www.w3.org/2000/svg" viewBox="0 0 64 64" aria-labelledby="title" aria-describedby="desc"><path data-name="layer1" d="M32 3L2.445 33.57a.25.25 0 0 0 .174.43H10v27h15V44h14v17h15V34h7.382a.25.25 0 0 0 .174-.43z" fill="#929fbd"/><path data-name="opacity" fill="#fff" opacity=".25" d="M50 33h4v28h-4z"/><path data-name="opacity" fill="#000064" opacity=".2" d="M10 33h4v28h-4z"/><path data-name="opacity" d="M61.555 33.57L32 3l-2 2.069 27.555 28.5a.25.25 0 0 1-.174.43h4a.25.25 0 0 0 .174-.429z" fill="#fff" opacity=".25"/><path data-name="stroke" d="M32 3L2.445 33.57a.25.25 0 0 0 .174.43H10v27h15V44h14v17h15V34h7.382a.25.25 0 0 0 .174-.43z" fill="none" stroke="#2e4369" stroke-linecap="round" stroke-miterlimit="10" stroke-width="2" stroke-linejoin="round"/></svg>