<svg xmlns="http://www.w3.org/2000/svg" viewBox="0 0 64 64" aria-labelledby="title" aria-describedby="desc"><path data-name="layer1" d="M62 0H2a2 2 0 0 0-2 2v60a2 2 0 0 0 2 2h60a2 2 0 0 0 2-2V2a2 2 0 0 0-2-2zM16.988 8H47v6.008a2 2 0 0 1-4 0V12h-8.994v27.996h5.002a2 2 0 0 1 0 4H25a2 2 0 0 1 0-4h5.006V12h-9.018v2.023a2 2 0 0 1-4 0zm32.928 47.917a2 2 0 1 1-2.83-2.827l1.093-1.093H15.822l1.093 1.092a2 2 0 0 1-2.83 2.828l-5.91-5.912 1.374-1.376.086-.086 4.451-4.45a2 2 0 0 1 2.829 2.828l-1.076 1.076H48.16l-1.076-1.076a2 2 0 1 1 2.829-2.829l4.452 4.452.084.084 1.376 1.376z" fill="#202020"/></svg>