<svg xmlns="http://www.w3.org/2000/svg" viewBox="0 0 64 64" aria-labelledby="title" aria-describedby="desc"><path data-name="layer2" fill="#bacae9" d="M2 2h60v60H2z"/><path data-name="layer1" fill="#dde5f4" d="M29 27h6v10h-6zm17 16h6v10h-6zM15 11h6v10h-6z"/><path data-name="opacity" opacity=".2" d="M32 37v3h6V30h-3v7h-3zm17 16v3h6V46h-3v7h-3zM18 21v3h6V14h-3v7h-3z"/><path data-name="stroke" fill="none" stroke="#2e4369" stroke-linecap="round" stroke-linejoin="round" stroke-width="2" d="M12 48h34M35 32h16m-39 0h17m-8-16h30m-39 0h2.999M29 27h6v10h-6zm17 16h6v10h-6zM15 11h6v10h-6z"/><path data-name="stroke" fill="none" stroke="#2e4369" stroke-linecap="round" stroke-linejoin="round" stroke-width="2" d="M2 2h60v60H2z"/></svg>