<svg xmlns="http://www.w3.org/2000/svg" viewBox="0 0 64 64" aria-labelledby="title" aria-describedby="desc"><path data-name="layer2" fill="#91aadc" d="M19 8h10v30h-6v6h18v-6h-6V8h10v2h6V2H13v8h6V8z"/><path data-name="layer1" fill="#99dbff" d="M53.3 43l-4.6 4 1.8 2h-37l1.8-2-4.6-4L3 52l7.7 9 4.6-4-1.8-2h37l-1.8 2 4.6 4 7.7-9-7.7-9z"/><path data-name="stroke" fill="none" stroke="#2e4369" stroke-linecap="round" stroke-miterlimit="10" stroke-width="2" d="M19 8h10v30h-6v6h18v-6h-6V8h10v2h6V2H13v8h6V8z" stroke-linejoin="round"/><path data-name="stroke" fill="none" stroke="#2e4369" stroke-linecap="round" stroke-miterlimit="10" stroke-width="2" d="M53.3 43l-4.6 4 1.8 2h-37l1.8-2-4.6-4L3 52l7.7 9 4.6-4-1.8-2h37l-1.8 2 4.6 4 7.7-9-7.7-9z" stroke-linejoin="round"/></svg>