<svg xmlns="http://www.w3.org/2000/svg" viewBox="0 0 64 64" aria-labelledby="title" aria-describedby="desc"><path data-name="layer2" d="M2 16h18a12.86 12.86 0 0 1-.638-8H2a1 1 0 0 0-1 1v6a1 1 0 0 0 1 1zm60-8H44.638A12.86 12.86 0 0 1 44 16h18a1 1 0 0 0 1-1V9a1 1 0 0 0-1-1zm0 49h-2V18H42.943a13.085 13.085 0 0 1-4.068 4H42v7h-7v-5.367a12.459 12.459 0 0 1-6 0V29h-7v-7h3.125a13.085 13.085 0 0 1-4.068-4H4v39H2a1 1 0 0 0-1 1v5a1 1 0 0 0 1 1h18V44h24v20h18a1 1 0 0 0 1-1v-5a1 1 0 0 0-1-1zM9 22h7v7H9zm0 11h7v7H9zm0 11h7v7H9zm20-4h-7v-7h7zm13 0h-7v-7h7zm6-18h7v7h-7zm0 11h7v7h-7zm0 11h7v7h-7z" fill="#202020"/><path data-name="layer1" d="M32 22a11 11 0 1 0-11-11 11 11 0 0 0 11 11zM25 9h5V4h4v5h5v4h-5v5h-4v-5h-5zm-3 37h9v18h-9zm11 0h9v18h-9z" fill="#202020"/></svg>