<svg xmlns="http://www.w3.org/2000/svg" viewBox="0 0 64 64" aria-labelledby="title" aria-describedby="desc"><path data-name="layer2" fill="none" stroke="#202020" stroke-linecap="round" stroke-miterlimit="10" stroke-width="2" d="M2 62V24m60 38V36m0 19H2m0-6h60M2 46a3.009 3.009 0 0 1 3-3h54a3.009 3.009 0 0 1 3 3M2 43v-2a5 5 0 0 1 5-5h3a7 7 0 0 1 7 7" stroke-linejoin="round"/><rect data-name="layer1" x="32" y="15" width="20" height="20" rx="2" ry="2" fill="none" stroke="#202020" stroke-linecap="round" stroke-miterlimit="10" stroke-width="2" stroke-linejoin="round"/><path data-name="layer1" fill="none" stroke="#202020" stroke-linecap="round" stroke-miterlimit="10" stroke-width="2" d="M38 30V20m8 0v10m-8-5h8" stroke-linejoin="round"/></svg>