<svg xmlns="http://www.w3.org/2000/svg" viewBox="0 0 64 64" aria-labelledby="title" aria-describedby="desc"><path data-name="layer1" fill="#f4475d" d="M60.981 22.196l-6-10.392L38 21.608V2H26v19.608L9.019 11.804l-6 10.392L20 32 3.019 41.804l6 10.392L26 42.392V62h12V42.392l16.981 9.804 6-10.392L44 32l16.981-9.804z"/><path data-name="opacity" fill="#000064" opacity=".16" d="M26 39.392L9.019 49.196l-4.701-8.142-1.299.75 6 10.392L26 42.392v-3zM26 59h12v3H26zm-3-28L4.318 19.946l-1.299 2.25L20.402 32.5 23 31zm31.981 18.196L38 39.392v3l16.981 9.804 6-10.392-1.299-.75-4.701 8.142zM41 31l2.598 1.5 17.383-10.304-1.299-2.25L41 31z"/><path data-name="stroke" fill="none" stroke="#2e4369" stroke-linecap="round" stroke-miterlimit="10" stroke-width="2" d="M60.981 22.196l-6-10.392L38 21.608V2H26v19.608L9.019 11.804l-6 10.392L20 32 3.019 41.804l6 10.392L26 42.392V62h12V42.392l16.981 9.804 6-10.392L44 32l16.981-9.804z" stroke-linejoin="round"/></svg>