<svg xmlns="http://www.w3.org/2000/svg" viewBox="0 0 64 64" aria-labelledby="title" aria-describedby="desc"><rect data-name="layer2" x="2" y="2" width="60" height="60" rx="4" ry="4" fill="#f4475d"/><path data-name="opacity" d="M9 59a2 2 0 0 1-2-2V2H6a4 4 0 0 0-4 4v52a4 4 0 0 0 4 4h52a3.991 3.991 0 0 0 3.859-3z" fill="#000064" opacity=".16"/><path data-name="layer1" fill="#d8ecff" d="M38 13v13H26V13H14v38h12V38h12v13h12V13H38z"/><rect data-name="stroke" x="2" y="2" width="60" height="60" rx="4" ry="4" fill="none" stroke="#2e4369" stroke-linecap="round" stroke-miterlimit="10" stroke-width="2" stroke-linejoin="round"/><path data-name="stroke" fill="none" stroke="#2e4369" stroke-linecap="round" stroke-miterlimit="10" stroke-width="2" d="M38 13v13H26V13H14v38h12V38h12v13h12V13H38z" stroke-linejoin="round"/></svg>