<svg xmlns="http://www.w3.org/2000/svg" viewBox="0 0 64 64" aria-labelledby="title" aria-describedby="desc"><rect data-name="layer2" x="2" y="6" width="44" height="44" rx="5" ry="5" fill="#f4475d"/><path data-name="opacity" d="M7 48a2.006 2.006 0 0 1-2-2V6.426A5.013 5.013 0 0 0 2 11v34a5.015 5.015 0 0 0 5 5h34a4.983 4.983 0 0 0 3.97-2z" fill="#000064" opacity=".16"/><path data-name="layer1" fill="#d8ecff" d="M29 13v10H19V13h-9v30h9V32h10v11h9V13h-9z"/><path data-name="stroke" fill="none" stroke="#2e4369" stroke-linecap="round" stroke-miterlimit="10" stroke-width="2" d="M62 2v60M46 15.085h16M46 42h16" stroke-linejoin="round"/><rect data-name="stroke" x="2" y="6" width="44" height="44" rx="5" ry="5" fill="none" stroke="#2e4369" stroke-linecap="round" stroke-miterlimit="10" stroke-width="2" stroke-linejoin="round"/><path data-name="stroke" fill="none" stroke="#2e4369" stroke-linecap="round" stroke-miterlimit="10" stroke-width="2" d="M29 13v10H19V13h-9v30h9V32h10v11h9V13h-9z" stroke-linejoin="round"/></svg>