<svg viewBox="0 0 64 64" xmlns="http://www.w3.org/2000/svg" aria-labelledby="title" aria-describedby="desc"><path fill="#202020" d="M60 60H4.007a2 2 0 0 0 0 4H60a2 2 0 0 0 0-4z" data-name="layer1"/><path fill="#202020" d="M19.308 57H44.7a17.228 17.228 0 0 0 7.136-11.035h.185a10.983 10.983 0 0 0 0-21.967H52v-1.031H12v20.855c0 5.299 3 10.035 7.308 13.178zm32.709-29a6.983 6.983 0 0 1 0 13.967H52V28z" data-name="layer2"/><path fill="#202020" d="M32 19a2 2 0 0 0 2-2V2a2 2 0 1 0-4 0v15a2 2 0 0 0 2 2zm-12 0a2 2 0 0 0 2-2V8a2 2 0 1 0-4 0v9a2 2 0 0 0 2 2zm24 0a2 2 0 0 0 2-2V8a2 2 0 1 0-4 0v9a2 2 0 0 0 2 2z" data-name="layer1"/></svg>