<svg xmlns="http://www.w3.org/2000/svg" viewBox="0 0 64 64" aria-labelledby="title" aria-describedby="desc"><path data-name="layer3" d="M26 50v8.8a3.2 3.2 0 0 0 3.2 3.2h5.6a3.2 3.2 0 0 0 3.2-3.2V50z" fill="#c69483"/><path data-name="layer2" d="M32 2c7.4 0 15.4 18.1 1.6 48h.4c2.5-2 11-9.4 15.4-18.2A19.9 19.9 0 0 0 32 2zm0 0a20 20 0 0 0-20 19.9 19.8 19.8 0 0 0 2.6 9.8c4.4 8.9 13 16.2 15.4 18.2h.4C16.6 20.1 24.6 2 32 2z" fill="#49bcff"/><path data-name="layer1" d="M30.4 50h3.1C47.4 20.1 39.4 2 32 2s-15.4 18.1-1.6 48z" fill="#fc0"/><path data-name="opacity" d="M33.5 2.4a4.9 4.9 0 0 0-1.9-.4C24.2 2 16.2 20.1 30 50h3.1l.3-.6c-11.5-27.1-6.2-44.3.1-47z" fill="#000064" opacity=".15"/><path data-name="opacity" d="M12 21.9a19.8 19.8 0 0 0 2.6 9.8c4.4 8.9 13 16.2 15.4 18.2h.4c-.9-2-1.7-3.9-2.4-5.7-4-3.6-11-10.4-11-21.7 0-9.3 2.7-17.2 9.2-19.7A20 20 0 0 0 12 21.9z" fill="#000064" opacity=".15"/><path data-name="opacity" d="M39.5 9.6c-1.9-5.4-3.4-3.4-3-1s.6 8.7.6 13.6-2.4 10.4-1.3 13.3S41 30.8 41 24a88.2 88.2 0 0 0-1.5-14.4z" fill="#fff" opacity=".5"/><path data-name="opacity" d="M52 21.9A19.9 19.9 0 0 0 40 3.7a25.7 25.7 0 0 1 7 17.5c0 10.8-3 18-5 21.1a48.7 48.7 0 0 0 7.4-10.5 19.8 19.8 0 0 0 2.6-9.9z" fill="#fff" opacity=".5"/><path data-name="opacity" d="M30 58.8V50h-4v8.8a3.2 3.2 0 0 0 3.2 3.2h4a3.2 3.2 0 0 1-3.2-3.2z" fill="#000064" opacity=".15"/><path data-name="stroke" d="M34 49.9c2.5-2 11-9.4 15.4-18.2A20 20 0 1 0 12 21.9a19.8 19.8 0 0 0 2.6 9.8c4.4 8.9 13 16.2 15.4 18.2M32 2c-7.4 0-15.4 18.1-1.6 48M32 2c7.4 0 15.4 18.1 1.6 48M26 50v8.8a3.2 3.2 0 0 0 3.2 3.2h5.6a3.2 3.2 0 0 0 3.2-3.2V50z" fill="none" stroke="#2e4369" stroke-linecap="round" stroke-linejoin="round" stroke-width="2"/></svg>