<svg viewBox="0 0 64 64" xmlns="http://www.w3.org/2000/svg" aria-labelledby="title" aria-describedby="desc"><path fill="#f7d8bc" d="M52 18.947V40.8c0 9.467-9.582 17.144-19.049 17.144h-1.9C21.58 57.947 12 50.27 12 40.8V18.947z" data-name="layer1"/><path opacity=".5" fill="#fff" d="M41.994 18.947v26.86a15.627 15.627 0 0 1-4.287 10.447C44.023 53.49 49 47.621 49 40.8V18.947z" data-name="opacity"/><path opacity=".18" fill="#101129" d="M18 42.8V18.947h-6V40.8c0 8.475 7.676 15.494 16.075 16.879C22.35 54.727 18 49.178 18 42.8z" data-name="opacity"/><path fill="#f7d8bc" d="M62 59.984a2 2 0 0 1-2 2H4a2 2 0 0 1-2-2 2 2 0 0 1 2-2h56a2 2 0 0 1 2 2z" data-name="layer1"/><path stroke-width="2" stroke-linejoin="round" stroke-linecap="round" stroke="#2f446a" fill="none" d="M52 18.965v21.857c0 9.467-9.582 17.143-19.049 17.143h-1.9C21.58 57.965 12 50.289 12 40.822V18.965zM52 23h1.016A8.984 8.984 0 0 1 62 31.982a8.982 8.982 0 0 1-8.982 8.982H52M32 14.998v-13m-12.002 13V8.002m24.004 6.996V8.002M62 60a2 2 0 0 1-2 2H4a2 2 0 0 1-2-2 2 2 0 0 1 2-2h56a2 2 0 0 1 2 2z" data-name="stroke"/></svg>