<svg xmlns="http://www.w3.org/2000/svg" viewBox="0 0 64 64" aria-labelledby="title" aria-describedby="desc"><path data-name="layer2" d="M58.3 15.6l.8.8a10.1 10.1 0 0 1 0 14.2L30.6 59.1a10.1 10.1 0 0 1-14.2 0l-.8-.8m-9.9-9.9l-.7-.7a10.1 10.1 0 0 1 0-14.3L33.4 4.9a10.1 10.1 0 0 1 14.2 0l.8.8m2.1 7.8c1 2.8-.9 4.8-3.7 3.7S42.2 18 43 21s-.7 4.5-3.7 3.7-4.6.9-3.7 3.7-.9 4.6-3.7 3.7-4.5.9-3.7 3.7m-15 15c-.9-2.8.8-4.5 3.7-3.7s4.5-.8 3.7-3.7 1-4.7 3.7-3.7 4.7-1 3.7-3.7" fill="none" stroke="#202020" stroke-linecap="round" stroke-linejoin="round" stroke-width="2"/><path data-name="layer1" d="M19.2 56.2a8.1 8.1 0 0 1-11.4 0 8.1 8.1 0 0 1 0-11.4l37-37a8.1 8.1 0 0 1 11.4 0 8.1 8.1 0 0 1 0 11.4z" fill="none" stroke="#202020" stroke-linecap="round" stroke-linejoin="round" stroke-width="2"/></svg>