<svg xmlns="http://www.w3.org/2000/svg" viewBox="0 0 64 64" aria-labelledby="title" aria-describedby="desc"><path data-name="layer2" d="M58.3 15.6l.8.8a10.1 10.1 0 0 1 0 14.2L30.6 59.1a10.1 10.1 0 0 1-14.2 0l-.8-.8" fill="#f6b36d"/><path data-name="opacity" d="M58.3 15.6l.8.8a10.1 10.1 0 0 1 0 14.2L30.6 59.1a10.1 10.1 0 0 1-14.2 0l-.8-.8" fill="#010101" opacity=".25"/><path data-name="layer2" d="M5.7 48.4l-.7-.7a10.1 10.1 0 0 1 0-14.3L33.4 4.9a10.1 10.1 0 0 1 14.2 0l.8.8" fill="#f6b36d"/><path data-name="layer1" d="M19.2 56.2a8.1 8.1 0 0 1-11.4 0 8.1 8.1 0 0 1 0-11.4l37-37a8.1 8.1 0 0 1 11.4 0 8.1 8.1 0 0 1 0 11.4z" fill="#f1626a"/><path data-name="opacity" d="M57.6 9.6a8 8 0 0 1-2.4 5.6l-37 37a8 8 0 0 1-12.8-1.8 8 8 0 0 0 13.7 5.8l37-37a8.1 8.1 0 0 0 1.5-9.6z" fill="#010101" opacity=".25"/><path data-name="stroke" d="M58.3 15.6l.8.8a10.1 10.1 0 0 1 0 14.2L30.6 59.1a10.1 10.1 0 0 1-14.2 0l-.8-.8m-9.9-9.9l-.7-.7a10.1 10.1 0 0 1 0-14.3L33.4 4.9a10.1 10.1 0 0 1 14.2 0l.8.8" fill="none" stroke="#2f446a" stroke-linecap="round" stroke-linejoin="round" stroke-width="2"/><path data-name="stroke" d="M19.2 56.2a8.1 8.1 0 0 1-11.4 0 8.1 8.1 0 0 1 0-11.4l37-37a8.1 8.1 0 0 1 11.4 0 8.1 8.1 0 0 1 0 11.4z" fill="none" stroke="#2f446a" stroke-linecap="round" stroke-linejoin="round" stroke-width="2"/><path data-name="stroke" d="M50.5 13.5c1 2.8-.9 4.8-3.7 3.7S42.2 18 43 21s-.7 4.5-3.7 3.7-4.6.9-3.7 3.7-.9 4.6-3.7 3.7-4.5.9-3.7 3.7m-.1.1c1 2.8-.9 4.8-3.7 3.7s-4.5.7-3.7 3.7S20 47.8 17 47s-4.6.9-3.7 3.7" fill="none" stroke="#2f446a" stroke-linecap="round" stroke-linejoin="round" stroke-width="2"/></svg>