<svg xmlns="http://www.w3.org/2000/svg" viewBox="0 0 64 64" aria-labelledby="title" aria-describedby="desc"><circle data-name="layer2" cx="32" cy="33.067" r="2.133" fill="#202020"/><path data-name="layer1" d="M54.467 32a1 1 0 0 1 1-1h8.508A31.829 31.829 0 0 0 60.2 16.872l-4.608 2.661a1 1 0 1 1-1-1.732l4.6-2.659A32.157 32.157 0 0 0 48.857 4.8L46.2 9.406a1 1 0 1 1-1.732-1L47.127 3.8A31.828 31.828 0 0 0 33 .025v8.508a1 1 0 0 1-2 0V.025A31.829 31.829 0 0 0 16.872 3.8l2.661 4.608a1 1 0 0 1-1.732 1L15.143 4.8A32.159 32.159 0 0 0 4.8 15.142l4.6 2.659a1 1 0 0 1-1 1.732l-4.6-2.661A31.829 31.829 0 0 0 .025 31h8.508a1 1 0 0 1 0 2H.025A31.829 31.829 0 0 0 3.8 47.128l4.608-2.661a1 1 0 1 1 1 1.732L4.8 48.858A32.158 32.158 0 0 0 15.142 59.2l2.658-4.6a1 1 0 1 1 1.732 1l-2.66 4.6A31.828 31.828 0 0 0 31 63.975v-8.508a1 1 0 0 1 2 0v8.508A31.828 31.828 0 0 0 47.128 60.2l-2.661-4.608a1 1 0 1 1 1.732-1l2.658 4.6A32.158 32.158 0 0 0 59.2 48.858l-4.6-2.659a1 1 0 1 1 1-1.732l4.6 2.661A31.829 31.829 0 0 0 63.975 33h-8.508a1 1 0 0 1-1-1zm-7.54-11.733L36.05 31.14a4.449 4.449 0 0 1 .45 1.927 4.5 4.5 0 0 1-9 0 4.456 4.456 0 0 1 .3-1.591l-7.339-5.706a1.5 1.5 0 1 1 1.879-2.34l7.414 5.76a4.352 4.352 0 0 1 4.175-.172l10.877-10.872a1.5 1.5 0 0 1 2.121 2.121z" fill="#202020"/><circle data-name="layer1" cx="32" cy="33.066" r="1.5" fill="#202020"/></svg>