<svg xmlns="http://www.w3.org/2000/svg" viewBox="0 0 64 64" aria-labelledby="title" aria-describedby="desc"><circle data-name="layer2" cx="32" cy="32" r="30" fill="#e1f4f3"/><path data-name="opacity" d="M32 2A29.938 29.938 0 0 0 8.881 12.881a30 30 0 0 1 42.238 42.238A30 30 0 0 0 32 2z" fill="#000064" opacity=".15"/><path data-name="opacity" d="M44.415 22.592a2 2 0 0 0-2.829 0l-8.976 8.97a3.124 3.124 0 0 0-1.657.116l-5.7-4.223a2 2 0 0 0-2.381 3.215l5.643 4.181c0 .05-.015.1-.015.149a3.5 3.5 0 1 0 6.938-.609l8.976-8.97a2 2 0 0 0 .001-2.829z" fill="#000064" opacity=".15"/><circle data-name="layer1" cx="32" cy="33" r="2" fill="#6e7da9"/><path data-name="stroke" fill="none" stroke="#2e4369" stroke-linecap="round" stroke-miterlimit="10" stroke-width="2" d="M2 32h8m44 0h8M32 10V2m0 60v-8M6.019 47l4.33-2.5m43.302-25l4.33-2.5M19.5 10.349L17 6.019m30 51.962l-2.5-4.33M6.019 17l4.33 2.5m43.302 25l4.33 2.5M44.5 10.349l2.5-4.33M17 57.981l2.5-4.33" stroke-linejoin="round"/><circle data-name="stroke" cx="32" cy="33" r="2" fill="none" stroke="#2e4369" stroke-linecap="round" stroke-miterlimit="10" stroke-width="2" stroke-linejoin="round"/><path data-name="stroke" fill="none" stroke="#2e4369" stroke-linecap="round" stroke-miterlimit="10" stroke-width="2" d="M33.415 31.586L45 20.006m-22.938 5.057l8.361 6.713" stroke-linejoin="round"/><circle data-name="stroke" cx="32" cy="32" r="30" fill="none" stroke="#2e4369" stroke-linecap="round" stroke-miterlimit="10" stroke-width="2" stroke-linejoin="round"/></svg>