<svg xmlns="http://www.w3.org/2000/svg" viewBox="0 0 64 64" aria-labelledby="title" aria-describedby="desc"><path data-name="layer1" d="M54 25.267l7.555 7.3a.25.25 0 0 1-.174.43H54V61H40V43H24v18H10V33H2.618a.25.25 0 0 1-.174-.43L32 4l13 12.567V11h9z" fill="#929fbd"/><path data-name="opacity" fill="#000064" opacity=".2" d="M10 32h4v29h-4z"/><path data-name="opacity" fill="#fff" opacity=".25" d="M42 16.567v-2.9L32 4l-1.5 1.45L42 16.567zM50 32h4v29h-4zm11.555.57L54 25.267V11h-3v14.267l7.555 7.3a.25.25 0 0 1-.174.43h3a.25.25 0 0 0 .174-.427z"/><path data-name="stroke" d="M54 25.267l7.555 7.3a.25.25 0 0 1-.174.43H54V61H40V43H24v18H10V33H2.618a.25.25 0 0 1-.174-.43L32 4l13 12.567V11h9z" fill="none" stroke="#2e4369" stroke-linecap="round" stroke-miterlimit="10" stroke-width="2" stroke-linejoin="round"/></svg>