<svg xmlns="http://www.w3.org/2000/svg" viewBox="0 0 64 64" aria-labelledby="title" aria-describedby="desc"><path data-name="layer4" d="M34.4 13.5a11 11 0 0 1 12.5.9A11.2 11.2 0 0 0 47 13a11 11 0 0 0-19.9-6.5 11 11 0 0 1 7.3 7z" fill="#854a4a"/><path data-name="layer3" d="M41 30v-6H17l.8 2.1L31.9 62l12.3-28.1A4 4 0 0 1 41 30z" fill="#f9cb9a"/><path data-name="layer2" d="M34.4 13.5a11 11 0 1 0-16.6 12.6h.1L17 24h12v-1a10.9 10.9 0 0 1 1.1-4.8 11.1 11.1 0 0 1 4.3-4.7z" fill="#f9f6be"/><path data-name="layer1" d="M46.9 14.4A11 11 0 0 0 29 23v1h12v6a4 4 0 0 0 3.2 3.9h.8a4 4 0 0 0 4-4V23h2a11 11 0 0 0-4.1-8.6z" fill="#ef9bc2"/><path data-name="opacity" d="M13 17a11 11 0 0 0 4.8 9.1h.1L17 24h5.1c-3.8-2.5-8.8-8-5.8-14.9A11 11 0 0 0 13 17zm12.6 7H29v-1a10.8 10.8 0 0 1 3.3-7.8c-5.9 1.9-6.7 8.8-6.7 8.8zM43 29.4V24h-1.9v6a4 4 0 0 0 3.2 3.9h.8c-2 .1-2.1-3-2.1-4.5z" fill="#101129" opacity=".18"/><path data-name="opacity" d="M30.1 18.2a10.9 10.9 0 0 0-1 4.8v1h3.8a12.6 12.6 0 0 1 2.5-10.9l-.9.4a11 11 0 0 0-4.4 4.7zM17 24l.9 2.1 14 35.9-8.8-38H17zm24 6v-6h-2.6v7.4c0 4.6 4.9 4.5 4.9 4.5l.9-2A4 4 0 0 1 41 30z" fill="#101129" opacity=".18"/><path data-name="stroke" d="M46.9 14.4A11.2 11.2 0 0 0 47 13a11 11 0 0 0-19.8-6.5M41 24H17.1l.8 2.1L32 62l12.2-28.1" fill="none" stroke="#2f446a" stroke-linecap="round" stroke-linejoin="round" stroke-width="2"/><path data-name="stroke" d="M34.5 13.5a11 11 0 1 0-16.6 12.6h.1" fill="none" stroke="#2f446a" stroke-linecap="round" stroke-linejoin="round" stroke-width="2"/><path data-name="stroke" d="M41 24v6a4 4 0 0 0 3.2 3.9h.8a4 4 0 0 0 4-4V23h2a11 11 0 0 0-22 0v1" fill="none" stroke="#2f446a" stroke-linecap="round" stroke-linejoin="round" stroke-width="2"/></svg>