<svg xmlns="http://www.w3.org/2000/svg" viewBox="0 0 64 64" aria-labelledby="title" aria-describedby="desc"><path data-name="layer2" d="M18 20.9a9.5 9.5 0 0 0-4.9 7.1H32a9.5 9.5 0 0 0-9.4-8.3h-.7l-8-18.5a2 2 0 1 0-3.7 1.6z" fill="#202020"/><path data-name="layer1" d="M54 32H10.1A22 22 0 0 0 30 51.9V60h-4a2 2 0 0 0 0 4h12a2 2 0 0 0 0-4h-4v-8.1A22 22 0 0 0 54 32z" fill="#202020"/><path data-name="layer2" d="M34.2 28H51a8.4 8.4 0 0 0-16.9 0z" fill="#202020"/><path data-name="layer1" d="M32.5 20.2h.5a12.5 12.5 0 0 1 7.8-4.4 12 12 0 0 0-5.7-3.4A4 4 0 0 0 36 10a4 4 0 1 0-7.1 2.5 12 12 0 0 0-5.6 3.3 13.5 13.5 0 0 1 9.2 4.4z" fill="#202020"/></svg>