<svg xmlns="http://www.w3.org/2000/svg" viewBox="0 0 64 64" aria-labelledby="title" aria-describedby="desc"><path data-name="layer2" fill="#f5b94b" d="M55.9 48V2h-48v46"/><path data-name="layer1" d="M7.9 48v11.4a2.6 2.6 0 0 0 2.6 2.6h42.8a2.6 2.6 0 0 0 2.6-2.6V48z" fill="#d5e2f4"/><path data-name="opacity" fill="#101129" opacity=".25" d="M7.9 2h9v45.98h-9z"/><path data-name="opacity" d="M16.9 59.4V48h-9v11.4a2.6 2.6 0 0 0 2.6 2.6h9a2.6 2.6 0 0 1-2.6-2.6z" fill="#101129" opacity=".18"/><path data-name="opacity" fill="#fff" opacity=".5" d="M39.9 2h8v45.98h-8zm0 57.4a2.6 2.6 0 0 1-2.6 2.6h8a2.6 2.6 0 0 0 2.6-2.6V48h-8zm-8.3-38.9l-4.3-7.4a2.1 2.1 0 0 0-2.9-.8L17 16.6a2.1 2.1 0 0 0-.8 2.9l4.3 7.4a2.1 2.1 0 0 0 2.9.8l7.4-4.3a2.1 2.1 0 0 0 .8-2.9z"/><path data-name="opacity" d="M32.2 34.5l4.3-7.4a2.1 2.1 0 0 1 2.9-.8l7.4 4.3a2.1 2.1 0 0 1 .8 2.9l-4.3 7.4a2.1 2.1 0 0 1-2.9.8L33 37.4a2.1 2.1 0 0 1-.8-2.9z" fill="#fff" opacity=".5"/><path data-name="stroke" fill="none" stroke="#2f446a" stroke-linecap="round" stroke-linejoin="round" stroke-width="2" d="M56.1 48V2h-48v46m0 0v11.4a2.6 2.6 0 0 0 2.6 2.6h42.8a2.6 2.6 0 0 0 2.6-2.6V48z"/><path data-name="stroke" d="M31.8 20.5l-4.3-7.4a2.1 2.1 0 0 0-2.9-.8l-7.4 4.3a2.1 2.1 0 0 0-.8 2.9l4.3 7.4a2.1 2.1 0 0 0 2.9.8l7.4-4.3a2.1 2.1 0 0 0 .8-2.9zm.6 14l4.3-7.4a2.1 2.1 0 0 1 2.9-.8l7.4 4.3a2.1 2.1 0 0 1 .8 2.9l-4.3 7.4a2.1 2.1 0 0 1-2.9.8l-7.4-4.3a2.1 2.1 0 0 1-.8-2.9z" fill="none" stroke="#2f446a" stroke-linecap="round" stroke-linejoin="round" stroke-width="2"/></svg>