<svg xmlns="http://www.w3.org/2000/svg" viewBox="0 0 64 64" aria-labelledby="title" aria-describedby="desc"><path data-name="layer3" d="M32 2a18 18 0 0 0-18 18v6a4 4 0 1 0 8 0v-2a4 4 0 1 1 8 0v6a4 4 0 1 0 8 0v-6a2 2 0 0 1 4 0 4 4 0 0 0 8 0v-4A18 18 0 0 0 32 2z" fill="#ef9bc2"/><path data-name="layer2" d="M42 24a2 2 0 0 0-4 0v6a4 4 0 1 1-8 0v-6a4 4 0 1 0-8 0v2a4 4 0 0 1-2.9 3.8L32 62l13.4-34a4 4 0 0 1-3.4-4z" fill="#f9cb9a"/><path data-name="opacity" d="M22 24v2a4 4 0 0 1-2.9 3.8L32 62 22 23.4a4 4 0 0 0 0 .6z" fill="#101129" opacity=".18"/><path data-name="layer1" d="M45.5 27.9A4 4 0 0 1 42 24a2 2 0 0 0-4 0 2 2 0 0 1 2 2 4 4 0 0 0 4 4h.7l.8-2zM28 26v6a4 4 0 0 0 7.7 1.6A4 4 0 0 1 30 30v-6a4 4 0 0 0-7.7-1.6A4 4 0 0 1 28 26z" fill="#e2a875"/><ellipse data-name="opacity" cx="38" cy="11.7" rx="4" ry="5" transform="rotate(-45 37.975 11.77)" fill="#fff" opacity=".4"/><path data-name="stroke" d="M32 2a18 18 0 0 0-18 18v6a4 4 0 1 0 8 0v-2a4 4 0 1 1 8 0v6a4 4 0 1 0 8 0v-6a2 2 0 0 1 4 0 4 4 0 0 0 8 0v-4A18 18 0 0 0 32 2z" fill="none" stroke="#2f446a" stroke-linecap="round" stroke-linejoin="round" stroke-width="2"/><path data-name="stroke" fill="none" stroke="#2f446a" stroke-linecap="round" stroke-linejoin="round" stroke-width="2" d="M19.1 29.8L32 62l13.4-34"/></svg>