<svg viewBox="0 0 64 64" xmlns="http://www.w3.org/2000/svg" aria-labelledby="title" aria-describedby="desc"><path d="M10 3h8v12h-8zm36 0h8v12h-8z" fill="#202020" data-name="layer1"/><path fill="#202020" d="M58 9v10H42V9H22v10H6V9H2v50h60V9zM24 43H10a2 2 0 0 1 0-4h14a2 2 0 0 1 0 4zM8 33a2 2 0 0 1 2-2h10a2 2 0 0 1 0 4H10a2 2 0 0 1-2-2zm18-6H10a2 2 0 0 1 0-4h16a2 2 0 0 1 0 4zm4 24a5.093 5.093 0 0 1 4-5.138c4-.865 4-2.334 4-3.268v-1.486a9.264 9.264 0 0 1-2.937-6.908v-4.479a6.957 6.957 0 0 1 13.906 0V34.2A9.294 9.294 0 0 1 46 41.1v1.5c0 .934.029 2.4 4.15 3.268C53.926 46.651 54 51 54 51z" data-name="layer1"/></svg>