<svg xmlns="http://www.w3.org/2000/svg" viewBox="0 0 64 64" aria-labelledby="title" aria-describedby="desc"><path data-name="layer4" d="M58.6 49.1a11.7 11.7 0 0 0 0-4.3l3.1-1.8-4-6.9-3.1 1.8a12 12 0 0 0-3.7-2.1V32h-8v3.7a12 12 0 0 0-3.7 2.1L36 36l-4 7 3 1.7a11.6 11.6 0 0 0 0 4.4L31.7 51l4 6.9 3.3-1.8a12 12 0 0 0 3.8 2.2V62h8v-3.7a12 12 0 0 0 3.9-2.3l3.3 2 4-7zM46.9 52a5 5 0 1 1 5-5 5 5 0 0 1-5 5z" fill="#8fa9d8"/><path data-name="layer3" d="M35.7 58l-4-6.9 3.3-2a11.9 11.9 0 0 1-.2-2.1c0-.3 0-.7.1-1H2v12h40a12.1 12.1 0 0 1-3-1.9z" fill="#fff"/><path data-name="layer2" d="M35 44.7L32 43l4-7 3.1 1.8a12 12 0 0 1 3.7-2.1V32H50V2H2v44h32.9a12.4 12.4 0 0 1 .1-1.3z" fill="#d1ebf7"/><path data-name="layer1" d="M32.2 43l4-6.9 3.1 1.8a12 12 0 0 1 3.7-2.2V32h.3c-2.1-7.8-5.2-16-8.6-16-5.8 0-8.5 17.5-9.5 17.5s-3.5-5-7.6-5S8.2 43.1 8.2 46h26.9a12.4 12.4 0 0 1 .2-1.3z" fill="#92d5b5"/><path data-name="opacity" d="M42 58a12.1 12.1 0 0 1-3-1.9L35.7 58l-4-6.9 3.3-2a11.9 11.9 0 0 1-.2-2.1c0-.3 0-.7.1-1a12.4 12.4 0 0 1 .2-1.3L32 43l2.1-3.7L32 38l-4 7 3 1.7a11.6 11.6 0 0 0 0 4.4L27.7 53l2.9 5H42zm-3.2-20.4l.3.2a12 12 0 0 1 3.7-2.1V34h-4z" fill="#000064" opacity=".16"/><path data-name="stroke" fill="none" stroke="#2e4369" stroke-linecap="round" stroke-miterlimit="10" stroke-width="2" d="M2 46h32.8M42 58H2V2h48v30" stroke-linejoin="round"/><circle data-name="stroke" cx="46.9" cy="47" r="5" fill="none" stroke="#2e4369" stroke-linecap="round" stroke-miterlimit="10" stroke-width="2" stroke-linejoin="round"/><path data-name="stroke" d="M62 51l-3.4-2a11.7 11.7 0 0 0 0-4.3l3.1-1.7-4-6.9-3.1 1.8a12 12 0 0 0-3.7-2.1V32h-8v3.7a12 12 0 0 0-3.7 2.1L36 36l-4 7 3 1.7a11.6 11.6 0 0 0 0 4.4L31.7 51l4 6.9 3.3-1.8a12 12 0 0 0 3.8 2.2V62h8v-3.7a12 12 0 0 0 3.9-2.3l3.3 2z" fill="none" stroke="#2e4369" stroke-linecap="round" stroke-miterlimit="10" stroke-width="2" stroke-linejoin="round"/></svg>