<svg xmlns="http://www.w3.org/2000/svg" viewBox="0 0 64 64" aria-labelledby="title" aria-describedby="desc"><path data-name="layer3" fill="#ebf5ff" d="M38 18V2H10v60h44V18H38z"/><path data-name="layer2" fill="#fff" d="M54 18L38 2v16h16z"/><path data-name="opacity" fill="#000064" opacity=".15" d="M33.1 2v23H54v-7H38V2h-4.9z"/><path data-name="layer1" d="M44 24l-6 6-6-6-6 6-6-6v12a12 12 0 0 0 12 12 12 12 0 0 0 12-12V24z" fill="#f27e7c"/><path data-name="stroke" d="M44 24l-6 6-6-6-6 6-6-6v12a12 12 0 0 0 12 12 12 12 0 0 0 12-12V24zM32 48v14" fill="none" stroke="#2e4369" stroke-linecap="round" stroke-miterlimit="10" stroke-width="2" stroke-linejoin="round"/><path data-name="stroke" fill="none" stroke="#2e4369" stroke-linecap="round" stroke-miterlimit="10" stroke-width="2" d="M10 2v60h44V18L38 2H10z" stroke-linejoin="round"/><path data-name="stroke" fill="none" stroke="#2e4369" stroke-linecap="round" stroke-miterlimit="10" stroke-width="2" d="M38 2v16h16" stroke-linejoin="round"/></svg>