<svg xmlns="http://www.w3.org/2000/svg" viewBox="0 0 64 64" aria-labelledby="title" aria-describedby="desc"><path data-name="layer4" fill="#d1ebf7" d="M18 18h44v34H18z"/><path data-name="layer1" fill="#f7f9fc" d="M18 52h44v10H18z"/><circle data-name="layer3" cx="28" cy="28" r="4" fill="#fff432"/><path data-name="layer2" d="M56 52c0-2.2-2.1-24-10-24s-6.7 16-8 16-1.4-6-6.7-6S24 49.2 24 52z" fill="#92d5b5"/><path data-name="layer1" fill="#f7f9fc" d="M18 54h-8V10h44v8H18v36z"/><path data-name="layer1" fill="#f7f9fc" d="M10 46H2V2h44v8H10v36z"/><path data-name="opacity" fill="#000064" opacity=".14" d="M18 54h-8V10h44v8H18v36z"/><path data-name="opacity" fill="#000064" opacity=".25" d="M10 46H2V2h44v8H10v36z"/><path data-name="stroke" fill="none" stroke="#2e4369" stroke-linecap="round" stroke-miterlimit="10" stroke-width="2" d="M10 46H2V2h44v8" stroke-linejoin="round"/><path data-name="stroke" fill="none" stroke="#2e4369" stroke-linecap="round" stroke-miterlimit="10" stroke-width="2" d="M18 54h-8V10h44v8" stroke-linejoin="round"/><path data-name="stroke" fill="none" stroke="#2e4369" stroke-linecap="round" stroke-miterlimit="10" stroke-width="2" d="M18 18h44v44H18zm0 34h44" stroke-linejoin="round"/><circle data-name="stroke" cx="28" cy="28" r="4" fill="none" stroke="#2e4369" stroke-linecap="round" stroke-miterlimit="10" stroke-width="2" stroke-linejoin="round"/><path data-name="stroke" d="M24 52c0-2.8.6-14 7.3-14s4.1 6 6.7 6 .6-16 8-16 10 21.8 10 24" fill="none" stroke="#2e4369" stroke-linecap="round" stroke-miterlimit="10" stroke-width="2" stroke-linejoin="round"/></svg>