<svg xmlns="http://www.w3.org/2000/svg" viewBox="0 0 64 64" aria-labelledby="title" aria-describedby="desc"><path data-name="layer3" fill="#fff" d="M2 46h48v12H2z"/><path data-name="layer2" fill="#d1ebf7" d="M2 2h48v44H2z"/><path data-name="layer1" d="M33.6 16c-5.8 0-8.5 17.5-9.5 17.5s-3.5-5-7.6-5S7 43.1 7 46h38c0-2.3-5.2-30-11.4-30z" fill="#92d5b5"/><path data-name="opacity" d="M50 39.1A12 12 0 0 0 36.1 58H50z" fill="#fff" opacity=".5"/><path data-name="stroke" fill="none" stroke="#2e4369" stroke-linecap="round" stroke-miterlimit="10" stroke-width="2" d="M2 46h30.4m3.8 12H2V2h48v37m12 11l-4.8 4.8-4.8-4.8" stroke-linejoin="round"/><path data-name="stroke" fill="none" stroke="#2e4369" stroke-linecap="round" stroke-miterlimit="10" stroke-width="2" d="M38 50l-4.8-4.8-4.8 4.8" stroke-linejoin="round"/><path data-name="stroke" d="M34 46a12.1 12.1 0 0 0 2.8 12.5 11.8 11.8 0 0 0 14.1 2.1m5.5-6.6a12.1 12.1 0 0 0-2.8-12.5 11.8 11.8 0 0 0-14.1-2.1" fill="none" stroke="#2e4369" stroke-linecap="round" stroke-miterlimit="10" stroke-width="2" stroke-linejoin="round"/></svg>