<svg xmlns="http://www.w3.org/2000/svg" viewBox="0 0 64 64" aria-labelledby="title" aria-describedby="desc"><path data-name="layer4" fill="#d1ebf7" d="M2 2h60v44H2z"/><circle data-name="layer3" cx="17" cy="15" r="5" fill="#fff432"/><path data-name="layer2" fill="#f7f9fc" d="M2 46h60v16H2z"/><path data-name="layer1" d="M56 46c0-2.2-6.1-28-14-28S31.3 36 30 36s-3.4-6-8.7-6S8 43.2 8 46z" fill="#92d5b5"/><circle data-name="stroke" cx="17" cy="15" r="5" fill="none" stroke="#2e4369" stroke-linecap="round" stroke-miterlimit="10" stroke-width="2" stroke-linejoin="round"/><path data-name="stroke" d="M8 46c0-2.8 6.6-16 13.3-16s6.1 6 8.7 6 4.6-18 12-18 14 25.8 14 28M2 46h60" fill="none" stroke="#2e4369" stroke-linecap="round" stroke-miterlimit="10" stroke-width="2" stroke-linejoin="round"/><path data-name="stroke" fill="none" stroke="#2e4369" stroke-linecap="round" stroke-miterlimit="10" stroke-width="2" d="M2 2h60v60H2z" stroke-linejoin="round"/></svg>