<svg xmlns="http://www.w3.org/2000/svg" viewBox="0 0 64 64" aria-labelledby="title" aria-describedby="desc"><path data-name="layer2" d="M5 58l18.8-6.9a37.1 37.1 0 0 0 8.2.9c16.6 0 30-10.7 30-24S48.6 4 32 4 2 14.7 2 28c0 6.7 3.5 12.8 9.1 17.2z" fill="#ffdf9f"/><path data-name="opacity" d="M38 47C21.4 47 8 35.8 8 22a21.6 21.6 0 0 1 3.3-11.3C5.6 15 2 21.2 2 28s3.5 12.8 9.1 17.2L5 58l18.8-6.9a37 37 0 0 0 8.2.9c10.3 0 19.5-4.2 24.9-10.6A33.7 33.7 0 0 1 38 47z" fill="#000064" opacity=".14"/><path data-name="opacity" d="M43 23c12 4 11.7-.7 10.4-3.8a17.6 17.6 0 0 0-2.8-3.9c-5.6-5.4-11.8-5.2-15.7-3.5S31 19 43 23z" fill="#fff" opacity=".4"/><path data-name="layer1" d="M34 32a2 2 0 0 1-2 2 2.2 2.2 0 0 1-2-2l-1-15a2.8 2.8 0 0 1 3-3 2.7 2.7 0 0 1 3 3z" fill="#8ca0c8"/><circle data-name="layer1" cx="32" cy="41" r="2" fill="#8ca0c8"/><path data-name="stroke" d="M5 58l18.8-6.9a37.1 37.1 0 0 0 8.2.9c16.6 0 30-10.7 30-24S48.6 4 32 4 2 14.7 2 28c0 6.7 3.5 12.8 9.1 17.2z" fill="none" stroke="#2e4369" stroke-linecap="round" stroke-miterlimit="10" stroke-width="2" stroke-linejoin="round"/><path data-name="stroke" d="M34 32a2 2 0 0 1-4 0l-1-15a2.7 2.7 0 0 1 3-3 2.7 2.7 0 0 1 3 3z" fill="none" stroke="#2e4369" stroke-linecap="round" stroke-miterlimit="10" stroke-width="2" stroke-linejoin="round"/><circle data-name="stroke" cx="32" cy="41" r="2" fill="none" stroke="#2e4369" stroke-linecap="round" stroke-miterlimit="10" stroke-width="2" stroke-linejoin="round"/></svg>