<svg xmlns="http://www.w3.org/2000/svg" viewBox="0 0 64 64" aria-labelledby="title" aria-describedby="desc"><path data-name="layer2" fill="#ebf5ff" d="M46 2H2v56h30.1L46 32V2z"/><path data-name="layer1" fill="#fce364" d="M30 62l16-30 16 30H30z"/><path data-name="opacity" fill="#000064" opacity=".1" d="M43.2 37.2L41 33 29.3 55H6V2H2v56h30.1l1.6-3 9.5-17.8z"/><path data-name="stroke" fill="none" stroke="#2e4369" stroke-linecap="round" stroke-miterlimit="10" stroke-width="2" d="M32.1 58H2V2h44v30M12 2v8m-2 0h4m10-8v8m-2 0h4m10-8v8m-2 0h4m-8 52l16-30 16 30H30zm16-18v6" stroke-linejoin="round"/><circle data-name="stroke" cx="46" cy="55" r="1" fill="none" stroke="#2e4369" stroke-linecap="round" stroke-miterlimit="10" stroke-width="2" stroke-linejoin="round"/></svg>