<svg xmlns="http://www.w3.org/2000/svg" viewBox="0 0 64 64" aria-labelledby="title" aria-describedby="desc"><path data-name="layer1" fill="#fff4e3" d="M32.2 3l-30 25v34h60V28l-30-25z"/><path data-name="opacity" d="M41.3 42.9l1 1L62.2 28l-30-25-30 25 20 15.9 1-1c3.9-3.9 14.2-3.9 18.1 0z" fill="#000064" opacity=".14"/><path data-name="stroke" fill="none" stroke="#2e4369" stroke-linecap="round" stroke-miterlimit="10" stroke-width="2" d="M32 2v29.2M23 23l9 8.2 9-8.2" stroke-linejoin="round"/><path data-name="stroke" fill="none" stroke="#2e4369" stroke-linecap="round" stroke-miterlimit="10" stroke-width="2" d="M40 10l22 18v34H2V28l22-18m18.2 33.9L62 28M2 28l19.9 15.9" stroke-linejoin="round"/><path data-name="stroke" d="M2 62l20.9-19.1c3.9-3.9 14.2-3.9 18.1 0L62 62" fill="none" stroke="#2e4369" stroke-linecap="round" stroke-miterlimit="10" stroke-width="2" stroke-linejoin="round"/></svg>