<svg xmlns="http://www.w3.org/2000/svg" viewBox="0 0 64 64" aria-labelledby="title" aria-describedby="desc"><path data-name="layer1" fill="#dcf0fd" d="M2 2h60v60H2z"/><path data-name="opacity" fill="#000064" opacity=".15" d="M8 6v52h54v4H2V2l6 4z"/><path data-name="opacity" fill="#fff" opacity=".25" d="M62 6H8L2 2h60v4z"/><path data-name="stroke" fill="none" stroke="#2e4369" stroke-linecap="round" stroke-miterlimit="10" stroke-width="2" d="M9 11h22m-14 6h14M11 29h20M17 41h14M11 53h20M9 23h22M9 35h22M9 47h22m6-37v44m17-22H43m5-5l-5 5 5 5" stroke-linejoin="round"/><path data-name="stroke" fill="none" stroke="#2e4369" stroke-linecap="round" stroke-miterlimit="10" stroke-width="2" d="M2 2h60v60H2z" stroke-linejoin="round"/></svg>