<svg xmlns="http://www.w3.org/2000/svg" viewBox="0 0 64 64" aria-labelledby="title" aria-describedby="desc"><path data-name="layer1" d="M49.121 26.122L35.128 12.128l-.012-.012L33 10 16.879 26.122a3 3 0 0 0 4.242 4.242l8.88-8.88v29.517a3 3 0 0 0 6 0V21.486l8.878 8.878a3 3 0 1 0 4.242-4.242z" fill="#bacae9"/><path data-name="stroke" d="M49.121 26.122L35.128 12.128l-.012-.012L33 10 16.879 26.122a3 3 0 0 0 4.242 4.242l8.88-8.88v29.517a3 3 0 0 0 6 0V21.486l8.878 8.878a3 3 0 1 0 4.242-4.242z" fill="none" stroke="#2e4369" stroke-linecap="round" stroke-linejoin="round" stroke-width="2"/></svg>