<svg xmlns="http://www.w3.org/2000/svg" viewBox="0 0 64 64" aria-labelledby="title" aria-describedby="desc"><path data-name="layer2" d="M0 58.877V64h9.083L10.8 44.243C4.209 46.93 0 52.444 0 58.877zM32.875 52H21.913l2.667 12H42v-1.875C42 56.826 37.65 52 32.875 52zM14.8 43.021c-.66.136-1.3.306-1.926.492L11.091 64h11.44l-4.853-21.84a22.089 22.089 0 0 1-2.878.861z" fill="#202020"/><path data-name="layer1" d="M49.352 43.063a19.4 19.4 0 0 0-2.581-.667c-4.318-.927-7.633-1.984-7.759-6.156a17.112 17.112 0 0 0 5.254-8.126c2.923-.628 3.584-4.619 3.584-5.744.013-3.392-1.255-4.648-2.609-5.024V14.96a19.648 19.648 0 0 0-.207-2.769L19.856 6.832a17.437 17.437 0 0 0-1.807 8.128v2.385c-1.257.359-2.647 1.557-2.633 5.113 0 1.053.666 5.065 3.608 5.667A17.031 17.031 0 0 0 24 36.009c0 1.873-1.236 3.311-2.8 4.385-.007.005-.015.006-.022.011s-.008.011-.013.015a13.646 13.646 0 0 1-1.619.938L21.469 50h11.406C38.8 50 44 55.666 44 62.125V64h20v-4.663c0-7.254-4.792-12.577-14.648-16.274zM32 45c-4.1 0-6.438-.955-8.767-3.644a7.329 7.329 0 0 0 2.634-4.079 1 1 0 0 0 .688-1.826 14.751 14.751 0 0 1-5.8-8.517l-.2-.733h-.761c-1.906 0-2.379-3.276-2.379-3.841-.011-2.782.873-3.146 1.644-3.154l.99-.01V17.07l23.191.9v1.221l.982.018c.764.013 1.638.383 1.627 3.248 0 .463-.471 3.718-2.368 3.739l-.752.009-.2.726a14.584 14.584 0 0 1-6.011 8.656 1 1 0 0 0 .522 1.854c.027 0 .055-.009.082-.011a6.7 6.7 0 0 0 2.864 4.579C37.8 44.356 35.948 45 32 45zm0-45h-1a12.437 12.437 0 0 0-10 5.029l23.61 5.027A13.067 13.067 0 0 0 32 0z" fill="#202020"/></svg>