<svg xmlns="http://www.w3.org/2000/svg" viewBox="0 0 64 64" aria-labelledby="title" aria-describedby="desc"><path data-name="layer3" d="M15 44C7.311 45.588 2 51.026 2 58.877V62h21l-3.951-19.308A22.606 22.606 0 0 1 15 44z" fill="#cbe5ff"/><path data-name="layer3" d="M43 61.125A10.125 10.125 0 0 0 32.875 51H20.749L23 62h20zm1.24-46.165C44.24 5.6 37.966 2 32 2h-1c-5.963 0-11.951 3.6-11.951 12.96v1.071l25.191.979z" fill="#cbe5ff"/><path data-name="opacity" d="M2 58.876V62h8.348l1.484-17.066C5.894 47.219 2 52.159 2 58.876zM43 62v-.875A10.076 10.076 0 0 0 42.116 57H21.977L23 62z" fill="#000064" opacity=".16"/><path data-name="layer2" d="M49 44c-1.713-.642-4.967-.879-7.494-2.2C38.755 45.092 36.626 46 32 46c-4.826 0-7.463-1.264-10.207-4.8a15.948 15.948 0 0 1-2.744 1.5l1.7 8.3h12.126A10.125 10.125 0 0 1 43 61.125V62h19v-2.663C62 51.559 57 47 49 44z" fill="#f66b51"/><path data-name="layer1" d="M32 46c4.626 0 6.755-.908 9.506-4.2A6.062 6.062 0 0 1 38 36l.031-.245a16.024 16.024 0 0 0 5.462-8.555c2.723-.032 3.356-3.89 3.356-4.739s.106-4.2-2.609-4.248v-1.2l-25.191-.979v2.175c-2.742.026-2.633 3.4-2.633 4.252s.636 4.743 3.379 4.743a16.163 16.163 0 0 0 5.256 8.393L25 36c0 2.268-1.43 3.961-3.207 5.194C24.537 44.736 27.174 46 32 46z" fill="#f4cfc9"/><path data-name="opacity" d="M36.951 36a21.422 21.422 0 0 1-6-1c-8.1-2.7-8.1-14.307-7.289-18.788L19 16.031v2.175c-2.742.026-2.633 3.4-2.633 4.252S17 27.2 19.745 27.2A16.163 16.163 0 0 0 25 35.594l-.049.406c0 2.268-1.43 3.961-3.207 5.194a17.1 17.1 0 0 0 1.418 1.6c.867-.8 4.325-3.8 7.789-3.8a7.5 7.5 0 0 0 6-2.994z" fill="#000064" opacity=".16"/><path data-name="opacity" d="M31.951 2h-1C24.988 2 19 5.6 19 14.96v1.071l2.751.107 2.2-.138s-1-13 8-14z" fill="#000064" opacity=".16"/><path data-name="stroke" d="M37.04 36.441a15.5 15.5 0 0 0 6.453-9.241c2.723-.032 3.356-3.89 3.356-4.739s.106-4.2-2.609-4.248v-1.2l-25.191-.979v2.175c-2.742.026-2.633 3.4-2.633 4.252s.636 4.743 3.379 4.743a15.64 15.64 0 0 0 6.218 9.091M41.506 41.8C38.755 45.092 36.626 46 32 46c-4.826 0-7.463-1.264-10.207-4.8" fill="none" stroke="#2e4369" stroke-linecap="round" stroke-miterlimit="10" stroke-width="2" stroke-linejoin="round"/><path data-name="stroke" d="M25 36c0 3.382-3.178 5.493-5.951 6.692l1.7 8.308h12.126A10.125 10.125 0 0 1 43 61.125V62h19v-2.663C62 51.559 57 47 49 44c-3.052-1.145-11-1-11-8" fill="none" stroke="#2e4369" stroke-linecap="round" stroke-miterlimit="10" stroke-width="2" stroke-linejoin="round"/><path data-name="stroke" d="M15 44C7.311 45.588 2 51.026 2 58.877V62h21l-3.951-19.308A22.606 22.606 0 0 1 15 44zm-2.97.85L10 62" fill="none" stroke="#2e4369" stroke-linecap="round" stroke-miterlimit="10" stroke-width="2" stroke-linejoin="round"/><path data-name="stroke" d="M43 61.125A10.125 10.125 0 0 0 32.875 51H20.749L23 62h20zm1.24-46.165C44.24 5.6 37.966 2 32 2h-1c-5.963 0-11.951 3.6-11.951 12.96v1.071l25.191.979zM21.052 7.064L44 11.949" fill="none" stroke="#2e4369" stroke-linecap="round" stroke-miterlimit="10" stroke-width="2" stroke-linejoin="round"/></svg>