<svg xmlns="http://www.w3.org/2000/svg" viewBox="0 0 64 64" aria-labelledby="title" aria-describedby="desc"><path data-name="layer2" d="M48 16V4.7C41.1 8 34 15.1 34 30c12 0 28-2.3 28-28z" fill="#40578b"/><path data-name="layer1" d="M24 46.5V43a1 1 0 0 1 1-1h1a1.1 1.1 0 0 0 1-1v-4a1 1 0 0 0-1-1H14a1 1 0 0 0-1 1v4a1 1 0 0 0 1 1h1a1 1 0 0 1 1 1v3.5A18.6 18.6 0 0 0 2 62h36a18.6 18.6 0 0 0-14-15.5z" fill="#7b8baf"/><path data-name="opacity" d="M20 46.5V43a1 1 0 0 0-1-1h-1a1 1 0 0 1-1-1v-4a1 1 0 0 1 1-1h-4a1 1 0 0 0-1 1v4a1 1 0 0 0 1 1h1a1 1 0 0 1 1 1v3.5A18.6 18.6 0 0 0 2 62h4a18.6 18.6 0 0 1 14-15.5z" fill="#000028" opacity=".2"/><path data-name="stroke" d="M48 4.7C41.1 8 34 15.1 34 30c12 0 28-2.3 28-28L29.9 34.1M48 4.7V16m-.1 0h11.9M42 22h14.5M24 46.5V43a1 1 0 0 1 1-1h1a1.1 1.1 0 0 0 1-1v-4a1 1 0 0 0-1-1H14a1 1 0 0 0-1 1v4a1 1 0 0 0 1 1h1a1 1 0 0 1 1 1v3.5A18.6 18.6 0 0 0 2 62h36a18.6 18.6 0 0 0-14-15.5z" fill="none" stroke="#2e4369" stroke-linecap="round" stroke-linejoin="round" stroke-width="2"/></svg>