<svg xmlns="http://www.w3.org/2000/svg" viewBox="0 0 64 64" aria-labelledby="title" aria-describedby="desc"><path data-name="layer2" d="M62.6.2a2 2 0 0 0-2.2.4L49.9 11.2V4.7a2 2 0 0 0-.2-.9 2 2 0 0 0-2.7-1c-6.8 3.3-14.8 10.5-15.1 26.4l-4.5 4.5a2 2 0 1 0 2.8 2.8l4.5-4.5c8.7 0 29.2-1 29.2-30A2 2 0 0 0 62.6.2zM38.9 27.8L59.6 7.1C58.1 22.8 49.3 27 38.9 27.8z" fill="#202020"/><path data-name="layer1" d="M22.1 48.5V45a1 1 0 0 1 1-1h1a1.1 1.1 0 0 0 1-1v-4a1 1 0 0 0-1-1h-12a1 1 0 0 0-1 1v4a1 1 0 0 0 1 1h1a1 1 0 0 1 1 1v3.5A18.6 18.6 0 0 0 .1 64h36a18.6 18.6 0 0 0-14-15.5z" fill="#202020"/></svg>