<svg xmlns="http://www.w3.org/2000/svg" viewBox="0 0 64 64" aria-labelledby="title" aria-describedby="desc"><circle data-name="layer1" cx="32" cy="32" r="8" fill="#202020"/><path data-name="layer2" d="M18 32a13.9 13.9 0 0 1 1.4-6H2v12h17.4a13.9 13.9 0 0 1-1.4-6z" fill="#202020"/><path data-name="layer1" d="M32 46a13.9 13.9 0 0 1-9.8-4H2v14a4 4 0 0 0 4 4h52a4 4 0 0 0 4-4V42H41.8a13.9 13.9 0 0 1-9.8 4z" fill="#202020"/><path data-name="layer2" d="M46 32a13.9 13.9 0 0 1-1.4 6H62V26H44.6a13.9 13.9 0 0 1 1.4 6z" fill="#202020"/><path data-name="layer1" d="M58 4H6a4 4 0 0 0-4 4v14h20.2a14 14 0 0 1 19.6 0H62V8a4 4 0 0 0-4-4zm-7 14a3 3 0 1 1 3-3 3 3 0 0 1-3 3z" fill="#202020"/></svg>