<svg xmlns="http://www.w3.org/2000/svg" viewBox="0 0 64 64" aria-labelledby="title" aria-describedby="desc"><path data-name="layer1" d="M48.3 36.919h15.5c.1-1.1.2-2.2.2-3.305a28.684 28.684 0 0 0-3.9-14.524c2.6-6.811 2.5-12.621-1-16.026-3.3-3.205-12-2.7-21.9 1.7a16.176 16.176 0 0 0-2.2-.1A28.86 28.86 0 0 0 7 26.6c4.3-5.409 8.7-9.416 14.7-12.32l-4.2 4.207C1.7 34.315-3.3 54.949 2.1 60.258c4.1 4.107 11.4 3.406 19.9-.8a29 29 0 0 0 40.5-16.529H46.8a12.7 12.7 0 0 1-22.4 0 12.458 12.458 0 0 1-1.5-6.01h25.4zm-25.4-7.612a12.22 12.22 0 0 1 24.4 0zM59 6.369c2.2 2.2 2.2 6.31.3 11.419A29.687 29.687 0 0 0 45.8 6.769c5.9-2.604 10.8-2.904 13.2-.4zM6.1 59.256c-2.8-2.8-2-8.714 1.7-15.826a30.07 30.07 0 0 0 12.3 15.125c-6.2 2.804-11.4 3.305-14 .701z" fill="#202020"/></svg>