<svg xmlns="http://www.w3.org/2000/svg" viewBox="0 0 64 64" aria-labelledby="title" aria-describedby="desc"><path data-name="layer3" d="M14 59a3 3 0 0 0 3 3h30a3 3 0 0 0 3-3v-9H14zM50 5a3 3 0 0 0-3-3H17a3 3 0 0 0-3 3v5h36z" fill="#536897"/><path data-name="layer2" fill="#a0d6ef" d="M14 10h36v40H14z"/><circle data-name="layer1" cx="32" cy="56" r="2" fill="#7b8baf"/><path data-name="opacity" d="M18 5a3 3 0 0 1 3-3h-4a3 3 0 0 0-3 3v5h4zm0 54v-9h-4v9a3 3 0 0 0 3 3h4a3 3 0 0 1-3-3z" fill="#000064" opacity=".14"/><path data-name="opacity" fill="#fff" opacity=".25" d="M50 10h-7.5L14 38.5V47l36-36v-1zm0 12L22 50h26l2-2V22z"/><path data-name="stroke" d="M14 59a3 3 0 0 0 3 3h30a3 3 0 0 0 3-3v-9H14zM50 5a3 3 0 0 0-3-3H17a3 3 0 0 0-3 3v5h36zm0 45V10m-36 0v40" fill="none" stroke="#2e4369" stroke-linecap="round" stroke-linejoin="round" stroke-width="2"/><circle data-name="stroke" cx="32" cy="56" r="2" fill="none" stroke="#2e4369" stroke-linecap="round" stroke-linejoin="round" stroke-width="2"/></svg>