<svg xmlns="http://www.w3.org/2000/svg" viewBox="0 0 64 64" aria-labelledby="title" aria-describedby="desc"><path data-name="layer2" d="M55 15a2 2 0 0 0-2 2v32.5c0 3.1-2.1 5.5-5 5.5a5 5 0 0 1-5-5V11a10 10 0 1 0-20 0H3a2 2 0 0 0-2 2v16h32V13a2 2 0 0 0-2-2h-4a6 6 0 1 1 12 0v39a9 9 0 0 0 9 9 9.1 9.1 0 0 0 9-9.5V17a2 2 0 0 0-2-2zm6 0a2 2 0 0 0-2 2v4a2 2 0 1 0 4 0v-4a2 2 0 0 0-2-2z" fill="#202020"/><path data-name="layer2" d="M49 39a2 2 0 0 0 2-2v-4a2 2 0 1 0-4 0v4a2 2 0 0 0 2 2z" fill="#202020"/><path data-name="layer1" d="M1 61a2 2 0 0 0 2 2h28a2 2 0 0 0 2-2V33H1zm16-22a8 8 0 1 1-8 8 8 8 0 0 1 8-8z" fill="#202020"/></svg>