<svg xmlns="http://www.w3.org/2000/svg" viewBox="0 0 64 64" aria-labelledby="title" aria-describedby="desc"><path data-name="layer1" d="M48 25h6a1 1 0 0 0 0-2h-6a1 1 0 0 0 0 2zm-12 0h2v2a1 1 0 0 0 2 0v-2h2a1 1 0 0 0 0-2h-2v-2a1 1 0 0 0-2 0v2h-2a1 1 0 0 0 0 2zm2 20v8a9 9 0 0 1-18 0V22a7 7 0 0 0-14 0v4a3 3 0 0 0-3 3v8a3 3 0 0 0 3 3v5a1 1 0 0 0 2 0v-5a3 3 0 0 0 3-3v-8a3 3 0 0 0-3-3v-4a5 5 0 0 1 10 0v31a11 11 0 0 0 22 0v-8z" fill="#202020"/><path data-name="layer2" d="M57 5h-5.3a7 7 0 0 0-13.4 0H33a6.007 6.007 0 0 0-6 6v26a6.007 6.007 0 0 0 6 6h24a6.007 6.007 0 0 0 6-6V11a6.007 6.007 0 0 0-6-6zM45 2a4.969 4.969 0 0 1 4.567 3h-9.134A4.969 4.969 0 0 1 45 2zm16 31H29V15h32z" fill="#202020"/><path data-name="layer1" d="M46 45v18a1 1 0 0 0 2 0V45z" fill="#202020"/></svg>