<svg xmlns="http://www.w3.org/2000/svg" viewBox="0 0 64 64" aria-labelledby="title" aria-describedby="desc"><path data-name="layer4" d="M16.5 17.3a5.133 5.133 0 0 1 7.4 0l.5.5 6.3-6.3-.4-.5A14.2 14.2 0 0 0 17 7.2 8.6 8.6 0 0 0 8.5 0 8.515 8.515 0 0 0 0 8.6 8.575 8.575 0 0 0 6.7 17a14.12 14.12 0 0 0 3.6 14.1l14.2 14.2 6.3-6.3-14.3-14.3a5.313 5.313 0 0 1 0-7.4z" fill="#7ac143"/><path data-name="layer3" d="M63.8 8.6a8.592 8.592 0 0 0-17.1-1.2 14.222 14.222 0 0 0-14 3.6L18.5 25.2l6.3 6.3L39 17.3a5.133 5.133 0 0 1 7.4 0 5.313 5.313 0 0 1 0 7.4l-.5.5 6.3 6.3.5-.5a14.167 14.167 0 0 0 3.6-14 8.442 8.442 0 0 0 7.5-8.4z" fill="#f9a541"/><path data-name="layer2" d="M56.5 46.9a14.069 14.069 0 0 0-3.8-13.4L38.6 19.3l-6.3 6.3 14.2 14.3a5.233 5.233 0 0 1-7.4 7.4l-.5-.5-6.3 6.3.5.5A14.03 14.03 0 0 0 47 57.1a8.583 8.583 0 0 0 17-1.7 8.792 8.792 0 0 0-7.5-8.5z" fill="#f44321"/><path data-name="layer1" d="M38.2 33L24 47.3a5.221 5.221 0 0 1-7.4 0 5.133 5.133 0 0 1 0-7.4l.5-.5-6.4-6.4-.5.5a14.2 14.2 0 0 0-3.7 13.6 8.564 8.564 0 0 0 2 16.9 8.4 8.4 0 0 0 8.3-6.6 14.261 14.261 0 0 0 13.5-3.7l14.2-14.2z" fill="#5091cd"/></svg>