<svg xmlns="http://www.w3.org/2000/svg" viewBox="0 0 64 64" aria-labelledby="title" aria-describedby="desc"><path data-name="layer2" d="M54 8.2v18.1l-6-4-6 4V9.9c-5.9 1.5-10 4-10 8.1v44c0-8 16-10 30-10V8zM32 18C32 10 16 8 2 8v44c14 0 30 2 30 10z" fill="#dbf1ff"/><path data-name="opacity" d="M17 8.9v44c5.6.8 10.4 2.3 13 4.7v-44c-2.6-2.4-7.4-3.9-13-4.7z" fill="#fff" opacity=".3"/><path data-name="opacity" d="M48 22.3l-6 4V9.9l-1 .3c-5.3 1.5-9 4-9 7.8v44c0-3.8 3.7-6.3 9-7.8V28.7l5-3.3 6 4V25z" fill="#000064" opacity=".12"/><path data-name="layer1" d="M42 26.3l6-4 6 4V4.4a67.4 67.4 0 0 0-12 1.7z" fill="#f27e7c"/><path data-name="stroke" d="M32 17.8C32 9.8 16 8 2 8v44c14 0 30 2 30 10zm-8 2.5A60.7 60.7 0 0 0 10 18m14 9.8a60.7 60.7 0 0 0-14-2.3m14 10.3a60.7 60.7 0 0 0-14-2.3m14 9.8A60.7 60.7 0 0 0 10 41m30-5.2a60.7 60.7 0 0 1 14-2.3m-14 9.8A60.7 60.7 0 0 1 54 41" fill="none" stroke="#2e4369" stroke-linecap="round" stroke-miterlimit="10" stroke-width="2" stroke-linejoin="round"/><path data-name="stroke" d="M54 8.1c2.7-.2 5.4-.1 8-.1v44c-14 0-30 2-30 10m0-44.2c0-4.1 4.1-6.6 10-8.1" fill="none" stroke="#2e4369" stroke-linecap="round" stroke-miterlimit="10" stroke-width="2" stroke-linejoin="round"/><path data-name="stroke" d="M42 26.2l6-4 6 4v-22a67.4 67.4 0 0 0-12 1.7z" fill="none" stroke="#2e4369" stroke-linecap="round" stroke-miterlimit="10" stroke-width="2" stroke-linejoin="round"/></svg>