<svg xmlns="http://www.w3.org/2000/svg" viewBox="0 0 64 64" aria-labelledby="title" aria-describedby="desc"><path data-name="layer2" d="M24 51.9a8 8 0 0 1 8 8v-44a8 8 0 0 0-8-8H2v44zm8-36a8 8 0 0 1 8-8h22v44H40a8 8 0 0 0-8 8" fill="none" stroke="#202020" stroke-miterlimit="10" stroke-width="2" stroke-linejoin="round" stroke-linecap="round"/><path data-name="layer1" fill="none" stroke="#202020" stroke-miterlimit="10" stroke-width="2" d="M10 17.9h14m-14 8h14m-14 8h14m-14 8h14m16-24h14m-14 8h14m-14 8h14m-14 8h14" stroke-linejoin="round" stroke-linecap="round"/></svg>