<svg xmlns="http://www.w3.org/2000/svg" viewBox="0 0 64 64" aria-labelledby="title" aria-describedby="desc"><path data-name="layer2" fill="#fff" d="M2 42v20h60V42"/><circle data-name="layer1" cx="40" cy="52" r="3" fill="#f25b7c"/><circle data-name="layer1" cx="52" cy="52" r="3" fill="#f25b7c"/><circle data-name="opacity" cx="38" cy="54" r="3" fill="#000064" opacity=".15"/><circle data-name="opacity" cx="50" cy="54" r="3" fill="#000064" opacity=".15"/><path data-name="layer1" fill="#f25b7c" d="M2 34h60v8H2z"/><path data-name="opacity" fill="#000064" opacity=".15" d="M2 34h5v28H2z"/><circle data-name="stroke" cx="40" cy="52" r="3" fill="none" stroke="#2e4369" stroke-linecap="round" stroke-linejoin="round" stroke-width="2"/><circle data-name="stroke" cx="52" cy="52" r="3" fill="none" stroke="#2e4369" stroke-linecap="round" stroke-linejoin="round" stroke-width="2"/><path data-name="stroke" fill="none" stroke="#2e4369" stroke-linecap="round" stroke-linejoin="round" stroke-width="2" d="M14 44v12m-6-6h12m12-16v-7a9 9 0 0 1 9-9h5a8 8 0 0 0 8-8V2M2 34h60v8H2z"/><path data-name="stroke" fill="none" stroke="#2e4369" stroke-linecap="round" stroke-linejoin="round" stroke-width="2" d="M2 42v20h60V42"/></svg>