<svg xmlns="http://www.w3.org/2000/svg" viewBox="0 0 64 64" aria-labelledby="title" aria-describedby="desc"><path data-name="layer1" d="M62 0H2a2 2 0 0 0-2 2v60a2 2 0 0 0 2 2h60a2 2 0 0 0 2-2V2a2 2 0 0 0-2-2zM31.99 54H10a1 1 0 0 1 0-2h21.99a1 1 0 0 1 0 2zM54 48H10a1 1 0 0 1 0-2h44a1 1 0 0 1 0 2zm0-6H10a1 1 0 0 1 0-2h44a1 1 0 0 1 0 2zm0-6H10a1 1 0 0 1 0-2h44a1 1 0 0 1 0 2zm0-6H10a1 1 0 0 1 0-2h44a1 1 0 0 1 0 2zm0-6H10a1 1 0 0 1 0-2h44a1 1 0 0 1 0 2zm0-6H10a1 1 0 0 1 0-2h44a1 1 0 0 1 0 2zm0-6H10a1 1 0 0 1 0-2h44a1 1 0 0 1 0 2z" fill="#202020"/></svg>