<svg viewBox="0 0 64 64" xmlns="http://www.w3.org/2000/svg" aria-labelledby="title" aria-describedby="desc"><path fill="#e2c98a" d="M57.6 6.394a15 15 0 0 0-23.788 17.752L13.607 44.353 7.66 38.4 2 44.061l5.949 5.948-4.7 4.7a4.272 4.272 0 0 0 6.041 6.042l30.567-30.564A15 15 0 0 0 57.6 6.394zM51.941 21.95a7 7 0 1 1 0-9.9 7 7 0 0 1 0 9.9z" data-name="layer1"/><path opacity=".16" fill="#000028" d="M57.605 6.393a15.164 15.164 0 0 0-1.045-.944 14.994 14.994 0 0 1-18.7 22.735L7.3 58.747a4.26 4.26 0 0 1-4.858.817 4.229 4.229 0 0 0 .818 1.185 4.272 4.272 0 0 0 6.041 0l30.558-30.563A15 15 0 0 0 57.605 6.393z" data-name="opacity"/><path stroke-width="2" stroke-linejoin="round" stroke-linecap="round" stroke="#2e4369" fill="none" d="M57.6 6.393a15 15 0 0 0-23.788 17.753l-20.2 20.206L7.661 38.4 2 44.06l5.949 5.948-4.7 4.7A4.272 4.272 0 1 0 9.3 60.749l30.558-30.563A15 15 0 0 0 57.6 6.393z" data-name="stroke"/><circle stroke-width="2" stroke-linejoin="round" stroke-linecap="round" stroke="#2e4369" fill="none" transform="rotate(-45 46.991 17)" r="7.001" cy="17" cx="46.992" data-name="stroke"/></svg>