<svg xmlns="http://www.w3.org/2000/svg" viewBox="0 0 64 64" aria-labelledby="title" aria-describedby="desc"><rect data-name="layer2" x="3" y="26" width="58" height="36" rx="2" ry="2" fill="#c0cfe9"/><path data-name="layer1" fill="#8fa9d8" d="M10 32h4v4h-4zm10 0h4v4h-4zm10 0h4v4h-4zm10 0h4v4h-4zm10 0h4v4h-4zM10 42h4v4h-4zm0 10h4v4h-4zm10 0h34v4H20zm0-10h4v4h-4zm10 0h4v4h-4zm10 0h4v4h-4zm10 0h4v4h-4z"/><path data-name="opacity" fill="#000064" opacity=".14" d="M8 34h4v4H8zm10 0h4v4h-4zm10 0h4v4h-4zm10 0h4v4h-4zm10 0h4v4h-4zM8 44h4v4H8zm0 10h4v4H8zm10 0h34v4H18zm0-10h4v4h-4zm10 0h4v4h-4zm10 0h4v4h-4zm10 0h4v4h-4z"/><rect data-name="stroke" x="3" y="26" width="58" height="36" rx="2" ry="2" fill="none" stroke="#2e4369" stroke-linecap="round" stroke-linejoin="round" stroke-width="2"/><path data-name="stroke" fill="none" stroke="#2e4369" stroke-linecap="round" stroke-linejoin="round" stroke-width="2" d="M10 32h4v4h-4zm10 0h4v4h-4zm10 0h4v4h-4zm10 0h4v4h-4zm10 0h4v4h-4zM10 42h4v4h-4zm0 10h4v4h-4zm10 0h34v4H20zm0-10h4v4h-4zm10 0h4v4h-4zm10 0h4v4h-4zm10 0h4v4h-4zM31 26v-1.3a6.7 6.7 0 0 1 6.7-6.7H55a6 6 0 0 0 6-6 6 6 0 0 0-6-6H27a4 4 0 0 1-4-4"/></svg>