<svg xmlns="http://www.w3.org/2000/svg" viewBox="0 0 64 64" aria-labelledby="title" aria-describedby="desc"><path data-name="layer2" d="M17 6C8.625 6 .019 13.545.019 28.4S9.993 46 14 46s7-2 7-8c0-3.5-3.058-6.23-3.826-6.862a.1.1 0 0 1 .051-.17C18.069 30.824 21 30.1 21 27a4.317 4.317 0 0 0-2.685-3.871.1.1 0 0 1 .022-.185C19.857 22.661 26 21.134 26 15c0-5-2.2-9-9-9zm30.019 0C55.394 6 64 13.545 64 28.4S54.026 46 50.019 46s-7-2-7-8c0-3.5 3.058-6.23 3.826-6.862a.1.1 0 0 0-.051-.17c-.844-.144-3.775-.866-3.775-3.968a4.317 4.317 0 0 1 2.681-3.871.1.1 0 0 0-.022-.185c-1.52-.284-7.663-1.811-7.663-7.945C38.019 10 40.222 6 47.019 6z" fill="#202020"/><path data-name="layer1" d="M41.019 27c0-.028.005-.054.006-.082h-.024c-2.829-.479-6-2.956-6-5.916V2H29v19c0 2.96-3.172 5.437-6 5.916 0 .028.006.055.006.084a5.521 5.521 0 0 1-1.585 4H23a6.018 6.018 0 0 1 6 6v22h6V37a6.018 6.018 0 0 1 6-6h1.6a5.521 5.521 0 0 1-1.581-4z" fill="#202020"/></svg>