<svg xmlns="http://www.w3.org/2000/svg" viewBox="0 0 64 64" aria-labelledby="title" aria-describedby="desc"><path data-name="layer3" fill="#ffe3c2" d="M12 24h40l8 36H4l8-36z"/><circle data-name="layer2" cx="32" cy="42" r="10" fill="#f16262"/><path data-name="opacity" d="M22 42a10 10 0 0 1 1.2-4.8 10 10 0 1 0 13.6 13.6A10 10 0 0 1 22 42z" fill="#101129" opacity=".25"/><path data-name="layer1" d="M58.4 4.6a2 2 0 0 0-2.8 0L52.2 8H11.8L8.4 4.6a2 2 0 0 0-2.8 2.8l4 4a2 2 0 0 0 1.4.6h19v12h4V12h19a2 2 0 0 0 1.4-.5l4-4a2 2 0 0 0 0-2.9z" fill="#c4d3e0"/><path data-name="stroke" fill="none" stroke="#2f446a" stroke-linecap="round" stroke-linejoin="round" stroke-width="2" d="M12 24h40l8 36H4l8-36z"/><circle data-name="stroke" cx="32" cy="42" r="10" fill="none" stroke="#2f446a" stroke-linecap="round" stroke-linejoin="round" stroke-width="2"/><path data-name="stroke" fill="none" stroke="#2f446a" stroke-linecap="round" stroke-linejoin="round" stroke-width="2" d="M32 42l7.1-7.1M58.4 4.6a2 2 0 0 0-2.8 0L52.2 8H11.8L8.4 4.6a2 2 0 0 0-2.8 2.8l4 4a2 2 0 0 0 1.4.6h19v12h4V12h19a2 2 0 0 0 1.4-.5l4-4a2 2 0 0 0 0-2.9z"/></svg>