<svg xmlns="http://www.w3.org/2000/svg" viewBox="0 0 64 64" aria-labelledby="title" aria-describedby="desc"><path data-name="layer2" fill="#202020" d="M37 20h6v3h-6zm-16 0h6v3h-6z"/><path data-name="layer2" d="M63 22a1 1 0 0 0 0-2H53v3h4v27H7V23h4v-3H1a1 1 0 0 0 0 2h3v28H2a2 2 0 0 0-2 2v7a2 2 0 0 0 2 2h60a2 2 0 0 0 2-2v-7a2 2 0 0 0-2-2h-2V22z" fill="#202020"/><path data-name="layer1" d="M11 26.438V41a5 5 0 0 0 10 0V9h1a1 1 0 0 0 0-2H10a1 1 0 0 0 0 2h1v17.438zM13 9h6v8h-6zm41 0a1 1 0 0 0 0-2H42a1 1 0 0 0 0 2h1v32a5 5 0 0 0 10 0V9zm-3 15h-6V9h6zm-24-1v18a5 5 0 0 0 10 0V9h1a1 1 0 0 0 0-2H26a1 1 0 0 0 0 2h1v14zm2-14h6v20.083h-6z" fill="#202020"/></svg>