<svg xmlns="http://www.w3.org/2000/svg" viewBox="0 0 64 64" aria-labelledby="title" aria-describedby="desc"><path data-name="layer2" d="M63.6 61.6A16.5 16.5 0 0 0 50.3 49c-5.5-1-7.4-2.1-8-3.2 4-.3 11.9-1.7 15.3-6.8l.9-1.3-1.1-1.2c-7.3-7.4-7.4-20-7.4-20.1C50 4.4 39.2 0 32 0c-7.2 0-18 4.4-18 16.4 0 .1-.1 12.7-7.5 20.2l-1.1 1.2.9 1.3c3.4 5.1 11.5 6.4 15.4 6.8-.6 1-2.5 2.1-8.1 3.1A16.5 16.5 0 0 0 .4 61.6L0 64h64zM24.9 60l-7.1-7.8 2.7-.9a2 2 0 0 0 1.5.7 2 2 0 0 0 1.9-2.5 5.8 5.8 0 0 0 2.1-5.1 2 2 0 0 0 1-3.7c-4.3-2.6-7-8.3-7-14.6v-4.6c5.5-1.4 9.7-5.5 11.9-8.1 2.1 2.6 6.3 6.8 12 8.2V26c0 6.2-2.8 11.9-7 14.6a2 2 0 0 0 1 3.7 6 6 0 0 0 2.1 5.1 2 2 0 0 0 2 2.6 2 2 0 0 0 1.4-.6h.1l2.7.9-7 7.8z" fill="#202020"/><path data-name="layer1" d="M33.2 54.4a2 2 0 0 0-2.4 3.2 2 2 0 0 0 2.4-3.2zm-8.6-1.8A2 2 0 0 0 24 54a2 2 0 0 0 2 2 2 2 0 0 0 1.4-.6A2 2 0 0 0 28 54a2 2 0 0 0-.6-1.4 2.1 2.1 0 0 0-2.8 0zM38 52a2 2 0 0 0 0 4 2 2 0 1 0 0-4z" fill="#202020"/></svg>