<svg xmlns="http://www.w3.org/2000/svg" viewBox="0 0 64 64" aria-labelledby="title" aria-describedby="desc"><path data-name="layer2" d="M17.8 24.7a3.9 3.9 0 0 0 3-4.4c-.3-3-1.4-7.3 11.2-7.3s11.5 4.3 11.2 7.3a3.9 3.9 0 0 0 3 4.4l9.9 2c1.3.2 3.2.8 4.6-1.1a11.4 11.4 0 0 0-2-13.4C53.5 7.2 43.1 5 32 5S10.5 7.2 5.3 12.3a11.4 11.4 0 0 0-2 13.4c1.4 1.8 3.3 1.3 4.6 1.1z" fill="#9cf"/><path data-name="layer2" d="M43.2 20.3c.3-3 1.4-7.3-11.2-7.3s-11.5 4.3-11.2 7.3a3.9 3.9 0 0 1-3 4.4L12 25.9V53a6 6 0 0 0 6 6h28a6 6 0 0 0 6-6V26.3l.2-.4-6-1.3a3.9 3.9 0 0 1-3-4.3z" fill="#9cf"/><rect data-name="layer1" x="20" y="30" width="4" height="4" rx="1" ry="1" fill="#dbf1ff"/><rect data-name="layer1" x="30" y="30" width="4" height="4" rx="1" ry="1" fill="#dbf1ff"/><rect data-name="layer1" x="40" y="30" width="4" height="4" rx="1" ry="1" fill="#dbf1ff"/><rect data-name="layer1" x="20" y="39" width="4" height="4" rx="1" ry="1" fill="#dbf1ff"/><rect data-name="layer1" x="30" y="39" width="4" height="4" rx="1" ry="1" fill="#dbf1ff"/><rect data-name="layer1" x="40" y="39" width="4" height="4" rx="1" ry="1" fill="#dbf1ff"/><rect data-name="layer1" x="20" y="48" width="4" height="4" rx="1" ry="1" fill="#dbf1ff"/><rect data-name="layer1" x="30" y="48" width="4" height="4" rx="1" ry="1" fill="#dbf1ff"/><rect data-name="layer1" x="40" y="48" width="4" height="4" rx="1" ry="1" fill="#dbf1ff"/><path data-name="opacity" d="M29 36h2a1 1 0 0 0 1-1v-1h-1a1 1 0 0 1-1-1v-1h-1a1 1 0 0 0-1 1v2a1 1 0 0 0 1 1zm10 0h2a1 1 0 0 0 1-1v-1h-1a1 1 0 0 1-1-1v-1h-1a1 1 0 0 0-1 1v2a1 1 0 0 0 1 1zm0 9h2a1 1 0 0 0 1-1v-1h-1a1 1 0 0 1-1-1v-1h-1a1 1 0 0 0-1 1v2a1 1 0 0 0 1 1zm-10 0h2a1 1 0 0 0 1-1v-1h-1a1 1 0 0 1-1-1v-1h-1a1 1 0 0 0-1 1v2a1 1 0 0 0 1 1zm-10 0h2a1 1 0 0 0 1-1v-1h-1a1 1 0 0 1-1-1v-1h-1a1 1 0 0 0-1 1v2a1 1 0 0 0 1 1zm22 7a1 1 0 0 1-1-1v-1h-1a1 1 0 0 0-1 1v2a1 1 0 0 0 1 1h2a1 1 0 0 0 1-1v-1zm-10 0a1 1 0 0 1-1-1v-1h-1a1 1 0 0 0-1 1v2a1 1 0 0 0 1 1h2a1 1 0 0 0 1-1v-1zM19 36h2a1 1 0 0 0 1-1v-1h-1a1 1 0 0 1-1-1v-1h-1a1 1 0 0 0-1 1v2a1 1 0 0 0 1 1z" fill="#000064" opacity=".15"/><path data-name="opacity" d="M46.2 24.7a3.9 3.9 0 0 1-3-4.4c.3-3 1.4-7.3-11.2-7.3s-11.5 4.3-11.2 7.3a3.9 3.9 0 0 1-3 4.4L12 25.9V53a6 6 0 0 0 6 6h28a6 6 0 0 0 5.7-4H23a6 6 0 0 1-3.3-1H21a1 1 0 0 0 1-1v-1h-1a1 1 0 0 1-1-1v-1h-1a1 1 0 0 0-1 1v1.3a6 6 0 0 1-1-3.3V29.9l.8-.2a3.9 3.9 0 0 0 3-4.4c-.3-3-1.4-7.3 11.2-7.3s11.5 4.3 11.2 7.3a3.9 3.9 0 0 0 3 4.4l5.8 1.2v-4.6l.2-.4z" fill="#000064" opacity=".15"/><path data-name="opacity" d="M4.3 15.3C9.5 10.2 19.9 8 31 8s21.5 2.2 26.7 7.3a11.2 11.2 0 0 1 3.1 10.1 11.4 11.4 0 0 0-2.1-13.1C53.5 7.2 43.1 5 32 5S10.5 7.2 5.3 12.3a10.8 10.8 0 0 0-3.1 5.9 11.1 11.1 0 0 1 2.1-2.9z" fill="#fff" opacity=".25"/><path data-name="stroke" d="M52 26.3V53a6 6 0 0 1-6 6H18a6 6 0 0 1-6-6V26.3" fill="none" stroke="#2e4369" stroke-linecap="round" stroke-miterlimit="10" stroke-width="2" stroke-linejoin="round"/><rect data-name="stroke" x="20" y="30" width="4" height="4" rx="1" ry="1" fill="none" stroke="#2e4369" stroke-linecap="round" stroke-miterlimit="10" stroke-width="2" stroke-linejoin="round"/><rect data-name="stroke" x="30" y="30" width="4" height="4" rx="1" ry="1" fill="none" stroke="#2e4369" stroke-linecap="round" stroke-miterlimit="10" stroke-width="2" stroke-linejoin="round"/><rect data-name="stroke" x="40" y="30" width="4" height="4" rx="1" ry="1" fill="none" stroke="#2e4369" stroke-linecap="round" stroke-miterlimit="10" stroke-width="2" stroke-linejoin="round"/><rect data-name="stroke" x="20" y="39" width="4" height="4" rx="1" ry="1" fill="none" stroke="#2e4369" stroke-linecap="round" stroke-miterlimit="10" stroke-width="2" stroke-linejoin="round"/><rect data-name="stroke" x="30" y="39" width="4" height="4" rx="1" ry="1" fill="none" stroke="#2e4369" stroke-linecap="round" stroke-miterlimit="10" stroke-width="2" stroke-linejoin="round"/><rect data-name="stroke" x="40" y="39" width="4" height="4" rx="1" ry="1" fill="none" stroke="#2e4369" stroke-linecap="round" stroke-miterlimit="10" stroke-width="2" stroke-linejoin="round"/><rect data-name="stroke" x="20" y="48" width="4" height="4" rx="1" ry="1" fill="none" stroke="#2e4369" stroke-linecap="round" stroke-miterlimit="10" stroke-width="2" stroke-linejoin="round"/><rect data-name="stroke" x="30" y="48" width="4" height="4" rx="1" ry="1" fill="none" stroke="#2e4369" stroke-linecap="round" stroke-miterlimit="10" stroke-width="2" stroke-linejoin="round"/><rect data-name="stroke" x="40" y="48" width="4" height="4" rx="1" ry="1" fill="none" stroke="#2e4369" stroke-linecap="round" stroke-miterlimit="10" stroke-width="2" stroke-linejoin="round"/><path data-name="stroke" d="M17.8 24.7a3.9 3.9 0 0 0 3-4.4c-.3-3-1.4-7.3 11.2-7.3s11.5 4.3 11.2 7.3a3.9 3.9 0 0 0 3 4.4l9.9 2c1.3.2 3.2.8 4.6-1.1a11.4 11.4 0 0 0-2-13.4C53.5 7.2 43.1 5 32 5S10.5 7.2 5.3 12.3a11.4 11.4 0 0 0-2 13.4c1.4 1.8 3.3 1.3 4.6 1.1z" fill="none" stroke="#2e4369" stroke-linecap="round" stroke-miterlimit="10" stroke-width="2" stroke-linejoin="round"/></svg>