<svg xmlns="http://www.w3.org/2000/svg" viewBox="0 0 64 64" aria-labelledby="title" aria-describedby="desc"><path data-name="layer1" d="M51.781 29.4c-5.008-1.5-6.811-2.3-6.811-4 0-2.8 4.006-3.4 4.407-3.5 2.5-.4 6.71.3 7.812 3.7L64 23.5c-2.1-6.8-9.515-9.4-15.725-8.5-6.31.9-10.516 5.1-10.516 10.4 0 7.1 6.911 9.2 11.919 10.6 5.308 1.6 7.111 2.5 7.111 4.4 0 1.6-1.3 2.4-3.906 3.1-5.108 1.3-12.019 0-13.822-3.1a46.86 46.86 0 0 1-3.1-7c-3-8-7.211-18.9-19.23-18.9C10.516 14.6 0 17.1 0 34.2 0 41.3 5.108 51 16.526 51c9.615 0 11.218-3.9 11.618-4.6l-3.1-6.1a11.332 11.332 0 0 1-8.518 3.7c-9.014 0-9.415-9.7-9.415-9.8 0-8.9 2.9-12.6 9.615-12.6 6.61 0 9.214 5.7 12.52 14.3a46.877 46.877 0 0 0 3.605 8.1c3 4.9 9.815 7 16.326 7a20.047 20.047 0 0 0 5.609-.7c5.709-1.5 9.214-5 9.214-9.8 0-7.4-7.011-9.5-12.219-11.1z" fill="#e31b23"/></svg>