<svg xmlns="http://www.w3.org/2000/svg" viewBox="0 0 64 64" aria-labelledby="title" aria-describedby="desc"><path data-name="layer1" d="M62 0H2a2 2 0 0 0-2 2v60a2 2 0 0 0 2 2h60a2 2 0 0 0 2-2V2a2 2 0 0 0-2-2zM10.012 9.996L49 10a1 1 0 0 1 0 2l-38.988-.004a1 1 0 0 1 0-2zm0 6.001h31a1 1 0 0 1 0 2h-31a1 1 0 0 1 0-2zm0 6.001L46 22a1 1 0 0 1 0 2l-35.988-.002a1 1 0 0 1 0-2zm0 14.003a1 1 0 0 1 0-2L47 34a1 1 0 0 1 0 2zM47 47a1 1 0 0 1-1 1l-35.988.003v-2L46 46a1 1 0 0 1 1 1zM9.012 41.002a1 1 0 0 1 1-1h31a1 1 0 0 1 0 2h-31a1 1 0 0 1-1-1zM54 54l-43.988.004v-2L54 52a1 1 0 0 1 0 2zm0-24H10.012a1 1 0 0 1 0-2H54a1 1 0 0 1 0 2z" fill="#202020"/></svg>