<svg xmlns="http://www.w3.org/2000/svg" viewBox="0 0 64 64" aria-labelledby="title" aria-describedby="desc"><path data-name="layer1" d="M7 7a3 3 0 0 0 3 3h35v52H10a3 3 0 0 1-3-3V5" fill="#f8da82"/><path data-name="layer1" d="M53 2H10a3 3 0 0 0-3 3v2a3 3 0 0 0 3 3h35v46h12V38h-3.8z" fill="#f8da82"/><path data-name="opacity" d="M53 2H10a3 3 0 0 0-3 3v2a3 3 0 0 0 3 3h35v46h12V38h-3.8z" fill="#000064" opacity=".15"/><path data-name="opacity" fill="#fff" opacity=".2" d="M45 10v52h-3V10z"/><path data-name="stroke" d="M7 5v54a3 3 0 0 0 3 3h35V10H10a3 3 0 0 1-3-3" fill="none" stroke="#2e4369" stroke-linecap="round" stroke-miterlimit="10" stroke-width="2" stroke-linejoin="round"/><path data-name="stroke" d="M45 56h12V38h-4V2H10a3 3 0 0 0-3 3" fill="none" stroke="#2e4369" stroke-linecap="round" stroke-miterlimit="10" stroke-width="2" stroke-linejoin="round"/></svg>