<svg xmlns="http://www.w3.org/2000/svg" viewBox="0 0 64 64" aria-labelledby="title" aria-describedby="desc"><path data-name="layer1" d="M49 15h-.5a17 17 0 0 0-32.3 4.4A11 11 0 1 0 13 41h36a13 13 0 0 0 0-26z" fill="#cdf0f0"/><path data-name="opacity" d="M16 23a18.1 18.1 0 0 1 .3-3.5h-.2A11 11 0 1 0 13 41h21a18 18 0 0 1-18-18z" fill="#000064" opacity=".1"/><path data-name="opacity" d="M62 28a13 13 0 0 0-13-13h-.5a17 17 0 0 0-12.3-9.7L35 5.1h-2l-3.2.3a16.9 16.9 0 0 0-8.3 4.2A22.9 22.9 0 0 1 43 16.5a13.1 13.1 0 0 0-4.2 3.4 14.9 14.9 0 0 1 20 16.6A12.9 12.9 0 0 0 62 28z" fill="#fff" opacity=".5"/><path data-name="stroke" d="M42 41.1h7a13 13 0 1 0 0-26h-.5a17 17 0 0 0-32.3 4.4A11 11 0 1 0 13 41.1h9m-6 8l-6.4 8" fill="none" stroke="#2e4369" stroke-linecap="round" stroke-linejoin="round" stroke-width="2"/><path data-name="stroke" fill="none" stroke="#2e4369" stroke-linecap="round" stroke-linejoin="round" stroke-width="2" d="M36 36.6L26 49.1h8L24.4 61M48 49.1L41.6 57"/></svg>