<svg xmlns="http://www.w3.org/2000/svg" viewBox="0 0 64 64" aria-labelledby="title" aria-describedby="desc"><path data-name="layer1" d="M30.2 44l7.4-9.2a2 2 0 1 0-3.1-2.5L21.8 48h8l-7 8.7a2 2 0 0 0 3.2 2.5L38.2 44z" fill="#202020"/><path data-name="layer2" d="M49 12h-.5a17 17 0 0 0-32.3 4.4A11 11 0 1 0 13 38h11.7l6.6-8.3a6 6 0 1 1 9.4 7.5l-.6.8H49a13 13 0 0 0 0-26z" fill="#202020"/><path data-name="layer1" d="M8.2 54.9a2 2 0 0 0-2.8.3l-2.8 3.5a2 2 0 1 0 3.1 2.5l2.8-3.5a2 2 0 0 0-.3-2.8zm10-12.5a2 2 0 0 0-2.8.3l-5.9 7.4a2 2 0 1 0 3.1 2.5l5.9-7.4a2 2 0 0 0-.3-2.8zm26 7.6a2 2 0 0 0-2.8.3l-6.8 8.5a2 2 0 1 0 3.1 2.5l6.8-8.5a2 2 0 0 0-.3-2.8zm6.1-7.6a2 2 0 0 0-2.8.3l-1.6 2a2 2 0 0 0 3.1 2.5l1.6-2a2 2 0 0 0-.3-2.8z" fill="#202020"/></svg>