<svg xmlns="http://www.w3.org/2000/svg" viewBox="0 0 64 64" aria-labelledby="title" aria-describedby="desc"><path data-name="layer2" d="M55 36a7.7 7.7 0 0 0-7 5 7.7 7.7 0 0 0-7-5 6.9 6.9 0 0 0-7 7c0 9 14 19 14 19s14-10 14-19a6.9 6.9 0 0 0-7-7z" fill="#f27e7c"/><path data-name="opacity" d="M38 42a6.9 6.9 0 0 1 3.3-6H41a6.9 6.9 0 0 0-7 7c0 9 14 19 14 19l2.6-2.1C47.1 57.2 38 49.3 38 42z" fill="#000064" opacity=".15"/><path data-name="layer1" d="M34.5 40.5A3.8 3.8 0 0 1 32 37v-2a13.7 13.7 0 0 0 4-7c2.5 0 4-3 4-6 0-.8 0-4-2-4C43 3.6 28.4-2 18 5c-4.4 0-5.6 6.6-4 13-2 0-2 3.2-2 4 0 3 1.5 6 4 6a13.2 13.2 0 0 0 4 7v2c0 1.6-.5 3.6-8.6 5.2S2 51 2 51h35c-1.7-3-3-5.3-3-8a7.1 7.1 0 0 1 .5-2.5z" fill="#a5d0ec"/><path data-name="opacity" d="M34 43a7.1 7.1 0 0 1 .5-2.5 4.7 4.7 0 0 1-1.9-1.6A6.9 6.9 0 0 0 29 45a12.8 12.8 0 0 0 1.8 6H37c-1.8-3-3-5.3-3-8zM20 28c.8 3 4.1 5.3 6 7v2c0 1.6-.5 3.6-8.6 5.2S8 51 8 51H2s0-7 9.4-8.8S20 38.6 20 37v-2a13.6 13.6 0 0 1-4-7c-2.5 0-4-3-4-6 0-.8 0-4 2-4-1.6-6.4-.4-13 4-13a16.7 16.7 0 0 1 12.5-2.7A17.8 17.8 0 0 0 24 5c-4.4 0-7.6 6.6-6 13 0 0-1 8 2 10z" fill="#000064" opacity=".15"/><path data-name="stroke" d="M37 51H2s0-7 9.4-8.8S20 38.6 20 37v-2a14.2 14.2 0 0 1-4-7c-2.5 0-4-3-4-6 0-.8 0-4 2-4-1.6-6.4-.4-13 4-13 10.4-7 25-1.4 20 13 2 0 2 3.2 2 4 0 3-1.5 6-4 6a14.1 14.1 0 0 1-4 7v2a3.8 3.8 0 0 0 2.5 3.4" fill="none" stroke="#2e4369" stroke-linecap="round" stroke-linejoin="round" stroke-width="2"/><path data-name="stroke" d="M55 36a7.7 7.7 0 0 0-7 5 7.7 7.7 0 0 0-7-5 6.9 6.9 0 0 0-7 7c0 9 14 19 14 19s14-10 14-19a6.9 6.9 0 0 0-7-7z" fill="none" stroke="#2e4369" stroke-linecap="round" stroke-linejoin="round" stroke-width="2"/></svg>