<svg xmlns="http://www.w3.org/2000/svg" viewBox="0 0 64 64" aria-labelledby="title" aria-describedby="desc"><path data-name="layer2" d="M2 60l16-2V26H2zm6.6-11.4a2.1 2.1 0 0 1 2.8 0A2 2 0 0 1 12 50a2 2 0 0 1-.6 1.4 2 2 0 0 1-1.4.6 2 2 0 0 1-2-2 2.1 2.1 0 0 1 .6-1.4z" fill="#202020"/><path data-name="layer1" d="M62 30a4 4 0 0 0-4-4H38a81.1 81.1 0 0 0 2-18 4 4 0 1 0-8 0s-1.4 15.3-10 20.4v25.8c4.3.9 10.6 3.8 14 3.8h16a4 4 0 0 0 0-8h2a4 4 0 0 0 0-8h2a4 4 0 0 0 0-8h2a4 4 0 0 0 4-4z" fill="#202020"/></svg>