<svg xmlns="http://www.w3.org/2000/svg" viewBox="0 0 64 64" aria-labelledby="title" aria-describedby="desc"><path data-name="layer1" fill="#dcf0fd" d="M2 2h60v60H2z"/><path data-name="opacity" fill="#000064" opacity=".15" d="M8 6v52h54v4H2V2l6 4z"/><path data-name="opacity" fill="#fff" opacity=".25" d="M62 6H8L2 2h60v4z"/><path data-name="stroke" fill="none" stroke="#2e4369" stroke-linecap="round" stroke-miterlimit="10" stroke-width="2" d="M16 10v44m13.1-43H49m-19.9 6H54m-24.9 6H54M29.1 47H54m-24.9-6H49M29.1 53H54M29.1 29H54M10 16l6-6 6 6M10 48l6 6 6-6" stroke-linejoin="round"/><path data-name="stroke" fill="none" stroke="#2e4369" stroke-linecap="round" stroke-miterlimit="10" stroke-width="2" d="M2 2h60v60H2z" stroke-linejoin="round"/></svg>