<svg xmlns="http://www.w3.org/2000/svg" viewBox="0 0 64 64" aria-labelledby="title" aria-describedby="desc"><path data-name="layer3" fill="#81d3ff" d="M8 8v30L38 8H8z"/><path data-name="layer2" d="M32 20a30.2 30.2 0 0 1-5.5-.5L8 38v18h48V8a29.8 29.8 0 0 1-24 12z" fill="#c8ebff"/><path data-name="layer1" d="M26.5 19.5a30.2 30.2 0 0 0 5.5.5A29.8 29.8 0 0 0 56 8H38z" fill="#37b9ff"/><path data-name="opacity" fill="#fff" opacity=".25" d="M8 8h48v4H8z"/><path data-name="opacity" fill="#000064" opacity=".1" d="M8 52h48v4H8z"/><path data-name="stroke" fill="none" stroke="#2e4369" stroke-linecap="round" stroke-miterlimit="10" stroke-width="2" d="M38 8L8 38M25 8L8 25M56 8a29.8 29.8 0 0 1-24 12 30.2 30.2 0 0 1-5.5-.5" stroke-linejoin="round"/><path data-name="stroke" fill="none" stroke="#2e4369" stroke-linecap="round" stroke-miterlimit="10" stroke-width="2" d="M8 8h48v48H8z" stroke-linejoin="round"/></svg>