<svg xmlns="http://www.w3.org/2000/svg" viewBox="0 0 64 64" aria-labelledby="title" aria-describedby="desc"><path data-name="layer2" d="M54 21H44a8 8 0 0 0-8 8v5h4v-5a4 4 0 0 1 4-4h10a4 4 0 0 1 4 4v6a4 4 0 0 1-4 4H44a3.99 3.99 0 0 1-3.858-3h-4.073A7.997 7.997 0 0 0 44 43h10a8 8 0 0 0 8-8v-6a8 8 0 0 0-8-8zM20 39H10a4 4 0 0 1-4-4v-6a4 4 0 0 1 4-4h10a4 4 0 0 1 4 4v5h4v-5a8 8 0 0 0-8-8H10a8 8 0 0 0-8 8v6a8 8 0 0 0 8 8h10a7.997 7.997 0 0 0 7.93-7h-4.072A3.99 3.99 0 0 1 20 39z" fill="#202020"/><path data-name="layer1" d="M48.273 32a2 2 0 0 1-2 2H17.276a2 2 0 0 1-2-2 2 2 0 0 1 2-2h28.997a2 2 0 0 1 2 2z" fill="#202020"/></svg>