<svg viewBox="0 0 64 64" xmlns="http://www.w3.org/2000/svg" aria-labelledby="title" aria-describedby="desc"><path fill="#92b5e4" d="M45.444 18.556a2.338 2.338 0 0 1 0 3.3l-23.956 23.96a2.336 2.336 0 0 1-3.3 0 2.337 2.337 0 0 1 0-3.305L42.14 18.556a2.338 2.338 0 0 1 3.3 0z" data-name="layer1"/><path fill="#92b5e4" d="M59.263 9.694l-4.957-4.957a9.347 9.347 0 0 0-13.218 0L32.826 13a9.348 9.348 0 0 0 0 13.218l.825.826 3.3 3.3.826.827a9.348 9.348 0 0 0 13.219 0l8.262-8.262a9.346 9.346 0 0 0 .005-13.215zm-3.3 9.913L47.7 27.869a4.673 4.673 0 0 1-6.608 0l-.827-.827-3.3-3.3-.825-.826a4.674 4.674 0 0 1 0-6.609l8.262-8.262a4.675 4.675 0 0 1 6.609 0L55.958 13a4.674 4.674 0 0 1 0 6.607zM31.175 37.783l-.828-.826-3.3-3.3-.824-.826a9.348 9.348 0 0 0-13.219 0l-8.267 8.257a9.346 9.346 0 0 0 0 13.218l4.957 4.957a9.348 9.348 0 0 0 13.219 0L31.175 51a9.35 9.35 0 0 0 0-13.217zM27.869 47.7l-8.261 8.262a4.675 4.675 0 0 1-6.609 0L8.042 51a4.671 4.671 0 0 1 0-6.609l8.258-8.26a4.674 4.674 0 0 1 6.609 0l.825.826 3.3 3.3.827.827a4.673 4.673 0 0 1 .008 6.616z" data-name="layer1"/><path opacity=".15" fill="#000028" d="M41.079 27.877l-.826-.826-3.3 3.3.826.826a9.335 9.335 0 0 0 2.963 1.993l3.958-3.954a4.645 4.645 0 0 1-3.621-1.339zM30.34 36.965l-3.3 3.3.825.826a4.642 4.642 0 0 1 1.34 3.618l3.959-3.96a9.326 9.326 0 0 0-1.993-2.963z" data-name="opacity"/><path stroke-width="2" stroke-linejoin="round" stroke-linecap="round" stroke="#2e4369" fill="none" d="M45.444 18.556a2.338 2.338 0 0 1 0 3.3l-23.956 23.96a2.336 2.336 0 0 1-3.3 0 2.337 2.337 0 0 1 0-3.305L42.14 18.556a2.338 2.338 0 0 1 3.3 0z" data-name="stroke"/><path stroke-width="2" stroke-linejoin="round" stroke-linecap="round" stroke="#2e4369" fill="none" d="M36.956 30.347l.826.827a9.348 9.348 0 0 0 13.219 0l8.262-8.262a9.346 9.346 0 0 0 0-13.218l-4.957-4.957a9.346 9.346 0 0 0-13.218 0L32.826 13a9.348 9.348 0 0 0 0 13.218l.825.826" data-name="stroke"/><path stroke-width="2" stroke-linejoin="round" stroke-linecap="round" stroke="#2e4369" fill="none" d="M36.956 23.738l-.825-.826a4.674 4.674 0 0 1 0-6.609l8.262-8.262a4.675 4.675 0 0 1 6.609 0L55.958 13a4.674 4.674 0 0 1 0 6.608L47.7 27.869a4.673 4.673 0 0 1-6.608 0l-.827-.827m-13.223 6.61l-.824-.826a9.348 9.348 0 0 0-13.219 0l-8.262 8.262a9.346 9.346 0 0 0 0 13.218l4.957 4.957a9.348 9.348 0 0 0 13.219 0L31.175 51a9.35 9.35 0 0 0 0-13.218l-.828-.826" data-name="stroke"/><path stroke-width="2" stroke-linejoin="round" stroke-linecap="round" stroke="#2e4369" fill="none" d="M27.042 40.261l.827.827a4.673 4.673 0 0 1 0 6.609l-8.261 8.262a4.675 4.675 0 0 1-6.609 0L8.042 51a4.671 4.671 0 0 1 0-6.609l8.258-8.26a4.674 4.674 0 0 1 6.609 0l.825.826" data-name="stroke"/></svg>