<svg viewBox="0 0 64 64" xmlns="http://www.w3.org/2000/svg" aria-labelledby="title" aria-describedby="desc"><path fill="#92b5e4" d="M48.272 32a2 2 0 0 1-2 2h-29a2 2 0 0 1-2-2 2 2 0 0 1 2-2h29a2 2 0 0 1 2 2z" data-name="layer1"/><path fill="#92b5e4" d="M54 21H44a8 8 0 0 0-8 8v6a8 8 0 0 0 8 8h10a8 8 0 0 0 8-8v-6a8 8 0 0 0-8-8zm4 14a4 4 0 0 1-4 4H44a4 4 0 0 1-4-4v-6a4 4 0 0 1 4-4h10a4 4 0 0 1 4 4zM20 21H10a8 8 0 0 0-8 8v6a8 8 0 0 0 8 8h10a8 8 0 0 0 8-8v-6a8 8 0 0 0-8-8zm4 9v5a4 4 0 0 1-4 4H10a4 4 0 0 1-4-4v-6a4 4 0 0 1 4-4h10a4 4 0 0 1 4 4z" data-name="layer1"/><path opacity=".15" fill="#000028" d="M39.99 35v-1h-4v1a7.982 7.982 0 0 0 .587 3h4.793a3.97 3.97 0 0 1-1.38-3zm-12-1h-4v1a3.97 3.97 0 0 1-1.38 3h4.79a7.982 7.982 0 0 0 .587-3z" data-name="opacity"/><path stroke-width="2" stroke-linejoin="round" stroke-linecap="round" stroke="#2e4369" fill="none" d="M48.272 32a2 2 0 0 1-2 2h-29a2 2 0 0 1-2-2 2 2 0 0 1 2-2h29a2 2 0 0 1 2 2z" data-name="stroke"/><path stroke-width="2" stroke-linejoin="round" stroke-linecap="round" stroke="#2e4369" fill="none" d="M36 34v1a8 8 0 0 0 8 8h10a8 8 0 0 0 8-8v-6a8 8 0 0 0-8-8H44a8 8 0 0 0-8 8v1" data-name="stroke"/><path stroke-width="2" stroke-linejoin="round" stroke-linecap="round" stroke="#2e4369" fill="none" d="M40 30v-1a4 4 0 0 1 4-4h10a4 4 0 0 1 4 4v6a4 4 0 0 1-4 4H44a4 4 0 0 1-4-4v-1m-12-4v-1a8 8 0 0 0-8-8H10a8 8 0 0 0-8 8v6a8 8 0 0 0 8 8h10a8 8 0 0 0 8-8v-1" data-name="stroke"/><path stroke-width="2" stroke-linejoin="round" stroke-linecap="round" stroke="#2e4369" fill="none" d="M24 34v1a4 4 0 0 1-4 4H10a4 4 0 0 1-4-4v-6a4 4 0 0 1 4-4h10a4 4 0 0 1 4 4v1" data-name="stroke"/></svg>