<svg xmlns="http://www.w3.org/2000/svg" viewBox="0 0 64 64" aria-labelledby="title" aria-describedby="desc"><path data-name="layer2" d="M59.4 10.3l-5.7-5.7a9 9 0 0 0-12.7 0l-8.5 8.5a9 9 0 0 0 0 12.7l5.7 5.7a9 9 0 0 0 12.7 0l8.5-8.5a9 9 0 0 0 0-12.7zM31.5 38.2l-5.7-5.7a9 9 0 0 0-12.7 0L4.6 41a9 9 0 0 0 0 12.7l5.7 5.7a9 9 0 0 0 12.7 0l8.5-8.5a9 9 0 0 0 0-12.7z" fill="none" stroke="#202020" stroke-miterlimit="10" stroke-width="2" stroke-linejoin="round" stroke-linecap="round"/><path data-name="layer1" fill="none" stroke="#202020" stroke-miterlimit="10" stroke-width="2" d="M18.1 46L46 18.1" stroke-linejoin="round" stroke-linecap="round"/></svg>