<svg xmlns="http://www.w3.org/2000/svg" viewBox="0 0 64 64" aria-labelledby="title" aria-describedby="desc"><path data-name="layer1" d="M57.651 52.164c-1.683-.7-3.069-1.8-2.97-3.891a4.758 4.758 0 0 0-1.481-3.492s1.386-4.59.1-8.381-5.543-9.778-8.711-14.367c-3.267-4.59-.495-9.878-3.465-16.562-2.973-6.785-10.595-6.386-14.753-3.493S23.5 11.956 23.7 15.348s.1 5.787-.3 6.685-3.069 4.091-4.85 6.785-3.067 8.282-4.35 10.575a5.3 5.3 0 0 0-.4 4.39s-.891.2-1.584 1.7-2.079 2.2-4.553 2.694-2.475 2.1-1.881 3.891 0 2.794-.693 5.088 2.772 2.993 6.137 3.392 7.127 2.594 10.2 2.993a3.794 3.794 0 0 0 4.157-2.2 43.372 43.372 0 0 1 7.325-.9 30.7 30.7 0 0 1 7.325.8 5.353 5.353 0 0 0 1.98 2.295 5.191 5.191 0 0 0 5.84-1.1c1.782-1.9 6.533-4.29 9.107-5.787 2.574-1.6 2.178-3.791.495-4.49zm-23.064-43.8c1.683 0 3.069 1.7 3.069 3.791a3.941 3.941 0 0 1-1.683 3.392c-.3-.1-.495-.2-.792-.3a2.207 2.207 0 0 0 .99-2c0-1.2-.693-2.1-1.584-2.1s-1.584 1-1.584 2.1a2.385 2.385 0 0 0 .3 1.2 11.944 11.944 0 0 0-1.386-.5 4.694 4.694 0 0 1-.3-1.7c-.1-2.2 1.287-3.891 2.97-3.891zm-.2 7.982c.891.3 1.782.8 1.683 1.4s-.495.6-1.683 1.3a21.063 21.063 0 0 1-4.454 2.295c-.792.1-1.287-.3-2.079-.9-.891-.6-2.475-1.9-2.079-2.594 0 0 1.287-1 1.782-1.5s1.98-1.7 2.772-1.6c.891.3 3.168 1.3 4.058 1.6zm-7.62-7.383c1.287 0 2.376 1.6 2.376 3.592a3.1 3.1 0 0 1-.1 1 2.633 2.633 0 0 0-.99.6c-.2.1-.3.3-.4.4a2.747 2.747 0 0 0 .2-1.6c-.2-1.1-.891-1.9-1.584-1.7-.693.1-1.089 1.1-.99 2.2.2 1.1.891 1.9 1.584 1.8h.1c-.3.3-.693.6-.99.9a3.7 3.7 0 0 1-1.683-3.392c0-2.2 1.089-3.791 2.475-3.791zm-2.672 50.186a4.977 4.977 0 0 1-1.98 2.494c-1.485.5-5.642-1.3-7.523-2.1s-6.731-1-7.325-1.7.3-2.295.594-3.791c.2-1.5-.495-2.494-.2-3.492.2-1 3.267-1 4.454-1.7s1.386-2.794 2.376-3.293c.891-.6 2.673 1.4 3.366 2.494s3.366 5.887 4.454 7.084c1.089 1 2.178 2.494 1.782 3.991zM41.516 45.28a58.807 58.807 0 0 0-.3 6.485s-3.069 4.29-7.82 4.989a22.613 22.613 0 0 1-7.127.2L23.6 53.861a2.067 2.067 0 0 0 1.782-2.395c-.3-2.1-6.335-4.989-7.424-7.583s-.2-6.984 1.188-9.179 2.277-6.984 3.663-8.581 2.475-4.989 1.98-6.485c0 0 2.97 3.592 5.048 2.993s6.731-4.091 7.424-3.492S43.892 32.808 44.486 37a18.555 18.555 0 0 1-.4 7.383s-2.277-.5-2.574.9zm15.145 9.379c-.891.9-6.038 2.893-7.622 4.59-1.485 1.6-3.465 2.893-4.751 2.494-1.188-.4-2.277-2.1-1.782-4.59a32.8 32.8 0 0 0 .891-6.685c-.1-1.5-.4-3.592 0-3.891a1.455 1.455 0 0 1 .99-.2s-.3 2.893 1.485 3.692 4.256-.3 5.048-1.1a7.4 7.4 0 0 0 1.287-1.9 1.566 1.566 0 0 1 .693 1.6 3.961 3.961 0 0 0 1.683 3.592c1.287.7 2.97 1.5 2.079 2.395z" fill="#202020"/></svg>