<svg xmlns="http://www.w3.org/2000/svg" viewBox="0 0 64 64" aria-labelledby="title" aria-describedby="desc"><path data-name="layer2" d="M16 52v7.4a2.6 2.6 0 0 0 2.6 2.6h26.8a2.6 2.6 0 0 0 2.6-2.6V52z" fill="#d5e2f4"/><path data-name="layer1" fill="#f5b94b" d="M16 2h32v49.98H16z"/><path data-name="opacity" d="M22 59.4V52h-6v7.4a2.6 2.6 0 0 0 2.6 2.6h6a2.6 2.6 0 0 1-2.6-2.6zM16 2h6v49.98h-6z" fill="#101129" opacity=".18"/><path data-name="opacity" d="M35 59.4a2.6 2.6 0 0 1-2.6 2.6h7a2.6 2.6 0 0 0 2.6-2.6V52h-7zM35 2h7v49.98h-7z" fill="#fff" opacity=".5"/><rect data-name="opacity" x="22.9" y="10.9" width="9" height="9" rx="2" ry="2" transform="rotate(-30 27.483 15.364)" fill="#fff" opacity=".5"/><path data-name="opacity" d="M34.6 40.5a2 2 0 0 1-.7 2.7l-4.3 2.5a2 2 0 0 1-2.7-.7l-2.5-4.3a2 2 0 0 1 .7-2.7l4.3-2.5a2 2 0 0 1 2.7.7z" fill="#fff" opacity=".5"/><rect data-name="opacity" x="32.1" y="22.9" width="9" height="9" rx="2" ry="2" transform="rotate(-60 36.618 27.377)" fill="#fff" opacity=".5"/><path data-name="stroke" d="M16 52v7.4a2.6 2.6 0 0 0 2.6 2.6h26.8a2.6 2.6 0 0 0 2.6-2.6V52zm32 0V2H16v50" fill="none" stroke="#2f446a" stroke-linecap="round" stroke-linejoin="round" stroke-width="2"/><rect data-name="stroke" x="22.9" y="10.9" width="9" height="9" rx="2" ry="2" transform="rotate(-30 27.483 15.364)" fill="none" stroke="#2f446a" stroke-linecap="round" stroke-linejoin="round" stroke-width="2"/><path data-name="stroke" d="M34.6 40.5a2 2 0 0 1-.7 2.7l-4.3 2.5a2 2 0 0 1-2.7-.7l-2.5-4.3a2 2 0 0 1 .7-2.7l4.3-2.5a2 2 0 0 1 2.7.7z" fill="none" stroke="#2f446a" stroke-linecap="round" stroke-linejoin="round" stroke-width="2"/><rect data-name="stroke" x="32.1" y="22.9" width="9" height="9" rx="2" ry="2" transform="rotate(-60 36.618 27.377)" fill="none" stroke="#2f446a" stroke-linecap="round" stroke-linejoin="round" stroke-width="2"/></svg>