<svg viewBox="0 0 64 64" xmlns="http://www.w3.org/2000/svg" aria-labelledby="title" aria-describedby="desc"><path fill="#202020" d="M2 22v34h60V22zm16 26h-4a2 2 0 0 1 0-4h4a2 2 0 0 1 0 4zm0-8h-4a2 2 0 0 1 0-4h4a2 2 0 0 1 0 4zm0-8h-4a2 2 0 0 1 0-4h4a2 2 0 0 1 0 4zm32 16H26a2 2 0 0 1 0-4h24a2 2 0 0 1 0 4zm0-8H26a2 2 0 0 1 0-4h24a2 2 0 0 1 0 4zm0-8H26a2 2 0 0 1 0-4h24a2 2 0 0 1 0 4z" data-name="layer2"/><path fill="#202020" d="M2 8v10h60V8zm6 7a2 2 0 1 1 2-2 2 2 0 0 1-2 2zm6 0a2 2 0 1 1 2-2 2 2 0 0 1-2 2zm6 0a2 2 0 1 1 2-2 2 2 0 0 1-2 2z" data-name="layer1"/></svg>