<svg xmlns="http://www.w3.org/2000/svg" viewBox="0 0 64 64" aria-labelledby="title" aria-describedby="desc"><path data-name="layer2" d="M36.467 38.449c2 1 7.939 1.146 11.533-2.449 4-4 6.908-11.636 11-13 3-1 7.438-8-10-8-8.63 0-13.387 2.394-13.331 5.268" fill="none" stroke="#202020" stroke-linecap="round" stroke-miterlimit="10" stroke-width="2" stroke-linejoin="round"/><path data-name="layer1" d="M20.8 12C11.363 12 2 16.588 2 27c0 10 1.884 17.309 2 21s.106 8.982 6 8c6-1 4.9-10.534 16-13 9-2 10.909-3.663 11.024-6.662S37.222 20.114 34 17a19.421 19.421 0 0 0-13.2-5z" fill="none" stroke="#202020" stroke-linecap="round" stroke-miterlimit="10" stroke-width="2" stroke-linejoin="round"/></svg>