<svg viewBox="0 0 64 64" xmlns="http://www.w3.org/2000/svg" aria-labelledby="title" aria-describedby="desc"><path fill="#202020" d="M32 42.556A29.961 29.961 0 0 0 28.406 48h7.186a30.616 30.616 0 0 0-3.538-5.386z" data-name="layer2"/><path fill="#202020" d="M2 18v42h60V18zm33.157 17.919c-1.449 1.443-1.311 2.883-.193 3.947a.315.315 0 0 1 .024.029C38.448 43.718 42 52 42 52H22s3.7-8.644 7.233-12.346v-.007c.922-1.073.651-2.475-.435-3.775A52.66 52.66 0 0 1 22 24h20a42.217 42.217 0 0 1-6.817 11.894" data-name="layer2"/><path fill="#202020" d="M2 4v10h60V4zm6 7a2 2 0 1 1 2-2 2 2 0 0 1-2 2zm6 0a2 2 0 1 1 2-2 2 2 0 0 1-2 2zm6 0a2 2 0 1 1 2-2 2 2 0 0 1-2 2z" data-name="layer1"/></svg>