<svg xmlns="http://www.w3.org/2000/svg" viewBox="0 0 64 64" aria-labelledby="title" aria-describedby="desc"><path data-name="layer5" fill="#fff" d="M2 16h60v44H2z"/><path data-name="layer4" fill="#a6b1c9" d="M2 4h60v12H2z"/><circle data-name="layer3" cx="8" cy="10" r="1" fill="#f27e7c"/><circle data-name="layer3" cx="15" cy="10" r="1" fill="#f27e7c"/><circle data-name="layer3" cx="22" cy="10" r="1" fill="#f27e7c"/><path data-name="opacity" fill="#000064" opacity=".15" d="M2 16h4v44H2zM2 4h4v12H2z"/><path data-name="layer2" d="M22 24h20s-6 14-10 14-10-14-10-14zm10 14c-1.8 0-4 2.9-5.9 6h11.8c-1.9-3.1-4.1-6-5.9-6z" fill="#c3d6f9"/><path data-name="layer1" d="M42 52a75.9 75.9 0 0 0-4.1-8H26.1a75.9 75.9 0 0 0-4.1 8z" fill="#fc6"/><path data-name="stroke" fill="none" stroke="#2e4369" stroke-linecap="round" stroke-linejoin="round" stroke-width="2" d="M2 4h60v12H2zm0 12v44h60V16"/><path data-name="stroke" d="M22 24h20s-6 14-10 14-10-14-10-14zm0 28h20s-6-14-10-14-10 14-10 14zm4.1-8h11.8" fill="none" stroke="#2e4369" stroke-linecap="round" stroke-linejoin="round" stroke-width="2"/><circle data-name="stroke" cx="8" cy="10" r="1" fill="none" stroke="#2e4369" stroke-linecap="round" stroke-linejoin="round" stroke-width="2"/><circle data-name="stroke" cx="15" cy="10" r="1" fill="none" stroke="#2e4369" stroke-linecap="round" stroke-linejoin="round" stroke-width="2"/><circle data-name="stroke" cx="22" cy="10" r="1" fill="none" stroke="#2e4369" stroke-linecap="round" stroke-linejoin="round" stroke-width="2"/></svg>