<svg viewBox="0 0 64 64" xmlns="http://www.w3.org/2000/svg" aria-labelledby="title" aria-describedby="desc"><path fill="#f26161" d="M54.9 25L38 21.7 42.8 5c-9.7 9.2-27 8.2-33.7 18.3l12.3 21.2C28 34.4 47 36.8 54.9 25z" data-name="layer1"/><path opacity=".2" fill="#000032" d="M9.1 23.3l12.3 21.2a13.3 13.3 0 0 1 2-2.4L11.1 20.9a13.4 13.4 0 0 0-2 2.4z" data-name="opacity"/><path d="M21.4 44.5l10.3 18M54.9 25L38 21.7 42.8 5c-9.7 9.2-27 8.2-33.7 18.3l12.3 21.2C28 34.4 47 36.8 54.9 25z" stroke-width="2" stroke-miterlimit="10" stroke-linecap="round" stroke="#2e4369" fill="none" data-name="stroke" stroke-linejoin="round"/></svg>