<svg xmlns="http://www.w3.org/2000/svg" viewBox="0 0 64 64" aria-labelledby="title" aria-describedby="desc"><path data-name="layer3" d="M19 30V15A13 13 0 0 1 32 2a13 13 0 0 1 13 13v15h-4V15a9 9 0 1 0-18 0v15z" fill="#aabfce"/><path data-name="layer2" fill="#fbaa51" d="M10 30h44v32H10z"/><path data-name="layer1" d="M34 49a2 2 0 0 1-2 2 2 2 0 0 1-2-2v-6a2 2 0 0 1 2-2 2 2 0 0 1 2 2z" fill="#536897"/><path data-name="opacity" fill="#000028" opacity=".15" d="M10 30h5v32h-5z"/><path data-name="opacity" fill="#fff" opacity=".25" d="M49 30h5v32h-5z"/><path data-name="stroke" fill="none" stroke="#2e4369" stroke-linecap="round" stroke-linejoin="round" stroke-width="2" d="M10 30h44v32H10zm9 0V15A13 13 0 0 1 32 2a13 13 0 0 1 13 13v15"/><path data-name="stroke" d="M34 49a2 2 0 0 1-2 2 2 2 0 0 1-2-2v-6a2 2 0 0 1 2-2 2 2 0 0 1 2 2zM23 30V15a9 9 0 1 1 18 0v15" fill="none" stroke="#2e4369" stroke-linecap="round" stroke-linejoin="round" stroke-width="2"/></svg>