<svg xmlns="http://www.w3.org/2000/svg" viewBox="0 0 64 64" aria-labelledby="title" aria-describedby="desc"><path data-name="layer4" fill="#a6b1c9" d="M2 6h52v12H2z"/><path data-name="layer3" fill="#fff" d="M38 50H2V18h52v32H38z"/><circle data-name="layer2" cx="8" cy="12" r="1" fill="#f27e7c"/><circle data-name="layer2" cx="15" cy="12" r="1" fill="#f27e7c"/><circle data-name="layer2" cx="22" cy="12" r="1" fill="#f27e7c"/><path data-name="opacity" d="M44 32a6 6 0 0 1 1.5-4 6 6 0 0 0-5.5 6v8h4zM34 44h4v6h-4zM2 18h4v32H2zM2 6h4v12H2z" fill="#000064" opacity=".15"/><path data-name="layer1" fill="#fc6" d="M38 42h24v16H38z"/><path data-name="stroke" fill="none" stroke="#2e4369" stroke-linecap="round" stroke-linejoin="round" stroke-width="2" d="M38 42h24v16H38zm6 0V32a6 6 0 0 1 6-6 6 6 0 0 1 6 6v10m-6 6v4M2 6h52v12H2zm0 12v32h36m16-23v-9"/><circle data-name="stroke" cx="8" cy="12" r="1" fill="none" stroke="#2e4369" stroke-linecap="round" stroke-linejoin="round" stroke-width="2"/><circle data-name="stroke" cx="15" cy="12" r="1" fill="none" stroke="#2e4369" stroke-linecap="round" stroke-linejoin="round" stroke-width="2"/><circle data-name="stroke" cx="22" cy="12" r="1" fill="none" stroke="#2e4369" stroke-linecap="round" stroke-linejoin="round" stroke-width="2"/></svg>