<svg xmlns="http://www.w3.org/2000/svg" viewBox="0 0 64 64" aria-labelledby="title" aria-describedby="desc"><path data-name="layer2" d="M57.5 41v-9a8 8 0 0 0-16 0v9h-5v18h26V41zm-6 11a2 2 0 0 1-4 0v-4a2 2 0 0 1 4 0zm2-11h-8v-9a4 4 0 0 1 8 0z" fill="#202020"/><path data-name="layer1" d="M53.5 4a2 2 0 0 0-2-2h-48a2 2 0 0 0-2 2v12h52zm-43 9a3 3 0 1 1 3-3 3 3 0 0 1-3 3zm35-1h-16a2 2 0 0 1 0-4h16a2 2 0 0 1 0 4zm-13 32h-3a2 2 0 0 1 0-4h3v-3h5v-1h-36v12a2 2 0 0 0 2 2h29zm-22 1a3 3 0 1 1 3-3 3 3 0 0 1-3 3zm27.7-17h-8.7a2 2 0 0 1 0-4h11.1a12 12 0 0 1 8.9-4h-48v12h36a11.9 11.9 0 0 1 .7-4zm-27.7 1a3 3 0 1 1 3-3 3 3 0 0 1-3 3zm43-9h-4a11.9 11.9 0 0 1 4 .7z" fill="#202020"/></svg>