<svg xmlns="http://www.w3.org/2000/svg" viewBox="0 0 64 64" aria-labelledby="title" aria-describedby="desc"><path data-name="layer3" d="M19 30V15A13 13 0 0 1 32 2a13 13 0 0 1 13 13v2a2 2 0 1 1-4 0v-2a9 9 0 0 0-18 0v15" fill="#aabfce"/><rect data-name="layer2" x="10" y="30" width="44" height="32" rx="6" ry="6" fill="#fbaa51"/><path data-name="layer1" d="M34 49a2 2 0 0 1-2 2 2 2 0 0 1-2-2v-6a2 2 0 0 1 2-2 2 2 0 0 1 2 2z" fill="#536897"/><path data-name="opacity" d="M10 36v20a6 6 0 0 0 5 5.9V30.1a6 6 0 0 0-5 5.9z" fill="#000028" opacity=".15"/><path data-name="opacity" d="M49 30.1v31.8a6 6 0 0 0 5-5.9V36a6 6 0 0 0-5-5.9z" fill="#fff" opacity=".25"/><path data-name="stroke" d="M19 30V15A13 13 0 0 1 32 2a13 13 0 0 1 13 13v2a2 2 0 1 1-4 0v-2a9 9 0 0 0-18 0v15" fill="none" stroke="#2e4369" stroke-linecap="round" stroke-linejoin="round" stroke-width="2"/><rect data-name="stroke" x="10" y="30" width="44" height="32" rx="6" ry="6" fill="none" stroke="#2e4369" stroke-linecap="round" stroke-linejoin="round" stroke-width="2"/><path data-name="stroke" d="M34 49a2 2 0 0 1-2 2 2 2 0 0 1-2-2v-6a2 2 0 0 1 2-2 2 2 0 0 1 2 2z" fill="none" stroke="#2e4369" stroke-linecap="round" stroke-linejoin="round" stroke-width="2"/></svg>