<svg xmlns="http://www.w3.org/2000/svg" viewBox="0 0 64 64" aria-labelledby="title" aria-describedby="desc"><path data-name="layer3" fill="#c3d6e0" d="M8 12h22v16H8z"/><path data-name="layer2" d="M58 36.2c0-6.2-2.1-8.2-2.1-8.2H8v4H2v14h9a5 5 0 0 1 8 0h8a5 5 0 0 1 8 0h8a5 5 0 0 1 8 0h5a21.4 21.4 0 0 0 2-9.8z" fill="#fc0"/><circle data-name="layer1" cx="15" cy="49" r="5" fill="#7b8baf"/><circle data-name="layer1" cx="31" cy="49" r="5" fill="#7b8baf"/><circle data-name="layer1" cx="47" cy="49" r="5" fill="#7b8baf"/><path data-name="layer1" fill="#7b8baf" d="M44 16h8v12h-8z"/><circle data-name="opacity" cx="15" cy="49" r="3" fill="#000064" opacity=".25"/><circle data-name="opacity" cx="31" cy="49" r="3" fill="#000064" opacity=".25"/><circle data-name="opacity" cx="47" cy="49" r="3" fill="#000064" opacity=".25"/><path data-name="opacity" fill="#000064" opacity=".15" d="M44 16h4v12h-4zM8 12h22v3H8z"/><path data-name="opacity" fill="#fff" opacity=".5" d="M16.1 15L8 23.1V28h6.2l13-13H16.1zm2.8 13H24l6-6v-5.1L18.9 28z"/><path data-name="opacity" d="M8 28v4h49.6a8 8 0 0 0-1.7-4z" fill="#fff" opacity=".25"/><path data-name="opacity" d="M2 40v6h9a5 5 0 0 1 8 0h8a5 5 0 0 1 8 0h8a5 5 0 0 1 8 0h5a18.7 18.7 0 0 0 1.8-6z" fill="#000064" opacity=".15"/><path data-name="stroke" fill="none" stroke="#2e4369" stroke-linecap="round" stroke-linejoin="round" stroke-width="2" d="M54 16H42M11 46H2V32h6V12m19 34h-8m24 0h-8m-5-34v16h25.9s2.1 2 2.1 8.2a21.4 21.4 0 0 1-2 9.8h-5M34 12H2m50 4v12m-8-12v12"/><circle data-name="stroke" cx="15" cy="49" r="5" fill="none" stroke="#2e4369" stroke-linecap="round" stroke-linejoin="round" stroke-width="2"/><circle data-name="stroke" cx="31" cy="49" r="5" fill="none" stroke="#2e4369" stroke-linecap="round" stroke-linejoin="round" stroke-width="2"/><circle data-name="stroke" cx="47" cy="49" r="5" fill="none" stroke="#2e4369" stroke-linecap="round" stroke-linejoin="round" stroke-width="2"/><path data-name="stroke" fill="none" stroke="#2e4369" stroke-linecap="round" stroke-linejoin="round" stroke-width="2" d="M56 46l6 6M30 28H8"/></svg>