<svg viewBox="0 0 64 64" xmlns="http://www.w3.org/2000/svg" aria-labelledby="title" aria-describedby="desc"><path stroke-width="2" stroke-linejoin="round" stroke-linecap="round" stroke="#202020" fill="none" d="M37.95 28.88L5.121 61.707a2 2 0 0 1-2.828 0 2 2 0 0 1 0-2.828l32.829-32.828" data-name="layer2"/><path stroke-width="2" stroke-linejoin="round" stroke-linecap="round" stroke="#202020" fill="none" d="M51.644 31.264a15.119 15.119 0 0 1-18.906-18.91m7.923-9.174A15.12 15.12 0 0 1 60.82 23.34" data-name="layer1"/><path stroke-width="2" stroke-linejoin="round" stroke-linecap="round" stroke="#202020" fill="none" d="M55.728 32.494a2.013 2.013 0 0 1-2.85 0L31.505 11.123a2.015 2.015 0 0 1 0-2.85l5.7-5.7a2.015 2.015 0 0 1 2.85 0l21.372 21.372a2.017 2.017 0 0 1 0 2.852z" data-name="layer1"/></svg>