<svg xmlns="http://www.w3.org/2000/svg" viewBox="0 0 64 64" aria-labelledby="title" aria-describedby="desc"><path data-name="layer1" d="M46.4 16.798c-8.937 0-13.222 7.496-17.003 14.111C25.453 37.81 22.69 42 17.599 42 12.306 42 8 37.294 8 32s4-9.202 10-9.202v-.022a6.109 6.109 0 0 1 2.661.656l-3.499.618 1.025 5.904L30 27l-3-13-5.11 1.13.858 2.641A15.543 15.543 0 0 0 18 16.776v.022c-9 0-16 6.6-16 15.202s7.098 16 15.7 16c8.94 0 13.175-7.498 16.956-14.113 3.944-6.9 6.68-11.089 11.77-11.089A9.256 9.256 0 0 1 56 32a9.841 9.841 0 0 1-10 10v-.021c-2 0-4.882-1.269-7.245-4.244l-4.799 3.734c3.481 4.38 8.044 6.51 12.044 6.51V48a16.045 16.045 0 0 0 16-16 15.281 15.281 0 0 0-15.6-15.202z" fill="#bacae9"/><path data-name="stroke" d="M46.4 16.798c-8.937 0-13.222 7.496-17.003 14.111C25.453 37.81 22.69 42 17.599 42 12.306 42 8 37.294 8 32s4-9.202 10-9.202v-.022a6.109 6.109 0 0 1 2.661.656l-3.499.618 1.025 5.904L30 27l-3-13-5.11 1.13.858 2.641A15.543 15.543 0 0 0 18 16.776v.022c-9 0-16 6.6-16 15.202s7.098 16 15.7 16c8.94 0 13.175-7.498 16.956-14.113 3.944-6.9 6.68-11.089 11.77-11.089A9.256 9.256 0 0 1 56 32a9.841 9.841 0 0 1-10 10v-.021c-2 0-4.882-1.269-7.245-4.244l-4.799 3.734c3.481 4.38 8.044 6.51 12.044 6.51V48a16.045 16.045 0 0 0 16-16 15.281 15.281 0 0 0-15.6-15.202z" fill="none" stroke="#2e4369" stroke-linecap="round" stroke-linejoin="round" stroke-width="2"/></svg>