<svg xmlns="http://www.w3.org/2000/svg" viewBox="0 0 64 64" aria-labelledby="title" aria-describedby="desc"><path data-name="layer1" d="M17.088 47.998A5.223 5.223 0 0 1 12 42.75v-21.5A5.255 5.255 0 0 1 17.25 16h10.86l-3.103 2.758a3 3 0 0 0 3.986 4.484L40.516 13 28.993 2.758a3 3 0 0 0-3.986 4.484L28.109 10H17.25A11.263 11.263 0 0 0 6 21.25v21.5a11.195 11.195 0 0 0 10.908 11.245l.091.002a3 3 0 0 0 .089-5.999zm32.001-37.992a3 3 0 0 0-.178 5.997A5.222 5.222 0 0 1 54 21.25v21.5A5.256 5.256 0 0 1 48.75 48H37.888l3.105-2.76a3 3 0 1 0-3.986-4.485L25.484 50.998 37.007 61.24a3 3 0 1 0 3.986-4.485L37.893 54H48.75A11.263 11.263 0 0 0 60 42.75v-21.5a11.193 11.193 0 0 0-10.911-11.244z" fill="#bacae9"/><path data-name="stroke" d="M17.088 47.998A5.223 5.223 0 0 1 12 42.75v-21.5A5.255 5.255 0 0 1 17.25 16h10.86l-3.103 2.758a3 3 0 0 0 3.986 4.484L40.516 13 28.993 2.758a3 3 0 0 0-3.986 4.484L28.109 10H17.25A11.263 11.263 0 0 0 6 21.25v21.5a11.195 11.195 0 0 0 10.908 11.245l.091.002a3 3 0 0 0 .089-5.999zm32.001-37.992a3 3 0 0 0-.178 5.997A5.222 5.222 0 0 1 54 21.25v21.5A5.256 5.256 0 0 1 48.75 48H37.888l3.105-2.76a3 3 0 1 0-3.986-4.485L25.484 50.998 37.007 61.24a3 3 0 1 0 3.986-4.485L37.893 54H48.75A11.263 11.263 0 0 0 60 42.75v-21.5a11.193 11.193 0 0 0-10.911-11.244z" fill="none" stroke="#2e4369" stroke-linecap="round" stroke-linejoin="round" stroke-width="2"/></svg>