<svg viewBox="0 0 64 64" xmlns="http://www.w3.org/2000/svg" aria-labelledby="title" aria-describedby="desc"><path stroke-width="2" stroke-miterlimit="10" stroke="#202020" fill="none" d="M32 2a20 20 0 0 0-20 20c0 18 20 39 20 39s20-21 20-39A20 20 0 0 0 32 2z" data-name="layer2" stroke-linejoin="round" stroke-linecap="round"/><path stroke-width="2" stroke-miterlimit="10" stroke="#202020" fill="none" d="M42 21.5a5.5 5.5 0 0 0-10-3.2 5.5 5.5 0 0 0-10 3.2 5.5 5.5 0 0 0 0 .6C22.6 27.9 32 34 32 34s8.3-5.6 9.8-10.9a5.5 5.5 0 0 0 .2-1.6z" data-name="layer1" stroke-linejoin="round" stroke-linecap="round"/></svg>