<svg viewBox="0 0 64 64" xmlns="http://www.w3.org/2000/svg" aria-labelledby="title" aria-describedby="desc"><path stroke-width="2" stroke-miterlimit="10" stroke="#202020" fill="none" d="M55.9 28.3c.1-.8.1-1.5.1-2.3a24 24 0 0 0-48 0c0 .8 0 1.6.1 2.3v.3C10.1 47.6 32 61 32 61s21.9-13.6 23.8-32.3z" data-name="layer2" stroke-linejoin="round" stroke-linecap="round"/><path stroke-width="2" stroke-miterlimit="10" stroke="#202020" fill="none" d="M44 24.7a6.7 6.7 0 0 0-6.6-6.7 6.6 6.6 0 0 0-5.4 2.9 6.6 6.6 0 0 0-5.4-2.9 6.7 6.7 0 0 0-6.6 6.7 6.9 6.9 0 0 0 0 .7C20.8 32.6 32 40 32 40s9.9-6.8 11.7-13.4a6.8 6.8 0 0 0 .3-1.9z" data-name="layer1" stroke-linejoin="round" stroke-linecap="round"/></svg>