<svg viewBox="0 0 64 64" xmlns="http://www.w3.org/2000/svg" aria-labelledby="title" aria-describedby="desc"><path fill="#fff" d="M32 2a20 20 0 0 0-20 20c0 18 20 40 20 40s20-22 20-40A20 20 0 0 0 32 2z" data-name="layer2"/><path opacity=".2" fill="#000032" d="M15 19a19.9 19.9 0 0 1 4.4-12.6A20 20 0 0 0 12 22c0 18 20 40 20 40l2.8-3.3C32.5 56.2 15 35.8 15 19z" data-name="opacity"/><path stroke-width="2" stroke-miterlimit="10" stroke-linecap="round" stroke="#2e4369" fill="none" d="M32 2a20 20 0 0 0-20 20c0 18 20 40 20 40s20-22 20-40A20 20 0 0 0 32 2z" data-name="stroke" stroke-linejoin="round"/><path fill="#ed4c49" d="M42 21.5a5.5 5.5 0 0 0-10-3.2 5.5 5.5 0 0 0-10 3.2 5.5 5.5 0 0 0 0 .6C22.6 27.9 32 34 32 34s8.3-5.6 9.8-10.9a5.5 5.5 0 0 0 .2-1.6z" data-name="layer1"/><path stroke-width="2" stroke-miterlimit="10" stroke-linecap="round" stroke="#2e4369" fill="none" d="M42 21.5a5.5 5.5 0 0 0-10-3.2 5.5 5.5 0 0 0-10 3.2 5.5 5.5 0 0 0 0 .6C22.6 27.9 32 34 32 34s8.3-5.6 9.8-10.9a5.5 5.5 0 0 0 .2-1.6z" data-name="stroke" stroke-linejoin="round"/></svg>