<svg viewBox="0 0 64 64" xmlns="http://www.w3.org/2000/svg" aria-labelledby="title" aria-describedby="desc"><path stroke-width="2" stroke-miterlimit="10" stroke="#202020" fill="none" d="M33 62c0-17.1 16.3-25.2 17.8-39.7A18 18 0 1 0 15 20a18.1 18.1 0 0 0 .2 2.2C16.7 36.8 33 44.9 33 62z" data-name="layer2" stroke-linejoin="round" stroke-linecap="round"/><path stroke-width="2" stroke-miterlimit="10" stroke="#202020" fill="none" d="M41 18.3a4.3 4.3 0 0 0-4.4-4.3 4.4 4.4 0 0 0-3.6 1.8 4.4 4.4 0 0 0-3.6-1.8 4.3 4.3 0 0 0-4.4 4.3 4.2 4.2 0 0 0 0 .5c.5 4.5 8 9.3 8 9.3s6.6-4.3 7.8-8.5a4.2 4.2 0 0 0 .2-1.3z" data-name="layer1" stroke-linejoin="round" stroke-linecap="round"/></svg>