<svg xmlns="http://www.w3.org/2000/svg" viewBox="0 0 64 64" aria-labelledby="title" aria-describedby="desc"><path data-name="layer2" d="M52 60H12a2 2 0 0 0 0 4h40a2 2 0 0 0 0-4z" fill="#202020"/><path data-name="layer1" d="M32 54c7.7 0 14-12.7 14-21a15.1 15.1 0 0 0-7.9-13.4 13.2 13.2 0 0 0-4.1-1.4l-2-.2-2 .2a13.2 13.2 0 0 0-4.2 1.4A15.1 15.1 0 0 0 18 33c0 8.3 6.3 21 14 21z" fill="#202020"/><path data-name="layer2" d="M34 14.1V2a2 2 0 1 0-4 0v12.1h4z" fill="#202020"/><path data-name="layer1" d="M23 54c-5.5-5.1-9-14.2-9-21a19.3 19.3 0 0 1 6.8-14.9h-2A14.9 14.9 0 0 0 4 32.9c0 6.2 2.5 13.2 8.3 21.1zm27-21c0 6.8-3.5 15.9-9 21h10.7c5.8-7.9 8.3-14.9 8.3-21.1A14.9 14.9 0 0 0 45.1 18h-2A19.3 19.3 0 0 1 50 33z" fill="#202020"/></svg>