<svg xmlns="http://www.w3.org/2000/svg" viewBox="0 0 64 64" aria-labelledby="title" aria-describedby="desc"><path data-name="layer1" d="M60.5 16a7.5 7.5 0 0 1-6 3 7.4 7.4 0 0 1-5.8-2.7 7.5 7.5 0 0 0-11 0 7.5 7.5 0 0 1-11.5.1 7.5 7.5 0 0 0-11.1 0A7.5 7.5 0 0 1 3.5 16L10 47h44z" fill="#83edff"/><path data-name="opacity" d="M54.5 19a7.4 7.4 0 0 1-5.8-2.7 7.5 7.5 0 0 0-3.9-2.2L42.1 47h8.1l5.3-28.1z" fill="#fff" opacity=".5"/><path data-name="opacity" d="M9.5 19a7.5 7.5 0 0 1-6-3L10 47h3.9l-3.1-28.1z" fill="#000064" opacity=".15"/><path data-name="stroke" fill="none" stroke="#2e4369" stroke-linecap="round" stroke-miterlimit="10" stroke-width="2" d="M2 9l8 38h44l8-38" stroke-linejoin="round"/><circle data-name="stroke" cx="45" cy="28" r="2" fill="none" stroke="#2e4369" stroke-linecap="round" stroke-miterlimit="10" stroke-width="2" stroke-linejoin="round"/><path data-name="stroke" d="M60.5 16a7.5 7.5 0 0 1-6 3 7.4 7.4 0 0 1-5.8-2.7 7.5 7.5 0 0 0-11 0 7.5 7.5 0 0 1-11.5.1 7.5 7.5 0 0 0-11.1 0A7.5 7.5 0 0 1 3.5 16M38 34.5a3.5 3.5 0 0 1-3.5 3.5 3.5 3.5 0 0 1-3.5-3.5v-4a3.5 3.5 0 0 1 3.5-3.5 3.5 3.5 0 0 1 3.5 3.5zM26 27v11m-3.3-11l-4 8H26M8 55h48" fill="none" stroke="#2e4369" stroke-linecap="round" stroke-miterlimit="10" stroke-width="2" stroke-linejoin="round"/></svg>