<svg xmlns="http://www.w3.org/2000/svg" viewBox="0 0 64 64" aria-labelledby="title" aria-describedby="desc"><path data-name="layer2" fill="none" stroke="#202020" stroke-linecap="round" stroke-miterlimit="10" stroke-width="2" d="M2 5l8 38h44l8-38" stroke-linejoin="round"/><path data-name="layer2" d="M60.5 12a7.5 7.5 0 0 1-6 3 7.4 7.4 0 0 1-5.8-2.7 7.5 7.5 0 0 0-11 0 7.5 7.5 0 0 1-11.5.1 7.5 7.5 0 0 0-11.1 0A7.5 7.5 0 0 1 3.5 12" fill="none" stroke="#202020" stroke-linecap="round" stroke-miterlimit="10" stroke-width="2" stroke-linejoin="round"/><path data-name="layer1" d="M36 30.5a3.5 3.5 0 0 1-3.5 3.5 3.5 3.5 0 0 1-3.5-3.5v-4a3.5 3.5 0 0 1 3.5-3.5 3.5 3.5 0 0 1 3.5 3.5zm11 2.4a3.5 3.5 0 0 1-2.5 1.1 3.5 3.5 0 0 1-3.5-3.5v-4a3.5 3.5 0 0 1 3.5-3.5 3.5 3.5 0 0 1 2.9 1.5m-30.2 7.3a3.5 3.5 0 1 0 3.3-4.8H20l4-4h-6M7.8 51h48m-48 8h48" fill="none" stroke="#202020" stroke-linecap="round" stroke-miterlimit="10" stroke-width="2" stroke-linejoin="round"/></svg>