<svg xmlns="http://www.w3.org/2000/svg" viewBox="0 0 64 64" aria-labelledby="title" aria-describedby="desc"><path data-name="layer2" fill="none" stroke="#202020" stroke-linecap="round" stroke-miterlimit="10" stroke-width="2" d="M2 13l8 38h44l8-38" stroke-linejoin="round"/><circle data-name="layer1" cx="45" cy="32" r="2" fill="none" stroke="#202020" stroke-linecap="round" stroke-miterlimit="10" stroke-width="2" stroke-linejoin="round"/><path data-name="layer2" d="M60.5 20a7.5 7.5 0 0 1-6 3 7.4 7.4 0 0 1-5.8-2.7 7.5 7.5 0 0 0-11 0 7.5 7.5 0 0 1-11.5.1 7.5 7.5 0 0 0-11.1 0A7.5 7.5 0 0 1 3.5 20" fill="none" stroke="#202020" stroke-linecap="round" stroke-miterlimit="10" stroke-width="2" stroke-linejoin="round"/><path data-name="layer1" d="M20 41a3.5 3.5 0 0 0 2.5 1 3.5 3.5 0 0 0 3.5-3.5v-4" fill="none" stroke="#202020" stroke-linecap="round" stroke-miterlimit="10" stroke-width="2" stroke-linejoin="round"/><path data-name="layer1" d="M19 34.5a3.5 3.5 0 0 1 3.5-3.5 3.5 3.5 0 0 1 3.5 3.5 3.5 3.5 0 0 1-3.5 3.5 3.5 3.5 0 0 1-3.5-3.5zM37 31h-6v4h3a3.5 3.5 0 1 1-3 5.3" fill="none" stroke="#202020" stroke-linecap="round" stroke-miterlimit="10" stroke-width="2" stroke-linejoin="round"/></svg>