<svg viewBox="0 0 64 64" xmlns="http://www.w3.org/2000/svg" aria-labelledby="title" aria-describedby="desc"><path d="M2 13l8 38h44l8-38" stroke-width="2" stroke-miterlimit="10" stroke-linecap="round" stroke="#202020" fill="none" data-name="layer2" stroke-linejoin="round"/><path stroke-width="2" stroke-miterlimit="10" stroke-linecap="round" stroke="#202020" fill="none" d="M60.5 20a7.5 7.5 0 0 1-6 3 7.4 7.4 0 0 1-5.8-2.7 7.5 7.5 0 0 0-11 0 7.5 7.5 0 0 1-11.5.1 7.5 7.5 0 0 0-11.1 0A7.5 7.5 0 0 1 3.5 20" data-name="layer2" stroke-linejoin="round"/><circle stroke-width="2" stroke-miterlimit="10" stroke-linecap="round" stroke="#202020" fill="none" r="2" cy="42" cx="26" data-name="layer1" stroke-linejoin="round"/><circle stroke-width="2" stroke-miterlimit="10" stroke-linecap="round" stroke="#202020" fill="none" r="2" cy="42" cx="38" data-name="layer1" stroke-linejoin="round"/><circle stroke-width="2" stroke-miterlimit="10" stroke-linecap="round" stroke="#202020" fill="none" r="2" cy="31" cx="32" data-name="layer1" stroke-linejoin="round"/><circle stroke-width="2" stroke-miterlimit="10" stroke-linecap="round" stroke="#202020" fill="none" r="2" cy="31" cx="44" data-name="layer1" stroke-linejoin="round"/><circle stroke-width="2" stroke-miterlimit="10" stroke-linecap="round" stroke="#202020" fill="none" r="2" cy="31" cx="20" data-name="layer1" stroke-linejoin="round"/></svg>