<svg xmlns="http://www.w3.org/2000/svg" viewBox="0 0 64 64" aria-labelledby="title" aria-describedby="desc"><path data-name="layer3" d="M2 58a4 4 0 0 0 4 4h24a4 4 0 0 0 4-4V48H2zM34 6a4 4 0 0 0-4-4H6a4 4 0 0 0-4 4v4h32z" fill="#536897"/><path data-name="opacity" d="M8 58V48H2v10a4 4 0 0 0 4 4h6a4 4 0 0 1-4-4zm4-56H6a4 4 0 0 0-4 4v4h6V6a4 4 0 0 1 4-4z" fill="#000064" opacity=".14"/><path data-name="layer2" fill="#a0d6ef" d="M2 10h32v38H2z"/><circle data-name="layer1" cx="18" cy="55" r="1" fill="#7b8baf"/><path data-name="opacity" fill="#fff" opacity=".25" d="M34 10h-6L2 36v12h2l30-30v-8zm0 17L13 48h21V27z"/><path data-name="stroke" fill="none" stroke="#2e4369" stroke-linecap="round" stroke-miterlimit="10" stroke-width="2" d="M26 32h35M47.8 20L61 32 47.8 44M34 40v18a4 4 0 0 1-4 4H6a4 4 0 0 1-4-4V6a4 4 0 0 1 4-4h24a4 4 0 0 1 4 4v18M2 10h32M2 48h32m-16 7" stroke-linejoin="round"/><circle data-name="stroke" cx="18" cy="55" r="1" fill="none" stroke="#2e4369" stroke-linecap="round" stroke-miterlimit="10" stroke-width="2" stroke-linejoin="round"/></svg>