<svg xmlns="http://www.w3.org/2000/svg" viewBox="0 0 64 64" aria-labelledby="title" aria-describedby="desc"><circle data-name="layer1" cx="32" cy="9" r="7" fill="#78d1f4"/><path data-name="layer1" d="M43 22H21a3 3 0 0 0-3 3v16a3 3 0 0 0 3 3h3v15a3 3 0 0 0 3 3h10a3 3 0 0 0 3-3V44h3a3 3 0 0 0 3-3V25a3 3 0 0 0-3-3z" fill="#78d1f4"/><path data-name="opacity" d="M32 16a7 7 0 0 0 2-.3 7 7 0 0 1 0-13.4A7 7 0 1 0 32 16zm-4 43V44h-3a3 3 0 0 1-3-3V25a3 3 0 0 1 3-3h-4a3 3 0 0 0-3 3v16a3 3 0 0 0 3 3h3v15a3 3 0 0 0 3 3h4a3 3 0 0 1-3-3z" fill="#000064" opacity=".15"/><circle data-name="stroke" cx="32" cy="9" r="7" fill="none" stroke="#2e4369" stroke-linecap="round" stroke-linejoin="round" stroke-width="2"/><path data-name="stroke" d="M43 22H21a3 3 0 0 0-3 3v16a3 3 0 0 0 3 3h3v15a3 3 0 0 0 3 3h10a3 3 0 0 0 3-3V44h3a3 3 0 0 0 3-3V25a3 3 0 0 0-3-3z" fill="none" stroke="#2e4369" stroke-linecap="round" stroke-linejoin="round" stroke-width="2"/></svg>