<svg xmlns="http://www.w3.org/2000/svg" viewBox="0 0 64 64" aria-labelledby="title" aria-describedby="desc"><path data-name="layer2" d="M14 4.9v41.5c0 4 2.9 4.9 2.9 4.9L42 62V18.9L17.3 8.3c-2.2-1-4.6-3.1-2.5-5.2" fill="#9cf"/><path data-name="layer1" d="M50 14.5L23.5 3.3c-2.3-1.1-6.4-2.3-8.7-.2-2.1 2 .2 4.2 2.5 5.2L42 19v42s4.3-6.2 8-7V14.5z" fill="#fff"/><path data-name="opacity" d="M50 14.5l-3.2-1.4-23.3-9.8c-2.3-1.1-6.4-2.3-8.7-.2a2.2 2.2 0 0 0-.8 2c2.3-1.4 5.9-.3 8 .7l24.8 10.5v39.2A9.2 9.2 0 0 1 50 54V14.5z" fill="#000064" opacity=".15"/><path data-name="opacity" d="M17.3 8.3c-1.6-.7-3.2-2-3.3-3.4v41.5c0 4 2.9 4.9 2.9 4.9L37 59.9V16.8z" fill="#000064" opacity=".15"/><path data-name="stroke" d="M14.8 3.2c2.2-2.1 6.4-.9 8.7.2L50 14.5v40.6" fill="none" stroke="#2e4369" stroke-linecap="round" stroke-miterlimit="10" stroke-width="2" stroke-linejoin="round"/><path data-name="stroke" d="M14 4.9v41.5c0 4 2.9 4.9 2.9 4.9L42 62V18.9L17.3 8.3c-2.2-1-4.6-3.1-2.5-5.2" fill="none" stroke="#2e4369" stroke-linecap="round" stroke-miterlimit="10" stroke-width="2" stroke-linejoin="round"/></svg>