<svg viewBox="0 0 64 64" xmlns="http://www.w3.org/2000/svg" aria-labelledby="title" aria-describedby="desc"><path fill="#c3d6f9" d="M52 32l2 .2V11.9L36 2l-18 9.9L2 3v41.1L18 54l18-9.9 7.2 4A17.8 17.8 0 0 1 42 42a10 10 0 0 1 10-10z" data-name="layer2"/><path fill="#f26161" d="M54 32.2l-2-.2a10 10 0 0 0-10 10 17.8 17.8 0 0 0 1.2 6.1C45.9 55.3 52 62 52 62s10-11 10-20a10 10 0 0 0-8-9.8zM52 45a3 3 0 1 1 3-3 3 3 0 0 1-3 3z" data-name="layer1"/><path d="M2 3v41.1L18 54V11.9L2 3zm34-1v42.1l7.2 4A17.8 17.8 0 0 1 42 42a10 10 0 0 1 10-10l2 .2V11.9z" opacity=".2" fill="#000032" data-name="opacity"/><path d="M43.2 48.1l-7.2-4L18 54 2 44.1V3l16 8.9L36 2l18 9.9v20.3M36 44.1V2M18 54V11.9" stroke-width="2" stroke-miterlimit="10" stroke-linecap="round" stroke="#2e4369" fill="none" data-name="stroke" stroke-linejoin="round"/><path stroke-width="2" stroke-miterlimit="10" stroke-linecap="round" stroke="#2e4369" fill="none" d="M52 32a10 10 0 0 0-10 10c0 9 10 20 10 20s10-11 10-20a10 10 0 0 0-10-10z" data-name="stroke" stroke-linejoin="round"/><circle stroke-width="2" stroke-miterlimit="10" stroke-linecap="round" stroke="#2e4369" fill="none" r="3" cy="42" cx="52" data-name="stroke" stroke-linejoin="round"/></svg>