<svg xmlns="http://www.w3.org/2000/svg" viewBox="0 0 64 64" aria-labelledby="title" aria-describedby="desc"><path data-name="layer2" d="M32 2a20 20 0 0 0-20 20c0 18 20 40 20 40s20-22 20-40A20 20 0 0 0 32 2z" fill="#f26161"/><path data-name="layer1" d="M15 19a19.9 19.9 0 0 1 4.4-12.6A20 20 0 0 0 12 22c0 18 20 40 20 40l2.8-3.3C32.5 56.2 15 35.8 15 19z" fill="#d34545"/><path data-name="stroke" d="M32 2a20 20 0 0 0-20 20c0 18 20 40 20 40s20-22 20-40A20 20 0 0 0 32 2z" fill="none" stroke="#2e4369" stroke-linecap="round" stroke-linejoin="round" stroke-width="2"/></svg>