<svg xmlns="http://www.w3.org/2000/svg" viewBox="0 0 64 64" aria-labelledby="title" aria-describedby="desc"><path data-name="layer2" fill="#fff" d="M52 46H34l-2 6-2-6H12L4 62h56l-8-16z"/><path data-name="layer1" d="M32 2a18 18 0 0 0-4.9 35.3L30 46l2 6 2-6 2.9-8.7A18 18 0 0 0 32 2zm0 26a8 8 0 1 1 8-8 8 8 0 0 1-8 8z" fill="#f26161"/><path data-name="opacity" d="M17 19A18 18 0 0 1 27.8 2.5a18 18 0 0 0-.7 34.8L30 46l2 6-1.9-15.7A18 18 0 0 1 17 19z" fill="#000032" opacity=".2"/><path data-name="opacity" d="M32 52l-2-6H12l-2.4 4.8a130.2 130.2 0 0 0 14.5-1z" fill="#000032" opacity=".2"/><path data-name="stroke" fill="none" stroke="#2e4369" stroke-linecap="round" stroke-linejoin="round" stroke-width="2" d="M34 46h18l8 16H4l8-16h18"/><path data-name="stroke" d="M50 20a18 18 0 1 0-22.9 17.3L32 52l4.9-14.7A18 18 0 0 0 50 20z" fill="none" stroke="#2e4369" stroke-linecap="round" stroke-linejoin="round" stroke-width="2"/><circle data-name="stroke" cx="32" cy="20" r="8" fill="none" stroke="#2e4369" stroke-linecap="round" stroke-linejoin="round" stroke-width="2"/></svg>