<svg xmlns="http://www.w3.org/2000/svg" viewBox="0 0 64 64" aria-labelledby="title" aria-describedby="desc"><path data-name="layer2" fill="none" stroke="#202020" stroke-linecap="round" stroke-linejoin="round" stroke-width="2" d="M26.5 34v28m-10 0h20"/><path data-name="layer1" d="M33.5 12a11 11 0 1 1 7 11.3" fill="none" stroke="#202020" stroke-linecap="round" stroke-linejoin="round" stroke-width="2"/><path data-name="layer2" d="M44.1 18a18.9 18.9 0 0 0 .4-4v-2h-36v2a18.9 18.9 0 0 0 .4 4" fill="none" stroke="#202020" stroke-linecap="round" stroke-linejoin="round" stroke-width="2"/><path data-name="layer1" d="M8.9 18c.8 3.6 2.8 5.3 5.6 6s5 2.8 5.4 4.8 1.4 5.2 6.6 5.2c5.2 0 6.2-3.3 6.7-5.3s1.7-3.9 5.4-4.8 4.8-2.4 5.6-6z" fill="none" stroke="#202020" stroke-linecap="round" stroke-linejoin="round" stroke-width="2"/></svg>