<svg xmlns="http://www.w3.org/2000/svg" viewBox="0 0 64 64" aria-labelledby="title" aria-describedby="desc"><path data-name="layer3" d="M44.5 2a11 11 0 0 0-11 10h11v2c0 5.3-1.4 8-4 9.3a11 11 0 1 0 4-21.3z" fill="#ffc943"/><path data-name="layer2" d="M44.5 14v-2h-36v2a18.9 18.9 0 0 0 .4 4h35.2a18.9 18.9 0 0 0 .4-4z" fill="#d5e2f4"/><path data-name="layer1" d="M8.9 18c.8 3.6 2.8 5.3 5.6 6s5 2.8 5.4 4.8 1.4 5.2 6.6 5.2c5.2 0 6.2-3.3 6.7-5.3s1.7-3.9 5.4-4.8l2-.7a7.1 7.1 0 0 0 3.5-5.2z" fill="#f16262"/><path data-name="opacity" d="M14 14v-2H8.5v2a18.9 18.9 0 0 0 .4 4h5.4a27 27 0 0 1-.3-4zm7.9 14.8a5.4 5.4 0 0 0-3.7-4.8c-2-.7-3.4-2.4-3.9-6H8.9c.8 3.6 2.8 5.3 5.6 6s5 2.8 5.4 4.8 1.4 5.2 6.6 5.2c-3.6 0-4.3-3.2-4.6-5.2z" fill="#101129" opacity=".18"/><path data-name="opacity" d="M34.5 12v2c0 1.6-.1 2.9-.2 4h4.4a27.1 27.1 0 0 0 .3-4v-2zm-1.8 11.3l-.9.7c-1.7.9-2.2 2.8-2.4 4.8s-.6 5.2-2.9 5.2c3.6 0 4.3-3.3 4.6-5.3a5.4 5.4 0 0 1 3.8-4.7l1.4-.7c1.2-.9 2.1-2.6 2.5-5.3h-4.4c-.3 2.7-.9 4.3-1.7 5.3z" fill="#fff" opacity=".5"/><path data-name="stroke" fill="none" stroke="#2f446a" stroke-linecap="round" stroke-linejoin="round" stroke-width="2" d="M26.5 34v28m-10 0h20m-3-50a11 11 0 1 1 7 11.3"/><path data-name="stroke" d="M44.1 18a18.9 18.9 0 0 0 .4-4v-2h-36v2a18.9 18.9 0 0 0 .4 4" fill="none" stroke="#2f446a" stroke-linecap="round" stroke-linejoin="round" stroke-width="2"/><path data-name="stroke" d="M8.9 18c.8 3.6 2.8 5.3 5.6 6s5 2.8 5.4 4.8 1.4 5.2 6.6 5.2c5.2 0 6.2-3.3 6.7-5.3s1.7-3.9 5.4-4.8 4.8-2.4 5.6-6z" fill="none" stroke="#2f446a" stroke-linecap="round" stroke-linejoin="round" stroke-width="2"/></svg>