<svg xmlns="http://www.w3.org/2000/svg" viewBox="0 0 64 64" aria-labelledby="title" aria-describedby="desc"><path data-name="layer3" fill="#c3d6e0" d="M29 14V2h8v12"/><path data-name="layer2" d="M33 26l-18.9 3.4A95.3 95.3 0 0 0 21 56a6 6 0 0 0 12 0 6 6 0 0 0 12 0 95.3 95.3 0 0 0 6.8-26.6z" fill="#f27e7c"/><path data-name="opacity" fill="#000064" opacity=".15" d="M29 2h4v12h-4z"/><path data-name="layer1" d="M47 28.5V15.9a1.9 1.9 0 0 0-1.9-1.9H20.9a1.9 1.9 0 0 0-1.9 1.9v12.6L33 26z" fill="#dde5f4"/><path data-name="opacity" d="M24 15.9a1.9 1.9 0 0 1 1.9-1.9h-5a1.9 1.9 0 0 0-1.9 1.9v12.6l5-.9z" fill="#000064" opacity=".1"/><path data-name="opacity" d="M14.1 29.4A95.3 95.3 0 0 0 21 55.9a6 6 0 0 0 12 0v-30z" fill="#000064" opacity=".15"/><path data-name="stroke" fill="none" stroke="#2e4369" stroke-linecap="round" stroke-linejoin="round" stroke-width="2" d="M29 14V2h8v12M19 28.5V15.9a1.9 1.9 0 0 1 1.9-1.9h24.2a1.9 1.9 0 0 1 1.9 1.9v12.6"/><path data-name="stroke" fill="none" stroke="#2e4369" stroke-linecap="round" stroke-linejoin="round" stroke-width="2" d="M11 30l22-4 22 4M27 20h12m-24.9 9.4A95.1 95.1 0 0 0 21 56.1m30.8-26.7A95.1 95.1 0 0 1 45 56.1M33 26v30"/><path data-name="stroke" d="M9 56a6 6 0 0 0 12 .1 6 6 0 0 0 12-.1" fill="none" stroke="#2e4369" stroke-linecap="round" stroke-linejoin="round" stroke-width="2"/><path data-name="stroke" d="M33 56a6 6 0 0 0 12 .1 6 6 0 0 0 12-.1" fill="none" stroke="#2e4369" stroke-linecap="round" stroke-linejoin="round" stroke-width="2"/></svg>