<svg viewBox="0 0 64 64" xmlns="http://www.w3.org/2000/svg" aria-labelledby="title" aria-describedby="desc"><path stroke-width="2" stroke-miterlimit="10" stroke="#202020" fill="none" d="M42.9 43.3A61 61 0 0 0 48 49s14-13.4 14-26a14 14 0 0 0-23.3-10.5m-13.5 0A14 14 0 0 0 2 23c0 12.6 14 26 14 26a61 61 0 0 0 4.9-5.5" data-name="layer2" stroke-linejoin="round" stroke-linecap="round"/><path stroke-width="2" stroke-miterlimit="10" stroke="#202020" fill="none" d="M31.9 11a16 16 0 0 0-16 16c0 14.4 16 32 16 32s16-17.6 16-32a16 16 0 0 0-16-16z" data-name="layer1" stroke-linejoin="round" stroke-linecap="round"/><circle stroke-width="2" stroke-miterlimit="10" stroke="#202020" fill="none" r="6" cy="27" cx="32" data-name="layer1" stroke-linejoin="round" stroke-linecap="round"/></svg>