<svg xmlns="http://www.w3.org/2000/svg" viewBox="0 0 64 64" aria-labelledby="title" aria-describedby="desc"><path data-name="layer1" d="M59.4 19.1l4-4a2 2 0 0 0 0-2.8l-8.9-8.9a2 2 0 0 0-2.8 0l-4 4z" fill="#202020"/><path data-name="layer2" fill="#202020" d="M13.66 38.29l29.7-29.7 14.863 14.864-29.699 29.698z"/><path data-name="layer1" d="M10.8 41.2l-.9.9a3.3 3.3 0 0 0-1 2.4v3.3a2.3 2.3 0 0 1-.8 1.7l-6.7 6.6L0 57.5l3.6 3.6h11.3l2.5-2.5a2.3 2.3 0 0 1 1.7-.8h3.3a3.3 3.3 0 0 0 2.4-1l.9-.9z" fill="#202020"/></svg>