<svg xmlns="http://www.w3.org/2000/svg" viewBox="0 0 64 64" aria-labelledby="title" aria-describedby="desc"><path data-name="layer2" d="M31.9 9a16 16 0 0 0-16 16c0 14.4 16 32 16 32s16-17.6 16-32a16 16 0 0 0-16-16zm.1 22a6 6 0 1 1 6-6 6 6 0 0 1-6 6z" fill="#202020"/><path data-name="layer1" d="M11.9 25a20 20 0 0 1 9.4-16.9A14 14 0 0 0 2 21c0 12.6 14 26 14 26l2.2-2.3c-3.4-6-6.3-13.1-6.3-19.7zM48 7a13.9 13.9 0 0 0-5.4 1.1A20 20 0 0 1 51.9 25c0 6.6-2.8 13.6-6.2 19.6L48 47s14-13.4 14-26A14 14 0 0 0 48 7z" fill="#202020"/></svg>