<svg xmlns="http://www.w3.org/2000/svg" viewBox="0 0 64 64" aria-labelledby="title" aria-describedby="desc"><path data-name="layer2" fill="#536897" d="M47.2 10.4l5.5-5.6 8.9 8.9-5.6 5.5"/><path data-name="layer1" d="M2.4 57.5l.2.2L4 59.1h9.6l1.6-1.6-6.4-6.3z" fill="#fce349"/><path data-name="layer2" d="M15.2 57.6l.3-.3a4.3 4.3 0 0 1 3.2-1.4H22a1.3 1.3 0 0 0 1-.4l.9-.9 1.4-1.4-12-12-.6.6-.8.8-.9.9a1.3 1.3 0 0 0-.4 1v3.3A4.3 4.3 0 0 1 9.2 51l-.3.3" fill="#536897"/><path data-name="layer1" fill="#fce349" d="M25.2 53.2l32.4-32.4-12-12-32.4 32.4"/><path data-name="opacity" fill="#000028" opacity=".2" d="M22.38 50.297L54.765 17.91l2.9 2.9-32.386 32.385z"/><path data-name="stroke" fill="none" stroke="#2e4369" stroke-linecap="round" stroke-linejoin="round" stroke-width="2" d="M47.2 10.4l5.5-5.6 8.9 8.9-5.6 5.5M2.4 57.5l.2.2L4 59.1h9.6l1.6-1.6-6.4-6.3z"/><path data-name="stroke" d="M15.2 57.6l.3-.3a4.3 4.3 0 0 1 3.2-1.4H22a1.3 1.3 0 0 0 1-.4l.9-.9 1.4-1.4-12-12-.6.6-.8.8-.9.9a1.3 1.3 0 0 0-.4 1v3.3A4.3 4.3 0 0 1 9.2 51l-.3.3" fill="none" stroke="#2e4369" stroke-linecap="round" stroke-linejoin="round" stroke-width="2"/><path data-name="stroke" fill="none" stroke="#2e4369" stroke-linecap="round" stroke-linejoin="round" stroke-width="2" d="M25.2 53.2l32.4-32.4-12-12-32.4 32.4"/></svg>