<svg xmlns="http://www.w3.org/2000/svg" viewBox="0 0 64 64" aria-labelledby="title" aria-describedby="desc"><path data-name="layer3" fill="#d5e2f4" d="M50.2 12L60 2H4l9.8 10"/><path data-name="layer2" fill="#f9d28c" d="M50.2 12H13.8L32 30.6 50.2 12z"/><path data-name="opacity" fill="#101129" opacity=".18" d="M18.2 2H4l9.8 10h9.3L18.2 2zm-4.4 10L32 30.6 23.1 12h-9.3z"/><path data-name="opacity" fill="#fff" opacity=".5" d="M43.1 12l6.1-10h-10l-2.5 10h6.4zm-6.4 0L32 30.6 43.1 12h-6.4z"/><path data-name="stroke" fill="none" stroke="#2f446a" stroke-linecap="round" stroke-linejoin="round" stroke-width="2" d="M32 30.6V62m-14 0h28M32 30.6L50.2 12H13.8L32 30.6zM50.2 12L60 2H4l9.8 10"/></svg>