<svg xmlns="http://www.w3.org/2000/svg" viewBox="0 0 64 64" aria-labelledby="title" aria-describedby="desc"><path data-name="layer1" d="M61.1 10v4s-7.3-.3-8.3 7.2S49.1 54 49.1 54h-30l-6-44z" fill="#d5e2f4"/><path data-name="opacity" fill="#101129" opacity=".25" d="M13.1 10l6 44h4l-6-44h-4z"/><path data-name="opacity" fill="#fff" opacity=".5" d="M37.1 10h5v44h-5z"/><path data-name="stroke" d="M13.1 10l6 44h30s2.6-24 3.7-32.8 8.3-7.2 8.3-7.2v-4h-56c-3.1 0-2 4-2 4s1.8 8 3.2 13.1C7.1 30 7.8 32 9.7 32h1.4m16-12h8m-8 8h8m-8 8h8m-8 8h8" fill="none" stroke="#2f446a" stroke-linecap="round" stroke-linejoin="round" stroke-width="2"/></svg>