<svg xmlns="http://www.w3.org/2000/svg" viewBox="0 0 64 64" aria-labelledby="title" aria-describedby="desc"><path data-name="layer2" d="M40 6c-9.6 0-16.2 2-22 10S2 24.9 2 38s13.2 20 26 20 34-5.5 34-26S48.2 6 40 6zM27.8 52.8C15 52.8 7 47.2 7 38.3a12.7 12.7 0 0 1 4.2-9.3l2.6-2.3a41.9 41.9 0 0 0 8.2-8.4c3.2-4.7 9.4-7.2 18.4-7.2S57 19.4 57 32c0 15.3-15.1 20.8-29.2 20.8z" fill="#202020"/><path data-name="layer1" d="M40.4 15.2c-7.6 0-12.7 1.8-15.1 5.4a45.2 45.2 0 0 1-8.8 9.1L14 31.9a8.7 8.7 0 0 0-3 6.4c0 6.6 6.3 10.5 16.8 10.5C33.7 48.8 53 47.6 53 32c0-10.4-4.8-16.8-12.6-16.8zM40 36a6 6 0 1 1 6-6 6 6 0 0 1-6 6z" fill="#202020"/></svg>