<svg xmlns="http://www.w3.org/2000/svg" viewBox="0 0 64 64" aria-labelledby="title" aria-describedby="desc"><path data-name="layer1" d="M54 0H10a4.012 4.012 0 0 0-4 4v56a4.012 4.012 0 0 0 4 4h44a4.012 4.012 0 0 0 4-4V4a4.012 4.012 0 0 0-4-4zM39 7h3v8h-3a4 4 0 0 1 0-8zm0 14h3v8h-3a4 4 0 0 1 0-8zm0 14h3v8h-3a4 4 0 0 1 0-8zM17 7h3v8h-3a4 4 0 0 1 0-8zm0 14h3v8h-3a4 4 0 0 1 0-8zm0 14h3v8h-3a4 4 0 0 1 0-8zm-4 18a4.012 4.012 0 0 1 4-4h3v8h-3a4.012 4.012 0 0 1-4-4zm12 4h-3v-8h3a4 4 0 0 1 0 8zm0-14h-3v-8h3a4 4 0 0 1 0 8zm0-14h-3v-8h3a4 4 0 0 1 0 8zm0-14h-3V7h3a4 4 0 0 1 0 8zm10 38a4.012 4.012 0 0 1 4-4h3v8h-3a4.012 4.012 0 0 1-4-4zm12 4h-3v-8h3a4 4 0 0 1 0 8zm0-14h-3v-8h3a4 4 0 0 1 0 8zm0-14h-3v-8h3a4 4 0 0 1 0 8zm0-14h-3V7h3a4 4 0 0 1 0 8z" fill="#202020"/></svg>