<svg xmlns="http://www.w3.org/2000/svg" viewBox="0 0 64 64" aria-labelledby="title" aria-describedby="desc"><path data-name="layer3" d="M43.628 62c14.106.12 12.9-9.96 11.7-14.16-1.075-3.745-4.061-11.766-4.7-13.463C45.105 33.36 39 31.95 39 27c0-6 6.063-7.567 8-8l3.008-7.267A33.44 33.44 0 0 0 41 12c-12 2-16 12-17 15-.714 2.141-.747 3.2-1.953 5-1.135 1.7-5.494 3.745-11.008 9.823.127.4.243.8.4 1.217C15.416 53.719 29.522 61.879 43.628 62z" fill="#e26076"/><path data-name="opacity" d="M15.884 37.128a51.753 51.753 0 0 0-4.845 4.695c.127.4.243.8.4 1.217C15.416 53.719 29.522 61.879 43.628 62c9.561.081 12.085-4.522 12.345-8.806C54.1 54.323 51.42 55.031 47.628 55c-13.622-.117-27.242-7.732-31.744-17.872z" fill="#000064" opacity=".16"/><path data-name="layer1" d="M39 27c0 4.95 6.105 6.36 11.627 7.376l-.126-.337s.723-9.48-6.39-13.92l.089-.242C41.8 20.9 39 22.923 39 27z" fill="#e23333"/><path data-name="layer2" d="M29 7V6a2 2 0 0 0-2-2h-3a2 2 0 0 0-2 2v5s-5 4-3 12a10.81 10.81 0 0 0 4.389 6.037c.173-.592.345-1.239.611-2.037.967-2.9 4.764-12.331 15.871-14.757L40 12c-.785-4.539-6.757-6.24-11-5z" fill="#796dff"/><path data-name="layer1" d="M19 23a15.677 15.677 0 0 1-.38-2.217l-.092.03A28.459 28.459 0 0 0 13 26.24s-5.1 5.664-1.966 15.583C16.553 35.745 20.912 33.7 22.047 32a9.591 9.591 0 0 0 1.343-2.963A10.81 10.81 0 0 1 19 23zM29 6v1c4.243-1.24 10.215.461 11 5l-.129.243c.375-.082.736-.178 1.129-.243V4a2 2 0 0 0-2-2H29a2 2 0 0 0-2 2 2 2 0 0 1 2 2z" fill="#e23333"/><path data-name="layer1" d="M18.528 20.814l.092-.03A11.266 11.266 0 0 1 22 11V8h-3a6.018 6.018 0 0 0-6 6v10a5.95 5.95 0 0 0 .3 1.869h.016a28.311 28.311 0 0 1 5.212-5.055z" fill="#e23333"/><path data-name="opacity" d="M18.528 20.814l.092-.03A11.266 11.266 0 0 1 22 11V8h-3a6.018 6.018 0 0 0-6 6v10a5.95 5.95 0 0 0 .3 1.869h.016a28.311 28.311 0 0 1 5.212-5.055z" fill="#000064" opacity=".16"/><path data-name="stroke" d="M13.3 25.869A5.949 5.949 0 0 1 13 24V14a6.018 6.018 0 0 1 6-6h3m5-4a2 2 0 0 1 2-2h10a2 2 0 0 1 2 2v8" fill="none" stroke="#2e4369" stroke-linecap="round" stroke-miterlimit="10" stroke-width="2" stroke-linejoin="round"/><path data-name="stroke" d="M23.389 29.037A10.81 10.81 0 0 1 19 23c-2-8 3-12 3-12V6a2 2 0 0 1 2-2h3a2 2 0 0 1 2 2v1c4.243-1.24 10.215.461 11 5" fill="none" stroke="#2e4369" stroke-linecap="round" stroke-miterlimit="10" stroke-width="2" stroke-linejoin="round"/><path data-name="stroke" d="M11.023 41.839C16.545 35.748 20.911 33.7 22.047 32c1.206-1.8 1.24-2.859 1.953-5 1-3 5-13 17-15a33.44 33.44 0 0 1 9.008-.267m.619 22.643C45.105 33.361 39 31.95 39 27c0-6 6.063-7.566 8-8" fill="none" stroke="#2e4369" stroke-linecap="round" stroke-miterlimit="10" stroke-width="2" stroke-linejoin="round"/><path data-name="stroke" d="M44.111 20.12c7.113 4.44 6.39 13.92 6.39 13.92s3.617 9.6 4.823 13.8 2.411 14.28-11.7 14.16-28.213-8.28-32.191-18.96S13 26.24 13 26.24a28.46 28.46 0 0 1 5.523-5.426" fill="none" stroke="#2e4369" stroke-linecap="round" stroke-miterlimit="10" stroke-width="2" stroke-linejoin="round"/></svg>