<svg xmlns="http://www.w3.org/2000/svg" viewBox="0 0 64 64" aria-labelledby="title" aria-describedby="desc"><path data-name="layer3" d="M10.852 50.106A13.612 13.612 0 0 1 14 57.755a4.093 4.093 0 0 1-3.394 4.2A4 4 0 0 1 6 58c0-2.8 2.09-6.19 3.249-7.853a1 1 0 0 1 1.603-.041zm4.398-6.001l-.366.363a3 3 0 0 0 .8 4.816 3.132 3.132 0 0 0 3.578-.667l.273-.27A20.163 20.163 0 0 1 29.28 42.8a7 7 0 0 0 3.443-1.869L37.7 36H20.412a20.544 20.544 0 0 1-5.162 8.105z" fill="#9ecfff"/><path data-name="layer2" d="M22.732 31.033a6.9 6.9 0 0 0-1.886 3.412A16.88 16.88 0 0 1 20.412 36H37.7l7.867-7.791-9.99-9.9z" fill="#cbe5ff"/><path data-name="layer1" d="M60.606 4.751a7.124 7.124 0 0 0-10.617-.71L35.581 18.31l9.99 9.9 14.221-14.083a7.133 7.133 0 0 0 .814-9.376z" fill="#6679b0"/><path data-name="opacity" d="M60.606 4.751a7.139 7.139 0 0 0-.667-.738 7.378 7.378 0 0 1-2.147 6.113L43.571 24.209 35.7 32l-4.982 4.933A7 7 0 0 1 27.28 38.8a20.163 20.163 0 0 0-9.749 5.546l-.273.27a3.211 3.211 0 0 1-3.031.869 2.987 2.987 0 0 0 1.453 3.8 3.132 3.132 0 0 0 3.578-.667l.273-.27A20.163 20.163 0 0 1 29.28 42.8a7 7 0 0 0 3.443-1.869L37.7 36l7.867-7.791 14.225-14.082a7.133 7.133 0 0 0 .814-9.376z" fill="#000064" opacity=".16"/><path data-name="stroke" fill="none" stroke="#2e4369" stroke-linecap="round" stroke-miterlimit="10" stroke-width="2" d="M33.436 16.184l14.272 14.142M37.7 36l22.092-21.873a7.133 7.133 0 0 0 .815-9.376 7.124 7.124 0 0 0-10.617-.71L22.732 31.033a6.9 6.9 0 0 0-1.886 3.412A16.88 16.88 0 0 1 20.412 36m-9.56 14.106A13.612 13.612 0 0 1 14 57.755a4.093 4.093 0 0 1-3.394 4.2A4 4 0 0 1 6 58c0-2.8 2.09-6.19 3.249-7.853a1 1 0 0 1 1.603-.041z" stroke-linejoin="round"/><path data-name="stroke" d="M15.25 44.105l-.366.363a3 3 0 0 0 .8 4.816 3.132 3.132 0 0 0 3.578-.667l.273-.27A20.163 20.163 0 0 1 29.28 42.8a7 7 0 0 0 3.443-1.869L37.7 36H20.412a20.544 20.544 0 0 1-5.162 8.105z" fill="none" stroke="#2e4369" stroke-linecap="round" stroke-miterlimit="10" stroke-width="2" stroke-linejoin="round"/></svg>