<svg xmlns="http://www.w3.org/2000/svg" viewBox="0 0 64 64" aria-labelledby="title" aria-describedby="desc"><path data-name="layer2" d="M39 4h-2.1a5 5 0 0 0-9.8 0H25a4.724 4.724 0 0 0-5 5v3h24V9a4.774 4.774 0 0 0-5-5z" fill="#202020"/><path data-name="layer1" d="M54 5h-9.147A7.208 7.208 0 0 1 46 9h3.5a1.5 1.5 0 0 1 1.5 1.5v47a1.5 1.5 0 0 1-1.5 1.5h-35a1.5 1.5 0 0 1-1.5-1.5v-47A1.5 1.5 0 0 1 14.5 9H18a7.3 7.3 0 0 1 1.113-4H10a2 2 0 0 0-2 2v55a2 2 0 0 0 2 2h44a2 2 0 0 0 2-2V7a2 2 0 0 0-2-2z" fill="#202020"/><path data-name="layer1" d="M18.352 35.041l3.287-4.109a1.457 1.457 0 0 1 1.213-.562 1.488 1.488 0 0 1 1.178.63l3.718 5.2 5.713-9.791a1.5 1.5 0 0 1 2.682.186l5.778 14.032L44.8 34.87a1.491 1.491 0 0 1 1.342-.829H49V11h-3v3H18v-3h-3v24.041z" fill="#202020"/><path data-name="layer1" d="M46.451 36.041L43.219 42.5a1.5 1.5 0 0 1-1.342.829h-.055a1.482 1.482 0 0 1-1.332-.929l-5.811-14.108-5.593 9.585a1.491 1.491 0 0 1-1.226.742 1.457 1.457 0 0 1-1.291-.628L22.788 32.7l-3.023 3.78a1.49 1.49 0 0 1-1.172.563H15V57h34V36.041z" fill="#202020"/></svg>