<svg xmlns="http://www.w3.org/2000/svg" viewBox="0 0 64 64" aria-labelledby="title" aria-describedby="desc"><rect data-name="layer2" x="49" y="21" width="7" height="10" rx="1" ry="1" fill="#202020"/><rect data-name="layer2" x="8" y="21" width="7" height="10" rx="1" ry="1" fill="#202020"/><path data-name="layer1" d="M60 11H43V8a6.007 6.007 0 0 0-6-6H27a6.007 6.007 0 0 0-6 6v3H4a4 4 0 0 0-4 4v9a1 1 0 0 0 1 1h5v-3a3 3 0 0 1 3-3h5a3 3 0 0 1 3 3v3h30v-3a3 3 0 0 1 3-3h5a3 3 0 0 1 3 3v3h5a1 1 0 0 0 1-1v-9a4 4 0 0 0-4-4zM25 8a2 2 0 0 1 2-2h10a2 2 0 0 1 2 2v3H25zm30 25h-5a3 3 0 0 1-3-3v-3H17v3a3 3 0 0 1-3 3H9a3 3 0 0 1-3-3v-3H2v28a6 6 0 0 0 6 6h46c3.314 0 8-2.686 8-6V27h-4v3a3 3 0 0 1-3 3zM43 45h-8v8h-6v-8h-8v-6h8v-8h6v8h8z" fill="#202020"/></svg>