<svg xmlns="http://www.w3.org/2000/svg" viewBox="0 0 64 64" aria-labelledby="title" aria-describedby="desc"><path data-name="layer2" fill="none" stroke="#202020" stroke-linecap="round" stroke-miterlimit="10" stroke-width="2" d="M43 39h-8v-8h-6v8h-8v6h8v8h6v-8h8v-6z" stroke-linejoin="round"/><path data-name="layer1" d="M60 25v29c0 3.314-4.686 6-8 6H10a6 6 0 0 1-6-6V25m19-13V8a4 4 0 0 1 4-4h10a4 4 0 0 1 4 4v4" fill="none" stroke="#202020" stroke-linecap="round" stroke-miterlimit="10" stroke-width="2" stroke-linejoin="round"/><rect data-name="layer1" x="10" y="21" width="6" height="8" rx="1" ry="1" fill="none" stroke="#202020" stroke-linecap="round" stroke-miterlimit="10" stroke-width="2" stroke-linejoin="round"/><rect data-name="layer1" x="48" y="21" width="6" height="8" rx="1" ry="1" fill="none" stroke="#202020" stroke-linecap="round" stroke-miterlimit="10" stroke-width="2" stroke-linejoin="round"/><path data-name="layer1" d="M54 25h7a1 1 0 0 0 1-1v-8a4 4 0 0 0-4-4H6a4 4 0 0 0-4 4v8a1 1 0 0 0 1 1h7m6 0h32" fill="none" stroke="#202020" stroke-linecap="round" stroke-miterlimit="10" stroke-width="2" stroke-linejoin="round"/></svg>