<svg xmlns="http://www.w3.org/2000/svg" viewBox="0 0 64 64" aria-labelledby="title" aria-describedby="desc"><path data-name="layer2" fill="none" stroke="#202020" stroke-linecap="round" stroke-miterlimit="10" stroke-width="2" d="M33.436 16.184l14.272 14.142M37.7 36l22.092-21.873a7.133 7.133 0 0 0 .815-9.376 7.124 7.124 0 0 0-10.617-.71L22.732 31.033a6.9 6.9 0 0 0-1.886 3.412A16.88 16.88 0 0 1 20.412 36" stroke-linejoin="round"/><path data-name="layer1" d="M10.852 50.106A13.612 13.612 0 0 1 14 57.755a4.093 4.093 0 0 1-3.394 4.2A4 4 0 0 1 6 58c0-2.8 2.09-6.19 3.249-7.853a1 1 0 0 1 1.603-.041zm4.398-6.001l-.366.363a3 3 0 0 0 .8 4.816 3.132 3.132 0 0 0 3.578-.667l.273-.27A20.163 20.163 0 0 1 29.28 42.8a7 7 0 0 0 3.443-1.869L37.7 36H20.412a20.544 20.544 0 0 1-5.162 8.105z" fill="none" stroke="#202020" stroke-linecap="round" stroke-miterlimit="10" stroke-width="2" stroke-linejoin="round"/></svg>