<svg xmlns="http://www.w3.org/2000/svg" viewBox="0 0 64 64" aria-labelledby="title" aria-describedby="desc"><path data-name="layer2" d="M46 21.48c.316-3.018-1.375-7.466-14-7.465s-14.35 4.447-14.031 7.465a3.928 3.928 0 0 1-3.02 4.486c-.59.122-2.091.521-3.585.913L8 50.994a8 8 0 0 0 8 8h32a8 8 0 0 0 8-8l-3.386-24.267c-1.074-.338-2.084-.653-2.6-.76C48.866 25.73 45.683 24.5 46 21.48z" fill="#a9d4ff"/><circle data-name="layer3" cx="32" cy="37.994" r="15" fill="#cbe5ff"/><path data-name="opacity" d="M32 52.994a14.979 14.979 0 0 1-13.379-21.756 14.99 14.99 0 1 0 24.758 16.513A14.955 14.955 0 0 1 32 52.994z" fill="#000064" opacity=".16"/><path data-name="layer2" d="M14.95 25.967a3.928 3.928 0 0 0 3.019-4.486c-.318-3.018 1.406-7.465 14.031-7.465s14.316 4.447 14 7.465 2.865 4.25 4.018 4.487 4.812 1.533 6.082 1.77 3.2.767 4.576-1.082a11.194 11.194 0 0 0-2-13.235C53.52 8.258 43.116 5.994 32 5.994S10.479 8.258 5.317 13.42a11.2 11.2 0 0 0-1.994 13.238C4.7 28.5 6.628 27.977 7.9 27.739s5.9-1.534 7.05-1.772z" fill="#a9d4ff"/><path data-name="opacity" d="M58.681 13.42C53.521 8.258 43.116 5.994 32 5.994S10.479 8.258 5.317 13.42a12.163 12.163 0 0 0-.909 1.018C9.858 9.971 19.617 7.993 30 7.994c11.115 0 21.52 2.263 26.68 7.426a11.344 11.344 0 0 1 2.459 12.38 3.141 3.141 0 0 0 1.537-1.146 11.193 11.193 0 0 0-1.995-13.234z" fill="#fff" opacity=".25"/><path data-name="opacity" d="M52.614 26.727c-1.074-.338-2.084-.653-2.6-.76C48.866 25.73 45.683 24.5 46 21.48c.294-2.805-1.152-6.844-11.5-7.4-.376-.02-.762-.036-1.162-.047h-.061c-.414-.01-.837-.017-1.277-.017-12.625 0-14.35 4.447-14.031 7.465a5.116 5.116 0 0 1 .026.651v.072a4.945 4.945 0 0 1-.051.565 3.88 3.88 0 0 1-2.991 3.2c-.59.122-2.091.521-3.585.913L8 50.994a8 8 0 0 0 8 8h5a8 8 0 0 1-8-8l3.365-24.114c1.495-.392 3-.791 3.585-.913a3.928 3.928 0 0 0 3.02-4.486 5.982 5.982 0 0 1-.023-.837A34.14 34.14 0 0 1 30 20.015c12.625 0 14.316 4.447 14 7.465s2.865 4.25 4.018 4.487c1.019.212 4 1.249 5.557 1.649z" fill="#000064" opacity=".16"/><path data-name="layer1" fill="#f4475d" d="M40 34.994h-5v-5h-6v5h-5v6h5v5h6v-5h5v-6z"/><path data-name="stroke" fill="none" stroke="#2e4369" stroke-linecap="round" stroke-miterlimit="10" stroke-width="2" d="M40 34.994h-5v-5h-6v5h-5v6h5v5h6v-5h5v-6z" stroke-linejoin="round"/><circle data-name="stroke" cx="32" cy="37.994" r="15" fill="none" stroke="#2e4369" stroke-linecap="round" stroke-miterlimit="10" stroke-width="2" stroke-linejoin="round"/><path data-name="stroke" d="M14.95 25.967a3.928 3.928 0 0 0 3.019-4.486c-.318-3.018 1.406-7.465 14.031-7.465s14.316 4.447 14 7.465 2.865 4.25 4.018 4.487 4.812 1.533 6.082 1.77 3.2.767 4.576-1.082a11.194 11.194 0 0 0-2-13.235C53.52 8.258 43.116 5.994 32 5.994S10.479 8.258 5.317 13.42a11.2 11.2 0 0 0-1.994 13.238C4.7 28.5 6.628 27.977 7.9 27.739s5.9-1.534 7.05-1.772z" fill="none" stroke="#2e4369" stroke-linecap="round" stroke-miterlimit="10" stroke-width="2" stroke-linejoin="round"/><path data-name="stroke" d="M11.365 26.88L8 50.994a8 8 0 0 0 8 8h32a8 8 0 0 0 8-8l-3.386-24.267" fill="none" stroke="#2e4369" stroke-linecap="round" stroke-miterlimit="10" stroke-width="2" stroke-linejoin="round"/></svg>