<svg xmlns="http://www.w3.org/2000/svg" viewBox="0 0 64 64" aria-labelledby="title" aria-describedby="desc"><path data-name="layer1" fill="#202020" d="M35 29.994h-6v5h-5v6h5v5h6v-5h5v-6h-5v-5z"/><path data-name="layer2" d="M60.388 11.713C55.557 6.88 44.944 3.994 32 3.994h-.015c-12.933 0-23.542 2.886-28.375 7.719a12.2 12.2 0 0 0-2.088 14.543 4.135 4.135 0 0 0 3.5 1.732 9.239 9.239 0 0 0 1.806-.218l.254-.05c.732-.138 2.424-.582 4.06-1.012 1.293-.34 2.515-.66 3.009-.763a4.911 4.911 0 0 0 3.812-5.57 3.705 3.705 0 0 1 1.043-2.922c1.411-1.568 4.812-3.438 12.994-3.438h.009c8.154 0 11.544 1.862 12.952 3.425a3.723 3.723 0 0 1 1.045 2.935c-.374 3.546 2.982 5.2 4.808 5.571.486.1 1.585.446 2.646.78 1.336.421 2.718.855 3.455.993l.251.049c1.274.252 3.646.717 5.31-1.514a12.191 12.191 0 0 0-2.088-14.541z" fill="#202020"/><path data-name="layer1" d="M52.859 28.634c-.919-.289-2.062-.649-2.448-.729-3.4-.7-6.849-3.421-6.393-7.737a1.791 1.791 0 0 0-.541-1.389c-.749-.831-3.365-2.764-11.475-2.764-8.132 0-10.756 1.941-11.507 2.776a1.778 1.778 0 0 0-.541 1.375 6.938 6.938 0 0 1-5.395 7.734c-.457.095-1.815.452-2.911.74l-1.7.445-2.94 22.782-.008.127a9.01 9.01 0 0 0 9 9h32a9.01 9.01 0 0 0 9-9L54.044 29c-.39-.116-.788-.241-1.185-.366zM32 52.994a15 15 0 1 1 15-15 15 15 0 0 1-15 15z" fill="#202020"/></svg>