<svg xmlns="http://www.w3.org/2000/svg" viewBox="0 0 64 64" aria-labelledby="title" aria-describedby="desc"><path data-name="layer2" d="M33.715 35.924l18.833 18.8C56.512 52.7 59 49.623 59 46.125 59 39.887 51.094 35 41 35a28.334 28.334 0 0 0-7.285.924zM23 46.125c0 6.238 7.906 11.125 18 11.125a27.624 27.624 0 0 0 8.649-1.324l-18.99-18.954C26 38.963 23 42.285 23 46.125z" fill="#202020"/><path data-name="layer2" d="M41 59.25c-8.136 0-14.824-2.881-18-7.246v.871C23 59.113 30.906 64 41 64s18-4.887 18-11.125V52c-3.176 4.369-9.864 7.25-18 7.25z" fill="#202020"/><path data-name="layer1" d="M8.934 45.065a10.081 10.081 0 0 1 0-14.238l10.532-10.533L33.172 34l.027-.009A30.244 30.244 0 0 1 40.891 33l9-9A14.068 14.068 0 0 0 30 4.105L6.105 28a14.1 14.1 0 0 0 0 19.895A14.081 14.081 0 0 0 21 51.089v-4.137a1.99 1.99 0 0 0-.813.171 10.149 10.149 0 0 1-11.253-2.058zm22.6-36.809l1.309-1.306a10.057 10.057 0 0 1 14.207 0 2 2 0 0 1-2.828 2.828 6.054 6.054 0 0 0-8.55 0l-1.3 1.307a2 2 0 1 1-2.83-2.828z" fill="#202020"/></svg>