<svg xmlns="http://www.w3.org/2000/svg" viewBox="0 0 64 64" aria-labelledby="title" aria-describedby="desc"><path data-name="layer2" d="M39 4h-2.1a5 5 0 0 0-9.8 0H25a4.724 4.724 0 0 0-5 5v3h24V9a4.774 4.774 0 0 0-5-5z" fill="#202020"/><path data-name="layer1" d="M54 5h-9.147A7.208 7.208 0 0 1 46 9h3.5a1.5 1.5 0 0 1 1.5 1.5v47a1.5 1.5 0 0 1-1.5 1.5h-35a1.5 1.5 0 0 1-1.5-1.5v-47A1.5 1.5 0 0 1 14.5 9H18a7.3 7.3 0 0 1 1.113-4H10a2 2 0 0 0-2 2v55a2 2 0 0 0 2 2h44a2 2 0 0 0 2-2V7a2 2 0 0 0-2-2z" fill="#202020"/><path data-name="layer1" d="M46 11v3H18v-3h-3v46h34V11zM25 26h5v-5h4v5h5v4h-5v5h-4v-5h-5zm18 24H22a1 1 0 0 1 0-2h21a1 1 0 0 1 0 2zm0-7H22a1 1 0 0 1 0-2h21a1 1 0 0 1 0 2z" fill="#202020"/></svg>