<svg xmlns="http://www.w3.org/2000/svg" viewBox="0 0 64 64" aria-labelledby="title" aria-describedby="desc"><path data-name="layer2" d="M62.4 3.141a8.122 8.122 0 0 0-12.112-.809L35.579 16.9l-1.439-1.426a1 1 0 1 0-1.408 1.42l1.426 1.413-12.13 12.016a7.912 7.912 0 0 0-2.158 3.9 18.873 18.873 0 0 1-5.324 9.167l-.367.363a4 4 0 0 0 1.046 6.416 3.763 3.763 0 0 0 1.728.408 4.3 4.3 0 0 0 3.009-1.253l.274-.271a19.158 19.158 0 0 1 9.258-5.279 8.007 8.007 0 0 0 3.934-2.136l12.141-12.024L47 31.036a1 1 0 1 0 1.408-1.42l-1.418-1.409 14.51-14.37a8.116 8.116 0 0 0 .9-10.696zM37.291 35H21.732c.027-.112.064-.223.089-.336a5.924 5.924 0 0 1 1.615-2.921l12.143-12.028 8.569 8.492z" fill="#202020"/><path data-name="layer1" d="M11.636 50.483A1.947 1.947 0 0 0 10 49.722a1.974 1.974 0 0 0-1.569.853C7.148 52.412 5 55.949 5 59a5 5 0 0 0 5.01 5A4.988 4.988 0 0 0 15 58.728a14.628 14.628 0 0 0-3.364-8.245z" fill="#202020"/></svg>