<svg xmlns="http://www.w3.org/2000/svg" viewBox="0 0 64 64" aria-labelledby="title" aria-describedby="desc"><path data-name="layer1" fill="#7b8baf" d="M42 2H8v14h4v16H8v30h48V16L42 2z"/><rect data-name="layer2" x="18" y="16" width="28" height="36" rx="2" ry="2" fill="#8fa9d8"/><path data-name="opacity" d="M44 16H20a2 2 0 0 0-2 2h24a2 2 0 0 1 2 2v32a2 2 0 0 0 2-2V18a2 2 0 0 0-2-2z" fill="#000064" opacity=".14"/><path data-name="layer1" fill="#7b8baf" d="M32 26l-6 10h12l-6-10z"/><path data-name="stroke" fill="none" stroke="#2e4369" stroke-linecap="round" stroke-linejoin="round" stroke-width="2" d="M32 26l-6 10h12l-6-10z"/><path data-name="stroke" fill="none" stroke="#2e4369" stroke-linecap="round" stroke-linejoin="round" stroke-width="2" d="M42 2H8v14h4v16H8v30h48V16L42 2z"/><rect data-name="stroke" x="18" y="16" width="28" height="36" rx="2" ry="2" fill="none" stroke="#2e4369" stroke-linecap="round" stroke-linejoin="round" stroke-width="2"/></svg>