<svg xmlns="http://www.w3.org/2000/svg" viewBox="0 0 64 64" aria-labelledby="title" aria-describedby="desc"><path data-name="layer3" d="M62 12a4 4 0 0 1-4 4H6a4 4 0 0 1-4-4 4 4 0 0 1 4-4h52a4 4 0 0 1 4 4z" fill="#9ab2d8"/><path data-name="layer2" d="M62 32a4 4 0 0 1-4 4H6a4 4 0 0 1-4-4 4 4 0 0 1 4-4h52a4 4 0 0 1 4 4z" fill="#bacae9"/><path data-name="layer1" d="M62 52a4 4 0 0 1-4 4H6a4 4 0 0 1-4-4 4 4 0 0 1 4-4h52a4 4 0 0 1 4 4z" fill="#dde5f4"/><path data-name="stroke" d="M62 12a4 4 0 0 1-4 4H6a4 4 0 0 1-4-4 4 4 0 0 1 4-4h52a4 4 0 0 1 4 4zm0 20a4 4 0 0 1-4 4H6a4 4 0 0 1-4-4 4 4 0 0 1 4-4h52a4 4 0 0 1 4 4zm0 20a4 4 0 0 1-4 4H6a4 4 0 0 1-4-4 4 4 0 0 1 4-4h52a4 4 0 0 1 4 4z" fill="none" stroke="#2e4369" stroke-linecap="round" stroke-linejoin="round" stroke-width="2"/></svg>