<svg xmlns="http://www.w3.org/2000/svg" viewBox="0 0 64 64" aria-labelledby="title" aria-describedby="desc"><path data-name="layer2" d="M37.4 54.3c-8.2-1.4-7.4-3.5-7.4-4.9v-2.5a13.9 13.9 0 0 0 4-10.1v-6.7C34 22.8 28.7 20 24 20s-10 2.8-10 10.1v6.7a13.8 13.8 0 0 0 4.1 10.1v2.5c0 1.4.7 3.5-7.4 4.9S2 60 2 62h44c0-2-1.3-6.4-8.6-7.7z" fill="#202020"/><path data-name="layer1" d="M24 2v14c6.2 0 12.9 3.8 13.9 12H42v7l7.6-7H62V2zm12.4 14.4a2.1 2.1 0 0 1-1.4.6 2 2 0 0 1-1.4-.6 2 2 0 0 1 0-2.8 2.1 2.1 0 0 1 2.8 0 2 2 0 0 1 0 2.8zm8 0a2 2 0 0 1-1.4.6 2 2 0 0 1-2-2 2 2 0 0 1 .6-1.4 2.1 2.1 0 0 1 2.8 0A2 2 0 0 1 45 15a2 2 0 0 1-.6 1.4zm8 0a2 2 0 0 1-1.4.6 2 2 0 0 1-1.4-3.4 2.1 2.1 0 0 1 2.8 0A2 2 0 0 1 53 15a2 2 0 0 1-.6 1.4z" fill="#202020"/></svg>