<svg xmlns="http://www.w3.org/2000/svg" viewBox="0 0 64 64" aria-labelledby="title" aria-describedby="desc"><rect data-name="layer3" x="2" y="12" width="60" height="40" rx="3" ry="3" fill="#d5e2f4"/><path data-name="opacity" d="M59 49H5a3 3 0 0 1-3-3v3a3 3 0 0 0 3 3h54a3 3 0 0 0 3-3v-3a3 3 0 0 1-3 3z" fill="#101129" opacity=".25"/><rect data-name="layer2" x="8" y="20" width="34" height="25.99" rx="3" ry="3" fill="#536998"/><circle data-name="layer1" cx="52" cy="41" r="3" fill="#fff"/><path data-name="opacity" d="M48.9 41a2.9 2.9 0 0 1 .1-.9 3 3 0 1 0 3.7 3.7h-.9a3 3 0 0 1-2.9-2.8z" fill="#101129" opacity=".25"/><path data-name="opacity" d="M42 43v-5.7L24.7 20H12.2l26 26h.8a3 3 0 0 0 3-3zm0-11.1v-4.1L34.2 20h-4.1L42 31.9z" fill="#fff" opacity=".25"/><rect data-name="stroke" x="2" y="12" width="60" height="40" rx="3" ry="3" fill="none" stroke="#2f446a" stroke-linecap="round" stroke-linejoin="round" stroke-width="2"/><rect data-name="stroke" x="8" y="20" width="34" height="25.99" rx="3" ry="3" fill="none" stroke="#2f446a" stroke-linecap="round" stroke-linejoin="round" stroke-width="2"/><circle data-name="stroke" cx="52" cy="41" r="3" fill="none" stroke="#2f446a" stroke-linecap="round" stroke-linejoin="round" stroke-width="2"/><path data-name="stroke" fill="none" stroke="#2f446a" stroke-linecap="round" stroke-linejoin="round" stroke-width="2" d="M50 22h4m-4 8h4"/></svg>