<svg xmlns="http://www.w3.org/2000/svg" viewBox="0 0 64 64" aria-labelledby="title" aria-describedby="desc"><path data-name="layer2" d="M20 29v4a12 12 0 0 0 24 0v-4z" fill="#8fa9d8"/><path data-name="layer1" d="M44 14a12 12 0 0 0-24 0v15h24z" fill="#536897"/><path data-name="opacity" d="M36 41a12 12 0 0 1-12-12V10a11.9 11.9 0 0 1 1.8-6.2A12 12 0 0 0 20 14v19a12 12 0 0 0 22.2 6.2A11.9 11.9 0 0 1 36 41z" fill="#000064" opacity=".2"/><path data-name="stroke" d="M20 14A12 12 0 0 1 32 2a12 12 0 0 1 12 12v19a12 12 0 0 1-12 12 12 12 0 0 1-12-12z" fill="none" stroke="#2e4369" stroke-linecap="round" stroke-miterlimit="10" stroke-width="2" stroke-linejoin="round"/><path data-name="stroke" d="M52 26.3V33a20 20 0 0 1-20 20 20 20 0 0 1-20-20v-6.7M52 29H12m20 24v9m12-42h-8m7.8-8H36m-8 0h-7.8m7.8 8h-8" fill="none" stroke="#2e4369" stroke-linecap="round" stroke-miterlimit="10" stroke-width="2" stroke-linejoin="round"/></svg>