<svg xmlns="http://www.w3.org/2000/svg" viewBox="0 0 64 64" aria-labelledby="title" aria-describedby="desc"><path data-name="layer1" d="M60.812 61a.506.506 0 0 0 .449-.73A7.491 7.491 0 0 0 54.5 56h-45a7.491 7.491 0 0 0-6.762 4.27.506.506 0 0 0 .449.73z" fill="#536897"/><circle data-name="layer2" cx="14" cy="43" r="6" fill="#8191b3"/><rect data-name="layer2" x="20.14" y="6.327" width="11.719" height="27.345" rx="1.953" ry="1.953" transform="rotate(-45 26 20)" fill="#8191b3"/><path data-name="layer1" d="M19.207 7.47L15.535 3.8a.5.5 0 0 0-.707 0L9.8 8.827a.5.5 0 0 0 0 .707l3.672 3.672M42.53 42a12.995 12.995 0 0 1-22.5.977l-.042-.1c0 .041.006.081.006.122a6 6 0 0 1-4.388 5.774A20.005 20.005 0 0 0 50.084 42zm-24.219-3.167a13 13 0 0 1 4.958-13.276l-4.989-4.989A19.959 19.959 0 0 0 11 36q0 .89.076 1.76a5.986 5.986 0 0 1 7.234 1.071z" fill="#536897"/><path data-name="opacity" d="M32.906 32.43a1.959 1.959 0 0 1-2.762 0L13.57 15.857a1.959 1.959 0 0 1 0-2.762l3-3a1.959 1.959 0 0 0 0 2.762L33.143 29.43a1.959 1.959 0 0 0 2.762 0zm-9.638-6.875l-4.989-4.989a20.1 20.1 0 0 0-4.212 4.789l5.166 5.166a13.071 13.071 0 0 1 4.035-4.966z" fill="#000064" opacity=".16"/><path data-name="layer1" d="M32 55.959c-.333.016-.663.041-1 .041a19.959 19.959 0 0 1-15.386-7.221A5.935 5.935 0 0 1 11 48.192V56h21z" fill="#536897"/><path data-name="opacity" d="M32 55.959c-.333.016-.663.041-1 .041a19.959 19.959 0 0 1-15.386-7.221A5.935 5.935 0 0 1 11 48.192V56h21z" fill="#000064" opacity=".16"/><path data-name="stroke" d="M60.812 61a.506.506 0 0 0 .449-.73A7.491 7.491 0 0 0 54.5 56h-45a7.491 7.491 0 0 0-6.762 4.27.506.506 0 0 0 .449.73z" fill="none" stroke="#2e4369" stroke-linecap="round" stroke-miterlimit="10" stroke-width="2" stroke-linejoin="round"/><circle data-name="stroke" cx="14" cy="43" r="6" fill="none" stroke="#2e4369" stroke-linecap="round" stroke-miterlimit="10" stroke-width="2" stroke-linejoin="round"/><path data-name="stroke" d="M18.31 38.831a13 13 0 0 1 4.958-13.276M42.53 42a12.995 12.995 0 0 1-22.5.977m-4.421 5.8A20.005 20.005 0 0 0 50.084 42m-31.8-21.434A19.959 19.959 0 0 0 11 36q0 .89.076 1.76M11 48.195V56m20-14h28" fill="none" stroke="#2e4369" stroke-linecap="round" stroke-miterlimit="10" stroke-width="2" stroke-linejoin="round"/><rect data-name="stroke" x="20.14" y="6.327" width="11.719" height="27.345" rx="1.953" ry="1.953" transform="rotate(-45 26 20)" fill="none" stroke="#2e4369" stroke-linecap="round" stroke-miterlimit="10" stroke-width="2" stroke-linejoin="round"/><path data-name="stroke" d="M19.207 7.47L15.535 3.8a.5.5 0 0 0-.707 0L9.8 8.827a.5.5 0 0 0 0 .707l3.672 3.672" fill="none" stroke="#2e4369" stroke-linecap="round" stroke-miterlimit="10" stroke-width="2" stroke-linejoin="round"/></svg>