<svg xmlns="http://www.w3.org/2000/svg" viewBox="0 0 64 64" aria-labelledby="title" aria-describedby="desc"><path data-name="layer2" d="M29 42a2 2 0 0 0 2 2h30a2 2 0 0 0 0-4H31a2 2 0 0 0-2 2zM11 13.476a2.932 2.932 0 0 0 .863 2.088l18.574 18.574a2.956 2.956 0 0 0 4.176 0l5.525-5.525a2.959 2.959 0 0 0 0-4.176L21.563 5.862a2.957 2.957 0 0 0-4.176 0l-5.524 5.524a2.933 2.933 0 0 0-.863 2.09z" fill="#202020"/><circle data-name="layer1" cx="14" cy="43" r="6" fill="#202020"/><path data-name="layer2" d="M9.741 10.892a4.946 4.946 0 0 1 .708-.919l5.524-5.524a4.944 4.944 0 0 1 .918-.708l-2.649-2.65a1.536 1.536 0 0 0-2.121 0L7.09 6.12a1.5 1.5 0 0 0 0 2.121z" fill="#202020"/><path data-name="layer1" d="M15.41 21.939A20.922 20.922 0 0 0 10 36v.08a7.956 7.956 0 0 1 9.04.717c-.018-.266-.044-.531-.044-.8a12.044 12.044 0 0 1 2.793-7.678zm48.442 38.9A8.452 8.452 0 0 0 56.262 56H37.4a20.866 20.866 0 0 0 12.063-10H37.625a11.981 11.981 0 0 1-15.675-2.126 8.012 8.012 0 0 1-5.911 6.853A20.963 20.963 0 0 0 24.62 56h-4.979a23.127 23.127 0 0 1-5.028-3.871l-1.137-1.156A7.965 7.965 0 0 1 9 49.223V56H7.738a8.452 8.452 0 0 0-7.59 4.839A1.521 1.521 0 0 0 .231 62.3a1.474 1.474 0 0 0 1.255.7h61.027a1.474 1.474 0 0 0 1.255-.7 1.523 1.523 0 0 0 .084-1.461z" fill="#202020"/></svg>