<svg xmlns="http://www.w3.org/2000/svg" viewBox="0 0 64 64" aria-labelledby="title" aria-describedby="desc"><path data-name="layer5" d="M62 2s-13.4-.7-22.6 8.5c-6.3 6.3-18.7 20-25.8 28l12 12c7.9-7.1 21.6-19.4 28-25.8C62.7 15.4 62 2 62 2z" fill="#bacae7"/><circle data-name="layer4" cx="44" cy="20" r="4" fill="#a0d6ef"/><path data-name="layer3" d="M8.3 44.4l11.3 11.4 6-5.3-12-12z" fill="#7b8baf"/><path data-name="layer2" d="M11.1 47.3C5.4 50 1.7 54.9 2 62c7.1.4 12-3.4 14.7-9.1l-5.6-5.6z" fill="#ed4c49"/><path data-name="layer1" d="M24.8 26H12.5l-7.7 7.7 11 2.3 9-10zM27 49.2l2.3 11 7.7-7.7V40.2l-9.9 9z" fill="#f27e7c"/><path data-name="opacity" d="M37 40.1c6.3-5.7 12.7-11.7 16.5-15.5C62.7 15.4 62 2 62 2s-9.2 14.2-19 24L22.1 46.9l-5.7 5.7 3.2 3.2 6-5.3 1.5-1.3 1.4 6.7 8.5-8.6v-7.1" fill="#000064" opacity=".15"/><path data-name="stroke" d="M11.1 47.3C5.4 50 1.7 54.9 2 62c7.1.4 12-3.4 14.7-9.1M62 2s-13.4-.7-22.6 8.5S8.3 44.4 8.3 44.4l11.3 11.4s24.7-22 33.9-31.2S62 2 62 2z" fill="none" stroke="#2e4369" stroke-linecap="round" stroke-linejoin="round" stroke-width="2"/><circle data-name="stroke" cx="44" cy="20" r="4" fill="none" stroke="#2e4369" stroke-linecap="round" stroke-linejoin="round" stroke-width="2"/><path data-name="stroke" fill="none" stroke="#2e4369" stroke-linecap="round" stroke-linejoin="round" stroke-width="2" d="M13.6 38.5l12 11.9M24.8 26H12.5l-7.7 7.7 11 2.3M37 40.2v12.3l-7.7 7.6L27 49.2"/></svg>