<svg xmlns="http://www.w3.org/2000/svg" viewBox="0 0 64 64" aria-labelledby="title" aria-describedby="desc"><path data-name="layer2" fill="#8fa9d8" d="M2 12h12v8H2zm48 38h12v8H50zM26 26h12v8H26z"/><path data-name="layer1" d="M10 20v40a2 2 0 0 1-2 2 2 2 0 0 1-2-2V20zm0-8V4a2 2 0 0 0-2-2 2 2 0 0 0-2 2v8zm24 22v26a2 2 0 0 1-2 2 2 2 0 0 1-2-2V34zm0-8V4a2 2 0 0 0-2-2 2 2 0 0 0-2 2v22zm24 32v2a2 2 0 0 1-2 2 2 2 0 0 1-2-2v-2z" fill="#536897"/><path data-name="opacity" d="M58 58v2a2 2 0 0 1-2 2 2 2 0 0 1-2-2v-2z" fill="#000064" opacity=".2"/><path data-name="layer1" d="M58 50V4a2 2 0 0 0-2-2 2 2 0 0 0-2 2v46z" fill="#536897"/><path data-name="opacity" fill="#000064" opacity=".2" d="M30 34h4v4h-4zM6 20h4v4H6z"/><path data-name="stroke" d="M10 20v40a2 2 0 0 1-2 2 2 2 0 0 1-2-2V20m0-8V4a2 2 0 0 1 2-2 2 2 0 0 1 2 2v8m24 22v26a2 2 0 0 1-2 2 2 2 0 0 1-2-2V34m0-8V4a2 2 0 0 1 2-2 2 2 0 0 1 2 2v22m24 32v2a2 2 0 0 1-2 2 2 2 0 0 1-2-2v-2m0-8V4a2 2 0 0 1 2-2 2 2 0 0 1 2 2v46M2 12h12v8H2zm48 38h12v8H50zM26 26h12v8H26z" fill="none" stroke="#2e4369" stroke-linecap="round" stroke-miterlimit="10" stroke-width="2" stroke-linejoin="round"/></svg>