<svg xmlns="http://www.w3.org/2000/svg" viewBox="0 0 64 64" aria-labelledby="title" aria-describedby="desc"><path data-name="layer1" fill="#c4d3e0" d="M43 8H15l6 26h24l2.7-11.8L57 8H43z"/><path data-name="opacity" fill="#101129" opacity=".25" d="M15 8l6 26h4L23 8h-8z"/><path data-name="opacity" fill="#fff" opacity=".5" d="M43 8l-2 26h4l2.7-11.8L57 8H43z"/><path data-name="layer1" fill="#c4d3e0" d="M45 42H21l-6 20h36l-6-20z"/><path data-name="opacity" fill="#101129" opacity=".25" d="M21 42l-6 20h8l2-20h-4z"/><path data-name="opacity" fill="#fff" opacity=".5" d="M51 62l-6-20h-4l2 20h8z"/><path data-name="layer1" fill="#c4d3e0" d="M23 34h20v8H23z"/><path data-name="opacity" fill="#101129" opacity=".25" d="M28 36h15v-2H23v8h5v-6z"/><path data-name="stroke" fill="none" stroke="#2f446a" stroke-linecap="round" stroke-linejoin="round" stroke-width="2" d="M11 26L7 8h50l-9.3 14.2L45 34H21L15 8m28 0l-2 26M23 8l2 26m18 0v8m-20-8v8m22 0H21l-6 20h36l-6-20zm-4 0l2 20M25 42l-2 20M21 2h24"/></svg>