<svg xmlns="http://www.w3.org/2000/svg" viewBox="0 0 64 64" aria-labelledby="title" aria-describedby="desc"><path data-name="layer1" d="M62 0H2a2 2 0 0 0-2 2v60a2 2 0 0 0 2 2h60a2 2 0 0 0 2-2V2a2 2 0 0 0-2-2zM10 10h35a1 1 0 0 1 0 2H10a1 1 0 0 1 0-2zm0 6h26a1 1 0 0 1 0 2H10a1 1 0 0 1 0-2zm26 26H10.001a1 1 0 0 1 0-2H36a1 1 0 0 1 0 2zm1 5a1 1 0 0 1-1 1H10.001a1 1 0 0 1 0-2H36a1 1 0 0 1 1 1zm-1-11H10.001a1 1 0 0 1 0-2H36a1 1 0 0 1 0 2zm0-6H10.001a1 1 0 0 1 0-2H36a1 1 0 0 1 0 2zm0-6H10.001a1 1 0 0 1 0-2H36a1 1 0 0 1 0 2zm9 30H10.001a1 1 0 0 1 0-2H45a1 1 0 0 1 0 2zm-.293-11.293a1 1 0 0 1-1.414-1.414L52.586 32l-9.293-9.293a1 1 0 0 1 1.414-1.414L55.414 32z" fill="#202020"/></svg>