<svg viewBox="0 0 64 64" xmlns="http://www.w3.org/2000/svg" aria-labelledby="title" aria-describedby="desc"><path fill="#202020" d="M23.249 48.433a2 2 0 0 0-2.811.313l-4.543 5.676a2 2 0 0 0 3.123 2.5l4.543-5.676a2 2 0 0 0-.312-2.813zm10 0a2 2 0 0 0-2.811.313l-9.607 12a2 2 0 0 0 3.123 2.5l9.607-12a2 2 0 0 0-.312-2.813zm10 0a2 2 0 0 0-2.812.313l-4.543 5.676a2 2 0 0 0 3.123 2.5l4.543-5.676a2 2 0 0 0-.311-2.813zm10 0a2 2 0 0 0-2.812.313l-9.605 12a2 2 0 0 0 3.123 2.5l9.605-12a2 2 0 0 0-.311-2.813z" data-name="layer2"/><path fill="#202020" d="M24 9.024a2 2 0 0 0 2-2V2.007a2 2 0 1 0-4 0v5.017a2 2 0 0 0 2 2zm8.812 3.676a2 2 0 0 0 2.828 0l3.548-3.548a2 2 0 0 0-2.828-2.825l-3.548 3.548a2 2 0 0 0 0 2.825zm-24.5 24.5a2 2 0 0 0 2.828 0l3.548-3.548a2 2 0 1 0-2.828-2.828l-3.548 3.551a2 2 0 0 0 0 2.825zm2.704-15.185a2 2 0 0 0-2-2H4a2 2 0 1 0 0 4h5.016a2 2 0 0 0 2-2zm1.269-8.893a2 2 0 0 0 2.828-2.828l-3.255-3.256a2 2 0 0 0-2.828 2.83zm39.732 10.867A12.992 12.992 0 0 0 27.062 28.1 7.8 7.8 0 0 0 26 27.991a8 8 0 0 0 0 16h26a10 10 0 0 0 .012-20zM16.546 28.63a12 12 0 0 1 7.171-4.42 17.092 17.092 0 0 1 7.1-9.486A9.972 9.972 0 0 0 16.546 28.63z" data-name="layer1"/></svg>