<svg xmlns="http://www.w3.org/2000/svg" viewBox="0 0 64 64" aria-labelledby="title" aria-describedby="desc"><path data-name="layer3" d="M2 46s7.3-18 46.7-18H62s-2.3 18-19 18z" fill="#dde5f4"/><circle data-name="layer2" cx="20" cy="40" r="1" fill="#7b8baf"/><circle data-name="layer2" cx="28" cy="38" r="1" fill="#7b8baf"/><path data-name="layer1" d="M40.7 28.3L30 20a37 37 0 0 0-20 9.8v7.5c5.7-4 15.3-8.1 30.7-9.1z" fill="#c3d6e0"/><path data-name="opacity" d="M2 46h41a17.7 17.7 0 0 0 10.3-3H8c2-4 11-10.3 11-10.3C5.3 38.1 2 46 2 46z" fill="#000064" opacity=".15"/><path data-name="opacity" d="M10 29.8v7.5a40.1 40.1 0 0 1 5.7-3.3l-.6-8.4a33.3 33.3 0 0 0-5.1 4.2z" fill="#000064" opacity=".15"/><path data-name="opacity" d="M40.7 28.3L30 20a30.6 30.6 0 0 0-5 1.1l4.4 8.6a88.8 88.8 0 0 1 11.3-1.5z" fill="#fff" opacity=".25"/><path data-name="stroke" d="M40.7 28.3L30 20S16.9 21.4 8 32m2 5.4v-7.6" fill="none" stroke="#2e4369" stroke-linecap="round" stroke-linejoin="round" stroke-width="2"/><path data-name="stroke" d="M2 46s7.3-18 46.7-18H62s-2.3 18-19 18z" fill="none" stroke="#2e4369" stroke-linecap="round" stroke-linejoin="round" stroke-width="2"/><circle data-name="stroke" cx="20" cy="40" r="1" fill="none" stroke="#2e4369" stroke-linecap="round" stroke-linejoin="round" stroke-width="2"/><circle data-name="stroke" cx="28" cy="38" r="1" fill="none" stroke="#2e4369" stroke-linecap="round" stroke-linejoin="round" stroke-width="2"/></svg>