<svg xmlns="http://www.w3.org/2000/svg" viewBox="0 0 64 64" aria-labelledby="title" aria-describedby="desc"><path data-name="layer3" d="M3.7 46a24.1 24.1 0 0 0 5.1 8h52.6a38.6 38.6 0 0 0 .6-8z" fill="#7b8baf"/><path data-name="layer2" d="M36 34.7v-7c0-2.6 1.7-7 6.4-7.9l8.8-1.7A27.1 27.1 0 0 0 31.3 10C7.3 10-2.2 30.7 3.7 46H62a46.8 46.8 0 0 0-.9-8H38.9c-1.4 0-2.9-.6-2.9-3.3z" fill="#ed4c49"/><path data-name="layer1" d="M51.2 18.1l-8.8 1.7c-4.7.9-6.4 5.3-6.4 7.9v7c0 2.7 1.5 3.3 2.9 3.3h22.2c-1.4-7.3-4.7-14.6-9.9-19.9z" fill="#c3d6e0"/><path data-name="opacity" d="M51.2 18.1l-2.9.6L36 30.9v3.8c0 2.7 1.5 3.3 2.9 3.3h.7l15.3-15.3a31.9 31.9 0 0 0-3.7-4.6zm6.3 9L46.6 38h5.7l6.8-6.8a41.6 41.6 0 0 0-1.6-4.1z" fill="#fff" opacity=".5"/><path data-name="opacity" d="M14 51a20 20 0 0 1-1.7-5A52.7 52.7 0 0 1 11 34c0-11.2 7.9-22.4 16.3-23.8C6.3 12.4-1.9 31.5 3.7 46a24.1 24.1 0 0 0 5.1 8h52.6c.2-.9.3-1.9.4-3z" fill="#000064" opacity=".15"/><path data-name="opacity" d="M51.2 18.1A27.1 27.1 0 0 0 31.3 10h-1.1c4.5.1 10.6 3.7 16.3 9z" fill="#fff" opacity=".25"/><path data-name="stroke" d="M8.8 54c-14.1-14.7-6-44 22.5-44 24.8 0 33.2 27.5 30.1 44z" fill="none" stroke="#2e4369" stroke-linecap="round" stroke-linejoin="round" stroke-width="2"/><path data-name="stroke" d="M61.1 38H38.9c-1.5 0-2.9-.6-2.9-3.3v-7c0-2.6 1.7-7 6.4-7.9l8.8-1.7M3.7 46H62" fill="none" stroke="#2e4369" stroke-linecap="round" stroke-linejoin="round" stroke-width="2"/></svg>