<svg xmlns="http://www.w3.org/2000/svg" viewBox="0 0 64 64" aria-labelledby="title" aria-describedby="desc"><path data-name="layer1" fill="none" stroke="#202020" stroke-linecap="round" stroke-linejoin="round" stroke-width="2" d="M30 30h32"/><path data-name="layer2" d="M2 4v19a9 9 0 0 0 9 9 9 9 0 0 0 9-9v-8A13 13 0 0 1 33 2a13 13 0 0 1 13 13v1" fill="none" stroke="#202020" stroke-linecap="round" stroke-linejoin="round" stroke-width="2"/><path data-name="layer1" d="M58 16a4 4 0 0 1 4 4v28a14 14 0 0 1-14 14h-4a14 14 0 0 1-14-14V20a4 4 0 0 1 4-4zm-12 0v14" fill="none" stroke="#202020" stroke-linecap="round" stroke-linejoin="round" stroke-width="2"/></svg>