<svg xmlns="http://www.w3.org/2000/svg" viewBox="0 0 64 64" aria-labelledby="title" aria-describedby="desc"><path data-name="layer1" d="M19.7 57.2L7.9 37.8a4 4 0 0 1 1.8-5.4 4 4 0 0 1 5.3 1.8l4.5 7.2" fill="none" stroke="#202020" stroke-miterlimit="10" stroke-width="2" stroke-linejoin="round" stroke-linecap="round"/><path data-name="layer1" d="M19.5 41.4L16.5 8a4 4 0 0 1 4-4 4 4 0 0 1 4 4l3 20V6a4 4 0 0 1 4-4 4 4 0 0 1 4 4v24l2-20a4 4 0 0 1 4-4 4 4 0 0 1 4 4l-2 22 5-12c.9-2 1.8-4 4-4s4.5 1.9 4 4l-5 19v13a10 10 0 0 1-10 10H28.2a10.1 10.1 0 0 1-8.6-4.8" fill="none" stroke="#202020" stroke-miterlimit="10" stroke-width="2" stroke-linejoin="round" stroke-linecap="round"/></svg>