<svg viewBox="0 0 64 64" xmlns="http://www.w3.org/2000/svg" aria-labelledby="title" aria-describedby="desc"><path stroke-width="2" stroke-miterlimit="10" stroke-linecap="round" stroke="#202020" fill="none" d="M29 35v13.6l-2.8-3.1a3 3 0 0 0-4.5 4L32 61l10.2-11.5a3 3 0 0 0-4.5-4L35 48.6V35m0-6V15.4l2.8 3.1a3 3 0 1 0 4.5-4L32 3 21.8 14.5a3 3 0 0 0 4.5 4l2.7-3.1V29" data-name="layer2" stroke-linejoin="round"/><path stroke-width="2" stroke-miterlimit="10" stroke-linecap="round" stroke="#202020" fill="none" d="M58 35H6a3 3 0 1 1 0-6h52a3 3 0 1 1 0 6z" data-name="layer1" stroke-linejoin="round"/></svg>