<svg xmlns="http://www.w3.org/2000/svg" viewBox="0 0 64 64" aria-labelledby="title" aria-describedby="desc"><path data-name="layer1" d="M36 34h14.594l-3.103 2.758a3 3 0 0 0 3.986 4.484L63 31 51.477 20.758a3 3 0 0 0-3.986 4.484L50.595 28H36m-6 0l-14.598.003 3.108-2.763a3 3 0 1 0-3.989-4.481L3 31.008l11.523 10.235a3 3 0 0 0 3.985-4.486L15.404 34H30" fill="#bacae9"/><path data-name="layer1" d="M36 5v52a2.999 2.999 0 1 1-5.997 0V5A2.999 2.999 0 1 1 36 5z" fill="#bacae9"/><path data-name="stroke" d="M36 34h14.594l-3.103 2.758a3 3 0 0 0 3.986 4.484L63 31 51.477 20.758a3 3 0 0 0-3.986 4.484L50.595 28H36m-6 0l-14.598.003 3.108-2.763a3 3 0 1 0-3.989-4.481L3 31.008l11.523 10.235a3 3 0 0 0 3.985-4.486L15.404 34H30" fill="none" stroke="#2e4369" stroke-linecap="round" stroke-linejoin="round" stroke-width="2"/><path data-name="stroke" d="M36 5v52a2.999 2.999 0 1 1-5.997 0V5A2.999 2.999 0 1 1 36 5z" fill="none" stroke="#2e4369" stroke-linecap="round" stroke-linejoin="round" stroke-width="2"/></svg>