<svg xmlns="http://www.w3.org/2000/svg" viewBox="0 0 64 64" aria-labelledby="title" aria-describedby="desc"><path data-name="layer1" d="M42.993 31.242a3 3 0 0 1-4.236-.249L36 27.891V55a3 3 0 0 1-6 0V27.89l-2.758 3.103a3 3 0 0 1-4.485-3.986L33 15.484l10.242 11.523a3 3 0 0 1-.25 4.235zM54 11a3.001 3.001 0 0 1-3 3H15a3 3 0 1 1 0-6h35.999A3 3 0 0 1 54 11z" fill="#bacae9"/><path data-name="stroke" d="M42.993 31.242a3 3 0 0 1-4.236-.249L36 27.891V55a3 3 0 0 1-6 0V27.89l-2.758 3.103a3 3 0 0 1-4.485-3.986L33 15.484l10.242 11.523a3 3 0 0 1-.25 4.235zM54 11a3.001 3.001 0 0 1-3 3H15a3 3 0 1 1 0-6h35.999A3 3 0 0 1 54 11z" fill="none" stroke="#2e4369" stroke-linecap="round" stroke-linejoin="round" stroke-width="2"/></svg>