<svg xmlns="http://www.w3.org/2000/svg" viewBox="0 0 64 64" aria-labelledby="title" aria-describedby="desc"><path data-name="layer1" d="M31.242 21.007a3 3 0 0 1-.249 4.235L27.891 28H55a3 3 0 0 1 0 6H27.89l3.103 2.758a3 3 0 0 1-3.986 4.484L15.484 31l11.523-10.242a3 3 0 0 1 4.235.249zM11 10a3 3 0 0 1 3 3v36a3 3 0 0 1-6 0V13a3 3 0 0 1 3-3z" fill="#bacae9"/><path data-name="stroke" d="M31.242 21.007a3 3 0 0 1-.249 4.235L27.891 28H55a3 3 0 0 1 0 6H27.89l3.103 2.758a3 3 0 0 1-3.986 4.484L15.484 31l11.523-10.242a3 3 0 0 1 4.235.249zM11 10a3 3 0 0 1 3 3v36a3 3 0 0 1-6 0V13a3 3 0 0 1 3-3z" fill="none" stroke="#2e4369" stroke-linecap="round" stroke-linejoin="round" stroke-width="2"/></svg>