<svg xmlns="http://www.w3.org/2000/svg" viewBox="0 0 64 64" aria-labelledby="title" aria-describedby="desc"><path data-name="layer2" d="M32.758 21.007a3.001 3.001 0 0 0 .249 4.236L36.109 28H9a3 3 0 0 0 0 6h27.11l-3.103 2.758a3 3 0 0 0 3.986 4.485L48.516 31 36.993 20.758a3 3 0 0 0-4.235.249z" fill="none" stroke="#202020" stroke-miterlimit="10" stroke-width="2" stroke-linejoin="round" stroke-linecap="round"/><path data-name="layer1" d="M53 10a3 3 0 0 0-3 3v36a3 3 0 0 0 6 0V13a3 3 0 0 0-3-3z" fill="none" stroke="#202020" stroke-miterlimit="10" stroke-width="2" stroke-linejoin="round" stroke-linecap="round"/></svg>