<svg viewBox="0 0 64 64" xmlns="http://www.w3.org/2000/svg" aria-labelledby="title" aria-describedby="desc"><path stroke-width="2" stroke-miterlimit="10" stroke-linecap="round" stroke="#202020" fill="none" d="M10 52.998A3 3 0 0 1 13 50h36a3 3 0 1 1 0 6H13a3.001 3.001 0 0 1-3-3.002z" data-name="layer1" stroke-linejoin="round"/><path stroke-width="2" stroke-miterlimit="10" stroke-linecap="round" stroke="#202020" fill="none" d="M40.993 32.758a3.001 3.001 0 0 0-4.236.249L34 36.109V9a3 3 0 0 0-6 0v27.11l-2.758-3.103a3 3 0 0 0-4.485 3.986L31 48.516l10.242-11.523a3 3 0 0 0-.249-4.235z" data-name="layer2" stroke-linejoin="round"/></svg>