<svg xmlns="http://www.w3.org/2000/svg" viewBox="0 0 64 64" aria-labelledby="title" aria-describedby="desc"><path data-name="layer2" d="M23.999 19.516a2.994 2.994 0 0 0 2.244-1.008L29 15.404V29h6l-.003-13.598 2.763 3.108a3 3 0 1 0 4.481-3.989L31.992 3 21.757 14.523a3 3 0 0 0 2.242 4.993z" fill="#202020"/><path data-name="layer1" d="M58 29.003H6A2.999 2.999 0 1 0 6 35h23v13.594l-2.758-3.103a3 3 0 0 0-4.484 3.986L32 61l10.242-11.523a3 3 0 0 0-4.484-3.986L35 48.595V35h23a2.999 2.999 0 1 0 0-5.997z" fill="#202020"/></svg>