<svg viewBox="0 0 64 64" xmlns="http://www.w3.org/2000/svg" aria-labelledby="title" aria-describedby="desc"><path stroke-width="2" stroke-miterlimit="10" stroke-linecap="round" stroke="#202020" fill="none" d="M35 35h13.6l-3.1 2.8a3 3 0 0 0 4 4.5L61 32 49.5 21.8a3 3 0 0 0-4 4.5l3.1 2.7H35m-6 0H15.4l3.1-2.8a3 3 0 1 0-4-4.5L3 32l11.5 10.2a3 3 0 0 0 4-4.5L15.4 35H29" data-name="layer2" stroke-linejoin="round"/><path stroke-width="2" stroke-miterlimit="10" stroke-linecap="round" stroke="#202020" fill="none" d="M35 6v52a3 3 0 1 1-6 0V6a3 3 0 1 1 6 0z" data-name="layer1" stroke-linejoin="round"/></svg>