<svg xmlns="http://www.w3.org/2000/svg" viewBox="0 0 64 64" aria-labelledby="title" aria-describedby="desc"><path data-name="layer1" d="M33.758 21.007a3 3 0 0 0 .249 4.235L37.109 28H10a3 3 0 0 0 0 6h27.11l-3.103 2.758a3 3 0 0 0 3.986 4.484L49.516 31 37.993 20.758a3 3 0 0 0-4.235.249zM54 10a3 3 0 0 0-3 3v36a3 3 0 0 0 6 0V13a3 3 0 0 0-3-3z" fill="#bacae9"/><path data-name="stroke" d="M33.758 21.007a3 3 0 0 0 .249 4.235L37.109 28H10a3 3 0 0 0 0 6h27.11l-3.103 2.758a3 3 0 0 0 3.986 4.484L49.516 31 37.993 20.758a3 3 0 0 0-4.235.249zM54 10a3 3 0 0 0-3 3v36a3 3 0 0 0 6 0V13a3 3 0 0 0-3-3z" fill="none" stroke="#2e4369" stroke-linecap="round" stroke-linejoin="round" stroke-width="2"/></svg>