<svg xmlns="http://www.w3.org/2000/svg" viewBox="0 0 64 64" aria-labelledby="title" aria-describedby="desc"><path data-name="layer1" d="M29 35v14.594l-2.758-3.103a3 3 0 0 0-4.484 3.986L32 62l10.242-11.523a3 3 0 0 0-4.484-3.986L35 49.595V35m0-6l-.003-14.598 2.763 3.108a3 3 0 1 0 4.481-3.989L31.992 2 21.757 13.523a3 3 0 0 0 4.486 3.985L29 14.404V29" fill="#bacae9"/><path data-name="layer1" d="M58 35H6a2.999 2.999 0 1 1 0-5.997h52A2.999 2.999 0 1 1 58 35z" fill="#bacae9"/><path data-name="stroke" d="M29 35v14.594l-2.758-3.103a3 3 0 0 0-4.484 3.986L32 62l10.242-11.523a3 3 0 0 0-4.484-3.986L35 49.595V35m0-6l-.003-14.598 2.763 3.108a3 3 0 1 0 4.481-3.989L31.992 2 21.757 13.523a3 3 0 0 0 4.486 3.985L29 14.404V29" fill="none" stroke="#2e4369" stroke-linecap="round" stroke-linejoin="round" stroke-width="2"/><path data-name="stroke" d="M58 35H6a2.999 2.999 0 1 1 0-5.997h52A2.999 2.999 0 1 1 58 35z" fill="none" stroke="#2e4369" stroke-linecap="round" stroke-linejoin="round" stroke-width="2"/></svg>