<svg xmlns="http://www.w3.org/2000/svg" viewBox="0 0 64 64" aria-labelledby="title" aria-describedby="desc"><path data-name="layer1" fill="#fff" d="M36 17l-8-8H10l8 8h18z"/><path data-name="layer3" fill="#485a7b" d="M10 9H2v8h16l-8-8z"/><path data-name="layer1" fill="#fff" d="M46 9l8 8h8V9H46z"/><path data-name="layer3" fill="#485a7b" d="M54 17l-8-8H28l8 8h18zM2 17v8h8l8-8H2z"/><path data-name="layer1" fill="#fff" d="M18 17l-8 8h18l8-8H18zm28 8h16v-8h-8l-8 8z"/><path data-name="layer3" fill="#485a7b" d="M36 17l-8 8h18l8-8H36z"/><path data-name="layer2" fill="#778399" d="M2 25h60v28H2z"/><path data-name="layer1" fill="#fff" d="M12 37h40v8H12z"/><path data-name="stroke" fill="none" stroke="#2e4369" stroke-linecap="round" stroke-miterlimit="10" stroke-width="2" d="M2 17h60m0 8V9H2v16" stroke-linejoin="round"/><path data-name="stroke" fill="none" stroke="#2e4369" stroke-linecap="round" stroke-miterlimit="10" stroke-width="2" d="M10 9l8 8-8 8M28 9l8 8-8 8M46 9l8 8-8 8M12 45h40" stroke-linejoin="round"/><path data-name="stroke" fill="none" stroke="#2e4369" stroke-linecap="round" stroke-miterlimit="10" stroke-width="2" d="M2 25h60v28H2z" stroke-linejoin="round"/></svg>