<svg xmlns="http://www.w3.org/2000/svg" viewBox="0 0 64 64" aria-labelledby="title" aria-describedby="desc"><path data-name="layer2" d="M2 60.1h60v-26H2zm10-10h40a2 2 0 0 1 0 4H12a2 2 0 0 1 0-4z" fill="#202020"/><path data-name="layer1" fill="#202020" d="M14.8 30.1h12.4l6-6H20.8l-6 6zm36.4-6H38.8l-6 6h12.4l6-6zm5.6 0l-6 6H62v-6h-5.2zM2 30.1h7.2l6-6H2v6zm46.2-15.7l-9.7-6.2-9.5 2.1 9.6 6.1 9.6-2zm12.6-2.7l-1.7-7.8-15 3.1 9.7 6.2 7-1.5zM33 17.6l-9.6-6.2-10.2 2.2 9.6 6.1L33 17.6z"/><path data-name="layer1" d="M17.3 20.9l-9.6-6.1c-6.9 1.8-5.6 9.3-5.6 9.3z" fill="#202020"/></svg>