<svg xmlns="http://www.w3.org/2000/svg" viewBox="0 0 64 64" aria-labelledby="title" aria-describedby="desc"><rect data-name="layer3" x="6" y="28" width="42" height="26" rx="2" ry="2" fill="#7b8baf"/><circle data-name="layer2" cx="12" cy="12" r="10" fill="#8fa9d8"/><circle data-name="layer2" cx="36" cy="16" r="6" fill="#8fa9d8"/><path data-name="layer1" fill="#536897" d="M48 46l14 6V30l-14 6v10z"/><path data-name="opacity" d="M46 50H8a2 2 0 0 1-2-2v4a2 2 0 0 0 2 2h38a2 2 0 0 0 2-2v-4a2 2 0 0 1-2 2zm16 2v-7.7l-14-2V46l14 6z" fill="#000064" opacity=".16"/><path data-name="stroke" fill="none" stroke="#2e4369" stroke-linecap="round" stroke-miterlimit="10" stroke-width="2" d="M48 36l14-6v22l-14-6" stroke-linejoin="round"/><rect data-name="stroke" x="6" y="28" width="42" height="26" rx="2" ry="2" fill="none" stroke="#2e4369" stroke-linecap="round" stroke-miterlimit="10" stroke-width="2" stroke-linejoin="round"/><circle data-name="stroke" cx="12" cy="12" r="10" fill="none" stroke="#2e4369" stroke-linecap="round" stroke-miterlimit="10" stroke-width="2" stroke-linejoin="round"/><circle data-name="stroke" cx="36" cy="16" r="6" fill="none" stroke="#2e4369" stroke-linecap="round" stroke-miterlimit="10" stroke-width="2" stroke-linejoin="round"/></svg>