<svg xmlns="http://www.w3.org/2000/svg" viewBox="0 0 64 64" aria-labelledby="title" aria-describedby="desc"><path data-name="layer2" fill="#fff" d="M56 14L44 2v12h12z"/><path data-name="layer1" fill="#ebf5ff" d="M44 14V2H24v44h32V14H44z"/><path data-name="layer1" fill="#ebf5ff" d="M38 54v8H8V20h8v34h22z"/><path data-name="layer1" fill="#ebf5ff" d="M46 46v8H16V12h8v34h22z"/><path data-name="opacity" fill="#000064" opacity=".2" d="M38 54v8H8V20h8v34h22z"/><path data-name="opacity" fill="#000064" opacity=".1" d="M46 46v8H16V12h8v34h22z"/><path data-name="stroke" fill="none" stroke="#2e4369" stroke-linecap="round" stroke-miterlimit="10" stroke-width="2" d="M24 2v44h32V14L44 2H24z" stroke-linejoin="round"/><path data-name="stroke" fill="none" stroke="#2e4369" stroke-linecap="round" stroke-miterlimit="10" stroke-width="2" d="M44 2v12h12m-40 6H8v42h30v-8" stroke-linejoin="round"/><path data-name="stroke" fill="none" stroke="#2e4369" stroke-linecap="round" stroke-miterlimit="10" stroke-width="2" d="M24 12h-8v42h30v-8" stroke-linejoin="round"/></svg>