<svg xmlns="http://www.w3.org/2000/svg" viewBox="0 0 64 64" aria-labelledby="title" aria-describedby="desc"><path data-name="layer2" fill="#a6b1c9" d="M18 4h44v12H18z"/><path data-name="layer1" fill="#fff" d="M18 16v28h44V16"/><circle data-name="layer3" cx="24" cy="10" r="1" fill="#f27e7c"/><circle data-name="layer3" cx="31" cy="10" r="1" fill="#f27e7c"/><circle data-name="layer3" cx="38" cy="10" r="1" fill="#f27e7c"/><path data-name="layer2" fill="#a6b1c9" d="M10 12h8v12h-8z"/><path data-name="layer1" fill="#fff" d="M18 44V24h-8v28h44v-8H18z"/><path data-name="opacity" fill="#000064" opacity=".15" d="M18 44V12h-8v40h44v-8H18z"/><path data-name="layer2" fill="#a6b1c9" d="M2 20h8v12H2z"/><path data-name="layer1" fill="#fff" d="M10 52V32H2v28h44v-8H10z"/><path data-name="opacity" fill="#000064" opacity=".25" d="M10 52V20H2v40h44v-8H10z"/><path data-name="stroke" fill="none" stroke="#2e4369" stroke-linecap="round" stroke-linejoin="round" stroke-width="2" d="M18 4h44v12H18zm0 12v28h44V16"/><circle data-name="stroke" cx="24" cy="10" r="1" fill="none" stroke="#2e4369" stroke-linecap="round" stroke-linejoin="round" stroke-width="2"/><circle data-name="stroke" cx="31" cy="10" r="1" fill="none" stroke="#2e4369" stroke-linecap="round" stroke-linejoin="round" stroke-width="2"/><circle data-name="stroke" cx="38" cy="10" r="1" fill="none" stroke="#2e4369" stroke-linecap="round" stroke-linejoin="round" stroke-width="2"/><path data-name="stroke" fill="none" stroke="#2e4369" stroke-linecap="round" stroke-linejoin="round" stroke-width="2" d="M18 12h-8v12h8m-8 0v28h44v-8M10 20H2v12h8"/><path data-name="stroke" fill="none" stroke="#2e4369" stroke-linecap="round" stroke-linejoin="round" stroke-width="2" d="M2 32v28h44v-8"/></svg>