<svg xmlns="http://www.w3.org/2000/svg" viewBox="0 0 64 64" aria-labelledby="title" aria-describedby="desc"><path data-name="layer1" d="M59 19H13.3L42.8 6.8a2 2 0 1 0-1.5-3.7l-34 14A2 2 0 0 0 6 19H5a3 3 0 0 0-3 3v3h60v-3a3 3 0 0 0-3-3z" fill="#202020"/><path data-name="layer2" fill="#202020" d="M2 29h60v4H2z"/><path data-name="layer1" d="M2 58a3 3 0 0 0 3 3h54a3 3 0 0 0 3-3V37H2zm47-15a5 5 0 1 1-5 5 5 5 0 0 1 5-5zm-21-1h8a2 2 0 0 1 0 4h-8a2 2 0 1 1 0-4zm0 8h8a2 2 0 0 1 0 4h-8a2 2 0 1 1 0-4zm-13-7a5 5 0 1 1-5 5 5 5 0 0 1 5-5z" fill="#202020"/></svg>