<svg xmlns="http://www.w3.org/2000/svg" viewBox="0 0 64 64" aria-labelledby="title" aria-describedby="desc"><path data-name="layer2" fill="#f26161" d="M10 53H2V3h52v8H10v42z"/><path data-name="opacity" fill="#000064" opacity=".2" d="M10 53H2V3h52v8H10v42z"/><path data-name="layer2" fill="#f26161" d="M10 11h52v50H10z"/><path data-name="opacity" d="M27 26.2V44h-3a5 5 0 1 0 5 5V27.8l14-3.5V40h-3a5 5 0 1 0 5 5V21.7z" fill="#000064" opacity=".2"/><path data-name="layer1" d="M46 43a4 4 0 1 1-4-4h4zm-16 0h-4a4 4 0 1 0 4 4z" fill="#fff"/><path data-name="stroke" d="M30 43h-4a4 4 0 1 0 4 4V25l16-4v22a4 4 0 1 1-4-4h4" fill="none" stroke="#2e4369" stroke-linecap="round" stroke-miterlimit="10" stroke-width="2" stroke-linejoin="round"/><path data-name="stroke" fill="none" stroke="#2e4369" stroke-linecap="round" stroke-miterlimit="10" stroke-width="2" d="M10 53H2V3h52v8" stroke-linejoin="round"/><path data-name="stroke" fill="none" stroke="#2e4369" stroke-linecap="round" stroke-miterlimit="10" stroke-width="2" d="M10 11h52v50H10z" stroke-linejoin="round"/></svg>