<svg xmlns="http://www.w3.org/2000/svg" viewBox="0 0 64 64" aria-labelledby="title" aria-describedby="desc"><path data-name="layer2" fill="#f26161" d="M10 10h44v44H10zm-8 6h8v34H2zm52 0h8v34h-8z"/><path data-name="opacity" fill="#000064" opacity=".2" d="M2 16h8v34H2zm52 0h8v34h-8zm-23 4h-1.1l1.7 16H29a5 5 0 1 0 5 5v-1l-1.9-17.9c2 .3 5.9 1.6 5.9 6.9a1 1 0 0 0 2 0c0-7.1-5.9-9-9-9z"/><path data-name="layer1" d="M34 40a4 4 0 1 1-4-4h3.7z" fill="#fff"/><path data-name="stroke" fill="none" stroke="#2e4369" stroke-linecap="round" stroke-miterlimit="10" stroke-width="2" d="M10 16H2v34h8m44-34h8v34h-8M33.7 36H30a4 4 0 1 0 4 4v-1l-2-19s8 0 8 8" stroke-linejoin="round"/><path data-name="stroke" fill="none" stroke="#2e4369" stroke-linecap="round" stroke-miterlimit="10" stroke-width="2" d="M10 10h44v44H10z" stroke-linejoin="round"/></svg>