<svg xmlns="http://www.w3.org/2000/svg" viewBox="0 0 64 64" aria-labelledby="title" aria-describedby="desc"><path data-name="layer2" d="M2 30v30a2 2 0 0 0 2 2h28a2 2 0 0 0 2-2V30z" fill="#a3b8df"/><circle data-name="layer1" cx="18" cy="46" r="8" fill="#fff"/><path data-name="layer3" d="M34 12a2 2 0 0 0-2-2H4a2 2 0 0 0-2 2v18h32z" fill="#d1ebf7"/><circle data-name="layer2" cx="18" cy="46" r="3" fill="#a3b8df"/><path data-name="layer1" fill="#fff" d="M34 26v-7l-9-9h-7l16 16zM4 10l-.8.2L23 30h10L13 10z"/><path data-name="stroke" d="M40.2 13.7a12 12 0 0 1 0 20.5M46 8a20 20 0 0 1 0 32m5.7-37.7a28 28 0 0 1 .1 43.3" fill="none" stroke="#2e4369" stroke-linecap="round" stroke-miterlimit="10" stroke-width="2" stroke-linejoin="round"/><rect data-name="stroke" x="2" y="10" width="32" height="52" rx="2" ry="2" fill="none" stroke="#2e4369" stroke-linecap="round" stroke-miterlimit="10" stroke-width="2" stroke-linejoin="round"/><circle data-name="stroke" cx="18" cy="46" r="8" fill="none" stroke="#2e4369" stroke-linecap="round" stroke-miterlimit="10" stroke-width="2" stroke-linejoin="round"/><path data-name="stroke" fill="none" stroke="#2e4369" stroke-linecap="round" stroke-miterlimit="10" stroke-width="2" d="M2 30h32" stroke-linejoin="round"/></svg>