<svg xmlns="http://www.w3.org/2000/svg" viewBox="0 0 64 64" aria-labelledby="title" aria-describedby="desc"><path data-name="layer1" d="M2 54a8 8 0 0 0 16 0v-8h-8a8 8 0 0 0-8 8zm30-8a8 8 0 0 0 16 0v-8h-8a8 8 0 0 0-8 8zM18 10v10.1l30-8V2l-30 8z" fill="#8fa9d8"/><path data-name="opacity" d="M2 54a8 8 0 0 0 .1 1.5A8 8 0 0 1 10 49h8v-3h-8a8 8 0 0 0-8 8zm30-8a8 8 0 0 0 .1 1.5A8 8 0 0 1 40 41h8v-3h-8a8 8 0 0 0-8 8zM18 10v3l30-8V2l-30 8z" fill="#fff" opacity=".25"/><path data-name="stroke" d="M2 54a8 8 0 0 0 16 0v-8h-8a8 8 0 0 0-8 8zm30-8a8 8 0 0 0 16 0v-8h-8a8 8 0 0 0-8 8zM18 20v26m30-34v26M18 10v10.1l30-8V2l-30 8z" fill="none" stroke="#2e4369" stroke-linecap="round" stroke-miterlimit="10" stroke-width="2" stroke-linejoin="round"/></svg>