<svg xmlns="http://www.w3.org/2000/svg" viewBox="0 0 64 64" aria-labelledby="title" aria-describedby="desc"><path data-name="layer1" d="M42 6L24 24H12a2 2 0 0 0-2 2v12a2 2 0 0 0 2 2h12l18 18z" fill="#fce349"/><path data-name="opacity" d="M41.9 22.1V5.9L23.9 24h-12a2 2 0 0 0-2 2v6H32z" fill="#fff" opacity=".44"/><path data-name="opacity" fill="#000064" opacity=".16" d="M42 31.9l-.1-9.8L32 32l-8 8h.1l5.5 5.4L42 33v-1.1z"/><path data-name="stroke" fill="none" stroke="#2e4369" stroke-linecap="round" stroke-miterlimit="10" stroke-width="2" d="M29.4 45.4L42 58V32m0-10V6L24 24H12a2 2 0 0 0-2 2v12a2 2 0 0 0 2 2h12M62 2L2 62" stroke-linejoin="round"/></svg>