<svg xmlns="http://www.w3.org/2000/svg" viewBox="0 0 64 64" aria-labelledby="title" aria-describedby="desc"><path data-name="layer1" d="M24.5 39.5C16.1 31.1 10 21.5 10 13.8S16.9 2.3 18.7 2s3.5 1.5 4.3 2.7l5.9 9a4.2 4.2 0 0 1-1.1 5.7c-2 1.6-4.9 3.4-1.7 8.6a31.2 31.2 0 0 0 4.5 5.4l5.4 4.5 2 1c3.7 1.4 5.3-1 6.6-2.7a4.2 4.2 0 0 1 5.7-1.1l9 5.9c1.1.8 3 1.8 2.6 4.3S58 54 50.2 54c-5.5 0-12-3.1-18.2-7.9l-2-1.6-.6-.5z" fill="#ed5858"/><path data-name="opacity" d="M52.2 50c-5.5 0-12-3.1-18.2-7.9l-1.7-1.4 3.2-3.2-4.9-4.1-3 3-1-1C18.1 27.1 12 17.5 12 9.8a12.1 12.1 0 0 1 .5-3.3 11.8 11.8 0 0 0-2.5 7.3c0 7.8 6.1 17.3 14.5 25.7l4.9 4.5.6.5 2 1.6c6.3 4.8 12.7 7.9 18.2 7.9 7.8 0 11.5-6.9 11.8-8.7v-.2a12.1 12.1 0 0 1-9.8 4.9z" fill="#000064" opacity=".15"/><path data-name="stroke" d="M36 37.9l2 1c3.7 1.4 5.3-1 6.6-2.7a4.2 4.2 0 0 1 5.7-1.1l9 5.9c1.1.8 3 1.8 2.6 4.3S58 54 50.2 54c-5.5 0-12-3.1-18.2-7.9l-2-1.6-.6-.5m-4.9-4.5C16.1 31.1 10 21.5 10 13.8S16.9 2.3 18.7 2s3.5 1.5 4.3 2.7l5.9 9a4.2 4.2 0 0 1-1.1 5.7c-2 1.6-4.9 3.4-1.7 8.6a31.2 31.2 0 0 0 4.5 5.4M62 2L2 62" fill="none" stroke="#2e4369" stroke-linecap="round" stroke-miterlimit="10" stroke-width="2" stroke-linejoin="round"/></svg>