<svg viewBox="0 0 64 64" xmlns="http://www.w3.org/2000/svg" aria-labelledby="title" aria-describedby="desc"><path fill="#202020" d="M45 33v-9.869l-19.471 19.7L28.2 44A12.006 12.006 0 0 0 45 33z" data-name="layer1"/><path fill="#202020" d="M51 21a2 2 0 0 0-2 2v10a16 16 0 0 1-24.891 13.307 2 2 0 0 0-2.225 3.324A19.869 19.869 0 0 0 31 52.889V60h-8a2 2 0 0 0 0 4h20a2 2 0 0 0 0-4h-8v-7.1A20.027 20.027 0 0 0 53 33V23a2 2 0 0 0-2-2zm7.414-19.414a2 2 0 0 0-2.828 0L44.959 12.213A11.992 11.992 0 0 0 21 13v20a12.029 12.029 0 0 0 .344 2.828L18.172 39A16.018 16.018 0 0 1 17 33V23a2 2 0 1 0-4 0v10a19.972 19.972 0 0 0 2.152 9.02l-9.566 9.566a2 2 0 1 0 2.828 2.828l29.18-29.181L45 17.83 58.414 4.414a2 2 0 0 0 0-2.828z" data-name="layer1"/></svg>