<svg xmlns="http://www.w3.org/2000/svg" viewBox="0 0 64 64" aria-labelledby="title" aria-describedby="desc"><path data-name="layer2" d="M23.6 35.4A10 10 0 0 1 23 32V12A10 10 0 0 1 33 2a10 10 0 0 1 10 10v4m0 10v6a10 10 0 0 1-10 10 10 10 0 0 1-4-.8m-11.4.2A17.9 17.9 0 0 1 15 32V22" fill="none" stroke="#202020" stroke-miterlimit="10" stroke-width="2" stroke-linejoin="round" stroke-linecap="round"/><path data-name="layer2" d="M51 22v10a18 18 0 0 1-18 18 17.9 17.9 0 0 1-10-3m10 3v12m-10 0h20" fill="none" stroke="#202020" stroke-miterlimit="10" stroke-width="2" stroke-linejoin="round" stroke-linecap="round"/><path data-name="layer1" fill="none" stroke="#202020" stroke-miterlimit="10" stroke-width="2" d="M57 2L7 52" stroke-linejoin="round" stroke-linecap="round"/></svg>