<svg xmlns="http://www.w3.org/2000/svg" viewBox="0 0 64 64" aria-labelledby="title" aria-describedby="desc"><path data-name="layer1" d="M43 32a10 10 0 0 1-10 10 10 10 0 0 1-10-10V12A10 10 0 0 1 33 2a10 10 0 0 1 10 10z" fill="#536897"/><path data-name="opacity" d="M43 16L28 31V10a10 10 0 0 1 3.9-7.9A10 10 0 0 0 23 12v20a10 10 0 0 0 .6 3.4 10 10 0 0 0 2.1 3.4l.5.5h.1l.5.4h.2l.6.4a10 10 0 0 0 11.5-.5H38a10 10 0 0 1-7.1-2.9L43 25z" fill="#000064" opacity=".14"/><path data-name="stroke" d="M23.6 35.4A10 10 0 0 1 23 32V12A10 10 0 0 1 33 2a10 10 0 0 1 10 10v4m0 10v6a10 10 0 0 1-10 10 10 10 0 0 1-4-.8m-11.4.2A17.9 17.9 0 0 1 15 32V22" fill="none" stroke="#2e4369" stroke-linecap="round" stroke-miterlimit="10" stroke-width="2" stroke-linejoin="round"/><path data-name="stroke" d="M51 22v10a18 18 0 0 1-18 18 17.9 17.9 0 0 1-10-3m10 3v12m-10 0h20M57 2L7 52" fill="none" stroke="#2e4369" stroke-linecap="round" stroke-miterlimit="10" stroke-width="2" stroke-linejoin="round"/></svg>