<svg xmlns="http://www.w3.org/2000/svg" viewBox="0 0 64 64" aria-labelledby="title" aria-describedby="desc"><path data-name="layer2" d="M51.688 37.759a9.282 9.282 0 1 0-9.375-9.281 9.383 9.383 0 0 0 9.375 9.281m.843 2.157h-1.687a10.667 10.667 0 0 0-9.469 10.594v3.656a.939.939 0 0 0 .938.938h18.75a.939.939 0 0 0 .937-.938v-3.657a10.66 10.66 0 0 0-9.469-10.594m-22.5-.374a8.391 8.391 0 1 0-8.437-8.441 8.4 8.4 0 0 0 8.437 8.437m.75 1.972h-1.5a9.547 9.547 0 0 0-8.531 9.469v3.281a.84.84 0 0 0 .844.844h16.781a.84.84 0 0 0 .844-.844v-3.281a9.326 9.326 0 0 0-8.437-9.469" fill="none" stroke="#202020" stroke-linecap="round" stroke-miterlimit="10" stroke-width="2" stroke-linejoin="round"/><path data-name="layer1" d="M10.344 41.041a7.547 7.547 0 1 0-7.594-7.5 7.542 7.542 0 0 0 7.594 7.5M11 42.822H9.594A8.618 8.618 0 0 0 2 51.353v2.906a.807.807 0 0 0 .75.75h15.188a.739.739 0 0 0 .75-.75v-2.906A8.623 8.623 0 0 0 11 42.822" fill="none" stroke="#202020" stroke-linecap="round" stroke-miterlimit="10" stroke-width="2" stroke-linejoin="round"/></svg>