<svg xmlns="http://www.w3.org/2000/svg" viewBox="0 0 64 64" aria-labelledby="title" aria-describedby="desc"><path data-name="layer1" d="M22 21a2.99 2.99 0 0 0 .879 2.121l8.636 8.89-8.636 8.868a3 3 0 0 0 4.242 4.242L40 32.011 27.121 18.879A3 3 0 0 0 22 21z" fill="#bacae9"/><path data-name="stroke" d="M22 21a2.99 2.99 0 0 0 .879 2.121l8.636 8.89-8.636 8.868a3 3 0 0 0 4.242 4.242L40 32.011 27.121 18.879A3 3 0 0 0 22 21z" fill="none" stroke="#2e4369" stroke-linecap="round" stroke-linejoin="round" stroke-width="2"/></svg>