<svg xmlns="http://www.w3.org/2000/svg" viewBox="0 0 64 64" aria-labelledby="title" aria-describedby="desc"><path data-name="layer1" d="M43 40a2.99 2.99 0 0 1-2.121-.879l-8.89-8.636-8.868 8.636a3 3 0 0 1-4.242-4.242L31.989 22l13.132 12.879A3 3 0 0 1 43 40z" fill="#bacae9"/><path data-name="stroke" d="M43 40a2.99 2.99 0 0 1-2.121-.879l-8.89-8.636-8.868 8.636a3 3 0 0 1-4.242-4.242L31.989 22l13.132 12.879A3 3 0 0 1 43 40z" fill="none" stroke="#2e4369" stroke-linecap="round" stroke-linejoin="round" stroke-width="2"/></svg>