<svg xmlns="http://www.w3.org/2000/svg" viewBox="0 0 64 64" aria-labelledby="title" aria-describedby="desc"><path data-name="layer3" d="M50.571 44.857L47.714 42 42 47.714l2.857 2.857a2.026 2.026 0 0 0 2.857 0l2.857-2.857a2.026 2.026 0 0 0 0-2.857z" fill="#8695b6"/><path data-name="layer2" d="M25.571 17a4.041 4.041 0 0 1 0-5.714L11.286 25.571a4.041 4.041 0 0 1 5.714 0l12.714 12.715 8.571-8.571z" fill="#cbe5ff"/><path data-name="layer1" d="M42 47.714L47.714 42a2.026 2.026 0 0 0 0-2.857l-9.429-9.429-8.571 8.571 9.429 9.429a2.026 2.026 0 0 0 2.857 0z" fill="#53a9ff"/><path data-name="opacity" d="M42.143 44.714L20 22.571a4.041 4.041 0 0 0-5.714 0l-3 3a4.041 4.041 0 0 1 5.714 0l22.143 22.143a2.026 2.026 0 0 0 2.857 0l3-3a2.026 2.026 0 0 1-2.857 0z" fill="#000064" opacity=".16"/><path data-name="opacity" d="M21.382 15.882l-2 2L43.34 41.863c1.1.9 3.222-.2 2.1-1.879z" fill="#fff" opacity=".5"/><path data-name="stroke" d="M47.714 42l2.857 2.857a2.026 2.026 0 0 1 0 2.857l-2.857 2.857a2.026 2.026 0 0 1-2.857 0L42 47.714M62 62L49.143 49.143M18.429 18.429L5.571 5.571M2 9.143L9.143 2" fill="none" stroke="#2e4369" stroke-linecap="round" stroke-miterlimit="10" stroke-width="2" stroke-linejoin="round"/><path data-name="stroke" d="M25.571 17l22.143 22.143a2.026 2.026 0 0 1 0 2.857L42 47.714a2.026 2.026 0 0 1-2.857 0L17 25.571" fill="none" stroke="#2e4369" stroke-linecap="round" stroke-miterlimit="10" stroke-width="2" stroke-linejoin="round"/><circle data-name="stroke" cx="14.143" cy="28.429" r="4.041" transform="rotate(-45 14.143 28.429)" fill="none" stroke="#2e4369" stroke-linecap="round" stroke-miterlimit="10" stroke-width="2" stroke-linejoin="round"/><circle data-name="stroke" cx="28.429" cy="14.143" r="4.041" transform="rotate(-45 28.428 14.143)" fill="none" stroke="#2e4369" stroke-linecap="round" stroke-miterlimit="10" stroke-width="2" stroke-linejoin="round"/><path data-name="stroke" fill="none" stroke="#2e4369" stroke-linecap="round" stroke-miterlimit="10" stroke-width="2" d="M11.286 25.571l14.285-14.285m-2.142 12.143l4.285-4.286m1.429 7.143L32 23.429M32 32l4.298-4.335m4.273 12.906l4.286-4.285m-7.143-1.429L40.571 32" stroke-linejoin="round"/></svg>