<svg xmlns="http://www.w3.org/2000/svg" viewBox="0 0 64 64" aria-labelledby="title" aria-describedby="desc"><circle data-name="layer2" cx="32" cy="32" r="4" fill="#202020"/><path data-name="layer1" d="M32 42a10 10 0 0 1-3.3-.6 10.1 10.1 0 0 1-6.1-6.1 2 2 0 1 0-3.8 1.3 14.1 14.1 0 0 0 8.5 8.5 14 14 0 0 0 4.7.9 2 2 0 0 0 0-4zm4.7-23.2A14 14 0 0 0 32 18a2 2 0 0 0 0 4 10 10 0 0 1 9.4 6.7 2 2 0 0 0 1.9 1.3h.7a2 2 0 0 0 1.2-2.6 13.9 13.9 0 0 0-8.5-8.6z" fill="#202020"/><path data-name="layer1" d="M2 2v60h60V2zm30 52a22 22 0 1 1 22-22 22 22 0 0 1-22 22z" fill="#202020"/></svg>