<svg xmlns="http://www.w3.org/2000/svg" viewBox="0 0 64 64" aria-labelledby="title" aria-describedby="desc"><path data-name="layer2" d="M51.834 21.998A12.073 12.073 0 0 1 52 24v26a12 12 0 0 1-12 12H14A12 12 0 0 1 2 50V24a12 12 0 0 1 12-12h26a12.061 12.061 0 0 1 2.001.166" fill="#bacae9"/><path data-name="opacity" d="M51.834 21.998l-9.833-9.832A12.061 12.061 0 0 0 40 12h-1.163A9.995 9.995 0 0 0 52 25.163V24a12.073 12.073 0 0 0-.166-2.002z" opacity=".15"/><circle data-name="layer1" cx="52" cy="12" r="10" fill="#f66"/><path data-name="stroke" d="M51.834 21.998A12.073 12.073 0 0 1 52 24v26a12 12 0 0 1-12 12H14A12 12 0 0 1 2 50V24a12 12 0 0 1 12-12h26a12.061 12.061 0 0 1 2.001.166" fill="none" stroke="#2e4369" stroke-linecap="round" stroke-linejoin="round" stroke-width="2"/><circle data-name="stroke" cx="52" cy="12" r="10" fill="none" stroke="#2e4369" stroke-linecap="round" stroke-linejoin="round" stroke-width="2"/></svg>