<svg xmlns="http://www.w3.org/2000/svg" viewBox="0 0 64 64" aria-labelledby="title" aria-describedby="desc"><circle data-name="layer2" cx="47" cy="47" r="15" fill="#49bcff"/><path data-name="opacity" d="M47 32a15 15 0 0 0-11.6 5.4 15 15 0 0 1 21.2 21.2A15 15 0 0 0 47 32z" fill="#fff" opacity=".25"/><path data-name="layer1" d="M47 32a14.9 14.9 0 0 1 9 3V12H2v36h30.1c0-.3-.1-.7-.1-1a15 15 0 0 1 15-15z" fill="#fff4e3"/><path data-name="opacity" d="M26 48h6.1c0-.3-.1-.7-.1-1a15 15 0 0 1 9.6-14H41a15 15 0 0 0-15 15z" fill="#000064" opacity=".14"/><path data-name="opacity" fill="#000064" opacity=".14" d="M2 12l27 20.6L56 12v1.5L26 40 2 16.5V12z"/><path data-name="stroke" fill="none" stroke="#2e4369" stroke-linecap="round" stroke-miterlimit="10" stroke-width="2" d="M32 48H2V12h54v23" stroke-linejoin="round"/><path data-name="stroke" fill="none" stroke="#2e4369" stroke-linecap="round" stroke-miterlimit="10" stroke-width="2" d="M2 12l27 20.6L56 12m-9 28v14m7-7H40" stroke-linejoin="round"/><circle data-name="stroke" cx="47" cy="47" r="15" fill="none" stroke="#2e4369" stroke-linecap="round" stroke-miterlimit="10" stroke-width="2" stroke-linejoin="round"/></svg>