<svg xmlns="http://www.w3.org/2000/svg" viewBox="0 0 64 64" aria-labelledby="title" aria-describedby="desc"><path data-name="layer2" d="M55.6 28.7a17.5 17.5 0 0 0 .3-3.1C55.9 13.7 43.8 4 28.9 4s-27 9.7-27 21.6c0 6.1 3.1 11.5 8.2 15.5L4 53l17.5-6.6a33.3 33.3 0 0 0 7.4.8l3.5-.2a24 24 0 0 0 4.5-1" fill="none" stroke="#202020" stroke-linecap="round" stroke-linejoin="round" stroke-width="2"/><path data-name="layer1" fill="none" stroke="#202020" stroke-linecap="round" stroke-linejoin="round" stroke-width="2" d="M55 28L34 49l-4 11 11-4 21-21-6.4-6.3-.6-.7zM34 49l7 7"/></svg>