<svg xmlns="http://www.w3.org/2000/svg" viewBox="0 0 64 64" aria-labelledby="title" aria-describedby="desc"><path data-name="layer3" d="M55.6 28.7a17.5 17.5 0 0 0 .3-3.1C55.9 13.7 43.8 4 28.9 4s-27 9.7-27 21.6c0 6.1 3.1 11.5 8.2 15.5L4 53l17.5-6.6a33.3 33.3 0 0 0 7.4.8l3.5-.2a24.1 24.1 0 0 0 4.5-1l.8-.8L55 28z" fill="#a6dbff"/><path data-name="layer2" fill="#ffe1bd" d="M30 60l11-4-7-7-4 11z"/><path data-name="layer1" fill="#f27e7c" d="M55.6 28.7L55 28 34 49l7 7 21-21-6.4-6.3z"/><path data-name="opacity" d="M39 21.3c10.1 3.5 9.8-.6 8.7-3.3a15.3 15.3 0 0 0-2.4-3.4c-4.7-4.7-9.9-4.5-13.2-3S29 17.8 39 21.3z" fill="#fff" opacity=".4"/><path data-name="opacity" d="M47.6 28.7L47 28 32.2 42.8C16.9 41.4 5 31.7 5 20a17.5 17.5 0 0 1 1-5.8 18.5 18.5 0 0 0-4.1 11.4c0 6.1 3.1 11.5 8.2 15.5L4 53l17.5-6.6a33.3 33.3 0 0 0 6.3.8h1.1l3.5-.2a24.1 24.1 0 0 0 4.5-1l.8-.8 2.4-2.4L51 32z" fill="#000064" opacity=".14"/><path data-name="stroke" d="M55.6 28.7a17.5 17.5 0 0 0 .3-3.1C55.9 13.7 43.8 4 28.9 4s-27 9.7-27 21.6c0 6.1 3.1 11.5 8.2 15.5L4 53l17.5-6.6a33.3 33.3 0 0 0 7.4.8l3.5-.2a24 24 0 0 0 4.5-1" fill="none" stroke="#2e4369" stroke-linecap="round" stroke-miterlimit="10" stroke-width="2" stroke-linejoin="round"/><path data-name="stroke" fill="none" stroke="#2e4369" stroke-linecap="round" stroke-miterlimit="10" stroke-width="2" d="M55 28L34 49l-4 11 11-4 21-21-6.4-6.3-.6-.7zM34 49l7 7" stroke-linejoin="round"/></svg>