<svg viewBox="0 0 64 64" xmlns="http://www.w3.org/2000/svg" aria-labelledby="title" aria-describedby="desc"><circle fill="#49bcff" r="15" cy="44" cx="47" data-name="layer2"/><path opacity=".25" fill="#fff" d="M47 29a14.968 14.968 0 0 0-11.56 5.44 15 15 0 0 1 21.12 21.118A15 15 0 0 0 47 29z" data-name="opacity"/><path fill="#a6dbff" d="M47 29a14.924 14.924 0 0 1 8.296 2.507l.005-.003A17.555 17.555 0 0 0 56 26.6C56 14.67 43.912 5 29 5S2 14.67 2 26.6c0 6.068 3.133 11.55 8.17 15.473L4 54l17.615-6.625A33.332 33.332 0 0 0 29 48.2a34.152 34.152 0 0 0 3.545-.184l.013-.01A14.96 14.96 0 0 1 47 29z" data-name="layer1"/><path opacity=".14" fill="#000064" d="M41.45 30.073A15.12 15.12 0 0 0 40 30a14.993 14.993 0 0 0-14.755 12.366C13.062 39.952 4 30.858 4 20c0-.585.035-1.163.087-1.736A17.877 17.877 0 0 0 2 26.6c0 6.068 3.133 11.55 8.17 15.473L4 54l17.615-6.625a33.126 33.126 0 0 0 3.685.619 33.509 33.509 0 0 0 3.7.206 34.152 34.152 0 0 0 3.545-.184l.013-.01A14.97 14.97 0 0 1 32 44c0-.34.029-.673.05-1.007a14.988 14.988 0 0 1 9.4-12.92z" data-name="opacity"/><path opacity=".4" fill="#fff" d="M38.045 21.304c10.053 3.47 9.837-.613 8.71-3.34a15.286 15.286 0 0 0-2.383-3.362C39.68 9.946 34.448 10.065 31.2 11.56c-3.236 1.924-3.224 6.268 6.846 9.744z" data-name="opacity"/><path d="M54 44H40m15.3-12.496A17.556 17.556 0 0 0 56 26.6C56 14.67 43.912 5 29 5S2 14.67 2 26.6c0 6.068 3.133 11.55 8.17 15.473L4 54l17.615-6.625A33.333 33.333 0 0 0 29 48.2a34.148 34.148 0 0 0 3.545-.184M47 37v14" stroke-width="2" stroke-miterlimit="10" stroke-linecap="round" stroke="#2e4369" fill="none" data-name="stroke" stroke-linejoin="round"/><circle stroke-width="2" stroke-miterlimit="10" stroke-linecap="round" stroke="#2e4369" fill="none" r="15" cy="44" cx="47" data-name="stroke" stroke-linejoin="round"/></svg>