<svg xmlns="http://www.w3.org/2000/svg" viewBox="0 0 64 64" aria-labelledby="title" aria-describedby="desc"><path data-name="layer2" d="M56 54a6 6 0 0 1-6-6V10H2v38a6 6 0 0 0 6 6h48" fill="#dbf1ff"/><path data-name="layer2" d="M62 18v30a6 6 0 0 1-6 6 6 6 0 0 1-6-6V18z" fill="#dbf1ff"/><path data-name="opacity" d="M62 18v30a6 6 0 0 1-6 6 6 6 0 0 1-6-6V18z" fill="#000064" opacity=".15"/><path data-name="layer1" fill="#9cf" d="M10 26h14v16H10z"/><path data-name="opacity" d="M8 54h48a6 6 0 0 1-5.7-4H2.4A6 6 0 0 0 8 54z" fill="#000064" opacity=".15"/><path data-name="stroke" d="M56 54H8a6 6 0 0 1-6-6V10h48v8" fill="none" stroke="#2e4369" stroke-linecap="round" stroke-miterlimit="10" stroke-width="2" stroke-linejoin="round"/><path data-name="stroke" d="M62 18v30a6 6 0 0 1-6 6 6 6 0 0 1-6-6V18zm-52 0h32m-32 8h14v16H10zm22 0h10m-10 8h10m-10 8h10" fill="none" stroke="#2e4369" stroke-linecap="round" stroke-miterlimit="10" stroke-width="2" stroke-linejoin="round"/></svg>