<svg xmlns="http://www.w3.org/2000/svg" viewBox="0 0 64 64" aria-labelledby="title" aria-describedby="desc"><path data-name="layer2" d="M2 51.2c11 0 23.3 1.2 28 5.7v-44C25.3 8.4 13 7.2 2 7.2zm8.1-35.8a61.9 61.9 0 0 1 14.5 2.4 2 2 0 0 1-.6 3.9h-.6a58 58 0 0 0-13.6-2.3 2 2 0 0 1 .3-4zm0 7.5a61.9 61.9 0 0 1 14.5 2.4 2 2 0 0 1-.6 3.9h-.6a58.1 58.1 0 0 0-13.6-2.3 2 2 0 0 1 .3-4zm0 8a61.9 61.9 0 0 1 14.5 2.4 2 2 0 0 1-.6 3.9h-.6a58.1 58.1 0 0 0-13.6-2.3 2 2 0 0 1 .3-4zm0 7.5a61.9 61.9 0 0 1 14.5 2.4 2 2 0 0 1-.6 3.9h-.6a58 58 0 0 0-13.6-2.3 2 2 0 0 1 .3-4z" fill="#202020"/><path data-name="layer1" d="M34 12.8v44c4.7-4.4 17-5.7 28-5.7V7.2c-11 0-23.3 1.2-28 5.6zm20.1 29.6a58 58 0 0 0-13.6 2.2H40a2 2 0 0 1-.6-3.9 61.9 61.9 0 0 1 14.5-2.4 2 2 0 0 1 .3 4zm0-7.5A58.1 58.1 0 0 0 40.6 37H40a2 2 0 0 1-.6-3.9 61.9 61.9 0 0 1 14.5-2.4 2 2 0 1 1 .3 4zm0-8a58.1 58.1 0 0 0-13.6 2.2H40a2 2 0 0 1-.6-3.9 61.9 61.9 0 0 1 14.5-2.4 2 2 0 1 1 .3 4zm0-7.5a58 58 0 0 0-13.6 2.2H40a2 2 0 0 1-.6-3.9 61.9 61.9 0 0 1 14.5-2.4 2 2 0 0 1 .3 4z" fill="#202020"/></svg>