<svg xmlns="http://www.w3.org/2000/svg" viewBox="0 0 64 64" aria-labelledby="title" aria-describedby="desc"><path data-name="layer2" d="M18 54a8 8 0 0 1-8 8 8 8 0 0 1-8-8V10h16z" fill="#dbf1ff"/><path data-name="opacity" d="M18 54a8 8 0 0 1-8 8 8 8 0 0 1-8-8V10h16z" fill="#000064" opacity=".15"/><path data-name="layer2" d="M10 62h44a8 8 0 0 0 8-8V2H18v52a8 8 0 0 1-8 8" fill="#dbf1ff"/><path data-name="opacity" d="M10 62h44a8 8 0 0 0 7.4-5h-44a8 8 0 0 1-7.4 5z" fill="#000064" opacity=".15"/><path data-name="layer1" fill="#9cf" d="M42 18h12v16H42z"/><path data-name="stroke" d="M10 62h44a8 8 0 0 0 8-8V2H18v8" fill="none" stroke="#2e4369" stroke-linecap="round" stroke-miterlimit="10" stroke-width="2" stroke-linejoin="round"/><path data-name="stroke" d="M18 54a8 8 0 0 1-8 8 8 8 0 0 1-8-8V10h16zm36-44H26m28 32H26m28 8H26m16-32h12v16H42zm-8 0h-6m6 8h-8m8 8h-8" fill="none" stroke="#2e4369" stroke-linecap="round" stroke-miterlimit="10" stroke-width="2" stroke-linejoin="round"/></svg>