<svg xmlns="http://www.w3.org/2000/svg" viewBox="0 0 64 64" aria-labelledby="title" aria-describedby="desc"><path data-name="layer1" d="M21.001 50H58a3 3 0 0 0 0-6H21.001a12 12 0 1 1 0-24h30.326l-7.362 6.796a3 3 0 0 0 4.07 4.41L63 17 48.034 2.796a3 3 0 0 0-4.07 4.41L51.328 14H21.001a18 18 0 1 0 0 36z" fill="#bacae9"/><path data-name="stroke" d="M21.001 50H58a3 3 0 0 0 0-6H21.001a12 12 0 1 1 0-24h30.326l-7.362 6.796a3 3 0 0 0 4.07 4.41L63 17 48.034 2.796a3 3 0 0 0-4.07 4.41L51.328 14H21.001a18 18 0 1 0 0 36z" fill="none" stroke="#2e4369" stroke-linecap="round" stroke-linejoin="round" stroke-width="2"/></svg>