<svg viewBox="0 0 64 64" xmlns="http://www.w3.org/2000/svg" aria-labelledby="title" aria-describedby="desc"><path fill="#cdf0f0" d="M43.5 25h-.406a13.579 13.579 0 0 0-25.722 3.785A8.8 8.8 0 1 0 14.8 45.992h16.194L43.5 46a10.5 10.5 0 0 0 0-21z" data-name="layer2"/><path opacity=".1" fill="#000064" d="M17 31.5a14.551 14.551 0 0 1 .267-2.739A8.793 8.793 0 1 0 14.8 45.992h16.574A14.5 14.5 0 0 1 17 31.5z" data-name="opacity"/><path opacity=".5" fill="#fff" d="M54 35.5A10.5 10.5 0 0 0 43.5 25h-.406a13.563 13.563 0 0 0-19.1-5.964c.332-.022.667-.036 1.006-.036a16.954 16.954 0 0 1 13.815 7.122 10.581 10.581 0 0 0-3.094 2.343 11.975 11.975 0 0 1 14.814 14.814A10.461 10.461 0 0 0 54 35.5z" data-name="opacity"/><path fill="#e6f0fa" d="M25.992 16.808a12.029 12.029 0 0 0-11.968-10.8c-.238 0-.472.021-.707.034A8.586 8.586 0 0 1 2.028 17.333c-.014.235-.036.467-.036.706a12.033 12.033 0 0 0 8.5 11.5 8.787 8.787 0 0 1 6.879-.75 13.615 13.615 0 0 1 8.5-10.661 4.74 4.74 0 0 0 .121-1.32z" data-name="layer1"/><path opacity=".1" fill="#000064" d="M10.489 29.544a8.787 8.787 0 0 1 6.879-.75 13.615 13.615 0 0 1 8.5-10.661 3.094 3.094 0 0 0 .122-.877c-.39-.034-.784-.056-1.184-.056a13.59 13.59 0 0 0-13.435 11.585A8.8 8.8 0 0 0 8.8 28.4c-.274 0-.545.017-.813.041a11.938 11.938 0 0 0 2.5 1.1z" data-name="opacity"/><path stroke-width="2" stroke-linejoin="round" stroke-linecap="round" stroke="#2e4369" fill="none" d="M10.44 29.525a12.033 12.033 0 0 1-8.448-11.486c0-.239.022-.471.036-.706A8.586 8.586 0 0 0 13.317 6.042c.235-.014.469-.034.707-.034a12.029 12.029 0 0 1 11.968 10.8 4.741 4.741 0 0 1-.124 1.322M53.994 32a4 4 0 0 1 4 4 4 4 0 0 1-4 4H48m10 14a4 4 0 0 0 4-4 4 4 0 0 0-4-4h-9.992" data-name="stroke"/><path stroke-width="2" stroke-linejoin="round" stroke-linecap="round" stroke="#2e4369" fill="none" d="M49.205 26.855a10.35 10.35 0 0 0-5.6-1.638c-.135 0-.265.014-.4.02a13.584 13.584 0 0 0-25.835 3.557A8.8 8.8 0 1 0 14.8 46H37a5 5 0 0 1 5 5 5 5 0 0 1-5 5" data-name="stroke"/><path stroke-width="2" stroke-linejoin="round" stroke-linecap="round" stroke="#2e4369" fill="none" d="M23.325 38H40a4 4 0 0 0 4-4 4 4 0 0 0-4-4" data-name="stroke"/></svg>