<svg xmlns="http://www.w3.org/2000/svg" viewBox="0 0 64 64" aria-labelledby="title" aria-describedby="desc"><path data-name="layer2" d="M16.2 29H16a10 10 0 0 0-8 4h51.3A12 12 0 0 0 48 25h-1.1a16 16 0 0 0-30.7 4zm-9.5-.4a14.1 14.1 0 0 1 6.1-3.2 20.1 20.1 0 0 1 11.4-12.8A12 12 0 0 0 14 7h-.7A8.6 8.6 0 0 1 2 18.3v.7a12 12 0 0 0 4.7 9.6z" fill="#202020"/><path data-name="layer1" d="M60 37H6a2 2 0 0 0 0 4h54a2 2 0 1 0 0-4zm-6 8H10a2 2 0 1 0 0 4h44a2 2 0 0 0 0-4zm-4 8H18a2 2 0 0 0 0 4h32a2 2 0 0 0 0-4zm-38 0H8.1a2 2 0 0 0 0 4H12a2 2 0 0 0 0-4z" fill="#202020"/></svg>