<svg viewBox="0 0 64 64" xmlns="http://www.w3.org/2000/svg" aria-labelledby="title" aria-describedby="desc"><path stroke-width="2" stroke-miterlimit="10" stroke="#202020" fill="none" d="M26.984 11.426A10 10 0 0 0 17 2a3.534 3.534 0 0 0-.748.075 6.926 6.926 0 0 1 .64 2.892 6.982 6.982 0 0 1-9.828 6.393A3.535 3.535 0 0 0 7 12a10.001 10.001 0 0 0 9.69 9.996" data-name="layer1" stroke-linejoin="round" stroke-linecap="round"/><path stroke-width="2" stroke-miterlimit="10" stroke="#202020" fill="none" d="M46.838 38.001A10.056 10.056 0 0 0 57 28.118a10.058 10.058 0 0 0-10.22-9.884c-.333 0-.66.019-.985.05a13.626 13.626 0 0 0-12.647-8.282 13.473 13.473 0 0 0-13.513 11.54c-.04-.001-.076-.013-.115-.013a8.24 8.24 0 1 0 0 16.472z" data-name="layer2" stroke-linejoin="round" stroke-linecap="round"/><circle stroke-width="2" stroke-miterlimit="10" stroke="#202020" fill="none" r="1" cy="44" cx="19" data-name="layer1" stroke-linejoin="round" stroke-linecap="round"/><circle stroke-width="2" stroke-miterlimit="10" stroke="#202020" fill="none" r="1" cy="44" cx="39" data-name="layer1" stroke-linejoin="round" stroke-linecap="round"/><circle stroke-width="2" stroke-miterlimit="10" stroke="#202020" fill="none" r="1" cy="53" cx="37" data-name="layer1" stroke-linejoin="round" stroke-linecap="round"/><circle stroke-width="2" stroke-miterlimit="10" stroke="#202020" fill="none" r="1" cy="57" cx="29" data-name="layer1" stroke-linejoin="round" stroke-linecap="round"/><circle stroke-width="2" stroke-miterlimit="10" stroke="#202020" fill="none" r="1" cy="61" cx="19" data-name="layer1" stroke-linejoin="round" stroke-linecap="round"/><circle stroke-width="2" stroke-miterlimit="10" stroke="#202020" fill="none" r="1" cy="61" cx="39" data-name="layer1" stroke-linejoin="round" stroke-linecap="round"/><circle stroke-width="2" stroke-miterlimit="10" stroke="#202020" fill="none" r="1" cy="57" cx="47" data-name="layer1" stroke-linejoin="round" stroke-linecap="round"/><circle stroke-width="2" stroke-miterlimit="10" stroke="#202020" fill="none" r="1" cy="52" cx="15" data-name="layer1" stroke-linejoin="round" stroke-linecap="round"/><circle stroke-width="2" stroke-miterlimit="10" stroke="#202020" fill="none" r="1" cy="49" cx="27" data-name="layer1" stroke-linejoin="round" stroke-linecap="round"/><circle stroke-width="2" stroke-miterlimit="10" stroke="#202020" fill="none" r="1" cy="47" cx="49" data-name="layer1" stroke-linejoin="round" stroke-linecap="round"/></svg>