<svg viewBox="0 0 64 64" xmlns="http://www.w3.org/2000/svg" aria-labelledby="title" aria-describedby="desc"><path stroke-width="2" stroke-miterlimit="10" stroke="#202020" fill="none" d="M26.984 11.426A10 10 0 0 0 17 2a3.534 3.534 0 0 0-.748.075 6.926 6.926 0 0 1 .64 2.892 6.982 6.982 0 0 1-9.828 6.393A3.535 3.535 0 0 0 7 12a10.001 10.001 0 0 0 9.69 9.996m28.308 23.982v9.997M37 45.978v3.993m-8-3.993v9.997m-7.998-9.997v5.994" data-name="layer1" stroke-linejoin="round" stroke-linecap="round"/><path stroke-width="2" stroke-miterlimit="10" stroke="#202020" fill="none" d="M46.836 38A10.055 10.055 0 0 0 57 28.116a10.058 10.058 0 0 0-10.22-9.884c-.333 0-.66.019-.985.05A13.628 13.628 0 0 0 33.149 10a13.475 13.475 0 0 0-13.516 11.54c-.04-.001-.074-.013-.113-.013a8.24 8.24 0 1 0 0 16.471z" data-name="layer2" stroke-linejoin="round" stroke-linecap="round"/><path d="M21 56v2m8 2v2m8-8v2m8 4v2" stroke-width="2" stroke-miterlimit="10" stroke="#202020" fill="none" data-name="layer1" stroke-linejoin="round" stroke-linecap="round"/></svg>