<svg xmlns="http://www.w3.org/2000/svg" viewBox="0 0 64 64" aria-labelledby="title" aria-describedby="desc"><path data-name="layer2" d="M6.6 62A2 2 0 0 1 5 58.7l2.8-3.5a2 2 0 1 1 3.2 2.5l-2.8 3.5a2 2 0 0 1-1.6.8zm6.9-8.6a2 2 0 0 1-1.6-3.2l5.9-7.4a2 2 0 0 1 3.2 2.4l-5.9 7.4a2 2 0 0 1-1.6.8zM38.6 62a2 2 0 0 1-1.6-3.3l6.8-8.5a2 2 0 0 1 3.1 2.5l-6.8 8.5a2 2 0 0 1-1.5.8zm11.2-14a2 2 0 0 1-1.6-3.2l1.6-2a2 2 0 1 1 3.2 2.4l-1.6 2a2 2 0 0 1-1.6.8zm-22 12a2 2 0 0 1-1.6-3.2l7-8.7h-8l12.6-15.8a2 2 0 1 1 3.1 2.5L33.5 44h8L29.4 59.2a2 2 0 0 1-1.6.8z" fill="#202020"/><path data-name="layer1" d="M13.9 20.4a12.6 12.6 0 0 1 4.8-2.4 17.4 17.4 0 0 1 9.6-10.5A10 10 0 0 0 19.4 2h-.7a6.9 6.9 0 0 1 .6 3 7 7 0 0 1-9.8 6.4c0 .2-.1.4-.1.6a10 10 0 0 0 4.5 8.4zm35.3-2.2h-1A13.6 13.6 0 0 0 35.6 10 13.5 13.5 0 0 0 22 21.6h-.1a8.2 8.2 0 1 0 0 16.5h6.2l6.6-8.2a6 6 0 1 1 9.4 7.5l-.6.7h5.7a10.1 10.1 0 0 0 10.2-9.9 10.1 10.1 0 0 0-10.2-10z" fill="#202020"/></svg>