<svg viewBox="0 0 64 64" xmlns="http://www.w3.org/2000/svg" aria-labelledby="title" aria-describedby="desc"><path d="M16.992 46.005l-2.533 3.161m12.531-3.161l-9.078 11.339m19.08-11.339l-2.459 3.073m12.457-3.073l-9.078 11.339" stroke-width="2" stroke-miterlimit="10" stroke="#202020" fill="none" data-name="layer2" stroke-linejoin="round" stroke-linecap="round"/><path stroke-width="2" stroke-miterlimit="10" stroke="#202020" fill="none" d="M46.828 38.001a10.056 10.056 0 0 0 10.164-9.883 10.058 10.058 0 0 0-10.22-9.884c-.333 0-.66.019-.985.05a13.628 13.628 0 0 0-12.646-8.281 13.474 13.474 0 0 0-13.516 11.54c-.04-.002-.074-.014-.113-.014a8.24 8.24 0 1 0 0 16.472z" data-name="layer1" stroke-linejoin="round" stroke-linecap="round"/><path stroke-width="2" stroke-miterlimit="10" stroke="#202020" fill="none" d="M26.984 11.428A10 10 0 0 0 17 2a3.737 3.737 0 0 0-.748.076 6.922 6.922 0 0 1 .64 2.892 7 7 0 0 1-7 7 6.95 6.95 0 0 1-2.828-.607A3.696 3.696 0 0 0 7 12a10.003 10.003 0 0 0 9.69 9.998" data-name="layer1" stroke-linejoin="round" stroke-linecap="round"/></svg>