<svg xmlns="http://www.w3.org/2000/svg" viewBox="0 0 64 64" aria-labelledby="title" aria-describedby="desc"><path data-name="layer2" d="M42.8 16.3a14.1 14.1 0 0 0-11.5-8.4A11.7 11.7 0 0 1 16 24.1 14.1 14.1 0 0 0 29.9 36" fill="none" stroke="#202020" stroke-miterlimit="10" stroke-width="2" stroke-linejoin="round" stroke-linecap="round"/><path data-name="layer1" d="M56 28a4 4 0 0 1 4 4 4 4 0 0 1-4 4h-6m8 16a4 4 0 0 0 4-4 4 4 0 0 0-4-4H46M2 44h32a6 6 0 0 1 6 6 6 6 0 0 1-6 6M2 36h36a6 6 0 0 0 6-6 6 6 0 0 0-6-6" fill="none" stroke="#202020" stroke-miterlimit="10" stroke-width="2" stroke-linejoin="round" stroke-linecap="round"/></svg>