<svg viewBox="0 0 64 64" xmlns="http://www.w3.org/2000/svg" aria-labelledby="title" aria-describedby="desc"><path d="M37.979 33.5l-10 12.499h7.998l-9.561 11.942" stroke-width="2" stroke-miterlimit="10" stroke="#202020" fill="none" data-name="layer2" stroke-linejoin="round" stroke-linecap="round"/><path stroke-width="2" stroke-miterlimit="10" stroke="#202020" fill="none" d="M44 37.978l3.837-.002A10.054 10.054 0 0 0 58 28.096a10.058 10.058 0 0 0-10.22-9.884c-.333 0-.66.018-.985.05A13.627 13.627 0 0 0 34.148 9.98a13.472 13.472 0 0 0-13.514 11.54c-.04-.001-.076-.013-.115-.013a8.241 8.241 0 1 0 0 16.473l5.48-.001" data-name="layer1" stroke-linejoin="round" stroke-linecap="round"/><path d="M7.989 58.473l-2.806 3.505m12.808-15.997l-5.896 7.364m31.873.172l-6.773 8.461M50 45.98l-1.601 2" stroke-width="2" stroke-miterlimit="10" stroke="#202020" fill="none" data-name="layer2" stroke-linejoin="round" stroke-linecap="round"/><path stroke-width="2" stroke-miterlimit="10" stroke="#202020" fill="none" d="M27.984 11.426A10 10 0 0 0 18.001 2a3.802 3.802 0 0 0-.748.076 6.978 6.978 0 0 1-9.188 9.283 3.78 3.78 0 0 0-.064.641 10 10 0 0 0 9.687 9.996" data-name="layer1" stroke-linejoin="round" stroke-linecap="round"/></svg>