<svg viewBox="0 0 64 64" xmlns="http://www.w3.org/2000/svg" aria-labelledby="title" aria-describedby="desc"><path d="M17.203 46.002l-6.404 8.001m16.404-8.001L14.395 61.999m22.808-15.997l-6.404 8.001m16.404-8.001L34.395 61.999" stroke-width="2" stroke-miterlimit="10" stroke="#202020" fill="none" data-name="layer2" stroke-linejoin="round" stroke-linecap="round"/><path stroke-width="2" stroke-miterlimit="10" stroke="#202020" fill="none" d="M46.836 38A10.056 10.056 0 0 0 57 28.117a10.058 10.058 0 0 0-10.22-9.884c-.333 0-.66.019-.985.05a13.628 13.628 0 0 0-12.647-8.282 13.474 13.474 0 0 0-13.515 11.54c-.04 0-.074-.013-.113-.013a8.24 8.24 0 1 0 0 16.472z" data-name="layer1" stroke-linejoin="round" stroke-linecap="round"/><path stroke-width="2" stroke-miterlimit="10" stroke="#202020" fill="none" d="M26.984 11.426A10 10 0 0 0 17 2a3.534 3.534 0 0 0-.748.075 6.926 6.926 0 0 1 .64 2.892 6.982 6.982 0 0 1-9.828 6.393A3.535 3.535 0 0 0 7 12a10.001 10.001 0 0 0 9.69 9.996" data-name="layer1" stroke-linejoin="round" stroke-linecap="round"/></svg>