<svg viewBox="0 0 64 64" xmlns="http://www.w3.org/2000/svg" aria-labelledby="title" aria-describedby="desc"><path stroke-width="2" stroke-miterlimit="10" stroke="#202020" fill="none" d="M46.836 38A10.055 10.055 0 0 0 57 28.117a10.058 10.058 0 0 0-10.22-9.884c-.333 0-.66.019-.985.05A13.629 13.629 0 0 0 33.148 10a13.475 13.475 0 0 0-13.515 11.54c-.04 0-.074-.012-.113-.012a8.24 8.24 0 1 0 0 16.47z" data-name="layer1" stroke-linejoin="round" stroke-linecap="round"/><path d="M44.996 46.003v15.998m-7.998-15.998v9.995m-8-9.995v15.998M21 46.003v9.995" stroke-width="2" stroke-miterlimit="10" stroke="#202020" fill="none" data-name="layer2" stroke-linejoin="round" stroke-linecap="round"/><path stroke-width="2" stroke-miterlimit="10" stroke="#202020" fill="none" d="M26.984 11.426A10 10 0 0 0 17 2a4.55 4.55 0 0 0-.748.076 6.915 6.915 0 0 1 .64 2.891 6.999 6.999 0 0 1-7 6.999 6.948 6.948 0 0 1-2.828-.607A3.289 3.289 0 0 0 7 12a10.002 10.002 0 0 0 9.69 9.996" data-name="layer1" stroke-linejoin="round" stroke-linecap="round"/></svg>