<svg xmlns="http://www.w3.org/2000/svg" viewBox="0 0 64 64" aria-labelledby="title" aria-describedby="desc"><path data-name="layer3" d="M46.8 40A10.1 10.1 0 0 0 57 30.1a10.1 10.1 0 0 0-10.2-9.9h-1A13.6 13.6 0 0 0 33.1 12a13.5 13.5 0 0 0-13.5 11.5h-.1a8.2 8.2 0 1 0 0 16.5z" fill="#cdf0f0"/><path data-name="opacity" d="M19 26a14 14 0 0 1 .2-2.5 8.2 8.2 0 1 0 .3 16.5H33a14 14 0 0 1-14-14z" fill="#000064" opacity=".1"/><path data-name="opacity" d="M57 30.6v-.5a10.1 10.1 0 0 0-10.2-9.8h-1v-.2A14 14 0 0 0 33.1 12a13.8 13.8 0 0 0-9.2 3.5 16.8 16.8 0 0 1 17.6 6.2 10.1 10.1 0 0 0-1.8 1.5L42 23a13 13 0 0 1 13 13h.1a9.9 9.9 0 0 0 1.9-5z" fill="#fff" opacity=".5"/><path data-name="layer2" d="M19.6 23.5A13.2 13.2 0 0 1 27 13.4 10 10 0 0 0 17 4h-.7a6.9 6.9 0 0 1 .6 3 7 7 0 0 1-9.8 6.4c0 .2-.1.4-.1.6a10 10 0 0 0 9.7 10 8.7 8.7 0 0 1 2.8-.5z" fill="#e6f0fa"/><path data-name="opacity" d="M16.7 24a8.7 8.7 0 0 1 2.8-.5h.1A13.2 13.2 0 0 1 27 13.4a9.9 9.9 0 0 0-.4-2.3 13.4 13.4 0 0 0-12 11.4h-.1a8.8 8.8 0 0 0-2.2.3 9.9 9.9 0 0 0 4.4 1.2z" fill="#000064" opacity=".1"/><path data-name="layer1" fill="#ff6" d="M38.7 27L24 43h7.5l-3.3 14L44 40h-7.4l2.1-13z"/><path data-name="stroke" d="M44 40h3a9.9 9.9 0 0 0 10-9.8 10.1 10.1 0 0 0-10.2-9.9h-1A13.6 13.6 0 0 0 33.1 12a13.5 13.5 0 0 0-13.5 11.6h-.1a8.4 8.4 0 0 0-8.5 8.2c0 4.5 4.3 8.2 9 8.2h6.8" fill="none" stroke="#2e4369" stroke-linecap="round" stroke-linejoin="round" stroke-width="2"/><path data-name="stroke" d="M27 13.5A10 10 0 0 0 17 4h-.7a7 7 0 0 1-9.2 9.3c0 .2-.1.4-.1.6a10 10 0 0 0 9.7 10m22 3.1L24 43h7.5l-3.3 14L44 40h-7.4l2.1-13z" fill="none" stroke="#2e4369" stroke-linecap="round" stroke-linejoin="round" stroke-width="2"/></svg>