<svg xmlns="http://www.w3.org/2000/svg" viewBox="0 0 64 64" aria-labelledby="title" aria-describedby="desc"><path data-name="layer1" d="M48.004 42.003h5.99a5.999 5.999 0 1 0 0-11.998 2 2 0 0 0 0 4 1.999 1.999 0 1 1 0 3.998h-5.99a2 2 0 0 0 0 4zM58 44h-9.992a2 2 0 0 0 0 4H58a1.999 1.999 0 1 1 0 3.998 2 2 0 0 0 0 4A5.999 5.999 0 1 0 58 44z" fill="#202020"/><path data-name="layer2" d="M36.998 44.002L14.801 44a6.795 6.795 0 1 1 1.985-13.293l2.22.675.34-2.295a11.584 11.584 0 0 1 22.033-3.03l.557 1.238 1.665-.078a8.371 8.371 0 0 1 4.525 1.321 2 2 0 1 0 2.158-3.367 12.346 12.346 0 0 0-5.845-1.926 15.628 15.628 0 0 0-13.635-8.04 15.33 15.33 0 0 0-3.962.525A12.976 12.976 0 0 0 14.024 5.008c-.2 0-.396.012-.593.025l-1.6.094.568 1.313a7.518 7.518 0 0 1 .625 3.005 7.586 7.586 0 0 1-10.6 6.97l-1.311-.567-.095 1.616c-.014.19-.026.38-.026.575A12.958 12.958 0 0 0 7.47 29.302 10.777 10.777 0 0 0 14.801 48l22.197.002a2.999 2.999 0 1 1 0 5.998 2 2 0 0 0 0 4 6.999 6.999 0 1 0 0-13.998z" fill="#202020"/><path data-name="layer1" d="M39.995 28.006a2 2 0 1 0 0 4 1.999 1.999 0 1 1 0 3.998h-16.67a2 2 0 1 0 0 4h16.67a5.999 5.999 0 1 0 0-11.998z" fill="#202020"/></svg>