<svg xmlns="http://www.w3.org/2000/svg" viewBox="0 0 64 64" aria-labelledby="title" aria-describedby="desc"><circle data-name="layer2" cx="32" cy="32" r="30" fill="#ed4c49"/><path data-name="layer1" fill="#fff" d="M25.4 38H14v-8h30v8H25.4z"/><path data-name="opacity" d="M52.9 10.5L33.4 30l-8 8-14.9 14.9A30.1 30.1 0 0 0 17 58l20-20 7-7 14-14a30.1 30.1 0 0 0-5.1-6.5z" fill="#000064" opacity=".15"/><path data-name="stroke" fill="none" stroke="#2e4369" stroke-linecap="round" stroke-linejoin="round" stroke-width="2" d="M25.4 38H14v-8h19.4m8.6 0h2v8h-9.9M52 28v12m0-14c0-4-2.8-4-2.8-8"/><circle data-name="stroke" cx="32" cy="32" r="30" fill="none" stroke="#2e4369" stroke-linecap="round" stroke-linejoin="round" stroke-width="2"/><path data-name="stroke" fill="none" stroke="#2e4369" stroke-linecap="round" stroke-linejoin="round" stroke-width="2" d="M52.9 10.5L10.5 52.9"/></svg>