<svg xmlns="http://www.w3.org/2000/svg" viewBox="0 0 64 64" aria-labelledby="title" aria-describedby="desc"><path data-name="layer2" d="M35.7 58l-4-6.9 3.3-2a11.6 11.6 0 0 1 0-4.4L32 43l4-7 3.1 1.8a12 12 0 0 1 3.7-2.1V32H46V2H2v56h40.1a12.1 12.1 0 0 1-3.1-1.9z" fill="#ebf5ff"/><path data-name="opacity" d="M37.8 34v3.1l1.3.8a12 12 0 0 1 3.7-2.1V34zm-2.1 24L34 55l-2.3-4 3.3-1.9a11.6 11.6 0 0 1 0-4.4L32 43l1.9-3.3L31 38l-4 7 3 1.7a11.6 11.6 0 0 0 0 4.4L26.7 53l1.1 2H6V2H2v56h40.1a12.1 12.1 0 0 1-3.1-1.9z" fill="#000064" opacity=".1"/><path data-name="layer1" d="M58.8 49.1a11.8 11.8 0 0 0 0-4.3l3.1-1.8-4-6.9-3.1 1.8a12 12 0 0 0-3.8-2.2V32h-8v3.7a12 12 0 0 0-3.7 2.1L36.2 36l-4 6.9 3 1.7a11.6 11.6 0 0 0 0 4.4l-3.3 2 4 6.9 3.3-1.9a12 12 0 0 0 3.8 2.3V62h8v-3.7a12 12 0 0 0 3.9-2.3l3.3 2 4-6.9zM47.1 52a5 5 0 1 1 5-5 5 5 0 0 1-5 5z" fill="#8fa9d8"/><path data-name="stroke" fill="none" stroke="#2e4369" stroke-linecap="round" stroke-miterlimit="10" stroke-width="2" d="M42 58H2V2h44v30M12 2v8m-2 0h4m10-8v8m-2 0h4m10-8v8m-2 0h4" stroke-linejoin="round"/><circle data-name="stroke" cx="46.9" cy="47" r="5" fill="none" stroke="#2e4369" stroke-linecap="round" stroke-miterlimit="10" stroke-width="2" stroke-linejoin="round"/><path data-name="stroke" d="M62 51l-3.4-2a11.8 11.8 0 0 0 0-4.3l3.1-1.7-4-6.9-3.1 1.8a12 12 0 0 0-3.7-2.1V32h-8v3.7a12 12 0 0 0-3.7 2.1L36 36l-4 7 3 1.7a11.6 11.6 0 0 0 0 4.4L31.7 51l4 6.9 3.3-1.8a12 12 0 0 0 3.8 2.2V62h8v-3.7a12 12 0 0 0 3.9-2.3l3.3 2z" fill="none" stroke="#2e4369" stroke-linecap="round" stroke-miterlimit="10" stroke-width="2" stroke-linejoin="round"/></svg>