<svg xmlns="http://www.w3.org/2000/svg" viewBox="0 0 64 64" aria-labelledby="title" aria-describedby="desc"><path data-name="layer4" d="M24 18h16s1.8-10.4 2-12a3.4 3.4 0 0 0-3.4-4H25.3c-2 0-3.6 1.3-3.3 4s2 12 2 12z" fill="#cde5f4"/><path data-name="layer3" d="M32 56l9-8a4.2 4.2 0 0 1-2-4v-.7c3.9-3.2 6-8.9 6-15.3v-3c-3-1-7-7-7-7H25c0 4-7 7-7 7l.3.4H18V28c0 6.3 2.2 11.9 6 15.1v.9a4.1 4.1 0 0 1-1.8 4.1z" fill="#e8d4d4"/><path data-name="layer2" d="M2 62h60s0-8.5-12.4-11c-4.5-.9-7.1-1.9-8.6-3l-9 8-9.8-7.9c-1.4 1-4 2-8.6 2.9C2 53.1 2 62 2 62z" fill="#dfeef8"/><path data-name="layer1" d="M38 18s4 6 7 7v2.9c0 6.4-2.2 12.1-6 15.3v.8s13 0 17-4c-6.3-4-6-14.4-6-14.4V22a17.6 17.6 0 0 0-8.1-15L40 18zM24 43.1c-3.8-3.2-6-8.8-6-15.1v-2.6h.3L18 25s7-3 7-7h-1s-1.4-8-1.9-11A17.6 17.6 0 0 0 14 22v3.6S14.3 36 8 40c4 4 16 4 16 4v-.9z" fill="#a06b5f"/><path fill="#000064" d="M25 62h13.4L32 56.2 25 62zm-5-9l5-3a3.1 3.1 0 0 1 2 1c6 3 8-3 9-6-11 4-14-10.7-14-15.7a13.1 13.1 0 0 1 3-8.3h12c1 0 1-3 1-3H26.5c0-5-2-13.1-1.1-16h-.2c-1.9 0-3.5 1.3-3.2 4l.2 1.3V7A17.6 17.6 0 0 0 14 22v3.6S14.3 36 8 40c4 4 16 4 16 4a4.1 4.1 0 0 1-1.8 4.1c-1.4 1-4 2-8.6 2.9C2 53.1 2 62 2 62h6c0-6 8-8 8-8l2.8 8H25z" data-name="opacity" opacity=".15"/><path data-name="stroke" fill="none" stroke="#2e4369" stroke-linecap="round" stroke-linejoin="round" stroke-width="2" d="M22.2 48.1L32 56l-8 6-5.8-12.1M41 48l-9 8 8 6 5.6-12M18 25.4V28c0 7.2 2.9 13.4 7.6 16.3m12 0C42.3 41.4 45 35.1 45 28v-3"/><path data-name="stroke" d="M24 43.1v.9c0 2 .6 5-10.4 7S2 62 2 62h60s0-8.5-12.4-11C38.9 48.9 39 46 39 44v-.7M26 18a16.7 16.7 0 0 1-10 8m22-8a16.9 16.9 0 0 0 10 8" fill="none" stroke="#2e4369" stroke-linecap="round" stroke-linejoin="round" stroke-width="2"/><path data-name="stroke" d="M22.1 7A18 18 0 0 0 14 22v3.6S14.3 36 8 40c4 4 16 4 16 4M41.9 7A18 18 0 0 1 50 22v3.6S49.7 36 56 40c-4 4-17 4-17 4M24 18h16s1.8-10.4 2-12a3.4 3.4 0 0 0-3.4-4H25.3c-2 0-3.6 1.3-3.3 4s2 12 2 12zm8-12v8m4-4h-8" fill="none" stroke="#2e4369" stroke-linecap="round" stroke-linejoin="round" stroke-width="2"/></svg>