<svg xmlns="http://www.w3.org/2000/svg" viewBox="0 0 64 64" aria-labelledby="title" aria-describedby="desc"><path data-name="layer2" d="M32 2a30 30 0 1 0 30 30A30 30 0 0 0 32 2zm0 56a26 26 0 1 1 26-26 26 26 0 0 1-26 26z" fill="#f47521"/><circle data-name="layer1" cx="32" cy="32" r="26" fill="#f8971d"/><path data-name="opacity" d="M32.3 6a25.9 25.9 0 0 0-18.1 7.3L51 50.1A26 26 0 0 0 32.3 6z" fill="#fff" opacity=".25"/><circle data-name="stroke" cx="32" cy="32" r="30" fill="none" stroke="#2f446a" stroke-linecap="round" stroke-linejoin="round" stroke-width="2"/><circle data-name="stroke" cx="32" cy="32" r="26" fill="none" stroke="#2f446a" stroke-linecap="round" stroke-linejoin="round" stroke-width="2"/><path data-name="stroke" fill="none" stroke="#2f446a" stroke-linecap="round" stroke-linejoin="round" stroke-width="2" d="M32 10v44m22-22H10m37.6-15.6L16.5 47.6m31.1 0L16.5 16.4"/></svg>