<svg xmlns="http://www.w3.org/2000/svg" viewBox="0 0 64 64" aria-labelledby="title" aria-describedby="desc"><path data-name="layer2" d="M46.7 53.6c-13.1-2.4-28.5-15.8-34.4-29.9-3.6-8.5-2.9-15.4 1.1-19C6.1 10.6 2 20 2 30a32 32 0 0 0 32 32 32.7 32.7 0 0 0 25.2-11.4c-2.6 2.8-6.9 4-12.5 3z" fill="#f8971d"/><path data-name="opacity" d="M49.2 53.9A34.1 34.1 0 0 1 35 57 32 32 0 0 1 3 25a36.1 36.1 0 0 1 .3-4.2A35.8 35.8 0 0 0 2 30a32 32 0 0 0 32 32 32.7 32.7 0 0 0 25.2-11.4c-2.2 2.4-5.6 3.6-10 3.3z" fill="#101129" opacity=".15"/><path data-name="layer1" d="M59.6 32.3c-5.9-14.2-21.3-27.6-34.4-30-5.2-.9-9.2 0-11.8 2.4s-4.7 10.4-1.1 19c5.9 14.2 21.3 27.6 34.4 29.9 5.6 1 9.9-.2 12.5-3s3.8-10.3.4-18.3z" fill="#fcb248"/><path data-name="opacity" d="M59.6 32.3c-5.9-14.2-21.3-27.6-34.4-30a19.7 19.7 0 0 0-5.1-.3l35.6 51a9.6 9.6 0 0 0 3.5-2.4c3.4-3.7 3.8-10.3.4-18.3z" fill="#fff" opacity=".25"/><path data-name="stroke" d="M59.7 32.3c5.9 14.2.1 23.7-12.9 21.3S18.2 37.8 12.3 23.7 12.2 0 25.3 2.3s28.4 15.8 34.4 30z" fill="none" stroke="#2f446a" stroke-linecap="round" stroke-linejoin="round" stroke-width="2"/><path data-name="stroke" d="M59.2 50.6A32.7 32.7 0 0 1 34 62 32 32 0 0 1 2 30C2 20 6.2 10.6 13.4 4.7M20 26l32 4M24 8l28 40M42 18L32 40" fill="none" stroke="#2f446a" stroke-linecap="round" stroke-linejoin="round" stroke-width="2"/></svg>