<svg xmlns="http://www.w3.org/2000/svg" viewBox="0 0 64 64" aria-labelledby="title" aria-describedby="desc"><path data-name="layer1" fill="#202020" d="M52.7 6H5.3L29 24.1 52.7 6z"/><path data-name="layer2" d="M46 30a16 16 0 1 0 16 16 16 16 0 0 0-16-16zm7.3 16.4a2 2 0 0 1-2.8 0L48 43.9V54a2 2 0 1 1-4 0V43.9l-2.5 2.5a2 2 0 1 1-2.8-2.8l7.3-7.4 7.3 7.3a2 2 0 0 1 0 2.9z" fill="#202020"/><path data-name="layer1" d="M46 26a19.9 19.9 0 0 1 10 2.7V8.5L29 29.2 2 8.5V42h24.4A20 20 0 0 1 46 26z" fill="#202020"/></svg>