<svg xmlns="http://www.w3.org/2000/svg" viewBox="0 0 64 64" aria-labelledby="title" aria-describedby="desc"><path data-name="layer4" fill="#ebf5ff" d="M46 26V10H2v42h60V26H46z"/><path data-name="layer3" fill="#fff" d="M62 26L46 10v16h16z"/><circle data-name="layer2" cx="16" cy="22" r="4" fill="#fce349"/><path data-name="layer1" d="M10 44c0-2.1 5-12 10-12s4 4 6 4 2.5-12 8-12 12 18.3 12 20z" fill="#a0eaa0"/><path data-name="opacity" fill="#000064" opacity=".15" d="M41.1 10v23H62v-7H46V10h-4.9z"/><path data-name="stroke" fill="none" stroke="#2e4369" stroke-linecap="round" stroke-miterlimit="10" stroke-width="2" d="M62 52H2V10h44l16 16v26z" stroke-linejoin="round"/><path data-name="stroke" fill="none" stroke="#2e4369" stroke-linecap="round" stroke-miterlimit="10" stroke-width="2" d="M62 26H46V10" stroke-linejoin="round"/><circle data-name="stroke" cx="16" cy="22" r="4" fill="none" stroke="#2e4369" stroke-linecap="round" stroke-miterlimit="10" stroke-width="2" stroke-linejoin="round"/><path data-name="stroke" d="M10 44c0-2.1 5-12 10-12s4 4 6 4 2.5-12 8-12 12 18.3 12 20z" fill="none" stroke="#2e4369" stroke-linecap="round" stroke-miterlimit="10" stroke-width="2" stroke-linejoin="round"/></svg>