<svg xmlns="http://www.w3.org/2000/svg" viewBox="0 0 64 64" aria-labelledby="title" aria-describedby="desc"><path data-name="layer1" d="M59 4H20.3C11.3 4 4 11.6 4 21a16 16 0 0 0 16 16v-6a9.9 9.9 0 0 1-10-10c0-6 4.7-11 10.3-11H26v51h6V10h10v51h6V10h11z" fill="#91aadc"/><path data-name="stroke" d="M59 4H20.3C11.3 4 4 11.6 4 21a16 16 0 0 0 16 16v-6a9.9 9.9 0 0 1-10-10c0-6 4.7-11 10.3-11H26v51h6V10h10v51h6V10h11z" fill="none" stroke="#2e4369" stroke-linecap="round" stroke-miterlimit="10" stroke-width="2" stroke-linejoin="round"/></svg>