<svg viewBox="0 0 64 64" xmlns="http://www.w3.org/2000/svg" aria-labelledby="title" aria-describedby="desc"><path fill="#202020" d="M14.3 63.979a2 2 0 0 1-1.556-3.255l1.215-1.507a2 2 0 0 1 3.113 2.512l-1.215 1.506a2 2 0 0 1-1.557.744zm5.32-6.633a2 2 0 0 1-1.544-3.27l4.365-5.314a2 2 0 1 1 3.09 2.539l-4.365 5.315a2 2 0 0 1-1.546.73zm24.803 6.633a2 2 0 0 1-1.559-3.252l3.539-4.41a2 2 0 1 1 3.119 2.5l-3.539 4.413a2 2 0 0 1-1.56.749zm7.971-9.948a2 2 0 0 1-1.561-3.25l1.6-2a2 2 0 1 1 3.123 2.5l-1.6 2a1.994 1.994 0 0 1-1.562.75zM32 63.979a2 2 0 0 1-1.561-3.25l6.961-8.694h-8L42 36.287a2 2 0 0 1 3.123 2.5l-7.4 9.25h8L33.562 63.229a2 2 0 0 1-1.562.75z" data-name="layer2"/><path fill="#202020" d="M24 9.039a2 2 0 0 0 2-2V2.021a2 2 0 1 0-4 0v5.018a2 2 0 0 0 2 2zm8.812 3.679a2 2 0 0 0 2.828 0l3.548-3.548a2 2 0 1 0-2.828-2.828L32.812 9.89a2 2 0 0 0 0 2.828zm-24 24a2 2 0 0 0 2.828 0l3.548-3.548a2 2 0 1 0-2.828-2.828L8.812 33.89a2 2 0 0 0 0 2.828zm2.204-14.689a2 2 0 0 0-2-2H4a2 2 0 0 0 0 4h5.016a2 2 0 0 0 2-2zm1.269-8.892a2 2 0 1 0 2.828-2.828l-3.255-3.256a2 2 0 0 0-2.828 2.83zm18.531 1.601a9.972 9.972 0 0 0-14.27 13.906 12 12 0 0 1 7.171-4.42 17.091 17.091 0 0 1 7.099-9.486zM52.017 24a12.992 12.992 0 0 0-24.955 4.107A7.805 7.805 0 0 0 26 28.006a8 8 0 0 0 0 16h4.7l8.172-10.215a6 6 0 1 1 9.372 7.494l-2.174 2.721H52a10 10 0 0 0 .012-20z" data-name="layer1"/></svg>