<svg viewBox="0 0 64 64" xmlns="http://www.w3.org/2000/svg" aria-labelledby="title" aria-describedby="desc"><path fill="#202020" d="M51.981 48a2 2 0 0 0-2 2v5.992a2 2 0 0 0 4 0V50a2 2 0 0 0-2-2zm-7.999-.014a2 2 0 0 0-2 2V52a2 2 0 1 0 4 0v-2.014a2 2 0 0 0-2-2zm-8 .014a2 2 0 0 0-2 2v5.992a2 2 0 1 0 4 0V50a2 2 0 0 0-2-2zm-7.998 0a2 2 0 0 0-2 2v1.99a2 2 0 1 0 4 0V50a2 2 0 0 0-2-2z" data-name="layer1"/><path fill="#202020" d="M24 9.026a2 2 0 0 0 2-2V2.008a2 2 0 0 0-4 0v5.018a2 2 0 0 0 2 2zm8.586 3.937a2 2 0 0 0 2.828 0l3.549-3.549a2 2 0 0 0-2.828-2.828l-3.549 3.549a2 2 0 0 0 0 2.828zm-24 24a2 2 0 0 0 2.828 0l3.549-3.549a2 2 0 0 0-2.828-2.828l-3.549 3.548a2 2 0 0 0 0 2.829zm2.43-14.947a2 2 0 0 0-2-2H4a2 2 0 0 0 0 4h5.016a2 2 0 0 0 2-2zm1.269-8.892a2 2 0 0 0 2.828-2.824l-3.255-3.26A2 2 0 1 0 9.03 9.869zm39.732 10.867A12.992 12.992 0 0 0 27.062 28.1 7.8 7.8 0 0 0 26 27.992a8 8 0 1 0 0 16h26a10 10 0 0 0 .012-20zm-21.201-9.265a9.972 9.972 0 0 0-14.27 13.906 12.007 12.007 0 0 1 7.171-4.421 17.092 17.092 0 0 1 7.099-9.485z" data-name="layer2"/><circle fill="#202020" r="2" cy="57.99" cx="27.983" data-name="layer1"/><circle fill="#202020" r="2" cy="61.991" cx="35.982" data-name="layer1"/><circle fill="#202020" r="2" cy="57.992" cx="43.981" data-name="layer1"/><circle fill="#202020" r="2" cy="61.992" cx="51.981" data-name="layer1"/></svg>