<svg viewBox="0 0 64 64" xmlns="http://www.w3.org/2000/svg" aria-labelledby="title" aria-describedby="desc"><path fill="#202020" d="M24 9.027a2 2 0 0 0 2-2V2.01a2 2 0 1 0-4 0v5.017a2 2 0 0 0 2 2zm8.812 3.68a2 2 0 0 0 2.828 0l3.548-3.548A2 2 0 1 0 36.36 6.33l-3.548 3.548a2 2 0 0 0 0 2.829zm-24 24a2 2 0 0 0 2.828 0l3.548-3.548a2 2 0 1 0-2.828-2.829l-3.548 3.548a2 2 0 0 0 0 2.829zm2.204-14.689a2 2 0 0 0-2-2H4a2 2 0 0 0 0 4h5.016a2 2 0 0 0 2-2zm1.269-8.893a2 2 0 1 0 2.828-2.825l-3.255-3.259a2 2 0 1 0-2.828 2.83zm39.732 10.867A12.992 12.992 0 0 0 27.062 28.1 7.8 7.8 0 0 0 26 27.994a8 8 0 0 0 0 16h26a10 10 0 0 0 .012-20z" data-name="layer1"/><path fill="#202020" d="M52 47.994a2 2 0 0 0-2 2v12a2 2 0 1 0 4 0v-12a2 2 0 0 0-2-2zm-8 0a2 2 0 0 0-2 2v5.992a2 2 0 1 0 4 0v-5.992a2 2 0 0 0-2-2zm-8 0a2 2 0 0 0-2 2v12a2 2 0 1 0 4 0v-12a2 2 0 0 0-2-2zm-7.994 0a2 2 0 0 0-2 2v5.992a2 2 0 1 0 4 0v-5.992a2 2 0 0 0-2-2z" data-name="layer2"/><path fill="#202020" d="M30.816 14.727a9.972 9.972 0 0 0-14.27 13.908 12 12 0 0 1 7.171-4.422 17.092 17.092 0 0 1 7.099-9.486z" data-name="layer1"/></svg>