<svg viewBox="0 0 64 64" xmlns="http://www.w3.org/2000/svg" aria-labelledby="title" aria-describedby="desc"><path fill="#cdf0f0" d="M50.021 24a12.992 12.992 0 0 0-24.955 4.108A7.738 7.738 0 0 0 24.01 28a8 8 0 1 0 0 16h26a10 10 0 0 0 .012-20z" data-name="layer2"/><path opacity=".1" fill="#000064" d="M25 30a14.016 14.016 0 0 1 .138-1.862l-.067-.067v.036A7.73 7.73 0 0 0 24.01 28a8 8 0 1 0 0 16H39a14 14 0 0 1-14-14z" data-name="opacity"/><path opacity=".5" fill="#fff" d="M46.172 24.775a10.054 10.054 0 0 0-3.52 2.458 12 12 0 0 1 14.115 14.115 9.981 9.981 0 0 0-6.12-17.315c-.208-.013-.414-.032-.625-.032a12.984 12.984 0 0 0-20.762-4.583 17.727 17.727 0 0 1 16.913 5.358z" data-name="opacity"/><path fill="#fc0" d="M24 28a7.73 7.73 0 0 1 1.057.107 13 13 0 0 1 6.093-10.136 10 10 0 1 0-13.43 13.087A7.98 7.98 0 0 1 24 28z" data-name="layer1"/><path opacity=".1" fill="#000064" d="M17.719 31.057A7.98 7.98 0 0 1 24 28a7.73 7.73 0 0 1 1.057.107 13 13 0 0 1 6.093-10.136 9.975 9.975 0 0 0-.936-1.651 13 13 0 0 0-10.148 11.787A7.73 7.73 0 0 0 19.01 28a7.949 7.949 0 0 0-4.035 1.1 10 10 0 0 0 2.744 1.957z" data-name="opacity"/><path stroke-width="2" stroke-linejoin="round" stroke-linecap="round" stroke="#2e4369" fill="none" d="M17.717 31.045a10 10 0 1 1 13.37-13.214M21.998 2.006v4.018m-15.99 15.99H1.99M8.438 8.452l2.253 2.256m24.87-2.256l-2.256 2.255M10.691 33.32l-2.255 2.256" data-name="stroke"/><path stroke-width="2" stroke-linejoin="round" stroke-linecap="round" stroke="#2e4369" fill="none" d="M50.01 23.991A12.991 12.991 0 0 0 25.057 28.1 8.034 8.034 0 0 0 24 27.992a8 8 0 1 0 0 16h26a10 10 0 0 0 .01-20zm-.012 26.013V62M42 50.004v1.991m-8-1.991v5.993m-7.998-5.993V62m-9.967-5.9A10 10 0 0 1 26 62m33.967-5.9A10 10 0 0 0 50 62m-8-3.998" data-name="stroke"/><circle stroke-width="2" stroke-linejoin="round" stroke-linecap="round" stroke="#2e4369" fill="none" r="1" cy="56" cx="10" data-name="stroke"/></svg>