<svg xmlns="http://www.w3.org/2000/svg" viewBox="0 0 64 64" aria-labelledby="title" aria-describedby="desc"><circle data-name="layer2" cx="20.1" cy="47.8" r="2.5" fill="#202020"/><circle data-name="layer2" cx="27.1" cy="55.8" r="2.5" fill="#202020"/><circle data-name="layer2" cx="34.1" cy="47.8" r="2.5" fill="#202020"/><circle data-name="layer2" cx="48.1" cy="47.8" r="2.5" fill="#202020"/><circle data-name="layer2" cx="41.1" cy="55.8" r="2.5" fill="#202020"/><path data-name="layer1" d="M46.8 22h-1a13.6 13.6 0 0 0-12.6-8.3 13.5 13.5 0 0 0-13.6 11.6h-.1a8.2 8.2 0 1 0 0 16.5h27.3A10.1 10.1 0 0 0 57 31.9 10.1 10.1 0 0 0 46.8 22zm-30.4-.3A17.4 17.4 0 0 1 26 11.3a10 10 0 1 0-14.5 12.8 12.6 12.6 0 0 1 4.9-2.4z" fill="#202020"/></svg>