<svg xmlns="http://www.w3.org/2000/svg" viewBox="0 0 64 64" aria-labelledby="title" aria-describedby="desc"><path data-name="layer2" d="M62 53.5a8.5 8.5 0 0 1-8.6 8.5H10.5A8.5 8.5 0 0 1 2 53.5v-43A8.5 8.5 0 0 1 10.5 2h42.9a8.5 8.5 0 0 1 8.6 8.5z" fill="#eac57d"/><path data-name="opacity" d="M53.4 2H10.5a8.5 8.5 0 0 0-8.4 6.9A8.5 8.5 0 0 1 8.5 6h42.9a8.5 8.5 0 0 1 8.5 8.5v43a8.6 8.6 0 0 1-.2 1.6 8.5 8.5 0 0 0 2.2-5.7v-43A8.5 8.5 0 0 0 53.4 2z" fill="#fff" opacity=".5"/><path data-name="layer1" d="M38.5 48h-13l2.2-17.1a9 9 0 1 1 8.7 0z" fill="#536897"/><path data-name="opacity" d="M41 23a9 9 0 0 0-15.4-6.3A9 9 0 0 1 38 25c0 3.4-.9 4.5-3.7 6l.9 17h3.3l-2.2-17.1A9 9 0 0 0 41 23z" fill="#000028" opacity=".25"/><path data-name="stroke" d="M38.5 48l-2.2-17.1a9 9 0 1 0-8.7 0L25.5 48z" fill="none" stroke="#2e4369" stroke-linecap="round" stroke-linejoin="round" stroke-width="2"/><path data-name="stroke" d="M62 53.5a8.5 8.5 0 0 1-8.5 8.5H10.6A8.5 8.5 0 0 1 2 53.5v-43A8.5 8.5 0 0 1 10.6 2h42.9a8.5 8.5 0 0 1 8.5 8.5z" fill="none" stroke="#2e4369" stroke-linecap="round" stroke-linejoin="round" stroke-width="2"/></svg>