<svg xmlns="http://www.w3.org/2000/svg" viewBox="0 0 64 64" aria-labelledby="title" aria-describedby="desc"><path data-name="layer2" d="M52.772 17.023a18.3 18.3 0 0 1 3.258 2.817c2.327 2.723 2.793 6.573 1.769 10.986-2.141 10.892-9.309 14.648-18.525 14.648h-1.4a2.3 2.3 0 0 0-2.234 1.972l-.093.657-1.766 11.456-.093.469A2.3 2.3 0 0 1 31.454 62h-9.5a1.428 1.428 0 0 1-1.4-1.6l.279-1.5 1.116-5.985a.857.857 0 0 0-.976-.878" fill="none" stroke="#202020" stroke-linecap="round" stroke-miterlimit="10" stroke-width="2" stroke-linejoin="round"/><path data-name="layer1" d="M23.448 36.554l-.093.563a2.618 2.618 0 0 1 2.607-2.254h5.4c10.519 0 18.8-4.319 21.225-16.808.093-.376.093-.751.186-1.033.745-4.6 0-7.793-2.513-10.61C47.466 3.315 42.532 2 36.2 2H17.956a2.618 2.618 0 0 0-2.606 2.254L7.716 52.892A1.526 1.526 0 0 0 9.3 54.676h11.263l2.886-18.122" fill="none" stroke="#202020" stroke-linecap="round" stroke-miterlimit="10" stroke-width="2" stroke-linejoin="round"/></svg>