<svg xmlns="http://www.w3.org/2000/svg" viewBox="0 0 64 64" aria-labelledby="title" aria-describedby="desc"><path data-name="layer2" d="M46 38.4c-5.2-5.7-4.6-6.1-5.5-12.3S35.2 18 32 18s-7.5 1.4-8.4 8.1-.3 6.7-5.5 12.3-4.7 14.4-2.1 18.4 9 6.2 13 4.7c1.2-.5 2-1.5 3-1.5s1.8 1 3.1 1.5c3.9 1.6 10.4-.7 13-4.7s3.3-12.5-2.1-18.4z" fill="#f3d111"/><path data-name="opacity" d="M37.1 58.5C35.7 58 35 57 34 57s-1.8 1-3.1 1.5c-3.9 1.6-10.4-.7-13-4.7s-3-9.6-.3-15c-5 5.9-4.2 14.1-1.7 18s9 6.2 13 4.7C30.2 61 31 60 32 60s1.8 1 3.1 1.5c3.9 1.6 10.4-.7 13-4.7a10.3 10.3 0 0 0 .8-1.5c-3.1 3.1-8.4 4.5-11.8 3.2z" fill="#101129" opacity=".18"/><path data-name="layer1" d="M34 16c.5-6 2.3-14 16-14 0 10-4 17-16 14z" fill="#68963f"/><ellipse data-name="opacity" cx="43.1" cy="45.9" rx="4" ry="4.5" fill="#fff" opacity=".25"/><path data-name="stroke" d="M46 38.4c-5.2-5.7-4.6-6.1-5.5-12.3S35.2 18 32 18s-7.5 1.4-8.4 8.1-.3 6.7-5.5 12.3-4.7 14.4-2.1 18.4 9 6.2 13 4.7c1.2-.5 2-1.5 3-1.5s1.8 1 3.1 1.5c3.9 1.6 10.4-.7 13-4.7s3.3-12.5-2.1-18.4zM24 2s8 5.8 8 16m2-2c.5-6 2.3-14 16-14 0 10-4 17-16 14z" fill="none" stroke="#2f446a" stroke-linecap="round" stroke-linejoin="round" stroke-width="2"/></svg>