<svg xmlns="http://www.w3.org/2000/svg" viewBox="0 0 64 64" aria-labelledby="title" aria-describedby="desc"><path data-name="stroke" fill="none" stroke="#2e4369" stroke-linecap="round" stroke-linejoin="round" stroke-width="2" d="M43.8 20.2L19.2 44.8"/><path data-name="layer5" fill="#7b8baf" d="M19.2 57.9l31.2-31.1-13.2-13.2L6.1 44.8"/><path data-name="layer4" d="M56.2 21l3.5-3.5c3.6-3.6 2.7-8.6-.9-12.2s-8.6-4.6-12.3-1L43 7.8" fill="#f27e7c"/><path data-name="layer3" fill="#fbaa51" d="M50.4 26.8l5.8-5.8L43 7.8l-5.8 5.8"/><path data-name="opacity" fill="#000028" opacity=".25" d="M12.642 51.307l31.183-31.183 6.59 6.59-31.183 31.183z"/><path data-name="layer2" d="M19.2 44.8a9.3 9.3 0 0 1-13.2 0L3.3 56.7l4.1 4.1L19.3 58a9.3 9.3 0 0 1-.1-13.2z" fill="#fddab3"/><path data-name="layer1" fill="#2e4369" d="M2 62l5.3-1.3-4-4L2 62z"/><path data-name="stroke" fill="none" stroke="#2e4369" stroke-linecap="round" stroke-linejoin="round" stroke-width="2" d="M43.8 20.2L19.2 44.8m0 13.1l31.2-31.1-13.2-13.2L6.1 44.8"/><path data-name="stroke" d="M19.2 44.8a9.3 9.3 0 0 1-13.2 0L2 62l17.2-4.1a9.3 9.3 0 0 1 0-13.1zm37-23.8l3.5-3.5c3.6-3.6 2.7-8.6-.9-12.2s-8.6-4.6-12.3-1L43 7.8m7.4 19l5.8-5.8L43 7.8l-5.8 5.8" fill="none" stroke="#2e4369" stroke-linecap="round" stroke-linejoin="round" stroke-width="2"/></svg>