<svg xmlns="http://www.w3.org/2000/svg" viewBox="0 0 64 64" aria-labelledby="title" aria-describedby="desc"><path data-name="layer4" d="M55.7 16.3l3.7-3.7a5.7 5.7 0 1 0-8-8l-3.7 3.7" fill="#f27e7c"/><path data-name="layer3" fill="#fbaa51" d="M17.3 54.7l38.4-38.4-8-8L9.3 46.6"/><path data-name="layer2" fill="#fddab3" d="M17.3 54.7l-8-8.1-4.2 9.5 2.8 2.7 9.4-4.1z"/><path data-name="layer1" fill="#2e4369" d="M2.9 61l5-2.2-2.8-2.7L2.9 61z"/><path data-name="opacity" fill="#000028" opacity=".2" d="M55.7 16.3l-2.9-2.9-38.3 38.4 2.8 2.9 38.4-38.4z"/><path data-name="stroke" d="M55.7 16.3l3.7-3.7a5.7 5.7 0 1 0-8-8l-3.7 3.7M9.3 46.6L2.9 61l14.4-6.3-8-8.1z" fill="none" stroke="#2e4369" stroke-linecap="round" stroke-linejoin="round" stroke-width="2"/><path data-name="stroke" fill="none" stroke="#2e4369" stroke-linecap="round" stroke-linejoin="round" stroke-width="2" d="M17.3 54.7l38.4-38.4-8-8L9.3 46.6"/></svg>