<svg xmlns="http://www.w3.org/2000/svg" viewBox="0 0 64 64" aria-labelledby="title" aria-describedby="desc"><path data-name="layer1" d="M44 62V38a2 2 0 0 0-2-2H22a2 2 0 0 0-2 2v24z" fill="#c59483"/><path data-name="opacity" d="M26 36h-4a2 2 0 0 0-2 2v24h4V38a2 2 0 0 1 2-2z" fill="#101129" opacity=".25"/><path data-name="layer1" d="M44 16v6a2 2 0 0 1-2 2H22a2 2 0 0 1-2-2v-6m4 8h16v12H24z" fill="#c59483"/><rect data-name="layer1" x="18" y="8" width="28" height="8" rx="2" ry="2" fill="#c59483"/><path data-name="opacity" d="M22 14v-4a2 2 0 0 1 2-2h-4a2 2 0 0 0-2 2v4a2 2 0 0 0 2 2h4a2 2 0 0 1-2-2z" fill="#101129" opacity=".25"/><path data-name="opacity" fill="#fff" opacity=".25" d="M34 8h6v8h-6zm0 28h6v26h-6zm-2-18h6v6h-6zm0 8h4v10h-4z"/><path data-name="opacity" d="M44 18v-2H20v6a2 2 0 0 0 2 2h4a2 2 0 0 1-2-2v-4zm-4 6H24v12h4V26h12v-2z" fill="#101129" opacity=".25"/><path data-name="stroke" d="M44 62V38a2 2 0 0 0-2-2H22a2 2 0 0 0-2 2v24zm0-46v6a2 2 0 0 1-2 2H22a2 2 0 0 1-2-2v-6m4 20V24m16 12V24" fill="none" stroke="#2f446a" stroke-linecap="round" stroke-linejoin="round" stroke-width="2"/><rect data-name="stroke" x="18" y="8" width="28" height="8" rx="2" ry="2" fill="none" stroke="#2f446a" stroke-linecap="round" stroke-linejoin="round" stroke-width="2"/><path data-name="stroke" fill="none" stroke="#2f446a" stroke-linecap="round" stroke-linejoin="round" stroke-width="2" d="M32 8V2m-4 0h8"/></svg>