<svg xmlns="http://www.w3.org/2000/svg" viewBox="0 0 64 64" aria-labelledby="title" aria-describedby="desc"><path data-name="layer2" d="M58.7 11.4C53.5 6.3 43.1 4 32 4S10.5 6.3 5.3 11.4a11.2 11.2 0 0 0-2 13.2c1.4 1.8 3.3 1.3 4.6 1.1L15 24a3.9 3.9 0 0 0 3-4.5c-.3-3 1.4-7.5 14-7.5s14.3 4.4 14 7.5 2.9 4.3 4 4.5 4.8 1.5 6.1 1.8 3.2.8 4.6-1.1a11.2 11.2 0 0 0-2-13.3z" fill="#202020"/><path data-name="layer1" d="M40 26.8V20a2 2 0 1 0-4 0v6.1h-8V20a2 2 0 0 0-4 0v6.8A22 22 0 0 0 8 48v12h48V48a22 22 0 0 0-16-21.2zM23 54h-2a2 2 0 0 1 0-4h2a2 2 0 0 1 0 4zm0-8h-2a2 2 0 0 1 0-4h2a2 2 0 0 1 0 4zm0-8h-2a2 2 0 0 1 0-4h2a2 2 0 0 1 0 4zm10 16h-2a2 2 0 0 1 0-4h2a2 2 0 0 1 0 4zm0-8h-2a2 2 0 0 1 0-4h2a2 2 0 0 1 0 4zm0-8h-2a2 2 0 0 1 0-4h2a2 2 0 0 1 0 4zm10 16h-2a2 2 0 0 1 0-4h2a2 2 0 0 1 0 4zm0-8h-2a2 2 0 0 1 0-4h2a2 2 0 0 1 0 4zm0-8h-2a2 2 0 0 1 0-4h2a2 2 0 0 1 0 4z" fill="#202020"/></svg>