<svg xmlns="http://www.w3.org/2000/svg" viewBox="0 0 64 64" aria-labelledby="title" aria-describedby="desc"><path data-name="layer5" fill="#575f76" d="M46 11h9v6h-9z"/><path data-name="layer2" d="M59 17H36.6L30 9H14l-6.6 8H5a3 3 0 0 0-3 3v30a3 3 0 0 0 3 3h54a3 3 0 0 0 3-3V20a3 3 0 0 0-3-3z" fill="#7b8baf"/><circle data-name="layer4" cx="46" cy="37" r="8" fill="#536897"/><path data-name="layer3" fill="#a0d6ef" d="M10 27h20v18H10z"/><circle data-name="layer2" cx="46" cy="37" r="1" fill="#7b8baf"/><path data-name="layer1" fill="#fff" d="M10 27l20 18v-5.8L16.5 27H10zm10.4 0l9.6 8.7v-3.2L23.8 27h-3.4z"/><path data-name="stroke" fill="none" stroke="#2e4369" stroke-linecap="round" stroke-miterlimit="10" stroke-width="2" d="M55 17v-6h-9v6" stroke-linejoin="round"/><path data-name="stroke" d="M5 17h2.4L14 9h16l6.6 8H59a3 3 0 0 1 3 3v30a3 3 0 0 1-3 3H5a3 3 0 0 1-3-3V20a3 3 0 0 1 3-3z" fill="none" stroke="#2e4369" stroke-linecap="round" stroke-miterlimit="10" stroke-width="2" stroke-linejoin="round"/><circle data-name="stroke" cx="46" cy="37" r="8" fill="none" stroke="#2e4369" stroke-linecap="round" stroke-miterlimit="10" stroke-width="2" stroke-linejoin="round"/><path data-name="stroke" fill="none" stroke="#2e4369" stroke-linecap="round" stroke-miterlimit="10" stroke-width="2" d="M10 27h20v18H10z" stroke-linejoin="round"/><circle data-name="stroke" cx="46" cy="37" r="1" fill="none" stroke="#2e4369" stroke-linecap="round" stroke-miterlimit="10" stroke-width="2" stroke-linejoin="round"/></svg>