<svg xmlns="http://www.w3.org/2000/svg" viewBox="0 0 64 64" aria-labelledby="title" aria-describedby="desc"><path data-name="layer3" fill="#c69483" d="M2 14h60v48H2z"/><path data-name="opacity" fill="#000064" opacity=".15" d="M2 58h60v4H2z"/><path data-name="layer2" fill="#d1ebf7" d="M10 22h44v32H10z"/><path data-name="opacity" fill="#000064" opacity=".16" d="M10 22v4h40v28h4V22H10z"/><path data-name="layer1" d="M52 54c0-1.8-5.5-24-12-24s-8.9 14-10 14-3.6-4-8-4-10 11.7-10 14z" fill="#92d5b5"/><path data-name="stroke" d="M12 54c0-2.3 4.4-14 10-14s5.8 4 8 4 3.9-14 10-14 12 22.2 12 24" fill="none" stroke="#2e4369" stroke-linecap="round" stroke-miterlimit="10" stroke-width="2" stroke-linejoin="round"/><path data-name="stroke" fill="none" stroke="#2e4369" stroke-linecap="round" stroke-miterlimit="10" stroke-width="2" d="M2 14h60v48H2z" stroke-linejoin="round"/><path data-name="stroke" fill="none" stroke="#2e4369" stroke-linecap="round" stroke-miterlimit="10" stroke-width="2" d="M10 22h44v32H10zm6-8L32 2l16 12" stroke-linejoin="round"/></svg>