<svg xmlns="http://www.w3.org/2000/svg" viewBox="0 0 64 64" aria-labelledby="title" aria-describedby="desc"><path data-name="layer2" d="M5 32.3v7.6a18.8 18.8 0 0 0 8.8 1.2 17.3 17.3 0 0 1 10.3 2.6c3 1.9 5.2 1.9 9.4 1.9h5.4c5.9.3 7.5 1 10 2.4l2.6 1.4A8.3 8.3 0 0 0 59 49v-6.1z" fill="#202020"/><path data-name="layer1" d="M49.7 53l-2.9-1.5c-2-1.1-2.9-1.7-8.2-1.9h-5.1c-4.4 0-7.6 0-11.6-2.5a13.4 13.4 0 0 0-7.7-1.9 23.3 23.3 0 0 1-9.2-1v6.3a1 1 0 0 0 .8 1l52 12h.2l.6-.2a1 1 0 0 0 .4-.8v-9.2a12.7 12.7 0 0 1-4.3.8 11.7 11.7 0 0 1-5-1.1zM36 21.9V2.5a2 2 0 1 0-4 0v16.1l-3.3-2.8a1 1 0 0 0-.8-.2C15 17.9 8.5 25.2 6.2 28.4l50.8 10c-3.8-2.9-13.2-10.2-21-16.5z" fill="#202020"/></svg>