<svg xmlns="http://www.w3.org/2000/svg" viewBox="0 0 64 64" aria-labelledby="title" aria-describedby="desc"><path data-name="layer2" d="M43 52c-9.478 0-17.441-3.561-21-8.786V45c0 7.168 9.421 13 21 13s21-5.832 21-13v-1.786C60.441 48.439 52.478 52 43 52z" fill="#202020"/><path data-name="layer2" d="M31.714 26.055C25.883 28.368 22 32.4 22 37c0 7.168 9.421 13 21 13a31.087 31.087 0 0 0 10.729-1.846zM43 24a32.423 32.423 0 0 0-7.608.9l21.656 21.735C61.3 44.254 64 40.822 64 37c0-7.168-9.421-13-21-13z" fill="#202020"/><path data-name="layer1" d="M20.012 36.744a10.212 10.212 0 0 1 .2-1.762C11.087 34.79 3.46 31.294 0 26.214V28c0 6.959 8.887 12.642 20 12.969v-4.243z" fill="#202020"/><path data-name="layer1" d="M30.977 24.2l3.946-1.243a34.249 34.249 0 0 1 6.793-.915A8.2 8.2 0 0 0 42 20c0-4.6-3.883-8.632-9.714-10.945l-22.016 22.1A31.046 31.046 0 0 0 20.821 33c1.511-3.645 5.073-6.788 10.156-8.8zM6.952 29.635L28.608 7.9A32.423 32.423 0 0 0 21 7C9.421 7 0 12.832 0 20c0 3.822 2.7 7.254 6.952 9.635z" fill="#202020"/></svg>