<svg xmlns="http://www.w3.org/2000/svg" viewBox="0 0 64 64" aria-labelledby="title" aria-describedby="desc"><path data-name="layer3" fill="#f4475d" d="M13 24.089h38v29.917H13z"/><path data-name="layer2" fill="#cbe5ff" d="M41 36.006h-6v-6h-6v6h-6v6h6v6h6v-6h6v-6zm10-14a6 6 0 0 0-6-6H19a6 6 0 0 0-6 6v2.083h38zm-38 34a6 6 0 0 0 6 6h26a6 6 0 0 0 6-6v-2H13z"/><path data-name="layer1" d="M46 16.006v-11a3 3 0 0 0-3-3H21a3 3 0 0 0-3 3v11z" fill="#9cf"/><path data-name="opacity" d="M28 2.006h-7a3 3 0 0 0-3 3v11h7v-11a3 3 0 0 1 3-3z" fill="#000064" opacity=".16"/><path data-name="opacity" d="M39 2.006h-5a3 3 0 0 1 3 3v11h5v-11a3 3 0 0 0-3-3z" fill="#fff" opacity=".4"/><path data-name="opacity" d="M21 56.006v-34a6 6 0 0 1 6-6h-8a6 6 0 0 0-6 6v34a6 6 0 0 0 6 6h8a6 6 0 0 1-6-6z" fill="#000064" opacity=".16"/><path data-name="opacity" d="M39 56.006v-34a6 6 0 0 0-6-6h8a6 6 0 0 1 6 6v34a6 6 0 0 1-6 6h-8a6 6 0 0 0 6-6z" fill="#fff" opacity=".25"/><path data-name="stroke" d="M18 16.006v-11a3 3 0 0 1 3-3h22a3 3 0 0 1 3 3v11m-22-9v9m8-9v9m8-9v9" fill="none" stroke="#2e4369" stroke-linecap="round" stroke-miterlimit="10" stroke-width="2" stroke-linejoin="round"/><rect data-name="stroke" x="13" y="16.006" width="38" height="46" rx="6" ry="6" fill="none" stroke="#2e4369" stroke-linecap="round" stroke-miterlimit="10" stroke-width="2" stroke-linejoin="round"/><path data-name="stroke" fill="none" stroke="#2e4369" stroke-linecap="round" stroke-miterlimit="10" stroke-width="2" d="M41 36.006h-6v-6h-6v6h-6v6h6v6h6v-6h6v-6zM13 24.089h38M13 54.006h38" stroke-linejoin="round"/></svg>