<svg xmlns="http://www.w3.org/2000/svg" viewBox="0 0 64 64" aria-labelledby="title" aria-describedby="desc"><path data-name="layer1" d="M42 25c-11.046 0-20 5.373-20 12v8c0 6.627 8.954 12 20 12s20-5.373 20-12v-8c0-6.627-8.954-12-20-12z" fill="#9ecfff"/><path data-name="opacity" d="M30.75 27.08l20.463 20.564a24.157 24.157 0 0 0 3.471-1.367L34.408 25.9a26.308 26.308 0 0 0-3.658 1.18z" fill="#000064" opacity=".2"/><path data-name="opacity" d="M42 49c-11.046 0-20-5.373-20-12v8c0 6.627 8.954 12 20 12s20-5.373 20-12v-8c0 6.627-8.954 12-20 12z" fill="#000064" opacity=".2"/><path data-name="layer1" d="M34.408 25.9A31.812 31.812 0 0 1 42 25v-5c0-6.627-8.954-12-20-12S2 13.373 2 20v8c0 6.627 8.954 12 20 12v-3c0-5.014 5.129-9.3 12.408-11.1z" fill="#9ecfff"/><path data-name="opacity" d="M33.25 10.08L12.787 30.644a24.157 24.157 0 0 1-3.471-1.367L29.592 8.9a26.308 26.308 0 0 1 3.658 1.18z" fill="#000064" opacity=".2"/><path data-name="opacity" d="M23.87 31.943c-.616.034-1.239.057-1.87.057-11.046 0-20-5.373-20-12v8c0 6.627 8.954 12 20 12v-3a8.2 8.2 0 0 1 1.87-5.057zM42 20a8.214 8.214 0 0 1-1.881 5.056C40.739 25.021 41.365 25 42 25z" fill="#000064" opacity=".2"/><path data-name="stroke" fill="none" stroke="#2e4369" stroke-linecap="round" stroke-miterlimit="10" stroke-width="2" d="M42 20v5m-8.748-14.922L12.779 30.651M29.628 8.864L9.315 29.278m30.832-4.226A8.2 8.2 0 0 0 42 20c0-6.627-8.954-12-20-12S2 13.373 2 20s8.954 12 20 12q.938 0 1.854-.051" stroke-linejoin="round"/><path data-name="stroke" d="M22 40C10.954 40 2 34.627 2 28v-8m28.748 7.078l20.473 20.573M34.372 25.864l20.313 20.414" fill="none" stroke="#2e4369" stroke-linecap="round" stroke-miterlimit="10" stroke-width="2" stroke-linejoin="round"/><ellipse data-name="stroke" cx="42" cy="37" rx="20" ry="12" fill="none" stroke="#2e4369" stroke-linecap="round" stroke-miterlimit="10" stroke-width="2" stroke-linejoin="round"/><path data-name="stroke" d="M22 37v8c0 6.627 8.954 12 20 12s20-5.373 20-12v-8" fill="none" stroke="#2e4369" stroke-linecap="round" stroke-miterlimit="10" stroke-width="2" stroke-linejoin="round"/></svg>