<svg xmlns="http://www.w3.org/2000/svg" viewBox="0 0 64 64" aria-labelledby="title" aria-describedby="desc"><path data-name="layer1" d="M32 2a16 16 0 0 0-16 16.1c0 14.5 16 29 16 29s16-14.6 16-29A16 16 0 0 0 32 2zm0 22a6 6 0 1 1 6-6 6 6 0 0 1-6 6z" fill="#f26161"/><path data-name="opacity" d="M19 16.1a16 16 0 0 1 5.7-12.3A16.1 16.1 0 0 0 16 18.1c0 14.5 16 29 16 29l2.5-2.5C31.8 42 19 29 19 16.1z" fill="#000032" opacity=".2"/><path data-name="stroke" d="M32 2a16 16 0 0 0-16 16.1c0 14.5 16 29 16 29s16-14.6 16-29A16 16 0 0 0 32 2z" fill="none" stroke="#2e4369" stroke-linecap="round" stroke-linejoin="round" stroke-width="2"/><circle data-name="stroke" cx="32" cy="18" r="6" fill="none" stroke="#2e4369" stroke-linecap="round" stroke-linejoin="round" stroke-width="2"/><path data-name="stroke" fill="none" stroke="#2e4369" stroke-linecap="round" stroke-linejoin="round" stroke-width="2" d="M16 62l32-14m0 14L16 48"/></svg>