<svg xmlns="http://www.w3.org/2000/svg" viewBox="0 0 64 64" aria-labelledby="title" aria-describedby="desc"><path data-name="layer3" d="M43.4 23.5L5.1 61.7a2 2 0 0 1-2.8 0 2 2 0 0 1 0-2.8l38.2-38.3" fill="#cbd8e6"/><circle data-name="layer2" cx="50.3" cy="13.7" r="12" transform="rotate(-45 50.351 13.644)" fill="#ed4c49"/><path data-name="opacity" d="M44.8 19.2a12 12 0 0 1-1.3-15.4l-1.7 1.4a12 12 0 1 0 18.4 15.3 12 12 0 0 1-15.4-1.3z" fill="#000028" opacity=".15"/><circle data-name="layer1" cx="54.3" cy="9.7" r="2" fill="#fff"/><circle data-name="stroke" cx="50.3" cy="13.7" r="12" transform="rotate(-45 50.351 13.644)" fill="none" stroke="#2e4369" stroke-linecap="round" stroke-linejoin="round" stroke-width="2"/><path data-name="stroke" d="M43.4 23.5L5.1 61.7a2 2 0 0 1-2.8 0 2 2 0 0 1 0-2.8l38.2-38.3" fill="none" stroke="#2e4369" stroke-linecap="round" stroke-linejoin="round" stroke-width="2"/></svg>