<svg xmlns="http://www.w3.org/2000/svg" viewBox="0 0 64 64" aria-labelledby="title" aria-describedby="desc"><path data-name="layer2" d="M32 18c0-9.8-13.6-8-13.6-8S20 18 32 18zM46 2C34.6 2 34 12 34 18 46.7 18 46 7.1 46 2z" fill="#202020"/><path data-name="layer1" fill="#202020" d="M26.766 33.844l5.162-5.162 5.176 5.176-5.162 5.162zM15.9 39.1l5.2-5.2-4.6-4.6a24.6 24.6 0 0 0-2.3 8.7 2 2 0 0 1 1.3.6zm10.95 10.828l5.162-5.162 5.176 5.176-5.162 5.162zM47.9 44.7l-5.2 5.2 3.9 3.9v.2a22.8 22.8 0 0 0 2.8-8.2 2 2 0 0 1-1.2-.6zm-32 0l-.3.3a2 2 0 0 1-1.2.6 22.9 22.9 0 0 0 2.8 8.2h.1l3.8-3.8zm2.866-2.843l5.162-5.162 5.176 5.176-5.162 5.162zM20.1 56.5l-.6.4a15.6 15.6 0 0 0 6.8 4.2 2 2 0 0 1 .5-1l2.2-2.2-5.2-5.2zm19.8-3.8l-9.2 9.2H32A16.6 16.6 0 0 0 44.4 57l-.6-.4zm-5.12-10.856l5.161-5.162 5.176 5.176-5.162 5.162zM18.6 26l.7.5 4.6 4.6 10.9-10.9L32 20c-5.9 0-10.4 2.3-13.4 6zm26 .4l.7-.5a15.6 15.6 0 0 0-6.4-4.7 2 2 0 0 1-.5 1l-3.7 3.7 5.2 5.2zm3.3 12.7l.6-.6a2 2 0 0 1 1.3-.6 24.5 24.5 0 0 0-2.4-8.7l-4.7 4.7z"/></svg>