<svg xmlns="http://www.w3.org/2000/svg" viewBox="0 0 64 64" aria-labelledby="title" aria-describedby="desc"><path data-name="layer2" d="M49 14a43.6 43.6 0 0 0-2-12H17a43.6 43.6 0 0 0-2 12" fill="none" stroke="#202020" stroke-linecap="round" stroke-linejoin="round" stroke-width="2"/><path data-name="layer1" d="M19.1 33.9A48.3 48.3 0 0 1 21 46v14a2 2 0 0 0 2.1 2h17.8a2 2 0 0 0 2.1-2V46a48.3 48.3 0 0 1 1.9-12.1C46 29.6 49 19 49 14H15c0 5 3 15.6 4.1 19.9z" fill="none" stroke="#202020" stroke-linecap="round" stroke-linejoin="round" stroke-width="2"/><circle data-name="layer1" cx="32" cy="21" r="1" fill="none" stroke="#202020" stroke-linecap="round" stroke-linejoin="round" stroke-width="2"/><circle data-name="layer1" cx="38" cy="27" r="1" fill="none" stroke="#202020" stroke-linecap="round" stroke-linejoin="round" stroke-width="2"/><circle data-name="layer1" cx="30" cy="33" r="1" fill="none" stroke="#202020" stroke-linecap="round" stroke-linejoin="round" stroke-width="2"/><circle data-name="layer1" cx="34" cy="41" r="1" fill="none" stroke="#202020" stroke-linecap="round" stroke-linejoin="round" stroke-width="2"/><circle data-name="layer1" cx="30" cy="49" r="1" fill="none" stroke="#202020" stroke-linecap="round" stroke-linejoin="round" stroke-width="2"/></svg>