<svg xmlns="http://www.w3.org/2000/svg" viewBox="0 0 64 64" aria-labelledby="title" aria-describedby="desc"><path data-name="layer1" d="M58.8 31.2C52.9 17.4 40.8 6.1 25.7.1a2 2 0 0 0-2.6 1.2l-18 52A2 2 0 0 0 7 56l.8-.2 7.2-3.1V58a2 2 0 1 0 4 0v-7.1l4-1.8V62a2 2 0 1 0 4 0V47.4l12-5.3V52a2 2 0 1 0 4 0V40.3l14.8-6.5a2 2 0 0 0 1-2.6zM24 24a5 5 0 1 1 5 5 5 5 0 0 1-5-5zm.5 13.5A3.5 3.5 0 1 1 21 34a3.5 3.5 0 0 1 3.5 3.5zM35 31a3 3 0 1 1-3 3 3 3 0 0 1 3-3zm16 1.5C45.8 21.9 36.5 13.2 25 8.2l1.2-3.5C38.8 10.1 48.8 19.6 54.3 31z" fill="#202020"/></svg>