<svg xmlns="http://www.w3.org/2000/svg" viewBox="0 0 64 64" aria-labelledby="title" aria-describedby="desc"><path data-name="layer2" d="M49.8 46.2a2 2 0 0 0-2.6-1L32 51.8l-15.2-6.6a2 2 0 1 0-1.6 3.7L27 54l-11.8 5.2A2 2 0 0 0 16 63l.8-.2L32 56.2l15.2 6.6.8.2a2 2 0 0 0 .8-3.8L37 54l11.8-5.2a2 2 0 0 0 1-2.6z" fill="#202020"/><path data-name="layer1" d="M14.1 21C15.5 35.2 32 46.1 32 46.1s16.4-11 17.9-25v-.3c.1-.6.1-1.1.1-1.7a18 18 0 1 0-36 0c0 .6 0 1.2.1 1.8zM32 9a10 10 0 1 1-10 10A10 10 0 0 1 32 9z" fill="#202020"/></svg>