<svg xmlns="http://www.w3.org/2000/svg" viewBox="0 0 64 64" aria-labelledby="title" aria-describedby="desc"><path data-name="layer2" d="M34.7 23l-14.5-3.2a7.7 7.7 0 0 0-6.6 2.1c2.9 2.2 9.8 6.9 9.8 6.9" fill="none" stroke="#202020" stroke-linecap="round" stroke-linejoin="round" stroke-width="2"/><path data-name="layer1" d="M61 20.9s-3.7-10-14.7-4L13 34.3a2.7 2.7 0 0 1-3.2-.4c-1.2-1-4.5-2.1-6.6-1L1 34.1l9 8.5a2.5 2.5 0 0 0 2.3 0l15.2-6.8-1.2 17a10.4 10.4 0 0 0 6.7-5.5c2-4.5 8.1-17.6 8.1-17.6z" fill="none" stroke="#202020" stroke-linecap="round" stroke-linejoin="round" stroke-width="2"/></svg>