<svg xmlns="http://www.w3.org/2000/svg" viewBox="0 0 64 64" aria-labelledby="title" aria-describedby="desc"><path data-name="layer1" d="M15.5 35a4 4 0 1 1-6.9 0z" fill="#dde5f4"/><path data-name="opacity" d="M15.5 35a4 4 0 1 1-6.9 0z" fill="#000064" opacity=".15"/><path data-name="layer1" d="M55.5 35a4 4 0 1 1-6.9 0z" fill="#dde5f4"/><ellipse data-name="layer1" cx="32" cy="33" rx="8" ry="10" fill="#dde5f4"/><path data-name="opacity" d="M24 33c0 5.5 3.6 10 8 10a7 7 0 0 0 5-2.2c-13 2.8-12-15.7-7-17.5-3.5 1.2-6 5.1-6 9.7z" fill="#000064" opacity=".15"/><path data-name="opacity" d="M36 24.3c-2-1.3-4-.3-2 1.7a9.6 9.6 0 0 1 2 9c-1 3 2.7 5 3.8 0a12.5 12.5 0 0 0 .2-2 10.6 10.6 0 0 0-4-8.7z" fill="#fff" opacity=".25"/><path data-name="stroke" fill="none" stroke="#2e4369" stroke-linecap="round" stroke-linejoin="round" stroke-width="2" d="M32 17v6M15.5 35a4 4 0 1 1-6.9 0m46.9 0a4 4 0 1 1-6.9 0"/><ellipse data-name="stroke" cx="32" cy="33" rx="8" ry="10" fill="none" stroke="#2e4369" stroke-linecap="round" stroke-linejoin="round" stroke-width="2"/><path data-name="stroke" fill="none" stroke="#2e4369" stroke-linecap="round" stroke-linejoin="round" stroke-width="2" d="M30 31h4m4.5-4H48m-32 0h9.6M2 35h22.2m15.6 0H62"/></svg>