<svg xmlns="http://www.w3.org/2000/svg" viewBox="0 0 64 64" aria-labelledby="title" aria-describedby="desc"><path data-name="layer1" d="M50.4 36.1L15.7 21.8a2.7 2.7 0 0 1-1.7-2.7c0-1.6-1.2-4.8-3.4-5.7l-2.4-.9-.8 12.4a2.5 2.5 0 0 0 1.5 1.8L23.8 34 9.9 43.9a10.4 10.4 0 0 0 8.6 1.6l18.6-5.1L56.8 50s5.3-9.3-6.4-13.9z" fill="#d1deff"/><path data-name="layer1" d="M38.4 31.2L31.5 18a7.7 7.7 0 0 0-5.9-3.7c.2 3.6 1 12 1 12l11.7 4.8z" fill="#d1deff"/><path data-name="opacity" d="M38.4 31.2L31.5 18a7.7 7.7 0 0 0-5.9-3.7c.2 3.6 1 12 1 12l11.7 4.8z" fill="#000064" opacity=".1"/><path data-name="opacity" d="M56.8 50a10.4 10.4 0 0 0 .9-2.6L10 23.8V13.2l-1.9-.7-.7 12.4a2.5 2.5 0 0 0 1.5 1.8L23.8 34l-4.1 3 11.4 5 6-1.6z" fill="#000064" opacity=".1"/><path data-name="stroke" d="M38.4 31.2L31.5 18a7.7 7.7 0 0 0-5.9-3.7c.2 3.6 1 12 1 12" fill="none" stroke="#2e4369" stroke-linecap="round" stroke-linejoin="round" stroke-width="2"/><path data-name="stroke" d="M50.4 36.1L15.7 21.8a2.7 2.7 0 0 1-1.7-2.7c0-1.6-1.2-4.8-3.4-5.7l-2.4-.9-.8 12.4a2.5 2.5 0 0 0 1.5 1.8L23.8 34 9.9 43.9a10.4 10.4 0 0 0 8.6 1.6l18.6-5.1L56.8 50s5.3-9.3-6.4-13.9z" fill="none" stroke="#2e4369" stroke-linecap="round" stroke-linejoin="round" stroke-width="2"/></svg>