<svg xmlns="http://www.w3.org/2000/svg" viewBox="0 0 64 64" aria-labelledby="title" aria-describedby="desc"><path data-name="layer1" d="M46 3c6 4 16 2.3 16 14-12-2-16-2-16-2zm0 42h-8a8 8 0 1 0 8 8z" fill="#8fa9d8"/><path data-name="opacity" d="M61.7 17h.3C62 5.3 52 7 46 3v3c5.4 3.6 14.1 2.5 15.7 11zM30 53a8 8 0 0 0 .1 1.5A8 8 0 0 1 38 48h8v-3h-8a8 8 0 0 0-8 8z" fill="#fff" opacity=".25"/><path data-name="stroke" d="M46 45h-8a8 8 0 1 0 8 8V3c6 4 16 2.3 16 14-12-2-16-2-16-2M2 15h32M2 25h32M2 35h32M2 45h16" fill="none" stroke="#2e4369" stroke-linecap="round" stroke-miterlimit="10" stroke-width="2" stroke-linejoin="round"/></svg>