<svg xmlns="http://www.w3.org/2000/svg" viewBox="0 0 64 64" aria-labelledby="title" aria-describedby="desc"><path data-name="layer2" d="M46 18v18a10 10 0 0 1-10 10h-8a10 10 0 0 1-10-10V18z" fill="#8fa9d8"/><path data-name="opacity" d="M24 36V18h-6v18a10 10 0 0 0 10 10h4c-5.5 0-8-4.5-8-10z" fill="#000064" opacity=".14"/><path data-name="opacity" d="M42 36V18h4v18a10 10 0 0 1-10 10h-4a10 10 0 0 0 10-10z" fill="#fff" opacity=".2"/><path data-name="layer1" fill="#7b8baf" d="M36 46v8h-8v-8"/><path data-name="opacity" fill="#000064" opacity=".14" d="M28 46h8v4h-8z"/><path data-name="stroke" d="M46 18v18a10 10 0 0 1-10 10h-8a10 10 0 0 1-10-10V18m-4 0h36M36 46v8h-8v-8m4 8.1V62m-8-44V2m16 16V2" fill="none" stroke="#2e4369" stroke-linecap="round" stroke-linejoin="round" stroke-width="2"/></svg>