<svg xmlns="http://www.w3.org/2000/svg" viewBox="0 0 64 64" aria-labelledby="title" aria-describedby="desc"><path data-name="layer2" d="M46 29V2H16v27zM26.9 10.4L34 6.7V22h2a2 2 0 0 1 0 4h-8a2 2 0 0 1 0-4h2v-8.7l-1.2.6a2 2 0 1 1-1.8-3.6z" fill="#202020"/><path data-name="layer1" d="M33.9 33v29H62V33zm15.6 22.4a8.5 8.5 0 0 1-2.9.5 8.1 8.1 0 0 1-6.1-2.7 2 2 0 1 1 3.1-2.6 4.4 4.4 0 0 0 4.6 1 2.6 2.6 0 0 0 1.8-2.5c0-3-3.6-3.1-4-3.1h-3.7l4-6H42a2 2 0 0 1 0-4h11.7l-4.4 6.6a6.7 6.7 0 0 1 4.7 6.5 6.6 6.6 0 0 1-4.5 6.3zM29.9 33H2v29h27.9zm-6.6 23h-14L19 44.6a2.8 2.8 0 0 0 .6-1.8 2.8 2.8 0 0 0-4.6-2.1 2 2 0 1 1-2.7-3 6.8 6.8 0 0 1 9.8 9.4L18 52h5.3a2 2 0 0 1 0 4z" fill="#202020"/></svg>