<svg viewBox="0 0 64 64" xmlns="http://www.w3.org/2000/svg" aria-labelledby="title" aria-describedby="desc"><path d="M1.998 31h30v30h-30z" fill="#a5d0ec" data-name="layer3"/><path d="M16 .998h30v30H16z" fill="#78d1f4" data-name="layer2"/><path d="M32 31h30v30H32" fill="#b3c2d8" data-name="layer1"/><path d="M35 58V31h11v-4H19V1h-3v30h16v27H5V31H2v30h60v-3H35z" opacity=".15" fill="#000064" data-name="opacity"/><path stroke-width="2" stroke-linejoin="round" stroke-linecap="round" stroke="#2e4369" fill="none" d="M22.268 53h-9.61l6.8-8 .117-.139a4.8 4.8 0 0 0-6.918-6.628M31 22.998V9l-4.139 2.139M41 37h8l-4 6s6 0 6 5.094c0 5.332-7.166 6.25-10 2.908M27 22.998h8" data-name="stroke"/><path d="M.998 31h30v30h-30zM15 .998h30v30H15zM31 31h30v30H31" stroke-width="2" stroke-linejoin="round" stroke-linecap="round" stroke="#2e4369" fill="none" data-name="stroke"/></svg>