<svg xmlns="http://www.w3.org/2000/svg" viewBox="0 0 64 64" aria-labelledby="title" aria-describedby="desc"><rect data-name="layer4" x="2" y="13" width="60" height="40" rx="2" ry="2" fill="#99afbf"/><path data-name="layer4" fill="#99afbf" d="M45 7h9v6h-9z"/><path data-name="layer3" fill="#a0d6ef" d="M10 21h28v24H10z"/><circle data-name="layer2" cx="50" cy="41" r="4" fill="#6a8aa1"/><circle data-name="layer2" cx="50" cy="22" r="1" fill="#6a8aa1"/><circle data-name="layer2" cx="50" cy="30" r="1" fill="#6a8aa1"/><path data-name="layer1" fill="#fff" d="M38 30.4L28.6 21H10l24 24h4V30.4zM33 21l5 5v-5h-5z"/><rect data-name="stroke" x="2" y="13" width="60" height="40" rx="2" ry="2" fill="none" stroke="#2e4369" stroke-linecap="round" stroke-miterlimit="10" stroke-width="2" stroke-linejoin="round"/><path data-name="stroke" fill="none" stroke="#2e4369" stroke-linecap="round" stroke-miterlimit="10" stroke-width="2" d="M54 13V7h-9v6m-35 8h28v24H10z" stroke-linejoin="round"/><circle data-name="stroke" cx="50" cy="41" r="4" fill="none" stroke="#2e4369" stroke-linecap="round" stroke-miterlimit="10" stroke-width="2" stroke-linejoin="round"/><circle data-name="stroke" cx="50" cy="22" r="1" fill="none" stroke="#2e4369" stroke-linecap="round" stroke-miterlimit="10" stroke-width="2" stroke-linejoin="round"/><circle data-name="stroke" cx="50" cy="30" r="1" fill="none" stroke="#2e4369" stroke-linecap="round" stroke-miterlimit="10" stroke-width="2" stroke-linejoin="round"/><path data-name="stroke" fill="none" stroke="#2e4369" stroke-linecap="round" stroke-miterlimit="10" stroke-width="2" d="M24 31v4m-1.8-2h4" stroke-linejoin="round"/></svg>