<svg xmlns="http://www.w3.org/2000/svg" viewBox="0 0 64 64" aria-labelledby="title" aria-describedby="desc"><path data-name="layer2" d="M50 24a4 4 0 0 0-4 4v-4a4 4 0 1 0-8 0v-2a4 4 0 1 0-8 0V6a4 4 0 1 0-8 0v35.4l-4.5-7.2a4 4 0 0 0-7.1 3.6l11.8 19.4V57l.8 1.1a10.1 10.1 0 0 0 7.8 3.9H44a10 10 0 0 0 10-10V28a4 4 0 0 0-4-4z" fill="#e5ebf7"/><path data-name="layer1" fill="#bacae9" d="M23.3 54v.2-.2z"/><path data-name="opacity" d="M45.1 59H31.8a10.1 10.1 0 0 1-7.7-3.6l-.8-1.1-11.8-19.5a4 4 0 0 1-.4-1.5 4 4 0 0 0-.6 4.5l11.8 19.4V57l.8 1.1a10.1 10.1 0 0 0 7.7 3.9h13.3a10 10 0 0 0 9.9-8.4 10 10 0 0 1-8.9 5.4z" fill="#000028" opacity=".12"/><path data-name="stroke" d="M22 41.4V6a4 4 0 0 1 4-4 4 4 0 0 1 4 4v22m-7.8 29.2L10.4 37.8a4 4 0 0 1 1.8-5.4 4 4 0 0 1 5.4 1.8l4.4 7.2M30 22a4 4 0 0 1 4-4 4 4 0 0 1 4 4v8m0-6a4 4 0 0 1 4-4 4 4 0 0 1 4 4v8" fill="none" stroke="#2e4369" stroke-linecap="round" stroke-linejoin="round" stroke-width="2"/><path data-name="stroke" d="M22.2 57.2a10.1 10.1 0 0 0 8.6 4.8H44a10 10 0 0 0 10-10V28a4 4 0 0 0-4-4 4 4 0 0 0-4 4" fill="none" stroke="#2e4369" stroke-linecap="round" stroke-linejoin="round" stroke-width="2"/></svg>