<svg xmlns="http://www.w3.org/2000/svg" viewBox="0 0 64 64" aria-labelledby="title" aria-describedby="desc"><path data-name="layer7" d="M56 32V2H8v30l-5.4 6.6A2 2 0 0 1 4 38h56a2 2 0 0 1 1.5.7z" fill="#fff7e9"/><path data-name="layer6" fill="#4adfff" d="M32 2h6v36h-6z"/><path data-name="layer5" fill="#ef5940" d="M26 2h6v36h-6z"/><circle data-name="layer1" cx="32" cy="18" r="8" fill="#575f76"/><circle data-name="layer4" cx="32" cy="18" r="4" fill="#78d1f4"/><path data-name="layer3" d="M49 10a2 2 0 0 1-2 2h-2a2 2 0 0 1-2-2 2 2 0 0 1 2-2h2a2 2 0 0 1 2 2z" fill="#fff432"/><circle data-name="layer3" cx="18" cy="24" r="1" fill="#fff432"/><path data-name="layer2" fill="#fff" d="M50 46l8 16H6l8-16h36z"/><path data-name="layer1" d="M60 38H4a2 2 0 0 0-2 2v12a2 2 0 0 0 2 2h6l4-8h36l4 8h6a2 2 0 0 0 2-2V40a2 2 0 0 0-2-2z" fill="#575f76"/><path data-name="opacity" d="M8 32l-5.4 6.6A2 2 0 0 1 4 38h56a2 2 0 0 1 1.5.7L56 32z" fill="#fff" opacity=".5"/><path data-name="opacity" fill="#000064" opacity=".14" d="M50 46H14l-2 4h40l-2-4z"/><path data-name="stroke" d="M10 54H4a2 2 0 0 1-2-2V40a2 2 0 0 1 2-2h56a2 2 0 0 1 2 2v12a2 2 0 0 1-2 2h-6" fill="none" stroke="#2e4369" stroke-linecap="round" stroke-miterlimit="10" stroke-width="2" stroke-linejoin="round"/><path data-name="stroke" fill="none" stroke="#2e4369" stroke-linecap="round" stroke-miterlimit="10" stroke-width="2" d="M14 46L6 62h52l-8-16m11.5-7.3L56 32V2H8v30l-5.5 6.7M10 46h44" stroke-linejoin="round"/><circle data-name="stroke" cx="32" cy="18" r="8" fill="none" stroke="#2e4369" stroke-linecap="round" stroke-miterlimit="10" stroke-width="2" stroke-linejoin="round"/><circle data-name="stroke" cx="32" cy="18" r="4" fill="none" stroke="#2e4369" stroke-linecap="round" stroke-miterlimit="10" stroke-width="2" stroke-linejoin="round"/><path data-name="stroke" d="M49 10a2 2 0 0 1-2 2h-2a2 2 0 0 1-2-2 2 2 0 0 1 2-2h2a2 2 0 0 1 2 2z" fill="none" stroke="#2e4369" stroke-linecap="round" stroke-miterlimit="10" stroke-width="2" stroke-linejoin="round"/><circle data-name="stroke" cx="18" cy="24" r="1" fill="none" stroke="#2e4369" stroke-linecap="round" stroke-miterlimit="10" stroke-width="2" stroke-linejoin="round"/></svg>