<svg xmlns="http://www.w3.org/2000/svg" viewBox="0 0 64 64" aria-labelledby="title" aria-describedby="desc"><path data-name="layer3" d="M39.6 46a10.7 10.7 0 0 1 0-1.5v-1.2a18.3 18.3 0 0 0 5.2-8.7c3 0 3.9-4.3 3.9-5.3s.3-4.7-2.7-4.7v-4.9h-.1c-2.4 1.9-6.8 2.9-13.9 2.9s-11.7-1-14-2.9v4.9c-3 0-3.1 3.8-3.1 4.7s.5 5.3 3.6 5.3a16.7 16.7 0 0 0 5.4 8.8h.1v1.2a9.8 9.8 0 0 1 0 1.6l8 2.4z" fill="#e8d4d4"/><path data-name="layer2" d="M49.6 51.5A33.8 33.8 0 0 1 44 50l-12 6.5-11.9-6.7a32.8 32.8 0 0 1-6.3 1.7C2.2 53.7 2 62.5 2 62.5h60s0-8.7-12.4-11z" fill="#53709b"/><path data-name="layer2" d="M44 50c-3.4-1.3-4.2-2.7-4.4-4L32 48.5l-8-2.4c-.2 1.2-1 2.5-3.9 3.7L32 56.5zm3.9-33.5H52v-6a19.8 19.8 0 0 1-8-2c-4-2-4-6-12-6s-8 4.7-12 6a69.9 69.9 0 0 1-8 2v6h35.9z" fill="#53709b"/><path data-name="layer1" d="M18 19.6c2.3 2 6.8 2.9 14 2.9s11.6-1 13.9-2.9a5.4 5.4 0 0 0 2-3.1H16.1a5.4 5.4 0 0 0 1.9 3.1z" fill="#64738f"/><path data-name="opacity" d="M20 8.5a69.9 69.9 0 0 1-8 2v6h4.1a5.4 5.4 0 0 0 1.9 3.1v4.9c-3 0-3.1 3.8-3.1 4.7s.5 5.3 3.6 5.3a16.7 16.7 0 0 0 5.4 8.8h.1v1.2a9.8 9.8 0 0 1 0 1.6c-.2 1.2-1 2.5-3.9 3.7a32.8 32.8 0 0 1-6.3 1.7C2.2 53.7 2 62.5 2 62.5h9.2c1.1-3.3 7.4-5.2 13.8-7s8-9 7-11c-14-1-9-18-9-18a55.3 55.3 0 0 0 9 1c11 0 12-7 12-7s-3 2-12 2-12-6-12-6h12v-14c-8 0-8 4.7-12 6z" fill="#000064" opacity=".15"/><path data-name="stroke" d="M17.6 18v5.5c-3 0-2.9 3.8-2.9 4.7s.7 5.3 3.8 5.3a17.2 17.2 0 0 0 7.2 10.3m11.9 0a17.2 17.2 0 0 0 7.2-10.3c3 0 3.7-4.3 3.7-5.3s.1-4.7-2.9-4.7v-4.8" fill="none" stroke="#2e4369" stroke-linecap="round" stroke-linejoin="round" stroke-width="2"/><path data-name="stroke" d="M23.6 42.3v1.2c0 2 1 4.9-10 7S2 61.5 2 61.5h60s0-8.7-12.4-11c-10.7-2-10-5-10-7v-1.2M16.1 15.5c.9 3.6 5.6 6 15.9 6s15-2.5 15.9-6zm0 0H12v-6a69.9 69.9 0 0 0 8-2c4-1.3 4-6 12-6s8 4 12 6a19.8 19.8 0 0 0 8 2v6h-4.1" fill="none" stroke="#2e4369" stroke-linecap="round" stroke-linejoin="round" stroke-width="2"/><path data-name="stroke" fill="none" stroke="#2e4369" stroke-linecap="round" stroke-linejoin="round" stroke-width="2" d="M23.6 45l8.4 2.5 7.6-2.5M32 47.5v14M20 48.7l12 6.8L44 49m0 8.5v4m-12-54v3"/></svg>