<svg xmlns="http://www.w3.org/2000/svg" viewBox="0 0 64 64" aria-labelledby="title" aria-describedby="desc"><path data-name="layer2" fill="#202020" d="M46 54.9L36.1 62l3.8-11.5L30 44h12.2L46 32l3.8 12H62l-9.9 6.5L55.9 62 46 54.9z"/><path data-name="layer1" d="M27.8 47.3A4 4 0 0 1 30 40h4.4c-4-1.4-4.4-2.8-4.4-4v-2a61.1 61.1 0 0 0 11.8-2v-.2C38.6 28.7 36 27.5 36 14 36 2.3 28.8 1.2 22 2.4S12 8 12 14c0 13.7-2.7 14.7-6 18a61.4 61.4 0 0 0 12 2v2c0 1.6-.5 3.5-8.6 5.2A9.2 9.2 0 0 0 2 50h29.8z" fill="#202020"/></svg>