<svg xmlns="http://www.w3.org/2000/svg" viewBox="0 0 64 64" aria-labelledby="title" aria-describedby="desc"><path data-name="layer3" fill="#bfebf7" d="M30 11h32v48H30z"/><circle data-name="layer2" cx="42" cy="23" r="4" fill="#fff432"/><path data-name="layer1" d="M62 51.6c0-1.4-4.1-18.6-9.3-18.6s-7.1 12-8 12-2.3-4-5.8-4S30 49.8 30 51.6V59h32z" fill="#92d5b5"/><path data-name="stroke" fill="none" stroke="#2e4369" stroke-linecap="round" stroke-miterlimit="10" stroke-width="2" d="M10 5v54m20-48h32v48H30zm-12 2l-8-8-8 8" stroke-linejoin="round"/><circle data-name="stroke" cx="42" cy="23" r="4" fill="none" stroke="#2e4369" stroke-linecap="round" stroke-miterlimit="10" stroke-width="2" stroke-linejoin="round"/><path data-name="stroke" d="M30 51.6c0-1.9 4.4-10.7 8.9-10.7s4 4 5.8 4 3.1-12 8-12S62 50.1 62 51.6" fill="none" stroke="#2e4369" stroke-linecap="round" stroke-miterlimit="10" stroke-width="2" stroke-linejoin="round"/></svg>