<svg xmlns="http://www.w3.org/2000/svg" viewBox="0 0 64 64" aria-labelledby="title" aria-describedby="desc"><path data-name="layer2" fill="#bacae9" d="M2 2h12v12H2zm24 0h12v12H26zm24 0h12v12H50zM2 50h12v12H2z"/><path data-name="layer1" fill="#bae8ce" d="M26 50h12v12H26z"/><path data-name="layer3" fill="#e5baba" d="M50 50h12v12H50z"/><path data-name="layer2" fill="#bacae9" d="M2 25.988h12v12H2z"/><path data-name="layer1" fill="#bae8ce" d="M26 25.988h12v12H26zm24 0h12v12H50z"/><path data-name="stroke" fill="none" stroke="#2e4369" stroke-linecap="round" stroke-linejoin="round" stroke-width="2" d="M2 2h12v12H2zm24 0h12v12H26zm24 0h12v12H50zM2 50h12v12H2zm24 0h12v12H26zm24 0h12v12H50zM2 25.988h12v12H2zm24 0h12v12H26zm24 0h12v12H50z"/></svg>