<svg xmlns="http://www.w3.org/2000/svg" viewBox="0 0 64 64" aria-labelledby="title" aria-describedby="desc"><path data-name="layer1" d="M15 2A13 13 0 0 0 2 15v41h34V15A13 13 0 0 1 49 2z" fill="#9cf"/><path data-name="layer2" fill="#fff" d="M10 26h18v16H10z"/><path data-name="layer1" d="M62 56V15A13 13 0 0 0 49 2a13 13 0 0 0-13 13v41z" fill="#9cf"/><path data-name="opacity" d="M62 56V15A13 13 0 0 0 49 2a13 13 0 0 0-13 13v41z" fill="#000064" opacity=".15"/><path data-name="opacity" d="M49 2H15a13 13 0 0 0-12.4 9h34A13 13 0 0 1 49 2z" fill="#fff" opacity=".25"/><path data-name="stroke" fill="none" stroke="#2e4369" stroke-linecap="round" stroke-miterlimit="10" stroke-width="2" d="M62 56H2m24-38H12m-2 8h18v16H10zm26 36V15A13 13 0 0 1 49 2a13 13 0 0 1 13 13v47" stroke-linejoin="round"/><path data-name="stroke" d="M2 62V15A13 13 0 0 1 15 2h34" fill="none" stroke="#2e4369" stroke-linecap="round" stroke-miterlimit="10" stroke-width="2" stroke-linejoin="round"/></svg>