<svg xmlns="http://www.w3.org/2000/svg" viewBox="0 0 64 64" aria-labelledby="title" aria-describedby="desc"><path data-name="layer1" d="M37.1 4a2 2 0 1 0-2.8 2.8l22.9 22.9a2 2 0 1 0 2.8-2.8zm-1.4 7.1a2 2 0 0 0-2.9 2.9L50 31.2a2 2 0 0 0 2.8-2.8zm-1.5 7.2a2 2 0 1 0-2.8 2.8l4.3 4.3-14 14a5 5 0 0 0-5.4 1.1L2 54.9A5.1 5.1 0 1 0 9.1 62l14.4-14.3a5 5 0 0 0 1.1-5.4l14-14 4.3 4.3a2 2 0 0 0 2.8-2.8zM44.3 2.5a2 2 0 1 0-2.8 2.8l17.2 17.3a2 2 0 1 0 2.8-2.8zm18.6 10.1L51.4 1.1a2 2 0 1 0-2.8 2.8l11.5 11.5a2 2 0 1 0 2.8-2.8z" fill="#202020"/></svg>