<svg xmlns="http://www.w3.org/2000/svg" viewBox="0 0 64 64" aria-labelledby="title" aria-describedby="desc"><path data-name="layer1" d="M49.2 21.3C34.7 12 31.5 9.6 26.7 5.4S13.9.9 8.2 4.6c-8.3 5.6-10.8 30.7 8.9 47.7s35 8.1 41.2.9 5.4-22.6-9.1-31.9zm-35.8.1l-2 2a2 2 0 1 1-2.8-2.8l2-2a2 2 0 1 1 2.8 2.8zm8 20l-2 2a2 2 0 1 1-2.8-2.8l2-2a2 2 0 0 1 2.8 2.8zm0-8l-2 2a2 2 0 1 1-2.8-2.8l2-2a2 2 0 1 1 2.8 2.8zm6-8l-2 2a2 2 0 0 1-2.8-2.8l2-2a2 2 0 1 1 2.8 2.8zm8 26l-2 2a2 2 0 0 1-2.8-2.8l2-2a2 2 0 0 1 2.8 2.8zm0-12l-2 2a2 2 0 0 1-2.8-2.8l2-2a2 2 0 0 1 2.8 2.8zM44 46a2 2 0 0 1-1.4-3.4l2-2a2 2 0 0 1 2.8 2.8l-2 2a2 2 0 0 1-1.4.6zm7.4 5.4l-2 2a2 2 0 0 1-2.8-2.8l2-2a2 2 0 1 1 2.8 2.8z" fill="#202020"/></svg>