<svg xmlns="http://www.w3.org/2000/svg" viewBox="0 0 64 64" aria-labelledby="title" aria-describedby="desc"><path data-name="layer2" fill="none" stroke="#202020" stroke-linecap="round" stroke-linejoin="round" stroke-width="2" d="M35.9 35.5l5.7 5.7-5.7 5.7-5.6-5.7"/><path data-name="layer2" d="M62 38.9l-3.3-3.3a5 5 0 0 0-7.1 0 5.1 5.1 0 0 0 0 7.1l5.7 5.7a5.1 5.1 0 0 1 0 7.1 5 5 0 0 1-7.1 0L38.8 44" fill="none" stroke="#202020" stroke-linecap="round" stroke-linejoin="round" stroke-width="2"/><path data-name="layer1" d="M26 14.1l9.6 9.6a8.6 8.6 0 0 1 0 12l-5 5a8.4 8.4 0 0 1-12 0l-9.5-9.5m-2.3 2.3l21.5-21.7M11.9 28.4L2 18.4M23.2 17L13.3 7" fill="none" stroke="#202020" stroke-linecap="round" stroke-linejoin="round" stroke-width="2"/></svg>