<svg xmlns="http://www.w3.org/2000/svg" viewBox="0 0 64 64" aria-labelledby="title" aria-describedby="desc"><path data-name="layer2" d="M28 47c0-.223.026-.44.034-.661l-4.287 4.287A11.577 11.577 0 0 1 7.374 34.254L19.4 22.228l12.837 12.837a18.83 18.83 0 0 1 19.237-6.511l1.98-1.98A15.576 15.576 0 0 0 31.426 4.546l-26.88 26.88a15.576 15.576 0 0 0 22.028 22.028l1.98-1.98A18.922 18.922 0 0 1 28 47zm4.686-36.315l1.94-1.939a11.062 11.062 0 0 1 15.628 0 2 2 0 0 1-2.828 2.828 7.062 7.062 0 0 0-9.972 0l-1.94 1.94a2 2 0 1 1-2.828-2.83z" fill="#202020"/><path data-name="layer1" d="M47 30a17 17 0 1 0 17 17 17.019 17.019 0 0 0-17-17zm8.487 14.321l-8 9a2 2 0 0 1-1.437.671H46a2 2 0 0 1-1.415-.586l-5-5a2 2 0 1 1 2.83-2.828l3.5 3.5 6.585-7.413a2 2 0 0 1 2.99 2.656z" fill="#202020"/></svg>