<svg xmlns="http://www.w3.org/2000/svg" viewBox="0 0 64 64" aria-labelledby="title" aria-describedby="desc"><path data-name="layer1" d="M45.657 20L56.833 9.824a4 4 0 0 0-5.657-5.657L36.343 20" fill="none" stroke="#202020" stroke-linecap="round" stroke-miterlimit="10" stroke-width="2" stroke-linejoin="round"/><rect data-name="layer2" x="2" y="20" width="60" height="6" rx="2" ry="2" fill="none" stroke="#202020" stroke-linecap="round" stroke-miterlimit="10" stroke-width="2" stroke-linejoin="round"/><path data-name="layer2" d="M57 26v4a25.073 25.073 0 0 1-25 25A25.073 25.073 0 0 1 7 30v-4" fill="none" stroke="#202020" stroke-linecap="round" stroke-miterlimit="10" stroke-width="2" stroke-linejoin="round"/><path data-name="layer2" d="M23.495 53.5a25.14 25.14 0 0 0-8.947 5.649.5.5 0 0 0 .359.851h34.187a.5.5 0 0 0 .359-.851 25.14 25.14 0 0 0-8.948-5.649" fill="none" stroke="#202020" stroke-linecap="round" stroke-miterlimit="10" stroke-width="2" stroke-linejoin="round"/><circle data-name="layer1" cx="32" cy="39" r="9" fill="none" stroke="#202020" stroke-linecap="round" stroke-miterlimit="10" stroke-width="2" stroke-linejoin="round"/><path data-name="layer1" fill="none" stroke="#202020" stroke-linecap="round" stroke-miterlimit="10" stroke-width="2" d="M32 34v10m-5-5h10" stroke-linejoin="round"/></svg>