<svg xmlns="http://www.w3.org/2000/svg" viewBox="0 0 64 64" aria-labelledby="title" aria-describedby="desc"><circle data-name="layer2" cx="31" cy="32" r="30" fill="#b3c5e5"/><path data-name="opacity" d="M31 2A29.9 29.9 0 0 0 7.9 12.9a30 30 0 0 1 42.2 42.2A30 30 0 0 0 31 2z" fill="#fff" opacity=".25"/><path data-name="layer1" fill="#fff" d="M35 27.9l10-6.8v21.8l-10-6.8v6.8L19 32v-.1l16-10.8v6.8z"/><path data-name="opacity" fill="#000064" opacity=".16" d="M35 21.1L19 31.9v.1l2.9 2L35 25.1v-4zm0 10.8l10-6.8v-4l-10 6.8v4z"/><path data-name="stroke" fill="none" stroke="#2e4369" stroke-linecap="round" stroke-miterlimit="10" stroke-width="2" d="M35 27.9l10-6.8v21.8l-10-6.8v6.8L19 32v-.1l16-10.8v6.8z" stroke-linejoin="round"/><circle data-name="stroke" cx="31" cy="32" r="30" fill="none" stroke="#2e4369" stroke-linecap="round" stroke-miterlimit="10" stroke-width="2" stroke-linejoin="round"/><path data-name="stroke" fill="none" stroke="#2e4369" stroke-linecap="round" stroke-miterlimit="10" stroke-width="2" d="M17 20v24" stroke-linejoin="round"/></svg>