<svg xmlns="http://www.w3.org/2000/svg" viewBox="0 0 64 64" aria-labelledby="title" aria-describedby="desc"><path data-name="layer4" fill="#c0cfe9" d="M14 46H2V20h60v26H50"/><path data-name="layer3" fill="#fff" d="M14 20V4h36v16"/><path data-name="opacity" fill="#000064" opacity=".14" d="M14 20V4h36v16"/><path data-name="layer3" fill="#fff" d="M14 36h36v24H14z"/><circle data-name="layer2" cx="10" cy="28" r="2" fill="#44d88d"/><path data-name="layer1" fill="#a5d0ec" d="M14 36h36v4H14z"/><path data-name="opacity" fill="#000064" opacity=".14" d="M14 36l-6 6H6V20H2v26h12V36z"/><path data-name="stroke" fill="none" stroke="#2e4369" stroke-linecap="round" stroke-linejoin="round" stroke-width="2" d="M14 46H2V20h60v26H50M14 20V4h36v16"/><path data-name="stroke" fill="none" stroke="#2e4369" stroke-linecap="round" stroke-linejoin="round" stroke-width="2" d="M14 36h36v24H14zm36-8h4M22 44h20m-20 8h20"/><circle data-name="stroke" cx="10" cy="28" r="2" fill="none" stroke="#2e4369" stroke-linecap="round" stroke-linejoin="round" stroke-width="2"/></svg>