<svg xmlns="http://www.w3.org/2000/svg" viewBox="0 0 64 64" aria-labelledby="title" aria-describedby="desc"><path data-name="layer2" d="M44 41V31a6 6 0 0 1 10-4.5V15H22V9H2v40.3A1.7 1.7 0 0 0 3.7 51H38V41z" fill="#f8da82"/><path data-name="opacity" d="M33 48H7.7A1.7 1.7 0 0 1 6 46.3V9H2v40.3A1.7 1.7 0 0 0 3.7 51H38v-8h-5zm12-21a6 6 0 0 0-6 6v8h5V31a6 6 0 0 1 1.5-4z" fill="#000064" opacity=".15"/><path data-name="layer1" fill="#9cf" d="M38 41h24v16H38z"/><path data-name="stroke" d="M54 26.5V15H22V9H2v40.3A1.7 1.7 0 0 0 3.7 51H38" fill="none" stroke="#2e4369" stroke-linecap="round" stroke-miterlimit="10" stroke-width="2" stroke-linejoin="round"/><path data-name="stroke" fill="none" stroke="#2e4369" stroke-linecap="round" stroke-miterlimit="10" stroke-width="2" d="M38 41h24v16H38zm6 0V31a6 6 0 0 1 6-6 6 6 0 0 1 6 6v10m-6 6v4" stroke-linejoin="round"/></svg>