<svg xmlns="http://www.w3.org/2000/svg" viewBox="0 0 64 64" aria-labelledby="title" aria-describedby="desc"><path data-name="layer2" d="M12.4 58l-2.9-2.8 2.8-2.8 2.8 2.8a2 2 0 1 0 2.9-2.9l-2.8-2.8 18.7-18.7L31 28 5.3 53.8a2 2 0 0 0 0 2.8l4.2 4.2a2 2 0 1 0 2.9-2.8z" fill="none" stroke="#202020" stroke-miterlimit="10" stroke-width="2" stroke-linejoin="round" stroke-linecap="round"/><circle data-name="layer1" cx="51.8" cy="10.1" r="3.5" transform="rotate(-45 51.801 10.143)" fill="none" stroke="#202020" stroke-miterlimit="10" stroke-width="2" stroke-linejoin="round" stroke-linecap="round"/><circle data-name="layer1" cx="37.3" cy="14" r="3.5" transform="rotate(-45 37.367 13.922)" fill="none" stroke="#202020" stroke-miterlimit="10" stroke-width="2" stroke-linejoin="round" stroke-linecap="round"/><circle data-name="layer1" cx="47.9" cy="24.6" r="3.5" transform="rotate(-45 47.962 24.533)" fill="none" stroke="#202020" stroke-miterlimit="10" stroke-width="2" stroke-linejoin="round" stroke-linecap="round"/><path data-name="layer1" d="M53.2 19.3a7.5 7.5 0 0 0-3.1-1.9 7.5 7.5 0 1 0-5.7-5.7A7.5 7.5 0 1 0 32 19.3l1.3 1-.6.6-4.4 4.4 8.3 8.3 4.7-4.7.3-.3 1 1.3a7.5 7.5 0 0 0 10.6-10.6z" fill="none" stroke="#202020" stroke-miterlimit="10" stroke-width="2" stroke-linejoin="round" stroke-linecap="round"/></svg>