<svg xmlns="http://www.w3.org/2000/svg" viewBox="0 0 64 64" aria-labelledby="title" aria-describedby="desc"><path data-name="layer2" d="M44 6H16v14a4 4 0 0 0 4 4h24a4 4 0 0 0 4-4V6zM24 24v8m16-8v8" fill="none" stroke="#202020" stroke-miterlimit="10" stroke-width="2" stroke-linejoin="round" stroke-linecap="round"/><path data-name="layer1" fill="none" stroke="#202020" stroke-miterlimit="10" stroke-width="2" d="M22 32h20v26H22zm0 24H10a8 8 0 0 1-8-8v-4a8 8 0 0 1 8-8h12m20 0h12a8 8 0 0 1 8 8v4a8 8 0 0 1-8 8H42" stroke-linejoin="round" stroke-linecap="round"/><path data-name="layer1" fill="none" stroke="#202020" stroke-miterlimit="10" stroke-width="2" d="M28 48l4-8 4 8" stroke-linejoin="round" stroke-linecap="round"/><circle data-name="layer1" cx="12" cy="46" r="4" fill="none" stroke="#202020" stroke-miterlimit="10" stroke-width="2" stroke-linejoin="round" stroke-linecap="round"/><path data-name="layer1" fill="none" stroke="#202020" stroke-miterlimit="10" stroke-width="2" d="M50 46h4" stroke-linejoin="round" stroke-linecap="round"/></svg>