<svg xmlns="http://www.w3.org/2000/svg" viewBox="0 0 64 64" aria-labelledby="title" aria-describedby="desc"><path data-name="layer3" d="M42 56h12a8 8 0 0 0 8-8v-4a8 8 0 0 0-8-8H42zm-20 0H10a8 8 0 0 1-8-8v-4a8 8 0 0 1 8-8h12z" fill="#99afbf"/><path data-name="layer1" d="M44 6H16v14a4 4 0 0 0 4 4h24a4 4 0 0 0 4-4V6zM22 32h20v26H22z" fill="#778399"/><circle data-name="layer2" cx="12" cy="46" r="4" fill="#c3d6e0"/><path data-name="layer1" fill="#778399" d="M24 24h16v8H24z"/><path data-name="opacity" fill="#000064" opacity=".25" d="M24 24h16v8H24z"/><path data-name="opacity" fill="#fff" opacity=".4" d="M33 6h9v18h-9z"/><path data-name="stroke" d="M44 6H16v14a4 4 0 0 0 4 4h24a4 4 0 0 0 4-4V6zM24 24v8m16-8v8m-18 0h20v26H22zm0 24H10a8 8 0 0 1-8-8v-4a8 8 0 0 1 8-8h12m20 0h12a8 8 0 0 1 8 8v4a8 8 0 0 1-8 8H42" fill="none" stroke="#2e4369" stroke-linecap="round" stroke-miterlimit="10" stroke-width="2" stroke-linejoin="round"/><path data-name="stroke" fill="none" stroke="#2e4369" stroke-linecap="round" stroke-miterlimit="10" stroke-width="2" d="M28 48l4-8 4 8" stroke-linejoin="round"/><circle data-name="stroke" cx="12" cy="46" r="4" fill="none" stroke="#2e4369" stroke-linecap="round" stroke-miterlimit="10" stroke-width="2" stroke-linejoin="round"/><path data-name="stroke" fill="none" stroke="#2e4369" stroke-linecap="round" stroke-miterlimit="10" stroke-width="2" d="M50 46h4" stroke-linejoin="round"/></svg>