<svg xmlns="http://www.w3.org/2000/svg" viewBox="0 0 64 64" aria-labelledby="title" aria-describedby="desc"><rect data-name="layer2" x="12" y="12" width="40" height="40" rx="2" ry="2" fill="#7b8baf"/><rect data-name="layer1" x="20" y="20" width="24" height="24" rx="2" ry="2" fill="#8fa9d8"/><path data-name="opacity" d="M22 44a2 2 0 0 1-2-2V23h-1a2 2 0 0 0-2 2v20a2 2 0 0 0 2 2h20a2 2 0 0 0 2-2v-1z" fill="#000064" opacity=".14"/><rect data-name="stroke" x="12" y="12" width="40" height="40" rx="2" ry="2" fill="none" stroke="#2e4369" stroke-linecap="round" stroke-linejoin="round" stroke-width="2"/><path data-name="stroke" fill="none" stroke="#2e4369" stroke-linecap="round" stroke-linejoin="round" stroke-width="2" d="M32 12V2M22 12V2m20 10V2M22 62V52m20 10V52M32 62V52m20-20h10M52 22h10M52 42h10M2 22h10M2 42h10M2 32h10"/><rect data-name="stroke" x="20" y="20" width="24" height="24" rx="2" ry="2" fill="none" stroke="#2e4369" stroke-linecap="round" stroke-linejoin="round" stroke-width="2"/></svg>