<svg xmlns="http://www.w3.org/2000/svg" viewBox="0 0 64 64" aria-labelledby="title" aria-describedby="desc"><path data-name="layer1" d="M62 34a2 2 0 0 0 0-4H52v-6h10a2 2 0 0 0 0-4H52v-6a2 2 0 0 0-2-2h-6V2a2 2 0 1 0-4 0v10h-6V2a2 2 0 1 0-4 0v10h-6V2a2 2 0 1 0-4 0v10h-6a2 2 0 0 0-2 2v6H2a2 2 0 0 0 0 4h10v6H2a2 2 0 0 0 0 4h10v6H2a2 2 0 0 0 0 4h10v6a2 2 0 0 0 2 2h6v10a2 2 0 1 0 4 0V52h6v10a2 2 0 1 0 4 0V52h6v10a2 2 0 1 0 4 0V52h6a2 2 0 0 0 2-2v-6h10a2 2 0 0 0 0-4H52v-6zm-18 8a2 2 0 0 1-2 2H22a2 2 0 0 1-2-2V22a2 2 0 0 1 2-2h20a2 2 0 0 1 2 2z" fill="#202020"/></svg>