<svg xmlns="http://www.w3.org/2000/svg" viewBox="0 0 64 64" aria-labelledby="title" aria-describedby="desc"><path data-name="layer2" d="M44 30V18H28V2H4v54h27.5A16 16 0 0 1 44 30z" fill="#ebf5ff"/><path data-name="layer1" fill="#fff" d="M44 18L28 2v16h16z"/><path data-name="opacity" fill="#000064" opacity=".15" d="M24 2v21h20v-5H28V2h-4z"/><circle data-name="layer1" cx="44" cy="46" r="16" fill="#fff"/><path data-name="opacity" d="M28 46a16 16 0 0 1 7.7-13.7A16 16 0 0 0 25.2 56h6.4A15.9 15.9 0 0 1 28 46z" fill="#000064" opacity=".15"/><path data-name="stroke" fill="none" stroke="#2e4369" stroke-linecap="round" stroke-miterlimit="10" stroke-width="2" d="M31.5 56H4V2h24l16 16v12" stroke-linejoin="round"/><path data-name="stroke" fill="none" stroke="#2e4369" stroke-linecap="round" stroke-miterlimit="10" stroke-width="2" d="M28 2v16h16" stroke-linejoin="round"/><circle data-name="stroke" cx="44" cy="46" r="16" fill="none" stroke="#2e4369" stroke-linecap="round" stroke-miterlimit="10" stroke-width="2" stroke-linejoin="round"/><path data-name="stroke" fill="none" stroke="#2e4369" stroke-linecap="round" stroke-miterlimit="10" stroke-width="2" d="M55.3 34.7L32.7 57.3" stroke-linejoin="round"/></svg>