<svg viewBox="0 0 64 64" xmlns="http://www.w3.org/2000/svg" aria-labelledby="title" aria-describedby="desc"><path fill="#202020" d="M22 36.739C22 39.33 18.058 39 18.058 37c0-8.539 2.342-15.767 6.042-20-.03 0-.059-.007-.089-.007-6.621 0-11.987 8.954-11.987 20s5.366 20 11.987 20A15.407 15.407 0 0 0 29 56.068C39.815 61.324 42 43.5 42 37c0-9-5.206-23.777-13.217-18.932C23.937 21 22 31.041 22 36.739z" data-name="layer1"/><path fill="#202020" d="M35.442 13.642A31.523 31.523 0 0 1 34 7h-4a16.977 16.977 0 0 1-1.781 6.847c1.156-.363 4.51-1.147 7.223-.205z" data-name="layer2"/><path fill="#202020" d="M14.828 17.217C7.581 18.581 2 26.9 2 37s5.581 18.415 12.828 19.779C10.678 52.487 8 45.3 8 37s2.678-15.491 6.828-19.783zm28.246.455A7.552 7.552 0 0 0 40.036 17h-.028c3.7 4.228 6.05 11.457 6.05 20s-2.346 15.771-6.05 20h.028c6.621 0 11.987-8.954 11.987-20 0-2.758 3.976-2.492 3.976 0 0 8.3-2.674 15.488-6.825 19.781C56.42 55.413 62 47.09 62 37c0-10.208-5.643-22.615-18.926-19.328z" data-name="layer1"/></svg>