<svg xmlns="http://www.w3.org/2000/svg" viewBox="0 0 64 64" aria-labelledby="title" aria-describedby="desc"><path data-name="layer1" d="M51.2 21.2c-2.9-2.9.5-5.4 2.5-5.4a6 6 0 1 0-5.7-5.7c0 2-2.5 5.4-5.4 2.5L32 2 21.4 12.6c-2.9 2.9.5 5.4 2.5 5.4a6.1 6.1 0 1 1-5.7 5.7c0-2-2.5-5.4-5.4-2.5L2 32l10.8 10.8c2.9 2.9-.5 5.4-2.5 5.4a6.1 6.1 0 1 0 3.9 10.3 6 6 0 0 0 1.8-4.6c0-2 2.5-5.4 5.4-2.5L32 62l10.8-10.8c2.9-2.9-.5-5.4-2.5-5.4a6 6 0 1 1 5.7-5.7c0 2 2.5 5.4 5.4 2.5L62 32z" fill="#a5d0ec"/><path d="M58.3 14a6 6 0 0 0 .9-1.1 6.1 6.1 0 0 1-3.5.9 4 4 0 0 0-3.5 2.4 3.6 3.6 0 0 1 1.5-.4 6 6 0 0 0 4.6-1.8zm-34.4 4a6 6 0 0 1 5.5 9.2l1.1-.9A6.1 6.1 0 0 0 25.9 16c-2 0-5.4-2.5-2.5-5.4l-2 2c-2.9 2.9.5 5.4 2.5 5.4zm23.7-6.4A4 4 0 0 0 50 8.1a6 6 0 0 1 .9-3.5l-1.1.9a6 6 0 0 0-1.8 4.6 3.7 3.7 0 0 1-.4 1.5zM13.8 45.9c1.7-.8 3.3-2.8 1-5L4 30l-2 2 10.8 10.8a2.8 2.8 0 0 1 1 3.1zM7.7 56.5a6.1 6.1 0 0 1-.9-7.5l-1.1 1a6.1 6.1 0 1 0 8.6 8.6l.9-1.1a6 6 0 0 1-7.5-1zM48 38.1a6 6 0 0 0-11.2-3.5 6 6 0 0 1 9.2 5.5c0 2 2.5 5.4 5.4 2.5l2-2c-2.9 2.9-5.4-.5-5.4-2.5zM34 60L23.4 49.4c-2.2-2.2-4.2-.7-5 1a2.8 2.8 0 0 1 3 1L32 62l10.8-10.8z" fill="#000064" opacity=".15"/><path data-name="stroke" d="M51.2 21.2c-2.9-2.9.5-5.4 2.5-5.4a6 6 0 1 0-5.7-5.7c0 2-2.5 5.4-5.4 2.5L32 2 21.4 12.6c-2.9 2.9.5 5.4 2.5 5.4a6.1 6.1 0 1 1-5.7 5.7c0-2-2.5-5.4-5.4-2.5L2 32l10.8 10.8c2.9 2.9-.5 5.4-2.5 5.4a6.1 6.1 0 1 0 3.9 10.3 6 6 0 0 0 1.8-4.6c0-2 2.5-5.4 5.4-2.5L32 62l10.8-10.8c2.9-2.9-.5-5.4-2.5-5.4a6 6 0 1 1 5.7-5.7c0 2 2.5 5.4 5.4 2.5L62 32z" fill="none" stroke="#2e4369" stroke-linecap="round" stroke-linejoin="round" stroke-width="2"/></svg>