<svg xmlns="http://www.w3.org/2000/svg" viewBox="0 0 64 64" aria-labelledby="title" aria-describedby="desc"><path data-name="layer1" d="M51 21.3c-2.8-2.8.5-5.3 2.5-5.3a6 6 0 1 0-5.6-5.6c0 2-2.5 5.3-5.3 2.5L32 2.3 21.5 12.8c-2.8 2.8.5 5.3 2.5 5.3a5.9 5.9 0 0 1 4.6 1.7 6 6 0 1 1-10.2 3.9c0-2-2.5-5.3-5.3-2.5L2.3 32 13 42.7c2.8 2.8-.5 5.3-2.5 5.3a6 6 0 1 0 3.9 10.2 5.9 5.9 0 0 0 1.7-4.6c0-2 2.5-5.3 5.3-2.5L32 61.7 42.7 51c2.8-2.8-.5-5.3-2.5-5.3a6 6 0 1 1 5.7-5.7c0 2 2.5 5.3 5.3 2.5L61.7 32z" fill="#202020"/></svg>