<svg viewBox="0 0 64 64" xmlns="http://www.w3.org/2000/svg" aria-labelledby="title" aria-describedby="desc"><path d="M30.998 3.734L35.6 1.12l3.136 4.261 5.266-.518 1.137 5.166 5.017 1.671-1.064 5.18L53 20.447l-3.082 4.302 2.119 4.847-4.562 2.675-.036 5.289-5.257.591-2.188 4.817-5.039-1.601-3.957 3.516-3.953-3.516-5.043 1.601-2.186-4.817-5.259-.591-.032-5.289-4.566-2.675 2.121-4.847L9 20.447l3.904-3.567-1.062-5.18 5.019-1.671 1.135-5.166 5.266.518L26.4 1.12l4.598 2.614z" fill="#f27e7c" data-name="layer2"/><path fill="#f27e7c" d="M39.994 42.968l-5.039-1.6L31 44.881V55l16 6-2.825-22.953-.016-.011a.779.779 0 0 1-.918 0l-1.059.119z" data-name="layer2"/><path fill="#ec4744" d="M31 44.883l-3.953-3.516L22 42.968l-2.185-4.816L18.471 38c-.222.184-.407.232-.547.111l-.008.015L15 61l16-6V44.881z" data-name="layer1"/><circle fill="#ec4744" r="12" cy="23.001" cx="31.002" data-name="layer1"/><path opacity=".15" fill="#fff" d="M30.411 13.1c-1.062.239-1.251 1.06 1.589 3.9 5.868 5.868 3.588 15.806 6.031 13.27a10.984 10.984 0 0 0-7.62-17.17z" data-name="opacity"/><path opacity=".15" fill="#000064" d="M38 43l-3-2-4 3a8.76 8.76 0 0 1-2-6c9 0 11-7 11-7a17.525 17.525 0 0 1-10 1c-9-1-11-12-8-17a14.165 14.165 0 0 0-6 11l-4-5 3-5s-2.077-3.465-2.192-4.622l-.966.322 1.058 5.18L9 20.447l3.08 4.3L9.959 29.6l4.567 2.676.031 5.289 3.914.44c-.221.184-.407.232-.547.111l-.008.015-.883 6.924L19 48l5-2 3 3 6-3 4 2 4-4 4 1-.983-6.88a.872.872 0 0 1-.776-.088l.287-.032H42z" data-name="opacity"/><path d="M18.016 37.949L14.998 61l16-6.001L47.002 61l-2.887-23.051m-13.113 6.934v10.116" stroke-width="2" stroke-linejoin="round" stroke-linecap="round" stroke="#2e4369" fill="none" data-name="stroke"/><circle stroke-width="2" stroke-linejoin="round" stroke-linecap="round" stroke="#2e4369" fill="none" r="12" cy="23.001" cx="31.002" data-name="stroke"/><path d="M30.998 3.734L35.6 1.12l3.136 4.261 5.266-.518 1.137 5.166 5.017 1.671-1.064 5.18L53 20.447l-3.082 4.302 2.119 4.847-4.562 2.675-.036 5.289-5.257.591-2.188 4.817-5.039-1.601-3.957 3.516-3.953-3.516-5.043 1.601-2.186-4.817-5.259-.591-.032-5.289-4.566-2.675 2.121-4.847L9 20.447l3.904-3.567-1.062-5.18 5.019-1.671 1.135-5.166 5.266.518L26.4 1.12l4.598 2.614z" stroke-width="2" stroke-linejoin="round" stroke-linecap="round" stroke="#2e4369" fill="none" data-name="stroke"/></svg>