<svg xmlns="http://www.w3.org/2000/svg" viewBox="0 0 64 64" aria-labelledby="title" aria-describedby="desc"><path data-name="layer2" d="M40 37L18 22H2v38h48V29.014A34.125 34.125 0 0 0 40 28z" fill="#f3f8ff"/><path data-name="layer1" d="M62 40c0-7.416 0-24-22-24V7L18 22l22 15v-9a34.125 34.125 0 0 1 10 1.014c4.257 1.297 8.18 4.25 12 10.986z" fill="#5ade9c"/><path data-name="opacity" opacity=".15" d="M36 41v-6.727L18.934 22.636 14 26l22 15zm4-13v4.076a24.626 24.626 0 0 1 6 .938 16.25 16.25 0 0 1 4 1.832v-5.832A34.125 34.125 0 0 0 40 28z"/><path data-name="stroke" d="M40 16V7L18 22l22 15v-9c8.447.002 15.379.324 22 12 0-7.416 0-24-22-24z" fill="none" stroke="#2e4369" stroke-linecap="round" stroke-linejoin="round" stroke-width="2"/><path data-name="stroke" fill="none" stroke="#2e4369" stroke-linecap="round" stroke-linejoin="round" stroke-width="2" d="M18 22H2v38h48V29"/></svg>