<svg xmlns="http://www.w3.org/2000/svg" viewBox="0 0 64 64" aria-labelledby="title" aria-describedby="desc"><path data-name="layer1" d="M57.485 50.215s-.313 4.594-4.485 4.594c-3.225 0-5.428-2.46-7.491-5.655a28.168 28.168 0 0 0 9.579-21.283c0-15.4-12.107-27.877-27.042-27.877S1 12.476 1 27.872s12.107 27.877 27.042 27.877a26.286 26.286 0 0 0 7.8-1.178c3.123 4.961 7.088 9.423 13.3 9.423 12.633 0 13.156-13.779 13.156-13.779h-4.8zm-29.444.94c-8.707 0-15.766-10.425-15.766-23.284s7.06-23.283 15.767-23.283 15.765 10.425 15.765 23.284A31.167 31.167 0 0 1 40.8 41.553c-2.137-3.051-4.7-5.65-8.372-6.477A17.468 17.468 0 0 0 18.541 38l1.67 3.445s1.689-.971 5.876 0c2.639.611 4.689 4.273 7.039 8.474a11.253 11.253 0 0 1-5.084 1.238zm0 0" fill="#cf2217"/></svg>