<svg xmlns="http://www.w3.org/2000/svg" viewBox="0 0 64 64" aria-labelledby="title" aria-describedby="desc"><path data-name="layer1" d="M63.917 25.2a1.442 1.442 0 0 0-1.1-.9L42.2 22.4 33.3 2.8a1.3 1.3 0 0 0-2.4 0L21.692 22 1.179 24.3a1.172 1.172 0 0 0-1.1.9 1.281 1.281 0 0 0 .4 1.4l15.109 13.9-3.7 20.9a1.552 1.552 0 0 0 .5 1.4 1.079 1.079 0 0 0 .8.2 1.856 1.856 0 0 0 .7-.2L32.3 52.2l18.109 10.7a2 2 0 0 0 1.5-.2 1.3 1.3 0 0 0 .5-1.3l-2.7-15.5a13.217 13.217 0 0 0 4-2.6 23.5 23.5 0 0 1-4.3 1.3c-12.207 2.3-30.819.4-31.519.3l20.51-15c-6.9-1.3-23.014-1.8-24.015-1.8.8-.1 21.813-3.6 34.021-.1L27.6 42.5s15.91 1.5 21.513.9l-.4-2.9 15.004-13.9a1.642 1.642 0 0 0 .2-1.4z" fill="#202020"/></svg>