<svg xmlns="http://www.w3.org/2000/svg" viewBox="0 0 64 64" aria-labelledby="title" aria-describedby="desc"><circle data-name="layer3" cx="32" cy="32" r="30" fill="#e0eafc"/><circle data-name="layer2" cx="32" cy="32" r="4" fill="#fc6"/><path data-name="opacity" d="M28 32a4 4 0 0 1 .4-1.6 4 4 0 1 0 5.3 5.3A4 4 0 0 1 28 32z" fill="#000032" opacity=".2"/><circle data-name="layer1" cx="56" cy="32" r="6" fill="#f26161"/><path data-name="opacity" d="M50 32a6 6 0 0 1 .5-2.5 6 6 0 1 0 7.9 7.9A6 6 0 0 1 50 32z" fill="#000032" opacity=".2"/><path data-name="stroke" d="M53.2 53.2A30 30 0 1 1 57.4 16m-14 27.4a16.2 16.2 0 1 1 .4-22.4" fill="none" stroke="#2e4369" stroke-linecap="round" stroke-linejoin="round" stroke-width="2"/><circle data-name="stroke" cx="32" cy="32" r="4" fill="none" stroke="#2e4369" stroke-linecap="round" stroke-linejoin="round" stroke-width="2"/><circle data-name="stroke" cx="56" cy="32" r="6" fill="none" stroke="#2e4369" stroke-linecap="round" stroke-linejoin="round" stroke-width="2"/><path data-name="stroke" fill="none" stroke="#2e4369" stroke-linecap="round" stroke-linejoin="round" stroke-width="2" d="M34.8 34.8l18.4 18.4"/></svg>