<svg xmlns="http://www.w3.org/2000/svg" viewBox="0 0 64 64" aria-labelledby="title" aria-describedby="desc"><path data-name="layer2" d="M32 38a6 6 0 0 0 6-6v-.2L60.7 23a2 2 0 0 0 1.1-2.6A32.2 32.2 0 0 0 32 0a2 2 0 0 0-2 2v24.3A6 6 0 0 0 32 38z" fill="#202020"/><path data-name="layer1" d="M25 19.9a2 2 0 0 0-2-3.5 18 18 0 1 0 27 17 2 2 0 1 0-4-.3 14 14 0 1 1-21-13.2z" fill="#202020"/><path data-name="layer1" d="M63.9 29.3a2 2 0 1 0-4 .3c.1.8.1 1.6.1 2.4A28 28 0 1 1 24.5 5a2 2 0 0 0-1.1-3.9A32 32 0 1 0 64 32c0-.9 0-1.8-.1-2.7z" fill="#202020"/></svg>