<svg xmlns="http://www.w3.org/2000/svg" viewBox="0 0 64 64" aria-labelledby="title" aria-describedby="desc"><path data-name="layer1" d="M59 17H14L42.7 6.9a2 2 0 0 0-1.3-3.8l-34 12A2 2 0 0 0 6 17H5a3 3 0 0 0-3 3v38a3 3 0 0 0 3 3h54a3 3 0 0 0 3-3V20a3 3 0 0 0-3-3zM34.6 29.6a2.1 2.1 0 0 1 2.8 0 2 2 0 0 1-2.8 2.8 2 2 0 0 1 0-2.8zM14 31a2 2 0 1 1-4 0 2 2 0 0 1 .6-1.4 2.1 2.1 0 0 1 2.8 0A2 2 0 0 1 14 31zm-5.4 9.4a2 2 0 0 1 0-2.8 2.1 2.1 0 0 1 2.8 0 2 2 0 0 1 0 2.8 2 2 0 0 1-2.8 0zm5.8 9a2 2 0 0 1-1.4.6 2 2 0 0 1-2-2 2 2 0 0 1 .6-1.4 2.1 2.1 0 0 1 2.8 0 2 2 0 0 1 0 2.8zM15 27a2 2 0 0 1 .6-1.4 2.1 2.1 0 0 1 2.8 0 2 2 0 0 1 0 2.8 2 2 0 0 1-1.4.6 2 2 0 0 1-2-2zm4.4 25.4a2 2 0 0 1-2.8-2.8 2.1 2.1 0 0 1 2.8 0 2 2 0 0 1 0 2.8zm0-8a2 2 0 0 1-2.8-2.8 2.1 2.1 0 0 1 2.8 0 2 2 0 0 1 0 2.8zm0-8a2 2 0 0 1-2.8-2.8 2.1 2.1 0 0 1 2.8 0 2 2 0 0 1 0 2.8zm6 18a2 2 0 0 1-1.4.6 2.1 2.1 0 0 1-1.4-.6 2 2 0 0 1 0-2.8 2.1 2.1 0 0 1 2.8 0 2 2 0 0 1 0 2.8zm0-7a2 2 0 0 1-1.4.6 2 2 0 0 1-1.4-3.4 2.1 2.1 0 0 1 2.8 0 2 2 0 0 1 0 2.8zm0-7a2 2 0 0 1-1.4.6 2 2 0 0 1-1.4-.6 2 2 0 0 1 0-2.8 2.1 2.1 0 0 1 2.8 0 2 2 0 0 1 0 2.8zm0-7a2 2 0 0 1-1.4.6 2.1 2.1 0 0 1-1.4-.6 2 2 0 0 1 0-2.8 2.1 2.1 0 0 1 2.8 0 2 2 0 0 1 0 2.8zm0-7a2 2 0 0 1-1.4.6 2 2 0 0 1-2-2 2 2 0 0 1 .6-1.4 2.1 2.1 0 0 1 2.8 0 2 2 0 0 1 0 2.8zm6 26a2 2 0 0 1-1.4.6 2 2 0 0 1-1.4-3.4 2.1 2.1 0 0 1 2.8 0A2 2 0 0 1 32 51a2.1 2.1 0 0 1-.6 1.4zm0-8a2 2 0 0 1-1.4.6 2 2 0 0 1-1.4-3.4 2.1 2.1 0 0 1 2.8 0 2 2 0 0 1 0 2.8zm0-8a2 2 0 0 1-1.4.6 2.1 2.1 0 0 1-1.4-.6 2 2 0 0 1 0-2.8 2.1 2.1 0 0 1 2.8 0 2 2 0 0 1 0 2.8zM31 29a2 2 0 0 1-1.4-3.4 2.1 2.1 0 0 1 2.8 0A2 2 0 0 1 31 29zm5.4 20.4a2 2 0 0 1-1.4.6 2.1 2.1 0 0 1-1.4-.6 2 2 0 0 1 0-2.8 2.1 2.1 0 0 1 2.8 0 2 2 0 0 1 0 2.8zm3-9a2 2 0 0 1-1.4.6 2 2 0 0 1-2-2 2 2 0 0 1 .6-1.4 2.1 2.1 0 0 1 2.8 0 2 2 0 0 1 0 2.8zM50 50a5 5 0 1 1 5-5 5 5 0 0 1-5 5zm0-16a5 5 0 1 1 5-5 5 5 0 0 1-5 5z" fill="#202020"/></svg>