<svg xmlns="http://www.w3.org/2000/svg" viewBox="0 0 64 64" aria-labelledby="title" aria-describedby="desc"><circle data-name="layer1" cx="33" cy="32" r="8" fill="#9cf"/><path data-name="layer1" d="M33 46c-6.6 0-12 7.2-12 16h24c0-8.8-5.4-16-12-16z" fill="#9cf"/><path data-name="opacity" d="M33 40a8 8 0 0 0 7-4 8 8 0 0 1-11-11 8 8 0 0 0 4 15zm2.5 6.4A9.2 9.2 0 0 0 33 46c-6.6 0-12 7.2-12 16h5c0-7.7 4.1-14.1 9.5-15.6z" fill="#000064" opacity=".14"/><circle data-name="stroke" cx="33" cy="32" r="8" fill="none" stroke="#2e4369" stroke-linecap="round" stroke-miterlimit="10" stroke-width="2" stroke-linejoin="round"/><path data-name="stroke" d="M18.9 46.1a20 20 0 1 1 28.3 0m-35.4 7.1a30 30 0 1 1 42.4 0" fill="none" stroke="#2e4369" stroke-linecap="round" stroke-miterlimit="10" stroke-width="2" stroke-linejoin="round"/><path data-name="stroke" d="M33 46c-6.6 0-12 7.2-12 16h24c0-8.8-5.4-16-12-16z" fill="none" stroke="#2e4369" stroke-linecap="round" stroke-miterlimit="10" stroke-width="2" stroke-linejoin="round"/></svg>