<svg xmlns="http://www.w3.org/2000/svg" viewBox="0 0 64 64" aria-labelledby="title" aria-describedby="desc"><path data-name="layer1" d="M62 49.002l-9.879 10.12a3 3 0 0 1-4.242-4.244L50.758 52H44.43a13.965 13.965 0 0 1-10.795-5.085c-.022-.027-.035-.059-.057-.086-.018-.021-.04-.037-.057-.06l-6.804-9.344-.012-.022-.013-.014A8.277 8.277 0 0 0 20 34H5a3 3 0 0 1 0-6h15a8.276 8.276 0 0 0 6.692-3.39l.014-.016.011-.019 6.805-9.345c.019-.026.043-.044.063-.07.018-.024.03-.051.05-.075A13.962 13.962 0 0 1 44.43 10h6.327l-2.878-2.878a3 3 0 0 1 4.242-4.243L62 13l-9.879 10.121a3 3 0 1 1-4.242-4.242L50.759 16h-6.33a7.98 7.98 0 0 0-6.135 2.87l-6.726 9.237c-.008.01-.018.017-.025.027A13.622 13.622 0 0 1 28.727 31a13.594 13.594 0 0 1 2.807 2.854c.01.014.024.024.034.039l6.726 9.236A7.98 7.98 0 0 0 44.43 46h6.327l-2.879-2.879a3 3 0 0 1 4.244-4.242z" fill="#bacae9"/><path data-name="stroke" d="M62 49.002l-9.879 10.12a3 3 0 0 1-4.242-4.244L50.758 52H44.43a13.965 13.965 0 0 1-10.795-5.085c-.022-.027-.035-.059-.057-.086-.018-.021-.04-.037-.057-.06l-6.804-9.344-.012-.022-.013-.014A8.277 8.277 0 0 0 20 34H5a3 3 0 0 1 0-6h15a8.276 8.276 0 0 0 6.692-3.39l.014-.016.011-.019 6.805-9.345c.019-.026.043-.044.063-.07.018-.024.03-.051.05-.075A13.962 13.962 0 0 1 44.43 10h6.327l-2.878-2.878a3 3 0 0 1 4.242-4.243L62 13l-9.879 10.121a3 3 0 1 1-4.242-4.242L50.759 16h-6.33a7.98 7.98 0 0 0-6.135 2.87l-6.726 9.237c-.008.01-.018.017-.025.027A13.622 13.622 0 0 1 28.727 31a13.594 13.594 0 0 1 2.807 2.854c.01.014.024.024.034.039l6.726 9.236A7.98 7.98 0 0 0 44.43 46h6.327l-2.879-2.879a3 3 0 0 1 4.244-4.242z" fill="none" stroke="#2e4369" stroke-linecap="round" stroke-linejoin="round" stroke-width="2"/></svg>