<svg xmlns="http://www.w3.org/2000/svg" viewBox="0 0 64 64" aria-labelledby="title" aria-describedby="desc"><path data-name="layer1" d="M61 50.002l-9.879 10.12a3 3 0 0 1-4.242-4.244L49.758 53H43.43a13.964 13.964 0 0 1-10.795-5.085c-.022-.027-.035-.059-.057-.086-.018-.021-.04-.037-.056-.06l-6.805-9.344-.012-.022-.013-.013A8.276 8.276 0 0 0 19 35H5a3 3 0 0 1 0-6h14a8.276 8.276 0 0 0 6.692-3.39l.014-.015.011-.02 6.805-9.345c.019-.026.043-.044.063-.07.018-.024.03-.051.05-.075A13.962 13.962 0 0 1 43.43 11h6.327l-2.878-2.878a3 3 0 0 1 4.242-4.243L61 14l-9.879 10.121a3 3 0 1 1-4.242-4.242L49.759 17h-6.33a7.98 7.98 0 0 0-6.135 2.87l-6.726 9.237c-.008.01-.018.017-.025.027A13.61 13.61 0 0 1 27.727 32a13.606 13.606 0 0 1 2.807 2.854c.01.014.024.024.034.04l6.726 9.235A7.98 7.98 0 0 0 43.43 47h6.327l-2.879-2.879a3 3 0 1 1 4.244-4.242z" fill="#202020"/></svg>