<svg xmlns="http://www.w3.org/2000/svg" viewBox="0 0 64 64" aria-labelledby="title" aria-describedby="desc"><path data-name="layer3" fill="#d5e2f4" d="M4 54h56v8H4z"/><path data-name="layer2" fill="#bacae8" d="M6 54V2h52v52"/><path data-name="layer2" fill="#bacae8" d="M14 20h36v26H14z"/><path data-name="opacity" fill="#101129" opacity=".25" d="M14 23h-2v25h37v-2H14V23z"/><path data-name="opacity" fill="#fff" opacity=".25" d="M14 20h36v3H14z"/><circle data-name="layer1" cx="49" cy="11" r="1" fill="#7c8cb0"/><circle data-name="layer1" cx="41" cy="11" r="1" fill="#7c8cb0"/><path data-name="stroke" fill="none" stroke="#2f446a" stroke-linecap="round" stroke-linejoin="round" stroke-width="2" d="M4 54h56v8H4zM2 2h60M6 2v52M58 2v52M14 20h36v26H14zm8 8h20"/><circle data-name="stroke" cx="49" cy="11" r="1" fill="none" stroke="#2f446a" stroke-linecap="round" stroke-linejoin="round" stroke-width="2"/><circle data-name="stroke" cx="41" cy="11" r="1" fill="none" stroke="#2f446a" stroke-linecap="round" stroke-linejoin="round" stroke-width="2"/><path data-name="stroke" fill="none" stroke="#2f446a" stroke-linecap="round" stroke-linejoin="round" stroke-width="2" d="M14 12h18"/></svg>