<svg xmlns="http://www.w3.org/2000/svg" viewBox="0 0 64 64" aria-labelledby="title" aria-describedby="desc"><path data-name="layer1" d="M32 16c0-2-4-4-14-4H2v44h20c6 0 10 2 10 3.8zm0 44c0-5.8 5.8-10 11.9-10H54V4h-9.4C36 4 32 12.4 32 16z" fill="#dbf1ff"/><path data-name="opacity" d="M32 16v44c0-4.9 4.1-8.6 9-9.7V4.6c-6.1 1.9-9 8.3-9 11.4z" fill="#000064" opacity=".1"/><path data-name="opacity" d="M32 59.8V16c0-1.5-2.4-3.1-8-3.7v43.8c4.9.4 8 2.1 8 3.7z" fill="#000064" opacity=".15"/><path data-name="layer1" d="M54 12v38H43.9c-4.5 0-9 2.3-10.9 6l-.8 3.2C33 57.5 36.7 56 42 56h20V12z" fill="#dbf1ff"/><path data-name="opacity" d="M54 12v38H43.9c-4.5 0-9 2.3-10.9 6l-.8 3.2C33 57.5 36.7 56 42 56h20V12z" fill="#000064" opacity=".15"/><path data-name="stroke" d="M54 12h8v44H42c-6 0-10 2-10 3.8" fill="none" stroke="#2e4369" stroke-linecap="round" stroke-miterlimit="10" stroke-width="2" stroke-linejoin="round"/><path data-name="stroke" d="M32 16c0-3.6 4-12 12.6-12H54v46H43.9C37.8 50 32 54.2 32 60m0-44c0-2-4-4-14-4H2v44h20c6 0 10 2 10 3.8z" fill="none" stroke="#2e4369" stroke-linecap="round" stroke-miterlimit="10" stroke-width="2" stroke-linejoin="round"/></svg>