<svg xmlns="http://www.w3.org/2000/svg" viewBox="0 0 64 64" aria-labelledby="title" aria-describedby="desc"><path data-name="layer3" fill="#d34545" d="M2 4h60v8H2zm0 48h60v8H2z"/><path data-name="layer2" fill="#f26161" d="M2 12h60v40H2z"/><circle data-name="layer1" cx="32" cy="32" r="14" fill="#fff"/><path data-name="opacity" d="M30 21a14 14 0 0 1 12.5 20.2 14 14 0 1 0-23-15.4A14 14 0 0 1 30 21z" fill="#000064" opacity=".16"/><path data-name="stroke" fill="none" stroke="#2e4369" stroke-linecap="round" stroke-miterlimit="10" stroke-width="2" d="M62 12V4H2v8m0 40v8h60v-8M22 4v8m20-8v8M22 52v8m20-8v8M2 12h60v40H2z" stroke-linejoin="round"/><circle data-name="stroke" cx="32" cy="32" r="14" fill="none" stroke="#2e4369" stroke-linecap="round" stroke-miterlimit="10" stroke-width="2" stroke-linejoin="round"/><path data-name="stroke" fill="none" stroke="#2e4369" stroke-linecap="round" stroke-miterlimit="10" stroke-width="2" d="M10 32h2m40 0h2" stroke-linejoin="round"/></svg>