<svg xmlns="http://www.w3.org/2000/svg" viewBox="0 0 64 64" aria-labelledby="title" aria-describedby="desc"><path data-name="layer1" d="M12.999 47.986L51 48a11.06 11.06 0 0 0 11-11.26v-9.5A11.09 11.09 0 0 0 51.002 16H50a2.998 2.998 0 1 0 0 5.995l.912-.002A5.222 5.222 0 0 1 56 27.24v9.5A5.057 5.057 0 0 1 51 42H13a5.159 5.159 0 0 1-5-5.26v-9.5a5.256 5.256 0 0 1 5.25-5.25l14.505.008-4.878 4.882a3 3 0 1 0 4.246 4.24l12.12-12.133L27.12 6.877a3 3 0 1 0-4.24 4.246L27.763 16H13A11.043 11.043 0 0 0 2 27.24v9.5a11.214 11.214 0 0 0 10.999 11.246z" fill="none" stroke="#202020" stroke-miterlimit="10" stroke-width="2" stroke-linejoin="round" stroke-linecap="round"/></svg>