<svg xmlns="http://www.w3.org/2000/svg" viewBox="0 0 64 64" aria-labelledby="title" aria-describedby="desc"><path data-name="layer3" d="M25.41 15.563l-2.476-.665A20.56 20.56 0 0 1 28.398 14h.001a20.439 20.439 0 0 1 16.082 7.994 3.073 3.073 0 0 0 2.365 1.227 2.951 2.951 0 0 0 1.846-.6 3.16 3.16 0 0 0 .514-4.343A26.384 26.384 0 0 0 28.4 8h-.002a26.497 26.497 0 0 0-8.55 1.559l1.439-3.52a2.96 2.96 0 0 0-1.672-3.862 3.007 3.007 0 0 0-3.9 1.69l-4.5 11.263c-.012.029-.014.062-.025.09a3.09 3.09 0 0 0-.106.386c-.016.073-.038.147-.048.22a3.033 3.033 0 0 0-.024.457c0 .052-.007.105-.004.157a2.978 2.978 0 0 0 .101.613c.01.034.028.066.038.1a3.013 3.013 0 0 0 .194.48c.007.013.01.027.016.04.032.058.077.106.112.162a2.96 2.96 0 0 0 .168.267c.016.02.036.034.052.054.058.07.122.13.185.193a3.092 3.092 0 0 0 .27.25c.064.052.133.095.202.141a2.983 2.983 0 0 0 .325.192 3.2 3.2 0 0 0 .225.099 3.149 3.149 0 0 0 .361.117c.046.011.086.033.132.042l10.8 2.246a2.97 2.97 0 0 0 .614.065 3 3 0 0 0 .608-5.938z" fill="#202020"/><path data-name="layer2" d="M23.275 56.39c-.007-.083-.022-.164-.036-.246a3.047 3.047 0 0 0-.083-.353c-.012-.041-.014-.085-.029-.125l-3.596-10.258a3 3 0 1 0-5.662 1.984l.852 2.431a20.397 20.397 0 0 1-4.369-24.642 3 3 0 0 0-5.304-2.806 26.387 26.387 0 0 0 6.971 33.01l-3.155.683a3 3 0 1 0 1.272 5.864l10.796-2.342c.026-.006.05-.02.077-.025a3.02 3.02 0 0 0 .454-.15c.033-.015.067-.025.099-.04a3.024 3.024 0 0 0 .483-.284c.035-.025.066-.054.1-.08a2.929 2.929 0 0 0 .336-.309c.033-.035.067-.07.098-.106a2.962 2.962 0 0 0 .335-.472v-.001l.002-.005a3.09 3.09 0 0 0 .194-.42c.011-.03.013-.058.023-.087.03-.088.048-.178.07-.268a3.118 3.118 0 0 0 .065-.34c.01-.085.011-.169.013-.254a2.922 2.922 0 0 0-.006-.36z" fill="#202020"/><path data-name="layer1" d="M49.338 26.966a3.224 3.224 0 0 0-.186.165 3.056 3.056 0 0 0-.249.263c-.027.033-.063.059-.088.093l-6.598 8.639a3 3 0 0 0 4.768 3.642l1.563-2.047a20.397 20.397 0 0 1-18.193 17.184 3 3 0 0 0 .567 5.974A26.387 26.387 0 0 0 54.68 36.924l2.305 2.261a3 3 0 1 0 4.201-4.282L53.3 27.167c-.019-.019-.043-.032-.063-.05a3.01 3.01 0 0 0-.375-.298c-.03-.02-.058-.042-.087-.06a3.032 3.032 0 0 0-.503-.249c-.04-.015-.081-.025-.122-.04a2.925 2.925 0 0 0-.442-.11c-.048-.009-.095-.018-.143-.024a2.97 2.97 0 0 0-.578-.02h-.007a3.093 3.093 0 0 0-.458.07c-.03.006-.055.02-.084.028-.09.024-.175.058-.262.09a3.105 3.105 0 0 0-.321.131c-.076.038-.147.083-.22.129a2.924 2.924 0 0 0-.296.202z" fill="#202020"/></svg>