<svg xmlns="http://www.w3.org/2000/svg" viewBox="0 0 64 64" aria-labelledby="title" aria-describedby="desc"><path data-name="layer1" d="M20 52h38v-6H20A12.012 12.012 0 0 1 8 34c0-6.616 5.382-11 12-11h29.362L42 29.796l4.07 4.41L62 20 46 6l-4 4.205L49.362 17H20c-9.927 0-18 7.075-18 17a18.019 18.019 0 0 0 18 18z" fill="#bacae9"/><path data-name="stroke" d="M20 52h38v-6H20A12.012 12.012 0 0 1 8 34c0-6.616 5.382-11 12-11h29.362L42 29.796l4.07 4.41L62 20 46 6l-4 4.205L49.362 17H20c-9.927 0-18 7.075-18 17a18.019 18.019 0 0 0 18 18z" fill="none" stroke="#2e4369" stroke-linecap="round" stroke-linejoin="round" stroke-width="2"/></svg>