<svg xmlns="http://www.w3.org/2000/svg" viewBox="0 0 64 64" aria-labelledby="title" aria-describedby="desc"><path data-name="layer1" d="M4.97 50h51a3 3 0 0 0 0-6H8V20h43.316l-7.373 6.794a3 3 0 0 0 4.066 4.412l13.023-12a2.998 2.998 0 0 0 0-4.412l-13.023-12a3 3 0 0 0-4.066 4.412L51.316 14H4.971A2.975 2.975 0 0 0 2 17v30a2.975 2.975 0 0 0 2.97 3z" fill="#bacae9"/><path data-name="stroke" d="M4.97 50h51a3 3 0 0 0 0-6H8V20h43.316l-7.373 6.794a3 3 0 0 0 4.066 4.412l13.023-12a2.998 2.998 0 0 0 0-4.412l-13.023-12a3 3 0 0 0-4.066 4.412L51.316 14H4.971A2.975 2.975 0 0 0 2 17v30a2.975 2.975 0 0 0 2.97 3z" fill="none" stroke="#2e4369" stroke-linecap="round" stroke-linejoin="round" stroke-width="2"/></svg>