<svg xmlns="http://www.w3.org/2000/svg" viewBox="0 0 64 64" aria-labelledby="title" aria-describedby="desc"><path data-name="layer1" d="M28.6 10A25.7 25.7 0 0 1 54 30.5l3.1-4.3 4.9 3.6-9.8 13.4-13.4-9.8 3.5-4.9 6 4.4A19.7 19.7 0 0 0 28.6 16a19.8 19.8 0 0 0-20 20 20.8 20.8 0 0 0 6 14.7l-4.2 4.2A26.9 26.9 0 0 1 2.6 36a25.7 25.7 0 0 1 26-26z" fill="#91aadc"/><path data-name="stroke" d="M28.6 10A25.7 25.7 0 0 1 54 30.5l3.1-4.3 4.9 3.6-9.8 13.4-13.4-9.8 3.5-4.9 6 4.4A19.7 19.7 0 0 0 28.6 16a19.8 19.8 0 0 0-20 20 20.8 20.8 0 0 0 6 14.7l-4.2 4.2A26.9 26.9 0 0 1 2.6 36a25.7 25.7 0 0 1 26-26z" fill="none" stroke="#2e4369" stroke-linecap="round" stroke-miterlimit="10" stroke-width="2" stroke-linejoin="round"/></svg>