<svg xmlns="http://www.w3.org/2000/svg" viewBox="0 0 64 64" aria-labelledby="title" aria-describedby="desc"><path data-name="layer1" fill="#bacae9" d="M12 15h18.109l-3.102 2.758 3.986 4.484L42.516 12 30.993 2l-3.986 4.242L30.109 9H6v46h11v-6h-5V15zm48-6H49v6h5v34H35.891l3.102-2.758-3.986-4.484L23.484 52 35 62l3.993-4.242L35.891 55H60V9z"/><path data-name="stroke" fill="none" stroke="#2e4369" stroke-linecap="round" stroke-linejoin="round" stroke-width="2" d="M12 15h18.109l-3.102 2.758 3.986 4.484L42.516 12 30.993 2l-3.986 4.242L30.109 9H6v46h11v-6h-5V15zm48-6H49v6h5v34H35.891l3.102-2.758-3.986-4.484L23.484 52 35 62l3.993-4.242L35.891 55H60V9z"/></svg>