<svg xmlns="http://www.w3.org/2000/svg" viewBox="0 0 64 64" aria-labelledby="title" aria-describedby="desc"><path data-name="layer2" d="M62.4 44.6a2 2 0 0 0-2.8 0L58 46.1a14.1 14.1 0 0 0-4-10 13.9 13.9 0 0 0-16.4-2.4 2 2 0 1 0 1.9 3.5 9.9 9.9 0 0 1 11.7 1.7 10.1 10.1 0 0 1 2.8 6.9l-1.2-1.2a2 2 0 0 0-2.8 2.8l6.2 6.3 6.2-6.3a2 2 0 0 0 0-2.8zM48.9 54.8a9.9 9.9 0 0 1-11.7-1.7 10.1 10.1 0 0 1-2.9-6.9l1.2 1.2a2 2 0 0 0 2.8-2.8l-6.2-6.3-6.1 6.3a2 2 0 0 0 2.8 2.8l1.5-1.5a14.1 14.1 0 0 0 4 10 13.9 13.9 0 0 0 9.9 4.1 13.7 13.7 0 0 0 6.6-1.7 2 2 0 1 0-1.9-3.5z" fill="#202020"/><path data-name="layer1" d="M53 4a2 2 0 0 0-2-2H3a2 2 0 0 0-2 2v12h52zm-43 9a3 3 0 1 1 3-3 3 3 0 0 1-3 3zm35-1H29a2 2 0 0 1 0-4h16a2 2 0 0 1 0 4zM21.2 46a6 6 0 0 1 1.7-4.3l5.8-5.7H1v12a2 2 0 0 0 2 2h19.7a6 6 0 0 1-1.5-4zM10 45a3 3 0 1 1 3-3 3 3 0 0 1-3 3zm25.5-14.8A17.8 17.8 0 0 1 44 28a18 18 0 0 1 9 2.5V20H1v12h32.4a5.9 5.9 0 0 1 2.1-1.8zM10 29a3 3 0 1 1 3-3 3 3 0 0 1-3 3zm17-3a2 2 0 0 1 2-2h16a2 2 0 0 1 0 4H29a2 2 0 0 1-2-2z" fill="#202020"/></svg>