<svg xmlns="http://www.w3.org/2000/svg" viewBox="0 0 64 64" aria-labelledby="title" aria-describedby="desc"><path data-name="layer2" d="M44 38.1V18H28V2H4v54h30.6A12 12 0 0 1 44 38.1z" fill="#ebf5ff"/><path data-name="layer1" fill="#fff" d="M44 18L28 2v16h16z"/><path data-name="opacity" fill="#000064" opacity=".15" d="M24 2v21h20v-5H28V2h-4zm9 48a12 12 0 0 1 5.2-9.8A12 12 0 0 0 28 52a11.8 11.8 0 0 0 .7 4h5.9a11.9 11.9 0 0 1-1.6-6z"/><path data-name="stroke" fill="none" stroke="#2e4369" stroke-linecap="round" stroke-miterlimit="10" stroke-width="2" d="M34.9 56H4V2h24l16 16v20" stroke-linejoin="round"/><path data-name="stroke" fill="none" stroke="#2e4369" stroke-linecap="round" stroke-miterlimit="10" stroke-width="2" d="M28 2v16h16m8.4 32l4.8 4.8L62 50m-24 0l-4.8-4.8-4.8 4.8" stroke-linejoin="round"/><path data-name="stroke" d="M50.9 60.6a11.8 11.8 0 0 1-14.1-2.1A12.1 12.1 0 0 1 34 46m5.6-6.6a11.8 11.8 0 0 1 14 2.1A12.1 12.1 0 0 1 56.4 54" fill="none" stroke="#2e4369" stroke-linecap="round" stroke-miterlimit="10" stroke-width="2" stroke-linejoin="round"/></svg>