<svg xmlns="http://www.w3.org/2000/svg" viewBox="0 0 64 64" aria-labelledby="title" aria-describedby="desc"><path data-name="layer2" fill="none" stroke="#202020" stroke-linecap="round" stroke-linejoin="round" stroke-width="2" d="M52.4 46l4.8 4.8L62 46m-24 0l-4.8-4.8-4.8 4.8"/><path data-name="layer2" d="M50.9 56.6a11.8 11.8 0 0 1-14.1-2.1A12.1 12.1 0 0 1 34 42m5.6-6.6a11.8 11.8 0 0 1 14.1 2.1A12.1 12.1 0 0 1 56.4 50" fill="none" stroke="#202020" stroke-linecap="round" stroke-linejoin="round" stroke-width="2"/><circle data-name="layer1" cx="8" cy="12" r="1" fill="none" stroke="#202020" stroke-linecap="round" stroke-linejoin="round" stroke-width="2"/><circle data-name="layer1" cx="15" cy="12" r="1" fill="none" stroke="#202020" stroke-linecap="round" stroke-linejoin="round" stroke-width="2"/><circle data-name="layer1" cx="22" cy="12" r="1" fill="none" stroke="#202020" stroke-linecap="round" stroke-linejoin="round" stroke-width="2"/><path data-name="layer1" fill="none" stroke="#202020" stroke-linecap="round" stroke-linejoin="round" stroke-width="2" d="M54 38V18M2 18v32h32M2 6h52v12H2z"/></svg>