<svg xmlns="http://www.w3.org/2000/svg" viewBox="0 0 64 64" aria-labelledby="title" aria-describedby="desc"><path data-name="layer1" fill="none" stroke="#202020" stroke-linecap="round" stroke-linejoin="round" stroke-width="2" d="M2 6h60v12H2zm0 12v40h60V18"/><path data-name="layer2" fill="none" stroke="#202020" stroke-linecap="round" stroke-linejoin="round" stroke-width="2" d="M39.2 38l4.8 4.8 4.8-4.8m-24 0L20 33.2 15.2 38"/><path data-name="layer2" d="M37.7 48.6a11.8 11.8 0 0 1-14.1-2.1A12.1 12.1 0 0 1 20.8 34m5.5-6.6a11.8 11.8 0 0 1 14.1 2.1A12.1 12.1 0 0 1 43.2 42" fill="none" stroke="#202020" stroke-linecap="round" stroke-linejoin="round" stroke-width="2"/><circle data-name="layer1" cx="8" cy="12" r="1" fill="none" stroke="#202020" stroke-linecap="round" stroke-linejoin="round" stroke-width="2"/><circle data-name="layer1" cx="15" cy="12" r="1" fill="none" stroke="#202020" stroke-linecap="round" stroke-linejoin="round" stroke-width="2"/><circle data-name="layer1" cx="22" cy="12" r="1" fill="none" stroke="#202020" stroke-linecap="round" stroke-linejoin="round" stroke-width="2"/></svg>