<svg viewBox="0 0 64 64" xmlns="http://www.w3.org/2000/svg" aria-labelledby="title" aria-describedby="desc"><path fill="#202020" d="M62.408 43.586a2 2 0 0 0-2.828.014l-1.514 1.527a14.123 14.123 0 0 0-4.043-10.011 13.874 13.874 0 0 0-16.43-2.424 2 2 0 1 0 1.916 3.508 9.856 9.856 0 0 1 11.672 1.73 10.087 10.087 0 0 1 2.869 6.91l-1.226-1.24a2 2 0 1 0-2.844 2.813L56.2 52.7l6.223-6.283a2 2 0 0 0-.015-2.831zM48.9 53.811a9.862 9.862 0 0 1-11.674-1.722 10.078 10.078 0 0 1-2.867-6.915l1.228 1.24a2 2 0 1 0 2.838-2.814L32.2 37.317 25.982 43.6a2 2 0 1 0 2.842 2.814l1.516-1.53A14.121 14.121 0 0 0 34.38 54.9a13.882 13.882 0 0 0 9.857 4.089 13.693 13.693 0 0 0 6.576-1.672 2 2 0 1 0-1.918-3.51z" data-name="layer3"/><path fill="#202020" d="M21.408 45.036a5.96 5.96 0 0 1 1.736-4.251l6.223-6.285a4 4 0 0 1 2.842-1.185 3.873 3.873 0 0 1 .451.045 5.989 5.989 0 0 1 3.021-4.18 17.76 17.76 0 0 1 8.488-2.159A18 18 0 0 1 53 29.37V19.008H1v30h21.947a5.95 5.95 0 0 1-1.539-3.972z" data-name="layer2"/><path fill="#202020" d="M1 5.008v10h52v-10zM7 12a2 2 0 1 1 2-2 2 2 0 0 1-2 2zm6 0a2 2 0 1 1 2-2 2 2 0 0 1-2 2zm6 0a2 2 0 1 1 2-2 2 2 0 0 1-2 2z" data-name="layer1"/></svg>