<svg xmlns="http://www.w3.org/2000/svg" viewBox="0 0 64 64" aria-labelledby="title" aria-describedby="desc"><path data-name="layer1" d="M62 30.584C62 16.036 50.558 4 36 4A27.068 27.068 0 0 0 9.954 24.43l-2.476-3.623a3 3 0 1 0-4.953 3.387l7.351 10.752c.029.041.067.074.097.114a2.979 2.979 0 0 0 .225.261c.064.067.129.131.199.192a2.845 2.845 0 0 0 .262.199c.077.053.152.106.233.15a2.893 2.893 0 0 0 .315.147c.08.033.156.07.238.097a3.127 3.127 0 0 0 .388.086c.06.011.118.034.179.04.017.003.033.002.05.004l.08.004c.07.005.14.012.211.012.063 0 .125-.013.188-.017.051-.004.102.004.154-.002.034-.005.065-.016.1-.022a3.041 3.041 0 0 0 .322-.07c.084-.022.167-.041.246-.07a3.012 3.012 0 0 0 .28-.124c.08-.038.163-.074.24-.12a2.765 2.765 0 0 0 .242-.17c.073-.054.148-.103.215-.163.014-.012.03-.02.044-.033l9.736-8.952a3 3 0 1 0-4.062-4.418l-4.313 3.968A21.045 21.045 0 0 1 36 10c11.248 0 20 9.344 20 20.584a20.431 20.431 0 0 1-18 20.262V50a3 3 0 0 0-6 0v7a3 3 0 0 0 6 0v-.114a26.441 26.441 0 0 0 24-26.302z" fill="#202020"/></svg>