<svg xmlns="http://www.w3.org/2000/svg" viewBox="0 0 64 64" aria-labelledby="title" aria-describedby="desc"><path data-name="layer2" d="M58.9 47l-10.4-6.8a4.8 4.8 0 0 0-6.5 1.3c-2.3 2.9-5.3 7.7-16.2-3.2S19.6 24.4 22.5 22a4.8 4.8 0 0 0 1.3-6.5L17 5.1c-.9-1.3-2.1-3.4-4.9-3S2 6.6 2 15.6s7.1 20 16.8 29.7S39.4 62 48.4 62s13.2-8 13.5-10-1.7-4.1-3-5z" fill="#202020"/><path data-name="layer1" d="M48 30a14 14 0 1 0-14-14 14 14 0 0 0 14 14zm-6.4-17.6a2 2 0 1 1 2.8-2.8l3.6 3.6 3.6-3.6a2 2 0 0 1 2.8 2.8L50.8 16l3.6 3.6a2 2 0 1 1-2.8 2.8L48 18.8l-3.6 3.6a2 2 0 1 1-2.8-2.8l3.6-3.6z" fill="#202020"/></svg>