<svg viewBox="0 0 64 64" xmlns="http://www.w3.org/2000/svg" aria-labelledby="title" aria-describedby="desc"><path stroke-width="2" stroke-miterlimit="10" stroke-linecap="round" stroke="#202020" fill="none" d="M12.342 36.887a2.983 2.983 0 0 0 .332-.146c.06-.029.122-.051.179-.084a3.028 3.028 0 0 0 .43-.3l.026-.019 8.039-6.855a3 3 0 1 0-3.894-4.565l-2.611 2.227a17.685 17.685 0 0 1 29.6-7.964 3 3 0 0 0 4.242-4.244 23.7 23.7 0 0 0-39.7 10.816l-1.567-2.129a3 3 0 0 0-4.836 3.553l6.359 8.657c.008.011.02.02.028.032a3.091 3.091 0 0 0 .351.385c.014.014.026.031.042.044a3.018 3.018 0 0 0 .469.341c.045.027.1.046.143.07a2.991 2.991 0 0 0 .384.173c.063.023.129.037.193.055a3.037 3.037 0 0 0 .375.084c.03 0 .058.016.088.02a3.111 3.111 0 0 0 .322.019h.02a3.115 3.115 0 0 0 .343-.02c.029 0 .056-.014.085-.019a2.881 2.881 0 0 0 .351-.076c.065-.017.139-.031.207-.055z" data-name="layer1" stroke-linejoin="round"/><path stroke-width="2" stroke-miterlimit="10" stroke-linecap="round" stroke="#202020" fill="none" d="M51.218 26.17a2.983 2.983 0 0 0-.332.146c-.06.029-.122.051-.179.084a3.028 3.028 0 0 0-.43.3c-.008.007-.018.012-.026.018l-8.039 6.855a3 3 0 1 0 3.894 4.565l2.611-2.227a17.685 17.685 0 0 1-29.6 7.964 3 3 0 0 0-4.242 4.244A23.7 23.7 0 0 0 54.578 37.3l1.564 2.129a3 3 0 0 0 4.836-3.553l-6.359-8.657c-.008-.011-.02-.019-.028-.032a3.091 3.091 0 0 0-.351-.385c-.014-.014-.026-.031-.042-.044a3.018 3.018 0 0 0-.469-.341c-.045-.027-.1-.046-.143-.07a2.991 2.991 0 0 0-.384-.173c-.064-.023-.129-.037-.193-.055a3.037 3.037 0 0 0-.374-.084c-.03 0-.058-.016-.088-.02a3.111 3.111 0 0 0-.322-.015h-.02a3.115 3.115 0 0 0-.343.02c-.029 0-.056.014-.085.019a2.881 2.881 0 0 0-.351.076c-.069.018-.14.032-.208.055z" data-name="layer2" stroke-linejoin="round"/></svg>