<svg xmlns="http://www.w3.org/2000/svg" viewBox="0 0 64 64" aria-labelledby="title" aria-describedby="desc"><path data-name="layer2" d="M62.4 44.6a2 2 0 0 0-2.8 0l-1.3 1.3A13.7 13.7 0 1 0 44.6 60a2 2 0 0 0 0-4 10 10 0 1 1 9.7-10l-1.5-1.5a2 2 0 0 0-2.8 2.9l6.2 6.3 6.2-6.3a2 2 0 0 0 0-2.8z" fill="#202020"/><path data-name="layer1" d="M53 4a2 2 0 0 0-2-2H3a2 2 0 0 0-2 2v12h52zm-43 9a3 3 0 1 1 3-3 3 3 0 0 1-3 3zm35-1H29a2 2 0 0 1 0-4h16a2 2 0 0 1 0 4zM27 46a18.2 18.2 0 0 1 .3-3.1 2 2 0 0 1-.3-.9 2 2 0 0 1 .8-1.6A18.1 18.1 0 0 1 30 36H1v12a2 2 0 0 0 2 2h24.4a18.2 18.2 0 0 1-.4-4zm-17-1a3 3 0 1 1 3-3 3 3 0 0 1-3 3zm41.1-1zm-6.8-16H29a2 2 0 0 1 0-4h16a2 2 0 0 1 0 4 17.2 17.2 0 0 1 8 2.2V20H1v12h32.5a17.4 17.4 0 0 1 10.8-4zM10 29a3 3 0 1 1 3-3 3 3 0 0 1-3 3z" fill="#202020"/></svg>