<svg xmlns="http://www.w3.org/2000/svg" viewBox="0 0 64 64" aria-labelledby="title" aria-describedby="desc"><path data-name="layer2" d="M61.4 46.5a2 2 0 0 0-2.8 0l-1.3 1.3a13.7 13.7 0 1 0-13.6 14.1 2 2 0 0 0 0-4 10 10 0 1 1 9.7-10l-1.5-1.5a2 2 0 1 0-2.9 2.9l6.2 6.3 6.2-6.3a2 2 0 0 0 0-2.8z" fill="#202020"/><ellipse data-name="layer1" cx="25" cy="10.1" rx="23" ry="8" fill="#202020"/><path data-name="layer1" d="M43.7 29.9a17.2 17.2 0 0 1 4.3.6v-3.2a14.7 14.7 0 0 1-4.3 2.6zM26 47.9a18.3 18.3 0 0 1 .3-2.9H25c-9.4 0-19-2-23-5.8V46c0 4.3 9.8 7.8 22.1 8H27a18.2 18.2 0 0 1-1-6.1zM25 41h2.4a18 18 0 0 1 7.5-8.7 63.8 63.8 0 0 1-9.9.8c-9.4 0-19-2-23-5.8v7.8c0 2 9.4 5.9 23 5.9zm0-11.9c13.6 0 23-3.9 23-6v-6.2c-5 3.6-14 5.2-23 5.2S7 20.4 2 16.9v6.2c0 2 9.4 6 23 6z" fill="#202020"/></svg>