<svg xmlns="http://www.w3.org/2000/svg" viewBox="0 0 64 64" aria-labelledby="title" aria-describedby="desc"><path data-name="layer1" d="M17.662 25.152l-2.755 2.349a17.985 17.985 0 0 1 30.135-8.232l4.242-4.244A23.998 23.998 0 0 0 8.981 26.403L7 24l-5 3 8.943 11.768 10.613-9.05zM62 37l-8.39-12.054-10.442 9.388 4.012 4.462 2.54-2.284a17.983 17.983 0 0 1-30.134 8.215l-4.24 4.245A24 24 0 0 0 55.607 37.78l1.76 2.39z" fill="#bacae9"/><path data-name="stroke" d="M17.662 25.152l-2.755 2.349a17.985 17.985 0 0 1 30.135-8.232l4.242-4.244A23.998 23.998 0 0 0 8.981 26.403L7 24l-5 3 8.943 11.768 10.613-9.05zM62 37l-8.39-12.054-10.442 9.388 4.012 4.462 2.54-2.284a17.983 17.983 0 0 1-30.134 8.215l-4.24 4.245A24 24 0 0 0 55.607 37.78l1.76 2.39z" fill="none" stroke="#2e4369" stroke-linecap="round" stroke-linejoin="round" stroke-width="2"/></svg>