<svg xmlns="http://www.w3.org/2000/svg" viewBox="0 0 64 64" aria-labelledby="title" aria-describedby="desc"><path data-name="layer2" d="M8.854 38.002A15.012 15.012 0 0 1 23 18h20.712l-5.632 4.693a3 3 0 0 0 3.84 4.61L56.685 15 41.921 2.695a3 3 0 1 0-3.842 4.608L43.716 12H23A21.011 21.011 0 0 0 3.197 40.002a3 3 0 0 0 5.657-2z" fill="#202020"/><path data-name="layer1" d="M60.805 24a3 3 0 1 0-5.657 2A15.015 15.015 0 0 1 41 46H20.284l5.637-4.697a3 3 0 0 0-3.842-4.61L7.314 49 22.08 61.303a3 3 0 0 0 3.84-4.61L20.287 52H41a21.014 21.014 0 0 0 19.805-28z" fill="#202020"/></svg>