<svg xmlns="http://www.w3.org/2000/svg" viewBox="0 0 64 64" aria-labelledby="title" aria-describedby="desc"><path data-name="layer1" d="M38.121 33.879L50 45.758V41a3 3 0 0 1 6 0v15H41a3 3 0 0 1 0-6h4.758l-11.88-11.879a3 3 0 0 1 4.243-4.242zM23 8a3 3 0 0 1 0 6h-4.758l11.88 11.879a3 3 0 1 1-4.243 4.242L14 18.242V23a3 3 0 0 1-6 0V8z" fill="#bacae9"/><path data-name="stroke" d="M38.121 33.879L50 45.758V41a3 3 0 0 1 6 0v15H41a3 3 0 0 1 0-6h4.758l-11.88-11.879a3 3 0 0 1 4.243-4.242zM23 8a3 3 0 0 1 0 6h-4.758l11.88 11.879a3 3 0 1 1-4.243 4.242L14 18.242V23a3 3 0 0 1-6 0V8z" fill="none" stroke="#2e4369" stroke-linecap="round" stroke-linejoin="round" stroke-width="2"/></svg>