<svg viewBox="0 0 64 64" xmlns="http://www.w3.org/2000/svg" aria-labelledby="title" aria-describedby="desc"><path fill="#202020" d="M46 26a16 16 0 1 0 16 16 16 16 0 0 0-16-16zm7.424 15.417a2 2 0 0 1-2.83 0L48 38.826V50a2 2 0 1 1-4 0V38.826l-2.594 2.593a2 2 0 0 1-2.828-2.83L46 31.173l7.422 7.416a2 2 0 0 1 .002 2.828z" data-name="layer3"/><path fill="#202020" d="M2 50h25.682A19.977 19.977 0 0 1 54 23.682V20H2z" data-name="layer2"/><path fill="#202020" d="M2 6v10h52V6zm6 7a2 2 0 1 1 2-2 2 2 0 0 1-2 2zm6 0a2 2 0 1 1 2-2 2 2 0 0 1-2 2zm6 0a2 2 0 1 1 2-2 2 2 0 0 1-2 2z" data-name="layer1"/></svg>