<svg xmlns="http://www.w3.org/2000/svg" viewBox="0 0 64 64" aria-labelledby="title" aria-describedby="desc"><path data-name="layer2" d="M63 19c0-4.5-2.6-8-6-8s-6 3.5-6 8 1.6 6.5 4 7.6V51a2 2 0 1 0 4 0V26.6c2.4-1.1 4-4.1 4-7.6zm-52-6a2 2 0 0 0-4 0v6a2 2 0 0 1-2 2v-8a2 2 0 1 0-4 0v38a2 2 0 0 0 4 0V25a6 6 0 0 0 6-6z" fill="#202020"/><path data-name="layer1" d="M30 15a19 19 0 1 0 19 19 19 19 0 0 0-19-19zm8.3 28.9a13 13 0 0 1-21.2-8.7 2 2 0 0 1 4-.4 9 9 0 0 0 14.7 6 2 2 0 1 1 2.6 3.1zm2.7-8a2 2 0 0 1-2-2 9 9 0 0 0-16-5.7 2 2 0 0 1-3.1-2.5A13 13 0 0 1 43 33.9a2 2 0 0 1-2 2z" fill="#202020"/></svg>