<svg xmlns="http://www.w3.org/2000/svg" viewBox="0 0 64 64" aria-labelledby="title" aria-describedby="desc"><ellipse data-name="layer1" cx="58" cy="18" rx="4" ry="6" fill="#d1deff"/><circle data-name="layer1" cx="31" cy="33" r="19" fill="#d1deff"/><path data-name="opacity" d="M31 22a11 11 0 0 0-9.3 5.2 11 11 0 0 1 15.1 15.1A11 11 0 0 0 31 22z" fill="#000064" opacity=".1"/><ellipse data-name="stroke" cx="58" cy="18" rx="4" ry="6" fill="none" stroke="#2e4369" stroke-linecap="round" stroke-linejoin="round" stroke-width="2"/><path data-name="stroke" fill="none" stroke="#2e4369" stroke-linecap="round" stroke-linejoin="round" stroke-width="2" d="M4 12v38m54-26v26M10 12v6a4 4 0 0 1-4 4H4"/><circle data-name="stroke" cx="31" cy="33" r="19" fill="none" stroke="#2e4369" stroke-linecap="round" stroke-linejoin="round" stroke-width="2"/><path data-name="stroke" d="M38 41.4A11 11 0 0 1 20.1 34m2.3-8A11 11 0 0 1 42 32.9" fill="none" stroke="#2e4369" stroke-linecap="round" stroke-linejoin="round" stroke-width="2"/></svg>