<svg viewBox="0 0 64 64" xmlns="http://www.w3.org/2000/svg" aria-labelledby="title" aria-describedby="desc"><path d="M53 47l4 6 5-5" stroke-width="2" stroke-linejoin="round" stroke-linecap="round" stroke="#202020" fill="none" data-name="layer1"/><circle stroke-width="2" stroke-linejoin="round" stroke-linecap="round" stroke="#202020" fill="none" r="1" cy="12" cx="11" data-name="layer2"/><circle stroke-width="2" stroke-linejoin="round" stroke-linecap="round" stroke="#202020" fill="none" r="1" cy="28" cx="11" data-name="layer2"/><circle stroke-width="2" stroke-linejoin="round" stroke-linecap="round" stroke="#202020" fill="none" r="1" cy="44" cx="11" data-name="layer2"/><path d="M2 20h52M2 36h30m-2-24h16M30 28h16M34.7 52H4a2 2 0 0 1-2-2V6a2 2 0 0 1 2-2h48a2 2 0 0 1 2 2v33.1" stroke-width="2" stroke-linejoin="round" stroke-linecap="round" stroke="#202020" fill="none" data-name="layer2"/><path stroke-width="2" stroke-linejoin="round" stroke-linecap="round" stroke="#202020" fill="none" d="M46 60a12 12 0 1 1 10.9-7.1" data-name="layer1"/></svg>