<svg xmlns="http://www.w3.org/2000/svg" viewBox="0 0 64 64" aria-labelledby="title" aria-describedby="desc"><path data-name="layer1" d="M51.001 16.015L13 16A11.061 11.061 0 0 0 2 27.26v9.5A11.09 11.09 0 0 0 12.998 48H14a2.998 2.998 0 1 0 0-5.995l-.912.002A5.222 5.222 0 0 1 8 36.76v-9.5A5.057 5.057 0 0 1 13 22h38a5.16 5.16 0 0 1 5 5.26v9.5a5.256 5.256 0 0 1-5.25 5.25l-14.505-.007 4.878-4.883a3 3 0 0 0-4.246-4.24l-12.12 12.133 12.123 12.11a3 3 0 1 0 4.24-4.245L36.237 48H51a11.042 11.042 0 0 0 11-11.24v-9.5a11.213 11.213 0 0 0-10.999-11.245z" fill="none" stroke="#202020" stroke-miterlimit="10" stroke-width="2" stroke-linejoin="round" stroke-linecap="round"/></svg>