<svg xmlns="http://www.w3.org/2000/svg" viewBox="0 0 64 64" aria-labelledby="title" aria-describedby="desc"><circle data-name="layer2" cx="32" cy="32" r="4" fill="#202020"/><path data-name="layer1" d="M25.8 24.2a2 2 0 1 0-2.4-3.2 14 14 0 0 0 0 22 2 2 0 0 0 2.5-3.1 10 10 0 0 1 0-15.7zM40.7 21a2 2 0 0 0-2.5 3.1 10 10 0 0 1 0 15.7 2 2 0 1 0 2.5 3.2 14 14 0 0 0 0-22z" fill="#202020"/><path data-name="layer1" d="M13 32a19 19 0 0 1 6.5-14.3 2 2 0 1 0-2.6-3 23 23 0 0 0 0 34.7 2 2 0 0 0 2.6-3A19 19 0 0 1 13 32zm34.1-17.3a2 2 0 1 0-2.6 3 19 19 0 0 1 0 28.6 2 2 0 1 0 2.6 3 23 23 0 0 0 0-34.7z" fill="#202020"/><path data-name="layer1" d="M4 32a28.1 28.1 0 0 1 9.1-20.7 2 2 0 1 0-2.7-3 32 32 0 0 0 0 47.3 2 2 0 1 0 2.7-3A28.1 28.1 0 0 1 4 32zM53.5 8.3a2 2 0 1 0-2.7 3 28 28 0 0 1 0 41.4 2 2 0 1 0 2.7 3 32 32 0 0 0 0-47.3z" fill="#202020"/></svg>