<svg viewBox="0 0 64 64" xmlns="http://www.w3.org/2000/svg" aria-labelledby="title" aria-describedby="desc"><path d="M16.717 36.001L9 55.086l8.754-1.085 5.496 6.753 6.504-18.755m15.527-5.998L53 55.086l-8.754-1.085-5.496 6.753-6.504-18.755" fill="#78d1f4" data-name="layer1"/><circle fill="#a5d0ec" r="20" cy="22" cx="30.998" data-name="layer2"/><circle fill="#78d1f4" r="12" cy="22" cx="30.998" data-name="layer1"/><path opacity=".15" fill="#fff" d="M31.411 11.1c-1.062.239-1.251 1.06 1.589 3.9 5.868 5.868 3.588 15.806 6.031 13.27a10.984 10.984 0 0 0-7.62-17.17z" data-name="opacity"/><path opacity=".15" fill="#000064" d="M45.488 36.512L44 38c-5 4-17 3-19 0 14 2 16-9 16-9s-7 5-14 2-7-11-6-16c-5 6-4 14-1 21-8.843-7.075-6.735-24.307-.6-30.275a19.965 19.965 0 0 0-2.668 30.284L16.717 36l-3.536 8.745a24.91 24.91 0 0 0 13.841 5.132L29.754 42l-.154-.07c.463.032.924.07 1.395.07s.936-.039 1.4-.071l-.151.07 2.666 7.689c6.93-.9 11.195-3.605 13.574-5.762z" data-name="opacity"/><path d="M16.717 35.001L9 54.086l8.754-1.085 5.496 6.753 6.504-18.755m15.527-5.998L53 54.086l-8.754-1.085-5.496 6.753-6.504-18.755" stroke-width="2" stroke-linejoin="round" stroke-linecap="round" stroke="#2e4369" fill="none" data-name="stroke"/><circle stroke-width="2" stroke-linejoin="round" stroke-linecap="round" stroke="#2e4369" fill="none" r="20" cy="21" cx="30.998" data-name="stroke"/><circle stroke-width="2" stroke-linejoin="round" stroke-linecap="round" stroke="#2e4369" fill="none" r="12" cy="21" cx="30.998" data-name="stroke"/></svg>