<svg xmlns="http://www.w3.org/2000/svg" viewBox="0 0 64 64" aria-labelledby="title" aria-describedby="desc"><path data-name="layer2" d="M34.8 27.5A10.1 10.1 0 0 0 49 41.8l.7-.8v-.2l.5-.6c3-4.5 3.2-11.1 4.4-12.3l.3-.3a2.4 2.4 0 0 0 0-3.4l-2.7-2.7a2.4 2.4 0 0 0-3.4 0l-.3.3c-1.3 1.3-8.4 1.1-13.1 5.1z" fill="#202020"/><path data-name="layer1" d="M62.6 17.7c-1.5-1.5-2.1-1-2.6-1.6s-.3-1.3-1.6-2.6a2.9 2.9 0 0 0-4.2 4.2l.2.2.8.6 2.8 2.8.7.8a2.9 2.9 0 0 0 3.9-4.4z" fill="#202020"/><path data-name="layer2" d="M14.5 44.7H32a14.1 14.1 0 0 1 0-19.9l1.1-1c3.7-3.1 8.3-4.1 11.4-4.8l1.8-.4 1.3-1C38.5 9.3 15.1 5.7 3.9 29.8c-3.6 8 2.6 14.9 10.6 14.9z" fill="#202020"/><path data-name="layer1" d="M58.5 48.7h-56a2 2 0 0 0 0 4h56a2 2 0 0 0 0-4z" fill="#202020"/></svg>