<svg xmlns="http://www.w3.org/2000/svg" viewBox="0 0 64 64" aria-labelledby="title" aria-describedby="desc"><path data-name="layer1" fill="none" stroke="#202020" stroke-miterlimit="10" stroke-width="2" d="M62 2L50.9 13.1M52 4l10-2-2 10" stroke-linejoin="round" stroke-linecap="round"/><path data-name="layer2" d="M44 11c-5.2 0-10.3 3.3-12 8-1.7-4.6-6.8-8-12-8A12 12 0 0 0 8 22.9C8 34.1 16.8 44.4 32 54c15.2-9.6 24-19.9 24-31.1A12 12 0 0 0 44 11z" fill="none" stroke="#202020" stroke-miterlimit="10" stroke-width="2" stroke-linejoin="round" stroke-linecap="round"/><path data-name="layer1" fill="none" stroke="#202020" stroke-miterlimit="10" stroke-width="2" d="M23 41L8 56m-6 0h6v6m0-12h6v6" stroke-linejoin="round" stroke-linecap="round"/></svg>