<svg xmlns="http://www.w3.org/2000/svg" viewBox="0 0 64 64" aria-labelledby="title" aria-describedby="desc"><path data-name="layer2" d="M25.1 22.1l1-.3a2 2 0 0 0 .7-2.7 6 6 0 0 1 0-6 2 2 0 0 0-3.5-2 10 10 0 0 0 0 10 2 2 0 0 0 1.8 1zm12.8-.3l1 .3a2 2 0 0 0 1.7-1 10 10 0 0 0 0-10 2 2 0 0 0-3.5 2 6 6 0 0 1 0 6 2 2 0 0 0 .8 2.7zm-20.2 3.4l.9-.2a2 2 0 0 0 .9-2.7 14 14 0 0 1 0-12.4 2 2 0 1 0-3.6-1.8 18 18 0 0 0 0 16 2 2 0 0 0 1.8 1.1zm27.8-.2l.9.2a2 2 0 0 0 1.8-1.1 18 18 0 0 0 0-16 2 2 0 1 0-3.6 1.8 14.1 14.1 0 0 1 0 12.4 2 2 0 0 0 .9 2.7zm-35.2 3.3l.8-.2a2 2 0 0 0 1-2.7 22 22 0 0 1 0-18.7 2 2 0 1 0-3.6-1.6 26 26 0 0 0 0 22.1 2 2 0 0 0 1.8 1.1zm42.6-.2l.8.2a2 2 0 0 0 1.8-1.1 26.1 26.1 0 0 0 0-22.1 2 2 0 1 0-3.6 1.7 22.1 22.1 0 0 1 0 18.7 2 2 0 0 0 1 2.6z" fill="#202020"/><path data-name="layer1" d="M60 36.1H34v-20a2 2 0 1 0-4 0v20H4a2 2 0 0 0-2 2v14a2 2 0 0 0 2 2h2v4a2 2 0 1 0 4 0v-4h44v4a2 2 0 0 0 4 0v-4h2a2 2 0 0 0 2-2v-14a2 2 0 0 0-2-2zm-49 12a3 3 0 1 1 3-3 3 3 0 0 1-3 3zm10 0a3 3 0 1 1 3-3 3 3 0 0 1-3 3zm10 0a3 3 0 1 1 3-3 3 3 0 0 1-3 3z" fill="#202020"/></svg>