<svg xmlns="http://www.w3.org/2000/svg" viewBox="0 0 64 64" aria-labelledby="title" aria-describedby="desc"><path data-name="layer1" d="M33 4a31.453 31.453 0 0 0-4.4.3.1.1 0 0 0-.1-.1 2.283 2.283 0 0 0 1-2.3C29.3.7 28.2 0 26.6 0a3.4 3.4 0 0 0-1 .1c-1.9.4-3.1 1.8-2.8 3.2A2.549 2.549 0 0 0 24.7 5v.2A29.912 29.912 0 1 0 33 4zm-9.2-.9c-.2-.8.8-1.7 2.1-2a1.7 1.7 0 0 1 .7-.1c1 0 1.8.4 1.9 1a1.5 1.5 0 0 1-.7 1.4 2.129 2.129 0 0 0-1.6-.3 2.072 2.072 0 0 0-1.3.9 1.473 1.473 0 0 1-1.1-.9zm25.3 47a23.545 23.545 0 0 1-9.7 5.8l-2.6-4.3-.7 5a30.285 30.285 0 0 1-3.1.2 22.619 22.619 0 0 1-16.1-6.7 23.545 23.545 0 0 1-5.8-9.7l4.3-2.6-5-.7a30.284 30.284 0 0 1-.2-3.1 22.619 22.619 0 0 1 6.7-16.1 23.545 23.545 0 0 1 9.7-5.8l2.6 4.3.7-5a30.284 30.284 0 0 1 3.1-.2 22.619 22.619 0 0 1 16.1 6.7 23.545 23.545 0 0 1 5.8 9.7l-4.3 2.7 5 .7a30.285 30.285 0 0 1 .2 3.1 22.562 22.562 0 0 1-6.7 16zm-.5-31.7l-12.3 9.4a6.109 6.109 0 0 0-3-.8l-3.2-6.7-.2 7.4a7.231 7.231 0 0 0-2.2 1.7L23.8 28l2.9 3a8.279 8.279 0 0 0-.7 2.7l-6.7 3.2 7.4.2a.1.1 0 0 0 .1.1l-9.4 12.3 12.3-9.4a6.109 6.109 0 0 0 3 .8l3.2 6.7.2-7.4a7.231 7.231 0 0 0 2.2-1.7l3.9 1.4-2.9-3a8.279 8.279 0 0 0 .7-2.7l6.7-3.2-7.4-.2a.1.1 0 0 0-.1-.1zM33 27.8zm-1.2.3A4.869 4.869 0 0 1 33 28h.8a9.363 9.363 0 0 1 1.6.4l-4.5 3.4-3.4 4.5a3.545 3.545 0 0 1-.3-1.1 5.869 5.869 0 0 1 4.6-7.1zm4.3 11a10.837 10.837 0 0 1-1.9.8 4.868 4.868 0 0 1-1.2.1h-.8a9.363 9.363 0 0 1-1.6-.4l4.5-3.4 3.4-4.5a3.545 3.545 0 0 1 .3 1.1 5.854 5.854 0 0 1-2.7 6.3z" fill="#00aeff"/></svg>