<svg xmlns="http://www.w3.org/2000/svg" viewBox="0 0 64 64" aria-labelledby="title" aria-describedby="desc"><path data-name="layer3" d="M28.7 28.8l23.8-17.4-17.3 23.9z" fill="#202020"/><path data-name="layer2" d="M35.2 35.2L11.5 52.5l17.3-23.7z" fill="#202020"/><path data-name="layer1" d="M32 4.3h-.6l.1 2.9h.6V4.3zm-4.8.4c-.2 0-.5.1-.7.1l.6 2.9c.2 0 .4-.1.6-.1l-.5-2.9zm-4.7 1.2c-.1 0-.2.1-.3.1-.1 0-.2.1-.3.1L23 8.9c.2-.1.4-.1.6-.2l-1.1-2.8zm-4.3 2c-.1.1-.2.2-.3.2a.349.349 0 0 0-.2.1l1.5 2.5a2.186 2.186 0 0 0 .5-.3l-1.5-2.5zm-4 2.8l-.1.1a.1.1 0 0 0-.1.1l-.1.1 1.9 2.2c.2-.1.3-.3.5-.4l-2.1-2.1zm-3.4 3.4c-.1.1-.2.3-.3.4a.1.1 0 0 1-.1.1l2.3 1.8c.1-.2.3-.3.4-.5l-2.3-1.8zM8 18v.1a.367.367 0 0 0-.1.3l2.6 1.4a2.186 2.186 0 0 1 .3-.5L8 18zm-2 4.4v.1c-.1.2-.1.3-.2.5l2.7 1c.1-.2.1-.4.2-.6l-2.7-1zM4.7 27v.4l2.9.4c0-.2.1-.4.1-.6l-3-.2zm-.4 4.8v.5l2.9-.1v-.6l-2.9.2zm3.2 4.4l-2.9.5a.6.6 0 0 0 .1.4l2.9-.6c0 .1 0-.1-.1-.3zm1.1 4.1l-2.8 1c.1.2.2.3.2.5v.1l2.7-1a1.268 1.268 0 0 0-.1-.6zm1.8 3.9l-2.5 1.4.3.6 2.5-1.5a2.186 2.186 0 0 1-.3-.5zm2.4 3.6l-2.3 1.9.2.2.3.3 2.2-1.9a1.756 1.756 0 0 0-.4-.5zm3.1 3.1L14 53.1l.2.2c.1.1.2.2.3.2l1.8-2.3c-.1-.1-.3-.2-.4-.3zm3.5 2.5l-1.5 2.5a.758.758 0 0 0 .4.2.1.1 0 0 1 .1.1l1.4-2.6c-.1 0-.2-.1-.4-.2zm3.9 1.8l-1 2.7a.349.349 0 0 1 .2.1c.1 0 .2.1.4.1l1-2.8a.661.661 0 0 1-.6-.1zm4.1 1.2l-.5 2.9c.2 0 .5.1.7.1l.5-2.9c-.3 0-.5-.1-.7-.1zm4.9.4h-.6v2.9h.4l.2-2.9zm4.3-.4c-.2 0-.4.1-.6.1l.5 2.9h.1a.756.756 0 0 0 .4-.1l-.4-2.9zm4.2-1.2c-.2.1-.4.1-.6.2l1 2.8c.1 0 .1 0 .2-.1.1 0 .2-.1.3-.1l-.9-2.8zm3.9-1.8a2.186 2.186 0 0 0-.5.3l1.4 2.5a2.186 2.186 0 0 0 .5-.3h.1l-1.5-2.5zm3.5-2.6c-.2.1-.3.3-.5.4l1.8 2.3.1-.1c.1-.1.2-.1.2-.2a.1.1 0 0 0 .1-.1l-1.7-2.3zm3-3c-.1.2-.3.3-.4.5l2.2 1.9.1-.1c.1-.1.2-.3.3-.4l-2.2-1.9zm2.4-3.6a2.186 2.186 0 0 1-.3.5l2.5 1.5a.758.758 0 0 0 .2-.4c0-.1.1-.1.1-.2l-2.5-1.4zm1.8-3.9c-.1.2-.1.4-.2.6l2.7 1a1.445 1.445 0 0 0 .2-.7l-2.7-.9zm1.1-4.2c0 .2-.1.4-.1.6l2.9.6c0-.2.1-.5.1-.7l-2.9-.5zm3.2-4.3h-2.9v.6h2.9v-.6zm-.4-4.8l-2.9.5c0 .2.1.4.1.6l2.9-.5a.756.756 0 0 0-.1-.4V27zM58 22.3l-2.7 1c.1.2.1.4.2.6l2.8-.9v-.1c-.2-.3-.2-.5-.3-.6zM56 18l-2.5 1.5a2.186 2.186 0 0 0 .3.5l2.6-1.4a2.092 2.092 0 0 1-.4-.6zm-2.8-3.9L51 16c.1.2.3.3.4.5l2.3-1.8-.1-.1a2.736 2.736 0 0 0-.4-.5zm-3.5-3.4l-1.9 2.2c.2.1.3.3.5.4l1.9-2.2a2.181 2.181 0 0 0-.5-.4zm-3.9-2.8l-1.5 2.5a2.186 2.186 0 0 1 .5.3l1.5-2.5a.1.1 0 0 1-.1-.1.1.1 0 0 1-.1-.1c-.2 0-.2 0-.3-.1zm-4.4-2l-1 2.7c.2.1.4.1.6.2l1.1-2.7c-.1 0-.3-.1-.4-.1a.367.367 0 0 0-.3-.1zm-4.7-1.2l-.5 2.9c.2 0 .4.1.6.1l.6-2.9h-.2a.9.9 0 0 0-.5-.1zm-7-.4h-.4l.6 5.2a1.268 1.268 0 0 0 .6-.1l-.8-5.1zm-4.8.9c-.1 0-.2.1-.3.1-.1 0-.2.1-.3.1l1.4 5a1.087 1.087 0 0 1 .5-.1l-1.3-5.1zm-4.5 1.6c-.1 0-.2.1-.3.1-.1.1-.3.1-.4.2l2.3 4.7c.2-.1.3-.2.5-.2l-2.1-4.8zm-4.2 2.4c-.1 0-.1.1-.2.1-.1.1-.2.1-.3.2l3.1 4.2c.2-.1.3-.2.5-.3l-3.1-4.2zm-3.7 3l-.2.2-.1.1 3.7 3.6.4-.4-3.8-3.5zm-3.2 3.7a1.38 1.38 0 0 0-.3.4c0 .1-.1.1-.1.2l4.3 2.9c.1-.2.2-.3.3-.5l-4.2-3zm-2.4 4.2a.1.1 0 0 1-.1.1c-.1.1-.1.3-.2.4l4.8 2.1c.1-.2.2-.3.2-.5l-4.7-2.1zm-1.7 4.5c-.1.2-.1.4-.2.6l5 1.3a4.331 4.331 0 0 1 .1-.5l-4.9-1.4zm-.9 4.7v.6l5.2.4v-.6l-5.2-.4zm0 4.8v.3l5.2-.5v-.5l-5.2.7zm5.8 3.5l-5 1.3c0 .1.1.2.1.3a.367.367 0 0 0 .1.3l5-1.4a.764.764 0 0 1-.2-.5zm1.3 3.7l-4.7 2.1v.1c.1.1.1.2.2.3a.1.1 0 0 0 .1.1l4.7-2.3c-.2 0-.2-.1-.3-.3zm1.9 3.4L9 47.6c0 .1.1.1.1.2a.1.1 0 0 0 .1.1l.1.1 4.2-3a1.439 1.439 0 0 0-.2-.3zm2.5 3l-3.7 3.6.4.4 3.6-3.7a.747.747 0 0 1-.3-.3zm3 2.6l-3 4.2c.2.1.4.3.6.4l2.9-4.3a2.186 2.186 0 0 1-.5-.3zm3.3 2L19.8 57l.6.3 2.2-4.7a2.186 2.186 0 0 0-.5-.3zm3.7 1.4l-1.4 5c.1 0 .1 0 .2.1.1 0 .3.1.4.1l1.3-5c-.2-.1-.3-.2-.5-.2zm3.8.7l-.5 5.2h.6l.4-5.2c-.1.1-.3 0-.5 0zm4.5 0h-.6l.4 5.2h.6l-.4-5.2zm3.9-.7a4.331 4.331 0 0 0-.5.1l1.3 5.1a6.374 6.374 0 0 1 .7-.2l-1.5-5zm3.6-1.3c-.2.1-.3.2-.5.2l2.1 4.8c.1 0 .1-.1.2-.1.1-.1.3-.1.4-.2l-2.2-4.7zm3.4-2c-.2.1-.3.2-.5.3l2.9 4.3c.2-.1.3-.2.5-.3L45 50.4zm3-2.6l-.4.4 3.6 3.7.2-.2.3-.3-3.7-3.6zm2.5-3c-.1.2-.2.3-.3.5l4.2 3.1c.1-.2.2-.3.3-.5v-.1l-4.2-3zm1.9-3.4c-.1.2-.2.3-.2.5l4.7 2.3a.1.1 0 0 1 .1-.1c0-.1.1-.1.1-.2s.1-.1.1-.2l-4.8-2.3zm1.3-3.7a.764.764 0 0 1-.2.5l5 1.5a.367.367 0 0 1 .1-.3c0-.1.1-.3.1-.4l-5-1.3zm.7-3.8a1.268 1.268 0 0 1-.1.6l5.2.6a.749.749 0 0 1 .1-.5v-.1l-5.2-.6zm5.2-4.4l-5.2.5v.6l5.2-.3v-.8zm-.9-4.7l-5 1.4a4.331 4.331 0 0 0 .1.5l5.1-1.2c0-.1-.1-.3-.1-.4a.438.438 0 0 0-.1-.3zm-1.6-4.6l-4.7 2.2c.1.2.2.3.2.5l4.8-2.1c0-.1-.1-.2-.1-.3-.1-.1-.2-.2-.2-.3zm-2.4-4.1l-4.3 3c.1.2.2.3.3.5l4.3-2.9c0-.1-.1-.1-.1-.2-.1-.2-.2-.3-.2-.4zm-3.2-3.7l-3.7 3.7.4.4 3.8-3.6-.2-.2q0-.15-.3-.3zm-3.6-3.1l-3 4.3c.2.1.3.2.5.3l3.1-4.2-.1-.1-.5-.3zm-4.2-2.4l-2.2 4.7c.2.1.3.2.5.2l2.3-4.7c-.1 0-.2-.1-.3-.1-.2-.1-.2-.1-.3-.1zm-4.5-1.7l-1.4 5a.764.764 0 0 1 .5.2l1.5-5c-.1 0-.1 0-.2-.1a.756.756 0 0 1-.4-.1zm-4.8-.8L34 9.5a1.268 1.268 0 0 1 .6.1l.6-5.2z" fill="#202020"/><path data-name="layer1" d="M32 2.1a30.149 30.149 0 0 1 21.2 8.8 30.041 30.041 0 0 1 6.4 9.5A28.608 28.608 0 0 1 61.9 32a30.149 30.149 0 0 1-8.8 21.2 30.041 30.041 0 0 1-9.5 6.4A28.608 28.608 0 0 1 32 61.9a30.149 30.149 0 0 1-21.2-8.8 30.04 30.04 0 0 1-6.4-9.5A28.608 28.608 0 0 1 2.1 32a30.149 30.149 0 0 1 8.8-21.2 30.041 30.041 0 0 1 9.5-6.4A28.608 28.608 0 0 1 32 2.1M32 0a32 32 0 1 0 32 32A31.966 31.966 0 0 0 32 0z" fill="#202020"/></svg>