<svg xmlns="http://www.w3.org/2000/svg" viewBox="0 0 64 64" aria-labelledby="title" aria-describedby="desc"><path data-name="layer2" d="M40 8.4v34.1h21.4C54.8 24.2 45.2 12.9 40 8.4zM28 28.2a47.5 47.5 0 0 1-13.9 14.3H28z" fill="#202020"/><path data-name="layer1" d="M64 60.5a2 2 0 0 0-3.1-1.7 5.6 5.6 0 0 1-2.8.7 5.8 5.8 0 0 1-3.1-.8 10.5 10.5 0 0 0-9.8 0 6.5 6.5 0 0 1-6.2 0 9.7 9.7 0 0 0-5-1.2 9.7 9.7 0 0 0-4.9 1.2 5.8 5.8 0 0 1-3.1.8 5.8 5.8 0 0 1-3.1-.8 9.7 9.7 0 0 0-4.9-1.2 9.7 9.7 0 0 0-4.9 1.2 5.8 5.8 0 0 1-3.1.8 5.8 5.8 0 0 1-3.1-.8A9.7 9.7 0 0 0 2 57.5a2 2 0 0 0 0 4 5.8 5.8 0 0 1 3.1.8 9.7 9.7 0 0 0 4.9 1.2 9.7 9.7 0 0 0 4.9-1.2 5.8 5.8 0 0 1 3.1-.8 5.8 5.8 0 0 1 3.1.8 9.7 9.7 0 0 0 4.9 1.2 9.7 9.7 0 0 0 4.9-1.2 5.8 5.8 0 0 1 3.1-.8 5.8 5.8 0 0 1 3.1.8 10.5 10.5 0 0 0 9.8 0 6.5 6.5 0 0 1 6.2 0 10.5 10.5 0 0 0 9.8 0 2 2 0 0 0 1.1-1.8zm-52.7-5.4a13.7 13.7 0 0 1 6.7-1.6 13.7 13.7 0 0 1 6.7 1.6 2 2 0 0 0 1.3.4 2 2 0 0 0 1.3-.4 13.7 13.7 0 0 1 6.7-1.6 13.7 13.7 0 0 1 6.7 1.6 2.5 2.5 0 0 0 2.6 0 13.7 13.7 0 0 1 6.7-1.6 14.7 14.7 0 0 1 3 .3 32.1 32.1 0 0 0 5-7.3H36v-44a2 2 0 1 0-4 0v44H8v5.7l3.3 2.9z" fill="#202020"/></svg>