<svg xmlns="http://www.w3.org/2000/svg" viewBox="0 0 64 64" aria-labelledby="title" aria-describedby="desc"><path data-name="layer2" d="M27.6 32c1.8-7.2-2.3-13-9.2-13s-14.1 5.8-16 13 2.3 13 9.2 13 14.1-5.8 16-13z" fill="#f16262"/><path data-name="layer2" d="M41 19H18.3c6.9 0 11.1 5.8 9.2 13s-9 13-15.9 13H41a13 13 0 0 0 0-26z" fill="#f16262"/><path data-name="opacity" d="M44 41H21.8a16 16 0 0 1-10.1 4H41a13 13 0 0 0 11.7-7.4A12.9 12.9 0 0 1 44 41zm-16.4-9c1.8-7.2-2.3-13-9.2-13s-14.1 5.8-16 13 2.3 13 9.2 13 14.1-5.8 16-13z" fill="#101129" opacity=".18"/><path data-name="layer2" fill="#f16262" d="M54 32l8-5.8V37l-8-5z"/><circle data-name="layer1" cx="12" cy="31" r="2" fill="#fff"/><circle data-name="layer1" cx="20" cy="27" r="2" fill="#fff"/><circle data-name="layer1" cx="16" cy="37" r="2" fill="#fff"/><path data-name="stroke" d="M27.6 32c-1.8 7.2-9 13-15.9 13S.6 39.2 2.4 32s9-13 15.9-13 11.1 5.8 9.3 13z" fill="none" stroke="#2f446a" stroke-linecap="round" stroke-linejoin="round" stroke-width="2"/><path data-name="stroke" d="M18.3 19H41a13 13 0 0 1 13 13 13 13 0 0 1-13 13H11.7M54 32l8-5.8V37l-8-5z" fill="none" stroke="#2f446a" stroke-linecap="round" stroke-linejoin="round" stroke-width="2"/><circle data-name="stroke" cx="12" cy="31" r="2" fill="none" stroke="#2f446a" stroke-linecap="round" stroke-linejoin="round" stroke-width="2"/><circle data-name="stroke" cx="20" cy="27" r="2" fill="none" stroke="#2f446a" stroke-linecap="round" stroke-linejoin="round" stroke-width="2"/><circle data-name="stroke" cx="16" cy="37" r="2" fill="none" stroke="#2f446a" stroke-linecap="round" stroke-linejoin="round" stroke-width="2"/></svg>