<svg xmlns="http://www.w3.org/2000/svg" viewBox="0 0 64 64" aria-labelledby="title" aria-describedby="desc"><path data-name="layer2" fill="none" stroke="#202020" stroke-linecap="round" stroke-linejoin="round" stroke-width="2" d="M10 22.5L2 46l8 4m4 6a6 6 0 0 0 11.6 2.2 5 5 0 0 0 9.3-1.2 6 6 0 0 0 10.8-1M54 26.2a10 10 0 0 1 0 19.6"/><path data-name="layer1" d="M32 2C19.4 2 2 3.9 2 14s8 8.5 8 8.5V51a5 5 0 0 0 5 5h34a5 5 0 0 0 5-5V22.4s8-.3 8-8.4S54.3 2 32 2z" fill="none" stroke="#202020" stroke-linecap="round" stroke-linejoin="round" stroke-width="2"/><circle data-name="layer1" cx="19" cy="15" r="1" fill="none" stroke="#202020" stroke-linecap="round" stroke-linejoin="round" stroke-width="2"/><circle data-name="layer1" cx="27" cy="27" r="1" fill="none" stroke="#202020" stroke-linecap="round" stroke-linejoin="round" stroke-width="2"/><circle data-name="layer1" cx="44" cy="20" r="2" fill="none" stroke="#202020" stroke-linecap="round" stroke-linejoin="round" stroke-width="2"/><circle data-name="layer1" cx="42" cy="38" r="2" fill="none" stroke="#202020" stroke-linecap="round" stroke-linejoin="round" stroke-width="2"/><circle data-name="layer1" cx="25" cy="45" r="1" fill="none" stroke="#202020" stroke-linecap="round" stroke-linejoin="round" stroke-width="2"/></svg>