<svg xmlns="http://www.w3.org/2000/svg" viewBox="0 0 64 64" aria-labelledby="title" aria-describedby="desc"><path data-name="layer1" d="M10.1 34.1l19.8 19.8a14.6 14.6 0 0 0-2.1-17.7 14.6 14.6 0 0 0-17.7-2.1z" fill="#202020"/><path data-name="layer2" d="M20.4 52.1a8.5 8.5 0 0 1-8.5-8.5 2 2 0 1 0-4 0 12.5 12.5 0 0 0 12.5 12.5 2 2 0 0 0 0-4z" fill="#202020"/><path data-name="layer2" d="M20.1 60A16.1 16.1 0 0 1 4 43.9a2 2 0 1 0-4 0A20.1 20.1 0 0 0 20.1 64a2 2 0 0 0 0-4z" fill="#202020"/><path data-name="layer1" d="M62.5 46.8L49.7 34.1a1 1 0 0 0-1.4 0l-2.8 2.8-3.5-3.5 5.7-5.7a2 2 0 0 0 0-2.8l-2.8-2.8 6.7-6.7a2 2 0 0 0-2.8-2.8L42 19.3l-2.9-2.9a2 2 0 0 0-2.8 0l-5.7 5.7-3.5-3.5 2.8-2.8a1 1 0 0 0 0-1.4L17.2 1.5a1 1 0 0 0-1.4 0L7.3 10a1 1 0 0 0 0 1.4L20 24.2a1 1 0 0 0 1.4 0l2.8-2.8 3.5 3.5-4.2 4.2a2 2 0 0 0 0 2.8l4.2 4.2 4.3 4.3a2 2 0 0 0 2.8 0l4.2-4.2 3.5 3.5-2.8 2.8a1 1 0 0 0 0 1.4l12.9 12.8a1 1 0 0 0 1.4 0l8.5-8.5a1 1 0 0 0 0-1.4z" fill="#202020"/></svg>