<svg xmlns="http://www.w3.org/2000/svg" viewBox="0 0 64 64" aria-labelledby="title" aria-describedby="desc"><path data-name="layer2" d="M21 51h-1.4a6.7 6.7 0 0 1-6.7-6.7 6.8 6.8 0 0 1 .1-1.1 2 2 0 1 0-4-.6 10.7 10.7 0 0 0 10.6 12.5l2.1-.2A2 2 0 1 0 21 51z" fill="#202020"/><path data-name="layer2" d="M20.7 58.8h-1.2A14.6 14.6 0 0 1 5 44.4v-.8a2 2 0 1 0-4-.2v1a18.6 18.6 0 0 0 18.5 18.5H21a2 2 0 0 0-.3-4z" fill="#202020"/><path data-name="layer1" d="M50.2 24L40.1 13.9a2 2 0 0 0-2.9 0L20 31.2a2 2 0 0 0 0 2.9l3.6 3.6-4.3 4.3a2 2 0 1 0 2.8 2.8l4.3-4.3 3.6 3.6a2 2 0 0 0 2.9 0l17.3-17.2a2 2 0 0 0 0-2.9zm-29.5.7l10.1-10-13-13a2 2 0 0 0-2.9 0L7.8 8.9a2 2 0 0 0 0 2.9zm41.7 21.6l-13-13-10.1 10 13 13a2 2 0 0 0 2.9 0l7.2-7.2a2 2 0 0 0 0-2.8z" fill="#202020"/></svg>