<svg xmlns="http://www.w3.org/2000/svg" viewBox="0 0 64 64" aria-labelledby="title" aria-describedby="desc"><path data-name="layer1" d="M63.2 4.7a2 2 0 0 0-2.7-.7L52 9a14 14 0 0 0-3.3-4.9C46.4 1.9 43.3.8 39.2.8c-9.5 0-20.8 6.2-26.6 12C-1.6 27-1.6 43.1 3.9 48.9A11.2 11.2 0 0 0 9 52.2l-4.7 8A2 2 0 0 0 5 63l1 .3a2 2 0 0 0 1.7-1l4.3-7.4 5.4 6.1a2 2 0 0 0 3-2.6l-5.9-6.8a13.2 13.2 0 0 0 5.6-6.1 24.7 24.7 0 0 0 2.3-8.3c.5-3.5.9-6.5 4.4-10s8.5-4.4 12.6-4.8a19 19 0 0 0 6.2-1.3c1.2-.6 5.1-2.8 6.4-6.6l6.6 5.7a2 2 0 1 0 2.6-3L55 11.8l7.4-4.3a2 2 0 0 0 .8-2.8z" fill="#202020"/></svg>