<svg xmlns="http://www.w3.org/2000/svg" viewBox="0 0 64 64" aria-labelledby="title" aria-describedby="desc"><path data-name="layer2" fill="#ebf5ff" d="M12 34h40v28H12zm16-12h20a2 2 0 0 0 2-2V2H26v18a2 2 0 0 0 2 2z"/><path data-name="layer1" d="M62 10l-8-8h-4v18a2 2 0 0 1-2 2H28a2 2 0 0 1-2-2V2H2v60h10V34h40v28h10z" fill="#7f95ad"/><path data-name="opacity" d="M48 22a2 2 0 0 0 2-2V2h-4v20z" fill="#fff" opacity=".2"/><path data-name="opacity" fill="#000064" opacity=".15" d="M56 59H6V2H2v60h60v-3h-6z"/><path data-name="stroke" fill="none" stroke="#2e4369" stroke-linecap="round" stroke-miterlimit="10" stroke-width="2" d="M52 62V34H12v28m10-18h20m-20 8h16" stroke-linejoin="round"/><path data-name="stroke" fill="none" stroke="#2e4369" stroke-linecap="round" stroke-miterlimit="10" stroke-width="2" d="M54 2l8 8v52H2V2h52zm-12 8v4" stroke-linejoin="round"/><path data-name="stroke" d="M50 2v18a2 2 0 0 1-2 2H28a2 2 0 0 1-2-2V2" fill="none" stroke="#2e4369" stroke-linecap="round" stroke-miterlimit="10" stroke-width="2" stroke-linejoin="round"/></svg>