<svg viewBox="0 0 64 64" xmlns="http://www.w3.org/2000/svg" aria-labelledby="title" aria-describedby="desc"><path fill="#202020" d="M46 26a16 16 0 1 0 16 16 16 16 0 0 0-16-16zm7.422 19.411L46 52.827l-7.422-7.416a2 2 0 0 1 2.828-2.83L44 45.174V34a2 2 0 1 1 4 0v11.174l2.594-2.593a2 2 0 1 1 2.828 2.83z" data-name="layer3"/><path fill="#202020" d="M2 50h25.682A19.977 19.977 0 0 1 54 23.682V20H2z" data-name="layer2"/><path fill="#202020" d="M2 6v10h52V6zm6 7a2 2 0 1 1 2-2 2 2 0 0 1-2 2zm6 0a2 2 0 1 1 2-2 2 2 0 0 1-2 2zm6 0a2 2 0 1 1 2-2 2 2 0 0 1-2 2z" data-name="layer1"/></svg>