<svg xmlns="http://www.w3.org/2000/svg" viewBox="0 0 64 64" aria-labelledby="title" aria-describedby="desc"><path data-name="layer2" d="M41.429 33.492L11.98 4.043a7.027 7.027 0 0 0-9.937 9.937l29.449 29.449a7.015 7.015 0 0 0 9.9 0l.037-.037a7.015 7.015 0 0 0 0-9.9z" fill="#202020"/><path data-name="layer1" d="M63.251 59.569L45 41.316a8.926 8.926 0 0 1-2.156 3.489l-.037.037a8.972 8.972 0 0 1-2.286 1.658 28.859 28.859 0 0 1 2.029 2.141 2.009 2.009 0 0 1 .277 2.213l-.064.128a2.48 2.48 0 0 0 .8 3.057c9.079 6.177 16.647 6.511 19.37 6.388a.5.5 0 0 0 .318-.858z" fill="#202020"/></svg>