<svg viewBox="0 0 64 64" xmlns="http://www.w3.org/2000/svg" aria-labelledby="title" aria-describedby="desc"><path fill="#202020" d="M46 26a16 16 0 1 0 16 16 16 16 0 0 0-16-16zm8 20H44V34a2 2 0 0 1 4 0v8h6a2 2 0 0 1 0 4z" data-name="layer3"/><path fill="#202020" d="M26 42a19.977 19.977 0 0 1 28-18.318V20H2v30h25.682A19.887 19.887 0 0 1 26 42z" data-name="layer2"/><path fill="#202020" d="M2 6v10h52V6zm6 7a2 2 0 1 1 2-2 2 2 0 0 1-2 2zm6 0a2 2 0 1 1 2-2 2 2 0 0 1-2 2zm6 0a2 2 0 1 1 2-2 2 2 0 0 1-2 2z" data-name="layer1"/></svg>