<svg xmlns="http://www.w3.org/2000/svg" viewBox="0 0 64 64" aria-labelledby="title" aria-describedby="desc"><path data-name="layer2" d="M6 20a4 4 0 0 1 4-4h33v8H10a4 4 0 0 1-4-4" fill="#fff"/><path d="M10 16a4 4 0 0 0-3.7 5.5A4 4 0 0 1 10 19h33v-3z" fill="#000064" opacity=".15"/><path data-name="layer3" d="M6 20v38a4 4 0 0 0 4 4h36V24H10a4 4 0 0 1-4-4" fill="#f27e7c"/><path data-name="opacity" d="M10 24a4 4 0 0 1-4-4v38a4 4 0 0 0 4 4h1V24z" fill="#000064" opacity=".15"/><path data-name="layer2" d="M18 6a4 4 0 0 1 4-4h33v8H22a4 4 0 0 1-4-4" fill="#fff"/><path d="M22 2a4 4 0 0 0-3.7 5.5A4 4 0 0 1 22 5h33V2z" fill="#000064" opacity=".15"/><path data-name="layer1" d="M22 10a4 4 0 0 1-4-4v10h25v8h3v24h12V10z" fill="#9cf"/><path data-name="opacity" d="M22 10a4 4 0 0 1-4-4v10h25v8h3v24h5V10z" fill="#000064" opacity=".15"/><path data-name="stroke" d="M18 16V6a4 4 0 0 1 4-4h33v8" fill="none" stroke="#2e4369" stroke-linecap="round" stroke-miterlimit="10" stroke-width="2" stroke-linejoin="round"/><path data-name="stroke" d="M18 6a4 4 0 0 0 4 4h36v38H46" fill="none" stroke="#2e4369" stroke-linecap="round" stroke-miterlimit="10" stroke-width="2" stroke-linejoin="round"/><path data-name="stroke" d="M6 20a4 4 0 0 0 4 4h36v38H10a4 4 0 0 1-4-4V20a4 4 0 0 1 4-4h33v8" fill="none" stroke="#2e4369" stroke-linecap="round" stroke-miterlimit="10" stroke-width="2" stroke-linejoin="round"/></svg>