<svg viewBox="0 0 64 64" xmlns="http://www.w3.org/2000/svg" aria-labelledby="title" aria-describedby="desc"><path fill="#92b5e4" d="M35.2 28.846c6.271 12.423 3.779 25.422-13.2 32.883l13.2-32.883" data-name="layer1"/><path opacity=".2" fill="#000028" d="M35.2 28.846L22 61.729a42.177 42.177 0 0 0 3.592-1.787L36.7 32.274a33.193 33.193 0 0 0-1.5-3.428z" data-name="opacity"/><path fill="#92b5e4" d="M34.538 28.55C22.419 23.187 9.388 26.917 2 43.729L34.538 28.55m4.84-23.914a9 9 0 1 0 0 12.729 9 9 0 0 0 0-12.729zm-2.829 9.9a5 5 0 1 1 0-7.071 5 5 0 0 1 .001 7.071zm22.815 10.098a9 9 0 1 0 0 12.728 9 9 0 0 0 0-12.728zm-2.829 9.9a5 5 0 1 1 0-7.071 5 5 0 0 1 0 7.071z" data-name="layer1"/><circle stroke-width="2" stroke-linejoin="round" stroke-linecap="round" stroke="#2e4369" fill="none" transform="rotate(-45.002 33.015 11)" r="9" cy="11" cx="33.015" data-name="stroke"/><circle stroke-width="2" stroke-linejoin="round" stroke-linecap="round" stroke="#2e4369" fill="none" transform="rotate(-45.002 33.015 11)" r="5" cy="11" cx="33.015" data-name="stroke"/><path stroke-width="2" stroke-linejoin="round" stroke-linecap="round" stroke="#2e4369" fill="none" d="M26.859 17.572C41.6 32.311 44.315 52.193 22 62l13.2-32.884" data-name="stroke"/><circle stroke-width="2" stroke-linejoin="round" stroke-linecap="round" stroke="#2e4369" fill="none" transform="rotate(-45.001 53 30.998)" r="9" cy="30.998" cx="53" data-name="stroke"/><circle stroke-width="2" stroke-linejoin="round" stroke-linecap="round" stroke="#2e4369" fill="none" transform="rotate(-45.002 53 30.998)" r="5" cy="30.998" cx="53" data-name="stroke"/><path stroke-width="2" stroke-linejoin="round" stroke-linecap="round" stroke="#2e4369" fill="none" d="M46.428 37.153C31.689 22.415 11.806 21.684 2 44l32.538-15.18" data-name="stroke"/></svg>