<svg viewBox="0 0 64 64" xmlns="http://www.w3.org/2000/svg" aria-labelledby="title" aria-describedby="desc"><path fill="#92b5e4" d="M39.452 8.343a8 8 0 1 0 0 11.313 8 8 0 0 0 0-11.313zm-2.624 8.485a4 4 0 1 1 0-5.657 4 4 0 0 1 0 5.657zm22.624 11.516a8 8 0 1 0 0 11.313 8 8 0 0 0 0-11.313zm-2.623 8.484a4 4 0 1 1 0-5.656 4 4 0 0 1-.001 5.656zM29 33.267L5.711 39.476s-4.332.878-3.916 8.1l3.916-1.028L26.9 40.87" data-name="layer1"/><path opacity=".2" fill="#000028" d="M26.243 34L24.9 38.869 3.71 44.546l-1.847.485a14.213 14.213 0 0 0-.068 2.544l3.916-1.028L26.9 40.87l2.1-7.603z" data-name="opacity"/><path d="M29.408 58l7.131-26.745-7.542 2.012L22.346 58h7.062z" fill="#92b5e4" data-name="layer1"/><circle stroke-width="2" stroke-linejoin="round" stroke-linecap="round" stroke="#2e4369" fill="none" transform="rotate(-45 34 14)" r="8" cy="14" cx="33.999" data-name="stroke"/><path d="M22.511 58l6.744-24.748m10.582-13.595L29.636 58" stroke-width="2" stroke-linejoin="round" stroke-linecap="round" stroke="#2e4369" fill="none" data-name="stroke"/><circle stroke-width="2" stroke-linejoin="round" stroke-linecap="round" stroke="#2e4369" fill="none" transform="rotate(-44.999 54 34)" r="8" cy="34" cx="53.999" data-name="stroke"/><circle stroke-width="2" stroke-linejoin="round" stroke-linecap="round" stroke="#2e4369" fill="none" transform="rotate(-44.998 54 34)" r="4" cy="34" cx="54" data-name="stroke"/><circle stroke-width="2" stroke-linejoin="round" stroke-linecap="round" stroke="#2e4369" fill="none" transform="rotate(-44.998 34 14)" r="4" cy="14" cx="34" data-name="stroke"/><path stroke-width="2" stroke-linejoin="round" stroke-linecap="round" stroke="#2e4369" fill="none" d="M48.343 28.163L5.916 39.476s-4.332.878-3.916 8.1l3.916-1.028 21.193-5.678M0 58h8m4 0h28m4 0h8m4 0h8" data-name="stroke"/></svg>