<svg xmlns="http://www.w3.org/2000/svg" viewBox="0 0 64 64" aria-labelledby="title" aria-describedby="desc"><path data-name="layer2" d="M62 43.5s-.2-9.9-10-9.9h-4V15.5c0-4.2-4-6-6-6h-4a2 2 0 0 0 0 4h4c.2 0 2 .5 2 2v18.2c0 1.7-1.8 8.5-10.1 8.5h-.2A14 14 0 0 0 20 31.5h-4a14 14 0 0 0-14 14h30.3a2 2 0 0 0 1.5.7 14.3 14.3 0 0 0 8.8-2.7z" fill="#202020"/><path data-name="layer2" d="M16 31.5h4a21 21 0 0 0 9-1.7c3.1-1.8 3.3-6.3-5.1-6.3H2.2c1 6.1 6.8 8 13.8 8z" fill="#202020"/><path data-name="layer1" d="M52 23.5a2 2 0 0 0 2-2v-6a2 2 0 1 0-4 0v6a2 2 0 0 0 2 2zm-38 31a8 8 0 0 0 7.4-5H6.6a8 8 0 0 0 7.4 5zm38 0a8 8 0 0 0 7.9-7H44a8 8 0 0 0 8 7z" fill="#202020"/></svg>