<svg xmlns="http://www.w3.org/2000/svg" viewBox="0 0 64 64" aria-labelledby="title" aria-describedby="desc"><path data-name="layer2" d="M16 30A14 14 0 0 0 2 44h32a14 14 0 0 0-14-14z" fill="#b9d359"/><path data-name="layer1" d="M23.9 22H2c1 6.1 6.9 8 13.9 8h4a21.2 21.2 0 0 0 9.1-1.7c3.1-1.7 3.4-6.3-5.1-6.3z" fill="#7b8baf"/><path data-name="layer2" d="M62 42s-.2-10-10-10h-6v.2a11.1 11.1 0 0 1-7.5 9.8H62z" fill="#b9d359"/><path data-name="layer1" d="M22 44a8 8 0 1 1-16 0zm36.7-2a8 8 0 1 1-15.5 0z" fill="#7b8baf"/><path data-name="opacity" d="M15.9 30h4a21.2 21.2 0 0 0 9.1-1.7 4.3 4.3 0 0 0 1.5-1.3H17c-8.8 0-13-5-13-5H2c1 6.1 6.9 8 13.9 8z" fill="#000064" opacity=".15"/><path d="M49 34c7 0 9.1 5.1 9.7 8H62s-.2-10-10-10h-6v.2a7.9 7.9 0 0 1-.2 1.8zm-9.9 8l.4-.4-1 .4h.6z" fill="#fff" data-name="opacity" opacity=".25"/><path data-name="opacity" d="M58.7 42H43.3a7.9 7.9 0 0 0 0 4h15.4a7.9 7.9 0 0 0 0-4zM6 44a8 8 0 0 0 1.1 4h13.8a8 8 0 0 0 1.1-4z" fill="#000064" opacity=".2"/><path data-name="opacity" d="M16 30A14 14 0 0 0 2 44h7c0-5.3 2.3-10.9 6.4-10.9h13.4A13.9 13.9 0 0 0 20 30z" fill="#000064" opacity=".15"/><path data-name="stroke" d="M22 44a8 8 0 1 1-16 0m52.7-2a8 8 0 1 1-15.5 0M38 10h4c1.1 0 4 1.2 4 4v18.2c0 3.2-2.9 10.5-12.1 10.5" fill="none" stroke="#2e4369" stroke-linecap="round" stroke-linejoin="round" stroke-width="2"/><path data-name="stroke" d="M46 32h6c9.7 0 10 10 10 10H38.5M16 30A14 14 0 0 0 2 44h32a14 14 0 0 0-14-14z" fill="none" stroke="#2e4369" stroke-linecap="round" stroke-linejoin="round" stroke-width="2"/><path data-name="stroke" d="M23.9 22H2c1 6.1 6.9 8 13.9 8h4a21.2 21.2 0 0 0 9.1-1.7c3.1-1.7 3.4-6.3-5.1-6.3zM51 15v6" fill="none" stroke="#2e4369" stroke-linecap="round" stroke-linejoin="round" stroke-width="2"/></svg>