<svg xmlns="http://www.w3.org/2000/svg" viewBox="0 0 64 64" aria-labelledby="title" aria-describedby="desc"><path data-name="layer2" d="M61.225.588L51.28 4.646a1 1 0 0 0-.6.735l-.95 4.883a1 1 0 0 1-.275.516L34.793 25.44l3.835 3.835 14.707-14.706a1 1 0 0 1 .523-.276l4.843-.908a1 1 0 0 0 .73-.578l4.291-9.684a1 1 0 0 0-.207-1.112l-1.2-1.2a1 1 0 0 0-1.09-.223z" fill="#202020"/><path data-name="layer1" d="M13.88 61.627l14.66-14.66a8.071 8.071 0 0 0 2.266-4.484l7.08-4.911a2.914 2.914 0 0 0 .473-4.566l-7.3-7.3a2.914 2.914 0 0 0-4.566.473l-4.851 6.994a8.074 8.074 0 0 0-4.612 2.284L2.373 50.12A8.136 8.136 0 1 0 13.88 61.627z" fill="#202020"/></svg>