<svg xmlns="http://www.w3.org/2000/svg" viewBox="0 0 64 64" aria-labelledby="title" aria-describedby="desc"><path data-name="layer2" fill="none" stroke="#202020" stroke-linecap="round" stroke-miterlimit="10" stroke-width="2" d="M36.651 31.653l15.675-15.675 5.245-.983L62 5l-2-2-10.243 4.18-1.029 5.292-15.629 15.629" stroke-linejoin="round"/><path data-name="layer1" d="M15.584 59.761L29.16 46.184a7.474 7.474 0 0 0 2.1-4.152l6.557-4.548a2.7 2.7 0 0 0 .438-4.229L31.5 26.5a2.7 2.7 0 0 0-4.229.438l-4.493 6.477a7.477 7.477 0 0 0-4.278 2.113L4.928 49.1a7.535 7.535 0 0 0 10.656 10.661z" fill="none" stroke="#202020" stroke-linecap="round" stroke-miterlimit="10" stroke-width="2" stroke-linejoin="round"/></svg>