<svg xmlns="http://www.w3.org/2000/svg" viewBox="0 0 64 64" aria-labelledby="title" aria-describedby="desc"><path data-name="layer1" d="M22.205 43.24c-6.057-2.55-12.319-5.186-17.449-9.162A30.216 30.216 0 0 1 0 29.523v19.091a11.364 11.364 0 0 1 1.46-.1 11.4 11.4 0 0 1 11.4 11.4 11.374 11.374 0 0 1-.752 4.075h19.768a12.638 12.638 0 0 0 4.677-2.469c1.036-.932 2.224-2.439 2.224-5.839 0-4.932-5.307-7.706-16.572-12.447zM57.382-.006h-6.73c.311.312.582.595.817.843a11.4 11.4 0 1 1-18.224 6.014c-2.752-1.823-5.922-3.315-8.845-3.315a18.529 18.529 0 0 0-9.35 2.684 8.435 8.435 0 0 0-4.209 7.755c0 6.017 5.678 9.066 17.73 14.138 5.8 2.441 11.8 4.965 16.659 8.656 6.608 5.015 9.959 11.38 9.959 18.918a26.271 26.271 0 0 1-1.289 8.307h3.482A6.618 6.618 0 0 0 64 57.377V6.612a6.618 6.618 0 0 0-6.618-6.618zm0 0" fill="#0088c3"/></svg>