<svg xmlns="http://www.w3.org/2000/svg" viewBox="0 0 64 64" aria-labelledby="title" aria-describedby="desc"><path data-name="layer2" d="M40 6.1c0 9.6 4.9 17.5 16.4 19.3C61.8 17.5 62 8.9 62 2.3c0 0-11.6-2-22 3.8z" fill="#d5e2f4"/><path data-name="layer1" d="M56.3 25.4c.3 4.9-2.2 14.2-7.2 19-2.3-5.2-7.6-7.4-7.1-7.3M36.3 8.2c-11.4 0-20 8.7-20 8.7s9.8.9 10.1 4.4" fill="#8fa9d8"/><ellipse data-name="layer1" cx="51.9" cy="11.7" rx="2" ry="2.1" fill="#8fa9d8"/><path data-name="layer1" d="M14.7 62c1.2-4.5 2.2-10.1 3.5-16.3A124.8 124.8 0 0 1 2 48.8S13.1 52.5 14.7 62zM40 6.1a27.9 27.9 0 0 0-9 7.8c-7.1 9.5-10.4 21.3-12.7 31.8A122.7 122.7 0 0 0 42 37.2c6.9-3.4 11.4-7.5 14.3-11.8C44.9 23.6 40 15.7 40 6.1z" fill="#8fa9d8"/><path data-name="opacity" d="M56.3 25.4C61.7 17.5 62 8.9 62 2.3c0 0-.8 9.4-11.8 21.3a23.2 23.2 0 0 0 6.1 1.8zM14.7 62c1.2-4.5 2.2-10.1 3.5-16.3l-8.1 8.1a14.6 14.6 0 0 1 4.6 8.2z" fill="#101129" opacity=".18"/><path data-name="opacity" d="M56.3 25.4a23.2 23.2 0 0 1-6.1-1.8c-6.5 7-16.5 14.8-32 22.1A122.7 122.7 0 0 0 42 37.2c.2.2 5 2.4 7.2 7.3 5-4.8 7.5-14.2 7.1-19.1z" fill="#101129" opacity=".18"/><path data-name="stroke" d="M56.3 25.4c.3 4.9-2.2 14.2-7.2 19-2.3-5.2-7.6-7.4-7.1-7.3M36.3 8.2c-11.4 0-20 8.7-20 8.7s9.8.9 10.1 4.4" fill="none" stroke="#2f446a" stroke-linecap="round" stroke-linejoin="round" stroke-width="2"/><ellipse data-name="stroke" cx="51.9" cy="11.7" rx="2" ry="2.1" fill="none" stroke="#2f446a" stroke-linecap="round" stroke-linejoin="round" stroke-width="2"/><path data-name="stroke" d="M40 6.1a28 28 0 0 0-9 7.8c-7.1 9.5-10.4 21.3-12.7 31.8A122.8 122.8 0 0 0 42 37.2c6.9-3.4 11.4-7.5 14.3-11.8M14.7 62c1.2-4.5 2.2-10.1 3.5-16.3A125.1 125.1 0 0 1 2 48.8S13.1 52.5 14.7 62z" fill="none" stroke="#2f446a" stroke-linecap="round" stroke-linejoin="round" stroke-width="2"/><path data-name="stroke" d="M40 6.1c0 9.6 4.9 17.5 16.4 19.3C61.8 17.5 62 8.9 62 2.3c0 0-11.6-2-22 3.8z" fill="none" stroke="#2f446a" stroke-linecap="round" stroke-linejoin="round" stroke-width="2"/></svg>