<svg xmlns="http://www.w3.org/2000/svg" viewBox="0 0 64 64" aria-labelledby="title" aria-describedby="desc"><path data-name="layer2" d="M37.1 6.7l-.7.5h-.1c-11.7 0-20.4 8.6-20.7 9a1 1 0 0 0 .6 1.7c3.5.3 8.6 1.6 9.2 3.3-4 7.7-6.2 16.1-7.9 23.7a123.8 123.8 0 0 1-15.6 2.9 1 1 0 0 0-.2 1.9c.1 0 10.6 3.6 12.1 12.4a1 1 0 0 0 .9.8 1 1 0 0 0 1-.7c.7-2.8 1.4-6.1 2.1-9.6l1.3-6.1a122.8 122.8 0 0 0 22.8-8.2 14.8 14.8 0 0 1 6.3 6.5 1 1 0 0 0 .7.6h.2a1 1 0 0 0 .7-.3c4.4-4.2 6.9-11.4 7.4-16.7H57c-12.1-1.8-19.3-9.7-19.9-21.7z" fill="#202020"/><path data-name="layer1" d="M62.2 1.4A33 33 0 0 0 57 1a37.3 37.3 0 0 0-16 3.5 2 2 0 0 1 0 .5c0 6.3 2.1 17.3 16.5 19.5h.5c5-8.1 5-16.7 5-22.3a1 1 0 0 0-.8-.8zM54 13.8a3 3 0 0 1-2.1.9 3 3 0 1 1 2.1-.9z" fill="#202020"/></svg>