<svg xmlns="http://www.w3.org/2000/svg" viewBox="0 0 64 64" aria-labelledby="title" aria-describedby="desc"><path data-name="layer2" d="M36 43a10 10 0 0 1 18-6V15H22V9H2v40.3A1.7 1.7 0 0 0 3.7 51H40a10 10 0 0 1-4-8z" fill="#f8da82"/><circle data-name="layer1" cx="46" cy="43" r="10" fill="#fff"/><path data-name="opacity" d="M46 33a10 10 0 0 0-8 4 10 10 0 0 1 14 14 10 10 0 0 0-6-18z" fill="#000064" opacity=".1"/><path data-name="opacity" d="M39.2 50.3l-.3-.3-.5-.5-.3-.4-.4-.5-.3-.5A9.9 9.9 0 0 1 39.9 35 10 10 0 0 0 31 45a9.9 9.9 0 0 0 .5 3H7.7A1.7 1.7 0 0 1 6 46.3V9H2v40.3A1.7 1.7 0 0 0 3.7 51H40z" fill="#000064" opacity=".15"/><path data-name="stroke" d="M54 37V15H22V9H2v40.3A1.7 1.7 0 0 0 3.7 51h36.4" fill="none" stroke="#2e4369" stroke-linecap="round" stroke-miterlimit="10" stroke-width="2" stroke-linejoin="round"/><circle data-name="stroke" cx="46" cy="43" r="10" fill="none" stroke="#2e4369" stroke-linecap="round" stroke-miterlimit="10" stroke-width="2" stroke-linejoin="round"/><path data-name="stroke" fill="none" stroke="#2e4369" stroke-linecap="round" stroke-miterlimit="10" stroke-width="2" d="M53.1 50l8.9 9" stroke-linejoin="round"/></svg>