<svg xmlns="http://www.w3.org/2000/svg" viewBox="0 0 64 64" aria-labelledby="title" aria-describedby="desc"><path data-name="layer2" d="M62.4 58.6L54.8 51a12 12 0 1 0-2.8 2.8l7.6 7.6a2 2 0 0 0 2.8-2.8zM37 44a8 8 0 1 1 8 8 8 8 0 0 1-8-8z" fill="#202020"/><path data-name="layer1" d="M45 28a15.9 15.9 0 0 1 8 2.2V20H1v12h33.5A15.9 15.9 0 0 1 45 28zm-35 1a3 3 0 1 1 3-3 3 3 0 0 1-3 3zm17-3a2 2 0 0 1 2-2h16a2 2 0 0 1 0 4H29a2 2 0 0 1-2-2zm2 18a2 2 0 0 1 0-4h.5a15.9 15.9 0 0 1 1.6-4H1v12a2 2 0 0 0 2 2h27.2a15.9 15.9 0 0 1-1.2-6zm-19 1a3 3 0 1 1 3-3 3 3 0 0 1-3 3zM53 4a2 2 0 0 0-2-2H3a2 2 0 0 0-2 2v12h52zm-43 9a3 3 0 1 1 3-3 3 3 0 0 1-3 3zm35-1H29a2 2 0 0 1 0-4h16a2 2 0 0 1 0 4z" fill="#202020"/></svg>