<svg xmlns="http://www.w3.org/2000/svg" viewBox="0 0 64 64" aria-labelledby="title" aria-describedby="desc"><path data-name="layer3" d="M43 32a10.9 10.9 0 0 1 5.8 1.6 24 24 0 1 0-15.2 15.2A11 11 0 0 1 43 32z" fill="#c3d6f9"/><path data-name="layer2" d="M48.8 33.6A11 11 0 1 0 54 43a10.9 10.9 0 0 0-5.2-9.4z" fill="#fff"/><path data-name="opacity" d="M33.5 48.8a11 11 0 0 1 .9-12.8 11 11 0 0 0-6.5 10 10.9 10.9 0 0 0 .7 3.8 23.9 23.9 0 0 0 4.9-1.1z" fill="#000032" opacity=".2"/><path data-name="layer1" d="M51.1 35.6a11.1 11.1 0 0 0-2.3-1.9 11 11 0 0 0-15.2 15.1 11.1 11.1 0 0 0 1.9 2.3 30 30 0 0 0 15.6-15.5z" fill="#e0eafc"/><path data-name="opacity" d="M13.2 26c0-13.3 5.7-24 12.8-24a24 24 0 0 0 0 48c-7.1 0-12.8-10.7-12.8-24z" fill="#000032" opacity=".2"/><circle data-name="stroke" cx="43" cy="43" r="11" fill="none" stroke="#2e4369" stroke-linecap="round" stroke-linejoin="round" stroke-width="2"/><path data-name="stroke" fill="none" stroke="#2e4369" stroke-linecap="round" stroke-linejoin="round" stroke-width="2" d="M50.8 50.8L62 62M33.6 48.8a24 24 0 1 1 15.2-15.2"/><path data-name="stroke" d="M32.6 46.6A9 9 0 0 1 26 50c-7.1 0-12.8-10.7-12.8-24S18.9 2 26 2s12.8 10.7 12.8 24a43.7 43.7 0 0 1-.6 7.1M2 26h48M26 2v48" fill="none" stroke="#2e4369" stroke-linecap="round" stroke-linejoin="round" stroke-width="2"/></svg>