<svg xmlns="http://www.w3.org/2000/svg" viewBox="0 0 64 64" aria-labelledby="title" aria-describedby="desc"><circle data-name="layer3" cx="24" cy="24" r="22" fill="#7b8baf"/><circle data-name="layer2" cx="24" cy="24" r="16" fill="#f3f8ff"/><path data-name="opacity" d="M24 8a15.974 15.974 0 0 0-13.129 6.87A15.988 15.988 0 0 1 33.13 37.13 15.993 15.993 0 0 0 24 8z" opacity=".15"/><path data-name="layer1" d="M41.54 37.285L61.122 56.88a3 3 0 0 1-4.244 4.242l-19.58-19.593" fill="#536897"/><circle data-name="stroke" cx="24" cy="24" r="22" fill="none" stroke="#2e4369" stroke-linecap="round" stroke-linejoin="round" stroke-width="2"/><circle data-name="stroke" cx="24" cy="24" r="16" fill="none" stroke="#2e4369" stroke-linecap="round" stroke-linejoin="round" stroke-width="2"/><path data-name="stroke" d="M41.54 37.285L61.122 56.88a3 3 0 0 1-4.244 4.242l-19.58-19.593" fill="none" stroke="#2e4369" stroke-linecap="round" stroke-linejoin="round" stroke-width="2"/></svg>