<svg xmlns="http://www.w3.org/2000/svg" viewBox="0 0 64 64" aria-labelledby="title" aria-describedby="desc"><path data-name="layer2" d="M58 46V36a8 8 0 0 0-16 0v10h-4v16h24V46zm-6 10a2 2 0 0 1-4 0v-4a2 2 0 1 1 4 0zm-6-10V36a4 4 0 0 1 8 0v10z" fill="#202020"/><path data-name="layer1" d="M34 46v-4h4v-1.2l-1.5-.4c-4.3-1.6-4-3.7-4-4.8V34a14.6 14.6 0 0 0 4.2-7c2.5 0 3-5.1 3-5.8s.1-3.8-2.4-3.8C42.6 4.5 28.4-2.3 17.8 5.1c-4.4 0-4.7 5.9-3.1 12.3-2.5 0-2.4 3-2.4 3.8s.6 5.8 3 5.8a14.5 14.5 0 0 0 4.2 7v1.6c0 1.6 0 4-8.1 5.6S2 50 2 50h32z" fill="#202020"/></svg>