<svg xmlns="http://www.w3.org/2000/svg" viewBox="0 0 64 64" aria-labelledby="title" aria-describedby="desc"><path data-name="layer2" d="M58 46V36a8 8 0 1 0-16 0v10h-4v16h24V46zm-6 10a2 2 0 1 1-4 0v-4a2 2 0 1 1 4 0zm-6-10V36a4 4 0 1 1 8 0v10z" fill="#202020"/><path data-name="layer1" d="M34 46v-4h4v-.7l-.7-.3-2.6-.9C30.4 38.6 30 37.3 30 36v-2a49.4 49.4 0 0 0 8.4-1.2 11.9 11.9 0 0 1 1.3-3C37.5 27.5 36 24.4 36 14S28.8 1.2 22 2.4 12 8 12 14c0 13.7-2.7 14.7-6 18a61.4 61.4 0 0 0 12 2v2c0 1.6-.5 3.5-8.6 5.2A9.2 9.2 0 0 0 2 50h32z" fill="#202020"/></svg>