<svg xmlns="http://www.w3.org/2000/svg" viewBox="0 0 64 64" aria-labelledby="title" aria-describedby="desc"><path data-name="layer2" d="M58 44v-8a8 8 0 1 0-16 0v8h-4v18h24V44zm-6 11a2 2 0 1 1-4 0v-4a2 2 0 1 1 4 0zm-6-11v-8a4 4 0 1 1 8 0v8z" fill="#202020"/><path data-name="layer1" d="M40 2H24v16h16zm-4 10a2 2 0 1 1-4 0V8a2 2 0 1 1 4 0z" fill="#202020"/><path data-name="layer1" d="M50 24l2 .2V8.7L45.3 2H44v16.3a3.7 3.7 0 0 1-3.7 3.7H23.7a3.7 3.7 0 0 1-3.7-3.7V2H2v50h6V26h35.4a11.9 11.9 0 0 1 6.6-2z" fill="#202020"/><path data-name="layer1" d="M34 44v-4h4v-4a11.9 11.9 0 0 1 1.6-6H12v22h22z" fill="#202020"/></svg>