<svg xmlns="http://www.w3.org/2000/svg" viewBox="0 0 64 64" aria-labelledby="title" aria-describedby="desc"><path data-name="layer2" d="M44 46v-7a7 7 0 0 1 12-4.9V16H2v36h38v-6z" fill="#fff4e3"/><path data-name="opacity" fill="#000064" opacity=".14" d="M2 16l27 20.6L56 16v1.5L26 44 2 20.5V16z"/><path data-name="layer1" fill="#9cf" d="M40 46h22v16H40z"/><path data-name="opacity" d="M40 46h4v-7a7 7 0 0 1 3.2-5.9H46a7 7 0 0 0-7 7v7h-4v5h5z" fill="#000064" opacity=".14"/><path data-name="stroke" fill="none" stroke="#2e4369" stroke-linecap="round" stroke-miterlimit="10" stroke-width="2" d="M40 52H2V16h54v18.1" stroke-linejoin="round"/><path data-name="stroke" fill="none" stroke="#2e4369" stroke-linecap="round" stroke-miterlimit="10" stroke-width="2" d="M2 16l27 20.6L56 16M40 46h22v16H40z" stroke-linejoin="round"/><path data-name="stroke" d="M44 46v-7a7 7 0 0 1 7-7 7 7 0 0 1 7 7v7m-7 6v5" fill="none" stroke="#2e4369" stroke-linecap="round" stroke-miterlimit="10" stroke-width="2" stroke-linejoin="round"/></svg>