<svg xmlns="http://www.w3.org/2000/svg" viewBox="0 0 64 64" aria-labelledby="title" aria-describedby="desc"><path data-name="layer2" fill="#fc6" d="M38 46h24v16H38z"/><path data-name="opacity" fill="#000064" opacity=".15" d="M38 46h4v16h-4z"/><path data-name="opacity" fill="#fff" opacity=".15" d="M59 46h3v16h-3z"/><path data-name="layer1" d="M48 46a19.4 19.4 0 0 0-4-3c-2-1-7.4-1.5-9.5-2.6A3.7 3.7 0 0 1 32 37v-2a14.1 14.1 0 0 0 4-7c2.5 0 4-3 4-6 0-.8 0-4-2-4C43 3.5 28.4-2 18 5c-4.4 0-5.6 6.6-4 13-2 0-2 3.2-2 4 0 3 1.5 6 4 6a13.7 13.7 0 0 0 4 7v2c0 1.6-.5 3.6-8.6 5.2S2 51 2 51h36v-5z" fill="#a5d0ec"/><path data-name="opacity" fill="#000064" opacity=".15" d="M33 47h5v4h-5zM20 28c.8 3 4.1 5.3 6 7v2c0 1.6-.5 3.6-8.6 5.2S8 51 8 51H2s0-7 9.4-8.8S20 38.6 20 37v-2a13.6 13.6 0 0 1-4-7c-2.5 0-4-3-4-6 0-.8 0-4 2-4-1.6-6.4-.4-13 4-13a16.7 16.7 0 0 1 12.5-2.7A17.8 17.8 0 0 0 24 5c-4.4 0-7.6 6.6-6 13 0 0-1 8 2 10z"/><path data-name="stroke" d="M38 51H2s0-7 9.4-8.8S20 38.6 20 37v-2a14.2 14.2 0 0 1-4-7c-2.5 0-4-3-4-6 0-.8 0-4 2-4-1.6-6.4-.4-13 4-13 10.4-7 25-1.5 20 13 2 0 2 3.2 2 4 0 3-1.5 6-4 6a14.1 14.1 0 0 1-4 7v2a3.7 3.7 0 0 0 2.5 3.4c2.2 1 7.9 1.8 9.5 2.6" fill="none" stroke="#2e4369" stroke-linecap="round" stroke-linejoin="round" stroke-width="2"/><path data-name="stroke" fill="none" stroke="#2e4369" stroke-linecap="round" stroke-linejoin="round" stroke-width="2" d="M38 46h24v16H38zm6 0V36a6 6 0 0 1 6-6 6 6 0 0 1 6 6v10m-6 6v4"/></svg>