<svg xmlns="http://www.w3.org/2000/svg" viewBox="0 0 64 64" aria-labelledby="title" aria-describedby="desc"><path data-name="layer2" d="M44 46V36a6 6 0 0 1 2-4.5V2H2v56h36V46z" fill="#ebf5ff"/><path data-name="opacity" fill="#000064" opacity=".1" d="M33 55H6V2H2v56h36V48h-5v7zm12-23a6 6 0 0 0-6 6v8h5V36a6 6 0 0 1 1.5-4z"/><path data-name="layer1" fill="#f8da82" d="M38 46h24v16H38z"/><path data-name="stroke" fill="none" stroke="#2e4369" stroke-linecap="round" stroke-miterlimit="10" stroke-width="2" d="M38 58H2V2h44v29.5M12 2v8m-2 0h4m10-8v8m-2 0h4m10-8v8m-2 0h4" stroke-linejoin="round"/><path data-name="stroke" fill="none" stroke="#2e4369" stroke-linecap="round" stroke-miterlimit="10" stroke-width="2" d="M38 46h24v16H38zm6 0V36a6 6 0 0 1 6-6 6 6 0 0 1 6 6v10m-6 6v4" stroke-linejoin="round"/></svg>