<svg xmlns="http://www.w3.org/2000/svg" viewBox="0 0 64 64" aria-labelledby="title" aria-describedby="desc"><path data-name="layer2" fill="#202020" d="M23 18.5l-6.3 26.6 15.9-12.4L23 18.5zM45.7 34L55 45.5l6.1-25.8L45.7 34zm-4.3-1.4l.3-.3h.1L59.2 16h-33l12.6 18.9zm-1.6 6.9a2 2 0 0 1-1.4.5h-.2a2 2 0 0 1-1.4-.9l-2-3L19.5 48h32.4l-9.2-11.2z"/><path data-name="layer1" d="M13.9 22H2a2 2 0 0 0 0 4h11.9a2 2 0 0 0 0-4zM12 30H2a2 2 0 0 0 0 4h10a2 2 0 0 0 0-4zm-2 8H2a2 2 0 0 0 0 4h8a2 2 0 0 0 0-4z" fill="#202020"/></svg>