<svg xmlns="http://www.w3.org/2000/svg" viewBox="0 0 64 64" aria-labelledby="title" aria-describedby="desc"><path data-name="layer2" d="M9 32v16a14 14 0 0 0 28 0v-7m-1.089-22.664c-1.231 4.378-4.751 7.559-3.726 10.909a3.942 3.942 0 0 0 2.869 2.646A4.006 4.006 0 0 0 40 28c0-2.915-2.833-5.831-3.911-9.664a.091.091 0 0 0-.178 0z" fill="none" stroke="#202020" stroke-linecap="round" stroke-miterlimit="10" stroke-width="2" stroke-linejoin="round"/><path data-name="layer1" d="M48 41H36a10 10 0 0 1-10-10V11a4 4 0 0 1 4-4h24a4 4 0 0 1 4 4v20a10 10 0 0 1-10 10zm-.083-34A6 6 0 0 0 42 2a6 6 0 0 0-5.917 5M58 15H26" fill="none" stroke="#202020" stroke-linecap="round" stroke-miterlimit="10" stroke-width="2" stroke-linejoin="round"/><path data-name="layer2" d="M9.36 22h-.72a2 2 0 0 0-1.961 1.608l-1.2 6A2 2 0 0 0 7.44 32h3.12a2 2 0 0 0 1.961-2.392l-1.2-6A2 2 0 0 0 9.36 22zM9 22v-3.875" fill="none" stroke="#202020" stroke-linecap="round" stroke-miterlimit="10" stroke-width="2" stroke-linejoin="round"/><path data-name="layer1" d="M43 41v4a2 2 0 0 0 2 2h2a2 2 0 0 0 2-2v-4m9-9h-5m5-6h-6m6-6h-5" fill="none" stroke="#202020" stroke-linecap="round" stroke-miterlimit="10" stroke-width="2" stroke-linejoin="round"/></svg>