<svg viewBox="0 0 64 64" xmlns="http://www.w3.org/2000/svg" aria-labelledby="title" aria-describedby="desc"><path fill="#202020" d="M58.614 49.088a11.8 11.8 0 0 0 .188-2.082 11.92 11.92 0 0 0-.223-2.254l3.086-1.781-4-6.93-3.133 1.809a12.01 12.01 0 0 0-3.73-2.145v-3.7h-8v3.7a12 12 0 0 0-3.7 2.117l-3.082-1.781-4 6.93 3.012 1.738a11.748 11.748 0 0 0-.23 2.3 11.91 11.91 0 0 0 .2 2.125l-3.312 1.91 4 6.93 3.281-1.895a12.01 12.01 0 0 0 3.829 2.232v3.7h8v-3.7a12.1 12.1 0 0 0 3.871-2.262L58 57.971l4-6.93zm-11.771 2.918a5 5 0 1 1 5-5 5 5 0 0 1-5 5z" data-name="layer2"/><path fill="#202020" d="M28.938 40.311L31.426 36H2v12a2 2 0 0 0 2 2h23.823a4 4 0 0 1 1.863-2.424l1.115-.643v-.046l-.781-.451a4.21 4.21 0 0 1-1.864-2.43 4.892 4.892 0 0 1 .782-3.695zM11 45a3 3 0 1 1 3-3 3 3 0 0 1-3 3zm31.8-16.994h8a3.981 3.981 0 0 1 3.2 1.619V20H2v12h36.8a4 4 0 0 1 4-3.994zM11 29a3 3 0 1 1 3-3 3 3 0 0 1-3 3zm17-3a2 2 0 0 1 2-2h16a2 2 0 0 1 0 4H30a2 2 0 0 1-2-2zM54 4a2 2 0 0 0-2-2H4a2 2 0 0 0-2 2v12h52zm-43 9a3 3 0 1 1 3-3 3 3 0 0 1-3 3zm35-1H30a2 2 0 0 1 0-4h16a2 2 0 0 1 0 4z" data-name="layer1"/></svg>