<svg viewBox="0 0 64 64" xmlns="http://www.w3.org/2000/svg" aria-labelledby="title" aria-describedby="desc"><path fill="#8fa9d8" d="M46.8 42a5 5 0 0 0-4 8h8a5 5 0 0 0-4-8z" data-name="layer3"/><path fill="#8fa9d8" d="M34.8 47a11.7 11.7 0 0 1 .2-2.3L32 43l4-6.9 3.1 1.8a7.8 7.8 0 0 1 3.9-2.2V32h8v3.7a22.5 22.5 0 0 1 3 1.7V4a2 2 0 0 0-2-2H4a2 2 0 0 0-2 2v44a2 2 0 0 0 2 2h29.5l1.5-.9a11.9 11.9 0 0 1-.2-2.1z" data-name="layer3"/><path opacity=".18" fill="#000064" d="M6 48V4a2 2 0 0 1 2-2H4a2 2 0 0 0-2 2v44a2 2 0 0 0 2 2h4a2 2 0 0 1-2-2z" data-name="opacity"/><circle fill="#44d88d" r="1" cy="10" cx="11" data-name="layer2"/><circle fill="#44d88d" r="1" cy="26" cx="11" data-name="layer2"/><circle fill="#44d88d" r="1" cy="42" cx="11" data-name="layer2"/><path fill="#a6b1c9" d="M58.6 49.1a11.8 11.8 0 0 0 .2-2.1 11.9 11.9 0 0 0-.2-2.3l3.1-1.7-4-6.9-3 1.8a18.2 18.2 0 0 0-3.7-2.2V32h-8v3.7a7.8 7.8 0 0 0-3.8 2.1L36.1 36 32 43l3 1.7a11.7 11.7 0 0 0-.2 2.3 11.9 11.9 0 0 0 .2 2.1L31.7 51l4 6.9 3.4-1.9a8.3 8.3 0 0 0 3.9 2.3V62h8v-3.7a19.2 19.2 0 0 0 3.8-2.3l3.2 2 4-7zM46.8 52a5 5 0 1 1 5-5 5 5 0 0 1-5 5z" data-name="layer1"/><path opacity=".18" fill="#000064" d="M39 37.7h.2a7.8 7.8 0 0 1 3.8-2V34h-4zm-4 11.4a11.9 11.9 0 0 1-.2-2.1 11.7 11.7 0 0 1 .2-2.3L32 43l2.2-3.8-1.9-1.2-4 6.9 3 1.7a11.7 11.7 0 0 0-.2 2.3v1h2.3zM46.8 42a5 5 0 0 0-4 2h.3a5 5 0 0 1 4.9 6h2.7a5 5 0 0 0-4-8z" data-name="opacity"/><path stroke-width="2" stroke-linejoin="round" stroke-linecap="round" stroke="#2e4369" fill="none" d="M58.6 49.1a11.8 11.8 0 0 0 .2-2.1 11.9 11.9 0 0 0-.2-2.3l3.1-1.7-4-6.9-3 1.8a18.2 18.2 0 0 0-3.7-2.2V32h-8v3.7a7.8 7.8 0 0 0-3.8 2.1L36.1 36 32 43l3 1.7a11.7 11.7 0 0 0-.2 2.3 11.9 11.9 0 0 0 .2 2.1L31.7 51l4 6.9 3.4-1.9a8.3 8.3 0 0 0 3.9 2.3V62h8v-3.7a19.2 19.2 0 0 0 3.8-2.3l3.2 2 4-7zM46.8 52a5 5 0 1 1 5-5 5 5 0 0 1-5 5z" data-name="layer2"/><path stroke-width="2" stroke-linejoin="round" stroke-linecap="round" stroke="#2e4369" fill="none" d="M33.5 50H4a2 2 0 0 1-2-2V4a2 2 0 0 1 2-2h48a2 2 0 0 1 2 2v33.4M46 26H30m16-16H30" data-name="stroke"/><circle stroke-width="2" stroke-linejoin="round" stroke-linecap="round" stroke="#2e4369" fill="none" r="1" cy="10" cx="11" data-name="stroke"/><circle stroke-width="2" stroke-linejoin="round" stroke-linecap="round" stroke="#2e4369" fill="none" r="1" cy="26" cx="11" data-name="stroke"/><circle stroke-width="2" stroke-linejoin="round" stroke-linecap="round" stroke="#2e4369" fill="none" r="1" cy="42" cx="11" data-name="stroke"/><path d="M54 18H2m41 16H2" stroke-width="2" stroke-linejoin="round" stroke-linecap="round" stroke="#2e4369" fill="none" data-name="stroke"/></svg>