<svg xmlns="http://www.w3.org/2000/svg" viewBox="0 0 64 64" aria-labelledby="title" aria-describedby="desc"><path data-name="layer1" d="M61 27h-6.551a22.857 22.857 0 0 0-3.041-7.336l4.634-4.634a1 1 0 0 0 0-1.414l-5.657-5.658a1 1 0 0 0-1.414 0l-4.634 4.634A22.857 22.857 0 0 0 37 9.552V3a1 1 0 0 0-1-1h-8a1 1 0 0 0-1 1v6.552a22.857 22.857 0 0 0-7.336 3.041l-4.635-4.635a1 1 0 0 0-1.414 0l-5.657 5.657a1 1 0 0 0 0 1.414l4.634 4.634A22.857 22.857 0 0 0 9.552 27H3a1 1 0 0 0-1 1v8a1 1 0 0 0 1 1h6.552a22.856 22.856 0 0 0 3.041 7.336l-4.635 4.635a1 1 0 0 0 0 1.414l5.657 5.657a1 1 0 0 0 1.414 0l4.634-4.634A22.86 22.86 0 0 0 27 54.449V61a1 1 0 0 0 1 1h8a1 1 0 0 0 1-1v-6.551a22.86 22.86 0 0 0 7.336-3.041l4.634 4.634a1 1 0 0 0 1.414 0l5.657-5.657a1 1 0 0 0 0-1.414l-4.634-4.634A22.856 22.856 0 0 0 54.449 37H61a1 1 0 0 0 1-1v-8a1 1 0 0 0-1-1zM32 42a10 10 0 1 1 10-10 10 10 0 0 1-10 10z" fill="#7b8baf"/><path data-name="opacity" d="M12.593 44.336l3-3A22.856 22.856 0 0 1 12.552 34H6a1 1 0 0 1-1-1v-6H3a1 1 0 0 0-1 1v8a1 1 0 0 0 1 1h6.552a22.856 22.856 0 0 0 3.041 7.336zm0-24.672A22.916 22.916 0 0 0 10.459 24h2.092a22.857 22.857 0 0 1 3.041-7.336l-4.634-4.634a1 1 0 0 1 0-1.414l-3 3a1 1 0 0 0 0 1.414zM45 29a9.995 9.995 0 0 0-18.405-5.405 9.99 9.99 0 0 1 13.81 13.81A9.985 9.985 0 0 0 45 29zm6.971 24.042l-4.634-4.634A22.86 22.86 0 0 1 40 51.449v2.092a22.915 22.915 0 0 0 4.336-2.133l4.634 4.634a1 1 0 0 0 1.414 0l3-3a1 1 0 0 1-1.413 0zM57.449 34a22.745 22.745 0 0 1-.908 3H61a1 1 0 0 0 1-1v-2zM16.615 53.042l-5.657-5.657a1 1 0 0 1 0-1.414l-3 3a1 1 0 0 0 0 1.414l5.657 5.657a1 1 0 0 0 1.414 0l3-3a1 1 0 0 1-1.414 0zM31 59a1 1 0 0 1-1-1v-6.551a22.86 22.86 0 0 1-7.336-3.041l-3 3A22.86 22.86 0 0 0 27 54.449V61a1 1 0 0 0 1 1h8a1 1 0 0 0 1-1v-2z" fill="#000064" opacity=".2"/><circle data-name="stroke" cx="32" cy="32" r="10" fill="none" stroke="#2e4369" stroke-linecap="round" stroke-miterlimit="10" stroke-width="2" stroke-linejoin="round"/><path data-name="stroke" d="M61 27h-6.551a22.857 22.857 0 0 0-3.041-7.336l4.634-4.634a1 1 0 0 0 0-1.414l-5.657-5.658a1 1 0 0 0-1.414 0l-4.634 4.634A22.857 22.857 0 0 0 37 9.552V3a1 1 0 0 0-1-1h-8a1 1 0 0 0-1 1v6.552a22.857 22.857 0 0 0-7.336 3.041l-4.635-4.635a1 1 0 0 0-1.414 0l-5.657 5.657a1 1 0 0 0 0 1.414l4.634 4.634A22.857 22.857 0 0 0 9.552 27H3a1 1 0 0 0-1 1v8a1 1 0 0 0 1 1h6.552a22.856 22.856 0 0 0 3.041 7.336l-4.635 4.635a1 1 0 0 0 0 1.414l5.657 5.657a1 1 0 0 0 1.414 0l4.634-4.634A22.86 22.86 0 0 0 27 54.449V61a1 1 0 0 0 1 1h8a1 1 0 0 0 1-1v-6.551a22.86 22.86 0 0 0 7.336-3.041l4.634 4.634a1 1 0 0 0 1.414 0l5.657-5.657a1 1 0 0 0 0-1.414l-4.634-4.634A22.856 22.856 0 0 0 54.449 37H61a1 1 0 0 0 1-1v-8a1 1 0 0 0-1-1z" fill="none" stroke="#2e4369" stroke-linecap="round" stroke-miterlimit="10" stroke-width="2" stroke-linejoin="round"/></svg>