<svg xmlns="http://www.w3.org/2000/svg" viewBox="0 0 64 64" aria-labelledby="title" aria-describedby="desc"><path data-name="layer1" d="M62.081 26.948l-5.236-1.355a25.438 25.438 0 0 0-2.7-6.491l2.78-4.721a2.56 2.56 0 0 0-.4-3.109l-3.637-3.639a2.56 2.56 0 0 0-3.109-.4l-4.718 2.778a25.437 25.437 0 0 0-6.5-2.71l-1.396-5.382A2.56 2.56 0 0 0 34.686 0H29.54a2.56 2.56 0 0 0-2.478 1.919l-1.388 5.363A25.44 25.44 0 0 0 19.123 10L14.3 7.157a2.56 2.56 0 0 0-3.109.4l-3.638 3.635a2.56 2.56 0 0 0-.4 3.109L10 19.123a25.438 25.438 0 0 0-2.679 6.429l-5.4 1.4A2.56 2.56 0 0 0 0 29.427v5.147a2.56 2.56 0 0 0 1.919 2.478l5.354 1.385a25.44 25.44 0 0 0 2.742 6.624l-2.778 4.717a2.56 2.56 0 0 0 .4 3.109l3.639 3.639a2.56 2.56 0 0 0 3.109.4l4.721-2.78a25.436 25.436 0 0 0 6.613 2.736l1.346 5.2A2.56 2.56 0 0 0 29.54 64h5.147a2.56 2.56 0 0 0 2.478-1.919l1.352-5.224a25.438 25.438 0 0 0 6.565-2.733l4.618 2.719a2.56 2.56 0 0 0 3.109-.4l3.639-3.639a2.56 2.56 0 0 0 .4-3.109l-2.719-4.617a25.438 25.438 0 0 0 2.758-6.678l5.194-1.344A2.56 2.56 0 0 0 64 34.573v-5.146a2.56 2.56 0 0 0-1.919-2.479zM32.106 47.035a15 15 0 1 1 15-15 15 15 0 0 1-15 15z" fill="#202020"/></svg>