<svg xmlns="http://www.w3.org/2000/svg" viewBox="0 0 64 64" aria-labelledby="title" aria-describedby="desc"><path data-name="layer2" fill="#a6b1c9" d="M2 6h52v12H2z"/><path data-name="layer3" fill="#fff" d="M2 18v32h52V18"/><path data-name="opacity" d="M38 33.2l1.1.6A7.9 7.9 0 0 1 43 32v-2h-5zm-4.7 16.7L31.7 47l3.3-1.9a11.9 11.9 0 0 1-.2-2.1 11.7 11.7 0 0 1 .2-2.3L32 39l1.9-3.3L31 34l-4 6.9 3 1.7a11.7 11.7 0 0 0-.2 2.3A11.9 11.9 0 0 0 30 47l-3.3 2 .6 1h6z" fill="#000064" opacity=".15"/><circle data-name="opacity" cx="47" cy="43" r="6" fill="#000064" opacity=".15"/><path data-name="layer2" d="M58.6 45.1a11.8 11.8 0 0 0 .2-2.1 11.9 11.9 0 0 0-.2-2.3l3.1-1.7-4-6.9-3.1 1.8C53.4 32.9 52 32 51 32v-4h-8v4a7.9 7.9 0 0 0-3.9 1.8L36 32l-4 7 3 1.7a11.7 11.7 0 0 0-.2 2.3 11.9 11.9 0 0 0 .2 2.1L31.7 47l4 6.9 3.3-1.8a8.2 8.2 0 0 0 4 1.9v4h8v-4c1 0 2.5-1 3.7-2l3.3 2 4-7zM47 48a5 5 0 1 1 5-5 5 5 0 0 1-5 5z" fill="#a6b1c9"/><circle data-name="layer1" cx="8" cy="12" r="1" fill="#f27e7c"/><circle data-name="layer1" cx="15" cy="12" r="1" fill="#f27e7c"/><circle data-name="layer1" cx="22" cy="12" r="1" fill="#f27e7c"/><path data-name="opacity" fill="#000064" opacity=".15" d="M2 18h4v32H2zM2 6h4v12H2z"/><circle data-name="stroke" cx="47" cy="43" r="5" fill="none" stroke="#2e4369" stroke-linecap="round" stroke-linejoin="round" stroke-width="2"/><path data-name="stroke" d="M62 47l-3.4-2a11.8 11.8 0 0 0 .2-2.1 11.9 11.9 0 0 0-.2-2.3l3.1-1.6-4-6.9-3.1 1.8C53.4 32.9 52 32 51 32v-4h-8v4a7.9 7.9 0 0 0-3.9 1.8L36 32l-4 7 3 1.7a11.7 11.7 0 0 0-.2 2.3 11.9 11.9 0 0 0 .2 2.1L31.7 47l4 6.9 3.3-1.8a8.2 8.2 0 0 0 4 1.9v4h8v-4c1 0 2.5-1 3.7-2l3.3 2z" fill="none" stroke="#2e4369" stroke-linecap="round" stroke-linejoin="round" stroke-width="2"/><circle data-name="stroke" cx="8" cy="12" r="1" fill="none" stroke="#2e4369" stroke-linecap="round" stroke-linejoin="round" stroke-width="2"/><circle data-name="stroke" cx="15" cy="12" r="1" fill="none" stroke="#2e4369" stroke-linecap="round" stroke-linejoin="round" stroke-width="2"/><circle data-name="stroke" cx="22" cy="12" r="1" fill="none" stroke="#2e4369" stroke-linecap="round" stroke-linejoin="round" stroke-width="2"/><path data-name="stroke" fill="none" stroke="#2e4369" stroke-linecap="round" stroke-linejoin="round" stroke-width="2" d="M2 6h52v12H2zm52 27V18M2 18v32h31"/></svg>