<svg xmlns="http://www.w3.org/2000/svg" viewBox="0 0 64 64" aria-labelledby="title" aria-describedby="desc"><path data-name="layer1" d="M34 21.996V10l28 20-28 20V38c-11.133.004-21.271.434-30 16 0-9.887 1-32 30-32.004z" fill="#5ade9c"/><path data-name="opacity" d="M4.106 49.818A77.204 77.204 0 0 0 4 54.125c8.729-15.566 18.867-15.996 30-16V34c-11.088.004-21.19.435-29.895 15.818zM34 46v4.125l28-20-2.887-2.062L34 46z" fill="#000028" opacity=".15"/><path data-name="stroke" d="M34 21.996V10l28 20-28 20V38c-11.133.004-21.271.434-30 16 0-9.887 1-32 30-32.004z" fill="none" stroke="#2e4369" stroke-linecap="round" stroke-linejoin="round" stroke-width="2"/></svg>