<svg xmlns="http://www.w3.org/2000/svg" viewBox="0 0 64 64" aria-labelledby="title" aria-describedby="desc"><path data-name="layer1" d="M7 48a3 3 0 0 0 3-3V14h52v31a3 3 0 0 1-3 3H5" fill="#f8da82"/><path data-name="layer1" d="M10 45V14h44V6H20V2H2v43a3 3 0 0 0 3 3h2a3 3 0 0 0 3-3z" fill="#f8da82"/><path data-name="opacity" d="M10 45V14h44V6H20V2H2v43a3 3 0 0 0 3 3h2a3 3 0 0 0 3-3z" fill="#000064" opacity=".15"/><path data-name="opacity" fill="#fff" opacity=".2" d="M10 14h52v3H10z"/><path data-name="stroke" fill="none" stroke="#2e4369" stroke-linecap="round" stroke-miterlimit="10" stroke-width="2" d="M32 48v14m-16 0h32m-36 0H8m-3 0H2m60 0h-3m-3 0h-4m2-48V6H20V2H2v43a3 3 0 0 0 3 3h54a3 3 0 0 0 3-3V14H10v31a3 3 0 0 1-3 3" stroke-linejoin="round"/></svg>