<svg xmlns="http://www.w3.org/2000/svg" viewBox="0 0 64 64" aria-labelledby="title" aria-describedby="desc"><path data-name="layer1" d="M47.094 42.031A9.956 9.956 0 0 0 41 44.094l-17.437-10.5A10.439 10.439 0 0 0 23.75 32a8.256 8.256 0 0 0-.188-1.594L41 20a9.758 9.758 0 0 0 6.094 2.063 10.031 10.031 0 1 0-10.032-10.032 8.256 8.256 0 0 0 .188 1.594L19.813 24.031a9.758 9.758 0 0 0-6.094-2.063 10.031 10.031 0 1 0 6.187 18l17.438 10.407a9.237 9.237 0 0 0-.188 1.594 10.031 10.031 0 1 0 20.063 0 10.165 10.165 0 0 0-10.125-9.938z" fill="none" stroke="#202020" stroke-linecap="round" stroke-miterlimit="10" stroke-width="2" stroke-linejoin="round"/></svg>