<svg xmlns="http://www.w3.org/2000/svg" viewBox="0 0 64 64" aria-labelledby="title" aria-describedby="desc"><path data-name="layer1" d="M32 2c-6 6-16.2 9.8-26 0v22.1A42 42 0 0 0 32 62a42 42 0 0 0 26-37.9V2C48 12 37.7 7.7 32 2z" fill="#9cf"/><path data-name="opacity" d="M6 2v22.1A42 42 0 0 0 32 62V2c-6 6-16.2 9.8-26 0z" fill="#000064" opacity=".15"/><path data-name="stroke" d="M32 2c-6 6-16.2 9.8-26 0v22.1A42 42 0 0 0 32 62a42 42 0 0 0 26-37.9V2C48 12 37.7 7.7 32 2z" fill="none" stroke="#2e4369" stroke-linecap="round" stroke-miterlimit="10" stroke-width="2" stroke-linejoin="round"/></svg>