<svg xmlns="http://www.w3.org/2000/svg" viewBox="0 0 64 64" aria-labelledby="title" aria-describedby="desc"><path data-name="layer1" d="M51 7l-4.363 4.182L49.515 14H44c-3.394 0-8.27.61-11.46 5.343L16.6 41.29C14.5 44.09 13.814 44 10 44H2v6h8.003c4.189 0 7.498.12 11.423-5.114l16-22 .07-.1C38.418 21.401 39.845 20 44 20h5.636l-3 3 4.243 4.243L61 17.12z" fill="#202020"/><path data-name="layer1" d="M26.627 37.734l5.973 7.193C35.79 49.578 40.868 50 44.242 50h5.394l-3 3L51 57l10-9.879L50.879 37l-4.242 4.243L49.394 44H44c-4.155 0-5.582-1.16-6.504-2.543l-7.233-8.722m-3.257-5.723l-5.606-7.69C17.5 14.121 14.192 14 10 14H2v6h8c3.81 0 4.5.122 6.574 2.886l6.717 9.235" fill="#202020"/></svg>