<svg xmlns="http://www.w3.org/2000/svg" viewBox="0 0 64 64" aria-labelledby="title" aria-describedby="desc"><path data-name="layer1" fill="#bacae9" d="M27 38l10.533 13h13.225l-2.879 2.879L52 58l10-10-10-10-4.121 4.121L50.758 45H40.467L31 33"/><path data-name="layer1" fill="#bacae9" d="M50.758 21l-2.879 2.879 4.242 4.242L62 18 52 8l-4.121 4.121L50.758 15h-13.2l-24 30H2v6h14.442l24-30h10.316z"/><path data-name="layer1" fill="#bacae9" d="M27 28L16.467 15H2v6h11.533L23 33"/><path data-name="stroke" fill="none" stroke="#2e4369" stroke-linecap="round" stroke-linejoin="round" stroke-width="2" d="M27 38l10.533 13h13.225l-2.879 2.879L52 58l10-10-10-10-4.121 4.121L50.758 45H40.467L31 33"/><path data-name="stroke" fill="none" stroke="#2e4369" stroke-linecap="round" stroke-linejoin="round" stroke-width="2" d="M50.758 21l-2.879 2.879 4.242 4.242L62 18 52 8l-4.121 4.121L50.758 15h-13.2l-24 30H2v6h14.442l24-30h10.316z"/><path data-name="stroke" fill="none" stroke="#2e4369" stroke-linecap="round" stroke-linejoin="round" stroke-width="2" d="M27 28L16.467 15H2v6h11.533L23 33"/></svg>