<svg xmlns="http://www.w3.org/2000/svg" viewBox="0 0 64 64" aria-labelledby="title" aria-describedby="desc"><path data-name="layer1" d="M52 5l-4.363 4.182L50.515 12H45c-3.394 0-8.27.61-11.46 5.343L17.6 39.29C15.501 42.09 14.813 42 11 42H2v6h9.003c4.189 0 7.498.12 11.423-5.114l16-22 .07-.1C39.418 19.4 40.845 18 45 18h5.636l-3 3 4.243 4.242L62 15.122z" fill="#bacae9"/><path data-name="layer1" d="M27.627 35.734l5.973 7.193C36.79 47.578 41.868 48 45.242 48h5.394l-3 3L52 55l10-9.879L51.879 35l-4.242 4.242L50.394 42H45c-4.155 0-5.582-1.16-6.504-2.543l-7.233-8.722m-3.257-5.723l-5.606-7.69C18.5 12.121 15.192 12 11 12H2v6h9c3.81 0 4.501.122 6.574 2.886l6.717 9.235" fill="#bacae9"/><path data-name="stroke" d="M52 5l-4.363 4.182L50.515 12H45c-3.394 0-8.27.61-11.46 5.343L17.6 39.29C15.501 42.09 14.813 42 11 42H2v6h9.003c4.189 0 7.498.12 11.423-5.114l16-22 .07-.1C39.418 19.4 40.845 18 45 18h5.636l-3 3 4.243 4.242L62 15.122z" fill="none" stroke="#2e4369" stroke-linecap="round" stroke-linejoin="round" stroke-width="2"/><path data-name="stroke" d="M27.627 35.734l5.973 7.193C36.79 47.578 41.868 48 45.242 48h5.394l-3 3L52 55l10-9.879L51.879 35l-4.242 4.242L50.394 42H45c-4.155 0-5.582-1.16-6.504-2.543l-7.233-8.722m-3.257-5.723l-5.606-7.69C18.5 12.121 15.192 12 11 12H2v6h9c3.81 0 4.501.122 6.574 2.886l6.717 9.235" fill="none" stroke="#2e4369" stroke-linecap="round" stroke-linejoin="round" stroke-width="2"/></svg>