<svg viewBox="0 0 64 64" xmlns="http://www.w3.org/2000/svg" aria-labelledby="title" aria-describedby="desc"><path stroke-width="2" stroke-miterlimit="10" stroke-linecap="round" stroke="#202020" fill="none" d="M27.2 38.2l6.4 6.5c3.9 3.9 8 5.3 11.4 5.3h6.8l-2.9 2.9a3 3 0 1 0 4.2 4.2l8-8a3 3 0 0 0 0-4.2l-8-8a3 3 0 0 0-4.2 4.2l2.9 2.9H45c-4.2 0-5.5-1.5-6.5-2.7l-7.1-8.9M28 27l-5.6-7.8C18.5 14 15.2 14 11 14H5a3 3 0 1 0 0 6h7c3.8 0 3.5 0 5.7 2.9L24 32" data-name="layer2" stroke-linejoin="round"/><path stroke-width="2" stroke-miterlimit="10" stroke-linecap="round" stroke="#202020" fill="none" d="M38.5 22.7c.9-1.4 2.3-2.7 6.5-2.7h6.8l-2.9 2.9a3 3 0 1 0 4.2 4.2l8-8a3 3 0 0 0 0-4.2l-8-8a3 3 0 1 0-4.2 4.2l2.9 2.9H45c-3.4 0-8.3.5-11.5 5.3L17.6 41.2C15.5 44 15.8 44 12 44H5a3 3 0 0 0 0 6h6c4.2 0 7.5 0 11.4-5.2l16-22z" data-name="layer1" stroke-linejoin="round"/></svg>