<svg viewBox="0 0 64 64" xmlns="http://www.w3.org/2000/svg" aria-labelledby="title" aria-describedby="desc"><path fill="#bacae9" d="M27.206 38.212l6.347 7.526C37.391 49.688 41.609 50 45 50h6.758l-2.879 2.879a3 3 0 1 0 4.242 4.242l8-8a3 3 0 0 0 0-4.242l-8-8a3 3 0 0 0-4.242 4.242L51.758 44H45c-4.155 0-5.581-1.28-6.5-2.664-.031-.046-6.751-8.407-7.124-8.872" data-name="layer1"/><path fill="#bacae9" d="M38.5 22.664C39.419 21.28 40.845 20 45 20h6.758l-2.879 2.879a3 3 0 1 0 4.242 4.242l8-8a3 3 0 0 0 0-4.242l-8-8a3 3 0 1 0-4.242 4.242L51.758 14H45c-3.4 0-8.27.549-11.46 5.282L17.6 41.2C15.5 44 15.814 44 12 44H5a3 3 0 0 0 0 6h6c4.189 0 7.5 0 11.423-5.234l16-22 .077-.102z" data-name="layer1"/><path fill="#bacae9" d="M28 27l-5.6-7.8C18.5 14 15.192 14 11 14H5a3 3 0 1 0 0 6h7c3.81 0 3.5 0 5.657 2.874L24 32" data-name="layer1"/><path stroke-width="2" stroke-linejoin="round" stroke-linecap="round" stroke="#2e4369" fill="none" d="M27.206 38.212l6.347 7.526C37.344 49.734 41.609 50 45 50h6.758l-2.879 2.879a3 3 0 1 0 4.242 4.242l8-8a3 3 0 0 0 0-4.242l-8-8a3 3 0 0 0-4.242 4.242L51.758 44H45c-4.155 0-5.581-1.28-6.5-2.664-.031-.046-7.091-8.827-7.124-8.872" data-name="stroke"/><path stroke-width="2" stroke-linejoin="round" stroke-linecap="round" stroke="#2e4369" fill="none" d="M38.5 22.664C39.419 21.28 40.845 20 45 20h6.758l-2.879 2.879a3 3 0 1 0 4.242 4.242l8-8a3 3 0 0 0 0-4.242l-8-8a3 3 0 1 0-4.242 4.242L51.758 14H45c-3.4 0-8.27.549-11.46 5.282L17.6 41.2C15.5 44 15.814 44 12 44H5a3 3 0 0 0 0 6h6c4.189 0 7.5 0 11.423-5.234l16-22 .077-.102z" data-name="stroke"/><path stroke-width="2" stroke-linejoin="round" stroke-linecap="round" stroke="#2e4369" fill="none" d="M27.964 26.949L22.4 19.2C18.5 14 15.192 14 11 14H5a3 3 0 1 0 0 6h7c3.81 0 3.5 0 5.657 2.874l6.479 9.338" data-name="stroke"/></svg>