<svg xmlns="http://www.w3.org/2000/svg" viewBox="0 0 64 64" aria-labelledby="title" aria-describedby="desc"><path data-name="layer2" d="M53.121 36.879a3 3 0 0 0-4.242 4.242L51.758 44H41.442L32 32l-4 5 9.657 11.874A3 3 0 0 0 40 50h11.758l-2.88 2.879a3 3 0 1 0 4.243 4.242l8-8a2.999 2.999 0 0 0 0-4.242zM5 20h9.558L24 32l4-5-9.657-11.874A3 3 0 0 0 16 14H5a3 3 0 0 0 0 6z" fill="none" stroke="#202020" stroke-miterlimit="10" stroke-width="2" stroke-linejoin="round" stroke-linecap="round"/><path data-name="layer1" d="M51.758 20l-2.88 2.879a3 3 0 1 0 4.243 4.242l8-8a2.999 2.999 0 0 0 0-4.242l-8-8a3 3 0 1 0-4.242 4.242L51.758 14H40a3 3 0 0 0-2.343 1.126L14.558 44H5a3 3 0 0 0 0 6h11a3 3 0 0 0 2.343-1.126L41.442 20z" fill="none" stroke="#202020" stroke-miterlimit="10" stroke-width="2" stroke-linejoin="round" stroke-linecap="round"/></svg>