<svg xmlns="http://www.w3.org/2000/svg" viewBox="0 0 64 64" aria-labelledby="title" aria-describedby="desc"><path data-name="layer1" fill="#b3c5e5" d="M22 23.8L2 10.2v43.6l20-13.6v13.6L54 32v-.1L22 10.2v13.6zM54 8v48h8V8h-8z"/><path data-name="opacity" fill="#fff" opacity=".25" d="M22 23.8L2 10.2v4l20 13.6v-4zM54 32v-.1L22 10.2v4l29.2 19.7L54 32zm0-24h8v4h-8z"/><path data-name="stroke" fill="none" stroke="#2e4369" stroke-linecap="round" stroke-miterlimit="10" stroke-width="2" d="M22 23.8L2 10.2v43.6l20-13.6v13.6L54 32v-.1L22 10.2v13.6zM54 8v48h8V8h-8z" stroke-linejoin="round"/></svg>