<svg xmlns="http://www.w3.org/2000/svg" viewBox="0 0 64 64" aria-labelledby="title" aria-describedby="desc"><path data-name="layer2" d="M16.3 42.4a2 2 0 0 0-2.8.3L7 50.8a2 2 0 0 0 3.1 2.5l6.4-8a2 2 0 0 0-.2-2.9zm12 0a2 2 0 0 0-2.8.3l-12.8 16a2 2 0 0 0 3.1 2.5l12.8-16a2 2 0 0 0-.3-2.8zM41 46.1a2 2 0 0 0-2-2 2 2 0 0 0-2-2 2 2 0 0 0-2 2 2 2 0 0 0 0 4 2 2 0 0 0 2 2 2 2 0 0 0 2-2 2 2 0 0 0 2-2zm-8.6 8a2 2 0 0 0-2-2 2 2 0 0 0-2 2 2 2 0 0 0 0 4 2 2 0 0 0 2 2 2 2 0 0 0 2-2 2 2 0 0 0 0-4zm13.2 0a2 2 0 0 0-4 0 2 2 0 0 0 0 4 2 2 0 0 0 4 0 2 2 0 0 0 0-4zm7.4-10a2 2 0 0 0-4 0 2 2 0 0 0 0 4 2 2 0 1 0 4 0 2 2 0 0 0 0-4z" fill="#202020"/><path data-name="layer1" d="M49 12h-.5a17 17 0 0 0-32.3 4.4A11 11 0 1 0 13 38h36a13 13 0 0 0 0-26z" fill="#202020"/></svg>