<svg xmlns="http://www.w3.org/2000/svg" viewBox="0 0 64 64" aria-labelledby="title" aria-describedby="desc"><path data-name="layer1" d="M52 5a3 3 0 0 0-3-3H15a3 3 0 0 0-3 3v5h40z" fill="#536897"/><path data-name="layer2" fill="#a0d6ef" d="M12 50V10h40v40"/><path data-name="layer1" d="M12 50v9a3 3 0 0 0 3 3h34a3 3 0 0 0 3-3v-9z" fill="#536897"/><path data-name="opacity" d="M19 2h-4a3 3 0 0 0-3 3v5h4V5a3 3 0 0 1 3-3zm-3 57v-9h-4v9a3 3 0 0 0 3 3h4a3 3 0 0 1-3-3z" fill="#000064" opacity=".14"/><path data-name="opacity" fill="#fff" opacity=".25" d="M18.5 50H41l11-11V16.3L18.5 50zm17.2-40L12 33.6V44l34-34H35.7z"/><path data-name="stroke" d="M52 5a3 3 0 0 0-3-3H15a3 3 0 0 0-3 3v5h40zm0 45V10m-40 0v40m0 0v9a3 3 0 0 0 3 3h34a3 3 0 0 0 3-3v-9zm18 6h4" fill="none" stroke="#2e4369" stroke-linecap="round" stroke-linejoin="round" stroke-width="2"/></svg>