<svg xmlns="http://www.w3.org/2000/svg" viewBox="0 0 64 64" aria-labelledby="title" aria-describedby="desc"><path data-name="layer3" d="M47.5 50c1 .7 2.8 1.7 2.4 3.9a11.5 11.5 0 0 1-10.8 8c-7.2 0-16-5.7-23.7-13.4S2 32 2 24.8A11.5 11.5 0 0 1 10 14c2.2-.3 3.2 1.4 3.9 2.4l5.4 8.3a3.9 3.9 0 0 1-1 5.2c-2.3 1.9-6.2 4.2 2.6 13s11.1 4.9 13 2.6a3.9 3.9 0 0 1 5.2-1z" fill="#49bcff"/><path data-name="opacity" d="M41.2 58c-7.2 0-16-5.7-23.7-13.4S4 28 4 20.8a11.2 11.2 0 0 1 .4-2.8A10.9 10.9 0 0 0 2 24.8c0 7.2 5.7 16 13.4 23.7S32 62 39.2 62A11.5 11.5 0 0 0 50 54v-.3a11.2 11.2 0 0 1-8.8 4.3z" fill="#000064" opacity=".15"/><path data-name="layer2" d="M59.4 2H30.6A2.6 2.6 0 0 0 28 4.6v18.8a2.6 2.6 0 0 0 2.6 2.6H38v7l7-7h14.4a2.6 2.6 0 0 0 2.6-2.6V4.6A2.6 2.6 0 0 0 59.4 2z" fill="#dbf1ff"/><path data-name="opacity" d="M59.4 26a2.6 2.6 0 0 0 2.6-2.6V23H33.6a2.6 2.6 0 0 1-2.6-2.6V2h-.4A2.6 2.6 0 0 0 28 4.6v18.8a2.6 2.6 0 0 0 2.6 2.6H38v7l7-7z" fill="#000064" opacity=".1"/><circle data-name="layer1" cx="45" cy="14" r="1" fill="#2e4369"/><circle data-name="layer1" cx="37" cy="14" r="1" fill="#2e4369"/><circle data-name="layer1" cx="53" cy="14" r="1" fill="#2e4369"/><path data-name="stroke" d="M47.5 50c1 .7 2.8 1.7 2.4 3.9a11.5 11.5 0 0 1-10.8 8c-7.2 0-16-5.7-23.7-13.4S2 32 2 24.8A11.5 11.5 0 0 1 10 14c2.2-.3 3.2 1.4 3.9 2.4l5.4 8.3a3.9 3.9 0 0 1-1 5.2c-2.3 1.9-6.2 4.2 2.6 13s11.1 4.9 13 2.6a3.9 3.9 0 0 1 5.2-1zM59.4 2H30.6A2.6 2.6 0 0 0 28 4.6v18.8a2.6 2.6 0 0 0 2.6 2.6H38v7l7-7h14.4a2.6 2.6 0 0 0 2.6-2.6V4.6A2.6 2.6 0 0 0 59.4 2z" fill="none" stroke="#2e4369" stroke-linecap="round" stroke-miterlimit="10" stroke-width="2" stroke-linejoin="round"/><circle data-name="stroke" cx="45" cy="14" r="1" fill="none" stroke="#2e4369" stroke-linecap="round" stroke-miterlimit="10" stroke-width="2" stroke-linejoin="round"/><circle data-name="stroke" cx="37" cy="14" r="1" fill="none" stroke="#2e4369" stroke-linecap="round" stroke-miterlimit="10" stroke-width="2" stroke-linejoin="round"/><circle data-name="stroke" cx="53" cy="14" r="1" fill="none" stroke="#2e4369" stroke-linecap="round" stroke-miterlimit="10" stroke-width="2" stroke-linejoin="round"/></svg>