<svg xmlns="http://www.w3.org/2000/svg" viewBox="0 0 64 64" aria-labelledby="title" aria-describedby="desc"><path data-name="layer1" d="M31.971 4.416a15.9 15.9 0 0 1 15.755 15.765c0 2.016.065 3.873.179 5.584a1.961 1.961 0 0 0 2.405 1.786l2.69-.632a1.508 1.508 0 0 1 1.809 1.119 1.979 1.979 0 0 1-1.278 2.3l-4.084 1.65a2.194 2.194 0 0 0-1.293 2.612c3.277 12.115 12.43 10.855 12.43 12.434 0 1.982-6.9 2.262-7.522 2.885s-.027 3.649-1.42 4.234a2.953 2.953 0 0 1-1.09.149c-1.049 0-2.533-.2-4.1-.2a9.6 9.6 0 0 0-4.018.729C39.134 56.349 35.949 59.2 32 59.2s-7.134-2.851-10.437-4.377a9.6 9.6 0 0 0-4.018-.729c-1.563 0-3.047.2-4.1.2a2.969 2.969 0 0 1-1.09-.149c-1.393-.586-.8-3.611-1.42-4.234s-7.522-.9-7.522-2.885c0-1.579 9.153-.319 12.43-12.434a2.2 2.2 0 0 0-1.294-2.612l-4.085-1.649a1.978 1.978 0 0 1-1.277-2.3 1.5 1.5 0 0 1 1.466-1.158 1.514 1.514 0 0 1 .343.039l2.691.631a1.961 1.961 0 0 0 2.405-1.786c.114-1.711.176-3.568.179-5.584a15.854 15.854 0 0 1 15.7-15.764m0-3.416a18.7 18.7 0 0 0-7.423 1.531 19.444 19.444 0 0 0-10.169 10.223 18.922 18.922 0 0 0-1.523 7.429c0 1.26-.027 2.481-.078 3.652l-1-.235a4.926 4.926 0 0 0-4.148.907 4.891 4.891 0 0 0-1.775 2.8 5.4 5.4 0 0 0 3.39 6.227l3 1.21C10.256 40.828 6.6 42 4.132 42.782a12.329 12.329 0 0 0-1.757.656A3.947 3.947 0 0 0 0 47.03a4.451 4.451 0 0 0 1.852 3.57A7.882 7.882 0 0 0 4.1 51.746a28.149 28.149 0 0 0 3.891.925 8.853 8.853 0 0 0 .282 1.383 4.813 4.813 0 0 0 2.761 3.246 6.232 6.232 0 0 0 2.415.416c.6 0 1.231-.047 1.9-.1.719-.053 1.462-.108 2.2-.108a6.3 6.3 0 0 1 2.586.414c.829.383 1.707.9 2.638 1.445 2.59 1.522 5.527 3.246 9.231 3.246s6.64-1.724 9.231-3.246c.931-.546 1.81-1.062 2.638-1.445a6.3 6.3 0 0 1 2.586-.414c.733 0 1.477.055 2.195.108.67.049 1.3.1 1.9.1a6.228 6.228 0 0 0 2.414-.416 4.812 4.812 0 0 0 2.758-3.243 8.932 8.932 0 0 0 .282-1.383 28.142 28.142 0 0 0 3.891-.925 7.89 7.89 0 0 0 2.249-1.149A4.452 4.452 0 0 0 64 47.03a3.947 3.947 0 0 0-2.375-3.591 12.368 12.368 0 0 0-1.757-.656c-2.465-.786-6.125-1.954-8.11-8.047l3-1.21a5.4 5.4 0 0 0 3.39-6.227 4.895 4.895 0 0 0-1.775-2.8 4.926 4.926 0 0 0-4.148-.907l-1 .235a87.344 87.344 0 0 1-.078-3.652 18.815 18.815 0 0 0-1.535-7.437A19.512 19.512 0 0 0 39.4 2.53 18.768 18.768 0 0 0 31.973 1zm0 0" fill="#050505"/></svg>