<svg xmlns="http://www.w3.org/2000/svg" viewBox="0 0 64 64" aria-labelledby="title" aria-describedby="desc"><path data-name="layer2" d="M47.9 13.5h-.5a15.8 15.8 0 0 0-30.1 4.2 10.1 10.1 0 0 0-3-.5 10.4 10.4 0 0 0 0 20.8h33.6a12.3 12.3 0 0 0 0-24.5z" fill="#202020"/><path data-name="layer1" d="M22 46a2 2 0 0 0-2-2 2 2 0 1 0-4 0 2 2 0 0 0 0 4 2 2 0 1 0 4 0 2 2 0 0 0 2-2zm14 0a2 2 0 0 0-2-2 2 2 0 0 0-2-2 2 2 0 0 0-2 2 2 2 0 0 0 0 4 2 2 0 0 0 2 2 2 2 0 0 0 2-2 2 2 0 0 0 2-2zm-8.6 8a2 2 0 0 0-2-2 2 2 0 0 0-2 2 2 2 0 0 0 0 4 2 2 0 0 0 2 2 2 2 0 0 0 2-2 2 2 0 0 0 0-4zm13.2 0a2 2 0 0 0-4 0 2 2 0 0 0 0 4 2 2 0 0 0 4 0 2 2 0 0 0 0-4zM48 44a2 2 0 0 0-4 0 2 2 0 0 0 0 4 2 2 0 1 0 4 0 2 2 0 0 0 0-4z" fill="#202020"/></svg>