<svg xmlns="http://www.w3.org/2000/svg" viewBox="0 0 64 64" aria-labelledby="title" aria-describedby="desc"><path data-name="layer2" d="M56.4 32.5a1 1 0 0 0-.5-1.4c-8.4-3.3-11.8-4.8-13.2-5.4l-7.7-8a2 2 0 0 0-2.9 2.8l4.4 4.5h-3a1 1 0 0 0-.8.4C30.9 28 26 31 17.8 31a43 43 0 0 1-9.1-1l-1.2-6.4a2 2 0 1 0-3.9.8L4.9 31v.4L.7 36.8v.5a1 1 0 0 0 .1.3c1 3 4.1 9.4 6.7 9.4h19.7a1 1 0 0 0 .8-.4l4.1-5.6c18.7-.6 23.3-6.6 24.3-8.5z" fill="#202020"/><path data-name="layer1" d="M62.1 37.1a2 2 0 0 0-2.5 1.3C58.4 42 53.5 43 50.8 43H35.5a2 2 0 0 0 0 4h15.3c4.7 0 10.8-1.9 12.6-7.4a2 2 0 0 0-1.3-2.5z" fill="#202020"/></svg>