<svg viewBox="0 0 64 64" xmlns="http://www.w3.org/2000/svg" aria-labelledby="title" aria-describedby="desc"><path fill="#d1deff" d="M34 24.995c-2.398 3.598-10.875 8.551-26.736 4.565L2 36.39a137.818 137.818 0 0 0 28.096 2.606c16.787 0 24.076-4.454 25.902-8-14.277-5.605-14.277-6-14.277-6z" data-name="layer2"/><path fill="#7b8baf" d="M2 36.389S5.754 45 7.994 45H27.7l4.399-6.005-.098-.032c-.629.014-1.246.032-1.904.032A137.82 137.82 0 0 1 2 36.39z" data-name="layer1"/><path opacity=".25" fill="#fff" d="M55.998 31c-14.277-5.605-14.277-6-14.277-6H34l16.1 10.737c3.243-1.452 5.097-3.182 5.898-4.737z" data-name="opacity"/><path opacity=".15" fill="#000064" d="M2 36.389s3.006.691 8.21 1.362l2.128-7.183a51.728 51.728 0 0 1-5.074-1.008z" data-name="opacity"/><path opacity=".15" fill="#000064" d="M10.21 37.75C5.005 37.08 2 36.39 2 36.39S5.754 45 7.994 45h5.032L10 38.457z" data-name="opacity"/><path stroke-width="2" stroke-linejoin="round" stroke-linecap="round" stroke="#2e4369" fill="none" d="M2 36.389S5.754 45 7.994 45H27.7l4.399-6.005M35.998 45h15.315c3.103 0 9.07-1.157 10.687-6.005" data-name="stroke"/><path stroke-width="2" stroke-miterlimit="10" stroke="#2e4369" fill="none" d="M41.72 24.995l14.278 6c-1.826 3.546-9.115 8-25.902 8A137.818 137.818 0 0 1 2 36.39l5.264-6.829c15.861 3.986 24.338-.967 26.736-4.565h7.72l-7.72-8" data-name="stroke" stroke-linejoin="round" stroke-linecap="round"/><path d="M6 22.995l1.264 6.565" stroke-width="2" stroke-linejoin="round" stroke-linecap="round" stroke="#2e4369" fill="none" data-name="stroke"/></svg>