<svg xmlns="http://www.w3.org/2000/svg" viewBox="0 0 64 64" aria-labelledby="title" aria-describedby="desc"><path data-name="layer2" d="M44.9 8a3 3 0 1 0-3-3 3 3 0 0 0 3 3zm0-4a1 1 0 0 1 1 1 1 1 0 1 0-2 0 1 1 0 0 1 1-1zm-10 8a3 3 0 1 0-3-3 3 3 0 0 0 3 3zm0-4a1 1 0 0 1 1 1 1 1 0 1 0-2 0 1 1 0 0 1 1-1z" fill="#202020"/><circle data-name="layer2" cx="45.9" cy="12" r="2" fill="#202020"/><path data-name="layer1" d="M28.7 16c-.4-4-.6-7.1-.8-8.3C27 1.6 21.3 0 18.4 0h-6.5a2 2 0 1 0 0 4h6.5s4.9 0 5.5 4.3c.2 1.1.4 3.9.8 7.7h-7l4.4 48h27.6l4.4-48zm20.5 10H29.5c1.1 13.2 2.3 28.8 2.4 29.8a2 2 0 0 1-1.8 2.2h-.2a2 2 0 0 1-2-1.8c0-.3-1.3-16.6-2.4-30.2h-2.9l-.5-6H25l.2 2.9h4L29 20h20.7z" fill="#202020"/></svg>