<svg viewBox="0 0 64 64" xmlns="http://www.w3.org/2000/svg" aria-labelledby="title" aria-describedby="desc"><path fill="#202020" d="M19 16a2 2 0 0 0 2 2h21.966a2 2 0 0 0 0-4h-6.948a3 3 0 1 0-.039 0h-8.151l-5.412-5.414a2 2 0 0 0-2.828 2.828L22.171 14H21a2 2 0 0 0-2 2z" data-name="layer1"/><path fill="#202020" d="M46.925 23.09A2.518 2.518 0 0 1 48 25v32.937a2.983 2.983 0 0 1-.731 2.08c-.145.146-.982.909-1.808 1.663-.771.7-1.533 1.4-1.661 1.524a2.1 2.1 0 0 1-1.551.8h-20.5a2.016 2.016 0 0 1-1.492-.737 98.134 98.134 0 0 0-1.72-1.584c-.825-.754-1.662-1.518-1.808-1.663A2.983 2.983 0 0 1 16 57.937V25a2.518 2.518 0 0 1 1.075-1.914C17.446 22.8 18.621 22 18.621 22h26.758s1.175.8 1.546 1.09z" data-name="layer2"/><circle fill="#202020" r="3" cy="2.999" cx="33.999" data-name="layer1"/><circle fill="#202020" r="3" cy="6.999" cx="42.001" data-name="layer1"/></svg>