<svg xmlns="http://www.w3.org/2000/svg" viewBox="0 0 64 64" aria-labelledby="title" aria-describedby="desc"><path data-name="layer1" fill="#f16262" d="M28 2h8v6h-8z"/><path data-name="layer2" d="M22 46s-2 3-2 4v8a3.7 3.7 0 0 0 4 4h16a3.7 3.7 0 0 0 4-4v-8c0-1-2-4-2-4" fill="#ad1e23"/><path data-name="layer3" d="M43.5 18c-1-4.2-3.6-8.3-7.5-10h-8c-3.9 1.7-6.5 5.8-7.5 10" fill="#d5e2f4"/><path data-name="layer2" d="M42 30s2-2.6 2-8a17 17 0 0 0-.5-4h-23a17 17 0 0 0-.5 4c0 5.4 2 8 2 8" fill="#ad1e23"/><path data-name="layer1" fill="#f16262" d="M22 30h20v16H22z"/><path data-name="opacity" fill="#101129" opacity=".25" d="M28 2h1.7v6H28zm-3 56v-8a19.3 19.3 0 0 1 1.2-4H22s-2 3-2 4v8a3.7 3.7 0 0 0 4 4h3.3c-1.4 0-2.3-1.5-2.3-4z"/><path data-name="opacity" d="M29.7 8H28c-3.9 1.7-6.5 5.8-7.5 10h4.8c.6-4.2 2.1-8.3 4.4-10z" fill="#101129" opacity=".18"/><path data-name="opacity" d="M25 22a28.6 28.6 0 0 1 .3-4h-4.8a17 17 0 0 0-.5 4c0 5.4 2 8 2 8h4.2S25 27.4 25 22zm-3 8h4.2v16H22z" fill="#101129" opacity=".25"/><path data-name="opacity" fill="#fff" opacity=".5" d="M33 2h1.3v6H33zm1.5 44s.5 3 .5 4v8c0 2.5-.4 4-1 4h2.7c1.4 0 2.3-1.5 2.3-4v-8a19.3 19.3 0 0 0-1.2-4zm.4-28h3.8c-.6-4.2-2.1-8.3-4.4-10H33c1 1.7 1.6 5.8 1.9 10zm.1 4a47.7 47.7 0 0 1-.5 8h3.3s1.2-2.6 1.2-8a28.7 28.7 0 0 0-.3-4h-3.8c.1 1.3.1 2.7.1 4zm-.5 8h3.3v16h-3.3z"/><path data-name="stroke" fill="none" stroke="#2f446a" stroke-linecap="round" stroke-linejoin="round" stroke-width="2" d="M28 2h8v6h-8zm-6 44s-2 3-2 4v8a3.7 3.7 0 0 0 4 4h16a3.7 3.7 0 0 0 4-4v-8c0-1-2-4-2-4m1.5-28c-1-4.2-3.6-8.3-7.5-10h-8c-3.9 1.7-6.5 5.8-7.5 10M42 30s2-2.6 2-8a17 17 0 0 0-.5-4h-23a17 17 0 0 0-.5 4c0 5.4 2 8 2 8m0 0h20v16H22z"/></svg>