<svg xmlns="http://www.w3.org/2000/svg" viewBox="0 0 64 64" aria-labelledby="title" aria-describedby="desc"><path data-name="layer2" d="M41 16c0 4 4.8 6.3 5.1 6.6s.9.7.9 1.3v33a2.1 2.1 0 0 1-.4 1.4l-3.5 3.2c-.3.3-.5.5-.8.5H21.7c-.4 0-.6-.2-.8-.5l-3.5-3.2a2.1 2.1 0 0 1-.4-1.4V24c0-.6.6-1.1.9-1.3S23 20 23 16z" fill="#a2d6ef"/><path data-name="opacity" d="M24.6 61.5l-2.3-3.2a2.8 2.8 0 0 1-.3-1.4V24a2.3 2.3 0 0 1 .6-1.3c.2-.3 3.4-2.7 3.4-6.7h-3c0 4-4.8 6.3-5.1 6.6s-.9.7-.9 1.3v33a2.1 2.1 0 0 0 .4 1.4l3.5 3.2c.3.3.5.5.8.5h3.4c-.2 0-.3-.2-.5-.5z" fill="#101129" opacity=".25"/><path data-name="opacity" d="M41.4 22.7C41.2 22.4 38 20 38 16h-3.6a16.1 16.1 0 0 0 1.4 6.6A4.4 4.4 0 0 1 36 24v32.9a6.5 6.5 0 0 1-.1 1.4l-.9 3.2c-.1.3-.1.5-.2.5h4.1c.3 0 .4-.2.6-.5l2.3-3.2a2.8 2.8 0 0 0 .3-1.4V24a2.3 2.3 0 0 0-.7-1.3z" fill="#fff" opacity=".5"/><circle data-name="layer1" cx="34" cy="3" r="1" fill="#d5e2f4"/><circle data-name="layer1" cx="42" cy="7" r="1" fill="#d5e2f4"/><circle data-name="layer1" cx="36" cy="11" r="1" fill="#d5e2f4"/><path data-name="stroke" d="M23 16c0 4-4.8 6.3-5.1 6.6s-.9.7-.9 1.3v33a2.1 2.1 0 0 0 .4 1.4l3.5 3.2c.3.3.5.5.8.5h20.6c.4 0 .6-.2.8-.5l3.5-3.2a2.1 2.1 0 0 0 .4-1.4V24c0-.6-.6-1.1-.9-1.3S41 20 41 16m-20-6l6 6m-6 0h22" fill="none" stroke="#2f446a" stroke-linecap="round" stroke-linejoin="round" stroke-width="2"/><circle data-name="stroke" cx="34" cy="3" r="1" fill="none" stroke="#2f446a" stroke-linecap="round" stroke-linejoin="round" stroke-width="2"/><circle data-name="stroke" cx="42" cy="7" r="1" fill="none" stroke="#2f446a" stroke-linecap="round" stroke-linejoin="round" stroke-width="2"/><circle data-name="stroke" cx="36" cy="11" r="1" fill="none" stroke="#2f446a" stroke-linecap="round" stroke-linejoin="round" stroke-width="2"/></svg>