<svg xmlns="http://www.w3.org/2000/svg" viewBox="0 0 64 64" aria-labelledby="title" aria-describedby="desc"><path data-name="layer5" fill="#fff" d="M12 42V16h50v30H12v-4z"/><path data-name="layer4" fill="#c3d6f9" d="M2 42h10v18H2z"/><path data-name="layer3" fill="#a6b1c9" d="M12 4h50v12H12z"/><circle data-name="layer2" cx="18" cy="10" r="1" fill="#f27e7c"/><circle data-name="layer2" cx="25" cy="10" r="1" fill="#f27e7c"/><circle data-name="layer2" cx="32" cy="10" r="1" fill="#f27e7c"/><path data-name="layer1" d="M42 52c26.1.4 20 8 18 8H24c-4 0-8-4-12-4V44c4 0 6-2 12-2s18 1 18 9z" fill="#f7deda"/><path data-name="opacity" fill="#000064" opacity=".15" d="M12 16h4v28h-4zm0-12h4v12h-4z"/><path data-name="stroke" fill="none" stroke="#2e4369" stroke-linecap="round" stroke-linejoin="round" stroke-width="2" d="M2 42h10v18H2zm10 14c4 0 8 4 12 4h36c2 0 8.4-8-20-8-9.6 0-14-2-14-2"/><path data-name="stroke" d="M12 44c4 0 6-2 12-2s18 1 18 9v1" fill="none" stroke="#2e4369" stroke-linecap="round" stroke-linejoin="round" stroke-width="2"/><circle data-name="stroke" cx="18" cy="10" r="1" fill="none" stroke="#2e4369" stroke-linecap="round" stroke-linejoin="round" stroke-width="2"/><circle data-name="stroke" cx="25" cy="10" r="1" fill="none" stroke="#2e4369" stroke-linecap="round" stroke-linejoin="round" stroke-width="2"/><circle data-name="stroke" cx="32" cy="10" r="1" fill="none" stroke="#2e4369" stroke-linecap="round" stroke-linejoin="round" stroke-width="2"/><path data-name="stroke" fill="none" stroke="#2e4369" stroke-linecap="round" stroke-linejoin="round" stroke-width="2" d="M12 4h50v12H12zm28 42h22V16m-50 0v26"/></svg>