<svg xmlns="http://www.w3.org/2000/svg" viewBox="0 0 64 64" aria-labelledby="title" aria-describedby="desc"><path data-name="layer2" fill="#f26161" d="M6 2h52v8H6z"/><path data-name="opacity" fill="#000064" opacity=".2" d="M6 2h52v8H6z"/><path data-name="layer2" fill="#f26161" d="M2 10h60v52H2z"/><path data-name="opacity" d="M23 25.2V43h-3a5 5 0 1 0 5 5V26.8l14-3.5V39h-3a5 5 0 1 0 5 5V20.7z" fill="#000064" opacity=".2"/><path data-name="layer1" d="M42 42a4 4 0 1 1-4-4h4zm-16 0h-4a4 4 0 1 0 4 4z" fill="#fff"/><path data-name="stroke" fill="none" stroke="#2e4369" stroke-linecap="round" stroke-miterlimit="10" stroke-width="2" d="M6 10V2h52v8M26 42h-4a4 4 0 1 0 4 4V24l16-4v22a4 4 0 1 1-4-4h4" stroke-linejoin="round"/><path data-name="stroke" fill="none" stroke="#2e4369" stroke-linecap="round" stroke-miterlimit="10" stroke-width="2" d="M2 10h60v52H2z" stroke-linejoin="round"/></svg>