<svg xmlns="http://www.w3.org/2000/svg" viewBox="0 0 64 64" aria-labelledby="title" aria-describedby="desc"><path data-name="layer1" d="M32 2a30 30 0 1 0 30 30A30 30 0 0 0 32 2zM17 26.3a2 2 0 0 1 2.7.7c.3.5.8 1 2.3 1a2.3 2.3 0 0 0 2.3-1.1 2 2 0 1 1 3.3 2.2A6.2 6.2 0 0 1 22 32a6.2 6.2 0 0 1-5.7-3 2 2 0 0 1 .7-2.7zm30.2 23.4a2 2 0 0 1-2.8-.2 16.5 16.5 0 0 0-24.7 0 2 2 0 0 1-3-2.7 20.5 20.5 0 0 1 30.7 0 2 2 0 0 1-.2 2.9zm.5-20.6A6.2 6.2 0 0 1 42 32a6.2 6.2 0 0 1-5.7-3 2 2 0 0 1 3.4-2c.3.5.8 1 2.3 1a2.3 2.3 0 0 0 2.3-1.1 2 2 0 0 1 3.3 2.2z" fill="#202020"/></svg>