<svg xmlns="http://www.w3.org/2000/svg" viewBox="0 0 64 64" aria-labelledby="title" aria-describedby="desc"><path data-name="layer1" d="M3.1 32.4q-.15 0-.3.3l-.6 5.7.6 5.6a.319.319 0 0 0 .3.3q.15 0 .3-.3l.7-5.6-.7-5.7q-.15-.3-.3-.3zM.7 34.6q-.15 0-.3.3L0 38.4l.5 3.5c0 .1.1.2.3.2.1.1.2 0 .2-.2l.6-3.5-.6-3.5a.265.265 0 0 0-.3-.3zm4.9-3.3a.265.265 0 0 0-.3.3l-.6 6.8.6 6.6a.319.319 0 0 0 .3.3.265.265 0 0 0 .3-.3l.7-6.6-.7-6.8a.265.265 0 0 0-.3-.3zm2.5-.2a.43.43 0 0 0-.4.4l-.6 7 .6 6.8a.4.4 0 1 0 .8 0l.6-6.8-.6-7a.366.366 0 0 0-.4-.4zm3 .8a.4.4 0 0 0-.8 0l-.5 6.5.5 6.8a.4.4 0 1 0 .8 0l.6-6.8zm2.2-4.5a.472.472 0 0 0-.5.5l-.5 10.6.5 6.8a.5.5 0 0 0 1 0l.6-6.8-.6-10.6c-.1-.3-.3-.5-.5-.5zm2.5-2.5a.472.472 0 0 0-.5.5l-.5 13 .5 6.8a.5.5 0 1 0 1 0l.5-6.8-.5-13c.1-.2-.2-.5-.5-.5zm2.7-1.1a.645.645 0 0 0-.6.6l-.4 14.1.4 6.7a.6.6 0 0 0 1.2 0l.5-6.7-.5-14.1a.576.576 0 0 0-.6-.6zm3.3.1a.6.6 0 0 0-1.2 0l-.4 14.6.4 6.7a.6.6 0 0 0 1.2 0l.5-6.7zm2-.3a.684.684 0 0 0-.7.7l-.4 14.2.4 6.6a.7.7 0 1 0 1.4 0l.4-6.6-.4-14.2a.684.684 0 0 0-.7-.7zm2.7.4a.789.789 0 0 0-.8.8l-.3 13.7.3 6.6a.713.713 0 0 0 .8.7c.4 0 .7-.3.8-.8l.4-6.6-.4-13.7a.969.969 0 0 0-.8-.7zm3.1-2.5a.6.6 0 0 0-.4-.1c-.2 0-.3 0-.4.1a.842.842 0 0 0-.4.7v.2l-.4 16 .3 6.5a.764.764 0 0 0 .2.5.864.864 0 0 0 .6.3 1.421 1.421 0 0 0 .6-.2.845.845 0 0 0 .2-.6v-.6l.3-5.9-.2-16.2a1.012 1.012 0 0 0-.4-.7zm2.7-1.5a.6.6 0 0 0-.4-.1.764.764 0 0 0-.5.2.908.908 0 0 0-.3.7v.1l-.4 17.6.2 3.3.1 3.1a.9.9 0 1 0 1.8 0l.4-6.4-.4-17.7a1.234 1.234 0 0 0-.5-.8zm23.8 10.1a7.306 7.306 0 0 0-3 .6A13.912 13.912 0 0 0 39.3 18a13.477 13.477 0 0 0-5 .9c-.6.2-.8.5-.8.9v25a.882.882 0 0 0 .8.9h21.8a7.8 7.8 0 1 0 0-15.6z" fill="#202020"/></svg>