<svg xmlns="http://www.w3.org/2000/svg" viewBox="0 0 64 64" aria-labelledby="title" aria-describedby="desc"><path data-name="layer4" d="M42 52V19.8C42 8.9 32 2 32 2S22 8.9 22 19.8V52a6 6 0 0 1 6 6h8a6 6 0 0 1 6-6z" fill="#d1deff"/><circle data-name="layer3" cx="32" cy="21" r="4" fill="#c3d6e0"/><path data-name="layer2" d="M28 62v-4a6 6 0 1 0-12 0v4zm20 0v-4a6 6 0 1 0-12 0v4z" fill="#7b8baf"/><path data-name="layer1" d="M22 52V26h-3.1a2.9 2.9 0 0 0-2.9 2.9v12.2a2.9 2.9 0 0 1-2.4 2.9h-2.7A2.9 2.9 0 0 0 8 46.9V58h8a6 6 0 0 1 6-6zm31.1-8h-2.7a2.9 2.9 0 0 1-2.4-2.9V28.9a2.9 2.9 0 0 0-2.9-2.9H42v26a6 6 0 0 1 6 6h8V46.9a2.9 2.9 0 0 0-2.9-2.9z" fill="#a3b8df"/><path data-name="opacity" d="M22.2 52.2v-26h-3a2.9 2.9 0 0 0-2.9 2.9v12.2a2.9 2.9 0 0 1-2.4 2.9h-2.7a2.9 2.9 0 0 0-2.9 2.9v11.1h8a6 6 0 0 1 5.9-6z" fill="#000064" opacity=".15"/><path data-name="opacity" d="M16 58v4h6V52a6 6 0 0 0-6 6zm26-6a6 6 0 0 0-6 6v4h6V52zM32 2S22 8.9 22 19.8V52a6 6 0 0 1 6 6V19a42.9 42.9 0 0 1 4-17z" fill="#000064" opacity=".15"/><path data-name="opacity" d="M42 52V19.8C42 8.9 32 2 32 2s6 8.8 6 15v31.5s3-.5 4 3.5z" fill="#fff" opacity=".25"/><circle data-name="stroke" cx="32" cy="22" r="4" fill="none" stroke="#2e4369" stroke-linecap="round" stroke-linejoin="round" stroke-width="2"/><path data-name="stroke" d="M22 26h-3.1a2.9 2.9 0 0 0-2.9 2.9v12.2a2.9 2.9 0 0 1-2.4 2.9h-2.7A2.9 2.9 0 0 0 8 46.9V58h8m26-32h3.1a2.9 2.9 0 0 1 2.9 2.9v12.2a2.9 2.9 0 0 0 2.4 2.9H53a2.9 2.9 0 0 1 3 2.9V58h-8m-20 0h8m6-6V19.8C42 8.9 32 2 32 2S22 8.9 22 19.8V52" fill="none" stroke="#2e4369" stroke-linecap="round" stroke-linejoin="round" stroke-width="2"/><path data-name="stroke" d="M28 62v-4a6 6 0 1 0-12 0v4zm20 0v-4a6 6 0 1 0-12 0v4z" fill="none" stroke="#2e4369" stroke-linecap="round" stroke-linejoin="round" stroke-width="2"/></svg>