<svg xmlns="http://www.w3.org/2000/svg" viewBox="0 0 64 64" aria-labelledby="title" aria-describedby="desc"><path data-name="layer2" d="M18 50.8V28h-.1a2.9 2.9 0 0 0-2.9 2.9v12.2a2.9 2.9 0 0 1-2.5 2.9H9.9A2.9 2.9 0 0 0 7 48.9V60h5a10 10 0 0 1 6-9.2zM54.1 46h-2.6a2.9 2.9 0 0 1-2.5-2.9V30.9a2.9 2.9 0 0 0-2.9-2.9H46v22.8a10 10 0 0 1 6 9.2h5V48.9a2.9 2.9 0 0 0-2.9-2.9z" fill="#202020"/><path data-name="layer1" d="M22 50a10 10 0 0 1 10 10 10 10 0 0 1 10-10V21.8C42 10.9 32 4 32 4s-10 6.9-10 17.8V50zm10-30a4 4 0 1 1-4 4 4 4 0 0 1 4-4z" fill="#202020"/></svg>