<svg xmlns="http://www.w3.org/2000/svg" viewBox="0 0 64 64" aria-labelledby="title" aria-describedby="desc"><path data-name="layer2" d="M8.8 60.8a4 4 0 0 1-5.7 0 4 4 0 0 1 0-5.7l11.4-11.2a4 4 0 0 1 5.7 0 4 4 0 0 1 0 5.7z" fill="#f26950"/><path data-name="opacity" d="M20.2 44a4 4 0 0 1-1.1 3.5L7.8 58.8a4 4 0 0 1-5.7 0H2a4 4 0 0 0 6.8 2.1l11.3-11.4a4 4 0 0 0 .1-5.5z" fill="#101129" opacity=".25"/><path data-name="layer1" d="M62 19L47.9 33.1a12 12 0 0 1-17 0 12 12 0 0 1 0-17L45 2z" fill="#bacae8"/><path data-name="opacity" d="M47.9 33.1l.4-.4v-17L30.9 33.1a12 12 0 0 0 17 0z" fill="#101129" opacity=".25"/><path data-name="stroke" d="M8.8 60.8a4 4 0 0 1-5.7 0 4 4 0 0 1 0-5.7l11.4-11.2a4 4 0 0 1 5.7 0 4 4 0 0 1 0 5.7zm11.3-16.9l28.2-28.2M62 18.9L47.9 33.1a12 12 0 0 1-17 0 12 12 0 0 1 0-17L45 2z" fill="none" stroke="#2f446a" stroke-linecap="round" stroke-linejoin="round" stroke-width="2"/></svg>