<svg xmlns="http://www.w3.org/2000/svg" viewBox="0 0 64 64" aria-labelledby="title" aria-describedby="desc"><path data-name="layer2" d="M49.4 50.3l-8.8-5.8a4.1 4.1 0 0 0-5.6 1.1c-2 2.5-4.5 6.6-13.8-2.8S15.9 31 18.4 29a4.1 4.1 0 0 0 1.1-5.5l-5.8-8.8c-.8-1.1-1.8-2.9-4.2-2.6S1 15.9 1 23.5s6 17 14.2 25.2S32.8 63 40.5 63s11.2-6.8 11.5-8.5-1.5-3.5-2.6-4.2z" fill="#202020"/><path data-name="layer1" d="M29 1a2 2 0 0 0 0 4 30 30 0 0 1 30 30 2 2 0 1 0 4 0A34 34 0 0 0 29 1z" fill="#202020"/><path data-name="layer1" d="M29 11a2 2 0 1 0 0 4 20 20 0 0 1 20 20 2 2 0 1 0 4 0 24 24 0 0 0-24-24z" fill="#202020"/><path data-name="layer1" d="M38 35a2 2 0 1 0 4 0 13 13 0 0 0-13-13 2 2 0 0 0 0 4 9 9 0 0 1 9 9z" fill="#202020"/></svg>