<svg xmlns="http://www.w3.org/2000/svg" viewBox="0 0 64 64" aria-labelledby="title" aria-describedby="desc"><circle data-name="layer2" cx="32" cy="32" r="6" fill="#202020"/><path data-name="layer1" d="M56.4 14.6l4.1-4.1a5 5 0 0 0-7.1-7.1l-4 4.2a29.9 29.9 0 0 0-34.7 0l-4.2-4.1a5 5 0 0 0-7.1 7.1l4.1 4.1a29.9 29.9 0 0 0 0 34.7l-4 4.1a5 5 0 1 0 7.1 7.1l4.1-4.1a29.9 29.9 0 0 0 34.7 0l4.1 4.1a5 5 0 0 0 7.1-7.1l-4.1-4.1a29.9 29.9 0 0 0 0-34.7zM32 54a22 22 0 1 1 22-22 22 22 0 0 1-22 22z" fill="#202020"/></svg>