<svg viewBox="0 0 64 64" xmlns="http://www.w3.org/2000/svg" aria-labelledby="title" aria-describedby="desc"><path fill="#5edc89" d="M50.359 49.284c1.115.764 2.928 1.8 2.584 4.184C52.688 55.239 49.1 62 41.461 62s-17.006-6.02-25.227-14.241-14.24-17.59-14.24-25.225 6.762-11.227 8.531-11.482c2.387-.346 3.422 1.467 4.186 2.585s5.109 7.81 5.785 8.839a4.111 4.111 0 0 1-1.088 5.55c-2.467 2-6.578 4.463 2.76 13.8s11.8 5.226 13.8 2.759A4.109 4.109 0 0 1 41.52 43.5c1.027.675 7.722 5.021 8.839 5.784z" data-name="layer1"/><path opacity=".15" fill="#000064" d="M43.461 58c-7.637 0-17.006-6.02-25.227-14.241s-14.24-17.59-14.24-25.225a11.834 11.834 0 0 1 .438-3.18 11.549 11.549 0 0 0-2.438 7.18c0 7.635 6.02 17 14.24 25.225S33.824 62 41.461 62s11.227-6.761 11.482-8.532c.01-.07 0-.127.008-.2A11.894 11.894 0 0 1 43.461 58z" data-name="opacity"/><path stroke-width="2" stroke-miterlimit="10" stroke-linecap="round" stroke="#2e4369" fill="none" d="M50.359 49.284c1.115.764 2.928 1.8 2.584 4.184C52.688 55.239 49.1 62 41.461 62s-17.006-6.02-25.227-14.241-14.24-17.59-14.24-25.225 6.762-11.227 8.531-11.482c2.387-.346 3.422 1.467 4.186 2.585s5.109 7.81 5.785 8.839a4.111 4.111 0 0 1-1.088 5.55c-2.467 2-6.578 4.463 2.76 13.8s11.8 5.226 13.8 2.759A4.109 4.109 0 0 1 41.52 43.5c1.027.675 7.722 5.021 8.839 5.784zM30 2.006a32 32 0 0 1 32 32M30 12a21.994 21.994 0 0 1 21.994 21.994M30 23a11.006 11.006 0 0 1 11.006 11.006" data-name="stroke" stroke-linejoin="round"/></svg>