<svg xmlns="http://www.w3.org/2000/svg" viewBox="0 0 64 64" aria-labelledby="title" aria-describedby="desc"><circle data-name="layer2" cx="32" cy="32" r="30" fill="#f3f8ff"/><path data-name="opacity" d="M32 2A29.938 29.938 0 0 0 8.882 12.882a30 30 0 0 1 42.237 42.236A30 30 0 0 0 32 2z" opacity=".15"/><path data-name="layer1" d="M15.183 16.544A.976.976 0 0 1 15 16a1 1 0 0 1 1.489-.873l18.748 11.82a6 6 0 1 1-8.153 8.487z" fill="#f66"/><path data-name="opacity" d="M27.084 35.434l-9.13-14.492-4.465-2.815A1 1 0 0 0 12 19a.976.976 0 0 0 .183.544l11.9 18.89a5.993 5.993 0 0 0 10.383-.968 5.982 5.982 0 0 1-7.382-2.032z" opacity=".15"/><circle data-name="stroke" cx="32" cy="32" r="30" fill="none" stroke="#2e4369" stroke-linecap="round" stroke-linejoin="round" stroke-width="2"/><path data-name="stroke" fill="none" stroke="#2e4369" stroke-linecap="round" stroke-linejoin="round" stroke-width="2" d="M8 32h6M32 8v5.999M50 32h6M45 20l4-4m-33.817.544A.976.976 0 0 1 15 16a1 1 0 0 1 1.489-.873l18.748 11.82a6 6 0 1 1-8.153 8.487z"/></svg>