<svg xmlns="http://www.w3.org/2000/svg" viewBox="0 0 64 64" aria-labelledby="title" aria-describedby="desc"><path data-name="layer3" d="M14 30.1v2a2 2 0 0 1-2 2H8.1l.3.3 2.3 5.8H35c22.3 0 27-10.9 27-10.9z" fill="#f27e7c"/><rect data-name="layer2" x="2" y="26" width="12" height="8" rx="2" ry="2" fill="#7b8baf"/><path data-name="layer1" d="M54 29.2c-3.6-5.7-14-7.1-14-7.1l-3.4 7.6 17-.3z" fill="#c3d6e0"/><path data-name="opacity" d="M7 32v-4a2 2 0 0 1 2-2H4a2 2 0 0 0-2 2v4a2 2 0 0 0 2 2h5a2 2 0 0 1-2-2z" fill="#000064" opacity=".15"/><path data-name="opacity" d="M12 34H8.1l.3.3 2.3 5.8H35c7.8 0 13.5-1.3 17.5-3.1C10 37 14 36 14 36v-3h-.2a2 2 0 0 1-1.8 1z" fill="#000064" opacity=".15"/><path data-name="opacity" d="M54 29.2c-3.6-5.7-14-7.1-14-7.1l-1.5 3.3c2.5.6 7.5 2.1 10.6 4h4.4z" fill="#fff" opacity=".5"/><path data-name="stroke" fill="none" stroke="#2e4369" stroke-linecap="round" stroke-linejoin="round" stroke-width="2" d="M26 22.1l1.9 7.7m8.7-.2l3.4-7.5s10.4 1.4 14 7.1m-40 .9l48-.9s-4.7 10.9-27 10.9H10.7l-2.3-5.8m5.6 5.8l-4 6"/><rect data-name="stroke" x="2" y="26" width="12" height="8" rx="2" ry="2" fill="none" stroke="#2e4369" stroke-linecap="round" stroke-linejoin="round" stroke-width="2"/></svg>