<svg viewBox="0 0 64 64" xmlns="http://www.w3.org/2000/svg" aria-labelledby="title" aria-describedby="desc"><path fill="#bacae9" d="M43 30H2l17.8-19a3 3 0 0 1 4.4 4l-8.3 9H43a3 3 0 0 1 0 6z" data-name="layer2"/><path fill="#f99" d="M42 56a3 3 0 0 1-2.2-5l8.3-9H21a3 3 0 0 1 0-6h41L44.2 55a3 3 0 0 1-2.2 1z" data-name="layer1"/><path stroke-width="2" stroke-linejoin="round" stroke-linecap="round" stroke="#2e4369" fill="none" d="M43 30H2l17.8-19a3 3 0 0 1 4.4 4l-8.3 9H43a3 3 0 0 1 0 6zm-1 26a3 3 0 0 1-2.2-5l8.3-9H21a3 3 0 0 1 0-6h41L44.2 55a3 3 0 0 1-2.2 1z" data-name="stroke"/></svg>