<svg xmlns="http://www.w3.org/2000/svg" viewBox="0 0 64 64" aria-labelledby="title" aria-describedby="desc"><path data-name="layer4" fill="#536897" d="M39 12V6h5v6"/><path data-name="layer3" fill="#ed4c49" d="M30 23.4h23v38.59H30z"/><path data-name="layer2" d="M53 23.4a11.4 11.4 0 0 0-4.9-9.4v-2H34.9v2.1a11.4 11.4 0 0 0-4.9 9.3" fill="#bacae9"/><path data-name="layer1" fill="#fff" d="M30 33.1h14v20H30"/><path data-name="opacity" fill="#000028" opacity=".15" d="M30 23.4h5v9.68h-5zm0 29.7h5v8.91h-5zm9.9-39V12h-5v2.1a11.4 11.4 0 0 0-4.9 9.3h5a11.4 11.4 0 0 1 4.9-9.3zm-9.9 19h5v20h-5z"/><path data-name="stroke" fill="none" stroke="#2e4369" stroke-linecap="round" stroke-linejoin="round" stroke-width="2" d="M30 33.1h14v20H30M39 12V6h5v6M11 9h15m.9 3l-15 4m0-14l15 4"/><path data-name="stroke" fill="none" stroke="#2e4369" stroke-linecap="round" stroke-linejoin="round" stroke-width="2" d="M30 23.4h23v38.59H30zm23 0a11.4 11.4 0 0 0-4.9-9.4v-2H34.9v2.1a11.4 11.4 0 0 0-4.9 9.3"/></svg>