<svg xmlns="http://www.w3.org/2000/svg" viewBox="0 0 64 64" aria-labelledby="title" aria-describedby="desc"><path data-name="layer2" d="M61.8 36.2L54.6 13A5.1 5.1 0 0 0 50 9H14c-2 0-3.7 1.3-4.6 3.9L2.2 36c-.1 0-.2.7-.2 1v16a2 2 0 0 0 2 2h56a2 2 0 0 0 2-2V37a2 2 0 0 0-.2-.8z" fill="#c3d6f9"/><rect data-name="opacity" x="2" y="35" width="60" height="20" rx="2" ry="2" fill="#000064" opacity=".14"/><path d="M50 9h-4a5.1 5.1 0 0 1 4.6 4l6.8 22H60a2 2 0 0 1 1.8 1.2L54.6 13A5.1 5.1 0 0 0 50 9z" fill="#fff" data-name="opacity" opacity=".25"/><circle data-name="layer1" cx="52" cy="41" r="1" fill="#f27e7c"/><rect data-name="stroke" x="2" y="35" width="60" height="20" rx="2" ry="2" fill="none" stroke="#2e4369" stroke-linecap="round" stroke-linejoin="round" stroke-width="2"/><path data-name="stroke" d="M2.2 36.2L9.4 13c.9-2.7 2.6-4 4.6-4h36a5.1 5.1 0 0 1 4.6 4l7.2 23.2M12 47h40" fill="none" stroke="#2e4369" stroke-linecap="round" stroke-linejoin="round" stroke-width="2"/><circle data-name="stroke" cx="52" cy="41" r="1" fill="none" stroke="#2e4369" stroke-linecap="round" stroke-linejoin="round" stroke-width="2"/></svg>