<svg xmlns="http://www.w3.org/2000/svg" viewBox="0 0 64 64" aria-labelledby="title" aria-describedby="desc"><path data-name="layer2" d="M46.4 37.7h4.3V64H9V37.7h4.3v22h33.2c-.1-7.3-.1-14.6-.1-22z" fill="#bcbbbc"/><path data-name="layer1" d="M34.2 8.3c4.8 7 9.5 13.9 14.2 20.9l4.5-3c-4.8-7-9.5-13.9-14.2-20.9zm13.4 21.6c-7.3-4.3-14.5-8.6-21.8-12.8-.9 1.6-1.8 3.1-2.7 4.7 7.3 4.3 14.5 8.5 21.8 12.8.9-1.6 1.8-3.1 2.7-4.7zM54.9 0c-1.8.3-3.5.6-5.3.9 1.4 8.3 2.9 16.6 4.3 24.9 1.8-.3 3.6-.6 5.3-.9-1.4-8.3-2.9-16.6-4.3-24.9zM44.4 36.1c-8.1-2.2-16.3-4.4-24.4-6.6-.5 1.7-.9 3.5-1.4 5.2 8.1 2.2 16.3 4.4 24.4 6.6.5-1.7.9-3.5 1.4-5.2zm-2.3 14H16.9v5.4h25.2zm.6-7c-8.4-.8-16.8-1.5-25.2-2.3-.2 1.8-.3 3.6-.5 5.4 8.4.8 16.8 1.5 25.2 2.3.2-1.8.4-3.6.5-5.4z" fill="#f48023"/></svg>