<svg xmlns="http://www.w3.org/2000/svg" viewBox="0 0 64 64" aria-labelledby="title" aria-describedby="desc"><path data-name="layer4" d="M36 22.7V14h-8v8.7a11.8 11.8 0 0 1 8 0zM46 40h-3.6a12 12 0 0 1-20.7 0H18l-4 14 18 6 18-6z" fill="#7b8baf"/><circle data-name="layer3" cx="32" cy="34" r="12" fill="#ed4c49"/><path data-name="layer2" d="M53.5 12.3A4.5 4.5 0 0 0 49 7.8l-1.5.3a3 3 0 0 0-4.3-1.9 4.9 4.9 0 0 0-9.5-.6 4.2 4.2 0 1 0-3.8 6.4 8.5 8.5 0 0 0-.5 2H36v8.7l.6.2h1.1a8.2 8.2 0 0 0 4.4-1.3 4.8 4.8 0 0 0 7.8-5 4.5 4.5 0 0 0 3.6-4.3z" fill="#c3d6e0"/><circle data-name="layer1" cx="32" cy="34" r="4" fill="#a3b8df"/><path data-name="opacity" d="M28 14v8.7a11.9 11.9 0 0 1 4-.7v-8z" fill="#000064" opacity=".15"/><path data-name="opacity" d="M27.3 6.6a4.2 4.2 0 0 1 3.5 1.9 4.9 4.9 0 0 1 2.9-3.2 4.2 4.2 0 0 0-7.4 1.4zM49 7.8l-1.5.3a3 3 0 0 0-4.3-1.9 4.9 4.9 0 0 0-9.4-.9l1.6-.3a4.9 4.9 0 0 1 4.8 4.1 3 3 0 0 1 4.3 1.9l1.5-.3a4.5 4.5 0 0 1 4.5 4.5 4.4 4.4 0 0 1-.2 1.3A4.5 4.5 0 0 0 49 7.8z" fill="#fff" opacity=".5"/><path data-name="opacity" d="M38.9 42.1a16.9 16.9 0 0 1-16.8-14.9A12 12 0 0 0 41 41.9z" fill="#000064" opacity=".15"/><path data-name="opacity" d="M32 30a4 4 0 0 0-3.3 1.7h.9a4 4 0 0 1 3.3 6.3 4 4 0 0 0-.9-8z" fill="#fff" opacity=".3"/><path data-name="opacity" d="M21.6 40H18l-4 14 18 6V48.2c5.2 0 7.7-5 7.7-5A11.9 11.9 0 0 1 21.6 40z" fill="#000064" opacity=".2"/><path data-name="stroke" fill="none" stroke="#2e4369" stroke-linecap="round" stroke-linejoin="round" stroke-width="2" d="M8 62l11.7-6.1M56 62l-11.7-6.1m-2-15.9H46l4 14-18 6-18-6 4-14h3.6m14.7-17.1h1.3a8.2 8.2 0 0 0 4.4-1.3 4.8 4.8 0 0 0 7.8-5 4.5 4.5 0 0 0-.8-8.8l-1.5.3a3 3 0 0 0-4.3-1.9 4.9 4.9 0 0 0-9.5-.6 4.2 4.2 0 1 0-3.8 6.4 8.5 8.5 0 0 0-.5 2M32 46v14"/><circle data-name="stroke" cx="32" cy="34" r="12" fill="none" stroke="#2e4369" stroke-linecap="round" stroke-linejoin="round" stroke-width="2"/><circle data-name="stroke" cx="32" cy="34" r="4" fill="none" stroke="#2e4369" stroke-linecap="round" stroke-linejoin="round" stroke-width="2"/><path data-name="stroke" fill="none" stroke="#2e4369" stroke-linecap="round" stroke-linejoin="round" stroke-width="2" d="M28 14v8.7m8 0V14m-10 0h12"/></svg>