<svg xmlns="http://www.w3.org/2000/svg" viewBox="0 0 64 64" aria-labelledby="title" aria-describedby="desc"><path data-name="layer2" d="M28 51.4c18.9 0 34-16 34-27.3 0-2.1.6-20.7-10-20.7s-11.4 8-28.2 8c-8 0-7.6-2-11.8-2s-10 3.8-10 18c0 15.7 7.1 24 26 24zM14.3 18.3a2 2 0 0 1 2.8-.6l11.1 7.4 14.9-7.5a2 2 0 0 1 1.8 3.6l-15.3 7.6L25.9 40a2 2 0 0 1-1.9 1.4h-.6a2 2 0 0 1-1.3-2.5l3.5-10.6L14.9 21a2 2 0 0 1-.6-2.7z" fill="#202020"/><path data-name="layer1" d="M28 55.4C10.1 55.4 2.8 48 2.1 33.9c0 .9-.1 1.8-.1 2.7 0 15.8 7.1 24 26 24s34-16 34-27.3c0-.5 0-2-.1-4-1 11.2-15.7 26.1-33.9 26.1z" fill="#202020"/></svg>