<svg xmlns="http://www.w3.org/2000/svg" viewBox="0 0 64 64" aria-labelledby="title" aria-describedby="desc"><path data-name="layer1" d="M28 52C9.9 52 2.6 44.4 2 30v8c0 15.7 7.1 22 26 22s34-12 34-23.3v-12C62 36 46.9 52 28 52z" fill="#fff4e8"/><path data-name="opacity" d="M11.2 48.5c-6-3.6-8.8-9.7-9.1-18.4H2v8C2 52.8 8.2 59.3 24.6 60c-7.3-1.7-11.5-5.3-13.4-11.5z" fill="#101129" opacity=".18"/><path data-name="layer2" d="M52 4c-10.6 0-11.4 8-28.2 8-8 0-7.6-2-11.8-2S2 13.8 2 28v2c.6 14.4 7.9 22 26 22s34-16 34-27.3C62 22.6 62.6 4 52 4z" fill="#f04848"/><path data-name="layer1" d="M45.8 19.1a2 2 0 0 0-2.7-.9l-14.9 6.5-11.1-6.4a2 2 0 0 0-2.2 3.3l8.7 8.2-1.5 9.6a2 2 0 0 0 1.3 2.5h.6a2 2 0 0 0 1.9-1.4l4.7-10.2 14.3-8.7a2 2 0 0 0 .9-2.5z" fill="#fff4e8"/><path data-name="stroke" d="M12 10c4.2 0 3.8 2 11.8 2C40.6 12 41.4 4 52 4s10 18.6 10 20.7C62 36 46.9 52 28 52S2 43.8 2 28c0-14.2 5.3-18 10-18z" fill="none" stroke="#2f446a" stroke-linecap="round" stroke-linejoin="round" stroke-width="2"/><path data-name="stroke" d="M2 30v8c0 15.8 7.1 22 26 22s34-12 34-23.3v-12" fill="none" stroke="#2f446a" stroke-linecap="round" stroke-linejoin="round" stroke-width="2"/><path data-name="stroke" d="M45.8 19.1a2 2 0 0 0-2.7-.9l-14.9 6.5-11.1-6.4a2 2 0 0 0-2.2 3.3l8.7 8.2-1.5 9.5a2 2 0 0 0 1.3 2.5h.6a2 2 0 0 0 1.9-1.4l4.7-10.2 14.3-8.7a2 2 0 0 0 .9-2.4z" fill="none" stroke="#2f446a" stroke-linecap="round" stroke-linejoin="round" stroke-width="2"/></svg>