<svg xmlns="http://www.w3.org/2000/svg" viewBox="0 0 64 64" aria-labelledby="title" aria-describedby="desc"><path data-name="layer1" fill="#dbaa79" d="M2 32h30v30H2zm30 0h30v30H32zM16 2h30v30H16z"/><path data-name="opacity" fill="#000064" opacity=".15" d="M21 30V2h-5v30h30v-2H21zM7 60V32H2v30h30v-2H7zm30 0V32h-5v30h30v-2H37z"/><path data-name="stroke" fill="none" stroke="#2e4369" stroke-linecap="round" stroke-miterlimit="10" stroke-width="2" d="M16 32V2h30v30M28 10h6m-2 22h30v30H32m12-22h6M2 32h30v30H2zm12 8h6" stroke-linejoin="round"/></svg>