<svg xmlns="http://www.w3.org/2000/svg" viewBox="0 0 64 64" aria-labelledby="title" aria-describedby="desc"><circle data-name="layer3" cx="32" cy="36.006" r="26" fill="#e1f4f3"/><path data-name="opacity" d="M32 10.006a25.937 25.937 0 0 0-19.82 9.181 25.994 25.994 0 0 1 36.639 36.638A25.995 25.995 0 0 0 32 10.006z" fill="#000064" opacity=".15"/><path data-name="opacity" d="M34.5 38.006A4.49 4.49 0 0 0 32 34V20.006a2 2 0 0 0-4 0V34a4.466 4.466 0 0 0 0 8.02v3.021a2 2 0 1 0 4 0v-3.026a4.49 4.49 0 0 0 2.5-4.009z" fill="#000064" opacity=".15"/><rect data-name="layer1" x="50.896" y="8.453" width="10.209" height="5.104" rx="1" ry="1" transform="rotate(45 56 11.005)" fill="#ff5a6f"/><path data-name="layer2" d="M35 10.183V4.006a1 1 0 0 0-1-1h-4a1 1 0 0 0-1 1v6.178a25.425 25.425 0 0 1 6 0z" fill="#8491ba"/><circle data-name="layer1" cx="32" cy="36.006" r="3" fill="#ff5a6f"/><rect data-name="stroke" x="50.896" y="8.453" width="10.209" height="5.104" rx="1" ry="1" transform="rotate(45 56 11.005)" fill="none" stroke="#2e4369" stroke-linecap="round" stroke-miterlimit="10" stroke-width="2" stroke-linejoin="round"/><path data-name="stroke" fill="none" stroke="#2e4369" stroke-linecap="round" stroke-miterlimit="10" stroke-width="2" d="M49.877 17.128l4.318-4.318" stroke-linejoin="round"/><circle data-name="stroke" cx="32" cy="36.006" r="26" fill="none" stroke="#2e4369" stroke-linecap="round" stroke-miterlimit="10" stroke-width="2" stroke-linejoin="round"/><path data-name="stroke" d="M29 10.177V4.006a1 1 0 0 1 1-1h4a1 1 0 0 1 1 1v6.171m-3 5.829v17" fill="none" stroke="#2e4369" stroke-linecap="round" stroke-miterlimit="10" stroke-width="2" stroke-linejoin="round"/><circle data-name="stroke" cx="32" cy="36.006" r="3" fill="none" stroke="#2e4369" stroke-linecap="round" stroke-miterlimit="10" stroke-width="2" stroke-linejoin="round"/><path data-name="stroke" fill="none" stroke="#2e4369" stroke-linecap="round" stroke-miterlimit="10" stroke-width="2" d="M32 39.006v6.031" stroke-linejoin="round"/></svg>