<svg xmlns="http://www.w3.org/2000/svg" viewBox="0 0 64 64" aria-labelledby="title" aria-describedby="desc"><path data-name="layer2" d="M38 46.2V49a3 3 0 0 1-3 3h-6a3 3 0 0 1-3-3v-2.8c-12.6.8-22 4-22 7.8s12.5 8 28 8 28-3.6 28-8-9.4-7-22-7.8z" fill="#fff"/><circle data-name="layer1" cx="32" cy="8" r="6" fill="#49bcff"/><path data-name="layer1" d="M42 18H22a2 2 0 0 0-2 2v12a2 2 0 0 0 2 2h4v15a3 3 0 0 0 3 3h6a3 3 0 0 0 3-3V34h4a2 2 0 0 0 2-2V20a2 2 0 0 0-2-2z" fill="#49bcff"/><path data-name="opacity" d="M28.4 51.9A3 3 0 0 1 26 49v-2.8c-7.1.4-13.2 1.7-17.2 3.3l19.5 2.4z" fill="#000032" opacity=".2"/><circle data-name="stroke" cx="32" cy="8" r="6" fill="none" stroke="#2e4369" stroke-linecap="round" stroke-linejoin="round" stroke-width="2"/><path data-name="stroke" d="M38 46.2c12.6.8 22 4 22 7.8s-12.5 8-28 8-28-3.6-28-8 9.4-7 22-7.8" fill="none" stroke="#2e4369" stroke-linecap="round" stroke-linejoin="round" stroke-width="2"/><path data-name="stroke" d="M42 18H22a2 2 0 0 0-2 2v12a2 2 0 0 0 2 2h4v15a3 3 0 0 0 3 3h6a3 3 0 0 0 3-3V34h4a2 2 0 0 0 2-2V20a2 2 0 0 0-2-2z" fill="none" stroke="#2e4369" stroke-linecap="round" stroke-linejoin="round" stroke-width="2"/></svg>