<svg xmlns="http://www.w3.org/2000/svg" viewBox="0 0 64 64" aria-labelledby="title" aria-describedby="desc"><rect data-name="layer2" x="2" y="2" width="60" height="60" rx="10" ry="10" fill="#f26161"/><path data-name="opacity" d="M52 58H12A10 10 0 0 1 2 48v4a10 10 0 0 0 10 10h40a10 10 0 0 0 10-10v-4a10 10 0 0 1-10 10z" fill="#000064" opacity=".16"/><path data-name="layer1" fill="#fff" d="M24 22v20l20-10-20-10z"/><path data-name="opacity" fill="#000064" opacity=".16" d="M44 32L24 22v3l17 8.5 3-1.5z"/><rect data-name="stroke" x="2" y="2" width="60" height="60" rx="10" ry="10" fill="none" stroke="#2e4369" stroke-linecap="round" stroke-miterlimit="10" stroke-width="2" stroke-linejoin="round"/><path data-name="stroke" fill="none" stroke="#2e4369" stroke-linecap="round" stroke-miterlimit="10" stroke-width="2" d="M24 22v20l20-10-20-10z" stroke-linejoin="round"/></svg>