<svg xmlns="http://www.w3.org/2000/svg" viewBox="0 0 64 64" aria-labelledby="title" aria-describedby="desc"><path data-name="layer1" d="M25.879 33.879L14 45.758V41a3 3 0 0 0-6 0v15h15a3 3 0 0 0 0-6h-4.758l11.88-11.879a3 3 0 0 0-4.243-4.242zM41 8a3 3 0 0 0 0 6h4.758l-11.88 11.879a3 3 0 1 0 4.243 4.242L50 18.242V23a3 3 0 0 0 6 0V8z" fill="#bacae9"/><path data-name="stroke" d="M25.879 33.879L14 45.758V41a3 3 0 0 0-6 0v15h15a3 3 0 0 0 0-6h-4.758l11.88-11.879a3 3 0 0 0-4.243-4.242zM41 8a3 3 0 0 0 0 6h4.758l-11.88 11.879a3 3 0 1 0 4.243 4.242L50 18.242V23a3 3 0 0 0 6 0V8z" fill="none" stroke="#2e4369" stroke-linecap="round" stroke-linejoin="round" stroke-width="2"/></svg>