<svg xmlns="http://www.w3.org/2000/svg" viewBox="0 0 64 64" aria-labelledby="title" aria-describedby="desc"><path data-name="layer2" d="M43.9 35l1.2 1a15.4 15.4 0 0 1 4 10.1C49.1 54.9 41.4 62 32 62s-17.1-7.1-17.1-15.9h6c0 5.5 5 9.9 11.1 9.9s11.1-4.4 11.1-9.9a9.4 9.4 0 0 0-2.4-6L34.5 35m-9.9-6c-5.2-4-7.8-8.3-7.8-13C16.7 8.3 23.6 2 32 2s15.3 6.3 15.3 14h-6c0-4.4-4.2-8-9.3-8s-9.3 3.6-9.3 8 5.8 8.9 10.7 11.5l2.9 1.5" fill="#91aadc"/><path data-name="layer1" fill="#99dbff" d="M5 29h54v6H5z"/><path data-name="opacity" d="M35.9 36l4.8 4a11.4 11.4 0 0 1 1.8 3h6.2a16.4 16.4 0 0 0-3.6-7z" fill="#000064" opacity=".15"/><path data-name="stroke" d="M43.9 35l1.2 1a15.4 15.4 0 0 1 4 10.1C49.1 54.9 41.4 62 32 62s-17.1-7.1-17.1-15.9h6c0 5.5 5 9.9 11.1 9.9s11.1-4.4 11.1-9.9a9.4 9.4 0 0 0-2.4-6L34.5 35m-9.9-6c-5.2-4-7.8-8.3-7.8-13C16.7 8.3 23.6 2 32 2s15.3 6.3 15.3 14h-6c0-4.4-4.2-8-9.3-8s-9.3 3.6-9.3 8 5.8 8.9 10.7 11.5l2.9 1.5M5 29h54v6H5z" fill="none" stroke="#2e4369" stroke-linecap="round" stroke-miterlimit="10" stroke-width="2" stroke-linejoin="round"/></svg>