<svg xmlns="http://www.w3.org/2000/svg" viewBox="0 0 64 64" aria-labelledby="title" aria-describedby="desc"><path data-name="layer1" d="M62 0H2a2 2 0 0 0-2 2v60a2 2 0 0 0 2 2h60a2 2 0 0 0 2-2V2a2 2 0 0 0-2-2zM32.001 59c-8.309 0-15.068-6.25-15.068-13.931a2 2 0 0 1 4 0C20.933 50.545 25.898 55 32 55s11.068-4.455 11.068-9.931a9.659 9.659 0 0 0-2.589-6.27 2 2 0 0 1 3.047-2.591 13.53 13.53 0 0 1 3.542 8.86C47.069 52.75 40.309 59 32 59zM55 33.998H35.336l-.003.001-.005-.001H9a2 2 0 0 1 0-4h18.544c-5.918-3.907-8.907-8.185-8.907-12.77C18.637 10.484 24.632 5 32 5c7.369 0 13.364 5.485 13.364 12.228a2 2 0 0 1-4 0C41.365 12.69 37.165 9 32 9c-5.164 0-9.364 3.69-9.364 8.228 0 3.845 3.469 7.663 10.312 11.345l2.856 1.425H55a2 2 0 1 1 0 4z" fill="#202020"/></svg>