<svg xmlns="http://www.w3.org/2000/svg" viewBox="0 0 64 64" aria-labelledby="title" aria-describedby="desc"><path data-name="layer2" d="M34 7a10 10 0 0 1 10 10 10 10 0 0 1-10 10H8a6 6 0 0 0-6 6 6 6 0 0 0 6 6h24a8 8 0 0 1 8 8 8 8 0 0 1-8 8" fill="none" stroke="#202020" stroke-miterlimit="10" stroke-width="2" stroke-linejoin="round" stroke-linecap="round"/><path data-name="layer2" d="M26 11a4 4 0 0 1 4 4 4 4 0 0 1-4 4H14" fill="none" stroke="#202020" stroke-miterlimit="10" stroke-width="2" stroke-linejoin="round" stroke-linecap="round"/><path data-name="layer1" d="M50 15a8 8 0 0 1 8 8 8 8 0 0 1-8 8h-6m12 20a6 6 0 0 0 6-6 6 6 0 0 0-6-6H44" fill="none" stroke="#202020" stroke-miterlimit="10" stroke-width="2" stroke-linejoin="round" stroke-linecap="round"/></svg>