<svg xmlns="http://www.w3.org/2000/svg" viewBox="0 0 64 64" aria-labelledby="title" aria-describedby="desc"><path data-name="layer1" d="M56 39H43a4 4 0 0 1 0-8h7a8 8 0 1 0-6-13.2V17a10 10 0 1 0-19.8 2H16a14 14 0 0 0 0 28c4 0 6.8-.1 8.4 2.5a8 8 0 0 0 15.6-2h6c2 0 3.6-.4 5.7 1.7A6 6 0 1 0 56 39z" fill="#cdf0f0"/><path data-name="opacity" d="M56 39a6 6 0 0 0-4.5 2h.5a8 8 0 0 1 8 8v.5A6 6 0 0 0 56 39zm-24 0a8 8 0 0 0-6.3 3.1H27a9.9 9.9 0 0 1 9.9 11.3A8 8 0 0 0 32 39zm14-22a9.9 9.9 0 0 1 9.9 11.4 8 8 0 0 0-11.3-11.3z" fill="#fff" opacity=".5"/><path data-name="opacity" d="M34 7a10 10 0 0 0-7.3 3.2L29 10a12 12 0 0 1 11.8 14.3A10 10 0 0 0 34 7z" fill="#fff" opacity=".5"/><path data-name="stroke" d="M34 7a10 10 0 0 1 10 10 10 10 0 0 1-10 10H8a6 6 0 0 0-6 6 6 6 0 0 0 6 6h24a8 8 0 0 1 8 8 8 8 0 0 1-8 8" fill="none" stroke="#2e4369" stroke-linecap="round" stroke-linejoin="round" stroke-width="2"/><path data-name="stroke" d="M26 11a4 4 0 0 1 4 4 4 4 0 0 1-4 4H14m36-4a8 8 0 0 1 8 8 8 8 0 0 1-8 8h-6m12 20a6 6 0 0 0 6-6 6 6 0 0 0-6-6H44" fill="none" stroke="#2e4369" stroke-linecap="round" stroke-linejoin="round" stroke-width="2"/></svg>