<svg xmlns="http://www.w3.org/2000/svg" viewBox="0 0 64 64" aria-labelledby="title" aria-describedby="desc"><path data-name="layer2" d="M30.999 36.004H8.998a2.999 2.999 0 1 1 0-5.997h24.995a13 13 0 1 0 0-26 3 3 0 1 0 0 6 7 7 0 1 1 0 14H8.998a8.999 8.999 0 1 0 0 17.997h22.001a4.998 4.998 0 1 1 0 9.996 3 3 0 0 0 0 6 10.998 10.998 0 1 0 0-21.996z" fill="#202020"/><path data-name="layer1" d="M13.996 22.008H24.99a7 7 0 0 0 0-14 3 3 0 0 0 0 6 1 1 0 1 1 0 2H13.996a3 3 0 0 0 0 6zm37.996-4.002a4.999 4.999 0 1 1 0 9.998H45.99a3 3 0 0 0 0 6h6.003a10.999 10.999 0 1 0 0-21.998 3 3 0 0 0 0 6zM55 36.01H43.999a3 3 0 0 0 0 6H55a2.999 2.999 0 1 1 0 5.996 3 3 0 0 0 0 6 8.999 8.999 0 1 0 0-17.997z" fill="#202020"/></svg>