<svg xmlns="http://www.w3.org/2000/svg" viewBox="0 0 64 64" aria-labelledby="title" aria-describedby="desc"><path data-name="layer2" d="M35.188 25.487l4.125 1.969 6.187-1.969v-3.562a13.453 13.453 0 0 0-26.906 0v18.75a3.161 3.161 0 0 1-3.187 3.188 3.083 3.083 0 0 1-3.094-3.188V32.8H2v7.875a13.406 13.406 0 0 0 26.813 0v-18.75a3.188 3.188 0 0 1 6.375 0z" fill="none" stroke="#202020" stroke-linecap="round" stroke-miterlimit="10" stroke-width="2" stroke-linejoin="round"/><path data-name="layer1" d="M51.687 32.8v7.875a3.187 3.187 0 1 1-6.375 0v-8.062l-6.187 1.969L35 32.613v8.062a13.5 13.5 0 0 0 27 0V32.8z" fill="none" stroke="#202020" stroke-linecap="round" stroke-miterlimit="10" stroke-width="2" stroke-linejoin="round"/></svg>