<svg xmlns="http://www.w3.org/2000/svg" viewBox="0 0 64 64" aria-labelledby="title" aria-describedby="desc"><path data-name="layer3" fill="#e8ddd9" d="M12 16h40v40H12z"/><path data-name="layer2" fill="#d1deff" d="M28 38h-8V26l4-4 4 4v12z"/><path data-name="layer1" d="M5 16a3 3 0 0 0-3 3v34a3 3 0 0 0 3 3h7V16zm54 0h-7v40h7a3 3 0 0 0 3-3V19a3 3 0 0 0-3-3z" fill="#bb806c"/><path data-name="opacity" d="M60 52H13a3 3 0 0 1-3-3V16H5a3 3 0 0 0-3 3v34a3 3 0 0 0 3 3h54a3 3 0 0 0 3-3v-1z" fill="#000064" opacity=".15"/><path data-name="opacity" fill="#000064" opacity=".15" d="M20 38V26l1-1-4 4v12h8v-3h-5z"/><path data-name="stroke" fill="none" stroke="#2e4369" stroke-linecap="round" stroke-linejoin="round" stroke-width="2" d="M28 38h-8V26l4-4 4 4v12zm-4-16v-6M12 56v4m40-4v4"/><rect data-name="stroke" x="2" y="16" width="60" height="40" rx="3" ry="3" fill="none" stroke="#2e4369" stroke-linecap="round" stroke-linejoin="round" stroke-width="2"/><path data-name="stroke" d="M24 16v-5a3 3 0 0 1 3-3h10a3 3 0 0 1 3 3v5m-28 0v40m40-40v40" fill="none" stroke="#2e4369" stroke-linecap="round" stroke-linejoin="round" stroke-width="2"/></svg>