<svg xmlns="http://www.w3.org/2000/svg" viewBox="0 0 64 64" aria-labelledby="title" aria-describedby="desc"><path data-name="layer2" d="M5 14a3 3 0 0 0-3 3v34a3 3 0 0 0 3 3h5V14zm54 0h-5v40h5a3 3 0 0 0 3-3V17a3 3 0 0 0-3-3z" fill="#202020"/><path data-name="layer1" d="M10 58a2 2 0 0 0 4 0v-4h-4zm40 0a2 2 0 0 0 4 0v-4h-4z" fill="#202020"/><path data-name="layer2" d="M42 14V9a5 5 0 0 0-5-5H27a5 5 0 0 0-5 5v5h-8v40h36V14zM30 38H18V23.2l4-4h4l4 4zm8-24H26V9a1 1 0 0 1 1-1h10a1 1 0 0 1 1 1z" fill="#202020"/><path data-name="layer1" fill="#202020" d="M22 24.8V34h4v-9.2l-2-2-2 2z"/></svg>