<svg xmlns="http://www.w3.org/2000/svg" viewBox="0 0 64 64" aria-labelledby="title" aria-describedby="desc"><path data-name="layer1" d="M62 26c-6.4-4.2-16-4-20 0-4-4-16-4-20 0-4-4-13-4.7-20 0L32 6z" fill="#f27e7c"/><path data-name="opacity" d="M32 6L2 26c7-4.7 16-4 20 0 2-2 6-3 10-3V6z" fill="#000064" opacity=".15"/><path data-name="stroke" fill="none" stroke="#2e4369" stroke-linecap="round" stroke-linejoin="round" stroke-width="2" d="M60 54H17.2L2 36m56 26l-6-8m-40 8l5.2-8"/><path data-name="stroke" d="M34 54s-4-8-8-8H10.5M32 42V23.8M62 26c-6.4-4.2-16-4-20 0-4-4-16-4-20 0-4-4-13-4.7-20 0L32 6zM32 6V2" fill="none" stroke="#2e4369" stroke-linecap="round" stroke-linejoin="round" stroke-width="2"/></svg>