<svg xmlns="http://www.w3.org/2000/svg" viewBox="0 0 64 64" aria-labelledby="title" aria-describedby="desc"><path data-name="layer2" d="M24.1 45.9a14 14 0 0 1 19.8-19.8z" fill="#fc0"/><path data-name="opacity" d="M43.9 26.1a14 14 0 0 0-21.2 1.6 14 14 0 0 1 18.2 1.4z" fill="#fff" opacity=".5"/><path data-name="layer1" d="M43.8 26A14 14 0 0 1 24 45.8z" fill="#ebf5ff"/><path data-name="opacity" d="M46.4 29.6a13.9 13.9 0 0 0-2.5-3.5L24.1 45.9a13.9 13.9 0 0 0 3.5 2.5z" fill="#000064" opacity=".15"/><path data-name="stroke" d="M47.5 32.4a14 14 0 0 1-16.8 17.2m-6.6-3.7a14 14 0 0 1 19.8-19.8M34 6v8M12 36H4m8-22l7 7m36-6L13 57" fill="none" stroke="#2e4369" stroke-linecap="round" stroke-linejoin="round" stroke-width="2"/></svg>