<svg xmlns="http://www.w3.org/2000/svg" viewBox="0 0 64 64" aria-labelledby="title" aria-describedby="desc"><path data-name="layer1" d="M32 22a2 2 0 0 0 2-2v-8a2 2 0 1 0-4 0v8a2 2 0 0 0 2 2zm18 18a2 2 0 0 0 2 2h8a2 2 0 0 0 0-4h-8a2 2 0 0 0-2 2zM4 42h8a2 2 0 0 0 0-4H4a2 2 0 0 0 0 4z" fill="#202020"/><path data-name="layer2" d="M62 50H34v-9.2l2.6 2.6a2 2 0 1 0 2.8-2.8L32 33.2l-1.4 1.4-6 6a2 2 0 1 0 2.8 2.8l2.6-2.6V50H2a2 2 0 0 0 0 4h60a2 2 0 0 0 0-4z" fill="#202020"/><path data-name="layer1" d="M17 27.8a2 2 0 1 0 2.9-2.8l-5.7-5.7a2 2 0 0 0-2.8 2.8zm28.6.6a2 2 0 0 0 1.4-.6l5.7-5.7a2 2 0 0 0-2.8-2.8L44.1 25a2 2 0 0 0 1.4 3.4zM19.4 46h2.2a6 6 0 0 1 .2-8.2l6-6 .4-.4.9-.9 2.9-3 2.8 2.8 7.4 7.4a6 6 0 0 1 .2 8.2h2.2A13.9 13.9 0 0 0 46 40a14 14 0 1 0-28 0 13.9 13.9 0 0 0 1.4 6z" fill="#202020"/></svg>