<svg xmlns="http://www.w3.org/2000/svg" viewBox="0 0 64 64" aria-labelledby="title" aria-describedby="desc"><path data-name="layer1" d="M32 16.6a2 2 0 0 0 2-2v-8a2 2 0 1 0-4 0v8a2 2 0 0 0 2 2zm16 16a2 2 0 0 0 2 2h8a2 2 0 0 0 0-4h-8a2 2 0 0 0-2 2zm-42 2h8a2 2 0 0 0 0-4H6a2 2 0 0 0 0 4z" fill="#202020"/><path data-name="layer2" d="M62 38.6H2a2 2 0 0 0 0 4h28v9.2l-2.6-2.6a2 2 0 0 0-2.8 2.8l7.4 7.4 1.4-1.4 6-6a2 2 0 1 0-2.8-2.8L34 51.8v-9.2h28a2 2 0 0 0 0-4z" fill="#202020"/><path data-name="layer1" d="M19 22.4a2 2 0 0 0 2.8-2.8l-5.7-5.7a2 2 0 1 0-2.8 2.8zm24.6.6a2 2 0 0 0 1.4-.6l5.7-5.7a2 2 0 0 0-2.8-2.8l-5.7 5.7a2 2 0 0 0 1.4 3.4zM20.2 34.6h23.6a12 12 0 1 0-23.6 0z" fill="#202020"/></svg>