<svg xmlns="http://www.w3.org/2000/svg" viewBox="0 0 64 64" aria-labelledby="title" aria-describedby="desc"><path data-name="layer1" d="M31.998 11.997a2 2 0 0 0 2-2V4a2 2 0 1 0-4 0v5.997a2 2 0 0 0 2 2zM6 32h8a2 2 0 0 0 0-4H6a2 2 0 0 0 0 4zm12.587-14.583a2 2 0 0 0 2.83-2.828l-5.998-6a2 2 0 1 0-2.829 2.829zm25.419.573a1.993 1.993 0 0 0 1.414-.587l5.91-5.909a2 2 0 1 0-2.83-2.828l-5.91 5.909a2 2 0 0 0 1.415 3.414z" fill="#202020"/><path data-name="layer2" d="M56.002 35.998a1.999 1.999 0 1 1 0 3.998h-5.991a2 2 0 0 0 0 4h5.991a5.999 5.999 0 1 0 0-11.998 2 2 0 0 0 0 4zm2.001 11.999H46.009a2 2 0 0 0 0 4h11.994a1.999 1.999 0 1 1 0 3.998 2 2 0 0 0 0 4 5.999 5.999 0 1 0 0-11.998zm-23.995 0H2a2 2 0 0 0 0 4h32.008a3.999 3.999 0 1 1 0 7.997 2 2 0 0 0 0 4 7.999 7.999 0 1 0 0-15.997zm4.002-20.002a2 2 0 0 0 0 4 3.999 3.999 0 1 1 0 7.997H2a2 2 0 0 0 0 4h36.01a7.999 7.999 0 1 0 0-15.997z" fill="#202020"/><path data-name="layer1" d="M22.602 38H38.01a1.999 1.999 0 1 0 0-3.997 4 4 0 1 1 0-8 9.965 9.965 0 0 1 7.002 2.872L43.7 23.399A12.998 12.998 0 1 0 22.602 38z" fill="#202020"/></svg>