<svg xmlns="http://www.w3.org/2000/svg" viewBox="0 0 64 64" aria-labelledby="title" aria-describedby="desc"><path data-name="layer1" d="M62 30H47.9a15.9 15.9 0 0 0-3.2-7.8l10-10a2 2 0 0 0-2.8-2.8l-10 10a15.9 15.9 0 0 0-7.9-3.3V2a2 2 0 0 0-4 0v14.2a15.9 15.9 0 0 0-7.8 3.2l-10-10a2 2 0 1 0-2.8 2.8l10 10a15.9 15.9 0 0 0-3.2 7.8H2a2 2 0 1 0 0 4h14.2a15.9 15.9 0 0 0 3.2 7.8l-10 10a2 2 0 1 0 2.8 2.8l10-10a15.9 15.9 0 0 0 7.8 3.3V62a2 2 0 0 0 4 0V47.9a15.9 15.9 0 0 0 7.8-3.2l10 10a2 2 0 1 0 2.8-2.8l-10-10a15.9 15.9 0 0 0 3.3-7.9H62a2 2 0 1 0 0-4z" fill="#202020"/></svg>