<svg xmlns="http://www.w3.org/2000/svg" viewBox="0 0 64 64" aria-labelledby="title" aria-describedby="desc"><path data-name="layer2" d="M32 42a13 13 0 1 1 11.7-18.6M32 2v6M12 30H4m8-22l6 6m33.9-5.9L46 14" fill="none" stroke="#202020" stroke-miterlimit="10" stroke-width="2" stroke-linejoin="round" stroke-linecap="round"/><path data-name="layer1" d="M56 34a4 4 0 0 1 4 4 4 4 0 0 1-4 4h-6m8 16a4 4 0 0 0 4-4 4 4 0 0 0-4-4H46M2 50h32a6 6 0 0 1 6 6 6 6 0 0 1-6 6M2 42h36a6 6 0 0 0 6-6 6 6 0 0 0-6-6" fill="none" stroke="#202020" stroke-miterlimit="10" stroke-width="2" stroke-linejoin="round" stroke-linecap="round"/></svg>