<svg xmlns="http://www.w3.org/2000/svg" viewBox="0 0 64 64" aria-labelledby="title" aria-describedby="desc"><path data-name="layer1" d="M25.4 48h13.2a12 12 0 1 0-13.3 0z" fill="#fc0"/><path data-name="opacity" d="M32.1 26a12 12 0 0 0-9.9 5.1 12 12 0 0 1 16.6 16.8A12 12 0 0 0 32.1 26z" fill="#fff" opacity=".5"/><path data-name="stroke" d="M20.7 42.1a12 12 0 1 1 22.6 0M32 10v8m28 20h-8m-40 0H4m58 10H2m10.8-29.2l5.6 5.6m32.8-5.6l-5.6 5.6" fill="none" stroke="#2e4369" stroke-linecap="round" stroke-linejoin="round" stroke-width="2"/></svg>