<svg xmlns="http://www.w3.org/2000/svg" viewBox="0 0 64 64" aria-labelledby="title" aria-describedby="desc"><path data-name="layer2" d="M40 58a4 4 0 0 0-4-4h-4a4 4 0 0 0-4 4 4 4 0 0 0 4 4h4a4 4 0 0 0 4-4z" fill="#536897"/><path data-name="opacity" d="M37 59h-4a4 4 0 0 1-4-3.7 4 4 0 0 0 3 6.7h4a4 4 0 0 0 4-4v-.3a4 4 0 0 1-3 1.3z" fill="#000064" opacity=".14"/><path data-name="layer1" d="M16 44H7.6A3.6 3.6 0 0 1 4 40.4V29.6A3.6 3.6 0 0 1 7.6 26H16zm32 0h8.4a3.6 3.6 0 0 0 3.6-3.6V29.6a3.6 3.6 0 0 0-3.6-3.6H48z" fill="#ed5858"/><path data-name="opacity" d="M4 34.4v6A3.6 3.6 0 0 0 7.6 44H16v-6H7.6A3.6 3.6 0 0 1 4 34.4zM56.4 38H48v6h8.4a3.6 3.6 0 0 0 3.6-3.6v-6a3.6 3.6 0 0 1-3.6 3.6z" fill="#000064" opacity=".14"/><path data-name="stroke" d="M12 26v-4c0-11 8-20 19-20h2c11 0 19 9 19 20v4M40 58a4 4 0 0 0-4-4h-4a4 4 0 0 0-4 4 4 4 0 0 0 4 4h4a4 4 0 0 0 4-4zm0 0s12 0 12-14m-36 0H7.6A3.6 3.6 0 0 1 4 40.4V29.6A3.6 3.6 0 0 1 7.6 26H16zm32 0h8.4a3.6 3.6 0 0 0 3.6-3.6V29.6a3.6 3.6 0 0 0-3.6-3.6H48z" fill="none" stroke="#2e4369" stroke-linecap="round" stroke-miterlimit="10" stroke-width="2" stroke-linejoin="round"/></svg>