<svg xmlns="http://www.w3.org/2000/svg" viewBox="0 0 64 64" aria-labelledby="title" aria-describedby="desc"><path data-name="layer2" d="M12 26v-4c0-11 8-20 19-20h2c11 0 19 9 19 20v4M40 58a4 4 0 0 0-4-4h-4a4 4 0 0 0-4 4 4 4 0 0 0 4 4h4a4 4 0 0 0 4-4zm0 0s12 0 12-14" fill="none" stroke="#202020" stroke-miterlimit="10" stroke-width="2" stroke-linejoin="round" stroke-linecap="round"/><path data-name="layer1" d="M16 44H7.6A3.6 3.6 0 0 1 4 40.4V29.6A3.6 3.6 0 0 1 7.6 26H16zm32 0h8.4a3.6 3.6 0 0 0 3.6-3.6V29.6a3.6 3.6 0 0 0-3.6-3.6H48z" fill="none" stroke="#202020" stroke-miterlimit="10" stroke-width="2" stroke-linejoin="round" stroke-linecap="round"/></svg>