<svg xmlns="http://www.w3.org/2000/svg" viewBox="0 0 64 64" aria-labelledby="title" aria-describedby="desc"><circle data-name="layer2" cx="14" cy="7.994" r="6" fill="none" stroke="#202020" stroke-linecap="round" stroke-miterlimit="10" stroke-width="2" stroke-linejoin="round"/><circle data-name="layer2" cx="34" cy="7.994" r="6" fill="none" stroke="#202020" stroke-linecap="round" stroke-miterlimit="10" stroke-width="2" stroke-linejoin="round"/><circle data-name="layer2" cx="24" cy="33.994" r="3" fill="none" stroke="#202020" stroke-linecap="round" stroke-miterlimit="10" stroke-width="2" stroke-linejoin="round"/><path data-name="layer2" fill="none" stroke="#202020" stroke-linecap="round" stroke-miterlimit="10" stroke-width="2" d="M19.916 8.994h8.168M21.44 32.44l-6.659-18.497M26 36.223v23.771a2 2 0 0 1-2 2 2 2 0 0 1-2-2V36.227m11.219-22.284l-6.658 18.493" stroke-linejoin="round"/><path data-name="layer1" d="M45 20.994h6a2 2 0 0 1 2 2v35a4 4 0 0 1-4 4 4 4 0 0 1-4-4v-37zm6 0a2 2 0 0 0 2-2v-5c0-6-3.6-12-8-12v19" fill="none" stroke="#202020" stroke-linecap="round" stroke-miterlimit="10" stroke-width="2" stroke-linejoin="round"/></svg>