<svg xmlns="http://www.w3.org/2000/svg" viewBox="0 0 64 64" aria-labelledby="title" aria-describedby="desc"><path data-name="layer2" d="M26.2 4a8 8 0 0 0-8.2 8v10c-3 0-3.3 3.8-3.3 4.7s.7 5.3 3.8 5.3a17.2 17.2 0 0 0 7.2 10.3 12.8 12.8 0 0 0 6.3 2.1 9.3 9.3 0 0 0 5.6-1.9A18.2 18.2 0 0 0 44.8 32c3 0 4.2-4.1 4.2-5s0-4.9-3-5V12c0-5.5-4.7-8-8.7-8" fill="none" stroke="#202020" stroke-miterlimit="10" stroke-width="2" stroke-linejoin="round" stroke-linecap="round"/><path data-name="layer2" d="M23.6 40.8c0 2 1 4.2-10 6.2S2 58 2 58v4h60v-4s0-8.7-12.4-11c-10.7-2-10-4.1-10-6.1M32 44v18" fill="none" stroke="#202020" stroke-miterlimit="10" stroke-width="2" stroke-linejoin="round" stroke-linecap="round"/><path data-name="layer1" fill="none" stroke="#202020" stroke-miterlimit="10" stroke-width="2" d="M22 50v8m4-4h-8" stroke-linejoin="round" stroke-linecap="round"/><path data-name="layer2" d="M18.4 32A25.1 25.1 0 0 1 32 28a21 21 0 0 1 12.8 4M25.4 14.5L18 18.7m20.6-4.2L46 18" fill="none" stroke="#202020" stroke-miterlimit="10" stroke-width="2" stroke-linejoin="round" stroke-linecap="round"/><circle data-name="layer1" cx="39" cy="51" r="1" fill="none" stroke="#202020" stroke-miterlimit="10" stroke-width="2" stroke-linejoin="round" stroke-linecap="round"/><circle data-name="layer1" cx="32" cy="10" r="8" fill="none" stroke="#202020" stroke-miterlimit="10" stroke-width="2" stroke-linejoin="round" stroke-linecap="round"/><circle data-name="layer1" cx="32" cy="10" r="2" fill="none" stroke="#202020" stroke-miterlimit="10" stroke-width="2" stroke-linejoin="round" stroke-linecap="round"/></svg>