<svg xmlns="http://www.w3.org/2000/svg" viewBox="0 0 64 64" aria-labelledby="title" aria-describedby="desc"><path data-name="layer3" d="M54 8H43.1a5.2 5.2 0 0 1 .9 3v3h4v40H16V14h4v-3a5.2 5.2 0 0 1 .9-3H10a2 2 0 0 0-2 2v50a2 2 0 0 0 2 2h44a2 2 0 0 0 2-2V10a2 2 0 0 0-2-2z" fill="#dda991"/><path data-name="layer2" d="M39 6h-2.1a5 5 0 0 0-9.8 0H25a4.7 4.7 0 0 0-5 5v3h24v-3a4.8 4.8 0 0 0-5-5z" fill="#c3d1ff"/><path data-name="layer1" fill="#ebf5ff" d="M16 14h32v40H16z"/><path data-name="opacity" fill="#000064" opacity=".15" d="M13 57h32v-3H16V17h-3v40zm3-43v3h24v-3H20v-3a5.6 5.6 0 0 1 .3-1.9A4.7 4.7 0 0 0 16 14z"/><path data-name="stroke" fill="none" stroke="#2e4369" stroke-linecap="round" stroke-miterlimit="10" stroke-width="2" d="M20 14h-4v40h32V14h-4M24 24h16M24 34h16M24 44h16" stroke-linejoin="round"/><path data-name="stroke" d="M43.1 8H54a2 2 0 0 1 2 2v50a2 2 0 0 1-2 2H10a2 2 0 0 1-2-2V10a2 2 0 0 1 2-2h10.9" fill="none" stroke="#2e4369" stroke-linecap="round" stroke-miterlimit="10" stroke-width="2" stroke-linejoin="round"/><path data-name="stroke" d="M39 6h-2.1a5 5 0 0 0-9.8 0H25a4.7 4.7 0 0 0-5 5v3h24v-3a4.8 4.8 0 0 0-5-5z" fill="none" stroke="#2e4369" stroke-linecap="round" stroke-miterlimit="10" stroke-width="2" stroke-linejoin="round"/></svg>