<svg xmlns="http://www.w3.org/2000/svg" viewBox="0 0 64 64" aria-labelledby="title" aria-describedby="desc"><path data-name="layer2" d="M17.2 49a2 2 0 0 0 1.8 1l1-.2 40-22a2 2 0 1 0-2-3.5l-40 22a2 2 0 0 0-.8 2.7zm45.7-7.6a2 2 0 0 0-2.5-1.3l-46 14A2 2 0 0 0 15 58h.6l46-14a2 2 0 0 0 1.3-2.6zM13 28c6.6 0 12-2.7 12-6s-5.4-6-12-6-12 2.7-12 6 5.4 6 12 6zm0-7.9c1.7 0 3.6.5 3.6 1.9s-1.8 1.9-3.6 1.9-3.6-.5-3.6-1.9 1.9-1.9 3.6-1.9z" fill="#202020"/><path data-name="layer1" d="M25 34v-5.2c-2.9 2-7.1 3.2-12 3.2s-9.1-1.2-12-3.2V34c0 3.3 5.4 6 12 6s12-2.7 12-6z" fill="#202020"/><path data-name="layer2" d="M27.2 17.2a21.9 21.9 0 0 0 5.8.8c6.6 0 12-2.7 12-6s-5.4-6-12-6-12 2.7-12 6a3.2 3.2 0 0 0 .3 1.4 13.2 13.2 0 0 1 5.9 3.8zm5.8-7.1c1.7 0 3.6.5 3.6 1.9s-1.8 1.9-3.6 1.9-3.6-.5-3.6-1.9 1.9-1.9 3.6-1.9z" fill="#202020"/><path data-name="layer1" d="M45 24v-5.2c-2.9 2-7.1 3.2-12 3.2a27.7 27.7 0 0 1-4-.3v7.9a23 23 0 0 0 4 .3c6.6.1 12-2.6 12-5.9z" fill="#202020"/></svg>