<svg viewBox="0 0 64 64" xmlns="http://www.w3.org/2000/svg" aria-labelledby="title" aria-describedby="desc"><path fill="#202020" d="M46 58a2 2 0 0 0 2 2h8a2 2 0 0 0 2-2v-3H46zM6 58a2 2 0 0 0 2 2h8a2 2 0 0 0 2-2v-3H6z" data-name="layer2"/><path fill="#202020" d="M60 42v-6H50a2 2 0 0 1-2-2v-4a2 2 0 0 1 2-2h10v-.621c0-2.008-1.639-3.979-3.16-5.379H7.154c-1.522 1.4-3.16 3.371-3.16 5.379V28H14a2 2 0 0 1 2 2v4a2 2 0 0 1-2 2H4v6a2 2 0 0 0-2 2v6a2 2 0 0 0 2 2h56a2 2 0 0 0 2-2v-6a2 2 0 0 0-2-2zm-34-8a2 2 0 1 1-4 0v-4a2 2 0 1 1 4 0zm8 0a2 2 0 1 1-4 0v-4a2 2 0 1 1 4 0zm8 0a2 2 0 1 1-4 0v-4a2 2 0 1 1 4 0z" data-name="layer1"/><path fill="#202020" d="M60 16h-7.277L48 4H16l-4.725 12H4a2 2 0 0 0 0 4h5.664l.851-2h42.96l.765 2H60a2 2 0 0 0 0-4z"/></svg>