<svg xmlns="http://www.w3.org/2000/svg" viewBox="0 0 64 64" aria-labelledby="title" aria-describedby="desc"><path data-name="layer5" fill="#c3d6e0" d="M48 4H16L9.7 20h44.6L48 4z"/><path data-name="layer4" d="M54.3 20H9.7S4 23.6 4 27.4V42h56V27.4c0-3.8-5.7-7.4-5.7-7.4z" fill="#49bcff"/><rect data-name="layer3" x="2" y="42" width="60" height="10" rx="2" ry="2" fill="#8fa9d8"/><path data-name="layer2" d="M18 52v6a2 2 0 0 1-2 2H8a2 2 0 0 1-2-2v-6zm40 0v6a2 2 0 0 1-2 2h-8a2 2 0 0 1-2-2v-6z" fill="#7b8baf"/><path data-name="layer1" d="M4 36h10a2 2 0 0 0 2-2v-4a2 2 0 0 0-2-2H4zm56 0H50a2 2 0 0 1-2-2v-4a2 2 0 0 1 2-2h10z" fill="#a0d6ef"/><path data-name="opacity" fill="#fff" opacity=".5" d="M36.2 20h8.7l6.7-6.8-2.4-6.1-13 12.9zM34.6 4l-16 16h10.1l16-16H34.6z"/><path data-name="opacity" d="M4 27.4V42h6V26c0-1.4 2-6 2-6H9.7S4 23.6 4 27.4zm3.8 16.7C7.8 42.7 10 42 10 42H4a2 2 0 0 0-2 2v6a2 2 0 0 0 2 2h56a2 2 0 0 0 2-2v-.9H7.8z" fill="#000064" opacity=".15"/><path data-name="opacity" d="M54 28h6v-.6c0-3.7-5.7-7.4-5.7-7.4H12s-1 2.3-1.6 4.1h38.1c1.8 0 2.8 1.2 5.5 3.9z" fill="#fff" opacity=".2"/><path data-name="opacity" fill="#000064" opacity=".2" d="M6 52h12v4H6zm40 0h12v4H46z"/><path data-name="stroke" d="M18 52v6a2 2 0 0 1-2 2H8a2 2 0 0 1-2-2v-6m52 0v6a2 2 0 0 1-2 2h-8a2 2 0 0 1-2-2v-6M24 30v4m8-4v4m8-4v4M4 42V27.4C4 23.6 9.7 20 9.7 20L16 4h32l6.3 16s5.7 3.6 5.7 7.4V42" fill="none" stroke="#2e4369" stroke-linecap="round" stroke-linejoin="round" stroke-width="2"/><rect data-name="stroke" x="2" y="42" width="60" height="10" rx="2" ry="2" fill="none" stroke="#2e4369" stroke-linecap="round" stroke-linejoin="round" stroke-width="2"/><path data-name="stroke" d="M4 28h10a2 2 0 0 1 2 2v4a2 2 0 0 1-2 2H4m56-8H50a2 2 0 0 0-2 2v4a2 2 0 0 0 2 2h10M9.7 20h44.6m-43.8-2H4m49.5 0H60" fill="none" stroke="#2e4369" stroke-linecap="round" stroke-linejoin="round" stroke-width="2"/></svg>