<svg xmlns="http://www.w3.org/2000/svg" viewBox="0 0 64 64" aria-labelledby="title" aria-describedby="desc"><path data-name="layer1" d="M51 51.1V13a8 8 0 0 0-16 0h6a2 2 0 0 1 4 0v8H23v-8a8 8 0 1 0-16 0h6a2 2 0 0 1 4 0v38h1c2.6 0 3.5.9 5 1.5V43h22v9.5c1.5-.6 2.4-1.5 5-1.5h1zM45 37H23V27h22z" fill="#afc2d5"/><path data-name="opacity" fill="#000064" opacity=".15" d="M48 37V25H23v2h22v10h3zm-3-24v8h3v-8a4.3 4.3 0 0 0-4-4h-1c-2 0-5 1-5 4h3a2 2 0 0 1 4 0zm6 36.2a18 18 0 0 0-3 1.2V41H23v2h22v9.5c1.5-.6 2.4-1.5 5-1.5h1zM17 28v23h1c2.6 0 3.5.9 5 1.5v-3.3l-2-.2h-1V13a4.3 4.3 0 0 0-4-4h-1c-2 0-5 1-5 4h3a2 2 0 0 1 4 0v15z"/><path data-name="stroke" d="M18 51c-4 0-4 2-8 2s-4-2-8-2m32 0c-4 0-4 2-8 2s-4-2-8-2m32 0c-4 0-4 2-8 2s-4-2-8-2m28 1a7.8 7.8 0 0 1-4 1c-4 0-4-2-8-2m-32 8c-4 0-4 2-8 2s-4-2-8-2m32 0c-4 0-4 2-8 2s-4-2-8-2m32 0c-4 0-4 2-8 2s-4-2-8-2m28 1a7.7 7.7 0 0 1-4 1c-4 0-4-2-8-2" fill="none" stroke="#2e4369" stroke-linecap="round" stroke-linejoin="round" stroke-width="2"/><path data-name="stroke" d="M50 51h1V13a8 8 0 0 0-16 0h6a2 2 0 0 1 4 0v8H23v-8a8 8 0 1 0-16 0h6a2 2 0 0 1 4 0v38h1m5 1.5V43h22v9.5M23 37V27h22v10z" fill="none" stroke="#2e4369" stroke-linecap="round" stroke-linejoin="round" stroke-width="2"/></svg>