<svg xmlns="http://www.w3.org/2000/svg" viewBox="0 0 64 64" aria-labelledby="title" aria-describedby="desc"><path data-name="layer2" d="M23.001 47.15V42h22v5.146a10.517 10.517 0 0 1 4.997-1.147c.355 0 .687.014 1.003.038V8a8 8 0 0 0-16 0 3 3 0 0 0 6 0 2 2 0 0 1 4 0v12h-22V8a8 8 0 1 0-16 0 3 3 0 1 0 6 0 2 2 0 0 1 4 0v38.037c.314-.024.644-.038.997-.038A10.52 10.52 0 0 1 23 47.149zm0-21.15h22v10h-22z" fill="#202020"/><path data-name="layer1" d="M2.998 51.999a2.473 2.473 0 0 1 1.835.496A8.268 8.268 0 0 0 9.998 54a10.726 10.726 0 0 0 5.342-1.317 4.865 4.865 0 0 1 2.658-.684 6.203 6.203 0 0 1 .968.068 3.94 3.94 0 0 1 .65.156 7.9 7.9 0 0 1 1.04.46A10.726 10.726 0 0 0 25.997 54a10.726 10.726 0 0 0 5.342-1.317 5.508 5.508 0 0 1 5.315 0 11.49 11.49 0 0 0 10.685 0 5.508 5.508 0 0 1 5.315 0A10.726 10.726 0 0 0 57.998 54a6.306 6.306 0 0 0 4.046-1.13 2.292 2.292 0 0 1 .297-.186 3 3 0 1 0-2.679-5.37 8.1 8.1 0 0 0-1 .6l-.082.057a4.234 4.234 0 0 1-.582.029 4.865 4.865 0 0 1-2.658-.684 10.663 10.663 0 0 0-4.338-1.279A13.2 13.2 0 0 0 49.998 46a10.517 10.517 0 0 0-4.996 1.147l-.347.17a5.508 5.508 0 0 1-5.315 0A10.726 10.726 0 0 0 33.998 46a10.726 10.726 0 0 0-5.343 1.317 4.865 4.865 0 0 1-2.657.684 4.865 4.865 0 0 1-2.658-.684L23 47.15A10.52 10.52 0 0 0 17.998 46c-.353 0-.683.014-.997.038a10.663 10.663 0 0 0-4.346 1.28A4.865 4.865 0 0 1 9.998 48a2.473 2.473 0 0 1-1.836-.496 8.268 8.268 0 0 0-5.164-1.505 3 3 0 1 0 0 6zm56.662 5.314a8.185 8.185 0 0 0-.997.6l-.082.056a4.262 4.262 0 0 1-.583.029 4.865 4.865 0 0 1-2.658-.684 11.49 11.49 0 0 0-10.685 0 5.508 5.508 0 0 1-5.315 0 10.726 10.726 0 0 0-5.342-1.317 10.726 10.726 0 0 0-5.343 1.317 4.865 4.865 0 0 1-2.657.684 4.865 4.865 0 0 1-2.658-.684 10.726 10.726 0 0 0-5.342-1.317 10.726 10.726 0 0 0-5.343 1.317 4.865 4.865 0 0 1-2.657.684 2.473 2.473 0 0 1-1.836-.496 8.268 8.268 0 0 0-5.164-1.505 3 3 0 1 0 0 6 2.473 2.473 0 0 1 1.835.496 8.268 8.268 0 0 0 5.165 1.505 10.726 10.726 0 0 0 5.342-1.317 4.865 4.865 0 0 1 2.658-.684 4.865 4.865 0 0 1 2.657.684 10.726 10.726 0 0 0 5.343 1.317 10.726 10.726 0 0 0 5.342-1.317 5.508 5.508 0 0 1 5.315 0 11.49 11.49 0 0 0 10.685 0 5.508 5.508 0 0 1 5.315 0 10.726 10.726 0 0 0 5.343 1.317 6.304 6.304 0 0 0 4.05-1.132 2.245 2.245 0 0 1 .295-.185 3 3 0 0 0-2.683-5.368z" fill="#202020"/></svg>