<svg xmlns="http://www.w3.org/2000/svg" viewBox="0 0 64 64" aria-labelledby="title" aria-describedby="desc"><path data-name="layer2" fill="#202020" d="M26 4v8h8l-8-8zm22 26h8l-8-8v8zM21.4 54.6l-5-5a2 2 0 0 0-2.8 2.8l1.6 1.6H10a2 2 0 0 1-2-2v-2a2 2 0 1 0-4 0v2a6 6 0 0 0 6 6h5.2l-1.6 1.6a2 2 0 1 0 2.8 2.8l5-5 1.4-1.4-1.4-1.4z"/><path data-name="layer1" d="M54 6h-5.2l1.6-1.6a2 2 0 0 0-2.8-2.8l-5 5L41.2 8l1.4 1.4 5 5a2 2 0 0 0 2.8-2.8L48.8 10H54a2 2 0 0 1 2 2v2a2 2 0 1 0 4 0v-2a6 6 0 0 0-6-6z" fill="#202020"/><path data-name="layer2" fill="#202020" d="M36 16H22V2H6v40h30V16z"/><path data-name="layer1" fill="#202020" d="M44 20h-4v26H28v14h30V34H44V20z"/></svg>