<svg viewBox="0 0 64 64" xmlns="http://www.w3.org/2000/svg" aria-labelledby="title" aria-describedby="desc"><path fill="#bacae9" d="M51.134 26.092a2.983 2.983 0 0 0-.331.148c-.059.03-.122.052-.178.085a3.028 3.028 0 0 0-.428.3l-.026.019-8 6.9a3 3 0 1 0 3.92 4.542l2.6-2.242a17.685 17.685 0 0 1-29.55 8.138 3 3 0 0 0-4.217 4.269 23.7 23.7 0 0 0 39.635-11.045l1.576 2.12a3 3 0 0 0 4.815-3.58l-6.41-8.62c-.008-.011-.02-.019-.028-.031a3.036 3.036 0 0 0-.353-.384c-.015-.014-.027-.031-.042-.044a3.018 3.018 0 0 0-.471-.338c-.046-.027-.1-.045-.143-.069a2.924 2.924 0 0 0-.385-.171c-.064-.022-.129-.036-.194-.054a2.949 2.949 0 0 0-.375-.081c-.03 0-.058-.016-.089-.019a3.108 3.108 0 0 0-.322-.017h-.02a3.116 3.116 0 0 0-.343.022c-.029 0-.056.014-.085.019a2.881 2.881 0 0 0-.35.078c-.067.016-.14.031-.206.055z" data-name="layer1"/><path stroke-width="2" stroke-linejoin="round" stroke-linecap="round" stroke="#2e4369" fill="none" d="M51.218 26.17a2.983 2.983 0 0 0-.332.146c-.06.029-.122.052-.179.084a3.028 3.028 0 0 0-.43.3c-.008.007-.018.012-.026.018l-8.039 6.855a3 3 0 1 0 3.894 4.565l2.611-2.227a17.685 17.685 0 0 1-29.6 7.964 3 3 0 0 0-4.242 4.244A23.7 23.7 0 0 0 54.578 37.3l1.564 2.129a3 3 0 0 0 4.836-3.552l-6.359-8.657c-.008-.011-.02-.019-.028-.031a3.036 3.036 0 0 0-.351-.386c-.015-.014-.026-.031-.042-.044a3.018 3.018 0 0 0-.469-.341c-.045-.027-.1-.045-.143-.07a2.924 2.924 0 0 0-.384-.173c-.063-.023-.129-.037-.193-.055a2.949 2.949 0 0 0-.375-.084c-.03 0-.058-.016-.088-.02a3.108 3.108 0 0 0-.321-.016h-.02a3.116 3.116 0 0 0-.343.02c-.029 0-.056.014-.085.019a2.881 2.881 0 0 0-.351.076c-.069.018-.14.032-.208.055z" data-name="stroke"/><path fill="#bacae9" d="M21.683 25.253a3 3 0 0 0-4.23-.335l-2.611 2.227a17.685 17.685 0 0 1 29.6-7.964 3 3 0 0 0 4.242-4.244 23.7 23.7 0 0 0-39.7 10.816l-1.566-2.129a3 3 0 0 0-4.836 3.552l6.359 8.657c.008.011.02.02.028.031a3.036 3.036 0 0 0 .351.386c.015.014.026.031.042.044a3.018 3.018 0 0 0 .469.341c.045.027.1.045.143.07a2.924 2.924 0 0 0 .384.173c.063.023.129.037.193.055a2.949 2.949 0 0 0 .375.084c.03 0 .058.016.088.02a3.108 3.108 0 0 0 .322.019h.019a3.116 3.116 0 0 0 .343-.02c.029 0 .056-.014.085-.019a2.881 2.881 0 0 0 .351-.076c.07-.019.141-.033.209-.056a2.983 2.983 0 0 0 .332-.146c.06-.029.122-.052.179-.084a3.028 3.028 0 0 0 .43-.3l.026-.019 8.039-6.855a3 3 0 0 0 .334-4.228z" data-name="layer1"/><circle fill="#bacae9" r="6" cy="30.994" cx="32" data-name="layer1"/><path stroke-width="2" stroke-linejoin="round" stroke-linecap="round" stroke="#2e4369" fill="none" d="M21.683 25.253a3 3 0 0 0-4.23-.335l-2.611 2.227a17.685 17.685 0 0 1 29.6-7.964 3 3 0 0 0 4.242-4.244 23.7 23.7 0 0 0-39.7 10.816l-1.566-2.129a3 3 0 0 0-4.836 3.552l6.359 8.657c.008.011.02.02.028.031a3.036 3.036 0 0 0 .351.386c.015.014.026.031.042.044a3.018 3.018 0 0 0 .469.341c.045.027.1.045.143.07a2.924 2.924 0 0 0 .384.173c.063.023.129.037.193.055a2.949 2.949 0 0 0 .375.084c.03 0 .058.016.088.02a3.108 3.108 0 0 0 .322.019h.019a3.116 3.116 0 0 0 .343-.02c.029 0 .056-.014.085-.019a2.881 2.881 0 0 0 .351-.076c.07-.019.141-.033.209-.056a2.983 2.983 0 0 0 .332-.146c.06-.029.122-.052.179-.084a3.028 3.028 0 0 0 .43-.3l.026-.019 8.039-6.855a3 3 0 0 0 .334-4.228z" data-name="stroke"/><circle stroke-width="2" stroke-linejoin="round" stroke-linecap="round" stroke="#2e4369" fill="none" r="6" cy="30.994" cx="32" data-name="stroke"/></svg>