<svg xmlns="http://www.w3.org/2000/svg" viewBox="0 0 64 64" aria-labelledby="title" aria-describedby="desc"><path data-name="layer1" d="M45.3 34a12 12 0 0 1 8.7 3.7V18H10v29a3 3 0 0 1-3 3h27a12 12 0 0 1 11.3-16z" fill="#f8da82"/><path data-name="layer1" d="M10 47V18h38v-8H20V6H2v41a3 3 0 0 0 3 3h2a3 3 0 0 0 3-3z" fill="#f8da82"/><path data-name="opacity" d="M10 47V18h38v-8H20V6H2v41a3 3 0 0 0 3 3h2a3 3 0 0 0 3-3z" fill="#000064" opacity=".15"/><path data-name="opacity" fill="#fff" opacity=".2" d="M10 18h44v3H10z"/><path data-name="opacity" d="M28.3 48a11.7 11.7 0 0 0 .2 2H34a11.9 11.9 0 0 1 4.4-13.8A12 12 0 0 0 28.3 48z" fill="#000064" opacity=".15"/><path data-name="stroke" d="M54 37.9V18H10v29a3 3 0 0 1-3 3" fill="none" stroke="#2e4369" stroke-linecap="round" stroke-miterlimit="10" stroke-width="2" stroke-linejoin="round"/><path data-name="stroke" d="M48 18v-8H20V6H2v41a3 3 0 0 0 3 3h29m18.4-4l4.8 4.8L62 46" fill="none" stroke="#2e4369" stroke-linecap="round" stroke-miterlimit="10" stroke-width="2" stroke-linejoin="round"/><path data-name="stroke" fill="none" stroke="#2e4369" stroke-linecap="round" stroke-miterlimit="10" stroke-width="2" d="M38 46l-4.8-4.8-4.8 4.8" stroke-linejoin="round"/><path data-name="stroke" d="M50.9 56.6a11.8 11.8 0 0 1-14.1-2.1A12.1 12.1 0 0 1 34 42m5.6-6.6a11.8 11.8 0 0 1 14.1 2.1A12.1 12.1 0 0 1 56.4 50" fill="none" stroke="#2e4369" stroke-linecap="round" stroke-miterlimit="10" stroke-width="2" stroke-linejoin="round"/></svg>