<svg xmlns="http://www.w3.org/2000/svg" viewBox="0 0 64 64" aria-labelledby="title" aria-describedby="desc"><path data-name="layer1" d="M24 56.7a1.3 1.3 0 0 0 1.3 1.3h35.4a1.3 1.3 0 0 0 1.3-1.3V28H40v-4H24z" fill="#f8da82"/><path data-name="opacity" d="M28.3 55a1.3 1.3 0 0 1-1.3-1.3V24h-3v32.7a1.3 1.3 0 0 0 1.3 1.3h35.4a1.3 1.3 0 0 0 1.3-1.3V55z" fill="#000064" opacity=".15"/><path data-name="layer1" d="M40 24V8H18V4H2v32.7A1.3 1.3 0 0 0 3.3 38H24V24z" fill="#f8da82"/><path d="M40 24V8H18V4H2v32.7A1.3 1.3 0 0 0 3.3 38H24V24z" fill="#000064" opacity=".15"/><path data-name="stroke" d="M40 28V8H18V4H2v32.7A1.3 1.3 0 0 0 3.3 38H24" fill="none" stroke="#2e4369" stroke-linecap="round" stroke-miterlimit="10" stroke-width="2" stroke-linejoin="round"/><path data-name="stroke" d="M24 56.7a1.3 1.3 0 0 0 1.3 1.3h35.4a1.3 1.3 0 0 0 1.3-1.3V28H40v-4H24zM16 54H6a4 4 0 0 1-4-4v-2" fill="none" stroke="#2e4369" stroke-linecap="round" stroke-miterlimit="10" stroke-width="2" stroke-linejoin="round"/><path data-name="stroke" d="M11 49l5 5-5 5m37-47h10a4 4 0 0 1 4 4v2" fill="none" stroke="#2e4369" stroke-linecap="round" stroke-miterlimit="10" stroke-width="2" stroke-linejoin="round"/><path data-name="stroke" d="M53 17l-5-5 5-5" fill="none" stroke="#2e4369" stroke-linecap="round" stroke-miterlimit="10" stroke-width="2" stroke-linejoin="round"/></svg>