<svg xmlns="http://www.w3.org/2000/svg" viewBox="0 0 64 64" aria-labelledby="title" aria-describedby="desc"><path data-name="layer1" d="M6 8a4 4 0 0 0 4 4h28V4H10a4 4 0 0 0-4 4z" fill="#202020"/><path data-name="layer2" d="M46 28a16 16 0 1 0 16 16 16 16 0 0 0-16-16zm8.5 13.3l-9.4 10.6-6.5-6.5a2 2 0 0 1 2.8-2.8l3.5 3.5 6.6-7.4a2 2 0 0 1 3 2.7z" fill="#202020"/><path data-name="layer1" d="M26 44a20 20 0 0 1 16-19.6V16H10a8 8 0 0 1-8-8v38a8 8 0 0 0 8 8h18.7A19.8 19.8 0 0 1 26 44z" fill="#202020"/></svg>