<svg xmlns="http://www.w3.org/2000/svg" viewBox="0 0 64 64" aria-labelledby="title" aria-describedby="desc"><path data-name="layer2" fill="none" stroke="#202020" stroke-linecap="round" stroke-miterlimit="10" stroke-width="2" d="M49.382 49.888l12.143 12.143M42.656 48.876l3.155 3.155a1.01 1.01 0 0 0 1.429 0l4.286-4.286a1.01 1.01 0 0 0 0-1.429l-3.154-3.154M1.525 12.031l10-10m.714 15L4.382 9.174m4.286-4.286l7.857 7.857" stroke-linejoin="round"/><path data-name="layer1" fill="none" stroke="#202020" stroke-linecap="round" stroke-miterlimit="10" stroke-width="2" d="M21.239 18.031l3.143-3.143m-.285 8.857l4.571-4.571m1.143 7.428l3.143-3.143m4 13.143l4.571-4.571m1.143 7.428l3.143-3.143M6.525 22.745L22.239 7.031M9.382 19.888l27.857 27.857a5.051 5.051 0 0 0 7.143 0l2.857-2.857a5.051 5.051 0 0 0 0-7.143L19.382 9.888m7.857 27.857l10-10" stroke-linejoin="round"/></svg>