<svg xmlns="http://www.w3.org/2000/svg" viewBox="0 0 64 64" aria-labelledby="title" aria-describedby="desc"><path data-name="layer1" fill="#cbe5ff" d="M9.382 19.887l10-10L37.24 27.745l-10 10z"/><path data-name="layer3" d="M47.239 37.745l-10-10-10 10 10 10a5.051 5.051 0 0 0 7.143 0l2.857-2.857a5.051 5.051 0 0 0 0-7.143z" fill="#53a9ff"/><path data-name="opacity" d="M17.382 11.888l-2 2L43.34 41.869c1.1.9 3.222-.2 2.1-1.879z" fill="#fff" opacity=".5"/><path data-name="opacity" d="M40.239 44.745l-10-10-17.857-17.857-3 3 17.857 17.857 10 10a5.051 5.051 0 0 0 7.143 0l2.857-2.857c.025-.025.04-.054.064-.079a5.045 5.045 0 0 1-7.064-.064z" fill="#000064" opacity=".16"/><path data-name="layer2" d="M51.525 46.316l-3.154-3.154h-.005a5.024 5.024 0 0 1-1.126 1.727l-2.857 2.857a5.023 5.023 0 0 1-1.729 1.127l3.155 3.155a1.01 1.01 0 0 0 1.429 0l4.286-4.286a1.01 1.01 0 0 0 .001-1.426z" fill="#8695b6"/><path data-name="layer1" fill="#cbe5ff" d="M4.381 9.174l4.286-4.286 7.857 7.857-4.285 4.286z"/><path data-name="opacity" fill="#000064" opacity=".16" d="M4.381 9.174l4.286-4.286 7.857 7.857-4.285 4.286z"/><path data-name="stroke" fill="none" stroke="#2e4369" stroke-linecap="round" stroke-miterlimit="10" stroke-width="2" d="M49.382 49.888l12.143 12.143M42.656 48.876l3.155 3.155a1.01 1.01 0 0 0 1.429 0l4.286-4.286a1.01 1.01 0 0 0 0-1.429l-3.154-3.154M1.525 12.031l10-10m.714 15L4.382 9.174m4.286-4.286l7.857 7.857m4.714 5.286l3.143-3.143m-.285 8.857l4.571-4.571m1.143 7.428l3.143-3.143m4 13.143l4.571-4.571m1.143 7.428l3.143-3.143M6.525 22.745L22.239 7.031" stroke-linejoin="round"/><path data-name="stroke" d="M9.382 19.888l27.857 27.857a5.051 5.051 0 0 0 7.143 0l2.857-2.857a5.051 5.051 0 0 0 0-7.143L19.382 9.888m7.857 27.857l10-10" fill="none" stroke="#2e4369" stroke-linecap="round" stroke-miterlimit="10" stroke-width="2" stroke-linejoin="round"/></svg>