<svg xmlns="http://www.w3.org/2000/svg" viewBox="0 0 64 64" aria-labelledby="title" aria-describedby="desc"><path data-name="layer1" d="M54.2 2H9.8A7.8 7.8 0 0 0 2 9.8v44.4A7.8 7.8 0 0 0 9.8 62h44.4a7.8 7.8 0 0 0 7.8-7.8V9.8A7.8 7.8 0 0 0 54.2 2zM14 30a2 2 0 1 1-4 0V18a2 2 0 1 1 4 0zm10.6-13.4a2 2 0 1 1 2.8 2.8L24.8 22H44a2 2 0 0 1 0 4H24.8l2.6 2.6a2 2 0 1 1-2.8 2.8l-6-6-1.4-1.4zm20.8 24.8l-6 6a2 2 0 1 1-2.8-2.8l2.6-2.6H20a2 2 0 0 1 0-4h19.2l-2.6-2.6a2 2 0 1 1 2.8-2.8l7.4 7.4zM54 46a2 2 0 1 1-4 0V34a2 2 0 0 1 4 0z" fill="#202020"/></svg>