<svg xmlns="http://www.w3.org/2000/svg" viewBox="0 0 64 64" aria-labelledby="title" aria-describedby="desc"><path data-name="layer2" d="M54 4a2 2 0 0 0-2-2H12a2 2 0 0 0-2 2v6h44zM10 60a2 2 0 0 0 2 2h40a2 2 0 0 0 2-2V50H10zm44-10V10m-44 0v40" fill="none" stroke="#202020" stroke-linecap="round" stroke-linejoin="round" stroke-width="2"/><path data-name="layer1" fill="none" stroke="#202020" stroke-linecap="round" stroke-linejoin="round" stroke-width="2" d="M17 17h6v6h-6zm12 0h6v6h-6zm12 0h6v6h-6zM17 29h6v6h-6zm12 0h6v6h-6z"/><circle data-name="layer1" cx="32" cy="56" r="2" fill="none" stroke="#202020" stroke-linecap="round" stroke-linejoin="round" stroke-width="2"/></svg>