<svg xmlns="http://www.w3.org/2000/svg" viewBox="0 0 64 64" aria-labelledby="title" aria-describedby="desc"><rect data-name="layer2" x="16.121" y="3.708" width="31.777" height="56.602" rx="3" ry="3" transform="rotate(45 32.01 32.009)" fill="#9dbde4"/><circle data-name="layer1" cx="40" cy="14" r="4" fill="#cbe5ff"/><circle data-name="layer1" cx="50" cy="24" r="4" fill="#cbe5ff"/><circle data-name="layer1" cx="31" cy="23" r="4" fill="#cbe5ff"/><circle data-name="layer1" cx="41" cy="33" r="4" fill="#cbe5ff"/><circle data-name="layer1" cx="22" cy="32" r="4" fill="#cbe5ff"/><circle data-name="layer1" cx="32" cy="42" r="4" fill="#cbe5ff"/><circle data-name="layer1" cx="13" cy="41" r="4" fill="#cbe5ff"/><circle data-name="layer1" cx="23" cy="51" r="4" fill="#cbe5ff"/><path data-name="opacity" d="M20 38a3.994 3.994 0 0 0 3.64-2.36 3.986 3.986 0 0 1-5.28-5.28A4 4 0 0 0 20 38zm18-18a3.994 3.994 0 0 0 3.64-2.36 3.986 3.986 0 0 1-5.28-5.28A4 4 0 0 0 38 20zM13 45a3.986 3.986 0 0 1-3.64-5.64 4 4 0 1 0 5.28 5.28A3.971 3.971 0 0 1 13 45zm16-16a3.994 3.994 0 0 0 3.64-2.36 3.986 3.986 0 0 1-5.28-5.28A4 4 0 0 0 29 29zm-6 26a3.986 3.986 0 0 1-3.64-5.64 4 4 0 1 0 5.28 5.28A3.971 3.971 0 0 1 23 55zm27-27a3.986 3.986 0 0 1-3.64-5.64 4 4 0 1 0 5.28 5.28A3.971 3.971 0 0 1 50 28zm-9 9a3.986 3.986 0 0 1-3.64-5.64 4 4 0 1 0 5.28 5.28A3.971 3.971 0 0 1 41 37zm-9 9a3.986 3.986 0 0 1-3.64-5.64 4 4 0 1 0 5.28 5.28A3.971 3.971 0 0 1 32 46z" fill="#000064" opacity=".16"/><rect data-name="stroke" x="16.121" y="3.708" width="31.777" height="56.602" rx="3" ry="3" transform="rotate(45 32.01 32.009)" fill="none" stroke="#2e4369" stroke-linecap="round" stroke-miterlimit="10" stroke-width="2" stroke-linejoin="round"/><circle data-name="stroke" cx="40" cy="14" r="4" fill="none" stroke="#2e4369" stroke-linecap="round" stroke-miterlimit="10" stroke-width="2" stroke-linejoin="round"/><circle data-name="stroke" cx="50" cy="24" r="4" fill="none" stroke="#2e4369" stroke-linecap="round" stroke-miterlimit="10" stroke-width="2" stroke-linejoin="round"/><circle data-name="stroke" cx="31" cy="23" r="4" fill="none" stroke="#2e4369" stroke-linecap="round" stroke-miterlimit="10" stroke-width="2" stroke-linejoin="round"/><circle data-name="stroke" cx="41" cy="33" r="4" fill="none" stroke="#2e4369" stroke-linecap="round" stroke-miterlimit="10" stroke-width="2" stroke-linejoin="round"/><circle data-name="stroke" cx="22" cy="32" r="4" fill="none" stroke="#2e4369" stroke-linecap="round" stroke-miterlimit="10" stroke-width="2" stroke-linejoin="round"/><circle data-name="stroke" cx="32" cy="42" r="4" fill="none" stroke="#2e4369" stroke-linecap="round" stroke-miterlimit="10" stroke-width="2" stroke-linejoin="round"/><circle data-name="stroke" cx="13" cy="41" r="4" fill="none" stroke="#2e4369" stroke-linecap="round" stroke-miterlimit="10" stroke-width="2" stroke-linejoin="round"/><circle data-name="stroke" cx="23" cy="51" r="4" fill="none" stroke="#2e4369" stroke-linecap="round" stroke-miterlimit="10" stroke-width="2" stroke-linejoin="round"/></svg>