<svg xmlns="http://www.w3.org/2000/svg" viewBox="0 0 64 64" aria-labelledby="title" aria-describedby="desc"><path data-name="layer1" d="M62.424 19.843L44.175 1.594a4.012 4.012 0 0 0-5.657 0L1.594 38.519a4.012 4.012 0 0 0 0 5.657l18.249 18.248a4.012 4.012 0 0 0 5.657 0L62.424 25.5a4.012 4.012 0 0 0 0-5.657zM13 45a4 4 0 1 1 4-4 4 4 0 0 1-4 4zm9-17a4 4 0 1 1-4 4 4 4 0 0 1 4-4zm1 27a4 4 0 1 1 4-4 4 4 0 0 1-4 4zm8-36a4 4 0 1 1-4 4 4 4 0 0 1 4-4zm1 27a4 4 0 1 1 4-4 4 4 0 0 1-4 4zm8-36a4 4 0 1 1-4 4 4 4 0 0 1 4-4zm1 27a4 4 0 1 1 4-4 4 4 0 0 1-4 4zm9-9a4 4 0 1 1 4-4 4 4 0 0 1-4 4z" fill="#202020"/></svg>