<svg viewBox="0 0 64 64" xmlns="http://www.w3.org/2000/svg" aria-labelledby="title" aria-describedby="desc"><path d="M28 40h8v8h-8zm0-12h8v8h-8zm12 12h8v8h-8zm0-12h8v8h-8z" fill="#202020" data-name="layer2"/><path fill="#202020" d="M2 20v38h60V20zm50 32H12V24h40z" data-name="layer2"/><path d="M16 40h8v8h-8zm0-12h8v8h-8z" fill="#202020" data-name="layer2"/><path fill="#202020" d="M2 6v10h60V6zm6 7a2 2 0 1 1 2-2 2 2 0 0 1-2 2zm6 0a2 2 0 1 1 2-2 2 2 0 0 1-2 2zm6 0a2 2 0 1 1 2-2 2 2 0 0 1-2 2z" data-name="layer1"/></svg>