<svg xmlns="http://www.w3.org/2000/svg" viewBox="0 0 64 64" aria-labelledby="title" aria-describedby="desc"><circle data-name="layer2" cx="32" cy="32" r="30" fill="#ed5858"/><path data-name="layer1" d="M40 29v-5.7a1.3 1.3 0 0 0-1.3-1.3H17.3a1.3 1.3 0 0 0-1.3 1.3v17.4a1.3 1.3 0 0 0 1.3 1.3h21.4a1.3 1.3 0 0 0 1.3-1.3V35l10 6V23z" fill="#fff"/><path data-name="opacity" d="M17.3 42a1.3 1.3 0 0 1-1.3-1.3V26h-3.7a1.3 1.3 0 0 0-1.3 1.3v17.4a1.3 1.3 0 0 0 1.3 1.3h21.4a1.3 1.3 0 0 0 1.3-1.3V42zM40 35v5.7a1.3 1.3 0 0 1-.5 1L45 45v-7z" fill="#000064" opacity=".14"/><circle data-name="stroke" cx="32" cy="32" r="30" fill="none" stroke="#2e4369" stroke-linecap="round" stroke-miterlimit="10" stroke-width="2" stroke-linejoin="round"/><path data-name="stroke" d="M40 40.7a1.3 1.3 0 0 1-1.3 1.3H17.3a1.3 1.3 0 0 1-1.3-1.3V23.3a1.3 1.3 0 0 1 1.3-1.3h21.4a1.3 1.3 0 0 1 1.3 1.3zM50 23v18l-10-6v-6l10-6z" fill="none" stroke="#2e4369" stroke-linecap="round" stroke-miterlimit="10" stroke-width="2" stroke-linejoin="round"/></svg>