<svg xmlns="http://www.w3.org/2000/svg" viewBox="0 0 64 64" aria-labelledby="title" aria-describedby="desc"><path data-name="layer2" d="M54.6 13.8a5.7 5.7 0 0 0-5.5-5.3H40v-7H24v7h-9.1a5.7 5.7 0 0 0-5.5 5.3c-.2 1.9-.7 7.4-1.1 11.2h47.4c-.4-3.8-.9-9.3-1.1-11.2zm6.1 19.4l-2-2A11.3 11.3 0 0 0 56 29H8a11.4 11.4 0 0 0-2.7 2.2l-2 2A5 5 0 0 0 2 36.7v15.8h60V36.7a5 5 0 0 0-1.3-3.5zM20 42.5a2 2 0 0 1-2 2h-6a2 2 0 0 1-2-2v-2a2 2 0 0 1 2-2h6a2 2 0 0 1 2 2zm16 2h-8a2 2 0 0 1 0-4h8a2 2 0 0 1 0 4zm18-2a2 2 0 0 1-2 2h-6a2 2 0 0 1-2-2v-2a2 2 0 0 1 2-2h6a2 2 0 0 1 2 2z" fill="#202020"/><path data-name="layer1" d="M6 59.5a3 3 0 0 0 3 3h4a3 3 0 0 0 3-3v-3H6zm42 0a3 3 0 0 0 3 3h4a3 3 0 0 0 3-3v-3H48z" fill="#202020"/></svg>