<svg xmlns="http://www.w3.org/2000/svg" viewBox="0 0 64 64" aria-labelledby="title" aria-describedby="desc"><path data-name="layer2" d="M62 52V36.2a5 5 0 0 0-1.3-3.5l-2-2C57.5 29.5 56 28 54 28H10c-2 0-3.5 1.5-4.7 2.7l-2 2A5 5 0 0 0 2 36.2V52z" fill="#fc0"/><rect data-name="layer4" x="10" y="38" width="10" height="6" rx="2" ry="2" fill="#a0d6ef"/><rect data-name="layer4" x="44" y="38" width="10" height="6" rx="2" ry="2" fill="#a0d6ef"/><path data-name="layer3" d="M16 52v7a3 3 0 0 1-3 3H9a3 3 0 0 1-3-3v-7zm42 0v7a3 3 0 0 1-3 3h-4a3 3 0 0 1-3-3v-7z" fill="#7b8baf"/><path data-name="layer2" fill="#fc0" d="M24 2h16v8H24z"/><path data-name="layer1" d="M54 28a4.3 4.3 0 0 1 2 .5s-1-10.2-1.4-13.2a5.7 5.7 0 0 0-5.5-5.3H14.9a5.7 5.7 0 0 0-5.5 5.3C9 18.3 8 28.5 8 28.5a4.3 4.3 0 0 1 2-.5z" fill="#c3d6e0"/><path data-name="opacity" d="M24.9 10L8.1 26.8v1.7H8a4.3 4.3 0 0 1 2-.5h11.1l18-18zm26.4.2L33.5 28h8.8l11.5-11.5-.2-2.1a6.2 6.2 0 0 0-2.3-4.2z" fill="#fff" opacity=".5"/><path data-name="opacity" d="M3.3 32.7A5 5 0 0 0 2 36.2V52h60v-2.9H6.9V35c0-2.8 2.5-7 3.1-7-2 0-3.4 1.5-4.7 2.7z" fill="#000064" opacity=".15"/><path data-name="opacity" d="M58.7 30.7C57.5 29.5 56 28 54 28H10c-.4 0-1.6 1.8-2.4 3.9h46.7c1.5 0 6 .6 7.2 2a4.2 4.2 0 0 0-.8-1.2z" fill="#fff" opacity=".2"/><path data-name="opacity" fill="#000064" opacity=".2" d="M6 52h10v3.94H6zm42 0h10v3.94H48z"/><path data-name="stroke" d="M16 52v7a3 3 0 0 1-3 3H9a3 3 0 0 1-3-3v-7m52 0v7a3 3 0 0 1-3 3h-4a3 3 0 0 1-3-3v-7m14 0V36.2a5 5 0 0 0-1.3-3.5l-2-2C57.5 29.5 56 28 54 28H10c-2 0-3.5 1.5-4.7 2.7l-2 2A5 5 0 0 0 2 36.2V52z" fill="none" stroke="#2e4369" stroke-linecap="round" stroke-linejoin="round" stroke-width="2"/><rect data-name="stroke" x="10" y="38" width="10" height="6" rx="2" ry="2" fill="none" stroke="#2e4369" stroke-linecap="round" stroke-linejoin="round" stroke-width="2"/><rect data-name="stroke" x="44" y="38" width="10" height="6" rx="2" ry="2" fill="none" stroke="#2e4369" stroke-linecap="round" stroke-linejoin="round" stroke-width="2"/><path data-name="stroke" fill="none" stroke="#2e4369" stroke-linecap="round" stroke-linejoin="round" stroke-width="2" d="M28 42h8M24 10V2h16v8M8 28.5s1-10.2 1.4-13.2a5.7 5.7 0 0 1 5.5-5.3h34.2a5.7 5.7 0 0 1 5.5 5.3c.4 3 1.4 13.2 1.4 13.2"/></svg>