<svg xmlns="http://www.w3.org/2000/svg" viewBox="0 0 64 64" aria-labelledby="title" aria-describedby="desc"><path data-name="layer1" d="M18 52S2 38 2 8h50s-.3 30-16 44" fill="#f16262"/><path data-name="opacity" d="M41 8s-.2 28.1-11.6 44H33C48.7 38 49 8 49 8z" fill="#fff" opacity=".35"/><path data-name="opacity" d="M10 8H2c0 30 16 44 16 44h5A79.3 79.3 0 0 1 10 8z" fill="#101129" opacity=".25"/><path data-name="layer1" d="M52 54a2 2 0 0 1-2 2H4a2 2 0 0 1-2-2 2 2 0 0 1 2-2h46a2 2 0 0 1 2 2z" fill="#f16262"/><path data-name="stroke" d="M18 52S2 38 2 8h50s-.3 30-16 44" fill="none" stroke="#2f446a" stroke-linecap="round" stroke-linejoin="round" stroke-width="2"/><path data-name="stroke" d="M51.6 14c5.9 0 10.4 1.6 10.4 6.1s-4.7 11.4-15.5 16.1M52 54a2 2 0 0 1-2 2H4a2 2 0 0 1-2-2 2 2 0 0 1 2-2h46a2 2 0 0 1 2 2z" fill="none" stroke="#2f446a" stroke-linecap="round" stroke-linejoin="round" stroke-width="2"/></svg>