<svg viewBox="0 0 64 64" xmlns="http://www.w3.org/2000/svg" aria-labelledby="title" aria-describedby="desc"><circle fill="#f26950" r="4" cy="16.002" cx="32" data-name="layer2"/><path fill="#c4d3e0" d="M47.975 52a20 20 0 1 0-31.947 0z" data-name="layer1"/><path opacity=".5" fill="#fff" d="M31.5 20.028c6.6 3.391 10.493 10.7 10.493 19.2a21.094 21.094 0 0 1-4.274 12.733H15l.025.037h29.943A19.875 19.875 0 0 0 49 40c0-10.875-6.755-19.7-17.5-19.972z" data-name="opacity"/><path opacity=".25" fill="#101129" d="M28.727 20.293A19.95 19.95 0 0 0 16.027 52h6.006c-2.516-3.344-4.025-9.492-4.025-14a19.987 19.987 0 0 1 10.719-17.707z" data-name="opacity"/><circle stroke-width="2" stroke-linejoin="round" stroke-linecap="round" stroke="#2f446a" fill="none" r="4" cy="16.002" cx="32" data-name="stroke"/><path stroke-width="2" stroke-linejoin="round" stroke-linecap="round" stroke="#2f446a" fill="none" d="M62 26a3.724 3.724 0 0 0-4 4v6c0 2 0 5.988-6.078 6m-3.92-13.998H16" data-name="stroke"/><path stroke-width="2" stroke-linejoin="round" stroke-linecap="round" stroke="#2f446a" fill="none" d="M47.975 52a20 20 0 1 0-31.947 0zm-35.249-6.477a8 8 0 1 1 1.294-14.439" data-name="stroke"/></svg>