<svg xmlns="http://www.w3.org/2000/svg" viewBox="0 0 64 64" aria-labelledby="title" aria-describedby="desc"><path data-name="layer2" fill="none" stroke="#202020" stroke-linecap="round" stroke-linejoin="round" stroke-width="2" d="M16 3v16m6 16V25a6 6 0 0 0-6-6 6 6 0 0 0-6 6v10z"/><path data-name="layer1" d="M48 3v54a4 4 0 0 1-4 4H6a4 4 0 0 1-4-4V3zm0 10a14 14 0 0 1 14 14v4a14 14 0 0 1-14 14" fill="none" stroke="#202020" stroke-linecap="round" stroke-linejoin="round" stroke-width="2"/><path data-name="layer1" d="M48 41a10 10 0 0 0 10-10v-4a10 10 0 0 0-10-10" fill="none" stroke="#202020" stroke-linecap="round" stroke-linejoin="round" stroke-width="2"/></svg>