<svg xmlns="http://www.w3.org/2000/svg" viewBox="0 0 64 64" aria-labelledby="title" aria-describedby="desc"><path data-name="layer2" d="M37.4 43.9c-7.5-1-7.4-3.7-7.4-5.1v-2.3c2.7-2.4 4-6.4 4-10.9v-7C34 11 28.9 8 24 8s-10 3-10 10.6v7c0 4.5 1.4 8.4 4.1 10.8v2.4c0 1.5 0 4-7.4 5.1S2 52 2 52v4h44v-4s0-6.8-8.6-8.1z" fill="#202020"/><path data-name="layer1" d="M54.9 37.4c-6.1-1.2-6.1-3-6.1-4.2v-1.9a11.8 11.8 0 0 0 3.7-8.9v-5.8C52.5 10.4 48 8 44 8a8.9 8.9 0 0 0-5.8 2 12.3 12.3 0 0 0-1.5 2 16.7 16.7 0 0 1 1.3 6.6v7c0 .6 0 1.2-.1 1.7l1.2 3.9v1.9c0 1 0 2.3-3.1 3.4l-1.1.3-.9 1.3v.7a11.3 11.3 0 0 0 3.9 1c6.6.9 9.9 4.6 11.2 8H62V44s0-5.3-7.1-6.6z" fill="#202020"/></svg>