<svg xmlns="http://www.w3.org/2000/svg" viewBox="0 0 64 64" aria-labelledby="title" aria-describedby="desc"><path data-name="layer1" d="M37.4 43.9c-7.5-1-7.4-3.7-7.4-5.1v-2.3c2.7-2.4 4-6.4 4-10.9v-7C34 10.9 28.9 8 24 8s-10 2.9-10 10.6v7c0 4.5 1.3 8.6 4 11V39c0 1.5.1 3.9-7.4 4.9S2 52 2 52v4h44v-4s0-6.9-8.6-8.1z" fill="#a5d0ec"/><path data-name="opacity" d="M14.6 43.9c7.5-1.1 7.4-3.4 7.4-4.9v-2.4c-2.7-2.4-4-6.5-4-11v-7c0-6.6 3.8-9.7 8-10.4L24 8c-4.9 0-10 2.9-10 10.6v7c0 4.5 1 8.6 4 11V39c0 1.5.1 3.9-7.4 4.9S2 52 2 52v4h4v-4s0-6.8 8.6-8.1z" fill="#000064" opacity=".15"/><path data-name="layer1" d="M54.9 37.4c-6.1-1.2-5.9-3.3-5.9-4.5V31a12.2 12.2 0 0 0 4-8.6v-5.8c0-6.2-5-8.6-9-8.6a8.9 8.9 0 0 0-5.8 2 7.5 7.5 0 0 0-3.2 6c0 4 0 12 4 15v2c0 1 .1 2.5-3 3.6a40.8 40.8 0 0 1-6 1.4v.8c0 1.5-.1 4.1 7.4 5.1 4 .6 6.1 2.1 7.3 4.1H62v-4s0-5.3-7.1-6.6z" fill="#a5d0ec"/><path data-name="opacity" d="M54.9 37.4c-6.1-1.2-5.9-3.3-5.9-4.5V31a12.2 12.2 0 0 0 4-8.6v-5.8c0-6.2-5-8.6-9-8.6a8.9 8.9 0 0 0-5.8 2 7.5 7.5 0 0 0-3.2 6c0 4 0 12 4 15v2c0 1 .1 2.5-3 3.6a40.8 40.8 0 0 1-6 1.4v.8c0 1.5-.1 4.1 7.4 5.1 4 .6 6.1 2.1 7.3 4.1H62v-4s0-5.3-7.1-6.6z" fill="#000064" opacity=".15"/><path data-name="stroke" d="M30 38a36.7 36.7 0 0 0 6-1.4c3.1-1.1 3-2.7 3-3.6v-2m-.8-21A8.9 8.9 0 0 1 44 8c4 0 9 2.4 9 8.6v5.8a11.4 11.4 0 0 1-4 8.6v1.9c0 1.2-.1 3.3 5.9 4.5S62 44 62 44v4H52" fill="none" stroke="#2e4369" stroke-linecap="round" stroke-linejoin="round" stroke-width="2"/><path data-name="stroke" d="M37.4 43.9c-7.5-1-7.4-3.7-7.4-5.1v-2.3c2.7-2.4 4-6.4 4-10.9v-7C34 10.9 28.9 8 24 8s-10 2.9-10 10.6v7c0 4.5 1.3 8.6 4 11V39c0 1.5.1 3.9-7.4 4.9S2 52 2 52v4h44v-4s0-6.9-8.6-8.1z" fill="none" stroke="#2e4369" stroke-linecap="round" stroke-linejoin="round" stroke-width="2"/></svg>