<svg xmlns="http://www.w3.org/2000/svg" viewBox="0 0 64 64" aria-labelledby="title" aria-describedby="desc"><rect data-name="layer4" x="2" y="22" width="60" height="40" rx="2" ry="2" fill="#7b8baf"/><path data-name="opacity" d="M60 59H4a2 2 0 0 1-2-2v3a2 2 0 0 0 2 2h56a2 2 0 0 0 2-2v-3a2 2 0 0 1-2 2z" fill="#000064" opacity=".16"/><circle data-name="layer3" cx="54" cy="39" r="1" fill="#8fa9d8"/><circle data-name="layer3" cx="54" cy="47" r="1" fill="#8fa9d8"/><circle data-name="layer3" cx="54" cy="30" r="2" fill="#8fa9d8"/><rect data-name="layer2" x="6" y="26" width="40" height="32" rx="3" ry="3" fill="#d1ebf7"/><path data-name="layer1" fill="#fff" d="M46 41v-7l-8-8h-7l15 15zm0 14v-6.3C39.1 41.8 26.5 29.9 22.2 26H8l32 32h3a3 3 0 0 0 3-3z"/><path data-name="stroke" fill="none" stroke="#2e4369" stroke-linecap="round" stroke-miterlimit="10" stroke-width="2" d="M32 22L12.1 2.1M32 22L51.9 2.1" stroke-linejoin="round"/><rect data-name="stroke" x="2" y="22" width="60" height="40" rx="2" ry="2" fill="none" stroke="#2e4369" stroke-linecap="round" stroke-miterlimit="10" stroke-width="2" stroke-linejoin="round"/><circle data-name="stroke" cx="54" cy="39" r="1" fill="none" stroke="#2e4369" stroke-linecap="round" stroke-miterlimit="10" stroke-width="2" stroke-linejoin="round"/><circle data-name="stroke" cx="54" cy="47" r="1" fill="none" stroke="#2e4369" stroke-linecap="round" stroke-miterlimit="10" stroke-width="2" stroke-linejoin="round"/><circle data-name="stroke" cx="54" cy="30" r="2" fill="none" stroke="#2e4369" stroke-linecap="round" stroke-miterlimit="10" stroke-width="2" stroke-linejoin="round"/><rect data-name="stroke" x="6" y="26" width="40" height="32" rx="3" ry="3" fill="none" stroke="#2e4369" stroke-linecap="round" stroke-miterlimit="10" stroke-width="2" stroke-linejoin="round"/></svg>