<svg xmlns="http://www.w3.org/2000/svg" viewBox="0 0 64 64" aria-labelledby="title" aria-describedby="desc"><path data-name="layer2" d="M15 25a3.9 3.9 0 0 0 3-4.5c-.3-3 1.4-7.5 14-7.5s14.3 4.4 14 7.5 2.9 4.3 4 4.5 4.8 1.5 6.1 1.8 3.2.8 4.6-1.1a11.2 11.2 0 0 0-2-13.2C53.5 7.3 43.1 5 32 5S10.5 7.3 5.3 12.4a11.2 11.2 0 0 0-2 13.2c1.4 1.8 3.3 1.3 4.6 1.1z" fill="#ed5858"/><path data-name="opacity" d="M4.3 15.4C9.5 10.3 19.9 8 31 8s21.5 2.3 26.7 7.4a11.2 11.2 0 0 1 3.1 10 11.3 11.3 0 0 0-2.1-13C53.5 7.3 43.1 5 32 5S10.5 7.3 5.3 12.4a11 11 0 0 0-3.1 5.9 11.4 11.4 0 0 1 2.1-2.9z" fill="#fff" opacity=".25"/><path data-name="layer2" d="M56 59V49a22 22 0 0 0-22-22h-4A22 22 0 0 0 8 49v10z" fill="#ed5858"/><path data-name="opacity" d="M13 56V46a22 22 0 0 1 8.3-17.2A22 22 0 0 0 8 49v10h48v-3z" fill="#000064" opacity=".15"/><circle data-name="layer1" cx="32" cy="43" r="8" fill="#dbf1ff"/><path data-name="opacity" d="M32 51a8 8 0 0 1-7.3-11.3 8 8 0 1 0 10.6 10.6 8 8 0 0 1-3.3.7z" fill="#000064" opacity=".15"/><path data-name="stroke" d="M16 25a3.9 3.9 0 0 0 3-4.5c-.3-3 1.4-7.5 14-7.5s14.3 4.4 14 7.5 2.9 4.3 4 4.5 4.8 1.5 6.1 1.8 3.2.8 4.6-1.1a11.2 11.2 0 0 0-2-13.2C54.5 7.3 44.1 5 33 5S11.5 7.3 6.3 12.4a11.2 11.2 0 0 0-2 13.2c1.4 1.8 3.3 1.3 4.6 1.1z" fill="none" stroke="#2e4369" stroke-linecap="round" stroke-miterlimit="10" stroke-width="2" stroke-linejoin="round"/><path data-name="stroke" d="M57 59V49a22 22 0 0 0-22-22h-4A22 22 0 0 0 9 49v10z" fill="none" stroke="#2e4369" stroke-linecap="round" stroke-miterlimit="10" stroke-width="2" stroke-linejoin="round"/><circle data-name="stroke" cx="33" cy="43" r="8" fill="none" stroke="#2e4369" stroke-linecap="round" stroke-miterlimit="10" stroke-width="2" stroke-linejoin="round"/><path data-name="stroke" fill="none" stroke="#2e4369" stroke-linecap="round" stroke-miterlimit="10" stroke-width="2" d="M27 21v6.4M39 21v6.4" stroke-linejoin="round"/></svg>