<svg xmlns="http://www.w3.org/2000/svg" viewBox="0 0 64 64" aria-labelledby="title" aria-describedby="desc"><path data-name="layer2" d="M15 25a3.9 3.9 0 0 0 3-4.5c-.3-3 1.4-7.5 14-7.5s14.3 4.4 14 7.5 2.9 4.3 4 4.5 4.8 1.5 6.1 1.8 3.2.8 4.6-1.1a11.2 11.2 0 0 0-2-13.2C53.5 7.3 43.1 5 32 5S10.5 7.3 5.3 12.4a11.2 11.2 0 0 0-2 13.2c1.4 1.8 3.3 1.3 4.6 1.1z" fill="none" stroke="#202020" stroke-miterlimit="10" stroke-width="2" stroke-linejoin="round" stroke-linecap="round"/><path data-name="layer1" d="M56 59V49a22 22 0 0 0-22-22h-4A22 22 0 0 0 8 49v10z" fill="none" stroke="#202020" stroke-miterlimit="10" stroke-width="2" stroke-linejoin="round" stroke-linecap="round"/><circle data-name="layer1" cx="32" cy="43" r="8" fill="none" stroke="#202020" stroke-miterlimit="10" stroke-width="2" stroke-linejoin="round" stroke-linecap="round"/><path data-name="layer1" fill="none" stroke="#202020" stroke-miterlimit="10" stroke-width="2" d="M26 21v6.4M38 21v6.4" stroke-linejoin="round" stroke-linecap="round"/></svg>