<svg xmlns="http://www.w3.org/2000/svg" viewBox="0 0 64 64" aria-labelledby="title" aria-describedby="desc"><path data-name="layer2" d="M58.7 12.4C53.5 7.3 43.1 5 32 5S10.5 7.3 5.3 12.4a11.2 11.2 0 0 0-2 13.2c1.4 1.8 3.3 1.3 4.6 1.1L15 25a3.9 3.9 0 0 0 3-4.5c-.3-3 1.4-7.5 14-7.5s14.3 4.4 14 7.5 2.9 4.3 4 4.5 4.8 1.5 6.1 1.8 3.2.8 4.6-1.1a11.2 11.2 0 0 0-2-13.3z" fill="#202020"/><path data-name="layer1" d="M40 27.8V21a2 2 0 1 0-4 0v6.1h-8V21a2 2 0 1 0-4 0v6.8A22 22 0 0 0 8 49v10h48V49a22 22 0 0 0-16-21.2zM32 51a8 8 0 1 1 8-8 8 8 0 0 1-8 8z" fill="#202020"/></svg>