<svg xmlns="http://www.w3.org/2000/svg" viewBox="0 0 64 64" aria-labelledby="title" aria-describedby="desc"><path data-name="layer1" d="M52.281 26.694a22.545 22.545 0 0 0 .8-5.8 20.8 20.8 0 1 0-41.6 0 21.955 21.955 0 0 0 .8 5.8c-2.6 2.1-12.8 11.2-8.6 23.1 0 0 3.5-.3 6.5-5.7a22.578 22.578 0 0 0 4.8 9.2c-3.3 1-5.5 2.8-5.5 5 0 3.1 4.8 5.7 10.6 5.7 4 0 7.4-1.2 9.3-2.9 1 .1 2 .2 3 .2s2-.1 3-.2c1.8 1.7 5.3 2.9 9.3 2.9 5.9 0 10.6-2.6 10.6-5.7 0-2.2-2.2-4-5.5-5a23.858 23.858 0 0 0 4.8-9.2c2.9 5.4 6.5 5.7 6.5 5.7 4-11.9-6.2-21-8.8-23.1z" fill="#2b2b2b"/></svg>