<svg xmlns="http://www.w3.org/2000/svg" viewBox="0 0 64 64" aria-labelledby="title" aria-describedby="desc"><path data-name="layer2" d="M62.828 57.152l-8.816-8.816a1 1 0 0 0 .226-1.066l-1.9-4.93a22.724 22.724 0 0 0-5.138-7.914L13.95 1.172a4.013 4.013 0 0 0-5.676 0l-7.1 7.1a4.013 4.013 0 0 0 0 5.676L34.426 47.2a22.724 22.724 0 0 0 7.912 5.141l4.93 1.9a1 1 0 0 0 1.066-.226l8.816 8.816a4.013 4.013 0 0 0 5.676-5.676zm-15.45-5.012l-4.321-1.662a20.608 20.608 0 0 1-7.219-4.69L2.586 12.536a2.016 2.016 0 0 1 0-2.848l7.1-7.1a2.016 2.016 0 0 1 2.848 0l8.827 8.827-1.424 1.424a1 1 0 1 0 1.414 1.414l1.424-1.424 4.257 4.257-1.422 1.422a1 1 0 1 0 1.414 1.414l1.424-1.422 4.258 4.258-1.424 1.423a1 1 0 1 0 1.418 1.412l1.42-1.423 4.257 4.257-1.424 1.424a1 1 0 1 0 1.414 1.414l1.424-1.424 4.257 4.259-1.424 1.424a1 1 0 1 0 1.414 1.414l1.424-1.424.326.326a20.608 20.608 0 0 1 4.69 7.219l1.662 4.321z" fill="#202020"/><path data-name="layer1" d="M9.988 9.988a2 2 0 0 0 0 2.828l36.391 36.391 2.828-2.828L12.816 9.988a2 2 0 0 0-2.828 0z" fill="#202020"/></svg>