<svg xmlns="http://www.w3.org/2000/svg" viewBox="0 0 64 64" aria-labelledby="title" aria-describedby="desc"><path data-name="layer2" d="M39 36.5V10a8 8 0 1 0-16 0v26.5a14 14 0 1 0 16 0z" fill="#eef5fc"/><path data-name="opacity" d="M34 58a14 14 0 0 1-12.5-20.2 14 14 0 1 0 22 16.5A13.9 13.9 0 0 1 34 58z" fill="#000064" opacity=".1"/><circle data-name="layer1" cx="31" cy="48" r="6" fill="#ed5448"/><path data-name="opacity" d="M33 51a6 6 0 0 1-5.8-7.7 6 6 0 1 0 9.5 6.3A6 6 0 0 1 33 51z" fill="#000064" opacity=".1"/><rect data-name="opacity" x="30" y="6" width="6" height="28" rx="3" ry="3" fill="#fff" opacity=".5"/><circle data-name="opacity" cx="36" cy="45" r="5" fill="#fff" opacity=".5"/><path data-name="stroke" d="M39 36.5V10a8 8 0 1 0-16 0v26.5a14 14 0 1 0 16 0z" fill="none" stroke="#2e4369" stroke-linecap="round" stroke-linejoin="round" stroke-width="2"/><circle data-name="stroke" cx="31" cy="48" r="6" fill="none" stroke="#2e4369" stroke-linecap="round" stroke-linejoin="round" stroke-width="2"/></svg>