<svg xmlns="http://www.w3.org/2000/svg" viewBox="0 0 64 64" aria-labelledby="title" aria-describedby="desc"><path data-name="layer2" d="M31.6 2c-6.6 0-14 4-14 14.4V20c-3 0-2.9 3.8-2.9 4.7s.7 7.3 3.8 7.3a17.2 17.2 0 0 0 7.2 10.3s6.6 4.3 12 0c3.5-2.8 5.9-5.7 7.2-10.3 3 0 3.7-6.3 3.7-7.3s.1-4.7-2.9-4.7v-3.6C45.6 6 38.2 2 31.6 2" fill="#e8d4d4"/><path data-name="layer1" d="M22 45.5L13.6 47C2 49.2 2 62 2 62h60s0-12.7-12.4-15L42 45.1" fill="#64738f"/><path data-name="layer1" d="M42 39.5c0 2.2-3.6 4.5-10.1 4.5S22 42.2 22 40v6c0 2.2 3.3 6 9.8 6S42 47.7 42 45.5zM17.6 20S20 30.8 32 26c12 4.7 13.6-6 13.6-6v-2C36 12.4 32 20 32 20s-4.3-7.5-14.4-2z" fill="#64738f"/><path data-name="opacity" d="M24 49c3 2 9 2 9 2a61.9 61.9 0 0 0 4.9-7.9 16.9 16.9 0 0 1-3.4.7h.1l-2.7.2C26.7 44 22 34 23 30c2 1 6 0 9-2 3 1 5.5.5 7-1a24.4 24.4 0 0 1-7-1s0-.7-2 0c-7 2-9-3-9-8s2-10 4-11 4 3 7 3 5-3 7-3a6 6 0 0 1 6 5l.4-.3C43.6 4.8 37.5 2 32 2S18 6 18 16.4V20c-3 0-3.1 3.8-3.1 4.7s.5 7.3 3.6 7.3a15.9 15.9 0 0 0 7.2 10.3A13.8 13.8 0 0 0 30 44c-5.3-.4-8-2-8-4v5.5L13.6 47C2 49.2 2 62 2 62h8c0-6 11-13 14-13z" fill="#000064" opacity=".15"/><path data-name="stroke" d="M31.6 2c-6.6 0-14 4-14 14.4V20c-3 0-2.9 3.8-2.9 4.7s.7 7.3 3.8 7.3a17.2 17.2 0 0 0 7.2 10.3m11.9 0c3.9-2.3 5.9-5.7 7.2-10.3 3 0 3.7-6.3 3.7-7.3s.1-4.7-2.9-4.7v-3.6C45.6 6 38.2 2 31.6 2M22 45.5L13.6 47C2 49.2 2 62 2 62h60s0-12.7-12.4-15L42 45.1" fill="none" stroke="#2e4369" stroke-linecap="round" stroke-linejoin="round" stroke-width="2"/><path data-name="stroke" d="M42 39.5c0 2.2-3.6 4.5-10.1 4.5S22 42.2 22 40v6c0 2.2 3.3 6 9.8 6S42 47.7 42 45.5zM28 36s.9-2 4-2 4 2 4 2M17.6 18C27.7 12.5 32 20 32 20s4-7.6 13.6-2m-28 2S20 30.8 32 26c12 4.7 13.6-6 13.6-6" fill="none" stroke="#2e4369" stroke-linecap="round" stroke-linejoin="round" stroke-width="2"/></svg>