<svg xmlns="http://www.w3.org/2000/svg" viewBox="0 0 64 64" aria-labelledby="title" aria-describedby="desc"><path data-name="layer1" d="M50 45l-6-1.5v-4a1.9 1.9 0 0 0-.1-.5 21.3 21.3 0 0 0 2.5-5.3c3.9-1.6 4.1-8.9 4.1-9 0-3.9-1.5-5.5-2.9-6.2v-2c0-11.3-8-16.4-16-16.4s-16 5.1-16 16.4v2c-1.4.7-2.9 2.3-2.9 6.3 0 .1.3 7.4 4.2 9a21 21 0 0 0 3.1 6v4L13.2 45C2.8 47 0 57 0 62v2h64v-2c0-4.9-2.9-14.8-14-17zm-10-.6v1c0 .9-2.5 4.5-8.1 4.5S24 47 24 46v-1.2a21.1 21.1 0 0 0 7.8 1.2 19.2 19.2 0 0 0 8.2-1.5zM31.6 4c5.5 0 11.3 2.9 11.9 10.8a11.6 11.6 0 0 0-7.3-.5 10.1 10.1 0 0 0-4.3 2.5c-2.1-1.9-6.1-4.2-12.2-2C20.3 6.9 26.1 4 31.6 4zM18.4 30c-.7 0-1.7-3.5-1.8-5.3a9.2 9.2 0 0 1 .1-1.3 11.2 11.2 0 0 0 4.6 4.6 10.6 10.6 0 0 0 5 1.2 16.7 16.7 0 0 0 5.7-1.1c4.2 1.5 7.7 1.4 10.5-.2a10.1 10.1 0 0 0 3.9-4.3v1c0 1.8-1.1 5.3-1.8 5.3h-1.4l-.4 1.5c-1.2 4.5-3.2 7.3-6.2 9.1a2 2 0 0 0-.9 1.1 20.5 20.5 0 0 1-3.9.3 23.6 23.6 0 0 1-4.3-.4 2 2 0 0 0-.8-1.1 15.3 15.3 0 0 1-6.3-9.1L20 30z" fill="#202020"/><path data-name="layer1" d="M27.2 37.9l.9.2a1.9 1.9 0 0 0 1.8-1.1c.1-.1.6-.9 2.2-.9a2.5 2.5 0 0 1 2.2.8 2 2 0 0 0 3.6-1.7A6.2 6.2 0 0 0 32 32a6.2 6.2 0 0 0-5.8 3.2 2 2 0 0 0 1 2.7z" fill="#202020"/></svg>