<svg xmlns="http://www.w3.org/2000/svg" viewBox="0 0 64 64" aria-labelledby="title" aria-describedby="desc"><circle data-name="layer2" cx="32" cy="32" r="30" fill="#93ddff"/><path data-name="opacity" d="M48.977 13.771a2 2 0 0 0-2-1.994h-.006a2 2 0 0 0-1.994 2.006l.008 2.9A22.994 22.994 0 1 0 29.865 57a2 2 0 1 0 0-4 19 19 0 1 1 12.829-33H39a2 2 0 0 0 0 4h10.006z" fill="#000064" opacity=".15"/><circle data-name="layer1" cx="32" cy="32" r="2" fill="#8491ba"/><path data-name="opacity" d="M38.3 38.472L33.369 33.9a3.456 3.456 0 0 0 .131-.9 3.494 3.494 0 0 0-1.5-2.865V18.984a2 2 0 0 0-4 0v11.151a3.495 3.495 0 0 0 2 6.365c.091 0 .176-.02.265-.027l5.312 4.93a2 2 0 0 0 2.723-2.931zM29.5 33a.469.469 0 0 1 .013-.067A1.984 1.984 0 0 0 30 33a1.99 1.99 0 0 0-.277.244c-.031.033-.052.072-.081.107A.5.5 0 0 1 29.5 33z" fill="#000064" opacity=".15"/><path data-name="stroke" fill="none" stroke="#2e4369" stroke-linecap="round" stroke-miterlimit="10" stroke-width="2" d="M48.977 11.778L49 20h-8m-9.134 33a21 21 0 1 1 16.917-33.445m-6.818 30.861a20.859 20.859 0 0 1-5.434 2.064m12.252-8.036a21.123 21.123 0 0 1-3.664 3.846m6.806-10.058a20.861 20.861 0 0 1-1.225 3.074" stroke-linejoin="round"/><circle data-name="stroke" cx="32" cy="32" r="2" fill="none" stroke="#2e4369" stroke-linecap="round" stroke-miterlimit="10" stroke-width="2" stroke-linejoin="round"/><path data-name="stroke" fill="none" stroke="#2e4369" stroke-linecap="round" stroke-miterlimit="10" stroke-width="2" d="M33.191 33.604l7.746 6.334M32 15.984V30" stroke-linejoin="round"/><circle data-name="stroke" cx="32" cy="32" r="30" fill="none" stroke="#2e4369" stroke-linecap="round" stroke-miterlimit="10" stroke-width="2" stroke-linejoin="round"/></svg>