<svg xmlns="http://www.w3.org/2000/svg" viewBox="0 0 64 64" aria-labelledby="title" aria-describedby="desc"><circle data-name="layer2" cx="32" cy="32" r="30" fill="#f3f8ff"/><path data-name="opacity" d="M32 2v4.274a29.995 29.995 0 0 1 19.119 48.845A30 30 0 0 0 32 2z" opacity=".15"/><path data-name="layer1" d="M29.187 34.627L16.464 19.313a2.011 2.011 0 0 1 2.832-2.832L34.61 29.203a3.852 3.852 0 0 1-4.923 5.925 4.043 4.043 0 0 1-.5-.5z" fill="#f66"/><path data-name="opacity" d="M31.186 33.627l-7.035-8.469-6.855-5.694a2.011 2.011 0 0 0-2.832 2.832L27.186 37.61a4.076 4.076 0 0 0 .501.5A3.836 3.836 0 0 0 33.983 35a3.815 3.815 0 0 1-2.296-.872 4.05 4.05 0 0 1-.5-.5z" opacity=".15"/><path data-name="stroke" d="M10.787 10.787A30 30 0 1 0 32 2v14" fill="none" stroke="#2e4369" stroke-linecap="round" stroke-linejoin="round" stroke-width="2"/><path data-name="stroke" d="M29.187 34.61L16.464 19.297a2.011 2.011 0 0 1 2.832-2.832L34.61 29.187a3.852 3.852 0 1 1-4.923 5.924 4.048 4.048 0 0 1-.5-.5z" fill="none" stroke="#2e4369" stroke-linecap="round" stroke-linejoin="round" stroke-width="2"/></svg>