<svg xmlns="http://www.w3.org/2000/svg" viewBox="0 0 64 64" aria-labelledby="title" aria-describedby="desc"><circle data-name="layer1" cx="32" cy="32" r="30" fill="#e1f4f3"/><path data-name="opacity" d="M32 2A29.938 29.938 0 0 0 8.881 12.881a30 30 0 0 1 42.238 42.238A30 30 0 0 0 32 2z" fill="#000064" opacity=".15"/><path data-name="opacity" d="M41 42a1.982 1.982 0 0 1-.946-.239L29 35.194V13a2 2 0 0 1 4 0v19.806l8.948 5.434A2 2 0 0 1 41 42z" fill="#000064" opacity=".15"/><circle data-name="stroke" cx="32" cy="32" r="30" fill="none" stroke="#2e4369" stroke-linecap="round" stroke-miterlimit="10" stroke-width="2" stroke-linejoin="round"/><path data-name="stroke" fill="none" stroke="#2e4369" stroke-linecap="round" stroke-miterlimit="10" stroke-width="2" d="M32 10v23l13 7" stroke-linejoin="round"/></svg>