<svg xmlns="http://www.w3.org/2000/svg" viewBox="0 0 64 64" aria-labelledby="title" aria-describedby="desc"><circle data-name="layer1" cx="31.494" cy="32" r="1.5" fill="#202020"/><path data-name="layer1" d="M32 0a32 32 0 1 0 32 32A32 32 0 0 0 32 0zm-.09 56a24 24 0 1 1 18.067-39.781l-.018-6.24a1 1 0 0 1 1-1A1.059 1.059 0 0 1 52 10v10H42a1.027 1.027 0 0 1-1.015-1.018 1 1 0 0 1 1-1h6.88A22 22 0 1 0 31.91 54a1 1 0 0 1 0 2zm3.084-24a3.458 3.458 0 0 1-.359 1.514l7.337 6.253a1.5 1.5 0 1 1-1.945 2.283l-7.785-6.635a3.491 3.491 0 0 1-2.248-6.564V15.027a1.5 1.5 0 0 1 1.5-1.5A1.482 1.482 0 0 1 33 15v14a3.276 3.276 0 0 1 1.994 3zm8.459 21.046a23.88 23.88 0 0 1-6.211 2.36 1.03 1.03 0 0 1-.223.024 1 1 0 0 1-.221-1.976 21.825 21.825 0 0 0 5.691-2.161 1 1 0 0 1 .963 1.752zm7.791-6.824a24.092 24.092 0 0 1-4.187 4.4 1 1 0 1 1-1.264-1.551 22.148 22.148 0 0 0 3.841-4.03 1 1 0 1 1 1.609 1.186zm2.186-3.585a1 1 0 0 1-.9.556.988.988 0 0 1-.443-.1 1 1 0 0 1-.451-1.34 21.883 21.883 0 0 0 1.287-3.219 1 1 0 1 1 1.91.592 23.823 23.823 0 0 1-1.403 3.511z" fill="#202020"/></svg>