<svg viewBox="0 0 64 64" xmlns="http://www.w3.org/2000/svg" aria-labelledby="title" aria-describedby="desc"><circle fill="#e1f4f3" r="30" cy="32" cx="32" data-name="layer2"/><path opacity=".15" fill="#000064" d="M32 2A29.938 29.938 0 0 0 8.881 12.881a30 30 0 0 1 42.238 42.238A30 30 0 0 0 32 2z" data-name="opacity"/><path fill="#ff5a6f" d="M45.138 45.313L36 32 32.259 9.235a.25.25 0 0 0-.5 0L28.091 31.15a3.936 3.936 0 0 0 1.427 3.968l-.018.008.17.117c.057.041.113.081.172.119l14.943 10.3a.25.25 0 0 0 .353-.349z" data-name="layer1"/><path opacity=".15" fill="#000064" d="M37.013 40.3l-7.166-4.942a4.046 4.046 0 0 1-.172-.119l-.17-.117.018-.008a3.936 3.936 0 0 1-1.427-3.968l1.82-10.86-1.657-10.051a.25.25 0 0 0-.5 0L24.091 32.15a3.936 3.936 0 0 0 1.427 3.968l-.018.008.17.117c.057.041.113.081.172.119l14.943 10.3a.25.25 0 0 0 .348-.352z" data-name="opacity"/><circle stroke-width="2" stroke-miterlimit="10" stroke-linecap="round" stroke="#2e4369" fill="none" r="30" cy="32" cx="32" data-name="stroke" stroke-linejoin="round"/><path stroke-width="2" stroke-miterlimit="10" stroke-linecap="round" stroke="#2e4369" fill="none" d="M44.79 45.666a.25.25 0 0 0 .348-.352L36 32 32.259 9.235a.25.25 0 0 0-.5 0L28.091 31.15a3.936 3.936 0 0 0 1.427 3.968z" data-name="stroke" stroke-linejoin="round"/></svg>