<svg xmlns="http://www.w3.org/2000/svg" viewBox="0 0 64 64" aria-labelledby="title" aria-describedby="desc"><circle data-name="layer1" cx="11" cy="9" r="7" fill="none" stroke="#202020" stroke-linecap="round" stroke-linejoin="round" stroke-width="2"/><path data-name="layer1" d="M11 16a9 9 0 0 0-9 9v33a4 4 0 1 0 8 0V46h2v12a4 4 0 1 0 8 0V25a9 9 0 0 0-9-9z" fill="none" stroke="#202020" stroke-linecap="round" stroke-linejoin="round" stroke-width="2"/><circle data-name="layer2" cx="49" cy="9" r="7" fill="none" stroke="#202020" stroke-linecap="round" stroke-linejoin="round" stroke-width="2"/><path data-name="layer2" d="M62 49l-4-24c-.6-4.9-4-9-9-9s-8.1 4.2-9 9l-4 24h4v9a4 4 0 0 0 8 0v-9h2v9a4 4 0 1 0 8 0v-9z" fill="none" stroke="#202020" stroke-linecap="round" stroke-linejoin="round" stroke-width="2"/><path data-name="layer1" fill="none" stroke="#202020" stroke-linecap="round" stroke-linejoin="round" stroke-width="2" d="M30 2v59.9"/></svg>