<svg xmlns="http://www.w3.org/2000/svg" viewBox="0 0 64 64" aria-labelledby="title" aria-describedby="desc"><circle data-name="layer2" cx="11" cy="9" r="7" fill="#74bee2"/><path data-name="layer2" d="M11 16a9 9 0 0 0-9 9v33a4 4 0 1 0 8 0V46h2v12a4 4 0 1 0 8 0V25a9 9 0 0 0-9-9z" fill="#74bee2"/><circle data-name="layer1" cx="49" cy="9" r="7" fill="#f27e7c"/><path data-name="layer1" d="M62 49l-4-24c-.6-4.9-4-9-9-9s-8.1 4.2-9 9l-4 24h4v9a4 4 0 0 0 8 0v-9h2v9a4 4 0 1 0 8 0v-9z" fill="#f27e7c"/><path data-name="opacity" d="M14 13A7 7 0 0 1 7.8 2.8a7 7 0 1 0 9.4 9.4 7 7 0 0 1-3.2.8zm38 0a7 7 0 0 1-6.2-10.2 7 7 0 1 0 9.4 9.4 7 7 0 0 1-3.2.8z" fill="#000064" opacity=".15"/><path data-name="opacity" d="M11 16a9 9 0 0 0-9 9v33a4 4 0 0 0 4 4h1V24a10.8 10.8 0 0 1 4-8zm32 33s2-33 6-33c-5 0-8.1 4.2-9 9l-4 24h4v5h8v-5z" fill="#000064" opacity=".15"/><circle data-name="stroke" cx="11" cy="9" r="7" fill="none" stroke="#2e4369" stroke-linecap="round" stroke-linejoin="round" stroke-width="2"/><path data-name="stroke" d="M11 16a9 9 0 0 0-9 9v33a4 4 0 1 0 8 0V46h2v12a4 4 0 1 0 8 0V25a9 9 0 0 0-9-9z" fill="none" stroke="#2e4369" stroke-linecap="round" stroke-linejoin="round" stroke-width="2"/><circle data-name="stroke" cx="49" cy="9" r="7" fill="none" stroke="#2e4369" stroke-linecap="round" stroke-linejoin="round" stroke-width="2"/><path data-name="stroke" d="M62 49l-4-24c-.6-4.9-4-9-9-9s-8.1 4.2-9 9l-4 24h4v9a4 4 0 0 0 8 0v-9h2v9a4 4 0 1 0 8 0v-9zM30 2v59.9" fill="none" stroke="#2e4369" stroke-linecap="round" stroke-linejoin="round" stroke-width="2"/></svg>