<svg xmlns="http://www.w3.org/2000/svg" viewBox="0 0 64 64" aria-labelledby="title" aria-describedby="desc"><path data-name="layer2" d="M18 25.6s9.6-.2 14-4a28.5 28.5 0 0 0 12 4s-2.7-6.5-4-8c6.8-2 8-4 8-4s-8.4-2.7-12-2c-.8-2.1-4-6-4-6s-3.3 3.9-4 6c-5.3-.8-12 2-12 2s4.7 3.6 8 4a40.2 40.2 0 0 0-6 8z" fill="#202020"/><path data-name="layer1" d="M51.9 14.3a4 4 0 0 1-.4 1.3c-.5 1-2 2.6-5.7 4.2.8 1.7 1.5 3.3 1.9 4.3a4 4 0 0 1-3.7 5.5h-.3a33.8 33.8 0 0 1-11.6-3.3c-5.5 3-13.1 3.3-14.1 3.3a4 4 0 0 1-3.5-5.9 41 41 0 0 1 2.9-4.4 33.9 33.9 0 0 1-3.8-2.5 4 4 0 0 1-1.6-2.6C6.8 16.7 2 22.5 2 35.6c0 20 19 25 30 22 11 3.1 30-2 30-22 0-13.2-4.8-18.9-10.1-21.3z" fill="#202020"/></svg>