<svg xmlns="http://www.w3.org/2000/svg" viewBox="0 0 64 64" aria-labelledby="title" aria-describedby="desc"><path data-name="layer1" d="M58.206 7.046c-6.651-8.521-16.792-8.553-25.154-4.087a4.286 4.286 0 0 1-4.409-.18C25.453.663 22.126-.836 16.187.561 3.721 3.493 2 13.083 2 24a113.094 113.094 0 0 0 3.466 24.984C7.848 58.712 12.777 64 17 64s4.351-4.745 4.351-8.528c0-4.268 1.064-16 10.641-16 7.364 0 9.577 9.6 9.577 16C41.568 61.587 43.885 64 48 64c7.906 0 11.917-22.947 13-29s4.462-18.659-2.794-27.954z" fill="#202020"/></svg>