<svg xmlns="http://www.w3.org/2000/svg" viewBox="0 0 64 64" aria-labelledby="title" aria-describedby="desc"><path data-name="layer5" fill="#7b8baf" d="M16 2h32v60H16z"/><circle data-name="layer4" cx="32" cy="14" r="6" fill="#ed4c49"/><circle data-name="layer3" cx="32" cy="32" r="6" fill="#fc0"/><circle data-name="layer2" cx="32" cy="50" r="6" fill="#44d88d"/><path data-name="opacity" d="M29.3 23.5a6 6 0 0 0 5.5-3.6 6 6 0 0 1-8-7.9 6 6 0 0 0 2.4 11.5zm-3 8.9a6 6 0 0 1 .5-2.4 6 6 0 1 0 7.9 7.9 6 6 0 0 1-8.4-5.5zm0 18a6 6 0 0 1 .5-2.4 6 6 0 1 0 7.9 7.9 6 6 0 0 1-8.4-5.5z" fill="#000064" opacity=".15"/><path data-name="layer1" fill="#a3b8df" d="M16 18h-6L6 8h10v10zm0 18h-6L6 26h10v10zm0 18h-6L6 44h10v10zM48 8h10l-4 10h-6V8zm0 18h10l-4 10h-6V26zm0 28h6l4-10H48v10z"/><path data-name="opacity" d="M35 16a6 6 0 0 1-1.3 3.8 6 6 0 1 0-6.3-9.5L29 10a6 6 0 0 1 6 6zm-3 10a6 6 0 0 0-4.7 2.2L29 28a6 6 0 0 1 4.7 9.8A6 6 0 0 0 32 26zm0 18a6 6 0 0 0-4.7 2.2L29 46a6 6 0 0 1 4.7 9.8A6 6 0 0 0 32 44z" fill="#fff" opacity=".25"/><path data-name="opacity" fill="#000064" opacity=".15" d="M11 8h5v10h-5zm0 18h5v10h-5zm0 18h5v10h-5z"/><path data-name="stroke" fill="none" stroke="#2e4369" stroke-linecap="round" stroke-linejoin="round" stroke-width="2" d="M16 2h32v60H16z"/><circle data-name="stroke" cx="32" cy="14" r="6" fill="none" stroke="#2e4369" stroke-linecap="round" stroke-linejoin="round" stroke-width="2"/><circle data-name="stroke" cx="32" cy="32" r="6" fill="none" stroke="#2e4369" stroke-linecap="round" stroke-linejoin="round" stroke-width="2"/><circle data-name="stroke" cx="32" cy="50" r="6" fill="none" stroke="#2e4369" stroke-linecap="round" stroke-linejoin="round" stroke-width="2"/><path data-name="stroke" fill="none" stroke="#2e4369" stroke-linecap="round" stroke-linejoin="round" stroke-width="2" d="M16 18h-6L6 8h10m0 28h-6L6 26h10m0 28h-6L6 44h10m32-26h6l4-10H48m0 28h6l4-10H48m0 28h6l4-10H48"/></svg>