<svg xmlns="http://www.w3.org/2000/svg" viewBox="0 0 64 64" aria-labelledby="title" aria-describedby="desc"><path data-name="layer2" d="M30 44h28a2 2 0 0 0 2-2v-8H30z" fill="#dde5f4"/><path data-name="layer1" d="M36 16h-6v18h30L50 16z" fill="#c3d6e0"/><path data-name="layer2" d="M4 42a2 2 0 0 0 2 2h12V34H4z" fill="#dde5f4"/><path data-name="layer1" d="M6 16a2 2 0 0 0-2 2v16h14V16zm12 0h12v28H18z" fill="#c3d6e0"/><path data-name="opacity" fill="#fff" opacity=".5" d="M46.5 34H55l3.2-3.2-3-5.5-8.7 8.7zM50 16h-2.7L30 33.3v.7h7.5L52 19.5zM24 40h6v-6.7L23.3 40h.7zm6-24L18 28v12h.2L30 28.2V16z"/><path data-name="opacity" d="M18 40h-6a2 2 0 0 1-2-2V16H6a2 2 0 0 0-2 2v24a2 2 0 0 0 2 2h12zm18 0h-6v4h28a2 2 0 0 0 2-2v-2z" fill="#000064" opacity=".1"/><path data-name="stroke" d="M60 34L50 16H6a2 2 0 0 0-2 2v24a2 2 0 0 0 2 2h52a2 2 0 0 0 2-2v-8zM2 52h60M4 34h14m12 0h30M30 16.7V44M18 16v28m26-28v18" fill="none" stroke="#2e4369" stroke-linecap="round" stroke-linejoin="round" stroke-width="2"/></svg>