<svg xmlns="http://www.w3.org/2000/svg" viewBox="0 0 64 64" aria-labelledby="title" aria-describedby="desc"><path data-name="layer4" d="M51.5 23.2L39.1 10.9A3.8 3.8 0 0 0 37 10H5a3 3 0 0 0-3 3v34a3 3 0 0 0 3 3h8a5 5 0 0 1 8 0h30a3 3 0 0 0 3-3V28c0-2.7-1.2-3.5-2.5-4.8z" fill="#c3d6f9"/><path data-name="layer3" fill="#8fa9d8" d="M32 24h12v26H32z"/><circle data-name="layer2" cx="17" cy="53" r="5" fill="#7b8baf"/><rect data-name="layer1" x="10" y="24" width="16" height="12" rx="3" ry="3" fill="#a0d6ef"/><path data-name="opacity" d="M23 24h-1.6L10.6 34.8A3 3 0 0 0 13 36h3.4l9.6-9.6a3 3 0 0 0-3-2.4z" fill="#fff" opacity=".5"/><path data-name="opacity" d="M32 47H11a3 3 0 0 1-3-3V10H5a3 3 0 0 0-3 3v34a3 3 0 0 0 3 3h8a5 5 0 0 1 8 0h11zm12 0v3h7a3 3 0 0 0 3-3z" fill="#000064" opacity=".15"/><path data-name="opacity" d="M51.5 23.2L39.1 10.9A3.8 3.8 0 0 0 37 10h-3.8L54 30.8V28c0-2.7-1.2-3.5-2.5-4.8z" fill="#fff" opacity=".25"/><path data-name="opacity" fill="#000064" opacity=".15" d="M34 26v3h5v19h3V26h-8z"/><circle data-name="opacity" cx="17" cy="53" r="2" fill="#000064" opacity=".2"/><rect data-name="stroke" x="10" y="24" width="16" height="12" rx="3" ry="3" fill="none" stroke="#2e4369" stroke-linecap="round" stroke-linejoin="round" stroke-width="2"/><path data-name="stroke" d="M13 50H5a3 3 0 0 1-3-3V13a3 3 0 0 1 3-3h32a3.8 3.8 0 0 1 2.1.9l12.4 12.3c1.2 1.3 2.5 2.1 2.5 4.8v19a3 3 0 0 1-3 3H21" fill="none" stroke="#2e4369" stroke-linecap="round" stroke-linejoin="round" stroke-width="2"/><path data-name="stroke" fill="none" stroke="#2e4369" stroke-linecap="round" stroke-linejoin="round" stroke-width="2" d="M32 50V24h12v26m7 0h11v-6"/><circle data-name="stroke" cx="17" cy="53" r="5" fill="none" stroke="#2e4369" stroke-linecap="round" stroke-linejoin="round" stroke-width="2"/></svg>