<svg xmlns="http://www.w3.org/2000/svg" viewBox="0 0 64 64" aria-labelledby="title" aria-describedby="desc"><circle data-name="layer3" cx="6" cy="58" r="2" fill="#7b8baf"/><circle data-name="layer3" cx="16" cy="58" r="2" fill="#7b8baf"/><circle data-name="layer3" cx="48" cy="58" r="2" fill="#7b8baf"/><circle data-name="layer3" cx="58" cy="58" r="2" fill="#7b8baf"/><path data-name="layer1" fill="#ed4c49" d="M22 20h20v33.99H22z"/><path data-name="layer2" fill="#c3d6e0" d="M4 20h18v17.99H4z"/><path data-name="layer1" fill="#ed4c49" d="M4 38h18v16H4z"/><path data-name="layer2" fill="#c3d6e0" d="M42 20h18v17.99H42z"/><path data-name="layer1" fill="#ed4c49" d="M42 38h18v16H42z"/><path data-name="opacity" fill="#fff" opacity=".5" d="M10.7 38H14l8-8v-3.3L10.7 38zm.8-18L4 27.5v10.3L21.8 20H11.5zM60 24.3L46.2 38h7.6l6.2-6.2v-7.5zM53 20L42 31v6l17-17h-6z"/><g data-name="opacity" opacity=".15" fill="#000064"><path d="M60 23v-3H4v3h25v31h3V23h7v31h21v-3H42V23h18z"/><path d="M19 51H9V38H4v16h18V38h-3v13z"/></g><path data-name="stroke" fill="none" stroke="#2e4369" stroke-linecap="round" stroke-linejoin="round" stroke-width="2" d="M26.087 13.972l6.01-6.01 6.004 6.003-6.01 6.01zM16 6h32M2 54h60M2 20h60"/><circle data-name="stroke" cx="6" cy="58" r="2" fill="none" stroke="#2e4369" stroke-linecap="round" stroke-linejoin="round" stroke-width="2"/><circle data-name="stroke" cx="16" cy="58" r="2" fill="none" stroke="#2e4369" stroke-linecap="round" stroke-linejoin="round" stroke-width="2"/><circle data-name="stroke" cx="48" cy="58" r="2" fill="none" stroke="#2e4369" stroke-linecap="round" stroke-linejoin="round" stroke-width="2"/><circle data-name="stroke" cx="58" cy="58" r="2" fill="none" stroke="#2e4369" stroke-linecap="round" stroke-linejoin="round" stroke-width="2"/><path data-name="stroke" fill="none" stroke="#2e4369" stroke-linecap="round" stroke-linejoin="round" stroke-width="2" d="M4 20.2V54m28-34v34M22 20v34m20-34v34m18-33.8V54M4 38h18m20 0h18"/></svg>