<svg xmlns="http://www.w3.org/2000/svg" viewBox="0 0 64 64" aria-labelledby="title" aria-describedby="desc"><path data-name="layer1" d="M52.5 10l-3 47.1a5 5 0 0 1-4.8 4.9H19.3a5 5 0 0 1-4.9-4.9L11.5 10z" fill="#c3d6f9"/><path data-name="opacity" d="M52.5 10h-41l2.9 47.1a5 5 0 0 0 4.9 4.9h5.1l-2.6-48h30.4z" fill="#000028" opacity=".15"/><path data-name="stroke" fill="none" stroke="#2e4369" stroke-linecap="round" stroke-linejoin="round" stroke-width="2" d="M6 10h52m-36 0V5.9A3.9 3.9 0 0 1 25.9 2h12.2A3.9 3.9 0 0 1 42 5.9V10m10.5 0l-2.9 47.1a5 5 0 0 1-4.9 4.9H19.3a5 5 0 0 1-4.9-4.9L11.5 10M32 18v36M22 18l2 36m18-36l-2 36"/></svg>