<svg xmlns="http://www.w3.org/2000/svg" viewBox="0 0 64 64" aria-labelledby="title" aria-describedby="desc"><circle data-name="layer2" cx="32" cy="9.9" r="8" fill="#f26161"/><path data-name="opacity" d="M35 15.9a8 8 0 0 1-5.8-13.5 8 8 0 1 0 8.6 13 8 8 0 0 1-2.8.5z" fill="#000032" opacity=".2"/><path data-name="layer1" fill="#c3d6f9" d="M44 27.9l18 6v28l-18-6L20 62 2 55.9v-28l18 6 24-6z"/><path data-name="opacity" fill="#000032" opacity=".2" d="M32 30.9l-12 3 12 12v-15zm-30-3v28L20 62V33.9l-18-6zm42 0v28l18 6v-28l-18-6z"/><circle data-name="stroke" cx="32" cy="10" r="8" fill="none" stroke="#2e4369" stroke-linecap="round" stroke-linejoin="round" stroke-width="2"/><path data-name="stroke" fill="none" stroke="#2e4369" stroke-linecap="round" stroke-linejoin="round" stroke-width="2" d="M32 18v28m0-15l-12 3-18-6v28l18 6.1L44 56l18 6V34l-18-6-4 1m-20 5v28.1M44 28v28"/></svg>