<svg xmlns="http://www.w3.org/2000/svg" viewBox="0 0 64 64" aria-labelledby="title" aria-describedby="desc"><path data-name="layer3" d="M55 3.9a8 8 0 0 0-7.7 10.2h7.2a20.7 20.7 0 0 1-2 5.4A8 8 0 1 0 55 3.9z" fill="#ffc943"/><path data-name="layer2" d="M52.5 19.5a20.7 20.7 0 0 0 2-5.4h-43a20.7 20.7 0 0 0 2.3 5.8h38.5z" fill="#d5e2f4"/><path data-name="layer1" d="M33 32.1c7.2 0 15.2-5 19.3-12.2H13.8C17.9 27.1 26 32.1 33 32.1z" fill="#f16262"/><path data-name="opacity" d="M18.5 14.1h-7a20.7 20.7 0 0 0 2.3 5.8h6.9a22.4 22.4 0 0 1-2.2-5.8zm2.3 6.1l-.2-.3h-6.8C17.9 27.1 26 32.1 33 32.1h1.3c-6.2 0-10.5-6.3-13.5-11.9z" fill="#101129" opacity=".18"/><path data-name="opacity" d="M47.5 19.9h.1a22.6 22.6 0 0 0 2-5.7h-6.9a33.2 33.2 0 0 1-1.5 5.8z" fill="#fff" opacity=".5"/><path data-name="opacity" d="M40.7 21.3l-.2.5a32.3 32.3 0 0 1-5.4 8.6 11.9 11.9 0 0 0 5.3-2 26 26 0 0 0 7-8.2l.2-.3h-6.4z" fill="#fff" opacity=".5"/><path data-name="stroke" d="M1 4.1h8c5.2 0 9 3.6 10 10m14 18v28m-10 0h20m4.3-46a8 8 0 1 1 5.2 5.4" fill="none" stroke="#2f446a" stroke-linecap="round" stroke-linejoin="round" stroke-width="2"/><path data-name="stroke" d="M52.3 19.9a20.8 20.8 0 0 0 2.3-5.8H11.5a20.7 20.7 0 0 0 2.3 5.8m0 0C17.9 27.1 26 32.1 33 32.1s15.2-5 19.3-12.2z" fill="none" stroke="#2f446a" stroke-linecap="round" stroke-linejoin="round" stroke-width="2"/></svg>