<svg xmlns="http://www.w3.org/2000/svg" viewBox="0 0 64 64" aria-labelledby="title" aria-describedby="desc"><path data-name="layer4" d="M59.2 31h-3.9l-4.4-8H39v8h20.2z" fill="#c3d6e0"/><path data-name="layer2" d="M61 32.4c0-1.1-.9-1.3-1.7-1.4H39v12h5.5a6 6 0 0 1 8.9 0H61z" fill="#7b8baf"/><path data-name="layer3" d="M39 15H3v28h5.5a6 6 0 0 1 8.9 0H39V15z" fill="#f27e7c"/><circle data-name="layer2" cx="13" cy="47" r="6" fill="#7b8baf"/><circle data-name="layer2" cx="49" cy="47" r="6" fill="#7b8baf"/><path data-name="layer1" d="M44.5 43h-27a6 6 0 0 1 1.2 6h24.6a6 6 0 0 1 1.2-6zm9 0a6 6 0 0 1 1.2 6H61v-6z" fill="#8fa9d8"/><path data-name="opacity" fill="#fff" opacity=".5" d="M51.8 24.6l-.9-1.6h-3.3l-8 8h5.7l6.5-6.4z"/><path data-name="opacity" d="M8 15H3v28h5.5a6 6 0 0 1 8.9 0H39v-4H8zm10.6 34h24.7a5.7 5.7 0 0 1-.3-3H18.9a5.7 5.7 0 0 1-.3 3zm36 0H61v-3h-6.1a5.7 5.7 0 0 1-.3 3z" fill="#000064" opacity=".15"/><circle data-name="opacity" cx="13" cy="47" r="3" fill="#000064" opacity=".2"/><circle data-name="opacity" cx="49" cy="47" r="3" fill="#000064" opacity=".2"/><path data-name="stroke" fill="none" stroke="#2e4369" stroke-linecap="round" stroke-linejoin="round" stroke-width="2" d="M43.3 49H18.7M61 49h-6.3m-10.2-6H39m0-20h11.9l4.4 8h3.9c.8 0 1.8.2 1.8 1.4V43h-7.5m1.8-12H39M8.5 43H3V15h36v28H17.5"/><circle data-name="stroke" cx="13" cy="47" r="6" fill="none" stroke="#2e4369" stroke-linecap="round" stroke-linejoin="round" stroke-width="2"/><circle data-name="stroke" cx="49" cy="47" r="6" fill="none" stroke="#2e4369" stroke-linecap="round" stroke-linejoin="round" stroke-width="2"/></svg>