<svg xmlns="http://www.w3.org/2000/svg" viewBox="0 0 64 64" aria-labelledby="title" aria-describedby="desc"><rect data-name="layer4" x="2" y="22" width="60" height="40" rx="2" ry="2" fill="#7b8baf"/><path data-name="opacity" d="M60 59H4a2 2 0 0 1-2-2v3a2 2 0 0 0 2 2h56a2 2 0 0 0 2-2v-3a2 2 0 0 1-2 2z" fill="#000064" opacity=".16"/><circle data-name="layer2" cx="54" cy="38" r="1" fill="#8fa9d8"/><circle data-name="layer2" cx="54" cy="45" r="1" fill="#8fa9d8"/><circle data-name="layer2" cx="54" cy="30" r="2" fill="#8fa9d8"/><rect data-name="layer3" x="6" y="26" width="40" height="29" rx="3" ry="3" fill="#d1ebf7"/><path data-name="layer2" d="M43.3 22a12 12 0 0 0-22.6 0z" fill="#8fa9d8"/><path data-name="opacity" d="M32 14l-2.5.3a12 12 0 0 1 8.8 7.7h5A12 12 0 0 0 32 14z" fill="#fff" opacity=".2"/><path data-name="layer1" fill="#fff" d="M46 41v-7l-8-8h-7l15 15zm0 11v-6.3C39.1 38.8 29.5 29.9 25.2 26H11l29 29h3a3 3 0 0 0 3-3z"/><path data-name="stroke" d="M20.7 22a12 12 0 0 1 22.6 0" fill="none" stroke="#2e4369" stroke-linecap="round" stroke-miterlimit="10" stroke-width="2" stroke-linejoin="round"/><rect data-name="stroke" x="2" y="22" width="60" height="40" rx="2" ry="2" fill="none" stroke="#2e4369" stroke-linecap="round" stroke-miterlimit="10" stroke-width="2" stroke-linejoin="round"/><path data-name="stroke" fill="none" stroke="#2e4369" stroke-linecap="round" stroke-miterlimit="10" stroke-width="2" d="M25.8 15.8L12.1 2.1m26.1 13.7L51.9 2.1" stroke-linejoin="round"/><circle data-name="stroke" cx="54" cy="38" r="1" fill="none" stroke="#2e4369" stroke-linecap="round" stroke-miterlimit="10" stroke-width="2" stroke-linejoin="round"/><circle data-name="stroke" cx="54" cy="45" r="1" fill="none" stroke="#2e4369" stroke-linecap="round" stroke-miterlimit="10" stroke-width="2" stroke-linejoin="round"/><circle data-name="stroke" cx="54" cy="30" r="2" fill="none" stroke="#2e4369" stroke-linecap="round" stroke-miterlimit="10" stroke-width="2" stroke-linejoin="round"/><rect data-name="stroke" x="6" y="26" width="40" height="29" rx="3" ry="3" fill="none" stroke="#2e4369" stroke-linecap="round" stroke-miterlimit="10" stroke-width="2" stroke-linejoin="round"/></svg>