<svg xmlns="http://www.w3.org/2000/svg" viewBox="0 0 64 64" aria-labelledby="title" aria-describedby="desc"><path data-name="layer1" d="M6.3 26.06a5.9 5.9 0 1 0 0 11.791 5.845 5.845 0 0 0 5.9-5.9 5.909 5.909 0 0 0-5.9-5.891z" fill="#ea4733"/><path data-name="layer2" d="M48.5 52.939a5.932 5.932 0 1 0 8.1 2.2 5.834 5.834 0 0 0-8.1-2.2zM19.1 31.955a17.265 17.265 0 0 1 7.3-14.089l-4.3-7.195A25.6 25.6 0 0 0 11.5 25.56a8.146 8.146 0 0 1 0 12.79 25.3 25.3 0 0 0 10.6 14.889l4.3-7.195a17.265 17.265 0 0 1-7.3-14.089z" fill="#f08a33"/><path data-name="layer1" d="M36.4 14.668a17.28 17.28 0 0 1 17.2 15.689l8.4-.1a25.957 25.957 0 0 0-7.6-16.687 8.51 8.51 0 0 1-7.1-.6 8.136 8.136 0 0 1-4-5.9 26.128 26.128 0 0 0-6.9-.9A25.547 25.547 0 0 0 25 8.873l4.1 7.394a17.728 17.728 0 0 1 7.3-1.599zm0 34.574a17.728 17.728 0 0 1-7.3-1.6L25 54.938a25.547 25.547 0 0 0 11.4 2.7 26.128 26.128 0 0 0 6.9-.9 8.272 8.272 0 0 1 11.1-6.5A25.256 25.256 0 0 0 62 33.554l-8.4-.1a17.289 17.289 0 0 1-17.2 15.788z" fill="#ea4733"/><path data-name="layer1" d="M48.5 10.971a5.941 5.941 0 0 0 8.1-2.2A5.88 5.88 0 0 0 54.4.779a5.941 5.941 0 0 0-8.1 2.2 5.88 5.88 0 0 0 2.2 7.992z" fill="#ea4733"/></svg>