<svg xmlns="http://www.w3.org/2000/svg" viewBox="0 0 64 64" aria-labelledby="title" aria-describedby="desc"><path data-name="layer2" d="M34 4.1V3a2 2 0 0 0-4 0v1.1A31 31 0 0 0 1 35v.4h.1l.2.2H2a1 1 0 0 0 .8-.4 8 8 0 0 1 13.3 0l.3.3a1 1 0 0 0 1.4-.3 8 8 0 0 1 13.3 0h.1l.2.2h.1l.5.2.5-.2.3-.4A8 8 0 0 1 46 35l.3.3.6.2a1 1 0 0 0 .8-.4 8 8 0 0 1 13.3 0h.3l.5.2a1 1 0 0 0 1-1A31 31 0 0 0 34 4.1z" fill="#202020"/><path data-name="layer1" d="M40 55a2 2 0 0 0-2 2 2 2 0 0 1-4 0V39.6a4.9 4.9 0 0 1-4 0V57a6 6 0 0 0 12 0 2 2 0 0 0-2-2z" fill="#202020"/></svg>