<svg xmlns="http://www.w3.org/2000/svg" viewBox="0 0 64 64" aria-labelledby="title" aria-describedby="desc"><path data-name="layer2" fill="none" stroke="#202020" stroke-miterlimit="10" stroke-width="2" d="M32 6V2m8 56a4 4 0 0 1-4 4 4 4 0 0 1-4-4V36" stroke-linejoin="round" stroke-linecap="round"/><path data-name="layer1" d="M2 36a30 30 0 1 1 60 0M2 36a9 9 0 0 1 15 0m0 0a9 9 0 0 1 15 0m0 0a9 9 0 0 1 15 0m0 0a9 9 0 0 1 15 0" fill="none" stroke="#202020" stroke-miterlimit="10" stroke-width="2" stroke-linejoin="round" stroke-linecap="round"/></svg>