<svg xmlns="http://www.w3.org/2000/svg" viewBox="0 0 64 64" aria-labelledby="title" aria-describedby="desc"><circle data-name="layer1" cx="32" cy="32" r="30" fill="#99dbff"/><path data-name="opacity" d="M29 6a30 30 0 0 1 25.4 45.9A30 30 0 1 0 6.6 16.1 29.9 29.9 0 0 1 29 6z" fill="#fff" opacity=".25"/><path data-name="opacity" d="M37 58A30 30 0 0 1 15.9 6.7a30 30 0 1 0 37.2 46.6A29.8 29.8 0 0 1 37 58z" fill="#000064" opacity=".15"/><path data-name="stroke" d="M14.4 34.3a17.3 17.3 0 1 1 29.5 10.3M9 27l5.3 8 7.4-6.7" fill="none" stroke="#2e4369" stroke-linecap="round" stroke-miterlimit="10" stroke-width="2" stroke-linejoin="round"/><circle data-name="stroke" cx="32" cy="32" r="30" fill="none" stroke="#2e4369" stroke-linecap="round" stroke-miterlimit="10" stroke-width="2" stroke-linejoin="round"/><circle data-name="stroke" cx="32" cy="32" r="30" fill="none" stroke="#2e4369" stroke-linecap="round" stroke-miterlimit="10" stroke-width="2" stroke-linejoin="round"/></svg>