<svg viewBox="0 0 64 64" xmlns="http://www.w3.org/2000/svg" aria-labelledby="title" aria-describedby="desc"><path fill="#bacae9" d="M44 12H6v6h38a12.013 12.013 0 0 1 12 12c0 6.617-5.382 11-12 11H14.638L22 34.205l-4.07-4.41L2 44l16 14 4-4.205L14.638 47H44c9.926 0 18-7.075 18-17a18.02 18.02 0 0 0-18-18z" data-name="layer1"/><path stroke-width="2" stroke-linejoin="round" stroke-linecap="round" stroke="#2e4369" fill="none" d="M44 12H6v6h38a12.013 12.013 0 0 1 12 12c0 6.617-5.382 11-12 11H14.638L22 34.205l-4.07-4.41L2 44l16 14 4-4.205L14.638 47H44c9.926 0 18-7.075 18-17a18.02 18.02 0 0 0-18-18z" data-name="stroke"/></svg>