<svg xmlns="http://www.w3.org/2000/svg" viewBox="0 0 64 64" aria-labelledby="title" aria-describedby="desc"><path data-name="layer1" d="M13 35a3 3 0 0 0 0 6h4.995L2.88 56.874a3.001 3.001 0 1 0 4.243 4.247l14.876-15.617.002 5.498A3 3 0 0 0 25 54h.001A3.003 3.003 0 0 0 28 50.994L27.993 35zm41-11a3 3 0 0 0-3-3h-5.28l15.4-13.879a2.999 2.999 0 0 0-4.24-4.242L42 16.292V12a3 3 0 1 0-6 0v15h15a3 3 0 0 0 3-3zM25 8a3 3 0 0 0-3 3v6.006L7.121 2.878A3.002 3.002 0 0 0 2.88 7.126L17.485 21H13a3 3 0 0 0 0 6h15V11a3 3 0 0 0-3-3zm21 33h5a3 3 0 0 0 0-6H36v16a3 3 0 0 0 6 0v-5.498l14.878 15.62a3 3 0 0 0 4.243-4.245z" fill="#bacae9"/><path data-name="stroke" d="M13 35a3 3 0 0 0 0 6h4.995L2.88 56.874a3.001 3.001 0 1 0 4.243 4.247l14.876-15.617.002 5.498A3 3 0 0 0 25 54h.001A3.003 3.003 0 0 0 28 50.994L27.993 35zm41-11a3 3 0 0 0-3-3h-5.28l15.4-13.879a2.999 2.999 0 0 0-4.24-4.242L42 16.292V12a3 3 0 1 0-6 0v15h15a3 3 0 0 0 3-3zM25 8a3 3 0 0 0-3 3v6.006L7.121 2.878A3.002 3.002 0 0 0 2.88 7.126L17.485 21H13a3 3 0 0 0 0 6h15V11a3 3 0 0 0-3-3zm21 33h5a3 3 0 0 0 0-6H36v16a3 3 0 0 0 6 0v-5.498l14.878 15.62a3 3 0 0 0 4.243-4.245z" fill="none" stroke="#2e4369" stroke-linecap="round" stroke-linejoin="round" stroke-width="2"/></svg>