<svg xmlns="http://www.w3.org/2000/svg" viewBox="0 0 64 64" aria-labelledby="title" aria-describedby="desc"><path data-name="layer1" d="M31.933 49.458l17.255-18.406a3 3 0 0 0-4.377-4.104L35 37.414V5a3 3 0 0 0-6 0v32.065l-9.75-11.05a3 3 0 1 0-4.5 3.97z" fill="#bacae9"/><path data-name="layer1" d="M55 40a3 3 0 0 0-3 3v13H12V43a3 3 0 0 0-6 0v16a3 3 0 0 0 3 3h46a3 3 0 0 0 3-3V43a3 3 0 0 0-3-3z" fill="#bacae9"/><path data-name="stroke" d="M31.933 49.458l17.255-18.406a3 3 0 0 0-4.377-4.104L35 37.414V5a3 3 0 0 0-6 0v32.065l-9.75-11.05a3 3 0 1 0-4.5 3.97z" fill="none" stroke="#2e4369" stroke-linecap="round" stroke-linejoin="round" stroke-width="2"/><path data-name="stroke" d="M55 40a3 3 0 0 0-3 3v13H12V43a3 3 0 0 0-6 0v16a3 3 0 0 0 3 3h46a3 3 0 0 0 3-3V43a3 3 0 0 0-3-3z" fill="none" stroke="#2e4369" stroke-linecap="round" stroke-linejoin="round" stroke-width="2"/></svg>