<svg xmlns="http://www.w3.org/2000/svg" viewBox="0 0 64 64" aria-labelledby="title" aria-describedby="desc"><path data-name="layer2" d="M31.512 43.227L19.896 54.844a7.595 7.595 0 0 1-10.74-10.74l13.866-13.866a7.594 7.594 0 0 1 12.955 5.726 7.555 7.555 0 0 0 4.83-2.049 12.431 12.431 0 0 0-21.11-7.187L5.64 40.787A12.427 12.427 0 0 0 23.213 58.36l14.06-14.059c.198-.197.374-.409.556-.616a12.46 12.46 0 0 1-6.317-.459z" fill="#202020"/><path data-name="layer1" d="M58.36 5.641a12.424 12.424 0 0 0-17.573-.001L26.728 19.698a12.381 12.381 0 0 0-2.784 4.246l-.001.008a12.454 12.454 0 0 1 6.127-.75l.006-.012c.053-.058.108-.116.165-.172L44.107 9.153a7.594 7.594 0 0 1 10.74 10.74L40.98 33.757c-.056.056-.116.103-.173.157a7.573 7.573 0 0 1-12.385-3.099 8.205 8.205 0 0 0-4.453 2.264 12.426 12.426 0 0 0 20.332 4.192L58.36 23.213a12.424 12.424 0 0 0 0-17.572z" fill="#202020"/></svg>