<svg xmlns="http://www.w3.org/2000/svg" viewBox="0 0 64 64" aria-labelledby="title" aria-describedby="desc"><path data-name="layer2" d="M40.8 33.9a12.4 12.4 0 0 0-21.1-7.2L5.6 40.8a12.4 12.4 0 0 0 17.6 17.6l14.1-14.1a12.4 12.4 0 0 0 2.8-4.2m-6.1.8l-.2.2-13.9 13.7A7.6 7.6 0 0 1 9.2 44.1L23 30.2A7.6 7.6 0 0 1 36 36" fill="none" stroke="#202020" stroke-miterlimit="10" stroke-width="2" stroke-linejoin="round" stroke-linecap="round"/><path data-name="layer1" d="M23.2 30.1a12.4 12.4 0 0 0 21.1 7.2l14.1-14.1A12.4 12.4 0 0 0 40.8 5.6L26.7 19.7a12.4 12.4 0 0 0-2.8 4.2m6.1-.8l.2-.2L44.1 9.2a7.6 7.6 0 0 1 10.7 10.7L41 33.8A7.6 7.6 0 0 1 28 28" fill="none" stroke="#202020" stroke-miterlimit="10" stroke-width="2" stroke-linejoin="round" stroke-linecap="round"/></svg>