<svg xmlns="http://www.w3.org/2000/svg" viewBox="0 0 64 64" aria-labelledby="title" aria-describedby="desc"><path data-name="layer1" d="M48.981 16h-10v10h3v4.485a1.984 1.984 0 0 1-1.283 1.902c-1.207.644-4.35 2.216-6.717 3.39V7.83l3.106 3.105a2 2 0 1 0 2.828-2.828L31.981.171l-7.933 7.935a2 2 0 1 0 2.828 2.828l3.105-3.105v31.948c-2.365-1.174-5.51-2.746-6.716-3.39a1.985 1.985 0 0 1-1.284-1.902v-4.889a5.009 5.009 0 1 0-4-.04v4.929a5.993 5.993 0 0 0 3.4 5.431c1.62.865 6.41 3.242 8.6 4.326v6.053a7 7 0 1 0 4 0V40.242c2.192-1.084 6.98-3.461 8.6-4.326a5.993 5.993 0 0 0 3.4-5.431V26h3z" fill="#202020"/></svg>