<svg xmlns="http://www.w3.org/2000/svg" viewBox="0 0 64 64" aria-labelledby="title" aria-describedby="desc"><path data-name="layer2" d="M51 27.9a11.1 11.1 0 0 0-11 11.3 11.7 11.7 0 0 0 .1 1.4c1 9.2 10.9 21.3 10.9 21.3s9.9-12.1 10.9-21.4a11.7 11.7 0 0 0 .1-1.4 11.1 11.1 0 0 0-11-11.2zm0 14.2a3 3 0 1 1 3-3 3 3 0 0 1-3 3.1z" fill="#202020"/><path data-name="layer1" d="M36.1 41v-.8c-3.8-1.5-3.6-3.6-3.6-4.6V34a14.5 14.5 0 0 0 4.2-7c2.5 0 3-5.1 3-5.8s.1-3.8-2.4-3.8C42.6 4.5 28.4-2.3 17.8 5.1c-4.4 0-4.7 5.9-3.1 12.3-2.5 0-2.4 3-2.4 3.8s.6 5.8 3 5.8a14.6 14.6 0 0 0 4.2 7v1.6c0 1.6 0 4-8.1 5.6S2 50 2 50h36.8a30.3 30.3 0 0 1-2.7-9z" fill="#202020"/></svg>