<svg xmlns="http://www.w3.org/2000/svg" viewBox="0 0 64 64" aria-labelledby="title" aria-describedby="desc"><path data-name="layer1" d="M37.5 22c0 13.7 2.7 14.7 6 18a61.6 61.6 0 0 1-12 2v2c0 1.6 1.1 3.7 9 6s7 8 7 8h-44s0-6 7-8 9-4.4 9-6v-2a61.4 61.4 0 0 1-12-2c3.3-3.3 6-4.3 6-18 0-6 3.7-12 10-12s14 .4 14 12z" fill="#44d88d"/><path data-name="opacity" d="M17.5 50c4-2 11-3 12-8-3 1-13 0-13-13 0-6 7-5 10-14-2 4-8 5-10 5 0-3 3-9 7-10-6.3 0-10 6-10 12 0 13.7-2.7 14.7-6 18a61.4 61.4 0 0 0 12 2v2c0 1.6-1.1 3.7-9 6s-7 8-7 8h7c0-4 3-6 7-8z" fill="#000064" opacity=".15"/><path data-name="stroke" fill="none" stroke="#2e4369" stroke-linecap="round" stroke-linejoin="round" stroke-width="2" d="M60.5 6l-8 9-5-5m-10 12c0 13.7 2.7 14.7 6 18a61.6 61.6 0 0 1-12 2v2c0 1.6 1.1 3.7 9 6s7 8 7 8h-44s0-6 7-8 9-4.4 9-6v-2a61.4 61.4 0 0 1-12-2c3.3-3.3 6-4.3 6-18 0-6 3.7-12 10-12s14 .4 14 12z"/></svg>