<svg xmlns="http://www.w3.org/2000/svg" viewBox="0 0 64 64" aria-labelledby="title" aria-describedby="desc"><path data-name="layer1" d="M46 26c0 6.1-3.4 11.5-7 14.8V44c0 2 1 5.1 11 7a15.5 15.5 0 0 1 12 11H2a13.4 13.4 0 0 1 11-11c10-1.8 12-5 12-7v-3.2c-3.6-3.3-7-8.6-7-14.8v-9.6C18 6 25.4 2 32 2s14 4 14 14.4z" fill="#a5d0ec"/><path d="M8 60a13.6 13.6 0 0 1 6.3-9.3L13 51A13.4 13.4 0 0 0 2 62h60a13.2 13.2 0 0 0-.7-2zm23-18v-3.2c-3.6-3.3-7-8.6-7-14.8v-9.5c0-6.3 2.7-10.2 6.3-12.4C24.2 2.7 18 6.9 18 16.4V26c0 6.1 3.4 11.5 7 14.8V44c0 1.3-.8 3.1-4.1 4.6C29.3 46.8 31 43.9 31 42z" fill="#000064" opacity=".15"/><path data-name="stroke" d="M46 26c0 6.1-3.4 11.5-7 14.8V44c0 2 1 5.1 11 7a15.5 15.5 0 0 1 12 11H2a13.4 13.4 0 0 1 11-11c10-1.8 12-5 12-7v-3.2c-3.6-3.3-7-8.6-7-14.8v-9.6C18 6 25.4 2 32 2s14 4 14 14.4z" fill="none" stroke="#2e4369" stroke-linecap="round" stroke-linejoin="round" stroke-width="2"/></svg>