<svg xmlns="http://www.w3.org/2000/svg" viewBox="0 0 64 64" aria-labelledby="title" aria-describedby="desc"><path data-name="layer2" d="M51 28a11.1 11.1 0 0 0-11 11.2 11.7 11.7 0 0 0 .1 1.4C41.1 49.9 51 62 51 62s9.9-12.1 10.9-21.4a11.7 11.7 0 0 0 .1-1.4A11.1 11.1 0 0 0 51 28zm0 14a3 3 0 1 1 3-3 3 3 0 0 1-3 3z" fill="#f27e7c"/><path data-name="layer1" d="M40.4 42.5L39 42c-7.9-2.3-9-4.4-9-6v-2a61.7 61.7 0 0 0 12-2c-3.3-3.3-6-4.3-6-18C36 2.4 28.8 1.2 22 2.4S12 8 12 14c0 13.7-2.7 14.7-6 18a61.4 61.4 0 0 0 12 2v2c0 1.6-1.1 3.8-9 6s-7 8-7 8h41.2a26.4 26.4 0 0 1-2.8-7.5z" fill="#a5d0ec"/><path data-name="opacity" d="M43.2 50a26.4 26.4 0 0 1-2.8-7.5L39 42a37.2 37.2 0 0 1-4.4-1.5 11.4 11.4 0 0 0-.6 3.8 11.7 11.7 0 0 0 .1 1.4 20.9 20.9 0 0 0 1 4.4h8.1zM15 42c7.9-2.3 9-4.4 9-6-1.7 0-5.5-2.6-11-4 3.3-3.3 4-4.3 4-18 0-6 4.7-11.6 11-11.6h.6a18.4 18.4 0 0 0-6.6.1C15.7 2.4 12 8 12 14c0 13.7-2.7 14.7-6 18a61.4 61.4 0 0 0 12 2v2c0 1.6-1.1 3.7-9 6s-7 8-7 8h6s0-6 7-8z" fill="#000064" opacity=".15"/><path data-name="stroke" d="M43.2 50H2s0-6 7-8 9-4.4 9-6v-2a61.4 61.4 0 0 1-12-2c3.3-3.3 6-4.3 6-18 0-6 3.7-11.6 10-11.6s14 0 14 11.6c0 13.7 2.7 14.7 6 18a61.7 61.7 0 0 1-12 2v2c0 1.6 1.1 3.7 9 6l1.4.5" fill="none" stroke="#2e4369" stroke-linecap="round" stroke-linejoin="round" stroke-width="2"/><path data-name="stroke" d="M61.9 40.6a11.7 11.7 0 0 0 .1-1.4 11 11 0 1 0-22 0 11.7 11.7 0 0 0 .1 1.4C41.1 49.9 51 62 51 62s9.9-12.1 10.9-21.4z" fill="none" stroke="#2e4369" stroke-linecap="round" stroke-linejoin="round" stroke-width="2"/><circle data-name="stroke" cx="51" cy="39" r="3" fill="none" stroke="#2e4369" stroke-linecap="round" stroke-linejoin="round" stroke-width="2"/></svg>