<svg xmlns="http://www.w3.org/2000/svg" viewBox="0 0 64 64" aria-labelledby="title" aria-describedby="desc"><path data-name="layer2" fill="#91aadc" d="M24 7v8h6v-2h10v38h-4v6h14v-6h-4V13h10v2h6V7H24z"/><path data-name="layer1" fill="#99dbff" d="M16.9 17.1l4.2-4.2L12 3.8l-9.1 9.1 4.2 4.2L9 15.2v34.6l-1.9-1.9-4.2 4.2 9.1 9.1 9.1-9.1-4.2-4.2-1.9 1.9V15.2l1.9 1.9z"/><path data-name="stroke" fill="none" stroke="#2e4369" stroke-linecap="round" stroke-miterlimit="10" stroke-width="2" d="M24 7v8h6v-2h10v38h-4v6h14v-6h-4V13h10v2h6V7H24zm-7.1 10.1l4.2-4.2L12 3.8l-9.1 9.1 4.2 4.2L9 15.2v34.6l-1.9-1.9-4.2 4.2 9.1 9.1 9.1-9.1-4.2-4.2-1.9 1.9V15.2l1.9 1.9z" stroke-linejoin="round"/></svg>