<svg xmlns="http://www.w3.org/2000/svg" viewBox="0 0 64 64" aria-labelledby="title" aria-describedby="desc"><path data-name="layer1" d="M62 0H2a2 2 0 0 0-2 2v60a2 2 0 0 0 2 2h60a2 2 0 0 0 2-2V2a2 2 0 0 0-2-2zM18.084 47.09a2 2 0 1 1 2.829 2.829L15 55.83l-1.378-1.377a1.973 1.973 0 0 1-.081-.082L9.087 49.92a2 2 0 0 1 2.829-2.829l1.076 1.076V15.844l-1.076 1.076a2 2 0 0 1-2.829-2.83l4.455-4.453c.025-.028.052-.054.08-.08l1.377-1.378 5.914 5.91a2 2 0 1 1-2.829 2.83l-1.092-1.093v32.357zM55 21.008a2 2 0 0 1-4 0V19h-8.994v27.996h5.002a2 2 0 0 1 0 4H33a2 2 0 0 1 0-4h5.006V19h-9.018v2.023a2 2 0 0 1-4 0V15H55z" fill="#202020"/></svg>