<svg xmlns="http://www.w3.org/2000/svg" viewBox="0 0 64 64" aria-labelledby="title" aria-describedby="desc"><path data-name="layer3" d="M40 21H24a6 6 0 0 0-6 6v15a12 12 0 0 0 12 12h4a12 12 0 0 0 12-12V27a6 6 0 0 0-6-6zM32 2c-8.6 0-12 8-16 8 0 0 12 7 12 11h8c0-4.4 12-11 12-11-4.1 0-7.4-8-16-8z" fill="#49bcff"/><path data-name="layer2" d="M30 61a2 2 0 0 0 4 0v-7h-4z" fill="#7b8baf"/><circle data-name="layer1" cx="32" cy="11" r="5" fill="#a0d6ef"/><path data-name="opacity" d="M29 21v30c-2.7 0-5-4.2-5-5.9V21a6 6 0 0 0-6 6v15a12 12 0 0 0 12 12h2V21z" fill="#000064" opacity=".15"/><path data-name="opacity" d="M40 21h-4a6 6 0 0 1 6 6v15a12 12 0 0 1-12 12h4a12 12 0 0 0 12-12V27a6 6 0 0 0-6-6z" fill="#fff" opacity=".25"/><path data-name="opacity" d="M27 11a4.9 4.9 0 0 1 .6-2.4 5 5 0 1 0 6.7 6.7 4.9 4.9 0 0 1-2.3.7 5 5 0 0 1-5-5z" fill="#000064" opacity=".15"/><path data-name="opacity" fill="#000064" opacity=".2" d="M30 54h4v4.92h-4z"/><path data-name="stroke" d="M40 21H24a6 6 0 0 0-6 6v15a12 12 0 0 0 12 12h4a12 12 0 0 0 12-12V27a6 6 0 0 0-6-6zm-8 0v13" fill="none" stroke="#2e4369" stroke-linecap="round" stroke-linejoin="round" stroke-width="2"/><circle data-name="stroke" cx="32" cy="11" r="5" fill="none" stroke="#2e4369" stroke-linecap="round" stroke-linejoin="round" stroke-width="2"/><path data-name="stroke" d="M8 10h8c4 0 7.4-8 16-8s11.9 8 16 8h8m-40 0s12 7 12 11m20-11s-12 6.6-12 11m-6 33v7a2 2 0 0 0 4 0v-7" fill="none" stroke="#2e4369" stroke-linecap="round" stroke-linejoin="round" stroke-width="2"/></svg>