<svg xmlns="http://www.w3.org/2000/svg" viewBox="0 0 64 64" aria-labelledby="title" aria-describedby="desc"><rect data-name="layer1" x="2" y="17" width="36" height="32" rx="4" ry="4" fill="#8ca0c8"/><path data-name="opacity" d="M34 20H6a4 4 0 0 0-4 4v6a4 4 0 0 1 4-4h28a4 4 0 0 1 4 4v-6a4 4 0 0 0-4-4z" fill="#fff" opacity=".5"/><path data-name="opacity" d="M34 41H6a4 4 0 0 1-4-4v8a4 4 0 0 0 4 4h28a4 4 0 0 0 4-4v-8a4 4 0 0 1-4 4z" fill="#000064" opacity=".14"/><path data-name="layer1" fill="#8ca0c8" d="M60 19l-14 8v12l14 8h2V19h-2z"/><path data-name="opacity" fill="#000064" opacity=".14" d="M60 47h2v-9.9l-16-1.9V39l14 8z"/><path data-name="opacity" fill="#fff" opacity=".5" d="M46 28.8v4.3l16 .8v-8.7l-16 3.6z"/><rect data-name="stroke" x="2" y="17" width="36" height="32" rx="4" ry="4" fill="none" stroke="#2e4369" stroke-linecap="round" stroke-miterlimit="10" stroke-width="2" stroke-linejoin="round"/><path data-name="stroke" fill="none" stroke="#2e4369" stroke-linecap="round" stroke-miterlimit="10" stroke-width="2" d="M60 19l-14 8v12l14 8h2V19h-2z" stroke-linejoin="round"/></svg>