<svg xmlns="http://www.w3.org/2000/svg" viewBox="0 0 64 64" aria-labelledby="title" aria-describedby="desc"><path data-name="layer1" d="M62.163 31.432a1.816 1.816 0 0 0-2-1.551 20.321 20.321 0 0 1-2.211.139c-4.755 0-11.544-.361-15.741-3.165a12.437 12.437 0 0 1-1.04-.8 10.9 10.9 0 0 1-3.852-8.379c-.025-3.077.7-5.346 2.162-6.744a5.452 5.452 0 0 1 3.45-1.5h.079a3.975 3.975 0 0 1 2.91 1.838c.894 1.311 1.991 4.29.609 10.395a1.335 1.335 0 0 0 .84 1.545 25.982 25.982 0 0 0 7.042 1.266 1.329 1.329 0 0 0 1.378-1.044 31.83 31.83 0 0 0 .791-8.149 17.73 17.73 0 0 0-2.873-9.336A13.389 13.389 0 0 0 43.514 0a14.685 14.685 0 0 0-10.546 4.1c-2.348 2.248-5.135 6.44-5.076 13.646a20.341 20.341 0 0 0 7.132 15.459 23.483 23.483 0 0 0 5.431 3.474 76 76 0 0 1-7.321 10.669 76.251 76.251 0 0 1-5.4 5.933c-7.163-5.694-11.4-16.354-13.756-24.759a117.15 117.15 0 0 1-3.569-18.96 1.629 1.629 0 0 0-1.728-1.454l-3.114.21L10.271 8l-7.75.519a1.63 1.63 0 0 0-1.513 1.786 125.391 125.391 0 0 0 3.848 20.6A78.359 78.359 0 0 0 12.164 49c3.817 6.608 8.448 11.452 13.765 14.4a4.711 4.711 0 0 0 5.278-.485 74.229 74.229 0 0 0 9.05-9.368 85.78 85.78 0 0 0 7.575-10.762q1.03-1.739 1.958-3.505a48.759 48.759 0 0 0 11.6-.041 1.818 1.818 0 0 0 1.588-2.065zm0 0" fill="#202020"/></svg>