<svg xmlns="http://www.w3.org/2000/svg" viewBox="0 0 64 64" aria-labelledby="title" aria-describedby="desc"><path data-name="layer5" fill="#c3d2e0" d="M2 45h60v8H2z"/><path data-name="layer6" fill="#c69483" d="M2 27h60v18H2z"/><path data-name="layer5" fill="#c3d2e0" d="M2 13h60v14H2z"/><circle data-name="layer2" cx="32" cy="35" r="12" fill="#99afbf"/><path data-name="opacity" d="M32 47a12 12 0 0 1-10.2-18.2 12 12 0 1 0 16.4 16.4A11.9 11.9 0 0 1 32 47z" fill="#000064" opacity=".2"/><circle data-name="layer3" cx="32" cy="35" r="6" fill="#78d1f4"/><path data-name="layer4" d="M15 20a2 2 0 0 1-2 2h-2a2 2 0 0 1-2-2 2 2 0 0 1 2-2h2a2 2 0 0 1 2 2z" fill="#fff432"/><circle data-name="layer3" cx="54" cy="21" r="1" fill="#78d1f4"/><path data-name="layer2" fill="#99afbf" d="M49 7h9v6h-9z"/><circle data-name="layer1" cx="33" cy="34" r="2" fill="#fff"/><path data-name="stroke" fill="none" stroke="#2e4369" stroke-linecap="round" stroke-miterlimit="10" stroke-width="2" d="M49 13V7h9v6M2 13h60v40H2z" stroke-linejoin="round"/><circle data-name="stroke" cx="32" cy="35" r="12" fill="none" stroke="#2e4369" stroke-linecap="round" stroke-miterlimit="10" stroke-width="2" stroke-linejoin="round"/><circle data-name="stroke" cx="32" cy="35" r="6" fill="none" stroke="#2e4369" stroke-linecap="round" stroke-miterlimit="10" stroke-width="2" stroke-linejoin="round"/><path data-name="stroke" fill="none" stroke="#2e4369" stroke-linecap="round" stroke-miterlimit="10" stroke-width="2" d="M2 27h20.8m18.1 0H62M25.4 45H2m36.6 0H62M15 20a2 2 0 0 1-2 2h-2a2 2 0 0 1-2-2 2 2 0 0 1 2-2h2a2 2 0 0 1 2 2z" stroke-linejoin="round"/><circle data-name="stroke" cx="54" cy="21" r="1" fill="none" stroke="#2e4369" stroke-linecap="round" stroke-miterlimit="10" stroke-width="2" stroke-linejoin="round"/></svg>