<svg xmlns="http://www.w3.org/2000/svg" viewBox="0 0 64 64" aria-labelledby="title" aria-describedby="desc"><path data-name="layer1" d="M34 6L16 24H4a2 2 0 0 0-2 2v12a2 2 0 0 0 2 2h12l18 18z" fill="#fce349"/><path data-name="opacity" d="M34 6L16 24H4a2 2 0 0 0-2 2v6h32z" fill="#fff" opacity=".44"/><path data-name="stroke" d="M40.2 21.8a12 12 0 0 1 0 20.5M46 16a20 20 0 0 1 0 32m5.7-37.7a28 28 0 0 1 .1 43.3M34 6L16 24H4a2 2 0 0 0-2 2v12a2 2 0 0 0 2 2h12l18 18z" fill="none" stroke="#2e4369" stroke-linecap="round" stroke-miterlimit="10" stroke-width="2" stroke-linejoin="round"/></svg>