<svg xmlns="http://www.w3.org/2000/svg" viewBox="0 0 64 64" aria-labelledby="title" aria-describedby="desc"><path data-name="layer3" fill="#9cc4a4" d="M51.7 15L48 5 20.5 15"/><rect data-name="layer1" x="42" y="31" width="20" height="12" rx="2" ry="2" fill="#d6958a"/><rect data-name="opacity" x="42" y="31" width="20" height="12" rx="2" ry="2" fill="#fff" opacity=".2"/><circle data-name="layer2" cx="49" cy="37" r="1" fill="#fc6"/><path data-name="layer1" d="M42 41v-8a2 2 0 0 1 2-2h14V18a3 3 0 0 0-3-3H5a3 3 0 0 0-3 3v38a3 3 0 0 0 3 3h50a3 3 0 0 0 3-3V43H44a2 2 0 0 1-2-2z" fill="#d6958a"/><g opacity=".15" fill="#000064"><path d="M44 43a2 2 0 0 1-2-2v-6a2 2 0 0 0-2 2v8a2 2 0 0 0 2 2h16v-4z"/><path d="M9 53a3 3 0 0 1-3-3V15H5a3 3 0 0 0-3 3v38a3 3 0 0 0 3 3h50a3 3 0 0 0 3-3v-3z"/></g><path data-name="stroke" fill="none" stroke="#2e4369" stroke-linecap="round" stroke-linejoin="round" stroke-width="2" d="M51.7 15L48 5 20.5 15M58 43v13a3 3 0 0 1-3 3H5a3 3 0 0 1-3-3V18a3 3 0 0 1 3-3h50a3 3 0 0 1 3 3v13"/><rect data-name="stroke" x="42" y="31" width="20" height="12" rx="2" ry="2" fill="none" stroke="#2e4369" stroke-linecap="round" stroke-linejoin="round" stroke-width="2"/><path data-name="stroke" fill="none" stroke="#2e4369" stroke-linecap="round" stroke-linejoin="round" stroke-width="2" d="M12 21h2m8 0h2m8 0h2m8 0h2M16 53h2m8 0h2m8 0h2m8 0h2"/><circle data-name="stroke" cx="49" cy="37" r="1" fill="none" stroke="#2e4369" stroke-linecap="round" stroke-linejoin="round" stroke-width="2"/></svg>