<svg xmlns="http://www.w3.org/2000/svg" viewBox="0 0 64 64" aria-labelledby="title" aria-describedby="desc"><path data-name="layer1" d="M32 0a32 32 0 1 0 32 32A32 32 0 0 0 32 0zm-1 5.333a1 1 0 1 1 2 0v5.333a1 1 0 1 1-2 0zM10.667 33H5.333a1 1 0 1 1 0-2h5.334a1 1 0 1 1 0 2zM33 58.667a1 1 0 0 1-2 0v-5.334a1 1 0 0 1 2 0zm17.127-40.54L37.544 30.711a6 6 0 1 1-11.309.644l-6.918-5.661a1.5 1.5 0 0 1 1.9-2.322l6.562 5.369a5.977 5.977 0 0 1 7.936-.444l12.291-12.291a1.5 1.5 0 0 1 2.121 2.121zM58.667 33h-5.334a1 1 0 0 1 0-2h5.334a1 1 0 0 1 0 2z" fill="#202020"/><circle data-name="layer1" cx="32" cy="33" r="3" fill="#202020"/></svg>