<svg xmlns="http://www.w3.org/2000/svg" viewBox="0 0 64 64" aria-labelledby="title" aria-describedby="desc"><circle data-name="layer2" cx="32" cy="32" r="30" fill="#e1f4f3"/><path data-name="opacity" d="M47.414 20.586a2 2 0 0 0-2.828 0L33.751 31.421a3.907 3.907 0 0 0-3.915.224l-5.569-4.193a2 2 0 0 0-2.533 3.1l6.3 4.792A3.99 3.99 0 0 0 36 35c0-.053-.014-.1-.016-.156l11.43-11.43a2 2 0 0 0 0-2.828z" fill="#000064" opacity=".15"/><path data-name="opacity" d="M32 2A29.938 29.938 0 0 0 8.881 12.881a30 30 0 0 1 42.238 42.238A30 30 0 0 0 32 2z" fill="#000064" opacity=".15"/><circle data-name="layer1" cx="32" cy="33" r="2" fill="#6e7da9"/><circle data-name="stroke" cx="32" cy="32" r="30" fill="none" stroke="#2e4369" stroke-linecap="round" stroke-miterlimit="10" stroke-width="2" stroke-linejoin="round"/><path data-name="stroke" fill="none" stroke="#2e4369" stroke-linecap="round" stroke-miterlimit="10" stroke-width="2" d="M32 7v5m0 40v5M7 32h5m40 0h5" stroke-linejoin="round"/><circle data-name="stroke" cx="32" cy="33" r="2" fill="none" stroke="#2e4369" stroke-linecap="round" stroke-miterlimit="10" stroke-width="2" stroke-linejoin="round"/><path data-name="stroke" fill="none" stroke="#2e4369" stroke-linecap="round" stroke-miterlimit="10" stroke-width="2" d="M30.084 32.432L21 25m27-7L33.822 32.178" stroke-linejoin="round"/></svg>