<svg viewBox="0 0 64 64" xmlns="http://www.w3.org/2000/svg" aria-labelledby="title" aria-describedby="desc"><path fill="#202020" d="M45.978 28l-16 30h32zm-2 12a2 2 0 1 1 4 0v6a2 2 0 1 1-4 0zm2 14a2 2 0 0 1-1.41-3.41 2.071 2.071 0 0 1 2.83 0A2 2 0 0 1 45.975 54z" data-name="layer3"/><path fill="#202020" d="M29.7 50.03l12.749-23.912a4 4 0 0 1 7.059 0l4.514 8.463V20h-52v30h21.406v.03z" data-name="layer2"/><path fill="#202020" d="M2.021 6v10h52V6zM8 13a2 2 0 1 1 2-2 2 2 0 0 1-2 2zm6 0a2 2 0 1 1 2-2 2 2 0 0 1-2 2zm6 0a2 2 0 1 1 2-2 2 2 0 0 1-2 2z" data-name="layer1"/></svg>