<svg xmlns="http://www.w3.org/2000/svg" viewBox="0 0 64 64" aria-labelledby="title" aria-describedby="desc"><path data-name="layer1" d="M49.1 30H14.9a8 8 0 1 1 0-16.1h39.4l-5 5 2.8 2.8 9.9-9.8L52.1 2l-2.8 2.8 5 5H14.9a12.1 12.1 0 1 0 0 24.1h34.2a8 8 0 1 1 0 16.1H9.7l5-5-2.8-2.8L2 52.1l1.4 1.4 8.5 8.5 2.8-2.8-5-5h39.4a12.1 12.1 0 1 0 0-24.1z" fill="#c3d6f9"/><path data-name="stroke" d="M49.1 30H14.9a8 8 0 1 1 0-16.1h39.4l-5 5 2.8 2.8 9.9-9.8L52.1 2l-2.8 2.8 5 5H14.9a12.1 12.1 0 1 0 0 24.1h34.2a8 8 0 1 1 0 16.1H9.7l5-5-2.8-2.8L2 52.1l1.4 1.4 8.5 8.5 2.8-2.8-5-5h39.4a12.1 12.1 0 1 0 0-24.1z" fill="none" stroke="#2e4369" stroke-miterlimit="10" stroke-width="2" stroke-linejoin="round" stroke-linecap="round"/></svg>