<svg xmlns="http://www.w3.org/2000/svg" viewBox="0 0 64 64" aria-labelledby="title" aria-describedby="desc"><rect data-name="layer3" x="2" y="1.994" width="60" height="60" rx="5" ry="5" fill="#9dbde4"/><path data-name="opacity" d="M11 60.994a5.015 5.015 0 0 1-5-5v-50a4.987 4.987 0 0 1 2.036-4H7a5.015 5.015 0 0 0-5 5v50a5.015 5.015 0 0 0 5 5h50a4.947 4.947 0 0 0 2.964-1z" fill="#000064" opacity=".16"/><path data-name="layer2" d="M42 25.994H22l-9-15a41.176 41.176 0 0 1 18.561-4c6.983 0 13.661.962 19.439 4z" fill="#cbe5ff"/><path data-name="opacity" d="M51 10.994c-5.778-3.038-12.456-4-19.439-4a41.176 41.176 0 0 0-18.561 4l.83 1.383a43.57 43.57 0 0 1 14.731-2.383c6.983 0 13.661.962 19.439 4l-7.2 12H42z" fill="#000064" opacity=".16"/><path data-name="layer1" d="M28.9 48.774l-2-11.909a7 7 0 1 0-13.8 2.351l2 11.909a7 7 0 1 0 13.8-2.351zM45.27 31.1a6.982 6.982 0 0 0-8.066 5.7l-2.096 11.9a7.064 7.064 0 0 0 5.622 8.18 6.982 6.982 0 0 0 8.066-5.7l2.095-11.9a7.064 7.064 0 0 0-5.621-8.18z" fill="#a9d4ff"/><path data-name="opacity" d="M15.1 51.124l-2-11.909a7.048 7.048 0 0 1 1.093-5.079 7.086 7.086 0 0 0-3.093 7.079l2 11.909a6.971 6.971 0 0 0 12.71 2.729 6.905 6.905 0 0 1-2.641 1.047 7.025 7.025 0 0 1-8.069-5.776zm25.63 5.761a7.064 7.064 0 0 1-5.622-8.18l2.095-11.9a7.036 7.036 0 0 1 1.055-2.653 7.032 7.032 0 0 0-3.058 4.654L33.108 50.7a7.064 7.064 0 0 0 5.622 8.18 6.934 6.934 0 0 0 7.012-3.048 6.841 6.841 0 0 1-5.012 1.053z" fill="#000064" opacity=".16"/><rect data-name="stroke" x="2" y="1.994" width="60" height="60" rx="5" ry="5" fill="none" stroke="#2e4369" stroke-linecap="round" stroke-miterlimit="10" stroke-width="2" stroke-linejoin="round"/><path data-name="stroke" d="M42 25.994H22l-9-15a41.176 41.176 0 0 1 18.561-4c6.983 0 13.661.962 19.439 4zm-10 0l4-13m-4-5.998v3.998m-3.1 37.78l-2-11.909a7 7 0 1 0-13.8 2.351l2 11.909a7 7 0 1 0 13.8-2.351zM45.27 31.1a6.982 6.982 0 0 0-8.066 5.7l-2.096 11.9a7.064 7.064 0 0 0 5.622 8.18 6.982 6.982 0 0 0 8.066-5.7l2.095-11.9a7.064 7.064 0 0 0-5.621-8.18z" fill="none" stroke="#2e4369" stroke-linecap="round" stroke-miterlimit="10" stroke-width="2" stroke-linejoin="round"/></svg>