<svg xmlns="http://www.w3.org/2000/svg" viewBox="0 0 64 64" aria-labelledby="title" aria-describedby="desc"><path data-name="layer2" d="M55.9 2.8S50.7 1 47.4 4.2a5 5 0 0 0 7.1 7.1c3.1-3.1 1.4-8.5 1.4-8.5zm-14.1 7.8c0-4.4-5-7-5-7s-5 2.5-5 7a5 5 0 1 0 10 0zm6 6c4.4 0 7 5 7 5s-2.5 5-7 5a5 5 0 0 1 0-10zm-16.1 4.2c0-4.4-5-7-5-7s-5 2.5-5 7a5 5 0 1 0 10 0zm6 6c4.4 0 7 5 7 5s-2.5 5-7 5a5 5 0 0 1 0-10zm-15.9 3.9c0-4.4-5-7-5-7s-5 2.5-5 7a5 5 0 0 0 10 0zm6 6c4.4 0 7 5 7 5s-2.5 5-7 5a5 5 0 0 1 0-10z" fill="none" stroke="#202020" stroke-linecap="round" stroke-linejoin="round" stroke-width="2"/><path data-name="layer1" fill="none" stroke="#202020" stroke-linecap="round" stroke-linejoin="round" stroke-width="2" d="M17.5 40.8l-9.9 9.9m5.2 2.3c6.5-6.5 18.4-4.2 26.9 4.2-7.5 7.5-17.5 5.2-26.9-4.2z"/></svg>