<svg xmlns="http://www.w3.org/2000/svg" viewBox="0 0 64 64" aria-labelledby="title" aria-describedby="desc"><path data-name="layer2" d="M22 37a10 10 0 1 0 10 10 10.012 10.012 0 0 0-10-10z" fill="#202020"/><path data-name="layer1" d="M59.55 57h-6.64a5.964 5.964 0 0 0-.925-2.335A1.475 1.475 0 0 0 52 54.51V33h-.087A13.515 13.515 0 0 0 38.5 20.99H20.419L18.921 15h.986a4 4 0 0 0 3.881-4.97l-.871-3.485A5.992 5.992 0 0 0 17.1 2H5.5a1.5 1.5 0 0 0 0 3h7.829l6.3 25.186A16.99 16.99 0 1 0 38.872 49H49v3.35A6 6 0 1 0 52.65 60h6.9a1.5 1.5 0 0 0 0-3zM38.5 23.99A10.507 10.507 0 0 1 48.882 33h-17.26a16.889 16.889 0 0 0-8.943-2.966l-1.51-6.044zM22 60a13 13 0 1 1 13-13 13.014 13.014 0 0 1-13 13zm16.949-14a16.858 16.858 0 0 0-1.475-6H49v6z" fill="#202020"/></svg>