<svg xmlns="http://www.w3.org/2000/svg" viewBox="0 0 64 64" aria-labelledby="title" aria-describedby="desc"><path data-name="layer4" d="M38 48h24s-18 0-24-26v26z" fill="#a3b8df"/><path data-name="layer3" d="M34 42v-8h-6l-18-8v-6H8l-4 4v16.5a4 4 0 0 1 2-.5h24a4 4 0 0 1 3.5 2h.5z" fill="#fc0"/><path data-name="layer2" fill="#c3d6e0" d="M28 34l-5-14H10v6l18 8z"/><path data-name="layer1" d="M34 44a4 4 0 0 1-4 4H6a4 4 0 0 1-4-4 4 4 0 0 1 4-4h24a4 4 0 0 1 4 4z" fill="#7b8baf"/><path data-name="opacity" d="M32 44a2 2 0 0 1-2 2H6a2 2 0 0 1-2-2 2 2 0 0 1 2-2h24a2 2 0 0 1 2 2z" fill="#000064" opacity=".25"/><path data-name="opacity" fill="#fff" opacity=".5" d="M23 20h-1.9l-7.6 7.6 4.2 1.8 6.4-6.4-1.1-3zm-3.7 10.2l4.5 1.9 2.6-2.6-1.7-4.7-5.4 5.4z"/><path data-name="opacity" d="M4 24v16.5a4 4 0 0 1 2-.5h24a4 4 0 0 1 3.5 2h.5v-5H10V20H8z" fill="#000064" opacity=".1"/><path data-name="stroke" fill="none" stroke="#2e4369" stroke-linecap="round" stroke-linejoin="round" stroke-width="2" d="M4 40.5V24l4-4h15l5 14h6v8h-.5"/><path data-name="stroke" fill="none" stroke="#2e4369" stroke-linecap="round" stroke-linejoin="round" stroke-width="2" d="M10 20v6l18 8m10 14h24s-18 0-24-26v8m-4 14a4 4 0 0 1-4 4H6a4 4 0 0 1-4-4 4 4 0 0 1 4-4h24a4 4 0 0 1 4 4z"/></svg>