<svg xmlns="http://www.w3.org/2000/svg" viewBox="0 0 64 64" aria-labelledby="title" aria-describedby="desc"><path data-name="layer2" d="M46 2H18v8h28z" fill="#d5e2f4"/><path data-name="layer1" d="M18 10v6c0 4 2 14 14 14s14-10 14-14v-6z" fill="#f9d28c"/><path data-name="opacity" d="M42 10V2h-5v8zm-5 13a16.6 16.6 0 0 1-.8 4.8C41 24.6 42 18.8 42 16v-6h-5z" fill="#fff" opacity=".5"/><path data-name="opacity" d="M24 2h-6v8h6V2z" fill="#101129" opacity=".18"/><path data-name="opacity" d="M24 18v-8h-6v6c0 3.8 1.8 12.8 11.9 13.9C25 26.7 24 20.8 24 18z" fill="#101129" opacity=".25"/><path data-name="stroke" fill="none" stroke="#2f446a" stroke-linecap="round" stroke-linejoin="round" stroke-width="2" d="M32 30v32m-10 0h20m4-60H18v8h28zm-28 8v6c0 4 2 14 14 14s14-10 14-14v-6"/></svg>