<svg xmlns="http://www.w3.org/2000/svg" viewBox="0 0 64 64" aria-labelledby="title" aria-describedby="desc"><rect data-name="layer2" x="2" y="36" width="60" height="20" rx="2" ry="2" fill="#7b8baf"/><path data-name="opacity" d="M6 52V36H4a2 2 0 0 0-2 2v16a2 2 0 0 0 2 2h56a2 2 0 0 0 2-2H8a2 2 0 0 1-2-2z" fill="#000064" opacity=".14"/><circle data-name="layer1" cx="51" cy="45" r="2" fill="#f27e7c"/><path data-name="stroke" fill="none" stroke="#2e4369" stroke-linecap="round" stroke-linejoin="round" stroke-width="2" d="M10 4v32M54 4v32M10 56v4m44-4v4"/><rect data-name="stroke" x="2" y="36" width="60" height="20" rx="2" ry="2" fill="none" stroke="#2e4369" stroke-linecap="round" stroke-linejoin="round" stroke-width="2"/><path data-name="stroke" fill="none" stroke="#2e4369" stroke-linecap="round" stroke-linejoin="round" stroke-width="2" d="M10 46h18"/><circle data-name="stroke" cx="51" cy="45" r="2" fill="none" stroke="#2e4369" stroke-linecap="round" stroke-linejoin="round" stroke-width="2"/></svg>