<svg xmlns="http://www.w3.org/2000/svg" viewBox="0 0 64 64" aria-labelledby="title" aria-describedby="desc"><path data-name="layer2" d="M43 17a4 4 0 0 1 8 0 2 2 0 0 0 4 0 8 8 0 0 0-16 0 2 2 0 0 0 4 0z" fill="#202020"/><path data-name="layer2" d="M47 1a16 16 0 0 0-16 16 2 2 0 1 0 4 0 12 12 0 0 1 24 0 2 2 0 1 0 4 0A16 16 0 0 0 47 1z" fill="#202020"/><path data-name="layer1" d="M59 39H49V19a2 2 0 0 0-4 0v20H3a2 2 0 0 0-2 2v14a2 2 0 0 0 2 2h2v4a2 2 0 0 0 4 0v-4h44v4a2 2 0 0 0 4 0v-4h2a2 2 0 0 0 2-2V41a2 2 0 0 0-2-2zM10 51a3 3 0 1 1 3-3 3 3 0 0 1-3 3zm10 0a3 3 0 1 1 3-3 3 3 0 0 1-3 3zm10 0a3 3 0 1 1 3-3 3 3 0 0 1-3 3z" fill="#202020"/></svg>