<svg xmlns="http://www.w3.org/2000/svg" viewBox="0 0 64 64" aria-labelledby="title" aria-describedby="desc"><path data-name="layer1" d="M19.4 29.6a23.9 23.9 0 0 1-16.5-7 3 3 0 0 1 4.3-4.2c1.1 1.1 10.7 10.2 23.1 1.3 16.2-11.6 29.4.8 30.9 2.3a3 3 0 1 1-4.3 4.2c-1.8-1.8-11.2-10.2-23.1-1.6a24.4 24.4 0 0 1-14.4 5z" fill="#cdf0f0"/><path data-name="layer1" d="M19.9 41.3a23.2 23.2 0 0 1-8.8-1.8 3 3 0 0 1 2.2-5.5c5.8 2.4 11.5 1.6 16.9-2.3 13.3-9.5 25.7-3.2 30.9 2a3 3 0 1 1-4.2 4.3c-1.1-1.1-10.8-10.2-23.1-1.4a23.6 23.6 0 0 1-13.9 4.7z" fill="#cdf0f0"/><path data-name="layer1" d="M19.6 54.1A24.4 24.4 0 0 1 2.9 47a3 3 0 0 1 4.3-4.2c1 1 10.8 10.3 23.1 1.6 9.1-6.5 17.4-5.3 22.7-3.2a3 3 0 0 1-2.3 5.6c-5.7-2.3-11.4-1.5-16.9 2.5a23.9 23.9 0 0 1-14.2 4.8z" fill="#cdf0f0"/><path data-name="stroke" d="M19.4 29.6a23.9 23.9 0 0 1-16.5-7 3 3 0 0 1 4.3-4.2c1.1 1.1 10.7 10.2 23.1 1.3 16.2-11.6 29.4.8 30.9 2.3a3 3 0 1 1-4.3 4.2c-1.8-1.8-11.2-10.2-23.1-1.6a24.4 24.4 0 0 1-14.4 5z" fill="none" stroke="#2e4369" stroke-linecap="round" stroke-linejoin="round" stroke-width="2"/><path data-name="stroke" d="M19.9 41.3a23.2 23.2 0 0 1-8.8-1.8 3 3 0 0 1 2.2-5.5c5.8 2.4 11.5 1.6 16.9-2.3 13.3-9.5 25.7-3.2 30.9 2a3 3 0 1 1-4.2 4.3c-1.1-1.1-10.8-10.2-23.1-1.4a23.6 23.6 0 0 1-13.9 4.7z" fill="none" stroke="#2e4369" stroke-linecap="round" stroke-linejoin="round" stroke-width="2"/><path data-name="stroke" d="M19.6 54.1A24.4 24.4 0 0 1 2.9 47a3 3 0 0 1 4.3-4.2c1 1 10.8 10.3 23.1 1.6 9.1-6.5 17.4-5.3 22.7-3.2a3 3 0 0 1-2.3 5.6c-5.7-2.3-11.4-1.5-16.9 2.5a23.9 23.9 0 0 1-14.2 4.8z" fill="none" stroke="#2e4369" stroke-linecap="round" stroke-linejoin="round" stroke-width="2"/></svg>