<svg xmlns="http://www.w3.org/2000/svg" viewBox="0 0 64 64" aria-labelledby="title" aria-describedby="desc"><path data-name="layer1" d="M49 18h-.5a17 17 0 0 0-32.3 4.4A11 11 0 1 0 13 44h36a13 13 0 0 0 0-26z" fill="#cdf0f0"/><path data-name="opacity" d="M33.8 44a18 18 0 0 1-17.5-21.4v-.2A11 11 0 1 0 13 44h20.8z" fill="#000064" opacity=".1"/><path data-name="opacity" d="M62 31a13 13 0 0 0-12.9-13h-.6a17 17 0 0 0-12.9-9.8H33a16.9 16.9 0 0 0-9.9 3.2L26 11a23.9 23.9 0 0 1 17.9 8.1 13.1 13.1 0 0 0-3.5 2.2L43 21a15.9 15.9 0 0 1 15.8 18.5A12.9 12.9 0 0 0 62 31z" fill="#fff" opacity=".5"/><path data-name="stroke" d="M56 28a4 4 0 0 1 4 4 4 4 0 0 1-4 4h-8m10 16a4 4 0 0 0 4-4 4 4 0 0 0-4-4H44" fill="none" stroke="#2e4369" stroke-linecap="round" stroke-linejoin="round" stroke-width="2"/><path data-name="stroke" d="M56 20.1a12.9 12.9 0 0 0-7-2h-.5a17 17 0 0 0-32.3 4.4A11 11 0 1 0 13 44h21a6 6 0 0 1 6 6 6 6 0 0 1-6 6" fill="none" stroke="#2e4369" stroke-linecap="round" stroke-linejoin="round" stroke-width="2"/><path data-name="stroke" d="M24 36h14a6 6 0 0 0 6-6 6 6 0 0 0-6-6M20 36h-2" fill="none" stroke="#2e4369" stroke-linecap="round" stroke-linejoin="round" stroke-width="2"/></svg>