<svg viewBox="0 0 64 64" xmlns="http://www.w3.org/2000/svg" aria-labelledby="title" aria-describedby="desc"><path d="M27.999 2h8v10h-8z" fill="#a41d34" data-name="layer2"/><path fill="#8caf61" d="M28 12c0 4-6 10-6 16v31c0 1.656 1.672 3 7.639 3h4.721c6.276 0 7.64-1.344 7.64-3V28c0-6-6-12-6-16" data-name="layer1"/><path d="M32.916 2h3.003v10h-3.003zm1.995 26v33a2.259 2.259 0 0 1-.178.91c4.18-.318 4.182-1.5 4.182-2.912V28c0-6-5-12-5-16h-1c.001 4 1.996 10 1.996 16z" opacity=".5" fill="#fff" data-name="opacity"/><path d="M27.999 2h3.004v10h-3.004zM26 59V28c0-6 5-12 5-16h-3c0 4-6 10-6 16v31c0 1.656 1.672 3 7.639 3h3C26.675 62 26 60.656 26 59z" opacity=".25" fill="#101129" data-name="opacity"/><path stroke-width="2" stroke-linejoin="round" stroke-linecap="round" stroke="#2f446a" fill="none" d="M36 12V2h-8v10c0 4-6 10-6 16v31c0 1.656 1.672 3 7.639 3h4.721c6.276 0 7.64-1.344 7.64-3V28c0-6-6-12-6-16zm-8 0h8" data-name="stroke"/></svg>