<svg xmlns="http://www.w3.org/2000/svg" viewBox="0 0 64 64" aria-labelledby="title" aria-describedby="desc"><path data-name="layer3" d="M22 29.9h20V28c0-6-6-12-6-16h-8c0 4-6 10-6 16v31c0 1.7 1.7 3 7.6 3h4.7c6.3 0 7.6-1.3 7.6-3v-7H22z" fill="#8caf61"/><path data-name="layer2" fill="#a41d34" d="M28 2h8v10h-8z"/><path data-name="opacity" fill="#fff" opacity=".5" d="M32.9 2h3v10h-3z"/><path data-name="opacity" fill="#101129" opacity=".25" d="M28 2h3v10h-3z"/><path data-name="layer1" fill="#d5e2f4" d="M22 29.9h20v22.01H22z"/><path data-name="opacity" d="M33.9 12h-1c0 4 2 10 2 16v1.9h4V28c0-6-5-12-5-16zm1 49a2.3 2.3 0 0 1-.2.9c4.2-.3 4.2-1.5 4.2-2.9v-7h-4z" fill="#fff" opacity=".5"/><path data-name="opacity" d="M26 59v-7h-4V30h4v-2c0-6 5-12 5-16h-3c0 4-6 10-6 16v31c0 1.7 1.7 3 7.6 3h3c-5.9 0-6.6-1.3-6.6-3z" fill="#101129" opacity=".25"/><path data-name="opacity" fill="#fff" opacity=".5" d="M36.8 29.9H42v22.01h-5.2z"/><path data-name="opacity" fill="#101129" opacity=".25" d="M22 29.9h4v22.01h-4z"/><path data-name="stroke" fill="none" stroke="#2f446a" stroke-linecap="round" stroke-linejoin="round" stroke-width="2" d="M28 2h8v10h-8zm-6 50v7c0 1.7 1.7 3 7.6 3h4.7c6.3 0 7.6-1.3 7.6-3v-7M28 12c0 4-6 10-6 16v2h20v-2c0-6-6-12-6-16"/><path data-name="stroke" fill="none" stroke="#2f446a" stroke-linecap="round" stroke-linejoin="round" stroke-width="2" d="M22 30h20v22.01H22z"/></svg>