<svg xmlns="http://www.w3.org/2000/svg" viewBox="0 0 64 64" aria-labelledby="title" aria-describedby="desc"><path data-name="layer2" fill="#aabfce" d="M8 38h8v18H8zm40 0h8v18h-8z"/><path data-name="layer1" d="M8 54H4a2 2 0 0 1-2-2V42a2 2 0 0 1 2-2h4zm48 0h4a2 2 0 0 0 2-2V42a2 2 0 0 0-2-2h-4z" fill="#f26161"/><path data-name="opacity" fill="#000064" opacity=".2" d="M8 54v2h8v-8H8v6zm-6-6v4a2 2 0 0 0 2 2h4v-6zm54 0h-8v8h8v-2h4a2 2 0 0 0 2-2v-4z"/><path data-name="stroke" d="M12 38V28c0-11 8-20 19-20h2c11 0 19 9 19 20v10M8 38h8v18H8zm40 0h8v18h-8zM8 40H4a2 2 0 0 0-2 2v10a2 2 0 0 0 2 2h4m48 0h4a2 2 0 0 0 2-2V42a2 2 0 0 0-2-2h-4" fill="none" stroke="#2e4369" stroke-linecap="round" stroke-miterlimit="10" stroke-width="2" stroke-linejoin="round"/></svg>