<svg xmlns="http://www.w3.org/2000/svg" viewBox="0 0 64 64" aria-labelledby="title" aria-describedby="desc"><path data-name="layer2" d="M56 36h-2v-8c0-12.5-9-22-21-22h-2c-12 0-21 9.5-21 22v8H8a2 2 0 0 0-2 2v18a2 2 0 0 0 2 2h8a2 2 0 0 0 2-2V38a2 2 0 0 0-2-2h-2v-8c0-10.3 7.3-18 17-18h2c9.7 0 17 7.7 17 18v8h-2a2 2 0 0 0-2 2v18a2 2 0 0 0 2 2h8a2 2 0 0 0 2-2V38a2 2 0 0 0-2-2z" fill="#202020"/><path data-name="layer1" d="M2 38a2 2 0 0 0-2 2v14a2 2 0 1 0 4 0V40a2 2 0 0 0-2-2zm60 0a2 2 0 0 0-2 2v14a2 2 0 1 0 4 0V40a2 2 0 0 0-2-2z" fill="#202020"/></svg>