<svg xmlns="http://www.w3.org/2000/svg" viewBox="0 0 64 64" aria-labelledby="title" aria-describedby="desc"><path data-name="layer1" d="M63.6 61.6A16.5 16.5 0 0 0 50.3 49h-.5l1.5-1.5 1.5-1.5-1.4-1.4C48.9 42.1 48 31.9 48 26v-9.6C48 5.1 40 0 32 0a17.6 17.6 0 0 0-6.7 1.3h-.2C20 3.6 16 8.4 16 16.4V26c0 6.3-1.1 16.2-3.4 18.6L11.2 46l1.4 1.4 1.5 1.5h-.5A16.5 16.5 0 0 0 .4 61.6L0 64h64zM28.9 60l-7.3-9.1c3.6-1.7 4.5-3.8 4.4-6.5a2 2 0 0 0 1-3.7c-4.3-2.6-7-8.3-7-14.6v-4.3a8.1 8.1 0 0 0 4.2-2.5 14.7 14.7 0 0 0 3.2-6.9c2.7 3.6 7.7 7 16.6 7.5V26c0 6.2-2.8 11.9-7 14.6a2 2 0 0 0 1 3.7c-.1 2.8.8 5 4.6 6.7l-7.4 9z" fill="#202020"/></svg>