<svg xmlns="http://www.w3.org/2000/svg" viewBox="0 0 64 64" aria-labelledby="title" aria-describedby="desc"><path data-name="layer3" fill="#ffe1bd" d="M29.8 60l11.4-4.3-7-7L29.8 60z"/><path data-name="layer2" fill="#f27e7c" d="M62 35l-7-7-20.8 20.7 7 7L62 35z"/><path data-name="layer1" fill="#a6dbff" d="M56 29V7H2v36h14v9.9L26.8 43h13.1L55 28l1 1z"/><path data-name="opacity" fill="#000064" opacity=".14" d="M36.9 39H2v4h14v9.9L26.8 43h13.1l11.6-11.5L48 28 36.9 39z"/><path data-name="stroke" fill="none" stroke="#2e4369" stroke-linecap="round" stroke-miterlimit="10" stroke-width="2" d="M56 29V7H2v36h14v9.9L26.8 43h13.1" stroke-linejoin="round"/><path data-name="stroke" fill="none" stroke="#2e4369" stroke-linecap="round" stroke-miterlimit="10" stroke-width="2" d="M55 28L34.2 48.7 29.8 60l11.4-4.3L62 35l-7-7zM34.2 48.7l7 7" stroke-linejoin="round"/></svg>