<svg xmlns="http://www.w3.org/2000/svg" viewBox="0 0 64 64" aria-labelledby="title" aria-describedby="desc"><path data-name="layer3" fill="#fff4e3" d="M56 29.9V7H2v36h39.1l14-14 .9.9z"/><path data-name="opacity" fill="#000064" opacity=".14" d="M2 7l27 20.6L56 7v1.5L26 35 2 11.5V7z"/><path data-name="layer2" fill="#ffe1bd" d="M30 61l11.4-4.3-7-7L30 61z"/><path data-name="layer1" fill="#f27e7c" d="M55.1 29L34.4 49.7l7 7L62.2 36l-7.1-7z"/><path data-name="opacity" fill="#000064" opacity=".14" d="M35.1 43h6l10-10-3-3-13 13z"/><path data-name="stroke" fill="none" stroke="#2e4369" stroke-linecap="round" stroke-miterlimit="10" stroke-width="2" d="M41 43H2V7h54v22.7" stroke-linejoin="round"/><path data-name="stroke" fill="none" stroke="#2e4369" stroke-linecap="round" stroke-miterlimit="10" stroke-width="2" d="M2 7l27 20.6L56 7m-.9 22L34.4 49.7 30 61l11.4-4.3L62.2 36l-7.1-7zM34.4 49.7l7 7" stroke-linejoin="round"/></svg>