<svg xmlns="http://www.w3.org/2000/svg" viewBox="0 0 64 64" aria-labelledby="title" aria-describedby="desc"><path data-name="layer2" d="M24.275 14.372a2.972 2.972 0 0 0-2.6-1.7h-9.2a1.487 1.487 0 0 0-1.3.6 1.418 1.418 0 0 0 .1 1.4l6.2 10.783v.1l-9.7 17.173a1.393 1.393 0 0 0 0 1.4 1.21 1.21 0 0 0 1.2.6h9.2a2.748 2.748 0 0 0 2.5-1.8s9.6-16.973 10-17.573c-.1 0-6.4-10.983-6.4-10.983z" fill="#202020"/><path data-name="layer1" d="M61.775 1.991a1.2 1.2 0 0 0 0-1.4 1.21 1.21 0 0 0-1.2-.6h-9.3a2.748 2.748 0 0 0-2.5 1.8s-19.9 35.245-20.5 36.343c0 .1 13.1 24.062 13.1 24.062a3.057 3.057 0 0 0 2.6 1.8h9.2a1.21 1.21 0 0 0 1.2-.6 1.7 1.7 0 0 0 0-1.4l-13-23.763v-.1z" fill="#202020"/></svg>