<svg xmlns="http://www.w3.org/2000/svg" viewBox="0 0 64 64" aria-labelledby="title" aria-describedby="desc"><path data-name="layer2" d="M2 49v-7.7s27.9-12.1 60-15.1c0 5.7-1.8 13.1-12.1 22.8z" fill="#dde5f4"/><circle data-name="layer3" cx="44" cy="37" r="1" fill="#7b8baf"/><circle data-name="layer3" cx="52" cy="35" r="1" fill="#7b8baf"/><path data-name="layer2" d="M20 22.8V15h-8v9.6l8-1.8z" fill="#dde5f4"/><path data-name="layer1" d="M48.7 28L38 21c-14.5 0-30 4.7-30 4.7V39a232.5 232.5 0 0 1 40.7-11z" fill="#a3b8df"/><path data-name="opacity" d="M48.7 28L38 21l-5.9.2 5.6 8.9c3.5-.8 7.2-1.5 11-2.2z" fill="#fff" opacity=".25"/><path data-name="opacity" d="M12 15v9.6l4-.9V15zM8 39l6-2.1V24.2l-6 1.5z" fill="#000064" opacity=".15"/><path data-name="opacity" d="M2 49h47.9l3-3H9v-7l.2-.5C4.7 40.2 2 41.3 2 41.3z" fill="#000064" opacity=".15"/><path data-name="stroke" d="M8 39V25.7S23.5 21 38 21l10.7 7" fill="none" stroke="#2e4369" stroke-linecap="round" stroke-linejoin="round" stroke-width="2"/><path data-name="stroke" fill="none" stroke="#2e4369" stroke-linecap="round" stroke-linejoin="round" stroke-width="2" d="M12 24.6V15h8v7.8M2 49v-7.7s27.9-12.1 60-15.1c0 5.7-1.8 13.1-12.1 22.8z"/><circle data-name="stroke" cx="44" cy="37" r="1" fill="none" stroke="#2e4369" stroke-linecap="round" stroke-linejoin="round" stroke-width="2"/><circle data-name="stroke" cx="52" cy="35" r="1" fill="none" stroke="#2e4369" stroke-linecap="round" stroke-linejoin="round" stroke-width="2"/></svg>