<svg xmlns="http://www.w3.org/2000/svg" viewBox="0 0 64 64" aria-labelledby="title" aria-describedby="desc"><path data-name="layer1" d="M29.015 28.249c1.8.1 3.2-1.1 3.2-3.3s.8-22.792-.9-24.291-8.4-.1-10.3.5c-3.9 1.3-8.3 3.3-8.4 5s14.601 21.891 16.4 22.091zm20.393-12.495c-1.5 0-13.2 13.995-11.2 16.594 1.2 1.6 2.6 1.4 5.9.8S58 30.548 58.2 27.849s-6.193-12.095-8.792-12.095zM26.516 36.346c0-1.8-5.6-4.3-5.6-4.3s-10.2-4.4-12.1-4.2-2.6 5-2.8 8.6c-.4 9.9 4.4 7.3 4.4 7.3s10.1-3.2 12.1-4c2.001-.701 4-1.601 4-3.4zm5.098 6.997c-2.3-.2-5 4-6.4 5.6s-7 7.3-7.1 8.9c0 1.5 3 3.2 7.1 4.7s8.8 2.6 9-.7 0-12.5 0-13.595c-.001-1.006.099-4.605-2.6-4.905zm23.192 1c-2.2-.8-13.995-6.1-16.094-3.8-1.3 1.4-.5 3.8.9 6s6.4 9.9 6.4 9.9.9 2 2.5 2 4.7-2.9 6.3-5.1 3.2-4.8 3.2-6.3-1.012-2-3.206-2.7z" fill="#202020"/></svg>