<svg xmlns="http://www.w3.org/2000/svg" viewBox="0 0 64 64" aria-labelledby="title" aria-describedby="desc"><path data-name="layer1" d="M10.5 50.53h2c4.9 0 9 .1 13.6 2.5 3.5 1.8 6.3 4.6 9.7 6.6 3.2 1.9 6.9 3.9 10.6 4.3 7.5.9 10.6-8.2 9.3-14.2-3.4 2.7-8.1 2.6-12.4 1.5-4-1.3-10.5-5.5-10.5-5.5-2.9-1.8-6.3-3.3-9.7-3.1a2.769 2.769 0 0 1 1-2.7l3.9-4.5c4-4.7 8.1-9.4 12.1-14.1 3.4-4 6.9-8 10.3-12 .4-.4 1.6-1.4 1.6-1.9l.6-5.4c.1-1.3-1.2-1-1.2-1a74.725 74.725 0 0 1-17 1.5 27.889 27.889 0 0 1-9.5-1.6c-.1 0-.7-.4-1.3-.7-.9-.4-1.4-.2-1.7.1-.2.3-.5.6-.7.9a13.918 13.918 0 0 0-3.1 7 5.432 5.432 0 0 0 .2 2.5.31.31 0 0 0 .1.2v.1c.7 1 4 3.9 16.8 1.4-8.3 9.8-16.7 19.7-25.005 29.506a2.251 2.251 0 0 0-.5 1.4v6.1c.205.893.505.993.805 1.094z" fill="#202020"/></svg>