<svg xmlns="http://www.w3.org/2000/svg" viewBox="0 0 64 64" aria-labelledby="title" aria-describedby="desc"><path data-name="layer1" d="M63.4.6a2 2 0 0 0-2.8 0L45 16.1A30.5 30.5 0 0 0 32 13C14 13.1 1.4 30.7.9 31.4l-.8 1.2.8 1.1a53 53 0 0 0 13.7 12.9l-14 14a2 2 0 1 0 2.8 2.8l60-60a2 2 0 0 0 0-2.8zM20 32.1a12 12 0 0 1 12-12 11.9 11.9 0 0 1 6.9 2.2L22.2 39a11.9 11.9 0 0 1-2.2-6.9zm32.1-11.7l-8.5 8.5a12 12 0 0 1-14.8 14.7l-6.7 6.7a29.4 29.4 0 0 0 9.9 1.8c18 0 30.6-17.6 31.1-18.4l.8-1.1-.8-1.1a53.3 53.3 0 0 0-11-11.1z" fill="#202020"/></svg>