<svg xmlns="http://www.w3.org/2000/svg" viewBox="0 0 64 64" aria-labelledby="title" aria-describedby="desc"><circle data-name="layer2" cx="23" cy="23" r="17" fill="#f3f8ff"/><path data-name="opacity" d="M23 6a16.955 16.955 0 0 0-13.415 6.585 16.98 16.98 0 0 1 23.83 23.83A16.986 16.986 0 0 0 23 6z" opacity=".13"/><path data-name="layer1" d="M59.121 54.878L43.244 39.001a3 3 0 0 0-4.243 4.242l15.878 15.879a3 3 0 0 0 4.242-4.244z" fill="#ed4c49"/><circle data-name="stroke" cx="23" cy="23" r="17" fill="none" stroke="#2e4369" stroke-linecap="round" stroke-linejoin="round" stroke-width="2"/><path data-name="stroke" d="M59.121 54.878L43.244 39.001a3 3 0 0 0-4.243 4.242l15.878 15.879a3 3 0 0 0 4.242-4.244zM39.056 39.055L35.02 35.02" fill="none" stroke="#2e4369" stroke-linecap="round" stroke-linejoin="round" stroke-width="2"/></svg>