<?xml version="1.0" encoding="UTF-8" standalone="no"?>
<svg width="34px" height="24px" viewBox="0 0 34 24" version="1.1" xmlns="http://www.w3.org/2000/svg" xmlns:xlink="http://www.w3.org/1999/xlink">
    <!-- Generator: Sketch 3.7.2 (28276) - http://www.bohemiancoding.com/sketch -->
    <title>Icon</title>
    <desc>Created with Sketch.</desc>
    <defs></defs>
    <g id="Page-1" stroke="none" stroke-width="1" fill="none" fill-rule="evenodd">
        <g id="Icons" transform="translate(-236.000000, -310.000000)" fill="#43484D">
            <path d="M268,331 C268,331.551 267.551,332 267,332 L239,332 C238.449,332 238,331.551 238,331 L238,330 L268,330 L268,331 Z M240,313 C240,312.449 240.449,312 241,312 L265,312 C265.551,312 266,312.449 266,313 L266,328 L240,328 L240,313 Z M268,328 L268,313 C268,311.346 266.654,310 265,310 L241,310 C239.346,310 238,311.346 238,313 L238,328 L236,328 L236,331 C236,332.654 237.346,334 239,334 L267,334 C268.654,334 270,332.654 270,331 L270,328 L268,328 Z M242,326 L244,326 L244,314 L242,314 L242,326 Z" id="Icon"></path>
        </g>
    </g>
</svg>