<?xml version="1.0" encoding="UTF-8" standalone="no"?>
<svg width="24px" height="29px" viewBox="0 0 24 29" version="1.1" xmlns="http://www.w3.org/2000/svg" xmlns:xlink="http://www.w3.org/1999/xlink">
    <!-- Generator: Sketch 3.7.2 (28276) - http://www.bohemiancoding.com/sketch -->
    <title>Icon</title>
    <desc>Created with Sketch.</desc>
    <defs></defs>
    <g id="Page-1" stroke="none" stroke-width="1" fill="none" fill-rule="evenodd">
        <g id="Icons" transform="translate(-241.000000, -812.000000)" fill="#44484D">
            <path d="M253,838.25 C249.679,835.014 243,827.641 243,823.463 C243,818.068 247.299,814 253,814 C258.701,814 263,818.068 263,823.463 C263,827.638 256.321,835.012 253,838.25 M253,812 C246.271,812 241,817.035 241,823.463 C241,829.732 251.855,839.933 252.317,840.364 L253,841 L253.683,840.364 C254.145,839.933 265,829.732 265,823.463 C265,817.035 259.729,812 253,812 Z M253,826.8057 C251.346,826.8057 250,825.4597 250,823.8057 C250,822.1517 251.346,820.8057 253,820.8057 C254.654,820.8057 256,822.1517 256,823.8057 C256,825.4597 254.654,826.8057 253,826.8057 Z M253,818.8057 C250.243,818.8057 248,821.0487 248,823.8057 C248,826.5627 250.243,828.8057 253,828.8057 C255.757,828.8057 258,826.5627 258,823.8057 C258,821.0487 255.757,818.8057 253,818.8057 Z" id="Icon"></path>
        </g>
    </g>
</svg>