<?xml version="1.0" encoding="UTF-8" standalone="no"?>
<svg width="34px" height="14px" viewBox="0 0 34 14" version="1.1" xmlns="http://www.w3.org/2000/svg" xmlns:xlink="http://www.w3.org/1999/xlink">
    <!-- Generator: Sketch 3.7.2 (28276) - http://www.bohemiancoding.com/sketch -->
    <title>Icon</title>
    <desc>Created with Sketch.</desc>
    <defs></defs>
    <g id="Page-1" stroke="none" stroke-width="1" fill="none" fill-rule="evenodd">
        <g id="Icons" transform="translate(-308.000000, -460.000000)" fill="#43484D">
            <g id="Icon" transform="translate(300.000000, 442.000000)">
                <path d="M35,30 C33.304,30 31.661,29.392 30.373,28.289 L26.537,25 L30.373,21.711 C31.661,20.608 33.304,20 35,20 C37.757,20 40,22.243 40,25 C40,27.757 37.757,30 35,30 L35,30 Z M19.627,28.289 C18.339,29.392 16.696,30 15,30 C12.243,30 10,27.757 10,25 C10,22.243 12.243,20 15,20 C16.696,20 18.339,20.608 19.627,21.711 L23.463,25 L19.627,28.289 Z M35,18 C32.827,18 30.722,18.779 29.072,20.193 L25,23.683 L20.928,20.193 C19.278,18.779 17.173,18 15,18 C11.141,18 8,21.14 8,25 C8,28.86 11.141,32 15,32 C17.173,32 19.278,31.221 20.928,29.807 L25,26.317 L29.072,29.807 C30.722,31.221 32.827,32 35,32 C38.859,32 42,28.86 42,25 C42,21.14 38.859,18 35,18 L35,18 Z"></path>
            </g>
        </g>
    </g>
</svg>