<?xml version="1.0" encoding="UTF-8" standalone="no"?>
<svg width="32px" height="27px" viewBox="0 0 32 27" version="1.1" xmlns="http://www.w3.org/2000/svg" xmlns:xlink="http://www.w3.org/1999/xlink">
    <!-- Generator: Sketch 3.7.2 (28276) - http://www.bohemiancoding.com/sketch -->
    <title>Icon</title>
    <desc>Created with Sketch.</desc>
    <defs></defs>
    <g id="Page-1" stroke="none" stroke-width="1" fill="none" fill-rule="evenodd">
        <g id="Icons" transform="translate(-20.000000, -1174.000000)" fill="#44484D">
            <path d="M48,1199 C46.897,1199 46,1198.103 46,1197 C46,1195.897 46.897,1195 48,1195 C49.103,1195 50,1195.897 50,1197 C50,1198.103 49.103,1199 48,1199 L48,1199 Z M38,1197 C38,1198.103 37.103,1199 36,1199 C34.897,1199 34,1198.103 34,1197 C34,1195.897 34.897,1195 36,1195 C37.103,1195 38,1195.897 38,1197 L38,1197 Z M26,1197 C26,1198.103 25.103,1199 24,1199 C22.897,1199 22,1198.103 22,1197 C22,1195.897 22.897,1195 24,1195 C25.103,1195 26,1195.897 26,1197 L26,1197 Z M25,1180 L47,1180 L47,1176 L25,1176 L25,1180 Z M49,1193.142 L49,1187 L37,1187 L37,1182 L49,1182 L49,1174 L23,1174 L23,1182 L35,1182 L35,1187 L23,1187 L23,1193.142 C21.279,1193.589 20,1195.141 20,1197 C20,1199.206 21.794,1201 24,1201 C26.206,1201 28,1199.206 28,1197 C28,1195.141 26.721,1193.589 25,1193.142 L25,1189 L35,1189 L35,1193.142 C33.279,1193.589 32,1195.141 32,1197 C32,1199.206 33.794,1201 36,1201 C38.206,1201 40,1199.206 40,1197 C40,1195.141 38.721,1193.589 37,1193.142 L37,1189 L47,1189 L47,1193.142 C45.279,1193.589 44,1195.141 44,1197 C44,1199.206 45.794,1201 48,1201 C50.206,1201 52,1199.206 52,1197 C52,1195.141 50.721,1193.589 49,1193.142 L49,1193.142 Z" id="Icon"></path>
        </g>
    </g>
</svg>