<?xml version="1.0" encoding="UTF-8" standalone="no"?>
<svg width="26px" height="31px" viewBox="0 0 26 31" version="1.1" xmlns="http://www.w3.org/2000/svg" xmlns:xlink="http://www.w3.org/1999/xlink">
    <!-- Generator: Sketch 3.7.2 (28276) - http://www.bohemiancoding.com/sketch -->
    <title>Icon</title>
    <desc>Created with Sketch.</desc>
    <defs></defs>
    <g id="Page-1" stroke="none" stroke-width="1" fill="none" fill-rule="evenodd">
        <g id="Icons" transform="translate(-312.000000, -1171.000000)" fill="#44484D">
            <path d="M336,1187.9679 C336,1195.8949 326.728,1199.3379 325,1199.9099 C323.272,1199.3379 314,1195.8949 314,1187.9679 L314,1174.9339 C316.184,1175.3529 318.502,1175.0359 320.489,1174.0419 C323.276,1172.6509 326.724,1172.6509 329.511,1174.0419 C330.919,1174.7459 332.495,1175.1189 334.07,1175.1189 C334.718,1175.1189 335.364,1175.0559 336,1174.9339 L336,1187.9679 Z M336.059,1172.8719 C334.18,1173.3409 332.135,1173.1169 330.403,1172.2519 C327.065,1170.5829 322.935,1170.5829 319.597,1172.2519 C317.864,1173.1169 315.819,1173.3399 313.94,1172.8719 L313.786,1172.8329 C312.9,1172.6109 312,1173.3159 312,1174.2269 L312,1187.9679 C312,1198.1829 324.207,1201.7739 324.727,1201.9219 L325,1201.9999 L325.273,1201.9219 C325.793,1201.7739 338,1198.1829 338,1187.9679 L338,1174.3799 C338,1173.3929 337.016,1172.6309 336.059,1172.8719 Z M325,1179.9834 C322.243,1179.9834 320,1182.2284 320,1184.9874 C320,1187.7464 322.243,1189.9914 325,1189.9914 C327.757,1189.9914 330,1187.7464 330,1184.9874 C330,1182.2284 327.757,1179.9834 325,1179.9834 Z M325,1187.9894 C323.346,1187.9894 322,1186.6424 322,1184.9874 C322,1183.3314 323.346,1181.9844 325,1181.9844 C326.654,1181.9844 328,1183.3314 328,1184.9874 C328,1186.6424 326.654,1187.9894 325,1187.9894 Z" id="Icon"></path>
        </g>
    </g>
</svg>