<?xml version="1.0" encoding="UTF-8" standalone="no"?>
<svg width="34px" height="34px" viewBox="0 0 34 34" version="1.1" xmlns="http://www.w3.org/2000/svg" xmlns:xlink="http://www.w3.org/1999/xlink">
    <!-- Generator: Sketch 3.7.2 (28276) - http://www.bohemiancoding.com/sketch -->
    <title>Icon</title>
    <desc>Created with Sketch.</desc>
    <defs></defs>
    <g id="Page-1" stroke="none" stroke-width="1" fill="none" fill-rule="evenodd">
        <g id="Icons" transform="translate(-92.000000, -1170.000000)" fill="#44484D">
            <path d="M126,1187.9998 L126,1185.9998 L122.416,1185.9998 C122.197,1183.0388 121.022,1180.3448 119.192,1178.2228 L121.729,1175.6868 L120.314,1174.2728 L117.777,1176.8088 C115.655,1174.9778 112.961,1173.8028 110,1173.5838 L110,1169.9998 L108,1169.9998 L108,1173.5838 C105.039,1173.8028 102.345,1174.9778 100.223,1176.8088 L97.687,1174.2728 L96.272,1175.6868 L98.809,1178.2228 C96.978,1180.3448 95.803,1183.0388 95.584,1185.9998 L92,1185.9998 L92,1187.9998 L95.584,1187.9998 C95.803,1190.9608 96.978,1193.6548 98.809,1195.7778 L96.272,1198.3138 L97.687,1199.7278 L100.223,1197.1918 C102.345,1199.0218 105.039,1200.1968 108,1200.4158 L108,1203.9998 L110,1203.9998 L110,1200.4158 C112.961,1200.1968 115.655,1199.0218 117.777,1197.1918 L120.314,1199.7278 L121.729,1198.3138 L119.192,1195.7778 C121.022,1193.6548 122.197,1190.9608 122.416,1187.9998 L126,1187.9998 Z M109,1198.4668 C102.677,1198.4668 97.533,1193.3228 97.533,1186.9998 C97.533,1180.6768 102.677,1175.5328 109,1175.5328 C115.323,1175.5328 120.467,1180.6768 120.467,1186.9998 C120.467,1193.3228 115.323,1198.4668 109,1198.4668 Z M109,1180.9539 C105.666,1180.9539 102.954,1183.6659 102.954,1186.9999 C102.954,1190.3339 105.666,1193.0459 109,1193.0459 C112.334,1193.0459 115.046,1190.3339 115.046,1186.9999 C115.046,1183.6659 112.334,1180.9539 109,1180.9539 Z M109,1191.0459 C106.77,1191.0459 104.954,1189.2309 104.954,1186.9999 C104.954,1184.7699 106.77,1182.9539 109,1182.9539 C111.23,1182.9539 113.046,1184.7699 113.046,1186.9999 C113.046,1189.2309 111.23,1191.0459 109,1191.0459 Z" id="Icon"></path>
        </g>
    </g>
</svg>