<?xml version="1.0" encoding="UTF-8" standalone="no"?>
<svg width="33px" height="29px" viewBox="0 0 33 29" version="1.1" xmlns="http://www.w3.org/2000/svg" xmlns:xlink="http://www.w3.org/1999/xlink">
    <!-- Generator: Sketch 3.7.2 (28276) - http://www.bohemiancoding.com/sketch -->
    <title>Icon</title>
    <desc>Created with Sketch.</desc>
    <defs></defs>
    <g id="Page-1" stroke="none" stroke-width="1" fill="none" fill-rule="evenodd">
        <g id="Icons" transform="translate(-19.000000, -1100.000000)" fill="#44484D">
            <path d="M27.604,1126.9991 L28.525,1109.0941 L26.527,1108.9911 L26.282,1113.7601 L21.442,1111.3241 L22.141,1109.2091 C23.171,1105.8481 25.943,1103.2671 29.366,1102.3861 C29.467,1105.2591 31.644,1107.6161 34.463,1108.0671 L34.479,1111.9941 L36.479,1111.9861 L36.463,1108.0611 C39.251,1107.5941 41.399,1105.2611 41.516,1102.4191 C44.428,1103.2621 46.849,1105.3911 47.998,1108.2021 L49.398,1111.3621 L44.713,1113.7061 L44.47,1108.9911 L42.472,1109.0941 L43.393,1126.9991 L27.604,1126.9991 Z M52,1112.2981 L49.837,1107.4181 C48.291,1103.6321 44.784,1100.8591 40.684,1100.1831 L39.521,1100.0001 L39.521,1102.1751 C39.521,1104.3671 37.691,1106.1501 35.441,1106.1501 C33.192,1106.1501 31.362,1104.3671 31.362,1102.1751 L31.362,1100.0181 L30.222,1100.1791 C25.52,1100.8431 21.597,1104.1571 20.236,1108.6021 L19,1112.3361 L26.17,1115.9431 L25.499,1129.0001 L45.499,1129.0001 L44.825,1115.8871 L52,1112.2981 Z" id="Icon"></path>
        </g>
    </g>
</svg>