<?xml version="1.0" encoding="UTF-8" standalone="no"?>
<svg width="32px" height="28px" viewBox="0 0 32 28" version="1.1" xmlns="http://www.w3.org/2000/svg" xmlns:xlink="http://www.w3.org/1999/xlink">
    <!-- Generator: Sketch 3.7.2 (28276) - http://www.bohemiancoding.com/sketch -->
    <title>Icon</title>
    <desc>Created with Sketch.</desc>
    <defs></defs>
    <g id="Page-1" stroke="none" stroke-width="1" fill="none" fill-rule="evenodd">
        <g id="Icons" transform="translate(-309.000000, -381.000000)" fill="#43484D">
            <path d="M338,407 L312,407 C311.449,407 311,406.551 311,406 L311,389 C311,388.449 311.449,388 312,388 L317.816,388 L318.673,383.8 C318.768,383.336 319.18,383 319.653,383 L330.347,383 C330.82,383 331.232,383.336 331.327,383.8 L332,387.1 L332,389 C332,390.654 333.346,392 335,392 L339,392 L339,406 C339,406.551 338.551,407 338,407 M339,389 L339,390 L335,390 C334.449,390 334,389.551 334,389 L334,388 L338,388 C338.551,388 339,388.449 339,389 M338,386 L333.816,386 L333.287,383.4 C333.003,382.009 331.767,381 330.347,381 L319.653,381 C318.233,381 316.997,382.009 316.713,383.4 L316.184,386 L312,386 C310.346,386 309,387.346 309,389 L309,406 C309,407.654 310.346,409 312,409 L338,409 C339.654,409 341,407.654 341,406 L341,389 C341,387.346 339.654,386 338,386 Z M325,392 C321.691,392 319,394.691 319,398 C319,401.309 321.691,404 325,404 C328.309,404 331,401.309 331,398 C331,394.691 328.309,392 325,392 Z M325,402 C322.794,402 321,400.206 321,398 C321,395.794 322.794,394 325,394 C327.206,394 329,395.794 329,398 C329,400.206 327.206,402 325,402 Z M314,404 L316,404 L316,392 L314,392 L314,404 Z" id="Icon"></path>
        </g>
    </g>
</svg>