<?xml version="1.0" encoding="UTF-8" standalone="no"?>
<svg width="32px" height="28px" viewBox="0 0 32 28" version="1.1" xmlns="http://www.w3.org/2000/svg" xmlns:xlink="http://www.w3.org/1999/xlink">
    <!-- Generator: Sketch 3.7.2 (28276) - http://www.bohemiancoding.com/sketch -->
    <title>Combined Shape</title>
    <desc>Created with Sketch.</desc>
    <defs></defs>
    <g id="Page-1" stroke="none" stroke-width="1" fill="none" fill-rule="evenodd">
        <g id="Icons" transform="translate(-93.000000, -525.000000)" fill="#43484D">
            <path d="M102,531 C100.897,531 100,530.103 100,529 C100,527.897 100.897,527 102,527 C103.103,527 104,527.897 104,529 C104,530.103 103.103,531 102,531 Z M107,551 C105.897,551 105,550.103 105,549 C105,547.897 105.897,547 107,547 C108.103,547 109,547.897 109,549 C109,550.103 108.103,551 107,551 Z M105.858,528 C105.411,526.279 103.859,525 102,525 C100.141,525 98.589,526.279 98.142,528 L93,528 L93,530 L98.142,530 C98.589,531.721 100.141,533 102,533 C103.859,533 105.411,531.721 105.858,530 L125,530 L125,528 L105.858,528 Z M117,535 C115.141,535 113.589,536.279 113.142,538 L93,538 L93,540 L113.142,540 C113.589,541.721 115.141,543 117,543 C118.859,543 120.411,541.721 120.858,540 L125,540 L125,538 L120.858,538 C120.411,536.279 118.859,535 117,535 Z M117,541 C115.897,541 115,540.103 115,539 C115,537.897 115.897,537 117,537 C118.103,537 119,537.897 119,539 C119,540.103 118.103,541 117,541 Z M107,545 C105.141,545 103.589,546.279 103.142,548 L93,548 L93,550 L103.142,550 C103.589,551.721 105.141,553 107,553 C108.859,553 110.411,551.721 110.858,550 L125,550 L125,548 L110.858,548 C110.411,546.279 108.859,545 107,545 Z" id="Combined-Shape"></path>
        </g>
    </g>
</svg>