<?xml version="1.0" encoding="UTF-8" standalone="no"?>
<svg width="30px" height="30px" viewBox="0 0 30 30" version="1.1" xmlns="http://www.w3.org/2000/svg" xmlns:xlink="http://www.w3.org/1999/xlink">
    <!-- Generator: Sketch 3.7.2 (28276) - http://www.bohemiancoding.com/sketch -->
    <title>Icon</title>
    <desc>Created with Sketch.</desc>
    <defs></defs>
    <g id="Page-1" stroke="none" stroke-width="1" fill="none" fill-rule="evenodd">
        <g id="Icons" transform="translate(-167.000000, -668.000000)" fill="#44484D">
            <path d="M196.1255,692.8002 L188.3215,684.8492 C189.1545,683.2492 189.6315,681.4292 189.6315,679.4962 C189.6315,673.1572 184.5545,668.0002 178.3155,668.0002 C172.0755,668.0002 166.9985,673.1572 166.9985,679.4962 C166.9985,685.8352 172.0755,690.9912 178.3155,690.9912 C180.4695,690.9912 182.4785,690.3652 184.1945,689.2992 L191.8515,697.0992 C192.4215,697.6802 193.1805,698.0002 193.9885,698.0002 L193.9895,698.0002 C194.7985,698.0002 195.5555,697.6792 196.1255,697.0992 C197.2895,695.9142 197.2895,693.9852 196.1255,692.8002 Z M194.6975,695.6992 C194.5075,695.8932 194.2565,696.0002 193.9895,696.0002 L193.9885,696.0002 C193.7215,696.0002 193.4695,695.8922 193.2795,695.6992 L185.8075,688.0872 C186.3195,687.6262 186.7905,687.1222 187.2125,686.5752 L194.6975,694.2002 C195.1035,694.6132 195.1035,695.2862 194.6975,695.6992 Z M168.9985,679.4962 C168.9985,674.2602 173.1775,670.0002 178.3155,670.0002 C183.4525,670.0002 187.6315,674.2602 187.6315,679.4962 C187.6315,684.7312 183.4525,688.9912 178.3155,688.9912 C173.1775,688.9912 168.9985,684.7312 168.9985,679.4962 Z M171.9121,678.9941 L173.9121,678.9941 C173.9121,676.2391 176.1071,673.9981 178.8071,673.9981 L178.8071,671.9981 C175.0051,671.9981 171.9121,675.1371 171.9121,678.9941 Z" id="Icon"></path>
        </g>
    </g>
</svg>