<?xml version="1.0" encoding="UTF-8" standalone="no"?>
<svg width="32px" height="32px" viewBox="0 0 32 32" version="1.1" xmlns="http://www.w3.org/2000/svg" xmlns:xlink="http://www.w3.org/1999/xlink">
    <!-- Generator: Sketch 3.7.2 (28276) - http://www.bohemiancoding.com/sketch -->
    <title>Icon</title>
    <desc>Created with Sketch.</desc>
    <defs></defs>
    <g id="Page-1" stroke="none" stroke-width="1" fill="none" fill-rule="evenodd">
        <g id="Icons" transform="translate(-21.000000, -1388.000000)" fill="#43484D">
            <path d="M38,1410.063 C41.263,1410.333 44.244,1411.897 46.304,1414.432 C44.062,1416.434 41.179,1417.723 38,1417.95 L38,1410.063 Z M27.696,1414.432 C29.755,1411.896 32.737,1410.333 36,1410.063 L36,1417.95 C32.821,1417.723 29.938,1416.434 27.696,1414.432 L27.696,1414.432 Z M26.297,1394.994 C28.751,1397.916 32.216,1399.677 36,1399.944 L36,1403 L23.051,1403 C23.267,1399.963 24.446,1397.191 26.297,1394.994 L26.297,1394.994 Z M38,1397.944 L38,1390.051 C41.178,1390.277 44.059,1391.565 46.301,1393.565 C44.221,1396.121 41.251,1397.676 38,1397.944 L38,1397.944 Z M36,1397.944 C32.749,1397.677 29.779,1396.121 27.699,1393.565 C29.941,1391.565 32.823,1390.277 36,1390.051 L36,1397.944 Z M50.949,1403 L38,1403 L38,1399.944 C41.783,1399.677 45.249,1397.916 47.704,1394.995 C49.555,1397.192 50.733,1399.964 50.949,1403 L50.949,1403 Z M26.284,1412.991 C24.44,1410.797 23.266,1408.03 23.051,1405 L36,1405 L36,1408.063 C32.203,1408.332 28.715,1410.093 26.284,1412.991 L26.284,1412.991 Z M38,1408.063 L38,1405 L50.949,1405 C50.734,1408.03 49.56,1410.797 47.716,1412.991 C45.285,1410.093 41.797,1408.332 38,1408.063 L38,1408.063 Z M53,1404 C53,1395.164 45.837,1388 37,1388 C28.163,1388 21,1395.164 21,1404 C21,1412.499 27.632,1419.431 36,1419.95 L36,1420 L38,1420 L38,1419.95 C46.368,1419.431 53,1412.499 53,1404 L53,1404 Z" id="Icon"></path>
        </g>
    </g>
</svg>