<?xml version="1.0" encoding="UTF-8" standalone="no"?>
<svg width="30px" height="26px" viewBox="0 0 30 26" version="1.1" xmlns="http://www.w3.org/2000/svg" xmlns:xlink="http://www.w3.org/1999/xlink">
    <!-- Generator: Sketch 3.7.2 (28276) - http://www.bohemiancoding.com/sketch -->
    <title>Icon</title>
    <desc>Created with Sketch.</desc>
    <defs></defs>
    <g id="Page-1" stroke="none" stroke-width="1" fill="none" fill-rule="evenodd">
        <g id="Icons" transform="translate(-165.000000, -1391.000000)" fill="#43484D">
            <path d="M192,1412 C191.448,1412 191,1411.552 191,1411 C191,1410.448 191.448,1410 192,1410 C192.552,1410 193,1410.448 193,1411 C193,1411.552 192.552,1412 192,1412 M168,1404 C167.448,1404 167,1403.552 167,1403 C167,1402.448 167.448,1402 168,1402 C168.552,1402 169,1402.448 169,1403 C169,1403.552 168.552,1404 168,1404 M192,1408 C190.698,1408 189.598,1408.839 189.184,1410 L189,1410 L187,1410 C186.448,1410 186,1409.552 186,1409 L186,1403 C186,1401.346 184.654,1400 183,1400 C181.346,1400 180,1401.346 180,1403 L180,1414 C180,1414.552 179.552,1415 179,1415 C178.448,1415 178,1414.552 178,1414 L178,1394 C178,1392.346 176.654,1391 175,1391 C173.346,1391 172,1392.346 172,1394 L172,1401 C172,1401.552 171.552,1402 171,1402 L170.816,1402 C170.402,1400.839 169.302,1400 168,1400 C166.346,1400 165,1401.346 165,1403 C165,1404.654 166.346,1406 168,1406 C169.302,1406 170.402,1405.161 170.816,1404 L171,1404 C172.654,1404 174,1402.654 174,1401 L174,1394 C174,1393.448 174.448,1393 175,1393 C175.552,1393 176,1393.448 176,1394 L176,1414 C176,1415.654 177.346,1417 179,1417 C180.654,1417 182,1415.654 182,1414 L182,1403 C182,1402.448 182.448,1402 183,1402 C183.552,1402 184,1402.448 184,1403 L184,1409 C184,1410.654 185.346,1412 187,1412 L189,1412 L189.184,1412 C189.598,1413.161 190.698,1414 192,1414 C193.654,1414 195,1412.654 195,1411 C195,1409.346 193.654,1408 192,1408" id="Icon"></path>
        </g>
    </g>
</svg>