<?xml version="1.0" encoding="UTF-8" standalone="no"?>
<svg width="34px" height="32px" viewBox="0 0 34 32" version="1.1" xmlns="http://www.w3.org/2000/svg" xmlns:xlink="http://www.w3.org/1999/xlink">
    <!-- Generator: Sketch 3.7.2 (28276) - http://www.bohemiancoding.com/sketch -->
    <title>Icon</title>
    <desc>Created with Sketch.</desc>
    <defs></defs>
    <g id="Page-1" stroke="none" stroke-width="1" fill="none" fill-rule="evenodd">
        <g id="Icons" transform="translate(-235.000000, -1388.000000)" fill="#43484D">
            <path d="M268.9996,1405 C268.9996,1395.611 261.3886,1388 251.9996,1388 C242.6116,1388 234.9996,1395.611 234.9996,1405 C234.9996,1410.224 237.3666,1414.885 241.0776,1418 L236.9996,1418 L236.9996,1420 L266.9996,1420 L266.9996,1418 L262.9156,1418 C266.6286,1414.885 268.9996,1410.226 268.9996,1405 M254,1404 L253,1404 L253,1402 L256,1402 L256,1400 L253,1400 L253,1398 L251,1398 L251,1400 L250,1400 C248.346,1400 247,1401.346 247,1403 C247,1404.654 248.346,1406 250,1406 L251,1406 L251,1408 L248,1408 L248,1410 L251,1410 L251,1412 L253,1412 L253,1410 L254,1410 C255.654,1410 257,1408.654 257,1407 C257,1405.346 255.654,1404 254,1404 Z M254,1408 L253,1408 L253,1406 L254,1406 C254.552,1406 255,1406.448 255,1407 C255,1407.552 254.552,1408 254,1408 Z M259.4396,1418 L244.5646,1418 C240.0546,1415.412 236.9996,1410.563 236.9996,1405 C236.9996,1396.729 243.7286,1390 251.9996,1390 C260.2706,1390 266.9996,1396.729 266.9996,1405 C266.9996,1410.562 263.9486,1415.411 259.4396,1418 Z M251,1404 L250,1404 C249.448,1404 249,1403.552 249,1403 C249,1402.448 249.448,1402 250,1402 L251,1402 L251,1404 Z" id="Icon"></path>
        </g>
    </g>
</svg>