<?xml version="1.0" encoding="UTF-8" standalone="no"?>
<svg width="31px" height="30px" viewBox="0 0 31 30" version="1.1" xmlns="http://www.w3.org/2000/svg" xmlns:xlink="http://www.w3.org/1999/xlink">
    <!-- Generator: Sketch 3.7.2 (28276) - http://www.bohemiancoding.com/sketch -->
    <title>Icon</title>
    <desc>Created with Sketch.</desc>
    <defs></defs>
    <g id="Page-1" stroke="none" stroke-width="1" fill="none" fill-rule="evenodd">
        <g id="Icons" transform="translate(-309.000000, -236.000000)" fill="#43484D">
            <g id="Icon" transform="translate(300.000000, 226.000000)">
                <path d="M37.3300288,18.132 L39.0789741,16.132 C40.046837,15.041 40.2705742,13.519 39.66129,12.161 C39.0629929,10.828 37.8054702,10 36.3791459,10 L16.9170106,10 L10.0360945,17.868 C9.78638781,18.149 9.58362602,18.462 9.43280321,18.8 C8.92839581,19.926 9.04326086,21.286 9.73245118,22.351 C10.1979044,23.071 10.8691158,23.561 11.6372134,23.809 L9.88427282,25.98 C8.94637468,27.069 8.73861876,28.563 9.34191,29.88 C9.78538899,30.852 10.5944385,31.549 11.5652979,31.843 L9.88427282,33.905 C8.9393829,35.002 8.73562228,36.519 9.35089944,37.864 C9.95319185,39.182 11.2067192,40 12.6200587,40 L32.198058,40 L39.0789741,32.132 C40.046837,31.041 40.2705742,29.519 39.66129,28.161 C39.2008309,27.135 38.3478331,26.413 37.3300288,26.132 L39.0789741,24.132 C40.046837,23.041 40.2705742,21.519 39.66129,20.161 C39.2008309,19.135 38.3478331,18.413 37.3300288,18.132 Z M36.3791459,28 C37.0173961,28 37.5627554,28.366 37.8384315,28.98 C38.060171,29.474 38.1101123,30.213 37.5807343,30.809 L31.2921223,38 L12.6200587,38 C11.9878015,38 11.4444399,37.638 11.1667661,37.031 C11.0369187,36.746 10.9799855,36.378 11.0449093,36 L26,36 L26,34 L12.3853345,34 L14.0154194,32 L32.198058,32 L35.6959486,28 L36.3791459,28 Z M31.2921223,30 L12.6200587,30 C11.9768144,30 11.4304563,29.644 11.1567778,29.047 C10.9999621,28.703 10.9739926,28.343 11.0519011,28 L18,28 L18,26 L12.4362747,26 L14.0503784,24 L32.198058,24 L35.6959486,20 L36.3791459,20 C37.0173961,20 37.5627554,20.366 37.8384315,20.98 C38.060171,21.474 38.1101123,22.213 37.5807343,22.809 L31.2921223,30 Z M11.1437931,20 L23,20 L23,18 L12.5761104,18 L17.8229462,12 L36.3791459,12 C37.0173961,12 37.5627554,12.366 37.8384315,12.98 C38.060171,13.474 38.1101123,14.213 37.5807343,14.809 L31.2921223,22 L12.7359226,22 C11.9957921,22 11.5872721,21.538 11.4084821,21.264 C11.161772,20.881 11.0708788,20.424 11.1437931,20 Z"></path>
            </g>
        </g>
    </g>
</svg>