<?xml version="1.0" encoding="UTF-8" standalone="no"?>
<svg width="32px" height="27px" viewBox="0 0 32 27" version="1.1" xmlns="http://www.w3.org/2000/svg" xmlns:xlink="http://www.w3.org/1999/xlink">
    <!-- Generator: Sketch 3.7.2 (28276) - http://www.bohemiancoding.com/sketch -->
    <title>Icon</title>
    <desc>Created with Sketch.</desc>
    <defs></defs>
    <g id="Page-1" stroke="none" stroke-width="1" fill="none" fill-rule="evenodd">
        <g id="Icons" transform="translate(-309.000000, -671.000000)" fill="#44484D">
            <path d="M327.304,693.3338 L331.734,683.7928 L337.048,681.7998 C334.37,686.0798 331.106,689.9448 327.304,693.3338 L327.304,693.3338 Z M312.921,681.3928 L318.251,683.7618 L322.451,692.8058 L321.767,692.1528 C318.392,688.9348 315.426,685.3108 312.921,681.3928 L312.921,681.3928 Z M328.764,673.9998 L321.236,673.9998 L319.236,672.9998 L330.764,672.9998 L328.764,673.9998 Z M321.78,675.9998 L328.22,675.9998 L329.719,681.9998 L320.281,681.9998 L321.78,675.9998 Z M311.693,678.6578 L315.593,673.4148 L319.836,675.5358 L318.319,681.6028 L311.693,678.6578 Z M325,693.5468 L320.567,683.9998 L329.433,683.9998 L325,693.5468 Z M331.698,681.6698 L330.164,675.5358 L334.407,673.4148 L338.617,679.0758 L331.698,681.6698 Z M335.103,670.9998 L314.897,670.9998 L309,678.9278 L309.603,679.8928 L309.594,679.9138 L309.625,679.9278 L310.887,681.9488 C313.55,686.2098 316.741,690.1248 320.386,693.6008 L325,697.9998 L328.054,695.3528 C333.379,690.7368 337.772,685.1638 341,678.9278 L341,678.9278 L335.103,670.9998 Z" id="Icon"></path>
        </g>
    </g>
</svg>