<?xml version="1.0" encoding="UTF-8" standalone="no"?>
<svg width="32px" height="34px" viewBox="0 0 32 34" version="1.1" xmlns="http://www.w3.org/2000/svg" xmlns:xlink="http://www.w3.org/1999/xlink">
    <!-- Generator: Sketch 3.7.2 (28276) - http://www.bohemiancoding.com/sketch -->
    <title>Icon</title>
    <desc>Created with Sketch.</desc>
    <defs></defs>
    <g id="Page-1" stroke="none" stroke-width="1" fill="none" fill-rule="evenodd">
        <g id="Icons" transform="translate(-237.000000, -450.000000)" fill="#43484D">
            <path d="M237,484 L239,484 L239,476 L237,476 L237,484 Z M242,484 L244,484 L244,462 L242,462 L242,484 Z M247,484 L249,484 L249,471 L247,471 L247,484 Z M252,484 L254,484 L254,450 L252,450 L252,484 Z M262,484 L264,484 L264,450 L262,450 L262,484 Z M267,484 L269.001,484 L269.001,461 L267,461 L267,484 Z M257,484 L259,484 L259,456 L257,456 L257,484 Z" id="Icon"></path>
        </g>
    </g>
</svg>