<?xml version="1.0" encoding="UTF-8" standalone="no"?>
<svg width="27px" height="24px" viewBox="0 0 27 24" version="1.1" xmlns="http://www.w3.org/2000/svg" xmlns:xlink="http://www.w3.org/1999/xlink">
    <!-- Generator: Sketch 3.7.2 (28276) - http://www.bohemiancoding.com/sketch -->
    <title>Icon</title>
    <desc>Created with Sketch.</desc>
    <defs></defs>
    <g id="Page-1" stroke="none" stroke-width="1" fill="none" fill-rule="evenodd">
        <g id="Icons" transform="translate(-239.000000, -743.000000)" fill="#44484D">
            <path d="M251.952,766.996143 L241.524,756.733143 C239.896,755.131143 239,753.022143 239,750.798143 C239,748.688143 239.819,746.722143 241.306,745.258143 C244.447,742.167143 249.658,742.260143 252.92,745.471143 L264.218,756.590143 C265.367,757.721143 266,759.210143 266,760.784143 C266,762.280143 265.418,763.677143 264.362,764.716143 C262.139,766.904143 258.454,766.839143 256.152,764.573143 L245.724,754.309143 C245.054,753.649143 244.684,752.778143 244.684,751.857143 C244.683,750.974143 245.027,750.148143 245.652,749.534143 C246.957,748.250143 249.112,748.281143 250.458,749.605143 L260.017,759.014143 L258.615,760.439143 L249.056,751.031143 C248.484,750.469143 247.589,750.436143 247.055,750.960143 C246.815,751.195143 246.684,751.514143 246.684,751.856143 C246.684,752.238143 246.842,752.602143 247.127,752.884143 L257.555,763.147143 C259.085,764.652143 261.509,764.717143 262.96,763.290143 C263.631,762.630143 264,761.740143 264,760.783143 C264,759.751143 263.579,758.767143 262.815,758.016143 L251.517,746.896143 C249.029,744.448143 245.078,744.352143 242.709,746.684143 C241.607,747.767143 241,749.229143 241,750.798143 C241,752.482143 241.684,754.085143 242.927,755.308143 L253.354,765.570143 L251.952,766.996143 Z" id="Icon"></path>
        </g>
    </g>
</svg>