<?xml version="1.0" encoding="UTF-8" standalone="no"?>
<svg width="30px" height="34px" viewBox="0 0 30 34" version="1.1" xmlns="http://www.w3.org/2000/svg" xmlns:xlink="http://www.w3.org/1999/xlink">
    <!-- Generator: Sketch 3.7.2 (28276) - http://www.bohemiancoding.com/sketch -->
    <title>Fill 20</title>
    <desc>Created with Sketch.</desc>
    <defs></defs>
    <g id="Page-1" stroke="none" stroke-width="1" fill="none" fill-rule="evenodd">
        <g id="Icons" transform="translate(-309.000000, -1387.000000)" fill="#43484D">
            <path d="M337,1402.764 C337,1403.146 336.788,1403.489 336.448,1403.659 C336.171,1403.797 335.828,1403.797 335.553,1403.659 L333.341,1402.553 C333.223,1402.494 333.094,1402.461 332.969,1402.419 C332.813,1397.451 330.682,1392.761 327.043,1389.375 C332.745,1390.75 337,1395.882 337,1402 L337,1402.764 Z M328.447,1403.659 C328.174,1403.797 327.83,1403.798 327.553,1403.659 L325.341,1402.553 C325.233,1402.499 325.114,1402.471 325,1402.431 L325,1390.204 L325.321,1390.486 C328.788,1393.519 330.815,1397.852 330.97,1402.441 C330.866,1402.479 330.757,1402.504 330.658,1402.553 L328.447,1403.659 Z M320.447,1403.659 C320.174,1403.797 319.83,1403.798 319.553,1403.659 L317.341,1402.553 C317.242,1402.504 317.134,1402.48 317.03,1402.442 C317.185,1397.853 319.211,1393.519 322.679,1390.486 L323,1390.204 L323,1402.431 C322.886,1402.471 322.767,1402.499 322.658,1402.553 L320.447,1403.659 Z M312.448,1403.659 C312.171,1403.797 311.828,1403.797 311.553,1403.659 C311.212,1403.489 311,1403.146 311,1402.764 L311,1402 C311,1395.882 315.255,1390.75 320.957,1389.375 C317.317,1392.761 315.187,1397.452 315.031,1402.42 C314.906,1402.462 314.777,1402.494 314.658,1402.553 L312.448,1403.659 Z M324,1387 C315.729,1387 309,1393.729 309,1402 L309,1402.764 C309,1403.908 309.636,1404.936 310.659,1405.448 C311.487,1405.862 312.512,1405.862 313.342,1405.448 L315.553,1404.342 C315.83,1404.203 316.173,1404.204 316.446,1404.342 L318.659,1405.448 C319.488,1405.863 320.515,1405.862 321.342,1405.448 L323,1404.618 L323,1416 C323,1417.655 321.654,1419 320,1419 C318.346,1419 317,1417.655 317,1416 L315,1416 C315,1418.757 317.243,1421 320,1421 C322.757,1421 325,1418.757 325,1416 L325,1404.618 L326.659,1405.448 C327.489,1405.863 328.516,1405.862 329.342,1405.448 L331.552,1404.342 C331.829,1404.203 332.172,1404.203 332.447,1404.342 L334.659,1405.448 C335.073,1405.655 335.537,1405.764 336,1405.764 C336.463,1405.764 336.927,1405.655 337.342,1405.448 C338.364,1404.936 339,1403.908 339,1402.764 L339,1402 C339,1393.729 332.271,1387 324,1387 L324,1387 Z" id="Fill-20"></path>
        </g>
    </g>
</svg>