<?xml version="1.0" encoding="UTF-8" standalone="no"?>
<svg width="29px" height="27px" viewBox="0 0 29 27" version="1.1" xmlns="http://www.w3.org/2000/svg" xmlns:xlink="http://www.w3.org/1999/xlink">
    <!-- Generator: Sketch 3.7.2 (28276) - http://www.bohemiancoding.com/sketch -->
    <title>Icon</title>
    <desc>Created with Sketch.</desc>
    <defs></defs>
    <g id="Page-1" stroke="none" stroke-width="1" fill="none" fill-rule="evenodd">
        <g id="Icons" transform="translate(-166.000000, -1029.000000)" fill="#44484D">
            <path d="M195,1036.8594 L190.568,1034.7084 L188.344,1039.0244 L190.121,1039.9404 L190.836,1038.5534 C191.449,1039.9314 191.786,1041.4214 191.786,1042.9304 C191.786,1049.0344 186.655,1054.0004 180.349,1054.0004 C178.446,1054.0004 176.562,1053.5384 174.897,1052.6644 L173.968,1054.4334 C175.917,1055.4594 178.123,1056.0004 180.349,1056.0004 C187.758,1056.0004 193.786,1050.1364 193.786,1042.9304 C193.786,1041.2404 193.438,1039.5654 192.787,1038.0084 L194.127,1038.6584 L195,1036.8594 Z M170.164,1046.4464 C169.552,1045.0684 169.214,1043.5784 169.214,1042.0694 C169.214,1035.9654 174.345,1031.0004 180.651,1031.0004 C182.554,1031.0004 184.438,1031.4624 186.103,1032.3364 L187.032,1030.5664 C185.083,1029.5414 182.877,1029.0004 180.651,1029.0004 C173.242,1029.0004 167.214,1034.8634 167.214,1042.0694 C167.214,1043.7594 167.562,1045.4344 168.213,1046.9914 L166.873,1046.3414 L166,1048.1404 L170.432,1050.2924 L172.656,1045.9754 L170.879,1045.0594 L170.164,1046.4464 Z" id="Icon"></path>
        </g>
    </g>
</svg>