<?xml version="1.0" encoding="UTF-8" standalone="no"?>
<svg width="34px" height="27px" viewBox="0 0 34 27" version="1.1" xmlns="http://www.w3.org/2000/svg" xmlns:xlink="http://www.w3.org/1999/xlink">
    <!-- Generator: Sketch 3.7.2 (28276) - http://www.bohemiancoding.com/sketch -->
    <title>Icon</title>
    <desc>Created with Sketch.</desc>
    <defs></defs>
    <g id="Page-1" stroke="none" stroke-width="1" fill="none" fill-rule="evenodd">
        <g id="Icons" transform="translate(-92.000000, -166.000000)" fill="#43484D">
            <path d="M123,191 L95,191 C94.595,191 94.248,190.755 94.091,190.407 L103.625,182.781 L102.375,181.219 L94,187.92 L94,169.323 L109,182.323 L124,169.323 L124,187.92 L115.625,181.219 L114.375,182.781 L123.909,190.407 C123.752,190.755 123.405,191 123,191 L123,191 Z M122.473,168 L109,179.677 L95.527,168 L122.473,168 Z M123,166 L95,166 C93.346,166 92,167.346 92,169 L92,190 C92,191.654 93.346,193 95,193 L123,193 C124.654,193 126,191.654 126,190 L126,169 C126,167.346 124.654,166 123,166 L123,166 Z" id="Icon"></path>
        </g>
    </g>
</svg>