<?xml version="1.0" encoding="UTF-8" standalone="no"?>
<svg width="26px" height="26px" viewBox="0 0 26 26" version="1.1" xmlns="http://www.w3.org/2000/svg" xmlns:xlink="http://www.w3.org/1999/xlink">
    <!-- Generator: Sketch 3.7.2 (28276) - http://www.bohemiancoding.com/sketch -->
    <title>Icon</title>
    <desc>Created with Sketch.</desc>
    <defs></defs>
    <g id="Page-1" stroke="none" stroke-width="1" fill="none" fill-rule="evenodd">
        <g id="Icons" transform="translate(-240.000000, -1246.000000)" fill="#44484D">
            <path d="M255.405873,1265.57539 L241.964554,1252.13432 L242.035313,1248.03527 L246.134439,1247.9655 L259.575759,1261.40558 L255.405873,1265.57539 Z M263.755472,1268.36541 C264.136786,1268.74672 264.135803,1269.3688 263.752523,1269.75207 C263.368261,1270.13535 262.747151,1270.13731 262.365837,1269.75601 L258.185142,1265.57539 L259.575759,1264.18578 L263.755472,1268.36541 Z M262.355027,1258.62637 L260.965393,1260.01597 L246.949154,1246 L240.117932,1246.11793 L240,1252.94902 L254.016239,1266.965 L252.626605,1268.3546 L254.016239,1269.7452 L256.795508,1266.965 L260.976203,1271.14561 C262.119163,1272.28855 263.985439,1272.28462 265.135278,1271.1348 C266.284134,1269.98499 266.289048,1268.11973 265.145106,1266.97581 L260.965393,1262.79617 L263.744661,1260.01597 L262.355027,1258.62637 Z" id="Icon"></path>
        </g>
    </g>
</svg>