<?xml version="1.0" encoding="UTF-8" standalone="no"?>
<svg width="34px" height="23px" viewBox="0 0 34 23" version="1.1" xmlns="http://www.w3.org/2000/svg" xmlns:xlink="http://www.w3.org/1999/xlink">
    <!-- Generator: Sketch 3.7.2 (28276) - http://www.bohemiancoding.com/sketch -->
    <title>Icon</title>
    <desc>Created with Sketch.</desc>
    <defs></defs>
    <g id="Page-1" stroke="none" stroke-width="1" fill="none" fill-rule="evenodd">
        <g id="Icons" transform="translate(-236.000000, -528.000000)" fill="#43484D">
            <path d="M261.523,549 L243,549 C240.243,549 238,546.757 238,544 C238,541.243 240.243,539 243,539 L245,539 L245,537 C245,533.141 248.14,530 252,530 C254.952,530 257.561,531.886 258.558,534.594 C255.344,535.799 253.047,538.894 253.047,542.523 L255.047,542.523 C255.047,538.953 257.953,536.048 261.523,536.048 C265.094,536.048 268,538.953 268,542.523 C268,546.095 265.094,549 261.523,549 M270,542.523 C270,537.85 266.197,534.048 261.523,534.048 C261.182,534.048 260.848,534.074 260.518,534.113 C259.296,530.518 255.871,528 252,528 C247.037,528 243,532.037 243,537 C239.14,537 236,540.141 236,544 C236,547.859 239.14,551 243,551 L262,551 L262,550.976 C266.451,550.727 270,547.036 270,542.523" id="Icon"></path>
        </g>
    </g>
</svg>