<?xml version="1.0" encoding="UTF-8" standalone="no"?>
<svg width="24px" height="32px" viewBox="0 0 24 32" version="1.1" xmlns="http://www.w3.org/2000/svg" xmlns:xlink="http://www.w3.org/1999/xlink">
    <!-- Generator: Sketch 3.7.2 (28276) - http://www.bohemiancoding.com/sketch -->
    <title>Icon</title>
    <desc>Created with Sketch.</desc>
    <defs></defs>
    <g id="Page-1" stroke="none" stroke-width="1" fill="none" fill-rule="evenodd">
        <g id="Icons" transform="translate(-23.000000, -810.000000)" fill="#44484D">
            <path d="M34.6402244,826.1152 L35.0643892,829.1182 C35.6076004,832.9922 37.1211887,836.6632 39.4540954,839.7672 C41.6189368,839.6762 43.1085158,838.9522 43.9978614,837.5652 C46.2077204,834.1192 44.2919758,827.1112 42.7523774,823.0592 C42.0501044,824.2762 40.9906926,825.8612 39.5871471,827.2632 L37.8794834,828.9712 L37.8794834,826.5562 C37.8794834,821.5312 36.6700133,817.1592 35.8366894,814.7452 C33.8099016,818.3482 31.6130478,820.8742 29.7933405,822.9642 C27.0112592,826.1612 25.0004777,828.4722 25.0004777,832.6502 C25.0004777,836.9502 28.7839482,838.7732 30.8527523,839.4482 C30.6746831,836.8012 30.6536749,831.2162 33.190661,827.9702 L34.6402244,826.1152 Z M33.1586485,841.9992 L31.8101244,841.7622 C28.76294,841.2262 22.9997,838.6342 22.9997,832.6502 C22.9997,827.7232 25.4486518,824.9102 28.2837538,821.6512 C30.4485952,819.1642 32.9015486,816.3452 35.0763939,811.8912 L35.997752,810.0022 L36.8820957,811.9102 C36.9921385,812.1442 39.2810281,817.1592 39.7832233,823.9552 C41.1657607,822.0672 41.9150519,820.3152 41.9250558,820.2922 L42.8083991,818.2032 L43.7557673,820.2622 C43.9908587,820.7712 49.4399767,832.7832 45.6815158,838.6442 C44.3489979,840.7232 42.09012,841.7772 38.9679064,841.7772 L38.4817175,841.7772 L38.1816008,841.3942 C35.943731,838.5472 34.3531128,835.2332 33.5177881,831.7052 C32.308318,835.5482 32.9655735,840.5802 32.974577,840.6422 L33.1586485,841.9992 Z" id="Icon"></path>
        </g>
    </g>
</svg>