<?xml version="1.0" encoding="UTF-8" standalone="no"?>
<svg width="34px" height="34px" viewBox="0 0 34 34" version="1.1" xmlns="http://www.w3.org/2000/svg" xmlns:xlink="http://www.w3.org/1999/xlink">
    <!-- Generator: Sketch 3.7.2 (28276) - http://www.bohemiancoding.com/sketch -->
    <title>Icon</title>
    <desc>Created with Sketch.</desc>
    <defs></defs>
    <g id="Page-1" stroke="none" stroke-width="1" fill="none" fill-rule="evenodd">
        <g id="Icons" transform="translate(-19.000000, -234.000000)" fill="#43484D">
            <path d="M40,265.4419 L40,257.9179 C41.209,257.2159 42.216,256.2069 42.919,254.9999 L50.448,254.9999 C49.044,260.0529 45.057,264.0389 40,265.4419 L40,265.4419 Z M38,265.8509 C37.344,265.9389 36.68,265.9999 36,265.9999 C35.32,265.9999 34.656,265.9389 34,265.8509 L34,258.7369 C34.641,258.9029 35.308,258.9999 36,258.9999 C36.692,258.9999 37.359,258.9029 38,258.7369 L38,265.8509 Z M32,265.4419 C26.943,264.0389 22.961,260.0569 21.558,254.9999 L29.082,254.9999 C29.784,256.2089 30.791,257.2159 32,257.9179 L32,265.4419 Z M21,250.9999 C21,250.3199 21.061,249.6559 21.149,248.9999 L28.263,248.9999 C28.097,249.6409 28,250.3079 28,250.9999 C28,251.6919 28.097,252.3599 28.263,252.9999 L21.149,252.9999 C21.061,252.3439 21,251.6799 21,250.9999 L21,250.9999 Z M32,236.5579 L32,244.0829 C30.791,244.7839 29.784,245.7909 29.082,246.9999 L21.558,246.9999 C22.961,241.9429 26.943,237.9609 32,236.5579 L32,236.5579 Z M34,236.1489 C34.656,236.0609 35.32,235.9999 36,235.9999 C36.68,235.9999 37.344,236.0609 38,236.1489 L38,243.2629 C37.359,243.0979 36.692,242.9999 36,242.9999 C35.308,242.9999 34.641,243.0979 34,243.2629 L34,236.1489 Z M40,236.5579 C45.057,237.9609 49.039,241.9429 50.442,246.9999 L42.918,246.9999 C42.216,245.7909 41.209,244.7839 40,244.0829 L40,236.5579 Z M36,256.9999 C32.691,256.9999 30,254.3089 30,250.9999 C30,247.6919 32.691,244.9999 36,244.9999 C39.309,244.9999 42,247.6919 42,250.9999 C42,254.3089 39.309,256.9999 36,256.9999 L36,256.9999 Z M51,250.9999 C51,251.6799 50.942,252.3449 50.854,252.9999 L43.738,252.9999 C43.904,252.3599 44,251.6919 44,250.9999 C44,250.3079 43.903,249.6409 43.737,248.9999 L50.851,248.9999 C50.939,249.6559 51,250.3199 51,250.9999 L51,250.9999 Z M36,233.9999 C26.626,233.9999 19,241.6259 19,250.9999 C19,260.3739 26.626,267.9999 36,267.9999 C45.374,267.9999 53,260.3739 53,250.9999 C53,241.6259 45.374,233.9999 36,233.9999 L36,233.9999 Z" id="Icon"></path>
        </g>
    </g>
</svg>