<?xml version="1.0" encoding="UTF-8" standalone="no"?>
<svg width="34px" height="34px" viewBox="0 0 34 34" version="1.1" xmlns="http://www.w3.org/2000/svg" xmlns:xlink="http://www.w3.org/1999/xlink">
    <!-- Generator: Sketch 3.7.2 (28276) - http://www.bohemiancoding.com/sketch -->
    <title>Icon</title>
    <desc>Created with Sketch.</desc>
    <defs></defs>
    <g id="Page-1" stroke="none" stroke-width="1" fill="none" fill-rule="evenodd">
        <g id="Icons" transform="translate(-91.000000, -1387.000000)" fill="#43484D">
            <path d="M97.4141,1416 L120.0001,1393.414 L120.0001,1416 L97.4141,1416 Z M118.5861,1392 L96.0001,1414.586 L96.0001,1392 L118.5861,1392 Z M125.0001,1416 L122.0001,1416 L122.0001,1391.414 L124.7071,1388.707 L123.2931,1387.293 L120.5861,1390 L96.0001,1390 L96.0001,1387 L94.0001,1387 L94.0001,1390 L91.0001,1390 L91.0001,1392 L94.0001,1392 L94.0001,1418 L120.0001,1418 L120.0001,1421 L122.0001,1421 L122.0001,1418 L125.0001,1418 L125.0001,1416 Z" id="Icon"></path>
        </g>
    </g>
</svg>