<?xml version="1.0" encoding="UTF-8" standalone="no"?>
<svg width="29px" height="29px" viewBox="0 0 29 29" version="1.1" xmlns="http://www.w3.org/2000/svg" xmlns:xlink="http://www.w3.org/1999/xlink">
    <!-- Generator: Sketch 3.7.2 (28276) - http://www.bohemiancoding.com/sketch -->
    <title>Icon</title>
    <desc>Created with Sketch.</desc>
    <defs></defs>
    <g id="Page-1" stroke="none" stroke-width="1" fill="none" fill-rule="evenodd">
        <g id="Icons" transform="translate(-21.000000, -22.000000)" fill="#43484D">
            <g id="Icon" transform="translate(11.000000, 11.000000)">
                <path d="M37,37 C37,37.551 36.551,38 36,38 L32,38 L32,26 L36,26 C36.551,26 37,26.449 37,27 L37,37 Z M12,38 L30,38 L30,13 L12,13 L12,38 Z M36,24 L32,24 L32,13 C32,11.895 31.105,11 30,11 L12,11 C10.895,11 10,11.895 10,13 L10,38 C10,39.105 10.895,40 12,40 L31,40 L32,40 L36,40 C37.654,40 39,38.654 39,37 L39,27 C39,25.346 37.654,24 36,24 Z M15,18 L26,18 L26,16 L15,16 L15,18 Z M15,24 L23,24 L23,22 L15,22 L15,24 Z M15,30 L27,30 L27,28 L15,28 L15,30 Z"></path>
            </g>
        </g>
    </g>
</svg>