<?xml version="1.0" encoding="UTF-8" standalone="no"?>
<svg width="33px" height="33px" viewBox="0 0 33 33" version="1.1" xmlns="http://www.w3.org/2000/svg" xmlns:xlink="http://www.w3.org/1999/xlink">
    <!-- Generator: Sketch 3.7.2 (28276) - http://www.bohemiancoding.com/sketch -->
    <title>Icon</title>
    <desc>Created with Sketch.</desc>
    <defs></defs>
    <g id="Page-1" stroke="none" stroke-width="1" fill="none" fill-rule="evenodd">
        <g id="Icons" transform="translate(-308.000000, -955.000000)" fill="#44484D">
            <path d="M338.319714,985.3145 C337.441714,986.2015 335.921714,986.2075 335.027714,985.3065 L325.384714,975.8295 L324.739714,976.1675 C323.313714,976.9115 321.698714,977.3055 320.067714,977.3055 C317.797714,977.3055 315.589714,976.5425 313.852714,975.1555 C310.495714,972.4755 309.160714,967.9445 310.532714,963.8805 L310.699714,963.8715 L316.613714,969.8245 L321.713714,968.7965 L322.732714,963.6755 L316.821714,957.7245 C316.774714,957.6785 316.782714,957.6195 316.827714,957.5415 C317.875714,957.1815 318.970714,957.0005 320.080714,957.0005 C322.773714,957.0005 325.303714,958.0555 327.207714,959.9715 C330.337714,963.1255 331.064714,967.9005 329.016714,971.8565 L328.676714,972.5115 L338.319714,981.9885 C339.229714,982.9055 339.229714,984.3985 338.319714,985.3145 M339.731714,980.5715 L331.115714,972.1045 C333.154714,967.5145 332.196714,962.1575 328.627714,958.5625 C326.344714,956.2655 323.309714,955.0005 320.080714,955.0005 C318.749714,955.0005 317.435714,955.2185 316.178714,955.6485 C315.504714,955.8785 315.004714,956.4365 314.840714,957.1405 C314.671714,957.8645 314.880714,958.6105 315.400714,959.1345 L320.561714,964.3305 L320.011714,967.0995 L317.273714,967.6505 L312.119714,962.4605 C311.718714,962.0575 311.183714,961.8355 310.615714,961.8355 C309.715714,961.8355 308.920714,962.4015 308.637714,963.2425 C306.997714,968.0995 308.591714,973.5145 312.604714,976.7175 C314.694714,978.3865 317.344714,979.3055 320.067714,979.3055 C321.771714,979.3055 323.463714,978.9455 325.003714,978.2585 L333.616714,986.7245 C334.433714,987.5465 335.520714,988.0005 336.678714,988.0005 C337.835714,988.0005 338.922714,987.5465 339.739714,986.7235 C341.420714,985.0305 341.420714,982.2735 339.731714,980.5715" id="Icon"></path>
        </g>
    </g>
</svg>