<?xml version="1.0" encoding="UTF-8" standalone="no"?>
<svg width="20px" height="28px" viewBox="0 0 20 28" version="1.1" xmlns="http://www.w3.org/2000/svg" xmlns:xlink="http://www.w3.org/1999/xlink">
    <!-- Generator: Sketch 3.7.2 (28276) - http://www.bohemiancoding.com/sketch -->
    <title>Icon</title>
    <desc>Created with Sketch.</desc>
    <defs></defs>
    <g id="Page-1" stroke="none" stroke-width="1" fill="none" fill-rule="evenodd">
        <g id="Icons" transform="translate(-171.000000, -813.000000)" fill="#44484D">
            <path d="M187.0176,828.2617 C186.7146,828.6057 186.4336,828.9047 186.1756,829.1797 C185.1356,830.2837 184.2836,831.1917 184.0576,832.9997 L177.9486,832.9997 C177.7366,831.1127 176.8906,830.2417 175.6966,829.0137 L175.2076,828.5077 C173.7916,827.0237 173.0076,825.0767 172.9996,823.0287 C172.9856,818.7327 176.4626,815.1327 180.7516,815.0037 L180.9986,814.9997 C185.4116,814.9997 188.9996,818.5887 188.9996,822.9997 C188.9996,824.9377 188.2956,826.8067 187.0176,828.2617 M180.9986,812.9997 L180.6916,813.0037 C175.3296,813.1657 170.9816,817.6657 170.9996,823.0357 C171.0096,825.5977 171.9906,828.0317 173.7606,829.8887 L174.2626,830.4077 C175.5626,831.7447 175.9996,832.1957 175.9996,833.9997 L175.9996,834.9997 L185.9996,834.9997 L185.9996,833.9997 C185.9996,832.2837 186.4776,831.7767 187.6316,830.5497 C187.9046,830.2597 188.2016,829.9447 188.5196,829.5817 C190.1196,827.7607 190.9996,825.4237 190.9996,822.9997 C190.9996,817.4857 186.5136,812.9997 180.9986,812.9997 Z M176,838 L186,838 L186,836 L176,836 L176,838 Z M178,841 L184,841 L184,839 L178,839 L178,841 Z M175,823 L177,823 C177,820.794 178.794,819 181,819 L181,817 C177.691,817 175,819.691 175,823 Z" id="Icon"></path>
        </g>
    </g>
</svg>