<?xml version="1.0" encoding="UTF-8" standalone="no"?>
<svg width="24px" height="22px" viewBox="0 0 24 22" version="1.1" xmlns="http://www.w3.org/2000/svg" xmlns:xlink="http://www.w3.org/1999/xlink">
    <!-- Generator: Sketch 3.7.2 (28276) - http://www.bohemiancoding.com/sketch -->
    <title>Icon</title>
    <desc>Created with Sketch.</desc>
    <defs></defs>
    <g id="Page-1" stroke="none" stroke-width="1" fill="none" fill-rule="evenodd">
        <g id="Icons" transform="translate(-169.000000, -959.000000)" fill="#44484D">
            <path d="M186.552151,980.545755 C184.688178,980.545755 178.349268,980.236588 174.373324,976.24143 C166.91243,968.743379 169.361395,960.087704 169.469393,959.722507 L169.667391,959.053145 L170.362381,959.009121 C170.770375,958.984108 180.414238,958.684946 187.044144,964.945328 C190.996088,968.675343 193.00006,973.996217 193.00006,981 L191.008088,981 C191.008088,973.996217 189.219114,969.750924 185.691164,966.414121 C180.693234,961.684566 173.514336,961.124264 171.219369,961.110256 C170.831374,963.177373 170.259382,969.335699 175.781304,974.884697 C178.91226,978.031396 183.988188,978.496648 186.057158,978.562683 C185.95516,976.555599 184.871175,971.494866 176.986287,967.937944 L177.801275,966.105955 C189.067116,971.186699 188.06013,979.336101 188.011131,979.679287 L187.896132,980.498729 L187.073144,980.53675 C187.028145,980.538751 186.846147,980.545755 186.552151,980.545755" id="Icon"></path>
        </g>
    </g>
</svg>