<?xml version="1.0" encoding="UTF-8" standalone="no"?>
<svg width="24px" height="23px" viewBox="0 0 24 23" version="1.1" xmlns="http://www.w3.org/2000/svg" xmlns:xlink="http://www.w3.org/1999/xlink">
    <!-- Generator: Sketch 3.7.2 (28276) - http://www.bohemiancoding.com/sketch -->
    <title>Icon</title>
    <desc>Created with Sketch.</desc>
    <defs></defs>
    <g id="Page-1" stroke="none" stroke-width="1" fill="none" fill-rule="evenodd">
        <g id="Icons" transform="translate(-97.000000, -1248.000000)" fill="#44484D">
            <path d="M109,1263 C103.368,1263 99,1260.85 99,1259 L99,1256.628 C101.291,1258.18 105.217,1259 109,1259 C112.783,1259 116.709,1258.18 119,1256.628 L119,1259 C119,1260.85 114.632,1263 109,1263 M109,1269 C102.988,1269 99,1266.472 99,1264.8 L99,1262.31 C101.151,1263.929 104.828,1265 109,1265 C113.172,1265 116.849,1263.929 119,1262.31 L119,1264.8 C119,1266.472 115.012,1269 109,1269 M109,1250 C115.195,1250 119,1252.038 119,1253.5 C119,1254.962 115.195,1257 109,1257 C102.805,1257 99,1254.962 99,1253.5 C99,1252.038 102.805,1250 109,1250 M109,1248 C103.183,1248 97,1249.928 97,1253.5 L97,1264.8 C97,1268.161 102.495,1271 109,1271 C115.505,1271 121,1268.161 121,1264.8 L121,1253.5 C121,1249.928 114.817,1248 109,1248" id="Icon"></path>
        </g>
    </g>
</svg>