<?xml version="1.0" encoding="UTF-8" standalone="no"?>
<svg width="24px" height="34px" viewBox="0 0 24 34" version="1.1" xmlns="http://www.w3.org/2000/svg" xmlns:xlink="http://www.w3.org/1999/xlink">
    <!-- Generator: Sketch 3.7.2 (28276) - http://www.bohemiancoding.com/sketch -->
    <title>Icon</title>
    <desc>Created with Sketch.</desc>
    <defs></defs>
    <g id="Page-1" stroke="none" stroke-width="1" fill="none" fill-rule="evenodd">
        <g id="Icons" transform="translate(-241.000000, -1316.000000)" fill="#43484D">
            <path d="M260,1338.81358 L246,1338.81358 C244.696,1338.81358 243.584,1337.98436 243.171,1336.82979 L262.829,1336.82979 C262.416,1337.98436 261.304,1338.81358 260,1338.81358 L260,1338.81358 Z M246.806,1318.87253 C246.86,1318.36567 247.287,1317.98379 247.801,1317.98379 L258.199,1317.98379 C258.713,1317.98379 259.14,1318.36567 259.194,1318.87253 L260.89,1334.846 L245.11,1334.846 L246.806,1318.87253 Z M262.9,1334.846 L261.183,1318.66522 C261.021,1317.14564 259.738,1316 258.199,1316 L247.801,1316 C246.262,1316 244.979,1317.14564 244.817,1318.66522 L243.1,1334.846 L241,1334.846 L241,1335.8379 C241,1338.57255 243.243,1340.79737 246,1340.79737 L252,1340.79737 L252,1348.01621 L245,1348.01621 L245,1350 L261,1350 L261,1348.01621 L254,1348.01621 L254,1340.79737 L260,1340.79737 C262.757,1340.79737 265,1338.57255 265,1335.8379 L265,1334.846 L262.9,1334.846 Z M250,1326.20263 L256,1326.20263 L256,1324.21884 L250,1324.21884 L250,1326.20263 Z M250,1331.1621 L256,1331.1621 L256,1329.17831 L250,1329.17831 L250,1331.1621 Z" id="Icon"></path>
        </g>
    </g>
</svg>