<?xml version="1.0" encoding="UTF-8" standalone="no"?>
<svg width="28px" height="28px" viewBox="0 0 28 28" version="1.1" xmlns="http://www.w3.org/2000/svg" xmlns:xlink="http://www.w3.org/1999/xlink">
    <!-- Generator: Sketch 3.7.2 (28276) - http://www.bohemiancoding.com/sketch -->
    <title>Icon</title>
    <desc>Created with Sketch.</desc>
    <defs></defs>
    <g id="Page-1" stroke="none" stroke-width="1" fill="none" fill-rule="evenodd">
        <g id="Icons" transform="translate(-310.000000, -885.000000)" fill="#44484D">
            <path d="M329,897 L336,897 L336,894 L329,894 L329,897 Z M327,911 L334,911 L334,899 L327,899 L327,911 Z M323,911 L325,911 L325,899 L323,899 L323,911 Z M314,911 L321,911 L321,899 L314,899 L314,911 Z M312,897 L319,897 L319,894 L312,894 L312,897 Z M316.888,888.67 C316.888,888.332 316.962,887.856 317.312,887.514 C317.658,887.178 318.241,887 318.998,887 C320.023,887 320.828,887.316 321.458,887.967 C322.535,889.08 322.861,890.89 322.958,892 L319.998,892 C318.246,892 316.888,890.21 316.888,888.67 L316.888,888.67 Z M326.536,887.972 C327.166,887.317 327.973,887 329,887 C329.757,887 330.34,887.178 330.686,887.514 C331.036,887.856 331.11,888.332 331.11,888.67 C331.11,890.21 329.752,892 328,892 L325.035,892 C325.144,890.797 325.518,889.027 326.536,887.972 L326.536,887.972 Z M321,897 L327,897 L327,894 L321,894 L321,897 Z M338,892 L331.881,892 C332.652,891.024 333.11,889.817 333.11,888.67 C333.11,887.632 332.754,886.737 332.08,886.081 C331.573,885.588 330.628,885 329,885 C327.423,885 326.109,885.532 325.097,886.583 C324.636,887.061 324.28,887.612 323.999,888.186 C323.718,887.612 323.362,887.061 322.901,886.583 C321.889,885.532 320.575,885 318.998,885 C317.37,885 316.425,885.588 315.918,886.081 C315.244,886.737 314.888,887.632 314.888,888.67 C314.888,889.817 315.346,891.024 316.117,892 L310,892 L310,899 L312,899 L312,913 L336,913 L336,899 L338,899 L338,892 Z" id="Icon"></path>
        </g>
    </g>
</svg>