<?xml version="1.0" encoding="UTF-8" standalone="no"?>
<svg width="28px" height="34px" viewBox="0 0 28 34" version="1.1" xmlns="http://www.w3.org/2000/svg" xmlns:xlink="http://www.w3.org/1999/xlink">
    <!-- Generator: Sketch 3.7.2 (28276) - http://www.bohemiancoding.com/sketch -->
    <title>Icon</title>
    <desc>Created with Sketch.</desc>
    <defs></defs>
    <g id="Page-1" stroke="none" stroke-width="1" fill="none" fill-rule="evenodd">
        <g id="Icons" transform="translate(-238.000000, -234.000000)" fill="#43484D">
            <g id="Icon" transform="translate(228.000000, 226.000000)">
                <path d="M36,39 C36,39.551 35.551,40 35,40 L15,40 C14.449,40 14,39.551 14,39 L14,37 L16,37 L16,35 L14,35 L14,30 L16,30 L16,28 L14,28 L14,22 L16,22 L16,20 L14,20 L14,15 L16,15 L16,13 L14,13 L14,11 C14,10.449 14.449,10 15,10 L31,10 L31,35 L33,35 L33,10 L35,10 C35.551,10 36,10.449 36,11 L36,39 Z M35,8 L15,8 C13.346,8 12,9.346 12,11 L12,13 L10,13 L10,15 L12,15 L12,20 L10,20 L10,22 L12,22 L12,28 L10,28 L10,30 L12,30 L12,35 L10,35 L10,37 L12,37 L12,39 C12,40.654 13.346,42 15,42 L35,42 C36.654,42 38,40.654 38,39 L38,11 C38,9.346 36.654,8 35,8 L35,8 Z"></path>
            </g>
        </g>
    </g>
</svg>