<?xml version="1.0" encoding="UTF-8" standalone="no"?>
<svg width="22px" height="31px" viewBox="0 0 22 31" version="1.1" xmlns="http://www.w3.org/2000/svg" xmlns:xlink="http://www.w3.org/1999/xlink">
    <!-- Generator: Sketch 3.7.2 (28276) - http://www.bohemiancoding.com/sketch -->
    <title>Icon</title>
    <desc>Created with Sketch.</desc>
    <defs></defs>
    <g id="Page-1" stroke="none" stroke-width="1" fill="none" fill-rule="evenodd">
        <g id="Icons" transform="translate(-25.000000, -1317.000000)" fill="#44484D">
            <path d="M36.0332,1346 C30.9682,1346 27.0002,1342.047 27.0002,1337 C27.0002,1336.814 27.0112,1336.631 27.0212,1336.448 L30.3282,1337.679 C31.0192,1337.937 31.7362,1338.063 32.4462,1338.063 C34.2072,1338.063 35.9242,1337.294 37.0952,1335.889 C38.3522,1334.38 40.8292,1333.909 42.4452,1334.832 L44.9862,1336.526 C44.9902,1336.64 45.0002,1336.753 45.0002,1336.867 C45.0002,1341.988 41.0612,1346 36.0332,1346 L36.0332,1346 Z M33.2962,1327.955 L34.0002,1327.737 L34.0002,1323 L38.0262,1323 L37.9952,1327.735 L38.7042,1327.955 C41.4482,1328.805 43.5762,1331.035 44.4982,1333.799 L43.4962,1333.132 C40.9492,1331.678 37.4612,1332.325 35.5572,1334.608 C34.4582,1335.927 32.6412,1336.41 31.0282,1335.805 L27.3402,1334.432 C28.1522,1331.365 30.3732,1328.86 33.2962,1327.955 L33.2962,1327.955 Z M35.0002,1321 L37.0002,1321 L37.0002,1319 L35.0002,1319 L35.0002,1321 Z M40.0052,1326.293 L40.0272,1323 L41.0002,1323 L41.0002,1321 L40.0402,1321 L39.0002,1321 L39.0002,1319 C39.0002,1317.897 38.1022,1317 37.0002,1317 L35.0002,1317 C33.8972,1317 33.0002,1317.897 33.0002,1319 L33.0002,1321 L32.0002,1321 L31.0002,1321 L31.0002,1323 L32.0002,1323 L32.0002,1326.292 C27.8442,1327.925 25.0002,1332.22 25.0002,1337 C25.0002,1343.168 29.8462,1348 36.0332,1348 C42.1822,1348 47.0002,1343.11 47.0002,1336.867 C47.0002,1332.163 44.1582,1327.922 40.0052,1326.293 L40.0052,1326.293 Z" id="Icon"></path>
        </g>
    </g>
</svg>