<?xml version="1.0" encoding="UTF-8" standalone="no"?>
<svg width="24px" height="34px" viewBox="0 0 24 34" version="1.1" xmlns="http://www.w3.org/2000/svg" xmlns:xlink="http://www.w3.org/1999/xlink">
    <!-- Generator: Sketch 3.7.2 (28276) - http://www.bohemiancoding.com/sketch -->
    <title>Icon</title>
    <desc>Created with Sketch.</desc>
    <defs></defs>
    <g id="Page-1" stroke="none" stroke-width="1" fill="none" fill-rule="evenodd">
        <g id="Icons" transform="translate(-169.000000, -162.000000)" fill="#43484D">
            <path d="M187,172 L183,172 L183,174 L187,174 L187,176 L183,176 L183,178 L187,178 C186.535,180.279 184.414,182 182,182 L180,182 C177.586,182 175.566,180.279 175.101,178 L179,178 L179,176 L175,176 L175,174 L179,174 L179,172 L175,172 L175,170 L179,170 L179,168 L175.101,168 C175.566,165.721 177.586,164 180,164 L182,164 C184.414,164 186.434,165.721 186.899,168 L183,168 L183,170 L187,170 L187,172 Z M182,162 L180,162 C176.14,162 173,165.14 173,169 L173,177 C173,180.86 176.14,184 180,184 L182,184 C185.86,184 189,180.86 189,177 L189,169 C189,165.14 185.86,162 182,162 Z M191,179 L191,180 C191,183.309 188.309,186 185,186 L177,186 C173.691,186 171,183.309 171,180 L171,179 L169,179 L169,180 C169,184.411 172.589,188 177,188 L180,188 L180,194 L175,194 L175,196 L180,196 L182,196 L187,196 L187,194 L182,194 L182,188 L185,188 C189.411,188 193,184.411 193,180 L193,179 L191,179 Z" id="Icon"></path>
        </g>
    </g>
</svg>