<?xml version="1.0" encoding="UTF-8" standalone="no"?>
<svg width="34px" height="21px" viewBox="0 0 34 21" version="1.1" xmlns="http://www.w3.org/2000/svg" xmlns:xlink="http://www.w3.org/1999/xlink">
    <!-- Generator: Sketch 3.7.2 (28276) - http://www.bohemiancoding.com/sketch -->
    <title>Icon</title>
    <desc>Created with Sketch.</desc>
    <defs></defs>
    <g id="Page-1" stroke="none" stroke-width="1" fill="none" fill-rule="evenodd">
        <g id="Icons" transform="translate(-92.000000, -315.000000)" fill="#43484D">
            <path d="M123.4141,324.578706 C122.6581,325.322034 121.3421,325.322034 120.5861,324.578706 C120.2081,324.207042 120.0001,323.713456 120.0001,323.188407 C120.0001,322.663358 120.2081,322.169772 120.5861,321.798108 C120.9641,321.426444 121.4661,321.221931 122.0001,321.221931 C122.5341,321.221931 123.0361,321.426444 123.4141,321.798108 C123.7921,322.169772 124.0001,322.663358 124.0001,323.188407 C124.0001,323.713456 123.7921,324.207042 123.4141,324.578706 M97.4141,329.494897 C96.6581,330.238225 95.3421,330.238225 94.5861,329.494897 C94.2081,329.123233 94.0001,328.629647 94.0001,328.104598 C94.0001,327.579549 94.2081,327.085963 94.5861,326.714299 C94.9641,326.342635 95.4661,326.138122 96.0001,326.138122 C96.5341,326.138122 97.0361,326.342635 97.4141,326.714299 C97.7921,327.085963 98.0001,327.579549 98.0001,328.104598 C98.0001,328.629647 97.7921,329.123233 97.4141,329.494897 M124.8281,320.40781 C123.3171,318.921154 120.6831,318.921154 119.1721,320.40781 C118.4161,321.150155 118.0001,322.138309 118.0001,323.188407 C118.0001,323.831445 118.1731,324.443019 118.4681,324.997565 L111.3261,332.00707 L107.9111,315 L98.0231,324.74094 C96.5001,323.889456 94.4421,324.074305 93.1721,325.324 C92.4161,326.066345 92.0001,327.054499 92.0001,328.104598 C92.0001,329.154696 92.4161,330.14285 93.1721,330.885195 C93.9271,331.628523 94.9321,332.03755 96.0001,332.03755 C97.0681,332.03755 98.0731,331.628523 98.8281,330.885195 C99.5841,330.14285 100.0001,329.154696 100.0001,328.104598 C100.0001,327.395683 99.7961,326.723148 99.4411,326.128289 L106.6751,319.000796 L110.0881,336 L119.7981,326.471439 C120.4461,326.893248 121.2051,327.12136 122.0001,327.12136 C123.0681,327.12136 124.0731,326.712333 124.8281,325.969005 C125.5841,325.22666 126.0001,324.238505 126.0001,323.188407 C126.0001,322.138309 125.5841,321.150155 124.8281,320.40781" id="Icon"></path>
        </g>
    </g>
</svg>