<?xml version="1.0" encoding="UTF-8" standalone="no"?>
<svg width="32px" height="30px" viewBox="0 0 32 30" version="1.1" xmlns="http://www.w3.org/2000/svg" xmlns:xlink="http://www.w3.org/1999/xlink">
    <!-- Generator: Sketch 3.7.2 (28276) - http://www.bohemiancoding.com/sketch -->
    <title>Icon</title>
    <desc>Created with Sketch.</desc>
    <defs></defs>
    <g id="Page-1" stroke="none" stroke-width="1" fill="none" fill-rule="evenodd">
        <g id="Icons" transform="translate(-309.000000, -596.000000)" fill="#43484D">
            <g id="Icon" transform="translate(300.000000, 586.000000)">
                <path d="M18.688,12 C14.377,12 11,15.411 11,19.766 C11,24.785 15.202,28.962 21.137,34.316 C22.479,35.527 23.779,36.763 25,37.989 C26.231,36.754 27.53,35.519 28.862,34.317 C34.798,28.962 39,24.784 39,19.766 C39,15.411 35.623,12 31.312,12 C29.265,12 27.214,12.823 25.685,14.258 L25,14.901 L24.316,14.258 C22.786,12.823 20.735,12 18.688,12 M25,40 C24.469,40 23.97,39.792 23.597,39.414 C22.397,38.21 21.119,36.993 19.797,35.801 C13.475,30.099 9,25.61 9,19.766 C9,14.29 13.255,10 18.688,10 C20.942,10 23.197,10.798 25,12.212 C26.803,10.798 29.057,10 31.312,10 C36.744,10 41,14.29 41,19.766 C41,25.609 36.524,30.098 30.202,35.802 C28.891,36.984 27.612,38.201 26.401,39.416 C26.027,39.793 25.529,40 25,40"></path>
            </g>
        </g>
    </g>
</svg>