<?xml version="1.0" encoding="UTF-8" standalone="no"?>
<svg width="26px" height="35px" viewBox="0 0 26 35" version="1.1" xmlns="http://www.w3.org/2000/svg" xmlns:xlink="http://www.w3.org/1999/xlink">
    <!-- Generator: Sketch 3.7.2 (28276) - http://www.bohemiancoding.com/sketch -->
    <title>Icon</title>
    <desc>Created with Sketch.</desc>
    <defs></defs>
    <g id="Page-1" stroke="none" stroke-width="1" fill="none" fill-rule="evenodd">
        <g id="Icons" transform="translate(-312.000000, -522.000000)" fill="#43484D">
            <path d="M314.28,550 L319.719,550 L317,553.399 L314.28,550 Z M314,548 L320,548 L320,529 L314,529 L314,548 Z M315,524 L319,524 C319.551,524 320,524.448 320,525 L320,527 L314,527 L314,525 C314,524.448 314.448,524 315,524 L315,524 Z M315,522 C313.345,522 312,523.346 312,525 L312,550.351 L317,557 L322,550.351 L322,525 C322,523.346 320.654,522 319,522 L315,522 Z M327.9995,556 L337.9995,556 L337.9995,522 L327.9995,522 L327.9995,556 Z M335.9995,554 L329.9995,554 L329.9995,549 L332.9995,549 L332.9995,547 L329.9995,547 L329.9995,543 L332.9995,543 L332.9995,541 L329.9995,541 L329.9995,537 L332.9995,537 L332.9995,535 L329.9995,535 L329.9995,531 L332.9995,531 L332.9995,529 L329.9995,529 L329.9995,524 L335.9995,524 L335.9995,554 Z" id="Icon"></path>
        </g>
    </g>
</svg>