<?xml version="1.0" encoding="UTF-8" standalone="no"?>
<svg width="32px" height="28px" viewBox="0 0 32 28" version="1.1" xmlns="http://www.w3.org/2000/svg" xmlns:xlink="http://www.w3.org/1999/xlink">
    <!-- Generator: Sketch 3.7.2 (28276) - http://www.bohemiancoding.com/sketch -->
    <title>Icon</title>
    <desc>Created with Sketch.</desc>
    <defs></defs>
    <g id="Page-1" stroke="none" stroke-width="1" fill="none" fill-rule="evenodd">
        <g id="Icons" transform="translate(-309.000000, -1245.000000)" fill="#44484D">
            <path d="M339,1270 C339,1270.552 338.552,1271 338,1271 L336,1271 L336,1252 L338,1252 C338.552,1252 339,1252.448 339,1253 L339,1270 Z M316,1271 L334,1271 L334,1252 L316,1252 L316,1271 Z M312,1271 C311.448,1271 311,1270.552 311,1270 L311,1253 C311,1252.448 311.448,1252 312,1252 L314,1252 L314,1271 L312,1271 Z M320,1248 C320,1247.448 320.448,1247 321,1247 L329,1247 C329.552,1247 330,1247.448 330,1248 L330,1250 L320,1250 L320,1248 Z M338,1250 L332,1250 L332,1248 C332,1246.346 330.654,1245 329,1245 L321,1245 C319.346,1245 318,1246.346 318,1248 L318,1250 L312,1250 C310.346,1250 309,1251.346 309,1253 L309,1270 C309,1271.654 310.346,1273 312,1273 L338,1273 C339.654,1273 341,1271.654 341,1270 L341,1253 C341,1251.346 339.654,1250 338,1250 L338,1250 Z" id="Icon"></path>
        </g>
    </g>
</svg>