<?xml version="1.0" encoding="UTF-8" standalone="no"?>
<svg width="34px" height="20px" viewBox="0 0 34 20" version="1.1" xmlns="http://www.w3.org/2000/svg" xmlns:xlink="http://www.w3.org/1999/xlink">
    <!-- Generator: Sketch 3.7.2 (28276) - http://www.bohemiancoding.com/sketch -->
    <title>Icon</title>
    <desc>Created with Sketch.</desc>
    <defs></defs>
    <g id="Page-1" stroke="none" stroke-width="1" fill="none" fill-rule="evenodd">
        <g id="Icons" transform="translate(-165.000000, -1106.000000)" fill="#44484D">
            <path d="M192,1124 C190.897,1124 190,1123.103 190,1122 C190,1120.897 190.897,1120 192,1120 C193.103,1120 194,1120.897 194,1122 C194,1123.103 193.103,1124 192,1124 L192,1124 Z M191.487,1111.005 L192.499,1113 L190,1113 L190,1111.004 L191.487,1111.005 Z M175,1124 C173.897,1124 173,1123.103 173,1122 C173,1120.897 173.897,1120 175,1120 C176.103,1120 177,1120.897 177,1122 C177,1123.103 176.103,1124 175,1124 L175,1124 Z M198.168,1115.907 C198.118,1114.296 196.779,1113 195.141,1113 L194.741,1113 L193.27,1110.101 C192.927,1109.422 192.237,1109 191.472,1109 L186,1109 L186,1108 C186,1106.897 185.103,1106 184,1106 L170,1106 C168.897,1106 168,1106.897 168,1108 L168,1110 L170,1110 L170,1108 L184,1108 L184,1121 L178.858,1121 C178.411,1119.279 176.859,1118 175,1118 C173.141,1118 171.589,1119.279 171.142,1121 L170,1121 L170,1118 L168,1118 L168,1123 L171.142,1123 C171.589,1124.721 173.141,1126 175,1126 C176.859,1126 178.411,1124.721 178.858,1123 L186,1123 L188.142,1123 C188.589,1124.721 190.141,1126 192,1126 C193.859,1126 195.411,1124.721 195.858,1123 L196.985,1123 C197.582,1123 198.144,1122.74 198.528,1122.286 C198.908,1121.837 199.069,1121.248 198.973,1120.669 L198.168,1115.907 Z M165,1113 L173,1113 L173,1111 L165,1111 L165,1113 Z M166,1117 L174,1117 L174,1115 L166,1115 L166,1117 Z M195.858,1121 C195.411,1119.279 193.859,1118 192,1118 C190.141,1118 188.589,1119.279 188.142,1121 L186,1121 L186,1110.998 L188,1111 L188,1113 C188,1114.103 188.897,1115 190,1115 L193.513,1115 L194,1115 L195.141,1115 C195.708,1115 196.169,1115.448 196.169,1116 L196.985,1121 L195.858,1121 Z" id="Icon"></path>
        </g>
    </g>
</svg>