<?xml version="1.0" encoding="UTF-8" standalone="no"?>
<svg width="28px" height="34px" viewBox="0 0 28 34" version="1.1" xmlns="http://www.w3.org/2000/svg" xmlns:xlink="http://www.w3.org/1999/xlink">
    <!-- Generator: Sketch 3.7.2 (28276) - http://www.bohemiancoding.com/sketch -->
    <title>Icon</title>
    <desc>Created with Sketch.</desc>
    <defs></defs>
    <g id="Page-1" stroke="none" stroke-width="1" fill="none" fill-rule="evenodd">
        <g id="Icons" transform="translate(-22.000000, -594.000000)" fill="#43484D">
            <path d="M39.707,608.879 C39.381,609.205 39.155,609.591 39.011,610 L32.989,610 C32.845,609.591 32.619,609.205 32.293,608.879 L29.171,605.757 C28.416,605.002 28,603.997 28,602.929 L28,600 L44,600 L44,602.929 C44,603.997 43.584,605.002 42.829,605.757 L39.707,608.879 Z M42.829,616.243 C43.584,616.998 44,618.003 44,619.071 L44,622 L28,622 L28,619.071 C28,618.003 28.416,616.998 29.171,616.243 L32.293,613.121 C32.619,612.795 32.845,612.409 32.989,612 L39.011,612 C39.155,612.409 39.381,612.795 39.707,613.121 L42.829,616.243 Z M47.829,626 L24.171,626 C24.584,624.836 25.696,624 27,624 L45,624 C46.304,624 47.416,624.836 47.829,626 L47.829,626 Z M24.171,596 L47.829,596 C47.416,597.164 46.304,598 45,598 L27,598 C25.696,598 24.584,597.164 24.171,596 L24.171,596 Z M44.243,607.171 C45.376,606.038 46,604.532 46,602.929 L46,599.899 C48.279,599.434 50,597.415 50,595 L50,594 L22,594 L22,595 C22,597.415 23.721,599.434 26,599.899 L26,602.929 C26,604.532 26.624,606.038 27.757,607.171 L30.879,610.293 C31.269,610.683 31.269,611.317 30.879,611.707 L27.757,614.829 C26.624,615.962 26,617.468 26,619.071 L26,622.101 C23.721,622.566 22,624.586 22,627 L22,628 L50,628 L50,627 C50,624.586 48.279,622.566 46,622.101 L46,619.071 C46,617.468 45.376,615.962 44.243,614.829 L41.121,611.707 C40.731,611.317 40.731,610.683 41.121,610.293 L44.243,607.171 Z" id="Icon"></path>
        </g>
    </g>
</svg>