<?xml version="1.0" encoding="UTF-8" standalone="no"?>
<svg width="34px" height="31px" viewBox="0 0 34 31" version="1.1" xmlns="http://www.w3.org/2000/svg" xmlns:xlink="http://www.w3.org/1999/xlink">
    <!-- Generator: Sketch 3.7.2 (28276) - http://www.bohemiancoding.com/sketch -->
    <title>Icon</title>
    <desc>Created with Sketch.</desc>
    <defs></defs>
    <g id="Page-1" stroke="none" stroke-width="1" fill="none" fill-rule="evenodd">
        <g id="Icons" transform="translate(-237.000000, -379.000000)" fill="#43484D">
            <path d="M239,386 C239,385.449 239.449,385 240,385 C240.551,385 241,385.449 241,386 L241,403 C241,403.551 240.551,404 240,404 C239.449,404 239,403.551 239,403 L239,386 Z M240,406 C241.654,406 243,404.654 243,403 L243,386 C243,384.346 241.654,383 240,383 C238.346,383 237,384.346 237,386 L237,403 C237,404.654 238.346,406 240,406 Z M249,406 C250.654,406 252,404.654 252,403 L252,394 C252,392.346 250.654,391 249,391 C247.346,391 246,392.346 246,394 L246,403 C246,404.654 247.346,406 249,406 Z M248,394 C248,393.449 248.449,393 249,393 C249.551,393 250,393.449 250,394 L250,403 C250,403.551 249.551,404 249,404 C248.449,404 248,403.551 248,403 L248,394 Z M267,406 C268.654,406 270,404.654 270,403 L270,397 C270,395.346 268.654,394 267,394 C265.346,394 264,395.346 264,397 L264,403 C264,404.654 265.346,406 267,406 Z M266,397 C266,396.449 266.449,396 267,396 C267.551,396 268,396.449 268,397 L268,403 C268,403.551 267.551,404 267,404 C266.449,404 266,403.551 266,403 L266,397 Z M258,406 C259.654,406 261,404.654 261,403 L261,382 C261,380.346 259.654,379 258,379 C256.346,379 255,380.346 255,382 L255,403 C255,404.654 256.346,406 258,406 Z M257,382 C257,381.449 257.449,381 258,381 C258.551,381 259,381.449 259,382 L259,403 C259,403.551 258.551,404 258,404 C257.449,404 257,403.551 257,403 L257,382 Z M237,410 L271,410 L271,408 L237,408 L237,410 Z" id="Icon"></path>
        </g>
    </g>
</svg>