<?xml version="1.0" encoding="UTF-8" standalone="no"?>
<svg width="34px" height="32px" viewBox="0 0 34 32" version="1.1" xmlns="http://www.w3.org/2000/svg" xmlns:xlink="http://www.w3.org/1999/xlink">
    <!-- Generator: Sketch 3.7.2 (28276) - http://www.bohemiancoding.com/sketch -->
    <title>Icon</title>
    <desc>Created with Sketch.</desc>
    <defs></defs>
    <g id="Page-1" stroke="none" stroke-width="1" fill="none" fill-rule="evenodd">
        <g id="Icons" transform="translate(-236.000000, -595.000000)" fill="#43484D">
            <path d="M244,609.961194 L244,621.93015 C244,623.579871 242.654,624.922389 241,624.922389 C239.346,624.922389 238,623.579871 238,621.93015 L238,596.994826 L248.382,596.994826 L249.829,599.882336 C250.17,600.561575 250.855,600.984478 251.618,600.984478 L268,600.984478 L268,609.961194 L244,609.961194 Z M268,622.012935 C268,623.662656 266.654,625.005174 265,625.005174 L244.934,625.005174 C245.602,624.157373 246,623.089144 246,621.93015 L246,611.95602 L268,611.95602 L268,622.012935 Z M268,598.989652 L251.618,598.989652 L250.171,596.102141 C249.83,595.422903 249.145,595 248.382,595 L238,595 C236.897,595 236,595.894679 236,596.994826 L236,621.93015 C236,624.680017 238.243,626.917215 241,626.917215 C241.169,626.917215 241.335,626.908238 241.5,626.893277 L241.5,627 L265,627 C267.757,627 270,624.762803 270,622.012935 L270,600.984478 C270,599.884331 269.103,598.989652 268,598.989652 L268,598.989652 Z" id="Icon"></path>
        </g>
    </g>
</svg>