<?xml version="1.0" encoding="UTF-8" standalone="no"?>
<svg width="34px" height="34px" viewBox="0 0 34 34" version="1.1" xmlns="http://www.w3.org/2000/svg" xmlns:xlink="http://www.w3.org/1999/xlink">
    <!-- Generator: Sketch 3.7.2 (28276) - http://www.bohemiancoding.com/sketch -->
    <title>Icon</title>
    <desc>Created with Sketch.</desc>
    <defs></defs>
    <g id="Page-1" stroke="none" stroke-width="1" fill="none" fill-rule="evenodd">
        <g id="Icons" transform="translate(-164.000000, -522.000000)" fill="#43484D">
            <path d="M181,554 C172.729,554 166,547.271 166,539 C166,530.729 172.729,524 181,524 C189.271,524 196,530.729 196,539 C196,547.271 189.271,554 181,554 M181,522 C171.611,522 164,529.611 164,539 C164,548.389 171.611,556 181,556 C190.389,556 198,548.389 198,539 C198,529.611 190.389,522 181,522 Z M182,528 L180,528 L180,540 L189,540 L189,538 L182,538 L182,528 Z" id="Icon"></path>
        </g>
    </g>
</svg>