<?xml version="1.0" encoding="UTF-8" standalone="no"?>
<svg width="34px" height="22px" viewBox="0 0 34 22" version="1.1" xmlns="http://www.w3.org/2000/svg" xmlns:xlink="http://www.w3.org/1999/xlink">
    <!-- Generator: Sketch 3.7.2 (28276) - http://www.bohemiancoding.com/sketch -->
    <title>Icon</title>
    <desc>Created with Sketch.</desc>
    <defs></defs>
    <g id="Page-1" stroke="none" stroke-width="1" fill="none" fill-rule="evenodd">
        <g id="Icons" transform="translate(-236.000000, -25.000000)" fill="#43484D">
            <path d="M267,37 L267,35 C267.551,35 268,35.449 268,36 C268,36.551 267.551,37 267,37 L267,37 Z M265,40 C265,40.551 264.551,41 264,41 C263.449,41 263,40.551 263,40 L263,32 C263,31.449 263.449,31 264,31 C264.551,31 265,31.449 265,32 L265,40 Z M261,44 C261,44.551 260.551,45 260,45 C259.449,45 259,44.551 259,44 L259,28 C259,27.449 259.449,27 260,27 C260.551,27 261,27.449 261,28 L261,32 L261,40 L261,44 Z M249,37 L257,37 L257,35 L249,35 L249,37 Z M247,44 C247,44.58 246.615,45 246.083,45 L246.042,45 C245.477,45 245,44.542 245,44 L245,40 L245,32 L245,28 C245,27.473 245.501,27.006 246.052,27 C246.583,27.005 247,27.445 247,28 L247,44 Z M242,41 C241.449,41 241,40.551 241,40 L241,32 C241,31.449 241.449,31 242,31 C242.551,31 243,31.449 243,32 L243,40 C243,40.551 242.551,41 242,41 L242,41 Z M238,36 C238,35.449 238.449,35 239,35 L239,37 C238.449,37 238,36.551 238,36 L238,36 Z M267,32 C267,30.346 265.654,29 264,29 C263.648,29 263.314,29.072 263,29.184 L263,28 C263,26.346 261.654,25 260,25 C258.346,25 257,26.346 257,28 L257,33 L249,33 L249,28 C249,26.345 247.73,25.034 246.083,25 C244.363,25.023 243,26.367 243,28 L243,29.184 C242.686,29.072 242.352,29 242,29 C240.346,29 239,30.346 239,32 L239,33 C237.346,33 236,34.346 236,36 C236,37.654 237.346,39 239,39 L239,40 C239,41.654 240.346,43 242,43 C242.352,43 242.686,42.928 243,42.816 L243,44 C243,45.654 244.364,47 246.042,47 C247.719,47 249,45.682 249,44 L249,39 L257,39 L257,44 C257,45.654 258.346,47 260,47 C261.654,47 263,45.654 263,44 L263,42.816 C263.314,42.928 263.648,43 264,43 C265.654,43 267,41.654 267,40 L267,39 C268.654,39 270,37.654 270,36 C270,34.346 268.654,33 267,33 L267,32 Z" id="Icon"></path>
        </g>
    </g>
</svg>