<?xml version="1.0" encoding="UTF-8" standalone="no"?>
<svg width="34px" height="34px" viewBox="0 0 34 34" version="1.1" xmlns="http://www.w3.org/2000/svg" xmlns:xlink="http://www.w3.org/1999/xlink">
    <!-- Generator: Sketch 3.7.2 (28276) - http://www.bohemiancoding.com/sketch -->
    <title>Icon</title>
    <desc>Created with Sketch.</desc>
    <defs></defs>
    <g id="Page-1" stroke="none" stroke-width="1" fill="none" fill-rule="evenodd">
        <g id="Icons" transform="translate(-164.000000, -450.000000)" fill="#43484D">
            <path d="M189.186,475.12 C189.93,472.859 190.366,470.458 190.469,468 L195.949,468 C195.724,471.395 194.37,474.479 192.252,476.887 C191.275,476.202 190.252,475.61 189.186,475.12 L189.186,475.12 Z M188.481,477.001 C189.286,477.379 190.066,477.815 190.814,478.317 C189.498,479.46 187.983,480.373 186.327,481.005 C187.164,479.761 187.884,478.42 188.481,477.001 L188.481,477.001 Z M173.745,476.89 C174.371,478.4 175.134,479.824 176.032,481.137 C174.235,480.503 172.596,479.542 171.185,478.317 C172.004,477.768 172.859,477.291 173.745,476.89 L173.745,476.89 Z M173.654,457.062 C172.802,456.671 171.978,456.21 171.189,455.68 C172.545,454.503 174.114,453.571 175.829,452.938 C174.973,454.224 174.247,455.604 173.654,457.062 L173.654,457.062 Z M188.574,456.953 C188.009,455.584 187.326,454.286 186.528,453.069 C188.105,453.697 189.548,454.584 190.81,455.679 C190.091,456.16 189.345,456.586 188.574,456.953 L188.574,456.953 Z M181.982,466 L181.982,460.628 C183.842,460.537 185.657,460.195 187.387,459.601 C188.026,461.638 188.399,463.796 188.479,466 L181.982,466 Z M181.982,468 L188.469,468 C188.37,470.2 187.983,472.346 187.33,474.37 C185.619,473.789 183.824,473.463 181.982,473.373 L181.982,468 Z M179.982,468 L179.982,473.375 C178.241,473.462 176.543,473.769 174.919,474.296 C174.28,472.294 173.901,470.174 173.803,468 L179.982,468 Z M179.982,466 L173.793,466 C173.872,463.828 174.235,461.701 174.858,459.69 C176.502,460.229 178.221,460.537 179.982,460.626 L179.982,466 Z M195.949,466 L190.48,466 C190.4,463.509 189.987,461.101 189.263,458.838 C190.301,458.355 191.3,457.781 192.253,457.115 C194.37,459.522 195.724,462.606 195.949,466 L195.949,466 Z M183.412,452.213 C184.768,453.82 185.872,455.688 186.708,457.72 C185.193,458.237 183.608,458.539 181.982,458.628 L181.982,452.05 C182.466,452.081 182.942,452.136 183.412,452.213 L183.412,452.213 Z M179.982,452.052 L179.982,458.626 C178.453,458.54 176.961,458.268 175.531,457.803 C176.379,455.719 177.506,453.804 178.897,452.165 C179.255,452.115 179.616,452.076 179.982,452.052 L179.982,452.052 Z M169.748,457.114 C170.773,457.832 171.85,458.448 172.974,458.952 C172.273,461.182 171.871,463.551 171.792,466 L166.05,466 C166.276,462.605 167.63,459.521 169.748,457.114 L169.748,457.114 Z M166.05,468 L171.804,468 C171.904,470.417 172.329,472.777 173.05,475.005 C171.898,475.515 170.798,476.151 169.748,476.887 C167.63,474.479 166.276,471.395 166.05,468 L166.05,468 Z M179.109,481.868 C177.662,480.223 176.492,478.289 175.609,476.176 C177.015,475.727 178.479,475.459 179.982,475.375 L179.982,481.949 C179.689,481.929 179.398,481.904 179.109,481.868 L179.109,481.868 Z M181.982,481.95 L181.982,475.373 C183.582,475.46 185.143,475.748 186.633,476.249 C185.762,478.313 184.614,480.204 183.202,481.82 C182.8,481.88 182.394,481.924 181.982,481.95 L181.982,481.95 Z M193.263,478.754 C196.191,475.7 198,471.565 198,467 C198,458.647 191.971,451.717 184.031,450.285 C184.022,450.284 184.014,450.282 184.005,450.281 C183.028,450.107 182.027,450 181,450 C171.611,450 164,457.611 164,467 C164,471.582 165.821,475.733 168.769,478.79 C168.78,478.806 168.782,478.825 168.794,478.841 C168.822,478.877 168.862,478.896 168.894,478.927 C171.977,482.056 176.26,484 181,484 C185.719,484 189.987,482.075 193.068,478.969 C193.116,478.927 193.175,478.902 193.216,478.849 C193.239,478.82 193.244,478.785 193.263,478.754 L193.263,478.754 Z" id="Icon"></path>
        </g>
    </g>
</svg>