<?xml version="1.0" encoding="UTF-8" standalone="no"?>
<svg width="34px" height="33px" viewBox="0 0 34 33" version="1.1" xmlns="http://www.w3.org/2000/svg" xmlns:xlink="http://www.w3.org/1999/xlink">
    <!-- Generator: Sketch 3.7.2 (28276) - http://www.bohemiancoding.com/sketch -->
    <title>Icon</title>
    <desc>Created with Sketch.</desc>
    <defs></defs>
    <g id="Page-1" stroke="none" stroke-width="1" fill="none" fill-rule="evenodd">
        <g id="Icons" transform="translate(-164.000000, -20.000000)" fill="#43484D">
            <g id="Icon" transform="translate(156.000000, 11.000000)">
                <path d="M37,27 L37,35 L21.8329373,29 L19.0005,29 L19.0005,38.059278 C19.0005,40.2690379 17.2795,42 15.0835,42 C12.8125,42 11.0005,40.2325862 11.0005,38.059278 L11.0005,29 L10.167,29 C9.062,29 8,28.105 8,27 L8,17 C8,15.895 9.062,15 10.167,15 L21.8594895,15 L37,9 L37,17 L37.1348981,17 C39.8172396,17 41.9995,19.243 41.9995,22 C41.9995,24.757 39.8172396,27 37.1348981,27 L37,27 Z M37,25 L37,19 L37.1348981,19 C38.7441084,19 40.0536592,20.346 40.0536592,22 C40.0536592,23.654 38.7441084,25 37.1348981,25 L37,25 Z M28,14.6513273 L34.9870416,11.8830024 L34.9870416,32.1189241 L22,26.9812502 L22,17.028578 L26,15.4437442 L26,22.2963901 L28,22.2963901 L28,14.6513273 Z M13.0005,29 L17.0005,29 L17.0005,38.059278 C17.0005,39.1646505 16.1585,40.029639 15.0415,40.029639 C13.9355,40.029639 13.0005,39.1272137 13.0005,38.059278 L13.0005,29 Z M10,27 L20,27 L20,17 L10,17 L10,27 Z"></path>
            </g>
        </g>
    </g>
</svg>