<?xml version="1.0" encoding="UTF-8" standalone="no"?>
<svg width="23px" height="28px" viewBox="0 0 23 28" version="1.1" xmlns="http://www.w3.org/2000/svg" xmlns:xlink="http://www.w3.org/1999/xlink">
    <!-- Generator: Sketch 3.7.2 (28276) - http://www.bohemiancoding.com/sketch -->
    <title>Icon</title>
    <desc>Created with Sketch.</desc>
    <defs></defs>
    <g id="Page-1" stroke="none" stroke-width="1" fill="none" fill-rule="evenodd">
        <g id="Icons" transform="translate(-23.000000, -956.000000)" fill="#44484D">
            <path d="M25.710914,970.4756 L25.619914,970.5606 C24.976914,971.0906 24.814914,971.9966 25.234914,972.7136 L30.241914,981.2536 C30.516914,981.7216 31.003914,981.9996 31.547914,981.9996 L42.409914,981.9996 C43.242914,981.9996 43.925914,981.3166 43.930914,980.4776 L44.003914,968.8036 C44.003914,968.2936 43.620914,967.8666 43.111914,967.8156 L35.827914,967.3126 C34.776914,967.2406 33.960914,966.3556 33.970914,965.2986 L34.025914,959.5476 C34.029914,959.1326 33.872914,958.7436 33.581914,958.4506 C33.294914,958.1606 32.911914,957.9996 32.505914,957.9996 C31.649914,957.9996 30.963914,958.6876 30.963914,959.5326 L30.963914,975.1916 L27.909914,970.7966 C27.422914,970.1256 26.395914,969.9576 25.710914,970.4756 M42.409914,983.9996 L31.547914,983.9996 C30.305914,983.9996 29.143914,983.3346 28.516914,982.2656 L23.508914,973.7246 C22.606914,972.1846 22.929914,970.2486 24.271914,969.0816 L24.382914,968.9766 C25.688914,967.9016 27.701914,967.9406 28.963914,969.0156 L28.963914,959.5326 C28.963914,957.5846 30.547914,955.9996 32.494914,955.9996 C33.449914,955.9996 34.336914,956.3706 35.002914,957.0416 C35.671914,957.7176 36.034914,958.6156 36.025914,959.5676 L35.970914,965.3176 L43.280914,965.8226 C44.846914,965.9786 46.003914,967.2616 46.003914,968.8096 L45.930914,980.4896 C45.917914,982.4246 44.338914,983.9996 42.409914,983.9996" id="Icon"></path>
        </g>
    </g>
</svg>