<?xml version="1.0" encoding="UTF-8" standalone="no"?>
<svg width="20px" height="34px" viewBox="0 0 20 34" version="1.1" xmlns="http://www.w3.org/2000/svg" xmlns:xlink="http://www.w3.org/1999/xlink">
    <!-- Generator: Sketch 3.7.2 (28276) - http://www.bohemiancoding.com/sketch -->
    <title>Icon</title>
    <desc>Created with Sketch.</desc>
    <defs></defs>
    <g id="Page-1" stroke="none" stroke-width="1" fill="none" fill-rule="evenodd">
        <g id="Icons" transform="translate(-99.000000, -234.000000)" fill="#43484D">
            <path d="M114,264.728 L110,262.68 L110,260 L108,260 L108,262.68 L104,264.728 L104,252.647 C105.473,253.502 107.178,254 109,254 C110.822,254 112.527,253.502 114,252.647 L114,264.728 Z M101,244 C101,239.589 104.589,236 109,236 C113.411,236 117,239.589 117,244 C117,248.411 113.411,252 109,252 C104.589,252 101,248.411 101,244 L101,244 Z M119,244 C119,238.486 114.514,234 109,234 C103.486,234 99,238.486 99,244 C99,246.79 100.151,249.314 102,251.129 L102,267.999 L109,264.415 L116,267.999 L116,251.129 C117.849,249.314 119,246.79 119,244 Z M109,250 C112.309,250 115,247.309 115,244 C115,240.691 112.309,238 109,238 C105.691,238 103,240.691 103,244 C103,247.309 105.691,250 109,250 Z M109,240 C111.206,240 113,241.794 113,244 C113,246.206 111.206,248 109,248 C106.794,248 105,246.206 105,244 C105,241.794 106.794,240 109,240 Z" id="Icon"></path>
        </g>
    </g>
</svg>