<?xml version="1.0" encoding="UTF-8" standalone="no"?>
<svg width="26px" height="34px" viewBox="0 0 26 34" version="1.1" xmlns="http://www.w3.org/2000/svg" xmlns:xlink="http://www.w3.org/1999/xlink">
    <!-- Generator: Sketch 3.7.2 (28276) - http://www.bohemiancoding.com/sketch -->
    <title>Icon</title>
    <desc>Created with Sketch.</desc>
    <defs></defs>
    <g id="Page-1" stroke="none" stroke-width="1" fill="none" fill-rule="evenodd">
        <g id="Icons" transform="translate(-96.000000, -19.000000)" fill="#43484D">
            <g id="Icon" transform="translate(84.000000, 11.000000)">
                <path d="M36,39 C36,39.551 35.551,40 35,40 L19,40 L19,10 L23,10 L23,21.001 L28,17.283 L33,21.001 L33,10 L35,10 C35.551,10 36,10.449 36,11 L36,39 Z M15,40 C14.449,40 14,39.551 14,39 L14,11 C14,10.449 14.449,10 15,10 L17,10 L17,40 L15,40 Z M25,10 L31,10 L31,17.021 L28,14.791 L25,17.021 L25,10 Z M35,8 L15,8 C13.346,8 12,9.346 12,11 L12,39 C12,40.654 13.346,42 15,42 L35,42 C36.654,42 38,40.654 38,39 L38,11 C38,9.346 36.654,8 35,8 L35,8 Z"></path>
            </g>
        </g>
    </g>
</svg>