<?xml version="1.0" encoding="UTF-8" standalone="no"?>
<svg width="28px" height="32px" viewBox="0 0 28 32" version="1.1" xmlns="http://www.w3.org/2000/svg" xmlns:xlink="http://www.w3.org/1999/xlink">
    <!-- Generator: Sketch 3.7.2 (28276) - http://www.bohemiancoding.com/sketch -->
    <title>Icon</title>
    <desc>Created with Sketch.</desc>
    <defs></defs>
    <g id="Page-1" stroke="none" stroke-width="1" fill="none" fill-rule="evenodd">
        <g id="Icons" transform="translate(-311.000000, -163.000000)" fill="#43484D">
            <path d="M337,187 C337,190.308 334.308,193 331,193 L319,193 C315.692,193 313,190.308 313,187 L313,174 L316,174 L318,174 L332,174 L334,174 L337,174 L337,187 Z M318,166 C318,165.449 318.449,165 319,165 L331,165 C331.551,165 332,165.449 332,166 L332,172 L318,172 L318,166 Z M337,172 L334,172 L334,166 C334,164.346 332.654,163 331,163 L319,163 C317.346,163 316,164.346 316,166 L316,172 L313,172 C311.895,172 311,172.895 311,174 L311,187 C311,191.418 314.582,195 319,195 L331,195 C335.418,195 339,191.418 339,187 L339,174 C339,172.895 338.105,172 337,172 Z M325,178 C323.343,178 322,179.343 322,181 C322,182.304 322.837,183.403 324,183.816 L324,188 L326,188 L326,183.816 C327.163,183.403 328,182.304 328,181 C328,179.343 326.657,178 325,178 Z" id="Icon"></path>
        </g>
    </g>
</svg>