<?xml version="1.0" encoding="UTF-8" standalone="no"?>
<svg width="29px" height="26px" viewBox="0 0 29 26" version="1.1" xmlns="http://www.w3.org/2000/svg" xmlns:xlink="http://www.w3.org/1999/xlink">
    <!-- Generator: Sketch 3.7.2 (28276) - http://www.bohemiancoding.com/sketch -->
    <title>Icon</title>
    <desc>Created with Sketch.</desc>
    <defs></defs>
    <g id="Page-1" stroke="none" stroke-width="1" fill="none" fill-rule="evenodd">
        <g id="Icons" transform="translate(-94.000000, -1030.000000)" fill="#44484D">
            <path d="M97.9976069,1043.3018 C97.4276069,1043.3018 96.8836069,1043.5378 96.5046069,1043.9488 C96.1536069,1044.3308 95.9756069,1044.8228 96.0026069,1045.3328 C96.0286069,1045.8448 96.2606069,1046.3178 96.6526069,1046.6618 L104.415607,1053.4958 C105.266607,1054.2468 106.730607,1054.0848 107.390607,1053.1828 L120.633607,1035.0468 C120.936607,1034.6318 121.057607,1034.1268 120.974607,1033.6238 C120.889607,1033.1148 120.603607,1032.6678 120.172607,1032.3668 C119.299607,1031.7568 117.986607,1031.9738 117.370607,1032.8188 L106.727607,1047.3938 C106.065607,1048.2988 104.624607,1048.4568 103.778607,1047.7128 L99.3406069,1043.8058 C98.9726069,1043.4808 98.4956069,1043.3018 97.9976069,1043.3018 M105.756607,1055.9998 C104.772607,1055.9998 103.827607,1055.6448 103.093607,1054.9968 L95.3306069,1048.1638 C94.5316069,1047.4598 94.0596069,1046.4918 94.0056069,1045.4388 C93.9496069,1044.3858 94.3146069,1043.3768 95.0326069,1042.5958 C95.7896069,1041.7738 96.8696069,1041.3018 97.9976069,1041.3018 C98.9816069,1041.3018 99.9286069,1041.6578 100.662607,1042.3038 L105.100607,1046.2108 L115.755607,1031.6388 C116.504607,1030.6138 117.718607,1029.9998 119.004607,1029.9998 C119.836607,1029.9998 120.636607,1030.2518 121.316607,1030.7278 C122.193607,1031.3388 122.771607,1032.2508 122.946607,1033.2958 C123.119607,1034.3318 122.871607,1035.3728 122.248607,1036.2268 L109.005607,1054.3628 C108.256607,1055.3878 107.041607,1055.9998 105.756607,1055.9998" id="Icon"></path>
        </g>
    </g>
</svg>