<?xml version="1.0" encoding="UTF-8" standalone="no"?>
<svg width="34px" height="23px" viewBox="0 0 34 23" version="1.1" xmlns="http://www.w3.org/2000/svg" xmlns:xlink="http://www.w3.org/1999/xlink">
    <!-- Generator: Sketch 3.7.2 (28276) - http://www.bohemiancoding.com/sketch -->
    <title>Icon</title>
    <desc>Created with Sketch.</desc>
    <defs></defs>
    <g id="Page-1" stroke="none" stroke-width="1" fill="none" fill-rule="evenodd">
        <g id="Icons" transform="translate(-19.000000, -528.000000)" fill="#43484D">
            <path d="M51,545.036295 L48,545.036295 C46.897,545.036295 46,545.93521 46,547.040565 L46.007,548.982702 L41.928,545.512309 C41.566,545.204653 41.106,545.036295 40.633,545.036295 L36,545.036295 L36,543.032025 L38,543.032025 C39.103,543.032025 40,542.13311 40,541.027755 L40,533.010675 L51,533.010675 L51,545.036295 Z M30.081,541.492745 L26,544.901006 L26,543.032025 C26,541.92667 25.103,541.027755 24,541.027755 L21,541.027755 L21,530.00427 L38,530.00427 L38,541.027755 L31.362,541.027755 C30.895,541.027755 30.439,541.193107 30.081,541.492745 L30.081,541.492745 Z M51,531.006405 L40,531.006405 L40,530.00427 C40,528.898915 39.103,528 38,528 L21,528 C19.897,528 19,528.898915 19,530.00427 L19,541.027755 C19,542.13311 19.897,543.032025 21,543.032025 L24,543.032025 L24,544.901006 C24,546.007364 24.899,546.907281 26.006,546.907281 C26.475,546.907281 26.915,546.745937 27.281,546.440286 L31.362,543.032025 L34,543.032025 L34,545.036295 C34,546.14165 34.897,547.040565 36,547.040565 L40.633,547.040565 L44.719,550.515969 C45.102,550.834648 45.564,551 46.031,551 C46.32,551 46.611,550.936865 46.887,550.80759 C47.573,550.484903 48,549.809464 48,549.04283 L48,547.040565 L51,547.040565 C52.103,547.040565 53,546.14165 53,545.036295 L53,533.010675 C53,531.90532 52.103,531.006405 51,531.006405 L51,531.006405 Z" id="Icon"></path>
        </g>
    </g>
</svg>