<?xml version="1.0" encoding="UTF-8" standalone="no"?>
<svg width="29px" height="31px" viewBox="0 0 29 31" version="1.1" xmlns="http://www.w3.org/2000/svg" xmlns:xlink="http://www.w3.org/1999/xlink">
    <!-- Generator: Sketch 3.7.2 (28276) - http://www.bohemiancoding.com/sketch -->
    <title>Icon</title>
    <desc>Created with Sketch.</desc>
    <defs></defs>
    <g id="Page-1" stroke="none" stroke-width="1" fill="none" fill-rule="evenodd">
        <g id="Icons" transform="translate(-311.000000, -308.000000)" fill="#43484D">
            <path d="M325.965,336.884463 C325.674,337.037501 325.325,337.037501 325.035,336.884463 L313.008,330.532849 L317.523,328.163247 L324.102,331.650133 C324.539,331.882192 325.02,331.998221 325.5,331.998221 C325.98,331.998221 326.46,331.882192 326.898,331.650133 L333.472,328.166248 L337.991,330.571859 L325.965,336.884463 Z M317.416,321.115457 L324.103,324.651355 C324.532,324.878413 325.015,324.998443 325.5,324.998443 C325.984,324.998443 326.467,324.878413 326.897,324.651355 L333.577,321.118458 L337.987,323.509065 L325.961,329.882684 C325.673,330.035723 325.329,330.035723 325.039,329.882684 L313.012,323.45005 L317.416,321.115457 Z M325.038,310.108661 C325.18,310.033642 325.34,309.994632 325.5,309.994632 C325.66,309.994632 325.819,310.033642 325.962,310.109661 L337.988,316.52329 L325.962,322.881906 C325.677,323.033944 325.323,323.033944 325.038,322.881906 L313.011,316.468276 L325.038,310.108661 Z M338.921,328.762399 L335.618,327.028959 L338.923,325.277514 C339.588,324.925425 340,324.23725 340,323.479057 C340,322.721865 339.588,322.03269 338.924,321.681601 L335.722,319.98517 L338.923,318.29174 C339.588,317.94065 340,317.252475 340,316.495283 C340,315.738091 339.587,315.050916 338.923,314.699827 L326.897,308.340212 C326.037,307.886096 324.962,307.887096 324.103,308.340212 L312.076,314.699827 C311.412,315.050916 311,315.739091 311,316.495283 C311,317.252475 311.412,317.94065 312.076,318.29274 L315.277,319.98517 L312.076,321.681601 C311.412,322.03269 311,322.721865 311,323.479057 C311,324.23625 311.412,324.925425 312.075,325.277514 L315.381,327.028959 L312.079,328.761399 C311.413,329.111488 311,329.797662 311,330.552854 C311,331.308046 311.413,331.99422 312.079,332.343309 L324.106,338.655913 C324.542,338.884971 325.021,339 325.5,339 C325.978,339 326.457,338.884971 326.894,338.655913 L338.92,332.343309 C339.586,331.99422 340,331.308046 340,330.552854 C340,329.797662 339.586,329.111488 338.921,328.762399 L338.921,328.762399 Z" id="Icon"></path>
        </g>
    </g>
</svg>