<?xml version="1.0" encoding="UTF-8" standalone="no"?>
<svg width="34px" height="34px" viewBox="0 0 34 34" version="1.1" xmlns="http://www.w3.org/2000/svg" xmlns:xlink="http://www.w3.org/1999/xlink">
    <!-- Generator: Sketch 3.7.2 (28276) - http://www.bohemiancoding.com/sketch -->
    <title>Icon</title>
    <desc>Created with Sketch.</desc>
    <defs></defs>
    <g id="Page-1" stroke="none" stroke-width="1" fill="none" fill-rule="evenodd">
        <g id="Icons" transform="translate(-308.000000, -19.000000)" fill="#43484D">
            <path d="M340,50 C340,50.551 339.551,51 339,51 L311,51 C310.449,51 310,50.551 310,50 L310,22 C310,21.449 310.449,21 311,21 L339,21 C339.551,21 340,21.449 340,22 L340,50 Z M339,19 L311,19 C309.346,19 308,20.346 308,22 L308,50 C308,51.654 309.346,53 311,53 L339,53 C340.654,53 342,51.654 342,50 L342,22 C342,20.346 340.654,19 339,19 Z M329.607154,27 L327.327772,29.2831771 C326.053131,28.4415392 324.56178,27.9866798 322.999507,27.9866798 C321.43822,27.9866798 319.946869,28.4405525 318.672228,29.2831771 L316.392846,27 L315,28.3951653 L317.177923,30.5767144 C314.412916,33.6196349 314.449363,38.3132708 317.291202,41.3098175 L315,43.6048347 L316.392846,45 L318.821954,42.5668476 C320.063104,43.348298 321.497322,43.773557 322.999507,43.773557 C324.502678,43.773557 325.936896,43.348298 327.178046,42.5668476 L329.607154,45 L331,43.6048347 L328.708798,41.3098175 C330.106569,39.8376912 330.879825,37.9205723 330.879825,35.8801184 C330.879825,33.896892 330.146956,32.0320671 328.823062,30.5757277 L331,28.3951653 L329.607154,27 Z M327.179031,40.0666009 C326.062981,41.1845091 324.578526,41.8001973 322.999507,41.8001973 C321.421474,41.8001973 319.937019,41.1845091 318.820969,40.0666009 C316.515976,37.7587568 316.515976,34.0024667 318.820969,31.6946226 C319.937019,30.5757277 321.421474,29.9600395 322.999507,29.9600395 C324.578526,29.9600395 326.062981,30.5757277 327.179031,31.6946226 C328.295081,32.8125308 328.909746,34.2994573 328.909746,35.8801184 C328.909746,37.4617662 328.295081,38.9486926 327.179031,40.0666009 Z M323,33 C321.346,33 320,34.346 320,36 C320,37.654 321.346,39 323,39 C324.654,39 326,37.654 326,36 C326,34.346 324.654,33 323,33 Z M323,37 C322.449,37 322,36.551 322,36 C322,35.449 322.449,35 323,35 C323.551,35 324,35.449 324,36 C324,36.551 323.551,37 323,37 Z M336,48 L338,48 L338,24 L336,24 L336,48 Z" id="Icon"></path>
        </g>
    </g>
</svg>