<?xml version="1.0" encoding="UTF-8" standalone="no"?>
<svg width="33px" height="24px" viewBox="0 0 33 24" version="1.1" xmlns="http://www.w3.org/2000/svg" xmlns:xlink="http://www.w3.org/1999/xlink">
    <!-- Generator: Sketch 3.7.2 (28276) - http://www.bohemiancoding.com/sketch -->
    <title>Icon</title>
    <desc>Created with Sketch.</desc>
    <defs></defs>
    <g id="Page-1" stroke="none" stroke-width="1" fill="none" fill-rule="evenodd">
        <g id="Icons" transform="translate(-19.000000, -670.000000)" fill="#44484D">
            <path d="M49.9152293,684.0244 C48.7762293,686.4214 45.0922293,692.0004 35.5012293,692.0004 C25.9102293,692.0004 22.2262293,686.4234 21.0872293,684.0254 C20.9362293,683.7104 20.9852293,683.3394 21.2102293,683.0834 C22.5352293,681.5704 24.0042293,680.3714 25.6362293,679.4314 C26.4002293,683.8954 30.6002293,687.9064 35.5012293,687.9064 C40.5062293,687.9064 44.6532293,683.8614 45.3772293,679.3744 C46.9882293,680.3224 48.4512293,681.5494 49.7932293,683.0834 C50.0172293,683.3384 50.0642293,683.7094 49.9152293,684.0244 M33.6202293,677.0354 C34.2382293,676.9774 34.8712293,676.9484 35.5012293,676.9484 C36.2892293,676.9484 37.0492293,676.9844 37.7872293,677.0504 L37.7642293,677.0714 C38.1012293,677.4394 38.5012293,678.0574 38.5012293,678.9174 C38.5012293,680.4914 37.1272293,681.8214 35.5012293,681.8214 C33.8752293,681.8214 32.5012293,680.4914 32.5012293,678.9174 C32.5012293,678.0684 32.8922293,677.4574 33.2262293,677.0874 C33.3602293,677.0724 33.4842293,677.0474 33.6202293,677.0354 M35.5012293,683.8214 C38.2582293,683.8214 40.5012293,681.6214 40.5012293,678.9174 C40.5012293,678.4064 40.4012293,677.9064 40.2372293,677.4264 C41.3762293,677.6654 42.4592293,677.9864 43.4782293,678.4174 C43.2402293,682.2674 39.7582293,685.9064 35.5012293,685.9064 C31.3452293,685.9064 27.8172293,682.3194 27.5292293,678.5004 C28.5362293,678.0794 29.6062293,677.7464 30.7442293,677.4964 C30.5962293,677.9554 30.5012293,678.4304 30.5012293,678.9174 C30.5012293,681.6214 32.7442293,683.8214 35.5012293,683.8214 M51.2992293,681.7664 C47.2852293,677.1784 42.1172293,674.9484 35.5012293,674.9484 C34.8102293,674.9484 34.1142293,674.9804 33.4342293,675.0444 C27.6852293,675.5854 23.1932293,677.7844 19.7062293,681.7644 C18.9542293,682.6224 18.7872293,683.8464 19.2802293,684.8834 C20.5822293,687.6254 24.7692293,694.0004 35.5012293,694.0004 C46.2332293,694.0004 50.4202293,687.6244 51.7222293,684.8814 C52.2142293,683.8454 52.0482293,682.6234 51.2992293,681.7664 Z M35.5011293,672 C39.9221293,672 44.1111293,673.277 47.9531293,675.795 L49.0491293,674.123 C44.8771293,671.387 40.3181293,670 35.5011293,670 C30.6841293,670 26.1251293,671.387 21.9531293,674.123 L23.0491293,675.795 C26.8911293,673.277 31.0801293,672 35.5011293,672 Z" id="Icon"></path>
        </g>
    </g>
</svg>