<?xml version="1.0" encoding="UTF-8" standalone="no"?>
<svg width="24px" height="24px" viewBox="0 0 24 24" version="1.1" xmlns="http://www.w3.org/2000/svg" xmlns:xlink="http://www.w3.org/1999/xlink">
    <!-- Generator: Sketch 3.7.2 (28276) - http://www.bohemiancoding.com/sketch -->
    <title>Icon</title>
    <desc>Created with Sketch.</desc>
    <defs></defs>
    <g id="Page-1" stroke="none" stroke-width="1" fill="none" fill-rule="evenodd">
        <g id="Icons" transform="translate(-169.000000, -1175.000000)" fill="#44484D">
            <path d="M191.2373,1187.12731 L189.1183,1185.04657 L187.7173,1186.47507 L189.8373,1188.55581 C190.5873,1189.29208 191.0013,1190.27142 191.0013,1191.31079 C191.0003,1192.35016 190.5873,1193.32651 189.8373,1194.06377 L187.7173,1196.14551 C186.5473,1197.29592 184.6393,1197.29792 183.4663,1196.14551 L179.2283,1191.98303 C178.4783,1191.24577 178.0653,1190.26942 178.0653,1189.23005 C178.0643,1188.18968 178.4783,1187.21134 179.2143,1186.48808 L180.6863,1185.10159 L179.3153,1183.64507 L177.8283,1185.04657 C176.6903,1186.16296 176.0643,1187.64849 176.0653,1189.23005 C176.0653,1190.81061 176.6913,1192.29514 177.8283,1193.41054 L182.0663,1197.57302 C183.0383,1198.52736 184.3153,1199.00452 185.5913,1199.00452 C186.8693,1199.00452 188.1463,1198.52736 189.1183,1197.57302 L191.2373,1195.49128 C192.3743,1194.37588 193.0003,1192.89135 193.0013,1191.31079 C193.0013,1189.73023 192.3753,1188.2437 191.2373,1187.12731 Z M173.5762,1178.15152 C175.1382,1176.61797 177.6802,1176.61797 179.2402,1178.15152 L182.7722,1181.61975 C183.5222,1182.35601 183.9352,1183.33336 183.9362,1184.37273 C183.9362,1185.4121 183.5222,1186.39044 182.7722,1187.12771 L180.6532,1189.20845 L182.0542,1190.63595 L184.1732,1188.55521 C185.3102,1187.43882 185.9362,1185.95329 185.9362,1184.37273 C185.9352,1182.79217 185.3092,1181.30664 184.1732,1180.19124 L180.6402,1176.72301 C178.3092,1174.4322 174.5112,1174.4312 172.1762,1176.72301 L170.7632,1178.1105 C169.6272,1179.2259 169.0012,1180.71143 169.0012,1182.29199 C169.0002,1183.87255 169.6262,1185.35808 170.7632,1186.47447 L172.1762,1187.86197 L173.5762,1186.43346 L172.1642,1185.04697 C171.4142,1184.30971 171.0002,1183.33136 171.0012,1182.29199 C171.0012,1181.25262 171.4142,1180.27527 172.1642,1179.53901 L173.5762,1178.15152 Z" id="Icon"></path>
        </g>
    </g>
</svg>