<?xml version="1.0" encoding="UTF-8" standalone="no"?>
<svg width="34px" height="34px" viewBox="0 0 34 34" version="1.1" xmlns="http://www.w3.org/2000/svg" xmlns:xlink="http://www.w3.org/1999/xlink">
    <!-- Generator: Sketch 3.7.2 (28276) - http://www.bohemiancoding.com/sketch -->
    <title>Icon</title>
    <desc>Created with Sketch.</desc>
    <defs></defs>
    <g id="Page-1" stroke="none" stroke-width="1" fill="none" fill-rule="evenodd">
        <g id="Icons" transform="translate(-19.000000, -306.000000)" fill="#43484D">
            <path d="M51,324 C51,324.551 50.551,325 50,325 L40,325 L40,324 C40,322.346 38.654,321 37,321 L35,321 C33.346,321 32,322.346 32,324 L32,325 L22,325 C21.449,325 21,324.551 21,324 L21,323 L21,316 C21,315.449 21.449,315 22,315 L26,315 L28,315 L44,315 L46,315 L50,315 C50.551,315 51,315.449 51,316 L51,323 L51,324 Z M34,328 L34,324 C34,323.449 34.449,323 35,323 L37,323 C37.551,323 38,323.449 38,324 L38,328 C38,328.551 37.551,329 37,329 L35,329 C34.449,329 34,328.551 34,328 L34,328 Z M50,338 L22,338 C21.449,338 21,337.551 21,337 L21,326.816 C21.314,326.928 21.648,327 22,327 L32,327 L32,328 C32,329.654 33.346,331 35,331 L37,331 C38.654,331 40,329.654 40,328 L40,327 L50,327 C50.352,327 50.686,326.928 51,326.816 L51,337 C51,337.551 50.551,338 50,338 L50,338 Z M28,309 C28,308.449 28.449,308 29,308 L43,308 C43.551,308 44,308.449 44,309 L44,313 L28,313 L28,309 Z M50,313 L46,313 L46,309 C46,307.346 44.654,306 43,306 L29,306 C27.346,306 26,307.346 26,309 L26,313 L22,313 C20.346,313 19,314.346 19,316 L19,323 L19,324 L19,337 C19,338.654 20.346,340 22,340 L50,340 C51.654,340 53,338.654 53,337 L53,324 L53,323 L53,316 C53,314.346 51.654,313 50,313 Z M23,323 L25,323 L25,317 L23,317 L23,323 Z M23,336 L25,336 L25,329 L23,329 L23,336 Z" id="Icon"></path>
        </g>
    </g>
</svg>