<?xml version="1.0" encoding="UTF-8" standalone="no"?>
<svg width="25px" height="27px" viewBox="0 0 25 27" version="1.1" xmlns="http://www.w3.org/2000/svg" xmlns:xlink="http://www.w3.org/1999/xlink">
    <!-- Generator: Sketch 3.7.2 (28276) - http://www.bohemiancoding.com/sketch -->
    <title>Icon</title>
    <desc>Created with Sketch.</desc>
    <defs></defs>
    <g id="Page-1" stroke="none" stroke-width="1" fill="none" fill-rule="evenodd">
        <g id="Icons" transform="translate(-97.000000, -94.000000)" fill="#43484D">
            <path d="M99,109 L102,109 L102,106 L99,106 L99,109 Z M99,99 L102,99 L102,96 L99,96 L99,99 Z M97,111 L104,111 L104,104 L97,104 L97,111 Z M97,101 L104,101 L104,94 L97,94 L97,101 Z M97,121 L104,121 L104,114 L97,114 L97,121 Z M99,119 L102,119 L102,116 L99,116 L99,119 Z M107,96 L121,96 L121,94 L107,94 L107,96 Z M107,106 L118,106 L118,104 L107,104 L107,106 Z M107,111 L122,111 L122,109 L107,109 L107,111 Z M107,116 L119,116 L119,114 L107,114 L107,116 Z M107,121 L122,121 L122,119 L107,119 L107,121 Z M107,101 L116,101 L116,99 L107,99 L107,101 Z" id="Icon"></path>
        </g>
    </g>
</svg>