<?xml version="1.0" encoding="UTF-8" standalone="no"?>
<svg width="34px" height="34px" viewBox="0 0 34 34" version="1.1" xmlns="http://www.w3.org/2000/svg" xmlns:xlink="http://www.w3.org/1999/xlink">
    <!-- Generator: Sketch 3.7.2 (28276) - http://www.bohemiancoding.com/sketch -->
    <title>Icon</title>
    <desc>Created with Sketch.</desc>
    <defs></defs>
    <g id="Page-1" stroke="none" stroke-width="1" fill="none" fill-rule="evenodd">
        <g id="Icons" transform="translate(-163.000000, -306.000000)" fill="#43484D">
            <path d="M191,330 L191,328 L191,325 L191,322 C193.202,322.017 194.993,323.799 195,325.981 C194.993,328.187 193.202,329.983 191,330 L191,330 Z M179,338 L177,338 C176.449,338 176,337.551 176,337 C176,336.449 176.449,336 177,336 L179,336 C179.551,336 180,336.449 180,337 C180,337.551 179.551,338 179,338 L179,338 Z M169,330 C166.795,329.983 165.003,328.191 165,325.994 C165.003,323.802 166.795,322.017 169,322 L169,324 L169,330 Z M191,320.002 L191,317 C191,310.935 186.065,306 180,306 C173.935,306 169,310.935 169,317 L169,320.002 C165.697,320.019 163.01,322.693 163,325.984 L163,326 C163.008,329.309 165.712,332 169.031,332 L171,332 L171,324 L171,320 L171,317 C171,312.038 175.038,308 180,308 C184.962,308 189,312.038 189,317 L189,320 L189,325 L189,328 L189,332 C189,334.206 187.206,336 185,336 L181.816,336 C181.402,334.839 180.302,334 179,334 L177,334 C175.346,334 174,335.346 174,337 C174,338.654 175.346,340 177,340 L179,340 C180.302,340 181.402,339.161 181.816,338 L185,338 C188.309,338 191,335.309 191,332 L191,331.998 C194.301,331.981 196.99,329.292 197,325.981 L197,325.969 C196.983,322.687 194.297,320.019 191,320.002 L191,320.002 Z" id="Icon"></path>
        </g>
    </g>
</svg>