<?xml version="1.0" encoding="UTF-8" standalone="no"?>
<svg width="34px" height="31px" viewBox="0 0 34 31" version="1.1" xmlns="http://www.w3.org/2000/svg" xmlns:xlink="http://www.w3.org/1999/xlink">
    <!-- Generator: Sketch 3.7.2 (28276) - http://www.bohemiancoding.com/sketch -->
    <title>Icon</title>
    <desc>Created with Sketch.</desc>
    <defs></defs>
    <g id="Page-1" stroke="none" stroke-width="1" fill="none" fill-rule="evenodd">
        <g id="Icons" transform="translate(-17.000000, -93.000000)" fill="#43484D">
            <path d="M49.0847498,98 L49.0847498,107.887055 L35,122.573924 L36.3492938,124 L51,108.723204 L51,98 L49.0847498,98 Z M47,93 L33.8199849,93 L17,109.510628 L30.8124119,124 L47,107.255917 L47,93 Z M19.7980854,109.558127 L21.8152641,107.578307 C21.9204996,107.699583 22.0316362,107.819847 22.1437564,107.939102 C22.4811002,108.296864 22.9659706,108.804199 23.5491919,109.411586 C24.7117005,110.620297 26.2666295,112.228206 27.8235256,113.834094 C29.7453037,115.814925 31.6680654,117.790702 32.8590958,119.014573 L30.8212635,121.121732 L19.7980854,109.558127 Z M39,105 C41.206,105 43,103.206 43,101 C43,98.794 41.206,97 39,97 C36.794,97 35,98.794 35,101 C35,103.206 36.794,105 39,105 Z M39,99 C40.103,99 41,99.897 41,101 C41,102.103 40.103,103 39,103 C37.897,103 37,102.103 37,101 C37,99.897 37.897,99 39,99 Z M45,106.42316 L34.2448612,117.581502 C29.8475888,113.063996 24.1776547,107.218524 23.2334852,106.186673 L34.6087598,95.0212558 L45.0329804,95.0212558 L45,106.42316 Z" id="Icon"></path>
        </g>
    </g>
</svg>