<?xml version="1.0" encoding="UTF-8" standalone="no"?>
<svg width="30px" height="27px" viewBox="0 0 30 27" version="1.1" xmlns="http://www.w3.org/2000/svg" xmlns:xlink="http://www.w3.org/1999/xlink">
    <!-- Generator: Sketch 3.7.2 (28276) - http://www.bohemiancoding.com/sketch -->
    <title>Icon</title>
    <desc>Created with Sketch.</desc>
    <defs></defs>
    <g id="Page-1" stroke="none" stroke-width="1" fill="none" fill-rule="evenodd">
        <g id="Icons" transform="translate(-166.000000, -885.000000)" fill="#44484D">
            <path d="M172,909 L190,909 L190,907 L172,907 L172,909 Z M177,912 L185,912 L185,910 L177,910 L177,912 Z M195.9996,900 L195.9996,898 L192.4536,898 C192.1496,896.214 191.4296,894.538 190.3956,893.085 L193.2866,890.193 L191.8726,888.779 L189.1116,891.54 C187.2136,889.613 184.7066,888.316 181.9996,888.055 L181.9996,885 L179.9996,885 L179.9996,888.054 C177.3766,888.305 175.0156,889.528 173.2326,891.385 L170.6266,888.779 L169.2126,890.193 L171.9736,892.954 C170.9826,894.423 170.3026,896.139 170.0256,898 L165.9996,898 L165.9996,900 L169.8826,900 C169.8996,901.378 170.1706,902.718 170.6766,904 L166.9996,904 L166.9996,906 L194.9996,906 L194.9996,904 L191.8236,904 C192.3296,902.718 192.6006,901.378 192.6166,900 L195.9996,900 Z M172.8496,904 C172.2046,902.691 171.8746,901.3 171.8746,899.861 C171.8746,894.516 176.0536,890 180.9996,890 C186.1266,890 190.6246,894.608 190.6246,899.861 C190.6246,901.3 190.2956,902.691 189.6506,904 L172.8496,904 Z" id="Icon"></path>
        </g>
    </g>
</svg>