<?xml version="1.0" encoding="UTF-8" standalone="no"?>
<svg width="28px" height="28px" viewBox="0 0 28 28" version="1.1" xmlns="http://www.w3.org/2000/svg" xmlns:xlink="http://www.w3.org/1999/xlink">
    <!-- Generator: Sketch 3.7.2 (28276) - http://www.bohemiancoding.com/sketch -->
    <title>Icon</title>
    <desc>Created with Sketch.</desc>
    <defs></defs>
    <g id="Page-1" stroke="none" stroke-width="1" fill="none" fill-rule="evenodd">
        <g id="Icons" transform="translate(-22.000000, -1245.000000)" fill="#44484D">
            <path d="M24.0368,1247.03742 C21.3208,1249.75237 21.3208,1254.17314 24.0368,1256.88909 L25.4448,1258.29633 L26.8518,1259.70357 L35.2968,1268.149 L36.7038,1269.55624 L38.1108,1270.96348 C40.8268,1273.67944 45.2468,1273.67944 47.9628,1270.96348 C50.6788,1268.24753 50.6788,1263.82776 47.9628,1261.11181 L46.5558,1259.70357 L45.1478,1258.29633 L36.7038,1249.8519 L35.2968,1248.44466 L33.8888,1247.03742 C31.1728,1244.32146 26.7528,1244.32146 24.0368,1247.03742 Z M46.5558,1262.51905 C48.4958,1264.45873 48.4958,1267.61656 46.5558,1269.55624 C44.6158,1271.49593 41.4588,1271.49593 39.5188,1269.55624 L38.1108,1268.149 L45.1478,1261.11181 L46.5558,1262.51905 Z M43.7408,1259.70357 L36.7038,1266.74176 L28.2588,1258.29633 L35.2968,1251.25914 L43.7408,1259.70357 Z M32.4814,1258.3604 L31.0744,1259.7744 L32.4814,1261.1884 L33.8884,1259.7744 L32.4814,1258.3604 Z M34.5926,1256.2391 L33.1856,1257.6531 L34.5926,1259.0671 L35.9996,1257.6531 L34.5926,1256.2391 Z M36.7037,1254.1178 L35.2967,1255.5318 L36.7037,1256.9458 L38.1107,1255.5318 L36.7037,1254.1178 Z M36.7037,1262.6031 L35.2967,1261.1891 L33.8887,1262.6031 L35.2967,1264.0171 L36.7037,1262.6031 Z M37.4074,1259.0676 L36.0004,1260.4816 L37.4074,1261.8956 L38.8144,1260.4816 L37.4074,1259.0676 Z M39.5186,1256.9462 L38.1116,1258.3602 L39.5186,1259.7742 L40.9256,1258.3602 L39.5186,1256.9462 Z M26.8518,1256.88909 L25.4448,1255.48185 C23.5048,1253.54117 23.5048,1250.38434 25.4448,1248.44466 C27.3848,1246.50398 30.5418,1246.50398 32.4818,1248.44466 L33.8888,1249.8519 L26.8518,1256.88909 Z" id="Icon"></path>
        </g>
    </g>
</svg>