<?xml version="1.0" encoding="UTF-8" standalone="no"?>
<svg width="26px" height="34px" viewBox="0 0 26 34" version="1.1" xmlns="http://www.w3.org/2000/svg" xmlns:xlink="http://www.w3.org/1999/xlink">
    <!-- Generator: Sketch 3.7.2 (28276) - http://www.bohemiancoding.com/sketch -->
    <title>Icon</title>
    <desc>Created with Sketch.</desc>
    <defs></defs>
    <g id="Page-1" stroke="none" stroke-width="1" fill="none" fill-rule="evenodd">
        <g id="Icons" transform="translate(-168.000000, -594.000000)" fill="#43484D">
            <path d="M175.994305,615 L175.994305,601 L192.000904,601 L188.001752,606.804 C187.5141,607.49 187.512101,608.526 187.992759,609.211 L191.980918,615 L175.994305,615 Z M173.995729,624 C173.995729,625.103 173.099368,626 171.997153,626 C170.894938,626 169.998576,625.103 169.998576,624 L169.998576,617 L173.995729,617 L173.995729,624 Z M169.998576,615 L173.995729,615 L173.995729,601 L169.998576,601 L169.998576,615 Z M171.997153,596 C173.099368,596 173.995729,596.897 173.995729,598 L173.995729,599 L169.998576,599 L169.998576,598 C169.998576,596.897 170.894938,596 171.997153,596 L171.997153,596 Z M189.640585,608.082 C189.628594,608.051 189.628594,607.976 189.638586,607.951 L193.645732,602.136 C194.068431,601.522 194.116397,600.731 193.770643,600.071 C193.42389,599.41 192.746373,599 192.000904,599 L175.994305,599 L175.994305,598 C175.994305,595.794 174.201582,594 171.997153,594 C169.792723,594 168,595.794 168,598 L168,624 C168,626.206 169.792723,628 171.997153,628 C174.201582,628 175.994305,626.206 175.994305,624 L175.994305,617 L191.980918,617 C192.72139,617 193.397909,616.583 193.74666,615.912 C194.101407,615.229 194.051443,614.418 193.619751,613.802 L189.640585,608.082 Z" id="Icon"></path>
        </g>
    </g>
</svg>