<?xml version="1.0" encoding="UTF-8" standalone="no"?>
<svg width="33px" height="25px" viewBox="0 0 33 25" version="1.1" xmlns="http://www.w3.org/2000/svg" xmlns:xlink="http://www.w3.org/1999/xlink">
    <!-- Generator: Sketch 3.7.2 (28276) - http://www.bohemiancoding.com/sketch -->
    <title>Icon</title>
    <desc>Created with Sketch.</desc>
    <defs></defs>
    <g id="Page-1" stroke="none" stroke-width="1" fill="none" fill-rule="evenodd">
        <g id="Icons" transform="translate(-237.000000, -1032.000000)" fill="#44484D">
            <path d="M253.5,1043.5 C250.603,1043.5 247.867,1044.751 245.995,1046.933 L247.513,1048.235 C249.004,1046.497 251.187,1045.5 253.5,1045.5 C255.813,1045.5 257.995,1046.497 259.487,1048.235 L261.005,1046.933 C259.132,1044.751 256.396,1043.5 253.5,1043.5 Z M253.5,1049.25 C251.329,1049.25 249.562,1050.988 249.562,1053.125 C249.562,1055.262 251.329,1057 253.5,1057 C255.671,1057 257.438,1055.262 257.438,1053.125 C257.438,1050.988 255.671,1049.25 253.5,1049.25 Z M253.5,1055 C252.432,1055 251.563,1054.159 251.563,1053.125 C251.563,1052.091 252.432,1051.25 253.5,1051.25 C254.568,1051.25 255.437,1052.091 255.437,1053.125 C255.437,1054.159 254.568,1055 253.5,1055 Z M253.5,1032 C247.134,1032 241.119,1034.751 237,1039.547 L238.518,1040.85 C242.257,1036.497 247.718,1034 253.5,1034 C259.283,1034 264.744,1036.497 268.482,1040.85 L270,1039.547 C265.882,1034.751 259.867,1032 253.5,1032 Z M253.5,1037.75 C248.869,1037.75 244.494,1039.751 241.498,1043.239 L243.016,1044.542 C245.631,1041.497 249.453,1039.75 253.5,1039.75 C257.546,1039.75 261.368,1041.497 263.985,1044.542 L265.503,1043.239 C262.505,1039.751 258.13,1037.75 253.5,1037.75 Z" id="Icon"></path>
        </g>
    </g>
</svg>