<?xml version="1.0" encoding="UTF-8" standalone="no"?>
<svg width="34px" height="22px" viewBox="0 0 34 22" version="1.1" xmlns="http://www.w3.org/2000/svg" xmlns:xlink="http://www.w3.org/1999/xlink">
    <!-- Generator: Sketch 3.7.2 (28276) - http://www.bohemiancoding.com/sketch -->
    <title>Icon</title>
    <desc>Created with Sketch.</desc>
    <defs></defs>
    <g id="Page-1" stroke="none" stroke-width="1" fill="none" fill-rule="evenodd">
        <g id="Icons" transform="translate(-308.000000, -816.000000)" fill="#44484D">
            <path d="M310,836 L340,836 L340,818 L310,818 L310,836 Z M340,816 L310,816 C308.895,816 308,816.895 308,818 L308,836 C308,837.104 308.895,838 310,838 L340,838 C341.105,838 342,837.104 342,836 L342,818 C342,816.895 341.105,816 340,816 Z M312,832 L314,832 L314,822 L312,822 L312,832 Z M336,832 L338,832 L338,822 L336,822 L336,832 Z M323,828 L324,828 L324,830 L321,830 L321,832 L324,832 L324,834 L326,834 L326,832 L327,832 C328.654,832 330,830.654 330,829 C330,827.346 328.654,826 327,826 L326,826 L326,824 L329,824 L329,822 L326,822 L326,820 L324,820 L324,822 L323,822 C321.346,822 320,823.346 320,825 C320,826.654 321.346,828 323,828 Z M323,824 L324,824 L324,826 L323,826 C322.448,826 322,825.552 322,825 C322,824.448 322.448,824 323,824 Z M326,828 L327,828 C327.552,828 328,828.448 328,829 C328,829.552 327.552,830 327,830 L326,830 L326,828 Z" id="Icon"></path>
        </g>
    </g>
</svg>