<?xml version="1.0" encoding="UTF-8" standalone="no"?>
<svg width="22px" height="32px" viewBox="0 0 22 32" version="1.1" xmlns="http://www.w3.org/2000/svg" xmlns:xlink="http://www.w3.org/1999/xlink">
    <!-- Generator: Sketch 3.7.2 (28276) - http://www.bohemiancoding.com/sketch -->
    <title>Icon</title>
    <desc>Created with Sketch.</desc>
    <defs></defs>
    <g id="Page-1" stroke="none" stroke-width="1" fill="none" fill-rule="evenodd">
        <g id="Icons" transform="translate(-314.000000, -1099.000000)" fill="#44484D">
            <path d="M332.7236,1128.71542 C332.5336,1128.91223 332.2766,1129.02201 331.9996,1129.02201 L317.9996,1129.02201 C317.7236,1129.02201 317.4666,1128.91223 317.2766,1128.71542 C317.0856,1128.51762 316.9886,1128.2585 317.0006,1127.98652 L317.9996,1110.23105 L319.9996,1110.23105 L319.9996,1111.22005 C319.9996,1112.85585 321.3456,1114.18704 322.9996,1114.18704 C324.6546,1114.18704 325.9996,1112.85585 325.9996,1111.22005 L325.9996,1110.23105 L331.9996,1110.23105 L332.9986,1127.98554 C333.0116,1128.2585 332.9136,1128.51762 332.7236,1128.71542 M316.9996,1106.27506 L318.9996,1106.27506 L319.9996,1106.27506 L320.9996,1106.27506 L320.9996,1105.28607 C320.9996,1104.1952 321.8976,1103.30807 322.9996,1103.30807 C324.1026,1103.30807 324.9996,1104.1952 324.9996,1105.28607 L326.9996,1105.28607 C326.9996,1104.05279 326.4156,1102.9639 325.5196,1102.23798 C325.9166,1101.49326 326.7046,1100.97799 327.6196,1100.97799 C328.9326,1100.97799 329.9996,1102.02337 329.9996,1103.30807 L329.9996,1106.27506 L332.9996,1106.27506 C333.5516,1106.27506 333.9996,1106.71814 333.9996,1107.26406 C333.9996,1107.809 333.5516,1108.25306 332.9996,1108.25306 L331.9996,1108.25306 L323.9996,1108.25306 L323.9996,1111.22005 C323.9996,1111.76499 323.5516,1112.20905 322.9996,1112.20905 C322.4486,1112.20905 321.9996,1111.76499 321.9996,1111.22005 L321.9996,1110.23105 L321.9996,1108.25306 L316.9996,1108.25306 C316.4486,1108.25306 315.9996,1107.809 315.9996,1107.26406 C315.9996,1106.71814 316.4486,1106.27506 316.9996,1106.27506 M335.9996,1107.26406 C335.9996,1105.62727 334.6546,1104.29707 332.9996,1104.29707 L331.9996,1104.29707 L331.9996,1103.30807 C331.9996,1100.9325 330.0356,1099 327.6196,1099 C325.9046,1099 324.4316,1099.98504 323.7136,1101.40129 C323.4816,1101.35975 323.2446,1101.33008 322.9996,1101.33008 C321.1416,1101.33008 319.5886,1102.59501 319.1416,1104.29707 L316.9996,1104.29707 C315.3456,1104.29707 313.9996,1105.62727 313.9996,1107.26406 C313.9996,1108.50229 314.7726,1109.56249 315.8646,1110.00655 L315.0026,1127.89257 C314.9636,1128.71047 315.2576,1129.48782 315.8286,1130.08023 C316.4016,1130.67264 317.1716,1131 317.9996,1131 L331.9996,1131 C332.8276,1131 333.5986,1130.67264 334.1706,1130.08023 C334.7426,1129.48782 335.0366,1128.71047 334.9966,1127.89158 L334.1356,1110.00655 C335.2276,1109.56249 335.9996,1108.50229 335.9996,1107.26406 Z M320,1126.05462 L322,1126.05462 L322,1116.16464 L320,1116.16464 L320,1126.05462 Z M328,1126.05462 L330,1126.05462 L330,1116.16464 L328,1116.16464 L328,1126.05462 Z M324,1126.05462 L326,1126.05462 L326,1116.16464 L324,1116.16464 L324,1126.05462 Z" id="Icon"></path>
        </g>
    </g>
</svg>