<?xml version="1.0" encoding="UTF-8" standalone="no"?>
<svg width="22px" height="30px" viewBox="0 0 22 30" version="1.1" xmlns="http://www.w3.org/2000/svg" xmlns:xlink="http://www.w3.org/1999/xlink">
    <!-- Generator: Sketch 3.7.2 (28276) - http://www.bohemiancoding.com/sketch -->
    <title>Icon</title>
    <desc>Created with Sketch.</desc>
    <defs></defs>
    <g id="Page-1" stroke="none" stroke-width="1" fill="none" fill-rule="evenodd">
        <g id="Icons" transform="translate(-98.000000, -380.000000)" fill="#43484D">
            <path d="M110.008712,398.098941 L110.008712,396.087947 L107.991288,396.087947 L107.991288,398.098941 L105.444292,398.098941 L107.858138,392.984985 C108.226318,393.070452 108.605594,393.12676 109,393.12676 C109.394406,393.12676 109.773682,393.070452 110.141862,392.984985 L112.555708,398.098941 L110.008712,398.098941 Z M109,385.082786 C110.668409,385.082786 112.026135,386.435179 112.026135,388.099276 C112.026135,389.762368 110.668409,391.115766 109,391.115766 C107.331591,391.115766 105.973865,389.762368 105.973865,388.099276 C105.973865,386.435179 107.331591,385.082786 109,385.082786 L109,385.082786 Z M118.174232,410 L120,409.144322 L115.735167,400 L117,400 L117,398 L114.784961,398 L111.971664,392.139362 C113.221458,391.223354 114.043558,389.760357 114.043558,388.099276 C114.043558,385.671001 112.307565,383.639898 110.008712,383.173348 L110.008712,380 L107.991288,380 L107.991288,383.173348 C105.692435,383.639898 103.956442,385.671001 103.956442,388.099276 C103.956442,389.760357 104.778542,391.223354 106.028336,392.139362 L103.215039,398 L101,398 L101,400 L102.264833,400 L98,409.144322 L99.825768,410 L104.495094,400 L108,400 L107.991288,402 L110.008712,402 L110.008712,400 L113.504906,400 L118.174232,410 Z" id="Icon"></path>
        </g>
    </g>
</svg>