<?xml version="1.0" encoding="UTF-8" standalone="no"?>
<svg width="25px" height="28px" viewBox="0 0 25 28" version="1.1" xmlns="http://www.w3.org/2000/svg" xmlns:xlink="http://www.w3.org/1999/xlink">
    <!-- Generator: Sketch 3.7.2 (28276) - http://www.bohemiancoding.com/sketch -->
    <title>Icon</title>
    <desc>Created with Sketch.</desc>
    <defs></defs>
    <g id="Page-1" stroke="none" stroke-width="1" fill="none" fill-rule="evenodd">
        <g id="Icons" transform="translate(-168.000000, -1245.000000)" fill="#44484D">
            <path d="M191,1267.00214 C191,1267.55395 190.552,1268.00179 190,1268.00179 L171,1268.00179 C170.448,1268.00179 170,1267.55395 170,1267.00214 L170,1254.00678 C170,1253.45498 170.448,1253.00714 171,1253.00714 L190,1253.00714 C190.552,1253.00714 191,1253.45498 191,1254.00678 L191,1267.00214 Z M190,1251.00785 L182.204,1251.00785 L184.496,1245.80671 L182.666,1245 L180.018,1251.00785 L179.618,1251.00785 L177.895,1247.56208 L176.105,1248.45577 L177.382,1251.00785 L171,1251.00785 C169.346,1251.00785 168,1252.35337 168,1254.00678 L168,1267.00214 C168,1268.65555 169.346,1270.00107 171,1270.00107 L190,1270.00107 C191.654,1270.00107 193,1268.65555 193,1267.00214 L193,1254.00678 C193,1252.35337 191.654,1251.00785 190,1251.00785 Z M171,1273 L190,1273 L190,1271.00071 L171,1271.00071 L171,1273 Z" id="Icon"></path>
        </g>
    </g>
</svg>