<?xml version="1.0" encoding="UTF-8" standalone="no"?>
<svg width="32px" height="25px" viewBox="0 0 32 25" version="1.1" xmlns="http://www.w3.org/2000/svg" xmlns:xlink="http://www.w3.org/1999/xlink">
    <!-- Generator: Sketch 3.7.2 (28276) - http://www.bohemiancoding.com/sketch -->
    <title>Icon</title>
    <desc>Created with Sketch.</desc>
    <defs></defs>
    <g id="Page-1" stroke="none" stroke-width="1" fill="none" fill-rule="evenodd">
        <g id="Icons" transform="translate(-20.000000, -382.000000)" fill="#43484D">
            <path d="M50,404.01601 C45.747,402.535975 41.165,402.577834 37,404.109696 L37,389.082106 L35,389.082106 L35,404.109696 C30.834,402.576838 26.252,402.535975 22,404.01601 L22,385.212088 C26.56,383.4201 31.602,383.611458 35.951,385.75128 L35.968,385.786162 C35.979,385.781179 35.99,385.777193 36,385.772209 C36.01,385.777193 36.021,385.781179 36.032,385.786162 L36.049,385.75128 C40.398,383.611458 45.44,383.4201 50,385.212088 L50,404.01601 Z M51.4,383.633384 C46.433,381.470639 40.877,381.461669 36,383.573585 C31.125,381.459676 25.569,381.471636 20.6,383.633384 L20,383.895505 L20,407 L21.4,406.390046 C26.114,404.33793 31.411,404.448559 35.951,406.68107 L35.968,406.715953 C35.979,406.71097 35.99,406.706983 36,406.702 C36.01,406.706983 36.021,406.71097 36.032,406.715953 L36.049,406.68107 C40.589,404.448559 45.886,404.336933 50.6,406.390046 L52,407 L52,383.895505 L51.4,383.633384 Z M25,395 L31,395 L31,388 L25,388 L25,395 Z M27,393 L29,393 L29,390 L27,390 L27,393 Z M25,400 L31,400 L31,398 L25,398 L25,400 Z M40,390 L48,390 L48,388 L40,388 L40,390 Z M42,395 L48,395 L48,393 L42,393 L42,395 Z M40,400 L48,400 L48,398 L40,398 L40,400 Z" id="Icon"></path>
        </g>
    </g>
</svg>