<?xml version="1.0" encoding="UTF-8" standalone="no"?>
<svg width="32px" height="25px" viewBox="0 0 32 25" version="1.1" xmlns="http://www.w3.org/2000/svg" xmlns:xlink="http://www.w3.org/1999/xlink">
    <!-- Generator: Sketch 3.7.2 (28276) - http://www.bohemiancoding.com/sketch -->
    <title>Icon</title>
    <desc>Created with Sketch.</desc>
    <defs></defs>
    <g id="Page-1" stroke="none" stroke-width="1" fill="none" fill-rule="evenodd">
        <g id="Icons" transform="translate(-93.000000, -743.000000)" fill="#44484D">
            <path d="M122,743 L100,743 C98.346,743 97,744.346 97,746 L97,748 L96,748 C94.346,748 93,749.346 93,751 L93,765 C93,766.654 94.346,768 96,768 L117,768 C118.654,768 120,766.654 120,765 L122,765 C123.654,765 125,763.654 125,762 L125,746 C125,744.346 123.654,743 122,743 Z M118,765 C118,765.552 117.552,766 117,766 L96,766 C95.448,766 95,765.552 95,765 L95,756 L118,756 L118,765 Z M97,763 L101,763 L101,761 L97,761 L97,763 Z M118,754 L95,754 L95,751 C95,750.448 95.448,750 96,750 L117,750 C117.552,750 118,750.448 118,751 L118,754 Z M123,762 C123,762.552 122.552,763 122,763 L120,763 L120,751 C120,749.346 118.654,748 117,748 L99,748 L99,746 C99,745.448 99.448,745 100,745 L122,745 C122.552,745 123,745.448 123,746 L123,762 Z" id="Icon"></path>
        </g>
    </g>
</svg>