<?xml version="1.0" encoding="UTF-8" standalone="no"?>
<svg width="28px" height="29px" viewBox="0 0 28 29" version="1.1" xmlns="http://www.w3.org/2000/svg" xmlns:xlink="http://www.w3.org/1999/xlink">
    <!-- Generator: Sketch 3.7.2 (28276) - http://www.bohemiancoding.com/sketch -->
    <title>Icon</title>
    <desc>Created with Sketch.</desc>
    <defs></defs>
    <g id="Page-1" stroke="none" stroke-width="1" fill="none" fill-rule="evenodd">
        <g id="Icons" transform="translate(-240.000000, -884.000000)" fill="#44484D">
            <path d="M264,903 L262.081,903 C262.609,901.763 262.914,900.413 262.975,899 L264,899 C265.103,899 266,899.897 266,901 C266,902.103 265.103,903 264,903 M251.5,908 C246.262,908 242,903.738 242,898.5 L242,897 L261,897 L261,898.5 C261,903.738 256.738,908 251.5,908 M264,897 L263,897 L263,895 L240,895 L240,898.5 C240,904.841 245.159,910 251.5,910 C255.43,910 258.902,908.016 260.977,905 L264,905 C266.206,905 268,903.206 268,901 C268,898.794 266.206,897 264,897 Z M244,913 L259,913 L259,911 L244,911 L244,913 Z M250,889.5811 C250,889.0661 250.328,888.6111 250.816,888.4481 C252.122,888.0131 253,886.7951 253,885.4191 L253,884.0001 L251,884.0001 L251,885.4191 C251,885.9341 250.672,886.3891 250.184,886.5521 C248.878,886.9871 248,888.2051 248,889.5811 L248,891.0001 L250,891.0001 L250,889.5811 Z M252,891.5811 L252,893.0001 L254,893.0001 L254,891.5811 C254,891.0661 254.328,890.6111 254.816,890.4481 C256.122,890.0131 257,888.7951 257,887.4191 L257,886.0001 L255,886.0001 L255,887.4191 C255,887.9341 254.672,888.3891 254.184,888.5521 C252.878,888.9871 252,890.2051 252,891.5811 Z" id="Icon"></path>
        </g>
    </g>
</svg>