<?xml version="1.0" encoding="UTF-8" standalone="no"?>
<svg width="25px" height="30px" viewBox="0 0 25 30" version="1.1" xmlns="http://www.w3.org/2000/svg" xmlns:xlink="http://www.w3.org/1999/xlink">
    <!-- Generator: Sketch 3.7.2 (28276) - http://www.bohemiancoding.com/sketch -->
    <title>Icon</title>
    <desc>Created with Sketch.</desc>
    <defs></defs>
    <g id="Page-1" stroke="none" stroke-width="1" fill="none" fill-rule="evenodd">
        <g id="Icons" transform="translate(-311.000000, -739.000000)" fill="#44484D">
            <path d="M334,764.0558 C334,765.6788 332.679,766.9998 331.056,766.9998 L330.944,766.9998 C329.321,766.9998 328,765.6788 328,764.0558 L328,763.9448 C328,762.3218 329.321,760.9998 330.944,760.9998 L331.056,760.9998 C332.679,760.9998 334,762.3218 334,763.9448 L334,763.9998 L334,764.0558 Z M321,749.0878 L321,744.8658 C321,744.4738 321.388,744.0528 321.861,743.9278 L332.989,741.0348 C333.249,740.9658 333.475,740.9988 333.652,741.1368 C333.87,741.3038 334,741.6168 334,741.9728 L334,745.6698 L321,749.0878 Z M319,764.0558 C319,765.6788 317.679,766.9998 316.056,766.9998 L315.944,766.9998 C314.321,766.9998 313,765.6788 313,764.0558 L313,763.9448 C313,762.3218 314.321,760.9998 315.944,760.9998 L316.056,760.9998 C317.679,760.9998 319,762.3218 319,763.9448 L319,763.9998 L319,764.0558 Z M334.874,739.5528 C334.199,739.0338 333.352,738.8738 332.482,739.0998 L321.354,741.9938 C319.99,742.3528 319,743.5608 319,744.8658 L319,759.9958 C318.175,759.3788 317.163,758.9998 316.056,758.9998 L315.944,758.9998 C313.218,758.9998 311,761.2178 311,763.9448 L311,764.0558 C311,766.7828 313.218,768.9998 315.944,768.9998 L316.056,768.9998 C318.782,768.9998 321,766.7828 321,764.0558 L321,763.9998 L321,763.9448 L321,751.1548 L334,747.7368 L334,759.9958 C333.175,759.3788 332.163,758.9998 331.056,758.9998 L330.944,758.9998 C328.218,758.9998 326,761.2178 326,763.9448 L326,764.0558 C326,766.7828 328.218,768.9998 330.944,768.9998 L331.056,768.9998 C333.782,768.9998 336,766.7828 336,764.0558 L336,763.9998 L336,763.9448 L336,741.9728 C336,740.9858 335.59,740.1038 334.874,739.5528 L334.874,739.5528 Z" id="Icon"></path>
        </g>
    </g>
</svg>