<?xml version="1.0" encoding="UTF-8" standalone="no"?>
<svg width="28px" height="33px" viewBox="0 0 28 33" version="1.1" xmlns="http://www.w3.org/2000/svg" xmlns:xlink="http://www.w3.org/1999/xlink">
    <!-- Generator: Sketch 3.7.2 (28276) - http://www.bohemiancoding.com/sketch -->
    <title>Icon</title>
    <desc>Created with Sketch.</desc>
    <defs></defs>
    <g id="Page-1" stroke="none" stroke-width="1" fill="none" fill-rule="evenodd">
        <g id="Icons" transform="translate(-167.000000, -379.000000)" fill="#43484D">
            <path d="M191.5,406.045113 L170.5,406.045113 C169.673,406.045113 169,405.377173 169,404.556391 C169,403.735609 169.673,403.067669 170.5,403.067669 L171,403.067669 L171.892,403.067669 L179,403.067669 L179,401.082707 L172.122,401.082707 L173.288,391.036812 C174.064,388.049444 176.432,385.831248 179.325,385.203008 L182.681,385.203008 C185.294,385.768722 187.47,387.623669 188.437,390.165414 L183,390.165414 L183,392.150376 L188.844,392.150376 L190.108,403.067669 L191.5,403.067669 C192.327,403.067669 193,403.735609 193,404.556391 C193,405.377173 192.327,406.045113 191.5,406.045113 L191.5,406.045113 Z M181,410.015038 C179.805,410.015038 178.779,408.97988 178.297,408.030075 L183.703,408.030075 C183.221,408.97988 182.195,410.015038 181,410.015038 L181,410.015038 Z M180,381.977444 C180,381.430586 180.449,380.984962 181,380.984962 C181.551,380.984962 182,381.430586 182,381.977444 L182,383.087038 C181.67,383.054286 181.337,383.032451 181,383.032451 C180.663,383.032451 180.33,383.054286 180,383.087038 L180,381.977444 Z M191.894,401.104541 L190.691,390.713263 L190.668,390.585233 C189.803,387.150256 187.231,384.523158 184,383.500902 L184,381.977444 C184,380.33588 182.654,379 181,379 C179.346,379 178,380.33588 178,381.977444 L178,383.50388 C174.772,384.530105 172.2,387.16812 171.332,390.616992 L170.106,401.104541 C168.361,401.299068 167,402.772902 167,404.556391 C167,406.47188 168.57,408.030075 170.5,408.030075 L176.095,408.030075 C176.534,410.445774 178.563,412 181,412 C183.437,412 185.466,410.445774 185.905,408.030075 L191.5,408.030075 C193.43,408.030075 195,406.47188 195,404.556391 C195,402.772902 193.639,401.299068 191.894,401.104541 L191.894,401.104541 Z" id="Icon"></path>
        </g>
    </g>
</svg>