<?xml version="1.0" encoding="UTF-8" standalone="no"?>
<svg width="31px" height="31px" viewBox="0 0 31 31" version="1.1" xmlns="http://www.w3.org/2000/svg" xmlns:xlink="http://www.w3.org/1999/xlink">
    <!-- Generator: Sketch 3.7.2 (28276) - http://www.bohemiancoding.com/sketch -->
    <title>Icon</title>
    <desc>Created with Sketch.</desc>
    <defs></defs>
    <g id="Page-1" stroke="none" stroke-width="1" fill="none" fill-rule="evenodd">
        <g id="Icons" transform="translate(-20.000000, -883.000000)" fill="#44484D">
            <path d="M45.5025813,912 L25.4974187,912 L25.4974187,891.261 L27.4689275,890.091 L27.5069373,890.091 L27.5069373,890.068 L35.5,885.326 L45.5025813,891.261 L45.5025813,912 Z M51,892.195 L35.5,883 L27.5069373,887.742 L27.5069373,883 L25.506421,883 L25.506421,888.929 L20,892.195 L21.0212636,893.916 L23.4969024,892.447 L23.4969024,914 L47.5030976,914 L47.5030976,892.447 L49.9787364,893.916 L51,892.195 Z M30.4987093,898.0391 L30.4987093,906.0001 L40.5012907,906.0001 L40.5012907,898.0391 C40.5012907,895.2611 38.2597122,893.0001 35.495999,893.0001 C32.7402878,893.0001 30.4987093,895.2611 30.4987093,898.0391 Z M38.5007744,898.0391 L38.5007744,904.0001 L32.4992256,904.0001 L32.4992256,898.0391 C32.4992256,896.3631 33.8435725,895.0001 35.504001,895.0001 C37.1564275,895.0001 38.5007744,896.3631 38.5007744,898.0391 Z" id="Icon"></path>
        </g>
    </g>
</svg>