<?xml version="1.0" encoding="UTF-8" standalone="no"?>
<svg width="30px" height="30px" viewBox="0 0 30 30" version="1.1" xmlns="http://www.w3.org/2000/svg" xmlns:xlink="http://www.w3.org/1999/xlink">
    <!-- Generator: Sketch 3.7.2 (28276) - http://www.bohemiancoding.com/sketch -->
    <title>Icon</title>
    <desc>Created with Sketch.</desc>
    <defs></defs>
    <g id="Page-1" stroke="none" stroke-width="1" fill="none" fill-rule="evenodd">
        <g id="Icons" transform="translate(-238.000000, -668.000000)" fill="#44484D">
            <path d="M266,696 L263,696 L263,685 C263,683.897 262.103,683 261,683 L245,683 C243.897,683 243,683.897 243,685 L243,696 L240,696 L240,670 L244,670 L244,676 C244,677.103 244.897,678 246,678 L259,678 C260.103,678 261,677.103 261,676 L261,670 L262,670 L262,670.1 L266,673.161 L266,696 Z M245,696 L261,696 L261,689 L245,689 L245,696 Z M245,687 L261,687 L261,685 L245,685 L245,687 Z M246,676 L254,676 L254,670 L246,670 L246,676 Z M256,676 L259,676 L259,670 L256,670 L256,676 Z M267.249,671.599 L263.548,668.538 C263.193,668.255 262.753,668 262.298,668 L261,668 L259,668 L246,668 L244,668 L240,668 C238.895,668 238,669.095 238,670.2 L238,696.2 C238,697.305 238.895,698 240,698 L266,698 C267.105,698 268,697.305 268,696.2 L268,673.161 C268,672.554 267.724,671.979 267.249,671.599 L267.249,671.599 Z" id="Icon"></path>
        </g>
    </g>
</svg>