<?xml version="1.0" encoding="UTF-8" standalone="no"?>
<svg width="28px" height="27px" viewBox="0 0 28 27" version="1.1" xmlns="http://www.w3.org/2000/svg" xmlns:xlink="http://www.w3.org/1999/xlink">
    <!-- Generator: Sketch 3.7.2 (28276) - http://www.bohemiancoding.com/sketch -->
    <title>Icon</title>
    <desc>Created with Sketch.</desc>
    <defs></defs>
    <g id="Page-1" stroke="none" stroke-width="1" fill="none" fill-rule="evenodd">
        <g id="Icons" transform="translate(-95.000000, -886.000000)" fill="#44484D">
            <path d="M105,891 C105,889.346 106.346,888 108,888 L110,888 C111.654,888 113,889.346 113,891 L113,894.021 C113,896.228 111.206,898.021 109,898.021 C106.794,898.021 105,896.228 105,894.021 L105,891 Z M109,900.021 C112.309,900.021 115,897.33 115,894.021 L115,891 C115,888.243 112.757,886 110,886 L108,886 C105.243,886 103,888.243 103,891 L103,894.021 C103,897.33 105.691,900.021 109,900.021 Z M114.1633,900.0657 C112.9013,899.8537 111.6813,900.4907 111.1093,901.6117 C110.7633,902.2887 110.1173,903.0967 109.0003,903.0967 C107.8833,903.0967 107.2363,902.2887 106.8903,901.6117 C106.3183,900.4907 105.1013,899.8537 103.8373,900.0657 C98.5513,900.9407 95.0003,904.9497 95.0003,910.0417 L95.0003,910.7807 L95.7053,910.9977 C100.0163,912.3267 104.4893,912.9997 109.0003,912.9997 C113.5103,912.9997 117.9833,912.3267 122.2953,910.9977 L123.0003,910.7807 L123.0003,910.0417 C123.0003,904.9497 119.4493,900.9407 114.1633,900.0657 Z M97.0303,909.3057 C97.3433,905.5317 100.0733,902.7157 104.1633,902.0377 C104.5603,901.9787 104.9273,902.1637 105.1093,902.5217 C105.9443,904.1587 107.3633,905.0967 109.0003,905.0967 C110.6363,905.0967 112.0553,904.1587 112.8903,902.5217 C113.0733,902.1647 113.4453,901.9797 113.8373,902.0377 C117.9263,902.7157 120.6563,905.5317 120.9693,909.3057 C113.1843,911.5557 104.8153,911.5557 97.0303,909.3057 Z" id="Icon"></path>
        </g>
    </g>
</svg>