<?xml version="1.0" encoding="UTF-8" standalone="no"?>
<svg width="29px" height="21px" viewBox="0 0 29 21" version="1.1" xmlns="http://www.w3.org/2000/svg" xmlns:xlink="http://www.w3.org/1999/xlink">
    <!-- Generator: Sketch 3.7.2 (28276) - http://www.bohemiancoding.com/sketch -->
    <title>Icon</title>
    <desc>Created with Sketch.</desc>
    <defs></defs>
    <g id="Page-1" stroke="none" stroke-width="1" fill="none" fill-rule="evenodd">
        <g id="Icons" transform="translate(-239.000000, -1105.000000)" fill="#44484D">
            <path d="M262,1124 C259.72,1124 258,1122.328 258,1120.111 C258,1117.845 259.794,1116 262,1116 C264.206,1116 266,1117.845 266,1120.111 C266,1122.328 264.28,1124 262,1124 M245,1124 C242.72,1124 241,1122.328 241,1120.111 C241,1117.845 242.794,1116 245,1116 C247.206,1116 249,1117.845 249,1120.111 C249,1122.328 247.28,1124 245,1124 M266.936,1116.646 L263.948,1107.766 L263.878,1107.606 C263.001,1105.999 261.319,1105 259.488,1105 L257,1105 L257,1107 L259.488,1107 C260.56,1107 261.546,1107.57 262.082,1108.493 L264.063,1114.38 C263.418,1114.139 262.726,1114 262,1114 C259.682,1114 257.671,1115.348 256.672,1117.313 C255.858,1116.502 254.737,1116 253.5,1116 C252.263,1116 251.142,1116.502 250.328,1117.313 C249.329,1115.348 247.318,1114 245,1114 C244.248,1114 243.531,1114.148 242.867,1114.406 L244.839,1108.489 C245.369,1107.568 246.342,1107 247.398,1107 L250,1107 L250,1105 L247.398,1105 C245.58,1105 243.91,1106 243.04,1107.609 L240,1116.684 L240.029,1116.693 C239.38,1117.669 239,1118.846 239,1120.111 C239,1123.413 241.636,1126 245,1126 C248.23,1126 250.782,1123.613 250.981,1120.5 L251,1120.5 C251,1119.121 252.121,1118 253.5,1118 C254.879,1118 256,1119.121 256,1120.5 L256.019,1120.5 C256.218,1123.613 258.77,1126 262,1126 C265.364,1126 268,1123.413 268,1120.111 C268,1118.825 267.606,1117.631 266.936,1116.646" id="Icon"></path>
        </g>
    </g>
</svg>