<?xml version="1.0" encoding="UTF-8" standalone="no"?>
<svg width="26px" height="30px" viewBox="0 0 26 30" version="1.1" xmlns="http://www.w3.org/2000/svg" xmlns:xlink="http://www.w3.org/1999/xlink">
    <!-- Generator: Sketch 3.7.2 (28276) - http://www.bohemiancoding.com/sketch -->
    <title>Icon</title>
    <desc>Created with Sketch.</desc>
    <defs></defs>
    <g id="Page-1" stroke="none" stroke-width="1" fill="none" fill-rule="evenodd">
        <g id="Icons" transform="translate(-168.000000, -740.000000)" fill="#44484D">
            <path d="M192,745.1709 C190.836,745.5839 190,746.6959 190,747.9999 C190,749.3039 190.836,750.4159 192,750.8289 L192,767.9999 L185.5,767.9999 L185.5,767.4999 C185.5,765.0189 183.481,762.9999 181,762.9999 C178.519,762.9999 176.5,765.0189 176.5,767.4999 L176.5,767.9999 L170,767.9999 L170,750.8289 C171.164,750.4159 172,749.3039 172,747.9999 C172,746.6959 171.164,745.5839 170,745.1709 L170,741.9999 L192,741.9999 L192,745.1709 Z M193,746.9999 L194,746.9999 L194,739.9999 L168,739.9999 L168,746.9999 L169,746.9999 C169.552,746.9999 170,747.4479 170,747.9999 C170,748.5519 169.552,748.9999 169,748.9999 L168,748.9999 L168,769.9999 L178.5,769.9999 L178.5,767.4999 C178.5,766.1209 179.621,764.9999 181,764.9999 C182.379,764.9999 183.5,766.1209 183.5,767.4999 L183.5,769.9999 L194,769.9999 L194,748.9999 L193,748.9999 C192.448,748.9999 192,748.5519 192,747.9999 C192,747.4479 192.448,746.9999 193,746.9999 Z M174,749 L177,749 L177,747 L174,747 L174,749 Z M179,749 L183,749 L183,747 L179,747 L179,749 Z M185,749 L188,749 L188,747 L185,747 L185,749 Z" id="Icon"></path>
        </g>
    </g>
</svg>