<?xml version="1.0" encoding="UTF-8" standalone="no"?>
<svg width="24px" height="24px" viewBox="0 0 24 24" version="1.1" xmlns="http://www.w3.org/2000/svg" xmlns:xlink="http://www.w3.org/1999/xlink">
    <!-- Generator: Sketch 3.7.2 (28276) - http://www.bohemiancoding.com/sketch -->
    <title>Icon</title>
    <desc>Created with Sketch.</desc>
    <defs></defs>
    <g id="Page-1" stroke="none" stroke-width="1" fill="none" fill-rule="evenodd">
        <g id="Icons" transform="translate(-96.000000, -1104.000000)" fill="#44484D">
            <path d="M116.5716,1124.8798 C115.3586,1126.0938 113.3826,1126.3738 111.8776,1125.5378 L111.1206,1125.1168 C105.7136,1122.1128 101.3266,1117.6358 98.4306,1112.1688 C97.6176,1110.6328 97.8976,1108.7748 99.1266,1107.5448 L100.7316,1105.9408 L103.7126,1109.9158 L102.2296,1111.3988 C101.8576,1111.7708 101.6526,1112.2648 101.6526,1112.7898 C101.6526,1113.3158 101.8576,1113.8098 102.2296,1114.1808 L109.8806,1121.8328 C110.6246,1122.5768 111.9196,1122.5748 112.6636,1121.8328 L114.1336,1120.3628 L118.0326,1123.4198 L116.5716,1124.8798 Z M119.2476,1121.8708 L115.3476,1118.8148 C114.5886,1118.2208 113.4246,1118.2898 112.7426,1118.9708 L111.2716,1120.4418 L103.6206,1112.7898 L105.1046,1111.3058 C105.7916,1110.6168 105.8696,1109.5128 105.2866,1108.7358 L102.3056,1104.7608 C101.6166,1103.8408 100.1546,1103.7358 99.3396,1104.5498 L97.7356,1106.1538 C95.8916,1107.9988 95.4726,1110.7858 96.6916,1113.0888 C99.7666,1118.8928 104.4246,1123.6478 110.1656,1126.8368 L110.9226,1127.2578 C111.7976,1127.7438 112.7886,1127.9998 113.7876,1127.9998 C115.3646,1127.9998 116.8486,1127.3858 117.9626,1126.2708 L119.4246,1124.8098 C119.8226,1124.4118 120.0296,1123.8618 119.9966,1123.2998 C119.9626,1122.7388 119.6886,1122.2178 119.2476,1121.8708 Z M107.3896,1111 L106.9996,1111 L106.9996,1113 L107.3896,1113 C109.4816,1113 110.9996,1114.683 110.9996,1117 L112.9996,1117 C112.9996,1113.579 110.5876,1111 107.3896,1111 Z M115.5,1117 L117.5,1117 C117.5,1111.064 112.775,1106.213 106.89,1106.007 L106.5,1106 L106.5,1108 C111.463,1108 115.5,1112.037 115.5,1117 Z" id="Icon"></path>
        </g>
    </g>
</svg>