<?xml version="1.0" encoding="UTF-8" standalone="no"?>
<svg width="30px" height="30px" viewBox="0 0 30 30" version="1.1" xmlns="http://www.w3.org/2000/svg" xmlns:xlink="http://www.w3.org/1999/xlink">
    <!-- Generator: Sketch 3.7.2 (28276) - http://www.bohemiancoding.com/sketch -->
    <title>Icon</title>
    <desc>Created with Sketch.</desc>
    <defs></defs>
    <g id="Page-1" stroke="none" stroke-width="1" fill="none" fill-rule="evenodd">
        <g id="Icons" transform="translate(-238.000000, -956.000000)" fill="#44484D">
            <path d="M247,958 L261,958 C261.552,958 262,958.448 262,959 L262,960 L264,960 L264,959 C264,957.346 262.654,956 261,956 L244.586,956 L238,962.586 L238,983 C238,984.654 239.346,986 241,986 L261,986 C262.654,986 264,984.654 264,983 L264,973 L262,973 L262,983 C262,983.552 261.552,984 261,984 L241,984 C240.448,984 240,983.552 240,983 L240,965 L247,965 L247,958 Z M245,958.414 L240.414,963 L245,963 L245,958.414 Z M249.00005,979 C248.998074,978.587148 249.024749,968.85419 254.886162,964.277316 C257.983336,961.859038 262.075359,961.365036 267.049607,962.803425 L268,963.078321 L267.733258,964.055167 C266.624796,968.094421 263.61456,969.518608 261.648571,969.807705 C261.412455,970.578633 260.904657,971.709664 259.835712,972.44306 C258.922861,973.067917 257.818351,973.277893 256.534036,973.072989 C256.152694,973.874347 255.593523,974.477902 254.863439,974.869452 C253.519849,975.590675 252.037948,975.351282 251.361213,975.177823 C250.97987,977.335406 250.975919,978.953339 250.975919,978.991885 L249.00005,979 Z M252,972.871824 C252.380753,972.965121 253.409898,973.159573 254.208772,972.747099 C254.70264,972.491758 255.039965,972.033126 255.238927,971.344688 L255.513634,970.399926 L256.485211,970.66607 C257.590102,970.969533 258.469773,970.9165 259.097966,970.507955 C260.070553,969.876477 260.257394,968.56147 260.258404,968.549685 L260.36546,967.672687 L261.273409,967.68349 C261.411773,967.68349 264.553744,967.642243 266,964.438695 C262.038955,963.55384 258.806089,964.007561 256.382196,965.799859 C253.998701,967.561712 252.703939,970.35475 252,972.871824 Z" id="Icon"></path>
        </g>
    </g>
</svg>