<?xml version="1.0" encoding="UTF-8" standalone="no"?>
<svg width="32px" height="31px" viewBox="0 0 32 31" version="1.1" xmlns="http://www.w3.org/2000/svg" xmlns:xlink="http://www.w3.org/1999/xlink">
    <!-- Generator: Sketch 3.7.2 (28276) - http://www.bohemiancoding.com/sketch -->
    <title>Icon</title>
    <desc>Created with Sketch.</desc>
    <defs></defs>
    <g id="Page-1" stroke="none" stroke-width="1" fill="none" fill-rule="evenodd">
        <g id="Icons" transform="translate(-164.000000, -1317.000000)" fill="#43484D">
            <path d="M194,1345 C194,1345.552 193.552,1346 193,1346 L167,1346 C166.448,1346 166,1345.552 166,1345 L166,1322 C166,1321.448 166.448,1321 167,1321 L173,1321 L173,1323 L175,1323 L175,1321 L179,1321 L179,1323 L181,1323 L181,1321 L185,1321 L185,1323 L187,1323 L187,1321 L193,1321 C193.552,1321 194,1321.448 194,1322 L194,1345 Z M193,1319 L187,1319 L187,1317 L185,1317 L185,1319 L181,1319 L181,1317 L179,1317 L179,1319 L175,1319 L175,1317 L173,1317 L173,1319 L167,1319 C165.346,1319 164,1320.346 164,1322 L164,1345 C164,1346.654 165.346,1348 167,1348 L193,1348 C194.654,1348 196,1346.654 196,1345 L196,1322 C196,1320.346 194.654,1319 193,1319 Z M171,1329 L175,1329 L175,1327 L171,1327 L171,1329 Z M178,1329 L182,1329 L182,1327 L178,1327 L178,1329 Z M185,1329 L189,1329 L189,1327 L185,1327 L185,1329 Z M171,1335 L175,1335 L175,1333 L171,1333 L171,1335 Z M178,1335 L182,1335 L182,1333 L178,1333 L178,1335 Z M185,1335 L189,1335 L189,1333 L185,1333 L185,1335 Z M171,1341 L175,1341 L175,1339 L171,1339 L171,1341 Z M178,1341 L182,1341 L182,1339 L178,1339 L178,1341 Z M185,1341 L189,1341 L189,1339 L185,1339 L185,1341 Z" id="Icon"></path>
        </g>
    </g>
</svg>