<?xml version="1.0" encoding="UTF-8" standalone="no"?>
<svg width="34px" height="27px" viewBox="0 0 34 27" version="1.1" xmlns="http://www.w3.org/2000/svg" xmlns:xlink="http://www.w3.org/1999/xlink">
    <!-- Generator: Sketch 3.7.2 (28276) - http://www.bohemiancoding.com/sketch -->
    <title>Icon</title>
    <desc>Created with Sketch.</desc>
    <defs></defs>
    <g id="Page-1" stroke="none" stroke-width="1" fill="none" fill-rule="evenodd">
        <g id="Icons" transform="translate(-308.000000, -1030.000000)" fill="#44484D">
            <path d="M338.5,1044 C337.673,1044 337,1043.327 337,1042.5 C337,1041.673 337.673,1041 338.5,1041 C339.327,1041 340,1041.673 340,1042.5 C340,1043.327 339.327,1044 338.5,1044 L338.5,1044 Z M331.706,1047.791 L325,1053.67 L318.294,1047.791 L324,1037.988 L324,1046 L326,1046 L326,1037.988 L331.706,1047.791 Z M325,1032 C326.103,1032 327,1032.897 327,1034 C327,1035.103 326.103,1036 325,1036 C323.897,1036 323,1035.103 323,1034 C323,1032.897 323.897,1032 325,1032 L325,1032 Z M311.5,1044 C310.673,1044 310,1043.327 310,1042.5 C310,1041.673 310.673,1041 311.5,1041 C312.327,1041 313,1041.673 313,1042.5 C313,1043.327 312.327,1044 311.5,1044 L311.5,1044 Z M338.5,1039 C337.79,1039 337.13,1039.216 336.578,1039.581 L328.871,1034.957 C328.948,1034.649 329,1034.331 329,1034 C329,1031.794 327.206,1030 325,1030 C322.794,1030 321,1031.794 321,1034 C321,1034.331 321.052,1034.649 321.129,1034.957 L313.422,1039.581 C312.87,1039.216 312.21,1039 311.5,1039 C309.57,1039 308,1040.57 308,1042.5 C308,1044.43 309.57,1046 311.5,1046 C313.43,1046 315,1044.43 315,1042.5 C315,1042.015 314.9,1041.554 314.721,1041.133 L322.082,1036.717 C322.152,1036.792 322.225,1036.863 322.3,1036.933 L315.737,1048.209 L323.483,1055 L317,1055 L317,1057 L333,1057 L333,1055 L326.517,1055 L334.263,1048.209 L327.7,1036.933 C327.775,1036.863 327.848,1036.792 327.918,1036.717 L335.279,1041.133 C335.1,1041.554 335,1042.015 335,1042.5 C335,1044.43 336.57,1046 338.5,1046 C340.43,1046 342,1044.43 342,1042.5 C342,1040.57 340.43,1039 338.5,1039 L338.5,1039 Z" id="Icon"></path>
        </g>
    </g>
</svg>