<?xml version="1.0" encoding="utf-8"?>
<!-- Generator: Adobe Illustrator 19.1.0, SVG Export Plug-In . SVG Version: 6.00 Build 0)  -->
<!DOCTYPE svg PUBLIC "-//W3C//DTD SVG 1.1//EN" "http://www.w3.org/Graphics/SVG/1.1/DTD/svg11.dtd">
<svg version="1.1" xmlns="http://www.w3.org/2000/svg" xmlns:xlink="http://www.w3.org/1999/xlink" x="0px" y="0px" width="96px"
	 height="96px" viewBox="0 0 96 96" enable-background="new 0 0 96 96" xml:space="preserve">
<g id="record_x5F_player">
</g>
<g id="trumpet">
</g>
<g id="stereo_x5F_speaker">
</g>
<g id="guitar">
</g>
<g id="speaker">
</g>
<g id="jack">
</g>
<g id="drum_x5F_sticks">
</g>
<g id="drum">
</g>
<g id="cymbal">
</g>
<g id="piano">
</g>
<g id="microphone">
	<g opacity="0.6">
		<g>
			<circle fill="#47BCFE" cx="31.18889" cy="34.10978" r="26.50105"/>
		</g>
	</g>
	<g opacity="0.7">
		<g>
			<path fill="#CCF2FF" d="M15.75016,12.57026C3.85421,21.09683,1.12279,37.65256,9.64937,49.54851
				s25.08231,14.62737,36.97826,6.10079L15.75016,12.57026z"/>
		</g>
	</g>
	<g>
		<g>
			<path fill="#141B41" d="M31.22705,62.60059c-8.88379,0-17.64453-4.13086-23.20312-11.88672
				c-4.43506-6.1875-6.19531-13.73242-4.95605-21.24414c1.23926-7.51074,5.3291-14.08984,11.51709-18.52539
				C27.35889,1.79102,45.19873,4.73242,54.354,17.50586l0,0c9.15527,12.77344,6.21191,30.61426-6.56152,39.76953
				C42.7749,60.87109,36.9751,62.60059,31.22705,62.60059z M31.15576,9.61719c-4.94238,0-9.92676,1.48633-14.24072,4.5791
				c-5.31934,3.8125-8.83545,9.46777-9.90039,15.9248c-1.06543,6.45703,0.44775,12.94336,4.26025,18.2627
				c7.87109,10.98047,23.20752,13.51172,34.1875,5.63965c10.98047-7.87012,13.51074-23.20605,5.64062-34.1875
				C46.32471,13.16992,38.79199,9.61719,31.15576,9.61719z"/>
		</g>
	</g>
	<g>
		<g>
			<path fill="#141B41" d="M42.78809,26.79688c-0.31152,0-0.61865-0.14453-0.81396-0.41699
				c-2.06494-2.88184-5.12793-4.78613-8.625-5.36328c-3.49854-0.57617-7.01025,0.24219-9.89111,2.30762
				c-0.44873,0.32324-1.07422,0.21875-1.39551-0.22949c-0.32178-0.44922-0.21826-1.07422,0.23047-1.39551
				c3.31494-2.37598,7.35596-3.31934,11.38135-2.65625c4.02441,0.66406,7.54932,2.85547,9.92578,6.1709
				c0.32178,0.44922,0.21826,1.07422-0.23047,1.39551C43.19336,26.73633,42.98975,26.79688,42.78809,26.79688z"/>
		</g>
	</g>
	<g>
		<g>
			<path fill="#141B41" d="M62.08008,87.33887c-3.16553,0-6.28662-1.47168-8.2666-4.23438L37.62793,60.52344l3.25098-2.33008
				l16.18555,22.58105c1.97656,2.75684,5.82861,3.3916,8.5874,1.41602c2.75781-1.97656,3.39307-5.8291,1.4165-8.58691
				L50.8833,51.02246l3.25098-2.33008l16.18506,22.58105c3.26172,4.5498,2.21338,10.90625-2.33691,14.16797
				C66.19434,86.72266,64.12793,87.33887,62.08008,87.33887z"/>
		</g>
	</g>
	<g>
		<g>
			<path fill="#141B41" d="M78.43701,91.76758c-5.07129,0-10.07227-2.35938-13.24561-6.78613
				c-0.64355-0.89746-0.4375-2.14746,0.46045-2.79102c0.896-0.64355,2.14697-0.4375,2.79053,0.46094
				c3.94141,5.49902,11.62207,6.7666,17.12061,2.82422c5.49854-3.94141,6.76611-11.62109,2.82471-17.12012L74.85791,49.47852
				c-3.02539-4.21973-2.20557-10.05078,1.8667-13.27344c4.17725-3.30469,10.28271-2.61035,13.61035,1.54883l3.36279,4.20312
				c0.68994,0.8623,0.5498,2.12109-0.3125,2.81055c-0.86279,0.69043-2.12012,0.55078-2.81152-0.3125l-3.3623-4.20312
				c-1.95703-2.44629-5.54932-2.85156-8.00488-0.91016c-2.39453,1.89551-2.87695,5.32422-1.09766,7.80664l13.52979,18.87695
				c5.22607,7.29102,3.5459,17.47461-3.74561,22.70215C85.02881,90.78027,81.71826,91.76758,78.43701,91.76758z"/>
		</g>
	</g>
	<g>
		<g>
			<path fill="#141B41" d="M46.91113,71.04004c-0.31592,0-0.62695-0.14941-0.82129-0.42773
				c-0.31592-0.45312-0.20459-1.07617,0.24805-1.39258l13.62793-9.50684c0.4541-0.31445,1.07715-0.2041,1.39258,0.24805
				c0.31592,0.45312,0.20459,1.07617-0.24805,1.39258l-13.62793,9.50684C47.30811,70.98145,47.1084,71.04004,46.91113,71.04004z"/>
		</g>
	</g>
	<g>
		<g>
			<path fill="#141B41" d="M25.99951,61c-0.13721,0-0.27686-0.02832-0.40967-0.08789
				c-0.50391-0.22656-0.72852-0.81836-0.50195-1.32227l9-20c0.22705-0.50488,0.8208-0.72656,1.32227-0.50195
				c0.50391,0.22656,0.72852,0.81836,0.50195,1.32227l-9,20C26.74512,60.78125,26.38086,61,25.99951,61z"/>
		</g>
	</g>
	<g>
		<g>
			<path fill="#141B41" d="M20.32129,59.28516c-0.13721,0-0.27686-0.02832-0.40967-0.08789
				c-0.50391-0.22656-0.72852-0.81836-0.50195-1.32227l5.67822-12.61816c0.22705-0.50391,0.8208-0.72656,1.32227-0.50195
				c0.50391,0.22656,0.72852,0.81836,0.50195,1.32227l-5.67822,12.61816C21.06689,59.06641,20.70264,59.28516,20.32129,59.28516z"/>
		</g>
	</g>
	<g>
		<g>
			<path fill="#141B41" d="M67.00049,85c-0.29346,0-0.58398-0.12793-0.78125-0.375l-4-5
				c-0.34521-0.43164-0.27539-1.06055,0.15625-1.40625c0.43066-0.34473,1.06006-0.27539,1.40527,0.15625l4,5
				c0.34521,0.43164,0.27539,1.06055-0.15625,1.40625C67.44043,84.92871,67.21973,85,67.00049,85z"/>
		</g>
	</g>
	<g>
		<g>
			<path fill="#141B41" d="M66.5,30c-0.55225,0-1-0.44727-1-1s0.44775-1,1-1c7.16846,0,13-5.83203,13-13s-5.83154-13-13-13
				c-0.55225,0-1-0.44727-1-1s0.44775-1,1-1c8.271,0,15,6.72852,15,15S74.771,30,66.5,30z"/>
		</g>
	</g>
	<g>
		<g>
			<path fill="#141B41" d="M66.5,22c-0.55225,0-1-0.44727-1-1s0.44775-1,1-1c2.75684,0,5-2.24316,5-5s-2.24316-5-5-5
				c-0.55225,0-1-0.44727-1-1s0.44775-1,1-1c3.85986,0,7,3.14062,7,7S70.35986,22,66.5,22z"/>
		</g>
	</g>
	<g>
		<g>
			<path fill="#141B41" d="M29,80H9c-1.10449,0-2-0.89551-2-2s0.89551-2,2-2h20c1.10449,0,2,0.89551,2,2S30.10449,80,29,80z"/>
		</g>
	</g>
	<g>
		<g>
			<path fill="#141B41" d="M59.73682,87H2c-1.10449,0-2-0.89551-2-2s0.89551-2,2-2h57.73682c1.10449,0,2,0.89551,2,2
				S60.84131,87,59.73682,87z"/>
		</g>
	</g>
</g>
<g id="headphone">
</g>
<g id="musical_x5F_score">
</g>
<g id="accordion">
</g>
<g id="megaphone">
</g>
</svg>
