<?xml version="1.0" encoding="utf-8"?>
<!-- Generator: Adobe Illustrator 19.1.0, SVG Export Plug-In . SVG Version: 6.00 Build 0)  -->
<!DOCTYPE svg PUBLIC "-//W3C//DTD SVG 1.1//EN" "http://www.w3.org/Graphics/SVG/1.1/DTD/svg11.dtd">
<svg version="1.1" xmlns="http://www.w3.org/2000/svg" xmlns:xlink="http://www.w3.org/1999/xlink" x="0px" y="0px" width="96px"
	 height="96px" viewBox="0 0 96 96" enable-background="new 0 0 96 96" xml:space="preserve">
<g id="record_x5F_player">
</g>
<g id="trumpet">
</g>
<g id="stereo_x5F_speaker">
</g>
<g id="guitar">
</g>
<g id="speaker">
</g>
<g id="jack">
	<g>
		<g>
			<path fill="#141B41" d="M34.83447,15.0835c-0.31152,0-0.61816-0.14502-0.81348-0.41699l-5.04102-7.0249
				c-0.32178-0.44873-0.21924-1.07324,0.22949-1.39551c0.44775-0.32178,1.07373-0.21924,1.39551,0.22949l5.04102,7.0249
				c0.32178,0.44873,0.21924,1.07324-0.22949,1.39551C35.24023,15.02246,35.03613,15.0835,34.83447,15.0835z"/>
		</g>
	</g>
	<g>
		<g>
			<path fill="#141B41" d="M94,87H80.71289c-1.10449,0-2-0.89551-2-2s0.89551-2,2-2H94c1.10449,0,2,0.89551,2,2S95.10449,87,94,87z"
				/>
		</g>
	</g>
	<g>
		<g>
			<path fill="#141B41" d="M94,33.00977H77c-1.10449,0-2-0.89551-2-2s0.89551-2,2-2h17c1.10449,0,2,0.89551,2,2
				S95.10449,33.00977,94,33.00977z"/>
		</g>
	</g>
	<g>
		<g>
			<path fill="#141B41" d="M82,40H69.74707c-1.10449,0-2-0.89551-2-2s0.89551-2,2-2H82c1.10449,0,2,0.89551,2,2S83.10449,40,82,40z"
				/>
		</g>
	</g>
	<g>
		<g>
			<path fill="#141B41" d="M19,8H2C0.89551,8,0,7.10449,0,6s0.89551-2,2-2h17c1.10449,0,2,0.89551,2,2S20.10449,8,19,8z"/>
		</g>
	</g>
	<g>
		<g>
			<path fill="#141B41" d="M26.14404,16H12c-1.10449,0-2-0.89551-2-2s0.89551-2,2-2h14.14404c1.10449,0,2,0.89551,2,2
				S27.24854,16,26.14404,16z"/>
		</g>
	</g>
	<g opacity="0.6">
		<g>
			<path fill="#47BCFE" d="M88.4743,63.04418c4.63036,6.1922,3.36425,14.96562-2.82795,19.59599
				c-6.1922,4.63037-14.96562,3.36425-19.59599-2.82795L42.09603,47.77803l22.42394-16.76804L88.4743,63.04418z"/>
		</g>
	</g>
	<g opacity="0.7">
		<g>
			<path fill="#CCF2FF" d="M53.81031,39.01839l10.70966-8.0084L88.4743,63.04418c4.63036,6.1922,3.36425,14.96562-2.82795,19.59599
				L53.81031,39.01839z"/>
		</g>
	</g>
	<g>
		<g>
			<path fill="#141B41" d="M48.08545,56.78613c-0.30469,0-0.60547-0.13867-0.80176-0.40137
				c-0.33105-0.44238-0.24023-1.06836,0.20215-1.39941l22.42383-16.76758c0.44141-0.33105,1.06934-0.23975,1.39941,0.20215
				c0.33105,0.44189,0.24023,1.06885-0.20215,1.39941L48.68311,56.58691C48.50391,56.72168,48.29346,56.78613,48.08545,56.78613z"/>
		</g>
	</g>
	<g>
		<g>
			<path fill="#141B41" d="M77.51318,61.05859c-0.30469,0-0.60547-0.13867-0.80176-0.40137L61.71924,40.6084
				c-0.33105-0.44189-0.24023-1.06885,0.20215-1.39941c0.44189-0.33057,1.06982-0.23926,1.39941,0.20215l14.99219,20.04883
				c0.33105,0.44238,0.24023,1.06836-0.20215,1.39941C77.93164,60.99414,77.72119,61.05859,77.51318,61.05859z"/>
		</g>
	</g>
	<g>
		<g>
			<path fill="#141B41" d="M35.64209,30.12695c-0.30469,0-0.60547-0.13867-0.80176-0.40137
				c-0.33105-0.44189-0.24023-1.06885,0.20215-1.39941l12.44336-9.30469c0.44141-0.33057,1.06934-0.23926,1.39941,0.20215
				c0.33105,0.44189,0.24023,1.06885-0.20215,1.39941l-12.44336,9.30469C36.06055,30.06201,35.8501,30.12695,35.64209,30.12695z"/>
		</g>
	</g>
	<g>
		<g>
			<path fill="#141B41" d="M77.28174,87.42188c-4.87646,0-9.69531-2.21484-12.83301-6.41211l-23.9541-32.03418
				c-0.66162-0.88477-0.48096-2.13818,0.40381-2.79932L63.32227,29.4082c0.4248-0.31787,0.95996-0.45361,1.4834-0.37793
				c0.5249,0.07568,0.99854,0.35693,1.31592,0.78174l23.9541,32.03467l0,0c5.2832,7.06445,3.8335,17.11133-3.23145,22.39551
				C83.97559,86.3877,80.61523,87.42188,77.28174,87.42188z M44.89551,48.18164l22.75635,30.43359
				C71.61523,83.91309,79.15088,85,84.44873,81.03906c5.29883-3.96289,6.38623-11.49805,2.42383-16.79785L64.11621,33.80908
				L44.89551,48.18164z"/>
		</g>
	</g>
	<g>
		<g>
			<path fill="#141B41" d="M46.90283,46.18506c-0.60889,0-1.21045-0.27686-1.60303-0.80225L26.13623,19.75537
				c-3.30225-4.41602-2.396-10.69482,2.01953-13.99707c4.41602-3.30225,10.69482-2.396,13.99707,2.01953l19.16357,25.62744
				c0.66162,0.88477,0.48096,2.13818-0.40381,2.79932c-0.88574,0.66211-2.13818,0.47998-2.79932-0.40381L38.94971,10.17334
				c-1.98096-2.64941-5.74951-3.19287-8.39844-1.21191c-2.64941,1.98145-3.19287,5.74902-1.21191,8.39844L48.50293,42.9873
				c0.66162,0.88477,0.48096,2.13818-0.40381,2.79932C47.73975,46.05566,47.31934,46.18506,46.90283,46.18506z"/>
		</g>
	</g>
	<g>
		<g>
			<path fill="#141B41" d="M38,94c-6.06543,0-11-4.93457-11-11V63c0-3.85938-3.14014-7-7-7s-7,3.14062-7,7v6
				c0,3.99023-2.79443,7-6.5,7H3c-1.10449,0-2-0.89551-2-2s0.89551-2,2-2h3.5C8.22705,72,9,70.49316,9,69v-6
				c0-6.06543,4.93457-11,11-11s11,4.93457,11,11v20c0,3.85938,3.14014,7,7,7s7-3.14062,7-7v-5c0-1.10449,0.89551-2,2-2h6
				c1.10449,0,2,0.89551,2,2s-0.89551,2-2,2h-4v3C49,89.06543,44.06543,94,38,94z"/>
		</g>
	</g>
	<g>
		<g>
			<rect x="53" y="76" fill="#141B41" width="12" height="4"/>
		</g>
	</g>
	<g>
		<g>
			<path fill="#141B41" d="M3,68c-1.10449,0-2-0.89551-2-2v-7c0-1.10449,0.89551-2,2-2s2,0.89551,2,2v7C5,67.10449,4.10449,68,3,68z
				"/>
		</g>
	</g>
	<g>
		<g>
			<path fill="#141B41" d="M3,91c-1.10449,0-2-0.89551-2-2v-7c0-1.10449,0.89551-2,2-2s2,0.89551,2,2v7C5,90.10449,4.10449,91,3,91z
				"/>
		</g>
	</g>
</g>
<g id="drum_x5F_sticks">
</g>
<g id="drum">
</g>
<g id="cymbal">
</g>
<g id="piano">
</g>
<g id="microphone">
</g>
<g id="headphone">
</g>
<g id="musical_x5F_score">
</g>
<g id="accordion">
</g>
<g id="megaphone">
</g>
</svg>
