<?xml version="1.0" encoding="utf-8"?>
<!-- Generator: Adobe Illustrator 19.1.0, SVG Export Plug-In . SVG Version: 6.00 Build 0)  -->
<!DOCTYPE svg PUBLIC "-//W3C//DTD SVG 1.1//EN" "http://www.w3.org/Graphics/SVG/1.1/DTD/svg11.dtd">
<svg version="1.1" xmlns="http://www.w3.org/2000/svg" xmlns:xlink="http://www.w3.org/1999/xlink" x="0px" y="0px" width="96px"
	 height="96px" viewBox="0 0 96 96" enable-background="new 0 0 96 96" xml:space="preserve">
<g id="record_x5F_player">
</g>
<g id="trumpet">
</g>
<g id="stereo_x5F_speaker">
</g>
<g id="guitar">
</g>
<g id="speaker">
</g>
<g id="jack">
</g>
<g id="drum_x5F_sticks">
</g>
<g id="drum">
</g>
<g id="cymbal">
</g>
<g id="piano">
</g>
<g id="microphone">
</g>
<g id="headphone">
</g>
<g id="musical_x5F_score">
	<g opacity="0.6">
		<g>
			<polyline fill="#47BCFE" points="90,25 70,25 70,4 			"/>
		</g>
	</g>
	<g opacity="0.7">
		<g>
			<g>
				<path fill="#CCF2FF" d="M74,27c-1.10449,0-2-0.89551-2-2V9c0-1.10449,0.89551-2,2-2s2,0.89551,2,2v16
					C76,26.10449,75.10449,27,74,27z"/>
			</g>
		</g>
	</g>
	<g opacity="0.6">
		<g>
			<polyline fill="#47BCFE" points="63,62 63,71 33,71 33,62 			"/>
		</g>
	</g>
	<g>
		<g>
			<path fill="#141B41" d="M48,64H6c-1.10449,0-2-0.89551-2-2V4c0-1.10449,0.89551-2,2-2h42c1.10449,0,2,0.89551,2,2v58
				C50,63.10449,49.10449,64,48,64z M8,60h38V6H8V60z"/>
		</g>
	</g>
	<g>
		<g>
			<path fill="#141B41" d="M90,64H48c-1.10449,0-2-0.89551-2-2s0.89551-2,2-2h40V25.7998L69.14258,6H48c-1.10449,0-2-0.89551-2-2
				s0.89551-2,2-2h22c0.54688,0,1.07031,0.22461,1.44824,0.62109l20,21C91.80273,23.99219,92,24.48633,92,25v37
				C92,63.10449,91.10449,64,90,64z"/>
		</g>
	</g>
	<g>
		<g>
			<path fill="#141B41" d="M94,64h-4c-1.10449,0-2-0.89551-2-2s0.89551-2,2-2h4c1.10449,0,2,0.89551,2,2S95.10449,64,94,64z"/>
		</g>
	</g>
	<g>
		<g>
			<path fill="#141B41" d="M6,64H2c-1.10449,0-2-0.89551-2-2s0.89551-2,2-2h4c1.10449,0,2,0.89551,2,2S7.10449,64,6,64z"/>
		</g>
	</g>
	<g>
		<g>
			<path fill="#141B41" d="M63,73H33c-1.10449,0-2-0.89551-2-2v-9c0-1.10449,0.89551-2,2-2s2,0.89551,2,2v7h26v-7
				c0-1.10449,0.89551-2,2-2s2,0.89551,2,2v9C65,72.10449,64.10449,73,63,73z"/>
		</g>
	</g>
	<g>
		<g>
			<path fill="#141B41" d="M90,27H70c-1.10449,0-2-0.89551-2-2V4c0-1.10449,0.89551-2,2-2s2,0.89551,2,2v19h18
				c1.10449,0,2,0.89551,2,2S91.10449,27,90,27z"/>
		</g>
	</g>
	<g>
		<g>
			<path fill="#141B41" d="M34,34H6c-0.55225,0-1-0.44727-1-1s0.44775-1,1-1h28c0.55225,0,1,0.44727,1,1S34.55225,34,34,34z"/>
		</g>
	</g>
	<g>
		<g>
			<path fill="#141B41" d="M42,34h-3c-0.55225,0-1-0.44727-1-1s0.44775-1,1-1h3c0.55225,0,1,0.44727,1,1S42.55225,34,42,34z"/>
		</g>
	</g>
	<g>
		<g>
			<path fill="#141B41" d="M48,44H20c-0.55225,0-1-0.44727-1-1s0.44775-1,1-1h28c0.55225,0,1,0.44727,1,1S48.55225,44,48,44z"/>
		</g>
	</g>
	<g>
		<g>
			<path fill="#141B41" d="M15,44h-3c-0.55225,0-1-0.44727-1-1s0.44775-1,1-1h3c0.55225,0,1,0.44727,1,1S15.55225,44,15,44z"/>
		</g>
	</g>
	<g>
		<g>
			<path fill="#141B41" d="M48,39H18c-0.55225,0-1-0.44727-1-1s0.44775-1,1-1h30c0.55225,0,1,0.44727,1,1S48.55225,39,48,39z"/>
		</g>
	</g>
	<g>
		<g>
			<path fill="#141B41" d="M90,44H68c-0.55273,0-1-0.44727-1-1s0.44727-1,1-1h22c0.55273,0,1,0.44727,1,1S90.55273,44,90,44z"/>
		</g>
	</g>
	<g>
		<g>
			<path fill="#141B41" d="M70,34H48c-0.55225,0-1-0.44727-1-1s0.44775-1,1-1h22c0.55273,0,1,0.44727,1,1S70.55273,34,70,34z"/>
		</g>
	</g>
	<g>
		<g>
			<path fill="#141B41" d="M78,39H63c-0.55273,0-1-0.44727-1-1s0.44727-1,1-1h15c0.55273,0,1,0.44727,1,1S78.55273,39,78,39z"/>
		</g>
	</g>
	<g>
		<g>
			<path fill="#141B41" d="M63,44h-4c-0.55273,0-1-0.44727-1-1s0.44727-1,1-1h4c0.55273,0,1,0.44727,1,1S63.55273,44,63,44z"/>
		</g>
	</g>
	<g>
		<g>
			<path fill="#141B41" d="M44,94H6c-1.10449,0-2-0.89551-2-2s0.89551-2,2-2h38c1.10449,0,2,0.89551,2,2S45.10449,94,44,94z"/>
		</g>
	</g>
	<g>
		<g>
			<path fill="#141B41" d="M72,94H56c-1.10449,0-2-0.89551-2-2s0.89551-2,2-2h16c1.10449,0,2,0.89551,2,2S73.10449,94,72,94z"/>
		</g>
	</g>
	<g>
		<g>
			<path fill="#141B41" d="M30,94h-7c-1.10449,0-2-0.89551-2-2s0.89551-2,2-2h7c1.10449,0,2,0.89551,2,2S31.10449,94,30,94z"/>
		</g>
	</g>
	<g>
		<g>
			<path fill="#141B41" d="M48,94H38c-1.10449,0-2-0.89551-2-2s0.89551-2,2-2h8V71c0-1.10449,0.89551-2,2-2s2,0.89551,2,2v21
				C50,93.10449,49.10449,94,48,94z"/>
		</g>
	</g>
	<g>
		<g>
			<path fill="#141B41" d="M13,18c-0.55225,0-1-0.44727-1-1V4c0-0.55273,0.44775-1,1-1s1,0.44727,1,1v13
				C14,17.55273,13.55225,18,13,18z"/>
		</g>
	</g>
	<g>
		<g>
			<path fill="#141B41" d="M18,12c-0.55225,0-1-0.44727-1-1V4c0-0.55273,0.44775-1,1-1s1,0.44727,1,1v7
				C19,11.55273,18.55225,12,18,12z"/>
		</g>
	</g>
	<g>
		<g>
			<path fill="#141B41" d="M93.00195,94c-0.70605,0-1.39062-0.37402-1.75391-1.03613l-22-40
				c-0.5332-0.96777-0.17969-2.18359,0.78809-2.71582c0.96777-0.5332,2.18555-0.17969,2.71582,0.78809l22,40
				c0.5332,0.96777,0.17969,2.18359-0.78809,2.71582C93.6582,93.9209,93.32812,94,93.00195,94z"/>
		</g>
	</g>
</g>
<g id="accordion">
</g>
<g id="megaphone">
</g>
</svg>
