<?xml version="1.0" encoding="utf-8"?>
<!-- Generator: Adobe Illustrator 19.1.0, SVG Export Plug-In . SVG Version: 6.00 Build 0)  -->
<!DOCTYPE svg PUBLIC "-//W3C//DTD SVG 1.1//EN" "http://www.w3.org/Graphics/SVG/1.1/DTD/svg11.dtd">
<svg version="1.1" xmlns="http://www.w3.org/2000/svg" xmlns:xlink="http://www.w3.org/1999/xlink" x="0px" y="0px" width="96px"
	 height="96px" viewBox="0 0 96 96" enable-background="new 0 0 96 96" xml:space="preserve">
<g id="record_x5F_player">
</g>
<g id="trumpet">
</g>
<g id="stereo_x5F_speaker">
</g>
<g id="guitar">
	<g opacity="0.6">
		<g>
			<circle fill="#47BCFE" cx="48" cy="52" r="16"/>
		</g>
	</g>
	<g opacity="0.7">
		<g>
			<path fill="#CCF2FF" d="M32,52c0,8.83656,7.16344,16,16,16s16-7.16344,16-16H32z"/>
		</g>
	</g>
	<g>
		<g>
			<path fill="#141B41" d="M94,96H2c-1.10449,0-2-0.89551-2-2s0.89551-2,2-2h92c1.10449,0,2,0.89551,2,2S95.10449,96,94,96z"/>
		</g>
	</g>
	<g opacity="0.6">
		<g>
			<polyline fill="#47BCFE" points="36,94 36,79 60,79 60,94 			"/>
		</g>
	</g>
	<g>
		<g>
			<path fill="#141B41" d="M28,67c-0.25586,0-0.51172-0.09766-0.70703-0.29297c-0.39062-0.39062-0.39062-1.02344,0-1.41406l6-6
				c0.39062-0.39062,1.02344-0.39062,1.41406,0s0.39062,1.02344,0,1.41406l-6,6C28.51172,66.90234,28.25586,67,28,67z"/>
		</g>
	</g>
	<g>
		<g>
			<path fill="#141B41" d="M68.00098,67.00098c-0.25586,0-0.51172-0.09766-0.70703-0.29297l-6.00098-6.00098
				c-0.39062-0.39062-0.39062-1.02344,0-1.41406s1.02344-0.39062,1.41406,0l6.00098,6.00098
				c0.39062,0.39062,0.39062,1.02344,0,1.41406C68.5127,66.90332,68.25684,67.00098,68.00098,67.00098z"/>
		</g>
	</g>
	<g>
		<g>
			<path fill="#141B41" d="M34,45c-0.25586,0-0.51172-0.09766-0.70703-0.29297l-6-6c-0.39062-0.39062-0.39062-1.02344,0-1.41406
				s1.02344-0.39062,1.41406,0l6,6c0.39062,0.39062,0.39062,1.02344,0,1.41406C34.51172,44.90234,34.25586,45,34,45z"/>
		</g>
	</g>
	<g>
		<g>
			<path fill="#141B41" d="M62,45c-0.25586,0-0.51172-0.09766-0.70703-0.29297c-0.39062-0.39062-0.39062-1.02344,0-1.41406
				l6.00098-6.00098c0.39062-0.39062,1.02344-0.39062,1.41406,0s0.39062,1.02344,0,1.41406l-6.00098,6.00098
				C62.51172,44.90234,62.25586,45,62,45z"/>
		</g>
	</g>
	<g>
		<g>
			<path fill="#141B41" d="M60,85H36c-0.55273,0-1-0.44775-1-1s0.44727-1,1-1h24c0.55273,0,1,0.44775,1,1S60.55273,85,60,85z"/>
		</g>
	</g>
	<g>
		<g>
			<path fill="#141B41" d="M48,80c-0.55273,0-1-0.44775-1-1V1c0-0.55225,0.44727-1,1-1s1,0.44775,1,1v78
				C49,79.55225,48.55273,80,48,80z"/>
		</g>
	</g>
	<g>
		<g>
			<path fill="#141B41" d="M48,95c-0.55273,0-1-0.44775-1-1v-5c0-0.55225,0.44727-1,1-1s1,0.44775,1,1v5
				C49,94.55225,48.55273,95,48,95z"/>
		</g>
	</g>
	<g>
		<g>
			<path fill="#141B41" d="M42,80c-0.55273,0-1-0.44775-1-1V1c0-0.55225,0.44727-1,1-1s1,0.44775,1,1v78
				C43,79.55225,42.55273,80,42,80z"/>
		</g>
	</g>
	<g>
		<g>
			<path fill="#141B41" d="M54,80c-0.55273,0-1-0.44775-1-1V1c0-0.55225,0.44727-1,1-1s1,0.44775,1,1v78
				C55,79.55225,54.55273,80,54,80z"/>
		</g>
	</g>
	<g>
		<g>
			<path fill="#141B41" d="M72,96H24C12.0752,96,2,85.69629,2,73.5v-7.99902c0-4.82373,3.47559-8.85547,8.06934-9.75244
				c0.67773-9.20654,6.37402-19.92969,14.60156-27.24316c0.82812-0.73438,2.08984-0.65967,2.82422,0.16602
				c0.7334,0.82568,0.65918,2.08984-0.16602,2.82324c-7.97168,7.08594-13.32812,17.56201-13.32812,26.06787c0,1.10449-0.89551,2-2,2
				C8.69238,59.5625,6,62.22656,6,65.50098V73.5C6,83.52783,14.24316,92,24,92h48c9.75684,0,18-8.47217,18-18.5v-7.99902
				C90,62.19189,87.30762,59.5,83.99902,59.5c-1.10449,0-2-0.89551-2-2c0-7.55371-5.99121-19.23096-13.35547-26.03076
				c-0.81152-0.74902-0.8623-2.01465-0.11328-2.82617c0.75-0.8125,2.01465-0.8623,2.82617-0.1123
				c7.78906,7.19141,13.79004,18.51514,14.55957,27.15332C90.5166,56.58057,94,60.6416,94,65.50098V73.5
				C94,85.69629,83.9248,96,72,96z"/>
		</g>
	</g>
	<g>
		<g>
			<path fill="#141B41" d="M26,32c-1.10449,0-2-0.89551-2-2s0.89551-2,2-2c2.20605,0,4-1.79443,4-4s-1.79395-4-4-4
				c-1.10449,0-2-0.89551-2-2v-6c0-1.10449,0.89551-2,2-2h7V2c0-1.10449,0.89551-2,2-2s2,0.89551,2,2v10c0,1.10449-0.89551,2-2,2h-7
				v2.25293C31.44629,17.14355,34,20.2793,34,24C34,28.41113,30.41113,32,26,32z"/>
		</g>
	</g>
	<g>
		<g>
			<path fill="#141B41" d="M70,20c-1.10449,0-2-0.89551-2-2v-5h-7c-1.10449,0-2-0.89551-2-2V2c0-1.10449,0.89551-2,2-2
				s2,0.89551,2,2v7h7c1.10449,0,2,0.89551,2,2v7C72,19.10449,71.10449,20,70,20z"/>
		</g>
	</g>
	<g>
		<g>
			<path fill="#141B41" d="M70,32c-4.41113,0-8-3.58887-8-8s3.58887-8,8-8c1.10449,0,2,0.89551,2,2s-0.89551,2-2,2
				c-2.20605,0-4,1.79443-4,4s1.79395,4,4,4c1.10449,0,2,0.89551,2,2S71.10449,32,70,32z"/>
		</g>
	</g>
	<g>
		<g>
			<path fill="#141B41" d="M60,96c-1.10449,0-2-0.89551-2-2V81H38v13c0,1.10449-0.89551,2-2,2s-2-0.89551-2-2V79
				c0-1.10449,0.89551-2,2-2h24c1.10449,0,2,0.89551,2,2v15C62,95.10449,61.10449,96,60,96z"/>
		</g>
	</g>
	<g>
		<g>
			<path fill="#141B41" d="M58,24H38c-0.55273,0-1-0.44775-1-1s0.44727-1,1-1h20c0.55273,0,1,0.44775,1,1S58.55273,24,58,24z"/>
		</g>
	</g>
	<g>
		<g>
			<path fill="#141B41" d="M48,70c-9.9248,0-18-8.07471-18-18s8.0752-18,18-18s18,8.07471,18,18S57.9248,70,48,70z M48,38
				c-7.71973,0-14,6.28027-14,14s6.28027,14,14,14s14-6.28027,14-14S55.71973,38,48,38z"/>
		</g>
	</g>
	<g>
		<g>
			<path fill="#141B41" d="M32,54h-5c-0.55273,0-1-0.44775-1-1s0.44727-1,1-1h5c0.55273,0,1,0.44775,1,1S32.55273,54,32,54z"/>
		</g>
	</g>
	<g>
		<g>
			<path fill="#141B41" d="M69,54h-5c-0.55273,0-1-0.44775-1-1s0.44727-1,1-1h5c0.55273,0,1,0.44775,1,1S69.55273,54,69,54z"/>
		</g>
	</g>
	<g>
		<g>
			<path fill="#141B41" d="M78,78c-0.55273,0-1-0.44775-1-1s0.44727-1,1-1c1.6543,0,3-1.3457,3-3s-1.3457-3-3-3s-3,1.3457-3,3
				c0,0.55225-0.44727,1-1,1h-6c-0.55273,0-1-0.44775-1-1s0.44727-1,1-1h5.10059c0.46484-2.2793,2.48438-4,4.89941-4
				c2.75684,0,5,2.24316,5,5S80.75684,78,78,78z"/>
		</g>
	</g>
	<g>
		<g>
			<path fill="#141B41" d="M18,78c-2.75684,0-5-2.24316-5-5s2.24316-5,5-5c2.41504,0,4.43457,1.7207,4.89941,4H28
				c0.55273,0,1,0.44775,1,1s-0.44727,1-1,1h-6c-0.55273,0-1-0.44775-1-1c0-1.6543-1.3457-3-3-3s-3,1.3457-3,3s1.3457,3,3,3
				c0.55273,0,1,0.44775,1,1S18.55273,78,18,78z"/>
		</g>
	</g>
</g>
<g id="speaker">
</g>
<g id="jack">
</g>
<g id="drum_x5F_sticks">
</g>
<g id="drum">
</g>
<g id="cymbal">
</g>
<g id="piano">
</g>
<g id="microphone">
</g>
<g id="headphone">
</g>
<g id="musical_x5F_score">
</g>
<g id="accordion">
</g>
<g id="megaphone">
</g>
</svg>
