<?xml version="1.0" encoding="utf-8"?>
<!-- Generator: Adobe Illustrator 19.1.0, SVG Export Plug-In . SVG Version: 6.00 Build 0)  -->
<!DOCTYPE svg PUBLIC "-//W3C//DTD SVG 1.1//EN" "http://www.w3.org/Graphics/SVG/1.1/DTD/svg11.dtd">
<svg version="1.1" xmlns="http://www.w3.org/2000/svg" xmlns:xlink="http://www.w3.org/1999/xlink" x="0px" y="0px" width="96px"
	 height="96px" viewBox="0 0 96 96" enable-background="new 0 0 96 96" xml:space="preserve">
<g id="record_x5F_player">
</g>
<g id="trumpet">
</g>
<g id="stereo_x5F_speaker">
</g>
<g id="guitar">
</g>
<g id="speaker">
</g>
<g id="jack">
</g>
<g id="drum_x5F_sticks">
	<g opacity="0.6">
		<g>
			<circle fill="#47BCFE" cx="74" cy="22" r="18"/>
		</g>
	</g>
	<g opacity="0.6">
		<g>
			<circle fill="#47BCFE" cx="22" cy="22" r="18"/>
		</g>
	</g>
	<g opacity="0.7">
		<g>
			<path fill="#CCF2FF" d="M22,4c10,0,18,8.05887,18,18s-8,18-18,18V4z"/>
		</g>
	</g>
	<g opacity="0.7">
		<g>
			<path fill="#CCF2FF" d="M74,4c-10,0-18,8.05887-18,18s8,18,18,18V4z"/>
		</g>
	</g>
	<g>
		<g>
			<path fill="#141B41" d="M15,83H4c-0.55225,0-1-0.44727-1-1s0.44775-1,1-1h11c0.55225,0,1,0.44727,1,1S15.55225,83,15,83z"/>
		</g>
	</g>
	<g>
		<g>
			<path fill="#141B41" d="M23,87H12c-0.55225,0-1-0.44727-1-1s0.44775-1,1-1h11c0.55225,0,1,0.44727,1,1S23.55225,87,23,87z"/>
		</g>
	</g>
	<g>
		<g>
			<path fill="#141B41" d="M83,83H72c-0.55225,0-1-0.44727-1-1s0.44775-1,1-1h11c0.55225,0,1,0.44727,1,1S83.55225,83,83,83z"/>
		</g>
	</g>
	<g>
		<g>
			<path fill="#141B41" d="M91,87H80c-0.55225,0-1-0.44727-1-1s0.44775-1,1-1h11c0.55225,0,1,0.44727,1,1S91.55225,87,91,87z"/>
		</g>
	</g>
	<g>
		<g>
			<path fill="#141B41" d="M36,94H14c-1.10449,0-2-0.89551-2-2s0.89551-2,2-2h22c1.10449,0,2,0.89551,2,2S37.10449,94,36,94z"/>
		</g>
	</g>
	<g>
		<g>
			<path fill="#141B41" d="M82,94H60c-1.10449,0-2-0.89551-2-2s0.89551-2,2-2h22c1.10449,0,2,0.89551,2,2S83.10449,94,82,94z"/>
		</g>
	</g>
	<g>
		<g>
			<path fill="#141B41" d="M19.12402,26.5708c-0.26953,0-0.53857-0.1084-0.73535-0.32178
				c-0.37451-0.40625-0.34912-1.03857,0.05664-1.41309L34.99609,9.56592c0.40674-0.37402,1.04004-0.34814,1.41309,0.05664
				c0.37451,0.40625,0.34912,1.03857-0.05664,1.41309L19.80176,26.30566C19.60938,26.48291,19.36621,26.5708,19.12402,26.5708z"/>
		</g>
	</g>
	<g>
		<g>
			<path fill="#141B41" d="M74,42c-11.02783,0-20-8.97217-20-20S62.97217,2,74,2s20,8.97217,20,20S85.02783,42,74,42z M74,6
				c-8.82227,0-16,7.17773-16,16s7.17773,16,16,16s16-7.17773,16-16S82.82227,6,74,6z"/>
		</g>
	</g>
	<g>
		<g>
			<path fill="#141B41" d="M14,94C7.3833,94,2,88.61719,2,82s5.3833-12,12-12s12,5.38281,12,12S20.6167,94,14,94z M14,74
				c-4.41113,0-8,3.58887-8,8s3.58887,8,8,8s8-3.58887,8-8S18.41113,74,14,74z"/>
		</g>
	</g>
	<g>
		<g>
			<path fill="#141B41" d="M21.07959,76.93848c-0.51758,0-1.03418-0.19922-1.42578-0.59766
				c-0.7749-0.78711-0.76416-2.05371,0.02344-2.82812l40.54297-39.87549c0.78662-0.77588,2.05273-0.76416,2.82812,0.02344
				c0.7749,0.7876,0.76416,2.05371-0.02344,2.82812L22.48193,76.36426C22.09277,76.74707,21.58594,76.93848,21.07959,76.93848z"/>
		</g>
	</g>
	<g>
		<g>
			<path fill="#141B41" d="M22,42C10.97217,42,2,33.02783,2,22S10.97217,2,22,2s20,8.97217,20,20S33.02783,42,22,42z M22,6
				C13.17773,6,6,13.17773,6,22s7.17773,16,16,16s16-7.17773,16-16S30.82227,6,22,6z"/>
		</g>
	</g>
	<g>
		<g>
			<path fill="#141B41" d="M33,23c-0.55225,0-1-0.44775-1-1c0-5.51416-4.48584-10-10-10s-10,4.48584-10,10c0,0.55225-0.44775,1-1,1
				s-1-0.44775-1-1c0-6.6167,5.3833-12,12-12s12,5.3833,12,12C34,22.55225,33.55225,23,33,23z"/>
		</g>
	</g>
	<g>
		<g>
			<path fill="#141B41" d="M85,23c-0.55225,0-1-0.44775-1-1c0-5.51416-4.48584-10-10-10s-10,4.48584-10,10c0,0.55225-0.44775,1-1,1
				s-1-0.44775-1-1c0-6.6167,5.3833-12,12-12s12,5.3833,12,12C86,22.55225,85.55225,23,85,23z"/>
		</g>
	</g>
	<g>
		<g>
			<path fill="#141B41" d="M82,94c-6.6167,0-12-5.38281-12-12s5.3833-12,12-12s12,5.38281,12,12S88.6167,94,82,94z M82,74
				c-4.41113,0-8,3.58887-8,8s3.58887,8,8,8s8-3.58887,8-8S86.41113,74,82,74z"/>
		</g>
	</g>
	<g>
		<g>
			<path fill="#141B41" d="M74.92041,76.93848c-0.50635,0-1.01318-0.19141-1.40234-0.57422l-40.5415-39.87402
				c-0.7876-0.77441-0.79834-2.04053-0.02344-2.82812s2.04102-0.79785,2.82812-0.02344l40.5415,39.87402
				c0.7876,0.77441,0.79785,2.04102,0.02344,2.82812C75.95459,76.73926,75.4375,76.93848,74.92041,76.93848z"/>
		</g>
	</g>
	<g>
		<g>
			<path fill="#141B41" d="M77.67383,25.5708c-0.24219,0-0.48535-0.0874-0.67773-0.26514L60.44531,10.03564
				c-0.40576-0.37451-0.43115-1.00684-0.05664-1.41309c0.37402-0.4043,1.00684-0.43164,1.41309-0.05664l16.55078,15.27002
				c0.40576,0.37451,0.43115,1.00684,0.05664,1.41309C78.2124,25.4624,77.94336,25.5708,77.67383,25.5708z"/>
		</g>
	</g>
</g>
<g id="drum">
</g>
<g id="cymbal">
</g>
<g id="piano">
</g>
<g id="microphone">
</g>
<g id="headphone">
</g>
<g id="musical_x5F_score">
</g>
<g id="accordion">
</g>
<g id="megaphone">
</g>
</svg>
