<?xml version="1.0" encoding="utf-8"?>
<!-- Generator: Adobe Illustrator 19.1.0, SVG Export Plug-In . SVG Version: 6.00 Build 0)  -->
<!DOCTYPE svg PUBLIC "-//W3C//DTD SVG 1.1//EN" "http://www.w3.org/Graphics/SVG/1.1/DTD/svg11.dtd">
<svg version="1.1" xmlns="http://www.w3.org/2000/svg" xmlns:xlink="http://www.w3.org/1999/xlink" x="0px" y="0px" width="96px"
	 height="96px" viewBox="0 0 96 96" enable-background="new 0 0 96 96" xml:space="preserve">
<g id="record_x5F_player">
</g>
<g id="trumpet">
	<g opacity="0.6">
		<g>
			<path fill="#47BCFE" d="M86,44h-7c-8.83656,0-16-7.16344-16-16l0,0v-2c0-8.83656,7.16344-16,16-16h7V44z"/>
		</g>
	</g>
	<g opacity="0.7">
		<g>
			<path fill="#CCF2FF" d="M86,28v16h-7c-8.83656,0-16-7.16344-16-16l0,0"/>
		</g>
	</g>
	<g>
		<g>
			<path fill="#141B41" d="M70,29h-7c-0.55225,0-1-0.44775-1-1s0.44775-1,1-1h7c0.55225,0,1,0.44775,1,1S70.55225,29,70,29z"/>
		</g>
	</g>
	<g>
		<g>
			<path fill="#141B41" d="M94,42h-7c-0.55225,0-1-0.44775-1-1s0.44775-1,1-1h7c0.55225,0,1,0.44775,1,1S94.55225,42,94,42z"/>
		</g>
	</g>
	<g>
		<g>
			<path fill="#141B41" d="M94,14h-7c-0.55225,0-1-0.44775-1-1s0.44775-1,1-1h7c0.55225,0,1,0.44775,1,1S94.55225,14,94,14z"/>
		</g>
	</g>
	<g>
		<g>
			<path fill="#141B41" d="M50,96H2c-1.10449,0-2-0.89551-2-2s0.89551-2,2-2h48c1.10449,0,2,0.89551,2,2S51.10449,96,50,96z"/>
		</g>
	</g>
	<g>
		<g>
			<path fill="#141B41" d="M79,29c-0.55225,0-1-0.44775-1-1V10c0-0.55225,0.44775-1,1-1s1,0.44775,1,1v18
				C80,28.55225,79.55225,29,79,29z"/>
		</g>
	</g>
	<g>
		<g>
			<path fill="#141B41" d="M86,46h-7c-9.92529,0-18-8.07471-18-18v-2c0-9.92529,8.07471-18,18-18h7c1.10449,0,2,0.89551,2,2v34
				C88,45.10449,87.10449,46,86,46z M79,12c-7.71973,0-14,6.28027-14,14v2c0,7.71973,6.28027,14,14,14h5V12H79z"/>
		</g>
	</g>
	<g>
		<g>
			<path fill="#141B41" d="M30,62H8c-1.10449,0-2-0.89551-2-2s0.89551-2,2-2h22c1.10449,0,2,0.89551,2,2S31.10449,62,30,62z"/>
		</g>
	</g>
	<g>
		<g>
			<path fill="#141B41" d="M42,62h-6c-1.10449,0-2-0.89551-2-2s0.89551-2,2-2h6c1.10449,0,2,0.89551,2,2S43.10449,62,42,62z"/>
		</g>
	</g>
	<g>
		<g>
			<path fill="#141B41" d="M54,62h-6c-1.10449,0-2-0.89551-2-2s0.89551-2,2-2h6c1.10449,0,2,0.89551,2,2S55.10449,62,54,62z"/>
		</g>
	</g>
	<g>
		<g>
			<path fill="#141B41" d="M77,96H50c-19.29883,0-35-15.70117-35-35s15.70117-35,35-35h13c1.10449,0,2,0.89551,2,2s-0.89551,2-2,2
				H50c-17.09326,0-31,13.90674-31,31s13.90674,31,31,31h27c8.271,0,15-6.729,15-15s-6.729-15-15-15H60c-1.10449,0-2-0.89551-2-2
				s0.89551-2,2-2h17c10.47656,0,19,8.52344,19,19S87.47656,96,77,96z"/>
		</g>
	</g>
	<g>
		<g>
			<path fill="#141B41" d="M60,80c-1.10449,0-2-0.89551-2-2V28c0-1.10449,0.89551-2,2-2s2,0.89551,2,2v50
				C62,79.10449,61.10449,80,60,80z"/>
		</g>
	</g>
	<g>
		<g>
			<path fill="#141B41" d="M60,96c-1.10449,0-2-0.89551-2-2V78c0-1.10449,0.89551-2,2-2s2,0.89551,2,2v16
				C62,95.10449,61.10449,96,60,96z"/>
		</g>
	</g>
	<g>
		<g>
			<path fill="#141B41" d="M54,80c-1.10449,0-2-0.89551-2-2V28c0-1.10449,0.89551-2,2-2s2,0.89551,2,2v50
				C56,79.10449,55.10449,80,54,80z"/>
		</g>
	</g>
	<g>
		<g>
			<path fill="#141B41" d="M54,96c-1.10449,0-2-0.89551-2-2V78c0-1.10449,0.89551-2,2-2s2,0.89551,2,2v16
				C56,95.10449,55.10449,96,54,96z"/>
		</g>
	</g>
	<g>
		<g>
			<path fill="#141B41" d="M48,80c-1.10449,0-2-0.89551-2-2V28c0-1.10449,0.89551-2,2-2s2,0.89551,2,2v50
				C50,79.10449,49.10449,80,48,80z"/>
		</g>
	</g>
	<g>
		<g>
			<path fill="#141B41" d="M48,96c-1.10449,0-2-0.89551-2-2V78c0-1.10449,0.89551-2,2-2s2,0.89551,2,2v16
				C50,95.10449,49.10449,96,48,96z"/>
		</g>
	</g>
	<g>
		<g>
			<path fill="#141B41" d="M42,80c-1.10449,0-2-0.89551-2-2V29c0-1.10449,0.89551-2,2-2s2,0.89551,2,2v49
				C44,79.10449,43.10449,80,42,80z"/>
		</g>
	</g>
	<g>
		<g>
			<path fill="#141B41" d="M42,95c-1.10449,0-2-0.89551-2-2V78c0-1.10449,0.89551-2,2-2s2,0.89551,2,2v15
				C44,94.10449,43.10449,95,42,95z"/>
		</g>
	</g>
	<g>
		<g>
			<path fill="#141B41" d="M36,80c-1.10449,0-2-0.89551-2-2V31c0-1.10449,0.89551-2,2-2s2,0.89551,2,2v47
				C38,79.10449,37.10449,80,36,80z"/>
		</g>
	</g>
	<g>
		<g>
			<rect x="34" y="78" fill="#141B41" width="4" height="13"/>
		</g>
	</g>
	<g>
		<g>
			<path fill="#141B41" d="M30,80c-1.10449,0-2-0.89551-2-2V35c0-1.10449,0.89551-2,2-2s2,0.89551,2,2v43
				C32,79.10449,31.10449,80,30,80z"/>
		</g>
	</g>
	<g>
		<g>
			<path fill="#141B41" d="M30,89c-1.10449,0-2-0.89551-2-2v-9c0-1.10449,0.89551-2,2-2s2,0.89551,2,2v9
				C32,88.10449,31.10449,89,30,89z"/>
		</g>
	</g>
	<g>
		<g>
			<path fill="#141B41" d="M94,50h-4c-3.30859,0-6-2.69141-6-6c0-1.10449,0.89551-2,2-2s2,0.89551,2,2c0,1.10303,0.89697,2,2,2h2V8
				h-2c-1.10303,0-2,0.89697-2,2c0,1.10449-0.89551,2-2,2s-2-0.89551-2-2c0-3.30859,2.69141-6,6-6h4c1.10449,0,2,0.89551,2,2v42
				C96,49.10449,95.10449,50,94,50z"/>
		</g>
	</g>
	<g>
		<g>
			<path fill="#141B41" d="M5,65c-2.75684,0-5-2.24316-5-5s2.24316-5,5-5s5,2.24316,5,5S7.75684,65,5,65z M5,59
				c-0.55127,0-1,0.44873-1,1s0.44873,1,1,1s1-0.44873,1-1S5.55127,59,5,59z"/>
		</g>
	</g>
	<g>
		<g>
			<path fill="#141B41" d="M49,30H12c-4.41113,0-8-3.58887-8-8s3.58887-8,8-8c1.10449,0,2,0.89551,2,2s-0.89551,2-2,2
				c-2.20557,0-4,1.79443-4,4s1.79443,4,4,4h37c1.10449,0,2,0.89551,2,2S50.10449,30,49,30z"/>
		</g>
	</g>
	<g>
		<g>
			<path fill="#141B41" d="M39,18H20c-1.10449,0-2-0.89551-2-2s0.89551-2,2-2h19c1.10449,0,2,0.89551,2,2S40.10449,18,39,18z"/>
		</g>
	</g>
	<g>
		<g>
			<path fill="#141B41" d="M51,18h-4c-1.10449,0-2-0.89551-2-2s0.89551-2,2-2h4c1.10449,0,2,0.89551,2,2S52.10449,18,51,18z"/>
		</g>
	</g>
</g>
<g id="stereo_x5F_speaker">
</g>
<g id="guitar">
</g>
<g id="speaker">
</g>
<g id="jack">
</g>
<g id="drum_x5F_sticks">
</g>
<g id="drum">
</g>
<g id="cymbal">
</g>
<g id="piano">
</g>
<g id="microphone">
</g>
<g id="headphone">
</g>
<g id="musical_x5F_score">
</g>
<g id="accordion">
</g>
<g id="megaphone">
</g>
</svg>
