<?xml version="1.0" encoding="utf-8"?>
<!-- Generator: Adobe Illustrator 19.1.0, SVG Export Plug-In . SVG Version: 6.00 Build 0)  -->
<!DOCTYPE svg PUBLIC "-//W3C//DTD SVG 1.1//EN" "http://www.w3.org/Graphics/SVG/1.1/DTD/svg11.dtd">
<svg version="1.1" xmlns="http://www.w3.org/2000/svg" xmlns:xlink="http://www.w3.org/1999/xlink" x="0px" y="0px" width="96px"
	 height="96px" viewBox="0 0 96 96" enable-background="new 0 0 96 96" xml:space="preserve">
<g id="record_x5F_player">
</g>
<g id="trumpet">
</g>
<g id="stereo_x5F_speaker">
</g>
<g id="guitar">
</g>
<g id="speaker">
</g>
<g id="jack">
</g>
<g id="drum_x5F_sticks">
</g>
<g id="drum">
</g>
<g id="cymbal">
</g>
<g id="piano">
</g>
<g id="microphone">
</g>
<g id="headphone">
	<g opacity="0.6">
		<g>
			<path fill="#47BCFE" d="M34,53h-4.5C18.73045,53,10,61.73045,10,72.5S18.73045,92,29.5,92H34V53z"/>
		</g>
	</g>
	<g opacity="0.7">
		<g>
			<path fill="#CCF2FF" d="M10,72.5C10,83.26955,18.73045,92,29.5,92H34L10,72.5z"/>
		</g>
	</g>
	<g opacity="0.6">
		<g>
			<path fill="#47BCFE" d="M62,53h4.5C77.26955,53,86,61.73045,86,72.5S77.26955,92,66.5,92H62V53z"/>
		</g>
	</g>
	<g opacity="0.7">
		<g>
			<path fill="#CCF2FF" d="M86,72.5C86,83.26955,77.26955,92,66.5,92H62L86,72.5z"/>
		</g>
	</g>
	<g>
		<g>
			<path fill="#141B41" d="M94,75h-8c-1.10449,0-2-0.89551-2-2s0.89551-2,2-2h8c1.10449,0,2,0.89551,2,2S95.10449,75,94,75z"/>
		</g>
	</g>
	<g>
		<g>
			<path fill="#141B41" d="M92,75c-1.10449,0-2-0.89551-2-2V48C90,24.84082,71.15869,6,48,6S6,24.84082,6,48v25
				c0,1.10449-0.89551,2-2,2s-2-0.89551-2-2V48C2,22.63574,22.63574,2,48,2s46,20.63574,46,46v25C94,74.10449,93.10449,75,92,75z"/>
		</g>
	</g>
	<g>
		<g>
			<path fill="#141B41" d="M10,75H2c-1.10449,0-2-0.89551-2-2s0.89551-2,2-2h8c1.10449,0,2,0.89551,2,2S11.10449,75,10,75z"/>
		</g>
	</g>
	<g>
		<g>
			<path fill="#141B41" d="M18,74h-8c-0.55225,0-1-0.44727-1-1s0.44775-1,1-1h8c0.55225,0,1,0.44727,1,1S18.55225,74,18,74z"/>
		</g>
	</g>
	<g>
		<g>
			<path fill="#141B41" d="M86,74h-8c-0.55225,0-1-0.44727-1-1s0.44775-1,1-1h8c0.55225,0,1,0.44727,1,1S86.55225,74,86,74z"/>
		</g>
	</g>
	<g>
		<g>
			<path fill="#141B41" d="M92,63c-1.10449,0-2-0.89551-2-2c0-23.15918-18.84131-42-42-42S6,37.84082,6,61c0,1.10449-0.89551,2-2,2
				s-2-0.89551-2-2c0-25.36426,20.63574-46,46-46s46,20.63574,46,46C94,62.10449,93.10449,63,92,63z"/>
		</g>
	</g>
	<g>
		<g>
			<path fill="#141B41" d="M34,94h-4.5C17.64502,94,8,84.35547,8,72.5S17.64502,51,29.5,51H34c1.10449,0,2,0.89551,2,2v39
				C36,93.10449,35.10449,94,34,94z M29.5,55C19.85059,55,12,62.85059,12,72.5S19.85059,90,29.5,90H32V55H29.5z"/>
		</g>
	</g>
	<g>
		<g>
			<path fill="#141B41" d="M28,93c-0.55225,0-1-0.44727-1-1V67c0-0.55273,0.44775-1,1-1s1,0.44727,1,1v25
				C29,92.55273,28.55225,93,28,93z"/>
		</g>
	</g>
	<g>
		<g>
			<path fill="#141B41" d="M68,93c-0.55225,0-1-0.44727-1-1V67c0-0.55273,0.44775-1,1-1s1,0.44727,1,1v25
				C69,92.55273,68.55225,93,68,93z"/>
		</g>
	</g>
	<g>
		<g>
			<path fill="#141B41" d="M41,94h-7c-1.10449,0-2-0.89551-2-2s0.89551-2,2-2h5V55h-5c-1.10449,0-2-0.89551-2-2s0.89551-2,2-2h7
				c1.10449,0,2,0.89551,2,2v39C43,93.10449,42.10449,94,41,94z"/>
		</g>
	</g>
	<g>
		<g>
			<path fill="#141B41" d="M62,94h-7c-1.10449,0-2-0.89551-2-2V53c0-1.10449,0.89551-2,2-2h7c1.10449,0,2,0.89551,2,2
				s-0.89551,2-2,2h-5v35h5c1.10449,0,2,0.89551,2,2S63.10449,94,62,94z"/>
		</g>
	</g>
	<g>
		<g>
			<path fill="#141B41" d="M66.5,94H62c-1.10449,0-2-0.89551-2-2V53c0-1.10449,0.89551-2,2-2h4.5C78.35498,51,88,60.64453,88,72.5
				S78.35498,94,66.5,94z M64,90h2.5C76.14941,90,84,82.14941,84,72.5S76.14941,55,66.5,55H64V90z"/>
		</g>
	</g>
	<g>
		<g>
			<path fill="#141B41" d="M29,94H2c-1.10449,0-2-0.89551-2-2s0.89551-2,2-2h27c1.10449,0,2,0.89551,2,2S30.10449,94,29,94z"/>
		</g>
	</g>
	<g>
		<g>
			<path fill="#141B41" d="M94,94H67c-1.10449,0-2-0.89551-2-2s0.89551-2,2-2h27c1.10449,0,2,0.89551,2,2S95.10449,94,94,94z"/>
		</g>
	</g>
	<g>
		<g>
			<path fill="#141B41" d="M48,18c-0.55225,0-1-0.44727-1-1V4c0-0.55273,0.44775-1,1-1s1,0.44727,1,1v13
				C49,17.55273,48.55225,18,48,18z"/>
		</g>
	</g>
	<g>
		<g>
			<path fill="#141B41" d="M43,18.28125c-0.55225,0-1-0.44727-1-1v-13c0-0.55273,0.44775-1,1-1s1,0.44727,1,1v13
				C44,17.83398,43.55225,18.28125,43,18.28125z"/>
		</g>
	</g>
	<g>
		<g>
			<path fill="#141B41" d="M53,18.28125c-0.55225,0-1-0.44727-1-1v-13c0-0.55273,0.44775-1,1-1s1,0.44727,1,1v13
				C54,17.83398,53.55225,18.28125,53,18.28125z"/>
		</g>
	</g>
	<g>
		<g>
			<path fill="#141B41" d="M41,60h-7c-0.55225,0-1-0.44727-1-1s0.44775-1,1-1h7c0.55225,0,1,0.44727,1,1S41.55225,60,41,60z"/>
		</g>
	</g>
	<g>
		<g>
			<path fill="#141B41" d="M41,87h-7c-0.55225,0-1-0.44727-1-1s0.44775-1,1-1h7c0.55225,0,1,0.44727,1,1S41.55225,87,41,87z"/>
		</g>
	</g>
	<g>
		<g>
			<path fill="#141B41" d="M62,60h-7c-0.55225,0-1-0.44727-1-1s0.44775-1,1-1h7c0.55225,0,1,0.44727,1,1S62.55225,60,62,60z"/>
		</g>
	</g>
	<g>
		<g>
			<path fill="#141B41" d="M62,87h-7c-0.55225,0-1-0.44727-1-1s0.44775-1,1-1h7c0.55225,0,1,0.44727,1,1S62.55225,87,62,87z"/>
		</g>
	</g>
</g>
<g id="musical_x5F_score">
</g>
<g id="accordion">
</g>
<g id="megaphone">
</g>
</svg>
