<?xml version="1.0" encoding="utf-8"?>
<!-- Generator: Adobe Illustrator 19.1.0, SVG Export Plug-In . SVG Version: 6.00 Build 0)  -->
<!DOCTYPE svg PUBLIC "-//W3C//DTD SVG 1.1//EN" "http://www.w3.org/Graphics/SVG/1.1/DTD/svg11.dtd">
<svg version="1.1" xmlns="http://www.w3.org/2000/svg" xmlns:xlink="http://www.w3.org/1999/xlink" x="0px" y="0px" width="96px"
	 height="96px" viewBox="0 0 96 96" enable-background="new 0 0 96 96" xml:space="preserve">
<g id="record_x5F_player">
</g>
<g id="trumpet">
</g>
<g id="stereo_x5F_speaker">
</g>
<g id="guitar">
</g>
<g id="speaker">
</g>
<g id="jack">
</g>
<g id="drum_x5F_sticks">
</g>
<g id="drum">
	<g opacity="0.6">
		<g>
			<path fill="#47BCFE" d="M86,44v12c0,20.98682-17.01318,38-38,38S10,76.98682,10,56V44"/>
		</g>
	</g>
	<g opacity="0.7">
		<g>
			<path fill="#CCF2FF" d="M86,44v12c0,20.98682-17.01318,38-38,38L86,44z"/>
		</g>
	</g>
	<g>
		<g>
			<path fill="#141B41" d="M92,96H4c-1.10449,0-2-0.89551-2-2s0.89551-2,2-2h88c1.10449,0,2,0.89551,2,2S93.10449,96,92,96z"/>
		</g>
	</g>
	<g>
		<g>
			<path fill="#141B41" d="M23,87H10c-1.10449,0-2-0.89551-2-2s0.89551-2,2-2h13c1.10449,0,2,0.89551,2,2S24.10449,87,23,87z"/>
		</g>
	</g>
	<g>
		<g>
			<path fill="#141B41" d="M86,87H73c-1.10449,0-2-0.89551-2-2s0.89551-2,2-2h13c1.10449,0,2,0.89551,2,2S87.10449,87,86,87z"/>
		</g>
	</g>
	<g>
		<g>
			<path fill="#141B41" d="M92,46H4c-1.10449,0-2-0.89551-2-2V30c0-1.10449,0.89551-2,2-2h88c1.10449,0,2,0.89551,2,2v14
				C94,45.10449,93.10449,46,92,46z M6,42h84V32H6V42z"/>
		</g>
	</g>
	<g>
		<g>
			<path fill="#141B41" d="M92,38H4c-0.55225,0-1-0.44775-1-1s0.44775-1,1-1h88c0.55273,0,1,0.44775,1,1S92.55273,38,92,38z"/>
		</g>
	</g>
	<g>
		<g>
			<path fill="#141B41" d="M48,96C25.94385,96,8,78.05566,8,56V44c0-1.10449,0.89551-2,2-2s2,0.89551,2,2v12
				c0,19.85059,16.14941,36,36,36s36-16.14941,36-36V44c0-1.10449,0.89551-2,2-2s2,0.89551,2,2v12C88,78.05566,70.05566,96,48,96z"
				/>
		</g>
	</g>
	<g>
		<g>
			<path fill="#141B41" d="M54,77c-0.55273,0-1-0.44727-1-1s0.44727-1,1-1c8.55176,0,15-6.75781,15-15.71973V54
				c0-0.55273,0.44727-1,1-1s1,0.44727,1,1v5.28027C71,69.2168,63.53223,77,54,77z"/>
		</g>
	</g>
	<g>
		<g>
			<path fill="#141B41" d="M74,32c-0.23633,0-0.47656-0.04199-0.71094-0.13086l-71-26.99951
				C1.25684,4.47656,0.73779,3.32178,1.13037,2.28906c0.39307-1.03223,1.54834-1.54932,2.58057-1.15869l71,26.99951
				c1.03223,0.39307,1.55078,1.54785,1.1582,2.58057C75.56543,31.50879,74.80566,32,74,32z"/>
		</g>
	</g>
	<g>
		<g>
			<path fill="#141B41" d="M41.0835,11.08398c-0.11914,0-0.23975-0.02148-0.35742-0.06641l-21-8.04199
				c-0.51611-0.19775-0.77393-0.77588-0.57666-1.2915c0.19824-0.51611,0.77686-0.77441,1.2915-0.57666l21,8.04199
				c0.51611,0.19775,0.77393,0.77588,0.57666,1.2915C41.86475,10.83936,41.48535,11.08398,41.0835,11.08398z"/>
		</g>
	</g>
	<g>
		<g>
			<path fill="#141B41" d="M40.0415,4.979c-0.11523,0-0.23193-0.02002-0.34619-0.0625L31.7373,1.97949
				c-0.51807-0.19092-0.7832-0.76611-0.5918-1.28418s0.76709-0.78467,1.28418-0.5918l7.95801,2.93701
				c0.51807,0.19092,0.7832,0.76611,0.5918,1.28418C40.83057,4.72852,40.44824,4.979,40.0415,4.979z"/>
		</g>
	</g>
	<g>
		<g>
			<path fill="#141B41" d="M54.08301,11.08398c-0.40234,0-0.78125-0.24463-0.93359-0.64307
				c-0.19824-0.51562,0.06055-1.09375,0.57617-1.2915l21-8.04199c0.51367-0.19727,1.09375,0.06055,1.29102,0.57666
				c0.19824,0.51562-0.06055,1.09375-0.57617,1.2915l-21,8.04199C54.32324,11.0625,54.20215,11.08398,54.08301,11.08398z"/>
		</g>
	</g>
	<g>
		<g>
			<path fill="#141B41" d="M55.125,4.979c-0.40625,0-0.78906-0.25049-0.93848-0.6543
				c-0.19043-0.51807,0.07422-1.09326,0.5918-1.28418l7.95801-2.93701c0.51562-0.19141,1.09375,0.07324,1.28516,0.5918
				c0.19043,0.51807-0.07422,1.09326-0.5918,1.28418L55.47168,4.9165C55.35742,4.95898,55.24023,4.979,55.125,4.979z"/>
		</g>
	</g>
	<g opacity="0.6">
		<g>
			<line fill="#47BCFE" x1="54.08333" y1="10.08333" x2="75.08334" y2="2.04167"/>
		</g>
	</g>
	<g opacity="0.6">
		<g>
			<line fill="#47BCFE" x1="55.125" y1="3.9787" x2="63.08333" y2="1.04167"/>
		</g>
	</g>
	<g>
		<g>
			<path fill="#141B41" d="M22.44531,32c-0.80518,0-1.56348-0.48926-1.86816-1.28564
				c-0.39502-1.03174,0.12109-2.18799,1.15283-2.58252L92.28516,1.13232c1.03027-0.39551,2.18848,0.12061,2.58301,1.15283
				c0.39453,1.03174-0.12207,2.18799-1.15332,2.58252L23.15967,31.86719C22.92432,31.95752,22.68262,32,22.44531,32z"/>
		</g>
	</g>
	<g>
		<g>
			<path fill="#141B41" d="M25,53c-0.55225,0-1-0.44727-1-1v-8c0-0.55225,0.44775-1,1-1s1,0.44775,1,1v8
				C26,52.55273,25.55225,53,25,53z"/>
		</g>
	</g>
	<g>
		<g>
			<path fill="#141B41" d="M20,54c-0.55225,0-1-0.44727-1-1v-4c0-0.55225,0.44775-1,1-1s1,0.44775,1,1v4
				C21,53.55273,20.55225,54,20,54z"/>
		</g>
	</g>
	<g>
		<g>
			<path fill="#141B41" d="M30,62c-0.55225,0-1-0.44727-1-1V44c0-0.55225,0.44775-1,1-1s1,0.44775,1,1v17
				C31,61.55273,30.55225,62,30,62z"/>
		</g>
	</g>
</g>
<g id="cymbal">
</g>
<g id="piano">
</g>
<g id="microphone">
</g>
<g id="headphone">
</g>
<g id="musical_x5F_score">
</g>
<g id="accordion">
</g>
<g id="megaphone">
</g>
</svg>
