<?xml version="1.0" encoding="utf-8"?>
<!-- Generator: Adobe Illustrator 19.1.0, SVG Export Plug-In . SVG Version: 6.00 Build 0)  -->
<!DOCTYPE svg PUBLIC "-//W3C//DTD SVG 1.1//EN" "http://www.w3.org/Graphics/SVG/1.1/DTD/svg11.dtd">
<svg version="1.1" xmlns="http://www.w3.org/2000/svg" xmlns:xlink="http://www.w3.org/1999/xlink" x="0px" y="0px" width="96px"
	 height="96px" viewBox="0 0 96 96" enable-background="new 0 0 96 96" xml:space="preserve">
<g id="record_x5F_player">
</g>
<g id="trumpet">
</g>
<g id="stereo_x5F_speaker">
	<g opacity="0.6">
		<g>
			<path fill="#47BCFE" d="M48,26c-13.25482,0-24,10.74518-24,24s10.74518,24,24,24s24-10.74518,24-24S61.25482,26,48,26z M48,59
				c-4.97058,0-9-4.02948-9-9c0-4.97058,4.02942-9,9-9s9,4.02942,9,9C57,54.97052,52.97058,59,48,59z"/>
		</g>
	</g>
	<g opacity="0.7">
		<g>
			<path fill="#CCF2FF" d="M48,26v15c4.97058,0,9,4.02942,9,9c0,4.97052-4.02942,9-9,9v15c13.25482,0,24-10.74518,24-24
				S61.25482,26,48,26z"/>
		</g>
	</g>
	<g>
		<g>
			<path fill="#141B41" d="M4,95c-0.25586,0-0.51172-0.09766-0.70703-0.29297c-0.39062-0.39062-0.39062-1.02344,0-1.41406
				L9,87.58594V12.41406L3.29297,6.70703c-0.39062-0.39062-0.39062-1.02344,0-1.41406s1.02344-0.39062,1.41406,0l6,6
				C10.89453,11.48047,11,11.73486,11,12v76c0,0.26514-0.10547,0.51953-0.29297,0.70703l-6,6C4.51172,94.90234,4.25586,95,4,95z"/>
		</g>
	</g>
	<g>
		<g>
			<path fill="#141B41" d="M92,95c-0.25586,0-0.51172-0.09766-0.70703-0.29297l-6-6C85.10547,88.51953,85,88.26514,85,88V12
				c0-0.26514,0.10547-0.51953,0.29297-0.70703l6-6c0.39062-0.39062,1.02344-0.39062,1.41406,0s0.39062,1.02344,0,1.41406
				L87,12.41406v75.17188l5.70703,5.70703c0.39062,0.39062,0.39062,1.02344,0,1.41406C92.51172,94.90234,92.25586,95,92,95z"/>
		</g>
	</g>
	<g>
		<g>
			<path fill="#141B41" d="M92,96c-1.10449,0-2-0.89551-2-2V8H6v86c0,1.10449-0.89551,2-2,2s-2-0.89551-2-2V6
				c0-1.10449,0.89551-2,2-2h88c1.10449,0,2,0.89551,2,2v88C94,95.10449,93.10449,96,92,96z"/>
		</g>
	</g>
	<g>
		<g>
			<path fill="#141B41" d="M94,96H2c-1.10449,0-2-0.89551-2-2s0.89551-2,2-2h92c1.10449,0,2,0.89551,2,2S95.10449,96,94,96z"/>
		</g>
	</g>
	<g>
		<g>
			<path fill="#141B41" d="M48,61c-6.06543,0-11-4.93457-11-11s4.93457-11,11-11s11,4.93457,11,11S54.06543,61,48,61z M48,43
				c-3.85986,0-7,3.14014-7,7s3.14014,7,7,7c3.85938,0,7-3.14014,7-7S51.85938,43,48,43z"/>
		</g>
	</g>
	<g>
		<g>
			<path fill="#141B41" d="M21.9585,77c-0.25586,0-0.51221-0.09766-0.70752-0.29297
				c-0.39014-0.39062-0.39014-1.02393,0.00049-1.41455l9.05615-9.04932c0.39062-0.38965,1.02393-0.39014,1.41455,0.00049
				c0.39014,0.39062,0.39014,1.02393-0.00049,1.41455l-9.05615,9.04932C22.47021,76.90234,22.21436,77,21.9585,77z"/>
		</g>
	</g>
	<g>
		<g>
			<path fill="#141B41" d="M64.96484,34.02686c-0.25586,0-0.51172-0.09766-0.70703-0.29297
				c-0.39062-0.39111-0.39062-1.02393,0-1.41455l8.95117-8.94434c0.39062-0.38965,1.02344-0.39014,1.41406,0.00049
				c0.39062,0.39111,0.39062,1.02393,0,1.41455l-8.95117,8.94434C65.47656,33.9292,65.2207,34.02686,64.96484,34.02686z"/>
		</g>
	</g>
	<g>
		<g>
			<path fill="#141B41" d="M30.97119,34.08838c-0.25586,0-0.51172-0.09766-0.70703-0.29248l-9.0127-9.00586
				c-0.39062-0.39062-0.39062-1.02393-0.00049-1.41455c0.39062-0.39062,1.02393-0.39014,1.41455-0.00049l9.0127,9.00586
				c0.39062,0.39062,0.39062,1.02393,0.00049,1.41455C31.4834,33.99072,31.22705,34.08838,30.97119,34.08838z"/>
		</g>
	</g>
	<g>
		<g>
			<path fill="#141B41" d="M73.91602,77c-0.25586,0-0.51172-0.09766-0.70703-0.29248L64.22363,67.729
				c-0.39062-0.39062-0.39062-1.02393,0-1.41455s1.02344-0.39014,1.41406-0.00049l8.98535,8.97852
				c0.39062,0.39062,0.39062,1.02393,0,1.41455C74.42773,76.90234,74.17188,77,73.91602,77z"/>
		</g>
	</g>
	<g>
		<g>
			<path fill="#141B41" d="M48,76c-14.33643,0-26-11.66357-26-26s11.66357-26,26-26c14.33691,0,26,11.66357,26,26S62.33691,76,48,76
				z M48,28c-12.13086,0-22,9.86914-22,22s9.86914,22,22,22s22-9.86914,22-22S60.13086,28,48,28z"/>
		</g>
	</g>
	<g>
		<g>
			<path fill="#141B41" d="M64,51c-0.55273,0-1-0.44775-1-1c0-8.271-6.72852-15-15-15c-0.55225,0-1-0.44775-1-1s0.44775-1,1-1
				c9.37402,0,17,7.62598,17,17C65,50.55225,64.55273,51,64,51z"/>
		</g>
	</g>
	<g>
		<g>
			<path fill="#141B41" d="M48,67c-9.37402,0-17-7.62598-17-17c0-0.55225,0.44775-1,1-1s1,0.44775,1,1c0,8.271,6.729,15,15,15
				c0.55225,0,1,0.44775,1,1S48.55225,67,48,67z"/>
		</g>
	</g>
	<g>
		<g>
			<path fill="#141B41" d="M48,96c-1.10449,0-2-0.89551-2-2V74c0-1.10449,0.89551-2,2-2s2,0.89551,2,2v20
				C50,95.10449,49.10449,96,48,96z"/>
		</g>
	</g>
	<g>
		<g>
			<path fill="#141B41" d="M48,28c-1.10449,0-2-0.89551-2-2V6c0-1.10449,0.89551-2,2-2s2,0.89551,2,2v20
				C50,27.10449,49.10449,28,48,28z"/>
		</g>
	</g>
	<g>
		<g>
			<path fill="#141B41" d="M52,89h-8c-0.55225,0-1-0.44775-1-1s0.44775-1,1-1h8c0.55273,0,1,0.44775,1,1S52.55273,89,52,89z"/>
		</g>
	</g>
	<g>
		<g>
			<path fill="#141B41" d="M52,13h-8c-0.55225,0-1-0.44775-1-1s0.44775-1,1-1h8c0.55273,0,1,0.44775,1,1S52.55273,13,52,13z"/>
		</g>
	</g>
</g>
<g id="guitar">
</g>
<g id="speaker">
</g>
<g id="jack">
</g>
<g id="drum_x5F_sticks">
</g>
<g id="drum">
</g>
<g id="cymbal">
</g>
<g id="piano">
</g>
<g id="microphone">
</g>
<g id="headphone">
</g>
<g id="musical_x5F_score">
</g>
<g id="accordion">
</g>
<g id="megaphone">
</g>
</svg>
