<?xml version="1.0" encoding="utf-8"?>
<!-- Generator: Adobe Illustrator 19.1.0, SVG Export Plug-In . SVG Version: 6.00 Build 0)  -->
<!DOCTYPE svg PUBLIC "-//W3C//DTD SVG 1.1//EN" "http://www.w3.org/Graphics/SVG/1.1/DTD/svg11.dtd">
<svg version="1.1" xmlns="http://www.w3.org/2000/svg" xmlns:xlink="http://www.w3.org/1999/xlink" x="0px" y="0px" width="96px"
	 height="96px" viewBox="0 0 96 96" enable-background="new 0 0 96 96" xml:space="preserve">
<g id="record_x5F_player">
</g>
<g id="trumpet">
</g>
<g id="stereo_x5F_speaker">
</g>
<g id="guitar">
</g>
<g id="speaker">
	<g opacity="0.6">
		<g>
			<path fill="#47BCFE" d="M74.46045,26.64771c-1.51501-1.87524-3.22534-3.58606-5.1001-5.10168
				C63.52271,16.82654,56.09143,14,48,14c-8.09668,0-15.53235,2.8302-21.3717,7.55518
				c-1.77832,1.43896-3.40857,3.05359-4.86438,4.81763C16.9137,32.25,14,39.78479,14,48
				c0,8.01465,2.77307,15.38159,7.41211,21.19373c1.54639,1.93738,3.30005,3.7019,5.22754,5.26025
				C32.47729,79.17346,39.90857,82,48,82c8.09155,0,15.52283-2.82654,21.36047-7.54614
				c1.87402-1.51514,3.58386-3.22534,5.09851-5.09973C79.17554,63.51746,82,56.0885,82,48
				C82,39.91223,79.17615,32.48413,74.46045,26.64771z M55.7821,54.28064c-0.44556,0.55127-0.94836,1.0542-1.49963,1.49988
				C52.56555,57.16858,50.37988,58,48,58s-4.56555-0.8313-6.28247-2.21948c-0.56689-0.45825-1.08264-0.97729-1.53748-1.54712
				C38.81567,52.52393,38,50.35718,38,48c0-2.41626,0.85693-4.63232,2.28357-6.36096c0.4281-0.5188,0.90759-0.99377,1.43066-1.41699
				C43.43164,38.8324,45.61865,38,48,38c2.37988,0,4.56555,0.8313,6.28247,2.21936c0.55139,0.4458,1.05444,0.94897,1.5,1.50049
				C57.16943,43.43652,58,45.62122,58,48C58,50.37891,57.16931,52.56396,55.7821,54.28064z"/>
		</g>
	</g>
	<g>
		<g opacity="0.7">
			<g>
				<path fill="#CCF2FF" d="M74.46045,26.64771c-0.75751-0.93762-1.56384-1.83417-2.41516-2.68573L55.07263,40.93048
					c0.22498,0.2251,0.43549,0.46423,0.63831,0.70984c0.02277,0.02753,0.04913,0.05182,0.07159,0.07959
					c0.34674,0.42914,0.65869,0.88751,0.93158,1.37091C57.53284,44.54095,58,46.21588,58,48
					c0,0.89209-0.11682,1.75696-0.336,2.58002c-0.14612,0.54871-0.33777,1.07886-0.57056,1.58624
					c-0.34924,0.76099-0.79114,1.47064-1.31134,2.11438c-0.33417,0.41345-0.71002,0.78943-1.10486,1.14471
					c-0.13159,0.11847-0.2569,0.24377-0.39471,0.35516c-1.07312,0.86755-2.32935,1.5177-3.7016,1.88324
					C49.75757,57.88312,48.89246,58,48,58s-1.75757-0.11694-2.58093-0.33624c-1.09778-0.29242-2.12134-0.76691-3.03625-1.38928
					c-0.22876-0.15558-0.45068-0.32037-0.66528-0.4939c-0.27533-0.2226-0.53748-0.46075-0.7876-0.71088L23.95612,72.03937
					c0.85089,0.85101,1.7467,1.65717,2.68353,2.41461C32.47729,79.17346,39.90857,82,48,82
					c8.09155,0,15.52283-2.82654,21.36047-7.54614c1.87402-1.51514,3.58386-3.22534,5.09851-5.09973
					C79.17554,63.51746,82,56.0885,82,48C82,39.91223,79.17615,32.48413,74.46045,26.64771z"/>
			</g>
		</g>
	</g>
	<g>
		<g>
			<path fill="#141B41" d="M80,94H59c-1.10449,0-2-0.89551-2-2s0.89551-2,2-2h21c1.10449,0,2,0.89551,2,2S81.10449,94,80,94z"/>
		</g>
	</g>
	<g>
		<g>
			<path fill="#141B41" d="M37,94H16c-1.10449,0-2-0.89551-2-2s0.89551-2,2-2h21c1.10449,0,2,0.89551,2,2S38.10449,94,37,94z"/>
		</g>
	</g>
	<g>
		<g>
			<path fill="#141B41" d="M80,6H59c-1.10449,0-2-0.89551-2-2s0.89551-2,2-2h21c1.10449,0,2,0.89551,2,2S81.10449,6,80,6z"/>
		</g>
	</g>
	<g>
		<g>
			<path fill="#141B41" d="M37,6H16c-1.10449,0-2-0.89551-2-2s0.89551-2,2-2h21c1.10449,0,2,0.89551,2,2S38.10449,6,37,6z"/>
		</g>
	</g>
	<g>
		<g>
			<path fill="#141B41" d="M16,30C8.28027,30,2,23.71973,2,16S8.28027,2,16,2s14,6.28027,14,14
				c0,2.25732-0.55078,4.50098-1.5918,6.48779c-0.5127,0.97803-1.71777,1.35742-2.7002,0.84326
				c-0.97852-0.5127-1.35547-1.72168-0.84277-2.69971C25.61816,19.19434,26,17.63623,26,16c0-5.51416-4.48633-10-10-10
				S6,10.48584,6,16s4.48633,10,10,10c1.63184,0,3.18652-0.37988,4.62207-1.12939c0.98145-0.51123,2.1875-0.13184,2.69824,0.84717
				c0.51172,0.97949,0.13184,2.1875-0.84668,2.69873C20.48926,29.45264,18.25098,30,16,30z"/>
		</g>
	</g>
	<g>
		<g>
			<path fill="#141B41" d="M80,30c-2.24219,0-4.47266-0.54346-6.4502-1.57178c-0.97949-0.50977-1.36133-1.71729-0.85156-2.69727
				s1.71484-1.36279,2.69727-0.85156C76.8252,25.62305,78.37402,26,80,26c5.51367,0,10-4.48584,10-10S85.51367,6,80,6
				s-10,4.48584-10,10c0,1.63623,0.38184,3.19434,1.13477,4.63135c0.5127,0.97803,0.13574,2.18701-0.84277,2.69971
				c-0.98242,0.51416-2.1875,0.13477-2.7002-0.84326C66.55078,20.50098,66,18.25732,66,16c0-7.71973,6.28027-14,14-14
				s14,6.28027,14,14S87.71973,30,80,30z"/>
		</g>
	</g>
	<g>
		<g>
			<path fill="#141B41" d="M16,94C8.28027,94,2,87.71973,2,80s6.28027-14,14-14c2.20312,0,4.3125,0.49805,6.27051,1.47998
				c0.9873,0.49512,1.38672,1.69678,0.8916,2.68408c-0.49609,0.98633-1.69434,1.38721-2.68457,0.89111
				C19.08105,70.35498,17.57422,70,16,70c-5.51367,0-10,4.48584-10,10s4.48633,10,10,10s10-4.48584,10-10
				c0-1.63232-0.37988-3.18652-1.12793-4.61963c-0.51172-0.979-0.13281-2.18701,0.84668-2.69824
				c0.98145-0.51367,2.18848-0.13232,2.69824,0.84668C29.45312,75.51074,30,77.74854,30,80C30,87.71973,23.71973,94,16,94z"/>
		</g>
	</g>
	<g>
		<g>
			<path fill="#141B41" d="M80,94c-7.71973,0-14-6.28027-14-14c0-2.25195,0.54785-4.49072,1.58496-6.4751
				c0.51074-0.97803,1.72266-1.35889,2.69824-0.84619c0.97949,0.51123,1.3584,1.71973,0.84668,2.69873
				C70.37988,76.8125,70,78.36768,70,80c0,5.51416,4.48633,10,10,10s10-4.48584,10-10s-4.48633-10-10-10
				c-1.62988,0-3.18359,0.37891-4.61719,1.12695c-0.97852,0.51074-2.18848,0.13135-2.69824-0.84863
				c-0.51074-0.97949-0.13086-2.1875,0.84863-2.69824C75.51562,66.54639,77.75195,66,80,66c7.71973,0,14,6.28027,14,14
				S87.71973,94,80,94z"/>
		</g>
	</g>
	<g>
		<g>
			<path fill="#141B41" d="M48,84c-8.21094,0-16.24316-2.83789-22.61816-7.99072c-2.03613-1.64648-3.89746-3.51953-5.53223-5.56738
				C14.71387,64.00781,12,56.24756,12,48c0-8.34277,2.91992-16.47559,8.2207-22.8999
				c1.53906-1.86475,3.27148-3.58057,5.14941-5.09961C31.74609,14.84131,39.7832,12,48,12
				c8.21094,0,16.24316,2.83789,22.61816,7.99072c1.97949,1.6001,3.7959,3.41699,5.39844,5.3999
				C81.16504,31.76318,84,39.79248,84,48c0,8.20898-2.83594,16.23926-7.98535,22.61133
				c-1.60059,1.98047-3.41602,3.79688-5.39648,5.39795C64.24316,81.16211,56.21094,84,48,84z M48,16
				c-7.30371,0-14.44727,2.5249-20.11426,7.10986c-1.66992,1.35107-3.21094,2.87744-4.58008,4.53613
				C18.59473,33.35547,16,40.58398,16,48c0,7.33154,2.41211,14.22852,6.97559,19.94629
				c1.4541,1.82178,3.11035,3.48779,4.92188,4.95264C33.56152,77.47803,40.70117,80,48,80s14.43848-2.52197,20.10254-7.10107
				c1.76172-1.42432,3.37695-3.04004,4.80078-4.80176C77.47949,62.43457,80,55.29736,80,48
				c0-7.29541-2.51953-14.43213-7.09473-20.09521c-1.42578-1.76367-3.04102-3.37988-4.80176-4.80371
				C62.43848,18.52197,55.29883,16,48,16z"/>
		</g>
	</g>
	<g>
		<g>
			<path fill="#141B41" d="M48,76c-6.38672,0-12.63477-2.20703-17.5918-6.21484c-1.58398-1.28076-3.03223-2.73828-4.30371-4.33105
				C22.11035,60.45068,20,54.41504,20,48c0-6.48926,2.27051-12.81494,6.39355-17.81104
				c1.19629-1.44873,2.54395-2.7832,4.00586-3.9668C35.35742,22.20996,41.6084,20,48,20c6.38672,0,12.63477,2.20703,17.5918,6.21484
				c1.54004,1.24561,2.95312,2.65918,4.19922,4.20068C73.79492,35.37109,76,41.61572,76,48s-2.20605,12.62988-6.21094,17.58594
				c-1.24512,1.5415-2.65723,2.9541-4.19727,4.19922C60.63477,73.79297,54.38672,76,48,76z M48,22
				c-5.93457,0-11.73926,2.05176-16.34277,5.77686c-1.3584,1.09961-2.61035,2.33936-3.7207,3.68555
				C24.1084,36.10059,22,41.97412,22,48c0,5.95703,1.95996,11.56104,5.66699,16.20605
				c1.18164,1.47998,2.52734,2.83398,3.99902,4.02344C36.26855,71.95068,42.06934,74,48,74s11.73145-2.04932,16.33398-5.77051
				c1.43066-1.15625,2.74316-2.46875,3.90039-3.90039C71.95215,59.72754,74,53.92822,74,48s-2.04785-11.72656-5.76465-16.32764
				c-1.15723-1.43213-2.46973-2.74512-3.90137-3.90186C59.73145,24.04932,53.93066,22,48,22z"/>
		</g>
	</g>
	<g>
		<g>
			<path fill="#141B41" d="M80,22c-3.30859,0-6-2.69141-6-6s2.69141-6,6-6s6,2.69141,6,6S83.30859,22,80,22z M80,12
				c-2.20605,0-4,1.79443-4,4s1.79395,4,4,4s4-1.79443,4-4S82.20605,12,80,12z"/>
		</g>
	</g>
	<g>
		<g>
			<path fill="#141B41" d="M16,22c-3.30859,0-6-2.69141-6-6s2.69141-6,6-6s6,2.69141,6,6S19.30859,22,16,22z M16,12
				c-2.20605,0-4,1.79443-4,4s1.79395,4,4,4s4-1.79443,4-4S18.20605,12,16,12z"/>
		</g>
	</g>
	<g>
		<g>
			<path fill="#141B41" d="M80,86c-3.30859,0-6-2.69141-6-6s2.69141-6,6-6s6,2.69141,6,6S83.30859,86,80,86z M80,76
				c-2.20605,0-4,1.79443-4,4s1.79395,4,4,4s4-1.79443,4-4S82.20605,76,80,76z"/>
		</g>
	</g>
	<g>
		<g>
			<path fill="#141B41" d="M16,86c-3.30859,0-6-2.69141-6-6s2.69141-6,6-6s6,2.69141,6,6S19.30859,86,16,86z M16,76
				c-2.20605,0-4,1.79443-4,4s1.79395,4,4,4s4-1.79443,4-4S18.20605,76,16,76z"/>
		</g>
	</g>
	<g>
		<g>
			<path fill="#141B41" d="M64,49h-6c-0.55273,0-1-0.44775-1-1s0.44727-1,1-1h6c0.55273,0,1,0.44775,1,1S64.55273,49,64,49z"/>
		</g>
	</g>
	<g>
		<g>
			<path fill="#141B41" d="M38,49h-6c-0.55273,0-1-0.44775-1-1s0.44727-1,1-1h6c0.55273,0,1,0.44775,1,1S38.55273,49,38,49z"/>
		</g>
	</g>
	<g>
		<g>
			<path fill="#141B41" d="M48,65c-0.55273,0-1-0.44775-1-1v-6c0-0.55225,0.44727-1,1-1s1,0.44775,1,1v6
				C49,64.55225,48.55273,65,48,65z"/>
		</g>
	</g>
	<g>
		<g>
			<path fill="#141B41" d="M48,39c-0.55273,0-1-0.44775-1-1v-6c0-0.55225,0.44727-1,1-1s1,0.44775,1,1v6
				C49,38.55225,48.55273,39,48,39z"/>
		</g>
	</g>
	<g>
		<g>
			<path fill="#141B41" d="M48,60c-2.73633,0-5.41406-0.9458-7.53906-2.66406c-0.67871-0.54785-1.29883-1.17188-1.84375-1.85449
				C36.92969,53.3667,36,50.70996,36,48c0-2.78027,0.97363-5.49121,2.74023-7.6333c0.5127-0.62061,1.08887-1.19189,1.71484-1.69824
				C42.58203,36.94727,45.26172,36,48,36c2.73633,0,5.41406,0.9458,7.53906,2.66406
				c0.66016,0.53271,1.26465,1.13818,1.79883,1.79883C59.05469,42.58643,60,45.26318,60,48
				c0,2.73535-0.94531,5.41211-2.66211,7.5376c-0.5332,0.66016-1.13867,1.26514-1.79883,1.79883C53.41406,59.0542,50.73633,60,48,60
				z M48,40c-1.85254,0-3.59082,0.61426-5.02832,1.77686c-0.41797,0.33887-0.80371,0.72119-1.14648,1.13574
				C40.64844,44.33936,40,46.14648,40,48c0,1.83301,0.60254,3.55713,1.74316,4.98584
				c0.36426,0.45605,0.77832,0.87305,1.23145,1.23926C44.41113,55.38623,46.14941,56,48,56s3.58887-0.61377,5.02539-1.77441
				c0.44141-0.35693,0.84473-0.76123,1.20117-1.20166C55.38672,51.5874,56,49.8501,56,48c0-1.85107-0.61328-3.58789-1.77344-5.02295
				c-0.35645-0.44189-0.76074-0.84619-1.20117-1.20215C51.58887,40.61377,49.85059,40,48,40z"/>
		</g>
	</g>
	<g>
		<g>
			<path fill="#141B41" d="M23.625,73.375c-0.25586,0-0.51172-0.09766-0.70703-0.29297c-0.39062-0.39062-0.39062-1.02344,0-1.41406
				l11.375-11.375c0.39062-0.39062,1.02344-0.39062,1.41406,0s0.39062,1.02344,0,1.41406l-11.375,11.375
				C24.13672,73.27734,23.88086,73.375,23.625,73.375z"/>
		</g>
	</g>
	<g>
		<g>
			<path fill="#141B41" d="M61,36c-0.25586,0-0.51172-0.09766-0.70703-0.29297c-0.39062-0.39062-0.39062-1.02344,0-1.41406
				l11.04199-11.0415c0.39062-0.39062,1.02344-0.39062,1.41406,0s0.39062,1.02344,0,1.41406l-11.04199,11.0415
				C61.51172,35.90234,61.25586,36,61,36z"/>
		</g>
	</g>
</g>
<g id="jack">
</g>
<g id="drum_x5F_sticks">
</g>
<g id="drum">
</g>
<g id="cymbal">
</g>
<g id="piano">
</g>
<g id="microphone">
</g>
<g id="headphone">
</g>
<g id="musical_x5F_score">
</g>
<g id="accordion">
</g>
<g id="megaphone">
</g>
</svg>
