<?xml version="1.0" encoding="utf-8"?>
<!-- Generator: Adobe Illustrator 19.1.0, SVG Export Plug-In . SVG Version: 6.00 Build 0)  -->
<!DOCTYPE svg PUBLIC "-//W3C//DTD SVG 1.1//EN" "http://www.w3.org/Graphics/SVG/1.1/DTD/svg11.dtd">
<svg version="1.1" xmlns="http://www.w3.org/2000/svg" xmlns:xlink="http://www.w3.org/1999/xlink" x="0px" y="0px" width="96px"
	 height="96px" viewBox="0 0 96 96" enable-background="new 0 0 96 96" xml:space="preserve">
<g id="record_x5F_player">
</g>
<g id="trumpet">
</g>
<g id="stereo_x5F_speaker">
</g>
<g id="guitar">
</g>
<g id="speaker">
</g>
<g id="jack">
</g>
<g id="drum_x5F_sticks">
</g>
<g id="drum">
</g>
<g id="cymbal">
</g>
<g id="piano">
</g>
<g id="microphone">
</g>
<g id="headphone">
</g>
<g id="musical_x5F_score">
</g>
<g id="accordion">
	<g opacity="0.6">
		<g>
			<rect x="26" y="12" fill="#47BCFE" width="27" height="12"/>
		</g>
	</g>
	<g opacity="0.6">
		<g>
			<rect x="26" y="42" fill="#47BCFE" width="27" height="12"/>
		</g>
	</g>
	<g opacity="0.6">
		<g>
			<rect x="26" y="72" fill="#47BCFE" width="27" height="12"/>
		</g>
	</g>
	<g>
		<g>
			<g>
				<path fill="#CCF2FF" d="M35,85c-0.55273,0-1-0.44727-1-1V72c0-0.55273,0.44727-1,1-1s1,0.44727,1,1v12
					C36,84.55273,35.55273,85,35,85z"/>
			</g>
		</g>
	</g>
	<g>
		<g>
			<g>
				<path fill="#CCF2FF" d="M35,55c-0.55273,0-1-0.44727-1-1V42c0-0.55273,0.44727-1,1-1s1,0.44727,1,1v12
					C36,54.55273,35.55273,55,35,55z"/>
			</g>
		</g>
	</g>
	<g>
		<g>
			<g>
				<path fill="#CCF2FF" d="M35,25c-0.55273,0-1-0.44727-1-1V12c0-0.55273,0.44727-1,1-1s1,0.44727,1,1v12
					C36,24.55273,35.55273,25,35,25z"/>
			</g>
		</g>
	</g>
	<g>
		<g>
			<path fill="#141B41" d="M53,96H4c-1.10449,0-2-0.89551-2-2V2c0-1.10449,0.89551-2,2-2h49c1.10449,0,2,0.89551,2,2v92
				C55,95.10449,54.10449,96,53,96z M6,92h45V4H6V92z"/>
		</g>
	</g>
	<g>
		<g>
			<path fill="#141B41" d="M53,26H26c-1.10449,0-2-0.89551-2-2V12c0-1.10449,0.89551-2,2-2h27c1.10449,0,2,0.89551,2,2v12
				C55,25.10449,54.10449,26,53,26z M28,22h23v-8H28V22z"/>
		</g>
	</g>
	<g>
		<g>
			<path fill="#141B41" d="M53,56H26c-1.10449,0-2-0.89551-2-2V42c0-1.10449,0.89551-2,2-2h27c1.10449,0,2,0.89551,2,2v12
				C55,55.10449,54.10449,56,53,56z M28,52h23v-8H28V52z"/>
		</g>
	</g>
	<g>
		<g>
			<path fill="#141B41" d="M53,86H26c-1.10449,0-2-0.89551-2-2V72c0-1.10449,0.89551-2,2-2h27c1.10449,0,2,0.89551,2,2v12
				C55,85.10449,54.10449,86,53,86z M28,82h23v-8H28V82z"/>
		</g>
	</g>
	<g>
		<g>
			<path fill="#141B41" d="M26,19H14c-0.55273,0-1-0.44727-1-1s0.44727-1,1-1h12c0.55273,0,1,0.44727,1,1S26.55273,19,26,19z"/>
		</g>
	</g>
	<g>
		<g>
			<path fill="#141B41" d="M79,19H59c-0.55273,0-1-0.44727-1-1s0.44727-1,1-1h20c0.55273,0,1,0.44727,1,1S79.55273,19,79,19z"/>
		</g>
	</g>
	<g>
		<g>
			<path fill="#141B41" d="M26,49H14c-0.55273,0-1-0.44727-1-1s0.44727-1,1-1h12c0.55273,0,1,0.44727,1,1S26.55273,49,26,49z"/>
		</g>
	</g>
	<g>
		<g>
			<path fill="#141B41" d="M79,49H59c-0.55273,0-1-0.44727-1-1s0.44727-1,1-1h20c0.55273,0,1,0.44727,1,1S79.55273,49,79,49z"/>
		</g>
	</g>
	<g>
		<g>
			<path fill="#141B41" d="M26,79H14c-0.55273,0-1-0.44727-1-1s0.44727-1,1-1h12c0.55273,0,1,0.44727,1,1S26.55273,79,26,79z"/>
		</g>
	</g>
	<g>
		<g>
			<path fill="#141B41" d="M79,79H59c-0.55273,0-1-0.44727-1-1s0.44727-1,1-1h20c0.55273,0,1,0.44727,1,1S79.55273,79,79,79z"/>
		</g>
	</g>
	<g>
		<g>
			<path fill="#141B41" d="M53,64H14c-0.55273,0-1-0.44727-1-1s0.44727-1,1-1h39c0.55273,0,1,0.44727,1,1S53.55273,64,53,64z"/>
		</g>
	</g>
	<g>
		<g>
			<path fill="#141B41" d="M52,34H13c-0.55273,0-1-0.44727-1-1s0.44727-1,1-1h39c0.55273,0,1,0.44727,1,1S52.55273,34,52,34z"/>
		</g>
	</g>
	<g>
		<g>
			<path fill="#141B41" d="M92,96H53c-1.10449,0-2-0.89551-2-2s0.89551-2,2-2h37V4H53c-1.10449,0-2-0.89551-2-2s0.89551-2,2-2h39
				c1.10449,0,2,0.89551,2,2v92C94,95.10449,93.10449,96,92,96z"/>
		</g>
	</g>
	<g>
		<g>
			<path fill="#141B41" d="M69,95c-0.55273,0-1-0.44727-1-1V1c0-0.55273,0.44727-1,1-1s1,0.44727,1,1v93
				C70,94.55273,69.55273,95,69,95z"/>
		</g>
	</g>
	<g>
		<g>
			<path fill="#141B41" d="M64,95c-0.55273,0-1-0.44727-1-1V1c0-0.55273,0.44727-1,1-1s1,0.44727,1,1v93
				C65,94.55273,64.55273,95,64,95z"/>
		</g>
	</g>
	<g>
		<g>
			<path fill="#141B41" d="M59,95c-0.55273,0-1-0.44727-1-1V1c0-0.55273,0.44727-1,1-1s1,0.44727,1,1v93
				C60,94.55273,59.55273,95,59,95z"/>
		</g>
	</g>
	<g>
		<g>
			<path fill="#141B41" d="M79,95c-0.55273,0-1-0.44727-1-1V1c0-0.55273,0.44727-1,1-1s1,0.44727,1,1v93
				C80,94.55273,79.55273,95,79,95z"/>
		</g>
	</g>
	<g>
		<g>
			<path fill="#141B41" d="M74,95c-0.55273,0-1-0.44727-1-1V1c0-0.55273,0.44727-1,1-1s1,0.44727,1,1v93
				C75,94.55273,74.55273,95,74,95z"/>
		</g>
	</g>
	<g>
		<g>
			<path fill="#141B41" d="M92,85h-8c-0.55273,0-1-0.44727-1-1V12c0-0.55273,0.44727-1,1-1h8c0.55273,0,1,0.44727,1,1
				s-0.44727,1-1,1h-7v70h7c0.55273,0,1,0.44727,1,1S92.55273,85,92,85z"/>
		</g>
	</g>
	<g>
		<g>
			<path fill="#141B41" d="M13,88c-1.10449,0-2-0.89551-2-2V10c0-1.10449,0.89551-2,2-2s2,0.89551,2,2v76
				C15,87.10449,14.10449,88,13,88z"/>
		</g>
	</g>
	<g>
		<g>
			<path fill="#141B41" d="M33,85c-0.55273,0-1-0.44727-1-1V72c0-0.55273,0.44727-1,1-1s1,0.44727,1,1v12
				C34,84.55273,33.55273,85,33,85z"/>
		</g>
	</g>
	<g>
		<g>
			<path fill="#141B41" d="M33,55c-0.55273,0-1-0.44727-1-1V42c0-0.55273,0.44727-1,1-1s1,0.44727,1,1v12
				C34,54.55273,33.55273,55,33,55z"/>
		</g>
	</g>
	<g>
		<g>
			<path fill="#141B41" d="M33,25c-0.55273,0-1-0.44727-1-1V12c0-0.55273,0.44727-1,1-1s1,0.44727,1,1v12
				C34,24.55273,33.55273,25,33,25z"/>
		</g>
	</g>
	<g>
		<g>
			<path fill="#141B41" d="M91.99902,95c-0.22559,0-0.45215-0.07617-0.63965-0.23145l-6-5
				c-0.42383-0.35352-0.48145-0.98438-0.12793-1.40918c0.35352-0.42383,0.98242-0.48047,1.40918-0.12793l6,5
				c0.42383,0.35352,0.48145,0.98438,0.12793,1.40918C92.57031,94.87793,92.28613,95,91.99902,95z"/>
		</g>
	</g>
	<g>
		<g>
			<path fill="#141B41" d="M86.00098,8c-0.28711,0-0.57129-0.12207-0.76953-0.35938c-0.35352-0.4248-0.2959-1.05566,0.12793-1.40918
				l6-5c0.42578-0.35352,1.05566-0.29492,1.40918,0.12793c0.35352,0.4248,0.2959,1.05566-0.12793,1.40918l-6,5
				C86.45312,7.92383,86.22656,8,86.00098,8z"/>
		</g>
	</g>
	<g>
		<g>
			<path fill="#141B41" d="M5,96c-1.10449,0-2-0.89551-2-2c0-5.51367,4.48633-10,10-10c1.10449,0,2,0.89551,2,2s-0.89551,2-2,2
				c-3.30859,0-6,2.69141-6,6C7,95.10449,6.10449,96,5,96z"/>
		</g>
	</g>
	<g>
		<g>
			<path fill="#141B41" d="M13,12C7.48633,12,3,7.51367,3,2c0-1.10449,0.89551-2,2-2s2,0.89551,2,2c0,3.30859,2.69141,6,6,6
				c1.10449,0,2,0.89551,2,2S14.10449,12,13,12z"/>
		</g>
	</g>
</g>
<g id="megaphone">
</g>
</svg>
