<?xml version="1.0" encoding="utf-8"?>
<!-- Generator: Adobe Illustrator 19.1.0, SVG Export Plug-In . SVG Version: 6.00 Build 0)  -->
<!DOCTYPE svg PUBLIC "-//W3C//DTD SVG 1.1//EN" "http://www.w3.org/Graphics/SVG/1.1/DTD/svg11.dtd">
<svg version="1.1" xmlns="http://www.w3.org/2000/svg" xmlns:xlink="http://www.w3.org/1999/xlink" x="0px" y="0px" width="96px"
	 height="96px" viewBox="0 0 96 96" enable-background="new 0 0 96 96" xml:space="preserve">
<g id="record_x5F_player">
	<g opacity="0.6">
		<g>
			<path fill="#47BCFE" d="M41,2C19.46088,2,2,19.46088,2,41c0,21.53906,17.46088,39,39,39s39-17.46094,39-39
				C80,19.46088,62.53912,2,41,2z M41,51c-5.52283,0-10-4.47717-10-10c0-5.52289,4.47717-10,10-10s10,4.47711,10,10
				C51,46.52283,46.52283,51,41,51z"/>
		</g>
	</g>
	<g opacity="0.7">
		<g>
			<path fill="#CCF2FF" d="M41,2v29c5.52283,0,10,4.47711,10,10c0,5.52283-4.47717,10-10,10v29c21.53912,0,39-17.46094,39-39
				C80,19.46088,62.53912,2,41,2z"/>
		</g>
	</g>
	<g>
		<g>
			<path fill="#141B41" d="M89,52c-0.55225,0-1-0.44775-1-1V41c0-0.55225,0.44775-1,1-1s1,0.44775,1,1v10
				C90,51.55225,89.55225,52,89,52z"/>
		</g>
	</g>
	<g>
		<g>
			<path fill="#141B41" d="M89,58c-0.55225,0-1-0.44775-1-1v-2c0-0.55225,0.44775-1,1-1s1,0.44775,1,1v2
				C90,57.55225,89.55225,58,89,58z"/>
		</g>
	</g>
	<g>
		<g>
			<path fill="#141B41" d="M51,90H41c-0.55225,0-1-0.44775-1-1s0.44775-1,1-1h10c0.55225,0,1,0.44775,1,1S51.55225,90,51,90z"/>
		</g>
	</g>
	<g>
		<g>
			<path fill="#141B41" d="M41,82H2c-1.10449,0-2-0.89551-2-2s0.89551-2,2-2h39c1.10449,0,2,0.89551,2,2S42.10449,82,41,82z"/>
		</g>
	</g>
	<g>
		<g>
			<path fill="#141B41" d="M18.70215,75H6c-1.10449,0-2-0.89551-2-2s0.89551-2,2-2h12.70215c1.10449,0,2,0.89551,2,2
				S19.80664,75,18.70215,75z"/>
		</g>
	</g>
	<g>
		<g>
			<path fill="#141B41" d="M80,4H41c-1.10449,0-2-0.89551-2-2s0.89551-2,2-2h39c1.10449,0,2,0.89551,2,2S81.10449,4,80,4z"/>
		</g>
	</g>
	<g>
		<g>
			<path fill="#141B41" d="M76,11H63.29736c-1.10449,0-2-0.89551-2-2s0.89551-2,2-2H76c1.10449,0,2,0.89551,2,2S77.10449,11,76,11z"
				/>
		</g>
	</g>
	<g>
		<g>
			<path fill="#141B41" d="M41,62c-11.57959,0-21-9.42041-21-21s9.42041-21,21-21s21,9.42041,21,21S52.57959,62,41,62z M41,22
				c-10.47656,0-19,8.52344-19,19s8.52344,19,19,19s19-8.52344,19-19S51.47656,22,41,22z"/>
		</g>
	</g>
	<g>
		<g>
			<path fill="#141B41" d="M41,71c-16.54199,0-30-13.45801-30-30s13.45801-30,30-30s30,13.45801,30,30S57.54199,71,41,71z M41,13
				c-15.43945,0-28,12.56055-28,28s12.56055,28,28,28s28-12.56055,28-28S56.43945,13,41,13z"/>
		</g>
	</g>
	<g>
		<g>
			<path fill="#141B41" d="M71.99902,73.99902c-0.51172,0-1.02393-0.19531-1.41406-0.58594L54.21094,57.03906
				c-0.78125-0.78076-0.78125-2.04736,0-2.82812c0.78027-0.78125,2.04785-0.78125,2.82812,0l16.37402,16.37402
				c0.78125,0.78076,0.78125,2.04736,0,2.82812C73.02295,73.80371,72.51074,73.99902,71.99902,73.99902z"/>
		</g>
	</g>
	<g>
		<g>
			
				<rect x="71.17039" y="71.99973" transform="matrix(0.70711 0.70711 -0.70711 0.70711 73.99951 -30.6516)" fill="#141B41" width="5.65824" height="3.99957"/>
		</g>
	</g>
	<g>
		<g>
			<path fill="#141B41" d="M94,96H41c-1.10449,0-2-0.89551-2-2V80c0-1.10449,0.89551-2,2-2s2,0.89551,2,2v12h49V43H80
				c-1.10449,0-2-0.89551-2-2s0.89551-2,2-2h14c1.10449,0,2,0.89551,2,2v53C96,95.10449,95.10449,96,94,96z"/>
		</g>
	</g>
	<g>
		<g>
			<path fill="#141B41" d="M80,96c-1.10449,0-2-0.89551-2-2v-8c0-1.10449,0.89551-2,2-2s2,0.89551,2,2v8
				C82,95.10449,81.10449,96,80,96z"/>
		</g>
	</g>
	<g>
		<g>
			<path fill="#141B41" d="M94,82h-8c-1.10449,0-2-0.89551-2-2s0.89551-2,2-2h8c1.10449,0,2,0.89551,2,2S95.10449,82,94,82z"/>
		</g>
	</g>
	<g>
		<g>
			<path fill="#141B41" d="M41,67c-0.55225,0-1-0.44775-1-1V51c0-0.55225,0.44775-1,1-1s1,0.44775,1,1v15
				C42,66.55225,41.55225,67,41,67z"/>
		</g>
	</g>
	<g>
		<g>
			<path fill="#141B41" d="M41,32c-0.55225,0-1-0.44775-1-1V16c0-0.55225,0.44775-1,1-1s1,0.44775,1,1v15
				C42,31.55225,41.55225,32,41,32z"/>
		</g>
	</g>
	<g>
		<g>
			<path fill="#141B41" d="M31,42H16c-0.55225,0-1-0.44775-1-1s0.44775-1,1-1h15c0.55225,0,1,0.44775,1,1S31.55225,42,31,42z"/>
		</g>
	</g>
	<g>
		<g>
			<path fill="#141B41" d="M66,42H51c-0.55225,0-1-0.44775-1-1s0.44775-1,1-1h15c0.55225,0,1,0.44775,1,1S66.55225,42,66,42z"/>
		</g>
	</g>
	<g>
		<g>
			<path fill="#141B41" d="M41,82C18.39258,82,0,63.60742,0,41S18.39258,0,41,0s41,18.39258,41,41S63.60742,82,41,82z M41,4
				C20.59814,4,4,20.59814,4,41s16.59814,37,37,37s37-16.59814,37-37S61.40186,4,41,4z"/>
		</g>
	</g>
	<g>
		<g>
			<path fill="#141B41" d="M41,53c-6.6167,0-12-5.3833-12-12s5.3833-12,12-12s12,5.3833,12,12S47.6167,53,41,53z M41,33
				c-4.41113,0-8,3.58887-8,8s3.58887,8,8,8s8-3.58887,8-8S45.41113,33,41,33z"/>
		</g>
	</g>
	<g>
		<g>
			<path fill="#141B41" d="M80,88c-4.41113,0-8-3.58887-8-8s3.58887-8,8-8s8,3.58887,8,8S84.41113,88,80,88z M80,76
				c-2.20557,0-4,1.79443-4,4s1.79443,4,4,4s4-1.79443,4-4S82.20557,76,80,76z"/>
		</g>
	</g>
</g>
<g id="trumpet">
</g>
<g id="stereo_x5F_speaker">
</g>
<g id="guitar">
</g>
<g id="speaker">
</g>
<g id="jack">
</g>
<g id="drum_x5F_sticks">
</g>
<g id="drum">
</g>
<g id="cymbal">
</g>
<g id="piano">
</g>
<g id="microphone">
</g>
<g id="headphone">
</g>
<g id="musical_x5F_score">
</g>
<g id="accordion">
</g>
<g id="megaphone">
</g>
</svg>
