<?xml version="1.0" encoding="utf-8"?>
<!-- Generator: Adobe Illustrator 19.1.0, SVG Export Plug-In . SVG Version: 6.00 Build 0)  -->
<!DOCTYPE svg PUBLIC "-//W3C//DTD SVG 1.1//EN" "http://www.w3.org/Graphics/SVG/1.1/DTD/svg11.dtd">
<svg version="1.1" xmlns="http://www.w3.org/2000/svg" xmlns:xlink="http://www.w3.org/1999/xlink" x="0px" y="0px" width="96px"
	 height="96px" viewBox="0 0 96 96" enable-background="new 0 0 96 96" xml:space="preserve">
<g id="record_x5F_player">
</g>
<g id="trumpet">
</g>
<g id="stereo_x5F_speaker">
</g>
<g id="guitar">
</g>
<g id="speaker">
</g>
<g id="jack">
</g>
<g id="drum_x5F_sticks">
</g>
<g id="drum">
</g>
<g id="cymbal">
</g>
<g id="piano">
</g>
<g id="microphone">
</g>
<g id="headphone">
</g>
<g id="musical_x5F_score">
</g>
<g id="accordion">
</g>
<g id="megaphone">
	<g opacity="0.6">
		<g>
			<path fill="#47BCFE" d="M68,6h8c3.31371,0,6,2.68629,6,6v60c0,3.31371-2.68629,6-6,6h-8"/>
		</g>
	</g>
	<g>
		<g>
			<g>
				<path fill="#CCF2FF" d="M72,80c-1.10449,0-2-0.89551-2-2V6c0-1.10449,0.89551-2,2-2s2,0.89551,2,2v72
					C74,79.10449,73.10449,80,72,80z"/>
			</g>
		</g>
	</g>
	<g>
		<g>
			<path fill="#141B41" d="M68,80c-0.21289,0-0.42578-0.03418-0.63281-0.10254l-66-22C0.55078,57.625,0,56.86133,0,56V30
				c0-0.84082,0.52637-1.5918,1.31641-1.87988l66-24c0.61133-0.2207,1.2959-0.13281,1.83105,0.24219
				C69.68164,4.73633,70,5.34766,70,6v72c0,0.64258-0.30859,1.24707-0.83105,1.62207C68.82422,79.87109,68.41406,80,68,80z
				 M4,54.55859l62,20.66699V8.85547L4,31.40039V54.55859z"/>
		</g>
	</g>
	<g>
		<g>
			<path fill="#141B41" d="M17,33.5459c-0.4082,0-0.79199-0.25195-0.93945-0.6582c-0.18945-0.51953,0.0791-1.09277,0.59766-1.28125
				l51-18.5459c0.52148-0.18945,1.09277,0.0791,1.28125,0.59766c0.18945,0.51953-0.0791,1.09277-0.59766,1.28125l-51,18.5459
				C17.22852,33.52637,17.11328,33.5459,17,33.5459z"/>
		</g>
	</g>
	<g>
		<g>
			<path fill="#141B41" d="M68,72c-0.10449,0-0.21094-0.0166-0.31641-0.05176l-51-17
				c-0.52344-0.17383-0.80664-0.74023-0.63184-1.26465c0.17383-0.52344,0.7373-0.80664,1.26465-0.63184l51,17
				c0.52344,0.17383,0.80664,0.74023,0.63184,1.26465C68.80859,71.73535,68.41895,72,68,72z"/>
		</g>
	</g>
	<g>
		<g>
			<path fill="#141B41" d="M18,70.61523c-0.11035,0-0.22168-0.01758-0.33105-0.05664l-16-5.61523
				c-0.52148-0.18262-0.7959-0.75293-0.6123-1.27441c0.18262-0.52246,0.75391-0.79883,1.27441-0.6123l16,5.61523
				c0.52148,0.18262,0.7959,0.75293,0.6123,1.27441C18.79883,70.3584,18.41309,70.61523,18,70.61523z"/>
		</g>
	</g>
	<g>
		<g>
			<path fill="#141B41" d="M68,84c-1.10449,0-2-0.89551-2-2V2c0-1.10449,0.89551-2,2-2s2,0.89551,2,2v80
				C70,83.10449,69.10449,84,68,84z"/>
		</g>
	</g>
	<g>
		<g>
			<path fill="#141B41" d="M76,80h-8c-1.10449,0-2-0.89551-2-2s0.89551-2,2-2h8c2.20605,0,4-1.79395,4-4V12c0-2.20605-1.79395-4-4-4
				h-8c-1.10449,0-2-0.89551-2-2s0.89551-2,2-2h8c4.41113,0,8,3.58887,8,8v60C84,76.41113,80.41113,80,76,80z"/>
		</g>
	</g>
	<g>
		<g>
			<path fill="#141B41" d="M70,8H26c-1.10449,0-2-0.89551-2-2s0.89551-2,2-2h44c1.10449,0,2,0.89551,2,2S71.10449,8,70,8z"/>
		</g>
	</g>
	<g>
		<g>
			<path fill="#141B41" d="M18,8h-6c-1.10449,0-2-0.89551-2-2s0.89551-2,2-2h6c1.10449,0,2,0.89551,2,2S19.10449,8,18,8z"/>
		</g>
	</g>
	<g>
		<g>
			<path fill="#141B41" d="M22,16H4c-1.10449,0-2-0.89551-2-2s0.89551-2,2-2h18c1.10449,0,2,0.89551,2,2S23.10449,16,22,16z"/>
		</g>
	</g>
	<g>
		<g>
			<path fill="#141B41" d="M75,43c-0.55273,0-1-0.44727-1-1V6c0-0.55273,0.44727-1,1-1s1,0.44727,1,1v36
				C76,42.55273,75.55273,43,75,43z"/>
		</g>
	</g>
	<g>
		<g>
			<path fill="#141B41" d="M75,55c-0.55273,0-1-0.44727-1-1v-4c0-0.55273,0.44727-1,1-1s1,0.44727,1,1v4
				C76,54.55273,75.55273,55,75,55z"/>
		</g>
	</g>
	<g>
		<g>
			<path fill="#141B41" d="M18,96c-0.30566,0-0.6123-0.07031-0.89453-0.21094l-16-8C0.42773,87.4502,0,86.75781,0,86V56
				c0-1.10449,0.89551-2,2-2s2,0.89551,2,2v28.76367l12,6V72.125c0-1.10449,0.89551-2,2-2s2,0.89551,2,2V94
				c0,0.69336-0.35938,1.33691-0.94824,1.70117C18.73047,95.89941,18.36523,96,18,96z"/>
		</g>
	</g>
	<g>
		<g>
			<rect x="16" y="61" fill="#141B41" width="4" height="11.125"/>
		</g>
	</g>
	<g>
		<g>
			<path fill="#141B41" d="M4,16c-3.30859,0-6-2.69141-6-6s2.69141-6,6-6c1.10449,0,2,0.89551,2,2S5.10449,8,4,8
				c-1.10254,0-2,0.89746-2,2s0.89746,2,2,2c1.10449,0,2,0.89551,2,2S5.10449,16,4,16z"/>
		</g>
	</g>
	<g>
		<g>
			<path fill="#141B41" d="M54,96H18c-1.10449,0-2-0.89551-2-2s0.89551-2,2-2h36c1.10449,0,2,0.89551,2,2S55.10449,96,54,96z"/>
		</g>
	</g>
	<g>
		<g>
			<path fill="#141B41" d="M39,89H18c-1.10449,0-2-0.89551-2-2s0.89551-2,2-2h21c1.10449,0,2,0.89551,2,2S40.10449,89,39,89z"/>
		</g>
	</g>
	<g>
		<g>
			<path fill="#141B41" d="M12,92c-0.55273,0-1-0.44727-1-1V77c0-0.55273,0.44727-1,1-1s1,0.44727,1,1v14
				C13,91.55273,12.55273,92,12,92z"/>
		</g>
	</g>
	<g>
		<g>
			<path fill="#141B41" d="M88,56c-0.55273,0-1-0.44727-1-1V31c0-0.55273,0.44727-1,1-1s1,0.44727,1,1v24
				C89,55.55273,88.55273,56,88,56z"/>
		</g>
	</g>
	<g>
		<g>
			<path fill="#141B41" d="M93,51c-0.55273,0-1-0.44727-1-1V36c0-0.55273,0.44727-1,1-1s1,0.44727,1,1v14
				C94,50.55273,93.55273,51,93,51z"/>
		</g>
	</g>
	<g>
		<g>
			<path fill="#141B41" d="M10.75,44H2c-0.55273,0-1-0.44727-1-1s0.44727-1,1-1h8.75c0.55273,0,1,0.44727,1,1S11.30273,44,10.75,44z
				"/>
		</g>
	</g>
</g>
</svg>
